<?xml version="1.0" encoding="utf-8"?>
<!-- Generator: Adobe Illustrator 21.0.0, SVG Export Plug-In . SVG Version: 6.00 Build 0)  -->
<svg version="1.1" id="图层_1" xmlns="http://www.w3.org/2000/svg" xmlns:xlink="http://www.w3.org/1999/xlink" x="0px" y="0px"
	 viewBox="0 0 475 827.8" style="enable-background:new 0 0 475 827.8;" xml:space="preserve">
<style type="text/css">
	.st0{fill:#FFFFFF;stroke:#000000;stroke-miterlimit:10;}
</style>
<title>Anime10_13_271</title>
<g>
	<path id="X0014AAM2Gra8OT24" class="st0" d="M199,696c-0.1-61,4.7-122,14.5-182.2c7.8-47.5,18.4-94.5,31.8-140.7
		c12-41.4,26.6-82,43.5-121.7c5.9-13.9,12.1-27.8,18.3-41.6c0.8-1.7,0.6-4.9,3.7-4.4s5.7,6.9,4.7,9.1L298.3,255
		c-21.4,50.6-39.1,102.8-52.7,156c-11.6,45.5-19.8,91.9-24.6,138.6c-5.1,49.2-6.5,98.7-4.2,148.1c1.9,40.1,6.1,80.1,12.4,119.8
		c2,12.6,2.5,9.8-8.6,10.1c-3.3,0.1-6.7-0.1-10,0.1s-5.1-1.1-5.5-5C201.3,780.6,199.1,738.3,199,696z"/>
	<path id="X0014AAM2Gra7OT24" class="st0" d="M259.4,377.2c2.3,2.3,2.2,4.8,2.8,6.9c16.9,57.2,28.2,115.9,33.6,175.3
		c4.6,48.1,5.5,96.5,2.7,144.8c-2.4,39.9-7,79.7-13.7,119.1c-0.6,3.3-1.7,4.6-5.1,4.4c-4-0.3-8-0.3-12,0c-3.9,0.2-5.3-0.5-4.2-5
		c3.9-16.3,7.2-32.8,10.1-49.4c5.3-30.6,9-61.4,11.2-92.3c3.6-52.4,2.3-105-3.9-157.2c-4.4-37.4-11.5-74.4-21.2-110.8
		c-1-3.9-1.6-7.9-3.2-11.5C252.5,392.8,256.8,385.5,259.4,377.2z"/>
	<path id="X66FF00M2Gra4Co13_14_" class="st0" d="M381.1,122.7c4.3,11.2,8.4,22.3,9.4,34.3c1.6,20.3,1.8,40.5-2.5,60.6
		c-2.1,9.3-1.8,18.9,0.7,28c-1.7,1.1-2.1-0.3-2.5-1c-12-21.5-20.9-43.9-18.5-69.3c1-9.9,4.9-19,7.5-28.4
		C377.8,137.5,380.7,131.3,381.1,122.7z"/>
	<path id="X66FF00M2Gra4Co13_13_" class="st0" d="M105.7,222.8c-2,7.3-5.1,14.2-9.2,20.5c-11.1,17.3-23.9,33.2-39.5,46.6
		c-10.5,9-15.5,20.5-16.5,34.1c0,0.7-0.1,1.3-0.2,2s-0.2,0.2-0.7,0.6c-2.1-0.9-2.2-3-2.3-4.8c-1-27.8,4.7-52.9,27.9-71.2
		C77.7,240.7,92.3,233.8,105.7,222.8z"/>
	<path id="X66FF00M2Gra7Co13_3_" class="st0" d="M383.8,69.2c7.9,2,15.6,0.9,23.3,0c11.6-1.4,23.2-1.7,34.6,2.1
		c4.9,1.6,8.8,4,9.8,9.5c0.1,1.4,0.8,2.6,2,3.3c5.1,2.5,7,7,8.7,12.1s0.9,8.5-2.3,12s-3.9,4.4-3.8,7.8s-1.5,2.6-3.4,1.6
		c-2.5-1.4-4.4-3.6-5.5-6.2c-4.4-10.4-12.8-16.9-22.5-21.5s-17.4-7-25.9-10.7C393.2,76.9,388.1,73.5,383.8,69.2z"/>
	<path id="X81B540M2Gra4OT4_2_" class="st0" d="M439.7,298.8c-2.2-6.3-6.1-11.3-9.9-16.5c-1.7-2.3-3.2-4.8-5.7-6.2
		c-7.6-4.1-11.4-10.9-13.5-18.9c-6-23.2-12.5-46.3-12.5-70.5c0-4.9,0-9.9,0-14.9c3.1-0.2,3,1.7,3.3,2.9
		c7.1,23.4,14.1,46.8,21.3,70.1c0.7,2.1,1.6,4,2.7,5.9c1.8,3.4,3.5,6.8,3.7,10.8s1.9,5.9,3.7,8.6c4.3,6.4,7.7,13.2,8.6,21
		C441.6,293.7,441.6,296.2,439.7,298.8z"/>
	<path id="X66FF00M2Gra2Co13_9_" class="st0" d="M160.8,322.7c4.8-19.7-7-33.1-17.6-46.6s-18.8-27.5-23.1-43.8
		c-1.4-5.2-1.6-10.6-0.5-15.9c0.8,0.3,1.5,0.4,1.6,0.7c6.2,14.8,18,25.1,29.4,35.4c8.4,7.5,12.4,16.8,13.1,27.6
		c0.6,8.5,1.1,16.9,2.9,25.3C168,312.1,165.2,317.7,160.8,322.7z"/>
	<path id="X66FF00M2Gra4Co13_12_" class="st0" d="M396.1,139.1c18.2,13.1,34.6,26.4,40.6,48.4c4,14.9,7.2,30.1,9.5,45.4
		c0.4,2.6,1.5,6.8-1.4,7.5s-2-3.9-2.6-6.1c-3.8-14.6-10.9-27.6-20.4-39.1c-10.9-13.3-16.5-29-21.9-45
		C398.8,146.8,397.6,143.4,396.1,139.1z"/>
	<path id="X66FF00M2Gra4Co13_11_" class="st0" d="M341.8,126.8c-2,6.4-4.7,11.5-6.5,17c-5.9,18.1-4.1,36.1-0.7,54.3
		c0.4,2.3,1,4.6,1.5,6.8c1.5,6.6,1.4,6.6-5.5,5.1c-11.5-2.6-20.8-13.1-20.6-23.2c0-0.8-0.2-1.8,0.2-2.5c6.4-10.4,5.4-23.1,10.4-33.9
		C324.5,142.1,334.2,131,341.8,126.8z"/>
	<path id="X038203M2Gra8Co14" class="st0" d="M243,357.4c-5-13.4-9.8-26.8-15.1-40.1c-8.2-20.6-16.7-41-25.3-61.4
		c-1.6-3.8-2.1-7.3-0.5-11.1c0.6-1.4,0.2-3.8,2.4-3.9s2.7,2.1,3.5,3.8c3.2,6.9,6.6,13.8,9.7,20.8c11,24.6,21.5,49.5,30.5,74.9
		c2.4,6.7-2.9,11.4-4,17.2L243,357.4z"/>
	<path id="X66FF00M2Gra4Co13_10_" class="st0" d="M367.1,139.9c-1.4,11.8-1.1,23-6.6,32.1c-9.8,16-10.5,32.9-8.4,50.6
		c0.4,3.8,1.2,7.6,1.8,11.3c0.2,0.9,0.8,2-0.2,2.7s-1.9,0-2.7-0.7c-0.8-0.7-4.9-4.3-5-7.3c-0.3-6.9-2.5-12.9-5.2-19.3
		c-3.4-8.1-4.1-17.5-2.6-26.6c2.4-14.9,7.9-28.1,21.4-36.7C361.9,144.6,363.9,142.5,367.1,139.9z"/>
	<path id="X66FF00M2Gra4Co13_9_" class="st0" d="M92,263.7c-0.6,30.6-6.7,58.3-26.7,81.7c-0.5,0-0.5-1.1-0.3-1.7
		c2.3-6.7,0.4-13.1-0.8-19.7c-3.2-17.9,0.2-33.7,14.4-46.3C83.4,273.4,88.1,269.1,92,263.7z"/>
	<path id="X66FF00M2Gra2Co13_8_" class="st0" d="M457.9,22c-4.7-0.8-9.3-1.9-14-2.5c-9.2-1.1-17.4,1.7-24.8,7.2
		c-5.5,4.1-10.4,8.8-14.8,14c-6.3,7.5-14.3,11.4-25.6,9.7c3.2-2.1,5.7-3.4,7.7-5.2c4.2-3.6,7.4-8.2,9.4-13.4
		c6.6-17.3,20.9-25.1,37.2-30.4l1.9-0.4c6.9-1.9,6.8-1.8,10,4.7c2.2,4.6,6.2,7.8,9.7,11.3c1.3,1.2,2.7,2.4,4.1,3.5L457.9,22z"/>
	<path id="X66FF00M2Gra6Co13_5_" class="st0" d="M108.9,195.1c-9.4,6.7-19.3,11.6-30.9,13c-8.3,1-16.2,0-24.3-1.4
		c-11-1.9-21.6-1.4-31.2,5.7c0-7.9,7.9-17.8,16.5-21.5s19.2-3.2,29-1.2c5.5,1.1,11,2.8,16.5,4.1C92.5,195.6,100.8,196,108.9,195.1z"
		/>
	<path id="X66FF00M2Gra4Co13_8_" class="st0" d="M357.9,75.8c0.8,12.9-0.3,24-7.6,33.7c-4.6,5.9-9.9,11.3-15.7,16
		c-8.3,7-14.9,15.2-17.9,25.9c-0.3,1.1-0.3,3.1-2.1,2.6c-1.8-0.5-1.2-2.2-1.2-3.5c0.1-20.3,5.5-38.4,21.9-51.9
		C343.3,92.1,351.8,85.9,357.9,75.8z"/>
	<path id="X66FF00M2Gra2Co13_7_" class="st0" d="M396.7,103.7c7.7,4,16.2,6.3,24.9,6.8c7.2,0.4,14.1,3.1,19.8,7.5
		c3.1,2.5,6.9,4,10.9,4.3c18.3,1.8,28.7,23.4,19,39.3c-0.5,0.8-0.9,2-2,2s-1.3-1.3-1.6-2.3c-2.9-9.9-8.7-17.8-16.4-24.6
		c-4.5-4-9.7-7-15.5-8.8c-13.5-4-24.8-11.8-36-19.9C398.5,107.2,397,106.3,396.7,103.7z"/>
	<path id="X66FF00M2Gra2Co13_6_" class="st0" d="M113.2,236.4c5.5,18.6,17,33.3,22.9,50.7c5.4,15.7,2.2,30-6.4,43.8
		c0.2-5.3,0.1-10.6-0.5-15.9c-0.8-8.9-4.4-16.7-8.8-24.2c-9.5-16.3-11.3-33.8-8.5-52.1C112,238.2,112.4,237.8,113.2,236.4z"/>
	<path id="X66FF00M2Gra4Co13_7_" class="st0" d="M102.5,340.1c0.5-8.3-2.3-15.5-5.4-22.8c-3-7.1-3.8-14.9-2.3-22.5
		c2.2-11.8,4.3-23.5,7-35.2c0.4-1.7,0.5-3.5,2.4-5.2c4,21.4,12.3,41.6,8.5,63.5C111.3,326.4,108.5,333.8,102.5,340.1z"/>
	<path id="X66FF00M2Gra4Co13_6_" class="st0" d="M451.7,182.3c-3.4-4.2-6-8.6-9.7-11.7c-11.1-9.2-20.2-20.6-31.2-29.9
		c-5.6-4.7-11.5-9-16.4-14.6c-6.2-7-9.1-15.6-11.9-24.3c1.4-0.9,1.8,0,2.2,0.6c5.7,7.4,12.9,13.6,21.1,18.2
		c23.7,12.9,36.8,33.8,45.6,58.2C451.8,179.7,452.5,180.5,451.7,182.3z"/>
	<path id="X66FF00M2Gra8Co13_3_" class="st0" d="M71.3,236.7c-3.1,4-6.9,5.6-9.5,8.4c-7.2,7.7-16.2,11.7-25.9,15.2s-20,10-23.3,22
		c-0.2,0.7-0.8,1.7-1.5,1.8s-1.7-0.9-2.1-1.8c-1.9-3.9-0.6-7.6,1.1-11c3.8-7.9,7.8-15.8,12.2-23.4s11.9-9.4,19.4-10.8
		C51.2,235.4,60.8,237.3,71.3,236.7z"/>
	<path id="XCCFFC7M2Color21" class="st0" d="M46.9,261.7C36.5,278,34.5,296.2,34,315.6c-3.5-5.4-9.7-5.1-14.5-7.8
		c-3-1.6-5-4.6-5.2-8c-1.5-16.8,1.6-26.5,19.7-34.6c3.8-1.7,7.7-2.9,11.6-4.3L46.9,261.7z"/>
	<path id="X038203M2Gra4Co14" class="st0" d="M139.7,279.1c7,6.4,11.7,14.2,15.6,22.7s4.1,19-1.3,28.2c-2.1,3.6-5,6.7-8.5,9
		c-6.3,3.9-12.9,7.3-19.8,11.1c-0.6-5.1,2-8.3,3.8-11.7s4.1-7.2,6.3-10.8c8.8-14.4,9.3-29.5,3.8-45.1
		C139.4,281.5,138.5,280.6,139.7,279.1z"/>
	<path id="X66FF00M2Gra4Co13_5_" class="st0" d="M59.8,212.7l-9.9,2.8c-18.8,5-29.2,18.1-34.3,36.1c-1,3.7-1.6,7.5-4.2,10.5
		c-2-2.5-4.1-4.9-6.4-7.2c-7.6-7-6.2-14.2,2.2-23.4c3.8-4.2,8.2-7.9,11.9-12.3c5.8-6.9,14.5-9.5,23.8-9.7
		C48.7,209.4,54.4,210.5,59.8,212.7z"/>
	<path id="X66FF00M2Gra4Co13_4_" class="st0" d="M109.6,205.7c-4.2,7.5-10.1,13.9-17.1,18.8c-9.1,6.3-20.2,9.2-31.2,8.3
		c-7.8-0.5-15.6-0.8-23.4,1c-4.4,1-8.3,2.9-12.3,5c4.7-8,12.3-13.9,21.3-16.3c10.1-3,20.6-3.6,30.9-5.6S99.6,211.5,109.6,205.7z"/>
	<path id="X66FF00M2Gra3Co13_1_" class="st0" d="M109,180.5c-4.8-0.6-8.3-3.5-11.7-6.3c-9.1-7.5-19.1-12.8-31.2-12.8
		s-22.9,4-31.5,12.7c-3.5,3.6-7.9,5.5-11.8,8.3c-0.9,0.7-1.9,1.4-2.8-0.4c-2.8-6.2,0.8-15.8,6.7-17.9c2.4-0.8,5-0.6,7.2,0.7
		c1,0.5,2.1,1.3,3.2,0.1s0.5-1.8,0.2-2.8c-1.5-5.2,0.2-7.9,5.1-6.3c8.1,2.6,15-0.2,22.2-2.5c12-3.7,21-1,28,9.2
		C97.1,169.3,102.6,175.4,109,180.5z"/>
	<path id="X66FF00M2Gra2Co13_5_" class="st0" d="M81.2,403.6c-2.8-7.7-1.3-15.3,0-22.8s2.7-17.4,1.6-26.3s1.7-15.5,3.6-23.1
		c1.3-5.1,2.9-10.2,4.4-15.4c6.8,6.9,10.3,23.3,7.1,32.7c-2.7,7.9-6.2,15.6-3.4,24.2c0.4,1.2-0.5,2.2-1.3,3.1
		C86.7,384.1,82,393,81.2,403.6z"/>
	<path id="X66FF00M2Gra2Co13_4_" class="st0" d="M130.9,195.6c8.7,8.6,19.5,10.7,29.8,13.8c13.4,4.1,23.3,11.7,28,25.3
		c1.2,3.7,2.8,7.1,6,9.6s2.4,3.6,2.6,5.8s0.1,5.6-2.1,6.1c-2.2,0.5-2.1-2.8-2.9-4.4c-5.2-10.4-12.4-18.5-23.6-23.2
		c-13.8-5.7-26.2-13.8-35.2-26.2c-0.9-1.3-1.8-2.8-2.6-4.2C130.7,197.8,130.9,197.3,130.9,195.6z"/>
	<path id="X66FF00M2Gra2Co13_3_" class="st0" d="M178.5,266.7c-3.6-3.5-4.7-7.7-7.8-10.4c-6-5.3-12.4-10-19.3-14.1
		c-14.6-8.5-22.6-21.7-26.3-37.8c-0.1-0.5-0.1-1,0-1.5c0.1-0.3,0.4-0.5,0.9-1.2c5.7,10.3,14,17.4,23.9,22.7c1.2,0.6,2.3,1.3,3.5,1.8
		c13.5,5.7,20.9,16.1,23.2,30.2C177.3,259.5,179,262.5,178.5,266.7z"/>
	<path id="X66FF00M2Gra6Co13_4_" class="st0" d="M107.3,188.2c-11.6,1.8-22.5-0.8-33.6-2.9c-9.3-1.7-17.1-7.4-26.5-8.3l-4-0.6
		c-1.7-0.4-4.4,1.3-5-0.6s2.2-3,3.8-3.8c13.9-7.9,28-9.3,41.8,0.3C91.6,177.6,99.1,183.3,107.3,188.2z"/>
	<path id="X009E41M2Gra3OT27_3_" class="st0" d="M118.2,294.4c3.1,3.8,5.2,8.3,6.2,13.1c2.7,11,3.1,22-0.2,33c-0.9,2.9-2,5.7-2,8.7
		c0,1.9-1,3.6-2.6,4.6l-19.4,14.9c-0.7,0.5-1.3,1.2-2.2,0.8s-0.8-1.6-0.7-2.6c0.7-7.7,3.5-15,8.2-21.1
		c11.1-14.4,14.7-30.7,12.5-48.4C118,296.4,118.1,295.4,118.2,294.4z"/>
	<path id="X66FF00M2Gra4Co13_3_" class="st0" d="M351.5,66.8c-5.4,14.8-16,23.3-29.7,28.4c-11.8,4.4-21.7,10.9-26.7,23
		c-2.1-0.9-1.4-2.4-1.2-3.5c3.5-17.4,12.1-30.8,29.5-37.2L351.5,66.8z"/>
	<path id="X66FF00M2Gra6Co13_3_" class="st0" d="M348.9,48.6c-6.5,1.4-11.8-1.8-17.5-3.4s-8.9-2.6-13.7-2.4c-2.5,0.1-5-0.5-7.2-1.7
		c-13.7-6.9-25.1-1.6-35.9,6.8c-0.8,0.6-1.3,1.5-2.2,2.1c-0.9,0.8-2.3,0.8-3.2,0c-1-0.9-0.1-1.8,0.2-2.7c7.8-17.5,25-25.3,43.4-19.4
		c8,2.5,15.4,6.4,21.9,11.7C339.1,43.1,343.5,46.5,348.9,48.6z"/>
	<path id="X66FF00M2Gra6Co13_2_" class="st0" d="M334.3,65.1c-5.7,2.9-11.1,5.4-16.8,7c-5.2,1.4-10.4,2.4-15.7,3.1
		c-5.5,0.7-10.3,3.7-14.8,6.8c-1.8,1.4-3.9,2.6-6,3.5c-3.5,1.2-6.3-1.4-4.9-4.9c5.3-12.9,13.1-21.4,28.4-22.2
		C308.4,58.3,329.3,62.9,334.3,65.1z"/>
	<path id="X009E41M2Gra3OT27_2_" class="st0" d="M415.2,197.4c15.5,13,21.7,30.3,25.6,47.8c1.8,8.3,0.8,18-0.1,27.1
		c-0.1,0.7-0.3,1.4-1.1,1.4c-0.8,0-1.5-0.6-1.9-1.3c-2.2-3.3-4.3-6.7-5.4-10.6c-3.6-13.2-7.5-26.4-11-39.7
		C419.1,214.1,417.3,206.1,415.2,197.4z"/>
	<path id="X66FF00M2Gra4Co13_2_" class="st0" d="M366.7,96.5c6.6,10.6,5,25.9-3.8,36.3c-3,3.5-6.3,6.9-9.6,10.2
		c-6.4,6.3-11.4,13.9-14.4,22.4c-0.6,1.6-0.6,3.6-3,5c-1-8.8,0.8-16.6,4-24.3s9.5-16.4,14.5-24.4c4.4-7.2,8-14.9,10.7-22.9
		C365.6,98,365.5,96.8,366.7,96.5z"/>
	<path id="X81B540M2Gra4OT4_1_" class="st0" d="M361,182.6c3,23.3,9.4,45.3,22.2,65c-0.8,0.7-2,0.6-2.7-0.2l0,0
		c-5.3-5.2-11.9-7-19-7.5c-1.9,0.1-3.5-1.3-3.6-3.2v-0.1c-1.4-8.5-3.1-17-3.3-25.7C354.3,201.1,356.5,191.4,361,182.6z"/>
	<path id="X66FF00M2Gra1Co13" class="st0" d="M276.8,109.4c0.4-3.6,2.4-8,2.3-11.9c-0.2-7.4,4.7-9.3,9.3-12.5s9.9-6,15.8-6.9
		c0.9-0.1,2.1-0.6,2.6,0.7s-0.5,1.5-1,2.1c-13.4,14.3-17.9,31.1-13.6,50.2c0.2,0.9,0.8,2-0.1,2.8s-1.8-0.2-2.6-0.7
		C281.6,128.5,276.5,119.4,276.8,109.4z"/>
	<path id="X66FF00M2Gra7Co13_2_" class="st0" d="M379.6,57.8c13.8,0.9,25.4-3.4,35.9-11.1s28.6-10.8,42.7,0c1.8,1.2,3.7,2.2,5.7,3.1
		c1.7,0.9,1.9,2.2,1.2,3.8s-1.5,2.8-3.4,1.8c-18.4-9.9-35.7-4.2-53.1,3.3c-7.8,3.3-16,4.5-24.4,2.2
		C382.6,60.4,380.9,60.2,379.6,57.8z"/>
	<path id="X66FF00M2Gra8Co13_2_" class="st0" d="M61.7,292.1c-1,4.3-2.6,8.4-3.1,12.9c-1.1,9.4,1.1,18.2,3.7,27
		c1.6,5.5-0.4,10.9,0.2,16.4c0.1,1.3-1,1.7-2,0.9c-3.2-2.5-7.3-4.2-8.7-8.6c-0.8-2.5-1.7-5.4-4.2-6.6c-5.1-2.5-4.6-6.4-4-10.9
		c1.5-11.5,5.9-21.4,14.5-29.3C59,293,59.7,291.6,61.7,292.1z"/>
	<path id="X66FF00M2Gra4Co13_1_" class="st0" d="M326.7,97.4c0.4,1,0.1,2.2-0.7,3c-11,12.4-17,26.5-14.9,43.4
		c0.1,0.8,0.4,1.8-0.5,2.3s-1.9-0.3-2.4-1.1c-2.4-3.7-5.9-5.8-9.8-7.4c-2.3-0.9-2.8-2.5-2.8-4.7c-0.1-10.2,4.1-18.4,11.6-25
		C312.8,103,319.6,100.3,326.7,97.4z"/>
	<path id="X66FF00M2Gra4Co13" class="st0" d="M379.1,80.7c10.7,6.1,22.6,7.7,34,11c10.3,3,19.6,8.6,27.1,16.3
		c1.1,1.2,2.2,2.5,3.1,3.9c0.2,0.5,0.3,1,0.3,1.5c-0.6,0.1-1.2,0.4-1.4,0.2c-9.3-6.8-20.2-9-31.3-10.8c-6.9-1.1-13.6-3.4-19.7-6.8
		C385.2,92.6,381.4,87.3,379.1,80.7z"/>
	<path id="X009E41M2Gra3OT27_1_" class="st0" d="M77.1,401.4c-2.5-3.3-4-7.3-4.1-11.5c-0.1-4.9-1.8-9.6-4.9-13.3
		c-5.7-6.9-5.8-14.4-2.3-22.4c4.3-9.8,11.1-18.1,15.6-28.2c2,1.4,1,2.8,0.7,4c-1.3,5.2-2.6,10.3-3.9,15.4c-0.7,2.2-0.8,4.6-0.4,6.9
		c1.8,7.5,1.2,14.9-0.2,22.3C75.8,383.4,75.7,392.5,77.1,401.4z"/>
	<path id="X66FF00M2Gra2Co13_2_" class="st0" d="M412.6,38c7-6.6,13.7-12.9,23.8-14.4c8.3-1.2,16.2,1.1,24.1,2.6
		c5.4,1,9.6,14.4,6.3,18.6c-1.6,2-3.1,0.2-4.3-0.6c-4.5-3.1-9.1-6-14.4-7.7c-10.9-3.5-21.6-3.2-32,1.6
		C415.2,38.4,414.3,39.2,412.6,38z"/>
	<path id="X81B540M2Gra2OT4_1_" class="st0" d="M153.6,247.6c12,8,22.7,16.4,26.2,31.2c0.7,3,2.2,5.9,3.1,8.9s-0.6,7.2-4.9,8.2
		c-2.6,0.6-5.2,0.8-7.8,1.3s-2.3-1.2-2.4-2.7c-0.1-3.8-0.1-7.7-0.1-11.5c-0.1-11.7-3.1-22.4-11.7-31c-0.9-1-1.8-2-2.6-3.1
		C153.3,249,153.5,248.5,153.6,247.6z"/>
	<path id="X038203M2Gra2Co14_2_" class="st0" d="M201.4,229.8c-3.3-10.1-11.9-12.2-19.1-16.4c-9.7-5.8-20.3-10.1-31.3-12.7
		c-1.8-0.3-3.4-1.5-4.2-3.2c10.3,0.8,20.4-1.5,30.2,1.2s18.7,10.4,24.4,20C203.4,221.8,203.1,225.3,201.4,229.8z"/>
	<path id="X81B540M2Gra4OT4" class="st0" d="M435.3,170.2c9,8.4,16.3,18.4,21.5,29.6c3.4,7-0.3,20.2-6.9,28.1
		C446.3,208,442.7,188.6,435.3,170.2z"/>
	<path id="X66FF00M2Gra2Co13_1_" class="st0" d="M432.4,132.8c16.6,6.4,27.5,17.4,32.1,34.5c1,3.8-2.4,4.7-4.3,6.5
		c-4.3,3.9-4.4,3.8-6.4-1.7c-4.6-13-12.2-24.3-19.9-35.5C433.3,135.5,432.1,134.9,432.4,132.8z"/>
	<path id="X66FF00M2Gra3Co13" class="st0" d="M117.3,177.2c-7.9-2.9-12.9-9.3-17.9-15.6c-3-3.8-5.9-7.6-9.9-10.4
		c-1.3-1-2.3-2.4-3-3.9c-5.4-11-14.5-16.4-26.4-17.8c-0.6-0.2-1.2-0.5-1.8-0.9c2.7-1.2,5.7-1.7,8.6-1.2c14.4,1.5,25.3,8.5,32.1,21.5
		c3,5.7,6.2,11.4,9.3,17.1C110.5,170.3,113.6,174.1,117.3,177.2z"/>
	<path id="X66FF00M2Gra6Co13_1_" class="st0" d="M307.8,44c-16.5,6.8-26.9,18.6-33.5,34.3c-2.3-1.5-1.8-3.3-1.7-5
		c0.5-3.6,1.5-7.1,3-10.5c0.8-2.1,1.7-4.3,0.8-6.3c-1.9-4.5,0.7-6.7,3.6-9.2C287.6,41.3,299.4,39.5,307.8,44z"/>
	<path id="X66FF00M2Gra2Co13" class="st0" d="M159.4,191.7c8.8-4.5,16.9-12.8,27.5-8.7s16.6,11,21.3,20.6c-7-5.5-14.8-7.9-23.6-8.8
		S168,191.8,159.4,191.7z"/>
	<path id="X66FF00M2Gra7Co13_1_" class="st0" d="M417.9,61.9c0.8-3.1,3-3,4.5-3.6c11.3-4.7,24-5.1,35.6-1c3.4,1.2,5.4,2.6,2,6.1
		c-1.5,1.4-2.6,3.1-3.2,5c-1.6,5.9-3.8,4.1-7.2,1.4c-7.8-6.2-17.4-7-26.8-7.8C421.3,61.8,419.8,61.9,417.9,61.9z"/>
	<path id="X66FF00M2Gra5Co13" class="st0" d="M18,214.8c-4.4-9.3-2.1-23.2,3.8-28.5s21.6-8.4,30.3-3C32.8,185.2,23.4,197.2,18,214.8
		z"/>
	<path id="X009E41M2Gra3OT27" class="st0" d="M394.6,216.4c3.6,16.3,8.3,32.4,13.9,48.1c-2.7-1.3-5.7-2-8.7-2.3
		c-3-0.4-5.4-2-5.7-5.4c-1.1-11.6-3.3-23.1-1.8-34.8C392.4,220.3,392.1,218.3,394.6,216.4z"/>
	<path id="X66FF00M2Gra6Co13" class="st0" d="M349.4,56.4c-4.3,3.6-8.9,6-14.5,4.9S322.2,58.8,316,57c-6.2-1.8-11.3-1.6-18.4-1.4
		c7.8-6,15.4-7.2,23.4-6.6c5,0.4,9.6,2.4,14.3,4C340,54.6,344.2,56.8,349.4,56.4z"/>
	<path id="X81B540M2Gra2OT4" class="st0" d="M189,198.6c6.5,0.6,11.2,4.1,16.1,6.9c3.1,1.8,6,4.1,9.2,5.9s3.2,3.5,0.7,5.3
		s-4.1,5.5-1.8,9.4s-0.2,5.5-2,7.6s-4.6,2.5-7.2,2.7c-0.8,0.1-1.2-0.6-1.2-1.3c0.1-0.7,0.2-1.3,0.5-1.9c5.9-15.4,2.3-19.7-10.8-30.8
		C191.4,201.6,189.9,201.1,189,198.6z"/>
	<path id="X66FF00M2Gra8Co13_1_" class="st0" d="M174.2,235.4c8.6,4.8,13.8,12.5,17.3,21.4c0.8,2.1-0.8,2.4-2.2,3.1s-5.3,3-3,6.9
		c0.4,0.9,0.5,1.9,0.3,2.9c-0.5,1.9-0.8,4.6-3.1,4.4s-1-2.8-1.2-4.3C180.9,258,179.9,246.3,174.2,235.4z"/>
	<path id="X66FF00M2Gra7Co13" class="st0" d="M411.5,8.4c-10.4,4.8-15,13.2-19.9,21.5c-2.8,4.8-6.7,8.8-11.4,11.7
		c-2.3,1.6-5.2,2-7.8,1.1C385.2,33,388.5,15,404.9,9.3C406.6,8.7,408,7.3,411.5,8.4z"/>
	<path id="X038203M2Gra2Co14_1_" class="st0" d="M180.1,170.6c-11.3,3.7-16.4,15.3-27.9,17.5c-8.2,1.6-15.7,0.8-22.7-4.3
		c0.7-0.4,1-0.7,1.1-0.6c9.7,4.6,18.2,2.8,26-4.4c4.8-4.4,10.2-8.1,16.9-9C175.3,169.6,177.3,168.8,180.1,170.6z"/>
	<path id="X376600M2Color16" class="st0" d="M60.3,132.2c8.2,1.2,15.7,5.4,21,11.8c0.6,0.7,1.5,1.6,0.5,2.6s-1.5,0-2.3-0.3
		c-5.4-2.2-11.2-3.4-17-3.5c-2.5-0.1-5,0.3-7.3,1.3c-1.2,0.5-2.5,1.4-3.6,0c-1.2-1.2-1.5-3-0.8-4.6
		C52.9,135.9,56.3,133.3,60.3,132.2z"/>
	<path id="X66FF00M2Gra8Co13" class="st0" d="M183.7,218.3c7.3,2.4,13.4,5.7,15.3,13.6c0.7,2.8,0,4.6-2.5,6.2s-3.2,1.1-4-1.2
		C190.4,230.4,188.7,223.6,183.7,218.3z"/>
	<path id="X038203M2Gra2Co14" class="st0" d="M171.7,179.5c10.6-11,22.5-7.7,29.4,7.8c-5.1-3.2-7.8-7.9-12.9-9.1
		S178.1,177.4,171.7,179.5z"/>
	<path id="X81B540M2Gra6OT4" class="st0" d="M69.9,147c-6.8,1.5-12.3,6.5-19.4,7.1c-1.1,0.1-2.5,0.3-3-1s0.7-2.5,1.8-3.2
		C55.4,145.5,62.3,144.9,69.9,147z"/>
</g>
</svg>
