<?xml version="1.0" encoding="utf-8"?>
<!-- Generator: Adobe Illustrator 24.1.0, SVG Export Plug-In . SVG Version: 6.00 Build 0)  -->
<svg version="1.1" id="图层_1" xmlns="http://www.w3.org/2000/svg" xmlns:xlink="http://www.w3.org/1999/xlink" x="0px" y="0px"
	 viewBox="0 0 750.7 690.7" style="enable-background:new 0 0 750.7 690.7;" xml:space="preserve">
<style type="text/css">
	.st0{fill:#FFFFFF;stroke:#000000;stroke-miterlimit:10;}
</style>
<g>
	<path id="X009E41M2Gra4OT27" class="st0" d="M193.3,347.4c-2.9-3.3-3.9-7.1-5.5-10.4c-4.3-8.8-8.3-17.7-12.5-26.5
		c-1.1-2.2-2.4-4.8-5.4-4.5c-2.9,0.3-3.8,2.9-4.6,5.3c-0.8,2.7-1.3,5.2,1.5,7.1c1,0.6,1.9,1.3,2.8,2c2.9,2.6,2.5,5.1-1.3,6
		c-2.2,0.5-2.7,1.4-2.5,3.3c0.6,6.1,1,12.3,1.6,18.4c0.1,0.9,0,2.2,1.2,2.5s1.5-1.1,2.2-1.7c1.9-1.8,2.7-6,6.2-4.6
		c4.3,1.7,8.7,3.8,10.8,8.3c1.4,3-2.1,7.2-5.5,6.3c-3.2-0.9-5.1,0.2-7.7,1.5c-4.8,2.5-8.3,0.1-8.9-5.2c-0.9-7.8-0.7-16.1-3.5-23.1
		c-2.2-5.5-3.2-10.2-2-15.7c0.1-1.2,0-2.3-0.4-3.5c-0.3-1.4-1-2.7-2.6-2.5c-1.5,0.2-1.5,1.6-1.5,2.8c-0.1,1.5-0.2,3-0.2,4.5
		c-0.2,3.8,0,3.3-3.4,2.3c-2.5-0.7-5.4-0.6-6.9,2.9c-3.5,8.3-7.2,16.5-10.9,24.6c-0.8,1.7-0.9,4-4,4.5c1.2-6.3,4.4-11.6,6.3-17.3
		c1.1-3.3,2.7-6.5,3.9-9.7c1.1-2.8,2.7-5.2-0.3-8.6c-2.3-2.6,1.6-4.5,3.7-5.7c3.8-2.2,4.6-5.2,2.6-8.8c-1.7-3.1-4.6-3.9-6.9-1.1
		c-5.1,6.1-9.8,12.6-14.6,19c-1.1,1.4-0.2,2.4,0.4,3.6c1.6,3.3,2.2,7,2.7,10.6c0.3,2.6-0.4,5.2-3.4,5.9c-2.6,0.6-5.3-0.3-6.3-2.9
		c-2.1-5.5-3.7-1.8-5.1,0.2c-6.8,9.9-13.1,20.1-18.7,30.7C69.7,413.3,52.8,461.3,42,511.6c-9.4,43.6-14.5,87.7-16.8,132.2
		c-0.7,13.1-1.4,26.3-1.9,39.4c-0.1,3.6-1.3,5.1-4.8,5.5c-4.8,0.5-9.6,1.1-14.4,1.9c-3.5,0.6-4.5-0.8-4.1-4.1
		c2.1-18.2,4-36.4,6.3-54.6c3-23,7-45.7,11.9-68.4c6.8-32.3,15.6-64.1,26.3-95.2c9.2-26.6,20.1-52.6,32.9-77.7
		c9.4-18.4,19.8-36.3,31.2-53.5c1.2-1.9,2-3.3,0.8-5.8c-1.8-3.8,0.8-6.3,4.2-7c4.2-0.9,6.5-3.6,8.8-6.7c4.8-6.4,9.7-12.7,14.6-19.1
		c1.5-1.9,3.3-4.2,1.1-6.1c-2.3-2-4.2,0.5-5.8,2.1c-9.2,9-18.3,18-27.5,26.9c-1.2,1.2-2.1,3.1-4.4,3c-0.9-2.2,1-3,2-4.1
		c8.7-9.4,17.4-18.9,26.3-28.1c4.1-4.2,5.3-9.1,4.7-14.6c-0.4-4.3-2.8-6.1-7.2-5.2c-5.4,1.1-10.8,1.8-15.9,4.2
		c-1.2,0.6-2.8,1.6-3.6,0.3c-1-1.5,0.9-2.2,1.9-3c5.1-4.3,11.3-6.2,17.7-7.5c2.3-0.5,5.2-0.6,5-3.7c-0.2-2.7-2.9-3.4-5.3-3.7
		c-16.5-1.9-33.1-3.7-49.6-5.6c-2.4-0.3-5,0-7.3-1.8c1.4-2,3.3-1.1,4.9-1c16.8,1,33.6,2.2,50.4,3.3c0.8,0.1,1.7,0.2,2.5,0.2
		c1,0,2.2,0.3,2.5-0.9s-0.9-1.6-1.7-2.1c-6.2-3.2-12.4-6.5-18.6-9.7c-0.4-0.2-0.9-0.4-1.3-0.7c-1-0.6-3.1-0.8-2.1-2.6
		c0.7-1.2,2.1-0.2,3.1,0.2c6.5,3,13,6,19.5,9c1.4,0.6,2.7,1.3,4.1,1.8c1.1,0.4,2.5,2,3.4,0.2c0.8-1.5-0.9-2.2-2-3
		c-9.9-7-19.8-14.1-29.8-21.1c-4.8-3.4-9.5-6.8-14.2-10.2c-0.8-0.6-1.8-1.1-1.4-2.4c2.1-1.2,3.3,0.8,4.7,1.7
		c13.6,8.7,27.1,17.5,40.7,26.3c2.4,1.5,4.9,2.8,7.4,4.1c0.9,0.6,2.1,0.5,2.7-0.3c0.7-1-0.1-1.9-0.8-2.6c-2.9-2.7-5.9-5.3-8.9-8
		c-1.2-1.1-2.3-2.2-3.5-3.3c1.2-1.9,2.2-0.8,3.1-0.2c2.3,1.7,4.4,3.6,6.7,5.2c1.6,1.1,3.3,2.7,5.3,0.6c1.7-1.8,1.3-3.8,0.1-5.5
		c-3-4.2-6.1-8.3-9.3-12.4c-4.9-6.3-10-12.5-15-18.8c-1-1.2-2.4-2.3-2.3-5.7c8.2,7.5,13.9,16.1,22,22.7
		c-4.6-12.9-9.2-25.9-13.9-39.3c3.3,0.1,3.4,2.3,4,3.8c5.7,13.9,11.3,27.7,17,41.6c0.6,1.6,1.3,3.1,2,4.6c1.1,2,2.8,3.5,5.3,2.9
		c2.2-0.4,3.9-2.3,4.1-4.5c0.3-2.8,0.3-5.6,0.1-8.5c-0.7-10.1-1.6-20.3-2.3-30.4c-0.1-1.8-1.3-4,1.7-5.8c0.7,4.5,1.4,8.6,1.9,12.8
		c1.1,10.1,2.1,20.2,3.1,30.3c0.1,2.3,0.8,4.6,1.9,6.7c0.9,1.4,2.2,2.7,4.1,2.4c2-0.3,2.5-2.1,2.6-3.8c0.4-6.7-0.9-13.3-1.5-19.9
		c-0.2-2.2-2.6-2.9-4-4.2c-1.5-1.5-2.7-3.1-1.9-5.3c0.9-2.2,3-2,4.7-1.6c1.5,0.3,3,0.1,4.3-0.6c1.6-0.8,3.5-0.4,4.5,1
		c1.1,1.4,1,3.4-0.3,4.6c-8.5,8.6-2.1,18.1-1.7,27.3c0,1.6,1.1,3,2.6,3.3c2,0.3,3.1-1.3,3.9-2.6c2.1-3.6,4-7.3,5.8-11
		c6.8-13.8,13.5-27.5,20.2-41.3c0.5-1.1,1-3.2,2.4-2.6c2,0.9,0.3,2.6-0.2,3.7c-6.8,15.6-13.6,31.1-20.5,46.7
		c-0.4,0.9-0.7,1.8-1.4,3.9c3.3-2.2,5.5-3.8,7.9-5.2c1-0.6,2.4-2,3.6-0.7c1.2,1.4-0.6,2.2-1.4,3.2c-4.6,5.8-6.8,12.1-4.8,19.5
		c2.3,8.2,7.4,12.7,16,12.1c11.8-0.8,23.5-2.5,35.3-3.7c2.5-0.3,3.7-1.8,4.6-4c1.6-4,3.1-8.1,6.2-11.3c2.1-2.2,4.5-3.8,7.5-2
		c3,1.9,5.1,4.8,3.6,8.4c-1.1,2.7-0.1,3.7,1.7,5.2c2.9,2.5,4.1,5.8,1.8,9.3c-2,3.2-5.2,3.2-8.4,2.1c-0.5-0.1-1-0.3-1.4-0.5
		c-8.1-6.2-16.9-5.1-26-3.1c-7.6,1.7-15.4,2.7-23.1,4.1c-1.4,0.3-3.3,0.5-3.4,2.3c-0.1,1.9,1.8,2.3,3.2,2.5c7.5,1.4,15,2.9,22.6,4.1
		c15.6,2.5,31.2,4.8,46.8,7.2c1,0.2,2.4,0.2,2.3,1.4c-0.3,1.9-2,1.3-3.3,1.1c-18.6-2.7-37.5-3.5-56-6.6c-0.8-0.1-1.5-0.1-2.3,0
		c0.8,2.4,2.8,2.6,4.3,3.3c8.2,3.7,16.5,7.2,24.7,10.9c1.1,0.5,3.2,0.6,2.3,2.4c-0.6,1.2-2.1,0.3-3.1-0.1
		c-12.4-4.8-24.9-9.6-37.3-14.4c-1-0.5-2.1-0.9-3.3-1.1c-3.2-0.2-6.7-0.3-8,3.4c-1.2,3.3,1.3,5.2,3.7,6.8c4.7,3.2,9.5,6.2,14.2,9.3
		c1.3,0.9,3.1,1.4,3.3,3.4c-1.6,1.3-2.6-0.1-3.6-0.7c-6.9-4-13.8-8.1-20.7-12.1c-1.1-0.6-2.4-2-3.5-0.7c-1.4,1.5,0.2,2.8,1.1,3.8
		c4.3,4.5,8.5,8.9,12.9,13.2c10.2,10,20.5,20,30.8,30c0.6,0.5,1.2,1.1,1.8,1.7c0.5,0.6,1.1,1.4,0.2,2.2c-0.6,0.5-1.3,0.2-1.8-0.2
		c-0.9-0.7-1.8-1.5-2.6-2.3c-14-12.6-28-25.2-42-37.7c-0.7-0.7-1.5-1.3-2.3-1.9c-2.1-1.3-4.4-4.8-6.6-2.2c-1.9,2.1,1.7,4.1,3,6.1
		c0.7,1,2.8,1.8,1.6,3.1c-1.3,1.5-2.3-0.5-3.2-1.2c-1.8-1.6-3.5-2.5-5.9-1.3c-1,0.4-1.6,1.3-1.6,2.3c0.1,2.6,1.9,3.7,4.1,4.5
		c1.6,0.6,2.8,1.8,3.4,3.3c2.4,4.9,7.2,7.7,10.9,11.5c1.7,1.7,2.1-0.3,2.2-1.7c0.2-2.2,0.3-4.5,3.2-4.8c3.2-0.4,6.3-0.8,9.1,1.5
		c0.8,0.7,1.7,1.8,1,2.6c-2.6,3-5.1,6.3-8.2,8.7c-2.6,1.9-5-0.8-7-2.5c-4-3.3-7.8-6.7-11.8-10.1c-1.1-1-2.5-2.1-4-1.1
		c-1.7,1.2-1.2,2.9-0.5,4.5c3.2,7.9,6.5,15.7,9.7,23.6C193.5,343.6,194.8,344.9,193.3,347.4z"/>
	<path id="XF37FFFM2Gra4OT19_15_" class="st0" d="M255.1,359.3c0.3-10.1-2-7.5,10.1-9.8c5.1-1.1,10.2-1.5,15.4-1.2
		c7,0.5,11.4,4.1,11.7,9.3c0.3,5.9-4.8,11.8-11.2,12.5c-2.7,0.3-3.4,1.1-3,3.7c0.6,5-1.9,8.7-5.9,11.2c-5.4,3.4-11,1.8-13.8-3.9
		C255.2,375,254.9,368.4,255.1,359.3z"/>
	<path id="XF37FFFM2Gra4OT19_14_" class="st0" d="M190.6,412.2c-0.2,3.4-2.2,6.4-5.3,7.9c-4.1,2.3-8.4,2.9-12.2-0.2
		c-2.8-2.3-4-2.7-6.4,0.6c-3.3,4.5-10.1,5.1-14.9,2.1c-4.4-2.7-5.5-7.3-2.8-13.2c3.6-7.7,9.5-13.6,15.4-19.5
		c0.9-1.1,2.5-1.3,3.6-0.4l0,0c6.6,4.5,13.7,8.3,18.9,14.6C188.8,406.5,190.1,409.3,190.6,412.2z"/>
	<path id="XF37FFFM2Gra4OT19_13_" class="st0" d="M347.2,130.2c-13-0.6-10.9,2.8-13.2-11.3c-0.9-5.6-1.8-11.2-0.2-16.8
		c1.8-5.9,4.4-8.3,9.2-8c5.3,0.3,10.5,4.3,10.9,9.3c0.3,3.7,0.8,5.1,5.2,4.6c5.2-0.6,11,5.3,11.6,10.6c0.5,4.1-2.7,7.9-8.2,10
		C357.6,130.3,352.4,130.1,347.2,130.2z"/>
	<path id="XF37FFFM2Gra4OT19_12_" class="st0" d="M314,270.6c-6.5-0.1-11.6-3.8-16.7-7.2c-10.6-7.1-10.5-7.2-4.5-18.2
		c2.5-4.5,4.9-9.1,9-12.5c4.7-3.9,8.9-4.2,12.6-1.1c3.8,3.2,5.4,10,2.7,14.1c-1.8,2.8-2.2,4.1,1.2,5.9c3.9,2.1,5.6,8.3,4.2,12.9
		C321.5,268.4,318.4,270.6,314,270.6z"/>
	<path id="XF37FFFM2Gra4OT19_11_" class="st0" d="M335.2,274.6c4,0.7,8.1,1.5,9.5,6.4c1.5,5.1-1.1,11.4-6.1,13.4
		c-3.4,1.4-4.5,2.3-3,6.2c1.8,4.8-1.9,11.2-6.5,13.2c-4.3,1.8-8.4,0.3-11.8-4.9c-4.5-7-6.1-15-8.2-22.9c-0.4-1.2,0.2-2.4,1.4-2.9
		C318.5,279.7,326.2,275.6,335.2,274.6z"/>
	<path id="XF37FFFM2Gra4OT19_10_" class="st0" d="M217.9,123.1c6.3,0,9.9,2.1,12.1,6.3c1.1,2.2,1.9,2.9,4.4,1.8
		c5.6-2.3,12.1,0,14.9,5.4c2.2,4.4,0.4,8.9-5,12.6c-6.1,4.2-13.2,6.4-20.1,8.8c-1.8,0.6-3.3,0.3-4.3-1.5c-4-7.1-8.4-14.1-9.8-22.3
		C209.1,127.3,212.7,123.1,217.9,123.1z"/>
	<path id="XF37FFFM2Gra4OT19_9_" class="st0" d="M21.1,230.1c4.2,0.5,8.1,2.2,11.3,4.9c1.6,1.2,3.1,2.5,4.5,3.9
		c10.2,9.6,10.2,9.6,1.5,20.9c-2.1,3-4.7,5.7-7.5,8c-4.8,3.6-9.3,3.9-12.8,1c-4-3.4-5.1-10.1-1.8-14.5c2.3-3,1.9-4.2-0.8-6.6
		c-3.5-3.2-3.7-7.6-2-12C14.7,232.3,17.7,230.1,21.1,230.1z"/>
	<path id="XFFB6F5M2Color19_15_" class="st0" d="M84.9,345.8c-0.3,6.1-0.9,11.9-3,17.4c-1.9,5-5.6,7.3-9.9,6.5
		c-4.5-0.8-9-5.7-8.5-10.3c0.4-4-1-5.1-4.6-5.7c-4.4-0.8-8.3-6.7-7.7-11c0.7-4.9,4.2-6.9,8.7-7.5c7.8-1.1,15.2,0.7,22.5,2.8
		C87,339.3,84,343.4,84.9,345.8z"/>
	<path id="XF37FFFM2Gra4OT19_8_" class="st0" d="M397.9,191.1c-0.6,4.2-2.8,8.3-7.8,9.7c-2.5,0.7-2.7,1.7-2.1,3.8
		c1.2,4.1-0.3,7.5-3.1,10.4c-4,4.1-9,3.9-12.4-0.6c-5.3-7-6.2-15.6-7.6-24c-0.3-1.7,1.2-2.2,2.4-2.7c6.4-2.7,12.9-5.3,20-5.7
		C393.8,181.5,398.1,184.9,397.9,191.1z"/>
	<path id="XF37FFFM2Gra4OT19_7_" class="st0" d="M544.8,79.7c-4.2,4.9-0.2,7.7,3.2,11.5c2.9,3.3,2.9,7.8,0,11.6
		c-2.7,3.6-6.5,3.5-10.4,2.2c-6.6-2.1-12.3-6-17.9-9.8c-1.4-1-2.1-2.2-1.3-3.8c3-6.5,5.1-13.4,10.2-18.8c2.7-2.8,5.5-5.1,9.6-3.4
		C542.6,70.9,544.1,74.7,544.8,79.7z"/>
	<path id="XFFB6F5M2Color19_14_" class="st0" d="M109.6,124.1c5,4.7,9.7,0.9,15.1-2c3.4-1.8,7.3-0.3,9.9,2.7c2.6,3.1,2,6.7,0.5,9.9
		c-3.1,6.6-8.1,11.8-13.1,16.9c-0.9,1.1-2.5,1.2-3.6,0.4c-6-3.8-12.3-7.3-17-13c-2.4-2.9-3.6-6.1-2-9.7
		C101.1,125.7,104.4,124.2,109.6,124.1z"/>
	<path id="XF37FFFM2Gra4OT19_6_" class="st0" d="M405.3,35c-4.1,4.7-1.4,9.4,1.9,14.7c2,3.2,0.4,7.3-2.5,10s-6.4,2.2-9.8,0.7
		c-6.8-3-11.9-8.3-17.1-13.5c-1.1-0.9-1.2-2.5-0.3-3.6c4-6.1,7.6-12.5,13.6-17c2.8-2.1,5.9-3.3,9.2-1.6
		C404,26.5,405.3,29.9,405.3,35z"/>
	<path id="XFFB6F5M2Color19_13_" class="st0" d="M129.5,407.5c-0.3,0-1.8,0.2-2.5-0.5c-4.2-4-8.6-4.3-14.1-2.5
		c-3.8,1.3-7.6-0.9-9.4-4.8c-1.7-3.7,0.1-6.8,2.4-9.6c4.6-5.4,10.8-8.8,16.8-12.2c1.5-0.9,2.5,0,3.4,1c4.6,5.1,9.3,10,12.1,16.3
		C141.1,402.2,137.7,407.5,129.5,407.5z"/>
	<path id="XF37FFFM2Gra4OT19_5_" class="st0" d="M153.3,137.4c0.3-3,0.9-5.8,4-7c4.2-1.5,8.5-1.5,11.4,2.2c2.2,2.8,3.7,3.8,7.5,2.2
		c4.1-1.7,8.1,0.6,10.7,4.3c2.5,3.6,0.9,6.8-1.6,9.4c-5.2,5.5-12.3,7.7-18.9,10.7c-0.8,0.4-1.7,0.2-2.2-0.5
		C159.5,152.2,154.2,145.9,153.3,137.4z"/>
	<path id="XFFB6F5M2Color19_12_" class="st0" d="M281,296.2c4.2-0.2,8.5,0.2,12.5,1.3c4.1,1.1,7.5,3.3,7.5,8.1
		c0,4.1-4.1,8.4-8.4,8.7c-3.2,0.2-4.5,1.1-5.2,4.4c-1,4.5-4.5,6.9-9.2,6.8c-4.6,0-6.2-3.3-7.2-7c-1.8-6.9,0.7-13.5,1.6-20.2
		c0.2-1.6,1.6-1.9,3.1-1.9C277.7,296.2,279.7,296.2,281,296.2z"/>
	<path id="XF37FFFM2Gra4OT19_4_" class="st0" d="M195.2,384.9c0.2-5.5,2.7-11,4.9-16.6c0.7-1.7,2-2,3.7-1.7
		c5.9,1.1,11.8,1.9,17.2,4.8c3.5,1.9,6,4.4,5.1,8.7c-1.2,4.4-5.4,7.2-9.9,6.7c-2.8-0.4-4.2-0.1-5.3,2.7c-2,4.7-6.6,6.9-10.9,5.6
		C195.3,393.5,195.3,389.5,195.2,384.9z"/>
	<path id="XFFB6F5M2Color19_11_" class="st0" d="M73.3,196.4c0,1.6,0,2,0,2.3c0,8.2,0.1,8.2-8,9c-3.9,0.4-7.8,1.5-11.9,0.7
		c-3.8-0.8-7.2-1.9-7.6-6.5c-0.2-4.3,2.7-8.2,7-9.1c2.8-0.5,3.7-1,3.6-4.2c-0.2-4.5,2.9-7.4,7.2-8.3c4.6-1,6.6,2.2,8,5.8
		c0.6,1.4,1,2.8,1.2,4.3C73.2,192.7,73.3,195.2,73.3,196.4z"/>
	<path id="XF37FFFM2Gra4OT19_3_" class="st0" d="M728,13.9c4.1,4,9.1,1.8,14.4,0.1c2.9-0.8,5.9,0.5,7.3,3.1c1.4,2.7,1.2,6-0.5,8.5
		c-3.3,5.1-8.1,8.7-12.6,12.6c-1,1-2.6,1-3.6,0c-4.8-3.9-9.7-7.6-12.9-13C716.6,19.3,719.8,13.9,728,13.9z"/>
	<path id="X78D111M2Color15_6_" class="st0" d="M258.6,199.4c-1.4,0-2.7,0-3.3-1.3c-0.7-1.4-0.1-2.6,0.9-3.6
		c3.5-3.4,7.7-5.8,11.9-8.2c16.7-9.8,32.7-20.5,45.2-35.6c2.9-3.6,5.5-7.5,8.3-11.2c0.7-0.9,1.7-2.5,3.2-1.3c1.2,1,0.1,2.1-0.6,3.1
		c-15.7,24.2-35.9,43.5-61.6,56.8C261.2,198.8,259.9,199.5,258.6,199.4z"/>
	<path id="XFFB6F5M2Color19_10_" class="st0" d="M69,239.8c-3.3-0.1-5.8-0.9-6.7-4c-1-3.7-0.4-7.2,2.7-9.4c2.3-1.6,2.8-2.7,1.9-5.5
		c-1.3-4.1,0.8-7.6,4.5-9.5c3.5-1.8,6.1,0.6,8.1,3.1c3.6,4.3,5.2,9.6,7.1,14.7c0.5,1.1,0.1,2.4-0.9,3C80.4,235.6,75,238.7,69,239.8z
		"/>
	<path id="XFFB6F5M2Color19_9_" class="st0" d="M254,299.1c3.6,0.3,7.1,0.5,7.8,4.7c0.7,3.9-0.4,7.4-4.4,9c-2.3,0.9-3,1.9-2.7,4.4
		c0.5,4.4-2.1,7.4-6.1,8.5c-4.3,1.2-6.3-2-7.9-5.2c-1.9-4.4-3.1-9.1-3.3-14c-0.2-1.6,0-2.9,1.8-3.5C244,301.1,248.9,299.8,254,299.1
		z"/>
	<path id="XF37FFFM2Gra4OT19_2_" class="st0" d="M103.6,179.6c-3.1,0.2-6.3-0.3-9.2-1.3c-2.9-1.1-5.2-2.9-4.9-6.1
		c0.1-3.3,2.7-6,6-6.4c3.3-0.3,4.3-1.6,5.2-4.5c1-3.4,4.1-4.7,7.6-4.2c3.3,0.5,4.8,2.9,4.9,6c0.2,3,0.1,6-0.2,8.9
		C112.1,179.6,112,179.6,103.6,179.6z"/>
	<path id="XFFB6F5M2Color19_8_" class="st0" d="M204.2,351.9c0-0.5,0.1-0.7,0.1-0.9c0.6-13.1,6.2-16.6,18.7-11.7
		c2.9,1.2,5.5,2.8,5,6.5c-0.4,3.6-3,5.5-6.3,6.1c-2,0.4-3.7,0.3-4.6,2.8c-1.3,3.6-4,5.8-8.1,5C204.7,358.9,204.6,355.1,204.2,351.9z
		"/>
	<path id="XFFB6F5M2Color19_7_" class="st0" d="M157.5,358.7c0.1,1.8-0.8,3.5-2.4,4.4c-2.5,1.3-5.3,1.7-7.5-0.2
		c-2.1-1.9-3.6-1.8-6-0.6c-2.8,1.5-6.3,0.7-8.1-1.9c-2-2.7-0.9-5.4,1-7.7c2.7-3.4,6.4-5.8,10-8.1c0.6-0.5,1.5-0.7,2.3-0.6
		C149.9,344.8,157.5,355,157.5,358.7z"/>
	<path id="X78D111M2Color15_5_" class="st0" d="M356.4,48.3c-0.2,1.4-1.4,1.7-2.5,2c-20.6,4.8-36.9,17.1-52.6,30.4
		c-2.1,1.8-4.5,3.4-6.9,5c-1,0.8-2.4,0.7-3.2-0.3c-0.8-0.9-0.8-2.3,0.1-3.2l0,0c1.3-1.7,2.8-3.3,4.3-4.8
		c16.6-14.8,36-24.2,57.4-29.8C355.8,46.9,356.3,47.1,356.4,48.3z"/>
	<path id="X78D111M2Color15_4_" class="st0" d="M436.7,128.6c-2.8-0.2-5.6-0.2-8.4-0.7c-1.3-0.2-3.1-0.8-3-2.8
		c0.1-1.6,1.7-1.8,3-2.1c3.8-0.7,7.6-1.1,11.4-1c19.2-0.4,38.1-2.6,55.5-11.9c1.1-0.6,2.7-1.7,3.5-0.2c0.8,1.6-1.2,2-2.3,2.6
		C477.9,122.2,457.6,127.7,436.7,128.6z"/>
	<path id="X78D111M2Color15_3_" class="st0" d="M274,209.3c-1.2,0-2.5,0.2-2.9-1.2c-0.4-1.3,0.5-2.2,1.4-2.9
		c4.7-3.8,10.3-6,15.7-8.5c16.2-7.3,33.3-10.1,50.9-10.7c1.2,0,3.1-0.6,3.1,1.4c0,1.4-1.6,1.5-2.7,1.5c-21.9-0.1-41,9.1-59.9,18.5
		c-1.3,0.7-2.7,1.2-4.1,1.7C275,209.2,274.5,209.3,274,209.3z"/>
	<path id="XF37FFFM2Gra4OT19_1_" class="st0" d="M545.5,0c4-0.1,6.8,3.7,5.2,8.1c-0.9,2.6-1.1,4.4,0.9,6.7s1.7,5.4-0.4,7.8
		c-2.1,2.4-4.8,2.1-7.3,0.8c-3.9-2-7-5-10.1-8.1c-0.5-0.5-0.8-1-0.9-1.7C532.5,10.2,541.9,0.1,545.5,0z"/>
	<path id="XFFB6F5M2Color19_6_" class="st0" d="M59.7,300.3c1.3-2.1,0-3.1-1.6-4.5c-2.6-2.2-4-5.1-2.1-8.4c1.9-3.2,4.9-3,7.9-2.1
		c0.2,0,0.3,0.1,0.5,0.2c12.2,3.7,14,8.9,6.4,19.3c-1.7,2.3-3.6,4.8-7,3.3C60.9,306.8,59.1,303.6,59.7,300.3z"/>
	<path id="XFFB6F5M2Color19_5_" class="st0" d="M105.9,213.5c-1.2,0-2.3,0-3.5,0c-3,0.1-5.4-1.1-6.1-4c-0.8-2.9,0.8-5.9,3.6-6.9
		c2.5-1,3.4-2.4,4.2-4.9c0.9-2.9,2.9-5.5,6.5-5.2c3.3,0.3,4.6,2.9,5.3,5.8c0.2,1.1,0.4,2.3,0.5,3.4
		C117.5,212.5,116.7,213.4,105.9,213.5z"/>
	<path id="XF37FFFM2Gra4OT19" class="st0" d="M441.6,261.7c-4.6-0.7-8.7-4.3-12.9-7.8c-0.2-0.2-0.4-0.6-0.4-0.9
		c-0.7-3.3,7.8-14.5,11.3-14.9c3.5-0.3,7.1,4.4,5.7,8c-1,2.6-0.9,4,1.3,5.8c2,1.7,2,4.4,1,6.9C446.6,261.1,444.9,261.7,441.6,261.7z
		"/>
	<path id="XFFB6F5M2Color19_4_" class="st0" d="M129.9,169.7c0.1-3.8,4.3-6.8,7.9-4.9c2.8,1.5,4.3,0.8,6.5-0.9
		c2.3-1.7,5-1.5,7.4,0.4c2.2,1.8,2,4,1.1,6.4c-1.6,4.4-5.1,7.4-8,10.7c-0.3,0.4-0.8,0.6-1.3,0.7
		C140.2,182.7,129.8,173.3,129.9,169.7z"/>
	<path id="XFFB6F5M2Color19_3_" class="st0" d="M214.3,216.4c-2.9,0.2-4.4-1-4.8-3.9c-0.4-3-1.5-5.8-1.3-8.9
		c0.1-2.9,1.1-5.4,4.1-6.2c2.8-0.7,5.1,0.9,6.2,3.2c0.8,2,2.6,3.3,4.7,3.6c2.7,0.5,4.9,2.4,4.8,5.5c-0.1,3-2.3,4.3-4.9,4.9
		C220.2,215.4,217.2,215.8,214.3,216.4z"/>
	<path id="XFFB6F5M2Color19_2_" class="st0" d="M109.6,299.9c-0.4,2.7,0,6.3-3.8,7.1c-3.7,0.9-6.1-1.2-7-4.7c-0.5-1.9-1.8-2-3.4-2.3
		c-2.8-0.3-5-2.5-5.1-5.3c-0.3-3.2,2.2-4.2,4.6-5.1c3.5-1.3,7.2-0.7,10.9-0.8c2.1,0,2.8,1.5,3,3.3
		C109.1,294.7,109.3,297.2,109.6,299.9z"/>
	<path id="XFFB6F5M2Color19_1_" class="st0" d="M199.2,182.9c-0.2,2.7-8.8,10.4-11.5,10.3c-3.3-0.1-10-11-8.5-13.9
		c1.2-2.4,4.1-3.4,6.4-2.2c0.2,0.1,0.3,0.2,0.5,0.3c2,1.3,4.5,1.7,6.8,0.9C196.1,177.3,199.4,180.1,199.2,182.9z"/>
	<path id="XFFB6F5M2Color19" class="st0" d="M80,258.1c3.6,0.8,7,2.2,10.2,4c1.3,0.6,1.8,2.1,1.2,3.4c-0.8,3.2-2.1,6.3-3.9,9.1
		c-1.2,1.7-2.7,3.1-5,2.4s-3.8-2.5-3.6-4.8c0.4-2.3-0.6-4.6-2.6-5.9c-1.7-1.2-2-3.4-1.2-5.5C75.9,258.6,77.9,258.2,80,258.1z"/>
	<path id="X78D111M2Color15_2_" class="st0" d="M729.2,65.7c0.4,3.6-1.9,6.5-3.3,9.4c-5.3,11.4-11.9,21.9-21.2,30.5
		c-1.8,1.7-4.5,5.5-6.9,2.9c-2.3-2.4,1.8-4.4,3.4-6c10.8-10.5,21-21.4,26.2-35.9c0.2-0.7,0.9-1.1,1.6-0.9
		C729.1,65.7,729.2,65.7,729.2,65.7z"/>
	<path id="X78D111M2Color15_1_" class="st0" d="M408.9,249.6c-5.2,2-9.2,0.1-13.2-1.1c-5.9-1.8-10.7-5.4-14.8-9.8
		c-1-1.1-2.8-2.7-1.2-4.3c1.7-1.8,2.9,0.3,4.1,1.3c4.9,4.5,9.8,9,16.2,11.4C402.6,248.1,405.7,247.2,408.9,249.6z"/>
	<path id="X78D111M2Color15" class="st0" d="M518.4,15.7c-5.4,3.2-11.3,5.4-15.9,9.8c-3.5,3.3-7,6.7-10.5,10c-0.8,0.7-1.7,2-2.9,0.8
		c-0.9-0.8-0.2-1.9,0.4-2.7C497.1,24.5,506.5,18.1,518.4,15.7z"/>
</g>
</svg>
