<?xml version="1.0" encoding="utf-8"?>
<!-- Generator: Adobe Illustrator 24.1.0, SVG Export Plug-In . SVG Version: 6.00 Build 0)  -->
<svg version="1.1" id="图层_1" xmlns="http://www.w3.org/2000/svg" xmlns:xlink="http://www.w3.org/1999/xlink" x="0px" y="0px"
	 viewBox="0 0 786.3 783.8" style="enable-background:new 0 0 786.3 783.8;" xml:space="preserve">
<style type="text/css">
	.st0{fill:#FFFFFF;stroke:#000000;stroke-miterlimit:10;}
</style>
<path id="XB6D21FM2Gra3OT28" class="st0" d="M449.2,440c-4.1,1-8.6-1.5-11.3,3c-0.2,0.3-1.3,0.2-1.8,0c-4-2.5-6.7-0.5-8.7,2.8
	c-1.3,2.2-2.1,1.2-3.4,0.2c-3.4-2.8-6.8-5-9.4,0.9c-0.3,0.7-1.1,1.1-1.9,0.8c-0.3-0.1-0.5-0.3-0.6-0.5c-4.1-4.6-10.2-5.9-15.1-9.2
	c-2.3-1.5-4.8-2.2-6.4-5c-1.3-2.3-3.8-2.5-6.1-0.8c-2.9,2.2-5.2,1.6-7.2-1.1c-0.6-0.8-1.3-1.9-2.1-2c-6.2-1.2-6.6-6.4-7.7-11
	c-0.6-2.6-1.9-4.7-4.6-4.2c-4.6,1-6.2-2.7-6.6-5.2c-0.7-4.1-3.2-6.5-5.9-8.8c-2.6-2.1-4.4-5-5.2-8.2c-0.4-1.7-1.1-3.6-2.5-4.1
	c-4.6-1.7-3.3-4.8-1.8-7.5c2.2-3.9,0.5-6.3-3-7.1c-3.8-0.9-4.2-3.2-3.2-5.8c1.5-3.8-0.5-8.7,4.1-11.7c2.1-1.4,0.6-4-1.3-5.4
	c-2.4-1.8-2.3-3.2,0.2-4.9c3-2,3.3-4.6,1.6-7.8c-2.8-5-1.5-8.1,4.3-9.6c4.2-1.1,5-2.9,2.7-6.2c-1.7-2.5-0.4-3.6,1.5-5.2
	c7.6-6.2,16-11.5,22.7-18.8c2.2-2.4,5.1-1.1,7.6-1.1c3.1-0.1,4.9-1.2,7.2-3.3c4.1-3.7,8.9-6.6,14.9-6.5c2.2,0,4.4,0.1,5.8-2.1
	c0.4-0.8,1.3-1.2,2.1-0.8c0.2,0.1,0.3,0.2,0.4,0.3c3.5,2.4,6.6,1,9.8-0.7c2.2-1.3,5-1.3,7.1,0.1c3.7,2.2,7.2,4.9,12,2.4
	c1.6-0.8,4.3,1.2,4.7,1.8c3,4.7,10,2.7,12.7,7.6c0.1,0.3,0.5,0.7,0.7,0.7c6.6,0,11.6,4.6,17.6,6.2c2.1,0.6,3.7,0.5,3.9,3.4
	c0.3,2.9,2,5.4,4.5,6.8c5.5,3.3,7.9,8.3,8.2,14.8c0.2,4.8,3.7,8.3,6.8,11.2s3.5,4.9,0.8,7.7c-3,3.1-4.1,5.6,1.2,7.7
	c2.6,1,2.5,3.7,1.4,6c-1,2.1-1.5,4.1,0.4,5.9c1,1,1.2,1.9,0.2,3c-1.2,1.1-1.3,2.8-0.4,4.1c1.1,1.8,0.1,2.8-0.9,4.3
	c-2.6,3.8-5,8-2.5,12.9c1.1,2.1,0.7,3.5-1.7,4.2c-4,1.1-4.4,3.4-2.7,6.8c1,2.1,2.9,4.7-2.3,4.3c-3.1-0.2-3.2,2.7-1.8,5.2
	c0.8,1.4,2.4,2.8,1.1,4.5s-3.1,1.1-4.9,0.4c-2.7-1-4.4,0.7-4.7,3c-0.7,4.8-3.4,7-7.8,8.6s-7,5.5-10.1,8.7
	C457.8,438.7,454.2,441.5,449.2,440z"/>
<path id="XF37FFFM2Gra1OT19_3_" class="st0" d="M16.9,464.6c-2.7-0.9-5.6-0.3-8.5,0.7c-1.6,0.4-3.4,0.3-4.9-0.4
	c-4-1.4-4.6-3.4-1.9-6.6c5.2-6.2,11.8-10.9,18.5-15.2c15.8-10.2,31.9-19.8,48.5-28.8c27.2-14.9,55-28.5,83.9-39.6
	c7.6-3,15.8-4,23.7-5.8c12.8-3,25.5-6.5,38.8-6.9c8-0.2,15.9-1.7,23.9-2.1c19.8-0.8,39.6,1.6,58.6,7.2c9.4,2.7,19.1,4.7,27.8,9.5
	c1.2,0.7,3.4,0.5,3.5,2.3c0,2.3-2.4,2-3.8,2.3c-17.2,3.4-33.8,8.8-50.6,13.8c-18.8,5.6-37.7,11.3-55.9,18.5c-15.1,6-29.9,13-45,18.8
	c-15.7,6-31.3,12.4-47.7,16.2c-12.6,3-25.5,4.7-38.2,7.2c-16.2,3.2-32.7,4.1-49,6.2C31.4,462.9,24.3,463.7,16.9,464.6z"/>
<path id="XF37FFFM2Gra2OT19_3_" class="st0" d="M568.4,332.9c-6.1,0.7-14.9,1.4-23.5,2.7c-12.8,1.9-25.5,2-38.3,1.5
	c-2.5-0.1-5.2-0.3-5.7-3c-0.6-3-1.3-5.9,1.5-9.1c16.3-18.2,38.1-27.5,59.3-38.1c18.1-9.1,37.3-14.9,56.3-21.4
	c28.2-9.8,57.3-13.3,86.7-15.5c15.9-1.2,32.3-2.1,47.9,3.5c1.6,0.4,3.3,0.7,4.9,0.7c7.8,1.1,11.5,7.8,8.3,15.1
	c-2.7,6.2-8,10.1-13,14.2c-14.3,11.5-31.4,17.3-48,24.3c-25.6,10.8-52.4,15.7-79.9,18.3c-11.6,1.1-23,3.6-34.6,5
	C584,331.9,577.6,333.5,568.4,332.9z"/>
<path id="XF37FFFM2Gra4OT19_5_" class="st0" d="M361.6,434c-0.3,1-0.7,2-1.1,3c-4.2,7.8-7.8,15.9-12.8,23.1
	c-6.1,8.5-11.5,17.5-16.2,26.8c-4.6,9.5-12.1,17-18.9,25c-6,7.1-11.8,14.4-17.7,21.6c-5.4,6.5-10.6,13.1-16.3,19.3
	c-9.4,10.3-18,21.3-27.2,31.7c-4.2,4.7-9.7,8.1-14.8,11.8c-8.4,6.2-16.2,13.3-25.5,18.4c-10.3,5.7-20.1,12.3-30.8,17.3
	c-9,4.1-17.5,9.3-26.3,13.9c-2.4,1.3-5.2,3.4-7.8,1.2c-2.3-2-1.6-5.1-1.3-8c2.3-18.7,11.6-34.4,21.1-50.1c9.4-15.5,22-28.4,33.6-42
	c10.6-12.3,23.1-23,36.2-32.7c15.8-11.6,31.6-23,49.5-31.5c25.6-12.1,48.1-28.8,68.2-48.8c0.6-0.8,1.3-1.5,2.1-2.1
	c1.5-1.1,1.6-4.7,4-3.5C360.9,428.9,361,432.1,361.6,434z"/>
<path id="XF37FFFM2Gra4OT19_4_" class="st0" d="M439,570.5c2.5,27.5-0.8,55.3-5,83.2c-2.3,15.3-5,30.4-8.7,45.3
	c-4.5,18.2-11.7,35.5-23.1,50.5c-5.4,7.1-12.7,12.6-19.8,18.2c-4.5,3.6-9.4,6.9-13.8,10.7c-3.7,3.2-8.1,4.5-12.7,5.3
	c-4.9,0.8-10.5-6-8.9-10.8c1.9-5.9,3.9-11.7,6.2-17.4c7.5-18,14.1-36.3,20.5-54.7c2.4-6.7,3.4-13.9,5.8-20.5
	c4.9-13.1,6.6-27,11-40.3c1.5-4.4,2.2-9,3.2-13.6c2.9-12.8,6.2-25.5,8.4-38.3c3.4-19.8,8.7-39.2,11.5-59.2
	c1.8-12.8,4.2-25.5,6.2-38.3c1.8-11.5,2.3-22.8-0.3-34.2c-0.2-1.1-1.1-2.4,0.4-3s2,1,2.5,1.9c6.1,11.4,10.5,23.3,11.7,36.3
	c0.7,8,2.7,15.7,3.2,23.7C438.6,533.4,439.2,551.5,439,570.5z"/>
<path id="XF37FFFM2Gra5OT19_5_" class="st0" d="M467.4,289.2c-4.2,0.2-6.5-2.6-6.2-8.3c0.4-6.9,2.6-13.4,4.3-20
	c7.2-27.5,19.8-52.5,34.6-76.6c17.3-28,35.6-55.1,58.8-78.6c9.1-9.3,19.3-17.3,29.7-25.1c3.2-2.4,7-3.1,10.7-3.8
	c4.2-0.8,6,2.2,7.1,5.5c1.4,4.5,1.2,9.4-0.7,13.7c-6.2,16.1-10.6,32.9-18.4,48.5c-10,20.3-17.8,41.7-29.3,61.2
	c-13.6,23.2-29.2,44.8-51.5,60.9c-5.6,4.1-11.2,8.3-16.9,12.4C483.1,284.1,475.5,287.6,467.4,289.2z"/>
<path id="XF37FFFM2Gra4OT19_3_" class="st0" d="M468.8,439.9c0.9-0.3,1.5-0.7,1.8-0.5c13,5.6,27.3,8.4,38.6,18
	c6.4,5.4,14.2,9.2,20.3,15.2c19.3,18.8,36.5,38.8,48,63.6c15.7,33.7,26.9,68.7,30.9,105.7c2,19,5.8,37.9,5.1,57.2
	c-0.2,4.2-0.3,8.4-2.5,12.1c-2.3,4.1-5.6,6.3-10.3,4.3c-10.8-4.2-19.3-12.9-23.2-23.8c-15.7-41.3-21.4-85.7-37.5-126.9
	c-12.7-32.4-27-64.1-44.9-94.1c-6.5-10.9-15.2-20.2-24.5-28.9C470,441.2,469.5,440.6,468.8,439.9z"/>
<path id="XF37FFFM2Gra5OT19_4_" class="st0" d="M449.2,201.3c-1.2,23.5-6.9,45.1-19.9,64.5c-2.8,4.1-6.9,7.3-11.5,9.1
	c-2.1,0.9-2.8,0.4-2.5-1.8c2.3-16.5,1.2-32.8-1.3-49.2c-3.1-19.6-6.8-39-13.8-57.5c-5.3-14.2-12.7-27.4-20.9-40.2
	c-8.5-13.3-17.5-26.2-26.4-39.2c-11.1-16.2-19.4-33.7-28-51.1c-1.4-3-2.7-6.1-3.8-9.2c-1.5-4.2,1.2-6.5,4.5-7.6
	c4.2-1.6,8.8-2.1,13.2-1.4c18.1,3.3,32.5,12.8,44.6,26.3c5.4,6,11.6,11.3,16.4,18c7.8,11,15.1,22.1,20.8,34.3
	c6.9,14.4,12.5,29.3,16.9,44.6c5,18.3,8.9,36.9,11.5,55.7C449.2,198.4,449.2,200.1,449.2,201.3z"/>
<path id="XF37FFFM2Gra5OT19_3_" class="st0" d="M700.5,639.1c-0.6,4.1-0.6,8.4,0.1,12.5c0.8,4.2-2.8,7.2-7.2,6.5
	c-3.8-0.6-6.6-2.9-9.4-5.4c-11.7-10.9-22-23.3-30.7-36.7c-10.9-16.5-23-32.3-34.1-48.6c-17.3-25.5-33.1-52-52.7-75.8
	c-6.8-8.3-12.2-18-20.8-24.8c-7.4-5.9-15.1-11.4-21.3-18.6c-1.8-2-4.6-3.4-7.1-4.6c-4.2-1.9-8.2-4.3-11.9-7.1
	c-3.8-3.1-8.7-4.1-13.6-4.4c-1.1-0.1-2.5,0.4-3.2-0.9s0.9-1.9,1.5-2.9c2.6-4.2,6-4.8,10.6-3.2c11.7,4.1,23.2,8.8,34.4,14.3
	c9.3,4.7,19.3,8.1,27.9,14.3c14.1,10.3,29,19.4,42.1,31.1c5.2,4.6,10.4,9,14.3,15c3.1,4.9,9,7.6,13,12.2c11.7,13.9,23,28,32.6,43.5
	c7.3,11.9,15,23.4,20.6,36.3c5.9,13.4,10.7,27.2,14.4,41.4C700.1,635.2,700.4,637.1,700.5,639.1z"/>
<path id="XF37FFFM2Gra1OT19_2_" class="st0" d="M186.9,478c-13.5,2.1-26.5-0.3-39.4-4.2c-2.6-0.6-5.1-1.7-7.3-3.1
	c-5.2-3.8-5.3-10,0-13.7c8.9-6.3,19.2-9.9,29.1-14.3c18.2-8.2,36.6-16.1,54.9-24c12.8-5.5,26.8-6.7,40.2-9.7
	c7.5-1.8,15.2-2.2,22.8-1.4c4.1,0.5,8.2-1,12.3-1.6c12.1-1.7,24.7-1,36.4-5.4c2.8-1.1,4.4-0.1,3.7,3c-4.6,19.8-13.6,37.3-31.5,47.6
	c-13.4,7.7-28.6,12.3-43.9,15.9c-23.5,5.5-47.2,10-71.4,11.2C190.9,478.3,188.9,478.2,186.9,478z"/>
<path id="XF37FFFM2Gra4OT19_2_" class="st0" d="M68.1,592.9c-0.5,0-1,0-1.5,0c-2.3-0.1-5,0.3-6.2-2.1s0.6-4.5,2-6.3
	c3.8-4.9,7.1-9.8,13-13.3c4.2-2.5,7.1-8,11.4-11.5c27-21.8,54.1-43.3,84.8-59.8c8.5-4.6,17.4-8.3,26-12.4c8.1-3.9,16.9-3.4,25.4-4.7
	c27.3-4.3,54.4-9.9,79.7-21.5c19.1-8.7,33.4-22.2,39.8-42.8c0.7-2.3,1.7-3.2,4.3-2.1c4.7,1.9,6,6.8,2.4,10.3
	c-0.8,0.8-1.6,1.7-2.4,2.5c-14.7,18.6-33.2,31.9-54.8,41.6c-13.6,6.1-26.8,13.2-38.8,22.3c-9,6.8-18.8,12.3-27.4,19.8
	c-12,10.4-24.4,20.4-34.4,32.5c-10.9,13.2-24.8,20-40.1,25.8c-17.8,6.7-36.2,11.2-54.1,17.3C87.5,591.9,77.7,590.9,68.1,592.9z"/>
<path id="XF37FFFM2Gra1OT19_1_" class="st0" d="M181,170.7c49.1,5.3,95.9,24.1,127.9,71.6c11.4,16.8,19.2,34.7,25.3,53.8
	c1.4,4.2,3.4,8.3,3.5,12.8c0.1,4.9,0.5,10-2.3,14.4c-1.1,1.7-2.3,2.3-3.7,0.1c-8.5-13.1-21.4-21.4-34.6-28.5
	c-14.8-8.1-26.9-18.9-38-31.1c-10.1-11.1-19.2-23.2-30.4-33c-10.9-9.8-22.6-18.5-35.1-26.2c-12.3-7.4-25.5-12.9-37.5-20.7
	c-4.9-3.2-5-4.8-0.4-8.6C160.3,171.5,165.1,170.5,181,170.7z"/>
<path id="XF37FFFM2Gra2OT19_2_" class="st0" d="M773.5,545.5c-0.3,1.6,0.9,4.1-1.3,4.8c-1.7,0.6-2.6-1.7-3.7-2.9
	c-14-15.8-30.1-29.2-47-41.8c-36.2-26.9-76-47.2-117.6-64c-21.8-8.8-43.6-17.5-65.2-26.5c-10-4.2-19.3-9.7-28.7-15.1
	c-1.3-0.7-2.5-1.6-3.5-2.7c-1.9-2.3-2.8-5.6-1.7-7.9c1.2-2.6,4.2-0.4,6.2,0.1c11.1,2.5,22.3,3.7,33.4,5.9
	c15.5,3.1,31.1,5.5,46.3,9.9c13.1,3.7,25.8,9,38.9,12.3c14.8,3.8,28.5,10.2,42.3,16.2c14.8,6.5,29.4,13.9,42.6,23.7
	c25.4,18.9,46.9,40.9,56.2,72.3C772.1,534.8,773.5,540,773.5,545.5z"/>
<path id="XF37FFFM2Gra2OT19_1_" class="st0" d="M572.8,358.7c6.6,0.6,12.6-1.3,18.4-1.1c12.9,0.5,26,0.1,38.8,2.8
	c3.2,0.8,6.6,1.1,9.9,1.1c10.8-0.4,20.9,3.9,31.5,4.8c12,1.1,23.1,5.4,34.1,9.2c25.8,8.9,51.4,19,69.3,41.4
	c2.7,3.3,7.1,6.8,3.9,11.7c-3,4.6-8.1,2.9-12.4,2.3c-33.1-4.1-64.5-14.9-96.2-24.1c-39.1-11.3-79-19.1-118.7-27.4
	c-11.9-2.5-23.9-4.5-35.3-8.8c-0.5-0.2-1-0.2-1.5-0.4c-1.6-0.7-4.7,0.8-4.8-1.2c-0.1-2.7,3.2-2.1,5.1-2.8
	C533.7,359.4,553.7,360.5,572.8,358.7z"/>
<path id="XF37FFFM2Gra2OT20_3_" class="st0" d="M323.2,338.3c-3.8-1.9-6.8-3.3-9.6-4.8c-14.9-8.2-31.3-13-46.9-19.4
	c-11.8-4.9-23.1-10.9-35.6-14.3c-12.9-3.5-24.7-10.2-37.3-14c-13.4-4.1-26.1-9.8-39.3-14.4c-7-2.5-13.6-6.4-20.6-8.8
	c-11-3.9-21-10-31.8-14.4c-9.8-4-19.9-7.6-29-12.9c-7.7-4.5-15.9-8.2-23.3-13.2c-2.3-1.6-4.4-3.7-4.2-6.4s3.3-2.9,5.5-3.4
	c12.2-2.6,24.5-2.4,36.8-0.6c27,3.8,52.5,12.6,78,22.1c28.9,10.8,55.3,25.5,79.9,43.4c25,18.2,49.9,36.7,73.8,56.5
	C320.9,334.5,322.4,335.3,323.2,338.3z"/>
<path id="XF37FFFM2Gra4OT19_1_" class="st0" d="M450,447.8c4.2,1.1,5.5,3.7,6.6,6.5c11.5,28.5,25.9,55.8,37.4,84.4
	c6,14.8,10.4,30.1,15.1,45.3c4.6,14.6,7.5,29.5,11.4,44.2c2.3,8.5,3.2,17.6,4.6,26.4c1.5,10.2,1.8,20.5,4.2,30.5
	c1.2,4.8,0.8,9.9,0.6,14.9c-0.6,9.8-1.6,19.6-3.2,29.2c-1.2,8.3-5.2,15.4-10.6,21.7c-4,4.8-7.2,4.2-9-1.9
	c-1.5-5.3-3.8-10.3-6.8-14.9c-1.6-2.6-2.4-5.5-2.4-8.6c-1.3-30.5-5.6-60.5-11.9-90.4c-5.2-24.9-11.6-49.5-15.5-74.7
	c-1.7-11.2-3.5-22.3-3.9-33.7c-0.8-22.4-5.5-44.2-12.3-65.5C453.1,457.1,451.6,452.8,450,447.8z"/>
<path id="XF37FFFM2Gra4OT19" class="st0" d="M387.6,448.6c1.9-0.4,2.6,1.3,3.6,2.2c2.7,2.4,5.2,4.7,9,1.4c1.8-1.6,3-0.5,2.8,1.9
	c-1.1,10.8-2.5,21.5-3.3,32.3c-1.4,18.8-7.7,36.4-11.9,54.5c-3.1,13.2-7.6,26.1-11.9,39c-4.1,12.3-7.3,25-12.8,36.8
	c-6.2,13.4-11.6,27.1-18.5,40.2c-6.7,12.8-14.3,25.1-21.8,37.5c-3.7,6.2-8.1,11.8-13.2,16.9c-2.4,2.3-4.4,5-6.5,7.5
	c-6.7,8-13.5,16-22.4,21.7c-3.3,2.1-5,1.4-4.3-2.8c2.4-15.4,4.6-30.9,10-45.7c2-5.5,2.8-11.3,4.4-16.9c3.7-12.7,9-24.7,12.6-37.4
	c2.6-9,7.2-17.1,11.5-25.5c0.8-1.5,2-2.7,3.4-3.5c19.2-11.8,32.9-28.7,44.2-47.8c7.2-12.2,15.4-23.9,19.7-37.5
	c7.3-23.2,9.7-46.9,5.2-71C387.4,451.2,386.7,449.9,387.6,448.6z"/>
<path id="XF37FFFM2Gra5OT19_2_" class="st0" d="M496.5,320.1c11-20.5,26.2-37.3,41.5-54.2c16.7-18.4,35.3-34.8,53.9-51.1
	c17-14.9,35.4-28,54.5-40.1c12.9-8.2,26.3-15.7,42-17.4c3.2-0.3,7.2-1.2,9,0.8s-0.3,5.6-1.5,8.4c-5.3,12.8-13.8,23.4-22.6,33.8
	c-11.1,13.2-25.8,22.4-37.8,34.5c-12.7,12.9-28.6,21.1-43.3,30.9c-8.3,5.5-18.5,8.3-27.6,12.6c-17.8,8.5-36.5,15.3-51.9,28.4
	C507.4,311.1,501.9,315.6,496.5,320.1z"/>
<path id="XF37FFFM2Gra3OT19_7_" class="st0" d="M449.3,264.9c-0.6-6.1,0.3-12.3-0.8-18.4c-1-5.7,2.6-10.5,4-15.8
	c4.7-18.8,4.8-38.5,0.3-57.3c-3.2-14.1-2.7-28-1.4-42.2c2.4-28,14-53.2,23.1-79.2c3.8-10.9,8.2-21.4,15.3-30.7
	c1-1.3,1.8-3.2,3.6-3.2c2.3,0.1,2.3,2.6,2.9,4.2c1.5,3.7,2.2,7.7,2,11.7c-0.7,12.4,1.2,24.6,1.7,36.9c1.1,23.9-0.8,47.9-5.5,71.4
	c-2.5,11.9-4,23.9-5.8,36c-1.7,12.2-5.8,24-12.1,34.6c-11.5,19.5-16.4,41.2-21.3,63c-0.3,1.3-0.4,2.6-0.8,3.9s-1.3,2.4-2.9,2.1
	s-2.1-1.5-2.1-3C449.3,274.2,449.3,269.6,449.3,264.9z"/>
<path id="XF37FFFM2Gra3OT19_6_" class="st0" d="M344.8,304.4c-2.6-7.9-5.6-15.6-7.9-23.6c-5.1-18.1-14.3-33.9-26.3-48.1
	c-10.9-12.8-21.1-26.2-35.1-36c-12.8-8.9-26.3-16.4-41.2-21.1c-8.1-2.6-14.3-7.7-20.7-12.6c-13.3-10.2-25.9-21.6-39.9-30.6
	c-9.8-6.4-18.6-13.8-27.7-20.9c-2.1-1.6-3.5-3.9-5.8-5.5c-3.7-2.7-5.8-6.6-4.7-11.2c1.2-5.1,5.7-6.4,10.2-6.4
	c9.7,0.1,19.4,1.8,28.1,5.9c22,10.4,42.6,23.6,61.2,39.3c6.8,5.8,13.9,11.4,20.7,17.2c10.3,8.9,19.7,18.8,29.1,28.6
	c8.2,8.6,16.3,17.1,23.6,26.5c14.5,18.7,27.2,38.6,36.6,60.5c2,4.7,4.2,9.4,6.1,14.2c2.3,5.6,2,11.3,1.2,17.2
	c-0.6,4.3-5.8,3.3-6.4,7.1L344.8,304.4z"/>
<path id="XF37FFFM2Gra1OT19" class="st0" d="M328.2,353.5c-1,1.1-1.4,3.7-4,2.2c-11-6.1-23.3-7.6-35.3-10
	c-22.6-4.6-45.6-7.6-68.6-9.1c-25.9-1.8-51.8-2.4-77.8-0.7c-29.8,1.9-59.3,5.4-89,8.3c-12.1,1.1-24.2,1.4-36.3,0.8
	c-2.5-0.1-5.5-0.1-6.5-2.7c-1.1-3,1.6-4.9,3.7-6.5c3.4-2.5,7.1-4.4,11.1-5.6c22.4-7.4,45.1-13.5,68.6-16.7
	c27.2-3.7,54.4-3.8,81.7-2.4c37.3,2,73.9,8.4,109.2,21.6c14.4,5.4,27.5,13.5,41.8,19C327.4,352.1,328.3,352.2,328.2,353.5z"/>
<path id="XF37FFFM2Gra5OT19_1_" class="st0" d="M507.9,412.2c8.3-0.4,15.1,2.7,22.3,7c7.8,4.5,16,8.1,24.5,10.9
	c13.2,4.3,26.4,8.9,38.4,16c0.9,0.5,1.8,0.9,2.7,1.2c17.4,5.6,30.4,17.2,42.4,30.3c12.7,13.9,24.9,28.1,38.2,41.5
	c10,10.1,20.2,20.9,26.2,33.8c3.8,8.3,8.9,15.7,12.8,23.8c0.8,1.6,1.4,3.4,1.5,5.3c0.6,13.1,6.8,24.7,9.6,37.1
	c0.3,1.5,2,3.3,0.2,4.5c-1.5,1-3.2-0.5-4.6-1.3c-13-8-23.9-18.2-30-32.5c-6.6-15.7-15-30.5-24.9-44.3c-10.2-14.1-20.7-28.1-32.6-41
	c-17.5-18.9-37.1-35.3-57.9-50.5c-11.9-8.7-25.1-14.3-38.5-19.7c-13-5.3-25.8-10.7-38.8-16c-1.5-0.6-2.7-1.2-2.5-3.1
	c0.2-2.3,1.6-2.6,3.5-2.6C503,412.5,505.5,412.3,507.9,412.2z"/>
<path id="XF37FFFM2Gra8OT19_7_" class="st0" d="M383.2,481.2c-0.3,11-4,21.5-5.7,32.4c-2.3,14.7-10.1,26.8-17.8,39.1
	c-7.9,12.7-16,25.3-26.8,35.8c-6.8,6.7-14.7,11.9-22.8,16.9c-3.9,2.3-6.4,1-6.7-3.6c-0.2-5.9,0.9-11.7,3.1-17.1
	c10.1-26.3,17.9-53.3,26.1-80.1c4.7-15.9,12.7-30.5,23.5-43.1c4.8-5.5,9-11.6,13.3-17.5c1.3-1.8,2.4-2.7,4.8-2.3s3.1,1.6,4.1,3.6
	c2,4.2,0.5,8.6,1.6,12.8C381.8,465.6,383,473.4,383.2,481.2z"/>
<path id="XF37FFFM2Gra3OT19_5_" class="st0" d="M384.3,203.8c-4.3-10.1-13.1-16.8-17.2-26.7c-0.9-2.3-2.5-4.3-4.6-5.8
	c-8.4-5.8-14.2-13.3-18.8-22.5c-5.3-10.6-10.8-21.3-20-29.5c-3.1-2.9-5.3-6.7-6.2-10.9c-1.3-5.4-4.2-10.5-7.1-15.3
	c-5.1-8.5-7.7-18.1-11.3-27.2c-4.3-10.8-8.2-21.7-11.7-32.8c-1.8-5.6-2.9-11.3-3.4-17.1c-0.5-6.1,2.3-7.9,8-5.5
	c4.2,1.8,7.6,4.8,10.5,8.2c2.3,2.8,5,5.4,7.9,7.6c3.1,2.2,4.8,5.5,6.1,8.9c8,20.4,19.1,39.1,30.9,57.5
	c10.7,16.6,17.2,34.9,23.2,53.8c5.6,17.5,7.3,35.9,14.3,52.9C385.8,200.9,385.5,202.7,384.3,203.8z"/>
<path id="XF37FFFM2Gra8OT19_6_" class="st0" d="M443.8,453.9c1.8,0.6,2,2.1,2.2,3.3c2,9.1,5.3,17.9,7.7,26.9
	c3.7,13.8,5.2,28,6.5,42.3c1.1,12.9,2.5,25.8,4.4,38.6c4.2,29.4,12.9,57.7,18,86.8c4.2,24.1,8,48.3,8.5,72.8
	c0,6.4,1.9,12.6,5.6,17.8c3.2,4.5,0.8,9.8,0,14.5c-0.9,5.7-3.3,11.2-5.1,16.7c-1.1,3.6-2.5,3.8-4.9,0.7c-5.8-7.8-8.8-16.7-10.4-26.2
	c-0.2-1.3-0.3-2.7-0.6-4c-8-30-10.4-60.9-14.7-91.5c-2.6-18.7-4.1-37.4-5.2-56.2c-1.4-24.6-3.3-49.2-6-73.7c-2.2-19-4.8-38-6.5-57
	C442.9,461.8,443.1,457.8,443.8,453.9z"/>
<path id="XF37FFFM2Gra8OT19_5_" class="st0" d="M527.8,750.6c-1.4-4.7,3.5-9.2,4.6-14.6c3-14.2,5.3-28.3,4.2-43
	c-2.4-31.8-8.3-63-15.8-93.9c-4.3-17.8-9.1-35.7-16.8-52.6c-2.4-5.1-2.2-11.1-4.3-16.7c-6.1-16.1-14.3-31.1-21.1-46.9
	c-3.1-7.3-6.6-14.6-9-22.2c-0.5-1.6-2-3.7-0.1-5c1.6-1.2,3,0.8,4.2,1.8c6.2,4.9,11.6,10.4,15.3,17.5c1.6,3.3,3.7,6.4,6.1,9.1
	c1.5,1.6,2.4,3.6,2.6,5.8c0.2,2,0.9,3.9,2,5.6c12.1,19.2,20.4,40.2,29.2,61c3.5,8.3,7.7,16.3,8.8,25.3c2.1,17.3,3.6,34.7,5.4,52.1
	c0.2,2.5,0.4,5,0.8,7.5c2.9,17.4,3.2,35,3.1,52.6c-0.1,14.7-1.9,29.2-4.2,43.6c-1.3,7.7-4.1,14.7-7.6,21.5c-0.8,1.7-1.9,3.5-4,3.2
	c-2.1-0.4-2.4-2.6-2.7-4.3C528.1,756.1,528,754.1,527.8,750.6z"/>
<path id="XF37FFFM2Gra3OT19_4_" class="st0" d="M361.2,293.1c1.5-9.5,2.2-19.1,2.2-28.7c-0.1-19.4-5.6-37.1-17.3-52.6
	c-3.8-5-6.3-10.9-10.9-15.5c-2.6-2.5-5.4-4.9-8.4-7c-12.3-8.9-21.2-21-30.6-32.6c-4.5-5.6-5.5-12.8-7.6-19.4c-0.7-2,0.2-2.9,2.2-2.4
	c6.9,1.7,13.7,3.4,19.6,7.9c3.5,2.5,7.2,4.6,11.2,6.3c14.1,6.4,25.1,17.2,35.2,28c9.8,10.5,19.3,22.3,24.7,36
	c5.5,14,5.9,28.3-2.4,42.1c-4.2,7-6,15.1-8.9,22.7C368.2,283.5,365.8,288.9,361.2,293.1z"/>
<path id="XF37FFFM2Gra5OT19" class="st0" d="M593.5,343c13.2-3,26.6-0.2,39.9-0.7c12.5-0.5,24.9-0.2,37.4,0.9
	c12.7,1.2,25.6,1.2,38.4,2.3c21.5,1.9,42.2,7.6,62.8,13.6c2.7,0.8,5.3,1.9,7.9,3.1c7.8,3.7,8.5,8.7,2.2,14.6
	c-6.7,6.2-15.4,6.7-23.6,8.6s-14.7-1.3-21.9-5.3c-14.2-7.7-29.6-12.4-45.3-16.4c-11.8-3.1-23.7-5.2-35.6-7.6
	c-0.8-0.2-1.6-0.3-2.5-0.4c-10.9,0.2-21.4-2.2-32.1-3.8c-10.4-1.5-20.9-0.1-31.3-0.4c-6.9-0.2-13.5,1.2-20.3,1.2
	c-19,0-37.8,1.7-56.2,6.8c-1.6,0.5-4.7,2-5.3-0.1c-0.7-2.7,2.8-2.8,4.6-3.3c16-4.5,32.1-8.7,48.7-10.7
	C572,344.2,582.8,344.2,593.5,343z"/>
<path id="XF37FFFM2Gra8OT19_4_" class="st0" d="M151.3,367.6c-15.6,8.3-31.9,12.5-46.9,20.4c-14.7,7.7-31.1,9-47.4,6.3
	c-10-1.5-20-3.9-29.6-7c-3.8-1.3-7.4-3.1-10.7-5.3c-4.6-3-8-6.2-5.7-12.6c1.4-3.9-1.7-6.9-4.1-9.6c-2.8-3.1-2-4.8,1.6-6.2
	c3-1.2,6.2-2,9.3-1.3c13.9,3.1,28.1,2.5,42.2,3.5c23.4,1.7,46.8,3.9,69.9,7.8C136.8,364.6,143.9,365.1,151.3,367.6z"/>
<path id="XF37FFFM2Gra8OT19_3_" class="st0" d="M412.7,471.9c1.3,9.9-0.6,18.6-0.9,27.3c-0.3,10.5-3.7,20.5-5.8,30.7
	c-1.5,7.3-2.6,14.7-3.8,22c-1.5,9-2.5,18.2-4.7,26.9c-3.4,14.1-6.4,28.3-9.9,42.3c-3.8,15.1-7.8,30.2-11.7,45.3
	c-4.2,16.3-9.6,32.3-18,46.9c-5.5,9.5-13.1,17.5-20.8,25.2c-1.5,1.5-3.5,3.1-5.8,2.1c-2.6-1.1-1.5-3.8-1.4-5.8
	c0.2-1.8,0.6-3.6,1.1-5.3c7-25.7,14.5-51.1,26.8-74.8c9.2-17.8,16.1-36.6,22.3-55.5c6.7-20.7,12.9-41.6,16.9-63.1
	c3.5-19,7-38,12.1-56.6C409.8,477.1,409.9,474.5,412.7,471.9z"/>
<path id="XF37FFFM2Gra3OT19_3_" class="st0" d="M659.2,122.5c4.2,0.1,6,2.2,5.2,6.2c-0.6,3.1-2.6,5.4-4.6,7.6
	c-7.3,8-12.9,17.3-19.6,25.7c-6.1,7.6-11.9,15.5-19.9,21.5c-17.8,13.4-35.5,27.2-51.4,42.8c-14.6,14.3-31.2,26.6-43,43.7
	c-3.4,5-8.1,9.2-12.7,13.4c-7.3,6.6-11.1,15.7-17.6,22.8c-0.7,0.8-1,2.6-2.4,2s-1.2-2.2-0.8-3.5c1.8-6.8,5.8-12.4,10.1-17.7
	c8.5-10.5,16.7-21,26.7-30.2c14.6-13.4,25.2-30.1,35.2-47.1c12-20.3,27.8-37.4,44.3-53.8c10-10,21.6-18.6,33.4-26.7
	C647,125.5,652.9,123.2,659.2,122.5z"/>
<path id="XF37FFFM2Gra3OT19_2_" class="st0" d="M332.5,144.9c-10.9-2.7-18.9-10-28.5-14.1c-6.8-2.9-13.7-4.9-21.1-3.3
	c-1.4,0.4-3-0.1-3.8-1.4c-5.7-6.3-12.2-12-16.9-19c-12-17.6-25.9-33.6-39.1-50.2c-3.1-3.9-5.6-8.3-7.4-13c-2-5.3-0.4-7.6,5.2-7.5
	c3.8,0.1,7.6,1.1,10.9,3c11.3,6.2,21.1,14.2,31,22.5c14.4,12.1,26.7,26,38.9,40.1c9.2,10.6,17.2,22.3,25.8,33.5
	C329.7,138.4,331.3,141.6,332.5,144.9z"/>
<path id="XF37FFFM2Gra8OT19_2_" class="st0" d="M182.4,486.8c-9.5,5.1-18.9,10.1-28.4,15.1c-3.6,1.9-6.7,4.3-10.1,6.4
	c-13.1,8.3-25,18.1-39.8,24c-16,6.3-32.5,10.8-49.1,15c-1.8,0.5-3.6,0.7-5.4,0.5c-4.5-0.4-6.4-3.5-4.6-7.6c3-6.9,7.9-12.9,14.3-17
	c21-14.1,42.2-27.9,66.3-36.3c0.5-0.1,1-0.2,1.4-0.4c9.6-5.5,19.5-6.3,30.1-2.6C165.2,486.7,173.9,485.6,182.4,486.8z"/>
<path id="XF37FFFM2Gra8OT19_1_" class="st0" d="M297.6,584.9c0.9,3.3-0.1,5.5-0.8,7.6c-1.7,4.6-1.2,9.1-0.4,13.8
	c0.7,3.6,2.6,6.1,6.2,7c2.2,0.5,3.4,1.4,2.2,3.7c-5.9,12-9.4,24.9-14.3,37.2c-2.4,5.9-6.9,11.1-11.6,16c-7.7,8-15.1,16.3-23.5,23.7
	c-5.2,4.6-10.5,9.2-15.8,13.7c-1.2,0.9-2.5,1.7-3.9,2.2c-1.6,0.7-3.3,0.9-4.8-0.2c-1.7-1.2-0.8-3-0.6-4.6c3-17.2,11.2-32,19.6-47
	c11.1-19.9,23.3-39.2,36.2-57.9C289.7,595.1,293.5,590.4,297.6,584.9z"/>
<path id="XF37FFFM2Gra1OT20_1_" class="st0" d="M497.7,174.5c-1.6-1.5-0.7-2.9-0.4-4c4-18.5,6.8-37.3,8.5-56.2
	c1.6-16.6,1.8-33.3,0.5-49.9c-1.1-13,4.2-23.7,11.2-33.8c2.7-3.9,5.6-3.6,8.4,0.2c3.7,4.8,5.5,10.8,5.3,16.8
	c-0.8,22.6-1.6,45.1-6.5,67.4c-2.4,10.9-4.8,21.8-9.6,31.8C510.3,156.6,503.8,165.3,497.7,174.5z"/>
<path id="XF37FFFM2Gra8OT19" class="st0" d="M154.3,301.5c-1.9,0.9-2.5,1.5-3,1.4c-8.8-1.6-17.4,1.9-26.1,0.9
	c-8.3-1-16.2,1.6-24.3,2c-7.8,0.4-15.5,1.9-23.2,3.1c-4.8,0.9-9.7,0.3-14.1-1.6c-6.2-2.6-12.8-3.6-19.3-4.9
	c-7-1.6-13.6-4.4-19.5-8.5c-3.9-2.6-3.8-5.1,0.4-7.5c6-3.3,12.8-5,19.6-5.1c17.8-0.6,35.6,1.1,52.9,5.2c16.5,3.8,33,7.7,49.2,12.5
	C148.9,299.5,150.9,300.3,154.3,301.5z"/>
<path id="XF37FFFM2Gra2OT19" class="st0" d="M618.3,334.8c6.3-1,12-2.1,17.7-2.8c16.7-1.9,33.2-5.1,49.4-9.5
	c8.3-2.4,16.4-5.3,24.2-8.9c10.8-4.8,21.6-9.6,32.5-13.8c8.9-3.4,19.4-1,28.4,3.8c2.9,1.5,2.8,3.6,0.1,5.3c-4.8,3-9,6.9-13.3,10.5
	c-2.1,1.6-4.6,2.7-7.3,3.1c-17.6,3.5-35.1,7.6-52.9,10c-10.9,1.4-21.9,2.4-32.8,2.8c-12.8,0.5-25.5,2.9-38.3,1.7
	C623.6,336.8,621.1,337.3,618.3,334.8z"/>
<path id="XF37FFFM2Gra1OT20" class="st0" d="M433.2,108.1c-2.8-8-6.3-15.8-10.3-23.3c-7.5-13.9-15-27.8-26.9-38.5
	c-1.7-1.5-2.8-3.2-2.5-5.7c0.1-0.8,0.1-1.7-0.2-2.5c-4.2-10.1-1.2-20.7-2.1-31.1c-0.2-2.6-0.2-5.7,2.9-6.8c2.9-1,5.1,1,7,2.9
	c2.7,2.5,4.6,5.7,5.4,9.3c1.1,5.4,4.9,9.6,7.2,14.6c7.6,16.2,11.3,33.2,14.8,50.5c1.7,8.5,3.7,16.9,5.5,25.3
	C434.2,104.4,435.2,105.9,433.2,108.1z"/>
<path id="XF37FFFM2Gra2OT20_2_" class="st0" d="M277.6,353.9c-5,1.4-9.5-0.3-14-0.5c-12.6-0.5-25.2-1.5-37.8,0.6
	c-5.7,1-11.3-0.3-16.8-1.7c-11.1-2.9-22.1-6-33.6-7.3c-1.6,0-3.2-0.7-4.3-1.8c0.7-1.3,1.8-0.9,2.7-0.8c24.6,0,49.2,1.4,73.6,4.2
	c1,0.1,2,0.1,3,0.1C263.3,346.8,264,346.9,277.6,353.9z"/>
<path id="XF37FFFM2Gra2OT20_1_" class="st0" d="M73.3,402.6c-11.4,10.6-23.9,9-36.5,5.1c-7.4-2.4-14.6-5.5-21.5-9.2
	c-2.4-1.3-5.4-3.1-3.7-6.5s4.6-2.1,7.3-1c16.7,6.9,34,11.1,52.2,11.2C71.8,402.3,72.5,402.4,73.3,402.6z"/>
<path id="XF37FFFM2Gra2OT20" class="st0" d="M286.7,398c11.3-2.8,21.7-5.4,32.1-8c1.9-0.5,3.9-0.8,5.8-1.3c2.5-0.6,3.9-0.4,4.6,2.7
	s-0.9,3.4-2.9,4c-7.1,2.1-14.4,2.1-21.6,3c-4.4,0.6-9-0.1-13.3,1.3C290,400.2,288.7,399.9,286.7,398z"/>
<path id="XF37FFFM2Gra3OT19_1_" class="st0" d="M393,243.2c1.4,8,2.8,16.1,4.2,24.1c0.4,2.4,0.8,4.9,1.2,7.4c0.5,2.8-0.5,4.5-3.4,5
	c-3.4,0.5-2.7-2.1-2.9-3.9c-0.7-6.9-1.1-13.9-3.3-20.6c-1.4-4.3,3.3-7.5,2.7-11.8L393,243.2z"/>
<path id="XF37FFFM2Gra3OT19" class="st0" d="M384.5,282.8c-1-5.4-7.2-10.3-1.2-16.9C385,271.4,385.4,277.1,384.5,282.8z"/>
</svg>
