<?xml version="1.0" encoding="utf-8"?>
<!-- Generator: Adobe Illustrator 21.0.0, SVG Export Plug-In . SVG Version: 6.00 Build 0)  -->
<svg version="1.1" id="图层_1" xmlns="http://www.w3.org/2000/svg" xmlns:xlink="http://www.w3.org/1999/xlink" x="0px" y="0px"
	 viewBox="0 0 578.1 850" style="enable-background:new 0 0 578.1 850;" xml:space="preserve">
<style type="text/css">
	.st0{fill:#FFFFFF;stroke:#000000;stroke-miterlimit:10;}
</style>
<title>Anime10_13_292</title>
<g>
	<path id="X66FF00M2Gra2Co13_6_" class="st0" d="M219.8,0c-1,11.1-1.9,22.2-2.9,33.4c-1.5,16.9,0.2,33.6,2.3,50.3
		c0.6,4.5,0.1,8.8,0.5,14.2c-9.5-8-21.1-10.1-29.7-17.6c-2.2-1.9-2.7-3.2-1.5-5.8c3.4-7.5,3.3-7.5-2.2-13.2
		c-2.3-2.4-4.5-4.9-6.8-7.4c-0.7-0.7-1.3-1.8-2.4-1.5c-1.1,0.3-1.1,1.5-1.1,2.5c-0.5,21.3-0.9,42.7-1.4,64c-0.2,1.7,0.8,3.3,2.5,3.8
		c3.7,1.4,7.4,3,10.9,4.8c3.1,1.7,3.6,0.9,3.4-2.3c-0.3-6.2-0.1-12.3-0.4-18.5s-2.3-11.6-5.5-18.1c10.5,3.8,19.9,6.7,26.2,15.2
		c1.4,2,3.1,3.9,4.9,5.6c1.6,1.2,2.4,3.2,2.1,5.2c-2.8,43.6-0.3,87.3-0.6,130.9c-0.1,14.1,0.9,28.3,1.7,42.4
		c0.4,8.2,3.7,15.9,4.1,24.1c0.2,3.8-0.5,5.8-4.5,6.9s-7.6,3.3-11.5,4.7s-9.1,2.4-13.2-1.1s-5.8-7.9-4.1-13.4
		c1.1-3.3,1.3-6.5-2.5-8.7c-1.8-1-0.8-3-0.6-4.6c2.1-17,4-34.1,6.4-51.1s0-34.3-0.5-51.4s-1.2-31.3-1.5-47c-0.1-3.9-1.2-6.6-4.5-8.7
		s-6.4-4.2-9.5-6.5s-3.7-0.9-3.7,2.1c0,5.3-0.2,10.7-0.3,16c0.1,3.3-0.3,6.7-1.2,9.9c-1,3.4-1.4,6.9,0.8,10.1c0.4,0.7,1,1.5,0.3,2.3
		s-1.6,0.4-2.3,0.1c-11.9-4.1-24.8-4.4-36.6-9.3c-1.8-0.7-2.6-1.5-1.9-3.2c3.3-7.4,0.2-14-2.6-20.6s-3.3-8.6,3-14.1
		c4.8-4.2,7.5-9,7.8-15.5c0.4-9.5,1.3-18.9,1.9-28.4c0.1-1,0.7-2.9-1.1-2.6c-5.6,1.1-6.1-3.5-6.8-6.6c-1.7-7.3-3.1-14.7-4-22.1
		c-0.4-3.2-1.6-5-4.5-6.4c-12-5.5-22.9-12.9-33.9-20c-1.2-0.8-2.6-1.5-2.8-3.9c11.6,6,24.6,7.2,35.9,13.4c1,0.5,1.8,1.8,3,1
		s0.5-2.1,0.3-3.2c-0.9-6.2-2.3-12.4-4-18.5c-0.5-1.5-1.4-3.1,0.1-5.6c4,10,8.7,19,11.1,28.9s6,19.6,5.9,30.1h1.7l4.8-65h29
		c-1.1,4.4-0.4,8.9-0.7,13.3c-0.1,1.8,1,2.7,2.4,3.4c4.2,2,8.3,4,11.8,7.2c1.8,1.7,3,0.7,3.1-1.6c0.5-7.5,0.9-14.9,1.3-22.3L219.8,0
		z M176.8,33.6h-0.3c0,2.3,0.4,4.7-0.1,6.9c-1,5,0.9,7.8,5.7,9.2c3.2,0.9,6.6,5.6,8.7,4.2s1.1-6.7,1.6-10.3s1.4-5.2-0.8-7.6
		c-4.3-4.4-8.2-9.1-11.7-14.1c-0.5-0.7-1.1-1.4-2-1.2c-0.9,0.2-1.1,1.5-1.1,2.5C176.8,26.7,176.8,30.1,176.8,33.6z"/>
	<path id="X009E41M2Gra1OT27_2_" class="st0" d="M331.8,850c1.8-9.7,1.9-19.5,2.7-29.3c2-23.9,3.5-47.8,5.2-71.7
		c0.5-6.3,0.1-12.3-4-17.5c-1.6-2.1-1.1-3.1,1.4-3.8c2.7-0.8,5.3-1.9,7.8-3.3c6.4-3.7,12.3-2.9,18.2,1.1s11.3,6.9,7.5,15.1
		c1.5,19.9,3,39.8,4.5,59.7c1.3,16.6,2.5,33.2,3.8,49.7H331.8z"/>
	<path id="X95C61BM2Gra1OT26" class="st0" d="M337.8,0c0.3,12.8,0.7,25.6,0.8,38.4c0,3.2,0.6,5.7,3.5,7.7s6.8,6.8,9.2,11
		c0.6,1.1,1.1,3.3,3,2.7s0.6-2.3,0.7-3.6c0.9-8,0.4-16-1.4-23.8c3,0.2,3.1,2.2,3.6,3.6c5.3,14.9,8,30.7,7.9,46.5
		c0,2.4,0.5,5.6-2.7,6.3s-4.6-2.3-5-5s-4.6-5.5-6.3-8.7c-3.4-6.3-6.4-12.8-8.9-19.5c-0.6-1.5-0.8-3.2-3.5-4.2c0,4.1,0.1,7.8,0,11.5
		c-0.3,11.3-1.3,22.6-1,34c0.1,5.8,1.1,11.2,4.1,16.3s3.2,11.8-0.1,17.6c-1.9,3.3-2.6,6.5-0.2,9.8c1.3,1.7,0.9,2.7-1.2,3
		c-5.3,0.7-10.5,1.9-15.5,3.5c-2.3,0.8-4.8,0.2-6.4-1.6c-1.3-1.3-2.8-3-4.4-3.2c-7-1.1-5.1-5-3.3-9.1c1.5-3.5,2.3-7.4,2.1-11.2
		c-1-40.7-1.3-81.3-1-122L337.8,0L337.8,0z"/>
	<path id="X66FF00M2Gra2Co13_5_" class="st0" d="M145.8,850c-2.6-35.2-5.2-70.4-7.7-105.6c-0.2-2.9,0.5-4.3,3.7-4.3
		c5.4,0,10.5-1.7,15.7-2.8c5.7-1.2,11.7-0.8,17.2,1.3c1.7,0.4,2.7,1.9,2.5,3.6c-0.4,21.9,3.8,43.4,6.2,65
		c1.6,14.2,3.6,28.4,5.3,42.6L145.8,850z"/>
	<path id="X66FF00M2Gra2Co13_4_" class="st0" d="M202.8,850c-2.8-19.2-5.5-38.5-8.4-57.7c-0.4-2.7,0.7-2.5,2.7-2.6
		c12-0.5,23,2.7,33.7,7.6c1.8,0.8,2.9,1.8,2.9,4.1c-0.4,16.4,3.1,32.4,5.2,48.6L202.8,850z"/>
	<path id="X66FF00M2Gra2Co13_3_" class="st0" d="M160.4,299.2c2.6-10.6,5.6-21.1,4.9-32.3c2.4,2.1,2.8,4.8,3,7.5
		c1.4,17.7,0,35.3-2.4,52.8c-0.6,4.7-0.2,9.8-5.7,12.5c-1.2,0.6-0.4,2.5-0.4,3.8c0.1,13.2,0.1,26.3,0.4,39.5
		c0.4,14.7,0.6,29.3-0.5,43.9c-0.4,6.4-0.8,13,5.5,19.2c-11.3-1.6-18.8,5.9-28.2,6.4c-3.6,0.2-7,0.2-10.3-1.2s-6.1-4.5-5.1-9.1
		c1.4-5.2,1.1-10.7-0.9-15.7c-1.5-3.3-1.1-7.1,1.2-9.9c5.2-6.9,6.1-14.5,6.1-23c-0.2-29.5,0.5-59,0.5-88.5c0.1-19.5-0.2-39-0.7-58.5
		c-0.3-14.1,1.6-27.9,4.6-41.6c1.9-8.9,4-17.9,4.4-27.1c0.1-2.5,0.9-3.5,3.5-3.6c10.1-0.3,19.3,3.1,28.4,6.9
		c1.5,0.7,1.8,1.8,1.3,3.3c-5.5,16.2-4.7,33.2-6.3,49.9c-1.8,18.2-2.7,36.5-3.9,54.8C159.5,292.6,159.2,295.9,160.4,299.2z"/>
	<path id="X66FF00M2Gra2Co13_2_" class="st0" d="M142.8,465.5c4.2-0.1,8.1,0.3,11.8-0.9c2-0.6,3.4,0.1,2.9,2.5
		c-5,25.1-1.5,50.5-1.8,75.8c-0.4,36.8,5.1,73,10.2,109.3c2.2,15.7,4.5,31.3,7.6,46.8c1.5,7.5,4.6,14.2,8.3,20.8
		c0.9,1.2,1.6,2.6,2.1,4c0.5,1.9,3,3.9,1.7,5.4s-3.3-1-5.1-1.4c-5.4-1.2-10.9-1.1-16.4-1.3l-30.5-0.9c-3.1-0.1-4.3-1-2.5-4.2
		c3.6-6.4,4.4-13.4,4.2-20.7c-1.5-42-5.6-83.7-8.8-125.6c-2.2-28.4-2-56.9-2.8-85.4c-0.2-6-0.3-12-0.8-18c-0.3-3.3,0.8-4.4,4-4.7
		C132.3,466.3,137.7,465.3,142.8,465.5z"/>
	<path id="X009E41M2Gra1OT27_1_" class="st0" d="M329,470.4c0.3-3.7,0-7.5-0.9-11.1c-0.4-1.6-0.5-3,1.5-3.6
		c7.2-2.2,13.8-3.2,21.5,0.7s8.6,8,8.6,15.5c0.2,69.3,1.9,138.6,7.2,207.8c0.3,3.5,1,6.9,1.2,10.4s2.2,5.4,4.4,7.4s2.8,4-1.2,4.5
		s-7.9,3.6-11.3,6.1c-8.5,6.3-16.9,5.4-25.6,0.5c-1.6-0.9-1.4-1.8-1.3-3.2c0.7-31.8-0.6-63.6-0.4-95.5c0.1-10.9-2.2-19.3-10.7-26.4
		c-5.2-4.4-8.4-10.7-12.2-16.4c-1.4-2.3-3.3-4.2-5.6-5.6c-0.8-0.4-2.1-1-1.5-2.2s2-0.6,3.1-0.2c3.3,1.2,6.4,3,9,5.3
		c4.9,4.3,9.5,8.9,14.2,13.3c0.7,0.6,0.8,2.1,2.1,1.7s0.8-1.6,0.8-2.6c-0.2-24.3-0.8-48.7-0.4-73c0.2-11.4-2.6-20.6-10.6-29.2
		c-11.5-12.4-21.8-26-32.6-39.2c-0.9-1.1-2.1-2.1-1.9-4.8C300,444.5,316,454.9,329,470.4z"/>
	<path id="X009E41M2Gra1OT27" class="st0" d="M265.7,226.8c15.4,6.8,31.7,8.9,46.9,14.8c2.5,1,5.4,4.2,7.4,2.7s0-5.3-0.1-8.1
		c-1.2-21-2.6-41.9-3.6-62.9c-0.2-4.8-2-9-3.9-13.3c-1.1-2.5-1.2-4.3,2.5-3.7c5,0.8,10,0.2,14.7-1.6c5-2,9.8,0.8,14.2-0.1
		c-6,25.8-5.2,51.3-0.2,76.8c2.3,11.9,1.5,23.9,2.5,35.9c3.9,49.5,7.6,99,11.3,148.5c0.5,7,0.8,14,1.3,21c0.2,2.8-0.4,4-3.5,3.7
		c-4.8-0.6-9.7,0.1-14.1,2.2c-3.7,1.9-6.9,1-10.3-1c-7-4.2-7.1-4.3-6.5-12.3s0.6-13,1.1-19.5c0.1-1.8,0-3.1-2.2-2.7
		c-3.8,0.6-5.3-2.2-6.8-4.7c-3.8-6.5-7.1-13.2-9.8-20.2c-1.5-4.2-4-7.9-6.1-12c5.7,3.3,10.2,7.9,14.1,13s7.6,10.2,9.8,16.4l1.6-0.5
		c0-3.6-0.2-7.1,0-10.7c1.9-28.2-0.2-56.3-1.8-84.4c-0.1-2.3-1.2-3.5-2.9-4.9c-12.5-10.3-22.8-22.3-28.2-38
		c-0.6-1.7-1.6-3.3-0.9-5.2c1.7-0.2,1.8,1.2,2.3,2.2c4.7,9.3,12,16.3,20,22.6l3.9,3.2c1.2,0.9,1.9,3.5,3.7,2.5s0.4-3.1,0.3-4.6
		c-0.4-9.6-1-19.3-1.5-28.9c-0.1-2.4,0.3-5.4-3.6-2.5c-1.6,1.2-3.5,0.8-5.3,0.4c-16.4-4-30.6-12.8-44.9-21.3
		C266.1,229.1,265.5,227.9,265.7,226.8z"/>
	<path id="X66FF00M2Gra2Co13_1_" class="st0" d="M220.5,329.9c-7.5,25.6-5.6,51.5-6.3,77.2c-0.5,19.8-0.6,39.6-1.3,59.4
		c-1,26,2.3,51.5,6.3,77c1.4,9.2,2.6,18.5,3.8,27.7c0.2,1.2,0.7,2.6-0.5,4.1c-2.5-2-5.4-1.7-8.4-1.3c-2.2,0.4-4.4-0.1-6.2-1.4
		c-2.4-1.6-5.2-2.5-8-2.6c-2.2-0.2-4.3-0.5-6.4-1c-7.4-2-9.6-6-7.5-13.3c1.3-4.5,1.9-9.1,1.8-13.8c-1.3-56.6-0.9-113.2,2-169.8
		c0.7-10.2,0.8-20.3,0.3-30.5c0-1.7-0.2-3.3-0.5-5c-1.4-6.6-1.5-6.6,5.5-6.2c1.3,0,2.7,0.2,4,0.5
		C206.2,333.5,213.3,333.9,220.5,329.9z"/>
	<path id="X66FF00M2Gra2Co13" class="st0" d="M234,789.8c-6.5-6.4-13.2-6.7-20.4-6.1s-13.3-4.9-19.8-7.6c-1.8-0.8-1.2-2.9-1.2-4.6
		c-0.2-25.7,1.4-51.3,2.9-76.9c1.4-23.5,1.7-47-0.8-70.4c-1.3-11.8-4.9-23.4-7.5-35.2c-0.5-2.4-1.1-4.9-1.5-7.3
		c-1.1-6.3-0.8-6.6,5.8-6c4.5,0.3,8.9,2,12.3,5c2.6,2.4,6,3.7,9.5,3.6c5.9,0,6.9,1.7,6.7,7.5c-0.7,25.3-3.4,50.6-0.3,75.9
		c4.5,36,9,72,13.5,108.1C233.8,779.9,233.7,784.2,234,789.8z"/>
	<path id="XB6D21FM2Gra2OT28_1_" class="st0" d="M407.6,215.2c-2.5-0.2-2.8,1.5-3.9,2.2s-2.7,2.4-4.4,1.1c-1.6-1.1-2.2-3.1-1.4-4.9
		c1.5-3.1,0.4-4.9-2.2-6.6c-6.3-4.1-9.3-10.7-12.8-17c-2.6-4.6-4.9-9.4-6.8-14.3c2.7,0.7,3.7,3,5.1,4.8c5.1,6.6,10.8,12.6,17.2,18
		c3.6,2.9,5.4,1.6,7.1-1.8c5.2-10.2,11.8-19.7,16-30.5c0.6-1.4,1.1-3.1,3.9-3.8c-3.7,9.6-4.2,19.5-8,28.6c-1.9,4.4-2.7,9.3-5.6,13.3
		c-0.6,0.9-1,1.8,0,2.6s2,0.2,2.9-0.7s2.5-5.4,5.7-6.7c0.5,2.1-0.4,3.5-1.3,4.9c-2,3.2-3.6,6-0.4,9.7s-0.6,5.3-3.9,4.4
		s-3.6,0.3-4.9,2.4c-6.7,11.2-10.1,23.5-13,36c-0.2,0.6-0.5,1.5-0.2,2c2.8,5.7-2.7,10-2.6,15.4c0,1.7-1,4.2-3.4,4.4
		s-2.8-2.5-3.8-4.1c-0.5-0.9-0.7-1.8-0.8-2.8c-0.7-6.7-1.3-7.4-9.6-9.4c4.1,6.5,7.7,12.6,11.7,18.3c4.4,5.9,8.4,12,11.9,18.4
		c2.9,5.6,1.5,7.5-4.7,7.2c0,1.8,2.5,3.8,0,5.4s-4.9,0.9-7.1-0.5c-5.1-3.4-10.2-6.9-15.3-10.3c-1-0.7-2-2.1-3.5-1.3
		s-0.6,2.1-0.6,3.2c-0.4,9.3,2.8,18,4,27.1c0.2,1.8,0.6,3.6,0.7,5.4s-0.7,4.1-2.9,4.7s-3.3-1.1-4.2-2.8c-2.4-5.3-4-10.9-4.8-16.7
		c-1.2-7.3-1.3-14.6,0.9-21.8c1.2-4,0.7-7.1-2.5-10.4c-3.8-4.1-6.9-8.6-9.5-13.5c4.1,2.4,7,5.9,10.7,8.6s3.7,1.7,4.4-1.7
		c0.7-3.4,0.4-6.3,3.8-9.6c-0.3,4.4-0.4,7.8-0.9,11s0.9,5.9,4,7.7c6.4,3.8,13.4,6.7,18.4,12.3c1.5-1,0.9-1.8,0.4-2.3
		c-10.3-11.1-14.9-25-19.3-39c-0.6-2.2-2-4.2-3.9-5.5c-6.8-4.8-12.5-10.9-20.8-14.2c2.5-2.5,4.3-0.8,5.9-0.2
		c10.3,3.3,19.8,8.5,29.6,12.9c3,1.3,4.5,1.7,5.5-2.3c1.4-6,3.4-11.8,6.1-17.3c0.9-1.8,0.4-2.8-1.5-3.4l-1.9-0.7
		c-10.9-2.7-20.9-8-29.2-15.5c-2.4-2.1-5.3-3.6-8.8-5.8c4.7-0.9,7.8,1,10.8,2.4c11,5.3,23.4,6.7,33.9,13.1c0.7,0.7,1.9,0.6,2.5-0.1
		c0.1-0.1,0.1-0.1,0.2-0.2C402.8,221.6,405.7,219.1,407.6,215.2z"/>
	<path id="XB6D21FM2Gra1OT28_6_" class="st0" d="M445.2,248.9l-5.6,17.6c-0.8,2.5-1.8,5.2-5,4.3c-3.2-0.9-3.1-3.6-2.9-6.2
		c1-8.8,3.9-17.3,8.4-24.9c1.5-2.7,0.2-12.1-2-13.9s-1.8-0.2-2.4,0.7c-4.9,8.1-11.6,15-16.1,23.4c-2.1,4-2.3,7,0.4,10.9
		c5.5,7.9,11.9,15.3,14.5,24.9c0.4,1.1,0.7,2.2,0.9,3.4c0.2,1.9-0.3,3.8-2.3,4.6s-3.6-0.2-4.6-1.9c-2.9-5-5.7-10.2-8.5-15.3
		c-0.6-1.1-0.7-2.9-2.3-2.9s-1.4,1.9-1.9,3c-3.1,7-2.7,14.7-3.9,22c-0.6,3.4,0.9,9.2-4.4,9.1s-3.9-5.6-4.2-9.2s-0.3-8.6,1.3-12.8
		c0.3-0.7,0.5-1.9,0.1-2.3c-5.9-6.5-1-13.3-0.4-19.9c0.2-0.8,0.4-1.6,0.8-2.4c2.3-5.8,5.5-11.5,1.8-17.9c-0.4-0.8-0.2-1.7,0.5-2.2
		c0.3,0,0.8,0,0.9,0.2c3.3,5.4,3.3,5.4,7.2,0.5c3.2-3.8,6.8-7.4,10.7-10.5c4.6-4,9.2-8.1,12.7-13.6c-1,4.9,2,8.1,3.6,11.9
		s2.4,2.8,4,0.3c2.8-4.3,5.8-8.4,9-12.4c0.2,4.1-1.7,7.5-3.3,10.9c-3.2,6.5-3.5,12.2,0.6,18.9c5.3,8.8,9.9,18.1,11.8,28.5
		c0.1,0.5,0.3,0.9,0.4,1.4c0.6,3,0.6,6.3-2.6,7.2s-4.3-2.2-5.2-4.4c-3.2-8.4-6.2-16.9-9.3-25.3C447.2,252.7,447.2,250.5,445.2,248.9
		z"/>
	<path id="X66FF00M2Gra5Co13_1_" class="st0" d="M77.4,80.6c1.5,3.6,4.6,6.6,4.4,10.9c0,1.6,1.4,2.1,2.8,2.3
		c1.3,0.1,2.6,0.3,3.9,0.7c2.6,1.1,6,2.3,5.7,5.5s-4.3,2.4-6.6,2.3c-7-0.1-13.9,1.1-20.5,3.4c-11.5,3.8-23,7.6-34.3,11.9
		c-6.7,2.6-13.8,4.7-20.8-0.3c8,1.7,15.2-0.3,21.6-4.6C45.8,104.6,58.8,98,73,94.1c3.1-0.8,1.3-2.2,0.3-3.5
		C67.8,83,60.1,78.2,51.9,73.8c-7.9-4.2-15.3-9.4-21.8-15.6c-2.1-2.1-4.4-4.1-5.7-6.8c0.8-1,1.7-0.4,2.2,0.1
		c7.2,7.6,16.8,11.1,26.3,14.5S70.7,73.4,77.4,80.6L77.4,80.6z"/>
	<path id="XB6D21FM2Gra3OT28_5_" class="st0" d="M111.7,254.1c4.3,6.6,5.1,14.1,6,21.4c1.8,13.9,1,27.9-1.1,41.8
		c-0.2,1.1-0.5,2.2-1,3.3c-0.7,1.7-1.6,3.7-3.8,3.4s-3.3-2.5-3.3-4.4c0.1-7.1-4-12.3-8.3-17.1c-14.4-16.3-29.1-32.4-43.7-48.5
		c-1.1-1-2-2.3-2.4-3.8c0.9,0.2,1.4,0.2,1.7,0.4c16.2,13.2,32.5,26.4,47.7,40.8c1.8,1.7,2.4,6,5.3,4.8s0.6-4.5,1-6.9
		C111.8,277.7,113.3,266,111.7,254.1z"/>
	<path id="X95C61BM2Gra3OT26" class="st0" d="M247.1,16.8l10.6,12.3c3.8,4.5,4,4.4,6.5-1.1c1.6-3.4,3.1-6.9,6.7-9.3
		c-1.4,3.9-2.6,7.8-4.2,11.6s-1.8,8.9,1.3,13.1c5.8,7.6,10,16.1,12.6,25.3c0.2,0.6,0.5,1.2,0.6,1.9c0.5,3.1,1.9,7-1.7,8.4
		s-4.8-2.7-6-5.2c-2.8-5.7-5.2-11.5-7.8-17.2c-0.5-1-0.7-2.7-2-2.5s-1.1,2.1-1,3.3c0.8,8.5,0.1,17,0.2,25.4c0,1.2-0.1,2.3-0.1,3.5
		c-0.2,2.7-0.5,6-3.7,6.2c-3.2,0.2-3.8-3.1-4.2-5.7c-1.9-13.8-1.7-27.6,2.5-41c1.1-3.1,0.7-6.6-1-9.4c-3.4-6.2-6.4-12.6-10.8-18.3
		L247.1,16.8z"/>
	<path id="XB6D21FM2Gra4OT28_10_" class="st0" d="M461.9,536c-1.5,4.7-4.4,6-6.9,7.4c-14.5,7.9-26.4,19-38,30.4
		c-2.4,2.5-5.3,4.5-8.5,5.9c-4.2,1.6-6.6,5.5-9.1,9.1c-4,5.7-7.7,11.7-11.6,17.4c-1.4,2.1-3,5.2-6.1,3.7s-2.2-4.6-1.3-7.1
		c3.5-9.9,9.8-18.7,18.1-25.2c6.1-4.6,11.8-9.7,17.1-15.2c9.4-10.1,21.3-16.3,34.4-20.3C453.9,540.9,457.4,538.8,461.9,536z"/>
	<path id="XB6D21FM2Gra4OT28_9_" class="st0" d="M479.9,280.5c-0.7,3.3-3.1,5.1-5.5,6.7c-13.9,9.5-28.4,17.9-44.4,23.5
		c-3.1,1.1-6.2,2-9.7,1.3s-6.6,2.6-9.4,4.8c-7,5.5-12.5,12.4-18.2,19.1c-1.4,1.6-3,3.1-4.7,4.5c-1.8,1.4-3.8,3.3-6.1,1.2
		s-1.3-4.7,0.2-6.7c5.1-7.1,11-13.4,18.7-17.6c3.2-1.8,6.5-3.4,9.9-4.7c8.1-2.9,13.7-9.7,21.8-12.7c11.3-4.3,22.6-8.7,34-12.8
		C471.2,285.4,475.7,283.2,479.9,280.5z"/>
	<path id="XB6D21FM2Gra4OT28_8_" class="st0" d="M425.2,479.4c-2.5,7.1-4.7,13.8-7.3,20.4c-4.3,10.9-5.4,22.6-8.6,33.8
		c-1,3.3-1.7,8.1-5.7,7.4s-3.3-5.6-2.8-9c1.2-8.1,2.7-16.1,5.9-23.6c1-2.4,1.3-4.4-0.9-6.3s-1.8-4.1-2.3-6.4
		c-2.8-11.9-3.5-24.1-2.2-36.2c0.3-2.8-1-5.8,1.5-8.7c1.4,5.8,3.1,11.6,4.2,17.5c1.5,8.3,4.4,16.4,4.9,24.9c0.1,0.8-0.2,1.8,0.9,2.1
		s1.7-0.8,2.2-1.6c2.2-3.5,4.3-7.1,6.3-10.7C422.1,481.7,422.3,479.9,425.2,479.4z"/>
	<path id="XB6D21FM2Gra4OT28_7_" class="st0" d="M396.5,474.8c-2.5,5.1-6.6,9.4-8.2,14.7s-6.2,11.8-8,18s-2.2,13.4-3.1,20.2
		c-0.2,3-0.9,5.9-1.8,8.8c-0.7,1.8-1.7,3.5-3.9,3.2s-2.9-2.1-3.2-4c-0.7-4.2-0.1-8.3,0.1-12.5c0.5-8.9,2.6-17.4,7.8-24.9
		c1.1-1.5,1.5-2.9,0.7-4.6c-3.7-9-5.4-18.6-5-28.3c0.1-5.2-1.4-10.1-2.1-15.6c2.6,0.5,3,2.4,3.6,3.9c3.9,9.4,6.3,19.2,9.4,28.9
		c0.3,1.1,0,2.6,1.3,3s2.3-1.1,3.1-2C390.1,480.6,392.3,476.8,396.5,474.8z"/>
	<path id="XB6D21FM2Gra4OT28_6_" class="st0" d="M556.6,518c-8.9,8.8-18.9,15.3-28.4,22.5c-10.5,7.9-20.2,16.8-29,26.6
		c-2.2,2.4-4.6,7.2-8.2,4.3s-0.3-6.8,1.7-9.8c9.5-14.2,23.3-23,38.1-30.5c7.3-3.7,14.9-6.6,21.3-11.9C553.3,518,555,517.5,556.6,518
		z"/>
	<path id="X009E41M2Gra8OT27_3_" class="st0" d="M241.6,340.1c11.5,0.3,23-0.3,34.4-2c5.9-0.9,11.7-2.2,17.7-3
		c5.9-0.8,12-0.5,17.8,1c5,1.2,8.8,3.9,10.4,9c0.3,1.1,0.5,2.4-0.7,3.2s-1.5,0-2.2-0.5c-6.4-4.2-13.6-4.4-20.7-3.6
		c-16.6,2-33.2,1.2-49.7-1.2C246.5,342.8,244.2,343.1,241.6,340.1z"/>
	<path id="X009E41M2Gra8OT27_2_" class="st0" d="M232.4,199.4c2.6,6.8,6.3,12.9,8.9,19.5c4.8,12.4,12.4,23.1,19.6,34
		c2.2,3.3,4.1,6.9,5.4,10.6c0.9,2.7,2.5,5.7-1,7.4s-4.5-1.6-5.8-3.4c-10.9-15.4-21.3-31-23.8-50.4c-0.4-3.2-1.8-6.4-2.9-9.5
		C231.9,205,231.7,202.1,232.4,199.4z"/>
	<path id="XB6D21FM2Gra3OT28_4_" class="st0" d="M446.7,455.7c4.2,4.1,9.1,7.5,13.2,11.5c12.2,12,24.2,24.3,29.9,41.1
		c1,2.8,2.1,5.7,1.5,8.7s-2.9,4.1-5.2,1.6c-1.4-1.6-2.7-3.4-3.6-5.3c-9.5-18.3-19.2-36.4-33-51.9C448,459.9,446.4,458.3,446.7,455.7
		z"/>
	<path id="XB6D21FM2Gra4OT28_5_" class="st0" d="M561.9,510.6c3.5,9,4.7,18,1.6,27.2c-1,3.1,0.7,3.3,3,3.5c4.1,0.4,8.3,0.1,11.6,3.2
		c-0.2,0.3-0.4,0.8-0.5,0.8c-10-2.5-18.6,2-27.1,6c-4,2-8.3,3.4-12.7,4.3c-2.7,0.5-6.4,0.9-7.2-2.6s2.6-4.4,4.9-5.3
		c5.1-2.1,10.2-3.9,15.5-5.4c2.6-0.7,3.4-2,3.9-4.3C556.7,528.8,561.2,520.3,561.9,510.6z"/>
	<path id="XB6D21FM2Gra3OT28_3_" class="st0" d="M0.3,281.2c0.6,0.3,1.2,0.4,1.4,0.7c8.5,14.3,19.4,27,27.9,41.2
		c3.1,5.1,5.5,10.6,7.1,16.4c0.3,1.1,0.4,2.3,0.4,3.4c0,2.1-0.7,4.3-2.8,4.8s-3.3-1.4-4-3.1c-6-12.8-13.8-24.6-19.5-37.6
		c-3.2-7.3-6.5-14.5-9.9-21.8C0.4,284.1-0.6,282.9,0.3,281.2z"/>
	<path id="XB6D21FM2Gra4OT28_4_" class="st0" d="M378.4,18.9c-0.6,6.4-1.4,12.6-1.6,18.8c-0.5,14.3-0.7,28.5-1.1,42.8
		c-0.1,2.7-0.2,5.4-2,7.6s-4,2.2-5.4-0.6s-1.1-4.8-1.3-7.3c-1.2-20.1,3.4-39.2,8.7-58.3C376,20.6,376.4,19.2,378.4,18.9z"/>
	<path id="XB6D21FM2Gra1OT28_5_" class="st0" d="M380.5,359.8c1.3,4.2-1.3,8-2,11.8c-3.2,16.4-3.7,33-4.5,49.6
		c-0.2,3.5,0.3,8.4-3.9,8.5s-4.6-4.9-4.9-8.5c-1.9-19,4.2-36.4,11.3-53.6c1.1-2.6,1.4-5.5,3.3-7.7L380.5,359.8z"/>
	<path id="XB6D21FM2Gra1OT28_4_" class="st0" d="M535.4,312.3c-2.8,2.5-5.4,2.5-7.8,2.5c-17.5,0.1-35-0.8-52.4-2.4l-2.5-0.4
		c-2.5-0.5-5.5-0.8-5.3-4.1s3.3-3.5,5.7-3.7c8.8-0.7,17.7-0.2,26.4,1.4c7.5,1.4,15,3,22.4,5C526.1,311.8,530.4,311.2,535.4,312.3z"
		/>
	<path id="X66FF00M2Gra3Co13" class="st0" d="M7.4,19.6c8,3.9,16.1,7.7,24.1,11.7S50.4,39.5,59.1,45c2,1.1,4,2.4,5.9,3.7
		c1.5,1.2,3.2,2.8,2.1,5.1s-3.2,2.1-5.2,1.6C56.5,54,51.6,51.5,46.7,49C32.6,41.7,20.9,30.9,7.8,22c-0.5-0.4-0.9-0.9-1.2-1.5
		L7.4,19.6z"/>
	<path id="XB6D21FM2Gra1OT28_3_" class="st0" d="M495.1,58.5c-0.8,1.7-2.3,2.9-4.1,3.3c-16.9,4.3-31.9,13.2-47.5,20.6
		c-1.9,1-4,1.7-6.1,2.2c-2.2,0.4-5,0.9-6.1-1.9s1.3-3.9,3.1-5.1c6.3-4.1,13-7.5,19.9-10.4c8.6-3.7,17.7-5.6,27-6.7L495.1,58.5z"/>
	<path id="XB6D21FM2Gra4OT28_3_" class="st0" d="M576.4,580.3c-9.9-10.3-24-8.2-35.9-12.1c-5.1-1.7-10.5-1.6-15.8-1.3
		c-3.7,0.2-7.4,0.4-10.9-0.8c-1.8-0.6-4.1-1.4-3.9-3.9s2.3-2.8,4.1-3.1c7.6-1.4,15.4-2.8,22.8-0.5c12.1,3.7,24,8,34.7,15
		C573.8,575.1,575.9,576.9,576.4,580.3z"/>
	<path id="X66FF00M2Gra4Co13" class="st0" d="M44.1,31.1c16.2,6.9,33.7,8,48.6,17c3.5,2.2,6.9,4.5,10.3,6.9c1.8,1.3,3.6,3.1,2.5,5.4
		c-1.1,2.3-4.2,1.9-6.2,1.1c-5.9-2.6-11.8-5.4-17.4-8.6c-11-6.3-22.4-11.6-33.6-17.6C46.8,34.6,44.8,34,44.1,31.1z"/>
	<path id="X66FF00M2Gra5Co13" class="st0" d="M77.5,80.7c1.4-1,3.2-1.1,4.8-0.4c16.1,7.8,31.7,16.4,40.9,32.8c1.1,1.9,2,3.8,2.7,5.9
		c0.5,1.7,0.6,3.8-1.4,4.9s-3.6,0.2-4.9-1.3s-4.1-4.8-6-7.4C104.8,103.5,94.5,93,82.9,84C81.1,82.8,79.3,81.7,77.5,80.7L77.5,80.7z"
		/>
	<path id="XB6D21FM2Gra3OT28_2_" class="st0" d="M504.5,478.8c2.6,3.1,2.8,5.6,3.2,8c2.7,17.5-0.1,34.4-6.5,50.8
		c-1,2.6-2.6,5.8-6.1,4.4s-2.5-4.3-1.8-7c3.4-13.2,6.8-26.4,10.2-39.6C504.9,490.5,504.3,485.3,504.5,478.8z"/>
	<path id="XB6D21FM2Gra3OT28_1_" class="st0" d="M23.6,298.8c15,12.8,30.3,25.3,34.6,46c0.6,2.7,0.7,5.2-2,6.5s-4.1-1.5-5.3-3.2
		s-2.3-4.8-3.3-7.2c-6-14-13.6-27.3-22.8-39.5C24.3,300.6,23.9,299.7,23.6,298.8z"/>
	<path id="XB6D21FM2Gra1OT28_2_" class="st0" d="M446,38.7c-5.8,6-10.4,13-16.1,18.9c-6.4,6.8-12.3,14-17.6,21.6l-1.3,1.5
		c-2.1,2.2-3.8,6.1-7.5,3.4s-1-5.9,0.5-8.5c5-8.5,11-16.2,19.4-21.7c6.1-4,11.9-8.4,17.5-13.1C442.3,39.7,443.7,38.5,446,38.7z"/>
	<path id="XB6D21FM2Gra4OT28_2_" class="st0" d="M548.4,485.8c-6.1,7-10.5,14.2-15.2,21.2s-9.5,17.2-16,24.6c-0.8,1-1.8,2-2.8,2.8
		c-1.3,1.1-3.2,1.2-4.6,0.1c-1.2-1-1.7-2.7-1-4.1c1.1-2.6,2.4-5.1,3.8-7.5c8.3-15,20.8-26.2,33.7-37
		C546.4,485.7,546.9,485.8,548.4,485.8z"/>
	<path id="XB6D21FM2Gra3OT28" class="st0" d="M60.7,303c1.1-0.1,2.1,0.6,2.5,1.6c7.9,15.5,14.3,31.5,14.8,49.3
		c0.1,3.4,0.6,8.3-3.7,8.6c-4.3,0.3-4.3-4.6-4.9-8C66.1,337.5,66.1,320,60.7,303z"/>
	<path id="XB6D21FM2Gra4OT28_1_" class="st0" d="M365.6,572.7c4,4.6,6.4,10.4,7.9,16.1c3,11.7,5.5,23.6,5.8,35.8
		c0.1,2.5-0.2,5-2.9,5.6s-4.2-1.8-4.9-4c-2.3-7.3-3-14.9-3.4-22.6c-0.5-9.7,0.7-19.7-3.5-28.9C364.3,574.1,364.5,573.4,365.6,572.7z
		"/>
	<path id="X009E41M2Gra8OT27_1_" class="st0" d="M228.8,109.6c1.3-13.7,5.5-27,12.1-39c1.5-2.6,3.2-5.1,3.8-8.1
		c0.2-0.8,0.5-1.7,1.6-1.4s1.2,1.1,1.1,2c0,0.8-0.2,1.6-0.4,2.4c-3.9,11.7-5.5,23.9-7.5,36c-0.6,3.4-1.3,6.8-2.1,10.2
		s-1.7,6-5.2,5.5S228.6,113.7,228.8,109.6z"/>
	<path id="XB6D21FM2Gra4OT28" class="st0" d="M432.8,325.4c0.4,0.9,0,2-0.9,2.4c0,0,0,0-0.1,0c-14,8.5-24.7,20.5-35.8,32.2
		c-2.2,2.3-4.5,6.9-8.4,3.8s0-6.6,1.9-9.3c8.7-12.2,20.8-19.8,34.4-25.4C426.9,327.9,429.5,325.7,432.8,325.4z"/>
	<path id="X009E41M2Gra8OT27" class="st0" d="M224.9,225.9c0.3,6.9,0.4,13.8,1.2,20.7c1.2,10.4,4.8,20.4,5.1,30.9
		c0,0.7,0.3,1.3,0.3,2c0,2.5-0.7,5-3.2,5.6s-4.3-1.8-4.8-4c-1.6-6.5-2.9-13-3.7-19.6c-1.2-11.3,1.4-22.5,2.7-33.7
		c0.1-0.7,0.8-1.4,1.2-2L224.9,225.9z"/>
	<path id="XB6D21FM2Gra1OT28_1_" class="st0" d="M499.7,220.4c0.3,6.8-2.2,12.8-4.2,18.8c-3.2,9.8-5.3,19.9-10.6,28.9
		c-0.7,1.3-1.6,2.6-2.6,3.7c-1,1.2-2.7,1.6-4.1,1c-1.5-0.6-2.3-2.1-2.1-3.6c0.1-1.5,0.4-3,0.9-4.4c4.2-11,8.4-22,15.3-31.8
		C495.2,229.1,497.3,224.6,499.7,220.4z"/>
	<path id="XB6D21FM2Gra1OT28" class="st0" d="M541.6,240c-4.2,4.8-8.1,9.9-12.6,14.4c-7.6,7.6-15.6,14.9-24.9,20.6
		c-1.1,0.7-2.3,1.2-3.6,1.6c-1.5,0.5-3.1-0.1-4-1.3c-1.3-1.4-0.6-2.8,0.3-4.1c3.2-4.6,7.8-7.6,12.2-10.9c10.2-7.6,22-12.8,31.4-21.7
		L541.6,240z"/>
	<path id="X66FF00M2Gra6Co13" class="st0" d="M79,22.9c5.9,9.8,16.1,13.4,24.8,19.1c4.6,3,8.8,6.6,12.5,10.7
		c1.5,1.7,2.5,3.7,0.9,5.8s-4,1.5-5.8,0.3c-12.6-9.2-24.5-19-32.8-32.5C78.1,25.4,77.7,24.5,79,22.9z"/>
	<path id="XB6D21FM2Gra2OT28" class="st0" d="M103.9,357.5c-6.6-0.3-11.7-1.4-16.9-0.6c-0.6,0.1-1.4,0.2-1.6-0.7
		c-0.2-0.7,0.2-1.4,0.9-1.6c11.6-3.3,22.9-7.8,35-9.3c1.9-0.4,3.7,0.9,4.1,2.8v0.1c0.4,2-0.9,3.6-2.8,4.2
		C116,355,109.5,357.7,103.9,357.5z"/>
	<path id="X009E41M2Gra5OT27" class="st0" d="M169.2,327c3.8,3.4,3.3,7.2,3.5,10.4c0.6,6.1,0.3,12.3-0.8,18.4
		c-0.3,1.5-0.6,3-2.4,3.4c-1.7,0.3-3.4-0.5-4.2-2.1c-1.3-2-1.3-4.3-1.2-6.7C164.3,342.5,168.5,335.6,169.2,327z"/>
</g>
</svg>
