<?xml version="1.0" encoding="utf-8"?>
<!-- Generator: Adobe Illustrator 24.1.0, SVG Export Plug-In . SVG Version: 6.00 Build 0)  -->
<svg version="1.1" id="图层_1" xmlns="http://www.w3.org/2000/svg" xmlns:xlink="http://www.w3.org/1999/xlink" x="0px" y="0px"
	 viewBox="0 0 693.2 828.4" style="enable-background:new 0 0 693.2 828.4;" xml:space="preserve">
<style type="text/css">
	.st0{fill:#FFFFFF;stroke:#000000;stroke-miterlimit:10;}
</style>
<path id="XB6D21FM2Gra3OT28_1_" class="st0" d="M693.2,426.8c-0.1,9-2,16.4-3.3,23.8c-5.3,29-14.8,56.7-29.2,82.5
	c-15.1,27-35.5,50.6-60,69.5c-30.1,23.3-64,39.1-99.8,51.3c-27,9.2-54.6,16-82.4,21.9c-23.8,5-47.7,9.1-71.6,13.6
	c-1.4,0.3-2.9,0.3-5.5,0.5c3.8-6.3,7.2-11.9,10.7-17.4c19.2-30.3,40.8-58.7,66.8-83.7c32-30.7,69.5-51.8,112.5-62.7
	c20.6-5.2,41.4-9.8,62.1-15.1c37.1-9.5,66.4-30,86.8-62.7C684.4,441.6,688.4,434.8,693.2,426.8z M364.7,676.6
	c1.7-0.3,2.5-0.4,3.2-0.7c12.1-3.6,24.5-6.2,36.9-8.8c35.5-7.5,70.9-15.2,105.1-27.9c50.3-18.8,92.1-48.8,123.4-92.7
	c1.3-1.8,3.2-3.5,3.5-6.6c-5,5.8-9.3,11.3-14.1,16.3c-27.8,29.5-62,49.4-99.2,64.5c-26.4,10.7-53.7,18.7-80.9,27.1
	c-7.9,2.5-15.8,4.6-23.7,6.9c17.8-10.2,36.3-19.1,52.3-32c-26.2,11.7-53.2,21.4-80.7,33.3c7.7-11.9,16.5-23.1,26.4-33.4
	c9.5-10.1,19.6-19.5,30.3-28.3c10.5-8.7,21.1-17,31.7-25.5C431.8,594.8,389.5,625.7,364.7,676.6z"/>
<path id="XB6D21FM2Gra3OT28" class="st0" d="M259.9,682.7c-18.1-19.8-41.3-29.2-64.3-38.8c-26.7-11.2-54.1-20.8-79-35.8
	c-17.7-10.7-33.3-23.7-43.6-42.2c-10-18.2-12.6-37.7-10.5-58c3-28.7,13.6-55,26-80.8c1.4,0.2,0.9,1.2,0.8,1.9
	c-4.1,37.8,10.5,67.1,40,90c16.2,12.6,34.1,22.6,51.6,33.1c20,12,39.9,24.2,55.7,41.8C259.3,619.2,264.9,649.1,259.9,682.7z
	 M253.1,664c-0.4-6.3-1.8-11.4-3.1-16.5c-5-19.6-14.3-36.3-31.2-48.4c-13.5-9.6-28.2-17-43-24.2c-15.9-7.7-31.6-15.7-44.8-27.8
	c-2.2-2-4.3-4.2-6.4-6.3s-4.1-4.3-6.1-6.4c-0.1,0.9,0.1,1.9,0.7,2.6c13.3,18.2,30.6,31.8,50.2,42.6c16.7,9.2,32.2,20,45.3,34
	c7.2,7.7,13.4,15.9,17.7,26.6c-26.6-14.1-56.3-17.7-81.6-32.6c14.2,11,29.7,20.3,46.1,27.8C215.7,644.1,236.7,648.6,253.1,664
	L253.1,664z"/>
<path id="X9205D3M1Gra3OT26_7_" class="st0" d="M299.3,407.7c11.4-11.7,21.3-24.8,29.2-39.1c-11.9,12.1-21.9,26.2-37.6,35.6
	c1.1-10.2,4.6-18.9,4.2-28.5l-10.3,19.7c-2.8-19.4,1.3-36.8,5.8-54.1c-8.3,17.3-13.4,35.4-12.7,56.2c-8.7-10.5-14-21.2-18.5-32.4
	c2.2,12.2,6.2,24,11.9,34.9c-8.1-5.4-13.9-13-20.1-20.5c2.7,8.7,5.1,17.3,4,26.7c-5.8-11.8-11.7-23.4-21.1-32.8
	c5.3,9.7,10.4,19.4,13.4,31.6c-16.2-12.4-33.5-19.4-52.3-22.8c16.1,6.8,32.6,12.9,45.7,26.5c-7.9,0.6-14.7-1.1-21.9-1.5l27.5,12.8
	c-17.6,7.2-35.2,6.6-52.3,8.5c15.5,2.1,31.3,2,46.7-0.3c-0.3,2.3-2.2,2.7-3.6,3.2c-25.1,8.4-50,8.9-74.1-3.5
	c-4.2-2.2-7.7-5.3-10.3-9.2c-6.3-9.3-5.3-19.6,3.1-28.7c4-4.3,8.1-8.4,12.3-12.4c6.2-5.9,10.2-13.1,12.9-21.1
	c6-17.5,25.1-22.7,37.8-19.1c7.2,2,11.7,8,16.2,13.6c1.4,1.8,2.7,3.8,4.3,6.1c1.3-1.5,0.4-2.8,0.2-4c-1.9-8.7-2.9-17.4-1-26.2
	c3.6-17,15.9-24.2,32.4-18.7c3.5,1,6.9,2.5,10,4.4c11.4,7.4,24.9,10.9,38.5,9.7c14.8-1,24.5,6.5,30.9,19.3c2.8,5.5,3.3,11.5,1,17
	c-8.6,20.8-22.5,37.1-42.9,47.4c-1.3,0.7-2.8,1.1-4.2,1.4C302.8,407.8,301.4,408.5,299.3,407.7z"/>
<path id="X9205D3M1Gra3OT26_6_" class="st0" d="M248.8,525.8c-6.4,9-11.9,17.1-20.7,22.2c-11.6,6.8-21.6,4.3-29.1-7
	c-4.1-6.2-6-13.3-8.3-20.2c-3.4-10.2-10.8-17.2-19.3-22.9c-20.7-14-10.5-39.8,6.1-46.7c18.6-7.8,37.7-10.7,57.6-6
	c2.5,0.4,4.8,1.4,6.6,3.1c-13,1.5-25.2,4.1-36.5,9.8c11.4-3.2,23.1-4,35.3-3.3c-14.8,10.9-27.1,24.9-35.9,41
	c6-5.9,11.2-12.6,17.3-18.4c6.3-6.2,13.5-11.4,21.4-15.5l-9.4,20c7.1-5,12.2-11.7,18.6-17.9c4.1,8.4,1.9,16.6,0.6,24.6
	s-3.6,15.6-5.1,23.6c5.9-13,10.4-26.5,13.4-40.5c2.2,2.4,1.8,4.8,2,6.9s0,4.3,0,7c4-3.2,5.8-8.3,11.4-10.6
	c-5.7,14.4-10,28.4-12.3,43c6.2-15.2,10.3-31.5,22.5-44.9c2,10.3,2.5,19.9,5.8,29c1-7.1,2-14.2,3.3-22.6
	c9.4,16.8,11.3,34.1,13.1,51.4c2-19.4-0.6-38.9-7.8-57c10.6,6.5,20.2,14.6,28.5,23.9c-6.9-11.8-16.1-21.6-27.7-30.8
	c9,1.2,15.3,5.5,21.4,10.1c13.2,10.1,25,21.5,32.8,36.4c3.1,5.7,4.9,12.1,5.1,18.6c0.3,10.5-5.2,18.2-15.2,21.4
	c-4.6,1.5-9.5,1.9-14.3,1.3c-13.4-1.8-25.7,1.2-37.4,7.7c-13.8,7.6-30.1,4.2-40.1-7.9c-3.5-4.2-4.4-9.3-4.2-14.5
	C248.2,535.8,248.5,531.4,248.8,525.8z"/>
<path id="X9205D3M1Gra3OT26_5_" class="st0" d="M562.7,293.8c-7.4,5.4-15,10.2-23.8,13.3c7.2-8.1,14.1-16.5,18.9-26.3
	c-6.9,8.2-14.8,15.5-23.5,21.7c5-27.2,5.9-42.8,2.9-53.5c-1.3,17.2-1.3,33.7-9.5,49.8c-1.5-8-2.8-15.1-4.1-22.1l-0.8,0
	c-0.9,9.2-1.8,18.3-2.8,28.8c-12-13.3-16.8-29-24.5-43.2c3.1,15.4,8.6,30.3,16.1,44.1c-7.7-2.4-12.1-7.2-16-12.5
	c-8.3-11.3-13.7-23.9-16.9-37.5c-2.4-10.1-1.5-19.6,7-26.9c8.8-7.6,18.7-10.8,30-6.4c12.3,5,25.9,5.7,38.7,1.9
	c5.7-1.5,11.6-1.7,17.4-0.6c11.3,2,18,12,16.8,24.6c-0.9,9.3-3.9,17.4-10.9,28.8c5.4-3.4,9.6-6.7,14-9.6c16-10.5,38.9,4.3,40.1,20.7
	c0.9,12.8,4.9,25.2,11.8,36.1c1.3,2.1,2.4,4.4,3.2,6.8c4.9,15.6-2,26.9-18.1,30.3c-15.8,3.3-30.8,0.4-45.5-5.1
	c-7.7-2.8-15.1-6.1-21.4-11.5c-1.4-1.1-2.7-2.4-3.7-3.9c12.8,4.9,25.6,9.2,39.1,11.1c-7.2-3-14.4-5.9-21.5-8.9
	c-5.8-2.5-11.5-5.2-16.6-9c-0.8-0.6-2.3-1.1-1.8-2.6c0.4-1.1,1.7-0.8,2.7-0.9c7.7-1,15.5-1.4,24-3.5c-6.9-2.3-13.6-1.5-20-4.5
	c15.4-8.4,31.8-9.6,48.1-11.4c-17.9-2.2-36.1-0.1-53,6.2c6.3-10.4,13.6-18,21.5-25.4c-11.5,6.4-20.7,15.3-29.7,26.6
	C552.7,308.8,557.9,301.5,562.7,293.8z"/>
<path id="X9205D3M1Gra3OT26_4_" class="st0" d="M494.3,359.8c-12.1,4.8-22.2,10.5-31,18.4c9.5-5.1,19.4-9.1,29.7-12.1
	c-11.6,15.7-19.2,31.6-22.5,49.4c6.8-14.9,12.7-30.2,25.7-42.5c-1,7.7-1.9,14.4-3,22.1c5.4-8.4,8.7-16.9,13.2-25.8
	c7.6,15.1,6.1,30.8,8.1,45.9c2-13.7,1.7-27.4,0.6-41.8c4,3.9,4.8,8.9,7.2,13.2c1.6-4,2-8.1,5.5-12c-0.6,14.1-0.9,27.2,1.6,41.6
	c1.4-16.4,0.1-32,8.4-46.9c4.5,7.9,7,15.3,12.3,21.4l-3.1-19.8c6.1,5.3,11.2,11.7,14.9,18.9c3.7,7,7,14.3,10.5,21.5
	c0.3-4-3.5-15.6-7.8-24.6c-3.7-7.8-8.5-14.9-13.9-22.5c11,2.5,20.5,7,29.9,11.8c-8.1-7.4-17.4-12.8-28.7-17.4
	c10.4-1.7,19.1,0,27.6,3.1c13.6,5,26.5,11.3,35.3,23.4c10.3,14.3,5,31.5-11.5,37.4c-12.2,4.3-22.4,10.7-29,22.2
	c-2.7,4.4-6.3,8.3-10.5,11.2c-9.9,7-20.1,5.5-27.7-3.9c-2.8-3.5-5.1-7.4-6.9-11.6c-1.7-4-2.9-8.1-4.6-13c-0.8,3.6-1.4,6.4-2,9.1
	c-4.1,19.2-27.2,27.8-43.1,16c-3.1-2.5-6.1-5.2-8.9-8.1c-6.8-6.5-15.4-10.9-24.6-12.6c-4.3-0.8-8.4-2.1-12.3-4
	c-11.1-5.5-15.1-16.1-10.2-27.6c2.9-6.8,7.4-12.7,13.2-17.3c14-11.4,29.7-19.6,47.5-23.2C487.5,359,491,359,494.3,359.8z"/>
<path id="X9205D3M1Gra3OT26_3_" class="st0" d="M298.1,195.9c-7.6,11.6-13.3,22.9-16.9,35.2c7.5-11.1,13.1-23.6,24.4-33.4V221
	c3.4-4.9,3.7-10.6,6.2-16.8c5.5,14.4,4.4,28.5,4.4,42.6c2.6-7.2,3.1-14.6,3.3-22.1c0.1-7.9-0.5-15.7-1.8-23.4
	c7.2,6.3,13.5,13.5,18.9,21.5c-3-8.9-8.2-16.5-14.6-24.9c8.4,3.2,13.6,8.7,19.7,13.2c-3.2-6.9-6.8-13.5-7.2-21.3
	c6.4,9.2,13.6,17.5,22.8,24.2c-5.9-7.1-11.5-14.4-16.2-24c15.3,7,30.2,10.5,45.8,10.3c-13.8-3.4-28-5.4-40.6-14.5
	c6.1-1.6,11.7-1.3,17.3-2.4l-22.4-5.7c2.3-3.7,7.4-6.3,18.4-9.4c6.7-1.9,13.4-3.9,20-6.1c-12.6,0.8-24.7,3.5-37.9,7.7
	c6.3-6.6,13.5-8.8,20.6-11.1c12.1-4,24.9-5.1,37.4-3.3c5.3,0.8,10.3,2.8,14.7,5.8c8.4,5.7,10.4,15.6,5.2,25.2
	c-1.5,2.8-3.2,5.5-5.1,8c-6.3,7.7-9.5,16.6-11.4,26.2c-3.8,18.6-24.3,26.2-39.4,14.8c-2.9-2.2-5.6-4.7-8.8-7.4
	c1.9,6.4,4.9,11.8,5.5,18c0.4,3.3,0.5,6.7,0.4,10c-1,11.8-9.5,19.1-21.3,18c-3.7-0.3-7.3-1-10.7-2.2c-10.6-4.2-22.3-4.9-33.3-2
	c-12.5,3.1-22.2-1.2-29.6-11.4c-3.7-5.1-3.9-10.8-2.5-16.3c4.4-17.4,12.9-32.3,27.5-43.3c1.1-0.8,2.2-1.5,3.5-2
	C295.6,196.5,296.8,196.2,298.1,195.9z"/>
<path id="X9205D3M1Gra3OT26_2_" class="st0" d="M299.3,139.6c-3-7.9-5.7-15.1-8.4-22.3l-1,0.2c0.3,5.7,0.7,11.4,1.1,18.5
	c-5.9-6.1-9.1-12.6-11.8-19.1c-2.7-6.5-4.7-13.4-7.8-20c0.9,4.8,1.6,9.7,2.9,14.5c1.3,5,3,9.9,4.9,14.7c2,4.7,4.6,9.2,7.6,15.1
	c-8.9-3.3-17.4-7.8-25.1-13.3c6.8,8,15.5,13.7,24.8,18.8c-3.9,0.8-7,0.6-12.5-1.7c-13.1-5.6-25.1-12.9-35.1-23.3
	c-4.9-4.8-8.4-10.8-10.3-17.4c-2.9-10.4,2.1-19.5,12.3-22.8c3.8-1.1,7.8-1.8,11.8-2.2c9.6-1.3,17.9-5.5,25.5-11.7
	c10.6-8.8,22-9,33.5-1.4c4.5,3,6.5,7.5,7.4,12.5c0.6,3.4,0.9,6.9,1.4,11c3.2-4.6,4.4-9.7,7.5-13.8c1.7-2.4,3.7-4.7,5.8-6.9
	c7.6-7.4,17.2-7.3,24.8,0.1c4,4.1,7.2,8.7,9.6,13.9c3.9,7.6,10,12.7,17.5,16.4c1.5,0.7,3,1.4,4.4,2.3c14.9,8.4,17.1,25.8,3.9,36.7
	c-15.5,12.8-33.6,18.2-54,15.6c8.7-3.7,17.5-7.2,25.1-13.1c-8.4,3.6-17.2,5.7-27.4,7.8c11.7-12.3,19.8-25.6,24.4-40.9
	c-7.2,12.3-13.9,25-26.4,34.4c1.6-6.4,2.9-12,4.3-17.6l-0.8-0.5c-3.1,4.9-6.1,9.8-9.3,14.6c-0.7,1-0.9,3-2.5,2.7
	c-1.3-0.3-1.7-2-2.1-3.2c-2.5-8.8-2.1-17.8-1.8-26.8c0.2-2.5,0.2-5,0.1-7.5c-3,10.7-4.5,21.8-4.5,33c-3.5-3.1-2.8-7.2-4-11.4
	c-2.1,4.3-3.8,7.9-7.3,11.7c1.8-13.3,3.5-25.5,2.7-37.9c-1.1,6.7-2.1,13.4-3.4,20C305.7,126.1,304.1,132.9,299.3,139.6z"/>
<path id="X99FF33M1Color21_2_" class="st0" d="M327.6,704.6c32,1.4,63,3.6,92.9,13.6c35.6,11.9,60.3,36,76.1,69.7
	c5.8,12.3,11.1,24.9,14.8,38c0.2,0.8,0.8,1.5,0,2.5c-7.5-7.3-15.8-13.8-24.7-19.3c-14.5-8.9-30.2-15.4-46.1-21.2
	c-23.6-8.6-47.1-17.5-67.5-32.7c-17.7-13.2-32-29.4-44.1-47.8C328.4,706.5,328,705.6,327.6,704.6z"/>
<path id="X9205D3M1Gra2OT26" class="st0" d="M354.2,474.4c-14-10-28.8-18.9-41-33.6l30.5,2.6l0.4-1l-19.7-8.2
	c6.6-4,22.7-4.1,51.9-0.4c-8-3.9-27.9-9.5-56.1-6.8c7.2-7.6,15.5-14.1,24.6-19.3c-11.2,3.3-20.5,10.2-30.1,16.4
	c6-9.1,14-16.8,23.4-22.4c12.5-7.6,25.9-12.7,40.7-13.7c5.5-0.4,11,0.3,16.3,2c11,3.5,16.6,15,13.8,27.6c-1.2,5.4-3.2,10.5-5.7,15.4
	c-6.3,12-6.3,24.9-4.7,38c0.7,5.9,0.4,11.9-4.1,16.4c-7.1,7.2-15.8,11.1-26.1,9.9c-11.6-1.4-21.4-7.3-30.3-14.3
	c-10.3-8-19.5-17.1-24.6-29.6c-0.3-0.7-0.4-1.5-0.9-3.4C325.2,459.8,339.3,468,354.2,474.4z"/>
<path id="X9205D3M1Gra3OT26_1_" class="st0" d="M482.4,323.1l-20.2,2.3c8.3,3.7,17.3,4.5,27.2,7c-14.4,9.9-30,13.5-44.9,18.8
	c14.9-1.6,29.5-5.1,43.5-10.5c-4.5,7.1-10.1,11.5-16.2,15.1c-14,8.3-28.8,13.9-45.4,12.7c-15.3-1-26.8-15.4-23.5-29
	c0.7-2.6,1.7-5,3-7.4c5-10.3,6.5-21.9,4.4-33.1c-1.1-6.5-1.4-12.9,0.3-19.3c2.7-10.3,10-16.2,20.6-16c11,0.2,20.6,4.9,29.4,11.1
	c15.4,10.7,26.7,24.6,32.7,42.6c-7-9.1-14.3-17.9-23.8-24.6c7.1,7.8,13.3,16.4,18.4,25.6c-17.5-8-34.7-10.5-52.4-10
	C451.3,311.2,467.3,313.6,482.4,323.1z"/>
<path id="X81B540M2Gra8OT4" class="st0" d="M210.8,736.8c12.5-7.5,24.4-15.1,36.1-23.1c52.4-36.4,97.6-79.8,131.6-134.2
	c24.5-39.1,40.9-81.3,47.1-127.2c0.7-5.4,1.2-10.9,1.7-16.5c5,1.5,9.9,2.8,14.7,4.3c6.2,1.9,6.8,2.7,5.9,9.3
	c-3.5,27.2-10.2,53.6-21,78.8c-20.1,46.9-50.1,86.7-87.2,121.6c-37.4,35.2-79.9,62.9-125.3,86.6C213.4,737.1,212,737.3,210.8,736.8z
	"/>
<path id="X9205D3M1Gra3OT26" class="st0" d="M280.8,171.1l-24.9,2.7l-0.1,1l17.9,3.9c-14.1,6.8-28.2,7.9-42.3,8.4
	c15.8,2.5,31.9,1.1,47-3.9c-5.6,8-12.1,15.2-19.5,21.5c9-5,16.2-12.2,23.6-19.3c-4.4,10.2-11.3,19.1-20.1,25.9
	c-8.8,6.8-18.2,12.3-29.2,14.5c-19.1,3.8-30.6-7.9-26.4-27c1.9-8.6,4.1-17.2,2.6-26.1c-0.6-3.3-1.4-6.5-2.5-9.6
	c-5.4-15.3,4-29.1,20.4-29.8c9.9-0.4,19,2.9,27.6,7.4c9.5,5,18.3,11,24.3,20.2c0.3,0.5,0.9,1,0.3,2.1c-11.1-5.4-22.8-9.5-34.9-12.2
	C256.4,157.1,269.6,161.1,280.8,171.1z"/>
<path id="X99FF33M1Color21_1_" class="st0" d="M189,716.1c-28.1-0.5-51-9.3-72.5-22.9c-1.7-1.1-2.6-1.9-0.3-3.5
	c19.7-13.9,40.9-23.8,65.8-22.1c21.9,1.6,39.8,11.9,54.7,27.8c1.7,1.8,1.4,2.8-0.4,4.3c-8.9,7.8-19.4,12.2-30.8,14.5
	C199.3,715.4,193,716.3,189,716.1z"/>
<path id="X66FF00M2Gra3Co13_1_" class="st0" d="M449.6,250.4c-8.1-18.4-10.6-37.6-8.4-57.4c2.1-18.5,8-35.6,19.6-50.5
	c13.3-17,30.9-26.4,52.2-28.9c8.5-0.9,15,3,15.6,9.6c0.4,4.4-1.2,8.5-3.5,12.2c-6.5,10.4-16.4,17.3-25.9,24.6
	c-9.8,7.4-20,14.3-29.2,22.5c-14.2,12.7-21.5,28.4-21.6,47.5C448.3,236.8,448.7,243.6,449.6,250.4z"/>
<path id="XFF00FFM1Color11_2_" class="st0" d="M164,117.2c12.1-0.1,19.2,7.3,24.5,16.9c5,9.2,4.7,18.6-1.5,27.3
	c-8.6,12.2-21.2,18.9-34.3,24.9c-5.8,2.9-12.1,4.8-18.5,5.7c-12.9,1.6-19.7-4.8-18.8-17.7c0.9-12.7,6.6-23.6,13.4-33.9
	c5.8-8.8,13.1-15.8,22.7-20.3C155.4,118.2,159.7,117.2,164,117.2z M179.5,129.1c-7.9-6.1-16.5-9-25.9-5.6
	c-13.9,5.2-20.8,17.1-26.9,29.6c8.3-10.8,16.2-22.3,31.5-24c-4.6,3.3-8.5,7.2-10.8,12.6C156.3,132.7,166.7,127.9,179.5,129.1
	L179.5,129.1z M156.5,176.4c18.7-5.4,35.9-21.7,28.4-39.8C182.6,155.3,171.5,166.6,156.5,176.4L156.5,176.4z"/>
<path id="XFF00FFM1Color11_1_" class="st0" d="M89.8,18.9c18.7,1.9,37.4,7,51,23.2c6.7,7.9,9.9,17.1,5.1,27.3
	c-5.1,10.9-13.3,18.5-25.7,19.6c-7.2,0.7-13.7-2.5-19.4-6.7C86.1,71.7,74.6,58.5,67.8,41.7C63.2,30.4,67.3,23,79,20
	C82.1,19.1,85.2,19.2,89.8,18.9z M138.8,72.3c3.8-5.5,4.7-15.7,2-22.3c-4.6-11.1-22.7-23-35.8-23.1c12.4,5.8,24.7,10.8,30,25.8
	c-4.8-3.8-8.6-7.2-14.6-8.5C134.7,56.8,135.6,58.2,138.8,72.3z M88,60.7c10.7,20,32.9,29.4,44,18.7C113.8,81.2,100.3,72.5,88,60.7z"
	/>
<path id="XFF00FFM1Color11" class="st0" d="M23.5,157.5c-2.8-0.2-5.7-0.3-8.5-0.7c-13.7-2.3-18.5-11.3-12.7-24.1
	c5.4-11.8,14-20.8,24.1-28.7c7.9-6.2,16.6-10.4,26.7-11.4c14.6-1.4,24.3,5.2,29.1,19.5c4.5,13.5,0.1,25.9-11.9,33.1
	C55.9,153.8,39.9,156.4,23.5,157.5z M76.6,109.7C67,96.5,55.3,93.3,40.8,99.6c-7,3-17.3,11.4-19.3,15.7
	c19.9-12.5,26.5-14.8,34.8-11.8c-5.4,1.4-10.2,4.3-14,8.4C53.4,106.2,64.7,104.1,76.6,109.7z M42.1,147.9
	c22.6-0.4,40.3-13.9,37-29.7C71.9,135,58.1,142.8,42.1,147.9z"/>
<path id="X66FF00M2Gra3Co13" class="st0" d="M286.4,291.5c-25.3-8.2-48.7,0.9-72.2,7.7c-17.8,5.1-35.6,9.7-54.4,8.4
	c-3.8-0.1-7.6-1.1-11-2.8c-5.8-3.1-6.5-7-2.2-12c5-5.9,11.7-9.4,18.5-12.3c40.7-17.7,80-13.8,118.1,7.8c1,0.6,1.9,1.3,2.8,2
	C286.1,290.4,286.1,290.8,286.4,291.5z"/>
<path id="XFFCC00M2Color2_2_" class="st0" d="M276.5,466.9c-16.1-0.4-28.9-13.7-28.5-29.8c0.4-16.1,13.7-28.9,29.8-28.5
	c0.3,0,0.6,0,0.9,0c15.8,0.6,28.5,13.8,28.1,29.2C306.5,454.7,293.2,467.5,276.5,466.9z M289.4,437.6c-0.1-6.5-5.6-11.7-12.1-11.6
	c-6.5,0.1-11.7,5.6-11.6,12.1c0.1,6.5,5.6,11.7,12.1,11.6c0,0,0.1,0,0.1,0C284.4,449.3,289.5,444,289.4,437.6L289.4,437.6z"/>
<path id="XFFCC00M2Color2_1_" class="st0" d="M550.3,339.5c0.1,15.1-12.1,27.4-27.2,27.4c-0.1,0-0.3,0-0.4,0
	c-15.2,0-27.6-12.3-27.7-27.6c0.2-15.4,12.7-27.8,28.1-27.9C538,311.6,550.3,324.2,550.3,339.5z M523.4,328.2
	c-6.1-0.6-11.6,4-12.1,10.1s4,11.6,10.1,12.1c0.2,0,0.4,0,0.7,0c6.1,0.4,11.4-4.2,11.8-10.3c0-0.2,0-0.3,0-0.5
	c0.3-6-4.3-11.2-10.3-11.5C523.5,328.2,523.5,328.2,523.4,328.2z"/>
<path id="X99FF33M1Color21" class="st0" d="M216.7,89.2c-9.7-3-18.6-8-26.3-14.5C169.9,56.8,165,32.8,177.1,8.5
	c1.9-3.7,3.6-9,8.6-8.5c4.7,0.5,5.3,5.7,6.7,9.6c2.9,8.2,3.9,16.9,4.6,25.4C198.8,54.8,203.6,73.3,216.7,89.2z"/>
<path id="XFFCC00M2Color2" class="st0" d="M311.2,143.4c13.5,0.2,24.4,11.4,24.1,24.9s-11.4,24.4-24.9,24.1
	c-13.4-0.2-24.2-11.1-24.1-24.6c0-13.5,10.9-24.5,24.5-24.5C310.9,143.4,311,143.4,311.2,143.4z M310.8,158.1
	c-5.4,0-9.7,4.3-9.8,9.6c0,0,0,0.1,0,0.1c0.1,5.6,4.6,10.1,10.1,10.1c5.4-0.3,9.6-4.6,9.8-10c0.1-5.4-4.3-9.8-9.7-9.9
	C311.1,158.1,310.9,158.1,310.8,158.1L310.8,158.1z"/>
<path id="X376600M2Color16_1_" class="st0" d="M232.9,126.2c-44.7-15.5-90.8-21.2-138.7-20c3.8-2.4,7.5-1.8,10.8-2.7
	c3.5-0.9,7.1-1.6,10.7-2.1c32.7-4.7,65.3-4.5,97.7,2.7c1.8,0.4,3.5,0.3,4.3,2.6C220.5,114.7,225.8,121.6,232.9,126.2z"/>
<path id="X376600M2Color16" class="st0" d="M400.5,284.7c-5.5-12.5-12.1-23.2-18.6-34.4c6.5,0.1,12.9-1.6,18.5-4.8
	c1.4-0.8,2.3-0.9,3.1,0.7c2.3,4.2,4.6,8.4,6.9,12.6c0.6,0.8,0.5,2-0.3,2.6C401.7,270.3,403.2,273,400.5,284.7z"/>
</svg>
