<?xml version="1.0" encoding="utf-8"?>
<!-- Generator: Adobe Illustrator 24.1.0, SVG Export Plug-In . SVG Version: 6.00 Build 0)  -->
<svg version="1.1" id="图层_1" xmlns="http://www.w3.org/2000/svg" xmlns:xlink="http://www.w3.org/1999/xlink" x="0px" y="0px"
	 viewBox="0 0 825.1 807.9" style="enable-background:new 0 0 825.1 807.9;" xml:space="preserve">
<style type="text/css">
	.st0{fill:#FFFFFF;stroke:#000000;stroke-miterlimit:10;}
</style>
<path id="X009E41M2Gra4OT27" class="st0" d="M655.1,0c7.3,1.7,14.8,2.1,21.8,5c31.2,12.8,41.8,45.4,27.6,76.2
	c-0.1,0.2-0.5,0.4-1.2,0.8c0.8-4.4,1.5-8.4,2.1-12.4c2.8-19.5-6.1-38.3-21.9-46.8c-18-9.7-39.1-7.6-53.5,5.5
	c-10.2,9.2-13.3,21.2-12.2,34.5s6.4,25,13.6,36.1c19.6,30.2,43.6,57.1,66.4,85.1c-1.6-15.5-2.9-30.8,0.7-46.4c1,2.7,1.9,5.4,2.9,8
	c3.4,8.4,8.3,15.9,12.8,23.7c3.4,6,6.5,12,7.8,18.8c1.3,6.2,0.3,12.1-3.6,17c-2.3,3-1.7,4.9,0.2,7.8c19,28.3,33,58.9,40.1,92.4
	c0.9,4.2,1.6,8.5,2.9,12.8c5.2-20.5,17.5-38.4,21.3-60.4c6,7.8,9.6,17.1,10.4,26.9c1.9,17.3-1.3,34.9-9.4,50.3
	c-4,7.6-9,14.5-17.9,17c-1.5,0.3-2.6,1.7-2.5,3.3c0.1,17-2.3,33.8-6.1,52.2c14.9-14.8,31.3-19.4,51.1-14.1
	c-16.6,8.8-25,24.4-36.4,37.2c-5.7,6.4-11.2,13.8-19.6,15.7c-7.6,1.8-10.1,6.3-12.7,12.4c-6.1,14.1-13.3,27.6-21.6,40.5
	c-0.4,0.7-1.1,1.3-0.3,2.5c7-1.9,14.1-3.2,21.3-4.1c45.9-4.3,76.5,26.5,83.6,66.6c0.8,4.6,0.5,9.3,2.1,13.7v9
	c-1.7,9.3-2.3,18.8-4.9,27.9c-4.3,14.7-11,28.7-19.8,41.3c-0.5,0.7-0.8,1.4-2,1.6c1.1-4.9,2.4-9.7,3.2-14.5c3-19,2.8-37.8-4.4-56.1
	c-12-30.3-42.5-46.6-74.4-39.7c-15.2,3.3-29.6,9.5-42.4,18.3c-14.3,9.7-27.6,20.9-42.6,28.7c-0.4,1.5,0.3,1.8,0.9,2
	c27.6,9.2,41.7,29.7,46.7,57.2c5,27.8,0.4,54.8-8.2,81.2s-21.1,50.7-40.5,71c-0.8,0.8-1.2,2-3.2,2c5.1-9.2,9.5-18.7,13.3-28.5
	c11.4-30.5,17.4-61.6,11-94.1c-7.9-39.8-33-63.8-73.1-70.3c-1.1-0.2-2.3,0.1-3.4-1.4c6.4-4.5,12.9-8.9,19.1-13.5
	c33.4-24.7,61.5-54.1,80-91.8c15.5-31.7,21.9-65.2,20.3-100.3c-0.9-19.5-4-38.8-9.2-57.6c-0.8-2.8-1.4-4.7-5.2-4.4
	c-5,0.4-8.7-2.9-12.2-6.1c-9.2-8.4-15.9-18.8-22.8-29c-4.8-7.2-9.6-14.4-14.3-21.7c-0.5-0.8-1.7-1.4-1.2-2.5
	c0.6-1.4,2.1-0.7,3.1-0.8c12.3-0.2,22.1,5.4,30.8,13.3c1.2,1.1,2.4,2.3,3.6,3.5c0.2,0.2,0.6,0.1,1.5,0.2
	c-23.9-55.6-57.9-104.1-97-150.1c17.6,6.8,73,65.9,97.8,104.4C702,298,720.4,341.9,728.6,390c1.6-9.8,2.3-19.8,2-29.8
	c-0.4-44.4-14.3-84.7-37.6-122.1c-15.1-24.2-33.4-46.2-50.2-69.1c-15.9-21.6-31.7-43.4-42.4-68.2c-8-18.7-10.8-38.2-4.5-58.1
	c7.9-25,25.8-38.3,51.5-41.7c1.6-0.2,3.4,0.2,4.8-1L655.1,0z"/>
<path id="XE79CFFM2Gra4OT16" class="st0" d="M557.9,473.9c0,4.6-2.3,7.5-6.4,9c-4.5,1.7-9.2,1.6-13.8,1.5c-4-0.2-8,0.1-11.9,0.8
	c-5.1,1.2-8.4,4.2-9.7,10.2c14.2-8.9,29.2-6.9,44.1-6c12.5,0.7,24.9,2.7,37.4,2.5c5.5,0,11-0.2,15.8-3.9c-0.5,3-2.7,4.2-5.1,5.2
	c-4.8,2.1-10,2.5-15.2,2.6c-15.9,0.5-31.6-1.3-47.4-2.1c-7.5-0.3-15-0.5-22.4,1.1c-4.7,1-5,1.8-2.1,5.8c2.5,3.5,3,7,0.6,10.7
	c-2.6,4-6.4,6.5-11,5.1c-3.5-1.1-4.9,0.2-7,2.5c-21,23-46.9,33.4-78.1,29c-19.5-2.8-36.9,2.3-53.2,12.7c-2.8,1.8-5.8,3.3-8.9,4.5
	c-3.1,1.2-6.6,1.9-9.4-0.8s-2.4-6.1-1.5-9.4c1.1-3.7,2.8-7.2,5-10.3c10.6-14.8,25.5-23.6,42-30.1c1.5-0.6,3.3-0.5,5-2.9
	c-3.4,0.2-6.2,0.4-9,0.6c-30.7,2.6-61.4,5.6-92.3,3.8c-7.5-0.4-15-0.9-22.1-3.7c-6.6-2.6-7.6-6.4-3.1-11.7
	c11.6-13.5,11.5-21.7-0.1-35.3c-0.5-0.6-1.3-1.1-1-2.4c2-0.8,4,0.2,6.1,0.3c4,0.3,8-0.6,11.5-2.7c5.1-3.3,5.9-10.7,1.6-15.8
	c-3.5-4.2-8.3-6.7-13.1-8.9c-5.6-2.6-11.3-4.9-16.9-7.5c-2.1-1-4.1-2.2-5.9-3.7c-1.8-1.4-3.1-3.1-2.3-5.6c0.8-2.5,2.9-3.5,5.4-3.7
	c3.5-0.2,7,0.2,10.4,1.3c9.5,3,18.9,6.4,28.5,9.2c16.8,4.9,32.2-3.4,37.5-20c0.7-2.3,0.9-4.5,4.4-3.9c11.7,1.9,20.4-3.1,27.2-12.1
	c1.3-1.7,2.3-2.8,4.9-2.3c9.1,1.7,15.1-1.2,19.8-9.7c1.5-2.6,2.9-3.8,6.1-3.8c6-0.1,9.3-4.6,12.4-9c4.1-5.9,7.2-12.4,12.1-17.7
	c4.7-5.1,10.3-8.4,17.3-8.8c2.7-0.1,3.7-0.6,3.4-3.8c-0.9-9.4,6.2-15.8,15.6-14.3c2.6,0.4,3-0.2,3.4-2.6c1-6.9,4.8-9.9,11.7-9.2
	c2.6,0.2,3-0.2,2.9-2.8c-0.1-5.2,2.3-7.2,7.6-6.2c2.6,0.5,2.6-0.3,2.6-2.5c0.1-6.6,3.1-9.7,9.8-10.2c2.7-0.2,3.5-0.9,3.2-3.5
	c-1.2-12.4,8.6-19.5,21.6-15.9c19.9,5.5,31.4,19.9,38,38.6c6.8,19.4,4.9,38.8-1.6,57.8c-14.8,43.5-36.6,83.5-63.2,120.9
	c-2.6,3.7-5.5,7.1-8.5,10.4c-2.4,2.5-1.8,3.5,1.2,4.2c1.3,0.3,2.6,0.7,3.8,1.2c4.2,1.7,8.4,4.6,11.5-1.7c0.5-1,2.2-1.5,3.5-1.8
	c2.3-0.5,3.2-1.5,3.8-3.9c1.9-7.9,6.9-12.4,15.1-12.8c5.2-0.2,10.3-0.3,15.5-0.3C550.2,480.4,555.2,479.7,557.9,473.9z M475.9,499
	c2.2-0.2,2.7-1.4,3.5-2.2c10.8-12.5,19.7-26.4,28-40.7c12.6-21.5,23.9-43.5,30-67.8c1.7-6.5,2.5-13.1,2.2-19.8
	c-0.1-2.6-0.8-3.6-3.6-2.3c-3.3,1.7-7.3,1.8-10.6,0.1c-2.6-1.4-3.7-0.6-5.1,1.6c-2,3-5,4.6-8.6,3.7c-2.5-0.6-3.6,0.2-4.5,2.5
	c-1.9,4.4-5.1,7.8-10,7.8c-4,0-4.6,1.6-4.6,5c0,5.1-0.6,10.2-6.7,12c-2,0.6-1.2,2.4-1.3,3.9c-0.4,5.3-1,10.9-6.1,13.5
	c-6.2,3.1-6.6,8.4-6.4,13.9c0.2,4.4,0.9,8.7,2.2,12.9C479.2,461.3,481.9,479.7,475.9,499z M474.7,475.9
	c-1.3-22.8-13.2-41.6-28.5-58.9c-0.7-0.8-1.6-1.6-2.5-0.5c-5.1,6.9-13,7.4-20.5,8.8c-2.2,0.4-2.6,1.2-1.7,3.4
	c3.4,7.8,6.4,15.7,9.7,23.5c7.6,17.7,18.1,33.2,34.1,44.6c2.6,1.8,3.8,1.7,5.1-1.3C473.2,489.5,474.2,483.4,474.7,475.9L474.7,475.9
	z M464.3,500.9c-0.7-0.9-1.5-1.8-2.3-2.6c-11.5-8-21.1-18.5-28.3-30.6c-6.7-11.4-17.3-16.5-28.5-21.4c-1.2-0.5-2.6-1.2-3.2,0.8
	c-2.8,8.5-10.4,10.8-17.5,13.4c-8.9,3.2-9.2,3.6-2.1,10.3c0.9,0.8,1.7,1.6,2.6,2.3c8.1,6.4,17.4,10.4,26.9,14
	C428.5,493.4,445.7,497.4,464.3,500.9z M451.3,502.1c-29.7-5.9-59.2-11.6-82.2-34.8c-0.5,9.5-6,14.6-12.4,19.3
	c-6.2,4.5-13,8.2-17.9,14.3c-1.1,1.5-3.3,3.1-2.3,5.1c1,2,3.3,0.9,5,0.9c33,0.1,65.9-2.7,98.8-4.2
	C444.1,502.5,447.7,502.3,451.3,502.1L451.3,502.1z M329.1,428.4c0.5,0.9,1.4,1.4,2.3,1.3c11.1,1.2,21.9,3.7,32,8.9
	c2.6,1.2,5.4,1.7,8.3,1.5c8.2-0.4,12.1-7.1,8.3-14.4c-1.3-2.3-3-4.4-5-6.2c-6.7-6.2-14.8-9.4-23.5-11.4c-4.3-1-7.7-1.2-8.9,4.5
	c-0.5,2.3-2.4,4.3-3.8,6.4C336.3,422.9,332.4,425.5,329.1,428.4z M358.1,405.9c10.2,3.4,17,9.5,24.1,15.1c3.5,2.8,7,5.6,11.5,6.9
	c3.8,1,7.3,0.8,10.1-2.2s3.3-6.4,2.2-10.2c-1.1-4-3.8-7-6.8-9.6c-6.5-5.6-14-9.5-21.7-13.1c-2-0.9-3.1-0.4-4.2,1.2
	C369.8,399.1,365,402.9,358.1,405.9L358.1,405.9z M384.9,392.3c10.7,5.4,18.9,12.6,27.5,19.3c4.2,3.3,8.7,1.6,10.8-3.4
	c2.4-6.1,0.5-13-4.6-17.1c-4.8-3.8-9.9-7.2-14.9-10.8c-1.3-0.9-2.6-1.9-3.7,0.2C397,386.4,391.9,389.8,384.9,392.3L384.9,392.3z
	 M368.2,546.1c0.7-0.1,1.1,0,1.3-0.1c15-13.5,33.4-19.6,52.4-24.3c20.4-5.1,41.5-5.6,62.2-8.8c4.3-0.7,8.5-1.5,12.8-2.3
	c1-0.2,2-0.7,1.7-2c-0.2-1-1.2-1-2-1.1c-1.3-0.1-2.7-0.2-4-0.2c-12.8,0-25.6,0.8-38.3,2.5c-24.6,3.3-48.2,9.7-69.9,22.3
	C378.3,535.8,372.5,539.9,368.2,546.1z M293.5,465c12.4,2,24.6,3.3,36.8,1.2c3-0.5,6.2-1.4,6.8-4.9c0.6-3.3-2.3-5-4.7-6.4
	c-8.9-5.2-19-6.9-28.8-9.5c-2-0.5-2.3,0.5-1.9,2.2C304,455.6,300.9,461.2,293.5,465z M284.3,467.6c5.3,8.2,9.3,15.6,4.6,24.6
	c-0.8,1.5,0.6,2,1.9,2c5.2,0.1,10.3,0.2,15.4-1c5.9-1.5,9-5,9.5-10.2c0.5-5.4-1.8-9.1-7.5-11.6C300.8,468.1,292.9,468.2,284.3,467.6
	L284.3,467.6z M311.4,444.4c8.2,3,16.6,5.3,25.2,7c5,1,10.2,1.3,15.4,0.8c3-0.4,5.5-1.6,6.3-4.8s-1.2-5-3.2-6.8
	c-1.2-0.9-2.5-1.7-3.9-2.2c-7.5-3.3-15.6-4.2-23.7-5.3c-1.2-0.2-2.5-0.2-3,1C322.4,439.6,317.5,441.8,311.4,444.4L311.4,444.4z
	 M427.4,389.7c5.9,0.1,9.3-2.6,11.4-6.9c1.9-4,0.1-7.5-2.7-10.3c-3.8-3.9-8.5-6.2-13.3-8.6c-1.8-0.9-2.8-0.3-3.6,1.3
	c-2.5,5.1-6.8,9.2-12,11.4c-1.3,0.6-2.1,1.5-0.6,2.5C413.4,383.4,419.7,388.7,427.4,389.7L427.4,389.7z M533.6,353.1
	c-0.4-12.6-11.4-28.8-23.1-34.2c-2.1-1-2.9-0.9-2.9,1.8c0,12.5,11.7,29.7,23.4,34.4C533.3,356,534,355.5,533.6,353.1L533.6,353.1z
	 M543.1,359.3c12.8-11.2,12.5-46,4.5-59.1C545.8,319.9,539.6,338.8,543.1,359.3L543.1,359.3z M479.7,403.3
	c0.2-7-10.3-20.5-17.3-22.2c-4.2-1-6.9,1.2-6.7,5.5c0.2,7,9.8,19.4,16.8,21.6C476.6,409.4,479.6,407.3,479.7,403.3L479.7,403.3z
	 M452.2,372.2c3.8,0,6-2.6,5.5-6.3c-0.9-6.8-11-17.6-17.7-18.9c-4.6-0.9-7.5,1.9-6.5,6.5c1.3,5.8,4.9,10.1,9.3,13.8
	C445.6,369.6,448.5,371.8,452.2,372.2L452.2,372.2z M476.6,344.4c0-6.5-8.4-16.1-14.9-17.1c-3.3-0.6-6.4,1.5-7,4.7
	c-0.1,0.5-0.1,1-0.1,1.6c0.2,6.3,8.5,15.7,14.7,16.7C473.6,351,476.6,348.5,476.6,344.4L476.6,344.4z M540,323.2
	c-0.1-10.6-7.1-20.8-15.6-23.6c-1.7-0.5-3.8-1.3-3,1.7c2.3,8.5,3.9,17.2,9.2,24.6c1.9,2.6,3.7,7.5,6.5,6.4
	C540.2,331.1,539.7,326,540,323.2L540,323.2z M471.5,367.1c-2.8,0.1-4.4,2-4.2,5.5c0.5,6.5,9.5,16.7,15.8,17.9
	c3.5,0.7,5.5-1,5.9-4.4C489.8,379.8,478.6,367.3,471.5,367.1L471.5,367.1z M499.5,370.1c0.1-5.8-8.2-17.9-13.6-19.7
	c-3.4-1.1-6,1-5.1,4.8c1.7,7.7,5.8,14.1,12.5,18.5C496.6,375.9,499.4,374.2,499.5,370.1L499.5,370.1z M514.1,358
	c-1.1-6.7-4.4-12.7-9.4-17.2c-1.4-1.2-3-2.3-5-1.4s-2.6,3.1-2.3,5.1c0.9,7,4.2,13.4,9.3,18.2c1.4,1.4,3.3,2.5,5.4,1.4
	C514.3,362.9,514.2,360.9,514.1,358z M518.1,273c-2.3,0-4.1,0.4-5,2.3c-0.7,1.6-0.4,3.4,0.9,4.6c4.7,5.2,11.2,8.4,18.2,9.1
	c1.9,0.3,3.7-0.7,4.5-2.5c0.8-1.8-0.1-3.3-1.2-4.5C530.9,277.1,524.8,273.9,518.1,273z M473.6,320.9c0,4.5,6.1,11,10.5,11.4
	c2.7,0.3,5.2-1.7,5.5-4.5c0.1-0.5,0-1.1-0.1-1.6c-0.7-4.2-5.4-9.2-9.5-10.2C476.4,315.2,473.6,317.2,473.6,320.9L473.6,320.9z
	 M427,452.9c-2.6-7.9-5.9-15.5-9.9-22.9c-0.7,6.2-3.9,10.3-10,12.5c3.7,1.8,6.8,3.2,9.8,4.8S422.9,450.6,427,452.9L427,452.9z
	 M507.4,306.4c1.5,0,3.4-1.2,3.6-4c0.3-3.3-5.3-8.7-9-8.9c-2.7-0.1-4.6,1.1-4.8,4C497,300.9,502.4,306.1,507.4,306.4L507.4,306.4z
	 M270.4,419.7c-1.8,0.2-3.6,0-4.5,1.8c-0.4,1-0.1,2.1,0.7,2.7c3.8,3.5,8.9,5.4,14,5.2c1.2,0,2.3-0.7,2.7-1.9c0.2-1.2-0.3-2.4-1.3-3
	C278.7,421.5,274.5,420.4,270.4,419.7L270.4,419.7z M555.1,358.4c0-1.3,0.1-2.9-1.3-3.6c-1.5-0.8-2.4,0.7-3.3,1.6
	c-3.1,2.8-5.2,6.6-5.9,10.8c-0.2,1-0.6,2,0.2,2.8c0.9,0.8,1.9,0.3,2.8,0C551.7,368.5,555.2,363,555.1,358.4z M498,314
	c0-3.2-5.1-8.2-7.9-8.1c-2.2,0.1-3.2,1.5-3.2,3.6c0,3.3,4.6,8,7.8,7.8c1.8,0.1,3.3-1.3,3.4-3.1C498,314.1,498,314,498,314z"/>
<path id="XB6D21FM2Gra6OT29" class="st0" d="M201.1,633.3c-6.8-7.2-13.4-14.4-18.8-22.7c-15.4-23.7-18.6-49.5-12.4-76.7
	c4.5-19.9,13.4-37.9,24.1-55.1c0.5-0.8,1.2-1.3,2-1.6c-2.8,8.3-5.7,16.6-8.3,24.9c-4.6,14.7-8.1,29.6-8.4,45
	c-0.6,27.6,8.2,51.7,27.9,71.5c19.3,19.4,41.4,34,69.3,37.8c12.8,1.9,25.9-0.8,36.9-7.7c18.6-11.4,38.7-18.5,60.5-20.3
	c12.6-1.1,25,0,36.5,5.8c2.4,1.2,4.6,2.7,6.7,4.3c3.2,2.4,7.4,5.1,7.9,8.7c0.5,4.1-5.1,4.6-8,6.6c-22.5,15.2-42.5,33.2-61.1,52.9
	c-8.4,8.9-18.2,13.6-30.4,13.9c-8.1,0.2-16.4-0.2-24.1,3.2c-2.3,1-2.9-0.6-3.3-2.3c-3.2-12.5-9.7-24.2-10.2-37.5
	c-0.1-3.1-2.4-2.7-4.4-2.7c-11.7,0.2-23.3-0.6-34.9-2.2c-38.2-5.6-69.4-24.1-96.4-50.8c-20-19.8-37.6-41.9-57.4-61.9
	c-1.2-1.2-2.4-2.3-3.5-3.6c-3.1-3.4-5.5-6.4-10.5-1.3c-3.6,3.8-9.4,2.2-14.3,1c-6.4-1.7-12.5-4.7-19.3-4.8c-2.3,0-1.8-1.3-1.1-2.6
	c3.8-6.4,9-11.1,16.7-12.3c0.9-0.1,2.1,0.3,2.6-0.8c-11.1-8.4-27.2-8.4-36.1-3.2c-12.7,7.5-19.3,22.3-16.2,36.8
	C17.9,597.6,34,604,55,603.5c-4.2,2.5-10.6,3.1-18.2,2.1c-27.1-3.6-42.6-32-32-58.9c10.2-26,38.3-36.4,66.4-24.6
	c16.3,6.9,28.9,18.7,41.5,30.7c18.1,17.3,33.7,36.9,51.7,54.2C175.3,617.6,187.1,626.8,201.1,633.3z"/>
<path id="XE79CFFM2Gra6OT17" class="st0" d="M357.4,264c16.7,0.7,31.3,7.4,45,16.2c16.3,10.6,30,24.6,40.1,41.2
	c2.7,4.3,0,8,0.1,11.9c0,0.8-1.3,0.9-2.1,1c-9.7,1-15.8,7.2-21.1,14.6c-3.8,5.3-7.3,10.7-11.2,15.9c-2.5,3.3-5.8,5.2-10,2.9
	c-2.2-1.2-2.9-0.2-3.5,1.8c-0.9,2.9-2.3,5.6-4.2,7.9c-4.5,5.8-9.6,7.3-16.3,4.2c-3-1.4-4.1-0.9-5.6,2c-6.1,12.3-14.8,16.6-28.7,14.2
	c-3.6-0.6-4.5,0.1-4.8,3.7c-1.2,13.6-11.8,22-25.4,20.9c-6.2-0.5-12-2.8-17.7-5c-5.7-2.2-11.1-4.5-17.1-5.3c-2.3-0.3-1.6-1-1.6-3
	c0.1-6.1,5.4-7,8.2-10.3c4-4.6,7-8.5,14.1-7.1c3.2,0.6,5.8-3,7.2-6.1c1.1-2.4,2.4-2.7,4.7-1.9c5.2,1.8,10.1,0.8,14.8-2
	c5.8-3.4,5.9-3.7,2.8-9.6c-2.2-4.3-1.8-8.5,1.5-12c1.7-1.8,2.1-3.1,0.8-5.5c-1.8-3.4-0.6-6.8,2.7-8.6c2.2-1.3,3.2-2.2,2.5-4.9
	c-0.8-3.2,0.7-6,3.6-7.5c2.1-1.1,1.9-2.1,0.9-3.9c-3.4-6.5-2.8-9.3,3-13.6c1.9-1.4,1.8-2.2,0.8-4c-2.3-4.1-1.3-7.8,2.3-10.6
	c1.8-1.4,2.6-2.1,0.8-4.2c-2.6-2.9-2.5-6.2,0.2-9c2-2.1,1.6-3.5,0-5.6c-0.9-1.4-1.6-2.9-2-4.5c-2.2-6.8,0-10.9,6.7-13
	C351.8,264,354.6,264.1,357.4,264z"/>
<path id="XB6D21FM2Gra4OT28_2_" class="st0" d="M512.5,692.9c-0.3,17.5-2.8,31.8-8.1,45.7c-3.6,9.6-10,15.3-20.4,16.7
	c-7.4,1-14.9,1.6-22.4,2.1c-8.5,0.4-16.9,1.8-25,4.2c-1.4,0.5-2.9,1.3-4.1-0.2c-5.6-6.9-13.9-8.9-21.5-11.9
	c-6.7-2.6-13.4-5-19.7-8.5c-4.5-2.5-8.6-5.8-12.1-9.5c-5-5.2-5.7-11-2.9-17.5c4.3-9.8,11.1-17.8,18.5-25.2
	c14.3-14.3,29.6-27.4,48.8-34.8c14.6-5.6,29.6-7.2,44.3-0.7C506,661.4,513.5,676.2,512.5,692.9z"/>
<path id="XB6D21FM2Gra3OT28_2_" class="st0" d="M639.3,706.1c-0.3,9.9-2.1,19.6-5.5,28.9c-0.8,2.3-1.8,3.6-4.6,3.3
	c-16.5-2-33.3-1.7-49.8-4.2c-32.7-4.9-49.9-20.2-58-52.2c-2.4-10-4.1-20.3-5-30.6c-0.3-2.9,0.5-3.8,3.4-4.7
	c12.4-3.6,22.8-10,29.3-21.7c0.6-1.4,2-2.2,3.5-2c40.9,2.7,79.6,30.8,85.6,72.2C638.8,698.8,639,702.5,639.3,706.1z"/>
<path id="X009E41M2Gra8OT27" class="st0" d="M621.7,363.5c14.8,23,26.7,46.3,34.6,71.8c2.9-9.7,9.7-17.6,11-29
	c4.8,6.8,8.1,14.5,9.6,22.7c3.3,16.1-0.5,30.1-12.8,41.3c-1.5,1.4-2.2,3.3-2,5.3c1.1,48.7-22.1,84.5-59.8,112.5
	c-10.6,7.9-21.8,14.9-34.2,19.5c-4.4,1.7-9.1,2.3-13.8,1.7c-5.5-0.9-7.4-5.1-4.8-10c1.8-3.4,4.8-5.5,7.8-7.6
	c13.7-9.5,27.4-18.9,40.8-28.8c38.2-28.2,49.7-67.2,46.1-112.3c-2.1-27.4-11.1-53.3-20.5-79c-0.7-2-1.5-4.1-2.2-6.1
	C621.5,364.8,621.6,364.1,621.7,363.5z"/>
<path id="XB6D21FM2Gra3OT28_1_" class="st0" d="M393.4,616.2c-14-1.6-26.6-0.2-39.1,2.6c-21,4.7-40.9,11.9-58.3,25
	c-2.2,1.7-4.4,1.8-7,1.4c-19.7-3.4-34.6-14.8-48.3-28.4c-5.7-5.7-5.7-5.8,1.6-9.9c26-14.5,53.6-22.8,83.7-20.8
	c20.3,1.3,39.3,6.9,56.3,18.6C386.8,607.6,390.6,611.6,393.4,616.2z"/>
<path id="XB6D21FM2Gra3OT28" class="st0" d="M475.3,641.3c-18.6-0.2-36.9-2.4-53.9-10.8c-5-2.4-9.4-5.7-13-9.9
	c-4.3-5.1-4.2-6.7,0.8-11.1c6.6-5.7,14.5-9.6,23.1-11.3c29.2-6.4,57.9-5.2,85.6,7c6.2,2.6,11.6,6.6,16,11.7c2.1,2.4,2.2,4.3,0.1,6.9
	c-7.1,8.4-16.8,11.7-26.9,14.2C496.7,640.4,486,641.6,475.3,641.3z"/>
<path id="XF37FFFM2Gra4OT20_5_" class="st0" d="M132.1,745.3c-9.4-0.5-17.5-2-25.7-0.7c-1,0.2-2.1,0.2-2.7-0.7
	c-4.4-6-11.5-8.4-17.5-12.2c-3.4-2.1-6.5-4.6-9.3-7.5c-5.6-6-5.8-10.8-0.3-17c2.6-3,5.5-5.8,8.5-8.3c7.9-6.5,16.7-11.7,26.2-15.5
	c12.4-4.8,25-6.3,36.8,1.6c7.7,5.1,11.3,12.7,10.5,21.8c-1,10-3.9,19.7-8.6,28.5C146.1,743.5,139.7,746.6,132.1,745.3z"/>
<path id="XF37FFFM2Gra4OT20_4_" class="st0" d="M233.8,723.8c-0.3,7.9-2.3,15.5-6,22.5c-1,2-2.1,3.1-4.7,2.6
	c-12.4-2.5-24.8-5.1-35.8-12c-6.7-4.1-11.9-10.4-14.6-17.8c-4.2-11.1-5.3-23.1-10.2-33.9c-0.9-2.1,0.5-2.1,2-2.3
	c8.1-1,15.6-3.6,21.4-9.7c0.9-1,2.3-1.3,3.6-0.9C211.6,677.9,233.2,696.3,233.8,723.8z"/>
<path id="XB6D21FM2Gra4OT28_1_" class="st0" d="M427.2,555.6c7.4-0.2,14.7,0.2,21.6,3.1c9.8,4.2,12.9,17.3,6.1,25.6
	c-1,1.3-2.6,2-4.2,2c-18.6,1.1-35.8,6.9-51.9,16c-2.2,1.3-3.3,1.1-5-0.5c-10.2-9.4-22.1-15.8-35.2-20.2c-1.4-0.5-4,0.2-4.1-1.9
	c-0.1-1.6,2.1-2.3,3.5-3.3c9.5-6.7,20.1-11,31.1-14.4C401.4,558.2,414.2,556,427.2,555.6z"/>
<path id="XF37FFFM2Gra4OT20_3_" class="st0" d="M47.4,709.4c-6.5,0-12.6-2-18.8-0.7c-1.9,0.4-2-1.2-2.2-2.6
	c-0.9-5.4-1.8-10.8-2.8-16.2c-1.3-7.2,0.9-13.4,6.7-17.7c19.8-14.8,41.6-18.3,65.1-10.8c5.8,1.9,10.7,5.8,13.8,11.1
	c1.3,2,1,3.1-1.4,4c-16.4,6.8-31.1,16.6-45.1,27.3C58,707.4,53,709.7,47.4,709.4z"/>
<path id="X7FF9FFM2Gra2OT7" class="st0" d="M244.4,486.7c5.2-9.3,5.2-9.4-0.9-16.8c-0.9-1-1.1-2.4-0.6-3.6c2.6-10.2-0.1-17-9-23.1
	c-8.9-6.1-19.3-8.8-29.4-12.2c-6.5-2.2-13-4-18.9-7.7c-3.7-2.3-6.2-5.1-4.3-9.9c1.6-4,5.3-5.6,10.4-4c9.9,3,17.9,9.4,26.5,14.8
	c7.7,4.9,15.1,10.4,24.1,13c7.1,2.1,10.6,0.6,13.6-6.1c0.8-1.8,1.1-2.8,3.4-1.7c7.1,3.6,14.4,6.8,21.6,10.3
	c3.8,1.7,7.3,4.1,10.2,7.1c4.5,5.1,2.9,10.3-3.7,12c-4.7,1.2-9.6,1-14.4,0.5c-1.2-0.1-2.6-0.8-4,0.5c2.6,3.6,5.3,7.1,7.8,10.8
	c2.7,4,4.6,8.5,5.6,13.3c0.7,3.3-0.1,6.8-2.1,9.5c-2,2.9-3.9,4.3-7.7,1.7C264.4,489.4,254.5,486.5,244.4,486.7z M198.6,424.9
	c1.9,0,3.3-0.4,4-2c0.7-1.5-0.1-2.6-1-3.6c-2.7-2.9-6.5-4.7-10.5-5c-1.5-0.3-3.1,0.5-3.7,1.9c-0.7,1.5,0.2,2.6,1.1,3.5
	C191.1,422.6,194.7,424.5,198.6,424.9z"/>
<path id="XB6D21FM2Gra4OT28" class="st0" d="M509.1,555.5c13.7,0.1,26.8,2.8,38.5,10.3c0.8,0.5,1.7,1.1,2.5,1.7
	c10.7,8.2,10.7,9-0.4,16.5c-5.7,3.9-11.2,7.9-11.9,15.7c-0.3,3.2-2.4,1.1-3.5,0.4c-8.8-5.4-18.3-9.7-28.2-12.7
	c-10.7-3.1-21.9-4.6-33.1-4.4c-4.9,0-5.7-2-4.9-6c1.4-7.5,6.3-12.4,12.8-15.7C489.9,557,499.3,555.3,509.1,555.5z"/>
<path id="XF37FFFM2Gra4OT20_2_" class="st0" d="M95,652.6c-21.8-3.5-42.2-1.9-61.6,7.3c-1.8,0.9-3.9,1-5.8,0.3
	c-12-4.3-20-13.4-27-23.5c-1.4-2.1,0.3-2.5,1.7-3.1c22.6-8.8,45.2-10.4,68-0.9c6.5,2.6,12.5,6.4,17.7,11
	C90.7,646.2,93.2,648.8,95,652.6z"/>
<path id="XF37FFFM2Gra4OT20_1_" class="st0" d="M128.9,646.6c14,0.8,27.4,3.5,38.9,12.1c2.8,2.1,6.6,4.5,5.9,8
	c-0.7,3.8-5.2,5-8.7,5.7c-17.6,3.5-36-0.1-51-9.9c-3.2-2.1-7-5.1-6.2-8.9c0.8-3.8,5.6-4.7,9.3-5.6
	C120.9,647,124.9,646.5,128.9,646.6z"/>
<path id="XF37FFFM2Gra4OT20" class="st0" d="M109.8,619c7-0.3,14,0.8,20.5,3.3c6.2,2.5,8.6,8,6,13.7c-1.4,3.1-3.1,4.7-7.2,4.3
	c-9.4-1-18.5,1.6-27.3,4.8c-1.6,0.6-2.8,1.3-4.3-0.5c-5.9-6.6-13.1-11.9-21.1-15.5c-0.8-0.4-2.2-0.5-1.9-1.8
	c0.2-1.1,1.4-1.3,2.3-1.7C84,621.7,97.3,619.1,109.8,619z"/>
<path id="X81B540M2Gra5OT4_3_" class="st0" d="M131.6,500.6c0.8,18.4,8.5,33.3,13.9,48.9c1.7,4.7,3.2,9.5,4.3,14.3
	c0.7,3.1,1.5,7-2.1,9.1c-3.3,1.9-6.2-0.3-8.7-2c-8.9-6.2-14.3-14.9-16.9-25.2C118.1,529.7,122.1,515.3,131.6,500.6z"/>
<path id="X81B540M2Gra5OT4_2_" class="st0" d="M11.3,498.7c20.4-15.7,52.7-11.1,66.6,8.4c2,2.5,3.3,5.4,4,8.5
	c0.8,4.8-2.2,7.3-6.8,5.7c-2.2-0.8-4.3-1.8-6.3-2.9C51.2,508.4,33.5,498.8,11.3,498.7z"/>
<path id="X81B540M2Gra5OT4_1_" class="st0" d="M222,546.1c-5.6,9.3-6.7,19-8.8,28.3c-1.5,6.7-2.6,13.4-5.5,19.6
	c-1.2,2.6-2.6,5.5-5.8,5.5c-3.3,0-4.8-2.8-6.1-5.2c-8.1-14.5-2.6-34.4,11.7-42.8C212,548.9,216.9,547,222,546.1z"/>
<path id="X81B540M2Gra5OT4" class="st0" d="M171.7,476.9c0.9-6.5,1.8-12.3,2.5-18c0.2-2,1.1-2,2.7-1.5c10,2.8,15.5,19.3,9.2,27.6
	c-1.6,2.2-3.8,3.4-6.5,2.8c-3.2-0.8-6-2.2-7.1-5.7C172.1,480.4,171.8,478.6,171.7,476.9z"/>
<path id="X2382D6M2Gra6OT13_3_" class="st0" d="M497.5,462.8c2.1-6.3,4-12.1,5.9-17.9c6.7-20.1,12.4-40.5,20.5-60.1
	c0.4-1.1,0.8-2.2,1.4-3.2c1-1.6,1.3-4.8,3.5-4.2c2.7,0.7,2.1,3.9,1.8,6.1c-0.9,7.3-3.4,14.2-5.9,21.1c-6.8,18.8-15.5,36.9-24.2,54.8
	C499.9,460.5,499.5,461.9,497.5,462.8z"/>
<path id="X2382D6M2Gra6OT13_2_" class="st0" d="M490.1,465.1c1-11.2,1.8-22.5,3-33.7c1.1-10.1,2.5-20.1,3.9-30.1
	c0.4-2.5,1-4.9,1.8-7.2c0.4-1.2,0.6-2.9,2.4-2.7s1.7,1.9,1.9,3.2c0.9,7.9-0.2,15.6-1.4,23.3c-2.4,15.3-5.6,30.4-9.7,45.3
	c-0.3,0.7-0.6,1.5-1,2.2L490.1,465.1z"/>
<path id="X2382D6M2Gra6OT13_1_" class="st0" d="M500,442.1c2.4-12.5,4.8-25.1,7.3-37.6c1.3-6.4,2.6-12.7,5-18.7c0.4-1,0.5-2.6,2-2.5
	c1.8,0.1,1.8,1.8,1.8,3c0.1,4.5-0.8,8.9-1.8,13.3c-2.9,13.7-7.7,26.8-12,40.1c-0.4,0.9-0.8,1.8-1.3,2.6L500,442.1z"/>
<path id="X2382D6M2Gra6OT13" class="st0" d="M486,442.8c-2-5.5-3-11.4-2.8-17.3c0-1.1,0.2-2.5,1.7-2.6s1.9,1.3,2,2.4
	C487.7,431.1,487.4,437,486,442.8z"/>
</svg>
