<?xml version="1.0" encoding="utf-8"?>
<!-- Generator: Adobe Illustrator 24.1.0, SVG Export Plug-In . SVG Version: 6.00 Build 0)  -->
<svg version="1.1" id="图层_1" xmlns="http://www.w3.org/2000/svg" xmlns:xlink="http://www.w3.org/1999/xlink" x="0px" y="0px"
	 viewBox="0 0 774.6 591.6" style="enable-background:new 0 0 774.6 591.6;" xml:space="preserve">
<style type="text/css">
	.st0{fill:#FFFFFF;stroke:#000000;stroke-miterlimit:10;}
</style>
<path id="X81B540M2Gra6OT4_3_" class="st0" d="M524,547.5c-13,4.6-26.2,8.5-39.6,11.6c-12.6,3-25.2,6-38,8.1
	c-7.5,1.2-13.7-2.3-20.2-4.5C392,551.2,359,537.2,328.4,518c-29-18.2-54.1-40.4-72.9-69.2c-13.3-20.2-22.9-42.6-28.4-66.1
	c-6.4-26.7-7.8-53.6-6.5-80.8c1.1-22.5,4.7-44.6,8.6-66.7c0.6-3.1,1.8-3.4,4.4-2.4c5.3,1.9,10.9,3.2,16.5,3.7
	c3.6,0.4,3.5,1.4,2.2,4.4c-11.2,26.4-17.9,54-18.5,82.7c-0.9,38.9,9,75.1,29.8,108.1c19.3,30.7,45.5,54.2,76.5,72.5
	c21.9,12.9,45.3,22.3,69.8,29c33,9.2,66.7,12.7,100.7,13.3c4,0.1,8-0.1,12-0.1C522.8,546.4,523.1,546.7,524,547.5z"/>
<path id="X66CC00M1Color23_3_" class="st0" d="M643.5,457.6c0.7,1.5-0.6,2-1.4,2.7c-23,21.5-49.8,29.2-80.9,24.4
	c-22.5-3.5-43.6-11.7-65.1-18.5c-18.7-6-37.5-11.8-57.5-10.4c-13.5,1-26,4.2-34.2,16.4c-4.6,6.8-6.2,14.6-6.3,22.7
	c0,1,0.3,2.2-1,2.5s-1.5-1-1.9-1.9c-7.7-16.1-10.1-32.9-5.9-50.4c3.9-15.8,14.7-24.5,29.5-28.8c25.7-7.5,50.1-1.8,73.8,8.5
	c19.5,8.5,38,19.2,57.2,28.1c17.7,8.2,35.9,15.3,55.9,15.1c12.7-0.2,24.7-2.9,35.6-9.8C642,457.6,642.6,456.9,643.5,457.6z"/>
<path id="X99FF33M1Color21_3_" class="st0" d="M228.9,406.4c-3.9-1.8-4.3-4.8-5.7-7.2c-15-25.4-30.9-50.1-51.6-71.4
	c-19.6-20.2-41.7-36.2-69.4-43.2c-16.8-4.3-34.4-4.8-51.5-1.4c-11.6,2.3-23.1,5-33.8,10.1c-0.6,0.3-1.3,0.3-2.3-0.8
	c3.5-3.7,6.8-7.7,10.5-11.3c12.9-12.4,26.6-23.6,43.7-30c23.3-8.8,45.5-5.9,66.5,6.7c19.4,11.6,33.9,28,46.8,46.3
	c14.5,20.5,25.5,42.8,34.7,66.1C221.5,381.9,224.8,393.9,228.9,406.4z"/>
<path id="X99FF33M1Color21_2_" class="st0" d="M345.1,269.4c-5.5,4.6-9.6,10-13.3,15.9c-8.3,12.9-13.1,27.1-16,42.1
	c-5.4,27.6-3.6,55.1,0.7,82.5c3.3,22.1,8.5,43.8,15.5,65c1.4,4.2,2.1,8.7,4.3,12.7c0.3,0.6,0.2,1.2-0.1,1.8c-0.8,0.9-1.4,0-2-0.6
	c-24.4-23.4-46.2-48.8-55.5-82.2c-8.9-32-5.2-62.5,12.8-91c12.8-20.3,30.9-34.5,50.9-46.7C343.1,268.5,343.7,268.2,345.1,269.4z"/>
<path id="XFF00FFM2Gra4Co7_10_" class="st0" d="M774.6,354c-3.7-2.6-3.7-6.5-5-9.8c-4.9-12.9-12-23.9-25.7-28.8
	c-7.5-2.7-15.5-2.1-23.2-0.5c-17.6,3.7-33.6,11.6-49.6,19.3c-2.4,1.1-4.8,2.4-7.6,2.2c-22.4-1.2-44.3-4.5-64.3-15.5
	c-4.7-2.8-9.2-6-13.2-9.8c-0.9-0.8-2.1-1.4-1.8-2.8s1.6-1.3,2.8-1.6c13.3-3.5,26.6-7.2,40-10.6c28.5-7.3,57.1-13.4,86.8-9.7
	c20.7,2.6,37.5,12.2,49.5,29.5c5.7,8.2,8.2,17.7,9.7,27.5C773.4,346.9,774,350.4,774.6,354z"/>
<path id="XFF00FFM2Gra4Co7_9_" class="st0" d="M374.8,17c-6.5,0.3-12.8-1.7-19.3-1.2c-23.2,1.5-34.7,12.3-39.3,32.2
	c-4.2,18.5-3.4,37.4-2.4,56.2c0.2,1.3,0,2.7-0.5,3.9c-8.3,17-17.6,33.2-31.3,46.5c-6.6,6.4-13.8,12-22.5,15.5
	c-4.4,1.8-5.1,1.3-4.4-3.4c3-19.4,5.4-38.9,9.4-58.1c3.3-15.8,7.2-31.5,13.3-46.4c6.5-15.8,15-30.3,29.3-40.2S337.4,7.3,355,10.8
	C361.8,12.2,368.6,13.3,374.8,17z"/>
<path id="X81B540M2Gra6OT4_2_" class="st0" d="M524.4,333.8c-16.9-5.2-33.2-3.5-49.6-1.5c-20,2.3-39.6,7.6-58.1,15.7
	c-22.1,9.9-41.8,22.9-53.2,45.4c-8.4,16.4-10.6,33.8-7.5,51.9c4.2,24.3,15.8,44.7,33.9,61.2c4.1,3.8,8.4,7.6,13.8,9.7
	c1.2,0.5,2.2,1.7,4.3,3.5c-14-2.8-26.2-6.2-38-11.2c-6.9-3-13.6-6.1-19.4-11.1c-1.7-1.4-2.9-3.2-3.6-5.2
	c-6.7-21.1-10.9-42.7-8.4-64.9c1.8-17.1,7.9-33.5,17.6-47.7c17-24.8,41-39.8,68.1-50.8c15.6-6.3,31.9-10.6,48.3-14.2
	c14.4-3.2,29.2-4.3,43.9-5.9c1.4-0.2,3-0.3,3.1,1.5C520,318.2,522.3,325.8,524.4,333.8z"/>
<path id="X669900M1Color24_1_" class="st0" d="M369,347.7c1.4-3.5,4.7-4.8,6.9-7.1c12.5-13.1,20.5-28.9,27-45.5
	c6.6-16.8,11.8-34.2,19.3-50.7c13.2-28.9,34.8-48.5,64.1-60.3c10.4-4.2,21.3-6.6,31.9-9.8c1.2-0.4,2.5-1,4,0.1
	c-1.1,2.4-3.8,2.4-5.6,3.6c-21.8,13.2-41.1,29-52.5,52.6c-5.3,10.9-8.2,22.7-11.9,34.3c-6.2,19.8-16.2,37.6-32.1,51.4
	c-12.8,11.2-27.1,20.5-42.5,27.7C374.9,345.1,372.6,347.5,369,347.7z"/>
<path id="XFF00FFM2Gra4Co7_8_" class="st0" d="M714.6,232.5c-2.3,19.7-13.2,32.5-30.8,40.2s-36.5,11-55.2,15.1
	c-21.3,4.7-42.4,10-60.7,22.8c-0.7,0.5-1.2,1.2-2.2,0.9c-0.9-0.4-0.9-1.4-0.8-2.1c3.1-19.9,6.9-39.4,23.8-53.2
	c12.4-10.1,27-12.1,42.2-12.2c14.2-0.1,28,3.2,42,4.8c12.6,1.5,25.1,1.5,35-8.4C710.4,237.9,712.6,235.2,714.6,232.5z"/>
<path id="XFF00FFM2Gra4Co7_7_" class="st0" d="M238.4,21.3c6.7,3.2,12.3,8.3,16.3,14.6c7.1,10.9,8.5,23.3,7.8,35.9
	c-1,19.5-6.3,38.4-9.7,57.5c-3.3,18.7-6.9,37.4-2.8,56.5c0.2,1,1.2,2.3-0.1,3.2c-1,0.7-1.9-0.1-2.7-0.6
	c-11.3-6.9-21.8-14.6-29.8-25.4c-9.8-13.2-12.2-27.8-8.4-43.5c4-17,13.1-31.5,22.6-45.8c4.2-6.2,7.7-12.8,10.6-19.8
	C247,42.4,245.2,31.7,238.4,21.3z"/>
<path id="X009E41M2Gra8OT27_2_" class="st0" d="M445.6,157.3c4.4,10.6,12.4,14.9,22.9,14.8c-89.3,69-143.4,155.4-136.9,272.6
	c-0.7-4.2-1.7-8.5-2.2-12.7c-4.3-37.3-2.4-74,8.6-110.2c6.9-22.5,15.9-44.2,27.9-64.3c13.3-22.4,28.8-43.6,46.1-63.1
	C423,182.1,434.1,170,445.6,157.3z"/>
<path id="X99FF33M1Color21_1_" class="st0" d="M383.2,478.8c-3.6-3.9-4.7-8.9-6.4-13.3c-6.2-16.2-8.4-32.8-4.2-49.9
	c5.1-20.6,23.4-35.6,44.7-37.4c24.8-2.1,47.2,5.6,69.2,15.7c9.9,4.6,20,9.1,31.4,9.1c7.7,0,14.9-1.2,20.9-6.4
	c0.3-0.2,0.9-0.1,2.6-0.2c-4,5.3-9.4,9.4-15.5,11.9c-7.1,3-14.5,3.5-22,2.5c-16.5-2.3-32.4-7.5-49-9.2c-17.1-1.8-34.1-1.2-49.7,6.9
	s-23.5,21.6-24.8,39c-0.8,8.8,0.1,17.7,2.6,26.1C383.4,475.1,384.5,476.7,383.2,478.8z"/>
<path id="XFF00FFM2Gra4Co7_6_" class="st0" d="M358.9,52.1c-2.2,4.6-6.3,7.4-9.2,11.4c-6.5,8.9-10.2,19-12.5,29.6
	c-2.2,10.1-3,20.4-4.2,30.6c-2,17.6-6.1,34.7-15.1,50.2c-10.7,18.4-28,23.4-46.9,13.3c-1.5-0.8-2.9-1.7-4.3-2.6
	c-6.8-4.5-6.8-4.4,0.1-8.7c25.9-16,43-38.5,51.5-67.9c4.7-16.3,10.9-32.2,23.6-44.4C347,58.9,352.7,55,358.9,52.1z"/>
<path id="XFF00FFM2Gra4Co7_5_" class="st0" d="M734,355.9c-4-1.4-8-3-12.1-4.1c-15-3.9-29.7-1.2-44.2,3.1
	c-14.3,4.2-28.3,9.5-43.3,11.4c-12.8,1.6-25.7,2.4-38.1-1.8c-10.3-3.5-18.6-11.8-19.8-24c-0.5-6.3-0.3-12.6,0.4-18.9
	c0.4-3.6,1.4-4.9,4.9-2.4c10.2,7.1,21,13.5,33,17.5c15.2,5,31.4,6.6,47.3,4.6c13.4-1.6,26.9-2.2,40.3-0.7c12.1,1.4,22.7,6.5,32,14.2
	L734,355.9z"/>
<path id="X81B540M2Gra6OT4_1_" class="st0" d="M404.5,568.2c-6.1,1.4-10.7-0.2-15-1.4c-16.6-4.7-33.3-9.3-49.5-15.2
	c-23.4-8.5-46.3-18.4-69.6-27.2c-21.2-8-42.3-16.2-64.6-20.4c-6.2-1.2-12.6-1.5-18.9-0.7c-3,0.4-3.9-0.8-4.5-3.1
	c-1.4-5.6-3.4-10.8-8.4-14.2c-0.8-0.5-1.2-1.2-0.8-2.1c0.4-0.9,1.3-1,2.1-1c5.1-0.2,10.3-0.9,15.4-0.5c20.9,1.7,40.2,8.9,59,17.5
	c32.3,14.6,62.9,32.6,95,47.6C363.8,556.4,383.9,563.4,404.5,568.2z"/>
<path id="XCD05D3M2Color8_2_" class="st0" d="M0,375.3c5.7-18.8,19.1-30.3,35.1-30.9c11.1-0.4,21.3,2.7,31.2,7.6
	c16.8,8.2,29.3,21.7,43,33.8c11.3,10,23.6,18.5,38.7,21.8c0.9,0.2,2,0.3,2.3,2.3c-6.6,1.7-13.4,2.7-20.3,2.9
	c-13.6,0.6-25.4-4-36-12.3c-9.9-7.7-18.3-17-27.9-24.9c-9-7.4-18.1-14.6-29.5-18.3C24,353.1,12.7,357,5.3,368
	C3.6,370.5,1.8,372.9,0,375.3z"/>
<path id="XFF00FFM2Gra4Co7_4_" class="st0" d="M165.9,75c6.5-6.9,12.7-13.3,23.1-12.4c6.4,0.6,10.3,4.6,13.1,9.6
	c5.4,9.4,6.6,19.8,5.9,30.4c-0.3,6.3-1.3,12.6-3,18.7c-5.3,17.7,0,33,11,47.1c3.4,4.3,6.6,8.8,10.8,12.3c0.8,0.6,1.8,1.3,1.2,2.4
	c-0.5,0.9-1.5,0.7-2.2,0.4c-10.1-4.5-20.7-7.8-29.8-14.7c-10.3-7.8-14.5-17.5-12.6-30.4c1.5-9.6,3.8-18.9,5.4-28.4
	c1.3-7.7,1.8-15.6,1.4-23.4c-0.5-13.3-8.7-18.1-20.6-12.2C168.6,74.8,167.7,75.8,165.9,75z"/>
<path id="XFF00FFM2Gra4Co7_3_" class="st0" d="M562.1,288.6c-1-12.4-2.2-24.5,0.7-36.6c2.9-12.1,10.6-19.3,22.3-22.5
	c6.1-1.7,12.3-2.9,18.5-4.2c10.4-2.2,20.7-4.8,30.3-9.6c1.5-0.7,3-1.5,4.4-2.4c8.8-5.8,9.4-14.1,1.6-21.1c-1.1-1-2.3-1.8-2.9-3.3
	c7.3,0.5,17.7,8,19.7,14.5c2.7,8.4-0.8,14.8-6.7,20.5c-10.9,10.7-24.5,15.6-39.1,18.3c-16.2,2.9-29.3,10.4-37.4,25.3
	C569.6,274.4,565.2,281,562.1,288.6z"/>
<path id="X66CC00M1Color23_2_" class="st0" d="M36.4,476c4.5-3.7,9.9-4.6,15-6.4c25.7-9.2,51.9-16.7,79.3-19
	c31.2-2.6,60.4,5,88.2,18.8c15.4,7.7,29.9,16.7,44.5,25.6c0.6,0.4,1.1,1.1,1.2,1.8c-35.8-16.3-72.5-29-112-31.6
	C113.4,462.7,74.8,468.4,36.4,476z"/>
<path id="XFF00FFM2Gra4Co7_2_" class="st0" d="M582.2,40.8c-5-2.1-9.3-5.2-14.6-6.2c-10.9-2-19.1,3.2-25.9,10.9
	c-8.2,9.4-13,20.8-17.8,32.1c-3.9,9.1-6.9,18.7-11.9,27.3c-7.1,12.3-17.7,20.1-31.3,23.8c-3.8,1-7.4,3.1-11.5,2.5
	c-0.5-0.5-0.4-1.4,0.1-1.9c0.1-0.1,0.2-0.2,0.3-0.2c14.2-9.7,21.1-24.4,27.4-39.5c6.1-14.7,11.6-29.8,22.2-42.1
	c8.8-10.3,18.8-18.7,32.9-19.8C564.3,26.7,573.9,32.6,582.2,40.8z"/>
<path id="X81B540M2Gra6OT4" class="st0" d="M315.3,522.5c-11.4-7.9-21.8-15.6-32.4-23c-23.7-16.4-47.9-31.9-73-46
	c-18-10-36.6-19-55.6-26.9c-1-0.4-2.6-0.3-2.7-1.8s1.5-1.5,2.4-2.2c5.2-3.8,8.6-8.8,8.8-15.4c0.1-3.7,1.1-3.8,4-1.9
	c33.1,22.2,64.7,46.2,95.5,71.4c16.8,13.8,33.5,27.8,50.2,41.7C313.5,519.2,314.8,519.8,315.3,522.5z"/>
<path id="X66CC00M1Color23_1_" class="st0" d="M405.3,507.6c2.1-12.2,5.9-23,15.3-30.9c7-5.9,15-6.2,23.5-3.1
	c11.3,4.2,20.2,12,29.7,19c14,10.4,28,20.9,44.9,26.5c3.4,1.1,7.3-0.2,10.6,2.6c-2.3,1.8-4.7,1.1-6.9,1.1
	c-23.7,0.3-44.9-7.8-65.3-19.1c-6.5-3.6-13-7.3-20.4-9.2c-11.7-2.9-21.2,0.5-28.1,10.6C408,506.5,406.8,507.4,405.3,507.6z"/>
<path id="XCD05D3M2Color8_1_" class="st0" d="M39.9,387.1c9.5-1.5,18.5-0.9,26.7,3.8c9.2,5.3,18,11.4,27,17.1
	c14.5,9.2,30.2,11.5,47,8.9c3.9-0.6,7.9-0.9,11.9-1.3c0.8-0.1,1.7-0.3,2.2,0.6c0.5,0.9-0.1,1.6-0.7,2.2c-9.6,9-18.6,18.8-32.2,21.8
	c-7.2,1.5-14.8,0.6-21.4-2.6c-9.9-4.6-17.3-12.1-23.9-20.7c-4.9-6.3-9.4-12.9-15.3-18.4c-5.4-5-11.5-8.5-19-9.2
	C41.3,389.1,40.4,389,39.9,387.1z"/>
<path id="XCD05D3M2Color8" class="st0" d="M88.3,325.8c0.8,3.3,1.7,6.6,2.5,9.9c3,12.7,11.5,19.3,23.9,21.6
	c4.7,0.9,9.5,1.6,14.2,2.8c13.6,3.3,20.7,13,24.7,25.6c1.8,5.5,3,11.3,3.4,17.1c0.1,2,0.3,3.9-2.9,2.4
	c-15.6-7.6-30.9-15.5-44.4-26.6c-13.1-10.7-22-23.9-23.4-41.3c-0.1-1.2-0.2-2.3-0.1-3.5c0.2-2.6,0.5-5.2,0.8-7.9L88.3,325.8z"/>
<path id="XFF00FFM2Gra4Co7_1_" class="st0" d="M556.2,69.1c-3.2,2.5-6.4,4.1-8.8,6.8c-6.2,7-8.6,15.7-10.3,24.5
	c-2.5,12.5-5.5,24.7-13.8,34.8c-6.5,8-15,11.9-25.3,11.8c-10,0-19.3-2.9-28.4-6.7c-0.8-0.3-1.7-0.5-1.7-1.5c0-1.4,1.3-1.2,2.2-1.5
	c5.5-1.8,11-3.7,16.5-5.5c19.2-6.5,30.2-21.7,39.5-38.3c5.6-10.1,12.1-19,23.4-23.2C551.5,69.5,553.3,68.1,556.2,69.1z"/>
<path id="XFF00FFM2Gra4Co7" class="st0" d="M489.6,34.8c5.8,8.1,8.3,17.3,8.3,27.3c0,15.4-6.2,28.8-14.5,41.3
	c-5.8,8.7-12.4,16.9-18.7,25.3c-1.5,2-3.5,3.9-4.3,0.1c-2.2-10.2-6.1-20.1-3.2-30.9c1.9-7,5.2-12.9,11-17.3c3.2-2.4,6.4-4.8,9.7-7.1
	c13.9-9.6,15.6-19.9,11.2-35.8c-0.2-0.8-0.5-1.5-0.7-2.3L489.6,34.8z"/>
<path id="X66CC00M1Color23" class="st0" d="M359.7,567c-7.9-2.6-15.8-5.3-23.8-7.9c-21-6.8-42.1-12.5-64.3-13.2
	c-18.5-0.6-35.7,3.3-51.1,13.7c-4.1,2.8-7.5,6.1-9.5,10.7c-1.3,3.1-1.8,6.4,0.3,9c2,2.5,5,3,8.2,1.5c0.9-0.4,2-0.8,2.7,0.2
	s-0.1,1.9-0.4,2.8c-2.3,5.4-6.8,8.3-12,7.8c-5.7-0.6-10.8-5-12.1-10.3c-2.2-9.2,0.5-17.1,6.5-24.1c7.7-9,18-13.4,29.2-16.2
	c26.2-6.6,51.5-1.6,76.6,6.2c16.5,5,32.7,11.1,48.5,18.2c0.6,0.3,1.1,0.6,1.6,0.9L359.7,567z"/>
<path id="X99FF33M1Color21" class="st0" d="M403.4,495.7c-1.2-12.3,6.2-27.5,17.6-32.2c13.6-5.7,27.4-4.3,41.2-1.3
	c17.2,3.7,32.6,12.3,48.5,19.3c15,6.5,30,12.9,46.3,15.4c15.1,2.4,30.5,0.8,44.7-4.6c7.5-2.8,15.1-5.6,22.8-7.9
	c-5.1,4.5-11.3,6.9-17.3,9.7c-30.8,14.3-61.2,10.7-91.5-1.8c-14-5.8-27.4-12.9-41.3-18.9c-12.4-5.5-26-7.6-39.5-6.1
	c-16.3,1.9-25.8,10.3-30,26.3C404.8,494.3,404.8,495.2,403.4,495.7z"/>
<path id="XFF00FFM1Color11_2_" class="st0" d="M71.7,560.8c-8-12.2-4-30.2,7.8-38.7c13.6-9.8,29.2-12.1,45.2-13.5
	c9.1-0.8,18.3-1,27.2-3.4c5.8-1.6,11.4-3.6,16.3-7.1c0.9-0.8,2.3-1,3.4-0.4c-3.6,6.8-8.5,12.9-14.4,18c-8.1,6.8-17.9,8.5-27.9,9.4
	c-10,0.9-20.3,0.6-30.3,2.6c-6.6,1.3-12.9,3.1-18.5,7c-8.5,6-10.9,12-8.8,22.3C72,558.1,72.5,559.2,71.7,560.8z"/>
<path id="X009E41M2Gra8OT27_1_" class="st0" d="M309.5,273.8c-6.2,5.9-13.6,10.3-19.6,16.6C276.8,304,268.1,321.3,265,340
	c-7,40.5,4.1,76.5,26.5,110c4.7,7,10.4,13.2,16,20.2c-3.1,0.8-3.9-1.7-5-2.8c-19.2-18.9-35-40-43.6-65.9
	c-6.8-20.5-8.7-41.4-3.1-62.5c4.7-18,13.6-33.7,27.4-46.5C291.1,285.1,299.5,278.4,309.5,273.8z"/>
<path id="X009E41M2Gra8OT27" class="st0" d="M54.9,251.3c9.3-8.3,20.7-14,32.9-16.5c29.3-6.2,53.6,4.3,75.4,22.8
	c18.7,15.9,32.2,35.9,42.1,58.1c5.2,11.3,9.1,23.2,11.7,35.4c0.3,1.6,1,3.2,0,5.4c-2.2-2.6-2.8-5.6-3.7-8.4
	c-11.4-34.9-31.3-64.2-60-86.9c-20.3-16.1-43.7-24.3-70.2-20c-7.4,1.2-14.5,3.6-21.2,6.9C59.6,249.1,57.2,250.2,54.9,251.3z"/>
<path id="X78D111M2Color15_9_" class="st0" d="M576.9,355c1.3-0.1,1.7,0.9,2.2,1.7c7.2,11.2,17.7,17.2,30.5,19.6
	c11.6,2.2,23.4,2.9,34.9,5.6c11.8,2.8,23,6.6,31.2,16.3c6.7,7.9,7.9,19.1,3.2,27.5c-1.7,3-4.9,4.8-8.3,4.7c-3.8,0-6.6-2.8-9.1-5.5
	c-0.5-0.5-0.5-1.3,0-1.8c0,0,0,0,0,0c0.6-0.6,1.6-0.7,2.3-0.2c3.2,1.7,6.5,1.7,8.5-1.3s1-6.4-0.7-9.5c-3.4-6-8.6-10.1-14.7-13
	c-9-4.1-18.7-5.8-28.4-7.4c-6.9-1.1-13.8-2.4-20.6-4c-17.1-4-25.3-17.1-31.4-32C576.3,355.6,576.7,355.3,576.9,355z"/>
<path id="X78D111M2Color15_8_" class="st0" d="M390.4,147.6c0.2-1,0.1-1.2,0.2-1.3c2.5-2.8,6.1-5.4,3.8-9.8
	c-1.7-3.3-7.8-4.3-12.8-2.9c-10.4,2.8-17.7,9.7-23.7,18.1c-6.5,9-12.8,18.2-19,27.5c-6.9,10.4-16.7,15.9-29,17.3
	c-4.9,0.5-9.8,1.4-15.3,0c2.6-2.4,5.5-1.6,7.9-2.3c14.2-4,22.7-14.4,29.9-26.3c6.4-10.5,12.4-21.3,20.9-30.4
	c8.6-9.2,18.6-15.7,31.9-14.4c5.7,0.4,11,3.3,14.4,8c2.2,3,4.1,6.3,1.9,10.1C399.3,145.3,395,147.8,390.4,147.6z"/>
<path id="X3B5105M2Color17_2_" class="st0" d="M246.6,200c11-2.1,17.5,7.3,25.1,14.5c1.6,1.6,0.5,3.4-0.4,5
	c-5.1,8.8-12.8,16.3-27.9,11.6c-13.3-4.1-19.6-11.1-19.2-23.8c0.1-2.9,1-4.5,4-5.3C233.6,200.5,239.3,200.6,246.6,200z"/>
<path id="X3B5105M2Color17_1_" class="st0" d="M547.2,342.8c-11.6-0.3-19.3-6.7-21.5-17.4c-0.5-2.3-1.1-4.5-1.5-6.8
	c-1.8-10.8,5.8-22.2,16.4-24.8c2.2-0.6,3.3,0.6,4.5,2.2c4.8,6.8,8.5,14.3,11.8,21.9c0.5,1.1,0.7,2.2,0.5,3.4
	c-1.2,6.4-3.1,12.6-5.6,18.6C550.9,341.9,549.3,343.4,547.2,342.8z"/>
<path id="X78D111M2Color15_7_" class="st0" d="M507.8,368.7c1.5-0.3,1.9,1.1,2.5,1.9c6.9,8.8,16.9,10.1,25.7,3s14-16.8,17.8-27.2
	c2.3-6.2,4.9-12.3,6-18.9c0.1-0.6,0.3-1.4,1.2-1.4c1,0,1.5,0.8,1.6,1.6c1.7,8.2,6.1,15.6,7.3,23.7c1,6.4-1.4,13.2-5.5,18.7
	c-8.4,11.3-19.2,18.3-33.9,17.6C520.9,387.3,510.4,378.6,507.8,368.7z"/>
<path id="X78D111M2Color15_6_" class="st0" d="M279.5,265.3c4.4-2.2,9.3-2.9,12.6-7c5.2-6.4,5.4-13.5,2.3-20.7
	c-6.1-14.6-17.5-24.9-29.2-34.8c-1.3-1.1-3.3-1.6-4-4.4l9,1.1c3.1,0.4,6.3,1,9.4,1.2c15,1,23.6,7.6,28.2,22.2
	c3.3,10.7,3.6,21.5-2.9,31.2C298.9,263,289.9,266.1,279.5,265.3z"/>
<path id="X78D111M2Color15_5_" class="st0" d="M559.8,314c-4.1-5.7-6.2-12.2-9.5-18.1c-9.8-17.5-23.9-32.2-41-42.7
	c-5.9-3.7-11.6-2.3-15.6,3.3c-0.7,1-1.2,3-2.8,2c-1.2-0.7-0.4-2.5-0.1-3.7c3.6-17.5,17.4-17.6,30.6-11.6
	c18.1,8.2,27.3,23.3,32.3,41.8c2.2,8.2,3.2,16.6,5.7,24.7C559.6,311.1,559.8,312.5,559.8,314z"/>
<path id="X78D111M2Color15_4_" class="st0" d="M171.4,236.2c-15-7.5-16-19.9-3.1-32.3c10.5-10,23-15,37.4-15.3
	c14.8-0.4,28.9,3.4,43.3,6.7c-1.3,2-2.9,1.4-4.3,1.4c-19.4-1.1-37.5,3.9-55,11.8c-4.4,2-8.6,4.3-12.7,6.8c-8,4.8-9.5,9.8-5.8,18.2
	C171.5,234.3,172.1,235,171.4,236.2z"/>
<path id="XFF00FFM1Color11_1_" class="st0" d="M99.9,547.8c6-7.1,11.5-12.5,19.9-14.3s16.8-4,25.1-6.5c13.7-4,21.7-14.8,29.6-25.5
	c0.8-1.1,1-3.4,2.9-2.9c1.7,0.5,1,2.5,1.1,4c0.2,7.7,0.1,15.4-2.8,22.6c-5.3,13.2-16.4,17.6-29.6,17.8c-5.8,0-11.6-0.3-17.4-1.1
	c-9.4-1.2-18.3-0.8-26,5.4C102.3,547.5,101.7,547.4,99.9,547.8z"/>
<path id="XFF00FFM1Color11" class="st0" d="M91.1,487.1c4,1.5,6.2,4.1,9.2,5.4c6.7,2.8,13.1,3.5,19.5-0.7c4.6-3,9.1-6.2,13.7-9.1
	c7.6-4.8,15.6-4.3,23.4-1.2c4.9,2,9.6,4.6,13.9,7.8c2.7,2,1.9,3.1-0.6,4c-13.5,4.7-26.9,9.8-41.3,10.8c-14.6,1-27.1-3.7-37-14.7
	C91.6,489.1,91.6,488.5,91.1,487.1z"/>
<path id="X78D111M2Color15_3_" class="st0" d="M141.8,167c-3.2,5.5-7.5,7.2-12.3,5.3c-5.8-2.3-9-8.5-7.5-14.5
	c3.6-14.6,13.2-18.7,26.8-14.9c10.3,2.9,19.1,8.6,27.1,15.4c12.8,11,25.7,21.7,43.4,26.5c-5.9,0.9-10.4-0.5-19.8-4
	c-13.6-5.1-25.3-13.3-37.3-21c-5.4-3.4-11-6.2-17.3-7.4c-6.1-1.1-12.9,2.2-14.3,7.2c-0.7,2.2-1.4,4.7,0.9,6.5c2.3,1.8,4.5,3,7.3,1.4
	C139.4,167,140.3,166.2,141.8,167z"/>
<path id="X78D111M2Color15_2_" class="st0" d="M542.3,203.2c-6.7-1.3-9.7-4.6-9.9-10.6c-0.1-5,3.8-9.6,9.1-10.9
	c8.7-2.1,16.6-1.6,22.1,6.7c1.9,3.1,3.1,6.6,3.5,10.3c1.4,10.6,0.5,21.4-2.8,31.6c-5.1,15.9-10,31.8-7.2,50
	c-3.1-2.8-3.1-5.3-3.4-7.6c-2.4-17.9,0.1-35.4,3.4-52.9c1.4-7,1.7-14.2-0.8-21.2c-1.6-4.5-4.4-7.7-9.1-9.1c-3.6-1-6.4,0.8-8.1,3.4
	c-1.6,2.7-0.9,5.5,1.9,7.4C542.1,200.9,542.6,202.1,542.3,203.2z"/>
<path id="XFFB6F5M2Color19_9_" class="st0" d="M644.6,239.3c27.2-5.8,40.5-22.7,40-50.5c11,21.3,13,38-2.1,54.1
	c-1,1.3-2.6,2.1-4.2,2.2C673.2,245.2,650,241.7,644.6,239.3z"/>
<path id="XFFB6F5M2Color19_8_" class="st0" d="M215.8,88c6.4-27.3-4.3-45.3-28.6-56.3l0.4-1.4c4.8,0.2,9.5,0.2,14.3,0.7
	c15,1.6,26.2,8.7,32.4,23c1,2.3,1.4,4.5,0.4,6.8c-4.3,9.4-11,17.3-16.5,26C217.9,87.1,217.3,87.2,215.8,88z"/>
<path id="X3B5105M2Color17" class="st0" d="M465,167.2c-7.8,0.7-16.2-7.5-15.8-20c0.2-5.2,2.2-10,4.9-14.5c1-1.7,2.3-2.9,3.5-0.3
	c6.4,12.7,18.6,15.5,30.9,18.2c1.2,0.3,2.9-0.6,3.5,1s-1,2.3-1.9,3.2C483.7,161.5,476.5,167,465,167.2z"/>
<path id="X669900M1Color24" class="st0" d="M508.7,218.5c0.1,1.6-0.9,2-1.8,2.3c-15.8,5.6-24.9,18-33.2,31.6
	c-9.8,16-17.4,33.2-29,48.1c-4.4,5.6-8.5,11.4-14.7,15.8c1-2,2.2-3.9,3.5-5.8c7.5-10.1,12.2-21.6,17.8-32.7
	c7.1-14.1,12.5-29,22.7-41.4C483,225.3,494.6,219.7,508.7,218.5z"/>
<path id="XFFB6F5M2Color19_7_" class="st0" d="M262.1,29.4c-0.1-6.6,4.9-15.5,9.2-24.7c1.2-2.6,2.3-1.2,3.2,0.7
	c6.7,13.3,9.3,26.9,3.4,41.3c-2,4.9-3.5,10-5.2,15c-0.3,0.8-0.4,1.8-1.5,1.6c-0.6-0.2-1.1-0.7-1.4-1.3C267,52.6,262,43.6,262.1,29.4
	z"/>
<path id="XFFB6F5M2Color19_6_" class="st0" d="M689.5,279.7c13.5-18.3,30.8-26.8,53.2-23.8c0.8,0.1,1.8,0,2,1c0.4,1.4-0.8,2-1.5,2.9
	c-9.2,11.7-21.1,18.4-36.2,19.4C701.4,279.6,695.6,280.2,689.5,279.7z"/>
<path id="XFF99FFM2Color6_1_" class="st0" d="M94.9,368c-8.4-8-19.1-12.5-28.3-19.1c-8.6-6.1-13.2-16.7-14.6-27.5
	c-0.9-6.7-0.6-13.5,2.8-20.2c1.6,1.4,1,2.8,0.9,4c-1.2,11.9,3.7,21.1,12.9,28.1c3.3,2.6,6.8,4.7,10.6,6.4c3.4,1.5,5.5,3.4,5.8,7.2
	C85.6,355.2,90.7,361.2,94.9,368z"/>
<path id="X78D111M2Color15_1_" class="st0" d="M572.5,361.4c1,0.1,1.8,0.8,2,1.8c3.6,17.5,6.9,35,2.2,52.8c-1,3.7-2.4,7.3-4.2,10.6
	c-3.9,7.5-10.9,9.3-18,4.8c-3.4-2.2-6.4-5.1-8.8-8.4c0.5-1.1,1.2-1,1.8-0.6c10.3,6.8,18.2,3.9,21.1-7.9c3.7-14.7,5-29.9,3.7-45
	C572.1,366.9,571.5,364.2,572.5,361.4z"/>
<path id="XFFB6F5M2Color19_5_" class="st0" d="M501.3,70.4c-0.9-4.9,1.1-9.9-0.4-14.4c-2.4-6.6,0.4-11.2,4.1-16.2
	c8.9-12.1,11-24.8,1.8-37.8c-0.2-0.3-0.1-0.9-0.2-2c5.9,4.2,9,9.9,11.2,15.8c3.5,9.2,2.5,18.7,0.4,28c-0.2,1-0.7,1.9-1.2,2.7
	C511.3,54.2,504.9,61.3,501.3,70.4z"/>
<path id="X78D111M2Color15" class="st0" d="M298.6,202.1c11.8,1.5,23.2,4.6,34.1,9.3c8.9,3.8,17.4,8.4,23.9,15.9
	c1.9,2.1,3.8,4.3,4.4,7.2c1,4.6,0.5,8.7-3.5,12.1c-4.1,3.5-9.1,5.7-14.4,6.5c0.8-2.8,2.8-3.5,4.4-4.5c6.2-4.1,7.2-9.1,2.6-15.1
	c-6.2-8.1-14.9-13.1-23.8-17.7c-7.4-3.8-15-7.2-22.8-10C302.1,205.2,300,205,298.6,202.1z"/>
<path id="XFFB6F5M2Color19_4_" class="st0" d="M337.4,134c0.6-16.2,0.5-32.3,4.9-48c0.7-2.4,2.5-3.6,4.3-4.6c10-5.9,20.9-8.5,32.3-9
	c0.4,0,0.9,0.3,2.9,1.1C349.6,81.8,343.9,108.1,337.4,134z"/>
<path id="XFFB6F5M2Color19_3_" class="st0" d="M652.6,367.6c5.3-2,10.7-4,16-5.9c8.5-3,16.9-5.9,25.8-7.4c3.1-0.7,6.3,0,8.9,1.8
	c9.9,6.8,16.5,16,21.1,27.4c-20-24.1-45.8-19.9-71.8-14L652.6,367.6z"/>
<path id="XFFB6F5M2Color19_2_" class="st0" d="M60.3,493.4c1.5,0.6,1.9,0.6,2.1,0.8c9.3,11.5,20.9,10.4,33,5.8
	c2.3-0.9,3.8-1.1,5.9,0.4c4.1,3.1,9,5.1,14.1,5.7c-11.9,0.3-22.1,9.4-34.7,4.7C72,507.5,64.8,503.1,60.3,493.4z"/>
<path id="XFF99FFM2Color6" class="st0" d="M77.9,393.4c-4.9-3.7-9.7-7.4-14.5-11.1c-5.3-4.1-11.1-7.3-17.4-9.6
	c-9.7-3.5-19-2.9-27.3,4.3c0.2-5,6.3-10.5,12.8-11.8c3.8-0.9,7.7-0.7,11.4,0.6c14.6,5.4,25.3,16,36.1,26.5L77.9,393.4z"/>
<path id="XFFB6F5M2Color19_1_" class="st0" d="M568.9,51.1c-3.7,0.3-6.9-1.3-10.4-0.6c-11.7,2.2-18,10.7-23.8,19.7
	c-3.6,5.7-6.6,11.8-10.2,18.4c-1.7-4.9,1.6-7.7,2.7-10.8c3.4-8.8,7.6-17.4,14-24.5c6.8-7.6,16.2-9.5,25.3-5
	C567.8,48.8,568.7,49.9,568.9,51.1z"/>
<path id="XFFB6F5M2Color19" class="st0" d="M83.1,553.7c-2.5-6.7-1.5-12.4,3.5-16.5c10.3-8.5,23.1-7.3,35.2-8.6
	c-5.6,3.2-12,3-17.9,4.8c-6.1,1.9-11.9,4.1-16.2,9.2C85,545.6,84.5,549.6,83.1,553.7z"/>
</svg>
