<?xml version="1.0" encoding="utf-8"?>
<!-- Generator: Adobe Illustrator 21.0.0, SVG Export Plug-In . SVG Version: 6.00 Build 0)  -->
<svg version="1.1" id="图层_1" xmlns="http://www.w3.org/2000/svg" xmlns:xlink="http://www.w3.org/1999/xlink" x="0px" y="0px"
	 viewBox="0 0 636.4 806.1" style="enable-background:new 0 0 636.4 806.1;" xml:space="preserve">
<style type="text/css">
	.st0{fill:#FFFFFF;stroke:#000000;stroke-miterlimit:10;}
</style>
<title>Anime10_13_748</title>
<g>
	<path id="X0014AAM2Gra8OT24" class="st0" d="M509.8,401.6c2,0.9,1.9,2.2,2.1,3.3c9.3,38.8,16.3,78,15.9,118
		c-0.3,31.5-5.3,62-20.1,90.3c-14.8,28.3-35.4,46.3-61,61.7c-20.6,12.4-42.8,21.4-64.5,31.7c-15.7,7.4-31.2,15.2-44,27.2
		c-0.7,0.7-1.4,1.6-2.5,1s-0.6-1.4-0.5-2.2c1.4-23.6,6.6-46.1,19.1-66.5c9.9-16.3,23.1-29.6,37.7-41.7c18.3-15.3,38.1-28.6,56-44.4
		c19.3-17.2,36.2-36.3,47.3-60c1.1-2.3,2-4.6,2.9-6.9s0.7-2.5,1.5-5c-4.7,5.2-6.5,10.7-9.1,15.5c-12.1,21.8-29.4,38.6-49.4,52.8
		s-40.5,25.6-59.4,40.5c-28.9,22.6-46.4,52.3-54.4,87.8c-4,17.4-6.3,35.1-6.7,52.9c0,1.3,0.5,3.1-1.1,3.5s-1.7-1.6-2.1-2.8
		c-7.7-26.9-14.7-54-16.9-82c-1.7-21.7,0.1-43,7.7-63.5c6.1-16.6,16.8-30.1,30.3-41.6c19.6-16.6,42.8-26.9,65.5-38.1
		c19.6-9.7,39.1-19.4,56.4-33c23.1-18.3,38-41.7,45.2-70.1C507.9,420.7,509.3,411.2,509.8,401.6z M505.9,478.1c-1.5,0.9-1.8,1-2,1.2
		c-0.4,0.6-0.7,1.2-0.9,1.8c-13.1,29.7-33.6,53.3-58.9,73.2c-21,16.5-43.7,30.5-65,46.5c-33.3,25-55.7,56.9-62.1,98.8
		c-0.9,5.8-1.7,11.6-0.5,17.6c1.8-6,3-12.1,4.2-18.2c4.8-25,16.5-48.2,33.7-66.9c17.1-18.8,38-32.9,58.8-47
		c30.2-20.5,58.8-42.7,77.8-74.9c6.1-10.1,11.1-20.9,14.8-32.1L505.9,478.1L505.9,478.1z M449.7,598c-1.9-0.7-2.5-0.1-3.1,0.5
		c-14.2,13.8-30.7,24.5-46.6,36c-22.2,16.2-37.9,37.2-46.7,63.2c-0.7,2-1.8,4.1-1.3,6.8c0.5-0.5,1-1,1.4-1.5c0.6-1,1.2-2,1.7-3.1
		c6.9-15.6,17.1-28.8,29-40.9c14.3-14.5,30.4-27,45.3-40.7C436.3,612,443.3,605.6,449.7,598z"/>
	<path id="X81B540M2Gra6OT4" class="st0" d="M65.6,323.4c1.1,0.5,1,1.4,1,2.2c-0.6,20.1,4.9,40,15.8,56.9
		c7.2,11.4,17.1,20.4,27.9,28.2c19.5,14.3,40.9,25.5,61,39c32.5,21.9,54.9,51,64.4,89.4c3.5,14.1,5.1,28.5,6.6,42.9
		c0.2,1.4,0.6,3-0.8,4.8c-1.8-3.3-2.2-6.7-3.1-9.9c-9.8-34.9-26.1-65.5-56.7-86.8c-14-9.8-29.7-16.4-45.1-23.5s-32.4-16.4-44.6-30.5
		c-2.3-2.7-4.1-6-8.3-9c3.6,8.9,8.8,15,14.1,20.9c11.8,12.9,26.8,21.2,42.2,28.9c19.5,9.9,38.7,20.2,53.2,37.3
		c16,18.8,25.7,40.7,31.5,64.5c1,4,2.1,8,3.1,12.1c0.3,1.4,1.5,2.7,0,4.4c-2.9-1.9-3.9-5.3-6-7.7c-13.2-15.4-29.3-27.1-47.3-36.3
		c-20.9-10.7-42.2-20.6-63.2-31.1c-14.8-7.4-28.6-16.3-40.7-27.9C51.8,474.1,43,451.9,42.3,426s4.5-50.3,12.4-74.5
		c2.5-7.8,5.3-15.4,8-23.1C63.5,326.6,63.7,324.5,65.6,323.4z M70.2,414.8c-0.7,0.9-0.8,2.2-0.3,3.2c7.6,30.1,24.1,53.4,52.4,67.5
		c11.8,5.9,23.6,11.6,35.2,17.8c18.1,9.7,33.1,22.8,44.2,40.2c2.1,3.2,3.4,7.1,6.9,9.9c0.1-0.6,0.1-1.3,0.1-1.9
		c-0.4-1.3-0.8-2.6-1.3-3.8c-7.4-17.4-19.7-32.4-35.3-43.1c-15.5-10.7-32.6-18.7-48.9-28.2C105,465.7,88.7,453,78.8,433.7
		c-3.2-5.9-5.7-12.3-8.6-18.8C70.2,414.9,70.2,414.8,70.2,414.8z"/>
	<path id="X0014AAM2Gra4OT23" class="st0" d="M159.7,713.2c10.9,0.5,21.2,2.4,30.8,7c17.9,8.5,33,20.6,46.4,35
		c8.2,8.7,15.6,18.2,22,28.3c2.6,4.2,2.4,4.9-2.5,5.6c-19.9,2.8-37-4.1-52.9-15.1c-12-8.2-22.8-17.8-33.8-27.3
		c-5.4-4.7-11.2-8.9-17.5-12.4c-10.8-5.9-19.9-3.6-26.5,6.8c-2.1,3.4-4.3,6.7-5.5,10.6c-0.4,1.2-0.6,2.7-2.3,2.9
		c-4.1-19.6,1.5-41.4,23.2-51.9c17.1-8.3,34.9-8.1,52.7-3.6c22.3,5.6,41,17.3,54.3,36.6c7.5,10.9,11.2,23.2,13,36.2
		c-2.5,0.4-2.7-1.4-3.4-2.6c-14.6-27-36.2-45.7-65.6-55c-9.1-2.8-18.7-3.9-28.2-3.1C162.1,711.3,162.1,711.3,159.7,713.2z"/>
	<path id="X05D166M2Gra7OT18_3_" class="st0" d="M116.7,663.5c13.2,17.5,10.2,34.2-6.8,42.3c-19.9,9.6-46.2,2.8-58.6-15
		c-10.6-15.2-9.7-38,2.3-54.4c10.5-14.5,24.9-23.3,41.9-28.1c19.7-5.6,39.6-7.1,59.7-2.1c22.7,5.7,41.2,18.2,56.8,35.4
		c23.6,26,37.4,57.2,47.6,90.2c5.2,16.5,8.9,33.5,10.8,50.7c0.1,1.1,0.4,2.3-0.6,3.7c-2-8.6-3.9-16.9-5.9-25.1
		c-8.5-34.6-21.8-67.1-42.5-96.3c-11.6-16.3-25.1-30.6-42.7-40.7c-22.9-13.1-46.4-14-70.6-4.2c-8.8,3.6-17.2,7.9-24.4,14.4
		c-18.4,16.6-11,38.3,8.1,47.5c1.7,0.8,3.4,1.4,5.1,1.9c10.2,3.2,19-2.9,19.7-13.6C116.8,668.4,116.7,666.6,116.7,663.5z"/>
	<path id="X81B540M2Gra5OT4" class="st0" d="M313.5,557.3c2.5-9.4,7.2-17.8,11.5-26.3c17.6-35,38.7-67.6,67.3-94.9
		c9.5-9.1,19.9-17.1,30.2-25.4c13.4-10.6,27.8-20,43-28c22.5-12.1,46.5-20.2,72-22.2s48,1.6,69.2,14.6c16.7,10.3,29,24.1,29.6,45.1
		s-18,42-38.5,44.7c-13.8,1.8-29.3-11.4-30.5-25.8s5.1-22.1,16.6-24.5c0.7,1.5-0.8,2-1.4,2.8c-4.1,5-4.3,9.2-0.6,14.6
		s9.4,6.8,14.5,4.7c11.4-4.6,16.4-14.3,18.6-25.5s-1.6-19.4-10.1-26c-13.2-10.2-28.8-13.4-44.9-14.7c-19.3-1.6-38.3,1-56.8,6.4
		c-13.6,4-26.5,10-38.9,16.7c-38.5,20.8-69.7,50.2-97.6,83.6c-19.2,23-36,48-50.1,74.5C315.7,553.7,314.5,555.5,313.5,557.3z"/>
	<path id="X038203M2Gra3Co14_2_" class="st0" d="M295.6,757.9c-9.5-19.6-17.7-39.9-24.3-60.7c-9-28.4-14.3-57.5-13.5-87.5
		c0.5-16,2.3-31.9,5.3-47.6c6.3-33.6,16.8-66.1,26.3-98.9s19.6-63.7,25.8-96.5c4.3-23,6.5-46.2-2.5-68.9c-3.7-9.6-9.3-18.5-16.4-26
		c-2.1-2.2-2.4-3.5,0.1-5.6c3.2-2.7,5.5-6.3,6.8-10.3c0.4-1.1,0.3-2.5,1.8-2.7s1.8,1.2,2.5,2.1c13.8,18.9,20.3,40.2,21.6,63.4
		c1,18.2-1.1,36.1-4.1,54.1s-7.3,33.7-11.5,50.5s-9.4,30.8-13.9,46.3c-9,30.8-19.3,61.3-26.5,92.6c-11.5,49.9-8.5,99.2,6.8,147.9
		c4.7,15.1,10.1,30,16,44.6C296.6,755.7,296.4,757,295.6,757.9z"/>
	<path id="XFF0007M2Gra4OT3_5_" class="st0" d="M427.1,298c2.4-22,10.5-40.1,28.4-53.1c-6.8,1.5-17.9,12.2-23.9,22.2
		s-8.1,20.3-9.8,31.6c-1.6-3.7-1.8-5.9-1-12.8c2.1-17.5,5.9-34.8,11.2-51.6c3.3-10.4,9.2-19.2,18.3-25.5c12-8.4,23.7-5.3,28.2,8.6
		c3.9,12.2,11.6,17.6,23.9,17.6l2.5,0.2c11.9,1.5,15.6,9.8,8.7,19.5c-4.7,6.6-11,11-19.2,12.2l-31.6,4.6c-15.4,2.2-28.2,8-33.4,24.3
		c-0.2,0.5-0.4,0.9-0.7,1.3C428.2,297.5,427.7,297.8,427.1,298z M501.2,252.7c-0.8,0.2-1.5,0.4-2.2,0.7c-8,3.9-16.5,5.8-25.4,6.7
		S456,261.7,448,266c-3.1,1.6-6.2,3.4-7.1,7.5c6.6-5.1,14.2-7.2,22.2-8.3c4.6-0.6,9.3-0.8,13.9-1.5c9-1.2,17.7-3.4,24.2-10.9V252.7z
		"/>
	<path id="XFF0007M2Gra1OT3_2_" class="st0" d="M436.9,322.1c5-9.8,9.6-18.8,19.5-23.9s20.4-2.8,31.1,0.7
		c-5.8-7.2-22.2-9.7-32.3-5.4s-16.8,15.1-22.4,25.2c-1.7-1.3-0.8-2.4-0.5-3.3c3.2-9.7,6.6-19.2,14.2-26.6s19.5-11.4,31.7-9.9
		c10.5,1.3,20.4,4.8,30.4,7.8c7.1,2.3,14.5,3.9,21.9,4.8c5.2,0.6,9.3,2.9,10.7,8.3s-1.9,9.2-5.7,12.4c-2,1.7-4.6,2.6-6.9,3.9
		c-5.2,2.9-7.5,7.4-7,13.2c0.2,2,0.5,4,0.8,5.9c1.6,9.4-6.5,16.2-15.5,12.8c-7.3-2.7-13.3-8-17-14.8c-2.4-4.5-5.4-8.8-8.8-12.6
		c-11-11.6-27.8-12.1-39.3-1C440.6,320.5,439.9,322,436.9,322.1z"/>
	<path id="X009E41M2Gra2OT27" class="st0" d="M282,460.9c0.7-5.4,1.4-9.6,1.9-13.8c2.1-17.6,0.7-35-5.5-51.5
		c-5.4-14.3-13.5-27.3-22.8-39.5c-14.1-18.5-24.8-38.7-25.1-62.9c0-4,0.5-8,0.8-11.9c0.1-0.8,0-1.8,1.1-2s1.4,0.7,1.9,1.3
		c9.3,13.7,21.8,24.2,33.7,35.3c11.9,11.1,20.9,22.5,26.1,37.2c3.1,9.2,4.4,18.8,3.9,28.5c-0.4,13.3-1.8,26.5-4.2,39.6
		c-2.1,11.1-5.4,22-8.2,32.9C285,456.6,283.8,459,282,460.9z M290.1,406.4c7.4-31.3-7.6-63.1-27.2-77.3
		C282,351.3,290.2,377.3,290.1,406.4L290.1,406.4z"/>
	<path id="XFF0007M2Gra2OT3_1_" class="st0" d="M172.4,206.1c19.3-0.2,36,6.1,50.4,19.2c-0.7,0.7-1.8,0.8-2.5,0.2c0,0,0,0-0.1-0.1
		c-13.5-8.2-25.9-4.4-37.7,3.8c-7.3,5-14.5,10.1-21.5,15.4s-15.2,8.1-24.3,7c-11-1.3-14.7-9.3-8.3-18.4c1.4-2,3.3-3.8,4.9-5.7
		c5.6-6.5,7-13.6,3.4-21.7c-7.4-16.9-0.2-27.5,18.4-27.1c7.5,0,14.9,1.8,21.6,5.3c17.9,9.7,34.7,21.1,49.4,35.3c0.9,0.9,1.6,2,2,3.2
		C211.6,209.7,194,201,172.4,206.1z M196.6,216c-1.2-1.2-2.4-0.7-3.5-0.6c-7.9,1-14.4,4.8-20.6,9.4c-8.6,6.5-17.4,12.8-27.9,16
		c-0.6,0.1-1,0.7-0.9,1.3c0,0.1,0.1,0.2,0.1,0.3c2.1,0.8,4.2,0.2,6.2-0.4c6.7-1.9,13-5.2,18.4-9.7c7.9-6.5,16-12.4,26.3-14.7
		c1,0,1.8-0.7,2-1.6H196.6z"/>
	<path id="XBF0202M2Gra5Co4" class="st0" d="M434.1,340.4c0.2,12.3-3.1,23-11.6,31.6s-28.1,10.3-38.4,2.4c-3.9-3-8-5.8-11.3-9.8
		c-11.4-13.7-13.2-29.2-7.8-45.5c6-17.9,18.3-31.1,34.2-41c0.2-0.1,0.6,0,1.9,0c-7.6,13.5-13.9,27.2-17.8,42.6
		c2.6-0.9,3.2-2.7,3.8-4.2c3.6-7.7,10-12.8,16.6-17.7c0.8-0.6,1.6-1.5,2.6-0.6s0.2,1.9-0.1,2.8c-4.5,12.4-4.5,25.1-3.3,38
		c0.5,5.1,3.3,9.1,6.2,12.9s7.4,4.6,12,1.7c4-2.7,7.4-6.2,10-10.3C431.8,342.3,432.1,340.9,434.1,340.4z"/>
	<path id="X05D166M2Gra7OT18_2_" class="st0" d="M538.6,469.3c0.8,4.5,1.8,9,2.5,13.5c3.9,25.7,6.6,51.6,4.4,77.6
		c-2.8,33.2-13.9,63.2-36,88.7C491,670.4,468.4,686.4,444,700s-51.4,26-75.4,42.1c-11.6,7.5-22.6,16-32.8,25.3
		c-0.8,0.8-1.7,2.1-2.9,1.3s-0.3-2.1,0-3.1s0.9-2.3,0.7-3.4c-1.1-7.7,3.4-12.2,8.6-16.7c16.9-14.5,36.4-24.5,56.1-34.3
		c24.6-12.2,50-22.8,72.6-38.8c39.8-28.2,62.1-66.7,67.6-115.1c2.8-25.5,2.6-51.2-0.6-76.7c-0.4-3.7-0.1-7.4-0.1-11.1L538.6,469.3z"
		/>
	<path id="XFF0007M2Gra5OT3_1_" class="st0" d="M231.8,242.4c-14.8-5-29.2-7.9-41.7,4.8c-4.1,4.3-6.9,9.7-8,15.5
		c6.4-9.7,13.4-18.6,26.1-19.6c7.9-0.6,15.4,1.4,22.5,4.6c-0.6,1.6-1.4,1.6-2.3,1.6c-22.9-0.7-32,19.1-26.5,37.2
		c1.6,5.1,2.1,10.5,1.4,15.8c-0.5,4.7-2.8,9-6.4,12c-5.6,4.6-11.1,4.2-14.8-1.9c-5.4-9-12.3-11.4-22.3-8.5s-16.4-2.6-14.9-11.1
		c0.3-1.8,1.1-3.5,2.3-4.9c7.3-8.5,12.8-18.3,18-28.1c3.5-6.6,7.9-12.7,13.1-18.1c10.7-11.1,25.5-13.4,42-6.4
		C224.4,237,228.7,238.4,231.8,242.4z"/>
	<path id="X038203M2Gra3Co14_1_" class="st0" d="M283.4,673.7c-1.4-1.4-1.4-2.9-1.6-4.4c-4-41.7-1.5-83.7,7.4-124.6
		c8.1-36.4,20-71.9,35.4-105.9c6.8-15.2,15-29.6,23.1-44.1c5-8.8,10.7-17.2,16-25.8c2.1-3.4,4-3.7,6.2-0.1c2.2,3.4,5.2,6.1,8.8,8
		c2.7,1.5,3.3,2.7,1.1,5.3c-27.3,32-47.5,68.2-62.8,107.2c-18.5,47.2-30.4,96.3-32.9,147.3c-0.6,11.5,0,23,0,34.5
		C284.1,671.9,284.4,672.8,283.4,673.7z"/>
	<path id="X05D166M2Gra8OT18" class="st0" d="M309.9,585.7c8.9-15.8,17.6-31.7,26.8-47.3c14.4-24.4,30.7-47.6,49.9-68.6
		c13.7-14.8,28.7-28.3,45-40.2c22-16.3,46.8-27.2,71.2-38.8c0.4-0.2,0.9,0,2.4,0c-73.1,57.7-140.6,119.8-194.1,195.8L309.9,585.7z"
		/>
	<path id="X05D166M2Gra7OT18_1_" class="st0" d="M327.5,789c11.4-12.9,23.5-23.3,36.2-33c18.8-14.4,39-26.3,62-32.4
		c31.3-8.3,62-6.6,90.3,10.4c25.2,15.1,26.4,47.5,3.1,65.5c-9,7-18.9,9-29.3,3.1s-16.2-14.7-15.3-27c0.4-6.2,4.6-12.2,10.6-15.4
		c0.7,1.8-0.9,2.7-1.5,3.8c-2.9,5.2-2.7,10.4,0.8,14.9s9.8,6.6,14.7,5.3c19-5.2,24.8-25.4,11.2-39.5s-29.9-17.8-47.8-18.1
		c-24.9-0.5-47.9,7.3-69.9,18.1c-21.9,10.7-42.1,24.6-59.9,41.2l-3,2.6C329.5,788.7,329.1,788.7,327.5,789z"/>
	<path id="XFF0007M2Gra4OT3_4_" class="st0" d="M402.3,286.2c2.1-4.3,4.5-8.4,6.4-12.8c5-11.7,0.2-21.3-12.1-24.6
		s-27.4-2.2-40.9,1.3c-2.9,0.9-5.8,1.4-8.8,1.5c-5.4-0.1-8.9-3-9.3-8.4c-0.6-6.6,1.8-13.1,6.6-17.7c7-6.7,12.9-14.3,17.7-22.7
		c5.8-10.1,14.1-12.4,24.7-7.3c12.7,6,21.2,16.2,25.6,29.3c6.2,18.1,6.7,36.2-2.8,53.7C407.8,281.7,405.3,284.4,402.3,286.2z
		 M412.4,252.8c3.2-15.4-15.4-35.5-32.1-33.9c7.8,4.2,15.2,7.3,20.7,13.2S409.2,245.5,412.4,252.8L412.4,252.8z"/>
	<path id="XFF0007M2Gra4OT3_3_" class="st0" d="M335.7,101.1c-6-16.3-4.9-32.4,3.1-48.7c-5.1,3.7-9.7,14.7-10.9,24.8
		s1.1,17.8,2.5,26.7c-3-3.1-3.8-7.1-5-10.9c-4.3-14.4-6.7-29.2-8.3-44.1c-0.9-7.9,1-15.6,4.5-22.8c6.7-13.6,18-15.3,28.2-4.2
		c6.1,6.7,13.1,8.6,21.6,5.4c1.7-0.6,3.5-1.1,5.3-1.5c10.4-2.1,14.6,1.9,12.9,12.4c-1,6.7-4.9,12.6-10.6,16.2
		c-6.8,4.5-13.8,8.6-20.8,12.9c-5.1,3.1-10.2,6.4-14.3,10.8S337.3,87.9,335.7,101.1z M379.4,42c-0.9,0.3-1.5,0.2-1.8,0.5
		c-7.3,8.2-16.8,13.4-26.2,18.9c-5.1,2.9-9.4,6.9-12.6,11.8c-0.6,1-1.9,2.1,0.3,3.8c6-8.8,15.2-13.5,24.1-18.6
		c3.4-2,6.7-4.4,9.6-7.1C375.5,48.9,378.2,46.2,379.4,42L379.4,42z"/>
	<path id="XBF0202M2Gra7Co4" class="st0" d="M266.4,214.2c-1-3.8-2.8-4.4-4.4-5.2c-9.8-5-19.5-10.1-30.3-12.8
		c-1.2-0.3-3.2-0.2-3.2-1.8s2.2-1.3,3.6-1.5c14.5-2.3,28.5-1.2,42.1,4.5c20.3,8.5,31,25.3,28.5,46c-1.6,13.1-7.3,23.9-20.9,28.5
		l-0.9,0.4c-10.3,3.1-29.3-4.3-35.4-13.7c1.7-1,3.3-0.1,4.7,0.5c3.4,1.3,7.2,1.7,10.8,1.1c7.4-0.9,11-6.5,8.8-13.6
		c-2.9-9.2-8.9-16.3-16-22.5c-4.2-3.8-8.8-7.1-13.8-9.8c-1-0.5-2.4-1.1-2.1-2.4s1.8-1.2,2.9-1.3
		C249.1,209.9,257.6,209.1,266.4,214.2z"/>
	<path id="XFF0007M2Gra8OT3_1_" class="st0" d="M351.8,118.1c0.3-19.7,7.7-33.1,30.1-35c-7.2-3.7-19.5,0.4-25.8,7.1
		s-7.5,16.2-8.9,26.6c-3-5.3-2.2-9.4-2.1-13.5c0.2-17.8,10.1-29.7,27.4-33.9c8.5-2.1,17.1-2.6,25.7-3.8c6.2-0.8,12.4-2.1,18.4-3.8
		c4.1-1.2,7.7-0.6,10.5,2.7c2.8,3.3,2.3,7.1,0.8,10.8c-0.6,1.4-1.4,2.6-2.3,3.8c-6.9,9.1-6.9,10.6-0.9,20.4
		c4.2,6.9,2.1,12.6-5.6,15.1c-3.7,1.1-7.7,1.1-11.3-0.2c-4.3-1.3-8.3-3.5-11.8-6.4c-3.1-2.5-6.6-4.6-10.4-6
		c-11.7-4.9-25.1,0.4-30.3,11.9C354.7,115.3,354.5,117.2,351.8,118.1z"/>
	<path id="XFF0007M2Gra8OT3" class="st0" d="M230.2,200.5c-4.2,1.8-7.9,0-11.5-1.4c-23.8-8.8-40.9-38.2-36.7-63
		c0.9-5.4,2.7-10.8,6.8-14.8s12-5.7,18.6-3.2c7.6,2.9,15.8,4.2,23.9,3.8c5.9-0.2,11.7,2,15.9,6.1c5.6,5.3,5.1,11.2-1.5,15.3
		s-12,6.6-17.3,10.9s-12.8,10.5-16.8,18.1c-5.9,11.3-2.6,20,9.3,24.8L230.2,200.5z M204.7,186.4c-3.3-8.2-6.3-15.1-6.4-22.8
		s3-14.8,4.6-22.1C191.3,154.3,191.3,175.6,204.7,186.4L204.7,186.4z"/>
	<path id="XBF0202M2Gra8Co4" class="st0" d="M307.6,96.8c-1.6,12.8-1,25.2,0.4,37.9c2.4-0.8,1.9-2.4,2-3.6
		c0.5-6.7,3.1-12.5,6.4-18.2c0.6-1,0.9-2.5,2.4-1.9s0.9,2,1,3.1c1.1,9.5,4.1,18.6,8.7,26.9c2.1,4,5.1,7.5,8.7,10.2
		c5.8,4.2,10.8,2.8,14.5-3.4c2.3-3.9,2-8.6,4-12.9c4.6,8.6,6.4,25.3-1,34.4s-17.5,11.8-28.8,9.5c-22.1-4.5-35.4-23.7-32.8-47.1
		c1.3-11.6,5.2-22.8,11.4-32.7C305,97.8,306.2,96.9,307.6,96.8z"/>
	<path id="X05D166M2Gra5OT18" class="st0" d="M227.2,612.9c-0.5-0.3-1-0.7-1.5-1.1c-18.5-24.5-43.1-40.9-70.3-53.9
		s-56.2-21.8-86.8-23.3c-14.6-0.7-28.6,2.1-41.4,9.2c-7.5,4.1-13,9.9-13,19.2c0,6.1,2.7,10.1,8.4,12.1c2.7,0.9,5.6,1.2,8.4,0.9
		c9.8-0.6,13.9-8.1,8-15.3c-0.5-0.7-0.9-1.5-1.2-2.3c6.5,1.8,10.7,11.3,8.5,18.9c-2.2,7.6-10.6,13.5-21.2,12.9
		c-22-1.4-32.2-22.5-19.7-41c8.3-12.4,20.9-18.1,34.8-21.7c10.2-2.7,20.5-2.2,30.8-0.9c39.9,5.1,77.4,16.8,111,39.5
		c17.4,11.7,32.7,25.8,44.3,43.5C226.8,610.4,227.8,611.2,227.2,612.9z"/>
	<path id="XFF0007M2Gra4OT3_2_" class="st0" d="M483.2,214.6c-2,0-2.3-1.6-3-2.6c-9.8-15-23.6-16.4-36.2-3.6
		c-6.4,6.5-11.6,14.2-15.3,22.6c-0.7,1.6-1.6,3.1-2.8,4.4c0.1-13.2-4.6-25.5-7-38.2c-2.1,14.2,5.1,28.2,1.8,42.4h-1.4
		c-0.4-3.2-1-6.4-1.2-9.7c-0.5-8.7-4.3-16.8-10.5-22.9c-7.1-7-12.8-15-13.6-25.4c-0.2-2.3-0.1-4.7,0.2-7c0.9-5.5,4.6-7.9,10.1-6.9
		s8.4,3.2,12.4,5.2c9.7,4.7,20,7.1,30.6,8.9l12.8,2.4c11,2.1,17.4,9.3,20.6,19.5C481.7,207.2,484,210.5,483.2,214.6z"/>
	<path id="X05D166M2Gra7OT18" class="st0" d="M282.4,799.1c-2.3-12-4.3-24.1-6.9-36c-6.4-29.2-14.6-57.8-27.5-84.9
		c-9.3-19.4-20.3-37.4-35-53.2c-24.5-26.4-54.9-40.3-90.7-43c-18.3-1.3-36.7,0.3-54.5,4.7c-0.9,0.2-1.9,0.7-3.2-0.3
		c2.8-2.5,6.4-3.3,9.7-4.3c22.6-7,45.5-11.3,69.4-7.4c27,4.4,49.6,17.1,68.5,36.5c29.8,30.5,46.6,68.1,58,108.5
		c6.5,23,10.2,46.5,13.2,70.2c0.2,2.5,0.3,5,0.2,7.5C283.4,798.1,283.5,798.8,282.4,799.1z"/>
	<path id="XFF0007M2Gra4OT3_1_" class="st0" d="M312,100c0-3.9,0.2-7.8,0-11.6c-0.7-10.6-7.9-16.1-18.4-14.3
		c-10.5,1.8-21.3,7.4-30.5,14.1c-1.9,1.4-3.6,3-5.5,4.3c-6.9,4.5-13.7,1.4-14.7-6.8c-0.7-5.5-0.3-11,2.5-16s3.9-10.9,4.4-16.8
		c1-14.4,10.3-21,24.4-17.1c22.5,6.3,34.7,22.1,39.9,44.1C315.8,86.6,315,93.8,312,100z M308,72.2c-4.1-14.4-22.8-22.7-35.1-16.2
		c14.3-0.3,26.1,4.7,35,16.2H308z"/>
	<path id="XFF0007M2Gra1OT3_1_" class="st0" d="M479.6,274.4c5.8-1.1,10.8-1.8,15.7-3.2c9.9-2.7,18.6-7.3,23.3-17.1
		c2-3.9,2.8-8.2,2.5-12.5c-0.1-2,0-4,0.5-5.9c2.3-10.1,9.4-12.4,17-5.5s12.6,16,8.2,27.5c-2.5,6.5-2.2,13.4,0.3,20.1
		s4.4,12.9,6.6,19.4c1,3.2,1.4,6.5,1.3,9.9c-0.1,5.7-2.9,9.6-8.4,10.9c-3.6,0.7-7.2,1.2-10.9,1.5c-1,0.1-2.2,0-2.5-1.1
		s0.9-1.6,1.8-2c3.4-1.3,6.5-3.4,9.1-6c5.2-5.5,5-10.2-0.6-15.5s-13.3-8.2-20.8-10.3c-12.7-3.5-25.4-6.8-38.5-8.2
		C482.5,276.4,480.8,275.7,479.6,274.4z"/>
	<path id="XFF0007M2Gra2OT3" class="st0" d="M182.6,181.5c-7.4-3.2-15.2-5.3-23.2-6.4c-5-0.7-10-0.6-14.9,0.5
		c-9.8,2.3-16.2,11.8-14.5,21.8l1.1,6.6c-0.9-0.2-1.5-0.2-1.7-0.5c-9.1-10.5-9.8-25.8-1.6-37c3.4-4.7,6.9-9.4,10.4-14.1
		c5.8-8,10.3-16.8,13.2-26.2c1.4-4.1,3.5-7.9,8.1-8.6s7.9,2.2,10.4,5.7c4.9,6.8,8.2,14.4,7.3,22.8c-1.4,12.7,3.6,22.7,11.5,31.8
		c0.9,1,2.4,1.9,1.9,4.4c-12.3-8.4-17.1-22.6-27.7-31.9C169.6,160.8,174.6,171.9,182.6,181.5z"/>
	<path id="X038203M2Gra6Co14" class="st0" d="M103.2,339.4c1.3,0.6,1.3,1.9,1.4,3c2.1,17.7,12.4,30.6,25,41.9s27.6,21.9,41.6,32.7
		c21,16.1,39.9,34.2,52.1,58.3c7.5,14.9,11.5,30.8,14.2,47.1c0.5,1.5,0.2,3.1-0.9,4.3c-2-5.9-3.7-11.6-5.7-17.1
		c-10.3-28.2-28.3-50.8-50.8-70c-12.1-10.4-25.5-19.3-38.1-29s-23.3-18.8-30.9-32.1c-6.6-11.5-8.3-24.1-8.8-37
		C102.2,340.7,102.2,339.8,103.2,339.4z"/>
	<path id="XFF0007M2Gra5OT3" class="st0" d="M164,308c-4.1,4.2-8.3,8.4-14.8,9s-8.3-2.8-10.9-6.6c-4.7-6.8-7.5-14.4-10.7-21.9
		c-2.5-6-7.1-11-12.9-14c-10-5.4-13.5-12.6-12.3-23.9c1.1-9.7,8-12.7,15.9-6.9c1,0.8,2,1.7,2.9,2.7c9.2,9.8,20.2,12.2,32.6,6.9
		c4.9-2.2,9.5-4.8,13.8-8c1.3-0.9,2.3-2.5,4.6-2.1c0,2.1-1.7,3.1-2.7,4.4c-9.4,11.6-17.7,24.2-24.7,37.4c-1.8,3.4-3,7.1-3.6,10.9
		c-1.7,9.1,3.7,14.6,12.8,13.3c3.2-0.5,6.4-1.5,9.5-2.2L164,308z"/>
	<path id="X81B540M2Gra3OT4" class="st0" d="M254.1,524.9c0-4.1-0.4-8.3,0.1-12.3c2.9-26.6,4.2-53.2,0.2-79.7
		c-2.4-16.1-6.5-32.1-16.4-45.6c-6.4-8.7-13.7-16.8-24.7-20c-8.2-2.4-15.3,0.4-20.8,6.4s-3.9,12.6-1.3,18.9s11,7.9,17.1,2.4
		c1-0.9,1.8-3.1,3.5-2s0.3,2.8-0.1,4.2c-1.9,6.9-9.5,12.4-16.6,12.2s-15.6-6-17.5-12.7c-3.2-11.4,0.1-21.3,7.8-29.4
		c9.2-9.6,21-9.6,33-6.5s20.6,12.6,27.1,23c8.1,12.7,13.3,27,15.3,41.9c2.2,17,2.2,34.3,0.1,51.3c-1.8,16-4,32-6.1,47.9H254.1z"/>
	<path id="XFF0007M2Gra4OT3" class="st0" d="M351.2,16.5c-2.2,0.5-3.1-0.9-4.3-1.7c-9.5-6.7-20.1-4.6-26.2,5.3
		c-5.1,8.1-7,17.2-7.3,26.6c0,1.2-0.1,2.3-0.2,3.5s-0.4,0.5-1.1,1.3c-5.5-9.6-12.2-18-18.7-26.7c3.6,12.1,14.1,20.9,15.6,34.1
		c-1.5-2.5-3-4.9-4.5-7.4c-4.1-7.1-9.7-12.3-17.7-15.2c-8.2-2.8-15-8.5-19.2-16c-4.5-7.9-1-14.8,8-14.1c15.2,1.2,29.7-1.9,44.3-5.3
		S345.4,3.9,351.2,16.5z"/>
	<path id="XFF0007M2Gra1OT3" class="st0" d="M426.4,83.1c2.5-3.4,4.6-5.8,6.1-8.4c4-7,2.4-11.5-4.9-14.7c-4.3-1.8-9.1-2.3-13.7-1.6
		c-13.9,1.7-27.8,3.5-41.1,7.9c-0.9,0.4-1.9,0.3-2.7-0.3c1.3-2.5,3.9-3.3,6-4.7c8.5-5.5,15.4-12.2,17.4-22.7
		c0.8-3.8,0.3-7.7-1.4-11.2c-1.1-2-2-4.2-2.5-6.5c-0.6-3.8-0.7-7.7,2.7-10.6s6.7-1.3,9.9-0.1c8.3,3.1,14.5,8.3,14.9,18
		c0.3,8.1,4.5,14.1,9.9,19.5c3.6,3.7,7,7.6,10.1,11.7c7.6,10.1,6.5,15.2-4.5,21.6C430.7,82.1,428.6,82.9,426.4,83.1z"/>
	<path id="X038203M2Gra3Co14" class="st0" d="M336.5,250.7c4.6,3.3,8.9,4.8,13.7,4.5c1.8-0.1,2.2,1.6,2.3,3.2
		c1.5,20.3,1.6,40.5-1,60.8c-1.4,11.2-2.9,22.5-5.6,33.4c-3.1,12.9-6.2,25.8-10.9,38.2c-4.1,10.9-7.3,22.1-11.2,33.1
		c-3.2,8.8-6.9,17.4-10.7,26.8c-1.6-3.2-0.1-4.9,0.4-6.7c4.8-16.4,10.7-32.5,14.7-49.2s7.3-30.6,9.6-46.2c2.3-15,3.6-30.1,3.8-45.2
		C341.8,286.2,339.3,269.1,336.5,250.7z"/>
	<path id="X66FF00M2Gra3Co13" class="st0" d="M333.5,236.1c-1.6-6.2-3.1-12.5-4.9-18.6c-3.2-10.5-6.6-20.9-9.8-31.4
		c-0.4-1.2-1.7-2.4-0.6-3.7s2.5-0.2,3.6,0.3c4.6,2.2,9.4,1.9,14.2,1.4c2.6-0.3,4.2,0,4.7,2.8c1.9,9.3,3.9,18.5,5.8,27.8
		c0.4,1.3,0.2,2.7-0.7,3.8C340.6,223.5,336.4,229.5,333.5,236.1z"/>
</g>
</svg>
