<?xml version="1.0" encoding="utf-8"?>
<!-- Generator: Adobe Illustrator 24.1.0, SVG Export Plug-In . SVG Version: 6.00 Build 0)  -->
<svg version="1.1" id="图层_1" xmlns="http://www.w3.org/2000/svg" xmlns:xlink="http://www.w3.org/1999/xlink" x="0px" y="0px"
	 viewBox="0 0 780.2 822.7" style="enable-background:new 0 0 780.2 822.7;" xml:space="preserve">
<style type="text/css">
	.st0{fill:#FFFFFF;stroke:#000000;stroke-miterlimit:10;}
</style>
<g>
	<path id="XCD05D3M2Color8_8_" class="st0" d="M305.3,568.5c4.9-8.2,9.3-16.6,17.2-22.3c1.1-0.8,2-2.3,4.7-1.6
		c-21.9,34.4-27.7,70.6-11.8,109.1c-2.8-31.2-4.8-62.3,14.6-89.9c-2.3,25,1.1,48.2,18.8,68.8c0.4-4-1.1-6.4-1.8-8.9
		c-4.3-14.9-7.4-30-8-45.6c-0.2-5.1,1.2-9.9,1.6-14.9c0.1-1.1,0.3-2.6,1.8-2.6c1.6,0,1.3,1.6,1.6,2.7c1.6,7.3,4.2,14,10,19.1
		c1.4,1.2,3,3.6,5,2.3c1.6-1.1,0-3.4-0.5-5.1c-2.4-9-4.5-18.1-3.1-27.5c0-0.3,0.1-0.7,0.1-1c0.6-2.5,0.9-6.3,3.3-6.7
		c2.8-0.5,2.9,3.5,3.9,5.5c4.3,9.2,9.6,17.9,15.9,25.9c4.8,6,7.8,13.3,8.6,21c2.1,18.6,2.2,37.3-3.6,55.4c-2.5,7.7-6.9,14.7-10,22.2
		c-2.5,5.6-4.2,11.6-5.1,17.7c-0.7,5.7-4.5,10.3-7.8,14.9c-6.1,8.6-12.3,17-18.7,25.3c-9.8,12.8-12.1,27.3-9.8,42.9
		c0.3,1.8,1.4,4,0,5.2c-1.6,1.3-3.3-0.8-4.8-1.6c-24.3-12.7-47.1-27.5-67.7-45.6c-17.9-15.7-28.4-35.3-34-58
		c-5.5-22.5-8.6-45.2-6.2-68.3c0.9-9.2,2.5-18.4,5-27.3c7.5-26.7,26-44.6,45.9-61.7c2.1-1.8,4.5-3.4,6.8-5.1
		c6.5-4.9,4.8-4.1,9.4,1.3c9,10.4,19.1,19,33.3,21.2c0.9,0.1,2.2,0,2.3,1.4c0.1,1.4-1.2,1.8-2.1,2.5
		C310.7,546.6,306.3,556.7,305.3,568.5z"/>
	<path id="XCD05D3M2Color8_7_" class="st0" d="M615.9,730.1c-2.9-3.8-5.1-7-7.7-10c-9-10.6-20.7-16.9-33.9-21
		c-10.9-3.4-22-6.5-31.7-13c-7.2-4.8-11.8-11.7-16.7-18.4c-10.3-14-23-25.2-37-35.4c-10.9-8-19.9-18.4-26.4-30.3
		c-6-11-4.8-21.5,3.5-30.9c5.4-6.2,7-13.8,8.5-21.5c0.2-1,0.1-2,0.3-3c0.2-1.1,0.2-2.7,1.5-2.8c1.7-0.2,1.3,1.5,1.7,2.5
		c2.2,6.8,5.8,13,10.6,18.3c-3-12.6-4.3-25.4-4.1-38.3c2.5,4.7,5,9.3,7.4,14c2.4,4.4,5.2,8.5,8.2,12.5c0.7,0.9,1.3,2.3,2.7,1.7
		c1.4-0.6,0.6-2,0.4-3.1c-2.3-12.4-6.6-24.3-10.3-36.6c14.7,9,20.8,24.8,29.7,38.2c1.5-3.5,1.5-3.5-4.2-15.8
		c-2.5-5.4-5.9-10.2-8.9-15.4c27,18.1,46,43.3,62.5,70.6c-8.3-40.8-35.3-66.6-70-86.4c29.3-0.1,52.1,14.8,74.2,32.5
		c-4.9-12.5-26.5-27.5-60.2-42.4c4.4-2.4,20.6-0.4,35.9,4.6c11.9,3.9,22,10.8,31.4,19.8c-2.7-9.2-23.5-26.6-40.3-31.7
		c-17.5-5.4-34.3-3-51.9,3.1c12.6-18.8,29.8-25.9,48.7-20.7c18.6,5,34,15.7,48.7,27.6c8.9,7.2,17.9,14.5,25.4,23.2
		c13.5,15.5,21,35.3,20.9,55.9c0.1,13.6,2.4,26.2,8.3,38c8.1,16,4.5,30.7-3.3,45.6c-5.6,10.7-12.7,20.9-15.3,32.8
		c-2,9.6-3.7,19.2-6.5,28.6C617.5,725.2,616.7,727.4,615.9,730.1z"/>
	<path id="XCD05D3M2Color8_6_" class="st0" d="M46.7,630.2c11.5-6.5,12.4-18.2,14-29.2c2.3-15.6,4.6-31.2,10.4-46.1
		c7.9-20.1,21.9-35.5,38.1-49.2c23.9-20.4,51.9-35.4,82.1-43.9c8-2.2,16.2-3.9,24.4-5c13.3-1.7,23.6,3.6,32.8,12.4
		c10.2,9.7,18.2,21,25.3,33.4c-33.6-18.5-65.4-15.4-95.7,7c15.3-5.9,31-6.5,47-4.7c-29.7,5.5-52.9,21.1-71.6,44.2
		c26.5-19.9,56.3-31.9,88.6-38.3c-7,3.7-12.7,9-18,14.6c-1.7,1.8-4.2,3.2-5.2,6.6c12.2-6,24.8-8.7,37.7-10.3
		c-5.9,3.5-11.6,7-16.4,11.8c-12.3,12.2-19.1,27.3-24.3,43.6c-4,12.6-4.7,25.7-7.5,38.5c-4.3,20-14.9,34.3-34.6,41
		c-9,2.9-18.4,4.4-27.9,4.6c-8.3,0.4-16.6,0.4-24.9-0.1c-6.6-0.4-13.2-1.7-19.5-3.9c-4.6-1.7-9.5-3.8-12.2-8.3
		C81,634.4,67,631.4,51.8,631C50.3,630.9,48.6,631.9,46.7,630.2z"/>
	<path id="X009E41M2Gra4OT27" class="st0" d="M256.6,169.8c-10.5-6.5-21.3-9.1-33.2-4.3c12.3,2.3,24.2,5.1,31.6,16.5
		c2.2,3.4,3.9,7.2,3.3,12.5c-10.7-11.3-23.5-13.6-37.6-12.2c7.2,2,14.1,4.6,20.3,8.8c9.3,6.4,14.6,15.2,16.5,26.3
		c0.2,1.3,0.9,2.9-0.5,3.7c-1.7,0.9-2-1.2-3-2c-3.9-2.9-8.5-4.7-13.3-5.5c-18-3.2-35.8-2.4-52.9,4.8c-6.7,2.8-11.7,7.7-13.6,15
		c-0.7,2.8-2,2.8-3.7,1c-3.1-3.3-5.9-6.9-6.7-11.5c-3-16.9-3.4-33.5,7.5-48.3c3.7-5,8.2-9.1,12.9-13.2c0.9-0.8,2.1-1.4,1.9-2.7
		c-0.2-1.6-1.9-1.2-2.9-1.3c-10.5-1.2-19-6.1-26.7-13.3c-9.2-8.5-18.8-16.4-28.8-23.9c-1.4-1.1-3.4-1.7-3.5-4.1
		c8.3-1.4,15.4-5.5,22.5-9.9c10.6-6.8,22.6-7.1,34.7-6.3c2.4,0.2,4.8,0.5,7.2,0.8c-13.4-22.8-11.1-45.4-0.7-67.9
		c5.6-12,12.9-23,21.8-32.8c0.9,16.9,12.9,24.4,25.1,30.8c13.2,7,20.1,17.9,24.4,31.3c0.3,0.9,0.2,2,1.4,2.7
		c1.6-1.3,1.3-3.2,1.6-4.9c1.1-5.4,2-10.8,3-16.2c1.6-9.2,7.2-15.6,14.6-20.6c10.5-6.9,22.3-10.7,34.5-13.4c0.1,0.8,0.2,1.3,0.1,1.5
		c-6.9,9.6-4.8,18.9,2,27C327.7,52,329.1,67,325,83.4c-0.6,2.5-2.1,5-1.1,8.3c4.7-3.4,9.1-7,14.6-8.9c21.7-7.8,41,8.1,45.5,24.6
		c2.2,8.2,2,8.1-6.4,8.4c-20.1,0.7-30.4,12.3-33.1,32.5c-0.9,7.1,0.3,14.3,2.8,21.1c0.4,1,1.2,2.3-0.2,3.1c-1.1,0.5-1.7-0.7-2.4-1.3
		c-8.1-7.3-15.4-15.1-17.9-26.3c-2.2-9.9,1.6-18.7,5.2-27.4c2-5,4.7-9.7,7.8-15.8c-9.5,6.2-14.6,13.9-17.9,22.9
		C319,132,317.7,140,318,148c0.1,1.1,0.5,2.6-1.1,2.9c-1.4,0.3-1.8-1.3-2.3-2.3c-3.6-6.7-4.8-14.1-6-21.5c-0.2-1.4,0.4-3-1.2-4.5
		c-4.1,5.4-4.2,12.3-7.1,19.2c-12.1-21.2-11.9-43.4-10.8-66.4c-5,6.5-6.4,27.6-4.3,57c-16.3-12.1-27.6-27.7-39.3-43.3
		c-0.1,8.1,3.2,15.1,6.4,22.2c3.4,7.2,7.3,14.1,11.7,20.8c-10.2-7.2-21.7-10.8-33.5-14.4c13.9,9.4,23,22.6,30.3,37.6
		c-12.7-11.3-27.4-17.7-43.9-20.6C233.6,142,247.4,154.3,256.6,169.8z"/>
	<path id="XCD05D3M2Color8_5_" class="st0" d="M655.4,497.4c-10.3-10.1-22.6-17.9-36-23.2c-13.6-5.3-27.6-8.4-42.3-7.6
		c0-0.5,0-1-0.1-1.5c5.4-0.7,10.8-1.6,16.2-2c5.5-0.4,11-0.1,16.5-0.2c5.7,0.1,11.3,0.5,16.9,1.2c5.4,0.5,10.5,2.6,16,2.3
		c-3.6-2.8-7.9-4-12-5.3c-18.6-5.6-37.6-6.8-56.8-5.5c-1.4,0.1-3.4,1.1-4-0.7c-0.6-1.7,1.6-2.2,2.6-3.2c4.3-4,9.4-6.7,14.9-8.7
		c-9.8-1.7-18.7,0.1-26.5,6.1c-7,5.3-14.4,9.5-23.2,11.1c-7.1,1.3-14.3,0.8-21.4,1c-2.2,0.1-3.1-0.9-2.2-3.1
		c4.3-10.4,9.1-20.4,18-28.2c8.7-7.6,18.5-13.2,29.4-15.5c14-3,27.9-5.8,42.7-3.6c33.7,5,62.2,20.7,89.3,39.9
		c24.4,17.1,47.4,36.2,68.7,57c8.3,8.2,15.5,17.5,17.7,29.5c0.2,1.1,0.8,2.4-0.4,3.2c-1,0.6-1.9-0.2-2.7-0.7
		c-10.5-5.7-20.6-4.3-30,2.5c-8.3,5.9-15,13.7-22.7,20.3c-9.8,8.5-20.5,13.6-33.9,13.8c-14,0.2-28,0.5-41.5,5.2
		c-3.7,1.3-3.1-0.6-2.8-3.2c2.4-19.6-1.2-37.3-15.8-51.9c-7.5-7.5-14.6-15.6-21.5-23.6c-5.8-6.7-12.2-12.8-19.1-18.2
		c-3.7-2.9-7.5-5.6-12.1-6.8c-1-0.3-2.2-0.5-2-1.8c0.2-1.2,1.4-1.3,2.4-1.3c4.5-0.2,9-0.5,13.5-0.5c16.9,0,31.7,6.7,46.2,14.4
		c5.8,3.1,11.5,6.5,17.2,9.7L655.4,497.4z"/>
	<path id="XCD05D3M2Color8_4_" class="st0" d="M642,374.2c-23.4,1-43.8,9.3-63.1,21.5c7.9-15.2,20.2-25.3,36.3-31.7
		c-4.9-1.7-14.3,0.3-20.5,4.1c-6.4,3.9-11.3,9.3-15.9,15c-6.7,8.3-14.2,15.8-23.4,21.3c-0.6,0.2-1.2,0.3-1.8,0.4
		c1.6-12.9,8.9-22.4,16.8-31.9c-4.5,0.4-14,7.2-17.8,12.6c-1.9,2.7-4,5.5-4.7,8.8c-1.4,6.3-6.1,10.5-9.5,15.6
		c-2.1,3.1-5.8,3.9-8.9,5.1c-3,1.1-1.8-2-1.5-3.2c3.1-10.9,5.9-21.7,9.8-32.4c10.4-28.7,31.5-46.8,57.6-60
		c29.4-15,62.2-22,95.1-20.3c29.2,1.4,51.2,15.9,67.6,39.7c4.2,6.1,7.2,12.7,10.2,19.4c1.3,2.7,0.4,3.4-2.2,2.9
		c-9.5-1.8-15.8,3.4-21.6,9.8c-8.6,9.6-14.3,21.2-21.4,31.9c-2.8,4.5-6.1,8.7-9.8,12.6c-13.5,13.8-28.8,16.2-45.7,6.7
		c-9-5.1-17.8-10.4-28-12.9c-14.7-3.5-29.8-5.5-45-5.8c-1.8-0.1-4,0.7-4.7-1.6c-0.7-2.1,1.7-2.5,2.9-3.6
		c13.1-11.9,29.3-17.3,46-21.7C640,376.2,641.4,376.5,642,374.2z"/>
	<path id="XCD05D3M2Color8_3_" class="st0" d="M131.2,392.5c11.1-1.7,21,0.8,31.1,3.4c-16.7,1-32.7,6.8-46.1,16.9
		c11.3-2.3,22.7-3.7,34.2-4.1c8.1-0.3,16.3,0,24.3,1c1.4,0.2,3.7-0.3,3.6,1.6c-0.1,1.8-2.4,1.2-3.8,1.2c-21.2,1.4-40.8,7-57.5,20.7
		c-2.9,2.4-6,4.6-8.6,8.9c7.9-3.6,14.9-6.8,21.9-10c9.7-4.4,19.6-8.5,30-10.5c6.5-1.2,13.1-2.8,20-2c7.4,0.8,14.9,0.1,22.3,0.1
		c1.1,0,2.5-0.4,3,1.1c0.4,1.2-0.8,1.6-1.3,2.4c-2.8,4.3-5.2,8.5-4.4,14.2c0.5,3.3,1.8,4.2,4.7,4.2c6.8,0,13.6,1.4,19.9,4
		c1.1,0.4,2.1,1,3.1,1.6c1,0.7,2.8,1.3,2.1,2.9c-0.7,1.5-2.3,0.6-3.6,0.5c-13.5-1-27-1.6-40.3,1.1c-12,2.4-22.8,8.2-33.4,14.1
		c-10.8,5.9-21.5,12-32.5,17.4c-12,5.9-23.5,4.5-35-0.9c-15.7-7.3-27.9-18.8-37.4-33c-11-16.4-26.1-25.6-45.3-28.9
		c-0.8-0.1-1.6-0.4-2.1-1c-0.7-1.2,0.5-1.7,1.3-2.3c12.7-8.8,21.1-21.5,30.9-33.1c13.6-16,31.8-25.4,51.1-32.9
		c12.6-4.9,25.5-7.6,39-5.6c5.1,0.7,10.1,2.2,14.7,4.5c2.7,1.4,4,2.6,1.4,5.5c-3.5,4.1-4.7,9-4.3,14.4c0.2,2.8,1.3,3.7,4,3.6
		c6-0.1,12-0.5,17.6,2.2c0.8,0.3,1.5,0.6,2.3,1c2.2,1.6,6,2.9,5.3,5.7c-0.5,2.2-4.2,0.8-6.3,0.7c-7.5-0.3-14.5,1.7-21.2,4.8
		C134.3,389.2,132.5,390,131.2,392.5z"/>
	<path id="XFF66FFM2Color7_2_" class="st0" d="M178.2,248.4c7.1-2.2,14.5-2.9,21.9-1.9c12.6,1.3,24.9,4.9,36.2,10.4
		c20,9.8,38.6,22.5,55,37.6c14.5,13.4,25.5,29.4,31.4,48.4c0.8,2.5,3.6,4.5,2,9.2c-5.8-15-15.8-24.9-27.7-33.2
		c5.2,8.9,12.6,16.6,14.7,27.3c-10.8-12-20.5-25-35.6-32.2c14.8,15.8,29.4,31.6,37.4,52.4c-7.6-8.7-16.5-14.8-29.4-16.1
		c8.3,12.5,16.9,23,30.2,29.4c-9,1.3-18.2,0.9-27.1-1.4c-9.1-2.4-16.5-7.2-23.2-13.7c0.8,4,1.6,7.6,4.1,10.6
		c0.6,0.7,1.6,1.4,0.9,2.5c-0.5,0.8-1.4,0.6-2.3,0.5c-8.3-0.8-16.4-2.7-23.7-6.9c-0.9-0.5-1.7-1.5-2.7-0.9c-1.3,0.8-0.5,2.2-0.1,3.1
		c2.6,5.8,6.9,9.7,14,10.8c-3.7,4.2-8.9,4.6-12.9,6.9c-3.7,2.1-7.3,4.5-11.5,5.9c-2.4,0.8-4.3,3-5.9,5.2c-5.1,7.2-11.6,9-19.4,5
		c-10.4-5.3-18.6-13.1-26.2-21.9c-7.3-8.5-14.5-17.5-25.9-21.1c-1.4-0.5-3-1.1-4.4-1c-5.1,0.6-5.1-1.1-3.3-5.2
		c9.1-21.4,25.7-32.3,48.4-34.8c5.9-0.7,11.7-2.3,17.8-2.3c4.1,0,1.7-2,0.7-3.4c-8-10.8-14.3-22.5-17.6-35.6
		c-0.8-3.2-1.3-6.5-1.7-9.8C191.2,262.5,188.8,253.5,178.2,248.4z"/>
	<path id="XCD05D3M2Color8_2_" class="st0" d="M535.9,331.4c-3.4-5.4-5.3-11.6-5.5-17.9c0-1.1,0.3-2.5-1.2-2.8
		c-1.3-0.2-1.5,1.1-2.1,1.9c-6.3,7.7-7.8,16.7-7.6,26.3c0.1,2.8-0.1,5.6-0.6,8.4c-5.6-9.5-12.1-18.8-10.4-30.6
		c0.9-6.1,6.1-9.3,11.4-11.7c7.8-3.5,9.7-6.9,7-15.2c-1.4-4.2-3.3-8.3-5.7-12.1c-3.6-6.1-2.3-12.7,0-18.8
		c8.9-23.4,25.8-39.6,47.7-50.9c9.5-4.9,19.4-9,29.9-10.8s20.7,0.5,30.7,4.2c13.8,5.1,27.8,9.3,42.7,9.7c6.6,0.2,13.2-0.6,21.2-1.5
		c-4.7,5-8.5,9-12,13.2c-7,8.6-8.7,18.8-10.1,29.3c-3.4,25.4-20.8,43.6-46.4,46.1c-20.3,1.9-36.7,11.2-51.8,23.6
		c-12.8,10.4-24.3,22.3-34.3,35.4c7.9-18.7,16.5-36.9,31.2-51.6c-7.3,3.1-13.6,7.6-19.9,12.4c1.5-7.1,4-14,7.4-20.5
		c3.4-6.4,8.2-11.9,13.2-17.3c-9.7,4.7-17.9,11.9-23.8,20.9C540.9,310.2,537.2,320.6,535.9,331.4z"/>
	<path id="X009E41M2Gra8OT27" class="st0" d="M389.8,727.6c5.2-0.3,8-3,11.3-4.7c22.9-11.3,45-24.1,63.5-42
		c8.3-8,14.8-17.6,22.3-26.3c1.6-1.9,3.3-3.7,5.2-5.4c2-1.7,4-4.1,7-2.3c2.9,1.5,4.7,4.4,4.8,7.7c0.1,5.3-1.6,10.2-3.8,14.9
		c-2.1,4.6-5.1,8.7-8.9,12c-14.2,12.3-28.7,24.3-44.5,34.6c-3.6,2.3-3.5,3.5,0.3,5.9c5.6,3.4,11.9,4,18.1,5.2
		c6.1,1.1,11.8,3.6,16.7,7.4c6.2,4.9,8,9.5,5.5,16.5c-2.9,7.9-2.5,14.9,1.9,22.3c7,11.7,6.9,24,0.8,36.2c-2.1,4.3-4,8.6-7.3,13.1
		c-2.5-6.9-3.8-13.6-8-19.2c-6-7.9-13.6-12.6-23.4-13.7c-9.9-1.2-19.3-3.2-26.6-10.9c-9.5-10.1-10.5-22.5-9.9-35.4
		c0.2-3.6,2.8-8.8,0.6-10.4c-2.5-1.8-6,2.7-9,4.4c-20.2,11.6-40.6,22.9-62,32.2c-2.9,1.3-3.8,1.3-4.7-2.1c-1.1-4.4-1.3-8.9-0.7-13.3
		c1.2-7.9,5.9-12.9,13.3-15.2c14.5-4.7,23.7-15.3,32.2-27.1c11.4-15.7,22.1-31.7,28.3-50.3c7-20.6,9.5-42.4,7.3-64
		c-0.3-3.1-2.4-4.1-4.6-5.3c-18-10-32.7-25.1-42.3-43.4c-0.6-1.2-1.1-2.4-1.7-3.6c-1.5-2.8-0.5-3.4,2.4-3.1c9.6,1.1,19,0.8,27.8-3.6
		c2.2-1.1,2.7,0,2.7,1.9c0,3.5-0.2,7,1.1,10.4c1,2.6,1.7,5.2,5.1,5.2s5.6-1.8,6.8-4.9c0.3-0.9,0.1-2.1,1.5-2.7
		c2.6,1.6,3,4.8,4.8,7.1c2.8,3.5,5.5,7,10.7,5.4c5.5-1.7,10.2-6.8,9.5-12c-0.9-6.3,0.5-12.7,4-18c2.1-3.4-0.6-5.8-3-8.1
		c-2.1-2-6.2-3.2-4.4-7.4c1.7-4,5-5.7,9.5-5.9c12.2-0.7,16,6.8,16.6,15c1.4,20-4.8,38-16.2,54.3c-2.2,3.1-4.9,6.1-8.5,7.6
		c-3.5,1.4-4.1,3.8-4.2,7c-0.4,13.3-1.1,26.6-1.2,40c-0.1,17.9-6.7,33.8-14.3,49.4C414.4,699.3,405,714.9,389.8,727.6z"/>
	<path id="XF37FFFM2Gra7OT19_2_" class="st0" d="M420.4,508.7c-3.6,10-10.4,16.2-19.2,20.4c-8,3.8-16.7,4.9-25.3,4.7
		c-16.9-0.3-33.5-2.5-49.6-8.1c-13.2-4.5-24.4-11.9-34.5-21.3c-10.2-9.4-18.6-20.4-26.9-31.4c-8.4-11.2-16.7-22.4-27.8-31.3
		c-5.6-4.6-12.7-6.9-19.9-6.7c-4,0.1-4.1-1.2-2.4-3.9c4.9-8.2,11.6-14.9,17.8-22c11.2-12.8,25.9-15.9,41.7-18
		c8.8-1.2,17.7-1.9,26.5-2c7.9,0,15.3,1.8,21.6,6.5c6.5,4.8,10.1,11.7,11.8,19.6c0.3,0.8,0.1,1.7-0.5,2.3c-1.1,0.8-1.7-0.3-2.5-0.8
		c-7.3-4.7-19.5-3.8-24.8,1.9c1.6,2.1,4,2.5,6.2,2.6c7,0.2,12.5,3.6,18.3,6.9c3.8,2.1,7.1,4.8,9.9,8c1.4,1.6,2.6,3.5,3.8,5.2
		c0.6,0.8,1.5,1.7,0.8,2.7c-0.9,1.4-2.1,0.2-3.1-0.1c-9.1-3.3-17.9-3-26.4,1.8c-0.9,0.4-1.7,1-2.5,1.6c-1,0.9-3.3,1.3-2.5,3.2
		c0.6,1.4,2.4,0.4,3.7,0.4c12.5-0.7,24.6,0.6,35.3,8.1c0.4,0.3,0.8,0.5,1.2,0.8c2.1,1.9,5.4,3.7,4.9,6.4c-0.6,3-4.5,1.4-6.9,2.3
		c-0.9,0.3-2,0.2-2.9,0.5c-2.6,0.8-7.1,1.4-6.9,3.7c0.3,3.1,4.4,1,6.7,1.4c11,1.9,21.6,4.2,28.6,14.1c2,2.8,2.3,4.1-1.7,5.6
		c-9.5,3.5-18.2,8.4-23.5,17.6c-0.8,1.3-2.8,2.7-1.4,4.3c1.2,1.4,3.2,0.4,4.8,0.1c8.3-2,16.1-4.6,22.9-10.4
		c8.4-7.1,15.7-6.8,23.2,0.1C405.3,511.2,411.8,515.5,420.4,508.7z"/>
	<path id="XFF66FFM2Color7_1_" class="st0" d="M391.9,300.8c-11.2-32.4-6.6-64.4,1.1-96.4c-11.8,16.3-17.5,34.4-18.4,54.2
		c-0.9,19.7,3.1,38.5,10.6,56.7c-13.1-13.3-16.8-30.8-21.8-47.8c-1.2,17.1,3.7,33,10.3,49.3c-5.1-2-6.9-6-8.6-9.5
		c-14.1-27.7-18.4-57-13.6-87.7c3-18.8,9.1-36.5,20.2-52c10.9-15.2,26.6-24.4,42.7-32.8c4.4-2.3,9-4.2,13.6-6.3
		c1.8-0.8,3.8-1.1,2.8,1.7c-2.6,7.3-0.4,14.3,3.2,20.1c13.1,21.3,13.9,44.8,13.4,68.5c-0.4,16.4-0.7,33-4.7,49.1
		c-3,12.3-6.8,24.3-15.2,34.3c-6.2,7.4-9.6,16.3-11.5,25.7c-0.5,2.4-0.9,4.8-3,7.8c-6.2-16.8-2.7-32.1,2.5-47.3
		c-5.4,2.3-7.4,6.4-13.6,26.5c-2.5-3.4-2.8-6.4-0.7-22.9c1-7.8,2-15.7,3.4-23.6C397.3,278,393.6,289,391.9,300.8z"/>
	<path id="XF37FFFM2Gra7OT19_1_" class="st0" d="M458,437.4c-0.7-5.7-0.5-10.1,1.6-14.2c3.4-7,5.6-14.5,10-21.1
		c0.9-1.3,2.1-3.3,0.7-4.6c-1.8-1.7-3.3,0.5-4.7,1.5c-2.1,1.7-3.9,3.7-5.2,6c-0.7,1.2-1.2,3.3-3.1,2.6c-1.6-0.5-1.5-2.5-1.5-3.9
		c-0.1-6.3-0.4-12.6,0.7-18.9c1.8-10.9,4.7-21.4,9.8-31.4c-4.6,0.8-9.2,6-12.3,13.1c-2.4,5.6-3.2,11.7-4.4,17.7
		c-2.3-0.9-1.9-2.7-2.3-4c-4-16.4-2.1-32.6,1.8-48.7c0.2-1,0.9-2-0.2-2.6c-0.8-0.5-1.5,0.3-2.2,0.7c-8.5,5.2-11.9,13.5-13.7,22.7
		c-0.1,0.6-0.2,1.3-0.3,1.9c0,0.1-0.2,0.3-0.3,0.4c-7.4-5.3-11.1-17.2-8.3-26.8c3.9-13.2,12.5-23,23.6-30.6
		c15.4-10.5,31.9-17.2,51.1-13.8c6.7,1.2,12.4,4.7,18.2,8c1.6,0.9,2.9,2.5-0.2,3.3c-12.5,3.2-20.5,24.1-13.6,36.8
		c7.8,14.5,11.8,30.3,15,46.3c3.1,15.5,3,31.4-0.3,46.8c-4.2,20.5-14.4,38-27.6,54.1c-8.1,9.9-19.6,13.1-31.2,16.3
		c-4.5,1.2-9.2,1.6-13.8,2.3c-0.8,0.1-1.8,0.2-2.1-0.8c-0.4-1,0.5-1.4,1.2-1.9c5.7-5,7.5-11.9,9.3-18.8c4.3-15.9,8.5-31.8,19.1-45.1
		c0.8-1,2.4-2.2,1.4-3.4c-1.2-1.4-2.6,0.4-3.9,0.7C465.2,429.1,462.2,433.1,458,437.4z"/>
	<path id="XF37FFFM2Gra7OT19" class="st0" d="M437.6,488.3c-2.8-13.6-5.2-25.8-8-37.9c-2.2-10-7.3-18.6-12.8-27.1
		c-3.6-5.6-6-11.9-10.2-17.1c-9-11.4-17.9-22.9-26.8-34.3c-0.4-0.7-1.3-1-2.1-0.7c1,8.3,2.7,16.4,6.1,24.2
		c7.7,17.6,18.4,33.5,28.7,49.6c0.4,0.7,0.7,1.4,1.4,2.6c-4.2-0.2-7.1-2.2-9.7-4.1c-6.1-4.3-11.6-9.5-16.1-15.5
		c-3.5-4.8-7.1-9.5-9.6-14.9c-0.6-1.4-1.8-3-3.4-2.1c-1.3,0.7-0.8,2.6-0.1,3.6c2.3,3.1,1.3,6.8,2.2,10.1c2.1,7.8,6.1,14.7,10.6,21.2
		c8,11.3,17.2,21.5,26.9,31.6c-7.6-1.4-14.4-4.6-21.1-8.5c1.1,4.6,4.5,7.6,7,11.3c2.6,3.9,6.4,6.8,10,9.7c3.6,2.8,7.5,5.3,12,8.4
		c-5.8,0.9-10.2-1.1-14.7-2.4c-19-5.6-32.5-18.2-43.1-34.4c-5.9-8.9-11.4-18.1-15.6-27.8c-9.9-22.8-17.5-46.3-14.1-71.8
		c2.3-16.9,3.1-34.1,6.7-50.8c0.6-3,0.8-6.1,1.2-9.1c0.9-0.2,1.8,0.4,2,1.4c4.6,11.2,14,16.9,24.3,21.6c8.9,4.1,18.2,7.3,26.8,12.1
		c26.1,14.5,41.3,37,49.9,65.1c3.5,11.6,5.3,23.6,5.3,35.7c0.1,10.3-2.6,20.3-5.9,30.2C443.2,475,440.6,481.7,437.6,488.3z"/>
	<path id="XFF66FFM2Color7" class="st0" d="M349,294.4c-4.3-5.1-8.3-10.4-11.8-16c-3.5-5.7-7.1-11.4-11.8-16
		c-11.1-10.8-15.8-24.3-18.6-38.9c-0.2-1-0.3-1.9-0.6-2.9c-0.1-0.2-0.5-0.3-1.3-0.7c-0.8,17.6-0.2,34.4,13.7,47.5
		c8.3,7.8,13.2,17.8,17.8,27.9c0.1,0.2-0.3,0.5-0.7,1.2c-6.1-7.8-13.5-14-21.3-19.9c5.9,8.3,11.3,16.8,16.2,25.7
		c-4.6-1-6.8-5.8-12.2-7.5c4.7,8,7.5,15.9,10,23.9c-4.8-4.5-8.8-9.6-13.4-14.2c-8.5-8.5-17.9-15.9-26-24.8
		c-15.9-17.5-22.7-38.3-23.5-61.6c-0.7-18.6,2.7-36.8,6.1-55c1-5.6,2.2-11.1,3.3-16.6c0.2-0.9,0-2.2,1.2-2.5
		c0.4-0.1,1.3,0.4,1.6,0.9c4,6.8,11.3,7.7,17.8,10c12.2,4.2,25,6.7,36.2,13.7c11.7,7.3,18,22.2,14.4,35.6c-5,18.8-4.7,37.8-3.7,56.9
		c0.5,9.9,3.5,19.2,6.5,28.6C349.1,291,350.2,292.3,349,294.4z"/>
	<path id="XCD05D3M2Color8_1_" class="st0" d="M134.3,282.5c9.1,3.9,12.8,11.9,16.4,20.1c3.2,7.4,9.2,13.3,16.7,16.4
		c2.9,1.3,3.4,2.2,1.4,5c-6.8,9.2-20.5,14.5-31.5,11.5c-21.2-5.9-38-17.4-45.1-39.1c-5.1-15.8-3.4-32.3-2.2-48.6
		c0.2-2.7,1.9-3.7,4.4-3.6c19.6,0.7,39.3,0.1,58.4,5.9c15.5,4.6,26.6,13.5,31.2,29.9c3.1,11.1,9,21.1,16.7,29.8
		c2.6,3,2.1,3.9-1.6,4.6c-14.5,2.7-24.8-4.3-33.1-14.8C157.8,289.2,146.7,284.9,134.3,282.5z"/>
	<path id="XCD05D3M2Color8" class="st0" d="M529.5,156.5c-7,13.4-9.4,26.5-9.1,40.2c0.2,9.8,0.5,19.7-0.2,29.4
		c-1.6,22.4-19.3,41.8-41.3,46.1c-10.1,2-20.3,3.9-29.8,8c-2.6,1.1-2.9,0.2-2.7-1.9c2.2-21.3,6-41.8,22.6-57.5
		c5.9-5.6,11.1-11.8,16.9-18c-2.6-1-4,0.8-5.6,1.5c-7.9,3.6-15.7,7.3-21.9,13.5c-1.8,1.8-2.6,0.9-2.7-1.2
		c-0.4-8.2-0.4-16.3,2.7-24.1c3-7.3,8.3-12,15.7-14.9c14.2-5.6,29.6-7.8,43.3-14.8C521,160.9,524.6,159,529.5,156.5z"/>
	<path id="XB6D21FM2Gra3OT28" class="st0" d="M435.9,530.2c-0.3,4.8-4.2,8.7-9.1,8.7c-4.4-0.1-9-4.7-8.9-9c0-4.7,4.7-8.9,9.7-8.6
		C432.2,521.7,435.8,525.5,435.9,530.2z"/>
</g>
</svg>
