<?xml version="1.0" encoding="utf-8"?>
<!-- Generator: Adobe Illustrator 21.0.0, SVG Export Plug-In . SVG Version: 6.00 Build 0)  -->
<svg version="1.1" id="图层_1" xmlns="http://www.w3.org/2000/svg" xmlns:xlink="http://www.w3.org/1999/xlink" x="0px" y="0px"
	 viewBox="0 0 582 689.1" style="enable-background:new 0 0 582 689.1;" xml:space="preserve">
<style type="text/css">
	.st0{fill:#FFFFFF;stroke:#000000;stroke-miterlimit:10;}
</style>
<title>Anime10_13_322</title>
<g>
	<path id="XF37FFFM2Gra3OT19_10_" class="st0" d="M74,155c1.1-13.2,6.1-25.8,14.5-36.1c1.5-1.8,3.2-2,5.4-1.5l12.7,2.6
		c7,1.3,10.3-0.7,12-7.6c2.7-10.9,7.9-19.4,20-21.6c1.6-0.4,3.3-0.4,4.9-0.1c17.2,3.8,34.9,5.1,52.3,8c9.6,1.6,17.5,11.2,15.7,20.9
		c-5.9,31.1,2,59.4,17.6,86.1c4.4,7.5,8.5,15.1,8.3,24.2s-6.9,17.4-17.2,17.1c-3.6-0.1-4.4,1.1-5,4.3c-2,11.3-12.4,18.1-23.8,15.6
		s-19.2-9-27.9-15.1s-17.6-14.2-25.8-22.1c-12-11.8-26.3-19.8-42.1-25c-5.2-1.5-9.5-5.2-11.7-10.1C78.1,182.2,74.7,168.7,74,155z"/>
	<path id="XF37FFFM2Gra5OT19_2_" class="st0" d="M405.7,79c16.8,1.6,33.6,1.8,50.4,0.5c8.9-0.6,14.7,5,15.6,13.9
		c0.2,1.8,0.4,3.6,0.8,5.4c1.2,5.5,4.2,8,9.8,7.9l11-0.5c4.4-0.1,8,1.7,9.9,5.5c10.5,21,14.2,42.5,4.4,64.9
		c-3.7,8.5-9.7,13.4-19.4,15.2c-12.2,2.2-23.1,8.3-33.5,15c-12.3,7.9-22.7,18.5-35.4,25.9c-5.1,3.1-10.5,5.7-16.2,7.6
		c-14.2,4.4-25.6,1.8-33.8-10.5c-6.4-9.7-12.7-16.7-25.2-17.6c-7.2-0.5-9.9-8.3-6.8-15s8.5-12.3,13.2-18.1
		c8.2-10,17.4-19.3,23.2-31.2c7.2-14.4,10.3-30.5,8.8-46.5c-0.5-5.5-0.6-10.9,0.9-16.3s3.6-6,7.5-6.1S399.3,79,405.7,79z"/>
	<path id="X66FF00M2Gra6Co13" class="st0" d="M268.2,689.1c-3.3,0-6.7,0.1-10,0c-5.3-0.3-6.5-1.8-5.6-6.9
		c2.2-13.1,5.5-26.1,8.9-38.9c1.8-6.9,4-13.8,6.1-20.6c6.8-21.8,20.7-38.1,39.5-50.5c10.1-6.4,17.2-16.6,20-28.2
		c2.3-9.4,1.8-18.7-2.3-27.3c-4.1-8.6-3.7-19,2.7-27.6c3.6-5,5.9-10.9,6.7-17c0.9-5.6,3.6-10.8,7.7-14.8c2.7-2.7,5.3-5.5,8.2-8.1
		c6.7-5.9,11.3-14,12.9-22.8c1.6-7.6,7.1-13.2,11.9-18.8c13.7-15.6,22.4-35,24.8-55.7c0.1-1.1-0.2-2.6,1.5-2.7s1.3,1.3,1.6,2.2
		c6.8,24.7,10.8,49.5,4.2,74.9c-3.2,12.3-8.8,23.7-14.1,35.2c-21.1,46-45,90.7-68,135.7c-12.9,25.2-19,51.8-15.5,80.2
		c0.5,4.1-1.5,5.3-4.7,6.1C292.6,686.3,280.6,688.8,268.2,689.1z"/>
	<path id="X66FF00M2Gra2Co13" class="st0" d="M13,296.3c5.1,3.7,9.3,6.8,13.6,9.7c9.3,6.4,19.3,11.9,29.1,17.5s17.2,10.2,24.1,17.6
		c3.2,3.5,7.7,5.3,12,7.1c18.2,7.6,31.9,20.8,42.7,36.5c9.7,14.5,22.5,26.8,37.3,36c12.1,7.5,19.4,19,24.2,32.2
		c1.2,3.6,3.4,6.8,6.3,9.3c14,12.1,27.8,24.5,39.4,38.9s21.8,28,25.7,45.7c3.1,13.8,1.7,27.8,1.3,41.8c-0.1,3.1-2.4,5.4-3.7,8.1
		c-2.9,5.8-5.7,11.7-7.1,18.1c-0.2,1-0.2,2.2-1.4,2.3c-1.2,0.1-1.9-1.1-2.5-2.1c-21.4-36.3-41.8-73.1-60.5-110.9
		c-6.3-12.7-11.2-26-19.5-37.6c-7.5-10.6-17-19.7-28-26.8c-13.4-8.6-26.2-17.9-34.3-32.1c-5.8-10.1-11.4-20.3-18.6-29.6
		c-11.3-14.5-26.2-24.5-41-34.7c-16.7-11.5-28.6-27.2-38.8-44.4C13.1,298,13,297.2,13,296.3z"/>
	<path id="XF37FFFM2Gra3OT19_9_" class="st0" d="M292.7,166.4c0.3,11.9-2.1,23.7-6.9,34.5c-7,15.3-18.8,25.6-34.2,31.9
		c-2.5,1-4.6,1.2-3.7-2.4c1.4-5.7-0.6-10.6-3.5-15.1c-4.4-7-9.7-13.6-13.7-20.8c-17.1-30.4-22-62.1-3.2-93
		c11.3-18.5,21.9-38.3,40.7-51.2c1.8-1.3,2.8-3.4,2.7-5.6c0.1-4.1,2-7.7,3.6-11.3c0.3-0.7,0.8-1.6,1.8-1.5s1.2,1,1.4,1.8
		c0.6,1.7,1.1,3.5,1.4,5.3c2.9,20.6,5.5,41.3,2,62.1c-0.6,3.6-0.3,7.3,0.9,10.7c4.4,13.1,7.3,26.6,9.8,40.2
		C292.6,156.7,292.4,161.6,292.7,166.4z"/>
	<path id="XF37FFFM2Gra5OT19_1_" class="st0" d="M301.1,138.7c-0.4-18.6,3.5-35.3,13-50.4c1.6-2.4,2.4-5.2,2.3-8
		c-0.8-17.8,1.1-35.7,5.8-52.9c2-7.7,3.8-15.5,5.7-23.3c0.3-1.1,0.4-2.5,1.8-2.8s2.2,0.9,2.5,2c9.2,26.4,27.8,48.1,36.9,74.6
		c11.1,32.2,4.5,61.2-17.2,86.6c-8.2,9.6-17.6,18.2-23.1,29.9c-1.6,3.3-3.2,2.5-5.2,0.3C309.1,178.6,299.7,160.3,301.1,138.7z"/>
	<path id="XF37FFFM2Gra3OT19_8_" class="st0" d="M8.1,208.2c9.6,0.1,18.5,2.4,27.3,4.8c13.9,3.8,28.6,3.6,42.4-0.7
		c7.5-2.3,14.1-1,20.9,1.3c10.9,3.7,20.2,10.1,28.8,17.6c14.1,12.2,28.1,24.5,43.4,35.2c4,2.8,8,5.5,12.9,6.2c1.1,0.2,2.4,0.5,2.5,2
		s-1.3,1.7-2.4,2.1c-12.5,4.6-25.2,4.1-37.9,1.3c-9.7-2.1-19.1-5.1-27.5-10.2c-15.5-9.2-32.3-13.7-49.9-16.5
		c-24.3-4-44.5-16.2-62.6-32.3c-0.5-0.4-1-0.9-1.4-1.4c-1.9-2.5-5.5-4.9-4.4-7.9S5.6,208.9,8.1,208.2z"/>
	<path id="XF37FFFM2Gra5OT19" class="st0" d="M514.7,246.7c-2.8-0.1-5.8,0.2-8.5-0.5c-16.4-3.9-31.7,1-46.8,6.1
		c-13.6,4.6-27.3,8.7-42,7c-5.5-0.5-10.7-2.8-14.8-6.5c-1-0.9-2.3-1.7-1.8-3.3s1.8-1.2,3-1.4c6.8-1,12.6-4.1,18.2-7.8
		c17.5-11.6,34.2-24.4,51.9-35.5c4-2.5,7.9-4.8,12.6-5.7c4.6-1,9.4-0.3,13.5,1.9c9.9,5.1,20.5,7.8,31.8,7.1c14-0.7,28,0.5,41.7,3.5
		c1.8,0.3,3.6,0.5,5.4,0.5c1.1,0.1,2.5-1,3,0.6s-1,1.9-1.8,2.7c-12.8,12.5-27,22.6-44.3,28.1C529,245.7,521.9,246.8,514.7,246.7z"/>
	<path id="XF37FFFM2Gra3OT19_7_" class="st0" d="M513.3,44.3c0,5.2-0.3,10.3,0.1,15.5s-1,4.3-4.2,3.6c-11.7-2.4-23.3-1.8-33.3,4.9
		c-5.8,3.9-11.4,4.5-17.7,4.1s-13.3-0.2-20-0.3c-1.3,0-2.9,0.7-3.6-0.9s1-2.3,1.8-3.2c8.8-10.3,14.1-21.7,11.9-35.7
		c-0.9-6-2.7-11.3-7.5-15.3c-1.9-1.6-2.9-3,0.3-4.3c10.1-3.9,20.1-8.1,31.1-8.8c10.1-0.6,20.1,1.5,29,6.2
		c7.6,3.9,12.1,10.3,12.4,19.2c0.2,5,0,10,0,15L513.3,44.3z"/>
	<path id="X038203M2Gra2Co14_1_" class="st0" d="M187.2,367.8c2.6,0.9,5.6,1.8,8.5,3c15.1,6.1,29.6,13.7,44.3,20.8
		c2,1,2.9,2,2.2,4.6c-6.4,24.8-6.9,50.7-1.6,75.7c0.3,1.5,1.9,3.4-0.1,4.4s-2.3-1.5-3.4-2.3l-22.5-16.6c-5.6-4.1-10-9-12.3-15.9
		c-3-8.7-9-15.5-16.1-21.2c-3.1-2.3-4.9-6-4.8-9.9c-0.1-13,0.2-26,2.5-38.8C184.1,369.9,184.1,367.9,187.2,367.8z"/>
	<path id="X66FF00M2Gra3Co13" class="st0" d="M348.4,422.2c-2.1,2.3-4,1.6-5.8,1.7c-25.2,0.4-47.4-8.7-68.7-21.3
		s-39.7-23.8-60.7-33.7c-6.6-3.1-13.5-5.7-20.6-7.7c-1.6-0.4-3.6-0.6-3.5-2.8s1.7-2.7,3.2-3.5s5.9-0.7,8.9-1
		c9.9-1,19.9-2.2,29.9-2.5c20.8-0.7,38.5,7.7,54.6,20.2s32.2,26.8,47.9,40.8C337.9,416.3,342.5,419.9,348.4,422.2z"/>
	<path id="XFFB6F5M2Color19_5_" class="st0" d="M86.1,64.5c1.7-10.1,2.1-20.6,6.4-30.2c1.9-4.3,4-8.5,7.6-11.6s8.1-5.4,13.6-5.1
		c15.4,0.6,30.1,3.4,43.2,12.1c3.1,2.1,3.2,3.3,0.2,5.3c-7.9,5.4-9.8,13.4-9.7,22.3c0,3.2,1.5,4.8,4.4,5.8c6.8,2.5,6.8,2.7,2.7,8.8
		c-2.1,2.8-3.6,6.1-4.2,9.5c-0.6,4.3-2.9,3.8-5.6,2.2s-3.8-4.9-5.2-7.7s-2.6-8.3-5.5-10.5s-6.7,2.1-10.3,2.9
		c-4.4,1.1-8.9,1.6-13.4,1.6c-6.1-0.1-12.2-1.2-18.4-0.6C87.3,69.7,85.9,68,86.1,64.5z"/>
	<path id="X038203M2Gra6Co14_2_" class="st0" d="M48.2,349.5c4,1.8,5.8,5.5,9,7.5c20.8,12.9,34.9,31.3,45.7,53
		c7.8,15.7,21.1,26.9,35.4,36.7c18.7,12.7,32,29.4,37.8,51.6c0.6,2.3,0.9,4.6,1.3,6.9s1,3-0.6,3.6s-2.1-1.3-2.7-2.3
		c-4-6.8-9-12.8-14-18.8c-16.6-20-36.4-37.1-53.5-56.7C86,407.3,67,382.5,50.4,355.8C49.5,354,48,352.5,48.2,349.5z"/>
	<path id="XF37FFFM2Gra3OT19_6_" class="st0" d="M538.6,102.8c0.1,10.2-2.9,17.4-7,24.1c-2.6,4.1-5.5,7.9-8.3,11.8
		c-0.8,1-1.4,2.7-2.8,2.5c-1.4-0.2-1.4-2.4-1.7-3.8c-1.6-9.2-4.1-18.2-7.5-26.9c-4.1-10.2-8.6-13.2-19.4-12.4c-5,0.3-8-1.4-9.4-6.1
		c-1.1-3.5-2.6-6.9-4.5-10c-1.3-2.2-1-3.8,1.5-4.6c15.9-5.2,31.6-6.8,46.4,3.4C534.3,86.7,538.7,94.5,538.6,102.8z"/>
	<path id="XFFB6F5M2Color19_4_" class="st0" d="M55,207.1c-8.6-0.3-17.1-1.6-25.4-3.7c-5.6-1.3-11.1-2.2-16.8-1.6
		c-1.3,0.1-2.9,0.6-3.5-0.9s0.7-2.1,1.4-2.9c6.9-7.7,13.7-15.5,21.8-22s19.7-11.8,32-8.4c2.2,0.6,4.1,1.2,4.2,4.1
		c0.3,8.8,4.1,16.4,8.1,23.9c2.9,5.3,2.9,5.4-3,7.5c-3.8,1.3-7.7,2.3-11.6,3.1C59.8,206.6,57.4,206.9,55,207.1z"/>
	<path id="XF37FFFM2Gra3OT19_5_" class="st0" d="M440.6,39.4c0,3.5-0.6,7-1.9,10.3c-1.6,4.6-4.1,7.9-9.6,8.9c-7.8,1.4-14,6-19.1,12
		c-2.4,2.9-4.7,3.8-8.7,2.6s-7.9-0.9-11.8-1.1c-1.4-0.1-3.1,0.9-4-0.9s0.3-2.9,1.1-4.1c8.8-12.8,16-26.4,22.8-40.4
		c1.4-2.5,2.6-5.1,3.6-7.7c1.4-4,4-4.7,7.8-4C432.8,17.1,440.6,26.6,440.6,39.4z"/>
	<path id="XF37FFFM2Gra3OT19_4_" class="st0" d="M522.4,157.2c5.3,0.5,10.5,2.1,15.2,4.5c15.5,7.5,27.6,20.3,34.2,36.2
		c0.6,1.3,1.6,2.9,0.4,4.2c-1.2,1.3-2.8,0-4.1-0.4c-9.8-3.2-19.9-3.4-30.1-2.8c-10.2,0.6-20.3,0.5-30.1-2.9
		c-1.4-0.5-3.2-0.6-3.7-2.2c-0.5-1.6,1.5-2.3,2.5-3.3c8.5-7.9,11.2-18.2,11.8-29.3C518.8,158.6,518.8,156.4,522.4,157.2z"/>
	<path id="X81B540M2Gra3OT4_3_" class="st0" d="M289.9,493.4c0.4,25.2,0,50.3-3.6,75.3c-0.8,5.4-4.9,8.1-7.6,11.9
		c-0.5,0.7-1.5,0.9-2.2,0.3c0,0,0,0-0.1,0c-1.1-0.8-1-2-0.7-3.2c1.5-5.9,1.7-11.9,2.3-17.8c4.5-43.5,3.7-87.3-2.3-130.6
		c-0.6-3.9-0.4-8-1.5-11.9s0.7-3.7,3.2-2.5c4.6,2.1,7.5,5,8.2,10.7C288.3,448.1,289.7,470.7,289.9,493.4z"/>
	<path id="X81B540M2Gra3OT4_2_" class="st0" d="M349.9,230.2c-0.5,1-1,2-1.6,2.9c-19.6,27-32.5,57.5-45.1,88.1
		c-4.7,11.4-8.5,23.2-11.3,35.2c-0.2,1-0.2,2.1-1.4,2.4s-1.7-0.7-2.4-1.3c-3.9-3.6-3.8-7.5-2.3-12.5c11.3-37,24.9-73,44.4-106.6
		c2.4-4.2,5.2-8.1,7.6-12.3s4-3.1,6.8-2.1S349.1,227,349.9,230.2z"/>
	<path id="XFFB6F5M2Color19_3_" class="st0" d="M202.7,25.9c2.7,0.3,5.2,1.5,7.1,3.4c13.5,11.6,21,26.9,26.2,43.5
		c0.7,2.1-0.5,3.5-1.9,4.8c-5.4,5-10.4,10.4-12.7,17.6c-0.3,1-0.8,1.9-2.1,1.7s-1.1-1.1-1.2-2c-3.3-20.3-13.1-38.3-20.6-57.2
		l-1.3-3.3C194.2,29.1,196.5,25.8,202.7,25.9z"/>
	<path id="X038203M2Gra6Co14_1_" class="st0" d="M186.4,516.8c0.4-2-1.7-5.7,0.4-6.2s2.7,3.4,3.8,5.4c14.9,29.4,29.6,58.9,47,86.9
		c0.6,0.9,1.8,1.8,1,3s-1.5,0.3-2.2-0.1c-9.7-6.1-20-11.1-27.5-20.4c-12.5-15.6-18.6-33.6-20.9-53.1
		C187.4,527.3,186.9,522.2,186.4,516.8z"/>
	<path id="XFFB6F5M2Color19_2_" class="st0" d="M107.9,111.8C93.7,109.9,82,105.3,72,96.7c-2.2-1.9-2.2-3.8-0.7-6.1
		c5.6-9.2,15.9-13.2,26.7-10.7s18.9,2.3,27.8-2.2c5.7-2.8,5.5,2.5,7.2,4.8s-0.8,3.7-2.8,4.8c-3.3,1.6-6.6,3.3-9.7,5.2
		c-5.5,3.6-9.5,8.4-10,15.3C110.3,110,109.8,112,107.9,111.8z"/>
	<path id="X81B540M2Gra3OT4_1_" class="st0" d="M235.1,250.7c2.7-0.2,4.2,1.4,5.2,3.7c13.9,29.5,26.8,59.5,33.4,91.6
		c0.2,1,0.8,2.1-0.4,2.6c-0.8,0.1-1.6,0-2.3-0.4c-5.3-2.3-8.7-5.5-10.2-11.9c-6.2-26.5-17.8-50.7-31.6-74.1
		c-1.5-2.6-2.6-4.9-0.8-7.8S232,250.5,235.1,250.7z"/>
	<path id="XFFB6F5M2Color19_1_" class="st0" d="M205.6,79.4c-4-2.8-7.9-5.6-11.9-8.1c-5.6-3.4-11.6-6-18.4-5.4
		c-1.7,0.2-3.3-0.4-4.5-1.6c-3.3-3.4-6.9-6.1-11.6-7.4c-2.7-0.7-2.7-2.9-2.1-5.3c2.5-10.6,10.3-16.3,21.8-15.6
		c7.1,0.4,12.3,2.2,14.7,10.4c3.1,10.4,7.2,20.4,12.2,30C206.4,77.3,206.3,78.6,205.6,79.4z"/>
	<path id="XF37FFFM2Gra3OT19_3_" class="st0" d="M366.2,50.2c0.1-2.8,1.2-4.7,2.2-6.6c8-16.2,18.5-30,36.1-36.8
		c1.6-0.6,3.6-2.4,5-0.5s-0.9,3.2-2,4.5C398.9,22,393.9,35.1,388,47.7c-3,6.5-6,12.9-9.2,19.3c-0.7,1.5-1.1,4-3.5,3.6
		s-1.7-2.5-2.3-4c-1.8-4.5-3.6-8.9-5.4-13.4L366.2,50.2z"/>
	<path id="XFFB6F5M2Color19" class="st0" d="M51.3,106.7c0.3-9.5,4-17.1,12-22.3c1.2-0.8,2.8-1.9,4-0.6s-0.3,2.6-1.2,3.8
		c-4.6,6.3-4.2,10.7,1.7,16.1c3.3,2.8,7,5.2,10.9,7c3.3,1.7,4,3.2,1.4,6.4c-3.9,4.5-7.2,9.6-9.7,15c-1.1,2.8-1.6,5.8-1.4,8.8
		c0.2,1-0.4,2-1.3,2.4c-1.1,0.4-1.9-0.4-2.4-1.3C58.3,131,52,119.9,51.3,106.7z"/>
	<path id="XF37FFFM2Gra3OT19_2_" class="st0" d="M265.4,32.9c-2.7,5.3-1.8,12.6-7.9,16.5c-5.3,3.5-9.9,8-13.5,13.2
		c-0.7,0.9-1.2,2.2-2.6,1.8s-1.6-1.6-1.7-2.8c-0.8-5.9-3.3-11.1-6.1-16.2c-1.5-2.8-1.1-4.5,1.7-6c8.8-4.9,18.6-6.1,28.1-8.1
		C264.4,31.1,265.4,31.3,265.4,32.9z"/>
	<path id="X81B540M2Gra3OT4" class="st0" d="M255.1,497.3c1.6-19.2,4.7-38.3,9.4-57c0.3-1.1,0.3-2.7,1.8-2.6s1.4,1.9,1.7,3.1
		c2.9,14.7,0.2,29-2.1,43.5c-1.2,7.7-1.8,15.6-1.7,23.4c0,1.3,0.7,3-1,3.5s-2.3-1-2.9-2.2C258.5,505,254.8,502,255.1,497.3z"/>
	<path id="X038203M2Gra2Co14" class="st0" d="M320.4,538.7c-0.7,6.6-2.3,12.6-7.3,17.2s-11.1,8.5-16.6,12.7
		c-0.9,0.7-2.1,1.5-3.1,0.5s-0.2-2.1,0.2-3.2c5.1-12.8,11.9-24.8,18.7-36.8c1.5-2.6,1.6-7.5,4.7-7.1s1.3,5.2,2.1,8.1
		C319.7,532.9,320.1,535.8,320.4,538.7z"/>
	<path id="XF37FFFM2Gra3OT19_1_" class="st0" d="M206.2,95.1c-13.8-4.9-27.7-6.4-41.3-9c-1.6-0.3-3.6-0.1-4.2-2.1s1.1-3.3,2.4-4.5
		c2.9-2.6,6.5-4.2,10.3-4.7C185.6,72.9,201.3,82.5,206.2,95.1z"/>
	<path id="XF37FFFM2Gra3OT19" class="st0" d="M361.8,27.6c-0.4,2.2-0.9,5.3-1.4,8.4c-0.1,0.8-0.2,1.7-1.2,2
		c-0.9,0.2-1.7-0.3-1.9-1.2c-4.6-12-15.5-20.4-18.7-33.1c-0.3-1-1.6-2.1-0.4-3.1s2.2-0.1,3.2,0.5l9.2,5
		C358.8,10.4,361.7,17.7,361.8,27.6z"/>
	<path id="X038203M2Gra6Co14" class="st0" d="M253.7,629.2l-2.4,9.2l-3.9,14.5c-0.3,1-0.5,2.1-1.7,2.2s-1.3-0.9-1.4-1.7
		c-1.2-12.4-7.4-23-11.7-34.4c-0.4-1.2-1.6-2.7-0.2-3.6s2.4,0.6,3.4,1.3c5.2,3.5,9.8,8.1,16,9.9C253,626.8,253.9,628,253.7,629.2z"
		/>
</g>
</svg>
