<?xml version="1.0" encoding="utf-8"?>
<!-- Generator: Adobe Illustrator 24.1.0, SVG Export Plug-In . SVG Version: 6.00 Build 0)  -->
<svg version="1.1" id="图层_1" xmlns="http://www.w3.org/2000/svg" xmlns:xlink="http://www.w3.org/1999/xlink" x="0px" y="0px"
	 viewBox="0 0 795.8 782.8" style="enable-background:new 0 0 795.8 782.8;" xml:space="preserve">
<style type="text/css">
	.st0{fill:#FFFFFF;stroke:#000000;stroke-miterlimit:10;}
</style>
<path id="XE655FFM2Gra3OT30" class="st0" d="M188.6,264.8c4.8,0,9.7-0.4,14.5,0.1c5.1,0.5,8.5-1.4,11.5-5.3
	c14.1-18.2,24.4-39.1,30.3-61.4c4.9-18.6,7.5-37.5,9.4-56.6c0.8-7.8,0.8-15.6,1.1-23.4c0.1-2.1,0.3-4.8-2.4-5.4s-3.4,2-4.3,4
	c-2.2,5.3-5,10.4-8.2,15.1c-3.4,4.7-6.4,10.5-6.5,17c0,1.7,0,4.2-2.3,4.4s-2.8-2.2-3.2-3.9c-2.1-9.5,0.4-18.5,4-27.2
	c2.6-6.3,6.4-12,10.3-17.6c1.1-1.5,3.8-3.6,1.6-5.6s-6.1-2.2-7.9-0.1c-3.9,4.6-10.6,4-14.2,8.8c-1,1.3-3.1,1-4.7,1.2
	c-1.3,0.1-3.4,0.2-3.7,0.9c-3.1,7.3-11.6,5.4-16.6,9.8c-2.6,2.2-8,1.3-11.6,4.1c-1.4,1.2-2.9-0.5-2.1-2.4c0.7-1.5,1.6-2.9,2.8-4.1
	c5.6-5.8,11.3-11.3,16.8-17.1c2.2-2.4,5.4-2.4,8-3.8c10-5.8,20.7-9.1,32.4-7.5c1.8,0.2,3.9,0.6,4.8-1.6s-0.6-3.8-2.1-5.2
	c-0.4-0.4-0.8-0.6-1.2-0.8c-11.7-4-19.5-14.2-30.4-19.3c-1-0.5-2.4-1-2-2.5c0.3-1.1,1.5-1.2,2.5-1.2c11.4,0.3,22.5,1.7,32.4,8
	c4,2.7,7.1,6.5,9,11c0.6,1.4,1.2,2.9,3.1,2.8s2.7-1.2,3.4-2.6c9.1-19,26-22.6,44.7-22.7c2.4,0,5,0.5,5.2,3.5c0.2,2.5-2.1,3.3-4,3.7
	c-7.6,1.6-11.7,8.6-18.5,11.5c-4.5,1.9-8.3,5.6-13.4,6.6c-0.7,0.1-1.3,0.5-1.7,0.9c-1.7,1.9-5.4,3.2-4.1,6c1.2,2.5,4.2,0.1,6.3-0.2
	c13.7-2.2,25.2,1.9,35.1,11.4c6.9,6.5,14,12.8,21,19.2c0.9,0.9,1.8,1.9,2.6,3c0.6,0.8,1,1.8,0.2,2.7c-0.7,0.8-1.9,0.9-2.8,0.3
	c-8.9-5.9-20.3-6.5-28.4-14c-0.2-0.2-0.6-0.6-0.8-0.6c-7.3,0.9-11.9-5.1-18-7c-4.2-1.4-7.7-4.7-12.5-4.7c-1.5,0-3.1-0.7-4,1
	c-0.9,1.7,0.4,2.9,1.6,3.8c11.1,9.2,15.2,21.9,18.1,35.3c0.9,3.6,0.7,7.4-0.5,10.9c-0.6,1.4-1.5,2.8-3.3,2.6c-1.6-0.2-2.1-1.6-2.2-3
	c-0.1-10.3-7.8-17.4-11.2-26.2c-0.8-2-2-3.8-2.5-5.9c-0.6-2.5-2-4.6-4.1-6.1c-1.2-0.9-2.5-1.9-4.1-0.9c-1.3,0.9-1.2,2.3-1.1,3.6
	c1,14.1,0.8,28.3-0.7,42.4c-2,21.1-6.6,41.7-11.6,62.3c-3.6,14.8-10.3,28-16.3,41.7c-3,6.9-2.2,8.6,4.8,10.8
	c20.2,6.1,40.5,12,59.2,22.4c19.3,10.6,38.1,21.9,54.5,36.8c7.3,6.6,13.7,14.2,18.9,22.6c3,4.8,7.5,8.6,9.6,13.9
	c0.5,1.2,1.6,2.5,0.3,3.6c-1.1,0.8-2.1-0.4-3.1-0.9c-5.7-2.8-9.4-8.1-15.2-11.1c-8.6-4.4-17.5-8.2-26.6-11.3
	c-13.4-4.4-27.3-7.2-41.4-8.4c-4.8-0.5-9.7-0.3-14.4,0.4c-18.6,2.8-37,6.5-55.5,9.9c-25.9,4.8-52.2,7.6-78.5,3.8
	c-13.6-2-27.4-2.9-40.8-6.6c-18-5-36.4-9-53.2-18c-4.9-2.6-6-5.6-2-8.6c11-8.1,20.7-17.8,31.7-25.9c11.7-8.6,24.6-14.5,38-19.7
	c3.9-1.5,7.8-3,11.8-4.2c3.5-1,4.2-2.9,3.7-6.3c-1.2-7.9-4.5-14.9-7.9-22c-7.5-15.9-15.6-31.7-20.3-48.7c-2.8-10-5.1-20.3-5.2-31
	c-0.3-23.5-4.1-46.8-5-70.2c-0.2-6.5-0.5-13-0.9-19.5c-0.1-2.6-0.4-5.4-4.2-4.6c-3.2,0.7-6,2-4.5,6.1c1.1,3.3,0.4,5.9-2.6,7.8
	c-0.3,0.2-0.7,0.4-0.8,0.6c-1.6,6.4-6.9,10.2-10.5,15.2c-1.7,2.4-2.7,5.3-4.4,7.8c-2.2,3.2-3.2,6.5-2.3,10.4c0.5,2,1.4,4.9-1.8,5.2
	c-3.2,0.4-3.8-2.5-3.9-4.8c-0.9-17,0.3-33.6,11.1-48c2.2-3.1,4.9-5.9,7.8-8.4c1.6-1.3,3.1-3.3,2.2-5.2c-1.1-2.5-3.1-0.2-4.8,0
	c-3.8,0.4-7.4,2.2-10.2,4.9c-1.7,1.6-4,2.6-6.3,2.6c-2.4,0-4.7,0.9-6.4,2.5c-3.1,2.9-6,4.4-10.1,2c-1.8-1-3.5,0.6-4.7,2
	c-1.6,1.9-3.2,3.9-4.6,5.9s-3.2,3.4-5.8,1.7c-2.4-1.5-4.1-0.2-5.6,1.6c-1.9,2.3-3.9,3.3-7,1.8c-3.6-1.7-5.4,1.1-7.5,3.2
	c-1.9,1.9-3.6,6.2-6.4,3.9c-2.8-2.2,0.6-5.4,2.2-7.6c6.3-8.8,13.4-17,21.3-24.5c8.7-8.3,19.2-11.8,30.5-13.3
	c8.1-1.1,16.3-1.4,24.4,0.2c1.9,0.4,4.3,1,5.3-1.4c0.8-2.1-1.3-3.2-2.6-4.4c-3.3-3-6.6-6.2-11.4-6.8c-1.8-0.2-2.8-1.7-3.8-3.1
	c-1.1-1.5-2.7-2.6-4.5-3C54.8,19,48.5,14.6,43,8.9c-0.8-0.8-2.2-1.4-1.5-2.8c0.5-1.2,2-1.3,3.1-1.3c4.6,0.1,9.4-0.3,13.9,0.6
	c9.4,1.9,18.8,4.2,26.4,10.9c3.7,3.2,6.3,6.8,6.7,11.8c0.2,2,0.6,4.2,3.1,4.5c2.5,0.3,3.6-1.7,4.1-3.7c4.2-15.9,17.2-21.2,30.9-25.8
	c8.6-2.9,17.4-2.7,26.2-3.1c2.2-0.1,5.3-0.4,6,2.3c0.8,3.1-2.2,4.4-4.5,5c-6.2,1.6-11.5,5.2-17.8,6.6c-2.5,0.5-4.8,1.6-6.8,3.1
	c-7.1,6-15.9,9.5-23,15.4c-1.2,0.9-2.2,2-3.1,3.2c-1.3,2.1-0.5,3.5,1.9,3.9c1.2,0.1,2.3,0.1,3.5-0.1c8.2-1,16.6-1.1,24.8-0.3
	c15.7,1.2,28,9,37.7,21c4.5,5.6,9.4,10.8,14.1,16.2c1.1,1.2,2.1,2.5,3,3.9c0.6,1,1.1,2.2-0.1,3.1c-0.9,0.6-2.1,0.5-2.7-0.3
	c-3.6-3.5-8.6-5.3-13.7-4.8c-1.1,0.1-2.4-1-3.5-1.7c-1.1-0.7-1.8-2.1-2.7-2.1c-8.4-0.5-13.4-9.4-22.2-9.1c-2.2,0.1-3.8-1.4-5.1-2.8
	c-5.8-6-13.7-9.6-22-9.9c-1.4-0.1-2.8-1-4.2-1.6c-1.1-0.5-2.3-0.9-3.2,0.3c-0.7,1-0.6,2.4,0.2,3.3c1,1.3,2.2,2.4,3.4,3.5
	c15.9,15.3,23.1,33.8,20.6,55.8c-0.3,2.7-0.2,7.3-4.2,6.6c-3.8-0.6-2.1-4.9-2-7.7c0.1-4.7,1.9-10.1-5.4-11.2c-0.2,0-0.4-0.1-0.4-0.2
	c-0.4-6.7-8.2-9.6-8.3-16.4c-0.1-2.1-0.2-4.1-2-5.4c-2.7-2.1-4.6-4.9-5.6-8.1c-0.7-1.8-1.8-3.5-4-3s-2.7,2.4-2.6,4.3
	c2,21.7,0.6,43.6,4.3,65.2c2,11.5,3.1,23.1,6.2,34.4c3.8,13.5,8.8,26.5,15.2,39c5,9.9,10.4,19.7,15.4,29.6c3.5,6.9,8.6,12.7,14.1,18
	c2.8,2.9,6.6,4.6,10.6,5C175,264.8,181.8,264.7,188.6,264.8z"/>
<path id="X1100AAM2Gra3OT6" class="st0" d="M457.1,782c-72.7,0-145.3,0-217.9,0c-4.6,0-9.3,0.6-14,0.7c-1.8,0-4.3,0.1-4.7-2
	c-0.5-2.5,2.3-2.4,3.8-3c10.6-3.9,21.2-7.8,31.8-11.7c2.1-0.6,4.2-0.9,6.4-0.9c4.8-0.3,6.2-2.4,3.5-6.5c-4.9-7.4-8-15.7-11.5-23.7
	c-3.3-7.6-6.7-15.1-7.6-23.5c-0.6-4.9-3.1-9.4-4.1-14.3c-3.4-15.2-4.5-30.6-4.7-46.1c-0.1-6-0.7-6.4-6.3-4.7c-1,0.3-2,0.9-2.7-0.1
	s0.2-1.9,0.8-2.6c0.8-1.3,1.8-2.4,2.9-3.4c6-4.4,7.5-10.6,7.2-17.6c-0.4-7.2,2.3-13.8,3.7-20.6c6.2-28.5,18.2-54.4,34.7-78.4
	c15.6-22.6,35-41.4,57.5-57c14.9-10.4,31.2-18.3,48.2-25c12.5-4.9,25.6-6.9,38.2-11.1c4.5-1.5,9.3-0.7,13.9-1.1
	c19.1-1.5,38.3-1,57.4,0.4c7.4,0.5,14.6,3.1,21.8,5c17.7,4.5,34.9,10.7,51,19.6c16.6,9.2,32,20.4,45.9,33.3
	c13.1,12.1,25.2,25.3,34.7,40.4c8.5,13.6,17.1,27.4,21.8,43c1.3,4.3,3.2,8.4,4.6,12.7c8.5,26.6,12.6,53.8,10.3,81.6
	c-0.9,11.6-2.6,23.1-5.3,34.5c-2.7,11.7-6.1,23.1-10.4,34.3c-4.3,11.1-9.2,22.1-16.3,31.8c-1.1,1.5-1.6,2.9-0.9,4.6
	c0.7,1.7,2.2,2.3,4,2.3c9.3-0.1,18,3.1,26.9,4.9c1.4,0.3,3.3,0.6,3,2.6c-0.2,1.8-2,2.2-3.5,2.3c-3.5,0.1-7-0.2-10.5-0.3
	c-27.3-0.1-54.7-0.3-82-0.3c-44-0.1-88-0.1-131.9,0L457.1,782z M678.5,646.2c-1-12.7-0.8-23.6-3.1-34.2
	c-2.7-13.3-6.5-26.4-11.2-39.2c-4.5-11.8-10.1-23.2-16.6-34c-14.9-25.7-35.5-46.4-59-64.2c-13.6-10.3-28.6-18.1-44.3-24.7
	c-16.5-7-33.8-11-51.2-14.4c-16.1-3.1-32.6-2.2-48.9-1.4c-19.6,1-38.3,5.8-56.8,12.3c-9.5,3.3-18.2,7.9-27.3,12
	c-12.1,5.4-22.6,13.3-33.1,21.2c-11.4,8.7-22.2,18.1-31,29.5c-8.1,10.5-16.5,20.8-23,32.5c-6.1,10.9-11.8,22-15.8,33.8
	c-0.9,3.2-2.2,6.3-3.8,9.1c-3.4,5.1-1.6,8.8,4.4,9.3c11.6,0.9,21.3,4.5,27,15.7c2,3.9,5.8,3.7,7.6-0.3c1.4-2.9,3.6-4.5,6-6.4
	c5.3-4,11.7-4.6,17.7-6.5c2.6-0.8,6.5-2.3,7.8,0.4c1.1,2.3-2.6,4.2-4.6,5.6c-5.8,3.9-10.7,9.1-17.8,10.9c-2.3,0.6-4,2.2-3.4,4.8
	c0.6,2.8,3.1,1.7,5,1.8c2.2,0.1,4.3,0,6.5,0.3c16.1,1.9,27.9,10.9,37.8,23c0.8,0.8,1.4,1.8,1.8,2.9c0.5,2-0.4,3.1-2.4,2.2
	c-5.9-2.6-12.1-4.8-17.5-8.1c-7.5-4.6-15.7-7.9-23.4-12c-2.7-1.4-4.6-0.3-4.4,3c0.1,1.6,1.5,2.5,2.4,3.7c6.2,9,11.5,18.4,11.3,29.8
	c0,2,0.2,4.4-2.2,5c-2.8,0.7-3-2-3.6-3.8c-2.6-8-7.1-15-10.9-22.4c-0.8-1.5-1.5-4-3.8-3.2s-2,3.2-2,5.2c0,17.2,3,34.2,6.1,51
	c1,6.1,2.5,12.1,4.4,17.9c3.7,10.7,8.8,20.7,14.2,30.7c3.6,6.9,7.7,8.8,14.3,8.3c11.5-0.8,22.9-1.2,34.4,0.1c5.5,0.7,9.1-1.5,12.1-6
	c6.4-10,11.7-20.5,17-31.1c6.4-12.6,11-26.1,13.5-40c3.9-21.5,4.6-43.3,5.1-65.1c0.1-1.5,0-3-0.5-4.4c-0.8-2.2-2.8-3.1-4-0.8
	c-1.9,3.8-5.5,6.8-5.5,11.6c0,2.4-1.8,3.8-2.8,5.6c-3.1,5.6-10.4,8.8-9.3,16.8c0.2,1.8,0.2,4.6-2.5,4.6s-2.5-2.7-3-4.5
	c-1.3-4.9,0.6-9.6,1.3-14.3c1.4-9.9,5.9-19.1,12.8-26.4c2.2-2.3,6.6-4.9,4.5-7.9c-2.2-3.2-6.7-0.8-10,0.7c-0.3,0.1-0.6,0.4-0.9,0.5
	c-10.3,5.3-20.4,10.9-30.9,15.8c-5.1,2.4-11,2.9-15.7,6.2c-1.2,0.8-2.7,2.2-4,0.6c-1.4-1.7,0.2-3.2,1.4-4.2c4.4-4.1,7.9-9,11.8-13.5
	c6.8-8,14.4-15.2,25.5-16c7.4-0.5,14.8-2.4,22.3-0.6c1.9,0.4,4.3,0.8,5.3-1.5s-0.8-3.9-2.4-5c-6.8-4.7-13.8-9.2-20.7-13.7
	c-1-0.6-2.2-0.9-3.3-1.1c-4.8-1-9.1-3.1-13.5-5.1c-1.5-0.7-3.6-1.1-3.1-3.3c0.5-2,2.5-2.1,4.1-2c12.6,0.4,24.9,1.7,35.8,9
	c4.9,3.3,8.5,7.3,10,13.2c0.4,1.6,0.8,3.5,2.9,3.6s2.4-1.9,3-3.5c2.1-5.9,6.2-10,11.6-13.2c7-4.2,14.8-3.4,22.3-4.3
	c1.9-0.2,4.4-1.1,5.2,1.4c0.8,2.4-1.6,3.5-3.2,4.5c-7.5,4.8-15.4,8.9-23.6,12.4c-1.1,0.4-2.1,1-3,1.7c-1.4,1.2-3.1,2.5-2.7,4.5
	c0.6,2.4,3,1.5,4.7,1.7c6.1,0.7,12.3-0.8,18.5,0.2c20.5,3,32,17.6,43,33c0.6,0.8,1.1,1.8,0.4,2.8c-0.9,1.2-2.1,0.8-3.1,0.1
	c-2-1.2-3.7-2.9-5.8-3.8c-7.6-3.6-16.9-3.5-22.8-10.8c-0.9-0.8-2-1.2-3.2-1.2c-8.2-1.2-16-4.4-22.6-9.5c-1.7-1.2-4-3-5.8-0.9
	s0.5,4,2,5.4c12.7,11.9,15.1,27.2,14.6,43.4c-0.1,1.7,0,4.2-2.3,4.4c-2.6,0.2-2.3-2.4-2.5-4.1c-0.7-5.9-2.6-12.3-6.5-15.8
	c-5.8-5.2-8.2-11.4-10.4-18.2c-0.7-2.2-1.6-4.3-4.4-3.7s-2.8,3.1-2.4,5.3c0.6,3.8,0.6,7.6,0.2,11.5c-1,13.4-2.1,26.9-3,40.3
	c-1.2,16.9-2.6,33.7-8.5,50c-4.9,13.6-10.8,26.8-17.6,39.5c-2.3,4.2-1.4,7.7,2.8,7.9c8.6,0.5,16.9,3.3,25.5,4.1
	c17.2,1.6,34.4,3.7,51.8,3.9c35,0.2,69.9-4.1,104.9-1c21.2,1.8,42.7,0.4,63.6,5.6c3.2,0.8,5.1-1,6.6-3.3c2.6-3.9,5-7.9,7.2-12
	c9.1-18.4,16.3-37.3,20.7-57.5C678,678.8,677.8,661.6,678.5,646.2z M287.8,642.2c0-2.3,0.9-5.2-1.9-6.1c-2.9-1-4.1,2-4.9,4
	c-2.7,6.7-5.8,13.3-9.2,19.7c-0.6,1.4-1.1,2.8-1.5,4.2c-0.7,2-0.1,5.6-3.5,5c-2.9-0.5-2.1-3.7-2.2-6c0-1.2,0-2.3,0.1-3.5
	c1.2-10.9,6.7-19.7,13.2-28c1-1.2,2.8-2.5,1.4-4.3c-1.2-1.5-3.1-0.8-4.6-0.2c-1.1,0.4-2.1,1.1-3.2,1.5c-4.4,1.6-7.8,5.3-12.4,6.3
	c-12.5,2.6-16.2,7.1-15.7,19.4c0.1,1.5,0,3,0,4.5c0,13.7,2.4,27.2,5.4,40.5c4.1,18.9,10.9,37.1,20.2,54.1c3.6,6.5,4.9,7.5,12.4,6.8
	c8.4-0.8,16.4-4.5,25-4.3c3.7,0.1,4.2-2.8,2.6-5.7c-1.2-2.2-2.8-4.1-3.7-6.5c-3.9-10.1-7.5-20.2-9.8-30.8
	C290.4,689.6,286.4,666.2,287.8,642.2z M273.5,618.9c1.7,0,3.4,0.3,4-1.4c0.6-1.7-0.3-3.5-2-4.1c-7.4-3.1-14-7.4-20.5-12
	c-3.6-2.6-6.5-1.1-7,3.3c-0.7,5.6-1,11.2-2.8,16.6c-0.5,1.6-0.3,3.4,1.6,4.3s3.3,0,4.4-1.3c2.7-3.1,6.3-4.1,10.1-4.8
	C265.5,618.7,269.6,618.2,273.5,618.9L273.5,618.9z"/>
<path id="X669900M1Color24" class="st0" d="M633.2,387.3c-50.3-1.4-100.6,0.5-151-0.1c-4.4,0-8.7-0.2-12.8-2
	c-1.5-0.7-3.3-1.3-3.1-3.4s2.1-2.5,3.8-2.6c4.5-0.3,8.9-0.9,13.3-1.8c8.6-1.4,16-5.4,23.7-8.9c5.3-2.2,11-3,16.7-2.4
	c10.6,1,19.4-2.7,27.3-8.8c9.9-7.7,20.6-11,33.1-9.4c6.3,0.8,12.9,0.8,17.8-4.2c2.6-2.8,5-5.8,7.2-8.9
	c12.7-17.1,23.6-35.4,32.7-54.7c5.6-11.7,11.5-23.2,15.9-35.4c7.8-21.8,12.3-44.2,10.7-67.5c-0.3-4.6,0-9.3-0.1-14
	c0-2.1,0.3-4.7-2.2-5.6c-2.8-0.9-3.6,1.8-4.6,3.6c-3.7,6.8-7.3,13.4-14.1,17.7c-0.6,0.3-1.1,0.9-1.3,1.5c-1.8,8.2-7.4,15.4-6.3,24.3
	c0.2,1.6,1,3.6-0.8,4.6c-2,1.1-2.7-1.3-3.9-2.3c-8.7-6.7-7.4-16.5-7.7-25.7c-0.1-3.8,0.2-7.6-0.3-11.5c-0.8-5.9,3.7-9.3,6.7-13.3
	c2-2.6,4.6-4.8,6.7-7.4c0.9-1.1,2.2-2.6,0.6-3.9c-1.2-1-2.5,0-3.6,0.8c-1.1,0.8-1.7,1.6-2.6,2.3c-4.2,3.7-8.1,7.6-13.3,10.3
	c-4.4,2.3-6.5,7.4-7.5,12.4c-0.4,1.8-0.3,3.7-0.7,5.4c-0.4,2-0.9,4.2-3.5,4.1c-2.2-0.1-3.2-1.8-3.5-3.7c-0.9-6.7-1.4-13.5-3.8-20
	c-0.9-2.5,1.5-4.6,2.1-7c0.5-2,0.9-4.2-0.9-5.6c-1.8-1.4-3,0.5-4.2,1.4s-2.5,2-3.9,0.4c-1.1-1.3-0.5-2.9,0.3-4.2
	c10.7-18.1,29.9-25.2,50-18.7c2.8,0.9,5.8,1.6,8.7,2.4c1.2,0.3,2.4,0.2,3-1.1c0.5-1.1,0-2.4-1.1-3c0,0-0.1,0-0.1,0
	c-3.8-1.7-6.8-5-11.2-5.3c-7.3-0.6-14.4-2.9-21.8-2.5c-2,0.2-4.1-0.6-5.4-2.2c-2.9-3.9-6.4-3.5-10.2-1.9c-2.3,0.9-4.6,2.1-7.2,2
	c-1.4-0.1-2.8-0.3-3.2-1.9c-0.3-1.4,0.9-2,1.9-2.6c8.1-4.7,16.2-9.1,25.5-11c2.3-0.5,5-0.8,6.6-2.2c5.7-5,11.7-3.2,17.2-0.8
	c8.1,3.5,16.2,7.3,19.1,16.9c0.3,1.7,1.8,3,3.6,3c2.2,0,3.3-1.6,3.8-3.4c1.1-3.9,3.1-7.3,5-10.8c4.3-7.8,12.5-9.6,19.5-12.9
	c3.5-1.6,7.2,0.3,10.3,2.4c3.1,2.1,6,4.2,9.6,5.2c2.2,0.6,4,2.2,3.6,4.7c-0.4,2.7-3,2-4.8,2.3c-6,0.9-11.5,2.8-16.3,6.8
	c-3.2,2.7-6.8,4.8-10,7.4c-1.3,1.1-3.5,2.3-2.4,4.4s3.7,1.6,5.4,0.7c6.9-3.6,14.4-3.8,21.9-4.1c10.2-0.4,21.3,8.6,23.2,18.7
	c0.8,4.5,3.5,8.3,5.9,12.1c1.4,1.9,1.9,4.3,1.5,6.6c-1.1,5.9-0.4,12.1,2,17.6c0.4,0.9,0.7,1.9,0.8,2.9c0.2,1.5,0.3,3.2-1.4,3.9
	c-1.5,0.5-3.1-0.3-3.6-1.8c0,0,0-0.1,0-0.1c-1.5-3.9-4.4-5.7-8.1-7.5s-5.2-6.4-7.4-9.9c-1.6-2.7-4.2-4.7-7.2-5.5
	c-4.7-1.6-8.9-4.3-13.3-6.7c-2.1-1.3-4.5-2.1-7-2.5c-1.5-0.1-3.3-0.4-4,1.3c-0.7,1.7,0.9,2.8,2.1,3.5c8.9,5.2,16,12.4,22.6,20.2
	c2.2,2.6,3,4.7,0.4,7.3c-1.5,1.6-2.3,3.8-2,6c0.1,2.7,0.5,5.3,0.5,8c-0.1,7.4,0.7,14.9-5,21.2c-2.5,2.8-3.7,6.7-4.5,10.5
	s-3.5,6-5.5,8.8c-0.5,0.7-1.2,1.3-2.1,0.9c-1-0.5-1.4-1.6-1-2.6c0.5-1.9,1.1-3.8,1.8-5.7c1.6-4.3,2.2-8.4-1.5-12.1
	c-0.5-0.4-1-1.1-1-1.7c0.3-8.4-4.4-14.7-8.5-21.3c-0.9-1.4-1.2-3.3-2.3-4.4c-3.8-3.7-5-8.4-5.9-13.4c-0.6-3.1-0.8-8-5.1-7.3
	s-2,5.3-1.7,8.1c1.7,13.3,2,26.8-0.4,39.9c-2.8,15.1-5.5,30.3-9.8,45.3c-3.8,12.9-7.5,25.9-11.6,38.7c-4.2,13.1-9,26.1-16.3,37.9
	c-2.7,4.4-1.4,7.1,3.6,8.1c9.8,1.9,19.5,4.5,28.9,7.8c3,1.1,5.4,3.7,8.1,5.7c10.5,7.9,22.8,10.9,35.6,11.8
	c8.8,0.7,17.5,1.3,25.9,4.6c11,4.3,22.8,4.3,34.5,5.3c5,0.4,9.2,2.6,13.8,4c2.1,0.5,3.4,2.5,3,4.6c-0.3,2.2-2.3,2.9-4.1,3
	c-4,0.2-8,0-12,0l-114-0.2C654.8,387.2,644,387.3,633.2,387.3z"/>
<path id="X66FFFFM1Color16_2_" class="st0" d="M375.8,379.1c-1.6,1.6-3.4,0.5-4.8-0.3c-6.2-3.5-12.7-6.5-19.3-9.1
	c-24.9-10.2-50.5-13.5-77.3-8.9c-17.4,3-33.8,8.4-50.5,13.7c-20.9,6.8-41.6,14-63.2,18.3c-8,1.7-16.2,2.1-24.4,1.1
	c-22.8-3-45.1-7.7-63.4-23c-9.6-8-18.4-16.9-25.4-27.4c-2.8-4.1-6.9-7.3-8.9-12c-0.5-1.2-1.8-2.4-0.4-3.6s2.5,0.1,3.5,0.9
	c10.2,8,22.5,11,34.3,15.3c10.7,4,21.7,7.5,32.8,10.4c24.4,6.2,49.2,5.8,74,4.8c17.2-0.7,34-4.1,50.8-7.5
	c15.5-3.1,30.9-6.2,46.7-7.6c30.8-2.7,57.5,8.5,82.9,24.1c3.7,2.2,7,5.1,10.4,7.7C374.7,376.7,375.5,377.8,375.8,379.1z"/>
<path id="X66FFFFM1Color16_1_" class="st0" d="M150.4,433.4c-25.7,0-48.1-6.3-67.7-20.5c-11.4-8.3-21-18.9-30.6-29.3
	c-0.9-1-2-2.2-1-3.5c1.2-1.5,2.7-0.7,4,0.1c0.5,0.4,1.1,0.8,1.5,1.3c10.7,9.6,23.6,15.7,36.9,20.3c17.3,5.9,35.5,6.8,53.7,6.2
	c25.4-0.8,47.8-10.7,70-21.7c14.5-7.1,29.8-12.5,45.6-16c12.8-2.9,25.6-3.9,38.6-5c6.2-0.5,12.4,0.2,18.4,2c1.1,0.3,2.6,0.4,2.6,1.9
	s-1.7,1.5-2.7,1.6c-6.9,1.1-13.8,1.4-20.7,3c-12,2.8-22.7,8.3-33.7,13.5c-15.5,7.3-30.6,15.4-45.9,23.1c-14.3,7.1-28.8,13.9-44,18.6
	C166.8,431.6,158.1,434.4,150.4,433.4z"/>
<path id="XFFB6F5M2Color19" class="st0" d="M352.9,169.2c21.4-1.3,35.4,20,33.4,37c-2.9,24.9-27.9,37.2-48.4,27.1
	c-3.7-1.6-7-3.8-10-6.5c-16.1-15.8-12.4-45.8,11.2-56.1C343.5,168.8,348.3,169.4,352.9,169.2z"/>
<path id="X66FFFFM1Color16" class="st0" d="M331.3,379.1c7.8,0,15.6,0.6,23.4,1.7c1.5,0.2,2.9,0.5,4.4,1c1.7,0.6,4,1.1,3.9,3.2
	c0,2.5-2.5,2.5-4.2,2.6c-18.5,0.7-34.9,9.4-52.5,13.4c-12.1,2.7-24.5,4.8-37.1,3.4c-1-0.1-2-0.3-2.9-0.6c-1.8-0.6-4.3-0.9-4.2-3.5
	c0.1-2.3,2.6-2.5,4.3-2.6c8.6-0.8,15.4-5.9,22.8-9.5C306,380,312.5,377.4,331.3,379.1z"/>
</svg>
