<?xml version="1.0" encoding="utf-8"?>
<!-- Generator: Adobe Illustrator 24.1.0, SVG Export Plug-In . SVG Version: 6.00 Build 0)  -->
<svg version="1.1" id="图层_1" xmlns="http://www.w3.org/2000/svg" xmlns:xlink="http://www.w3.org/1999/xlink" x="0px" y="0px"
	 viewBox="0 0 703.8 821.6" style="enable-background:new 0 0 703.8 821.6;" xml:space="preserve">
<style type="text/css">
	.st0{fill:#FFFFFF;stroke:#000000;stroke-miterlimit:10;}
</style>
<path id="X99FF33M1Color21_3_" class="st0" d="M566,428.6c-19.9,1.5-31.2,14.6-40.4,30c-12.9,21.6-18.9,45.6-24.1,69.9
	c-6.9,31.8-8.9,64.3-15.7,96.1c-5.2,24.4-12.4,48-27.2,68.6c-14.5,20.1-33.7,34.8-54.3,48c-6.1,3.9-12.5,7.6-20,12.2
	c4.2-6.8,7.9-13.9,11.3-21.2c10-22.7,15.2-46.8,19.7-71c6.1-33,9.9-66.6,19.5-98.9c11.2-37.9,26.8-73.8,52.6-104.4
	c11.6-13.8,25.2-25.2,43-30.3C542.2,424.1,554.2,424.8,566,428.6z M424.2,709c1.4,0.5,1.9-0.3,2.4-0.8c23.1-22,36.9-48.8,41.9-80.3
	c3.4-21.2,6.6-42.4,11.9-63.2c2.8-10.8,5.7-21.6,8.6-32.4c-6,11.7-11,23.8-15,36.3c-7.6,23.1-12.1,47-17.6,70.7
	c-4.6,19.7-11,38.7-22.3,55.7C431.1,699.7,427.6,704.2,424.2,709z M424.7,698.8c4.3-4.7,7-10.3,9.7-15.9c12.3-26,17.7-53.9,24-81.7
	c5.2-23.2,10-46.5,17.9-69c2.9-8.2,6.1-16.3,9.2-24.5c-3.9,4.5-6,10-8,15.3c-9.6,24.3-16.4,49.5-22.4,75
	c-5.4,23-10.1,46.2-17.4,68.6C434.2,677.6,429.8,688.4,424.7,698.8L424.7,698.8z"/>
<path id="X669900M1Color24_5_" class="st0" d="M332.8,454.2c3.5,7.5,6.5,15.3,9,23.2c0.7,2-0.1,3.7-0.7,5.3
	c-18.8,55.7-24.2,113.1-21.3,171.5c1.3,29.3,5.4,58.4,12.4,86.9c0.5,1.8,0.4,3.7-0.4,5.3c-7.5,16.1-14.9,32.3-22.4,48.5
	c-0.3,0.7-0.8,1.3-1.7,3C279.4,680.3,279.4,566.1,332.8,454.2z"/>
<path id="X3B5105M2Color17_2_" class="st0" d="M319.4,795.4c3.2-7.2,6.5-14.4,9.6-21.7c16.6-39.8,28-81.6,33.7-124.4
	c4.1-30.2,5.1-60.8,2.8-91.2c-4.1-56.2-20.8-108.3-53.7-154.5c-15.9-22.1-35-41.7-56.7-58c-5.2-3.9-11.3-4.6-17.6-4.3
	c-8.7,0.4-17.3,0.4-25.7-2.2c-0.6-0.2-1.2-0.5-2.8-1.1c14.9-12.2,19.2-28.2,17.3-47.5c7.1,5,13.2,9.5,16.4,15.8
	c8.1,15.6,22,25,34.7,36c44.3,38.4,73.1,86.5,88.9,142.8c10.6,37.9,14.5,76.5,12.7,115.7c-1.5,32.6-6.9,64.9-16,96.3
	c-9.7,33.4-23.4,65.5-40.9,95.6c-0.7,1.1-1.4,2.1-2.2,3.1L319.4,795.4z"/>
<path id="X8D05DDM2Gra4Co8_2_" class="st0" d="M571.4,311.7c-8.6-2.6-17.1-2.1-25.7-0.1c-2.1,0.5-4.1,0.8-2,4.1
	c11.4,17.9,23.5,35.1,39.8,49c14,11.9,30.1,20.1,46.8,27.3c1.5,0.6,3.1,1.2,4.6,1.9c0.3,0.1,0.4,0.5,0.7,0.8
	c-33.8-3.2-63.3-16-88.9-38.4c6,11.4,14,21.1,23.2,29.7c17.2,16.1,37.6,24.7,61,26.5c3,0.2,5.5,0,8-1.8c5.1-3.8,11-6,17.7-7.7
	c-4.9-5.1-10-9.4-14.1-14.6c-10.1-12.8-16.2-27.8-24.2-41.8c-5.3-9.4-10.5-18.9-16.3-28c-11.7-18.2-28.6-26.8-49.6-28.3
	c-11.8-0.8-23.6-0.3-35.5-0.4c5.4-2.4,11.2-3.4,16.9-4c14.5-1.6,28.9-2.4,42.9,3.2c13.4,5.3,23.2,14.7,31.5,26
	c8.5,11.7,15.9,24.2,22,37.4c9.1,19.3,22.4,34.8,39.1,47.8c5.1,4,5,6.6-0.2,10.5c-7.8,5.7-16.7,9.6-24.6,15.2c-3.6,2.6-8.2,3-12.5,2
	c-22.7-5.2-45.4-10.5-66.4-20.9c-22-10.9-35.2-29.4-43.8-51.6c-3.2-8.2-5.8-16.7-7.8-25.3c-3.4-15.5,2.8-24.9,18.3-27.8
	C544.2,300.3,561.5,304.3,571.4,311.7z"/>
<path id="X3B5105M2Color17_1_" class="st0" d="M393.5,398c3.8,18,6.7,34.9,8.6,51.8c5.5,46.7,8.5,93.6,6,140.6
	c-1.6,28.3-5.8,56.3-12.4,83.9c-8,33.8-19.4,66.4-30.8,99c-1.2,3.5-3.3,6.6-6,9c-14.1,13.1-28.1,26.4-42.8,39.3
	c4.8-9,9.6-18,14.3-27.1c20.9-40.7,38.2-82.7,48.9-127.3c10-41.5,13.3-83.7,12.4-126.4c-0.8-38.7-4.6-77.1-10.2-115.4
	c-0.9-5.9-1-11.4,3.7-16.2C388.3,406.2,390.4,402.3,393.5,398z"/>
<path id="XFF00FFM2Gra1Co7_2_" class="st0" d="M80.2,121.8c5,8.5,6.9,18,10.2,27c8.6,24.1,24.1,42.2,47,53.9
	c13.5,6.9,27.9,11.7,41.2,19.2c14.2,8,27.2,17.4,35.3,32.2c4.2,7.8,6.9,16.3,7.8,25.1c1.3,12.1,0.3,24.1-1.3,37.2
	c-9.3-28-31.6-39.2-55.9-48c-6.2-2.2-12.7-3.4-20.4-4.9c14.7-3.2,32.2,0.6,57.4,12c-2.4-6.4-14.6-19.2-24.8-26s-22-10.8-33.7-14.7
	c12.7,1,25,4.6,36.3,10.3c11.2,5.6,21.5,13.1,30.4,22c-5.3-13-14.7-22.3-26.1-29.9c-15.2-10.2-32.3-16.4-48.9-23.7
	c-8.4-3.7-16.6-7.6-24.6-12.1c-1.5-0.9-3-2.2-3.1,1.1c-0.5,20.1-4.9,40.1-1.6,60.3c1.9,11.9,4.5,23.6,11.7,33.6
	c9.3,12.8,22.7,19.1,37.5,23.1c13.7,3.6,27.7,3.8,41.7,2.4c1.5-0.1,3,0,5.2,0c-5.4,2-10.4,1.6-15.3,2c-17.3,1.5-34.6,1.7-51.5-3.5
	c-16.2-5-26.8-16.2-33.9-31c-7.7-16-10.3-33.3-12-50.8c-0.2-2.5-1.1-4.8-2.6-6.8c-6.3-8-8.2-16.8-4.1-26.6c3.2-7.7,1.4-15-2.8-21.9
	c-1.4-2.4-2.9-4.9-4.6-7.1c-7.1-9.7-7-19.6-1.6-30C76.9,138.5,80.4,130.7,80.2,121.8z"/>
<path id="X99FF33M1Color21_2_" class="st0" d="M92.8,485.3c-4.1-61.1,32.2-109.5,91.7-111c59.7-1.5,98.6,45.8,101.8,91.9
	c-3.7-1.8-7.2-3.6-10.8-5.2c-2-0.9-2.4-2.6-2.9-4.3c-6.6-24.3-20.3-43.5-41.2-57.5c-20.2-13.5-42.2-17.1-65.8-10.8
	c-1.1,0.3-2.2,0.4-3.1,1.9c25.3-5.8,47.5,0.9,67.1,16.4c16.4,12.9,27.9,29.5,35.1,49.9c-9-1.5-17.3-3-25.8-3.1c-2.6,0-3-2.4-3.9-4
	c-8-13.9-18.1-25.9-31.9-34.4c-25.2-15.6-56.4-12.5-78.4,7.6c-17,15.6-26.3,35.2-30.4,57.6c-0.3,1.5-0.6,3-0.9,4.4
	C93.4,484.9,93,485.1,92.8,485.3z"/>
<path id="XFF00FFM2Gra3Co7_7_" class="st0" d="M284.4,147.3c-0.4-10.6,0.5-21.2,2.7-31.6c2.1-10.3,4.3-20.5,5-31
	c1-15.5-3.3-29.2-14.9-42c2.5,6.2,5.8,10.5,7.4,15.6c4,12.6,3.3,25.3,1.2,38c-3.3,20.5-8.6,40.7-10,61.6
	c-2.4,37.6,13.4,65.2,45.3,84.2c2.6,1.4,5.1,3,7.5,4.8c-29.3-9.5-52.3-25.7-61-57.3c-4.6-16.7-4-33.7-2.3-50.6
	c1.6-15.9,5.6-31.5,7.6-47.3c2.9-22.8-1.5-43.8-17.3-61.4c-4.2-4.5-9.1-8.4-14.4-11.6c-5.1-3.1-10.6-5.4-16.2-7.9
	c4.4-1.4,9-0.8,13.3,0c12.4,2.3,24,7.1,33.9,15.1c13.6,11.1,28.2,12.2,44,5.6c4-1.7,8-3.3,11.9-5.2c7-3.5,13.5-2.9,19.4,2.3
	c3.1,2.7,6.2,4.4,10.6,4.2c5.1-0.3,8.4,3,9.8,7.7c1,3.4,3,4.3,6.1,4.6c5.3,0.5,10.7,0.4,16-0.4c8-1.1,16.2,0.9,22.7,5.6
	c-3.4-0.6-6.8-1.5-10.2-1.8c-8.5-0.7-17,0.2-25.1,2.7c-8.1,2.6-16.9,1.2-23.8-3.8c-3.1-2.1-6.4-2.6-9.9-2.8
	c-10.7-0.6-21.2,1.4-31.8,2.8c-1.9,0.3-2.5,1.1-2.3,2.9c1,12.6-3.2,24.3-7.2,35.9c-6,17.4-13,34.6-16.5,52.8
	C285.3,141.7,284.8,144.5,284.4,147.3z"/>
<path id="X99FF33M1Color21_1_" class="st0" d="M284.8,703.3c-4.8-7.7-7.5-16-10.3-24.2c-15.9-47-19.8-95.6-19.4-144.8
	c0.1-17.3-0.7-34.6-5.7-51.4c-0.7-2.4,0.1-2.9,2.3-2.8c6.2,0.3,12.1,2.2,18,3.8c1.9,0.5,1.7,2.1,1.9,3.6c2,14.8,1.6,29.6,1.2,44.4
	c-0.1,4,0,8,0.3,12c1.8-18.7,3.9-37.3,3.4-56.1c8.4,1.5,11.8,5.6,11.4,13.5c-1.3,27.6-5.4,55-7.9,82.5c-3.4,37.2-2.1,74.7,4,111.5
	C284.4,698,284.5,700.7,284.8,703.3z"/>
<path id="XFF00FFM2Gra3Co7_6_" class="st0" d="M379.5,91.8c-11.6,16.1-18.2,33.4-12.7,53.3c2.1,7.6,5.7,14.6,14.5,19.4
	c-5.6-10.6-7.1-20.8-6.6-31.2s2.6-20.6,8.3-29.8c-2.1,16.6,3.7,32,6.8,47.7c4.4,21.9-0.1,41.9-11.7,60.7
	c-7.4,12-16.9,22.2-27.2,31.8c-2.6,2.5-4,2.1-6-0.6c-11.8-15.5-22.2-31.6-23.9-51.8c-0.9-10,1.5-21,6.4-28
	c-0.1,9.3,1.8,18.6,5.5,27.1c2.6,6.4,6.7,11.9,12.1,16.2c2.4,1.9,4.3,1.6,6.6-0.2c5.5-4.5,8.8-11.2,8.9-18.3
	c0.4-8.4-1.1-16.6-2.4-24.8c-4-26.2,0.2-50.1,18.8-70.2c0.5-0.7,0.9-1.4,1.3-2.1L379.5,91.8z"/>
<path id="X669900M1Color24_4_" class="st0" d="M358,439.8c-1.5-3.2-2.6-6.4-4.5-9.1c-3.4-4.9-2.6-8.9,0.6-13.8
	c24.8-37.6,55.7-70.8,91.4-98.2c6.5-5,12.5-10.5,18.7-15.8c11.5-9.8,24.6-14.2,39.7-12.7c2.9,0.3,3.6,1,3.1,3.9
	c-1.8,10.4-1.4,21,1.2,31.2c0.9,3.6,0.1,4.9-3.8,5.2c-6.3,0.7-12.7,0.5-18.9-0.4c-15.4-2.7-28.1,2.9-40.7,11.1
	c-37,24.2-64.5,56.7-84.7,95.7C359.7,437.9,359.6,439.2,358,439.8z"/>
<path id="XFFB6F5M2Color19_1_" class="st0" d="M341.5,244.6c-21.7-18.8-37-40.9-34.3-71.4c1.3-14.8,6.4-28.5,12.9-41.7
	c7.3-14.8,15.2-29.2,24.9-42.6c10.9-15,25.8-23.1,43.5-26.8c13-2.8,26-4,39.1-0.5c9.4,2.5,17.1,6.9,17.7,18.1c0.1,2.5,2,3,3.4,3.8
	c9.1,4.8,13.2,12.7,14.1,22.7c0.1,1.3,0.7,2.8-1,3.4c-9.3,3.1-10.1,10.4-9.3,18.6c0,0.7,0,1.3-0.1,2c-7.8-5.9-10.4-14.5-7-23.1
	c0.7-1.8,1.4-3.1-0.1-4.9c-5.6-6.8-10.8-13.9-16.4-20.8c-5.6-6.8-12.9-9.2-21.4-8.4c-21.8,2-39.9,10.6-52.7,29.1
	c-10,14.5-20.1,28.9-28,44.8c-15.8,31.9-10.8,61.5,9,89.8c1,1.4,1.9,2.8,2.8,4.1S340.5,243.3,341.5,244.6z"/>
<path id="X99FF33M1Color21" class="st0" d="M546.4,577.2c-15.1,12.5-23.8,29.1-28.9,47.5c-4.1,14.7-7.1,29.8-10.9,44.6
	c-5.6,21.6-13.1,42.2-28.8,59c-11.2,12-24.9,19.9-40.1,25.4c-17.1,6.1-34.9,8.1-53.1,8.9c5.5-2.3,11.1-4.7,16.6-7
	c30.6-13.2,54.3-34.2,71.3-63c11.7-19.7,19.5-41.1,28.9-61.9c8.2-18.2,17.7-35.5,34.2-47.8c3.2-2.3,6.5-4.4,9.8-6.6L546.4,577.2z"/>
<path id="XFF99FFM1Color9_5_" class="st0" d="M8.8,255.6c-2-11.4-4.1-22.4-2.8-33.8c1.3-14.1,8.1-27.1,18.7-36.3
	c11-9.7,23.9-16.2,37.4-21.5c2-0.8,3.2-0.9,3.3,1.6c0.3,7.1,4,12.6,8.3,17.7c6,7.1,7.2,14.7,4,23.2c-0.7,1.9-1.7,3.8-1.8,5.7
	c-0.3,7-4.6,8.4-10.6,9.4c-21.9,3.6-40.5,13.4-53.9,31.8c-0.5,0.7-1,1.3-1.6,1.9C9.7,255.4,9.5,255.4,8.8,255.6z"/>
<path id="X3B5105M2Color17" class="st0" d="M373.1,379.4c-3.4-11.8-6.5-23-10.5-33.8c-8.2-21.8-17.2-43.2-31.6-61.9
	c-6.6-8.4-11.2-18.2-13.6-28.6c-0.9-3.9,0.3-4.9,3.9-3.3c11.6,4.9,23,4.8,34.1-1.3c2.8-1.5,3.5-0.3,4,1.8c0.8,3.1,1.9,6.2,1.8,9.3
	c-1.1,23.4,6.4,44.9,13.5,66.5c3.7,11.2,6.7,22.6,10,33.9c0.4,1.3,0.9,2.5-0.1,3.7C381,370.1,377.3,374.5,373.1,379.4z"/>
<path id="XFF00FFM2Gra5Co7_5_" class="st0" d="M670,386.9c1-11.2-3.4-20.8-9.2-29.6c-7.9-12-7.3-23.7-0.7-35.7
	c0.9-1.6,1.4-3.4,2.3-5c3.9-7.2,2.1-13.3-3.1-19.1c-16.5-18.1-37.4-26.5-61.4-28c-25.7-1.6-50.7,2.6-75.3,9.9
	c-0.9,0.3-1.8,1.1-3.1,0.2c6.3-3.8,13.1-5.8,19.7-8.3c20.2-7.5,40.8-12.1,62.5-10.1c14.1,1.2,27.4,5.2,40.5,10.1
	c14.7,5.7,29.2,12.1,43.2,19.2c2.5,1.3,4.8,2.9,7,4.7c7.6,5.8,7.5,12.8-0.2,18.3c-1.6,1.1-3.4,2.2-5.1,3.1
	c-17,9.6-21.6,20.6-16.8,39.5c1.4,5.6,3.1,11.2,3.2,17.1C673.6,378.1,672.4,382.8,670,386.9z"/>
<path id="XFF00FFM2Gra1Co7_1_" class="st0" d="M63.8,259.7c5.6-5.2,11.1-10.4,16.7-15.6c1.3-1.2,2.8-2.2,4.9-3.8
	c0.5,9.1,0.6,17.7,3.3,25.6c1.4,4.2,1,5.6-3.5,7.6c-12.8,5.5-19.2,16.9-23.6,29.5c-2.6,7.5-3.4,15.3-1.2,23.1
	c3.8,13.5,14.5,17.5,26.9,19.3c22.8,3.3,45.1,0,67.4-4.4c18.6-3.8,36.9-8.7,54.9-14.6c0.8-0.1,1.5,0,2.3,0.1
	c-7.8,4.7-16.1,8.7-24.7,11.8C153,351,117.5,354.1,81.6,354.4c-5.3,0-10.6-0.9-15.7-2.7c-11.6-4-15.5-13.6-16.2-24.6
	c-0.5-7.5-1.1-14.8-3.5-21.9c-2.2-6.6,0.6-13.1,1.6-19.7C51.4,275.8,57.1,267.5,63.8,259.7z"/>
<path id="X669900M1Color24_3_" class="st0" d="M425.4,328.1c5-17,10.8-32.2,16.4-47.4c7.4-19.9,17-39,22.4-59.7
	c2.2-8.4,8.4-15,14.9-20.9c1.8-1.7,2.4-0.4,3.4,0.9c1.9,2.9,3.9,5.8,6.1,8.5c3.4,3.9,7.6,6.6,12.8,7c3.7,0.3,3.2,1.6,1.6,3.9
	c-6,8.7-12.6,17.1-21.4,22.8c-9.9,6.4-14,16.1-18,26.1c-5.2,12.8-9.9,25.8-14.7,38.7c-0.6,1.6-1.1,3-2.7,4
	C438.8,316.7,431.9,322.1,425.4,328.1z"/>
<path id="X669900M1Color24_2_" class="st0" d="M165.3,546.3c-5.6-3.8-11-6.5-17.9-3.2c0.3-4.9,1.9-9,3.4-13.2
	c7.1-20.1,17.5-38,34.4-51.6c23.6-19,50-23.5,78.9-15.5c14.8,4.2,28.6,11,40.9,20.2c4.3,3.1,5.4,6.1,3,10.8c-1.1,2.4-2.1,4.8-3,7.2
	c-8.9-8.7-18.4-15.8-29.6-20.5c-24.7-10.4-49.5-11-74.2-0.4c-23.1,9.9-37.5,33.7-36.4,58.7C164.9,541.2,165.1,543.5,165.3,546.3z"/>
<path id="X8D05DDM2Gra4Co8_1_" class="st0" d="M181.1,587.1c-0.4,13.2-4.7,26-12.4,36.8c-1.6,2.2-2.6,2.8-5,0.9
	c-15.8-12.2-28.8-39.2-19.7-62.1c2.5-6.3,6.8-11.4,11.5-16.1c2.8-2.8,4.8-0.7,6.8,0.8C174,556.1,181.1,570.9,181.1,587.1z"/>
<path id="XFF00FFM2Gra3Co7_5_" class="st0" d="M547.6,154c10.1-0.2,10.2-0.1,8,9.7c-4.6,19.7-15.2,34.6-34.1,42.7
	c-7.3,3.1-15.1,3.7-23,3c-3.4-0.3-4.1-2.2-4.2-5.4c-1.5-25.2,16.2-40.9,37.6-47.6C537,154.8,542.3,154,547.6,154z"/>
<path id="XFF99FFM1Color9_4_" class="st0" d="M261.7,15.3c11.2-2.5,21.2-5.4,27.8-15.4c3.2,3.9,7.7,6.5,12.7,7.3
	c3.9,0.7,7.7,0.6,11.2-1.4c8.8-4.8,16.8-4.1,24.2,2.9c4.5,4.3,10.2,6,16.3,6.9c17.5,2.7,32.4,9.6,42.6,25.8
	c-5.3,0.4-10.1,0.8-15,1.1c-5.3,0.2-10,0-12.1-6.7c-1.5-4.7-6.4-6.6-11.4-6.6c-3.2,0.2-6.2-1.2-8.3-3.6c-6.1-6.9-13.1-7.3-21.1-3.4
	c-6.9,3.6-14.3,6.4-21.9,8.1c-13.8,3-25.4-2.6-36.7-9.5C267.5,19.3,265,17.6,261.7,15.3z"/>
<path id="XFF99FFM1Color9_3_" class="st0" d="M239,76.7c3.2,6.1,4.8,11.7,0.6,17c-4.5,5.7-10.7,8-17.8,6.5
	c-6.2-1.3-9.4-6.1-10.3-12.2c-0.6-3.8-3.6-2.9-5.8-3.3c-8.1-1.8-11.5-6-10.9-13.8c8.4,5,10.9,4.7,18-2.6c6.9-7,13.3-14.4,23.4-17.2
	c13.3-3.8,26.1,1.6,34.5,10.3c2.2,2.3,2.2,5.5,2.7,8.4c2.6,17.3,0.4,34.2-3.8,51c-0.8,3-1.4,6.1-2.4,9.1c0.7-7.3,1.1-14.6,1-21.8
	c-0.3-10.8-1.8-21.3-7.8-30.6c-5.4-8.2-13-12.7-23.2-11.7c-3,0.3-5.8,1.6-8,3.7c-2,1.9-3.5,4.1-2.4,7.1c0.8,2.8,3.3,4.8,6.3,4.9
	C236.2,81.8,237.8,80.1,239,76.7z"/>
<path id="XFF00FFM2Gra5Co7_4_" class="st0" d="M676.4,410c1.1-5.3,0.2-9.6-3.6-12.8c-1.7-1.5-1.4-2.7-0.4-4.3
	c6.5-10.9,6-22.5,3-34.3c-0.7-2.7-1.5-5.5-2-8.2c-2.4-12.9,1.3-22.9,13.2-29.5c5.9-3.2,11-7.4,14.6-14.7c3.1,16.4,4.8,31.5-2.4,45.9
	c-4,8-6,15.4-3.6,24.7C699.6,393.3,695.4,399.8,676.4,410z"/>
<path id="XFF00FFM2Gra3Co7_4_" class="st0" d="M408.1,75.7c-13,8.6-15.6,15.2-12,30.9c3.8,16.2,9.6,31.8,11.7,48.4
	c3.4,26.4-4.2,48.6-23.8,66.6c-8.3,7.8-17.6,14.6-27.7,20c3.4-3.5,6.7-7,10-10.5c8.7-9.2,16.6-19.1,21.6-30.9
	c8.9-20.9,9.5-42.2,4.5-64.1c-2.1-9.4-4.9-18.7-5.5-28.4c-0.7-11.4,1.1-22,11.8-28.9C401.6,77.2,404.8,76.5,408.1,75.7z"/>
<path id="XFF00FFM2Gra3Co7_3_" class="st0" d="M491.7,203.3c-11.9-18.2-17.7-37.4-10.2-58.9c6-17.3,17.7-30.7,30.7-43
	c7.3-7.1,15.1-13.6,23.3-19.6c1.3-0.9,2.4-2.3,4.7-1.9c-1.7,4.2-4.6,7.3-7.5,10.3c-10.3,11-17.2,23.6-19.3,38.6
	c-0.2,1.7-0.9,3.2-2.1,4.4C491.5,152.9,486,176.5,491.7,203.3z"/>
<path id="X8D05DDM2Gra4Co8" class="st0" d="M103,669.7c-3.2-4.8-2.6-9.6-3.2-14.1c-2.7-18.2-3.9-36.4-0.9-54.7
	c4.7-28,21.4-45.3,48-53.7c1.4-0.4,2.9-0.6,5.5-1.2c-5.2,4.6-9.6,8.2-13.7,12.1c-14.3,14-20.2,31.3-20,51c0,2.6-0.8,5.2-2.3,7.4
	c-7.9,11.8-11.5,25-11.8,39.1C104.5,660,105.1,664.5,103,669.7z"/>
<path id="XFF99FFM1Color9_2_" class="st0" d="M63.8,259.7c-6.7,7.7-12.4,16.1-16,25.8c-5.4,8.9-6.6,17.9-1.8,27.4
	c0.8,1.6,1.9,2.9,1.2,5c-4.8,14.2-0.5,26.9,7,38.8c6.4,10.2,15.7,16.8,28.2,20.9c-22.2-0.4-44.1-11.9-50.1-40.6
	c-2.7,6.2-2.3,12.5,1.6,23c-11.3-9.7-16.2-26.8-10.6-40.5c9.2-22.5,23-42.3,39-60.5c1-1.1,1.1-1.1,2-0.5
	C64.4,258.5,63.9,259.3,63.8,259.7z"/>
<path id="XFF99FFM1Color9_1_" class="st0" d="M18,332.5C1.2,318.3-4.7,295.6,4,275.5c13.2-30.4,37.2-46.7,69.8-50.9
	c0.2,0,0.5,0.2,1.3,0.6c-5.6,2.4-10.9,4.6-16.1,7C44.6,238.8,31.6,247,24,261.5c-5.2,9.6-7.4,20.5-6.3,31.4
	c0.5,5.2,1.7,10.2,6.3,13.6c1.3,0.9,1.5,1.8,0.6,3.3C20.2,316.5,18,324.4,18,332.5z"/>
<path id="XFF00FFM2Gra5Co7_3_" class="st0" d="M142.2,558.3c-4.3,9.2-4.4,18.5-3.3,28c0.3,1.6-0.3,3.3-1.5,4.4
	c-7.5,8.3-8.6,18.2-6.4,28.5c2.3,10.8,6.6,21,12.7,30.2c3.6,5.5,7.8,10.2,15.2,9.6c7.8-0.6,11.3-6.4,14-12.7
	c3.8-8.6,5.1-17.9,6.3-27.1c0.1-0.6,0.3-1.3,0.5-2.1c1.8,8.6-0.9,28.2-5.5,40.9c-0.8,2.5-1.8,5-3,7.3c-4.4,7.5-10.9,9.1-18.1,4.2
	c-14.6-9.7-25-24.5-29.2-41.5c-6.4-24.7-2-47.1,14.6-66.8C139.4,560.2,140.1,558.8,142.2,558.3z"/>
<path id="XFFB6F5M2Color19" class="st0" d="M492.6,185.9c-1-19.9,6.1-36.7,20.1-50.6c16.7-16.5,36.9-23.7,60.4-21.9
	c1.8,0.2,3.6,0.5,5.4,1.1c7.6,2.3,10.6,7.8,8.2,15.4c-5.2,16.2-14.8,29.6-27.1,41.3c2.5-3.7,5.1-7.4,7.5-11.2
	c4-5.9,7.2-12.4,9.3-19.2c3.3-11.7-4.1-21.3-16-19c-18.1,3.4-35,9.9-45.8,26.3c-1.8,2.7-3.2,5.7-3,8.9c0.3,5-1.8,8.2-5.6,11.2
	C500,172.7,496,179,492.6,185.9z"/>
<path id="XFF00FFM2Gra3Co7_2_" class="st0" d="M304.8,199.8c-5.5-14.9-7.7-29.9-5.2-45.3c3.9-24.1,15.8-44.7,29.1-64.5
	c6-9,10.7-18.3,13-29c2.5,1.8,1.7,4.4,2.3,6.5c0.8,2.8,1.4,3.1,3.8,1.4c11.6-8.3,24.7-12,38.9-12.4c1,0,2,0,3.6,0
	c-2,2.4-4.5,2.1-6.5,2.8c-19.6,6.7-35.1,18.7-47,35.5c-12.5,17.6-23.1,36.1-29.3,56.9c-4.3,14.1-5.1,29-2.5,43.5
	C305.4,196.5,305.9,197.9,304.8,199.8z"/>
<path id="X669900M1Color24_1_" class="st0" d="M414.2,537.7c-1.3-16.3-2.8-32.5-3.7-48.8c-1.5-25.8-1.6-51.6-0.3-77.4
	c0.6-11.3,2.4-22.5,3.7-33.8c0.4-4.5,2.7-8.6,6.3-11.4c4.1-3.5,8.5-6.7,13-9.6c-18.9,60-20.5,120.3-17.7,181L414.2,537.7z"/>
<path id="X669900M1Color24" class="st0" d="M345,712.5c2.3-15.5,3.7-31,4.2-46.6c1.3-39.5-1.9-78.5-15.5-116
	c-0.7-1.7-0.8-3.6-0.5-5.4c0.2-0.8,0.2-1.7,0.4-2.5c1-4.7,2.2-9.4,3.7-14c13.1,29.1,17.6,59.9,18.2,91.4
	C356.3,650.7,352.7,682,345,712.5z"/>
<path id="XFF00FFM2Gra3Co7_1_" class="st0" d="M524.4,209c5.8-4.7,12.1-8.6,17.5-13.7c6.1-5.7,11.7-11.9,16.6-18.5
	c3-4,6.9-7.1,11.5-9.1c12.8-5.9,25.2-12.8,37.5-19.7c1-0.6,2.2-2.2,3.4-0.9s-0.3,2.5-1.1,3.4c-20.2,25.2-42.7,47.2-74.9,56.2
	C531.5,207.6,527.9,208.2,524.4,209z"/>
<path id="XFF99FFM1Color9" class="st0" d="M367.6,14.5c39.6,1.4,59.8,12.7,71.9,48.1c-6.7-2.5-12.8-4.7-18.9-7c-0.5-0.2-0.8-0.5-1-1
	c-2.5-7.8-9.2-10.4-16-12.8c-1.5-0.5-3-0.9-4-2.6c-6.8-11.3-16.8-18.6-29-23.2C369.9,15.7,369.4,15.3,367.6,14.5z"/>
<path id="XFF00FFM2Gra1Co7" class="st0" d="M70.8,320c23.2,11.7,51.1,17.1,67.9,12.8c-12.4-4-22.4-10.3-30-22.3
	c5.3,3.5,9.3,6.5,13.5,9c17.5,10.1,36.6,10.2,55.8,8.1c9.3-1,18.6-2.7,28.1-3.1c-9,2.7-18,5.5-27.1,8c-18.9,5.1-38,8.8-57.6,7.7
	c-18.2-1-34.9-6.5-49.4-17.9c-0.7-0.5-1.4-0.9-2.2-1.2L70.8,320z"/>
<path id="XFF00FFM2Gra5Co7_2_" class="st0" d="M645.7,298.6c-8.5-4.2-17.3-7.7-26.3-10.5c-9-2.7-18.2-3.6-27.4-5.4
	c4.7,2.9,10.1,4.4,15.3,9.3c-27.3-11.7-54.5-13.6-82.3-11C568.1,267.3,609,268.8,645.7,298.6z"/>
<path id="XFF00FFM2Gra5Co7_1_" class="st0" d="M180.6,568c16,29.8,20.2,61.7,17.4,94.9c-2.1-5.8-2.6-11.9-4.5-17.7
	c-2.5-7.5-6-14.4-9.2-21.5c-1.1-2.4-2.3-4.7-1.9-7.6C184.3,599.9,184.5,583.9,180.6,568z"/>
<path id="XFF00FFM2Gra3Co7" class="st0" d="M513.5,162.6c1.4-14.7,15.7-28.3,33.8-32.1c-5.2,3-9.4,5.2-13.4,7.9
	c-6.2,4.1-11.4,8.9-12.2,17.2C521.5,159.3,516.6,159.5,513.5,162.6z"/>
<path id="XFF00FFM2Gra5Co7" class="st0" d="M139.8,591.1c2.1,5.4,2.1,9.6-0.6,15c-4.2,8.6-0.8,17.8,2.3,26.5c0.6,1.5,1.2,3,2.3,5.4
	C133,624.1,130.5,604.4,139.8,591.1z"/>
</svg>
