<?xml version="1.0" encoding="utf-8"?>
<!-- Generator: Adobe Illustrator 24.1.0, SVG Export Plug-In . SVG Version: 6.00 Build 0)  -->
<svg version="1.1" id="图层_1" xmlns="http://www.w3.org/2000/svg" xmlns:xlink="http://www.w3.org/1999/xlink" x="0px" y="0px"
	 viewBox="0 0 345.4 740.4" style="enable-background:new 0 0 345.4 740.4;" xml:space="preserve">
<style type="text/css">
	.st0{fill:#FFFFFF;}
	.st1{fill:#FFFFFF;stroke:#000000;stroke-miterlimit:10;}
</style>
<g>
	<g>
		<path id="XFF99FFM2Gra8Co6_31_" class="st0" d="M155.4,198.5c-0.1,0.7-0.1,1.3-0.2,2c-0.6,3.5,0.2,5,3.8,2.7l1.4-0.6
			c7-3.7,8.6-2.8,9.3,5.4c0.8,10.2-2.8,19.4-7,28.2c-3,6.3-4.4,12.4-1.7,19.1c0.5,1.7,0.7,3.6,0.4,5.4c-0.5,6-2,6.6-7.2,4
			s-8.2-4.4-10.5-8.7c-0.9-1.7-2.2-2.2-4.1-1c-5.2,3.2-11.2,2.6-17,3c-2,0.1-3.2-0.8-3.3-2.9c-0.2-5.5-3.4-10.5-2.6-16.2
			c0.3-2.1-1.1-3.2-3-4c-3.4-1.5-6.1-3.9-8.7-6.6s-1.9-3.4,0.4-4.8c14.5-8.9,27-20.4,39.6-31.8c1.2-1,2.4-1.8,3.8-2.4
			c3.6-1.8,5.5-0.8,6.3,3.3c0.2,0.8,0.3,1.7,0.3,2.5C155.3,196.1,155.4,197.3,155.4,198.5z"/>
		<path id="X66FF00M1Gra3Co17_31_" class="st0" d="M118.3,636.8c-17.5-6.6-33.2,2.5-49.5,5.1c-5.3,0.8-10.5,1.7-15.8,0.3
			c-1.4-0.4-3.9-0.8-3.3-2.3c2.1-4.9-2.5-4.8-4.5-6.7c-5-4.6-10.1-9.2-15-13.9s-8.2-8.7-13.8-11.4c-0.9-0.4-1.5-1.2-1.8-2.2
			c-0.2-0.9,1-1.1,1.8-1.1c10.7,0.7,20.4-2.4,30.3-6.4c16-6.5,29.5,0.1,40.4,11.6c7.8,8.2,15.4,16,25.8,20.8
			C115.4,631.9,117.4,634.1,118.3,636.8z"/>
		<path id="XFF66FFM2Color7_7_" class="st0" d="M328.1,267.5c-6.7-4.3-9.1,1.5-12.1,6.2c-0.9,1.2-1.8,2.4-2.8,3.5
			c-1.3,1.7-2.7,1.8-4,0.1c-4.3-5.5-11.9-5.7-16.9-10.2c-1.8-1.7-3.6,0.9-5.3,1.6s-5.4,4.6-7.8,3.1s1-4.7,1.2-7.3
			c0.6-11.1,1.5-22.3,2.2-33.4c0.3-4.5,2.2-8.8,5.5-11.9c1.7-1.7,3.3-1.9,5.2-0.2s6.1,5.7,8,9.5s2.7,2.1,3.7,0c0.9-2,1.7-4,2.4-6
			c1.8-4.8,4-5.8,8.5-3.6c4.9,2.3,8.3,6.9,9.2,12.3c1.5,7.7,2.7,15.4,3.9,23.1c0.5,3,1.5,5.8,2.9,8.5c0.6,1.2,2.5,2.1,1.2,3.8
			S330.3,267.3,328.1,267.5z"/>
		<path id="XFF00FFM2Gra4Co7_31_" class="st0" d="M54.8,382.4c-0.1-10.8-0.1-10.8-11.3-15.2c-1.4-0.5-4-0.2-3.7-2.5s2.7-1.5,4.2-1.8
			c10.4-1.7,19.8-6.6,29.7-10c6.1-2.1,12.4-4.1,19-3.6c5,0.3,5.3,1.4,3.1,5.7s-3.6,8.2-5.4,12.3s0.2,3.6,2.6,3.6
			c3.8,0.1,7.7-0.4,11.3-1.6c4-1.4,5.2,0.6,4.9,4.2c-0.5,5.8-3.8,10.2-8,14s-8.3,7.1-12.4,10.9c-3.8,3.6-6.5,8.1-7.8,13.1
			c-0.3,1.1,0,2.6-1.5,2.9s-2.2-1.2-3-2.2c-3-4-5-8.7-5.7-13.7c-0.4-3.2-1.8-4.4-4.8-4.2h-0.4C54.9,393,54.9,393,54.8,382.4z"/>
		<path id="XFF99FFM2Gra8Co6_30_" class="st0" d="M104.2,166.4c-0.5,9.4,0.5,10.2,8.5,5.9c3.6-1.9,5-0.8,6.5,2.3
			c2.5,5.2,1.3,10.1-1,14.9s-5,12.4-5.2,19.1c-0.1,3.8-2.8,5.2-5.3,6.6s-3.3-0.9-3.8-2.7c-1.2-4.4-3-5.3-7.8-3.7
			C83.7,213,82,211.7,78.9,199c-2.3-9.5-2.3-9.4-11.8-8.9l-11,0.4c-0.8,0-1.8-0.2-1.9-1.2c0.1-0.6,0.5-1.2,1-1.5
			c10.7-6.4,18.4-16.4,27.7-24.4c3.5-3.2,7.9-5.1,12.6-5.4C103.8,157.5,104.6,158.2,104.2,166.4z"/>
		<path id="XFF00FFM2Gra4Co7_30_" class="st0" d="M271.4,449.8c-9.5-0.2-12.2,0.5-20.2,6.1c-3.1,2.1-5.4,2.5-8.2-0.4
			s-6.6-3.7-10-5.4s-3.8,0.1-5.4,1.3c-3.5,2.8-7.7,4.6-12.2,5.3c-1,0.1-2.1,0.3-2.7-0.7s-0.2-1.9,0.5-2.7c7.8-9,9.6-20.2,11.7-31.3
			c0.8-4.6,2.6-9,5.2-12.8c1.5-2.2,3.1-2.6,5.4-0.9c3.2,2.2,5.7,5.1,7.4,8.6c1.3,2.8,2.8,3.3,4.2,0l2.4-6c1.8-4.4,4.2-5.4,8.4-3.1
			s6.4,6.1,7.6,10.6c2,7,4.1,14,6.3,21c0.6,1.7,1.4,3.3,2.3,4.9c0.7,1.4,3,2.3,2.1,4.1S272.9,449.6,271.4,449.8z"/>
		<path id="X66FF00M1Gra3Co17_30_" class="st0" d="M121.3,673c-8.5,0.1-16.2,3.7-22,11.6c-2.7,3.7-6.1,7-9.2,10.5
			c-0.5,0.6-1.6,1.6-1.9,1.4c-4.2-2.8-6.7,1.4-9.9,2.5c-6.4,2.3-12.8,3.5-19.6,2.5s-13.8-2-20.8-2.8c-2.8-0.3-3.4-1.3-1.6-3.4
			c7.1-8.4,11.7-19.2,23.1-23.5c0.7-0.3,1.7-1.2,1.6-1.7c-0.7-6.1,4.4-5.4,7.6-6c9.1-1.4,18.4-0.4,27,2.8c3.8,1.4,7.9,1.5,11.7,0.4
			c6-1.8,12.4-1,17.9,2c1.2,0.7,3.4,1,3,2.8s-2.5,0.7-3.9,0.9H121.3z"/>
		<path id="X009900M1Gra7Co18_15_" class="st0" d="M251.4,671.9c-4.9,3.7-10.6,6.1-16.7,7c-7,1.2-14,0.4-20.9-0.5
			c-11-1.4-21.8-2.1-32.6,1.1c-0.9,0.3-2,0.6-2.6-0.6s0.2-1.6,1-2c9.4-5.6,16.1-14.4,24.5-21.2c4.9-3.7,10.4-6.6,16.3-8.4
			c2.3-0.8,4.8-1.4,7.1,0.5c0.7,0.5,1.5,0.7,2.3,0.6c11.4-1.2,23,0.9,34.4-1.2c1.4-0.3,3.2-1.2,4,0.7s-0.8,2.4-1.7,3.3
			c-4.7,5.2-9.9,9.9-15.6,14c-1.4,1-3.9,1.3-3.9,3.5S250.3,669.4,251.4,671.9z"/>
		<path id="XFF00FFM2Gra4Co7_29_" class="st0" d="M341.3,411.5c-0.2,2.4-2,1.9-3.3,1.6c-3.6-0.9-6.8-2.8-9.2-5.6
			c-2.3-2.5-4.1-2.3-5.8,0.6c-0.8,1.3-1.6,2.5-2.6,3.6c-5,5.9-5.7,5.9-11.3,0.8c-1.3-1.1-2.6-2.1-4-3c-3.7-2.4-6.9-2.9-10.5,0.9
			s-7.4,5.7-11.1,8.4c-0.7,0.5-1.5,1.1-2.3,0.6s-0.8-1.4-0.4-2.2c4.3-10.4,3-21.7,5.6-32.3c0.8-4.1,2.7-7.9,5.4-11.1
			c2.2-2.5,4-2.4,6.2,0c2.2,2.3,4.1,4.8,5.6,7.6c0.6,1.2,0.8,2.8,2.4,2.9s2.2-1.8,2.8-3c1.1-2.1,2-4.2,2.8-6.4c1.8-5.3,6.6-6.7,11-3
			c3.2,2.7,5.5,6.3,6.5,10.4c2.3,9.9,4.7,19.8,11.4,27.9C340.8,410.6,341.1,411,341.3,411.5z"/>
		<path id="X66FF00M1Gra3Co17_29_" class="st0" d="M152.5,683.4c-1.2-7,1-13.2,3.3-19.2c1.4-3.6,3-7.2,5.8-9.9
			c5.3-5.2,6.9-11.9,8.2-18.8c2.2-11.5,8.6-20,18.6-26c1-0.6,2.2-1.4,3.2-1.2c9.6,1.7,17.1-3.9,25.2-7.3c1.2-0.5,2.2-2.1,3.5-1.3
			s0.8,2.7,0.5,4.1c-1.3,6.4-3.7,12.5-7.1,18c-0.6,1-1.8,2.5-1.5,2.9c2.5,3.4,0.9,6.1-1.1,8.9c-3.3,4.5-7.9,7.8-13.2,9.4
			c-6.7,2-13.6,3.6-19.7,7c-11.9,6.5-18.9,17-23.1,29.5c-0.4,1.1-0.7,2.2-1.1,3.3S153.3,683,152.5,683.4z"/>
		<path id="X66FF00M1Gra8Co17_7_" class="st0" d="M161.9,717.3c-0.3-3.2,0.1-6.3,1.2-9.3c0.3-0.9,0.7-2-0.1-2.8s-1.8-0.3-2.7,0.2
			c-3.1,2.1-3.8,0.8-3.4-2.3s0.4-4.7,0.8-6.9s1.6-6.1,4.2-8.3c8.1-6.8,27.8-2.7,32.4,6.8c2.1,4.3,3.8,8.9,5.9,13.2
			c1,2,0.6,3.3-1.2,4s-3.8,3.8-3.9,6.8s-0.8,4.9-1,7.4s-1,4.3-4.6,4.1s-5,4.3-7.2,6.8s-1.3,3.6-3.2,3.5s-2.3-2.5-3-4.2
			s-2.9-6-4.6-8.8s-2.2-3.3-4.4-2.2c-4.5,2.2-5.2-0.4-5.2-4C161.8,720,161.9,718.7,161.9,717.3z"/>
		<path id="X009900M1Gra7Co18_14_" class="st0" d="M220.6,635.9c1.5-7,4.7-14.9,10.7-19s13.2-9.1,21.7-9.8c7.8-0.7,15.4-3.3,22-7.5
			c0.8-0.5,1.7-1.4,2.6-0.5s0,2.1-0.4,3.2c-2.5,6.9-6.7,13.7-7,20.6s-4.5,11.3-7.8,16.4c-1.7,2.6-4,3.5-7.2,3.5
			c-6.8-0.1-13.6,0.3-20.4,1.2c-4.2,0.6-8.9-1.8-13.3-3.2C220.2,640.2,220.6,638.1,220.6,635.9z"/>
		<path id="XFF00FFM2Gra4Co7_28_" class="st0" d="M258.3,293c0.4,0.4,0.8,0.8,1.2,1.3c0.6,0.8,0.9,1.8,1.6,2.5
			c2,2.4,3.8,6.4,6.8,5.8s3.3-5,3.6-7.9s2.1-5.2,6.2-3.7c8.3,3,11.6,9.6,12.8,17.5c0.9,6.1,1.4,12.2,4,17.9c1,2.2,0.5,3.7-2.5,2.6
			l-0.9-0.3c-5-3-7.3-0.5-8.8,4.1s-2.9,5.3-6.5,1.6s-5.5-3.6-7.8,1.6c-1,2.1-1.8,4.3-2.6,6.5s-0.6,1.6-1.6,1.6s-1.4-0.9-1.5-1.7
			c-1.6-10.3-6.1-19.6-9.2-29.4c-1.9-6-0.7-12.2,2.5-17.8C256.2,294.2,256.7,293.2,258.3,293z"/>
		<path id="XF37FFFM2Gra1OT20_7_" class="st0" d="M22.8,272.6c0-1.3-0.1-3.4,0-5.6c0.3-6,3.8-9.9,9.9-10.5c2.7-0.3,5.4-0.6,7.6-2.1
			s6.6-1.3,9.1,1.7c7.6,8.6,12.9,18,10,30.2c-0.6,2.6-8.1,9.7-11.4,10.3c-3.9,0.8-8,0.7-11.9-0.2c-9-2.2-12.1-6-12.9-15.3
			C23,278.5,23,276,22.8,272.6z"/>
		<path id="X66FF00M1Gra3Co17_28_" class="st0" d="M187.9,574c-0.6,8.4-3.5,15.6-7.1,23c-6,12.5-17.1,14.6-28.1,17.8
			c-8,2.4-15.5,5.9-21.9,11.5c-0.8,0.7-1.6,2.2-2.9,1.3s-0.3-2.1,0.1-3.1c6.4-15.7,15.7-29.2,29.6-39.2c1.6-1.2,3.5-4.4,4.4,0.8
			c0.4,2.4,2.3,0.7,3.5,0.1C172.9,582,181.8,580.8,187.9,574z"/>
		<path id="XF37FFFM2Gra2OT20_7_" class="st0" d="M171.6,121.8c0.6-3,1-6.9,2.2-10.5s6.7-5.7,11-6.3c9.3-1.2,17,3.7,20.7,12.3
			c0.8,1.8,1.4,3.8,2.1,5.6c3.7,9.7-0.6,14.3-9.1,19.9c-2.3,1.5-5.1,1-7.7-0.2s-7.5-3.8-11.4-4.8s-7-4.4-7.1-9.3
			C172.3,126.5,171.9,124.5,171.6,121.8z"/>
		<path id="XFF99FFM2Gra8Co6_29_" class="st0" d="M257.1,27.4c6.6-2.7,7.6,3,9.9,7.1s-0.7,6.5-2.9,9.1c-4.8,5.3-9.1,11-13.1,17
			c-0.6,0.9-0.8,2.4-2.3,2.1s-1.7-1.8-1.8-3.2c-0.1-5.4-1.8-10.9,0.8-16.2c0.9-1.7,0.5-3.2-1.5-4c-6.6-2.7-11-9.2-18.5-10.5
			c-1.2-0.3-2-1.4-1.9-2.6c-0.2-3.2-1.3-6.2-3.2-8.8c-1.8-2.7-0.4-3.4,2.1-3.7c7.3-1,14.4-2.3,21.3-5.1c4.7-1.9,6.8,2.6,9.5,4.8
			s-0.7,3.7-1.5,5.6s-0.7,0.7-0.9,1.2c-1,2.2-4.8,3.6-3.7,5.9S254.2,26.8,257.1,27.4z"/>
		<path id="XCD05D3M2Color8_7_" class="st0" d="M49.5,385.5c0.3,10.2,0.3,10.3,10.7,11.2c3.2,0.3,5.1,1.1,6,4.6
			c1.4,5,3.9,9.6,7.3,13.5c1,1.2,1.9,2.5,1.2,4.1s-2.6,1-4,0.9c-4.7-0.3-9.3,0.9-13.3,3.4c-2.3,1.4-3.7,1.1-4.2-1.8
			c-0.2-1-0.7-1.9-0.8-2.9c-0.9-8.7-6.1-12.3-14.3-13.7c-6.5-1.1-6.3-1.8-5-8.7c0.5-2.9,0.6-5.9,0.1-8.9c-0.4-2.7-0.2-5.4,0.7-7.9
			c1.2-2.6,0.7-5.7-1.3-7.8c-0.9-1-2.3-2.6-1.2-3.9s2.6,0.3,3.8,0.9c3,1.5,5.8,3.4,9,4.2s5.5,3.2,5.4,7.1
			C49.5,381.5,49.5,383.5,49.5,385.5z"/>
		<path id="XFF00FFM2Gra5Co7_47_" class="st0" d="M50.2,196.1c6,0.6,12,0.7,17.9-0.8c3.5-1,5.2,1.5,6.2,4.4s1.9,6.4,2.7,9.6
			s3.9,6.5,8.3,6.4l10.5-0.3c1,0,2.1-0.1,2.6,1s-0.5,1.5-1,2.1c-3.9,5.2-3.9,7.9,1.4,12.1c5.3,4.2,2.4,5.3,0,8s-2.6,2-4.2,0.3
			c-4-4.4-10.4-6.1-13.5-11.7c-1-1.7-2.5-1.3-4-0.7c-4.4,1.8-9.1,1.6-13.8,2s-4.2-1-4.1-4c0-2-0.1-4-0.4-6c-0.5-5-1.4-9.6-6.1-12.8
			c-2.1-1.4-3.4-4-4.8-6.3S47.2,195.7,50.2,196.1z"/>
		<path id="XFF99FFM2Color6_15_" class="st0" d="M332.2,436.5c-2.8-0.9-6.3-1.9-9.2-4.2s-4.8-1.6-6.8,0.8s-7,5.5-11,7.5
			c-2.4,1.2-4.4,1.1-5.9-1.5s-2.4-2.9-3.1-4.5c-2-4.3-4.5-7.5-9.9-7.4c-1.3,0-3.4-0.2-3.6-2s1.7-2.3,3-2.8c4-1.6,8-3.2,11-6.5
			c1.5-1.7,3.2-1.5,4.9-0.3s5.4,3.4,7.6,5.6s5,2.5,7.7,0.3c2.5-1.9,4.7-4.2,6.4-6.9c1.1-1.8,2.4-2.7,4.4-1c4.3,3.9,9.5,5.3,15.1,5.7
			c2.6,0.2,3.6,1.1,1.4,3.2c-3.4,3.2-5.8,7.3-7.1,11.8C336.5,436.2,335.2,437.2,332.2,436.5z"/>
		<path id="XF9D886M2Gra1OT15_7_" class="st0" d="M210.7,33c3.5,0.5,7,1.2,8.8,5.9c2.8,7.2,7.7,13.4,14.1,17.7
			c3.4,2.4,3.6,5.5,2.1,8.8c-1.5,3.3-3.6,6.5-8,6.5c-8.4-0.1-21.6-10.2-24.4-18.3c-1.9-5.7-0.8-11.2,1-16.6
			C205.2,34.5,207.2,32.8,210.7,33z"/>
		<path id="XFF66FFM1Color10_7_" class="st0" d="M271.8,144.3c0-5.6,1.2-11,3.5-16.1c0.3-0.6,0.4-1.3,0.7-1.9
			c1.1-2.2-0.4-5.8,2.2-6.8s3.8,2.6,5.6,4s2.5,0.4,3.4-1.2s2.4-3.1,3.5-0.4c4.9,11.6,5.9,27.6-4,37.9c-3.6,3.8-4.9,3.8-8.4-0.1
			S271.6,149.7,271.8,144.3z"/>
		<path id="X66FF00M2Gra6Co13_15_" class="st0" d="M76.7,475.5c-0.1,7.7,0.3,15.4,1.2,23.1c5.2,40.4,17.8,79.5,37.3,115.3
			c1.4,2.6,3.9,6.3,1.3,8s-3.6-3-5-5c-11.3-16.7-18-35.6-23.9-54.7c-7.7-24.8-12.7-50.4-15.1-76.3C72.2,482.2,72.6,479,76.7,475.5z"
			/>
		<path id="X66FF00M2Gra5Co13_23_" class="st0" d="M87.5,463.8c2.6-0.3,3.6,1.5,4.8,2.7c11,10.8,18.3,24.8,20.8,40
			c1.2,6.7,3.1,13.3,7.4,18.9c0.8,1.1,1.9,2.2,0.8,3.5s-2.7,0.1-3.9-0.7c-5.9-4.1-8.9-10.3-10.7-16.9c-1.8-6.6-5.2-14.8-10.2-20.9
			C89.9,482.6,89.5,473.1,87.5,463.8z"/>
		<path id="XFF99FFM2Color6_14_" class="st0" d="M219,461.5c4.4-1.7,8.5-3.5,12.7-4.7s6.9,1.3,9.5,3.5c5.1,4.2,9.6,3.1,13.8-0.8
			c4.2-3.9,9-6.9,15.4-4.3c1.5,0.6,3.6-0.1,5.4-0.1s2.9-1.4,3.5,0.4s-1.2,2.1-2.3,2.9c-3.2,2.2-5.7,5.2-7.5,8.6
			c-1.5,2.9-3.1,3.7-5.7,1.3c-4.4-4.2-8-3.2-13.1-0.1c-13.5,8.2-9.2,10.4-22-1.5C225.9,464.1,222.4,463.2,219,461.5z"/>
		<path id="XFF00FFM1Color11_23_" class="st0" d="M212.9,370.8c0.5-10.1,2.7-18.6,9.1-25.6c0.9-1,1.6-2.4,3.2-2.1s1.6,2.3,1.8,3.7
			s0.2,1.3,0.3,2c0.8,4.5,2,5,6,2.5c1.2-0.8,2.1-2.7,3.7-1.9s0.9,3,0.8,4.5c-0.8,10.5-10.2,22.2-20.1,25.3c-2,0.6-3.3,0.3-3.7-1.8
			S213.1,372.5,212.9,370.8z"/>
		<path id="X3B5105M2Color17_47_" class="st0" d="M202,518.9c-0.2,0.4-0.2,1-0.6,1.2c-8.4,4.6-13.8,12.4-19.4,19.7l-0.7,0.7
			l-34.4,26.1c-1,0.6-2.1,1.1-3.2,1.5c-0.2-0.7-0.5-1.4-0.3-1.6c4.1-5.3,6.7-11.5,10.4-17s7.1-8.1,12.3-9.7s7-3.6,9.8-6.4
			c6.7-6.7,14.2-12,23.4-14.6C200.1,518.4,201.1,517.8,202,518.9z"/>
		<path id="XFF00FFM2Gra2Co7_39_" class="st0" d="M19.4,273.7c-1.2,6.9-1.1,13.9,0.2,20.7c0.4,2.4,0.7,5.2-2.4,6.3
			c-2.7,1.2-5.9,0.2-7.5-2.3c-3.2-4.6-6.1-9.5-9.1-14.2c-0.3-0.5-0.7-1.5-0.4-1.9c3.3-5.3,4-12.1,8.7-16.6c1.7-1.6,3.7-3.7,6.6-2.5
			s4.3,4,4,7.3C19.3,271.6,19.4,272.6,19.4,273.7z"/>
		<path id="X376600M2Color16_175_" class="st0" d="M197.4,259.6l-1.3,2.8c-13.3,29-24.7,58.8-34.1,89.3c-1,3.1-0.7,6.8-3.9,8.8
			c-1.1,0.7-2.1,2.1-3.5,1s-0.2-2.2,0.2-3.2c4.6-15.3,10.2-30.2,15.9-45.1c6.5-17.2,12.7-34.6,20.6-51.3l1.8-4.1
			c0.5-1.2,1.3-2,2.7-1.5S197.4,257.9,197.4,259.6z"/>
		<path id="X66FF00M2Gra4Co13_71_" class="st0" d="M281.5,287.9c-13.2-4.1-13.2-4.1-17.7,5.7c-2.1-0.7-2.1-2.8-2.9-4.3
			c-2.9-5.8-7.1-6.1-10.9-0.8c-1.5,2.1-1.9,4.9-5.1,7.1c0.1-6.1,1.9-10.8,5.5-14.4c1.9-1.9,3-3.7,3.1-6.4c0.2-1.7,0.7-3.2,1.7-4.6
			c3.1-5.1,2.4-8.7-2.1-12.7c-1-0.9-3.3-1.3-2-3.3s3.1-0.7,4.5,0.1c3.6,2,5.6,5.3,6.5,9.1s2.9,4.4,3.9,6.6
			C269.5,277,276.8,280.6,281.5,287.9z"/>
		<path id="XFF00FFM2Gra2Co7_38_" class="st0" d="M46.8,243.8c-0.5,3-3,5.2-6,6.1c-7.6,2.3-15.3,4.1-22.3,8.2
			c-2.9,1.7-6.7-1.9-5.5-5.1c2-5.4,4.8-10.6,6-16.3c0.1-1,1-1.7,2-1.5c0.2,0,0.5,0.1,0.7,0.2c5.8,2.5,12.1,1.8,18.1,2.7
			S46.7,240.5,46.8,243.8z"/>
		<path id="X66FF00M2Gra6Co13_14_" class="st0" d="M127.5,363.6c-0.5,5.5-3.5,11.4-6.5,17.1c-9.4,17.8-18.9,35.5-28.4,53.2l-1.8,3
			c-1,1.6-2.4,2.7-4.1,1.7s-0.4-2.7,0.2-3.8l26.7-50.8c2.6-4.9,5.1-9.7,6.5-15.1c0.8-2.9,1.6-5.9,0.2-8.8s-1.3-4.1,0.9-5.2
			s3.8,1.2,5.1,2.8S127.5,360.8,127.5,363.6z"/>
		<path id="X66FF00M2Gra4Co13_70_" class="st0" d="M239.2,386.4c-0.9-3-2.2-5.8-4-8.3c-1-1.6-2.4-3.2-0.4-4.8s3.8-0.3,5,1.6
			s2.1,2.8,2.3,4.4c1,6.2,6.1,10.1,8.7,15.4c1.2,2.5,4.2,3.6,7.2,3.8c0.9,0.1,2.2,0,2.3,1.3s-0.9,1.7-1.7,2.2s-4.5,1.1-6.8,1.1
			s-6.3,0.9-6.8,4.9c-0.1,1-0.2,2.2-1.5,2.1s-1.1-1.1-1.5-1.8c-4.4-7.4-8.2-8.2-15.4-3.3c-1.3,0.9-2.8,3.2-4.1,1.8s1-3,1.8-4.4
			s1.7-2.9,3-3.3c5.9-1.7,7-8,11.1-11.2C238.8,387.5,239,386.9,239.2,386.4z"/>
		<path id="X376600M2Color16_174_" class="st0" d="M172.1,358.5c-0.7,0-1.6,0-2-0.9s0.4-1.4,1-2c26.7-25.3,47-55.4,65-87.2
			c0.7-1.3,1.3-4,3.2-2.9s0.7,3.6-0.2,5.3c-11.3,21.8-25.7,41.5-40.7,60.8c-6.2,8-12.9,15.6-20.1,22.8
			C176.6,356.3,174.8,358.1,172.1,358.5z"/>
		<path id="X66FF00M2Gra4Co13_69_" class="st0" d="M321.9,365.7c-2.5,0.1-3.7-1.5-5.3-2.2c-5.7-2.4-11.1,0.4-12.1,6.4
			c-0.2,1.1-0.4,2.3-0.7,3.4s-0.5,2.1-1.5,2.4s-1.6-0.9-2.1-1.7c-2.4-3.1-3.7-8.3-7.4-8.8s-5.4,4.7-8.4,7c-0.6,0.3-1.2,0.5-1.9,0.6
			c1.8-5.3,3.2-10,8.2-12.8s6-11.7,3.9-15.5c-0.6-1.1-2-2.3-0.2-3.3s2.7,0.1,3.4,1.2c2.5,3.9,5.5,7.3,8.1,11c1.3,1.8,2.3,2.8,4.6,3
			C316,356.9,319.5,359.8,321.9,365.7z"/>
		<path id="X376600M2Color16_173_" class="st0" d="M148.5,553.1c2.6-14.9,6.4-29.6,11.4-43.9c5.1-14.9,11.1-29.5,18-43.7
			c0.8-1.5,1-4.4,3.3-3.3s1.8,4,0.8,6.2c-3.3,7.2-6.8,14.4-10.1,21.7c-8.7,19.2-13.8,39.5-18.6,59.9c-0.3,1.5-0.8,2.9-1.4,4.2
			c-0.6,1.1-1.2,2.8-2.9,2.1S148.5,554.2,148.5,553.1z"/>
		<path id="X78CE78M2Color14_7_" class="st0" d="M258.9,209.8c-0.9,3.6-3.5,6.6-7,7.9c-14.1,6.3-25.1,16.7-36.6,26.5l-7.5,6.5
			c-0.9,0.8-1.8,1.6-3.1,1s-1.1-2-1-3.1c0.6-6.4,3.3-12.2,9.1-14.5c9.7-3.7,17.2-10.5,25.9-15.6
			C244.8,215.1,251.5,213.3,258.9,209.8z"/>
		<path id="XFF00FFM2Gra5Co7_46_" class="st0" d="M168.3,111.4c0,0.2,0,0.3,0,0.5c-2.9,6.5-2.6,12.9,0,19.5c0.9,2.5-0.5,5.3-3,6.2
			c-2.9,1.2-6.1,0.5-8.3-1.7c-3.3-3.2-5.1-7.4-6.7-11.5c-1.6-4.1,2-4.6,2.9-7.1c1.2-3.8,3.5-7.2,6.7-9.7c1.7-1.4,4.1-1.7,6.1-0.7
			C167.9,107.8,168.2,109.5,168.3,111.4z"/>
		<path id="XFF00FFM2Gra2Co7_37_" class="st0" d="M78.2,280.6c-1.6,4.1-0.4,8.8,0,13.8s-7.3,5.7-10.4,9.5c-1.2,1.5-3.4,1.4-5.1,0.3
			s-3.9-4.2-2.5-7.3c3.2-6.6,6-13.2,5.8-20.9c-0.1-2.9,2.5-4.7,5.6-4.6S78.1,276,78.2,280.6z"/>
		<path id="X78D111M2Color15_63_" class="st0" d="M276.9,16c-0.1,0.3,0,1.1-0.4,1.6c-4.4,5.1-4.8,10.9-3.1,17.2
			c0.4,1.6,0.3,4.3-1.9,4.6s-1.5-2.4-2.1-3.7c-1.6-3.8-3-7.7-4.8-11.5s-3.5-0.8-5.4-1s-3.2,0.9-4.1-0.8s0.8-2.4,1.6-3.3
			c5.5-6.9,5.5-7.2-1.7-12.5c-1.9-1.6-4.1-2.8-6.5-3.6c-0.8-0.2-1.6-0.8-1.5-1.7s1.4-1.2,2.4-1.1c4.3,0.4,8.5,2.1,11.8,4.9
			c2.3,2.1,4.6,3.3,8,3S277,11.9,276.9,16z"/>
		<path id="X78D111M2Color15_62_" class="st0" d="M181.2,382c5.2,7.7,6.8,15.5,7.5,23.6c0.6,6.6-0.8,12.9-2.1,19.3
			c-1.7,8.4-2.2,16.8,0,25.2c0.5,1.1,0.2,2.4-0.8,3.2c-6.6-8.2-8.3-17.6-6.7-27.5c2.3-13.7,5-27.2,1.5-41
			C180.5,384.2,180.9,383.6,181.2,382z"/>
		<path id="X376600M2Color16_172_" class="st0" d="M120.1,513.8c1.2-21.6,4.7-41.4,8.4-61.2c0.7-4.1,1.5-8.1,2.4-12.2
			c0.4-2,0.9-4.4,3.7-3.6s1.3,3.4,0.9,5c-5,23.4-8.5,47.1-10.6,71c-0.2,1.9,0.7,5.2-2.5,4.9S120.1,514.5,120.1,513.8z"/>
		<path id="X66FF00M2Gra4Co13_68_" class="st0" d="M156.4,178.1c4.1,1.4,8.1,0.9,12.4-0.4s10,4.3,8.7,8.8c-0.8,2.7-0.1,4.8,0.8,7.1
			s1.7,3.7,1.1,5.8s0,4.8-2.2,5.1s-1.5-2.8-2.2-4.3c-2.2-4.8-7-6.9-11.9-4.7c-1.1,0.5-2.1,2-3.5,0.8s-0.4-2.2-0.2-3.3
			c1.3-9.2,1.3-9.2-7.8-10.4c-1-0.1-2.1-0.2-2.2-1.5s0.8-1.4,1.6-1.6L156.4,178.1z"/>
		<path id="X3B5105M2Color17_46_" class="st0" d="M242.2,119.3c-4.2,10,1.8,21,2.8,32.4c0.1,1.3,1.7,3.1-0.5,3.7s-1.9-1.5-2.3-2.7
			c-1.3-3.4-3-6.6-5.3-9.5c-4.5-6-5.2-12.6-2.8-19.4c2.9-8.5,2.4-16.3-3-23.6c-0.6-0.8-1.6-1.6-0.9-2.6s2.1-0.3,3.1,0.2
			C241.3,102.1,242.3,109.5,242.2,119.3z"/>
		<path id="X376600M2Color16_171_" class="st0" d="M116.5,561.9c0-6.5-0.1-13,0.1-19.4c0-1.8-1.3-5.1,2.1-5s2.7,3.2,2.7,5.5
			c0,9.5-0.2,19,0.1,28.4c0.4,13.8,2.1,27.5,4.9,41c0.4,1.8,1.2,4.1-1.1,4.7s-2.1-2-2.5-3.4C118,596.8,116.6,579.4,116.5,561.9z"/>
		<path id="X66FF00M2Gra5Co13_22_" class="st0" d="M71.1,470.4c-1.5-5.4,0.6-9.4,2.6-13.3c4.4-8.3,12.1-12.5,20.5-15.8
			c6.8-2.6,14.2-3.7,20.2-8.3c0.6-0.4,1.2-0.7,1.8-0.2s0.5,1.5,0.1,2.3c-2,3.9-5.4,6.2-9.1,8.1c-9.8,5.1-20.6,8.7-28.2,17.5
			C76.4,463.8,74,466.9,71.1,470.4z"/>
		<path id="X038203M2Gra1Co14_39_" class="st0" d="M130.5,270c-9.7,13.4-17.5,28.9-35.3,33.8c-1.1,0.3-2.1,1.5-3.2,0.3
			s-0.1-2.4,0.6-3.6s2.7-4.1,4.7-5c5.2-2.4,8.1-6.6,10.5-11.5s5.9-6.8,10-8.7C121.9,273.4,126.3,271.8,130.5,270z"/>
		<path id="X376600M2Color16_170_" class="st0" d="M149.8,697.5c0.4,1.2-0.2,2.5-1.4,2.9c-0.1,0-0.2,0.1-0.4,0.1
			c-1.2,0.3-2.4-0.5-2.7-1.7c-3.5-9.7-10.2-18.1-11.3-28.9c-0.9-8.7-4.3-17-8.4-24.8c-1.6-3.4-0.3-7.4,3-9.2
			c2.3-1.1,2.5,0.5,2.7,2.1c1.6,12.7,5.4,25,8.7,37.3c0.5,2,1.2,4.3,2.9,5c5.1,2,5.5,6.1,5.8,10.5
			C148.9,693,149.5,695.2,149.8,697.5z"/>
		<path id="XFF00FFM2Gra2Co7_36_" class="st0" d="M62.4,241.4c4-1.2,6.2,0.4,7.1,5.3s3.4,8.7,2.6,13.5c-0.5,3.2-1.4,6.4-5.3,6.9
			s-4.5-2.5-5.6-5.2s-1.8-5-4.1-6.6s-7.3-4.6-5.8-9.3S57.5,241.4,62.4,241.4z"/>
		<path id="XFF00FFM2Gra8Co7_39_" class="st0" d="M199.4,38.9c-1,4.5-1.4,9.2-1.2,13.8c0.1,2.4-1.3,4.7-3.6,5.5
			c-2.3,0.9-3.7-0.9-5.2-2.1c-10.5-8.6-10.5-8.6-3-21.3c2.8-4.7,7.2-5.2,11-1.4C199,34.8,199.7,36.8,199.4,38.9z"/>
		<path id="X66FF00M2Gra4Co13_67_" class="st0" d="M126,157.7c-1,2.4-0.3,4.7,0.8,7c0.9,2.2,1.2,4.6,0.7,6.9
			c-0.2,1.1-0.3,2.5-1.7,2.7s-1.9-1-2.2-2.1s-1.9-3.5-3.1-5.1s-4.4-4-7.4-1c-0.9,0.9-2.2,1.9-3.5,1.2s-0.9-2.3-0.6-3.6
			c1.4-6.8-0.3-9.1-7.4-10.3c-1.8-0.3-5.3,1.3-5.3-1.7s3.6-2.2,5.8-2.4c2-0.2,4,0,5.9,0.6c2.5,0.9,5.2,0.8,7.6-0.2
			c4.1-1.5,8.5,0.7,10,4.7C125.9,155.5,126.1,156.6,126,157.7z"/>
		<path id="X66FF00M2Gra4Co13_66_" class="st0" d="M273.2,222.7c3.5-7.4,6.4-13.5,13.9-15.4c1.9-0.5,2.3-2.1,3-3.7s3.1-5.3,6.6-5.3
			s5.3,1.8,6.2,4.8s3.4,3.3,5.9,3.9c4.5,1,8.2,3.3,10.4,7.5c-1.6,1.8-2.6,0.4-3.6-0.2c-2.5-1.7-5.4-2.7-8.4-2.8
			c-3.6-0.1-6.2,1-6.5,5.2c-0.1,1,0.1,2.2-1.1,2.6s-2-0.7-2.8-1.5c-1-1.3-2.2-2.5-3.4-3.6c-4.7-3.7-8.5-3.3-12.8,1
			C278.4,217.3,277.4,220.7,273.2,222.7z"/>
		<path id="XFF00FFM2Gra8Co7_38_" class="st0" d="M195.7,20.5c-0.1-4,2.6-7.6,4.4-11.5c0.3-0.7,1-1,1.7-0.8c0.2,0.1,0.3,0.1,0.4,0.3
			c4.4,4.3,10.9,5.6,15.3,10.1c2.4,2.5,5.5,5.3,2.7,8.9s-6.2,2.6-9.5,0.8c-2.2-1.2-4.8-1.6-7.2-1C197.5,28.6,195.7,27.1,195.7,20.5z
			"/>
		<path id="XFF00FFM2Gra2Co7_35_" class="st0" d="M30.8,300c1.1,0.2,2.4,0.1,3.3,0.7c4.6,2.8,9.4,2.4,14.4,1.5
			c1.2-0.1,2.3,0,3.5,0.2c2.5,0.3,3.8,2,4.3,4.2s-1,3.4-2.6,4.4c-4,2.7-9.1,2.9-13,6c-1.3,1-2.4-0.3-3.4-1.3c-2.9-2.7-6.1-5.1-9.6-7
			c-2-1.2-4.9-2.3-3.7-5.6S28.1,300.2,30.8,300z"/>
		<path id="X376600M2Color16_169_" class="st0" d="M203.6,217.6c-0.2,8.5-0.4,16.1-2.9,23.5c-0.4,1.2-0.6,3.2-2.2,2.9
			s-1.3-2.4-1.2-3.7c1.1-14.1,2.5-28.2,0.3-42.3c-0.5-3.6-1.7-7.1-3.4-10.3c-1.9-3.5-4.8-5.9-9.1-6.2c-2-0.1-4.7-0.1-4.2-2.9
			s3.2-1.8,5-1.4c7.3,1.3,11.9,5.9,14,12.7C202.9,199.1,202.9,208.8,203.6,217.6z"/>
		<path id="X3B5105M2Color17_45_" class="st0" d="M248.2,573.4c-7.8,3.6-13.4,10-19.9,15c-1.6,1.3-3.6,2-5.6,1.8
			c-9.4-0.9-16.6,3.6-23.6,8.9c-1,0.7-2,2.6-3.3,1.4s0.4-2.6,1.2-3.6c5.1-5.8,10.7-11,18.6-12.6c4.3-0.9,8-3,11.7-5.3
			C233.6,575.2,240.9,573.3,248.2,573.4z"/>
		<path id="X376600M2Color16_168_" class="st0" d="M293.7,193.8c-0.2,1.9-1.8,3.5-3.7,3.7c-7.1,1.2-11.4,5.9-15,11.4
			c-6.5,10-12.5,20.4-17.9,31.1c-0.8,1.5-1.1,4.3-3.4,3.2s-1.4-3.5-0.5-5.4c6.3-12.2,12.1-24.9,20.9-35.6c4-4.9,8-10,15.1-10.4
			C290.9,191.8,293,191.7,293.7,193.8z"/>
		<path id="XFF00FFM1Color11_22_" class="st0" d="M239.3,510.6c-0.7,4.4-1.6,8.6-4.7,11.9s-7.2,2.9-9.5-1.2
			c-1.8-3.1-2.2-6.7-1.1-10.1c1.6-4.6,3.9-8.9,6.8-12.7c2-2.9,3.5-2.3,5.3,0.2S238.4,506.6,239.3,510.6z"/>
		<path id="XFF99FFM2Gra8Co6_28_" class="st0" d="M90.9,268.4c-0.4,4.3-2.2,8.5-5.1,11.7c-0.7,0.7-1.3,1.7-2.5,1.3
			c-1-0.4-1.5-1.5-1.3-2.5c0.3-4.8-1.9-8.3-5.7-10.9c-0.6-0.4-1.5-1.4-1.4-1.9c1.1-4.9,1.8-9.7,1-14.7c-0.3-1.6,1.9-1.1,3.2-0.6
			C85.6,253.1,91,261.1,90.9,268.4z"/>
		<path id="XFF00FFM2Gra8Co7_37_" class="st0" d="M204.1,80.9c-2.6,0.6-3.9-0.2-4.8-2.6s-2.6-5.4-3.7-8.1s-1.3-6.1,1.8-8.4
			s5.3-0.3,7.4,1.7c3.3,3.3,6.9,6.1,10.9,8.5c1.4,0.8,3.9,1.2,3.4,3.6s-2.5,4.1-4.9,4.3C210.8,80.4,207.3,80.6,204.1,80.9z"/>
		<path id="XFF00FFM2Gra5Co7_45_" class="st0" d="M193.1,101c-1.2-0.2-2.3-0.5-3.4-0.9c-5.3-2.1-10.1-1.2-14.6,1.9
			c-1.5,1-3.1,2.5-4.9,1s-0.4-3.2,0.1-4.7c1.2-3.6,2.1-7.6,4.3-10.5s6.8,0.7,10.4,0.7s9.2,1.5,11.9,6c1,1.4,1.2,3.2,0.5,4.7
			C196.5,100.8,195.1,101.1,193.1,101z"/>
		<path id="XFF00FFM2Gra5Co7_44_" class="st0" d="M182.6,158.5c-4.2,1.5-6.9-0.6-8.5-5.3c-0.7-2.1-2.6-3.8-3.8-5.8
			c-1.1-1.6-1-3.6,0.2-5.1c1.1-1.3,2.9-1.8,4.5-1.1c1.9,0.6,3.7,1.4,5.4,2.4c3.6,2.3,7.6,4.2,11.7,5.4c1.8,0.5,3.6,1,3.7,3.4
			s-1.1,3.6-3.1,4.6S186.6,158.4,182.6,158.5z"/>
		<path id="X376600M2Color16_167_" class="st0" d="M192.5,443.7c-2.2-0.7-2.2-2.4-1.6-3.9c1.2-3.1,2.7-6.1,4.2-9
			c7-14.3,15-28.2,23.8-41.5c0.8-1.2,1.7-2.5,2.6-3.6s2.5-2.5,4.2-1s0.4,2.7-0.5,3.9c-7.8,10.2-14.3,21.3-20.3,32.6
			c-3.4,6.3-6.5,12.7-9.8,19.1C194.6,441.4,194.1,442.8,192.5,443.7z"/>
		<path id="XFF00FFM1Color11_21_" class="st0" d="M280.9,522c-1.2,0-2.4-0.2-3.5-0.5c-2.2-0.8-4.2-2.3-4.7-4.8s1.3-3.7,2.9-4.9
			c4.1-3.2,8.7-4.7,14-3.8l6.8,1.4c1.6,0.4,4.2-0.6,4.6,1.8c0.4,2.4-1.8,3-3.1,4.2C293.4,519.8,287.2,522.2,280.9,522z"/>
		<path id="X66FF00M2Gra4Co13_65_" class="st0" d="M215.9,338.9c-0.1-1.2,0.6-2.3,1.7-2.7c5.6-3.1,11.6-5.2,16.8-9.1
			c2-1.5,4.8-0.1,5.3,2c1.3,4.9,3.6,9.2,5.2,13.9c0.5,1.5,1,3.6-0.9,4.4s-1.8-1.5-2.5-2.5c-2.2-2.8-4.4-3.9-7.4-1.1
			s-3.6,2.8-4.2-1.2c-0.9-6.1-2.6-7-8.6-5.3C219.4,337.8,218,339.3,215.9,338.9z"/>
		<path id="X78D111M2Color15_61_" class="st0" d="M292.5,117.1c-2.4,0.4-2.4-1.9-3.4-3c-2.9-3.3-4.5-3.2-6.6,0.7
			c-1.1,2.1-1.8,4.5-3.9,0.6s-4.7-5.4-7.9-0.9c-0.6,0.8-1.5,1.6-2.5,0.9s-0.3-2,0.3-2.6c3.6-3.4,6.3-7.6,8-12.2
			c1-2.2,3.4-3.4,5.8-2.9c2.4,0.4,4.2,2.4,4.4,4.8c0.6,4.7,5.3,7.3,5.8,12C292.7,115.2,293.4,116.2,292.5,117.1z"/>
		<path id="XFF00FFM2Gra8Co7_36_" class="st0" d="M242.2,48.2c-0.6,2.8,1.3,6.2-1.5,7.6s-4.9-2-6.9-3.7c-4.5-3.8-8.2-8.4-8.9-14.5
			c-0.5-4.5,1.7-6,5.6-3.7c3.7,2.3,7.2,4.8,10.5,7.5C243.5,43.3,241.4,46.2,242.2,48.2z"/>
		<path id="X376600M2Color16_166_" class="st0" d="M241.1,165c-0.3,0.9-0.7,2-1.2,3l-27.1,57.1c-0.6,1.3-0.8,3.4-2.9,2.3
			s-1.4-2.7-0.6-4.3c10-19.5,19.9-39,28.4-59.2c0.4-1,0.9-1.9,2.1-1.6S241.3,163.6,241.1,165z"/>
		<path id="X038203M2Gra1Co14_38_" class="st0" d="M98,343.9c4.2,1.8,8.5,3.1,12.9,4c4.8,1,6.1,4.2,3.7,8.4l-0.8,1.3
			c-1.5,2.1-1.4,5.8-4.2,6.5s-7.5,1-11.3,1.3c-1.5,0.1-2.1-0.9-1.5-2.3c0.2-0.6,0.6-1.2,1-1.7c4.2-4.9,7.9-9.7,0.1-14.7
			C97.4,346.2,97.1,345.2,98,343.9z"/>
		<path id="X376600M2Color16_165_" class="st0" d="M139.8,165.8c-0.7,7-2.7,16.4-4.8,25.8c-0.2,1-0.5,1.9-0.9,2.8
			c-1.1,2.1-2.5,4.9-4.8,4.1s-0.2-3.5,0.2-5.2c1.8-8.6,4.5-17,5.7-25.8c0.8-5.8,0.7-11-4.8-14.6c-0.9-0.6-2-1.5-1.2-2.9
			s2-0.8,3.2-0.5C137.6,151.1,140.5,156.3,139.8,165.8z"/>
		<path id="X376600M2Color16_164_" class="st0" d="M252.6,528.1c-0.3,0.6-0.6,1.1-1.1,1.5c-14.2,10.3-20.5,26.1-28.6,40.7
			c-1.2,2.2-2.4,4.3-3.8,6.3c-0.5,0.8-1.6,1.1-2.5,0.6l-0.1-0.1c-0.8-0.7-0.3-1.6,0.1-2.3c8.7-16.7,15.5-34.7,31-46.9
			c1.3-1,2.2-2.6,4.2-2S252.8,526.7,252.6,528.1z"/>
		<path id="XFF00FFM2Gra5Co7_43_" class="st0" d="M222.4,113.2c-0.6,3.4-1.1,6.2-1.6,9c-0.3,1.9-1.8,3.4-3.7,3.6
			c-2.1,0.2-4-1.3-4.3-3.4c-1.2-5-3.7-9.6-7.3-13.3c-1-0.9-1.4-2.4-0.8-3.6c0.5-1.3,1.8-2.1,3.2-1.8c5.1,1.5,9.8,4,13.8,7.5
			C222.4,111.5,222.3,112.8,222.4,113.2z"/>
		<path id="XFF00FFM2Gra5Co7_42_" class="st0" d="M220.8,136.3c-0.2,6.4-6.6,14.3-12.9,15.8c-2.3,0.6-4.4,0-5.6-2.1
			c-1.2-1.7-0.8-4.1,0.8-5.4c4-3.3,7.2-7.4,10.5-11.4c1.2-1.4,2.5-2.9,4.6-1.8C220,132.3,221.1,134.3,220.8,136.3z"/>
		<path id="X376600M2Color16_163_" class="st0" d="M146.9,648.1c0,6.5,0,13,0,19.4c0,1.4,0.5,3.4-1.7,3.5s-1.7-1.8-1.8-3.1
			c-1.7-13.6-1.7-27.2-2.7-40.8c-0.2-2.3,0.9-3.3,3.2-3.3s2.6,1.5,2.6,3.4c0,7,0,14,0,21L146.9,648.1z"/>
		<path id="X376600M2Color16_162_" class="st0" d="M293.5,31.1c-1.3,9.9-4.2,20.6-7.5,31.2c-1.3,4.1-2.7,8.2-4.1,12.3
			c-0.5,1.3-1,3.4-2.9,2.6s-1-2.6-0.5-3.9c3.8-9.4,6.8-19.1,9.1-29c1-4.2,1.7-8.5,2.1-12.8c0.3-3.4-1.1-6.7-3.8-8.8
			c-1-0.8-1.9-1.6-0.9-2.9s2.2-0.4,3.2,0.1C292.1,22.1,293.8,25.4,293.5,31.1z"/>
		<path id="XEC2AFFM2Gra4OT31_7_" class="st0" d="M206.2,86.9c7.5-0.2,11.9,3.7,12.3,10.5c0.2,3.3-1,5-4.3,3.3
			c-2.5-1.3-5.3-2-8.1-2.1c-1.6,0-8.1-7.4-8.2-8.9s0.9-1.6,1.9-2S204.1,87,206.2,86.9z"/>
		<path id="XFF00FFM2Gra8Co7_35_" class="st0" d="M245.9,75.4c-0.4,4.3-3.1,7.5-5.7,10.7c-0.6,0.6-1.5,0.8-2.3,0.5
			c-3.7-1.4-7.5-2.6-10.7-5s-2.4-3.5,0.9-4.4c5.3-1.4,11.3-1.6,13.9-8c0.4-1.1,1.8-0.6,2.3,0.5S246.1,73.3,245.9,75.4z"/>
		<path id="X66FF00M2Gra4Co13_64_" class="st0" d="M221.5,542.1c-2.1-5.3,2.3-12.3-2.8-17.9c-0.6-0.6-0.9-1.6,0.1-2.1
			c0.6-0.1,1.3,0,1.8,0.3c0.6,0.3,1.1,0.8,1.4,1.4c3.6,5.6,7.6,8.5,13.5,2.8c0.4-0.5,1.1-0.6,1.5-0.2c0.1,0.1,0.2,0.2,0.3,0.3
			c0.6,0.9,0,1.6-0.6,2.1c-3.6,3.1-5.5,7.5-8.8,10.8c-1.7,1.5-3,3.6-3.6,5.8c-0.3,1.2-0.4,3.1-2.3,2.5s-1.1-1.9-1-3.1
			S221.2,543.6,221.5,542.1z"/>
		<path id="X66FF00M2Gra5Co13_21_" class="st0" d="M153.3,420.7c-7.7,8.3-17.4,11.1-28.1,11.1c-0.9,0.1-1.7-0.5-2-1.3
			c-0.5-1.4,0.5-2.2,1.5-2.8c3.4-2,7.2-3.4,11.1-4.2C141.6,422.3,147.5,422.2,153.3,420.7z"/>
		<path id="X038203M2Gra1Co14_37_" class="st0" d="M112.9,255.6c-2.4,5.8-2.7,12.4-4.1,18.7c-0.4,2-2.1,3.6-4.2,3.8
			c-2.2,0.2-2.2-2-3-3.4c-1.3-2.7-3.1-5.1-5.2-7.2c-1-0.9-2.3-2-1.1-3.3s2.7-0.5,4,0.4l0.8,0.6c5,4.3,5,4.3,6.6-2.1
			c0.7-2.7,1.4-5.5,2-8.2s0.7-3.2,2.7-2.7S112.7,254,112.9,255.6z"/>
		<path id="X376600M2Color16_161_" class="st0" d="M251.5,145.1c-2.4-1-1.3-2.7-0.7-4.1c2.7-6.2,5.6-12.4,8.3-18.6
			c3.5-8.2,7-16.5,10.4-24.8c0.6-1.4,1.2-3.2,3-2.5s0.1,2.3-0.3,3.3c-5.6,14.5-11.7,28.9-18.2,43
			C253.5,142.8,253.2,144.5,251.5,145.1z"/>
		<path id="X376600M2Color16_160_" class="st0" d="M254.8,108.9c0.2,5.7-0.4,11.4-1.7,16.9c-0.3,1.1-0.2,2.7-1.7,2.7
			s-1.4-1.9-1.2-3.1c1.1-9.5,1.8-18.9,0.4-28.4c-0.5-3.1-1.1-6.2-1.6-9.3s-2.3-4.9,0.7-5.5s3,2.9,3.3,5
			C254.3,94.4,254.9,101.6,254.8,108.9z"/>
		<path id="X66FF00M2Gra4Co13_63_" class="st0" d="M269.9,513.2c-1.9,4.1-0.8,7.7,3.4,10.6c1,0.7,2.8,2.7,1.5,4.2s-2.7-0.2-4-0.8
			c-3-1.6-6.3-1.9-9.6-2.3c-1.5-0.2-3.1,0-3.6-1.9s0.6-2.5,1.6-3.4c3.2-2.7,6.4-5.3,7.1-9.8c0.2-1,1-2,2.1-1.5
			S269.8,511,269.9,513.2z"/>
		<path id="X78D111M2Color15_60_" class="st0" d="M167.1,365.2l2-0.3c0.8,0,1.7-0.4,2.1,0.7s-0.4,1.5-1,2.1
			c-3.3,2.9-7.2,4.7-11.1,6.6s-7.3,3.3-10.4,5.9c-0.7,0.6-1.5,1-2.2,0.5s-0.4-1.8,0.1-2.6C150.7,370.4,157.9,365.9,167.1,365.2z"/>
		<path id="X376600M2Color16_159_" class="st0" d="M137.1,414.4l7.2-25.4c0.6-1.9,1.8-3.5,3.9-2.9s1,3,0.6,4.5
			c-2.1,7.5-4.4,15-6.7,22.4c-0.3,0.9-0.7,1.8-1.2,2.7c-0.6,1.1-1.4,2-2.7,1.6S136.9,415.6,137.1,414.4z"/>
		<path id="X038203M2Gra1Co14_36_" class="st0" d="M86.7,340.3c2-9.1,3.9-18.2,5.9-27.3c0.4-1.6,1.2-3.6,3.2-3.2s1.2,2.6,0.9,4.1
			c-1.5,7.5-2.9,15-4.4,22.5c-0.4,1.8-0.6,3.6-1.8,5.1s-1.5,1.9-2.9,1.3S86.7,341.3,86.7,340.3z"/>
		<path id="X376600M2Color16_158_" class="st0" d="M258.5,345.7c-0.5,0.9-1,1.8-1.6,2.7l-12.6,16.1c-1.2,1.5-2.5,3.2-4.5,1.7
			s-0.2-3.3,0.8-4.6l13.7-16.4c0.8-0.9,1.5-1.9,2.8-1.6S258.5,344.5,258.5,345.7z"/>
		<path id="X376600M2Color16_157_" class="st0" d="M150.5,658c2.3-8.6,5.7-16.4,11.2-23.2c0.6-0.8,1.5-1.6,2.5-1.3s1.3,1.8,1.3,2.9
			c0,0.7-0.2,1.3-0.6,1.8c-5.3,5.7-7.9,12.9-10.7,19.9c-0.5,1.2-1.2,2.6-2.9,2.1S150.6,658.7,150.5,658z"/>
		<path id="X3B5105M2Color17_44_" class="st0" d="M257.8,95c2.2-8.5,9.5-14,16.8-13.2c4.3,0.5,8.5,4.4,8.5,7.8c0,1-0.1,2.1-1.1,2.6
			s-1.7-0.3-2.3-1.1c-5.4-7.1-10.6-7.2-16.9-0.6C261.4,92,260.7,94.4,257.8,95z"/>
		<path id="X78D111M2Color15_59_" class="st0" d="M244,259.1c0.5-8.1-3.5-15-4.3-22.7c-0.1-1.2-0.6-3,1.2-3.3s1.4,1.6,1.9,2.6
			c3.4,6.2,6,12.6,3.9,19.9C246.4,256.8,246.5,258.3,244,259.1z"/>
		<path id="X038203M2Gra1Co14_35_" class="st0" d="M74.3,435.7c0.2-3,0.2-6,0.5-8.9s1.1-3.5,3.1-3.2s1.4,2.1,1.2,3.3
			c-0.6,5.5,1.8,11.3-1.8,16.4c-0.6,0.9-1,2.6-2.3,2.2s-1.1-2.2-1-3.4S74.3,437.8,74.3,435.7L74.3,435.7z"/>
		<path id="X78D111M2Color15_58_" class="st0" d="M183.6,364.3c-1.6-0.1-2.9,0.1-3.5-1.2s0.4-2.5,1.5-3.3c4.3-3.5,9.9-3.5,14.7-5.7
			c0.6-0.3,1.3,0,1.6,0.6l0,0c0.1,0.5-0.1,1-0.5,1.3C193.2,359.4,189.1,363.5,183.6,364.3z"/>
		<path id="X3B5105M2Color17_43_" class="st0" d="M216.5,561c-0.2,2.2-0.2,4.7-2.6,5s-2.5-2.3-2.8-4c-0.7-4.6-0.8-9.3-0.4-13.9
			c0.1-1,0.3-2.2,1.6-2s0.8,1.2,1,2L216.5,561z"/>
		<path id="X376600M2Color16_156_" class="st0" d="M142.3,586.2c0.5-3.1,1-6.2,1.6-9.2s1.7-3.1,3.5-2.7s1.2,2.1,1.1,3.4
			c-0.3,3-0.5,5.9-1,8.9s-1.2,5.4-3.7,5.1S143.2,588.1,142.3,586.2z"/>
		<path id="X3B5105M2Color17_42_" class="st0" d="M158.1,682c1.3-7.1,7.1-10.7,11.8-7.5c1.1,0.8,2.4,1.7,1.8,3.2s-2.1,0.8-3.2,0.2
			C163.6,675.5,161.5,680.3,158.1,682z"/>
		<path id="X376600M2Color16_155_" class="st0" d="M287.4,334.1c2.2,1.3,4.1,2.7,3.7,5.4s-1,5.3-3.1,4.9s-3.9-3.3-3.7-6.2
			C284.3,336.3,285.6,334.6,287.4,334.1z"/>
		<path id="X78D111M2Color15_57_" class="st0" d="M277.1,343.8c-0.9,1.2,0.9,4.6-2.3,4.2c-2.7-0.4-4.6-2.7-4.7-5.3
			c0-1.9,0.9-3.9,3.3-3.8C275.8,338.9,277.4,340.8,277.1,343.8z"/>
		<path id="X78D111M2Color15_56_" class="st0" d="M249.8,326.6c-1.5-1.3-5.5,1.3-5.5-2.8c0-2.2,2.4-1.9,4-1.7
			c1.6,0.2,4.6,0.8,4.5,3.6S251.3,327,249.8,326.6z"/>
		<path id="X376600M2Color16_154_" class="st0" d="M195.7,685.8c-1.4,0-2.7-0.3-2.5-1.4c0.5-2.7,3-3.7,5.2-4.7s1.9,0.7,1.7,1.8
			C199.7,684,197.6,685,195.7,685.8z"/>
	</g>
	<g>
		<path id="XFF99FFM2Gra8Co6_27_" class="st1" d="M155.4,198.5c-0.1,0.7-0.1,1.3-0.2,2c-0.6,3.5,0.2,5,3.8,2.7l1.4-0.6
			c7-3.7,8.6-2.8,9.3,5.4c0.8,10.2-2.8,19.4-7,28.2c-3,6.3-4.4,12.4-1.7,19.1c0.5,1.7,0.7,3.6,0.4,5.4c-0.5,6-2,6.6-7.2,4
			s-8.2-4.4-10.5-8.7c-0.9-1.7-2.2-2.2-4.1-1c-5.2,3.2-11.2,2.6-17,3c-2,0.1-3.2-0.8-3.3-2.9c-0.2-5.5-3.4-10.5-2.6-16.2
			c0.3-2.1-1.1-3.2-3-4c-3.4-1.5-6.1-3.9-8.7-6.6s-1.9-3.4,0.4-4.8c14.5-8.9,27-20.4,39.6-31.8c1.2-1,2.4-1.8,3.8-2.4
			c3.6-1.8,5.5-0.8,6.3,3.3c0.2,0.8,0.3,1.7,0.3,2.5C155.3,196.1,155.4,197.3,155.4,198.5z"/>
		<path id="X66FF00M1Gra3Co17_27_" class="st1" d="M118.3,636.8c-17.5-6.6-33.2,2.5-49.5,5.1c-5.3,0.8-10.5,1.7-15.8,0.3
			c-1.4-0.4-3.9-0.8-3.3-2.3c2.1-4.9-2.5-4.8-4.5-6.7c-5-4.6-10.1-9.2-15-13.9s-8.2-8.7-13.8-11.4c-0.9-0.4-1.5-1.2-1.8-2.2
			c-0.2-0.9,1-1.1,1.8-1.1c10.7,0.7,20.4-2.4,30.3-6.4c16-6.5,29.5,0.1,40.4,11.6c7.8,8.2,15.4,16,25.8,20.8
			C115.4,631.9,117.4,634.1,118.3,636.8z"/>
		<path id="XFF66FFM2Color7_6_" class="st1" d="M328.1,267.5c-6.7-4.3-9.1,1.5-12.1,6.2c-0.9,1.2-1.8,2.4-2.8,3.5
			c-1.3,1.7-2.7,1.8-4,0.1c-4.3-5.5-11.9-5.7-16.9-10.2c-1.8-1.7-3.6,0.9-5.3,1.6s-5.4,4.6-7.8,3.1s1-4.7,1.2-7.3
			c0.6-11.1,1.5-22.3,2.2-33.4c0.3-4.5,2.2-8.8,5.5-11.9c1.7-1.7,3.3-1.9,5.2-0.2s6.1,5.7,8,9.5s2.7,2.1,3.7,0c0.9-2,1.7-4,2.4-6
			c1.8-4.8,4-5.8,8.5-3.6c4.9,2.3,8.3,6.9,9.2,12.3c1.5,7.7,2.7,15.4,3.9,23.1c0.5,3,1.5,5.8,2.9,8.5c0.6,1.2,2.5,2.1,1.2,3.8
			S330.3,267.3,328.1,267.5z"/>
		<path id="XFF00FFM2Gra4Co7_27_" class="st1" d="M54.8,382.4c-0.1-10.8-0.1-10.8-11.3-15.2c-1.4-0.5-4-0.2-3.7-2.5s2.7-1.5,4.2-1.8
			c10.4-1.7,19.8-6.6,29.7-10c6.1-2.1,12.4-4.1,19-3.6c5,0.3,5.3,1.4,3.1,5.7s-3.6,8.2-5.4,12.3s0.2,3.6,2.6,3.6
			c3.8,0.1,7.7-0.4,11.3-1.6c4-1.4,5.2,0.6,4.9,4.2c-0.5,5.8-3.8,10.2-8,14s-8.3,7.1-12.4,10.9c-3.8,3.6-6.5,8.1-7.8,13.1
			c-0.3,1.1,0,2.6-1.5,2.9s-2.2-1.2-3-2.2c-3-4-5-8.7-5.7-13.7c-0.4-3.2-1.8-4.4-4.8-4.2h-0.4C54.9,393,54.9,393,54.8,382.4z"/>
		<path id="XFF99FFM2Gra8Co6_26_" class="st1" d="M104.2,166.4c-0.5,9.4,0.5,10.2,8.5,5.9c3.6-1.9,5-0.8,6.5,2.3
			c2.5,5.2,1.3,10.1-1,14.9s-5,12.4-5.2,19.1c-0.1,3.8-2.8,5.2-5.3,6.6s-3.3-0.9-3.8-2.7c-1.2-4.4-3-5.3-7.8-3.7
			C83.7,213,82,211.7,78.9,199c-2.3-9.5-2.3-9.4-11.8-8.9l-11,0.4c-0.8,0-1.8-0.2-1.9-1.2c0.1-0.6,0.5-1.2,1-1.5
			c10.7-6.4,18.4-16.4,27.7-24.4c3.5-3.2,7.9-5.1,12.6-5.4C103.8,157.5,104.6,158.2,104.2,166.4z"/>
		<path id="XFF00FFM2Gra4Co7_26_" class="st1" d="M271.4,449.8c-9.5-0.2-12.2,0.5-20.2,6.1c-3.1,2.1-5.4,2.5-8.2-0.4
			s-6.6-3.7-10-5.4s-3.8,0.1-5.4,1.3c-3.5,2.8-7.7,4.6-12.2,5.3c-1,0.1-2.1,0.3-2.7-0.7s-0.2-1.9,0.5-2.7c7.8-9,9.6-20.2,11.7-31.3
			c0.8-4.6,2.6-9,5.2-12.8c1.5-2.2,3.1-2.6,5.4-0.9c3.2,2.2,5.7,5.1,7.4,8.6c1.3,2.8,2.8,3.3,4.2,0l2.4-6c1.8-4.4,4.2-5.4,8.4-3.1
			s6.4,6.1,7.6,10.6c2,7,4.1,14,6.3,21c0.6,1.7,1.4,3.3,2.3,4.9c0.7,1.4,3,2.3,2.1,4.1S272.9,449.6,271.4,449.8z"/>
		<path id="X66FF00M1Gra3Co17_26_" class="st1" d="M121.3,673c-8.5,0.1-16.2,3.7-22,11.6c-2.7,3.7-6.1,7-9.2,10.5
			c-0.5,0.6-1.6,1.6-1.9,1.4c-4.2-2.8-6.7,1.4-9.9,2.5c-6.4,2.3-12.8,3.5-19.6,2.5s-13.8-2-20.8-2.8c-2.8-0.3-3.4-1.3-1.6-3.4
			c7.1-8.4,11.7-19.2,23.1-23.5c0.7-0.3,1.7-1.2,1.6-1.7c-0.7-6.1,4.4-5.4,7.6-6c9.1-1.4,18.4-0.4,27,2.8c3.8,1.4,7.9,1.5,11.7,0.4
			c6-1.8,12.4-1,17.9,2c1.2,0.7,3.4,1,3,2.8s-2.5,0.7-3.9,0.9H121.3z"/>
		<path id="X009900M1Gra7Co18_13_" class="st1" d="M251.4,671.9c-4.9,3.7-10.6,6.1-16.7,7c-7,1.2-14,0.4-20.9-0.5
			c-11-1.4-21.8-2.1-32.6,1.1c-0.9,0.3-2,0.6-2.6-0.6s0.2-1.6,1-2c9.4-5.6,16.1-14.4,24.5-21.2c4.9-3.7,10.4-6.6,16.3-8.4
			c2.3-0.8,4.8-1.4,7.1,0.5c0.7,0.5,1.5,0.7,2.3,0.6c11.4-1.2,23,0.9,34.4-1.2c1.4-0.3,3.2-1.2,4,0.7s-0.8,2.4-1.7,3.3
			c-4.7,5.2-9.9,9.9-15.6,14c-1.4,1-3.9,1.3-3.9,3.5S250.3,669.4,251.4,671.9z"/>
		<path id="XFF00FFM2Gra4Co7_25_" class="st1" d="M341.3,411.5c-0.2,2.4-2,1.9-3.3,1.6c-3.6-0.9-6.8-2.8-9.2-5.6
			c-2.3-2.5-4.1-2.3-5.8,0.6c-0.8,1.3-1.6,2.5-2.6,3.6c-5,5.9-5.7,5.9-11.3,0.8c-1.3-1.1-2.6-2.1-4-3c-3.7-2.4-6.9-2.9-10.5,0.9
			s-7.4,5.7-11.1,8.4c-0.7,0.5-1.5,1.1-2.3,0.6s-0.8-1.4-0.4-2.2c4.3-10.4,3-21.7,5.6-32.3c0.8-4.1,2.7-7.9,5.4-11.1
			c2.2-2.5,4-2.4,6.2,0c2.2,2.3,4.1,4.8,5.6,7.6c0.6,1.2,0.8,2.8,2.4,2.9s2.2-1.8,2.8-3c1.1-2.1,2-4.2,2.8-6.4c1.8-5.3,6.6-6.7,11-3
			c3.2,2.7,5.5,6.3,6.5,10.4c2.3,9.9,4.7,19.8,11.4,27.9C340.8,410.6,341.1,411,341.3,411.5z"/>
		<path id="X66FF00M1Gra3Co17_25_" class="st1" d="M152.5,683.4c-1.2-7,1-13.2,3.3-19.2c1.4-3.6,3-7.2,5.8-9.9
			c5.3-5.2,6.9-11.9,8.2-18.8c2.2-11.5,8.6-20,18.6-26c1-0.6,2.2-1.4,3.2-1.2c9.6,1.7,17.1-3.9,25.2-7.3c1.2-0.5,2.2-2.1,3.5-1.3
			s0.8,2.7,0.5,4.1c-1.3,6.4-3.7,12.5-7.1,18c-0.6,1-1.8,2.5-1.5,2.9c2.5,3.4,0.9,6.1-1.1,8.9c-3.3,4.5-7.9,7.8-13.2,9.4
			c-6.7,2-13.6,3.6-19.7,7c-11.9,6.5-18.9,17-23.1,29.5c-0.4,1.1-0.7,2.2-1.1,3.3S153.3,683,152.5,683.4z"/>
		<path id="X66FF00M1Gra8Co17_6_" class="st1" d="M161.9,717.3c-0.3-3.2,0.1-6.3,1.2-9.3c0.3-0.9,0.7-2-0.1-2.8s-1.8-0.3-2.7,0.2
			c-3.1,2.1-3.8,0.8-3.4-2.3s0.4-4.7,0.8-6.9s1.6-6.1,4.2-8.3c8.1-6.8,27.8-2.7,32.4,6.8c2.1,4.3,3.8,8.9,5.9,13.2
			c1,2,0.6,3.3-1.2,4s-3.8,3.8-3.9,6.8s-0.8,4.9-1,7.4s-1,4.3-4.6,4.1s-5,4.3-7.2,6.8s-1.3,3.6-3.2,3.5s-2.3-2.5-3-4.2
			s-2.9-6-4.6-8.8s-2.2-3.3-4.4-2.2c-4.5,2.2-5.2-0.4-5.2-4C161.8,720,161.9,718.7,161.9,717.3z"/>
		<path id="X009900M1Gra7Co18_12_" class="st1" d="M220.6,635.9c1.5-7,4.7-14.9,10.7-19s13.2-9.1,21.7-9.8c7.8-0.7,15.4-3.3,22-7.5
			c0.8-0.5,1.7-1.4,2.6-0.5s0,2.1-0.4,3.2c-2.5,6.9-6.7,13.7-7,20.6s-4.5,11.3-7.8,16.4c-1.7,2.6-4,3.5-7.2,3.5
			c-6.8-0.1-13.6,0.3-20.4,1.2c-4.2,0.6-8.9-1.8-13.3-3.2C220.2,640.2,220.6,638.1,220.6,635.9z"/>
		<path id="XFF00FFM2Gra4Co7_24_" class="st1" d="M258.3,293c0.4,0.4,0.8,0.8,1.2,1.3c0.6,0.8,0.9,1.8,1.6,2.5
			c2,2.4,3.8,6.4,6.8,5.8s3.3-5,3.6-7.9s2.1-5.2,6.2-3.7c8.3,3,11.6,9.6,12.8,17.5c0.9,6.1,1.4,12.2,4,17.9c1,2.2,0.5,3.7-2.5,2.6
			l-0.9-0.3c-5-3-7.3-0.5-8.8,4.1s-2.9,5.3-6.5,1.6s-5.5-3.6-7.8,1.6c-1,2.1-1.8,4.3-2.6,6.5s-0.6,1.6-1.6,1.6s-1.4-0.9-1.5-1.7
			c-1.6-10.3-6.1-19.6-9.2-29.4c-1.9-6-0.7-12.2,2.5-17.8C256.2,294.2,256.7,293.2,258.3,293z"/>
		<path id="XF37FFFM2Gra1OT20_6_" class="st1" d="M22.8,272.6c0-1.3-0.1-3.4,0-5.6c0.3-6,3.8-9.9,9.9-10.5c2.7-0.3,5.4-0.6,7.6-2.1
			s6.6-1.3,9.1,1.7c7.6,8.6,12.9,18,10,30.2c-0.6,2.6-8.1,9.7-11.4,10.3c-3.9,0.8-8,0.7-11.9-0.2c-9-2.2-12.1-6-12.9-15.3
			C23,278.5,23,276,22.8,272.6z"/>
		<path id="X66FF00M1Gra3Co17_24_" class="st1" d="M187.9,574c-0.6,8.4-3.5,15.6-7.1,23c-6,12.5-17.1,14.6-28.1,17.8
			c-8,2.4-15.5,5.9-21.9,11.5c-0.8,0.7-1.6,2.2-2.9,1.3s-0.3-2.1,0.1-3.1c6.4-15.7,15.7-29.2,29.6-39.2c1.6-1.2,3.5-4.4,4.4,0.8
			c0.4,2.4,2.3,0.7,3.5,0.1C172.9,582,181.8,580.8,187.9,574z"/>
		<path id="XF37FFFM2Gra2OT20_6_" class="st1" d="M171.6,121.8c0.6-3,1-6.9,2.2-10.5s6.7-5.7,11-6.3c9.3-1.2,17,3.7,20.7,12.3
			c0.8,1.8,1.4,3.8,2.1,5.6c3.7,9.7-0.6,14.3-9.1,19.9c-2.3,1.5-5.1,1-7.7-0.2s-7.5-3.8-11.4-4.8s-7-4.4-7.1-9.3
			C172.3,126.5,171.9,124.5,171.6,121.8z"/>
		<path id="XFF99FFM2Gra8Co6_25_" class="st1" d="M257.1,27.4c6.6-2.7,7.6,3,9.9,7.1s-0.7,6.5-2.9,9.1c-4.8,5.3-9.1,11-13.1,17
			c-0.6,0.9-0.8,2.4-2.3,2.1s-1.7-1.8-1.8-3.2c-0.1-5.4-1.8-10.9,0.8-16.2c0.9-1.7,0.5-3.2-1.5-4c-6.6-2.7-11-9.2-18.5-10.5
			c-1.2-0.3-2-1.4-1.9-2.6c-0.2-3.2-1.3-6.2-3.2-8.8c-1.8-2.7-0.4-3.4,2.1-3.7c7.3-1,14.4-2.3,21.3-5.1c4.7-1.9,6.8,2.6,9.5,4.8
			s-0.7,3.7-1.5,5.6s-0.7,0.7-0.9,1.2c-1,2.2-4.8,3.6-3.7,5.9S254.2,26.8,257.1,27.4z"/>
		<path id="XCD05D3M2Color8_6_" class="st1" d="M49.5,385.5c0.3,10.2,0.3,10.3,10.7,11.2c3.2,0.3,5.1,1.1,6,4.6
			c1.4,5,3.9,9.6,7.3,13.5c1,1.2,1.9,2.5,1.2,4.1s-2.6,1-4,0.9c-4.7-0.3-9.3,0.9-13.3,3.4c-2.3,1.4-3.7,1.1-4.2-1.8
			c-0.2-1-0.7-1.9-0.8-2.9c-0.9-8.7-6.1-12.3-14.3-13.7c-6.5-1.1-6.3-1.8-5-8.7c0.5-2.9,0.6-5.9,0.1-8.9c-0.4-2.7-0.2-5.4,0.7-7.9
			c1.2-2.6,0.7-5.7-1.3-7.8c-0.9-1-2.3-2.6-1.2-3.9s2.6,0.3,3.8,0.9c3,1.5,5.8,3.4,9,4.2s5.5,3.2,5.4,7.1
			C49.5,381.5,49.5,383.5,49.5,385.5z"/>
		<path id="XFF00FFM2Gra5Co7_41_" class="st1" d="M50.2,196.1c6,0.6,12,0.7,17.9-0.8c3.5-1,5.2,1.5,6.2,4.4s1.9,6.4,2.7,9.6
			s3.9,6.5,8.3,6.4l10.5-0.3c1,0,2.1-0.1,2.6,1s-0.5,1.5-1,2.1c-3.9,5.2-3.9,7.9,1.4,12.1c5.3,4.2,2.4,5.3,0,8s-2.6,2-4.2,0.3
			c-4-4.4-10.4-6.1-13.5-11.7c-1-1.7-2.5-1.3-4-0.7c-4.4,1.8-9.1,1.6-13.8,2s-4.2-1-4.1-4c0-2-0.1-4-0.4-6c-0.5-5-1.4-9.6-6.1-12.8
			c-2.1-1.4-3.4-4-4.8-6.3S47.2,195.7,50.2,196.1z"/>
		<path id="XFF99FFM2Color6_13_" class="st1" d="M332.2,436.5c-2.8-0.9-6.3-1.9-9.2-4.2s-4.8-1.6-6.8,0.8s-7,5.5-11,7.5
			c-2.4,1.2-4.4,1.1-5.9-1.5s-2.4-2.9-3.1-4.5c-2-4.3-4.5-7.5-9.9-7.4c-1.3,0-3.4-0.2-3.6-2s1.7-2.3,3-2.8c4-1.6,8-3.2,11-6.5
			c1.5-1.7,3.2-1.5,4.9-0.3s5.4,3.4,7.6,5.6s5,2.5,7.7,0.3c2.5-1.9,4.7-4.2,6.4-6.9c1.1-1.8,2.4-2.7,4.4-1c4.3,3.9,9.5,5.3,15.1,5.7
			c2.6,0.2,3.6,1.1,1.4,3.2c-3.4,3.2-5.8,7.3-7.1,11.8C336.5,436.2,335.2,437.2,332.2,436.5z"/>
		<path id="XF9D886M2Gra1OT15_6_" class="st1" d="M210.7,33c3.5,0.5,7,1.2,8.8,5.9c2.8,7.2,7.7,13.4,14.1,17.7
			c3.4,2.4,3.6,5.5,2.1,8.8c-1.5,3.3-3.6,6.5-8,6.5c-8.4-0.1-21.6-10.2-24.4-18.3c-1.9-5.7-0.8-11.2,1-16.6
			C205.2,34.5,207.2,32.8,210.7,33z"/>
		<path id="XFF66FFM1Color10_6_" class="st1" d="M271.8,144.3c0-5.6,1.2-11,3.5-16.1c0.3-0.6,0.4-1.3,0.7-1.9
			c1.1-2.2-0.4-5.8,2.2-6.8s3.8,2.6,5.6,4s2.5,0.4,3.4-1.2s2.4-3.1,3.5-0.4c4.9,11.6,5.9,27.6-4,37.9c-3.6,3.8-4.9,3.8-8.4-0.1
			S271.6,149.7,271.8,144.3z"/>
		<path id="X66FF00M2Gra6Co13_13_" class="st1" d="M76.7,475.5c-0.1,7.7,0.3,15.4,1.2,23.1c5.2,40.4,17.8,79.5,37.3,115.3
			c1.4,2.6,3.9,6.3,1.3,8s-3.6-3-5-5c-11.3-16.7-18-35.6-23.9-54.7c-7.7-24.8-12.7-50.4-15.1-76.3C72.2,482.2,72.6,479,76.7,475.5z"
			/>
		<path id="X66FF00M2Gra5Co13_20_" class="st1" d="M87.5,463.8c2.6-0.3,3.6,1.5,4.8,2.7c11,10.8,18.3,24.8,20.8,40
			c1.2,6.7,3.1,13.3,7.4,18.9c0.8,1.1,1.9,2.2,0.8,3.5s-2.7,0.1-3.9-0.7c-5.9-4.1-8.9-10.3-10.7-16.9c-1.8-6.6-5.2-14.8-10.2-20.9
			C89.9,482.6,89.5,473.1,87.5,463.8z"/>
		<path id="XFF99FFM2Color6_12_" class="st1" d="M219,461.5c4.4-1.7,8.5-3.5,12.7-4.7s6.9,1.3,9.5,3.5c5.1,4.2,9.6,3.1,13.8-0.8
			c4.2-3.9,9-6.9,15.4-4.3c1.5,0.6,3.6-0.1,5.4-0.1s2.9-1.4,3.5,0.4s-1.2,2.1-2.3,2.9c-3.2,2.2-5.7,5.2-7.5,8.6
			c-1.5,2.9-3.1,3.7-5.7,1.3c-4.4-4.2-8-3.2-13.1-0.1c-13.5,8.2-9.2,10.4-22-1.5C225.9,464.1,222.4,463.2,219,461.5z"/>
		<path id="XFF00FFM1Color11_20_" class="st1" d="M212.9,370.8c0.5-10.1,2.7-18.6,9.1-25.6c0.9-1,1.6-2.4,3.2-2.1s1.6,2.3,1.8,3.7
			s0.2,1.3,0.3,2c0.8,4.5,2,5,6,2.5c1.2-0.8,2.1-2.7,3.7-1.9s0.9,3,0.8,4.5c-0.8,10.5-10.2,22.2-20.1,25.3c-2,0.6-3.3,0.3-3.7-1.8
			S213.1,372.5,212.9,370.8z"/>
		<path id="X3B5105M2Color17_41_" class="st1" d="M208.6,518.3c-0.2,0.4-0.2,1-0.6,1.2c-8.4,4.6-13.8,12.4-19.4,19.7l-0.7,0.7
			L153.5,566c-1,0.6-2.1,1.1-3.2,1.5c-0.2-0.7-0.5-1.4-0.3-1.6c4.1-5.3,6.7-11.5,10.4-17s7.1-8.1,12.3-9.7s7-3.6,9.8-6.4
			c6.7-6.7,14.2-12,23.4-14.6C206.7,517.8,207.7,517.2,208.6,518.3z"/>
		<path id="XFF00FFM2Gra2Co7_34_" class="st1" d="M19.4,273.7c-1.2,6.9-1.1,13.9,0.2,20.7c0.4,2.4,0.7,5.2-2.4,6.3
			c-2.7,1.2-5.9,0.2-7.5-2.3c-3.2-4.6-6.1-9.5-9.1-14.2c-0.3-0.5-0.7-1.5-0.4-1.9c3.3-5.3,4-12.1,8.7-16.6c1.7-1.6,3.7-3.7,6.6-2.5
			s4.3,4,4,7.3C19.3,271.6,19.4,272.6,19.4,273.7z"/>
		<path id="X376600M2Color16_153_" class="st1" d="M197.4,259.6l-1.3,2.8c-13.3,29-24.7,58.8-34.1,89.3c-1,3.1-0.7,6.8-3.9,8.8
			c-1.1,0.7-2.1,2.1-3.5,1s-0.2-2.2,0.2-3.2c4.6-15.3,10.2-30.2,15.9-45.1c6.5-17.2,12.7-34.6,20.6-51.3l1.8-4.1
			c0.5-1.2,1.3-2,2.7-1.5S197.4,257.9,197.4,259.6z"/>
		<path id="X66FF00M2Gra4Co13_62_" class="st1" d="M281.5,287.9c-13.2-4.1-13.2-4.1-17.7,5.7c-2.1-0.7-2.1-2.8-2.9-4.3
			c-2.9-5.8-7.1-6.1-10.9-0.8c-1.5,2.1-1.9,4.9-5.1,7.1c0.1-6.1,1.9-10.8,5.5-14.4c1.9-1.9,3-3.7,3.1-6.4c0.2-1.7,0.7-3.2,1.7-4.6
			c3.1-5.1,2.4-8.7-2.1-12.7c-1-0.9-3.3-1.3-2-3.3s3.1-0.7,4.5,0.1c3.6,2,5.6,5.3,6.5,9.1s2.9,4.4,3.9,6.6
			C269.5,277,276.8,280.6,281.5,287.9z"/>
		<path id="XFF00FFM2Gra2Co7_33_" class="st1" d="M46.8,243.8c-0.5,3-3,5.2-6,6.1c-7.6,2.3-15.3,4.1-22.3,8.2
			c-2.9,1.7-6.7-1.9-5.5-5.1c2-5.4,4.8-10.6,6-16.3c0.1-1,1-1.7,2-1.5c0.2,0,0.5,0.1,0.7,0.2c5.8,2.5,12.1,1.8,18.1,2.7
			S46.7,240.5,46.8,243.8z"/>
		<path id="X66FF00M2Gra6Co13_12_" class="st1" d="M127.5,363.6c-0.5,5.5-3.5,11.4-6.5,17.1c-9.4,17.8-18.9,35.5-28.4,53.2l-1.8,3
			c-1,1.6-2.4,2.7-4.1,1.7s-0.4-2.7,0.2-3.8l26.7-50.8c2.6-4.9,5.1-9.7,6.5-15.1c0.8-2.9,1.6-5.9,0.2-8.8s-1.3-4.1,0.9-5.2
			s3.8,1.2,5.1,2.8S127.5,360.8,127.5,363.6z"/>
		<path id="X66FF00M2Gra4Co13_61_" class="st1" d="M239.2,386.4c-0.9-3-2.2-5.8-4-8.3c-1-1.6-2.4-3.2-0.4-4.8s3.8-0.3,5,1.6
			s2.1,2.8,2.3,4.4c1,6.2,6.1,10.1,8.7,15.4c1.2,2.5,4.2,3.6,7.2,3.8c0.9,0.1,2.2,0,2.3,1.3s-0.9,1.7-1.7,2.2s-4.5,1.1-6.8,1.1
			s-6.3,0.9-6.8,4.9c-0.1,1-0.2,2.2-1.5,2.1s-1.1-1.1-1.5-1.8c-4.4-7.4-8.2-8.2-15.4-3.3c-1.3,0.9-2.8,3.2-4.1,1.8s1-3,1.8-4.4
			s1.7-2.9,3-3.3c5.9-1.7,7-8,11.1-11.2C238.8,387.5,239,386.9,239.2,386.4z"/>
		<path id="X376600M2Color16_152_" class="st1" d="M172.1,358.5c-0.7,0-1.6,0-2-0.9s0.4-1.4,1-2c26.7-25.3,47-55.4,65-87.2
			c0.7-1.3,1.3-4,3.2-2.9s0.7,3.6-0.2,5.3c-11.3,21.8-25.7,41.5-40.7,60.8c-6.2,8-12.9,15.6-20.1,22.8
			C176.6,356.3,174.8,358.1,172.1,358.5z"/>
		<path id="X66FF00M2Gra4Co13_60_" class="st1" d="M321.9,365.7c-2.5,0.1-3.7-1.5-5.3-2.2c-5.7-2.4-11.1,0.4-12.1,6.4
			c-0.2,1.1-0.4,2.3-0.7,3.4s-0.5,2.1-1.5,2.4s-1.6-0.9-2.1-1.7c-2.4-3.1-3.7-8.3-7.4-8.8s-5.4,4.7-8.4,7c-0.6,0.3-1.2,0.5-1.9,0.6
			c1.8-5.3,3.2-10,8.2-12.8s6-11.7,3.9-15.5c-0.6-1.1-2-2.3-0.2-3.3s2.7,0.1,3.4,1.2c2.5,3.9,5.5,7.3,8.1,11c1.3,1.8,2.3,2.8,4.6,3
			C316,356.9,319.5,359.8,321.9,365.7z"/>
		<path id="X376600M2Color16_151_" class="st1" d="M148.5,553.1c2.6-14.9,6.4-29.6,11.4-43.9c5.1-14.9,11.1-29.5,18-43.7
			c0.8-1.5,1-4.4,3.3-3.3s1.8,4,0.8,6.2c-3.3,7.2-6.8,14.4-10.1,21.7c-8.7,19.2-13.8,39.5-18.6,59.9c-0.3,1.5-0.8,2.9-1.4,4.2
			c-0.6,1.1-1.2,2.8-2.9,2.1S148.5,554.2,148.5,553.1z"/>
		<path id="X78CE78M2Color14_6_" class="st1" d="M258.9,209.8c-0.9,3.6-3.5,6.6-7,7.9c-14.1,6.3-25.1,16.7-36.6,26.5l-7.5,6.5
			c-0.9,0.8-1.8,1.6-3.1,1s-1.1-2-1-3.1c0.6-6.4,3.3-12.2,9.1-14.5c9.7-3.7,17.2-10.5,25.9-15.6
			C244.8,215.1,251.5,213.3,258.9,209.8z"/>
		<path id="XFF00FFM2Gra5Co7_40_" class="st1" d="M168.3,111.4c0,0.2,0,0.3,0,0.5c-2.9,6.5-2.6,12.9,0,19.5c0.9,2.5-0.5,5.3-3,6.2
			c-2.9,1.2-6.1,0.5-8.3-1.7c-3.3-3.2-5.1-7.4-6.7-11.5c-1.6-4.1,2-4.6,2.9-7.1c1.2-3.8,3.5-7.2,6.7-9.7c1.7-1.4,4.1-1.7,6.1-0.7
			C167.9,107.8,168.2,109.5,168.3,111.4z"/>
		<path id="XFF00FFM2Gra2Co7_32_" class="st1" d="M78.2,280.6c-1.6,4.1-0.4,8.8,0,13.8s-7.3,5.7-10.4,9.5c-1.2,1.5-3.4,1.4-5.1,0.3
			s-3.9-4.2-2.5-7.3c3.2-6.6,6-13.2,5.8-20.9c-0.1-2.9,2.5-4.7,5.6-4.6S78.1,276,78.2,280.6z"/>
		<path id="X78D111M2Color15_55_" class="st1" d="M276.9,16c-0.1,0.3,0,1.1-0.4,1.6c-4.4,5.1-4.8,10.9-3.1,17.2
			c0.4,1.6,0.3,4.3-1.9,4.6s-1.5-2.4-2.1-3.7c-1.6-3.8-3-7.7-4.8-11.5s-3.5-0.8-5.4-1s-3.2,0.9-4.1-0.8s0.8-2.4,1.6-3.3
			c5.5-6.9,5.5-7.2-1.7-12.5c-1.9-1.6-4.1-2.8-6.5-3.6c-0.8-0.2-1.6-0.8-1.5-1.7s1.4-1.2,2.4-1.1c4.3,0.4,8.5,2.1,11.8,4.9
			c2.3,2.1,4.6,3.3,8,3S277,11.9,276.9,16z"/>
		<path id="X78D111M2Color15_54_" class="st1" d="M181.2,382c5.2,7.7,6.8,15.5,7.5,23.6c0.6,6.6-0.8,12.9-2.1,19.3
			c-1.7,8.4-2.2,16.8,0,25.2c0.5,1.1,0.2,2.4-0.8,3.2c-6.6-8.2-8.3-17.6-6.7-27.5c2.3-13.7,5-27.2,1.5-41
			C180.5,384.2,180.9,383.6,181.2,382z"/>
		<path id="X376600M2Color16_150_" class="st1" d="M120.1,513.8c1.2-21.6,4.7-41.4,8.4-61.2c0.7-4.1,1.5-8.1,2.4-12.2
			c0.4-2,0.9-4.4,3.7-3.6s1.3,3.4,0.9,5c-5,23.4-8.5,47.1-10.6,71c-0.2,1.9,0.7,5.2-2.5,4.9S120.1,514.5,120.1,513.8z"/>
		<path id="X66FF00M2Gra4Co13_59_" class="st1" d="M156.4,178.1c4.1,1.4,8.1,0.9,12.4-0.4s10,4.3,8.7,8.8c-0.8,2.7-0.1,4.8,0.8,7.1
			s1.7,3.7,1.1,5.8s0,4.8-2.2,5.1s-1.5-2.8-2.2-4.3c-2.2-4.8-7-6.9-11.9-4.7c-1.1,0.5-2.1,2-3.5,0.8s-0.4-2.2-0.2-3.3
			c1.3-9.2,1.3-9.2-7.8-10.4c-1-0.1-2.1-0.2-2.2-1.5s0.8-1.4,1.6-1.6L156.4,178.1z"/>
		<path id="X3B5105M2Color17_40_" class="st1" d="M242.2,119.3c-4.2,10,1.8,21,2.8,32.4c0.1,1.3,1.7,3.1-0.5,3.7s-1.9-1.5-2.3-2.7
			c-1.3-3.4-3-6.6-5.3-9.5c-4.5-6-5.2-12.6-2.8-19.4c2.9-8.5,2.4-16.3-3-23.6c-0.6-0.8-1.6-1.6-0.9-2.6s2.1-0.3,3.1,0.2
			C241.3,102.1,242.3,109.5,242.2,119.3z"/>
		<path id="X376600M2Color16_149_" class="st1" d="M116.5,561.9c0-6.5-0.1-13,0.1-19.4c0-1.8-1.3-5.1,2.1-5s2.7,3.2,2.7,5.5
			c0,9.5-0.2,19,0.1,28.4c0.4,13.8,2.1,27.5,4.9,41c0.4,1.8,1.2,4.1-1.1,4.7s-2.1-2-2.5-3.4C118,596.8,116.6,579.4,116.5,561.9z"/>
		<path id="X66FF00M2Gra5Co13_19_" class="st1" d="M71.1,470.4c-1.5-5.4,0.6-9.4,2.6-13.3c4.4-8.3,12.1-12.5,20.5-15.8
			c6.8-2.6,14.2-3.7,20.2-8.3c0.6-0.4,1.2-0.7,1.8-0.2s0.5,1.5,0.1,2.3c-2,3.9-5.4,6.2-9.1,8.1c-9.8,5.1-20.6,8.7-28.2,17.5
			C76.4,463.8,74,466.9,71.1,470.4z"/>
		<path id="X038203M2Gra1Co14_34_" class="st1" d="M130.5,270c-9.7,13.4-17.5,28.9-35.3,33.8c-1.1,0.3-2.1,1.5-3.2,0.3
			s-0.1-2.4,0.6-3.6s2.7-4.1,4.7-5c5.2-2.4,8.1-6.6,10.5-11.5s5.9-6.8,10-8.7C121.9,273.4,126.3,271.8,130.5,270z"/>
		<path id="X376600M2Color16_148_" class="st1" d="M149.8,697.5c0.4,1.2-0.2,2.5-1.4,2.9c-0.1,0-0.2,0.1-0.4,0.1
			c-1.2,0.3-2.4-0.5-2.7-1.7c-3.5-9.7-10.2-18.1-11.3-28.9c-0.9-8.7-4.3-17-8.4-24.8c-1.6-3.4-0.3-7.4,3-9.2
			c2.3-1.1,2.5,0.5,2.7,2.1c1.6,12.7,5.4,25,8.7,37.3c0.5,2,1.2,4.3,2.9,5c5.1,2,5.5,6.1,5.8,10.5
			C148.9,693,149.5,695.2,149.8,697.5z"/>
		<path id="XFF00FFM2Gra2Co7_31_" class="st1" d="M62.4,241.4c4-1.2,6.2,0.4,7.1,5.3s3.4,8.7,2.6,13.5c-0.5,3.2-1.4,6.4-5.3,6.9
			s-4.5-2.5-5.6-5.2s-1.8-5-4.1-6.6s-7.3-4.6-5.8-9.3S57.5,241.4,62.4,241.4z"/>
		<path id="XFF00FFM2Gra8Co7_34_" class="st1" d="M199.4,38.9c-1,4.5-1.4,9.2-1.2,13.8c0.1,2.4-1.3,4.7-3.6,5.5
			c-2.3,0.9-3.7-0.9-5.2-2.1c-10.5-8.6-10.5-8.6-3-21.3c2.8-4.7,7.2-5.2,11-1.4C199,34.8,199.7,36.8,199.4,38.9z"/>
		<path id="X66FF00M2Gra4Co13_58_" class="st1" d="M126,157.7c-1,2.4-0.3,4.7,0.8,7c0.9,2.2,1.2,4.6,0.7,6.9
			c-0.2,1.1-0.3,2.5-1.7,2.7s-1.9-1-2.2-2.1s-1.9-3.5-3.1-5.1s-4.4-4-7.4-1c-0.9,0.9-2.2,1.9-3.5,1.2s-0.9-2.3-0.6-3.6
			c1.4-6.8-0.3-9.1-7.4-10.3c-1.8-0.3-5.3,1.3-5.3-1.7s3.6-2.2,5.8-2.4c2-0.2,4,0,5.9,0.6c2.5,0.9,5.2,0.8,7.6-0.2
			c4.1-1.5,8.5,0.7,10,4.7C125.9,155.5,126.1,156.6,126,157.7z"/>
		<path id="X66FF00M2Gra4Co13_57_" class="st1" d="M273.2,222.7c3.5-7.4,6.4-13.5,13.9-15.4c1.9-0.5,2.3-2.1,3-3.7s3.1-5.3,6.6-5.3
			s5.3,1.8,6.2,4.8s3.4,3.3,5.9,3.9c4.5,1,8.2,3.3,10.4,7.5c-1.6,1.8-2.6,0.4-3.6-0.2c-2.5-1.7-5.4-2.7-8.4-2.8
			c-3.6-0.1-6.2,1-6.5,5.2c-0.1,1,0.1,2.2-1.1,2.6s-2-0.7-2.8-1.5c-1-1.3-2.2-2.5-3.4-3.6c-4.7-3.7-8.5-3.3-12.8,1
			C278.4,217.3,277.4,220.7,273.2,222.7z"/>
		<path id="XFF00FFM2Gra8Co7_33_" class="st1" d="M195.7,20.5c-0.1-4,2.6-7.6,4.4-11.5c0.3-0.7,1-1,1.7-0.8c0.2,0.1,0.3,0.1,0.4,0.3
			c4.4,4.3,10.9,5.6,15.3,10.1c2.4,2.5,5.5,5.3,2.7,8.9s-6.2,2.6-9.5,0.8c-2.2-1.2-4.8-1.6-7.2-1C197.5,28.6,195.7,27.1,195.7,20.5z
			"/>
		<path id="XFF00FFM2Gra2Co7_30_" class="st1" d="M30.8,300c1.1,0.2,2.4,0.1,3.3,0.7c4.6,2.8,9.4,2.4,14.4,1.5
			c1.2-0.1,2.3,0,3.5,0.2c2.5,0.3,3.8,2,4.3,4.2s-1,3.4-2.6,4.4c-4,2.7-9.1,2.9-13,6c-1.3,1-2.4-0.3-3.4-1.3c-2.9-2.7-6.1-5.1-9.6-7
			c-2-1.2-4.9-2.3-3.7-5.6S28.1,300.2,30.8,300z"/>
		<path id="X376600M2Color16_147_" class="st1" d="M203.6,217.6c-0.2,8.5-0.4,16.1-2.9,23.5c-0.4,1.2-0.6,3.2-2.2,2.9
			s-1.3-2.4-1.2-3.7c1.1-14.1,2.5-28.2,0.3-42.3c-0.5-3.6-1.7-7.1-3.4-10.3c-1.9-3.5-4.8-5.9-9.1-6.2c-2-0.1-4.7-0.1-4.2-2.9
			s3.2-1.8,5-1.4c7.3,1.3,11.9,5.9,14,12.7C202.9,199.1,202.9,208.8,203.6,217.6z"/>
		<path id="X3B5105M2Color17_39_" class="st1" d="M248.2,573.4c-7.8,3.6-13.4,10-19.9,15c-1.6,1.3-3.6,2-5.6,1.8
			c-9.4-0.9-16.6,3.6-23.6,8.9c-1,0.7-2,2.6-3.3,1.4s0.4-2.6,1.2-3.6c5.1-5.8,10.7-11,18.6-12.6c4.3-0.9,8-3,11.7-5.3
			C233.6,575.2,240.9,573.3,248.2,573.4z"/>
		<path id="X376600M2Color16_146_" class="st1" d="M293.7,193.8c-0.2,1.9-1.8,3.5-3.7,3.7c-7.1,1.2-11.4,5.9-15,11.4
			c-6.5,10-12.5,20.4-17.9,31.1c-0.8,1.5-1.1,4.3-3.4,3.2s-1.4-3.5-0.5-5.4c6.3-12.2,12.1-24.9,20.9-35.6c4-4.9,8-10,15.1-10.4
			C290.9,191.8,293,191.7,293.7,193.8z"/>
		<path id="XFF00FFM1Color11_19_" class="st1" d="M239.3,510.6c-0.7,4.4-1.6,8.6-4.7,11.9s-7.2,2.9-9.5-1.2
			c-1.8-3.1-2.2-6.7-1.1-10.1c1.6-4.6,3.9-8.9,6.8-12.7c2-2.9,3.5-2.3,5.3,0.2S238.4,506.6,239.3,510.6z"/>
		<path id="XFF99FFM2Gra8Co6_24_" class="st1" d="M90.9,268.4c-0.4,4.3-2.2,8.5-5.1,11.7c-0.7,0.7-1.3,1.7-2.5,1.3
			c-1-0.4-1.5-1.5-1.3-2.5c0.3-4.8-1.9-8.3-5.7-10.9c-0.6-0.4-1.5-1.4-1.4-1.9c1.1-4.9,1.8-9.7,1-14.7c-0.3-1.6,1.9-1.1,3.2-0.6
			C85.6,253.1,91,261.1,90.9,268.4z"/>
		<path id="XFF00FFM2Gra8Co7_32_" class="st1" d="M204.1,80.9c-2.6,0.6-3.9-0.2-4.8-2.6s-2.6-5.4-3.7-8.1s-1.3-6.1,1.8-8.4
			s5.3-0.3,7.4,1.7c3.3,3.3,6.9,6.1,10.9,8.5c1.4,0.8,3.9,1.2,3.4,3.6s-2.5,4.1-4.9,4.3C210.8,80.4,207.3,80.6,204.1,80.9z"/>
		<path id="XFF00FFM2Gra5Co7_39_" class="st1" d="M193.1,101c-1.2-0.2-2.3-0.5-3.4-0.9c-5.3-2.1-10.1-1.2-14.6,1.9
			c-1.5,1-3.1,2.5-4.9,1s-0.4-3.2,0.1-4.7c1.2-3.6,2.1-7.6,4.3-10.5s6.8,0.7,10.4,0.7s9.2,1.5,11.9,6c1,1.4,1.2,3.2,0.5,4.7
			C196.5,100.8,195.1,101.1,193.1,101z"/>
		<path id="XFF00FFM2Gra5Co7_38_" class="st1" d="M182.6,158.5c-4.2,1.5-6.9-0.6-8.5-5.3c-0.7-2.1-2.6-3.8-3.8-5.8
			c-1.1-1.6-1-3.6,0.2-5.1c1.1-1.3,2.9-1.8,4.5-1.1c1.9,0.6,3.7,1.4,5.4,2.4c3.6,2.3,7.6,4.2,11.7,5.4c1.8,0.5,3.6,1,3.7,3.4
			s-1.1,3.6-3.1,4.6S186.6,158.4,182.6,158.5z"/>
		<path id="X376600M2Color16_145_" class="st1" d="M192.5,443.7c-2.2-0.7-2.2-2.4-1.6-3.9c1.2-3.1,2.7-6.1,4.2-9
			c7-14.3,15-28.2,23.8-41.5c0.8-1.2,1.7-2.5,2.6-3.6s2.5-2.5,4.2-1s0.4,2.7-0.5,3.9c-7.8,10.2-14.3,21.3-20.3,32.6
			c-3.4,6.3-6.5,12.7-9.8,19.1C194.6,441.4,194.1,442.8,192.5,443.7z"/>
		<path id="XFF00FFM1Color11_18_" class="st1" d="M280.9,522c-1.2,0-2.4-0.2-3.5-0.5c-2.2-0.8-4.2-2.3-4.7-4.8s1.3-3.7,2.9-4.9
			c4.1-3.2,8.7-4.7,14-3.8l6.8,1.4c1.6,0.4,4.2-0.6,4.6,1.8c0.4,2.4-1.8,3-3.1,4.2C293.4,519.8,287.2,522.2,280.9,522z"/>
		<path id="X66FF00M2Gra4Co13_56_" class="st1" d="M215.9,338.9c-0.1-1.2,0.6-2.3,1.7-2.7c5.6-3.1,11.6-5.2,16.8-9.1
			c2-1.5,4.8-0.1,5.3,2c1.3,4.9,3.6,9.2,5.2,13.9c0.5,1.5,1,3.6-0.9,4.4s-1.8-1.5-2.5-2.5c-2.2-2.8-4.4-3.9-7.4-1.1
			s-3.6,2.8-4.2-1.2c-0.9-6.1-2.6-7-8.6-5.3C219.4,337.8,218,339.3,215.9,338.9z"/>
		<path id="X78D111M2Color15_53_" class="st1" d="M292.5,117.1c-2.4,0.4-2.4-1.9-3.4-3c-2.9-3.3-4.5-3.2-6.6,0.7
			c-1.1,2.1-1.8,4.5-3.9,0.6s-4.7-5.4-7.9-0.9c-0.6,0.8-1.5,1.6-2.5,0.9s-0.3-2,0.3-2.6c3.6-3.4,6.3-7.6,8-12.2
			c1-2.2,3.4-3.4,5.8-2.9c2.4,0.4,4.2,2.4,4.4,4.8c0.6,4.7,5.3,7.3,5.8,12C292.7,115.2,293.4,116.2,292.5,117.1z"/>
		<path id="XFF00FFM2Gra8Co7_31_" class="st1" d="M242.2,48.2c-0.6,2.8,1.3,6.2-1.5,7.6s-4.9-2-6.9-3.7c-4.5-3.8-8.2-8.4-8.9-14.5
			c-0.5-4.5,1.7-6,5.6-3.7c3.7,2.3,7.2,4.8,10.5,7.5C243.5,43.3,241.4,46.2,242.2,48.2z"/>
		<path id="X376600M2Color16_144_" class="st1" d="M241.1,165c-0.3,0.9-0.7,2-1.2,3l-27.1,57.1c-0.6,1.3-0.8,3.4-2.9,2.3
			s-1.4-2.7-0.6-4.3c10-19.5,19.9-39,28.4-59.2c0.4-1,0.9-1.9,2.1-1.6S241.3,163.6,241.1,165z"/>
		<path id="X038203M2Gra1Co14_33_" class="st1" d="M98,343.9c4.2,1.8,8.5,3.1,12.9,4c4.8,1,6.1,4.2,3.7,8.4l-0.8,1.3
			c-1.5,2.1-1.4,5.8-4.2,6.5s-7.5,1-11.3,1.3c-1.5,0.1-2.1-0.9-1.5-2.3c0.2-0.6,0.6-1.2,1-1.7c4.2-4.9,7.9-9.7,0.1-14.7
			C97.4,346.2,97.1,345.2,98,343.9z"/>
		<path id="X376600M2Color16_143_" class="st1" d="M139.8,165.8c-0.7,7-2.7,16.4-4.8,25.8c-0.2,1-0.5,1.9-0.9,2.8
			c-1.1,2.1-2.5,4.9-4.8,4.1s-0.2-3.5,0.2-5.2c1.8-8.6,4.5-17,5.7-25.8c0.8-5.8,0.7-11-4.8-14.6c-0.9-0.6-2-1.5-1.2-2.9
			s2-0.8,3.2-0.5C137.6,151.1,140.5,156.3,139.8,165.8z"/>
		<path id="X376600M2Color16_142_" class="st1" d="M252.6,528.1c-0.3,0.6-0.6,1.1-1.1,1.5c-14.2,10.3-20.5,26.1-28.6,40.7
			c-1.2,2.2-2.4,4.3-3.8,6.3c-0.5,0.8-1.6,1.1-2.5,0.6l-0.1-0.1c-0.8-0.7-0.3-1.6,0.1-2.3c8.7-16.7,15.5-34.7,31-46.9
			c1.3-1,2.2-2.6,4.2-2S252.8,526.7,252.6,528.1z"/>
		<path id="XFF00FFM2Gra5Co7_37_" class="st1" d="M222.4,113.2c-0.6,3.4-1.1,6.2-1.6,9c-0.3,1.9-1.8,3.4-3.7,3.6
			c-2.1,0.2-4-1.3-4.3-3.4c-1.2-5-3.7-9.6-7.3-13.3c-1-0.9-1.4-2.4-0.8-3.6c0.5-1.3,1.8-2.1,3.2-1.8c5.1,1.5,9.8,4,13.8,7.5
			C222.4,111.5,222.3,112.8,222.4,113.2z"/>
		<path id="XFF00FFM2Gra5Co7_36_" class="st1" d="M220.8,136.3c-0.2,6.4-6.6,14.3-12.9,15.8c-2.3,0.6-4.4,0-5.6-2.1
			c-1.2-1.7-0.8-4.1,0.8-5.4c4-3.3,7.2-7.4,10.5-11.4c1.2-1.4,2.5-2.9,4.6-1.8C220,132.3,221.1,134.3,220.8,136.3z"/>
		<path id="X376600M2Color16_141_" class="st1" d="M146.9,648.1c0,6.5,0,13,0,19.4c0,1.4,0.5,3.4-1.7,3.5s-1.7-1.8-1.8-3.1
			c-1.7-13.6-1.7-27.2-2.7-40.8c-0.2-2.3,0.9-3.3,3.2-3.3s2.6,1.5,2.6,3.4c0,7,0,14,0,21L146.9,648.1z"/>
		<path id="X376600M2Color16_140_" class="st1" d="M293.5,31.1c-1.3,9.9-4.2,20.6-7.5,31.2c-1.3,4.1-2.7,8.2-4.1,12.3
			c-0.5,1.3-1,3.4-2.9,2.6s-1-2.6-0.5-3.9c3.8-9.4,6.8-19.1,9.1-29c1-4.2,1.7-8.5,2.1-12.8c0.3-3.4-1.1-6.7-3.8-8.8
			c-1-0.8-1.9-1.6-0.9-2.9s2.2-0.4,3.2,0.1C292.1,22.1,293.8,25.4,293.5,31.1z"/>
		<path id="XEC2AFFM2Gra4OT31_6_" class="st1" d="M206.2,86.9c7.5-0.2,11.9,3.7,12.3,10.5c0.2,3.3-1,5-4.3,3.3
			c-2.5-1.3-5.3-2-8.1-2.1c-1.6,0-8.1-7.4-8.2-8.9s0.9-1.6,1.9-2S204.1,87,206.2,86.9z"/>
		<path id="XFF00FFM2Gra8Co7_30_" class="st1" d="M245.9,75.4c-0.4,4.3-3.1,7.5-5.7,10.7c-0.6,0.6-1.5,0.8-2.3,0.5
			c-3.7-1.4-7.5-2.6-10.7-5s-2.4-3.5,0.9-4.4c5.3-1.4,11.3-1.6,13.9-8c0.4-1.1,1.8-0.6,2.3,0.5S246.1,73.3,245.9,75.4z"/>
		<path id="X66FF00M2Gra4Co13_55_" class="st1" d="M221.5,542.1c-2.1-5.3,2.3-12.3-2.8-17.9c-0.6-0.6-0.9-1.6,0.1-2.1
			c0.6-0.1,1.3,0,1.8,0.3c0.6,0.3,1.1,0.8,1.4,1.4c3.6,5.6,7.6,8.5,13.5,2.8c0.4-0.5,1.1-0.6,1.5-0.2c0.1,0.1,0.2,0.2,0.3,0.3
			c0.6,0.9,0,1.6-0.6,2.1c-3.6,3.1-5.5,7.5-8.8,10.8c-1.7,1.5-3,3.6-3.6,5.8c-0.3,1.2-0.4,3.1-2.3,2.5s-1.1-1.9-1-3.1
			S221.2,543.6,221.5,542.1z"/>
		<path id="X66FF00M2Gra5Co13_18_" class="st1" d="M153.3,420.7c-7.7,8.3-17.4,11.1-28.1,11.1c-0.9,0.1-1.7-0.5-2-1.3
			c-0.5-1.4,0.5-2.2,1.5-2.8c3.4-2,7.2-3.4,11.1-4.2C141.6,422.3,147.5,422.2,153.3,420.7z"/>
		<path id="X038203M2Gra1Co14_32_" class="st1" d="M112.9,255.6c-2.4,5.8-2.7,12.4-4.1,18.7c-0.4,2-2.1,3.6-4.2,3.8
			c-2.2,0.2-2.2-2-3-3.4c-1.3-2.7-3.1-5.1-5.2-7.2c-1-0.9-2.3-2-1.1-3.3s2.7-0.5,4,0.4l0.8,0.6c5,4.3,5,4.3,6.6-2.1
			c0.7-2.7,1.4-5.5,2-8.2s0.7-3.2,2.7-2.7S112.7,254,112.9,255.6z"/>
		<path id="X376600M2Color16_139_" class="st1" d="M251.5,145.1c-2.4-1-1.3-2.7-0.7-4.1c2.7-6.2,5.6-12.4,8.3-18.6
			c3.5-8.2,7-16.5,10.4-24.8c0.6-1.4,1.2-3.2,3-2.5s0.1,2.3-0.3,3.3c-5.6,14.5-11.7,28.9-18.2,43
			C253.5,142.8,253.2,144.5,251.5,145.1z"/>
		<path id="X376600M2Color16_138_" class="st1" d="M254.8,108.9c0.2,5.7-0.4,11.4-1.7,16.9c-0.3,1.1-0.2,2.7-1.7,2.7
			s-1.4-1.9-1.2-3.1c1.1-9.5,1.8-18.9,0.4-28.4c-0.5-3.1-1.1-6.2-1.6-9.3s-2.3-4.9,0.7-5.5s3,2.9,3.3,5
			C254.3,94.4,254.9,101.6,254.8,108.9z"/>
		<path id="X66FF00M2Gra4Co13_54_" class="st1" d="M269.9,513.2c-1.9,4.1-0.8,7.7,3.4,10.6c1,0.7,2.8,2.7,1.5,4.2s-2.7-0.2-4-0.8
			c-3-1.6-6.3-1.9-9.6-2.3c-1.5-0.2-3.1,0-3.6-1.9s0.6-2.5,1.6-3.4c3.2-2.7,6.4-5.3,7.1-9.8c0.2-1,1-2,2.1-1.5
			S269.8,511,269.9,513.2z"/>
		<path id="X78D111M2Color15_52_" class="st1" d="M167.1,365.2l2-0.3c0.8,0,1.7-0.4,2.1,0.7s-0.4,1.5-1,2.1
			c-3.3,2.9-7.2,4.7-11.1,6.6s-7.3,3.3-10.4,5.9c-0.7,0.6-1.5,1-2.2,0.5s-0.4-1.8,0.1-2.6C150.7,370.4,157.9,365.9,167.1,365.2z"/>
		<path id="X376600M2Color16_137_" class="st1" d="M137.1,414.4l7.2-25.4c0.6-1.9,1.8-3.5,3.9-2.9s1,3,0.6,4.5
			c-2.1,7.5-4.4,15-6.7,22.4c-0.3,0.9-0.7,1.8-1.2,2.7c-0.6,1.1-1.4,2-2.7,1.6S136.9,415.6,137.1,414.4z"/>
		<path id="X038203M2Gra1Co14_31_" class="st1" d="M86.7,340.3c2-9.1,3.9-18.2,5.9-27.3c0.4-1.6,1.2-3.6,3.2-3.2s1.2,2.6,0.9,4.1
			c-1.5,7.5-2.9,15-4.4,22.5c-0.4,1.8-0.6,3.6-1.8,5.1s-1.5,1.9-2.9,1.3S86.7,341.3,86.7,340.3z"/>
		<path id="X376600M2Color16_136_" class="st1" d="M258.5,345.7c-0.5,0.9-1,1.8-1.6,2.7l-12.6,16.1c-1.2,1.5-2.5,3.2-4.5,1.7
			s-0.2-3.3,0.8-4.6l13.7-16.4c0.8-0.9,1.5-1.9,2.8-1.6S258.5,344.5,258.5,345.7z"/>
		<path id="X376600M2Color16_135_" class="st1" d="M150.5,658c2.3-8.6,5.7-16.4,11.2-23.2c0.6-0.8,1.5-1.6,2.5-1.3s1.3,1.8,1.3,2.9
			c0,0.7-0.2,1.3-0.6,1.8c-5.3,5.7-7.9,12.9-10.7,19.9c-0.5,1.2-1.2,2.6-2.9,2.1S150.6,658.7,150.5,658z"/>
		<path id="X3B5105M2Color17_38_" class="st1" d="M257.8,95c2.2-8.5,9.5-14,16.8-13.2c4.3,0.5,8.5,4.4,8.5,7.8c0,1-0.1,2.1-1.1,2.6
			s-1.7-0.3-2.3-1.1c-5.4-7.1-10.6-7.2-16.9-0.6C261.4,92,260.7,94.4,257.8,95z"/>
		<path id="X78D111M2Color15_51_" class="st1" d="M244,259.1c0.5-8.1-3.5-15-4.3-22.7c-0.1-1.2-0.6-3,1.2-3.3s1.4,1.6,1.9,2.6
			c3.4,6.2,6,12.6,3.9,19.9C246.4,256.8,246.5,258.3,244,259.1z"/>
		<path id="X038203M2Gra1Co14_30_" class="st1" d="M74.3,435.7c0.2-3,0.2-6,0.5-8.9s1.1-3.5,3.1-3.2s1.4,2.1,1.2,3.3
			c-0.6,5.5,1.8,11.3-1.8,16.4c-0.6,0.9-1,2.6-2.3,2.2s-1.1-2.2-1-3.4S74.3,437.8,74.3,435.7L74.3,435.7z"/>
		<path id="X78D111M2Color15_50_" class="st1" d="M183.6,364.3c-1.6-0.1-2.9,0.1-3.5-1.2s0.4-2.5,1.5-3.3c4.3-3.5,9.9-3.5,14.7-5.7
			c0.6-0.3,1.3,0,1.6,0.6l0,0c0.1,0.5-0.1,1-0.5,1.3C193.2,359.4,189.1,363.5,183.6,364.3z"/>
		<path id="X3B5105M2Color17_37_" class="st1" d="M216.5,561c-0.2,2.2-0.2,4.7-2.6,5s-2.5-2.3-2.8-4c-0.7-4.6-0.8-9.3-0.4-13.9
			c0.1-1,0.3-2.2,1.6-2s0.8,1.2,1,2L216.5,561z"/>
		<path id="X376600M2Color16_134_" class="st1" d="M142.3,586.2c0.5-3.1,1-6.2,1.6-9.2s1.7-3.1,3.5-2.7s1.2,2.1,1.1,3.4
			c-0.3,3-0.5,5.9-1,8.9s-1.2,5.4-3.7,5.1S143.2,588.1,142.3,586.2z"/>
		<path id="X3B5105M2Color17_36_" class="st1" d="M158.1,682c1.3-7.1,7.1-10.7,11.8-7.5c1.1,0.8,2.4,1.7,1.8,3.2s-2.1,0.8-3.2,0.2
			C163.6,675.5,161.5,680.3,158.1,682z"/>
		<path id="X376600M2Color16_133_" class="st1" d="M287.4,334.1c2.2,1.3,4.1,2.7,3.7,5.4s-1,5.3-3.1,4.9s-3.9-3.3-3.7-6.2
			C284.3,336.3,285.6,334.6,287.4,334.1z"/>
		<path id="X78D111M2Color15_49_" class="st1" d="M277.1,343.8c-0.9,1.2,0.9,4.6-2.3,4.2c-2.7-0.4-4.6-2.7-4.7-5.3
			c0-1.9,0.9-3.9,3.3-3.8C275.8,338.9,277.4,340.8,277.1,343.8z"/>
		<path id="X78D111M2Color15_48_" class="st1" d="M249.8,326.6c-1.5-1.3-5.5,1.3-5.5-2.8c0-2.2,2.4-1.9,4-1.7
			c1.6,0.2,4.6,0.8,4.5,3.6S251.3,327,249.8,326.6z"/>
		<path id="X376600M2Color16_132_" class="st1" d="M195.7,685.8c-1.4,0-2.7-0.3-2.5-1.4c0.5-2.7,3-3.7,5.2-4.7s1.9,0.7,1.7,1.8
			C199.7,684,197.6,685,195.7,685.8z"/>
	</g>
</g>
</svg>
