<?xml version="1.0" encoding="utf-8"?>
<!-- Generator: Adobe Illustrator 24.1.0, SVG Export Plug-In . SVG Version: 6.00 Build 0)  -->
<svg version="1.1" baseProfile="tiny" id="图层_1"
	 xmlns="http://www.w3.org/2000/svg" xmlns:xlink="http://www.w3.org/1999/xlink" x="0px" y="0px" viewBox="0 0 751.2 1080.2"
	 xml:space="preserve">
<g id="图层_1_1_">
	<g>
		<path d="M0.1,540.1c0-178.5,0-357-0.1-535.5C0,0.8,0.8,0,4.6,0c247.3,0.1,494.7,0.1,742,0c3.7,0,4.6,0.8,4.6,4.6
			c-0.1,357-0.1,714,0,1071c0,3.7-0.8,4.6-4.6,4.6c-247.3-0.1-494.7-0.1-742,0c-3.7,0-4.6-0.8-4.6-4.6
			C0.1,897.1,0.1,718.6,0.1,540.1z M392.1,360.1l-1.3-1.2c-0.3-0.3-0.7-0.7-1-1c-0.6-0.6-2.2,0-2.1-1.4c0-0.2,1.4-0.3,2.2-0.4
			c0.7-0.1,1.3,0,2-0.1c2.3-0.2,4-2,4.2-4.3c0.2-2,0.2-4.1-1.8-5.3c-2.1-1.3-3.8,0-5.5,1.1c-0.8,0.6-1.5,1.3-2.3,2
			c-0.4,0.2-0.8,0.4-1.3,0.5c0-0.4-0.2-1.1,0-1.3c2.4-2.6,4.8-5.4,8.9-4.3c3.1,0.8,4.6,5.4,3.3,8.9c-0.6,1.6-1.7,2.9-3.2,3.7
			c-0.5,0.3-1.4,0.5-0.7,1.4c0.5,0.6,1.1,0.4,1.7,0c3.2-1.9,5.2-7.6,3.7-11.1c-1.5-3.7-4.9-5-9.6-3.7c-2.7,0.8-5.4,1.6-6.7,4.6
			c-0.2,0.5-0.6,1.4-1.4,0.8c-0.3-0.2-0.3-1.3,0-1.8c0.5-1.2,1.5-2.3,1.7-3.5c0.4-1.9,0.3-3.8-2.7-3.2c-1.1,0.2-2.3,2.5-2.8,0.8
			c-0.5-1.6,1.9-2.4,3.6-2.7c1.7-0.3,2.7,1,3.8,2c0.3,0.3,0.1,1.6,1.1,0.8c0.2-0.1,0-1-0.2-1.4c-1.5-2.4-3.5-4.2-6.6-3.4
			c-3.2,0.9-4.2,3.1-3.7,6.5c0.3,2,1.2,3.9,1.4,5.9c-2.5-0.2-3.1-2.6-4.7-3.8c-2.5-1.9-4.8-1.1-6.9,0.4c-1.8,1.3-2.1,3.3-1.2,5.4
			c0.9,2.3,2.7,3.2,5.2,3c0.9-0.1,2.3-1.9,2.7,0c0.2,1-1.7,1.3-2.9,1.4c-2.4,0.5-4.8-0.6-6-2.7c-1.3-2.3-1.8-4.8-0.1-7
			c1.7-2.6,4.9-3.8,7.9-3c2.4,0.7,3.2,0.9,3.1-2c-0.1-4,2.6-5.5,6.2-5.6c3.9-0.2,6.1,2.1,7.6,5.4c0.3,0.6,0.6,1.8,1.7,1
			c0.4-0.3,0.4-1.2,0.3-1.8c-0.6-3.7-7.1-7.6-11.5-6.7c-2.3,0.5-5.7,1.5-5.6,3.5c0.3,5.2-2.9,4.4-6,4.8c-4.5,0.4-7.7,4.4-7.3,8.9
			c0.1,0.6,0.2,1.1,0.3,1.6c1.5,5.5,6.4,7.6,12.3,4.7c2.4-1.2,3.6-1,4.6,1.3c1.2,2.9,1.5,5.9-0.5,8.5c-1.5,1.9-3.5,3.5-6,2.7
			c-3.2-0.8-5.4-3.7-5.3-7.1c0-0.7,0.7-1.9-0.6-1.9c-0.9,0-1,1.2-1.1,2c-0.7,4.3,2.6,8.3,7.4,9c5.3,0.8,9.1-1.8,9.7-6.6
			c0.1-1-1.2-3.7,2-2.3c-0.2,2.3-0.2,4.7-1.5,6.7c-0.7,1.1-0.9,2,0.3,3c2.9,2.3,10.2,1.4,12.7-2.2
			C396.2,366,395.9,362.7,392.1,360.1z M394.2,285.1c2.1-1.3,4-3,5.4-5.1c0.8-1,1.8-2.1,1.1-3.6c-0.8-1.8-2.5-1.5-3.9-1.1
			c-2.9,0.7-5.4,1-7.3-2.2c-1-1.6-3.4-1.3-5-0.2c-1.6,1.1-1.6,2.9-0.8,4.5c1.4,2.9,3.2,5.4,5.5,7.6c1.8,1.6,3.4,1.9,5.1-0.1
			L394.2,285.1z M418,354.9c-6.1,0.4-12.3,1.2-18.3,2.4c-1,0.2-2.2,0.8-2.1,1.8c0.2,1.5,1.6,0.6,2.4,0.5c12.7-2.1,25.7-1.1,37.9,3
			c0.9,0.2,1.9,0.4,2.8,0.4c0.1-1.5-1.3-1.8-2.2-2.3c-5.5-2.8-11.2-5-17.7-3.9c-1.2,0.2-2.9,1-2.5-1.5c3.9-1.8,5.2-5,4.5-9
			c-0.3-2.6-2.4-4.6-5-4.9c-5.6-0.5-10.8,1.1-15.8,3.6c-0.8,0.4-1.4,1-1,1.9c0.5,1.1,1.3,0.5,2.1,0.2c3.2-1.3,6.4-2.7,10-2.4
			C419,345.3,421.2,350,418,354.9L418,354.9z M344,110.1c-2.2,0.6-3.7,2.3-5.4,3.5c-0.8,0.6-1.6,2.3-2.8,0.7
			c-1.5-1.9-2.9-0.8-4.4-0.2c-8.2,3.3-15.7,8.2-22.1,14.3c-14.3,14-20.9,31.8-25.1,50.7c-1.2,5.2-1.3,10.8-3.5,15.5
			c-4.7,10.1-8.7,20.5-11.9,31.1c-4.7,16.1,3.9,32.1,19.2,36.5c1.2,0.3,2.7,1.4,3.6-0.1c0.8-1.3-0.2-2.6-1.2-3.5
			c-2.1-2.3-3.9-4.9-6.5-6.9c-8.9-6.7-11.7-14.2-8.5-25c2.4-7.9,5.6-15.6,8.6-23.4c0.6-1.5,0.8-4.3,2.8-3.8c1.1,0.3-0.7,2.8-1.3,4.3
			c-6.5,15.5-7.2,31,0.8,46.2c1.1,1.8,2.4,3.4,3.8,5c1.4-2,0.1-4-0.1-6c-0.1-1.3-0.3-2.7-0.3-4c-0.7-24.4,3.2-48.1,10.1-71.3
			c4.8-15.9,13.1-29.8,26.5-40.2c1-0.8,2.4-2.8,3.7-1.2c1.1,1.4-1.1,2.1-2,2.8c-10.9,8.4-18.1,19.3-23.3,31.9
			c-5.9,14.3-8.4,29.4-10.6,44.6s-3.8,30.4-0.3,45.7c0.7,3.6,0.7,7.3-0.2,10.9c-0.2,1.1-1.6,2.8,0.3,3.1c1.3,0.2,1.7-1.6,1.7-3.1
			c0-0.9-0.9-2.5,0.1-2.6c1.7-0.2,1.1,1.6,1.3,2.6c1.8,6.9,3.5,13.9,8,19.8c-1.2-3.4-3.2-6.5-3.5-10.1c-0.1-0.9-0.9-2.4,0.2-2.6
			c1.2-0.3,1,1.4,1.2,2.2c1.5,6.4,4.5,11.8,9.7,15.8c0.8,0.6,2.8,0.4,2.4,1.9c-0.3,1.2-1.8,0-2.7,0.3c-0.4,0.1-0.8,0.5-0.9,0.8
			c-0.4,2.5,6.1,7.8,8.4,6.6c7.6-4,15.7-7.3,23.9-9.8c1-0.3,2.3-0.9,1.2-2c-2.4-2.3-5.2-4.5-8.6-4.5c-3.9,0.1-1.8,3.5-2.3,5.4
			c-0.4,1.3-0.9,3.9-2.4,2.1c-3-3.5-5.6-6.7-10.7-3.8c-0.4,0.2-1.3-0.3-1.8-0.6c-9.9-5.2-15.8-13.5-18.4-24.3
			c-0.1-0.6,0-1.7,0.3-1.8c1.3-0.4,1,0.9,1.2,1.5c2.2,8.3,6.4,15.3,13.4,20.5c0.9,0.7,1.7,2.1,3.4,1.4c-0.4-1.1-0.9-2.1-1.4-3.1
			c-6.3-9.4-8.4-20.5-12.4-30.9c-0.4-1-0.9-2.2,0.2-3.1c0.5,0.8,1,1.7,1.3,2.6c1.7,6.5,4.8,12.4,8,18.3c2.8,5.2,6.5,9.7,12,12.3
			c2.2,1.1,5.1,3,6.9,1.4c1.2-1.1-2-3.2-3.1-4.8c-5.1-7.4-7.4-16.3-12.9-23.5c-0.3-0.3-0.4-1.2-0.3-1.3c1-0.8,1.4,0.4,1.8,0.8
			c4.7,5.2,10,9.5,18,11.3c-11.8-8.6-17.6-20-21-32.9c-2.2-8.3-1.9-16.9-1.8-25.2c0.2-13.2,2.4-26.2,6.5-38.8
			c5.9-18.3,16.1-33.6,31-45.7c0.6-0.5,1.3-1.4,2.1-0.7c1,0.9,0.1,1.8-0.6,2.6c-5.3,6-8.7,13-10.8,20.6c-3.4,12-3.7,24.3-3.5,36.6
			c0.1,6.3,2.8,12.3,4.9,18.2c0.2,0.6,0.8,1.5,1.1,1.4c1.3-0.2,0.5-1.2,0.5-1.9c-0.2-3.8-0.5-7.6-0.7-11.5c0-0.8-0.4-2.3,0.8-2.3
			c0.8,0,0.6,1.4,0.6,2.2c-0.1,3.3,0.8,6.6,2.6,9.5c1.5,2.7,2.9,2.6,4.9,0.5c2.9-3.1,4.9-6.7,7-10.3c0.7-1.2,2.1-3.1,1-4.1
			c-1.4-1.2-2.2,1.1-3.5,1.7c-1.4,0.6-2.5,1.7-3.9,2.1c-1.3,0.4-3,1.7-4.1,0c-0.9-1.5,0.8-2.3,1.6-3.3c11.4-14.9,11.9-31.9,9.8-49.5
			c-0.2-1.7-2.6-4.3-0.8-4.7c2.5-0.7,2.2,2.9,3.2,4.6c0.2,0.5,0.3,1,0.3,1.5c1.9,15,0.7,29.6-6.2,43.3c-0.5,1-0.9,2-1.3,3.1
			c1.7,0.5,2.4-0.9,3.1-1.8c5.5-7,10-14.5,11.7-23.4c0.2-1-0.5-2.8,1.3-2.6c1.4,0.2,1.1,1.9,0.9,3c-0.3,2.8-1,5.6-2.3,8.1
			c-3.5,6.8-6.5,13.8-8.8,21.1c-2.1,6.4-6.3,11.9-11.9,15.6c-0.8,0.6-2.7,0.6-2.2,1.8c0.3,0.7,2.1-0.2,3.2-0.5
			c17.1-5.5,28.3-25.7,29.1-42.4c0.6-13.6-5.6-24.7-14.5-34.6c-1-1.1-2.1-2.1-3.1-3.3c-0.4-0.5-0.7-1.3,0.1-1.7
			c0.4-0.1,0.9-0.1,1.3,0.2c0.9,0.5,1.6,1.2,2.3,1.9c10.4,13,19.9,26.5,20.5,44.1c0.1,4.8,1.6,8.6,5.5,11.6
			c4.2,3.4,7.8,7.3,10.7,11.8c2.1,3,4.3,6,7.4,8c1,0.7,2.1,2.2,3.4,1.2c1-0.8-0.2-2.2-0.6-3.2c-4.8-13.5-12.1-25.5-20.9-36.7
			c-1.2-1.5-3.1-2.5-3.2-4.7c2.5,0.1,3.1,2.6,4.5,4c1.2,1.2,2.5,3.8,3.1,3.6c1.7-0.5,0.7-2.8,1.2-4.3c0.6-1.9,1.5-3.7,2.9-5.2
			c0.9-0.9,2.1-1.8,1.7-3.4c-1-3.9,1.2-5.9,4.4-7.3c3.5-1.5,6.9-1.5,9.8,1.1c1.1,1.2,2.7,1.9,4.3,2c8.8,0.6,12.8,6.6,10,14.9
			c-0.3,0.7-0.2,1.6,0.2,2.2c4.1,6.9,4.1,7.5-0.8,13.3c-1.1,1.3-2.1,2.1-0.3,3.6c2.7,2.3,3.9,5.7,5.4,8.8c0,3.8,0.2,8-3.2,10.6
			c-3,2.4-7.5,4.1-10.5,4.2c-5.8,0.2-4.5,3.1-4.3,6.1c0.4,10.9-0.2,21.6-5.4,31.6c-1.1,2.1-3.5,3.5-3.4,6.3c2.8-0.8,5-2.6,7.1-4.5
			c1-0.9,1.9-1.8,2.8-2.9c1.5-1.9,2.9-4,4.4-5.9c0.9,2.8-1.8,4.4-2.4,6.7c-0.2,0.8-0.1,1.7-0.3,2.5c-2.2,9.2-3.9,18.6-8.6,27
			c-0.5,0.8-1,1.6-1.6,2.4c1.1,0.3,2.3,0,3.2-0.8c9.4-8.6,17.4-17.9,17-31.8c-0.3-10.1-0.1-20.2-0.1-30.3c0.4,18.5,4.7,37-1.3,56.4
			c2.4-2.1,2.7-4,3.3-5.7c2.8-7.6,5.2-15.4,7-23.4c0.2-0.8,0.4-1.6,1.4-1.7c0.1,0.6,0.2,1.2,0.1,1.8c-1.9,8.2,0.4,16.7-2.7,25.5
			c2.2-1.4,2.1-2.9,2.5-4.1c4.3-12.4,4.4-25.2,3.2-38c-1-11-2.9-22-8.5-31.9c0.1-0.9-0.7-2.2,0.3-2.7c0.9-0.4,1.2,0.9,1.4,1.6
			c1.8,5,3.6,10,5.3,15c0.4,1.3,0.1,3.3,1.8,3.5c0.6,0.1,1.6-1.8,2.2-3c7.7-14.6,5.8-28.8-1.9-42.7c-5.3-9.6-12.6-17.9-19-26.8
			c-14.8-20.6-35-30.5-60.2-30.2c-7.6,0.1-15.3,0.3-22.1,4.6L344,110.1z M262.6,551.7L262.6,551.7c2.3,2.8,5.5,4.4,8.9,5.9
			c3.3,1.5,3.5,0.1,4.1-2.2c1.7-7,3.3-13.9,5.1-20.8c0.3-1.1,0.1-3.4,1.7-3.1c1.9,0.4,0.8,2.5,0.5,3.7c-2,8.4-4.1,16.8-6.1,25.2
			c-0.8,3.2-0.2,5.9,2.9,7.6c12.6,6.9,25.2,13.6,38.7,18.5c3,1.1,4.9,0.7,6.9-1.8c5.4-6.8,9-14.9,10.3-23.4c0.4-2.4-0.2-7.3,1.4-6.7
			c2.8,1.1,1.4,5.3,0.5,8c-4,12.5-4.6,25.4-5.2,38.4c-0.5,11.7,1.1,13.4,12.9,14.6c1.7,0.2,3.3,0.2,5,0c14.8-2.8,30,1.8,44.6-2.5
			c0.2,0,0.3,0,0.5,0c4.7,1.1,5.7-1.3,5.8-5.5c0.2-10.8-0.1-21.6,0.7-32.4c2.7-37,4.3-74.1,3.2-111.2c-0.1-2.7,0.1-5.3,0.7-7.9
			c2.6-10.7,3.8-21.7,3.6-32.7c-0.1-8.7,0.3-17.3,0.5-26c0-1-0.5-2.8,1.1-2.8s1.2,1.8,1.2,2.8c-0.1,11.3-0.4,22.6-0.5,34
			c-0.1,7.8-1.2,15.6-3.1,23.2c-0.8,3.4-1.7,6.9-1,10.4c1.4,6.6,1,13.3,0.7,19.9c-1.6,32.7-1,65.6-4.6,98.3
			c-0.8,6.9-0.1,7.3,6.7,7.6c13.2,0.7,25.1-4.6,37.2-8.5c1-0.2,1.7-1.1,1.8-2.1c0.7-3.2,1-6.4,0.9-9.7c-0.2-7.2-1.8-14.2-1.2-21.4
			c0.1-1-0.4-2.8,1.1-2.8c1.6-0.1,1.1,1.6,1.2,2.7c0.4,8.1,0.8,16.3,1.2,24.4c0,0.9-0.4,2.5,0.8,2.5c2.4-0.1,4.2-1.8,6-3.4
			c1.5-1.3,0.4-2.5-0.5-3.4c-3.2-3.1-2.5-7.4-3.5-11.2c-0.2-0.8-0.2-1.9,0.8-2.1c1.4-0.2,1.4,1.1,1.5,2c0.4,2,0.7,3.9,1,5.9
			c0.3,1.5,0.8,3.2,2.3,3.6c1.2,0.3,2.6-0.5,3.5-1.6c1.3-1.7-0.4-2.7-1.1-3.9c-4.4-7.6-9-15.2-11.1-23.9c-0.2-1-1.1-2.4,0.1-3.2
			c1.3-0.9,2.2,0.4,3,1.1c4.1,3.5,7.1,7.9,10.3,12.2c0.6,0.7,1.3,1.4,2.1,2c1-1.2,0.1-2.2-0.4-3.1c-2.6-5.8-6.8-10.8-12.2-14.2
			c-0.8-0.5-1.9-0.8-1.7-2.1c0.1-0.9,0.9-0.8,1.5-0.8c3.1,0.3,5.3-1,6.1-4c0.9-3.5-0.6-6.6-3-9.1c-1.7-1.9-3.7-2.5-5.1,0.5
			c-1.3,2.8-2.4,2.7-4,0.2c-1.4-1.8-2.5-3.9-3.1-6.1c-1.5-6.3-3.2-12.6-5.1-18.8c-2.7-9.3-5.2-18.4-2.2-28.3
			c1.4-4.5,0.3-10.6-3.4-13.4c-3.1-2.3-2.6-3.8-1.5-5.7c5.3-9.5,7.6-19.9,9.2-30.4c2.3-14.8,7.7-29.5,1.5-44.7
			c-1-2.5-1.9-4.3-4.5-5.3c-12-4.6-25.1-5.9-37.8-3.9c-1.7,0.3-5.1-0.5-4.8,2.1c0.4,3.1-2.5,6.7,1.6,9.6
			c7.2,5.1,13.2,11.7,21.3,15.7c2.3,1.1,4,3.4,5.9,5.3c1.5,1.6,2.2,3.2,0.3,5.2c-1.9,2.2-3.4,1.1-5.1-0.1
			c-8.8-6.3-17.1-13.3-24.8-20.9c-2.7-2.7-5-5.1-9.3-3.5c-1.8,0.6-3.7,0.3-5.3-0.7c-6-3.5-10.6-1.2-14.9,3.2
			c-8.3,8.4-17.2,16.3-26.5,23.5c-2.1,1.6-4.3,3.2-6.4,0.3c-2-2.7,0.9-3.8,2.2-5.2c8.2-8,18.4-13.8,25.9-22.6
			c0.9-1.1,3.4-1.7,1.7-3.9c-1.5-1.9-1.5-5.4-5.4-4.7c-10.5,1.8-21,3.5-30.6,8.6c-12.1,6.4-16.1,14.6-14.5,29.4
			c1.3,12.2,7.5,23.4,8.6,35.8c0.5,5.6,1.7,11.2,2.4,16.8c0.3,2.4,1.4,4.2,3.7,4.8c5,1.3,10-0.1,14.8-1.2c2.7-0.7,0.2-4.5,1.5-6.7
			c0.1-0.3,0.3-0.6,0.4-0.9c3.6-8.5,3.9-17.5,3-26.5c-0.5-5.6-0.7-11.3-0.4-17c0.1-1.2-0.3-3.2,1.6-3c1.5,0.1,0.6,1.9,0.7,3
			c0,2.8-0.2,5.7-0.1,8.5c0.6,12.6,2.4,25.2-2.9,37.4c-1.2,2.8-0.2,5.5,3.9,5.7c3.8,0.4,7.5,1.7,10.7,3.8c1,0.7,3.1,1.2,2.3,2.7
			c-0.9,1.9-2.3,0-3.3-0.5c-2.4-1.2-4.8-2.2-7.3-3.1c-3.5-1.2-4.5-0.5-4.6,3.4c-0.3,16.2-3.8,32-5.8,48c-0.1,0.9,0,2.4-1.3,2.2
			c-1.6-0.2-1-1.8-0.9-2.8c0.7-5.4,1.6-10.9,2.2-16.3c1.1-10.2,3.4-20.3,3.6-30.7c0.1-3.9-1.6-5.1-5.1-4.4
			c-3.8,0.7-7.5,1.5-11.4,1.2c-3.4-0.3-6.4-1.5-7.2-5c-0.9-4-2.1-2.3-3.3-0.4c-4.8,7.2-9.6,14.4-14.5,21.6
			c-4.7,7.1-9.8,13.9-16,19.8c-1.2,1.1-3.2,3.4-3.4-0.6c-0.3-5.3-3-3.7-5.6-2.1c-1.6,1.1-3.2,2.5-3.4,4.7l0.1-0.1
			c-2.9,4.6-2.3,6.4,2.8,6.8c3,0.3,1.9,2,1.2,3c-1.6,2.3-3.6,4.3-5.3,6.5c-6.3,7.9-12.3,16.1-18.9,23.6c-5.4,6.2-5.4,7.5,2.5,10.5
			C259.7,551.1,261.2,551.4,262.6,551.7L262.6,551.7z M184.1,672.1c0.3-1.1,0.2-2.6,0.9-3.2c7.4-6.4,1.8-14.4,2.8-21.5
			c0.2-1.2-0.7-2.4-1.9-2.6c-1.3-0.2-1.8,1.2-2.4,2.2c-1.5,2.7-1.3,5.8-1.5,8.7c-0.1,2.8-0.5,5.6-1.1,8.3c-1.1,4-4.8,1.6-7.2,2.5
			c-1.7,0.6-3.1,1.2-2.6,3.4c0.4,1.7-0.4,4,1.7,4.8c2,0.8,2.8-1.2,3.7-2.6c0.6-0.8,0.9-1.8,1.6-2.5c0.6-0.8,1.4-0.9,1.5,0.5
			C179.8,673.7,182.2,672.2,184.1,672.1c-0.2,2.4-1.8,2.5-3.5,1.9c-1.3-0.4-2.2-0.9-3.6,0.2c-4.9,3.9-6,3.5-7.5-2.9
			c-0.5-2.1-0.8-3.5-3.5-2.1s-6.1,2.6-8.3,0.1c-2.1-2.5-3.7-5.7-2.3-9.7c1.7-4.9,0.5-9.5-3-13.4c-1.9-1.9-3.3-4.2-4-6.8
			c-1.4-7-2.7-14-3.9-21.1c-0.6-3.6,0.7-6,4.5-7c5.3-1.4,10.5-3.2,15.7-4.9c3.5-1.2,9.1-1.1,9.8-4.2c0.6-2.3-5-4.6-8-6.6
			c-3.1-2.1-4.2-4-1.4-7.1c1.4-1.3,2-3.2,1.6-5c-0.9-3.8,0.8-6.8,3.5-9.4c2.7-2.7,5.4-5.4,8.1-8.1c2.7-2.8,6.4-4.9,5.4-9.8
			c-0.1-1.6,1-3,2.5-3.4c4.1-0.8,5.1-4.1,6.9-7.1c4.2-7.4,8.6-14.6,13-21.9c1-1.7,2.3-3.3,2.5-5.4c1.5-10.6,5.8-20.1,10.9-29.3
			c8.8-16.1,17-32.4,24.9-49c10.2-21.5,17.4-44.2,27.6-65.7c0.4-1.1,0.5-2.3,0.5-3.4c1.2-15.9,4.7-31.6,10.3-46.6
			c1.2-3.3,3.6-6.1,6.8-7.6c7.3-3.7,14.3-7.8,21.7-11.3c3-1.4,3.5-2.7,1.1-4.9c-7.4-6.7-11.7-15.2-14.7-24.6
			c-0.6-1.8-1.1-3.1-3.4-1.6c-1.4,1-3.4,2.5-4.9,1.1c-1.7-1.6,0.5-3.3,1.1-4.9c1.3-3.3,1.3-5-3-6.2c-12.3-3.5-19.5-12-22-24.6
			c-1.4-7.2,0.3-13.9,2.7-20.5c6.1-16.5,12.4-32.8,16.1-50.2c3.1-14.6,9.3-28.4,20-39.1c18.4-18.3,40.8-27.4,67.1-26.3
			c19.6,0.8,36.2,7.6,49.4,22.4c21.5,24.1,36.5,52.2,49.9,81.3c0.7,1.7,1.2,3.5,1.5,5.3c2.2,9.2,1,17.6-5.9,24.5
			c-6.7,6.7-13.6,13.2-20.6,19.4c-2.8,2.5-3.2,4.8-1.5,7.9s4.6,4.7,7.5,6.4c0.8,0.5,3.5,0.8,1.3,2.4c-2.7,2-0.1,1.8,0.7,2.1
			c5.1,2.1,10.7,2.4,16,3.8c7.3,1.9,12.5,6,14.5,13.6c1.2,4.3,2.9,8.5,4,12.9c0.9,3.5,2.7,4.5,6.3,4.6c15.4,0.3,30.5,3.7,44.6,9.8
			c3.4,1.5,4,3.1,2.4,6.5c-1.8,3.9-2.9,8.1-4.3,12.2c-0.2,0.6-0.5,1.7-0.3,1.8c6.2,3.9,1.3,7.7-0.1,11.5c-0.4,1.2-2.2,2.5-1,3.4
			c1,0.8,2.1-1.2,3.1-1.9c2-1.4,3.7-3.8,6.4-1.1c3,3,2.3,5.5-1.6,7.6c-7.6,4.2-17.9,6.5-14.8,19.1c0.2,0.7-0.3,1.6-0.4,2.4
			c-2.6,20.7-11.5,39.5-17.8,59.1c-2.7,8.3-12.7,11.9-20.7,8.2c-11.7-5.2-20.9-14.8-25.5-26.8c-1.8-4.5-3.1-9.3-4.9-13.7
			c-1.9-4.8-4.1-9.4-6.6-13.9c-1.2-2.2-1.3-5.1-3.7-6.6c-0.4,2.5-0.8,4.9-1.2,7.4c-2.5,15.8-4.3,31.7-10.5,46.6
			c-1.2,2.8-1.5,5.1-0.1,8c3.2,6.8,4.5,13.9,1.9,21.3c-0.8,2.6-0.9,5.3-0.1,7.9c2.9,11.3,5.9,22.5,9,33.7c0.6,2,1.5,3.9,4,1.4
			c1.4-1.5,3.3-1.2,5.1-0.3c5.8,3,7.7,12,3.3,16.7c-1.8,1.9-1.6,2.6,0.1,4.2c6,5.4,9.9,12.8,11,20.8c0.2,1.1,0.7,2.5-0.7,3.1
			c-1.4,0.6-2-0.7-2.7-1.6c-3.2-4.3-6.3-8.6-9.4-12.9c-0.6-0.8-1.3-2.5-2.5-1.8c-0.9,0.6-0.3,2.2,0.3,3.2c2.8,5.1,5.4,10.3,8.4,15.3
			c1.9,3.2,2.7,5.8-0.9,8.6c-1.8,1.4-3.3,4-2.1,6.6c4.1,8.6,1.8,19.5,9.9,26.5c0.3,0.4,0.6,0.8,0.6,1.3c4,14.5,10.7,28.4,10.9,43.9
			c0,1.5,0.4,3,1,4.3c2.2,4.6,1.5,7.2-3.3,9.2c-3.9,1.5-7.8,2.8-11.9,3.7c-3.3,0.9-4.3,2.7-4.3,6.1c-0.2,11.5,1.7,22.9,2.6,34.3
			c1.8,23.2,3.8,46.5,4.5,69.8c0.7,21.5,7.3,40.4,20.4,57.3c4.7,6.1,9.4,12.2,13.7,18.5c7,10.2,13,20.8,16.3,32.9
			c3.8,13.8,5.8,28,8.2,42.1c3.3,19.5,7.9,38.8,8.7,58.7c0.3,7.6-0.5,15.4,0.8,22.9c1.3,7.7,1.4,16,6.9,22c4.7,5.2,6.1,9.9,2.3,16.1
			c-2.3,3.7-1.9,7.3,1.5,10.4c4.9,4.3,6,9.5,4.5,15.8c-1.5,6.2-1.1,6.3,5.2,6.3c60.5,0,121,0,181.5,0c7.7,0,6.7,0.9,6.7-6.5
			c0-354.1,0-708.3,0-1062.4c0-7.5,0.9-6.6-6.7-6.6c-244.3,0-488.6,0-733,0c-1.3,0-2.7,0.1-4,0c-2.1-0.1-3.1,0.6-3,2.8
			c0.1,1.7,0,3.3,0,5c0,353.3,0,706.6,0,1059.9c0.1,1.2,0.1,2.3,0,3.5c-0.5,3.6,1.1,4.5,4.5,4.4c11-0.2,22-0.1,33-0.1
			c93.7,0,187.3,0,281,0.1c5,0,6.3-1.5,6-6.2c-0.6-13.5-2.4-26.9-5.3-40c-5.6-24.4-14.4-47.8-21.9-71.6
			c-10.7-34-16.8-68.4-10.9-104.2c2-11.5,1.5-23.4-1.3-34.7c-11.3-44.5-22.5-88.9-28.6-134.5c-1.6-11.5-3.9-23-5.6-34.5
			c-0.4-3-1.2-5.4-3.9-7.1c-2.2-1.4-4.3-4.4-5.9,0.7c-0.2,0.7-1.7-0.4-2.2-1.3c-1.2-2.3-3.4-3.6-5.5-5c-2.5-1.7-4.1-1.6-3.7,1.9
			c0.6,4.9-1.9,7-6.2,8c-2.6,0.6-5.1,1.7-7.7,2.2c-2.9,0.6-4.3,2-4.6,4.9c-0.9,7.5-8.4,8.6-12.7,12.8c-0.6,0.3-1.3,0.4-1.9,0.2
			C193.7,668.4,189.1,671.9,184.1,672.1L184.1,672.1z M439.3,1077.9c23.7,0,47.3,0,71,0.1c3.1,0,4.9-0.3,4.8-4.2
			c0-4.7,1.2-9.3,3.4-13.4c2.6-4.4,2.5-9.9-0.3-14.2c-2.2-3.6-3.2-7.8-3-12c1.2-19.9-3.4-38.6-10.2-57
			c-4.9-13.3-11.3-25.9-17.7-38.5c-7.5-14.8-16.2-29.2-22.8-44.4c-8.5-19.8-17.8-39.3-26.3-59.2c-11.5-27.1-21.8-54.6-32.9-81.8
			c-6.5-16-11.4-32.6-16.7-49c-3.1-9.4-6.6-18.7-8.8-28.5c-1.1-4.9-4.3-8-9.7-8.1c-8-0.2-15.9-1.2-23.7-3.1
			c-2.6-0.6-4.4-0.4-4.3,3.2c0.5,15.5-1.8,30.9-2,46.4c-0.3,20.8-3.5,41.5-4.2,62.3c-0.5,14.2,1.3,28.3,1.2,42.4
			c-0.1,7-1.2,13.9-0.8,20.9c2.1,35.4,3.9,70.8,5.9,106.2c0.8,14.6,1.4,29.3,2.6,43.9c2.1,24.2,8.3,47.8,12.2,71.8
			c0.2,1.5,0.9,2.9,2,3.9c2.2,1.9,3.6,4.5,4,7.3c0.6,4.5,3.1,5.2,7.1,5.1C393.3,1077.8,416.3,1077.9,439.3,1077.9L439.3,1077.9z
			 M465.7,694.8c-0.3-1.8-0.2-3.9-1-5.3c-0.8-1.4-1.7-4.1-4.7-2.3c-9.4,5.7-18.9,11.2-25.3,20.6c-2.9,4.1-7.1,7.1-11.9,8.5
			c-3.8,1.3-6.7,0.8-10.2-1.6c-6.4-4.5-12.4-9.6-19.9-12.2c-0.8-0.3-1.8-1.4-2.6-0.4c-0.3,0.5,0,1.7,0.3,2.4
			c1.4,2.6,4.3,5.1,4.2,7.6c-0.2,6.3,2.3,11.6,4.1,17.2c6.4,20.3,15.3,39.7,22.4,59.7c7.2,20.6,16.8,40.2,25,60.4
			c14.6,36.1,33.8,70.1,50.9,105.1c12.5,25.4,21.5,51.8,20.1,80.7c-0.1,3,0.6,6,2.1,8.6c3.5,6.1,3.9,12.2,0.3,18.5
			c-0.6,1-0.9,2.1-1.2,3.3c-0.2,0.9-1.1,2-0.3,2.8c0.9,0.8,1.8-0.3,2.7-0.7c8-3.4,15.5-2.7,22.7,2.4c1.3,0.9,2.3,3.3,4,2.2
			c1.4-0.9,1.6-3.2,1.6-5c0-0.5,0-1,0-1.5c0-1.4-0.6-3.4,1.7-3.4c2,0,1.9,2,2.1,3.4c0.3,3.3-0.4,6.7-2.1,9.6
			c-0.4,0.8-1.2,1.9,0.4,2.4c0.8,0.3,1.7,0,2-0.8c2.4-4.6,1.8-15.1-1.8-18.4c-5.1-4.7-5.9-9.6-2.4-15.5c2.4-4.1,1.8-8-1.8-11.3
			c-2.3-2-3.9-4.6-4.8-7.5c-2.3-8.7-4.3-17.4-4.2-26.5c0.2-9.8,0.1-19.6-1.6-29.4c-3.5-20.5-7.1-41-10.4-61.5
			c-3.1-19.2-8.5-37.5-20.1-53.7c-9.9-13.8-21-26.7-28-42.4c-0.2-0.5-0.9-0.8-1.4-1.2c-0.1,0.6-0.2,1.3-0.2,1.9
			c0,0.8,0.3,1.6,0.4,2.5c0.1,2.3,2.5,4.1,1.4,6.6c-2.3-1.8-2.3-4.7-3.1-7.1c-0.1-0.3-0.1-0.7-0.1-1c-2.3-14.1-3.3-28.4-4.3-42.7
			C468.9,744.8,467.5,719.8,465.7,694.8L465.7,694.8z M339,712.1c-0.4-3.2,0.5-6.4-0.9-9.5c-2.3-5.2-5.4-5.9-9.4-1.9
			c-2.7,2.7-5.4,5.4-8.4,7.8c-7.4,6-13.4,6.4-21.6,1.4c-3.7-2.2-7.1-4.9-10.7-7.4c-3-2.2-6.9-2.8-10.4-1.7
			c-5.1,1.4-8.7,4.6-11.9,8.7c-1.3,1.5-1.7,3.6-1.2,5.5c2.4,11.2,4.3,22.5,6.9,33.7c6.8,30,13.9,59.9,22.3,89.5
			c0.2,0.8,1.1,2-0.4,2.4c-2.1,0.5-2.1,0.4-2.2,2.1c-0.2,3.2-0.1,6.3-0.6,9.5c-4.4,29.2-3.2,58,4.5,86.6
			c6.6,24.6,15.4,48.5,22.7,72.9c3,10.2,5.3,20.6,7.6,31c2.3,10,0.2,20.8,5.7,30.4c1.6,2.8,2.8,4.1,6.1,4.6c4.6,0.7,8.6-2.1,13-1.9
			c3.2,0.2,5.7-0.5,5.6-4.5c0-1,0.1-2.1,1.5-2.1s2,1.1,2.1,2.3c0.1,1.2,0.1,2.3-0.2,3.5c-0.4,1.6-0.4,2.7,1.6,2.5
			c1.7-0.1,1.7-1.3,1.4-2.5c-0.9-3.3-1.4-6.9-5.1-8.7c-0.9-0.4-1.7-0.7-1.6-2.1c0.2-6.5-1.9-12.7-2.9-19.1
			c-3.1-18.9-8.2-37.5-9.3-56.6c-2.4-39.5-4.2-79.1-6.3-118.7c-0.4-8.3-1-16.6-1.7-24.9c0-0.6,0.7-3.2-1.2-1.7
			c-3,2.3-1.9,0.3-1.5-1.1c3.1-11.8,4-24,2.7-36.1c-0.9-10.1-1.2-20.3-0.8-30.4C335.3,754.4,337.8,733.2,339,712.1L339,712.1z
			 M387.9,669.9c4.9-0.6,12.2-1.8,19.5-2.2c5.4-0.3,6.3-3.3,6.6-7.7c0.9-11-2.6-21-6.1-31.1c-0.4-1.1-1.9-2.7,0.1-3.3
			c1.4-0.5,1.6,1.4,2,2.4c4.6,12.1,8.1,24.3,5.6,37.5c-0.8,4.5,0.8,5.8,5.4,4.4c5.6-1.6,11.3-2.7,17.2-3c5-0.4,9.9-1,14.7-2.7
			c5.8-2.1,6.5-3.2,4-8.7c-3.8-8.4-5.6-17.4-8.3-26.1c-0.3-1-1.2-2.5,0.4-2.9s1.6,1.5,1.9,2.4c2.2,7.1,4.2,14.4,6.5,21.5
			c1.4,4.4,4.1,8.4,3.1,13.4c-0.4,1.9,0.8,2.4,2.4,1.5c5.3-2.9,11.3-3.8,16.9-5.9c3-1.1,5.5-2.5,2.8-6.5c-0.9-1.4-1.1-3.5-1.1-5.3
			c-0.4-15.1-6.5-28.8-11-42.8c-1.9-5.9-4.4-7.9-11.5-3.8c-4.7,2.8-9.9,4.8-15.3,6c-16.7,3.1-33.5,5.5-50.1,9.1
			c-15.4,3.4-30.9-0.1-46.2,2.1c-5.9,0.9-12.9-0.5-16.4-5.5c-2.9-4.1-6.5-4.9-10.4-6.2c-19.7-6.2-37.2-16.8-55.6-25.9
			c-4.8-2.4-9.5-5-13.4-8.6c-2.3-2.1-3.5-1.9-5.4,0.5c-10.3,12.7-20.1,25.7-29.6,39c-2.1,2.9-3.8,5.1,0.9,7.3c2.4,1.1,3.4,4,4.4,6.5
			c1.4,3.4,3.9,6.3,7.1,8.1c3,1.7,6.4,2.9,9,5.1c3.9,3.4,5.1,1.9,6.5-2.2c5.1-15,10.3-29.9,18.2-43.7c0.6-1.1,1.2-3.1,2.7-2.3
			c1.7,0.9-0.1,2.3-0.6,3.3c-7.5,13.5-12.8,27.8-17.7,42.3c-0.7,2.1-1.2,3.6,1.1,5.6c9.8,8.3,21.6,12.2,33.7,15.5
			c1.8,0.5,3,0.4,3.3-2.1c1.6-15.5,4.9-30.8,9.9-45.6c0.4-1.1,0.8-2.2,1.2-3.3c0.3-0.7,1-1.2,1.5-0.9c0.4,0.2,0.6,1.2,0.5,1.7
			c-0.2,1.1-0.6,2.3-1,3.3c-4.1,11.7-6.6,23.7-8.8,35.8c-0.7,4.1,0.4,6.7,4.4,7.9c8.5,2.6,16.2,6.9,24.3,10.4
			c3.7,1.5,7.6,2.4,11.6,2.8c3.1,0.4,4.7-0.8,5-3.9c0.4-4.1,1-8.3,1.2-12.4c0.2-6.3-0.2-12.7-1.2-18.9c-0.2-1.2-1.3-3,0.6-3.3
			c1.6-0.2,1.2,2,1.7,3.1c0.2,0.5,0.2,1,0.2,1.5c1.1,8.3,1.6,16.6,0.4,24.9c-0.3,2.3-0.2,4,2.8,4c10.7-0.1,21,3.6,31.7,3.6
			c3.1,0,4.4-0.6,4.1-3.7c-0.3-3.3-0.3-6.7-0.8-9.9c-1-6.9-3.2-13.6-5.3-20.2c-0.3-0.9-1.2-2.6,0.4-3c1.5-0.4,1.5,1.4,1.9,2.4
			c3.3,10.1,6.3,20.3,6.2,31.2C377.5,669.6,378.2,670.2,387.9,669.9L387.9,669.9z M312.5,383.7c-0.2-1.6-0.4-3.1-0.6-4.6
			c-1.1-7.4-1-7.4-8-4.7c-2.6,1-5.3,2-8,2.9c-6.2,2-12.6,5.1-18.9,3.3c-6.2-1.8-6.9,1.8-8.4,5.5c-0.6,1.5-0.7,3.2-1.3,4.8
			c-10,26.1-20.7,51.9-33.7,76.7c-10.6,20.3-23.1,39.8-24.8,63.6c-0.5,4.4-2.9,8.4-6.5,10.9c-0.6,0.4-1.4,1.3-2.1,0.3
			c-0.7-0.9,0.1-1.5,0.7-2.1c2.6-2.3,4.5-5.4,5.5-8.8c0.3-0.9,1-2.4,0.2-2.8c-1-0.5-1.5,1-1.9,1.8c-4.5,7.9-9.8,15.4-13,24.1
			c-1.1,2.9-1.7,2.9-4,1.1c-1.5-1.2-1.4,0.5-1.6,1.2c-0.5,1.7,0.5,3.4-0.5,5.3c-3.6,6.7-6.8,13.5-10.1,20.4c-0.5,1-1.7,2.7,0.1,3.4
			c1.5,0.3,3,0.1,4.3-0.7c0.8-0.4,1.1-1.9,1.4-3c1.5-4.6,2.8-9.2,4.3-13.8c0.2-0.7,0.3-1.9,1.4-1.7c1.5,0.3,1,1.5,0.7,2.4
			c-1.1,3.8-2.4,7.6-3.5,11.5c-0.8,2.8-2.4,5.8,0.9,8.2c4.2,3,7.1,8.8,13.8,6.9c6.2-1.8,12.6-3.2,19-3.9c2-0.2,4.4-0.4,5,2.1
			c0.8,3.5,1.7,1.7,2.8,0.4c6.4-8.1,12.7-16.3,19.2-24.3c1.1-1.4,2-2.6,0.3-4.2c-3.9-3.8-2.6-7,1.2-9.9c1.5-1.1,2.7-2.5,4.1-3.7
			c1.5-1.3,1.6-2.3-0.1-3.5c-3.7-2.8-2.4-5.1,0.7-7.5c3.9-2.9,7.4-6.3,8.7-11.2c5.7-21.2,11.4-42.4,17.1-63.6c0.6-2.3,2-4.5,1.4-7
			c-1.5,1.7-3,3.5-4.6,5.2c-0.9,1-1.7,3.2-3.3,2c-1.3-1.1,0.6-2.3,1.3-3.2c11.1-13.8,19.7-29.2,27-45.4c3.3-7.3,6-14.9,9.7-21.9
			C310.5,392.2,311.9,388,312.5,383.7L312.5,383.7z M467.6,411.5c-0.2-2-0.4-3.9-0.6-5.9c-0.1-0.8-0.2-1.9-1.2-1.9
			c-0.6,0-1.2,1-1.6,1.6c-0.8,1.3-1.1,2.8-1.1,4.3c-0.2,3.1,2.2,5.3,2.9,7.9c3.8,14.1,13,23.3,25.8,29.2c5.9,2.7,14-0.2,16.4-6.3
			c4.8-12.6,9-25.3,13.4-38c0.5-1.4,0.1-1.8-0.4-1.5c-4.2,2.8-3.3-1.6-4.1-3c-1.5-2.7-2.2-6-3.8-8.6c-2.6-4.1-2.1-7,1.4-10.4
			c3.7-3.5,7.4-7.5,7.5-13.1c0.2-9-6.8-14.5-10.9-21.4c-2.1-3.5-5.9-2.5-9-3.3c-12.1-3.4-24.7-5-35.4-12.4c-0.7-0.5-1.6-0.5-2.3-0.2
			c-4.3,1.3-4.5,4.2-3.3,7.8c4.3,12.8,7.5,25.9,9.7,39.1c0.5,3.3,0.5,6.1-1.2,9c-2.5,4.2-3.2,9.2-2,13.9c1,4.4,2.2,8.7,1.7,13.3
			c-0.1,1.2,0.5,3.7-1.8,3.3C466.2,414.8,467.4,412.8,467.6,411.5L467.6,411.5z M397.4,194c-9.7,0-10.5,0.8-10.2,9.7
			c0.1,1.3,0.3,2.6,0.7,3.9c0.2,0.8,0.9,1.8,0.2,2.3c-1.1,0.7-1.8-0.4-2.4-1.2c-2.4-3.2-4.4-6.7-5.9-10.4c-0.3-0.6-1.5-3.1-1.9-0.7
			c-1.1,7.2-7.4,14-1.8,21.7c0.2,0.4,0.4,0.9,0.5,1.3c-0.6,0.1-1.3,0.1-1.9,0.1c-1-0.3-1.9-0.6-2.8-1.1c-6-2.4-11.6-5.9-16.5-10.2
			c-1.4-1.2-2.9-3.6-5-1.7c-1.6,1.4,0.5,2.9,1,4.4c0.1,0.2,0.2,0.3,0.3,0.4c0.3,0.7,1.3,1.4,0.4,2.1c-0.8,0.7-1.5-0.2-2.1-0.7
			c-2.7-2-4.8-4.7-6.1-7.8c-1.3-3.2-2.3-6.5-6.8-5.7c-3.4,0.6-7.3,0.5-9.6,3.5c-3.8,5.1-7.1,10.5-10.6,15.7
			c-0.8,1.2-1.2,2.8-0.4,3.7c1.2,1.2,2.4-0.4,3.3-1.1c9.4-8,20.1-7.6,31.2-5.2c0.7,0.2,3.2,6.3,2.7,6.7c-0.3,0.3-1,0.5-1.3,0.4
			c-3.8-2.2-2.9-0.2-2.3,2.3c1.4,6.3-2.3,13.3-7.4,14.7c-5.5,1.5-11.2-2.4-13.4-9.3c-0.3-0.9-0.3-2-0.6-2.9
			c-0.4-1.1,0.5-3.2-1.4-3.1c-1.5,0.1-3.8,1.5-3.5,3c1.4,6.7-1.2,3.2-3.2,1.4c-0.9-0.7-1.9-2-3-1.3c-1,0.6-0.5,2.2-0.2,3.2
			c1.9,9.3,6.1,18.1,12.1,25.5c2.7,3.2,5.7,6.1,9.6,7.8c2.1,0.9,5.5,1.3,0.3,2.9c-1.8,0.5-0.6,1.5,0.2,2c6.3,4.1,12.5,8.2,19.8,10.4
			c4,1.2,6.3,0.5,8.2-3.5c3.1-6.4,3.4-6.2-2.5-9.3c-0.7-0.3-1.7-0.7-1.4-1.6c0.3-0.7,1.2-0.1,1.8,0.1c4.7,1.9,9.1,1.3,13.4-1.2
			c0.5-0.3,1.5-0.6,1.7-0.4c0.6,0.6-0.1,1.1-0.6,1.5c-2,1.4-1.4,2.1,0.6,2.8c4.8,1.8,10.2,0.9,14.9,3.3c0.6,0.3,2.1-0.3,2.7-0.9
			c5.4-5.4,10.9-10.8,13.7-18.2c0.3-0.9,0.9-2.2,0.5-2.7c-0.7-0.9-1.8,0.2-2.6,0.5c-2,0.8-3.9,1.8-6,2.5c-0.7,0.3-2,0.3-2.3-0.1
			c-0.6-0.9,0.5-1.4,1.1-1.8c11-7.9,13.5-19.6,14.2-32.1c0.1-1.2,0.8-3.2-0.6-3.5s-1.3,1.9-2.1,2.8c-0.9,1.1-0.9,3.9-3.1,2.9
			c-1.7-0.8,0.3-2.2,0.7-3.3c0.4-1.2,0.5-2.4-1.1-2.7c-1.9-0.3-1.4,1.2-1.6,2.3c-0.6,3.3-0.3,6.7-1.6,9.8c-1.6,3.7-3.9,6.6-8.3,6.9
			c-4.5,0.3-7.7-1.8-9.8-5.6c-1.2-2.4-2-5-2.2-7.6c-0.1-0.9,0.6-2.6-1.6-2.1c-1.2,0.3-2.9,2.3-3.7-0.1c-0.5-1.6,1.4-2.5,2.4-3.5
			c3.5-3.5,7.8-5.6,12.3-7.5c1.7-0.6,3.3-1.5,4.8-2.5c2.5-1.8,2.4-1.9,3.2,0.8c0.3,1.2,1.4,1.2,2.3,1.5c1.6,0.4,3.2,0.9,4.8,1.2
			c1.5,0.3,3.6,2.5,4.5-0.3c0.8-2.3,0.3-4.5-2.7-5.5c-3.2-1.2-5.8-3.4-7.6-6.2C403.4,194.5,400.4,193.5,397.4,194L397.4,194z
			 M189.3,649.9c-0.1,1.5-0.1,3.1,0,4.6c0.1,1.1,0.2,2.7,1.3,2.8c0.9,0.1,0.9-1.6,1.2-2.5c0.9-3,2-6,2.5-9.1
			c0.9-5.3,5.6-5.2,8.3-4.2c3.3,1.2,5.1,5,9.3,6.3c2.1,0.7,3.7,2.4,6.4,1.4c2.3-0.9,4.7-1.5,7.2-2.2c2-0.5,4.2-0.9,4-3.6
			c-0.2-2.8,1.4-6.2-1.9-8.2c-4.2-2.5-6.7-6.4-8.7-10.6c-1.3-2.7-2.8-5.5-6.4-5.6c-3.4,0-3.3-1.5-1.7-3.6c2.9-4.2,5.8-8.5,8.9-12.7
			c1.8-2.1,2.1-5.1,0.8-7.5c-1.2-2.1-3.9-1-6-0.6c-22.1,4.2-43.1,12.5-64.6,18.8c-2.6,0.8-3.4,2.4-3,4.9c1,5.6,2.1,11.1,3.1,16.7
			c0.5,3,0.8,6,3.1,8.3c5.1,5.1,6.5,11,4.5,17.8c-0.8,2.8,0.7,5,2.4,6.7c1.5,1.5,3.4,0.1,5.1-0.7c1.2-0.5,2.4-1.5,3.7-1.5
			c10.8,0.2,12.4-6.6,12.3-15.3c0-3.2,1-7.6,5.1-7.1C190.2,643.6,189.1,648.1,189.3,649.9L189.3,649.9z M346.9,346
			c0.8,0,1.7,0,2.5,0c1.6-0.2,4.2,0.8,4.5-0.6c0.4-1.6-2.2-2-3.5-2.8c-11.9-7.3-24-14.4-35.2-22.8c-10.6-8.1-10.4-8.3-22.4-1.9
			c-3.9,2-6.8,4.4-8.2,8.8c-2.7,7.4-4.7,14.9-6.3,22.6c-1.5,8-3.8,15.8-3.3,24.1c0.3,4.9,2.7,5.9,6.9,5.2c8.5-1.3,16.4-4.3,24.2-7.6
			c5.6-2.3,7.3-5.7,4.7-11.3c-5.1-11.3-11.2-21.9-20.7-30.2c-0.9-0.8-3.4-1.4-2-3.2c1.1-1.3,2.3,0.6,3.3,1.3
			c7.8,5.9,12.3,14.3,17.3,22.4c1.4,2.2,2.7,6.5,4,6.5c2.6,0,2.4-4.1,4.1-6.1c0.8-0.9,1.2-3,2.8-1.8c1.3,0.9-0.2,2.1-0.8,3
			c-4.1,6.7-5.6,14.1-5.3,21.9c0,1,0.3,1.9,0.9,2.7c0.7,0.6,1.4-0.4,2-1c5-4.9,11-8.7,17.5-11.2c1-0.4,2.4-0.4,1.5-2.7
			C331.7,351.8,336.6,345.6,346.9,346z M340.9,672.9c-0.1-1.7-0.2-3.6-0.3-5.4c-0.1-1.5-0.2-3.1-2.2-3.3c-1.8-0.2-2.9,0.3-3.2,2.2
			c-0.3,2.4-2.1,2.9-4,2.8c-2.5,0-5-0.3-7.4-0.7c-11.9-2.2-21.6-10-33.2-13.3c-1.8-0.5-3.5-2-3.4,1.5c0,3.5-1.8,3.5-4.6,2.7
			c-8.7-2.3-17.3-4.8-25.3-9c-0.8-0.4-1.7-1.5-2.6-0.6c-0.4,0.4-0.2,1.6,0,2.4c1.5,9.8,3.1,19.7,4.7,29.5c0.3,2.7,1.9,5,4.2,6.4
			c5.8,3.6,12.1,4.3,18.8,5.2c16.9,2.2,33.5-0.1,50.1-2.4c4.5-0.6,8.4-2.4,7.8-8.5C339.9,679.4,340.7,676.2,340.9,672.9z
			 M415.3,339.9c6-0.1,10,2.5,8.9,7.3c-1.7,7.3,1.6,8.6,7.4,9c1.8,0.3,3.6,0.9,5.1,1.8c3,1.5,3.5,0.1,3.1-2.5
			c-1.4-7.7-2.9-15.4-8.2-21.7c-0.6-0.7-1.8-1.6-0.8-2.5c1.3-1.2,2,0.4,2.7,1.2c2.8,3.3,4.9,7.2,6,11.4c0.3,1.1,1,2.9,1.4,2.9
			c1.7-0.2,1.3-2.1,1.6-3.2c2.1-8.2,4.8-16.3,8.1-24.1c0.6-1.3,0.6-4.1,2.8-3.2c1.7,0.7-0.1,2.7-0.6,3.9c-3,6.9-5.4,14-7.2,21.2
			c-1.5,6.7-3.2,12.9-1.2,20.6c3.4,13.2,8.8,25.4,13.9,37.8c0.7,1.7,0.9,5,2.9,4.5c1.7-0.4,3-3.2,4.2-5.1c0.4-0.7-0.2-1.9-0.3-2.9
			c-0.3-3.2-0.7-6.6,1-9.3c3.9-6,2.3-12.1,1.3-18.3c-1.8-11.7-5.8-22.9-8.9-34.3c-0.7-2.7-0.7-5.3,2.1-6.3c4.4-1.6,3.9-4,2.7-7.6
			c-1-2.9-3-6.4,1-9c1.4-0.9,3.2-1.6,2.3-3.8c-0.9-2.2-2.9-1.8-4.7-1.7c-5.5,0.3-11,0.3-16.3-1.4c-3.2-1-4.6-0.7-4.3,3.1
			c0.4,4.7-2,6.7-6.7,6.4c-1.5-0.3-3,0.2-4.1,1.2c-9.3,9.3-19.2,18-29.3,26.4c-0.5,0.4-1.1,1.4-1,1.5c0.8,0.8,1.5,0,2.2-0.3
			C406.4,341.4,410.7,339.9,415.3,339.9z M321,450.1c-0.6-4.5-1.1-7.7-1.4-10.8c-1.2-12.7-6.9-24.3-8.9-36.8
			c-0.1-0.7-0.2-2.1-1.1-1.8c-0.7,0.2-1.2,1.5-1.5,2.4c-6.9,16-14.1,31.9-23.5,46.8c-0.6,1-1.1,2.1-1.4,3.2
			c-6.4,23.6-12.8,47.1-19.2,70.7c-0.2,0.7-1,1.5,0,2.1c0.2,0.1,1.1-0.6,1.5-1.1c2.9-3.7,5.6-7.4,8.6-11c1.7-2,2.4-3.2-0.1-5.6
			c-3.6-3.4-2-7.4,0.6-10.8s6.3-7.5,10.3-4.7c4.5,3.1,5.7,0.4,7.7-2c10.5-12.2,17.9-26.5,27.6-39.2
			C320.7,450.6,320.9,449.7,321,450.1z M463.8,675.8c-0.7-2.4,1.2-6.6-1.2-7.2c-3.5-0.9-6.6-5-11.1-1.7c-1.8,1.3-4.8,1-7.2,1.5
			c-7.4,1.2-14.9,1.1-22.1,3.7c-3.2,1.2-6.5,1.9-8.8-1.9c-0.6-1-1.7-0.9-2.7-0.8c-9,1.5-18.1,2.5-27.2,3c-1.2,0.1-2.6,0.4-2.1,2.1
			c2.3,7.4,2.6,15.4,7,22.2c2,3.1,4.7,4.3,8.5,3.8c5.1-0.7,10.3-0.7,15.4-1.6c15.8-2.6,32.1-3,46.2-12.4
			C462.7,683.7,465.5,681.2,463.8,675.8z M435.3,289c0.9,0.8,3.2-1.2,3.3,0.6c0.1,1.1-2.6,1.1-3.9,0.8c-5.8-1.2-11.9,0.8-17.6-1.6
			c-1.2-0.5-2.9-0.1-4.4,0.1c-0.7,0.1-1.9,0-1.8,1c0.1,0.9,1.3,0.9,2.1,1c1.7,0.3,3.8-0.5,5.1,1.2c3.4,4.5,8.3,4.3,13.1,4.4
			c1.5,0,2.9-0.6,4.1,0.8c3.8,4.4,9.2,5.7,14.6,6.7c4.8,0.8,9.6,0.9,14.4,0.2c2.5-0.3,5.7-1.1,4.3,3.8c-0.7,2.2,0.4,4.5,2.6,5.3
			c0.2,0.1,0.4,0.1,0.6,0.2c5,1.1,10,2.4,15.1,3.5c3.2,0.7,4.2-0.2,2.9-3.6c-2.4-6-4.5-12.2-6.2-18.4c-2.2-8.7-7.7-13.2-16.2-14.8
			c-8.9-1.6-17.6-3.6-25.2-8.9c-1.5-1.1-2.7-1.2-3.6,0.7c-0.4,0.9-0.8,2.4-1.7,2.1c-1.3-0.5,0.1-1.6,0.1-2.5c0-0.8,0.3-1.7-0.6-2.2
			s-2.1-0.3-2.7,0.5c-1,0.9-1.7,2.1-2.7,2.9c-1.5,1.3-2.5,2.1,0.5,2.3c0.8,0,2.4-0.6,2.3,0.8c-0.1,0.8-1.7,0.6-2.6,0.5
			c-1.5,0.1-3,0-4.5-0.2c-7.6-2.2-12.4,1.3-16.2,7.3c-0.6,1-2.5,1.9-1.3,3.1c0.9,1,2.8,0.3,3.6-0.7c4.2-4.8,10.1-4,15.5-4.9
			c0.8-0.3,1.7-0.1,2.3,0.4c-0.6,0.5-1.4,0.9-2.1,1.1c-2.3,0.3-4.6,0.5-6.9,0.6c-2.2,0.1-5,1.8-4.6,2.8c0.6,1.9,3.2,1.6,5.1,0.9
			c4.2-1.5,8.4-3.1,12.6-4.7c0.8-0.3,1.8-1.7,2.5-0.5c0.5,1-1,1.5-1.8,1.9c-0.9,0.5-1.8,0.8-2.7,1.3c-1.9,0.9-4.3,0.5-5.9,2.2
			c2.1,1.3,4.5,1.4,6.9,1.7C434.1,289,434.7,289,435.3,289z M351.8,294c-1-0.9-2.5,0.1-3.7,0.3c-13.2,2.9-24.6,10.5-37.6,14
			c-2.6,0.7-2.9,1.6-0.6,3.8c12.8,11.7,28.1,19.6,42.5,28.9c3.5,2.3,6.6,4.3,10-0.1c1.1-1.1,2.5-1.6,4.1-1.6c4.7,0,4.2-1.7,1.8-4.4
			c-5.1-5.8-7.5-13-10-20C356,308.3,347.7,303.3,351.8,294L351.8,294z M330.9,587.8c0-0.4,0-0.8,0-1.2c-0.2-1.2,0.8-2.8-0.6-3.5
			c-0.3-0.2-1.7,1.3-2.3,2.2c-2.9,4.5-6.4,5.2-11.5,3.2c-12.8-4.9-24.9-11.1-36.9-17.6c-2.9-1.6-5.7-3.2-6-7.3
			c-0.2-2.3-2.2-4-4.7-4.7c-1.6-0.3-3.2-1-4.5-2c-7.4-6.2-8.9-6.2-15.7,0.2c-0.6,0.6-1.2,1.2-1.8,1.7c-1.8,1.5-1.6,3-0.2,4.7
			c3.6,4.6,8.1,8.4,13.2,11.3c8.3,4.5,16.7,8.9,25.2,13.2c13.1,6.6,26,13.4,40.3,17.2c3.5,0.9,4.5,0.1,4.6-3.3
			C330.1,597.5,330.5,593,330.9,587.8z M406.7,299.9c-5.5,0.5-7.6,0-8-4.9c-0.4-4.1,2.2-5,4.2-6.3c3.9-2.8,6.3-6.8,9.4-10.2
			c0.3-0.3,0.6-0.8,0.6-1.3c-0.1-0.7-0.6-0.3-1.1-0.3c-4.9,0.5-9.9,0.5-12.7,6c-0.9,1.9-3.4,3.1-5.2,4.5c-1.1,1.1-2.9,1.1-4.1,0
			c-4.2-3.4-8.4-7.1-7.9-13.1c0.3-4.1-2.8-3.3-4.7-4.3c-2.3-1.2-3.6-0.2-4.7,1.8c-3.2,6-6.4,12.1-9.9,17.9c-2.1,3.6-1.3,5.4,2.5,6.5
			c10.3,3,19.6,8.1,31,8.8c10.9,0.7,22.2,3.7,33.1,6.2c2,0.4,4,0.3,5.9-0.2c1.9-0.4,4.3-0.2,4.6-2.9c0.3-2.5,0-4.8-2.2-6.8
			c-4.9-4.2-10.8-4.6-16.3-3.4C415.8,299.4,410.3,298.9,406.7,299.9z M529.4,354.7c1.6-7.4,4-14.5,7.3-21.3c0.9-1.8,1.1-3.8,1.7-5.7
			c0.6-1.7,0.2-2.7-1.7-2.4c-7.8,1.3-15.2-1.2-22.7-2.2c-15.7-2.1-31.7-2.9-46.7-8.9c-1.9-0.7-2.5-0.2-2.8,1.4
			c-0.8,4.3,4.2,12.9,8.4,14.6c9.3,3.6,18.8,6.9,28.6,8.3c7.1,1.1,12.3,3.8,15.6,10.3c0.9,1.9,2.1,5.2,4.2,4.6
			c1.3-0.3,0.6-4.3-0.1-6.5c-1.3-3.9,1.2-4.3,3.8-4.6c2.9-0.4,5.5,0.1,5.1,4C530,349.1,529.7,351.9,529.4,354.7z M403.3,601
			c0.1,1.2,0.1,2.3,0,3.5c-0.8,4.8,1.4,6.3,5.8,5.7c5.3-0.8,10.5-1.4,15.8-2.3c10.3-1.8,20.8-2.9,30.2-7.9c9.6-5.1,9.9-5.9,7-16.3
			c-0.4-1.3-0.9-2.5-1.1-3.8c-0.7-3.5-1.9-3.8-5.4-2.3c-3.2,1.5-3,5.5-5.7,6.4c-12.7,4.3-25.1,9.8-39,9.3
			C403.3,593,403.3,593.2,403.3,601z M423.3,186.7c-0.3,3.6,0.4,7.2,1.9,10.5c0.8,1.8,1.5,4.5,4.3,4c2.6-0.4,4.5-2.6,4.6-5.2
			c0.8-5.9-1.6-10.4-6-14c-1.7-1.4-1.7-1.8-0.1-3c1.3-1,2.5-2.2,3.5-3.5c2.6-3.6,2.3-7.7-1.2-8.8c-3.6-1.1-1.9-3.6-1.1-4.2
			c3.2-2.4,2.6-4.8,0.9-7.7c-1.8-2.9-4.2-5.2-7.5-5c-2.9,0.2-4.7-0.2-6.6-2.5c-2.1-2.4-5.2-2-7.9-0.8c-1.8,0.8-4,2-3.3,4.3
			c0.9,3-0.7,4.5-2.4,6.4c-4.5,5.1-2.8,10.8,3.8,12.7c2.2,0.6,1.3,1.5,1.2,2.8c-0.8,5.7,3.1,9.1,8.7,8c1.6-0.3,3.4-3.4,5.2,0.5
			C422.1,183.2,424.6,184.3,423.3,186.7L423.3,186.7z M470.9,219.7c0-0.5,0-1-0.1-1.5c-2.2-12.9-7.8-24.3-14.5-35.3
			c-0.3-0.5-1-1.3-1.3-1.2c-1.1,0.3-0.7,1.4-0.6,2.1c0.6,9.7-2.2,19.4-7.9,27.2c-1,1.3-1.4,3-1.1,4.7c1.6,11.9,1.7,23.9,0,35.8
			c-0.1,0.8-0.2,2.1,0.2,2.3c1,0.7,1.8-0.3,2.6-1c4.6-3.9,7.9-9.2,9.4-15c3.5-14.2,4.7-28.6-1.7-42.5c-0.3-0.7-1.1-1.4-0.1-2.1
			c0.2-0.1,1.1,0.7,1.4,1.2c1.6,2.4,2.6,5,3.1,7.8c2.2,11.3,2,22.9-0.5,34.1c-0.2,0.9-1,1.9,0,2.6c0.3,0.2,1.5-0.6,2-1.2
			C466.9,233.1,470.7,227.5,470.9,219.7L470.9,219.7z M316.9,213.8c-0.1,0.7-1,1.8,0.1,2.1c0.9,0.3,1.3-0.9,1.7-1.5
			c2.4-3.6,5.2-7,7.1-10.9c5.3-10.3,11.7-20.1,11.3-32.5c-0.3-11,1.7-22,5.9-32.2c0.3-0.8,1.5-2,0.5-2.6c-0.9-0.5-1.6,0.8-2.2,1.6
			c-8.6,10.6-15.1,22.9-19,36C318.2,186.8,317.3,200.2,316.9,213.8L316.9,213.8z M428.7,314.8c-0.3-1.3-1.2-1.3-2-1.4
			c-9.8-1-19.5-2-29.3-3c-1.4-0.1-2.9-0.2-3.3,1.4c-2.5,8.6-10.9,16.3-3.3,26.4c2.8,3.7,5.9,5.1,9.5,2.2
			c9.2-7.5,17.9-15.4,26.5-23.5C427.5,316.1,428.2,315.3,428.7,314.8z M352.8,298.3c-1.3,1.1-0.7,2.2-0.2,3.1c2.4,4.5,5,9,7.4,13.6
			c2.8,5.4,4.2,11.5,7.8,16.6c1.9,2.6,3.3,3.8,6.1,1.4c2.1-1.7,4.8-2.7,7.5-1.6c3.5,1.4,4.4-0.6,5.1-3.3c1.4-5.3,2.8-10.6,5.3-15.5
			c0.4-0.8,1.6-1.8,0.5-2.6c-0.8-0.6-1.9,0.3-2.6,0.9c-6,5.5-11.9,4.7-18.6,1c-6.2-3.4-12.4-6.3-16.9-12
			C353.8,299.4,353.3,298.9,352.8,298.3z M379.6,183.3c0.8,1.3,1,2.8,0.5,4.2c-2.1,5.8,1.4,10.3,3.5,15c0.2,0.6,0.8,1.3,1.3,1.4
			c0.9,0,0.8-0.9,0.8-1.5c1.3-14.4,1-28.8-0.9-43.2c-0.1-0.7-0.8-2-1-2c-1.1,0.2-0.5,1.3-0.5,1.9c-1.2,19.4-8.7,35.3-26,45.4
			c-2.3,1.4-2.3,2.4-0.4,4c4,3.5,8.5,6.4,13.4,8.6c0.7,0.3,1.6,1,2.2,0.2s-0.1-1.6-0.6-2.2c-1.8-2.6-3.7-5.1-5.4-7.8
			c-0.6-1-2.7-2-1.6-2.9c1-0.9,2,1.2,2.9,2c0.5,0.4,0.8,1.1,1.3,1.5c0.9,0.9,1.3,2.8,2.8,2.4c1.5-0.3,1.2-2.2,1.6-3.4
			C375.6,199.2,377.5,191.4,379.6,183.3L379.6,183.3z M286.4,695.3c-1.2,0.2-2.7-0.7-3.2,0.7c-0.4,1,0.9,1.6,1.7,2.2
			c5.4,3.8,10.8,7.8,16.4,11.3c5.7,3.5,11.4,2.8,16.7-1.2c4.4-3.3,8.4-7.1,11.9-11.4c0.8-1,2.6-2,2.1-3.1c-0.7-1.5-2.7-0.6-4-0.4
			C314,695,300.2,697.4,286.4,695.3z M419.4,715.7c0.6-0.2,1.2-0.4,1.8-0.6c7.1-1.5,11.1-6.8,15.2-12.1c2-2.6,4.4-4.8,6.7-7.2
			c-3.5-0.7-6.6,0.9-9.9,1.5c-10.4,2-20.9,3.4-31.5,4.3c-1,0.1-2.6-0.1-2.9,1.2c-0.1,0.5,1.2,1.4,2,1.9c5.1,3.4,10.2,6.8,15.3,10.3
			C417,715.7,418.2,716,419.4,715.7z M205.4,652.8c0.6-2.2,0-4.2-0.6-6c-0.6-1.9-0.9-5.5-4.3-2.1c-0.3,0.3-1,0.5-1.2,0.3
			c-3.1-3.3-2.8,0.2-3.5,1.7c-2.7,6.4-2.9,13.6-7,19.5c-0.6,0.9-1.8,1.9-0.7,3c1.2,1.3,2.5,0.3,3.6-0.4c1.3-0.8,2.3-1.9,3.6-2.6
			c0.7-0.4,1.4-1.3,2.6-0.3c2.9,2.5,3.8,2.2,6.1-1c0.8-1.1,0.7-3.8,2.4-3.3c5.5,1.5,4.9-3,5.4-5.5c0.6-2.5,1.2-6.9-1.7-7.4
			c-2.7-0.4-2.8,3.7-3,6.3c0,0.2,0,0.3,0,0.5c-0.2,0.4-0.4,1.2-0.6,1.2c-0.9,0.2-0.9-0.6-0.9-1.3
			C205.5,654.6,205.4,653.6,205.4,652.8z M355.8,287.5c-1-2.5-0.6-5.8-3.2-7.1c-9-4.7-17-11.1-25.9-15.9c-0.6-0.3-1.4-1.3-2.1-0.4
			c-0.3,0.3,0,1.3,0.2,1.8c4.4,7.9,7.6,16.8,17,20.5c2.1,0.8,4.2,4.1,5.6,2.7c1.3-1.3-1.2-4-2.6-5.9c-0.3-0.5-0.8-1.5-0.6-1.6
			c0.9-0.8,1.4,0.2,2,0.7c2.6,2,5.2,4.1,7.8,6.2c0.5,0.4,1,1,1.6,0.4C355.9,288.6,355.7,287.9,355.8,287.5z M360.5,282.5
			c-3.9-0.4-4.1-0.3-3.7,2.5c0.4,3.3,1.7,6.9-0.6,9.6c-2.3,2.7-0.9,4,0.6,5.8c4.9,5.5,11.8,7.9,18,11.3c4.8,2.6,8.3,1.8,12.1-1.2
			c0.8-0.6,1.4-1.3,2.2-1.9c-0.8-0.5-1.7-1-2.5-1.4c-7-2.5-14.5-3.4-21.4-6.4c-7.4-3.3-8-3.7-4.2-11.2c0.3-0.6,0.6-1.2,0.9-1.8
			C364.5,284.2,363.1,282.6,360.5,282.5L360.5,282.5z M530.7,323.2c0.7,0,1.3,0,2,0c1.4-0.2,3.7,0.5,3.9-1c0.2-1.4-2.2-1.6-3.5-2.1
			c-11.8-4.6-24.3-7.2-37-7.7c-1.5-0.1-4.1-1.2-4.5,1.2c-0.3,2.1,1.6,3.5,3.6,4.2c0.9,0.4,1.9,0.7,2.8,0.9
			C508.9,320.7,519.9,320.9,530.7,323.2z M350.9,360.3c-2.2,0-4.3,0-6.5,0c-2.9,0.1-5.3-0.3-5.7-4c-0.4-3.9,2.2-4.8,5.1-5.4
			c3.7-0.8,7.6-1.1,11.4-0.8c1,0,2.6,0.4,2.5-1.4c0-1.4-1.3-1.3-2.3-1.3c-4.3,0-8.6,0-12.9-0.1c-4-0.1-4.7,3.2-5.9,5.8
			c-1.1,2.4-2,5.3,0.6,7.3c3.9,2.9,1.6,3.4-1.2,4.4c-7.3,2.5-13.8,6.7-19.2,12.2c-0.7,0.7-2,1.6-1.4,2.4c1,1.1,1.6-0.5,2.2-1
			c5.8-5.9,12.9-9.2,20.7-11.3c6.6-1.8,13.1-3.6,20-4c1-0.1,2.7,0.4,2.4-1.5c-0.2-1.4-1.5-1-2.4-1
			C355.8,360.3,353.3,360.3,350.9,360.3L350.9,360.3z M181.1,601c1.2-0.3,2.8-0.7,4.4-1.2c1.9-0.6,5-1.1,5.3-2.2
			c0.5-2-2.5-2.5-3.9-3.9c-3.2-3.2-6.1-7.1-11.8-5c-2,0.7-3.3-0.9-3.1-3.3c0-0.5,1.1-1.6-0.5-1.6c-0.7,0-5.1,7.7-4.9,8.3
			C167.2,593.7,178.9,601.1,181.1,601z M530,1077.9c3.1,0,6.3,0,9.4,0c1.4,0,3.5,0.6,4-1.1c0.6-1.9-1.5-2.7-2.7-3.7
			c-6.5-5-16-4.7-22.7,0.4c-1,0.6-1.6,1.8-1.3,2.9c0.4,1.5,1.6,1.4,2.8,1.4C523,1077.9,526.5,1077.9,530,1077.9z M261.3,692.6
			c0.7,3.8,1.6,8.3,2.4,12.9c0.4,2.3,0.9,2.9,2.7,0.7c3-3.6,7.1-6.2,11.7-7.2c1.2-0.3,3.3,0.6,3.4-0.9s-1.3-2.8-3.3-3
			c-5.1-0.6-10.1-2.3-14.5-5C261.5,688.8,261.1,689.8,261.3,692.6z M417.1,255.6c-0.4-0.8,0.2-1.9-1.1-2.1c-1.4-0.2-2.2,0.7-2.7,1.8
			c-2.8,5.8-6.9,10.6-11.3,15.2c-2.2,2.3-0.9,3.3,0.8,4.5c2.1,1.5,3.8,0.2,5.4-1C414.4,269.4,414.3,261.8,417.1,255.6z M525.2,376.9
			c-0.3-1.5,0.4-3.8-1.2-4.5c-2.1-0.8-2.1,2-3.1,3.1c-1.9,2.1-3.6,4.4-5.5,6.4c-1.3,1.1-1.6,3-0.8,4.5c1.3,2.8,2.6,5.7,3.9,8.6
			c0.3,0.5,0.7,1,1.2,1.4c0.3-0.4,0.6-0.8,0.8-1.3C522.2,389.2,524.6,383.3,525.2,376.9z M368.1,373c-0.3-0.5-0.4-1-0.8-1.2
			c-1.4-0.8-2.1,0.4-2.9,1.1c-5.5,4.5-9.9,10.2-15.9,14.2c-4.4,2.9-8.1,6.8-12.1,10.3c-0.6,0.5-1.3,1.3-0.7,2.1
			c0.6,0.8,1.5,0.5,2.3,0.1c0.7-0.4,1.4-0.8,2.1-1.3c9.2-7.3,18-15.1,26.4-23.4C366.9,374.3,367.5,373.7,368.1,373L368.1,373z
			 M425.6,396.4c-0.7-1.9-2-3.4-3.7-4.5c-9.2-5.6-17.6-12.4-25.8-19.4c-0.6-0.5-1.4-1.3-2.1-0.3c-0.6,0.9,0.4,1.5,0.9,2
			c3.2,3.1,6.4,6.3,9.8,9.2c5.6,4.7,11.4,9.1,17.1,13.7C423.3,398.4,424.6,398.8,425.6,396.4L425.6,396.4z M351.1,358.9L351.1,358.9
			c1.7,0,3.3,0.1,5,0c1.6-0.1,4.3,0.7,4.4-1c0.1-2-1.2-5-3.4-5.6c-4.9-1.3-9.9-0.7-14.7,0.7c-1.5,0.4-2.5,1.9-2.1,3.5l0,0
			c0.3,1.8,1.7,2.3,3.3,2.4C346.1,358.9,348.6,358.9,351.1,358.9z M403.3,354.9c3.7-0.4,7.1-0.7,10.5-1.3c1.7-0.3,4.4,0,4.1-3.1
			c-0.1-2.3-1.9-4.1-4.2-4.2c-4.3-0.5-8.1,1.3-11.6,3.5c-1.4,0.9-1.7,3-1.5,4.5C400.8,355.9,402.5,354.8,403.3,354.9z M418.3,191.6
			c0.5,3.7-0.2,7.1,0.8,10.3c0.5,1.7,1.3,3.3,3.4,2.6c1.7-0.6,3.1-2,2.3-3.8c-2.1-4.7-3.2-9.9-2.9-15c-0.1-1.5-1.4-2.7-2.9-2.7h-0.1
			c-1.3,0.2-0.5,2-0.5,3C418.2,188,418.3,190,418.3,191.6z M415.6,298c0.9-0.7,3.2-0.2,3.1-2c-0.1-1.4-1.9-2.2-3.6-1.8
			c-1.8,0.3-3.6,0.8-5.3,1c-0.4,0.1-0.8-0.3-1.2-0.5c0.3-0.3,0.6-0.7,1-0.8c5.6-1.2,0.7-1.7-0.2-2.4c-0.7-0.6-1.8-1.2-2.1-2
			c-1-2.2-2-0.3-2.7,0c-1,0.4-2.6,1.4-2.6,2.1c0,1.7,1.5,0.5,2.2,0.4c2.1-0.3,0.8,2.3,2.3,2.4c-0.2,1.5-1.6,1.2-2.6,1.6
			c-0.9,0.3-2.3-0.1-2.3,1.3c0.1,1.6,1.6,1.3,2.7,1.5C408,299.2,411.5,296,415.6,298z M394.3,191.9c1.6-1,4.5,1.1,5.1-1.2
			c0.5-1.6-2.1-3.1-3.5-4.5c-1.8-1.8-3.6-3.4-5.4-5.1c-0.6-0.5-1.8-1.4-1.9-0.4c-0.3,3.3-0.7,6.7,0,9.9
			C389.2,193.5,392.2,191.3,394.3,191.9z M417,191.8c-0.8-4,2.4-9.7-5.8-9.9c-3.3,0-2.4,0.8-1.7,2.4c1.2,2.8,2.4,5.5,3.7,8.2
			c1,2.2,2.1,4.5,3.1,6.7C417.8,196.9,416.5,194.3,417,191.8L417,191.8z M421.9,273.9c2.5,0.1,5,0.7,5.7-2.6
			c0.8-3.7,1.6-7.4,2.3-11.1c0-0.6-0.1-1.2-0.3-1.8c-0.5,0.3-1,0.8-1.4,1.2c-2.2,3.9-4.9,7.5-7.8,10.8c-0.7,0.8-2.2,1.6-1.8,2.7
			C419.2,274.8,420.9,273.6,421.9,273.9L421.9,273.9z M276.2,233.9c-0.4,4.4,1,8.9,4,12.2c0.8,0.8,1.7,1.5,2.6,2.2
			c0.9-1.2-0.1-2.2-0.5-3.1c-1.8-4.5-2.5-9.3-3.3-14c-0.4-2.3,0.8-4.8-0.8-7c-1.4,2.4-2.2,5.2-2.1,8
			C276.2,232.7,276.2,233.2,276.2,233.9z M340.3,239.1c4.2-0.1,5.6-3.1,7.2-5.8c0.6-1.1-0.4-1.8-1.2-2.4c-1-0.7-2-0.7-2.6,0.3
			c-2.1,3.5-4.4,3.1-6.7,0.3c-0.5-0.8-1.5-1-2.3-0.5c-0.1,0.1-0.2,0.1-0.3,0.2c-0.9,0.4-1.2,1.4-0.8,2.3c0,0.1,0.1,0.2,0.1,0.2
			C335.3,236.3,337.6,238.1,340.3,239.1L340.3,239.1z M333.9,198.7c0.5-2.8,8.3,3.1,5.8-4.6c-0.9-2.7-0.9-5.8-2.9-8.2
			c-2.2,2.1-2.6,5.2-4.1,7.8c-0.5,0.9-0.9,1.8-1.3,2.7C330.7,198,330.7,199.3,333.9,198.7L333.9,198.7z M376,361.3
			c-0.1-1.6-0.7-4.3-2.2-3.5c-2.5,1.4-7.2-0.1-7.4,4.4c-0.1,2.8,2,4.9,5.1,4.7C374.8,366.6,375.9,364.3,376,361.3L376,361.3z
			 M398,232.7c3.2-0.6,4.7-2.9,6-5.5c0.4-0.8,1.3-1.8,0.3-2.6c-0.8-0.8-2.2-0.8-3,0.1c-0.1,0.1-0.1,0.1-0.1,0.2
			c-1.8,2.9-4,2.7-6.8,1.6c-1.7-0.6-2.6,0.4-1.7,2.2C393.7,230.8,395.7,232.2,398,232.7L398,232.7z M316,275.8
			c1.6,8.4,7.4,11,13.4,13.2c1.1,0.4,2.1,3.1,3.3,0.9c0.6-1.2-0.2-3.2-2.2-3.8C324.6,284.7,320.2,281,316,275.8z M524.8,364h0.9
			c0.7-5.5,1.5-11,2.2-16.5c0.2-1.4,0.1-2.7-1.8-2.8c-1.9-0.1-2.1,1.3-2,2.7C524.3,353,524.6,358.5,524.8,364z M439,255.2
			c0-0.4-0.1-1.3-0.2-2.1c-1.3,0.2-1.2,1.4-1.5,2.2c-1,3-2.1,5.9-3,9c-0.2,0.8-1.9,2.2,0.2,2.6c1.4,0.3,3.1,0.2,3.3-1.9
			C438.1,261.9,438.5,258.7,439,255.2z M542.2,353.8c-3.2,2.9-6.8,5.8-10,9.1c-0.7,0.7,0.6,0.6,1.1,0.3c3.3-2.2,6.5-4.5,10.3-6
			c0.8-0.3,1.4-1,0.8-1.9C544,354.4,543.2,353.8,542.2,353.8z M339.2,694.8c-0.4-1.2,1-3.4-1.6-3.2c-2.1,0.3-3.7,1.9-3.9,4
			c-0.1,1.9,3,2.2,4.2,2.5C340.1,698.6,338.3,695.9,339.2,694.8z M449,271.7c-0.6-0.6-0.8-1-1.2-1.3c-1.8-1.8-3.7-3.6-5.7-5.2
			c-0.5-0.4-1.2,1.2-1.1,1.8c0.4,3.5,3.6,3.7,5.9,4.8C447.5,272,448.2,271.8,449,271.7z M177.1,572c-2.9,2-6,3.9-7.6,7.3
			c-0.2,0.5-0.2,1.5,0.1,1.8c0.6,0.4,1.1-0.2,1.5-0.7C173,577.5,175,574.8,177.1,572z M533.4,349.5c0.1,0.8-0.6,1.8,0.5,2.1
			c0.3,0.1,0.9-0.8,1.3-1.3c1-1.7,2.4-3.2,1.8-5.4c-0.1-0.5-0.6-0.9-1.1-0.8c-0.2,0-0.3,0.1-0.4,0.2
			C533.5,345.5,534.4,347.9,533.4,349.5z M410.5,309.8c-4.1-0.9-7.5-1.6-10.9-2.3c-0.7-0.1-1.8-0.6-1.9,0.6c-0.1,1,0.9,0.7,1.5,0.8
			C402.7,309.3,406.1,310.3,410.5,309.8z M415.8,251c1.6-0.2,2.1-1.5,2.7-2.6c0.4-0.7,0.7-2-0.3-2c-1.3-0.1-2.3,1.2-2.9,2.4
			C415,249.6,415.2,250.5,415.8,251z M346.9,224.7c-0.2-1-0.6-2.1-1.6-2.3c-1.2-0.2-1.5,1.1-1.9,1.9c-0.5,1.1,0.5,1.4,1.3,1.4
			C345.5,225.7,346.7,226.3,346.9,224.7L346.9,224.7z M352.9,289.7c-0.7-0.7-1.6-1.3-2.5-1.8c-1.3-0.4-1,0.8-1,1.5
			c-0.1,1.8,1.3,1.6,2.4,1.5C352.3,290.9,353.1,291,352.9,289.7L352.9,289.7z M405.1,174.3c0.7-2.2-0.2-2.7-1.5-2.9
			c-0.7-0.1-1.5,0.3-1.1,1.1c0.6,1,1.2,1.9,1.9,2.8L405.1,174.3z M390.6,220.8c0.7,0,1.3-0.5,1.3-1.2c0-0.1,0-0.3,0-0.4
			c-0.1-0.6-0.4-1.4-0.8-1.5c-1-0.4-1.5,0.4-1.6,1.2C389.2,219.7,389.7,220.5,390.6,220.8C390.5,220.7,390.5,220.7,390.6,220.8
			L390.6,220.8z"/>
		<path d="M392.1,360.1c0.5,1.1,0.8,2.2,1.1,3.3c0.3,2.7-1.6,4.4-3.6,5.4c-1.9,1-3.4-0.7-4.5-2.2c-1.1-1.4-2-3-2.9-4.5
			c0.1-0.6-0.1-1.4,0.3-1.9c0.7-0.9,1.1,0.1,1.4,0.5c0.7,1.3,1.2,2.7,2,3.9c1,1.5,2,3.4,4.2,1.7c2.1-1.7,1.9-3.6,0-5.4
			c-0.1-0.1-0.3-0.2-0.4-0.3c-0.7-0.9-3-1.1-2.3-2.3c0.8-1.4,2.3,0.4,3.5,0.6L392.1,360.1z"/>
		<path d="M262.6,551.7c5.9-8.1,9.4-17.5,14.4-26c0.9-1.6,1.5-5.1,3.4-4.1c2.1,1.1-0.4,3.4-1.2,5c-3.8,7.6-7.9,15-11.7,22.6
			C266.3,551.2,265.3,553.1,262.6,551.7C262.5,551.7,262.6,551.7,262.6,551.7z"/>
		<path d="M276,500.3c0.4-0.3,0.8-0.6,1.2-0.8c3.1-1.7,5.5-0.9,6.7,2.4c0.6,1.5,1.4,3.6-1.3,4.4c-3.5,1-5.9-0.8-6.5-4.6
			c0-0.5,0-1,0-1.5L276,500.3z"/>
		<path d="M470.4,820.8c-1.2,4.7-3.4,9.1-6.4,13c-0.4,0.5-1.2,1.2-1.5,1c-0.8-0.3-0.4-1.1,0-1.6c3.1-3.9,5.3-8.5,6.6-13.3
			c0.1-0.4,0.6-1,0.8-1C471,819.2,470.2,820.2,470.4,820.8z"/>
		<path d="M453.9,838.4c-3.1,0.2-6.2-0.6-8.9-2.3c-0.6-0.3-1.3-0.8-0.8-1.4c0.5-0.8,1.2-0.1,1.7,0.2c3,1.5,6,2.8,9.4,1.9
			c0.5-0.1,1.3-0.9,1.6,0.1c0.3,0.7-0.4,1.2-1.1,1.3C455.2,838.2,454.6,838.3,453.9,838.4z"/>
		<path d="M303.5,827.3c0.3,0.3,0.7,0.7,1,1c3.6,5.5,9.1,9.4,15.5,11c0.5,0.1,1.3,0.5,0.9,1.3c-0.1,0.2-0.9,0.3-1.3,0.2
			c-6.7-1.5-12.6-5.6-16.3-11.5C302.9,828.8,302.2,828,303.5,827.3z"/>
		<path d="M333.6,847.9c0.4,7.2-0.7,14.1-4.2,20.4c-0.3,0.6-0.8,1-1.4,1.3c-0.5,0.1-0.7-0.6-0.4-1
			C331.3,862.2,331.8,854.9,333.6,847.9z"/>
		<path d="M343.9,110.2c5.7,0.1,11.2,1.6,16.1,4.5c0.9,0.6,2.3,1,1.9,2.5c-0.3,1.2-1.6,1-2.5,1.3c-3.5,1-7,2-10.5,3.1
			c-0.8,0.3-1.7,0.6-2.1-0.4c-0.5-1.1,0.6-1.4,1.3-1.7c2.2-0.8,4.4-1.5,6.6-2.3c0.7-0.3,1.9-0.5,2-1c0.2-1-1-1-1.7-1.4
			c-2.7-1.3-5.7-1.7-8.7-2.2c-1.6-0.2-2.4-0.9-2.2-2.6L343.9,110.2z"/>
		<path d="M277.7,439.4c-0.9-16.1,7.9-27.1,19-36.8c3.6-3.2,6.3-7.3,8-11.8c0.5-1.3,1.3-3.5,2.9-2.6c1.6,0.8-0.4,2.2-0.7,3.4
			c-1.9,6.3-6.3,10.6-11,15.1c-8.4,8-15.6,16.9-15.5,29.6c-0.1,1.3-0.4,2.6-0.8,3.9c-0.2,0.7-0.5,1.8-1.6,1.4
			C276.9,441,277.2,440,277.7,439.4z"/>
		<path d="M228.6,539.2c-0.5-0.4-1.1-0.5-1.2-0.9c-0.4-0.9,0.4-1.5,0.9-2.2c5-6.4,9.5-13.3,13.4-20.4c5-8.6,9.6-17.5,15.7-25.4
			c1.3-1.7,2.9-5.5,4.5-4.3c2.2,1.8-1.4,3.7-2.5,5.4c-5.5,7.7-10.2,16-14.9,24.2c-4,7.3-8.5,14.3-13.5,20.9
			C230.2,537.4,229.4,538.2,228.6,539.2z"/>
		<path d="M306.3,377.6c0.3,0.2,0.9,0.4,0.9,0.8c0.3,1-0.6,1.4-1.3,1.8c-4.3,2.2-8.2,5-11.7,8.3c-1.6,1.6-4.5,2.5-3.2,5.9
			c0.4,1.1-0.9,1.6-1.9,1.7c-1,0.2-2-0.2-2.6-1c-0.5-0.7-0.4-1.7,0.3-2.2c5.1-6.2,11.3-11.2,18.4-14.8
			C305.6,377.8,306,377.7,306.3,377.6z"/>
		<path d="M478,378.4c0.4,0.5,0.7,1,0.9,1.6c2,8.9,4.9,17.5,8.6,25.9c0.4,0.9,1,2-0.2,2.6c-1.3,0.6-1.7-0.7-2-1.6
			c-1.7-4.5-4.3-8.6-7.7-12.1c-1.1-1.1-2.4-2.6,0.8-2.7c2.4-0.1,0.7-1.6,0.6-2.4c-0.6-3.1-1.5-6.1-2.2-9.2
			C476.6,379.7,476.3,378.6,478,378.4z"/>
		<path d="M370.6,244.7c0.6,1.1,0.2,1.8-0.8,1.9c-1.7,0.3-1.9-0.9-1.8-2.1c0-1.1,0.1-2.7,1.5-2.5
			C370.9,242.2,369.9,244.1,370.6,244.7z"/>
		<path d="M446,354.5c0-4.2,0.9-8.4,2.8-12.2c0.4-0.9,1-2,2.2-1.3c0.9,0.5,0.4,1.5,0,2.2c-3.2,6.1-3.6,13.4-0.9,19.8
			c0.3,0.7,0.7,1.8-0.3,2.2c-1.3,0.5-1.6-0.7-2-1.6C446.6,360.7,446,357.6,446,354.5z"/>
		<path d="M455.8,386.9c0.7-2.9,1.4-5.7,2.3-8.6c0.3-1,0.7-2.6,2.2-2c1.2,0.5,0.2,1.7,0,2.6c-0.6,2.7-1.2,5.5-1.9,8.2
			c-0.4,1.3,0.9,3.6-1.1,3.6C455.2,390.7,456.5,388.3,455.8,386.9z"/>
		<path d="M199.8,660.1c0.4-1.4-0.6-3.4,0.9-3.6c0.8-0.1,0.6,2.3,0.5,3.5c0,1.2,0.7,3.3-0.8,3.3C199.3,663.3,200.3,661,199.8,660.1z
			"/>
		<path d="M394.3,285c-4.6,0.5-6.3-2.9-8.1-6.1c-0.7-1.1-0.3-2.6,0.8-3.3c0.2-0.1,0.5-0.2,0.7-0.3c2.1-0.7,2.4,0.6,2.9,2.3
			c0.3,1.1,0.2,5.3,2.7,1c0.9-1.5,2.3-2.3,3.7-1.2c1.8,1.4,0.7,2.9-0.6,4.2c-1,1-2.6,1.8-2.3,3.6L394.3,285z"/>
	</g>
</g>
<g id="图层_1_x5F_复制">
	<g>
		<path d="M751.2,4.6L751.2,4.6v0.9C751.2,5.2,751.2,4.9,751.2,4.6z"/>
		<path d="M751.2,1075.2v0.4l0,0C751.2,1075.4,751.2,1075.3,751.2,1075.2z"/>
		<path fill="#F8BBAF" d="M394.3,191.9c1.6-1,4.5,1.1,5.1-1.2c0.5-1.6-2.1-3.1-3.5-4.5c-1.8-1.8-3.6-3.4-5.4-5.1
			c-0.6-0.5-1.8-1.4-1.9-0.4c-0.3,3.3-0.7,6.7,0,9.9C389.2,193.5,392.2,191.3,394.3,191.9z"/>
		<path fill="#D79E63" d="M337,231.6c-0.5-0.8-1.5-1-2.3-0.5c-0.1,0.1-0.2,0.1-0.3,0.2c-0.9,0.4-1.2,1.4-0.8,2.3
			c0,0.1,0.1,0.2,0.1,0.2c1.5,2.4,3.8,4.2,6.5,5.2l0,0c4.2-0.1,5.6-3.1,7.2-5.8c0.6-1.1-0.4-1.8-1.2-2.4c-1-0.7-2-0.7-2.6,0.3
			C341.6,234.7,339.3,234.3,337,231.6z"/>
		<path fill="#FFE9A7" d="M316.9,215.9c0.9,0.3,1.3-0.9,1.7-1.5c2.4-3.6,5.2-7,7.1-10.9c5.3-10.3,11.7-20.1,11.3-32.5
			c-0.3-11,1.7-22,5.9-32.2c0.3-0.8,1.5-2,0.5-2.6c-0.9-0.5-1.6,0.8-2.2,1.6c-8.6,10.6-15.1,22.9-19,36c-4,13.1-4.9,26.5-5.3,40.1
			l0,0C316.8,214.5,315.9,215.6,316.9,215.9z"/>
		<path fill="#F8BBAF" d="M331.5,196.3c-0.7,1.7-0.8,3,2.4,2.3l0,0c0.5-2.8,8.3,3.1,5.8-4.6c-0.9-2.7-0.9-5.8-2.9-8.2
			c-2.2,2.1-2.6,5.2-4.1,7.8C332.3,194.5,331.9,195.4,331.5,196.3z"/>
		<path fill="#FFD596" d="M357.3,204.6c-2.3,1.4-2.3,2.4-0.4,4c4,3.5,8.5,6.4,13.4,8.6c0.7,0.3,1.6,1,2.2,0.2s-0.1-1.6-0.6-2.2
			c-1.8-2.6-3.7-5.1-5.4-7.8c-0.6-1-2.7-2-1.6-2.9c1-0.9,2,1.2,2.9,2c0.5,0.4,0.8,1.1,1.3,1.5c0.9,0.9,1.3,2.8,2.8,2.4
			c1.5-0.3,1.2-2.2,1.6-3.4c2.1-7.8,4-15.6,6.1-23.8l0,0c0.8,1.3,1,2.8,0.5,4.2c-2.1,5.8,1.4,10.3,3.5,15c0.2,0.6,0.8,1.3,1.3,1.4
			c0.9,0,0.8-0.9,0.8-1.5c1.3-14.4,1-28.8-0.9-43.2c-0.1-0.7-0.8-2-1-2c-1.1,0.2-0.5,1.3-0.5,1.9
			C382.1,178.6,374.6,194.4,357.3,204.6z"/>
		<path fill="#825536" d="M346.9,224.7L346.9,224.7c-0.2-1-0.6-2.1-1.6-2.3c-1.2-0.2-1.5,1.1-1.9,1.9c-0.5,1.1,0.5,1.4,1.3,1.4
			C345.5,225.7,346.7,226.3,346.9,224.7z"/>
		<path fill="#F8BBAF" d="M339.4,268.5c-1.8,0.5-0.6,1.5,0.2,2c6.3,4.1,12.5,8.2,19.8,10.4c4,1.2,6.3,0.5,8.2-3.5
			c3.1-6.4,3.4-6.2-2.5-9.3c-0.7-0.3-1.7-0.7-1.4-1.6c0.3-0.7,1.2-0.1,1.8,0.1c4.7,1.9,9.1,1.3,13.4-1.2c0.5-0.3,1.5-0.6,1.7-0.4
			c0.6,0.6-0.1,1.1-0.6,1.5c-2,1.4-1.4,2.1,0.6,2.8c4.8,1.8,10.2,0.9,14.9,3.3c0.6,0.3,2.1-0.3,2.7-0.9c5.4-5.4,10.9-10.8,13.7-18.2
			c0.3-0.9,0.9-2.2,0.5-2.7c-0.7-0.9-1.8,0.2-2.6,0.5c-2,0.8-3.9,1.8-6,2.5c-0.7,0.3-2,0.3-2.3-0.1c-0.6-0.9,0.5-1.4,1.1-1.8
			c11-7.9,13.5-19.6,14.2-32.1c0.1-1.2,0.8-3.2-0.6-3.5s-1.3,1.9-2.1,2.8c-0.9,1.1-0.9,3.9-3.1,2.9c-1.7-0.8,0.3-2.2,0.7-3.3
			c0.4-1.2,0.5-2.4-1.1-2.7c-1.9-0.3-1.4,1.2-1.6,2.3c-0.6,3.3-0.3,6.7-1.6,9.8c-1.6,3.7-3.9,6.6-8.3,6.9c-4.5,0.3-7.7-1.8-9.8-5.6
			c-1.2-2.4-2-5-2.2-7.6c-0.1-0.9,0.6-2.6-1.6-2.1c-1.2,0.3-2.9,2.3-3.7-0.1c-0.5-1.6,1.4-2.5,2.4-3.5c3.5-3.5,7.8-5.6,12.3-7.5
			c1.7-0.6,3.3-1.5,4.8-2.5c2.5-1.8,2.4-1.9,3.2,0.8c0.3,1.2,1.4,1.2,2.3,1.5c1.6,0.4,3.2,0.9,4.8,1.2c1.5,0.3,3.6,2.5,4.5-0.3
			c0.8-2.3,0.3-4.5-2.7-5.5c-3.2-1.2-5.8-3.4-7.6-6.2c-2.3-3.4-5.2-4.3-8.2-3.9l0,0c-9.7,0-10.5,0.8-10.2,9.7
			c0.1,1.3,0.3,2.6,0.7,3.9c0.2,0.8,0.9,1.8,0.2,2.3c-1.1,0.7-1.8-0.4-2.4-1.2c-2.4-3.2-4.4-6.7-5.9-10.4c-0.3-0.6-1.5-3.1-1.9-0.7
			c-1.1,7.2-7.4,14-1.8,21.7c0.2,0.4,0.4,0.9,0.5,1.3c-0.6,0.1-1.3,0.1-1.9,0.1c-1-0.3-1.9-0.6-2.8-1.1c-6-2.4-11.6-5.9-16.5-10.2
			c-1.4-1.2-2.9-3.6-5-1.7c-1.6,1.4,0.5,2.9,1,4.4c0.1,0.2,0.2,0.3,0.3,0.4c0.3,0.7,1.3,1.4,0.4,2.1c-0.8,0.7-1.5-0.2-2.1-0.7
			c-2.7-2-4.8-4.7-6.1-7.8c-1.3-3.2-2.3-6.5-6.8-5.7c-3.4,0.6-7.3,0.5-9.6,3.5c-3.8,5.1-7.1,10.5-10.6,15.7
			c-0.8,1.2-1.2,2.8-0.4,3.7c1.2,1.2,2.4-0.4,3.3-1.1c9.4-8,20.1-7.6,31.2-5.2c0.7,0.2,3.2,6.3,2.7,6.7c-0.3,0.3-1,0.5-1.3,0.4
			c-3.8-2.2-2.9-0.2-2.3,2.3c1.4,6.3-2.3,13.3-7.4,14.7c-5.5,1.5-11.2-2.4-13.4-9.3c-0.3-0.9-0.3-2-0.6-2.9
			c-0.4-1.1,0.5-3.2-1.4-3.1c-1.5,0.1-3.8,1.5-3.5,3c1.4,6.7-1.2,3.2-3.2,1.4c-0.9-0.7-1.9-2-3-1.3c-1,0.6-0.5,2.2-0.2,3.2
			c1.9,9.3,6.1,18.1,12.1,25.5c2.7,3.2,5.7,6.1,9.6,7.8C341.3,266.4,344.7,266.9,339.4,268.5z M368,244.5c0-1.1,0.1-2.7,1.5-2.5
			s0.4,2,1.1,2.7c0.6,1.1,0.2,1.8-0.8,1.9C368.1,246.9,367.9,245.8,368,244.5z"/>
		<path fill="#657B7F" d="M330.3,583c-0.3-0.2-1.7,1.3-2.3,2.2c-2.9,4.5-6.4,5.2-11.5,3.2c-12.8-4.9-24.9-11.1-36.9-17.6
			c-2.9-1.6-5.7-3.2-6-7.3c-0.2-2.3-2.2-4-4.7-4.7c-1.6-0.3-3.2-1-4.5-2c-7.4-6.2-8.9-6.2-15.7,0.2c-0.6,0.6-1.2,1.2-1.8,1.7
			c-1.8,1.5-1.6,3-0.2,4.7c3.6,4.6,8.1,8.4,13.2,11.3c8.3,4.5,16.7,8.9,25.2,13.2c13.1,6.6,26,13.4,40.3,17.2
			c3.5,0.9,4.5,0.1,4.6-3.3c0.1-4.5,0.6-9,1-14.2c0-0.4,0-0.8,0-1.2C330.7,585.3,331.7,583.8,330.3,583z"/>
		<path fill="#FFFFFF" d="M284.8,492.6c4.5,3.1,5.7,0.4,7.7-2c10.5-12.2,17.9-26.5,27.6-39.2c0.7-0.9,0.9-1.8,0.9-1.4
			c-0.6-4.5-1.1-7.7-1.4-10.8c-1.2-12.7-6.9-24.3-8.9-36.8c-0.1-0.7-0.2-2.1-1.1-1.8c-0.7,0.2-1.2,1.5-1.5,2.4
			c-6.9,16-14.1,31.9-23.5,46.8c-0.6,1-1.1,2.1-1.4,3.2c-6.4,23.6-12.8,47.1-19.2,70.7c-0.2,0.7-1,1.5,0,2.1
			c0.2,0.1,1.1-0.6,1.5-1.1c2.9-3.7,5.6-7.4,8.6-11c1.7-2,2.4-3.2-0.1-5.6c-3.6-3.4-2-7.4,0.6-10.8
			C277.1,493.9,280.8,489.8,284.8,492.6z"/>
		<path fill="#C38C5B" d="M336,364.8c-7.3,2.5-13.8,6.7-19.2,12.2c-0.7,0.7-2,1.6-1.4,2.4c1,1.1,1.6-0.5,2.2-1
			c5.8-5.9,12.9-9.2,20.7-11.3c6.6-1.8,13.1-3.6,20-4c1-0.1,2.7,0.4,2.4-1.5c-0.2-1.4-1.5-1-2.4-1c-2.5-0.1-5,0-7.5,0l0,0
			c-2.2,0-4.3,0-6.5,0c-2.9,0.1-5.3-0.3-5.7-4c-0.4-3.9,2.2-4.8,5.1-5.4c3.7-0.8,7.6-1.1,11.4-0.8c1,0,2.6,0.4,2.5-1.4
			c0-1.4-1.3-1.3-2.3-1.3c-4.3,0-8.6,0-12.9-0.1c-4-0.1-4.7,3.2-5.9,5.8c-1.1,2.4-2,5.3,0.6,7.3C341.1,363.3,338.8,363.8,336,364.8z
			"/>
		<path fill="#C16A71" d="M346.2,282.3c2.6,2,5.2,4.1,7.8,6.2c0.5,0.4,1,1,1.6,0.4c0.3-0.3,0.1-0.9,0.2-1.4c-1-2.5-0.6-5.8-3.2-7.1
			c-9-4.7-17-11.1-25.9-15.9c-0.6-0.3-1.4-1.3-2.1-0.4c-0.3,0.3,0,1.3,0.2,1.8c4.4,7.9,7.6,16.8,17,20.5c2.1,0.8,4.2,4.1,5.6,2.7
			c1.3-1.3-1.2-4-2.6-5.9c-0.3-0.5-0.8-1.5-0.6-1.6C345.1,280.8,345.6,281.8,346.2,282.3z"/>
		<path fill="#C16A71" d="M415.8,251c1.6-0.2,2.1-1.5,2.7-2.6c0.4-0.7,0.7-2-0.3-2c-1.3-0.1-2.3,1.2-2.9,2.4
			C415,249.6,415.2,250.5,415.8,251z"/>
		<path fill="#F8BBAF" d="M409.6,293.9c5.6-1.2,0.7-1.7-0.2-2.4c-0.7-0.6-1.8-1.2-2.1-2c-1-2.2-2-0.3-2.7,0c-1,0.4-2.6,1.4-2.6,2.1
			c0,1.7,1.5,0.5,2.2,0.4c2.1-0.3,0.8,2.3,2.3,2.4c-0.2,1.5-1.6,1.2-2.6,1.6c-0.9,0.3-2.3-0.1-2.3,1.3c0.1,1.6,1.6,1.3,2.7,1.5
			c3.8,0.5,7.2-2.7,11.4-0.7c0.9-0.7,3.2-0.2,3.1-2c-0.1-1.4-1.9-2.2-3.6-1.8c-1.8,0.3-3.6,0.8-5.3,1c-0.4,0.1-0.8-0.3-1.2-0.5
			C408.9,294.4,409.2,293.9,409.6,293.9z"/>
		<path fill="#F5DBD9" d="M403.3,354.9c3.7-0.4,7.1-0.7,10.5-1.3c1.7-0.3,4.4,0,4.1-3.1c-0.1-2.3-1.9-4.1-4.2-4.2
			c-4.3-0.5-8.1,1.3-11.6,3.5c-1.4,0.9-1.7,3-1.5,4.5C400.8,355.9,402.5,354.8,403.3,354.9z"/>
		<path fill="#C16A71" d="M413.3,255.3c-2.8,5.8-6.9,10.6-11.3,15.2c-2.2,2.3-0.9,3.3,0.8,4.5c2.1,1.5,3.8,0.2,5.4-1
			c6.2-4.6,6.1-12.2,8.9-18.4c-0.4-0.8,0.2-1.9-1.1-2.1C414.6,253.3,413.9,254.2,413.3,255.3z"/>
		<path fill="#C38C5B" d="M397.6,359.1c0.2,1.5,1.6,0.6,2.4,0.5c12.7-2.1,25.7-1.1,37.9,3c0.9,0.2,1.9,0.4,2.8,0.4
			c0.1-1.5-1.3-1.8-2.2-2.3c-5.5-2.8-11.2-5-17.7-3.9c-1.2,0.2-2.9,1-2.5-1.5c3.9-1.8,5.2-5,4.5-9c-0.3-2.6-2.4-4.6-5-4.9
			c-5.6-0.5-10.8,1.1-15.8,3.6c-0.8,0.4-1.4,1-1,1.9c0.5,1.1,1.3,0.5,2.1,0.2c3.2-1.3,6.4-2.7,10-2.4c5.8,0.5,8,5.2,4.8,10.1l0,0
			c-6.1,0.4-12.3,1.2-18.3,2.4C398.6,357.5,397.5,358.1,397.6,359.1z"/>
		<path fill="#D3C9D0" d="M412.8,277.2c-0.1-0.7-0.6-0.3-1.1-0.3c-4.9,0.5-9.9,0.5-12.7,6c-0.9,1.9-3.4,3.1-5.2,4.5
			c-1.1,1.1-2.9,1.1-4.1,0c-4.2-3.4-8.4-7.1-7.9-13.1c0.3-4.1-2.8-3.3-4.7-4.3c-2.3-1.2-3.6-0.2-4.7,1.8c-3.2,6-6.4,12.1-9.9,17.9
			c-2.1,3.6-1.3,5.4,2.5,6.5c10.3,3,19.6,8.1,31,8.8c10.9,0.7,22.2,3.7,33.1,6.2c2,0.4,4,0.3,5.9-0.2c1.9-0.4,4.3-0.2,4.6-2.9
			c0.3-2.5,0-4.8-2.2-6.8c-4.9-4.2-10.8-4.6-16.3-3.4c-5.4,1.2-10.9,0.8-14.5,1.8c-5.5,0.5-7.6,0-8-4.9c-0.4-4.1,2.2-5,4.2-6.3
			c3.9-2.8,6.3-6.8,9.4-10.2C412.6,278.1,412.8,277.7,412.8,277.2z"/>
		<path fill="#825536" d="M391,217.6c-1-0.4-1.5,0.4-1.6,1.2c-0.2,0.8,0.3,1.7,1.1,1.9l0,0c0.7,0,1.3-0.5,1.3-1.2c0-0.1,0-0.3,0-0.4
			C391.8,218.6,391.4,217.8,391,217.6z"/>
		<path fill="#B69CB2" d="M418.3,191.6c0.5,3.7-0.2,7.1,0.8,10.3c0.5,1.7,1.3,3.3,3.4,2.6c1.7-0.6,3.1-2,2.3-3.8
			c-2.1-4.7-3.2-9.9-2.9-15c-0.1-1.5-1.4-2.7-2.9-2.7h-0.1c-1.3,0.2-0.5,2-0.5,3C418.2,188,418.3,190,418.3,191.6z"/>
		<path fill="#B69CB2" d="M402.5,172.4c0.6,1,1.2,1.9,1.9,2.8l0.7-0.9c0.7-2.2-0.2-2.7-1.5-2.9C402.9,171.3,402.1,171.7,402.5,172.4
			z"/>
		<path fill="#B69CB2" d="M416.1,180.8c1.6-0.3,3.4-3.4,5.2,0.5c0.9,1.9,3.4,3,2.1,5.4l0,0c-0.3,3.6,0.4,7.2,1.9,10.5
			c0.8,1.8,1.5,4.5,4.3,4c2.6-0.4,4.5-2.6,4.6-5.2c0.8-5.9-1.6-10.4-6-14c-1.7-1.4-1.7-1.8-0.1-3c1.3-1,2.5-2.2,3.5-3.5
			c2.6-3.6,2.3-7.7-1.2-8.8c-3.6-1.1-1.9-3.6-1.1-4.2c3.2-2.4,2.6-4.8,0.9-7.7c-1.8-2.9-4.2-5.2-7.5-5c-2.9,0.2-4.7-0.2-6.6-2.5
			c-2.1-2.4-5.2-2-7.9-0.8c-1.8,0.8-4,2-3.3,4.3c0.9,3-0.7,4.5-2.4,6.4c-4.5,5.1-2.8,10.8,3.8,12.7c2.2,0.6,1.3,1.5,1.2,2.8
			C406.6,178.5,410.5,181.9,416.1,180.8z"/>
		<path fill="#FFD596" d="M413.1,192.6c1,2.2,2.1,4.5,3.1,6.7c1.6-2.4,0.3-5,0.8-7.4l0,0c-0.8-4,2.4-9.7-5.8-9.9
			c-3.3,0-2.4,0.8-1.7,2.4C410.6,187.1,411.9,189.9,413.1,192.6z"/>
		<path fill="#D79E63" d="M404,227.2c0.4-0.8,1.3-1.8,0.3-2.6c-0.8-0.8-2.2-0.8-3,0.1c-0.1,0.1-0.1,0.1-0.1,0.2
			c-1.8,2.9-4,2.7-6.8,1.6c-1.7-0.6-2.6,0.4-1.7,2.2c1,2.1,3,3.6,5.3,4C401.2,232.1,402.7,229.8,404,227.2z"/>
		<path fill="#657B7F" d="M409.1,610.2c5.3-0.8,10.5-1.4,15.8-2.3c10.3-1.8,20.8-2.9,30.2-7.9c9.6-5.1,9.9-5.9,7-16.3
			c-0.4-1.3-0.9-2.5-1.1-3.8c-0.7-3.5-1.9-3.8-5.4-2.3c-3.2,1.5-3,5.5-5.7,6.4c-12.7,4.3-25.1,9.8-39,9.3c-7.6-0.3-7.6-0.2-7.6,7.7
			c0.1,1.2,0.1,2.3,0,3.5C402.5,609.3,404.7,610.8,409.1,610.2z"/>
		<path fill="#F8BBAF" d="M191.8,668.9c1.3-0.8,2.3-1.9,3.6-2.6c0.7-0.4,1.4-1.3,2.6-0.3c2.9,2.5,3.8,2.2,6.1-1
			c0.8-1.1,0.7-3.8,2.4-3.3c5.5,1.5,4.9-3,5.4-5.5c0.6-2.5,1.2-6.9-1.7-7.4c-2.7-0.4-2.8,3.7-3,6.3c0,0.2,0,0.3,0,0.5
			c-0.2,0.4-0.4,1.2-0.6,1.2c-0.9,0.2-0.9-0.6-0.9-1.3c-0.1-1-0.2-2-0.2-2.8c0.6-2.2,0-4.2-0.6-6c-0.6-1.9-0.9-5.5-4.3-2.1
			c-0.3,0.3-1,0.5-1.2,0.3c-3.1-3.3-2.8,0.2-3.5,1.7c-2.7,6.4-2.9,13.6-7,19.5c-0.6,0.9-1.8,1.9-0.7,3
			C189.4,670.5,190.7,669.6,191.8,668.9z M200.7,656.5c0.8-0.1,0.6,2.3,0.5,3.5c0,1.2,0.7,3.3-0.8,3.3c-1.2,0-0.1-2.3-0.6-3.2
			C200.2,658.6,199.2,656.7,200.7,656.5z"/>
		<path fill="#F5DBD9" d="M442.6,414.9c2.3-14.8,7.7-29.5,1.5-44.7c-1-2.5-1.9-4.3-4.5-5.3c-12-4.6-25.1-5.9-37.8-3.9
			c-1.7,0.3-5.1-0.5-4.8,2.1c0.4,3.1-2.5,6.7,1.6,9.6c7.2,5.1,13.2,11.7,21.3,15.7c2.3,1.1,4,3.4,5.9,5.3c1.5,1.6,2.2,3.2,0.3,5.2
			c-1.9,2.2-3.4,1.1-5.1-0.1c-8.8-6.3-17.1-13.3-24.8-20.9c-2.7-2.7-5-5.1-9.3-3.5c-1.8,0.6-3.7,0.3-5.3-0.7
			c-6-3.5-10.6-1.2-14.9,3.2c-8.3,8.4-17.2,16.3-26.5,23.5c-2.1,1.6-4.3,3.2-6.4,0.3c-2-2.7,0.9-3.8,2.2-5.2
			c8.2-8,18.4-13.8,25.9-22.6c0.9-1.1,3.4-1.7,1.7-3.9c-1.5-1.9-1.5-5.4-5.4-4.7c-10.5,1.8-21,3.5-30.6,8.6
			c-12.1,6.4-16.1,14.6-14.5,29.4c1.3,12.2,7.5,23.4,8.6,35.8c0.5,5.6,1.7,11.2,2.4,16.8c0.3,2.4,1.4,4.2,3.7,4.8
			c5,1.3,10-0.1,14.8-1.2c2.7-0.7,0.2-4.5,1.5-6.7c0.1-0.3,0.3-0.6,0.4-0.9c3.6-8.5,3.9-17.5,3-26.5c-0.5-5.6-0.7-11.3-0.4-17
			c0.1-1.2-0.3-3.2,1.6-3c1.5,0.1,0.6,1.9,0.7,3c0,2.8-0.2,5.7-0.1,8.5c0.6,12.6,2.4,25.2-2.9,37.4c-1.2,2.8-0.2,5.5,3.9,5.7
			c3.8,0.4,7.5,1.7,10.7,3.8c1,0.7,3.1,1.2,2.3,2.7c-0.9,1.9-2.3,0-3.3-0.5c-2.4-1.2-4.8-2.2-7.3-3.1c-3.5-1.2-4.5-0.5-4.6,3.4
			c-0.3,16.2-3.8,32-5.8,48c-0.1,0.9,0,2.4-1.3,2.2c-1.6-0.2-1-1.8-0.9-2.8c0.7-5.4,1.6-10.9,2.2-16.3c1.1-10.2,3.4-20.3,3.6-30.7
			c0.1-3.9-1.6-5.1-5.1-4.4c-3.8,0.7-7.5,1.5-11.4,1.2c-3.4-0.3-6.4-1.5-7.2-5c-0.9-4-2.1-2.3-3.3-0.4c-4.8,7.2-9.6,14.4-14.5,21.6
			c-4.7,7.1-9.8,13.9-16,19.8c-1.2,1.1-3.2,3.4-3.4-0.6c-0.3-5.3-3-3.7-5.6-2.1c-1.6,1.1-3.2,2.5-3.4,4.7l0.1-0.1c0,0,0,0,0,0.1
			c0.4-0.3,0.7-0.5,1.1-0.7c3.1-1.7,5.5-0.9,6.7,2.4c0.6,1.5,1.4,3.6-1.3,4.4c-3.5,1-5.9-0.8-6.5-4.6c0-0.5,0-0.9,0-1.4
			c0,0,0,0-0.1,0c-2.9,4.5-2.2,6.3,2.9,6.7c3,0.3,1.9,2,1.2,3c-1.6,2.3-3.6,4.3-5.3,6.5c-6.3,7.9-12.3,16.1-18.9,23.6
			c-5.4,6.2-5.4,7.5,2.5,10.5c1.4,0.4,2.8,0.8,4.2,1.1l0,0l0,0c0,0,0,0,0.1,0c5.9-8.1,9.4-17.5,14.4-26c0.9-1.6,1.5-5.1,3.4-4.1
			c2.1,1.1-0.4,3.4-1.2,5c-3.8,7.6-7.9,15-11.7,22.6c-1.1,2.1-2,3.9-4.8,2.6l0,0l0,0l0,0l0,0c2.4,2.8,5.5,4.4,8.9,5.9
			c3.3,1.5,3.5,0.1,4.1-2.2c1.7-7,3.3-13.9,5.1-20.8c0.3-1.1,0.1-3.4,1.7-3.1c1.9,0.4,0.8,2.5,0.5,3.7c-2,8.4-4.1,16.8-6.1,25.2
			c-0.8,3.2-0.2,5.9,2.9,7.6c12.6,6.9,25.2,13.6,38.7,18.5c3,1.1,4.9,0.7,6.9-1.8c5.4-6.8,9-14.9,10.3-23.4c0.4-2.4-0.2-7.3,1.4-6.7
			c2.8,1.1,1.4,5.3,0.5,8c-4,12.5-4.6,25.4-5.2,38.4c-0.5,11.7,1.1,13.4,12.9,14.6c1.7,0.2,3.3,0.2,5,0c14.8-2.8,30,1.8,44.6-2.5
			c0.2,0,0.3,0,0.5,0c4.7,1.1,5.7-1.3,5.8-5.5c0.2-10.8-0.1-21.6,0.7-32.4c2.7-37,4.3-74.1,3.2-111.2c-0.1-2.7,0.1-5.3,0.7-7.9
			c2.6-10.7,3.8-21.7,3.6-32.7c-0.1-8.7,0.3-17.3,0.5-26c0-1-0.5-2.8,1.1-2.8s1.2,1.8,1.2,2.8c-0.1,11.3-0.4,22.6-0.5,34
			c-0.1,7.8-1.2,15.6-3.1,23.2c-0.8,3.4-1.7,6.9-1,10.4c1.4,6.6,1,13.3,0.7,19.9c-1.6,32.7-1,65.6-4.6,98.3
			c-0.8,6.9-0.1,7.3,6.7,7.6c13.2,0.7,25.1-4.6,37.2-8.5c1-0.2,1.7-1.1,1.8-2.1c0.7-3.2,1-6.4,0.9-9.7c-0.2-7.2-1.8-14.2-1.2-21.4
			c0.1-1-0.4-2.8,1.1-2.8c1.6-0.1,1.1,1.6,1.2,2.7c0.4,8.1,0.8,16.3,1.2,24.4c0,0.9-0.4,2.5,0.8,2.5c2.4-0.1,4.2-1.8,6-3.4
			c1.5-1.3,0.4-2.5-0.5-3.4c-3.2-3.1-2.5-7.4-3.5-11.2c-0.2-0.8-0.2-1.9,0.8-2.1c1.4-0.2,1.4,1.1,1.5,2c0.4,2,0.7,3.9,1,5.9
			c0.3,1.5,0.8,3.2,2.3,3.6c1.2,0.3,2.6-0.5,3.5-1.6c1.3-1.7-0.4-2.7-1.1-3.9c-4.4-7.6-9-15.2-11.1-23.9c-0.2-1-1.1-2.4,0.1-3.2
			c1.3-0.9,2.2,0.4,3,1.1c4.1,3.5,7.1,7.9,10.3,12.2c0.6,0.7,1.3,1.4,2.1,2c1-1.2,0.1-2.2-0.4-3.1c-2.6-5.8-6.8-10.8-12.2-14.2
			c-0.8-0.5-1.9-0.8-1.7-2.1c0.1-0.9,0.9-0.8,1.5-0.8c3.1,0.3,5.3-1,6.1-4c0.9-3.5-0.6-6.6-3-9.1c-1.7-1.9-3.7-2.5-5.1,0.5
			c-1.3,2.8-2.4,2.7-4,0.2c-1.4-1.8-2.5-3.9-3.1-6.1c-1.5-6.3-3.2-12.6-5.1-18.8c-2.7-9.3-5.2-18.4-2.2-28.3
			c1.4-4.5,0.3-10.6-3.4-13.4c-3.1-2.3-2.6-3.8-1.5-5.7C438.7,435.8,441,425.3,442.6,414.9z"/>
		<path d="M746.6,1080.2h4.6v-4.6C751.2,1079.3,750.3,1080.2,746.6,1080.2z"/>
		<path fill="#FFCAE9" d="M227.6,635.3c-4.2-2.5-6.7-6.4-8.7-10.6c-1.3-2.7-2.8-5.5-6.4-5.6c-3.4,0-3.3-1.5-1.7-3.6
			c2.9-4.2,5.8-8.5,8.9-12.7c1.8-2.1,2.1-5.1,0.8-7.5c-1.2-2.1-3.9-1-6-0.6c-22.1,4.2-43.1,12.5-64.6,18.8c-2.6,0.8-3.4,2.4-3,4.9
			c1,5.6,2.1,11.1,3.1,16.7c0.5,3,0.8,6,3.1,8.3c5.1,5.1,6.5,11,4.5,17.8c-0.8,2.8,0.7,5,2.4,6.7c1.5,1.5,3.4,0.1,5.1-0.7
			c1.2-0.5,2.4-1.5,3.7-1.5c10.8,0.2,12.4-6.6,12.3-15.3c0-3.2,1-7.6,5.1-7.1c4.1,0.4,3,4.8,3.2,6.7l0,0c-0.1,1.5-0.1,3.1,0,4.6
			c0.1,1.1,0.2,2.7,1.3,2.8c0.9,0.1,0.9-1.6,1.2-2.5c0.9-3,2-6,2.5-9.1c0.9-5.3,5.6-5.2,8.3-4.2c3.3,1.2,5.1,5,9.3,6.3
			c2.1,0.7,3.7,2.4,6.4,1.4c2.3-0.9,4.7-1.5,7.2-2.2c2-0.5,4.2-0.9,4-3.6C229.4,640.7,231,637.3,227.6,635.3z"/>
		<path fill="#F8BBAF" d="M187.8,647.3c0.2-1.2-0.7-2.4-1.9-2.6c-1.3-0.2-1.8,1.2-2.4,2.2c-1.5,2.7-1.3,5.8-1.5,8.7
			c-0.1,2.8-0.5,5.6-1.1,8.3c-1.1,4-4.8,1.6-7.2,2.5c-1.7,0.6-3.1,1.2-2.6,3.4c0.4,1.7-0.4,4,1.7,4.8c2,0.8,2.8-1.2,3.7-2.6
			c0.6-0.8,0.9-1.8,1.6-2.5c0.6-0.8,1.4-0.9,1.5,0.5c0.3,3.6,2.7,2.1,4.6,2c0.3-1.1,0.2-2.6,0.8-3.2
			C192.3,662.5,186.7,654.5,187.8,647.3z"/>
		<path fill="#5A3F63" d="M247,635.8c-0.7,2.1-1.2,3.6,1.1,5.6c9.8,8.3,21.6,12.2,33.7,15.5c1.8,0.5,3,0.4,3.3-2.1
			c1.6-15.5,4.9-30.8,9.9-45.6c0.4-1.1,0.8-2.2,1.2-3.3c0.3-0.7,1-1.2,1.5-0.9c0.4,0.2,0.6,1.2,0.5,1.7c-0.2,1.1-0.6,2.3-1,3.3
			c-4.1,11.7-6.6,23.7-8.8,35.8c-0.7,4.1,0.4,6.7,4.4,7.9c8.5,2.6,16.2,6.9,24.3,10.4c3.7,1.5,7.6,2.4,11.6,2.8
			c3.1,0.4,4.7-0.8,5-3.9c0.4-4.1,1-8.3,1.2-12.4c0.2-6.3-0.2-12.7-1.2-18.9c-0.2-1.2-1.3-3,0.6-3.3c1.6-0.2,1.2,2,1.7,3.1
			c0.2,0.5,0.2,1,0.2,1.5c1.1,8.3,1.6,16.6,0.4,24.9c-0.3,2.3-0.2,4,2.8,4c10.7-0.1,21,3.6,31.7,3.6c3.1,0,4.4-0.6,4.1-3.7
			c-0.3-3.3-0.3-6.7-0.8-9.9c-1-6.9-3.2-13.6-5.3-20.2c-0.3-0.9-1.2-2.6,0.4-3c1.5-0.4,1.5,1.4,1.9,2.4c3.3,10.1,6.3,20.3,6.2,31.2
			c-0.1,7.4,0.7,8,10.3,7.7l0,0c4.9-0.6,12.2-1.8,19.5-2.2c5.4-0.3,6.3-3.3,6.6-7.7c0.9-11-2.6-21-6.1-31.1
			c-0.4-1.1-1.9-2.7,0.1-3.3c1.4-0.5,1.6,1.4,2,2.4c4.6,12.1,8.1,24.3,5.6,37.5c-0.8,4.5,0.8,5.8,5.4,4.4c5.6-1.6,11.3-2.7,17.2-3
			c5-0.4,9.9-1,14.7-2.7c5.8-2.1,6.5-3.2,4-8.7c-3.8-8.4-5.6-17.4-8.3-26.1c-0.3-1-1.2-2.5,0.4-2.9s1.6,1.5,1.9,2.4
			c2.2,7.1,4.2,14.4,6.5,21.5c1.4,4.4,4.1,8.4,3.1,13.4c-0.4,1.9,0.8,2.4,2.4,1.5c5.3-2.9,11.3-3.8,16.9-5.9c3-1.1,5.5-2.5,2.8-6.5
			c-0.9-1.4-1.1-3.5-1.1-5.3c-0.4-15.1-6.5-28.8-11-42.8c-1.9-5.9-4.4-7.9-11.5-3.8c-4.7,2.8-9.9,4.8-15.3,6
			c-16.7,3.1-33.5,5.5-50.1,9.1c-15.4,3.4-30.9-0.1-46.2,2.1c-5.9,0.9-12.9-0.5-16.4-5.5c-2.9-4.1-6.5-4.9-10.4-6.2
			c-19.7-6.2-37.2-16.8-55.6-25.9c-4.8-2.4-9.5-5-13.4-8.6c-2.3-2.1-3.5-1.9-5.4,0.5c-10.3,12.7-20.1,25.7-29.6,39
			c-2.1,2.9-3.8,5.1,0.9,7.3c2.4,1.1,3.4,4,4.4,6.5c1.4,3.4,3.9,6.3,7.1,8.1c3,1.7,6.4,2.9,9,5.1c3.9,3.4,5.1,1.9,6.5-2.2
			c5.1-15,10.3-29.9,18.2-43.7c0.6-1.1,1.2-3.1,2.7-2.3c1.7,0.9-0.1,2.3-0.6,3.3C257.2,607,251.9,621.3,247,635.8z"/>
		<path d="M751.2,1075.2V5.5C751.1,362,751.1,718.6,751.2,1075.2z"/>
		<path d="M751.2,4.6V0h-4.6C750.3,0,751.2,0.8,751.2,4.6z"/>
		<path d="M746.6,0H4.6C251.9,0.1,499.3,0.1,746.6,0z"/>
		<path d="M0,1075.6c0.1-178.5,0.1-357,0.1-535.5s0-357-0.1-535.5v1075.6h4.6C0.8,1080.2,0,1079.3,0,1075.6z"/>
		<path d="M4.6,1080.2h742C499.3,1080.1,251.9,1080.1,4.6,1080.2z"/>
		<path fill="#E8D5E4" d="M357,1066.4c-0.9-0.4-1.7-0.7-1.6-2.1c0.2-6.5-1.9-12.7-2.9-19.1c-3.1-18.9-8.2-37.5-9.3-56.6
			c-2.4-39.5-4.2-79.1-6.3-118.7c-0.4-8.3-1-16.6-1.7-24.9c0-0.6,0.7-3.2-1.2-1.7c-3,2.3-1.9,0.3-1.5-1.1c3.1-11.8,4-24,2.7-36.1
			c-0.9-10.1-1.2-20.3-0.8-30.4c0.9-21.3,3.3-42.5,4.6-63.7l0,0c-0.4-3.2,0.5-6.4-0.9-9.5c-2.3-5.2-5.4-5.9-9.4-1.9
			c-2.7,2.7-5.4,5.4-8.4,7.8c-7.4,6-13.4,6.4-21.6,1.4c-3.7-2.2-7.1-4.9-10.7-7.4c-3-2.2-6.9-2.8-10.4-1.7
			c-5.1,1.4-8.7,4.6-11.9,8.7c-1.3,1.5-1.7,3.6-1.2,5.5c2.4,11.2,4.3,22.5,6.9,33.7c6.8,30,13.9,59.9,22.3,89.5
			c0.2,0.8,1.1,2-0.4,2.4c-2.1,0.5-2.1,0.4-2.2,2.1c-0.2,3.2-0.1,6.3-0.6,9.5c-4.4,29.2-3.2,58,4.5,86.6
			c6.6,24.6,15.4,48.5,22.7,72.9c3,10.2,5.3,20.6,7.6,31c2.3,10,0.2,20.8,5.7,30.4c1.6,2.8,2.8,4.1,6.1,4.6c4.6,0.7,8.6-2.1,13-1.9
			c3.2,0.2,5.7-0.5,5.6-4.5c0-1,0.1-2.1,1.5-2.1s2,1.1,2.1,2.3c0.1,1.2,0.1,2.3-0.2,3.5c-0.4,1.6-0.4,2.7,1.6,2.5
			c1.7-0.1,1.7-1.3,1.4-2.5C361.2,1071.7,360.7,1068.1,357,1066.4z M320.9,840.7c-0.1,0.2-0.9,0.3-1.3,0.2
			c-6.7-1.5-12.6-5.6-16.3-11.5c-0.4-0.5-1.1-1.4,0.2-2c0.3,0.3,0.7,0.7,1,1c3.6,5.5,9.1,9.4,15.5,11
			C320.5,839.5,321.3,839.9,320.9,840.7z M329.4,868.3c-0.3,0.6-0.8,1-1.4,1.3c-0.5,0.1-0.7-0.6-0.4-1c3.7-6.4,4.2-13.7,6-20.7
			C334,855.1,332.9,862,329.4,868.3z"/>
		<path fill="#F1C9E9" d="M533.3,363.2c3.3-2.2,6.5-4.5,10.3-6c0.8-0.3,1.4-1,0.8-1.9c-0.4-0.9-1.2-1.5-2.2-1.6
			c-3.2,2.9-6.8,5.8-10,9.1C531.5,363.7,532.8,363.5,533.3,363.2z"/>
		<path fill="#5A3F64" d="M498.1,318.7c10.8,2,21.8,2.2,32.6,4.5c0.7,0,1.3,0,2,0c1.4-0.2,3.7,0.5,3.9-1c0.2-1.4-2.2-1.6-3.5-2.1
			c-11.8-4.6-24.3-7.2-37-7.7c-1.5-0.1-4.1-1.2-4.5,1.2c-0.3,2.1,1.6,3.5,3.6,4.2C496.2,318.1,497.1,318.4,498.1,318.7z"/>
		<path fill="#F5DBD9" d="M175.6,582.7c-0.5,1-1.7,2.7,0.1,3.4c1.5,0.3,3,0.1,4.3-0.7c0.8-0.4,1.1-1.9,1.4-3
			c1.5-4.6,2.8-9.2,4.3-13.8c0.2-0.7,0.3-1.9,1.4-1.7c1.5,0.3,1,1.5,0.7,2.4c-1.1,3.8-2.4,7.6-3.5,11.5c-0.8,2.8-2.4,5.8,0.9,8.2
			c4.2,3,7.1,8.8,13.8,6.9c6.2-1.8,12.6-3.2,19-3.9c2-0.2,4.4-0.4,5,2.1c0.8,3.5,1.7,1.7,2.8,0.4c6.4-8.1,12.7-16.3,19.2-24.3
			c1.1-1.4,2-2.6,0.3-4.2c-3.9-3.8-2.6-7,1.2-9.9c1.5-1.1,2.7-2.5,4.1-3.7c1.5-1.3,1.6-2.3-0.1-3.5c-3.7-2.8-2.4-5.1,0.7-7.5
			c3.9-2.9,7.4-6.3,8.7-11.2c5.7-21.2,11.4-42.4,17.1-63.6c0.6-2.3,2-4.5,1.4-7c-1.5,1.7-3,3.5-4.6,5.2c-0.9,1-1.7,3.2-3.3,2
			c-1.3-1.1,0.6-2.3,1.3-3.2c11.1-13.8,19.7-29.2,27-45.4c3.3-7.3,6-14.9,9.7-21.9c2-3.9,3.4-8.1,4-12.4l0,0
			c-0.2-1.6-0.4-3.1-0.6-4.6c-1.1-7.4-1-7.4-8-4.7c-2.6,1-5.3,2-8,2.9c-6.2,2-12.6,5.1-18.9,3.3c-6.2-1.8-6.9,1.8-8.4,5.5
			c-0.6,1.5-0.7,3.2-1.3,4.8c-10,26.1-20.7,51.9-33.7,76.7c-10.6,20.3-23.1,39.8-24.8,63.6c-0.5,4.4-2.9,8.4-6.5,10.9
			c-0.6,0.4-1.4,1.3-2.1,0.3c-0.7-0.9,0.1-1.5,0.7-2.1c2.6-2.3,4.5-5.4,5.5-8.8c0.3-0.9,1-2.4,0.2-2.8c-1-0.5-1.5,1-1.9,1.8
			c-4.5,7.9-9.8,15.4-13,24.1c-1.1,2.9-1.7,2.9-4,1.1c-1.5-1.2-1.4,0.5-1.6,1.2c-0.5,1.7,0.5,3.4-0.5,5.3
			C182.1,569,178.8,575.9,175.6,582.7z M286.8,392.8c5.1-6.2,11.3-11.2,18.4-14.8c0.4-0.1,0.7-0.3,1.1-0.4c0.3,0.2,0.9,0.4,0.9,0.8
			c0.3,1-0.6,1.4-1.3,1.8c-4.3,2.2-8.2,5-11.7,8.3c-1.6,1.6-4.5,2.5-3.2,5.9c0.4,1.1-0.9,1.6-1.9,1.7c-1,0.2-2-0.2-2.6-1
			C286,394.3,286.1,393.3,286.8,392.8z M296.7,402.6c3.6-3.2,6.3-7.3,8-11.8c0.5-1.3,1.3-3.5,2.9-2.6c1.6,0.8-0.4,2.2-0.7,3.4
			c-1.9,6.3-6.3,10.6-11,15.1c-8.4,8-15.6,16.9-15.5,29.6c-0.1,1.3-0.4,2.6-0.8,3.9c-0.2,0.7-0.5,1.8-1.6,1.4
			c-1-0.4-0.8-1.3-0.2-1.9C276.8,423.3,285.6,412.3,296.7,402.6z M228.2,536.1c5-6.4,9.5-13.3,13.4-20.4c5-8.6,9.6-17.5,15.7-25.4
			c1.3-1.7,2.9-5.5,4.5-4.3c2.2,1.8-1.4,3.7-2.5,5.4c-5.5,7.7-10.2,16-14.9,24.2c-4,7.3-8.5,14.3-13.5,20.9
			c-0.7,0.9-1.5,1.7-2.4,2.7c-0.5-0.4-1.1-0.5-1.2-0.9C227,537.4,227.7,536.7,228.2,536.1z"/>
		<path d="M262.6,551.7L262.6,551.7L262.6,551.7L262.6,551.7z"/>
		<path d="M276,500.3L276,500.3L276,500.3z"/>
		<path fill="#F1C9E9" d="M536.9,344.8c-0.1-0.5-0.6-0.9-1.1-0.8c-0.2,0-0.3,0.1-0.4,0.2c-1.9,1.3-1,3.7-2,5.3
			c0.1,0.8-0.6,1.8,0.5,2.1c0.3,0.1,0.9-0.8,1.3-1.3C536.1,348.6,537.6,347,536.9,344.8z"/>
		<path fill="#5A3F64" d="M464.7,315.5c-0.8,4.3,4.2,12.9,8.4,14.6c9.3,3.6,18.8,6.9,28.6,8.3c7.1,1.1,12.3,3.8,15.6,10.3
			c0.9,1.9,2.1,5.2,4.2,4.6c1.3-0.3,0.6-4.3-0.1-6.5c-1.3-3.9,1.2-4.3,3.8-4.6c2.9-0.4,5.5,0.1,5.1,4c-0.3,2.8-0.6,5.6-0.9,8.4
			c1.6-7.4,4-14.5,7.3-21.3c0.9-1.8,1.1-3.8,1.7-5.7c0.6-1.7,0.2-2.7-1.7-2.4c-7.8,1.3-15.2-1.2-22.7-2.2
			c-15.7-2.1-31.7-2.9-46.7-8.9C465.5,313.4,465,314,464.7,315.5z"/>
		<path fill="#FFFFFF" d="M280.2,246.1c0.8,0.8,1.7,1.5,2.6,2.2c0.9-1.2-0.1-2.2-0.5-3.1c-1.8-4.5-2.5-9.3-3.3-14
			c-0.4-2.3,0.8-4.8-0.8-7c-1.4,2.4-2.2,5.2-2.1,8c0,0.5,0,1,0,1.8C275.8,238.4,277.2,242.8,280.2,246.1z"/>
		<path fill="#FFD596" d="M445.6,162.4c-5.3-9.6-12.6-17.9-19-26.8c-14.8-20.6-35-30.5-60.2-30.2c-7.6,0.1-15.2,0.3-22,4.6l0,0
			l0.1-0.1c-2.2,0.6-3.7,2.3-5.4,3.5c-0.8,0.6-1.6,2.3-2.8,0.7c-1.5-1.9-2.9-0.8-4.4-0.2c-8.2,3.3-15.7,8.2-22.1,14.3
			c-14.3,14-20.9,31.8-25.1,50.7c-1.2,5.2-1.3,10.8-3.5,15.5c-4.7,10.1-8.7,20.5-11.9,31.1c-4.7,16.1,3.9,32.1,19.2,36.5
			c1.2,0.3,2.7,1.4,3.6-0.1c0.8-1.3-0.2-2.6-1.2-3.5c-2.1-2.3-3.9-4.9-6.5-6.9c-8.9-6.7-11.7-14.2-8.5-25c2.4-7.9,5.6-15.6,8.6-23.4
			c0.6-1.5,0.8-4.3,2.8-3.8c1.1,0.3-0.7,2.8-1.3,4.3c-6.5,15.5-7.2,31,0.8,46.2c1.1,1.8,2.4,3.4,3.8,5c1.4-2,0.1-4-0.1-6
			c-0.1-1.3-0.3-2.7-0.3-4c-0.7-24.4,3.2-48.1,10.1-71.3c4.8-15.9,13.1-29.8,26.5-40.2c1-0.8,2.4-2.8,3.7-1.2c1.1,1.4-1.1,2.1-2,2.8
			c-10.9,8.4-18.1,19.3-23.3,31.9c-5.9,14.3-8.4,29.4-10.6,44.6s-3.8,30.4-0.3,45.7c0.7,3.6,0.7,7.3-0.2,10.9
			c-0.2,1.1-1.6,2.8,0.3,3.1c1.3,0.2,1.7-1.6,1.7-3.1c0-0.9-0.9-2.5,0.1-2.6c1.7-0.2,1.1,1.6,1.3,2.6c1.8,6.9,3.5,13.9,8,19.8
			c-1.2-3.4-3.2-6.5-3.5-10.1c-0.1-0.9-0.9-2.4,0.2-2.6c1.2-0.3,1,1.4,1.2,2.2c1.5,6.4,4.5,11.8,9.7,15.8c0.2,0.1,0.4,0.2,0.6,0.3
			c0.8-1.9,2.1-3.6,3.1-5.5c-8.3-5.2-13.3-12.9-15.7-22.7c-0.1-0.6,0-1.7,0.3-1.8c1.3-0.4,1,0.9,1.2,1.5c2.2,8.3,6.4,15.3,13.4,20.5
			c0.9,0.7,1.7,2.1,3.4,1.4c-0.4-1.1-0.9-2.1-1.4-3.1c-6.3-9.4-8.4-20.5-12.4-30.9c-0.4-1-0.9-2.2,0.2-3.1c0.5,0.8,1,1.7,1.3,2.6
			c1.7,6.5,4.8,12.4,8,18.3c2.8,5.2,6.5,9.7,12,12.3c2.2,1.1,5.1,3,6.9,1.4c1.2-1.1-2-3.2-3.1-4.8c-5.1-7.4-7.4-16.3-12.9-23.5
			c-0.3-0.3-0.4-1.2-0.3-1.3c1-0.8,1.4,0.4,1.8,0.8c4.7,5.2,10,9.5,18,11.3c-11.8-8.6-17.6-20-21-32.9c-2.2-8.3-1.9-16.9-1.8-25.2
			c0.2-13.2,2.4-26.2,6.5-38.8c5.9-18.3,16.1-33.6,31-45.7c0.6-0.5,1.3-1.4,2.1-0.7c1,0.9,0.1,1.8-0.6,2.6c-5.3,6-8.7,13-10.8,20.6
			c-3.4,12-3.7,24.3-3.5,36.6c0.1,6.3,2.8,12.3,4.9,18.2c0.2,0.6,0.8,1.5,1.1,1.4c1.3-0.2,0.5-1.2,0.5-1.9
			c-0.2-3.8-0.5-7.6-0.7-11.5c0-0.8-0.4-2.3,0.8-2.3c0.8,0,0.6,1.4,0.6,2.2c-0.1,3.3,0.8,6.6,2.6,9.5c1.5,2.7,2.9,2.6,4.9,0.5
			c2.9-3.1,4.9-6.7,7-10.3c0.7-1.2,2.1-3.1,1-4.1c-1.4-1.2-2.2,1.1-3.5,1.7c-1.4,0.6-2.5,1.7-3.9,2.1c-1.3,0.4-3,1.7-4.1,0
			c-0.9-1.5,0.8-2.3,1.6-3.3c11.4-14.9,11.9-31.9,9.8-49.5c-0.2-1.7-2.6-4.3-0.8-4.7c2.5-0.7,2.2,2.9,3.2,4.6c0.2,0.5,0.3,1,0.3,1.5
			c1.9,15,0.7,29.6-6.2,43.3c-0.5,1-0.9,2-1.3,3.1c1.7,0.5,2.4-0.9,3.1-1.8c5.5-7,10-14.5,11.7-23.4c0.2-1-0.5-2.8,1.3-2.6
			c1.4,0.2,1.1,1.9,0.9,3c-0.3,2.8-1,5.6-2.3,8.1c-3.5,6.8-6.5,13.8-8.8,21.1c-2.1,6.4-6.3,11.9-11.9,15.6c-0.8,0.6-2.7,0.6-2.2,1.8
			c0.3,0.7,2.1-0.2,3.2-0.5c17.1-5.5,28.3-25.7,29.1-42.4c0.6-13.6-5.6-24.7-14.5-34.6c-1-1.1-2.1-2.1-3.1-3.3
			c-0.4-0.5-0.7-1.3,0.1-1.7c0.4-0.1,0.9-0.1,1.3,0.2c0.9,0.5,1.6,1.2,2.3,1.9c10.4,13,19.9,26.5,20.5,44.1
			c0.1,4.8,1.6,8.6,5.5,11.6c4.2,3.4,7.8,7.3,10.7,11.8c2.1,3,4.3,6,7.4,8c1,0.7,2.1,2.2,3.4,1.2c1-0.8-0.2-2.2-0.6-3.2
			c-4.8-13.5-12.1-25.5-20.9-36.7c-1.2-1.5-3.1-2.5-3.2-4.7c2.5,0.1,3.1,2.6,4.5,4c1.2,1.2,2.5,3.8,3.1,3.6c1.7-0.5,0.7-2.8,1.2-4.3
			c0.6-1.9,1.5-3.7,2.9-5.2c0.9-0.9,2.1-1.8,1.7-3.4c-1-3.9,1.2-5.9,4.4-7.3c3.5-1.5,6.9-1.5,9.8,1.1c1.1,1.2,2.7,1.9,4.3,2
			c8.8,0.6,12.8,6.6,10,14.9c-0.3,0.7-0.2,1.6,0.2,2.2c4.1,6.9,4.1,7.5-0.8,13.3c-1.1,1.3-2.1,2.1-0.3,3.6c2.7,2.3,3.8,5.5,5.3,8.6
			c-0.1-0.9-0.6-1.9,0.3-2.4c0.9-0.4,1.2,0.9,1.4,1.6c1.8,5,3.6,10,5.3,15c0.4,1.3,0.1,3.3,1.8,3.5c0.6,0.1,1.6-1.8,2.2-3
			C455.2,190.5,453.3,176.3,445.6,162.4z M362.3,117.1c-0.3,1.2-1.6,1-2.5,1.3c-3.5,1-7,2-10.5,3.1c-0.8,0.3-1.7,0.6-2.1-0.4
			c-0.5-1.1,0.6-1.4,1.3-1.7c2.2-0.8,4.4-1.5,6.6-2.3c0.7-0.3,1.9-0.5,2-1c0.2-1-1-1-1.7-1.4c-2.7-1.3-5.7-1.7-8.7-2.2
			c-1.5-0.2-2.3-0.9-2.2-2.4c5.6,0.1,11,1.6,15.9,4.5C361.3,115.2,362.7,115.6,362.3,117.1z"/>
		<path fill="#FFFFFF" d="M336.7,286.4c-3.9,0.1-1.8,3.5-2.3,5.4c-0.4,1.3-0.9,3.9-2.4,2.1c-3-3.5-5.6-6.7-10.7-3.8
			c-0.4,0.2-1.3-0.3-1.8-0.6c-0.6-0.3-1.3-0.7-1.9-1.1c-1,1.8-2.2,3.4-3,5.2c0.6,0.2,1.1,0.5,0.9,1.3c-0.4,1.2-1.9,0.1-2.8,0.3
			c-0.4,0.1-0.8,0.5-0.9,0.8c-0.4,2.5,6.1,7.8,8.4,6.6c7.6-4,15.7-7.3,23.9-9.8c1-0.3,2.3-0.9,1.2-2
			C342.9,288.6,340.1,286.4,336.7,286.4z"/>
		<path fill="#FFD596" d="M445.3,215.7c1.6,11.9,1.7,23.9,0,35.8c-0.1,0.8-0.2,2.1,0.2,2.3c1,0.7,1.8-0.3,2.6-1
			c4.6-3.9,7.9-9.2,9.4-15c3.5-14.2,4.7-28.6-1.7-42.5c-0.3-0.7-1.1-1.4-0.1-2.1c0.2-0.1,1.1,0.7,1.4,1.2c1.6,2.4,2.6,5,3.1,7.8
			c2.2,11.3,2,22.9-0.5,34.1c-0.2,0.9-1,1.9,0,2.6c0.3,0.2,1.5-0.6,2-1.2c5.1-4.9,8.9-10.4,9-18.2l0,0c0-0.5,0-1-0.1-1.5
			c-2.2-12.9-7.8-24.3-14.5-35.3c-0.3-0.5-1-1.3-1.3-1.2c-1.1,0.3-0.7,1.4-0.6,2.1c0.6,9.7-2.2,19.4-7.9,27.2
			C445.4,212.3,445,214,445.3,215.7z"/>
		<path d="M4.6,0H0v4.6C0,0.8,0.8,0,4.6,0z"/>
		<path fill="#C16A71" d="M316,275.8c1.6,8.4,7.4,11,13.4,13.2c1.1,0.4,2.1,3.1,3.3,0.9c0.6-1.2-0.2-3.2-2.2-3.8
			C324.6,284.7,320.2,281,316,275.8z"/>
		<path fill="#FFD596" d="M444.5,222.9c-1-10.9-2.9-21.8-8.4-31.7c0,3.8,0.1,7.7-3.2,10.3c-3,2.4-7.5,4.1-10.5,4.2
			c-5.8,0.2-4.5,3.1-4.3,6.1c0.4,10.9-0.2,21.6-5.4,31.6c-1.1,2.1-3.5,3.5-3.4,6.3c2.8-0.8,5-2.6,7.1-4.5c1-0.9,1.9-1.8,2.8-2.9
			c1.5-1.9,2.9-4,4.4-5.9c0.9,2.8-1.8,4.4-2.4,6.7c-0.2,0.8-0.1,1.7-0.3,2.5c-2.2,9.2-3.9,18.6-8.6,27c-0.5,0.8-1,1.6-1.6,2.4
			c1.1,0.3,2.3,0,3.2-0.8c9.4-8.6,17.4-17.9,17-31.8c-0.3-10.1-0.1-20.2-0.1-30.3c0.4,18.5,4.7,37-1.3,56.4c2.4-2.1,2.7-4,3.3-5.7
			c2.8-7.6,5.2-15.4,7-23.4c0.2-0.8,0.4-1.6,1.4-1.7c0.1,0.6,0.2,1.2,0.1,1.8c-1.9,8.2,0.4,16.7-2.7,25.5c2.2-1.4,2.1-2.9,2.5-4.1
			C445.6,248.4,445.7,235.6,444.5,222.9z"/>
		<path fill="#C16A71" d="M442.2,265.2c-0.5-0.4-1.2,1.2-1.1,1.8c0.4,3.5,3.6,3.7,5.9,4.8c0.5,0.2,1.1-0.1,2-0.1
			c-0.6-0.6-0.8-1-1.2-1.3C446,268.5,444.2,266.8,442.2,265.2z"/>
		<path fill="#5A3F64" d="M310,312.1c12.8,11.7,28.1,19.6,42.5,28.9c3.5,2.3,6.6,4.3,10-0.1c1.1-1.1,2.5-1.6,4.1-1.6
			c4.7,0,4.2-1.7,1.8-4.4c-5.1-5.8-7.5-13-10-20c-2.4-6.7-10.6-11.6-6.5-21c-1-0.9-2.5,0.1-3.7,0.3c-13.2,2.9-24.6,10.5-37.6,14
			C308,309.1,307.7,310,310,312.1z"/>
		<path fill="#F5DBD9" d="M292.8,317.8c-3.9,2-6.8,4.4-8.2,8.8c-2.7,7.4-4.7,14.9-6.3,22.6c-1.5,8-3.8,15.8-3.3,24.1
			c0.3,4.9,2.7,5.9,6.9,5.2c8.5-1.3,16.4-4.3,24.2-7.6c5.6-2.3,7.3-5.7,4.7-11.3c-5.1-11.3-11.2-21.9-20.7-30.2
			c-0.9-0.8-3.4-1.4-2-3.2c1.1-1.3,2.3,0.6,3.3,1.3c7.8,5.9,12.3,14.3,17.3,22.4c1.4,2.2,2.7,6.5,4,6.5c2.6,0,2.4-4.1,4.1-6.1
			c0.8-0.9,1.2-3,2.8-1.8c1.3,0.9-0.2,2.1-0.8,3c-4.1,6.7-5.6,14.1-5.3,21.9c0,1,0.3,1.9,0.9,2.7c0.7,0.6,1.4-0.4,2-1
			c5-4.9,11-8.7,17.5-11.2c1-0.4,2.4-0.4,1.5-2.7c-3.8-9.2,1.1-15.5,11.4-15.1c0.8,0,1.7,0,2.5,0c1.6-0.2,4.2,0.8,4.5-0.6
			c0.4-1.6-2.2-2-3.5-2.8c-11.9-7.3-24-14.4-35.2-22.8C304.6,311.7,304.8,311.5,292.8,317.8z"/>
		<path fill="#F8BBAF" d="M483.4,295c-2.2-8.7-7.7-13.2-16.2-14.8c-8.9-1.6-17.6-3.6-25.2-8.9c-1.5-1.1-2.7-1.2-3.6,0.7
			c-0.4,0.9-0.8,2.4-1.7,2.1c-1.3-0.5,0.1-1.6,0.1-2.5c0-0.8,0.3-1.7-0.6-2.2s-2.1-0.3-2.7,0.5c-1,0.9-1.7,2.1-2.7,2.9
			c-1.5,1.3-2.5,2.1,0.5,2.3c0.8,0,2.4-0.6,2.3,0.8c-0.1,0.8-1.7,0.6-2.6,0.5c-1.5,0.1-3,0-4.5-0.2c-7.6-2.2-12.4,1.3-16.2,7.3
			c-0.6,1-2.5,1.9-1.3,3.1c0.9,1,2.8,0.3,3.6-0.7c4.2-4.8,10.1-4,15.5-4.9c0.8-0.3,1.7-0.1,2.3,0.4c-0.6,0.5-1.4,0.9-2.1,1.1
			c-2.3,0.3-4.6,0.5-6.9,0.6c-2.2,0.1-5,1.8-4.6,2.8c0.6,1.9,3.2,1.6,5.1,0.9c4.2-1.5,8.4-3.1,12.6-4.7c0.8-0.3,1.8-1.7,2.5-0.5
			c0.5,1-1,1.5-1.8,1.9c-0.9,0.5-1.8,0.8-2.7,1.3c-1.9,0.9-4.3,0.5-5.9,2.2c2.1,1.3,4.5,1.4,6.9,1.7c0.6,0,1.2,0,1.8,0
			c0.9,0.8,3.2-1.2,3.3,0.6c0.1,1.1-2.6,1.1-3.9,0.8c-5.8-1.2-11.9,0.8-17.6-1.6c-1.2-0.5-2.9-0.1-4.4,0.1c-0.7,0.1-1.9,0-1.8,1
			c0.1,0.9,1.3,0.9,2.1,1c1.7,0.3,3.8-0.5,5.1,1.2c3.4,4.5,8.3,4.3,13.1,4.4c1.5,0,2.9-0.6,4.1,0.8c3.8,4.4,9.2,5.7,14.6,6.7
			c4.8,0.8,9.6,0.9,14.4,0.2c2.5-0.3,5.7-1.1,4.3,3.8c-0.7,2.2,0.4,4.5,2.6,5.3c0.2,0.1,0.4,0.1,0.6,0.2c5,1.1,10,2.4,15.1,3.5
			c3.2,0.7,4.2-0.2,2.9-3.6C487.1,307.4,485.1,301.2,483.4,295z"/>
		<path fill="#C16A71" d="M434.5,266.9c1.4,0.3,3.1,0.2,3.3-1.9c0.3-3.1,0.7-6.3,1.2-9.8c0-0.4-0.1-1.3-0.2-2.1
			c-1.3,0.2-1.2,1.4-1.5,2.2c-1,3-2.1,5.9-3,9C434,265.1,432.3,266.5,434.5,266.9z"/>
		<path fill="#F5DBD9" d="M491.8,446.8c5.9,2.7,14-0.2,16.4-6.3c4.8-12.6,9-25.3,13.4-38c0.5-1.4,0.1-1.8-0.4-1.5
			c-4.2,2.8-3.3-1.6-4.1-3c-1.5-2.7-2.2-6-3.8-8.6c-2.6-4.1-2.1-7,1.4-10.4c3.7-3.5,7.4-7.5,7.5-13.1c0.2-9-6.8-14.5-10.9-21.4
			c-2.1-3.5-5.9-2.5-9-3.3c-12.1-3.4-24.7-5-35.4-12.4c-0.7-0.5-1.6-0.5-2.3-0.2c-4.3,1.3-4.5,4.2-3.3,7.8
			c4.3,12.8,7.5,25.9,9.7,39.1c0.5,3.3,0.5,6.1-1.2,9c-2.5,4.2-3.2,9.2-2,13.9c1,4.4,2.2,8.7,1.7,13.3c-0.1,1.2,0.5,3.7-1.8,3.3
			c-1.6-0.3-0.4-2.3-0.2-3.5l0,0c-0.2-2-0.4-3.9-0.6-5.9c-0.1-0.8-0.2-1.9-1.2-1.9c-0.6,0-1.2,1-1.6,1.6c-0.8,1.3-1.1,2.8-1.1,4.3
			c-0.2,3.1,2.2,5.3,2.9,7.9C469.8,431.7,478.9,440.9,491.8,446.8z M478.4,392.2c2.4-0.1,0.7-1.6,0.6-2.4c-0.6-3.1-1.5-6.1-2.2-9.2
			c-0.2-0.9-0.5-2,1.2-2.3c0.4,0.5,0.7,1,0.9,1.6c2,8.9,4.9,17.5,8.6,25.9c0.4,0.9,1,2-0.2,2.6c-1.3,0.6-1.7-0.7-2-1.6
			c-1.7-4.5-4.3-8.6-7.7-12.1C476.6,393.7,475.2,392.3,478.4,392.2z"/>
		<path fill="#F1C9E9" d="M527.9,347.6c0.2-1.4,0.1-2.7-1.8-2.8c-1.9-0.1-2.1,1.3-2,2.7c0.2,5.5,0.5,11.1,0.8,16.6h0.9
			C526.4,358.6,527.2,353.1,527.9,347.6z"/>
		<path fill="#C16A71" d="M427.6,271.4c0.8-3.7,1.6-7.4,2.3-11.1c0-0.6-0.1-1.2-0.3-1.8c-0.5,0.3-1,0.8-1.4,1.2
			c-2.2,3.9-4.9,7.5-7.8,10.8c-0.7,0.8-2.2,1.6-1.8,2.7c0.6,1.5,2.3,0.3,3.3,0.6l0,0C424.4,274.1,426.9,274.7,427.6,271.4z"/>
		<path fill="#F5DBD9" d="M169.4,579.3c-0.2,0.5-0.2,1.5,0.1,1.8c0.6,0.4,1.1-0.2,1.5-0.7c2-2.8,4-5.5,6-8.3
			C174.2,574,171,575.9,169.4,579.3z"/>
		<path fill="#5A3F64" d="M524,372.5c-2.1-0.8-2.1,2-3.1,3.1c-1.9,2.1-3.6,4.4-5.5,6.4c-1.3,1.1-1.6,3-0.8,4.5
			c1.3,2.8,2.6,5.7,3.9,8.6c0.3,0.5,0.7,1,1.2,1.4c0.3-0.4,0.6-0.8,0.8-1.3c1.7-6,4.1-11.9,4.8-18.3
			C524.9,375.4,525.7,373.1,524,372.5z"/>
		<path fill="#5A3F63" d="M181.1,601c1.2-0.3,2.8-0.7,4.4-1.2c1.9-0.6,5-1.1,5.3-2.2c0.5-2-2.5-2.5-3.9-3.9c-3.2-3.2-6.1-7.1-11.8-5
			c-2,0.7-3.3-0.9-3.1-3.3c0-0.5,1.1-1.6-0.5-1.6c-0.7,0-5.1,7.7-4.9,8.3C167.2,593.7,178.9,601.1,181.1,601z"/>
		<path fill="#FFFFFF" d="M518.3,1046.1c-2.2-3.6-3.2-7.8-3-12c1.2-19.9-3.4-38.6-10.2-57c-4.9-13.3-11.3-25.9-17.7-38.5
			c-7.5-14.8-16.2-29.2-22.8-44.4c-8.5-19.8-17.8-39.3-26.3-59.2c-11.5-27.1-21.8-54.6-32.9-81.8c-6.5-16-11.4-32.6-16.7-49
			c-3.1-9.4-6.6-18.7-8.8-28.5c-1.1-4.9-4.3-8-9.7-8.1c-8-0.2-15.9-1.2-23.7-3.1c-2.6-0.6-4.4-0.4-4.3,3.2c0.5,15.5-1.8,30.9-2,46.4
			c-0.3,20.8-3.5,41.5-4.2,62.3c-0.5,14.2,1.3,28.3,1.2,42.4c-0.1,7-1.2,13.9-0.8,20.9c2.1,35.4,3.9,70.8,5.9,106.2
			c0.8,14.6,1.4,29.3,2.6,43.9c2.1,24.2,8.3,47.8,12.2,71.8c0.2,1.5,0.9,2.9,2,3.9c2.2,1.9,3.6,4.5,4,7.3c0.6,4.5,3.1,5.2,7.1,5.1
			c23-0.2,46-0.1,69-0.1c23.7,0,47.3,0,71,0.1c3.1,0,4.9-0.3,4.8-4.2c0-4.7,1.2-9.3,3.4-13.4C521.1,1055.9,521,1050.4,518.3,1046.1z
			"/>
		<path fill="#E8D5E4" d="M548.7,1043c2.4-4.1,1.8-8-1.8-11.3c-2.3-2-3.9-4.6-4.8-7.5c-2.3-8.7-4.3-17.4-4.2-26.5
			c0.2-9.8,0.1-19.6-1.6-29.4c-3.5-20.5-7.1-41-10.4-61.5c-3.1-19.2-8.5-37.5-20.1-53.7c-9.9-13.8-21-26.7-28-42.4
			c-0.2-0.5-0.9-0.8-1.4-1.2c-0.1,0.6-0.2,1.3-0.2,1.9c0,0.8,0.3,1.6,0.4,2.5c0.1,2.3,2.5,4.1,1.4,6.6c-2.3-1.8-2.3-4.7-3.1-7.1
			c-0.1-0.3-0.1-0.7-0.1-1c-2.3-14.1-3.3-28.4-4.3-42.7c-1.7-25-3-50-4.9-75l0,0c-0.3-1.8-0.2-3.9-1-5.3c-0.8-1.4-1.7-4.1-4.7-2.3
			c-9.4,5.7-18.9,11.2-25.3,20.6c-2.9,4.1-7.1,7.1-11.9,8.5c-3.8,1.3-6.7,0.8-10.2-1.6c-6.4-4.5-12.4-9.6-19.9-12.2
			c-0.8-0.3-1.8-1.4-2.6-0.4c-0.3,0.5,0,1.7,0.3,2.4c1.4,2.6,4.3,5.1,4.2,7.6c-0.2,6.3,2.3,11.6,4.1,17.2
			c6.4,20.3,15.3,39.7,22.4,59.7c7.2,20.6,16.8,40.2,25,60.4c14.6,36.1,33.8,70.1,50.9,105.1c12.5,25.4,21.4,51.8,20.1,80.7
			c-0.1,3,0.6,6,2.1,8.6c3.5,6.1,3.9,12.2,0.3,18.5c-0.6,1-0.9,2.1-1.2,3.3c-0.2,0.9-1.1,2-0.3,2.8c0.9,0.8,1.8-0.3,2.7-0.7
			c8-3.4,15.5-2.7,22.7,2.4c1.3,0.9,2.3,3.3,4,2.2c1.4-0.9,1.6-3.2,1.6-5c0-0.5,0-1,0-1.5c0-1.4-0.6-3.4,1.7-3.4c2,0,1.9,2,2.1,3.4
			c0.3,3.3-0.4,6.7-2.1,9.6c-0.4,0.8-1.2,1.9,0.4,2.4c0.8,0.3,1.7,0,2-0.8c2.4-4.6,1.8-15.1-1.8-18.4
			C546,1053.8,545.3,1049,548.7,1043z M455.8,838.1c-0.6,0.1-1.3,0.2-1.9,0.3c-3.1,0.2-6.2-0.6-8.9-2.3c-0.6-0.3-1.3-0.8-0.8-1.4
			c0.5-0.8,1.2-0.1,1.7,0.2c3,1.5,6,2.8,9.4,1.9c0.5-0.1,1.3-0.9,1.6,0.1C457.2,837.5,456.5,838,455.8,838.1z M470.4,820.8
			c-1.2,4.7-3.4,9.1-6.4,13c-0.4,0.5-1.2,1.2-1.5,1c-0.8-0.3-0.4-1.1,0-1.6c3.1-3.9,5.3-8.5,6.6-13.3c0.1-0.4,0.6-1,0.8-1
			C471,819.2,470.2,820.2,470.4,820.8z"/>
		<path fill="#FFFFFF" d="M742.2,2.3c-244.3,0-488.6,0-733,0c-1.3,0-2.7,0.1-4,0c-2.1-0.1-3.1,0.6-3,2.8c0.1,1.7,0,3.3,0,5
			c0,353.3,0,706.6,0,1059.9c0.1,1.2,0.1,2.3,0,3.5c-0.5,3.6,1.1,4.5,4.5,4.4c11-0.2,22-0.1,33-0.1c93.7,0,187.3,0,281,0.1
			c5,0,6.3-1.5,6-6.2c-0.6-13.5-2.4-26.9-5.3-40c-5.6-24.4-14.4-47.8-21.9-71.6c-10.7-34-16.8-68.4-10.9-104.2
			c2-11.5,1.5-23.4-1.3-34.7c-11.3-44.5-22.5-88.9-28.6-134.5c-1.6-11.5-3.9-23-5.6-34.5c-0.4-3-1.2-5.4-3.9-7.1
			c-2.2-1.4-4.3-4.4-5.9,0.7c-0.2,0.7-1.7-0.4-2.2-1.3c-1.2-2.3-3.4-3.6-5.5-5c-2.5-1.7-4.1-1.6-3.7,1.9c0.6,4.9-1.9,7-6.2,8
			c-2.6,0.6-5.1,1.7-7.7,2.2c-2.9,0.6-4.3,2-4.6,4.9c-0.9,7.5-8.4,8.6-12.7,12.8c-0.6,0.3-1.3,0.4-1.9,0.2
			c-5.3-1.4-9.8,2.2-14.9,2.4c-0.2,2.4-1.8,2.5-3.6,1.9c-1.3-0.4-2.2-0.9-3.6,0.2c-4.9,3.9-6,3.5-7.5-2.9c-0.5-2.1-0.8-3.5-3.5-2.1
			s-6.1,2.6-8.3,0.1c-2.1-2.5-3.7-5.7-2.3-9.7c1.7-4.9,0.5-9.5-3-13.4c-1.9-1.9-3.3-4.2-4-6.8c-1.4-7-2.7-14-3.9-21.1
			c-0.6-3.6,0.7-6,4.5-7c5.3-1.4,10.5-3.2,15.7-4.9c3.5-1.2,9.1-1.1,9.8-4.2c0.6-2.3-5-4.6-8-6.6c-3.1-2.1-4.2-4-1.4-7.1
			c1.4-1.3,2-3.2,1.6-5c-0.9-3.8,0.8-6.8,3.5-9.4c2.7-2.7,5.4-5.4,8.1-8.1c2.7-2.8,6.4-4.9,5.4-9.8c-0.1-1.6,1-3,2.5-3.4
			c4.1-0.8,5.1-4.1,6.9-7.1c4.2-7.4,8.6-14.6,13-21.9c1-1.7,2.3-3.3,2.5-5.4c1.5-10.6,5.8-20.1,10.9-29.3c8.8-16.1,17-32.4,24.9-49
			c10.2-21.5,17.4-44.2,27.6-65.7c0.4-1.1,0.5-2.3,0.5-3.4c1.2-15.9,4.7-31.6,10.3-46.6c1.2-3.3,3.6-6.1,6.8-7.6
			c7.3-3.7,14.3-7.8,21.7-11.3c3-1.4,3.5-2.7,1.1-4.9c-7.4-6.7-11.7-15.2-14.7-24.6c-0.6-1.8-1.1-3.1-3.4-1.6
			c-1.4,1-3.4,2.5-4.9,1.1c-1.7-1.6,0.5-3.3,1.1-4.9c1.3-3.3,1.3-5-3-6.2c-12.3-3.5-19.5-12-22-24.6c-1.4-7.2,0.3-13.9,2.7-20.5
			c6.1-16.5,12.4-32.8,16.1-50.2c3.1-14.6,9.3-28.4,20-39.1c18.4-18.3,40.8-27.4,67.1-26.3c19.6,0.8,36.2,7.6,49.4,22.4
			c21.5,24.1,36.5,52.2,49.9,81.3c0.7,1.7,1.2,3.5,1.5,5.3c2.2,9.2,1,17.6-5.9,24.5c-6.7,6.7-13.6,13.2-20.6,19.4
			c-2.8,2.5-3.2,4.8-1.5,7.9s4.6,4.7,7.5,6.4c0.8,0.5,3.5,0.8,1.3,2.4c-2.7,2-0.1,1.8,0.7,2.1c5.1,2.1,10.7,2.4,16,3.8
			c7.3,1.9,12.5,6,14.5,13.6c1.2,4.3,2.9,8.5,4,12.9c0.9,3.5,2.7,4.5,6.3,4.6c15.4,0.3,30.5,3.7,44.6,9.8c3.4,1.5,4,3.1,2.4,6.5
			c-1.8,3.9-2.9,8.1-4.3,12.2c-0.2,0.6-0.5,1.7-0.3,1.8c6.2,3.9,1.3,7.7-0.1,11.5c-0.4,1.2-2.2,2.5-1,3.4c1,0.8,2.1-1.2,3.1-1.9
			c2-1.4,3.7-3.8,6.4-1.1c3,3,2.3,5.5-1.6,7.6c-7.6,4.2-17.9,6.5-14.8,19.1c0.2,0.7-0.3,1.6-0.4,2.4c-2.6,20.7-11.5,39.5-17.8,59.1
			c-2.7,8.3-12.7,11.9-20.7,8.2c-11.7-5.2-20.9-14.8-25.5-26.8c-1.8-4.5-3.1-9.3-4.9-13.7c-1.9-4.8-4.1-9.4-6.6-13.9
			c-1.2-2.2-1.3-5.1-3.7-6.6c-0.4,2.5-0.8,4.9-1.2,7.4c-2.5,15.8-4.3,31.7-10.5,46.6c-1.2,2.8-1.5,5.1-0.1,8
			c3.2,6.8,4.5,13.9,1.9,21.3c-0.8,2.6-0.9,5.3-0.1,7.9c2.9,11.3,5.9,22.5,9,33.7c0.6,2,1.5,3.9,4,1.4c1.4-1.5,3.3-1.2,5.1-0.3
			c5.8,3,7.7,12,3.3,16.7c-1.8,1.9-1.6,2.6,0.1,4.2c6,5.4,9.9,12.8,11,20.8c0.2,1.1,0.7,2.5-0.7,3.1c-1.4,0.6-2-0.7-2.7-1.6
			c-3.2-4.3-6.3-8.6-9.4-12.9c-0.6-0.8-1.3-2.5-2.5-1.8c-0.9,0.6-0.3,2.2,0.3,3.2c2.8,5.1,5.4,10.3,8.4,15.3
			c1.9,3.2,2.7,5.8-0.9,8.6c-1.8,1.4-3.3,4-2.1,6.6c4.1,8.6,1.8,19.5,9.9,26.5c0.3,0.4,0.6,0.8,0.6,1.3c4,14.5,10.7,28.4,10.9,43.9
			c0,1.5,0.4,3,1,4.3c2.2,4.6,1.5,7.2-3.3,9.2c-3.9,1.5-7.8,2.8-11.9,3.7c-3.3,0.9-4.3,2.7-4.3,6.1c-0.2,11.5,1.7,22.9,2.6,34.3
			c1.8,23.2,3.8,46.5,4.5,69.8c0.7,21.5,7.3,40.4,20.4,57.3c4.7,6.1,9.4,12.2,13.7,18.5c7,10.2,13,20.8,16.3,32.9
			c3.8,13.8,5.8,28,8.2,42.1c3.3,19.5,7.9,38.8,8.7,58.7c0.3,7.6-0.5,15.4,0.8,22.9c1.3,7.7,1.4,16,6.9,22c4.7,5.2,6.1,9.9,2.3,16.1
			c-2.3,3.7-1.9,7.3,1.5,10.4c4.9,4.3,6,9.5,4.5,15.8c-1.5,6.2-1.1,6.3,5.2,6.3c60.5,0,121,0,181.5,0c7.7,0,6.7,0.9,6.7-6.5
			c0-354.1,0-708.3,0-1062.4C748.9,1.4,749.8,2.3,742.2,2.3z"/>
		<path fill="#F8BBAF" d="M263.7,705.5c0.4,2.3,0.9,2.9,2.7,0.7c3-3.6,7.1-6.2,11.7-7.2c1.2-0.3,3.3,0.6,3.4-0.9s-1.3-2.8-3.3-3
			c-5.1-0.6-10.1-2.3-14.5-5c-2.1-1.3-2.6-0.4-2.3,2.4C262,696.4,262.9,700.9,263.7,705.5z"/>
		<path fill="#805B5A" d="M540.7,1073.1c-6.5-5-16-4.7-22.7,0.4c-1,0.6-1.6,1.8-1.3,2.9c0.4,1.5,1.6,1.4,2.8,1.4c3.5,0,7,0,10.4,0
			c3.1,0,6.3,0,9.4,0c1.4,0,3.5,0.6,4-1.1C544.1,1074.9,542,1074.1,540.7,1073.1z"/>
		<path fill="#F8BBAF" d="M463.8,675.8c-0.7-2.4,1.2-6.6-1.2-7.2c-3.5-0.9-6.6-5-11.1-1.7c-1.8,1.3-4.8,1-7.2,1.5
			c-7.4,1.2-14.9,1.1-22.1,3.7c-3.2,1.2-6.5,1.9-8.8-1.9c-0.6-1-1.7-0.9-2.7-0.8c-9,1.5-18.1,2.5-27.2,3c-1.2,0.1-2.6,0.4-2.1,2.1
			c2.3,7.4,2.6,15.4,7,22.2c2,3.1,4.7,4.3,8.5,3.8c5.1-0.7,10.3-0.7,15.4-1.6c15.8-2.6,32.1-3,46.2-12.4
			C462.7,683.7,465.5,681.2,463.8,675.8z"/>
		<path fill="#E8D5E4" d="M401.7,701.6c-1,0.1-2.6-0.1-2.9,1.2c-0.1,0.5,1.2,1.4,2,1.9c5.1,3.4,10.2,6.8,15.3,10.3
			c0.9,0.7,2.1,1,3.3,0.8c0.6-0.2,1.2-0.4,1.8-0.6c7.1-1.5,11.1-6.8,15.2-12.1c2-2.6,4.4-4.8,6.7-7.2c-3.5-0.7-6.6,0.9-9.9,1.5
			C422.8,699.3,412.2,700.7,401.7,701.6z"/>
		<path fill="#E8D5E4" d="M327.9,693.3c-13.9,1.7-27.7,4.1-41.5,1.9c-1.2,0.2-2.7-0.7-3.2,0.7c-0.4,1,0.9,1.6,1.7,2.2
			c5.4,3.8,10.8,7.8,16.4,11.3c5.7,3.5,11.4,2.8,16.7-1.2c4.4-3.3,8.4-7.1,11.9-11.4c0.8-1,2.6-2,2.1-3.1
			C331.2,692.2,329.2,693.2,327.9,693.3z"/>
		<path fill="#F8BBAF" d="M337.6,691.6c-2.1,0.3-3.7,1.9-3.9,4c-0.1,1.9,3,2.2,4.2,2.5c2.2,0.5,0.4-2.2,1.2-3.3
			C338.7,693.7,340.1,691.4,337.6,691.6z"/>
		<path fill="#F8BBAF" d="M259.4,681.8c0.3,2.7,1.9,5,4.2,6.4c5.8,3.6,12.1,4.3,18.8,5.2c16.9,2.2,33.5-0.1,50.1-2.4
			c4.5-0.6,8.4-2.4,7.8-8.5c-0.3-3.1,0.4-6.3,0.7-9.5c-0.1-1.7-0.2-3.6-0.3-5.4c-0.1-1.5-0.2-3.1-2.2-3.3c-1.8-0.2-2.9,0.3-3.2,2.2
			c-0.3,2.4-2.1,2.9-4,2.8c-2.5,0-5-0.3-7.4-0.7c-11.9-2.2-21.6-10-33.2-13.3c-1.8-0.5-3.5-2-3.4,1.5c0,3.5-1.8,3.5-4.6,2.7
			c-8.7-2.3-17.3-4.8-25.3-9c-0.8-0.4-1.7-1.5-2.6-0.6c-0.4,0.4-0.2,1.6,0,2.4C256.3,662.1,257.9,672,259.4,681.8z"/>
		<path fill="#C38C5B" d="M371.6,366.8c3.2-0.2,4.3-2.5,4.4-5.5l0,0c-0.1-1.6-0.7-4.3-2.2-3.5c-2.5,1.4-7.2-0.1-7.4,4.4
			C366.4,365,368.4,367.1,371.6,366.8z"/>
		<path fill="#F5DBD9" d="M359.9,314.9c2.8,5.4,4.2,11.5,7.8,16.6c1.9,2.6,3.3,3.8,6.1,1.4c2.1-1.7,4.8-2.7,7.5-1.6
			c3.5,1.4,4.4-0.6,5.1-3.3c1.4-5.3,2.8-10.6,5.3-15.5c0.4-0.8,1.6-1.8,0.5-2.6c-0.8-0.6-1.9,0.3-2.6,0.9c-6,5.5-11.9,4.7-18.6,1
			c-6.2-3.4-12.4-6.3-16.9-12c-0.4-0.5-0.9-1-1.4-1.6c-1.3,1.1-0.7,2.2-0.2,3.1C355,305.9,357.6,310.4,359.9,314.9z"/>
		<path fill="#C38C5B" d="M389.5,368.8c-1.9,1-3.4-0.7-4.5-2.2c-1-1.4-1.9-2.9-2.8-4.4c-0.1,2.2-0.3,4.5-1.4,6.4
			c-0.7,1.1-0.9,2,0.3,3c2.9,2.3,10.2,1.4,12.7-2.2c2.5-3.5,2.2-6.8-1.6-9.4c0.5,1.1,0.8,2.2,1.1,3.3
			C393.5,366.1,391.5,367.8,389.5,368.8z"/>
		<path fill="#FFFFFF" d="M351.7,290.9c0.6,0,1.4,0.1,1.2-1.3l0,0c-0.7-0.7-1.6-1.3-2.5-1.8c-1.3-0.4-1,0.8-1,1.5
			C349.3,291.2,350.6,291,351.7,290.9z"/>
		<path fill="#F5DBD9" d="M357.1,352.3c-4.9-1.3-9.9-0.7-14.7,0.7c-1.5,0.4-2.5,1.9-2.1,3.5l0,0c0.3,1.8,1.7,2.3,3.3,2.4
			c2.5,0,5,0,7.5,0l0,0c1.7,0,3.3,0.1,5,0c1.6-0.1,4.3,0.7,4.4-1C360.7,355.8,359.4,352.9,357.1,352.3z"/>
		<path fill="#5A3F64" d="M394.2,311.7c-2.5,8.6-10.9,16.3-3.3,26.4c2.8,3.7,5.9,5.1,9.5,2.2c9.2-7.5,17.9-15.4,26.5-23.5
			c0.7-0.7,1.3-1.4,1.9-2c-0.3-1.3-1.2-1.3-2-1.4c-9.8-1-19.5-2-29.3-3C396.1,310.2,394.6,310.1,394.2,311.7z"/>
		<path fill="#C38C5B" d="M393.9,372.3c-0.6,0.9,0.4,1.5,0.9,2c3.2,3.1,6.4,6.3,9.8,9.2c5.6,4.7,11.4,9.1,17.1,13.7
			c1.6,1.3,2.9,1.6,3.8-0.8l0,0c-0.7-1.9-2-3.4-3.7-4.5c-9.2-5.6-17.6-12.4-25.8-19.4C395.4,372.1,394.6,371.3,393.9,372.3z"/>
		<path fill="#DE2523" d="M394.2,285L394.2,285L394.2,285C394.3,285,394.2,285,394.2,285c2.1-1.3,3.9-3,5.4-5c0.8-1,1.8-2.1,1.1-3.6
			c-0.8-1.8-2.5-1.5-3.9-1.1c-2.9,0.7-5.4,1-7.3-2.2c-1-1.6-3.4-1.3-5-0.2c-1.6,1.1-1.6,2.9-0.8,4.5c1.4,2.9,3.2,5.4,5.5,7.6
			C391,286.7,392.6,286.9,394.2,285z M386.2,278.8c-0.7-1.1-0.3-2.6,0.8-3.3c0.2-0.1,0.5-0.2,0.7-0.3c2.1-0.7,2.4,0.6,2.9,2.3
			c0.3,1.1,0.2,5.3,2.7,1c0.9-1.5,2.3-2.3,3.7-1.2c1.8,1.4,0.7,2.9-0.6,4.2c-1,1-2.5,1.7-2.3,3.5h0.1l-0.1,0.1V285
			C389.7,285.4,387.9,282,386.2,278.8z"/>
		<path fill="#C38C5B" d="M364.4,372.9c-5.5,4.5-9.9,10.2-15.9,14.2c-4.4,2.9-8.1,6.8-12.1,10.3c-0.6,0.5-1.3,1.3-0.7,2.1
			c0.6,0.8,1.5,0.5,2.3,0.1c0.7-0.4,1.4-0.8,2.1-1.3c9.2-7.3,18-15.1,26.4-23.4c0.6-0.6,1.1-1.2,1.7-1.9l0,0c-0.3-0.5-0.4-1-0.8-1.2
			C365.9,371,365.2,372.2,364.4,372.9z"/>
		<path fill="#C38C5B" d="M359.5,350c0.1,0.6,0.2,1.1,0.3,1.6c1.5,5.5,6.4,7.6,12.3,4.7c2.4-1.2,3.6-1,4.6,1.3
			c1.2,2.9,1.5,5.9-0.5,8.5c-1.5,1.9-3.5,3.5-6,2.7c-3.2-0.8-5.4-3.7-5.3-7.1c0-0.7,0.7-1.9-0.6-1.9c-0.9,0-1,1.2-1.1,2
			c-0.7,4.3,2.6,8.3,7.4,9c5.3,0.8,9.1-1.8,9.7-6.6c0.1-1-1.1-3.6,1.8-2.3c0-0.6,0-1.3,0.3-1.7c0.7-0.9,1.1,0.1,1.4,0.5
			c0.7,1.3,1.2,2.7,2,3.9c1,1.5,2,3.4,4.2,1.7c2.1-1.7,1.9-3.6,0-5.4c-0.1-0.1-0.3-0.2-0.4-0.3c-0.7-0.9-3-1.1-2.3-2.3
			c0.8-1.4,2.3,0.4,3.5,0.6c-0.3-0.3-0.7-0.7-1-1c-0.6-0.6-2.2,0-2.1-1.4c0-0.2,1.4-0.3,2.2-0.4c0.7-0.1,1.3,0,2-0.1
			c2.3-0.2,4-2,4.2-4.3c0.2-2,0.2-4.1-1.8-5.3c-2.1-1.3-3.8,0-5.5,1.1c-0.8,0.6-1.5,1.3-2.3,2c-0.4,0.2-0.8,0.4-1.3,0.5
			c0-0.4-0.2-1.1,0-1.3c2.4-2.6,4.8-5.4,8.9-4.3c3.1,0.8,4.6,5.4,3.3,8.9c-0.6,1.6-1.7,2.9-3.2,3.7c-0.5,0.3-1.4,0.5-0.7,1.4
			c0.5,0.6,1.1,0.4,1.7,0c3.2-1.9,5.2-7.6,3.7-11.1c-1.5-3.7-4.9-5-9.6-3.7c-2.7,0.8-5.4,1.6-6.7,4.6c-0.2,0.5-0.6,1.4-1.4,0.8
			c-0.3-0.2-0.3-1.3,0-1.8c0.5-1.2,1.5-2.3,1.7-3.5c0.4-1.9,0.3-3.8-2.7-3.2c-1.1,0.2-2.3,2.5-2.8,0.8c-0.5-1.6,1.9-2.4,3.6-2.7
			c1.7-0.3,2.7,1,3.8,2c0.3,0.3,0.1,1.6,1.1,0.8c0.2-0.1,0-1-0.2-1.4c-1.5-2.4-3.5-4.2-6.6-3.4c-3.2,0.9-4.2,3.1-3.7,6.5
			c0.3,2,1.2,3.9,1.4,5.9c-2.5-0.2-3.1-2.6-4.7-3.8c-2.5-1.9-4.8-1.1-6.9,0.4c-1.8,1.3-2.1,3.3-1.2,5.4c0.9,2.3,2.7,3.2,5.2,3
			c0.9-0.1,2.3-1.9,2.7,0c0.2,1-1.7,1.3-2.9,1.4c-2.4,0.5-4.8-0.6-6-2.7c-1.3-2.3-1.8-4.8-0.1-7c1.7-2.6,4.9-3.8,7.9-3
			c2.4,0.7,3.2,0.9,3.1-2c-0.1-4,2.6-5.5,6.2-5.6c3.9-0.2,6.1,2.1,7.6,5.4c0.3,0.6,0.6,1.8,1.7,1c0.4-0.3,0.4-1.2,0.3-1.8
			c-0.6-3.7-7.1-7.6-11.5-6.7c-2.3,0.5-5.7,1.5-5.6,3.5c0.3,5.2-2.9,4.4-6,4.8C362.3,341.5,359,345.5,359.5,350z"/>
		<path fill="#F0AB9E" d="M356.8,300.4c4.9,5.5,11.8,7.9,18,11.3c4.8,2.6,8.3,1.8,12.1-1.2c0.8-0.6,1.4-1.3,2.2-1.9
			c-0.8-0.5-1.7-1-2.5-1.4c-7-2.5-14.5-3.4-21.4-6.4c-7.4-3.3-8-3.7-4.2-11.2c0.3-0.6,0.6-1.2,0.9-1.8c2.6-3.6,1.2-5.2-1.4-5.3l0,0
			c-3.9-0.4-4.1-0.3-3.7,2.5c0.4,3.3,1.7,6.9-0.6,9.6C353.9,297.3,355.3,298.7,356.8,300.4z"/>
		<path fill="#D3C9D0" d="M410.5,309.8c-4.1-0.9-7.5-1.6-10.9-2.3c-0.7-0.1-1.8-0.6-1.9,0.6c-0.1,1,0.9,0.7,1.5,0.8
			C402.7,309.3,406.1,310.3,410.5,309.8z"/>
		<path fill="#F5DBD9" d="M461.2,404.4c1.7-0.4,3-3.2,4.2-5.1c0.4-0.7-0.2-1.9-0.3-2.9c-0.3-3.2-0.7-6.6,1-9.3
			c3.9-6,2.3-12.1,1.3-18.3c-1.8-11.7-5.8-22.9-8.9-34.3c-0.7-2.7-0.7-5.3,2.1-6.3c4.4-1.6,3.9-4,2.7-7.6c-1-2.9-3-6.4,1-9
			c1.4-0.9,3.2-1.6,2.3-3.8c-0.9-2.2-2.9-1.8-4.7-1.7c-5.5,0.3-11,0.3-16.3-1.4c-3.2-1-4.6-0.7-4.3,3.1c0.4,4.7-2,6.7-6.7,6.4
			c-1.5-0.3-3,0.2-4.1,1.2c-9.3,9.3-19.2,18-29.3,26.4c-0.5,0.4-1.1,1.4-1,1.5c0.8,0.8,1.5,0,2.2-0.3c4.2-1.7,8.4-3.1,13-3.2
			c6-0.1,10,2.5,8.9,7.3c-1.7,7.3,1.6,8.6,7.4,9c1.8,0.3,3.6,0.9,5.1,1.8c3,1.5,3.5,0.1,3.1-2.5c-1.4-7.7-2.9-15.4-8.2-21.7
			c-0.6-0.7-1.8-1.6-0.8-2.5c1.3-1.2,2,0.4,2.7,1.2c2.8,3.3,4.9,7.2,6,11.4c0.3,1.1,1,2.9,1.4,2.9c1.7-0.2,1.3-2.1,1.6-3.2
			c2.1-8.2,4.8-16.3,8.1-24.1c0.6-1.3,0.6-4.1,2.8-3.2c1.7,0.7-0.1,2.7-0.6,3.9c-3,6.9-5.4,14-7.2,21.2c-1.5,6.7-3.2,12.9-1.2,20.6
			c3.4,13.2,8.8,25.4,13.9,37.8C459,401.6,459.2,404.9,461.2,404.4z M451,343.2c-3.2,6.1-3.6,13.4-0.9,19.8c0.3,0.7,0.7,1.8-0.3,2.2
			c-1.3,0.5-1.6-0.7-2-1.6c-1.2-2.9-1.8-6-1.8-9.1c0-4.2,0.9-8.4,2.8-12.2c0.4-0.9,1-2,2.2-1.3C451.8,341.5,451.3,342.5,451,343.2z
			 M457.2,390.7c-2,0-0.7-2.4-1.4-3.8c0.7-2.9,1.4-5.7,2.3-8.6c0.3-1,0.7-2.6,2.2-2c1.2,0.5,0.2,1.7,0,2.6c-0.6,2.7-1.2,5.5-1.9,8.2
			C458,388.4,459.2,390.8,457.2,390.7z"/>
		<path d="M382,362c0,0.1,0,0.1,0,0.2s0.1,0.1,0.1,0.2c0-0.1,0-0.2,0-0.3C382.1,362,382.1,362,382,362z"/>
		<polygon points="392.1,360.1 390.8,358.9 390.8,358.9 390.8,358.9 		"/>
		<path d="M262.6,551.7L262.6,551.7C262.6,551.7,262.5,551.7,262.6,551.7C262.5,551.7,262.6,551.7,262.6,551.7z"/>
		<path d="M276,500.3L276,500.3c0.1-0.1,0.1-0.1,0.1-0.1L276,500.3z"/>
		<path d="M276,500.3L276,500.3L276,500.3z"/>
		<path d="M344,110.1l-0.1,0.1C344,110.2,344,110.2,344,110.1L344,110.1z"/>
	</g>
</g>
</svg>
