<?xml version="1.0" encoding="utf-8"?>
<!-- Generator: Adobe Illustrator 24.1.0, SVG Export Plug-In . SVG Version: 6.00 Build 0)  -->
<svg version="1.1" baseProfile="tiny" id="图层_1"
	 xmlns="http://www.w3.org/2000/svg" xmlns:xlink="http://www.w3.org/1999/xlink" x="0px" y="0px" viewBox="0 0 1024 1024"
	 xml:space="preserve">
<g id="图层_1_x5F_复制">
	<g>
		<path d="M1025,801c-3.9-4.3-6.2-9.7-9.3-14.6c-21-32.4-42-64.9-63-97.4c-0.7-1.1-1.3-3-2.5-2.8c-1.5,0.3-0.8,2.3-0.9,3.5
			c-1.9,19.7-9.2,37.7-16.7,55.7c-11.3,27-28.6,50-47.9,71.7c-4,4.4-8.4,8.4-11.2,13.9c-10.2,20-24.7,36.5-41.6,51.1
			c-7,6.1-6.9,6.1,0.7,11c9.4,6.1,18.6,12.4,26.6,20.2c13.3,12.9,18.5,28.7,18.1,47.3c-0.3,10.8-2.3,21.4-6,31.5
			c-6,16.5-17.6,27.3-34.1,32.9h-5c2-1.8,4.6-2.5,7-3.5c10.1-4.5,18.9-10.7,24.5-20.4c7.7-13.3,10.9-28,10.7-43.3
			c-0.2-16.4-5-31.2-17.3-42.6c-13.2-12.3-28-22.6-44.6-29.7c-40.8-17.3-83.8-24.9-127.8-27.1c-17.6-0.9-35.3-0.1-53-0.1
			c-1.9,0-4.7-0.8-5.4,1.2c-0.5,1.4,1.2,3.6,1.8,5.5s2.2,1.8,3.7,1.7c3.1-0.2,6.3-0.8,9.4-0.8c28.6-0.5,57,0.4,85.2,5.7
			c34.9,6.5,68.1,17.3,98.9,35.1c14.7,8.5,26.7,19.7,35,34.5c7.6,13.6,6.8,27.7,1.6,41.8c-4,11-8.5,21.7-19.6,27.7
			c-8.2,4.4-17.2,5.8-26.2,6.5c-18.9,1.3-36.3-4.3-53-12.4c-27.4-13.3-49.5-33.8-71.8-54c-15.7-14.2-29.7-30-42.9-46.5l-1.5-1.5
			c-0.3-2.7-3.1-3.8-4-6.1c-0.2-0.5-0.8-1.2-1.5-0.6c-0.6,0.4-0.8,1.1-0.4,1.7c1.4,2.6,2.8,5.2,4.2,7.8c0.4,0.9,0.8,1.7,1.3,2.6
			c0.9,2.1,1.6,4.3,2.6,6.4c5.6,11.4,10.7,23,15.5,34.8c10.3,25.2,18.8,51.1,30.8,75.6h-3c-0.8-1.4-1.6-2.9-2.3-4.3
			c-11-23.4-19.1-47.9-28.9-71.8c-6.4-15.6-13.7-30.8-21.2-46c-0.4-0.9-0.3-2.8-2.5-2.2c-5.5,1.5-9.4,7.9-8.5,13.6
			c1,6.6,1.6,13.2,2.6,19.7c2.5,16.9,5,33.7,7.6,50.5c2.1,13.7,6.4,26.9,9.1,40.5h-3c0-0.5-0.1-1-0.2-1.5
			c-10-34.7-13.7-70.5-18.9-106.1c-0.4-2.8-0.3-5.6-0.4-8.4c-2.7,0.4-5.5,1.3-8.2,1c-2.8-0.3-2,1.1-2.1,2.5c-0.2,4.5,1,8.8,1.6,13.3
			c1.8,14.4,3.7,28.8,5.4,43.3c1.1,8.9,2.2,17.8,2.7,26.7c0.5,9.8,1.4,19.6-0.9,29.3h-2c0-2.7-0.2-5.3-0.1-8
			c1.1-25.3-2.4-50.3-6.1-75.3c-0.1-0.6-0.2-1.2-0.4-1.8c-0.1,0.7-0.2,1.3-0.2,2c-1.5,12.5-4.9,24.4-12.1,34.8
			c-12.4,17.6-28.7,30.7-47.8,40.6c-6.2,3.2-13,4.8-19.3,7.8h-6c2.5-3,6.3-3.9,9.4-6.1c5.4-4,9.8-9,14.6-13.6
			c0.8-0.7,1.6-2.2,2.8-0.8c0.9,1-0.2,1.8-0.9,2.5c-3.4,3.4-6.9,6.8-10.4,10c-0.7,0.6-2.4,1.3-2,1.8c0.9,1.2,2.1-0.1,3-0.5
			c11.5-5.3,22.3-11.9,32.1-19.8c11.4-9.3,21.9-19.4,27.8-33.4c7.5-17.9,7.3-36.5,5.4-55.4c-0.1-1-0.7-1.9-1.6-2.3
			c-10.2-5.2-13.3-14.7-15.3-24.9c-1.1-5.4-0.9-5.5-5.3-2.2c-14,10.6-27.2,22-38.4,35.5c-7,8.4-13.9,17-19.3,26.6
			c-1.5,2.5-2.1,3.9,1.8,3.5c3.1-0.3,6.3-0.2,9.5-0.2c3.1-0.1,6.8-1,8.5,2.4c1.8,3.5-0.1,6.8-2,9.8c-1.1,1.5-2.4,2.8-3.9,3.8
			c-8.1,6.3-17.7,8.2-27.4,9.5c-2.1,0.3-3.5,0.8-4,2.8c-4.5,16.8-11,33.2-9.3,51.1h-3c-0.7-7.2,0.4-14.2,1.5-21.2
			c1.6-9.6,4.9-18.8,7.3-28.2c0.3-1.1,2-2.3-0.2-3.3c-2.3-1-8.6,2.1-9.5,4.6c-5.2,15.6-7.3,31.8-9.2,48h-2
			c-0.8-5.2,0.7-10.2,1.3-15.3c1.2-11.5,3.7-22.7,7.3-33.7c0.5-1.4,0.7-2.8-2-2.4c-6.8,0.8-13.6,1.1-20.4,0.7
			c-16.7-0.7-33.5,0.2-50.1,2.6c-2.4,0.4-3.5,0.9-4.1,3.7c-3.3,16.3-10.5,31.5-21.1,44.3h-2c-0.6-1.6,0.8-2.4,1.5-3.4
			c7.8-9.8,13.5-21,16.9-33c1.3-4.6,2.3-9.3,3.3-14c0.3-1.2,1.2-3.3,2-1.7c1.5,2.6,3.1,1.3,4.7,1.1c9.4-0.7,18.9-1.9,28.3-2.1
			c19.7-0.4,39.5,0.4,59.1-3c9.9-1.7,20-2.8,28.6-8.9c2.3-1.4,4-3.4,5.1-5.9c2-5,1.4-5.9-3.9-5.8c-11.1,0.3-22.3,1-33.4,1.1
			c-17.9,0.1-35.9,0.5-53.7-2.4c-15.8-2.5-31.7-5.1-47.5-7.7c-1-0.2-2.8,0.4-2.8-1.1c0-2,1.9-1.4,3.1-1.2c6.1,0.8,12.2,1.5,18.2,2.7
			c7.5,1.6,14.3,0.4,21.2-2.6c21.9-9.4,44.1-18.3,67-25.1c17.5-5.2,33.6-13.1,47.7-24.8c7.3-6,14.9-11.7,18.5-21.1
			c0.9-2.4,1.5-5-0.2-7c-1.6-1.9-4-1-6-0.3c-1.3,0.4-2.5,0.7-3.8,1.2c-24.3,8.4-48.8,16.4-73.7,22.7c-15.4,3.9-30.6,9.2-46.7,8.3
			c-7.6-0.4-15.3-0.4-22.9-1c-9.3-0.8-18.7-0.4-27.9-1.3c-7.4-0.8-14.5,0.3-21.7,2c-1.7,0.4-4.6,2.1-4.8,0.9
			c-0.5-2.3,2.7-2.2,4.4-2.8c15.3-4.8,31-1.8,46.6-1.6c7.3,0.1,14.7,1.8,21.8-0.3c6.6-2,12.9-5.2,19.2-8c22.6-9.7,44.4-20.8,67-30.5
			c15.5-6.6,30.1-14.8,41.4-27.9c3.5-4.1,6.4-8.4,6.2-14.2c-0.2-7.8-2-8.8-8.9-5.2c-14.3,7.6-28.7,15.8-45,17.6
			c-14,1.7-27.5,5.8-40.1,12c-28.5,13.8-58,22.7-90.3,21.7c-10.7-0.3-21.9,0.1-32.4,4.1c-0.8,0.3-1.8,0.8-2.2-0.1
			c-0.5-1.2,0.7-1.5,1.6-1.9c3.1-1.5,6.5-2.5,9.9-2.8c17.9-1.3,35.8-3.6,53.8-3c1,0,2-0.2,2.9-0.5c19-3.8,36.6-11.5,54.2-19.4
			c12.1-5.4,24.1-11.1,37.6-12.1c12.8-0.9,24.3-6.2,35.7-11.5c0.6-0.3,1.9-0.4,1.4-1.5c-0.1-0.4-1.1-0.5-1.7-0.6
			c-15.1-0.2-30.5-0.6-45.2,2.6c-18.6,4.1-36.8,10.1-55.8,13.3c-15.9,2.7-31.3,8-47.6,9.6c-11,1.1-22.1,2.4-32.9,5.6
			c-8.3,2.5-14.1,7.1-17.2,15.3c-1.7,4.9-3.7,9.6-6,14.3c-11.4,22.2-22.9,44.4-33.8,66.8c-7.1,14.5-13.9,29.2-24.1,41.9
			c-4.5,5.4-8.3,11.3-11.3,17.6c-1.7,3.6-1.8,6.7,0.9,10.1c1.9,2.4,4.1,4.8,4.8,8c-5.6-4.6-9.8-10.1-11.6-17.2
			c-0.8-3.1-1.3-6.2-0.2-9.3c0.3-0.9,0.3-2.3,1.6-2.1c0.9,0.2,0.3,1.4,0.2,2.2c-0.1,2-0.1,4-0.1,6c0,1-0.1,2.2,1.1,2.5
			c0.3,0.1,1-1.2,1.4-1.9c1.8-3.2,3.6-6.3,5.4-9.5c0.6-1.1,2.2-2.1,1.3-3.4c-0.4-0.6-2.2-0.6-3.3-0.4c-9.5,1.4-18.5,3.7-23.6,13.1
			c-2.4,4.3-4.6,8.8-6.4,13.4c-2.1,5.2-3.1,10.7-6.1,15.6c3.2-14.4,6.7-28.8,18.7-38.9c1.8-1.5,1.2-2.8,1.2-4.3
			c0.1-34.3,5.6-67.5,20-98.8c6.2-13.4,16.3-24.2,26.3-34.8c17.9-19.1,38.5-35.2,58.4-52c8.6-7.2,17.6-14.1,23.5-24
			c2.1-3.4,1.4-4.4-1.6-6.5c-17.5-11.8-37.2-20.1-54.2-32.7c-2.5-1.9-5.1-3.8-7.7-5.6c-0.9-0.6-1.7-2.1-2.8-1.2
			c-0.4,0.3,0.2,2.2,0.7,3.1c3.6,6.6,9.3,11.7,13.5,17.8c3.3,4.8,6.9,9.4,10.3,14.1c0.9,1.2,2.6,2.9,1.3,3.8
			c-1.7,1.3-2.9-1.1-3.6-2.3c-7.8-12.5-19.9-19.1-32.8-24.8c-2.9-1.3-5.6-2.9-8.4-4.4c-18.5-10.1-36.1-21.4-49.3-38.3
			c-0.8-1.1-1.9-1.8-3.2-2.1c-20.7-4.6-36.8-16.5-50.9-31.7c-0.7-0.8-1.2-2-2.5-2.1c0.4,1,0.9,2,1.5,3c3.3,4.4,6.7,8.7,10.1,13.1
			c0.8,1.1,3,2.2,1.8,3.6c-1.6,1.8-2.9-0.6-4.1-1.4c-8.5-6.4-15.1-14.6-20.8-23.5c-21.9-34.1-35.8-71.3-43.5-111
			c-3.9-19.9-9.5-39.5-13-59.5c-5.2-29.6-5.4-59.7-5-89.7c0.1-5-1.6-7.5-5.6-10.3c-23.7-16-41.8-37.2-56.5-61.6
			c-10.7-17.8-15.4-37.4-19-57.6c-2.4-12.7-3.4-25.7-3-38.6c0-1.1,0.4-2.2-0.9-3.1C29.5,202.7,15.2,185.4,1,168v-3
			c3.6,2.5,5.9,6.1,8.6,9.4c11.1,13.3,23.6,25.4,37.2,36c0.7,0.6,1.5,1.9,2.4,1.1c0.5-0.4,0.4-1.8,0.5-2.7
			c0.8-7.9,1.2-15.9,2.6-23.7c3.8-21.8,12-42.1,21.1-62.1c12.9-28.4,30.8-53.8,48.3-79.5c0.8-1.2,2.6-2.5,1.8-3.8
			c-0.7-1.2-2.8-0.6-4.2-0.4c-14.9,2.1-29.7,4.4-44.5,7.3C49.8,51.5,25.1,58.3,1,67v-3c1.1-0.3,2.3-0.5,3.4-0.8
			C43.3,50.3,83,40.4,124,36.7c1.8-0.1,3.5-1,4.5-2.5c9.1-11.7,19-22.8,29.5-33.2h4c-9.5,9.5-19.5,18.6-27.5,29.6
			C104.1,72.4,75.2,115,59.8,165.2c-6.8,22.1-9.2,45.3-7.3,68.4s5.3,46.3,15,67.7c11.1,24.6,29,44.4,48.7,62.5
			c4.2,3.8,8.7,7.2,13.7,10c2.8,1.6,3.9,1.7,4.1-2.1c0.9-19,2.3-37.9,3-56.9c1.7-43.9,16.1-83,41.8-118.5
			c18.6-25.7,39.2-49.6,63.5-70.1c29.2-24.5,61.7-43.9,96-60.2c36-17,73.2-30.6,112.7-37.4c9.1-1.6,16.2-7.6,22.9-13.5
			c5-4.3,9.4-9.4,14.1-14.1h2c-0.1,0.5,0,1.1-0.2,1.4c-10.3,12.6-23.3,22.9-38,30c-0.5,0.4-1.2,0.5-1.8,0.5
			c-6.4-1.5-12.2,2.2-18.3,2.5c-0.8,0.2-1.6,0.5-2.3,1c0.6,0.7,1.5,1.2,2.4,1.4c12.6,4.3,26.3,4.4,39,0.2
			c19.7-6.3,32.4-21.1,44.2-37h3c-3.1,4.9-7,9.2-10.7,13.6c-2.1,2.5-4.8,4.5-6.3,7.5c3.4,1.6,6.7,0.1,10-0.3c0.2,0,0.3,0,0.5,0
			c11,0.6,20.8-1.5,27.1-11.7c0.4-0.7,1.3-1.5,2-0.9c1.1,0.9,0.2,1.7-0.4,2.5c-3.4,4.3-7.4,8.2-11.7,11.5
			c-14.4,11-29.8,18.4-48.7,14.6c-1.8-0.4-4,1.3-6,2c-0.3,0.1-0.5,0.4-0.7,0.6c0.4,0.2,0.8,0.3,1.2,0.4c12.4,0,24.9,0.8,36.8-3.7
			C530.9,29.5,547,16.6,561,1h3c-5.3,6.6-11.3,12.6-17.9,18c-0.7,0.6-1.8,1.6-1.7,2.2c0.3,1.2,1.7,0.6,2.5,0.6
			c18.6,0.2,37,2.6,55.3,5.9c39.5,7.2,73.7,24.8,103,51.8c12.7,11.7,25,24,37.2,36.3c3.3,3.3,4,2.4,5.5-1.3
			c4.9-11.7,6.3-24.1,6.7-36.6c0.6-22.3-3.9-43.6-12.6-64.1c-1.8-4.2-4.6-8.1-5.1-12.8h3c5.2,12.7,10.4,25.5,13.3,39
			c5.8,26.7,6.8,53.1-4.3,78.8c-1.3,3,0.6,3.9,2.1,5.3c15,14.7,29.3,30,41.9,46.9c12.6,16.5,23.2,34.4,31.8,53.3
			c0.6,1.4,1.7,2.9,1.2,4.7l-1.7-0.8c0.2,0.6,0.4,1.2,0.6,1.8c5.6,14.8,9.1,30.4,10.5,46.2c0.7,8.8-0.1,17.5-1,26.2
			c-0.4,3.6-0.9,7.3,1.7,10.5c-0.2,9.6,4.2,18.4,4.8,27.9c0.7,11.8,2.1,23.5,2.6,35.4c0.6,15.6,0.6,31.3-0.2,46.9
			c-0.3,5.3-0.3,10.7-1.2,15.9c-0.7,3.7,0.2,6.7,1.7,10c9.9,21.7,19.1,43.7,23.1,67.4c1.8,10.8,3,21.8,0.3,32.6
			c-1.2,4.9-3.2,9.5-7.2,12.8c-3.3,2.7-2.2,3.8,1,5.2c20.4,9.3,38.7,21.9,55.7,36.5c10.9,9.3,20.2,20,26.2,33c4,8.7,5.4,18.4,6.5,28
			c0.5,4.1,0.6,8.3,0.7,12.5c0,2,0.7,3.9,1.8,5.5c24.4,35.8,47.3,72.6,70.3,109.2c0.9,1.4,1.9,2.7,2.9,4.1L1025,801L1025,801z
			 M687.9,365.9c3.4-5.1,3-11,3.8-16.7c0.7-4.7,1.4-8.6,7.3-9.2c3.2-0.3,6.4-1.5,9.6-2.2c1.2-0.3,2.3-0.8,2-2.3
			c-0.3-1.9-1.6-1.8-3-1.3c-4.1,1.2-8.4,1.9-12.1,4.2c-2.2,1.4-2.8,0.1-2.6-1.7c0.8-10.2,1.8-20.4,2.6-30.7c0.2-2.8,0.2-5.6,0.1-8.5
			c0-0.5-0.7-1-1.1-1.5c-0.1,0.4-0.2,0.9-0.3,1.4c-0.7,7.1-1.3,14.2-2,21.3c-0.6,6.4-1.2,12.8-1.9,19.1c-0.1,1.2,0.2,2.8-2.2,2.2
			c-3.7-1.1-7.1,0.4-10.3,2.1c-2.6,1.4-5.4,2.7-8,2c-3.1-0.9-5.8,0.6-8.8,0.5c-0.8,0-2.9,0.1-2.3,2.2c0.5,1.7,1.3,2.2,3.3,1.7
			c8.3-2.1,16.5-4.5,25.2-5c2.7-0.2,2.8,0.1,2.4,2.3C688.3,352.3,688.3,359.1,687.9,365.9c-0.6,2.9-1.3,5.8-2.1,8.6
			c-0.3,1.2-0.9,2.4,0.9,2.6c1.6,0.1,1-1.4,1.1-2.2C687.9,371.8,687.9,368.9,687.9,365.9z M819.2,557.5c3.3-2.7,4.6-6.6,5.5-10.4
			c4.1-18.7,3.9-37.6,2.5-56.5c-0.7-9.3-3.1-18.3-3-27.7c-0.1-0.9-0.4-1.8-0.7-2.7c-1.2,0.5-1,1.6-1.1,2.5c0,0.7,0,1.3,0,2
			c0.2,15.5-0.4,31-3.2,46.2c-3.2,17.7-10.5,33.2-27.4,41.7c-4,2-5,4.6-6.5,8c-1.4,3.3-0.1,4.3,2.7,5.2c6.9,2.4,14,2.9,21.2,2.9
			c6,0,10.5-2.6,14.1-7.1c3.1-3.8,5-8.2,6.6-12.7c6.2-16.7,6-33.8,3.7-51.1c-0.9-7.9-2.4-15.7-4.4-23.5c-0.2-0.7-0.2-1.8-1.3-1.6
			c-0.2,0.6-0.2,1.2-0.1,1.8c3,19.8,5.2,39.5,1.8,59.6c-1.9,11.3-3.8,22.2-12.9,30.2c-1.5,1.4-3.5,2.2-5.6,2.1
			c-6.4,0-11.4-3-16.2-6.4c-1.1-0.8-3.2-2.4-2.3-3.3c1.4-1.5,2.7,0.7,4,1.5c1.1,0.7,2.1,1.6,3.3,2.3c7.1,4.5,13.8,4,18.3-1.4
			C818.2,558.6,818.7,558.1,819.2,557.5z M651.9,718.1c-3.7-10.3-3.9-21.6-0.4-32.1c0.1-0.6,0.1-1.2,0-1.8c-0.4,0.3-0.7,0.7-1,1.1
			C646,694.6,642.7,708.8,651.9,718.1c0,0.6,0.3,1.5-0.1,1.8c-1.1,1-1.6-0.1-2.3-0.8c-5.8-6.9-7-14.8-5.2-23.3
			c2.4-11.4,8.9-20.6,15.6-29.7c0.5-0.7,2.3-2.5,1-2.4c-3.9,0.2-7.7-2.6-11.6-0.1c-15.7,10.3-31.7,20.1-47.1,30.9
			c-18.1,12.7-37.7,15.6-58.8,11.2c-18.3-3.8-36.8-6.6-55.2-9.6c-3.8-0.6-3,0.7-2,2.8c6,11.8,9.2,24.4,12.2,37.2
			c0.3,1.4,1.5,3.3-0.3,3.8c-1.9,0.5-1.9-2-2.3-3.2c-1.8-6.2-3.4-12.4-5.1-18.6c-0.2-0.7,0.2-1.9-1.1-1.8c-0.3,0-0.6,1-0.9,1.6
			c-3.3,7.7-7.9,14.6-12.4,21.5c-2.4,3.6-6.9,7.5-6.5,10.7c0.5,3.6,5.4,6.7,8.6,9.8c9.2,9,18.7,17.7,30.9,22.5
			c8.3,3.2,16.5,6.7,23.5,11.9c7.6,5.7,15.8,5.9,24.5,7.1c7,1,11.6-1.3,17.1-3.9c5.5-2.6,8.9-0.2,9.7,5.7
			c1.5,11.2-5.1,18.5-12.3,25.3c-2,1.9-2.5,2.5,0.4,3.9c11,5.2,20.6,12.2,27.6,22.4c1.1,1.6,1.9,2.3,3.9,0.8c3.5-2.6,7.5-4.3,11.8-5
			c2.3-0.4,3.6-1.3,2.5-4.5c-2-6.1-3.8-12.4-4.2-18.9c-1.4-24,3.3-46.6,15.6-67.4c7.3-12.4,14.9-24.7,22.4-37
			C652.9,721.3,655,719.6,651.9,718.1L651.9,718.1z M811.3,480.3c-0.2-0.2-0.4-0.4-0.6-0.6c0.2-1,0.5-1.9,0.9-2.8
			c6.7-9.9,10.8-20.8,13.6-32.3c1.7-6.9,4.8-13.9,3.3-20.9C819.2,381.1,807.8,339,796,297c-7.7-27.3-21.9-51.8-34.3-77.1
			c-12.4-25.3-28.7-48-46.3-69.7c-17.5-21.5-37.7-40.4-59-58.1c-25.9-21.5-52.7-41.4-85.2-52c-0.8-0.3-1.9-0.6-1.7-1.5
			c0.3-1.3,1.6-0.9,2.5-0.7c6.6,1.7,12.9,4.1,19,7.1c33,16.9,61.9,39.3,88.9,64.5c34.1,31.9,63.5,67.3,84,109.6
			c8.5,17.5,17.9,34.5,25.5,52.4c10.4,24.7,15.7,51,22.9,76.6c6.2,22.1,11.7,44.4,16.8,66.8c0.2,0.7,0.4,1.4,0.6,2.1
			c0.2-0.6,0.3-1.3,0.4-1.9c0.6-5.8,1.5-11.5,1.7-17.3c0.7-21.3-0.4-42.6-3.4-63.7c-0.1-1-1-2.7,0.6-2.9c1.8-0.2,1.1,1.6,1.2,2.6
			c1.4,12.2,3.3,24.4,3.8,36.6c1.2,24.1-0.8,48.2-6,71.7c-1,4.3-0.8,8.1,1.1,12c4.2,8.5,8.4,17,12.7,25.5
			c8.1,16.1,15.7,32.4,19.9,50c2.5,10.5,2.4,20.5-4.4,29.5c-0.9,1.1-1.7,2.3-2.6,3.4c2,0.2,2.9-1.4,4.1-2.4c0.7-0.7,1.3-1.5,1.9-2.3
			c7.1-10.8,6.8-22.6,5-34.6c-3.8-24.2-12.1-46.9-22.3-69c-3.5-7.5-3.9-14.6-3.3-22.5c1-14.4,2.3-28.9,0.9-43.4
			c-1.4-14.5-4.2-28.8-7-43c-8-40.5-21.8-78.7-43.2-114.1c-7.2-11.8-14.3-23.7-21.9-35.2c-0.7-1.1-2.7-2.7-1.2-3.7
			c1.1-0.8,2.1,1.6,2.9,2.8c2.9,4.3,5.7,8.6,8.5,12.9c24.7,37.2,43.3,77.2,53.7,120.7c2.7,11.1,5,22.3,6.7,33.5
			c0.3,1.1,0.6,2.2,1.1,3.3c0-1,0-2,0-3.1c-1.9-33.9-10.1-66.5-21.4-98.3c-10.9-30.6-27.6-58.3-44.5-85.9c-17-27.9-37-52.9-63.9-72
			c-10.2-7.2-19.9-15-29.9-22.5c-0.9-0.7-2.7-1.2-1.8-2.5c1.1-1.7,2.3,0.1,3.3,0.8c2.3,1.6,4.6,3.3,6.9,5
			c20.6,15.5,40.5,31.8,59.7,49.1c26.6,23.8,50.6,49.5,69.1,80.1c0.8,1.3,1.6,2.4,2.4,3.7c0.7-1.8-0.8-3-1.5-4.3
			c-15.8-28.9-35.4-55.5-58.3-79.1c-18.8-19.4-37.9-38.5-58.2-56.3c-20-17.2-41.5-31.7-66.6-40.4c-30.5-10.6-62-14.8-94.1-15.5
			c-2.4,0-4.1,1-5.9,2.3c-15.8,11-33,17.5-52.6,16.7c-6.8-0.3-13.7-1.5-20.4-0.8c-11.9,1.3-23.5,1-34.7-3.5c-3-1.2-6.4-1.4-9.5-0.4
			C381.4,49.5,345.3,64.4,311.2,83c-60.8,33-110,78.2-145.1,138.1c-11.7,20-20,41.4-22.9,64.6c-3,24.3-5.6,48.7-6.4,73.1
			c-1.1,32.8-0.9,65.6,2,98.4c1.7,18.7,7.2,36.5,10.6,54.8c6.3,33.3,14.1,66.1,28.6,97c7,14.8,14.3,29.4,24.2,42.5
			c0.9,1.2,1.4,2.7,3,3.2c0.5-1.7-1-2.6-1.6-3.8c-1.8-3.4-3.8-6.6-4.9-10.4c-0.3-1.1-1.1-2.4,0.3-3.1c1.5-0.7,1.8,1,2.5,1.8
			c0.5,0.6,0.9,1.4,1.4,2c17.2,23.2,38.8,39.6,68.6,42.7c1.8,0.2,5.4,0,5.1,1.4c-0.7,2.5-3.8,1.2-6,1.2c-1.1,0-2.5-1.1-3.1,0.3
			c-0.5,1.2,0.9,2,1.7,2.8c6.4,6.8,13.4,13,20.9,18.5c15.1,11.2,32.4,18.4,48.5,27.7c0.4,0.2,1.2,0.5,1.3,0.4c0.6-0.9-0.4-1.4-0.8-2
			c-10.2-13.4-21.1-26.2-32.7-38.4c-11.4-12.1-23.2-23.9-34.7-35.9c-1-1.1-3.5-2-2.3-3.7c0.6-0.8,2.3,1.4,3.3,2.3
			c15.3,14.9,30.5,29.8,44.5,45.9c0.7,0.7,1.4,1.3,2.1,1.9c-0.2-0.9-0.5-1.7-0.9-2.6c-1.8-3.5-3.6-7.1-5.6-10.5
			c-25.3-41-46.9-84.1-64.3-129c-18.1-46-28.7-93.5-30.4-142.7c-1-28.7-1.7-57.6,1.7-86.3c1.8-15.2,3.6-30.3,7.7-45.1
			c7.4-26.4,18.7-51.1,32.1-75c10.1-18.1,20-36.3,31.9-53.4c17.2-24.7,36.5-47.4,61-65.3c1.1-0.8,2.7-2.7,3.7-1.5
			c1.1,1.4-1.2,2.2-2.1,3.2c-0.3,0.2-0.5,0.4-0.8,0.5c-16.8,12.3-31,27.1-44.1,43.1c-16.4,20.2-29.4,42.5-42.6,64.8
			c-31.3,53.3-48.1,110.3-47.1,172.4c0.3,18.3,0.9,36.6,1.8,54.9c0.8,15.6,2.6,31,5.4,46.4c6,33.5,17.2,65.5,29.3,97.2
			c18.5,48.3,46.7,91.5,70.6,137c0.5,0.6,1,1.2,1.6,1.7c-0.1-0.8-0.2-1.5-0.4-2.3c-6.5-15.3-13.8-30.2-21.3-44.9
			c-3.5-6.8-7.1-13.5-10.6-20.3c-0.3-0.6-1.2-1.6-0.1-2.1c0.9-0.5,1.4,0.4,1.8,1.2c3.8,6.2,7.9,12.1,12.5,17.7
			c21,26.7,43.9,51.9,68.5,75.3c11,10.5,23.4,19.3,39.1,21.9c1.6,0.3,3.3,0.3,4.9,0.5c-0.3-1.8-1.9-2.5-3-3.7
			c-14.3-13.7-28.4-27.7-40.9-43.2c-28.4-35.1-46.3-75.4-58.7-118.4c-2.8-9.9-5.2-19.8-7.1-29.9c-0.6-3.1-1.5-3.8-2.2-2.7
			c-2.8,4.1-5.6,1.8-8.1,0.1c-6.2-4.2-11.5-9.7-15.5-16.1c-7.7-11.7-10.8-25-13.4-38.6c-3-15.6,8.6-27.3,23.3-20.5
			c3.5,1.6,3.1-0.4,3-2.5c-0.3-6.2-0.9-12.3-0.9-18.5c-0.3-32.1,1.2-64.2,3.8-96.2c1.3-15.5,2.8-31.1,5.4-46.4
			c4.1-23.9,8.9-47.8,13.7-71.6c9.2-45.6,25.7-89.4,49-129.6c9.9-17,21.2-33.1,37.9-44.4c0.9-0.6,2.2-2.3,3.2-0.8
			c0.7,1-1.1,1.8-1.9,2.5c-9.9,7.4-18.6,16.2-25.8,26.2c-24.3,34.4-39.5,72.9-51.9,112.8c-7.6,24.3-11.1,49.6-16.3,74.5
			c-7.7,36.8-11.6,73.9-13.6,111.3c-1.3,24.3-1.8,48.6-1,72.9c0.4,11.4,1.4,22.9,3.2,34.2c3.1,20.1,7.3,40,11.7,59.8
			c9.3,42,24.2,81.8,47.9,118.1c16.7,25.5,38.1,46.7,59.6,67.7c5.1,5,11.5,8.4,17.8,11.8c0.7,0.3,1.4,0.5,2.2,0.6
			c-0.4-0.7-0.9-1.3-1.5-1.8c-7.4-5.5-13.8-12-20.5-18.2c-21-19.5-39.6-41.6-55.1-65.7c-16.4-25.1-27.7-52.5-35.8-81.3
			c-0.4-1.5-1.7-3.1-0.6-4.7c0.4-0.6,0.7-0.3,2,4.3c11.8,40.3,31.6,77.8,58.1,110.4c18.7,23.1,41.5,41.8,64,60.8
			c13.8,11.7,29.4,20,46,26.7c1.9,0.8,3.7,1.5,5.8,0.9c9.5-2.4,19.3-3.7,29.1-3.9c0.7,0,1.9,0.4,2.1-0.6c0.1-0.5-0.8-1.4-1.5-1.7
			c-6.6-3.6-13-7.7-19.9-10.4c-15.7-6.1-28.5-16.3-40.4-27.7c-24.3-23.3-44.5-50.5-59.9-80.4c-23.7-45.5-39.5-93.5-48.2-144.1
			c-4.9-28.5-6.5-57.1-7.5-85.8c-0.8-22.8,1.2-45.5,2.7-68.3c1.4-20.5,3.3-41,7.4-61.1c7.6-36.7,17.6-72.9,30.1-108.3
			c2.1-6,4.4-11.8,6.6-17.7c0.3-0.7,0.5-1.8,1.6-1.4c0.8,0.3,0.2,1.2,0,1.8c-0.3,0.9-0.7,1.9-1,2.8c-15.5,43.2-28.2,87.2-36.9,132.3
			c-0.1,1.1-0.1,2.2,0.1,3.2c0.4-0.9,0.7-1.8,1-2.8c6.4-28.4,17-55.3,27.8-82.1c3.5-8.6,7.2-17.1,11-25.7c0.4-1,0.8-2.9,2-2.4
			c1.9,0.8-0.2,2.2-0.2,3.3c0,0.4-0.5,0.9-0.7,1.3c-15,35.9-30.3,71.7-38.7,109.9c-3.3,15-6.7,30-7.7,45.5
			c-0.9,13.6-1.7,27.2-2.5,40.8c-0.9,14.1-0.8,28.3,0.3,42.5c0.1,1.4-0.5,3.5,1,4c1.4,0.5,2.4-1.4,3.5-2.4
			c22.4-20.9,43.7-42.9,62.6-67.2c15.9-20.4,30.2-41.7,39-66.1c1.8-5,3.8-9.9,5.8-14.8c0.3-0.7,0.3-2.1,1.3-1.7
			c1.5,0.4,0.3,1.6,0.2,2.5c-0.2,0.6-0.4,1.3-0.7,1.9c-9.8,28.8-23.6,55.8-37.2,82.8c-4.3,8.4-9.3,16.5-14.8,24.2
			c-0.4,0.5-0.8,1.6-0.7,1.7c1.1,0.7,1.3-0.5,1.8-1c1.1-1,2-2.2,3-3.4c20.5-23.6,36.5-50.1,49.7-78.4c10.1-21.6,18.6-43.6,20.5-67.6
			c1.2-15.8,1.6-31.6,2.5-47.3c0.9-15.3-1.6-30.1-3.2-45c-0.9-8.5-3-17.1-2-25.8h-0.1c0.3,0.4,0.9,0.7,0.9,1.1c2.5,18,5,36,7.3,54.1
			c2.3,18.4,4.5,36.8,6.3,55.3c1.3,12.7,2.6,25.4,3.6,38.1c1.5,20.1,1.5,40.3,1.1,60.4c-0.3,10.5-1.4,20.9-3.3,31.1
			c-2.4,13.8-5.5,27.5-9.3,41c-0.2,0.7-0.5,1.5,0.1,2.2c0.5-0.6,1-1.3,1.4-2c1.6-3.6,3.3-7.3,4.7-11c11.7-29.9,16-61.3,19-92.9
			c1.9-22.1,2.7-44.2,2.2-66.3c-0.1-7.8-0.1-15.7-0.2-23.5c0-1.1-0.3-3.1,0.7-3.1c1.2,0,0.9,1.9,0.9,2.9
			c2.2,38.9,0.8,77.9-4.2,116.5c-4.2,31.3-12.2,61.4-26.4,90c-8.2,16.5-15.2,33.6-26.1,48.6c-1.9,2.7-3.7,5.5-5.4,8.3
			c-0.4,0.7-1.1,1.9-0.9,2.2c0.9,1.1,1.8-0.2,2.6-0.5c22.4-10.1,38.6-27.6,52.6-46.9c9.2-12.7,16.8-26.7,25.2-40
			c0.7-1.1,1.2-3.6,2.9-2.5c1.4,0.9-0.5,2.6-1.1,3.7c-3.6,5.9-7.4,11.8-11,17.7c-9.4,15.1-18.6,30.2-27,45.9c-0.5,1-0.9,2-1.2,3.1
			c0.7-0.8,1.4-1.7,2.2-2.5c3.7-4,7.1-8.4,11.2-12c8.1-7.2,16-14.6,22.8-23c15.6-19.1,28.4-39.8,32.8-64.4c3.5-19.3,3.7-39,4.6-58.6
			c1-22.8-0.2-45.6-3.6-68.1c-0.2-1.1-0.8-2.6,0.9-2.8c1.4-0.2,1.1,1.3,1.2,2.2c2.2,13.3,3.5,26.7,3.9,40.1
			c0.7,29.9-0.9,59.8-5,89.5c-3.3,23.4-9.6,46.2-17.6,68.5c-0.6,1.8-1.1,3.6-1.7,5.4c1.2-1.6,2.3-3.2,3.3-4.8
			c21.7-39.9,31.8-82.8,33.7-128c0.6-15.8-1.1-31.5-3.1-47.2c-2.6-20.2-5.4-40.3-9.9-60.2c-7.5-33-17.1-65.3-32.5-95.7
			c-9.1-18.1-19-35.7-29.2-53.2c-0.6-1-2.1-2.5-0.6-3.4c0.9-0.6,1.7,1.3,2.2,2.3c17.6,31.7,37.4,62.3,48.1,97.4
			c6.6,21.6,13.7,43.2,17.4,65.5c3,18.7,9.3,36.3,17.6,53c19.4,38.9,41.9,76.2,67.3,111.6c0.7,0.9,1.4,1.8,2.1,2.7
			c0.3-1.4-0.7-2.3-1.2-3.3c-14-27.6-29.1-54.6-41.5-83c-11.8-27.2-21.4-55.2-31-83.2c-0.3-1-1.4-2.3,0.3-2.8
			c1.1-0.3,1.3,1.2,1.7,2.1c2.9,8.4,6.3,16.8,8.8,25.3c8.2,28.4,23.2,52.9,41.6,75.8c2.2,2.7,4.4,3.7,7.6,3.1
			c7-1.4,13.9-2.8,20.9-4.2c2.7-0.5,3.2-2.9,3.4-5c1.1-10.6,2.9-21.1,2.8-31.7c0-6.3,0.1-12.8-3.2-19.1
			c-19.2-37.1-40.7-72.7-67.2-105.1c-0.9-1.1-3.2-2.9-1.7-4.1c1.3-1.1,2.5,1.4,3.5,2.6c25.2,30.9,45.8,64.7,64.4,99.8
			c20.8,39.3,33.9,81.5,43.7,124.6c6.6,29.1,10.6,58.7,10.8,88.7c0.2,31.7-3.9,63.2-12.1,93.8c-5.7,21.3-14.8,40.7-29.1,57.6
			c-0.8,1-1.6,2.9-2.9,2c-1.4-1,0.3-2.2,1-3.2c0.2-0.3,0.4-0.5,0.6-0.8c16.2-19.5,25.3-42.1,30.6-66.6c3.6-16.7,6.8-33.3,8.1-50.4
			c0.9-12.4,1.9-24.9,1.8-37.4c0-1.1,0.5-2.4-0.8-3.2c-0.6,0.9-1.1,1.9-1.6,2.9c-3.6,10.1-7,20.3-9.1,30.9
			c-4.3,21.7-9.6,43.2-12.2,65.3c-2.4,20.4-13.1,37-27.2,51.4c-9.6,10.1-20.2,19.3-31.6,27.4c-2.3,1.6-2.3,2.5-1.1,2.4
			c3.3-0.4,6.6,1.7,9.9-2.1c12.1-13.7,25.4-26.4,39.6-38c0.9-0.7,2.1-2.4,3.2-0.9c0.8,1-0.8,1.9-1.7,2.7
			c-11.5,9.4-22.4,19.5-32.7,30.1c-9.4,9.7-17.2,20.5-21,33.9c-5.6,19.9-2.1,31.8,13.2,42.8c1.1,0.8,2.2,2.4,3.3,1.8
			c1.6-0.8-0.1-2.3-0.4-3.5c-2.2-9.3-3-18.7-1.3-28.1c3.3-18.4,14.7-32,27.5-44.5c7.7-7.6,16-14.6,24.1-21.7
			c8.3-7.3,14.1-16.3,19.5-25.7c0.5-0.8,0.9-2.2,2-1.5c1.1,0.6,0.3,1.7-0.2,2.6c-2.2,3.7-4.5,7.4-6.7,11.1c-0.4,0.6-0.6,1.3-1,2
			c0.7-0.3,1.4-0.7,2-1.1c23-18.8,39.8-42.4,50.9-69.8c9.1-22.1,12.1-46.2,8.7-69.8c-3.4-23.1-8.2-45.9-14.6-68.3
			c-10.7-37.7-22.5-75-39.1-110.7c-9.9-21.2-19.8-42.4-30.4-63.3c-0.3-0.7-0.5-1.5-0.6-2.2c1.1-0.1,1.3,0.8,1.7,1.5
			c0.5,0.7,0.8,1.4,1.2,2.2c11.9,22.6,23.5,45.4,33.7,68.9c21.1,48.9,36.9,100,46.9,152.3c0.5,2.7,0.2,5.7,2.1,8.1
			c2.4-1.9,2.6-4.9,3.6-7.4c10.8-26.7,14.1-54.1,7.7-82.3c-4-17.6-10.9-34.2-17.6-50.9c-0.6-1.5-1.2-3.1-1.7-4.7
			c-0.2-0.7-0.1-1.4,0.7-1.5c0.5,0,0.9,0.2,1.2,0.6c0.6,1,1.1,2,1.6,3.1c4.4,11.5,8.7,23,13.1,34.5c5.3,13.8,7.3,28.3,8,43
			c1.2,23.9-4.9,46.3-14.5,67.9c-0.9,1.8-1.1,3.8-0.8,5.7c1.3,9.9,1.6,19.9,0.8,29.9c-0.9,14.1-3.7,28-8.3,41.3
			c-0.3,0.7-0.8,2-0.5,2.2c0.9,0.7,1.7-0.2,2.5-0.7c9.9-6.2,17.1-14.6,20.7-25.9c5.6-17.4,6.7-35.2,6.9-53.3
			c-0.1-0.6-0.2-1.2-0.4-1.7c-0.4,0.4-0.8,0.9-1.2,1.4C816.1,473.9,814.4,477.6,811.3,480.3z M616.2,818.6
			c-0.2,11.6,3.1,22.5,6.6,33.4c1,3.2,2.5,3.9,5.6,3.9c40.6-0.7,81.1-0.3,121.1,7.9c24.1,5,47.8,11.2,69.8,22.4
			c2.6,1.3,4,0.4,5.6-1.1c5.3-4.8,10.6-9.6,15.8-14.5c14.3-13.7,26.7-28.7,33.9-47.3c6.9-17.7,13.4-35.5,20.2-53.3
			c0.4-1,0.6-3.2,2.3-2.4c1.3,0.6,0.1,2.1-0.3,3.1c-6.7,15.3-11.2,31.4-17.5,46.8c-0.3,0.8-0.5,1.5-0.6,2.3c1.1,0.2,1.3-0.8,1.8-1.3
			c1.3-1.5,2.5-3.1,3.8-4.6c20.2-21.4,35.6-45.9,47.1-73.1c11.2-26.5,17.5-53.7,14.1-82.5c-1.6-13-5.8-25.3-14.6-35.4
			c-9.6-11.1-20.4-21.1-32.2-29.7c-16.3-11.8-32.7-23.8-53-27.9c-9.1-1.8-19.4-6.3-27.3,3.6c-0.6,0.8-2,1.1-3.1,1.5
			c-9.5,2.7-18.8,1-27.9-1.8c-3.6-1.1-5.3-0.9-7.4,2.6c-10.4,17.9-22.1,35.3-38.5,48c-14.2,11-27.8,22.8-41,34.8
			c-13.7,12.4-25.5,26.3-29.6,45c-2.5,11.2-0.6,22.4,2.4,33.4c0.3,1,1.4,2.2-0.1,3c-0.9,0.5-1.9-0.1-2.8-0.7
			c-4.1-2.9-8.6-5.3-11.8-9.1c-3-3.5-4.3-2.3-6.2,0.9c-5,8.6-10.2,17.1-15.5,25.5C624.2,772.3,616.6,794.3,616.2,818.6z
			 M601.3,328.3c-0.7,9.3-1,19-1.9,28.6c-2,20.6-5.5,41-12.3,60.6c-6.6,19.3-13.6,38.5-25.7,55.2c-5.3,7.3-10,14.8-14.8,22.3
			c-4.4,6.9-9.3,13.3-14,20c-0.5,0.8-1.2,2.1-2.2,1.4c-1.1-0.8,0.1-1.7,0.6-2.5c0.3-0.4,0.6-0.8,0.9-1.2
			c21.1-27.2,34.5-57.9,41.6-91.5c0.2-0.9,0.7-1.8,0-2.6c-0.5,0.8-1.1,1.6-1.5,2.5c-9.8,19.3-22.2,36.9-38,51.6
			c-11.8,10.8-22.4,22.7-31.9,35.6c-0.6,0.9-1.2,2.5-2.6,1.7c-1.5-0.9,0-2.1,0.4-3c4.1-7.8,8.3-15.5,12.5-23.2
			c0.3-0.7,0.5-1.4,0.7-2.2c-0.6,0.4-1.2,0.9-1.8,1.5c-7.9,9.1-16.2,17.9-26.6,23.9c-5.6,3.3-8,7.1-8.5,13.5
			c-3,37.6-47.4,47.6-69.7,33.5c-14.7-9.4-24.6-26.8-21.4-47c0.2-1,0.2-1.9,0.2-2.9c-1.5,0-1.8,1.3-2.3,2.2
			c-3.4,5.8-4.9,12-3.3,18.6c1.5,7,3.9,13.7,7,20.1c0.5,1.1,2.1,2.5,0.8,3.5c-1.1,0.8-2.3-0.9-3.2-1.7c-3.5-3-7-6.2-10.5-9.2
			c-0.9-0.8-2.1-2.5-3.3-1.4c-0.7,0.6-0.4,2.6-0.2,3.8c6.3,35.9,16.6,70.9,30.8,104.4c2.9,6.8,4.5,15.1,9.9,19.8
			c9.3,8.3,19.5,16,31.9,19.7c15.7,4.6,31.8,7.3,47.9,9.9c18.4,3,36.8,5.9,55.1,9.6c15.3,3.1,30.6,2.7,44.4-5.4
			c29.2-17.1,58.2-34.8,83.7-57.3c12.6-11.1,24.5-22.9,31.9-38.5c6.2-13,7.2-27.1,9.6-40.9c5-29,10.7-57.8,21.5-85.4
			c1.5-4.1,2-8.4,1.4-12.7c-1.5-12.3-3.2-24.6-4.8-36.9c0-1.5-0.7-2.9-1.9-3.8c-14.6-11.5-26.8-25.4-38.9-39.3
			c-1.8-2.1-3.2-3.7-6.6-2.2c-3.6,1.6-5.5-0.5-4.8-4.6c0.6-2.6-0.1-5.3-2-7.3c-4.4-4.8-8.7-9.7-12.8-14.6c-1.9-2.3-3.2-5.1-7.1-3.4
			c-1.7,0.7-2.1-1.2-3-2.4c-1.9-2.6,0.8-5.9-1.2-8c-8.6-9.4-15.1-20.1-21.7-30.9c-0.4-0.5-0.8-1-1.3-1.4c-0.4,0.7,0.1,1.2,0.3,1.8
			c3.6,8.2,6.9,16.5,10.8,24.5c13.2,26.7,26.9,53.2,41.1,79.5c0.5,0.9,1.8,2,0.7,3c-1.4,1.3-2.5-0.2-3.3-1.1
			c-2.3-2.6-4.5-5.3-6.5-8.1c-30.7-43.1-59.2-87.4-79-136.8c-0.3-0.7-0.7-1.4-1.2-2.1c-0.2,0.7-0.2,1.5-0.1,2.2
			c1,2.6,0.7,5.3,1.1,7.9C599.1,295.3,600.7,311.8,601.3,328.3z M272.2,966.2c0,2,0.1,4,0,6c-0.2,2.9,0,4.5,3.7,2.9
			c4.1-1.8,8.6-2.7,13.1-2.6c2.6,0.1,4.2-1.2,5.8-3.2c8.8-10.4,14.9-22.5,20.5-34.7c14-30.4,31.2-59.2,44.3-90
			c2.3-5.6,7-9.9,12.7-11.7c6-2.1,12.2-3.2,18.4-4.3c13.7-2.6,27.7-2.4,41.3-5.9c12.4-3.2,24.8-6.8,37.6-8.6
			c8.8-1.2,17.5-3.3,25.9-6.2c1.1-0.4,2.9-0.8,3-1.4c0.2-1.5-1.6-1.1-2.6-1.6c-4.9-2.4-10-4.5-14.8-7.1c-16.4-9-31.7-20-48.5-28.3
			c-1.6-0.8-2.8-2.3-4.9-2.2c-7.2,0-14.2-1.5-20.8-4.4c-3.5-1.5-5.1-0.5-7,2.5c-8.1,12.6-14.6,25.9-20.5,39.6
			c-0.6,1.4-0.7,4.1-2.6,3.3c-1.6-0.7,0.2-2.9,0.8-4.3c3.3-7.2,6.7-14.4,9.9-21.6c0.3-0.6,1.3-1.2,0.4-2c-0.1-0.1-1,0.6-1.5,1
			c-23.2,19.4-47.1,38-68.3,59.7c-9.9,10.2-19.4,21-25.8,33.9C278.1,903.7,274.1,934.7,272.2,966.2z M811.3,1015
			c6.3-0.9,14.5-1.9,22.7-3.4c3-0.5,5.1-1.8,2.3-5.7c-4.5-6.8-9.7-13.1-15.3-18.9c-21.6-21.5-45.6-40.3-68.9-59.9
			c-1.6-1.5-3.8-2.1-6-1.7c-18,3.4-36.4,3.3-54.4-0.2c-0.9-0.2-2.5-0.7-2.7-0.4c-0.7,1.1,0.4,2.1,0.8,3.1
			c3.4,6.8,6.5,13.8,10.2,20.4c4,7,6.8,14.6,13.6,19.9c16.5,12.6,32.5,25.8,51.5,34.7C779.2,1009.2,793.7,1014.1,811.3,1015z
			 M655.2,868.3c-4.5,0.1-13.2-0.4-21.9,0.4c-2.7,0.3-3.6,1.2-2,3.6c2,3.2,3.9,6.5,6.1,9.7c10.7,15.2,23.2,28.4,40.5,35.8
			c24.4,10.5,49.6,9,74.7,3.4c17.6-3.9,32.9-13.7,49.1-21.3c2.7-1.3,0.9-1.9-0.1-2.3c-4.1-1.9-8.1-3.7-12.3-5.3
			C747.6,875.6,704.3,867.3,655.2,868.3z M863.2,962.5c0-8.1-3.1-15.2-6.9-21.7c-10.5-18-26.5-29.7-45-38.5c-2.5-1.3-5.5-1.2-8,0.1
			c-15.8,7.3-30.7,16.2-47.6,21.1c-2.8,0.8-1.4,2,0,3.1c17.8,14.2,35.4,28.7,52,44.4c11,10.4,23,19.9,30.3,33.5
			c1.9,3.6,3.6,3.6,6.3,1.3C857.9,994.4,860.1,978.3,863.2,962.5z M429.6,556.9c6,0.1,12.4-1.7,18.8-3.6
			c12.3-3.6,19.8-11.8,23.3-23.8c1.2-4,1.9-8.1,2.7-12.2c0.2-1.1,0.3-2.7-0.3-3.3c-0.9-0.9-2,0.3-3,0.8c-1.8,0.8-3.6,1.7-5.4,2.6
			c-1.3,0.6-2.8,2-4,0.7c-1.3-1.4,0.4-2.6,1.1-3.7c2-3.2,4.2-6.4,6.3-9.6c0.9-1.4,2-2.7,1.6-4.6c-0.1-0.8,0.3-1.9-0.7-2.1
			s-1.3,0.9-1.6,1.6c-2,4.5-4.5,8.9-7.3,13c-4.2,6-9.5,7.4-15.8,3.7c-6.4-3.7-11.1-9.7-13.3-16.8c-2-6.4,0.4-10.2,7-11.8
			c6-1.5,12-2.5,18.1-3.1c1.4-0.1,3.9,0.3,2.7-2.5c-1.8-4-15.5-11.3-19.6-10.7c-14.6,2.1-28.5,8.1-40.1,17.3
			c-6.4,5.1-12.1,9.9-12.7,19.4C385.4,539.2,404.5,557,429.6,556.9z M511.8,349.9c0.3-21.7-1.1-43.2-3-64.8
			c-0.1-0.6-0.2-1.3-0.3-1.9c-0.1,0.6-0.2,1.1-0.3,1.7c-0.4,14.4-1.7,28.8-3.9,43.1c-5,31.8-17.1,60.8-35.5,87
			c-9.9,14-21.6,26.7-34.8,37.6c-0.6,0.5-1.8,0.8-1.4,1.8c0.2,0.4,1.5,0.3,2.3,0.3c0.8-0.1,1.6-0.2,2.4-0.4c14.9-2.5,30-3.4,45-4.5
			c0.9-0.1,2.3-0.5,2.5,0.7s-1.3,1.3-2.2,1.5c-6.1,0.9-12.1,2.4-18.3,2.2c-0.8,0-1.6,0.1-2.5,0.2c0.7,0.3,1.5,0.6,2.3,0.7
			c8.5,1.1,17,2.5,24.8,6.5c2.9,1.5,4,1,5-2.3C504.9,423.7,513.3,387.6,511.8,349.9L511.8,349.9z M598.8,858.3
			c-0.3-0.4-0.7-1.1-1.1-1.8c-6.6-11.1-17-17.4-28.3-22.7c-1.6-0.9-3.6-0.6-5.1,0.5c-3.8,2.6-7.5,5.5-11.7,7.5
			c-21.9,10.5-43.8,20.9-65.8,31.2c-10.9,5.1-22.2,9.5-33.2,14.2c-0.6,0.3-1.4,0.6-1.6,1.1c-0.2,0.7,0.6,0.4,1,0.4
			c3.4-0.1,6.5,1.3,10.3,0.3c17-4.6,34.2-8.4,51.2-12.9c20-5.3,39.4-12.6,58.9-19.2c8.1-2.7,9.1-1.5,13.4,5c2.1,3.3,6.4-1.6,10-1.3
			C598.2,860.9,599,860.2,598.8,858.3z M367.5,514.4c0.7-0.6,1.5-1.2,2.2-1.8c14.4-11.2,25.3-25.5,33.7-41.4
			c4.2-7.8,9.5-12.3,17.9-13.5c3-0.4,4.9-2.4,6.6-4.6c30.3-37.5,50.1-80,61-126.8c0.2-1,1.4-1.8,0.5-3c-0.5,1-1.1,2-1.5,3.1
			c-10.3,26.1-23.5,51-39.3,74.2c-15.2,22.3-34.9,41-49.7,63.5c-1,1.5-2,3-3,4.5c2.1,0.4,3-1.9,4.7-2.2c0.8-0.2,1.8-1,2.2-0.7
			c0.9,0.5,0.3,1.5-0.1,2.2c-5.8,8.8-11,18-17.7,26.1c-5.3,6.2-11,12.1-17.1,17.4c-0.7,0.6-1.8,1.1-1.4,2.4
			C366.6,514,367,514.1,367.5,514.4z M506.9,268.2c-1.1-9.6-2.5-22.7-4-35.9c-0.1-0.7-0.3-1.4-0.5-2c0,0.7-0.1,1.3-0.1,2
			c0.1,23.4-1.9,46.8-5.9,69.8c-5,28.8-12.8,56.7-24.6,83.4c-9.4,21.6-21.3,42-35.5,60.9c-0.3,0.5-0.6,1.1-0.8,1.6
			c0.5-0.2,1.1-0.5,1.5-0.9c23.8-21.6,42.4-48.4,54.1-78.3C503.3,337.6,505.2,304.8,506.9,268.2L506.9,268.2z M860.6,543
			c-0.6-10.9-3.7-20.5-6.7-30.1c-6.6-20.5-19-38.3-27.4-57.9c-0.2-0.4-0.6-0.6-0.9-0.9c0.1,0.6,0.3,1.3,0.5,1.9
			c5.2,16.3,9.2,32.8,10.6,50.1c1.4,17.7-0.2,34.7-7.8,50.7c-1.5,3.2-0.1,3.4,2,3.5c4.6,0.3,9.1,0.8,13.7,1.5
			c7.5,1.1,10.2-0.7,13.6-7.8C859.5,550.4,860.4,546.8,860.6,543L860.6,543z M363,477.8c0.7,7.7,1.5,15.5,2.3,23.2
			c0.1,0.8-0.7,2.1,0.7,2.4c0.3,0.1,1-1.2,1.3-1.9c2.7-5.4,6.3-10.1,9.9-14.9c3.7-4.9,9.2-8.4,12.3-13.7c4.3-7.3,9.6-13.9,14.5-20.8
			c16-22.6,30.3-46.4,42.8-71.1c0.2-0.6,0.5-1.1,0.6-1.7c-1.2-0.4-1.3,0.7-1.7,1.3c-6.9,10.6-15.1,20.2-23.1,30
			c-16.6,20.4-35.2,39-54.7,56.7C364.6,470.3,362,473.1,363,477.8z M731.8,414.7c-0.1-0.7-0.2-1.4-0.3-2
			c-4.5-22.8-10.9-45.2-17.7-67.4c-1.4-4.6-2.7-6.9-7.8-4.3c-2.4,1.2-5.4,1.5-8.1,1.9c-2.4,0.4-3.3,1.9-3.6,4
			c-1.6,9.1-1.4,18.5-4,27.4c-0.5,1.8,0.8,3,1.8,4.4c2.5,3.4,6.4,5.1,9.2,8.2c8.9,9.9,17.7,19.9,27.9,28.5c0.7,0.6,1.2,1.8,2.4,1.2
			C731.9,416.4,731.8,415.3,731.8,414.7z M833.8,286.6c0-7.3-0.7-14.6-2.1-21.8c-2.3-13.4-4.7-26.9-11.1-39
			c-15.6-29.4-37.3-54-61.3-76.7c-0.5-0.4-1-0.8-1.6-1.2c-0.7,1,0.4,1.5,0.8,2c7.6,10.7,15.2,21.4,22.1,32.6
			c20.2,33,37.9,67.2,48.9,104.5c1.1,3.6,2.1,7.2,3.1,10.9C833.3,294,834.2,290.1,833.8,286.6z M282.8,514.8c0-0.8,0-1.7,0-2.5
			c0.2-12.3,2-13.8,13.7-11.1c1.4,0.3,3.5,2,4.1-0.4c0.5-2.1,0.9-4.9-1.3-6.5c-7-4.9-20.3-5.2-23.2,6.3c-2,8,0.1,15.4,2.1,22.9
			c4.1,15,10.5,28.7,23,38.6c1.9,1.5,4.1,4.5,6.7,2.8c2.5-1.6,3-4.4,2.3-7.9c-3.3-16.5-7.2-33-8.4-49.8c-0.1-1.3-0.2-2.7-1.9-3.1
			c-4.2-0.8-8.7-3.4-12.5-1.4c-2.9,1.5-1.9,6-2.2,9.3c-0.1,1.5-0.6,3-0.6,4.4c-0.2,5.3,1.5,6.8,6.8,6.6c0.4,0,1.1,0,1.3,0.3
			c0.4,0.7-0.2,1.1-0.7,1.6c-1.3,1.4-2.7,1.4-4.5,0.7C282.1,523.5,282.6,519.1,282.8,514.8z M597.1,876.3c0,6.7,1.7,13.3,5,19.2
			c5.7,10.1,16,16,28.2,6.6c2.5-1.9,4.9-4,7.1-6.3c2.5-2.6,2.8-5,0.5-8.3c-7-9.3-12.5-19.6-16.5-30.5c-0.6-1.8-0.8-4.3-3.7-3.8
			c-3.7,0.6-8.9,0.6-9.9,4.1c-1.1,3.8-2.1,8.1-0.9,12.7c2.6,9.9,9,15.5,18.6,17.9c1,0.3,2.7,0.4,2.3,1.9s-1.7,1-2.9,0.7
			c-7.6-2.2-14.1-5.9-17.9-13.1c-1-2-1.5-2.8-1.8,0.2c0,0.6-0.5,1.1-1.1,1.1c-0.1,0-0.2,0-0.2,0c-1.1-0.2-0.9-1.2-0.9-2
			c-0.2-5.1,0.5-10.3,1.9-15.2c0.2-0.8,0.7-2.1-0.5-2.5c-0.5-0.2-1.5,0.6-2,1.2C598.2,864.9,597.4,870.6,597.1,876.3z M492,946.8
			c5.3,0,9.8,0,14.3,0c1.3,0,2.5,0.3,3.3-1.4c5.5-11.6,12.5-22.3,19.8-32.7c0.4-0.5,0.9-1.5,0.7-1.7c-0.7-0.9-1.4,0.1-2.1,0.3
			c-7.2,2.3-14.4,4.7-21.6,7c-20.3,6.4-39.8,14.9-59.5,22.7c-0.7,0.3-1.8,0.3-1.7,1.4c0,0.2,1.1,0.4,1.6,0.5
			C462.1,945.2,477.4,947.2,492,946.8z M415.5,671.5c-0.3,0.1-0.7,0-0.8,0.2c-0.6,0.9,0.3,1.5,0.6,2.2c7.5,15.5,16.3,30.3,26.4,44.3
			c1.8,2.4,2.9,2.1,5.1,0.9c11.1-5.6,22.3-11,33.4-16.6c1.4-0.7,4.1-0.8,3.3-3.5c-0.7-2.2-1.8-4.3-4.5-4.8c-3.9-0.6-7.8-1.4-11.7-2
			c-18.3-2.9-36-7.3-50.6-19.8C416.3,672.1,415.9,671.8,415.5,671.5z M453.9,470.7c-0.9-0.2-2.4-0.6-2.7,0.3
			c-0.6,1.6,1.2,1.6,2.1,2.1c3.5,2.3,6.9,4.6,9.3,8.1c2,3,1.9,4.7-2.2,5.3c-6.7,1.1-13.4,2.3-20,3.7c-4.9,1.1-6.4,3.3-5.1,8.3
			c1.7,6.7,6.2,12.4,12.3,15.7c4.1,2.3,7.7,1.6,10.7-2.7c3.5-5,7.1-10,9.1-15.9c1-2.7,2.8-4.7,4.7-0.3c0.6,1.5,1.4,3.1,3,0.7
			c3.2-5,6.5-10.1,9.6-15.2c0.7-1.1,1.2-2.1-0.9-2.9C474,474.5,464.5,470.5,453.9,470.7z M519.2,946.8c2.8-0.5,6.3,1.2,8.7-3.1
			c16.1-27.8,38.1-50.1,64.1-68.5c3.6-2.5,2.4-6.5,3.6-9.8c0.3-1-1-1.3-1.7-1.1c-3.1,1.1-6.6,1.2-8.6,4.4
			c-11,17.7-27.6,28.8-45.7,38c-2.4,1.1-4.5,2.8-6.1,4.9c-6.6,9.3-13.3,18.6-18.4,28.9C511.9,946.8,511.9,946.8,519.2,946.8z
			 M488.2,711.1c0.1-4.1-2.8-8-5.1-6.9c-11.8,5.7-23.5,11.4-35.2,17.1c-2,0.9-2.4,2-0.9,3.8c5.8,6.8,11.7,13.6,17.4,20.5
			c2.1,2.5,3.5,2.3,5.2-0.4c4.5-7.3,9.3-14.5,13.8-21.9C485.5,719.5,487.2,715.4,488.2,711.1z M309.3,668.2
			c-0.3,0.1-0.6,0.1-0.9,0.1c0.2,0.6,0.4,1.2,0.7,1.8c6.4,12.7,12.8,25.5,18.5,38.6c0.5,1.2,1.3,2.3,2.3,3.2
			c12.3,10.5,25.7,19.6,39.9,27.2c0.9,0.5,1.7,1.6,3.1,1.1c-0.7-0.9-1.3-1.8-2.1-2.6c-21-22-42.5-43.6-60.6-68.2
			C309.9,668.9,309.6,668.5,309.3,668.2z M700.1,954c-0.4-0.7-0.7-1.5-1.2-2.2c-4.7-8-8.8-16.3-12.2-25c-0.8-2.3-2.8-4.1-5.1-4.8
			c-9.8-3.5-18.3-9.1-26.2-15.9c-0.6-0.5-1.3-1-2-1.5c-0.6,1.2,0.5,1.9,1,2.5c13.5,16.6,28.3,32.2,44.2,46.6
			c0.4,0.3,0.8,0.6,1.2,0.9C699.9,954.5,700,954.2,700.1,954z M486.7,36.8c12.1,0,23.1-3.2,33-10.3c0.7-0.5,2.2-0.5,1.8-1.9
			c-0.1-0.3-1.5-0.4-2.2-0.3c-3.1,0.3-6.3,1.3-9.3,0.8c-10.7-1.4-18.5,4.2-26.3,10.1c-0.4,0.3-1,0.7-0.9,1c0.1,1,1,0.5,1.6,0.6
			C485,36.8,485.9,36.8,486.7,36.8z M686.7,349.9c-0.5-1.2,2-5.4-2.6-3.6c-5.2,2-10.6,1.9-16,2.9c-2.5,0.4-1.8,1.2-0.7,2.4
			c4.5,5,9.1,10.1,13.6,15.2c1.3,1.5,2.5,1.5,2.6-0.5C683.9,360.7,687.4,355.9,686.7,349.9z M696.2,328.4c0,6.6,0,6.6,7.5,4.4
			c0.9-0.4,1.9-0.6,2.8-0.9c2.3-0.4,2.6-1.6,1.8-3.5c-2.9-7.4-5.7-14.8-8.6-22.2c-0.3-0.7-1-1.9-1.4-1.8c-0.9,0.1-0.8,1.2-0.9,2.1
			C697,313.3,696.6,320.3,696.2,328.4z M483.4,462.4l-1,0.1c0.2,0.2,0.3,0.5,0.6,0.6c2.6,1.3,5.2,2.6,7.9,3.9c0,0,0.4-0.7,0.6-1.1
			C488.7,464.6,486,463.5,483.4,462.4z"/>
		<path d="M705,1025c-4.5-12.1-10.2-23.7-15.6-35.4c-7.5-16.4-15.4-32.7-23.1-49c-5.5-11.6-13.5-21.6-20.2-32.4
			c-0.4-0.9-0.8-1.7-1.3-2.6c0-1.4,0-2.7,1.8-2.8l1.5,1.5c6.2,12.1,14.1,23.1,22.3,33.9c15.3,20.1,33.1,38.2,52.8,54.1
			c18.8,15.1,40.8,23.4,63.8,29.6c2.7,0.7,5.9,0.7,7.9,3.1h-7c-11.9-3.4-23.7-6.8-35-11.8c-0.6-0.2-1.2-0.3-1.8-0.4
			c0.3,0.6,0.6,1.1,1.1,1.5c2.9,2.3,5.8,4.4,8.6,6.7c0.8,0.6,1.7,1.5,0.9,2.5c-0.9,1.1-1.8,0-2.5-0.5c-7.2-5.6-14.2-11.5-21.7-16.7
			c-17-11.7-32.7-25.1-47-40c-5.6-5.9-10.7-12.2-16.1-18.4c-0.5-0.6-0.6-1.5-1.7-1.5c0.2,0.8,0.4,1.5,0.7,2.2
			c10.9,23.6,21.7,47.2,32.6,70.8c0.8,1.8,2.2,3.4,1.9,5.5H705V1025z"/>
		<path d="M302,1025c-1.5-3.4-5.5-5.1-6-9.2c3.6,2.3,5.9,5.6,8,9.2H302z"/>
		<path d="M250,1016.9c0.3,2.9-1.5,5.3-2,8.1h-1C246.9,1022,248,1019.1,250,1016.9z"/>
		<path d="M836,313.1c-0.6-4.6,1.2-8.8,1.9-13.2c3.3-20.1-0.5-39.2-7.5-58c-0.7-2-2.1-3.9-1.4-6.2c5.9,10.6,8.6,22.3,10.9,34
			c2.8,12.9,2.2,26.4-1.7,39C837.6,310.3,837.5,312,836,313.1z"/>
		<path d="M817.8,559.1c-4.1-1-7.4-3.5-10.7-5.9c-1-0.7-2.9-1.3-1.7-2.8c0.9-1.2,2,0.3,2.8,0.9c3.4,2.6,7.1,4.7,11.1,6.2
			C818.7,558.1,818.2,558.6,817.8,559.1z"/>
		<path d="M635.1,1012.1c0,2.2,0.1,3.1,0,3.9c-0.1,0.9-0.6,1.7-1.5,1.6c-0.3,0-0.7-1-0.8-1.6c-0.5-2.1-0.8-4.2-1-6.4
			c-0.3-16.6-2.6-33-5-49.4c-2.1-14.7-3.8-29.5-5.8-44.2c-0.2-1.3-0.3-2.6,1.2-2.7c1.3-0.1,1.6,1.6,1.8,2.6
			c0.8,5.6,1.5,11.1,2.2,16.7c1.9,14.7,4,29.4,5.8,44.2c1,8.4,1.7,16.8,2.2,25.2C634.2,1005.4,634.6,1008.8,635.1,1012.1z"/>
		<path d="M165.9,434.8c-0.7-26.6,2-52.5,5-78.5c0.1-1.3,0.4-3.5,1.7-3.1c1.4,0.4,0.8,2.6,0.6,4c-4.4,26.3-5.3,52.9-5.6,79.5
			c-0.7,67.5,18.1,129.7,51.6,187.8c9.7,16.8,20.2,33.2,32.5,48.2c0.9,1.2,1.8,2.4,2.6,3.7c0.3,0.5,0.7,1.5,0.5,1.7
			c-0.9,0.8-1.4-0.3-1.9-0.8c-5.3-6.4-10.5-12.9-15.3-19.7c-12.5-17.8-24.3-36.2-33.2-56c-15.8-35.2-30-70.9-34.7-109.7
			C167.3,472.9,165.3,453.7,165.9,434.8z"/>
		<path d="M697.7,220.3c-0.3,0.4-0.5,1-0.8,1.1c-0.5,0-0.9-0.2-1.2-0.5c-0.6-0.8-1.2-1.6-1.7-2.5c-14.1-23.4-29.1-46.2-46.8-67.1
			c-15-17.8-31.4-34.4-49.1-49.7c-18.7-16-38.9-30.1-60.3-42.1c-4-2.3-8.3-4.1-12.4-6.4c-1.4-0.8-4.5-1.2-3.5-2.9
			c0.8-1.6,3.2,0.6,4.7,1.3c5.5,2.8,10.9,5.6,16.3,8.6c37.7,21,69.5,49.2,98.8,80.7c21.6,23.2,37.4,50,54.3,76.4
			C696.6,218.2,697.1,219.2,697.7,220.3z"/>
		<path d="M175.4,335.1c3.2-11.3,6.5-23.7,10.3-35.9c12.6-41.5,27.3-82.1,48-120.3c10.2-18.8,22.1-36.3,38.6-50.3
			c0.6-0.5,1.2-1.1,1.9-1.7c0.7-0.6,1.5-1.7,2.5-0.6c0.6,0.7-0.4,1.4-0.9,2c-0.2,0.2-0.5,0.5-0.7,0.7c-21.6,17.9-35,41.6-47,66.2
			c-20.6,42.2-35.5,86.5-47.8,131.7c-0.9,3.2-1.7,6.4-2.6,9.7c-0.2,0.9-0.3,2.3-1.6,2.1C174.7,338.5,175.3,337.2,175.4,335.1z"/>
		<path d="M752.7,593.1c-1.6-0.4-0.9-1.4-0.4-2.2c1.8-3,3.6-6,5.5-8.9c12.2-18.5,17.6-39.5,22.1-60.8c0.5-2.4,0.1-6.9,2.5-6.5
			c2.3,0.4,0.1,4.3-0.3,6.5c-4.5,24.5-11.9,47.9-26.4,68.5C754.7,590.9,754.1,592.2,752.7,593.1z"/>
		<path d="M319.6,210.7c9.6-24.8,22.3-48,36.8-70.3c0.6-0.9,1.1-2.6,2.3-1.9c1.1,0.6-0.2,1.7-0.6,2.5
			c-13.8,22.8-26.4,46.3-37.7,70.4C320.1,211.1,319.9,210.9,319.6,210.7z"/>
		<path d="M276,356.5c3.3-27.3,9.8-54.2,19.3-80c0.3-0.8,0.2-2.4,1.4-2c0.9,0.3,0.4,1.7,0.1,2.7c-4.8,14.6-9.8,29.1-13,44.2
			c-2.4,11.2-4,22.5-5.5,33.8c-0.1,1.1,0.1,2.7-1.5,2.6C275.5,357.6,276,356.1,276,356.5z"/>
		<path d="M324.7,581.2c-4.1-11.4-5.8-23.4-7.8-35.2c-2-11.7-3.3-23.6-4.8-35.4c-0.2-1.8-0.6-3.8,0.5-5.5c0.3,1.6,0.6,3.2,0.9,4.8
			c3.2,22.6,6.7,45.2,11.6,67.5c0.1,1.2,0.2,2.3,0.1,3.5C325,581,324.9,581.1,324.7,581.2z"/>
		<path d="M166.7,546.9c0.2-1.2-0.4-2.3,0.7-2.5c0.9-0.2,0.8,0.8,0.9,1.4c3.6,12.3,7.2,24.6,10.8,36.9c0.2,0.5,0,1.7-0.3,1.8
			c-0.8,0.3-0.9-0.7-1.1-1.2C172.9,571.3,169.8,558.9,166.7,546.9z"/>
		<path d="M300.4,264.8c-0.9-1.2-0.4-2.3,0-3.4c3.1-8.6,6-17.1,9.1-25.7c1.6-4.4,3.3-8.7,5-13c0.3-0.5,0.7-1,1.2-1.4
			c0.1,0.5,0.5,1,0.4,1.4c-4.9,13.7-9.9,27.3-14.8,41C300.9,264.1,300.7,264.4,300.4,264.8z"/>
		<path d="M811.3,480.3c-1.6,4.3-5,7.3-7.6,10.8c-0.5,0.6-1.2,1.4-2.1,0.8c-1-0.8,0.1-1.5,0.5-2c2.8-3.4,4.8-7.5,8.5-10.2
			C810.9,479.9,811.1,480.1,811.3,480.3z"/>
		<path d="M492.1,136.5c-0.1,0.5-0.3,1.1-0.5,1.7c-0.3-0.5-0.6-1-0.7-1.6c-0.9-4.7-1.8-9.4-2.7-14.1c-0.1-0.6,0.1-1.7,0.3-1.8
			c1-0.2,1.3,0.7,1.5,1.5C490.7,126.9,491.4,131.6,492.1,136.5z"/>
		<path d="M325.2,580.9c0.1,0.1,0.3,0.2,0.4,0.3c0.5,2.2,1,4.4,1.5,6.6c0,0.1-0.4,0.3-0.6,0.5c-1.2-2.1-1.7-4.6-1.7-7
			C324.9,581.1,325,581,325.2,580.9z"/>
		<path d="M320.3,211.3c-0.4,2.2-1.3,4.4-2.6,6.3c0,0.1-0.6-0.1-0.6-0.2c-0.1-2.6,1.2-4.6,2.6-6.7
			C319.9,210.9,320.1,211.1,320.3,211.3z"/>
		<path d="M495,160c-1.8-1.5-1.3-3.4-0.8-5.3c0.1-0.5,0.5-0.4,0.7,0.1C495.3,156.5,495.4,158.3,495,160L495,160z"/>
		<path d="M897.4,702.3c0.1,9.5-0.7,18.9-2.2,28.3c-0.2,1.1,0.6,3.2-1.5,2.9c-1.2-0.2-0.6-1.9-0.5-3.1c0.9-9.6,2.3-19.2,2.5-28.8
			c0.4-17.3-2.9-34.2-7.6-50.9c-0.5-1.6-2-3.3-0.7-5.2c1.5,1.2,1.7,3.1,2.3,4.8C895.2,666.7,897.7,683.5,897.4,702.3z"/>
		<path d="M676.8,420.8c19.1-0.5,34.9,4.4,47.4,18.1c4.9,5.4,9,11.7,8.6,18.5c-0.4,7.2,1.3,15.9-8.3,20.7c-6,3-11.4,7.9-16,13.3
			c-0.5,0.5-1.7,1.3-1.9,1.1c-0.9-0.7,0-1.5,0.4-2.1c1.9-3.3,3.8-6.6,5.9-9.8c2.5-3.8,3.5-7.7,2.1-12.2
			c-3.1-10.1-7.5-19.2-17.4-24.3c-0.7-0.4-1.6-1.3-2.2-0.7c-0.7,0.7,0.5,1.3,0.8,2c2.4,5.6,5.4,11,5.3,17.4c0,2.5-0.3,3.4-3.4,2.8
			c-4.1-0.7-7.8-2.6-11.8-3.8c-3.5-1-5,0-5.9,3.2c-2.3,8.2-0.5,16.1,1.4,24c0.7,3,2.8,2.8,4.8,0.8c3.6-3.7,7.2-7.4,10.9-11
			c0.7-0.8,1.2-2.3,2.7-1.4c1.1,0.6,0.6,1.8,0.5,2.7c-2.1,20.1-11.5,35.3-30.5,43.4c-17.9,7.7-34.8-1-40-20.5
			c-4-14.9-3.8-29.6,4.4-43.4c0.6-1,1.1-2.1,1.5-3.1c0.3-0.9,1.5-1.9,0.6-2.6c-1.3-0.9-2,0.7-2.7,1.4c-3.7,3.6-7.7,6.9-10.6,11.2
			c-0.8,1.2-1.9,2.8-3.6,1.7c-1.5-1-0.2-2.4,0.2-3.6c2.1-6,5.3-11.5,9.3-16.3c0.6-0.8,1.1-1.6,1.6-2.4c-1,0.4-2,0.8-2.9,1.3
			c-2.3,1.3-4.5,2.8-6.8,4.1c-0.9,0.5-2.1,1.9-3,0.7c-0.9-1.2,0.8-1.9,1.5-2.6c6.2-5.6,13.4-9.7,20.3-14.4c2.4-1.6,5.2-2.8,6.8-5.4
			c-2.4-0.2-5.1,0.2-7.3-0.7c-2.1-0.8-6.2,0.2-6-1.9c0.3-2.6,4.1-0.9,6.3-1.3c8.8-1.5,17.7-2.6,26.4-4.3
			C670,420.6,674,421.1,676.8,420.8z M630.2,483c0.1,12.1,1.9,19.9,5,27.3c2.3,5.7,7.2,9.9,13.1,11.4c6.1,1.8,12.7,1.7,18.7-0.3
			c17.5-5.7,26.6-18.5,30-36c0.1-0.6,0.3-1.7,0.1-1.8c-0.9-0.5-1.4,0.5-1.9,1c-2.8,2.6-5.4,5.5-8.3,7.9c-2.9,2.4-5.8,2-7.1-1.7
			c-3.3-9-4.4-18.4-1.7-27.8c1.1-3.6,4.1-5.2,7.9-3.9c3.6,1.2,7.2,2.5,10.7,3.9c1.5,0.6,2.7,1.1,2.4-1.2c-1.1-7.4-4.1-14.4-8.7-20.3
			c-0.8-1-2.3-1.2-3.6-1.4c-12.5-2.4-24.3,0.1-35.9,4.7c-3.1,1.2-6.6,2-8.5,4.9C634.9,461.1,630.3,473.3,630.2,483z"/>
		<path d="M559.4,653.1c-3.5-0.4-7.5-0.4-11.1-2.5c-5.6-3.2-6.1-7.6-0.9-11.8c1.5-1.1,3-2,4.7-2.7c11.5-6.3,24-8.4,36.9-9.3
			c4.7-0.3,6.2,1.3,5.9,6.3c-0.5,8.1-5.3,13-12.5,15.7C575,651.5,567.4,652.4,559.4,653.1z M560.5,650.5c5.9-0.7,13.2-1.4,20.1-3.8
			c4.2-1.3,7.7-4.1,10-7.8c1.5-2.7,2.1-6,0.4-8.5c-1.5-2.2-4.3-0.8-6.5-0.6c-1.5,0.1-3,0.3-4.4,0.5c-10.4,1.4-20.5,4-29.5,9.7
			c-1.7,1-3.6,2.1-3.2,4.6c0.4,2.2,1.9,4,4.1,4.6C554.3,650.3,557.4,650.7,560.5,650.5z"/>
		<path d="M599,567.3c0,0.8-0.2,1.4-1,1.5c-0.4,0-0.8-0.3-1-0.7c-0.3-0.6-0.5-1.2-0.7-1.8c-0.4-2.1-3-3.6-1.9-6.1
			c0.2-0.2,0.6-0.2,0.9-0.1C597.4,562.1,598,564.8,599,567.3z"/>
		<path d="M574.9,780.3c-1.8-0.9-0.4-2.1-0.1-2.9c3.8-11.2,9-21.3,18.7-28.9c14.8-11.5,29.6-23.1,45.5-33.1c1.1-0.7,2.7-2.7,3.7-0.8
			c1,1.7-1.5,2.3-2.6,3c-14.5,9.6-28.6,19.8-42.2,30.6c-9.5,7.6-16.8,16.9-20.7,28.6C576.8,778.1,576.6,779.7,574.9,780.3z"/>
	</g>
</g>
<g id="图层_1_1_">
	<g>
		<path d="M530,1025h6c0.7-0.4,1.5-0.7,2.2-1H531C530.6,1024.3,530.3,1024.6,530,1025z"/>
		<path d="M502,1025h3c0-0.3,0-0.7-0.1-1h-3C502,1024.3,502,1024.7,502,1025z"/>
		<path d="M399,1025h2c0.3-0.3,0.5-0.7,0.8-1h-2.9C398.8,1024.3,398.9,1024.6,399,1025z"/>
		<path d="M622,1025h2c0.1-0.3,0.1-0.7,0.2-1H622C622,1024.3,622,1024.7,622,1025z"/>
		<path d="M490,1025h2c0-0.3,0.1-0.7,0.1-1h-2.2C489.9,1024.3,489.9,1024.7,490,1025z"/>
		<path d="M645,1025h3c-0.1-0.3-0.1-0.7-0.2-1h-2.9C644.9,1024.3,645,1024.7,645,1025z"/>
		<path d="M832,1025h5c0.9-0.3,1.8-0.7,2.7-1h-6.3C832.9,1024.3,832.4,1024.6,832,1025z"/>
		<path d="M1025,796c-0.3-0.5-0.7-0.9-1-1.4v5.2c0.3,0.4,0.6,0.8,1,1.2V796z"/>
		<path d="M692,1025h3c-0.2-0.3-0.3-0.7-0.5-1h-3.1C691.6,1024.3,691.8,1024.7,692,1025z"/>
		<path d="M705,1025h3c0-0.3,0-0.7,0-1h-3.4C704.7,1024.3,704.9,1024.7,705,1025z"/>
		<path d="M788,1025h7c-0.3-0.4-0.7-0.7-1.1-1h-9.4C785.7,1024.3,786.8,1024.7,788,1025z"/>
		<path d="M302,1025h2c-0.2-0.3-0.4-0.7-0.6-1h-1.9C301.6,1024.3,301.8,1024.6,302,1025z"/>
		<path d="M247,1025h1c0.1-0.3,0.1-0.7,0.2-1H247C247,1024.3,247,1024.7,247,1025z"/>
		<path fill="#FFFFFF" d="M310.2,669.3c-0.3-0.4-0.6-0.8-0.9-1.1c-0.3,0.1-0.6,0.1-0.9,0.1c0.2,0.6,0.4,1.2,0.7,1.8
			c6.4,12.7,12.8,25.5,18.5,38.6c0.5,1.2,1.3,2.3,2.3,3.2c12.3,10.5,25.7,19.6,39.9,27.2c0.9,0.5,1.7,1.6,3.1,1.1
			c-0.7-0.9-1.3-1.8-2.1-2.6C349.7,715.5,328.3,693.9,310.2,669.3z"/>
		<path fill="#FFFFFF" d="M759.3,149.2c-0.5-0.4-1-0.8-1.6-1.2c-0.7,1,0.4,1.5,0.8,2c7.6,10.7,15.2,21.4,22.1,32.6
			c20.2,33,37.9,67.2,48.9,104.5c1.1,3.6,2.1,7.2,3.1,10.9c0.8-3.9,1.6-7.8,1.2-11.3c0-7.3-0.7-14.6-2.1-21.8
			c-2.3-13.4-4.7-26.9-11.1-39C805.1,196.5,783.3,171.9,759.3,149.2z"/>
		<path fill="#2384FD" d="M952.7,689.1c-0.7-1.1-1.3-3-2.5-2.8c-1.5,0.3-0.8,2.3-0.9,3.5c-1.9,19.7-9.2,37.7-16.7,55.7
			c-11.3,27-28.6,50-47.9,71.7c-4,4.4-8.4,8.4-11.2,13.9c-10.2,20-24.7,36.5-41.6,51.1c-7,6.1-6.9,6.1,0.7,11
			c9.4,6.1,18.6,12.4,26.6,20.2c13.3,12.9,18.5,28.7,18.1,47.3c-0.3,10.8-2.3,21.4-6,31.5c-5.6,15.6-16.4,26-31.4,31.9H1024V799.8
			c-3.3-4.1-5.5-9-8.3-13.4C994.6,754,973.7,721.5,952.7,689.1z"/>
		<path fill="#C8D8EC" d="M484.2,36.7c0.8,0.1,1.7,0.1,2.5,0c12.1,0,23.1-3.2,33-10.3c0.7-0.5,2.2-0.5,1.8-1.9
			c-0.1-0.3-1.5-0.4-2.2-0.3c-3.1,0.3-6.3,1.3-9.3,0.8c-10.7-1.4-18.5,4.2-26.3,10.1c-0.4,0.3-1,0.7-0.9,1
			C482.7,37.1,483.6,36.7,484.2,36.7z"/>
		<path fill="#F5EEF1" d="M495.9,804.9c-4.9-2.4-10-4.5-14.8-7.1c-16.4-9-31.7-20-48.5-28.3c-1.6-0.8-2.8-2.3-4.9-2.2
			c-7.2,0-14.2-1.5-20.8-4.4c-3.5-1.5-5.1-0.5-7,2.5c-8.1,12.6-14.6,25.9-20.5,39.6c-0.6,1.4-0.7,4.1-2.6,3.3
			c-1.6-0.7,0.2-2.9,0.8-4.3c3.3-7.2,6.7-14.4,9.9-21.6c0.3-0.6,1.3-1.2,0.4-2c-0.1-0.1-1,0.6-1.5,1c-23.2,19.4-47.1,38-68.3,59.7
			c-9.9,10.2-19.4,21-25.8,33.9c-14.2,28.7-18.2,59.8-20.1,91.3c0,2,0.1,4,0,6c-0.2,2.9,0,4.5,3.7,2.9c4.1-1.8,8.6-2.7,13.1-2.6
			c2.6,0.1,4.2-1.2,5.8-3.2c8.8-10.4,14.9-22.5,20.5-34.7c14-30.4,31.2-59.2,44.3-90c2.3-5.6,7-9.9,12.7-11.7
			c6-2.1,12.2-3.2,18.4-4.3c13.7-2.6,27.7-2.4,41.3-5.9c12.4-3.2,24.8-6.8,37.6-8.6c8.8-1.2,17.5-3.3,25.9-6.2
			c1.1-0.4,2.9-0.8,3-1.4C498.7,805,496.8,805.4,495.9,804.9z"/>
		<path fill="#0000C0" d="M863.5,1001.1c7.7-13.3,10.9-28,10.7-43.3c-0.2-16.4-5-31.2-17.3-42.6c-13.2-12.3-28-22.6-44.6-29.7
			c-40.8-17.3-83.8-24.9-127.8-27.1c-17.6-0.9-35.3-0.1-53-0.1c-1.9,0-4.7-0.8-5.4,1.2c-0.5,1.4,1.2,3.6,1.8,5.5s2.2,1.8,3.7,1.7
			c3.1-0.2,6.3-0.8,9.4-0.8c28.6-0.5,57,0.4,85.2,5.7c34.9,6.5,68.1,17.3,98.9,35.1c14.7,8.5,26.7,19.7,35,34.5
			c7.6,13.6,6.8,27.7,1.6,41.8c-4,11-8.5,21.7-19.6,27.7c-8.2,4.4-17.2,5.8-26.2,6.5c-18.9,1.3-36.3-4.3-53-12.4
			c-27.4-13.3-49.5-33.8-71.8-54c-15.7-14.2-29.7-30-42.9-46.5l-1.5-1.5c-0.3-2.7-3.1-3.8-4-6.1c-0.2-0.5-0.8-1.2-1.5-0.6
			c-0.6,0.4-0.8,1.1-0.4,1.7c1.4,2.6,2.8,5.2,4.2,7.8c0-1.4,0-2.7,1.8-2.8l1.5,1.5c6.2,12.1,14.1,23.1,22.3,33.9
			c15.3,20.1,33.1,38.2,52.8,54.1c18.8,15.1,40.8,23.4,63.8,29.6c2.3,0.6,4.8,0.7,6.8,2.1h39.5c1.8-1.1,3.8-1.7,5.7-2.5
			C849.1,1017,857.9,1010.8,863.5,1001.1z"/>
		<path fill="#FFFFFF" d="M791.7,552.6c-4,2-5,4.6-6.5,8c-1.4,3.3-0.1,4.3,2.7,5.2c6.9,2.4,14,2.9,21.2,2.9c6,0,10.5-2.6,14.1-7.1
			c3.1-3.8,5-8.2,6.6-12.7c6.2-16.7,6-33.8,3.7-51.1c-0.9-7.9-2.4-15.7-4.4-23.5c-0.2-0.7-0.2-1.8-1.3-1.6c-0.2,0.6-0.2,1.2-0.1,1.8
			c3,19.8,5.2,39.5,1.8,59.6c-1.9,11.3-3.8,22.2-12.9,30.2c-1.5,1.4-3.5,2.2-5.6,2.1c-6.4,0-11.4-3-16.2-6.4
			c-1.1-0.8-3.2-2.4-2.3-3.3c1.4-1.5,2.7,0.7,4,1.5c1.1,0.7,2.1,1.6,3.3,2.3c7.1,4.5,13.8,4,18.3-1.4c0.5-0.5,1-1.1,1.5-1.6
			c-0.5,0.5-1,1.1-1.5,1.6c-4.1-1-7.4-3.5-10.7-5.9c-1-0.7-2.9-1.3-1.7-2.8c0.9-1.2,2,0.3,2.8,0.9c3.4,2.6,7.1,4.7,11.1,6.2
			c3.3-2.7,4.6-6.6,5.5-10.4c4.1-18.7,3.9-37.6,2.5-56.5c-0.7-9.3-3.1-18.3-3-27.7c-0.1-0.9-0.4-1.8-0.7-2.7c-1.2,0.5-1,1.6-1.1,2.5
			c0,0.7,0,1.3,0,2c0.2,15.5-0.4,31-3.2,46.2C815.9,528.6,808.6,544.1,791.7,552.6z"/>
		<path fill="#C8D8EC" d="M535.9,798.3c-6.6-3.6-13-7.7-19.9-10.4c-15.7-6.1-28.5-16.3-40.4-27.7c-24.3-23.3-44.5-50.5-59.9-80.4
			c-23.7-45.5-39.5-93.5-48.2-144.1c-4.9-28.5-6.5-57.1-7.5-85.8c-0.8-22.8,1.2-45.5,2.7-68.3c1.4-20.5,3.3-41,7.4-61.1
			c7.6-36.7,17.6-72.9,30.1-108.3c2.1-6,4.4-11.8,6.6-17.7c0.3-0.7,0.5-1.8,1.6-1.4c0.8,0.3,0.2,1.2,0,1.8c-0.3,0.9-0.7,1.9-1,2.8
			c-15.5,43.2-28.2,87.2-36.9,132.3c-0.1,1.1-0.1,2.2,0.1,3.2c0.4-0.9,0.7-1.8,1-2.8c6.4-28.4,17-55.3,27.8-82.1
			c3.5-8.6,7.2-17.1,11-25.7c0.4-1,0.8-2.9,2-2.4c1.9,0.8-0.2,2.2-0.2,3.3c0,0.4-0.5,0.9-0.7,1.3c-15,35.9-30.3,71.7-38.7,109.9
			c-3.3,15-6.7,30-7.7,45.5c-0.9,13.6-1.7,27.2-2.5,40.8c-0.9,14.1-0.8,28.3,0.3,42.5c0.1,1.4-0.5,3.5,1,4c1.4,0.5,2.4-1.4,3.5-2.4
			c22.4-20.9,43.7-42.9,62.6-67.2c15.9-20.4,30.2-41.7,39-66.1c1.8-5,3.8-9.9,5.8-14.8c0.3-0.7,0.3-2.1,1.3-1.7
			c1.5,0.4,0.3,1.6,0.2,2.5c-0.2,0.6-0.4,1.3-0.7,1.9c-9.8,28.8-23.6,55.8-37.2,82.8c-4.3,8.4-9.3,16.5-14.8,24.2
			c-0.4,0.5-0.8,1.6-0.7,1.7c1.1,0.7,1.3-0.5,1.8-1c1.1-1,2-2.2,3-3.4c20.5-23.6,36.5-50.1,49.7-78.4C487.5,324,496,302,497.9,278
			c1.2-15.8,1.6-31.6,2.5-47.3c0.9-15.3-1.6-30.1-3.2-45c-0.9-8.5-3-17-2-25.7c0,0,0,0-0.1,0h0.1v0.1c0.3,0.3,0.8,0.7,0.9,1
			c2.5,18,5,36,7.3,54.1c2.3,18.4,4.5,36.8,6.3,55.3c1.3,12.7,2.6,25.4,3.6,38.1c1.5,20.1,1.5,40.3,1.1,60.4
			c-0.3,10.5-1.4,20.9-3.3,31.1c-2.4,13.8-5.5,27.5-9.3,41c-0.2,0.7-0.5,1.5,0.1,2.2c0.5-0.6,1-1.3,1.4-2c1.6-3.6,3.3-7.3,4.7-11
			c11.7-29.9,16-61.3,19-92.9c1.9-22.1,2.7-44.2,2.2-66.3c-0.1-7.8-0.1-15.7-0.2-23.5c0-1.1-0.3-3.1,0.7-3.1c1.2,0,0.9,1.9,0.9,2.9
			c2.2,38.9,0.8,77.9-4.2,116.5c-4.2,31.3-12.2,61.4-26.4,90c-8.2,16.5-15.2,33.6-26.1,48.6c-1.9,2.7-3.7,5.5-5.4,8.3
			c-0.4,0.7-1.1,1.9-0.9,2.2c0.9,1.1,1.8-0.2,2.6-0.5c22.4-10.1,38.6-27.6,52.6-46.9c9.2-12.7,16.8-26.7,25.2-40
			c0.7-1.1,1.2-3.6,2.9-2.5c1.4,0.9-0.5,2.6-1.1,3.7c-3.6,5.9-7.4,11.8-11,17.7c-9.4,15.1-18.6,30.2-27,45.9c-0.5,1-0.9,2-1.2,3.1
			c0.7-0.8,1.4-1.7,2.2-2.5c3.7-4,7.1-8.4,11.2-12c8.1-7.2,16-14.6,22.8-23c15.6-19.1,28.4-39.8,32.8-64.4c3.5-19.3,3.7-39,4.6-58.6
			c1-22.8-0.2-45.6-3.6-68.1c-0.2-1.1-0.8-2.6,0.9-2.8c1.4-0.2,1.1,1.3,1.2,2.2c2.2,13.3,3.5,26.7,3.9,40.1
			c0.7,29.9-0.9,59.8-5,89.5c-3.3,23.4-9.6,46.2-17.6,68.5c-0.6,1.8-1.1,3.6-1.7,5.4c1.2-1.6,2.3-3.2,3.3-4.8
			c21.7-39.9,31.8-82.8,33.7-128c0.6-15.8-1.1-31.5-3.1-47.2c-2.6-20.2-5.4-40.3-9.9-60.2c-7.5-33-17.1-65.3-32.5-95.7
			c-9.1-18.1-19-35.7-29.2-53.2c-0.6-1-2.1-2.5-0.6-3.4c0.9-0.6,1.7,1.3,2.2,2.3c17.6,31.7,37.4,62.3,48.1,97.4
			c6.6,21.6,13.7,43.2,17.4,65.5c3,18.7,9.3,36.3,17.6,53c19.4,38.9,41.9,76.2,67.3,111.6c0.7,0.9,1.4,1.8,2.1,2.7
			c0.3-1.4-0.7-2.3-1.2-3.3c-14-27.6-29.1-54.6-41.5-83c-11.8-27.2-21.4-55.2-31-83.2c-0.3-1-1.4-2.3,0.3-2.8
			c1.1-0.3,1.3,1.2,1.7,2.1c2.9,8.4,6.3,16.8,8.8,25.3c8.2,28.4,23.2,52.9,41.6,75.8c2.2,2.7,4.4,3.7,7.6,3.1
			c7-1.4,13.9-2.8,20.9-4.2c2.7-0.5,3.2-2.9,3.4-5c1.1-10.6,2.9-21.1,2.8-31.7c0-6.3,0.1-12.8-3.2-19.1
			c-19.2-37.1-40.7-72.7-67.2-105.1c-0.9-1.1-3.2-2.9-1.7-4.1c1.3-1.1,2.5,1.4,3.5,2.6c25.2,30.9,45.8,64.7,64.4,99.8
			c20.8,39.3,33.9,81.5,43.7,124.6c6.6,29.1,10.6,58.7,10.8,88.7c0.2,31.7-3.9,63.2-12.1,93.8c-5.7,21.3-14.8,40.7-29.1,57.6
			c-0.8,1-1.6,2.9-2.9,2c-1.4-1,0.3-2.2,1-3.2c0.2-0.3,0.4-0.5,0.6-0.8c16.2-19.5,25.3-42.1,30.6-66.6c3.6-16.7,6.8-33.3,8.1-50.4
			c0.9-12.4,1.9-24.9,1.8-37.4c0-1.1,0.5-2.4-0.8-3.2c-0.6,0.9-1.1,1.9-1.6,2.9c-3.6,10.1-7,20.3-9.1,30.9
			c-4.3,21.7-9.6,43.2-12.2,65.3c-2.4,20.4-13.1,37-27.2,51.4c-9.6,10.1-20.2,19.3-31.6,27.4c-2.3,1.6-2.3,2.5-1.1,2.4
			c3.3-0.4,6.6,1.7,9.9-2.1c12.1-13.7,25.4-26.4,39.6-38c0.9-0.7,2.1-2.4,3.2-0.9c0.8,1-0.8,1.9-1.7,2.7
			c-11.5,9.4-22.4,19.5-32.7,30.1c-9.4,9.7-17.2,20.5-21,33.9c-5.6,19.9-2.1,31.8,13.2,42.8c1.1,0.8,2.2,2.4,3.3,1.8
			c1.6-0.8-0.1-2.3-0.4-3.5c-2.2-9.3-3-18.7-1.3-28.1c3.3-18.4,14.7-32,27.5-44.5c7.7-7.6,16-14.6,24.1-21.7
			c8.3-7.3,14.1-16.3,19.5-25.7c0.5-0.8,0.9-2.2,2-1.5c1.1,0.6,0.3,1.7-0.2,2.6c-2.2,3.7-4.5,7.4-6.7,11.1c-0.4,0.6-0.6,1.3-1,2
			c0.7-0.3,1.4-0.7,2-1.1c23-18.8,39.8-42.4,50.9-69.8c9.1-22.1,12.1-46.2,8.7-69.8c-3.4-23.1-8.2-45.9-14.6-68.3
			c-10.7-37.7-22.5-75-39.1-110.7c-9.9-21.2-19.8-42.4-30.4-63.3c-0.3-0.7-0.5-1.5-0.6-2.2c1.1-0.1,1.3,0.8,1.7,1.5
			c0.5,0.7,0.8,1.4,1.2,2.2c11.9,22.6,23.5,45.4,33.7,68.9c21.1,48.9,36.9,100,46.9,152.3c0.5,2.7,0.2,5.7,2.1,8.1
			c2.4-1.9,2.6-4.9,3.6-7.4c10.8-26.7,14.1-54.1,7.7-82.3c-4-17.6-10.9-34.2-17.6-50.9c-0.6-1.5-1.2-3.1-1.7-4.7
			c-0.2-0.7-0.1-1.4,0.7-1.5c0.5,0,0.9,0.2,1.2,0.6c0.6,1,1.1,2,1.6,3.1c4.4,11.5,8.7,23,13.1,34.5c5.3,13.8,7.3,28.3,8,43
			c1.2,23.9-4.9,46.3-14.5,67.9c-0.9,1.8-1.1,3.8-0.8,5.7c1.3,9.9,1.6,19.9,0.8,29.9c-0.9,14.1-3.7,28-8.3,41.3
			c-0.3,0.7-0.8,2-0.5,2.2c0.9,0.7,1.7-0.2,2.5-0.7c9.9-6.2,17.1-14.6,20.7-25.9c5.6-17.4,6.7-35.2,6.9-53.3
			c-0.1-0.6-0.2-1.2-0.4-1.7c-0.4,0.4-0.8,0.9-1.2,1.4c-2.1,3.4-3.7,7.1-6.8,9.7c-1.6,4.3-5,7.3-7.6,10.8c-0.5,0.6-1.2,1.4-2.1,0.8
			c-1-0.8,0.1-1.5,0.5-2c2.8-3.4,4.8-7.5,8.5-10.2c0.2,0.2,0.4,0.4,0.6,0.6c-0.2-0.2-0.4-0.4-0.6-0.6c0.2-1,0.5-1.9,0.9-2.8
			c6.7-9.9,10.8-20.8,13.6-32.3c1.7-6.9,4.8-13.9,3.3-20.9C819.2,381.1,807.8,339,796,297c-7.7-27.3-21.9-51.8-34.3-77.1
			c-12.4-25.3-28.7-48-46.3-69.7c-17.5-21.5-37.7-40.4-59-58.1c-25.9-21.5-52.7-41.4-85.2-52c-0.8-0.3-1.9-0.6-1.7-1.5
			c0.3-1.3,1.6-0.9,2.5-0.7c6.6,1.7,12.9,4.1,19,7.1c33,16.9,61.9,39.3,88.9,64.5c34.1,31.9,63.5,67.3,84,109.6
			c8.5,17.5,17.9,34.5,25.5,52.4c10.4,24.7,15.7,51,22.9,76.6c6.2,22.1,11.7,44.4,16.8,66.8c0.2,0.7,0.4,1.4,0.6,2.1
			c0.2-0.6,0.3-1.3,0.4-1.9c0.6-5.8,1.5-11.5,1.7-17.3c0.7-21.3-0.4-42.6-3.4-63.7c-0.1-1-1-2.7,0.6-2.9c1.8-0.2,1.1,1.6,1.2,2.6
			c1.4,12.2,3.3,24.4,3.8,36.6c1.2,24.1-0.8,48.2-6,71.7c-1,4.3-0.8,8.1,1.1,12c4.2,8.5,8.4,17,12.7,25.5
			c8.1,16.1,15.7,32.4,19.9,50c2.5,10.5,2.4,20.5-4.4,29.5c-0.9,1.1-1.7,2.3-2.6,3.4c2,0.2,2.9-1.4,4.1-2.4c0.7-0.7,1.3-1.5,1.9-2.3
			c7.1-10.8,6.8-22.6,5-34.6c-3.8-24.2-12.1-46.9-22.3-69c-3.5-7.5-3.9-14.6-3.3-22.5c1-14.4,2.3-28.9,0.9-43.4
			c-1.4-14.5-4.2-28.8-7-43c-8-40.5-21.8-78.7-43.2-114.1c-7.2-11.8-14.3-23.7-21.9-35.2c-0.7-1.1-2.7-2.7-1.2-3.7
			c1.1-0.8,2.1,1.6,2.9,2.8c2.9,4.3,5.7,8.6,8.5,12.9c24.7,37.2,43.3,77.2,53.7,120.7c2.7,11.1,5,22.3,6.7,33.5
			c0.3,1.1,0.6,2.2,1.1,3.3c0-1,0-2,0-3.1c-1.9-33.9-10.1-66.5-21.4-98.3c-10.9-30.6-27.6-58.3-44.5-85.9c-17-27.9-37-52.9-63.9-72
			c-10.2-7.2-19.9-15-29.9-22.5c-0.9-0.7-2.7-1.2-1.8-2.5c1.1-1.7,2.3,0.1,3.3,0.8c2.3,1.6,4.6,3.3,6.9,5
			c20.6,15.5,40.5,31.8,59.7,49.1c26.6,23.8,50.6,49.5,69.1,80.1c0.8,1.3,1.6,2.4,2.4,3.7c0.7-1.8-0.8-3-1.5-4.3
			c-15.8-28.9-35.4-55.5-58.3-79.1c-18.8-19.4-37.9-38.5-58.2-56.3c-20-17.2-41.5-31.7-66.6-40.4c-30.5-10.6-62-14.8-94.1-15.5
			c-2.4,0-4.1,1-5.9,2.3c-15.8,11-33,17.5-52.6,16.7c-6.8-0.3-13.7-1.5-20.4-0.8c-11.9,1.3-23.5,1-34.7-3.5c-3-1.2-6.4-1.4-9.5-0.4
			C381.4,49.5,345.3,64.4,311.2,83c-60.8,33-110,78.2-145.1,138.1c-11.7,20-20,41.4-22.9,64.6c-3,24.3-5.6,48.7-6.4,73.1
			c-1.1,32.8-0.9,65.6,2,98.4c1.7,18.7,7.2,36.5,10.6,54.8c6.3,33.3,14.1,66.1,28.6,97c7,14.8,14.3,29.4,24.2,42.5
			c0.9,1.2,1.4,2.7,3,3.2c0.5-1.7-1-2.6-1.6-3.8c-1.8-3.4-3.8-6.6-4.9-10.4c-0.3-1.1-1.1-2.4,0.3-3.1c1.5-0.7,1.8,1,2.5,1.8
			c0.5,0.6,0.9,1.4,1.4,2c17.2,23.2,38.8,39.6,68.6,42.7c1.8,0.2,5.4,0,5.1,1.4c-0.7,2.5-3.8,1.2-6,1.2c-1.1,0-2.5-1.1-3.1,0.3
			c-0.5,1.2,0.9,2,1.7,2.8c6.4,6.8,13.4,13,20.9,18.5c15.1,11.2,32.4,18.4,48.5,27.7c0.4,0.2,1.2,0.5,1.3,0.4c0.6-0.9-0.4-1.4-0.8-2
			c-10.2-13.4-21.1-26.2-32.7-38.4c-11.4-12.1-23.2-23.9-34.7-35.9c-1-1.1-3.5-2-2.3-3.7c0.6-0.8,2.3,1.4,3.3,2.3
			c15.3,14.9,30.5,29.8,44.5,45.9c0.7,0.7,1.4,1.3,2.1,1.9c-0.2-0.9-0.5-1.7-0.9-2.6c-1.8-3.5-3.6-7.1-5.6-10.5
			c-25.3-41-46.9-84.1-64.3-129c-18.1-46-28.7-93.5-30.4-142.7c-1-28.7-1.7-57.6,1.7-86.3c1.8-15.2,3.6-30.3,7.7-45.1
			c7.4-26.4,18.7-51.1,32.1-75c10.1-18.1,20-36.3,31.9-53.4c17.2-24.7,36.5-47.4,61-65.3c1.1-0.8,2.7-2.7,3.7-1.5
			c1.1,1.4-1.2,2.2-2.1,3.2c-0.3,0.2-0.5,0.4-0.8,0.5c-16.8,12.3-31,27.1-44.1,43.1c-16.4,20.2-29.4,42.5-42.6,64.8
			c-31.3,53.3-48.1,110.3-47.1,172.4c0.3,18.3,0.9,36.6,1.8,54.9c0.8,15.6,2.6,31,5.4,46.4c6,33.5,17.2,65.5,29.3,97.2
			c18.5,48.3,46.7,91.5,70.6,137c0.5,0.6,1,1.2,1.6,1.7c-0.1-0.8-0.2-1.5-0.4-2.3c-6.5-15.3-13.8-30.2-21.3-44.9
			c-3.5-6.8-7.1-13.5-10.6-20.3c-0.3-0.6-1.2-1.6-0.1-2.1c0.9-0.5,1.4,0.4,1.8,1.2c3.8,6.2,7.9,12.1,12.5,17.7
			c21,26.7,43.9,51.9,68.5,75.3c11,10.5,23.4,19.3,39.1,21.9c1.6,0.3,3.3,0.3,4.9,0.5c-0.3-1.8-1.9-2.5-3-3.7
			c-14.3-13.7-28.4-27.7-40.9-43.2c-28.4-35.1-46.3-75.4-58.7-118.4c-2.8-9.9-5.2-19.8-7.1-29.9c-0.6-3.1-1.5-3.8-2.2-2.7
			c-2.8,4.1-5.6,1.8-8.1,0.1c-6.2-4.2-11.5-9.7-15.5-16.1c-7.7-11.7-10.8-25-13.4-38.6c-3-15.6,8.6-27.3,23.3-20.5
			c3.5,1.6,3.1-0.4,3-2.5c-0.3-6.2-0.9-12.3-0.9-18.5c-0.3-32.1,1.2-64.2,3.8-96.2c1.3-15.5,2.8-31.1,5.4-46.4
			c4.1-23.9,8.9-47.8,13.7-71.6c9.2-45.6,25.7-89.4,49-129.6c9.9-17,21.2-33.1,37.9-44.4c0.9-0.6,2.2-2.3,3.2-0.8
			c0.7,1-1.1,1.8-1.9,2.5c-9.9,7.4-18.6,16.2-25.8,26.2c-24.3,34.4-39.5,72.9-51.9,112.8c-7.6,24.3-11.1,49.6-16.3,74.5
			c-7.7,36.8-11.6,73.9-13.6,111.3c-1.3,24.3-1.8,48.6-1,72.9c0.4,11.4,1.4,22.9,3.2,34.2c3.1,20.1,7.3,40,11.7,59.8
			c9.3,42,24.2,81.8,47.9,118.1c16.7,25.5,38.1,46.7,59.6,67.7c5.1,5,11.5,8.4,17.8,11.8c0.7,0.3,1.4,0.5,2.2,0.6
			c-0.4-0.7-0.9-1.3-1.5-1.8c-7.4-5.5-13.8-12-20.5-18.2c-21-19.5-39.6-41.6-55.1-65.7c-16.4-25.1-27.7-52.5-35.8-81.3
			c-0.4-1.5-1.7-3.1-0.6-4.7c0.4-0.6,0.7-0.3,2,4.3c11.8,40.3,31.6,77.8,58.1,110.4c18.7,23.1,41.5,41.8,64,60.8
			c13.8,11.7,29.4,20,46,26.7c1.9,0.8,3.7,1.5,5.8,0.9c9.5-2.4,19.3-3.7,29.1-3.9c0.7,0,1.9,0.4,2.1-0.6
			C537.4,799.6,536.5,798.7,535.9,798.3z M752.2,590.8c1.8-3,3.6-6,5.5-8.9c12.2-18.5,17.6-39.5,22.1-60.8c0.5-2.4,0.1-6.9,2.5-6.5
			c2.3,0.4,0.1,4.3-0.3,6.5c-4.5,24.5-11.9,47.9-26.4,68.5c-0.8,1.2-1.4,2.6-2.8,3.4C751.1,592.6,751.8,591.6,752.2,590.8z
			 M521.9,50.2c0.8-1.6,3.2,0.6,4.7,1.3c5.5,2.8,10.9,5.6,16.3,8.6c37.7,21,69.5,49.2,98.8,80.7c21.6,23.2,37.4,50,54.3,76.4
			c0.6,1,1.1,2,1.7,3.1c-0.3,0.4-0.5,1-0.8,1.1c-0.5,0-0.9-0.2-1.2-0.5c-0.6-0.8-1.2-1.6-1.7-2.5c-14.1-23.4-29.1-46.2-46.8-67.1
			c-15-17.8-31.4-34.4-49.1-49.7c-18.7-16-38.9-30.1-60.3-42.1c-4-2.3-8.3-4.1-12.4-6.4C524.1,52.4,521,52,521.9,50.2z M494.2,154.7
			c0.1-0.5,0.5-0.4,0.7,0.1c0.4,1.7,0.5,3.5,0.1,5.2l0,0h-0.1v-0.1C493.2,158.4,493.7,156.5,494.2,154.7z M488.5,120.7
			c1-0.2,1.3,0.7,1.5,1.5c0.8,4.7,1.4,9.4,2.2,14.3c-0.1,0.5-0.3,1.1-0.5,1.7c-0.3-0.5-0.6-1-0.7-1.6c-0.9-4.7-1.8-9.4-2.7-14.1
			C488.1,121.9,488.3,120.8,488.5,120.7z M178.7,584.4c-0.8,0.3-0.9-0.7-1.1-1.2c-4.8-11.9-7.8-24.4-10.9-36.4
			c0.2-1.2-0.4-2.3,0.7-2.5c0.9-0.2,0.8,0.8,0.9,1.4c3.6,12.3,7.2,24.6,10.8,36.9C179.2,583.2,179,584.3,178.7,584.4z M219.1,624.6
			c9.7,16.8,20.2,33.2,32.5,48.2c0.9,1.2,1.8,2.4,2.6,3.7c0.3,0.5,0.7,1.5,0.5,1.7c-0.9,0.8-1.4-0.3-1.9-0.8
			c-5.3-6.4-10.5-12.9-15.3-19.7c-12.5-17.8-24.3-36.2-33.2-56c-15.8-35.2-30-70.9-34.7-109.7c-2.3-19.2-4.3-38.3-3.7-57.3
			c-0.7-26.6,2-52.5,5-78.5c0.1-1.3,0.4-3.5,1.7-3.1c1.4,0.4,0.8,2.6,0.6,4c-4.3,26.3-5.3,52.9-5.6,79.5
			C166.7,504.3,185.5,566.5,219.1,624.6z M275.7,128.3c-0.2,0.2-0.5,0.5-0.7,0.7c-21.6,17.9-35,41.6-47,66.2
			c-20.6,42.2-35.5,86.5-47.8,131.7c-0.9,3.2-1.7,6.4-2.6,9.7c-0.2,0.9-0.3,2.3-1.6,2.1c-1.3-0.2-0.8-1.5-0.7-3.6
			c3.2-11.3,6.5-23.7,10.3-35.9c12.6-41.5,27.3-82.1,48-120.3c10.2-18.8,22.1-36.3,38.6-50.3c0.6-0.5,1.2-1.1,1.9-1.7
			c0.7-0.6,1.5-1.7,2.5-0.6C277.3,127.1,276.2,127.7,275.7,128.3z M296.8,277.2c-4.8,14.6-9.8,29.1-13,44.2
			c-2.4,11.2-4,22.5-5.5,33.8c-0.1,1.1,0.1,2.7-1.5,2.6c-1.2-0.1-0.7-1.6-0.7-1.2c3.3-27.3,9.8-54.2,19.3-80c0.3-0.8,0.2-2.4,1.4-2
			C297.6,274.8,297.1,276.3,296.8,277.2z M316,222.7c-4.9,13.7-9.9,27.3-14.8,41c-0.2,0.4-0.5,0.8-0.8,1.1c-0.9-1.2-0.4-2.3,0-3.4
			c3.1-8.6,6-17.1,9.1-25.7c1.6-4.4,3.3-8.7,5-13c0.3-0.5,0.7-1,1.2-1.4C315.8,221.8,316.1,222.3,316,222.7z M358.1,140.9
			c-13.8,22.8-26.4,46.3-37.7,70.4l0,0c-0.4,2.2-1.3,4.4-2.6,6.3c0,0.1-0.6-0.1-0.6-0.2c-0.1-2.6,1.2-4.6,2.6-6.7
			c9.6-24.8,22.3-48,36.8-70.3c0.6-0.9,1.1-2.6,2.3-1.9C359.8,139,358.6,140.1,358.1,140.9z M326.4,588.2c-1.2-2.1-1.7-4.6-1.7-7
			c0.1-0.1,0.3-0.2,0.4-0.3c-0.1,0.1-0.3,0.2-0.4,0.3c-4.1-11.4-5.8-23.4-7.8-35.2c-2-11.7-3.3-23.6-4.8-35.4
			c-0.2-1.8-0.6-3.8,0.5-5.5c0.3,1.6,0.6,3.2,0.9,4.8c3.2,22.6,6.7,45.2,11.6,67.5c0.1,1.2,0.2,2.3,0.1,3.5c0.1,0.1,0.3,0.2,0.4,0.3
			c0.5,2.2,1,4.4,1.5,6.6C327,587.9,326.6,588.1,326.4,588.2z"/>
		<path fill="#FFFFFF" d="M830.8,560.2c4.6,0.3,9.1,0.8,13.7,1.5c7.5,1.1,10.2-0.7,13.6-7.8c1.5-3.5,2.3-7.1,2.6-10.9
			c-0.6-10.9-3.7-20.5-6.7-30.1c-6.6-20.5-19-38.3-27.4-57.9c-0.2-0.4-0.6-0.6-0.9-0.9c0.1,0.6,0.3,1.3,0.5,1.9
			c5.2,16.3,9.2,32.8,10.6,50.1c1.4,17.7-0.2,34.7-7.8,50.7C827.3,559.9,828.7,560.1,830.8,560.2z"/>
		<path fill="#FFDECA" d="M282.8,512.3c0.2-12.3,2-13.8,13.7-11.1c1.4,0.3,3.5,2,4.1-0.4c0.5-2.1,0.9-4.9-1.3-6.5
			c-7-4.9-20.3-5.2-23.2,6.3c-2,8,0.1,15.4,2.1,22.9c4.1,15,10.5,28.7,23,38.6c1.9,1.5,4.1,4.5,6.7,2.8c2.5-1.6,3-4.4,2.3-7.9
			c-3.3-16.5-7.2-33-8.4-49.8c-0.1-1.3-0.2-2.7-1.9-3.1c-4.2-0.8-8.7-3.4-12.5-1.4c-2.9,1.5-1.9,6-2.2,9.3c-0.1,1.5-0.6,3-0.6,4.4
			c-0.2,5.3,1.5,6.8,6.8,6.6c0.4,0,1.1,0,1.3,0.3c0.4,0.7-0.2,1.1-0.7,1.6c-1.3,1.4-2.7,1.4-4.5,0.7c-5.3-2.1-4.8-6.5-4.7-10.8
			C282.8,513.9,282.8,513.1,282.8,512.3z"/>
		<path fill="#B8B5C7" d="M621.9,1017c1.1-25.3-2.4-50.3-6.1-75.3c-0.1-0.6-0.2-1.2-0.4-1.8c-0.1,0.7-0.2,1.3-0.2,2
			c-1.5,12.5-4.9,24.4-12.1,34.8c-12.4,17.6-28.7,30.7-47.8,40.6c-5.5,2.8-11.4,4.4-17,6.8H622
			C621.9,1021.7,621.8,1019.3,621.9,1017z"/>
		<path fill="#F5EEF1" d="M539.4,1018.9c5.4-4,9.8-9,14.6-13.6c0.8-0.7,1.6-2.2,2.8-0.8c0.9,1-0.2,1.8-0.9,2.5
			c-3.4,3.4-6.9,6.8-10.4,10c-0.7,0.6-2.4,1.3-2,1.8c0.9,1.2,2.1-0.1,3-0.5c11.5-5.3,22.3-11.9,32.1-19.8
			c11.4-9.3,21.9-19.4,27.8-33.4c7.5-17.9,7.3-36.5,5.4-55.4c-0.1-1-0.7-1.9-1.6-2.3c-10.2-5.2-13.3-14.7-15.3-24.9
			c-1.1-5.4-0.9-5.5-5.3-2.2c-14,10.6-27.2,22-38.4,35.5c-7,8.4-13.9,17-19.3,26.6c-1.5,2.5-2.1,3.9,1.8,3.5
			c3.1-0.3,6.3-0.2,9.5-0.2c3.1-0.1,6.8-1,8.5,2.4c1.8,3.5-0.1,6.8-2,9.8c-1.1,1.5-2.4,2.8-3.9,3.8c-8.1,6.3-17.7,8.2-27.4,9.5
			c-2.1,0.3-3.5,0.8-4,2.8c-4.4,16.5-10.8,32.6-9.4,50.1h26C533.4,1021.8,536.7,1020.8,539.4,1018.9z"/>
		<path fill="#F5EEF1" d="M491.3,1009.7c1.2-11.5,3.7-22.7,7.3-33.7c0.5-1.4,0.7-2.8-2-2.4c-6.8,0.8-13.6,1.1-20.4,0.7
			c-16.7-0.7-33.5,0.2-50.1,2.6c-2.4,0.4-3.5,0.9-4.1,3.7c-3.2,15.9-10.2,30.7-20.3,43.3h88.1
			C489.4,1019.2,490.7,1014.5,491.3,1009.7z"/>
		<path fill="#0000C0" d="M503.5,1003.8c1.6-9.6,4.9-18.8,7.3-28.2c0.3-1.1,2-2.3-0.2-3.3c-2.3-1-8.6,2.1-9.5,4.6
			c-5.1,15.3-7.2,31.1-9.1,47h9.8C501.4,1017.2,502.4,1010.5,503.5,1003.8z"/>
		<path fill="#FAD5C1" d="M582.8,859.1c-1.6-1.9-4-1-6-0.3c-1.3,0.4-2.5,0.7-3.8,1.2c-24.3,8.4-48.8,16.4-73.7,22.7
			c-15.4,3.9-30.6,9.2-46.7,8.3c-7.6-0.4-15.3-0.4-22.9-1c-9.3-0.8-18.7-0.4-27.9-1.3c-7.4-0.8-14.5,0.3-21.7,2
			c-1.7,0.4-4.6,2.1-4.8,0.9c-0.5-2.3,2.7-2.2,4.4-2.8c15.3-4.8,31-1.8,46.6-1.6c7.3,0.1,14.7,1.8,21.8-0.3c6.6-2,12.9-5.2,19.2-8
			c22.6-9.7,44.4-20.8,67-30.5c15.5-6.6,30.1-14.8,41.4-27.9c3.5-4.1,6.4-8.4,6.2-14.2c-0.2-7.8-2-8.8-8.9-5.2
			c-14.3,7.6-28.7,15.8-45,17.6c-14,1.7-27.5,5.8-40.1,12c-28.5,13.8-58,22.7-90.3,21.7c-10.7-0.3-21.9,0.1-32.4,4.1
			c-0.8,0.3-1.8,0.8-2.2-0.1c-0.5-1.2,0.7-1.5,1.6-1.9c3.1-1.5,6.5-2.5,9.9-2.8c17.9-1.3,35.8-3.6,53.8-3c1,0,2-0.2,2.9-0.5
			c19-3.8,36.6-11.5,54.2-19.4c12.1-5.4,24.1-11.1,37.6-12.1c12.8-0.9,24.3-6.2,35.7-11.5c0.6-0.3,1.9-0.4,1.4-1.5
			c-0.1-0.4-1.1-0.5-1.7-0.6c-15.1-0.2-30.5-0.6-45.2,2.6c-18.6,4.1-36.8,10.1-55.8,13.3c-15.9,2.7-31.3,8-47.6,9.6
			c-11,1.1-22.1,2.4-32.9,5.6c-8.3,2.5-14.1,7.1-17.2,15.3c-1.7,4.9-3.7,9.6-6,14.3c-11.4,22.2-22.9,44.4-33.8,66.8
			c-7.1,14.5-13.9,29.2-24.1,41.9c-4.5,5.4-8.3,11.3-11.3,17.6c-1.7,3.6-1.8,6.7,0.9,10.1c0.3,0.4,0.6,0.7,0.9,1.1
			c0.2,0,0.3,0.1,0.5,0.3c4.3,5.2,7.9,11,12,16.4c1.4,1.3,2.5,2.8,3.6,4.4c0.5,0.5,0.9,1.1,1.4,1.6h94.1c0.5-0.3,0.9-0.7,1.4-1
			c0.4-0.5,0.9-0.9,1.2-1.4c7.8-9.7,13.6-21,17-33c1.3-4.6,2.3-9.3,3.3-14c0.3-1.2,1.2-3.3,2-1.7c1.5,2.6,3.1,1.3,4.7,1.1
			c9.4-0.7,18.9-1.9,28.3-2.1c19.7-0.4,39.5,0.4,59.1-3c9.9-1.7,20-2.8,28.6-8.9c2.3-1.4,4-3.4,5.1-5.9c2-5,1.4-5.9-3.9-5.8
			c-11.1,0.3-22.3,1-33.4,1.1c-17.9,0.1-35.9,0.5-53.7-2.4c-15.8-2.5-31.7-5.1-47.5-7.7c-1-0.2-2.8,0.4-2.8-1.1c0-2,1.9-1.4,3.1-1.2
			c6.1,0.8,12.2,1.5,18.2,2.7c7.5,1.6,14.3,0.4,21.2-2.6c21.9-9.4,44.1-18.3,67-25.1c17.5-5.2,33.6-13.1,47.7-24.8
			c7.3-6,14.9-11.7,18.5-21.1C583.9,863.7,584.5,861.1,582.8,859.1z"/>
		<path fill="#B8B5C7" d="M301.4,1024c-0.9-1.1-1.9-2.2-2.7-3.3c-0.7-0.8-1.4-1.6-1.9-2.5c-2.7-3.7-5.3-7.6-8-11.3
			c-4.8-4.3-8.4-9.4-10.1-15.9c-0.8-3.1-1.3-6.2-0.2-9.3c0.3-0.9,0.3-2.3,1.6-2.1c0.9,0.2,0.3,1.4,0.2,2.2c-0.1,2-0.1,4-0.1,6
			c0,1-0.1,2.2,1.1,2.5c0.3,0.1,1-1.2,1.4-1.9c1.8-3.2,3.6-6.3,5.4-9.5c0.6-1.1,2.2-2.1,1.3-3.4c-0.4-0.6-2.2-0.6-3.3-0.4
			c-9.5,1.4-18.5,3.7-23.6,13.1c-2.4,4.3-4.6,8.8-6.4,13.4c-2.1,5.1-3.1,10.7-6,15.4c0.2,2.6-1.1,4.7-1.8,7H301.4z"/>
		<path fill="#F6B6AF" d="M1,166.7V165c3.6,2.5,5.9,6.1,8.6,9.4c11.1,13.3,23.6,25.4,37.2,36c0.7,0.6,1.5,1.9,2.4,1.1
			c0.5-0.4,0.4-1.8,0.5-2.7c0.8-7.9,1.2-15.9,2.6-23.7c3.8-21.8,12-42.1,21.1-62.1c12.9-28.4,30.8-53.8,48.3-79.5
			c0.8-1.2,2.6-2.5,1.8-3.8c-0.7-1.2-2.8-0.6-4.2-0.4c-14.9,2.1-29.7,4.4-44.5,7.3c-23.6,4.6-46.9,11-69.7,19
			C3.6,67,1.9,68.1,0,69.1v96.6C0.3,166,0.7,166.4,1,166.7z"/>
		<path fill="#FFFFFF" d="M396.4,757.8c-17.5-11.8-37.2-20.1-54.2-32.7c-2.5-1.9-5.1-3.8-7.7-5.6c-0.9-0.6-1.7-2.1-2.8-1.2
			c-0.4,0.3,0.2,2.2,0.7,3.1c3.6,6.6,9.3,11.7,13.5,17.8c3.3,4.8,6.9,9.4,10.3,14.1c0.9,1.2,2.6,2.9,1.3,3.8
			c-1.7,1.3-2.9-1.1-3.6-2.3c-7.8-12.5-19.9-19.1-32.8-24.8c-2.9-1.3-5.6-2.9-8.4-4.4c-18.5-10.1-36.1-21.4-49.3-38.3
			c-0.8-1.1-1.9-1.8-3.2-2.1c-20.7-4.6-36.8-16.5-50.9-31.7c-0.7-0.8-1.2-2-2.5-2.1c0.4,1,0.9,2,1.5,3c3.3,4.4,6.7,8.7,10.1,13.1
			c0.8,1.1,3,2.2,1.8,3.6c-1.6,1.8-2.9-0.6-4.1-1.4c-8.5-6.4-15.1-14.6-20.8-23.5c-21.9-34.1-35.8-71.3-43.5-111
			c-3.9-19.9-9.5-39.5-13-59.5c-5.2-29.6-5.4-59.7-5-89.7c0.1-5-1.6-7.5-5.6-10.3c-23.7-16-41.8-37.2-56.5-61.6
			c-10.7-17.8-15.4-37.4-19-57.6c-2.4-12.7-3.4-25.7-3-38.6c0-1.1,0.4-2.2-0.9-3.1c-18.4-11.5-32.2-27.7-45.7-44.2
			c-0.2,0-0.4-0.1-0.6-0.2c-0.9-0.7-1.7-1.4-2.5-2.2V1024h247c0.1-2.6,1.2-5.1,3-7c3.2-14.4,6.6-28.7,18.6-38.8
			c1.8-1.5,1.2-2.8,1.2-4.3c0.1-34.3,5.6-67.5,20-98.8c6.2-13.4,16.3-24.2,26.3-34.8c17.9-19.1,38.5-35.2,58.4-52
			c8.6-7.2,17.6-14.1,23.5-24C400.1,760.9,399.4,759.9,396.4,757.8z"/>
		<path fill="#FFFFFF" d="M128.5,34.2c9.1-11.7,19-22.8,29.5-33.2h0.5c0.2-0.3,0.4-0.7,0.6-1H0v67.1c0.3-0.2,0.7-0.4,1-0.6V64
			c1.1-0.3,2.3-0.5,3.4-0.8C43.3,50.3,83,40.4,124,36.7C125.8,36.6,127.5,35.7,128.5,34.2z"/>
		<path fill="#5CA2E7" d="M473.9,15.1c5-4.3,9.4-9.4,14.1-14.1h0.7c0.4-0.3,0.8-0.7,1.1-1H161.2c-0.2,0.3-0.4,0.7-0.6,1h1.5
			c-9.5,9.5-19.5,18.6-27.5,29.6C104.1,72.4,75.2,115,59.8,165.2c-6.8,22.1-9.2,45.3-7.3,68.4s5.3,46.3,15,67.7
			c11.1,24.6,29,44.4,48.7,62.5c4.2,3.8,8.7,7.2,13.7,10c2.8,1.6,3.9,1.7,4.1-2.1c0.9-19,2.3-37.9,3-56.9
			c1.7-43.9,16.1-83,41.8-118.5c18.6-25.7,39.2-49.6,63.5-70.1c29.2-24.5,61.7-43.9,96-60.2c36-17,73.2-30.6,112.7-37.4
			C460.1,27,467.2,21,473.9,15.1z"/>
		<path fill="#C8D8EC" d="M561,1h1.2c0.3-0.3,0.6-0.7,0.9-1h-44.5c-0.3,0.3-0.5,0.7-0.8,1h0.2c-3.1,4.9-7,9.2-10.7,13.6
			c-2.1,2.5-4.8,4.5-6.3,7.5c3.4,1.6,6.7,0.1,10-0.3h0.5c11,0.6,20.8-1.5,27.1-11.7c0.4-0.7,1.3-1.5,2-0.9c1.1,0.9,0.2,1.7-0.4,2.5
			c-3.4,4.3-7.4,8.2-11.7,11.5c-14.4,11-29.8,18.4-48.7,14.6c-1.8-0.4-4,1.3-6,2c-0.3,0.1-0.5,0.4-0.7,0.6c0.4,0.2,0.8,0.3,1.2,0.4
			c12.4,0,24.9,0.8,36.8-3.7C530.9,29.5,547,16.6,561,1z"/>
		<path fill="#5CA2E7" d="M742,13.8c-1.8-4.2-4.6-8.1-5.1-12.8h0.1c-0.2-0.3-0.4-0.7-0.7-1H565.4c-1.3,1.6-2.7,3-4.2,4.3
			c-4.6,5.3-9.6,10.2-15.1,14.7c-0.7,0.6-1.8,1.6-1.7,2.2c0.3,1.2,1.7,0.6,2.5,0.6c18.6,0.2,37,2.6,55.3,5.9
			c39.5,7.2,73.7,24.8,103,51.8c12.7,11.7,25,24,37.2,36.3c3.3,3.3,4,2.4,5.5-1.3c4.9-11.7,6.3-24.1,6.7-36.6
			C755.2,55.6,750.7,34.3,742,13.8z"/>
		<path fill="#C8D8EC" d="M837.8,299.8c3.2-19.4-0.3-38-6.8-56.2c0,0,0,0,0-0.1c-2.6-4.8-4-10.1-6.5-14.9c0.1,0.4,0.3,0.9,0.4,1.3
			c5.6,14.8,9.1,30.4,10.5,46.2c0.7,8.8-0.1,17.5-1,26.2c-0.4,3.5-0.9,7.2,1.6,10.4C835.3,308.3,837.1,304.1,837.8,299.8z"/>
		<path fill="#FFFFFF" d="M1021.8,790.5c0.6,0.6,1.4,1,2.2,1.2V0H738.5c0.2,0.3,0.5,0.7,0.7,1h0.7c5.2,12.7,10.4,25.5,13.3,39
			c5.8,26.7,6.8,53.1-4.3,78.8c-1.3,3,0.6,3.9,2.1,5.3c15,14.7,29.3,30,41.9,46.9c12.6,16.5,23.2,34.4,31.8,53.3
			c0.5,1.1,1.3,2.4,1.3,3.8c1.9,3.6,3.2,7.5,4.8,11.3c0.3,0.6,0.5,1.2,0.8,1.8c0.3,0.5,0.5,1.1,0.8,1.6c0.1,0.2,0.1,0.3,0.1,0.5
			c3.5,8.5,5.5,17.4,7.3,26.4c2.8,12.9,2.2,26.4-1.7,39c-0.5,1.5-0.6,3.2-2.1,4.3c-0.2,9.6,4.2,18.4,4.8,27.9
			c0.7,11.8,2.1,23.5,2.6,35.4c0.6,15.6,0.6,31.3-0.2,46.9c-0.3,5.3-0.3,10.7-1.2,15.9c-0.7,3.7,0.2,6.7,1.7,10
			c9.9,21.7,19.1,43.7,23.1,67.4c1.8,10.8,3,21.8,0.3,32.6c-1.2,4.9-3.2,9.5-7.2,12.8c-3.3,2.7-2.2,3.8,1,5.2
			c20.4,9.3,38.7,21.9,55.7,36.5c10.9,9.3,20.2,20,26.2,33c4,8.7,5.4,18.4,6.5,28c0.5,4.1,0.6,8.3,0.7,12.5c0,2,0.7,3.9,1.8,5.5
			c24.1,35.3,46.7,71.6,69.4,107.8C1021.4,790.2,1021.6,790.3,1021.8,790.5z"/>
		<path fill="#C8D8EC" d="M515,1h0.5c0.3-0.3,0.6-0.7,0.9-1h-23.8c-0.9,0.8-1.9,1.6-2.8,2.5c-10.3,12.6-23.3,22.9-38,29.9
			c-0.5,0.4-1.2,0.5-1.8,0.5c-6.4-1.5-12.2,2.2-18.3,2.5c-0.8,0.2-1.6,0.5-2.3,1c0.6,0.7,1.5,1.2,2.4,1.4c12.6,4.3,26.3,4.4,39,0.2
			C490.5,31.7,503.2,16.9,515,1z"/>
		<path fill="#C8D8EC" d="M651.5,686c0.1-0.6,0.1-1.2,0-1.8c-0.4,0.3-0.7,0.7-1,1.1c-4.5,9.3-7.7,23.4,1.4,32.6
			C648.2,707.6,648.1,696.4,651.5,686z"/>
		<path fill="#B8B5C7" d="M660.8,948.8c-6.4-15.6-13.7-30.8-21.2-46c-0.4-0.9-0.3-2.8-2.5-2.2c-5.5,1.5-9.4,7.9-8.5,13.6
			c1,6.6,1.6,13.2,2.6,19.7c2.5,16.9,5,33.7,7.6,50.5c2.1,13.4,6.2,26.3,8.9,39.5h43.7c-0.6-1.1-1.2-2.2-1.7-3.3
			C678.7,997.3,670.7,972.7,660.8,948.8z"/>
		<path fill="#B8B5C7" d="M751.2,1012.8c0.3,0.6,0.6,1.1,1.1,1.5c2.9,2.3,5.8,4.4,8.6,6.7c0.8,0.6,1.7,1.5,0.9,2.5
			c-0.9,1.1-1.8,0-2.5-0.5c-7.2-5.6-14.2-11.5-21.7-16.7c-17-11.7-32.7-25.1-47-40c-5.6-5.9-10.7-12.2-16.1-18.4
			c-0.5-0.6-0.6-1.5-1.7-1.5c0.2,0.8,0.4,1.5,0.7,2.2c10.9,23.6,21.7,47.2,32.6,70.8c0.7,1.5,1.7,2.9,1.9,4.5h76.5
			c-10.7-3.1-21.3-6.3-31.5-10.8C752.4,1013,751.8,1012.9,751.2,1012.8z"/>
		<path fill="#0000C0" d="M666.3,940.6c-5.5-11.6-13.5-21.6-20.2-32.4c0.9,2.1,1.6,4.3,2.6,6.4c5.6,11.4,10.7,23,15.5,34.8
			c10.1,24.8,18.6,50.4,30.3,74.6h10.1c-4.4-11.8-10-23-15.2-34.4C682,973.2,674.1,956.9,666.3,940.6z"/>
		<path fill="#0000C0" d="M625.9,917.4c-0.4-2.8-0.3-5.6-0.4-8.4c-2.7,0.4-5.5,1.3-8.2,1c-2.8-0.3-2,1.1-2.1,2.5
			c-0.2,4.5,1,8.8,1.6,13.3c1.8,14.4,3.7,28.8,5.4,43.3c1.1,8.9,2.2,17.8,2.7,26.7c0.5,9.4,1.3,18.9-0.6,28.3h20.6
			c0-0.2,0-0.3-0.1-0.5C634.8,988.8,631.1,953,625.9,917.4z M635.1,1016c-0.1,0.9-0.6,1.7-1.5,1.6c-0.3,0-0.7-1-0.8-1.6
			c-0.5-2.1-0.8-4.2-1-6.4c-0.3-16.6-2.6-33-5-49.4c-2.1-14.7-3.8-29.5-5.8-44.2c-0.2-1.3-0.3-2.6,1.2-2.7c1.3-0.1,1.6,1.6,1.8,2.6
			c0.8,5.6,1.5,11.1,2.2,16.7c1.9,14.7,4,29.4,5.8,44.2c1,8.4,1.7,16.8,2.2,25.2c0.1,3.3,0.4,6.7,1,10
			C635.1,1014.3,635.2,1015.1,635.1,1016z"/>
		<path fill="#F5EEF1" d="M821,987c-21.6-21.5-45.6-40.3-68.9-59.9c-1.6-1.5-3.8-2.1-6-1.7c-18,3.4-36.4,3.3-54.4-0.2
			c-0.9-0.2-2.5-0.7-2.7-0.4c-0.7,1.1,0.4,2.1,0.8,3.1c3.4,6.8,6.5,13.8,10.2,20.4c4,7,6.8,14.6,13.6,19.9
			c16.5,12.6,32.5,25.8,51.5,34.7c14,6.5,28.5,11.4,46.1,12.2c6.3-0.9,14.5-1.9,22.7-3.4c3-0.5,5.1-1.8,2.3-5.7
			C831.7,999.2,826.6,992.8,821,987z"/>
		<path fill="#C8D8EC" d="M367.5,514.4c0.7-0.6,1.5-1.2,2.2-1.8c14.4-11.2,25.3-25.5,33.7-41.4c4.2-7.8,9.5-12.3,17.9-13.5
			c3-0.4,4.9-2.4,6.6-4.6c30.3-37.5,50.1-80,61-126.8c0.2-1,1.4-1.8,0.5-3c-0.5,1-1.1,2-1.5,3.1c-10.3,26.1-23.5,51-39.3,74.2
			c-15.2,22.3-34.9,41-49.7,63.5c-1,1.5-2,3-3,4.5c2.1,0.4,3-1.9,4.7-2.2c0.8-0.2,1.8-1,2.2-0.7c0.9,0.5,0.3,1.5-0.1,2.2
			c-5.8,8.8-11,18-17.7,26.1c-5.3,6.2-11,12.1-17.1,17.4c-0.7,0.6-1.8,1.1-1.4,2.4C366.6,514,367,514.1,367.5,514.4z"/>
		<path fill="#B63365" d="M685.8,374.5c-0.3,1.2-0.9,2.4,0.9,2.6c1.6,0.1,1-1.4,1.1-2.2c0.1-2.9,0.1-5.7,0.1-8.6
			C687.2,369,686.6,371.7,685.8,374.5z"/>
		<path fill="#FFDECA" d="M366,503.5c0.3,0.1,1-1.2,1.3-1.9c2.7-5.4,6.3-10.1,9.9-14.9c3.7-4.9,9.2-8.4,12.3-13.7
			c4.3-7.3,9.6-13.9,14.5-20.8c16-22.6,30.3-46.4,42.8-71.1c0.2-0.6,0.5-1.1,0.6-1.7c-1.2-0.4-1.3,0.7-1.7,1.3
			c-6.9,10.6-15.1,20.2-23.1,30c-16.6,20.4-35.2,39-54.7,56.7c-3.3,3-5.9,5.8-4.9,10.6c0.7,7.7,1.5,15.5,2.3,23.2
			C365.3,501.9,364.6,503.2,366,503.5z"/>
		<path fill="#F8B798" d="M572.3,832.3c11,5.2,20.6,12.2,27.6,22.4c1.1,1.6,1.9,2.3,3.9,0.8c3.5-2.6,7.5-4.3,11.8-5
			c2.3-0.4,3.6-1.3,2.5-4.5c-2-6.1-3.8-12.4-4.2-18.9c-1.4-24,3.3-46.6,15.6-67.4c7.3-12.4,14.9-24.7,22.4-37c0.9-1.5,3-3.2,0-4.7
			c0,0.6,0.2,1.5-0.1,1.8c-1.1,1-1.6-0.1-2.3-0.8c-5.8-6.9-7-14.8-5.2-23.3c2.4-11.4,8.9-20.6,15.6-29.7c0.5-0.7,2.3-2.5,1-2.4
			c-3.9,0.2-7.7-2.6-11.6-0.1c-15.7,10.3-31.7,20.1-47.1,30.9c-18.1,12.7-37.7,15.6-58.8,11.2c-18.3-3.8-36.8-6.6-55.2-9.6
			c-3.8-0.6-3,0.7-2,2.8c6,11.8,9.2,24.4,12.2,37.2c0.3,1.4,1.5,3.3-0.3,3.8c-1.9,0.5-1.9-2-2.3-3.2c-1.8-6.2-3.4-12.4-5.1-18.6
			c-0.2-0.7,0.2-1.9-1.1-1.8c-0.3,0-0.6,1-0.9,1.6c-3.3,7.7-7.9,14.6-12.4,21.5c-2.4,3.6-6.9,7.5-6.5,10.7c0.5,3.6,5.4,6.7,8.6,9.8
			c9.2,9,18.7,17.7,30.9,22.5c8.3,3.2,16.5,6.7,23.5,11.9c7.6,5.7,15.8,5.9,24.5,7.1c7,1,11.6-1.3,17.1-3.9c5.5-2.6,8.9-0.2,9.7,5.7
			c1.5,11.2-5.1,18.5-12.3,25.3C570,830.3,569.4,830.9,572.3,832.3z M577.3,776.8c-0.5,1.4-0.7,3-2.4,3.5c-1.8-0.9-0.4-2.1-0.1-2.9
			c3.8-11.2,9-21.3,18.7-28.9c14.8-11.5,29.6-23.1,45.5-33.1c1.1-0.7,2.7-2.7,3.7-0.8c1,1.7-1.5,2.3-2.6,3
			c-14.5,9.6-28.6,19.8-42.2,30.6C588.4,755.7,581.2,765.1,577.3,776.8z"/>
		<path fill="#C8D8EC" d="M684.1,346.3c-5.2,2-10.6,1.9-16,2.9c-2.5,0.4-1.8,1.2-0.7,2.4c4.5,5,9.1,10.1,13.6,15.2
			c1.3,1.5,2.5,1.5,2.6-0.5c0.3-5.5,3.8-10.3,3-16.3C686.2,348.7,688.7,344.5,684.1,346.3z"/>
		<path fill="#CACCDB" d="M464.5,745.7c2.1,2.5,3.5,2.3,5.2-0.4c4.5-7.3,9.3-14.5,13.8-21.9c2.2-3.8,3.8-8,4.8-12.3
			c0.1-4.1-2.8-8-5.1-6.9c-11.8,5.7-23.5,11.4-35.2,17.1c-2,0.9-2.4,2-0.9,3.8C452.9,732,458.7,738.8,464.5,745.7z"/>
		<path fill="#EB9492" d="M551.4,649.2c2.9,1.1,6,1.6,9.2,1.4c5.9-0.7,13.2-1.4,20.1-3.8c4.2-1.3,7.7-4.1,10-7.8
			c1.5-2.7,2.1-6,0.4-8.5c-1.5-2.2-4.3-0.8-6.5-0.6c-1.5,0.1-3,0.3-4.4,0.5c-10.4,1.4-20.5,4-29.5,9.7c-1.7,1-3.6,2.1-3.2,4.6
			C547.7,646.7,549.2,648.5,551.4,649.2z"/>
		<path fill="#B63365" d="M695.6,306c0.2-2.8,0.2-5.6,0.1-8.5c0-0.5-0.7-1-1.1-1.5c-0.1,0.4-0.2,0.9-0.3,1.4
			c-0.7,7.1-1.3,14.2-2,21.3c-0.6,6.4-1.2,12.8-1.9,19.1c-0.1,1.2,0.2,2.8-2.2,2.2c-3.7-1.1-7.1,0.4-10.3,2.1c-2.6,1.4-5.4,2.7-8,2
			c-3.1-0.9-5.8,0.6-8.8,0.5c-0.8,0-2.9,0.1-2.3,2.2c0.5,1.7,1.3,2.2,3.3,1.7c8.3-2.1,16.5-4.5,25.2-5c2.7-0.2,2.8,0.1,2.4,2.3
			c-1.3,6.6-1.3,13.4-1.6,20.1c3.3-5,2.9-10.9,3.7-16.5c0.7-4.7,1.4-8.6,7.3-9.2c3.2-0.3,6.4-1.5,9.6-2.2c1.2-0.3,2.3-0.8,2-2.3
			c-0.3-1.9-1.6-1.8-3-1.3c-4.1,1.2-8.4,1.9-12.1,4.2c-2.2,1.4-2.8,0.1-2.6-1.7C693.8,326.4,694.8,316.2,695.6,306z"/>
		<path fill="#FFDECA" d="M508.8,285.2c-0.1-0.6-0.2-1.3-0.3-1.9c-0.1,0.6-0.2,1.1-0.3,1.7c-0.4,14.4-1.7,28.8-3.9,43.1
			c-5,31.8-17.1,60.8-35.5,87c-9.9,14-21.6,26.7-34.8,37.6c-0.6,0.5-1.8,0.8-1.4,1.8c0.2,0.4,1.5,0.3,2.3,0.3
			c0.8-0.1,1.6-0.2,2.4-0.4c14.9-2.5,30-3.4,45-4.5c0.9-0.1,2.3-0.5,2.5,0.7s-1.3,1.3-2.2,1.5c-6.1,0.9-12.1,2.4-18.3,2.2
			c-0.8,0-1.6,0.1-2.5,0.2c0.7,0.3,1.5,0.6,2.3,0.7c8.5,1.1,17,2.5,24.8,6.5c2.9,1.5,4,1,5-2.3c10.9-35.7,19.3-71.8,17.8-109.4l0,0
			C512.1,328.3,510.7,306.7,508.8,285.2z"/>
		<path fill="#C8D8EC" d="M706.1,340.9c-2.4,1.2-5.4,1.5-8.1,1.9c-2.4,0.4-3.3,1.9-3.6,4c-1.6,9.1-1.4,18.5-4,27.4
			c-0.5,1.8,0.8,3,1.8,4.4c2.5,3.4,6.4,5.1,9.2,8.2c8.9,9.9,17.7,19.9,27.9,28.5c0.7,0.6,1.2,1.8,2.4,1.2c0.3-0.2,0.2-1.2,0.3-1.9
			c-0.1-0.7-0.2-1.4-0.3-2c-4.5-22.8-10.9-45.2-17.7-67.4C712.5,340.7,711.2,338.4,706.1,340.9z"/>
		<path fill="#C8D8EC" d="M502.3,230.3c0,0.7-0.1,1.3-0.1,2c0.1,23.4-1.9,46.8-5.9,69.8c-5,28.8-12.8,56.7-24.6,83.4
			c-9.4,21.6-21.3,42-35.5,60.9c-0.3,0.5-0.6,1.1-0.8,1.6c0.5-0.2,1.1-0.5,1.5-0.9c23.8-21.6,42.4-48.4,54.1-78.3
			c12.4-31.3,14.3-64.1,15.9-100.7c-1.1-9.6-2.5-22.7-4-35.9C502.7,231.7,502.5,231,502.3,230.3z"/>
		<path fill="#C8D8EC" d="M491.4,465.8c-2.7-1.1-5.4-2.3-8-3.4l-1,0.1c0.2,0.2,0.3,0.5,0.6,0.6c2.6,1.3,5.2,2.6,7.9,3.9
			C490.8,466.9,491.2,466.2,491.4,465.8z"/>
		<path fill="#0046C0" d="M469.1,504.8c0.9-1.4,2-2.7,1.6-4.6c-0.1-0.8,0.3-1.9-0.7-2.1s-1.3,0.9-1.6,1.6c-2,4.5-4.5,8.9-7.3,13
			c-4.2,6-9.5,7.4-15.8,3.7c-6.4-3.7-11.1-9.7-13.3-16.8c-2-6.4,0.4-10.2,7-11.8c6-1.5,12-2.5,18.1-3.1c1.4-0.1,3.9,0.3,2.7-2.5
			c-1.8-4-15.5-11.3-19.6-10.7c-14.6,2.1-28.5,8.1-40.1,17.3c-6.4,5.1-12.1,9.9-12.7,19.4c-2.1,31.1,16.9,48.9,42.1,48.8
			c6,0.1,12.4-1.7,18.8-3.6c12.3-3.6,19.8-11.8,23.3-23.8c1.2-4,1.9-8.1,2.7-12.2c0.2-1.1,0.3-2.7-0.3-3.3c-0.9-0.9-2,0.3-3,0.8
			c-1.8,0.8-3.6,1.7-5.4,2.6c-1.3,0.6-2.8,2-4,0.7c-1.3-1.4,0.4-2.6,1.1-3.7C464.9,511.2,467,508,469.1,504.8z"/>
		<path fill="#FFFFFF" d="M465.8,490.4c-1.1-1.5-2.2-3.1-3.4-4.5c-0.5,0.2-1.2,0.4-2,0.5c-6.7,1.1-13.4,2.3-20,3.7
			c-4.9,1.1-6.4,3.3-5.1,8.3c1.7,6.7,6.2,12.4,12.3,15.7c4.1,2.3,7.7,1.6,10.7-2.7c3.5-5,7.1-10,9.1-15.9c0.2-0.6,0.5-1.2,0.8-1.7
			C467.4,492.7,466.7,491.5,465.8,490.4z"/>
		<path fill="#DCBFBB" d="M483.7,478c-9.6-3.6-19.2-7.5-29.8-7.4c-0.9-0.2-2.4-0.6-2.7,0.3c-0.6,1.6,1.2,1.6,2.1,2.1
			c3.5,2.3,6.9,4.6,9.3,8.1c1,1.6,1.5,2.8,1.1,3.7c1.2,1.5,2.4,3,3.5,4.6c0.8,1.1,1.5,2.2,2.3,3.3c0.8-0.2,1.7,0.4,2.6,2.5
			c0.5,1.7,1.3,3.3,2.9,0.9c3.2-5,6.5-10.1,9.6-15.2C485.3,479.8,485.8,478.8,483.7,478z"/>
		<path fill="#FFDECA" d="M546.1,703.3c15.3,3.1,30.6,2.7,44.4-5.4c29.2-17.1,58.2-34.8,83.7-57.3c12.6-11.1,24.5-22.9,31.9-38.5
			c6.2-13,7.2-27.1,9.6-40.9c5-29,10.7-57.8,21.5-85.4c1.5-4.1,2-8.4,1.4-12.7c-1.5-12.3-3.2-24.6-4.8-36.9c0-1.5-0.7-2.9-1.9-3.8
			c-14.6-11.5-26.8-25.4-38.9-39.3c-1.8-2.1-3.2-3.7-6.6-2.2c-3.6,1.6-5.5-0.5-4.8-4.6c0.6-2.6-0.1-5.3-2-7.3
			c-4.4-4.8-8.7-9.7-12.8-14.6c-1.9-2.3-3.2-5.1-7.1-3.4c-1.7,0.7-2.1-1.2-3-2.4c-1.9-2.6,0.8-5.9-1.2-8
			c-8.6-9.4-15.1-20.1-21.7-30.9c-0.4-0.5-0.8-1-1.3-1.4c-0.4,0.7,0.1,1.2,0.3,1.8c3.6,8.2,6.9,16.5,10.8,24.5
			c13.2,26.7,26.9,53.2,41.1,79.5c0.5,0.9,1.8,2,0.7,3c-1.4,1.3-2.5-0.2-3.3-1.1c-2.3-2.6-4.5-5.3-6.5-8.1
			c-30.7-43.1-59.2-87.4-79-136.8c-0.3-0.7-0.7-1.4-1.2-2.1c-0.2,0.7-0.2,1.5-0.1,2.2c1,2.6,0.7,5.3,1.1,7.9
			c2.7,16.3,4.3,32.8,4.8,49.3c-0.7,9.3-1,19-1.9,28.6c-2,20.6-5.5,41-12.3,60.6c-6.6,19.3-13.6,38.5-25.7,55.2
			c-5.3,7.3-10,14.8-14.8,22.3c-4.4,6.9-9.3,13.3-14,20c-0.5,0.8-1.2,2.1-2.2,1.4c-1.1-0.8,0.1-1.7,0.6-2.5c0.3-0.4,0.6-0.8,0.9-1.2
			c21.1-27.2,34.5-57.9,41.6-91.5c0.2-0.9,0.7-1.8,0-2.6c-0.5,0.8-1.1,1.6-1.5,2.5c-9.8,19.3-22.2,36.9-38,51.6
			c-11.8,10.8-22.4,22.7-31.9,35.6c-0.6,0.9-1.2,2.5-2.6,1.7c-1.5-0.9,0-2.1,0.4-3c4.1-7.8,8.3-15.5,12.5-23.2
			c0.3-0.7,0.5-1.4,0.7-2.2c-0.6,0.4-1.2,0.9-1.8,1.5c-7.9,9.1-16.2,17.9-26.6,23.9c-5.6,3.3-8,7.1-8.5,13.5
			c-3,37.6-47.4,47.6-69.7,33.5c-14.7-9.4-24.6-26.8-21.4-47c0.2-1,0.2-1.9,0.2-2.9c-1.5,0-1.8,1.3-2.3,2.2
			c-3.4,5.8-4.9,12-3.3,18.6c1.5,7,3.9,13.7,7,20.1c0.5,1.1,2.1,2.5,0.8,3.5c-1.1,0.8-2.3-0.9-3.2-1.7c-3.5-3-7-6.2-10.5-9.2
			c-0.9-0.8-2.1-2.5-3.3-1.4c-0.7,0.6-0.4,2.6-0.2,3.8c6.3,35.9,16.6,70.9,30.8,104.4c2.9,6.8,4.5,15.1,9.9,19.8
			c9.3,8.3,19.5,16,31.9,19.7c15.7,4.6,31.8,7.3,47.9,9.9C509.4,696.7,527.8,699.6,546.1,703.3z M619.4,449.3
			c6.2-5.6,13.4-9.7,20.3-14.4c2.4-1.6,5.2-2.8,6.8-5.4c-2.4-0.2-5.1,0.2-7.3-0.7c-2.1-0.8-6.2,0.2-6-1.9c0.3-2.6,4.1-0.9,6.3-1.3
			c8.8-1.5,17.7-2.6,26.4-4.3c4-0.8,8-0.3,10.7-0.6c19.1-0.5,34.9,4.4,47.4,18.1c4.9,5.4,9,11.7,8.6,18.5
			c-0.4,7.2,1.3,15.9-8.3,20.7c-6,3-11.4,7.9-16,13.3c-0.5,0.5-1.7,1.3-1.9,1.1c-0.9-0.7,0-1.5,0.4-2.1c1.9-3.3,3.8-6.6,5.9-9.8
			c2.5-3.8,3.5-7.7,2.1-12.2c-3.1-10.1-7.5-19.2-17.4-24.3c-0.7-0.4-1.6-1.3-2.2-0.7c-0.7,0.7,0.5,1.3,0.8,2
			c2.4,5.6,5.4,11,5.3,17.4c0,2.5-0.3,3.4-3.4,2.8c-4.1-0.7-7.8-2.6-11.8-3.8c-3.5-1-5,0-5.9,3.2c-2.3,8.2-0.5,16.1,1.4,24
			c0.7,3,2.8,2.8,4.8,0.8c3.6-3.7,7.2-7.4,10.9-11c0.7-0.8,1.2-2.3,2.7-1.4c1.1,0.6,0.6,1.8,0.5,2.7c-2.1,20.1-11.5,35.3-30.5,43.4
			c-17.9,7.7-34.8-1-40-20.5c-4-14.9-3.8-29.6,4.4-43.4c0.6-1,1.1-2.1,1.5-3.1c0.3-0.9,1.5-1.9,0.6-2.6c-1.3-0.9-2,0.7-2.7,1.4
			c-3.7,3.6-7.7,6.9-10.6,11.2c-0.8,1.2-1.9,2.8-3.6,1.7c-1.5-1-0.2-2.4,0.2-3.6c2.1-6,5.3-11.5,9.3-16.3c0.6-0.8,1.1-1.6,1.6-2.4
			c-1,0.4-2,0.8-2.9,1.3c-2.3,1.3-4.5,2.8-6.8,4.1c-0.9,0.5-2.1,1.9-3,0.7C617,450.7,618.7,450.1,619.4,449.3z M594.5,560.2
			c0.2-0.2,0.6-0.2,0.9-0.1c2,2,2.7,4.7,3.7,7.2c0,0.8-0.2,1.4-1,1.5c-0.4,0-0.8-0.3-1-0.7c-0.3-0.6-0.5-1.2-0.7-1.8
			C595.9,564.2,593.4,562.7,594.5,560.2z M547.3,638.9c1.5-1.1,3-2,4.7-2.7c11.5-6.3,24-8.4,36.9-9.3c4.7-0.3,6.2,1.3,5.9,6.3
			c-0.5,8.1-5.3,13-12.5,15.7s-14.8,3.6-22.8,4.3c-3.5-0.4-7.5-0.4-11.1-2.5C542.6,647.4,542.2,643,547.3,638.9z"/>
		<path fill="#0000C0" d="M593.9,864.3c-3.1,1.1-6.6,1.2-8.6,4.4c-11,17.7-27.6,28.8-45.7,38c-2.4,1.1-4.5,2.8-6.1,4.9
			c-6.6,9.3-13.3,18.6-18.4,28.9c-3.2,6.4-3.2,6.4,4.1,6.4c2.8-0.5,6.3,1.2,8.7-3.1C544,916,566,893.7,592,875.3
			c3.6-2.5,2.4-6.5,3.6-9.8C596,864.4,594.7,864,593.9,864.3z"/>
		<path fill="#B8B5C7" d="M598.8,858.3c-0.3-0.4-0.7-1.1-1.1-1.8c-6.6-11.1-17-17.4-28.3-22.7c-1.6-0.9-3.6-0.6-5.1,0.5
			c-3.8,2.6-7.5,5.5-11.7,7.5c-21.9,10.5-43.8,20.9-65.8,31.2c-10.9,5.1-22.2,9.5-33.2,14.2c-0.6,0.3-1.4,0.6-1.6,1.1
			c-0.2,0.7,0.6,0.4,1,0.4c3.4-0.1,6.5,1.3,10.3,0.3c17-4.6,34.2-8.4,51.2-12.9c20-5.3,39.4-12.6,58.9-19.2c8.1-2.7,9.1-1.5,13.4,5
			c2.1,3.3,6.4-1.6,10-1.3C598.2,860.9,599,860.2,598.8,858.3z"/>
		<path fill="#F6F2F3" d="M637.5,881.9c10.7,15.2,23.2,28.4,40.5,35.8c24.4,10.5,49.6,9,74.7,3.4c17.6-3.9,32.9-13.7,49.1-21.3
			c2.7-1.3,0.9-1.9-0.1-2.3c-4.1-1.9-8.1-3.7-12.3-5.3c-41.7-16.7-85-24.9-134.2-24c-4.5,0.1-13.2-0.4-21.9,0.4
			c-2.7,0.3-3.6,1.2-2,3.6C633.4,875.5,635.3,878.8,637.5,881.9z"/>
		<path fill="#2384FD" d="M755.8,926.6c17.8,14.2,35.4,28.7,52,44.4c11,10.4,23,19.9,30.3,33.5c1.9,3.6,3.6,3.6,6.3,1.3
			c13.5-11.4,15.8-27.6,18.9-43.4c0-8.1-3.1-15.2-6.9-21.7c-10.5-18-26.5-29.7-45-38.5c-2.5-1.3-5.5-1.2-8,0.1
			c-15.8,7.3-30.7,16.2-47.6,21.1C752.9,924.3,754.3,925.4,755.8,926.6z"/>
		<path fill="#0000C0" d="M617.7,853.2c-3.7,0.6-8.9,0.6-9.9,4.1c-1.1,3.8-2.1,8.1-0.9,12.7c2.6,9.9,9,15.5,18.6,17.9
			c1,0.3,2.7,0.4,2.3,1.9s-1.7,1-2.9,0.7c-7.6-2.2-14.1-5.9-17.9-13.1c-1-2-1.5-2.8-1.8,0.2c0,0.6-0.5,1.1-1.1,1.1
			c-0.1,0-0.2,0-0.2,0c-1.1-0.2-0.9-1.2-0.9-2c-0.2-5.1,0.5-10.3,1.9-15.2c0.2-0.8,0.7-2.1-0.5-2.5c-0.5-0.2-1.5,0.6-2,1.2
			c-3.9,4.7-4.7,10.4-5,16c0,6.7,1.7,13.3,5,19.2c5.7,10.1,16,16,28.2,6.6c2.5-1.9,4.9-4,7.1-6.3c2.5-2.6,2.8-5,0.5-8.3
			c-7-9.3-12.5-19.6-16.5-30.5C620.7,855.2,620.6,852.7,617.7,853.2z"/>
		<path fill="#F6F2F3" d="M931,622.7c-9.6-11.1-20.4-21.1-32.2-29.7c-16.3-11.8-32.7-23.8-53-27.9c-9.1-1.8-19.4-6.3-27.3,3.6
			c-0.6,0.8-2,1.1-3.1,1.5c-9.5,2.7-18.8,1-27.9-1.8c-3.6-1.1-5.3-0.9-7.4,2.6c-10.4,17.9-22.1,35.3-38.5,48
			c-14.2,11-27.8,22.8-41,34.8c-13.7,12.4-25.5,26.3-29.6,45c-2.5,11.2-0.6,22.4,2.4,33.4c0.3,1,1.4,2.2-0.1,3
			c-0.9,0.5-1.9-0.1-2.8-0.7c-4.1-2.9-8.6-5.3-11.8-9.1c-3-3.5-4.3-2.3-6.2,0.9c-5,8.6-10.2,17.1-15.5,25.5
			c-12.8,20.4-20.5,42.5-20.9,66.8c-0.2,11.6,3.1,22.5,6.6,33.4c1,3.2,2.5,3.9,5.6,3.9c40.6-0.7,81.1-0.3,121.1,7.9
			c24.1,5,47.8,11.2,69.8,22.4c2.6,1.3,4,0.4,5.6-1.1c5.3-4.8,10.6-9.6,15.8-14.5c14.3-13.7,26.7-28.7,33.9-47.3
			c6.9-17.7,13.4-35.5,20.2-53.3c0.4-1,0.6-3.2,2.3-2.4c1.3,0.6,0.1,2.1-0.3,3.1c-6.7,15.3-11.2,31.4-17.5,46.8
			c-0.3,0.8-0.5,1.5-0.6,2.3c1.1,0.2,1.3-0.8,1.8-1.3c1.3-1.5,2.5-3.1,3.8-4.6c20.2-21.4,35.6-45.9,47.1-73.1
			c11.2-26.5,17.5-53.7,14.1-82.5C944.1,645.1,939.9,632.8,931,622.7z M897.4,702.3c0.1,9.5-0.7,18.9-2.2,28.3
			c-0.2,1.1,0.6,3.2-1.5,2.9c-1.2-0.2-0.6-1.9-0.5-3.1c0.9-9.6,2.3-19.2,2.5-28.8c0.4-17.3-2.9-34.2-7.6-50.9
			c-0.5-1.6-2-3.3-0.7-5.2c1.5,1.2,1.7,3.1,2.3,4.8C895.2,666.7,897.7,683.5,897.4,702.3z"/>
		<path fill="#B8B5C7" d="M686.7,926.8c-0.8-2.3-2.8-4.1-5.1-4.8c-9.8-3.5-18.3-9.1-26.2-15.9c-0.6-0.5-1.3-1-2-1.5
			c-0.6,1.2,0.5,1.9,1,2.5c13.5,16.6,28.3,32.2,44.2,46.6c0.4,0.3,0.8,0.6,1.2,0.9c0.1-0.2,0.2-0.4,0.3-0.7
			c-0.4-0.7-0.7-1.5-1.2-2.2C694.2,943.8,690.1,935.5,686.7,926.8z"/>
		<path fill="#C8D8EC" d="M703.7,332.8c0.9-0.4,1.9-0.6,2.8-0.9c2.3-0.4,2.6-1.6,1.8-3.5c-2.9-7.4-5.7-14.8-8.6-22.2
			c-0.3-0.7-1-1.9-1.4-1.8c-0.9,0.1-0.8,1.2-0.9,2.1c-0.4,7-0.7,14-1.2,22C696.2,335,696.2,335,703.7,332.8z"/>
		<path fill="#B8B5C7" d="M530.2,910.9c-0.7-0.9-1.4,0.1-2.1,0.3c-7.2,2.3-14.4,4.7-21.6,7c-20.3,6.4-39.8,14.9-59.5,22.7
			c-0.7,0.3-1.8,0.3-1.7,1.4c0,0.2,1.1,0.4,1.6,0.5c15.2,2.4,30.5,4.4,45.1,4c5.3,0,9.8,0,14.3,0c1.3,0,2.5,0.3,3.3-1.4
			c5.5-11.6,12.5-22.3,19.8-32.7C529.8,912.1,530.4,911.2,530.2,910.9z"/>
		<path fill="#0044C1" d="M635.2,510.3c2.3,5.7,7.2,9.9,13.1,11.4c6.1,1.8,12.7,1.7,18.7-0.3c17.5-5.7,26.6-18.5,30-36
			c0.1-0.6,0.3-1.7,0.1-1.8c-0.9-0.5-1.4,0.5-1.9,1c-2.8,2.6-5.4,5.5-8.3,7.9c-2.9,2.4-5.8,2-7.1-1.7c-3.3-9-4.4-18.4-1.7-27.8
			c1.1-3.6,4.1-5.2,7.9-3.9c3.6,1.2,7.2,2.5,10.7,3.9c1.5,0.6,2.7,1.1,2.4-1.2c-1.1-7.4-4.1-14.4-8.7-20.3c-0.8-1-2.3-1.2-3.6-1.4
			c-12.5-2.4-24.3,0.1-35.9,4.7c-3.1,1.2-6.6,2-8.5,4.9c-7.5,11.3-12.1,23.5-12.2,33.2C630.3,495.2,632.1,502.9,635.2,510.3z"/>
		<path fill="#FFFFFF" d="M480.2,702.6c1.4-0.7,4.1-0.8,3.3-3.5c-0.7-2.2-1.8-4.3-4.5-4.8c-3.9-0.6-7.8-1.4-11.7-2
			c-18.3-2.9-36-7.3-50.6-19.8c-0.4-0.3-0.8-0.6-1.2-0.9c-0.3,0.1-0.7,0-0.8,0.2c-0.6,0.9,0.3,1.5,0.6,2.2
			c7.5,15.5,16.3,30.3,26.4,44.3c1.8,2.4,2.9,2.1,5.1,0.9C457.9,713.5,469.1,708.2,480.2,702.6z"/>
		<path d="M644.8,905.7L644.8,905.7L644.8,905.7c0.4,0.9,0.8,1.7,1.3,2.6l0,0l0,0C645.7,907.4,645.2,906.5,644.8,905.7z"/>
		<path d="M250,1017C250,1017,250,1016.9,250,1017L250,1017c-0.1,0.1-0.1,0.1-0.1,0.1C250,1017,250,1017,250,1017z"/>
		<path d="M836,313.1C836,313,836,313,836,313.1c0-0.1,0-0.1,0-0.2C836,312.9,836,313,836,313.1z"/>
		<path d="M320.3,211.3L320.3,211.3c-0.2-0.2-0.5-0.4-0.7-0.6C319.9,210.9,320.1,211.1,320.3,211.3z"/>
	</g>
</g>
</svg>
