<?xml version="1.0" encoding="utf-8"?>
<!-- Generator: Adobe Illustrator 24.1.0, SVG Export Plug-In . SVG Version: 6.00 Build 0)  -->
<svg version="1.1" baseProfile="tiny" id="图层_1"
	 xmlns="http://www.w3.org/2000/svg" xmlns:xlink="http://www.w3.org/1999/xlink" x="0px" y="0px" viewBox="0 0 1024 1024"
	 xml:space="preserve">
<g id="图层_1_x5F_复制">
	<g>
		<path d="M368,1025c-5.8-26.5-12.3-52.8-16.6-79.6c-2-12.3-4.7-24.5-5.5-37c-0.2-2.6-1.8-3.3-3.5-4.4
			c-10.9-7.1-21.8-14.1-32.8-21.1c-2.1-1.4-4.2-2.8-4.5-5.6c-0.2-2.1-2-3-3.5-4c-18.1-12.5-30.4-30.2-42-48.3
			c-1.7-2.6-1.5-4.5,0.1-7.2c20.3-35.2,46.8-66,71.4-98.2c3-3.9,3.3-5.7-1.1-8.6c-7.4-4.8-14.2-10.5-21.3-15.8
			c-3.1-2.3-4.3-4.8-2.1-8.5c3-5-2.4-6.1-4.4-8.5c-2.5-2.8-3.6,0.8-4.9,2c-4.4,4-7.7,9.3-12.8,12.6c-1.1,0.7-0.8,1.2-0.1,1.8
			c1,0.9,2.1,1.6,3.1,2.5c0.7,0.6,2.2,0.9,1.6,2.1c-0.8,1.5-2.1,0.3-3,0c-11.6-3.9-21.3-10.8-27.7-21.1c-4.9-7.9-11.6-13.5-18.8-19
			c-7.3-5.5-14.5-11.2-21.7-16.9c-4.1-3.3-4.1-4,0.2-6.8c5.1-3.2,10.2-6.4,16.1-7.8c2.7-0.7,3.7-2,3.6-4.9
			c-1-24.2,0.2-48.3,6.8-71.8c0.2-0.8,0.4-2.1,0-2.3c-1.1-0.7-1.6,0.6-2.3,1.2c-10.2,9.8-20.3,19.8-30.7,29.3
			c-9.3,8.4-19.6,15.5-31.7,19.5c-9.4,3.1-12.7,1.1-13.4-8.8c-0.7-9.1,1.1-17.9,3.8-26.5c7.5-24.2,19-46.4,31.7-68.2
			c13.5-23.3,35-34.2,60.1-38.7c10.5-1.9,16.5-6.5,20.8-16c5.9-13.2,13.6-25.5,21.8-37.5c0.6-0.9,2-2,1.3-2.9c-0.8-1-2,0.5-3,0.9
			c-15.3,7.9-30.9,14.9-48.2,17c-19.8,2.4-39.5,2.8-59-2.4c-5-1.3-9.5-4.2-12.8-8.2c-3.2-3.7-2.9-7.2,0.2-10.7
			c1.1-1.2,2.4-2.4,3.7-3.4c25.6-20.1,51.8-39.2,79.3-56.6c16.3-10.3,33.8-17.9,50.9-26.6c10.2-5.2,20.9-2.4,31,1.5
			c5.5,2.3,10.9,4.9,16.1,8c2.2,1.2,3.4,1.1,4.9-1c11.7-16,23.8-31.7,32.3-49.8c1.3-2.9,1.6-4.6-1.3-6.6c-2.1-1.4-3.8-3.2-5.2-5.3
			c-2.5-4.1-4.2-3.1-6.7,0.1c-13.5,17.1-31.5,27.9-51.1,36.4c-8.5,3.7-18,4.2-26.9,1.5c-12-3.5-15.3-13.6-7.1-22.9
			c7.9-8.9,17.8-15.6,28.5-20.8c16.6-8,33.9-14.6,51.1-21.3c2.7-1,4.5-2.2,4.9-5.4c0.8-7.8,3.6-15.3,8-21.8c2.1-3,0.8-3.7-2.2-4.5
			c-8.8-2.4-17.7-4.8-26.3-7.7c-19.3-6.3-36.1-18.7-47.8-35.3c-6-8.4-8.4-17.6-6.4-27.9c1.5-7.7,4.6-9.4,11.9-6.5
			c3.7,1.5,7.2,3.5,10.5,5.8c17.7,11.9,35.4,23.8,53,35.8c3.3,2.3,4.5,2.9,4.9-2.1c2.8-32.6,18.5-58.5,41.9-80.5
			c15-14,30.1-27.9,49.4-36.1c19.9-8.5,40.5-14.9,62.2-15.3c26.1-0.4,51.2,5.6,75.2,15.7c16.3,6.7,30.5,17.6,41.2,31.6
			c23.8,31.1,36,65.7,30.9,105.4c-0.1,1-0.5,2.6-0.2,2.8c1.3,0.6,2-0.8,2.8-1.5c5.6-4.7,11.5-9.1,17.6-13.1
			c24.4-15.7,50.2-16.8,77.1-7.7c5.7,1.9,11.5,3.5,16.7,6.5c4.3,2.4,4.8,5,1.8,8.9c-3.5,4.5-8.3,6.9-13.8,8.5
			c-15,4.4-30.4,5.9-45.8,7c-12.6,0.9-25.2,2-37.8,3c-0.9,0.1-2.3-0.2-2.5,1c-0.1,0.5,0.9,1.3,1.2,2c2.3,4.3,5.9,5.3,10.7,5.2
			c8.5-0.2,17,1.5,24.8,4.8c16.9,6.7,33.4,14.3,49.4,22.7c4,2.1,9.1,4.3,8.5,9.3c-0.6,5.3-6.4,5.9-10.7,6.6
			c-24.4,4.1-47.8,2.5-69-11.9c-4.6-3.1-5-2.9-5.5,2.7c-0.6,7.1-4.1,13.6-9.6,18c-2.5,2.1-2.9,4.1-1.3,6.9c2,3.4,3.7,7.1,5.9,10.4
			c17,25.4,36.2,49,59.1,69.5c22.4,19.9,40.9,43.6,54.7,70.2c19.6,37.5,25,78.1,21.3,119.9c-3.6,39.9-20.4,74.4-45.6,105.1
			c-9.7,11.9-22.6,20.1-35.7,27.8c-14.6,8.4-29.8,15.6-45.5,21.5c-9.4,3.6-19.3,5.1-29.3,5.6c-1.2,0.1-3,0.7-3.6-0.8
			c-0.8-1.9,1.3-2.5,2.4-3.2c34.1-20,55.3-50.8,71-86c0.3-0.9,0.6-1.8,0.8-2.7c-0.7,0.6-1.5,1.2-2.2,1.8
			C747.9,615,731.5,624,714.3,632c-1.1,0.5-2.5,1.2-3-0.2c-0.7-1.7,1.3-2,2.3-2.7c23.4-17.4,42.4-38.5,55.7-64.5
			c9.5-18.6,15.4-38.6,20.5-58.8c0.5-2.1,0.1-4.4-1-6.2c-6-12.9-13.1-24.9-22.7-35.7c-20.2-22.7-32.1-49.6-37.3-79.4
			c-1.3-7.7-4.1-14.4-9.6-20.3c-23.3-25.1-35.1-56.2-45.2-88.1c-3.5-10.9-5.4-9-11.7-2.8c-2.4,2.2-4.2,5.1-5.1,8.3
			c-4,14.3-13.2,25.2-23.8,35.1c-0.8,0.8-1.8,2-3,1.2c-1.5-1.1-0.2-2.4,0.4-3.5c3.6-6.1,5.4-13,5.3-20c0-0.8,0.4-1.9-0.6-2.1
			c-0.9-0.2-1.2,0.9-1.7,1.6c-1.7,2.5-3.2,5.1-5,7.5c-9,12.6-20.6,21.1-36.2,23.6c-1,0.2-1.9,0.4-2.9,0.7c-0.8,0.2-1.7,0.4-1.6,1.5
			c0.1,1.1,1,1.3,1.8,1.2c7-0.9,12,2.8,17.1,6.7c3.9,3,8.8,3.8,13.4,5.4c9.8,3.3,19.6,6.5,28.8,11.2c5.6,2.7,10,7.5,12.1,13.3
			c3.8,9.6,5.4,20,4.8,30.3c-1,14.4,1.9,28.5,4.2,42.6c3.5,20.8,7.4,41.6,10.3,62.5c0.2,1.6,0.4,3.3,0.3,5c-0.1,1.9,1,4.3-1.1,5.5
			c-2.4,1.4-4.5-0.4-6.3-1.8c-5.5-4.3-11-8.6-17.4-11.6c-2.5-1.2-4.2-2.3-4.7,2c-0.5,3.8-1.8,7.5-3.8,10.8
			c-2.6,4.3-5.9,7.2-11.3,6.8c-3.7-0.3-4.9,1.3-5.6,5.1c-3.8,20.3-7.9,40.5-12.4,60.6c-1.7,6.9-1.1,14.2,1.8,20.7
			c7.3,17.1,14.4,34.4,19,52.5c1.3,5.1,0.2,9.5-2.4,13.8c-3.8,6.1-8.6,11.5-14.1,16.1c-2.1,1.7-2.9,3.2-2.1,5.9
			c1.8,5.8,1.9,11.9,0.4,17.8c-0.6,2.2,0.3,3.3,1.6,4.8c21.1,24.3,42.1,48.6,63.1,72.9c10,11.8,19.3,24.3,27.8,37.2
			c9.8,14.7,8.6,23.1-3.6,35.9c-6.3,6.7-14.2,11.7-22.9,14.7c-2.7,0.9-4.5,2.1-2.2,5.3c1.7,2.4-0.3,3.5-2.1,4.6
			c-6.7,4-13.4,8.1-20.5,11.3c-1.7,0.7-3.5,1.3-2.9,3.9c3.4,16,3.9,32.3,6.2,48.5c3.5,24.7,10.9,48.3,19.1,71.7
			c0.6,1.7,1.7,3.3,1.4,5.2h-2c-11.8-30.2-20-61.2-23.2-93.5c-1-9.9-1.5-19.9-3.5-29.7c-0.5-2.5-1.1-3.7-4.1-2.7
			c-13.7,4.8-27.7,8.5-42.4,8.3c-1.6,0-3.7,0.1-3.5,2.5c0.3,3.2-1.8,4.3-4.2,5.3c-21.5,9-42.7,18.8-66.3,21
			c-3.4,0.3-4.4,1.8-2.8,4.9c0.8,1.5,1.4,3,2.2,4.5c10.7,21.4,22.2,42.4,31.2,64.7c1.9,4.7,4.3,9.4,4.6,14.6h-2
			c-5.3-15.7-12.3-30.5-19.5-45.3c-6.5-13.3-14-26.1-19.7-39.8c-0.9-2.2-2.5-2-4.1-1.7c-11.7,2.5-23.2,0.6-34.6-1.7
			c-3.1-0.6-4.7-0.4-5.1,3.5c-1.6,13.9-3.4,27.8-5.7,41.5c-2.4,14.4-6.2,28.7-5.2,43.5h-3c-0.3-23.8,7.6-46.6,9.3-70.1
			c0.6-7.8,2.8-15.4,2.3-23.3c-0.2-3.1-1.4-4.4-4.7-3.2c-3.9,1.4-7.9,2.5-11.9,3.8c-14.5,4.6-29.1,7.3-44.1,2.9
			c-9.8-2.9-20.5-3.8-27.3-13.1c-0.6-0.6-1.4-0.9-2.2-1c-14.3-2.3-27.4-8.1-40.9-12.7c-5.2-1.8-5.5-1.6-4.7,3.7
			c1.4,9.4,2.9,18.7,4.4,28.1c4.7,28.6,11,56.8,17.8,84.9h-3L368,1025L368,1025z M386.9,689.9L386.9,689.9c-2.6-1.2-5.3-2.4-8-3.6
			c-1.6-0.7-2.5-0.8-2.9,1.5c-1.9,10.8,0.1,14.4,10.6,17.7c1.6,0.5,3.2,0.9,4.8,1.3c1.9,0.4,4.6,2.1,5.6,0.7
			c1.3-1.7-1.3-3.6-2.2-5.4c-1.4-3-3.1-5.9-4.6-8.8C389.4,691.8,389.1,690,386.9,689.9z M389.9,337.1c4.3,3.9,8.8,7.7,12.9,11.7
			c2.5,2.4,3.7,2.4,5.1-1c4.6-11.1,8.8-22.2,12.5-33.6c0.7-2.1,1.1-4.2,0-6.3c-5.6-11.2-4.9-22.9-3.1-34.7c0.2-1,1.1-2.7-0.1-2.9
			c-1.1-0.2-0.9,1.8-1.2,2.9c-4.6,21-12.1,41.2-22.4,60.1C392.8,334.9,392.5,337.3,389.9,337.1c11.2-20.1,19.5-41.8,24.6-64.4
			c1.2-5.6-3.3-4.2-5.4-5.6c-2.1-1.5-3.8-1.4-5.1,1.4c-8.3,18.3-20.3,34.3-32.3,50.2c-1.9,2.5-2.1,3.9,0.8,5.8
			C378.4,328.5,384.1,332.9,389.9,337.1z M705.1,256.2c-2.9,0.5-4.2-0.6-4.2-3.8c0.1-6.2-1.1-12.2-1.8-18.4c-0.4-3.4-2-4.8-4.9-5.9
			c-7.3-2.8-14.5-5.9-21.7-8.9c-1.4-0.6-3.6-0.6-2.6-3.2c1-2.7,2.9-1.6,4.5-0.9c5.8,2.4,11.6,5,17.5,7.4c1.1,0.5,2.4,1.9,3.6,0.8
			c1-1,0.2-2.5-0.2-3.8c-1.4-4.9-2.9-9.9-4.4-14.8c-0.6-1.9-0.3-3.2,1.9-3.7c2.1-0.5,2.7,0.8,3,2.3c1.1,4.5,2.7,9,3.2,13.6
			c1,8.2,4.7,13.9,12.8,16.3c1.6,0.5,3.2,3,4.7,1.3c1.2-1.3,1-3.8,0.3-5.8c-0.5-1.2-1.2-2.4-2-3.4c-4-5.4-5.3-11.3-3.2-17.9
			c0.8-2.4,0.6-4.9-1.5-6.4c-9.3-7.1-18.7-14-31.2-13.8c-4.8,0.1-7.2,1.6-8,7c-1.6,10.8-3.7,21.7-9.4,31.3
			c-2.1,3.5-2.8,6.5-1.8,10.3c1.4,6,1.9,12.2,1.4,18.3c-0.6,7.1-0.3,7.5,6.4,10.1c2.5,0.9,5.1,1.5,7.8,1.5
			C686,266.1,696.5,262.7,705.1,256.2c3-2.4,5.6-5.2,7.9-8.3c4.3-6.2,3.9-7.9-2.6-11.3c-1.5-0.8-3-1.5-4.4-2.3
			c-1.9-1.1-2.7-0.9-2.1,1.6C705.1,242.5,705.5,249.3,705.1,256.2z M327.1,656.2L327.1,656.2c1.4,2.1,3.6,3.7,6.1,3.7
			c6.6-0.1,12.5-2.8,18.6-5.2c0.8-0.3,1.4-0.9,0.1-1.7c-0.9-0.5-2.9-0.7-2.1-2.2c0.9-1.7,2.4,0,3.5,0.3c2.1,0.6,4.1,1.3,6.1,2.1
			c13.2,5,25.9,5,38-3.5c5.9-4.2,12.9-6.2,19.9-7.8c10-2.4,20.1-4.5,29.9-8c2.4-0.9,3.9-1.7,3.8-4.8c-0.4-10,0.3-20,0.9-30
			c1.1-19.4,6.3-37.3,17.5-53.3c0.6-0.8,1.6-2,1.4-2.5c-0.7-1.4-2.1-0.3-3-0.1c-12.6,2.6-25,5.7-37,10.4
			c-13.3,5.3-27.5,8.2-41.8,8.5c-3,0-6,0.3-8.9,1.1c-16.8,5.2-35.7,7.6-41.1,29c-0.2,0.9-0.7,2.8-2.2,1.9c-1.4-0.7-0.1-2.2,0.3-3.1
			c1.6-3.8,3.3-7.6,5.2-11.3c0.9-1.8,1.1-2.8-1.4-2.3c-7.7,1.3-15.4,2.6-23.1,3.9c-2.3,0.4-4.4,1.7-5.8,3.7
			c-8.3,11.7-12.1,24.7-10.5,39.1c0.7,6,3.2,7.2,9,5.3c6.3-2.1,12.6-4.1,19-6.2c0.8-0.3,2-0.6,2.2,0.2c0.3,0.8-0.9,1.2-1.6,1.5
			c-6.8,2.2-13.5,4.7-20.4,6.5c-4.2,1.1-3.9,2.8-1.8,5.6C313.2,644.4,319.9,650.5,327.1,656.2z M399,889h0.4
			c-0.4,8.5-0.5,17-1.2,25.5c-0.6,6.5,2.5,10.2,7.8,12.5c9.9,4.4,20.5,7.1,31.3,7.9c13.8,1,26.5-3.9,39.4-7.8
			c6.9-2.1,7.1-2.1,6.1-9.1c-2.6-19.2-3.6-38.5-3-57.8c0-2.1-0.4-4.2-1.2-6.1c-2-5.3-2.5-11-2.8-16.7c0-0.4,0.2-1.2,0.5-1.3
			c0.9-0.2,1,0.6,1.1,1.2c0.5,3.6,1,7.2,1.6,10.9c0.2,0.6,0.4,1.2,0.7,1.8c0.1-0.5,0.3-1,0.4-1.6c0.4-1.8-0.9-5,1.3-5
			c2,0,0.9,3.3,1,5.1c0.1,2.2,0.1,4.3,0,6.5c-1.2,24.5,0.6,48.9,4.2,73.2c0.3,2.1,0.2,4.6,3,5.1c9.8,1.6,19.6,4.3,29.7,3.4
			c28.5-2.5,55.4-10.7,81.3-22.5c4.3-2,5.1-4.1,3.9-8.4c-4-14.2-7.7-28.6-11.5-42.9c-3.7-14-10.1-26-23.3-33.4
			c-3.4-1.9-5.4-5.1-4.3-9.3c1.4-5.6,4.5-10.4,7.7-15c0.5-0.7,1.2-1.6,2-1c1.1,0.8,0.1,1.8-0.4,2.6c-2,3.5-4.2,6.8-5.9,10.4
			c-2.6,5.6-1.9,8.2,3.3,11.3c11.1,6.5,17.8,16.4,21.2,28.5c4.2,14.7,8.1,29.5,12.2,44.2c0.5,1.9,0.2,4.4,4,4.3
			c23.5-0.6,45.2-7.3,65.3-19.2c8.3-4.9,8.3-4.9,4.3-13.7c-15.9-34.2-31.8-68.5-47.8-102.7c-5-10.9-10.1-21.7-15.1-32.6
			c-0.4-0.9-1.8-2.3-0.5-3c1.8-0.9,1.8,1.3,2.5,2.2c0.3,0.4,0.5,0.9,0.7,1.3c8.5,18.3,17,36.5,25.5,54.8
			c12.1,25.9,24.1,51.9,36.2,77.8c0.7,1.4,0.7,3.8,3.7,2.7c13-4.6,23.7-12.1,30.9-24c3-4.7,3.4-10.7,0.9-15.7
			c-2.5-5.1-5.5-9.9-8.8-14.5c-24.8-35.5-55.4-66.1-82.6-99.5c-3.8-4.7-7.7-7.6-13.9-4.3c-1.4,0.5-2.9,0.7-4.4,0.4
			c-4.3-0.3-4.6,1.3-3.1,4.9c5.3,12.7,4.8,25.7,1.1,38.7c-3.9,13.7-17.8,21.3-30.9,17.1c-20.9-6.8-30.3-23.1-35.3-43
			c-0.2-0.9,0-2.4-0.6-2.7c-1-0.6-1.7,0.8-2.3,1.4c-4.2,4-9.2,6.5-14.5,8.6c-10.9,4.5-21.9,8.8-33.8,10.2c-2.8,0.3-4,1.3-3.7,4.8
			c0.9,9.5-1.8,18.4-6.6,26.7c-3.2,5.6-8.1,8-14.4,8.2c-5.7,0.2-9.8-2.8-13.7-6.3c-11.3-10.3-16.2-23.8-18.5-38.3
			c-0.7-4.7-2.2-7.9-6.3-10.4c-8.5-5.3-15.7-12.5-21.1-21c-1.4-2.1-3-3.5-5.5-3.8c-9.9-1.4-18.9-5.2-27.4-10.2
			c-4.1-2.4-5.7-1.6-7.6,2.6c-2.3,5-2.6,10.7-5.6,15.4c-5.3,8.3-12.6,9-17.4,1c-2-3.3-2.9-1.8-4.4,0.1c-6.9,9-13.9,17.9-20.8,26.9
			c-17.9,23.2-36.3,46-50.8,71.7c-1.2,2.1-2.4,3.7-0.7,6.3c11.3,17.2,22.7,34.2,39.9,46.3c3.1,2.2,4.2,2.5,5.5-1.5
			c11.6-36.2,23.5-72.4,35.2-108.6c3.8-11.7,7.4-23.4,11.3-35.1c0.4-1.3,0.6-3.9,2.1-3.4c2.1,0.7,0,2.7,0,4.2c0,0.2,0,0.3-0.1,0.5
			c-7.1,22.1-14.2,44.3-21.4,66.4c-8.4,25.9-16.9,51.8-25.4,77.8c-2.3,7-2.1,7.5,3.8,11.4c8.5,5.6,16.9,11.3,25.6,16.5
			c16.6,10,35,14.9,53.5,19.9c3,0.8,3.6-0.4,3.7-3.2c1.4-31.3,2.3-62.6,4.8-93.8c0.2-2.3-0.7-6.8,1.2-6.5c2.6,0.4,1.1,4.4,1,6.8
			C401.7,844.1,400.3,866.5,399,889z M322.1,447.5c-22.5,2.7-45.8,8-69.1,13.6c-23.1,5.5-40,18.8-51.4,39.5
			c-9.4,16.9-18.4,33.9-25,52.2c-4.2,11.8-8.2,23.6-7.5,36.4c0.4,7.9,2.5,9.3,10,6.9c11.5-3.8,21.3-10.4,30-18.4
			c19-17.4,38.2-34.8,53.5-55.8c3.7-5.1,8-9.8,12.1-14.7c2.1-2.4,4.6-4.3,7.5-5.6c4.1-1.9,8-4,11.9-6.3c9.5-5.5,18.7-11.6,28.7-16.1
			c0.8-0.4,2-1.4,2.7-0.4c1,1.6-0.8,2-1.7,2.3c-3.8,1.2-4.6,4.1-5.4,7.6c-2.5,12.2-1.6,24.3,0.9,36.2c3.7,17.7,11.7,33.2,26.3,44.7
			c2.5,1.9,4.5,2.3,7.6,0.9c13.7-6.3,27.8-11.2,43.2-11.1c9.6,0.1,18.8-2.4,27.7-5.7c15.4-5.7,31.3-10.2,47.4-13.5
			c1.7-0.2,3.2-0.8,4.6-1.8c9.7-8.1,21-10.3,33.3-8.7c6.5,0.8,14.4-3.4,17-9.4c4.3-9.7,8.3-19.6,12.6-29.4c0.9-2.1,0.8-3.5-0.9-5.2
			c-2.6-2.5-4.3-5.9-2.6-9.5c2.4-5.4,1.3-10.3-0.7-15.4c-1.8-4.6-3.3-9.4-5.2-14c-17-40.2-47.3-61.4-90.9-63.4
			c-1.3-0.1-3.5-0.3-3.8,0.2c-0.7,1.5,1.4,1.8,2.1,2.8c0.4,0.6,1.6,1.2,1,2c-0.8,1-1.5-0.1-2-0.6c-2.7-2.7-6.1-4.5-8.5-7.6
			c-11.2-15-24.1-28.6-38.4-40.5c-12.6-10.7-26.7-19.4-42-25.7c-9.6-3.9-19.7-6.1-29.6-1.5c-12.1,5.6-24.1,11.4-35.7,18
			c-33.6,18.9-64.5,42-94.7,65.8c-0.6,0.5-1.3,1.1-1.8,1.7c-2.5,2.5-2.7,5-0.2,7.9c3,3.6,7.1,6.1,11.7,7.2c32,7,63.4,5.8,93.1-8.9
			c27.8-13.8,56-27.3,80-47.7c0.7-0.6,1.3-1.8,2.4-0.7c-0.3,0.7-0.7,1.4-1.3,1.9c-4.8,3.9-9.6,7.7-14.4,11.6
			c-2.8,2.3-6.5,3.3-8.8,6.3c3.1,1.8,6.3,3.7,9.4,5.5c17.2,9.8,34.5,19.5,51.7,29.3c0.9,0.5,2.8,1,2.1,2.2c-0.7,1.3-2-0.2-2.9-0.8
			c-6.5-3.7-13.1-7.2-19.5-11.2c-3.2-2-5.5-1.7-8.6,0.1c-10.4,6.3-20.4,13.3-29.8,21c-7.2,5.8-13.4,12.5-18.6,20.1
			c-0.9,1.3-4,3.5,0.5,4.5c0.2,0.1,0.5,1,0.4,1.1c-0.5,0.4-1,0.7-1.7,0.7C328.5,447.9,326,447.7,322.1,447.5L322.1,447.5z
			 M455.6,205.7c0-10.9-0.2-20.6,1.7-30.1c5.8-28.5,17.5-55.1,26.3-82.6c0.3-0.9,0.7-2.5,1.6-2.1c1.4,0.7,0.1,2.1-0.2,3
			c-3.9,11.5-8.5,22.7-10.6,34.8c-1.6,9.7-4.2,19.2-4.1,29.1c0,0.7,0.1,1.3,0.1,2c0.4-0.6,0.7-1.3,0.9-2.1
			c1.3-12.3,5.9-23.5,11.7-34.2c7.5-13.9,15.3-27.7,22.9-41.5c0.3-0.6,0.6-1.2,1.1-1.7c0.9-1,1.3-3.5,2.8-2.6
			c1.1,0.6-0.8,2.1-1.2,3.3c-0.1,0.3-0.3,0.6-0.5,0.9c-17.6,27.7-17,57.3-9.4,87.6c0.2,0.6,0.5,1.1,0.9,1.7c0.2-0.6,0.2-1.2,0.3-1.8
			c-0.6-15.3,2.1-30.2,5-45.1c1.8-8.8,4-17.5,6.8-26c0.3-1,0.3-2.8,1.8-2.4c1.5,0.3,0.7,1.9,0.8,3c0.1,0.8,0,1.7-0.1,2.5
			c-0.6,21.2-0.1,42.3,5,63.1c2.7,11.3,6.4,22.4,12.3,32.6c0.6,1.1,1.8,3,2.4,2.9c1.7-0.3,0.7-2.2,1-3.4c0.7-2.9,1.3-5.8,2-8.7
			c0.2-1,0.3-2.3,1.5-2.3c1.1-0.1,1.3,1.2,1.8,2.1c1.1,2.1,1.3,7.3,4.9,1.5c0.4-0.5,1-0.8,1.6-0.9c2.8,3.2,6.6-0.5,9.7,1.7
			c2.8,2,5,0.7,6.4-2.2c0.8-1.6,1.6-3.3,2.5-4.9c0.6-1,1.3-1.4,2.2-0.2c1.6,1.9,1.7,1.8,2.4-0.6c2.7-8.8,4.5-17.7,4.1-27
			c-0.1-1.6-0.9-4.4,0.8-4.5c1.3-0.1,1,3.1,0.9,4.9c-0.4,7.8-1,15.6-1.5,23.4c0,0.8,0.1,1.6,0.2,2.4c0.5-0.6,0.8-1.3,1.1-2.1
			c3.3-10.9,5-22.1,5.3-33.4c0.2-18.6,0.3-37.3-4.5-55.6c-0.3-1.1-0.9-2.9,0.1-3.2c1.2-0.3,1.4,1.5,1.6,2.6
			c3.3,19.2,9,37.8,13.2,56.8c2,9.2,2.1,18.5,2.7,27.8c0.1,1.2-0.6,3.2,1.1,3.3c1.4,0.1,1.3-2,1.8-3.1c0.1-0.3,0.2-0.6,0.2-1
			c7.9-26.1,6.4-51.9-2.6-77.4c-0.6-1.6-2.3-4.6-1-4.8c2-0.4,2.2,2.9,2.6,4.5c3.7,16.4,11.4,31.2,18.1,46.4
			c3.2,7.1,6.4,14.3,8.9,21.7c6.2,18.3,9.8,36.7-0.9,54.9c-0.5,0.9-0.7,1.8-0.8,2.8c-0.1,0.8-0.1,1.6,0.2,2.3c1.3,0.2,1.5-1,1.7-1.9
			c3.5-10.9,10.3-20.5,12.7-31.8c0.2-0.8,0.2-2.1,1.2-1.9c1.6,0.3,0.6,1.6,0.3,2.4c-2.5,7.1-3.3,14.6-4,22c-0.1,0.7,0.1,2.1,0.3,2.1
			c1,0.2,1.2-0.9,1.6-1.6c4.3-7.5,8.1-15.3,10.2-23.8c0.2-0.8,0.1-2.5,1.3-2.2c1.1,0.3,0.6,1.9,0.2,2.6c-4.4,9.3-3.5,19.1-3.2,28.9
			c-0.1,1.8-0.2,3.7-0.5,5.5c-0.3,3.2-0.5,6.4-0.7,9.6c2.3-2.5,3.4-5.7,4.7-8.7c4.9-11.3,9.9-22.8,10.1-35.3
			c0.5-17.7-1.6-35.3-6.2-52.4c-0.5-1.8-1.5-3.7-0.8-5.8c2.6,1,1.9,3.6,2.4,5.5c7,27.2,7.2,55,7.2,82.8c0,1.1-0.9,2.7,0.5,3.1
			c1.5,0.4,1.6-1.5,1.9-2.5c4.4-13.1,8-26.4,8.4-40.4c0.8-24-3.8-47-12.1-69.4c-0.4-1-1.5-2.6-0.3-3.1c1.1-0.4,1.4,1.4,1.8,2.5
			c0.1,0.3,0.3,0.6,0.4,0.9c8.5,23.1,13.2,46.7,11.7,71.4c-0.2,2.9,0.6,3.9,3.5,3.6c4-0.4,8-0.7,11.9,0.4c2.6,0.8,2.7-1,3-2.7
			c2.1-11.7,2.7-23.6,0.8-35.3C684,101.2,657.3,51.4,595,37.5c-22.7-5-45.3-9.7-68.6-4.4c-22.4,5-44.2,11.4-62.9,25.4
			c-15.8,11.8-30.4,25-42.8,40.4C402,122.1,393,148.7,396,178.8c0.1,0.7,0.3,1.4,0.5,2c0.1-0.6,0.2-1.3,0.3-1.9
			c1.7-11.7,5.4-23,10.8-33.6c7.7-14.8,17.6-28.3,27.6-41.5c7.8-10.2,16.7-19.5,25.6-28.8c0.6-0.6,1.2-2.1,2.3-1
			c0.6,0.6-0.4,1.4-0.9,2c-0.7,0.8-1.4,1.5-2.1,2.2c-13.5,14.1-25.9,29.2-37.1,45.1c-6.5,9.3-11,18.8-11.6,30.2
			c-0.2,4.5-0.7,9-1,13.5c-1.1,16.5,1.7,33,8.4,48.2c0.6,1.5,1,3.2,2.5,4.1c0.8-1.6,0-3.1-0.1-4.7c-0.6-7.3-1.7-14.6-1.1-21.9
			c1.9-24.9,9.9-48.1,19.3-70.9c0.4-1.1,0.9-3.2,2.2-2.6c1.3,0.7-0.3,2.4-0.8,3.5c-6.5,14.8-11.7,30-13.3,46.3
			c-2,19.8-3.1,39.4,5,58.5c7.5,17.6,19.6,29,38.7,32.5c0.8,0.1,1.6,0.2,2.4,0.2c-0.3-0.7-0.7-1.4-1.2-2
			c-7.5-7.5-11.2-17.1-14.6-26.9C454.8,222.4,456.3,213.4,455.6,205.7z M847.7,515.7c0.5-14.5-0.5-29-3-43.3
			c-4.5-26.5-12.6-51.8-27.8-74.2c-15-22.1-31.8-42.6-51.9-60.5c-24-21.5-44.1-47-59.5-75.3c-1.1-2.1-2-2.6-4.1-1.3
			c-7.1,4.5-15.3,6.9-23.7,6.8c-3.1,0-3.1,1.3-2.4,3.6c10.7,32.5,22.1,64.7,46,90.5c5.6,6,8.4,12.8,10,20.7
			c4.8,24,12.2,46.9,27.3,66.8c10,13.2,22.3,24.9,28.8,40.6c0.2,0.4,0.7,0.7,1,1c0.5-0.9,0-1.6-0.3-2.3c-5.2-13.1-12-25.3-19.4-37.1
			c-13.8-22.2-24.2-46.4-30.9-71.7c-0.2-0.8-1.3-2,0.2-2.4c0.9-0.3,1,1.1,1.3,1.8c1.3,3.7,3.3,7.2,5.9,10.2
			c21.9,24.4,42.1,49.9,48.9,83.3c0.1,0.6,0.4,1.6,0.7,1.6c0.9,0.1,0.8-0.8,0.9-1.5c0.4-2.6,0.8-5.3,1-7.9c1.4-15,2.2-29.9-0.8-44.8
			c-0.2-0.9-0.5-2.4,0.4-2.6c1-0.1,1.2,1.4,1.3,2.4c1.1,7.1,2.5,14.2,2.1,21.3c-1.3,23.4-2.9,46.7-8.7,69.6
			c-10.8,42.6-29,80.7-63.5,109.5c-0.5,0.4-1.7,0.7-1,1.8c0.6-0.1,1.2-0.4,1.7-0.7c10.5-5.6,20.4-12,29.1-20.1
			c6.6-6.1,12.6-12.7,16-21.4c4.6-12.3,8.4-24.9,11.6-37.6c0.3-1.1,0.1-3.2,1.7-3c0.9,0.1,0.3,2.1,0,3.2c-4.4,17.4-9.5,34.6-16.8,51
			c-16.4,37.1-36.1,71.9-72.2,93.9c-0.5,0.3-1.4,1.1-1.3,1.3c0.5,0.9,1.4,0.3,2.2,0.2c4.3-0.6,8.6-0.9,12.8-2
			c19.6-5.2,37.5-14.4,55.1-24.3c14.6-8.2,28.4-17.7,38.6-31.2C830.9,597.8,847.4,560.4,847.7,515.7z M502.1,169.1
			c0.2,4.3,0.4,8.7,0.6,13c0,1.1,0.5,2.7-1.1,2.8c-1.1,0.1-1.4-1.3-1.6-2.2c-2.8-9.9-5.7-19.8-7.1-30.1c-1.7-12.6-1.7-25.3-0.1-37.9
			c0.1-0.8,0.8-2-0.5-2.5c-0.2-0.1-1,0.8-1.2,1.3c-6.4,11.9-13.5,23.4-16,36.9c-1.1,5.7-1.6,11.5-2.5,17.3c-0.1,0.9,0,2.3-1.2,2.5
			c-1.5,0.2-1.9-1.3-2.1-2.3c-0.5-2.1-0.8-4.3-1-6.4c-0.5-5,0.1-10,0.6-15c0-0.6,0-1.3-0.2-1.9c-0.5,0.4-0.8,1-1.1,1.5
			c-4.3,13.8-8.8,27.6-9.4,42.3c0,1.1-0.7,2.7,0.4,3.2c1.3,0.6,1.8-1.2,2.4-2c12.4-17.6,34.3-10.8,44.1,0.3c0.7,0.7,1.5,1.4,1.2,2.6
			c-0.7,3-0.7,10.8,0,13.1c2.7,8.9,3.2,17.7-1.2,26.2c-3.8,7.4-10.7,9.5-18,5.4c-9-5.1-15.7-22.4-12.6-32.1c0.5-1.5,1.1-2.5,2.7-1.3
			c1.5,1.2,3,1.8,4.3,0c1.2-1.7,2.2-3.7,0.4-5.4c-3.6-3.6-1.1-4.6,2.1-5.4c1.8-0.4,3.6-0.7,5.4-1c0.8-0.1,1.6-0.3,2.4-0.4
			c-0.5-1.1-1.5-1.2-2.5-1.4c-8.3-1.7-18.2,2.9-21.9,10.6c-4.8,9.8-7.4,20-3.4,30.9c0.4,1.1,1.5,3.1,0.2,3.6
			c-3.4,1.3-1.2,3.2-0.7,4.6c2.7,8.1,8.2,14.4,14,20.4c0.7,0.8,2.2,1.5,1.4,2.8c-0.8,1.4-2.2,0.4-3.2,0.2c-4.8-1.1-9.7-2.3-14.5-3.7
			c-2.7-0.8-3.2-0.3-2.5,2.5c1.4,5,2.3,10,2.9,15.2c1.1,11.5,7.4,19.3,16.9,25c12,7.2,24.9,12.8,38.4,16.5c3.6,1,5.3,2.7,6.1,6.1
			c1.4,5.7,2.5,11.4,3.6,17.1c0.9,4.8-0.8,7-5.1,8.6c-5.1,1.7-9.5,4.9-13.5,8.5c-4,3.5-3.5,5.9,0.9,8.6c3.5,2.2,6.8,4.8,10.3,7.1
			c3.2,2.1,6.7,4.2,10.7,3.5c12.8-2.1,25.1-6.9,36-14c8.1-5.3,14.6-13.1,21.9-19.7c2.1-1.9,2.2-3.4,0.6-5.9c-3.7-5.9-4.8-13-3-19.7
			c1.4-5.1,0.3-11.9,8.8-13.6c2.9-0.6,6.8-4.9,8.7-8.5c4.9-9.5,8.8-19.4,11.6-29.7c0.1-0.6,0-1.3-0.1-1.9c-0.6,0.2-1.2,0.4-1.7,0.7
			c-2.8,1.7-5.6,3.6-8.5,5.1c-1.2,0.6-2.8,2.2-4,0.6c-0.8-1.2,1-2.2,1.9-3.1c8.6-8.7,13.7-19.6,18.6-30.6c0.9-2.3,1.5-4.8,1.9-7.2
			c0.1-0.6,0.1-1.8-0.1-1.9c-1-0.4-1.2,0.7-1.7,1.3c-0.3,0.4-0.6,0.8-0.9,1.2c-1.1,1.1-1.6,3.7-3.6,2.7c-2.1-1-0.5-3,0.2-4.3
			c3.4-7,2.5-14,0-20.9c-5.4-15.2-22.4-27-39.8-13.5c-2.2,1.7-4.6,3.3-6.9,4.9c-0.8,0.5-1.6,1.5-2.6,0.9c-1.1-0.7-0.4-1.8-0.1-2.7
			c0.2-0.6,0.8-1.2,0.8-1.8c-0.1-1.9-0.3-3.9-0.5-5.8c-1.3,2.4-2.9-1.9-4.4,0.3c-2,3-4.8,2.2-7.6,1.2c-2.3-0.8-9.9-0.1-10.5,1
			c-1.8,3.3-3.3,2.6-4.9-0.1c-0.4-0.7-0.7-1.9-1.6-1.6c-0.5,0.1-0.8,1.4-0.9,2.2c-0.4,3.3-0.7,6.6-1.1,9.9c-0.1,0.8-0.3,2-0.8,2.2
			c-1.2,0.5-1.7-0.7-2.2-1.5c-3.8-5.7-7-11.7-9.6-18c-9.8-24.2-12.2-49.6-12-75.4c0-0.8,0.6-1.8-0.4-2.5c-0.4,0.7-0.7,1.5-0.9,2.3
			C505.8,129.8,501.5,149.1,502.1,169.1z M604.7,738.8c-0.2-2.4-0.5-4.9-0.9-7.3c-3.7-15.8-9.3-30.1-27-35.2
			c-4.8-1.4-13.2,3.6-14.7,8.5c-1.1,3.7,0.8,10-6.6,9.5c-3.3,5.4-4.8,0.9-6.7-1.2c-0.7-0.8-1.3-3.2-2.5-0.5c-1.7,4-6.9,0.9-8.7,4.5
			c0,0-1.4-0.3-1.7-0.8c-1.9-3.5-5.1-2.5-8-2.3c-6.4,0.5-12.7-0.3-18.9-1c-9.5-1.2-16.2-6.2-20.3-15c-2.5-5.2-4.6-10.7-6-16.4
			c-1-4.1-2.3-7.4-6.9-8.8c-2.4-0.7-4.2-2.7-5.6-4.9c-2.7-4.2-5.4-8.3-10.4-10.2c-1.7-0.8-3-2.3-3.4-4.1c-1.1-3.9-3.8-5.9-7.4-7.3
			c-3.2-1.3-6.4-2.9-9.5-4.5c-2.8-1.4-5.5-1.4-8.6-0.9c-16.1,2.4-30.4,9.2-44.6,16.6c-1.4,0.5-2.4,1.9-2.4,3.4
			c-0.2,5.5-0.5,11,1.6,16.3c9.5,23.8,21.3,45.9,44.2,60c15.6,9.6,32.9,13.1,50.7,12.1c14.8-0.9,28.8-6.4,42.4-12.5
			c6.8-3.1,12.7-8.1,17-14.3c0.5-0.7,0.9-1.4,1.4-2.1c0.5-0.6,1-1.7,1.9-1c0.8,0.7-0.2,1.5-0.6,2.1c-2.7,3.8-3.5,8.5-2.1,12.9
			c5,17.2,13.1,32,31.4,38.6c12.9,4.7,25.6-1.3,29.9-14.4C603.8,752.4,604.1,745.9,604.7,738.8z M551.3,481.2
			c-4.8-1.6-6.8,1.6-8.6,6.1c-4.3,11-9.1,21.8-13.7,32.7c-1.2,2.8-2.3,5.6-5.7,6.5c-0.7,0.2-1.8,0.9-1.4,1.8
			c0.3,0.9,1.4,0.4,2.2,0.2c6.6-1.6,13.2-3.3,19.8-4.9c1.1-0.3,2.9-1.2,3.1-0.2c0.3,1.5-1.7,1.5-2.9,1.8c-9.3,2.5-18.6,5.2-28,7.3
			c-4.6,1-5.7,3.7-6,7.7c-2.2,28.3-9.4,55.3-19.6,81.7c-0.6,1.5-2.2,3.4-1.1,4.6c1.2,1.4,3.4,0.4,5.2,0c27.3-6,53.9-14.5,80.6-22.6
			c2.9-0.9,5.6-2.3,7.1-5.2c2.3-4.5,5.5-8.3,8.4-12.4c5.3-7.4,10.4-14.9,13.6-23.7c4.8-13,11.5-25.1,18.6-37
			c3.2-5.3,4.3-11,6.2-16.7c1-2.9,0.1-4.1-2.3-5.5C603.9,489,578.7,482.6,551.3,481.2z M247.8,585.1c-0.4-9.5-0.2-19,0.3-28.5
			c0.1-1.5-0.4-4.2,1.4-4.2c1.2,0,0.6,2.9,0.5,4.4c-1.4,15.2-1.5,30.2,3.2,45c4.4,13.9,7.8,27.3,22.1,35.9c14,8.5,25.1,21.3,37,32.7
			c1.1,1,2.6,3,3.3,2.7c5.6-1.8,9,2.1,13,4.6c1.4,0.9,2,0.5,2.2-1.1c0.5-4.1,1-8.2,1.7-12.3c0.2-1.5-0.5-2-1.6-2.7
			c-10.7-7.3-20.3-15.6-27.1-26.8c-0.4-0.5-0.8-0.9-1.3-1.3c-0.1,0.6-0.3,1.2-0.3,1.8c-0.3,2.6-0.9,4.9-4.3,3.2
			c-7.6-3.6-9.8-9.9-7.3-17.8c1.6-4.9,2.5-10.1,2.5-15.3c0-4.7,2.3-9.5,2.6-14.4c0.1-1.9,2.1-2.9,3.7-2.8c5.7,0.3,9.3-2.6,12.9-6.6
			c1.8-2,2.6-3.1,1.9-5.9c-3.5-13.2-4.7-26.8-5.3-40.5c-0.7-14.5,1-29,2-43.4c0.1-1.1,0.6-2.6-0.5-3.2c-1.1-0.7-2.1,0.6-3.1,1.1
			c-7.5,4.3-14.6,9.5-22.5,12.9c-3.7,1.5-7,3.9-9.5,7c-7.8,9.8-15.6,19.5-23.5,29.2c-1.7,2.3-2.9,4.9-3.5,7.6
			c-6.6,24.1-9.2,49.2-8,74.2c0.1,1.8-1.5,5.4,2.9,4.6c2.9-0.5,6.5,0.3,5.8-5C247.1,608.8,247.9,596.9,247.8,585.1L247.8,585.1z
			 M549.6,478.8c12.5,0.6,24.8,2.3,37,5.1c18.3,4.1,34.3,13.3,50.2,22.8c0.8,0.5,2,1,1.3,2.2c-0.5,0.9-1.5,0.2-2.2-0.1
			c-0.7-0.4-1.4-0.9-2.2-1.2c-2-0.8-2.5,0.8-2.4,2c0.1,1.4-2.4,3.1,0.2,4.3c3,1.3,10.1-0.6,12.4-3.4c2.8-3.3,4.6-7.4,5-11.8
			c0.5-4.9,2.2-9.3,3.7-13.9c2.8-8.5,5.3-17.1,7.8-25.7c1.7-4.9,0.2-10.2-3.6-13.6c-10.1-10-21.8-18.1-34.7-24.1
			c-3.8-1.8-7.8-3-11.9-3.4c-16.2-1.5-31.3,3.2-46.2,8.4c-1.4,0.6-2.5,1.7-3.2,3c-9.6,14.7-18,29.9-23.1,46.8
			c-0.8,2.2-0.5,4.7,0.9,6.6c0.6,0.8,1.2,2.4,2.6,1.6c0.7-0.4,1.6-1.9,1.4-2.5c-1.7-4,1.2-3,3.1-3.1
			C547,478.8,548.3,478.8,549.6,478.8z M575,677.8c-0.3-3.5-0.6-6.9-1.1-10.4c-0.3-2.5,0.2-5.9-2.1-7c-1-0.5-2.2,3.6-3.5,5.4
			c-0.6,0.9-1,2.7-2.3,2c-1.4-0.7-0.1-2,0.4-3c2.5-5.1,5.6-9.8,7.7-15.1c2.9-7.3,2.1-13.9-3-20c-3.8-4.6-7.9-9-12.3-13.1
			c-3.3-3-6.4-3.6-10.8-2.4c-19.3,5.5-38.3,12.3-58.3,15.2c-1.7,0.2-3.1,1.4-3.7,2.9c-4.5,9-9.7,17.5-16.7,24.8
			c-1.1,1.1-2,2.2-0.9,3.9c3.4,5.5,7,10.4,13.9,11.9c8.7,2,17.4,4.5,26,6.9c1.2,0.3,3.3,0.3,2.8,1.9c-0.4,1.5-2.4,0.5-3.5,0.2
			c-2.4-0.5-4.8-1.1-7.2-1.9c-2.3-0.7-2.7,0.2-2.2,2.1c1.1,4.5,2.3,9,3.5,13.5c0.2,0.6,0.5,1.2,0.8,1.8c0.2-0.7,0.2-1.5,0.2-2.2
			c-0.6-3.6-1.3-7.2-1.9-10.8c-0.1-0.6-0.6-1.8,0.7-1.9c0.2,0,0.7,1,0.8,1.6c1.2,5.9,2.3,11.7,3.3,17.6c0.3,1.4,1.7,3.6-0.7,4.2
			c-1.8,0.4-2.7-1.6-3.1-3.3c-1.5-5.6-3-11.2-4.4-16.9c-2-7.6-2.8-8.3-10.4-9.5c-2.4-0.4-3.2,0.4-2.5,2.6c2.2,7.5,4.5,14.9,8.7,21.7
			c2.8,4.8,7.6,8.1,13,9.2c20.7,4.7,39.5,0.5,57.2-10.8C571.2,694.1,576.6,688,575,677.8L575,677.8z M584.6,624.1
			c6.7-0.8,11.6,0.3,16,3.4c8.7,6,11.9,14.4,11.4,24.6c-0.6,11-6.4,18.2-16.1,22.7c-5.2,2.4-11.9,8.1-14.8,13
			c-3.7,6.1-3.8,6.6,2.7,8.7c2.9,0.9,4.8,6.3,8.9,2.5c0.3,0.4,0.8,0.8,0.7,1.1c-0.8,3.5,1.5,5.6,3.4,7.9c1.3,1.6,2.2,5.1,4,4.5
			c2.5-0.8,0.6-4.1,1-6.3c0.3-2.1-0.7-4.2,0.5-6.2c2,1.8,0.9,4.3,1.4,6.5c0.4,2.1-0.7,4.6,1.1,6.2c2.6,2.2,13.4-2.2,13.8-5.6
			c0.7-4.8,0.6-9.7-0.3-14.4c-0.5-2.5-1.2-3.5-3.7-1.6c-2.9,2-5.9,3.8-8.9,5.4c-0.9,0.5-2.4,1.7-3,0.6c-0.7-1.3,1.3-1.6,2.2-2
			c11.3-5.6,19.7-14.6,27.6-24.1c4.5-5.4,5.5-11.4,3.5-18.2c-4.7-16.3-11.2-32-17.5-47.8c-0.8-1.9-1-4.2-2.9-5.6c-1.1,1.8-1,4-1.5,6
			c-0.2,1,0.3,3.1-1,2.9c-1.7-0.3-0.6-2.2-0.5-3.3c1.1-16.7,5.4-32.8,8.6-49.1c2-9.9,4.2-19.9,6.2-29.8c0.1-0.8,0.1-1.6,0-2.5
			c-0.6,0.4-1.3,0.9-1.8,1.4c-0.6,0.6-1.1,1.3-1.5,2c-6.5,12.9-14.1,25.3-19,39c-1.8,4.7-4.1,9.1-6.9,13.2
			c-4.8,7.2-10.5,13.8-14.8,21.3c-0.9,1.4-2.1,2.5-3.5,3.5c-2.9,2.2-8.9,1.8-9.1,4.6c-0.3,3,4,6.2,5.5,9.7
			C578.4,622.7,580.5,625.8,584.6,624.1L584.6,624.1z M524,342.4c-0.4-5.2-1.9-10.9-3.3-16.5c-0.7-2.7-2.2-3.9-4.9-4.8
			c-12.4-4.2-24.8-8.5-37.4-12.1c-0.6-0.2-1.8-1.4-1.9,0.1c-0.2,4.7-2.4,1.7-3.7,0.9c-7.1-4.2-13.8-8.9-16.5-17.2
			c-0.3-0.6-0.7-1.1-1.1-1.6c-0.4,0.5-0.6,1.1-0.8,1.7c-0.2,1-0.1,2-0.2,3c-1.6,14.9,1.6,28.8,8,42.1c0.6,1.3,2,2.9,0.5,4
			s-2.6-0.8-3.7-1.7c-3.9-3.2-7.3-6.6-12.5-8.6c-8.2-3.1-15.3-8.3-20.8-15.2c-2-2.6-2.8-1.8-3.6,0.9c-3.5,11.3-7.7,22.3-12.6,33.1
			c-1.2,2.6-0.5,4.2,1.3,6.1c6.1,6.1,11.8,12.7,17.1,19.5c3.3,4.5,5.1,4.4,6.9-1.1c1.3-3.9,3.8-5.5,7-7.1c9.9-5.1,20.6-7.4,31.5-9
			c8.4-1.2,15.9-3.6,21.8-10.7c4.1-5,10.2-6,16.5-3.8c2.4,0.8,4.7,1.8,7,2.6C522.6,348.4,524.1,347.3,524,342.4z M453.2,620
			c0,3.7-0.1,7.3,0,11c0.4,7.3,2.1,14.5,5.2,21.2c2.7,5.9,6.4,6.4,10.7,1.7c4.2-4.7,7.9-9.9,11-15.5c9.9-17.4,15-36.6,20.7-55.5
			c4.8-16,5.1-32.8,8.3-49.1c0.5-2.6-1.4-2.3-2.6-2.4c-10.9-0.7-20.9,1.4-29.2,9c-8.2,7.5-12.9,17.3-16.9,27.4
			C453.7,584.6,454,602.4,453.2,620z M663.9,389.6c-0.3-7.3-1.6-14.5-3.7-21.5c-1.1-3.8-2.5-5.1-6.6-3.3
			c-17.8,7.4-35.6,14.8-53.6,21.6c-8.3,3.2-15,7.3-18,16.1c-0.4,1.2-1.4,2.2-2,3.4c-0.5,1.1-2.4,2.3-1.2,3.2c0.8,0.7,2.1-1.1,3.1-2
			c5.5-4.8,11-9.7,16.5-14.5c0.8-0.7,1.7-2.4,2.7-1.2c0.8,1-0.9,1.8-1.7,2.5c-7.9,6.9-15.8,13.7-23.8,20.5c-1.5,1.3-3.1,2.5-4.6,3.8
			c-0.9,0.9-2.7,1.8-2,3c0.5,1,2.1-0.2,3.2-0.5c3.4-0.9,6.8-1.7,10.1-2.7c21.1-6.3,40.4-2.6,57.9,10.7c2.6,2,5.4,3.8,8,6
			c2.2,1.8,3,1.1,3.5-1.3c2.2-10.1,6.2-19.6,9.6-29.3C663.1,399.6,663.9,394.6,663.9,389.6z M280.9,452.6c1.1-0.3,1.8-0.5,2.4-0.6
			c10.4-2,20.8-5,31.3-5.7c8.6-0.6,13.8-3.5,18.9-10.5c11.6-15.8,27.9-26.4,44.4-36.6c2.3-1.4,3.7-2.2,0.3-4
			c-10.2-5.5-20.4-11.2-30.5-16.9c-1.5-1-3.5-1.1-5.1-0.2c-28.2,14.2-32.2,17.9-47.9,45.4c-4.9,8.7-9.6,17.5-14.2,26.3
			C280,450.6,278.2,452.5,280.9,452.6z M658.1,214.6c0-3.1,0-5.8,0-8.4c0-0.5-0.1-1.3-0.3-1.4c-0.9-0.2-1,0.7-1.2,1.2
			c-0.8,2.5-1.6,5.1-2.4,7.6c-3,9.4-7.6,18.1-12.2,26.8c-0.5,0.9-0.9,2.5-2.4,2.1s-0.8-1.9-0.8-3c0.1-0.8,0.3-1.6,0.5-2.4
			c1.3-8.6,2.7-17.1,2.2-25.8c-0.2-0.8-0.4-1.5-0.8-2.3c-0.6,0.5-1.1,1.1-1.6,1.7c-1.6,2.5-2.9,5.3-4.7,7.6
			c-1.3,1.7-1.8,5.5-4.3,4.5c-2-0.9,0-4.1,0.1-6.3c0.1-1.7,1.5-4.2-0.1-4.8c-1.1-0.4-2.2,2.5-2.8,4.2c-1.7,5.1-1.7,10.5-2.7,15.7
			c-2.2,11.6-8.7,21.1-14.6,30.9c-0.5,0.8-0.9,1.7-1.3,2.6c1.5,0.6,2-0.8,2.8-1.4c5.2-4.5,10-9.3,12.9-15.7c0.4-0.9,0.7-2.8,2-2.2
			c1.2,0.6-0.1,2.1-0.6,3.1c-0.9,2.1-2.1,4.2-3.5,6c-2.7,3.1-4,6.8-5.1,10.7c-5.5,19.5-12.8,38.2-26.5,53.7c-0.6,0.7-1.8,1.4-1,2.4
			c0.3,0.4,1.6,0.3,2.4,0.1c9.9-2,19.2-5.6,26.4-13.1c8.9-9.1,15.8-19.8,20.5-31.6c0.3-0.7,0.5-2.1,1.3-1.8c1.2,0.4,0.7,1.7,0.3,2.5
			c-2.2,4.4-1.5,9.1-1.6,13.7c-0.1,4.5-0.6,9-1.7,13.3c-0.3,1.3-0.5,2.5-0.7,3.8c1.7-0.3,2.3-1.8,3.2-2.8
			c16.8-17.8,19.9-40,18.4-62.8C657.7,233.2,657.3,223.7,658.1,214.6z M321.8,293.7c4.2-0.4,8.4-0.8,12.3-2.4
			c19.4-8.1,37.2-18.6,50.9-35c3.6-4.3,6.5-8.1,3.9-14.1c-1-2.4-1-5.2-1.1-7.9c-0.1-3.2-1.3-3.6-4-2.5c-17.6,7-35.4,13.6-52.5,22
			c-10,5-19.3,11.3-26.7,19.9c-6.4,7.3-3.9,15.1,5.4,18.1C313.9,293.1,318,293.2,321.8,293.7z M315,133.7c-0.1,6.4,0.9,10.1,4,15.7
			c2.6,4.5,5.7,8.6,9.2,12.4c17.5,19.4,40.7,27.5,65.1,33.2c2.6,0.6,2.2-0.7,2-2.4c-0.8-7.1-1.6-14.2-2.2-21.3
			c0-1.8-0.9-3.5-2.4-4.5c-20.5-13.7-40.8-27.7-61.4-41.1C318.5,118.7,315.1,120.9,315,133.7z M758.9,157.9
			c-25.8,0.5-45.6,12.8-63.6,28.8c-0.7,0.6-2,1.6-0.5,2.3c3.6,1.6,6.3,5.1,10.8,4.4c13.7-2.2,27.5-2.5,41.3-3.6
			c16.1-1.3,32.2-2.4,47.8-7c4.4-1.3,8.5-2.9,11.7-6.3c3.5-3.7,3.4-5.2-1.2-7.3C790.5,162.7,774.8,158.9,758.9,157.9z M418.2,288
			c0.3,17.4,8.6,29.8,23.4,38.1c0.8,0.5,1.6,1.4,2.6,0.8c0.2-0.1-0.3-1.8-0.7-2.6c-4.4-8.4-4.1-17.7-5.5-26.7
			c-0.1-0.8-0.5-2.3,0.6-2.5c0.9-0.2,1,1.2,1,2c0.6,10.1,6.1,18.5,9.9,27.5c1.3,3.1,3.2,5.9,5.6,8.2c0.7,0.7,1.5,1.3,2.3,1.9
			c1-1.2-0.2-2.2-0.6-3.1c-8.5-21-6.6-42-0.1-63c1.3-4.1-0.7-10.9-4.3-13.2c-6.9-4.6-12.8-10.2-17-17.4c-1.9-3.2-2.9-3.3-4.7,0.1
			C422.4,253.8,419.2,270.7,418.2,288z M771.3,245.8c7.7,0.4,15.5-0.3,23.1-2c2.8-0.7,6.8-0.8,7.3-4.2c0.4-3.3-3.2-4.7-5.8-6.1
			c-17.1-9-34.6-17-52.6-24c-8.6-3.4-17.5-3.8-26.5-3.6c-2.2,0.1-3.1,0.9-3.7,3c-1.7,6.6,1.1,15.5,7,19.5
			C736,239.3,753,247.3,771.3,245.8z M247.4,627.3c-5.5,0.2-11.1,2.4-16.7,4.2c-3.9,1.3-4.2,2.5-0.7,5.2
			c17.2,13.4,34.2,27,51.3,40.5c8.5,6.8,8.5,6.8,16.1-1.1c0.2-0.2,0.4-0.5,0.6-0.8c1.6-2.1,3.3-1.9,5.1-0.2c1.2,0.9,2.2,2,3.2,3.1
			c2.3,3,3.8,2.5,5.9-0.4c1.6-2.2,1.2-3.3-0.6-4.9c-3-2.7-5.7-5.6-8.6-8.3c-12.3-11.5-24.4-23.1-38.5-32.4
			C259.3,629,253.4,627.3,247.4,627.3z M592.6,330.2c-1.2,0.1-3.2-0.7-4,0.6c-1.1,1.9,0.1,4.1,1.4,5.5c4,4.4,2,7.4-1.7,10.8
			c-17.9,16.2-35.7,32.5-53.5,48.9c-1.5,1.4-4.7,2.7-3.7,4.4c0.7,1.3,3.9-0.6,5.9-1.3c16.8-6.6,32.4-15.5,48.1-24.1
			c13.8-7.6,27.2-16.1,42-21.9c3.4-1.3,7.4-1.5,10.3-4.2c-3.1-2.3-6.9-3-10.5-4.3c-9.5-3.4-19.6-5.5-27.5-12.5
			C597.7,330.5,595.2,330.1,592.6,330.2L592.6,330.2z M506.1,346.1c-4.3,0-8.3,2.1-10.9,5.5c-4.1,5-9.4,7.5-15.7,8.8
			c-9,1.8-18,2.9-26.8,5.6c-5.3,1.7-6.9,4-5.8,9.6c0.9,4.5,2.3,6.6,7,6.9c14.2,1.1,26.7,6.7,38.2,14.7c3.8,2.6,4.1,0.7,4.6-2.3
			c1.3-8.2,2.5-16.4,4.2-24.6c1.4-6.5,3.2-13,9.8-16.6c2.1-1.1,6.2-2.9,5.6-4.1c-1.1-2.3-4.8-2.5-7.4-3.3
			C508,346.1,507,346.1,506.1,346.1L506.1,346.1z M480.8,761.4c0.1-10,0-10-7.3-10.3c-13.2-0.6-26-3-38.1-8.9
			c-1.1-0.5-2.4-1.9-3.6-0.9s0,2.5,0.1,3.8c0,0.7,0.1,1.3,0.2,2c3.1,14.4,8.1,27.8,20.2,37.3c7.9,6.2,17.6,4.3,22.5-4.3
			C478.7,773.5,480.7,766.3,480.8,761.4L480.8,761.4z M333.1,676.7c-1.1,3.4,0.9,5.5,3.6,7.6c6.8,5.4,13.7,10.6,19.5,17
			c2.7,3,3.4,1.6,4.5-1c4.7-10.4,9.5-20.8,14.2-31.3c1.3-3,2.3-6.2,3.5-9.2c-3.2-0.6-6.6-0.6-9.5-1.8c-8.2-3.4-15.7-1.8-23.7,1.3
			c-11.3,4.3-11.5,3.8-12.2,16.2C333.1,675.8,333.1,676.1,333.1,676.7L333.1,676.7z M678.7,504.7c0-0.5,0-1-0.1-1.5
			c-4-31.8-11.4-63.1-14.8-95c-0.1-0.5-0.1-1.4-0.2-1.4c-0.8-0.1-1.1,0.6-1.3,1.2c-2.7,8.4-6,16.5-8.3,25c-1.1,3.8-0.8,6.5,2.5,9.1
			c7,5.4,8.1,12.3,5.2,20.5c-3,8.6-5.5,17.4-8.2,26.1c-0.5,1.6-1.2,3.2,1.1,4.2c7.6,3.5,14.6,8,20.9,13.4c0.7,0.6,1.9,1.2,2.6,1
			C679.3,507,678.6,505.6,678.7,504.7z M532.9,433.7c10.2,0.3,19.6-1.9,26.9-7.7c9.7-7.6,16.9-17.8,22.6-28.9
			c0.4-0.8,1.5-1.7,0.5-2.6c-0.3-0.3-1.5,0.2-2.2,0.5c-1.2,0.5-2.4,1.1-3.6,1.6c-13.4,5.7-26.3,13-40.5,16.7
			c-5.9,1.5-12,2.5-18.1,3.5c-2.6,0.4-2.6,1-1.1,2.9c2,2.4,3.8,5.1,5.2,7.9C524.8,432.7,528.1,435,532.9,433.7z M357.8,707.4
			c0.3-1.5-1.7-3.2-3.3-4.7c-10-9.5-20.7-18.3-32-26.3c-2.7-1.9-4.8-1.4-7.1,0.8c-3,2.9-4.2,6.7-6.3,10.1c-1.6,2.6-0.9,4.1,1.3,5.9
			c10.3,7.9,20.5,15.9,31.5,22.9c1.8,1.2,3.8,2.1,5.7,3.1c2.9,1.6,5.1,0.7,6.6-2.1C356,714,357.2,710.7,357.8,707.4z M586,664.7
			c-0.1,1.9-0.2,4.6-0.5,7.2c-0.3,2.3,0.4,3.1,2.7,2.7c11.3-1.9,22.9-9.9,21.6-27.6c-0.8-10.4-9.7-22.6-24.9-20.9
			c-3.7,0.4-4.5,1.3-3.4,4.8C585,641.6,585.8,652.7,586,664.7z M423.9,193.3c0-1.9,0-4.9,0-7.9c0-0.5-0.1-1-0.2-1.5
			c-0.2,0.5-0.4,1-0.5,1.5c-1,6.4-1.1,12.9-0.4,19.4c0.9,6.8,1.6,13.5,2.3,20.3c0.1,1,0.9,2.5-0.8,2.9c-1.2,0.3-1.4-1.1-1.9-1.9
			c-1-1.5-1.9-3.1-2.7-4.8c-1.4-3.1-2.7-3.8-4.9-0.6c-2.5,3.7-5.3,7.3-8.1,10.8c-2.2,2.5-3.2,5.9-2.7,9.2c0.6,4.6,0.8,9.3,1.1,13.9
			c0.1,1.6,0.6,3.8-1.7,4c-2.6,0.2-2.4-2.2-2.5-4c-0.3-3-0.5-6-0.9-8.9c-0.1-0.6,0.3-1.9-1.1-1.5c-1.5,0.4-4.4,7.4-3.4,8.7
			c4.7,6.2,10.2,11.5,17.9,13.6c3,0.8,5.1,0.5,6-3.6c2.1-9.8,5.1-19.3,10.6-27.8c1.5-2.2,1.7-5,0.6-7.4
			C426.4,217.1,422.9,206.2,423.9,193.3z M793,485.6c-0.4-7.9-1.8-15.8-4.1-23.4c-8.4-25.7-24.5-46.7-41.6-67
			c-0.4-0.5-1-1.7-1.8-0.9c-0.3,0.3,0.1,1.5,0.3,2.3c4.5,14.5,10.7,28.4,18.3,41.5c9.2,15.8,18.9,31.3,26.1,48.3
			c0.7,1.6,0.9,4.6,2.5,4.3C793.9,490.6,792.9,487.6,793,485.6z M626.6,192.7h0.2c-0.5-4-0.8-7.9-1.5-11.9
			c-3.3-18.4-12-34.8-19.4-51.6c-0.3-0.7-0.5-1.8-1.5-1.5c-0.3,0.1-0.3,1.5-0.2,2.3c0.9,15.4-0.5,30.6-5.4,45.3
			c-0.9,2.7-0.1,3.5,2.4,4c9.6,1.8,16.4,7.5,21.3,15.8c0.8,1.4,1.6,4,3,3.5c1.7-0.5,0.8-3.2,1.2-4.9
			C626.6,193.3,626.6,193,626.6,192.7z M506,217.5c0.1-5.2-1.1-10.3-3.3-15c-3.2-6.3-10.7-9.7-16.7-7.9c-1.8,0.5-2.7,0.8-1.7,3.3
			c2,4.8-0.4,8.6-5.5,9.2c-1.6,0.2-2.4,0.3-2.5,2.1c-0.5,10.3,2.9,19.1,11.1,25.4c6,4.6,12.2,2.6,15.7-4.1
			C505.2,226.5,506.2,222,506,217.5z M526.7,390.8c3.8-0.7,8.9,0.8,12.7-2.2c5.8-4.7,11.1-10,16.6-15c0.5-0.4,1.2-1.3,1.1-1.5
			c-0.6-1.1-1.4-0.1-2,0.1c-6.1,2.2-12.1,4.6-18.2,6.8c-6.9,2.5-13.4,1.4-19.3-2.8c-3.4-2.4-6.8-4.7-10.2-7.1
			c-2.1-1.4-3.7-1.4-4.2,1.6c-0.6,3.6-1.3,7.2-2,10.7c-0.5,2.4,0.6,3.5,2.6,4.6C510.7,389.8,518.2,390.7,526.7,390.8z M288.5,685.5
			c-1.3-1.1-2.3-2.1-3.5-3c-18.8-14.9-37.5-29.8-56.3-44.6c-0.9-0.8-1.8-1.5-2.8-2.1c-3.1-1.7-5.3,0.7-6.9,2.5
			c-1.6,1.8,1.3,2.5,2.4,3.3c4.4,3.6,8.9,7,13.4,10.5c15.5,12,31.1,24,46.6,35.9c1,0.8,2.1,2.6,3.8,1
			C286.4,688,287.3,686.8,288.5,685.5z M517.1,414.8c10.4-1.6,20.7-3.1,30.4-7.4c35.2-15.7,70.4-31.6,106.5-45.2
			c0.9-0.3,2.8-0.1,2.3-1.9c-0.5-1.5-1.4-3.2-3.5-2.9c-1.3,0.3-2.6,0.7-3.8,1.2c-19.1,6.4-37.2,15.1-55.3,23.9
			c-24.7,12.1-48.3,27.1-76.5,30.3c-0.8,0.1-1.9,0.3-1.9,1.2C515.3,415.3,516.5,414.5,517.1,414.8z M399.1,220.6h-0.2
			c0-3.8-0.1-7.7,0-11.5c0.1-2-0.6-5.2,2.4-5c2.9,0.1,2.2,3.3,2.2,5.3c0,5.2-0.2,10.3-0.3,15.5c0,0.9-0.6,2.2,0.6,2.6
			c0.4,0.1,1.3-1.3,1.9-2c7.1-7.8,11.1-16.1,5.3-26.5c-0.4-0.9-0.6-1.9-0.6-2.9c-0.5-4.6-2.7-3.9-5.4-1.9c-4.7,3.5-7.1,8.8-9.7,13.8
			c-5.8,11-7.5,22.6-4.5,34.8c0.2,0.7,0.1,4,1.9,1.5c3-4.2,7.2-8,6.4-14.1C399,226.9,399,223.8,399.1,220.6L399.1,220.6z
			 M583.8,661.6c-0.8-15.9-2.5-32.6-12.3-47.2c-4.1-6.1-4.2-6-11.3-3.6c-2.8,0.9-3.5,1.6-0.8,3.6c4.6,3.4,8.1,7.9,11.9,12.1
			c7.1,7.7,8.7,16.2,4.2,25.7c-1.1,2.3-1.3,4.8-0.6,7.2c2.1,9.8,3.4,19.7,1.3,29.7c-0.1,0.5-0.8,1.2,0.1,1.5
			c0.3,0.1,0.9-0.8,1.3-1.3C583.7,681.4,583.4,671.9,583.8,661.6z M313.3,555.6c0.6,6.9,1.8,13.8,3.7,20.5c0.6,2.2,1.8,2.6,3.6,2
			c1.3-0.4,3.6,0.4,3.2-2c-1.1-6.3,2.8-11.5,3.6-17.4c0.3-2.3,1-4.6-0.3-6.8c-3.7-5.8-6.1-12.1-8.4-18.6c-0.3-0.7-0.8-1.3-1.3-1.9
			c-0.2,0.6-0.5,1.2-0.6,1.9C315.1,540.7,313.9,548.1,313.3,555.6L313.3,555.6z M591.5,172.6c-0.3-14.7-2.5-29.2-6.6-43.3
			c-0.3-1.2-0.2-3.4-1.4-3.3c-1.1,0.1-0.5,2.2-0.5,3.4c0.3,15.5-0.3,30.8-4.3,45.9c-0.7,2.7-2.1,5.2-1.6,8.1c2.4-1,4.9-2,7.3-3
			c0.7-0.4,1.5-0.6,2.3-0.8C591.5,179.1,592.6,176.5,591.5,172.6L591.5,172.6z M539,464.1c0.2-0.2,0.5-0.4,0.7-0.7
			c4.4-10.6,10-20.6,15.8-30.4c0.2-0.4,0.4-1.1,0.2-1.3c-0.5-0.7-1.2-0.1-1.7,0.2c-7.5,3.5-15.5,4.5-23.8,4.3
			c-1.7-0.1-2.7,0.4-1.8,2.3c3.8,8,6.5,16.3,9.5,24.5C538.1,463.4,538,464.3,539,464.1z M521.5,410.9c1.1-0.2,2.2-0.5,3.3-0.7
			c18.4-4.1,34.9-12.8,51.7-20.8c20.7-9.9,40.5-21.7,62.4-29c3.5-1.2,6.9-2.4,10.3-3.6c0.6-0.2,1.5-0.9,1.4-1.1
			c-0.3-1.1-1.3-0.6-2-0.4c-1,0.2-1.9,0.6-2.9,0.9c-21.2,6.2-40.9,15.7-60.1,26.5c-14.9,8.4-29.9,16.6-46.7,20.9
			c-5.8,1.5-11.3,3.9-17.2,4.9c-1,0.2-2.1,0.8-2.2,1.8C519.4,411.4,520.8,410.5,521.5,410.9z M525.4,405.7c1.9-0.5,3-0.7,4.1-1.1
			c9.7-3,19.1-6.8,28.2-11.4c27.7-13.4,53.1-31.4,82.7-40.8c0.7-0.2,1.9-1.1,1.8-1.2c-0.5-1.5-1.5-0.5-2.4-0.3
			c-10.3,2.8-20.2,6.8-29.5,12c-13.8,7.8-27.5,15.5-41.5,23c-13.2,7-26.3,14.3-41.1,17.8c-0.9,0.2-1.8,0.7-2.5,1.4
			C524.9,405.4,525.7,405.6,525.4,405.7z M309.9,527.7c0.4,5.8,0.8,10.9,1.2,16.1c0.1,0.5,0.2,0.9,0.3,1.4c0.2-0.4,0.4-0.9,0.5-1.3
			c1.5-7.3,4.4-14.7,4.2-21.9c-0.4-11.6-2.4-23.1,0.5-34.7c0.1-0.5-0.3-1.2-0.4-1.7c-0.6,0.2-1.2,0.4-1.8,0.6
			c-1.7,0.8-1.3,2.6-1.4,4C311.8,502.8,310.9,515.5,309.9,527.7z M331,576.7c3.9-0.6,8.8-1.3,13.7-2.1c1.5-0.2,2.9-1.1,0.8-2.4
			c-5.2-3.6-9.7-8.1-13.3-13.2c-0.8-1.1-1.6-1.8-2.2,0.3c-1.2,4.3-2.7,8.5-3.7,12.9C325.7,574.6,326,577.4,331,576.7z M397.9,190.6
			c1.4,1.6-1.8,4.3,0.6,5.5c2.3,1.2,3.3-2.2,5.1-3.1c1.2-0.6,2.3-1.4,3.4-2s2-1.3,1.8-2.6c-0.4-4.6-0.3-9.2-5-12.3
			c-3-2-4.2-2-4.6,1.7C398.9,182,398.4,186.1,397.9,190.6L397.9,190.6z M455.8,279.9c1.6,8.5,3.3,17.1,11.1,22.9
			c0.6,0.4,1.2,1.9,2.3,0.6c2-2.3,1.9-2.3,4.3-0.7c2.2,1.5,4.5,2.8,6.8,4.2c0.6,0.4,1.3,1.2,2.2,0.5c-0.6-0.5-1.3-1-1.9-1.4
			c-10.7-6.2-19.6-13.8-20.9-27.3c-0.2-2.1-0.1-4.5-1.6-6.4C456,274.4,456.3,277.1,455.8,279.9L455.8,279.9z M381.8,666.1
			c0-0.6,0.1-1.8,0-3c0-0.7,0.5-1.6-0.4-2.2c-0.5,0.6-0.9,1.3-1.3,1.9c-1.2,2.7-2.3,5.5-3.5,8.3c-4.6,11.1-4.6,11.1,6.7,15.2
			c1.1,0.4,2.7,1.1,3.2,0.7c1.1-0.9-0.2-2.1-0.6-3.1C383.7,678.3,381.3,672.8,381.8,666.1z M512.1,413.1c2.6-2.3,5.1-4.4,7.6-6.7
			c0.8-0.7,2.4-1.4,2-2.6c-0.4-1.3-2-0.6-3.1-0.6c-5.7-0.1-11.2-0.7-16.1-4.1c-1.1-0.7-2.3-3.4-3.9-1.1c-1.2,1.8-0.2,3.6,1.6,5.1
			c3.3,2.5,6.3,5.3,9.5,8C510.4,411.8,511.2,412.3,512.1,413.1z M408.9,153.9c-0.4-1.2,0.8-2.4-0.5-3.2c-0.5,0.8-1,1.6-1.5,2.5
			c-2.1,4.8-3.5,10-5.1,15c-0.8,2.6,0.3,3.7,2.1,4.8c1.1,0.7,2.1,2.5,3.2,1.7c1.4-1,0.6-3,0.7-4.6
			C407.8,164.7,408.1,159.3,408.9,153.9z M373.9,691c0.1-1,0.2-2.9,0.3-4.7c0.1-1.3-0.1-2.4-1.4-2.9c-1.7-0.6-1.9,0.9-2.4,1.8
			c-1.1,2-2.1,4.1-2.9,6.3c-0.6,1.5-2.6,3.3-0.2,4.8c1.9,1.2,4,3.4,6.2,2.5c1.6-0.6,0.3-3.3,0.5-5.1
			C373.9,692.9,373.9,691.9,373.9,691z M291.7,627.7c-0.7,3.3,2.3,4.7,4.5,6.7c0.9,0.9,2.1,2.6,3.2,1.8s0.6-2.8-0.1-4.2
			c-0.7-1.3-1.5-2.6-2.2-3.9c-0.5-1-1.2-2.4,0.2-3.1c2.1-1,1.9-2.7,1.3-4.2c-0.4-1.3-2-1-3.1-0.9c-2,0.1-2.8,1.6-3.2,3.3
			C292,624.5,291.9,625.8,291.7,627.7z M453,643.8c-0.4-2.1-0.9-4.6-1.5-7c-0.3-1.1-1-1.8-2.2-1.4c-3.3,1.1-6.5,2.3-9.8,3.5
			c1.7,2.7,5,2.7,7.4,4.3c1.4,0.8,2.9,1.6,4.5,2.2C452.7,646.1,453.7,646.2,453,643.8L453,643.8z M250.6,604.1
			c-0.1,0.4-0.3,0.6-0.3,0.8c0.7,6.4,0,13,2,19.2c0.5,1.5,3.2,2.1,4.8,1.4c1.5-0.7,0.2-2.3-0.2-3.5c-1.8-5.3-3.6-10.7-5.4-16
			C251.3,605.3,251,604.7,250.6,604.1z M277.8,691.7c-0.1-0.1-0.2-0.3-0.3-0.4c-4.9-6-10.3-11.6-16.9-16c-0.4-0.2-0.8-0.4-1.3-0.5
			c0.1,0.4,0,1,0.3,1.3c4.7,6.3,9.9,12,16.8,16c0.4,0.2,0.9,0.3,1.3,0.4C277.7,692.2,277.8,691.9,277.8,691.7z M305.2,591.7
			c-0.1-2-1.4-1.6-2.4-1.5c-2.7,0.1-5.5,0.2-5.5,4c0,1.9,0.2,3.8,2.8,3.8C304.2,597.9,303.2,593.6,305.2,591.7L305.2,591.7z
			 M525.8,394.2c2,0,4,0,5.9,0c1,0,2.1-0.2,2.1-1.5c-0.7-0.3-1.4-0.5-2.2-0.5c-7.4,0.1-14.9,0.6-22.1-1.8c-0.5,0-0.9,0-1.4,0.1
			c0.5,0.4,1,0.8,1.6,1.1C514.9,393.4,520.3,393.9,525.8,394.2z M300.8,603.1c0-1.4,0.9-2.9-1.1-2.9c-2.7,0-4.3,1.7-4.6,4.2
			c-0.2,1.8,0,4.2,2.2,4.3C301.5,608.8,299,604.4,300.8,603.1z M527.5,397.3c0.8,0.1,2,0.5,2.1-0.5c0.1-1.2-1.3-0.7-1.9-0.8
			c-8.7-0.7-17.5-1.1-25.3-5.9c-0.4-0.3-1.2-0.8-1.5,0.1c-0.1,0.2,0.9,0.9,1.4,1.2C509.9,396.1,518.8,396.5,527.5,397.3L527.5,397.3
			z M623.9,361.6c7.6-2.6,14.7-5.1,21.9-7.5c0.5-0.2,1.4-0.3,1-1.2c-0.4-0.8-1.2-0.5-1.7-0.3c-6.9,2.6-13.9,5.3-20.8,7.9
			c-0.4,0.2-0.8,0.5-1.2,0.9L623.9,361.6z M518.8,401.7c0.7,0,1.5,0,2.2,0c0.9-0.2,2.4,0.5,2.4-0.7c0-1.1-1.6-0.7-2.5-0.7
			c-5.5-0.2-10.9-0.9-15.9-3.2c-0.6-0.3-1.3-1.2-2-0.2c-0.1,0.1,0.7,1,1.3,1.3C508.9,401.4,514.3,401.1,518.8,401.7z M693.5,203.1
			c-1.1,1-0.6,1.9-0.4,2.7c1.8,6.7,3.6,13.4,5.5,20c0.2,0.7-1.4,2.2,0.5,2.1c1,0,0.6-1.4,0.5-2.1c-1.7-6.9-3.4-13.8-5.1-20.6
			C694.3,204.5,693.9,203.8,693.5,203.1z M298.8,614.3c-0.3-1.1,0.9-3.2-1.6-3.2c-2.3,0-2.7,2-2.9,3.8c-0.2,1.6,0,2.9,2.2,2.9
			C299.1,617.9,298.7,616.1,298.8,614.3z M403.2,233.8l-0.4-0.6c-0.4,0.3-0.7,0.7-1,1c-2.9,4.3-5.7,8.5-8.5,12.8
			c-0.3,0.5-0.5,1.6-0.3,1.7c1.1,0.8,1.3-0.4,1.7-1c2.7-4.4,5.4-8.7,8.1-13.1C402.9,234.4,403,234.1,403.2,233.8z M437.9,376.6
			c0.7,1.4-0.9,3.9,2,4.2c2.1,0.2,2.1-1.4,1.7-2.6c-0.6-2,0.8-5.4-1.7-5.9C437.7,371.8,438.3,374.9,437.9,376.6L437.9,376.6z
			 M659.2,268.1c0.4,1.1-0.8,3.1,0.9,2.7c2.1-0.6,3.8-2.3,4.4-4.4c0.3-1.5-2.2-2.4-3.3-2.3C658.9,264.2,660,266.8,659.2,268.1z
			 M673.4,216.4l-1,0.3c0.3,0.3,0.6,0.8,1,1c4.7,2,9.4,3.9,14.2,5.8c0.4,0.2,0.9,0,1.4-0.1c-0.2-0.2-0.4-0.6-0.6-0.7
			C683.3,220.6,678.3,218.5,673.4,216.4z M443.1,375.3c0.1,0.8,0.2,2.5,0.6,4.1c0.2,0.7,0.4,1.8,1.5,1.6c1.2-0.2,0.8-1.3,0.7-2
			c-0.3-2.5-0.7-4.9-1-7.3c-0.1-0.6,0-1.5-1-1.3c-0.3,0.1-0.6,0.7-0.7,1.1C443,372.5,443.1,373.5,443.1,375.3z M400.8,229.7h1.1
			c0-7,0-14,0-21c-0.1-0.6-0.2-1.3-0.4-1.9c-0.9,0.4-0.7,1.3-0.7,2C400.7,215.8,400.8,222.7,400.8,229.7z M407,227.9
			c0.3-0.1,0.6-0.3,0.8-0.5c2.6-3.4,5.3-6.9,7.9-10.3c0.2-0.3,0.1-0.9,0.2-1.4c-0.4,0.2-0.9,0.2-1.2,0.5c-3,3.2-5.2,6.9-7.6,10.5
			C406.8,227,406.2,227.5,407,227.9z M552.5,713.6c1.8-0.6,1.6-2.4,1.9-3.6c0.3-1,0-2.6-1.6-2.4c-1.1,0.2-3,0.5-3,2.1
			C550,711.3,551,712.8,552.5,713.6z M559.6,706.9c0-0.9,0.7-2.3-0.7-2.3c-1.2-0.1-2.3,0.7-2.5,1.9c-0.1,1.4,0.3,3.4,1.7,3.6
			C559.3,710.1,559,707.9,559.6,706.9L559.6,706.9z M701.1,234.6c0.5,4.1,1,8.2,1.5,12.2c0.1,0,0.3-0.1,0.3-0.2
			C703.3,242.6,703,238.5,701.1,234.6z M402.5,244h-0.6c0.2,3.4,0.3,6.8,0.5,10.2c0,0.4,0.5,0.8,0.7,1.2c0.2-0.4,0.3-0.8,0.3-1.3
			C403.2,250.7,402.9,247.4,402.5,244L402.5,244z M346.8,722c-0.8-0.6-1.7-1.1-2.6-1.6c-0.4-0.2-1.5-0.7-1.1,0.6
			c0.2,1,1.1,1.7,2.1,1.7C345.6,722.6,346,722.3,346.8,722z"/>
		<path d="M404.9,774.6c0.9-14.9,1.9-29.8,2.8-44.7c0.1-0.9-0.2-2.7,0.7-2.6c1.5,0.1,0.8,1.8,0.8,2.7c-0.8,16.4-1.8,32.8-2.6,49.2
			c-0.3,6-0.4,12-0.6,17.9c0,0.8,0,2-0.9,2.1c-1.6,0.1-1.1-1.4-1-2.2c0.3-7.5,0.6-14.9,1-22.4H404.9z"/>
		<path d="M592.6,805.3c0.9-6.7,2.1-14.8,3.2-22.8c0.1-0.7-0.1-2,1-1.8c0.9,0.2,0.6,1.4,0.5,2.2c-0.7,5.9-1.1,11.9-2.3,17.8
			c-1.5,7-0.3,13.5,2.4,19.9c1.5,3.7,2.7,7.5,4,11.2c0.2,0.6,0.4,1.5,0.1,1.8c-0.7,0.6-1.2-0.2-1.4-0.7
			C597.5,824.1,592.5,816.1,592.6,805.3z"/>
		<path d="M569.2,779c-0.7,0.3-1.3,0.6-1.9,1.1c-10.2,9.6-20.4,19.1-30.5,28.7c-0.7,0.6-1.5,2-2.3,1.2c-1-0.9,0.4-1.7,1-2.3
			c10.3-9.7,20.6-19.4,30.9-29.1c0.6-0.5,1.3-0.9,2.1-1.3C568.5,777.6,568.7,777.9,569.2,779z"/>
		<path d="M584.1,824.2c0-0.1,0,0.9-0.7,0.8c-1.1-0.2-1.3-1.4-1.4-2.4c-1.5-9-3.5-17.9-6.1-26.6c-1-3.3-2.1-6.6-3-10
			c-0.2-0.5,0-1.7,0.3-1.7c0.8-0.3,1,0.6,1.2,1.2C578.7,798.1,581.9,811,584.1,824.2z"/>
		<path d="M438.5,812.1c0.5,0.4,1,0.8,1.5,1.2c5.7,5.2,10,11.6,14.7,17.6c0.4,0.5,1,1.2,0.2,1.7c-0.7,0.5-1.2-0.2-1.6-0.7
			c-5-6.3-9.5-12.9-15.4-18.3c-0.3-0.3-0.3-0.8-0.4-1.3C437.8,812.3,438.1,812.3,438.5,812.1z"/>
		<path d="M330,522.5c-0.6-3.2,1.9-3.2,4-3.6c18.9-3,37.7-6.1,56.7-9c3-0.3,5.6-1.9,7.3-4.4c15-20.4,30.8-40.1,47.7-59
			c1.9-2.1,3.7-6.8,7.8-3.5c4.2,3.3,0.1,6-1.6,8.4c-12.8,17-25.9,33.9-38.8,50.8c-0.9,1.2-2.9,2.6-2.2,3.6c1,1.3,3-0.1,4.5-0.4
			c19.8-5,39.6-10,59.5-15c1.6-0.5,3.3-0.6,4.9-0.5c2.3,0.4,2.9,2.7,3.2,4.6c0.3,2.3-2,2.2-3.5,2.7c-22.3,7.4-45.1,12.6-68,17.7
			c-5.4,1-10.2,4.2-13.2,8.8c-8.3,11.9-16.8,23.6-25.2,35.4c-1.9,2.7-8.2,4.6-11,3c-2.5-1.4,0-2.6,0.6-3.5
			c7.3-11.7,15-23.2,23.1-34.4c1-1.3,3.1-2.5,2.2-4.4c-0.2-0.5-3.1,0.2-4.7,0.5c-15.4,2.8-30.7,5.6-46.1,8.5
			C330.9,530,330,529.3,330,522.5z M367.2,560.8c2.4,0.8,3.5-1.2,4.8-3c8.4-11.8,16.8-23.6,25.2-35.4c2.9-4.5,7.5-7.6,12.7-8.8
			c22.5-5.1,45.1-10,67.1-17.4c1.5-0.5,4.3-0.1,3.7-2.9c-0.7-3-3.1-1.6-4.9-1.2c-22.1,4.9-43.8,11-65.7,16.6
			c-1.1,0.3-2.6,1.1-3.2,0.1c-0.7-1.1,0.8-2,1.5-2.9c13-16.9,26-33.8,39-50.7c1.9-2.5,3.8-5.1,5.6-7.7c0.6-0.8,1.2-1.7,0.2-2.7
			c-0.7-0.9-2-1-2.9-0.3c-0.1,0.1-0.2,0.1-0.2,0.2c-1,0.9-1.9,1.9-2.8,2.9c-16.3,18.3-31.7,37.3-46.1,57.1c-3.4,4.7-7.3,6.8-13,7.6
			c-17.5,2.4-34.8,5.4-52.3,8.1c-3.3,0.5-3.9,2.3-3.5,5.2c0.5,3.8,2.9,1.7,4.5,1.5c16.9-2.6,33.8-5.6,50.6-9.1
			c1.4-0.3,3.3-1.4,4.2-0.2c1.2,1.7-0.9,2.9-1.8,4.1c-8.5,11.6-16.5,23.4-24.2,35.5C364.2,559.2,362.8,561.1,367.2,560.8z"/>
		<path d="M557.9,37.9c5.7,0.7,11.4,2,16.2,5.6C589,54.8,598,70.4,605,87.3c0.3,0.7,0.8,1.8-0.1,2.2c-1,0.3-1.1-1-1.5-1.6
			c-2.4-4.9-4.7-9.9-7.1-14.8c-3.9-8.2-9.5-15.1-15.8-21.6s-13.4-11.4-22.9-11.7c-1,0-2.9,0.2-2.8-1.2
			C554.9,37.4,556.7,38.1,557.9,37.9z"/>
		<path d="M537,38.9c0.8,0,1.5,0.1,2.3,0.3c1.8,0.9,5-0.2,5.3,2.4c0.1,0.8-3.2-0.5-4.9-0.5c-10.8-0.2-19.5,5-27.5,11.3
			c-7.6,5.9-13.9,13.4-20.4,20.4c-0.7,0.8-1.8,2.6-2.5,1.9c-1.3-1.3,0.6-2.2,1.4-3c10-10.6,19-22.3,33-28.4
			C528.1,41.3,532.5,39.4,537,38.9z"/>
		<path d="M654.1,87.7c-0.1,0.3-0.2,0.6-0.3,0.9c-0.4-0.1-0.9-0.3-1.3-0.5c-5-5.1-9.9-10.2-14.8-15.3c-0.3-0.4-0.5-0.8-0.6-1.3
			c0.4-0.1,1-0.3,1.2-0.1c5.6,4.9,10.8,10.2,15.6,15.9C654,87.4,654,87.5,654.1,87.7z"/>
		<path d="M566.1,269.1c-0.1,10.8-8,22.2-17.2,25.1c-14.5,4.6-31.3-8.8-30.7-24.5c0.2-6.1,2.3-9.7,8.5-12.8
			c8.5-4.3,16.3-2.4,24.1-0.4c3.3,0.8,6,3.1,10,2.1c1.9-0.5,3.7,1.3,4.3,3.5C565.8,264.3,566.2,266.7,566.1,269.1z M563.8,269.4
			c0-0.7,0-1.3,0-2c-0.4-6.3-1.3-7-7.4-5.5c-1,0.2-2.3,0.6-2.8-0.2c-3.2-5.6-9.1-3.6-13.8-5c-6.7-2-11.5,3.1-17.2,5
			c-1.3,0.4-1.3,2.2-1.5,3.5c-1.6,8.7,0.1,16.4,7.4,21.9c6.5,4.9,13.8,8.3,21.8,4C558.7,286.6,563.5,279.3,563.8,269.4z"/>
		<path d="M607.3,213.4c-0.6,9-3.1,17-11.3,22.1c-5.9,3.7-10.8,3-15.8-1.9c-8.5-8.4-11.1-20.6-6.3-30.2c0.8-1.6,1.4-4,3.7-1.3
			c1.2,1.3,2.5,2.6,4.2,1.1c1.6-1.2,1.9-3.5,0.7-5c-0.1-0.1-0.2-0.2-0.3-0.3c-3.3-3.5-0.7-4.3,2-5.4c8.1-3.2,12.6-1.9,17.7,5.1
			C605.2,202.3,607.5,207.4,607.3,213.4z M604.9,213.2c0.3-6.5-2.6-11.5-6.6-16.2c-3.2-3.8-6.9-4.6-11.6-3c-2.4,0.8-3,1.4-2.1,4.1
			c1.8,5-1.8,9.8-5.8,7.9c-4.6-2.1-4.2,1.1-4.7,3.4c-1.8,8.9,1.2,16.4,7.5,22.7c4.4,4.4,8.1,4.8,13.4,1.4
			C602.4,228.7,604.6,221.4,604.9,213.2z"/>
		<path d="M335.3,635.8c-6,1.5-11.4,4.6-16.8,7.4c-0.7,0.3-1.7,1.2-2.2,0.2c-0.4-0.7,0.7-1.3,1.4-1.7c4.9-2.9,10-5.3,15.4-7.2
			c2.6-0.9,3.3-2.3,2.5-4.9c-2.8-8.8-1.6-17.8-1.8-26.8c0-0.9-0.3-2.4,0.8-2.5c1.7-0.1,1.3,1.6,1.3,2.7c0.1,3.7,0.2,7.3,0.1,11
			c-0.3,11.2,2.2,21.5,9.8,30.1c0.6,0.7,1.8,1.7,1,2.5c-1.2,1.2-2.1-0.3-2.7-1.1c-2-2.7-3.8-5.4-5.7-8.2
			C337.6,636.2,337.3,634.2,335.3,635.8L335.3,635.8z"/>
		<path d="M305.4,618.4c-0.6,0.1-1.6,0.3-1.7-0.4c-0.2-1.1,1-1,1.7-1.2c6.1-1.7,12.1-3.4,18.2-5.1c0.6-0.3,1.2-0.6,1.7-1
			c-0.7-0.7-1.5-0.3-2.1-0.1c-5.6,1.6-11.1,3.3-16.7,4.9c-1.1,0.3-2.4,1.3-3,0c-0.3-0.7,1.3-1.2,2.2-1.6c7-2.6,14.2-4.6,21.5-5.9
			c1-0.2,2.6-0.8,3,0.6c0.5,1.5-0.7,2.3-2.1,2.9C320.9,614.9,313.1,616.5,305.4,618.4z"/>
		<path d="M309.5,600.3c-0.9-0.2-2.3,0.9-2.5-0.6c-0.2-1,1.2-0.8,1.9-0.9c7.2-1.2,14.4-2.3,21.6-3.5c0.6-0.1,1.7-0.2,1.9,0.2
			c0.5,0.9-0.5,1.3-1,1.9c-0.7,0.9-1.7,1.6-2.8,1.9c-6.4,1.6-12.9,3.3-19.3,4.8c-0.9,0.2-2.5,0.7-2.7-0.2c-0.3-1.3,1.3-1.1,2.2-1.3
			c4.3-1.2,8.7-2.3,13-3.4c0.5-0.2,1-0.5,1.4-0.8c-0.5-0.1-1-0.1-1.5-0.1C317.6,598.9,313.5,599.6,309.5,600.3z"/>
		<path d="M335.8,582.9c0.4,0.1,1.5,0.2,1.5,0.4c0.1,1-0.9,1.2-1.7,1.3c-7.3,1.1-14.6,2.6-21.8,4.5c-0.6,0.2-1.4,0.2-1.6-0.6
			c0-0.3,0.9-0.8,1.4-1C320.8,585.3,328.2,584.1,335.8,582.9z"/>
		<path d="M311.9,634.4c-0.6-0.2-1.3-0.2-1.4-0.5c-0.2-0.8,0.5-1,1.1-1.3c5.6-2.5,11.5-4.4,17.5-5.8c0.6,0,1.3,0.1,1.9,0.3
			c-0.2,0.3-0.4,0.9-0.7,1C324,629.9,317.7,631.7,311.9,634.4z"/>
		<path d="M327.1,656.2c-0.5-1.6,0.4-2.4,1.8-3c4-2,8.2-3.6,12.5-4.8c0.9-0.2,2.3-0.9,2.5,0.2c0.2,0.9-1.3,1.3-2.2,1.5
			C336.6,651.5,331.7,653.5,327.1,656.2L327.1,656.2z"/>
		<path d="M335.2,635.8c1.3,1.8,0.1,2.6-1.3,3.4c-4,2-8,4-12,6c-0.7,0.4-1.9,1.4-2.5,0.1c-0.3-0.7,1-1.1,1.7-1.5
			C325.9,641.2,331.3,639.7,335.2,635.8C335.3,635.8,335.2,635.8,335.2,635.8z"/>
		<path d="M561.1,518.8c-0.2,1.4-1.1,0.7-1.7,0.3c-2.2-1.4-4.7-2.5-7.2-3.1c-0.4-0.2-0.8-0.5-1.1-0.8c-0.1-0.1,0.1-0.6,0.3-0.8
			C552.6,513.6,560.9,517.3,561.1,518.8z"/>
		<path d="M536.9,701.8c-0.3,1.2,0.7,3.3-0.5,3.5c-1.4,0.2-1.3-1.9-1.6-3.2c-0.7-3.6-1.5-7.1-1.9-10.7c-0.4-3.5-1.2-6.3-5.7-4.9
			c-0.8,0.2-2,0.3-2.2-0.5c-0.4-1.5,1.1-1.4,1.9-1.5c10.3-1.4,20.1-4.2,28.7-10.3c0.6-0.5,1.6-1,2.2-0.2c0.6,0.9-0.3,1.5-1,2
			c-0.9,0.7-1.9,1.3-2.9,1.9c-2.2,4.1,0.3,8.1,0.2,12.1c0,0.6,0.2,1.3,0.3,1.9c0.2-0.7,0.3-1.4,0.3-2.2c-0.3-4-0.7-7.9-1-11.9
			c1,0.2,1.8,1,2,2c0.5,6,1,11.9,1.4,17.9c0,0.6,0.2,1.5-0.7,1.6c-0.2,0-0.6-0.9-0.7-1.5c-0.2-1.2-0.3-1.2-0.6,0
			c-0.2,0.8,0.6,2.3-1,2c-0.5-0.1-0.8-1.7-0.9-2.7c-0.6-4.6-1.1-9.2-1.5-13.9c-0.3-2.6-1.3-3.6-3.9-2.2c-1.2,0.6-2.4,1-3.7,1.4
			c-10.7,3.8-10.7,3.9-8.3,15.2C536.1,699,535.7,700.6,536.9,701.8L536.9,701.8z"/>
		<path d="M521.2,705.7c-0.2,0.9,0.6,2.2-0.8,2.5c-0.9,0.2-1.5-0.8-1.7-1.5c-1.1-4.1-3.6-7.8-1.4-12.6c1-2.2-0.4-5.5-0.6-8.3
			c0-0.6,0.2-1.6,0.5-1.7c0.9-0.2,0.9,0.8,0.9,1.4C519.2,692.3,520.2,699,521.2,705.7z"/>
		<path d="M569.6,680.5c-0.2,3.6-0.3,7.3-0.5,10.9c0,0.6-0.3,1.7-0.6,1.7c-0.8,0.2-0.8-0.8-0.8-1.3c0.2-7.4,0.5-14.9,0.8-22.3
			c0-0.8,0.1-1.7,1.2-1.7c0.3,0.6,0.4,1.2,0.4,1.8c0,3.6,0,7.3,0,10.9L569.6,680.5z"/>
		<path d="M567,680.5c-1.1,3.5,0.5,7.5-1.7,10.9c-1.1-3.6-0.5-7.3-0.3-10.8c0.3-3.4-1.2-7.2,1.5-10.3
			C567.9,673.6,566.4,677.1,567,680.5z"/>
		<path d="M537,701.9c0.1-4.3-1.1-8.5-1.7-12.7c-0.1-0.7-0.6-1.8,0.5-2c1-0.1,1.1,1,1.3,1.8c0.9,5.4,1.8,10.7,2.7,16.1
			c0.1,0.8,0.9,2.1-0.5,2.3c-0.9,0.1-1-1.1-1.2-1.9c-0.3-1.3,0-2.7-1.1-3.7V701.9z"/>
		<path d="M613.2,703.7c-0.5,2.1,0.8,4.4-0.8,6.5c-2-1.8-1.2-4.3-1.1-6.4c0.1-2.5-1.6-5.4,0.9-7.7
			C613.8,698.5,612.6,701.2,613.2,703.7z"/>
		<path d="M595.9,697.4c-3.1,0.1-6.2-0.9-8.7-2.8c-0.4-0.3-1-1.2-0.9-1.5c0.4-0.8,1.2-0.2,1.7,0.1c2.4,1.4,4.8,2.8,7.8,2.7
			c0.8,0,2.5-0.4,2.4,0.7C598.2,698.1,596.5,697.3,595.9,697.4z"/>
		<path d="M484.4,214c0.1-5.1,2.4-7.9,6.4-7.7c3.8,0.2,6.8,4.6,6.6,10.2c-0.1,3.7-3.1,6.9-6.4,6.9
			C486.9,223.3,484.3,219.6,484.4,214z M495.8,215.7c-1.2-2.7-0.5-7.3-5.3-7.5c-4.2-0.2-4.4,3.2-4.4,6.3c0,3.6,0.9,7.1,5.2,7
			C494.2,221.6,495.8,219.1,495.8,215.7L495.8,215.7z"/>
		<path d="M386.9,689.9c0.4,3.9,0.9,7.8,1.3,11.8c0.1,0.8,0.5,2-0.4,2.2c-1.1,0.3-1-1-1.1-1.7C386.1,698.1,384.4,694,386.9,689.9
			L386.9,689.9z"/>
		<path d="M583.9,213.2c0.1-3.7,4.2-8.6,7.3-8.2c4.1,0.6,4.9,3.9,4.9,7.4c0,4.2-3.1,8.6-6,8.7C587.4,221.1,583.8,216.6,583.9,213.2z
			 M585.8,213.5c0.4,2.6,1.3,5.4,4.2,5.3c3.7-0.1,4.4-3.7,4.4-6.6c0.1-2.3-0.2-5.6-3.7-5.2C587.3,207.4,586.1,210.4,585.8,213.5
			L585.8,213.5z"/>
	</g>
</g>
<g id="图层_1_1_">
	<g>
		<path d="M368,1025h3c-0.1-0.3-0.2-0.7-0.2-1h-3C367.9,1024.3,367.9,1024.7,368,1025z"/>
		<path d="M473,1025h3c0-0.3,0-0.7,0-1h-3C473,1024.3,473,1024.7,473,1025z"/>
		<path d="M570,1025h2c0-0.3-0.1-0.7-0.1-1h-2.2C569.8,1024.3,569.9,1024.7,570,1025z"/>
		<path d="M684,1025h2c0.1-0.3,0.1-0.7,0-1h-2.4C683.7,1024.3,683.9,1024.7,684,1025z"/>
		<path fill="#EB779B" d="M443.8,370.4c-0.3,0.1-0.6,0.7-0.7,1.1c-0.1,1,0,2,0,3.8c0.1,0.8,0.2,2.5,0.6,4.1c0.2,0.7,0.4,1.8,1.5,1.6
			c1.2-0.2,0.8-1.3,0.7-2c-0.3-2.5-0.7-4.9-1-7.3C444.7,371.1,444.8,370.1,443.8,370.4z"/>
		<path fill="#D1B0AB" d="M452.4,255.5c-6.9-4.6-12.8-10.2-17-17.4c-1.9-3.2-2.9-3.3-4.7,0.1c-8.3,15.6-11.5,32.5-12.5,49.8
			c0.3,17.4,8.6,29.8,23.4,38.1c0.8,0.5,1.6,1.4,2.6,0.8c0.2-0.1-0.3-1.8-0.7-2.6c-4.4-8.4-4.1-17.7-5.5-26.7
			c-0.1-0.8-0.5-2.3,0.6-2.5c0.9-0.2,1,1.2,1,2c0.6,10.1,6.1,18.5,9.9,27.5c1.3,3.1,3.2,5.9,5.6,8.2c0.7,0.7,1.5,1.3,2.3,1.9
			c1-1.2-0.2-2.2-0.6-3.1c-8.5-21-6.6-42-0.1-63C457.9,264.6,455.9,257.8,452.4,255.5z"/>
		<path fill="#2A1429" d="M593.7,382.5c-24.7,12.1-48.3,27.1-76.5,30.3c-0.8,0.1-1.9,0.3-1.9,1.2c0,1.3,1.2,0.5,1.9,0.7
			c10.4-1.6,20.7-3.1,30.4-7.4c35.2-15.7,70.4-31.6,106.5-45.2c0.9-0.3,2.8-0.1,2.3-1.9c-0.5-1.5-1.4-3.2-3.5-2.9
			c-1.3,0.3-2.6,0.7-3.8,1.2C629.8,364.9,611.7,373.6,593.7,382.5z"/>
		<path fill="#F5EAF7" d="M495.1,348.2c4.1-5,10.2-6,16.5-3.8c2.4,0.8,4.7,1.8,7,2.6c4.1,1.4,5.6,0.3,5.4-4.5
			c-0.4-5.2-1.9-10.9-3.3-16.5c-0.7-2.7-2.2-3.9-4.9-4.8c-12.4-4.2-24.8-8.5-37.4-12.1c-0.6-0.2-1.8-1.4-1.9,0.1
			c-0.2,4.7-2.4,1.7-3.7,0.9c-7.1-4.2-13.8-8.9-16.5-17.2c-0.3-0.6-0.7-1.1-1.1-1.6c-0.4,0.5-0.6,1.1-0.8,1.7c-0.2,1-0.1,2-0.2,3
			c-1.6,14.9,1.6,28.8,8,42.1c0.6,1.3,2,2.9,0.5,4s-2.6-0.8-3.7-1.7c-3.9-3.2-7.3-6.6-12.5-8.6c-8.2-3.1-15.3-8.3-20.8-15.2
			c-2-2.6-2.8-1.8-3.6,0.9c-3.5,11.3-7.7,22.3-12.6,33.1c-1.2,2.6-0.5,4.2,1.3,6.1c6.1,6.1,11.8,12.7,17.1,19.5
			c3.3,4.5,5.1,4.4,6.9-1.1c1.3-3.9,3.8-5.5,7-7.1c9.9-5.1,20.6-7.4,31.5-9C481.7,357.6,489.2,355.2,495.1,348.2z"/>
		<path fill="#C2999A" d="M417.2,270.3c-1.1-0.2-0.9,1.8-1.2,2.9c-4.6,21-12.1,41.2-22.4,60.1c-0.9,1.6-1.2,3.9-3.7,3.9
			c4.3,3.9,8.7,7.6,12.8,11.6c2.5,2.4,3.7,2.4,5.1-1c4.6-11.1,8.8-22.2,12.5-33.6c0.7-2.1,1.1-4.2,0-6.3
			c-5.6-11.2-4.9-22.9-3.1-34.7C417.5,272.2,418.4,270.5,417.2,270.3z"/>
		<path fill="#2A1429" d="M439.9,380.8c2.1,0.2,2.1-1.4,1.7-2.6c-0.6-2,0.8-5.4-1.7-5.9c-2.3-0.5-1.6,2.6-2,4.3
			C438.6,378,437,380.5,439.9,380.8z"/>
		<path fill="#E5B0BD" d="M600,386.4c-8.3,3.2-15,7.3-18,16.1c-0.4,1.2-1.4,2.2-2,3.4c-0.5,1.1-2.4,2.3-1.2,3.2
			c0.8,0.7,2.1-1.1,3.1-2c5.5-4.8,11-9.7,16.5-14.5c0.8-0.7,1.7-2.4,2.7-1.2c0.8,1-0.9,1.8-1.7,2.5c-7.9,6.9-15.8,13.7-23.8,20.5
			c-1.5,1.3-3.1,2.5-4.6,3.8c-0.9,0.9-2.7,1.8-2,3c0.5,1,2.1-0.2,3.2-0.5c3.4-0.9,6.8-1.7,10.1-2.7c21.1-6.3,40.4-2.6,57.9,10.7
			c2.6,2,5.4,3.8,8,6c2.2,1.8,3,1.1,3.5-1.3c2.2-10.1,6.2-19.6,9.6-29.3c1.7-4.7,2.6-9.7,2.6-14.7c-0.3-7.3-1.6-14.5-3.7-21.5
			c-1.1-3.8-2.5-5.1-6.6-3.3C635.9,372.2,618.1,379.6,600,386.4z"/>
		<path fill="#E5B0BD" d="M626.8,503.4c-22.9-14.3-48.1-20.7-75.5-22.2c-4.8-1.6-6.8,1.6-8.6,6.1c-4.3,11-9.1,21.8-13.7,32.7
			c-1.2,2.8-2.3,5.6-5.7,6.5c-0.7,0.2-1.8,0.9-1.4,1.8c0.3,0.9,1.4,0.4,2.2,0.2c6.6-1.6,13.2-3.3,19.8-4.9c1.1-0.3,2.9-1.2,3.1-0.2
			c0.3,1.5-1.7,1.5-2.9,1.8c-9.3,2.5-18.6,5.2-28,7.3c-4.6,1-5.7,3.7-6,7.7c-2.2,28.3-9.4,55.3-19.6,81.7c-0.6,1.5-2.2,3.4-1.1,4.6
			c1.2,1.4,3.4,0.4,5.2,0c27.3-6,53.9-14.5,80.6-22.6c2.9-0.9,5.6-2.3,7.1-5.2c2.3-4.5,5.5-8.3,8.4-12.4
			c5.3-7.4,10.4-14.9,13.6-23.7c4.8-13,11.5-25.1,18.6-37c3.2-5.3,4.3-11,6.2-16.7C630,506,629.1,504.8,626.8,503.4z M559.4,519.1
			c-2.2-1.4-4.7-2.5-7.2-3.1c-0.4-0.2-0.8-0.5-1.1-0.8c-0.1-0.1,0.1-0.6,0.3-0.8c1.2-0.8,9.4,2.8,9.7,4.4
			C560.9,520.2,560,519.5,559.4,519.1z"/>
		<path fill="#EC759B" d="M656.8,445.4c-10.1-10-21.8-18.1-34.7-24.1c-3.8-1.8-7.8-3-11.9-3.4c-16.2-1.5-31.3,3.2-46.2,8.4
			c-1.4,0.6-2.5,1.7-3.2,3c-9.6,14.7-18,29.9-23.1,46.8c-0.8,2.2-0.5,4.7,0.9,6.6c0.6,0.8,1.2,2.4,2.6,1.6c0.7-0.4,1.6-1.9,1.4-2.5
			c-1.7-4,1.2-3,3.1-3.1c1.3,0,2.7,0,4,0c12.5,0.6,24.8,2.3,37,5.1c18.3,4.1,34.3,13.3,50.2,22.8c0.8,0.5,2,1,1.3,2.2
			c-0.5,0.9-1.5,0.2-2.2-0.1c-0.7-0.4-1.4-0.9-2.2-1.2c-2-0.8-2.5,0.8-2.4,2c0.1,1.4-2.4,3.1,0.2,4.3c3,1.3,10.1-0.6,12.4-3.4
			c2.8-3.3,4.6-7.4,5-11.8c0.5-4.9,2.2-9.3,3.7-13.9c2.8-8.5,5.3-17.1,7.8-25.7C662.1,454.2,660.6,448.8,656.8,445.4z"/>
		<path fill="#E5B0BD" d="M386.5,705.6c1.6,0.5,3.2,0.9,4.8,1.3c1.9,0.4,4.6,2.1,5.6,0.7c1.3-1.7-1.3-3.6-2.2-5.4
			c-1.4-3-3.1-5.9-4.6-8.8c-0.8-1.4-1.1-3.3-3.3-3.3l0.1,0.1l0,0l0,0c0,0,0,0.1-0.1,0.1c0.4,3.9,0.8,7.7,1.2,11.6
			c0.1,0.8,0.5,2-0.4,2.2c-1.1,0.3-1-1-1.1-1.7c-0.6-4-2.3-8.1,0.3-12.1v-0.1c-2.7-1.2-5.3-2.4-8-3.6c-1.6-0.7-2.5-0.8-2.9,1.5
			C374,698.7,376.1,702.3,386.5,705.6z"/>
		<path fill="#2A1429" d="M663.6,406.8c-0.8-0.1-1.1,0.6-1.3,1.2c-2.7,8.4-6,16.5-8.3,25c-1.1,3.8-0.8,6.5,2.5,9.1
			c7,5.4,8.1,12.3,5.2,20.5c-3,8.6-5.5,17.4-8.2,26.1c-0.5,1.6-1.2,3.2,1.1,4.2c7.6,3.5,14.6,8,20.9,13.4c0.7,0.6,1.9,1.2,2.6,1
			c1.1-0.4,0.4-1.7,0.5-2.6c0-0.5,0-1-0.1-1.5c-4-31.8-11.4-63.1-14.8-95C663.8,407.7,663.8,406.8,663.6,406.8z"/>
		<path fill="#EB779B" d="M532.9,433.7c10.2,0.3,19.6-1.9,26.9-7.7c9.7-7.6,16.9-17.8,22.6-28.9c0.4-0.8,1.5-1.7,0.5-2.6
			c-0.3-0.3-1.5,0.2-2.2,0.5c-1.2,0.5-2.4,1.1-3.6,1.6c-13.4,5.7-26.3,13-40.5,16.7c-5.9,1.5-12,2.5-18.1,3.5
			c-2.6,0.4-2.6,1-1.1,2.9c2,2.4,3.8,5.1,5.2,7.9C524.8,432.7,528.1,435,532.9,433.7z"/>
		<path fill="#DC91A7" d="M537.9,462.9c0.2,0.5,0.1,1.4,1.2,1.2c0.2-0.2,0.5-0.4,0.7-0.7c4.4-10.6,10-20.6,15.8-30.4
			c0.2-0.4,0.4-1.1,0.2-1.3c-0.5-0.7-1.2-0.1-1.7,0.2c-7.5,3.5-15.5,4.5-23.8,4.3c-1.7-0.1-2.7,0.4-1.8,2.3
			C532.1,446.3,534.9,454.7,537.9,462.9z"/>
		<path fill="#2A1429" d="M623.1,361.4l0.8,0.2c7.6-2.6,14.7-5.1,21.9-7.5c0.5-0.2,1.4-0.3,1-1.2c-0.4-0.8-1.2-0.5-1.7-0.3
			c-6.9,2.6-13.9,5.3-20.8,7.9C623.8,360.7,623.4,361,623.1,361.4z"/>
		<path fill="#9A2950" d="M585.7,382.5c-14.9,8.4-29.9,16.6-46.7,20.9c-5.8,1.5-11.3,3.9-17.2,4.9c-1,0.2-2.1,0.8-2.2,1.8
			c-0.1,1.3,1.2,0.4,1.9,0.8c1.1-0.2,2.2-0.5,3.3-0.7c18.4-4.1,34.9-12.8,51.7-20.8c20.7-9.9,40.5-21.7,62.4-29
			c3.5-1.2,6.9-2.4,10.3-3.6c0.6-0.2,1.5-0.9,1.4-1.1c-0.3-1.1-1.3-0.6-2-0.4c-1,0.2-1.9,0.6-2.9,0.9
			C624.6,362.2,604.9,371.7,585.7,382.5z"/>
		<path fill="#9A2950" d="M568.8,385.8c-13.2,7-26.3,14.3-41.1,17.8c-0.9,0.2-1.8,0.7-2.5,1.4c-0.3,0.3,0.4,0.6,0.2,0.6
			c1.9-0.5,3-0.7,4.1-1.1c9.7-3,19.1-6.8,28.2-11.4c27.7-13.4,53.1-31.4,82.7-40.8c0.7-0.2,1.9-1.1,1.8-1.2
			c-0.5-1.5-1.5-0.5-2.4-0.3c-10.3,2.8-20.2,6.8-29.5,12C596.5,370.6,582.8,378.4,568.8,385.8z"/>
		<path fill="#2A1429" d="M590,336.3c4,4.4,2,7.4-1.7,10.8c-17.9,16.2-35.7,32.5-53.5,48.9c-1.5,1.4-4.7,2.7-3.7,4.4
			c0.7,1.3,3.9-0.6,5.9-1.3c16.8-6.6,32.4-15.5,48.1-24.1c13.8-7.6,27.2-16.1,42-21.9c3.4-1.3,7.4-1.5,10.3-4.2
			c-3.1-2.3-6.9-3-10.5-4.3c-9.5-3.4-19.6-5.5-27.5-12.5c-1.8-1.6-4.2-2-6.8-1.9l0,0c-1.2,0.1-3.2-0.7-4,0.6
			C587.5,332.7,588.7,334.9,590,336.3z"/>
		<path fill="#2A1429" d="M500.2,403.1c3.3,2.5,6.3,5.3,9.5,8c0.7,0.6,1.5,1.2,2.4,2c2.6-2.3,5.1-4.4,7.6-6.7c0.8-0.7,2.4-1.4,2-2.6
			c-0.4-1.3-2-0.6-3.1-0.6c-5.7-0.1-11.2-0.7-16.1-4.1c-1.1-0.7-2.3-3.4-3.9-1.1C497.4,399.8,498.3,401.7,500.2,403.1z"/>
		<path fill="#EB779B" d="M527.5,397.3c0.8,0.1,2,0.5,2.1-0.5c0.1-1.2-1.3-0.7-1.9-0.8c-8.7-0.7-17.5-1.1-25.3-5.9
			c-0.4-0.3-1.2-0.8-1.5,0.1c-0.1,0.2,0.9,0.9,1.4,1.2C509.9,396.1,518.8,396.5,527.5,397.3L527.5,397.3z"/>
		<path fill="#2A1429" d="M453.9,382.6c14.2,1.1,26.7,6.7,38.2,14.7c3.8,2.6,4.1,0.7,4.6-2.3c1.3-8.2,2.5-16.4,4.2-24.6
			c1.4-6.5,3.2-13,9.8-16.6c2.1-1.1,6.2-2.9,5.6-4.1c-1.1-2.3-4.8-2.5-7.4-3.3c-0.9-0.2-1.9-0.3-2.9-0.2c-4.3,0-8.3,2.1-10.9,5.5
			c-4.1,5-9.4,7.5-15.7,8.8c-9,1.8-18,2.9-26.8,5.6c-5.3,1.7-6.9,4-5.8,9.6C447.8,380.1,449.2,382.2,453.9,382.6z"/>
		<path fill="#D1B0AB" d="M455.8,279.9c1.6,8.5,3.3,17.1,11.1,22.9c0.6,0.4,1.2,1.9,2.3,0.6c2-2.3,1.9-2.3,4.3-0.7
			c2.2,1.5,4.5,2.8,6.8,4.2c0.6,0.4,1.3,1.2,2.2,0.5c-0.6-0.5-1.3-1-1.9-1.4c-10.7-6.2-19.6-13.8-20.9-27.3
			c-0.2-2.1-0.1-4.5-1.6-6.4C456,274.4,456.3,277.1,455.8,279.9L455.8,279.9z"/>
		<path fill="#2A1429" d="M520.9,400.3c-5.5-0.2-10.9-0.9-15.9-3.2c-0.6-0.3-1.3-1.2-2-0.2c-0.1,0.1,0.7,1,1.3,1.3
			c4.6,3.2,10.1,2.9,14.5,3.5c0.7,0,1.5,0,2.2,0c0.9-0.2,2.4,0.5,2.4-0.7C523.4,399.9,521.8,400.3,520.9,400.3z"/>
		<path fill="#2A1429" d="M533.8,392.7c-0.7-0.3-1.4-0.5-2.2-0.5c-7.4,0.1-14.9,0.6-22.1-1.8c-0.5,0-0.9,0-1.4,0.1
			c0.5,0.4,1,0.8,1.6,1.1c5.2,1.8,10.6,2.3,16.1,2.5c2,0,4,0,5.9,0C532.8,394.1,533.8,393.9,533.8,392.7z"/>
		<path fill="#FEF1D9" d="M556,373.6c0.5-0.4,1.2-1.3,1.1-1.5c-0.6-1.1-1.4-0.1-2,0.1c-6.1,2.2-12.1,4.6-18.2,6.8
			c-6.9,2.5-13.4,1.4-19.3-2.8c-3.4-2.4-6.8-4.7-10.2-7.1c-2.1-1.4-3.7-1.4-4.2,1.6c-0.6,3.6-1.3,7.2-2,10.7
			c-0.5,2.4,0.6,3.5,2.6,4.6c7,3.7,14.5,4.6,22.9,4.7c3.8-0.7,8.9,0.8,12.7-2.2C545.2,383.9,550.5,378.6,556,373.6z"/>
		<path fill="#F9D0D5" d="M548,614.2c-19.3,5.5-38.3,12.3-58.3,15.2c-1.7,0.2-3.1,1.4-3.7,2.9c-4.5,9-9.7,17.5-16.7,24.8
			c-1.1,1.1-2,2.2-0.9,3.9c3.4,5.5,7,10.4,13.9,11.9c8.7,2,17.4,4.5,26,6.9c1.2,0.3,3.3,0.3,2.8,1.9c-0.4,1.5-2.4,0.5-3.5,0.2
			c-2.4-0.5-4.8-1.1-7.2-1.9c-2.3-0.7-2.7,0.2-2.2,2.1c1.1,4.5,2.3,9,3.5,13.5c0.2,0.6,0.5,1.2,0.8,1.8c0.2-0.7,0.2-1.5,0.2-2.2
			c-0.6-3.6-1.3-7.2-1.9-10.8c-0.1-0.6-0.6-1.8,0.7-1.9c0.2,0,0.7,1,0.8,1.6c1.2,5.9,2.3,11.7,3.3,17.6c0.3,1.4,1.7,3.6-0.7,4.2
			c-1.8,0.4-2.7-1.6-3.1-3.3c-1.5-5.6-3-11.2-4.4-16.9c-2-7.6-2.8-8.3-10.4-9.5c-2.4-0.4-3.2,0.4-2.5,2.6c2.2,7.5,4.5,14.9,8.7,21.7
			c2.8,4.8,7.6,8.1,13,9.2c20.7,4.7,39.5,0.5,57.2-10.8c7.9-5.1,13.3-11.1,11.7-21.3l0,0c-0.3-3.5-0.6-6.9-1.1-10.4
			c-0.3-2.5,0.2-5.9-2.1-7c-1-0.5-2.2,3.6-3.5,5.4c-0.6,0.9-1,2.7-2.3,2c-1.4-0.7-0.1-2,0.4-3c2.5-5.1,5.6-9.8,7.7-15.1
			c2.9-7.3,2.1-13.9-3-20c-3.8-4.6-7.9-9-12.3-13.1C555.5,613.6,552.4,613,548,614.2z M520.4,708.2c-0.9,0.2-1.5-0.8-1.7-1.5
			c-1.1-4.1-3.6-7.8-1.4-12.6c1-2.2-0.4-5.5-0.6-8.3c0-0.6,0.2-1.6,0.5-1.7c0.9-0.2,0.9,0.8,0.9,1.4c1,6.7,2,13.5,3,20.2
			C520.9,706.6,521.8,707.9,520.4,708.2z M567.7,691.8c0.2-7.4,0.5-14.9,0.8-22.3c0-0.8,0.1-1.7,1.2-1.7c0.3,0.6,0.4,1.2,0.4,1.8
			c0,3.6,0,7.3,0,10.9h-0.5c-0.2,3.6-0.3,7.3-0.5,10.9c0,0.6-0.3,1.7-0.6,1.7C567.7,693.3,567.7,692.4,567.7,691.8z M566.5,670.2
			c1.4,3.4-0.1,6.8,0.5,10.3c-1.1,3.5,0.5,7.5-1.7,10.9c-1.1-3.6-0.5-7.3-0.3-10.8C565.3,677.1,563.8,673.3,566.5,670.2z M557.8,674
			c0.6,0.9-0.3,1.5-1,2c-0.9,0.7-1.9,1.3-2.8,1.9c0.9,0.2,1.7,1,1.8,2c0.5,6,1,11.9,1.4,17.9c0,0.6,0.2,1.5-0.7,1.6
			c-0.2,0-0.6-0.9-0.7-1.5c-0.2-1.2-0.3-1.2-0.6,0c-0.2,0.8,0.6,2.3-1,2c-0.5-0.1-0.8-1.7-0.9-2.7c-0.6-4.6-1.1-9.2-1.5-13.9
			c-0.3-2.6-1.3-3.6-3.9-2.2c-1.2,0.6-2.4,1-3.7,1.4c-10.7,3.8-10.7,3.9-8.3,15.2c0.3,1.4,0,3,1.1,4.1l0,0l0,0c0,0,0,0.1,0.1,0.1
			c0.1-4.3-1.1-8.5-1.7-12.7c-0.1-0.7-0.6-1.8,0.5-2c1-0.1,1.1,1,1.3,1.8c0.9,5.4,1.8,10.7,2.7,16.1c0.1,0.8,0.9,2.1-0.5,2.3
			c-0.9,0.1-1-1.1-1.2-1.9c-0.3-1.2,0-2.6-1-3.6l0,0l0,0l0,0l0,0l0,0c0,0,0-0.1-0.1-0.1c-0.3,1.2,0.7,3.3-0.5,3.5
			c-1.4,0.2-1.3-1.9-1.6-3.2c-0.7-3.6-1.5-7.1-1.9-10.7c-0.4-3.5-1.2-6.3-5.7-4.9c-0.8,0.2-2,0.3-2.2-0.5c-0.4-1.5,1.1-1.4,1.9-1.5
			c10.3-1.4,20.1-4.2,28.7-10.3C556.2,673.7,557.2,673.1,557.8,674z"/>
		<path fill="#E5B0BD" d="M329.9,624.8c-6.8,2.2-13.5,4.7-20.4,6.5c-4.2,1.1-3.9,2.8-1.8,5.6c5.5,7.4,12.3,13.5,19.4,19.2l0,0
			l0.1,0.1l-0.1-0.1c0,0,0,0,0.1,0c-0.4-1.6,0.5-2.3,1.8-2.9c4-2,8.2-3.6,12.5-4.8c0.9-0.2,2.3-0.9,2.5,0.2c0.2,0.9-1.3,1.3-2.2,1.5
			c-5.1,1.4-10,3.4-14.6,6v0.1c0,0,0,0-0.1-0.1c1.5,2.2,3.6,3.8,6.1,3.7c6.6-0.1,12.5-2.8,18.6-5.2c0.8-0.3,1.4-0.9,0.1-1.7
			c-0.9-0.5-2.9-0.7-2.1-2.2c0.9-1.7,2.4,0,3.5,0.3c2.1,0.6,4.1,1.3,6.1,2.1c13.2,5,25.9,5,38-3.5c5.9-4.2,12.9-6.2,19.9-7.8
			c10-2.4,20.1-4.5,29.9-8c2.4-0.9,3.9-1.7,3.8-4.8c-0.4-10,0.3-20,0.9-30c1.1-19.4,6.3-37.3,17.5-53.3c0.6-0.8,1.6-2,1.4-2.5
			c-0.7-1.4-2.1-0.3-3-0.1c-12.6,2.6-25,5.7-37,10.4c-13.3,5.3-27.5,8.2-41.8,8.5c-3,0-6,0.3-8.9,1.1c-16.8,5.2-35.7,7.6-41.1,29
			c-0.2,0.9-0.7,2.8-2.2,1.9c-1.4-0.7-0.1-2.2,0.3-3.1c1.6-3.8,3.3-7.6,5.2-11.3c0.9-1.8,1.1-2.8-1.4-2.3
			c-7.7,1.3-15.4,2.6-23.1,3.9c-2.3,0.4-4.4,1.7-5.8,3.7c-8.3,11.7-12.1,24.7-10.5,39.1c0.7,6,3.2,7.2,9,5.3
			c6.3-2.1,12.6-4.1,19-6.2c0.8-0.3,2-0.6,2.2,0.2C331.8,624.2,330.6,624.6,329.9,624.8z M311.9,634.4c-0.6-0.2-1.3-0.2-1.4-0.5
			c-0.2-0.8,0.5-1,1.1-1.3c5.6-2.5,11.5-4.4,17.5-5.8c0.6,0,1.3,0.1,1.9,0.3c-0.2,0.3-0.4,0.9-0.7,1
			C324,629.9,317.7,631.7,311.9,634.4z M313.7,587.6c7.1-2.3,14.4-3.5,22.1-4.7c0.3,0.1,1.5,0.2,1.5,0.4c0.1,1-0.9,1.2-1.7,1.3
			c-7.3,1.1-14.6,2.6-21.8,4.5c-0.6,0.2-1.4,0.2-1.6-0.6C312.3,588.3,313.2,587.8,313.7,587.6z M328.2,611.6
			c-7.3,3.3-15.1,4.9-22.8,6.9c-0.6,0.1-1.6,0.3-1.7-0.4c-0.2-1.1,1-1,1.7-1.2c6.1-1.7,12.1-3.4,18.2-5.1c0.6-0.3,1.2-0.6,1.7-1
			c-0.7-0.7-1.5-0.3-2.1-0.1c-5.6,1.6-11.1,3.3-16.7,4.9c-1.1,0.3-2.4,1.3-3,0c-0.3-0.7,1.3-1.2,2.2-1.6c7-2.6,14.2-4.6,21.5-5.9
			c1-0.2,2.6-0.8,3,0.6C330.8,610.1,329.6,611,328.2,611.6z M331.4,597.4c-0.7,0.9-1.7,1.6-2.8,1.9c-6.4,1.6-12.9,3.3-19.3,4.8
			c-0.9,0.2-2.5,0.7-2.7-0.2c-0.3-1.3,1.3-1.1,2.2-1.3c4.3-1.2,8.7-2.3,13-3.4c0.5-0.2,1-0.5,1.4-0.8c-0.5-0.1-1-0.1-1.5-0.1
			c-4.1,0.7-8.2,1.4-12.2,2.1c-0.9-0.2-2.3,0.9-2.5-0.6c-0.2-1,1.2-0.8,1.9-0.9c7.2-1.2,14.4-2.3,21.6-3.5c0.6-0.1,1.7-0.2,1.9,0.2
			C332.9,596.4,331.9,596.8,331.4,597.4z M333.1,634.6c2.6-0.9,3.3-2.3,2.5-4.9c-2.8-8.8-1.6-17.8-1.8-26.8c0-0.9-0.3-2.4,0.8-2.5
			c1.7-0.1,1.3,1.6,1.3,2.7c0.1,3.7,0.2,7.3,0.1,11c-0.3,11.2,2.2,21.5,9.8,30.1c0.6,0.7,1.8,1.7,1,2.5c-1.2,1.2-2.1-0.3-2.7-1.1
			c-2-2.7-3.8-5.4-5.7-8.2c-0.8-1.2-1.1-3.1-3.2-1.5l0,0c1.3,1.8,0.1,2.6-1.3,3.4c-4,2-8,4-12,6c-0.7,0.4-1.9,1.4-2.5,0.1
			c-0.3-0.7,1-1.1,1.7-1.5c4.8-2.5,10.1-4,14.1-7.9l0,0l0,0l0,0l0,0c0,0,0,0,0.1,0l0,0c-6,1.5-11.4,4.6-16.8,7.4
			c-0.7,0.3-1.7,1.2-2.2,0.2c-0.4-0.7,0.7-1.3,1.4-1.7C322.6,638.9,327.7,636.4,333.1,634.6z"/>
		<path fill="#FFF6E8" d="M297.2,611.2c-2.3,0-2.7,2-2.9,3.8c-0.2,1.6,0,2.9,2.2,2.9c2.6,0,2.2-1.8,2.3-3.5
			C298.5,613.2,299.6,611.1,297.2,611.2z"/>
		<path fill="#DC91A7" d="M473.5,751.1c-13.2-0.6-26-3-38.1-8.9c-1.1-0.5-2.4-1.9-3.6-0.9s0,2.5,0.1,3.8c0,0.7,0.1,1.3,0.2,2
			c3.1,14.4,8.1,27.8,20.2,37.3c7.9,6.2,17.6,4.3,22.5-4.3c3.7-6.6,5.8-13.7,5.9-18.6l0,0C480.9,751.4,480.8,751.4,473.5,751.1z"/>
		<path fill="#E5B0BD" d="M383.3,686.3c1.1,0.4,2.7,1.1,3.2,0.7c1.1-0.9-0.2-2.1-0.6-3.1c-2.2-5.6-4.6-11.1-4.1-17.8
			c0-0.6,0.1-1.8,0-3c0-0.7,0.5-1.6-0.4-2.2c-0.5,0.6-0.9,1.3-1.3,1.9c-1.2,2.7-2.3,5.5-3.5,8.3C372,682.2,372,682.2,383.3,686.3z"
			/>
		<path fill="#FFF6E8" d="M300.8,603.1c0-1.4,0.9-2.9-1.1-2.9c-2.7,0-4.3,1.7-4.6,4.2c-0.2,1.8,0,4.2,2.2,4.3
			C301.5,608.8,299,604.4,300.8,603.1z"/>
		<path fill="#FFF6E8" d="M292.3,623.2c-0.3,1.3-0.3,2.6-0.6,4.5c-0.7,3.3,2.3,4.7,4.5,6.7c0.9,0.9,2.1,2.6,3.2,1.8s0.6-2.8-0.1-4.2
			c-0.7-1.3-1.5-2.6-2.2-3.9c-0.5-1-1.2-2.4,0.2-3.1c2.1-1,1.9-2.7,1.3-4.2c-0.4-1.3-2-1-3.1-0.9C293.4,620,292.6,621.5,292.3,623.2
			z"/>
		<path fill="#F7C8B7" d="M484.6,931.6c-0.2-3.1-1.4-4.4-4.7-3.2c-3.9,1.4-7.9,2.5-11.9,3.8c-14.5,4.6-29.1,7.3-44.1,2.9
			c-9.8-2.9-20.5-3.8-27.3-13.1c-0.6-0.6-1.4-0.9-2.2-1c-14.3-2.3-27.4-8.1-40.9-12.7c-5.2-1.8-5.5-1.6-4.7,3.7
			c1.4,9.4,2.9,18.7,4.4,28.1c4.7,28.2,10.9,56.1,17.6,83.9H473c-0.1-23.5,7.6-45.9,9.3-69.1C482.9,947.1,485.1,939.5,484.6,931.6z"
			/>
		<path fill="#E5B0BD" d="M540.4,734.4c5,17.2,13.1,32,31.4,38.6c12.9,4.7,25.6-1.3,29.9-14.4c2-6.2,2.3-12.7,3-19.8
			c-0.2-2.4-0.5-4.9-0.9-7.3c-3.7-15.8-9.3-30.1-27-35.2c-4.8-1.4-13.2,3.6-14.7,8.5c-1.1,3.7,0.8,10-6.6,9.5
			c-3.3,5.4-4.8,0.9-6.7-1.2c-0.7-0.8-1.3-3.2-2.5-0.5c-1.7,4-6.9,0.9-8.7,4.5c0,0-1.4-0.3-1.7-0.8c-1.9-3.5-5.1-2.5-8-2.3
			c-6.4,0.5-12.7-0.3-18.9-1c-9.5-1.2-16.2-6.2-20.3-15c-2.5-5.2-4.6-10.7-6-16.4c-1-4.1-2.3-7.4-6.9-8.8c-2.4-0.7-4.2-2.7-5.6-4.9
			c-2.7-4.2-5.4-8.3-10.4-10.2c-1.7-0.8-3-2.3-3.4-4.1c-1.1-3.9-3.8-5.9-7.4-7.3c-3.2-1.3-6.4-2.9-9.5-4.5c-2.8-1.4-5.5-1.4-8.6-0.9
			c-16.1,2.4-30.4,9.2-44.6,16.6c-1.4,0.5-2.4,1.9-2.4,3.4c-0.2,5.5-0.5,11,1.6,16.3c9.5,23.8,21.3,45.9,44.2,60
			c15.6,9.6,32.9,13.1,50.7,12.1c14.8-0.9,28.8-6.4,42.4-12.5c6.8-3.1,12.7-8.1,17-14.3c0.5-0.7,0.9-1.4,1.4-2.1
			c0.5-0.6,1-1.7,1.9-1c0.8,0.7-0.2,1.5-0.6,2.1C539.9,725.2,539.1,730,540.4,734.4z"/>
		<path fill="#FFF6E8" d="M305.2,591.7c-0.1-2-1.4-1.6-2.4-1.5c-2.7,0.1-5.5,0.2-5.5,4c0,1.9,0.2,3.8,2.8,3.8
			C304.2,597.9,303.2,593.6,305.2,591.7z"/>
		<path fill="#F5EAF7" d="M530.8,939.9c-0.9-2.2-2.5-2-4.1-1.7c-11.7,2.5-23.2,0.6-34.6-1.7c-3.1-0.6-4.7-0.4-5.1,3.5
			c-1.6,13.9-3.4,27.8-5.7,41.5c-2.4,14.1-6,28-5.3,42.5h93.7c-5.2-15.3-12.1-29.9-19.2-44.3C543.9,966.4,536.5,953.5,530.8,939.9z"
			/>
		<path fill="#DC91A7" d="M625.8,525c-0.6,0.6-1.1,1.3-1.5,2c-6.5,12.9-14.1,25.3-19,39c-1.8,4.7-4.1,9.1-6.9,13.2
			c-4.8,7.2-10.5,13.8-14.8,21.3c-0.9,1.4-2.1,2.5-3.5,3.5c-2.9,2.2-8.9,1.8-9.1,4.6c-0.3,3,4,6.2,5.5,9.7c1.9,4.5,4.1,7.6,8.2,5.8
			l0,0c6.7-0.8,11.6,0.3,16,3.4c8.7,6,11.9,14.4,11.4,24.6c-0.6,11-6.4,18.2-16.1,22.7c-5.2,2.4-11.9,8.1-14.8,13
			c-3.7,6.1-3.8,6.6,2.7,8.7c2.9,0.9,4.8,6.3,8.9,2.5c0.3,0.4,0.8,0.8,0.7,1.1c-0.8,3.5,1.5,5.6,3.4,7.9c1.3,1.6,2.2,5.1,4,4.5
			c2.5-0.8,0.6-4.1,1-6.3c0.3-2.1-0.7-4.2,0.5-6.2c2,1.8,0.9,4.3,1.4,6.5c0.4,2.1-0.7,4.6,1.1,6.2c2.6,2.2,13.4-2.2,13.8-5.6
			c0.7-4.8,0.6-9.7-0.3-14.4c-0.5-2.5-1.2-3.5-3.7-1.6c-2.9,2-5.9,3.8-8.9,5.4c-0.9,0.5-2.4,1.7-3,0.6c-0.7-1.3,1.3-1.6,2.2-2
			c11.3-5.6,19.7-14.6,27.6-24.1c4.5-5.4,5.5-11.4,3.5-18.2c-4.7-16.3-11.2-32-17.5-47.8c-0.8-1.9-1-4.2-2.9-5.6c-1.1,1.8-1,4-1.5,6
			c-0.2,1,0.3,3.1-1,2.9c-1.7-0.3-0.6-2.2-0.5-3.3c1.1-16.7,5.4-32.8,8.6-49.1c2-9.9,4.2-19.9,6.2-29.8c0.1-0.8,0.1-1.6,0-2.5
			C627,524,626.4,524.5,625.8,525z M595.9,697.4c-3.1,0.1-6.2-0.9-8.7-2.8c-0.4-0.3-1-1.2-0.9-1.5c0.4-0.8,1.2-0.2,1.7,0.1
			c2.4,1.4,4.8,2.8,7.8,2.7c0.8,0,2.5-0.4,2.4,0.7C598.2,698.1,596.5,697.3,595.9,697.4z M612.2,696.1c1.7,2.4,0.5,5.1,1,7.6
			c-0.5,2.1,0.8,4.4-0.8,6.5c-2-1.8-1.2-4.3-1.1-6.4C611.4,701.2,609.7,698.4,612.2,696.1z"/>
		<path fill="#F7C8B7" d="M657.3,901.8c-0.5-2.5-1.1-3.7-4.1-2.7c-13.7,4.8-27.7,8.5-42.4,8.3c-1.6,0-3.7,0.1-3.5,2.5
			c0.3,3.2-1.8,4.3-4.2,5.3c-21.5,9-42.7,18.8-66.3,21c-3.4,0.3-4.4,1.8-2.8,4.9c0.8,1.5,1.4,3,2.2,4.5
			c10.7,21.4,22.2,42.4,31.2,64.7c1.8,4.4,3.9,8.8,4.5,13.6h111.7c-11.6-29.8-19.7-60.6-22.8-92.5
			C659.8,921.6,659.3,911.6,657.3,901.8z"/>
		<path fill="#E5B0BD" d="M372.8,683.5c-1.7-0.6-1.9,0.9-2.4,1.8c-1.1,2-2.1,4.1-2.9,6.3c-0.6,1.5-2.6,3.3-0.2,4.8
			c1.9,1.2,4,3.4,6.2,2.5c1.6-0.6,0.3-3.3,0.5-5.1c0.1-0.9,0.1-1.9,0-2.8c0.1-1,0.2-2.9,0.3-4.7C374.3,685.1,374.1,684,372.8,683.5z
			"/>
		<path fill="#FFF6E8" d="M552.8,707.5c-1.1,0.2-3,0.5-3,2.1c0.2,1.7,1.2,3.2,2.7,4c1.8-0.6,1.6-2.4,1.9-3.6
			C554.6,708.9,554.3,707.3,552.8,707.5z"/>
		<path fill="#F9D0D5" d="M509,533.9c0.5-2.6-1.4-2.3-2.6-2.4c-10.9-0.7-20.9,1.4-29.2,9c-8.2,7.5-12.9,17.3-16.9,27.4
			c-6.6,16.8-6.3,34.6-7.1,52.2c0,3.7-0.1,7.3,0,11c0.4,7.3,2.1,14.5,5.2,21.2c2.7,5.9,6.4,6.4,10.7,1.7c4.2-4.7,7.9-9.9,11-15.5
			c9.9-17.4,15-36.6,20.7-55.5C505.6,567,505.8,550.2,509,533.9z"/>
		<path fill="#FFF6E8" d="M558.9,704.6c-1.2-0.1-2.3,0.7-2.5,1.9c-0.1,1.4,0.3,3.4,1.7,3.6c1.2,0.1,0.8-2.1,1.5-3.1l0,0
			C559.6,706,560.3,704.6,558.9,704.6z"/>
		<path fill="#FBBCB3" d="M556.3,261.9c-1,0.2-2.3,0.6-2.8-0.2c-3.2-5.6-9.1-3.6-13.8-5c-6.7-2-11.5,3.1-17.2,5
			c-1.3,0.4-1.3,2.2-1.5,3.5c-1.6,8.7,0.1,16.4,7.4,21.9c6.5,4.9,13.8,8.3,21.8,4c8.5-4.5,13.3-11.9,13.6-21.7c0-0.7,0-1.3,0-2
			C563.4,261.1,562.5,260.4,556.3,261.9z"/>
		<path fill="#DD91A8" d="M453,643.8c-0.4-2.1-0.9-4.6-1.5-7c-0.3-1.1-1-1.8-2.2-1.4c-3.3,1.1-6.5,2.3-9.8,3.5
			c1.7,2.7,5,2.7,7.4,4.3c1.4,0.8,2.9,1.6,4.5,2.2C452.7,646.1,453.7,646.2,453,643.8L453,643.8z"/>
		<path fill="#E5B0BD" d="M336.7,684.3c6.8,5.4,13.7,10.6,19.5,17c2.7,3,3.4,1.6,4.5-1c4.7-10.4,9.5-20.8,14.2-31.3
			c1.3-3,2.3-6.2,3.5-9.2c-3.2-0.6-6.6-0.6-9.5-1.8c-8.2-3.4-15.7-1.8-23.7,1.3c-11.3,4.3-11.5,3.8-12.2,16.2c0,0.3,0,0.7,0,1.3
			C332,680.1,334,682.2,336.7,684.3z"/>
		<path fill="#E5B0BD" d="M331,576.7c3.9-0.6,8.8-1.3,13.7-2.1c1.5-0.2,2.9-1.1,0.8-2.4c-5.2-3.6-9.7-8.1-13.3-13.2
			c-0.8-1.1-1.6-1.8-2.2,0.3c-1.2,4.3-2.7,8.5-3.7,12.9C325.7,574.6,326,577.4,331,576.7z"/>
		<path fill="#D1B0AB" d="M316.1,485.5c-0.6,0.2-1.2,0.4-1.8,0.6c-1.7,0.8-1.3,2.6-1.4,4c-1,12.7-2,25.5-2.9,37.6
			c0.4,5.8,0.8,10.9,1.2,16.1c0.1,0.5,0.2,0.9,0.3,1.4c0.2-0.4,0.4-0.9,0.5-1.3c1.5-7.3,4.4-14.7,4.2-21.9
			c-0.4-11.6-2.4-23.1,0.5-34.7C316.7,486.7,316.3,486.1,316.1,485.5z"/>
		<path fill="#DD91A8" d="M554.5,691.9c0.2-0.7,0.3-1.4,0.3-2.2c-0.3-3.9-0.6-7.8-1-11.7c-2,4,0.4,8,0.3,12
			C554.2,690.7,554.3,691.3,554.5,691.9z"/>
		<path fill="#F5EAF7" d="M320.6,578.1c1.3-0.4,3.6,0.4,3.2-2c-1.1-6.3,2.8-11.5,3.6-17.4c0.3-2.3,1-4.6-0.3-6.8
			c-3.7-5.8-6.1-12.1-8.4-18.6c-0.3-0.7-0.8-1.3-1.3-1.9c-0.2,0.6-0.5,1.2-0.6,1.9c-1.7,7.3-2.8,14.8-3.5,22.2l0,0
			c0.6,6.9,1.8,13.8,3.7,20.5C317.5,578.3,318.7,578.6,320.6,578.1z"/>
		<path fill="#DC91A7" d="M588.2,674.5c11.3-1.9,22.9-9.9,21.6-27.6c-0.8-10.4-9.7-22.6-24.9-20.9c-3.7,0.4-4.5,1.3-3.4,4.8
			c3.5,10.7,4.4,21.8,4.6,33.8c-0.1,1.9-0.2,4.6-0.5,7.2C585.2,674.1,585.9,674.9,588.2,674.5z"/>
		<path fill="#DD91A8" d="M560.2,610.8c-2.8,0.9-3.5,1.6-0.8,3.6c4.6,3.4,8.1,7.9,11.9,12.1c7.1,7.7,8.7,16.2,4.2,25.7
			c-1.1,2.3-1.3,4.8-0.6,7.2c2.1,9.8,3.4,19.7,1.3,29.7c-0.1,0.5-0.8,1.2,0.1,1.5c0.3,0.1,0.9-0.8,1.3-1.3
			c6.3-7.9,5.9-17.4,6.3-27.7c-0.8-15.9-2.5-32.6-12.3-47.2C567.4,608.3,567.3,608.5,560.2,610.8z"/>
		<path fill="#994264" d="M604.9,213.2c0.3-6.5-2.6-11.5-6.6-16.2c-3.2-3.8-6.9-4.6-11.6-3c-2.4,0.8-3,1.4-2.1,4.1
			c1.8,5-1.8,9.8-5.8,7.9c-4.6-2.1-4.2,1.1-4.7,3.4c-1.8,8.9,1.2,16.4,7.5,22.7c4.4,4.4,8.1,4.8,13.4,1.4
			C602.4,228.7,604.6,221.4,604.9,213.2z M590.2,221c-2.7,0.1-6.4-4.5-6.3-7.9c0.1-3.7,4.2-8.6,7.3-8.2c4.1,0.6,4.9,3.9,4.9,7.4
			C596.1,216.6,593.1,220.9,590.2,221z"/>
		<path fill="#D1B0AB" d="M424.8,223.6c1,1.5,2,2.9,3,4.4c1,1.3,2,2.6,3.3,3.6c0.1-1.3-0.1-2.6-0.7-3.7c-4.1-10.8-7.6-21.7-6.7-34.6
			v-7.9c0-0.5-0.1-1-0.2-1.5c-0.2,0.5-0.4,1-0.5,1.5c-1,6.4-1.1,12.9-0.4,19.4C423.5,211.1,424.2,217.3,424.8,223.6z"/>
		<path fill="#EEC3CA" d="M425.3,226.9c0,0.5-0.3,0.9-1.1,1.1c-1.2,0.3-1.4-1.1-1.9-1.9c-1-1.5-1.9-3.1-2.7-4.8
			c-1.4-3.1-2.7-3.8-4.9-0.6c-2.5,3.7-5.3,7.3-8.1,10.8c-2.2,2.5-3.2,5.9-2.7,9.2c0.6,4.6,0.8,9.3,1.1,13.9c0.1,1.6,0.6,3.8-1.7,4
			c-2.6,0.2-2.4-2.2-2.5-4c-0.3-3-0.5-6-0.9-8.9c-0.1-0.6,0.3-1.9-1.1-1.5c-1.5,0.4-4.4,7.4-3.4,8.7c4.7,6.2,10.2,11.5,17.9,13.6
			c3,1,5.1,0.7,6-3.4c2.1-9.8,5.1-19.3,10.6-27.8c0.4-0.6,0.8-1.3,1-2.1C428.6,231.7,426.9,229.3,425.3,226.9z"/>
		<path fill="#9A2950" d="M402.5,244h-0.6c0.2,3.4,0.3,6.8,0.5,10.2c0,0.4,0.5,0.8,0.7,1.2c0.2-0.4,0.3-0.8,0.3-1.3
			C403.2,250.7,402.9,247.4,402.5,244L402.5,244z"/>
		<path fill="#E3CCC7" d="M396.9,178.9c1.7-11.7,5.4-23,10.8-33.6c7.7-14.8,17.6-28.3,27.6-41.5c7.8-10.2,16.7-19.5,25.6-28.8
			c0.6-0.6,1.2-2.1,2.3-1c0.6,0.6-0.4,1.4-0.9,2c-0.7,0.8-1.4,1.5-2.1,2.2c-13.5,14.1-25.9,29.2-37.1,45.1
			c-6.5,9.3-11,18.8-11.6,30.2c-0.2,4.5-0.7,9-1,13.5c-1.1,16.5,1.7,33,8.4,48.2c0.6,1.5,1,3.2,2.5,4.1c0.8-1.6,0-3.1-0.1-4.7
			c-0.6-7.3-1.7-14.6-1.1-21.9c1.9-24.9,9.9-48.1,19.3-70.9c0.4-1.1,0.9-3.2,2.2-2.6c1.3,0.7-0.3,2.4-0.8,3.5
			c-6.5,14.8-11.7,30-13.3,46.3c-2,19.8-3.1,39.4,5,58.5c7.5,17.6,19.6,29,38.7,32.5c0.8,0.1,1.6,0.2,2.4,0.2
			c-0.3-0.7-0.7-1.4-1.2-2c-7.5-7.5-11.2-17.1-14.6-26.9c-3-8.8-1.5-17.8-2.2-25.5c0-10.9-0.2-20.6,1.7-30.1
			c5.8-28.5,17.5-55.1,26.3-82.6c0.3-0.9,0.7-2.5,1.6-2.1c1.4,0.7,0.1,2.1-0.2,3c-3.9,11.5-8.5,22.7-10.6,34.8
			c-1.6,9.7-4.2,19.2-4.1,29.1c0,0.7,0.1,1.3,0.1,2c0.4-0.6,0.7-1.3,0.9-2.1c1.3-12.3,5.9-23.5,11.7-34.2
			c7.5-13.9,15.3-27.7,22.9-41.5c0.3-0.6,0.6-1.2,1.1-1.7c0.9-1,1.3-3.5,2.8-2.6c1.1,0.6-0.8,2.1-1.2,3.3c-0.1,0.3-0.3,0.6-0.5,0.9
			c-17.6,27.7-17,57.3-9.4,87.6c0.2,0.6,0.5,1.1,0.9,1.7c0.2-0.6,0.2-1.2,0.3-1.8c-0.6-15.3,2.1-30.2,5-45.1c1.8-8.8,4-17.5,6.8-26
			c0.3-1,0.3-2.8,1.8-2.4c1.5,0.3,0.7,1.9,0.8,3c0.1,0.8,0,1.7-0.1,2.5c-0.6,21.2-0.1,42.3,5,63.1c2.7,11.3,6.4,22.4,12.3,32.6
			c0.6,1.1,1.8,3,2.4,2.9c1.7-0.3,0.7-2.2,1-3.4c0.7-2.9,1.3-5.8,2-8.7c0.2-1,0.3-2.3,1.5-2.3c1.1-0.1,1.3,1.2,1.8,2.1
			c1.1,2.1,1.3,7.3,4.9,1.5c0.4-0.5,1-0.8,1.6-0.9c2.8,3.2,6.6-0.5,9.7,1.7c2.8,2,5,0.7,6.4-2.2c0.8-1.6,1.6-3.3,2.5-4.9
			c0.6-1,1.3-1.4,2.2-0.2c1.6,1.9,1.7,1.8,2.4-0.6c2.7-8.8,4.5-17.7,4.1-27c-0.1-1.6-0.9-4.4,0.8-4.5c1.3-0.1,1,3.1,0.9,4.9
			c-0.4,7.8-1,15.6-1.5,23.4c0,0.8,0.1,1.6,0.2,2.4c0.5-0.6,0.8-1.3,1.1-2.1c3.3-10.9,5-22.1,5.3-33.4c0.2-18.6,0.3-37.3-4.5-55.6
			c-0.3-1.1-0.9-2.9,0.1-3.2c1.2-0.3,1.4,1.5,1.6,2.6c3.3,19.2,9,37.8,13.2,56.8c2,9.2,2.1,18.5,2.7,27.8c0.1,1.2-0.6,3.2,1.1,3.3
			c1.4,0.1,1.3-2,1.8-3.1c0.1-0.3,0.2-0.6,0.2-1c7.9-26.1,6.4-51.9-2.6-77.4c-0.6-1.6-2.3-4.6-1-4.8c2-0.4,2.2,2.9,2.6,4.5
			c3.7,16.4,11.4,31.2,18.1,46.4c3.2,7.1,6.4,14.3,8.9,21.7c6.2,18.3,9.8,36.7-0.9,54.9c-0.5,0.9-0.7,1.8-0.8,2.8
			c-0.1,0.8-0.1,1.6,0.2,2.3c1.3,0.2,1.5-1,1.7-1.9c3.5-10.9,10.3-20.5,12.7-31.8c0.2-0.8,0.2-2.1,1.2-1.9c1.6,0.3,0.6,1.6,0.3,2.4
			c-2.5,7.1-3.3,14.6-4,22c-0.1,0.7,0.1,2.1,0.3,2.1c1,0.2,1.2-0.9,1.6-1.6c4.3-7.5,8.1-15.3,10.2-23.8c0.2-0.8,0.1-2.5,1.3-2.2
			c1.1,0.3,0.6,1.9,0.2,2.6c-4.4,9.3-3.5,19.1-3.2,28.9c-0.1,1.8-0.2,3.7-0.5,5.5c-0.3,3.2-0.5,6.4-0.7,9.6c2.3-2.5,3.4-5.7,4.7-8.7
			c4.9-11.3,9.9-22.8,10.1-35.3c0.5-17.7-1.6-35.3-6.2-52.4c-0.5-1.8-1.5-3.7-0.8-5.8c2.6,1,1.9,3.6,2.4,5.5c7,27.2,7.2,55,7.2,82.8
			c0,1.1-0.9,2.7,0.5,3.1c1.5,0.4,1.6-1.5,1.9-2.5c4.4-13.1,8-26.4,8.4-40.4c0.8-24-3.8-47-12.1-69.4c-0.4-1-1.5-2.6-0.3-3.1
			c1.1-0.4,1.4,1.4,1.8,2.5c0.1,0.3,0.3,0.6,0.4,0.9c8.5,23.1,13.2,46.7,11.7,71.4c-0.2,2.9,0.6,3.9,3.5,3.6c4-0.4,8-0.7,11.9,0.4
			c2.6,0.8,2.7-1,3-2.7c2.1-11.7,2.7-23.6,0.8-35.3c-7.5-47.1-34.2-96.9-96.5-110.8c-22.7-5-45.3-9.7-68.6-4.4
			c-22.4,5-44.2,11.4-62.9,25.4c-15.8,11.8-30.4,25-42.8,40.4c-18.7,23.2-27.7,49.8-24.7,79.9c0.1,0.7,0.3,1.4,0.5,2
			C396.7,180.2,396.8,179.5,396.9,178.9z M638.3,71.3c5.6,4.9,10.8,10.2,15.6,15.9c0.1,0.1,0.1,0.3,0.2,0.4
			c-0.1,0.3-0.2,0.6-0.3,0.9c-0.4-0.1-0.9-0.3-1.3-0.5c-5-5.1-9.9-10.2-14.8-15.3c-0.3-0.4-0.5-0.8-0.6-1.3
			C637.5,71.4,638.1,71.2,638.3,71.3z M557.9,37.9c5.7,0.7,11.4,2,16.2,5.6C589,54.8,598,70.4,605,87.3c0.3,0.7,0.8,1.8-0.1,2.2
			c-1,0.3-1.1-1-1.5-1.6c-2.4-4.9-4.7-9.9-7.1-14.8c-3.9-8.2-9.5-15.1-15.8-21.6s-13.4-11.4-22.9-11.7c-1,0-2.9,0.2-2.8-1.2
			C554.9,37.4,556.7,38.1,557.9,37.9z M490.7,71.6c10-10.6,19-22.3,33-28.4c4.4-1.9,8.8-3.8,13.4-4.3c0.8,0,1.5,0.1,2.3,0.3
			c1.8,0.9,5-0.2,5.3,2.4c0.1,0.8-3.2-0.5-4.9-0.5c-10.8-0.2-19.5,5-27.5,11.3c-7.6,5.9-13.9,13.4-20.4,20.4
			c-0.7,0.8-1.8,2.6-2.5,1.9C488,73.3,489.9,72.4,490.7,71.6z"/>
		<path fill="#D1B0AB" d="M372.5,324.5c5.9,4,11.6,8.3,17.4,12.5c11.2-20.2,19.6-41.8,24.7-64.3c1.2-5.6-3.3-4.2-5.4-5.6
			c-2.1-1.5-3.8-1.4-5.1,1.4c-8.3,18.3-20.3,34.3-32.3,50.2C369.8,321.3,369.6,322.6,372.5,324.5z"/>
		<path fill="#E3CCC7" d="M280.9,452.6c1.1-0.3,1.8-0.5,2.4-0.6c10.4-2,20.8-5,31.3-5.7c8.6-0.6,13.8-3.5,18.9-10.5
			c11.6-15.8,27.9-26.4,44.4-36.6c2.3-1.4,3.7-2.2,0.3-4c-10.2-5.5-20.4-11.2-30.5-16.9c-1.5-1-3.5-1.1-5.1-0.2
			c-28.2,14.2-32.2,17.9-47.9,45.4c-4.9,8.7-9.6,17.5-14.2,26.3C280,450.6,278.2,452.5,280.9,452.6z"/>
		<path fill="#9A2950" d="M400.8,229.7h1.1c0-7,0-14,0-21c-0.1-0.6-0.2-1.3-0.4-1.9c-0.9,0.4-0.7,1.3-0.7,2
			C400.7,215.8,400.8,222.7,400.8,229.7z"/>
		<path fill="#DA587B" d="M336.6,527c16.9-2.6,33.8-5.6,50.6-9.1c1.4-0.3,3.3-1.4,4.2-0.2c1.2,1.7-0.9,2.9-1.8,4.1
			c-8.5,11.6-16.5,23.4-24.2,35.5c-1.2,1.8-2.6,3.7,1.8,3.4c2.4,0.8,3.5-1.2,4.8-3c8.4-11.8,16.8-23.6,25.2-35.4
			c2.9-4.5,7.5-7.6,12.7-8.8c22.5-5.1,45.1-10,67.1-17.4c1.5-0.5,4.3-0.1,3.7-2.9c-0.7-3-3.1-1.6-4.9-1.2
			c-22.1,4.9-43.8,11-65.7,16.6c-1.1,0.3-2.6,1.1-3.2,0.1c-0.7-1.1,0.8-2,1.5-2.9c13-16.9,26-33.8,39-50.7c1.9-2.5,3.8-5.1,5.6-7.7
			c0.6-0.8,1.2-1.7,0.2-2.7c-0.7-0.9-2-1-2.9-0.3c-0.1,0.1-0.2,0.1-0.2,0.2c-1,0.9-1.9,1.9-2.8,2.9c-16.3,18.3-31.7,37.3-46.1,57.1
			c-3.4,4.7-7.3,6.8-13,7.6c-17.5,2.4-34.8,5.4-52.3,8.1c-3.3,0.5-3.9,2.3-3.5,5.2C332.6,529.3,335,527.2,336.6,527z"/>
		<path fill="#D1B0AB" d="M408.4,150.7c-0.5,0.8-1,1.6-1.5,2.5c-2.1,4.8-3.5,10-5.1,15c-0.8,2.6,0.3,3.7,2.1,4.8
			c1.1,0.7,2.1,2.5,3.2,1.7c1.4-1,0.6-3,0.7-4.6c0-5.4,0.3-10.8,1.1-16.2C408.5,152.7,409.7,151.5,408.4,150.7z"/>
		<path fill="#9A2950" d="M407,227.9c0.3-0.1,0.6-0.3,0.8-0.5c2.6-3.4,5.3-6.9,7.9-10.3c0.2-0.3,0.1-0.9,0.2-1.4
			c-0.4,0.2-0.9,0.2-1.2,0.5c-3,3.2-5.2,6.9-7.6,10.5C406.8,227,406.2,227.5,407,227.9z"/>
		<path fill="#FCE0E4" d="M387.9,234.3c-0.1-3.2-1.3-3.6-4-2.5c-17.6,7-35.4,13.6-52.5,22c-10,5-19.3,11.3-26.7,19.9
			c-6.4,7.3-3.9,15.1,5.4,18.1c3.8,1.2,7.8,1.4,11.7,1.8c4.2-0.4,8.4-0.8,12.3-2.4c19.4-8.1,37.2-18.6,50.9-35
			c3.6-4.3,6.5-8.1,3.9-14.1C388,239.8,387.9,237,387.9,234.3z"/>
		<path fill="#D1B0AB" d="M398.5,196.1c2.3,1.2,3.3-2.2,5.1-3.1c1.2-0.6,2.3-1.4,3.4-2s2-1.3,1.8-2.6c-0.4-4.6-0.3-9.2-5-12.3
			c-3-2-4.2-2-4.6,1.7c-0.4,4.1-0.9,8.3-1.4,12.8C399.3,192.2,396.1,194.9,398.5,196.1z"/>
		<path fill="#9A2950" d="M403.2,233.8l-0.4-0.6c-0.4,0.3-0.7,0.7-1,1c-2.9,4.3-5.7,8.5-8.5,12.8c-0.3,0.5-0.5,1.6-0.3,1.7
			c1.1,0.8,1.3-0.4,1.7-1c2.7-4.4,5.4-8.7,8.1-13.1C402.9,234.4,403,234.1,403.2,233.8z"/>
		<path fill="#634D5A" d="M347.8,719.1c2.9,1.6,5.1,0.7,6.6-2.1c1.6-3,2.8-6.2,3.5-9.6c0.3-1.5-1.7-3.2-3.3-4.7
			c-10-9.5-20.7-18.3-32-26.3c-2.7-1.9-4.8-1.4-7.1,0.8c-3,2.9-4.2,6.7-6.3,10.1c-1.6,2.6-0.9,4.1,1.3,5.9
			c10.3,7.9,20.5,15.9,31.5,22.9C343.9,717.2,345.8,718.1,347.8,719.1z"/>
		<path fill="#412F42" d="M343.1,720.9c0.2,1,1.1,1.7,2.1,1.7c0.4,0,0.8-0.3,1.6-0.7c-0.8-0.6-1.7-1.1-2.6-1.6
			C343.8,720.2,342.7,719.6,343.1,720.9z"/>
		<path fill="#6C5F5E" d="M312.1,677.9c1.6-2.2,1.2-3.3-0.6-4.9c-3-2.7-5.7-5.6-8.6-8.3c-12.3-11.5-24.4-23.1-38.5-32.4
			c-5.1-3.3-11-5.1-17-5.1c-5.5,0.2-11.1,2.4-16.7,4.2c-3.9,1.3-4.2,2.5-0.7,5.2c17.2,13.4,34.2,27,51.3,40.5
			c8.5,6.8,8.5,6.8,16.1-1.1c0.2-0.2,0.4-0.5,0.6-0.8c1.6-2.1,3.3-1.9,5.1-0.2c1.2,0.9,2.2,2,3.2,3.1
			C308.5,681.3,310,680.7,312.1,677.9z"/>
		<path fill="#412F42" d="M678.9,872.4c-15.9-34.2-31.8-68.5-47.8-102.7c-5-10.9-10.1-21.7-15.1-32.6c-0.4-0.9-1.8-2.3-0.5-3
			c1.8-0.9,1.8,1.3,2.5,2.2c0.3,0.4,0.5,0.9,0.7,1.3c8.5,18.3,17,36.5,25.5,54.8c12.1,25.9,24.1,51.9,36.2,77.8
			c0.7,1.4,0.7,3.8,3.7,2.7c13-4.6,23.7-12.1,30.9-24c3-4.7,3.4-10.7,0.9-15.7c-2.5-5.1-5.5-9.9-8.8-14.5
			c-24.8-35.5-55.4-66.1-82.6-99.5c-3.8-4.7-7.7-7.6-13.9-4.3c-1.4,0.5-2.9,0.7-4.4,0.4c-4.3-0.3-4.6,1.3-3.1,4.9
			c5.3,12.7,4.8,25.7,1.1,38.7c-3.9,13.7-17.8,21.3-30.9,17.1c-20.9-6.8-30.3-23.1-35.3-43c-0.2-0.9,0-2.4-0.6-2.7
			c-1-0.6-1.7,0.8-2.3,1.4c-4.2,4-9.2,6.5-14.5,8.6c-10.9,4.5-21.9,8.8-33.8,10.2c-2.8,0.3-4,1.3-3.7,4.8c0.9,9.5-1.8,18.4-6.6,26.7
			c-3.2,5.6-8.1,8-14.4,8.2c-5.7,0.2-9.8-2.8-13.7-6.3c-11.3-10.3-16.2-23.8-18.5-38.3c-0.7-4.7-2.2-7.9-6.3-10.4
			c-8.5-5.3-15.7-12.5-21.1-21c-1.4-2.1-3-3.5-5.5-3.8c-9.9-1.4-18.9-5.2-27.4-10.2c-4.1-2.4-5.7-1.6-7.6,2.6
			c-2.3,5-2.6,10.7-5.6,15.4c-5.3,8.3-12.6,9-17.4,1c-2-3.3-2.9-1.8-4.4,0.1c-6.9,9-13.9,17.9-20.8,26.9
			c-17.9,23.2-36.3,46-50.8,71.7c-1.2,2.1-2.4,3.7-0.7,6.3c11.3,17.2,22.7,34.2,39.9,46.3c3.1,2.2,4.2,2.5,5.5-1.5
			c11.6-36.2,23.5-72.4,35.2-108.6c3.8-11.7,7.4-23.4,11.3-35.1c0.4-1.3,0.6-3.9,2.1-3.4c2.1,0.7,0,2.7,0,4.2c0,0.2,0,0.3-0.1,0.5
			c-7.1,22.1-14.2,44.3-21.4,66.4c-8.4,25.9-16.9,51.8-25.4,77.8c-2.3,7-2.1,7.5,3.8,11.4c8.5,5.6,16.9,11.3,25.6,16.5
			c16.6,10,35,14.9,53.5,19.9c3,0.8,3.6-0.4,3.7-3.2c1.4-31.3,2.3-62.6,4.8-93.8c0.2-2.3-0.7-6.8,1.2-6.5c2.6,0.4,1.1,4.4,1,6.8
			c-1.2,22.4-2.6,44.9-4,67.3h0.4c-0.4,8.5-0.5,17-1.2,25.5c-0.6,6.5,2.5,10.2,7.8,12.5c9.9,4.4,20.5,7.1,31.3,7.9
			c13.8,1,26.5-3.9,39.4-7.8c6.9-2.1,7.1-2.1,6.1-9.1c-2.6-19.2-3.6-38.5-3-57.8c0-2.1-0.4-4.2-1.2-6.1c-2-5.3-2.5-11-2.8-16.7
			c0-0.4,0.2-1.2,0.5-1.3c0.9-0.2,1,0.6,1.1,1.2c0.5,3.6,1,7.2,1.6,10.9c0.2,0.6,0.4,1.2,0.7,1.8c0.1-0.5,0.3-1,0.4-1.6
			c0.4-1.8-0.9-5,1.3-5c2,0,0.9,3.3,1,5.1c0.1,2.2,0.1,4.3,0,6.5c-1.2,24.5,0.6,48.9,4.2,73.2c0.3,2.1,0.2,4.6,3,5.1
			c9.8,1.6,19.6,4.3,29.7,3.4c28.5-2.5,55.4-10.7,81.3-22.5c4.3-2,5.1-4.1,3.9-8.4c-4-14.2-7.7-28.6-11.5-42.9
			c-3.7-14-10.1-26-23.3-33.4c-3.4-1.9-5.4-5.1-4.3-9.3c1.4-5.6,4.5-10.4,7.7-15c0.5-0.7,1.2-1.6,2-1c1.1,0.8,0.1,1.8-0.4,2.6
			c-2,3.5-4.2,6.8-5.9,10.4c-2.6,5.6-1.9,8.2,3.3,11.3c11.1,6.5,17.8,16.4,21.2,28.5c4.2,14.7,8.1,29.5,12.2,44.2
			c0.5,1.9,0.2,4.4,4,4.3c23.5-0.6,45.2-7.3,65.3-19.2C683,881.2,683,881.2,678.9,872.4z M409.2,729.9c-0.8,16.4-1.8,32.8-2.6,49.2
			c-0.3,6-0.4,12-0.6,17.9c0,0.8,0,2-0.9,2.1c-1.6,0.1-1.1-1.4-1-2.2c0.3-7.5,0.6-14.9,1-22.4H405c0.9-14.9,1.9-29.8,2.8-44.7
			c0.1-0.9-0.2-2.7,0.7-2.6C409.9,727.3,409.3,729,409.2,729.9z M454.9,832.7c-0.7,0.5-1.2-0.2-1.6-0.7c-5-6.3-9.5-12.9-15.4-18.3
			c-0.3-0.3-0.3-0.8-0.4-1.3c0.3-0.1,0.6-0.2,1-0.3c0.5,0.4,1,0.8,1.5,1.2c5.7,5.2,10,11.6,14.7,17.6
			C455,831.5,455.6,832.2,454.9,832.7z M567.3,780.1c-10.2,9.6-20.4,19.1-30.5,28.7c-0.7,0.6-1.5,2-2.3,1.2c-1-0.9,0.4-1.7,1-2.3
			c10.3-9.7,20.6-19.4,30.9-29.1c0.6-0.5,1.3-0.9,2.1-1.3c0.1,0.3,0.3,0.6,0.8,1.7C568.5,779.3,567.8,779.6,567.3,780.1z M583.4,825
			c-1.1-0.2-1.3-1.4-1.4-2.4c-1.5-9-3.5-17.9-6.1-26.6c-1-3.3-2.1-6.6-3-10c-0.2-0.5,0-1.7,0.3-1.7c0.8-0.3,1,0.6,1.2,1.2
			c4.4,12.6,7.6,25.5,9.8,38.7C584.1,824.1,584.1,825.1,583.4,825z M601.5,833.5c-0.7,0.6-1.2-0.2-1.4-0.7
			c-2.7-8.6-7.7-16.6-7.5-27.5c0.9-6.7,2.1-14.8,3.2-22.8c0.1-0.7-0.1-2,1-1.8c0.9,0.2,0.6,1.4,0.5,2.2c-0.7,5.9-1.1,11.9-2.3,17.8
			c-1.5,7-0.3,13.5,2.4,19.9c1.5,3.7,2.7,7.5,4,11.2C601.6,832.3,601.8,833.3,601.5,833.5z"/>
		<path fill="#F5EAF7" d="M1024,0H0v1024h367.8c-5.7-26.2-12.1-52.2-16.4-78.6c-2-12.3-4.7-24.5-5.5-37c-0.2-2.6-1.8-3.3-3.5-4.4
			c-10.9-7.1-21.8-14.1-32.8-21.1c-2.1-1.4-4.2-2.8-4.5-5.6c-0.2-2.1-2-3-3.5-4c-18.1-12.5-30.4-30.2-42-48.3
			c-1.7-2.6-1.5-4.5,0.1-7.2c20.3-35.2,46.8-66,71.4-98.2c3-3.9,3.3-5.7-1.1-8.6c-7.4-4.8-14.2-10.5-21.3-15.8
			c-3.1-2.3-4.3-4.8-2.1-8.5c3-5-2.4-6.1-4.4-8.5c-2.5-2.8-3.6,0.8-4.9,2c-4.4,4-7.7,9.3-12.8,12.6c-1.1,0.7-0.8,1.2-0.1,1.8
			c1,0.9,2.1,1.6,3.1,2.5c0.7,0.6,2.2,0.9,1.6,2.1c-0.8,1.5-2.1,0.3-3,0c-11.6-3.9-21.3-10.8-27.7-21.1c-4.9-7.9-11.6-13.5-18.8-19
			c-7.3-5.5-14.5-11.2-21.7-16.9c-4.1-3.3-4.1-4,0.2-6.8c5.1-3.2,10.2-6.4,16.1-7.8c2.7-0.7,3.7-2,3.6-4.9
			c-1-24.2,0.2-48.3,6.8-71.8c0.2-0.8,0.4-2.1,0-2.3c-1.1-0.7-1.6,0.6-2.3,1.2c-10.2,9.8-20.3,19.8-30.7,29.3
			c-9.3,8.4-19.6,15.5-31.7,19.5c-9.4,3.1-12.7,1.1-13.4-8.8c-0.7-9.1,1.1-17.9,3.8-26.5c7.5-24.2,19-46.4,31.7-68.2
			c13.5-23.3,35-34.2,60.1-38.7c10.5-1.9,16.5-6.5,20.8-16c5.9-13.2,13.6-25.5,21.8-37.5c0.6-0.9,2-2,1.3-2.9c-0.8-1-2,0.5-3,0.9
			c-15.3,7.9-30.9,14.9-48.2,17c-19.8,2.4-39.5,2.8-59-2.4c-5-1.3-9.5-4.2-12.8-8.2c-3.2-3.7-2.9-7.2,0.2-10.7
			c1.1-1.2,2.4-2.4,3.7-3.4c25.6-20.1,51.8-39.2,79.3-56.6c16.3-10.3,33.8-17.9,50.9-26.6c10.2-5.2,20.9-2.4,31,1.5
			c5.5,2.3,10.9,4.9,16.1,8c2.2,1.2,3.4,1.1,4.9-1c11.7-16,23.8-31.7,32.3-49.8c1.3-2.9,1.6-4.6-1.3-6.6c-2.1-1.4-3.8-3.2-5.2-5.3
			c-2.5-4.1-4.2-3.1-6.7,0.1c-13.5,17.1-31.5,27.9-51.1,36.4c-8.5,3.7-18,4.2-26.9,1.5c-12-3.5-15.3-13.6-7.1-22.9
			c7.9-8.9,17.8-15.6,28.5-20.8c16.6-8,33.9-14.6,51.1-21.3c2.7-1,4.5-2.2,4.9-5.4c0.8-7.8,3.6-15.3,8-21.8c2.1-3,0.8-3.7-2.2-4.5
			c-8.8-2.4-17.7-4.8-26.3-7.7c-19.3-6.3-36.1-18.7-47.8-35.3c-6-8.4-8.4-17.6-6.4-27.9c1.5-7.7,4.6-9.4,11.9-6.5
			c3.7,1.5,7.2,3.5,10.5,5.8c17.7,11.9,35.4,23.8,53,35.8c3.3,2.3,4.5,2.9,4.9-2.1c2.8-32.6,18.5-58.5,41.9-80.5
			c15-14,30.1-27.9,49.4-36.1c19.9-8.5,40.5-14.9,62.2-15.3c26.1-0.4,51.2,5.6,75.2,15.7c16.3,6.7,30.5,17.6,41.2,31.6
			c23.8,31.1,36,65.7,30.9,105.4c-0.1,1-0.5,2.6-0.2,2.8c1.3,0.6,2-0.8,2.8-1.5c5.6-4.7,11.5-9.1,17.6-13.1
			c24.4-15.7,50.2-16.8,77.1-7.7c5.7,1.9,11.5,3.5,16.7,6.5c4.3,2.4,4.8,5,1.8,8.9c-3.5,4.5-8.3,6.9-13.8,8.5
			c-15,4.4-30.4,5.9-45.8,7c-12.6,0.9-25.2,2-37.8,3c-0.9,0.1-2.3-0.2-2.5,1c-0.1,0.5,0.9,1.3,1.2,2c2.3,4.3,5.9,5.3,10.7,5.2
			c8.5-0.2,17,1.5,24.8,4.8c16.9,6.7,33.4,14.3,49.4,22.7c4,2.1,9.1,4.3,8.5,9.3c-0.6,5.3-6.4,5.9-10.7,6.6
			c-24.4,4.1-47.8,2.5-69-11.9c-4.6-3.1-5-2.9-5.5,2.7c-0.6,7.1-4.1,13.6-9.6,18c-2.5,2.1-2.9,4.1-1.3,6.9c2,3.4,3.7,7.1,5.9,10.4
			c17,25.4,36.2,49,59.1,69.5c22.4,19.9,40.9,43.6,54.7,70.2c19.6,37.5,25,78.1,21.3,119.9c-3.6,39.9-20.4,74.4-45.6,105.1
			c-9.7,11.9-22.6,20.1-35.7,27.8c-14.6,8.4-29.8,15.6-45.5,21.5c-9.4,3.6-19.3,5.1-29.3,5.6c-1.2,0.1-3,0.7-3.6-0.8
			c-0.8-1.9,1.3-2.5,2.4-3.2c34.1-20,55.3-50.8,71-86c0.3-0.9,0.6-1.8,0.8-2.7c-0.7,0.6-1.5,1.2-2.2,1.8
			C747.9,615,731.5,624,714.3,632c-1.1,0.5-2.5,1.2-3-0.2c-0.7-1.7,1.3-2,2.3-2.7c23.4-17.4,42.4-38.5,55.7-64.5
			c9.5-18.6,15.4-38.6,20.5-58.8c0.5-2.1,0.1-4.4-1-6.2c-6-12.9-13.1-24.9-22.7-35.7c-20.2-22.7-32.1-49.6-37.3-79.4
			c-1.3-7.7-4.1-14.4-9.6-20.3c-23.3-25.1-35.1-56.2-45.2-88.1c-3.5-10.9-5.4-9-11.7-2.8c-2.4,2.2-4.2,5.1-5.1,8.3
			c-4,14.3-13.2,25.2-23.8,35.1c-0.8,0.8-1.8,2-3,1.2c-1.5-1.1-0.2-2.4,0.4-3.5c3.6-6.1,5.4-13,5.3-20c0-0.8,0.4-1.9-0.6-2.1
			c-0.9-0.2-1.2,0.9-1.7,1.6c-1.7,2.5-3.2,5.1-5,7.5c-9,12.6-20.6,21.1-36.2,23.6c-1,0.2-1.9,0.4-2.9,0.7c-0.8,0.2-1.7,0.4-1.6,1.5
			c0.1,1.1,1,1.3,1.8,1.2c7-0.9,12,2.8,17.1,6.7c3.9,3,8.8,3.8,13.4,5.4c9.8,3.3,19.6,6.5,28.8,11.2c5.6,2.7,10,7.5,12.1,13.3
			c3.8,9.6,5.4,20,4.8,30.3c-1,14.4,1.9,28.5,4.2,42.6c3.5,20.8,7.4,41.6,10.3,62.5c0.2,1.6,0.4,3.3,0.3,5c-0.1,1.9,1,4.3-1.1,5.5
			c-2.4,1.4-4.5-0.4-6.3-1.8c-5.5-4.3-11-8.6-17.4-11.6c-2.5-1.2-4.2-2.3-4.7,2c-0.5,3.8-1.8,7.5-3.8,10.8
			c-2.6,4.3-5.9,7.2-11.3,6.8c-3.7-0.3-4.9,1.3-5.6,5.1c-3.8,20.3-7.9,40.5-12.4,60.6c-1.7,6.9-1.1,14.2,1.8,20.7
			c7.3,17.1,14.4,34.4,19,52.5c1.3,5.1,0.2,9.5-2.4,13.8c-3.8,6.1-8.6,11.5-14.1,16.1c-2.1,1.7-2.9,3.2-2.1,5.9
			c1.8,5.8,1.9,11.9,0.4,17.8c-0.6,2.2,0.3,3.3,1.6,4.8c21.1,24.3,42.1,48.6,63.1,72.9c10,11.8,19.3,24.3,27.8,37.2
			c9.8,14.7,8.6,23.1-3.6,35.9c-6.3,6.7-14.2,11.7-22.9,14.7c-2.7,0.9-4.5,2.1-2.2,5.3c1.7,2.4-0.3,3.5-2.1,4.6
			c-6.7,4-13.4,8.1-20.5,11.3c-1.7,0.7-3.5,1.3-2.9,3.9c3.4,16,3.9,32.3,6.2,48.5c3.5,24.7,10.9,48.3,19.1,71.7
			c0.5,1.4,1.3,2.7,1.4,4.2h338L1024,0L1024,0z"/>
		<path fill="#CDC9C7" d="M228.8,637.8c-0.9-0.8-1.8-1.5-2.8-2.1c-3.1-1.7-5.3,0.7-6.9,2.5c-1.6,1.8,1.3,2.5,2.4,3.3
			c4.4,3.6,8.9,7,13.4,10.5c15.5,12,31.1,24,46.6,35.9c1,0.8,2.1,2.6,3.8,1c1.1-1,2-2.1,3.3-3.5c-1.3-1.1-2.3-2.1-3.5-3
			C266.3,667.6,247.5,652.7,228.8,637.8z"/>
		<path fill="#DD95A8" d="M274.7,507.1c2.1-2.4,4.6-4.3,7.5-5.6c4.1-1.9,8-4,11.9-6.3c9.5-5.5,18.7-11.6,28.7-16.1
			c0.8-0.4,2-1.4,2.7-0.4c1,1.6-0.8,2-1.7,2.3c-3.8,1.2-4.6,4.1-5.4,7.6c-2.5,12.2-1.6,24.3,0.9,36.2c3.7,17.7,11.7,33.2,26.3,44.7
			c2.5,1.9,4.5,2.3,7.6,0.9c13.7-6.3,27.8-11.2,43.2-11.1c9.6,0.1,18.8-2.4,27.7-5.7c15.4-5.7,31.3-10.2,47.4-13.5
			c1.7-0.2,3.2-0.8,4.6-1.8c9.7-8.1,21-10.3,33.3-8.7c6.5,0.8,14.4-3.4,17-9.4c4.3-9.7,8.3-19.6,12.6-29.4c0.9-2.1,0.8-3.5-0.9-5.2
			c-2.6-2.5-4.3-5.9-2.6-9.5c2.4-5.4,1.3-10.3-0.7-15.4c-1.8-4.6-3.3-9.4-5.2-14c-17-40.2-47.3-61.4-90.9-63.4
			c-1.3-0.1-3.5-0.3-3.8,0.2c-0.7,1.5,1.4,1.8,2.1,2.8c0.4,0.6,1.6,1.2,1,2c-0.8,1-1.5-0.1-2-0.6c-2.7-2.7-6.1-4.5-8.5-7.6
			c-11.2-15-24.1-28.6-38.4-40.5c-12.6-10.7-26.7-19.4-42-25.7c-9.6-3.9-19.7-6.1-29.6-1.5c-12.1,5.6-24.1,11.4-35.7,18
			c-33.6,18.9-64.5,42-94.7,65.8c-0.6,0.5-1.3,1.1-1.8,1.7c-2.5,2.5-2.7,5-0.2,7.9c3,3.6,7.1,6.1,11.7,7.2c32,7,63.4,5.8,93.1-8.9
			c27.8-13.8,56-27.3,80-47.7c0.7-0.6,1.3-1.8,2.4-0.7c-0.3,0.7-0.7,1.4-1.3,1.9c-4.8,3.9-9.6,7.7-14.4,11.6
			c-2.8,2.3-6.5,3.3-8.8,6.3c3.1,1.8,6.3,3.7,9.4,5.5c17.2,9.8,34.5,19.5,51.7,29.3c0.9,0.5,2.8,1,2.1,2.2c-0.7,1.3-2-0.2-2.9-0.8
			c-6.5-3.7-13.1-7.2-19.5-11.2c-3.2-2-5.5-1.7-8.6,0.1c-10.4,6.3-20.4,13.3-29.8,21c-7.2,5.8-13.4,12.5-18.6,20.1
			c-0.9,1.3-4,3.5,0.5,4.5c0.2,0.1,0.5,1,0.4,1.1c-0.5,0.4-1,0.7-1.7,0.7c-2.5,0-5-0.2-8.9-0.4c-22.5,2.7-45.8,8-69.1,13.6
			c-23.1,5.5-40,18.8-51.4,39.5c-9.4,16.9-18.4,33.9-25,52.2c-4.2,11.8-8.2,23.6-7.5,36.4c0.4,7.9,2.5,9.3,10,6.9
			c11.5-3.8,21.3-10.4,30-18.4c19-17.4,38.2-34.8,53.5-55.8C266.4,516.7,270.7,512,274.7,507.1z M334,519c18.9-3,37.7-6.1,56.7-9
			c3-0.3,5.6-1.9,7.3-4.4c15-20.4,30.8-40.1,47.7-59c1.9-2.1,3.7-6.8,7.8-3.5c4.2,3.3,0.1,6-1.6,8.4c-12.8,17-25.9,33.9-38.8,50.8
			c-0.9,1.2-2.9,2.6-2.2,3.6c1,1.3,3-0.1,4.5-0.4c19.8-5,39.6-10,59.5-15c1.6-0.5,3.3-0.6,4.9-0.5c2.3,0.4,2.9,2.7,3.2,4.6
			c0.3,2.3-2,2.2-3.5,2.7c-22.3,7.4-45.1,12.6-68,17.7c-5.4,1-10.2,4.2-13.2,8.8c-8.3,11.9-16.8,23.6-25.2,35.4
			c-1.9,2.7-8.2,4.6-11,3c-2.5-1.4,0-2.6,0.6-3.5c7.3-11.7,15-23.2,23.1-34.4c1-1.3,3.1-2.5,2.2-4.4c-0.2-0.5-3.1,0.2-4.7,0.5
			c-15.4,2.8-30.7,5.6-46.1,8.5c-6.2,1.1-7.1,0.4-7.1-6.3C329.4,519.3,331.9,519.3,334,519z"/>
		<path fill="#F5EAF7" d="M250.6,604.1c-0.1,0.4-0.3,0.6-0.3,0.8c0.7,6.4,0,13,2,19.2c0.5,1.5,3.2,2.1,4.8,1.4
			c1.5-0.7,0.2-2.3-0.2-3.5c-1.8-5.3-3.6-10.7-5.4-16C251.3,605.3,251,604.7,250.6,604.1z"/>
		<path fill="#E3CCC7" d="M243.1,625.5c2.9-0.5,6.5,0.3,5.8-5c-1.8-11.7-1-23.6-1.1-35.4c-0.4-9.5-0.2-19,0.3-28.5
			c0.1-1.5-0.4-4.2,1.4-4.2c1.2,0,0.6,2.9,0.5,4.4c-1.4,15.2-1.5,30.2,3.2,45c4.4,13.9,7.8,27.3,22.1,35.9c14,8.5,25.1,21.3,37,32.7
			c1.1,1,2.6,3,3.3,2.7c5.6-1.8,9,2.1,13,4.6c1.4,0.9,2,0.5,2.2-1.1c0.5-4.1,1-8.2,1.7-12.3c0.2-1.5-0.5-2-1.6-2.7
			c-10.7-7.3-20.3-15.6-27.1-26.8c-0.4-0.5-0.8-0.9-1.3-1.3c-0.1,0.6-0.3,1.2-0.3,1.8c-0.3,2.6-0.9,4.9-4.3,3.2
			c-7.6-3.6-9.8-9.9-7.3-17.8c1.6-4.9,2.5-10.1,2.5-15.3c0-4.7,2.3-9.5,2.6-14.4c0.1-1.9,2.1-2.9,3.7-2.8c5.7,0.3,9.3-2.6,12.9-6.6
			c1.8-2,2.6-3.1,1.9-5.9c-3.5-13.2-4.7-26.8-5.3-40.5c-0.7-14.5,1-29,2-43.4c0.1-1.1,0.6-2.6-0.5-3.2c-1.1-0.7-2.1,0.6-3.1,1.1
			c-7.5,4.3-14.6,9.5-22.5,12.9c-3.7,1.5-7,3.9-9.5,7c-7.8,9.8-15.6,19.5-23.5,29.2c-1.7,2.3-2.9,4.9-3.5,7.6
			c-6.6,24.1-9.2,49.2-8,74.2C240.3,622.7,238.7,626.2,243.1,625.5z"/>
		<path fill="#E3CCC7" d="M260.6,675.3c-0.4-0.2-0.8-0.4-1.3-0.5c0.1,0.4,0,1,0.3,1.3c4.7,6.3,9.9,12,16.8,16
			c0.4,0.2,0.9,0.3,1.3,0.4c0-0.3,0-0.6,0.1-0.9c-0.1-0.1-0.2-0.3-0.3-0.4C272.6,685.2,267.2,679.6,260.6,675.3z"/>
		<path fill="#EEC3CA" d="M399.2,230.1c-0.2-3.2-0.2-6.3-0.1-9.5h-0.2c0-3.8-0.1-7.7,0-11.5c0.1-2-0.6-5.2,2.4-5
			c2.9,0.1,2.2,3.3,2.2,5.3c0,5.2-0.2,10.3-0.3,15.5c0,0.9-0.6,2.2,0.6,2.6c0.4,0.1,1.3-1.3,1.9-2c7.1-7.8,11.1-16.1,5.3-26.5
			c-0.4-0.9-0.6-1.9-0.6-2.9c-0.5-4.6-2.7-3.9-5.4-1.9c-4.7,3.5-7.1,8.8-9.7,13.8c-5.8,11-7.5,22.6-4.5,34.8c0.2,0.7,0.1,4,1.9,1.5
			C395.8,240,399.9,236.2,399.2,230.1z"/>
		<path fill="#F5EAF7" d="M792.6,490.8c1.3-0.3,0.2-3.2,0.4-5.2c-0.4-7.9-1.8-15.8-4.1-23.4c-8.4-25.7-24.5-46.7-41.6-67
			c-0.4-0.5-1-1.7-1.8-0.9c-0.3,0.3,0.1,1.5,0.3,2.3c4.5,14.5,10.7,28.4,18.3,41.5c9.2,15.8,18.9,31.3,26.1,48.3
			C790.8,488.1,791.1,491.1,792.6,490.8z"/>
		<path fill="#E3CCC7" d="M710.4,236.5c-1.5-0.8-3-1.5-4.4-2.3c-1.9-1.1-2.7-0.9-2.1,1.6c1.3,6.7,1.7,13.5,1.3,20.2
			c3-2.3,5.6-5.1,7.9-8.2C717.3,241.6,716.9,240,710.4,236.5z"/>
		<path fill="#E3CCC7" d="M701.4,261.1c-7.1,4.5-15.3,6.9-23.7,6.8c-3.1,0-3.1,1.3-2.4,3.6c10.7,32.5,22.1,64.7,46,90.5
			c5.6,6,8.4,12.8,10,20.7c4.8,24,12.2,46.9,27.3,66.8c10,13.2,22.3,24.9,28.8,40.6c0.2,0.4,0.7,0.7,1,1c0.5-0.9,0-1.6-0.3-2.3
			c-5.2-13.1-12-25.3-19.4-37.1c-13.8-22.2-24.2-46.4-30.9-71.7c-0.2-0.8-1.3-2,0.2-2.4c0.9-0.3,1,1.1,1.3,1.8
			c1.3,3.7,3.3,7.2,5.9,10.2c21.9,24.4,42.1,49.9,48.9,83.3c0.1,0.6,0.4,1.6,0.7,1.6c0.9,0.1,0.8-0.8,0.9-1.5c0.4-2.6,0.8-5.3,1-7.9
			c1.4-15,2.2-29.9-0.8-44.8c-0.2-0.9-0.5-2.4,0.4-2.6c1-0.1,1.2,1.4,1.3,2.4c1.1,7.1,2.5,14.2,2.1,21.3
			c-1.3,23.4-2.9,46.7-8.7,69.6c-10.8,42.6-29,80.7-63.5,109.5c-0.5,0.4-1.7,0.7-1,1.8c0.6-0.1,1.2-0.4,1.7-0.7
			c10.5-5.6,20.4-12,29.1-20.1c6.6-6.1,12.6-12.7,16-21.4c4.6-12.3,8.4-24.9,11.6-37.6c0.3-1.1,0.1-3.2,1.7-3c0.9,0.1,0.3,2.1,0,3.2
			c-4.4,17.4-9.5,34.6-16.8,51c-16.4,37.1-36.1,71.9-72.2,93.9c-0.5,0.3-1.4,1.1-1.3,1.3c0.5,0.9,1.4,0.3,2.2,0.2
			c4.3-0.6,8.6-0.9,12.8-2c19.6-5.2,37.5-14.4,55.1-24.3c14.6-8.2,28.4-17.7,38.6-31.2c25.6-33.8,42.1-71.2,42.4-115.9
			c0.5-14.5-0.5-29-3-43.3c-4.5-26.5-12.6-51.8-27.8-74.2c-15-22.1-31.8-42.6-51.9-60.5c-24-21.5-44.1-47-59.5-75.3
			C704.4,260.3,703.6,259.8,701.4,261.1z"/>
		<path fill="#FFF6E8" d="M603.1,296.6c4.9-9.5,8.8-19.4,11.6-29.7c0.1-0.6,0-1.3-0.1-1.9c-0.6,0.2-1.2,0.4-1.7,0.7
			c-2.8,1.7-5.6,3.6-8.5,5.1c-1.2,0.6-2.8,2.2-4,0.6c-0.8-1.2,1-2.2,1.9-3.1c8.6-8.7,13.7-19.6,18.6-30.6c0.9-2.3,1.5-4.8,1.9-7.2
			c0.1-0.6,0.1-1.8-0.1-1.9c-1-0.4-1.2,0.7-1.7,1.3c-0.3,0.4-0.6,0.8-0.9,1.2c-1.1,1.1-1.6,3.7-3.6,2.7c-2.1-1-0.5-3,0.2-4.3
			c3.4-7,2.5-14,0-20.9c-5.4-15.2-22.4-27-39.8-13.5c-2.2,1.7-4.6,3.3-6.9,4.9c-0.8,0.5-1.6,1.5-2.6,0.9c-1.1-0.7-0.4-1.8-0.1-2.7
			c0.2-0.6,0.8-1.2,0.8-1.8c-0.1-1.9-0.3-3.9-0.5-5.8c-1.3,2.4-2.9-1.9-4.4,0.3c-2,3-4.8,2.2-7.6,1.2c-2.3-0.8-9.9-0.1-10.5,1
			c-1.8,3.3-3.3,2.6-4.9-0.1c-0.4-0.7-0.7-1.9-1.6-1.6c-0.5,0.1-0.8,1.4-0.9,2.2c-0.4,3.3-0.7,6.6-1.1,9.9c-0.1,0.8-0.3,2-0.8,2.2
			c-1.2,0.5-1.7-0.7-2.2-1.5c-3.8-5.7-7-11.7-9.6-18c-9.8-24.2-12.2-49.6-12-75.4c0-0.8,0.6-1.8-0.4-2.5c-0.4,0.7-0.7,1.5-0.9,2.3
			c-4.6,19.3-8.8,38.6-8.3,58.7c0.2,4.3,0.4,8.7,0.6,13c0,1.1,0.5,2.7-1.1,2.8c-1.1,0.1-1.4-1.3-1.6-2.2c-2.8-9.9-5.7-19.8-7.1-30.1
			c-1.7-12.6-1.7-25.3-0.1-37.9c0.1-0.8,0.8-2-0.5-2.5c-0.2-0.1-1,0.8-1.2,1.3c-6.4,11.9-13.5,23.4-16,36.9
			c-1.1,5.7-1.6,11.5-2.5,17.3c-0.1,0.9,0,2.3-1.2,2.5c-1.5,0.2-1.9-1.3-2.1-2.3c-0.5-2.1-0.8-4.3-1-6.4c-0.5-5,0.1-10,0.6-15
			c0-0.6,0-1.3-0.2-1.9c-0.5,0.4-0.8,1-1.1,1.5c-4.3,13.8-8.8,27.6-9.4,42.3c0,1.1-0.7,2.7,0.4,3.2c1.3,0.6,1.8-1.2,2.4-2
			c12.4-17.6,34.3-10.8,44.1,0.3c0.7,0.7,1.5,1.4,1.2,2.6c-0.7,3-0.7,10.8,0,13.1c2.7,8.9,3.2,17.7-1.2,26.2
			c-3.8,7.4-10.7,9.5-18,5.4c-9-5-15.7-22.4-12.6-32.1c0.5-1.5,1.1-2.5,2.7-1.3c1.5,1.2,3,1.8,4.3,0c1.2-1.7,2.2-3.7,0.4-5.4
			c-3.6-3.6-1.1-4.6,2.1-5.4c1.8-0.4,3.6-0.7,5.4-1c0.8-0.1,1.6-0.3,2.4-0.4c-0.5-1.1-1.5-1.2-2.5-1.4c-8.3-1.7-18.2,2.9-21.9,10.6
			c-4.8,9.8-7.4,20-3.4,30.9c0.4,1.1,1.5,3.1,0.2,3.6c-3.4,1.3-1.2,3.2-0.7,4.6c2.7,8.1,8.2,14.4,14,20.4c0.7,0.8,2.2,1.5,1.4,2.8
			c-0.8,1.4-2.2,0.4-3.2,0.2c-4.8-1.1-9.7-2.3-14.5-3.7c-2.7-0.8-3.2-0.3-2.5,2.5c1.4,5,2.3,10,2.9,15.2c1.1,11.5,7.4,19.3,16.9,25
			c12,7.2,24.9,12.8,38.4,16.5c3.6,1,5.3,2.7,6.1,6.1c1.4,5.7,2.5,11.4,3.6,17.1c0.9,4.8-0.8,7-5.1,8.6c-5.1,1.7-9.5,4.9-13.5,8.5
			c-4,3.5-3.5,5.9,0.9,8.6c3.5,2.2,6.8,4.8,10.3,7.1c3.2,2.1,6.7,4.2,10.7,3.5c12.8-2.1,25.1-6.9,36-14c8.1-5.3,14.6-13.1,21.9-19.7
			c2.1-1.9,2.2-3.4,0.6-5.9c-3.7-5.9-4.8-13-3-19.7c1.4-5.1,0.3-11.9,8.8-13.6C597.3,304.5,601.2,300.2,603.1,296.6z M548.9,294.2
			c-14.5,4.6-31.3-8.8-30.7-24.5c0.2-6.1,2.3-9.7,8.5-12.8c8.5-4.3,16.3-2.4,24.1-0.4c3.3,0.8,6,3.1,10,2.1c1.9-0.5,3.7,1.3,4.3,3.5
			c0.7,2.3,1.1,4.6,1,7C566,279.9,558.1,291.3,548.9,294.2z M580.1,233.7c-8.5-8.4-11.1-20.6-6.3-30.2c0.8-1.6,1.4-4,3.7-1.3
			c1.2,1.3,2.5,2.6,4.2,1.1c1.6-1.2,1.9-3.5,0.7-5c-0.1-0.1-0.2-0.2-0.3-0.3c-3.3-3.5-0.7-4.3,2-5.4c8.1-3.2,12.6-1.9,17.7,5.1
			c3.4,4.7,5.8,9.8,5.5,15.8c-0.6,9-3.1,17-11.3,22.1C590,239.2,585.1,238.6,580.1,233.7z"/>
		<path fill="#EEC3CA" d="M720,228.5c16,10.8,33.1,18.7,51.3,17.2c7.7,0.4,15.5-0.3,23.1-2c2.8-0.7,6.8-0.8,7.3-4.2
			c0.4-3.3-3.2-4.7-5.8-6.1c-17.1-9-34.6-17-52.6-24c-8.6-3.4-17.5-3.8-26.5-3.6c-2.2,0.1-3.1,0.9-3.7,3
			C711.2,215.6,714.1,224.6,720,228.5z"/>
		<path fill="#EEC3CA" d="M694.8,189c3.6,1.6,6.3,5.1,10.8,4.4c13.7-2.2,27.5-2.5,41.3-3.6c16.1-1.3,32.2-2.4,47.8-7
			c4.4-1.3,8.5-2.9,11.7-6.3c3.5-3.7,3.4-5.2-1.2-7.3c-14.6-6.5-30.3-10.3-46.2-11.3c-25.8,0.5-45.6,12.8-63.6,28.8
			C694.6,187.3,693.3,188.3,694.8,189z"/>
		<path fill="#D1B0AB" d="M658.1,214.6c0-3.1,0-5.8,0-8.4c0-0.5-0.1-1.3-0.3-1.4c-0.9-0.2-1,0.7-1.2,1.2c-0.8,2.5-1.6,5.1-2.4,7.6
			c-3,9.4-7.6,18.1-12.2,26.8c-0.5,0.9-0.9,2.5-2.4,2.1s-0.8-1.9-0.8-3c0.1-0.8,0.3-1.6,0.5-2.4c1.3-8.6,2.7-17.1,2.2-25.8
			c-0.2-0.8-0.4-1.5-0.8-2.3c-0.6,0.5-1.1,1.1-1.6,1.7c-1.6,2.5-2.9,5.3-4.7,7.6c-1.3,1.7-1.8,5.5-4.3,4.5c-2-0.9,0-4.1,0.1-6.3
			c0.1-1.7,1.5-4.2-0.1-4.8c-1.1-0.4-2.2,2.5-2.8,4.2c-1.7,5.1-1.7,10.5-2.7,15.7c-2.2,11.6-8.7,21.1-14.6,30.9
			c-0.5,0.8-0.9,1.7-1.3,2.6c1.5,0.6,2-0.8,2.8-1.4c5.2-4.5,10-9.3,12.9-15.7c0.4-0.9,0.7-2.8,2-2.2c1.2,0.6-0.1,2.1-0.6,3.1
			c-0.9,2.1-2.1,4.2-3.5,6c-2.7,3.1-4,6.8-5.1,10.7c-5.5,19.5-12.8,38.2-26.5,53.7c-0.6,0.7-1.8,1.4-1,2.4c0.3,0.4,1.6,0.3,2.4,0.1
			c9.9-2,19.2-5.6,26.4-13.1c8.9-9.1,15.8-19.8,20.5-31.6c0.3-0.7,0.5-2.1,1.3-1.8c1.2,0.4,0.7,1.7,0.3,2.5
			c-2.2,4.4-1.5,9.1-1.6,13.7c-0.1,4.5-0.6,9-1.7,13.3c-0.3,1.3-0.5,2.5-0.7,3.8c1.7-0.3,2.3-1.8,3.2-2.8
			c16.8-17.8,19.9-40,18.4-62.8C657.7,233.2,657.3,223.7,658.1,214.6z"/>
		<path fill="#D1B0AB" d="M661.2,264c-2.4,0.2-1.3,2.8-2,4c0.4,1.1-0.8,3.1,0.9,2.7c2.1-0.6,3.8-2.3,4.4-4.4
			C664.8,264.9,662.3,263.9,661.2,264z"/>
		<path fill="#3F152B" d="M491.3,221.6c2.9,0,4.4-2.5,4.5-5.9l0,0c-1.2-2.7-0.5-7.3-5.3-7.5c-4.2-0.2-4.4,3.2-4.4,6.3
			C486.2,218.2,487.1,221.6,491.3,221.6z"/>
		<path fill="#994264" d="M478.8,207.1c-1.6,0.2-2.4,0.3-2.5,2.1c-0.5,10.3,2.9,19.1,11.1,25.4c6,4.6,12.2,2.6,15.7-4.1
			c2.1-4,3.1-8.5,2.9-13c0.1-5.2-1.1-10.3-3.3-15c-3.2-6.3-10.7-9.7-16.7-7.9c-1.8,0.5-2.7,0.8-1.7,3.3
			C486.2,202.8,483.9,206.5,478.8,207.1z M490.8,206.4c3.8,0.2,6.8,4.6,6.6,10.2c-0.1,3.7-3.1,6.9-6.4,6.9c-4.1-0.1-6.7-3.8-6.7-9.3
			C484.4,209,486.8,206.2,490.8,206.4z"/>
		<path fill="#FCE0E4" d="M671,194.2c-1.6,10.8-3.7,21.7-9.4,31.3c-2.1,3.5-2.8,6.5-1.8,10.3c1.4,6,1.9,12.2,1.4,18.3
			c-0.6,7.1-0.3,7.5,6.4,10.1c2.5,0.9,5.1,1.5,7.8,1.5c10.7,0.4,21.2-2.9,29.6-9.5c-2.8,0.4-4-0.7-3.9-3.8
			c0.1-6.2-1.1-12.2-1.8-18.4c-0.4-3.4-2-4.8-4.9-5.9c-7.3-2.8-14.5-5.9-21.7-8.9c-1.4-0.6-3.6-0.6-2.6-3.2c1-2.7,2.9-1.6,4.5-0.9
			c5.8,2.4,11.6,5,17.5,7.4c1.1,0.5,2.4,1.9,3.6,0.8c1-1,0.2-2.5-0.2-3.8c-1.4-4.9-2.9-9.9-4.4-14.8c-0.6-1.9-0.3-3.2,1.9-3.7
			c2.1-0.5,2.7,0.8,3,2.3c1.1,4.5,2.7,9,3.2,13.6c1,8.2,4.7,13.9,12.8,16.3c1.6,0.5,3.2,3,4.7,1.3c1.2-1.3,1-3.8,0.3-5.8
			c-0.5-1.2-1.2-2.4-2-3.4c-4-5.4-5.3-11.3-3.2-17.9c0.8-2.4,0.6-4.9-1.5-6.4c-9.3-7.1-18.7-14-31.2-13.8
			C674.2,187.2,671.8,188.8,671,194.2z"/>
		<path fill="#FFF6E8" d="M577.3,183.3c2.4-1,4.9-2,7.3-3c0.7-0.4,1.5-0.6,2.3-0.8c4.6-0.4,5.7-3.1,4.6-7l0,0
			c-0.3-14.7-2.5-29.2-6.6-43.3c-0.3-1.2-0.2-3.4-1.4-3.3c-1.1,0.1-0.5,2.2-0.5,3.4c0.3,15.5-0.3,30.8-4.3,45.9
			C578.1,177.9,576.7,180.4,577.3,183.3z"/>
		<path fill="#FFF6E8" d="M601.1,179.2c9.6,1.8,16.4,7.5,21.3,15.8c0.8,1.4,1.6,4,3,3.5c1.7-0.5,0.8-3.2,1.2-4.9c0-0.3,0-0.7,0-1
			h0.2c-0.5-4-0.8-7.9-1.5-11.9c-3.3-18.4-12-34.8-19.4-51.6c-0.3-0.7-0.5-1.8-1.5-1.5c-0.3,0.1-0.3,1.5-0.2,2.3
			c0.9,15.4-0.5,30.6-5.4,45.3C597.8,177.9,598.6,178.7,601.1,179.2z"/>
		<path fill="#3F152B" d="M590.7,207c-3.4,0.4-4.6,3.3-4.9,6.5l0,0c0.4,2.6,1.3,5.4,4.2,5.3c3.7-0.1,4.4-3.7,4.4-6.6
			C594.5,209.9,594.2,206.6,590.7,207z"/>
		<path fill="#FCE0E4" d="M393.1,171.4c0-1.8-0.9-3.5-2.4-4.5c-20.5-13.7-40.8-27.7-61.4-41.1c-10.8-7-14.1-4.9-14.3,8
			c-0.1,6.4,0.9,10.1,4,15.7c2.6,4.5,5.7,8.6,9.2,12.4c17.5,19.4,40.7,27.5,65.1,33.2c2.6,0.6,2.2-0.7,2-2.4
			C394.5,185.6,393.7,178.5,393.1,171.4z"/>
		<path fill="#9A2950" d="M673.4,216.4l-1,0.3c0.3,0.3,0.6,0.8,1,1c4.7,2,9.4,3.9,14.2,5.8c0.4,0.2,0.9,0,1.4-0.1
			c-0.2-0.2-0.4-0.6-0.6-0.7C683.3,220.6,678.3,218.5,673.4,216.4z"/>
		<path fill="#9A2950" d="M702.9,246.7c0.4-4.1,0.1-8.2-1.8-12.1c0.5,4.1,1,8.2,1.5,12.2C702.7,246.8,702.9,246.8,702.9,246.7z"/>
		<path fill="#9A2950" d="M699.2,227.9c1,0,0.6-1.4,0.5-2.1c-1.7-6.9-3.4-13.8-5.1-20.6c-0.3-0.7-0.6-1.4-1-2.1
			c-1.1,1-0.6,1.9-0.4,2.7c1.8,6.7,3.6,13.4,5.5,20C698.9,226.5,697.3,228,699.2,227.9z"/>
		<path d="M335.3,635.8L335.3,635.8L335.3,635.8C335.2,635.8,335.2,635.8,335.3,635.8L335.3,635.8L335.3,635.8z"/>
		<polygon points="537,701.9 537,701.9 537,701.9 536.9,701.8 536.9,701.8 		"/>
		<path d="M386.9,689.9L386.9,689.9C386.9,690,387,690,386.9,689.9L386.9,689.9z"/>
	</g>
</g>
</svg>
