<?xml version="1.0" encoding="utf-8"?>
<!-- Generator: Adobe Illustrator 24.1.0, SVG Export Plug-In . SVG Version: 6.00 Build 0)  -->
<svg version="1.1" baseProfile="tiny" id="图层_1"
	 xmlns="http://www.w3.org/2000/svg" xmlns:xlink="http://www.w3.org/1999/xlink" x="0px" y="0px" viewBox="0 0 1024 1024"
	 xml:space="preserve">
<g id="图层_1_x5F_复制">
	<path d="M199,1025c-3-16-0.9-31.4,5.1-46.5c2.8-7,2.1-14.8,2.6-22.2c0.4-6.6-0.1-13.3,0.3-20c0.4-7.6,2.5-9.6,10-10.2
		c8.4-0.7,8.3-0.7,10.9-8.7c3.3-10.1,6.4-20.3,9.2-30.6c0.9-3.2,0.3-5.3-2.3-7.3c-6.8-5.2-11.7-12.3-16.6-19.2
		c-3.6-5.1-2.6-10.6,0.1-16.1c2.5-5.2,7-5.8,11.6-6.1c3.3-0.3,5.8,2.8,9.2,3.3c4.9,0.7,10,0.6,14.4,3.5c0.6,0.4,1.2,0.7,1.6-0.2
		c0.5-1.1,0.4-2.4-0.3-3.3c-3.6-5.2-7-10.3-13-13.5c-12.1-6.3-20.9-16.3-28.5-27.4c-3.9-5.8-1.1-14,6.7-18.6c5.1-3,3.9-4.8,1-8.4
		c-10-12.4-14.1-27.4-18.4-42.3c-5.5-19.3-7.6-39.1-9.1-59c-0.1-1.8,2.5-2.7,2.2-5.3c-0.7-6.3-0.9-12.6-1-19
		c-0.4-29.9,3.4-59.4,9.3-88.7c5.4-27.1,12.8-53.8,20.9-80.2c2.8-9.2,6.3-18.2,9.6-27.3c4.4-12.1,3.2-24.7,2.7-37.1
		c-1-24.2,0.3-48.3,2.6-72.3c3.2-33,8.5-65.7,15.9-98c4.6-20.4,5.4-41.2,9-61.6c2.9-16.2,6.8-32.2,10.8-48.2
		c4.7-19.2,10.7-38.2,17.8-56.7c6.5-16.7,16.2-31.3,27.8-44.7c1.3-1.3,2.7-2.5,4.3-3.4c4.3-2.8,7-2.1,9.3,2.5
		c11,22.6,24.2,44,37.5,65.3c10,15.8,18.6,32.2,26.9,48.9c10,19.9,19.3,40.2,28.8,60.3c1.9,4.1,3.3,5.9,8.8,3.7
		c25.1-9.6,51.5-15.3,78.3-16.8c18.8-1.2,37.6-1.4,56.4-1.6c13.2-0.1,25.5,4.4,38,7.6c3.8,1,8.2,4.4,11.1,2.7c2.1-1.2,1.4-7,2-10.7
		c2.6-15.2,8-29.5,12.9-44c11.1-32.9,25.8-64.2,42.1-94.8c3-5.7,5.9-11.6,9.2-17.1c7.6-12.4,13.9-9.7,21.4-1.3
		c13.3,14.5,21.5,32.1,29.3,49.8c4.4,9.9,9.8,19.3,14.8,28.8c9.2,17.8,16.9,36.2,23.1,55.2c5.6,16.9,10.7,34,13.8,51.5
		c2.5,14.2,4.7,28.5,8.3,42.6c1.6,6.1-0.1,12.6,0.8,18.9c1.7,12.6,6.7,24.4,9.2,36.8c2.1,10.4,5.8,20.6,6.9,31.1
		c2.3,22.1,12.4,42.1,16.2,63.7c4.5,26.2,17.7,49.5,25.3,74.6c4.2,14.2,7.3,28.7,9.3,43.4c1.6,11.3,5.3,22.3,7.9,33.5
		c9,39,13.4,78.4,11.7,118.4c-0.8,19.4-11.4,33.7-27,44.5c-16.8,11.7-36.2,17.4-55.6,22.8c-3.5,1-6.4,2.1-8.7,5.1
		c-3.2,4.1-6.8,7.8-10.2,11.6c-2.2,2.4-2.8,5.9-1.5,8.8c1.5,3.8,4.7,6,8,7.9c1.2,0.7,2.2-0.5,2.8-1.5c2.7-4.3,6.5-7.6,10.2-10.9
		c5.8-5.2,9.9-11.6,14.2-17.9c4.5-6.6,10.4-7.4,18.3-3.3c8.2,4.3,11.2,9.8,8.3,17.4c-5,12.9-10.2,25.7-20.7,35.4
		c-3.6,3.3-3.5,8.5-5.5,12.7c-0.2,0.5,0.2,1.7,0.7,2.2c0.9,1,1.8,0.2,2.6-0.4c5.3-3.4,10.8-6.6,16-10.2c4.7-3.2,10-3.9,13.9-1.3
		c5.6,3.8,9,10.9,7.5,16.2c-3.3,11.6-7.9,22.6-15.5,32.2c-1.8,2.3-3.3,5-7.2,4.1c-2.5-0.6-1.7,1.4-1.1,2.5
		c8.3,13.3,13.5,28.2,21.1,41.9c3.2,5.8,8.1,7.7,14.5,9.7c10.8,3.3,22.2,6.1,31.6,12.9c3.8,2.6,6.1,6.9,6.3,11.5
		c1.3,22.3,2.3,44.6-2,66.7c-1.4,7.4-3.4,14.6-6.1,21.6h-4c2.1-7.7,4.5-15.3,6.1-23.1c3.9-19.1,2.7-38.5,2.5-57.8
		c-0.1-12.4-3.2-16.5-14.8-20.7c-8.1-2.9-16.2-6.1-24.6-8.2c-6.3-1.6-10-5.5-12.9-10.8c-2.6-4.8-5.1-9.7-7.5-14.7
		c-4.4-9.4-8.7-18.7-14.1-27.6c-1.3-2.2-2.3-4.6-5.5-4.2s-4.3,2.7-4.9,5.5c-2.1,9.8-5.3,19.5-4.2,29.9c0.6,5.3-0.9,10.7-1.1,16
		c-0.1,3.7-2.8,8.2-4.1,12.5c-0.6,2-0.8,5.7-3.5,5.1c-2.5-0.6-0.4-3.7-0.6-5.8c-0.1-0.8,0.8-1.7-0.2-2.2c-0.3-0.2-1.1,0.6-1.6,0.9
		l-19.4,10.4c-2.6,1.4-5.2,2.4-8,0.5c-6.8-4.6-14.1-8.3-21.8-11c-1.8-0.7-4-1.6-5.1-3c-2.6-3.5-5.6-3.2-9.3-2.4
		c-8.2,1.8-16.5,2.8-24.4,5.9c-0.8,0.3-2.6,0.1-2.7,0.4c-0.3,1.5,1.3,1.7,2.2,2.2c7.7,4.3,15.7,8.2,23,13c3.1,2.3,6.9,3.2,10.6,2.7
		c4-0.5,7.9-0.9,11.9-1.4c10.9-1.4,21.8-2.9,32.8-3.2c0.9,0,1.9-0.4,2.7,0.4c-0.8,0.3-1.5,0.6-2.3,0.8c-12.8,4-26,5.4-39.3,6.9
		c-5.8,0.7-11.6,1-17.4-0.1c-2.2-0.4-2.5-1.2-1.1-1.7c4.4-1.7,0.7-1.9-0.3-2.3c-10.7-4.4-21-9.4-29.6-17.3c-2-1.8-2.4-1.1-3.4,0.9
		c-3.2,6-2.7,11.5-0.3,18c9.9,26.6,22.5,50.9,48.6,65.3c1.9,1.1,3.6,2.4,5.2,3.8c1,0.8,2,1.8,2.9,2.8c0.8,1,1.8,2.2,0.4,3.5
		s-2.4,0.1-3.5-0.7c-4.5-3.5-9.1-6.8-13.5-10.3c-17-13.8-31.2-29.8-39.3-50.6c-1.8-4.7-3.5-9.3-5.3-14c-0.4-0.7-0.8-1.3-1.3-1.9
		c-0.4,0.5-0.7,1-1,1.6c-5.6,14.2-16.2,26-20.2,41.1c-0.5,1.7-1.2,4.4-3.4,4.2c-0.9-0.1,0.1-3.3,0.6-5c5.5-19.7,11.2-39.4,15.7-59.3
		c0.8-3.1,0.7-6.3-0.4-9.3c-1.8-5-3.5-10-5.3-15c-0.3-0.9-0.2-2.3-1.3-2.5s-1.2,1.3-1.7,2.1c-13.6,24.5-31.2,45.9-51.1,65.6
		c-20.4,20.3-44.9,34.9-69.5,49.2c-3.7,2.2-4.1,3.8-2,7.2c1.5,2.4,2.2,5.2,3.3,7.8h-4c-1.5-6-4-11.6-6.2-17.4c-0.8-2-2.8-3.7-2-6.2
		c1.2,1.8,2.4,3.5,3.6,5.3c0.4,0.5,1,0.9,1.4,1.4c0.6,0.8,1,1.1,1.7-0.1c3-5.1,9-6.4,13.4-9.7c1-0.8,3.1-1.2,2.4-2.5
		c-1.4-2.6,0.9-3,2-3.7c5.4-3.6,9-8.8,12.5-14.1c8.2-12.6,14.6-26.2,20.6-39.9c0.7-1.7,2.3-4.1,1.8-4.9c-1.1-1.5-3.2,0.4-5,0.5
		c-1.5,0.1-3,0.6-4.5,0.5c-4.5-0.4-7.4,1.6-10,5.2c-5.5,7.6-13,13.3-20.2,19.2c-1,0.8-2.6,2.5-3.8,1c-1-1.3,1.2-2,2.1-2.8
		c6.7-5.5,13.1-11.4,19-17.7c0.8-0.8,1.9-1.8,1.5-3c-0.5-1.5-2-0.7-3.1-0.5c-10.1,1.3-20.3,1-30.4,0.8c-26.3-0.6-52-4.5-76.9-13.3
		c-1-0.3-2.2-0.2-2.7-1.6c1,0.1,1.9,0.2,2.9,0.3c28,6.2,56.3,10.5,85.1,10.8c8.3,0.1,16.6,1,24.9-0.4c2.1-0.4,3.8-1,5-2.8
		c6.4-10.1,13.2-19.9,17.7-31.2c5.8-14.6,9.5-29.8,14.8-44.5c1.9-5.3,1.6-10.4,0.6-15.7c-0.7-3.6-2.6-4.1-5.7-3.6
		c-20.6,3-41.2,1.3-61.7,0.2c-3.2-0.2-5.7-0.6-5.8,3.6c0,0.8-0.2,2.3-1.5,2.1c-1.1-0.2-1-1.5-1.2-2.5c-0.3-1.7,1.5-4.6-2.1-4.3
		c-5.3,0.4-10.2-1.5-15.2-2.2c-17.4-2.6-34.2-7.9-49.8-15.9c-6.3-3.2-12.5-6-19.9-5.8c-5.5,0.1-11-0.5-16.5-0.8
		c-10.7-0.5-21.2-2.1-31.8-3.3c-5.7-0.7-6-0.1-4.1,5c5,14.3,10.1,28.6,15.2,42.8c2.4,6.8,5.3,13.3,9.7,19.1
		c12.6,16.5,26.5,31.3,46.7,38.6c0.9,0.3,2,0.5,2.1,1.8c0,2.3,0,2.2,1.8,2.8c10.7,3.2,21.4,2,32.2,0.3c1-0.1,1.9-0.1,2.9-0.1
		c-0.4,1.4-1.8,1.2-2.8,1.7c-0.8,0.3-1.6,0.6-2.4,0.6c-13.2,1.4-26.2,3.9-39.4-2.2c-7.7-3.5-15.7-6.3-23.2-10.4
		c-2.2-1.2-4.5-2.2-6.8-3.2c-0.4-0.2-1.2-0.5-1.4-0.3c-0.7,0.6,0.1,1.1,0.4,1.6c3.3,6.2,8.3,11.2,12.8,16.6
		c8.3,9.8,18.7,14.6,31.6,14c1.6-0.1,4.3-1.2,4.7,0.9c0.2,1.2-2.8,1.9-4.6,2.3c-9.7,2.2-19.5-0.1-29.2-0.1c-11,0-20.7-5.7-29.3-12.7
		c-12.7-10.4-22.4-23.2-30.4-37.4c-0.5-0.9-0.8-2.9-2-2.5c-1.5,0.6-0.2,2.3-0.2,3.5c0.1,0.3,0.2,0.6,0.3,0.9
		c7.8,21.7,15.3,43.4,23.3,64.9c8.9,24.6,19.9,48.4,33,71h-5c-3.4-4.6-6.3-9.4-8.8-14.5c-12-22.9-21.3-47-29.4-71.5
		c-5.1-15.5-9.6-31.2-14.4-46.7c-0.3-1.1-0.1-2.8-1.4-3c-1.7-0.3-2,1.6-2.3,2.8c-1.3,5.5-3.6,10.6-3.5,16.5
		c0.2,14.8-1.4,29.6-2.8,44.3c-0.2,2,0.2,4,1.2,5.8c12.9,22,27.8,42.2,48.1,58c3.1,2.4,6.5,4.7,8.4,8.3h-3
		c-7.8-7.4-16.5-14-24.5-21.1c-11.5-10.3-20.8-22.5-28.8-35.7c-0.6-0.9-0.8-2.7-2.1-2.4s-0.5,2-0.6,3.1c-1.3,13.2-2.1,26.5-6.1,39.4
		c-0.2,0.8-0.4,2-1.2,1.9c-1.1-0.1-0.6-1.3-0.6-2c-0.1-3,0-6,0.2-9c1.8-12.3,3.3-24.7,4.5-37.1c1-10.5,1.7-21.2,2.1-31.8
		c0.2-6.5,0.7-13,0.9-19.4c0-1.3,0.8-3.6-1.6-3.3c-5.7,0.8-11.4,2-17,3.1c-1.7,0.3-2,1.4-1.3,3c0.9,1.8,1.9,1.4,3.2,0.4
		c1.5-1.1,3-2.1,4.5-3.1c1.2-0.7,2.9-1.9,4-0.4c1.2,1.7-0.8,2.6-1.9,3.4c-14.1,10.4-28.4,20.3-45,26.5c-5.9,2.2-12.2,3.5-17.7,6.5
		c-6.8,3.8-20.9,2.5-25.5-3.6c-1.8-2.4-3.3-5-4.6-7.6c-3.1-6.3-5.2-13-7.3-19.6c-3.1-9.6-4.4-19.8-9.9-28.7
		c-1.9-3.1-3.3-5.3-7.6-3.9c-6.5,2-9.8,4.4-9.9,8.8c-0.4,19.3-0.7,38.7,0.1,58c0.7,16.4,5.7,31.3,16.3,44.2
		c8.2,10,16.2,20.2,24.4,30.4h-5c-13.9-17.2-30.2-32.9-35.8-55.5c-0.5-1.9-1.2-3.8-1.5-5.8c-3.1-18.5-2.6-37.2-2.3-55.8
		c0.1-5.5,0.3-11,0.6-16.5c0.1-2.7-1.6-5-3.5-5.4c-2.1-0.4-1.7,2.7-2.1,4.2c-3.2,12.6-7.7,24.8-11.5,37.2c-1.4,4.6-2.5,4.8-5.2,1.7
		c-0.4-0.5-1.1-0.7-1.7-0.7c-7.2-0.4-10.8,2.9-10.8,10c0.1,17.6,0.7,35.3-6.6,52c-1.4,3.3-1.7,7.1-2.5,10.7c-1.7,8,0.5,15.9,1,23.8
		L199,1025z M361.1,530.8c-1.5,2.3-1.1,4.8-0.9,7.3c0.7,6.4,1.5,12.9,2.2,19.3c1.5,15.4,3,30.8,4.3,46.2c0.3,3.8,1.5,3.2,3.6,1.3
		c12.8-11.6,12.9-10.7,6.7-25.5c-5-11.6-9-23.7-11.8-36c-0.9-4.4,0-9.5-3.8-13.1c0.4-3.4-0.8-6.4-1.9-9.5c-0.1-0.4-0.6-0.7-0.9-1.1
		c-0.2,0.2-0.6,0.4-0.5,0.5C359.6,523.7,357.1,528.2,361.1,530.8z M533.1,823c-5,1-9.4-1.4-13.8-2.7c-3.7-1.1-8.3-0.2-11.1-3.7
		c-2-2.5-5.2-3.9-8.4-3.7c-5.3,0.2-8.4-2.1-9.9-7.2c-0.8-2.6-2.1-5-5.4-5c-4.5,0-8.4-1.9-12.3-3.9c-4.3-2.1-8.5-4.6-12.5-7.4
		c-0.5-0.4-1.1-0.6-1.8-0.6c-0.6,0.2-0.1,0.7,0,1.2c2.7,6.6,6.1,12.4,13.3,15.1c19.7,7.3,37.7,19.2,59.2,21.5
		c1.7,0.3,3.5,0.8,5.1,1.4c-0.9-1.7-1.8-3.4-2.7-5.2c-0.6-4.2-4.3-4.1-7.2-4.9c-2.7-0.7-5.6-0.9-6.7-4.3c-2.5-7.5-9.9-8.8-15.9-11.7
		c-1.9-0.9-3.8-1.3-5.4-3c-3.2-3.7-6.1-8.7-10.3-10.4c-5.7-2.4-10.9-5.6-16.4-8.3c-4.5-2.2-8.7-4.9-13.5-6.3
		c-2.5-0.7-3.7-0.6-3.2,2.7c0.7,5.1,2.5,8.9,7.7,11.1c6.8,2.9,12.7,8.4,20.3,9c5.4,0.5,8.8,2.6,10.3,7.7c0.9,3.1,2.7,4.5,6.1,4.8
		c4.3,0.4,8.6,1.1,11.5,5c1,1.3,2.7,1.2,4,1.7C520.6,818.7,527.5,819.2,533.1,823z M450,789.1c1.9,1.9,2.5,4.7,4.9,6.2
		c0.7,0.4,1.4,1,2.2,0.6c-0.1-0.6-0.4-1.1-0.6-1.6c-2.4-4.9-4-10.2-4.7-15.7c-1.2-7.6,0.4-9.1,7.9-7s13.9,6.3,20.7,9.9
		c1.8,0.9,3.5,1.7,5.3,2.6c-0.1-2.4-1.8-4.1-2.8-6.1c-0.7-1.2-1.8-2-3.2-2.2c-17-5.2-32.1-13.8-46.1-24.7c-5.9-4.6-12-8.9-17.5-14
		c-10.5-9.7-19.9-20.6-29.5-31.2c-0.6-0.6-1.2-1.1-1.8-1.6c-0.1,0.8-0.1,1.5,0,2.3c4.8,20.7,9.8,41.4,16.1,61.8
		c0.6,2.3,2.4,4,4.7,4.4c14.2,4.1,28.3,8.7,41.4,15.8c1,0.5,2,1.3,3.2,0.3L450,789.1z M365,396c-1.5-1.7-2,0.1-2.5,0.9
		c-1.2,1.8-2.2,3.7-3.3,5.6c-24.5,40.4-44.4,82.8-55.3,129c-3.2,13.6-6,27.4-5.4,41.5c0.4,10.9,2.7,21.6,2.3,32.8
		c-0.6,17,2.2,34.2,3.7,51.3c1.8,21,5.2,41.9,6.5,63c0.1,0.8,0.3,1.5,0.6,2.2c1-0.3,1-1.3,1-2.1c-0.1-7,2.7-14.3-1.5-21
		c-0.2-0.3-0.3-0.6-0.3-0.9c0-0.5,0-0.9,0-1.4c0.3,0.3,0.8,0.6,1,1c0.9,1.8,1.9,3.5,2.6,5.4s2,2.9,4.2,2.4c6.1-1.4,12.2-1,18.4-0.8
		c5.5,0.2,7.9,2.7,7.3,8.2c-0.3,2.7-0.8,5.5,0.1,7.9c4.5,12.7,7.5,26,14.9,37.5c8.4,12.9,15.7,26.6,21.6,40.8
		c1.3,3.2,2.7,2.2,4.4,0.9c4.2-3.3,7.5-2.1,10.7,1.7c3.6,4.3,6.9,9,9.8,13.8c4.6,7.5,5.8,15.4,1.8,23.8c-2,4.4-2.7,9.3-2.2,14.1
		c0.4,5,1,10.3-1.1,14.8c-4.4,9.5-0.9,16.9,5,24c0.4,0.5,0.7,1.1,1.1,1.7c9.1,12.9,19,25,32.5,33.5c6.3,4.2,13.5,6.8,20.9,7.6
		c1.1,0.1,3.1,0.1,3.3-0.3c0.5-1.5-1.3-1.6-2.1-2.2c-11.6-8.5-17.3-21.3-24.7-32.9c-0.5-0.7-1-1.5-0.4-2.3c0.7-0.8,1.8-1,2.7-0.4
		c3.3,1.8,7.3,2.1,10.5,4.5c3.3,2.3,6.7,4.4,10.2,6.3c0.7,0.4,1.5,1.4,2.6,0.7c-0.6-0.5-1.2-1.1-1.8-1.6c-2.1-1.6-4.5-2.9-6.5-4.6
		c-17.4-14.6-30.4-32.2-37.8-54c-9.5-28.4-19.6-56.6-26-86c-3.1-14.5-8-28.6-10.8-43.1c-4.1-21.9-8.8-43.7-13-65.6
		c-4.4-23.4-7.5-46.9-9.4-70.6c-1.3-16.4-1.7-32.9-4.2-49.2c-1.4-9.1-2.8-18.5-0.3-27.8c0.6-2.4,0.8-4.9,0.7-7.4
		c-0.7-21.8-1.3-43.6,1.3-65.3c1.5-12.5,2.1-25.2,7-37.1c-0.1,1.7-0.1,3.3-0.4,5c-5.4,30.5-8.5,61.1-5.2,91.9
		c1.1,9.9,0.5,19.9,3.3,29.6c1.2,4.2,2,4.2,5.3,1.6c13-10.5,27.4-18.4,44-21.6c6.5-1.4,13.3-1.2,19.8,0.4c0.9,0.3,2.6,0.4,2.4,1.3
		c-0.3,1.5-1.9,0.8-2.9,0.7c-4.4-0.6-8.5-1.8-13.1-1.3c-19.5,2.1-35.3,12.1-50.8,22.9c-1.9,1.3-2.2,2.8-1.8,5.1
		c4.1,23.2,12.9,44.9,22.4,66.3c1.3,2.9,3.5,3.8,6,2.8c3.4-1.2,0.1-3.2,0-4.8c0-0.8-0.6-1.8,0.2-2.2s1.5,0.5,1.9,1.2
		c1.2,2.1,1.8,4.5,5,4.8c12.9,1.2,25.8,2.7,38.8,3.1c6.4,0.2,6.5,0.2,4-5.6c-7.1-15.9-11.6-32.7-15.7-49.5
		c-2.6-10.5-4-21.3-4.2-32.1c0-1.1-0.4-2.7,1.2-2.9s1.5,1.5,1.8,2.6c2.1,6.7,2.7,13.8,4.7,20.3c5,15.7,11,31,16.6,46.5
		c0.7,2,1.8,3.7,3.8,4.4c3.7,1.6,7.1,3.7,10.2,6.2c0.6,0.5,1.7,1.1,2.1,0.8c0.8-0.5,0.2-1.5,0-2.3c-1.5-4.9-3.5-9.7-4.6-14.8
		c-3.1-14.8-4.9-29.8-8.9-44.4c-9.2-33.4-11.2-67.6-9.6-102c0.4-7.6,1.4-15.2,2.2-22.8c0.2-1.1,0.6-2.2,1-3.2c0.9,1,0.4,2.2,0.3,3.2
		c-0.5,4.6-1.3,9.2-1.5,13.9c-1.8,46.8,2.3,92.7,19,137.1c7.6,20.1,18.1,38.5,27.9,57.4c0.6,1.3,1.5,3.4,3,2.9s0.5-2.6,0.4-4
		c-0.5-4.3-1.8-8.5,0.4-12.7c1.3-2.4,2.6-2.7,3.8-0.3c1.5,2.8,2.6,5.8,3.8,8.7c1.4,3.3,3.6,5.8,7.5,5.5c14.5-1.4,28.9,1.8,43.4,0.3
		c6.5-0.7,7.1-1.3,6.7-8.1c-0.1-2.4-3.2-5.9,0-7.1c2.8-1,3.2,3.5,4.8,5.4c1.5,1.7,2.5,4.9,4.7,4.6s2.6-3.5,3.6-5.6
		c0.2-0.3,0.3-0.6,0.4-0.9c0.1-0.6,0.5-1.2-0.2-1.8c-0.3,0.4-0.6,0.8-0.9,1.2c-0.9,1.7-1.4,5.2-2.9,4.5c-1.8-0.9,0.2-3.9,0.7-5.9
		c0.7-2.7,1.7-5.4,2.6-8.1c2-5.7,3.7-11.4,6.4-16.8c0.4-0.9,1-2.2,0.2-2.8c-1.1-0.7-1.6,0.8-2,1.5c-2.2,4.5-6.8,6.2-10.3,9.3
		c-0.4,0.4-1.3,0.7-1.7,0.5c-1-0.6-0.5-1.5,0-2.1c0.6-0.8,1.3-1.5,2.1-2.1c9.7-6.9,14.9-16.2,16-28c0.3-3.7,0.5-7.3,0.8-11
		c2.7-30.3,1.8-60.5-0.8-90.8c-0.1-0.7-0.8-1.5,0.3-2.1c0.3,0.6,0.5,1.1,0.7,1.8c1.7,18.1,3.2,36.1,3.2,54.3
		c0,16.6-1.1,33.3-2.5,49.8c0,0.6-0.4,1.5,0.5,1.5c0.4,0,0.9-0.9,1.1-1.4c1.8-3.6,3.4-7.2,5.2-10.8c6.6-13,11.6-26.5,13.9-41
		c0.2-1,1.5-2.1-0.1-3.1c-1.3-0.8-1.3-0.8,0.7-2.1s2.7-3.4,3.1-5.5c3.6-15.6,5.9-31.4,7-47.4c1.4-21.8-2.5-43.5-4-65.2
		c-0.4-6.6-2.3-13.1-3.5-19.7c0-0.8,0-1.6,0.2-2.4c0.4,0.7,0.8,1.5,1,2.2c2.5,12.9,5.7,25.7,6.8,38.9c0.4,4.6,0.2,9.4,2.9,13.5
		c4,6.1,8.1,12.2,12.2,18.2c5.5,7.9,12.2,15.1,16.4,23.8c6.2,12.8,14.6,24.2,21.7,36.4c0.4,0.7,1.3,1.7,1.7,1.5
		c1.2-0.5,0.6-1.7,0.5-2.5c-2.1-17-4.5-34-8.5-50.7c-6.3-26.3-14.6-52-25-76.9c-0.3-0.8-1.2-1.7-0.5-2.7c0.5,0.6,1,1.3,1.4,2
		c18.6,39.3,31.2,80.3,36.1,123.6c1,9.3,0,19.2,7.1,27c1.1,1.2,2.5,4,0.8,4.8c-1.9,1-2.2-2.2-3.4-3.4c-0.9-0.9-0.9-3.2-2.3-2.8
		c-1.4,0.4-0.3,2.3-0.4,3.6c0,0.5,0.1,1,0.2,1.5c1.3,14.8,2.1,29.6-0.4,44.2c-0.9,6.3-1.5,12.7-1.6,19.1
		c-0.5,13.6,0.7,27.4-2.2,40.8c-3,14.1-3.3,28.6-6.2,42.8c-2.5,11.8-3.3,24-4.9,36.1c-2.9,22.4-7.2,44.7-10.9,67
		c-5.8,34.8-11.9,69.5-24.7,102.7c-0.4,0.9-0.7,1.9-0.7,2.9c0.6,15.5-3.7,30.3-7,45.2c-0.8,3.8-4,7.1-2.3,11.4
		c-4.9,2.8-5.6,8.8-7.7,13c-8.7,18-19.1,35-30,51.8c-0.4,0.7-1.4,1.4-0.8,2.1c0.9,1.2,1.8-0.1,2.5-0.6c5-3.9,9.7-8.1,14.8-11.8
		c34.7-25.1,62.2-56.7,83.8-93.4c1.5-2.6,2.3-5.3,1.2-8.1c-3.2-8.5-4.6-17.7-11.2-24.8c-4.2-4.3-5.8-10.5-4.3-16.3
		c1.6-7,3.7-13.8,6.3-20.4c1.8-4.5,4.9-5.9,9.1-4.5s4.6-0.3,4.8-3.9c0.8-12.8,2.9-25.5,6.1-37.9c4.7-18.4,4.9-36.7,2.2-55.1
		c-0.4-2.8-0.1-4.6,2-6.6c3.2-3.1,7.4-3.9,11.3-4.9c13.9-3.8,16-3.9,19.8,11.1c0.2,0.6,0.5,1.7,0.7,1.7c1.3-0.1,0.8-1.2,0.8-1.9
		c-1.1-11.5,0.1-23-0.2-34.5c-0.5-15.2-0.4-30.3-0.4-45.5c0-0.7-0.4-1.5,0.4-2.1c0.1,0.6,0.3,1.3,0.3,1.9
		c2.1,25.2,3.6,50.5,3.9,75.8c0,0.9-0.7,2.3,0.5,2.6s1.4-1.2,1.9-1.9c3.7-5.5,6-11.8,10.4-16.9c10.4-12.1,15.3-26.8,18.7-42
		c0.9-3.8,2.5-7.5,2.5-11.6c0.1-31.5,0.1-63-2.9-94.3c-1.5-15.2-4.1-30.4-7.6-45.3c-0.2-0.7-0.5-1.4-0.8-2.1c-0.3,0.3-0.8,0.6-1,1
		c-3,7.7-9.1,12.4-15.9,16.7c-12,7.5-24.6,13.3-39,14c-7.2,0.3-8-0.8-7.6-8.2c0.4-5.7,1.7-11.2,3.6-16.5c5.3-15.5,14.7-29.4,27.2-40
		c0.9-0.8,3.5-2.6,1.8-2.9c-4.1-0.8-5-4.4-7.6-6.3c-3.6-2.8-7.2-5.8-9.2-9.7c-4.2-8.4-10.2-15.6-14.6-23.8c-3.3-6.2-6-12.7-7.9-19.4
		c-1.7-6.3-2.8-12.7-1.4-19.2c0.8-3.7,2.7-5,6.5-3.5c5.9,2.3,10.4,6.5,15.5,9.9c2.3,1.6,5.8,5,7.4,3.3c2.1-2.2-0.8-5.8-2.4-8.5
		c-7.9-12.6-17.4-24-27-35.3c-27.6-32.6-60.2-58.8-98.7-77.5c-10.1-4.9-20.5-8.8-32-8.1c-24.4,1.3-48.4,4.4-71,14.8
		c-13.1,6-26.9,10.7-38.2,20.1c-22.2,18.7-42.1,39.9-59.4,63.3C376.8,375.9,369.3,384.9,365,396z M704.7,203.6
		c6.5,1.3,13,2.7,19.5,4c0.6,0.1,1.8,0.2,1.8,0c0.3-0.8-0.6-0.9-1.1-1.1c-9.7-2.8-19.5-4.8-29.5-6.1c-12.1-1.5-23.2-6-33.7-11.8
		c-8.7-4.8-18.2-8-26.2-14.2c-2.5-2-4.1-1-4.8,2.1c-1.9,8.3-3.8,16.5-5.9,24.8c-0.6,2.5,0.2,3.6,2.5,4.4c3.3,1.1,6.6,2.3,9.8,3.7
		c13.2,5.7,26.2,11.6,37.8,20.3c0.8,0.6,2.3,1,1.7,2.5c-0.9-0.1-1.8-0.4-2.6-0.8c-16.6-7.8-32.9-16.3-50.6-22.1
		c-8.7-2.9-17.3-6.6-26.2-9.3c-8.3-2.5-16.6-5.1-25.4-5.1c-12,0-23.9-0.3-35.8,1c-13.4,1.4-26.9,1.9-40.3,3.8
		c-28.8,4.1-56.8,11.5-83.3,23.7c-0.9,0.4-1.8,1.7-3.1,0.7c0.8-0.8,1.7-1.5,2.6-2.2c4.7-2.6,9.4-5,14.2-7.4c1.8-0.9,3.1-1.7,1.8-4.1
		c-7.7-15.1-15.3-30.3-22.9-45.6c-1.1-2.3-2-2.3-3.4-0.3c-3.9,5.6-9.6,9.2-15.3,12.6c-15.2,9-30.5,17.8-45.6,26.9
		c-23.7,14.2-49.4,22.9-75.4,31.2c-2.4,0.8-4.1,1.6-5,4.2c-1,2.8-1.9,5.7-2.4,8.6c-2.1,12.8-4.1,25.6-6.4,38.4
		c-4.6,25.6-6.9,51.5-8.8,77.4c-1,13.3-0.9,26.6-1.6,39.9c-0.6,11.3-1.6,22.6-0.8,33.9c0.3,3.9,0.8,8.6-0.9,11.8
		c-4,7.6-7.1,15.7-9.2,24c-3.2,11.5-6.2,23.1-9.3,34.7c-12.4,46.6-21.2,93.9-22.5,142.2c-0.5,17.2-2.2,34.5,1.4,51.7
		c4.3,20.6,8.5,41.1,17.3,60.3c5.6,12.2,16.2,19,27.8,23.6c6.3,2.5,13.5,3.3,20,5.8c3,1,6.1,1.8,9.2,2.3c1.3,0.3,3.3,0.4,2.8-1.4
		c-1.4-5.1-3.3-10.1-5-15.1c-0.2-0.4-0.5-0.8-1-0.9c-9-1.1-12.9-7.8-16.3-14.9c-2.8-5.9-5.3-11.9-7.9-17.8c-0.9-2.1-1.3-4.3-0.1-6.3
		c4.3-7.4,8.9-14.5,18-16.9c3.2-0.8,5-1.1,6.1,3c0.8,2.9,3,5.6,5,8c7.4,9,15.7,17.2,22.2,27c1.2,1.4,2.5,2.6,4.1,3.6
		c4.4,3.3,8.7,6.8,11.6,11.5c0.5,0.8,0.8,2,2.2,1.5c2.5-0.9,5.3-1.9,6.4-4.4s1-5.2-1.6-7.2c-2-1.5-2.7-3.7-3.2-6
		c-3.2-13.9-6.4-27.8-10-41.6c-4.8-18.3-6.1-37.4-7.6-56.3c-1.6-21.4-2.9-42.9-3.8-64.3c-1-23.6,0.6-46.9,6.2-69.9
		c13.9-57,40.9-107.8,74.5-155.4c15.6-22,34.1-41.3,53.6-59.8c8.1-7.7,16.9-14.9,27-19.5c25.2-11.4,50.5-22.5,78.9-23.6
		c11.1-0.5,22.4-2.9,33.2,0.7c12.3,4.1,24.5,8.8,35.8,15.2c41.1,23.2,74,55.2,100.8,93.8c4.6,6.6,9.3,12.9,9.7,21.3
		c0.1,2.5,2.3,3.9,4.2,5.3c2.4,1.8,5.3,3,6.7,5.8c4.3,8.6,8.8,17.2,13,25.9c0.9,1.9,1.9,3.9,1.4,6.1c-2-0.8-2.3-3-3.5-4.5
		c-0.4-0.5-0.9-0.9-1.4-1.3c-0.1,0.6-0.3,1.4-0.1,1.9c1.1,2.6,2.4,5.1,3.5,7.7c19.4,44.6,29.1,91.2,30.3,139.7
		c0.5,21.5-0.8,43-1,64.5c0,4.5-0.3,9.1-1.7,13.3c-5.1,15.2-13,29.2-21.7,42.5c-3.3,5.1-6.8,10.3-11.7,14.2
		c-1.8,1.5-1.9,3.3-1.9,5.4c0,10.7-0.1,21.3,0.1,32c0.1,3.5-1.3,6.8-0.9,10.4c0.3,3.2,2.7,3.4,4.8,4c1.8,0.5,4,0.6,4.6-1.7
		c2.3-9.4,9.8-16.2,12.8-25.3c3.9-11.7,10.6-22.5,12.3-34.7c0.8-5.8,3.5-5.6,7.4-5.7c5.4-0.1,9.7,3.2,14.6,4.8
		c5.4,1.8,8.2,5.5,7.8,11.2c-0.4,5.5-1.1,10.9-1.7,16.4c-0.5,3.6-2.7,9.2-1.3,10.4c2.8,2.2,6.9-1,10.5-2
		c18.7-5.2,37.2-10.8,53.2-22.3c14.2-10.2,23.2-23.6,24.1-41.7c0.9-19.3-1-38.6-2.1-57.9c-2.1-34.5-9.6-68.1-17.1-101.7
		c-3.5-15.7-9.2-30.9-14.3-46.2c-3.5-10.2-7.9-20.1-12.3-29.9c-3.6-8-5.5-16.7-8.9-24.9c-0.7-1.8-2.2-3.4-1.8-5.5c2.2,1,2,3.5,3,5.2
		c0.5,0.9,0.2,2.4,1.8,2.5c-0.1-1-0.2-1.9-0.4-2.9c-4.8-16.3-8.3-32.9-12.7-49.3c-7.6-29-13.3-58.4-18.9-87.8
		c-1.2-6.5,0.5-13.6-1.2-19.9c-3.9-14.5-7.2-29.1-10.1-43.7c-0.2-2-1.6-3.8-3.5-4.4c-12.3-4.3-25.2-4.6-37.9-4.1
		C730,210.8,717.3,207.6,704.7,203.6z M675.3,541.5c-0.3-5.6-0.4-9.6-0.7-13.6c-0.3-4.9-1.2-9.5-5.6-12.7
		c-15.3-11.5-31.7-19.5-51.7-17.1c-5.4,0.7-8.6,2.4-9.6,8.2c-3.5,19.6-12.2,37.2-21.2,54.7c-2.2,4.1-3.7,8.5-4.5,13.1
		c-2.1,12.1-4,24.4-9.3,35.6c-3.2,6.6-3.5,6.5-9.2,2.2c-0.7-0.5-1.7-2.1-1.5,0.1c0.5,6.6-4.5,6.1-8.3,6.5
		c-13.5,1.3-26.9,0.6-40.4,0.3c-7.9-0.2-13.2-2.5-15.4-10.3c-0.2-0.7-0.3-1.9-1.5-1.5c-0.4,0.1-0.5,1.5-0.5,2.2c0.1,4,0.3,8,0.4,12
		c0,1.2,1.2,2.8-0.3,3.7c-1.8,1-2.6-1-3.6-1.9c-6.8-6.3-9.8-15-14.3-22.7c-7.1-12.3-13.5-24.9-17.5-38.6c-0.3-0.6-0.6-1.2-1-1.7
		c-0.9,0.6-0.4,1.5-0.3,2.1c1.5,6,3,11.9,4.5,17.9c1.6,6.6,3.9,13.1,6.1,19.5c0.6,1.8,1.3,4-0.5,5.7s-10.9,0.1-12.3-1.8
		c-6.3-8.8-12-18-15.4-28.4c-3.3-10.1-6.9-20.2-10.4-30.2c-0.3-0.6-0.6-1.2-1-1.7c-0.1,0.6-0.1,1.3,0,1.9c3.8,15,7.8,30,13.5,44.4
		c2,5,2.8,11.2,8.6,14c0.9,0.4,0.8,1.3,0.5,2.2c-0.3,0.8-1.2,1.2-2,1.1c-2.5-0.1-5-0.2-7.5-0.3c-0.6,0-1.4-0.4-1.6,0.5
		c0,0.2,0.6,0.7,1,0.8c8.9,2.9,11.8,11.2,16.1,18.2c8.9,14.4,8.4,39.4-15,49.3c-5.2,2.2-10.1,4-16.2,1.2
		c-14.1-6.6-21-18.9-25.4-32.5c-4-12.2-5.6-25-1.9-37.9c0.3-1,0.7-2.3-1-2.9c-4.7-1.6-13.7,2.6-15.4,7.5c-3.8,11.5-5,22.8,3.2,33.2
		c1.4,1.8,2.8,3.8,4.1,5.7c0.7,1,2.5,2.1,1,3.2c-1.4,1-2.3-0.9-3-1.8c-2.8-3.9-5.6-7.9-8.3-11.9c-4.1-6-12.2-9.6-11.2-18.7
		c0-0.3-0.6-1-0.9-0.9c-0.9,0-1,0.8-0.9,1.5c0.1,1,0.2,2,0.4,3c2.9,13,5.8,26,7.9,39.1c2.8,17.8,4.8,35.3,19.8,49
		c12.7,11.6,23.6,25.2,38.3,34.9c6.4,4.3,13.8,6.9,20,11.1c14.4,9.8,31.2,14.2,46.3,22.4c1.3,0.7,3.2,2.1,4.5,0.6
		c1.1-1.2-0.3-2.8-0.8-4.2c-3.5-10-3-19.6,3.9-27.8c6.1-7.3,13.5-13,23-16.1c14.5-4.7,18-3.6,29.3,7.3c3.3,3.2,3.7,9.7,10.5,8.8
		c0.3,0,0.8,0.6,1.1,1c4.9,5.5,9.6,11.3,11.4,18.5c1,4,2.2,2.8,4.5,1.5c21.5-12.7,41.7-27,58-46c3.3-3.9,8.2-7,9.2-12.2
		c3-17,5.4-34.2,8.2-51.2c0.5-2.7-2.5-3.2-2.5-4.5c0-1.6,3.8-1.1,3.7-4.2c-0.1-2.9,0.9-5.9,1.3-8.8c0.1-0.8,0.1-1.6,0.2-2.4
		c-1.5,0-1.1,1.3-1.5,2.1c-3.7,6.3-5.9,13.7-14.2,16.5c-5.2,1.7-10.2,0.7-15.3,0.8c-10.8,0.1-24.3-9.8-27.2-20.3
		c-3.1-11.1-3.6-22.8-1.4-34.1c0.2-1,1.4-2.3,0.2-3.2c-1.2-0.7-2.8-0.4-3.7,0.6c-3.8,3.5-8.3,2.9-12.8,2.2c-3.4-0.5-4.1-1.8-2.1-4.9
		c6.2-9.7,14.5-18,24.2-24.2c12.9-8.5,27.2-13.9,41.3-19.9c0.9-0.4,2.1-1.2,2.7-0.1c0.8,1.5-0.8,2-1.7,2.4c-3.5,1.6-7,3.1-10.5,4.8
		c-0.8,0.4-2.2,1.4-2.1,1.8c0.4,1.7,2,0.9,2.9,0.7c8.2-1.7,16.7-1,24.5,2.1c2.4,1,2.7-0.9,3.2-2.5
		C675.1,556.9,676.4,548.5,675.3,541.5z M344.2,750.8h1c-0.7,3.9-1.2,7.9-2.2,11.7c-0.9,3.4-8.1,7.3-11.1,5.6
		c-5.2-2.9-6-0.3-7.4,3.9c-2.5,7.3-8.7,12-15.5,2.3c-1.5-2-3.2-3.8-5.1-5.4c-8.7-7-15-15.9-21.7-24.6c-1.5-1.9-1.9-4.5-4.2-5.8
		c0.1,2.6,1.4,4.7,2.5,6.9c3.5,6.6,5,14.1,4.5,21.6c-0.3,4-1.4,7.8-6,8.7c-3.4,0.7-2.6,2.2-1.7,4.5c3.2,8.2,5,16.4-1.7,24
		c-0.3,0.4-0.6,0.8-0.8,1.2c-0.5,1.2,0.4,3.7-1.9,3.3s-0.6-2.8-1.4-4.3s1-3,1.7-4.4s0.6-2.7-1.2-2.9c-7.6-1.2-14.5-4.9-22.3-5.3
		c-0.8,0-1.6-0.9-2.2,0c-0.2,0.2,0.7,1.4,1.3,1.9c6.2,5.1,11.4,11.3,15.3,18.3c3.6,6.3,2.9,10.5-2.7,15.3c-1.2,1.2-2.6,2.1-4.1,2.8
		c-3.2,1.1-3.1,2.9-1.7,5.3c1.9,3.5,2.8,7.2,1.8,11.1c-1,3.7-3.2,4.3-6.2,1.8c-1-0.6-2.1-1.1-3.2-1.3c-0.4-0.1-0.9-0.1-1.4-0.1
		c0.3,0.4,0.6,0.7,0.9,1c5.4,4.3,8.8,10.3,13.5,15.3c2.5,2.6,4.8,6.9,3.5,9.4c-2.7,5.3-0.4,7.4,3.4,9.7c0.3,0.2,0.5,0.4,0.7,0.7
		c6.7,10.8,16,19.9,19,33c1.3,5.6,4,11.5,9.5,14c7.8,3.6,16.4,5.4,25,6.7c1.3,0.3,2.7-0.4,3.3-1.6c4.6-7.9,12.1-12.7,19.3-17.8
		c1.5-1.1,3.6-1.6,4-3.8c-2-0.1-3,1.9-4.8,2.2c-0.2,0.1-0.3,0.1-0.5,0.2c-1,0.5-2.3,1.4-3.2,0.2c-1-1.4,0.3-2.5,1.3-3.3
		c3.6-2.7,7.4-4.9,12.2-4.9c9,0,17.8-1.9,26.7-3.1c6.4-0.8,9.2-3.9,10.3-10.3c0.4-2.8,1.2-5.5,2.5-8.1c4.9-9.4,7.3-19.6,9.3-29.9
		c0.1-0.6,0.1-1.3,0-1.9c-0.3,0.1-0.6,0-0.8,0.2c-0.9,0.9-1.1,3.4-3.1,1c-1.4-1.7-1-3.3-0.2-5.1c1.3-2.9,2.4-5.8,3.6-8.8
		s2.5-5.9,3.8-8.9c-2.4,2-4.8,4.1-7.2,6.1c-6.4,5.3-14.2,8.8-20.7,13.9c-4,3.2-7.2,3.4-11.3,1.2c-1.3-0.7-3.3-1.4-2.7-3.1
		c0.8-2.3,2.8-1,4.2-0.5c2.9,1,6.1,2.2,8.5-0.3c5.1-5.5,11.8-8.6,17.7-12.9c3.4-2.4,6.6-5,9.9-7.6c2.2-1.8,2.4-3.7,1.5-6.6
		c-2.2-6.8-6.1-12.5-10.6-17.9c-4.2-5-6.3-5.1-10.8-0.5c-5.5,5.6-10.8,11.3-16.2,17c-0.7,0.7-1.1,1.6-1,2.6
		c0.4,6.9-1.9,13.5-2.8,20.2c-0.2,1.7-0.5,4.3-2.9,3.8c-2-0.4-2.1-2.9-1.8-4.7c1-6.7,2.6-13.4,4.8-19.8c2.4-7.1,8.2-11.5,12.9-16.9
		c1.3-1.5,2.9-2.6,1.2-5c-6.6-9.8-11.5-20.6-16.3-31.4c-1-2.3-1.6-5.2-4.9-1.9c-0.7,0.8-1.9,1-2.8,0.4c-1.4-1.1-0.3-2.2,0.5-2.9
		c2-1.8,1-3.5,0-5.3c-1.3-2.5-2.3-5.2-3.5-7.7c-3.1-6.5-4.8-13.5-6.3-20.5c-0.1-0.6-0.7-1.7-0.9-1.6c-1.2,0.2-0.5,1.2-0.5,1.9
		C344.2,738.8,344.2,744.8,344.2,750.8z M747.6,908.8c3.2-0.1,6.4,0.6,9.3,1.9c1.5,0.6,3,2,0.5,3c-3.1,1.1-1.7,1.4,0,2.2
		c7.4,3.3,15.5,5.2,21.6,11.1c1.1,1.1,2.3,0.8,3.6,0.1c6.4-3.3,12.7-6.5,18.3-11.2c1.8-1.5,4.5-2,5.3-4.3c2.1-6.1,3.9-12.4,5.7-18.6
		c0.2-0.8,1-2.8-1-2.3c-2.7,0.7-2-1.1-1.8-2.1c2.2-10.1,4.4-20.2,8.6-29.7c1.6-3.6,4.8-6.3,0.2-9.8c-1-0.8-0.5-2.2-0.6-3.3
		c-0.3-9.1,5.3-15.9,9.2-23.3c0.8-1.5,2.9-2.3,2.4-4.5c-1.6,0.8-3.2,1.6-4.8,2.4c-1.2,0.5-1.4,1.5-1.6,2.7c-0.3,2.1-1.8,1.6-3,0.7
		c-4.2-2.9-5.8-8.5-3.7-13.2c1.7-4-0.1-4.1-3.2-3.7c-1.5,0.2-3.6,2-4.5,0.1c-1.3-2.7-3.9-3.5-5.8-5.2c-2.8-2.4-4-5-2.9-8.8
		c2-6.3,3.2-12.9,6.2-19c0.2-0.5,1.1-1.1,0.2-1.6c-0.2-0.1-1,0.7-1.4,1.2c-4,4.3-7.6,8.9-12.2,12.5c-0.5,0.4-1.1,0.9-1.3,1.4
		c-0.2,1.1,1.9,2.6-0.4,3.2c-2,0.5-2.1-1.7-3-2.7c-1-0.9-2-1.7-3.1-2.5c-6.1-4.8-6.8-11.4-6.1-18.5c0.2-1.5,0.7-3.1,2.3-3.6
		c3.3-1,5.1-3.7,7.1-6.1c1.3-1.5,3.5-2.3,3.7-4.8c-2.4,0.7-4.7,1.6-6.2,3.9c-0.8,1.3-1.7,2.5-2.7,3.6c-1,1.2-2.4,1.9-3.9,1.9
		c-6.3,0.1-10.1-3-12.5-8.8c-3.3-7.9-2.8-15.9-1.4-24c0.2-0.9,0.6-2.4-0.4-2.6c-1.3-0.3-1,1.4-1.3,2.2
		c-4.7,15.9-12.5,30.4-20.3,44.9c-0.6,1.2-1.3,2.3-2.8,2.6c-4.5,1-11.7-4.5-12.1-9c-0.1-0.9,0.5-2.3-0.6-2.6
		c-0.6-0.2-1.6,0.9-2.4,1.5c-2,1.6-3.5,3.8-6.7,4c-7,0.3-11.1-2.3-13.2-9.4s-3.8-14.1-5.8-21.2c-0.3-1,0.1-3.1-1.1-2.8
		c-1.4,0.3-0.5,2.3-0.4,3.4c1.2,9.8,1,19.6-0.6,29.3c-0.4,2.3-0.7,4.2,1.8,5.4c0.9,0.4,1.8,1.3,1.2,2.4c-0.5,0.9-1.7,1.2-2.6,0.7
		c-4.2-1.5-4,1.7-4.1,4c-1,10.4-2.6,20.8-5,31c-1,4.8,0.5,6.5,4.2,8.8c5.3,3.2,11.8,4.6,15.4,10.4c3.4,5.5,6.3,11.3,9.7,16.9
		s-2.6,16.7-9.3,16.7c-6,0-13-0.2-17.9-3s-10.4-3.9-15.1-7c-0.7-0.4-1.3-1-2.2-0.7c0.3,0.7,0.6,1.4,1,2.1c3.7,5,9.6,8.9,7.3,16.6
		c-0.1,0.4,0.3,0.9,0.5,1.4c2.1,4.9,4.9,9.5,8.2,13.6c4.8,5.8,9.2,11.8,13.1,18.2c4.3,7,7.9,8.9,16.1,7.3
		C728.7,912.4,738.1,910.6,747.6,908.8L747.6,908.8z M262.2,228.6c-0.6,3.6,0.9,4.6,4.2,3.6c1.3-0.4,2.6-0.5,3.9-0.9
		c19.1-7.6,39.3-12.6,57.3-23c11.5-6.6,23.1-13.2,34.7-19.6c10.4-5.8,20-12.9,30.4-18.8c3.3-1.9,5.4-6.2,8.5-9.1
		c1.4-1.3-0.1-3.2-0.8-4.6c-2.9-5.8-5.7-11.7-8.7-17.4c-13.6-25.9-27.5-51.7-44.3-75.8c-0.9-1.2-1.7-2.5-2.2-3.9
		c-2.5-9.3-8.5-16.9-12.3-25.5c-1.3-3-3.5-3.4-6-1.8c-1.6,1-3,2.1-4.2,3.5c-9.4,10.2-17.1,21.8-22.8,34.4
		c-8.4,18.6-14.3,38-19.5,57.6c-3.1,11.5-6.5,22.9-8,34.9c-0.9,7.1-2.9,14.3-4.6,21.4c-2.6,11.2-0.7,22.9-3.7,34.1
		C263.1,221,262.9,224.8,262.2,228.6z M782.7,209.3c-0.2-0.7-0.4-1.7-0.7-2.6c-3.3-13.1-7.1-26-11.1-38.9
		c-10.9-35.1-28.2-67.5-44.1-100.5c-5.6-11.6-12.1-22.6-20.9-32.1c-7.1-7.6-11.8-7-17,2.1c-15.3,27.1-28.2,55.5-38.6,84.8
		c-5.2,14.6-10.6,29.1-15.8,43.7c-0.7,1.9-2.5,4.2,0.7,6.1c13.4,7.7,26.8,15.6,41.5,20.6c17.6,6,36.3,8.1,54.2,13.3
		c3.1,1.1,6.4,1.7,9.8,1.9c13.3,0,26.6,0.2,39.5,3.7C781.8,211.8,782.8,211.6,782.7,209.3z M751.8,493c-1.7-10.1-5.6-23.2-10.6-35.9
		c-3.6-9.1-6.5-18.5-9.3-27.9c-2.5-8.1-4.4-16.8-12.2-22.2c-1.5-1-3.2-1.5-4.6-2.5c-7.7-5.4-15.2-11-23.1-16c-4.9-3.2-6.5-2.1-6.7,4
		c-0.3,8.7,2.4,16.7,5.8,24.6c4,9.2,9.4,17.6,14.8,26c5.9,9.1,12.3,18.3,23.3,22.2c0.5,0.2,2.7,1,0.7,1.6c-6.8,2-9.3,8.4-13.5,12.8
		c-11.7,12.6-19.1,27.5-21.2,44.8c-0.8,6.4-0.1,7,6.3,5.8c15.7-3,29.9-9.3,42-19.6C747.5,507.2,752.8,503.4,751.8,493z M505,765.7
		c1.9,8,1,18.3,13.2,20.5c1.7,0.3,3.1,1.8,4.8,2.6c10.8,5.2,21.6,8.4,32.9,0.7c7.1-4.9,14.9-8.8,22.4-13.1c2.5-1.4,2.8-3.2,2-5.8
		c-2-5.8-4.9-11.3-8.5-16.3c-1.3-1.8-2.3-3-5.2-2.4c-3.5,0.7-5.7-1.9-5.9-5.3c-0.1-2.2-1.1-4.2-2.8-5.5c-7.8-6.8-16.2-10.5-26.4-5.3
		c-2.5,1.3-5.4,1.9-7.8,3.4C514,745.1,506.4,752.8,505,765.7z M548.7,830.8c2.7,0.5,2.8-2.2,3.5-4.4c2.6-8.2,6.2-14.6,16.7-14.8
		c5.2-0.2,10.1-2.8,13.1-7.1c2.4-3.8,5.8-6.9,9.8-8.9c4.3-2.1,7-5.3,7.6-10.3c0.4-5.3,1.5-10.6,3-15.7c0.2-0.7,0.4-2,0.1-2.3
		c-0.9-0.8-1.8,0.3-2.6,0.7c-6.9,4.2-13.7,8.5-21,12.1c-8.3,4.1-16.2,9.2-24.3,13.8c-4.8,2.7-10.4,3.7-15.8,2.8
		c-11-1.5-20.3-7.4-30.7-10.4c-6.1-1.7-12.3-3.2-17.9-6.2c-0.8-0.4-2.4-1.2-2.6-0.9c-0.9,1.2,0.4,2.1,0.8,3.1s1.5,1.6,2.6,2.1
		c5,2.1,9.5,4.9,10.8,10.8c0.2,1,0.6,2.5,1.5,2.3c5.5-0.9,7.8,4.4,12,6c3.6,1.2,6.3,4,7.4,7.6c0.6,2,1.7,3.2,3.8,3.4
		c6.3,0.5,9.9,4.3,12.9,9.7C541,827.1,543.3,830.7,548.7,830.8L548.7,830.8z M672.8,510.8c0.1-3.3-0.8-6.6-2.6-9.3
		c-3.6-5.6-7.2-11.2-10.5-17c-11.9-21-23.2-42.2-37.6-61.6c-1.1-1.5-2.2-2.8-3.4-4.2c-1.5,1.6-0.6,3.5-0.4,5.1
		c2.5,23.7-2.5,46.6-6.8,69.6c-0.6,3.2-0.1,3.9,3,3.2c21.2-4.7,39.3,2,55.4,15.6c0.7,0.6,1.3,1.9,2.4,1.5
		C673.6,512.9,672.7,511.4,672.8,510.8L672.8,510.8z M613,621.8c-0.4,10.6-1.6,19.4,7,25.2c0.5,0.5,0.8,1.1,1,1.7
		c2.1,6.4,6.7,8.6,13.1,8.2c3-0.1,6,0,9,0.2c2.6,0.1,4.7-0.8,6.9-2.2c5.1-3.1,6.7-9.3,11.6-12.6c0.8-0.5,2.4-2.8,0.7-3.7
		c-2.9-1.5-1.6-1.8,0.2-2.5c1.5-0.5,0.8-0.8-0.1-1.3c-2.2-1.2-1.3-2.9-0.2-4.2c1.5-1.8,1.5-3.9,1.7-6.1c0.3-5.7-0.5-11.3-1.3-16.9
		c-0.9-6.6-3.1-13-6.2-18.8c-1.4-2.6-4-6.3-6.2-5.6c-4,1.2-7.1-0.5-10.6-0.9s-7,0.5-9.9,2.5c-0.5,0.3-1.2,0.8-1.3,1.3
		c-0.1,0.8,0.9,0.7,1.4,1c1.1,0.5,3.5,0.3,3.1,1.4c-0.4,1.5-2.6,0.7-4,0.6c-0.6,0-1.3-0.5-1.9-0.6c-2.6-0.4-3.9,1.4-5,3.3
		c-0.7,1.3-1.3,3.1,0.1,4.1c1.9,1.5,3.8,0.3,5.4-0.9s3.9-1.8,5.3-3.7c0.6-0.9,1.8-0.6,2.7-0.1c0.3,0.3,0.4,0.8,0.3,1.2
		c-1,4.5-10.8,9.1-14,6.1c-3.8-3.5-4.4-0.6-5.2,1.9C614.2,608.2,612.7,615.9,613,621.8z M641,769.5c-3.5,6.2,2.4,12.6,0.3,19.5
		c-0.9,3-0.4,3.2-3.2,1.7c-1.4-0.7-1.7,0.4-2.3,1c-11.5,11.3-25,19.8-38.7,28.1c-5.5,3.3-11,6.8-17,9.4c-1,0.4-2.4,0.8-2.2,2.3
		c0,0.2,1.8,0.3,2.7,0.3c5.2-0.1,10.3,0,15.5-0.3c9.4-0.6,19,1.3,28.3-1.2c1.4-0.4,2.8-0.3,3.7,0.8c2.8,3.5,3,0.5,3.8-1.4
		c7.3-16,9.5-33.1,12.2-50.2c2.8-17.8,6-35.4,9.1-53.1c0.2-0.9,0.3-1.8,0.2-2.8c-1.5-0.4-1.7,1.2-2.4,2c-3.3,3.7-6.2,7.9-9.9,11.2
		c-9.5,8.6-19.5,16.7-30,24c-3.2,2-5.1,5.4-5.2,9.1c-0.3,2.5-0.8,4.9-1.4,7.3c-0.2,0.9-1,2,0.2,2.6c0.9,0.4,1.2-0.9,1.7-1.5
		c2.9-3.9,5.5-7.9,8.6-11.6c2.5-3.1,5.6-4.8,10.1-3.7s11.4-3.7,12.8-8.1c1.6-5.1,3.2-10.2,5-15.2c0.7-1.8,0.9-5.3,3.2-4.7
		c1.7,0.4,0.1,3.6-0.3,5.4C643.7,749.8,638.1,758.6,641,769.5L641,769.5z M668,844.9c-1.3,3.5,1.7,5,5.3,6.4
		c10.2,4.1,21.2,5.5,31.2,10.3c4.2,2,11.1-4.1,9.1-8c-4.7-9-5.8-20.5-17.2-25.3c-5.5-2.3-10.1-6.4-15.8-8.5
		c-3.6-1.3-5.9-0.8-7.5,3.1C670.3,829.9,668.6,837.3,668,844.9z M340,720.7c0-3.3-0.1-6.7,0-10c0-2-0.2-2.9-2.7-2.9
		c-4.3-0.1-8.6,0-12.9,0.5c-8.5,1.1-9.8,3-8.8,11.4c1.3,10.2,3,20.3,3.7,30.6c0.3,4,0.8,8.8,4.2,11.4c4.2,3.1,9.5,4.3,14.5,1.4
		c4.4-2.5,4-7.3,3.5-11.1C340.4,741.5,340.6,731.1,340,720.7z M726.9,750.7c0.1-13-3-25.1-5.7-37.3c-0.6-2.8-2-3.8-4.9-3.6
		c-5.6,0.5-11.2,1.7-16.6,3.5c-3.1,1-3.5,2.7-2.6,5.7c4,12.9,7.8,25.8,10.6,39c2,9.5,9.3,11.3,16.2,5.4
		C728.5,759.5,726.3,754.7,726.9,750.7L726.9,750.7z M457.9,641.3c0-6.1-2.3-11.1-3.9-16.4c-0.2-0.8-0.5-3.1-1.8-1.1
		c-2.8,4.3-8,7.8-4.9,14.3c0.7,1.6,0.6,3.6,0.7,5.4c0.4,6.4-2,10.3-7.9,12.8c-4.8,2-10.1,0.6-13.9-3.9c-2.9-3.3-4.8-7.3-5.5-11.5
		c-0.5-3.5-1.7-6-5.6-6.3c-1.2-0.2-2.3-0.6-3.2-1.3c-1.9-1.1-3.7-2.3-5.5-3.5c-0.5,2.7,0,5.3,0.3,7.9c0.2,2,0.5,4,1,5.9
		c0.3,1.2,0.5,2.7,2.4,2.8c0.8,0,2.1-0.2,2.2,0.6c0.2,1.5-1.4,1-2.2,1.2c-2.7,0.6-2,2-1.1,3.7c1.3,2.6,1.7,3.1,2.6,2.6
		c2.2-1.2,2.4-1.2,2.9,1.2c1.9,9.3,8.2,14.8,16.1,18.9c1.3,0.7,2.8,1.1,4.3,1.2c8-0.3,17-7.5,19.4-15.4c0.6-2.1,1.1-4.1,3.6-4.9
		c0.9-0.3,2.3-1.1,2.3-1.5c-0.1-1.4-1.6-0.3-2.4-0.8c-1.3-0.8-3.5-1.2-1.5-3.4c0.9-1,6.9-1.4,0.1-2.6c-0.8-0.1-0.2-0.8,0.2-0.9
		C460.2,645.2,457.7,642.7,457.9,641.3L457.9,641.3z M839.8,762.4c0.2-2-0.7-4-2.3-5.2c-2.9-2.5-6.2-4.5-9.8-5.8
		c-2.8-1-4.7-0.3-6.2,2.3c-2.6,4.6-5.6,9-8.3,13.6c-4.4,7.5-8.2,15.2-9.7,23.8c-0.3,1.9-1.3,4,0.4,5.7c3.3,3.4,7.8,5.2,12.6,5.2
		c4.1,0,4-3.9,5.6-6.1c0.5-0.7,0.8-1.5,1.3-2.1s1.4-1,1.4,0c0.2,4.1,1.4,1.8,1.9,0.3c3-9.2,8.8-17.1,11.9-26.3
		C839.2,765.9,840,764.3,839.8,762.4z M251.8,826.9c5,0,7.3-3.9,10-7.2c1.3-1.7,0.7-3.3-0.3-5.1c-7.7-13.2-18.8-23.1-31.2-31.7
		c-0.8-0.5-2-1.3-2.7-1.1c-4.9,1.6-7.7,5.7-10.2,9.8c-1.9,3.1-0.8,6.1,1.3,8.8c4.7,6.3,10.6,11.5,15.7,17.4
		c4.3,5.1,10.6,5.8,15.8,8.9C250.8,826.8,251.3,826.9,251.8,826.9L251.8,826.9z M281.9,764.3c0-1,0-2-0.2-3
		c-3-12.2-8.3-23.4-13.7-34.7c-1-2.1-2.5-2.5-4.9-1.4c-4.8,2.1-7,7.1-11.2,9.7c-3.3,2-3.3,4.1-1.8,7c3.5,7.1,7,14.3,10.5,21.5
		c2.6,5.3,5.1,10.2,12.9,9.5C279.6,772.5,281.9,771.2,281.9,764.3L281.9,764.3z M227.1,841.2c-2.4-0.1-4,1.4-4.8,3.5
		c-1.6,4.2-3.8,8.6-0.6,12.8c6.6,8.7,13.4,17.3,22.6,23.6c6.9,4.8,9.8,4.5,14.4-2.8c1.1-1.6,1.5-3.7,2.4-5.4s0.3-3.2-1-4.5
		c-8.6-9-17.4-17.7-27.5-25.1C231.1,842.2,229.4,841,227.1,841.2z M767.1,740.3c0.3,3,0.4,6.3,1.1,9.6c1.2,6,4.3,8.5,10.3,8.7
		c1.2,0.2,2.4-0.3,3-1.3c0.4-0.5,0.4-1.2,0-1.7c-3.1-3.7-3-4.2,1.4-5.4c1.7-0.5,3.2-0.8,3.7-2.8c2.8-9.8,3.5-19.9,5.2-29.9
		c0.3-1.8-0.5-4.5-2.5-3.9c-3,0.9-4.3-1.1-6.2-2.1c-2.5-1.4-5-2.5-7.7-3.3c-3.4-0.9-4.9-0.3-5.5,3.6
		C768.3,721.1,768.4,730.6,767.1,740.3L767.1,740.3z M833.5,855c2.5,0.1,3.8-1.6,5.2-3.4c6.4-8.3,10.5-17.7,14.1-27.4
		c2-5.4,1.1-9.7-2.4-13.8c-4-4.7-7.3-4.5-10.8,0.4c-7.2,10-13.3,20.7-18.2,32c-0.7,1.7-0.5,3-0.1,4.7c1.1,4.8,6.2,3.5,8.6,6.3
		C830.7,854.9,832.2,855,833.5,855z M459.4,804.5c0.2-0.2,1.8,1.1,2.3-0.4c0-0.8-0.3-1.6-1-2.1c-6.2-4.9-11-11.6-19.3-13.6
		c-12.1-2.9-23.9-7.1-35.2-12.5c-0.9-0.4-1.8-1.4-2.6-0.4s-0.1,1.9,0.2,2.8c1.1,3.3,2.2,6.6,3.3,9.9c0.1,0.4,0.1,0.9,0,1.4
		c-0.3-0.3-0.6-0.6-0.9-1c-0.5-0.9-0.8-1.8-1.3-2.7c-0.3-0.5-1.1-1.4-1.2-1.3c-0.9,0.5-0.5,1.4-0.3,2.1c1.2,4.2,2.5,8.3,3.7,12.4
		c0.5,1.9,1.7,2.5,3.6,2.7C426.7,802.5,442.7,803.5,459.4,804.5z M427.9,633c5.5-0.4,11.3-1.2,16.5-4.6c3.8-2.5,6.3-5.6,5.1-10.3
		c-1.2-4.5-6.2-8-11-7.5c-7,0.6-13.9-1.5-20.9-0.5c-0.7,0-1.3-0.3-1.7-0.8c-1.9-2.4-4-3.5-6.8-1.2c-1.2,0.9-1.7,2.1-0.9,3.5
		c1.7,3,3.8,1.9,6.4,1c2-0.7,6.1,0.2,6.1,1.1c0.2,2.5-2.9,2.6-4.9,3.1c-1.5,0.4-3,0.4-4.4,0.1c-2.2-0.5-4.2-0.5-4.7,2
		s-2,5.5,1.1,7.2C414,629.2,420.1,632.8,427.9,633z M618.9,783c4,0.2,16.7-7.4,17.5-10.5c0.7-2.7,1.5-6.2-0.6-8.1s-4.5,0.6-6.5,2
		c-1.4,1-2.9,2-4.6,1.2c-3.1-1.6-5.2,0-6.8,2.2c-5.5,7.3-11.8,14-15.9,22.3c-1,1.9-2.2,4.2-4.3,4.5c-6.3,0.9-10.3,4.6-13.6,9.8
		c-3.4,5.5-9.4,9.3-14.9,9.5c-8.3,0.4-10.7,4.9-13.3,11c-1.8,4.4,0.4,4.8,3.6,5c1.5,0.1,3-0.5,4-1.7c3.3-3.7,7.5-6.6,11.2-9.7
		c5.1-4.2,10.2-8.4,15.2-12.5c7.3-5.9,17.4-9.2,20.3-19.9C611.4,784,615.2,782.3,618.9,783L618.9,783z M636.6,781.3
		c-0.1-1,0.6-2.6-0.6-3.4c-1.5-1-2.3,0.8-3.3,1.5c-3.5,2.8-6.9,5.8-10.3,8.6c-1.1,0.9-2.6,2.7-3.4,0.3c-1.9-5.2-4-1.9-5.4-0.1
		c-1.7,2.2-2.5,5.1-3.8,7.6c-1.1,2-1.6,4.5-4.2,5.3c-7.8,2.5-12.7,9.3-19.2,13.6c-6,4-11.4,9.4-17,14.2c-0.8,0.7-2.6,1.1-2,2.4
		s2.3,0.8,3.1,0.1c6.5-5.4,15-7,21.7-11.8c6.2-4.5,11.7-9.8,18.2-14c8.4-5.5,15.9-12,23.6-18.4C635.8,785.8,636.8,783.6,636.6,781.3
		L636.6,781.3z M671.9,578.5c0.5-3-0.4-5-3-5.9c-3-1.1-6-2-9.3-1.5c-6.4,1-12.8,1.2-19.1-1.1c-3.2-1.2-6.3,0.2-9.5,1.6
		c-5.5,2.3-9.1,7.3-14.6,9.5c-1,0.4-1.7,1.7-3.1,1c0.6-0.7,1.3-1.4,1.9-2.1s2.1-1.8,1.2-2.8c-0.6-0.7-1.8,0.4-2.5,1
		c-7,6.4-15.1,11.5-20.7,19.3c-1,1.3-3.3,2.8-1.9,4.6c1,1.3,3.4,0.9,5.2,0.8c1-0.1,1.9-0.5,2.8-1c7.7-4,14.4-9.8,19.4-16.9
		c2.5-3.6,6.1-5.5,9.5-7.8c0.8-0.6,2-1.7,3.2-0.7c3.2,2.6,6.3,0.6,9.3-0.2c9.2-2.6,17.8-3.4,25.2,4.2c1.2,1.3,2.6,3,4.7,2.2
		S671.4,579.6,671.9,578.5L671.9,578.5z M598.7,931.5c3.8-1,7.3-1.9,10.8-2.9c1.8-0.5,2.6-2,3.2-3.6c4.7-13.2,8.6-26.6,10-40.5
		c0.1-0.9,0.7-2.4-0.3-2.5s-1.1,1.4-1.5,2.3c-4.8,10.8-9.5,21.6-15.4,31.8c-2.4,4.2-5.2,8.1-7.7,12.2
		C596.8,929.6,595.8,931.3,598.7,931.5L598.7,931.5z M309.1,945.8c2.5-0.7,6.2-1.7,9.8-2.8c1.2-0.3,2.7-0.2,3.3-1.7
		c-1-0.5-2.1-0.8-3.3-1c-8.5-0.4-16-4.2-23.9-6.7c-1.8-0.5-3.3-1.8-4.1-3.4c-2.1-3.8-4.1-7.6-6.4-11.3c-2.8-4.6-2-10.7-6.7-14.4
		c-0.8-0.6-0.8-2.6-2.2-2.1c-0.8,0.3,0.2,1.8,0.6,2.7c2.4,6.9,4.9,13.8,7.3,20.6C288.5,939.7,295.7,945.6,309.1,945.8z M357.9,912
		c-2.9-0.2-5.5,1.5-7.6,4c-3.8,4.4-8.2,8.3-12.9,11.6c-3.5,2.6-6.5,5.7-8.9,9.3c-0.3,0.5-0.8,1.5-0.7,1.6c0.6,0.6,1.1-0.1,1.7-0.4
		c10.4-5.9,21.2-11,31.2-17.7c1.8-1.2,3.4-2.2,2.1-4.7C361.9,914,361.5,911.5,357.9,912z M445.8,645.7c-0.4-3.2-0.7-6-1-8.8
		c-0.1-0.5,0-1-0.1-1.5c-0.3-2.2-1.2-2.7-3.4-1.6c-2.7,1.5-1.4,3.3-1,5.1c1,4.5-1.5,9.5-5,10.1c-3.8,0.7-6.6-2.6-6.9-7.9
		c0-0.7,0.1-1.3,0.1-2c0-2.5-2.2-2.4-3.6-2.5c-2.3-0.1-1.4,1.7-1.2,2.9c0.5,4.3,2.4,8.4,5.2,11.7c2.6,3.1,6,4.2,9.8,2.7
		S445.6,650,445.8,645.7L445.8,645.7z M384.2,600.5c-1.1-1.2-2-0.3-2.7,0.5c-2.5,2.4-4.7,4.9-8.5,5.5c-1.6,0.2-3,2-4.3,3.2
		s-1.5,3.9-0.1,4.3c6.1,2,4.3,7.3,5.4,11.4c0.5,1.7,0.1,3.7,2.2,4.6c0.7,0.3,1.5,1.3,2.1,0.6c0.4-0.7,0.5-1.5,0.1-2.2
		c-1.5-1.7-1.9-4-1-6.1c3-6.6,0.8-14.8,6.4-20.6C384,601.4,384,601,384.2,600.5L384.2,600.5z M671.8,593.7c-0.3-2.6,0.7-5.1-2-6.2
		c-3.6-1.5-6.3-4.2-8.9-7.1c-1.2-1.4-3-2.2-4.8-2.3c-1,0-2.2-0.3-2.4,1.1c-0.1,0.9,0.7,1.4,1.5,1.7c6.7,2.3,8.6,8.1,10.8,14
		c3,8.1,3.5,16.5,3.3,25c0,0.7,0.1,1.3,0.1,2c0.2-0.6,0.3-1.2,0.4-1.8C671.4,611,670.2,602,671.8,593.7L671.8,593.7z M697.6,905.2
		c-0.5-0.2-1.1,0.1-1.2,0.7c0,0.1-0.1,0.3,0,0.4c0,3-1.5,5.9-0.6,8.8c0.8,2.6,0.4,5.6,2.7,7.6c1.8-2.1,2-4.8,2.7-7.4
		c0.2-0.8,0.7-1.5,0.8-2.3C702.2,911.4,698.9,905.4,697.6,905.2L697.6,905.2z M695.9,928.5c-0.3-1.1-0.6-2.5-1.1-4
		c-0.1-0.4-0.5-1-0.9-1.1c-1-0.2-0.9,0.7-1,1.3c-1,8.7-4.1,16.8-6.5,25.1c-0.2,0.5-0.6,1.3,0.3,1.5c0.2,0,0.7-0.6,0.9-1
		c1.6-3.8,3.1-7.7,4.6-11.6C693.6,935.5,695.6,932.5,695.9,928.5L695.9,928.5z M464.6,602.4c-0.5,0.1,0.8,0.2,1.3-0.4
		c1-1.2-0.5-2-1.2-2.9c-1.7-2-3.7-3.8-6-5.1c-1.8-1.1-3.2-2.8-5.4-3.3c-0.2,2.6,1.7,4.2,2.8,6C457.8,599.3,458.7,603.2,464.6,602.4z
		 M436,641c-0.3-1.3,1-3.5-1.5-3.9c-2-0.3-2.4,1.3-2.4,3c0,1.9,0.2,4.1,2.4,4.3C436.9,644.6,435.9,642.4,436,641z M694,903.5
		c-0.2-2.5-1.6-4.8-3.8-6.1c-1-0.6-0.9,0.7-0.6,1.1c1.2,2.5,1.2,5.5,3.5,7.3C693.5,906.2,693.8,904.3,694,903.5z M644.8,580.3
		c1.4-1.7,4.3-0.2,5.8-2.2c0.4-0.6-0.9-0.8-1.4-0.6c-2.2,0.6-4.9-0.1-6.5,1.8C642,580,643.7,579.9,644.8,580.3z M667,618.1
		c-0.5-2,0.5-3.9-1-5.4c-1.5,1.7,0.4,3.3,0.1,4.9c0,0.2,0,0.3,0,0.5c0.1,1,0.2,1.9,0.4,2.9L667,618.1z"/>
	<path d="M846,932.4c-0.8,9.4-3.6,17.9-6.7,26.3c-3.3,9-6.3,18.2-10.6,26.9c-0.6,1.2-1.3,3.5-2.8,3c-1.8-0.7-0.9-2.9-0.4-4.4
		c2.6-7.2,5.4-14.3,8-21.5c3.5-10,6.8-20.2,10.3-30.2c0.3-1,0.1-2.9,1.5-2.7S845.6,931.7,846,932.4z"/>
	<path d="M844.2,919.2c-0.2,0.9,0.5,2.2-0.9,2.4c-0.5,0-1.3-0.9-1.7-1.6c-0.8-1.6-1.5-3.3-2.1-5c-4.5-15.3-9-30.6-13.4-45.9
		c-0.3-1.1-1.5-2.8-0.2-3.5c0.9-0.4,1.3,1.6,1.8,2.6c7.7,15.4,12.1,31.9,16.2,48.5C844.1,917.5,844.1,918.3,844.2,919.2z"/>
	<path d="M577.4,918.1c-7.5-0.4-15.2,0.3-22.4-1.4c-13.4-3.2-27.8-14-29.1-32.2c-1.2-17.8,7.5-31,23.7-35.9
		c5.7-1.7,11.5-3.1,17.3-4.6c9.1-2.3,16.7,1,23.6,6.5c11.4,9.2,17.2,21.4,18.4,35.8c0.2,2.8,0.4,5.7-2.1,7.9c-1.3,1.1-1.5,3-1.7,4.6
		c-2,12.4-9.6,18.9-22.3,19c-1.8,0-3.7,0-5.5,0L577.4,918.1z M604.1,884.9c0-14.5-12-31.9-25.5-37.2c-2.7-1-5.3-1.8-8.3-1.2
		c-4.5,1-9.2,1.6-13.7,2.7c-12.6,3.2-23.9,8-26.2,23.1c-0.8,4.9-0.9,10-0.2,14.9c2.1,14.6,19.1,28.3,33.7,27.2c4-0.3,8-0.6,12-0.7
		C592.9,913.5,604.1,902,604.1,884.9L604.1,884.9z"/>
	<path d="M545.4,981.5c1.2-12.4,2.5-24.8,3.8-37.2c0.2-1.1,0.6-2.2,1-3.2c1.4,0.9,0.8,2.3,0.7,3.4c-0.4,15-1.7,29.8-3.2,44.7
		c-0.3,1.3-0.6,2.5-1.2,3.7c-1.4-1-0.8-2.6-0.9-4c-0.1-2.5,0-5,0-7.5L545.4,981.5z"/>
	<path d="M759.2,213.9c-4-0.5-9.3-1.2-14.5-1.9c-0.5-0.1-1.3,0.2-1.4-0.7c0.5-0.1,0.9-0.2,1.4-0.2c6.6,0.7,13.1,1.3,19.7,2
		c0.5,0.1,0.9,0.2,1.4,0.4c-0.4,0.2-0.9,0.3-1.4,0.4C763.1,214,761.8,213.9,759.2,213.9z"/>
	<path d="M740,766.6c-0.8,1.4-2.3,2.3-3.9,2.4c-0.8,0.1-1.1-0.7-0.8-1.4c0.7-1.6,2.2-1.7,3.6-2.1C739.6,765.3,740.1,765.6,740,766.6
		z"/>
	<path d="M743,562c0.6,28.3-3.4,56.1-9.2,83.7c0,0.2-0.1,0.3-0.1,0.5c-0.6,1.1-0.1,3.4-1.5,3.2s-0.8-2.2-0.7-3.4
		c0.8-7.6,1.5-15.3,2.6-22.8c4.1-25.8,6.5-51.9,7-78c0-1.2,0-2.3,0.1-3.5c0.2-1.6-0.6-4.3,0.9-4.4s0.8,2.8,0.8,4.3
		C743,548.3,743,555.2,743,562z"/>
	<path d="M593.9,490c0.5,14.8-1,32.8-4,50.6c-0.3,1.5,0,3.2-1.6,4.3c0-1.5-0.2-3-0.1-4.4c1.6-19.2,3.9-38.4,3.6-57.8
		c-0.2-21.8-1.7-43.6-4.4-65.2c-0.1-1.1-0.1-2.3,0-3.4c1.1,0.8,0.8,2,1,3.1C592.2,440.1,593.8,463.3,593.9,490z"/>
	<path d="M423.6,505.4c-1.2,0.3-1.6,0.5-2.1,0.6c-6.4,0.8-12.7,2.1-19,3.6c-0.6,0.2-1.2,0.6-1.8-0.2c0.4-0.3,0.8-0.5,1.3-0.7
		c6.2-1.8,12.4-3.6,18.9-3.6C421.6,505.1,422.2,505.2,423.6,505.4z"/>
	<path d="M688.7,579.5c0.2,0.7-0.1,1-0.8,0.8c-0.6-0.3-1.2-0.6-1.7-1c-2.1-1.7-5-2.6-6.3-5.3c0.3-0.1,0.7-0.4,0.8-0.3
		c2.6,1.8,5.1,3.6,7.6,5.5C688.5,579.2,688.6,579.3,688.7,579.5z"/>
	<path d="M417.4,588c-1.1-0.5-3.2,0.7-3.4-1.6c-0.1-1,1.1-1.2,1.9-0.9c1.5,0.4,3.5,0.5,4.1,2.1C420.2,588.2,418.4,587.9,417.4,588z"
		/>
	<path d="M420.9,597.5c-1.2-1-3.7,0.5-4.4-1.8c-0.1-0.5,1.5-0.5,2.2-0.2c1.5,0.5,3.6-0.1,4.4,1.7
		C423.3,597.8,421.8,597.4,420.9,597.5z"/>
	<path d="M342,875.5c1.7-7.2,4.2-13.9,9.8-18.9c1.4-1.2,2.9-2.4,4.9-2.2c1.5,0.2,2.9,1.5,1.2,2.6c-6.9,4.7-9.2,12.5-13.2,19.1
		c-0.5,0.8-1,2-2.2,1.5C342,877.5,342.1,876.2,342,875.5z"/>
	<path d="M331.1,841.9H330c0-0.4-0.1-1,0.2-1.3c5.2-5.4,11.6-9.2,18.1-12.9c0.3-0.2,0.9,0,1.3,0c0,0.3,0,0.7-0.2,0.9
		C343.7,833.6,337.6,838,331.1,841.9z"/>
	<path d="M258.5,796.7c3.2,1.3,6.5,2,8.6,4.9c0.1,0.2-0.4,1.1-0.6,1.1c-3.7,0.1-5.9-2.7-8.5-4.5c-0.3-0.2-0.4-0.8-0.6-1.2
		L258.5,796.7z"/>
	<path d="M301.8,856c-1.5-0.6-3.8,0.6-5-1.5c1.9-0.9,3.9-0.4,5.8,0c1,0.2,2.4,0.1,2.8,1.6L301.8,856z"/>
	<path d="M749.1,876.1c-0.5,2.1-1.5,0.8-2,0.2c-7.4-7-14.8-14-22.1-21c-0.8-0.8-2.1-2.2-1.3-3c1.4-1.4,2.2,0.6,3.1,1.3
		c6.2,5.3,12.3,10.7,18.4,16.2C747,871.5,748.4,873.7,749.1,876.1z"/>
	<path d="M744.6,839.6c-7.2-1.7-14.3-4-21.2-6.9c-0.6-0.2-1.6-0.9-1.5-1.1c0.4-1,1.4-0.6,2-0.5c7.2,1.6,14.4,3,20.8,6.7
		c0.6,0.3,1.7,0.5,1.3,1.6C746,839.7,744.9,839.6,744.6,839.6z"/>
	<path d="M798,837.9c0.7,0.1,2.1,0.2,2.1,0.5c0.2,1.3-1.2,1.4-2,1.7c-6.4,2.2-13.1,3.9-19.8,5c-0.6,0-1.3,0-1.9,0
		c0.4-0.4,0.8-1,1.3-1.3C784.2,840.9,791,838.9,798,837.9z"/>
	<path d="M450,789c-3.8-2.8-5.4-7.1-7.4-11c-3.8-7.4-7.2-15-10.8-22.5c-0.3-0.7-1.2-1.7-0.5-2.2s1.2,0.8,1.6,1.4
		c3.2,6.4,6.4,12.8,9.6,19.2c2.5,5,5,10.1,7.5,15.2L450,789z"/>
	<path d="M418.9,747.6c0.9,1,1.2,1.4,1.5,1.8c6.1,9.3,12.1,18.6,18.2,27.9c0.3,0.5,1.1,1.1,0.3,1.6c-0.2,0.1-1.1-0.5-1.5-0.9
		c-7.4-8.6-12.6-18.6-18.3-28.3C418.9,749.2,419,748.6,418.9,747.6z"/>
	<path d="M619.7,621.5c0.3-1.5,0.6-3.2,0.9-5s1-2.1,2.7-1.5c6.5,2.2,12.8,0.7,18.9-1.5c4.8-1.7,9.9-3.1,14.1-6.2
		c0.5-0.4,1.2-0.8,1.7-0.2c0.2,0.4,0.1,0.9-0.2,1.3c-6.7,4-3.5,10.2-3.6,15.6c-0.1,10.9-6.1,17.7-17.1,18.9
		c-7.7,0.9-14.2-4-16.2-12.3C620.3,627.9,620.2,624.9,619.7,621.5z M629,618.9c-7.1-0.2-7.6,0.5-6.4,7.2c0.5,3.3,1.7,6.4,3.4,9.3
		c2.6,4,6,5.8,11,5c11.4-1.8,16.2-9,14-21.8c-0.2-1.4,0.6-4.4-2.7-3.1c-2,0.7-5.5,0.3-3.8,4.5c0.9,2.7,1,5.6,0.2,8.3
		c-0.9,3.3-3.5,4.2-6.6,3.9s-4.3-2.2-4.5-5c-0.1-1-0.1-2,0-3C634,620.3,633.8,617.2,629,618.9L629,618.9z M639.2,624.5
		c1.6,0.1,1.7-1,1.7-2c0-1.7-0.1-3.5-2-4c-1.4-0.4-1.5,0.9-1.5,1.9C637.2,622.1,637.4,623.7,639.2,624.5L639.2,624.5z"/>
	<path d="M584.3,882.8c-0.1,9.6-6.8,15.8-17.2,15.9c-8.4,0-16.1-6.8-16.1-14.5c0-10.5,7.8-19.3,17-19.1
		C577.4,865.3,584.3,872.8,584.3,882.8z M580.9,881.9c0-8.5-5.1-13.9-13-13.9s-13.4,6.4-13.5,15.5c-0.1,6.3,6.2,11.5,13.9,11.5
		C575.7,894.9,580.9,889.5,580.9,881.9z"/>
</g>
<g id="图层_1_1_">
	<g>
		<path d="M199,1025h4c0-0.3-0.1-0.7-0.1-1h-4.1C198.9,1024.3,198.9,1024.7,199,1025z"/>
		<path d="M285,1025.1h5c-0.3-0.4-0.6-0.7-0.8-1.1h-5C284.4,1024.4,284.7,1024.7,285,1025.1z"/>
		<path d="M443,1024.9h3c-0.2-0.3-0.4-0.6-0.6-0.9H442C442.3,1024.3,442.7,1024.6,443,1024.9z"/>
		<path d="M896,1025h4c0.1-0.3,0.2-0.7,0.4-1h-4.1C896.2,1024.3,896.1,1024.7,896,1025z"/>
		<path d="M558,1025.1h4c-0.1-0.4-0.3-0.7-0.4-1.1h-3.9C557.8,1024.4,557.9,1024.7,558,1025.1z"/>
		<path d="M451,1025h5c-0.2-0.3-0.4-0.7-0.6-1h-5.1C450.5,1024.3,450.8,1024.7,451,1025z"/>
		<path fill="#FFE3CE" d="M359.6,520.8c-0.1-0.4-0.6-0.7-0.9-1.1c-0.2,0.2-0.6,0.4-0.5,0.5c1.4,3.4-1.1,8,2.9,10.6
			c-1.5,2.3-1.1,4.8-0.9,7.3c0.7,6.4,1.5,12.9,2.2,19.3c1.5,15.4,3,30.8,4.3,46.2c0.3,3.8,1.5,3.2,3.6,1.3
			c12.8-11.6,12.9-10.7,6.7-25.5c-5-11.6-9-23.7-11.8-36c-0.9-4.4,0-9.5-3.8-13.1C361.8,527,360.6,523.9,359.6,520.8z"/>
		<path fill="#70316E" d="M457.9,641.3c0-6.1-2.3-11.1-3.9-16.4c-0.2-0.8-0.5-3.1-1.8-1.1c-2.8,4.3-8,7.8-4.9,14.3
			c0.7,1.6,0.6,3.6,0.7,5.4c0.4,6.4-2,10.3-7.9,12.8c-4.8,2-10.1,0.6-13.9-3.9c-2.9-3.3-4.8-7.3-5.5-11.5c-0.5-3.5-1.7-6-5.6-6.3
			c-1.2-0.2-2.3-0.6-3.2-1.3c-1.9-1.1-3.7-2.3-5.5-3.5c-0.5,2.7,0,5.3,0.3,7.9c0.2,2,0.5,4,1,5.9c0.3,1.2,0.5,2.7,2.4,2.8
			c0.8,0,2.1-0.2,2.2,0.6c0.2,1.5-1.4,1-2.2,1.2c-2.7,0.6-2,2-1.1,3.7c1.3,2.6,1.7,3.1,2.6,2.6c2.2-1.2,2.4-1.2,2.9,1.2
			c1.9,9.3,8.2,14.8,16.1,18.9c1.3,0.7,2.8,1.1,4.3,1.2c8-0.3,17-7.5,19.4-15.4c0.6-2.1,1.2-4.1,3.7-4.9c0.9-0.3,2.3-1.1,2.3-1.5
			c-0.1-1.4-1.6-0.3-2.4-0.8c-1.3-0.8-3.5-1.2-1.5-3.4c0.9-1,6.9-1.4,0.1-2.6c-0.8-0.1-0.2-0.8,0.2-0.9
			C460.2,645.2,457.7,642.7,457.9,641.3L457.9,641.3z"/>
		<path fill="#FFE3CE" d="M399.6,603c-4.7-1.6-13.7,2.6-15.4,7.5c-3.8,11.5-5,22.8,3.2,33.2c1.4,1.8,2.8,3.8,4.1,5.7
			c0.7,1,2.5,2.1,1,3.2c-1.4,1-2.3-0.9-3-1.8c-2.8-3.9-5.6-7.9-8.3-11.9c-4.1-6-12.2-9.6-11.2-18.7c0-0.3-0.6-1-0.9-0.9
			c-0.9,0-1,0.8-0.9,1.5c0.1,1,0.2,2,0.4,3c2.8,13,5.8,26,7.9,39.1c2.8,17.8,4.8,35.3,19.8,49c12.7,11.6,23.6,25.2,38.3,34.9
			c6.4,4.3,13.8,6.9,20,11.1c14.4,9.8,31.2,14.2,46.3,22.4c1.3,0.7,3.2,2.1,4.5,0.6c1.1-1.2-0.3-2.8-0.8-4.2
			c-3.5-10-3-19.6,3.9-27.8c6.1-7.3,13.5-13,23-16.1c14.5-4.7,18-3.6,29.3,7.3c3.3,3.2,3.7,9.7,10.5,8.8c0.3,0,0.8,0.6,1.1,1
			c4.9,5.5,9.6,11.3,11.4,18.5c1,4,2.2,2.8,4.5,1.5c21.5-12.7,41.7-27,58-46c3.3-3.9,8.2-7,9.2-12.2c3-17,5.4-34.2,8.2-51.2
			c0.5-2.7-2.5-3.2-2.5-4.5c0-1.6,3.8-1.1,3.7-4.2c-0.1-2.9,0.9-5.9,1.3-8.8c0.1-0.8,0.1-1.6,0.2-2.4c-1.5,0-1.1,1.3-1.5,2.1
			c-3.7,6.3-5.9,13.7-14.2,16.5c-5.2,1.7-10.2,0.7-15.3,0.8c-10.8,0.1-24.3-9.8-27.2-20.3c-3.1-11.1-3.6-22.8-1.4-34.1
			c0.2-1,1.4-2.3,0.2-3.2c-1.2-0.7-2.8-0.4-3.7,0.6c-3.8,3.5-8.3,2.9-12.8,2.2c-3.4-0.5-4.1-1.8-2.1-4.9c6.2-9.7,14.5-18,24.2-24.2
			c12.9-8.5,27.2-13.9,41.3-19.9c0.9-0.4,2.1-1.2,2.7-0.1c0.8,1.5-0.8,2-1.7,2.4c-3.5,1.6-7,3.1-10.5,4.8c-0.8,0.4-2.2,1.4-2.1,1.8
			c0.4,1.7,2,0.9,2.9,0.7c8.2-1.7,16.7-1,24.5,2.1c2.4,1,2.7-0.9,3.2-2.5c2.2-8.3,3.5-16.7,2.4-23.7c-0.3-5.6-0.4-9.6-0.7-13.6
			c-0.3-4.9-1.2-9.5-5.6-12.7c-15.3-11.5-31.7-19.5-51.7-17.1c-5.4,0.7-8.6,2.4-9.6,8.2c-3.5,19.6-12.2,37.2-21.2,54.7
			c-2.2,4.1-3.7,8.5-4.5,13.1c-2.1,12.1-4,24.4-9.3,35.6c-3.2,6.6-3.5,6.5-9.2,2.2c-0.7-0.5-1.7-2.1-1.5,0.1
			c0.5,6.6-4.5,6.1-8.3,6.5c-13.5,1.3-26.9,0.6-40.4,0.3c-7.9-0.2-13.2-2.5-15.3-10.3c-0.2-0.7-0.3-1.9-1.5-1.5
			c-0.4,0.1-0.5,1.5-0.5,2.2c0.1,4,0.3,8,0.4,12c0,1.2,1.2,2.8-0.3,3.7c-1.8,1-2.6-1-3.6-1.9c-6.8-6.3-9.8-15-14.3-22.7
			c-7.1-12.3-13.5-24.9-17.5-38.6c-0.3-0.6-0.6-1.2-1-1.7c-0.9,0.6-0.4,1.5-0.3,2.1c1.5,6,3,11.9,4.5,17.9
			c1.6,6.6,3.9,13.1,6.2,19.5c0.6,1.8,1.3,4-0.5,5.7s-10.9,0.1-12.3-1.8c-6.3-8.8-12-18-15.4-28.4c-3.3-10.1-6.9-20.2-10.4-30.2
			c-0.3-0.6-0.6-1.2-1-1.7c-0.1,0.6-0.1,1.3,0,1.9c3.8,15,7.8,30,13.5,44.4c2,5,2.8,11.2,8.6,14c0.9,0.4,0.8,1.3,0.5,2.2
			c-0.3,0.8-1.2,1.2-2,1.1c-2.5-0.1-5-0.2-7.5-0.3c-0.6,0-1.4-0.4-1.6,0.5c0,0.2,0.6,0.7,1,0.8c8.9,2.9,11.8,11.2,16.1,18.2
			c8.9,14.4,8.4,39.4-15,49.3c-5.2,2.2-10.1,4-16.2,1.2c-14.1-6.6-21-18.9-25.4-32.5c-4-12.2-5.6-25-1.9-37.9
			C400.9,604.9,401.3,603.6,399.6,603z"/>
		<path fill="#70316E" d="M415.9,616.7c-1.5,0.4-3,0.4-4.4,0.1c-2.2-0.5-4.2-0.5-4.7,2s-2,5.5,1.1,7.2c6.1,3.2,12.2,6.9,20,7.1
			c5.5-0.4,11.3-1.2,16.5-4.6c3.8-2.5,6.3-5.6,5.1-10.3c-1.2-4.5-6.2-8-11-7.5c-7,0.6-13.9-1.5-20.9-0.5c-0.7,0-1.3-0.3-1.7-0.8
			c-1.9-2.4-4-3.5-6.8-1.2c-1.2,0.9-1.7,2.1-0.9,3.5c1.7,3,3.8,1.9,6.4,1c2-0.7,6.1,0.2,6.1,1.1C421,616.1,417.9,616.2,415.9,616.7z
			"/>
		<path fill="#B79FC3" d="M382.9,719c-4.1-21.9-8.8-43.7-13-65.6c-4.4-23.4-7.5-46.9-9.4-70.6c-1.3-16.4-1.7-32.9-4.2-49.2
			c-1.4-9.1-2.8-18.5-0.3-27.8c0.6-2.4,0.8-4.9,0.7-7.4c-0.7-21.8-1.3-43.6,1.3-65.3c1.5-12.5,2.1-25.2,7-37c-1.5-1.7-2,0.1-2.5,0.9
			c-1.2,1.8-2.2,3.7-3.3,5.6c-24.5,40.4-44.4,82.8-55.3,129c-3.2,13.6-6,27.4-5.4,41.5c0.4,10.9,2.7,21.6,2.3,32.8
			c-0.6,17,2.2,34.2,3.7,51.3c1.8,21,5.2,41.9,6.5,63c0.1,0.8,0.3,1.5,0.6,2.2c1-0.3,1-1.3,1-2.1c-0.1-7,2.7-14.3-1.5-21
			c-0.2-0.3-0.3-0.6-0.3-0.9c0-0.5,0-0.9,0-1.4c0.3,0.3,0.8,0.6,1,1c0.9,1.8,1.9,3.5,2.6,5.4s2,2.9,4.2,2.4c6.1-1.4,12.2-1,18.4-0.8
			c5.5,0.2,7.9,2.7,7.3,8.2c-0.3,2.7-0.8,5.5,0.1,7.9c4.5,12.7,7.5,26,14.9,37.5c8.4,12.9,15.7,26.6,21.6,40.8
			c1.3,3.2,2.7,2.2,4.4,0.9c4.2-3.3,7.5-2.1,10.7,1.7c3.6,4.3,6.9,9,9.8,13.8c4.6,7.5,5.8,15.4,1.8,23.8c-2,4.4-2.7,9.3-2.2,14.1
			c0.4,5,1,10.3-1.1,14.8c-4.4,9.5-0.9,16.9,5,24c0.4,0.5,0.7,1.1,1.1,1.7c9.1,12.9,19,25,32.5,33.5c6.3,4.2,13.5,6.8,20.9,7.6
			c1.1,0.1,3.1,0.1,3.3-0.3c0.5-1.5-1.3-1.6-2.2-2.2c-11.6-8.5-17.3-21.3-24.7-32.9c-0.5-0.7-1-1.5-0.4-2.3c0.7-0.8,1.8-1,2.7-0.4
			c3.3,1.8,7.3,2.1,10.5,4.5c3.3,2.3,6.7,4.4,10.2,6.3c0.7,0.4,1.5,1.4,2.6,0.7c-0.6-0.5-1.2-1.1-1.8-1.6c-2.2-1.6-4.5-2.9-6.5-4.6
			c-17.5-14.6-30.5-32.2-37.8-54c-9.5-28.4-19.6-56.6-26-86C390.5,747.6,385.7,733.5,382.9,719z"/>
		<path fill="#D9C7D5" d="M295,933.7c-1.8-0.5-3.3-1.8-4.1-3.4c-2.1-3.8-4.1-7.6-6.3-11.3c-2.8-4.6-2-10.7-6.7-14.4
			c-0.8-0.6-0.8-2.6-2.2-2.1c-0.8,0.3,0.2,1.8,0.6,2.7c2.4,6.9,4.9,13.8,7.3,20.6c4.9,13.8,12.2,19.8,25.6,19.9
			c2.5-0.7,6.2-1.7,9.8-2.8c1.2-0.3,2.7-0.2,3.3-1.7c-1-0.5-2.1-0.8-3.3-1C310.4,940,302.9,936.1,295,933.7z"/>
		<path fill="#FFCFBC" d="M402.6,854.7c-0.3,0.1-0.6,0-0.8,0.2c-0.8,0.9-1.1,3.4-3.1,1c-1.3-1.7-1-3.3-0.2-5.1
			c1.3-2.9,2.4-5.8,3.6-8.8s2.5-5.9,3.8-8.9c-2.4,2-4.8,4.1-7.2,6.1c-6.4,5.3-14.2,8.8-20.7,13.9c-4,3.2-7.2,3.4-11.3,1.2
			c-1.3-0.7-3.3-1.4-2.7-3.1c0.8-2.3,2.8-1,4.2-0.5c2.9,1,6.1,2.2,8.5-0.3c5.1-5.5,11.8-8.6,17.7-12.9c3.4-2.4,6.6-5,9.9-7.6
			c2.2-1.8,2.4-3.7,1.5-6.6c-2.2-6.8-6.1-12.5-10.6-17.9c-4.2-5-6.3-5.1-10.8-0.5c-5.5,5.6-10.8,11.3-16.2,17
			c-0.7,0.7-1.1,1.6-1,2.6c0.4,6.9-1.9,13.5-2.8,20.2c-0.2,1.7-0.5,4.3-2.9,3.8c-2-0.4-2.1-2.9-1.8-4.7c1-6.7,2.6-13.4,4.8-19.8
			c2.4-7.1,8.2-11.5,12.9-16.9c1.3-1.5,2.9-2.6,1.2-5c-6.6-9.8-11.5-20.6-16.3-31.4c-1-2.3-1.6-5.2-4.9-1.9c-0.7,0.8-1.9,1-2.8,0.4
			c-1.4-1.1-0.3-2.2,0.5-2.9c2-1.8,1-3.5,0-5.3c-1.3-2.5-2.3-5.2-3.5-7.7c-3.1-6.5-4.8-13.5-6.3-20.5c-0.1-0.6-0.7-1.7-0.9-1.6
			c-1.2,0.2-0.5,1.2-0.5,1.9c-0.1,5.9,0,11.9,0,17.8h1c-0.7,3.9-1.2,7.9-2.2,11.7c-0.9,3.4-8.1,7.3-11.2,5.6c-5.2-2.9-6-0.3-7.4,3.9
			c-2.5,7.3-8.7,12-15.5,2.3c-1.5-2-3.2-3.8-5.1-5.4c-8.7-7-15-15.9-21.7-24.6c-1.5-1.9-1.9-4.5-4.2-5.8c0.1,2.6,1.4,4.7,2.5,6.9
			c3.5,6.6,5,14.1,4.5,21.6c-0.3,4-1.4,7.8-6,8.7c-3.4,0.7-2.6,2.2-1.7,4.5c3.2,8.2,5,16.4-1.7,24c-0.3,0.4-0.6,0.8-0.8,1.2
			c-0.5,1.2,0.4,3.7-1.9,3.3s-0.6-2.8-1.4-4.3s1-3,1.7-4.4s0.6-2.7-1.2-2.9c-7.6-1.2-14.5-4.9-22.3-5.3c-0.8,0-1.6-0.9-2.2,0
			c-0.2,0.2,0.7,1.4,1.3,1.9c6.2,5.1,11.4,11.3,15.3,18.3c3.7,6.3,2.9,10.5-2.7,15.3c-1.2,1.2-2.6,2.1-4.1,2.8
			c-3.2,1.1-3.1,2.9-1.7,5.3c1.9,3.5,2.8,7.2,1.8,11.1c-1,3.7-3.2,4.3-6.2,1.8c-1-0.6-2.1-1.1-3.2-1.3c-0.4-0.1-0.9-0.1-1.4-0.1
			c0.3,0.4,0.6,0.7,0.9,1c5.4,4.3,8.8,10.3,13.5,15.3c2.5,2.6,4.8,6.9,3.5,9.4c-2.7,5.3-0.4,7.4,3.4,9.7c0.3,0.2,0.5,0.4,0.7,0.7
			c6.7,10.8,16,19.9,19,33c1.3,5.6,4,11.5,9.5,14c7.8,3.6,16.4,5.4,25,6.7c1.3,0.3,2.7-0.4,3.3-1.6c4.6-7.9,12.1-12.7,19.3-17.8
			c1.5-1.1,3.6-1.6,4-3.8c-2-0.1-3,1.9-4.8,2.2c-0.2,0.1-0.3,0.1-0.5,0.2c-1,0.5-2.3,1.4-3.2,0.2c-1-1.4,0.3-2.5,1.3-3.3
			c3.6-2.7,7.4-4.9,12.2-4.9c9,0,17.8-1.9,26.7-3.1c6.4-0.8,9.2-3.9,10.3-10.3c0.4-2.8,1.2-5.5,2.5-8.1c4.9-9.4,7.3-19.6,9.3-29.9
			C402.6,856,402.6,855.3,402.6,854.7z M266.5,802.7c-3.7,0.1-5.9-2.7-8.5-4.5c-0.3-0.2-0.4-0.8-0.6-1.2l1.2-0.2
			c3.2,1.3,6.5,2,8.6,4.9C267.2,801.7,266.7,802.7,266.5,802.7z M301.8,856c-1.5-0.6-3.8,0.6-5-1.5c1.9-0.9,3.9-0.4,5.8,0
			c1,0.2,2.4,0.1,2.8,1.6L301.8,856z M331.1,841.9H330c0-0.4-0.1-1,0.2-1.3c5.2-5.4,11.6-9.2,18.1-12.9c0.3-0.2,0.9,0,1.3,0
			c0,0.3,0,0.7-0.2,0.9C343.7,833.6,337.6,838,331.1,841.9z M357.9,857c-6.9,4.7-9.2,12.5-13.2,19.1c-0.5,0.8-1,2-2.2,1.5
			c-0.5-0.2-0.4-1.5-0.5-2.2c1.7-7.2,4.2-13.9,9.8-18.9c1.4-1.2,2.9-2.4,4.9-2.2C358.1,854.6,359.5,855.9,357.9,857z"/>
		<path fill="#D9C7D5" d="M357.9,912c-2.9-0.2-5.5,1.5-7.6,4c-3.8,4.4-8.2,8.3-12.9,11.6c-3.5,2.6-6.5,5.7-8.9,9.3
			c-0.3,0.5-0.8,1.5-0.7,1.6c0.6,0.6,1.1-0.1,1.7-0.4c10.4-5.9,21.2-11,31.2-17.7c1.8-1.2,3.4-2.2,2.1-4.7
			C361.9,914,361.5,911.5,357.9,912z"/>
		<path fill="#70316E" d="M434.5,637.1c-2-0.3-2.4,1.3-2.4,3c0,1.9,0.2,4.1,2.4,4.3c2.4,0.2,1.4-2,1.5-3.4
			C435.7,639.7,437,637.5,434.5,637.1z"/>
		<path fill="#70316E" d="M669.5,621.8c0.2-0.6,0.3-1.2,0.4-1.8c1.4-9,0.3-18,1.9-26.3c-0.3-2.6,0.7-5.1-2-6.2
			c-3.6-1.5-6.3-4.2-8.9-7.1c-1.2-1.4-3-2.2-4.8-2.3c-1,0-2.2-0.3-2.4,1.1c-0.1,0.9,0.7,1.4,1.5,1.7c6.7,2.3,8.6,8.1,10.8,14
			c3,8.1,3.5,16.5,3.3,25C669.4,620.5,669.5,621.1,669.5,621.8z"/>
		<path fill="#70316E" d="M666.1,618.1c0.1,1,0.2,1.9,0.4,2.9l0.5-2.9c-0.5-2,0.5-3.9-1-5.4c-1.5,1.7,0.4,3.3,0.1,4.9
			C666,617.8,666,617.9,666.1,618.1z"/>
		<path fill="#70316E" d="M668.9,572.6c-3-1.1-6-2-9.3-1.5c-6.4,1-12.8,1.2-19.1-1.1c-3.2-1.2-6.3,0.2-9.5,1.6
			c-5.5,2.3-9.1,7.3-14.6,9.5c-1,0.4-1.7,1.7-3.1,1c0.6-0.7,1.3-1.4,1.9-2.1s2.1-1.8,1.2-2.8c-0.6-0.7-1.8,0.4-2.5,1
			c-7,6.4-15.1,11.5-20.7,19.3c-1,1.3-3.3,2.8-1.9,4.6c1,1.3,3.4,0.9,5.2,0.8c1-0.1,1.9-0.5,2.8-1c7.7-4,14.4-9.8,19.4-16.9
			c2.5-3.6,6.1-5.5,9.5-7.8c0.8-0.6,2-1.7,3.2-0.7c3.2,2.6,6.3,0.6,9.3-0.2c9.2-2.6,17.8-3.4,25.2,4.2c1.2,1.3,2.6,3,4.7,2.2
			s0.7-3,1.2-4.1l0,0C672.4,575.5,671.5,573.5,668.9,572.6z"/>
		<path fill="#FFE3CE" d="M614.5,496.5c21.2-4.7,39.3,2,55.4,15.6c0.7,0.6,1.3,1.9,2.4,1.5c1.4-0.6,0.5-2.1,0.6-2.8l0,0
			c0.1-3.3-0.8-6.6-2.6-9.3c-3.6-5.6-7.2-11.2-10.5-17c-11.9-21-23.2-42.2-37.6-61.7c-1.1-1.5-2.2-2.8-3.4-4.2
			c-1.5,1.6-0.6,3.5-0.4,5.1c2.5,23.7-2.5,46.6-6.8,69.6C610.9,496.4,611.4,497.2,614.5,496.5z"/>
		<path fill="#FFCFBC" d="M232.6,843.3c-1.6-1.2-3.2-2.3-5.5-2.1c-2.4-0.1-4,1.4-4.8,3.5c-1.6,4.2-3.8,8.6-0.6,12.8
			c6.6,8.7,13.4,17.3,22.6,23.6c6.9,4.8,9.8,4.5,14.4-2.8c1.1-1.6,1.5-3.7,2.4-5.4s0.3-3.2-1-4.5
			C251.5,859.4,242.7,850.7,232.6,843.3z"/>
		<path fill="#70316E" d="M425,636.7c-2.3-0.1-1.4,1.7-1.2,2.9c0.5,4.3,2.4,8.4,5.2,11.7c2.6,3.1,6,4.2,9.8,2.7s6.8-4,6.9-8.3
			c-0.3-3.2-0.7-6-0.9-8.8c-0.1-0.5,0-1-0.1-1.5c-0.3-2.2-1.2-2.7-3.4-1.6c-2.7,1.5-1.4,3.3-1,5.1c1,4.5-1.5,9.5-5,10.1
			c-3.8,0.7-6.6-2.6-6.9-7.9c0-0.7,0.1-1.3,0.1-2C428.6,636.7,426.4,636.8,425,636.7z"/>
		<path fill="#FFE3CE" d="M465.9,602c1-1.2-0.5-2-1.2-2.9c-1.7-2-3.7-3.8-6-5.1c-1.8-1.1-3.2-2.8-5.4-3.3c-0.2,2.6,1.7,4.2,2.8,6
			c1.6,2.6,2.5,6.5,8.5,5.7C464.1,602.5,465.4,602.6,465.9,602z"/>
		<path fill="#DC9773" d="M568.2,894.9c7.5,0,12.7-5.4,12.7-13c0-8.5-5.1-13.9-13-13.9s-13.4,6.4-13.5,15.5
			C554.3,889.7,560.6,894.9,568.2,894.9z"/>
		<path fill="#70316E" d="M639.2,624.5L639.2,624.5c1.6,0.1,1.7-1,1.7-2c0-1.7-0.1-3.5-2-4c-1.4-0.4-1.5,0.9-1.5,1.9
			C637.2,622.1,637.4,623.7,639.2,624.5z"/>
		<path fill="#FFCFBC" d="M803.9,796.8c3.3,3.4,7.8,5.2,12.6,5.2c4.1,0,4-3.9,5.6-6.1c0.5-0.7,0.8-1.5,1.3-2.1s1.4-1,1.4,0
			c0.2,4.1,1.4,1.8,1.9,0.3c3-9.2,8.8-17.1,11.9-26.3c0.6-1.7,1.4-3.4,1.2-5.3c0.2-2-0.7-4-2.3-5.2c-2.9-2.5-6.2-4.5-9.8-5.8
			c-2.8-1-4.7-0.3-6.2,2.3c-2.6,4.6-5.6,9-8.3,13.6c-4.4,7.5-8.2,15.2-9.7,23.8C803.2,793,802.2,795.1,803.9,796.8z"/>
		<path fill="#DC9773" d="M563.9,914.5c4-0.3,8-0.6,12-0.7c17-0.3,28.2-11.8,28.2-28.9c0-14.5-12-31.9-25.5-37.2
			c-2.7-1-5.3-1.8-8.3-1.2c-4.5,1-9.2,1.6-13.7,2.7c-12.6,3.2-23.9,8-26.2,23.1c-0.8,4.9-0.9,10-0.2,14.9
			C532.3,901.9,549.3,915.6,563.9,914.5z M568,865.1c9.4,0.2,16.3,7.8,16.3,17.7c-0.1,9.6-6.8,15.8-17.2,15.9
			c-8.4,0-16.1-6.8-16.1-14.5C551,873.7,558.8,864.8,568,865.1z"/>
		<path fill="#D9C7D5" d="M904.6,944.1c-0.1-12.4-3.2-16.5-14.8-20.7c-8.1-2.9-16.2-6.1-24.6-8.2c-6.3-1.6-10-5.5-12.9-10.8
			c-2.6-4.8-5.1-9.7-7.5-14.7c-4.4-9.4-8.7-18.7-14.1-27.6c-1.3-2.2-2.3-4.6-5.5-4.2s-4.3,2.7-4.9,5.5c-2.1,9.8-5.3,19.5-4.2,29.9
			c0.6,5.3-0.9,10.7-1.1,16c-0.1,3.7-2.8,8.2-4.1,12.5c-0.6,2-0.8,5.7-3.5,5.1c-2.5-0.6-0.4-3.7-0.6-5.8c-0.1-0.8,0.8-1.7-0.2-2.2
			c-0.3-0.2-1.1,0.6-1.6,0.9l-19.4,10.4c-2.6,1.4-5.2,2.4-8,0.5c-6.8-4.6-14.1-8.3-21.8-11c-1.8-0.7-4-1.6-5.1-3
			c-2.6-3.5-5.6-3.2-9.3-2.4c-8.2,1.8-16.5,2.8-24.4,5.9c-0.8,0.3-2.6,0.1-2.7,0.4c-0.3,1.5,1.3,1.7,2.2,2.2c7.7,4.3,15.7,8.2,23,13
			c3.1,2.3,6.9,3.2,10.6,2.7c4-0.5,7.9-0.9,11.9-1.4c10.9-1.4,21.8-2.9,32.8-3.2c0.9,0,1.9-0.4,2.7,0.4c-0.8,0.3-1.5,0.6-2.3,0.8
			c-12.8,4-26,5.4-39.3,6.9c-5.8,0.7-11.6,1-17.4-0.1c-2.2-0.4-2.5-1.2-1.1-1.7c4.4-1.7,0.7-1.9-0.3-2.3c-10.7-4.4-21-9.4-29.6-17.3
			c-2-1.8-2.4-1.1-3.4,0.9c-3.2,6-2.7,11.5-0.3,18c9.9,26.6,22.5,50.9,48.6,65.3c1.9,1.1,3.6,2.4,5.2,3.8c1,0.8,2,1.8,2.9,2.8
			c0.8,1,1.8,2.2,0.4,3.5s-2.4,0.1-3.5-0.7c-4.5-3.5-9.1-6.8-13.5-10.3c-17-13.8-31.2-29.8-39.3-50.6c-1.8-4.7-3.5-9.3-5.3-14
			c-0.4-0.7-0.8-1.3-1.3-1.9c-0.4,0.5-0.7,1-1,1.6c-5.6,14.2-16.2,26-20.2,41.1c-0.5,1.7-1.2,4.4-3.4,4.2c-0.9-0.1,0.1-3.3,0.6-5
			c5.5-19.7,11.2-39.4,15.7-59.3c0.8-3.1,0.7-6.3-0.4-9.3c-1.8-5-3.5-10-5.3-15c-0.3-0.9-0.2-2.3-1.3-2.5s-1.2,1.3-1.7,2.1
			c-13.6,24.5-31.2,45.9-51.1,65.6c-20.4,20.3-44.9,34.9-69.5,49.2c-3.7,2.2-4.1,3.8-2,7.2c1.3,2.1,2,4.4,2.9,6.7H896
			c2-7.4,4.3-14.7,5.8-22.1C906,982.8,904.8,963.4,904.6,944.1z M825.9,865.5c0.9-0.4,1.3,1.6,1.8,2.6c7.7,15.4,12.1,31.9,16.2,48.5
			c0.2,0.8,0.2,1.7,0.3,2.5c-0.2,0.9,0.5,2.2-0.9,2.4c-0.5,0-1.3-0.9-1.7-1.6c-0.8-1.6-1.5-3.3-2.1-5c-4.5-15.3-9-30.6-13.4-45.9
			C825.8,867.9,824.6,866.2,825.9,865.5z M839.3,958.8c-3.3,9-6.3,18.2-10.6,26.9c-0.6,1.2-1.3,3.5-2.8,3c-1.8-0.7-0.9-2.9-0.4-4.4
			c2.6-7.2,5.4-14.3,8-21.5c3.5-10,6.8-20.2,10.3-30.2c0.3-1,0.1-2.9,1.5-2.7s0.3,1.9,0.8,2.6C845.2,941.8,842.4,950.3,839.3,958.8z
			"/>
		<path fill="#D9C7D5" d="M549.8,1001.5c1.2,1.8,2.4,3.5,3.6,5.3c0.4,0.5,1,0.9,1.4,1.4c0.6,0.8,1,1.1,1.7-0.1c3-5.1,9-6.4,13.4-9.7
			c1-0.8,3.1-1.2,2.4-2.5c-1.4-2.6,0.9-3,2-3.7c5.4-3.6,9-8.8,12.5-14.1c8.2-12.6,14.6-26.2,20.6-39.9c0.7-1.7,2.3-4.1,1.8-4.9
			c-1.1-1.5-3.2,0.4-5,0.5c-1.5,0.1-3,0.6-4.5,0.5c-4.5-0.4-7.4,1.6-10,5.2c-5.5,7.6-13,13.3-20.2,19.2c-1,0.8-2.6,2.5-3.8,1
			c-1-1.3,1.2-2,2.1-2.8c6.7-5.5,13.1-11.4,19-17.7c0.8-0.8,1.9-1.8,1.5-3c-0.5-1.5-2-0.7-3.1-0.5c-10.1,1.3-20.3,1-30.4,0.8
			c-26.3-0.6-52-4.5-76.9-13.3c-1-0.3-2.2-0.2-2.7-1.6c1,0.1,1.9,0.2,2.9,0.3c28,6.2,56.3,10.5,85.1,10.8c8.3,0.1,16.6,1,24.9-0.4
			c2.1-0.4,3.8-1,5-2.8c6.4-10.1,13.2-19.9,17.7-31.2c5.8-14.6,9.5-29.8,14.8-44.5c1.9-5.3,1.6-10.4,0.6-15.7
			c-0.7-3.6-2.6-4.1-5.7-3.6c-20.6,3-41.2,1.3-61.7,0.2c-3.2-0.2-5.7-0.6-5.8,3.6c0,0.8-0.2,2.3-1.5,2.1c-1.1-0.2-1-1.5-1.2-2.5
			c-0.3-1.7,1.5-4.6-2.1-4.3c-5.3,0.4-10.2-1.5-15.2-2.2c-17.4-2.6-34.2-7.9-49.8-15.9c-6.3-3.2-12.5-6-19.9-5.8
			c-5.5,0.1-11-0.5-16.5-0.8c-10.7-0.5-21.2-2.1-31.8-3.3c-5.7-0.7-6-0.1-4.2,5c5,14.3,10.1,28.6,15.2,42.8
			c2.4,6.8,5.3,13.3,9.7,19.1c12.6,16.5,26.5,31.3,46.7,38.6c0.9,0.3,2,0.5,2.1,1.8c0,2.3,0,2.2,1.8,2.8c10.7,3.2,21.4,2,32.2,0.3
			c1-0.1,1.9-0.1,2.9-0.1c-0.4,1.4-1.8,1.2-2.8,1.7c-0.8,0.3-1.6,0.6-2.4,0.6c-13.2,1.4-26.2,3.9-39.4-2.2
			c-7.7-3.5-15.7-6.3-23.2-10.4c-2.2-1.2-4.5-2.2-6.8-3.2c-0.4-0.2-1.2-0.5-1.4-0.3c-0.7,0.6,0.1,1.1,0.4,1.6
			c3.3,6.2,8.3,11.2,12.8,16.6c8.3,9.8,18.7,14.6,31.6,14c1.6-0.1,4.3-1.2,4.7,0.9c0.2,1.2-2.8,1.9-4.6,2.3
			c-9.7,2.2-19.5-0.1-29.2-0.1c-11,0-20.7-5.7-29.3-12.7c-12.7-10.4-22.4-23.2-30.4-37.4c-0.5-0.9-0.8-2.9-2-2.5
			c-1.5,0.6-0.2,2.3-0.2,3.5c0.1,0.3,0.2,0.6,0.3,0.9c7.8,21.7,15.3,43.4,23.3,64.9c8.7,24.2,19.6,47.7,32.4,70h102.3
			c-1.5-5.6-3.8-10.9-5.9-16.3C551.1,1005.7,549,1004.1,549.8,1001.5z M549.6,848.6c5.7-1.7,11.5-3.1,17.3-4.6
			c9.1-2.3,16.7,1,23.6,6.5c11.4,9.2,17.2,21.4,18.4,35.8c0.2,2.8,0.4,5.7-2.1,7.9c-1.3,1.1-1.5,3-1.7,4.6c-2,12.4-9.6,18.9-22.3,19
			c-1.8,0-3.7,0-5.5,0v0.3c-7.5-0.4-15.2,0.3-22.4-1.4c-13.4-3.2-27.8-14-29.1-32.2C524.7,866.8,533.4,853.5,549.6,848.6z
			 M546.6,992.9c-1.4-1-0.8-2.6-0.9-4c-0.1-2.5,0-5,0-7.5h-0.2c1.2-12.4,2.5-24.8,3.8-37.2c0.2-1.1,0.6-2.2,1-3.2
			c1.4,0.9,0.8,2.3,0.7,3.4c-0.4,15-1.7,29.8-3.2,44.7C547.5,990.5,547.1,991.7,546.6,992.9z"/>
		<path fill="#D9C7D5" d="M247.7,963.8c-3-18.5-2.6-37.2-2.3-55.8c0.1-5.5,0.3-11,0.6-16.5c0.1-2.7-1.6-5-3.5-5.4
			c-2.1-0.4-1.7,2.7-2,4.2c-3.2,12.6-7.7,24.8-11.5,37.2c-1.4,4.6-2.5,4.8-5.2,1.7c-0.4-0.5-1.1-0.7-1.7-0.7
			c-7.2-0.4-10.8,2.9-10.8,10c0.1,17.6,0.7,35.3-6.6,52c-1.4,3.3-1.7,7.1-2.5,10.7c-1.6,7.7,0.3,15.2,0.9,22.8h81.2
			c-13.7-16.8-29.5-32.3-34.9-54.4C248.7,967.6,248,965.8,247.7,963.8z"/>
		<path fill="#D9C7D5" d="M290.9,1023.9H442c-7.6-7.1-15.8-13.4-23.5-20.2c-11.5-10.2-20.8-22.4-28.8-35.5c-0.6-0.9-0.8-2.7-2.1-2.4
			c-1.3,0.3-0.5,2-0.6,3.1c-1.3,13.2-2.1,26.5-6.1,39.4c-0.2,0.8-0.4,2-1.2,1.9c-1.1-0.1-0.6-1.3-0.6-2c-0.1-3,0-6,0.2-9
			c1.8-12.3,3.3-24.7,4.5-37.1c1-10.5,1.7-21.2,2.1-31.8c0.2-6.5,0.7-13,0.9-19.4c0-1.3,0.8-3.6-1.7-3.3c-5.7,0.8-11.4,2-17,3.1
			c-1.7,0.3-2,1.4-1.3,3c0.9,1.8,1.9,1.4,3.2,0.4c1.5-1.1,3-2.1,4.5-3.1c1.2-0.7,2.9-1.9,4-0.4c1.2,1.7-0.8,2.6-1.9,3.4
			c-14.1,10.4-28.4,20.3-45,26.5c-5.9,2.2-12.2,3.5-17.7,6.5c-6.8,3.8-20.9,2.5-25.5-3.6c-1.8-2.4-3.3-5-4.6-7.6
			c-3.1-6.3-5.2-13-7.3-19.6c-3.1-9.6-4.4-19.8-9.9-28.7c-1.9-3.1-3.3-5.3-7.6-3.9c-6.5,2-9.8,4.4-9.9,8.8
			c-0.4,19.3-0.7,38.7,0.1,58c0.7,16.4,5.7,31.3,16.3,44.2c7.2,8.8,14.3,17.7,21.3,26.6C288.2,1022,289.6,1022.9,290.9,1023.9z"/>
		<path fill="#D9C7D5" d="M412.8,939c-5.1-15.5-9.6-31.2-14.4-46.7c-0.3-1.1-0.1-2.8-1.4-3c-1.7-0.3-2,1.6-2.3,2.8
			c-1.3,5.5-3.6,10.6-3.5,16.5c0.2,14.8-1.4,29.6-2.8,44.3c-0.2,2,0.2,4,1.2,5.8c12.9,22,27.8,42.2,48.1,58c2.8,2.2,5.8,4.3,7.8,7.4
			h4.9c-3.1-4.3-5.8-8.8-8.1-13.5C430.2,987.6,420.9,963.5,412.8,939z"/>
		<path fill="#FFCFBC" d="M263.1,725.2c-4.8,2.1-7,7.1-11.2,9.7c-3.3,2-3.3,4.1-1.8,7c3.5,7.1,7,14.3,10.5,21.5
			c2.6,5.3,5.1,10.2,12.8,9.5c6.1-0.4,8.4-1.7,8.5-8.6l0,0c0-1,0-2-0.2-3c-3-12.2-8.3-23.4-13.7-34.7
			C267,724.6,265.5,724.2,263.1,725.2z"/>
		<path fill="#FFCFBC" d="M337.3,707.8c-4.3-0.1-8.6,0-12.9,0.5c-8.5,1.1-9.8,3-8.8,11.4c1.3,10.2,3,20.3,3.7,30.6
			c0.3,4,0.8,8.8,4.2,11.4c4.2,3.1,9.5,4.3,14.5,1.4c4.4-2.5,4-7.3,3.5-11.1c-1.2-10.4-1-20.8-1.6-31.2c0-3.3-0.1-6.7,0-10
			C340,708.7,339.8,707.8,337.3,707.8z"/>
		<path fill="#D9C6D4" d="M729.7,466.9c-6.8,2-9.3,8.4-13.5,12.8c-11.7,12.6-19.1,27.5-21.2,44.8c-0.8,6.4-0.1,7,6.3,5.8
			c15.7-3,29.9-9.3,42-19.6c4.1-3.5,9.5-7.3,8.4-17.7c-1.7-10.1-5.6-23.2-10.6-35.9c-3.6-9.2-6.5-18.5-9.3-27.9
			c-2.5-8.1-4.4-16.8-12.2-22.2c-1.5-1-3.2-1.5-4.6-2.5c-7.7-5.4-15.2-11-23.1-16c-4.9-3.2-6.5-2.1-6.7,4
			c-0.3,8.7,2.4,16.7,5.8,24.6c4,9.2,9.4,17.6,14.8,26c5.9,9.1,12.3,18.3,23.3,22.2C729.6,465.5,731.8,466.3,729.7,466.9z"/>
		<path fill="#FFCFBC" d="M261.8,819.6c1.3-1.7,0.7-3.3-0.3-5.1c-7.7-13.2-18.8-23.1-31.2-31.7c-0.8-0.5-2-1.3-2.7-1.1
			c-4.9,1.6-7.7,5.7-10.2,9.8c-1.9,3.1-0.8,6.1,1.3,8.8c4.7,6.3,10.6,11.5,15.7,17.4c4.3,5.1,10.6,5.8,15.8,8.9
			c0.5,0.2,1,0.2,1.6,0.2C256.8,826.9,259.2,823,261.8,819.6z"/>
		<path fill="#9E5BAB" d="M635.2,171.9c13.4,7.7,26.8,15.6,41.5,20.6c17.6,6,36.3,8,54.2,13.3c3.1,1.1,6.4,1.7,9.8,1.9
			c13.3,0,26.6,0.2,39.5,3.7c1.6,0.4,2.6,0.2,2.5-2c-0.2-0.7-0.4-1.7-0.7-2.6c-3.3-13.1-7.1-26-11.1-38.9
			c-10.9-35.1-28.2-67.5-44.1-100.5c-5.6-11.6-12.1-22.6-20.9-32.1c-7.1-7.6-11.8-7-17,2.1c-15.3,27.1-28.2,55.5-38.6,84.8
			c-5.2,14.6-10.6,29.1-15.8,43.7C633.8,167.7,632,170.1,635.2,171.9z"/>
		<path fill="#FFCFBC" d="M789.3,713.5c-3,0.9-4.3-1.1-6.2-2.1c-2.5-1.4-5-2.5-7.7-3.3c-3.4-0.9-4.9-0.3-5.5,3.6
			c-1.5,9.4-1.5,18.9-2.7,28.6l0,0c0.3,3,0.4,6.3,1.1,9.6c1.2,6,4.3,8.5,10.3,8.7c1.2,0.2,2.4-0.3,3-1.3c0.4-0.5,0.4-1.2,0-1.7
			c-3.1-3.7-3-4.2,1.4-5.4c1.7-0.5,3.2-0.8,3.7-2.8c2.8-9.8,3.5-19.9,5.2-29.9C792.1,715.7,791.4,712.9,789.3,713.5z"/>
		<path fill="#9E5BAB" d="M266.5,232.2c1.3-0.4,2.6-0.5,3.9-0.9c19.1-7.6,39.3-12.6,57.3-23c11.5-6.6,23.1-13.2,34.7-19.6
			c10.4-5.8,20-13,30.4-18.8c3.3-1.9,5.4-6.2,8.5-9.1c1.4-1.3-0.1-3.2-0.8-4.6c-2.8-5.8-5.7-11.7-8.7-17.4
			c-13.7-25.9-27.5-51.7-44.3-75.8c-0.9-1.2-1.7-2.5-2.2-3.9c-2.5-9.3-8.5-16.9-12.3-25.5c-1.3-3-3.5-3.4-6-1.8
			c-1.6,1-3,2.1-4.2,3.5c-9.4,10.2-17.1,21.8-22.8,34.4c-8.4,18.6-14.3,38-19.5,57.6c-3.1,11.5-6.5,22.9-8,34.9
			c-0.9,7.1-2.9,14.3-4.6,21.4c-2.6,11.2-0.7,22.9-3.7,34.1c-1,3.7-1.3,7.5-1.9,11.3C261.6,232.2,263.2,233.2,266.5,232.2z"/>
		<path fill="#D9C6D4" d="M245,785.9c6.3,2.5,13.5,3.3,20,5.8c3,1,6.1,1.8,9.2,2.3c1.3,0.3,3.3,0.4,2.8-1.4
			c-1.4-5.1-3.3-10.1-5-15.1c-0.2-0.4-0.5-0.8-1-0.9c-9-1.1-12.9-7.8-16.3-14.9c-2.8-5.9-5.3-11.9-7.8-17.8
			c-0.9-2.1-1.3-4.3-0.1-6.3c4.3-7.4,8.8-14.5,18-16.9c3.2-0.8,5-1.1,6.1,3c0.8,2.9,3,5.6,5,8c7.4,9,15.7,17.2,22.2,27
			c1.2,1.4,2.5,2.6,4.1,3.6c4.4,3.3,8.7,6.8,11.6,11.5c0.5,0.8,0.8,2,2.2,1.5c2.5-0.9,5.3-1.9,6.4-4.4s1-5.2-1.6-7.2
			c-2-1.5-2.7-3.7-3.2-6c-3.2-13.9-6.4-27.8-10-41.6c-4.8-18.3-6.1-37.4-7.6-56.3c-1.6-21.4-2.9-42.9-3.8-64.3
			c-1-23.6,0.6-46.9,6.2-69.9c13.9-57,40.9-107.8,74.5-155.4c15.6-22,34.1-41.3,53.6-59.8c8.1-7.7,16.9-14.9,27-19.5
			c25.2-11.3,50.5-22.5,78.9-23.6c11.1-0.5,22.4-2.9,33.2,0.7c12.3,4.1,24.5,8.8,35.8,15.2c41.1,23.2,74,55.2,100.8,93.8
			c4.6,6.6,9.3,12.9,9.7,21.3c0.1,2.5,2.3,3.9,4.2,5.3c2.4,1.8,5.3,3,6.7,5.8c4.3,8.6,8.8,17.2,13,25.9c0.9,1.9,1.9,3.9,1.4,6.1
			c-2-0.8-2.3-3-3.5-4.5c-0.4-0.5-0.9-0.9-1.4-1.3c-0.1,0.6-0.3,1.4-0.1,1.9c1.1,2.6,2.4,5.1,3.5,7.7
			c19.4,44.6,29.1,91.2,30.3,139.7c0.5,21.5-0.8,43-1,64.5c0,4.5-0.3,9.1-1.7,13.3c-5.1,15.2-13,29.2-21.7,42.5
			c-3.3,5.1-6.8,10.3-11.7,14.2c-1.8,1.5-1.9,3.3-1.9,5.4c0,10.7-0.1,21.3,0.1,32c0.1,3.5-1.3,6.8-0.9,10.4c0.3,3.2,2.7,3.4,4.8,4
			c1.8,0.5,4,0.6,4.6-1.7c2.3-9.4,9.8-16.2,12.8-25.3c3.9-11.7,10.6-22.5,12.3-34.7c0.8-5.8,3.5-5.6,7.4-5.7
			c5.4-0.1,9.7,3.2,14.6,4.8c5.4,1.8,8.2,5.5,7.8,11.2c-0.4,5.5-1.1,10.9-1.7,16.4c-0.5,3.6-2.7,9.2-1.3,10.4c2.8,2.2,6.9-1,10.5-2
			c18.7-5.2,37.2-10.8,53.2-22.3c14.2-10.2,23.2-23.6,24.1-41.7c0.9-19.3-1-38.6-2.1-57.9c-2.1-34.5-9.6-68.1-17.1-101.7
			c-3.5-15.7-9.2-30.9-14.3-46.2c-3.5-10.2-7.9-20.1-12.3-29.9c-3.6-8-5.5-16.7-8.9-24.9c-0.7-1.8-2.2-3.4-1.8-5.5
			c2.2,1,2,3.5,3,5.2c0.5,0.9,0.2,2.4,1.8,2.5c-0.1-1-0.2-1.9-0.4-2.9c-4.8-16.3-8.3-32.9-12.7-49.3c-7.6-29-13.3-58.4-18.9-87.8
			c-1.2-6.5,0.5-13.6-1.2-19.9c-3.9-14.5-7.2-29.1-10.1-43.7c-0.2-2-1.6-3.8-3.5-4.4c-12.3-4.3-25.2-4.6-37.9-4.1
			c-13.7,0.5-26.3-2.7-39-6.6c6.5,1.3,13,2.7,19.5,4c0.6,0.1,1.8,0.2,1.8,0c0.3-0.8-0.6-1-1.1-1.1c-9.7-2.8-19.5-4.8-29.5-6.1
			c-12.1-1.5-23.2-6-33.7-11.8c-8.7-4.8-18.2-8-26.2-14.2c-2.5-2-4.1-1-4.8,2.1c-1.9,8.3-3.8,16.5-5.9,24.8
			c-0.6,2.5,0.2,3.6,2.5,4.4c3.3,1.1,6.6,2.3,9.8,3.7c13.2,5.7,26.2,11.6,37.8,20.3c0.8,0.6,2.3,1,1.7,2.5c-0.9-0.1-1.8-0.4-2.6-0.8
			c-16.6-7.8-32.9-16.3-50.6-22.1c-8.7-2.9-17.3-6.6-26.2-9.3c-8.3-2.5-16.6-5.1-25.4-5.1c-12,0-23.9-0.3-35.8,1
			c-13.4,1.4-26.9,1.9-40.3,3.8c-28.8,4.1-56.8,11.5-83.3,23.7c-0.9,0.4-1.8,1.7-3.1,0.7c0.8-0.8,1.7-1.5,2.6-2.2
			c4.7-2.5,9.4-5,14.2-7.5c1.8-0.9,3.1-1.7,1.8-4.1c-7.7-15.1-15.3-30.3-22.8-45.5c-1.1-2.3-2-2.3-3.4-0.3
			c-3.9,5.6-9.6,9.2-15.3,12.6c-15.2,9-30.5,17.8-45.6,26.9c-23.7,14.2-49.4,22.9-75.4,31.2c-2.4,0.8-4.1,1.6-5,4.2
			c-1,2.8-1.9,5.7-2.4,8.6c-2.1,12.8-4.1,25.6-6.4,38.4c-4.6,25.6-6.9,51.5-8.8,77.4c-1,13.3-0.9,26.6-1.6,39.9
			c-0.6,11.3-1.7,22.6-0.8,33.9c0.3,3.9,0.8,8.6-0.9,11.8c-4,7.6-7.1,15.7-9.2,24c-3.2,11.5-6.2,23.1-9.3,34.7
			c-12.4,46.6-21.2,93.9-22.5,142.2c-0.5,17.2-2.2,34.5,1.4,51.7c4.3,20.6,8.5,41.1,17.3,60.3C222.8,774.5,233.4,781.3,245,785.9z
			 M740,766.6c-0.8,1.4-2.3,2.3-3.9,2.4c-0.8,0.1-1.1-0.7-0.8-1.4c0.7-1.6,2.2-1.7,3.6-2.1C739.6,765.3,740.1,765.6,740,766.6z
			 M744.7,211.1c6.6,0.7,13.1,1.3,19.7,2c0.5,0.1,0.9,0.2,1.4,0.4c-0.4,0.2-0.9,0.3-1.4,0.4c-1.3,0.1-2.6,0-5.2,0
			c-4-0.5-9.3-1.2-14.5-1.9c-0.5-0.1-1.3,0.2-1.4-0.7C743.7,211.2,744.2,211.1,744.7,211.1z"/>
		<path fill="#D9C7D5" d="M694.8,924.5c-0.1-0.4-0.5-1-0.9-1.1c-1-0.2-0.9,0.7-1,1.3c-1,8.7-4.1,16.8-6.5,25.1
			c-0.2,0.5-0.6,1.3,0.3,1.5c0.2,0,0.7-0.6,0.9-1c1.6-3.8,3.1-7.7,4.6-11.6c1.3-3.2,3.3-6.2,3.6-10.2
			C695.6,927.4,695.3,926,694.8,924.5z"/>
		<path fill="#FFE3CE" d="M381.5,601c-2.5,2.4-4.7,4.9-8.5,5.5c-1.6,0.2-3,2-4.3,3.2s-1.5,3.9-0.1,4.3c6.1,2,4.3,7.3,5.4,11.4
			c0.5,1.7,0.1,3.7,2.2,4.6c0.7,0.3,1.5,1.3,2.1,0.6c0.4-0.7,0.5-1.5,0.1-2.2c-1.5-1.7-1.9-4-1-6.1c3-6.6,0.8-14.8,6.4-20.6
			c0.2-0.2,0.2-0.6,0.4-1.1C383.1,599.3,382.2,600.2,381.5,601z"/>
		<path fill="#FFCFBC" d="M726.9,750.7c0.1-13-3-25.1-5.7-37.3c-0.6-2.8-2-3.8-4.9-3.6c-5.6,0.5-11.2,1.7-16.6,3.5
			c-3.1,1-3.5,2.7-2.6,5.7c4,12.9,7.8,25.8,10.6,39c2,9.5,9.3,11.3,16.2,5.4C728.5,759.5,726.3,754.7,726.9,750.7L726.9,750.7z"/>
		<path fill="#D9C7D5" d="M519.3,820.3c-3.7-1.1-8.3-0.2-11.1-3.7c-2-2.5-5.2-3.9-8.4-3.7c-5.3,0.2-8.4-2.1-9.9-7.2
			c-0.8-2.6-2.1-5-5.4-5c-4.5,0-8.4-1.9-12.3-3.9c-4.3-2.1-8.5-4.6-12.5-7.4c-0.5-0.4-1.1-0.6-1.8-0.6c-0.6,0.2-0.1,0.7,0,1.2
			c2.7,6.6,6.1,12.4,13.3,15.1c19.7,7.3,37.7,19.2,59.2,21.5c1.7,0.3,3.5,0.8,5.1,1.4c-0.9-1.7-1.8-3.4-2.7-5.1
			C528.1,824,523.7,821.6,519.3,820.3z"/>
		<path fill="#D9C7D5" d="M460.6,801.9c-6.2-4.9-11-11.6-19.3-13.6c-12.1-2.9-23.9-7.1-35.2-12.5c-0.8-0.4-1.8-1.4-2.6-0.4
			c-0.9,1-0.1,1.9,0.2,2.8c1.1,3.3,2.2,6.6,3.3,9.9c0.1,0.4,0.1,0.9,0,1.4c-0.3-0.3-0.6-0.6-0.9-1c-0.5-0.9-0.8-1.8-1.3-2.7
			c-0.3-0.5-1.1-1.4-1.2-1.3c-0.9,0.5-0.5,1.4-0.3,2.1c1.2,4.2,2.5,8.3,3.7,12.4c0.5,1.9,1.7,2.5,3.6,2.7c16,0.9,31.9,1.8,48.6,2.8
			c0.2-0.2,1.8,1.1,2.3-0.4C461.7,803.2,461.3,802.5,460.6,801.9z"/>
		<path fill="#FFCFBC" d="M673.1,822.9c-2.8,7-4.6,14.4-5.1,22c-1.3,3.5,1.7,5,5.3,6.4c10.2,4.1,21.2,5.5,31.2,10.3
			c4.2,2,11.1-4.1,9.1-8c-4.7-9-5.8-20.5-17.2-25.3c-5.5-2.3-10.1-6.4-15.8-8.5C677.1,818.5,674.7,819,673.1,822.9z"/>
		<path fill="#D9C7D5" d="M693,905.8c0.5,0.4,0.7-1.5,1-2.3c-0.2-2.5-1.6-4.8-3.8-6.1c-1-0.6-0.9,0.7-0.6,1.1
			C690.8,900.9,690.8,904,693,905.8z"/>
		<path fill="#FFE3CE" d="M568.9,811.6c5.2-0.2,10.1-2.8,13.1-7.1c2.4-3.8,5.8-6.9,9.8-8.9c4.3-2.1,7-5.3,7.6-10.3
			c0.4-5.3,1.5-10.6,3-15.7c0.2-0.7,0.4-2,0.1-2.3c-0.9-0.8-1.8,0.3-2.6,0.7c-6.9,4.2-13.7,8.5-21,12.1c-8.3,4.1-16.2,9.2-24.3,13.8
			c-4.8,2.7-10.4,3.7-15.8,2.8c-11-1.5-20.3-7.4-30.7-10.4c-6.1-1.7-12.3-3.2-17.9-6.2c-0.8-0.4-2.4-1.2-2.6-0.9
			c-0.8,1.2,0.4,2.1,0.8,3.1s1.5,1.6,2.6,2.1c5,2.1,9.5,4.9,10.8,10.8c0.2,1,0.6,2.5,1.5,2.3c5.5-0.9,7.8,4.4,12,6
			c3.6,1.2,6.3,4,7.4,7.6c0.6,2,1.7,3.2,3.8,3.4c6.3,0.5,9.9,4.3,12.9,9.7c1.6,3,3.9,6.6,9.3,6.7l0,0c2.7,0.5,2.8-2.2,3.5-4.4
			C554.8,818.2,558.4,811.8,568.9,811.6z"/>
		<path fill="#B79FC3" d="M669,857.3c-4.2-4.3-5.8-10.5-4.3-16.3c1.6-7,3.7-13.8,6.3-20.4c1.8-4.5,4.9-5.9,9.1-4.5s4.6-0.3,4.8-3.9
			c0.8-12.8,2.9-25.5,6.1-37.9c4.7-18.4,4.9-36.7,2.2-55.1c-0.4-2.8-0.1-4.6,2-6.6c3.2-3.1,7.4-3.9,11.3-4.9
			c13.9-3.8,16-3.9,19.8,11.1c0.2,0.6,0.5,1.7,0.7,1.7c1.3-0.1,0.8-1.2,0.8-1.9c-1.1-11.5,0.1-23-0.2-34.5
			c-0.5-15.2-0.4-30.3-0.4-45.5c0-0.7-0.4-1.5,0.4-2.1c0.1,0.6,0.3,1.3,0.3,1.9c2.1,25.2,3.6,50.5,3.9,75.8c0,0.9-0.7,2.3,0.5,2.6
			s1.4-1.2,1.9-1.9c3.7-5.5,6-11.8,10.4-16.9c10.4-12.1,15.3-26.8,18.7-42c0.9-3.8,2.5-7.5,2.5-11.6c0.1-31.5,0.1-63-2.9-94.3
			c-1.5-15.2-4.1-30.4-7.6-45.3c-0.2-0.7-0.5-1.4-0.8-2.1c-0.3,0.3-0.8,0.6-1,1c-3,7.7-9.1,12.4-15.9,16.7c-12,7.5-24.6,13.3-39,14
			c-7.2,0.3-8-0.8-7.6-8.2c0.4-5.7,1.7-11.2,3.6-16.5c5.3-15.5,14.7-29.4,27.2-40c0.9-0.8,3.5-2.6,1.8-2.9c-4.1-0.8-5-4.4-7.6-6.3
			c-3.6-2.8-7.2-5.8-9.2-9.7c-4.2-8.4-10.2-15.6-14.6-23.8c-3.3-6.2-6-12.7-7.9-19.4c-1.7-6.3-2.8-12.7-1.4-19.2
			c0.8-3.7,2.7-5,6.5-3.5c5.9,2.3,10.4,6.5,15.5,9.9c2.3,1.6,5.8,5,7.4,3.3c2.1-2.2-0.8-5.8-2.4-8.5c-7.9-12.6-17.4-24-27-35.3
			c-27.6-32.6-60.2-58.8-98.7-77.5c-10.1-4.9-20.5-8.8-32-8.1c-24.4,1.3-48.4,4.4-71,14.8c-13.1,6-26.9,10.7-38.2,20.1
			c-22.2,18.7-42.1,39.9-59.3,63.3c-6.9,9.3-14.5,18.3-18.7,29.4c-0.1,1.6-0.1,3.3-0.4,4.9c-5.4,30.5-8.5,61.1-5.2,92
			c1.1,9.9,0.5,19.9,3.3,29.6c1.2,4.2,2,4.2,5.3,1.6c13-10.5,27.3-18.4,44-21.6c6.5-1.4,13.3-1.2,19.8,0.4c0.9,0.3,2.6,0.4,2.4,1.3
			c-0.3,1.5-1.9,0.8-2.9,0.7c-4.4-0.6-8.5-1.8-13.1-1.3c-19.5,2.1-35.3,12.2-50.8,22.9c-1.9,1.3-2.2,2.8-1.8,5.1
			c4.1,23.2,12.9,44.9,22.4,66.3c1.3,2.9,3.5,3.8,6,2.8c3.4-1.2,0.2-3.2,0-4.8c0-0.8-0.6-1.8,0.2-2.2c0.9-0.4,1.5,0.5,1.9,1.2
			c1.2,2.1,1.8,4.5,5,4.8c12.9,1.2,25.8,2.7,38.8,3.1c6.4,0.2,6.5,0.2,4-5.6c-7.1-15.9-11.6-32.7-15.7-49.5
			c-2.6-10.5-4-21.3-4.2-32.1c0-1.1-0.4-2.7,1.2-2.9s1.5,1.5,1.8,2.6c2.1,6.7,2.7,13.8,4.7,20.3c5,15.7,11,31,16.6,46.5
			c0.7,2,1.8,3.7,3.8,4.4c3.7,1.6,7.1,3.7,10.2,6.2c0.6,0.5,1.7,1.1,2.1,0.8c0.8-0.5,0.2-1.5,0-2.3c-1.5-4.9-3.5-9.7-4.6-14.8
			c-3.1-14.8-4.9-29.8-8.9-44.4c-9.2-33.4-11.2-67.6-9.6-102c0.3-7.6,1.4-15.2,2.2-22.8c0.2-1.1,0.6-2.2,1-3.2
			c0.9,1,0.4,2.2,0.3,3.2c-0.5,4.6-1.3,9.2-1.5,13.9c-1.8,46.8,2.3,92.7,19,137.1c7.6,20.1,18.1,38.5,27.9,57.4
			c0.7,1.3,1.5,3.4,3,2.9c1.4-0.5,0.5-2.6,0.4-4c-0.5-4.3-1.8-8.5,0.4-12.7c1.3-2.4,2.6-2.7,3.8-0.3c1.5,2.8,2.6,5.8,3.8,8.7
			c1.4,3.3,3.6,5.8,7.5,5.5c14.5-1.4,28.9,1.8,43.3,0.3c6.5-0.7,7.1-1.3,6.7-8.1c-0.1-2.4-3.2-5.9,0-7.1c2.8-1,3.2,3.5,4.8,5.4
			c1.5,1.7,2.5,4.9,4.7,4.6s2.6-3.5,3.6-5.6c0.2-0.3,0.3-0.6,0.4-0.9c0.1-0.6,0.5-1.2-0.2-1.8c-0.3,0.4-0.6,0.8-0.9,1.2
			c-0.9,1.7-1.4,5.2-2.9,4.5c-1.8-0.9,0.2-3.9,0.7-5.9c0.7-2.7,1.7-5.4,2.6-8.1c2-5.7,3.7-11.4,6.4-16.8c0.4-0.9,1-2.2,0.2-2.8
			c-1.1-0.7-1.6,0.8-2,1.5c-2.2,4.5-6.8,6.2-10.3,9.3c-0.4,0.4-1.3,0.7-1.7,0.5c-1-0.6-0.5-1.5,0-2.1c0.6-0.8,1.3-1.5,2.1-2.1
			c9.7-6.9,14.9-16.2,16-28c0.3-3.7,0.5-7.3,0.8-11c2.7-30.3,1.8-60.5-0.8-90.8c-0.1-0.7-0.8-1.5,0.3-2.1c0.3,0.6,0.5,1.1,0.7,1.8
			c1.7,18.1,3.2,36.1,3.2,54.3c0,16.6-1.1,33.3-2.5,49.8c0,0.6-0.4,1.5,0.5,1.5c0.4,0,0.9-0.9,1.1-1.4c1.8-3.6,3.4-7.2,5.2-10.8
			c6.6-13,11.6-26.5,13.9-41c0.2-1,1.5-2.2-0.1-3.1c-1.3-0.8-1.3-0.8,0.7-2.1c2.1-1.3,2.7-3.4,3.1-5.5c3.6-15.6,5.9-31.4,7-47.4
			c1.4-21.8-2.5-43.5-4-65.2c-0.4-6.6-2.3-13.1-3.5-19.7c0-0.8,0-1.6,0.2-2.4c0.4,0.7,0.8,1.5,1,2.2c2.5,12.9,5.7,25.7,6.8,38.9
			c0.4,4.6,0.2,9.4,2.9,13.5c4,6.1,8.1,12.2,12.2,18.2c5.5,7.9,12.2,15.1,16.4,23.8c6.2,12.8,14.6,24.2,21.7,36.4
			c0.4,0.7,1.3,1.7,1.7,1.5c1.2-0.5,0.6-1.7,0.5-2.5c-2.1-17-4.5-34-8.5-50.7c-6.3-26.3-14.6-52-25-76.9c-0.3-0.8-1.2-1.7-0.5-2.7
			c0.5,0.6,1,1.3,1.4,2c18.6,39.3,31.2,80.3,36.1,123.6c1,9.3,0,19.2,7.1,27c1.1,1.2,2.5,4,0.8,4.8c-1.9,1-2.2-2.2-3.4-3.4
			c-0.9-0.9-0.9-3.2-2.3-2.8s-0.3,2.3-0.4,3.6c0,0.5,0.1,1,0.2,1.5c1.3,14.8,2.1,29.6-0.4,44.2c-0.9,6.3-1.5,12.7-1.6,19.1
			c-0.5,13.6,0.7,27.4-2.2,40.8c-3,14.1-3.3,28.6-6.2,42.8c-2.5,11.8-3.3,24-4.9,36.1c-2.9,22.4-7.2,44.7-10.9,67
			c-5.8,34.8-11.9,69.5-24.7,102.7c-0.4,0.9-0.7,1.9-0.7,2.9c0.6,15.5-3.7,30.3-7,45.2c-0.8,3.8-4,7.1-2.3,11.4
			c-4.9,2.8-5.6,8.8-7.7,13c-8.7,18-19.1,35-30,51.8c-0.4,0.7-1.4,1.4-0.8,2.1c0.9,1.2,1.8-0.1,2.5-0.6c5-3.9,9.7-8.1,14.8-11.8
			c34.7-25.1,62.2-56.7,83.8-93.4c1.5-2.6,2.3-5.3,1.2-8.1C677,873.6,675.6,864.3,669,857.3z M731.5,646c0.8-7.6,1.5-15.3,2.6-22.8
			c4.1-25.8,6.5-51.9,7-78c0-1.2,0-2.3,0.1-3.5c0.2-1.6-0.6-4.3,0.9-4.4s0.8,2.8,0.8,4.3c0.1,6.8,0.1,13.6,0.1,20.4
			c0.6,28.3-3.4,56.1-9.2,83.7c0,0.2-0.1,0.3-0.1,0.5c-0.6,1.1-0.1,3.4-1.5,3.2S731.3,647.2,731.5,646z M414,586.4
			c-0.1-1,1.1-1.2,1.9-0.9c1.5,0.4,3.5,0.5,4.1,2.1c0.2,0.7-1.6,0.3-2.6,0.5C416.3,587.5,414.2,588.7,414,586.4z M420.9,597.5
			c-1.2-1-3.7,0.5-4.4-1.8c-0.1-0.5,1.5-0.5,2.2-0.2c1.5,0.5,3.6-0.1,4.4,1.7C423.3,597.8,421.8,597.4,420.9,597.5z M421.5,505.9
			c-6.4,0.8-12.7,2.1-19,3.6c-0.6,0.2-1.2,0.6-1.8-0.2c0.4-0.3,0.8-0.5,1.3-0.7c6.2-1.8,12.3-3.7,18.9-3.6c0.7,0,1.3,0.1,2.7,0.3
			C422.4,505.7,422,505.8,421.5,505.9z M589.9,540.6c-0.3,1.5,0,3.2-1.6,4.3c0-1.5-0.2-3-0.1-4.4c1.6-19.2,3.9-38.4,3.6-57.8
			c-0.2-21.8-1.7-43.6-4.4-65.2c-0.1-1.1-0.1-2.3,0-3.4c1.1,0.8,0.8,2,1,3.1c3.8,23,5.4,46.2,5.5,72.9
			C594.4,504.8,592.9,522.8,589.9,540.6z M680.8,573.6c2.6,1.8,5.1,3.6,7.6,5.5c0.1,0.1,0.2,0.3,0.3,0.4c0.2,0.7-0.1,1-0.8,0.8
			c-0.6-0.3-1.2-0.6-1.7-1c-2.1-1.7-5-2.6-6.3-5.3C680.3,573.8,680.7,573.5,680.8,573.6z"/>
		<path fill="#D9C7D5" d="M590,808c7.3-5.9,17.4-9.2,20.3-19.9c1.1-4.1,4.9-5.7,8.6-5.2l0,0c4,0.2,16.7-7.4,17.5-10.5
			c0.7-2.7,1.5-6.2-0.6-8.1s-4.5,0.6-6.5,2c-1.4,1-2.9,2-4.6,1.2c-3.1-1.6-5.2,0-6.8,2.2c-5.5,7.3-11.8,14-15.9,22.3
			c-1,1.9-2.2,4.2-4.3,4.5c-6.3,0.9-10.3,4.6-13.6,9.8c-3.4,5.5-9.4,9.3-14.9,9.5c-8.3,0.4-10.7,4.9-13.3,11c-1.8,4.4,0.4,4.8,3.6,5
			c1.5,0.1,3-0.5,4-1.7c3.3-3.7,7.5-6.6,11.2-9.7C579.9,816.3,585,812.1,590,808z"/>
		<path fill="#D9C7D5" d="M612.6,925c4.7-13.2,8.6-26.6,10-40.5c0.1-0.9,0.7-2.4-0.3-2.5s-1.1,1.4-1.5,2.3
			c-4.8,10.8-9.5,21.6-15.4,31.8c-2.4,4.2-5.2,8.1-7.7,12.2c-0.9,1.4-1.8,3.1,1,3.3l0,0c3.8-1,7.3-1.9,10.8-2.9
			C611.2,928.1,612,926.6,612.6,925z"/>
		<path fill="#B79FC3" d="M628.2,831.1c2.8,3.5,3,0.5,3.8-1.4c7.3-16,9.5-33.1,12.2-50.2c2.8-17.8,6-35.4,9.1-53.1
			c0.2-0.9,0.3-1.8,0.2-2.8c-1.5-0.4-1.7,1.2-2.4,2c-3.3,3.7-6.2,7.9-9.9,11.2c-9.5,8.6-19.5,16.7-30,24c-3.2,2-5.1,5.4-5.2,9.1
			c-0.3,2.5-0.8,4.9-1.4,7.3c-0.2,0.9-1,2,0.2,2.6c0.9,0.4,1.2-0.9,1.7-1.5c2.9-3.9,5.5-7.9,8.6-11.6c2.5-3.1,5.6-4.8,10.1-3.7
			s11.4-3.7,12.8-8.1c1.6-5.1,3.2-10.2,5-15.2c0.7-1.8,0.9-5.3,3.2-4.7c1.7,0.4,0.1,3.6-0.3,5.4c-2.1,9.5-7.7,18.3-4.9,29.2h0.1
			c-3.5,6.2,2.4,12.6,0.3,19.5c-0.9,3-0.4,3.2-3.2,1.7c-1.4-0.7-1.7,0.4-2.3,1c-11.5,11.3-25,19.8-38.7,28.1c-5.5,3.3-11,6.8-17,9.4
			c-1,0.4-2.4,0.8-2.2,2.3c0,0.2,1.8,0.3,2.7,0.3c5.2-0.1,10.3,0,15.5-0.3c9.4-0.6,19,1.3,28.3-1.2
			C625.9,829.9,627.3,830,628.2,831.1z"/>
		<path fill="#D9C7D5" d="M610.3,805.7c8.4-5.5,15.9-12,23.6-18.4c1.9-1.4,2.9-3.7,2.7-6l0,0c-0.1-1,0.6-2.6-0.6-3.4
			c-1.5-1-2.3,0.8-3.3,1.5c-3.5,2.8-6.9,5.8-10.3,8.6c-1.1,0.9-2.6,2.7-3.4,0.3c-1.9-5.2-4-1.9-5.4-0.1c-1.7,2.2-2.5,5.1-3.8,7.6
			c-1.1,2-1.6,4.5-4.2,5.3c-7.8,2.5-12.7,9.3-19.2,13.6c-6,4-11.4,9.4-17,14.2c-0.8,0.7-2.6,1.1-2,2.4s2.3,0.8,3.1,0.1
			c6.5-5.4,15-7,21.7-11.8C598.4,815.2,603.9,809.8,610.3,805.7z"/>
		<path fill="#70316E" d="M650.6,578.1c0.4-0.6-0.9-0.8-1.4-0.6c-2.2,0.6-4.9-0.1-6.5,1.8c-0.7,0.8,1,0.7,2.1,1.1
			C646.2,578.7,649.1,580.2,650.6,578.1z"/>
		<path fill="#FFCFBC" d="M838.7,851.6c6.4-8.3,10.5-17.7,14.1-27.4c2-5.4,1.1-9.7-2.4-13.8c-4-4.7-7.3-4.5-10.8,0.4
			c-7.2,10-13.3,20.7-18.2,32c-0.7,1.7-0.5,3-0.1,4.7c1.1,4.8,6.2,3.5,8.6,6.3c0.9,1.1,2.3,1.2,3.7,1.2
			C836,855.1,837.3,853.4,838.7,851.6z"/>
		<path fill="#70316E" d="M663.9,624.6c0.3-5.7-0.5-11.3-1.3-16.9c-0.9-6.6-3.1-13-6.2-18.8c-1.4-2.6-4-6.3-6.2-5.6
			c-4,1.2-7.1-0.5-10.6-0.9s-7,0.5-9.9,2.5c-0.5,0.3-1.2,0.8-1.3,1.3c-0.1,0.8,0.9,0.7,1.4,1c1.1,0.5,3.5,0.3,3.1,1.4
			c-0.4,1.5-2.6,0.7-4,0.6c-0.6,0-1.3-0.5-1.9-0.6c-2.6-0.4-3.9,1.4-5,3.3c-0.7,1.3-1.3,3.1,0.1,4.1c1.9,1.5,3.8,0.3,5.4-0.9
			s3.9-1.8,5.3-3.7c0.6-0.9,1.8-0.6,2.7-0.1c0.3,0.3,0.4,0.8,0.3,1.2c-1,4.5-10.8,9.1-14,6.1c-3.8-3.5-4.4-0.6-5.2,1.9
			c-2.4,7.4-4,15.1-3.7,21c-0.4,10.6-1.6,19.4,7,25.2c0.5,0.5,0.8,1.1,1,1.7c2.1,6.4,6.7,8.6,13.1,8.2c3-0.1,6,0,9,0.2
			c2.6,0.1,4.7-0.8,6.9-2.2c5.1-3.1,6.7-9.3,11.6-12.6c0.8-0.5,2.4-2.8,0.7-3.7c-2.9-1.5-1.6-1.8,0.2-2.5c1.5-0.5,0.8-0.8-0.1-1.3
			c-2.2-1.2-1.3-2.9-0.2-4.2C663.8,628.9,663.8,626.8,663.9,624.6z M657.9,608.5c-6.7,4-3.5,10.2-3.6,15.6
			c-0.1,10.9-6.1,17.7-17.1,18.9c-7.7,0.9-14.2-4-16.2-12.3c-0.7-2.9-0.9-5.9-1.3-9.3c0.3-1.5,0.6-3.2,0.9-5s1-2.1,2.7-1.5
			c6.5,2.2,12.8,0.7,18.9-1.5c4.8-1.7,9.9-3.1,14.1-6.2c0.5-0.4,1.2-0.8,1.7-0.2C658.2,607.7,658.2,608.1,657.9,608.5z"/>
		<path fill="#F3AA94" d="M566.6,751.9c-3.5,0.7-5.7-1.9-5.9-5.3c-0.1-2.2-1.1-4.2-2.8-5.5c-7.8-6.8-16.2-10.5-26.4-5.3
			c-2.5,1.3-5.4,1.9-7.8,3.4c-9.8,6-17.4,13.7-18.8,26.5c1.9,8,1,18.3,13.2,20.5c1.7,0.3,3.1,1.8,4.8,2.6
			c10.8,5.2,21.6,8.4,32.9,0.7c7.1-4.9,14.9-8.8,22.4-13.1c2.5-1.4,2.8-3.2,2-5.8c-2-5.8-4.9-11.3-8.5-16.3
			C570.5,752.5,569.5,751.3,566.6,751.9z"/>
		<path fill="#F0BDD8" d="M0,0v1024h198.8c-2.7-15.6-0.6-30.7,5.3-45.5c2.8-7,2.1-14.8,2.6-22.2c0.4-6.6,0-13.3,0.3-20
			c0.4-7.6,2.5-9.6,10-10.2c8.4-0.7,8.3-0.7,10.9-8.7c3.3-10.1,6.4-20.3,9.2-30.6c0.9-3.2,0.3-5.3-2.3-7.3
			c-6.8-5.2-11.7-12.3-16.6-19.2c-3.6-5.1-2.6-10.6,0.1-16.1c2.5-5.2,7-5.8,11.6-6.1c3.3-0.3,5.8,2.8,9.2,3.3
			c4.8,0.7,10,0.6,14.4,3.5c0.6,0.4,1.2,0.7,1.6-0.2c0.5-1.1,0.4-2.4-0.3-3.3c-3.6-5.2-7-10.3-13-13.5
			c-12.1-6.3-20.9-16.3-28.5-27.4c-3.9-5.8-1.1-14,6.7-18.6c5.1-3,3.9-4.8,1-8.4c-10-12.4-14.1-27.4-18.4-42.3
			c-5.5-19.3-7.6-39.1-9.1-59c-0.1-1.8,2.5-2.7,2.2-5.3c-0.7-6.3-0.9-12.6-1-19c-0.4-29.9,3.4-59.4,9.3-88.7
			c5.4-27.1,12.8-53.8,20.9-80.2c2.8-9.2,6.3-18.2,9.6-27.3c4.4-12.1,3.2-24.7,2.7-37.1c-1-24.2,0.3-48.3,2.6-72.3
			c3.2-33,8.5-65.7,15.9-98c4.6-20.4,5.4-41.2,9-61.6c2.9-16.2,6.8-32.2,10.8-48.2c4.7-19.2,10.7-38.2,17.8-56.7
			c6.5-16.7,16.2-31.3,27.8-44.7c1.3-1.3,2.7-2.5,4.3-3.4c4.3-2.8,7-2.2,9.3,2.5c11,22.6,24.2,44,37.5,65.3
			c10,15.8,18.6,32.2,26.9,48.9c10,19.9,19.3,40.2,28.8,60.3c1.9,4.1,3.3,5.9,8.8,3.7c25.1-9.6,51.5-15.3,78.3-16.8
			c18.8-1.2,37.6-1.4,56.4-1.6c13.2-0.1,25.5,4.4,38,7.6c3.8,1,8.2,4.4,11.1,2.7c2.1-1.2,1.4-7,2-10.7c2.6-15.2,8-29.5,12.9-44
			c11.1-32.9,25.8-64.2,42.1-94.8c3-5.7,5.9-11.6,9.2-17.1c7.6-12.4,13.9-9.7,21.4-1.3c13.3,14.5,21.5,32.1,29.3,49.8
			c4.4,9.9,9.8,19.3,14.8,28.9c9.2,17.8,16.9,36.2,23.1,55.2c5.6,16.9,10.7,34,13.8,51.5c2.5,14.2,4.7,28.5,8.3,42.6
			c1.6,6.1-0.1,12.6,0.8,18.9c1.7,12.6,6.7,24.4,9.2,36.8c2.1,10.4,5.8,20.6,6.9,31.1c2.3,22.1,12.4,42.1,16.2,63.7
			c4.5,26.2,17.7,49.5,25.3,74.6c4.2,14.2,7.3,28.7,9.3,43.4c1.6,11.3,5.3,22.3,7.9,33.5c9,39,13.4,78.4,11.7,118.4
			c-0.8,19.4-11.4,33.7-27,44.5c-16.8,11.7-36.2,17.4-55.6,22.8c-3.5,1-6.4,2.1-8.7,5.1c-3.2,4.1-6.8,7.8-10.2,11.6
			c-2.2,2.4-2.8,5.9-1.5,8.8c1.5,3.8,4.7,6,8,7.9c1.2,0.7,2.2-0.5,2.8-1.5c2.7-4.3,6.5-7.6,10.2-10.9c5.8-5.2,9.9-11.6,14.2-17.9
			c4.5-6.6,10.4-7.4,18.3-3.3c8.2,4.3,11.2,9.8,8.3,17.4c-5,12.9-10.2,25.7-20.7,35.4c-3.6,3.3-3.5,8.5-5.5,12.7
			c-0.2,0.5,0.2,1.7,0.7,2.2c0.9,1,1.8,0.2,2.6-0.4c5.3-3.4,10.8-6.6,16-10.2c4.7-3.2,10-3.9,13.9-1.3c5.6,3.8,9,10.9,7.5,16.2
			c-3.3,11.6-7.9,22.6-15.5,32.2c-1.8,2.3-3.3,5-7.2,4.1c-2.5-0.6-1.7,1.4-1.1,2.5c8.3,13.3,13.5,28.2,21.1,41.9
			c3.2,5.8,8.1,7.7,14.5,9.7c10.8,3.3,22.2,6.1,31.6,12.9c3.8,2.6,6.1,6.9,6.3,11.5c1.3,22.3,2.3,44.6-2,66.7
			c-1.2,6.3-2.8,12.4-5,18.5c0.1,0.7,0.3,1.4,0.4,2.1H1024V0H0z"/>
		<path fill="#D9C7D5" d="M457.7,774.2c-2.5-0.7-3.7-0.6-3.2,2.7c0.7,5.1,2.5,8.9,7.7,11.1c6.8,2.9,12.7,8.4,20.3,9
			c5.4,0.5,8.8,2.6,10.3,7.7c0.9,3.1,2.7,4.5,6.1,4.8c4.3,0.4,8.6,1.1,11.5,5c1,1.3,2.7,1.2,4,1.7c6.1,2.5,12.9,3,18.5,6.8
			c-0.6-4.1-4.3-4-7.2-4.8c-2.7-0.7-5.6-0.9-6.7-4.3c-2.5-7.5-9.9-8.8-15.8-11.7c-1.9-0.9-3.8-1.3-5.4-3c-3.2-3.7-6.1-8.7-10.3-10.4
			c-5.7-2.4-10.9-5.6-16.4-8.3C466.8,778.3,462.6,775.6,457.7,774.2z"/>
		<path fill="#70316E" d="M648.3,615.4c-2,0.7-5.5,0.3-3.8,4.5c0.9,2.7,1,5.6,0.2,8.3c-0.9,3.3-3.5,4.2-6.6,3.9s-4.3-2.2-4.5-5
			c-0.1-1-0.1-2,0-3c0.4-3.8,0.1-6.9-4.6-5.3l0,0l0,0l0,0c-7.1-0.2-7.6,0.5-6.3,7.2c0.5,3.3,1.7,6.4,3.4,9.3c2.6,4,6,5.8,11,5
			c11.4-1.8,16.2-9,14-21.8C650.8,617.1,651.7,614.2,648.3,615.4z"/>
		<path fill="#D9C7D5" d="M697.7,905.2L697.7,905.2c-0.5-0.1-1.1,0.2-1.2,0.7c0,0.1-0.1,0.3,0,0.4c0,3-1.5,5.9-0.6,8.8
			c0.8,2.6,0.4,5.6,2.7,7.6c1.8-2.1,2-4.8,2.7-7.4c0.2-0.8,0.7-1.5,0.8-2.3C702.2,911.4,698.9,905.4,697.7,905.2z"/>
		<path fill="#D9C7D5" d="M479.6,775.7c-17-5.2-32.2-13.8-46.1-24.7c-5.9-4.6-12-8.9-17.5-14c-10.5-9.7-19.9-20.6-29.5-31.2
			c-0.6-0.6-1.2-1.1-1.8-1.6c-0.1,0.8-0.1,1.5,0,2.3c4.8,20.7,9.8,41.4,16.1,61.8c0.6,2.3,2.4,4,4.7,4.4
			c14.2,4.1,28.3,8.7,41.4,15.8c0.9,0.5,1.9,1.2,3,0.4c0-0.1-0.1-0.1-0.1-0.2c-3.6-2.8-5.3-7-7.2-10.8c-3.8-7.4-7.2-15-10.8-22.5
			c-0.3-0.7-1.2-1.7-0.5-2.2c0.7-0.4,1.2,0.8,1.6,1.4c3.2,6.4,6.4,12.8,9.6,19.2c2.5,5,4.9,9.9,7.3,14.9c0.1,0,0.1,0.1,0.2,0.2
			c0,0,0.1,0,0.1-0.1l-0.1,0.1c1.9,1.9,2.5,4.7,4.9,6.2c0.7,0.4,1.4,1,2.2,0.6c-0.1-0.6-0.4-1.1-0.6-1.6c-2.4-4.9-4-10.2-4.7-15.7
			c-1.2-7.6,0.4-9.1,7.9-7s13.9,6.3,20.7,9.9c1.8,0.9,3.5,1.7,5.3,2.6c-0.1-2.4-1.8-4.1-2.8-6.1C482.1,776.8,480.9,776,479.6,775.7z
			 M438.6,777.2c0.3,0.5,1.1,1.1,0.3,1.6c-0.2,0.1-1.1-0.5-1.5-0.9c-7.4-8.6-12.6-18.6-18.3-28.3c-0.2-0.4-0.1-0.9-0.2-2
			c0.9,1,1.2,1.4,1.5,1.8C426.5,758.6,432.6,767.9,438.6,777.2z"/>
		<path fill="#FFCFBC" d="M826.6,822.5c0.8-1.5,2.9-2.3,2.4-4.5c-1.6,0.8-3.2,1.6-4.8,2.4c-1.2,0.5-1.4,1.5-1.6,2.7
			c-0.3,2.1-1.8,1.6-3,0.7c-4.2-2.9-5.8-8.5-3.7-13.2c1.7-4-0.1-4.1-3.2-3.7c-1.5,0.2-3.6,2-4.5,0.1c-1.3-2.7-3.9-3.5-5.8-5.2
			c-2.8-2.4-4-5-2.9-8.8c2-6.3,3.2-12.9,6.2-19c0.2-0.5,1.1-1.1,0.2-1.6c-0.2-0.1-1,0.7-1.4,1.2c-4,4.3-7.6,8.9-12.2,12.5
			c-0.5,0.4-1.1,0.9-1.3,1.4c-0.2,1.1,1.9,2.6-0.4,3.2c-2,0.5-2.1-1.7-3-2.7c-1-0.9-2-1.7-3.1-2.5c-6.1-4.8-6.8-11.4-6.1-18.5
			c0.2-1.5,0.7-3.1,2.3-3.6c3.3-1,5.1-3.7,7.1-6.1c1.3-1.5,3.5-2.3,3.7-4.8c-2.4,0.7-4.7,1.6-6.2,3.9c-0.8,1.3-1.7,2.5-2.7,3.6
			c-1,1.2-2.4,1.9-3.9,1.9c-6.3,0.1-10.1-3-12.5-8.8c-3.3-7.9-2.8-15.9-1.4-24c0.2-0.9,0.6-2.4-0.4-2.6c-1.3-0.3-1,1.4-1.3,2.2
			c-4.7,15.9-12.5,30.4-20.3,44.9c-0.6,1.2-1.3,2.3-2.8,2.6c-4.5,1-11.7-4.5-12.1-9c-0.1-0.9,0.5-2.3-0.6-2.6
			c-0.6-0.2-1.6,0.9-2.4,1.5c-2,1.6-3.5,3.8-6.7,4c-7,0.3-11.1-2.3-13.2-9.4s-3.8-14.1-5.8-21.2c-0.3-1,0.1-3.1-1.1-2.8
			c-1.4,0.3-0.5,2.3-0.4,3.4c1.2,9.8,1,19.6-0.6,29.3c-0.4,2.3-0.7,4.2,1.8,5.4c0.9,0.4,1.8,1.3,1.2,2.4c-0.5,0.9-1.7,1.2-2.6,0.7
			c-4.2-1.5-4,1.7-4.1,4c-1,10.4-2.6,20.8-5,31c-1,4.8,0.5,6.5,4.2,8.8c5.3,3.2,11.8,4.6,15.4,10.4c3.4,5.5,6.3,11.3,9.7,16.9
			s-2.6,16.7-9.3,16.7c-6,0-13-0.2-17.9-3s-10.4-3.9-15.1-7c-0.7-0.4-1.3-1-2.2-0.7c0.3,0.7,0.6,1.4,1,2.1c3.7,5,9.6,8.9,7.3,16.6
			c-0.1,0.4,0.3,0.9,0.5,1.4c2.1,4.9,4.9,9.5,8.2,13.6c4.8,5.8,9.2,11.8,13.1,18.2c4.3,7,7.9,8.9,16.1,7.3
			c9.4-1.9,18.9-3.7,28.3-5.6l0,0c3.2-0.1,6.4,0.6,9.3,1.9c1.5,0.6,3,2,0.5,3c-3.1,1.1-1.7,1.4,0,2.2c7.4,3.3,15.5,5.2,21.6,11.1
			c1.1,1.1,2.3,0.8,3.6,0.1c6.4-3.3,12.7-6.5,18.3-11.2c1.8-1.5,4.5-2,5.3-4.3c2.1-6.1,3.9-12.4,5.7-18.6c0.2-0.8,1-2.8-1-2.3
			c-2.7,0.7-2-1.1-1.8-2.1c2.2-10.1,4.4-20.2,8.6-29.7c1.6-3.6,4.8-6.3,0.2-9.8c-1-0.8-0.5-2.2-0.6-3.3
			C817,836.7,822.6,829.9,826.6,822.5z M721.9,831.7c0.4-1,1.4-0.6,2-0.5c7.2,1.6,14.4,3,20.8,6.7c0.6,0.3,1.7,0.5,1.3,1.6
			c-0.1,0.2-1.2,0.1-1.5,0.1c-7.2-1.7-14.3-4-21.2-6.9C722.8,832.5,721.8,831.8,721.9,831.7z M747.1,876.3c-7.4-7-14.8-14-22.1-21
			c-0.8-0.8-2.1-2.2-1.3-3c1.4-1.4,2.2,0.6,3.1,1.3c6.2,5.3,12.3,10.7,18.4,16.2c1.9,1.7,3.3,3.8,4,6.2
			C748.6,878.2,747.6,876.9,747.1,876.3z M798.1,840.1c-6.4,2.2-13.1,3.9-19.8,5c-0.6,0-1.3,0-1.9,0c0.4-0.4,0.8-1,1.3-1.3
			c6.4-2.9,13.2-4.9,20.2-5.8c0.7,0.1,2.1,0.2,2.1,0.5C800.3,839.7,799,839.8,798.1,840.1z"/>
		<path d="M449.9,789.1l0.1-0.1l0,0C450,789,449.9,789,449.9,789.1L449.9,789.1z"/>
	</g>
</g>
</svg>
