<?xml version="1.0" encoding="utf-8"?>
<!-- Generator: Adobe Illustrator 24.1.0, SVG Export Plug-In . SVG Version: 6.00 Build 0)  -->
<svg version="1.1" baseProfile="tiny" id="图层_1"
	 xmlns="http://www.w3.org/2000/svg" xmlns:xlink="http://www.w3.org/1999/xlink" x="0px" y="0px" viewBox="0 0 1024 1024"
	 xml:space="preserve">
<g id="图层_1_x5F_复制">
	<path d="M292,1025c-4.7-7.2-4.6-9.8,0.8-16.5s10.8-14,16.7-20.5c8.4-9.1,9.7-20.5,11.6-31.8c0.1-0.5,0.1-1-0.1-1.5
		c-6.5-9.4-0.1-17.5,2.9-25.8c2.1-5.9,4.3-11.4,3.9-17.8c-0.4-4.1,1.5-8.1,4.9-10.4c3.8-2.7,5.6-6.5,6.3-10.9
		c0.9-5.9,3-11.7,6.1-16.8c1.9-3.1,2.6-6.8,1.9-10.4c-1-6.6-2.1-13.2,3.5-18.8c1.8-1.8,0.3-3.9-1.3-5.2c-8.6-7.1-12.2-16.8-16-26.9
		s-5.9-20.7-10.7-30.3c-5.4-10.8-6.4-21.9-4.1-33.5c4.1-20.1,4-40.3,1.2-60.6c-0.6-4,0-8.3,0.7-12.4c0.7-4,0.3-8-1.2-11.7
		c-7.2-17.7-5.6-35.9-3.4-54.2c1-8.6,2.5-17.1,3.8-25.7c1.1-7,0.4-14.1-2-20.7c-8.6-22.2-6.2-44.1,0.7-66c1.5-4.6,2.7-9.2,4.1-13.9
		c1.2-3.9,4.1-6.4,7-8.9c10.4-9,22.7-15.1,34.8-21.4c3.5-1.8,3.2-2.8,0.9-5.4c-8.6-10-16-20.9-23.1-31.9c-1.4-2.2-3-4.4-4.7-6.4
		c-3-3.5-4.1-7.6-4.5-12.3c-1.9-24.5,1.2-48.7,4.4-73c6.1-46.6,13.9-92.8,27.2-138c1.8-5.8,1.6-12.1-0.6-17.8
		c-7.3-19.9-11.2-40.8-11.7-62c0-0.3,0-0.7,0-1c0.7-18.4,2.5-18.8,18.8-20.8c19.6-2.4,38.9,0.2,58,4.4c6.5,1.6,13.4,0.8,19.3-2.3
		c28.8-15.2,59.3-21.4,91.7-18c23.8,2.5,46.7,10.1,67.2,22.3c5.2,3,10.3,3.8,16.2,3.2c23.4-2.5,46.8-4.2,69.9,2.4
		c8.7,2.5,10.5,5.2,9.1,14.2c-1.4,9.5-5.8,18-10,26.5c-7.2,14.5-15.5,28.3-26.5,40.3c-1.8,1.9-1.5,3.9-1.1,6
		c3.1,17.7,8.1,35,12,52.5c4.4,19.6,9.4,39.2,13,59c2.6,14.2,3.2,28.8,5.5,43.1c1.8,11.3,3.9,22.7,4.3,34.2c0.2,7.1,0,14.3-0.2,21.5
		c-0.1,3.3-1.7,6-3.8,8.5c-9.6,11.1-20.1,21.4-31.4,30.7c-5.1,4.2-5.2,4.4,0.4,8.3c13.7,9.5,27.2,19.6,37.9,32.4
		c8.3,10,14.8,21.1,12.5,35.7c-3.5,22.3-5.5,44.9-11.4,66.9c-1.7,6.4-2.8,13-5.1,19.3s-1.4,13,1.1,19.1c5,12.1,4.2,23.5-2.2,34.9
		c-3.9,6.9-2.2,14.4-0.6,21.5c2.3,10.7,5.3,21.3,7.9,32c1.1,4.4,0.5,9.1-1.8,13.1c-2.2,3.9-2,7.6-1.2,11.5
		c1.5,6.9,1.8,13.5-2.6,19.6c-2.5,3.6-1.9,8-2.7,12c-2.6,11.7-6.7,23-12.2,33.7c-4,7.8-10.2,10.9-18.8,9.9
		c-14.3-1.6-13.8-1.4-12,12.6c1.3,10.1,4.1,19.7,7,29.3c1.2,3.4,3.6,6.1,6.8,7.6c3.7,2,6.8,4.8,10,7.4c4.6,3.7,7.1,8.4,5.8,14.5
		c-0.6,2.6,0.5,4.1,2.4,5.5c3.5,2.5,7.1,5,10.7,7.4c6.2,4.2,9.4,9.6,8.4,17.3c-1.2,8.7,0.4,17.3,2.2,25.8c1.5,7.5,1.8,14.6-4.2,20.4
		c-2,1.9-1.4,3.9-1,6.3c2.2,14.6,9.5,26.4,19.2,37.1c2.5,2.7,4.3,5.9,6.6,8.8c5.2,6.4,5.5,12.9,0.8,19.7c-0.7,1-1.2,2-1.7,3h-3
		c0.7-1.3,1.3-2.7,2.1-3.9c4.5-7.4,4.3-11.1-0.9-18.1c-3.7-4.9-7.2-9.9-10.9-14.9c-0.8-1.1-1.3-3.2-3.2-2.3c-1.7,0.8-1.1,2.7-0.7,4
		c2,6.2,1.5,12-2.6,17.2c-0.4-3.4,1.5-6.4,1.1-9.8c-1.6-12.1-5.7-23.6-8.1-35.4c-0.7-3.6-3.3-4.2-6-2.2c-7.9,5.9-16.8,10-25,15.5
		c-7.2,4.8-15.5,7.5-23.5,10.5s-16.8,4.1-25.2,5.8c-5.9,1.2-8.9-0.5-11.3-6.1c-1.4-3.4-2-7.1-3.3-10.4c-1.8-4.7-0.2-10-3.2-14.3
		c-5.8-8.1-10-17.3-12.2-27.1c-2-8.8-4.2-10.1-13.2-11.7c-7.5-1.3-15,0.6-22.3-0.9c-5.6-1.1-11.2-1.4-16.9-1
		c-24.8,1.2-49.6-0.6-74.3-1.5c-8.9-0.3-9.9,0-13.5,8.4c-7.7,17.9-15.3,35.8-17,55.5c-0.7,7.8-2.7,8.7-10.7,7.3
		c-2.3-0.5-4.6-0.8-6.9-0.8c-13.8,0.6-26.9-3.2-39.9-6.5c-15.7-4-30.2-11.2-43.8-20.1c-6.4-4.1-8.4-3.3-10,4.1s-1.8,15.2-7.7,20.7
		c-6.6,6.2-11,14.1-17.3,20.5c-5.4,5.4-7.3,10.8-2.5,17.5L292,1025z M465,491l0.1,0.1c-1.2-1.9-3.4-3.4-5.3-3.3
		c-6.6,0.6-12.2-2.8-18.4-3.6c-0.9-0.1-2.7,0.5-2.6-1.1c0-0.8,1.8-0.2,2.7-0.2c0.7,0,1.6,0.4,2.1-0.5c-0.6-0.3-1.2-0.6-1.8-0.8
		c-5.3-1.5-10.6-2.8-15.9-4.4c-2.8-0.8-3.8,0-2.8,2.8c1.4,4.3,2.1,8.7,2.1,13.2c0.1,4.8,4.1,8.6,8.9,8.4c0.3,0,0.5,0,0.8-0.1
		c11-1.4,21.9-1,32.9-0.3c0.8,0,1.7,0.3,2.1-0.7c0.5-1.2-0.5-1.8-1.3-2.3s-1.6-0.6-2.2-1.1c-0.5-0.3-1.1-1.1-1-1.5
		c0.2-0.7,1.1-0.5,1.7-0.4c1.2,0.2,2.9,1.7,3.5,0.4c0.7-1.5-1.5-2.2-2.6-3.1C467,492,466,491.5,465,491z M470.1,430.8
		c-0.7,2.2-2.7,3.1-4.4,4.4c-0.8,0.6-2.4,1-1.4,2.5c0.6,0.8,1.6,1.2,2.6,1c7.4-0.8,13.2-6.6,14-13.9c0.1-0.8,0.5-1.7-0.6-2.1
		s-1.4,0.6-1.9,1.2c-2.2,3.1-4.5,6.1-8.5,7c3.4-4,7.6-7.2,9.9-12.2c3.5-7.6,2.5-11.3-5.4-14.4c-5.6-2.4-11-5.4-16-8.9
		c-3.5-2.4-5.6-1.6-7.8,1.5c-3.9,5.5-9.1,9.7-13.9,14.3c-0.6,0.6-1.4,1.8-2.4,0.9c-0.7-0.7,0.3-1.5,0.8-2.1
		c4.4-6.3,8.7-12.6,13.3-18.7c1.5-2,1.5-3-0.1-5c-3.5-4.2-7.5-8.3-9.9-13.1c-4.5-9.2-10.1-17.8-14.9-26.9c-0.6-1.1-1.1-3-2.6-2.5
		s-0.7,2.4-0.7,3.6c-0.2,12.6-0.6,25.2-0.5,37.9c0,10,0.5,19.9,1,29.9c0.3,5.8,3.8,8.8,9.4,10c7,1.4,13.9,3.3,20.7,5.5
		C457.3,432.8,463.6,433.9,470.1,430.8L470.1,430.8z M377.1,622.9c8.6,3.4,8.6,3.4,8.7-6.4c0-0.2,0-0.3,0-0.5
		c-0.7-18.3-1.3-36.6-2-54.9c-0.1-3.5-1.4-6.9-3.7-9.6c-8-9.7-13.9-20.7-19.4-31.9c-0.5-1-1.8-2.4-0.5-3s1.6,1.2,2,2.2
		c5.4,10.7,12.1,20.7,18.5,30.8c0.5,0.8,0.8,2.1,2,1.8c1-0.2,0.7-1.3,0.7-2.1c-0.2-12.4-1.1-24.6-5.9-36.2c-2.5-6.1-2-6.9,4.5-8.1
		c7.9-1.5,15.8-2.2,23.8-2.1c0.8,0,1.9,0,2.2-0.5c0.5-0.9-0.6-1.3-1.1-1.9c-3.4-3.8-5.7-8.2-7.7-12.8c-2.6-5.9-5-12-7.5-17.9
		c-0.6-1.3-0.8-2.9-2.1-3.8c-1,1.5,0.1,2.8,0.4,4.1c1.1,5.2,2.6,10.3,4.7,15.2c0.4,0.9,1,2-0.3,2.5c-0.9,0.3-1.4-0.8-1.7-1.5
		c-2.2-4.8-5-9.4-7-14c-3.2-7.3-8.5-12-13.5-17.4c-2.1-2.3-4-2.4-6.5-0.9c-8,4.5-16,8.8-24,13.4c-10.6,6.1-18.7,14.2-20.6,27.1
		c-0.6,4.2-2.4,8.3-3.4,12.5c-3.9,15.4-6.2,31.1-0.8,46.3s5.4,29.8,2.8,45.2c-1.8,11.2-2.9,22.5-3.3,33.8
		c-0.7,14.4,3.5,27.6,9.6,40.3c0.5,1,1.2,2.7,0.8,3.1c-1.3,1.5-1.7-0.7-2.5-1.1c-2.3-1.2-1.9,0.7-2,1.8c-0.5,5.5-0.4,11,0.4,16.4
		c1.3,10.9,2.5,21.8,3.8,32.7c0.1,1.2,1,2.8-0.8,3.2c-2.2,0.5-2.2,0.3-2.5,2.2c-0.5,3.3-1,6.6-1.5,9.9c-2.4,13.8-2.6,27.1,3,40.6
		c5.1,11.7,9.4,23.8,12.9,36.1c2.2,8,7,14.6,13.4,20c3.8,3.2,7.5,6.6,11.1,10c7.1,6.7,10.1,7.1,19,2.8c0.6-0.2,1.3-0.2,1.9-0.2
		c-0.8,3.4-2.7,5-6.4,4.6c-3.1-0.4-5.5,1-6.3,4.3c-4.2,17.3-8.5,34.6-10.9,52.2c-0.5,3.5,0.5,5.6,4.3,5.5c19-0.5,38,1.5,56.9-1.6
		c6.2-1,12.5-2.1,18.7-3c0.9-0.1,2.3-0.5,2.5,0.7s-1.2,1.2-2.1,1.4c-4.1,0.6-8.2,1.2-12.3,1.9c-0.6,0.1-1.5,0-1.4,0.9s1,0.8,1.5,0.8
		c6.1-0.2,12.4,1,18.4-0.5c6.9-1.7,13.9-1.4,20.9-1.1c11.6,0.5,23.3,0.3,34.9,1.4c19.6,1.9,39.4-2.7,59,1.7
		c5.7,1.3,11.9,0.5,17.9,0.8c14.5,0.6,28.9,0.3,43.3,2.2c6,0.8,12,0.5,18,0.7c1,0,2.5,0.7,2.7-1.1c0.1-0.6,0.1-1.6-0.3-1.9
		c-1-1-1.6,0.6-2.4,0.8c-1.5,0.3-2.9,0.5-4.4,0.6c-0.8,0-2.1,1.2-2.4-0.3c-0.2-0.8,1.2-0.9,2-1.1c5.3-1.3,8.1-4.4,8-10
		c-0.1-3.8,0.2-7.7,0.2-11.5c-0.2-19-1.1-38-0.6-56.9c0.3-11.3,0.4-22.6,0-33.9c-0.1-4-2.2-6.1-6.3-6.1c-11.4,0.1-21.7-4.3-32.1-7.9
		c-5.1-1.6-9.7-4.8-13-9c-8-10.5-14.2-21.9-17.7-34.9c-5.7-21.3-10.6-42.8-17.9-63.7c-1.9-5.3-5.1-9.5-9-13.6
		c-6.9-7.1-13.6-14.5-20-22.2c-1.8-2.1-3.5-2.5-5.6-2c-7.5,1.8-15.2,1.1-22.8,1.4c-5.4,0.2-10.9-0.9-16.3-1.3
		c-1.5-0.1-3.8-1.1-4.3,1c-0.5,1.9,1.9,2.4,3.3,3.2c1.9,1,3.9,1.9,5.8,2.9c6.3,3.2,12.5,6.9,19,9.6c4.8,1.9,9.6,3.8,14.2,6.1
		c1.9,1,4.7,2,4.3,4.9c-0.5,3.2-3.4,3.2-5.9,3.3c-14.6,0.8-28.4-3.6-42-7.8c-4.7-1.5-9.8-1.4-14.5,0.1c-5.1,1.5-9.9,3.8-15,5.4
		c-2.4,0.8-2.4,1.7-1.5,3.6c1.3,3,1.9,6.1,0.9,9.2c-0.9,2.6-5.7,2.8-4.1,6.9c-1.8-0.2-2.9,2.2-4.8,1.3c-2.8-1.3-3.3-1.2-3.6,2
		c-0.2,3.6,0.7,7.6-1.2,10.8c-4.4,7.7-7.4,15.8-10,24.3c-2,6.5-3.8,12.8-2.4,19.5c2.4,11.5,2.1,23.2,3.3,34.7
		c0.6,6.5,0.3,13-3.2,18.9c-6.3,10.4-13,20.6-21.3,29.5c-4.6,5-8.8,10.5-15.8,12.5c10.1-8.5,18.5-18.5,26.1-29.3
		c7.3-10.3,13.9-20.8,12-34.4c-1.6-11.4-2.4-22.9-4.3-34.2c-1.1-6.9-1.2-13.1,2.9-19.1c1.9-2.8,2.8-6.2,1.1-9.5
		c-1.2-2.4-0.6-3.2,1.6-4.5c5.8-3.1,9-9.5,8-16c-0.3-2.1-0.9-3.9-3.3-4.4c-0.7-0.2-1.8,0.2-1.8-1.1c0.1-1,1.1-1.1,1.8-1.5
		c4.7-2.2,9.3-4.5,14-6.5c3-1.3,4-3.1,2.5-6.3c-10.6-21.7-21.9-43-31.5-65.1c-2.2-5.1-4.9-5.6-9.5-2.3c-3.8,2.8-7.4,5.7-10.9,8.8
		c-6.7,5.9-11.9,13.5-20,17.8c-1.9,1-2.1,2.8-2.3,4.7c-1,12.6-2,25.2-3.1,37.8c-0.1,1.3,0.7,3.6-1.4,3.6c-1,0-0.6-2.2-0.7-3.5
		c-0.2-8.5,1.2-16.9,2-25.4c0.1-0.7,0.6-1.8-0.5-2c-0.3-0.1-1,0.7-1.3,1.2c-1.1,2-2.3,4-3.3,6.2c-5.3,11.4-6.7,23.6-7.8,35.9
		c-1.9,21.7-3.9,43.5-5.8,65.2c-0.1,0.8,0.3,2-0.7,2.1s-0.7-1.2-0.7-1.9c-0.1-1.2,0-2.3-0.1-3.5c-0.4-11.7,1-23.3,2.2-34.9
		c0-0.6-0.1-1.3-0.3-1.9c-0.3,0.5-0.6,1.1-0.9,1.6c-3,9-7.2,17.5-11.1,26.2c-1.9,4.1-3.3,8.4-4,12.8c-0.2,1.2,0,3.5-1.1,3.4
		c-1.6-0.2-1.4-2.3-1.3-3.8c0.5-5.6,2.8-10.6,5-15.6c8-17.4,15.4-35.1,17.1-54.5c1.2-13.9,4.2-27.2,11.3-39.5c1.4-2.4,4-4.9,3.6-8
		c-0.6-4.7,2-7,5.5-9.1c2-1.2,3.9-2.5,5.7-4c6.5-5.3,6.5-6.2,0-11.4c-0.4-0.3-0.5-0.8-0.7-1.3L377.1,622.9z M550.9,520.8
		c-3,0.2-6,0.4-9,0.7c-20.2,2.3-34.1,14.8-46.5,29.4c-4.9,5.8-4.7,11.5-0.1,17.8c5,6.9,10.2,13.6,14.7,20.8c3.2,5.1,5,11,5.5,17
		c0.3,3.4-1.2,6.4-0.4,9.8c1.7,7.2,3.3,14.2,11.7,16.8c1.7,0.4,2.9,2,2.9,3.7c-0.1,2.1-1.8,2.5-3.5,2.8c-0.7,0.1-2.6-0.1-1.4,1.5
		c3.2,4.2,4.4,9.6,8.4,13.4c5.3,5,10.4,10.3,15.3,15.8c3.6,4.1,7.8,7.9,9.2,13.4c4.7,18.7,10.6,37.1,15.3,55.8
		c3.6,14.2,8.1,27.6,16.6,39.7c4.4,6.3,10.8,10.9,18.3,12.8c18.2,5.2,36.9,7.3,55.7,8.6c8,0.6,14.6-1.8,18.4-9.8
		c6-12.5,10.9-25.4,13-39.1c0.3-2.7,1.1-5.2,2.5-7.5c3.3-4.8,3.4-9.9,2-15.3c-1.4-4.5-1-9.4,0.9-13.6c2.2-4.9,2.7-10.4,1.3-15.7
		c-2.7-11.5-5.7-22.9-8.8-34.3c-1.3-4.9-1.6-9.7,1-14c7.6-13,7.8-26.2,2.5-40.2c-3.9-10.3-6.6-21-8.2-31.8c-0.1-1-0.9-2.7,0.5-3
		c1.7-0.4,1.4,1.5,1.6,2.5c1.3,5,2.4,10,3.6,15.1c0.2,0.9-0.1,2.4,1,2.5c1.5,0.1,1.5-1.6,1.8-2.5c2.2-8.2,4.4-16.4,6.2-24.6
		c4.1-18.4,6.2-37.1,8.9-55.7c0.7-4.9,2.3-9.7,1.1-14.8c-2.2-9.3-6.8-17.8-13.4-24.7c-11.7-12.3-24.8-23.2-39-32.6
		c-5.5-3.7-10.8-5.7-17.6-2.9c-3.3,1.4-3.1,2.2-2,4.8c3.2,7.3,6.2,14.7,9.2,22.1c4.3,10.8,0.5,19.2-10.5,22.7
		c-4.4,1.5-8.9,2.6-13.5,3.2c-5.3,0.6-5.7,1.5-3.8,6.2c2,5.1,5.5,7.6,11,7.8c6.2,0.1,12.3,0.1,18.5-0.2c4.5-0.2,8.4-0.9,9-6.4
		c0.1-0.7,0.3-1.4,1-1.5c1.2,0,1.2,1,1,1.8c-0.9,4.5,2.1,5,5.3,5.1c1.9,0.1,4.6-0.6,5.2,1.9c0.8,3.2,2.2,6.2,0.9,10
		c-4.3,13-7.4,26.3-9.1,39.8c-3,22.1-5.9,44.2-8.8,66.3c-1.8,13.9-5.3,27.5-6.3,41.5c-0.5,8.1,6.6,16.7,14.8,17.2
		c5.8,0.3,10.5,3,15.5,5.1c0.5,0.2,1.6,0.1,1.3,1.1s-1.4,0.7-2.1,0.4c-3.3-1.1-6.6-2.3-9.9-3.4c-0.8-0.2-1.6-0.3-2.3-0.4
		c0.5,0.6,1,1.2,1.5,1.7c4.2,3.1,8,6.5,11.5,10.3c3.4,3.7,6.1,7.9,6.7,13.1c0.1,1.1,0.6,3-0.4,3.2c-1.4,0.3-1.3-1.5-1.5-2.6
		c-1.2-5.2-4-9.9-8-13.6c-6.7-6.4-14.3-11.4-21.6-17c-1.9-1.4-4-4.8-6-3.4s0.6,4.5,0.8,6.9c0.1,1.4,1.5,3.6,0,4
		c-2,0.6-1.8-2-2.1-3.2c-3.6-16.6-8.6-32.8-11.5-49.6c-0.8-5.8-3.7-11.2-8.1-15.1c-2.7-2.4-5.5-4.8-8.4-7.1
		c-5.2-4.3-7.7-9.8-7.9-16.6c-0.2-4.5-0.7-8.9-1.4-13.4c-0.8-5-3.5-8.8-8.5-10.1c-10.4-2.7-15.4-9.9-17.4-20.1
		c-1.6-8.5-4.5-16.7-8.6-24.3c-1-1.8-1.8-3.9-4.2-3.8C565.1,523.1,558.1,520.5,550.9,520.8z M688.1,369.2c0.6,14.3,3.4,27-3.4,38.9
		c-0.2,0.4-0.4,1.2-0.3,1.3c0.7,0.7,1.1-0.2,1.4-0.6c7.9-7.4,13.1-15.6,12.3-27.5c-2.3-30.7-6.3-61.3-12-91.5
		c-8.1-44.5-19.5-88.4-31.2-132.1c-5.3-19.8-15.3-37.4-30.3-50.8c-35.7-31.8-78.4-42.1-125-35.2c-39,5.7-71.3,24.3-96.6,55.1
		c-13.4,16.2-24.8,33.9-34,52.8c-6.2,12.6-8.8,26.8-12.1,40.6c-9.8,40.7-15.1,82.1-21.1,123.4c-2.2,14.9-0.9,29.9-1.2,44.8
		c-0.1,8.7,0.3,16.9,7.2,23.4c2.2,2.1,3,5.4,5.7,7.2c0.2-3.3-1.5-6.1-2.5-9c-3-8.8-6.3-17.3-5.3-27.1c2.1-20.7,3.8-41.5,7.7-61.9
		c2.5-12.7,4.2-25.6,9.5-37.6c3.7-8.2,8.4-15.9,12.8-23.7c32.8-57.9,78.9-101.6,138.9-130.8c14.2-6.9,26.8-6.1,39.4,2.8
		c9.8,6.9,19,14.7,27.5,23.2c32.4,32.4,55.1,71.6,77.4,111.1c6.4,11.3,12,23,17.5,34.8c5,10.8,9.9,21.7,13.5,33.2
		C688,346,686.9,358.6,688.1,369.2L688.1,369.2z M420.2,314.7c-0.7,12.6-0.1,24.8,7.6,35.9c5.7,8.2,10.4,17,15.5,25.6
		c3.4,5.8,8,10.7,13.5,14.5c12.9,8.9,26.8,16,40.9,22.9c8.8,4.3,18.2,5,27.1,1c17.1-7.7,34.4-15.1,50.3-25.3
		c7.5-4.7,13.6-11.4,17.7-19.3c5.1-9.9,10.1-19.9,15-29.9c2-4.1,2.7-8.7,1.9-13.2c-0.9-5.7-0.6-11.2-0.1-16.9
		c0.2-2.2,1.7-5.2-0.5-6.5s-3.5,1.8-5,3.2c-0.8,0.6-1.7,1.6-2.6,1c-1.3-0.9-0.3-2,0.2-3c3.4-7.5,1.2-16.4-5.4-21.5
		c-1-0.8-1.9-2.1-3.3-1.6c-0.3,0.1,0.2,2.1,0.3,3.2c0.5,6.7,3.4,14.1-5.3,18.1c-0.4,0.2-0.6,0.6-0.5,1.1c0,0,0,0.1,0.1,0.1
		c1.7,4.9-2,7.1-5.1,9c-10,6.4-27.3,3.2-30.5-14.1c-1.1-5.9-0.5-11.6,0.4-17.4c0.3-1.8,0.9-3.8-2.1-1.7c-0.8,0.7-2.1,0.6-2.8-0.2
		c-0.1-0.1-0.2-0.2-0.2-0.4c-0.7-1-0.7-2.4,0.2-3.2c1.6-1.7,2.8-3.8,3.2-6.1c1.3-8.5,2.8-17.1,3.2-25.7c0.1-1.6,0.4-4.4-0.9-4.5
		c-1.8-0.2-1.2,2.6-1.5,3.9c-3.5,15.4-9.6,30.2-18,43.6c-0.7,1.1-1.2,3.5-3,2.5c-1.5-0.8,0.1-2.3,0.5-3.5c1.3-3.6,2.8-7.1,3.9-10.8
		c0.4-1.4,1.9-2.8,0.7-4.5c-0.6,1.3-1.3,2.6-1.9,4c-4,9.9-8.7,19.4-15.4,27.9c-2,2.4-3.4,3.9-4.6-0.8c-0.8-3.8-3.1-7.1-6.5-9.1
		c-1.9-1.3-3.6-3-4.9-4.9c-6.3-8.5-13.2-16.7-17-26.9c-0.3-0.5-0.7-1-1.1-1.4c-0.1,0.3-0.3,0.7-0.2,0.9c1.9,7.2,3.2,14.6,6.8,21.2
		c0.4,0.7,1.9,1.1,1.1,2.2c-1,1.4-2.1,0.2-2.9-0.4c-2.5-2.1-3.9-5.4-7.1-6.9c-1.4-0.6-2.8-2.2-4-1.4c-1.4,1,0,2.8,0.5,4
		c2,4.8,1.5,9.8,1.9,14.8s-5.1,8.2-3.9,13.6c0.2,0.9-1.7,2.3-2.8,3.3c-8.4,7.5-21.3,6.6-28.8-1.8c-0.2-0.2-0.4-0.4-0.6-0.7
		c-5.6-6.8-7.8-15.8-6-24.4c0.1-0.8,0.5-2.2,0.3-2.4c-1-0.5-1.7,0.5-2.5,1.1c-7.4,6.1-9.3,13.5-5.6,22.1c0.4,0.9,1.4,1.9,0.2,2.6
		c-0.9,0.6-1.9-0.3-2.6-0.9c-2.3-1.7-4.3-3.7-5.9-6.1c-0.4-0.6-0.3-1.9-1.5-1.5c-0.9,0.3-0.5,1.4-0.5,2.2
		C420.2,305.8,420.2,310.2,420.2,314.7z M553.9,197.7c0-6.2,0-12.3,0-18.5c0-1.3-0.2-2.9,1.7-3.1c1.5-0.2,1.9,1.1,2.5,2.1
		c0.7,1.2,1.4,2.4-0.7,3c-1.8,0.5-1.3,2-1.2,3.3c0.1,6.8,0.1,13.6,0.1,20.5c0,9.4,0,9.4,9,11.9c0.3,0.1,0.8,0,1,0.2
		c0.4,0.4,1.1,0.9,1.1,1.4c0,1.1-0.9,1.2-1.8,1c-1.5-0.4-2.9-0.8-4.3-1.3c-3-0.9-4.4,0.4-4.9,3.2c-0.3,1.5-0.5,3-0.5,4.5
		c0.1,13.2-0.7,26.3-2.3,39.3c-0.1,0.8-0.5,1.6,0.6,2.1c1.7,0.8,11.3-4.2,11.6-6.3c1.4-9.9,3.9-19.6,4.3-29.6
		c0.6-18.6,0-37.3-1.9-55.8c-1.8-19-10.3-33.2-27-42.8c-17.7-10.2-46.7,3.6-54.8,20.9c-4.2,9-8.2,18.2-10.1,28.1
		c-1.5,7.7-3.1,15.3-3.2,23.2c0,3.5-2.2,7,0.3,10.6s-2.5,5.6-2.5,9.3c-0.2,15.9,5.1,30,11.7,44c0.3,0.5,0.9,0.9,1.3,1.4
		c0.1-0.6,0.2-1.3,0.1-1.9c-2.4-8-4.2-16.1-5.4-24.3c-0.4-3-0.9-5.9,0.4-8.9c0.4-0.8,0.7-1.7,1.6-1.5c0.3,0,0.5,1.1,0.5,1.7
		c2.2,20.1,11.1,37,24.1,52.1c0.9,1,1.6,3.1,2.6,2.5s-0.2-2.3-0.6-3.5c-3-9.7-6.1-19.3-9-29.1c-0.5-1.5-1.8-4,0.1-4.8
		c0.9-0.4,1.4,2.5,1.8,4c4.2,14,9.1,27.8,14.3,41.5c1.4,3.7,2.3,3.1,4.2,0.5c3.4-4.9,6.4-10.1,9-15.5c5.5-11.4,8.7-23.7,13.2-35.4
		c0.3-0.9,0.5-2.4,1.5-2.3c1.6,0.2,0.9,1.9,0.7,2.8c-1.3,7-2.8,14-4.1,21.1c-0.2,1.1-1.2,2.1-0.6,3.3c0.7-0.9,1.3-1.8,1.8-2.8
		c7.2-14.7,10-30.5,12.8-46.4C554.5,215,553.9,206.4,553.9,197.7L553.9,197.7z M406.1,505c-7.7,0-15.3,0.5-22.9,1.7
		c-4,0.7-5.6,1.5-3.7,5.9c5.5,12.4,5.5,25.8,6.2,39c0.6,10.5,0.2,21.2,0.5,31.8c0.4,12.8,2.4,25.5,1.7,38.3c0,0.6-0.3,1.5,0.6,1.7
		c1.1,0.3,1.3-0.8,1.8-1.3c3-3.4,6.6-6.1,10.6-8c3.8-2,8.1-0.2,11.4-2.1c7.7-4.5,16.1-7.2,24.6-9.5c2.8-0.8,4-1.5,1.1-3.9
		c-0.9-0.8-3.1-1.3-2.4-2.5s2.8-0.3,4.1,0.2c8.6,3.3,17,2.5,25.2-1.1c2.1-0.9,4.4-1.6,6.7-2.1c4-0.7,7.9-0.8,8.6,4.7
		c0.1,1.2,0.8,2.4,2.3,2.1c0.8-0.2,1.5-0.6,2.1-1.2c1.2-1.3-0.2-2.1-0.9-2.9c-2.6-3-5.3-6-7.9-9c-0.9-1.1-2.9-2.8-2-3.5
		c1.5-1.1,2.8,1,3.9,2.1c3.8,4,7.3,8.2,12.3,10.8c0.7,0.4,1.7,1,1.7,1.5c0,1.4-1.4,0.9-2.3,1.1c-0.6,0.2-1.2,0.4-1.8,0.6
		c0.4,0.3,0.8,0.8,1.2,0.8c6.5,1.2,13.1,2.7,19.7,2.9c1.8,0.1,3-1,2.3-2.9c-1.4-4.1-2.2-8.4-4.6-12.1c-0.4-0.5-0.8-1-1.3-1.5
		c-0.9,0.9,0.3,1.4,0.4,2.1c0.2,1.2,0.5,2.5-1,2.9c-1.7,0.5-1.8-1.1-2.1-2.1c-1.8-7-5.3-13.2-8.9-19.4c-3.5-6-6.2-12.1-0.8-18.7
		c1.5-1.8,2-4.6,2.4-7c0.3-2.2,1.4-4.9-0.9-6.5c-2.6-1.8-2.6-4.4-3-7c-1.5-8.6-3.8-16.7-12.9-20.6c-1-0.4-2.3-1.5-2.4-2.3
		c-0.6-4.9-4.4-4.7-7.8-5c-5.8-0.6-11.6-0.9-17.5-0.9C435.8,502.7,421.3,505.6,406.1,505z M619,924.2L619,924.2
		c-7.8-0.4-15.6-0.8-23.4-1.2c-1.9-0.1-4.2-0.3-3.8,2.5c2.1,11.8,3.7,23.8,12.6,33c1.1,1.2,3,2,2.5,4c-1.8,8,2.4,14.8,4.1,22.1
		c0.9,4,3.5,5,7.5,4.6c6.8-0.7,13.5-2.2,19.9-4.4c19.6-6.3,38.3-14.8,54.4-27.8c8.7-7,15.5-15.2,11.4-28.2
		c-2.9-9.2-4.3-18.7-2.5-28.6c0.9-4.7-2-8.6-6-11.3c-3.2-2.1-6.4-4.2-9.5-6.4c-3.4-2.3-5.9-5.6-5.5-9.5c0.8-6.8-2.7-11.1-7.6-14
		c-9-5.5-16.1-12.2-17.8-23.2c-0.1-0.8-0.4-2.3-1.7-2c-0.4,0.1-0.6,1.7-0.7,2.6c-0.9,10.1-1.8,20.2-2.7,30.3c-0.1,1.1,0.7,3.2-1.4,3
		c-1.4-0.1-0.9-1.9-0.8-3c0.5-6.8,1-13.6,1.7-20.4c1.3-13,4.7-26-0.1-38.9c-0.7-1.8,0.2-5.4-2.5-5.1c-2,0.2-1.7,3.6-1.7,5.6
		c0.2,16.8-1.5,33.4-0.5,50.2c1.3,21.6,0.6,43.2,0.1,64.9c0,1.9-0.4,2.4-2.5,2.2C634.6,924.8,626.8,924.5,619,924.2z M643.9,316.5
		c0.5-4.2,0.1-8.4-1.1-12.4c-4.5-15.5-6.6-31.6-11.6-47c-0.7-2-0.5-4.9-3.5-4.6s-2.4,3.1-2.8,5.2c-2.3,15.6-5.1,31.2-8.6,46.6
		c-0.3,1.2-0.2,3.4-1.8,3.1s-0.8-2.2-0.5-3.4c4.6-19,6.2-38.4,9.8-57.5c2.8-14.6-2.1-26.1-9.3-37.5c-1-1.6-2-3.9-4.6-2.9
		s-3,3.2-2.7,5.7c2.8,20.8,3.6,41.8,4.3,62.7c0.5,14.8,1,29.5-0.2,44.3c-1,11.7-0.8,23.6-1.9,35.3c-2.7,28.4-8.1,56.3-11.4,84.6
		c-2.3,19.2-6,37.5-19.8,52.1c-1.4,1.4-2.2,3.4-2.3,5.4c-0.1,2.7,1,3.3,3.3,2.3c4.7-1.9,8.3-5.9,9.7-10.8
		c3.2-10.1,5.9-20.4,8.1-30.9c0.9-4.6,1.7-9.2,2.7-13.7c0.2-1.1-0.5-3.3,1.6-2.9c1.7,0.3,0.8,2.2,0.9,3.4c0,0.5,0,1,0,1.5
		c-0.6,16.9-4.2,33.3-7.6,49.8c-0.3,1.6-2.2,3.6,0.3,4.8c2.1,1,4.5,1.6,6.6,0c1.4-1.2,2.7-2.5,3.8-3.9c10-11.8,16.6-25.2,20.7-40
		c1.5-5.3,2.6-10.7,3.3-16.1c0.1-0.9,0.1-2.4,1.2-2.4c1.7,0,1.3,1.6,1.3,2.7c0,1.7-0.1,3.3-0.2,5c-0.5,8-1.6,15.9-3.3,23.7
		c-0.2,0.8-0.9,2.1,0.3,2.5c0.7,0.2,1-1.1,1.3-1.9c1.4-5.5,3-10.9,4.1-16.4c4.5-23.5,4.8-47.3,5.9-71.1
		C640.9,360,642.4,338.2,643.9,316.5z M586,502.2c-4.5,0-9,0-13.5,0c-1.4,0-3.3-0.6-3.7,1.5s-0.3,4,1.9,5.2c0.6,0.3,1.2,0.5,1.8,0.8
		c2.9,1.1,4.1,3.1,2.4,5.8c-1.4,2.3-0.7,3.8,0.8,5.7c5.9,7.9,8.5,17.3,10.4,26.7c2.2,11.2,8.7,18.1,18.9,21.7
		c2.7,0.8,4.9,2.7,6.2,5.2c3.1,5.8,2.9,12.2,3.7,18.4c1.1,8.5,4.4,15.2,11.8,19.8c5.4,3.4,8.6,8.3,10.6,14.5c3.5,10.8,4.9,22,7.7,33
		c0.2,0.9-0.3,2.3,1.1,2.3s1-1.5,1.2-2.3c1.9-10.4,4.2-20.8,5.7-31.3c3.3-23.5,6.8-47,9.4-70.6c1.5-13.9,3.6-27.7,7.8-41.1
		c0.9-2.9,3.7-6-1.7-8c-2.3-0.8-3.1-3.7-6.9-3.5c-9.6,0.4-19.2,2.8-28.8,1.1C617.2,504.4,601.6,503.4,586,502.2z M351.4,895
		c-0.2-6.5-0.8-12.9-2-19.3c-0.2-0.9-0.1-2.2-1.2-2.5c-1.4-0.4-1.4,1.2-1.7,1.9c-2.6,5.8-5.4,11.5-5.9,17.9c-0.3,4-1.8,6.8-5.4,8.8
		c-3.1,1.6-5.4,4.4-5.3,8c0.3,10.5-4.1,19.8-7.3,29.3c-3.3,9.9-2.9,10.8,5.3,17.2c22.3,17.5,48.6,25.2,75.9,30.4
		c1.5,0.2,3,0.2,4.5,0.1c4,0.1,8,0,12,0.4c10,1.1,10.8,0.5,11.3-9.7c0-0.5,0-1,0-1.5c-1-7.4,1.1-14.2,4-20.8
		c4.1-9.3,7.4-18.9,9.8-28.7c1.5-6.6,1.1-7.2-5.6-7.2h-70.9c-3.3,0-6.7,0.4-9.7-1.4c-1-0.6-1.9-1-1.9,0.7c-0.1,2.7-2,4.3-4.2,4
		c-2.6-0.3-2.4-3.2-2.8-5.2c-0.3-1.7-0.3-3.3-0.1-5C350.3,906.6,351.6,900.8,351.4,895z M379.6,417.6v3.5
		c0.1,14.4,1.2,28.6,4.9,42.5c0.3,0.8,0.6,1.5,1,2.2c1-0.8,0.4-1.8,0.2-2.6c-2.6-10-1.8-20.2-1.7-30.3c0-1.1-0.5-3,0.6-3.1
		c2-0.2,1.4,1.9,1.4,3c0.4,11.8,2.8,23.5,7.1,34.5c3.8,10.3,7.5,20.7,14,29.7c1.2,1.7,2.6,7.2,6.8,2.4c0.5-0.6,1.2-0.2,1.7,0.3
		c0.8,0.9,1.5,2.8,2.9,1.6c1-0.9-0.1-2.5-0.4-3.8c-3.2-16.5-2.4-33.2-3.2-49.8c0-0.5,0.3-1.6,0.5-1.6c0.9-0.1,0.9,0.9,1,1.5
		c0.9,5.2,1.7,10.5,2.5,15.8c0.1,0.7-0.4,1.7,0.7,1.9c0.3-0.5,0.5-1.1,0.5-1.7c-0.1-5.3,0-10.6-0.4-16c-2.8-41.4-2.1-82.9-1.9-124.4
		c0-5,1.6-9.8,0.1-14.9c-2.1-7-4.4-14-5.9-21.1c-2-9.3-3.2-18.7-4.8-28c-0.1-0.8-0.4-1.6-0.6-2.4c-1.1,0.4-1.4,1.4-1.6,2.3
		c-1,3.7-2,7.4-3,11.1c-2.9,11-5,22.1-7,33.2c-0.2,1.2-0.2,3.2-1.6,3s-1-2.2-0.9-3.5c0-0.5,0.1-1,0.2-1.5
		c2.2-19.2,5.8-38.2,10.8-56.8c0.8-3,1.2-6.2,1.2-9.4c0-1,0-2.1-1.3-2.4c-1-0.2-2.1,0.3-2.6,1.2c-0.7,0.9-1.3,1.9-1.7,3
		c-2.5,7.9-4.6,15.7-5.3,23.9c-2,23.9-3.2,47.8-6.6,71.6C383.5,360.8,380.2,389.1,379.6,417.6z M489.3,412.9
		c-2.8-0.3-4.5,1.1-4.7,3.9s-0.4,5.6-0.5,8.5c-0.8,11.6-1.6,12.7-12.8,15.7l-1.9,0.5c-2.8,0.7-3.7,1.9-2.5,5
		c2.5,6.2,3.9,12.8,4.1,19.4c0.1,3.2,1,4.6,4.3,5.4c8,1.8,13.9,6.2,16.4,14.3c0.5,1.6,0.8,3,2.8,1.2c3-2.6,7.4-2.4,10.4-4
		c6.4-3.5,13-5.1,19.8-7c5.1-1.4,9.4-2.5,13.6,0.6c5,3.7,10.8,5.9,15.8,9.4c0.5,0.4,1,0.7,1.7,0.7c5.4-0.8,11-9,9.9-14.6
		c-2-10.5-1-19.9,8.2-26.9c0.6-0.5,1.7-0.9,1.3-1.8c-0.3-0.5-1.3-0.8-2.1-1c-5.8-1.4-11.6-2.8-17.5-4.1c-4.3-1-7-3.5-8-7.9
		c-1.2-5.2-1.8-10.5-1.8-15.8c0.1-3.9-1.9-5.2-5.4-4c-2.8,1-5.6,2.1-8.2,3.5c-12.8,6.4-25.6,8-38.5,0.4
		C492.4,413.3,490.9,412.9,489.3,412.9z M466.6,601.7c-2.3-0.2-4.6-0.3-7-0.5c-15.5-0.7-29.3,5.2-43.1,10.8c-3.2,1.3-3.9,3.5-2,6.7
		c1.4,2.4,2.2,5.2,3.2,7.8c6.1,15.1,15,28.9,21.1,44c1.4,3.5,3.8,4.4,7.2,3.2c4.2-1.5,8.5-2.8,12.6-4.7c6.3-2.9,12.5-2.8,18.9-0.5
		c4.4,1.5,8.9,2.8,13.3,4.2c8.2,2.4,16.4,4.2,25,4.1c1.5,0,3.7,0.1,4-1.2c0.5-1.8-1.7-2.7-3.1-3.4c-7.8-3.9-16.2-6.5-23.9-11
		c-6.1-3.6-12.8-6.3-19.2-9.5c-1.7-0.8-3.3-2-2.6-4.2c0.6-2,2.5-2.1,4.1-2c6.6,0.3,13.3,0.7,19.9,1.2c7.8,0.6,15.6,1,23.4-0.5
		c1.1-0.2,2.6-0.1,2.8-1.5s-1.1-1.9-2.1-2.5c-4.6-2.6-9.7-3.2-14.8-4.2c-9.5-1.7-19-3.2-28.5-4.7c-0.7-0.1-1.9,0.1-1.6-1.2
		c0-0.2,1.2-0.5,1.8-0.4c1.8,0.2,3.6,0.5,5.4,0.8c13.7,1.9,27.3,5.2,41.2,4.9c1.3,0,3.2,0.7,3.6-0.6c0.7-1.9-1.5-2.2-2.7-2.8
		c-8.8-4.4-18.4-6.6-27.7-9.6c-10.1-3.3-20.8-4.6-31.1-6.9c-1.2-0.3-3-0.1-2.9-2c0-1.6,1.6-1.5,2.7-1.7c9.5-1.3,18.9-3.8,28.7-2.3
		c4.3,0.5,8.7,0.6,13,0.3c2.4-0.1,6.5,0.4,6.8-2.1c0.2-2-3.8-3-6.4-3.7C493.6,602.3,480.1,602.5,466.6,601.7z M372.8,426.8
		c3.3,0.2,4.7-1.1,4.7-4.3c-0.4-24.8,3-49.4,3.1-74.2c0.1-11,3.8-22,1-32.8c-3.3-12.6-0.9-24.7,0.9-37c2.5-15.8,7.4-31.1,14.5-45.5
		c0.8-1.7,2.5-4.3-0.2-5.8s-3.7,1.3-4.8,3c-8,12.3-15.5,24.9-22.6,37.7c-2.8,4.9-4.5,10.4-5.3,16c-1.4,11.5-2.9,23.1-3.7,34.7
		c-1,15.6-3.5,31.1-2.3,46.8c1.2,16,3.2,32,5.1,48c0.5,4.5,2.7,8.7,6.1,11.7C370.4,426,371.3,427,372.8,426.8z M566.4,513
		c-0.1-6.4-1.1-12.6-4.2-18.3c-0.9-1.6-2.3-3.6-4.2-2.8s-0.5,2.9-0.1,4.3c2.1,6.5,3.3,13.2,6.1,19.5c0.4,1,1.7,2.4,0.4,3
		c-1.8,0.9-1.9-1.3-2.4-2.3c-3.5-7.1-4.3-15-6.8-22.4c-0.9-2.7-1.2-6.1-3.8-7.3c-6.1-2.8-11.3-7-17.3-9.9c-2.8-1.3-6.1-1.3-7.7,1.3
		s1.5,4.3,2.9,6.2c0.8,1.1,3.8,1.4,2.6,2.8c-1.4,1.7-3.1-0.7-4.5-1.6c-0.6-0.5-1.2-1.2-1.6-1.9c-4.7-6-7.4-6.3-13.9-2.2
		c-2.4,1.5-3.7,2.5-0.6,4.9c1.8,1.4,2.9,3.6,4.2,5.5c0.5,0.7,1,1.6,0,2.1s-1.4-0.4-1.9-1.1c-1.3-2-2.7-3.8-4.4-5.4
		c-4-3.5-10.1-2.7-14.3,1.8c-2.5,2.6-2.1,7.4,0.8,10.3c0.9,0.9,1.9,2.3,3.4,1.3c1.7-1.1-0.1-2.3-0.3-3.5c-0.2-1.5-2.7-3.1-0.9-4.1
		c1.4-0.7,2.3,1.9,3.2,3.2c0.3,0.4,0.6,0.8,0.8,1.3c0.7,1.9,3,3.9,0.5,5.7c-2.1,1.5-4.5,0.8-6.4-0.9c-2.6-2.3-5.2-4.7-7.9-6.9
		c-3.9-3.3-8.5-3.4-12.2,0c-2.3,2.1-3.1,4.3,0,6.6c11.8,9,18.1,21.5,21.9,35.5c1.2,4.3,2.3,4.9,5.6,1.7c6.8-6.3,13.5-12.7,22.6-16.1
		c11.5-4.2,23.2-6,35.3-3.8c4.3,0.8,5.9-0.5,5.2-4.7C566.3,514.3,566.4,513.7,566.4,513z M667.2,314c0.2-18.5-8.1-29.9-14.2-42.2
		c-0.5-1.1-1.8-1.6-2.9-1.1c0,0-0.1,0-0.1,0.1c-1.4,0.6-1.7,1.7-1.6,3.2c0.3,4.3,0.4,8.6,0.2,12.9c-1.2,17.6-2.7,35.1-3.8,52.7
		c-1,15.4-1.4,30.9-2.4,46.3c-0.9,14.3-2.2,28.5-3.3,42.8c-0.1,1.4-1,3.3,0.9,4c1.4,0.5,2.2-1.2,3.1-2.1c7.3-6.9,12.6-15,14.8-24.9
		c0.1-1,0.5-1.9,1-2.8c1.8-2,3.5-4.2,6-5.5c1.1,2.7-0.9,4.7-1.4,7c-0.2,0.6-0.3,1.2-0.3,1.8c1.2,0.4,1.1-0.8,1.3-1.4
		c2.9-7.3,3.9-14.8,5.1-22.5c1.4-8.9,0.9-17.5,0.6-26.2C669.8,340.6,668.3,325.4,667.2,314z M421,251.2c-0.1,1.5-0.1,3,0,4.4
		c1,7.7-0.1,15.7,4.2,22.8c1.4,2.3,2.2,2.9,4,0.3c2.3-3.3,3.5-7.2,3.6-11.2c0.3-14.4,5.4-27.6,9.3-41.1c0.4-1.3,0.9-2.6,2.7-2.3
		c6,0.9,8.3-3.1,10-7.6c3.6-9.5,8.4-18.5,14.3-26.7c2.7-3.8,4.7-8.1,5.9-12.6c2-7.2,3.7-14.5,5.6-21.7c0.4-1.5,0.8-3.1-0.7-4.1
		c-1.8-1.2-3,0.2-4.3,1.2c-7.8,6-16.1,11.2-24.2,16.6c-10.4,6.9-20,15-23,27.7C424,214.7,421.6,232.9,421,251.2z M365.3,99
		c-7-0.4-11.4,4.1-11,9.4c0.4,6.6,0.8,13.3,1.8,19.9c2.2,14.8,5.5,29.4,11.4,43.2c0.3,0.8,0.2,2.3,1.4,2.2c0.7-0.1,1.4-1.3,1.9-2.1
		c4.9-8.5,9.5-17.2,14.8-25.4c6.9-11,15.2-21.1,24.7-30c2.4-2.2,2.9-3.5-0.8-5.1C394.5,104.7,379,101.3,365.3,99z M609,252.5
		c-0.3-3.4-0.7-7.8-1-12.1c-2.2-28-11.3-52.9-32.5-72.4c-0.9-0.9-1.5-2.6-3.1-2.1s-1.2,2.2-1.2,3.5c-0.1,10.2-0.4,20.4,1.5,30.4
		c3.7,19.4,7.9,38.8,11.9,58.1c0.4,2.1,0.7,4.3,1.3,6.4c0.4,1.5,1.9,2.5,3.5,2.2c1.3-0.3,0.7-2,0.7-3c0.4-13-1.4-25.9-2.8-38.8
		c-0.3-2.8-0.9-5.6,0-8.4c1.7,2.3,1.4,5.1,1.9,7.7c0.1,0.8,0.3,1.6,0.5,2.5c3.1,17.8,9.5,34.7,15.2,51.8c0.2,0.5,0.7,1.3,1.1,1.4
		c0.9,0.2,0.9-0.7,0.9-1.4C606.2,269.8,609,261.7,609,252.5z M342,382c-0.5,13.1,4.9,24.7,8.3,36.8c4.7,16.8,16.8,27.9,28.4,39.6
		c0.5,0.4,1.1,0.7,1.7,1c0.1-0.6,0.2-1.2,0.1-1.8c-1.5-6.5-1.8-13.2-2.5-19.8c-0.5-3.9-2.1-7.1-5.9-8.6c-7.1-2.8-10.3-8.7-11-15.5
		c-2.2-23.6-7.7-46.9-4.3-70.9c1.3-9,1.1-18.3,1.9-27.4c0.8-10.1,2-20.2,3-30.3c0.1-1.1,0.1-2.2-0.1-3.2c-1.8-0.2-1.9,1.6-2.4,2.6
		c-1.4,2.8-2.5,5.8-3.5,8.8C347.9,322.4,345.4,352.2,342,382z M685.6,107.8c-15.6,1.7-30.5,4-45.1,8.2c-3.7,1.1-3.8,2-1.6,4.6
		c10,11.8,15.6,25.7,19.2,40.6c0.8,3.2,1.8,6.4,2.8,9.6c0.2,0.7,0.5,1.9,1,2c1.2,0.4,1.5-0.9,2.1-1.7c12.2-17.9,22-36.7,25.7-58.3
		C690.3,108.7,689.5,106.7,685.6,107.8L685.6,107.8z M578.6,438c1.5,0,3,0,4.5,0c7.6-0.3,13.8-7.5,12.9-15
		c-1.5-12.2-5-24.1-7.2-36.2c-0.6-3.1-2-3.6-4.3-1.5c-5.2,4.5-10.9,8.3-17,11.4c-3.5,1.8-4.2,4.5-3.2,7.9c1.7,6,5.1,11.3,9.8,15.4
		c2.6,2.3,5.6,4.2,8.3,6.4c1,0.8,3,1.9,2,3.2c-0.7,1-2.4-0.5-3.4-1.3c-8.3-6.2-16.2-12.9-22.2-21.4c-2.8-3.9-6.1-3.6-8.2,0.8
		c-2.2,4.4-2.4,9.5-0.4,14C554.3,431.7,566.6,438.8,578.6,438L578.6,438z M469.2,468.6c-0.7-9-2.8-17.9-6.2-26.3
		c-1.7-4.2-4.4-6.3-8.3-7.9c-8.4-3.5-17.2-5.2-25.9-7.3c-3.5-0.8-4.7,0.1-3.1,3.8c5.1,11.9,8.7,24.5,18.4,33.9
		c0.8,0.8,1.4,1.9,1.8,3c2.1,6.7,7.8,10.5,12.4,15.1c3.1,3,5.9,2.4,7.4-1.6C467.4,476.9,468.2,472.1,469.2,468.6z M687.1,386.9
		c-0.4-5.8-0.8-11.6-1.1-17.5c-0.8-19.4-3.2-38.5-12.2-56c-1.3-2.6-1.1-5.8-3.6-7.8c-1.8,3-0.8,6.1-0.7,9.2c1,23,5.5,45.9,2.4,69.1
		c-1.8,13.2-0.9,26.7-4.7,39.6c-0.2,0.8-1,2,0.1,2.6c0.3,0.2,1.4-0.7,2-1.2c3.3-3.1,6.5-6.1,9-10.1
		C683.7,406.2,688.1,397.5,687.1,386.9z M655.7,94.1c-11.3-0.2-22.6,1.2-33.9,2.1c-1.1,0.1-2.6-0.1-2.8,1.4c-0.2,1.1,1,1.6,1.8,2.2
		c4.7,3.7,9.2,7.7,12.4,12.9c1.5,2.5,3.5,2.1,5.6,1.4c14.9-4.9,30.4-7.2,45.9-8.7c6.4-0.6,8.2,1.2,7.1,7.6c-2,11.8-5.8,23.3-11.1,34
		c-3.5,7.2-7.5,14.1-11.8,20.8c-0.3,0.5-0.5,1.1-0.5,1.7c1.1,0.6,1.3-0.6,1.6-1.1c2.9-4.1,5.7-8.2,8.4-12.4
		c8.3-13.1,15.2-27,20.6-41.5c3.8-10,1.4-14.3-8.6-16.8C679,95,667.4,93.7,655.7,94.1z M382.6,85.3c-5.9,0.3-13.9,0.7-21.7,2.8
		c-4.1,1.1-5.9,3.4-5.9,7.3c0,1.2-0.9,3,0.3,3.7c1.1,0.6,1.6-1.5,2.7-1.8c1.6-0.5,3.3-1.2,4.8-1c16.7,2.2,33,5.7,48.2,13.2
		c2.2,1.1,3.8,1.1,5.8-0.6c4.9-4.3,10-8.3,15-12.5c1.1-0.9,3.1-1.7,2.9-3.2c-0.3-2-2.7-1.6-4.1-2C415.5,87.5,400.1,86.3,382.6,85.3z
		 M459.2,314.1c8.5,0,12.9-3.8,13.5-10.6c0.1-1,0.5-1.9,1-2.7c4.4-7.2,4-15.2-1.2-21.7c-3.6-4.5-8.2-6.8-14-5.8
		c-3.1,0.5-5.5,1.7-5.6,5.7c0,4.5-2.6,8.6-6.7,10.5c-5,2.3-5,5.4-3,9.5c1,1.9,1.6,4.1,2.8,5.8C449.7,309.8,454.1,313.7,459.2,314.1z
		 M570.9,314c6.3,0,10.4-2.1,11.8-7c1.3-4.5,2.6-8.8,6.3-12c1-1.1,1.6-2.6,1.6-4.1c0.4-10.1-5.3-16.5-15.3-17.6
		c-2.7-0.3-3.8,0.5-4.5,3.1c-1.7,6.9-5.3,12.1-13.3,12.5c-1.8,0.1-2.2,1.5-2.8,3C552.1,299.3,559.3,314.8,570.9,314z M468.8,229.4
		c-0.1-1.3-0.1-2.7,0-4c1-4.8-1.3-5.4-5.2-4.5c-4.7,1.2-8.9,3.4-11,7.9c-4.8,10.6-7.7,22-8.5,33.7c-0.2,2,0.3,2.8,2.5,1.7
		c9.8-4.7,19.1-2.6,28.2,2.1c1.4,0.7,2.5,2.1,4.3,1.8c-0.5-1.5-1-3.1-1.6-4.6C472.7,252.6,469,241.5,468.8,229.4z M408,237.9
		c0.1,2.6,0.1,5.3,0.5,8c0.6,4.6,3.4,8.6,4,13.3c1.4,12.6,3.2,25.1,4.9,37.6c0.1,0.9,0.1,2,1.3,2.4c0-0.8,0.2-1.6,0.1-2.5
		c-0.2-13.2,1-26.5,0.3-39.8c-0.8-17.4,2.2-34.4,5-51.5c0.3-1.9,1.4-4.2-0.7-5.6s-4.6-0.3-6.5,1.1c-6.2,4.6-11.3,10.3-13.9,17.8
		c-0.6,1.6-0.7,2.9,0.6,4C408.6,226.8,408.2,232.4,408,237.9z M595.3,441c0.5-3.8-1.4-3.9-4.1-2.7c-3.3,1.5-6.7,3-9.9,4.6
		c-12.5,6.3-17,16.9-13,30.3c1.2,3.9,2.1,7.9,1.3,11.8s0.2,6.2,3.8,6.5c3.3,0.2,3.8-3,4.1-5.6c0.5-4.8,1-9.6,1.6-14.4
		c0.1-0.6,0.3-1.2,0.6-1.8c0.3,0.6,0.5,1.2,0.6,1.8c0.1,2-0.1,4,0.2,6c0.2,1.2-0.4,3,1.2,3.5c1.2,0.4,1.9-1.1,2.7-1.9
		c2.8-3.1,5-6.7,6.4-10.6C594,459.6,593.5,450.1,595.3,441z M348.1,854.6c0.2,1.6,0.2,2.7,0.4,3.9c2.9,16.8,5.9,33.6,7.5,50.7
		c0.1,0.5,0.2,1,0.3,1.5c1-0.4,0.8-1.3,0.9-2c2.8-13.5,4.5-27.3,8.6-40.4c3-9.6,1.5-15.3-6.8-20.8c-6.3-4.1-7.9-4.3-10.1,3.2
		C348.5,852,348.3,853.5,348.1,854.6z M650.1,473.4c0-0.7-0.1-1.4-0.2-2.2c-2.7-9.3-7.1-17.9-10.6-26.8c-0.2-0.4-0.6-0.8-0.9-1.1
		c-0.3,0.8-0.5,1.5-0.6,2.3c-2.2,14.4-6.4,28.1-13.8,40.7c-1.2,2-0.7,2.9,1.5,2.4c5.2-1.2,10.5-1.5,15.4-3.8
		C645.9,482.7,649.7,479.3,650.1,473.4L650.1,473.4z M607.9,352.6c-0.1-2-0.2-3.3-0.2-4.6c-1.8,0.4-1.9,2.1-2.5,3.3
		c-4.7,8.2-8.3,17-13.8,24.8c-1.8,2.6-1.5,5.5-1,8.6c1.4,8.8,2.9,17.6,5.8,26.1c0.5,1.3-0.6,3.6,1.4,3.6c1.6,0.1,1.7-2.1,2.2-3.5
		c2.8-8.3,2.4-17,3.8-25.5C605.5,374.4,605.4,363,607.9,352.6z M422.1,470.1c-0.8,3.6-0.3,6,4.3,5c1.2-0.2,2.6,0.3,3.9,0.6
		c5.5,1.4,10.9,2.8,16.4,4.1c1,0.2,2.4,1,3.1-0.3c0.6-1-0.6-1.8-1.1-2.6c-1.7-2.8-3.6-5.6-5-8.5c-4-8.2-10.8-13.3-18.4-17.6
		c-2.4-1.4-3.1-0.5-3.2,2C421.8,458.6,422.9,464.3,422.1,470.1z M646.3,279.3H646c0.1-1.7,0.1-3.3,0.4-5c1.9-11.9-2.8-21.5-10-30.3
		c-1.2-1.4-2.5-3-4.6-1.9c-1.7,0.9-1.8,2.3-1.2,4.2c5.3,17.1,11,34.1,13.4,51.9c0.1,0.5,0.3,0.9,0.5,1.4c0.3-0.5,0.7-1,0.8-1.5
		C645.6,291.9,645.9,285.6,646.3,279.3z M582.8,259.9c-0.2-0.7-0.5-2.4-0.8-4c-2-10.1-2.9-20.5-8.3-29.6c-0.4-0.6-0.3-1.7-1.4-1.7
		c-0.1,0-0.4,0.8-0.4,1.2c0.7,11.3-2,22.2-3.8,33.2c-0.4,2.5,0.3,3.4,2.9,2.8c3.1-0.7,6.4-0.4,9.3,0.7
		C582.1,263.2,583.3,263.2,582.8,259.9z M479.5,613.3c-0.9,0.1-3.2,0.4-5.5,0.7c-0.9,0.1-2.4-0.1-2.5,1c-0.2,1.6,1.5,1.5,2.4,1.7
		c11.8,2.5,23.5,5,34.8,9.5c5.4,2.1,6.7,0.8,4.9-4.9c-0.9-2.7,0-7.7-4.9-7.3C499.4,614.8,490.2,613.7,479.5,613.3z M469.2,480.9
		c0.1,1.4,0.4,2.7,0.8,4c0.9,2.3-0.9,6.4,2.4,6.5c1.4,0-0.6-4.2-0.9-6.6c-0.1-0.9-1-2.1,0-2.7c1.5-0.8,1.9,0.9,2.5,1.8
		c1.1,1.5,2,3,2.8,4.7c0.6,1.5,1.3,2.1,2.9,1.7c3-0.6,5.5,0.4,7.9,2.2c0.6,0.5,1.3,1.3,2,0.6c0.4-0.4,0.3-1.2,0.3-1.9
		c-0.3-7.6-5.5-14.7-12.4-17C471.4,472,469.3,473.5,469.2,480.9z M654.3,434.5c4.7,0,7.3-2.2,8.8-5.9c2.8-7.5,4.6-15.3,5.4-23.2
		c0-0.6-0.1-1.2-0.2-1.9c-0.4,0.5-1,1-1.1,1.5c-0.5,2.8-0.9,5.6-1.5,8.3c-0.1,0.6-1.1,2.6-1.5,1.2c-1.6-5-2.5-0.1-2.8,0.2
		c-3.8,4.8-8.1,9.3-12.7,13.4c-1.4,1.2-2.6,2.5-3.8,3.9c-1.2,1.3-0.3,2.7,0.9,2C649.1,432.3,651.9,434.7,654.3,434.5L654.3,434.5z
		 M617.8,502.8c1-0.3,2.7,0.8,3.2-1.1c0.5-1.8,0.2-3.6-1.7-4.2c-4.3-1.4-3.5-4.4-1.6-6.6c6.2-7.3,7-16.3,9.2-25
		c0.2-0.8,0.8-1.9-0.3-2.6c-0.5,0.6-0.9,1.3-1.3,2c-4.5,12.1-10.2,23.5-19.2,33c-1.8,1.9-1.1,3,1.1,3.3
		C610.6,502.2,614.1,502.4,617.8,502.8z M471,198.9c-0.3-1.4,0.9-3.3-0.4-3.7c-1.4-0.4-1.6,1.8-2.2,2.8c-3.4,5.5-6.6,11.1-9.8,16.7
		c-0.9,1.6-3.5,3.2-2.2,5.1c1.5,2.3,3.5-0.4,5.2-0.7c1.8-0.3,3.6-0.8,5.3-1.4c1.8-0.7,3.1-1.8,3-4
		C469.6,208.6,470.5,203.7,471,198.9z M441,250.8c0,3.6,0,7.3,0,11c0.1,0.7,0.2,1.3,0.3,2c0.3-0.5,0.4-1.1,0.6-1.6
		c0.9-10.9,3.6-21.6,7.7-31.7c0.5-1.2,2-2.9,0.2-4c-1.6-0.9-3.1,0.5-4.4,1.5s-1.7,2.8-2.3,4.3C440.9,238.2,441,244.5,441,250.8
		L441,250.8z M389,276c0-1.3,0.1-2.7,0-4c-0.1-0.9,0.5-2.4-0.6-2.5s-1.1,1.4-1.3,2.3c-1.4,6.7-2.7,13.4-4,20c-0.6,3.3-0.6,6.6,0,9.9
		c0.1,0.6,0,1.4,0.8,1.6s1-0.7,1-1.3C386.2,293.4,388.8,284.9,389,276z M592.3,258.7c-0.7,5.7-1,11.1,6.1,13.1
		c0.6,0.1,1.2,0.2,1.9,0.2c0-0.6-0.2-1.2-0.4-1.7c-2.1-3.8-3.2-8-4.5-12.1c-0.8-2.6-1-5.5-2.7-7.9
		C591.2,253.1,592.6,256,592.3,258.7L592.3,258.7z M448.1,275.6c-2.9,0-7.4,3.8-7,6s-0.3,5.5,3.1,5.9c2.3,0.3,6.6-5.7,6.5-8.6
		C450.6,277.1,449.9,275.8,448.1,275.6z M566.3,277.8c0.1-1.5-0.2-3.4-2.8-3.7s-6.7,3.3-7,6.6c-0.1,1.8-0.1,3.8,2.5,4
		C562.1,285.1,565.8,281.9,566.3,277.8z M439.2,257.9h-0.3c0-3,0-5.9,0-8.9c0-0.5,0-0.9-0.1-1.4c-0.9-0.1-0.8,0.7-0.9,1.2
		c-1.6,5.9-2.5,11.9-2.8,18c0,1.1-1,3.1,1,3.1c1.7,0.1,3-1.2,3.1-2.9c0-0.1,0-0.2,0-0.3C439.2,263.9,439.2,260.9,439.2,257.9z
		 M595.8,477.4c-0.1-0.6,0.5-1.4-0.3-2c-0.3,0.6-0.6,1.2-0.8,1.8c-2.1,6.5-4.2,13-6.3,19.4c-0.3,1.1-1,2.5,0.6,2.9s1.7-1.2,2-2.2
		C593.2,490.9,594.8,484.2,595.8,477.4z M420.3,430.7c0.2,5.1,2.5,9.8,6.2,13.3c0.6,0.6,1.2,1.9,2.2,1.3c0.7-0.4,0-1.5-0.4-2.2
		c-1.8-4.2-3.6-8.5-5.5-12.8c-0.3-0.7-1.1-2-1.3-1.9C420.4,428.7,420.5,429.9,420.3,430.7z M470,600c2.4-0.6,5.3,1.1,7.2-1.6
		c0.4-0.8,0.1-1.7-0.6-2.2c-2.3-2-4.8-0.4-7,0.1s-5,0.2-6.8,2.4C465,600.3,467.6,599.6,470,600z M567.1,486.5
		c-0.1-1.9-0.4-3.8-2.4-3.2c-2.3,0.6-5.1,1.6-5.1,4.6c0,2.2,2.3,4.1,4,3.8C566,491.4,566.7,488.6,567.1,486.5z M421,282.9
		c0.7,1.5-1.2,4.3,1.3,4.9c1.7,0.3,3.3-2.4,3-3.9c-0.4-2.3-1.2-5.1-3.6-6C421,277.6,421.3,281,421,282.9z M421.5,487.2
		c-0.2,0.4-0.3,0.8-0.4,1.2c0.4,4.1,0.8,8.2,1.2,12.3c0.1,1.1,0.9,1.3,1.8,1.1c1.1-0.3,1-1.2,0.6-2c-1.6-3.4-1.8-7-1.8-10.7
		C423,488.2,422.4,487.4,421.5,487.2L421.5,487.2z M354.1,915.4c-0.8-1.6,0.8-4-1.5-5.5c-0.8,2-0.6,4.1-0.5,6.2
		c0,0.7,0.2,1.3,0.4,1.9c0.2,0.6,0.6,1.5,1,1.5c0.9,0,0.5-0.9,0.6-1.5C354.1,917.2,354.1,916.4,354.1,915.4z"/>
	<path d="M350,1025c-0.7-13.1-1.5-26.1-2.2-39.2c0-1,0-2,0.1-3c0.1-0.8,0.4-1.8,1.4-1.6c0.3,0,0.6,1,0.7,1.7c0.2,1.6,0.4,3.3,0.4,5
		c0.5,12.4,1,24.8,1.5,37.2L350,1025z"/>
	<path d="M667,1025c-2.3-4-4.5-8.1-6.8-12.1c-0.4-0.7-0.7-1.8,0-2.2s1.3,0.6,1.7,1.2l8,13.1H667z"/>
	<path d="M707,1006.9c-0.9,6-2,12-2,18.1h-4C703.3,1019.1,703.8,1012.5,707,1006.9z"/>
	<path d="M407,1025c-0.4-3.6-0.8-7.2-1.1-10.8c-0.1-0.8-0.2-1.9,0.8-2c1.5-0.2,1.3,1.1,1.4,2c0.4,3.6,0.6,7.2,0.9,10.8H407z"/>
	<path d="M555.5,1004.6c-0.6-0.1-0.9-0.7-0.8-1.3c0-0.1,0.1-0.2,0.1-0.3c0.4-0.9,0.8-1.8,1.3-2.7c9.8-17,19.8-33.9,28.5-51.5
		c0.5-1,0.8-3,2.4-2.3c1,0.5-0.2,2.1-0.6,3.1c-8.6,18.4-19.6,35.5-29.2,53.3C556.8,1003.8,556.5,1004.6,555.5,1004.6z"/>
	<path d="M551.3,1018.1c-0.3,0-0.7,0-0.9-0.2c-0.7-0.6-0.2-1.3,0.1-1.8c1.3-1.7,2.7-3.3,4.2-4.9c5-5.3,10.1-10.6,15.2-15.9
		c0.5-0.4,1-0.8,1.6-1.2c0,0.4,0.3,1,0.1,1.3c-6.2,7.9-12.8,15.3-19.9,22.3C551.6,1017.9,551.5,1018,551.3,1018.1z"/>
	<path d="M520.3,952.7c-0.4,0.4-0.9,0.8-1.4,1.2c-9,4.7-18,9.3-27,13.9c-0.7,0.4-1.9,0.8-2.3,0c-0.7-1.2,0.7-1.6,1.5-2
		c8.9-4.5,17.7-9,26.6-13.5C518.4,952,519.4,951.2,520.3,952.7z"/>
	<path d="M573.8,992.7c-1.4-0.6-0.2-1.3,0.1-1.7c2-2.5,4-4.9,6-7.2c3.5-4,7.1-7.9,10.6-11.8c0.5-0.6,1.1-1.4,2-0.6
		c0.2,0.1,0,0.9-0.3,1.2c-5.3,7-11.2,13.5-17.6,19.5C574.4,992.3,574.1,992.5,573.8,992.7z"/>
	<path d="M324.5,999.3c1.5-5.4,3-11,4.5-16.5c0.2-0.9,0.5-2.2,1.8-1.7c0.8,0.3,0.9,1.3,0.7,2.2c-1.7,5.7-3.5,11.3-5.3,17
		c-0.2,0.5-1,1.3-1.3,1.2C323.7,1001.1,324.4,1000.2,324.5,999.3z"/>
	<path d="M486.5,951.3c-1.8-0.3-3.7,0.6-3.9-0.9c-0.2-1.8,1.9-1.3,3-1.5c4.4-0.7,8.8-1.2,13.2-1.7c0.7-0.1,1.9-0.5,2,0.5
		s-1,1.2-1.8,1.3C494.7,949.8,490.3,950.6,486.5,951.3z"/>
	<path d="M470.3,1004.1c0.4,0.2,0.9,0.4,1.3,0.7c3.2,2.6,6.4,5.2,9.6,7.8c0.4,0.4,0.9,1.2,0.7,1.6c-0.3,0.9-1,0.4-1.5,0
		c-3.6-2.6-7.4-5.1-10.3-8.4C469.5,1005.3,468.8,1004.5,470.3,1004.1z"/>
	<path d="M544.6,773.3c0.8-2.5-0.3-4.2-1.3-5.9c-6.2-10.9-9.5-23-13.2-34.8c-0.3-0.9-0.9-2.3,0.1-2.7c1.6-0.6,1.6,1.1,1.9,2.1
		c6.8,21.4,16.1,41.9,27.7,61.1c0.5,0.9,1.8,2.3,0.8,3s-1.7-1.1-2.4-1.8c-4.5-4.6-6.8-11-12-15.2
		C544.6,777.8,544.5,775.2,544.6,773.3z"/>
	<path d="M485,701.8c-0.4,0.8-0.8,1.9-1.2,3c-5.1,12.4-14.2,21.8-23.7,31c-0.7,0.6-1.5,1.8-2.5,1s0.2-1.7,0.8-2.4
		c8.2-8.9,16.4-17.8,20.8-29.5c0.6-1.7,2.5-3.1,4-4.4C484.2,699.6,485,700.1,485,701.8z"/>
	<path d="M433.3,840c-1.7,0.1-2.2-0.6-1.6-1.8c0.6-1.4,1.4-2.6,2.4-3.7c8.8-6.9,15.4-16,22.5-24.5c0.3-0.4,0.6-0.8,1-1.1
		c1-0.7,1.9-2.8,2.9-1.9s-0.8,2.2-1.5,3.1c-7,9.7-14.7,18.8-23.1,27.3C435.1,838.4,434.1,839.3,433.3,840z"/>
	<path d="M522.8,703c0.1-0.5,0.2-1.1,0.4-1.6c1,0.1,1.3,0.9,1.5,1.7c1,4.5,2,9,3,13.6c0,0.6-0.1,1.3-0.3,1.9
		c-0.4-0.4-1.1-0.8-1.3-1.3C525,712.6,524,707.9,522.8,703z"/>
	<path d="M619,689.9c0,1.1,0,1.9,0,2.8s0.4,1.9-0.7,2.1c-1.4,0.2-1.4-1.1-1.5-2c-0.8-8-1.7-15.9-2.3-23.9
		c-1.5-19.3-2.1-38.6-1.6-57.9c0.1-0.8,0.2-1.6,0.4-2.4c1.3,0.3,1.2,1.5,1.3,2.4c0.1,5.5,0.2,11,0.3,16.5
		C615.1,648.4,616.9,669.3,619,689.9z"/>
	<path d="M562.1,563.8c2.8,0,5.6,0,8.5,0c0.6,0.1,1.2,0.3,1.7,0.6c-0.5,0.4-1.1,0.6-1.7,0.8c-5.1,0.4-10.2,0.8-15.4,1
		c-4.5,0.2-8.9,0.8-12.9,3.2c-1,0.6-2.5,2.1-3.1,0.2s0.8-3.1,2.7-3.4c4.4-0.8,8.8-1.5,13.2-2c2.3-0.1,4.7-0.1,7,0V563.8z"/>
	<path d="M620.1,714.1c0.3,0.5,0.6,0.9,0.8,1.5c1.3,4.9,2,10,4.7,14.5c0.3,0.6,0.5,1.4-0.2,1.7c-0.6,0.1-1.2-0.1-1.7-0.5
		c-3.3-5-3.8-10.7-4.7-16.4C619,714.5,619,713.7,620.1,714.1z"/>
	<path d="M376.8,623.2c-6.6-3.1-10.1-9.4-14.8-14.6c-7-7.8-12.1-17.1-18.1-25.6c-0.5-0.7-1.5-1.9-0.5-2.6s1.6,0.7,2.1,1.4
		c9.5,14.4,20.1,28.1,31.5,41.1L376.8,623.2z"/>
	<path d="M400,774.2c-1.5,3.2-4,9.6-5.9,9.2c-5.4-1.2-5.4,3.1-7.3,5.2c-2.4,2.5-4.1,5.6-6.1,8.5c-0.5,0.5-0.5,1.3,0,1.8
		c1,1,1.4,1.9,0,2.8c-0.6,0.4-1.3,0.3-1.8-0.2c-1.1-1-0.8-2.1-0.4-3.2c1.1-3.9,3.4-7.2,5.7-10.4c3-4.2,6.4-8.1,9.2-12.4
		c1.5-2.3,4.7,0.2,5.7-2.7C399.3,772.2,400,773.1,400,774.2z"/>
	<path d="M376.7,656.9c0.1-0.9,0.3-1.8,0.6-2.7c1.6,0.1,1.3,1.6,1.5,2.6c0.8,3.6,1.4,7.2,2.1,10.7c1.5,7,4.4,13.2,10.5,17.5
		c0.5,0.4,1.7,0.8,0.8,1.7c-0.2,0.2-1.3,0-1.8-0.3c-3.9-2.3-7-5.7-9-9.7C378.4,670.4,377.6,663.7,376.7,656.9z"/>
	<path d="M400,768.9c-1.2-0.2-0.9-1.2-0.5-1.8c4-6.7,8-13.3,12-19.9c0.3-0.5,0.9-1.1,1.6-0.7c0.3,0.3,0.5,0.8,0.4,1.2
		c-4.2,6.9-8.3,13.8-12.6,20.7C400.8,768.7,400.4,768.7,400,768.9z"/>
	<path d="M333.9,613.3l-0.5,1.3c-0.5-0.4-1.1-0.8-1.3-1.3c-0.9-2.7-1.6-5.4-2.5-8.1c-1.8-5.9-3.6-11.8-5.3-17.7
		c-0.2-0.6-0.1-1.3,0.2-1.8c0.7-0.6,1.1,0.2,1.3,0.8C328.6,595.4,331.2,604.3,333.9,613.3z"/>
	<path d="M345.5,707.4c-0.4,1.1-1.3,1-2.1,1c-3.5-0.2-10.2-5.7-11-9.2c-0.2-0.6-0.1-1.3,0.2-1.8c0.5-0.6,1.2-0.2,1.5,0.5
		c2.3,4.3,6.1,6.8,10.5,8.6C345,706.7,345.2,707.1,345.5,707.4z"/>
	<path d="M328.6,680.9c1.4,0.3,1.7,1.6,2.1,2.5c1.6,3.5,4.6,6.5,5,10.5c0.1,0.9-1.2,0-1.4-0.3c-2.2-3.7-4.3-7.4-6.3-11.2
		c-0.3-0.4-0.2-1.1,0.2-1.4C328.4,681,328.5,681,328.6,680.9z"/>
	<path d="M487.2,100.1c-2.1,0-3.3-0.9-3.3-2.9c0-2.2,1.1-3.3,3.3-3.2c1.9,0,3.2,0.9,3.3,2.9C490.5,99.1,489.1,100,487.2,100.1z"/>
	<path d="M443.6,119.9c-0.2,0.5-0.5,0.9-0.9,1.3c-3.3,3.1-6.6,6.1-9.9,9.1c-0.6,0.6-1.5,1-2.1,0.2c-0.2-0.2,0.4-1.2,0.8-1.6
		c3.4-3.2,6.9-6.3,10.4-9.4C442.4,119.1,443.2,118.7,443.6,119.9z"/>
	<path d="M569.5,98.8c-0.2,2.1-1.7,2.5-3.5,2.3s-3.1-1.1-3-3.1s1.7-2.7,3.5-2.6S569.5,96.7,569.5,98.8z"/>
	<path d="M600.6,131.6c-0.7-0.1-1.1-0.1-1.2-0.3c-0.5-0.7-0.1-1.3,0.4-1.7c3.1-2.5,6.2-5.1,9.3-7.6c0.4-0.3,0.9-0.4,1.4-0.3
		c0.4,0.1,0.6,0.5,0.4,0.9c0,0.1-0.1,0.2-0.2,0.3C607.2,125.9,603.8,128.8,600.6,131.6z"/>
	<path d="M515.8,371.9c2.7-0.1,5.3,0.8,7.4,2.4c1.2,0.7,1.5,2.2,0.8,3.4l-0.1,0.1c-0.9,1.4-2,0.8-3,0.1c-3.5-2.2-6.9-2-10.2,0.3
		c-1.3,0.9-2.6,0.8-3.4-0.7s-0.3-2.6,0.9-3.4C510.5,372.6,513.2,371.9,515.8,371.9z"/>
	<path d="M497.6,201.1c0.9-17.3,4.8-33.3,8.7-49.3c0.2-0.7,0.4-1.9,1.5-1.5c0.9,0.4,0.4,1.4,0.3,2.2c-1.6,8.5-3.3,17-4.9,25.5
		c-2,10.5-2.1,21.2-3,31.8c-0.1,0.7-0.3,1.5-0.6,2.2c-0.4-0.7-0.8-1.4-1-2.1C498.1,206.6,497.9,203.5,497.6,201.1z"/>
	<path d="M638.6,958.2c-1-0.2-2.1,0.1-2.3-0.9s0.8-1.2,1.6-1.4c2.4-0.7,4.8-1.3,7.2-2c11-3.1,21.3-7.4,30.3-14.7
		c0.9-0.7,1.9-1.5,3.1-0.7c-0.6,0.8-1.2,1.6-1.9,2.2C665.4,949.9,652,954.2,638.6,958.2z"/>
	<path d="M698.1,916c-3,4.6-5.5,9.4-9.7,13.2c-0.3,0.2-0.8,0.8-1.1,0c-0.2-0.5-0.1-1,0.1-1.4c2.9-4.2,5.9-8.4,8.9-12.6
		c0.3-0.4,0.8-0.5,1.3-0.7C697.7,915,697.9,915.4,698.1,916z"/>
	<path d="M354.8,942.8c0.5,0.3,1,0.5,1.4,0.8c7,4.8,14.5,8.7,22.5,11.7c0.8,0.3,2.3,0.8,1.9,1.9c-0.5,1.3-1.7,0.2-2.5,0
		c-8.2-2.8-15.9-6.8-23-11.8c-0.6-0.6-1.1-1.3-1.4-2L354.8,942.8z"/>
	<path d="M383.2,952c6.8,1.1,13.5,2.2,20.2,3.4c0.9,0.2,2.5,0.2,2.3,1.3c-0.2,0.8-1.8,0.5-2.7,0.3c-6.7-1.1-13.4-2.2-20.1-3.4
		c-0.7-0.2-1.4-0.6-2-1.1C381.4,951.3,382.5,952.2,383.2,952z"/>
	<path d="M373.9,325.4c0.5-2.9,1.2-6.5,1.9-10.1c0.1-0.4,0.4-1.1,0.7-1.1c1,0,0.8,0.9,0.7,1.4c-0.6,4.4-0.6,8.9-0.1,13.4
		c0.1,1.1,0.4,2.7-1.1,2.9c-2.1,0.2-1.3-1.8-1.7-2.9C374,327.9,373.9,326.7,373.9,325.4z"/>
	<path d="M659.1,332.1c0.5,4.2-0.8,8.7-1.9,13.2c-0.2,0.9-0.3,2.3-1.5,2.2c-1.4-0.2-0.8-1.6-0.6-2.4c1.3-7.4,0.7-14.9,0.8-22.3
		c0-1.4-0.5-3.8,0.9-4c1.9-0.2,1.1,2.2,1.5,3.4C659.2,325.3,659.2,328.5,659.1,332.1z"/>
	<path d="M444.8,454.1c-0.1-1.5-0.1-3,0-4.5c0.1-1.1-0.6-3.1,1.3-3.1c1.3,0,1.4,1.8,1.3,2.9c-0.2,3.1-0.5,6.2-0.9,9.3
		c-0.1,0.7-0.1,1.8-1.1,1.9c-0.3-0.6-0.5-1.4-0.6-2.1C444.7,457.1,444.8,455.6,444.8,454.1z"/>
	<path d="M590.2,457.3c0.2,4-0.3,8-1.4,11.9c-0.2,0.5-0.8,1.4-1.2,1.4c-1.3,0-0.8-1.2-0.7-1.8c1.2-5.7,0.6-11.5,0.8-17.3
		c0-0.9-0.3-2.3,1.2-2.2s1.1,1.4,1.2,2.3C590.2,453.6,590.2,455.8,590.2,457.3z"/>
	<path d="M465,491c0.1,2-0.6,3-2.8,3c-7.2,0.2-14-2.3-20.8-4c-0.6-0.2-1.4-0.5-1.2-1.3c0.3-1.4,1.6-0.9,2.4-0.8
		c7.5,1,15,2.1,22.5,3.2L465,491z"/>
</g>
<g id="图层_1_1_">
	<g>
		<path d="M292,1025l2-0.1c-0.2-0.3-0.4-0.6-0.6-0.9h-2C291.6,1024.3,291.8,1024.7,292,1025z"/>
		<path d="M723,1025h3c0.2-0.3,0.4-0.6,0.5-1h-3C723.4,1024.3,723.2,1024.6,723,1025z"/>
		<path d="M350,1025h2c0-0.3,0-0.7,0-1h-2C350,1024.3,350,1024.7,350,1025z"/>
		<path d="M667,1025h2.9l-0.6-1h-2.9C666.6,1024.3,666.8,1024.7,667,1025z"/>
		<path d="M701,1025h4c0-0.3,0-0.7,0-1h-3.7C701.3,1024.3,701.2,1024.7,701,1025z"/>
		<path d="M407,1025h2c0-0.3-0.1-0.7-0.1-1h-2C406.9,1024.3,407,1024.7,407,1025z"/>
		<path fill="#F3C4AA" d="M573.8,445c0.6-0.5,1.7-0.9,1.3-1.8c-0.3-0.5-1.3-0.8-2.1-1c-5.8-1.4-11.6-2.8-17.5-4.1
			c-4.3-1-7-3.5-8-7.9c-1.2-5.2-1.8-10.5-1.8-15.8c0.1-3.9-1.9-5.2-5.4-4c-2.8,1-5.6,2.1-8.2,3.5c-12.8,6.4-25.6,8-38.5,0.4
			c-1.3-0.9-2.8-1.3-4.3-1.3c-2.8-0.3-4.5,1.1-4.7,3.9c-0.3,2.8-0.3,5.6-0.5,8.5c-0.8,11.6-1.7,12.7-12.8,15.7l-1.9,0.5
			c-2.8,0.7-3.7,1.9-2.5,5c2.5,6.2,3.9,12.8,4.1,19.4c0.1,3.2,1,4.6,4.3,5.4c8,1.8,13.9,6.2,16.4,14.3c0.5,1.6,0.8,3,2.8,1.2
			c3-2.6,7.4-2.4,10.4-4c6.4-3.5,13-5.1,19.8-7c5.1-1.4,9.4-2.5,13.6,0.6c5,3.7,10.8,5.9,15.8,9.4c0.5,0.4,1,0.7,1.7,0.7
			c5.4-0.8,11-9,9.9-14.6C563.6,461.4,564.6,452,573.8,445z"/>
		<path fill="#6F76A3" d="M426.3,475.1c1.2-0.2,2.6,0.3,3.9,0.6c5.5,1.4,10.9,2.8,16.4,4.1c1,0.2,2.4,1,3.1-0.3
			c0.6-1-0.6-1.8-1.1-2.6c-1.7-2.8-3.6-5.6-5-8.5c-4-8.2-10.8-13.3-18.4-17.7c-2.4-1.4-3.1-0.5-3.2,2c-0.2,5.8,0.9,11.6,0.1,17.3
			C421.3,473.6,421.8,476,426.3,475.1z"/>
		<path fill="#6F76A3" d="M458.3,483c3.1,3,5.9,2.4,7.4-1.6c1.7-4.5,2.5-9.3,3.5-12.8c-0.7-9-2.8-17.9-6.2-26.3
			c-1.7-4.2-4.4-6.3-8.3-7.8c-8.4-3.5-17.2-5.2-25.9-7.3c-3.5-0.8-4.7,0.1-3.1,3.8c5.1,11.9,8.7,24.5,18.4,33.9
			c0.8,0.8,1.4,1.9,1.8,3C448,474.5,453.7,478.4,458.3,483z M447.4,449.4c-0.2,3.1-0.5,6.2-0.9,9.3c-0.1,0.7-0.1,1.8-1.1,1.9
			c-0.3-0.6-0.5-1.4-0.6-2.1c0-1.5,0-3,0-4.5c-0.1-1.5-0.1-3,0-4.5c0.1-1.1-0.6-3.1,1.3-3.1C447.4,446.5,447.5,448.4,447.4,449.4z"
			/>
		<path fill="#FBFDFA" d="M566.3,277.8c0.1-1.5-0.2-3.4-2.8-3.7s-6.7,3.3-7,6.6c-0.1,1.8-0.1,3.8,2.5,4
			C562.1,285.1,565.8,281.9,566.3,277.8z"/>
		<path fill="#97CDDA" d="M554.8,291.9c-2.8,7.4,4.5,22.9,16.1,22.1c6.3,0,10.4-2.1,11.8-7c1.3-4.5,2.6-8.8,6.3-12
			c1-1.1,1.6-2.6,1.6-4.1c0.4-10.2-5.3-16.5-15.3-17.7c-2.7-0.3-3.8,0.5-4.5,3.1c-1.7,6.9-5.3,12.1-13.3,12.5
			C555.8,289,555.4,290.4,554.8,291.9z"/>
		<path fill="#FBFDFA" d="M450.7,278.9c0-1.8-0.8-3.2-2.6-3.3c-2.9,0-7.4,3.8-7,6s-0.3,5.5,3.1,5.9
			C446.5,287.8,450.8,281.8,450.7,278.9z"/>
		<path fill="#6F76A3" d="M597.6,414.5c1.6,0.1,1.7-2.1,2.2-3.5c2.8-8.3,2.4-17,3.8-25.5c1.9-11.1,1.8-22.5,4.3-32.9
			c-0.1-2-0.2-3.3-0.2-4.6c-1.8,0.4-1.9,2.1-2.5,3.3c-4.7,8.2-8.3,17-13.8,24.8c-1.8,2.6-1.5,5.5-1,8.6c1.4,8.8,2.9,17.6,5.8,26.1
			C596.6,412.1,595.6,414.4,597.6,414.5z"/>
		<path fill="#FDF7E1" d="M598.4,271.8c0.6,0.1,1.2,0.2,1.9,0.2c0-0.6-0.2-1.2-0.4-1.7c-2.1-3.8-3.2-8-4.5-12.1
			c-0.8-2.6-1-5.5-2.7-7.9c-1.5,2.8-0.2,5.7-0.5,8.4l0,0C591.7,264.4,591.3,269.8,598.4,271.8z"/>
		<path fill="#9B9EC7" d="M449.8,226.5c-1.6-0.9-3.1,0.5-4.4,1.5s-1.7,2.8-2.3,4.3c-2.2,6-2.1,12.3-2,18.6l0,0c0,3.6,0,7.3,0,11
			c0.1,0.7,0.2,1.3,0.3,2c0.3-0.5,0.4-1.1,0.6-1.6c0.9-10.9,3.6-21.6,7.7-31.7C450.1,229.3,451.6,227.5,449.8,226.5z"/>
		<path fill="#6F76A3" d="M465.7,435.2c-0.8,0.6-2.4,1-1.4,2.5c0.6,0.8,1.6,1.2,2.6,1c7.4-0.8,13.2-6.6,14-13.9
			c0.1-0.8,0.5-1.7-0.6-2.1s-1.4,0.6-1.9,1.2c-2.2,3.1-4.5,6-8.4,7C469.2,433,467.3,433.9,465.7,435.2z"/>
		<path fill="#FBFDFA" d="M643,438.3c-3.3,1.3-3.1,2.2-2,4.8c3.2,7.3,6.2,14.7,9.2,22.1c4.3,10.8,0.5,19.2-10.5,22.7
			c-4.4,1.5-8.9,2.6-13.5,3.2c-5.3,0.6-5.7,1.5-3.8,6.2c2,5.1,5.5,7.6,11,7.8c6.2,0.1,12.3,0.1,18.5-0.2c4.5-0.2,8.4-0.9,9-6.4
			c0.1-0.7,0.3-1.4,1-1.5c1.2,0,1.2,1,1,1.8c-0.9,4.5,2.1,5,5.3,5.2c1.9,0.1,4.6-0.6,5.2,1.9c0.8,3.2,2.2,6.2,0.9,10
			c-4.3,13-7.4,26.3-9.1,39.8c-3,22.1-5.9,44.2-8.8,66.3c-1.8,13.9-5.3,27.5-6.3,41.5c-0.5,8.1,6.6,16.7,14.8,17.2
			c5.8,0.3,10.5,3,15.5,5.1c0.5,0.2,1.6,0.1,1.3,1.1s-1.4,0.7-2.1,0.4c-3.3-1.1-6.6-2.3-9.9-3.4c-0.8-0.2-1.6-0.3-2.3-0.4
			c0.5,0.6,1,1.2,1.5,1.7c4.2,3.1,8,6.5,11.5,10.3c3.4,3.7,6.1,7.9,6.7,13.1c0.1,1.1,0.6,3-0.4,3.2c-1.4,0.3-1.3-1.5-1.5-2.6
			c-1.2-5.2-4-9.9-8-13.6c-6.7-6.4-14.3-11.4-21.6-17c-1.9-1.4-4-4.8-6-3.4s0.6,4.5,0.8,6.9c0.1,1.4,1.5,3.6,0,4
			c-2,0.6-1.8-2-2.1-3.2c-3.6-16.6-8.6-32.8-11.5-49.6c-0.8-5.8-3.7-11.2-8.1-15.1c-2.7-2.4-5.5-4.8-8.4-7.1
			c-5.2-4.3-7.7-9.8-7.9-16.6c-0.2-4.5-0.7-8.9-1.4-13.4c-0.8-5-3.5-8.8-8.5-10.1c-10.4-2.7-15.4-9.9-17.4-20.1
			c-1.6-8.5-4.5-16.7-8.6-24.3c-1-1.8-1.8-3.9-4.2-3.8c-7.2,0.4-14.1-2.3-21.3-2c-3,0.2-6,0.4-9,0.7c-20.2,2.3-34.1,14.8-46.5,29.4
			c-4.9,5.8-4.7,11.5-0.1,17.8c5,6.9,10.2,13.6,14.7,20.8c3.2,5.1,5,11,5.5,17c0.3,3.4-1.2,6.4-0.4,9.8c1.7,7.2,3.3,14.2,11.7,16.8
			c1.7,0.4,2.9,2,2.9,3.7c-0.1,2.1-1.8,2.5-3.5,2.8c-0.7,0.1-2.6-0.1-1.4,1.5c3.2,4.2,4.4,9.6,8.4,13.4c5.3,5,10.4,10.3,15.3,15.8
			c3.6,4.1,7.8,7.9,9.2,13.4c4.7,18.7,10.6,37.1,15.3,55.8c3.6,14.2,8.1,27.6,16.6,39.7c4.4,6.3,10.8,10.9,18.3,12.8
			c18.2,5.2,36.9,7.3,55.7,8.6c8,0.6,14.6-1.8,18.4-9.8c6-12.5,10.9-25.4,13-39.1c0.3-2.7,1.1-5.2,2.5-7.5c3.3-4.8,3.4-9.9,2-15.3
			c-1.4-4.5-1-9.4,0.9-13.6c2.2-4.9,2.7-10.4,1.3-15.7c-2.7-11.5-5.7-22.9-8.8-34.3c-1.3-4.9-1.6-9.7,1-14c7.6-13,7.8-26.2,2.5-40.2
			c-3.9-10.3-6.6-21-8.2-31.8c-0.1-1-0.9-2.7,0.5-3c1.7-0.4,1.4,1.5,1.6,2.5c1.3,5,2.4,10,3.6,15.1c0.2,0.9-0.1,2.4,1,2.5
			c1.5,0.1,1.5-1.6,1.8-2.5c2.2-8.2,4.4-16.4,6.2-24.6c4.1-18.4,6.2-37.1,8.9-55.7c0.7-4.9,2.3-9.7,1.1-14.8
			c-2.2-9.3-6.8-17.8-13.4-24.7c-11.7-12.3-24.8-23.2-39-32.6C655.1,437.4,649.8,435.5,643,438.3z M570.6,565.1
			c-5.1,0.4-10.2,0.8-15.4,1c-4.5,0.2-8.9,0.8-12.9,3.2c-1,0.6-2.5,2.1-3.1,0.2s0.8-3.1,2.7-3.4c4.4-0.8,8.8-1.5,13.2-2
			c2.3-0.1,4.7-0.1,7,0v-0.2c2.8,0,5.6,0,8.5,0c0.6,0.1,1.2,0.3,1.7,0.6C571.7,564.7,571.2,565,570.6,565.1z M618.4,694.7
			c-1.4,0.2-1.4-1.1-1.5-2c-0.8-8-1.7-15.9-2.3-23.9c-1.5-19.3-2.1-38.6-1.6-57.9c0.1-0.8,0.2-1.6,0.4-2.4c1.3,0.3,1.2,1.5,1.3,2.4
			c0.1,5.5,0.2,11,0.3,16.5c0.3,20.9,2.1,41.8,4.3,62.5c0,1.1,0,1.9,0,2.8S619.4,694.6,618.4,694.7z M625.4,731.7
			c-0.6,0.1-1.2-0.1-1.7-0.5c-3.3-5-3.8-10.7-4.7-16.4c0-0.3,0-1.1,1.1-0.7c0.3,0.5,0.6,0.9,0.8,1.5c1.3,4.9,2,10,4.7,14.5
			C625.9,730.7,626.1,731.5,625.4,731.7z"/>
		<path fill="#FBFDFA" d="M424.1,501.8c1.1-0.3,1-1.2,0.6-2c-1.6-3.4-1.8-7-1.8-10.7c0.1-0.9-0.5-1.7-1.4-1.9
			c-0.2,0.4-0.3,0.8-0.4,1.2c0.4,4.1,0.8,8.2,1.2,12.3C422.4,501.8,423.2,502,424.1,501.8z"/>
		<path fill="#F3C4AA" d="M475.8,502.4c11.8,9,18.1,21.5,21.9,35.5c1.2,4.3,2.3,4.9,5.6,1.7c6.8-6.3,13.5-12.7,22.6-16.1
			c11.5-4.2,23.2-6,35.3-3.8c4.3,0.8,5.9-0.5,5.2-4.7c0-0.7,0-1.3,0-2c-0.1-6.4-1.1-12.6-4.2-18.3c-0.9-1.6-2.3-3.6-4.2-2.8
			s-0.5,2.9-0.1,4.3c2.1,6.5,3.3,13.2,6.1,19.5c0.4,1,1.7,2.4,0.4,3c-1.8,0.9-1.9-1.3-2.4-2.3c-3.5-7.1-4.3-15-6.8-22.4
			c-0.9-2.7-1.2-6.1-3.8-7.3c-6.1-2.8-11.3-7-17.3-9.9c-2.8-1.3-6.1-1.3-7.7,1.3c-1.6,2.6,1.5,4.3,2.9,6.2c0.8,1.1,3.8,1.4,2.6,2.8
			c-1.4,1.7-3.1-0.7-4.5-1.6c-0.6-0.5-1.2-1.2-1.6-1.9c-4.7-6-7.4-6.3-13.9-2.2c-2.4,1.5-3.7,2.5-0.6,4.9c1.8,1.4,2.9,3.6,4.2,5.5
			c0.5,0.7,1,1.6,0,2.1s-1.4-0.4-1.9-1.1c-1.3-2-2.7-3.8-4.4-5.4c-4-3.5-10.1-2.7-14.3,1.8c-2.5,2.6-2.1,7.4,0.8,10.3
			c0.9,0.9,1.9,2.3,3.4,1.3c1.7-1.1-0.1-2.3-0.3-3.5c-0.2-1.5-2.7-3.1-0.9-4.1c1.4-0.7,2.3,1.9,3.2,3.2c0.3,0.4,0.6,0.8,0.8,1.3
			c0.7,1.9,3,3.9,0.5,5.7c-2.1,1.5-4.5,0.8-6.4-0.9c-2.7-2.3-5.2-4.7-7.9-6.9c-3.9-3.3-8.5-3.3-12.2,0
			C473.5,497.9,472.8,500.1,475.8,502.4z"/>
		<path fill="#6F76A3" d="M569.5,485c-0.8,3.9,0.2,6.2,3.8,6.5c3.3,0.2,3.8-3,4.1-5.6c0.5-4.8,1-9.6,1.6-14.4
			c0.1-0.6,0.3-1.2,0.6-1.8c0.3,0.6,0.5,1.2,0.6,1.8c0.1,2-0.1,4,0.2,6c0.2,1.2-0.4,3,1.2,3.5c1.2,0.4,1.9-1.1,2.7-1.9
			c2.8-3.1,5-6.7,6.4-10.6c3.4-8.9,2.9-18.4,4.7-27.5c0.5-3.8-1.4-3.9-4.1-2.7c-3.3,1.5-6.7,3-9.9,4.6c-12.5,6.3-17,16.9-13,30.3
			C569.4,477.1,570.4,481.2,569.5,485z M587,468.7c1.2-5.7,0.6-11.5,0.8-17.3c0-0.9-0.3-2.3,1.2-2.2s1.1,1.4,1.2,2.3
			c0.1,2.2,0,4.3,0,5.8c0.2,4-0.3,8-1.4,11.9c-0.2,0.5-0.8,1.4-1.2,1.4C586.4,470.5,586.9,469.3,587,468.7z"/>
		<path fill="#6F76A3" d="M428.7,445.3c0.7-0.4,0-1.5-0.4-2.2c-1.8-4.2-3.6-8.5-5.5-12.8c-0.3-0.7-1.1-2-1.3-1.9
			c-1.1,0.3-0.9,1.6-1.2,2.3c0.2,5.1,2.5,9.8,6.2,13.3C427.1,444.6,427.7,445.9,428.7,445.3z"/>
		<path d="M470,430.9C470,430.9,470.1,430.9,470,430.9C470.1,430.9,470.1,430.9,470,430.9L470,430.9z"/>
		<path fill="#6F76A3" d="M420.7,415.1c0.3,5.8,3.8,8.8,9.4,10c7,1.4,13.9,3.3,20.7,5.5c6.5,2.2,12.8,3.3,19.2,0.2l0,0l0,0
			c3.3-3.9,7.5-7.1,9.8-12.1c3.5-7.6,2.5-11.3-5.4-14.4c-5.6-2.4-11-5.4-16-8.9c-3.5-2.4-5.6-1.6-7.8,1.5
			c-3.9,5.5-9.1,9.7-13.9,14.3c-0.6,0.6-1.4,1.8-2.4,0.9c-0.7-0.7,0.3-1.5,0.8-2.1c4.4-6.3,8.7-12.6,13.3-18.7c1.5-2,1.5-3-0.1-5
			c-3.5-4.2-7.5-8.3-9.9-13.1c-4.5-9.2-10.1-17.8-14.9-26.9c-0.6-1.1-1.1-3-2.6-2.5s-0.7,2.4-0.7,3.6c-0.2,12.6-0.6,25.2-0.5,37.9
			C419.7,395.3,420.2,405.2,420.7,415.1z"/>
		<path d="M470.1,430.8L470.1,430.8L470.1,430.8L470.1,430.8z"/>
		<path fill="#6F76A3" d="M564.7,483.3c-2.3,0.6-5.1,1.6-5.1,4.6c0,2.2,2.3,4.1,4,3.8c2.4-0.4,3.1-3.1,3.5-5.3
			C567,484.6,566.7,482.8,564.7,483.3z"/>
		<path fill="#6F76A3" d="M623.9,246.5c2.8-14.6-2.1-26.1-9.3-37.5c-1-1.6-2-3.9-4.6-2.9s-3,3.2-2.7,5.7c2.8,20.8,3.6,41.8,4.3,62.7
			c0.5,14.8,1,29.5-0.2,44.3c-1,11.7-0.8,23.6-1.9,35.3c-2.7,28.3-8.1,56.3-11.4,84.6c-2.3,19.2-6,37.5-19.8,52.1
			c-1.4,1.4-2.2,3.4-2.3,5.4c-0.1,2.7,1,3.3,3.3,2.3c4.7-1.9,8.3-5.9,9.7-10.8c3.2-10.1,5.9-20.4,8.1-30.9c0.9-4.6,1.7-9.2,2.7-13.7
			c0.2-1.1-0.5-3.3,1.6-2.9c1.7,0.3,0.8,2.2,0.9,3.4c0,0.5,0,1,0,1.5c-0.6,16.9-4.2,33.3-7.6,49.8c-0.3,1.6-2.2,3.6,0.3,4.8
			c2.1,1,4.5,1.6,6.6,0c1.4-1.2,2.7-2.5,3.8-3.9c10-11.8,16.6-25.2,20.7-40c1.5-5.3,2.6-10.7,3.3-16.1c0.1-0.9,0.1-2.4,1.2-2.4
			c1.7,0,1.3,1.6,1.3,2.7c0,1.7-0.1,3.3-0.2,5c-0.5,8-1.6,15.9-3.3,23.7c-0.2,0.8-0.9,2.1,0.3,2.5c0.7,0.2,1-1.1,1.3-1.9
			c1.4-5.5,3-10.9,4.1-16.4c4.5-23.5,4.8-47.3,5.9-71.1c1-21.8,2.5-43.5,4-65.3c0.5-4.2,0.1-8.4-1.1-12.4
			c-4.5-15.5-6.6-31.6-11.6-47c-0.7-2-0.5-4.9-3.5-4.6c-2.9,0.3-2.4,3.1-2.8,5.2c-2.3,15.6-5.1,31.2-8.6,46.6
			c-0.3,1.2-0.2,3.4-1.8,3.1s-0.8-2.2-0.5-3.4C618.7,285,620.3,265.6,623.9,246.5z"/>
		<path fill="#9B9EC7" d="M572.7,199.8c3.7,19.4,7.9,38.8,11.9,58.1c0.4,2.1,0.7,4.3,1.3,6.4c0.4,1.5,1.9,2.5,3.5,2.2
			c1.3-0.3,0.7-2,0.7-3c0.4-13-1.4-25.9-2.8-38.8c-0.3-2.8-0.9-5.6,0-8.4c1.7,2.3,1.4,5.1,1.9,7.7c0.1,0.8,0.3,1.6,0.5,2.5
			c3.1,17.8,9.5,34.7,15.2,51.8c0.2,0.5,0.7,1.3,1.1,1.4c0.9,0.2,0.9-0.7,0.9-1.4c-0.6-8.4,2.2-16.5,2.2-25.8
			c-0.3-3.4-0.7-7.8-1-12.1c-2.2-28-11.3-52.9-32.5-72.4c-0.9-0.9-1.5-2.6-3.1-2.1c-1.5,0.5-1.2,2.2-1.2,3.5
			C571.1,179.6,570.8,189.8,572.7,199.8z"/>
		<path fill="#9B9EC7" d="M388.4,269.5c-1.2-0.1-1.1,1.4-1.3,2.3c-1.4,6.7-2.7,13.3-4,20c-0.6,3.3-0.6,6.6,0,9.9
			c0.1,0.6,0,1.4,0.8,1.6c0.8,0.1,1-0.7,1-1.3c1.2-8.7,3.8-17.2,4-26.1c0-1.3,0.1-2.7,0-4C388.9,271.1,389.5,269.6,388.4,269.5z"/>
		<path fill="#9B9EC7" d="M644.9,339.5c-1,15.4-1.4,30.9-2.4,46.3c-0.9,14.3-2.2,28.5-3.3,42.8c-0.1,1.4-1,3.3,0.9,4
			c1.4,0.5,2.2-1.2,3.1-2.1c7.3-6.9,12.6-15,14.8-24.9c0.1-1,0.5-1.9,1-2.8c1.8-2,3.5-4.2,6-5.5c1.1,2.7-0.9,4.7-1.4,7
			c-0.2,0.6-0.3,1.2-0.3,1.8c1.2,0.3,1.1-0.8,1.3-1.4c2.9-7.3,3.9-14.8,5.1-22.5c1.4-8.9,0.9-17.5,0.6-26.2
			c-0.5-15.3-1.9-30.5-3.1-41.9c0.2-18.5-8.1-29.9-14.2-42.2c-0.5-1.1-1.8-1.6-2.9-1.1c0,0-0.1,0-0.1,0.1c-1.4,0.6-1.7,1.7-1.6,3.2
			c0.3,4.3,0.4,8.6,0.2,12.9C647.5,304.4,646,321.9,644.9,339.5z M655,345.1c1.3-7.4,0.7-14.9,0.8-22.3c0-1.4-0.5-3.8,0.9-4
			c1.9-0.2,1.1,2.2,1.5,3.4c1,3.1,1,6.2,0.9,9.9c0.5,4.2-0.8,8.7-1.9,13.2c-0.2,0.9-0.3,2.3-1.5,2.2
			C654.3,347.3,654.9,345.9,655,345.1z"/>
		<path fill="#9B9EC7" d="M393.1,467.4c3.8,10.3,7.5,20.7,14,29.7c1.2,1.7,2.6,7.2,6.8,2.4c0.5-0.6,1.2-0.2,1.7,0.3
			c0.8,0.9,1.5,2.8,2.9,1.6c1-0.8-0.1-2.5-0.4-3.8c-3.2-16.5-2.4-33.2-3.2-49.8c0-0.5,0.3-1.6,0.5-1.6c0.9-0.1,0.9,0.9,1,1.5
			c0.9,5.2,1.7,10.5,2.5,15.8c0.1,0.7-0.4,1.7,0.7,1.9c0.3-0.5,0.5-1.1,0.5-1.7c-0.1-5.3,0-10.6-0.4-16
			c-2.8-41.4-2.1-82.9-1.8-124.4c0-5,1.6-9.8,0.1-14.9c-2.1-7-4.4-14-5.9-21.1c-2-9.3-3.2-18.7-4.8-28c-0.1-0.8-0.4-1.6-0.6-2.4
			c-1.1,0.4-1.4,1.4-1.6,2.3c-1,3.7-2,7.4-3,11.1c-2.9,11-5,22.1-7,33.2c-0.2,1.2-0.2,3.2-1.6,3s-1-2.2-0.9-3.5c0-0.5,0.2-1,0.2-1.5
			c2.2-19.2,5.8-38.2,10.8-56.8c0.8-3,1.2-6.2,1.2-9.4c0-1,0-2.1-1.3-2.4c-1-0.2-2.1,0.3-2.6,1.2c-0.7,0.9-1.3,1.9-1.7,3
			c-2.5,7.9-4.6,15.7-5.3,23.9c-2,23.9-3.2,47.8-6.6,71.6c-4,28.2-7.2,56.5-7.8,85v3.5c0.1,14.4,1.2,28.6,4.9,42.5
			c0.3,0.8,0.6,1.5,1,2.2c1-0.8,0.4-1.8,0.2-2.6c-2.6-10-1.8-20.2-1.7-30.3c0-1.1-0.5-3,0.6-3.1c2-0.2,1.4,1.9,1.4,3
			C386.4,444.7,388.8,456.4,393.1,467.4z"/>
		<path fill="#F3C4AA" d="M476,631.7c1.8,0.2,3.6,0.5,5.4,0.8c13.7,1.9,27.3,5.2,41.2,4.9c1.3,0,3.2,0.7,3.6-0.6
			c0.7-1.9-1.5-2.2-2.7-2.8c-8.8-4.4-18.4-6.6-27.7-9.6c-10.1-3.3-20.8-4.6-31.2-6.9c-1.2-0.3-3-0.1-2.9-2c0-1.6,1.6-1.5,2.7-1.7
			c9.5-1.3,18.9-3.8,28.7-2.3c4.3,0.5,8.7,0.6,13,0.3c2.4-0.1,6.5,0.4,6.8-2.1c0.2-2-3.8-3-6.4-3.7c-13.1-3.7-26.6-3.5-40-4.2
			c-2.3-0.2-4.6-0.3-7-0.5c-15.5-0.7-29.3,5.2-43.1,10.8c-3.2,1.3-3.9,3.5-2,6.7c1.4,2.4,2.2,5.2,3.2,7.8c6.1,15.1,15,28.9,21.1,44
			c1.4,3.5,3.8,4.4,7.2,3.2c4.2-1.5,8.5-2.8,12.6-4.7c6.3-2.9,12.5-2.8,18.9-0.5c4.4,1.5,8.9,2.8,13.3,4.2c8.2,2.4,16.4,4.2,25,4.1
			c1.5,0,3.7,0.1,4-1.2c0.5-1.8-1.7-2.7-3.1-3.4c-7.8-3.9-16.2-6.5-23.9-11c-6.1-3.6-12.8-6.3-19.2-9.5c-1.7-0.8-3.3-2-2.6-4.2
			c0.6-2,2.5-2.1,4.1-2c6.6,0.3,13.3,0.7,19.9,1.2c7.8,0.6,15.6,1,23.4-0.5c1.1-0.2,2.6-0.1,2.8-1.5s-1.1-1.9-2.1-2.5
			c-4.6-2.6-9.7-3.2-14.8-4.2c-9.5-1.7-19-3.2-28.5-4.7c-0.7-0.1-1.9,0.1-1.6-1.2C474.3,631.8,475.4,631.6,476,631.7z"/>
		<path fill="#D7D5EB" d="M388.6,623.4c1.1,0.3,1.3-0.8,1.8-1.3c3-3.4,6.6-6.1,10.6-8c3.8-2,8.1-0.2,11.4-2.1
			c7.7-4.5,16.1-7.2,24.6-9.5c2.8-0.8,4-1.5,1.1-3.9c-0.9-0.8-3.1-1.3-2.4-2.5s2.8-0.3,4.1,0.2c8.6,3.3,17,2.5,25.2-1.1
			c2.1-0.9,4.4-1.6,6.7-2.1c4-0.7,7.9-0.8,8.6,4.7c0.2,1.2,0.8,2.4,2.3,2.1c0.8-0.2,1.5-0.6,2.1-1.2c1.2-1.3-0.2-2.1-0.9-2.9
			c-2.6-3-5.3-6-7.9-9c-0.9-1.1-2.9-2.8-2-3.5c1.5-1.1,2.8,1,3.8,2.1c3.8,4,7.3,8.2,12.3,10.8c0.7,0.4,1.7,1,1.7,1.5
			c0,1.4-1.4,0.9-2.3,1.1c-0.6,0.2-1.2,0.4-1.8,0.6c0.4,0.3,0.8,0.8,1.2,0.8c6.5,1.2,13.1,2.7,19.7,2.9c1.8,0.1,3-1,2.3-2.9
			c-1.4-4.1-2.2-8.4-4.6-12.1c-0.4-0.5-0.8-1-1.3-1.5c-0.9,0.9,0.3,1.4,0.4,2.1c0.2,1.2,0.5,2.5-1,2.9c-1.7,0.5-1.8-1.1-2.1-2.1
			c-1.8-7-5.3-13.2-8.9-19.4c-3.5-6-6.2-12.1-0.8-18.7c1.5-1.8,2-4.6,2.4-7c0.3-2.2,1.4-4.9-0.9-6.5c-2.6-1.8-2.6-4.4-3-7
			c-1.5-8.6-3.8-16.7-12.9-20.6c-1-0.4-2.3-1.5-2.4-2.3c-0.6-4.9-4.4-4.7-7.8-5c-5.8-0.6-11.6-0.9-17.5-0.9
			c-14.6,0.4-29.1,3.3-44.2,2.7c-7.7,0-15.3,0.5-22.9,1.7c-4,0.7-5.6,1.5-3.7,5.9c5.5,12.4,5.5,25.8,6.2,39
			c0.6,10.5,0.2,21.2,0.5,31.8c0.4,12.8,2.4,25.5,1.7,38.3C388,622.3,387.7,623.1,388.6,623.4z"/>
		<path fill="#FBFDFA" d="M626.8,465.9c0.2-0.8,0.8-1.8-0.3-2.6c-0.5,0.6-0.9,1.3-1.3,2c-4.5,12.1-10.2,23.5-19.2,33
			c-1.8,1.9-1.1,3,1.1,3.3c3.5,0.6,6.9,0.8,10.6,1.2c1-0.3,2.7,0.8,3.2-1.1c0.5-1.8,0.2-3.6-1.7-4.2c-4.3-1.4-3.5-4.4-1.6-6.6
			C623.9,483.6,624.7,474.6,626.8,465.9z"/>
		<path fill="#6F76A3" d="M381.6,315.5c-3.3-12.6-0.9-24.7,0.9-37c2.5-15.8,7.4-31.1,14.5-45.5c0.8-1.7,2.5-4.3-0.2-5.8
			s-3.7,1.3-4.8,3c-8,12.3-15.5,24.9-22.6,37.7c-2.8,4.9-4.5,10.4-5.3,16c-1.4,11.5-2.9,23.1-3.7,34.7c-1,15.6-3.5,31.1-2.3,46.8
			c1.2,16,3.2,32,5.1,48c0.5,4.5,2.7,8.7,6.1,11.7c1,1,1.9,1.9,3.4,1.7c3.3,0.2,4.7-1.1,4.7-4.3c-0.3-24.8,3-49.4,3.2-74.2
			C380.7,337.3,384.4,326.2,381.6,315.5z M377.1,315.7c-0.6,4.4-0.6,8.9-0.1,13.4c0.1,1.1,0.4,2.7-1.1,2.9c-2.1,0.2-1.3-1.8-1.7-2.9
			c-0.2-1.2-0.4-2.5-0.4-3.7c0.5-2.9,1.2-6.5,1.8-10.1c0.1-0.4,0.4-1.1,0.7-1.1C377.4,314.3,377.2,315.2,377.1,315.7z"/>
		<path fill="#FDF7E1" d="M452.6,228.9c-4.8,10.6-7.7,22-8.5,33.7c-0.2,2,0.3,2.8,2.5,1.7c9.8-4.7,19.1-2.6,28.2,2.1
			c1.4,0.7,2.5,2.1,4.3,1.8c-0.5-1.5-1-3.1-1.7-4.6c-4.6-10.9-8.4-22.1-8.5-34.1c-0.1-1.3-0.1-2.7,0-4c1-4.8-1.3-5.4-5.2-4.5
			C458.8,222.2,454.6,224.4,452.6,228.9z"/>
		<path fill="#9B9EC7" d="M422.3,287.7c1.7,0.3,3.3-2.4,3-3.9c-0.4-2.3-1.2-5.1-3.6-6c-0.7-0.2-0.5,3.2-0.7,5
			C421.7,284.3,419.8,287.2,422.3,287.7z"/>
		<path fill="#FDF7E1" d="M470.7,195.1c-1.4-0.4-1.6,1.8-2.2,2.8c-3.4,5.5-6.6,11.1-9.8,16.7c-0.9,1.6-3.5,3.2-2.2,5.1
			c1.5,2.3,3.5-0.4,5.2-0.7c1.8-0.3,3.6-0.8,5.3-1.4c1.8-0.7,3.1-1.8,3-4c-0.4-5,0.5-10,1-14.8C470.8,197.5,472,195.5,470.7,195.1z"
			/>
		<path fill="#9B9EC7" d="M438.8,247.6c-0.9-0.1-0.8,0.7-0.9,1.2c-1.6,5.9-2.5,11.9-2.8,18c0,1.1-1,3.1,1,3.1c1.7,0.1,3-1.2,3.1-2.9
			c0-0.1,0-0.2,0-0.3c0-3,0-5.9,0-8.9h-0.3c0-3,0-5.9,0-8.9C438.9,248.5,438.8,248.1,438.8,247.6z"/>
		<path fill="#97CDDA" d="M446.1,304.7c3.5,5.1,7.9,9,13.1,9.4c8.5,0,12.9-3.8,13.5-10.6c0.1-1,0.5-1.9,1-2.7
			c4.4-7.2,4-15.2-1.2-21.7c-3.6-4.5-8.2-6.8-14-5.8c-3.1,0.5-5.5,1.7-5.6,5.7c0,4.5-2.6,8.6-6.7,10.5c-5,2.3-5,5.4-3,9.5
			C444.4,300.8,444.9,303,446.1,304.7z"/>
		<path fill="#6F76A3" d="M595.4,475.4c-0.3,0.6-0.6,1.2-0.8,1.8c-2.1,6.5-4.2,13-6.3,19.4c-0.3,1.1-1,2.5,0.6,2.9s1.7-1.2,2-2.2
			c2.2-6.5,3.8-13.2,4.8-19.9C595.6,476.9,596.3,476,595.4,475.4z"/>
		<path fill="#6F76A3" d="M471.6,482.1c1.5-0.8,1.9,0.9,2.5,1.8c1.1,1.5,2,3,2.8,4.7c0.6,1.5,1.3,2.1,2.9,1.7c3-0.6,5.5,0.4,7.9,2.2
			c0.6,0.5,1.3,1.3,2,0.6c0.4-0.4,0.3-1.2,0.3-1.9c-0.3-7.6-5.5-14.7-12.4-17c-6.1-2.1-8.2-0.6-8.2,6.8c0.1,1.4,0.4,2.7,0.8,4
			c0.9,2.3-0.9,6.4,2.4,6.5c1.4,0-0.7-4.2-0.9-6.6C471.5,483.8,470.6,482.6,471.6,482.1z"/>
		<path fill="#6F76A3" d="M467.1,495.4c1.2,0.2,2.9,1.7,3.5,0.4c0.7-1.5-1.5-2.2-2.6-3.1c-0.9-0.6-1.9-1.2-2.9-1.6l0.1,0.1L465,491
			l0.1,0.1H465c0,1.9-0.7,2.9-2.8,2.9c-7.2,0.2-14-2.3-20.8-4c-0.6-0.2-1.3-0.5-1.2-1.3c0.3-1.4,1.6-0.9,2.4-0.8
			c7.5,1,14.9,2.1,22.4,3.2V491c0,0,0,0,0.1,0c-1.3-1.9-3.4-3.3-5.2-3.1c-6.6,0.6-12.2-2.8-18.4-3.6c-0.9-0.1-2.7,0.5-2.7-1.1
			c0-0.8,1.8-0.2,2.7-0.2c0.7,0,1.6,0.4,2.1-0.5c-0.6-0.3-1.2-0.6-1.8-0.8c-5.3-1.5-10.6-2.8-15.9-4.3c-2.8-0.8-3.8,0-2.8,2.8
			c1.4,4.3,2.1,8.7,2.1,13.2c0.1,4.8,4.1,8.6,8.9,8.4c0.3,0,0.5,0,0.8-0.1c11-1.4,21.9-1,32.8-0.3c0.8,0,1.7,0.3,2.1-0.7
			c0.5-1.2-0.5-1.8-1.3-2.3s-1.6-0.6-2.2-1.1c-0.5-0.3-1.1-1.1-1-1.5C465.7,495,466.5,495.3,467.1,495.4z"/>
		<path fill="#D7D5EB" d="M575.7,521.2c5.9,7.9,8.5,17.3,10.4,26.7c2.2,11.2,8.7,18.1,18.9,21.7c2.7,0.8,4.9,2.7,6.2,5.2
			c3.1,5.8,2.9,12.2,3.7,18.4c1.1,8.5,4.4,15.2,11.8,19.8c5.4,3.4,8.6,8.3,10.6,14.5c3.5,10.8,4.9,22,7.7,33
			c0.2,0.9-0.3,2.3,1.1,2.3s1-1.5,1.2-2.3c1.9-10.4,4.2-20.8,5.7-31.3c3.3-23.5,6.8-47,9.4-70.6c1.5-13.9,3.6-27.7,7.8-41.1
			c0.9-2.9,3.7-6-1.7-8c-2.3-0.8-3.1-3.7-6.9-3.5c-9.6,0.4-19.2,2.8-28.8,1.1c-15.5-2.6-31.1-3.7-46.7-4.8c-4.5,0-9,0-13.5,0
			c-1.4,0-3.3-0.6-3.7,1.5s-0.3,4,1.9,5.2c0.6,0.3,1.2,0.5,1.8,0.8c2.9,1.1,4.1,3.1,2.4,5.8C573.6,517.8,574.3,519.2,575.7,521.2z"
			/>
		<path fill="#FDF7E1" d="M427.8,350.6c5.7,8.2,10.4,17,15.5,25.6c3.4,5.8,8,10.7,13.5,14.5c12.9,8.9,26.8,16,40.9,22.9
			c8.8,4.3,18.2,5,27.1,1c17.1-7.7,34.4-15.1,50.3-25.3c7.5-4.7,13.6-11.4,17.7-19.3c5.1-9.9,10.1-19.8,15-29.9
			c2-4.1,2.7-8.7,1.9-13.2c-0.9-5.7-0.6-11.2-0.1-16.9c0.2-2.2,1.7-5.2-0.5-6.5s-3.5,1.8-5,3.2c-0.8,0.6-1.7,1.6-2.6,1
			c-1.3-0.9-0.3-2,0.2-3c3.4-7.5,1.2-16.4-5.4-21.5c-1-0.8-1.9-2.1-3.3-1.6c-0.3,0.1,0.2,2.1,0.3,3.2c0.5,6.7,3.4,14.1-5.3,18.1
			c-0.4,0.2-0.6,0.6-0.5,1.1c0,0,0,0.1,0.1,0.1c1.7,4.9-2,7.1-5.1,9c-10,6.4-27.3,3.2-30.5-14.1c-1.1-5.9-0.5-11.6,0.4-17.4
			c0.3-1.8,0.9-3.8-2.1-1.7c-0.8,0.7-2.1,0.6-2.8-0.2c-0.1-0.1-0.2-0.2-0.2-0.4c-0.7-1-0.7-2.4,0.2-3.2c1.6-1.7,2.8-3.8,3.2-6.1
			c1.3-8.5,2.8-17.1,3.2-25.7c0.1-1.6,0.4-4.4-0.9-4.5c-1.8-0.2-1.2,2.6-1.5,3.9c-3.5,15.4-9.6,30.2-18,43.6c-0.7,1.1-1.2,3.5-3,2.5
			c-1.5-0.8,0.1-2.3,0.5-3.5c1.3-3.6,2.8-7.1,3.9-10.8c0.4-1.4,1.9-2.8,0.7-4.5c-0.6,1.3-1.3,2.6-1.9,4c-4,9.9-8.7,19.4-15.4,27.9
			c-2,2.4-3.4,3.9-4.6-0.8c-0.8-3.8-3.1-7.1-6.5-9.1c-1.9-1.3-3.6-3-4.9-4.9c-6.3-8.5-13.2-16.7-17-26.9c-0.3-0.5-0.7-1-1.1-1.4
			c-0.1,0.3-0.3,0.7-0.2,0.9c1.9,7.2,3.2,14.6,6.8,21.2c0.4,0.7,1.9,1.1,1.1,2.2c-1,1.4-2.1,0.2-2.9-0.4c-2.5-2.1-3.9-5.4-7.1-6.9
			c-1.4-0.6-2.8-2.2-4-1.4c-1.4,1,0,2.8,0.5,4c2,4.8,1.5,9.8,1.9,14.8s-5.1,8.2-3.9,13.6c0.2,0.9-1.7,2.3-2.8,3.3
			c-8.4,7.5-21.3,6.6-28.8-1.8c-0.2-0.2-0.4-0.4-0.6-0.7c-5.6-6.8-7.8-15.8-6-24.4c0.1-0.8,0.5-2.2,0.3-2.4c-1-0.5-1.7,0.5-2.5,1.1
			c-7.4,6.1-9.3,13.5-5.7,22.2c0.4,0.9,1.4,1.9,0.2,2.6c-0.9,0.6-1.9-0.3-2.6-0.9c-2.3-1.7-4.3-3.7-5.9-6.1
			c-0.4-0.6-0.3-1.9-1.5-1.5c-0.9,0.3-0.5,1.4-0.5,2.2c0,4.5,0,8.9,0,13.4C419.5,327.3,420.2,339.6,427.8,350.6z M508.3,374.1
			c2.2-1.5,4.8-2.3,7.5-2.2c2.7-0.1,5.3,0.8,7.4,2.4c1.2,0.7,1.5,2.2,0.8,3.4l-0.1,0.1c-0.9,1.4-2,0.8-3,0.1
			c-3.5-2.2-6.9-2-10.2,0.3c-1.3,0.9-2.6,0.8-3.4-0.7C506.5,376.1,507.1,375,508.3,374.1z"/>
		<path fill="#6F76A3" d="M583.1,438c7.6-0.3,13.8-7.5,12.9-15c-1.5-12.2-5-24.1-7.2-36.2c-0.6-3.1-2-3.6-4.3-1.5
			c-5.2,4.5-10.9,8.3-17,11.4c-3.5,1.8-4.2,4.5-3.2,7.9c1.7,6,5.1,11.3,9.8,15.4c2.6,2.3,5.6,4.2,8.3,6.4c1,0.8,3,1.9,2,3.2
			c-0.7,1-2.4-0.5-3.4-1.3c-8.3-6.2-16.2-12.9-22.2-21.4c-2.8-3.9-6.1-3.6-8.2,0.8c-2.2,4.4-2.4,9.5-0.4,14
			c4.2,10,16.5,17.1,28.5,16.2l0,0C580.1,438,581.6,438,583.1,438z"/>
		<path fill="#FBFDFA" d="M339.9,383c2.1-20.7,3.8-41.5,7.7-61.9c2.5-12.7,4.2-25.6,9.5-37.6c3.7-8.2,8.4-15.9,12.8-23.7
			c32.8-57.9,78.9-101.7,138.9-130.8c14.2-6.9,26.8-6.1,39.4,2.8c9.8,6.9,19,14.7,27.5,23.2c32.4,32.4,55.1,71.6,77.4,111.1
			c6.4,11.3,12,23,17.5,34.8c5,10.8,9.9,21.7,13.5,33.2c3.9,12.2,2.9,24.7,4.1,35.4l0,0c0.6,14.3,3.4,27-3.4,38.9
			c-0.2,0.4-0.4,1.2-0.3,1.3c0.7,0.7,1.1-0.2,1.4-0.6c7.9-7.4,13.1-15.6,12.3-27.5c-2.3-30.7-6.3-61.3-12-91.5
			c-8.1-44.5-19.5-88.4-31.2-132.1c-5.3-19.8-15.3-37.4-30.3-50.8C589,75.4,546.3,65.1,499.7,72c-39,5.7-71.3,24.3-96.6,55.1
			c-13.4,16.2-24.8,33.9-34,52.8c-6.2,12.7-8.8,26.8-12.1,40.6c-9.8,40.7-15.1,82.1-21.1,123.4c-2.2,14.9-0.9,29.9-1.2,44.8
			c-0.1,8.7,0.3,16.9,7.2,23.4c2.2,2.1,3,5.4,5.7,7.2c0.2-3.3-1.5-6.1-2.5-9C342.2,401.2,338.9,392.8,339.9,383z M599.8,129.6
			c3.1-2.5,6.2-5.1,9.3-7.6c0.4-0.3,0.9-0.4,1.4-0.3c0.4,0.1,0.6,0.5,0.4,0.9c0,0.1-0.1,0.2-0.2,0.3c-3.4,3-6.8,5.9-9.9,8.6
			c-0.7-0.2-1.1-0.1-1.2-0.3C598.9,130.6,599.3,130,599.8,129.6z M566.4,95.5c1.8,0.1,3,1.3,3,3.3c-0.2,2.1-1.7,2.5-3.5,2.3
			c-1.8-0.1-3.1-1.1-3-3.1S564.6,95.3,566.4,95.5z M487.2,94c1.9,0,3.2,0.9,3.3,2.9c0.1,2.2-1.3,3.2-3.3,3.3c-2.1,0-3.3-0.9-3.3-2.9
			C483.8,95,485,93.9,487.2,94z M431.4,129c3.4-3.2,6.9-6.3,10.4-9.4c0.6-0.5,1.4-0.9,1.8,0.3c-0.2,0.5-0.5,0.9-0.9,1.3
			c-3.3,3.1-6.6,6.1-9.9,9.1c-0.6,0.6-1.5,1-2.1,0.2C430.5,130.3,431,129.3,431.4,129z"/>
		<path fill="#DDD7DE" d="M380.4,459.4c0.1-0.6,0.2-1.2,0.1-1.8c-1.5-6.5-1.8-13.2-2.5-19.8c-0.5-3.9-2.1-7.1-5.9-8.6
			c-7.2-2.8-10.3-8.7-11-15.5c-2.2-23.6-7.7-46.9-4.3-70.8c1.3-9,1.1-18.3,1.9-27.4c0.8-10.1,2-20.2,3-30.3c0.1-1.1,0.1-2.2-0.1-3.2
			c-1.8-0.2-1.9,1.6-2.4,2.7c-1.4,2.8-2.5,5.8-3.5,8.8c-7.9,29-10.4,58.8-13.8,88.6c-0.5,13.1,4.9,24.7,8.3,36.8
			c4.7,16.8,16.8,27.9,28.4,39.6C379.3,458.8,379.8,459.1,380.4,459.4z"/>
		<path fill="#FBFDFA" d="M380.9,850.3c0.6-0.2,1.3-0.2,1.9-0.2v0.1c10.1-8.5,18.4-18.5,26-29.2c7.3-10.3,13.9-20.8,12-34.4
			c-1.6-11.4-2.4-22.9-4.3-34.2c-1.2-6.9-1.2-13.1,2.9-19.1c1.9-2.8,2.8-6.2,1.1-9.5c-1.2-2.4-0.6-3.2,1.6-4.5c5.8-3.1,9-9.5,8-16
			c-0.3-2.1-0.9-3.9-3.3-4.4c-0.7-0.2-1.8,0.2-1.8-1.1c0.1-1,1.1-1.1,1.8-1.5c4.7-2.2,9.3-4.5,14-6.5c3-1.3,4-3.1,2.5-6.3
			c-10.6-21.7-21.9-43-31.5-65.1c-2.2-5.1-4.9-5.6-9.5-2.3c-3.8,2.8-7.4,5.7-10.9,8.8c-6.7,5.9-11.9,13.5-20,17.8
			c-1.9,1-2.1,2.8-2.3,4.7c-1,12.6-2,25.2-3.1,37.8c-0.1,1.3,0.7,3.6-1.4,3.6c-1,0-0.7-2.2-0.7-3.5c-0.2-8.5,1.2-16.9,2-25.4
			c0.1-0.7,0.6-1.8-0.5-2c-0.3-0.1-1,0.7-1.3,1.2c-1.1,2-2.3,4-3.3,6.2c-5.3,11.4-6.7,23.6-7.8,35.9c-1.9,21.7-3.9,43.5-5.8,65.2
			c-0.1,0.8,0.3,2-0.7,2.1s-0.7-1.2-0.7-1.9c-0.1-1.2,0-2.3-0.1-3.5c-0.4-11.7,1-23.3,2.2-34.9c0-0.6-0.1-1.3-0.3-1.9
			c-0.3,0.5-0.6,1.1-0.9,1.6c-3,9-7.2,17.5-11.1,26.2c-1.9,4.1-3.3,8.4-4,12.8c-0.2,1.2,0,3.5-1.1,3.4c-1.6-0.2-1.4-2.3-1.3-3.8
			c0.5-5.6,2.8-10.6,5-15.6c8-17.4,15.4-35.1,17.1-54.5c1.2-13.9,4.2-27.2,11.3-39.5c1.4-2.4,4-4.9,3.6-8c-0.6-4.7,2-7,5.5-9.1
			c2-1.2,3.9-2.5,5.7-4c6.5-5.3,6.5-6.2,0-11.4c-0.4-0.3-0.5-0.8-0.7-1.3V623c-6.6-3.1-10.1-9.4-14.7-14.6
			c-7-7.8-12.1-17.1-18.1-25.6c-0.5-0.7-1.5-1.9-0.5-2.6c1-0.7,1.7,0.7,2.1,1.4c9.5,14.4,20.1,28.1,31.5,41.1
			c8.6,3.4,8.6,3.4,8.7-6.4c0-0.2,0-0.3,0-0.5c-0.7-18.3-1.3-36.6-2-54.9c-0.1-3.5-1.4-6.9-3.7-9.6c-8-9.7-13.9-20.7-19.4-31.9
			c-0.5-1-1.8-2.4-0.5-3c1.2-0.6,1.6,1.2,2,2.2c5.4,10.7,12.1,20.7,18.5,30.8c0.5,0.8,0.8,2.1,2,1.8c1-0.2,0.7-1.3,0.7-2.1
			c-0.2-12.4-1.1-24.6-5.9-36.2c-2.5-6.1-2-6.9,4.5-8.1c7.9-1.5,15.8-2.2,23.8-2.1c0.8,0,1.9,0,2.2-0.5c0.5-0.9-0.6-1.3-1.1-1.9
			c-3.4-3.8-5.7-8.2-7.7-12.8c-2.6-5.9-5-12-7.5-17.9c-0.6-1.3-0.8-2.9-2.1-3.8c-1,1.5,0.1,2.8,0.4,4.1c1.1,5.2,2.6,10.3,4.7,15.2
			c0.4,0.8,1,2-0.3,2.5c-0.9,0.3-1.4-0.8-1.7-1.5c-2.2-4.8-5-9.4-7-14c-3.2-7.3-8.5-12-13.5-17.4c-2.1-2.3-4-2.4-6.5-0.9
			c-8,4.5-16,8.8-24,13.3c-10.6,6.1-18.7,14.2-20.6,27.1c-0.6,4.2-2.4,8.3-3.4,12.5c-3.9,15.4-6.2,31.1-0.8,46.3s5.3,29.8,2.8,45.2
			c-1.8,11.2-2.9,22.5-3.3,33.8c-0.7,14.4,3.5,27.6,9.6,40.3c0.5,1,1.2,2.7,0.8,3.1c-1.3,1.5-1.7-0.7-2.5-1.1
			c-2.3-1.2-1.9,0.7-2,1.8c-0.5,5.5-0.4,11,0.4,16.4c1.3,10.9,2.5,21.8,3.8,32.7c0.1,1.2,1,2.8-0.8,3.2c-2.2,0.5-2.2,0.3-2.5,2.2
			c-0.5,3.3-1,6.6-1.5,9.9c-2.4,13.8-2.6,27.1,3,40.6c5.1,11.7,9.4,23.8,12.9,36.1c2.2,8,7,14.6,13.4,20c3.8,3.2,7.5,6.6,11.1,10
			C369,854.1,372.1,854.6,380.9,850.3z M399.5,767.1c4-6.7,8-13.3,12-19.9c0.3-0.5,0.9-1.1,1.6-0.7c0.3,0.3,0.5,0.8,0.4,1.2
			c-4.2,6.9-8.3,13.8-12.6,20.7c-0.1,0.2-0.5,0.3-0.9,0.5C398.8,768.7,399.1,767.7,399.5,767.1z M399,772.7c0.3-0.5,1,0.4,1,1.5
			c-1.5,3.2-4,9.6-5.9,9.2c-5.4-1.2-5.4,3.1-7.3,5.2c-2.4,2.5-4.1,5.6-6.2,8.5c-0.5,0.5-0.5,1.3,0,1.8c1,1,1.4,1.9,0,2.8
			c-0.6,0.4-1.3,0.3-1.8-0.2c-1.1-1-0.8-2.1-0.4-3.2c1.1-3.9,3.4-7.2,5.7-10.4c3-4.2,6.4-8.1,9.2-12.4
			C394.8,773.1,398,775.6,399,772.7z M377.2,654.2c1.6,0.1,1.3,1.6,1.5,2.6c0.8,3.6,1.4,7.2,2.1,10.7c1.5,7,4.4,13.2,10.5,17.5
			c0.5,0.4,1.7,0.8,0.8,1.7c-0.2,0.2-1.3,0-1.8-0.3c-3.9-2.3-7-5.7-9-9.7c-3-6.2-3.8-13-4.7-19.8C376.8,656,377,655.1,377.2,654.2z
			 M344.6,706.5c0.4,0.1,0.6,0.6,0.9,0.9c-0.4,1.1-1.3,1-2.1,1c-3.5-0.2-10.2-5.7-11-9.2c-0.2-0.6-0.1-1.3,0.2-1.8
			c0.5-0.6,1.2-0.2,1.5,0.5C336.4,702.2,340.2,704.7,344.6,706.5z M324.3,587.5c-0.2-0.6-0.1-1.3,0.2-1.8c0.7-0.6,1.1,0.2,1.3,0.8
			c2.7,8.9,5.4,17.8,8,26.8l-0.5,1.3c-0.5-0.4-1.2-0.8-1.3-1.3c-0.9-2.7-1.6-5.4-2.5-8.1C327.9,599.3,326.1,593.4,324.3,587.5z
			 M328.2,681.1c0.1-0.1,0.2-0.1,0.4-0.2c1.3,0.3,1.7,1.6,2.1,2.5c1.6,3.5,4.6,6.5,5,10.5c0.1,0.9-1.2,0-1.4-0.3
			c-2.2-3.7-4.3-7.4-6.3-11.2C327.7,682,327.8,681.4,328.2,681.1z"/>
		<path fill="#BFD2E3" d="M707,1007.1c-0.4-3.4,1.5-6.4,1.1-9.8c-1.6-12.1-5.7-23.6-8.1-35.4c-0.7-3.6-3.3-4.2-6-2.2
			c-7.9,5.9-16.8,10-25,15.5c-7.2,4.8-15.5,7.5-23.5,10.5s-16.8,4.1-25.2,5.8c-5.9,1.2-8.9-0.5-11.3-6.1c-1.4-3.4-2-7.1-3.3-10.4
			c-1.8-4.7-0.2-10-3.2-14.3c-5.8-8.1-10-17.3-12.2-27.1c-2-8.8-4.2-10.1-13.2-11.7c-7.5-1.3-15,0.6-22.3-0.9
			c-5.6-1.1-11.2-1.4-16.9-1c-24.8,1.2-49.6-0.6-74.3-1.5c-8.9-0.3-9.9,0-13.5,8.4c-7.7,17.9-15.3,35.8-17,55.5
			c-0.7,7.8-2.7,8.7-10.7,7.3c-2.3-0.5-4.6-0.8-6.9-0.8c-13.8,0.6-26.9-3.2-39.9-6.5c-15.7-4-30.2-11.2-43.8-20.1
			c-6.4-4.1-8.4-3.3-10,4.1s-1.8,15.2-7.7,20.7c-6.6,6.2-11,14.1-17.3,20.5c-5.1,5.2-7.1,10.3-3.1,16.6h56.6
			c-0.7-12.7-1.4-25.5-2.1-38.2c0-1,0-2,0.1-3c0.1-0.8,0.4-1.8,1.4-1.6c0.3,0,0.6,1,0.7,1.7c0.2,1.6,0.4,3.3,0.4,5
			c0.5,12.1,1,24.1,1.4,36.2h54.9c-0.3-3.3-0.7-6.5-1-9.8c-0.1-0.8-0.2-1.9,0.8-2c1.5-0.2,1.3,1.1,1.4,2c0.3,3.2,0.6,6.5,0.8,9.8
			h257.5c-2.1-3.7-4.2-7.4-6.2-11.1c-0.4-0.7-0.7-1.8,0-2.2s1.3,0.6,1.7,1.2l7.4,12.1h32.1C703.4,1018.4,704,1012.3,707,1007.1
			C707,1007,707,1007,707,1007.1z M331.4,983.2c-1.7,5.7-3.5,11.3-5.3,17c-0.2,0.5-1,1.3-1.3,1.2c-1.1-0.3-0.5-1.3-0.4-2.2
			c1.5-5.4,3-11,4.5-16.5c0.2-0.9,0.5-2.2,1.8-1.7C331.6,981.3,331.7,982.4,331.4,983.2z M481.9,1014.2c-0.3,0.9-1,0.4-1.5,0
			c-3.6-2.6-7.4-5.1-10.3-8.4c-0.5-0.5-1.2-1.3,0.3-1.7c0.4,0.2,0.9,0.4,1.3,0.7c3.2,2.6,6.4,5.2,9.6,7.8
			C481.6,1013,482,1013.8,481.9,1014.2z M482.5,950.4c-0.2-1.8,1.9-1.3,3-1.5c4.4-0.7,8.8-1.2,13.2-1.7c0.7-0.1,1.9-0.5,2,0.5
			s-1,1.2-1.8,1.3c-4.3,0.8-8.7,1.6-12.5,2.3C484.7,951,482.7,951.9,482.5,950.4z M518.9,953.9c-9,4.7-18,9.3-27,13.9
			c-0.7,0.4-1.8,0.8-2.3,0c-0.7-1.2,0.7-1.6,1.5-2c8.9-4.5,17.7-9,26.6-13.5c0.8-0.3,1.8-1.1,2.6,0.4
			C519.9,953.1,519.4,953.5,518.9,953.9z M554.7,1003.3c0-0.1,0.1-0.2,0.1-0.3c0.4-0.9,0.8-1.8,1.3-2.7c9.8-17,19.8-33.9,28.5-51.5
			c0.5-1,0.8-3,2.4-2.3c1,0.5-0.2,2.1-0.6,3.1c-8.6,18.4-19.6,35.5-29.2,53.3c-0.4,0.7-0.7,1.5-1.8,1.5
			C554.9,1004.5,554.6,1003.9,554.7,1003.3z M571.7,995.5c-6.2,7.9-12.8,15.3-19.9,22.3c-0.1,0.1-0.3,0.2-0.4,0.2
			c-0.3,0-0.7,0-0.9-0.2c-0.7-0.6-0.2-1.3,0.1-1.8c1.3-1.7,2.7-3.3,4.2-4.9c5-5.3,10.1-10.6,15.2-15.9c0.5-0.4,1-0.8,1.6-1.2
			C571.6,994.6,571.9,995.2,571.7,995.5z M592.2,972.6c-5.3,7-11.2,13.5-17.6,19.5c-0.3,0.2-0.5,0.4-0.8,0.6
			c-1.4-0.6-0.2-1.3,0.1-1.7c2-2.5,4-4.9,6-7.2c3.5-4,7.1-7.9,10.6-11.8c0.5-0.6,1.1-1.4,2-0.6C592.7,971.5,592.5,972.3,592.2,972.6
			z"/>
		<path fill="#FAD3CE" d="M368.8,173.7c0.7-0.1,1.4-1.3,1.9-2.1c4.9-8.5,9.5-17.2,14.8-25.4c6.9-11,15.2-21.1,24.7-30
			c2.4-2.2,2.9-3.5-0.8-5.1c-14.8-6.4-30.3-9.7-44-12.1c-7-0.4-11.4,4.1-11,9.4c0.4,6.6,0.8,13.3,1.8,19.9
			c2.2,14.8,5.5,29.4,11.4,43.2C367.8,172.3,367.7,173.9,368.8,173.7z"/>
		<path fill="#AFC4DC" d="M724.2,1003c-3.7-4.9-7.2-9.9-10.9-14.9c-0.8-1.1-1.3-3.2-3.2-2.3c-1.7,0.8-1.1,2.7-0.7,4
			c2,6.1,1.5,11.9-2.5,17.1c-0.9,5.7-1.9,11.3-2,17.1h18.5c0.5-1,1-2,1.6-3C729.7,1013.7,729.5,1010,724.2,1003z"/>
		<path fill="#ECEBF1" d="M439.5,919.3h-70.9c-3.3,0-6.7,0.4-9.7-1.4c-1-0.6-1.9-1-1.9,0.7c-0.1,2.7-2,4.3-4.2,4
			c-2.6-0.3-2.4-3.2-2.8-5.2c-0.3-1.7-0.3-3.3-0.1-5c0.5-5.8,1.8-11.5,1.6-17.4c-0.2-6.5-0.8-12.9-2-19.3c-0.2-0.9-0.1-2.2-1.2-2.5
			c-1.4-0.4-1.4,1.2-1.7,1.9c-2.6,5.8-5.4,11.5-5.9,17.9c-0.3,4-1.8,6.8-5.4,8.8c-3.1,1.6-5.4,4.4-5.3,8c0.3,10.5-4.1,19.8-7.3,29.3
			c-3.3,9.9-2.8,10.8,5.3,17.2c22.3,17.5,48.6,25.2,75.9,30.4c1.5,0.2,3,0.2,4.5,0.1c4,0.1,8,0,12,0.4c10,1.1,10.8,0.5,11.3-9.7
			c0-0.5,0-1,0-1.5c-1-7.4,1.1-14.2,4-20.8c4.1-9.3,7.4-18.9,9.8-28.7C446.7,919.9,446.3,919.3,439.5,919.3z M380.6,957.1
			c-0.5,1.3-1.7,0.2-2.5,0c-8.2-2.8-15.9-6.8-23-11.8c-0.6-0.6-1.1-1.3-1.4-2l1.2-0.6c0.5,0.3,1,0.5,1.4,0.8
			c7,4.8,14.5,8.7,22.5,11.7C379.5,955.6,381,956,380.6,957.1z M402.9,957c-6.7-1.1-13.4-2.2-20.1-3.4c-0.7-0.2-1.4-0.6-2-1.1
			c0.5-1.2,1.6-0.3,2.4-0.5c6.8,1.1,13.5,2.2,20.2,3.4c0.9,0.2,2.5,0.2,2.3,1.3C405.5,957.5,403.9,957.2,402.9,957z"/>
		<path fill="#6F76A3" d="M625.4,488.9c5.2-1.2,10.5-1.5,15.4-3.8c5-2.4,8.9-5.8,9.3-11.7l0,0c0-0.7-0.1-1.4-0.2-2.2
			c-2.7-9.3-7.1-17.9-10.6-26.8c-0.2-0.4-0.6-0.8-0.9-1.1c-0.3,0.8-0.5,1.5-0.6,2.3c-2.2,14.4-6.4,28.1-13.8,40.7
			C622.8,488.4,623.3,489.4,625.4,488.9z"/>
		<path fill="#FBFDFA" d="M356,909.2c0.1,0.5,0.2,1,0.3,1.5c1-0.4,0.8-1.3,0.9-2c2.8-13.5,4.5-27.3,8.7-40.4
			c3-9.6,1.5-15.3-6.8-20.8c-6.3-4.1-7.9-4.3-10.1,3.2c-0.4,1.3-0.6,2.9-0.8,4c0.2,1.6,0.2,2.7,0.4,3.9
			C351.5,875.3,354.5,892.1,356,909.2z"/>
		<path fill="#F1DCC9" d="M1024,0H0v1024h291.4c-4-6.5-3.7-9.1,1.4-15.5c5.4-6.8,10.8-14,16.7-20.5c8.4-9.1,9.7-20.5,11.6-31.8
			c0.1-0.5,0.1-1-0.1-1.5c-6.5-9.4-0.1-17.5,2.9-25.8c2.1-5.9,4.3-11.4,3.9-17.8c-0.4-4.1,1.5-8.1,4.9-10.4
			c3.8-2.7,5.6-6.5,6.3-10.9c0.9-5.9,3-11.7,6.1-16.8c1.9-3.1,2.6-6.8,1.9-10.4c-1-6.6-2.1-13.2,3.5-18.8c1.8-1.8,0.3-3.9-1.3-5.2
			c-8.6-7.1-12.2-16.8-16-26.9s-5.9-20.7-10.7-30.3c-5.4-10.8-6.4-21.9-4.1-33.5c4.1-20.1,4-40.3,1.2-60.6c-0.6-4,0-8.3,0.7-12.4
			c0.7-4,0.3-8-1.2-11.7c-7.2-17.7-5.6-35.9-3.4-54.2c1-8.6,2.5-17.1,3.8-25.7c1.1-7,0.4-14.1-2-20.7c-8.6-22.2-6.2-44.1,0.7-66
			c1.5-4.6,2.7-9.2,4.1-13.9c1.2-3.8,4.1-6.4,7-8.9c10.4-9,22.7-15.1,34.8-21.4c3.5-1.8,3.2-2.8,0.9-5.4c-8.6-10-16-20.9-23.1-31.9
			c-1.4-2.2-3-4.4-4.7-6.4c-3-3.5-4.1-7.6-4.5-12.3c-1.8-24.5,1.2-48.7,4.4-73c6.1-46.6,13.9-92.8,27.2-138
			c1.8-5.8,1.6-12.1-0.6-17.8c-7.3-19.9-11.2-40.8-11.7-62c0-0.3,0-0.7,0-1c0.7-18.4,2.5-18.8,18.8-20.8c19.6-2.5,38.9,0.2,58,4.4
			c6.5,1.6,13.4,0.8,19.3-2.3c28.8-15.2,59.3-21.4,91.7-18c23.8,2.5,46.7,10.1,67.2,22.3c5.2,3,10.3,3.8,16.2,3.2
			c23.4-2.5,46.8-4.2,69.9,2.5c8.7,2.5,10.5,5.2,9.1,14.2c-1.4,9.5-5.8,18-10,26.5c-7.2,14.5-15.5,28.3-26.5,40.3
			c-1.8,2-1.5,3.9-1.1,6c3.1,17.7,8.1,35,12,52.5c4.4,19.7,9.4,39.2,13,59c2.6,14.2,3.2,28.8,5.5,43.1c1.8,11.3,3.9,22.7,4.3,34.2
			c0.2,7.1,0,14.3-0.2,21.5c-0.1,3.3-1.7,6-3.8,8.5c-9.6,11.1-20.1,21.4-31.4,30.7c-5.1,4.2-5.2,4.4,0.4,8.3
			c13.7,9.5,27.2,19.6,37.9,32.4c8.3,10,14.8,21.1,12.5,35.7c-3.5,22.3-5.5,44.9-11.4,66.9c-1.7,6.4-2.8,13-5.1,19.3
			s-1.4,13,1.1,19.1c5,12.1,4.2,23.5-2.2,34.9c-3.9,6.9-2.2,14.4-0.6,21.5c2.3,10.7,5.3,21.3,7.9,32c1.1,4.4,0.5,9.1-1.8,13.1
			c-2.2,3.9-2,7.6-1.2,11.5c1.5,6.9,1.8,13.5-2.6,19.6c-2.5,3.6-1.9,8-2.7,12c-2.6,11.7-6.7,23-12.2,33.7c-4,7.8-10.2,10.9-18.8,9.9
			c-14.3-1.6-13.8-1.4-12,12.6c1.3,10.1,4.1,19.7,7,29.3c1.2,3.4,3.6,6.1,6.8,7.6c3.7,2,6.8,4.8,10,7.4c4.6,3.7,7.1,8.4,5.8,14.5
			c-0.6,2.6,0.5,4.1,2.4,5.5c3.5,2.5,7.1,5,10.7,7.4c6.2,4.2,9.4,9.6,8.4,17.3c-1.2,8.7,0.4,17.3,2.2,25.8
			c1.5,7.5,1.8,14.6-4.2,20.4c-2,1.9-1.4,3.9-1,6.3c2.2,14.6,9.5,26.4,19.2,37.1c2.5,2.7,4.3,5.9,6.6,8.8c5.2,6.4,5.5,12.9,0.8,19.7
			c-0.4,0.7-0.8,1.4-1.2,2H1024V0z"/>
		<path fill="#D7D5EB" d="M639.7,922.9c1,0,2.5,0.7,2.7-1.1c0.1-0.6,0.1-1.6-0.3-1.9c-1-1-1.6,0.6-2.4,0.8c-1.5,0.3-2.9,0.5-4.4,0.6
			c-0.8,0-2.1,1.2-2.4-0.3c-0.2-0.8,1.2-0.9,2-1.1c5.3-1.3,8.1-4.4,8-10c-0.1-3.8,0.2-7.7,0.2-11.5c-0.2-19-1.1-38-0.6-56.9
			c0.3-11.3,0.4-22.6,0-33.9c-0.1-4-2.2-6.1-6.3-6.1c-11.4,0.1-21.7-4.3-32.1-7.9c-5.1-1.6-9.7-4.8-13-9
			c-8-10.5-14.2-21.9-17.7-34.9c-5.7-21.3-10.6-42.8-17.9-63.7c-1.9-5.3-5.1-9.5-9-13.6c-6.9-7.1-13.6-14.5-20-22.2
			c-1.8-2.1-3.5-2.5-5.6-2c-7.5,1.8-15.2,1.1-22.8,1.4c-5.4,0.2-10.9-0.9-16.3-1.3c-1.5-0.1-3.8-1.1-4.3,1c-0.5,1.9,1.9,2.4,3.3,3.2
			c1.9,1,3.9,1.9,5.8,2.9c6.3,3.2,12.5,6.9,19,9.6c4.8,1.9,9.6,3.8,14.2,6.1c1.9,1,4.7,2,4.3,4.9c-0.5,3.2-3.4,3.2-5.9,3.3
			c-14.6,0.8-28.4-3.6-42-7.8c-4.7-1.5-9.8-1.4-14.5,0.1c-5.1,1.5-9.9,3.8-15,5.4c-2.4,0.8-2.4,1.7-1.5,3.6c1.3,3,1.9,6.1,0.9,9.2
			c-0.9,2.6-5.7,2.8-4.1,6.9c-1.8-0.2-2.9,2.2-4.8,1.3c-2.8-1.3-3.3-1.2-3.6,2c-0.2,3.6,0.7,7.6-1.2,10.8c-4.4,7.7-7.4,15.8-10,24.3
			c-2,6.5-3.8,12.8-2.4,19.5c2.4,11.5,2.2,23.2,3.3,34.7c0.7,6.5,0.3,13-3.2,18.9c-6.3,10.4-13,20.6-21.3,29.5
			c-4.6,4.9-8.8,10.5-15.7,12.5c-0.8,3.3-2.7,4.8-6.3,4.4c-3.2-0.4-5.5,1-6.3,4.3c-4.2,17.3-8.5,34.6-10.9,52.2
			c-0.5,3.5,0.5,5.6,4.3,5.5c19-0.5,38,1.5,56.9-1.6c6.2-1,12.5-2.1,18.7-3c0.9-0.1,2.3-0.5,2.5,0.7s-1.2,1.2-2.1,1.4
			c-4.1,0.6-8.2,1.2-12.3,1.9c-0.6,0.1-1.5,0-1.4,0.9c0,0.9,1,0.8,1.5,0.8c6.1-0.2,12.4,1,18.4-0.5c6.9-1.7,13.9-1.4,20.9-1.1
			c11.6,0.5,23.3,0.3,34.9,1.4c19.6,1.9,39.4-2.7,59,1.7c5.7,1.3,11.9,0.5,17.9,0.8c14.5,0.6,28.9,0.3,43.3,2.2
			C627.7,922.9,633.7,922.6,639.7,922.9z M459.1,810.2c-7,9.7-14.7,18.8-23.1,27.3c-0.9,0.9-1.9,1.8-2.7,2.5
			c-1.7,0.1-2.2-0.6-1.6-1.8c0.6-1.4,1.4-2.6,2.4-3.7c8.8-6.9,15.4-16,22.5-24.5c0.3-0.4,0.6-0.8,1-1.1c1-0.7,1.9-2.8,2.9-1.9
			S459.8,809.2,459.1,810.2z M483.8,704.8c-5.1,12.4-14.2,21.8-23.7,31c-0.7,0.6-1.5,1.8-2.5,1s0.2-1.7,0.8-2.4
			c8.2-8.9,16.4-17.8,20.8-29.5c0.6-1.7,2.5-3.1,4-4.4c1-1,1.8-0.5,1.9,1.2C484.7,702.6,484.3,703.7,483.8,704.8z M527.5,718.6
			c-0.4-0.4-1.1-0.8-1.3-1.3c-1.2-4.6-2.2-9.3-3.4-14.2c0.1-0.5,0.2-1.1,0.4-1.6c1,0.1,1.3,0.9,1.5,1.7c1,4.5,2,9,3,13.6
			C527.8,717.3,527.7,718,527.5,718.6z M560.5,796.1c-1.1,0.7-1.7-1.1-2.4-1.8c-4.5-4.6-6.8-11-12-15.2c-1.5-1.3-1.6-3.9-1.5-5.8
			c0.8-2.5-0.3-4.2-1.3-5.9c-6.2-10.9-9.5-23-13.2-34.8c-0.3-0.9-0.9-2.3,0.1-2.7c1.6-0.6,1.6,1.1,1.9,2.1
			c6.8,21.4,16.1,41.9,27.7,61.1C560.3,794,561.6,795.4,560.5,796.1z"/>
		<path fill="#FBFDFA" d="M354.1,915.4c-0.8-1.6,0.8-4-1.5-5.5c-0.8,2-0.6,4.1-0.5,6.2c0,0.7,0.2,1.3,0.4,1.9c0.2,0.6,0.6,1.5,1,1.5
			c0.9,0,0.5-0.9,0.6-1.5C354.2,917.2,354.1,916.4,354.1,915.4z"/>
		<path fill="#ECEDEE" d="M355.3,99c1.1,0.6,1.6-1.5,2.7-1.8c1.6-0.5,3.3-1.2,4.8-1c16.7,2.2,33,5.7,48.2,13.2
			c2.2,1.1,3.8,1.1,5.8-0.6c4.9-4.3,10-8.3,15-12.5c1.1-0.9,3.1-1.7,2.9-3.1c-0.3-2-2.7-1.6-4.1-2c-15.1-3.8-30.5-4.9-48-6
			c-5.9,0.3-13.9,0.6-21.7,2.8c-4.1,1.1-5.9,3.4-5.9,7.3C355,96.6,354,98.4,355.3,99z"/>
		<path fill="#FBFDFA" d="M704.1,928.9c-2.9-9.2-4.3-18.7-2.5-28.6c0.9-4.7-2-8.6-6-11.3c-3.2-2.1-6.4-4.2-9.5-6.4
			c-3.4-2.3-5.9-5.6-5.5-9.5c0.8-6.8-2.7-11.1-7.6-14c-9-5.5-16.1-12.2-17.8-23.2c-0.1-0.8-0.4-2.3-1.7-2c-0.4,0.1-0.6,1.7-0.7,2.6
			c-0.9,10.1-1.8,20.2-2.7,30.3c-0.1,1.1,0.7,3.2-1.4,3c-1.4-0.1-0.9-1.9-0.8-3c0.5-6.8,1-13.6,1.7-20.4c1.3-13,4.7-26-0.1-38.9
			c-0.7-1.8,0.2-5.4-2.5-5.1c-2,0.2-1.7,3.6-1.7,5.6c0.2,16.8-1.5,33.4-0.5,50.2c1.3,21.6,0.6,43.2,0.1,64.9c0,1.9-0.4,2.4-2.5,2.2
			c-7.8-0.6-15.6-0.9-23.4-1.2V924c-7.8-0.4-15.6-0.7-23.4-1.1c-1.9-0.1-4.2-0.3-3.8,2.5c2.1,11.8,3.7,23.8,12.6,33
			c1.1,1.2,3,2,2.5,4c-1.8,8,2.4,14.8,4.1,22.1c0.9,4,3.5,5,7.5,4.6c6.8-0.7,13.5-2.2,19.9-4.4c19.6-6.3,38.3-14.8,54.4-27.8
			C701.4,950.1,708.2,941.9,704.1,928.9z M676.7,940.8c-11.3,9.1-24.7,13.4-38,17.4c-1-0.2-2.1,0.1-2.3-0.9s0.8-1.2,1.6-1.4
			c2.4-0.7,4.8-1.3,7.2-2c11-3.1,21.3-7.4,30.3-14.7c0.9-0.7,1.9-1.5,3.1-0.7C678,939.3,677.4,940.1,676.7,940.8z M688.4,929.2
			c-0.3,0.2-0.8,0.8-1.1,0c-0.2-0.5-0.1-1,0.1-1.4c2.9-4.2,5.9-8.4,8.9-12.6c0.3-0.4,0.8-0.5,1.3-0.7c0.2,0.5,0.3,0.9,0.5,1.5
			C695.1,920.6,692.5,925.4,688.4,929.2z"/>
		<path fill="#D7D5EB" d="M508.7,614.1c-9.3,0.7-18.5-0.4-29.1-0.7c-0.9,0.1-3.2,0.4-5.5,0.7c-0.9,0.1-2.4-0.1-2.5,1
			c-0.2,1.6,1.5,1.5,2.4,1.7c11.8,2.5,23.5,5,34.8,9.5c5.4,2.1,6.7,0.8,4.9-4.9C512.7,618.7,513.6,613.7,508.7,614.1z"/>
		<path fill="#9B9EC7" d="M479.9,151.4c-1.8-1.2-3,0.2-4.3,1.2c-7.8,6-16.1,11.2-24.2,16.6c-10.4,6.9-20,15-23,27.7
			c-4.2,17.8-6.6,36-7.2,54.3c-0.1,1.5-0.1,3,0,4.5c1,7.7-0.1,15.7,4.2,22.8c1.4,2.3,2.2,2.9,4,0.3c2.3-3.3,3.5-7.2,3.6-11.2
			c0.3-14.4,5.4-27.6,9.3-41.1c0.4-1.3,0.9-2.6,2.7-2.3c6,0.9,8.3-3.1,10-7.6c3.6-9.5,8.4-18.5,14.3-26.7c2.7-3.8,4.7-8.1,5.9-12.6
			c2-7.2,3.7-14.5,5.6-21.7C481,154,481.4,152.4,479.9,151.4z"/>
		<path fill="#F3C4AA" d="M469.7,596.3c-2.2,0.5-5,0.2-6.8,2.4c2.1,1.6,4.7,0.9,7.1,1.4c2.4-0.6,5.3,1.1,7.2-1.6
			c0.4-0.8,0.1-1.7-0.6-2.2C474.4,594.2,471.9,595.8,469.7,596.3z"/>
		<path fill="#9B9EC7" d="M423.4,199.9c-2.1-1.3-4.6-0.3-6.5,1.1c-6.2,4.7-11.3,10.3-13.9,17.8c-0.6,1.6-0.7,2.9,0.6,4
			c4.9,4,4.6,9.5,4.3,15.1c0.1,2.6,0.1,5.3,0.5,8c0.6,4.6,3.4,8.6,4,13.3c1.4,12.6,3.2,25.1,4.9,37.6c0.1,0.9,0.1,2,1.3,2.4
			c0-0.8,0.2-1.6,0.2-2.5c-0.2-13.2,1-26.5,0.3-39.8c-0.8-17.4,2.2-34.4,5-51.5C424.5,203.6,425.5,201.2,423.4,199.9z"/>
		<path fill="#6F76A3" d="M631.8,242.1c-1.7,0.9-1.8,2.3-1.2,4.2c5.3,17.1,11,34.1,13.4,51.9c0.1,0.5,0.3,0.9,0.5,1.4
			c0.3-0.5,0.7-1,0.8-1.5c0.4-6.3,0.7-12.6,1.1-18.9H646c0.1-1.7,0.1-3.3,0.4-5c1.9-11.9-2.8-21.5-10-30.3
			C635.2,242.6,633.8,241,631.8,242.1z"/>
		<path fill="#9B9EC7" d="M541,133c-17.7-10.2-46.7,3.5-54.8,20.9c-4.2,9-8.2,18.2-10.1,28.1c-1.5,7.7-3.1,15.3-3.2,23.2
			c0,3.5-2.2,7,0.3,10.6s-2.5,5.6-2.5,9.3c-0.2,15.9,5.1,30,11.7,44c0.3,0.5,0.9,0.9,1.3,1.4c0.1-0.6,0.2-1.3,0.1-1.9
			c-2.4-8-4.2-16.1-5.4-24.3c-0.4-3-0.9-5.9,0.4-8.8c0.4-0.8,0.7-1.7,1.6-1.5c0.3,0,0.5,1.1,0.5,1.7c2.2,20.1,11.1,37,24.1,52.1
			c0.9,1,1.6,3.1,2.6,2.5s-0.2-2.3-0.6-3.5c-3-9.7-6.1-19.3-9-29.1c-0.5-1.5-1.8-4,0.1-4.8c0.9-0.4,1.4,2.5,1.8,4
			c4.2,14,9.1,27.8,14.3,41.5c1.4,3.7,2.3,3.1,4.2,0.5c3.4-4.9,6.4-10.1,9-15.5c5.5-11.4,8.7-23.7,13.2-35.4
			c0.3-0.9,0.5-2.5,1.5-2.3c1.6,0.2,0.9,1.9,0.7,2.8c-1.3,7-2.8,14-4.1,21c-0.2,1.1-1.2,2.1-0.6,3.3c0.7-0.9,1.3-1.8,1.8-2.8
			c7.2-14.7,10-30.5,12.8-46.4c1.5-8.6,1-17.3,1-25.9c0-6.2,0-12.3,0-18.5c0-1.3-0.2-2.8,1.7-3.1c1.5-0.2,1.9,1.1,2.5,2.1
			c0.7,1.2,1.4,2.4-0.7,3c-1.8,0.5-1.3,2-1.2,3.3c0.1,6.8,0.1,13.6,0.1,20.5c0,9.4,0,9.4,9,11.9c0.3,0.1,0.8,0,1,0.2
			c0.4,0.4,1.1,0.9,1.1,1.4c0,1.1-0.9,1.2-1.8,1c-1.5-0.4-2.9-0.8-4.3-1.3c-3-1-4.4,0.4-4.9,3.2c-0.3,1.5-0.5,3-0.5,4.5
			c0.1,13.2-0.7,26.3-2.3,39.3c-0.1,0.8-0.5,1.6,0.6,2.1c1.7,0.8,11.3-4.2,11.6-6.3c1.4-9.9,3.9-19.6,4.3-29.6
			c0.6-18.6,0-37.3-1.9-55.8C566.2,156.7,557.7,142.6,541,133z M508.1,152.5c-1.6,8.5-3.3,17-4.9,25.5c-2,10.5-2.1,21.2-3,31.8
			c-0.1,0.7-0.3,1.5-0.6,2.2c-0.4-0.7-0.8-1.4-1-2.2c-0.4-3.1-0.7-6.3-0.9-8.7c0.9-17.3,4.8-33.3,8.7-49.3c0.2-0.7,0.4-1.9,1.5-1.5
			C508.7,150.6,508.2,151.7,508.1,152.5z"/>
		<path fill="#FDF7E1" d="M571,261.8c3.1-0.7,6.4-0.4,9.3,0.7c1.8,0.7,3,0.7,2.5-2.6c-0.2-0.7-0.5-2.4-0.8-4
			c-2-10.1-2.9-20.5-8.3-29.6c-0.4-0.6-0.3-1.7-1.4-1.7c-0.1,0-0.4,0.8-0.4,1.2c0.7,11.3-2,22.2-3.8,33.1
			C567.7,261.5,568.5,262.4,571,261.8z"/>
		<path fill="#DDD7DE" d="M668.3,403.5c-0.4,0.5-1,1-1.1,1.5c-0.5,2.8-0.9,5.6-1.5,8.3c-0.1,0.6-1.1,2.6-1.5,1.2
			c-1.6-5-2.5-0.1-2.8,0.2c-3.8,4.8-8.1,9.3-12.7,13.4c-1.4,1.2-2.6,2.5-3.8,3.9c-1.2,1.3-0.3,2.7,0.9,2c3.2-1.7,6,0.7,8.4,0.5l0,0
			c4.7,0,7.3-2.2,8.8-5.9c2.8-7.5,4.6-15.3,5.4-23.2C668.5,404.7,668.4,404.1,668.3,403.5z"/>
		<path fill="#FAD3CE" d="M685.6,107.7L685.6,107.7c-15.7,1.7-30.6,4-45.1,8.2c-3.7,1.1-3.8,2-1.6,4.6c10,11.8,15.6,25.7,19.2,40.6
			c0.8,3.2,1.8,6.4,2.8,9.6c0.2,0.7,0.5,1.9,1,2c1.2,0.4,1.5-0.9,2.1-1.7c12.2-17.9,22-36.7,25.7-58.3
			C690.3,108.7,689.5,106.7,685.6,107.7z"/>
		<path fill="#DDD7DE" d="M687.1,386.9c-0.4-5.8-0.8-11.6-1.1-17.5c-0.8-19.4-3.2-38.5-12.2-56c-1.3-2.6-1.1-5.8-3.6-7.8
			c-1.8,3-0.8,6.1-0.7,9.2c1,23,5.5,45.9,2.4,69.1c-1.8,13.2-0.9,26.7-4.7,39.6c-0.2,0.8-1,2,0.1,2.6c0.3,0.2,1.4-0.7,2-1.2
			c3.3-3.1,6.5-6.1,9-10.1C683.7,406.2,688.1,397.5,687.1,386.9z"/>
		<path fill="#ECEDEE" d="M620.7,99.7c4.7,3.7,9.2,7.7,12.4,12.9c1.5,2.5,3.5,2.1,5.6,1.4c14.9-4.9,30.4-7.2,45.9-8.7
			c6.4-0.6,8.2,1.2,7.1,7.6c-2,11.8-5.8,23.3-11.1,34c-3.5,7.2-7.5,14.1-11.8,20.8c-0.3,0.5-0.5,1.1-0.5,1.7
			c1.1,0.6,1.3-0.6,1.6-1.1c2.9-4.1,5.7-8.2,8.4-12.4c8.3-13.1,15.2-27,20.6-41.5c3.8-10,1.4-14.3-8.6-16.8c-11.3-2.8-23-4-34.6-3.7
			c-11.3-0.2-22.6,1.2-33.9,2.1c-1.1,0.1-2.6-0.1-2.8,1.4C618.8,98.6,620,99.1,620.7,99.7z"/>
		<path d="M707,1006.9C707,1006.9,707,1007,707,1006.9C707,1007,707,1006.9,707,1006.9L707,1006.9z"/>
		<path d="M376.8,623.2L376.8,623.2l0.3-0.4l0,0l0,0L376.8,623.2z"/>
	</g>
</g>
</svg>
