<?xml version="1.0" encoding="utf-8"?>
<!-- Generator: Adobe Illustrator 24.1.0, SVG Export Plug-In . SVG Version: 6.00 Build 0)  -->
<svg version="1.1" baseProfile="tiny" id="图层_1"
	 xmlns="http://www.w3.org/2000/svg" xmlns:xlink="http://www.w3.org/1999/xlink" x="0px" y="0px" viewBox="0 0 709 1024"
	 xml:space="preserve">
<g id="图层_1_1_">
	<path d="M129.7,574.5c-3.4,9.7-5.6,19.8-6.6,30.1c-1.8,15.6-0.8,31.3-1,47c0,3.7,1.7,7.1,2.6,10.6c0.3,1.1,0.5,3.1-1,2.2
		s-4,2.7-3.7-1.1c0.9-10.7-3-20.7-4.1-31.1c-3.1-29.3,1.5-57.4,12.4-84.6c2.7-6.7,5.5-13.3,8.4-19.8c3-7.3,7.9-13.7,14-18.6
		c4-3.1,6.8-7.2,9.4-11.5c16.1-26.7,38.4-45.3,69.5-51.9c2.3-0.5,4.1-1,3.3-4.1c-3.9-14.7-4.7-29.9-7.7-44.8
		c-1.5-7.4-5.1-14-6.1-21.5c-3.5,0.4-3.9,4.9-7.5,5c-0.1-0.5-0.3-1.1-0.1-1.4c6.3-7.9,6.2-8-0.9-15.6c-5-5.3-9.8-10.7-15.1-16.5
		c-2.7,10.7-1,20.1,3.7,29.2c-19-13.7-21.5-24.4-11.6-49.2c-3.4,2.7-7.4,4.5-11.7,5.2c-1,0.2-2,0.6-2.5-0.5
		c-0.6-1.4,0.6-1.4,1.5-1.9c1.6-0.8,3.2-1.8,4.7-2.9c10.9-7.8,11.4-19.8,1.2-28.5c-1.1-1-2.3-1.9-3.6-2.7
		c-9.5-6.2-16.8-13.7-15.3-26.5c-3.3,5.3-5,11.4-4.9,17.6c-2.6-2.2-2.6-3.9-2.2-6c2.2-13.9,5.2-27.5,13-39.5c0.9-1.2,0.9-2.9-0.1-4
		c-2.9-4.3-2.8-9-2.1-13.9c1.3-9.2,4.3-17.8,7.9-26.2c1.2-2.8,2.1-5.8,3.7-10.1c-7.2,4-14.2,4.7-20.2,8.3c-2.2,1.3-4.9,0.6-7.3,0.3
		c-1.2-0.3-2.1-1.3-2.2-2.5c-0.2-1.7,1.5-1.6,2.5-1.8c5.8-1.6,11.3-4.1,16.2-7.5c7.4-5.1,13.1-11.1,16.5-19.9
		c8.7-22.4,21.8-42.3,37.6-60.3c4.9-5.2,7.6-12.1,7.8-19.2c0.4-13.3,5.3-25.3,10.9-37c1.3-2.6,1.9-2.4,3.7-0.4
		c9.3,10,18.7,19.9,29.3,28.7c3.5,2.9,6.4,3.4,10.7,1.4c27.2-12.5,54.8-11,82.7-2.5c7.4,2.2,13.8,6.4,20.9,9.2
		c7.4,3,7.4,3.1,13.2,2.1c-2.2,3.6-1.8,3.1,2,6.6c4.9,4.6,8.9,3.9,14.2,0.7c10.1-6.1,21.1-10.5,32.1-15
		c28.1-11.4,49.4-31.5,69.2-53.7c2.4-2.7,4.8-5.5,7-8.4c1.3-1.8,2.9-1.8,5.5-1.7c-3.8,5.3-1.4,11.2-2.6,16.6
		c-2.5,11.8-6.8,23-11.8,33.9c-9.9,21.5-18.8,43.5-33.3,62.4c-1,1.3-1.7,2.1,0.3,3.4c19.2,12.2,30.8,30.9,39.8,50.8
		c9.7,21.5,15.8,44.5,22,67.3c4.8,17.6,0.2,34.5-11.3,48.4c-10.3,12.5-18.2,26.2-26.4,40c-24.3,40.6-56.3,73-102.6,88.4
		c-3.9,1.3-3.7,4.7-5.5,7c-2,2.5-3.7,4.8-0.8,8.3c1.3,1.5-1.3,4.3-0.9,7.1c3,17.2,5.8,34.5,9.5,51.6c6.5,30.1,12.3,60.3,16,91
		c0.5,4.8,0.6,9.7,0.3,14.5c-0.7,13.9,6.2,23.7,16.9,31.5c0.6,0.5,2,0.8,2,1.2c0.3,6.3,5,5.4,9,5.7c20.9,1.6,42,1.8,62.8,4.8
		c18.3,2.6,36.6,5.3,54.3,10.9c15.3,4.9,28.7,12.9,38.7,26.1c4.2,5.5,10.5,9.1,15.4,14.2c12.2,12.8,21.2,27.3,24.5,44.9
		c0.2,1,0.3,1.9,0.3,2.9c0,0.2-0.4,0.4-1.5,1.3c-3.8-23.4-16.3-41.2-34-55.7c3.6,9.7,3.4,20.3,10.1,29.2c6.2,8.1,7.8,18.2,7.8,28.5
		c0.1,5.8-0.2,11.7-1,17.4c-1.5-16.5-3.5-32.6-15.1-47.1c0.2,26.3,0.8,51.6-13.5,74c-1.5,2.4-2.8,5.1-5.6,6.7
		c4.3-10.3,11.6-19.1,12.4-31c0.7-11.2,2-22.4,1.4-34c-1.9,1.5-1.9,3.4-2.5,5.1c-2.8,7.8-6.3,15.4-9.9,22.9
		c-9,18.9-24.1,29.2-44.3,32.7c-3.4,0.5-6.7,1.8-9.5,3.8c-8.8,6.3-18.8,6.8-29.2,5.4c0.1-2.2,1.9-2.2,3.1-2.4
		c25.6-3.9,47.5-25.8,52.3-54.3c3-17.8,0.7-36.2-6.7-52.7c-5.4-12.5-15.2-20-27.1-26c-10.9-5.5-22.1-3.8-33.2-2.7
		c-29.2,2.9-58.3,6.3-86.9,12.7c-7.8,1.8-15.4,4.1-23.2,6c-3,0.7-4.2,2.1-4.8,5.3c-4.1,26-8.4,51.9-15.4,77.3c-0.4,2-0.3,4,0.2,5.9
		c3,14,7.4,27.7,9.3,41.9c2.6,19.2-0.3,38.2-2.4,57.2c-4.2,37.4-16.2,72.6-29.9,107.4c-1.8,5-3.2,10.1-4.1,15.3
		c-2.1,10-8.6,17.6-17.9,22.1c-5.1,2.5-11.3-1.5-11.6-7.3c-0.2-4.2-0.4-8.7,3-12.2c0.9-1,0.8-2.1,1-3.2c4.4-25.9,7.4-52.1,8.9-78.4
		c0.5-7.2,0.9-14.3,1.5-21.4c0.1-1.9,0.2-3.5-1.4-5c-15-13.1-22-30.5-26.3-49.4c-2.8-12.2-6.3-24.2-9-36.3
		c-3.4-15.3-3-30.4,4.4-44.8c2.4-4.7,2.2-8.9-1-13.5c-6.2-8.8-8.5-19.5-11.8-29.6c-1.6-5-3.3-6.6-8.9-5.5
		c-15.5,3.2-31.1,3.3-46.6-0.8c-2.4-0.6-5.1-1.1-7-2.5c-6.9-5.1-15.1-5.7-22.9-7.7c-20.5-5.1-37.6-15.7-52-31
		c-11.5-12.2-16.4-26.8-16.8-43.2C127.6,610.4,128.4,593.1,129.7,574.5z M130.6,598.4c2.3-3.6,1.8-8,2.9-11.9c6.9-26,21.7-47,41-65
		c19.9-18.5,42.6-33,65.9-46.8c1.5-0.9,3.4-1.5,4.6-3.3c-3.4-3.2-6-7.1-7.6-11.5c-1.1-3.4-2.6-2.9-5.1-1.6
		c-12.9,7-25.9,13.7-38.8,20.6c-12.6,6.8-23.7,15.5-32.3,27C140.7,533.3,129.6,563.9,130.6,598.4c-0.7,14.9-1.6,29.7,1.4,44.3
		c3.3,16,13.5,27.2,25.9,36.8c-8.1-10.3-14.9-21.7-20.1-33.7C131.6,630.6,130.6,614.6,130.6,598.4L130.6,598.4z M405.4,287.9
		c-1.6,1.2-2.2,1.7-2.8,2.2c-11.1,9.3-22.5,5.6-25.9-8.5c-0.5-1.9-0.7-3.9-0.8-5.9c0.1-13,6.3-23.3,15-32.2c7.9-8.1,16.9-8.6,26.1-2
		c1.4,1,2.7,3.9,4.2,2.6c2-1.8,3-4.5,2.6-7.2c-0.2-1-0.6-1.9-1-2.8c-7.6-19.7-15.3-39.4-26.1-57.7c-3.6-6.2-9.2-11.1-17.2-11.1
		c-3.1,0-6.1,2.9-8.9-2.1c-1.4-2.6-7.1-1.3-10.9-2.1c-7.9-1.5-12.3,2.3-15.7,8.8c-4.5,8.6-7.6,17.7-11.3,26.6
		c-0.6,1.5-0.6,3.6-3,4.6c-0.3-4.8,3.1-8.2,3.3-13.6c-10.9,13.9-25.4,19.3-41,22.5c-10.5,2.2-20.7,5.1-30.9,8.2
		s-18.9,15.4-18.8,26.4c3.3-0.9,5.4-3.2,7.4-5.6c4-4.7,9.3-8.2,15.1-10.3c10.9-3.8,22.2-6.4,32.9-0.5c9.5,5.2,14.3,15.7,22.3,22.7
		c0.3,0.3,0.4,0.8,0.3,1.3c-0.3,0.6-0.9,0.8-1.6,0.3s-1.2-1.7-2.5-1.4c0.2,5.2,2.3,10.1,3,15.3c-4-4.6-5.2-11.2-11.2-14.8
		c0,2.9,0,5.2,0,7.5c0.2,5.8-0.5,11.7-2.2,17.3c-2.2,6.5-6,8.8-12.6,7.7c-3.5-0.5-7-0.5-10.5-0.1c-10.1,0.6-18.1-2.9-24-11.4
		c-2.3-3.5-4.2-7.2-5.6-11.1c-1.4-3.6-3.4-6.9-5.8-9.9c-1.3-1.6-3.5-2.2-5.4-1.5c-1.7,0.6-0.8,2.6-0.8,4c0,1.5,0.2,3,0.4,4.5
		c1.7,12,7.5,22.3,13.7,32.4c5.5,8.9,11.5,17.7,14.5,27.8c1.1,3.7,3.1,4.8,6.4,5.6c13.8,3.1,27.7,5.9,40.9,11
		c7.7,2.8,15.8,4.1,24,3.9c14.6,0,27.9-5.4,41.5-9.7c7.1-2.2,13.4-5.7,15.7-12.5C401.5,307.8,403,298.2,405.4,287.9z M270.3,540.8
		c-8.7-7.9-13.8-16.7-17.5-26.5s-5.4-19.8-6.9-30.8c-12.7,9.1-26.1,15.8-39.5,22.3c-16.5,8.1-25.6,21.7-30.4,38.8
		c-3.4,12.1-3.6,24.7-4.8,37.1c-1.1,12.6-2.3,25.2,0.8,37.8c3.6,14.5,8.3,28.8,19.2,39.5c21.6,20.9,42.3,19.7,69.6,11.2
		c2.5-0.8,2.2-2.6,1.9-4.4c-0.9-6.2-4-11.8-8.8-15.8c-1.3-0.9-2.4-2.3-2.9-3.8c-2.4-7.1-3.2-14.8-8.6-21c-2.9-3.2-3.2-7.9-3.5-12.3
		c-0.4-6.5,1.4-12.5,3.5-18.5c2.9-8.6,6.5-17,8.3-26.1c-0.9-0.1-1.5-0.2-2.2-0.2s-1.3,0-2-0.1c-14.9-1.7-27-8.1-35.5-20.6
		c-0.7-1.1-3.1-2.8-0.5-4c11-5.2,22.2-9,34.6-6.9C253,537.7,260.9,539.2,270.3,540.8z M472.5,330.6c-6.8,8.3-11.5,18.1-19.2,25.7
		c2-5,4.6-9.6,7.7-13.9c8.6-12.2,15.2-25.4,20.6-39.2c8.2-20.8,13.1-42.3,12.2-64.8c-0.4-8.5-1.3-17-4.4-25.9
		c-0.2,0.6-0.3,1.2-0.3,1.9c0,1,0.1,2,0.2,3c3.3,34.8-3.5,67.5-19,98.7c-16.7,33.5-40.5,61.3-67.6,86.5c-1.2,1.1-3.5,1.9-3,3.7
		c1.1,3.7-0.7,6.8-1.3,10.2c-1,5.5,2,8,7,6.1c10.3-3.8,20.3-8.5,29.7-14.1c31.6-19,54-46.6,72.3-77.9c3.8-6.3,6.3-13.3,7.3-20.6
		c3.5-28.4,5.7-56.7-1.7-84.9c-0.4-1.5-1.7-3.2,0.5-5.2c9.7,30.4,6.7,60.8,3.9,91.3c4.5-4.5,8.7-9.2,12.6-14.2
		c12.7-16.6,16.4-34.9,9.8-55.1c-4.4-13.4-8.9-26.8-12.8-40.4c-6.4-22.7-18.6-41.9-33.9-59.3c-7.5-8.6-16.8-14.2-28.9-12.7
		c-9.5,1.1-17.9,5.2-25.4,10.8c-4.9,3.7-5.6,7.6-2.8,13.1c6.4-11,12.8-16.2,21.6-16.2c19.8,0,36.1,7,46.1,25.2
		c2.7,4.8,4.8,9.9,6.2,15.2c3.7,14.2,10,27.1,17.9,39.4c17,26.4,13.8,52.4-2.4,77.8c-0.7,1.1-1,2.9-3,2.7c-0.1-0.4-0.5-0.8-0.4-0.9
		c1.2-2.2,2.6-4.2,3.8-6.4c12-21.2,16.5-43.3,3.6-65.5c-9.9-17.1-18.8-34.4-24.1-53.5c-0.3-1-0.7-1.9-1.1-2.8
		c-8.4-19.2-22.3-28.3-45.4-29.1c-10.5-0.4-19.4,8-21.2,18.7c9.8-5.2,16.8-5.4,26.7,0.2c17.8,10,30.8,24,37.2,43.8
		c8.8,27.1,10.4,54.8,7.2,83c-1.7,14.8-4.8,29.2-11.2,42.8c-0.7,1.4-0.8,3.5-3.4,4c15.8-40.7,19.8-81.4,3.9-122.6
		c1.6,10.6,3.4,21.2,3.2,32.1c-0.4,20.5-2.9,40.9-7.5,60.9c-5.2,23.6-14.3,45.3-30.3,63.8c-16.5,19.1-36.6,33.9-57,48.4
		c-0.6,0.4-1.2,0.6-2.1-0.6c1.5-2,2.9-4.2,4.7-6.2c11.6-13.1,24.6-24.9,36.8-37.5C456.9,358.5,466,345.2,472.5,330.6z M323.5,1011.7
		c0.6-1.2,1.5-2.3,2.5-3.1c5-3.6,10.1-8.1,11.9-13.8c3.3-10.4,6.5-20.9,9.3-31.5c4.6-17.2,7.7-34.7,11.5-52.1
		c8.8-40.2,11.3-80.7,5.5-121.6c-0.9-6.5-2.7-13.2,0.1-19.7c3.9-9.3,4.7-19,4.6-28.9c0-15.8,1.5-31.6,4.6-47.2
		c2.4-12.9,1.7-14.1-11.1-17.4c-1.5-0.4-3-0.5-4.4-0.9c-3.6-1-4.3,0.6-3.8,3.8c1.3,10.2,1.7,20.6,1.1,30.9
		c-0.5,12.2-4.4,23.9-4.9,36c-0.1,3.4-0.8,6.7-2.9,9.4c-6.5,8.3-9.4,18.7-15,27.5c-3.7,5.8,0.4,12.2,7.4,12.7c5.5,0.4,10-1.8,14-5.4
		c0.9-0.8,1.5-2.6,4.1-1.9c-1.8,3.1-4.5,5.6-7.8,7.2c-5.5,3-11.3,3-17.6,0.4c1.4,36.3-1,71.7-3.6,107.2c-2,26.9-3.5,53.8-7.9,80.5
		C319.7,993.2,317.4,1002.7,323.5,1011.7L323.5,1011.7z M366.7,115.7c-2.1-10.9-9-18-17.3-24.1c-5.8-4.3-11.9-4.5-18.2-0.8
		c-5.1,3-10,6.4-14.4,10.3c-6.1,5.2-12.9,9.5-20.2,12.7c-2.4,1.1-0.8,4.4-3,4c-5.2-0.9-8.4,2.7-12,5c-18.6,12.3-35,27.4-52,41.6
		c-12.4,10.4-18.1,25.2-23.5,40c-5.9,16.3-8.8,33.4-13.3,50.1c-3.7,13.6-0.3,24.6,9.3,34.2c2.7,2.7,5.6,5.2,8.2,8
		c6.7,7.2,9.3,15.5,7,25.3c-1.2,5-3.3,9.6-5.7,14.9c6.1-1.8,9.4-5.7,12.5-10c2.1-2.9,2.6-5.5,1.1-9.1c-3.1-7-6.1-14-10.6-20.3
		c-2.9-4.3-4.9-9.1-5.7-14.2c-1.5-7.5,0.7-14.8,0.9-22.1c0.6-29.2,14.8-50.1,38-65.9c5.4-3.7,10.9-7.1,16.2-10.9
		c27.6-19.5,57.3-36,88.4-49.3c4.8-2.1,9.7-4.1,15-6.4c-4.6-3.2-10.3-4.3-15.8-3.1c-8.2,1.6-15.9,5.1-22.6,10.2
		c-8.8,6.5-18.3,12.2-28.3,16.9c-20,9.5-40,19-58.6,31.2c-1.2,0.8-2.4,2.5-4.5,1.2c0.2-0.4,0.3-1,0.6-1.2
		c11.3-9,22.9-17.8,33.9-27.1c16.7-14.2,35.8-24.9,53.9-37.1c3.8-2.4,7.9-4.3,12.2-5.7C347.7,110.3,357.3,108.9,366.7,115.7
		L366.7,115.7z M189.2,163.8c-9.1,11.8-19,21.7-33.4,28c11.6-1.8,20.6-6,23.9-10.5c1.9,2.9,2.1,3,1.6,3.6
		c-4.9,5.7-5.6,13.4-8.8,19.9c-3.4,6.9-4.8,14.6-5.4,22.2c-0.3,3.6-1.2,8.3,4.6,9.8c0.9,0.2,1.9,3.7-0.5,4.7
		c-0.9,0.3-1.6,0.8-2.2,1.5c-3.8,5.8-6.5,12.4-7.7,19.2c1.8-2.7,3-5.7,4.7-8.4c1.1-1.8,2-5.9,3.8-4.8c2.6,1.6-0.4,4.2-1.6,6.2
		c-8.1,13.5-5.4,27.4,7.2,36.8c2,1.5,4.1,2.9,6,4.5c4.1,3.2,7,7.7,8.1,12.8c1,4.2-0.3,8.3-1.3,12.4c4.7-4.6,6.5-10.8,8.9-16.8
		c2.6,1.9-0.4,3.8,1.2,5.3c0.3-0.4,0.6-0.7,1-1.1c1.1-0.9,1.1-4.1,3.3-2.3c2.1,1.7-0.7,2.7-1.5,3.9c-4.6,6.7-9.6,13.2-13.2,20.6
		c-4.6,9.3-5.6,19.1-2.2,29.1c1.4,4,3.2,7.6,8.2,9.7c-3.3-8.1-1.4-15.9-1.7-23.6c-0.3-10.5,3.1-18.7,11-25.4
		c4.2-3.6,6.6-8.3,8.4-13.4c1-2.3,0.5-5-1.1-6.9c-3-3.8-6.8-6.9-10.1-10.3c-8.5-8.6-13.6-18.6-11-31.1c2.5-12.2,5.3-24.4,8.6-36.4
		c5-18.3,10.5-36.6,22.5-51.9c3.7-4.7,5.9-8,0.9-13c-1.6-1.6-2.2-4.4-3.1-6.7c-0.6-1.6-1-4,0.5-4.6c5.3-2.1,2.6-5.4,1.8-8.5
		c-1.2-4.5-0.9-9.4,0.8-13.8c2.7-7.2,1.3-15,3.3-22.4c-17,19-31,39.8-40.7,63.5C186,165.6,186.2,163.2,189.2,163.8z M247,352.7
		c7.8-6.1,9.6-10.9,6.6-18.9c-3.6-9.3-7.1-18.6-12.2-27.3c-7.4-12.5-13-25.8-15-40.4c-2.9-20.7,4.7-37.5,21.6-45.8
		c4.9-2.3,10-4.1,15.2-5.3c12.3-3.1,24.4-6.5,36.8-9.2c17-3.7,30.5-13.7,37.5-28.8c6.5-14,19.5-21.1,27.8-32.8
		c0.3-0.4,0.7-0.7,1.2-0.9c6.4-0.6,4.9-5,4.6-9.1c-0.2-3.8-2-4-5-2.8c-4.1,1.8-8.3,3.4-12.5,5.2c-39.9,16.6-76,39.8-111,64.9
		c-11.9,8.3-20.9,20-25.9,33.5c-6.7,18.1-8.2,36.7,3.8,53c7.8,10.6,15.4,21,22,32.5C248.3,330.8,251.2,340.5,247,352.7z
		 M339.4,672.7c-4.2,3.3-7.5,5.8-10.8,8.3c-1.3,0.8-1.9,2.4-1.3,3.8c6.4,19.1,8.8,38.8,9.6,58.9c0.4,11.3-6.5,18.2-17.6,15.9
		c-3.3-0.7-6.6-1.7-10.4-2.7c0.5,1.2,0.7,1.8,0.9,2.4c2.5,6.2,2.5,6.2-3.9,8c-1.2,0.4-2.4,1.2-3.2,2.2c-2.4,2.6-2.8,5.9-2.7,9.3
		c0.3,17.3,2,34.5,4,51.8c1.8,16.6,6.4,32.7,13.6,47.7c2.2,4.7,5.7,8.8,10.1,11.7c1.9-24,3.6-47.4,3.1-70.9
		c-0.2-10.2,1.4-20.6-1.8-30.7c-0.3-1.5-0.1-3,0.6-4.3c4.2-8.5,7.7-17.5,13.1-25.1c5.2-7.3,5.9-14.5,4.8-22.6
		c-1.6-11.9-3.2-23.8-4.7-35.6C341.8,691.6,340.7,682.6,339.4,672.7L339.4,672.7z M460,260.1c0.3,1.8,0.6,3.6,0.9,5.4
		c0.3,2,0.5,4,0.7,6c2.2,27-3.4,50.5-28.9,65.2c-4.2,2.5-7.9,5.6-11,9.4c-3.9,4.8-4.9,10-2.3,15.9c0.5,1,2,2.1,0.2,3.8
		c-2.7-2.2-2.7-6.3-5.3-8.5c-1.2,6.6-3,13.3-10.1,15.5c-4.9,1.5-7.8-2.9-11.3-5.9c1.9-1.1,3.2-0.8,4.2,0.1c2.6,2.1,4.4,0,6.1-1.3
		c1.9-1.5,2.1-3.6,1-5.9c-1.7-3.5-4.7-6.8-7.8-7.3c-2.9-0.5-4.9,4-6.4,6.9c-3.4,6.8-6,7.4-11.6,2.3c-2.1,4.3-1.8,5.4,1.6,8.1
		c5.7,4.6,6.4,11.5,6.4,17.9c0,3.9,0.9,6.3,3.6,8.5c1.8,1.5,4.2,2.5,5.5,4.3c2.3,3.2,3.9,2.2,6.1,0c13.6-12.5,26.2-26.1,37.8-40.6
		c36.4-46.2,56-97.2,45.6-157c-1.6-9.4-7.5-16-13.4-22.9c1.2,4.2,2.8,8.2,3.6,12.4c0.9,4.5,0.5,9,0.5,13.4c0,3.5,0.2,7,0.8,10.4
		c1.8,9.8,2.8,19.5-2.5,28.8c-1.2,2.1-0.9,4.8-0.6,7.4c0.4,3.1,1.8,6.2,0.4,9.6c-5.5-5.7-7.5-13.4-12.7-18.8
		c3,10.7,8.3,20.7,15.4,29.3c0.7,0.8,3,1.3,1.2,2.9c-1.5,1.3-2.3-0.4-3.2-1.2C469.9,269.6,465,265.1,460,260.1z M515.3,29.6
		c-0.9,0.9-1.8,1.9-2.7,2.8c-8.8,9.4-18.2,18.1-28.1,26.3C470.4,70.5,454,78.1,437.1,85c-9.8,4.2-19.4,8.9-28.6,14.1
		c-2,1.1-2.1,4.4-5.5,3.9c-4.4-0.6-7,2.5-10.1,5.5c1.2,0.6,2.5,1.1,3.9,1.4c7.3,0.8,11.9,5.1,15.7,11c2.6,4.2,6.2,7.9,8.8,12.1
		c2.1,3.4,4.2,3.1,7.4,1.6c25.4-12.4,45.8-30.6,62.6-53.2C502.7,65.8,511.1,48.8,515.3,29.6z M199.6,686.2c2.6-0.5,3.7,1.3,5.2,2.5
		c13.9,10.4,28.6,18.9,46,21.9c8.7,1.5,16.5-0.3,22.9-7c1.5-1.6,2.2-3,1.2-5.2c-3.6-7.8-7.1-15.7-10.6-23.6c-1-2.3-2.2-2.6-4.6-1.9
		c-5.1,1.5-10.3,2.8-15.5,3.8c-29,5.6-53.3-6.7-66.2-33.3c-8.3-16.7-11.6-35.3-9.7-53.8c1-9.7,1.7-19.3,2.5-29
		c-6.5,16.6-9.6,33.8-10.8,51.5c-1.1,17,4,32.8,8.7,48.4c3.9,12.8,13.1,23.1,23.9,31.5c-5.7-8-10.5-16.5-15.7-24.8
		c-0.7-1.1-2.7-2.5-0.7-3.8s2.4,1,3,2.2c6.3,11.8,15,21.5,24.6,30.6c12.4,11.7,27.3,16.5,45.2,16.4
		C230.6,708.2,213.6,699.1,199.6,686.2z M301.5,437.9c-0.7,1.9-0.1,2.9,0.2,4c3.4,11.3,7.5,22.4,12.4,33.1c0.5,1.2,1.7,3.1,1.3,3.6
		c-2.9,3.4-1.2,6.1,0.7,9c0.4,0.6,0.6,1.3-0.1,1.7c-0.4,0.2-0.8,0.1-1.2-0.1c-3-3-2.3,0.7-2.4,1.5c-0.4,3,0.3,6.3-0.8,8.9
		c-6.5,14-14.5,26.9-26.5,37c-1.6,1.3-3.6,2.5-4.3,4.9c9.8,2.6,18.2,7.3,24.5,15.3c1.2,1.5,2.1,2.1,3.8,0.3
		c5.2-5.4,10.8-10.4,16.9-14.8c7.7-5.7,13.1-13.9,15.5-23.1c1.2-5,2-10.1,2.3-15.3c0.9-11.8-2.9-22.6-6-33.7c-0.8-3-1.8-4.5-5-5
		c-8.6-1.4-15.4-6-20.6-12.9C308.9,447.8,305.5,443.1,301.5,437.9z M255.8,478.5c-1.5-0.8-2.9-1.1-3.8-2c-3.6-3.6-6.9-2.3-10.6,0.1
		c-8.5,5.5-17.4,10.6-25.9,16.1c-18.6,12.2-36.4,25.3-51.1,42.2c-17.4,20-30.1,42.4-31.3,69.7c-1.4,33.4,12.6,60.5,36.2,82.9
		c7.3,6.9,17.3,9.4,27.1,11.6c-6.1-5.1-12-10.3-16.9-16.4c-8.1-10.2-13.4-21.4-17.3-34.1c-6.1-19.5-10.2-38.9-9.3-59.3
		c1.4-30.5,13-56.1,37.2-75.5c2.7-2.2,5-4.9,8.2-6.5c13.6-6.6,27.3-13.1,40-21.4c4-2.6,7.7-5.9,13.1-5
		C253,481.1,254.3,479.9,255.8,478.5L255.8,478.5z M264.4,441.9c-0.5-1-0.9-2-1.3-3c-3-10-6.8-19.8-11.6-29.1
		c-6.2-11.8-10.3-23.7-7.6-37.3c0.9-4.4-1.3-8.4-3.4-12.9c-1.7,4-3,7-4.3,10c-1.4,3.3-1.8,6.5,1.6,8.9c0.9,0.6,1.6,1.4,1,2.4
		c-0.8,1.2-1.7,0.2-2.5-0.2c-4.7-2.7-8-6.4-8.5-12.1c-7.7,4.5-7.7,4.6-5,13.3c1.5,4.8,3.4,9.4,4.3,14.3c3.5,18.5,5.4,37.2,9.9,55.5
		c2.2,8.7,5.9,16.2,13.5,21.4c8.9,6.2,16.5,3.8,20-6.5c0.6-1.9,1.1-4,2.4-5.5c10.2-12.1,9.3-27.9,15-42.2
		c-8.1,3.3-15.4,6.4-23.1,8.5c-2.3,0.6-2.8,1.5-1.9,3.9C264.1,434.6,265.7,437.9,264.4,441.9z M255.4,648.2
		c6.7,6.2,9.2,13.1,10,20.8c0.6,6.6,4.9,11.8,7.1,17.7c0.5,1.2,1.7,1.6,2.8,2c6.8,2.4,13.8,3.9,21.1,3c15.6-2,28.6-9.3,40.2-19.7
		c1.9-1.7,2.1-3.3,1.7-5.7c-1.9-10.3-4.7-20.4-7.3-30.6c-1-3.9-2.4-4.4-5.6-2.1c-12.8,9-27.2,12.7-42.7,13.8
		C273.9,648,265.3,647.8,255.4,648.2L255.4,648.2z M249.1,611.2c-0.2,7.4,1.8,12.8,7.1,16.7c1.3,1.1,2.9,1.6,4.6,1.3
		c8.9-1,17.9-1.9,26.9-2.6c3.2-0.3,4.8-1.1,3.8-4.9c-1-4-1.8-8.1-3.4-12c-1.5-3.4-0.4-6.5,0.4-10c1-4.7,1.7-9.4,2.9-14.2
		c0.8-3.4,1.1-6.8,3.3-9.6c2.9-3.6,6-7.1,9.2-10.6c2.3-2.5,2.2-4.7,0-7.3c-5.1-5.9-11.7-10.5-19.1-13.2c-5-2-8-0.8-10.3,3.9
		c-5.9,11.8-12.4,23.3-17.7,35.3C252.7,592.9,249.8,602.4,249.1,611.2L249.1,611.2z M388.4,453.2c-3.2,2.9-5.6,5.8-8.6,7.6
		c-7,4.1-8.1,9.9-7.9,17.5c0.7,29.1-2,57.8-11.8,85.5c-4.7,13.2-11,25.7-17.4,38.1c-0.8,1.6-2.8,4.4,1.1,3.8s8.2-1,11.6-3.7
		c9.5-7.6,19-15.1,27.7-23.6c2.6-2.3,3.9-5.7,3.5-9.2c-1.3-23.3-1.1-46.6-0.1-69.9C387.3,484.2,387.8,469.2,388.4,453.2L388.4,453.2
		z M334.1,732.5c-0.1-15.4-4.1-30.5-8.3-45.6c-0.9-3.3-2.3-2.6-4.5-1.4c-10.7,5.8-21.9,9.7-34.4,8.3c-3.8-0.4-2.7,1.4-2.1,3.4
		c5.6,18.3,12.4,36.1,20.3,53.5c0.5,1.2,0.8,2.7,2.3,3.1c4.7,1.1,9,3.4,13.8,4c8.4,1,14.4-4.7,13.4-13
		C334.2,740.7,334,736.6,334.1,732.5z M287.3,116.5c-28.9-11.7-40.5-35.9-48.3-64c-3.9,7.7-7,14.8-7.6,22.3
		c-1.2,14.6-1.9,29.2-2.1,43.9c-0.1,11,4.7,19.9,13.9,26.2c2.4,1.6,4,1.9,6.4-0.2C261.5,134.8,273.2,124.7,287.3,116.5z
		 M374.3,160.1c1.6-3.8,3-7.8,5.2-11.2c1.6-2.4,2.9-6.1,6.3-5.6c3.2,0.5,3.1,4.3,4.1,6.9c4.3,11.5,7.4,23.5,13.4,34.3
		c10.9,19.8,19.6,40.7,26.1,62.4c8.4,27.8,4.1,53.1-18.7,73.4c-0.4,0.4-1.2,0.7-0.1,2.2c25.2-12.1,28.9-35,30.3-59.3
		c2.2,10.6-0.6,21.3,0,32c3.6-2.2,4.6-5.4,5-9c3.1-22-1.6-44.4-13.3-63.2c-3-5-4.7-10.5-6.9-15.8c-0.4-0.9-1.3-2.1,0.8-3.2
		c2.3,4.7,3.7,9.8,7,14s6.9,8.2,12.2,10.6c-0.3-6.1-2.5-10.6-7.2-14.4c-5.7-4.4-10.3-10.1-13.3-16.7c-9.4-21.2-24.3-39.4-33.4-60.7
		c-1-2.4-2.4-3.4-5-1.5C378.5,141.5,373.5,149.3,374.3,160.1z M397.5,470.4l-0.9,0.1c0.6,15.1,1.2,30.2,2,45.3
		c0.3,5.3-0.2,10.8,2,15.8c6.2,14,4.4,29.1,6.4,43.6c1.7,12.1,0.7,24.5,3.8,36.4c0.3,1.1,0.1,2.4-0.6,3.3c-1.4,1.9-1.4,4-1.1,6.2
		c0.2,1.8-0.2,3.7-1.2,5.2c-3.6,6.1-0.9,20.6,4.8,25.1c1.9,1.4,4.1,2.3,6.5,2.4c1.1,0.1,2.6,0.3,2.8-1.3c0.5-3.8,3.2-2.9,5.7-2.8
		c4.9,0.2,9.6-2.8,10.9-6.9c1.4-4.3-2.8-5.5-4.7-7.9c-0.1-0.1-0.2-0.2-0.4-0.3c-10-8-14.2-18.5-13.5-31.2c0.2-4,0.1-8-0.3-12
		c-3-27.2-8.1-54-13.6-80.7C403.1,497.3,400.3,483.9,397.5,470.4L397.5,470.4z M500.5,208.4c0.2-0.8,0.3-1,0.3-1.1
		c-0.3-1-0.5-1.9-0.8-2.9c-6-20.5-19.3-35.1-37.8-45c-6.7-3.6-14-5.4-21.4-0.8c-2,1.2-3.1,2.8-1.2,4.6c1.8,1.7,0.7,6.8,5.7,4.9
		c7.2-2.8,13.8-0.8,19.9,3.1c5.8,3.6,10.2,8.6,14,14.1c11,16,16,33.9,16.8,53.1c0.9,21.8-3.7,42.7-11.3,63c-0.5,1.3-1.7,3.7-1,3.8
		c4,0.8,1.1,2.6,0.7,3.8c-0.9,2.7-2.2,5.2-3.2,7.8c-7.9,21.7-20.4,41.4-36.8,57.6c-9.1,9-18.2,18.1-27.2,27.2c-1,1-1.8,2.1-2.6,3.1
		c17.5-12.1,34.4-24.8,47.9-41.4c10.1-12.4,18.4-25.7,23.3-41c5.2-16.3,8.9-33.1,11.1-50.1c3.1-25.3,3.9-50.5-5.5-74.9
		c-0.8-1.4-0.6-3.1,0.5-4.3C494.7,198.3,497.4,203.1,500.5,208.4L500.5,208.4z M367.7,345.1c-19,13.4-38.1,13.1-57.4,0.9
		c-6.2-3.9-12.6-7.5-18-12.5c-4.8-4.4-10.4-6.2-16.5-7.5c-3.3-0.7-3.6,0-3.4,3.3c0.5,6.4,2.3,12.6,2.2,19c0,2.5,0.3,3.8,2.3,5.2
		c16.1,11.1,33.7,17.8,53.3,19.2c1.3,0.1,2.6-0.1,3.8-0.8C346.7,365,358.1,355.9,367.7,345.1z M383.5,684.7c2.4-9.6,4.6-19,7.1-28.2
		c2.7-10,2.9-10.1-7.8-10.4c-14.7-0.4-28.7-2.9-41.5-10.7c-2.7-1.7-5.9-2.7-9.6-4.3c4.3,14.7,7.9,29.7,10.5,44.8
		C358.3,668.7,370.8,676.5,383.5,684.7z M240.8,49c3,15.7,8.4,29.8,17.6,42.4c7.3,10,16.2,18.1,28.2,22.2c1.4,0.5,2.8,1.6,4.3,0.8
		c8.3-4.4,16.7-8.5,24.2-15.1c-8.6-4.8-15-12.4-24.7-13.8C279,83.7,270,77.9,262,69.9C255.1,62.9,248.1,56.1,240.8,49z M431.8,148.6
		c0.5-8,6.2-10.9,11.5-14.1c9.2-5.5,19.1-8.9,29.9-6.9c3.5,0.6,5.3,0.1,7.4-2.8c18.7-26.9,31.2-56.8,42.1-87.4
		c2.2-5.7,2.8-12,1.7-18.1c-4.2,4-4.5,4.4-5.4,7.8c-12.6,48-41.9,82.8-84.6,106.8C425.3,139,425.2,138.9,431.8,148.6L431.8,148.6z
		 M295.7,381.1c0.7-2.1-1.1-2.8-2.4-3.7c-5.2-3.9-10.7-7.4-15-12.3c-1.2-1.4-2.4-2.1-4.7-1c-7,3.1-9.4,6.2-8.3,13.5
		c0.9,6.6,0.9,13.3-0.1,19.9c-1.1,8.1-2.1,16.2-3.9,24.1c-0.8,3.3-0.5,5.3,3.8,3.6c6-2.6,12.1-4.8,18.3-6.6
		c8.8-2.4,12.5-12,12.2-18.9C295.2,393.5,294.4,387.3,295.7,381.1z M339.7,466.1c0,4.4,1.5,7.9,2.6,11.5c6.5,22.2,6.4,43.3-9.6,62
		c-1,0.9-1.1,2.4-0.3,3.5c4.1,7.4,8.2,14.8,12.4,22.3c14.5-30.7,19.3-62.9,16.8-96.9C353.9,471.4,346.7,470.2,339.7,466.1
		L339.7,466.1z M562,669c-5.9-3.3-12.4-5.3-19.1-5.9c-33.8-3.5-67.9-3.9-101.8-1.1c-1.2,0.1-2.6-0.2-3.1,1.7c-0.6,2.9-2,1.9-3.3,0.3
		c-2.9-3.7-6.4-6.9-10.4-9.4c0.2,2.6,0.4,4.4,0.4,6.2s1,3.8-0.4,4.8c-1.7,1.3-2.9-0.8-4.1-1.8s-2.5-0.7-3.8-0.5
		c-8.1,0.6-16.2,2-24,4.3c-1.4,0.4-2.9,0.5-3.3,2.5c-1,5-2.1,10-3.2,15.2c0.6,0.1,1.3,0.1,1.9,0c29.1-8.8,59.1-13,89.2-16.7
		c21-2.5,42-5.1,63.3-2.6C547.6,666.7,554.8,668,562,669z M272.1,361.7c2.6-1,5-1.1,6.7,0.9c6.1,6.9,13.7,11.7,21.9,15.7
		c9.8,4.8,19.6,9.8,29.5,14.2c6.2,2.8,11.9,1.4,17-3.4c3.9-3.6,8.3-6.6,12.4-10s8.8-6.7,12.5-10.6c2.2-2.2,5.2-6.6,2.5-8.6
		c-3.2-2.3-3.8-3.8-2.6-7.1c0.7-2-0.8-3.7-2.2-4.7c-1.7-1.3-2.5,0.9-3.3,1.8c-5.4,5.4-11.3,10.4-17.5,14.8
		c-4.1,2.9-8.4,5.7-12.9,8.7c8.7,3,16.4,0.5,24.2-1.9c-6.5,5-13.8,6.1-21.5,4.9c-4.4-0.7-8.8-1.9-13.2-2.3
		c-17.4-1.4-32.8-8-47.3-17.1c-1.7-1.1-3.5-3.8-5.4-2.6C270.9,355.9,272.3,358.8,272.1,361.7z M451.9,191.2
		c-2.2-4.2-4.5-8.4-6.7-12.6c-10.5-20.6-21.9-40.7-36.2-59c-3.3-4.2-7.1-6.9-12.4-7.4c-3.8-0.4-6,2.4-7.4,5
		c-1.2,2.1,2.2,2.1,3.4,3.2c1.8,1.7,3.3,3.7,4.4,6c1.5,3.2,3.3,6.2,5.5,8.9c10.1,12.6,18.2,26.7,27.3,40c4.3,6.5,7.8,13.6,10.3,21
		c4.2,12.1,6.8,24.6,9.9,36.9c2.2,8.9,10.9,24.6,16.9,29c-9.1-18.1-14.4-37.3-18.5-56.8c-1.6-7.3-3.9-14.5-6.7-21.4
		c-3.2-7.8-8.7-14.1-12.5-21.5c-0.6-1.2-2.3-2.5-0.4-4.7C435.7,169.6,442.7,181.1,451.9,191.2z M236,275.3c1.2,0,1.4,1,1.6,1.6
		c3.6,11.2,10.4,20.4,18.8,28.4c4.8,4.6,8.3,10.5,10.2,16.9c1.4,4.6,2.6,9.2,4.3,15.2c-0.4-12.8-4.2-23.1-9.8-32.9
		c-4.5-7.8-9.3-15.4-13.7-23.2c-4.6-8.4-8-17.2-8.5-26.9c-0.6-11.9,2.3-22.6,10-32c-4.9,1.8-9.1,5-12.3,9.1
		c-8.2,9.8-9.5,21.3-8.2,33.4c1.5,14,6.9,26.7,13.9,38.7c4,6.9,7.4,14.1,10.3,21.6c7.2,17.8,6.8,19.8-8.3,31.9
		c-2.1,1.7-1,2.7-0.3,4.1c1,2.1,2.1,0.7,3.1,0c10.7-8,15.4-18.4,13.2-31.8c-1.7-11.1-6.2-21.5-13-30.4c-4.6-5.9-8.3-12.5-11-19.5
		C235.9,278.4,234.4,276.9,236,275.3z M554.7,783.5c0.6-0.4,1.1-0.9,1.6-1.4c18.9-21.1,29.6-45.4,29.8-74.2c0-8.8-2-15.5-10.8-18.8
		c-1.8-0.8-3.6-1.8-5.2-2.9c-10-5.3-20-10.5-30-15.8c-2.7-1.4-5-4.1-8.6-2.9c1.1,1.6,3.1,1.8,4.7,2.6c9.2,4.7,17.5,10.5,22.6,19.8
		c10.7,19.4,13.7,40.1,9.8,61.8C566.5,763.4,561.3,773.7,554.7,783.5z M438.7,652.7c1.8,2.4-3.1,7.7,3.8,7c27.9-3,55.9-1.5,83.9-0.6
		c15.1,0.5,29.9,3,43.5,10c9.3,4.8,19.7,6.9,28.8,12c-7.3-8.5-16.5-14.2-26.9-18c-22.4-8-45.8-11.4-69.3-14
		c-17.7-2-35.5-2.3-53.3-3.8c-4.5-0.4-6.2,0.5-5.3,5.1c0.2,1.3,0.8,3.2-0.7,4.1C441.5,655.7,441.2,652.8,438.7,652.7L438.7,652.7z
		 M331.7,611.8c3.4-2.4,6.2-5.6,8.2-9.2c18.8-32.7,28.9-67.8,29.8-105.5c0.5-20.2,0-40.3-1.7-60.4c-0.1-0.9,0.6-3.1-1.3-2.2
		c-2.6,1.1-3.5-1.6-5.3-1.9c0.7,8.3,1.6,16.4,2,24.6c1.5,31.6,1.6,63-10.4,93.1c-6.1,15.3-12.3,30.5-18.5,45.8
		C332.6,600.7,332.8,605.6,331.7,611.8z M415.8,351.3c4-8.5,11.3-13.4,18.6-18.3c4-2.5,7.6-5.4,10.9-8.7
		c10.4-11.1,14-24.7,14.6-39.4c0.6-15.9-2.8-31.6-10-45.8c-2.8-5.6-5.9-9.5-11.5-12c-0.2,2.3,1.3,3.8,2,5.6
		c11.4,28.3,13.5,56.1-3.7,83.2c-4.1,6.5-9.6,11.9-14.7,17.6C417.6,338.5,414.1,344,415.8,351.3L415.8,351.3z M364.6,774.3
		c4,32.8,7.5,65.3,2.8,98s-11.4,64.7-19.6,98c1.1-1.8,1.4-2.3,1.7-2.8c17.8-40.5,25.1-83.2,28.3-126.9c1.6-22.1-5.4-42.7-10-63.8
		C367.5,775.5,366.9,774.7,364.6,774.3L364.6,774.3z M250.3,483c-1.4-0.2-2.2,0.9-1.8,3.3c1,5.2,1.4,10.5,2.8,15.7
		c3.3,13,8.1,25.3,18,35c1.3,1.3,2.3,2.9,4.4,0.7c4.6-4.8,9.9-8.9,14.3-13.9c2.6-2.9,2.9-4.9,0.2-8.3c-8-9.8-17.9-17.8-26.1-27.4
		C259.3,485,255.5,483.5,250.3,483z M267.6,645.9L267.6,645.9c1.7-0.1,3.3-0.1,5-0.1c19.1-0.5,37.4-3.7,53.4-15
		c2.7-1.9,4.9-3.3,3.2-7.1c-0.5-1.2-0.2-2.6-0.4-3.9s0.6-3.1-0.8-3.7s-2.2,1.1-3.1,2c-3.8,4.2-9,7.1-14.6,8.1
		c-4.8,0.8-9.5,1.3-14.3,1.8c-14.4,1.5-28.8,3-43.2,4.3c-3.2,0.3-3.6,1.4-2.6,4.4c3.3,9.2,3.1,9.2,12.9,9.3L267.6,645.9z
		 M380.5,627.9c1.5-0.2,4,0.7,4.1-0.8c0.3-5.2,3.8-10.6,2.7-14.9c-1.4-5.2-1.5-10.7-0.4-16c0.3-1.4,0-2.6-1.6-3.2
		c-1.4-0.5-2.5-1.2-4.1,0c-11.5,9.2-25.7,14.5-40.4,15.1c-2.5,0.1-4.3,2-5.4,4c-1.2,2.2,1.5,2.9,2.5,4.3c1.8,2.5,4.7,3.6,7.5,4.7
		C356.7,625.2,368.6,626.6,380.5,627.9L380.5,627.9z M402.7,558.7c-4.1,5-7.8,9.7-11.6,14.3c-0.9,1-1.3,2.3-1.1,3.7
		c0.6,3.6-0.7,6.4-3.3,8.9c-2.2,2-4.2,4.2,0.6,6c2.1,0.8,2,3.3,1.7,5.3s-1.4,4.1-0.9,5.9c1.9,7.5,0.9,14.8-0.9,22.1
		c-0.6,2.5,0.6,3,3.1,2.4c3.7-0.9,7.7-2.9,11.2-1.2c4,1.9,5.5-0.8,5.3-3c-0.7-5.5,1.2-10.6,0.7-16.2c-0.9-10.2-2.5-20.5-2.3-30.8
		C405.1,570.2,404.3,564.4,402.7,558.7L402.7,558.7z M365.8,104.2c-8-14-17.7-26.6-33.6-32c-18.3-6.2-34.8,1.2-52.5,7.9
		c1.2,0.6,2.5,1.1,3.8,1.4c10.8,1.4,19.9,6.2,28.1,13c3.5,3,6.4,3,9.8-0.2c2-1.9,4.7-3.1,7.1-4.6c9.7-5.6,15.9-5.2,24.7,1.7
		C358,95.3,361.6,100,365.8,104.2z M558,788.3c-0.8-0.5-0.5-1.2-0.2-1.8c0.2-0.6,0.6-1.2,1-1.6c13.5-11.4,22.4-26.2,30-41.8
		c5.4-11.1,7.9-22.7,6.6-35.2c-0.5-5.4-3.3-7.8-7.4-10.2c-0.2,0.6-0.3,1.1-0.4,1.7c2.9,35.5-10.3,64.7-34.9,89.4
		c-1.7,1.7-3.5,3.3-4,6c14.7-0.8,30-9.8,38.6-22.9c8.5-12.9,14-27.2,18.2-42c2.5-8.9-1.5-20.1-8.6-24.5
		C603.8,742.5,594,771.6,558,788.3z M369.9,127.8c-1.6-10.1-11.1-16.1-21.7-14.4c-8.7,1.5-17,4.9-24.4,9.8
		c-7.1,4.6-14.1,9.4-21.4,13.8c-16.5,9.9-30.3,23.2-45.7,34.7c7.8-4.2,15.8-8.2,23.8-11.9c16.8-7.7,33.5-15.6,48.4-26.8
		c4.4-3.2,9.4-5.8,14.6-7.6C352.4,122.2,361.2,121.4,369.9,127.8z M268,543.3c-3.9-1.8-8.1-2-12.1-2.9c-13.6-3.1-27-3.6-39.9,2.9
		c-2.7,1.4-3.9,2.4-1.5,5.3c8.9,11,20.6,16.5,34.5,17.3c1.1,0.1,2.6,0.5,3.2-0.8C256.5,557.2,264.1,551.7,268,543.3z M375.8,395.1
		c0.3-1.3-0.1-2.7-1-3.7c-3.1-3.5-6.2-6.9-9.2-10.5c-1.6-2-2.9-1.3-4.5-0.1c-4.4,3.3-8.9,6.4-12.9,10.2c-5,4.9-10.9,6.1-17.5,3.8
		c-2-0.7-4-1.5-6-2.4c-2.1-1-2.7-0.2-2.6,1.8c0.4,3.8,0.6,7.6,0.6,11.4c-0.2,4.1,1.9,6.1,5.4,7.1c3.3,1,7,1.5,9.9,3.3
		c3.8,2.4,5.1,1.5,6.6-2.3c1.7-4.4,4-8.3,9.9-4.7c1.9,1.2,8.1-3.4,8.4-5.7c0.8-5.7,2.4-7,7.9-5.2
		C374.4,399.5,375.4,398.1,375.8,395.1L375.8,395.1z M389,572.1c3.4-4.3,5.7-7.8,8.6-10.6c6.1-5.7,5.9-12.5,4.2-19.8
		c-0.5-1.9-1.2-3.8-2-5.6c-1.8-4.4-2.9-9.2-3.1-14c-0.9-21.3-2-42.6-3-63.9c-0.1-1.7-0.1-3.3-0.3-5c-0.2-1.5,0-3.1-1.7-4.2
		C388.9,489.5,386.8,530.1,389,572.1L389,572.1z M323.2,451.2c-1.3-2.9-2.3-5-3.3-7.1c-7.8-16.9-8.4-35-9.8-53.1
		c-0.5-6.3-1.9-6.9-8-8.7c-5.3-1.6-4.9,1.2-5,4.3c-0.2,8.9,1.8,17.9-2,26.6c-0.5,1,0.3,2.6,0.4,3.9c0.6,10.9,6.9,19,13.3,27.2
		C312.5,448.8,317,450.4,323.2,451.2z M297.2,625.8c7.6-0.8,15-0.9,21.4-5.2c10.7-7.2,10.9-9.7,1.5-18.3c-6.5-6-14.3-10.4-22.7-13.1
		c-3-1-5.3-0.2-6.5,2.7c-1.1,2.7-0.6,4.5,2.9,4.4c0.4,0,1,0.9,1.1,1.4c0.3,1.1-0.6,1.2-1.4,1.5c-4.6,1.7-5.3,5.1-3.7,9.2
		c1.9,4.6,3.2,9.5,3.8,14.4C294,625.5,295.1,626.3,297.2,625.8L297.2,625.8z M331.4,614.4c-2.7,5.4,3.7,9.3,2.1,14.5
		c-0.1,0.2,0.9,0.9,1.5,1.2c10.4,4.2,19.7,11.5,31.4,12.2c9.8,0.5,19.7,4.6,29.5,0.1c4.1,3.3,3.7-1.4,4.5-2.9c0.9-2,1.3-4.1,1.4-6.3
		c0.5-5.1-0.6-6.4-5.4-5c-8.4,2.3-16.8,2.2-25.2,0.8c-13.6-2.3-28-2.8-38.4-14.1C332.5,614.6,331.9,614.6,331.4,614.4L331.4,614.4z
		 M442.8,215.1c-3.5-17.3-10.3-31.9-19.5-45.9c-9.7-14.9-20.9-28.8-29.7-44.2c-1-1.7-2.5-3.1-4.4-4c-1.8-0.9-3-0.7-4,1.2
		c-2.7,5-5,10.2-5.7,16.6l4.7-4c5.2-4.3,7.9-3.7,10.3,2.7c1.6,4.4,4.2,8.2,6.4,12.4c7.7,14.9,18.1,28.3,24.8,43.8
		C429.2,201.9,435,208.8,442.8,215.1z M332.2,595.6c3.7-8.9,7.1-16.8,10.4-24.8c0.7-1.1,0.7-2.6,0.1-3.7c-4-7.3-7.9-14.6-11.8-22
		c-1-1.8-1.9-2.4-3.8-0.9c-5.8,4.5-11.3,9.3-16.5,14.5c-1.4,1.4-1.9,2.5-0.2,4.1c7.2,6.9,12.1,15.3,16.3,24.3
		C328.1,589.9,330.1,592.3,332.2,595.6z M274.4,691.4c7.6,17,11.7,34.9,19,51.5c0.5,1.2,1.2,2.4,2,3.4c4.5,5.1,4.4,10.5,1.5,16.2
		c-7.1,13.7-7.4,28.1-4.2,42.8c2.3,10.7,5.3,21.3,8,31.9c0.8,3.3,1.7,6.7,2.5,10c0-7.6-0.7-15.3-1.9-22.8
		c-2.6-15.5-3.2-31.1-3.4-46.7c-0.1-6.2,2.9-11.9,7.3-12.3c5.5-0.5,3.9-3,2.4-5.7c-10.7-19.3-17.8-40-24.5-60.9
		C281.8,694.4,280.3,691.3,274.4,691.4L274.4,691.4z M622.8,733.2c-1.8-6.9-5.4-12.8-9.5-18.4c-5.9-8.1-13.1-15.1-21.4-20.8
		c-0.7-0.5-2.1-0.9-1.1-2.2c0.8-0.9,1.5,0,2.2,0.4c1,0.6,1.9,1.3,2.9,2c5.3,3.9,10,8.5,15,13c-1.5-9.5-3-18.8-13.1-23.6
		c-6.2-2.9-12.7-5.4-19.2-7.5c-11.9-3.8-24.1-5.8-36.4-7.4c9.4,5.4,19,10.3,28.5,15.5C592.2,695.8,611.3,710.4,622.8,733.2z
		 M288.9,468.1c-11.6,2.8-21.5,9.5-32.4,12.8c13,10.6,23.7,23.1,35.9,35.8c-0.6-8.9-1-16.7-1.6-24.5
		C290.1,484.2,288.8,476.4,288.9,468.1z M330.7,454.7c5.4,0.9,9.8,1.5,8.6,7.5c-0.1,0.5,0.9,1.3,1.6,1.8c5.3,4,12.2,5.1,18.4,2.9
		c1.6-0.5,2.6-1.3,2.5-3.2c-0.8-11-1.2-22-3.2-33.4c-4.2,3.3-8.2,6-12.7,7.6c-4.8,1.6-9.9,2.4-15,2.3c2,4.6,4.8,8.8,8.3,12.5
		L330.7,454.7z M403.3,310.9c26.9-27,31.6-48.9,21.9-68.6C416.6,259.2,403.3,296.7,403.3,310.9z M203.4,336.8c1.7-2,3.9,1.2,5.9-1
		c4.9-5.5,8.1-20.9,4.8-28.4c-2.2,8.7-8,14.2-13.6,19.9c-1.6,1.7-2.9,3.6-3.8,5.8c-2.3,5.2-2.5,9.9,2,14.6c6.9,7.2,14,14.2,20,22.3
		c1.4-2.7,2.2-5.8,0.9-8.2c-1.9-3.6-0.7-7,0.4-9.9c1.8-4.6,0.3-8.4-1.3-12.4c-0.4-0.9-0.9-2.4-2.5-1.6c-3.2,1.6-7.2,0.9-9.8,4.2
		c-1.3,1.6-3.2,2.6-5.2,2.7C200.5,341.3,209.2,341.1,203.4,336.8z M254.3,629.5c-7.6-6.6-8.5-14.9-6.6-23.9c0.6-2.6,1.3-5.1,1.9-7.7
		c3-13.7,11-25.2,16.7-37.7c4.7-10.4,10.6-19.4,19.2-26.9c9.9-8.6,17.6-19.5,22.4-31.7c-4.5,2.3-6.5,5.5-8.2,8.8
		c-6.5,13.1-18.1,21.8-27.4,32.6c-6.4,7.4-13.9,14.4-17.6,23.3c-5.3,12.8-10.1,26-13.1,39.7c-1.7,7.4-0.1,15.2,4.6,21.3
		C248.2,630,250.4,631.3,254.3,629.5z M304.9,270.2c1.1-6.5,1.3-13.2,0.6-19.8c-0.1-1.5-0.9-2.9-2.1-3.8c-3.4-2.4-6.5-5.2-10.1-7.3
		c-8.7-5.1-19.7-4.2-27.6,2.2c-1.3,1.1-2.6,2.1-2.9,3.9c-1,7.3-1.4,14.7,0.9,23.3c2-4.8,4.1-8.1,8.1-8.9c3.4-0.7,4.1-2.3,4.4-5.6
		c0.4-4.1,1.1-8.9,6.5-10c4.5-0.9,8.3,1.9,10.9,7.6c0.9,1.8,1.4,3.7,1.4,5.8c-0.2,1.5,0.5,3,1.9,3.7
		C300,263.2,302.5,265.9,304.9,270.2L304.9,270.2z M329.6,608.8c-1.2-5.1,2.7-10.6-1.5-15.6c-3.3-3.9-5.4-8.8-7.5-13.5
		c-2.6-5.5-6.7-9.9-10.7-14.4c-1.4-1.6-2.3-1.4-3.5,0.1c-3.8,4.6-7.9,9-11.5,13.8c-2.8,3.6-2,6.3,2.3,7.5
		C310.2,590.7,320.7,598.2,329.6,608.8L329.6,608.8z M291.1,329.9c11.7,9,22.3,17,35.2,21.1c14.5,4.5,27.5,1,39.5-7.8
		c2.1-1.5,2.9-3.6,2-5.5s-2.9-0.3-4.4,0.1c-17,4.7-33.8,4.6-50.4-1.9C305.9,333.2,298.6,331.2,291.1,329.9z M210.5,270.9
		c-0.9,7.4,0.3,15,3.6,21.7c2.8,5.7,7.9,10.2,9.3,16.4c1.2,5.4,7.8,8.1,6.4,14.4c0,0.1,0.2,0.2,0.3,0.4c2.2,4.8,5.4,9.3,6.6,14.5
		s4.5,8.7,8.4,13c3.2-9.6,2.6-18.1-2.5-25.9c-2.9-4.5-5.5-9.1-7.6-14c-1.7-4.2-4.2-8-7.3-11.2C219.5,291.8,212.7,282.7,210.5,270.9
		L210.5,270.9z M272.8,345.5c-2,3.8-3.2,7.7-5.5,11.2s-5.8,6-8.8,8.8c-4.8,4.5-6.6,10.2-7.3,16.5c-0.5,4.5-0.8,9-1,13.4
		c-0.3,6,4.6,18.8,9,23.7c3.3-10.6,5.1-29.9,3.9-40.3c-0.5-4.2-1.1-9,2.2-11.8C272.3,361.1,268.8,352,272.8,345.5L272.8,345.5z
		 M372,464.3c5.9-4,11.2-8.8,15.9-14.2c2.9-3.4,8.3-6.4,3-12.1c-0.4-0.4,0-1.6,0-2.4c0-2.2-0.1-4.3-0.2-6.5
		c-0.1-2.8-0.7-4.4-4.1-2.7c-3.6,1.8-7.8,2.3-11.7,1.4c-4.2-1-5,0.8-4.8,4.2C370.7,442.5,371.3,453,372,464.3z M157,506.7
		c-7.1,5.8-13.3,11.3-17,19.2c-9.1,19.5-17.1,39.4-20.6,60.8c-2.9,17.8-3.4,35.6,0.4,53.5C117.1,591.7,132.1,548.2,157,506.7z
		 M313.9,252.3c-0.1-1-0.2-2-0.4-2.9c-1.4-6.1-6.8-9.2-10.1-13.9c-4.2-5.8-10.2-8.2-17.3-8.4c-16.9-0.5-30,5.8-41.5,20
		c3,0.8,3.6,1.5,10,10.6c1.6-7.7,4.3-14.6,11.3-19.2c5.9-3.8,12.1-4.9,19-4.4c8.9,0.8,14.6,7.5,21.9,11.3
		C308.9,246.6,311.2,249.9,313.9,252.3L313.9,252.3z M294.7,281.8c3.4,0.2,5.9-0.4,7.1-2.9c2.5-5.4,0.9-10.2-4.1-14.4
		c-2-1.7-3.2-2.3-5.2,0.5c-5.3,7.3-11.1,6.6-15-1.5c-1.2-2.4-2.3-2.8-4.6-2c-6.6,2.1-9.1,10.5-4.7,15.7c2.1,2.4,4.7,3.4,7.8,3.9
		C282.5,282.1,289.1,279.9,294.7,281.8L294.7,281.8z M399.7,320c-4,4.6-7.6,8.4-12.5,10.1s-6.9,5.3-8.2,9.8
		c-1.7,6.1-0.9,12.2,1,18.1c0.7,2,1.3,4.4,3.8,4.7c2.7,0.3,3.1-2.2,4.1-4c1.7-2.6,3.6-5.2,5.6-7.5c0.9-0.9,1.6-2,2.2-3.2
		C398.9,339.2,399.6,330.1,399.7,320L399.7,320z M471.4,252.5c-1-3.6,0.2-7.9,2.5-11.9c1.2-2.2,1.4-4.8,1.9-7.2
		c0.4-1-0.2-2.2-1.2-2.5c-0.1,0-0.2-0.1-0.3-0.1c-11.9-3.6-14.5-13.1-15.4-23.8c-0.1-1.5-0.7-2.9-1.6-4.1c-3.3-4.4-6.8-8.6-10.4-13
		C452,212.4,454.7,235.5,471.4,252.5L471.4,252.5z M180.3,526.5c-24.8,27.1-28.1,59.5-22.8,94C156.8,587.1,168.4,556.8,180.3,526.5
		L180.3,526.5z M398.6,345.8c9.2-6.4,19.9-9.9,27.1-19.2c6.9-8.9,13.4-17.7,17.6-29.5c-6.3,5.7-7.1,14-13.5,18
		c0.6-2.1,1.9-3.8,2.8-5.7c0.9-1.9,1.6-3.9,2.3-5.9c-7.2,11.5-16.2,20-30.1,22.2c-2.3,0.4-2.7,2-2.9,4
		C401.2,335.2,400.7,340.6,398.6,345.8z M396,102.7c-7.2-1-14.5,0.1-21.1,3.2c-6.4,3.3-7.8,5.5-5,12.2s3,13.8,3.8,20.8
		c0.3,2.2,0.3,4.4,0.5,7c2-1.8,1.9-3.9,2.3-5.8c2.3-10.5,5.8-20.5,14.1-28c0.4-0.3,1-0.9,0.9-1.1C389.7,106.7,393.3,105,396,102.7z
		 M400,259.2c0.2-3.1-0.7-6-1.3-8.9c-0.6-3.5-2.2-3.9-5-1.8c-5.6,4.2-9.1,10-12.8,15.7c-4.2,6.4-3.5,19.6,1.8,25.2
		c1.4,1.5,2.5,2,4,0.2C394.2,280.8,399.1,270.9,400,259.2z M334.4,451.2c-2.4-6.1-6.8-10.5-8.6-16.6c-3.8-12.5-5.2-25.3-5.7-38.2
		c-0.3-7.1-0.4-7.4-7.8-9c0.3,4.7,0.5,9.4,0.9,14c1.1,15.5,3.1,30.8,10.2,45C326.5,452.6,326.7,452.8,334.4,451.2L334.4,451.2z
		 M294.6,513.9c4-5.4,6.2-11,11.4-14.2c0.6-0.4,0.9-1,0.9-1.6c-1.2-5.6,1.2-11.7-2.5-16.9c-2.4-3.4-4.6-7-7.1-10.2
		c-1.2-1.6-2.5-4.3-4.9-3.3c-2,0.8-1.5,3.6-1.3,5.5C292.2,486.3,293.4,499.5,294.6,513.9L294.6,513.9z M393.1,100
		c2.2,0,4.3,0.1,6.5,0c1.7-0.1,3.4-1.1,3.9-2.6c0.4-1.4-1.5-2-2.5-2.7c-3.6-2.5-7.4-4.4-11.5-5.8c-8-2.7-15.6-2.5-22.8,2.4
		c-2.7,1.9-4,3.6-1.1,6.6c1.5,1.8,2.5,4,2.8,6.3c0.4,2,1.2,2.4,3,1.2C377.9,101,385.4,100,393.1,100z M349.5,731.8
		c4.4-17,4.6-34.2,2.5-51.5c-0.2-1.7,1.2-5.3-2.4-4.7c-3,0.6-7.3,0.9-6.7,6.2C344.9,698.5,346.5,715.2,349.5,731.8z M399.6,246
		c6.6,18.6-1.7,32.8-12,46.5c8.6,0.9,16.2-3.6,17.7-10.4c1.6-7.1,3.1-14.3,4.4-21.4C410.9,254,407.3,248.5,399.6,246z M271.7,471.7
		c9-2.7,17.6-6.4,25.8-10.9c1.3-0.7,3.1-1.4,2.1-3.2c-1.5-2.8,0-7.4-4-8.4s-8.2-1.2-12.4-0.6c-2.5,0.5-2.8,4.6-4.4,6.9
		C275.7,460.3,272.3,465,271.7,471.7z M160.4,502.7c5-6.2,11.6-10.8,16.2-17.4c6.8-9.6,15.8-17.3,26.2-22.6
		c8.9-4.5,18.2-8.3,27.7-11.2c1.4-0.4,4.4-0.1,3.4-3c-0.8-2.6-2.9-0.8-4.2-0.5c-26.2,5.2-45.9,20.2-61.7,41.1
		C164.8,493.1,162.2,497.7,160.4,502.7L160.4,502.7z M371.4,750.6c3.7-13.9,6.1-27.9,8.5-42c1-6.1,1.9-12.2,3-18.2
		c0.6-3.5-1.8-5.3-4.2-5.8c-2.6-0.5-1.7,2.6-2,4.1C372.5,709.1,370.3,729.7,371.4,750.6L371.4,750.6z M403.9,637.2
		c-1.5,3.5-1.9,6.6-4.3,7.9c-8.1,4.7-6,13.3-9.7,20.9c9.8-3.2,18.5-4.1,28-5.4C410.9,653.9,405.6,647.2,403.9,637.2L403.9,637.2z
		 M325.1,424.5c1,3.5,2,6,2.5,8.6c0.8,4.2,3.4,5.1,7.2,4.8c6.8-0.6,13.4-2.9,19-6.7c3.8-2.5,4.6-5.3,2.6-9.1
		c-0.6-1.2-0.3-3.2-2.5-3.1c-1.7-0.1-3.3,0.9-4,2.5c-0.9,2.1-1.9,4.2-3,6.2c-1.3,1.9-3,3.8-4.2-0.2c-0.5-1.7-2.2-2.6-3.9-2.1h-0.1
		C334.4,426.5,330.2,426.1,325.1,424.5z M402.7,323.8c17.4-12.7,27.4-28.7,27.9-50.1c-2.8,9.6-7.7,18.4-14.3,25.9
		c-3.7,4.2-7.2,8.7-11,12.9C402.4,315.6,401.2,318.9,402.7,323.8z M475.9,224.9c-1.4-8.2-2.5-15.5-2-23.1
		c0.6-10.1-2.9-18.9-8.5-27.1c-1.9-2.8-4.5-4-8.7-4.1c7.9,6.2,9,15.2,9.2,24c0.2,8.2,2.9,15.6,5.4,23.1
		C471.9,220.6,473.6,223.1,475.9,224.9L475.9,224.9z M337.4,71.5c9,4.4,15.8,11.1,21.9,18.7c0.8,1,1.5,3.4,3.7,1.3
		c4.9-4.8,11.1-6.5,19.1-6.8c-5.1-2.4-8-6.8-12.7-5.4c-7.4,2.3-13.5-0.2-19-4.5C346.4,71.7,342,71.2,337.4,71.5z M244.8,148.4
		c-16.5-9.3-19.1-24.2-18-40.7c-4.7,14.9,2.2,27.7,7.1,40.9c-5.1-6.9-8-14.6-10.5-23c-3.8,10.4,0.8,18.2,6.3,25.5
		c4.5,6,4.8,5.8,10.8,0.9C241.8,151,243.1,149.9,244.8,148.4z M234.7,453.4c-20.1,5.4-39.3,12.2-52.9,29.4
		C199.2,472.6,217.7,464.5,234.7,453.4L234.7,453.4z M253.1,359.4c9.1,1.1,18.7-8.1,16.6-16.3c-2-8-3.1-16.3-6.6-23.9
		c-1.5-3.2-2.8-6.5-6.6-9.9C263.6,327.4,267.9,344.2,253.1,359.4L253.1,359.4z M389.7,248.3c10-5.8,15-5.2,19.6,1.5
		c2.5,3.6,3.4,8.1,2.4,12.4c-0.6,2.6-1.1,5.2-1.6,7.8c3.6-6.5,6.2-13.3,9.2-20c1-2.2,0-3.4-1.3-4.7
		C409.2,236.4,398.9,237.2,389.7,248.3z M278.1,256.5c0,5.9,3.3,11.5,6.7,11.4c4-0.2,8-5.5,8-10.5c0-4.4-4.9-10.9-8.4-11.1
		S278.1,250.9,278.1,256.5z M378,395.9c-1.4,5.2-4.1,6-7.9,4.4c-1.3-0.6-3-1.1-4.2,0.2c-1.3,1.4-1.5,3.5-0.5,5.2
		c1.6,2.6,2.1,5.5,3.1,8.4c0.5,1.3,0,3.6,1.9,3.5c1.5,0,2.2-1.9,2.6-3.4c1-3.1,2.5-4.2,5.3-1.8c3.2,2.8,4.6,1.1,5.3-2.2
		C384.9,404.8,381.2,401.3,378,395.9z M233,362c-3.6,4.2-4.1,8.3-0.3,12.8c0.2-3,1.1-5.8,2.6-8.4c6.2-11.4,2.2-21.8-2.9-32.1
		c-0.2,9.7-3.4,19-4.3,28.7C229.8,362.5,230.6,361.2,233,362z M414.7,339.6c-5.1,2-8.9,4.6-12.8,7.2c-3.4,2.2-4.2,3.8-0.3,6.7
		c7.4,5.7,7.2,10.3,0,16.2c-0.1,0.1,0.1,0.6,0.1,0.9c5.4-0.1,9.8-5.6,10.2-12.9C412.2,351.6,413.1,345.5,414.7,339.6L414.7,339.6z
		 M473.1,227.7c-7.5-19.6-14.5-39.8-28.3-57.1c-0.8,1.8,0.1,2.7,0.6,3.6c3.1,5.7,6.1,11.4,9.3,17c3.7,6.7,6.8,13.4,7,21.4
		C461.8,219.8,467.7,226.8,473.1,227.7L473.1,227.7z M393.2,434.5c2.5-2.7,1.4-5.1,1.3-7.3c-1.1-19.5-9.2-35.7-22.5-49.7
		c-1.4-1.4-2.1-4-4.9-1.4s0.1,3.4,1.2,4.6c7.3,8.5,15,16.7,19.3,27.5C391,416.6,392.8,425.5,393.2,434.5z M596.5,730.3
		c-6.2,17.7-15.6,33.7-27.1,48.5C586.9,767.4,595.5,751,596.5,730.3z M345.2,426.3c2.7-3.3,2.4-8.4,7.2-9.4c1.3-0.3,2.7-0.3,2.5-2.3
		c-0.1-1.9-1.3-3.5-3.1-4.1c-1.8-0.8-2.9,0.2-3.6,1.6c-1.1,2.2-2.3,4.4-3.3,6.7s-2.5,2.8-4.2,1.4c-4.2-3.4-9.6-3.5-14.3-5.6
		c-2.1-0.9-2.5-0.3-2.5,1.8c0,5.5,4.4,8.5,11.4,7.3C339.1,423,342.6,422.5,345.2,426.3L345.2,426.3z M290.6,421.9
		c-4.3,6.9-5.2,14.5-6.7,21.9c-0.4,1.9,0.5,2.2,2.1,2.3c2.5,0.1,5,0.2,7.5,0.6c2.9,0.4,3-1,2.5-3.2
		C294.1,436.3,292.3,429.1,290.6,421.9L290.6,421.9z M385.6,144.9c-4.9,4.8-7,10.1-8.6,15.7c-0.3,1.1-0.6,2.6,1.3,2.4
		c6.1-0.7,10.6,2.6,15.7,5.6L385.6,144.9z M368.3,425c-0.1-5.3-1.9-10.3-3.3-15.4c-0.2-0.9-0.7-1.7-1.7-1.2c-3,1.4-6.2,4.9-5.7,6.9
		c1.2,4.6,0.6,10.1,4.8,13.7c1.1,1,1.3,3.7,3.4,2.9c1.7-0.6,2.3-2.8,2.8-4.5C368.6,426.6,368.5,425.8,368.3,425z M227.6,325.6
		c-2.2,3.1-4.3,6.4-7.1,8.8c-1.2,1-0.9,2-0.2,3.1c2.2,3.7,3.2,8.1,2.8,12.4c-0.1,1.6,0.4,2.5,2.1,2.8s2.3-1,2.6-2.4
		c1.3-6.2,2.6-12.3,2.3-18.6C229.9,329.5,229.8,327.4,227.6,325.6L227.6,325.6z M386,411.1c-1.4,3.6-3.2,6.7-6.4,4.5
		c-3.8-2.6-4.6-0.4-6,2.2c-1.1,1.9-3.9,3.2-2.5,5.9s4.4,2.3,6.7,2C391.6,424.5,391.1,423.2,386,411.1L386,411.1z M353.9,158.4
		c5.9,0.6,10.6,1.1,15.3,1.5c1.1,0.1,3.1-0.1,2.4-1.4c-1.9-3.2,0.7-5.9,0.3-8.8c-0.3-1.9,1-4.6-0.9-5.4c-2.3-1-4.2,1.1-5.8,2.9
		c-0.4,0.5-0.9,1-1.2,1.6C361.5,152.9,358,156.2,353.9,158.4z M259.1,362H253c-5,0-7,2.2-6.9,7.2c0,3-0.2,6-0.6,8.9
		c-0.8,5.8,0,11.8,2.3,17.2C249.2,383.2,248,371.1,259.1,362z M463.8,196.6c-0.7-17.4-5-24.6-16.1-27C453,178.6,458,187,463.8,196.6
		z M387.8,576.7c-8.8,9.6-18.4,16.9-28.3,25.2C374.2,598.1,387.2,586.8,387.8,576.7L387.8,576.7z M295.8,431.1
		c3.2,16.6,6.9,33.1,16.5,47.6C306.4,462.9,300.5,447.2,295.8,431.1L295.8,431.1z M383.4,388.1l1.6-0.7c-1.4-5.1-1.6-10.7-5.2-15.1
		c-0.8-1-2.2-1.5-3.3-2.2c-1.9-1.4-2.6,0.5-3.7,1.2c-1.5,1-1.3,2.1-0.3,3.3C376.2,379.1,379.8,383.6,383.4,388.1L383.4,388.1z
		 M315.2,452.3c4.5,5.9,11.2,9.9,18.6,11c0.8,0.1,2.2,1.5,2.6-0.6c0.2-1.5,1.6-3.7-0.7-4.3C328.9,456.8,322.9,452.7,315.2,452.3z
		 M379.3,332.8c-3.6,1.3-8.3,1.1-8.5,4.1c-0.2,3.2-1.2,7.2,1.3,10.4c1.9,2.3,3.1,4.7,1.9,7.7c-0.7,1.6,0.1,2.1,1.4,2.4
		c2,0.4,1.8-1,1.5-2.1C375,347.7,375.9,339.8,379.3,332.8L379.3,332.8z M221.8,147.2c-1.8,0.2-2,1.6-1.6,3.2
		c1.3,4.1,3.4,7.9,6.1,11.2c0.4,0.7,1.3,1,2,0.6l0,0c3.8-1.7,4.5-4.4,1.8-7.4c-1.7-1.8-3.2-3.8-4.8-5.7
		C224.6,147.8,223.2,147.1,221.8,147.2z M306.5,480c0.6-0.4,0.8-0.5,0.8-0.6c0.1-6.4-4-11.3-6.4-16.8c-0.8-1.8-3.4,0.7-5,1.6
		c-1.9,1.1-0.1,1.9,0.6,2.5C300.6,470.6,303.2,475.5,306.5,480z M436.8,649.2c-3.5,2.3-7,2.8-11.1,3.1l10.8,9.7
		C437.1,657.7,437.2,653.4,436.8,649.2z M338.8,998.7c-3.8,6.2-11.8,9.2-13.8,17.8C333.1,1011.9,338,1005.7,338.8,998.7z
		 M323,1017.5c-3.2-3.3-2.5-7.6-4-11.2c-0.5-1.2-1.4-3.7-2.7-1.5c-1.7,2.7-1.9,6.2-0.4,9.1C317.3,1016.5,319.3,1018.4,323,1017.5z
		 M522.7,804.7c10.9-0.5,22.9-7.6,24.7-14.5C540.3,796.6,532.2,801.1,522.7,804.7z M222.1,367.8c3.6-2.7,3.8-6,4.3-9.2
		c0.4-2.5-0.2-3.8-2.9-3.7s-2.8,2.2-2.5,3.8C221.8,361.6,222.1,364.7,222.1,367.8z M395.5,416.6c3.4-7.8,2.1-12.7-4.6-16.6
		C392.5,405.6,393.9,410.9,395.5,416.6z M260,250.2c-4.3,5.4-3.2,17,2.3,21.3C259.5,264.4,259.9,257.4,260,250.2z M607.7,715.6
		c1.2,10.1,1.2,20.2,1.9,30.3C609.2,735.8,611.4,725.5,607.7,715.6z M278.7,709.8c-0.2-2.2-1-4.3-2.4-6c-2.6,3.2-6.1,5.3-10.4,8.3
		L278.7,709.8z M309.9,482.2c0.1,4.9-2.4,9.8-0.1,14.8C309.2,492,311.7,487.2,309.9,482.2z M366.7,77.5c-4.6-1.7-8.2-3.1-13.4-3.5
		C357.8,77.2,361.4,78.7,366.7,77.5z M422.6,661.3c-0.6-5.6-0.6-5.6-5.3-4.5C418.6,658.7,419.8,660.8,422.6,661.3L422.6,661.3z"/>
	<path d="M344.9,207.7c-0.1-5.7,1.1-11.3,3.5-16.4c3.3-7,7.5-9.4,15.4-8.9c7.2,0.4,9.7,2,11.7,8.8c3.2,10.5,2.1,20.5-5.9,28.7
		c-3.8,3.9-8.6,6.6-14.4,4.6s-8.8-6.8-9.9-12.8C345.1,210.4,345,209,344.9,207.7z M347,207c0.1,1.2,0.2,2.9,0.5,4.5
		c0.9,5.1,3.3,9.1,8.4,10.9s9-1.1,12.5-4.4c7.7-7.3,8.8-23,2.3-31.3c-0.6-1-1.5-1.8-2.5-2.3c-6.9-2.4-14.4,0.8-17.6,7.3
		C348.3,196.4,347.1,201.7,347,207z"/>
	<path d="M352.4,316.3c-5.2,5.8-14.1,6.3-19.9,1.1c-0.3-0.3-0.6-0.6-0.9-0.9C338.5,319.6,345.5,320.2,352.4,316.3z"/>
	<path d="M393,268.5c0.3,2.8-0.5,5.6-2.1,7.8c-1.3,1.8-2.8,4.3-5.4,3.3c-2.4-0.9-2.5-3.6-2.5-6c0-2.2,0.6-4.3,1.7-6.1
		c1.2-2.2,1.9-5.8,5-5.2S392.8,266.6,393,268.5z M389.2,264.2c-3,4.5-5.5,8.3-3.1,13.4C391.2,273.7,391.9,270.7,389.2,264.2z"/>
</g>
<g id="图层_1_x5F_复制">
	<g>
		<path fill="#381445" d="M425.2,242.3c-8.5,16.9-21.9,54.4-21.9,68.6C430.2,283.9,434.9,262,425.2,242.3z"/>
		<path fill="#044563" d="M402.7,323.8c17.4-12.7,27.4-28.7,27.9-50.1c-2.8,9.6-7.7,18.4-14.3,25.9c-3.7,4.2-7.2,8.7-11,12.9
			C402.4,315.6,401.2,318.9,402.7,323.8z"/>
		<path fill="#870908" d="M382.7,289.5c1.4,1.5,2.5,2,4,0.2c7.5-8.8,12.4-18.7,13.3-30.4c0.2-3.1-0.7-6-1.3-8.9
			c-0.6-3.5-2.2-3.9-5-1.8c-5.6,4.2-9.1,10-12.8,15.7C376.7,270.7,377.5,283.9,382.7,289.5z M384.7,267.5c1.2-2.2,1.9-5.8,5-5.2
			c3.1,0.7,3.1,4.2,3.3,6.2c0.3,2.8-0.5,5.6-2.1,7.8c-1.3,1.8-2.8,4.3-5.4,3.3c-2.4-0.9-2.5-3.6-2.5-6
			C383,271.5,383.6,269.4,384.7,267.5z"/>
		<path fill="#620013" d="M313.9,252.3c-0.1-1-0.2-2-0.4-2.9c-1.4-6.1-6.8-9.2-10.2-13.9c-4.2-5.8-10.2-8.2-17.3-8.4
			c-16.9-0.5-30,5.8-41.5,20c3,0.8,3.6,1.5,10,10.6c1.6-7.7,4.3-14.7,11.3-19.2c5.9-3.8,12.1-4.9,19-4.3c8.9,0.8,14.6,7.5,21.8,11.3
			C308.9,246.5,311.2,249.9,313.9,252.3z"/>
		<path d="M272.8,345.5L272.8,345.5L272.8,345.5z"/>
		<path fill="#155A7A" d="M377.1,160.6c-0.3,1.1-0.6,2.6,1.3,2.4c6.1-0.7,10.7,2.6,15.7,5.6l-8.5-23.7
			C380.8,149.7,378.6,155,377.1,160.6z"/>
		<path fill="#96002F" d="M389.2,264.2c-3,4.5-5.5,8.3-3.1,13.4C391.2,273.7,391.9,270.7,389.2,264.2z"/>
		<path fill="#FFDDB6" d="M363.4,337.8c-17,4.7-33.8,4.6-50.4-1.9c-7.1-2.7-14.4-4.7-21.9-6c11.7,9,22.3,17,35.2,21.1
			c14.5,4.5,27.5,1,39.5-7.8c2.1-1.5,2.9-3.6,2-5.5C366.8,335.7,364.8,337.4,363.4,337.8z"/>
		<path fill="#FD2538" d="M274.6,348.4c0,2.5,0.3,3.8,2.3,5.2c16.1,11.1,33.7,17.8,53.3,19.2c1.3,0.1,2.6-0.1,3.8-0.8
			c12.7-7,24.1-16.1,33.7-26.9c-19,13.4-38.1,13.1-57.4,0.9c-6.2-3.9-12.6-7.5-18-12.5c-4.8-4.4-10.4-6.2-16.5-7.5
			c-3.3-0.7-3.6,0-3.4,3.3C272.9,335.8,274.7,342,274.6,348.4z"/>
		<path fill="#FFDDB6" d="M241.9,249.7c-1.7,0.5-0.8,2.6-0.8,4c0,1.5,0.2,3,0.4,4.5c1.7,12,7.5,22.3,13.7,32.4
			c5.5,8.9,11.5,17.7,14.5,27.8c1.1,3.7,3.1,4.8,6.4,5.6c13.8,3.2,27.7,5.9,40.9,11c7.7,2.8,15.8,4.1,24,3.9
			c14.6,0,27.9-5.4,41.5-9.7c7.1-2.2,13.3-5.7,15.7-12.5c3.2-8.9,4.7-18.5,7.1-28.8c-1.6,1.2-2.2,1.7-2.8,2.2
			c-11.1,9.3-22.5,5.6-25.9-8.5c-0.5-1.9-0.7-3.9-0.8-5.9c0.1-13,6.3-23.3,15-32.2c7.9-8.1,16.9-8.6,26.1-2c1.4,1,2.7,3.9,4.2,2.6
			c2-1.8,3-4.5,2.6-7.2c-0.2-1-0.6-1.9-1-2.8c-7.6-19.7-15.3-39.4-26.1-57.7c-3.6-6.2-9.2-11.1-17.2-11.1c-3.1,0-6.1,2.9-8.9-2.1
			c-1.4-2.6-7.1-1.3-10.9-2.1c-7.9-1.5-12.3,2.3-15.7,8.8c-4.5,8.6-7.6,17.7-11.3,26.6c-0.6,1.5-0.6,3.6-3,4.5
			c-0.3-4.8,3.1-8.2,3.3-13.6c-10.9,13.9-25.4,19.3-41,22.5c-10.5,2.2-20.7,5.1-30.9,8.2c-10.2,3.1-18.9,15.5-18.8,26.3
			c3.3-0.9,5.4-3.2,7.5-5.6c4-4.7,9.3-8.2,15.1-10.3c10.9-3.8,22.2-6.4,32.9-0.5c9.5,5.2,14.3,15.7,22.3,22.7
			c0.3,0.3,0.4,0.8,0.3,1.3c-0.3,0.6-0.9,0.8-1.6,0.3s-1.2-1.7-2.5-1.5c0.2,5.2,2.3,10.1,3,15.3c-4-4.6-5.2-11.2-11.2-14.8
			c0,2.9,0,5.2,0,7.5c0.2,5.8-0.5,11.7-2.2,17.3c-2.2,6.5-6,8.8-12.6,7.7c-3.5-0.5-7-0.5-10.5-0.2c-10.1,0.6-18.2-2.9-24-11.4
			c-2.3-3.5-4.2-7.2-5.7-11.1c-1.4-3.6-3.4-6.9-5.8-9.9C246.1,249.6,243.9,249,241.9,249.7z M348.4,191.3c3.3-7,7.5-9.4,15.4-8.9
			c7.2,0.4,9.7,2,11.7,8.8c3.2,10.5,2.1,20.5-5.9,28.7c-3.8,3.9-8.6,6.6-14.4,4.6s-8.8-6.8-9.9-12.8c-0.2-1.3-0.3-2.6-0.4-4
			C344.8,202,346,196.4,348.4,191.3z M352.4,316.3c-5.2,5.8-14.1,6.3-19.9,1.1c-0.3-0.3-0.6-0.6-0.9-0.9
			C338.5,319.6,345.5,320.2,352.4,316.3z"/>
		<path fill="#620013" d="M410,269.9c3.6-6.5,6.2-13.3,9.2-20c1-2.2,0-3.4-1.3-4.7c-8.7-8.8-19-8-28.2,3.1c10-5.8,15-5.2,19.6,1.5
			c2.5,3.6,3.4,8.1,2.4,12.4C411.1,264.7,410.6,267.3,410,269.9z"/>
		<path fill="#1BBACB" d="M248,220.2c4.9-2.3,10-4.1,15.2-5.3c12.3-3.1,24.4-6.5,36.8-9.2c17-3.7,30.5-13.7,37.5-28.8
			c6.5-14,19.5-21.1,27.8-32.8c0.3-0.4,0.7-0.7,1.2-0.9c6.4-0.6,4.9-5,4.6-9.1c-0.2-3.8-2-4-5-2.8c-4.1,1.8-8.3,3.4-12.5,5.2
			c-39.9,16.6-76,39.8-111,64.9c-11.9,8.3-20.9,20-26,33.5c-6.7,18.1-8.2,36.7,3.8,53c7.8,10.6,15.5,21,22,32.5
			c5.8,10.2,8.7,20,4.5,32.1c7.8-6.1,9.6-10.9,6.6-18.8c-3.5-9.3-7.1-18.6-12.2-27.3c-7.4-12.5-13-25.8-15-40.4
			C223.5,245.4,231.1,228.6,248,220.2z"/>
		<path fill="#F1FD7C" d="M355.9,222.3c5.1,1.7,9-1.1,12.5-4.4c7.7-7.3,8.8-23,2.3-31.3c-0.6-1-1.5-1.8-2.5-2.3
			c-6.9-2.4-14.4,0.8-17.6,7.3c-2.3,4.8-3.5,10-3.6,15.3c0.1,1.2,0.2,2.9,0.5,4.5C348.4,216.6,350.9,220.6,355.9,222.3z"/>
		<path fill="#155A7A" d="M371,144.5c-2.3-1-4.2,1.1-5.8,2.8c-0.4,0.5-0.9,1-1.2,1.6c-2.5,4-6,7.3-10.1,9.6
			c5.9,0.6,10.6,1.1,15.3,1.5c1.1,0.1,3.1-0.1,2.4-1.4c-1.9-3.2,0.7-5.9,0.3-8.8C371.6,148,372.9,145.3,371,144.5z"/>
		<path fill="#0DE1E3" d="M394.5,137.4c1.6,4.4,4.2,8.2,6.4,12.4c7.7,14.9,18.1,28.3,24.8,43.8c3.6,8.4,9.4,15.3,17.1,21.5
			c-3.5-17.3-10.3-31.9-19.5-45.9c-9.7-14.9-20.9-28.8-29.7-44.2c-1-1.7-2.5-3.1-4.4-4c-1.8-0.9-3-0.7-4,1.2c-2.7,5-5,10.2-5.7,16.6
			l4.7-4C389.4,130.4,392.1,131,394.5,137.4z"/>
		<path fill="#00D7DA" d="M374.3,160.1c1.6-3.8,3-7.8,5.2-11.2c1.6-2.5,2.9-6.1,6.3-5.6c3.2,0.5,3.1,4.3,4.1,6.9
			c4.3,11.5,7.4,23.5,13.4,34.3c10.9,19.8,19.6,40.7,26.1,62.4c8.4,27.8,4.1,53.1-18.7,73.4c-0.4,0.4-1.2,0.7-0.1,2.2
			c25.2-12.1,28.9-35,30.3-59.3c2.2,10.7-0.6,21.3,0,32c3.6-2.2,4.6-5.4,5-9c3.1-22-1.6-44.4-13.3-63.2c-3-5-4.7-10.5-6.9-15.8
			c-0.4-1-1.3-2.2,0.8-3.2c2.3,4.7,3.7,9.8,7,14s6.9,8.2,12.2,10.6c-0.3-6.1-2.5-10.6-7.2-14.4c-5.7-4.4-10.3-10.1-13.3-16.7
			c-9.4-21.2-24.3-39.4-33.4-60.7c-1-2.4-2.4-3.4-5-1.5C378.5,141.5,373.5,149.3,374.3,160.1z"/>
		<path fill="#FAE615" d="M405.3,282.2c1.6-7.1,3.1-14.3,4.4-21.4c1.2-6.7-2.4-12.3-10.1-14.7c6.6,18.6-1.7,32.8-12,46.5
			C396.2,293.4,403.8,288.9,405.3,282.2z"/>
		<path fill="#301C1F" d="M344.6,565.3c14.5-30.7,19.3-62.9,16.8-96.9c-7.6,2.9-14.7,1.7-21.8-2.4c0,4.4,1.5,7.9,2.6,11.5
			c6.5,22.2,6.4,43.3-9.7,62c-1,0.9-1.1,2.4-0.3,3.5C336.4,550.4,340.5,557.8,344.6,565.3z"/>
		<path fill="#301C1F" d="M345.9,437.9c-4.8,1.6-9.9,2.4-15,2.3c2,4.6,4.8,8.8,8.3,12.5l-8.5,2c5.4,0.9,9.8,1.5,8.6,7.5
			c-0.1,0.5,0.9,1.3,1.6,1.8c5.3,4,12.2,5.1,18.4,2.9c1.6-0.5,2.6-1.3,2.5-3.2c-0.8-11-1.2-22-3.2-33.4
			C354.4,433.6,350.4,436.3,345.9,437.9z"/>
		<path fill="#F3FD47" d="M362.3,429c1.1,1,1.3,3.7,3.4,2.9c1.7-0.6,2.3-2.8,2.8-4.5c0.1-0.8,0-1.6-0.2-2.4
			c-0.1-5.3-1.9-10.3-3.3-15.4c-0.2-0.9-0.7-1.7-1.7-1.2c-3,1.4-6.2,4.9-5.7,6.9C358.8,419.9,358.2,425.4,362.3,429z"/>
		<path fill="#044563" d="M333.8,463.3c0.8,0.1,2.2,1.5,2.6-0.6c0.2-1.5,1.6-3.7-0.7-4.3c-6.7-1.6-12.7-5.6-20.4-6.1
			C319.7,458.2,326.4,462.1,333.8,463.3z"/>
		<path fill="#FAF1C9" d="M374.8,391.5c-3.1-3.5-6.2-6.9-9.2-10.5c-1.6-2-2.9-1.3-4.5-0.1c-4.4,3.3-8.9,6.4-12.8,10.2
			c-5,4.9-10.9,6.1-17.5,3.8c-2-0.7-4-1.5-6-2.4c-2.1-1-2.7-0.2-2.6,1.8c0.4,3.8,0.6,7.6,0.7,11.4c-0.2,4.1,1.8,6.1,5.4,7.2
			c3.3,1,7,1.5,9.9,3.3c3.8,2.4,5.1,1.5,6.6-2.3c1.7-4.4,4-8.3,9.9-4.7c1.9,1.2,8.1-3.4,8.4-5.7c0.8-5.7,2.4-7,7.9-5.2
			c3.5,1.1,4.5-0.3,4.9-3.3l0,0C376.1,393.8,375.7,392.4,374.8,391.5z"/>
		<path fill="#F3FD47" d="M312.2,387.4c0.3,4.7,0.5,9.4,0.9,14c1.1,15.5,3.1,30.8,10.2,45c3.2,6.2,3.3,6.4,11,4.8l0,0
			c-2.4-6.1-6.8-10.5-8.6-16.6c-3.8-12.5-5.2-25.3-5.7-38.2C319.8,389.3,319.6,389,312.2,387.4z"/>
		<path fill="#0B2A51" d="M296.6,466.8c4,3.8,6.6,8.7,9.9,13.2c0.6-0.4,0.8-0.5,0.8-0.6c0.1-6.4-4-11.3-6.4-16.8
			c-0.8-1.8-3.4,0.7-5,1.6C294.1,465.3,295.9,466.1,296.6,466.8z"/>
		<path fill="#301C1F" d="M295.9,431.3c3.2,16.6,6.9,33,16.5,47.4C306.4,463,300.6,447.3,295.9,431.3z"/>
		<path fill="#301C1F" d="M309.9,482.2c0.1,4.9-2.4,9.8-0.1,14.8C309.2,492,311.7,487.2,309.9,482.2z"/>
		<path fill="#92D9CC" d="M320.1,602.3c-6.5-6-14.3-10.4-22.7-13.1c-3-1-5.3-0.2-6.5,2.7c-1.1,2.7-0.6,4.5,2.9,4.4
			c0.4,0,1,0.9,1.1,1.4c0.3,1.1-0.6,1.2-1.4,1.5c-4.6,1.7-5.3,5.1-3.7,9.2c1.9,4.6,3.2,9.5,3.8,14.4c0.3,2.7,1.4,3.5,3.5,2.9l0,0
			c7.6-0.8,15-0.9,21.4-5.2C329.3,613.5,329.5,610.9,320.1,602.3z"/>
		<path fill="#F3FD47" d="M370.2,400.4c-1.3-0.6-3-1.1-4.2,0.2c-1.3,1.4-1.5,3.5-0.5,5.2c1.6,2.6,2.1,5.5,3.1,8.4
			c0.5,1.3,0,3.6,1.9,3.5c1.5,0,2.2-1.9,2.6-3.3c1-3.1,2.5-4.2,5.3-1.8c3.2,2.8,4.6,1.1,5.3-2.2c1.2-5.5-2.5-9-5.7-14.3
			C376.7,401.1,374,401.9,370.2,400.4z"/>
		<path fill="#F3FD47" d="M349.9,421.4c-0.9,2.1-1.9,4.2-3,6.2c-1.3,1.9-3,3.8-4.2-0.2c-0.5-1.7-2.2-2.6-3.9-2.1h-0.1
			c-4.3,1.2-8.5,0.7-13.6-0.8c1,3.5,2,6,2.5,8.6c0.8,4.2,3.4,5.1,7.2,4.8c6.8-0.6,13.4-2.9,19-6.7c3.8-2.5,4.6-5.3,2.6-9.1
			c-0.6-1.2-0.3-3.2-2.5-3.1C352.2,418.9,350.6,419.9,349.9,421.4z"/>
		<path fill="#149EA4" d="M303.8,565.4c2.3-2.5,2.2-4.7,0-7.3c-5.1-5.9-11.7-10.5-19.1-13.2c-5-2-8-0.8-10.3,3.9
			c-5.9,11.8-12.4,23.3-17.7,35.3c-4,8.9-6.9,18.4-7.6,27.2l0,0c-0.2,7.4,1.8,12.8,7.1,16.7c1.3,1.1,2.9,1.6,4.6,1.3
			c8.9-1,17.9-1.9,26.8-2.6c3.2-0.3,4.8-1.1,3.8-4.9c-1-4-1.8-8.1-3.4-12c-1.5-3.4-0.4-6.5,0.4-10c1-4.7,1.7-9.4,2.9-14.2
			c0.8-3.4,1.1-6.8,3.3-9.6C297.5,572.4,300.6,568.9,303.8,565.4z"/>
		<path fill="#F3FD47" d="M351.8,410.5c-1.8-0.8-2.9,0.2-3.6,1.6c-1.1,2.2-2.3,4.4-3.3,6.7c-0.9,2.3-2.5,2.8-4.2,1.4
			c-4.2-3.4-9.6-3.5-14.3-5.6c-2.1-0.9-2.5-0.3-2.5,1.8c0,5.5,4.4,8.5,11.4,7.3c3.8-0.7,7.2-1.2,9.8,2.6l0,0
			c2.7-3.3,2.4-8.4,7.2-9.4c1.3-0.3,2.7-0.3,2.5-2.3C354.8,412.8,353.6,411.1,351.8,410.5z"/>
		<path fill="#149EA4" d="M309.2,557.2c5.2-5.4,10.8-10.4,16.9-14.8c7.7-5.7,13.1-13.9,15.5-23.1c1.2-5,2-10.1,2.3-15.3
			c0.9-11.8-2.9-22.6-6-33.7c-0.8-3-1.8-4.5-5-5c-8.6-1.4-15.4-6-20.6-12.9c-3.5-4.6-6.9-9.3-10.8-14.6c-0.7,1.8-0.1,2.9,0.2,4
			c3.4,11.3,7.5,22.4,12.4,33.1c0.5,1.2,1.7,3.1,1.3,3.6c-2.9,3.4-1.2,6.1,0.7,9c0.4,0.6,0.6,1.3-0.1,1.7c-0.4,0.2-0.8,0.1-1.2-0.1
			c-3-3-2.3,0.7-2.4,1.5c-0.4,3,0.3,6.3-0.8,8.9c-6.5,14-14.5,26.9-26.5,37c-1.6,1.3-3.6,2.5-4.3,4.9c9.8,2.6,18.2,7.3,24.5,15.3
			C306.6,558.4,307.5,559,309.2,557.2z"/>
		<path fill="#F3FD47" d="M379.7,415.7c-3.8-2.6-4.6-0.4-6,2.2c-1.1,1.9-3.9,3.2-2.5,5.9c1.5,2.7,4.4,2.3,6.7,2
			c13.8-1.3,13.2-2.6,8.2-14.7l0,0C384.7,414.7,382.8,417.8,379.7,415.7z"/>
		<path fill="#92D9CC" d="M384.5,627.2c0.3-5.2,3.8-10.6,2.7-14.9c-1.4-5.2-1.5-10.7-0.4-16c0.3-1.4,0-2.6-1.6-3.2
			c-1.4-0.5-2.5-1.2-4.1,0c-11.5,9.2-25.7,14.5-40.4,15.1c-2.5,0.1-4.3,2-5.4,4c-1.2,2.2,1.5,2.9,2.5,4.3c1.8,2.5,4.7,3.6,7.5,4.7
			c11.4,4.1,23.3,5.5,35.1,6.8l0,0C381.9,627.7,384.5,628.6,384.5,627.2z"/>
		<path fill="#F8F0C9" d="M262.3,271.5c-2.8-7.1-2.4-14.1-2.3-21.3C255.7,255.7,256.8,267.2,262.3,271.5z"/>
		<path fill="#381445" d="M232.7,374.8c0.2-3,1.1-5.8,2.6-8.4c6.2-11.4,2.2-21.8-2.9-32.1c-0.2,9.7-3.4,19-4.3,28.7
			c1.6-0.5,2.5-1.8,4.9-1C229.4,366.2,228.9,370.3,232.7,374.8z"/>
		<path fill="#07234C" d="M172,619.6c3.7,14.5,8.3,28.8,19.2,39.5c21.5,20.9,42.3,19.7,69.6,11.2c2.5-0.8,2.2-2.6,1.9-4.4
			c-0.9-6.2-4-11.8-8.8-15.8c-1.3-0.9-2.4-2.3-2.9-3.8c-2.5-7.1-3.2-14.8-8.6-21c-2.8-3.2-3.2-7.9-3.5-12.3
			c-0.4-6.5,1.4-12.5,3.5-18.5c2.9-8.6,6.5-17,8.3-26.1c-0.9-0.1-1.5-0.2-2.2-0.2s-1.3,0-2-0.1c-14.9-1.7-27-8.1-35.5-20.6
			c-0.7-1.1-3.1-2.8-0.5-4c11-5.2,22.2-9,34.7-6.9c7.8,1.4,15.7,2.8,25.1,4.5c-8.7-7.9-13.8-16.7-17.5-26.5s-5.4-19.8-7-30.8
			c-12.7,9.1-26,15.8-39.5,22.3c-16.5,8.1-25.6,21.7-30.4,38.8c-3.4,12.1-3.6,24.7-4.8,37.1C170,594.4,168.9,607,172,619.6z"/>
		<path fill="#1EACB6" d="M211.5,336.9c6.1-1.8,9.4-5.7,12.5-10c2.1-2.9,2.6-5.5,1.1-9.1c-3.1-7-6.1-14-10.6-20.3
			c-2.9-4.3-4.9-9.1-5.7-14.2c-1.5-7.5,0.7-14.8,0.9-22.1c0.6-29.2,14.8-50,38-65.9c5.3-3.7,10.9-7.1,16.2-10.9
			c27.6-19.5,57.3-36,88.4-49.3c4.8-2.1,9.7-4.1,15-6.4c-4.6-3.2-10.3-4.3-15.8-3.1c-8.2,1.6-15.9,5.1-22.6,10.2
			c-8.8,6.5-18.3,12.2-28.3,16.9c-20,9.5-40,19-58.6,31.2c-1.2,0.8-2.4,2.5-4.5,1.2c0.2-0.4,0.3-1,0.6-1.2
			c11.3-9,22.9-17.8,33.9-27.2c16.7-14.2,35.8-24.9,53.9-37.1c3.8-2.4,7.9-4.3,12.2-5.7c9.8-3.6,19.4-4.9,28.8,1.8l0,0
			c-2.1-10.9-9-18-17.3-24.1c-5.8-4.3-11.9-4.5-18.2-0.8c-5.1,3-10,6.4-14.4,10.3c-6.1,5.2-12.9,9.5-20.2,12.7c-2.4,1.1-0.8,4.4-3,4
			c-5.2-0.9-8.4,2.7-12,5c-18.6,12.3-35,27.4-52,41.6c-12.4,10.4-18.1,25.2-23.5,40c-5.9,16.3-8.8,33.4-13.3,50.1
			c-3.7,13.6-0.3,24.6,9.3,34.2c2.7,2.7,5.6,5.2,8.2,8c6.7,7.2,9.3,15.5,7,25.3C216.1,327,213.9,331.6,211.5,336.9z"/>
		<path fill="#381445" d="M225.1,352.7c1.6,0.2,2.3-1,2.6-2.4c1.3-6.2,2.6-12.3,2.3-18.7c-0.1-2.2-0.2-4.3-2.4-6.1l0,0
			c-2.2,3.2-4.3,6.4-7.1,8.8c-1.2,1-0.9,2-0.2,3.1c2.2,3.7,3.2,8.1,2.8,12.4C222.9,351.5,223.5,352.5,225.1,352.7z"/>
		<path fill="#155A7A" d="M465.3,174.7c-1.9-2.8-4.5-4-8.7-4.1c7.9,6.2,9,15.2,9.2,24c0.2,8.2,2.9,15.6,5.4,23.1
			c0.8,2.8,2.4,5.3,4.7,7.1l0,0c-1.4-8.2-2.5-15.5-2-23.1C474.4,191.7,470.9,182.8,465.3,174.7z"/>
		<path fill="#444975" d="M500.5,208.5L500.5,208.5c0.2-0.8,0.3-1,0.3-1.1c-0.3-1-0.5-1.9-0.8-2.9c-6-20.5-19.3-35.1-37.8-45
			c-6.7-3.6-14-5.4-21.4-0.8c-2,1.2-3.1,2.8-1.2,4.6c1.8,1.7,0.7,6.8,5.7,4.9c7.2-2.8,13.8-0.8,19.9,3.1c5.8,3.6,10.2,8.6,14,14.1
			c11,16,16,33.9,16.8,53.1c0.9,21.8-3.7,42.7-11.3,63c-0.5,1.3-1.7,3.7-1,3.8c4,0.8,1.2,2.6,0.7,3.8c-0.9,2.7-2.2,5.2-3.2,7.8
			c-7.9,21.7-20.4,41.4-36.8,57.6c-9.1,9-18.2,18.1-27.2,27.2c-1,1-1.8,2.1-2.6,3.1c17.5-12.1,34.4-24.8,47.9-41.4
			c10.1-12.4,18.4-25.7,23.3-41c5.2-16.3,8.9-33.1,11.1-50.1c3.1-25.3,3.9-50.5-5.5-74.9c-0.8-1.4-0.6-3.1,0.5-4.3
			C494.7,198.3,497.4,203.1,500.5,208.5z"/>
		<path fill="#155A7A" d="M228.4,162.2L228.4,162.2c3.9-1.7,4.6-4.5,1.8-7.4c-1.7-1.8-3.2-3.8-4.8-5.7c-0.8-1.2-2.1-2-3.6-1.9
			c-1.8,0.2-2,1.6-1.5,3.2c1.3,4.1,3.4,7.9,6.2,11.2C226.8,162.3,227.7,162.6,228.4,162.2z"/>
		<path fill="#0E6E8B" d="M157.5,620.5c-0.7-33.4,10.9-63.7,22.7-94C155.5,553.7,152.1,586,157.5,620.5z"/>
		<path fill="#0E6E8B" d="M442.6,659.7c27.9-3,55.9-1.5,83.9-0.6c15.1,0.5,29.9,3,43.5,10c9.3,4.8,19.7,6.9,28.8,12
			c-7.3-8.5-16.5-14.2-26.9-18c-22.4-8-45.8-11.4-69.3-14c-17.7-2-35.5-2.3-53.3-3.8c-4.5-0.4-6.2,0.5-5.3,5.1
			c0.2,1.3,0.8,3.2-0.7,4.1c-1.8,1.1-2-1.8-4.5-1.9l0,0C440.5,655.1,435.7,660.4,442.6,659.7z"/>
		<path fill="#0E6E8B" d="M547.4,790.1c-7.1,6.5-15.2,11-24.7,14.5C533.6,804.2,545.6,797,547.4,790.1z"/>
		<path fill="#F9303E" d="M400.6,531.6c6.2,14,4.4,29.1,6.4,43.6c1.7,12.1,0.7,24.5,3.8,36.4c0.3,1.1,0.1,2.4-0.6,3.3
			c-1.4,1.9-1.4,4-1.1,6.2c0.2,1.8-0.2,3.7-1.2,5.2c-3.6,6.1-0.9,20.6,4.8,25.1c1.9,1.4,4.1,2.3,6.5,2.4c1.1,0.1,2.6,0.3,2.8-1.3
			c0.5-3.8,3.2-2.9,5.7-2.8c4.9,0.2,9.6-2.8,10.9-6.9c1.4-4.3-2.8-5.5-4.7-7.9c-0.1-0.1-0.2-0.2-0.4-0.3c-10-8-14.2-18.5-13.5-31.2
			c0.2-4,0.1-8-0.3-12c-3-27.2-8.1-54-13.6-80.7c-2.8-13.4-5.6-26.9-8.4-40.3l0,0l-0.8,0.1c0.6,15.1,1.2,30.2,2,45.3
			C398.9,521.1,398.4,526.6,400.6,531.6z"/>
		<path fill="#32222C" d="M325.9,686.9c-0.9-3.3-2.3-2.6-4.5-1.4c-10.7,5.8-21.9,9.7-34.4,8.3c-3.8-0.4-2.7,1.4-2.1,3.4
			c5.6,18.3,12.4,36.1,20.3,53.5c0.5,1.2,0.8,2.7,2.3,3.1c4.7,1.1,9,3.4,13.8,4c8.4,1,14.4-4.7,13.4-13c-0.5-4.1-0.7-8.2-0.6-12.3
			C334,717,330,702,325.9,686.9z"/>
		<path fill="#FAF1C9" d="M338.2,666.3c-1.9-10.3-4.7-20.4-7.3-30.6c-1-3.9-2.4-4.4-5.7-2.1c-12.8,9-27.2,12.7-42.7,13.8
			c-8.7,0.6-17.3,0.4-27.2,0.8l0,0c6.7,6.2,9.2,13.1,10,20.8c0.6,6.6,4.9,11.8,7.1,17.7c0.5,1.2,1.7,1.6,2.8,2
			c6.8,2.4,13.8,3.9,21.1,3c15.6-2,28.6-9.3,40.2-19.7C338.4,670.4,338.7,668.7,338.2,666.3z"/>
		<path fill="#B50132" d="M335,630.1c10.4,4.2,19.7,11.5,31.4,12.2c9.8,0.5,19.7,4.6,29.5,0.1c4.1,3.3,3.7-1.4,4.5-2.9
			c0.9-2,1.3-4.1,1.4-6.3c0.5-5.1-0.6-6.4-5.4-5c-8.4,2.3-16.8,2.2-25.2,0.8c-13.6-2.3-28-2.8-38.4-14.1c-0.3-0.3-0.9-0.3-1.4-0.5
			l0,0c-2.7,5.4,3.7,9.3,2.1,14.5C333.5,629.1,334.4,629.8,335,630.1z"/>
		<path fill="#FAF1C9" d="M436.5,661.9c0.6-4.2,0.7-8.5,0.3-12.8c-3.5,2.3-7,2.8-11.1,3.1L436.5,661.9z"/>
		<path fill="#155A7A" d="M475.7,233.4c0.4-1-0.2-2.2-1.2-2.5c-0.1,0-0.2-0.1-0.3-0.1c-11.9-3.5-14.5-13.1-15.4-23.8
			c-0.1-1.5-0.7-2.9-1.6-4.1c-3.3-4.4-6.8-8.6-10.4-13c5.2,22.5,7.9,45.6,24.5,62.6l0,0c-1-3.6,0.2-7.9,2.5-11.9
			C475.1,238.4,475.3,235.9,475.7,233.4z"/>
		<path fill="#301C1F" d="M246.2,627.2c2,2.8,4.2,4.1,8.2,2.3c-7.6-6.6-8.5-14.9-6.6-23.9c0.5-2.6,1.3-5.1,1.9-7.7
			c3-13.7,11-25.2,16.7-37.7c4.7-10.4,10.6-19.4,19.2-26.9c9.9-8.6,17.6-19.5,22.4-31.7c-4.5,2.3-6.5,5.5-8.2,8.8
			c-6.5,13.1-18.1,21.8-27.4,32.6c-6.4,7.4-13.9,14.4-17.6,23.3c-5.3,12.8-10.1,26-13.1,39.7C239.9,613.3,241.6,621.1,246.2,627.2z"
			/>
		<path fill="#149EA4" d="M295.6,417c0.6,10.9,6.9,19,13.3,27.2c3.6,4.7,8.1,6.2,14.3,7c-1.3-2.9-2.3-5-3.3-7.1
			c-7.8-16.9-8.4-35-9.8-53.1c-0.5-6.3-1.9-6.9-8-8.7c-5.3-1.6-4.9,1.2-5,4.3c-0.2,8.9,1.8,17.9-2,26.6
			C294.7,414.1,295.5,415.6,295.6,417z"/>
		<path fill="#F9303E" d="M255.9,540.4c-13.6-3.1-27-3.6-39.9,2.9c-2.7,1.4-3.9,2.4-1.5,5.3c8.9,11,20.6,16.5,34.5,17.3
			c1.1,0.1,2.5,0.5,3.2-0.8c4.3-7.9,11.9-13.4,15.8-21.9C264.1,541.5,259.9,541.3,255.9,540.4z"/>
		<path fill="#155A7A" d="M445.4,174.2c3.1,5.7,6.2,11.4,9.3,17c3.7,6.7,6.8,13.4,7,21.4c0.1,7.2,6,14.2,11.4,15l0,0
			c-7.5-19.6-14.5-39.8-28.3-57.1C444,172.4,444.9,173.3,445.4,174.2z"/>
		<path fill="#870908" d="M304.9,270.2c1.1-6.5,1.3-13.2,0.6-19.8c-0.1-1.5-0.9-2.9-2.1-3.8c-3.4-2.4-6.5-5.2-10.1-7.3
			c-8.7-5.1-19.7-4.2-27.6,2.2c-1.3,1.1-2.6,2.1-2.9,3.9c-1,7.3-1.4,14.7,0.9,23.3c2-4.8,4.1-8.1,8.1-8.9c3.4-0.7,4.1-2.3,4.4-5.6
			c0.4-4.1,1.1-8.9,6.5-10c4.5-1,8.3,1.8,10.9,7.6c0.9,1.8,1.4,3.7,1.4,5.8c-0.2,1.5,0.5,3,1.9,3.7
			C300,263.2,302.5,265.9,304.9,270.2L304.9,270.2z"/>
		<path fill="#96002F" d="M284.8,267.8c4-0.2,8-5.5,8-10.5c0-4.4-4.9-10.9-8.4-11.1c-3.5-0.2-6.4,4.6-6.3,10.3
			C278.1,262.4,281.5,268,284.8,267.8z"/>
		<path fill="#FAE615" d="M301.8,278.9c2.5-5.4,0.9-10.2-4.1-14.4c-2-1.7-3.2-2.3-5.2,0.5c-5.3,7.3-11.1,6.6-15-1.5
			c-1.2-2.4-2.3-2.8-4.6-2c-6.6,2.1-9.1,10.5-4.7,15.7c2.1,2.4,4.7,3.4,7.8,3.9c6.5,0.9,13-1.3,18.7,0.7l0,0
			C298.1,282.1,300.6,281.5,301.8,278.9z"/>
		<path fill="#B50732" d="M278.9,362.6c6.1,6.9,13.7,11.7,21.8,15.7c9.8,4.8,19.6,9.8,29.5,14.2c6.2,2.8,11.9,1.4,17-3.4
			c3.9-3.6,8.3-6.6,12.4-10s8.8-6.7,12.5-10.6c2.2-2.2,5.2-6.6,2.5-8.6c-3.2-2.3-3.8-3.8-2.6-7.1c0.7-2-0.8-3.7-2.2-4.7
			c-1.7-1.3-2.5,0.9-3.3,1.8c-5.4,5.4-11.3,10.4-17.5,14.8c-4.1,2.9-8.4,5.7-12.9,8.7c8.7,3,16.4,0.5,24.2-1.9
			c-6.5,5-13.8,6.1-21.5,4.9c-4.4-0.7-8.8-1.9-13.2-2.3c-17.4-1.4-32.8-8-47.3-17.2c-1.7-1.1-3.5-3.8-5.4-2.6
			c-2.2,1.3-0.7,4.3-0.9,7.2C274.8,360.7,277.2,360.6,278.9,362.6z"/>
		<path fill="#1BBACB" d="M396.5,112.1c-3.8-0.4-6,2.4-7.4,5c-1.2,2.1,2.2,2.1,3.4,3.2c1.8,1.7,3.3,3.7,4.4,6
			c1.5,3.2,3.3,6.2,5.5,8.9c10.1,12.6,18.2,26.7,27.3,40c4.3,6.5,7.8,13.6,10.3,21c4.2,12.1,6.8,24.5,9.9,36.9
			c2.2,8.9,10.9,24.6,16.9,29c-9.1-18.1-14.4-37.3-18.5-56.8c-1.6-7.3-3.9-14.5-6.7-21.4c-3.2-7.8-8.7-14.1-12.5-21.5
			c-0.6-1.2-2.3-2.5-0.4-4.7c7.1,11.9,14.1,23.3,23.3,33.4c-2.2-4.2-4.5-8.4-6.7-12.6c-10.5-20.6-21.9-40.7-36.2-59
			C405.6,115.3,401.8,112.7,396.5,112.1z"/>
		<path fill="#155A7A" d="M447.7,169.6c5.3,8.9,10.3,17.4,16.1,27C463.1,179.2,458.8,172.1,447.7,169.6z"/>
		<path fill="#F9303E" d="M292.4,467.6c-2,0.8-1.5,3.6-1.3,5.5c1.1,13.2,2.2,26.5,3.5,40.8l0,0c4-5.4,6.2-11,11.4-14.2
			c0.6-0.4,0.9-1,0.9-1.6c-1.2-5.6,1.2-11.7-2.5-16.9c-2.4-3.4-4.6-7-7.1-10.2C296.1,469.3,294.8,466.6,292.4,467.6z"/>
		<path fill="#044563" d="M425.7,326.7c6.9-8.9,13.4-17.7,17.6-29.5c-6.3,5.7-7.1,14-13.5,18c0.6-2.1,1.9-3.8,2.8-5.7
			c0.9-1.9,1.6-3.9,2.3-5.9c-7.2,11.5-16.2,20-30.1,22.2c-2.3,0.3-2.7,2-2.9,4c-0.7,5.4-1.2,10.8-3.3,16
			C407.8,339.5,418.5,335.9,425.7,326.7z"/>
		<path fill="#149EA4" d="M387.2,591.6c2.1,0.8,2,3.3,1.7,5.3s-1.3,4.1-0.9,5.9c1.9,7.5,0.8,14.8-0.9,22.1c-0.6,2.5,0.6,3,3.1,2.4
			c3.7-0.9,7.7-2.9,11.2-1.2c4,1.9,5.5-0.8,5.3-3c-0.7-5.5,1.2-10.6,0.7-16.2c-0.9-10.2-2.5-20.5-2.3-30.8
			c0.1-5.9-0.7-11.8-2.3-17.4l0,0c-4.1,5-7.8,9.7-11.6,14.3c-0.9,1-1.3,2.3-1.1,3.7c0.6,3.6-0.7,6.4-3.3,8.9
			C384.5,587.6,382.5,589.8,387.2,591.6z"/>
		<path fill="#044563" d="M401.6,353.5c7.4,5.7,7.2,10.3,0,16.2c-0.1,0.1,0.1,0.6,0.1,0.9c5.4-0.1,9.8-5.7,10.2-12.9
			c0.3-6.1,1.2-12.2,2.7-18.1c-5.1,2-8.9,4.6-12.7,7.1C398.5,349,397.7,350.5,401.6,353.5z"/>
		<path fill="#044563" d="M370.8,336.9c-0.2,3.2-1.2,7.2,1.3,10.4c1.9,2.3,3.1,4.7,1.8,7.7c-0.7,1.6,0.1,2.1,1.4,2.4
			c2,0.4,1.8-1,1.5-2.1c-1.9-7.5-1-15.5,2.4-22.4C375.7,334.1,371,333.9,370.8,336.9z"/>
		<path fill="#03E0E5" d="M243.2,144.9c2.4,1.6,4,1.9,6.5-0.2c11.8-10,23.6-20,37.7-28.2c-28.9-11.7-40.5-35.9-48.3-64
			c-3.9,7.7-7,14.8-7.6,22.3c-1.2,14.6-1.9,29.2-2.1,43.9C229.1,129.8,233.9,138.6,243.2,144.9z"/>
		<path fill="#54C0CE" d="M130.6,598.4L130.6,598.4L130.6,598.4L130.6,598.4c2.3-3.6,1.8-8,2.9-11.9c6.9-26,21.7-47,41-65
			c19.8-18.5,42.6-33,65.9-46.8c1.5-0.9,3.4-1.5,4.6-3.3c-3.4-3.2-6-7.1-7.6-11.5c-1.1-3.4-2.5-2.9-5.1-1.6
			c-12.9,7-25.9,13.7-38.8,20.6c-12.6,6.8-23.7,15.5-32.3,27C140.7,533.3,129.6,563.9,130.6,598.4c-0.7,14.9-1.6,29.7,1.4,44.3
			c3.3,16,13.5,27.2,25.9,36.8c-8.1-10.3-14.9-21.7-20.1-33.7C131.5,630.6,130.6,614.6,130.6,598.4z"/>
		<path fill="#0E6E8B" d="M140,525.9c-9.1,19.5-17.1,39.4-20.6,60.8c-2.9,17.8-3.4,35.6,0.4,53.5c-2.6-48.4,12.3-91.9,37.2-133.4
			C149.9,512.5,143.7,518,140,525.9z"/>
		<path fill="#07234C" d="M181.8,482.8c17.4-10.2,35.9-18.3,52.9-29.4l0,0C214.6,458.8,195.3,465.7,181.8,482.8z"/>
		<path fill="#0E6E8B" d="M176.6,485.2c6.8-9.6,15.8-17.3,26.2-22.6c8.9-4.5,18.2-8.3,27.7-11.2c1.4-0.4,4.4-0.1,3.4-3
			c-0.8-2.6-2.9-0.8-4.2-0.5c-26.2,5.2-45.9,20.2-61.7,41.1c-3.3,4.1-5.9,8.7-7.7,13.6C165.4,496.4,172,491.8,176.6,485.2z"/>
		<path fill="#0B2A51" d="M265.9,712.1l12.8-2.3c-0.2-2.2-1-4.3-2.4-6C273.7,707,270.2,709.1,265.9,712.1z"/>
		<path fill="#FB900D" d="M297.9,777.6c-0.1-6.2,2.9-11.9,7.3-12.3c5.5-0.5,3.9-3,2.4-5.7c-10.7-19.3-17.8-40-24.5-60.9
			c-1.3-4.3-2.8-7.3-8.7-7.3c7.6,17,11.7,34.9,19,51.5c0.5,1.2,1.2,2.4,2,3.4c4.5,5.1,4.4,10.5,1.5,16.2
			c-7.1,13.7-7.4,28.1-4.2,42.8c2.3,10.7,5.3,21.3,8,31.9c0.8,3.3,1.7,6.7,2.5,10c0-7.6-0.7-15.3-1.9-22.8
			C298.8,808.9,298.1,793.3,297.9,777.6z"/>
		<path fill="#0E6E8B" d="M274.9,698.2c-3.6-7.8-7.1-15.7-10.6-23.6c-1-2.3-2.2-2.6-4.6-1.9c-5.1,1.5-10.3,2.8-15.5,3.8
			c-29,5.6-53.3-6.7-66.2-33.3c-8.3-16.7-11.6-35.3-9.7-53.8c1-9.7,1.7-19.3,2.5-29c-6.5,16.6-9.6,33.8-10.8,51.5
			c-1.2,17,4,32.8,8.7,48.4c3.9,12.8,13.1,23.1,23.9,31.5c-5.7-8-10.5-16.5-15.7-24.8c-0.7-1.1-2.7-2.5-0.7-3.8s2.4,1,3,2.2
			c6.3,11.8,15,21.5,24.6,30.6c12.4,11.7,27.3,16.5,45.2,16.4c-18.5-4.5-35.5-13.6-49.4-26.5c2.6-0.5,3.7,1.3,5.2,2.5
			c13.9,10.4,28.6,18.9,46,21.9c8.7,1.5,16.5-0.3,22.9-7C275.2,701.9,276,700.5,274.9,698.2z"/>
		<path fill="#54C0CE" d="M179.7,682.6c-8.1-10.2-13.4-21.4-17.3-34.1c-6.1-19.5-10.2-38.9-9.3-59.3c1.4-30.5,13-56.1,37.2-75.5
			c2.7-2.2,5-4.9,8.2-6.5c13.6-6.6,27.3-13.1,40-21.4c4-2.6,7.7-5.9,13.1-5c1.5,0.2,2.8-1,4.3-2.4c-1.5-0.8-2.9-1.1-3.8-2
			c-3.6-3.6-6.9-2.3-10.6,0.1c-8.5,5.5-17.4,10.6-25.8,16.1c-18.6,12.2-36.4,25.3-51.1,42.2c-17.4,20-30.1,42.4-31.3,69.7
			c-1.4,33.4,12.6,60.5,36.2,82.9c7.3,6.9,17.3,9.4,27.1,11.6C190.4,694,184.5,688.8,179.7,682.6z"/>
		<path fill="#F9303E" d="M250.6,473.1c8.9,6.2,16.5,3.8,20-6.5c0.6-1.9,1.1-4,2.4-5.5c10.2-12.1,9.3-27.9,15-42.2
			c-8.1,3.3-15.4,6.4-23.1,8.5c-2.3,0.6-2.8,1.5-1.9,3.9c1.2,3.3,2.8,6.6,1.5,10.6c-0.5-1-0.9-2-1.3-3c-3-10-6.8-19.8-11.6-29.1
			c-6.2-11.8-10.3-23.7-7.6-37.3c0.9-4.4-1.3-8.4-3.5-12.9c-1.7,4-3,7-4.3,10c-1.4,3.3-1.8,6.5,1.6,8.9c0.9,0.6,1.6,1.4,1,2.4
			c-0.8,1.2-1.7,0.2-2.5-0.2c-4.7-2.7-8-6.4-8.5-12.1c-7.7,4.5-7.7,4.6-5,13.3c1.5,4.8,3.4,9.4,4.3,14.3c3.5,18.5,5.4,37.2,9.9,55.5
			C239.3,460.4,243,467.8,250.6,473.1z"/>
		<path fill="#10617E" d="M311.5,94.5c3.5,3,6.4,3,9.8-0.2c2-1.9,4.7-3.1,7.1-4.6c9.7-5.6,15.9-5.1,24.7,1.7
			c4.8,3.8,8.4,8.5,12.6,12.7c-8-14-17.7-26.6-33.6-32c-18.3-6.2-34.8,1.2-52.5,7.9c1.2,0.6,2.5,1.1,3.8,1.4
			C294.2,82.9,303.4,87.7,311.5,94.5z"/>
		<path fill="#F8F0C9" d="M226.5,358.5c0.4-2.5-0.2-3.8-2.9-3.7c-2.7,0-2.8,2.2-2.5,3.8c0.6,3,1,6.1,1,9.2
			C225.8,365.1,225.9,361.8,226.5,358.5z"/>
		<path fill="#03E0E5" d="M286.6,113.6c1.4,0.5,2.8,1.6,4.3,0.8c8.3-4.4,16.7-8.5,24.2-15.1c-8.6-4.8-15-12.4-24.7-13.9
			C279,83.6,270,77.8,262,69.8c-6.9-6.9-13.9-13.7-21.2-20.9c3,15.7,8.5,29.8,17.6,42.4C265.7,101.4,274.6,109.5,286.6,113.6z"/>
		<path fill="#155A7A" d="M359.3,90.2c0.8,1,1.5,3.4,3.7,1.3c4.9-4.8,11.1-6.5,19.1-6.8c-5.1-2.4-8-6.8-12.7-5.4
			c-7.4,2.3-13.5-0.2-19-4.5c-3.9-3.1-8.3-3.6-13-3.2C346.4,75.9,353.2,82.6,359.3,90.2z"/>
		<path fill="#155A7A" d="M223.5,125.6c-3.8,10.4,0.8,18.2,6.3,25.5c4.5,6,4.8,5.8,10.8,0.9c1.3-1,2.5-2.1,4.3-3.6
			c-16.5-9.3-19.2-24.2-18-40.7c-4.7,14.9,2.2,27.7,7.1,40.9C228.9,141.7,226,134,223.5,125.6z"/>
		<path fill="#381445" d="M218.7,339.4c-0.4-0.9-0.9-2.4-2.5-1.6c-3.2,1.6-7.2,0.9-9.8,4.2c-1.3,1.6-3.2,2.6-5.2,2.7
			c-0.6-3.4,8.1-3.5,2.3-7.9c1.7-2,3.9,1.2,5.9-1c5-5.5,8.1-20.9,4.8-28.4c-2.2,8.7-8,14.2-13.6,19.9c-1.6,1.7-2.9,3.6-3.8,5.8
			c-2.3,5.2-2.5,9.9,2,14.6c6.9,7.2,14,14.2,20,22.3c1.4-2.7,2.2-5.8,0.9-8.2c-1.9-3.6-0.7-7,0.4-9.8
			C221.8,347.1,220.2,343.4,218.7,339.4z"/>
		<path fill="#1BBACB" d="M203.5,321c4.2-3.6,6.6-8.3,8.4-13.4c1-2.3,0.5-5-1.1-6.9c-3-3.8-6.8-6.9-10.2-10.3
			c-8.5-8.6-13.6-18.6-11-31.1c2.5-12.2,5.3-24.4,8.6-36.4c5-18.3,10.5-36.6,22.5-51.8c3.7-4.7,5.9-8,0.9-13
			c-1.6-1.6-2.2-4.4-3.1-6.7c-0.6-1.6-1-4,0.5-4.6c5.3-2.1,2.6-5.4,1.8-8.5c-1.2-4.5-0.9-9.4,0.8-13.8c2.7-7.2,1.3-15,3.3-22.4
			c-17,19-31,39.8-40.7,63.5c2,0.1,2.2-2.4,5.2-1.8c-9.1,11.8-19,21.7-33.4,28c11.6-1.8,20.6-6,23.9-10.5c2,2.9,2.1,3,1.6,3.6
			c-4.9,5.7-5.5,13.4-8.8,19.9c-3.4,6.9-4.8,14.6-5.4,22.2c-0.3,3.6-1.2,8.3,4.5,9.8c0.9,0.2,1.9,3.7-0.5,4.7
			c-0.9,0.3-1.6,0.8-2.2,1.5c-3.8,5.8-6.5,12.4-7.7,19.2c1.8-2.7,3-5.7,4.7-8.4c1.1-1.8,2-5.9,3.8-4.8c2.6,1.6-0.4,4.2-1.6,6.2
			c-8.1,13.5-5.4,27.4,7.2,36.8c2,1.5,4.1,2.9,6,4.5c4.1,3.2,7,7.7,8.2,12.8c1,4.2-0.3,8.3-1.3,12.4c4.7-4.6,6.5-10.8,8.9-16.8
			c2.6,1.9-0.4,3.8,1.2,5.3c0.3-0.4,0.6-0.7,1-1.1c1.1-0.9,1.1-4.1,3.3-2.3c2.1,1.7-0.7,2.7-1.5,3.8c-4.6,6.7-9.6,13.2-13.2,20.6
			c-4.6,9.3-5.6,19.1-2.2,29.1c1.4,4,3.2,7.7,8.2,9.7c-3.3-8.1-1.4-15.9-1.7-23.6C192.1,335.9,195.6,327.7,203.5,321z"/>
		<path fill="#0E6E8B" d="M586.1,707.8c0-8.8-2-15.5-10.8-18.8c-1.8-0.8-3.6-1.8-5.2-2.9c-10-5.3-20-10.5-30-15.8
			c-2.7-1.4-5-4.1-8.6-2.9c1.1,1.6,3.1,1.8,4.7,2.6c9.2,4.7,17.5,10.5,22.6,19.8c10.7,19.4,13.7,40.1,9.8,61.8
			c-2.1,11.7-7.3,21.9-13.9,31.7c0.6-0.4,1.1-0.9,1.6-1.4C575.2,760.9,586,736.6,586.1,707.8z"/>
		<path fill="#0E6E8B" d="M597,705.4c6.8,37.1-3,66.2-39,82.9c-0.8-0.5-0.5-1.2-0.2-1.8c0.2-0.6,0.6-1.2,1-1.6
			c13.5-11.4,22.4-26.2,30-41.8c5.4-11.1,7.9-22.7,6.6-35.2c-0.5-5.4-3.3-7.8-7.4-10.2c-0.2,0.6-0.3,1.1-0.4,1.7
			c2.9,35.5-10.3,64.7-34.9,89.4c-1.7,1.7-3.5,3.3-4,6c14.7-0.8,30-9.8,38.6-22.9c8.5-12.9,14-27.2,18.2-42
			C608.1,721,604,709.8,597,705.4z"/>
		<path fill="#0E6E8B" d="M562,669c-5.9-3.3-12.4-5.3-19.1-5.9c-33.8-3.5-67.9-3.9-101.8-1.1c-1.2,0.1-2.6-0.2-3.1,1.7
			c-0.7,2.9-2,1.9-3.3,0.3c-2.9-3.7-6.4-6.9-10.4-9.4c0.2,2.6,0.4,4.4,0.4,6.2s1,3.8-0.4,4.8c-1.7,1.3-2.9-0.8-4.1-1.8
			s-2.5-0.7-3.8-0.5c-8.1,0.6-16.2,2-24,4.3c-1.4,0.4-2.9,0.5-3.3,2.5c-1,5-2.1,10-3.2,15.2c0.6,0.1,1.3,0.1,1.9,0
			c29.1-8.8,59.1-13,89.2-16.7c21-2.5,42-5.1,63.3-2.6C547.6,666.7,554.8,668,562,669z"/>
		<path fill="#0B2A51" d="M596.5,730.3c-6.2,17.7-15.6,33.7-27.1,48.5C586.9,767.4,595.5,751,596.5,730.3z"/>
		<path fill="#155A7A" d="M366.7,77.5c-4.6-1.7-8.2-3.1-13.4-3.5C357.8,77.2,361.4,78.7,366.7,77.5z"/>
		<path fill="#0B2A51" d="M607.7,715.6c1.2,10.1,1.2,20.2,1.9,30.3C609.2,735.8,611.4,725.5,607.7,715.6z"/>
		<path fill="#0B2A51" d="M0,0v1024h709V0H0z M644.2,748.4c-3.8-23.4-16.3-41.2-34-55.7c3.6,9.7,3.4,20.3,10.1,29.2
			c6.2,8.1,7.8,18.2,7.8,28.5c0.1,5.8-0.2,11.7-1,17.4c-1.5-16.5-3.5-32.6-15.1-47.1c0.2,26.3,0.8,51.6-13.5,74
			c-1.5,2.4-2.8,5.1-5.6,6.7c4.3-10.3,11.6-19.1,12.4-31c0.7-11.2,2-22.4,1.4-34c-1.9,1.5-1.9,3.4-2.5,5.1
			c-2.8,7.8-6.3,15.4-9.9,22.9c-9,18.9-24.1,29.2-44.3,32.7c-3.4,0.5-6.7,1.8-9.5,3.8c-8.8,6.3-18.8,6.8-29.2,5.4
			c0.1-2.2,1.8-2.2,3.1-2.4c25.6-3.9,47.5-25.8,52.3-54.3c3-17.8,0.7-36.2-6.7-52.7c-5.4-12.5-15.2-20-27.1-26
			c-10.9-5.5-22.1-3.8-33.2-2.7c-29.2,2.9-58.3,6.3-86.9,12.7c-7.8,1.8-15.4,4.1-23.2,6c-3,0.7-4.2,2.1-4.8,5.3
			c-4.1,26-8.4,51.9-15.3,77.3c-0.4,2-0.3,4,0.2,5.9c3,14,7.4,27.7,9.3,41.9c2.6,19.2-0.3,38.2-2.4,57.2
			c-4.2,37.4-16.2,72.6-29.9,107.4c-1.8,5-3.2,10.1-4.1,15.3c-2.1,10-8.6,17.6-17.9,22.1c-5.1,2.5-11.3-1.5-11.6-7.3
			c-0.2-4.2-0.4-8.7,3-12.2c0.9-1,0.8-2.1,1-3.2c4.4-25.9,7.4-52.1,8.9-78.4c0.5-7.2,0.9-14.3,1.5-21.4c0.1-1.9,0.2-3.5-1.4-5
			c-15-13.1-22-30.5-26.3-49.4c-2.8-12.2-6.3-24.2-9-36.3c-3.4-15.3-3-30.4,4.4-44.8c2.4-4.7,2.2-8.9-1-13.5
			c-6.2-8.8-8.5-19.5-11.8-29.6c-1.6-5-3.3-6.6-8.9-5.5c-15.5,3.2-31.1,3.3-46.6-0.8c-2.4-0.6-5.1-1.1-7-2.5
			c-6.9-5.1-15.1-5.7-22.9-7.7c-20.5-5.1-37.6-15.7-52-31c-11.5-12.2-16.4-26.8-16.8-43.2c-0.6-17.4,0.2-34.7,1.5-53.2
			c-3.4,9.7-5.6,19.8-6.6,30.1c-1.8,15.6-0.8,31.3-1,47c0,3.7,1.7,7.1,2.6,10.6c0.3,1.1,0.5,3.1-1,2.2c-1.5-0.9-4,2.7-3.7-1.1
			c0.9-10.7-3-20.7-4.1-31.1c-3.1-29.3,1.5-57.4,12.4-84.6c2.7-6.7,5.5-13.3,8.4-19.8c3-7.3,7.9-13.7,14-18.6
			c4-3.1,6.8-7.2,9.4-11.5c16.1-26.7,38.4-45.3,69.5-51.9c2.3-0.5,4.1-1,3.3-4.1c-3.9-14.7-4.7-29.9-7.7-44.8
			c-1.5-7.4-5.1-14-6.1-21.5c-3.5,0.4-3.9,4.9-7.5,5c-0.1-0.5-0.3-1.1-0.1-1.4c6.3-7.9,6.2-8-0.9-15.6c-5-5.3-9.8-10.7-15.1-16.5
			c-2.7,10.7-1,20.1,3.7,29.2c-19-13.7-21.5-24.4-11.6-49.2c-3.4,2.7-7.4,4.5-11.7,5.2c-1,0.2-2,0.7-2.5-0.5
			c-0.6-1.4,0.6-1.4,1.5-1.9c1.6-0.8,3.2-1.8,4.7-2.9c10.9-7.8,11.4-19.8,1.2-28.5c-1.1-1-2.3-1.9-3.6-2.7
			c-9.5-6.2-16.8-13.7-15.3-26.5c-3.3,5.3-5,11.4-4.9,17.6c-2.6-2.2-2.6-3.9-2.2-6c2.2-13.9,5.2-27.5,13-39.5c0.9-1.2,0.9-2.9-0.1-4
			c-2.9-4.3-2.8-9-2.1-14c1.3-9.2,4.3-17.8,7.9-26.2c1.2-2.8,2.1-5.8,3.7-10.1c-7.2,4-14.2,4.7-20.2,8.3c-2.2,1.3-4.9,0.6-7.3,0.3
			c-1.2-0.3-2.1-1.3-2.2-2.5c-0.2-1.7,1.5-1.6,2.5-1.8c5.8-1.6,11.3-4.1,16.2-7.5c7.4-5.1,13.1-11.1,16.5-20
			c8.7-22.4,21.8-42.3,37.6-60.3c4.9-5.2,7.6-12.1,7.8-19.2c0.4-13.3,5.3-25.3,11-37c1.3-2.6,1.9-2.4,3.7-0.4
			c9.3,10,18.7,19.9,29.3,28.7c3.5,2.9,6.4,3.4,10.7,1.4c27.2-12.5,54.8-11,82.7-2.5c7.4,2.2,13.8,6.4,20.9,9.2
			c7.4,3,7.4,3.1,13.2,2.1c-2.2,3.6-1.8,3.1,2,6.6c4.9,4.6,8.9,3.9,14.2,0.7c10.1-6.1,21.1-10.5,32.1-15
			c28.1-11.4,49.4-31.5,69.2-53.7c2.4-2.7,4.8-5.5,7-8.5c1.3-1.8,2.9-1.8,5.5-1.7c-3.8,5.3-1.4,11.2-2.6,16.6
			c-2.5,11.8-6.8,23-11.8,33.9c-9.9,21.5-18.8,43.5-33.3,62.4c-1,1.3-1.7,2.1,0.3,3.4c19.2,12.2,30.8,30.9,39.8,50.8
			c9.7,21.5,15.8,44.5,22,67.3c4.8,17.6,0.2,34.5-11.3,48.3c-10.3,12.5-18.2,26.2-26.4,40c-24.3,40.6-56.3,73-102.6,88.4
			c-3.9,1.3-3.7,4.7-5.5,7c-2,2.5-3.7,4.8-0.8,8.3c1.3,1.5-1.3,4.3-0.9,7.1c3,17.2,5.8,34.5,9.5,51.6c6.5,30.1,12.3,60.3,16,91
			c0.5,4.8,0.6,9.7,0.3,14.5c-0.7,13.9,6.2,23.7,16.9,31.5c0.6,0.5,2,0.8,2,1.2c0.3,6.3,5,5.4,9,5.7c20.9,1.6,42,1.8,62.8,4.8
			c18.3,2.6,36.6,5.3,54.3,10.9c15.3,4.9,28.7,12.9,38.7,26.1c4.2,5.5,10.5,9.1,15.4,14.2c12.2,12.8,21.2,27.3,24.5,44.9
			c0.2,1,0.3,1.9,0.3,2.9C645.7,747.2,645.3,747.5,644.2,748.4z"/>
		<path fill="#113169" d="M597.7,683.5c-6.2-2.9-12.7-5.4-19.2-7.5c-11.9-3.8-24.1-5.8-36.4-7.4c9.4,5.4,19,10.3,28.5,15.5
			c21.7,11.8,40.8,26.4,52.3,49.2c-1.8-6.9-5.4-12.8-9.5-18.4c-5.9-8.1-13.1-15.1-21.4-20.8c-0.7-0.5-2.1-0.9-1.1-2.2
			c0.8-0.9,1.5,0,2.2,0.4c1,0.6,1.9,1.3,2.9,2c5.3,3.9,10,8.5,15,13C609.3,697.6,607.8,688.3,597.7,683.5z"/>
		<path fill="#32222C" d="M349.6,675.6c-3,0.6-7.3,0.9-6.7,6.2c2,16.7,3.5,33.4,6.6,49.9c4.4-17,4.6-34.2,2.5-51.5
			C351.8,678.6,353.2,675,349.6,675.6z"/>
		<path fill="#FFFFFF" d="M316.3,1004.9c-1.7,2.7-1.9,6.2-0.4,9.1c1.4,2.6,3.4,4.4,7.1,3.6c-3.2-3.3-2.5-7.6-4-11.2
			C318.5,1005.1,317.6,1002.6,316.3,1004.9z"/>
		<path fill="#32222C" d="M330.8,819.1c-0.2-10.2,1.4-20.6-1.8-30.7c-0.3-1.5-0.1-3,0.6-4.3c4.2-8.5,7.7-17.5,13.1-25.1
			c5.2-7.3,5.9-14.5,4.8-22.6c-1.7-11.9-3.2-23.8-4.7-35.6c-1.1-9.1-2.2-18.1-3.4-28l0,0c-4.2,3.3-7.5,5.8-10.8,8.3
			c-1.3,0.8-1.9,2.4-1.3,3.8c6.4,19.1,8.8,38.8,9.6,58.9c0.4,11.3-6.5,18.2-17.6,15.9c-3.3-0.7-6.6-1.7-10.4-2.7
			c0.5,1.2,0.7,1.8,0.9,2.4c2.5,6.2,2.5,6.2-3.9,8c-1.2,0.4-2.4,1.2-3.2,2.2c-2.4,2.6-2.8,5.9-2.7,9.3c0.3,17.3,2,34.5,4,51.8
			c1.8,16.6,6.4,32.7,13.6,47.7c2.2,4.7,5.7,8.8,10.1,11.7C329.6,866,331.3,842.6,330.8,819.1z"/>
		<path fill="#FAF1C9" d="M382.8,646c-14.7-0.4-28.7-2.9-41.5-10.7c-2.7-1.7-5.9-2.7-9.6-4.3c4.3,14.7,7.9,29.7,10.5,44.8
			c16-7.1,28.5,0.7,41.2,8.8c2.4-9.6,4.6-19,7.1-28.2C393.3,646.4,393.4,646.3,382.8,646z"/>
		<path fill="#B50132" d="M263.1,645.9h4.5v-0.1c1.7,0,3.3,0,5,0c19.1-0.5,37.3-3.7,53.4-15c2.7-1.9,4.9-3.3,3.2-7.1
			c-0.5-1.2-0.2-2.6-0.4-3.9c-0.2-1.3,0.6-3.1-0.8-3.7s-2.2,1.1-3.1,2c-3.8,4.2-9,7.1-14.6,8.1c-4.8,0.8-9.5,1.3-14.3,1.8
			c-14.4,1.5-28.8,3-43.2,4.3c-3.2,0.3-3.7,1.4-2.6,4.4C253.5,645.9,253.4,645.9,263.1,645.9z"/>
		<path fill="#FB900D" d="M364.6,774.2L364.6,774.2c4,32.8,7.6,65.3,2.8,98c-4.7,32.7-11.4,64.7-19.6,98c1.1-1.8,1.4-2.3,1.7-2.8
			c17.8-40.5,25.1-83.2,28.3-126.9c1.6-22.1-5.4-42.7-10-63.8C367.5,775.5,366.9,774.7,364.6,774.2z"/>
		<path fill="#FB900D" d="M378.7,684.6c-2.6-0.5-1.7,2.6-2,4.1c-4.3,20.4-6.4,41-5.3,61.9c3.7-13.9,6.1-27.9,8.5-42
			c1-6.1,1.9-12.2,3-18.2C383.6,686.9,381.1,685.1,378.7,684.6z"/>
		<path fill="#32222C" d="M362.4,676.4c-1.5-0.4-3-0.5-4.4-0.9c-3.6-1-4.3,0.6-3.8,3.8c1.3,10.2,1.7,20.6,1.2,30.9
			c-0.5,12.2-4.4,23.9-4.9,36c-0.1,3.4-0.8,6.7-2.9,9.4c-6.5,8.3-9.4,18.7-15,27.5c-3.7,5.8,0.4,12.2,7.4,12.7
			c5.5,0.4,10-1.8,14-5.4c0.9-0.8,1.5-2.6,4.1-1.9c-1.8,3.1-4.5,5.6-7.8,7.2c-5.5,3-11.3,3-17.6,0.4c1.4,36.3-1,71.7-3.6,107.2
			c-2,26.9-3.5,53.8-7.9,80.5c-1.6,9.5-3.9,18.9,2.2,27.9l0,0c0.6-1.2,1.5-2.3,2.5-3.1c5-3.6,10.1-8.1,11.9-13.8
			c3.3-10.4,6.5-20.9,9.3-31.5c4.6-17.2,7.7-34.7,11.5-52.1c8.8-40.2,11.3-80.7,5.5-121.6c-0.9-6.5-2.7-13.2,0.1-19.7
			c3.9-9.3,4.7-19,4.6-28.9c0-15.8,1.5-31.6,4.6-47.2C375.9,680.9,375.2,679.7,362.4,676.4z"/>
		<path fill="#FFFFFF" d="M325,1016.4c8-4.5,13-10.7,13.8-17.8C335,1004.9,327.1,1007.9,325,1016.4z"/>
		<path fill="#F8F0C9" d="M265,425.2c6-2.6,12.1-4.8,18.3-6.6c8.8-2.4,12.5-12,12.2-18.9c-0.3-6.2-1.1-12.3,0.2-18.5
			c0.7-2.1-1.2-2.8-2.4-3.7c-5.2-3.9-10.7-7.4-15-12.3c-1.2-1.4-2.4-2.1-4.7-1c-7,3.2-9.4,6.2-8.3,13.5c0.9,6.6,0.9,13.3-0.1,19.9
			c-1.1,8.1-2.1,16.2-3.9,24.1C260.5,424.8,260.7,426.9,265,425.2z"/>
		<path fill="#381445" d="M242.6,325.3c-2.9-4.5-5.5-9.1-7.6-14c-1.7-4.2-4.2-8-7.3-11.2c-8.2-8.3-15-17.3-17.1-29.2l0,0
			c-0.9,7.4,0.3,15,3.6,21.7c2.8,5.7,7.9,10.2,9.3,16.4c1.2,5.4,7.8,8.1,6.4,14.4c0,0.1,0.2,0.2,0.3,0.4c2.2,4.8,5.5,9.3,6.6,14.5
			s4.5,8.7,8.4,13C248.4,341.6,247.7,333.2,242.6,325.3z"/>
		<path fill="#381445" d="M383.8,362.7c2.7,0.3,3.1-2.2,4.1-4c1.7-2.6,3.6-5.2,5.6-7.5c0.9-0.9,1.6-2,2.2-3.2
			c3.2-8.8,3.8-17.8,4-27.9c-4,4.6-7.6,8.4-12.5,10.1c-5,1.7-6.9,5.3-8.2,9.8c-1.7,6.1-0.9,12.2,1,18.1
			C380.6,360,381.3,362.4,383.8,362.7z"/>
		<path fill="#044563" d="M434.3,332.9c4-2.5,7.6-5.4,10.9-8.7c10.4-11.1,14-24.7,14.6-39.4c0.6-15.9-2.8-31.6-10-45.8
			c-2.8-5.6-5.9-9.5-11.5-12c-0.2,2.3,1.3,3.8,2,5.6c11.4,28.3,13.5,56.1-3.7,83.2c-4.1,6.5-9.6,11.9-14.7,17.6
			c-4.5,5-7.9,10.5-6.2,17.7C419.8,342.8,427.1,337.9,434.3,332.9z"/>
		<path fill="#10617E" d="M374.9,105.9c-6.4,3.3-7.8,5.5-5,12.2s3,13.8,3.8,20.8c0.3,2.2,0.3,4.5,0.5,7c2-1.8,1.9-4,2.3-5.8
			c2.3-10.5,5.8-20.5,14.1-28c0.4-0.3,1-0.9,0.9-1.1c-1.8-4.3,1.9-6,4.5-8.4C388.8,101.6,381.5,102.7,374.9,105.9z"/>
		<path fill="#381445" d="M247.2,361.4c10.7-8,15.4-18.4,13.2-31.8c-1.7-11.1-6.2-21.5-13-30.4c-4.6-5.9-8.3-12.5-11-19.5
			c-0.5-1.3-2-2.8-0.4-4.4c1.2,0,1.4,1,1.7,1.6c3.6,11.2,10.4,20.4,18.8,28.4c4.8,4.6,8.3,10.5,10.2,16.9c1.4,4.6,2.6,9.2,4.3,15.2
			c-0.4-12.8-4.2-23.1-9.8-32.9c-4.5-7.8-9.3-15.4-13.7-23.2c-4.6-8.4-8-17.2-8.5-26.9c-0.6-11.9,2.3-22.6,10-32
			c-4.9,1.8-9.1,5-12.3,9.1c-8.2,9.8-9.5,21.3-8.2,33.4c1.5,14,6.9,26.7,13.9,38.7c4,6.9,7.4,14.1,10.3,21.6
			c7.2,17.8,6.8,19.8-8.3,31.9c-2.1,1.7-1,2.7-0.3,4.1C245.1,363.5,246.2,362.1,247.2,361.4z"/>
		<path fill="#1BBACB" d="M259.1,362H253c-5,0-7,2.2-6.9,7.2c0,3-0.2,6-0.7,8.9c-0.8,5.8,0,11.8,2.3,17.2
			C249.2,383.2,248,371.1,259.1,362z"/>
		<path fill="#0B2A51" d="M256.5,309.3c7.1,18.1,11.4,34.8-3.4,50.1c9.1,1,18.7-8.1,16.6-16.3c-2-8-3.1-16.3-6.6-23.9
			C261.7,316,260.3,312.7,256.5,309.3z"/>
		<path fill="#1BBACB" d="M348.2,113.4c-8.7,1.5-17,4.9-24.4,9.8c-7.2,4.6-14.1,9.4-21.4,13.8c-16.5,9.9-30.3,23.2-45.7,34.7
			c7.8-4.2,15.8-8.2,23.8-11.9c16.8-7.7,33.5-15.6,48.4-26.8c4.4-3.2,9.4-5.8,14.6-7.6c8.8-3.1,17.6-3.9,26.3,2.4
			C368.3,117.7,358.8,111.7,348.2,113.4z"/>
		<path fill="#92D9CC" d="M342.7,570.8c0.7-1.1,0.7-2.6,0.1-3.7c-4-7.3-7.9-14.6-11.8-22c-1-1.8-1.9-2.4-3.8-0.9
			c-5.8,4.5-11.3,9.3-16.5,14.5c-1.4,1.4-1.9,2.5-0.2,4.1c7.2,6.9,12.1,15.3,16.3,24.3c1.3,2.8,3.3,5.3,5.5,8.6
			C336,586.7,339.3,578.8,342.7,570.8z"/>
		<path fill="#FF8400" d="M339.9,602.6c18.8-32.7,28.9-67.8,29.8-105.5c0.5-20.2,0-40.3-1.7-60.4c-0.1-0.9,0.6-3.1-1.3-2.2
			c-2.6,1.1-3.5-1.6-5.3-1.9c0.7,8.3,1.6,16.4,2,24.6c1.5,31.6,1.6,63-10.4,93.1c-6.1,15.3-12.3,30.5-18.5,45.8
			c-1.8,4.7-1.7,9.7-2.8,15.9C335,609.4,337.8,606.2,339.9,602.6z"/>
		<path fill="#92D9CC" d="M359.5,601.9c14.7-3.8,27.7-15.1,28.3-25.2C379,586.2,369.4,593.5,359.5,601.9z"/>
		<path fill="#92D9CC" d="M328.2,593.2c-3.3-3.9-5.4-8.8-7.5-13.5c-2.6-5.5-6.7-9.9-10.7-14.4c-1.4-1.6-2.3-1.4-3.5,0.1
			c-3.8,4.6-7.9,9-11.5,13.8c-2.8,3.6-2,6.3,2.3,7.5c13.1,3.9,23.6,11.4,32.5,21.9l0,0C328.5,603.6,332.4,598.2,328.2,593.2z"/>
		<path fill="#FAF1C9" d="M376.5,370c-1.9-1.4-2.6,0.5-3.7,1.2c-1.5,1-1.3,2.1-0.3,3.3c3.7,4.5,7.3,9,10.9,13.5l0,0l1.6-0.7
			c-1.4-5.1-1.6-10.7-5.2-15.1C379,371.3,377.6,370.8,376.5,370z"/>
		<path fill="#F3FD47" d="M394.5,427.2c-1.1-19.5-9.2-35.7-22.5-49.7c-1.4-1.4-2.1-4-4.8-1.4c-2.7,2.6,0.1,3.4,1.2,4.6
			c7.3,8.5,15,16.7,19.3,27.5c3.3,8.4,5.2,17.3,5.6,26.3C395.8,431.8,394.7,429.4,394.5,427.2z"/>
		<path fill="#301C1F" d="M388.4,453.3L388.4,453.3c-3.2,2.9-5.6,5.8-8.6,7.5c-7,4.1-8.1,9.9-7.9,17.5c0.7,29.1-2,57.8-11.8,85.5
			c-4.7,13.2-11,25.7-17.3,38.1c-0.8,1.6-2.8,4.4,1.1,3.8c3.9-0.6,8.2-1,11.6-3.7c9.5-7.6,19-15.1,27.7-23.6
			c2.6-2.3,3.9-5.7,3.5-9.2c-1.3-23.3-1.1-46.6-0.1-69.9C387.3,484.2,387.8,469.2,388.4,453.3z"/>
		<path fill="#301C1F" d="M390.9,438c-0.4-0.4,0-1.6,0-2.4c0-2.2-0.1-4.3-0.2-6.5c-0.1-2.8-0.7-4.4-4.1-2.7
			c-3.6,1.8-7.8,2.3-11.7,1.4c-4.2-1-5,0.8-4.8,4.2c0.7,10.5,1.3,21,2,32.3c5.9-4,11.2-8.8,15.9-14.2
			C390.7,446.8,396.2,443.7,390.9,438z"/>
		<path fill="#0B2A51" d="M263.1,378.9c-0.5-4.2-1.1-9,2.2-11.8c6.5-5.5,3.9-13.7,6.7-20.1c-1.6,3.3-2.8,6.7-4.8,9.8
			c-2.3,3.5-5.8,6-8.8,8.8c-4.8,4.5-6.6,10.2-7.3,16.5c-0.5,4.5-0.8,9-1,13.4c-0.3,6,4.6,18.8,9,23.7
			C262.5,408.5,264.3,389.2,263.1,378.9z"/>
		<path fill="#03102D" d="M401.7,400.4c13.6-12.5,26.2-26.1,37.8-40.6c36.4-46.2,56-97.2,45.6-157c-1.6-9.4-7.5-16-13.4-22.9
			c1.2,4.2,2.8,8.2,3.6,12.4c0.9,4.5,0.5,9,0.5,13.4c0,3.5,0.2,7,0.8,10.4c1.8,9.8,2.8,19.5-2.5,28.8c-1.2,2.1-0.9,4.8-0.6,7.4
			c0.3,3.1,1.8,6.2,0.4,9.5c-5.5-5.7-7.5-13.3-12.7-18.8c3,10.7,8.3,20.7,15.4,29.3c0.7,0.8,3,1.3,1.2,2.9c-1.5,1.3-2.3-0.4-3.2-1.2
			c-4.8-4.6-9.7-9-14.7-14c0.3,1.8,0.6,3.6,0.9,5.4c0.3,2,0.5,4,0.7,6c2.2,27-3.4,50.5-28.9,65.2c-4.2,2.5-7.9,5.6-11,9.4
			c-3.9,4.8-4.9,10-2.3,15.9c0.5,1,2,2.1,0.2,3.8c-2.7-2.2-2.7-6.3-5.3-8.5c-1.2,6.6-3,13.3-10.1,15.5c-4.9,1.5-7.8-2.9-11.3-5.9
			c1.9-1.1,3.2-0.8,4.2,0.1c2.6,2.1,4.4,0,6.1-1.3c1.9-1.5,2.1-3.6,1-5.9c-1.7-3.5-4.7-6.8-7.8-7.3c-2.9-0.5-4.9,4-6.4,6.9
			c-3.4,6.8-6,7.4-11.6,2.3c-2.1,4.3-1.8,5.4,1.6,8.1c5.7,4.6,6.4,11.5,6.4,17.9c0,3.9,0.9,6.3,3.6,8.5c1.8,1.5,4.2,2.5,5.5,4.3
			C397.9,403.6,399.4,402.6,401.7,400.4z"/>
		<path fill="#149EA4" d="M390.9,399.9c1.6,5.7,3.1,11,4.6,16.7C398.8,408.8,397.6,403.8,390.9,399.9z"/>
		<path fill="#1BBACB" d="M464.1,129.3c-9.5,1.1-17.8,5.2-25.4,10.8c-4.9,3.7-5.6,7.6-2.8,13.1c6.4-11,12.8-16.2,21.6-16.2
			c19.8,0,36.1,7,46.1,25.2c2.7,4.8,4.8,9.9,6.2,15.2c3.7,14.2,10,27.1,17.9,39.4c17,26.4,13.8,52.4-2.4,77.8c-0.7,1.1-1,2.9-3,2.7
			c-0.1-0.4-0.5-0.8-0.4-0.9c1.2-2.2,2.6-4.2,3.8-6.4c12-21.2,16.5-43.3,3.6-65.5c-9.9-17.1-18.8-34.4-24.1-53.5
			c-0.3-1-0.7-1.9-1.1-2.8c-8.4-19.2-22.3-28.3-45.4-29.1c-10.5-0.4-19.4,8-21.2,18.7c9.8-5.2,16.8-5.4,26.7,0.2
			c17.8,10,30.8,24,37.2,43.8c8.8,27.1,10.4,54.8,7.2,83c-1.7,14.8-4.8,29.2-11.2,42.8c-0.7,1.4-0.8,3.5-3.4,4
			c15.8-40.7,19.8-81.4,3.9-122.6c1.6,10.6,3.4,21.2,3.2,32.1c-0.4,20.5-2.9,40.9-7.5,60.9c-5.2,23.6-14.3,45.3-30.3,63.8
			c-16.5,19.1-36.6,33.9-57,48.4c-0.6,0.4-1.2,0.6-2.1-0.6c1.5-2,2.9-4.2,4.7-6.2c11.6-13.1,24.6-24.9,36.8-37.5
			c11.2-11.4,20.2-24.7,26.8-39.2c-6.8,8.3-11.5,18.1-19.2,25.7c2-5,4.6-9.6,7.7-13.9c8.6-12.2,15.2-25.4,20.6-39.2
			c8.2-20.8,13.1-42.3,12.2-64.8c-0.3-8.5-1.3-17-4.4-25.9c-0.2,0.6-0.3,1.2-0.3,1.9c0,1,0.1,2,0.2,3c3.3,34.8-3.5,67.5-19,98.7
			c-16.7,33.5-40.5,61.3-67.6,86.5c-1.2,1.1-3.5,1.9-3,3.7c1.1,3.7-0.7,6.8-1.3,10.2c-1,5.5,2,8,7,6.1c10.3-3.8,20.3-8.5,29.7-14.1
			c31.6-19,54-46.6,72.3-77.9c3.8-6.3,6.3-13.3,7.3-20.6c3.5-28.4,5.7-56.7-1.7-84.9c-0.4-1.5-1.7-3.2,0.5-5.2
			c9.7,30.4,6.7,60.8,3.9,91.3c4.5-4.5,8.7-9.2,12.6-14.2c12.7-16.6,16.4-34.9,9.8-55.1c-4.4-13.4-8.9-26.8-12.8-40.4
			c-6.4-22.7-18.6-41.9-33.9-59.3C485.5,133.5,476.2,127.9,464.1,129.3z"/>
		<path fill="#149EA4" d="M393.5,453.3c-0.2-1.5,0-3.1-1.7-4.2c-2.8,40.5-5,81-2.8,123.1l0,0c3.4-4.3,5.7-7.8,8.6-10.6
			c6.1-5.7,5.9-12.5,4.2-19.8c-0.5-1.9-1.2-3.8-2-5.6c-1.8-4.4-2.9-9.2-3.1-14c-0.9-21.3-2-42.6-3-63.9
			C393.7,456.6,393.7,454.9,393.5,453.3z"/>
		<path fill="#10617E" d="M366.6,91.3c-2.7,1.9-4,3.6-1.1,6.6c1.5,1.8,2.5,4,2.8,6.3c0.3,2,1.2,2.4,3,1.2c6.6-4.4,14.2-5.4,21.9-5.4
			c2.2,0,4.3,0.1,6.5,0c1.7-0.1,3.4-1.1,3.9-2.6c0.4-1.4-1.5-2-2.5-2.7c-3.6-2.5-7.4-4.4-11.5-5.8C381.4,86.2,373.8,86.4,366.6,91.3
			z"/>
		<path fill="#B3354F" d="M392.9,108.5c1.2,0.6,2.5,1.1,3.9,1.4c7.3,0.8,11.9,5.1,15.7,11c2.6,4.2,6.2,7.9,8.8,12.1
			c2.2,3.4,4.2,3.1,7.4,1.5c25.4-12.4,45.8-30.6,62.6-53.2c11.5-15.5,19.9-32.5,24-51.8c-0.9,0.9-1.8,1.9-2.7,2.8
			c-8.8,9.4-18.2,18.1-28.1,26.3C470.4,70.5,454,78.1,437.1,85c-9.8,4.2-19.4,8.9-28.6,14.1c-2,1.1-2.1,4.4-5.5,3.9
			C398.6,102.4,396,105.5,392.9,108.5z"/>
		<path fill="#B3354F" d="M434.4,134c-9.1,5-9.2,4.9-2.6,14.6l0,0c0.5-8,6.2-10.9,11.5-14.1c9.2-5.5,19.1-8.9,29.9-6.9
			c3.5,0.7,5.3,0.1,7.4-2.8c18.7-26.9,31.2-56.8,42.1-87.4c2.2-5.7,2.8-12,1.7-18.1c-4.2,4-4.5,4.3-5.4,7.8
			C506.4,75.2,477.2,109.9,434.4,134z"/>
		<path fill="#FAF1C9" d="M422.6,661.3c-0.7-5.6-0.7-5.6-5.3-4.5C418.6,658.7,419.8,660.8,422.6,661.3z"/>
		<path fill="#F9303E" d="M248.5,486.3c1,5.2,1.4,10.5,2.8,15.7c3.3,13,8.1,25.3,18,35c1.3,1.3,2.3,2.9,4.4,0.7
			c4.6-4.8,9.8-8.9,14.3-13.9c2.6-2.9,2.9-4.9,0.2-8.3c-8-9.8-17.9-17.8-26.1-27.4c-2.7-3.1-6.5-4.6-11.7-5.1
			C248.9,482.8,248.1,483.9,248.5,486.3z"/>
		<path fill="#0B2A51" d="M292.3,516.7c-0.6-8.9-1-16.7-1.6-24.5c-0.6-7.9-1.9-15.8-1.8-24c-11.6,2.8-21.5,9.5-32.4,12.8
			C269.5,491.5,280.2,504,292.3,516.7z"/>
		<path fill="#0B2A51" d="M286,446.2c2.5,0.1,5,0.2,7.5,0.6c2.9,0.4,3-1,2.5-3.2c-1.8-7.2-3.6-14.5-5.4-21.7l0,0
			c-4.3,6.9-5.2,14.5-6.7,21.9C283.5,445.7,284.4,446.1,286,446.2z"/>
		<path fill="#044563" d="M279,455.5c-3.2,4.8-6.7,9.5-7.2,16.2c9-2.7,17.6-6.4,25.8-10.9c1.3-0.7,3.1-1.4,2.2-3.2
			c-1.5-2.8,0-7.4-4-8.4s-8.2-1.2-12.4-0.6C280.9,449.1,280.5,453.2,279,455.5z"/>
		<path fill="#0E6E8B" d="M417.9,660.7c-6.9-6.8-12.3-13.5-14-23.5l0,0c-1.5,3.5-1.9,6.6-4.3,7.9c-8.1,4.7-6,13.3-9.7,20.9
			C399.7,662.9,408.3,662,417.9,660.7z"/>
	</g>
</g>
</svg>
