<?xml version="1.0" encoding="utf-8"?>
<!-- Generator: Adobe Illustrator 24.1.0, SVG Export Plug-In . SVG Version: 6.00 Build 0)  -->
<svg version="1.1" baseProfile="tiny" id="图层_1"
	 xmlns="http://www.w3.org/2000/svg" xmlns:xlink="http://www.w3.org/1999/xlink" x="0px" y="0px" viewBox="0 0 808.8 1081"
	 xml:space="preserve">
<g>
	<path d="M2.6,0C0.7,2.3,1.1,5,1.1,7.6c0,52,0,104,0,156c0,188.2,0,376.3,0,564.5v6.4c0.4,0,0.7,0.1,1.1,0.1
		c1.1-7.7,2.2-15.4,3.4-23.1c2.8-18.1,5.1-36.3,7.8-54.3c1.3-8.5,5.1-16.9,6.7-25.6c7.7-39.5,16-79,20.1-119.1
		c2.5-24.3,4.8-48.7,7.4-73.1c0.9-9.4,2.7-18.8,5.2-27.9c0.8-2.8,0.7-5.9,0.7-8.9c-0.6-30.5,0.4-61,3.1-91.3
		c5.5-60.1,22.1-116.5,59.7-164.8c40.9-52.6,94.6-82.7,161.4-88.5c15.3-1.3,30.6-2.2,45.9-2c13.3,0.1,26,2.7,38,8.8
		c-2.4-0.6-4.7-1.2-7.1-1.8c-2.4-0.6-4.8-1.2-7.3-1.8c-31.1-7.5-60.4-1.7-88.6,12.1c-41.2,20.2-70.4,52.4-91.8,92.2
		c-16,29.8-24.2,62.1-29.3,95.4c-3.7,24.5-3.6,49.1-5,73.7c-0.3,6.2-0.2,12.7-6.9,16.8c0.6-5.5,4-10.3,3.9-15.8
		c-1.2-0.3-2.5,0.4-2.9,1.6c-3.2,7.8-10.4,13.7-11.3,22.6c-0.4,2.6-1.3,5.2-2.5,7.5c-2.7,5.7-3.7,12.2-2.6,18.5c0.2,1.3,0,3,1.8,3.1
		c1.9,0.1,2-1.5,2-2.8c0.4-7,2.6-13.7,3.5-20.7c0.5-3.9,1.7-7.5,5.4-10.1c0.3,1.9-0.6,3.2-1.2,4.6c-8.4,23.2-8.1,46.7-2.3,70.3
		c1,4.3,3.9,2.7,6.3,1.9c2.7-0.9,5.9-1.2,4.3-6c-4-11.2-5.6-23-4.7-34.9c0.3-5.9,2.1-11.5,5.3-16.5c4-6.1,4.2-12.1,1-18.4
		c-0.8-1.3-1.3-2.7-1.7-4.1c-0.4-2.1,0.8-4.1,2.8-4.8c2.7-0.8,1.9,2.1,2.4,3.3c0.9,2.8,1.7,5.7,2.3,8.7c0.8,3.3,2.5,4.4,5.8,2.9
		c9.1-4.1,17.7-1.4,24.8,4.2c19.7,15.5,25.7,36.8,24,60.9c-0.1,2-0.3,4-0.7,6c-1.8,8.2-1.7,8.5,6.3,11.8c12.7,5.2,12.9,5.3,14.1-8.3
		c2.3-26.9-2.3-52.5-17.2-75.5c-7.7-12-17.5-21.4-32.3-23.9c-9.8-1.7-18.8,0.3-28.3,5.9c1.2-2.9,3-3.6,4.7-4.4
		c8.6-4.4,17.6-4.4,26.8-2.5c6.7,1.4,6.9,1.2,6.8-5.4c-0.3-39.1,2.8-77.9,13.2-115.8c11-40,29.5-76,59.2-105.5
		c22.9-22.7,50.2-37.6,81.9-44.1c9.2-1.9,18.6-2.1,27.8-0.5c8.8,1.5,17.5,3,26.4,3.4c18.8,0.8,34.7,9.6,50.4,18.9
		c12.2,7.3,22.7,17,31,28.6c3.3,4.4,7.4,8.1,12.2,10.7c56.4,33,93.5,81.6,114.8,142.8c6.8,20,11.8,40.6,14.9,61.5
		c0.8,6.1,1,12.3,0.4,18.4c-1.1,15.1-2,30.2-0.1,45.3c0.2,2,0.8,4.4-2.3,5.3c-1.7,0.5-1,2.2-1.2,3.5c-3.3,19.3-8.1,38.1-19,54.7
		c-0.6,1-1.3,1.9-2.1,2.8c-0.7,0.5-1.5,1-2.3,1.4c2.6-4.9,4.8-8.9,6.8-12.9c0.8-1.6,2.4-3.4-0.5-5c-1.3-0.7-0.5-2.5,0.1-3.7
		c9.7-21.3,8-43.7,5.8-66.1c-0.4-4.5-1.3-8.9-2-13.3c0-0.2-0.5-0.3-0.7-0.5c-3.3,15.8-3.5,32-6.5,47.8c-1.2,6.5-2.9,13-4.6,19.4
		c-1.1,4.2-4,8-2.1,13.1c0.7,1.9-1.7,5.2-3,7.7c-3.4,6.3-7.5,12.2-12.2,17.6c-1.7,1.9-2.2,4.5-1.5,6.8
		c11.6,49.8,29.4,97.4,51.4,143.5c1.7,3.6,3.3,7.3,5.3,10.7c2.1,3.8,2.5,9.8,9.5,8.1c1.3-0.3,2.2,1.2,2.8,2.4
		c-0.7,1.3-1.4,0.4-2,0.1c-1.4-0.6-2.8-1.3-4.2-0.1c-0.2,0.2,0,1.2,0.3,1.7c0.7,1.6,1.5,3,3.6,2.8c2.6-0.3,5.3-0.5,7.9-0.8
		c1.2-0.1,2.4-0.5,3.3,0.5c0.3,0.3,0.1,1.3-0.2,1.8c-0.8,1.1-2,0.8-3.2,0.5c-0.3-0.1-0.6-0.3-0.9-0.3c-2.3-0.6-5.3-1.1-6.6,0.6
		c-1.4,1.8,1.2,3.8,2.2,5.5c6,10.2,12.1,20.3,18.2,30.4c1.2,2,2.1,3.8,5.1,3.9c2.2,0.1,4.4,2,2.5,4.9c-1.7,2.6,0,2.6,1.8,2.7
		c2.5,0.2,5.1-1.4,7.8,0.2c-6.9,4.8-6.9,4.8-2.4,12.2c6.2,10.2,12.4,20.5,18.6,30.8c0.9,1.6,2.8,3.2,0,5c-1.3,0.8-0.3,2.1,0,3.2
		c5.8,19,13.3,37.3,24.5,53.8c14.1,20.8,22.4,43.4,26.5,68.2c3,19.2,7.6,38.2,13.7,56.6c2.3,6.8,3.6,13.9,3.7,21.1
		c0,1.3,0.4,3-1.4,3.2c-2.2,0.2-2-1.7-2.1-3.2c-0.4-4.5-0.4-9-2.4-13.3c0.4,6.6,0.9,13.1,1.2,19.7c0.8,17.2,0.3,34.4-4.5,51
		c-3,10.2-7.1,19.9-8.3,30.6c-1.4,11.7-3.6,23.3-5.4,35c-0.1,0.7-0.2,1.3-0.3,2c-2.5,11.8-2.5,11.7,9.8,11.8c22.7,0.2,45.3-1,68,0
		c2.8,0.1,5.8,0.5,7.6-2.5c0.9,3.4-1.3,3-3.5,3c-36.5,0-73,0-109.5,0c-0.2-8.5,2.1-16.5,4.7-24.4c6.4-19.5,12.7-38.9,14.9-59.4
		c1.2-11.7,2-23.5,0.6-35.7c-2.2,2.1-3.3,5-3,8c0.7,12.3-0.1,24.7-2.2,36.8c-2,12.1-5.2,24-9.6,35.4c2.7-21.1,2.2-42.3,2.7-64.4
		c-11.6,7.9-20.9,16.1-22,30.4c-0.8,10.8,0.9,21.5,0.8,32.3c-0.1,13.7,3.2,27.3,5.1,41h-4c-0.1-5.6-1.5-11.1-4.1-16.1
		c-9-16.7-19.2-32.3-32.2-46.1c-8.7-9-18.2-17.2-28.4-24.6c10.6,2.7,15.6,5.8,21.3,13c0.7,0.9,1.5,2.6,2.6,1.7
		c3.5-2.9,3.9,0.9,4.8,2.3c10.5,17.2,24.1,32.4,33.8,50.3c-1.1-7.3-1.2-14.6-3.5-21.7c-6-18.1-16.4-33.8-26.7-49.5
		c-1.5-2.4-3.4-2.7-6.1-1.4c8.9,11.8,16.8,24.4,23.4,37.6c-2.3-0.6-4.2-2.2-5.1-4.4c-3.9-11-13.8-18.3-18.1-29.1
		c-1.5-3.8-5-5.1-9.4-5.3c-9.8-0.4-19.6-1-29.2-3.4c-19-4.7-34.4-15.5-48.3-28.9c-4.9-4.8-9.5-9.9-15.1-15.8
		c7,22.8,14,44.4,22.4,65.5c0.6-1.2,0.8-2.4,0.7-3.7c-1.2-11.1-0.8-22.3-3.1-33.3c-0.2-1.1-1-2.6,0.5-3.1c1.9-0.6,2,1.3,2.4,2.5
		c0.4,1.1,0.6,2.3,0.6,3.4c1.2,12.9,2.6,25.8,2.3,38.9c-0.1,3.7,0.4,7.3,1.5,10.8c6.6,20.6,15.6,40.3,23.7,60.3h-12
		c0.5-1.4-0.1-2.6-0.6-3.8c-2.9-7.1-5.8-14.1-8.5-21.3c-1.5-3.9-3.3-4.2-6.7-2.1c-17.1,10.5-35.6,17.9-54.6,24.2
		c-1.5,0.5-3.2,0.5-4.7,2.3c10,0.8,19.7-0.5,29.2,0.7h-337c0.8-12.8-1.9-25.5-2.1-38.3c-0.1-0.5-0.3-0.9-0.6-1.3
		c-4.1,0.9-2.6-2.6-2.9-4.1c-1.2-5.2-2-10.5-2.5-15.8c-1.1-17.4-0.3-34.9-1.9-52.3c-0.1-1.2-0.6-3.2,1.3-3.1c2.3,0,1.5,2.1,1.5,3.5
		c-0.2,15.5,1.8,30.9,1.2,46.4c-0.1,3,0,6.6,4.5,2.4c0.3,1.2,0.5,2,0.7,2.8c2.8,12.3,2.7,24.8,2.9,37.2c0.1,6.2,0.7,12.3,0.9,18.4
		c0.1,4.6,3.4,3.6,6.1,3.6c3.8-0.1,1.9-2.8,1.6-4.3c-1.3-5.3-2.2-10.7-2.8-16.2c-1.7-20.8,0.5-41.6,0-62.4
		c-0.2-10.5-0.3-21-2.7-31.3c-5.7-23.6-13.8-46.5-23-69c-1-2.9-2.5-5.6-4.4-7.9c1,8.5,1.8,15.9,1.6,23.3c-0.5,33-0.4,65.9,0,98.9
		c0.2,14.8,1.2,29.6,3.1,44.3c1.1,8.4,3.6,16.6,3.3,25.2h-39c0.9-5.1,0.1-10.3-0.1-15.4c-1.1-22.6-2.7-45.3,0.3-67.8
		c2.4-17.9-0.5-36,2.6-53.9c-3.9-11,2.1-21.9,0.4-32.9c-0.5-3.1-0.4-6.3-0.6-9.8c-1.3,0.6-2.1,1.9-2.1,3.4
		c-0.8,7.7-3.4,15.3-1.9,23.3c0.5,3.5,0.1,7-1.4,10.3c-2,4.9-3.3,10.1-3.8,15.4c-0.3,3.7-1.1,7.4-1.9,11.9c-0.6-1.3-1-1.7-0.9-2
		c1.5-14.1,1.9-28.2,4-42.3c1.8-12.5,6.9-24.4,7.6-37.1c0.7-12.5,1.7-24.9,2.6-37.4c0.1-1.5-0.4-3.4,1.5-4.5
		c0.2,0.5,0.5,0.9,0.6,1.3c4.6,11.6,2.4,23.6,2.1,35.6c-1.1,40.3-2.8,80.5-6.4,120.7c-2.2,24.2-2.4,48.6-0.6,72.9
		c0.2,1.9,0.1,4,2.8,5.3c-3-73.6,8.1-146.3,8.1-219.4c0.9,10.5,1.1,21.1,0.7,31.7c-2.1,42.7-4.5,85.4-6.8,128.2
		c-1,18.5-1.7,36.9,0,55.4c0.2,2.2-0.3,6.3,1.8,6c2.9-0.4,1.1-4.1,0.9-6.3c-0.8-10.6-1.5-21.3-1.5-31.9c0-0.5,0.1-0.7,0.3-0.6
		c1.1,1.1-0.2,2.8,1.4,3.8c0.4-2.3,1.1-4.4,1-6.5c-0.6-16.5,2.4-32.9,2-49.4c-0.3-12.4,1.8-24.6,2.6-36.8c0.2-3.2-0.9-7.3,2.8-9.8
		c1.9,3.3,0.6,6.7,0.4,10.1c-2,24.7-5,49.4-4.7,74.2c0.1,8,0.5,16.3-1.2,23.8c-1.5,6.8-2.4,13.1-0.7,19.6c0.9,3.4-1.5,8.3,2,10
		c2.9,1.5,7.2,0.4,10.8,0.5c0.5,0,1,0,1.5,0c2.3,0.1,3.1-0.7,3-3.2c-0.5-18.6,4.4-37.5-4.5-56c2.4,1.5,2.5,4.1,5.2,4.5
		c0.5-9-0.3-17.7-0.8-26.4c-1.1-20.4-3.7-40.8-2.4-61.3c0.9-14.6,1.3-29.3,1.6-43.9c0-2.7,2.4-4.8,0.9-8
		c-15.8-34.5-28.9-70.1-44.3-104.8c-2.7-6-5.5-11.9-8.5-18.5c-0.4,0.7-0.6,1.5-0.9,2.3c-0.5,4.8-1,9.6-1.3,14.4
		c-3.2,51.1-10.6,101.6-18.7,152.1c-6.8,42.8-12,85.8-10.7,129.3c0,1.2,0.2,2.3,0.3,3.5c0.6,0,1.1,0,1.7,0
		c1.6-34.8,0.4-69.7,6.7-104.1c-0.5,12.7-1,25.4-1.7,38.1c-1.5,26.2-1.3,52.3,3,78.2c0.4,2.2,0.6,3.9,3.1,4.4h-30
		c-3.7-18.8-6.4-37.8-4.7-57c3.3-38.7,10.4-76.8,17.2-115c5.3-29.5,11.2-58.8,15.7-88.4c4.3-28.3,7-56.8,9.6-85.4
		c1.1-12.2,3.4-24.4-0.6-36.6c-1.1-3.4-0.8-7.3-1-10.9c-0.7-18.5,1.8-36.9,3.4-55.3c0.8-8.6,1.6-17,7.1-24c1.9-2.4,2.7-5.3,2.4-8.3
		c-0.6-15.8-2.2-31.6-4.7-47.2c-6.2-38.5-16-76.2-24.6-114.1c0-0.2-0.4-0.2-0.5-0.4c-1,1.1,0.4,2.7-1.1,4
		c-24.6-81.3-25.4-162.7-5.4-243.8c0.4-0.5,0.1-0.2-0.2,0.2c-0.7,1.3-1.3,2.7-1.9,4.1c-12.9,29.7-20.7,60.7-24.7,92.8
		c-4.5,35.9-5,72-4.2,108.2c0.8,36.8,2.2,73.5,0.6,110.4c-1.5,34.8-2.5,69.5-6.1,104.2c-6.9,66-18.9,131-35.1,195.4
		C10.9,832.9,2.9,851.2,0.6,871c0-288.8,0-577.7,0.1-866.5C0.7,3.2-1.8-0.1,2.6,0z M445.6,898.1c-5.4,0.9-7.1,5.7-8.8,9.5
		c-3.4,7.6-7,15-11.7,21.9c-2.7,4-2.6,8.2-0.7,12.9c1.9-1.8,3.1-4.3,3.3-6.9c1.1-8.5,7.5-14.4,11.7-21
		C442.9,909,446.2,904.5,445.6,898.1c2,0.4,4.1-0.7,4.8-2.7c2.6-6.1,2.8-13,6-19c0.3-1-0.2-2.1-1.2-2.4c0,0-0.1,0-0.1,0
		c-1.3-0.4-1.5,0.9-1.9,1.8c-1.7,3.8-3.5,7.5-5.1,11.4C446.7,890.6,444.8,894,445.6,898.1z M135.8,481.5c-4.9-2.9-6.6-8.6-10.8-12.3
		c13.7,39.6,19.5,80.3,18.7,122c2.5-0.1,3.6-1.8,5.3-2.3c6.3-1.9,7.7-6.3,7.3-12.4c-0.9-14.6-1.2-29.3-3.2-43.8
		c-2.1-15.7-3.1-31.9-11.8-46l9.8,6.7c1-1.5-1.9-2.6,0-4c0.5,0.9,1.1,1.7,1.7,2.5c1.6,1.6,2.9,5.4,5.5,3.3c1.9-1.7,0.8-5.3-0.9-7.8
		c-0.6-0.8-1.5-1.4-2.4-1.7c-3.9-1.5-4.9-7.7-10.4-6.2c-1-7.3-8.4-10-11.5-15.9c-1-1.8-2.3-3-4.2-0.8c-1.6,1.9-2.3,0.2-2.9-0.8
		c-1.3-2.1-0.6-4.1,0.2-6.2c0.5-1.2,0.8-3.6-0.4-3.4c-4.9,0.6-2.4-2.6-2.6-4.4c-0.3-3-1.1-5.9-2.3-8.6c-3.5-7.6-5.7-15.7-6.6-23.9
		c-0.7-6.8-1.1-13.6-1.7-20.4c-0.1-1.5-0.3-3.2-2.4-3.1c-2.4,0.1-1.4,2.1-1.6,3.5c0,0.3,0,0.7,0.1,1c3,12.6-1.2,26.5,6.4,38.4
		c0.3,0.5,0.2,1.3,0.3,2c1.2,12.8,6.2,25,14.4,35C132.5,474.6,134.5,478,135.8,481.5z M615.6,729c-3.8-3.2-6.9-7.1-9.2-11.5
		c-7-13.4-12.6-27.4-16.9-41.9c-5.1-17.3-9.3-34.9-16.8-51.5c-1.2-2.5-2-5.4-5.2-6.2c3.7-4.5,7.5-8.9,11.2-13.3
		c1.1-1.2,2-2.6,2.6-4.2c3.5-9.3,0.3-17.3-5.7-23.8c-10.9-12-23.6-22-36.6-31.6c-13.1-9.7-27.5-17.4-41.3-25.9
		c3.5,0.5,4.3-0.8,2.9-4c-0.5-1.2-0.7-2.5-1.2-3.8c-0.4-1-0.8-2.5-2.4-1.7c-2,1.1-4.6,1.3-5.5,3.8c-0.5,1.6,0.8,2.2,2,2.9
		c1.5,0.8,3.6,0.9,4.3,2.9c-1.7-0.7-3.4-1.3-5.1-2c-4.4-1.9-9.1-3.2-13.9-4c-1.6-0.2-3,0.1-3.8,1.7c-0.7,1.5,0.5,2.1,1.4,2.8
		c6,4.7,12.1,9.2,14.8,17.1c1.9,5.6,5.7,10.5,8.6,15.7c1.6,2.9,3.6,5.1,7.3,5.3c4.3,0.2,5.6,2.7,4.2,6.4c-1.2,3.5-0.4,6.5,1.4,9.5
		c2,3.3,3.5,6.9,5.9,9.8c7,8.5,3.7,16.1-1.5,23.6c-2.2,3.2-5.1,5.8-8.4,7.8c-2.1,1.3-4.1,2.7-3.9,5.8c1.6-1,3.2-1.9,4.9-2.8
		c1.8-0.8,3.3-0.4,3.5,2c0.2,4.3,2.5,7.9,4.2,11.6c1.6,3.4,3.6,6.8,2.8,11.1c-2.7-7.4-5.8-14.5-11.5-20.5c-1.4,2.2-0.4,3.9,0.3,5.7
		c0.8,2,2.6,4.9,1.4,6c-3.3,3.1-0.8,5.7,0,8.3c1.7,5.4,3.7,10.7,5.4,16.1c0.7,2,1.4,4.1-0.3,6.5c-2.5-2.4-4.1-5.7-4.3-9.2
		c-0.4-4.9-0.8-9.1-7.3-10c-3.6-0.5-2.9-4.7-3.6-7.5c-0.3-1.3,0.2-2.4,1.8-2.2c3,0.4,3.6-1.7,3.5-3.7c-0.1-2.2,1-5.1-1.3-6.3
		c-2-1.1-3.6,1.1-5.1,2.3c0.5-3.7,2.7-6.7,4.1-10.1c1-2.4,2.1-4.1,5.1-5.2c8.1-2.9,13.6-14.5,11.4-22.3c-1.8-6.5-5.8-11.7-10.1-17.2
		c-0.8,1.9-1.3,3.3-1.9,4.6c-1-4.6-0.2-8.8,1-13c0.6-2,1.4-3.9-1.2-5.2c-3.1-1.5-5.9-0.5-8.3,1.5c-1.9,1.6-1.7,3.6-0.3,5.3
		c3.1,3.7,4.5,8.2,5.8,12.6c1.5,5.1,3.9,9.2,9.7,10.2c2.2,0.4,2.9,2,2.9,4.1c0,0.7-0.1,2.1-1.3,1c-3-2.8-2.4,0.5-2.6,1.6
		c-0.5,5.1-2.6,9.9-6.1,13.7c0.1-1-0.1-1.6,0.2-1.9c4.5-7.6,5.6-14.9-1.4-21.8c-0.8-0.8-1.1-2.1-1.6-3.1c-4.3-8.6-8.4-17.4-13-25.9
		c-3.1-5.9-8.1-5.6-11.5,0.3c5,1.7,10.1,4.1,10.6,9.9c0.6,7,4.2,11.7,9.3,15.8c1,0.8,2.8,1.3,2.6,3.5c-4.5-2.2-8.5-5.4-11.5-9.5
		c-4.7-6.4-9.5-12.9-14.3-19.2c-2.2-3-5.1-5.3-9-3.3c-6.7,3.5-13.2,7.5-18.6,12.9l0.1-0.2c-6.5-1.4-10.7,1.9-14,7
		c-3.4,5.2-6.7,10.3-10.2,15.4c-1.1,1.6-1.8,3.6-4.2,5c0-0.9,0.2-1.7,0.5-2.6c4.9-7.7,9.8-15.5,15.5-22.6c2.5-3.1,5.7-5,9.9-4.7
		c3.9,0.2,6.2-1.7,6.7-5.7c3.2,2.3,4.7-0.6,6.7-2.1c4.6-3.6,9-7.5,15.5-3.5c2.2,1.4,4.8-0.1,7.1-1.1c2.7-1.3,2.9-2.8,0.9-5
		c-4.8-5.1-16.7-4.7-21.4,0.6c-3.1,3.6-5,8.1-8.8,11.2c-0.4,0.2-0.9,0.1-1.1-0.3c-0.1-0.2-0.1-0.4-0.1-0.6c2.8-7,2.6-14.8,5.4-21.7
		c2.5-6.1,6.9-7.3,13.4-4.2c-7.1,1.6-11,5.8-11.7,12.9c3.6-0.4,5.6-4.9,9.3-4.2c3.7,0.7,7.3,0.4,10.9,0.3c1.9-0.1,4.8-0.4,5.3,1.7
		c1.8,6.3,7.4,9.8,10.1,15.3c0.5,1,0.7,2.6,2.2,2.1c1.7-0.7,1-2.2,0.5-3.4c-0.5-1.2-1.1-2.4-1.8-3.6c-6-9.8-13-19-21-27.3
		c-3.3-3.5-6.3-4.6-10.1-1.2c4.5-7.8,9-15.5,13.4-23.3c5.7-9.8,9.1-20.8,10-32.1c1.3-15.4,5.3-30.3,11.2-45.2c0.7,2.9-1.5,5-0.2,7.5
		c0.3-0.5,0.5-0.8,0.7-1.2c3.2-6.5,1.9-14.3,5.9-20.7c0.5-0.7,0.4-1.7-0.2-2.2c-0.2-0.1-0.3-0.2-0.5-0.3c-1.4-0.4-3-1.3-4.1,0.2
		c-0.7,1.1-1.3,2.3-1.9,3.5c-3.1,5.3-6.2,10.6-9.4,15.9c-1-9.5,5.2-19.9-6.6-27.8c2,12.4,1.6,23.4-3.1,34
		c-5.1,11.3-14,17.6-26.3,18.4c-8.5,0.6-12.9-3.4-14.7-11.7c-1.2-5.9-1.5-11.9-0.9-17.9c0.7-7.5,1.9-14.9,9-19.5
		c-5.4,9.4-9.4,19.2-8.2,30.3c1.7,15.1,10.3,21.4,24.4,14.9c15.7-7.2,24.5-30.5,18.1-46.5c-1.8-4.3-5.1-6.3-9.6-6.7
		c-8.2-1-16.4,1.3-22.9,6.3c5.1-5.6,10.8-10.6,17.1-14.9c-6.6,0.2-13.6-1.6-18.2,5.4c-0.5,0.8-1.5,1.7-2.5,1c-1.3-1-0.4-2,0.5-2.8
		c0.5-0.4,1.6-0.8,0.6-2c-7.9,0.3-15.8,1.7-23.8,1.2c-7.6-0.7-15.3,1.1-21.9,5c-7.9,4.6-16.2,8.6-25.8,5.1c1.9-1.1,3.7-3.1,6.4-3.6
		c2,0.8,3.8,0.3,5.7-0.3c12.8-4.1,24.4-11.4,33.6-21.1c1.2-1.3,2.2-2.9,4.2-3.3c-3,3.5-6,7.1-9.2,10.5c-2.4,2.5-0.6,3.5,1.4,3.7
		c3.6,0.4,7.3,0,10.9,0.2c3.8,0.2,6.6-0.7,7.4-5.1c-0.9,0.4-1.8,0.8-2.8,1.1c-0.8,0.2-1.5,1.5-2.8,0c13.2-11.1,18.9-26.4,23.7-43
		c-9.2,11.8-18.5,22.8-28.8,32.8c0.1-1.8,1.3-3,2.4-4.3c4.5-5.6,8.4-11.6,11.7-18c13.8-27,21.1-55.9,24.3-85.9
		c0.7-6.7,1.6-13.4,0.7-20.2c-1.8,17.2-4.1,34.3-8.6,51c1.9-7.5-0.2-15.3,2-22.8c5.7-19.8,5.6-40.1,4.3-60.4
		c-0.4-5.8-1-11.6-1.5-17.4c7.4,26.4,8.5,53.1,4.4,80.1c-4.1,26.7-12.8,52-23,76.9c24-28.7,40.7-60.4,40.1-99.2
		c2.6,4.6,1.1,9.2,1.1,13.7c-0.1,17.2-1.6,34.3-4.7,51.2c-0.3,1.6,0.1,4.7-2.2,4.2c-2.7-0.7-0.3-3,0.1-4.4c1.3-4.4,2.2-8.7,1-13.8
		c-7,6.4-9.8,14.4-12.5,22.5c-6.2,18.8-14.6,36.4-27.3,51.8c-0.4,0.5-1.1,0.9-0.4,1.7c0.1,0,0.3,0.1,0.4,0
		c17.8-11.6,29.9-28.2,40.5-46.1c1.3-2.3-0.1-3-2-3.2c-2.5-0.3-5-0.3-7.8-1.5c3.7-2.1,7.2-2.3,10.7-2.4c1.8,0,3.2-0.4,4.1-2.2
		c6.7-13.4,14.3-26.6,15.2-41.9c0.6-8.9,2.1-17.7,4.5-26.3c-1.8,22.8-1.4,45.7-6.2,68.2c-1.2-8.8-0.9-17.8,1.1-26.4
		c-3.9,5.5-6.9,28.1-4.7,33.5c0.9,2.2,3,3.1,5.2,3.3c2.1,0.2,2.2-1.5,2.5-3c7.5-34.4,8.6-69,2.1-103.7
		c-5.5-29.8-17.1-56.6-38.6-78.5c-6.6-6.8-13.6-13.3-18.9-21.3c-1.2-1.8-2.2-3.6-3.3-5.4c16.4,9.8,28.1,23.8,37.8,39.5
		c23.1,37.5,30.7,78.6,29.1,122c-0.2,6.3-0.2,12.6,1.3,18.8c7.2,30,9.5,60.5,9,91.2c0,2.6,0.7,5.7-2.5,8.9
		c1.2-5.8,0.4-10.5,0.4-15.2c-0.1-10.7-0.1-21.3-1.1-32c-0.4-4.5-2.2-7.8-6.9-9.4c1.2,9.4,2.5,18.5,3.3,27.6
		c0.8,8.9,2.4,17.8,2.1,26.8c-0.1,1.8-0.4,4.4,0.5,5.3c2.2,2,1.3,3.6,0.5,5.6c-0.3,1.1-0.3,2.3,0,3.4c0.8,7.5,0.7,15-0.3,22.4
		c-2.1,17.3-8.5,33.5-13.3,50.1c-0.4,1.3-0.7,3-2.2,3.2c0.9-14.6-3.4-28.8-3.3-44.2c-2.6,2.2-2.3,3.9-2.4,5.5
		c-0.4,10.3,0.1,20.7,1.5,30.9c0.5,3.1,0,7,1.7,9.2c2.4,3,0.5,3.9-0.9,6.1c-2.6-9.6-3.8-18.8-5-28c-0.7,2.7-1.2,5.5-1.5,8.4
		c-1.1,10.1-1.5,20.3-7.2,29.3c-1.1,1.8-3.9,3.3-1.1,5.9c2.6,2.4,5.4,3.1,8.7,1.3c3.6-2,5.5-5.4,6.4-9.2c1-3.9,2.4-7.6,4.3-11.1
		c3.1-6.2,5.9-12.7,8.1-19.3c3.5-9.9,6.3-20,8.3-30.3c2-10.1,3.4-20.3,5.3-31.5c0.1,20.8-1.1,41.6-3.5,62.3
		c3.8-11.5,6.1-23.5,6.8-35.6c0.9-12.1,1.6-24.2,2.4-36.2c1.6,5.8,2.1,11.8,1.3,17.7c-1.1,10.7,3.2,21,0.3,32.1
		c-3.9,15.3-9.7,29.2-19.7,41.4c1.5-6.2,5.8-11.5,5.7-18.2c-0.1-6.4,3.4-12.8,0.3-20.4c-4.6,18.1-6,36.1-17.6,51.8
		c5.6-1.8,7.6-6,11.4-7.8c-5,15.5-0.8,26.8,13.2,35.4c5.1,3.1,10.3,6.1,14.9,10c0.9,0.8,1.7,2.1,3.5,1.3c-2.4-9.1-5.4-18-6.5-27.4
		c2.8,8.7,5.2,17.5,7.5,26.3c0.9,3.4,0.9,3.4,4,5c-4.5-15.2-8.8-30.1-13.3-45.3c-3,2-4.5,4.4-6.3,6.5c-1.7,2-2.7,5-6.2,5.3
		c9.8-9.1,12.5-19.6,7.8-31.9c-0.8-2-1-4.3-1.8-7.6c-1.7,3.1-2.5,5.1-3.7,6.9c-2.7,4.1-4.7,8.9-9.7,10.9c0.8-1.3,1.5-2.6,2.4-3.8
		c11.7-15.9,20-33.5,23.7-52.9c12.4-64.4,9.5-128.2-9.8-191c-0.6-1.9-2.1-3.8-0.9-6.8c0.7,1.9,1.3,3.2,1.7,4.5
		c2.4,8,4.9,15.9,7,23.9c8,31.3,13.2,63.2,18,95.1c0.5,3.6,1.5,7.1,0.7,10.9c-1.4,7.4-1.9,14.9-1.4,22.4c0.8,15.6,0.1,31.3-1.9,46.8
		c-0.9,6.5-0.7,12.8,2.3,19.3c0.6-1.6,1.1-2.6,1.4-3.7c8.9-26.8,9.2-54.3,6.4-82c-1.1-11-2.1-22.1-4.8-33.1
		c-2-8.1-2.7-16.9-4.4-25.4c-9-45.1-21.7-88.8-43.3-129.7c-10.2-19.4-22.2-37.1-41-49.4c-6.8-4.4-12-10.7-17.7-16.5
		c8.4,3.6,16,8.8,22.5,15.2c7.3,7.5,14.5,15.2,21.8,22.7c44.6,46.1,75.9,99.2,85.3,163.7c0.6,3.8,2.3,5.9,5.9,8.1
		c2.4,1.5,0.3,7,2.7,10.2c0.9,1.2,0.8,3.1,3,4.3c-1.3-8.8-2.5-17.2-3.8-25.6c-0.5-3-0.5-2.9,2.1-5.3c0.5-0.4,0.3-1.5,0.3-2.3
		c0-1.2-1.5-2.3-0.5-3.8c2.9,2.5,2.9,5.5,1.3,8.6c-1.1,2.2-1.3,4.8-0.6,7.2c1.9,7.6,3.3,15.3,4,23c0.5,5.7,0.1,11.7,3.5,17.3
		c1.6-3.9,1.5-7.6,1.7-11.2c0.8-16.4-1.5-32.6-4.1-48.5c-4.2-25.4-13.4-49.4-25.3-72.2c-27.2-52.1-66.9-91.2-120.7-115.5
		c-4.1-1.8-8.5-2.9-12.7-4.5c-2.3-0.9-2.7,1.1-3.8,2c-1.5,1.2,0.2,2,0.8,2.8c1.8,2.4,3.9,4.6,5.7,6.9c9.3,11.8,18,23.9,21.4,39
		c3.7,16.4,6.5,33,8.2,49.7c0.3,3.1,0.7,6.3,0.9,9.4c0.2,2.9,0,5.8,0,8.7c-1.3-17.8-5.7-34.8-10-51.9c-4.9-20-11-39.5-23.8-56.1
		c-1.7-2.2-1.7-2.2-4.4-1c-0.4,0.2-1.2-0.2-1.7-0.5c-2-1.1-2.9-3.4-2.2-5.6c0.7-2.4-1-3.2-2.7-4.1c-0.9-0.4-1.9-1.2-2.7-0.3
		c-1,1.4-0.1,2.9,0.4,4.3c6.1,18.4,7.7,37.5,7.6,56.7c-0.2,30.4-4,60.4-10.6,90.1c-10.2,46.3-25.4,90.6-52,130.4
		c-0.3,0.5-1,1-0.2,2.1c8-5.3,15.7-10.9,23.3-16.8c7.6-5.9,14.5-12.7,21.6-19.1c-5.1,9-11.5,17.2-18.8,24.6c-4,3.9-7.9,8.2-13.5,9.9
		c0.1-3.6-1.8-2.9-3.8-1.8c-2,1.2-3.8,2.7-5.9,3.7c-4.2,2-5.8,4.1-1.5,7.7c0.9,0.8,2.6,1.8,1.5,3.6c-1.8-0.3-2.6-2.8-4.5-2.2
		c-1.1,1.3,0.9,2,0,3.7c-9.6-8.7-20.8-13.3-33.9-14.7c3.6,12.2,4.2,25,1.9,37.4c-0.9,5.1-3.7,9-7.5,12.6c-4.2,4-9.7,6.5-15.5,6.9
		c-7.6,0.2-15-2.5-20.7-7.5c-2.2-1.9-4.8-4.1-7.6-4.7c-5.3-1.1-7.8-4.7-10-8.9c-1.2-2.3-2.3-4.8-3.4-7.2c-1.7-3.6-4.1-5-8.1-3.5
		c-3.4,1.4-7.3,0.6-9.9-2c4.3,1.5,8.2-0.4,12.1-1.7c1.1-0.4,2.3-0.7,2.3-2.2c0.1-1-0.5-2-1.5-2.4c-1.4-0.7-2.2,0.1-2.9,1.2
		c-1.9,2.9-4.5,3-7.5,1.9c-1-0.4-2.6-0.3-2.5-1.8c0-1.1,1.4-1.1,2.3-1.5c2.9-1.2,5.8-2.4,8.7-3.8c1.4-0.7,2.7-1.7,2.4-3.5
		c-0.3-1.6-1.9-1.5-3.2-1.8c-3.6-0.7-6.8-2-9.1-6.4c9.7,4.3,17.9,2.7,25.6-2.8c1.7-1.1,3.5-2,5.3-2.7c3.7-1.7,5.5-3.8,2.2-7.5
		c-0.7-0.8-1.4-1.8-0.8-2.7c0.8-1.2,2.1-0.7,3.1-0.1c3.2,1.8,6.5,3.6,10.3,3.4c9.8-0.5,19.3-3.1,29.2-2.8c0.4,0,0.8-0.5,2.1-1.4
		c-3.8,0-6.5,0.1-9.3,0c-15.8-0.8-31.6-1.5-47.4-0.9c-13.9,0.5-25.3,12.9-25.6,26.7c-0.2,9,1.7,18,0,26.9
		c-3.2,16.3-3.4,32.8-3.2,49.3c0,2.5,0.7,4.9,2.1,7c6.2,9.2,13,17.8,21.3,25.1c35.5,31.3,77.3,50.2,122.7,61.9
		c4.9,1.3,9.4,0.2,13.7-2.7c18-12.1,34.6-26,51-40.2c1.5-1.3,2.6-3.1,4.9-3.2c-17.4,17.5-36.9,32.6-57.3,46.3
		c-3.8,2.6-8.1,2.5-12.5,1.4c-14.3-3.6-28.4-8.2-42.2-13.7c-2.1-0.8-4.2-2-5.4,1c-2.2,5.9-3.8,12-2.7,18.4c1-4.4,1.8-8.8,2.6-13.1
		c0.2-1.2,0.8-2.5,2.3-1.9c1.2,0.5,0.5,1.7,0.2,2.6c-1.4,5.4-3.6,10.8-2.5,16.6c0.1,0.7,0,1.3-0.4,1.9c-6,4.3-0.3,4.5,2,5.2
		c20.8,6.5,42.3,8.7,63.9,9.7c4.9,0.2,8.8-1.5,11.2-6c0.5-0.9,1.1-1.7,2.3-0.9c-0.4,2.6-3.9,3.5-3.8,6.9c9.2-2.4,18.1-3.8,23,7
		c-5.8-5.4-12.5-7.2-20.5-6.2c-24.4,3-48-2.3-71.6-7.2c-2.3-0.5-6-3.6-6.8-0.6c-1.3,4.4,3.9,3.1,6.3,4.1c3.5,1.4,7.7,0.9,10.5,4.1
		c-6.7-0.3-13.3-1.2-19.6-3.9c-1.1-0.5-1.8-1.6-1.9-2.8c-0.1-3.6-2.6-4.6-5.5-5.5c-20.1-6.4-40.3-12.6-59.7-20.8
		c-1-0.4-2.2-1.4-3.2-0.5c-2.2,1.9-3.2,0.2-4.3-1.3c-2.4-3.4-6.4-5.3-10.6-5c1.8-4.1,4.4,0.1,6.6-0.6c-1.4-4.8-4.1-7-11.8-9.5
		c1.8,3.4,3.5,6.7,5.2,10c1.8,1,2.6,2.9,3.9,4.5c7.7,9.8,15.6,19.2,29,21.1c0.1,0,0.2,0.5,0.3,0.8c-4.3,0.9-8.8-0.8-13.4,0.4
		c0.7,1.3,1.8,2.4,3.2,3c9.2,5.6,18.4,11.4,27.7,16.9c27,16.2,54,32.4,76.3,55c4,4.1,8.7,5.4,14.1,2.5c1-0.6,2.3-1.4,3.1-0.1
		c0.8,1.3-0.2,2.6-1.4,3.3c-2.8,1.8-5.6,3.7-9.2,2.7c-2.8-0.8-4.4,0.5-5.4,3.1c-6.1,15.7-10.7,31.9-13.7,48.4
		c-0.7,3.8,0.8,5,4.4,5.3c7.6,0.7,15.3,0.7,22.9,0.2c7.4-0.4,14.5-2.7,20.7-6.7c3.7-2.4,4.8-4.7,1.5-8.3c-3.7-4-3.4-8.3-0.5-12.8
		c2.7-4.2,5.4-8.4,9.3-11.6c2.9-2.4,2.9-4.6,0.2-7c-6.2-5.5-6.8-12.2-4.3-19.6c2.4-7.3,4.6-14.6,7.3-21.8c3.1-8.6,4.7-17.7,9.5-25.7
		c1.6-2.7,2.3-5.3,1.4-8.4c3.3,2.3,3.6,4.8,0.8,7.8c-1,1.1-1.7,2.5-2.2,3.9c-6,15.7-11,31.7-15.8,47.8c-1.7,4.8-0.3,10.3,3.6,13.7
		c3.4,3.3,5.9,7.3,7.3,11.7c2,5.9,1.9,5.8,7.4,3.3c11.4-5.3,22.8-10.8,33.5-17.4c-10.5,11-42.6,26.7-52,24.7
		c2.2-0.9,4.2-1.7,6.2-2.5c4.2-1.7,5.5-6.3,2.6-9.7c-0.7-1.1-2.1-1.4-3.2-0.7c-0.1,0.1-0.2,0.1-0.2,0.2
		c-10.8,6.5-13.2,17.7-5.9,27.8c2.6,3.7,5.3,7.3,7.9,11c4.1,5.7,7.4,11.9,9.8,18.5c2.1,6,3.3,6.5,8.9,3.5c-0.8-1.6-3.8-0.6-3.9-3.4
		c4.9,0.9,9.7,2.1,14.8,1.5c23.4-2.5,42-14.1,57.9-30.6c8.5-8.8,8.4-8.9-1.1-16.6c-12.8-10.3-23.9-21.6-22.3-39.9
		c0.2-2.7-1.6-3.8-3.9-4.3c-2.4-0.5-5-1.4-6.9,1.1c-1.8,2.3-1.3,4.5,0.2,6.6c2.7-0.4,2.1-3.7,5.1-4.3c-2.9,6.9-7.7,12.8-13.8,17.2
		c3.6-5.5,8.6-10.4,5.9-18c-0.2-0.5,0.3-1.3,0.6-1.9c4.9-9.9,9.9-19.9,14.9-29.8c-1.8,6.7,0.1,12.5,3.7,18.4
		c5.6,9.2,10.7,18.8,13,29.5c0.2,0.8,0.2,2.2,2.3,1.7c0.3-3.9,0.8-8,0.8-12.1c0-4.9,3.5-7.7,6.3-10.9c2.6-3,5.5-5.7,8.2-8.5
		c-1.3,4.8-4.7,7.7-7.9,10.8c-3.3,3.3-5,7-4.1,11.7c0.4,2.3,0,4.7-1.1,6.7c-3.4,6.5-3.3,13.4-2,20.4c0.2,1.3,0.2,3.6,2.2,3.2
		c2.4-0.4,0.2-2.1,0.3-3.1c0-0.5,0.2-0.9,0.5-1.3c6.2-5.7,6.6-13.4,7-20.9c0.2-4.5,1.6-7.6,5-10.1c9.5-6.8,16.9-16.2,21.2-27.1
		c3.2-7.9,8.2-14.9,14.5-20.6c0.2,2.6,0.8,5.2,1.7,7.7c6.1,17.6,13.2,34.8,17.9,52.9c4.3,16.6,12.8,31.7,16.5,48.6
		c4.5,20.7,9.9,41.1,21.7,59.1c2.2,3.4,3.1,7.5,2.6,11.5c-0.3,1.7,0.4,3.3,1.8,4.3c5.1,3.9,10.2,7.9,16.3,12.6c-2-5.1-3.5-9-5-13
		c-0.4-1.1-0.9-2.5,0.2-3.2c1.6-1,2.3,0.7,2.9,1.8c1.3,2,2.3,4,3.2,6.2c5.7,15.9,16,28.7,26.9,41.1c1,1.1,2.2,2.4,3.8,1.5
		c1.7-1,0.8-2.7,0.4-4c-0.4-1.4-1.2-2.7-1.7-4.2c-1-3-4-5.4-2.8-9.8c6.9,13.2,9.8,27.4,16.9,39.9c2.3-1.8,2.6-3.6,1.1-6
		c-1-1.7-1.7-3.6-2.3-5.5c-9.6-25.8-23.3-49.9-40.5-71.3c-3.4-4.3-7-8.6-9.4-13.5c-7.4-15.6-14.5-31.4-24.3-45.7
		c4.8,3.7,7.8,8.9,10.7,14.1c7.7,13.6,12.8,28.6,21.6,41.7c1.2-0.2,1.7,0.7,2.4,1.5c10.8,12.5,19.4,26.5,26.9,41.2
		c6.5,12.7,11.8,26,17.7,39.1c0.7,1.7,0.7,1.7,3.3,3.7c-5.7-15.9-7.4-32.3-14.6-47.1c-6.2-12.6-8.7-26.5-12.9-39.8
		c-0.5-1.5-1.8-3.5,0.6-5c1.6,2.1,2.8,4.6,3.4,7.2c1.4,5.1,3.1,10.2,5,15.2c6.9,18.6,13.7,37.2,17.4,56.7
		c2.7,14.1,7.8,27.5,11.1,41.4c0.2,0.9,0.2,2.4,1.4,2.2c1.8-0.2,1-1.7,0.9-2.8c0-0.5-0.2-1-0.3-1.5c-5-30.2-13-59.9-24-88.4
		c-0.5-1.3-1.7-2.6-0.9-4.2c0.4-0.8,1.2-0.3,1.8-0.1c1.9,0.9,1.7,2.7,1.7,4.3c-0.1,2.8,1,5.2,2,7.7c7.6,18.8,13.4,38.2,17.3,58.1
		c2.6,13.3,4.8,26.8,8.6,39.9c2.8,9.7,4.6,19.6,3.1,29.6c-2.1,14.4-0.1,28.1,3.6,41.9c2.5,9.3,4.1,18.9,3,28.6
		c-0.2,1.7-0.5,4.2-3,3.8c-2.2-0.3-1.5-2.6-1.5-4.2c0.2-6.5,0.6-13,0.9-19.5c0.1-1.3,0.1-2.9-1.8-3c-1.7-0.1-1.5,1.4-1.7,2.5
		c-2.2,12.8-5.4,25.4-8.5,38c-3,12.5-2.7,25.5-4,38.2c-0.2,2,0.3,4.3-2.1,6.2c-2.8-7,2.5-13.8-0.1-21.3c-4.3,8.4-4.2,17-6.7,25.3
		c6.5,0,12.5-0.1,18.5,0c2.3,0,3.2-1,3.6-3.1c0.8-4.4,2-8.7,2.9-13.2c7.8-42.8,6.8-85.8,1.7-128.8c-5.8-49.6-18.9-97.2-37.2-143.5
		c-12.5-31.6-27.9-61.8-42.7-92.3c-7.4-15.1-14.4-30.3-21.8-45.4c-0.8-1.7-1.1-5.5-3.8-4c-3,1.6,0.5,3.5,1.3,5.2
		c0.9,1.9,2.4,3.5,1.3,6.7c-12.2-18.3-21.2-37.4-28.5-57.3c5.2,9.7,10.2,19.6,14.9,29.6c2,4.3,6.1,6.9,8.2,11c0.5,1,2,1.7,3.8,1.5
		c-2.2-5.4-5.1-10.3-7.4-15.5c-5.8-13.6-12.8-26.7-19.4-39.9c-2-4-4.2-8-5.3-12.4c-2.5-10.1-6.9-19.6-9.8-29.7
		c-4.8-16.8-11-33.1-15.5-50c-2.4-8.9-4.7-17.8-7.2-27.5c-7.7,7.8-14.5,15.2-18.6,24.7c-1.1,2.6-1.2,5.6-0.3,8.3
		c4.2,14.2,8.3,28.4,12.4,42.6c0.5,2.3,1.7,4.4,3.5,5.9c9,6.9,16.7,15.3,25.5,22.4c6.3,5.1,8.3,11.7,8.9,19.2
		c0.2,2.5-0.4,5.2-2.1,6.4c-5.9,4.1-6.2,8.6-2.3,14c0.2,0.3,0.3,0.6,0.4,0.9c8,25.7,19.2,50,30.5,74.3
		c14.2,30.6,29.6,60.7,41.5,92.3c0.7,1.9,2.1,3.7,1.4,6.3c-2.8-1.6-4.4-5-8.1-4.1c1.8-1.2,1.1-3,0.9-4.6c-0.6-6.1-2.3-12.1-4.9-17.7
		c-8.9-19.5-18-38.9-27.1-58.3c-0.7-1.5-1.2-3.1-2.8-4.1c-1.7,0.8-1.4,3.5-3.5,3.8c-2.8-5-4.9-10.5-6.1-16.1
		c-1.1-5.6-6.2-10.1-4.3-16.5c0.1-0.5-0.7-1.5-1.3-2c-1.5-1.4-2.3-3.3-2.3-5.4c-0.3-3.1-0.7-5.8-4.2-7.2c-1.9-0.9-3-2.9-2.7-5
		c0.8-4.7,2.8-9.5-3.6-11.9c-0.1-0.1-0.2-0.3-0.2-0.4c2.4-5.5-4.8-9.1-3-14.6c0.4-1.3-0.2-3.9-2.4-4c-3.7-0.1-4.3-0.5-2.7-3.7
		c1.3-2.3,1.2-5.1-0.1-7.4c-7,5.1-7.1,5.9-3.6,13.3c4.4,9.3,8,19,10.8,29C591.7,678.8,599.3,705.6,615.6,729z M533.7,226.9
		c-2.2,1.9-0.3,3.8,0.3,5.4c16.6,43.6,27.1,89.3,31.2,135.8c2.2,26,2.8,51.9-2.6,77.6c-0.9,4.4-2,8.8-3.1,13.2
		c5.2-6.9,9.3-14.7,12.1-22.9c12.8-37,12.5-75.1,8.2-113.1c-3.6-32.1-15.4-61.8-30.4-90.3c-11.6-22-26.4-41.8-43.6-60.7
		c0,0.7,0.1,1.3,0.3,2c8.9,15.8,16,32.6,25.4,48.1c0.9,1.5,2.3,3,2,5L533.7,226.9z M200,479.8c-7,8.4-16.6,10-26.8,10.6
		c6.6-0.3,13.1,3.6,19.4-0.5c1.3-0.8,3.2-1.7,3.8-0.1c0.7,1.8-1.5,2.2-2.9,2.6c-2.1,0.6-3.7,1.6-3.7,4c0,2.4,1.5,4.6,3.7,5.4
		c1.2,0.5,2.6,0.5,3.6,1.6c-0.5-0.1-1-0.4-1.4-0.3c-5.8,1.5-9.7,0.8-9.9-6.6c-0.1-3.1-3.6-3-6-3.3c-2.7-0.3-2.5,2-2.7,3.8
		c-0.1,1.4-0.2,2.9-1.9,3.1c-1.9,0.3-2.4-1.3-2.9-2.8c-1.5-4-4.5-6.7-8.3-9.6c-0.5,5.1-2.8,10.4,2.3,13.2c9.7,5.4,20.1,7.6,30.8,2.4
		c4.1-1.5,9.1-1,12.3-5c-0.8-0.9-2.4,0-2.9-1.4c2.1-1.6,4.3-1.6,6.4-1.9c2.4-0.4,4.7-1.2,5.7-3.5c3.5-7.7,9.8-13.9,11.8-22.4
		c1.3-5.2,5.5-8.6,8.8-12.5c-0.2,3.6-2.6,6-4.3,8.8c-2.5,4.1-2.7,5.1-1.6,8.9c1.7-1.5,2.1-3.8,3.3-5.5c7.4-10.4,7-22.9,8.6-34.5
		c4.3-32.4-1.7-63.2-20.6-90.3c-8-11.5-18.6-20.8-32.5-25.3c-4.1-1.3-8.4-2-11.2,2.3c-2.2,3.4,0,11.8,3.4,14.6
		c0.9-1.6,0.1-3.9,2.2-5.4c0.9,2.3,1.6,4.4,2.6,6.5c0.4,1.2,1.4,2,2.6,2c1.6-0.1,1.5-1.5,1.8-2.6c0.8-3,2.7-5.5,5.3-7
		c-1.7,3.6-3.3,6.2-3.2,9.2c0.1,4.1,4.7,7.8,1.2,12.3c-0.2,0.3,0.9,1.7,1.5,2.4c6.2,8.1,11.1,17.1,14.4,26.7c1.3,3.6,2,7.3,4.2,10.5
		l-0.2-0.2c-0.9,1.8-0.1,3.6,0.3,5.3c4.5,21.5,4.8,42.8-3.5,63.7c-0.4,0.9-1.8,2.2-0.2,3c3.7,1.7,1.7,4.3,0.4,5.6
		c-5.6,6-3.4,12,0.5,17.1c2.5,3.3-4.2,2.1-1.4,4.4c-1.5,1.3-2-0.5-2.6-1.1c-3.2-3.3-6.2-3.4-9.2,0.3c-0.8,1-1.8,2-3.6,1
		c1.8-3.6,3.4-7.2,8.4-6.7c1.6,0.2,2.1-0.5,2.1-1.9c-0.1-5.2,1.4-10.3,4.3-14.6c0.7-0.8,0.6-1.9-0.2-2.6c-0.1-0.1-0.2-0.1-0.3-0.2
		c-1.7,1.2-1.5,3.7-3.5,4.7c0-0.5,0.1-1,0.3-1.5c15-33,11.5-65.5-2.5-97.7c-6.5-15-17.4-26.4-32.1-34.2c-1.1,3.6,1.2,4.8,3.3,6.2
		c8.3,5.7,15.2,13.1,20.2,21.8c15.4,26.3,19.7,54.5,14.6,84.2c-2.1,12-6.4,23-15.6,31.7c-3,2.8-5,3.3-7.2-0.9
		c-2.7-5.2-5.8-10.1-8.7-15.1c-0.8-1.4-1.1-3.3-3.4-3c-2.1,0.2-3.8,1.6-4.4,3.5c-0.5,1.9-0.3,4,0.5,5.9c0.7,2,2.2,4,0.5,6.6
		c-1.8-2.1-2.9-4.6-3.3-7.3c-0.6-3.2-2.3-4.9-5.6-5.3c-9.7-1.1-17-6.3-22.6-14.1c-1.9-2.7-3.8-5.5-6-8c-1.7-2-3.8-2.3-5.1,0.6
		c-2.3,5.2-3.3,10.4,0,15.7c4,6.4,8.6,12.3,14.5,17.1c11.3,9.1,23.6,15.7,38.9,12.6C190.5,485.8,194.9,482.1,200,479.8z
		 M239.2,362.6L239.2,362.6c0.9,10.5,6,20,7.4,31.3c1.3-2.1,1.7-4.6,1.1-7.1c-1.5-9.6-1.7-19.2,0.9-28.7c0.6-2.8,1-5.6,1-8.4
		c0.9-17.8,3.1-35.4,5.6-53.1c2.4-17.1,9.8-33.4,9-51.1c7.1-20.8,14.5-41.5,27.3-59.7c0.5-0.7,0.8-1.9,3-1.3
		c-34.3,63.6-39.8,133.5-45.5,203.9c1.3-6.2,7.5-7.1,10.7-10.9c-2.1-2.2-7.3,1.2-6.8-4.6c0.6-7.5,0.7-14.9,2.1-22.3
		c4.1-20.6,11-40.4,18.3-60.1c6.5-17.6,10-36.3,17.9-53.4c18-39.4,42.7-74.5,72.6-105.7c12.2-12.7,26.1-23.7,44.9-27.1
		c-4.3-6.8-10.9,1.8-15.5-2.4c1.5-1.9,4.5-0.4,6-2.8c-13.7-1.6-26,0.8-37.4,8.4c2.1,2.1,5.3,1.7,6.9,4.1c-2.1,2.1-4.7,3.2-7.3,4.3
		c-7.7,3.2-15.3,6.4-21.7,12c-3.6,3.2-8.4,4.3-14.3,5c2.4-2.5,4-4.4,5.7-6.1c8.3-8.5,18.5-14.5,27.8-21.5
		c12.8-9.6,28.1-12,44.2-10.8c-3.8-6.3-9.1-9.2-16.3-8.6c-22.1,1.5-43.2,9.6-60.6,23.2c-1.3,1-2.5,2.2-3.8,3.3
		c7.9-3.2,14.2-8.9,22.4-11c-1.1,1.2-2.4,2.3-3.9,3.1c-12.7,7.3-24.6,16.1-36.5,24.6c-12.9,9.2-22.1,22.5-31,35.7
		c-29.2,43-46.7,90.5-53.8,142c-1,7.1-2.5,14.2-1.2,21.5c1.1-7.3,2.2-14.5,3.3-21.8c0.7,3.3,0.7,6.7,0.2,10
		c-1.6,11.4-2.3,22.5,7.4,31.2c0.4,0.5,0.8,1.1,1.1,1.7C233.4,353.7,235.2,358.8,239.2,362.6z M371,331.8
		c-5.6,6.2-12.2,11.3-18.7,16.5c-14.4,11.6-32,15.9-49,21.7c-2.5,0.9-5,1.6-7.5,2.4l0.2,1.3c12.9-2,25.7-5.9,40-2
		c-6.1,0.7-11.2,0.2-16.4,1.9c14,2.1,16.6,1.6,23.3-4.3c0.7,1.2-0.8,3.4,2,3.7c3.3,0.4,6.5,1.5,9.7,2.2c4.4,0.9,8.9-0.6,11.8-3.9
		c16-17.2,29.8-35.8,35.2-59.4c0.6-2.6,1-5.4,3.2-7.6c3.7,11.3-21.6,55.3-41.9,73.2c2.2,0.8,4.3,1.8,6.3,2.9
		c3.4,2.2,5.2,1.5,7.2-2.1c11.4-20.4,20.6-41.8,28.8-63.6c3.1-8.4,5.4-17.1,6.9-26c-8.4,10.6-16.2,21.6-23.3,33.1
		c-12.9,20.8-30.5,36.3-53.2,45.9c-1.6,0.7-3.2,1.9-6,0.6c11.9-6.3,23.1-12.7,33-21c12.2-10,23.4-23.3,24.5-29c-2.9,2.1-5,5-8.2,6.5
		c4.2-6.5,10.2-11.3,15.3-17c11.6-13,21.8-26.4,25-44.5c5-27.9,11.3-55.4,9.1-84c-0.5-4-0.2-8,0.8-11.9c0.5-1.6,0.3-3.4-0.5-4.9
		c-2.3-4.6-2.5-9.6-2.3-14.6c0.4-10.3,0.1-20.7-3.1-30.6c-0.6-2-0.8-4.5-4.1-5.9c6,24.8,5.3,50.7-2.1,75.1c-1-1.7-0.4-2.6-0.1-3.5
		c4.2-17,3.6-34.3,3-51.6c0-1.3,0.2-2.8-1.5-3.3c-1.3-0.4-2.7,0.3-3.2,1.6c0,0,0,0,0,0.1c-3.7,8.6-8.5,16.8-11.4,25.8l0,0
		c-1.3,0.4-1.4,1.8-1.9,2.7c-13.6,27.7-28.1,54.8-45.2,80.5c-1.4,2.1-3.1,4.2-2.7,7.4c3.2-4.4,6.5-8.8,9.7-13.1
		c-0.9,4.9-43.6,64.7-49.4,69.5c4.5-6.6,8.9-13.1,13.4-19.7l-1.1-0.7c-12.7,17-24.9,34.3-38.6,50.6c8.6-3.9,17.1-7.3,22.8-15.8
		c8.1-12.2,20.9-19.9,31.6-29.6c5.5-5,11-9.9,16.5-14.8c-3,7.7-8.9,13.1-14.5,18.5c-5.6,5.4-13.2,9.3-17.3,15.6
		c-4.5,7-12.9,8.6-17.3,15c11.9-4.2,23.7-8.1,36.1-9.6c1.8-0.2,2.9-1.5,4.1-2.7c27.8-30,50.1-63.4,63.4-102.4
		c4.5-13.7,8.1-27.7,10.6-41.9c1.2,1.7,0.7,2.8,0.6,3.9c-1.7,12.9-4.8,25.5-9.2,37.8c-5,14.3-9,29.2-17.1,41.9
		c-10.6,16.7-21.9,33-35,48c-4.1,4.7-8.4,9.4-12.9,14.4c7.4,1.7,14.7,1.9,21.6,5.8c-0.7,0.2-1.4,0.4-2.1,0.5
		c-24.1-0.9-46.7,5.6-69.2,13.2c-19.7,6.6-32.2,21.9-45.3,36.5c-0.9,1.1-1.5,2.3-0.2,3.5c1.6,1.4,2.3-0.1,3.2-1.1
		c1.1-1.2,1.9-2.9,4.1-3.1c-1.2,3.9-5,5-7,7.8c1.7,1.4,3.5,0.8,5.1,1c9.5,1,18.7-1.4,27.8-2.9c29.5-4.9,54.8-18.8,77.9-37.4
		C367.8,333.5,369,331.9,371,331.8z M445.3,832.8c1.7-0.1,2.7,1.1,3.9,1.9c29.6,19.6,54.3,44,73,74.2c14.3,23.2,34.2,42.5,58,56
		c6.8,3.9,13.6,7.8,21.3,9.7c2.4,0.6,4.9-0.6,7.1,1.2c6.4,5.3,14,7.5,22.2,7.7c8.5,0.1,17.1,0,26.5,0c-8.1-1.5-15.3-2-22.6-2.7
		c-5.8-0.5-11.8,0.1-17.2-2.5c-8.8-4.2-16.2-10.4-23.4-16.9c-0.7-0.7-1.3-1.5-1.7-2.4c-0.4-0.9,0-2,0.8-2.4c0.1,0,0.1-0.1,0.2-0.1
		c0.7-0.4,2.2-0.8,2.2-0.2c0.5,3.6,4.4,4.1,6,6.8c3.8,6.6,11.3,9,17,13.6c0.8,0.3,1.6,0.4,2.4,0.2c9.2-1.3,18.2,1.8,27.4,1.2
		c2.2,0,4.3,0.6,6.2,1.5c2.3,1,4.8,1.5,7.3,1.2c2.7-0.3,5.2,0.6,7.7,1.6c6.4,2.5,15.5,1.3,18-7.6c1.9-6.6,4.4-12.9,6.6-19.3
		c0.7-1.8,0.4-3.9-0.8-5.4c-3.5-4.9-2.8-10.7-2.3-16.4c0-1,0.7-1.8,1.7-1.8c0.1,0,0.2,0,0.3,0c1.1-0.1,2,0.7,2.1,1.7
		c0.1,1.3-0.1,2.6-0.3,3.9c-0.7,4.1-1.2,8.2,0.8,12.9c0.7-1.6,1.1-2.6,1.5-3.6c3.2-9,3.5-18.1,2.3-27.5c-0.5-3.9-1.1-4.4-4.1-1.6
		c-0.1-1.3-0.1-2.1-0.2-2.9c-0.6-12.8,2.7-26-6.5-37.8c-4.3-5.5-7.5-12.3-12.5-17.1c-10.1-9.5-18.6-19.8-25.1-32.1
		c-4.4-8.4-11.6-14.1-19.4-19.1c6.2,8.3,12.3,16.6,17.5,25.5c5.3,9.1,10.7,18,20.2,23.5c0.1,0-0.1,0.5-0.2,0.9
		c-2.1-0.5-4-1.5-5.6-2.9c-5.4-3.9-21.1-27.1-24.6-33.4c-5.3-9.4-13.5-16-25-19.6c1.6,3.6,2.4,6.6,3.9,9c5,7.7,8.6,16.2,14.2,23.5
		c0.9,1.2,2.3,2.8,0.7,3.9c-2,1.3-2.3-1.1-2.9-2.2c-6.5-10.9-14-21.3-18-33.3c-4.1-12.3-11.8-21.8-19.7-31.4c-0.8-1-1.3-2.7-3-2.2
		c-1.3,0.4-1.2,1.9-1.5,2.9c-5.6,21.8-15.6,41.7-26.8,61c-2.5,4.3-4.3,7.2-0.8,12.5c6.1,9.4,10.1,20.2,14.2,30.7
		c0.4,1.1,1.7,2.2,0.5,3.6c-2.1-0.4-2.4-2.1-3-3.6c-0.4-1.1-0.5-2.5-2.2-2c-4.5,1.3-3.7-3-5.3-4.9c-1.7-2-0.3-3.2,1.5-4.2
		c1.7-1,0.8-2.2,0.1-3.4c-1.2-1.9-1.7-0.3-2.5,0.4c-1.7,1.6-2.5,0-2.8-1.2c-1.5-5.8-6-10.6-5.3-18.3c-2.9,4.2-5.1,8.9-6.4,13.9
		c-0.9,3.1-1.7,6.4-4.6,8.1c-10.3,6.3-21.4,10-33.6,9.4c-2.5-0.1-4.4-1.3-4.4-3.8c0.3-10.7-2.3-21.4,0.4-32.7
		c-2.3,2.8-3.5,2.4-4.5-0.6c-2.4-6.5-5.1-13-7.9-19.4c-2.8-6.5-6.9-12.3-12-17c-1-0.9-1.7-2.3-3.3-1.5c-1.7,0.8-1.7,2.3-1.6,3.9
		c0.2,1.8,0.8,3.6,0.9,5.4c0,1.8,2.2,4.6-0.1,5.3c-2.1,0.6-2.1-2.7-3-4.3c-0.7-1.3-1.1-3.2-3.1-2.2c-1.5,0.7-2.2,2.4-1.5,3.9
		c0.1,0.1,0.1,0.2,0.2,0.3c0.9,1.6,1.5,3.3,1.7,5.2c0.5,10.3,7,18.1,11,26.9c0.7,1.4,2.2,2.5,3.5,3.5c0.6,0.5,1.5,1.4,2.3-0.3
		c1.4-3.3,2.8-1,3.8,0.3c3.3,4.8,6.5,9.7,9.7,14.6c0.7,1.2,2.2,2.8,0.5,3.9c-1.9,1.2-2.3-1.2-3.1-2.2c-3.1-3.9-5.1-8.7-8.9-12.5
		c-1.4,3.5-0.8,6.4,1.4,8.3c5.3,4.5,9,10.2,12.6,16.1c0.9,1.5,2.2,3.1,3.9,2.2c3.7-2,4.6,0.9,6.1,3c11.9,16.7,19.7,36.2,35.3,50.5
		c5.6,5.1,10,10.8,17.1,14.8c12.2,6.8,23.3,15.3,33.1,25.3c-3.2-0.2-6-1.6-8.8-3.1c-26.3-13.9-48-32.9-64-58.1
		c-6.1-9.6-12.4-19-19.8-27.6c-12.5-14.4-24.1-29.3-31-47.3c-1.2-3.2-3.2-6.2-4.6-9.4c-2.1-4.5-3.3-9.5-3.6-14.5
		c-0.1-2,0.1-3.6,1.5-5c3.4-3.7,6.8-7.3,10.1-11.1c1.5-1.8,2.5-1.8,3.6,0.4c5.2,11,13.2,20,21.2,28.8c2.7,3,4.7,6.2,4.4,10.7
		c7.2-8.8,13.8-18,19.7-27.8c1.7-2.9,4.5-7.1,3.5-9.3c-2.2-4.9-2.2-10.1-4-14.8c-0.4-1-1.7-2.1,0-2.8c1.1-0.5,1.6,0.9,2.1,1.7
		c2.7,4.3,4.3,9.3,4.4,14.3c5.9-8.9,10.4-18.7,13.2-29c0.1-0.5,0.5-1.1,0.3-1.4c-3.1-4.5-1.7-9.7-2.2-14.5c-0.8-8-0.9-16.1-1.3-24.2
		c0.6-0.1,1.2-0.1,1.7-0.2c-1,11.9,5.4,22.8,3.5,34.9c4.2-7.8,6.1-16,3.3-24.5c-4.4-13.4-11.7-25.3-20.2-36.5c-1.3-1.7-3-3-5.1-2.1
		c-2.3,0.9-4.4,2.4-5.3,4.9c-0.7,1.8,0.6,2.8,2,3.5c1.7,0.8,1.7-0.9,2.3-1.8c0.8-1.1,0.4-3.1,2.4-3.4c0.4,1.6,0.1,3.4-0.9,4.8
		c-7.8,13.8-13.5,28.6-21.2,42.4c-4.9,8.8-9.1,18.2-17.6,24.5c-0.8,0.8-1.5,1.7-1.9,2.7c3.4,2.8-0.4,4.2-1.4,5.5
		c-11.1,14.6-24.5,27.4-39.7,37.6c-8.8,5.9-8.9,5.8-2.3,13.1c-6.7-4-14.9-4.4-21.9-1.1c-3.7,1.6-4.6,3.7-4.5,7.2
		c0.2,5.7,0.5,11.3,0.3,17c-0.1,3.3,1.2,4.5,4.1,4.9c4.6,0.6,9.2,1.4,13.8,2.1c12.5,1.7,16.9-1.8,18.1-14.2c0.1-1.5,0.3-2.8,2.1-2.6
		c1.7,0.2,1.1,1.6,1.2,2.7c0.6,7.1-3.7,11.8-7.7,16.7c-1,1-2.4,1.4-3.7,1.1c-6.3-0.7-12.6-1.4-18.9-0.1c-1.9,0.2-3.7-0.4-5.1-1.7
		c-3.6-3-4-0.9-3.9,2.3c0.1,7.2,0.1,14.3,0.1,21.5c0,7,0.8,7.6,7.3,5c3.3-1.3,6.4-3.5,11.2-3.8c-3.3,3.4-6.8,4.3-9.9,5.9
		c-3.4,1.8-7.2,3.7-7.9,7.8c-1.5,8.4,0.3,16.7,1.4,25.1c6.7-11.7,15.2-22.4,18.6-35.7c0.6-2.5,1.5-4.8,3.5-6.5c2.5-2.2,4.5-5,5.7-8
		c4.1-9.1,8.1-18.2,12.3-27.3c1.5-3.4,0.9-5.6-2.3-7.5C454.3,840.7,449.2,837.4,445.3,832.8z M301.7,802.9c3.9,1.2,1.7-1.7,1.5-2.4
		c-3.4-10.8-6.8-21.6-10.6-32.2c-8.4-23.7-17.6-47-29.4-69.3c-2.7-5-5.4-10.1-9.9-14c4.2,12.5,11.3,23.9,15.3,37.7
		c-2.8-2.9-3.8-5.5-5-8.1c-5-11.3-9.9-22.5-15.8-33.4c-12.7-23.5-29.5-43.1-53.5-55.7c-15.8-8.3-32.5-14.6-48.2-23
		c-5.4-2.9-12.7-4.9-18.4,0.3c-6.3,5.8-10.4,12.9-11.2,21.7c-1.2,13.6-2.8,27.2-3.8,40.8c-1.3,16.7-0.8,33.2,4.5,49.4
		c5.2,15.8,9.8,31.8,14.7,47.7c0.5,1.7,1,3.4,1.4,5.2c-6.2-12.7-9.3-26.3-14.3-39.3c0.3,16.4,2.2,32.3,11.6,46.3
		c3,4.4,4.9,9.4,6.7,14.4c9.2,24.6,18.8,49.1,29.6,73c12,26.5,24.7,52.7,32.8,80.8c6.9,23.9,15.6,47,29,68.2
		c3.8,5.9,6.2,12.6,7.2,19.6c1,7.6,3.9,14.4,7.5,21c4.7,8.6,11.2,16.1,16.4,24.4c2.3,3.6,4.6,4.8,8.8,4.7c49.5-0.1,99-0.1,148.5-0.1
		c0.8,0,1.7,0,2.5,0c3.1,0.3,4-0.9,2.5-3.6c-2.4-4.5-5-9-7.4-13.6c-6.6-12.9-15-24.8-20.5-38.2c-3.2-7.7-6.6-15.2-10.1-22.8
		c-8-17.4-15.6-35.1-32.5-46.3c-2.3-1.4-3.5-4.1-3-6.8c6.8,4.8,11.1,11.7,17.5,16.5c-13.5-17.7-28.9-34.1-37.4-56
		c2.9,1.2,3.4,3.3,4.7,4.8c9,10.3,11.4,25.4,24.1,33c0.5,0.4,0.9,1,1.2,1.6c9.1,15.3,18.4,30.5,26.2,46.5
		c13.1,26.7,22,55.4,38.7,80.4c1,1.5,1.4,5.1,3.6,3.8c2.6-1.5-0.4-3.7-1.3-5.3c-12.8-23.8-24.8-47.9-32.3-73.9
		c-4-13.9-7-28.1-13-41.3c-17.6-38.4-34.6-77.1-49.4-116.7c-2.5-6.8-6.9-12.5-11.7-17.8c-6.4-7-12.9-13.8-18.3-21.6L301.7,802.9z
		 M303.3,783.4c5.6,8.5,12.8,15.9,17.3,24.9c7.4,14.4,15.6,28.3,24.7,41.6c1.7,2.7,3.1,5.5,4.2,8.5c0.5,1.3,1.1,3.2-1.2,3.6
		c-2,0.4-2.6-1.1-2.6-2.8c0-1.7,0.3-3.4-0.7-4.9c-1-1.5-2.1-3.6-4.1-2.8c-1.6,0.6-0.6,2.7-0.3,4.1c2.8,10.3,5.6,20.6,12.8,28.9
		c2,2.3,3,5.2,4,8c3,9,6.9,17.6,10.6,26.4c2.8,6.7,9.2,12.1,7.3,20.5c-0.2,0.7,0.4,1.6,0.8,2.3c9,18.5,15.4,37.9,20.7,57.7
		c1.3,4.9,3.3,9.4,7,13c3.6,3.5,5.1,7.8,3.8,12.7c-0.6,2.3-0.5,4.4,1.6,5.8c2.5,1.7,4.3,4.2,5.1,7.2c3.1,9.9,10.8,18,11.5,29.1
		c0.2,4.1,4.3,8,6.2,12.3c0.7,1.6,3.3,2,4.8-0.3c0.2-0.2,0.4-0.4,0.6-0.5c1.2,2.8,3.8,2.4,5.5,1.6c2.5-1.2,0.6-3.6,0.1-5.2
		c-16.7-59.5-23.6-120.4-25.2-182c-0.6-24-0.2-48-0.2-72c0-5.9-1.3-11.2-5.7-15.5c-3.5-3.4-7.3-6.3-11.5-8.7
		c-11-6.5-21.2-14.5-30.2-23.7c-5-5.1-7.3-10.7-6.8-17.9c2.1-26.7,7.5-52.7,17.7-77.5c2.3-5.5,1.5-9.7-3-13.8
		c-10.5-9.8-21.6-18.8-33.5-26.9c-28.4-19.2-58.6-35.6-87-54.8c-27.4-18.4-55.2-36.2-78.5-59.9c-6.7-6.8-6.8-6.8-1.7-14.2
		c0.1-0.1,0-0.3-0.1-0.8c-3.7-0.5-5.5,2.2-6.5,4.8c-3.9,10,0.1,17.6,9.7,24c-4.3-0.3-5.4-3.2-7.9-3.5c-0.3,2.1-0.2,4.2,0.5,6.1
		c1.5,4.6,2.9,9.2,4.1,13.8c3.4,13.3,4.6,26.2-2.9,38.7c-0.6,0.9-1,0.5-1.5,0.5c-7.1-0.1-14.2,1.6-20.5,5c-1.5,0.8-3.6,1.3-3.4,3.8
		c2.1,0.4,4.3,0.5,6.1,1.8c5,3.8,10.7,6.1,16.5,8.2c29.4,11.1,53.4,29.7,73.2,53.8c16.5,20.2,26.9,43.9,37.8,67.2
		c10.4,22.2,16.5,46,23.9,69.3c3.4,10.6,10.8,17.8,18.9,24.7C317.7,811.7,308.8,798.4,303.3,783.4L303.3,783.4z M140.7,226.1
		c-0.9,2.1-1.9,4.2-2.8,6.4c-0.6,1.4-1,2.8-1.3,4.3c-5.2,29.3-11,58.6-9.8,88.7c0.1,3.3-0.4,6.6-4,8.8c-0.1-0.9-0.3-1.5-0.3-2.1
		c-0.7-12.9-0.5-25.8,2.2-38.3c5.6-25.8,3.7-53.2,16.5-77.4c0.9-1.8,2.4-3.1,3.1-4.8c3.1-7.7,6-15.4,9.3-23
		c25.8-59.8,64.4-106.6,128.7-127.4c0.8-0.2,1.6-0.5,1.3-1.8c-8.1,0.5-16.2,1.4-24.2,2.7c-31.5,5.7-61,16.5-87.3,35
		c-1.5,1-4.1,1.9-3.9,3.5c0.5,4.3-2.6,6.3-4.7,8.7c-15.2,17.1-28,35.5-35.7,57.3c-1.3,3.7-2.7,7.4-6.3,11.2
		c7.9-26.9,19.6-50.3,38.7-70.6c-2.5,0.1-4.9,1.1-6.7,2.8c-31.2,26.2-54.9,57.5-65.8,97.3c-8.7,32-11.8,64.8-10.4,97.9
		c1,23.3,2.3,46.6,5.7,69.7c5.4,35.8,14.6,70.7,23,105.8c7.2,30.1,13.7,60.4,16.7,91.3c0.9,9.7,1.8,19.5,2.7,29.7
		c2.7-1.6,5.7-2.8,8.8-3.4c5-0.8,7.1-3.9,7.1-8.7c0-8.5,0.3-17-0.3-25.5c-2.7-41.9-12.2-83.1-28.2-122c-3.3-8.2-5-17-5-25.8
		c-0.3-12.8,0.4-25.8-0.9-38.4c-1.8-18.2-3.3-36.4-4.2-54.7c-2.5-50.3,2.2-100.7,13.9-149.7c2.5-11.4,6.7-22.4,12.5-32.6
		c-21.8,63.3-28.6,128.2-22.4,195.3l1.2-3c1.4,10.3,3.3,20.1,2.8,30.2c1.6-2.9,2.5-5.9,3.8-8.8c2.6-5.5,3.7-10.7,2.3-17.1
		c-7.4-34.6-9.6-70.1-6.3-105.3c0.2-2,0.5-4,0.8-5.9c0.3-2,0-4.1,2-6.3c-5.1,41.3,2.2,81.2,7.1,122.3c2-2.7,2.9-4.8,4.5-6
		c5.9-4.4,6.1-10.4,6.1-17c-0.1-18.8,1.6-37.6,4.1-56.3C136.8,250.7,139,238.4,140.7,226.1z M220.6,195
		c-3.8,12.2-7.8,24.3-11.4,36.5c-7.1,24.3-11.6,49.3-13.4,74.5c-0.5,6.6,0.8,12.8,7.6,16c2.7,1.3,5.2,3,7.4,4.9c1,0.8,2,2.2,3.4,1.8
		c1.7-0.6,1.2-2.5,1.3-3.9c1.7-17.6,4.5-35,8.5-52.2c12.5-51.2,36.2-97.1,67.4-139.3c18.7-25.3,42.7-42.7,73.6-49.9
		c5.1-1.2,10.1-2.2,16-1.2c-4.2,2.5-8.9,1-13.2,4.5c6.2-1,11.2-1.9,16.3-2.6c3.2-0.4,2.7-1.6,1-3.4c-4.2-4.5-9.1-7.8-15.3-8.8
		c-19.2-3.1-38.2-1.2-56.9,3.6c-35.8,9.1-63.3,29.9-84.3,60c-9.5,13.6-17.8,27.7-23,43.5c-0.4,1.1-1.7,2.3-0.5,3.6
		c1.6,1.8,1.7,1.8,0.6,3.5c-1.6,2.3-4.4,4.1-4.8,6.9c-1.7,12.5-7.7,23.7-10.3,35.9c-5.7,25.9-7.9,52.3-9.7,78.7
		c-0.4,5.3,3.3,8.4,10,8.3c5.2,0,3.4-4.5,3.5-7.1c0.5-18,3.1-35.8,6.7-53.5c3.3-16.5,10.5-31.9,13.3-48.5
		C215.1,202.4,217.3,198.2,220.6,195z M272.4,346c-0.8-1.8-2.7,0.4-2.5-0.7c0.4-1.9,1.8-5.1,3.5-4.5c3.1,1,4.6-0.9,5.8-2.4
		c9.6-11.3,20.1-22,28.3-34.3c7.4-11.2,15.5-22,24.3-32.2c4-4.7,7.7-9.6,11-14.8c21.4-32.8,41.4-66.3,58-101.9
		c5.8-12.3,12.5-24.3,15.5-37.7c0.5-2.3,3.8-5.2,0.7-7.1c-2.4-1.4-5.9-0.8-8.8,0.2c-1.9,0.7-3.7,1.4-5.5,2.3
		c-6.7,3.3-13,7.4-18.8,12.3c-28.5,24.2-51.8,52.7-71,84.6c-23.6,39-39.1,81.4-51.5,125.1c-2.6,9.2-4.8,18.5-5.5,28.5L272.4,346z
		 M437.7,1045.8c1.7-2.7,2.7-4.3,3.7-6.1c25.7-45.9,45.8-94.4,65.2-143.3c1.2-3.1,0.7-5.6-1.3-8.3c-8.7-11.4-19-21.4-29.5-31.1
		c-2.9-2.7-4.2-1.8-5.7,1.4c-13.2,28.1-27.2,55.9-41.8,83.3c-3.5,6.5-4.5,13.4-4,20.7c0.9,13,2.4,25.8,4.5,38.6
		C431,1015.7,433.8,1030.3,437.7,1045.8z M458.9,1080.4c6.2,0,10.6,0.6,14.8-0.1c31.6-5.2,61.6-15.4,89.2-31.8
		c5.5-3.2,5.7-4,2.7-9.9c-5.2-10-9.7-20.4-13.5-31.1c-1.4-4.1-2.9-5-7.1-3.2c-26.3,11.3-52.9,21.8-80.8,28.6
		c-6.2,1.5-10.6,4.2-13.1,10.1c-1.5,3.4-3.4,6.5-5.7,9.3c-3.8,4.7-4.3,9.5-2.1,14.9c1.6,4.1,0.6,10.1,3.8,12.4
		C450.6,1082.3,456.2,1080.2,458.9,1080.4z M87.7,963.6c1.8,1.5,1.1,2.7,1.1,3.8c-1.5,25.3-2.8,50.5-2.4,75.9
		c0.2,11.2,0.3,22.3,2.1,33.4c0.2,1.3-0.4,3.7,1.8,3.3c2-0.4,0.8-2.5,0.7-3.8c-0.3-6.5-0.9-12.9-1.2-19.4
		c-1.8-36.8,2.9-73.1,8.1-109.4c7.4-51.4,16.4-102.6,20.3-154.4c0.9-11.8,2.9-23.5,1.8-35.4c-1.1-12.4-4-24.7-2.8-37.2
		c0.2-1.3-0.6-2.6-1.9-2.8c0,0-0.1,0-0.1,0c-0.2,2.5-0.4,5-0.5,7.5c-1.5,28.1-4.3,56.1-8.5,84c-7.9,52.8-19,105.1-27.2,157.9
		c-3.8,24.5-7.9,49-7.5,73.9c0.2,11.8,1.8,23.6,4.9,35c0.9,3.2,1.9,5.5,5.9,4.8c4.5-0.8,1.9-3.9,1.9-5.8c0-4.1-0.7-8.3-0.8-12.4
		c-0.3-11.6-0.5-23.3-0.8-34.9c-0.1-0.7-0.4-1.4-0.7-2.1c-0.9,1.4-1.5,2.3-2.1,3.3C82.3,1006.9,82.9,985.2,87.7,963.6L87.7,963.6z
		 M557,741.5c-0.3,11.5-3.6,22.2-8.1,32.7c-9.5,22.3-22.3,42.7-37,61.9c-3.3,4.3-4.9,8.7-4.2,14.3c0.7,5.4,0.5,11,0.6,16.4
		c0.1,5.9,0.6,6.4,6.7,6.3c8.1-0.1,15.7-2.4,23.1-5.6c4.2-1.7,7.5-5.1,8.9-9.5c3.4-9.4,7.9-18.3,13.3-26.7
		c12.1-18.9,19.8-39.8,26.8-61c1.7-5.2,1.2-10.6-3.6-14c-9.5-6.7-16.5-15.4-22.5-25.1c-1.2-2-3.3-3.4-5.6-3.8
		c-0.8-0.3-1.7-0.2-2.3,0.4c-0.6,0.7-0.6,1.7,0,2.4c0.1,0.1,0.2,0.2,0.3,0.2C557.3,733.5,557.3,737.4,557,741.5z M127.5,399.3
		c0,13.9,3.6,27,9.7,39.3c3.8,7.9,9.7,14.5,17.1,19.1c10.1,6.2,20.7,4.2,27.8-5.3c3.1-4,5.2-8.6,6.3-13.5
		c3.9-18.7,2.1-36.8-6.4-53.9c-4.8-9.6-11.7-17.4-22.3-21.1c-12.8-4.5-23.1,0.2-28.3,12.8C128.5,384.1,127.5,391.6,127.5,399.3z
		 M460.2,1027.4c0.9-0.1,1.8-0.2,2.6-0.4c27.4-7.7,54.2-17.4,80.2-28.9c4-1.8,4.9-4.3,3.4-8.3c-5.2-14.2-9.5-28.7-12.9-43.5
		c-0.9-4-2.6-5.4-6.6-3.1c-7.5,4.4-15.5,7.8-23.8,10.1c-7,2-12.8,6.2-15.1,13.4c-3.6,11.7-9.2,22.5-14.4,33.4
		C469.3,1009.1,464.9,1018,460.2,1027.4z M16.4,801.3c31.6-126.4,42.9-254.4,37-384.1c-0.9,9.9-0.5,19.9-1,29.8
		c-2.5,50.7-10.6,100.6-20.3,150.3c-6.6,33-11.2,66.3-13.8,99.8c-1.6,22.3-1.7,44.6-1.9,66.9C16.3,776.3,16.4,788.6,16.4,801.3z
		 M622.8,797.2c-1.7-5.9-3.4-11.7-5.2-17.6c-0.5-1.5-1.1-3.5-3.4-2.8c-2.5,0.8-1.8,2.9-1.1,4.6c0.6,1.4,1.2,2.7,1.9,4
		c0.9,1.9,1.9,3.7,0.7,6.3c-3.6-3.5-5.8-8.1-6.2-13.1c-1.1-10.4-3.6-20.7-7.7-30.3c-3.6-9.1-5.8-18.8-6.5-28.6
		c-0.7-8.6-1.6-17-4.8-25.3c-4.5-11.8-11.1-23-12.1-36c-0.2-1-0.5-1.9-1-2.8c-3.4-7.6-7.3-15.1-8.7-23.5c-0.6-3.3-1.9-6.4-3.1-10.3
		c-4.2,5.3-8.4,9.5-10.5,15.3c-1.6,4.6,0.7,8.8,1.4,13.2c4,24.8,7.6,49.7,6.6,74.9c-0.1,3.6-1.3,7.9,4.3,9.1
		c1.7,0.4,1.9,2.5,2.2,4.2c0.6,3,2,4.5,5.7,5.3c2.5,0.5,4.7,2.5,7.8,1.5c0.9-0.3,1.5,1.1,1,2.2c-0.6,1.4-0.5,3,0.4,4.3
		c2.7,4.3,3.4,9.7,6.3,13.5c7.1,9.1,14.6,17.9,21.1,27.4C614.2,796,619.4,794.5,622.8,797.2z M265.8,561.2c1.1,3.2,2.2,5.5,5.2,6.6
		c20.5,7.8,41.1,15.3,62.2,21.6c3.5,1.1,4.4,0,4.4-3.4c0-7.2,0.8-14.4,3.5-21.1c1.9-4.7,0.8-6.3-3.8-8.3
		c-30.4-13.4-58.7-29.9-81-55.2c-2-2.3-4-4.6-6.5-7.5c-4.4,22.8,1.9,41.4,17.4,57.1c6.9,7,14.1,13.6,24.6,14.8
		C282.8,566.5,274.4,564,265.8,561.2z M334.9,420.1c0.4-5.5,0.5-10-0.5-14.4c-3.3-14.4,1-13.7-15.7-13.7c-2,0-4,0-6,0.2
		c-10.7,1-20.9,3.5-29.6,10.4c-9.7,7.7-10.4,25.7-1.1,32c4.5,3.1,9.2,6,13.9,8.7c13.9,8,30.2,4.1,36.7-8.6
		C335.1,429.8,334.2,424.3,334.9,420.1L334.9,420.1z M239.8,551.6c-4.7-13.6-14.5-23-21.7-34.1c-1.4-2-2.6-4.3-3.3-6.7
		c-0.8-2.7-4.4-6.6-1.6-7.8c3.3-1.4,3.5,3.8,4.5,6.2c10.8,25.7,28.4,44,55.6,52.2c0.9,0.3,1.7,1,2.8-0.1c-7-5.1-12.5-11.4-17.5-18.3
		c-0.5-0.7-1.2-2.3-2.1-1.6c-3.9,2.8-3.5-1.1-4.4-2.7c-0.7-1.3-1.2-2.6-2.6-3.5c-9.4-6.6-16.5-15.4-22.6-25.1c-0.6-1-1.2-2.6-2-2.7
		c-4.4-0.6-5.3-4.2-6.4-7.4c-1.1-3.4-2.2-2.9-4.8-1.3c-4.5,2.8-9.2,6.4-14.1,7.1c-6,0.9-4.8,3.3-3.5,6.8c1.9,5.1,3.7,10.3,5.8,15.4
		c1.3,3.1,2.5,6.4,5.8,9.7c-2.8-10.3-6.8-19.2-6.7-29.2c4,10.8,6.9,22,11.3,32.7c0.7,1.6-1.7,0.8-1.9,2.3c-0.1,1.1-1.3-0.1-1.7-0.6
		c-2.8-2.8-4.3-6.3-6-9.7c-3.8-7.4-6.9-15.2-9.2-23.2c-7.5,9.6-7,17.2,1.5,24.6c3.9,3.4,7.9,6.7,11.9,10c0.9,0.7,2,1.7,3,1.7
		c3.8-0.1,5.6,2.5,7.5,5c1.5,2,3.3,3.7,5.3,5.2c13.7,9.2,27.2,18.5,40.9,27.8c2,1.4,4,3,7,2.6c-4.3-6.9-12.9-9.3-17.4-17.1
		c1.8,1.1,2.7,1.6,4.7,2.8c-3.6-4.7-6.9-9.5-9.9-14.5c-2.7-4.2-3.2-10.2-8.8-13.5C239.1,547.3,241.2,548.4,239.8,551.6z
		 M636.4,679.6c1.1,2.2,1.9,4.1,2.8,5.8c16.2,32.4,32.6,64.8,46.6,98.3c26.3,63,41.7,128.3,44.1,196.6c0.1,3.8-0.4,7.8,1.1,11.6
		c2-15.4,3.1-30.7,3.6-46.2c0.3-10.3,2-20.8,0.4-30.9c-2.8-18.4-6.7-36.6-11.7-54.6c-7-25.5-15.7-50.5-31-72.6
		c-3.3-4.6-5.9-9.7-7.8-15c-4.9-14.5-11.6-28.3-18.9-41.8c-1.5-2.8-3-6.6-2.3-9.4c0.5-1.6,0.3-3.3-0.6-4.6
		c-7-11.4-14-22.7-20.8-34.1C640.9,680.7,638.7,679.4,636.4,679.6z M367.3,765.7c1.4,4.4,3.9,4.6,6.8,4.2c5.1-0.7,10.2-1.3,15.3-1.9
		c15.9-1.9,31.4-5.6,45.9-12.7c4.4-2.2,5.3-4.9,3.3-9.2c-3.6-7.9-8.9-14.8-13.4-22.2c-1.5-2.4-3-1.9-4.8-0.3
		c-5.1,4.4-11.3,7.2-17.9,8.2c-9.3,1.7-18.9,1.9-28.3,0.6c-4.5-0.7-6.5,0.7-6.8,5.4c-0.4,6.3-1.1,12.6-1.9,18.9
		c-0.4,3.4,0.7,5.4,4,6.3c2.7,0.6,5.3,2,7.3,3.9C373.8,767.6,370.3,767.2,367.3,765.7z M440.9,758.5c-2.5,1-4.1,1.7-5.7,2.4
		c-9.1,3.7-18.1,7.5-27.7,9.7c-3.9,0.9-7.8,1.6-11.6-0.7c-1.8-1.2-4.3-1-5.9,0.6c1.2,1.9,4.4,0.6,5.2,3.4c-4.7,0.7-9.3,1.3-13.9,2.1
		c-1.3,0.2-3.4-0.5-3.8,1.4c-0.3,1.7,1.6,2.3,2.7,3.2c8.5,7.5,18.4,13.2,27.8,19.4c8,5.3,12.5,12.3,11.4,22.2
		c-0.4,3.6,0.7,4.5,4.4,4.2c17-1.2,26.1-26.3,16.1-37.3c-4-4.4-4.1-9-2.5-14.3C438.9,769.6,439.7,764.4,440.9,758.5L440.9,758.5z
		 M507.3,737.6c-5.3,2.4-11.4,2.6-15.9,6c-8.6,6.6-18.8,10.9-29.6,12.5c-7.6,1.1-11.8,4.6-12.5,12.3c-0.1,1.4,0.2,4.3-2.9,3.4
		c-2.6-0.8-2.2-3-1.6-5c1.2-4.4,3.9-8.3,7.7-10.9c-3.6-0.5-6.5-1.1-8.9,1c-4.3,3.8-3,15.8,2,18.6c1.5,0.8,2.4,1.6,2.3,3.4
		c-0.2,3.7-1.6,3.9-6.3,1.3c-1-0.5-1.8-2.5-3.3-1c-1.1,1.1-0.6,2.5,0.1,3.7c4.3,7.9,8.8,15.7,14.8,22.4c0.9,1,1.7,2.9,3.6,1.3
		c6.1-5.4,11.7-11.3,16.7-17.6c-7.8-3-16.3,3.5-23.4-3.5c7.4-1.6,15.1-1.4,22.4,0.6c2.4,0.6,4,0.3,5.5-1.8c1.7-2.3,3.6-4.5,6.4-7.9
		c-4.5,1.4-7.4,2.5-10.5,3.3c-7.9,1.9-15.9,4.7-23.2-2.8c11.3-0.6,21.7-4.8,32.4-7.7c6.6-1.8,11.6-5.2,14.5-11.8
		C500.6,750.6,504,744.2,507.3,737.6L507.3,737.6z M480,377.3c-0.6-1.7,0.4-2.6,0.8-3.6c4.8-12.4,6.7-25.3,8.7-38.3
		c0.4-2.8-0.2-5-3.4-5.6c-2.1-0.4-4.4-3.2-6.2-0.2c-5,8.2-10.4,16.2-15.7,24.3c5.4-4,9.8-9,14-14.1c1.7-2.1,3.1-4.3,4.2-6.7
		c0.5-1.1,1.8-2.2,3.3-1.4c1.6,0.9,1,2.2,0.2,3.4c-0.7,1.1-1.4,2.2-2.3,3.3c-11.8,14.9-24.5,29-39.5,40.7c-1,0.8-2.8,1.2-2.7,3.3
		c6.7-0.2,13.1-0.6,19.1-4.4c5-3.4,10.9-5.1,16.9-5.1c-4.6,3.3-10.7,3.4-16.3,7.5c6.1,0,11.1-0.7,15.8,0.2
		c6.3,1.1,11.5-1.1,16.4-4.1c2.5-1.5,4.5-3.7,7.5-6.1c-2.3,5.7-6.6,9-9.6,13.3c3.9,2.1,7.6,4,11.2,6c2.5,1.4,5.2,1.7,7.6,0.3
		c2.3-1.3,1.5-3.9,1.3-6c-0.6-6.8-1.1-13.6-2.1-20.3c-1.1-7.5-3.3-14.6-8.4-21.2C496.4,355.6,492.2,368.7,480,377.3z M209.7,975.6
		l-1.4,0.3c2.3,23.4,1.5,46.9,1.8,70.3c0.2,10.3,1.3,20.6,3.2,30.7c0.4,2.3,1,3.6,3.7,3.6c8-0.1,16,0,24,0c2.3,0,3.1-0.7,1.8-3
		c-1.6-2.9-3-5.9-4.4-8.9c-8.9-19.7-13.2-40.7-18.9-61.4C216.6,996.5,213,986.1,209.7,975.6z M531.9,683c-0.9-4.4,0.6-7.4,0.8-10.5
		c0.1-1.4,1.1-3.5-0.9-3.9c-2.3-0.5-2.4,1.9-2.6,3.4c-0.9,7.7,0.6,15.2,0.9,22.9c0,0.8,0.4,1.6,1.1,2.1c8.3,5.3,11.9,14,16.5,22.1
		c0.9,1.6,1.2,3.8,4,5c4.1-25.6,4.9-50.6-1.4-75.5c-2,2.2-4.7,3.9-3.9,7.3c0.3,1.2-0.4,2.4-1.5,2.8c-5.8,2.3-5.6,6.6-4.2,11.6
		c3.1,10.5,6.2,21,9.2,31.6c0.5,2.1,0.8,4.2,1,6.3c-5.1-13.8-11.5-26.9-14.5-41.3C534.4,671.7,534.4,677.1,531.9,683z M527,919.9
		c13.9,38.7,19.8,80.1,40.6,116.5c-1.7-8.9,1-18.1-2.5-26.7c-7-16.9-12.7-34.3-17.3-52C544,943.2,536.2,931.2,527,919.9z
		 M21.6,646.3c-4.5,21.1-9.9,42-11.4,63.7c-1.9,27.4-4,54.8-3,82.3C7.8,806.9,6.6,821,1.9,835c-2,5.7-0.6,11.8-0.2,17.8
		c4.3-11.9,7.9-24,10.7-36.3c0.6-3.1,0.8-6.3,0.6-9.4c-2.1-43.5,1.1-86.8,5.1-130.1C19.1,666.7,20.5,656.5,21.6,646.3z M501,915.9
		c-6.1,18.6-13.8,36-22.2,53.1c-0.7,1.5-1.2,3.1-1.6,4.7c-4.6,14.6-12.6,27.6-19.5,41c-5,9.7-10.6,19.2-16.2,28.6
		c-2.2,3.7-2.7,7.6-0.2,12.1c4.7-6,8.8-12.4,12.2-19.2c10.7-20.3,19.7-41.4,29.6-62c7.5-15.7,13.1-31.9,19.2-48
		C503.7,922.7,503.2,918.8,501,915.9z M170.3,505.1c-7.9-2.7-14.5-6.8-22.4-10.6c5.7,17.9,7.4,35.4,9.2,52.8
		c1.1-14.4-0.3-28.7-0.7-43.1c2.2,1.6,1.9,3.7,2.1,5.6c1.5,16.5,1.1,33,0.9,49.4c-0.1,6.7-0.6,13.3-0.8,20c0,1.2-0.5,2.9,1.2,3.4
		c1.4,0.4,2.5-0.8,3.4-1.7c1-1.2,1.5-2.6,1.6-4.1c0.5-3.8,1-7.6,1.5-11.4c1.7-12.9,4.6-25.7,0.5-38.9
		C164.6,519.6,164.9,512,170.3,505.1z M548.5,334.8c0,2.5-0.1,5,0,7.4c0.4,10.6,0.6,21.3,0.4,32c-0.3,16.7-3.8,33.1-3.3,49.8
		c0.5,15-1.8,29.9-4.6,44.6c-1.6,9.2-4,18.3-7.1,27.1c7.3-10.8,12.3-23,14.5-35.8C556.2,418.2,553.9,376.4,548.5,334.8z M394.2,85.2
		c5.4,1.8,10.5,4.5,15,7.9c0.7,0.5,2.1,1.7,2.3,0.3c0.7-5.4,3.2-1,4.2-0.6c2.7,1.2,4.3,3.7,5.4,6.3c1.8,4.2,5.1,5.9,9.5,5.9
		c2.3,0,4.7,0,7,0.2c5.1,0.6,10.3,1,15.2,5.4c-9.6-1.4-18.1-2.6-26.7-3.9c-3.1-0.2-5.7-2.3-6.8-5.2c-0.9-2.8-3.2-4.9-6-5.6
		c1.5,2.2,2.8,4.4,4.1,6.7c1.9,4.3,5.1,6.4,9.7,6.5c10,0.4,19.2,3.4,28.3,7.3c1.5,0.6,3,1.9,5.5,0.9c-5-5.5-8.8-11.4-14.1-16.2
		c-10.2-9.2-21.1-16.7-34.6-20C406,79.8,400.1,80.2,394.2,85.2z M241.6,523.6c-0.3-0.4-0.6-0.8-0.9-1.2
		c-3.6-11.1-12.2-20.2-13.4-32.4c-0.1-0.8-0.1-1.7-1.2-1.9c-6.6,5.4-6.6,5.4-2.2,11.7c0.4,0.7,0.8,1.4,1.2,2.2
		c5.2,10.2,12,19.6,20.1,27.8c1.1,1.2,2.5,2.1,4.6,3.9c-7.8-25.3-6-50.2-6.8-75c-2.7,6.9-5.2,13.9-9.6,19.7
		c-3.6,4.7-3.1,9.2-1.4,14.4C235.2,503,238.6,513.2,241.6,523.6z M513.4,899.9c-6,16.8-11.9,33.4-18.1,50.9
		c8.1-3.8,15.3-7.2,22.5-10.5c11.6-5.3,11.5-5.3,7.7-17.4C523,914.7,520.2,906.6,513.4,899.9L513.4,899.9z M213.2,155.5l-1.2-0.3
		c-0.8,1.4-1.7,2.8-2.4,4.2c-28.3,52.6-34.6,109.8-35.5,168.2c0,3,1.6,4.5,4.3,5.1C178.4,271.3,187,211.7,213.2,155.5z
		 M678.9,1034.2c-0.5-10.5,2.4-20.8,0.3-31.1c-0.7-3.6-2.1-7.5,3.4-8.8c0.8-0.2,0.9-1.3,0.7-2.2c-0.2-1.2-1.2-0.8-2-0.7
		c-3.7,0.4-7.2-0.8-10.8-1.6c-5.6-1.2-11.2-1.9-17.5-0.6C662.7,1003.6,671.3,1018.6,678.9,1034.2z M494.2,640.5
		c-2.1,4.2-3.8,7.7-5.7,11.2c-1.9,3.4-2,5.5,2.8,5.6c4.1,0.1,6.3,2.5,6.4,6.7c0,3.5,0.3,7,0.9,10.4c1.8,9.7,6.6,17.4,16,22.8
		C514.8,675.4,505.9,657.8,494.2,640.5z M501.6,473.3l1.1,0c1.2-3.9,2.4-7.9,3.5-11.8c4.8-16.5,8.8-33,6.9-50.4
		c-0.2-1.4,0.5-3.5-1.3-3.8c-2-0.3-1.8,1.9-2.1,3.2c-3.3,11.6-6.6,23.3-10,34.9c-1,3-1.3,6.2-0.9,9.3
		C499.6,460.9,500.6,467.1,501.6,473.3z M198.1,474.8c0.6-0.5,1.1-1,1.6-1.5c3.7-5,6.4-10.5,8.1-16.5c0.7-2.1-0.6-3.1-2.1-3.9
		c-3.8-2-7.7-4-11.5-6c-2.6-1.4-5.2-1.8-6.9,1.2c-1.8,2.9-5.4,5.4-2.2,9.7c3.6,5,7,10.1,10.6,15.1
		C196.3,473.7,196.7,474.6,198.1,474.8L198.1,474.8z M571.7,1030.1c-5.1,6.8-2.7,12.8,0.5,19.2c4.6,9.2,9,18.5,12,28.4
		c1.2,4,4.2,3.1,6.4,2.5c2.7-0.8,0.7-3,0.1-4.4c-6.5-14.7-12.5-29.6-18.1-44.7C572.3,1030.8,572.1,1030.4,571.7,1030.1z
		 M532.4,491.1c7-19.8,10.7-40.5,10.8-61.5c-3,14.1-7.7,27.7-14,40.7c-0.5,1.1-0.7,2.2-0.5,3.4C529.9,479.5,531.2,485.3,532.4,491.1
		z M219.6,998.9c3.1,11.7,6,23.4,9.2,35.1c4.1,14.9,8.5,29.7,15.6,43.5c0.8,1.5,1.4,3.6,3.5,2.6c1.9-0.9,0.5-2.6-0.2-3.8
		c-8.2-16.7-13.2-34.4-17.3-52.4C228.5,1014.9,225.7,1006.3,219.6,998.9z M177.2,572.3c-3.4,2.8-6.4,5.4-9.7,7.7
		c-3.2,2.3-6.7,4.3-10.1,6.3c-4.8,2.9-9.7,5.8-14.5,8.7c-1.2,0.7-3,1.5-2,3.3c1,1.8,2.9,1.6,4.3,0.5c6.3-5.1,13.9-6.7,21.3-9
		C174.5,587.4,178.2,581.1,177.2,572.3L177.2,572.3z M346.1,378.2c-1.7,0-3.3,0-5,0c-1.6-0.1-3.2,0.3-3.3,2.1
		c-0.1,1.9,1.8,1.4,3,1.8c7.8,2.2,15.5,4.7,21.8,10.4c1,0.9,2.2,2.8,3.7,1.2c2.2-2.2,4.6-4.9,4.8-7.9c0.1-2.2-2.6-0.5-4.1-0.8
		c-0.7,0-1.3-0.3-1.8-0.7C360.2,378.1,353,378.5,346.1,378.2z M290.9,138.6c16.8-18.5,36.4-34.1,58.1-46.4
		C323.5,99.9,305.9,117.7,290.9,138.6z M514.7,343c-2.5-14.8-6.8-28.7-6.3-43.4C502.1,317.1,505,340.1,514.7,343z M708.5,906.8
		c-0.4,16.9,1,33.9,4,50.5C716.4,946.4,714,916.2,708.5,906.8z M558.2,688.6c-0.4,11.3-1.6,22.5-3.4,33.6c-0.7,3.9,2.2,4.2,4.3,4.6
		c2.9,0.5,2.4-2.1,2.4-3.8c0-6.5,0.2-13-0.2-19.5C561,698.5,561.2,693.3,558.2,688.6z M403.7,109.5c-14.9,3.8-40.5,23.5-48.3,37.2
		C372.2,134.1,385.6,118.7,403.7,109.5z M691.5,979.5c14.1-2.2,15.9-25.1,13.2-43.4C701.2,950.9,704.5,967.7,691.5,979.5z
		 M456.9,867.4c1,2.4,0.1,5.2,2.6,5.6c2.4,0.5,2.4-2.3,3.2-3.7c1.8-3.3,3.4-6.8,5-10.2c1.1-1.9,1.5-4,1.4-6.2
		c-0.2-1.5-1.3-2.8-2.7-3.3c-0.9-0.3-1.8-0.3-2.2,0.5C461.7,856,459.2,861.9,456.9,867.4z M375.9,71.4c5.2,1.9,8.1,6.2,11.8,9.7
		c0.9,0.9,2.4,3.1,3.4,0.9c1.9-4,6-5.2,9.6-7.8C392.3,71.3,384.4,69.7,375.9,71.4z M486.4,364.5c0.7-1.1,1.4-2.2,2-3.4
		c3.5-7.3,6.4-14.9,8.7-22.7c1-3.2,0-4.7-3-5.4c-3.6-0.8-2.8,2-2.9,3.7C490,346,488.5,355.3,486.4,364.5z M171.9,545.3
		c-0.3,10.1,1.5,20.3-2.6,31c4.6-2.8,8.4-5.1,8.1-10C176.9,558.9,175.7,551.8,171.9,545.3z M3.2,764.7c-1.5,19.2-2.3,38.4-2.1,58.6
		c1.8-1.6,3-3.9,3.4-6.3c0.8-3.4,0.9-7,0.5-10.4C3.2,792.7,4,778.7,3.2,764.7z M186.7,524.8c-1.3-6.6,1.7-11.4,4.8-16.7
		c-4,0.2-8.2-1.9-10.5,1.5c-2.2,3.4-0.4,7.3,1.5,10.7C183.3,521.8,183.9,523.6,186.7,524.8z M708.3,973.3c-2.1,1-3.3,2.3-1.7,4.6
		c1.8,2.7,1.6,5.6,0.6,8.6c-2,6.6-1.2,13.1,0.9,20.8C710.9,995.2,712.6,984.3,708.3,973.3z M354,67.7c-20.4-3.2-39.2,2.3-57.3,10.9
		C315.2,72,334.2,67.7,354,67.7z M448.8,813.6c5.8-4.4,5.8-5,0.6-10.2c-1.4-1.5-2.3-1.8-3.1,0.3c-2,5.3-3.9,10.7-6.1,16.6
		c6.6-2.4,4.7-9,8-12.5C449.3,809.6,448.1,811.5,448.8,813.6z M244.8,1058.4c0,2.6-0.3,4,0.1,5.1c1.9,5.6,6.8,9.8,7.8,16
		c0.3,1.8,3.3,1.3,4.9,0.6c1.1-0.5,1.6-1.8,1.1-2.9c-0.2-0.4-0.4-0.7-0.7-0.9C251.8,1072.1,249.5,1065.2,244.8,1058.4z M510,524.4
		c-1.7-6-3-10.7-4.4-15.4c-0.5-1.5,0-4.2-2.8-3.4c-2.3,0.6-2.7,2.8-2.2,4.9C501.9,515.8,504.6,520.2,510,524.4z M733.9,1003.4
		c4.2-16.9,5.6-34.3,4.1-51.7C737.2,969,735.5,986.2,733.9,1003.4z M588.7,348.1c3.5,12.3,5.1,24.8,6.5,37.4
		C597.4,372.7,595.1,359.5,588.7,348.1z M510.9,402.9c1.6,0,2.1-1.1,1.4-1.9c-1.5-2-1.4-3.8-0.5-5.9c0.4-1,0.2-2.5-0.6-2.6
		c-2.7-0.6-4.8,1.8-7.4,2.1c-0.7,0.1-1.1,0.7-1,1.4c0,0.2,0.1,0.4,0.3,0.6C504.9,399.4,507.7,401.6,510.9,402.9L510.9,402.9z
		 M674.7,854.5c-5.7-7.5-11.5-15-17.2-22.5l-1,0.8C661,841.2,666.6,848.9,674.7,854.5z M545.5,478.1c7.9-8.4,9.4-15.1,5.4-20.9
		C549.2,463.9,547.5,470.6,545.5,478.1z M490.6,311.5l-1.3-0.4c-1.6,3.2-3.2,6.3-4.9,9.5c-0.7,1.3-0.5,2.2,0.8,2.8
		c1.4,0.7,2.8,2,4.6,1.4c1.5-0.5,0.8-1.9,0.8-3C490.6,318.4,490.6,315,490.6,311.5z M609.3,980.7c-9-5.2-19.1-7.7-28.3-12.3
		C589.5,974.6,598.8,979.1,609.3,980.7L609.3,980.7z M609.7,794.7c4.6,7.4,11.5,8.4,17.4,10.8C621.9,801.9,617.5,796.9,609.7,794.7
		L609.7,794.7z M398.8,375.4c-5,4-10,7.9-16,12.6C391.9,387.3,394.7,380.5,398.8,375.4z M703.3,972.1c8.2-6.3,6.9-13.7,5.7-21.1
		C708.3,958.4,706.4,965.5,703.3,972.1L703.3,972.1z M313.7,322.8c6.7-1.4,13.4-2.4,19.6-5.5C326.5,317.6,319.8,319.4,313.7,322.8z
		 M673.1,988c3.2,1.5,6.3,2.4,9.6,1.5c0.9-0.3,2-0.6,1.8-1.9c-0.2-1.6-1.3-1-2.2-0.9C679.2,987.1,676.1,987.6,673.1,988z
		 M703.8,919.4c1-7.7,1.4-15.3-0.4-22c0,5.7,0,12.1,0,18.6C703.5,917.1,703.6,918.3,703.8,919.4z M411.6,102.3
		c0.9,2.7,1.3,5.2,4.3,5.4c0.9,0.1,1.7-0.5,1.5-1.5C416.7,103.6,414.7,102.7,411.6,102.3z M474.8,793.2c-3,3.3-6.1,6.6-9.1,9.9
		C469.5,800.5,472.9,797.5,474.8,793.2L474.8,793.2z M596.3,408.6c1.5-3.4,1.4-6.8,0.9-11.1C594.9,401.6,595.7,405.1,596.3,408.6z
		 M517.6,726.7c-0.4-0.2-0.8-0.4-1.2-0.6c-2,4.2-4,8.4-6,12.6c0.3,0.1,0.6,0.3,0.9,0.4C513.4,735,515.5,730.8,517.6,726.7z"/>
	<path d="M0.6,897c4.4-7.4,6.2-15.7,8.8-23.7c17.6-54,31.8-108.9,42.6-164.6c6.4-32.7,10-65.8,12.4-99c3.1-42.2,3.5-84.5,3.7-126.8
		c0.2-39.5-2.3-78.9-6-118.2c-2.3-22.6-2.3-45.3-0.2-67.9c1.1,3.1,0.8,5.6,0.7,8c-0.7,41.2,2,82.2,7.1,123.1
		C72.5,450.3,77,472.5,80,495c6.5,48.3,10.4,96.6,4.4,145.4c-6.3,51.3-19.2,100.9-36,149.6c-13.6,39.3-27.8,78.3-41.6,117.5
		c-2.5,7-4.2,14.3-6.2,21.5V897z M70.4,453.9c0,8.6,0,17.2,0,25.8c0.2,39.8-0.3,79.6-2.8,119.3c-2.5,39.6-6.6,79-14.6,117.8
		C40,779.5,23,841.1,2,901.5c-1.2,3.1-1.2,6.6-0.1,9.7c8.2-27.6,18.1-53.1,29-78.3c4.4-10.1,6-20.8,9.7-31c1-2.8,2.3-5.5,3.4-8.3
		c27.3-67.1,41.2-138.9,41.1-211.3c0-25.3-1.6-50.6-4.7-75.7C78.1,488.9,75.3,471.4,70.4,453.9L70.4,453.9z"/>
	<path d="M10.6,1081c2.9-0.5,3-1.9,2.1-4.5c-4.5-12.9-7.5-26.3-9-39.8c-0.3-2.2-0.1-4.4,0.5-6.5c1.4,7.9,2.8,15.8,4.3,23.6
		c1.5,7.3,3.5,14.5,6,21.6c1.2,3.8,3.1,5.6,7.2,4.9c1.5-0.2,3-0.2,4.5,0c3,0.3,3.6-0.8,3-3.8c-1.7-8-3.5-15.9-4.6-24
		c-3-21-0.7-41.9,2.5-62.6c5.3-34.4,14-68.1,20.3-102.3c0.2-1.6,0.8-3.1,1.7-4.4c1.8,1.1,0.7,2.3,0.5,3.3
		c-9.5,43.6-19.5,87-23.6,131.6c-1.8,19.2-0.7,38.3,5.6,56.7c0.4,1.3,0.8,2.5,1.3,3.8c1.1,2.6,3.4,1.8,5.2,1.6
		c2.5-0.3,1.4-2.3,1.1-3.5c-12.1-48-5.9-95.6,2.9-143.1c7-37.8,18.4-74.6,27.7-111.9c7.8-31,14.6-62.3,18.7-93.9
		c2.8-21.5,7-42.7,8.9-64.3c2.7-30.1,2.1-60.2,0.4-90.3c-0.8-14.1-1.1-28.3-1.6-42.4c0.1-0.9,0.2-1.8,0.4-2.7c2.3,1.4,2.2,3.3,2.2,5
		c-0.2,27.5,2.6,54.9,2.1,82.4c-0.1,7.5-0.4,15.1,0.4,22.5c1.7,15.1-2.7,29.4-4.4,44.1C89.1,752.3,73,821,54.3,889.3
		c-13.5,48.7-19.8,99.1-18.7,149.6c0.2,8.2,0.7,16.7,4.3,23.9c3,5.9,4.7,12,6.7,18.2H10.6z"/>
	<path d="M108.6,1081c-0.1-27,0.9-54,2.2-80.9c1.7-35.9,3.5-71.8,5.4-107.8c1.6-29.1,3.4-58.2,5.3-87.3c0.5-8.1,2.1-16.2,3.3-24.9
		c2.8,4.7,4.2,9.2,3.9,14.1c-1,19.9-2,39.9-3.1,60.8c-2.8-4.4-2.5-8.3-1.6-11.8c2.7-10.8,0.6-22,2.5-32.8c0.2-1.1,0.2-2.7-1.2-2.9
		c-2.2-0.3-2.2,1.8-2.3,3.1c-0.5,8.6-0.9,17.3-1.4,25.9c-1.5,26.8-3.7,53.5-4.5,80.3c-1.2,37.4-3.5,74.9,0.6,112.3
		c1.7,15.9,3.5,31.8,10.7,46.5c0.9,1.6,1.3,3.5,1.2,5.3H108.6z M110.6,1057.8c0.4,6.9,0.6,13.1,1.1,19.2c0.5,6.1,5.2,3.1,8.1,3.4
		c3.7,0.4,2.5-2.5,2.2-4.5c-1.6-13-5-25.8-5.9-38.9c-0.1-1.3,0-2.9-2-2.8c-1.6,0.1-1.6,1.5-1.7,2.6
		C111.7,1044,111.1,1051.3,110.6,1057.8z"/>
	<path d="M132.6,1081c0.7-17.9-1.6-35.6-3.6-53.2c-1.2-11,1.5-21.9-0.1-32.8c6.8-14.5,3.1-30.1,4.4-45.1c1.4-15.4,1.1-30.9,1.4-46.4
		c0.2-7.3,0-14.4,4.5-21c3.1-4.4,2.4-10.2,2.8-15.5c0.1-1.4-0.6-3,1.2-4.4c1.3,7.4-0.2,14.4-1,21.3c-4.3,36.9-7,73.9-9.4,110.9
		c-0.2,2.9-0.5,6,1.2,8.7c0.3,0.4,0.7,1.1,0.5,1.3c-4.2,6.2-0.5,13.1-1.9,19.8c-2.7,13.2,1.1,26.7,3.9,39.9c6.4,3.9,4.7,10.7,6,16.4
		H132.6z"/>
	<path d="M65.6,1081c-1.3-3.2-2.6-6.4-4.2-10.4c1.3,1,2,1.6,3.1,2.5c-0.6-5.7-2.6-10.5-3.9-15.5c-1.7-6.3-3.7-12.4-3.5-19.1
		c0-0.7,0.1-1.6-0.3-1.9c-6.7-6.5-3.4-14.9-4.3-22.4c-0.2-2.5,0.2-5,1.2-7.4c2.3,12.5,3,25.3,6.1,37.7c3.1,12.4,7.8,24.3,11.8,36.5
		H65.6z"/>
	<path d="M53.6,1081c-4.6-4.6-6.4-8.4-8.3-18.8c1.2,2.9,2.5,5.9,3.7,8.8c-0.8-10.5-1.8-20.8-4.9-30.8c-3.9-12.5-3.9-25.2-2-38
		c0.3,27.1,6.7,53.1,14.4,78.8H53.6z"/>
	<path d="M537.6,1081c3.5-7.7,8.8-13.3,16.1-16.7c-2.1,5-5.5,8.4-8.6,12.1c-1.3,1.5-3.2,2.4-3.5,4.6H537.6z"/>
	<path d="M668.7,402c2.7-1.3,4.9-2.5,7.2-3.4c7.3-2.7,14,1.3,15,9c0.6,3.8,0.3,7.7-0.8,11.4c-7.2,20.9-20.6,35.7-42.2,42.4
		c-3.5,1.1-6.2,0.8-7.3-3.4c-5.8-21.6-7.2-43.2,0.5-64.8c1.7-4.9,4.1-9.5,7.9-13.1c6.1-5.7,13.3-4.6,17.6,2.6
		c2.4,4.2,3.4,9.1,2.7,14C669.1,398.4,668.9,400,668.7,402z M666.5,406.5c1.2-6.9,1.4-13.4-0.2-19.8c-0.9-3.7-2.8-6.8-6.9-7.8
		c-4-1-7.2,0.5-9.9,3.3c-2.3,2.4-4,5.3-5.3,8.4c-9,21.4-7.7,43.2-2.3,65.2c1.1,4.6,4.2,3.9,7.4,3.1c19.2-5,37.5-26,39.8-45.8
		c0.6-4.8,0.3-9.4-4.4-12.3c-3.7-2.3-9.5-1.1-13.9,2.5C669.5,404.3,668.7,405.9,666.5,406.5L666.5,406.5z"/>
	<path d="M166,364.5c1.7-7.2,3-13,4.4-18.8c0.5-2,1.6-2.4,3.2-1.4c2.8,1.7,5.9,3,8.4,6C176.3,354,173.5,360.7,166,364.5z"/>
	<path d="M146.9,231.3c5.5,14.4,12,28.4,19.5,41.8C154.7,261.5,150.2,246.6,146.9,231.3z"/>
	<path d="M207.6,440.4c0,1.9-0.6,2.5-2.2,2c-3-1-6-1.8-9-2.8c-2.7-0.8-2.3-3.1-1.9-4.9c0.6-2.5,2.5-1.6,4-1
		C202.2,435.2,205.9,436.8,207.6,440.4z"/>
	<path d="M604.2,417.1c0.9-16.5,2.4-33,2.9-49.5C608.3,384.3,607.9,400.8,604.2,417.1z"/>
	<path d="M624.2,443.8c-4.4-4.2-7.9-2.2-11.5,1c-2.7,2.4-5.1,5.3-8.8,6.3c-2.2,0.8-4.6,0.4-6.4-1.2c7.5,0.4,11.4-4.1,15.8-7.9
		C618.6,437.4,622.2,438.1,624.2,443.8z"/>
	<path d="M164.9,343c1,5.6-0.3,10.8-3,15.7C159.6,352.9,161.8,347.9,164.9,343z"/>
	<path d="M207,398.5c-2.4-0.4-1.6-2.6-2-4c-1.8-5.9-3.5-6.7-9.4-4.8c-1.6,0.5-3,2.1-6.2,1c4.4-3.1,9-3.9,13.2-5.3
		c1.3-0.4,1.8,1.6,2,2.9c0.7,3.4,1.5,6.8,2.3,10.1L207,398.5z"/>
	<path d="M206.9,398.6c1.9,9.4,0.9,10.8-8.9,11.7c-0.9-0.1-1.8-0.3-2.6-0.6C201.8,407.6,209,407.2,206.9,398.6
		C207,398.5,206.9,398.6,206.9,398.6z"/>
	<path d="M16,1059.5c-4.8-19.8-6.2-39-6.6-58.4c0-2-0.2-4-0.4-6c-0.1-0.8-0.2-2.1-1.1-1.8c-4.7,1.7-3.3-2-3.5-4
		c-1.9-12.7,1.6-24.8,4.2-37c0.9-3.9,0.9-8.1,2.6-11.7c5.1-10.8,8.2-22.2,12.1-33.4c4.7-13.9,11.2-27,15.6-41c0.9-2.7,1.3-5.1-1-7.3
		c-1.5-1.5-1.5-3.3-1-5.1c4.3-14.3,10.6-27.8,16.3-42.4c1.3,2.9,0.4,4.7,0,6.5c-9,37.5-19.9,74.5-30.9,111.5
		c-12.1,40.8-13.9,82.2-6,124C16.8,1055.5,16.7,1057.6,16,1059.5z"/>
	<path d="M74.5,244c-1.1,10.2-2.2,20.5-3.2,30.7c-2.6,28.5-2.6,57.3-0.2,85.8c2,25.1,3.3,50.2,6.3,75.1c3.3,27.4,6.5,54.9,9.6,82.3
		c1.1,9.7,2.1,19.5,1.2,29.4c-1.6-17.7-2.7-35.4-5.7-52.9c-5-29-7.4-58.4-12.3-87.5c-3.4-20-2.1-40.5-2.9-60.8
		c-0.7-16.5,0.6-32.9-0.6-49.4c-0.4-5.1,0.7-10.3,0.1-15.7c-0.4-3.8,3.3-7.7,3.2-12.2C70,260.3,72.6,252.2,74.5,244z"/>
	<path d="M70.3,925.6c3.7,30-0.1,59.6-3.8,89.3C62.6,984.9,62.3,955,70.3,925.6z"/>
	<path d="M60.4,587.5c-1.2-1-1.7-2.5-1.5-4c1.7-8.8,0.4-17.6-0.1-26.4c-0.4-5.3,0.1-10.7,1.5-15.8c1.4-4.8,0.8-9.5,0.7-14.4
		c-0.3-26.1-0.9-52.3-0.3-78.4c0.4-15.1,0.9-30.3,1.2-45.4C64.9,433.3,63.7,576,60.4,587.5z"/>
	<path d="M69.7,862.4c-3,29.8-9,59.3-17.8,88c-0.2-15.2,0.7-30.3,5-44.8c2.1-0.4,2.1,2.8,3.9,1.8c1.3-0.7,0.7-2.4,0.8-3.7
		C63.1,889.7,65.8,875.9,69.7,862.4z"/>
	<path d="M81.3,752.6c-6.5,31-13.2,61.9-22.6,92.3C64.4,813.7,72.8,783.2,81.3,752.6z"/>
	<path d="M81.5,418.8c3,12.4,6,24.7,8.9,37.2c2.5,11.2,4.8,22.4,7.1,33.6c0.3,1.4,1.2,3.7-1.1,4.2c-2.1,0.4-2.6-1.7-2.8-3.4
		c-2.7-23.5-8.5-46.4-12.8-69.5c-0.1-0.6-0.1-1.3,0-1.9L81.5,418.8z"/>
	<path d="M48.2,852.4c2.9,2.6,4,4.9,2.6,7.7c-9.5,18.1-12.2,38.7-20.2,57.3c-0.3,1-0.9,1.8-1.6,2.6
		C35.3,897.8,42.1,875.6,48.2,852.4z"/>
	<path d="M52.8,965.3c-2,22.6-6.5,44.9-1.9,68.5c-3.5-6-1.6-12.6-6.2-16.9c-0.2-0.4-0.2-1,0-1.4c4.7-10.2,1.4-21.4,3.8-31.9
		c1.2-5,1.4-10.2,2-15.3C50.4,966.8,51.4,965.6,52.8,965.3z"/>
	<path d="M116.7,559.2c3.8,11.5,5.1,33.5,2.8,44.5c-0.3,1.2-0.2,3.2-1.8,3.1c-2-0.1-1.2-2-1.2-3.2
		C117.1,588.9,117.4,574.3,116.7,559.2z"/>
	<path d="M80.1,820c2.7-24.2,7.7-47.8,13.2-71.4C90.1,772.6,85.7,796.5,80.1,820z"/>
	<path d="M34,764.8c-3.2,22-7.1,42.7-13.1,63.1c-0.4-6.2,2-12,2.8-17.9c1-7.3,4.9-14.2,2.7-21.9c-0.4-1.3,0.5-2.6,1.3-3.7
		c2.7-4,3.9-8.9,3.4-13.7C31.1,768.7,31.3,766.9,34,764.8z"/>
	<path d="M107.5,564.1c2.8,18.3,3.1,36.8,4.3,55.2c-0.5,0-0.9,0.1-1.4,0.1c-1.6-18.4-3.2-36.7-4.8-55.1
		C106.2,564.2,106.9,564.1,107.5,564.1z"/>
	<path d="M67.5,755.6c1.4,8.4-2.7,15.5-5.2,23.1C62.6,770.7,66.7,763.5,67.5,755.6z"/>
	<path d="M37.2,837.2c-1.7,9-4.1,17.8-7.3,26.4C31.5,854.6,33.9,845.7,37.2,837.2z"/>
	<path d="M128.8,988.7c-0.7-6.4-1.4-12.9-2-19.3c0-0.7-0.1-1.3-0.2-2c-7.6-17.5-5.9-35.7-4.4-53.8c0.8-8.9,1-17.9,0.7-26.9
		c-0.2-4.1,0-8.3,0-12.9C124.7,877.5,130.3,980.1,128.8,988.7z"/>
	<path d="M105,1068.1c-3.8-13.2-4.2-26.7-4.4-41.1c1.4,2.6,1.2,4.7,1.4,6.7c0.7,5.5,0.1,10.8,3.1,16.3
		C108,1055.3,105.2,1062,105,1068.1z"/>
	<path d="M164.5,1074.5c-3.3-8-2.2-16.3-2.2-24.6C164.5,1058,164.6,1066.2,164.5,1074.5z"/>
	<path d="M131.8,823.7c0.6-8.5,1.2-17,1.9-25.5C136.4,806.8,135.4,815.3,131.8,823.7z"/>
	<path d="M612.4,1024v-11.5c4.7,17.7,5.8,36,10.1,53.9c-1.8-0.3-1.9-1.5-2.1-2.6c-3.2-18.1-10.9-34.4-20-50.2
		c-5-8.7-8.7-17.9-12.9-27c-0.5-1.1-1.9-2.6-0.3-3.5c1.9-1.1,2.5,1,3.1,2.3c4.9,10,9.8,20,14.6,30C606.6,1019,609.1,1022,612.4,1024
		z"/>
	<path d="M631,1020.2c4.1,11.7,8.9,23.2,10.2,35.7C637,1044.2,632.7,1032.5,631,1020.2z"/>
	<path d="M182.8,976.2c-1.5-10.2-1.4-20.6,0.2-30.8C185.4,956.5,184,966.4,182.8,976.2z"/>
	<path d="M690.3,1068.3c0-5.1-2.5-9.8-0.9-14.7c0.6-1.8,0.4-4.5,3.4-3.7c2.5,0.6,3.3,3.1,2.6,5.2
		C693.9,1059.6,692,1063.9,690.3,1068.3z"/>
	<path d="M256.1,1009.7c-4.2-5.2-7.1-11.6-12.9-15.5c-2.5,2.8,2,4.9-0.4,8.5c-5.9-10.1-13.8-18.3-18-30.1c4,1.9,5,4.8,6.6,7.2
		c0.8,1.3,1.7,3,3.4,2c2-1.3,0.2-2.7-0.8-3.5c-6.3-4.7-8-12.9-13.4-18.1c-5-4.8-6.1-11.1-8.9-16.7c-1-1.7-2.1-3.4-3.5-4.8
		c-0.5-0.7-1.5-0.9-2.2-0.4c-0.6,0.6-0.7,1.6-0.2,2.3c4.2,7.8,4.2,17.1,8.6,24.9c1.5,2.6,2.7,5.3,4.8,7.5c4.1,4.2,6,9.5,7.5,15
		c2.8,11,7.2,21.5,13.2,31.1c1,1.4,1.5,3,1.6,4.6c-0.1,2.3,0.6,4.2,2.9,5.3c1.9,1,3.4,2.8,3.9,5c3.1,9.8,6.1,19.6,8.8,29.6
		c-5.2-8.8-11.8-16.7-14.6-26.8c-4.4-16.3-11.4-31.6-19.7-46.2c-10.9-19-16.5-39.9-23.2-60.4c-1.3-4.1-2.7-8.1-4.3-12.8
		C203.2,924.4,252.5,999,256.1,1009.7z"/>
	<path d="M340.3,894c-2.2-0.4-2.4-2.2-3.1-3.3c-17.9-26.5-34.3-53.9-50.7-81.2c-1.6-2.6-4.3-5.5,1.1-7.2c1.3-0.4,0.8-1.3,0.4-2.4
		c-2.8-6.6-7.9-11.4-12.5-16.6c-10.6-12.4-20.3-25.6-29-39.3c-0.2-0.6-0.3-1.1-0.4-1.7c2.4,0.3,3.1,2,4,3.5
		c9.4,14.9,20.2,28.9,32.3,41.8c7.7,8.3,15.5,16.9,21.4,26.2c6.5,10.3,13.5,20.8,16.9,32.9c3.5,12,9.6,23,14.6,34.4
		C337.1,885.1,339.3,889.2,340.3,894z M292.2,804.1c-2.4-0.3-3.2,1.9-1.7,5.3c4.9,11.5,13.7,20.3,20.4,30.7c0.6,0.9,1.5,1.5,2.5,0.8
		c1-0.7,0.5-1.9,0.1-2.7c-2.4-5.3-3.8-11.1-7.3-15.8c-1.4-1.8-0.7-4.8-3.8-5.8c-3.3-1.1-5.6-4-5.9-7.4
		C296,806.6,294.2,805.1,292.2,804.1z"/>
	<path d="M341.5,947.3c-2.1,1.9-3.2,1.5-4.8-0.4c-18.8-22.5-37.6-45-56.5-67.4c-1.1-1.4-2.5-2.7-2.7-5.4c2.5,1.3,4.6,3.2,6.2,5.6
		c11,14.5,25,26.3,36.7,40.2c6.1,7.3,15.2,11.8,21.2,19.6c1.4,1.8,3,3.6,4.5,5.4c0.4,0.5,1.3,1.4,1.1,1.5c-2.4,3.6-1.7,7.1,0,10.7
		c0.1,0.1-0.7,0.9-1,0.8c-0.6-0.2-1.1-0.5-1.5-1C342.8,954.2,340.6,951.6,341.5,947.3z"/>
	<path d="M178.6,822.2c-10-13.3-18.7-26-25.7-39.8c-5.7-11.1-11.2-22.3-16.8-33.4c-0.7-1.5-1.3-3.4-3.1-3.7c-4-0.7-5.8-2-2.4-5.7
		c0.5-0.5,0.2-1.3-0.3-1.8c-7.9-8.1-8.5-19.2-11.5-29.1c-2.8-9.4-1.9-19.5-2.3-29.3c-0.7-18.8,0.3-37.7,3.2-56.3c0.3-1,0.6-2,1-2.9
		c2.3,1.7,2.1,3.8,1.7,5.9c-3.4,16.9-5.5,33.8-3.1,51c0.4,3.8,0.4,7.7,0,11.5c-1,15.2,3.1,29.2,10,42.7
		c8.6,16.7,16.7,33.7,25.3,50.4c5.6,11,11.9,21.5,19.9,31C177,815.3,178.4,818.6,178.6,822.2z"/>
	<path d="M301.4,803.1c-4.4-3.6-7.4-8.4-11.1-12.7c-8.5-9.8-17-19.6-25.4-29.5c-2.4-2.8-4.8-5.5-5.9-9.2c6,6.6,14.3,10.1,21.1,15.6
		c1.2,1,1.8,2,1.1,3.4c-0.7,1.3-0.9,2.9-0.6,4.4c0.8,3,3.1,5.4,5.9,5.1c1.9-0.2,2-3.4,2-5.6c0-1.2-0.2-2.3-0.7-3.4
		c-5.2-13.3-9.7-26.9-16.4-39.6c-0.7-1.3-2.8-2.9-0.3-4.1c1.7-0.8,3.7,0.3,4.5,2.2c2,4.4,4,8.8,5.6,13.3c5.8,17.3,11.5,34.7,17,52.1
		c0.9,2.7,2.4,5.1,3.4,7.7L301.4,803.1z"/>
	<path d="M313.5,873.6c1.4-1,2.2,1.1,3.9-0.3c-9.4-7.7-16.5-17.9-28.4-22.5c-3.9-1.5-7.3-4.1-9.7-7.5c-6.8-9.9-14.6-19-23.4-27.2
		c-0.6-0.6-1.1-1.3-1.4-2c-0.1-0.2,0.1-0.6,0.2-1.3c2.7,0.7,4.5,2.8,6.2,4.6c14.3,15.3,29.6,29.7,45.7,43.2
		c15.7,13.3,27.2,30,39,46.5c4.2,5.8,8.8,11.3,11,18.3c0.4,1.2,2,3-0.3,3.7c-1.7,0.5-1.9-1.5-2.4-2.6c-4.5-10.7-11.4-19.9-18.6-28.8
		c-3.4-4.1-6.9-8.1-9.4-12.8C323,880,317.3,878.1,313.5,873.6z"/>
	<path d="M178.2,860.2c18.3,14,35.2,29.6,50.6,46.7c-3.3,0.6-4.7-1.2-6.2-2.6c-9.3-9.3-18.6-18.5-27.9-27.9c-1.9-1.9-3.6-3.9-7-4.1
		c3.2,10.5,9.4,18.9,16.4,27.7C196,896.2,186.2,881,178.2,860.2z"/>
	<path d="M388.1,991.4c-5.5-8.7-9.2-18.3-12.5-28c-6.2-19-14.1-37.4-23.4-55c-6.8-12.8-11.2-26.5-15-41.2c2.2,1.6,2.5,3.5,2.9,5.1
		c6.4,21.6,16.2,41.8,26.5,61.7C376.1,952.3,382.2,971.8,388.1,991.4z"/>
	<path d="M210.2,696.3c-8-7.5-16.8-14.1-25.5-20.8c-1.2-0.9-2.1-2.7-3.7-2.3c-5.2,1.1-6.3-2.6-8.9-5.8c-3.9-4.8-7.2-10.4-12.5-14.1
		c-0.9-0.7-2.1-1.5-1-2.8c0.7-0.8,1.5-0.2,2.1,0.4c16.8,14.5,34.5,27.8,49.2,44.5C210.2,695.6,210.2,696,210.2,696.3z"/>
	<path d="M336.6,1023.2c-4.8-4.8-10.3-9.5-12.3-16.1c-3.2-10.6-10-18.7-16.1-27.4c-1.6-2.3-3.3-4.5-5.2-7.2
		C308.2,973.5,333.8,1012.2,336.6,1023.2z"/>
	<path d="M170.2,861.9c-7.6-18.8-15.2-37.5-22.9-56.3c11.7,17.1,16.4,37,24.1,55.7C170.9,861.5,170.6,861.7,170.2,861.9z"/>
	<path d="M227.9,757.3c14.3,8.5,29.4,16.1,40.8,28.9C255.4,776.1,240.6,768.3,227.9,757.3z"/>
	<path d="M293,969.1c-15.2-13.9-29.8-28.4-43.6-43.6C265.4,938.6,279.7,953.4,293,969.1z"/>
	<path d="M203.8,652c-14.9-9.2-24.3-24.3-38.1-34.8C181.2,625.7,190.4,641.2,203.8,652z"/>
	<path d="M130.8,676.7c2.2,14.5,8.6,26,15.5,37.7C138.7,710.6,129.2,688,130.8,676.7z"/>
	<path d="M183.5,887.3c7.2,9.4,14.4,18.7,19.4,29.6C195.3,907.8,188.8,897.9,183.5,887.3z"/>
	<path d="M239.3,876.7c-8-8.2-14.5-17.5-20.4-27.3C226.6,857.8,233.5,866.9,239.3,876.7z"/>
	<path d="M232.1,669.2c-7.7-7-13.8-15.4-19-24.4C220.5,652.1,226.3,660.6,232.1,669.2z"/>
	<path d="M317.3,827.6c9.3,8.1,12.1,19.8,17,30.4C327.2,848.7,325.9,836.1,317.3,827.6z"/>
	<path d="M379.4,1052.7c-2.7-7.2-5.5-14.5-8.2-21.7c-0.3-0.8-0.6-1.7,0.4-2.1s1.5,0.3,1.8,1.1C376,1037.4,379.5,1044.6,379.4,1052.7
		z"/>
	<path d="M195.8,844.6c-6.6-3.5-9.5-9.7-12.1-16C188.8,833.1,191,839.8,195.8,844.6z"/>
	<path d="M183,719.8c-6.9-5-13-11-18-17.9C171,707.8,177,713.8,183,719.8z"/>
	<path d="M353.9,1049.3c3.5,3.1,6.3,7,8.3,11.3C358.5,1057.6,355.6,1053.7,353.9,1049.3z"/>
	<path d="M358.9,832.7c3.8,8.8,6.7,18,8.7,27.5c1.2,6.1,2.5,12,5.8,17.4c0.6,1,0.7,2.2,1.3,3.2c0.9,1.6-0.3,5,1.9,4.9
		c2.8-0.2,2.3-3.7,2.6-5.8c0.9-5.6-0.6-7.7-4.7-8.2c3.8-7.4,2.3-15.2,1-23c-0.6-3.4-3-6.9-2.5-10.1c1.7-10.9-4.4-19.5-7.4-28.9
		c-1.1-3.4-1.9-6.9-3.2-10.3c-1.7,6.7-1.2,13.6-2.6,20.3c0-8-0.2-16,0.1-24c0.1-3.8,0.6-7.3-3-9.9c-1.6-1.1-0.7-3.2,0.4-2.8
		c5.1,1.9,3-2.2,3.4-3.9c0.3-2,0.2-4,0-6c-0.1-1.1-1.2-2.2,0.5-2.9c1.1-0.5,2.4-0.3,3.3,0.5c2.5,1.9,4.7,4.3,6.3,7
		c-3.5,0.8-4.9-1.7-6.5-3.5c-4.3,2.7,2.1,6.2-0.9,8.5c-4,3.1-1.2,6.2-0.1,8.8c3.1,7.3,4,15.4,8.4,22.2c0.6,1-0.5,2.6,0.7,3.6
		c4.4-6.4,4.4-6.4,9.1,0.2c2.4,3.4,5.1,6.3,9.9,5.1c0.9-0.2,1.7-0.4,1.7,0.8c0,1.2-0.2,2.6,1.7,2.2c1.4-0.3,1.3-1.7,1.6-2.9
		c1.5-5.5-0.6-11.3-5.3-14.5c-4.8-3.2-9.1-3-14.3,0.6c-0.9,0.6-1.7,1.3-3.1,2.4c3.4-7.2,9.7-9.3,16.3-6.1
		c7.8,3.8,11.3,13.9,7.4,21.2c-4.1,7.7-12,9.2-21.9,4c-1,1.3,0,2.5,0.3,3.6c2.4,9.4,4.6,18.8,5.4,28.4c0.9,11.6,5.9,21.7,11.4,31.7
		c4.5,8.2,8.9,16.4,13.3,24.6c2.6,4.5,3.6,9.8,3,14.9c-11.6-16.1-17.1-34.2-25-51.2c-3,3.5-2.9,6.8-1.4,10.7
		c7.6,19.1,11.5,39.2,15.3,59.3c1.4,7.2,3.9,13.7,9.4,18.9c1.1,1,2.5,2.4,0.4,5.3c-3.2-8.3-12-11.1-13.1-21.6
		c-1.8-16.9-7.1-33.4-12-49.8c-0.1-0.7-0.3-1.3-0.7-1.9c-1.3-1.3,1-4.8-1.4-4.3c-3.3,0.7-0.6,3.7-0.2,5.3c5.3,23,10.9,46,16.2,69
		c0.7,3.4,1,6.9,1,10.3c-3.7-11.8-8.4-23.4-10.3-35.7c-6.2-38.5-17.3-75.9-28-113.3C358.7,834.1,358.8,833.4,358.9,832.7z
		 M383.7,832c3.3,0.8,4-2.8,4.5-4.5c0.8-2.8-2.6-3.5-4.5-4.2c-2.4-0.9-5.6-0.4-4.6-4.6c0.1-0.3-0.9-1.2-1.3-1.2
		c-1,0.2-1.8,0.8-2.2,1.8C372.8,824.3,377.2,831.7,383.7,832z"/>
	<path d="M332.5,764.1c7.8,9.4,9.3,20.4,8.3,32.3c-0.9-1.4-1.7-2.9-2.4-4.4c-11-28-27.6-52.6-44.7-77.1
		c-11.2-15.9-23.7-30.9-37.3-44.9c1.2,0,3.4,0.5,1.4-1.7c-7.8-9.1-15.7-18.1-23.6-27.1c0.6,4.1,3.2,6.9,5.4,9.9
		c2.2,3.1,5.3,5.5,6.9,9c-18.4-18.3-35.4-38-55.7-54.6c6.8,4.9,15,7.5,21.5,12.8c22.7,18.3,43.1,39.4,60.7,62.7
		c18.5,24.7,38.2,48.8,51.7,77c3.5,7.3,7.9,14.2,12.4,21C338.2,773.1,333.5,769.1,332.5,764.1L332.5,764.1z"/>
	<path d="M326.6,684.1c0.9-3.5,1.7-6.8,1.1-10.6c-1-6.5,6.5-11.9,13.2-10.1c7.7,2.1,12,11.9,8.4,19c-1.7,3.3-4.4,5.2-8.1,4.7
		c-4.5-0.6-7.2,1.4-9.4,5.1c-12.4,20.7-12,39.9,3,60.5c7.3,10,12.4,20.8,14.3,33.1c0.7,4.2,1.1,7.9-2.1,11.7
		c-3.1,3.7-1.6,7.7,2,11.1c1.2-2.5-1-3.8-1.3-5.7c-0.3-0.8,0-1.7,0.7-2.2c0.8-0.5,1.2,0.2,1.5,0.7c2.2,3.6,5,7,5,12.2
		c-3.3-4.2-4.3-2.5-4.3,2.6c-2.9-5.7-5.1-10.1-7.3-14.5c-0.3-0.6-0.4-1.2-0.2-1.8c6.4-11.7,2.1-22.4-2.4-33.3
		c-1.6-4.4-5.1-7.8-9.5-9.4c-1.9,3,1.8,4.6,1.4,7.1l0.1-0.1c-3.4-3-4.9-7.3-7.3-11c-1.1-1.7-0.2-2.8,0.9-3.9
		c2.7-2.7,2.3-5.2-1.3-6.1c-2.8-0.7-4.4-1.2-2.4-4.4c1.2-1.9-1-3.6-1.1-5.7c-0.2-5.4-1.8-10.7-0.5-16.3c1.3-5.7,2-11.4,4.3-16.8
		c2.4-5.6,6.1-10.3,9.9-14.9c1.7-2,3.5-4,5-6.2c1.4-2.1,0.3-3.8-1.4-5.2c-1.8-1.4-3-0.3-4.2,1C331.6,677.6,330,681.5,326.6,684.1
		L326.6,684.1z M343.2,684.9c5.4-1.9,5.3-5.9,5.1-9.7c-0.3-4.9-2.8-8.5-7.7-10c-5.4-1.6-7.6,0.5-6.2,7c2.8-4.2,5.6-1.6,7,0.4
		C343.8,675.9,345.5,679.8,343.2,684.9z"/>
	<path d="M314.9,753.3c3.1,4.7,5.7,9.7,7.7,14.9c3.3,9,7.6,17.7,10.3,27c0.4,1.6,1.2,3.1,2.3,4.3c8.5,8.1,9.8,19.5,13.5,29.8
		c0.3,0.7,0.6,2,0.2,2.4c-5.2,5-1.8,10.1-0.5,15.2c0.1,0.2-0.3,0.6-0.4,0.9C347.2,847,314.8,755.3,314.9,753.3z"/>
	<path d="M359.3,759.5c-1.8-5.3,0.8-10.2-2.5-15.1c-2.7,5.9-2.2,11.9-2.7,17.6c-0.1,1.3,1.8,1.7,3,2.2c1.5,0.7,3.7,0.5,4.4,3.2
		c-7.7-2.7-14.9-5.3-22.3-10.2c3.8,0.2,5.9,1.6,8.2,2.8c3.1,1.7,4.9,1.3,5.2-2.8c0.3-3.8,1-7.6,1.6-11.4c0.4-2.8,1.4-6.2-0.1-8.3
		c-4.6-6.8-6.5-15.2-13.2-20.6c-0.8-0.7-1.6-1.4-2.6-0.9c-1.7,0.8-0.9,2.3-0.5,3.5c2.6,8.1,5.3,16.1,7.9,24.2c0.6,1.8,1.2,3.7,1.9,6
		c-2.3-1.1-2.8-2.8-3.3-4.3c-4.3-12.2-9.6-24.1-12.4-36.8c-0.7-3.1-0.4-6.3-0.7-9.4c-0.1-0.9,0-1.9,0.9-2c0.8,0.1,1.5,0.5,2,1.1
		c1.2,1.6,2.2,3.3,3.3,5c6.3,10.2,12.1,20.7,18.3,30.9C360.2,741.4,362.4,749.8,359.3,759.5z"/>
	<path d="M210.9,583c15.9,11.5,33.9,18.7,50.9,27.7c14.7,7.6,27.4,18.5,37.2,31.9c7.5,10.4,16.6,19.5,23.3,30.5
		c1.2,1.9,2.9,3.8,1.8,7c-2.8-4.1-5.3-7.7-7.7-11.4c-15.2-23-33.1-43.3-57.6-56.9c-1.2-0.8-2.6-1.5-4-2
		c-17.2-3.8-29.3-16.2-43.1-25.6C211.3,583.9,211.1,583.4,210.9,583z"/>
	<path d="M421.1,1033.4c-3-3.5-3.9-7.7-4.6-11.9c-3.8-22.5-3.1-45.4-5-68.1c-0.6-7.8-1.4-15.5-1.7-23.4c6.3,9.3,8.8,19.7,9.2,30.8
		c-0.8-3-1.6-6-2.5-9c-0.9-3-2.1-5.9-3.8-8.6C416.7,973.2,412.7,1003.8,421.1,1033.4z"/>
	<path d="M398.1,808.4c9.8,5,14.4,12.2,13.3,21.1c-2.6,19.9-2.5,39.8-1.7,59.8c0.4,8.8,0.1,17.7-0.9,26.4c-0.3-9.7-0.6-19.5-1-29.2
		c-0.9-19.5,0.4-38.9,1.8-58.3c0.4-6.3-1.4-10.9-6.6-14.5C400.7,812.5,399.1,810.6,398.1,808.4z"/>
	<path d="M184.5,576.4c14.3,18.8,32.8,33.1,50.5,48.4C213.1,614,198.1,595.9,184.5,576.4z"/>
	<path d="M322.2,639c-27.9-19.1-57.3-35.7-85.3-54.6C265.9,601.6,295.3,618.5,322.2,639z"/>
	<path d="M363.4,690.2c0.7-4.7,1.4-9.5,2.3-14.2c1-5.1-0.9-8.7-5.2-11.3c-8-5-16-10.2-24-15.3c-1.4-0.9-3-1.4-3.7-3
		c0.2-0.3,0.5-0.7,0.6-0.6c10.6,6.3,21,12.8,31,19.9c3.3,2.3,4.7,5.4,3.4,9.5C366.3,680.2,366.5,685.6,363.4,690.2z"/>
	<path d="M326.5,684c-2.1,4.3-4.3,8.5-6.2,12.9c-6.1,13.9-6.5,29.5-1.2,43.7c0.5,1.2,0.8,2.4,0.9,3.7c-4.8-7-5.4-15.1-5.7-23.2
		c-0.6-12.2,2.8-24.3,9.6-34.4C324.6,685.7,325,684.2,326.5,684L326.5,684z"/>
	<path d="M372.9,688.3c-0.6-1.7-0.5-3.7,0.3-5.3c3.8-10.3,2.3-15-6.5-21.2c-1.6-1.1-5.9-1.8-3.9-4.3c1.8-2.3,3.4,1.8,5.3,2.9
		c0.3,0.2,0.5,0.4,0.8,0.6C379.6,670.9,380.2,674.5,372.9,688.3z"/>
	<path d="M284.4,674c-0.8-0.6-1.8-1-2.3-1.8c-4.3-6.8-10.2-12.2-15.4-18.2c-0.7-0.8-2.8-1.7-1.2-3.1c1.2-1.1,2,0.5,2.7,1.3
		C274.7,658.7,280.1,666,284.4,674z"/>
	<path d="M362.4,698.1c-1.7,10.7-3.4,21.3-5.1,32C355.9,718.9,358.4,708.4,362.4,698.1z"/>
	<path d="M232.2,582.3c-8.9-7.5-17.9-15-26.8-22.5l0.9-1.1c9,7.4,18,14.9,27,22.3C232.9,581.4,232.6,581.8,232.2,582.3z"/>
	<path d="M369.7,784.6l17.1,12.5c-0.2,0.4-0.5,0.7-0.7,1.1c-6-3.8-11.8-8-17.3-12.6L369.7,784.6z"/>
	<path d="M181.8,537.9l17.9,15.4c-0.3,0.3-0.5,0.6-0.8,0.9l-18-15.3C181.2,538.6,181.5,538.2,181.8,537.9z"/>
	<path d="M248,459.6c3,13.3,5.8,26.3,14.6,36.9c-2.1-7.1-4.2-14.2-6.3-21.3c4.6,10.6,8.5,21.4,13.5,32.5
		C254.6,497.5,244,473.8,248,459.6z"/>
	<path d="M394.8,524.1c-7.2,0.7-14.2-0.6-21.2-2c-1.2-0.2-2.6-0.4-2.2-2c0.4-1.7,1.8-0.9,2.9-0.6c16.2,4.3,32.2,4.3,48-1.4
		c0.9-0.3,2.1-0.9,2.3,0.6c0.3,1.7-1.2,1.8-2.3,2C413.2,522.4,404.3,525.3,394.8,524.1z"/>
	<path d="M482.1,855.6c-11.7-8.7-23.4-17.4-35.1-26.1c-1.1-0.8-2.1-1.6-1.1-3.2c2.3-3.7,9.4-6.3,13.6-4.9
		c5.8,1.9,10.3,5.2,12.9,10.9c3.4,7.5,7,15,10.4,22.5L482.1,855.6z M475.6,848c-1.1-5.5-2.3-10.4-4.7-14.7
		c-2.8-5.5-8.5-8.9-14.6-8.8c-1.7,0-3.6,0.4-4.4,1.9c-0.9,1.8,0.6,3.1,1.8,4.2C460.6,837,467.9,842.8,475.6,848L475.6,848z"/>
	<path d="M551.5,864.5c13.5,22.3,21.8,46.9,33.5,70C571.1,912.4,562,888.1,551.5,864.5z"/>
	<path d="M617.7,823.5c9.2,13.6,19,26.7,29.5,39.2C635.1,855.2,619.7,834.7,617.7,823.5z"/>
	<path d="M646.4,908.7c-5.8-9.5-18.4-14.1-19.2-27.3C633.2,890.8,641.8,898.3,646.4,908.7z"/>
	<path d="M688.1,925c-3.2-9.1-7.5-17-11.6-24.9c-0.4-0.9-1.8-2.1-0.1-2.9c1.2-0.5,1.6,0.9,2.1,1.7c3,4.8,6.6,9.2,9,14.4
		C689.2,916.8,690.2,920.4,688.1,925z"/>
	<path d="M663.3,922.2c8.6,8.5,16.3,16.2,23.4,24.5c0.7,0.8,1.1,1.7,0.1,2.6c-0.6,0.7-1.6,0.8-2.3,0.2c-0.1-0.1-0.2-0.2-0.3-0.4
		c-5.6-9-14.1-15.4-20.4-23.8C663.6,924.9,663.7,924.1,663.3,922.2z"/>
	<path d="M591.8,831.5c2.9,2.2,3.8,5.7,5.6,8.6c2,3.2,3.9,6.5,6.8,9.2c1.1,1,2.3,2.3,0.7,3.8c-1.8,1.6-3.1,0.1-4-1.3
		C596.9,845.4,593.5,838.9,591.8,831.5z"/>
	<path d="M522.6,759.6c-2.6-2.2-6.3-3.6-5.4-8c0.2-0.8-0.3-1.6-1.1-1.8c-0.1,0-0.2,0-0.2,0c-2.8-0.5-2.9-0.5-1.5-3.9
		c0.4-0.9,0.8-1.8,1.3-2.7c0.4-0.7,1.1-1.4,2-1c0.5,0.4,0.8,1,0.8,1.6C519.3,749.2,520,754.6,522.6,759.6z"/>
	<path d="M480.7,208.3c0-7.7-3.3-14-6.8-20.3c-0.5-0.9-2.6-1.2-1.3-2.6c1.1-1,2.4-1.7,3.9-2c1.4-0.3,1.7,1.2,2,2.3
		c3.3,11.4,9,22.3,6.7,34.8c-0.7,3.7,0.9,7.5,1.8,11.3c0.9,3.9,2.2,7.8,1.4,11.8c-0.5,2.9,0.4,4.8,2.9,6.5c-3.3,2.4-5.1,1.6-6-2
		c-0.8-3-1-6.2-3.9-8.4c-1.3-1-0.4-2.4-0.1-3.7c1.7-6.5,0.7-13.4-2.7-19.2c-2.3-4-2.7-8.5-3-13.2C478.4,204,477.5,207.8,480.7,208.3
		z"/>
	<path d="M433.3,222.2c0.6-14,1.5-28.1,1.7-42.2c0.3-14.4-0.6-28.8-2.7-43c3.6,2.7,5.4,5,3.2,8.5c-1.5,2.3-0.8,3.8,1,5.6
		c1.7,1.5,2.2,3.9,1.3,5.9c-2.4,6.8-1.2,13.8-0.1,22c2.5-6.8,2.1-12.7,3.4-20c1.7,3.9,2.3,8.2,1.9,12.4c-0.7,10-2.7,19.8-4.8,29.5
		C436.6,208,434.9,215.1,433.3,222.2z"/>
	<path d="M502.1,241.4c-2.3-18.1-8.1-35-15.4-51.5c-7.3-16.2-17.6-30.6-27.3-45.4C481.8,164.1,506,219.6,502.1,241.4z"/>
	<path d="M532.8,321.6c-3-7.8-2.8-16-4.1-24c-1.1-6.8-2.4-13.4-6.5-19.1c-0.7-0.9-1.2-2-1.4-3.2c-1.5-17.3-8.2-33.1-13.1-49.5
		c-0.4-1.4-1.3-2.7-0.8-4.3C514.3,230.3,532.4,299.3,532.8,321.6z"/>
	<path d="M533.5,425.3c-0.3-29.2,3.4-58.4,1.8-87.6C539.1,366.8,538.5,396.3,533.5,425.3z"/>
	<path d="M436.6,130.9c11.5,21.6,17.5,44.8,21.3,68.7l-1.2,0.4C450,176.9,443.3,153.9,436.6,130.9z"/>
	<path d="M459.1,318.3c5.7-21.1,10.4-40.9,11.6-61.5c-0.6,4.5,3.6,7.9,2.7,12.4c-0.9,4.2-1.8,8.4-2.7,12.7
		c-0.9,4.4-1.6,8.8-2.6,13.2c-0.9,4.2-1.7,8.5-3,12.6C464,311.6,461.9,315.2,459.1,318.3z"/>
	<path d="M542.6,195.6c-2,0-3.9-0.8-5.3-2.2c-8.2-9.2-16.7-18.1-25.6-26.5c-0.9-0.9-2.2-1.7-1.6-3.8c3.7,1.4,7.1,3.4,10,6
		c5.4,4.6,10.9,9.2,14.2,15.8c1.3,2.5,3.1,4.7,5.5,6.4c1.6,1,2.6,2.6,2.7,4.4L542.6,195.6z"/>
	<path d="M437.8,317c-1.6,6.2-3.3,12.3-4.9,18.5l-0.7-0.1c-0.1-1.6-0.2-3.3-0.3-4.9c-6.1,8.7-12,17.2-20.1,24.1
		C420.6,342.2,429.1,329.8,437.8,317z"/>
	<path d="M395,356.6c7.6-15,17.9-28.4,26-43.1C415.6,329.8,406.2,343.7,395,356.6z"/>
	<path d="M560.9,423.7c0-18-2.8-35.9-1.1-53.9C561.7,387.7,562.9,405.7,560.9,423.7z"/>
	<path d="M562.2,226.5c6,7.6,8.7,15.5,12.8,23.3C566.9,246.9,560.9,236.4,562.2,226.5z"/>
	<path d="M436.3,250.3c1.5,6,0.6,12.3-2.5,17.7c-0.1-1.8-0.3-3.7-0.4-5.5c-0.1-1.1,0.3-2.8-1.3-2.7c-4.7,0.4-3.1-2.8-2.9-4.9
		c0.4-4.5,0-9.2,3-13.5c1.1,3.8-0.9,6.8-0.8,10.1c0.1,1.6-0.8,3.8,1.5,4.1c1.8,0.2,2-1.9,2.5-3.2
		C435.5,251.8,435.7,251.4,436.3,250.3z"/>
	<path d="M542.6,195.6l-0.2,0.2c1.3-0.5,2.7,0.1,3.4,1.3c4.5,7.2,9.1,14.3,13.5,21.5c1.4,2,2.2,4.4,2.3,6.8c-1.5,0.9-2.3,0-2.5-0.9
		c-2.1-8.8-8.5-14.9-13.7-21.7C543.7,200.9,540.7,199.1,542.6,195.6z"/>
	<path d="M491.4,170.6c2.2-1,3.9-0.4,4.4,1.3c2.5,8.5,7.9,15.7,10.9,23.9c0.4,0.8,0.1,1.7-0.6,2.1
		C501.2,188.7,497,179.3,491.4,170.6z"/>
	<path d="M527,321c-2.4-7.4-4.1-14.8-2.9-22.6C527.6,305.4,528.7,313.3,527,321z"/>
	<path d="M484.5,304.6c2.7-6.9,5.4-13.8,8.1-20.7C492.1,291.6,489.1,298.4,484.5,304.6z"/>
	<path d="M523.6,254.1c4,7.4,6.5,15.6,7.1,24C528.3,270.2,526,262.2,523.6,254.1z"/>
	<path d="M532.2,192.1c1.1,1.4,2.4,2.7,3.4,4.1c1.7,2.4,3.3,4.9,5,7.3l-1,0.7c-2.7-3.8-5.5-7.5-8.2-11.3
		C531.7,192.7,532,192.4,532.2,192.1z"/>
	<path d="M104.2,408.8C93,374.2,90.9,338.4,89.4,302.4c-1.2,10.3-1.5,20.8-0.8,31.2c1.3,22.8,2.4,45.9,9.1,67.6
		c9,29.4,12.5,59.8,19.2,89.6c0.2,0.6,0.3,1.3,0.3,2c0,0.3-0.3,0.5-0.8,1.4c-3.2-5.4-5.1-11.5-5.5-17.8
		c-1.2-26.2-10.1-50.4-18.3-74.8c-2.2-7-3.2-14.2-2.9-21.5c0.2-7.9-2.1-15.7-2.6-23.7c-2.5-41.9-1.5-83.5,6.8-124.7
		c0.5-2.5,0.7-5.2,2.8-8.1c-3.9,31-5.3,62.2-4.1,93.5C93.8,347.8,97.7,378.6,104.2,408.8z"/>
	<path d="M139.7,168.1c8.6-16.9,17.6-33,29.7-47c12.6-14.5,26.8-27.3,41.1-40c2.3-2.1,4-2.8,4.2,2c6.5-8.5,16.9-8.6,24.8-14.2
		c0.3,2.7-1.4,3.5-2.9,4.3c-17.1,8.8-32.4,20.3-47.7,31.8c-16,12.1-27.8,28-37.2,45.8c-0.6,1.1-1.4,2.3-1.3,2.6
		c5.2-4.7,10.7-9.7,16.2-14.7c0.9-1,1.9-1.8,3-2.6c1-0.7,2.4-0.5,3.3,0.3c0.9,1-0.1,1.8-0.6,2.6c-1.1,2.4-3.1,4.4-5.6,5.5
		c-7.1,2.8-12,8.2-16.8,13.8C147,161.9,144.2,165.6,139.7,168.1z"/>
	<path d="M148.6,172.5c-5.2,16.3-15,30.7-19.3,47.4c-4.3,16.6-8.8,33.1-8.8,50.8c-3.4-4.4-1.5-30.7,3.5-52.1
		C125.1,213.9,145.7,174.6,148.6,172.5z"/>
	<path d="M113.2,163.3c-6.3,15.9-11.7,32.2-18.3,48c0.5-6.8,3.3-13.1,4-20.1c-1.2,1.9-2.5,3.8-3.7,5.6
		C98,184,104.2,172.9,113.2,163.3z"/>
	<path d="M116.1,464.8c5.8,15,9.7,30.2,13.4,45.5c0.3,1.4,0.3,2.8-1.2,3.3c-1.5,0.5-2.6-0.4-3.3-1.6c-0.6-0.8-1-1.8-1.1-2.7
		c-1.2-14.6-5.7-28.6-7.8-43.1C115.9,465.7,115.9,465.2,116.1,464.8z"/>
	<path d="M130,198.4c0.4-8.8,4.1-17.2,10.4-23.4C138.6,183.5,133,190.4,130,198.4z"/>
	<path d="M104.2,216.9c0-8.2,1.1-16.3,3.4-24.2C106.4,200.8,105.3,208.9,104.2,216.9z"/>
	<path d="M425.3,191.1c2.1,8.6,0.8,17.2,0,25.7c-1.8,20.3-6.6,39.9-13,59.2c-2.3,6.9-9.2,10.4-10.5,17.8c-1.8-1.8-0.4-2.8,0-3.8
		c4-9.9,7.9-19.7,12.6-29.3c4.9-9.9,4.7-21,6.3-31.6C422.4,216.6,422.6,203.7,425.3,191.1z"/>
	<path d="M281.1,367.6c24.9-7.9,43.5-25.7,63.8-40.7c3.9-2.8,8.3-4.2,12.4-7c-1.7,7-13.8,21.9-21,25.4c5.1-6.7,9.7-12.6,14.2-18.5
		C329.1,343.5,308,360.4,281.1,367.6z"/>
	<path d="M397.5,207.4c1.4-7.7,2.9-15.4,4.3-23.1c1.3-7.4,3.8-14.4,6.3-21.4c0.5-1.4,1.1-3,3.1-2.6c2,0.4,1.9,1.9,1.7,3.5
		c-1.9,14.7-6.4,28.9-13.2,42c-0.4,0.7-0.9,1.3-1.3,1.9L397.5,207.4z"/>
	<path d="M407.3,197.4c-0.7,5.4-1.6,10.6,0.3,15.8c0.6,1.7-0.3,3.7-1.4,5.1c-5.1,6.2-8.6,13.4-12.3,20.4c-0.4,1.2-1.5,1.9-2.7,1.8
		C397.6,226.4,400.7,211.3,407.3,197.4z"/>
	<path d="M335,323.4c-6.1,8.2-13.5,15.4-21.9,21.3c-0.9,0.6-2.1,1.8-3.1,0.8c-1.2-1.2,0-2.5,0.9-3.4c5.8-5.7,11.7-11.4,17.6-17
		C330.3,323.6,332.4,323.2,335,323.4z"/>
	<path d="M403.9,155.5c0.4,1.5,2.1,2.2,1.3,4.3c-4,10.5-9.2,20.5-15.5,29.8C394.7,178.2,401.1,167.6,403.9,155.5
		C404,155.4,404,155.4,403.9,155.5z"/>
	<path d="M344.4,308.2c5.3-6.2,10.6-12.4,15.9-18.6c0.4,0.3,0.8,0.6,1.1,1c-5.6,6-9.2,13.6-16,18.7L344.4,308.2z"/>
	<path d="M291.6,339.5c-2.7,5.2-6.8,9.7-11.7,12.9C283,347.4,287,343,291.6,339.5z"/>
	<path d="M254,207.8c-14.9,46.1-18.1,93.7-19,141.6c-2.5-14.1-1.2-28.3-0.9-42.8c-2.6,1-1.4,3.4-3.5,4.5c0-9,1.8-17.6,2.4-26.3
		c0.8-12.3,4.5-24.2,4.8-36.5c0.2-4,1.1-7.9,2.7-11.6c4-9.8,8-19.6,12-29.3L254,207.8z"/>
	<path d="M239.2,362.6c-1.7-8.6-0.8-17.3,0.6-25.7c4.9-29.1,13.6-57.2,22.2-85.3c0.5-0.9,1-1.7,1.6-2.5c-1,4.9-1.7,8.4-2.5,11.9
		c-0.8,3.6-1.8,7.1-2.7,10.6c-7.4,28.5-13.9,57.2-17.6,86.5C240.7,359.6,240.1,361.2,239.2,362.6
		C239.1,362.5,239.1,362.5,239.2,362.6z"/>
	<path d="M279.5,195.6c4.1-12.9,26.3-44.2,35-49.2C303,162.9,288.8,177.5,279.5,195.6z"/>
	<path d="M386.1,103.2c-4.2,6.1-8.9,11.5-15,15.5c-2.2,1.4-4.6,2.6-4.9,5.8c-0.1,1.4-1.3,2.5-2.7,2.4c-0.9,0-1.6-0.5-2-1.3
		c-0.7-1.6,0.6-2.4,1.4-3.4c3.5-4.5,8.5-7.5,11.2-12.9C376.2,105.1,382,105.2,386.1,103.2z"/>
	<path d="M331.1,119.4c5-4.8,9.7-9.4,14.5-13.9c2-1.9,4.7,0.3,7.1-1.4c5.1-3.3,10.8-5.9,16.2-8.7c2.2-1.1,4.5-2.1,6.8-3.1
		c1.2-0.5,3-1.2,3.6,0.2c0.7,1.8-1.4,1.8-2.5,2.3c-3.2,1.3-6.5,2.4-9.7,3.8c-11.6,4.9-22.5,11.5-32.2,19.5
		C334,118.9,333.5,120.2,331.1,119.4z"/>
	<path d="M287.5,233.5c-1.8,4.1-1.8,9.2-4.7,13.2c-1.7,2.2-3.7,4.1-3.7,7.2c0,1.2-0.9,2.2-2.1,2.2c-0.2,0-0.5,0-0.7-0.1
		c-1.5-0.5-0.4-2-0.2-3c0.6-3.1,1.7-6,3.3-8.8c2.1-3.4,4.2-6.7,4.2-10.9c-0.2-1.1,0.6-2.2,1.7-2.3c0.3,0,0.5,0,0.8,0
		C287.4,231.2,287.7,232.1,287.5,233.5z"/>
	<path d="M310.3,190.7c-3.6,8.7-8.8,16.7-15.2,23.6C295,202.6,306.4,199.1,310.3,190.7z"/>
	<path d="M276.2,192.5c1.7-8.1,14.4-28.7,22.2-35.8C290.3,168.2,282.6,180,276.2,192.5z"/>
	<path d="M260.2,321.2c0.7-9,3.6-17.8,8.5-25.4C265.9,304.3,263,312.7,260.2,321.2z"/>
	<path d="M432.1,678.8c-2.8-4.7-3.1-9.6-2.1-14.6c3.2-16,7.5-31.8,14.9-46.4c2.2-4.4,2-7.7-1.8-11c-3.2-2.8-5.7-6.5-9.7-8.5
		c-2.6-1.3-2.1-3.8-2.5-6.3c3.3,0.4,4.2,3,5.5,4.9c2.9,3.9,5.8,7.7,10.6,9.5c2.2,0.8,2.9,2.5,2.2,4.8c-1.3,4.3-2,8.8-3.8,12.9
		c-4.2,9.3-5.4,19.1-6.7,29.1c-1.2,9,0.6,17.5,4.2,25.8c1,2.2,1.8,4.5,2.4,6.9c-3.8-3.5-4.7-8.4-6.7-12.9c-0.6-1.4-1.1-2.8-1.7-4.1
		c-0.7-1.6-2-2.5-3.6-1.7c-1.6,0.7-1.1,2.3-0.6,3.5C433.8,673.4,434.1,676.1,432.1,678.8z"/>
	<path d="M438,572.6c3.7,4.8,7.3,8.2,13.4,8.8c3.7,0.4,7.1,4.1,10.6,6.3c3,1.8,5.9,3.6,8.9,5.5c-4.7,3.8-11.3,4.3-16.5,1.1
		c-4.7-2.6-9.1-5.5-13.3-8.7c-3.9-3-6.8-2.6-9.9,0.9c-1.6,1.9-3.3,3.6-5.3,5.1c1.6-4.3,4.9-7.8,9.1-9.7c4.2-2,6.9,0.9,9.7,3.2
		c5.9,5,13.6,5.6,20.1,9c-1.1-3.7-4-5-7-6c-6.4-2.2-11.8-6.1-17.9-8.7C436.9,578,437.1,575.8,438,572.6z"/>
	<path d="M394,582.4c0,3.2-0.7,6.4-2,9.3c-1.2,3-1.1,6.8-6.6,3.5c-3.8-2.2-9,0.4-13.7-0.1c-9.8-0.9-10.5-1.5-8-11.1
		c0.6-2.2,1.5-4.4,2.5-7.4c1.4,4,0.8,7.2,0.8,10.3c0,3.6,0.7,5.7,5.1,5c2.5-0.2,5-0.1,7.4,0.4c7.7,1,10-0.4,12.7-7.7
		C392.5,583.9,392.5,583,394,582.4z"/>
	<path d="M465.6,637.3c0.3,15.9-9.8,29.6-9.1,46.2C452.1,676.9,454.7,663.8,465.6,637.3z"/>
	<path d="M419.4,571.6c-2.5-1.2-4.2,1.4-6.8-0.1c2.7-2.2,5.7-2.5,8.6-3c1.4-0.2,1.2,1.2,1.2,2.1c-0.5,10.6-12,22.1-22.2,22.3
		c-1,0-2.2,0.2-2.3-1.2c-0.1-0.9,0.9-1.4,1.7-1.5C411.6,589.8,415.1,580.5,419.4,571.6z"/>
	<path d="M449.7,565.8c12.6,3.7,22.1,12.5,32.5,20c-12.3-4.2-22.5-11.8-32.3-20.1C449.9,565.6,449.7,565.8,449.7,565.8z"/>
	<path d="M479.3,577.6c-4.3,0.1-5.8-2.2-7.2-4.7c-2-3.8-4.4-6.9-9.3-7.1c-1.8,0.1-3.2-1.3-3.3-3.1c0-0.2,0-0.4,0-0.5
		c0.2-2.3,2.1-3.3,3.9-4.1c2.1-0.9,2.9,0.9,3.7,2.3C470.5,566.6,474.5,572.4,479.3,577.6z"/>
	<path d="M479.9,673.2c-6.2-6.9-3.7-18.2,4.5-25.7C481,655.3,478.4,663.2,479.9,673.2z"/>
	<path d="M500.5,602.7c-0.8,2.8-1.4,5.7-2.3,8.5c-0.8,2.2-1.8,4.2-3.1,6.1C495.5,611.9,498,607.3,500.5,602.7z"/>
	<path d="M208.2,322.1c-6.8-21.8-4.2-43.8-1.1-65c6.7-45.1,21.9-87.2,53.4-121.8C219.4,191,203.8,253.8,208.2,322.1z"/>
	<path d="M335.5,77.6c-22.8,9.4-39.4,24.9-56.1,40.4c10-17.1,26.3-26.6,42.6-36.2c-43.7,12.7-77.4,38.3-100.9,77.9
		c2.1-13.2,36.8-54.5,52.1-62.4c-0.3,2.3-3.1,2.5-3.4,5.9C289.1,88.1,310.1,79.2,335.5,77.6z"/>
	<path d="M375.3,78.3c-8.6,2.4-16.3,1.5-23.9,1.7c-1.6,0-1.4,0.2-2.5,2.2c-0.5,0.9-2.1,1.3-3.3,1.9c-19.4,8.7-38.4,18.3-55.5,31.2
		c-2.9,2.2-5.7,4.5-8.6,6.8c-0.4-1.6,0.9-2.3,1.7-3c17-16.4,35.5-30.5,57.7-39.3C351.9,75.5,362.9,76.2,375.3,78.3z"/>
	<path d="M196,229.2c-1.2,7.2-2.4,14.3-3.5,21.5c-2.2,14.9-1.8,29.8-1,44.8c0.2,3.8,0.1,7.7,0.1,11.5c0,1.1,0.4,2.6-1.2,2.8
		c-1.9,0.2-2-1.4-2-2.7c-1.2-17.8-2.8-35.5,1.1-53.2c1.8-8.3,3.6-16.5,5.4-24.8L196,229.2z"/>
	<path d="M284.6,134.4c-16.4,19.9-27,42.7-38,65.3c-1.5,3-2.6,6.1-4.8,8.7c-1.1,1.3-2.1,2.7-4,2.8c-0.9,0-2.2,0.2-2.4-1.2
		c-0.2-1.3,0.8-1.9,1.8-1.8c3.7,0.2,4.8-2.3,5.9-5c6.3-14.9,14.3-28.9,21-43.6c4.2-9.1,10.1-17.3,17.4-24.1
		C282.2,134.9,282.8,134,284.6,134.4z"/>
	<path d="M214.7,177.8c-2,10.2-2,10.2,4.4,10.2c-1.2,3.5-3.1,6.8-5.6,9.6c-3,0,3.7-9.5-4.9-3.5C210.2,188.5,209.9,183,214.7,177.8z"
		/>
	<path d="M624.4,676.4c5.3,10.5,10.3,21.2,16,31.5c3.5,6.4,4.2,13.3,5.2,20.2c0.6,4.2,2.3,8,3.5,11.9c7.3,23.1,14.7,46.2,22.1,69.3
		c0.5,1.4,0.7,3,0.4,4.5C656.4,767.8,639.6,722.4,624.4,676.4z"/>
	<path d="M552.6,519.6c2.6,9.5,5.3,19,7.9,28.5c0.3,0.9,0,1.5-1.1,1.7c-1.6,0.3-3.1,0.9-4.6-0.6c-4.1-4-6.7-9.2-7.5-14.8
		c-0.1-0.6-0.1-1.5,0.3-1.8c2.2-2.1,2-1.9,0.8-3.9c-2.3-3.6-7.2-6.6-3.2-12.1c0.5-0.7-1.5-3.4-2.5-5.1c-3.6-6.8-1.4-13.8,5.7-16
		c-3.6,13.9,0,26.6,5.6,39.8c1.2-3.4-0.1-5.8-0.5-8.2C553.1,524.5,551.6,522.3,552.6,519.6z"/>
	<path d="M555,492.7c2.7,9.5,5.2,18.2,7.8,26.9c4.8,16.3,9.9,32.4,16.9,47.9c0.5,1,2.1,2.4,0.2,3.3c-1.2,0.6-2.6-0.4-3.4-1.6
		c-0.5-0.8-1-1.7-1.3-2.7c-7.9-22.9-14.7-46.2-21.1-69.6C553.7,495.8,553.3,494.7,555,492.7z"/>
	<path d="M669,777.2l-15.6-38.8l1.1-0.5c6.4,12.4,11.5,25.4,16.4,38.5C670.3,776.7,669.7,777,669,777.2z"/>
	<path d="M275.8,336.2c9-13.6,13.4-29.3,20.6-43.6c1-1.9,1.5-4.1,1.3-6.3c-0.1-1.7-1.4-3.1-3.1-3.5c-1.5-0.5-2.5,0.3-3.3,1.5
		c-7.1,9.8-13.8,19.8-17.8,31.4c-0.3,0.9-0.5,2-1.9,1.7c-0.7-0.2-1.2-1-1-1.8c0-0.1,0.1-0.2,0.1-0.3c3.2-8,4.7-17.7,10.3-23.5
		c6.3-6.5,11.5-14.2,18.4-20.1c6.2-5.3,11.1-12.1,16.7-18.2c-6.3,10.6-9.7,22.5-14.9,33.5c-3.7,7.8-7,15.8-9.9,24
		C288,320.4,281.8,328.3,275.8,336.2z"/>
	<path d="M399.3,138.6c-0.4,2.8-1.7,5.3-3.6,7.3c-9.4,10.3-19.5,20-30.9,28.1c-1.3,0.9-2.7,2.8-4.3,1.8c-1.8-1.2-0.1-3.1,0.4-4.5
		c2.8-7.5,6.2-14.7,10.3-21.5c1.5-2.5,3.6-7.2,6.2-5.6c3.6,2.2,0,5.9-1.7,8.4c-2,3-4.6,5.7-6.9,8.5c-0.9,1.1-3.5,2-1.4,3.8
		c1.7,1.4,2.9-0.6,3.9-1.9c7.5-8.5,16.2-15.7,25.1-22.7C397,139.8,397.8,139.5,399.3,138.6z"/>
	<path d="M403.2,119.3c0,1.1-0.5,1.8-1.5,1.6c-6.2-0.9-9,4.1-12.7,7.4c-2.3,2.1-4.2,4.6-6.4,7c-1.5,1.6-3,3.1-5.2,3.6
		c-0.9,0.2-2,1-2.6-0.2c-0.5-0.8,0.2-1.7,0.8-2.2c7.9-6.8,15.5-14,24.9-18.8C402.3,116.9,402.9,117.9,403.2,119.3z"/>
	<path d="M404.1,141.4c0.2-5.5,1.9-9.1,2.9-12.9c1.1-4.3,3.2-8.3,2.8-13c-0.1-1.2,0.3-2.4,1.8-2.4c1.1-0.1,2.1,0.7,2.2,1.8
		c0,0.3,0,0.6-0.1,0.9C411.6,124.3,409.3,132.6,404.1,141.4z"/>
	<path d="M376.2,193.7c-4.1,8.9-9.5,16.9-15.2,24.8C363.9,209,369.8,201.2,376.2,193.7z"/>
	<path d="M374,141.1l-17.3,15.2c4.6-6.3,9.6-12.2,15.8-16.7C373,140,373.5,140.6,374,141.1z"/>
	<path d="M311.5,239.1c-0.5,2.7-1.7,5.3-3.4,7.5c-0.9,1.1-2.1,2.8-3.5,2.1c-1.7-0.9-0.6-2.9-0.3-4.4
		C305,240.7,308.5,241.2,311.5,239.1z"/>
	<path d="M314.1,235c-1.5-5.8-0.8-10.2,3-14.5C318.5,225.8,316.6,229.9,314.1,235z"/>
	<path d="M401.2,609c4.8,5.1,6,16,2.8,21c-0.7,1.2-1.8,2-3.1,2.3c-6.8,1.4-13.5,3.8-20.6,2.7c-2.2-0.3-4.2,0.1-7,1.6
		c1-4.1,2.9-5.5,6.1-5.8c5.8-0.5,11.6-1.3,17.3-1.8c4.1-0.4,5.7-2.4,5.3-6.7C401.5,618.1,399.6,614,401.2,609z"/>
	<path d="M327.9,616.4c-0.2,2.5-1.6,3.3-3.1,2.3c-10.8-7.7-23.6-12.2-33.6-21.3c-0.9-0.9-2.5-1.8-1.2-3.2c1.1-1.2,2.4-0.3,3.6,0.4
		c9.7,6,20.4,10.5,28,19.5c0.5,0.6,1.3,1.4,1.8,0.1c0.6-1.9,1.6-1.2,2.6-0.6C327.1,614.1,327.8,615.2,327.9,616.4z"/>
	<path d="M380.8,651.3c11.8-2.9,23.4-5.6,34.9-8.4c1.1-0.3,2.4-0.5,3,0.9c0.5,1.4-0.7,2.1-1.6,2.7c-1,0.6-2,1.2-3.1,1.6
		c-9.7,2.9-19.5,5.4-29.7,5.1C382.8,653.3,381.4,652.6,380.8,651.3z"/>
	<path d="M365.5,640.5c0.1-4.9,1.1-9.8,3-14.4c2.7-6.1,3.5-12.1-0.6-18c-0.3-0.6-0.5-1.2-0.7-1.9c-0.4-1.2-1.4-2.7,0.2-3.5
		c1.7-0.9,2.2,0.9,2.8,1.9c3.3,6.1,5.1,12.6,2.2,19.1c-2.4,5.5-2.9,11.1-3.6,16.9c-0.2,1.7,0.4,5-2.1,4.7
		C364.5,645.2,365.8,642,365.5,640.5z"/>
	<path d="M356.4,629.4c-8-0.8-14.6-3.4-21-6.5c-1.4-0.7-3.1-1.8-1.9-3.8c1.1-2,2.6-0.8,3.8-0.1c5.9,3.6,12.6,4.9,19,7.1
		c1.1,0.4,2.5,0.9,2.2,2.3C358.1,630,356.7,629.4,356.4,629.4z"/>
	<path d="M387.6,697.7c3.1-2,6.3-2.6,9.5-3.2c3.5-0.6,6.1-2.3,7.4-5.8c0.6-1.6-0.2-4.1,2.1-4.6c1.9-0.4,2,1.8,2.4,3.1
		c0.7,2.3,1.1,4.5-1.7,6c-3.6,2-7.5,3.5-11.5,4.4C393.3,698.3,390.5,700.1,387.6,697.7z"/>
	<path d="M407.7,677.2c10.2-5.2,7-15.9,10.3-23.9c0.8-2,0.6-2.1,2.8-3.9c-3.2,6.3-1.5,13.3-3,19.8
		C416.6,674.4,412.4,676,407.7,677.2z"/>
	<path d="M320.2,592c-8.7-2.1-18.1-1.8-26.5-5.7C303.1,585.7,311.7,588.8,320.2,592z"/>
	<path d="M403.3,712.1c1.3,0.1,10,8.7,10,9.9c0,1.5-1,2-2.3,1.8c-2.8-0.3-9.1-6.6-9.4-9.5C401.6,713.2,401.4,711.9,403.3,712.1z"/>
	<path d="M428.1,619.1c-6.1,5.7-10.4,11.1-16.9,14.3C414.3,626.6,418.8,621.2,428.1,619.1z"/>
	<path d="M399.8,685.2c-1.3,3.1-3.9,5.6-7.1,6.7c-3.3,1.4-7.3,1.3-9.3,5.1c-0.7,1.3-2.2,0.5-3-0.3c-1.3-1.2-0.3-2.1,0.8-2.7
		C387.1,691.2,393,688.4,399.8,685.2z"/>
	<path d="M431.6,623.7c-0.3,5.1-0.4,8.9-6.1,9.6c-2,0.2-3.7,2.6-5.6,3.9c-2.3,1.5-4.8,3-8.1,2.6c3.7-2.4,7.2-4.5,10.5-6.8
		C425.8,630.8,428.3,627.5,431.6,623.7z"/>
	<path d="M396.2,711.3c-3.4,5-7.3,6.5-17.5,6.5C381.9,714.5,390.4,711.3,396.2,711.3z"/>
	<path d="M331.5,601.5c-0.1,3-0.3,5.4-3.2,5.4c-3.2,0.1-4.1-2.5-4.4-5.1c-0.2-1.5,0.2-4.1,2.2-3.4C328,599,332.5,597.3,331.5,601.5z
		"/>
	<path d="M440.4,1002.3c1.5-8.2,2.7-15.3,4.1-22.2c2.3-11.1,2.6-22.4,3.8-33.7c0.6-5,1.7-9.8,3.5-14.5c4.1-11.1,5.5-22.8,6.6-34.5
		c0.2-2.7,0.1-2.8,2-6.4c2.1,2.6,1.7,5.3,1.6,8c-0.5,11.6-4.8,22.4-7.4,33.5c-4.4,19.3-6.3,39-10.1,58.5
		C443.8,994.6,443.3,998.2,440.4,1002.3z"/>
	<path d="M488.9,876.2c5.4,7.2,6.9,15.6,8.3,24.1C492.9,892.8,490.7,884.5,488.9,876.2z"/>
	<path d="M470.5,866.1c0.3,5.7-1.9,10.5-6,14.4C466.4,875.8,468.6,871.1,470.5,866.1z"/>
	<path d="M507.8,539.8c8.8,5.6,17.7,11,26.4,16.7c12.9,8.6,25.3,17.9,35.5,29.7c2.8,3.2,3.1,5.8,0.8,9.3
		c-8,12.3-16.5,24.3-25.5,35.8c-3.4,4.3-6.4,8.8-10.4,14.1c0.1-3.8,1.8-5.4,3.1-7.2c9.6-13.2,19.8-26,28.7-39.7
		c4.8-7.4,4.6-8.5-1.5-15c-11.8-12.7-26.2-22.1-40.6-31.4c-5.7-3.7-11.4-7.4-17.1-11.2L507.8,539.8z"/>
	<path d="M538.5,626.7c1.1-8.5-3.4-14.1-6.6-20.3c-0.8-1.6-2.3-1.7-3.8-2c-1.5-0.3-3.1-0.8-3.4-2.5c-0.4-2.5-1.4-6,1-7.3
		c2.1-1.1,3.3,2.1,4.4,3.8c4.7,6.5,8,13.7,11.1,21.1C542.4,622.2,542.2,624.5,538.5,626.7z"/>
	<path d="M485.7,518c6.5,1.6,12.6,4.7,17.9,8.9C497.5,524.1,489.3,525.5,485.7,518z"/>
	<path d="M519,1040.3c-4.5,4.9-9.7,9.1-15.3,12.7c-2.9,1.8-5.3,4-5.9,7.6c-0.2,1.3-0.9,2.5-1.9,3.4c-7.3,5.4-14.9,10.5-23.7,14.2
		C476.7,1070.9,509,1044.7,519,1040.3z"/>
	<path d="M546.5,1015.6c-8.8,16.3-16.4,33.3-25.7,49.4c-0.9-1.6-0.8-3.6,0.4-5c6.4-9.5,6.2-21.8,13.4-30.9
		C538.4,1024.5,541.4,1019.3,546.5,1015.6z"/>
	<path d="M484.2,681.7c0.3-2.3,0.2-4.5,2.3-5c2.5-0.5,2,2.1,2.5,3.4c1.5,3.9,2.9,7.7,4.2,11.7c2.5,8.1,6.4,14.7,15.1,17.7
		c3.1,1,7.9,4.8,6.3,6.9c-2.2,2.8-5.2-2.1-7.7-3.7c-10.2-6.4-17.9-16.2-21.7-27.6C484.8,683.8,484.5,682.5,484.2,681.7z"/>
	<path d="M475.1,741.9c-3.7,0.2-5.4-1.5-6.7-3.7c-4.8-8.1-9.5-16.4-14.2-24.6c-0.6-1.1-1.6-2.5,0.1-3.4c1-0.6,2,0.4,2.3,1.3
		C460.1,722.9,468.4,731.4,475.1,741.9z"/>
	<path d="M443.6,731.2c-4.9-5.7-9.6-10.8-14-16.2c-2.1-2.6-3.1-5.7,0.3-8.2c0.8-0.6,2.3-1.7,2.5,0.4c0.7,7.4,5.8,12.5,9.5,18.3
		C443,727,444,728.5,443.6,731.2z"/>
	<path d="M485.8,708.6c6.8,2.6,11.4,7.6,14.3,14.2c0.4,0.9,1,1.9,0.2,2.8c-0.9,0.9-1.9,0.2-2.5-0.6c-4.3-5.1-8.6-10.3-13-15.4
		L485.8,708.6z"/>
	<path d="M240.8,401.4c-6.3-0.9-11.5-0.9-16.5,1.6c-3.2,1.6-0.7-2.8-2.9-3.2c-1.7-0.3-0.1-1.4,0.6-1.9
		C226.8,394.4,236.2,395.7,240.8,401.4z"/>
	<path d="M216.9,390.3c-0.4-0.6-0.7-1.5,0-1.8c3.3-1.7,4-3.7,1.7-6.9c-1.2-1.6-0.2-2.8,1.9-2.8c4.4,0,8.7,0,13.2,0.4
		c-5.4,0.6-10,4-12.3,8.9c-1,2-2.6,2.4-4.6,2C216.8,390.2,216.9,390.3,216.9,390.3z"/>
	<path d="M230,451c-3.6-0.2-7.3,0.2-7.3-4.8c0-1.1-1.5-2.2-0.4-3c1.3-0.8,3-0.8,4.2,0.1c1.7,1.1,3.3,2.2,4.8,3.6
		c1.1,1,3.9,0.7,3,3.1C233.5,452,231.2,450.6,230,451z"/>
	<path d="M225.1,406c0.9,3,2.8,3.3,5.1,3c1.8-0.2,3.6-0.2,5.4,0c1,0.1,2,0.5,1.9,1.8c-0.1,1-1,1.3-1.8,1.2c-4-0.3-8,0.5-11.4,2.5
		c-2.1,1.2-2.8-0.1-2.2-2C222.6,410.5,222.8,408.2,225.1,406z"/>
	<path d="M109.4,829c-0.7,6.4-1.4,12.9-2.2,20.2C104.6,844.2,105.4,835.9,109.4,829z"/>
	<path d="M525.9,827.7c3.2-0.6,6.3-1.3,9.4-0.6c6.6,1.6,11.6,9.2,10.5,16.1c-1.2,7.5-8.8,14.2-15.5,13.6
		c-10.3-0.8-17.1-12.9-11.3-21.5c5.4-8.1,9.3-17,15.2-24.7c0.4-0.6,0.8-1,1.4-1.4C533.4,815.9,530.1,822.1,525.9,827.7z M519,841.4
		c1.6,0.1,1.2-3.4,3.7-1.9c4.4,2.6,9.4,3.8,14.5,5.5c-3.3,3.4-7.9,5.2-12.6,5.1c4.5,4.6,9,5.2,13.7,2.1c5-3.3,7.2-10.7,5-16.4
		c-1.9-4.9-7.2-7.7-13.1-6.9C523.8,829.9,519.4,834.7,519,841.4z"/>
	<path d="M584.4,766.7c-1.2-0.9-2-2-2.7-1.9c-1.4,0.2-0.8,1.5-0.7,2.4c0.1,0.7,0.3,1.3,0.4,1.9c0.2,1.4,0.4,3-1.3,3.3
		c-1.6,0.3-2.2-1.3-2.4-2.6c-0.8-4.8-2.1-9.4-5-13.4c-2.3-3.1-4-8-8.3-7.8c-4.4,0.2-3.7,5.6-5.4,8.7c-0.3,0.6-0.6,1.1-1.4,2.4
		c1.1-7,2-13.3,3.1-20.5c2.8,3.3,5.3,6.1,7.7,9c3.6,4.4,7.5,8.4,12.6,11.2C584.5,761,584.6,761.7,584.4,766.7z"/>
	<path d="M547.1,790.1c0.5,2.1,0.9,4.1,1.2,6.2c0.6,9.8,1,19.5,1.5,29.3c0.1,1.7,0.5,3.8-2,3.5c-2.3-0.3-1.2-2.3-1-3.6
		c1.5-8.9-2.4-17.3-2.5-26.1C544.1,796.2,544.1,793.2,547.1,790.1z"/>
	<path d="M517.6,868.9c-3.6,0.9-4.6-0.6-5.2-3c-1.6-6.9-0.9-13.7,0.7-20.5C514.3,853.2,509.5,862,517.6,868.9z"/>
	<path d="M164.4,399.1c-0.9,8.6-1.9,17.3-2.8,25.9l-1.3,0.3c-3.6-4.7-7.1-9.4-10.8-14.1c-1-1.5-2.2-2.9-3.6-4.1
		c-3.1-2.3-6.2-0.9-8.6,1.2c-2.7,2.4,0.1,4.2,1.4,5.8c6.4,8.1,12.9,16,19.3,24.1c1.9,2.4,4,3.9,7.3,2.7c2.9-0.9,5-3.6,5.1-6.7
		c1.3-11.9,2.2-23.8,4.5-35.6c0.5-2.8-0.8-3.5-2.8-3.1c-2.2,0.6-4.4,1.3-6.5,2.2c2.8-2.7,6.4-5.9,9.9-4.3c3.8,1.8,1,6.4,0.7,9.6
		c-1,10.7-2.6,21.4-3.8,32.2c-0.4,3.8-1.8,6.6-5.8,7.8c-3.9,1.2-6.7,0.1-9.2-2.9c-7.7-8.9-14.9-18.3-22-27.7c-2-2.6-1.8-4.1,1.4-5.6
		c8.3-3.9,8.2-4,13.8,3.3c2.8,3.7,5.7,7.2,9.3,11.8c0.6-5.5,1-9.9,1.6-14.2C162,404.7,161.8,401.4,164.4,399.1z"/>
	<path d="M579,345.9c-9.8-30.5-17-60.7-31-88.4l1.2-0.5c2.3,4.5,5.1,8.8,6.9,13.4c3.6,9.4,11.9,16.1,14.5,26c0.5,2,2,3.8-0.9,5.5
		c-2,1.2-0.8,3.2-0.3,4.9c3.1,10,6.2,20,9,30C579.4,339.7,579.6,342.9,579,345.9z"/>
	<path d="M568.3,345.9c4.6,24.6,5.7,49.3,0.9,74C572.1,395.3,570.1,370.6,568.3,345.9z"/>
	<path d="M533.5,227c6,8.3,9.3,18,13.4,27.3c-5.2-8.8-10.1-17.7-13.3-27.4L533.5,227z"/>
	<path d="M540,226.2c-4.1-4.9-7.4-10.3-9.8-16.2C534.9,214.4,538.3,220,540,226.2z"/>
	<path d="M481.2,1016.3c7.6-5.4,15.3-10.8,23-16.3c-1.5-1.7-3,0.9-4.4-0.8c7.7-4.4,14-10.5,20.7-16.1c7.6-6.4,12.1-13.9,12.5-23.8
		c1.1,10.4-1.2,19.8-8.2,27.6c-5,5.6-10.3,10.8-17.6,13.5c-4.6,1.7-8,5.4-11.8,8.3C491.1,1012,486.6,1014.9,481.2,1016.3z"/>
	<path d="M38.2,591.4c4.1,55.3-3.2,109.5-16.1,163.1C21.9,699.6,26.4,645.2,38.2,591.4z M34.4,626.6c-5.7,33.5-8.5,67.4-8.4,101.4
		C29.7,694.2,42.6,661.4,34.4,626.6z"/>
	<path d="M570.9,683.8c1.4,9.9,2.8,19.7,5.7,29.2c2.1,7.2,4.1,14.4,6.2,21.6c0.4,1.4,1.2,2.8,0.5,4.4c-0.5,1.2-0.9,2.9-2.5,2.6
		c-1.7-0.3-1.6-1.9-1.4-3.2c1-7-0.7-13.3-3.9-20.9c-1,2.7-1.1,5.7-0.1,8.4c0.6,2.4,0.1,4.7-2.4,5.3c-2.7,0.6-2.2-2.4-2.8-3.8
		c-2.4-6.5-1.3-13.1-0.6-19.7C570.3,699.6,570.8,691.7,570.9,683.8z"/>
	<path d="M252.3,511.5c3.8,5,8,9.8,11.4,15c6,9.3,14.7,12.4,25.2,11.9c0.8,0,1.7-0.3,2.5-0.2c1.2,0,3-0.8,3.5,0.9
		c0.5,2-1.5,2.3-2.8,2.7c-11.7,3.8-22.9-0.4-29.2-10.9C259.1,524.6,254.5,518.7,252.3,511.5z"/>
	<path d="M270.8,544.3c5.3,1.5,10.8,2,16.3,1.6c1.1-0.1,2.5-0.3,3,1c0.6,1.4-0.6,2.2-1.5,2.8c-3.3,2.3-3.1,4.7-0.4,7.4
		c0.8,0.8,1.8,1.7,0.6,3c-1.2,1.2-2.3,0.3-3.1-0.4c-1.5-1.3-2.9-2.7-4.1-4.3C278.9,551,275.2,547.2,270.8,544.3z"/>
	<path d="M620.6,744.3c7.8,15.1,11.1,32.5,24.5,44.8c-3.1,0.7-3.4-2.9-5.7-3.1c-1.9,0.7,0.4,4-2.4,4c-2.6,0.1-3.6-2-4.6-3.9
		c-0.6-1-1-2.1-1.2-3.3c-0.5-13.1-6.9-24.4-10.4-36.7C620.7,745.6,620.7,745,620.6,744.3z"/>
	<path d="M611.9,742c-1.1-4.7-2.2-9.5-3.3-14.2c0.3-0.2,0.5-0.4,0.8-0.6c1.2,1.5,2.6,2.9,3.6,4.5c1.1,1.7,4.1,3.9,2.8,4.9
		C613.7,738.2,613.7,740.2,611.9,742z"/>
	<path d="M206,507.4c3.8,2.4,4.3,5.2,5.4,7.8c2,4.6,2.8,9.9,8.3,12.4c1.9,0.9,1.5,3.8,1.2,7.5C214.2,526.3,209.2,518.2,206,507.4z"
		/>
	<path d="M387.2,753.3c-0.8,0.1-1.5,0-1.6-0.9c-0.1-1,0.7-1.5,1.5-1.8c7.3-2.9,13.5-7.9,20.9-10.5c3-0.9,5.7-2.7,7.8-5.1
		c2.3-2.8,4.1-2.9,6.9-0.6c4.8,3.9,9.6,7.7,12.1,13.6c0.6,1.4,1.5,3,0,4c-1.9,1.2-2.5-0.9-3.3-2c-2.1-2.8-4-5.7-5.9-8.6
		c-3.4-5.2-4.3-5.5-10.1-2.6c-8.3,4.2-16.5,8.5-24.8,12.7C389.5,752.3,388.3,752.8,387.2,753.3z"/>
	<path d="M359.6,359.8c-0.5,0.6-1,1.3-1.4,1.9c-0.5,0.8-1.5,1.5-0.5,2.5c1,1,2.2,0.5,3.2-0.1c3.3-2.1,5.8-5,8.3-7.9
		c4-4.6,7-10.1,13.1-13c-0.9,1.4-1.7,2.7-2.7,4.1c-1.1,1.5-2.2,2.9-3.4,4.3c-5.7,6.8-12.3,12.5-19,18.2c-3.2,2.7-6,3-9.5,0.3
		C351.4,366.6,354.4,362.2,359.6,359.8z"/>
	<path d="M385.4,338.8c-1.1-3.5-0.7-5.6,2.3-7.4c3-1.7,4-5.1,5.1-8.3c1-3.1,1.5-6.5,5.2-9.8C394.8,323.1,391.5,331.3,385.4,338.8z"
		/>
	<path d="M396.4,776.8c6.1-3.7,11.4-2.9,16.6-2.4c8,0.9,15.7,1.4,20.8-6.6c0.4-0.8,1.3-1.1,2.1-0.8c1.2,0.7,0.5,1.7,0.2,2.6
		c-2.2,7-5.4,9.4-12.7,9.4C414.8,779,406.3,778,396.4,776.8z"/>
	<path d="M441,803.7c-2.9-5-6.8-4.7-10.5-4.3c-4.3,0.5-8.5,1.3-12.7,1.9c-1.4,0.2-3.4,0.6-3.8-1.3c-0.5-2.1,1.6-2.2,3-2.3
		c6.2-0.6,12.5-1.2,18.7-1.4C439,796.2,441,798.7,441,803.7z"/>
	<path d="M217.7,1016c-4.9-7.1-5.5-14.8-4.8-24.2C214.6,1000.7,216.2,1008.3,217.7,1016z"/>
	<path d="M621,718.8c0.7,0,1.6,0.3,1.5,0.9c-1,4.7,3.3,7.3,4.3,11.2c0.5,1.7,1.1,3.2-0.9,4.2c-2.2,1-2.8-0.7-3.6-2.2
		c-1.4-3-3-5.8-4.4-8.8C616.9,721.8,618.8,718.7,621,718.8z"/>
	<path d="M147,574.8c-1.4-13-2.9-26-4.3-39C145.6,548.6,147.9,561.5,147,574.8z"/>
	<path d="M520.5,510.5c-0.7-5.3-1.3-9.8-1.8-14.2c-0.2-1.2-0.2-2.6,1.3-2.8c1.1-0.2,1.6,0.9,1.8,1.9
		C522.8,500.3,524.4,505.1,520.5,510.5z"/>
	<path d="M527.2,515.1c4.4,6.3,6,13.7,7.1,21.2C530.1,530,528.9,522.5,527.2,515.1z"/>
	<path d="M508,941.3c0.8-2.2,1.5-4,2.2-5.8c0.6-1.6,0.8-3.4-0.8-4.5c-3.4-2.5-1.3-4.8-0.1-7.3C514.3,930,513.9,936.8,508,941.3z"/>
	<path d="M79.6,565.6c1.1,36.2-0.7,72.2-7.7,107.8C75.8,637.5,77.1,601.5,79.6,565.6z"/>
	<path d="M33.2,810.1c3.5-14.9,7-29.9,10.5-44.8C42.1,780.7,39.1,795.8,33.2,810.1z"/>
</g>
</svg>
