<?xml version="1.0" encoding="utf-8"?>
<!-- Generator: Adobe Illustrator 21.0.0, SVG Export Plug-In . SVG Version: 6.00 Build 0)  -->
<svg version="1.1" baseProfile="tiny" id="图层_1"
	 xmlns="http://www.w3.org/2000/svg" xmlns:xlink="http://www.w3.org/1999/xlink" x="0px" y="0px" width="736.2px"
	 height="1026.2px" viewBox="0 0 736.2 1026.2" xml:space="preserve">
<title>7b08077a8598e841f741d5703ed49f32</title>
<g>
	<path fill="none" d="M516.8,90.1c-0.1,2.5-0.2,4.9-0.3,7.3C517,95.1,517,92.6,516.8,90.1z"/>
	<path fill="none" d="M481.5,97.1c-0.1,0.3-0.3,0.6-0.5,0.9C481.3,97.8,481.5,97.5,481.5,97.1z"/>
	<path fill="none" d="M380.9,97.3c1.5-1,3.1-1.8,4.9-2.3C383.6,95.1,382.1,95.9,380.9,97.3z"/>
	<path fill="none" d="M415.9,2.4C415.9,2.4,415.9,2.4,415.9,2.4c0,0.3,0,0.5,0,0.7l1.8-0.6L415.9,2.4z"/>
	<path fill="none" d="M476.6,171.4c-0.3,0.1-0.6,0.1-1,0c0.5,0.5,0.9,1,1.4,1.6C476.8,172.4,476.7,171.9,476.6,171.4z"/>
	<path fill="none" d="M506.5,693.8c-0.2-0.1-0.3-0.2-0.5-0.3c0,0,0,0,0,0l0.6,0.5C506.6,694,506.6,693.9,506.5,693.8L506.5,693.8z"
		/>
	<path fill="none" d="M572.6,239.5c-0.1-3.3-0.5-6.6-1.3-9.8C571.7,233,572.1,236.3,572.6,239.5z"/>
	<path fill="none" d="M628.8,361.1c0-2.2-0.2-4.3-1.3-6.1c0.5,2.5,0.9,4.9,1.3,7.4C628.8,362,628.8,361.5,628.8,361.1z"/>
	<path fill="none" d="M551.8,162.7c-0.6-1.4-1.3-2.7-2.1-4C550.4,160.1,551.1,161.4,551.8,162.7z"/>
	<path fill="none" d="M442.7,828L442.7,828C442.8,828,442.8,828,442.7,828L442.7,828C442.7,828,442.7,828,442.7,828z"/>
	<polygon fill="none" points="370.2,113.4 370.2,113.4 370.2,113.4 	"/>
	<path fill="none" d="M164.8,362.5c0.8-2.3,1.1-4.6,0.3-6.7c-0.7,4.4-1.5,8.7-2.2,13.1C163.5,366.7,164.1,364.6,164.8,362.5z"/>
	<path fill="none" d="M563.9,508.1C563.9,508.1,563.9,508.2,563.9,508.1L563.9,508.1C563.9,508.1,563.9,508.1,563.9,508.1z"/>
	<path fill="none" d="M54.6,741.6c0,0,0.1,0.1,0.1,0.1C54.7,741.6,54.6,741.6,54.6,741.6C54.6,741.6,54.6,741.6,54.6,741.6z"/>
	<path fill="none" d="M231.4,204.2C231.4,204.3,231.4,204.3,231.4,204.2c0.1,0.1,0.1,0.1,0.1,0.1
		C231.4,204.3,231.4,204.2,231.4,204.2L231.4,204.2z"/>
	<path fill="none" d="M433.9,133.9c1.2-0.4,2.4-0.8,3.5-1.2C436.2,133,435.1,133.4,433.9,133.9z"/>
	<path fill="none" d="M284.8,468.8c0.9,1.1,1.8,2.2,2.5,3.2C286.7,470.8,285.9,469.8,284.8,468.8z"/>
	<path fill="none" d="M182.7,234.2c0,0.1,0,0.1,0,0.2c0.1,0,0.1-0.1,0.2-0.1C182.8,234.3,182.8,234.3,182.7,234.2z"/>
	<path fill="none" d="M366.9,148.9C366.9,148.9,366.9,148.9,366.9,148.9L366.9,148.9L366.9,148.9c0.1,0,0.2,0,0.3,0c0,0,0-0.1,0-0.1
		C367.1,148.9,367,148.9,366.9,148.9z"/>
	<path fill="none" d="M80.9,700.7C80.8,700.7,80.8,700.7,80.9,700.7C80.8,700.7,80.8,700.7,80.9,700.7
		C80.8,700.7,80.8,700.7,80.9,700.7C80.9,700.7,80.9,700.7,80.9,700.7z"/>
	<path fill="none" d="M594.4,538.4c0.1,0.1,0.2,0.2,0.3,0.3C594.6,538.6,594.5,538.5,594.4,538.4z"/>
	<path fill="none" d="M546.4,449.8c0.2-0.7,0.2-1.4,0.2-2.1c-0.2,0.6-0.4,1.3-0.8,2c-0.1,0-0.1,0-0.2,0.1c0.1,0,0.2,0.1,0.3,0.1
		C546.1,449.9,546.3,449.8,546.4,449.8z"/>
	<path fill="none" d="M253.9,591.8c0.1,0,0.2,0,0.3,0l-0.2-0.4L253.9,591.8z"/>
	<path fill="none" d="M384.5,735.1c1.8,1.6,3.9,2.6,6.2,3.1C388.6,737.3,386.5,736.3,384.5,735.1z"/>
	<path fill="none" d="M308.1,963.9c0-0.1-0.1-0.1-0.1-0.2c0-0.1,0-0.1,0-0.2l-0.5,0.4C307.7,963.9,307.9,963.9,308.1,963.9z"/>
	<path fill="none" d="M164.1,552.9c0,0-0.1,0.1-0.1,0.1c0,0,0,0,0,0L164.1,552.9z"/>
	<path fill="none" d="M284.5,478.5c0.8,0.9,1.6,1.9,2.2,2.7C286.2,480.2,285.5,479.2,284.5,478.5z"/>
	<path fill="none" d="M559.1,497c0,0-0.1,0.1-0.1,0.1c0,0,0,0.1,0,0.1l0.1-0.1c0.1-0.1,0.1-0.1,0.2-0.2c-0.1,0-0.2-0.1-0.2-0.1
		L559.1,497L559.1,497z"/>
	<path fill="none" d="M239.6,430.2c0.1,0,0.2,0,0.3,0.1c0-0.1-0.1-0.2-0.1-0.3L239.6,430.2z"/>
	<path fill="none" d="M238.1,476.5C238.1,476.5,238.1,476.5,238.1,476.5c0,0,0.1,0,0.2,0c-0.1,0-0.2-0.1-0.2-0.1L238.1,476.5z"/>
	<path fill="none" d="M209.9,436.8c0.2-0.5,0.4-1,0.6-1.5C210.3,435.8,210.1,436.3,209.9,436.8z"/>
	<path fill="none" d="M591.5,597.2c0.1,0.2,0.1,0.1,0.2-0.1C591.6,597.2,591.6,597.2,591.5,597.2z"/>
	<path fill="none" d="M533.3,348.2c0.1,0,0.1,0,0.2-0.1l0-0.1C533.4,348,533.4,348.1,533.3,348.2z"/>
	<path fill="none" d="M621.3,342.6c-0.1,0-0.2,0.1-0.3,0.1c-0.1,0-0.2,0.1-0.3,0.1l0.5,0.7L621.3,342.6z"/>
	<path fill="none" d="M506.3,885.9C506.4,885.9,506.4,885.9,506.3,885.9l0.1,0C506.4,885.9,506.4,885.9,506.3,885.9z"/>
	<path fill="none" d="M602.8,323.9c-0.1,0.1-0.2,0.2-0.3,0.3l0.4,0.1L602.8,323.9z"/>
	<path fill="none" d="M518.4,577.9c-1.4,0.2-2.1,0.8-2.4,2.3C516.7,579.3,517.5,578.6,518.4,577.9z"/>
	<path fill="none" d="M512.1,300.7c0,0.2,0,0.4,0,0.6h1.4C513,301.1,512.6,300.9,512.1,300.7z"/>
	<path fill="none" d="M575,307.5c-0.1,0.2-0.1,0.3-0.2,0.5c0,0,0,0-0.1,0.1l0.8,0.1C575.3,308,575.2,307.8,575,307.5z"/>
	<path fill="none" d="M546.2,261.3c0.1,0,0.2,0.1,0.2,0.1l-0.1-0.1l-0.4-0.2C546.1,261.2,546.1,261.3,546.2,261.3z"/>
	<path fill="none" d="M553,260.8c0.1,0,0.1,0,0.2,0c-0.3-0.2-0.5-0.3-0.8-0.5L553,260.8z"/>
	<path fill="#FDFDFD" d="M522,880l0.6-0.2C522.4,879.8,522.1,879.9,522,880L522,880c-0.1,0-0.2,0.1-0.4,0.2L522,880
		C522.1,880,522,880,522,880z"/>
	<path fill="#FDFDFD" d="M544,616.3c-0.2,0.2-0.2,0.5-0.3,0.7L544,616.3z"/>
	<path fill="#FDFDFD" d="M736.2,800.1c0,0-0.1,0-0.1-0.1v0.1l-45.9,16.2c-9.4,3.6-18.8,7.2-28.2,11c-2.8,1.1-2.6-0.4-2.6-2.3
		c0.1-8.7,0.1-17.3,0.2-25.9c-0.1-44.1-0.3-88.1,0-132.2c0.1-9.3,9.9-11.3,15.6-15.9c18.9-15.4,38.5-30,57.9-44.9
		c0.8-0.6,1.9-0.6,2.8-0.9c0.1,0,0.1-0.1,0.2-0.1v-168c0,0-0.1,0-0.1,0v0l-88.1,112.8c0,0,0,0,0,0c-11.9,15.2-23.3,30.7-35.9,45.3
		c-5.2,6.1-13.3,2.6-20.1,1.7c0,0-0.1-0.1-0.1-0.1l0,0.1h0.1c0,0,0,0-0.1,0.1c0.1,0,0.2,0,0.3,0l-0.3,0c0,0-0.1,0.1-0.1,0.1
		c-0.1,0.2-0.1,0.3-0.2,0.1c-0.2,0-0.4,0-0.6-0.2l-5.6-13.9c0-0.1,0-0.2,0-0.3l-5.2-11.7l0-0.2c0,0-0.1,0.1-0.1,0.1
		c-0.3-17.1-0.6-34.2-1-51.3c-0.1-2,1.4-4.8-2.1-5.7l0,0.1l-1.8,3c0,11.4,0.1,22.9,0,34.3c0,1.8,1.9,5.2-2.3,5.2s-2.3-3.2-2.9-5.2
		v-2.3l-4.6-34.8c0,0,0.1,0,0.1,0c0,0-0.1-0.1-0.1-0.1l-1.4-6c0,0,0,0,0,0c0,0-0.1,0.1-0.1,0.1c-7.8,2.6-7.9,8-7,15.3
		c2.3,17.9,3.8,35.9,5.2,53.8c0.6,7.7,6.5,12,10.2,17.7c6.1,9-0.3,10-6.7,11.3c-0.1-0.1-0.1-0.1-0.2-0.2c0,0.1,0,0.2,0,0.3
		l-17.7,8.6c0,0,0,0,0,0.1l-0.1,0l0,0c0,0,0,0,0,0l-3.3-0.9v1.9c-0.1,0.1-0.1,0.1-0.2,0.2l-0.3,0.7c-0.1,0.7,0.1,1.5-0.6,1.9
		c-0.1,0.1-0.1,0.2-0.2,0.2c0.3,4.1,0.9,8.5-4.8,9.8c0,0,0,0,0,0l0,0.1H538c0,0,0,0.1-0.1,0.1l-0.5,1.3c0,0,0,0,0,0
		c0,0.1,0.1,0.3,0,0.4c0,0.1-0.1,0.2-0.1,0.3l2.6,9.3c-0.1,0-0.2,0-0.3,0c0.1,0,0.1,0,0.2,0.1c5.7,8.3,4.9,17.6,4.9,26.8
		c0,0.2,0.1,0.3,0.1,0.5l-0.7,3.2c-0.3,4.1-3.7,8.1-6,8.3s-1.1-4.4-2-6.8c-0.4-0.8-0.9-1.5-1.4-2.2c-0.7,0.6-1.9,1.2-2,1.9
		c-0.2,2.6-1,5.8,0.2,7.6s4,4.3,3.4,7.1c-0.2,0.8-4.7,0-6.1,1.2c-3.9,3.5-12.3,2.9-10.7,11.6c0.3,1.7-1.2,1.6-7.4-1.7l0,0h-1
		c-0.1,0-0.1-0.1-0.2-0.1c-2.7,0-4.7-0.8-4.4-3.9l-0.6-0.5c-3.3-0.4-5.9-1.5-5.7-5.6l-2.3-2.8c-2.8,5.5-5.6,10.9-8.6,16.3
		c-1.3,2.3,0.2,3.4,1.6,3.8c11.5,3.4,10.8,12.4,10.3,21.5c-0.6,4.8-0.6,9.4-0.6,14.1l0,0l-57.9,87.2c0,0,0,0.1,0,0.1l1.6,0.3l0,0
		c0,0,0.1,0,0.1,0l110-84.6c1.3-0.9,2.7-1.6,4.1-2.3c0.1,1.4,0.3,2.9,0.3,4.3c0,40,0,80,0,119.9c-0.1,0.1-0.1,0.2-0.2,0.3l0.3-0.1
		c3,6.2-2,8.3-5.7,7.8c-5.3-0.8-7.7,1.4-8.8,5.5s-3.4,2.5-6.3,2c-5.4-1-10.7-0.8-16.1-1.1c-0.9,2.7-2,7.7-2.8,7.7
		c-4.5-0.3-9.5,2.8-13.2-1.7l0.3-0.1c0,0,0,0,0,0c-0.1,0-0.2,0-0.3,0l-2,0.7c-1.7,11.3-10.3,9.7-18,9.2c-5.1-0.3-6.1,1.7-6,6.3
		s3.7,2.6,6.2,3c10,1.5,15.1-10.8,25.4-8.6c3.1,0.7,6.5,0.1,9.8,0s6.6,0.6,6.9-4.6s4.5-3.7,7.1-3.7s9-2.5,10.7,3.9l-0.4,0.1
		c0.1,0.1,0.3,0.1,0.4,0.2l1-0.2c0.1-0.1,0.2-0.2,0.3-0.3l-0.3,0.1l0.3-0.1c0.4-0.5,0.9-0.8,1.4-0.5l1.3-0.4c0,0,0,0,0,0l0,0l0,0
		c0.8-0.3,1.6-0.6,2.5-0.7l0,0l0,0c0,0,0,0,0,0l1.5-0.3c0.3-0.1,0.6-0.3,0.9-0.4l-0.9,0.3c1.4-2.2,3.5-1.8,5.6-1.7l-1,0.3
		c0.3-0.1,0.7-0.1,1-0.2l1.4-0.3l0.3-0.1c6.3-5.1,13-8.5,21.4-6.6c0.1,0,0.3,0,0.4,0l1.9-0.5c0.7-0.3,1.5-0.3,2.1-0.7
		c12.2-3.4,24.4-6.7,36.5-10.3c3.3-1,4.3-0.8,4.3,3c-0.1,29.7-0.1,59.3,0,89c0,3.3-0.9,4.2-4.2,4.2H296.4c-1.6-0.2-3.2-0.5-4.8-1
		l0.3-0.1c-0.1,0-0.2,0-0.3,0l-7.8-3.5c0,0,0,0,0,0L138.6,893c-1.3-0.6-2.7-1-4.1-1.5c-0.1,40-0.1,80-0.2,120c0,2,1.4,5.7-3.4,3.4
		L0.2,954.1c0,22.7,0.1,45.3-0.1,68c0,3.4,0.7,4.1,4.1,4.1c242.7-0.1,485.3-0.1,728,0c3.4,0,4.1-0.7,4.1-4.1
		C736.2,948.1,736.2,874.1,736.2,800.1z M569.7,551.5h0.2H569.7z M543.7,684.4h-1v-5.3h1V684.4z M627.8,837.9c0,2.3-1.4,2.7-3,3.3
		l-28.4,10.7c-1.9,0.7-3.2,0.7-3.4-1.7c0-0.1,0-0.2,0-0.2c-4.1-4.1-4.2,0.5-4.7,2.6c-0.5,2.2-2,3.2-4.1,3.5l0-0.1
		c0,0-0.1,0.1-0.1,0.1l-1.1,1c0,0,0,0-0.1,0.1l0.2-0.1c-0.3,1.4-0.7,2.5-2.1,0.7c-3.1,1.2-3.8,0.1-3.8-3.1
		c0.1-34.3,0.1-68.4,0.1-102.7l-0.2-15.9c-1.1-0.8-1.3-2.4-0.5-3.5c0.1-0.2,0.3-0.4,0.5-0.5v-4c-2.1-4.5-1.8-7.3,4.2-5.8l0,0
		c0,0,0,0,0,0c0.1-2.2,0.9-2.8,2.5-1.3c0.1,0.1,0.2,0.1,0.4,0.2l0.1,6.9l0,0.2c0-0.1,0.1-0.1,0.1-0.2c1.1,0.6,0.5,3.7,2.8,2.2
		s1.4-2.7,1.4-4.1s-3.2-3.4-1-5.1c2.1-1.6,3.5,0,5.2,0.2l-0.5-0.5c0.2-0.5,0.3-1.1,0.3-1.7l-0.3,1.6l0.3-1.6c0-1,0-2,0.5-2.9l0-0.2
		l0,0.2c0,0,0,0,0-0.1c7-10.3,18.4-15.3,27.4-23.2c2-1.8,4.5-2.9,6.8-4.3c0.2,2.6,0.6,5.2,0.6,7.8c-0.1,27.8-0.3,55.7-0.4,83.6
		C627.6,799.4,627.7,818.6,627.8,837.9z"/>
	<path fill="#022256" d="M230.1,2.6c0-0.1,0.1-0.2,0.1-0.4c3.6,30.1,7.2,60.3,10.8,90.4c2.1,17.3,3.9,34.7,6.1,52
		c0.2,1.5,1.5,3.7,2.8,4.2c9,3.5,9.2,9.1,6.3,17.5c-7.4,21.7-13.9,43.7-20.7,65.6c-0.7,1.7-1.6,3.3-2.5,4.8v-7.3
		c-22,12.1-36.4,29.6-43.7,54.4c-6.3,21.5-19.4,41.4-22.8,63.1c-0.5,3-0.9,5.9-1.4,8.9c0.8,2.1,0.5,4.4-0.3,6.7
		c-0.7,2.1-1.3,4.2-2,6.4c-1.1,6.3-2.3,12.6-3.6,18.9c-0.1,0.5,0.1,1,0.5,1.3c17.7,7.4,2.3,15.6,0.4,23.3c-0.7,3-3,5.5-4.4,8.4
		s-2.2,5.3-3.2,7.9c3.9,1.3,3.6-3.2,5.7-4.2s2,1.4,2.6,2.6c0,0,0,0.1-0.1,0.1c0.1-0.1,0.1-0.1,0.2-0.2l3.4,5.1c0,0.1,0,0.1,0,0.2
		c0.1-0.1,0.1-0.2,0.2-0.3c1.4,1.5,2.7,2.2,4-0.3c0.4-0.8,1.6-1.2,2.5-1.8v3.4l0,0l-0.4,9.5c0,0,0,0,0,0c0,0,0,0,0,0
		c1.4,8.1-5.7,13.1-7.1,20.2c0,0.1,0,0.2,0,0.4l0.1-0.4l1.3,1.1l8.7-14.7c1.8,8.4-6,14.6-1.8,21.7c0,0.1,0.1,0.2,0.1,0.3
		c0-0.1,0-0.2,0-0.3l9.8-18.5l3.2,65.1l0,0c0,0,0,0,0,0c2.5,13.6,12.5,23.5,17.5,35.8c10.7-5.2,5.1,6.3,8.6,8.5c0,0,0,0,0,0
		c0.1,0,0.2,0,0.2,0c1.7,6.2,8.5,11.7,1.9,19c-1.7,1.9-6.3,5.1-2.8,7.5s2.7-4.1,5.9-5.1l13.3,26.3c0,0.1,0,0.1,0.1,0.2
		c0-0.1,0-0.1,0-0.2l10.7-69c0,0-0.1,0-0.1,0c-25.9-10.6-28.3-37.4-38.6-58.1c-7.6-15.3-3-33.1,3.6-48.3c5.2-11.9,14.5-22.1,21.9-33
		c0.1,0,0.2,0,0.3,0c-0.1,0-0.1,0-0.2,0l15.4-0.2c0,0,0,0,0,0c6.8-0.9,8.1,5.7,11.9,8.9c0,0-0.1,0.1-0.1,0.1l0.2,0l18.7,19.9
		c0,0,0,0,0.1,0c2.2,2.2,4.5,4.3,6.6,6.6s2.6,6.7,1.6,9.9s-4.3,1.3-6.6,1.4c-4.6,0.2-9.3,0-13.9,0l0,0c-9.4,5.6-24.2,1.7-28.7,16
		l0.1,0.1c0,0,0,0,0,0l25.2-7.7c7.6-2.3,20.1,4.4,27.1,12.5c1,0.9,1.9,2,2.5,3.2c1.7,2.7,2.8,5.3,2.8,7.8c0,4-0.1,8,0,12
		s0.6,8.1,0.9,12.1c3.2-2.7,6.6-5.1,9.5-8c12.3-12,24.4-24.3,36.8-36.3c5.9-5.7,5.1-13.2,5.5-20.1s4.2-6.5,9.2-4.6l82.1,31.8
		c-0.4-3.3,0.6-5.1,4.8-3.6c9.7,3.5,5.9-7.3,9.9-10l0,0c6.9-9.6,16.9-17.2,27.4-18.8c18.4-2.8,37.4-2,54.4,8.7
		c4.6,2.9,10.1,4.5,15.1,6.7c0.1,0,0.1,0,0.2-0.1c0.3-0.7,0.6-1.4,0.8-2c0-3.5-2.2-5.5-5.9-7.2c-12.8-6.5-25.4-13.5-38-20.3
		c0,0,0,0-0.1,0.1l-2.5-0.2c0,0-0.1-0.1-0.1-0.1l-8.7,0.2l-9.7,0.8c1.9,2.2,3.6,4.5,5.6,6.7s1.1,2.5-1.1,2.5s-6.1,0.4-9-0.1
		c-21.6-3.8-38.6,3.1-50.8,21.3c-2.2,3.3-5.1,3.6-8.6,2.4l-67.7-22.3c-6.3-2.1-7.9-5.1-3.3-10.9c4.9-6.2,9.5-12.7,13.7-19.4
		c5.9-9.3,15.9-7.5,24.4-9.3c19.2-4,30.5-19.7,45.5-29.9c4.2-2.8,7.7-6.7,11.5-10.1c0,0,0,0,0,0c4.7-15.9,9.5-31.8,14.1-47.7
		c0.9-3.3,3.1-2.9,5.4-2.9h50.7c0-0.2,0-0.4,0-0.6c-4.5-1.9-7.7-3.1-10.6-4.6c-1.7-0.9-5.5-0.5-4.5-3.9s4.1-2.3,6.4-1.7l68.2,17
		l3.1,0.6c0,0,0,0,0.1-0.1c0.1-0.2,0.2-0.3,0.2-0.5c-10.7-14.9-20.7-28.9-31-42.7c-2.4-3.2-3.7,1-4.4,2.4c-4.3,9.4-9.4,9.9-15.3,1.6
		c-2.6-3.7-6-4.2-8.6-1s2,4,3.6,5.4c7.4,6.7,15.1,13.1,22.6,19.7c0.8,0.7,1.2,2,1.7,3c-1.1-0.1-2.4,0.3-3.2-0.3
		c-14.5-10-29-20.1-43.4-30.2c-2.4-1.7-2.2-3.2,0.8-3.9l41.1-10.3l0.1,0.1c0-0.2,0.1-0.3,0.1-0.5l18-5
		c-11.7-9.6-23.2-19.4-34.9-28.8c-20.4-16.2-40.8-32.3-61.1-48.5c0.3,0,0.7,0.1,1,0.1c-0.3-0.1-0.6-0.2-0.8-0.4
		c1.8-13.7-6.6-21.6-16.1-29.2c-3.2-2.6-4.9-3.5-7.7,0.1c-2.6,3.1-5.4,5.9-8.4,8.5c-1.7,1.6-4.9,4.2-5.5,3.8
		c-3.3-2.5-5.9-5.7-8.8-8.7c2.2-1.4,4.2-3,6.6-4c4.1-1.8,8.3-3.4,12.5-4.8c1.2-0.4,2.3-0.8,3.5-1.2c20.7-6.7,42.2-9.7,64.3-10
		c1.8,0,4.7,1.7,5.3-1.8c0.2-1.2-0.6-3.8-1-3.8c-2.8,0-6.9-0.6-8.2,1c-4.4,5.2-9.7,1.9-14.3,2c-2.2,0.1,1.1-3.1,1.1-4.9
		c0-0.5-0.2-1-0.5-1.4c-1.1,0.2-2.6,0.2-3.2,0.8c-15.1,15.4-35.4,10.9-51.9,8.4c-10.7-1.6-15,3.2-21.6,6.3c-4,1.9-6.9,4.3-10.2-0.6
		c-1.7-2.5-3.1-0.4-4.4,0.6L368,149.5c-0.5,0-0.8-0.2-0.8-0.6c-0.1,0-0.2,0-0.3,0l0.8,1l-1.4,1l0.6-2c0,0,0,0,0,0c0.1,0,0.2,0,0.3,0
		c0-0.1,0-0.2,0-0.3c4.4-10,8.8-20.1,13.4-30c0.5-1.1,2.9-2.5,3.7-2.1c2.4,1.1-0.3,2.2-0.4,3.5c-0.2,2.9-5.9,4.7-1.9,8.2
		s6.4-1.3,8.7-3.5c5.4-5.4,10.4-11.2,15.8-16.6c0.9-1,2.9-0.9,4.4-1.3c-0.4,1.2-0.6,2.5-0.8,3.8c-0.1,1.7-3.9,3.1-1,4.8
		c2.9,1.7,4.7,2.3,7.8,0.4c7.5-4.5,13-13.1,23.1-12.9c1.2,3-5,2.3-2.3,4.5s5.8,5.9,10,2.2c4.2-3.7,9.8-2.5,8.5-7.4
		c-1.3-4.9-7-1.7-10.5-1.5c-6.9,0.5-16.7,3.6-20.2,2.6c-21-6-36.4,9.9-55.1,11.1c-0.2-0.3-0.3-0.7-0.2-1l0,0l0,0
		c0-0.1,0.1-0.3,0.2-0.4c2.3-7.6,5.9-12.6,10.5-15.7c1.2-1.4,2.7-2.3,4.9-2.3c5.4-1.8,11.9-1.9,19.4-1c24.2,3.1,48.9,2.9,73.3,4.2
		c1.2,0.1,2,0,2.5-0.2c0.2-0.3,0.4-0.6,0.5-0.9c0-0.6-0.4-1.3-0.9-2.4c-10.7-21.8-21.4-43.6-31.9-65.5c-1.1-2.3-2.6-3-5-3.3
		l-65.4-8.1c-0.2-0.2-0.4-0.5-0.4-0.8v1l-3.3-0.7l3.3-1.3v0.6c0-0.2,0.1-0.5,0.3-0.7l-0.1,0l0.1,0c0,0,0-0.1,0-0.1h0.2l0.1,0
		c0.2-0.1,0.5-0.2,0.8-0.3l0.8-0.3l-0.8,0.3c0.4-0.1,0.7-0.2,1.1-0.4l35.6-12c0-0.2,0.1-0.5,0-0.7c0,0,0,0,0,0L391.1,1h-6.9
		l-9.1,0.1l-37.3,37.6l8.3-38.4c0,0,0-0.1-0.1-0.1h-37.9L319,72.3c0.4,0.8,1,1.6,0.4,2.2l0.8,3.6l1.6,7.6l-1,0.3l-1.6-6
		c0,0,0.1-0.1,0.1-0.1l-1-4.8l0-0.1c0,0,0,0,0,0L297.1,0.1h-67v2C230.1,2.3,230.1,2.4,230.1,2.6z M192.9,415.5
		c-5,9.1-10.3,18.1-16.8,29.2c0.7-16.1,1.4-29.8,2-43.5c0-0.6,0.5-1.1,0.8-1.6c4.9,3.3,9.9,6.4,14.7,9.9
		C196.5,411.6,193.9,413.7,192.9,415.5z M206.5,386.7c-1.2-10.5-2.4-20.8-3.4-31.1c-0.1-1,1.2-2.2,1.8-3.2c0.8,0.6,2,0.9,2.4,1.7
		C213.2,364.8,215.8,375.6,206.5,386.7z M280.9,453.7c-0.2,0.9-1.8,2.2-2.5,2.1c-5.5-0.9-11-2.2-16.5-3.3l0.3-2.2h16.1
		c1.4-0.2,2.6,0.8,2.8,2.2C281.1,452.9,281,453.3,280.9,453.7z M430.9,460l2.2,2.5l-2.3,2.5c-0.6-0.9-1.5-1.9-1.5-2.8
		S430.4,460.7,430.9,460z M370,113.2v1.4h-0.7L370,113.2z M376.2,280.2c-0.9,0.2-1.9,0.3-2.8,0.3c0.2-1.1,0.5-2.1,0.9-3.1
		c7.3-11.7,14.7-23.4,22.1-35c2.9-4.6,7.7-2.3,11.5-2.5c23.7-1.7,47.2-2.8,74.4-4.3L376.2,280.2z M324,211.7
		c12.6-2.8,23-9.8,35.9-7.9c1.2,0.2,3.4-1.1,3.6-2c0.2-0.9-1.1-2.7-1.8-4s-5.1-3.2-2.5-6c4.3-4.7,9.3-8.9,14-13.3
		c1,2.6,2,5.1,2.9,7.7c0.9,2.6,0.1,7.7,4.6,7.7s12.5,1.5,14.9-5.1c4.1-11.3,10.3-13.3,21.7-9.8c20.8,6.3,42.1,10.8,63.1,16.2
		c1,0.2,2.6,1.6,2.4,1.9c-6.7,16.1,10.6,12.2,15.8,18.3c3.8,4.5,10.7,6.4,16.2,9.6c1,0.6,1.7,1.8,2.5,2.7c-1.2,0.4-2.4,1.2-3.7,1.2
		H361.2c-0.9-0.2-1.8-0.5-2.6-0.9c0.5-1,1.2-1.9,1.9-2.8l20.9-19.6c-16.4,5.6-31.6,4.6-46.2,7.8c-14.6,3.2-27.8,6.1-39.6,11.8
		c-19.6,9.5-40.4,15.7-60.1,24.7c-1.7,0.8-4.9,3.4-5.9,0.6s2.7-3.8,5.1-4.6c17.5-6.5,35.9-11.5,52.4-20.1
		C299.1,219.6,311.4,214.5,324,211.7z"/>
	<path fill="#022256" d="M378.5,15.8l-0.1,0L378.5,15.8C378.4,15.8,378.5,15.8,378.5,15.8z"/>
	<path fill="#DCEEE3" d="M54.2,741.3c0.1,0.1,0.2,0.2,0.4,0.3c0,0,0,0,0,0C54.5,741.4,54.4,741.3,54.2,741.3l1.5-2.3l0,0
		c1-11.6,1.6-23.2,3-34.8c6-51.1,12.1-102.1,18.4-153.2c5.4-44.8,10.8-89.6,16.3-134.4c5.6-46.9,11.1-93.9,16.8-140.8
		c5.1-42.3,10.4-84.6,15.5-126.9c5.9-49.6,11.7-99.2,17.4-148.8C96.9,0.1,50.8,0.2,4.6,0C0.8,0,0,0.8,0,4.6
		c0.1,232.9,0.1,465.7,0.1,698.5c14.9,7.5,26.3,19.8,40,29L54.2,741.3z"/>
	<path fill="#ED215D" d="M492.4,2.6c31.5,23,26,56.6,24.4,87.5c0.2,2.5,0.2,4.9-0.3,7.3c0,0.6,0,1.2,0,1.7
		c-0.2,12.1,2,19.1,8.6,25.8c10.2,10.5,18.3,21.8,24.6,33.8c0.8,1.3,1.5,2.6,2.1,4c10.4,20.8,16,43.5,19.4,67
		c0.8,3.2,1.2,6.5,1.3,9.8c0.5,3.7,0.9,7.4,1.2,11.2c0.3,2.1,1.3,3.9,2.9,5.3c13.1,11,25.5,23.3,39.8,32.5
		c21.4,13.8,22.5,37.5,32,57.2c6.8,14,6.4,26.7-1.2,39.9c-6.4,11-1.6,22.6-0.3,33.7s0.7,20.9-6.3,30.4s-13,20.8-19.5,31.3
		c-0.2,0-0.4,0.1-0.7,0.1l0.3,0.1c3.4,6.8,11.2,5.7,16.2,9.3c9.6-21.2,19.4-42.4,28.7-63.7c22.4-51.4,44.6-102.8,66.9-154.3
		c1-1.9,2.1-3.7,3.4-5.4v0.4c0-0.1,0.1-0.2,0.1-0.3c-0.1-87.5,0-175.1,0.1-262.7c0-3.6-0.7-4.4-4.3-4.4H491.1
		C491.5,0.9,491.7,2.1,492.4,2.6z"/>
	<path fill="#81CDCA" d="M110.2,275.8c-5.7,46.9-11.2,93.9-16.8,140.8c-5.5,44.8-10.9,89.6-16.3,134.4
		c-6.3,51.1-12.4,102.1-18.4,153.2c-1.4,11.5-2,23.1-3,34.8l21.1-35.4c0.1-0.1,0.2-0.1,0.3-0.2l2.6-2.7c0.4,0,0.7,0,1.1,0
		c0,0,0,0,0,0c-0.3,0-0.7-0.1-1-0.1c0-0.2,0.1-0.4,0.1-0.7c0,0,0,0,0,0c-0.1-0.3-0.1-0.6-0.1-0.9v-0.1l-0.1-0.1l0.1-0.2v0
		c20.9-36.5,41.9-72.9,62.8-109.3c6-10.5,12.3-20.8,18.5-31.3c0,0,0.1,0,0.1,0c-0.1,0-0.1,0-0.2-0.1c-15.7-7.3-8.5-21.5-9.9-33.2
		c-0.2-1.5,1.2-3.2,1.8-4.7c0.4,9,0.3,18,1.2,26.9c0.8,5.1,6.1,5,9.9,6.1c0,0,0.1-0.1,0.1-0.1l13.2-24.9v0l0,0h-0.2l-1-1
		c-8.8-11.2-6.4-25.3-10-37.9c-0.8-2.7-0.5-6.4-4.1-6.5s-2.1,4-3.3,6.1s-1.8,4-2.7,6.1c-2.6-1.4-5.5-2.3-7.8-4.1s0.2-4.3,1.1-6
		c7-14,14.2-28,21.3-41.9c0,0,0,0,0,0l0.4-9.5c-2.3,4.9-4.4,9.9-7,14.7c-0.9,1.7-0.9,5.9-3.7,4.3s-5.3-4.5-3-8.4
		c2.2-3.8,4.7-7.7,7-11.6c0-0.1,0-0.1,0-0.2l-3.4-5.1c-0.1,0.1-0.1,0.1-0.2,0.2c-8.6,12.7-10.9,27-11,42c0,4.3-4.2,3.4-6.6,3.6
		s-1.3-2.7-1.1-3.9c0.7-5.9,1.8-11.8,2.8-17.7s3-10.2-4.4-13.1c-3.8-1.5,0-4.3,1.4-5.7c8.9-9,16.2-18.3,10-32.3
		c-0.8,2-1.4,4.1-1.8,6.2c-1.2,9.9-7.2,4.7-11.6,3.5c-6.2-1.6-2.1-5.5-0.7-7.5c6.5-9.7,5.5-16.6-6.4-20.5c-3.9-1.3-4.8-3.9-1.5-7
		c11.1-10.6,10-21.8,2.3-33.9s-10.1-22.7-3.3-36.2s11.2-28.5,16.4-42.9c2.3-6.3,8.2-7.9,12.8-11.2c8-5.6,16.2-10.6,24.7-16.2
		c0-0.1,0-0.1,0-0.2c-16.6-6.7-29.4,5.1-44,7c12.2-4.8,22.7-13,36.9-13.3c9.2-0.2,19.7-1.1,27.6-0.6c19.6,1.5,17.4-17.5,28.2-22.8
		c0-0.1,0-0.1,0-0.2c0,0,0,0,0,0c0,0,0,0,0-0.1l-0.1,0.1l-0.5-0.5c-2.8-0.1-5.8,4.7-7.2,2s3.3-4.5,5.7-5.5c18.8-8.3,19.5-27,25-42.8
		c1.3-3.8-2.7-2.4-3.8-2.1c-9.2,1.7-12.8-2.6-15.6-11c-8.2-24.2-17.4-48.1-26.1-72.2c-0.7-2-1.6-4.4-1-6.2
		c7.3-21.2,14.8-42.4,22.3-63.4c0-0.2,0-0.3,0-0.5v-2h-87c-5.7,49.6-11.5,99.2-17.4,148.8C120.6,191.2,115.3,233.5,110.2,275.8z
		 M177.1,528.1l-1-1L177.1,528.1z M155.4,514.5c0.2-0.3,0.6-0.6,0.9-0.9s0.5,0.8,0.4,1.1s-0.6,0.7-1.1,1.2
		C155.5,515.3,155.2,514.8,155.4,514.5z"/>
	<path fill="#FAFAFA" d="M559.2,261.1C559.2,261.1,559.2,261.1,559.2,261.1L559.2,261.1L559.2,261.1L559.2,261.1z"/>
	<path fill="#FAFAFA" d="M604.3,465.9l-0.6-0.6C603.8,465.5,604,465.8,604.3,465.9z"/>
	<path fill="#FAFAFA" d="M559,260.9l-0.9-1.3C558.3,260.1,558.6,260.5,559,260.9z"/>
	<path fill="#FAFAFA" d="M391.1,1l24.8,1.4l1.8,0.1l-1.8,0.6l-35.6,12c-0.3,0.2-0.7,0.3-1.1,0.4l-0.8,0.3c0,0-0.1,0-0.1,0h0
		l-0.2,0.1c-0.1,0.2-0.2,0.4-0.3,0.7V17c0,0.3,0.2,0.6,0.4,0.8l65.4,8.1c2.4,0.3,3.9,1,5,3.3c10.5,21.9,21.2,43.7,31.9,65.5
		c0.5,1,0.8,1.8,0.9,2.4c0,0.4-0.1,0.7-0.5,0.9c-0.5,0.2-1.2,0.3-2.5,0.2c-24.4-1.3-49.1-1.1-73.3-4.2c-7.6-0.9-14-0.8-19.4,1
		c-1.7,0.6-3.4,1.4-4.9,2.3c-4.7,3-8.2,8-10.5,15.7c-0.1,0.1-0.2,0.3-0.2,0.4l0,0c-0.1,0.3,0,0.7,0.2,1
		c18.7-1.2,34.1-17.1,55.1-11.1c3.5,1,13.3-2.1,20.2-2.6c3.5-0.2,9.2-3.4,10.5,1.5c1.3,4.9-4.3,3.7-8.5,7.4c-4.2,3.7-7.3,0-10-2.2
		s3.5-1.5,2.3-4.5c-10.1-0.2-15.6,8.4-23.1,12.9c-3.1,1.9-4.9,1.3-7.8-0.4c-2.9-1.7,0.9-3.1,1-4.8c0.2-1.3,0.4-2.6,0.8-3.8
		c-1.5,0.4-3.5,0.3-4.4,1.3c-5.4,5.4-10.4,11.2-15.8,16.6c-2.3,2.2-4.7,7-8.7,3.5s1.7-5.3,1.9-8.2c0.1-1.3,2.8-2.4,0.4-3.5
		c-0.8-0.4-3.2,1-3.7,2.1c-4.6,9.9-9,20-13.4,30c0,0.1,0,0.2,0,0.3c0,0,0,0.1,0,0.1c0,0.4,0.3,0.6,0.8,0.6l24.8-20.2
		c1.3-1,2.7-3.1,4.4-0.6c3.3,4.9,6.2,2.5,10.2,0.6c6.6-3.1,10.9-7.9,21.6-6.3c16.5,2.5,36.8,7,51.9-8.4c0.6-0.6,2.1-0.6,3.2-0.8
		c0.3,0.4,0.5,0.9,0.5,1.4c0,1.8-3.3,5-1.1,4.9c4.6-0.1,9.9,3.2,14.3-2c1.3-1.6,5.4-1,8.2-1c0.4,0,1.2,2.6,1,3.8
		c-0.6,3.5-3.5,1.8-5.3,1.8c-22.1,0.2-43.5,3.3-64.3,10c-1.2,0.4-2.4,0.8-3.5,1.2c-4.2,1.5-8.4,3-12.5,4.8c-2.4,1-4.4,2.6-6.6,4
		c2.9,3,5.5,6.2,8.8,8.7c0.6,0.4,3.8-2.2,5.5-3.8c3-2.6,5.8-5.4,8.4-8.5c2.8-3.6,4.5-2.7,7.7-0.1c9.5,7.6,17.9,15.5,16.1,29.2
		c0.3,0.1,0.6,0.3,0.8,0.4c4.3,0.1,8.9-1.7,13.5,2.9c0.4,0.1,0.7,0.1,1,0c-2.2-9.4,2-15,7-20.3c1.1-1.1,1.7-3.7,4.1-1.4
		c2.4,2.3,3,3.2,1,5.3c-6.1,6.6-4,10.8,3.7,13.7s2.6,8.6,3.8,13c0.8,2.8-2,8,1.8,7.9c5.9-0.1,13.3,4.3,18-3.5
		c1.8-2.9,2.6-10.9,8.5-3.1c0.4,0.5,0.2,2.3-0.2,2.6c-8.6,4.7-2.6,7.6,1.5,9.8c7.4,4,10.2,9.2,6.4,17.2c-1.5,3.2-0.4,5.3,2.4,7.4
		c10,7.6,19.8,15.6,30.5,24l-7.9,1.9c0,0,0,0-0.1-0.1l-18,5c-0.1,0.2-0.1,0.3-0.1,0.5l3.3,5c0.7,0.6,1.2,1.3,1.7,2h0.1
		c0.1,0.1,0.2,0.2,0.3,0.3l-0.3-0.4l0.3,0.4c0.2,0.2,0.3,0.3,0.4,0.5l0.2,0.2l-0.2-0.2c0.1,0.1,0.1,0.2,0.2,0.3
		c0.1,0,0.1,0.1,0.2,0.1l-0.2-0.3l0.2,0.3c0.4,0.2,0.7,0.5,0.8,1l0,0l0,0c0,0.1,0,0.1,0,0.2c0,0.2,0,0.3,0.1,0.5l0.4,0.2l-0.2-0.2
		l3.9-1v-1.9l0.7,0.6c-0.2-0.2-0.4-0.5-0.6-0.7c2.2-1.9,4.5-3.9,7-0.3l0,0l0.4,1.2l-1-0.6l0,0v0.4l0.3,0.2c0.2,0.1,0.6,0.1,0.8,0
		h0.4v0.4c0,0.1,0,0.1,0.1,0.2l0.9,1.3c0.1,0,0.1,0.1,0.2,0.1h-0.1l0,0.1c0,0,0,0,0-0.1l27.8,25.2c0,0,0,0,0.1,0l1.1-1.1
		c0,0,0-0.1,0-0.1l-10.2-11.8c0,0,0-0.1,0-0.1l-4.4-4.5c0,0,0-0.1,0-0.1l-0.1,0.1l-0.8-1.2l0.1-0.1l-0.4-1.2l-0.1-0.1h0.1l0,0.1
		l0.9,0.8l-0.3,0.4l0.4-0.3l1.1,0.9l0,0c0,0,0.1,0,0.1,0c0,0,0,0,0,0l4.8,4.1c4.6,5.8,14.5,6.7,14.8,16.4c0,0.6-0.6,1.3-1,1.8
		l0.1,0.1v1.6l1.6,20.7l-4.6-5.6c0,0-0.1,0-0.1,0l0,0c-1.4,2.2-2,6.2-5.7,2.9c-0.1,0-0.1,0-0.2,0.1l-1.8,0.9
		c-0.2,0.1-0.5,0.3-0.7,0.5c-0.5,1.6,0.1,5-3.3,1.9c0,0-0.1,0-0.1,0l-1.9,1.1c-0.1,0-0.2,0-0.3-0.1l-1.8,3.3c0,0,0,0,0.1,0.1
		l1.9,0.2c0.1,0,0.1,0,0.2,0c3-1.4,5.5-1,7.6,1.9c0,0,0.1,0,0.1,0.1l18.4,4.3c0.1-0.1,0.2-0.2,0.3-0.3l-2.1-6.9l0,0
		c-0.1-0.1-0.3-0.3-0.3-0.4c0-0.1,0.1-0.1,0.2-0.2l-0.2-0.5l20.4,26.9c0.1,0,0.2,0,0.3-0.1c0.1,0,0.2-0.1,0.3-0.1l1.4-25.1
		c1,0.9,1.4,1.1,1.4,1.2c-1.3,12.3,1.1,24.4,3.4,36.3c1.1,1.8,1.3,3.8,1.3,6.1c0,0.4,0,0.9,0,1.3c1.8,10.6,2.7,21.2,0.1,31.9
		l-24.8-65.5v0l-29.1,8.3c0,0-0.1,0.1-0.1,0.1l0.2-0.1l-0.2,0.1c-0.2,0.3-0.6,0.5-0.9,0.5l-0.1,0l0.1,0c-0.1,0-0.1,0-0.2,0
		c4.1,19,8.1,38,12.4,57c5.1,23.1,10.6,46.2,15.9,69.3l0.8,0.3c0.5,0.1,0.6,0.5,0.8,0.9l0.6,0.6l9.4,5.4c0,0,0,0.1,0,0.1l5.3,8.7
		c0,0.1-0.1,0.1-0.1,0.2l1.7,0.8c0.2,0,0.4,0,0.7-0.1c6.5-10.5,12.5-21.8,19.5-31.3s7.6-19.3,6.3-30.4s-6.1-22.7,0.3-33.7
		c7.6-13.2,8-25.9,1.2-39.9c-9.5-19.7-10.6-43.4-32-57.2c-14.3-9.2-26.7-21.5-39.8-32.5c-1.6-1.4-2.6-3.2-2.9-5.3
		c-0.4-3.7-0.8-7.5-1.2-11.2c-0.4-3.3-0.8-6.6-1.3-9.8c-3.5-23.5-9.1-46.2-19.4-67c-0.7-1.3-1.4-2.7-2.1-4
		c-6.4-11.9-14.4-23.3-24.6-33.8c-6.6-6.7-8.8-13.7-8.6-25.8c0-0.6,0-1.2,0-1.7c0.1-2.4,0.2-4.9,0.3-7.3
		c1.6-30.9,7.1-64.5-24.4-87.5c-0.7-0.5-0.9-1.7-1.3-2.5h-99.9c0,0-0.1,0-0.1,0C391,0.4,391,0.7,391.1,1z M542.3,256.1l1.7,2
		L542.3,256.1z"/>
	<path fill="#FAFAFA" d="M378.2,15.8C378.2,15.8,378.2,15.9,378.2,15.8h0.2H378.2z"/>
	<path fill="#FAFAFA" d="M378.5,15.8l0.8-0.3C379,15.5,378.7,15.6,378.5,15.8z"/>
	<path fill="#880164" d="M134.3,1011.5c0.1-40,0.1-80,0.2-120c0,0-0.1,0-0.1,0l-0.4-75.7l0,0l-49.9-15.9c-1.3-0.2-2.5-0.6-3.7-1.2
		L0.1,773.1c0,60.3,0,120.7,0,181l0.1,0l130.7,60.8C135.7,1017.2,134.3,1013.5,134.3,1011.5z"/>
	<path fill="#40BEB8" d="M675.2,651c-5.7,4.6-15.5,6.6-15.6,15.9c-0.3,44.1-0.1,88.1,0,132.2c0,0,0,0,0,0l30.6,17.2l45.9-16.2V800
		V605.2c-0.1,0-0.1,0-0.2,0c-1,0.3-2.1,0.3-2.8,0.9C713.7,621,694.1,635.6,675.2,651z"/>
	<path fill="#F7921E" d="M732.6,272.5c-22.3,51.5-44.5,102.9-66.9,154.3c-9.3,21.3-19.1,42.5-28.7,63.7l-0.8,3.8c0,0-0.1,0-0.1,0
		l0.1,0.1v0.4l0,0.1c0,0,0.1-0.1,0.1-0.1c16,7.8,17.8,20,11.3,35.1c-2.1,5-3.1,10.5-4.3,15.9c-0.8,3.5,0.3,5.8,4.6,4.1c0,0,0,0,0,0
		c0,0,0,0,0,0L736,437.1v0V267.5v-0.4C734.7,268.8,733.6,270.6,732.6,272.5z"/>
	<path fill="#FAFAFA" d="M84.1,799.9l49.9,15.9l-0.5-12.3c0-0.1,0-0.1,0-0.2l-74.9-57.2c-1.5-1.2-2.7-2.9-3.9-4.4
		c0,0-0.1-0.1-0.1-0.1c-0.1-0.1-0.2-0.2-0.4-0.3l-14.1-9.2c-13.7-9.2-25.1-21.5-40-29c0,23.3,0,46.7,0,70l80.3,25.6
		C81.6,799.3,82.8,799.7,84.1,799.9z M80.4,798.6l3.7,1.2L80.4,798.6z"/>
	<path fill="#FAFAFA" d="M375.1,1.1c0-0.3,0-0.7,0-1h-29l0,0.2l-8.3,38.4L375.1,1.1z"/>
	<path fill="#FAFAFA" d="M318.3,75l0.7-2.6l0.4,2.1c0.5-0.6,0-1.4-0.4-2.2L308.1,0.2l0-0.1h-11L318.3,75C318.3,75,318.3,75,318.3,75
		z"/>
	<path fill="#856E91" d="M375.1,1.1l9.1-0.1h0c-0.1-0.3-0.1-0.6-0.1-0.9h-9C375.1,0.4,375.1,0.8,375.1,1.1z"/>
	<path fill="#81CDCA" d="M384.2,1L384.2,1h6.9c-0.1-0.3-0.1-0.6,0-0.9c0,0,0,0,0,0h-7C384.1,0.4,384.1,0.7,384.2,1z"/>
	<path fill="#F7921E" d="M431.7,740.6c-3-0.1-6.1-1-8.9-0.3c-0.7,0.2-1.3,0.3-2,0.4C424.4,740.7,428.1,740.7,431.7,740.6
		C431.7,740.7,431.7,740.6,431.7,740.6z"/>
	<path fill="#F7921E" d="M405.4,882.8l-5.3,7.3C402,887.7,403.6,885.2,405.4,882.8z"/>
	<path fill="#F7921E" d="M391.8,903.1l-0.6,0.8C391.5,903.7,391.7,903.4,391.8,903.1z"/>
	<path fill="#F7921E" d="M298.2,963.9c0.4-0.1,0.8-0.3,1.1-0.4L298.2,963.9l14.9-5.8c0,0,0,0,0,0l57.1-21.8c0.2-0.5,0.6-0.9,1.1-1.1
		v0l13.1-21c0.4-0.7,0.8-1.3,1.4-1.8l5.4-8.5l0.6-0.8v-0.4c0.1-0.2,0.3-0.4,0.4-0.6c1.5-4.4,4.1-8.4,7.5-11.6
		c0.1-0.2,0.2-0.3,0.3-0.5h0.1c1.3-4.3,3.9-8,7.6-10.6l8.4-13c-1-4.5-3-0.4-3.6-0.1c-23.8,13.5-47.4,27.2-71.1,40.8
		c-1.3,0.6-2.7,1.2-4.1,1.6c0-1.4-0.3-2.9,0.1-4.2c16.2-53,32.4-105.9,48.4-158.9c1.2-3.9,2.7-4.9,6.5-4.9c2.1,0,4.3,0,6.4,0
		c-2.8-0.6-5.4-1.5-8-2.6c-2.3-0.5-4.4-1.5-6.2-3.1c-12-6.9-21.8-18.2-31.8-29.1c-2.2-2.4-4.6-4.6-6.9-6.9l-37.7,8.8
		c-3.6,0.9-5.7,0.6-7.4-3.5c-14.7-36.2-29.7-72.2-44.6-108.3l-1.9-4.3c-0.1,0-0.2,0-0.3,0l-59.4,201.1c-2.9-26.1-6.2-50.1-8-74.2
		c-0.6-8.7-2.8-12.1-11.5-10.6c-2.7,0.5-5.6,0-8.5-0.1c0,0,0,0,0,0h0c-7.4,22-14.9,43.9-22.2,65.9c-2.9,8.7-5.5,17.4-8.3,26.1
		l-0.1,0.1c0.7,2-1.4,4.9,1.9,6c0.3,0.2,0.6,0.4,1,0.6l-0.8-0.6l54.5,23.7l67.8,29.2l-0.1-0.1c-1.6-30.7-3.2-61.3-4.8-92
		c-0.2-3.2,0.1-5.1,4.1-4.9c6.5,0.3,13,0.2,19.5,0.3c0,0.1,0,0.3,0,0.4c0.4,1.4,1,2.8,1,4.2c0.1,51.9-0.3,103.9,0.4,155.8
		c0.2,12.9-0.3,26.1,3.4,38.7l0,0c0,0,0,0,0,0l7.8,3.5c0.1,0,0.2,0,0.3,0L298.2,963.9z M371.2,935.1l-1.1,1.1L371.2,935.1z"/>
	<path fill="#F7921E" d="M371.3,935.5C371.3,935.5,371.3,935.5,371.3,935.5L371.3,935.5L371.3,935.5z"/>
	<path fill="#3C0455" d="M498.7,739.5l0.3,0.3l-18.8,0.4c-0.1-0.1-0.1-0.1-0.2-0.2c-22.4,4.5-35.8-12.4-51.6-22.7
		c-38.4-25-76-51.2-113.9-77c-7.9-5.4-15.6-10.9-23.6-16.1c-2.6-1.7-1.7-3.8-1.7-5.7c-0.1-34.3,0-68.6-0.1-102.9
		c0-2.1,1.1-4.9-2.1-5.9c0-0.1,0-0.3,0-0.4c-0.1,0.2-0.1,0.3-0.2,0.5l-1.1,1.2l0.1-0.1l-0.1,0.1l0,0c0,0.5-0.4,0.9-0.9,0.9l-8.4,7.5
		c0,0,0,0,0-0.1c0,0.1-0.1,0.2-0.1,0.3l-15.4,15.1c7.7,29.3,15.5,58.7,23.2,88.1c5.9,22.5,11.6,45,17.3,67.6c1,4.1,2.3,4.5,6,2.3
		c20.8-12.8,20.9-12.7,38.5,6.4l-0.1,0c2.3,2.3,4.7,4.5,6.9,6.9c10,10.9,19.9,22.2,31.8,29.1c2,1.2,4.1,2.2,6.2,3.1
		c2.6,1.1,5.2,2,8,2.6c7.3,0,14.7,0,22.1-0.1c0.7-0.1,1.3-0.3,2-0.4c2.8-0.7,5.9,0.2,8.9,0.3c0,0,0,0.1,0,0.1c0,0,0,0,0,0l0.4,1
		c0,0.3,0.1,0.6,0.1,0.9c0-0.3,0-0.5,0-0.8l0.8,9.8l0,0c2,24.5,4.3,49,5.7,73.5c0.9,15.8-12.2,24.7-19.5,36.5
		c-0.3,0.5-0.5,0.9-0.8,1.3l-2.3,3.6l-8.4,13l-2.3,3.3c-1.7,2.5-3.4,4.9-5.3,7.3H400c-0.1,0.2-0.2,0.3-0.3,0.5
		c0.2-0.2,0.3-0.3,0.5-0.5l-8.2,12.6c0.1-0.2,0.1-0.4,0.2-0.6c-0.1,0.2-0.3,0.4-0.4,0.6v0.4c-0.1,0.3-0.3,0.6-0.6,0.8l-5.4,8.5
		l-1.4,1.8l-13.1,21v0.2c0,0,0,0,0,0l37.7-13.1c0,0,0,0,0-0.1l6-2.2c0.1,0,0.2,0,0.2,0.1L415,920l3-1l2.5-1c0.1,0,0.3-0.1,0.4-0.1
		c-0.1,0-0.2,0-0.3,0l4.5-1.7c0,0,0,0,0,0c0.2-0.1,0.4-0.2,0.6-0.1c0.1-0.1,0.2-0.1,0.3-0.2c-0.1,0-0.2,0-0.2,0.1l0.4-0.1
		c0.1,0,0.1,0,0.2-0.1l5.8-2.2c0,0,0,0,0,0.1l3.9-1.4c0.2-0.1,0.5-0.1,0.7-0.2c-0.2,0-0.3,0-0.5,0.1l13.5-5.1l0,0l2.8-1
		c0.8-0.3,1.8-0.2,2.4-0.9l2.8-1c0.2-0.1,0.3-0.2,0.5-0.3c-0.1,0-0.3,0-0.4,0.1l6.1-2.4c0,0.1,0,0.1,0,0.2l2.8-1.1
		c0.1,0.1,0.1,0.1,0.2,0.2c0-0.2,0-0.4,0-0.6l37.1-13.8c0,0,0,0,0,0.1l2-0.7c0.1,0,0.2,0,0.3,0c0,0,0.1,0,0.1,0l15.2-5.7
		c0.1-0.1,0.2-0.2,0.4-0.3h-0.1c0.2,0,0.5-0.1,0.7-0.1l36.1-13.9c0.1-0.1,0.1-0.2,0.2-0.3c0-39.9,0-79.9,0-119.9
		c0-1.4-0.2-2.9-0.3-4.3c-1.4,0.7-2.8,1.4-4.1,2.3l-110,84.6c0,0-0.1,0-0.1,0l-2.3,1.8l0.1,0.1L441,831l0.4-1c0-0.1,0-0.3,0.1-0.5
		l1.1-1.5l0.1,0c0,0,0,0,0,0l0-0.1l57.9-87.2l-1.7-1.1C498.9,739.6,498.8,739.5,498.7,739.5z M452.7,905.9l2.4-0.9L452.7,905.9z"/>
	<path fill="#3C0455" d="M385.8,912.4c-0.6,0.5-1,1.1-1.4,1.8L385.8,912.4z"/>
	<path fill="#3C0455" d="M540.1,893.9C540.1,893.9,540.1,893.9,540.1,893.9l-1.5,0.3c-0.6,0-1,0.4-1.5,0.6l-1,0.2l-32,9.2l-0.3,0.2
		l-0.1-0.1l-54.6,15.8c0,0,0,0,0,0c0,0,0,0.1,0,0.1l0.1,0l-0.1,0c0,0,0,0.1,0,0.1c-0.6,0.5-1.3,0.4-2,0.5l-0.8,0.2
		c-0.1,0-0.2,0.1-0.2,0.1l-1.8,0.6c0,0-0.1,0-0.1,0l-5,1.3c0,0-0.1,0.1-0.1,0.1l-1.4,0.4c0,0-0.1,0-0.1,0l-14.4,4.3l0.2-0.7
		c-0.1,0.3-0.3,0.5-0.4,0.8l-1.9,0.4c-0.2,0.1-0.5,0.1-0.7,0.1l-4.2,1.4c0.1-0.1,0.1-0.2,0.1-0.3c-0.1,0.1-0.2,0.3-0.3,0.4l-1.8,0.3
		l-78.2,23.1c-0.1,0-0.2,0.1-0.3,0.1c-6.8,4-14.6,6.3-22.5,6.6v0l-1.1,0.2l0,0c0,0,0,0,0,0l-4,3.3c0,0.1,0,0.1,0,0.2
		c0,0.1,0.1,0.2,0.1,0.2c2.5,0.2,4.2,0.5,6,0.5h306.3c4.9,0,6.2-1.5,6.1-6.3c-0.2-26.5-0.4-53,0-79.5c0.1-9.2-4-6.8-9.6-5.3
		c-14.2,3.8-27.8,9.8-42.6,11.2l-0.4,0.1l-0.3,0.2c-0.1,0.1-0.2,0.1-0.3,0.2c-2.9,2.6-6.8,3.7-10.6,3.1c-0.1,0-0.3,0-0.4,0h-1.1
		c0.1-0.1,0.2-0.2,0.3-0.2l-0.3,0.1l-1.4,0.3c-0.3,0.1-0.7,0.1-1,0.2l-3.7,1.1c-0.3,0.1-0.6,0.2-0.9,0.4l-1.5,0.3c0,0,0,0,0,0
		l-2.5,0.7c0,0,0,0,0,0l-1.3,0.4l-1.4,0.5c-0.1,0.1-0.2,0.2-0.3,0.3l-1,0.2c-0.1-0.1-0.3-0.1-0.4-0.2L540.1,893.9z M537.1,894.9
		l1.5-0.6L537.1,894.9z"/>
	<path fill="#3C0455" d="M503.9,903.8l0.2,0.4C504,904,504,903.9,503.9,903.8z"/>
	<path fill="#3C0455" d="M447,920.8c-0.3,0-0.5,0.1-0.8,0.2L447,920.8z"/>
	<path fill="#3C0455" d="M539.5,893.5l0.6,0.4C539.9,893.7,539.7,893.6,539.5,893.5z"/>
	<path fill="#3C0455" d="M550.1,891l2.5-0.7C551.7,890.4,550.9,890.7,550.1,891z"/>
	<path fill="#3C0455" d="M547.4,891.9l1.4-0.5C548.2,891.2,547.8,891.5,547.4,891.9z"/>
	<path fill="#F06347" d="M280.4,922.7c-0.7-51.9-0.3-103.9-0.4-155.8c0-1.4-0.6-2.8-1-4.2c0,33.3,0,66.6,0.1,99.9
		c0,3.3-0.4,4.7-4.1,2.9s-9.3-3.6-13.9-5.4c0.7,12.6,1.3,25.2,2,37.8c-0.1,1.1-0.3,2.2-0.6,3.2c-0.8-0.3-1.5-0.6-2.2-1l-121.5-93.4
		c-0.3-0.2-0.6-0.4-1-0.6c-3.3-1.1-1.2-4-1.9-6l-2.3,3.3l-0.1-0.1c0,0.1,0,0.1,0,0.2l0.5,12.3l0,0l0.4,75.7c0,0,0.1,0,0.1,0
		c1.4,0.5,2.8,0.9,4.1,1.5l145.2,68.4l0,0C280.1,948.8,280.6,935.6,280.4,922.7z"/>
	<path fill="#F7921E" d="M497.9,684.4l0.3-0.3h-0.1h-0.2c-11.2-10.8-22.5-21.6-33.5-32.5c-0.8-0.8-0.7-3.2-0.2-4.4s2.2-0.2,3.2,0.3
		l15.6,8.7c0.5,0.5,1.6,0.1,1.8,1.1l1.2,0.9c0.6,0.4,1.6,0.2,1.9,1.1l1.2,1c0,0,0.1,0,0.1,0l3-2.2l0.1-0.1l-0.1,0l0-0.1l-0.2,0.2
		l-1.5-1.1c-0.5-0.2-1-0.5-1.3-1l0,0h0l0,0h-0.1c-0.8-0.4-1.5-1-2-1.8l-12.8-9.1c0,0-0.1,0.1-0.1,0.1l-11-7.2
		c-2.7-1.9-1.6-3,0.8-3.9c0,0,0,0,0,0l0,0h0.1c0.1,0,0.1-0.1,0.2-0.1c-0.1,0-0.1,0-0.2,0c6.2-12.8,14.3-8.2,22.6-2.6
		c-0.1,0.1-0.3,0.2-0.5,0.3c0.1,0,0.3-0.1,0.5-0.1l1.3-0.7l0.1,0c0,0-0.1-0.1-0.1-0.1c9.1-10,20.8-2.4,31.1-4.6c0,0,0,0,0,0
		c1.2-17.8-15.5-21.4-24.4-31.1l-0.3,2v0c1,2.4,1.3,4.7-0.2,7v0l0,0c-5.8,5.7-11.2,11.8-17.5,16.8c-4.7,3.7-5.4-3-8.1-4.6
		c-2.7-1.6-6.1-5.4-9.1-8.2c0,0,0,0,0,0.1c-0.1,23.6-0.2,47.2-0.3,70.9c0,2.3,1,5.3-3.2,5.2c-2.4,0.1-4.8,0.3-7.2,0.7
		c1.7,2.1,3.3,4.4,5.1,6.4l44.8,48.1c0.1,0.1,0.2,0.2,0.3,0.2l1.7,1.1l0,0c0-4.7,0-9.3,0.6-14.1c0.5-9.1,1.2-18.1-10.3-21.5
		c-1.4-0.4-2.9-1.5-1.6-3.8c3-5.4,5.8-10.8,8.6-16.3l-0.1-0.1C497.9,684.8,497.9,684.6,497.9,684.4z"/>
	<path fill="#3C0455" d="M593.4,763.5c0,0.1,0,0.2,0,0.3l-0.3,3.3c0,0-0.1,0.1-0.1,0.1l0.1,3.9l0,0c0,0,0,0,0,0v79
		c0-0.1-0.1-0.1-0.1-0.1c0,0.1,0,0.2,0,0.2c0.2,2.4,1.5,2.4,3.4,1.7l28.4-10.7c1.6-0.6,3-1,3-3.3c-0.1-19.3-0.2-38.5-0.3-57.8
		L597.8,763C596.2,762,594.3,760.2,593.4,763.5z"/>
	<path fill="#F1E7AE" d="M643.3,545.8c1.2-5.4,2.2-10.9,4.3-15.9c6.5-15.1,4.7-27.3-11.3-35.1c-0.1,0-0.1,0.1-0.1,0.1l-43,97.3
		c-1.3,0.5-0.3,2-1.2,2.7l-0.2,1.9c0,0,0.1,0.1,0.1,0.1c6.8,0.9,14.9,4.4,20.1-1.7c12.6-14.6,24-30.1,35.9-45.3c0,0,0,0,0,0
		C643.6,551.6,642.5,549.3,643.3,545.8z M593.4,592.3l-1.2,2.7L593.4,592.3z"/>
	<path fill="#40BEB8" d="M627.3,688.7c-2.3,1.4-4.8,2.5-6.8,4.3c-9,7.9-20.4,12.9-27.4,23.2c0,0,0,0,0,0.1l-0.5,2.9
		c0,0.6-0.1,1.1-0.3,1.7l0.5,0.5c0.1,0,0.1,0,0.2,0c0.1,14.1,0.3,28.2,0.4,42.2c0.9-3.3,2.8-1.5,4.4-0.5l29.7,17.1
		c0.1-27.9,0.3-55.8,0.4-83.6C627.9,693.9,627.5,691.3,627.3,688.7z"/>
	<path fill="#40BEB8" d="M592.6,719.1l0.5-2.9C592.5,717.1,592.6,718.1,592.6,719.1z"/>
	<path fill="#ED215D" d="M551.5,574.2c0.5-9.1-9-15.6-14.2-23.2c0,0,0,0,0,0l-0.4,27c0,0,0,0,0,0c0,0,0,0,0,0
		c0.1,8.3,3.5,18.8-11.5,16.4l18.6,9.8c-9.1,2.7-16-0.7-22.8-4.4l-4,2.3c0,0,0,0.1,0,0.1c-7.9-1.7-14.5-6.6-17.6-13.1
		s0.2-12,8.8-12.2c2.7-0.1,1.9-2.7,1.8-4.4c-0.1-3.2-0.4-6.4-0.6-9.6c-1.6,1.3-3.4,2.5-4.9,3.9c-3.2,3.1-6.4,6.3-9.5,9.4
		c0,0,0,0,0,0l-0.5,13.2c0,0.8,0,1.7-0.1,2.5l0.2,3l0,0.1c8.9,9.7,25.6,13.4,24.4,31.1c0.8,0.1,2.1,0.6,2.3,0.4
		c8.9-13.9,11,1,15.9,3.7c0,0.1,0,0.1,0.1,0.2c0,0,0,0,0,0l0.5-1.3c0,0,0-0.1,0.1-0.1h-0.3l0.1-0.5c-0.3-0.5-0.2-1.1,0.1-1.7
		l0.2-3.7c1.4-4-4.9-12.2,6-11c0,0,0.1,0.1,0.1,0.1v0c2.5-0.7,3.9-0.1,3.4,2.7l17.7-8.6c0-0.1,0-0.2,0-0.3
		C556.1,597.5,550.8,588,551.5,574.2z"/>
	<path fill="#ED215D" d="M547.5,615.1L547.5,615.1L547.5,615.1C547.5,615.1,547.5,615.1,547.5,615.1z"/>
	<path fill="#F1E7AE" d="M563.9,508l0.6-1.9c-1.5-9.9-5-4.2-8.1-1c-0.1,0-0.1,0.1-0.2,0.1l-0.5,1v0l0,0l0,0c0,0.3-0.2,0.6-0.5,0.8
		l0,0v0l0,0L530,540l0,0l7.3,10.9l0,0.1c0,0,0,0,0,0c5.2,7.6,14.7,14.1,14.2,23.2c-0.7,13.8,4.6,23.3,13.8,31.9
		c0.1,0.1,0.1,0.1,0.2,0.2c6.4-1.3,12.8-2.3,6.7-11.3c-3.7-5.7-9.6-10-10.2-17.7c-1.4-17.9-2.9-35.9-5.2-53.8
		c-0.9-7.3-0.8-12.7,7-15.3c0,0,0.1-0.1,0.1-0.1c0,0,0,0,0,0L563.9,508z"/>
	<path fill="#DCEEE3" d="M580.3,552c0-0.1,0.1-0.2,0.1-0.2v-37.7c0,0,0,0,0,0l-0.1,0c-0.9-5.9,4-8.9,6.7-13l0.1,0.1c0,0,0,0,0-0.1
		c5.4-7.5,8.7-18,21.5-14.1c0,0,0,0.1,0,0.1h11.1l0,0l16.4,7.2c0,0,0.1,0,0.1,0l0.8-3.8c-5-3.6-12.8-2.5-16.2-9.3l-0.3-0.1l-1.7-0.8
		c-2,3.9-4,0.1-5.6-0.5c-4.4-1.5-8.5-3.9-12.8-6l-54.1-23.9c0,0,0-0.1,0-0.1c-0.1,0-0.3,0.1-0.4,0.1c-0.1,0-0.2-0.1-0.3-0.1
		c-5-2.1-10.5-3.7-15.1-6.7c-17-10.7-36-11.5-54.4-8.7c-10.5,1.6-20.5,9.2-27.4,18.8l0,0c0.1,0,0.1-0.1,0.2-0.1l0.3,0.4
		c0.1,0.1,0.2,0.3,0.3,0.4c0-0.2,0-0.4,0-0.6c4.1,1.9,5.1-4.1,8.8-3.4c5.4-6,11.3-11,19.5-12.3c24.7-4,45.6,7,66.6,17.3c0,0,0,0,0,0
		v0c7.2,4.4,10.6,12,15.6,18.3v0c1.7,7,1.7,14.2,0,21.2v-0.1l-1.1,2.6c0.1,0,0.2,0.1,0.2,0.1c3.1-3.4,6.6-6.6,9.1-10.3
		c2.6-3.8,5.8-7.3,10.9-5.3s7.2,6.4,5.6,12.1c-0.1,0.6-0.4,1.2-0.7,1.7l0-0.1l-3.8,9.2l-3.5,9.7c3.4,0.8,2,3.7,2.1,5.7
		c0.4,17.1,0.7,34.2,1,51.3c0,0,0.1-0.1,0.1-0.1L580.3,552z M580.1,477.1c-4.4,0.4-9.4-2.2-12.8,2.8c-0.6-0.1-1.3-0.3-1.8-0.7
		c1-7.8-5.5-12.5-8.4-20.3l35,15.9c0,0,0,0,0,0l15.3,6.3c-9-1.4-13.2,5.5-19.9,11.9C590.5,483.7,583.8,481.3,580.1,477.1z"/>
	<path fill="#ED215D" d="M610.4,540.9l0.1-0.1C610.5,540.9,610.4,540.9,610.4,540.9z"/>
	<path fill="#ED215D" d="M592,594.9c0.9-0.7-0.1-2.2,1.2-2.7l43-97.3l0-0.1v-0.4l-0.1-0.1l-16.4-7.2l-1.9,7.1c0,0.1,0,0.2-0.1,0.3
		c1.2,6.9-3.6,12-5.9,17.7l0,0c0,0,0.1,0,0.1,0c0,9.3,0,18.5,0,27.8c-0.2,0.6-0.9,0.6-1.4,0.8l-0.1,0.1c-0.1,0-0.1,0.1-0.2,0.2
		l-0.1,0c-24.3,0.1-14.2,22.7-21.8,33.7c-1.6,2.3-1.9,5.5-2.8,8.4l-0.2-0.4c0,0.1,0,0.2,0,0.3l5.6,13.9c0.2,0.2,0.4,0.2,0.6,0.2
		c0.1,0,0.1,0,0.2-0.1c0,0,0.1-0.1,0.1-0.1l-0.7,0.1c0.2-0.1,0.5-0.1,0.7-0.1c0,0,0,0,0.1-0.1h-0.1l0-0.1L592,594.9z"/>
	<path fill="#403F95" d="M574.3,884.5c14.7-1.4,28.4-7.4,42.6-11.2c5.6-1.5,9.7-3.9,9.6,5.3c-0.4,26.5-0.2,53,0,79.5
		c0.1,4.8-1.2,6.3-6.1,6.3H314.1c-1.8,0-3.5-0.3-6-0.5c-0.2,0-0.4,0-0.6,0l0.5-0.4l4-3.3c0,0,0,0,0,0l-12.7,3.3
		c-0.4,0.1-0.7,0.3-1.1,0.4l-6.3,1l-0.3,0.1c1.6,0.5,3.2,0.8,4.8,1h327.4c3.3,0,4.2-0.9,4.2-4.2c-0.1-29.7-0.1-59.3,0-89
		c0-3.8-1-4-4.3-3c-12.1,3.6-24.3,6.9-36.5,10.3c-0.6,0.4-1.4,0.4-2.1,0.7l-1.9,0.5c-0.1,0-0.3,0-0.4,0c0.1,0,0.3,0.1,0.4,0.1
		L574.3,884.5z M587.3,880.2l-2.1,0.7L587.3,880.2z"/>
	<path fill="#3C0455" d="M584.5,850.9v-1.8c0.5-19.6,0.1-39.3,0.2-58.9c0-9,0.3-18-0.2-27l-0.1-3.2l-0.5-5.6c0-0.1-0.1-0.2-0.1-0.2
		l0,0.2l-6.5-2.4v0c0,34.3,0,68.4-0.1,102.7c0,3.2,0.7,4.3,3.8,3.1l1.9-0.6c0,0,0,0,0.1-0.1l1.1-1c0,0,0.1-0.1,0.1-0.1l0.2-4.9
		C584.4,851,584.5,851,584.5,850.9z"/>
	<path fill="#FAFAFA" d="M593.1,771.1C593.1,771.1,593.1,771.1,593.1,771.1l-2.8-1.2l2.7-2.8l0,0.1c0,0,0.1-0.1,0.1-0.1l0.3-3.3
		c0-0.1,0-0.2,0-0.3c-0.1-14-0.3-28.1-0.4-42.2c-0.1,0-0.2,0-0.2,0c-1.7-0.2-3.1-1.8-5.2-0.2c-2.2,1.7,1,3.7,1,5.1s0.9,2.6-1.4,4.1
		s-1.7-1.6-2.8-2.2c0,0.1-0.1,0.1-0.1,0.2l-0.5,25.9c0,0.1,0.1,0.2,0.1,0.2l0.5,5.6c1.8-1.3-0.6-6,2.9-4.9s-0.3,3.9-0.6,6
		s1.3,5.9,1.4,8.9c0.1,24.4,0,48.8,0.1,73.2c0,3.4-0.9,6.1-3.7,8v-0.3c0,0.1-0.1,0.1-0.1,0.2l-0.2,4.9l0,0.1
		c2.1-0.3,3.6-1.3,4.1-3.5c0.5-2.2,0.6-6.8,4.7-2.6c0,0,0.1,0.1,0.1,0.1V771.1z M589.9,740.4c-1,3.8,0.6,8.1-2.6,11.3l-1.7-7.3
		c1.4-3-1.5-6.9,2.3-7.9S590.3,739,589.9,740.4z"/>
	<path fill="#FAFAFA" d="M466.9,900.3c0,0.2,0,0.4,0,0.6c1.4,1.4,2.9,2.8,4.5,3.9c1.7,1.2,3.9,2.5,5.9,3.7
		c-3.5,1.8-7.3,5.5-10.6,5.1c-5.7-0.7-10.3,4.5-16.7,1.2c-3.1-1.6-0.2,3.2-0.9,5.3c0,0,0,0,0,0l54.6-15.8l-2-1.9l1.1-0.9l1.1,2.3
		c0.1,0.1,0.1,0.2,0.2,0.4l32-9.2l1.7-2.8l1.7,1.3c0.2,0.1,0.4,0.3,0.6,0.4l0,0h0c0,0,0,0,0,0l5.6-1.7l0.4-0.1
		c-1.7-6.4-8.1-3.9-10.7-3.9s-6.8-1.5-7.1,3.7s-3.6,4.5-6.9,4.6s-6.7,0.7-9.8,0c-10.3-2.2-15.4,10.1-25.4,8.6
		c-2.5-0.4-6.1,1.6-6.2-3s0.9-6.6,6-6.3c7.7,0.5,16.3,2.1,18-9.2c0,0,0,0,0-0.1L466.9,900.3z"/>
	<path fill="#ED215D" d="M537.3,649.4c-1.6-3.8-6.2-5.1-8.9,0.5c-0.3,0.7-1.6,1.1-2.5,1.2s-1.1-1.7-1-1.9c11-9.9-3.5-12-5.5-17.9
		h-26c-0.1,0-0.1,0.1-0.2,0.1l0.2,0c-0.1,3.2-2.2,7,1.2,9.1s4.9-1.2,6.5-3.6c0.3-0.4,2.4-0.3,2.4-0.1c2.7,14.2,17.9,11.1,25.5,18.4
		c0,0,0,0.1,0,0.1c0,0,0.1,0,0.1,0l2.1,0.8c0,0,0,0,0,0c5.5,1.2,7,6.2,9.4,10.3c0.3,0.6-1.7,2.6-2.7,3.9l0.9,2.3c0,0,0,0,0,0
		l3.2-0.3l2.1-1.2l0.7-3.2c0-0.2-0.1-0.3-0.1-0.5c0,0.2,0,0.3,0,0.5C539.7,662.7,539.9,655.5,537.3,649.4z"/>
	<path fill="#880164" d="M588.3,574.8c7.6-11-2.5-33.6,21.8-33.7c-0.3-0.1-0.7-0.2-1-0.2c-6.2,0.6-11.6,0.5-14.4-2.2
		c-0.1-0.1-0.3-0.2-0.3-0.3c-2.1-2.3-2.5-6.3-0.3-12.9c0.2-0.7-0.7-1.9-1.1-2.9c-0.5,1.1-1.8,2.5-1.5,3.3c1.8,4.4-0.5,6.8-3.7,9.1
		s-6.1,4.9-2.3,10c2.1,2.9-4.1,3.9-5.1,6.8v0c0,0.1-0.1,0.2-0.1,0.2l-0.2,18.9l0,0.2l5.2,11.7l0.2,0.4
		C586.4,580.3,586.7,577.1,588.3,574.8z"/>
	<path fill="#3C0455" d="M659.6,799.1C659.6,799.1,659.6,799.1,659.6,799.1c-0.1,8.6-0.1,17.2-0.2,25.9c0,1.9-0.2,3.4,2.6,2.3
		c9.4-3.8,18.8-7.4,28.2-11L659.6,799.1z"/>
	<path fill="#FAFAFA" d="M542,672.3c-1,1.1-1.8,3.8-3.2,0.3h0c0,0,0,0,0,0l-0.9-2.3l0,0l-2-3.2c-0.3-0.4-0.6-0.9-0.7-1.4l-3.1-5.4
		c0,0,0,0,0,0l-21.8-5.2c0,0,0,0,0,0c-1.2,8.5,6.6,8.6,11,10.5c6.6,2.9,9.2,6.6,7.7,13.4l-0.1,0c0,0.1,0.1,0.1,0.1,0.1l-0.3,4.9
		l-16.6,14.1c6.2,3.3,7.7,3.4,7.4,1.7c-1.6-8.7,6.8-8.1,10.7-11.6c1.4-1.2,5.9-0.4,6.1-1.2c0.6-2.8-2.2-5.3-3.4-7.1s-0.4-5-0.2-7.6
		c0.1-0.7,1.3-1.3,2-1.9c0.5,0.7,1,1.4,1.4,2.2c0.9,2.4-0.3,7,2,6.8s5.7-4.2,6-8.3L542,672.3z"/>
	<path fill="#3C0455" d="M572.3,507.3c1.8-2.1,3.9-6.1,8.1-3l3.8-9.2l-0.1,0l0,0.1l0-0.1l-19.6,11v0l-0.6,1.9l0,0.1l0,0.1l1.4,6
		c0,0,0.1,0.1,0.1,0.1c3.9,1.2,5.8,3.6,5.7,7.9c-0.1,7.5-0.6,15,1.7,22.3c0.7,2-0.7,3.8-2.9,4.6v2.3c0.6,2-1.3,5.2,2.9,5.2
		s2.3-3.4,2.3-5.2c0.1-11.4,0-22.9,0-34.3C574.3,513.8,568.9,511.4,572.3,507.3z"/>
	<path fill="#F1E7AE" d="M521.4,626.6c-0.2,0.2-1.5-0.3-2.3-0.4c0,0,0,0,0,0c-10.3,2.2-22-5.4-31.1,4.6c0,0,0.1,0.1,0.1,0.1l5.1,0.5
		c0.1,0,0.1-0.1,0.2-0.1h26h5.5c0,0,0.1,0,0.1,0c0,0-0.1-0.1-0.1-0.1c1.6-3.7,3.3-1.1,4.3,0.2c3,3.8,5.5,4.1,8.1-0.3l0,0.1
		c0-0.1,0.1-0.2,0.1-0.3c0-0.1,0-0.3,0-0.4c0-0.1,0-0.1-0.1-0.2C532.4,627.6,530.3,612.7,521.4,626.6z"/>
	<path fill="#F7921E" d="M525,631.3C525,631.3,524.9,631.3,525,631.3l-5.6,0c2,5.9,16.5,8,5.5,17.9c-0.1,0.2,0.1,2,1,1.9
		s2.2-0.5,2.5-1.2c2.7-5.6,7.3-4.3,8.9-0.5c2.6,6.1,2.4,13.3,7.4,18.5c0-0.2,0-0.3,0-0.5c0-9.2,0.8-18.6-4.9-26.8
		c-0.1,0-0.1,0-0.2-0.1C532.1,641.7,528.9,636,525,631.3z"/>
	<path fill="#CA571D" d="M528.7,684h-2c-0.2,0-0.3-0.1-0.5-0.1c0.2,0.1,0.3,0.1,0.5,0.2h-28.5l-0.3,0.3c0,0.2,0,0.4,0,0.6l0.1,0.1
		l2.3,2.8c0-0.1,0-0.1,0-0.2l6.2,5.9c-0.2,0-0.3,0-0.5-0.1c0.2,0.1,0.3,0.2,0.5,0.3h0.1c0,0,0-0.1,0-0.1l4.5,4.3c-0.1,0-0.1,0-0.2,0
		c0.1,0,0.1,0.1,0.2,0.1h1l0,0L528.7,684z"/>
	<path fill="#40BEB8" d="M583.8,754.4l0-0.2l0.5-25.9l0-0.2l-0.1-6.9c-0.1-0.1-0.3-0.1-0.4-0.2c0.1,0.1,0.2,0.2,0.3,0.3l-2.8,1.1
		c0,0,0,0,0-0.1c0,0,0,0,0,0l-4.2,5.8v4v4l0.2,15.9v0L583.8,754.4z"/>
	<path fill="#FAFAFA" d="M522.6,879.8L522,880c0,0,0.1,0,0.1,0l0,0c0,0,0,0,0,0c5.4,0.3,10.7,0.1,16.1,1.1c2.9,0.5,5.2,2.1,6.3-2
		s3.5-6.3,8.8-5.5c3.7,0.5,8.7-1.6,5.7-7.8l-0.3,0.1L522.6,879.8z"/>
	<path fill="#F06347" d="M572.8,544.5c-2.3-7.3-1.8-14.8-1.7-22.3c0.1-4.3-1.8-6.6-5.7-7.9c0,0-0.1,0-0.1,0l4.6,34.8
		C572.1,548.3,573.5,546.5,572.8,544.5z"/>
	<path fill="#FAFAFA" d="M522.1,880l-0.5,0.2l-15.2,5.7l-0.1,0l-0.3,0.1c3.7,4.5,8.7,1.4,13.2,1.7
		C520.1,887.7,521.2,882.7,522.1,880C522.1,880,522.1,880,522.1,880L522.1,880z"/>
	<path fill="#DCEEE3" d="M529.2,631.4c-1-1.3-2.7-3.9-4.3-0.2c0,0,0.1,0.1,0.1,0.1c3.9,4.7,7.1,10.4,14.7,9.2c0.1,0,0.2,0,0.3,0
		l-2.6-9.3l0-0.1C534.7,635.5,532.2,635.2,529.2,631.4z"/>
	<path fill="#880164" d="M580.4,504.3c-4.2-3.1-6.3,0.9-8.1,3c-3.4,4.1,2,6.5,2.8,9.8l1.8-3l0-0.1L580.4,504.3z"/>
	<path fill="#FAFAFA" d="M562.2,888.1c0.1,0,0.3,0,0.4,0C562.5,888,562.3,888,562.2,888.1l11.4-3.4c-0.1,0.1-0.2,0.2-0.3,0.3
		c0.1-0.1,0.2-0.1,0.3-0.2l0.3-0.2l0.4-0.1l8.9-3.1c-0.1,0-0.3-0.1-0.4-0.1c-8.4-1.9-15.1,1.5-21.4,6.6c-0.1,0.1-0.2,0.2-0.3,0.2
		H562.2z"/>
	<path fill="#F1E7AE" d="M544.2,612.3c0,0-0.1-0.1-0.1-0.1c-10.9-1.2-4.6,7-6,11c4.3,1.7,1.6-4.7,4.9-4.2c0,0.1,0,0.2,0,0.2
		c0.1-0.1,0.1-0.2,0.2-0.2c0.7-0.5,0.5-1.2,0.6-1.9l-0.7,1.9l0.7-1.9c0-0.3,0.1-0.5,0.3-0.7l0.1-0.2l-0.1,0.2
		c0.1-0.1,0.1-0.2,0.2-0.2v-1.9v-0.1V612.3z"/>
	<path fill="#DCEEE3" d="M538.1,623.2l-0.2,3.7c-0.3,0.6-0.5,1.2-0.1,1.7l0.1-1.6l0.3,2c0,0,0,0,0,0c5.7-1.3,5.1-5.6,4.8-9.8
		c0-0.1,0-0.2,0-0.2C539.7,618.5,542.4,624.9,538.1,623.2z"/>
	<path fill="#FAFAFA" d="M506.5,693.6l-6.2-5.9c0,0.1,0,0.1,0,0.2c-0.2,4.1,2.4,5.2,5.7,5.6c0,0,0,0,0,0
		C506.2,693.6,506.3,693.6,506.5,693.6z"/>
	<path fill="#FAFAFA" d="M581.3,722.3c-6-1.5-6.3,1.3-4.2,5.8L581.3,722.3L581.3,722.3z"/>
	<rect x="542.7" y="679.1" fill="#FAFAFA" width="1" height="5.3"/>
	<path fill="#FAFAFA" d="M506.6,693.7c0,0,0,0.1,0,0.1c0,0.1,0,0.2,0,0.3c-0.3,3.1,1.7,3.9,4.4,3.9c0.1,0,0.1,0,0.2,0L506.6,693.7z"
		/>
	<path fill="#DCEEE3" d="M544.2,612.3L544.2,612.3v1.8v0.1l3.3,0.9l0,0l0.1,0c0,0,0,0,0-0.1C548.1,612.2,546.7,611.6,544.2,612.3z"
		/>
	<path fill="#FAFAFA" d="M559.7,888.2c-2.1-0.1-4.2-0.5-5.6,1.7l0.9-0.3l3.7-1.1L559.7,888.2z"/>
	<path fill="#FAFAFA" d="M584.1,721.3c-0.1-0.1-0.2-0.2-0.3-0.3c-1.6-1.5-2.4-0.9-2.5,1.3c0,0,0,0,0,0.1L584.1,721.3z"/>
	
		<line fill="none" stroke="#FAFAFA" stroke-width="0" stroke-linecap="round" stroke-linejoin="round" x1="592.3" y1="720.7" x2="592.6" y2="719.1"/>
	
		<line fill="none" stroke="#FAFAFA" stroke-width="0" stroke-linecap="round" stroke-linejoin="round" x1="593.1" y1="716.3" x2="592.6" y2="719.1"/>
	
		<line fill="none" stroke="#FAFAFA" stroke-width="0" stroke-linecap="round" stroke-linejoin="round" x1="593.1" y1="716.3" x2="593.1" y2="716.1"/>
	<path fill="#FAFAFA" d="M576.6,732.6c-0.8,1.1-0.6,2.7,0.5,3.5v-4C576.9,732.2,576.7,732.4,576.6,732.6z"/>
	<path fill="#FAFAFA" d="M583.1,857.1l-0.2,0.1l-1.9,0.6C582.4,859.6,582.8,858.5,583.1,857.1z"/>
	<path fill="#DCEEE3" d="M442.6,828l-1.1,1.5c-0.1,0.3-0.1,0.4-0.1,0.5l0.2-0.4l0.5,0.5l2.3-1.8l0,0l-1.6-0.3l-0.1,0L442.6,828z"/>
	
		<line fill="none" stroke="#DCEEE3" stroke-width="0" stroke-linecap="round" stroke-linejoin="round" x1="544" y1="616.3" x2="544.1" y2="616.1"/>
	
		<line fill="none" stroke="#DCEEE3" stroke-width="0" stroke-linecap="round" stroke-linejoin="round" x1="543.8" y1="617.1" x2="544" y2="616.3"/>
	
		<line fill="none" stroke="#DCEEE3" stroke-width="0" stroke-linecap="round" stroke-linejoin="round" x1="543.8" y1="617.1" x2="543.1" y2="619"/>
	
		<line fill="none" stroke="#FAFAFA" stroke-width="0" stroke-linecap="round" stroke-linejoin="round" x1="550.1" y1="891" x2="550.1" y2="891"/>
	
		<line fill="none" stroke="#FAFAFA" stroke-width="0" stroke-linecap="round" stroke-linejoin="round" x1="550.1" y1="891" x2="552.6" y2="890.3"/>
	
		<line fill="none" stroke="#FAFAFA" stroke-width="0" stroke-linecap="round" stroke-linejoin="round" x1="552.6" y1="890.3" x2="552.6" y2="890.3"/>
	
		<line fill="none" stroke="#FAFAFA" stroke-width="0" stroke-linecap="round" stroke-linejoin="round" x1="585.2" y1="880.9" x2="587.3" y2="880.2"/>
	<polygon fill="#F1E7AE" points="537.9,627 537.8,628.6 537.7,629.1 538,629.1 538.2,629.1 538.2,629 	"/>
	<path fill="#DCEEE3" d="M591.1,597.1l0.7-0.1l0.3,0c-0.1,0-0.2,0-0.3,0C591.6,597,591.3,597,591.1,597.1z"/>
	
		<line fill="none" stroke="#F06347" stroke-width="0" stroke-linecap="round" stroke-linejoin="round" x1="569.9" y1="551.5" x2="569.7" y2="551.5"/>
	
		<line fill="none" stroke="#FAFAFA" stroke-width="0" stroke-linecap="round" stroke-linejoin="round" x1="547.1" y1="892" x2="547.4" y2="891.9"/>
	
		<line fill="none" stroke="#FAFAFA" stroke-width="0" stroke-linecap="round" stroke-linejoin="round" x1="547.4" y1="891.9" x2="548.8" y2="891.4"/>
	<path fill="#880164" d="M238,476.4c0.1,0,0.2,0.1,0.2,0.1c4.9-1.6,9.3-10.3,13-5.7c3.8,4.7-5.1,8.7-8.3,12.9s-3.4,5.6,0.4,8.7
		c3.7,2.8,7.1,6.2,9.9,9.9c4.7,6.6,9.4,6.4,14.9,1.4c0,0,0,0,0,0c0,0,0,0,0,0c-9-10.1-12.3-21-4.1-33.2c0.8-1.2,1.6-2.9,2.7-3.1
		c3.7-0.8,12.5,5.3,17.7,11.1c1,0.8,1.7,1.7,2.2,2.7c1.3,1.8,2,3.5,2,4.7c-0.7,7.8,2.2,16-1.7,23.4c0,0.1,0,0.3,0,0.4
		c3.2,1,2.1,3.8,2.1,5.9c0.1,34.3,0,68.6,0.1,102.9c0,1.9-0.9,4,1.7,5.7c8,5.2,15.7,10.7,23.6,16.1c37.9,25.8,75.5,52,113.9,77
		c15.8,10.3,29.2,27.2,51.6,22.7c-21.7-17.3-43.3-34.5-64.9-51.8c-20.3-16.1-40.6-32.1-61-48c-2.5-2-2-3.7-0.5-6
		c13.5-21.3,26.3-43.1,40.6-63.9c7.2-10.3-0.5-17.4-2.9-25.2c-5.4-17.2-12.3-34-19-50.8c-1.8-4.6,0-6.7,3.4-8.9
		c7.7-5,15.7-9.5,22.8-15.2s8.9-3.4,12.6,2.3c5.4,8.5,11.8,16.5,17.8,24.6c3.6-7.9,7.3-15.8,10.8-23.8c2.6-5.9-5.2-3-5.6-6.4
		c0,0,0-0.1,0-0.1L352,435c-5-1.9-8.8-2.3-9.2,4.6s0.4,14.4-5.5,20.1c-12.4,12-24.5,24.3-36.8,36.3c-2.9,2.9-6.3,5.3-9.5,8
		c-0.3-4-0.8-8.1-0.9-12.1s0-8,0-12c0-2.5-1.1-5.2-2.8-7.8c-0.7-1.1-1.6-2.2-2.5-3.2c-7.1-8.1-19.5-14.8-27.1-12.5l-25.2,7.7
		c0,0,0,0,0,0L238,476.4z"/>
	<path fill="#02A5BB" d="M80.9,700.7c0.1,0,0.1,0,0.2,0C81,700.7,80.9,700.7,80.9,700.7C80.9,700.7,80.9,700.7,80.9,700.7z"/>
	<path fill="#02A5BB" d="M191.7,700.2l-0.1,0.2C191.6,700.4,191.7,700.3,191.7,700.2c5.3-5.9,9.9-12.8,16.1-17.6
		c15.6-12.2,15-30.1,18.1-46.8c1.6-8.5,2.5-17.3,3.7-25.9c0-0.1,0-0.1-0.1-0.2l-13.3-26.3c-3.2,1-2.4,7.5-5.9,5.1s1.1-5.6,2.8-7.5
		c6.6-7.3-0.2-12.8-1.9-19c-0.1,0-0.2,0-0.2,0c-12.8,12.6-25.5,8.4-38.5,0.2c-3.3-2.1-7.5-2.9-11.3-4.2c0,0-0.1,0-0.1,0
		c-6.2,10.5-12.5,20.8-18.5,31.3c-20.9,36.4-41.9,72.8-62.8,109.3v0l0.1,0.4l-0.1-0.1v0.1c0,0.3,0,0.6,0.1,0.9c0,0,0,0,0,0
		c0,0,0-0.1,0.1-0.1L191.7,700.2z"/>
	<path fill="#047553" d="M458.8,412c-3.8-0.1-5.3-0.1-3-4.5c7.4-14,13.2-29.1,21.9-42.3c5-7.6,16.4-5.8,24.8-8.7
		c10-3.4,20.5-5.6,30.8-8.3c0.1-0.1,0.1-0.1,0.2-0.2l-7.3-39.8h0c-16.4,13.9-32.6,28-49.3,41.6c-4.4,3.6-10.5,12.5-13.3,9.1
		s5.8-8.5,9.4-12.7c6.9-8,14.7-15.3,22.1-22.9c0,0,0.1-0.1,0.1-0.1c0,0,0,0,0,0c-3-8.1-6.8-6.2-12.1-1.8c-12,10-24.5,19.5-36.9,29.1
		c-1.1,0.9-2.9,1-4.3,1.5c0,0,0-0.1,0-0.1c0,0,0,0,0,0c-3.8,3.4-7.3,7.3-11.5,10.1c-15,10.2-26.3,25.9-45.5,29.9
		c-8.5,1.8-18.5,0-24.4,9.3c-4.2,6.7-8.8,13.2-13.7,19.4c-4.6,5.8-3,8.8,3.3,10.9l67.7,22.3c3.5,1.2,6.4,0.9,8.6-2.4
		c12.2-18.2,29.2-25.1,50.8-21.3c2.9,0.5,6.8,0.1,9,0.1s3.1-0.3,1.1-2.5s-3.7-4.5-5.6-6.7l9.7-0.8l8.7-0.2
		C488,408.7,473,412.6,458.8,412z"/>
	<path fill="#0890A4" d="M158.2,424.5c-2.1,1-1.8,5.5-5.7,4.2c1-2.6,1.8-5,3.2-7.9s3.7-5.4,4.4-8.4c1.9-7.7,17.3-15.9-0.4-23.3
		c-0.4-0.3-0.6-0.8-0.5-1.3c1.3-6.3,2.5-12.6,3.6-18.9c0.8-4.4,1.5-8.7,2.2-13.1c0.5-3,1-5.9,1.4-8.9c3.4-21.7,16.5-41.6,22.8-63.1
		c7.3-24.8,21.7-42.3,43.7-54.4v7.3c0.9-1.5,1.8-3.1,2.5-4.8c6.8-21.9,13.3-43.9,20.7-65.6c2.9-8.4,2.7-14-6.3-17.5
		c-1.3-0.5-2.6-2.7-2.8-4.2c-2.2-17.3-4-34.7-6.1-52c-3.6-30.1-7.2-60.3-10.8-90.4c0,0.1-0.1,0.2-0.1,0.4
		c-7.5,21.1-15,42.3-22.3,63.4c-0.6,1.8,0.3,4.2,1,6.2c8.7,24.1,17.9,48,26.1,72.2c2.8,8.4,6.4,12.7,15.6,11
		c1.1-0.3,5.1-1.7,3.8,2.1c-5.5,15.8-6.2,34.5-25,42.8c-2.4,1-7.1,2.8-5.7,5.5s4.4-2.1,7.2-2l1-0.2l-0.4,0.5c0,0.1,0,0.1,0,0.2
		c0,0.1,0,0.1,0,0.2c-10.8,5.3-8.6,24.3-28.2,22.8c-7.9-0.5-18.4,0.4-27.6,0.6c-14.2,0.3-24.7,8.5-36.9,13.3
		c14.6-1.9,27.4-13.7,44-7c0.1,0,0.1,0,0.2,0.1c-0.1,0-0.1,0.1-0.2,0.1C174.2,240,166,245,158,250.6c-4.6,3.3-10.5,4.9-12.8,11.2
		c-5.2,14.4-9.6,29.4-16.4,42.9s-4.4,24.1,3.3,36.2s8.8,23.3-2.3,33.9c-3.3,3.1-2.4,5.7,1.5,7c11.9,3.9,12.9,10.8,6.4,20.5
		c-1.4,2-5.5,5.9,0.7,7.5c4.4,1.2,10.4,6.4,11.6-3.5c0.4-2.1,1-4.2,1.8-6.2c6.2,14-1.1,23.3-10,32.3c-1.4,1.4-5.2,4.2-1.4,5.7
		c7.4,2.9,5.4,7.2,4.4,13.1s-2.1,11.8-2.8,17.7c-0.2,1.2-1.3,4.1,1.1,3.9s6.6,0.7,6.6-3.6c0.1-15,2.5-29.3,11-42c0,0,0-0.1,0.1-0.1
		C160.2,425.9,160.3,423.5,158.2,424.5z M182.8,266.7c-7.3,11.7-14.6,23.5-23.1,34.4c-6.1,7.9-7.4,15.3-3.2,24.1
		c1.1,2.4,2.8,5.2,0.8,8s-3.4,4.2-5.1,6.4l-9.3-13.1c3-16.3,3.5-32.2,9.4-45.6c3.8-8.6,15.5-14,24.2-20.1c3.9-2.7,8.2-10.3,12.2-6.5
		S185.3,262.7,182.8,266.7z M236.1,213.6c-1.6,10.4-9.3,11.4-14.9,14.6l-2,0.9v0.1l-0.5,0.4l0.5-0.5h-0.1l1.8-1.3L236.1,213.6z
		 M199,240.9l0.1,0.2l0.2-0.3l-0.2,0.3l0.1,0.1c-1,4.8-3.4,6.7-8.8,7.1c-12.8,1.2-19.3,13.2-29.7,18.7c-20.1,10.8-14,32.6-20.6,49
		c-4.5,11.2,0.7,19.5,6.6,27.9c1.3,1.9,2,4-0.1,5.2s-2.3-1.9-3.5-3s-0.3-0.6-0.5-0.9c-23.9-25.2-5.1-48.8,3-72.6
		C150.3,258.8,184.4,239,199,240.9z"/>
	<path fill="#CA571D" d="M225.9,635.8c-3.1,16.7-2.5,34.6-18.1,46.8c-6.2,4.8-10.8,11.7-16.1,17.7c0,0-0.1,0.1-0.1,0.1l-0.6,1.1
		l-0.1,0c0,0,0,0,0,0l-1,0.6c-5.8,9.9-15.9,2.7-23.4,5.9c0,0,0,0,0,0c2.9,0.1,5.8,0.6,8.5,0.1c8.7-1.5,10.9,1.9,11.5,10.6
		c1.8,24.1,5.1,48.1,8,74.2l59.4-201.1l0.1-0.4l0.2,0.4l1.9,4.3c14.9,36.1,29.9,72.1,44.6,108.3c1.7,4.1,3.8,4.4,7.4,3.5l37.7-8.8
		l0.1,0c-17.6-19.1-17.7-19.2-38.5-6.4c-3.7,2.2-5,1.8-6-2.3c-5.7-22.6-11.4-45.1-17.3-67.6c-7.7-29.4-15.5-58.8-23.2-88.1l-0.1,0.1
		c-5.4,7.3-13,6.1-20.5,5.9l-10.7,69c0,0.1,0,0.1,0,0.2C228.4,618.5,227.5,627.3,225.9,635.8z"/>
	<path fill="#047553" d="M229.6,250.5c1,2.8,4.2,0.2,5.9-0.6c19.7-9,40.5-15.2,60.1-24.7c11.8-5.7,25-8.6,39.6-11.8
		c14.6-3.2,29.8-2.2,46.2-7.8l-20.9,19.6c-0.7,0.9-1.4,1.8-1.9,2.8c0.8,0.4,1.7,0.7,2.6,0.9h152.4c1.3,0,2.5-0.8,3.7-1.2
		c-0.8-0.9-1.5-2.1-2.5-2.7c-5.5-3.2-12.4-5.1-16.2-9.6c-5.2-6.1-22.5-2.2-15.8-18.3c0.2-0.3-1.4-1.7-2.4-1.9
		c-21-5.4-42.3-9.9-63.1-16.2c-11.4-3.5-17.6-1.5-21.7,9.8c-2.4,6.6-10.4,5.1-14.9,5.1s-3.7-5.1-4.6-7.7c-0.9-2.6-1.9-5.1-2.9-7.7
		c-4.7,4.4-9.7,8.6-14,13.3c-2.6,2.8,1.8,4.7,2.5,6s2,3.1,1.8,4c-0.2,0.9-2.4,2.2-3.6,2c-12.9-1.9-23.3,5.1-35.9,7.9
		c-12.6,2.8-24.9,7.9-36.9,14.1c-16.5,8.6-34.9,13.6-52.4,20.1C232.3,246.7,228.6,247.7,229.6,250.5z"/>
	<path fill="#E3D566" d="M602.9,464.4l0.8,0.9C603.5,464.9,603.4,464.5,602.9,464.4z"/>
	<path fill="#E3D566" d="M546.4,449.9l54.1,23.9l0.9-0.6c0,0,0,0,0,0l0,0l0,0c1.2-0.9,2.6-0.7,4-0.6l3-0.5l-3,0.5
		c1,0.1,2.1,0.1,3-0.5l5.2-0.8l0.1,0.1c0,0,0-0.1,0-0.1l-9.4-5.4c-0.3-0.1-0.5-0.4-0.6-0.6l-0.8-0.9l-0.8-0.3
		c-13.2-7.5-27.2-13.9-39.3-22.8c-7.4-5.4-0.4-14.9,0.2-22.2c2.3-27,6-53.9,9.2-80.9l-38.3,9.9c0.7,3.9,0.7,8.1,2.3,11.7
		c10.7,24.4-10.9,33.8-22,48.1c-3.4,4.4-7.6,8.3-11.4,12.3c12.7,6.8,25.3,13.8,38,20.3c3.6,1.8,5.9,3.7,5.9,7.2
		c0,0.6-0.1,1.3-0.2,2.1C546.4,449.8,546.4,449.9,546.4,449.9z"/>
	<path fill="#F1E7AE" d="M260.8,534.8l0.1-0.1l15.4-15.1c0-0.1,0.1-0.2,0.1-0.3c-1.1-11.4-2.1-22.9-3.3-34.2
		c-0.3-2.1-0.7-4.1-1.3-6.1l-6,5.2c-1.7,1.5-2.4,3-1,5.2s3.2,5.9,5.1,8.6c1.9,2.7,1.8,4.7-1.7,5.7c0,0,0,0,0,0
		c-5.5,5-10.2,5.2-14.9-1.4c-2.8-3.7-6.2-7.1-9.9-9.9c-3.8-3.1-3.6-4.5-0.4-8.7s12.1-8.2,8.3-12.9c-3.7-4.6-8.1,4.1-13,5.7
		c-0.1,0-0.2,0-0.3,0.1c-6.7,6.7-13,10.9-18.7-1.3c-1.5-3.1-2-4.5,0.6-7c5.4-4.9,9.8-11,15.7-15.3c8.8-6.4,7.1-13.9,4.3-22.7
		c-0.1,0-0.2-0.1-0.3-0.1l-28.4,39c0,0,0,0,0,0c0,0,0,0,0,0c1.2,6.5,6.1,10.8,9.8,15.7s1.5,6-1.5,8s-3.4-2.1-4.6-3.5
		c-11.2-13.8-5.4-30.2-6.6-45.6c0,0,0,0,0,0c-0.1-1.7,0.6-4.2,1.6-7c0.1-0.5,0.3-1,0.6-1.5c4.2-10.1,13.2-23.9,17.4-24.9l18.3-0.2
		c0,0,0.1,0.1,0.1,0.1l8.1-0.3c0,0,0.1-0.1,0.1-0.1c-3.8-3.2-5.1-9.8-11.9-8.9c0,0,0,0,0,0l0.1,0c-5.1,2.6-10.3,0.8-15.3,0.2
		c-0.1,0-0.2,0-0.3,0c-7.4,10.9-16.7,21.1-21.9,33c-6.6,15.2-11.2,33-3.6,48.3c10.3,20.7,12.7,47.5,38.6,58.1c0,0,0.1,0,0.1,0
		C247.8,540.9,255.4,542.1,260.8,534.8z"/>
	<path fill="#F06347" d="M514.2,407.9c11.1-14.3,32.7-23.7,22-48.1c-1.6-3.6-1.6-7.8-2.3-11.7h-0.4c-0.1,0-0.1,0-0.2,0.1
		c-10.3,2.8-20.8,5-30.8,8.3c-8.4,2.9-19.8,1.1-24.8,8.7c-8.7,13.2-14.5,28.3-21.9,42.3c-2.3,4.4-0.8,4.4,3,4.5
		c14.2,0.6,29.2-3.3,41.3,8c0,0,0.1,0.1,0.1,0.1l2.5,0.2c0,0,0,0,0.1-0.1C506.6,416.2,510.8,412.3,514.2,407.9z"/>
	<path fill="#0890A4" d="M539.3,307.8C539.3,307.8,539.4,307.8,539.3,307.8L539.3,307.8L539.3,307.8z"/>
	<path fill="#0890A4" d="M545.1,259.5l0.8,1C545.8,260,545.5,259.6,545.1,259.5z"/>
	<path fill="#0890A4" d="M544.4,258.6l0.4,0.5C544.6,258.9,544.5,258.7,544.4,258.6z"/>
	<path fill="#0890A4" d="M446.2,350.5c12.4-9.6,24.9-19.1,36.9-29.1c5.3-4.4,9.1-6.3,12.1,1.8c0,0,0,0,0,0c0.9-0.6,1.7-1.3,2.5-2.1
		c10.2-15.2,24.2-19.1,41.2-13.8l0.2,0.1c0-0.1-0.1-0.1-0.1-0.2l3.8,0.5c0.5,0,0.9,0.1,1.4,0.2c10.6,2.4,22.3-0.9,31.9,6.3l-0.1,0.1
		c0.1,0,0.2,0,0.3,0.1l1.9-1.1c0,0,0.1,0,0.1,0c-0.1-0.1-0.1-0.1-0.2-0.2l3.9-2.3c0.1-0.1,0.1-0.1,0.2-0.1l-0.2,0.1
		c-0.1,0.1-0.3,0.3-0.3,0.6c0.2-0.2,0.4-0.4,0.7-0.5l1.8-0.9c0.1,0,0.1,0,0.2-0.1c-0.1-0.1-0.2-0.1-0.3-0.2c1.6-1.4,3.1-2.4,1.1-5.1
		c-10.8-14.5-21.3-29.2-31.9-43.8l0,0c-0.1,0-0.1,0-0.2,0l0.1,0.1l-1.2,1.3l4.5,10.2l-1.4,0.9l-8.6-11.9c-0.1,0-0.2-0.1-0.2-0.1
		c-0.1,0-0.1-0.1-0.2-0.1c-0.1-0.1-0.2-0.3-0.1-0.5c0-0.1,0-0.2,0-0.2l-0.8-1c-0.1,0-0.1-0.1-0.2-0.1c0-0.1-0.1-0.2-0.2-0.3
		l-0.4-0.5c-0.1-0.1-0.2-0.2-0.3-0.3H544c-0.5-0.7-1-1.4-1.7-2l-3.3-5l-0.1-0.1l-41.1,10.3c-3,0.7-3.2,2.2-0.8,3.9
		c14.4,10.1,28.9,20.2,43.4,30.2c0.8,0.6,2.1,0.2,3.2,0.3c-0.5-1-0.9-2.3-1.7-3c-7.5-6.6-15.2-13-22.6-19.7
		c-1.6-1.4-6.2-2.2-3.6-5.4s6-2.7,8.6,1c5.9,8.3,11,7.8,15.3-1.6c0.7-1.4,2-5.6,4.4-2.4c10.3,13.8,20.3,27.9,31,42.7
		c0.2,0.2,0.3,0.4,0.5,0.7l-0.8-0.1l-3.1-0.6l-68.2-17c-2.3-0.6-5.4-1.7-6.4,1.7s2.8,3,4.5,3.9c2.9,1.5,6.2,2.8,10.6,4.6
		c0.5,0.2,0.9,0.4,1.4,0.6h-1.4h-50.7c-2.3,0-4.5-0.4-5.4,2.9c-4.6,15.9-9.4,31.8-14.1,47.7c0,0,0,0.1,0,0.1
		C443.3,351.5,445.1,351.4,446.2,350.5z"/>
	<path fill="#0890A4" d="M396.4,242.4c-7.4,11.6-14.8,23.3-22.1,35c-0.4,1-0.7,2-0.9,3.1c0.9,0,1.9-0.1,2.8-0.3l106.1-44.6
		c-27.2,1.5-50.7,2.6-74.4,4.3C404.1,240.1,399.3,237.8,396.4,242.4z"/>
	<path fill="#403F95" d="M565.1,244c-10.7-8.4-20.5-16.4-30.5-24c-2.8-2.1-3.9-4.2-2.4-7.4c3.8-8,1-13.2-6.4-17.2
		c-4.1-2.2-10.1-5.1-1.5-9.8c0.4-0.3,0.6-2.1,0.2-2.6c-5.9-7.8-6.7,0.2-8.5,3.1c-4.7,7.8-12.1,3.4-18,3.5c-3.8,0.1-1-5.1-1.8-7.9
		c-1.2-4.4,3.9-10.1-3.8-13s-9.8-7.1-3.7-13.7c2-2.1,1.4-3-1-5.3c-2.4-2.3-3,0.3-4.1,1.4c-5,5.3-9.2,10.9-7,20.3
		c0.1,0.5,0.3,1.1,0.4,1.6c-0.5-0.6-0.9-1.1-1.4-1.6c-4.6-4.6-9.2-2.8-13.5-2.9c-0.3,0-0.7,0-1-0.1c20.3,16.2,40.7,32.3,61.1,48.5
		c11.8,9.5,23.3,19.3,34.9,28.8c0,0,0,0,0.1,0.1L565.1,244z"/>
	<path fill="#880164" d="M264.3,430.8c-6.4-6.4-12.1-13.5-18.1-20.4l0.1,0c0,0-0.1-0.1-0.1-0.1l-18.3,0.2l-19.6,33.3c0,0,0,0,0,0
		c0,0,0,0,0,0c1.2,15.4-4.6,31.8,6.6,45.6c1.2,1.4,1.6,5.5,4.6,3.5s5.2-3.1,1.5-8s-8.6-9.2-9.8-15.7c0,0,0,0,0,0
		c-4.9-13,7-19.2,11.4-28.4c1-2.2,3.3-3.8,4.3-6.1c7-16.5,16.5-16.1,29.7-6.2c7.9,6,2.8,13.1,4.5,19.4l0,0l0,0c4.6,0,9.3,0.2,13.9,0
		c2.3-0.1,5.6,1.8,6.6-1.4s0.5-7.6-1.6-9.9s-4.4-4.4-6.6-6.6c0,0,0,0-0.1,0l0.1,0.1C270.6,433.5,266.7,433.1,264.3,430.8z"/>
	<path fill="#ED215D" d="M256.6,428.5c-13.2-9.9-22.7-10.3-29.7,6.2c-1,2.3-3.3,3.9-4.3,6.1c-4.4,9.2-16.3,15.4-11.4,28.4
		c0,0,0,0,0,0l28.4-39l0.2-0.2c0,0.1,0.1,0.2,0.1,0.3c2.8,8.8,4.5,16.3-4.3,22.7c-5.9,4.3-10.3,10.4-15.7,15.3
		c-2.6,2.5-2.1,3.9-0.6,7c5.8,12.2,12.1,7.9,18.7,1.3c0,0,0,0,0.1-0.1l-0.1-0.1l-5.6-12.3l-0.1-0.1c4.5-14.3,19.3-10.4,28.7-16l0,0
		C259.4,441.6,264.5,434.5,256.6,428.5z"/>
	<path fill="#02A5BB" d="M193,567.1c4.9,1.2,6.6-8.5,9.3-13.6c0,0,0.1,0,0.1,0c-5-12.3-15-22.2-17.5-35.8c0,0,0,0,0,0l-4.8,7.5
		l-2.8,2.8v0l-13.2,24.9L164,553C173.6,557.9,182.8,564.5,193,567.1z"/>
	<path fill="#0890A4" d="M180.1,525.2c-3.3-0.9-5.7-3.9-5.9-7.3c-1.1-15.5-1.6-31-2.3-46.5c0-0.1-0.1-0.2-0.1-0.3
		c-4.2-7.1,3.6-13.3,1.8-21.7l-8.7,14.7l0.1,0.1l-2.2,1.4l0.7-2.2c0-0.1,0-0.2,0-0.4c1.4-7.1,8.5-12.1,7.1-20.2c0,0,0,0,0,0
		c-7.1,13.9-14.3,27.9-21.3,41.9c-0.9,1.7-3.4,4.2-1.1,6s5.2,2.7,7.8,4.1c0.9-2.1,1.5-4,2.7-6.1s-0.3-6.2,3.3-6.1s3.3,3.8,4.1,6.5
		c3.6,12.6,1.2,26.7,10,37.9l1,1h0.2l0,0L180.1,525.2z"/>
	<path fill="#81CDCA" d="M174.2,517.9c0.2,3.4,2.6,6.4,5.9,7.3l4.8-7.5l0,0l-3.2-65.1l-9.8,18.5c0,0.1,0,0.2,0,0.3
		C172.6,486.9,173.1,502.4,174.2,517.9z"/>
	<path fill="#DCEEE3" d="M439.7,473.3c-3.5,8-7.2,15.9-10.8,23.8c-4.3,26.4,6.8,44.2,30.5,55.1c0,0.1,0.1,0.1,0.1,0.2l0-0.2h29.3
		l3.3-1.1l2-1.4c0.1-0.1,0.2-0.2,0.3-0.3l-0.3,0.2c-0.4-4.9-2.7-3.1-5.9-2.5s-9.2,4.2-14.4,2.4c-28.8,2.5-52.9-28.6-39.4-56.3
		c5.4-11.1,8.8-23.2,16.6-33.1l0.1,0.2c0-0.1,0.1-0.1,0.1-0.2l2.4-3.4c-1.1-1.2-4-0.4-4-2.8c-0.1-0.1-0.2-0.3-0.3-0.4l-0.3-0.4
		c-0.1,0-0.1,0.1-0.2,0.1c-4,2.7-0.2,13.5-9.9,10c-4.2-1.5-5.2,0.3-4.8,3.6c0,0,0,0.1,0,0.1C434.5,470.3,442.3,467.4,439.7,473.3z"
		/>
	<path fill="#0890A4" d="M193.6,409.5c-4.8-3.5-9.8-6.6-14.7-9.9c-0.3,0.5-0.8,1-0.8,1.6c-0.6,13.7-1.3,27.4-2,43.5
		c6.5-11.1,11.8-20.1,16.8-29.2C193.9,413.7,196.5,411.6,193.6,409.5z"/>
	<path fill="#0890A4" d="M172.5,562.2c13,8.2,25.7,12.4,38.5-0.2c0,0,0,0,0,0c-3.5-2.2,2.1-13.7-8.6-8.5c0,0-0.1,0-0.1,0
		c-2.7,5.1-4.4,14.8-9.3,13.6c-10.2-2.6-19.4-9.2-29-14.1c0,0,0,0,0,0c-3.8-1.1-9.1-1-9.9-6.1c-0.9-8.9-0.8-17.9-1.2-26.9
		c-0.6,1.5-2,3.2-1.8,4.7c1.4,11.7-5.8,25.9,9.9,33.2c0.1,0,0.1,0,0.2,0.1C165,559.3,169.2,560.1,172.5,562.2z"/>
	<path fill="#ED215D" d="M246.3,410.4l-0.1,0c6,6.9,11.7,14,18.1,20.4c2.4,2.3,6.3,2.7,9.1-0.7l-0.1-0.1l-18.7-19.9l-0.2,0
		L246.3,410.4z"/>
	<path fill="#0890A4" d="M204.9,352.4c-0.6,1-1.9,2.2-1.8,3.2c1,10.3,2.2,20.6,3.4,31.1c9.3-11.1,6.7-21.9,0.8-32.6
		C206.9,353.3,205.7,353,204.9,352.4z"/>
	<path fill="#0890A4" d="M171,429.9c-0.9,0.6-2.1,1-2.5,1.8c-1.3,2.5-2.6,1.8-4,0.3c-0.1,0.1-0.1,0.2-0.2,0.3
		c-2.3,3.9-4.8,7.8-7,11.6c-2.3,3.9,0.2,6.8,3,8.4s2.8-2.6,3.7-4.3c2.6-4.8,4.7-9.8,7-14.7l0,0V429.9z"/>
	<path fill="#880164" d="M278.3,450.3h-16.1l-0.3,2.2c5.5,1.1,11,2.4,16.5,3.3c0.7,0.1,2.3-1.2,2.5-2.1c0.1-0.4,0.2-0.8,0.2-1.2
		C280.9,451.1,279.7,450.1,278.3,450.3z"/>
	<path fill="#DCEEE3" d="M242.7,401.1l-0.1,0l-15.4,0.2c0.1,0,0.1,0,0.2,0C232.4,401.9,237.6,403.7,242.7,401.1z"/>
	<path fill="#FAFAFA" d="M433.1,462.5l-2.2-2.5c-0.5,0.7-1.6,1.3-1.6,2.2s0.9,1.9,1.5,2.8L433.1,462.5z"/>
	<path fill="#856E91" d="M319.3,80L319.3,80C319.3,79.9,319.2,80,319.3,80l1.5,6l1-0.3l-1.6-7.6L319.3,80z"/>
	<polygon fill="#DCEEE3" points="318.3,75 318.3,75.1 319.3,79.9 319.3,80 320.2,78.1 319.4,74.5 319,72.4 	"/>
	<polygon fill="#047553" points="162.8,465.6 165,464.2 164.9,464.1 163.6,463 163.5,463.4 	"/>
	<polygon fill="#81CDCA" points="377.9,16 374.6,17.3 377.9,18 377.9,17 377.9,16.6 	"/>
	<polygon fill="#FAFAFA" points="366.9,148.9 366.3,150.9 367.7,149.9 366.9,148.9 366.9,148.9 	"/>
	<polygon fill="#81CDCA" points="370,113.2 369.3,114.6 370,114.6 	"/>
	
		<line fill="none" stroke="#81CDCA" stroke-width="0" stroke-linecap="round" stroke-linejoin="round" x1="378.5" y1="15.8" x2="379.2" y2="15.5"/>
	
		<line fill="none" stroke="#81CDCA" stroke-width="0" stroke-linecap="round" stroke-linejoin="round" x1="378.2" y1="15.9" x2="378.4" y2="15.8"/>
	
		<line fill="none" stroke="#81CDCA" stroke-width="0" stroke-linecap="round" stroke-linejoin="round" x1="379.2" y1="15.5" x2="380" y2="15.2"/>
	
		<line fill="none" stroke="#81CDCA" stroke-width="0" stroke-linecap="round" stroke-linejoin="round" x1="378.5" y1="15.8" x2="378.4" y2="15.8"/>
	
		<line fill="none" stroke="#81CDCA" stroke-width="0" stroke-linecap="round" stroke-linejoin="round" x1="378.2" y1="15.9" x2="378.1" y2="15.9"/>
	<path fill="#3C0455" d="M135.9,800.1l0.1-0.1c2.8-8.7,5.4-17.4,8.3-26.1c7.3-22,14.8-43.9,22.2-65.9h0c7.5-3.2,17.6,4,23.4-5.9
		H86.7c-3.3,0-6.7,1.1-10,1.7l0.4-0.4c-0.1,0.1-0.2,0.1-0.3,0.2L55.7,739l0,0l-1.4,2.2c0.1,0.1,0.2,0.2,0.3,0.4c0,0,0.1,0.1,0.1,0.1
		c1.2,1.5,2.4,3.3,3.9,4.4l74.9,57.2l0.1,0.1L135.9,800.1z"/>
	<path fill="#022256" d="M86.7,702.1h103.2l1-0.6c0,0,0,0,0,0l-102.7-0.4c-2.4,0-4.8-0.2-7.2-0.4c-0.1,0-0.1,0-0.2,0c0,0,0,0-0.1,0
		c-0.4,0-0.7,0-1.1,0l-2.6,2.7l-0.4,0.4C80,703.2,83.4,702.1,86.7,702.1z"/>
	<path fill="#403F95" d="M81,700.7c2.4,0.2,4.8,0.4,7.2,0.4l102.7,0.4l0.1,0l0.6-1.1l0.1-0.2L80,699.8c0,0,0,0.1-0.1,0.1
		c-0.1,0.2-0.1,0.4-0.1,0.7c0.3,0,0.7,0.1,1,0.1c0,0,0,0,0,0C80.9,700.7,81,700.7,81,700.7z"/>
	<path fill="#0890A4" d="M156.7,514.7c0.1-0.3-0.1-1.4-0.4-1.1s-0.7,0.6-0.9,0.9s0.1,0.8,0.2,1.4C156.1,515.4,156.6,515,156.7,514.7
		z"/>
	
		<line fill="none" stroke="#40BEB8" stroke-width="0" stroke-linecap="round" stroke-linejoin="round" x1="177.1" y1="528.1" x2="176.1" y2="527.1"/>
	<polygon fill="#403F95" points="79.8,698.6 79.7,698.8 79.8,698.9 79.9,699 	"/>
	<path fill="#F1E7AE" d="M572.2,338.2L572.2,338.2c-3.2,27-6.9,53.9-9.2,80.9c-0.6,7.3-7.6,16.8-0.2,22.2
		c12.1,8.9,26.1,15.3,39.3,22.8c-5.3-23.1-10.8-46.2-15.9-69.3c-4.3-19-8.3-38-12.4-57l0,0L572.2,338.2z"/>
	<path fill="#F7921E" d="M574.9,337.2l-0.9,0.5C574.3,337.7,574.6,337.5,574.9,337.2z"/>
	<path fill="#F7921E" d="M539.1,310.1c0,0-0.1-0.1-0.1-0.1l-8-1.8h-4.8l7.3,39.8l0,0.1h0.4l38.3-9.9l0,0l1.6-0.4l0,0
		c0.1,0,0.1,0,0.2,0l0.9-0.5c0,0,0.1-0.1,0.1-0.1l29.1-8.3l-1.2-4.5v0l-0.4-0.1l-18.4-4.3c0,0-0.1,0-0.1-0.1c0,0.1,0.1,0.1,0.1,0.2
		l-7.9-2c0.1,0,0.1-0.1,0.2-0.1c-0.1,0-0.1,0-0.2,0l-1.9-0.2c0,0,0,0-0.1-0.1l0,0.1L539.1,310.1z"/>
	<path fill="#3C0455" d="M602.9,324.3l1.2,4.5v0l24.8,65.5c2.6-10.7,1.7-21.3-0.1-31.9c-0.4-2.5-0.9-4.9-1.3-7.4
		c-2.3-12-4.7-24-3.4-36.3c0-0.1-0.4-0.3-1.4-1.2l-1.4,25.1l-0.1,0.9l-0.5-0.7l-20.4-26.9l0.2,0.5c0.1,0,0.1-0.1,0.1-0.1l0.3,0.4
		l-0.3,0.3l2.1,6.9L602.9,324.3L602.9,324.3z"/>
	<path fill="#3C0455" d="M586.2,301.2l3.8,5.8c0,0,0.1,0,0.1,0l4.6,5.6l-1.6-20.7v0.1l-6.1-5.7l0.1-0.1c0,0,0,0-0.1,0L559.2,261
		c0,0,0,0,0,0.1l0,0l0,0c0,0,0,0,0,0L586.2,301.2z"/>
	<path fill="#DCEEE3" d="M552.4,260.3c0.3,0.2,0.5,0.4,0.8,0.5l0,0c10.6,14.6,21.1,29.3,31.9,43.8c2,2.7,0.5,3.7-1.1,5.1
		c0.1,0.1,0.2,0.2,0.3,0.2c3.7,3.3,4.4-0.7,5.7-2.9l0,0l-3.8-5.8l-27-40.1l-0.1-0.1h0l-0.1-0.1c-0.4-0.3-0.7-0.8-0.9-1.3l-0.1-0.1
		l0.1,0.1c0-0.1-0.1-0.1-0.1-0.2V259h-0.4c-0.2,0.1-0.6,0.1-0.8,0l-0.3-0.2v-0.4l0,0l-1.2-0.9l0.7,0.4l-0.6-0.6l1.7,0.5
		c-2.5-3.6-4.8-1.6-7,0.3c0.2,0.3,0.4,0.5,0.6,0.7L552.4,260.3z"/>
	<path fill="#DCEEE3" d="M559.2,261c-0.1,0-0.1-0.1-0.2-0.1L559.2,261L559.2,261z"/>
	<path fill="#DCEEE3" d="M544.2,307.9c-0.5-0.1-0.9-0.1-1.4-0.2L544.2,307.9l-4.8-0.1c0,0-0.1,0-0.1,0v0.1l-0.4,0.5l0.2,1.6l-0.1,0
		c0,0,0.1,0.1,0.1,0.1l35.1,7.6l0-0.1l1.8-3.3l0.1-0.1C566.5,307,554.8,310.3,544.2,307.9z"/>
	<path fill="#880164" d="M605.4,472.6c-1.4-0.1-2.8-0.3-4,0.6L605.4,472.6z"/>
	<path fill="#880164" d="M608.4,472.1c-0.9,0.6-2,0.5-3,0.5l-4,0.6c0,0,0,0,0,0l-0.9,0.6c4.3,2.1,8.4,4.5,12.8,6
		c1.6,0.6,3.6,4.3,5.6,0.5c0-0.1,0.1-0.1,0.1-0.2l-5.3-8.7l-0.1-0.1L608.4,472.1z"/>
	<path fill="#3C0455" d="M593,290.2c0.4-0.6,1-1.3,1-1.8c-0.3-9.7-10.2-10.6-14.8-16.4l-1.2,1.2l-0.1-0.1c0,0,0,0.1,0,0.1l10.2,11.8
		c0,0,0,0.1,0,0.1l0.1-0.1L593,290.2z"/>
	<polygon fill="#DCEEE3" points="555,273.3 556.4,272.4 551.9,262.2 550.1,260.1 546.2,261.1 546.4,261.3 546.4,261.4 	"/>
	<path fill="#DCEEE3" d="M584.1,320c0-0.1-0.1-0.1-0.1-0.2c-2-3-4.6-3.3-7.6-1.9c-0.1,0-0.1,0.1-0.2,0.1L584.1,320z"/>
	<polygon fill="#DCEEE3" points="593.1,292 593.1,291.9 593.1,290.3 593,290.2 588.2,285 588.1,285.1 587.1,286.2 587,286.3 	"/>
	<path fill="#856E91" d="M579.2,272l-4.8-4.1c0,0,0,0,0,0c0,0-0.1,0-0.1,0l-0.8,0.6c0,0,0,0.1,0,0.1l4.4,4.5l0.1,0.1L579.2,272z"/>
	<path fill="#DCEEE3" d="M582,310.8l0.2-0.1C582.1,310.7,582,310.8,582,310.8z"/>
	<path fill="#DCEEE3" d="M582,310.8l-3.9,2.3c0.1,0.1,0.1,0.1,0.2,0.2c3.4,3.2,2.8-0.3,3.3-1.9C581.7,311.2,581.8,311,582,310.8z"/>
	<polygon fill="#40BEB8" points="551.9,262.2 553.1,260.9 553,260.8 552.4,260.3 550.8,258.8 550.1,258.2 550.1,260.1 	"/>
	
		<line fill="none" stroke="#DCEEE3" stroke-width="0" stroke-linecap="round" stroke-linejoin="round" x1="542.3" y1="256.1" x2="544" y2="258.1"/>
	<polygon fill="#856E91" points="556.1,257.9 555.4,257.5 556.6,258.4 557.6,259 557.2,257.8 557.2,257.8 555.5,257.3 	"/>
	
		<line fill="none" stroke="#F1E7AE" stroke-width="0" stroke-linecap="round" stroke-linejoin="round" x1="602.9" y1="464.4" x2="603.7" y2="465.3"/>
	
		<line fill="none" stroke="#F1E7AE" stroke-width="0" stroke-linecap="round" stroke-linejoin="round" x1="604.3" y1="465.9" x2="603.7" y2="465.3"/>
	<polygon fill="#856E91" points="573.1,266.9 572.2,266.1 572.7,267.3 572.8,267.3 	"/>
	<polygon fill="#856E91" points="572.1,266 572.2,266.1 572.2,266 	"/>
	
		<line fill="none" stroke="#3C0455" stroke-width="0" stroke-linecap="round" stroke-linejoin="round" x1="559" y1="260.9" x2="559.1" y2="261"/>
	
		<line fill="none" stroke="#3C0455" stroke-width="0" stroke-linecap="round" stroke-linejoin="round" x1="559" y1="260.9" x2="558.2" y2="259.6"/>
	
		<line fill="none" stroke="#3C0455" stroke-width="0" stroke-linecap="round" stroke-linejoin="round" x1="558.1" y1="259.5" x2="558.2" y2="259.6"/>
	
		<line fill="none" stroke="#3C0455" stroke-width="0" stroke-linecap="round" stroke-linejoin="round" x1="559.2" y1="261.1" x2="559.2" y2="261.1"/>
	
		<line fill="none" stroke="#3C0455" stroke-width="0" stroke-linecap="round" stroke-linejoin="round" x1="559.2" y1="261.1" x2="559.1" y2="261"/>
	<path fill="#856E91" d="M600.6,316.3c0,0-0.1,0.1-0.1,0.1c-0.1,0.1-0.2,0.1-0.2,0.2c0,0.1,0.2,0.3,0.3,0.4l0,0l0.3-0.3L600.6,316.3
		z"/>
	
		<line fill="none" stroke="#DCEEE3" stroke-width="0" stroke-linecap="round" stroke-linejoin="round" x1="545.1" y1="259.5" x2="545.9" y2="260.5"/>
	
		<line fill="none" stroke="#DCEEE3" stroke-width="0" stroke-linecap="round" stroke-linejoin="round" x1="544.9" y1="259.2" x2="545.1" y2="259.5"/>
	
		<line fill="none" stroke="#DCEEE3" stroke-width="0" stroke-linecap="round" stroke-linejoin="round" x1="545.9" y1="260.5" x2="545.9" y2="260.5"/>
	<polygon fill="#856E91" points="574.3,267.9 573.2,267 572.8,267.3 572.7,267.3 572.6,267.4 573.4,268.6 573.5,268.5 574.3,267.9 	
		"/>
	
		<line fill="none" stroke="#F1E7AE" stroke-width="0" stroke-linecap="round" stroke-linejoin="round" x1="574" y1="337.8" x2="573.9" y2="337.8"/>
	
		<line fill="none" stroke="#F1E7AE" stroke-width="0" stroke-linecap="round" stroke-linejoin="round" x1="574.9" y1="337.2" x2="575.1" y2="337.1"/>
	
		<line fill="none" stroke="#F1E7AE" stroke-width="0" stroke-linecap="round" stroke-linejoin="round" x1="574.9" y1="337.2" x2="574" y2="337.8"/>
	
		<line fill="none" stroke="#DCEEE3" stroke-width="0" stroke-linecap="round" stroke-linejoin="round" x1="544.4" y1="258.6" x2="544.7" y2="259.1"/>
	
		<line fill="none" stroke="#DCEEE3" stroke-width="0" stroke-linecap="round" stroke-linejoin="round" x1="544.9" y1="259.3" x2="544.7" y2="259.1"/>
	
		<line fill="none" stroke="#DCEEE3" stroke-width="0" stroke-linecap="round" stroke-linejoin="round" x1="544.1" y1="258.2" x2="544.4" y2="258.6"/>
	
		<line fill="none" stroke="#403F95" stroke-width="0" stroke-linecap="round" stroke-linejoin="round" x1="80.4" y1="798.6" x2="84.1" y2="799.8"/>
	<path fill="#E3D566" d="M385.8,745.7c-16,53-32.2,105.9-48.4,158.9c-0.4,1.3-0.1,2.8-0.1,4.2c1.4-0.4,2.8-1,4.1-1.6
		c23.7-13.6,47.3-27.3,71.1-40.8c0.6-0.3,2.6-4.4,3.6,0.1l2.3-3.6c3.6-31.8,6.9-63.7,10.9-95.5c0.7-5.3-1.4-11.4,2.9-16.1
		c0-2.9,0-5.8,0-8.7c0-0.3-0.1-0.6-0.1-0.9l-0.4-1c0,0,0,0,0,0c-3.6,0-7.3,0-10.9,0c-7.4,0-14.7,0.1-22.1,0.1c-2.1,0-4.3,0-6.4,0
		C388.5,740.8,387,741.8,385.8,745.7z"/>
	<path fill="#E3D566" d="M419.2,861.6c-0.3,0.4-0.5,0.9-0.8,1.3C418.7,862.5,418.9,862,419.2,861.6z"/>
	<path fill="#FAAC60" d="M260.3,900.1c0.7,0.4,1.4,0.7,2.2,1c0.3-1,0.5-2.1,0.6-3.2c-0.7-12.6-1.3-25.2-2-37.8l-0.8-1.1l-67.8-29.2
		L138,806.1l0.8,0.6L260.3,900.1z"/>
	<path fill="#ED215D" d="M261.1,860.1c4.6,1.8,10.2,3.6,13.9,5.4s4.1,0.4,4.1-2.9c-0.1-33.3-0.1-66.5-0.1-99.9c0-0.1,0-0.3,0-0.4
		c-6.5-0.1-13,0-19.5-0.3c-4-0.2-4.3,1.7-4.1,4.9c1.6,30.7,3.2,61.3,4.8,92l0.1,0.1L261.1,860.1z"/>
	<path fill="#FAFAFA" d="M370.2,936.3l-57.1,21.8c0,0,0,0,0,0l0,0l0.2,1.1l22.5-5.9c-0.1,0-0.1,0.1-0.2,0.1c0.1,0,0.2-0.1,0.3-0.1
		l78.2-23.1c-1-0.5-2.1-1.6-3-1.4c-14.8,2.3-1.3-4.4-2.1-6.4l-37.7,13.1l0,0v0v-0.2v0C370.8,935.4,370.4,935.8,370.2,936.3z"/>
	<polygon fill="#F1E7AE" points="313.1,959.3 313.3,959.2 313.1,958.1 313.1,958.1 298.2,963.8 299.3,963.5 312,960.2 312,960.2 
		313.1,960 	"/>
	<path fill="#FAAC60" d="M392.2,902.1c-0.1,0.2-0.1,0.4-0.2,0.6l8.2-12.6c-0.2,0.2-0.3,0.3-0.5,0.5
		C396.3,893.7,393.7,897.7,392.2,902.1z"/>
	<path fill="#FAAC60" d="M400.1,890.1l5.3-7.3l2.3-3.3C404,882.1,401.4,885.8,400.1,890.1z"/>
	
		<line fill="none" stroke="#856E91" stroke-width="0" stroke-linecap="round" stroke-linejoin="round" x1="385.8" y1="912.4" x2="384.4" y2="914.2"/>
	
		<line fill="none" stroke="#3C0455" stroke-width="0" stroke-linecap="round" stroke-linejoin="round" x1="370.1" y1="936.2" x2="371.2" y2="935.1"/>
	
		<line fill="none" stroke="#FAAC60" stroke-width="0" stroke-linecap="round" stroke-linejoin="round" x1="391.8" y1="903.1" x2="391.2" y2="903.9"/>
	<path fill="#ED215D" d="M458.9,606.1L458.9,606.1l-24.2-23.2c-1.4-1.3-0.9-2.8,0.8-3.6l23.4-11.1c0,0,0-0.1,0.1-0.1
		c0-0.1,0.1-0.1,0.1-0.2l0.4-15.5c0-0.1-0.1-0.1-0.1-0.2c-23.7-10.9-34.8-28.7-30.5-55.1c-6-8.1-12.4-16.1-17.8-24.6
		c-3.7-5.7-5.5-8-12.6-2.3s-15.1,10.2-22.8,15.2c-3.4,2.2-5.2,4.3-3.4,8.9c6.7,16.8,13.6,33.6,19,50.8c2.4,7.8,10.1,14.9,2.9,25.2
		c-14.3,20.8-27.1,42.6-40.6,63.9c-1.5,2.3-2,4,0.5,6c20.4,15.9,40.7,31.9,61,48c21.6,17.3,43.2,34.5,64.9,51.8
		c0.1,0.1,0.1,0.1,0.2,0.2l18.8-0.4l-0.3-0.3l-44.8-48.1c-1.8-2-3.4-4.3-5.1-6.4c2.4-0.4,4.8-0.6,7.2-0.7c4.2,0.1,3.2-2.9,3.2-5.2
		c0.1-23.7,0.2-47.3,0.3-70.9c0,0,0,0,0-0.1c0,0,0,0,0,0L458.9,606.1z"/>
	<path fill="#F1E7AE" d="M432.2,751.4C432.2,751.4,432.2,751.3,432.2,751.4c-4.3,4.6-2.2,10.7-2.9,16c-4,31.8-7.3,63.7-10.9,95.5
		c0.3-0.4,0.5-0.9,0.8-1.3c7.3-11.7,20.4-20.7,19.5-36.5c-1.4-24.5-3.7-49-5.7-73.5l0,0l0,0.1C432.7,751.7,432.4,751.6,432.2,751.4z
		"/>
	<path fill="#ED215D" d="M288.7,485.9c0.1-1.2-0.7-2.9-2-4.7c-0.6-0.9-1.4-1.8-2.2-2.7c-5.3-5.8-14-11.9-17.7-11.1
		c-1.1,0.2-1.9,1.9-2.7,3.1c-8.2,12.2-4.9,23.1,4.1,33.2c0,0,0,0,0,0c3.5-1,3.6-3,1.7-5.7c-1.9-2.7-3.7-6.4-5.1-8.6s-0.7-3.7,1-5.2
		l6-5.2c0.6,2,1,4,1.3,6.1c1.2,11.4,2.2,22.9,3.3,34.2c0,0,0,0,0,0.1l8.4-7.5c0.5,0,0.9-0.4,0.9-0.9l0,0l-0.8,0.8l0.8-0.8l1.1-1.2
		c0.1-0.2,0.2-0.3,0.2-0.5C290.9,501.9,288,493.7,288.7,485.9z"/>
	<path fill="#FDFDFD" d="M426.2,915.9l0.2-0.1C426.3,915.8,426.2,915.8,426.2,915.9z"/>
	<path fill="#FDFDFD" d="M449,920.3C449,920.3,449,920.2,449,920.3l-2,0.5C447.7,920.7,448.4,920.8,449,920.3z"/>
	<path fill="#FDFDFD" d="M411.1,928.8c0.9-0.2,2,0.9,3,1.4l1.8-0.3c0.1-0.1,0.2-0.2,0.3-0.4c1.1-2.9-5.9-1.8-2.8-4.8
		c0.8-0.8,5.1,2.2,7.9,3.4l-1,0.3c0.2,0,0.5,0,0.7-0.1l1.9-0.4c0.1-0.3,0.3-0.5,0.4-0.8l1.8-5.6c4,2.1,9.1-3.2,12.7,1.9l-0.3,0.1
		c0,0,0.1,0,0.1,0l1.4-0.4c0,0,0.1-0.1,0.1-0.1l0,0c1-3.2,2.6-4.1,5.2-1.4l-0.2,0.1c0,0,0.1,0,0.1,0l1.8-0.6
		c0.1-0.1,0.2-0.1,0.2-0.1l-0.1,0l0.1,0c0.2-0.1,0.5-0.2,0.8-0.2l2-0.5c0,0,0-0.1,0-0.1c0.7-2-2.2-6.9,0.9-5.3
		c6.4,3.3,11-1.9,16.7-1.2c3.3,0.4,7.1-3.3,10.6-5.1c-2-1.2-4.2-2.5-5.9-3.7c-1.6-1.2-3.1-2.6-4.5-3.9c-0.1-0.1-0.1-0.1-0.2-0.2
		l-2.8,1.1c-0.7,3.8-3.6,1.9-5.7,2.1c-0.2,0.1-0.3,0.2-0.5,0.3l-2.8,1c-0.6,0.7-1.6,0.6-2.4,0.9l-2.8,1l1.9,1.1
		c-1.1,0.8-2.1,2-3.3,2.3c-3.8,0.8-7.7,1.1-11.6,1.6c-0.2,0.1-0.5,0.1-0.7,0.2l-3.9,1.4c0.8,8-3.9,1.9-6.1,2.3
		c-0.1,0.1-0.2,0.1-0.3,0.2c-0.2-0.1-0.4,0-0.6,0.1c-0.7,2.5-2.6,1.8-4.2,1.7c-0.1,0-0.3,0.1-0.4,0.1l-2.5,1l-0.8,2.6l-2-1.4
		c-0.1,0-0.2,0-0.2-0.1l-6,2.2c0,0,0,0,0,0.1C409.8,924.4,396.3,931.1,411.1,928.8z"/>
	<path fill="#FAFAFA" d="M448.3,910.5c1.2-0.3,2.2-1.5,3.3-2.3l-1.9-1.1l0,0l-13.5,5.1c0.2,0,0.3,0,0.5-0.1
		C440.6,911.6,444.5,911.3,448.3,910.5z"/>
	<path fill="#FAFAFA" d="M432.1,913.7C432.1,913.6,432.1,913.6,432.1,913.7l-5.8,2.1l-0.2,0.1l-0.4,0.1c0.1,0,0.1-0.1,0.2-0.1
		C428.2,915.5,432.9,921.7,432.1,913.7z"/>
	<path fill="#81CDCA" d="M432.2,751.4c0.2,0.2,0.5,0.3,0.8,0.3l0-0.1l-0.8-9.8c0,0.3,0,0.5,0,0.8
		C432.2,745.5,432.2,748.4,432.2,751.4C432.2,751.3,432.2,751.4,432.2,751.4z"/>
	<path fill="#FAFAFA" d="M463.9,901.8c0-0.1,0-0.1,0-0.2l-6.1,2.4c0.1,0,0.3-0.1,0.4-0.1C460.3,903.7,463.1,905.6,463.9,901.8z"/>
	<polygon fill="#FAFAFA" points="417.2,921.6 418,919 415,920 415.2,920.2 	"/>
	<path fill="#FAFAFA" d="M425.1,916.2C425.1,916.2,425.1,916.2,425.1,916.2l-4.5,1.7c0.1,0,0.2,0,0.3,0
		C422.5,918,424.4,918.7,425.1,916.2z"/>
	<polygon fill="#DCEEE3" points="441.4,830 441,831 442.2,830.2 442.1,830.1 441.6,829.6 	"/>
	
		<line fill="none" stroke="#FAFAFA" stroke-width="0" stroke-linecap="round" stroke-linejoin="round" x1="455.1" y1="905" x2="452.7" y2="905.9"/>
	
		<line fill="none" stroke="#880164" stroke-width="0" stroke-linecap="round" stroke-linejoin="round" x1="285.7" y1="511" x2="284.9" y2="511.8"/>
	
		<line fill="none" stroke="#880164" stroke-width="0" stroke-linecap="round" stroke-linejoin="round" x1="285.8" y1="510.9" x2="285.7" y2="511"/>
	<path fill="#FAFAFA" d="M425.1,921.5l-1.8,5.6l-0.2,0.7l14.4-4.3l0.3-0.1C434.2,918.3,429.1,923.6,425.1,921.5z"/>
	<path fill="#403F95" d="M313.3,959.2l-0.2,0.1v0.7v0c7.9-0.3,15.6-2.6,22.5-6.6c0.1,0,0.1-0.1,0.2-0.1L313.3,959.2z"/>
	<path fill="#FAFAFA" d="M413.4,924.7c-3.1,3,4,1.9,2.8,4.8c0,0.1-0.1,0.2-0.1,0.3l4.2-1.4l1-0.3
		C418.5,926.9,414.2,923.9,413.4,924.7z"/>
	<path fill="#403F95" d="M562.2,888c0.1,0,0.3,0,0.4,0.1c3.8,0.6,7.7-0.5,10.6-3.1c0.1-0.1,0.2-0.2,0.3-0.3L562.2,888z"/>
	<path fill="#FAFAFA" d="M439.1,923L439.1,923l5-1.3l0.2-0.1C441.7,918.9,440.1,919.8,439.1,923z"/>
	<path fill="#FDFDFD" d="M538.6,894.2l1.5-0.3h0l0,0l-0.6-0.4l-1.7-1.3l-1.7,2.8l1-0.2C537.6,894.6,538,894.2,538.6,894.2z"/>
	<polygon fill="#FDFDFD" points="504.1,904.2 503.9,903.8 502.8,901.5 501.7,902.4 503.7,904.3 503.8,904.4 	"/>
	
		<line fill="none" stroke="#FAFAFA" stroke-width="0" stroke-linecap="round" stroke-linejoin="round" x1="446.1" y1="921" x2="446.2" y2="921"/>
	
		<line fill="none" stroke="#FAFAFA" stroke-width="0" stroke-linecap="round" stroke-linejoin="round" x1="449.1" y1="920.2" x2="449" y2="920.2"/>
	
		<line fill="none" stroke="#FAFAFA" stroke-width="0" stroke-linecap="round" stroke-linejoin="round" x1="446.2" y1="921" x2="447" y2="920.8"/>
	
		<line fill="none" stroke="#FAFAFA" stroke-width="0" stroke-linecap="round" stroke-linejoin="round" x1="449" y1="920.2" x2="447" y2="920.8"/>
	
		<line fill="none" stroke="#FAFAFA" stroke-width="0" stroke-linecap="round" stroke-linejoin="round" x1="538.6" y1="894.3" x2="537.1" y2="894.9"/>
	<path fill="#F1E7AE" d="M494.4,576.1l-2.3-25l-3.3,1.1h0.2l-29.9,15.9l-0.2,38l0.6,2c0,0,0,0,0,0c3,2.8,6.4,6.6,9.1,8.2
		c2.7,1.6,3.4,8.3,8.1,4.6c6.3-5,11.7-11.1,17.5-16.8l0,0l0.2-7l0,0v0l0.3-2l0-0.1l-0.2-3c0-0.8,0.1-1.7,0.1-2.5l-0.1,2.4
		L494.4,576.1z"/>
	<path fill="#F1E7AE" d="M459,568.1C459,568.1,459,568.2,459,568.1L459,568.1l0.1-0.2C459.1,568,459,568,459,568.1z"/>
	<path fill="#ED215D" d="M507,666c-4.4-2.6-3-7.1-2.5-10.8c0.5-3.7,3.6-0.5,5.4-1c-0.2-7.7-6.1-2.4-9-3.9c0,0,0,0-0.1,0
		c-0.6,2.6,2.3,7.3-2.1,7.4c-4.5,0.1-1.4-4.9-2.5-7.5c0,0,0,0,0,0c-1.5-1.3-1-2-2.3-1.2c-0.7,1.3-1.3,3.5-2,3.5
		c-2.9,0-1.4-2.4-1.7-3.8c0,0-0.1-0.1-0.1-0.1c-5.3-1-9.3-7.7-15.8-3.5l12.8,9.1l2,1.8h0.1l0,0l1.9,0.2c0.5,0.3,1.1,0.6,1.2,1.2
		l0.4,0.4l0,0l0.4,0.3c1.5,1,3.8,2.1,1.9,4s-4-0.6-5.8-1.7l0,0c0,0-0.1,0-0.1,0l-1.2-1c-0.3-0.9-1.3-0.7-1.9-1.1l-1.2-0.9
		c-0.2-1-1.3-0.6-1.8-1.1l-15.6-8.7c-1-0.5-2.7-1.5-3.2-0.3s-0.6,3.6,0.2,4.4c11,10.9,22.3,21.7,33.5,32.5h0.2
		c4.1-15.9,13.4-2.1,20.1-3.3c2.4-0.5,5.3,1.8,8,3.1c0.2,0,0.3,0.1,0.5,0.1h2l0.3-4.9c0-0.1-0.1-0.1-0.1-0.1L507,666z M487.9,659.3
		l-1.9-1.1L487.9,659.3z M484.8,657.4l-1.8-1.1L484.8,657.4z"/>
	<path fill="#ED215D" d="M490.5,657l-1.3-1C489.5,656.5,489.9,656.8,490.5,657z"/>
	<path fill="#ED215D" d="M489.1,656l-2-1.8C487.6,655,488.3,655.6,489.1,656z"/>
	<path fill="#3C0455" d="M486.7,631.6c-0.1,0-0.3,0.1-0.5,0.1c-6.8,4.9-14.6,1.4-21.9,2.3c-0.1,0-0.1,0.1-0.2,0.1H464l0,0
		c9.8,5.6,19.9,11.5,31.4,11.7c11.5,0.2,19.5,6,29.2,9.2c1.4,0.5,2.9,0.2,4.4,0.3c0,0,0-0.1,0-0.1c-7.6-7.3-22.8-4.2-25.5-18.4
		c0-0.2-2.1-0.3-2.4,0.1c-1.6,2.4-3.1,5.7-6.5,3.6s-1.3-5.9-1.2-9.1l-0.2,0l-5.1-0.5l-0.1,0L486.7,631.6z"/>
	<path fill="#880164" d="M524.6,655c-9.7-3.2-17.7-9-29.2-9.2c-11.5-0.2-21.6-6.1-31.4-11.7c0,0,0,0,0,0c-2.4,0.9-3.5,2-0.8,3.9
		l11,7.2c0,0,0.1-0.1,0.1-0.1c6.4-4.2,10.5,2.5,15.8,3.5c0,0,0.1,0.1,0.1,0.1c0-0.1,0-0.1,0-0.2l3.7,0.4c0,0,0,0,0,0.1
		c1.3-0.7,0.9,0,2.3,1.2c0,0,0,0,0,0c0,0,0-0.1,0-0.1h4.7c0,0.1,0,0.2-0.1,0.2c0,0,0,0,0.1,0c2.9,1.5,8.8-3.8,9,3.9c0,0,0,0,0,0
		c0.2,0.2,0.3,0.5,0.4,0.8c0,0,0,0.1,0,0.1c0,0,0,0,0,0l21.8,5.2c0,0,0,0,0,0l0-0.1l-1-4.1c0,0,0.1,0,0.1,0c0,0,0,0,0,0l-2.1-0.8
		c0,0-0.1,0-0.1,0C527.5,655.2,526,655.5,524.6,655z"/>
	<path fill="#880164" d="M486.2,631.7c0.2-0.1,0.3-0.2,0.5-0.3c-8.3-5.6-16.4-10.2-22.6,2.6c0.1,0,0.1,0,0.2,0
		C471.6,633.1,479.4,636.6,486.2,631.7z"/>
	<path fill="#F06347" d="M495,662c1.9-1.9-0.4-3-1.9-4l-0.4-0.3l0,0l0.4,0.4l-0.8-0.1l-0.1,0.1l-3,2.2l0,0
		C491,661.4,493.1,663.9,495,662z"/>
	<path fill="#FAAC60" d="M494.2,604.1L494.2,604.1c1.5-2.3,1.2-4.6,0.2-7l0,0L494.2,604.1z"/>
	<path fill="#F06347" d="M491.1,656.3l1.2,1.1C492.2,656.8,491.6,656.5,491.1,656.3l-1.9-0.3h0l0,0l1.3,1l1.5,1.1l0.2-0.2
		L491.1,656.3z"/>
	
		<line fill="none" stroke="#F06347" stroke-width="0" stroke-linecap="round" stroke-linejoin="round" x1="487.1" y1="654.2" x2="489.1" y2="656"/>
	
		<line fill="none" stroke="#F06347" stroke-width="0" stroke-linecap="round" stroke-linejoin="round" x1="487.9" y1="659.3" x2="486" y2="658.2"/>
	
		<line fill="none" stroke="#F06347" stroke-width="0" stroke-linecap="round" stroke-linejoin="round" x1="483" y1="656.3" x2="484.8" y2="657.4"/>
	<polygon fill="#FDFDFD" points="590.3,769.9 593.1,771.1 593.1,771.1 593,767.2 593,767.1 	"/>
	
		<line fill="none" stroke="#CA571D" stroke-width="0" stroke-linecap="round" stroke-linejoin="round" x1="593.4" y1="592.3" x2="592.2" y2="595"/>
	<path fill="#FAAC60" d="M516.3,548.8c-6.2,5.4-10.3,3.4-14.1-2.5c0,0,0-0.1,0-0.1c0,0,0,0,0,0l-6.1,2.5c0,0,0,0,0-0.1
		c0,0,0,0-0.1,0.1l-1.6,0.7c-0.1,0.1-0.2,0.2-0.3,0.3l-2,1.4l2.3,25h0.7l0,0.2c0,0,0,0,0,0c3.1-3.1,6.3-6.3,9.5-9.4
		c1.5-1.4,3.3-2.6,4.9-3.9c0.2,3.2,0.5,6.4,0.6,9.6c0.1,1.7,0.9,4.3-1.8,4.4c-8.6,0.2-11.9,5.7-8.8,12.2s9.7,11.4,17.6,13.1
		c0,0,0-0.1,0-0.1l0,0c-1.9-2.6-5.5-5.4-5.4-7.9c0.4-6.2,1.8-11,4.3-14.1c0.3-1.4,1-2.1,2.4-2.3c4.2-3,10.3-3.1,18.5,0.1
		c0,0,0,0,0,0l0.4-27l0-0.1L530,540l0,0l0,0C525.4,542.9,520.4,545.3,516.3,548.8z"/>
	<path fill="#F1E7AE" d="M518.4,577.9c-0.9,0.6-1.7,1.4-2.4,2.3c-2.5,3.1-3.9,7.9-4.3,14.1c-0.1,2.5,3.5,5.3,5.4,7.9l0,0l4-2.3
		c0,0,0,0-0.1,0l-4.4-5.4h8.7c15,2.4,11.6-8.1,11.5-16.4c0,0,0,0,0,0C528.8,574.9,522.6,574.9,518.4,577.9z"/>
	<path fill="#3C0455" d="M516.7,594.4l4.4,5.4c0,0,0,0,0.1,0c6.9,3.7,13.8,7.1,22.8,4.4l-18.6-9.8H516.7z"/>
	<polygon fill="#F06347" points="494.4,576.1 494.5,591.9 494.6,589.5 495.1,576.3 495.1,576.1 	"/>
	<path fill="#F06347" d="M559,497.3c0,2.5-1.2,4.2-3.9,4.8l0.2,2c0,0-0.1,0.1-0.1,0.1l1.1,0.9l-0.1,0.1c0.1,0,0.1-0.1,0.2-0.1
		c3.1-3.2,6.6-8.9,8.1,1v0l19.6-11l0.7-1.6l-0.7,1.6l0.1,0l0,0.1c0.3-0.5,0.6-1.1,0.7-1.7c1.6-5.7-0.5-10.1-5.6-12.1
		s-8.3,1.5-10.9,5.3c-2.5,3.7-6.1,6.9-9.1,10.3c-0.1,0.1-0.1,0.1-0.2,0.2L559,497.3z"/>
	<path fill="#ED215D" d="M555.7,506.2l-0.5,0.8C555.5,506.8,555.7,506.5,555.7,506.2z"/>
	<path fill="#ED215D" d="M555.2,504.2c-12.6,20.3-31.1,33.2-53,42c0,0,0,0.1,0,0.1c3.8,5.9,7.9,7.9,14.1,2.5
		c4.1-3.5,9.1-5.9,13.7-8.8l0,0l25.2-33l0,0c0-0.3,0.2-0.7,0.5-0.8v0l0.5-1l0.1-0.1L555.2,504.2z"/>
	<path fill="#F06347" d="M555.2,507L555.2,507L555.2,507l0.5-0.8l0,0l0,0C555.4,506.3,555.2,506.7,555.2,507z"/>
	<path fill="#3C0455" d="M461.5,455.7c0.1,0.5,0.2,1,0.5,1.4c12.1,22.9,24.6,45.7,36.1,68.9c2.3,4.7,0.8,11.4,1,17.2c0,0,0,0,0,0
		c0,0,0-0.1,0-0.1c19.3-8.1,39.1-15.4,50.3-35.1c0-0.1,0.1-0.1,0.1-0.1l-0.2,0.2l0.2-0.2c0.1-0.2,0.3-0.5,0.5-0.6l0,0l0,0
		c0,0,0.1-0.1,0.1-0.1c0.2-0.1,0.3-0.4,0.4-0.6c-0.7-11.2-1.3-22.4-2.2-33.6c-0.5-6.1-5.5-11.4-3.8-18c0,0,0,0,0,0
		c-21-10.3-41.9-21.3-66.6-17.3c-8.2,1.3-14.2,6.3-19.5,12.3c0,0,0,0,0,0L461.5,455.7z M478.9,448.2c-2.4,0.2-4.9,0.6-5-3.7
		s2.8-4.1,5.9-4c3.3-0.8,4.7,0.2,4.8,4.2S481.3,448,478.9,448.2z M490,448.3c-2,0.1-3.8,0-3.8-3s1.5-3.8,3.9-3.2
		c2.7-0.5,4.1,0,4.1,3.2S492,448.2,490,448.3z"/>
	<path fill="#FAFAFA" d="M453.6,456.7l-2.4,3.4c-0.1,0.1-0.1,0.1-0.1,0.2l14.1,40.8c0.1,0.1,0.2,0.3,0.3,0.4l-0.2-0.4l0.2,0.4
		c0.2,0.3,0.3,0.5,0.3,0.8l0.1,0.3l-0.1-0.3c0,0.1,0,0.2,0,0.3l0.4,1.6c0.1,0.1,0.1,0.1,0.2,0.2l-0.1-0.2c3.8,1.5,2.5,4.9,2.8,7.8
		l2.9,8.2l0,0l0,0c3.3,0.9,1.7,3.5,1.8,5.5v0c0,0,0,0,0,0v0.2h0.2c0.8,3.5,0.7,7.1,0.6,10.7l0.5,7.5c3.4,2.2,0.4,2.9-0.7,4.1
		c-0.1,0.3-0.2,0.6-0.4,0.8v0.1c0,0,0-0.1,0-0.1l-0.2,0.2v0.3c0,0,0,0,0,0c5.2,1.8,11.2-1.8,14.4-2.4s5.5-2.4,5.9,2.5l0.3-0.2
		l1.6-0.7c0,0,0,0,0.1-0.1c-1.6-3.2,3.5-2.8,3-5.4c0,0,0,0,0,0c-0.2-5.8,1.3-12.5-1-17.2c-11.5-23.2-24-46-36.1-68.9l-0.8-1.3
		l0.8,1.3c-0.3-0.4-0.4-0.9-0.5-1.4l-3.1-5.8c0,0,0,0,0,0c-3.7-0.7-4.7,5.3-8.8,3.4c0,0.2,0,0.4,0,0.6
		C449.6,456.3,452.5,455.5,453.6,456.7z"/>
	<path fill="#3C0455" d="M610.2,541.1c0-0.1,0.1-0.1,0.2-0.2l-0.3,0.2L610.2,541.1z"/>
	<path fill="#3C0455" d="M604.3,519.4c-2.3-1.1,2.2-5.2,3.4-8c0.3-0.8,0.5-1.6,0.7-2.4c0-7.3,0-14.6,0.1-21.9h0.1c0,0,0-0.1,0-0.1
		c-12.8-3.9-16.1,6.6-21.5,14.1c0,0,0,0,0,0.1l5,2.9c0,0.1,0.1,0.1,0.1,0.2v-0.1c1.5,1.5,3.2,2.8,4.3,4.5s5.6,5.5,4.4,10l-8.7-4.8
		l-11.8,0.2c0,0,0,0,0,0v37.7v0c1-2.9,7.2-3.9,5.1-6.8c-3.8-5.1-0.9-7.7,2.3-10s5.5-4.7,3.7-9.1c-0.3-0.8,1-2.2,1.5-3.3
		c0.4,1,1.3,2.2,1.1,2.9c-2.2,6.6-1.8,10.5,0.3,12.9c0.1,0.1,0.2,0.2,0.3,0.3c2.8,2.7,8.1,2.8,14.4,2.2c0.3,0,0.7,0.1,1,0.2l0.3-0.2
		c0,0,0.1-0.1,0.1-0.1l1.3-0.8l-1.3,0.8c0.5-0.3,1.2-0.2,1.4-0.8c0-9.3,0-18.5,0-27.8c0,0-0.1,0-0.1,0l-0.8,0.6
		C608.8,515.2,608.9,521.5,604.3,519.4z"/>
	<path fill="#047553" d="M548.3,472.9c0.9,11.2,1.5,22.4,2.2,33.6l4.5-4.4l4-5c0,0,0,0,0,0c0,0,0.1-0.1,0.1-0.1H559l0-0.1l1.1-2.6
		v-21.1c-5-6.3-8.4-13.9-15.6-18.3v0C542.8,461.5,547.8,466.8,548.3,472.9z"/>
	<path fill="#F06347" d="M592.1,474.8C592.1,474.8,592.1,474.8,592.1,474.8l-35-15.9c2.9,7.8,9.4,12.5,8.4,20.3
		c0.5,0.4,1.2,0.6,1.8,0.7c3.4-5,8.4-2.4,12.8-2.8l11.9-2.3L592.1,474.8z"/>
	<path fill="#047553" d="M587.5,493c6.7-6.4,10.9-13.3,19.9-11.9l-15.3-6.3l-0.1,0l-11.9,2.3C583.8,481.3,590.5,483.7,587.5,493z"/>
	<path fill="#047553" d="M608.6,487.1h-0.1c-0.1,7.3-0.1,14.6-0.1,21.9l9.3-14.8c0,0.1,0,0.2,0,0.3c0-0.1,0-0.2,0.1-0.3l1.9-7.1l0,0
		H608.6z"/>
	<path fill="#880164" d="M592.2,513.9v-9.6c0-0.1-0.1-0.1-0.1-0.2l-5-2.9l-0.1-0.1c-2.7,4.1-7.6,7.1-6.7,13l0.1,0L592.2,513.9z"/>
	<path fill="#022256" d="M560.1,494.4c1.7-7,1.7-14.2,0-21.2v0V494.4L560.1,494.4z"/>
	
		<line fill="none" stroke="#3C0455" stroke-width="0" stroke-linecap="round" stroke-linejoin="round" x1="584.8" y1="493.5" x2="584.1" y2="495.1"/>
	
		<line fill="none" stroke="#3C0455" stroke-width="0" stroke-linecap="round" stroke-linejoin="round" x1="584.1" y1="495.1" x2="584.1" y2="495.2"/>
	<path fill="#0890A4" d="M608.4,509c-0.2,0.8-0.4,1.6-0.7,2.4c-1.2,2.8-5.7,6.9-3.4,8c4.6,2.1,4.5-4.2,6.7-6.6l0.8-0.6l0,0
		c2.4-5.7,7.1-10.7,5.9-17.7c0-0.1,0-0.2,0-0.3L608.4,509z"/>
	
		<line fill="none" stroke="#880164" stroke-width="0" stroke-linecap="round" stroke-linejoin="round" x1="610.1" y1="541.1" x2="610.4" y2="540.9"/>
	
		<line fill="none" stroke="#880164" stroke-width="0" stroke-linecap="round" stroke-linejoin="round" x1="610.5" y1="540.8" x2="610.4" y2="540.9"/>
	
		<line fill="none" stroke="#880164" stroke-width="0" stroke-linecap="round" stroke-linejoin="round" x1="611.8" y1="540" x2="610.5" y2="540.8"/>
	<path fill="#FDFDFD" d="M584.7,790.2c-0.1,19.6,0.3,39.3-0.2,58.9v1.8v0.3c2.8-1.9,3.7-4.6,3.7-8c-0.1-24.4,0-48.8-0.1-73.2
		c-0.1-3-1.7-6.8-1.4-8.9s4.1-4.9,0.6-6s-1.1,3.6-2.9,4.9l0.1,3.2C585,772.2,584.7,781.2,584.7,790.2z"/>
	<path fill="#FDFDFD" d="M587.9,736.5c-3.8,1-0.9,4.9-2.3,7.9l1.7,7.3c3.2-3.2,1.6-7.5,2.6-11.3C590.3,739,591.7,735.5,587.9,736.5z
		"/>
	<path fill="#3C0455" d="M535.9,667.1l-0.7-1.4C535.3,666.2,535.6,666.7,535.9,667.1z"/>
	<path fill="#3C0455" d="M532.1,660.2L532.1,660.2l3.1,5.5l0.7,1.4l2,3.2l0,0c1-1.3,3-3.3,2.7-3.9c-2.4-4.1-3.9-9.1-9.4-10.3
		c0,0-0.1,0-0.1,0L532.1,660.2z"/>
	<path fill="#856E91" d="M542,672.3l-3.2,0.3h0C540.2,676.1,541,673.4,542,672.3z"/>
	<path fill="#F7921E" d="M509.9,654.2C509.9,654.2,509.9,654.2,509.9,654.2c-1.8,0.5-4.9-2.7-5.4,1c-0.5,3.7-1.9,8.2,2.5,10.8
		l21.9,13l0.1,0c1.5-6.8-1.1-10.5-7.7-13.4c-4.4-1.9-12.2-2-11-10.5c0,0,0-0.1,0-0.1C510.2,654.7,510.1,654.4,509.9,654.2z"/>
	
		<line fill="none" stroke="#FDFDFD" stroke-width="0" stroke-linecap="round" stroke-linejoin="round" x1="535.9" y1="667.1" x2="535.2" y2="665.7"/>
	<path fill="#047553" d="M518.2,680.8c-6.7,1.2-16-12.6-20.1,3.3h0.1h28.5c-0.2-0.1-0.3-0.1-0.5-0.2
		C523.5,682.6,520.6,680.3,518.2,680.8z"/>
	<path fill="#DCEEE3" d="M531,308.2h7.9l0,0.2l0.4-0.5v-0.1v0h0c-0.1-0.1-0.2-0.3-0.2-0.4l-0.2-0.1c-17-5.3-31-1.4-41.2,13.8
		c-0.7,0.8-1.6,1.5-2.5,2.1c0,0-0.1,0.1-0.1,0.1c-7.4,7.6-15.2,14.9-22.1,22.9c-3.6,4.2-12.2,9.3-9.4,12.7s8.9-5.5,13.3-9.1
		c16.7-13.6,32.9-27.7,49.3-41.6h0H531z"/>
	<path fill="#81CDCA" d="M176.5,260.8c-8.7,6.1-20.4,11.5-24.2,20.1c-5.9,13.4-6.4,29.3-9.4,45.6l9.3,13.1c1.7-2.2,3.1-3.6,5.1-6.4
		s0.3-5.6-0.8-8c-4.2-8.8-2.9-16.2,3.2-24.1c8.5-10.9,15.8-22.7,23.1-34.4c2.5-4,9.9-8.6,5.9-12.4S180.4,258.1,176.5,260.8z"/>
	<path fill="#81CDCA" d="M145.6,272.6c-8.1,23.8-26.9,47.4-3,72.6c0.2,0.3-0.7-0.2,0.5,0.9s1.4,4.2,3.5,3s1.4-3.3,0.1-5.2
		c-5.9-8.4-11.1-16.7-6.6-27.9c6.6-16.4,0.5-38.2,20.6-49c10.4-5.5,16.9-17.5,29.7-18.7c5.4-0.4,7.8-2.3,8.8-7.1l-0.1-0.1l0,0.1
		v-0.1l0,0l-0.1-0.2C184.4,239,150.3,258.8,145.6,272.6z"/>
	<path fill="#81CDCA" d="M221.2,228.2c5.6-3.2,13.3-4.2,14.9-14.6l-15.2,14.2L221.2,228.2z"/>
	<polygon fill="#81CDCA" points="219.1,229.1 219.2,229.1 221.2,228.2 220.9,227.8 	"/>
	<polygon fill="#81CDCA" points="219.2,229.2 219.2,229.1 218.7,229.6 	"/>
	<polygon fill="#81CDCA" points="231.8,203.6 230.8,203.8 231.3,204.3 231.4,204.2 231.4,204.1 	"/>
	<polygon fill="#81CDCA" points="199.1,241.2 199.1,241.1 199.3,240.8 199.1,241.1 199.1,241.1 	"/>
	
		<line fill="none" stroke="#F1E7AE" stroke-width="0" stroke-linecap="round" stroke-linejoin="round" x1="601.4" y1="473.2" x2="601.4" y2="473.2"/>
	
		<line fill="none" stroke="#F1E7AE" stroke-width="0" stroke-linecap="round" stroke-linejoin="round" x1="605.4" y1="472.6" x2="601.4" y2="473.2"/>
	
		<line fill="none" stroke="#F1E7AE" stroke-width="0" stroke-linecap="round" stroke-linejoin="round" x1="605.4" y1="472.6" x2="608.4" y2="472.1"/>
	<path fill="#ED215D" d="M227.9,410.5c-4.2,1-13.2,14.7-17.4,24.9c-0.2,0.5-0.4,1-0.6,1.5c-1.1,2.8-1.7,5.3-1.6,7c0,0,0,0,0,0
		L227.9,410.5z"/>
	<path fill="#81CDCA" d="M539.3,307.8L539.3,307.8l4.9,0.1l-1.4-0.2l-3.8-0.5c0,0.1,0,0.1,0.1,0.2
		C539.1,307.5,539.2,307.7,539.3,307.8L539.3,307.8z"/>
	<path fill="#880164" d="M474,548.8v0.2c0.1-0.3,0.3-0.5,0.4-0.8C474.2,548.4,474,548.6,474,548.8z"/>
	<path fill="#880164" d="M465.5,501.5l0.3,0.8C465.8,502,465.6,501.8,465.5,501.5z"/>
	<path fill="#880164" d="M473.8,549.2l0.2-0.2c0-0.1,0-0.1,0-0.2v-4.7v-18l0.6,10.5c0.1-3.6,0.2-7.2-0.6-10.7h-0.2v-0.2c0,0,0,0,0,0
		l-1.8-5.5l0,0l-2.9-8.2l-2.7-7.6c-0.1-0.1-0.1-0.1-0.2-0.2l-0.4-1.6c0-0.1,0-0.2,0-0.3l-0.3-0.8c-0.1-0.1-0.2-0.3-0.3-0.4
		l-14.1-40.8l-0.1-0.2c-7.8,9.9-11.2,22-16.6,33.1c-13.5,27.7,10.6,58.8,39.4,56.3c0,0,0,0,0,0V549.2z"/>
	<polygon fill="#F7921E" points="459.1,567.9 459.1,568.1 489,552.2 488.8,552.2 459.5,552.2 459.5,552.4 	"/>
	<polygon fill="#F1E7AE" points="531,308.2 539,310 539.1,310 538.9,308.4 538.9,308.2 	"/>
	<path fill="#F7921E" d="M435.5,579.3c-1.7,0.8-2.2,2.3-0.8,3.6l24.2,23.3l0-0.1l0.2-38l-0.2,0.1L435.5,579.3z"/>
	<path fill="#FAFAFA" d="M498.7,657.7c4.5-0.1,1.5-4.7,2.1-7.4c0-0.1,0-0.2,0.1-0.2h-4.7c0,0,0,0.1,0,0.1
		C497.3,652.8,494.2,657.8,498.7,657.7z"/>
	<path fill="#F1E7AE" d="M491.9,652.5c0.7,0,1.3-2.2,2-3.5c0,0,0,0,0-0.1l-3.7-0.4c0,0.1,0,0.1,0,0.2
		C490.5,650.1,489,652.5,491.9,652.5z"/>
	<polygon fill="#CA571D" points="493.1,658.1 492.7,657.7 492.3,657.4 491.1,656.3 492.2,657.9 492.2,658 492.3,658 	"/>
	<path fill="#DCEEE3" d="M502.2,546.2C502.2,546.2,502.2,546.2,502.2,546.2c21.9-8.8,40.4-21.7,53-42c0,0,0.1-0.1,0.1-0.1l-0.2-2
		c0,0-0.1,0-0.1,0l0,0l-4.5,4.4c-0.1,0.2-0.2,0.5-0.4,0.6c0,0-0.1,0.1-0.1,0.1l-0.5,0.6c0,0-0.1,0.1-0.1,0.1
		c-11.2,19.7-31,27-50.3,35.1c0,0,0,0.1,0,0.1c0.4,2.6-4.6,2.2-3,5.4c0,0,0,0,0,0.1L502.2,546.2z"/>
	<path fill="#DCEEE3" d="M549.5,507.9l0.5-0.6C549.8,507.4,549.6,507.6,549.5,507.9z"/>
	<path fill="#DCEEE3" d="M555.1,502.1c2.7-0.6,3.8-2.3,3.9-4.8c0,0,0-0.1,0-0.1c0,0,0,0,0,0L555.1,502.1l-0.1,0
		C555,502.1,555.1,502.1,555.1,502.1z"/>
	<path fill="#FAFAFA" d="M479.8,440.5c-3.1-0.1-6-0.3-5.9,4s2.6,3.9,5,3.7s5.8,0.5,5.7-3.5S483.1,439.7,479.8,440.5z"/>
	<path fill="#DCEEE3" d="M490.1,442.1c-2.4-0.6-3.9,0.2-3.9,3.2s1.8,3.1,3.8,3s4.2,0.2,4.2-3S492.8,441.6,490.1,442.1z"/>
	
		<line fill="none" stroke="#DCEEE3" stroke-width="0" stroke-linecap="round" stroke-linejoin="round" x1="462" y1="457.1" x2="461.2" y2="455.8"/>
	
		<line fill="none" stroke="#047553" stroke-width="0" stroke-linecap="round" stroke-linejoin="round" x1="550" y1="507.2" x2="550" y2="507.2"/>
	
		<line fill="none" stroke="#047553" stroke-width="0" stroke-linecap="round" stroke-linejoin="round" x1="549.5" y1="507.9" x2="550" y2="507.2"/>
	
		<line fill="none" stroke="#047553" stroke-width="0" stroke-linecap="round" stroke-linejoin="round" x1="549.3" y1="508.1" x2="549.5" y2="507.9"/>
	<polygon fill="#FDFDFD" points="474,544.1 475.1,544.1 474.6,536.6 474,526.1 	"/>
	<path fill="#DCEEE3" d="M466.3,504.2l0.1,0.2l2.7,7.6C468.8,509.1,470.1,505.7,466.3,504.2z"/>
	<path fill="#DCEEE3" d="M474,549C474,549,474,549.1,474,549L474,549l0-0.2C474,548.9,474,549,474,549z"/>
	<path fill="#DCEEE3" d="M474,544.1v4.7c0-0.2,0.2-0.5,0.4-0.7c1.1-1.1,4.1-1.9,0.7-4.1H474z"/>
	<path fill="#DCEEE3" d="M473.8,525.7c-0.1-2,1.5-4.6-1.8-5.5l0,0L473.8,525.7L473.8,525.7z"/>
	
		<line fill="none" stroke="#DCEEE3" stroke-width="0" stroke-linecap="round" stroke-linejoin="round" x1="465.3" y1="501.1" x2="465.5" y2="501.5"/>
	
		<line fill="none" stroke="#DCEEE3" stroke-width="0" stroke-linecap="round" stroke-linejoin="round" x1="465.8" y1="502.3" x2="465.9" y2="502.6"/>
	
		<line fill="none" stroke="#DCEEE3" stroke-width="0" stroke-linecap="round" stroke-linejoin="round" x1="465.5" y1="501.5" x2="465.8" y2="502.3"/>
	<path fill="#F06347" d="M592.2,513.9l8.7,4.8c1.2-4.5-3.3-8.3-4.4-10s-2.8-3-4.3-4.5v0.1V513.9z"/>
</g>
</svg>
