<?xml version="1.0" standalone="no"?>
<!DOCTYPE svg PUBLIC "-//W3C//DTD SVG 20010904//EN"
 "http://www.w3.org/TR/2001/REC-SVG-20010904/DTD/svg10.dtd">
<svg version="1.0" xmlns="http://www.w3.org/2000/svg"
 width="850.000000pt" height="850.000000pt" viewBox="0 0 850.000000 850.000000"
 preserveAspectRatio="xMidYMid meet">
<metadata>
Created by potrace 1.14, written by Peter Selinger 2001-2017
</metadata>
<g transform="translate(0.000000,850.000000) scale(0.100000,-0.100000)"
fill="#000000" stroke="none">
<path d="M4158 8137 c-48 -62 -117 -144 -153 -184 l-65 -72 -48 22 c-38 17
-66 22 -142 22 -82 0 -103 -4 -152 -27 -73 -34 -142 -103 -176 -176 -23 -49
-27 -70 -27 -154 l0 -97 -40 7 c-83 15 -276 6 -369 -16 -99 -25 -225 -81 -313
-139 -157 -104 -301 -286 -363 -460 l-22 -61 -92 5 c-227 12 -502 18 -511 12
-9 -7 -6 -229 8 -511 l5 -97 -36 -12 c-98 -31 -244 -119 -336 -200 -154 -136
-275 -366 -305 -579 -10 -67 -7 -259 4 -295 6 -19 1 -20 -92 -20 -85 0 -106
-4 -155 -27 -73 -34 -142 -103 -176 -176 -23 -49 -27 -70 -27 -152 0 -76 5
-104 22 -142 l22 -48 -72 -65 c-40 -36 -122 -105 -184 -153 -61 -48 -112 -92
-112 -97 -1 -6 7 -15 17 -21 35 -22 227 -180 288 -237 l62 -58 -21 -47 c-18
-38 -22 -66 -22 -142 0 -82 4 -103 27 -152 34 -73 103 -142 176 -176 49 -23
70 -27 155 -27 93 0 98 -1 92 -20 -11 -37 -14 -229 -4 -300 30 -207 149 -433
302 -571 92 -82 239 -171 339 -203 l36 -12 -5 -97 c-12 -239 -17 -504 -11
-510 6 -6 271 -1 510 11 l96 5 22 -61 c117 -326 427 -570 786 -618 81 -10 222
-7 277 6 21 6 22 4 22 -92 0 -85 4 -106 27 -155 34 -73 103 -142 176 -176 49
-23 70 -27 152 -27 77 0 104 4 142 22 l48 22 65 -72 c36 -40 105 -122 153
-184 48 -61 92 -112 97 -112 6 0 49 51 97 112 48 62 117 144 153 184 l65 72
48 -22 c38 -18 65 -22 142 -22 82 0 103 4 152 27 73 34 142 103 176 176 23 49
27 70 27 155 0 96 1 98 22 92 55 -13 196 -16 277 -6 359 48 669 292 786 618
l22 61 96 -5 c239 -12 504 -17 510 -11 6 6 1 271 -11 510 l-5 97 36 12 c100
32 247 121 339 203 153 138 272 364 302 571 10 71 7 263 -4 300 -6 19 -1 20
92 20 85 0 106 4 155 27 73 34 142 103 176 176 23 49 27 70 27 152 0 76 -4
104 -22 142 l-21 47 62 58 c61 57 253 215 288 237 10 6 18 15 17 21 0 5 -51
49 -112 97 -62 48 -144 117 -184 153 l-72 65 22 48 c18 38 22 65 22 142 0 82
-4 103 -27 152 -34 73 -103 142 -176 176 -49 23 -70 27 -155 27 -93 0 -98 1
-92 20 11 36 14 228 4 295 -30 213 -151 443 -305 579 -92 81 -238 169 -336
200 l-36 12 5 97 c14 282 17 504 8 511 -9 6 -284 0 -511 -12 l-92 -5 -22 61
c-103 288 -369 523 -676 599 -93 22 -286 31 -369 16 l-40 -7 0 97 c0 84 -4
105 -27 154 -34 73 -103 142 -176 176 -49 23 -70 27 -152 27 -76 0 -104 -5
-142 -22 l-48 -22 -65 72 c-36 40 -105 122 -153 184 -48 61 -91 112 -97 112
-5 0 -49 -51 -97 -112z m118 55 c20 -31 129 -164 203 -247 65 -72 70 -81 54
-92 -9 -7 -20 -13 -24 -13 -6 0 -144 152 -230 253 l-24 28 -107 -124 c-139
-160 -141 -162 -168 -147 -21 11 -21 12 12 50 136 158 200 234 224 269 32 45
44 50 60 23z m32 -170 l51 -59 -30 -58 c-16 -32 -29 -64 -29 -71 0 -18 -9 -18
-30 1 -15 14 -18 14 -30 0 -15 -19 -30 -19 -30 -1 0 7 -13 39 -29 71 l-30 58
51 59 c28 32 52 58 53 58 1 0 25 -26 53 -58z m-132 -171 l22 -54 -46 -54 c-25
-29 -50 -53 -54 -53 -5 0 -13 11 -18 25 -5 13 -21 43 -36 65 l-27 41 58 59
c67 67 61 69 101 -29z m290 -71 c-15 -22 -31 -52 -36 -65 -5 -14 -13 -25 -18
-25 -16 0 -97 104 -94 120 2 8 15 41 29 73 l26 58 60 -60 61 -60 -28 -41z
m-578 95 c37 -16 78 -45 101 -70 40 -43 81 -113 81 -137 0 -8 -25 -38 -55 -68
-30 -30 -55 -48 -55 -41 0 25 -50 81 -90 101 -22 11 -59 20 -84 20 l-45 0 -15
53 c-38 133 -44 166 -32 171 28 13 136 -3 194 -29z m925 29 c16 -6 12 -26 -29
-171 l-15 -53 -45 0 c-25 0 -62 -9 -84 -20 -40 -20 -90 -76 -90 -101 0 -7 -25
11 -55 41 -30 30 -55 60 -55 68 0 48 90 161 154 194 79 41 175 59 219 42z
m-1144 -51 c45 -172 44 -167 26 -178 -64 -38 -83 -56 -108 -105 -22 -42 -27
-66 -25 -103 2 -29 -1 -45 -7 -42 -5 2 -36 12 -67 21 l-57 17 -12 55 c-27 132
47 282 171 347 61 32 68 31 79 -12z m1249 13 c125 -64 200 -215 173 -348 l-12
-55 -57 -17 c-31 -9 -61 -19 -67 -21 -6 -3 -9 13 -7 42 2 37 -3 61 -25 103
-25 49 -44 67 -108 105 -18 11 -19 6 26 178 5 20 14 37 20 37 5 0 31 -11 57
-24z m-576 -143 c263 -272 388 -408 385 -417 -2 -5 -11 -14 -20 -20 -14 -9
-51 23 -235 207 l-217 217 -215 -215 c-118 -118 -220 -215 -226 -215 -6 0 -17
7 -24 15 -10 12 -1 27 56 90 134 146 399 423 405 424 4 1 45 -38 91 -86z m73
-335 c-33 -40 -62 -77 -67 -82 -4 -5 -25 7 -48 27 -22 21 -42 37 -45 37 -3 0
-23 -16 -45 -37 -23 -20 -44 -32 -48 -27 -5 5 -34 42 -67 82 l-58 73 109 110
109 109 109 -109 109 -110 -58 -73z m-578 261 c35 -13 80 -55 100 -93 15 -28
14 -30 -25 -68 -39 -40 -40 -40 -66 -23 -36 24 -101 23 -134 -2 -22 -16 -44
-47 -58 -81 -1 -1 -13 3 -28 9 -26 12 -51 71 -42 100 2 8 7 26 10 41 8 36 62
97 101 114 37 16 104 18 142 3z m970 0 c31 -12 79 -54 95 -84 36 -66 27 -153
-18 -174 -15 -6 -27 -10 -28 -9 -14 34 -36 65 -58 81 -33 25 -98 26 -134 2
-26 -17 -27 -17 -66 23 -39 38 -40 40 -25 68 19 37 64 80 97 93 34 13 102 13
137 0z m-1642 -196 c-330 -41 -598 -229 -736 -518 -68 -142 -92 -249 -92 -405
1 -100 6 -143 25 -215 14 -49 28 -98 32 -107 6 -13 2 -19 -18 -24 -13 -3 -29
-3 -34 0 -15 9 -50 152 -62 253 -47 388 186 785 555 946 116 51 212 74 305 74
30 0 42 -2 25 -4z m660 -5 c14 -6 25 -14 25 -17 0 -4 -22 -29 -50 -56 l-49
-49 -36 20 c-19 10 -35 25 -35 32 0 8 15 29 34 48 36 36 67 42 111 22z m971
-22 c19 -19 34 -40 34 -48 0 -7 -16 -22 -35 -32 l-36 -20 -49 49 c-28 27 -50
52 -50 56 0 11 44 28 74 28 19 1 39 -10 62 -33z m749 5 c259 -73 476 -253 598
-496 71 -142 106 -343 87 -498 -12 -101 -47 -244 -62 -253 -5 -3 -21 -3 -34 0
-20 5 -24 11 -18 24 4 9 18 58 32 107 33 124 35 301 3 430 -46 189 -167 385
-308 498 -146 118 -292 180 -498 211 -16 3 6 3 50 1 44 -3 112 -13 150 -24z
m-1439 -95 l45 -59 -87 -88 c-86 -87 -88 -88 -102 -66 -8 12 -40 48 -71 80
l-55 57 89 90 89 90 24 -23 c13 -12 44 -49 68 -81z m513 -133 c-31 -32 -63
-68 -71 -80 -14 -22 -16 -21 -102 66 l-87 88 37 49 c20 27 50 64 67 82 l31 32
91 -90 90 -90 -56 -57z m-1252 221 c-3 -4 -45 -10 -92 -15 -402 -41 -722 -373
-752 -780 -7 -103 9 -224 43 -323 14 -39 26 -75 27 -80 1 -6 -35 -15 -81 -21
-97 -13 -89 -19 -122 96 -27 93 -37 267 -21 369 30 190 111 349 251 491 135
136 276 214 460 253 64 14 299 22 287 10z m2061 -10 c184 -38 325 -115 462
-253 140 -142 221 -301 251 -491 16 -102 6 -276 -21 -369 -33 -115 -25 -109
-122 -96 -46 6 -82 15 -81 21 1 5 13 41 27 80 173 502 -178 1049 -709 1103
-47 5 -89 11 -92 15 -13 13 212 5 285 -10z m-2015 -1 c-7 -2 -19 -2 -25 0 -7
3 -2 5 12 5 14 0 19 -2 13 -5z m1710 0 c-7 -2 -19 -2 -25 0 -7 3 -2 5 12 5 14
0 19 -2 13 -5z m-1529 -57 c160 -48 167 -22 -69 -255 -114 -113 -210 -200
-214 -195 -47 53 -321 384 -321 388 0 18 165 76 255 90 17 2 82 3 145 1 88 -2
136 -9 204 -29z m1776 3 c74 -21 150 -54 150 -65 0 -4 -274 -335 -321 -388 -4
-5 -100 82 -214 194 -142 141 -201 206 -193 212 21 13 130 47 199 63 91 21
280 13 379 -16z m-1130 -369 l0 -330 -64 0 -63 0 -7 73 c-9 99 -41 210 -80
282 l-33 60 121 123 c66 67 122 122 123 122 2 0 3 -148 3 -330z m244 27 c-40
-76 -71 -186 -80 -283 l-7 -74 -63 0 -64 0 0 332 0 333 123 -123 124 -124 -33
-61z m-697 240 c-2 -6 -92 -96 -200 -200 -185 -178 -198 -189 -212 -171 -13
18 1 33 183 210 165 160 200 190 215 182 10 -5 17 -14 14 -21z m1350 -369 c-7
-10 -14 -18 -17 -18 -3 0 -95 88 -205 195 -188 183 -199 196 -181 209 17 14
32 2 216 -176 174 -168 197 -194 187 -210z m-2004 192 l164 -195 -48 -54 c-26
-30 -61 -83 -76 -118 -16 -36 -34 -63 -42 -63 -17 0 -544 140 -550 146 -2 2 8
36 22 75 32 86 118 217 184 280 64 63 155 130 170 127 7 -2 86 -91 176 -198z
m2472 170 c129 -89 251 -242 302 -379 14 -39 24 -73 22 -75 -6 -6 -533 -146
-550 -146 -8 0 -26 27 -42 63 -15 35 -50 88 -76 118 l-48 54 166 198 c91 108
170 197 174 197 5 0 28 -14 52 -30z m-1747 -44 c20 -19 51 -54 69 -78 l31 -44
-201 -203 -202 -202 -25 29 c-14 16 -46 54 -72 84 l-48 55 198 196 c108 108
200 197 204 197 5 0 25 -15 46 -34z m1047 -165 l195 -194 -48 -55 c-26 -30
-58 -68 -72 -84 l-25 -29 -202 202 -201 203 31 44 c37 51 104 115 117 110 5
-2 97 -90 205 -197z m-862 -130 c69 -207 52 -416 -48 -596 -67 -120 -200 -218
-315 -232 -63 -7 -68 11 -7 28 165 43 303 200 353 399 34 133 8 310 -67 462
-22 46 -22 48 -4 68 l19 21 22 -37 c12 -20 33 -71 47 -113z m508 62 c-75 -153
-101 -329 -67 -463 50 -199 188 -356 354 -399 60 -17 55 -35 -8 -28 -172 20
-334 193 -386 412 -37 154 -15 351 57 502 l31 65 21 -21 21 -21 -23 -47z
m-582 -89 c58 -160 62 -279 14 -424 -41 -126 -103 -211 -196 -271 -33 -22 -64
-39 -69 -39 -5 0 8 21 30 48 95 114 126 206 120 356 -3 92 -7 108 -40 176 -19
41 -43 84 -51 95 -15 19 -12 24 61 98 89 90 84 92 131 -39z m760 -65 c-11 -15
-34 -58 -51 -96 -28 -59 -33 -81 -36 -169 -6 -150 25 -242 120 -356 22 -27 35
-48 30 -48 -5 0 -36 17 -69 39 -94 60 -154 144 -199 276 -50 149 -37 305 42
483 l25 56 79 -79 79 -78 -20 -28z m-1286 -48 c85 -96 94 -111 81 -122 -14
-11 -20 -9 -41 16 -14 17 -57 65 -95 108 -43 48 -68 83 -64 92 3 8 9 15 14 15
5 0 52 -49 105 -109z m1743 94 c4 -9 -21 -44 -64 -92 -38 -43 -81 -91 -95
-108 -21 -25 -27 -27 -41 -16 -13 11 -4 26 81 122 53 60 100 109 105 109 5 0
11 -7 14 -15z m-1792 -135 l98 -110 -53 -58 c-77 -84 -103 -148 -103 -247 0
-60 5 -92 21 -127 12 -27 17 -48 12 -48 -16 0 -109 91 -141 138 -90 131 -96
325 -15 462 25 42 70 100 78 100 3 0 49 -50 103 -110z m1857 77 c126 -161 139
-373 31 -529 -32 -47 -125 -138 -141 -138 -5 0 0 21 12 48 16 35 21 67 21 127
0 99 -26 163 -103 247 l-53 58 98 110 c54 60 100 110 103 110 3 0 17 -15 32
-33z m-1430 -117 c45 -118 35 -255 -26 -378 -32 -63 -147 -193 -131 -147 15
41 26 120 26 182 0 85 -23 172 -68 256 l-36 67 79 80 79 79 28 -42 c15 -23 38
-67 49 -97z m1067 -87 c-45 -84 -68 -171 -68 -256 0 -62 11 -141 26 -182 4
-12 -14 0 -45 30 -95 92 -149 235 -138 370 7 82 25 140 70 213 l31 52 80 -80
80 -80 -36 -67z m-2873 186 c143 -6 262 -12 263 -14 2 -2 1 -13 -3 -24 -6 -20
-14 -21 -253 -23 l-247 -3 -5 -250 c-5 -245 -5 -250 -26 -253 -21 -3 -22 1
-28 150 -3 84 -9 215 -12 291 l-7 137 29 0 c16 0 146 -5 289 -11z m4791 -126
c-3 -76 -9 -207 -12 -291 -6 -149 -7 -153 -28 -150 -21 3 -21 8 -26 253 l-5
250 -247 3 c-239 2 -247 3 -253 23 -4 11 -5 22 -3 24 4 4 363 21 502 23 l79 2
-7 -137z m-3951 31 c138 -36 257 -68 265 -71 12 -3 15 -24 16 -106 0 -80 5
-114 22 -157 12 -30 18 -58 14 -62 -4 -3 -79 -47 -167 -96 -88 -49 -186 -104
-219 -122 l-58 -33 -20 24 c-40 51 -118 227 -138 313 -20 82 -29 275 -16 318
2 7 7 26 10 41 5 21 11 27 24 23 9 -3 130 -35 267 -72z m3091 49 c3 -16 8 -34
10 -41 13 -43 4 -236 -16 -318 -20 -86 -98 -262 -138 -313 l-20 -24 -58 33
c-33 18 -131 73 -219 122 -88 49 -163 93 -167 96 -4 4 2 32 14 62 17 43 22 77
22 157 l1 102 95 26 c174 48 455 123 462 124 4 1 10 -11 14 -26z m-3925 -115
c34 -72 137 -256 174 -313 l20 -30 -30 19 c-74 49 -209 125 -293 166 l-92 44
0 93 0 93 93 0 93 0 35 -72z m235 -85 c0 -115 5 -177 17 -227 10 -38 15 -71
13 -73 -14 -14 -235 356 -261 437 -6 19 -2 20 112 20 l118 0 1 -157z m4229
137 c-26 -81 -247 -451 -261 -437 -2 2 3 35 13 73 12 50 17 112 17 227 l1 157
118 0 c114 0 118 -1 112 -20z m225 -73 l0 -93 -92 -44 c-84 -41 -219 -117
-293 -166 l-30 -19 20 30 c37 57 140 241 174 313 l35 72 93 0 93 0 0 -93z
m-3101 -31 c42 -86 65 -193 57 -273 -8 -76 -40 -184 -64 -211 -15 -19 -22 -20
-77 -11 -74 12 -103 32 -135 95 -21 41 -25 62 -25 139 0 75 4 98 23 135 24 46
170 202 182 195 4 -2 21 -34 39 -69z m1516 -139 c36 -78 33 -186 -5 -261 -32
-63 -61 -83 -135 -95 -55 -9 -62 -8 -78 11 -9 11 -27 52 -39 92 -43 137 -24
298 49 424 l26 44 78 -78 c55 -54 86 -95 104 -137z m-716 123 c14 -96 38 -169
85 -256 l34 -65 -131 -109 c-73 -60 -136 -110 -142 -110 -5 0 -69 50 -142 110
l-131 109 34 65 c47 87 71 160 85 256 l11 80 143 0 143 0 11 -80z m-2434 -162
c126 -67 291 -175 282 -184 -2 -2 -33 2 -68 11 -85 20 -249 29 -326 17 l-63
-9 0 124 c0 148 -17 144 175 41z m4735 -41 l0 -124 -62 9 c-78 12 -242 3 -327
-17 -35 -9 -66 -14 -68 -11 -5 4 92 75 163 119 59 37 272 147 284 147 6 0 10
-47 10 -123z m-3455 -156 c36 -41 132 -105 183 -122 20 -6 41 -15 46 -20 5 -4
-6 -91 -25 -205 l-34 -196 -61 5 c-144 14 -337 100 -475 213 -69 56 -139 132
-139 150 0 5 40 30 88 56 48 26 148 81 222 122 l135 75 15 -22 c8 -12 29 -37
45 -56z m2360 -88 c71 -40 133 -73 137 -73 34 0 -34 -85 -131 -164 -138 -113
-331 -199 -475 -213 l-61 -5 -34 195 c-18 107 -30 200 -27 205 3 6 19 13 35
17 69 15 191 106 233 173 l20 32 86 -47 c48 -26 145 -80 217 -120z m-3550 107
c98 -11 242 -47 251 -62 3 -5 3 -20 0 -33 l-6 -23 -75 23 c-454 140 -950 -98
-1125 -539 -25 -64 -51 -167 -64 -251 -3 -16 -3 4 -1 45 5 91 27 179 71 282
47 110 95 181 188 276 177 182 369 267 656 291 8 0 56 -4 105 -9z m4665 -17
c98 -19 203 -60 293 -114 90 -55 234 -192 292 -279 85 -128 143 -294 150 -430
2 -41 2 -61 -1 -45 -53 347 -229 597 -519 736 -216 104 -449 123 -670 54 l-75
-23 -6 23 c-3 13 -3 28 0 33 8 14 152 51 237 61 87 11 195 5 299 -16z m-2620
-102 c63 -52 119 -98 123 -102 13 -11 -57 -83 -145 -149 -153 -116 -341 -184
-535 -197 -80 -5 -103 -3 -103 7 0 12 40 238 61 345 l9 50 59 -3 c119 -7 247
40 338 123 39 35 51 41 63 32 8 -7 67 -54 130 -106z m591 0 c74 -37 152 -54
230 -49 l59 3 9 -50 c21 -107 61 -333 61 -345 0 -20 -178 -5 -294 24 -123 32
-242 89 -343 165 -79 60 -139 117 -145 137 -2 6 57 61 131 122 l134 111 49
-44 c27 -24 76 -57 109 -74z m-2081 70 c12 -23 8 -24 -134 -42 -77 -10 -90 -9
-104 5 -9 8 -14 18 -11 21 7 6 165 33 206 34 22 1 35 -5 43 -18z m3420 4 c52
-9 96 -18 99 -21 3 -2 -2 -12 -11 -20 -14 -14 -27 -15 -104 -5 -142 18 -146
19 -134 42 13 23 28 23 150 4z m-3832 -68 c46 -13 87 -28 91 -33 6 -7 -10
-157 -18 -171 -1 -1 -28 9 -60 23 -73 29 -211 54 -300 54 -291 -2 -569 -163
-721 -420 -53 -88 -100 -235 -107 -329 -9 -120 -22 -119 -23 2 0 254 86 464
264 643 131 131 272 208 456 249 102 23 312 14 418 -18z m4510 17 c180 -37
325 -115 458 -248 178 -179 264 -388 264 -643 -1 -121 -14 -122 -23 -2 -7 94
-54 241 -107 329 -152 257 -430 418 -721 420 -89 0 -227 -25 -300 -54 -32 -14
-59 -24 -60 -23 -5 8 -25 164 -22 169 5 9 89 36 164 53 88 19 253 18 347 -1z
m-4348 -8 c9 -12 9 -37 -1 -113 -16 -128 -19 -138 -43 -120 -17 13 -18 20 -7
98 23 161 25 166 51 135z m3808 -48 c25 -149 26 -175 4 -187 -24 -13 -25 -10
-43 132 -8 68 -8 91 1 102 21 25 28 17 38 -47z m-3485 -16 c45 -66 161 -186
222 -229 34 -25 37 -23 -76 -51 l-77 -19 -168 168 c-92 93 -166 170 -164 173
7 6 128 23 176 25 39 1 42 -1 87 -67z m3304 57 c43 -7 80 -13 83 -16 2 -2 -72
-79 -164 -172 l-168 -168 -77 19 c-113 28 -110 26 -76 51 61 43 177 163 222
229 53 77 49 76 180 57z m-3416 -205 l166 -166 -19 -77 c-10 -42 -21 -82 -23
-89 -3 -8 -24 10 -53 45 -67 79 -146 152 -215 198 -45 30 -57 43 -57 64 0 42
23 191 29 191 3 0 81 -75 172 -166z m3537 84 c19 -133 20 -130 -45 -173 -69
-46 -148 -119 -215 -198 -29 -36 -50 -53 -53 -45 -2 7 -13 47 -23 88 l-19 75
166 168 c91 92 169 167 172 167 3 0 11 -37 17 -82z m-1828 -240 c0 -173 -5
-210 -26 -177 -4 8 -9 8 -17 0 -6 -6 -15 -11 -19 -11 -4 0 -8 84 -8 187 0 160
2 189 17 205 15 17 17 17 35 2 16 -15 18 -35 18 -206z m-2128 171 c70 -20 225
-95 267 -127 l23 -19 -121 -219 c-68 -120 -126 -222 -130 -226 -3 -4 -31 2
-61 14 -43 17 -77 22 -157 22 -57 1 -103 2 -103 2 0 1 -34 127 -75 280 -55
207 -71 280 -62 286 13 8 82 17 162 21 73 3 180 -11 257 -34z m4596 17 c15 -5
21 -13 18 -24 -6 -19 -146 -544 -146 -546 0 0 -46 -1 -103 -2 -80 0 -114 -5
-157 -22 -30 -12 -58 -18 -61 -14 -4 4 -62 106 -130 226 l-121 219 23 19 c42
32 197 107 267 128 38 11 99 23 137 27 73 8 233 1 273 -11z m-5048 -23 c0 -5
33 -131 74 -281 l73 -273 -71 -33 c-39 -18 -92 -52 -119 -76 -26 -23 -53 -40
-60 -37 -18 8 -381 316 -385 327 -5 14 50 91 115 160 66 72 195 160 284 194
68 26 89 31 89 19z m5176 -18 c91 -34 219 -121 287 -195 65 -69 120 -146 115
-160 -4 -11 -367 -319 -385 -327 -7 -3 -34 14 -60 37 -27 24 -80 58 -119 76
l-71 33 73 273 c41 150 74 276 74 281 0 12 16 8 86 -18z m-2686 -180 l0 -185
-62 -46 c-35 -25 -89 -59 -121 -75 -67 -34 -225 -89 -256 -89 -17 0 -44 34
-121 153 l-100 152 63 7 c194 22 381 99 522 216 33 28 63 51 68 51 4 1 7 -82
7 -184z m182 134 c148 -120 331 -195 525 -217 l63 -7 -100 -152 c-77 -119
-104 -153 -121 -153 -31 0 -189 55 -256 89 -32 16 -86 50 -120 75 l-63 46 0
185 c0 102 2 185 5 185 3 0 33 -23 67 -51z m-1326 -113 c97 -49 226 -90 316
-101 l57 -7 105 -162 105 -161 -47 -3 c-114 -8 -328 43 -449 106 -34 17 -105
80 -203 176 -82 82 -149 150 -147 151 2 2 155 42 168 44 3 1 46 -19 95 -43z
m2572 22 c48 -11 88 -22 89 -23 2 -1 -65 -69 -147 -151 -98 -96 -169 -159
-203 -176 -121 -63 -335 -114 -449 -106 l-47 3 104 160 104 160 73 12 c104 18
221 56 308 102 41 22 76 40 78 40 1 1 42 -9 90 -21z m-3101 -44 c106 -87 224
-269 272 -419 35 -110 53 -215 37 -220 -49 -15 -389 -66 -396 -59 -4 5 -13 26
-19 46 -25 77 -104 178 -179 228 l-22 15 111 200 c125 225 137 245 146 245 3
0 26 -16 50 -36z m3641 -190 l122 -219 -22 -15 c-75 -50 -154 -151 -179 -228
-6 -20 -15 -41 -19 -46 -7 -7 -347 44 -396 59 -15 5 -1 96 32 205 31 104 88
212 161 308 59 77 151 164 168 159 5 -2 65 -102 133 -223z m-3248 39 c154
-161 187 -211 233 -358 39 -123 62 -335 38 -335 -6 0 -79 45 -164 100 l-153
100 -12 76 c-15 98 -64 242 -108 321 l-34 62 22 90 c12 50 25 91 29 91 4 0 71
-66 149 -147z m2848 56 l22 -90 -34 -62 c-44 -79 -93 -223 -108 -321 l-12 -76
-153 -100 c-85 -55 -158 -100 -164 -100 -24 0 -1 212 38 335 46 147 79 197
233 358 78 81 145 147 149 147 4 0 17 -41 29 -91z m-2162 -141 c55 -83 101
-155 102 -160 2 -4 -7 -8 -20 -8 -19 0 -39 25 -108 132 -47 72 -93 144 -103
160 l-19 28 25 0 c21 0 40 -24 123 -152z m1427 124 c-10 -16 -56 -88 -103
-160 -69 -107 -89 -132 -108 -132 -13 0 -22 4 -20 8 2 5 47 77 102 160 83 128
102 152 123 152 l25 0 -19 -28z m-798 -124 c-13 -93 -54 -219 -105 -317 -49
-95 -146 -230 -165 -231 -8 0 -141 277 -173 360 -2 4 30 18 70 30 102 31 224
93 305 156 37 29 70 53 71 53 2 1 1 -23 -3 -51z m258 -96 c45 -22 115 -50 155
-62 40 -12 72 -26 70 -30 -32 -83 -165 -360 -173 -360 -19 1 -116 136 -165
231 -51 99 -92 224 -105 318 l-7 53 72 -55 c39 -30 108 -73 153 -95z m-3085
-37 l190 -160 -28 -35 c-16 -19 -107 -113 -203 -209 l-175 -173 -22 58 c-46
124 -55 174 -55 314 1 102 5 151 20 200 24 85 62 173 73 168 5 -1 95 -75 200
-163z m5926 113 c48 -111 60 -176 61 -318 0 -140 -9 -190 -56 -314 l-22 -59
-205 207 -205 207 34 28 c19 16 106 90 194 164 88 75 164 136 168 136 4 1 18
-23 31 -51z m-3028 -194 c34 -96 107 -222 176 -305 36 -43 55 -74 52 -84 -9
-23 -19 -19 -64 33 -65 72 -118 155 -167 258 -24 52 -46 94 -48 94 -2 0 -24
-42 -48 -94 -49 -103 -102 -186 -167 -258 -45 -52 -55 -57 -64 -32 -4 10 12
36 44 73 96 111 186 286 221 431 l13 55 13 -50 c8 -27 25 -82 39 -121z m-1116
96 c21 -11 78 -32 127 -47 81 -25 102 -27 269 -27 l181 -1 79 -174 c43 -95 81
-177 82 -182 6 -15 -108 -10 -203 10 -166 34 -182 45 -395 254 -105 103 -189
187 -185 187 3 0 23 -9 45 -20z m1990 -167 c-213 -209 -229 -220 -395 -254
-95 -20 -209 -25 -203 -10 2 5 39 87 82 182 l79 174 181 1 c167 0 188 2 269
27 49 15 105 36 125 47 21 10 41 19 45 20 5 0 -78 -84 -183 -187z m-3124 146
c91 -16 174 -62 243 -134 34 -35 61 -68 61 -74 0 -5 -21 0 -47 12 -36 16 -68
21 -128 21 -99 0 -163 -26 -247 -103 l-56 -51 -111 96 c-61 54 -111 100 -111
103 0 20 118 93 185 114 90 28 128 31 211 16z m1267 -184 c173 -180 185 -195
206 -256 41 -123 68 -337 42 -327 -5 2 -87 39 -182 82 l-174 79 0 181 c-1 168
-3 187 -28 269 -15 49 -37 107 -48 129 -11 22 -16 39 -11 37 6 -2 93 -90 195
-194z m2047 156 c-11 -22 -32 -79 -47 -128 -25 -82 -27 -101 -28 -269 l0 -181
-174 -79 c-95 -43 -177 -80 -182 -82 -27 -11 4 219 45 334 21 57 40 80 207
253 101 105 187 190 192 191 4 0 -2 -18 -13 -39z m1302 10 c53 -18 106 -48
158 -90 30 -24 38 -12 -108 -140 l-94 -82 -56 52 c-84 77 -148 103 -247 103
-60 0 -92 -5 -127 -21 -27 -12 -48 -17 -48 -12 0 6 27 39 60 73 126 131 296
174 462 117z m-2387 -178 c35 -77 124 -208 179 -264 l46 -46 -61 -139 c-34
-77 -66 -143 -70 -148 -12 -14 -32 14 -80 112 -22 45 -42 82 -44 82 -2 0 -22
-37 -44 -82 -48 -98 -68 -126 -80 -112 -4 5 -36 71 -70 148 l-61 139 46 46
c55 56 144 187 179 264 15 31 28 57 30 57 2 0 15 -26 30 -57z m-2542 -44 c51
-45 98 -88 106 -95 12 -10 12 -16 2 -28 -11 -13 -28 -2 -122 81 -108 95 -115
103 -102 116 13 14 26 5 116 -74z m5144 65 c2 -6 -46 -54 -106 -107 -95 -84
-111 -94 -122 -81 -11 14 -4 23 47 67 32 29 79 71 104 94 43 41 69 50 77 27z
m-5257 -54 c0 -3 -88 -95 -195 -205 -183 -188 -196 -199 -209 -181 -14 17 -2
32 176 216 168 174 194 197 210 187 10 -7 18 -14 18 -17z m661 15 c92 -33 122
-75 131 -180 3 -39 1 -41 -43 -63 -25 -12 -82 -30 -125 -39 -122 -25 -250 -1
-372 71 l-34 19 74 75 c94 96 165 132 259 132 37 0 86 -7 110 -15z m4169 -13
c25 -13 80 -58 122 -100 l77 -76 -32 -21 c-56 -37 -135 -65 -215 -77 -64 -9
-91 -8 -156 5 -43 9 -100 27 -125 39 -44 22 -46 24 -43 63 8 104 38 146 128
180 60 23 188 16 244 -13z m828 -385 c-5 -10 -14 -17 -21 -14 -6 2 -96 92
-200 200 -178 185 -189 198 -171 212 18 13 33 -1 210 -183 160 -165 190 -200
182 -215z m-6201 361 c-3 -7 -5 -2 -5 12 0 14 2 19 5 13 2 -7 2 -19 0 -25z
m6340 0 c-3 -7 -5 -2 -5 12 0 14 2 19 5 13 2 -7 2 -19 0 -25z m-6412 -14 c17
-4 26 -20 39 -62 9 -31 19 -61 21 -67 3 -6 -13 -9 -42 -7 -37 2 -61 -3 -103
-25 -49 -25 -67 -44 -105 -108 -10 -16 -17 -16 -110 9 -54 15 -101 29 -104 31
-9 9 35 91 69 129 86 95 208 132 335 100z m724 -58 c45 -38 80 -72 79 -75 0
-3 -92 -95 -202 -204 l-202 -197 -66 55 c-111 91 -119 68 103 295 107 108 197
196 201 196 3 -1 43 -32 87 -70z m5312 -121 c107 -108 196 -201 198 -206 3
-11 -75 -90 -125 -126 l-30 -22 -202 202 c-111 110 -199 204 -195 208 9 9 158
138 159 139 1 0 88 -88 195 -195z m611 180 c69 -17 121 -49 168 -101 34 -38
78 -120 69 -129 -3 -2 -50 -16 -104 -31 -93 -25 -100 -25 -110 -9 -38 64 -56
83 -105 108 -42 22 -66 27 -103 25 -29 -2 -45 1 -42 7 2 6 12 36 21 67 16 55
19 58 58 66 67 13 87 13 148 -3z m-4815 -127 c-13 -195 -82 -384 -196 -535
-59 -78 -117 -139 -137 -145 -6 -2 -61 57 -122 131 l-111 134 46 51 c82 91
128 218 121 337 l-3 59 35 7 c19 3 100 19 180 34 80 15 156 27 169 28 l24 1
-6 -102z m3028 67 c105 -19 190 -35 190 -35 0 0 -2 -27 -3 -59 -7 -119 39
-246 121 -337 l46 -51 -111 -134 c-61 -74 -116 -133 -122 -131 -20 6 -78 67
-137 145 -114 151 -183 340 -196 535 -5 84 -4 102 8 102 8 0 100 -16 204 -35z
m-2817 -95 c107 -69 132 -89 132 -108 0 -13 -4 -22 -8 -20 -5 2 -77 47 -160
102 -128 83 -152 102 -152 123 l0 25 28 -19 c16 -10 88 -56 160 -103z m2582
96 c0 -19 -26 -41 -152 -122 -83 -55 -155 -100 -160 -102 -4 -2 -8 7 -8 20 0
19 29 42 158 125 86 56 158 103 160 103 1 0 2 -11 2 -24z m-1927 -100 c40 -8
109 -18 154 -22 69 -5 83 -10 89 -26 3 -11 4 -21 2 -23 -8 -9 -194 16 -270 36
-44 11 -82 18 -85 16 -2 -3 5 -40 16 -83 11 -44 22 -99 25 -124 17 -142 17
-150 4 -150 -29 0 -37 19 -43 95 -8 97 -29 204 -54 278 l-19 55 55 -19 c30
-10 87 -25 126 -33z m1247 -2 c-26 -75 -47 -181 -55 -279 -6 -76 -14 -95 -43
-95 -10 0 -12 11 -8 43 3 23 8 67 11 97 3 30 15 90 26 134 11 43 18 80 16 83
-3 2 -42 -5 -87 -17 -73 -19 -260 -43 -268 -35 -2 2 -1 12 2 23 6 16 20 21 89
26 123 11 218 32 334 75 1 1 -7 -24 -17 -55z m-1922 -60 c109 -72 142 -98 142
-115 0 -31 -55 -189 -89 -256 -16 -32 -50 -86 -75 -120 l-46 -63 -185 0 c-102
0 -185 3 -185 6 0 3 20 29 44 57 121 143 205 344 223 529 4 45 9 65 17 61 6
-3 75 -48 154 -99z m2628 -89 c34 -145 107 -292 200 -402 24 -28 44 -54 44
-57 0 -3 -83 -6 -185 -6 l-185 0 -46 63 c-25 34 -59 88 -75 120 -34 67 -89
225 -89 256 0 17 34 44 153 122 l152 100 7 -63 c4 -35 14 -94 24 -133z m-4594
145 c14 0 57 -58 46 -63 -75 -37 -99 -67 -100 -125 0 -24 7 -53 17 -68 17 -26
17 -27 -23 -66 -38 -39 -40 -40 -68 -25 -121 63 -141 216 -40 305 20 17 49 34
64 38 15 3 32 7 37 9 6 2 19 2 30 0 11 -3 28 -5 37 -5z m6498 -15 c61 -32 100
-96 100 -165 0 -71 -39 -133 -104 -167 -28 -15 -30 -14 -68 25 -40 39 -40 40
-23 66 10 15 17 44 17 68 -1 58 -25 88 -100 125 -2 0 4 15 12 31 11 20 25 32
43 35 37 5 92 -3 123 -18z m-5665 -20 c89 -45 163 -65 246 -65 64 0 142 11
184 26 12 4 0 -14 -30 -45 -92 -95 -235 -149 -370 -138 -82 6 -140 25 -213 70
l-52 31 77 78 c43 43 80 78 83 78 3 0 37 -16 75 -35z m4854 -39 c84 -84 84
-85 3 -129 -181 -99 -415 -63 -558 85 -30 31 -41 48 -29 44 41 -15 120 -26
181 -26 86 0 155 18 238 61 39 20 76 37 81 38 6 0 44 -32 84 -73z m-4342 -16
c-8 -70 -59 -168 -119 -229 -125 -127 -349 -198 -549 -172 -92 12 -218 52
-277 88 -32 20 -32 20 -12 38 19 17 22 17 87 -12 132 -60 168 -68 303 -68 104
0 136 4 191 23 178 61 308 188 348 340 17 60 35 55 28 -8z m1318 24 c39 -8
109 -18 158 -21 48 -3 87 -7 87 -8 0 0 29 -66 65 -145 l65 -143 -74 6 -74 7 5
-76 6 -75 -79 36 c-43 20 -109 50 -145 66 l-66 31 -6 86 c-5 82 -27 204 -43
246 -6 16 -4 18 12 12 10 -4 51 -14 89 -22z m1140 9 c-15 -41 -37 -164 -42
-245 l-6 -86 -66 -31 c-36 -16 -102 -46 -145 -66 l-79 -36 6 75 5 76 -74 -7
-74 -6 65 143 c36 79 65 145 65 147 0 2 24 3 53 3 56 0 227 26 262 41 31 12
38 10 30 -8z m1246 -25 c40 -152 170 -279 348 -340 55 -19 87 -23 191 -23 135
0 171 8 303 68 65 29 68 29 87 12 20 -18 20 -18 -12 -38 -59 -36 -185 -76
-277 -88 -200 -26 -424 45 -549 172 -60 61 -111 159 -119 229 -7 63 11 68 28
8z m-5318 -64 c13 -4 17 -16 17 -50 0 -25 9 -62 20 -84 20 -38 76 -90 98 -90
7 0 12 -2 12 -4 0 -12 -107 -106 -120 -106 -26 0 -115 57 -150 96 -61 70 -101
191 -85 262 l6 30 92 -24 c51 -14 100 -27 110 -30z m351 21 l20 -36 -49 -49
c-27 -28 -52 -50 -56 -50 -10 0 -29 49 -29 76 0 28 58 94 82 94 7 0 22 -16 32
-35z m6282 1 c21 -21 34 -44 34 -60 0 -27 -19 -76 -29 -76 -4 0 -29 22 -56 50
l-49 49 20 36 c10 19 25 35 32 35 8 0 29 -15 48 -34z m479 -66 c-7 -67 -41
-143 -85 -194 -35 -39 -124 -96 -150 -96 -13 0 -120 94 -120 106 0 2 5 4 12 4
22 0 78 52 98 90 11 22 20 59 20 84 0 51 -13 43 150 86 64 16 65 16 73 -4 5
-12 6 -46 2 -76z m-5589 15 c-62 -105 -148 -171 -286 -218 -153 -54 -307 -41
-488 39 l-56 25 79 79 78 79 28 -20 c15 -11 58 -34 96 -51 60 -28 81 -33 170
-36 83 -4 115 0 171 17 68 20 170 80 207 121 29 32 30 15 1 -35z m3982 -54
c78 -40 149 -53 256 -49 88 3 110 8 169 36 38 17 81 40 96 51 l28 20 78 -79
79 -79 -56 -25 c-118 -52 -197 -70 -303 -70 -194 2 -366 87 -456 227 -22 33
-39 64 -39 69 0 4 25 -12 55 -37 31 -25 73 -54 93 -64z m-5094 16 c9 -14 -23
-51 -207 -235 l-217 -217 215 -215 c118 -118 215 -220 215 -226 0 -6 -7 -17
-15 -24 -16 -13 -12 -17 -354 305 -87 83 -160 153 -160 156 -2 14 491 480 503
476 5 -2 14 -11 20 -20z m6277 -134 c230 -220 329 -315 329 -318 0 -3 -110
-110 -330 -318 -90 -87 -169 -156 -174 -154 -5 2 -14 11 -20 20 -9 14 23 51
207 235 l217 217 -215 215 c-118 118 -215 220 -215 225 0 12 20 35 30 35 3 0
80 -71 171 -157z m-4097 62 c97 -44 176 -84 176 -90 -1 -19 -136 -116 -231
-165 -99 -51 -224 -92 -318 -105 l-53 -7 55 72 c64 84 126 206 157 308 12 40
26 72 30 70 4 -2 87 -39 184 -83z m1936 13 c31 -102 93 -224 157 -308 l55 -72
-53 7 c-94 13 -219 54 -318 105 -95 49 -230 146 -231 165 0 8 337 171 362 174
3 1 16 -32 28 -71z m-994 -95 c25 -33 25 -35 11 -71 -31 -75 -87 -192 -92
-192 -5 0 -61 116 -91 191 -15 36 -15 37 24 93 22 30 45 69 52 86 l13 31 28
-52 c16 -28 41 -67 55 -86z m-3051 76 c22 -23 57 -54 77 -69 l37 -27 -88 -87
-88 -87 -49 37 c-27 20 -64 50 -82 67 l-32 31 87 88 c48 48 90 88 93 88 3 0
24 -19 45 -41z m6078 -47 l87 -88 -32 -31 c-18 -17 -55 -47 -82 -67 l-49 -37
-88 87 -88 87 37 27 c20 15 55 46 77 69 21 22 42 41 45 41 3 0 45 -40 93 -88z
m-6706 -77 c-2 -5 -65 -64 -140 -130 l-137 -120 47 -40 c94 -79 233 -207 233
-214 0 -4 -6 -15 -12 -24 -12 -15 -23 -8 -108 68 -52 47 -130 111 -172 142
-42 32 -77 63 -78 68 0 6 8 15 18 21 31 20 164 129 247 203 72 65 81 70 93 54
7 -9 11 -22 9 -28z m7387 -101 c52 -45 113 -95 135 -110 22 -16 40 -33 40 -39
0 -5 -35 -36 -77 -68 -42 -31 -120 -95 -172 -142 -85 -76 -96 -83 -107 -68 -7
9 -13 20 -13 24 0 7 142 137 233 214 l48 40 -124 107 c-160 139 -162 141 -147
168 11 21 12 21 50 -12 21 -18 81 -70 134 -114z m-4414 126 c32 -22 -137 -152
-296 -227 -52 -24 -94 -46 -94 -48 0 -2 42 -24 94 -48 103 -49 186 -102 259
-167 51 -45 55 -55 32 -64 -10 -3 -41 16 -84 52 -115 96 -261 170 -426 215
l-50 13 71 18 c141 35 316 127 419 220 56 50 54 50 75 36z m1339 -48 c115 -96
260 -170 426 -215 l50 -13 -55 -13 c-145 -35 -320 -125 -431 -221 -37 -32 -63
-48 -73 -44 -25 9 -20 19 32 64 72 65 155 118 258 167 52 24 94 46 94 48 0 2
-42 24 -94 48 -108 51 -190 105 -261 171 -41 37 -47 47 -35 56 8 5 16 10 18
10 1 0 33 -26 71 -58z m-2562 -129 c41 -51 73 -98 70 -105 -3 -7 -53 -70 -111
-141 l-106 -127 -40 25 c-76 48 -196 88 -302 100 l-58 7 0 143 0 143 63 7 c82
9 198 47 272 89 l60 33 38 -41 c22 -22 73 -82 114 -133z m3918 136 c85 -44
179 -74 263 -84 l62 -7 0 -143 0 -143 -57 -7 c-108 -12 -227 -52 -303 -100
l-40 -25 -107 130 c-60 72 -108 137 -108 145 0 15 206 275 215 272 3 -1 37
-18 75 -38z m-2232 21 c26 0 32 -8 78 -106 27 -59 48 -109 46 -111 -2 -2 -52
19 -111 46 -104 49 -106 51 -106 84 0 19 -3 49 -7 67 l-6 33 39 -6 c21 -4 52
-7 67 -7z m423 -21 c-3 -17 -6 -47 -6 -66 0 -33 -2 -35 -106 -84 -59 -27 -109
-48 -111 -46 -2 2 19 52 46 110 l49 106 44 4 c98 8 91 10 84 -24z m-3015 -14
c89 -42 170 -63 267 -72 l72 -6 0 -63 0 -64 -332 0 -333 0 120 120 c66 66 123
120 126 120 4 0 40 -16 80 -35z m2277 -14 c59 -27 124 -56 145 -64 20 -9 37
-20 37 -24 0 -11 -91 -66 -152 -92 -27 -11 -48 -22 -48 -25 0 -2 37 -23 83
-45 97 -48 125 -68 111 -80 -5 -4 -71 -35 -146 -69 l-137 -60 -48 44 c-61 57
-193 146 -266 179 -31 15 -57 28 -57 30 0 2 26 15 57 30 78 35 209 125 263
179 25 25 46 45 48 46 1 0 51 -22 110 -49z m1112 3 c54 -54 185 -144 263 -179
31 -15 57 -28 57 -30 0 -2 -26 -15 -57 -30 -73 -33 -205 -122 -266 -179 l-48
-44 -137 60 c-75 34 -141 65 -146 69 -14 12 14 32 112 80 45 22 82 43 82 45 0
3 -21 14 -47 25 -62 26 -153 81 -153 92 0 4 21 17 48 28 26 11 90 40 142 64
52 24 97 44 100 44 3 0 25 -20 50 -45z m2325 -74 l120 -120 -333 0 -332 0 0
64 0 63 73 6 c96 9 177 31 262 72 39 18 75 34 80 34 6 1 64 -53 130 -119z
m-6492 76 c18 -14 44 -29 60 -35 15 -6 27 -14 27 -19 0 -16 -104 -97 -120 -94
-8 2 -41 15 -73 29 l-58 26 58 59 c31 32 61 58 66 58 5 0 23 -11 40 -24z
m7170 -34 l58 -59 -58 -26 c-32 -14 -65 -27 -73 -29 -15 -3 -120 78 -120 93 0
4 20 17 44 29 24 11 50 28 56 36 20 23 33 17 93 -44z m-6779 -19 c39 -31 75
-60 80 -65 5 -4 -7 -25 -27 -48 -21 -22 -37 -42 -37 -45 0 -3 16 -23 37 -45
20 -23 32 -44 27 -48 -5 -5 -42 -34 -82 -67 l-73 -58 -110 109 -109 109 107
107 c59 60 109 108 112 108 2 0 36 -26 75 -57z m6469 -51 l107 -107 -109 -109
-110 -109 -73 58 c-40 33 -77 62 -82 67 -5 4 7 25 27 48 21 22 37 42 37 45 0
3 -17 23 -37 46 l-37 41 27 20 c15 11 51 40 80 64 28 24 54 44 57 44 3 0 54
-48 113 -108z m-6989 -32 c32 -17 65 -30 72 -30 18 0 18 -15 -1 -30 -14 -12
-14 -15 0 -30 19 -21 19 -30 1 -30 -7 0 -39 -13 -71 -29 l-58 -30 -59 52 -60
51 59 53 c32 29 58 52 58 52 0 1 27 -13 59 -29z m3508 -16 c57 -25 107 -50
112 -54 8 -8 -78 -53 -185 -96 -36 -15 -37 -15 -93 24 -30 22 -69 45 -86 52
l-31 13 52 29 c29 15 66 39 83 53 17 13 34 24 38 25 5 0 54 -21 110 -46z m452
21 c18 -14 57 -38 85 -54 l52 -28 -31 -13 c-17 -7 -56 -30 -86 -52 -56 -39
-57 -39 -93 -24 -107 43 -193 88 -185 96 10 9 204 99 217 99 5 1 23 -10 41
-24z m3479 -28 l59 -53 -60 -51 -59 -52 -58 30 c-32 16 -64 29 -71 29 -18 0
-18 9 1 30 14 15 14 18 0 30 -22 18 -19 28 13 35 15 3 46 17 67 30 22 13 42
24 45 24 3 0 31 -23 63 -52z m-5093 -25 c0 -4 -5 -13 -11 -19 -8 -8 -8 -13 0
-17 33 -21 -4 -26 -176 -26 -160 0 -189 2 -205 17 -17 15 -17 17 -2 35 15 16
35 18 206 18 103 0 188 -4 188 -8z m3022 -9 c17 -15 17 -17 2 -35 -15 -16 -35
-18 -206 -18 -103 0 -188 4 -188 8 0 4 5 13 11 19 8 8 8 13 0 17 -33 21 4 26
176 26 160 0 189 -2 205 -17z m-4124 -95 l-3 -63 -70 -8 c-100 -11 -179 -32
-268 -74 l-78 -37 -122 122 -122 122 333 0 333 0 -3 -62z m742 -5 c162 -178
252 -386 267 -620 5 -86 4 -103 -8 -103 -8 0 -100 16 -203 35 -104 19 -189 35
-190 35 0 0 1 27 2 59 7 119 -39 246 -121 337 l-46 50 112 137 c62 75 115 137
119 137 3 0 34 -30 68 -67z m476 56 c160 -28 361 -123 478 -226 20 -18 36 -36
36 -40 0 -6 -291 -144 -360 -171 -4 -2 -18 30 -30 70 -30 101 -93 223 -156
307 -30 39 -48 71 -41 71 7 0 40 -5 73 -11z m2430 -60 c-63 -84 -126 -206
-156 -307 -12 -40 -26 -72 -30 -70 -69 27 -360 165 -360 171 0 4 16 22 36 40
112 99 299 190 454 222 118 24 118 25 56 -56z m632 -68 l111 -134 -46 -51
c-82 -91 -128 -218 -121 -337 1 -32 2 -59 2 -59 -1 0 -86 -16 -190 -35 -103
-19 -195 -35 -203 -35 -12 0 -13 17 -7 103 11 176 64 338 155 478 52 79 168
212 181 207 5 -2 58 -63 118 -137z m1095 17 l-122 -122 -78 37 c-89 42 -168
63 -268 74 l-70 8 -3 63 -3 62 333 0 333 0 -122 -122z m-2864 -94 c12 -29 10
-35 -27 -87 -22 -31 -45 -70 -52 -87 l-13 -31 -28 52 c-16 28 -41 67 -55 86
-16 21 -23 40 -19 51 3 9 27 64 53 121 l46 103 41 -88 c23 -49 47 -103 54
-120z m-129 192 c0 -2 -22 -51 -49 -108 l-49 -105 -63 -6 c-35 -3 -65 -5 -66
-4 -1 1 1 31 4 66 l6 63 101 48 c99 47 116 54 116 46z m182 -45 l105 -49 6
-63 c3 -35 5 -65 4 -66 -1 -1 -31 1 -66 4 l-63 6 -49 105 c-49 105 -52 112
-45 112 2 0 51 -22 108 -49z m-3592 -72 c0 -5 -11 -14 -25 -19 -13 -5 -43 -21
-65 -36 l-41 -27 -60 59 -59 59 37 19 c21 11 54 25 73 32 33 12 36 11 87 -33
29 -25 53 -49 53 -54z m2206 39 c25 -35 61 -92 79 -128 35 -69 85 -218 85
-251 0 -15 -40 -46 -152 -119 l-153 -100 -7 63 c-10 94 -36 193 -75 287 -36
89 -122 228 -167 269 -14 14 -26 28 -26 33 0 4 83 8 185 8 l185 0 46 -62z
m2894 54 c0 -5 -12 -19 -26 -33 -45 -41 -131 -180 -167 -269 -39 -94 -65 -193
-75 -287 l-7 -63 -152 100 c-113 73 -153 104 -153 119 0 33 50 182 85 251 18
36 54 93 79 128 l46 62 185 0 c102 0 185 -4 185 -8z m1993 -33 l47 -24 -59
-59 -60 -59 -49 32 c-27 17 -54 31 -60 31 -32 0 -21 27 28 70 60 53 65 53 153
9z m-6526 -197 c-12 -8 -48 -40 -80 -71 l-57 -55 -90 89 -90 89 23 24 c12 13
49 44 81 68 l59 45 88 -87 c87 -86 88 -88 66 -102z m6018 104 l56 -51 -90 -89
-90 -89 -71 66 c-39 37 -76 67 -82 67 -7 0 28 40 77 90 l89 89 27 -16 c16 -9
53 -40 84 -67z m-3428 -30 l-5 -74 74 5 75 6 -36 -79 c-20 -43 -50 -109 -66
-145 l-31 -66 -97 -6 c-53 -4 -130 -15 -171 -26 -41 -10 -76 -18 -78 -17 -1 2
2 16 8 32 16 48 40 203 40 259 l0 53 143 65 c78 36 144 66 146 66 2 1 1 -32
-2 -73z m860 -56 c2 0 3 -24 3 -54 0 -57 24 -212 40 -260 6 -16 9 -30 8 -32
-2 -1 -37 6 -78 17 -41 10 -119 22 -172 25 l-96 7 -31 66 c-16 36 -46 102 -66
145 l-36 79 75 -6 74 -5 -5 74 -6 74 144 -65 c78 -36 144 -65 146 -65z m-2813
84 c99 -25 219 -89 279 -149 63 -63 115 -163 124 -235 7 -63 -11 -68 -28 -7
-44 166 -197 302 -399 353 -133 34 -309 8 -462 -67 -46 -22 -48 -22 -68 -4
l-20 18 27 19 c43 27 185 76 255 87 79 12 213 5 292 -15z m4762 15 c81 -11
220 -57 267 -87 l27 -19 -20 -18 c-20 -18 -22 -18 -68 4 -153 75 -329 101
-462 67 -202 -51 -355 -187 -399 -353 -17 -61 -35 -56 -28 7 14 116 110 247
230 314 144 80 291 108 453 85z m-5878 -60 c55 -53 59 -59 40 -59 -22 0 -78
-52 -98 -90 -11 -22 -20 -59 -20 -84 0 -34 -4 -46 -17 -50 -10 -3 -59 -16
-110 -30 l-92 -24 -6 29 c-17 76 32 215 96 276 39 36 117 83 139 83 8 0 39
-23 68 -51z m6833 31 c121 -62 209 -224 184 -339 l-6 -29 -92 24 c-51 14 -100
27 -109 30 -14 4 -18 16 -18 50 0 25 -9 62 -20 84 -20 38 -76 90 -98 90 -7 0
-12 2 -12 4 0 11 106 106 118 106 7 0 31 -9 53 -20z m-5691 -67 c126 -42 211
-103 271 -196 22 -33 39 -64 39 -69 0 -4 -25 12 -55 37 -102 83 -198 117 -329
117 -97 -1 -181 -25 -261 -77 l-52 -33 -79 79 -78 78 55 24 c72 32 149 57 207
67 73 13 198 1 282 -27z m4797 6 c37 -12 92 -32 122 -45 l55 -25 -79 -79 -78
-79 -26 18 c-89 63 -183 93 -292 93 -126 0 -223 -35 -324 -117 -30 -25 -55
-41 -55 -37 0 5 17 36 39 69 56 86 134 146 249 189 126 48 261 52 389 13z
m-5017 -427 c3 -2 -9 -16 -26 -30 -17 -15 -56 -48 -86 -74 l-55 -48 -188 190
c-104 104 -193 197 -198 206 -11 19 13 47 93 110 l55 44 200 -198 c109 -108
202 -199 205 -200z m1835 346 c-14 -124 -17 -147 -36 -222 -11 -43 -18 -80
-16 -83 3 -2 40 5 83 17 75 19 264 44 272 35 2 -2 1 -13 -3 -24 -5 -16 -15
-21 -43 -21 -65 0 -225 -28 -304 -53 l-76 -24 19 54 c25 74 46 181 54 278 6
76 14 95 43 95 9 0 11 -13 7 -52z m522 0 c18 -29 41 -74 52 -100 11 -27 23
-48 26 -48 3 0 15 21 26 48 26 61 81 152 92 152 4 0 15 -17 24 -37 8 -21 37
-86 64 -145 l48 -106 -45 -49 c-57 -61 -146 -193 -179 -266 -15 -31 -28 -57
-30 -57 -2 0 -15 26 -30 57 -33 73 -122 205 -179 266 l-45 49 48 106 c27 59
56 124 64 145 9 20 20 37 24 37 5 0 23 -24 40 -52z m710 44 c6 -4 14 -43 18
-87 8 -97 29 -204 54 -278 l19 -54 -76 24 c-79 25 -239 53 -304 53 -28 0 -38
5 -43 21 -4 11 -5 22 -3 24 8 9 197 -16 272 -35 43 -12 80 -19 83 -17 2 3 -5
40 -16 83 -19 75 -22 98 -36 222 -6 53 2 63 32 44z m2328 -92 c20 -21 36 -43
34 -49 -2 -6 -91 -98 -198 -205 l-194 -196 -55 48 c-30 26 -68 58 -84 72 l-29
25 202 202 203 201 42 -30 c23 -16 58 -47 79 -68z m-6201 51 c37 -38 38 -39
21 -65 -23 -35 -21 -103 3 -135 15 -21 47 -43 80 -57 1 -1 -3 -13 -9 -28 -22
-48 -119 -54 -184 -12 -89 58 -112 190 -48 267 24 28 79 69 93 69 3 0 23 -18
44 -39z m6555 25 c154 -80 123 -308 -46 -347 -54 -12 -107 4 -122 37 -6 15
-10 27 -9 28 33 14 65 36 80 57 24 32 26 100 3 135 -17 26 -16 27 21 65 21 21
40 39 42 39 1 0 16 -7 31 -14z m-3989 -60 c0 -67 -23 -190 -52 -276 -20 -61
-31 -75 -207 -255 -101 -104 -189 -192 -194 -194 -5 -2 1 15 12 37 11 22 33
80 48 129 25 82 27 101 28 269 l0 181 175 80 c96 45 178 82 183 82 4 1 7 -23
7 -53z m1541 -30 l174 -79 0 -181 c1 -168 3 -187 28 -269 15 -49 37 -107 48
-129 11 -22 17 -39 12 -37 -5 2 -93 90 -194 194 -176 180 -187 194 -207 255
-42 124 -69 338 -43 328 5 -1 87 -39 182 -82z m-3996 -46 l49 -49 -20 -36
c-10 -19 -25 -35 -32 -35 -24 0 -82 66 -82 94 0 27 19 76 29 76 4 0 29 -22 56
-50z m958 35 c83 -22 153 -60 214 -118 29 -27 52 -51 51 -53 -2 -1 -30 4 -63
12 -131 30 -265 12 -388 -54 l-67 -36 -77 76 c-86 86 -86 87 -5 131 101 55
226 71 335 42z m4572 0 c61 -16 147 -58 167 -82 9 -12 -3 -29 -65 -91 l-77
-76 -67 36 c-123 66 -257 84 -388 54 -33 -8 -61 -13 -63 -12 -1 2 22 26 51 53
120 114 287 158 442 118z m803 -10 c20 -44 14 -75 -22 -111 -19 -19 -40 -34
-48 -34 -7 0 -22 16 -32 35 l-20 36 49 49 c27 28 52 50 56 50 3 0 11 -11 17
-25z m-6021 -231 c103 -108 189 -199 191 -202 1 -4 -6 -12 -16 -19 -16 -10
-42 13 -209 186 -156 161 -189 200 -181 214 5 9 13 17 18 17 4 0 93 -88 197
-196z m5851 179 c8 -14 -25 -53 -181 -214 -167 -173 -193 -196 -209 -186 -10
7 -17 15 -16 19 6 13 380 398 388 398 5 0 13 -8 18 -17z m-5708 -433 l18 -25
-190 -160 c-105 -88 -195 -162 -200 -163 -11 -5 -49 83 -73 168 -15 49 -19 98
-20 200 0 140 9 190 55 314 l22 58 185 -183 c101 -101 193 -195 203 -209z
m5775 290 c65 -192 57 -412 -23 -593 -12 -26 -24 -47 -27 -47 -5 0 -332 270
-389 321 -6 5 77 96 194 214 162 162 206 202 213 190 5 -9 19 -47 32 -85z
m-6507 29 c40 -63 117 -103 188 -97 27 2 42 -1 40 -7 -3 -5 -13 -36 -22 -67
l-17 -57 -53 -11 c-102 -21 -225 21 -299 102 -40 43 -83 123 -72 134 5 6 171
51 193 53 6 1 25 -22 42 -50z m2342 29 c0 -18 -27 -41 -132 -108 -72 -47 -144
-94 -160 -104 l-30 -19 4 27 c2 22 29 43 153 125 83 55 153 100 158 100 4 1 7
-9 7 -21z m2298 -82 c128 -83 152 -102 152 -123 l0 -25 -28 19 c-16 10 -88 56
-160 103 -107 69 -132 89 -132 108 0 13 4 22 8 20 5 -1 77 -47 160 -102z
m2310 80 c52 -14 96 -27 99 -30 11 -11 -32 -91 -72 -134 -74 -81 -197 -123
-299 -102 l-53 11 -17 57 c-9 31 -19 62 -22 67 -2 6 13 9 40 7 71 -6 148 34
188 97 17 28 34 51 37 51 3 0 48 -11 99 -24z m-5476 -46 c36 -11 75 -28 86
-38 19 -15 20 -22 11 -77 -12 -74 -32 -103 -95 -135 -36 -19 -68 -26 -125 -29
-108 -4 -170 24 -273 128 l-78 78 37 22 c137 80 286 98 437 51z m4190 -1 c34
-11 82 -32 106 -46 l44 -26 -74 -75 c-94 -96 -165 -132 -259 -132 -116 0 -210
49 -228 118 -5 20 -11 55 -13 77 -3 39 -1 41 43 63 109 54 259 63 381 21z
m-2472 -46 c65 -73 118 -156 167 -259 24 -52 46 -94 48 -94 2 0 24 42 48 94
49 103 102 186 167 259 45 51 55 56 64 31 4 -10 -12 -36 -44 -73 -96 -111
-186 -286 -221 -431 l-13 -55 -13 50 c-45 166 -119 311 -215 426 -36 43 -55
74 -52 84 9 23 19 19 64 -32z m-840 -12 c0 -79 -20 -199 -47 -286 -46 -147
-73 -188 -232 -350 -80 -82 -148 -151 -151 -153 -3 -1 -16 38 -28 87 l-22 90
41 78 c46 91 85 208 102 311 l12 73 150 99 c83 54 156 99 163 99 8 1 12 -15
12 -48z m2284 -51 l154 -101 7 -57 c11 -90 52 -219 100 -315 l44 -89 -21 -89
c-12 -49 -25 -88 -28 -87 -3 2 -71 71 -152 153 -157 162 -185 204 -231 350
-39 125 -62 335 -37 335 6 0 79 -45 164 -100z m-1556 41 c-1 -5 -39 -87 -83
-183 l-79 -175 -141 5 c-157 5 -254 -9 -373 -54 -37 -14 -76 -28 -87 -31 -11
-4 65 77 168 178 209 204 227 216 387 250 91 19 214 25 208 10z m131 -111 c50
-71 113 -198 139 -280 19 -60 42 -166 42 -197 0 -7 -32 11 -71 41 -83 63 -206
126 -306 156 -40 12 -73 23 -73 25 0 1 29 65 64 141 35 77 73 161 85 188 l21
50 30 -35 c17 -19 48 -59 69 -89z m576 -65 c42 -93 79 -175 82 -181 2 -7 -25
-20 -69 -34 -101 -30 -223 -93 -307 -156 -39 -30 -71 -48 -71 -41 0 107 86
338 173 467 46 67 101 129 108 122 4 -4 42 -83 84 -177z m150 166 c165 -34
182 -45 392 -250 103 -101 179 -182 168 -178 -11 3 -50 17 -87 31 -119 45
-216 59 -373 54 l-141 -5 -79 175 c-44 96 -81 178 -83 183 -6 15 108 10 203
-10z m-2950 -78 c-16 -14 -65 -57 -108 -95 -51 -46 -83 -68 -93 -64 -9 3 -14
11 -12 17 2 6 51 53 108 104 93 82 107 91 120 78 13 -13 12 -17 -15 -40z
m5055 -145 c0 -5 -7 -11 -15 -14 -9 -4 -44 21 -92 64 -43 38 -91 81 -108 95
-25 21 -27 27 -16 41 11 13 26 4 122 -81 60 -53 109 -100 109 -105z m-4951
100 c83 -76 147 -102 246 -102 60 0 92 5 128 21 26 12 47 17 47 12 0 -16 -91
-109 -138 -141 -106 -73 -258 -93 -382 -50 -62 21 -182 99 -177 115 2 7 209
195 216 196 2 1 29 -22 60 -51z m706 21 c99 -17 185 -32 191 -34 32 -9 -41
-267 -110 -388 -82 -143 -231 -306 -258 -279 -6 6 -64 106 -129 224 l-119 213
22 14 c73 47 160 167 192 264 7 22 1 22 211 -14z m3431 14 c32 -97 119 -217
192 -264 l22 -14 -119 -213 c-65 -118 -123 -218 -129 -224 -27 -27 -176 136
-258 279 -49 87 -100 233 -110 318 -4 30 -7 58 -8 62 -1 7 326 69 377 72 18 1
30 -5 33 -16z m665 -80 c60 -53 109 -99 109 -102 0 -3 -26 -25 -58 -48 -143
-106 -333 -116 -488 -27 -43 25 -154 135 -154 153 0 5 21 0 48 -12 74 -33 189
-31 265 6 31 16 81 51 110 77 28 27 53 49 55 50 2 0 53 -44 113 -97z m-5654
-5 c-3 -7 -5 -2 -5 12 0 14 2 19 5 13 2 -7 2 -19 0 -25z m6340 0 c-3 -7 -5 -2
-5 12 0 14 2 19 5 13 2 -7 2 -19 0 -25z m-6333 -121 c7 -98 54 -240 108 -331
49 -84 172 -214 252 -268 216 -147 497 -186 740 -102 39 14 75 26 80 27 5 1
15 -34 21 -78 15 -96 17 -94 -98 -126 -118 -34 -346 -34 -462 -1 -261 75 -477
258 -586 497 -53 118 -71 198 -75 350 -5 149 8 171 20 32z m6343 -52 c-6 -130
-27 -221 -76 -330 -109 -239 -325 -423 -586 -497 -67 -19 -105 -23 -230 -23
-128 0 -162 4 -232 23 -115 33 -113 31 -98 127 6 44 16 79 21 78 5 -1 41 -13
80 -27 243 -84 524 -45 740 102 80 54 203 184 252 268 52 87 99 229 107 319
15 169 30 141 22 -40z m-5694 -19 c33 -19 72 -38 89 -41 18 -4 28 -12 25 -20
-7 -17 -147 -541 -147 -549 0 -11 -21 -6 -88 20 -93 37 -219 122 -285 194 -64
69 -120 146 -115 160 2 5 91 83 198 174 l195 164 35 -33 c19 -19 61 -50 93
-69z m5362 -75 c94 -79 174 -148 179 -155 22 -31 -130 -202 -248 -280 -97 -64
-236 -123 -236 -100 0 7 -140 532 -146 549 -3 7 11 16 34 23 46 14 147 78 181
116 24 26 25 26 45 7 12 -10 98 -82 191 -160z m-3475 70 c0 -6 -45 -79 -100
-164 l-100 -153 -76 -12 c-98 -15 -242 -64 -321 -108 l-62 -34 -90 22 c-50 12
-91 25 -91 29 0 4 69 72 153 151 165 158 209 186 357 232 125 39 330 61 330
37z m1426 -2 c43 -6 114 -22 159 -36 144 -45 188 -74 353 -231 83 -79 152
-147 152 -151 0 -4 -41 -17 -91 -29 l-90 -22 -62 34 c-79 44 -223 93 -321 108
l-76 12 -100 153 c-55 85 -100 158 -100 164 0 12 81 11 176 -2z m-3981 -171
c26 -99 105 -255 174 -340 123 -153 311 -272 506 -319 129 -32 306 -30 430 3
50 14 98 28 107 32 13 6 19 2 24 -18 3 -13 3 -29 0 -34 -10 -16 -155 -51 -251
-61 -100 -10 -231 0 -328 25 -373 96 -671 447 -692 814 -4 74 -4 74 5 18 5
-31 16 -85 25 -120z m2633 164 c-1 -5 -47 -77 -102 -160 -83 -128 -102 -152
-123 -152 l-25 0 19 28 c10 16 56 88 103 160 69 107 89 132 108 132 13 0 22
-4 20 -8z m1222 -124 c47 -72 93 -144 103 -160 l19 -28 -25 0 c-21 0 -40 24
-123 152 -55 83 -100 155 -102 160 -2 4 7 8 20 8 19 0 39 -25 108 -132z m2537
60 c-32 -376 -323 -716 -694 -812 -97 -25 -228 -35 -328 -25 -96 10 -241 45
-251 61 -3 5 -3 21 0 34 5 20 11 24 24 18 9 -4 58 -18 107 -32 124 -33 301
-35 430 -3 271 66 498 249 616 496 48 99 89 239 89 303 0 17 3 32 6 32 4 0 4
-33 1 -72z m-5139 -168 l124 -223 -23 -19 c-13 -10 -69 -41 -124 -68 -132 -65
-245 -92 -384 -91 -93 1 -175 11 -187 23 -2 2 30 129 71 282 41 153 75 279 75
280 0 0 46 1 103 2 79 0 113 5 152 21 28 12 54 20 59 19 5 -1 65 -103 134
-226z m1534 204 c104 -33 195 -78 276 -138 l62 -46 0 -185 c0 -102 -4 -185 -8
-185 -5 0 -19 12 -33 26 -41 45 -180 131 -269 167 -95 39 -193 65 -288 75
l-63 7 100 153 c74 112 105 152 120 152 11 0 57 -12 103 -26z m1009 -126 l100
-153 -63 -7 c-95 -10 -193 -36 -288 -75 -89 -36 -228 -122 -269 -167 -14 -14
-28 -26 -33 -26 -4 0 -8 83 -8 185 l0 185 63 46 c34 25 89 60 122 77 68 34
218 86 253 87 19 0 41 -28 123 -152z m1499 130 c43 -17 76 -22 157 -22 57 -1
103 -2 103 -2 0 -1 34 -127 75 -280 41 -153 73 -280 71 -282 -12 -12 -94 -22
-187 -23 -139 -1 -252 26 -384 91 -55 27 -111 58 -124 68 l-24 19 103 184
c119 214 150 269 153 269 1 0 27 -10 57 -22z m-3643 -311 l22 -82 -167 -167
c-92 -93 -170 -168 -173 -168 -6 0 -29 148 -29 191 0 20 14 35 70 73 68 47
240 218 240 239 0 27 17 -12 37 -86z m1519 82 c4 -8 9 -8 17 0 6 6 15 11 19
11 4 0 8 -84 8 -187 0 -160 -2 -189 -17 -205 -15 -17 -17 -17 -35 -2 -16 15
-18 35 -18 206 0 173 5 210 26 177z m1715 -155 c30 -28 80 -68 112 -89 45 -30
57 -43 57 -64 0 -43 -23 -191 -29 -191 -3 0 -81 75 -173 168 l-167 167 20 75
c11 41 22 81 25 88 2 8 23 -10 52 -45 27 -32 73 -81 103 -109z m-2501 -132
c19 -113 29 -196 24 -201 -5 -5 -26 -14 -46 -20 -77 -25 -177 -103 -228 -179
l-15 -22 -213 119 c-117 65 -218 123 -224 129 -8 8 -1 24 26 57 86 104 265
223 409 271 86 29 219 55 228 45 3 -3 20 -93 39 -199z m201 192 c171 -29 316
-94 451 -203 76 -61 135 -118 127 -125 -2 -2 -64 -53 -138 -114 l-134 -111
-51 46 c-91 82 -218 128 -337 121 l-59 -3 -9 50 c-20 100 -61 333 -61 344 0
16 100 14 211 -5z m1399 5 c0 -11 -41 -244 -61 -344 l-9 -50 -59 3 c-119 7
-246 -39 -337 -121 l-51 -46 -134 111 c-74 61 -136 112 -138 114 -8 7 72 84
144 139 130 99 271 161 430 189 100 18 215 20 215 5z m245 -40 c106 -34 220
-96 315 -173 87 -70 147 -143 132 -158 -6 -6 -107 -64 -224 -129 l-213 -119
-15 22 c-52 78 -155 157 -233 180 -21 6 -41 17 -44 24 -4 10 50 349 62 390 5
16 110 -2 220 -37z m-2452 -74 c34 -9 68 -18 75 -20 8 -3 -10 -24 -45 -53 -79
-67 -152 -146 -198 -215 -31 -47 -43 -57 -66 -57 -34 0 -182 21 -189 27 -9 8
335 343 348 338 7 -2 41 -12 75 -20z m3062 -145 c93 -93 167 -171 165 -173 -7
-6 -155 -27 -189 -27 -23 0 -35 10 -66 57 -46 69 -119 148 -198 214 -32 27
-57 49 -55 50 2 0 39 11 83 24 44 12 82 23 85 24 3 0 81 -75 175 -169z m-3546
-84 c11 -87 11 -100 -3 -114 -8 -9 -18 -14 -21 -11 -2 3 -12 56 -21 119 -16
109 -16 114 2 127 24 18 27 8 43 -121z m3831 99 c0 -27 -31 -219 -36 -224 -2
-3 -12 2 -20 11 -14 14 -15 27 -5 104 18 142 19 146 42 134 10 -6 19 -17 19
-25z m-1803 -224 l131 -110 -34 -65 c-47 -87 -71 -160 -85 -256 l-11 -80 -143
0 -143 0 -11 80 c-14 96 -38 169 -85 256 l-34 65 131 110 c73 60 137 109 142
109 6 0 69 -49 142 -109z m-1608 47 c31 -17 128 -71 216 -120 88 -49 163 -93
167 -96 4 -4 -2 -32 -14 -62 -17 -43 -22 -77 -22 -157 -1 -57 -2 -103 -2 -103
-1 0 -127 -34 -280 -75 -153 -41 -280 -73 -282 -71 -12 12 -22 94 -23 187 -1
127 24 244 76 357 36 77 92 172 103 172 3 0 30 -14 61 -32z m3030 -16 c94
-146 143 -314 142 -481 -1 -93 -11 -175 -23 -187 -2 -2 -129 30 -282 71 -153
41 -279 75 -280 75 0 0 -1 46 -2 103 0 80 -5 114 -22 157 -12 30 -18 58 -14
62 4 3 84 49 177 101 94 52 190 107 215 121 25 14 48 26 51 26 4 0 21 -22 38
-48z m-2201 -23 c71 -143 61 -339 -25 -487 l-26 -44 -78 78 c-104 103 -132
164 -128 273 4 85 35 160 79 192 22 17 118 39 145 35 6 -1 20 -22 33 -47z
m188 -5 c119 -60 221 -204 260 -369 38 -155 15 -351 -57 -499 l-33 -67 -20 20
-20 21 23 47 c75 154 101 330 67 463 -51 202 -187 355 -353 399 -40 11 -51 20
-37 33 10 10 112 -18 170 -48z m1074 36 c0 -5 -19 -14 -42 -21 -167 -44 -303
-197 -354 -399 -34 -133 -8 -309 67 -463 l23 -47 -20 -21 -20 -20 -33 67 c-50
103 -73 203 -74 324 -1 297 153 531 386 585 53 12 67 11 67 -5z m152 -1 c69
-18 118 -112 118 -228 0 -94 -36 -165 -132 -259 l-75 -74 -26 44 c-73 125 -92
287 -50 423 32 100 44 115 91 108 20 -3 54 -9 74 -14z m-2503 -44 c51 -7 95
-16 97 -18 2 -2 -2 -12 -10 -22 -12 -17 -18 -17 -126 -1 -63 9 -116 18 -118
21 -10 9 21 35 42 35 11 0 63 -7 115 -15z m3601 0 c7 -9 11 -18 8 -20 -2 -3
-55 -12 -118 -21 -108 -16 -114 -16 -126 1 -8 10 -12 20 -10 23 6 5 163 29
202 31 17 0 37 -6 44 -14z m-2773 -52 c-16 -36 -21 -68 -21 -128 0 -99 26
-163 103 -247 l52 -56 -82 -94 c-128 -147 -113 -137 -146 -98 -124 147 -143
350 -47 516 25 43 135 154 153 154 5 0 0 -21 -12 -47z m1854 -9 c101 -97 144
-196 142 -329 -1 -112 -34 -199 -106 -285 -33 -39 -18 -49 -146 98 l-82 94 52
56 c77 84 103 148 103 247 0 60 -5 92 -21 128 -12 26 -17 47 -12 47 6 0 37
-25 70 -56z m-1422 -104 c78 -147 80 -313 4 -452 -44 -81 -45 -81 -131 5 l-76
77 36 67 c45 84 68 171 68 256 0 62 -11 141 -26 182 -14 39 95 -78 125 -135z
m-2 111 c94 -60 154 -144 199 -276 50 -149 37 -305 -42 -483 l-25 -56 -79 79
-79 78 20 28 c11 15 34 58 51 96 28 59 33 81 36 169 6 149 -23 238 -113 349
-25 30 -41 55 -37 55 5 0 36 -17 69 -39z m968 -16 c-90 -111 -119 -200 -113
-349 3 -88 8 -110 36 -169 17 -38 40 -81 51 -96 l20 -28 -79 -78 -79 -79 -25
56 c-52 118 -70 197 -70 303 2 194 87 366 227 456 33 22 64 39 69 39 4 0 -12
-25 -37 -55z m84 19 c-6 -16 -13 -72 -16 -124 -6 -114 11 -192 65 -293 l36
-67 -76 -77 c-86 -86 -87 -86 -131 -5 -97 178 -66 399 76 549 27 29 52 52 54
49 2 -2 -1 -16 -8 -32z m-2450 -3 c10 -6 11 -13 2 -29 -30 -55 -54 -199 -54
-317 0 -463 329 -839 801 -915 54 -9 53 -9 -23 -5 -297 16 -601 228 -748 520
-71 142 -106 343 -87 498 10 89 30 180 50 232 10 25 34 32 59 16z m3808 -72
c95 -336 9 -679 -234 -923 -158 -159 -371 -260 -568 -271 -76 -4 -77 -4 -23 5
106 17 183 41 283 89 318 151 518 470 518 826 0 118 -24 262 -54 317 -13 24 3
40 36 36 16 -2 25 -19 42 -79z m-3662 53 c33 -5 59 -12 58 -17 -1 -6 -13 -42
-27 -81 -84 -243 -45 -524 102 -740 51 -77 181 -200 260 -247 121 -74 269
-116 418 -119 72 -1 76 -2 39 -10 -66 -16 -280 -3 -363 21 -312 91 -545 324
-634 636 -30 107 -33 344 -4 445 31 111 42 131 68 125 13 -3 50 -9 83 -13z
m3567 -35 c54 -146 62 -371 18 -527 -86 -306 -322 -541 -632 -631 -83 -24
-297 -37 -363 -21 -37 8 -33 9 39 10 149 3 297 45 418 119 79 47 209 170 260
247 147 216 186 497 102 740 -14 39 -26 75 -27 80 -2 9 134 35 158 31 5 -1 18
-22 27 -48z m-3846 24 c-19 -31 -362 -233 -436 -256 -19 -6 -20 -2 -20 118 l0
124 63 -9 c74 -11 241 -3 317 16 68 17 83 18 76 7z m4069 -6 c81 -20 246 -29
323 -17 l62 9 0 -124 c0 -120 -1 -124 -20 -118 -74 23 -417 225 -436 256 -7
12 0 11 71 -6z m-4555 -250 l5 -250 247 -3 c239 -2 247 -3 253 -23 4 -11 5
-22 3 -24 -5 -5 -570 -27 -575 -22 -2 3 0 121 6 263 6 142 11 271 11 286 0 25
4 29 23 26 22 -3 22 -3 27 -253z m5020 227 c0 -16 5 -144 11 -286 6 -142 8
-260 6 -263 -5 -5 -570 17 -575 22 -2 2 -1 13 3 24 6 20 14 21 253 23 l247 3
3 240 c1 132 4 246 7 253 2 6 14 12 25 12 15 0 20 -7 20 -28z m-4517 -68 c-12
-50 -17 -112 -17 -226 l-1 -158 -118 0 c-118 0 -118 0 -112 23 23 75 247 448
261 434 2 -2 -3 -35 -13 -73z m4030 -32 c63 -95 167 -285 181 -329 7 -23 7
-23 -111 -23 l-118 0 -1 158 c0 114 -5 176 -17 225 -9 38 -17 70 -17 73 0 16
27 -18 83 -104z m-4109 31 c-44 -67 -123 -207 -164 -291 l-44 -92 -93 0 -93 0
0 93 0 92 123 62 c67 34 158 85 202 112 44 28 82 50 84 51 2 0 -5 -12 -15 -27z
m4267 -68 c58 -33 138 -75 177 -94 l72 -35 0 -93 0 -93 -93 0 -93 0 -44 92
c-41 84 -117 219 -166 293 l-19 30 30 -20 c17 -11 78 -47 136 -80z m-3288
-327 c19 -40 54 -96 79 -123 l45 -50 -164 -195 c-90 -107 -168 -196 -173 -198
-14 -5 -91 51 -160 115 -72 66 -157 192 -194 285 -14 36 -26 71 -26 76 0 5 89
32 198 61 163 44 350 96 359 100 1 1 18 -32 36 -71z m354 61 c9 -9 -13 -39
-84 -120 -53 -60 -100 -109 -105 -109 -32 0 -10 39 74 134 51 58 95 106 99
106 3 0 10 -5 16 -11z m1571 -95 c84 -95 106 -134 74 -134 -5 0 -52 49 -105
109 -71 81 -93 111 -84 120 6 6 13 11 17 11 3 0 47 -48 98 -106z m831 -50 c2
-2 -8 -36 -22 -75 -51 -137 -173 -290 -303 -379 -24 -17 -49 -30 -54 -28 -5 2
-83 91 -173 198 l-164 195 45 50 c25 27 60 82 78 121 l33 71 278 -75 c153 -40
280 -76 282 -78z m-1689 -196 l0 -333 -122 122 -122 122 37 78 c42 92 64 172
73 271 l7 72 63 0 64 0 0 -332z m164 260 c9 -99 31 -179 73 -271 l37 -78 -122
-122 -122 -122 0 333 0 332 64 0 63 0 7 -72z m-641 -152 l197 -202 -55 -66
c-91 -111 -68 -119 -295 103 -108 107 -196 197 -196 201 2 10 139 168 145 166
3 0 95 -92 204 -202z m1263 123 c38 -44 69 -84 70 -87 0 -4 -88 -94 -196 -201
-227 -222 -204 -214 -295 -103 l-55 66 197 202 c109 110 201 202 204 202 3 1
37 -34 75 -79z m-1431 -304 c188 -183 199 -196 181 -209 -17 -14 -32 -2 -217
177 -166 161 -196 194 -188 209 5 10 13 18 17 18 4 0 97 -88 207 -195z m1544
177 c8 -15 -22 -48 -188 -209 -185 -179 -200 -191 -217 -177 -18 13 -7 26 181
209 110 107 203 195 207 195 4 0 12 -8 17 -18z m-1590 -235 l183 -185 -55 -20
c-125 -47 -178 -57 -317 -56 -102 0 -151 4 -200 19 -85 24 -173 62 -168 73 1
5 75 95 163 200 l160 190 25 -18 c14 -10 108 -102 209 -203z m1815 21 c86
-103 156 -189 156 -193 0 -9 -96 -49 -170 -71 -50 -14 -97 -18 -205 -18 -123
0 -151 4 -229 27 -159 49 -167 23 69 257 118 117 209 200 214 194 4 -5 78 -93
165 -196z m-1231 -199 c-9 -16 -40 -53 -67 -84 l-51 -56 -89 90 -89 90 66 71
c37 39 67 76 67 82 0 7 40 -28 90 -77 l89 -89 -16 -27z m486 98 l55 -57 -89
-90 -89 -90 -24 23 c-13 12 -44 49 -68 81 l-45 59 87 88 c86 87 88 88 102 66
8 -12 40 -48 71 -80z m-579 -292 l215 -215 217 217 c184 184 221 216 235 207
9 -6 18 -15 20 -20 4 -12 -462 -505 -476 -503 -6 1 -212 217 -395 414 -66 71
-76 88 -66 100 7 8 18 15 24 15 6 0 108 -97 226 -215z m161 169 c44 -47 54
-48 99 -8 23 21 44 33 48 28 5 -5 34 -42 67 -82 l58 -73 -109 -110 -109 -109
-109 109 -109 109 64 81 c35 44 67 81 70 81 3 0 16 -12 30 -26z m-396 -54 c27
-27 47 -51 44 -53 -15 -14 -52 -27 -74 -27 -29 0 -95 57 -95 82 0 13 45 45 65
47 6 1 33 -21 60 -49z m994 33 c39 -23 39 -37 -3 -79 -41 -41 -94 -44 -135 -7
-6 4 90 103 100 103 4 0 21 -8 38 -17z m-1129 -65 c8 -18 27 -40 41 -50 33
-24 101 -26 135 -3 26 17 27 17 66 -23 39 -38 40 -40 25 -68 -59 -112 -202
-140 -290 -56 -16 15 -34 36 -39 47 -34 62 -27 153 14 173 32 15 31 15 48 -20z
m1215 20 c31 -14 48 -68 36 -118 -21 -92 -91 -150 -181 -150 -71 0 -133 39
-167 104 -15 28 -14 30 25 68 39 40 40 40 66 23 34 -23 102 -21 135 3 14 10
33 32 41 50 18 37 13 35 45 20z m-1323 -75 c-2 -37 3 -61 25 -103 25 -49 44
-67 108 -105 15 -9 15 -17 -8 -108 -14 -54 -28 -101 -31 -104 -11 -11 -91 32
-134 72 -82 74 -124 195 -103 296 l12 55 62 20 c34 12 64 22 67 22 3 1 4 -19
2 -45z m1460 21 l57 -17 12 -55 c21 -102 -21 -223 -103 -297 -43 -40 -123 -83
-134 -72 -3 3 -17 50 -31 104 -23 91 -23 99 -8 108 64 38 83 56 108 105 22 42
27 66 25 103 -2 29 1 45 7 42 6 -2 36 -12 67 -21z m-1003 -156 c28 -29 51 -60
51 -68 0 -26 -57 -115 -96 -150 -71 -62 -200 -103 -268 -86 l-24 6 14 57 c8
32 22 82 30 111 l15 52 45 0 c25 0 62 9 84 20 38 20 90 76 90 98 0 19 6 15 59
-40z m531 40 c0 -20 50 -77 83 -95 18 -10 56 -20 86 -23 l55 -5 27 -108 27
-107 -24 -6 c-68 -17 -198 25 -268 86 -38 34 -96 123 -96 149 0 14 89 118 103
120 4 1 7 -4 7 -11z m-399 -180 c24 -29 42 -59 41 -68 -2 -8 -15 -41 -29 -73
l-26 -58 -59 58 c-32 31 -58 61 -58 66 0 5 11 23 24 40 14 18 29 44 35 60 6
15 14 27 19 27 5 0 29 -24 53 -52z m280 25 c6 -16 21 -42 35 -60 13 -17 24
-35 24 -40 0 -5 -26 -35 -58 -66 l-59 -58 -26 58 c-14 32 -27 65 -29 73 -3 16
78 120 94 120 5 0 13 -12 19 -27z m-191 -118 c15 -14 18 -14 30 0 15 19 30 19
30 1 0 -7 13 -39 29 -71 l30 -58 -51 -59 c-28 -32 -52 -58 -53 -58 -1 0 -25
26 -53 58 l-51 59 30 58 c16 32 29 64 29 71 0 18 9 18 30 -1z m-108 -144 c64
-73 119 -133 121 -134 3 -1 59 58 124 132 65 74 123 136 128 138 6 2 18 -2 28
-9 15 -12 8 -23 -68 -108 -47 -52 -111 -130 -142 -172 -32 -42 -62 -77 -68
-77 -5 0 -36 35 -68 77 -31 42 -95 120 -142 172 -76 85 -83 96 -68 108 10 7
22 11 28 9 5 -2 62 -63 127 -136z"/>
</g>
</svg>
