<?xml version="1.0" standalone="no"?>
<!DOCTYPE svg PUBLIC "-//W3C//DTD SVG 20010904//EN"
 "http://www.w3.org/TR/2001/REC-SVG-20010904/DTD/svg10.dtd">
<svg version="1.0" xmlns="http://www.w3.org/2000/svg"
 width="850.000000pt" height="850.000000pt" viewBox="0 0 850.000000 850.000000"
 preserveAspectRatio="xMidYMid meet">
<metadata>
Created by potrace 1.14, written by Peter Selinger 2001-2017
</metadata>
<g transform="translate(0.000000,850.000000) scale(0.100000,-0.100000)"
fill="#000000" stroke="none">
<path d="M3913 8261 c-30 -63 -100 -112 -213 -146 -368 -112 -575 -197 -705
-289 -178 -128 -314 -364 -346 -602 -32 -238 28 -647 136 -940 65 -175 186
-374 356 -586 45 -57 87 -109 92 -116 8 -10 -1 -23 -34 -52 -24 -22 -48 -39
-54 -39 -5 -1 -35 30 -65 67 -30 37 -118 139 -195 227 -287 328 -378 453 -480
658 l-64 128 34 45 c39 51 50 93 42 173 -8 98 -74 197 -162 244 -32 17 -57 22
-125 22 -76 0 -91 -3 -139 -30 -29 -16 -66 -45 -83 -65 -28 -33 -29 -34 -40
-15 -27 47 -111 123 -175 157 -84 46 -224 87 -322 95 l-74 6 6 -74 c8 -96 49
-235 94 -321 32 -61 111 -149 157 -175 17 -9 15 -14 -27 -55 -85 -86 -112
-232 -59 -333 45 -87 144 -153 243 -162 80 -8 122 2 173 42 l44 33 118 -57
c197 -96 351 -207 639 -461 77 -67 184 -159 237 -203 l96 -80 -41 -49 c-23
-26 -44 -48 -47 -48 -3 0 -59 43 -125 96 -217 174 -411 293 -589 359 -293 108
-702 168 -940 136 -173 -23 -371 -114 -493 -225 -155 -142 -248 -335 -398
-826 -36 -117 -80 -182 -145 -212 -27 -12 -50 -26 -50 -30 0 -10 47 -42 106
-71 138 -69 212 -81 327 -51 73 19 102 33 140 68 l28 26 41 -35 c130 -111 348
-104 469 15 25 25 51 53 56 63 9 18 12 17 48 -7 112 -76 310 -81 417 -11 57
38 92 106 93 179 0 34 -3 70 -7 81 -7 19 -3 20 58 22 118 3 217 52 270 133 33
49 37 132 10 194 l-16 39 41 -7 c58 -9 115 -41 263 -145 71 -50 147 -96 168
-103 21 -6 37 -16 34 -22 -106 -247 -139 -411 -139 -676 0 -239 32 -413 112
-615 l28 -70 -60 -28 c-34 -15 -93 -52 -133 -82 -105 -79 -195 -132 -255 -149
-29 -9 -54 -14 -56 -13 -2 2 4 21 13 43 24 56 23 131 -2 179 -43 84 -161 145
-279 145 l-62 0 10 44 c23 100 -23 201 -115 252 -50 28 -59 29 -173 29 -104 0
-127 -3 -172 -24 -29 -13 -58 -29 -64 -37 -17 -21 -25 -17 -47 20 -45 76 -171
138 -282 138 -78 0 -160 -28 -226 -79 l-46 -35 -27 25 c-14 13 -37 31 -51 40
-38 23 -175 50 -228 45 -78 -8 -298 -115 -289 -141 2 -6 16 -14 32 -19 71 -19
135 -119 179 -280 65 -241 176 -506 264 -635 103 -150 271 -266 479 -330 84
-26 98 -27 293 -27 220 0 340 14 520 60 337 87 546 195 849 439 l123 98 24
-29 c63 -75 63 -72 14 -113 -25 -20 -99 -83 -165 -140 -301 -260 -346 -298
-437 -367 -115 -86 -263 -175 -367 -220 l-74 -33 -36 29 c-99 77 -252 62 -360
-36 -67 -60 -86 -104 -86 -204 0 -76 3 -91 29 -138 17 -29 46 -67 65 -84 34
-30 34 -32 16 -42 -42 -23 -131 -124 -162 -181 -42 -81 -83 -222 -90 -318 l-6
-78 44 6 c185 26 294 61 401 132 58 38 119 102 131 137 2 5 20 -8 39 -30 75
-82 208 -116 317 -79 97 32 178 142 188 255 8 81 -2 122 -42 174 l-34 44 59
119 c101 205 190 327 476 654 87 101 181 210 207 243 27 34 52 62 56 64 9 3
94 -65 99 -79 2 -5 -28 -46 -66 -91 -197 -236 -330 -457 -400 -663 -67 -199
-105 -374 -122 -570 -19 -230 -11 -342 36 -489 114 -358 350 -539 912 -702 84
-24 172 -53 195 -65 57 -28 114 -85 128 -126 6 -19 16 -32 22 -30 18 5 72 100
108 186 29 69 31 82 26 151 -8 103 -31 174 -74 220 l-35 40 36 41 c38 45 69
116 81 185 18 114 -57 283 -148 331 -28 14 -28 14 -11 41 58 88 82 202 64 303
-16 87 -31 119 -76 163 -58 57 -162 79 -236 51 -10 -4 -14 9 -15 55 -2 80 -27
157 -71 215 -64 84 -148 108 -251 71 l-44 -16 7 42 c9 53 57 141 138 250 63
85 118 180 118 203 0 9 27 3 88 -21 384 -152 858 -149 1222 5 l67 29 22 -53
c12 -29 55 -99 97 -156 74 -104 137 -218 149 -273 5 -25 4 -28 -12 -21 -59 25
-124 36 -161 25 -108 -29 -184 -141 -191 -283 -2 -60 -6 -77 -16 -73 -122 46
-263 -28 -300 -158 -34 -117 -4 -307 56 -362 18 -16 17 -18 -26 -45 -80 -51
-138 -169 -137 -284 0 -87 33 -174 91 -238 l25 -27 -26 -28 c-35 -37 -55 -80
-73 -154 -22 -93 -19 -139 15 -226 33 -85 89 -183 107 -189 7 -3 20 14 29 36
34 85 104 123 369 201 252 74 473 177 600 279 141 113 266 346 296 553 14 99
6 346 -16 492 -32 212 -118 491 -196 634 -66 123 -171 279 -279 412 -55 69
-100 127 -100 130 1 8 89 75 98 75 5 0 48 -47 97 -105 49 -58 151 -176 228
-263 233 -266 362 -454 446 -644 l31 -72 -24 -26 c-107 -116 -44 -357 112
-431 20 -9 66 -19 103 -22 93 -6 157 17 222 79 45 44 52 47 61 32 5 -10 32
-41 59 -70 57 -61 168 -122 277 -152 83 -23 222 -42 231 -32 12 11 -10 154
-37 241 -36 118 -87 210 -147 268 -29 26 -60 53 -70 58 -15 9 -12 16 31 60
108 112 112 278 11 388 -106 116 -287 140 -383 51 l-26 -24 -78 33 c-187 80
-373 212 -688 487 -98 84 -209 180 -248 212 -39 31 -71 62 -71 67 0 11 67 99
75 100 3 0 53 -38 110 -86 224 -182 444 -314 630 -379 273 -94 469 -128 750
-129 196 0 209 1 294 27 169 53 343 158 427 259 113 136 216 359 300 648 66
231 103 295 187 332 24 11 41 25 39 31 -6 19 -105 75 -192 108 -67 26 -90 30
-140 26 -95 -7 -179 -35 -225 -75 l-41 -35 -27 26 c-39 37 -124 77 -184 87
-133 21 -277 -41 -349 -150 -16 -24 -18 -24 -36 -8 -67 60 -244 87 -359 53
-130 -37 -204 -178 -158 -300 4 -10 -13 -14 -73 -16 -142 -7 -254 -83 -283
-191 -10 -37 0 -103 24 -160 7 -14 3 -15 -34 -7 -56 13 -109 40 -205 107 -154
107 -190 130 -227 141 l-36 12 34 84 c70 173 102 333 111 545 9 233 -28 451
-111 663 -24 60 -30 87 -21 87 23 0 118 55 203 118 109 81 197 129 249 138
l42 6 -20 -63 c-17 -54 -18 -71 -9 -110 23 -95 119 -167 250 -188 35 -6 75 -8
88 -4 21 5 24 3 19 -11 -47 -122 25 -265 152 -303 111 -33 267 -14 350 43 34
23 37 23 46 7 6 -10 30 -38 55 -63 119 -120 338 -126 469 -14 l41 36 40 -35
c46 -43 117 -66 220 -74 69 -5 82 -3 151 26 86 36 181 90 186 108 2 6 -11 16
-30 22 -41 14 -98 71 -126 128 -12 23 -41 112 -66 196 -54 188 -110 334 -176
463 -61 119 -77 142 -154 223 -147 155 -368 253 -600 267 -178 11 -439 -18
-645 -72 -310 -82 -522 -194 -814 -429 -66 -52 -123 -94 -127 -93 -12 5 -80
90 -77 98 2 3 48 44 103 90 55 46 152 129 215 185 284 251 446 368 643 465
l119 59 44 -34 c52 -40 93 -50 175 -42 114 10 222 90 254 188 37 109 3 242
-79 317 -22 19 -35 37 -30 39 35 12 99 73 137 131 71 107 106 216 132 401 l6
44 -78 -6 c-96 -7 -237 -48 -318 -90 -57 -31 -158 -120 -181 -162 -10 -18 -12
-18 -42 16 -17 19 -55 48 -84 65 -47 26 -62 29 -138 29 -100 0 -144 -19 -204
-86 -100 -109 -113 -270 -31 -368 l24 -27 -32 -75 c-46 -105 -135 -253 -221
-367 -74 -97 -122 -155 -351 -419 -66 -76 -136 -158 -156 -182 -41 -50 -38
-50 -113 13 l-30 25 76 93 c268 332 369 523 457 863 51 194 65 310 65 535 0
195 -1 209 -27 293 -71 229 -206 409 -383 512 -146 86 -363 171 -582 231 -161
44 -261 108 -280 179 -5 16 -13 30 -19 32 -26 9 -133 -211 -141 -289 -5 -53
22 -190 45 -228 9 -14 27 -37 40 -51 l25 -27 -35 -46 c-51 -66 -79 -148 -79
-226 0 -115 64 -240 145 -286 36 -20 37 -21 18 -38 -10 -10 -30 -41 -42 -69
-21 -45 -24 -68 -24 -172 0 -114 1 -123 29 -173 51 -92 152 -138 252 -115 l44
10 0 -61 c0 -33 5 -77 10 -96 16 -59 73 -143 117 -174 35 -24 52 -29 100 -29
32 0 76 8 97 17 22 9 41 15 43 13 1 -2 -4 -27 -13 -56 -18 -63 -56 -128 -141
-245 -36 -49 -77 -114 -92 -146 l-26 -57 -70 28 c-202 80 -376 112 -615 112
-265 0 -425 -33 -677 -140 -6 -2 -14 8 -18 25 -6 29 -37 79 -147 237 -67 97
-87 135 -104 198 -12 45 -11 48 4 41 118 -50 205 -35 276 47 47 56 76 136 79
219 l2 67 35 -10 c83 -23 198 20 245 91 70 107 65 305 -11 417 -24 36 -25 39
-7 48 10 5 38 31 63 56 119 121 126 339 15 469 l-35 41 26 28 c35 38 49 67 68
140 30 115 18 189 -51 327 -29 59 -61 106 -71 106 -4 0 -17 -22 -29 -49z m75
-263 c3 -66 1 -84 -20 -130 -23 -49 -82 -116 -136 -154 -30 -21 -28 -27 21
-59 103 -67 137 -121 137 -218 0 -81 -23 -115 -144 -217 l-86 -71 19 -27 c11
-15 35 -43 55 -61 98 -95 102 -303 7 -371 -57 -40 -99 -38 -201 10 -49 24 -92
41 -95 38 -3 -3 1 -24 9 -46 46 -130 40 -256 -16 -333 -61 -84 -145 -88 -231
-12 l-51 46 -19 -24 c-15 -19 -18 -36 -15 -90 4 -82 46 -171 148 -314 68 -96
146 -224 138 -229 -23 -17 -214 -126 -220 -126 -10 0 -172 216 -251 335 -206
312 -317 690 -317 1079 0 231 42 409 128 543 109 169 369 320 704 408 213 57
311 95 378 147 l25 20 14 -34 c8 -18 17 -68 19 -110z m596 117 c55 -42 157
-82 312 -124 188 -50 290 -87 429 -156 195 -97 296 -192 371 -350 158 -330 98
-943 -136 -1381 -49 -93 -170 -273 -268 -401 l-78 -101 -84 54 c-46 29 -96 58
-112 65 -15 6 -28 14 -28 18 1 10 90 153 171 273 42 62 86 136 98 165 27 66
29 161 3 193 l-17 22 -47 -42 c-26 -23 -62 -46 -80 -51 -72 -21 -138 17 -176
99 -22 49 -24 63 -20 151 3 58 12 113 23 139 10 24 15 46 11 49 -3 4 -47 -13
-96 -37 -74 -35 -98 -42 -130 -37 -82 11 -131 75 -138 182 -6 86 26 164 95
236 29 31 53 60 53 65 0 5 -34 36 -77 69 -42 33 -94 82 -115 108 -35 45 -38
54 -38 110 0 101 28 143 162 238 l23 17 -76 73 c-84 82 -109 133 -109 222 0
46 26 157 36 157 3 0 20 -11 38 -25z m-3090 -1015 c230 -47 338 -152 353 -340
3 -44 9 -80 13 -80 4 0 22 38 39 84 59 155 118 206 242 206 100 0 156 -42 185
-139 18 -60 13 -134 -12 -183 -49 -94 134 -465 377 -768 46 -58 157 -180 246
-271 l162 -165 -21 -22 -22 -21 -165 162 c-91 89 -213 200 -271 246 -204 164
-448 308 -610 359 -105 33 -125 35 -162 16 -22 -12 -57 -18 -103 -18 -139 -2
-215 67 -215 194 0 123 51 183 206 241 46 17 84 35 84 39 0 4 -36 10 -80 13
-188 15 -293 123 -340 353 -11 53 -20 100 -20 105 0 12 4 12 114 -11z m5608
-92 c-28 -129 -56 -191 -114 -254 -56 -61 -129 -93 -228 -101 -44 -3 -80 -9
-80 -13 0 -4 28 -18 63 -30 178 -64 227 -119 227 -251 0 -109 -49 -167 -162
-191 -49 -10 -64 -9 -115 7 -77 24 -123 22 -213 -11 -279 -100 -566 -300 -895
-626 l-141 -139 -22 24 -23 24 79 72 c88 79 247 254 352 386 141 176 261 378
323 540 46 120 52 160 31 210 -23 54 -22 160 1 205 40 80 88 110 175 110 66 0
121 -18 158 -53 27 -25 70 -106 97 -184 11 -29 22 -53 26 -53 3 0 10 36 13 80
12 138 73 227 196 291 43 22 211 67 256 68 l21 1 -25 -112z m-2691 -1168 c372
-38 697 -191 964 -455 241 -238 389 -520 453 -860 21 -113 23 -425 3 -535 -30
-170 -75 -308 -146 -449 -227 -453 -625 -758 -1125 -862 -139 -29 -446 -33
-585 -7 -257 48 -482 146 -692 301 -98 73 -257 238 -335 347 -80 112 -186 322
-221 435 -124 400 -92 837 88 1201 297 600 930 951 1596 884z m-2670 -76 c287
-40 565 -141 798 -291 63 -41 322 -227 360 -259 1 -1 -8 -18 -22 -36 -13 -18
-44 -67 -67 -108 -24 -41 -44 -77 -46 -78 -5 -7 -132 69 -228 138 -141 101
-232 144 -315 148 -54 3 -71 0 -90 -15 l-24 -19 46 -51 c76 -86 72 -170 -12
-231 -77 -56 -203 -62 -333 -16 -22 8 -43 12 -46 9 -3 -3 14 -46 38 -95 47
-100 50 -148 13 -199 -70 -96 -279 -93 -374 5 -18 20 -46 44 -61 55 l-27 19
-71 -86 c-102 -121 -136 -144 -217 -144 -97 0 -151 34 -218 138 -15 23 -31 42
-35 42 -4 0 -19 -15 -32 -32 -79 -104 -157 -148 -259 -148 -36 0 -87 7 -113
16 -46 16 -46 17 -31 38 44 60 99 196 144 361 87 317 175 498 306 631 115 116
232 175 415 208 105 19 365 19 501 0z m5537 -3 c389 -81 555 -288 726 -903 42
-151 69 -217 112 -273 l32 -42 -53 -17 c-28 -9 -81 -16 -116 -16 -91 0 -150
30 -224 114 -32 36 -62 66 -67 66 -4 0 -15 -14 -23 -31 -25 -47 -84 -108 -126
-130 -26 -13 -59 -19 -102 -19 -57 0 -69 4 -109 34 -24 19 -70 67 -103 107
-32 41 -62 78 -66 83 -4 5 -36 -17 -70 -47 -75 -69 -144 -97 -233 -97 -85 0
-143 30 -174 90 -29 56 -25 87 22 180 31 61 44 100 33 100 -2 0 -30 -9 -63
-21 -91 -32 -203 -31 -276 3 -117 54 -135 157 -45 255 l42 45 -25 20 c-20 17
-36 19 -91 16 -81 -4 -174 -48 -298 -139 -86 -62 -226 -149 -241 -149 -5 0
-11 9 -15 19 -3 11 -30 58 -60 106 -30 48 -55 91 -55 95 0 9 219 173 340 255
218 146 518 258 802 299 146 22 414 20 526 -3z m-6662 -1788 c37 -12 67 -34
123 -92 l74 -75 16 22 c99 140 140 167 246 160 54 -3 69 -9 107 -40 24 -19 70
-70 103 -112 33 -42 64 -76 69 -76 5 0 34 24 65 53 153 146 396 121 418 -43 5
-32 -2 -56 -37 -130 -24 -49 -41 -93 -38 -96 4 -3 28 2 55 12 26 9 89 19 140
22 82 4 97 2 145 -21 119 -54 138 -149 51 -250 l-44 -52 22 -17 c31 -26 126
-24 192 3 29 12 103 56 165 98 120 81 263 170 273 171 4 0 12 -13 18 -28 7
-16 36 -66 65 -112 l54 -84 -94 -72 c-128 -98 -312 -222 -404 -272 -409 -220
-1009 -292 -1338 -159 -277 112 -425 338 -568 872 -30 112 -72 212 -110 262
-14 19 -24 36 -21 39 2 2 24 11 48 18 61 19 146 19 205 -1z m6912 1 c46 -19
84 -54 123 -116 17 -27 34 -48 37 -48 3 0 37 33 76 73 54 56 83 78 120 90 63
21 134 21 207 1 l58 -16 -29 -37 c-41 -52 -74 -129 -111 -261 -140 -509 -273
-732 -503 -845 -166 -82 -367 -114 -604 -95 -356 27 -667 129 -942 307 -102
67 -350 250 -350 259 0 4 17 34 39 68 21 34 48 81 61 106 12 25 24 47 25 48 7
7 133 -69 230 -139 153 -109 245 -151 331 -151 41 0 94 20 94 35 0 6 -18 29
-39 52 -82 84 -71 185 26 242 66 38 199 45 290 14 34 -12 65 -21 68 -21 12 0
3 31 -24 81 -59 113 -62 162 -13 221 85 100 253 90 378 -24 36 -32 68 -58 73
-58 5 0 27 24 49 53 109 140 159 177 239 177 29 0 70 -7 91 -16z m-4586 -1078
c-294 -301 -501 -596 -597 -850 -43 -113 -49 -159 -29 -198 27 -51 25 -161 -4
-220 -34 -68 -72 -92 -153 -96 -144 -8 -202 40 -269 226 -12 34 -26 62 -30 62
-4 0 -10 -36 -13 -80 -11 -140 -80 -240 -203 -297 -56 -25 -250 -71 -260 -61
-3 4 4 52 15 107 47 230 152 340 341 357 44 3 80 10 80 14 0 5 -24 16 -52 26
-75 24 -159 68 -185 96 -57 61 -73 196 -30 259 48 71 143 107 237 89 28 -5 60
-15 71 -21 61 -32 322 75 549 226 179 118 454 355 582 498 l61 68 23 -22 24
-22 -158 -161z m2936 -204 c245 -196 497 -338 680 -382 47 -11 59 -10 100 6
100 38 235 10 285 -60 19 -27 22 -44 22 -123 0 -87 -1 -93 -31 -130 -35 -43
-99 -82 -191 -114 -35 -13 -63 -26 -63 -30 0 -3 36 -10 80 -13 139 -13 235
-78 296 -201 26 -55 72 -250 61 -262 -12 -11 -200 33 -258 61 -126 59 -192
155 -205 296 -3 44 -9 80 -13 80 -3 0 -21 -40 -39 -89 -56 -149 -117 -201
-236 -201 -77 0 -108 10 -142 47 -58 62 -73 166 -40 265 l19 55 -27 89 c-57
184 -191 415 -367 634 -46 58 -157 180 -246 271 l-162 165 21 22 22 21 165
-162 c91 -89 212 -199 269 -245z m-2493 143 c48 -30 95 -57 106 -60 10 -4 19
-12 18 -18 0 -14 -78 -138 -175 -280 -40 -58 -81 -130 -93 -161 -27 -73 -28
-155 -2 -187 l20 -24 38 36 c49 47 75 60 123 61 60 1 101 -28 135 -97 27 -53
30 -69 28 -140 -1 -52 -8 -101 -22 -139 -12 -33 -21 -61 -21 -63 0 -11 37 1
98 32 94 48 126 52 182 23 60 -31 90 -89 90 -174 0 -88 -28 -156 -95 -229 -30
-33 -55 -62 -55 -65 0 -3 34 -32 77 -65 42 -33 94 -82 116 -110 39 -49 39 -50
35 -126 -3 -69 -7 -82 -34 -116 -28 -34 -79 -78 -130 -110 -17 -11 -13 -17 50
-75 87 -79 116 -136 116 -229 0 -54 -23 -159 -35 -159 -2 0 -26 15 -54 34 -63
43 -127 67 -311 118 -533 146 -755 320 -841 660 -27 105 -37 382 -19 526 37
311 152 625 316 867 88 131 234 325 244 325 4 0 47 -25 95 -55z m1924 -64
c228 -302 339 -516 411 -796 67 -259 83 -561 41 -765 -31 -148 -100 -288 -184
-373 -135 -137 -335 -234 -670 -326 -181 -50 -245 -74 -308 -117 -28 -19 -53
-34 -55 -34 -10 0 -34 110 -34 155 0 91 25 142 107 221 40 39 73 73 73 76 0 3
-21 20 -48 37 -95 61 -132 121 -132 214 0 72 35 124 145 212 47 38 85 72 85
77 0 4 -26 36 -58 72 -114 125 -124 293 -24 378 59 49 108 46 221 -13 53 -29
81 -36 81 -21 -1 4 -9 32 -20 62 -13 37 -19 82 -20 141 0 72 4 93 26 138 55
110 155 126 249 40 23 -21 47 -39 52 -39 18 0 36 58 34 112 -1 70 -49 169
-149 312 -78 110 -147 224 -141 230 2 2 27 15 54 29 28 14 75 42 105 61 30 20
58 36 62 36 4 0 48 -54 97 -119z"/>
<path d="M3355 7745 c-78 -17 -186 -58 -255 -97 -69 -38 -153 -99 -146 -105 3
-3 72 24 153 60 173 77 252 95 446 104 76 3 140 10 142 14 9 13 -131 39 -207
38 -40 0 -100 -7 -133 -14z"/>
<path d="M3016 7381 c5 -4 77 -18 159 -31 212 -32 321 -62 505 -138 12 -5 13
-3 2 10 -17 22 -181 92 -283 122 -123 35 -413 64 -383 37z"/>
<path d="M2840 7267 c0 -3 46 -28 103 -55 174 -83 347 -198 469 -310 76 -71
74 -50 -3 33 -117 124 -282 238 -428 294 -78 30 -141 46 -141 38z"/>
<path d="M2893 7030 c70 -103 131 -236 187 -405 37 -111 50 -134 50 -89 0 127
-128 407 -226 494 l-28 25 17 -25z"/>
<path d="M4905 7754 c-11 -3 -37 -10 -57 -15 -62 -16 -44 -29 40 -29 103 0
251 -17 326 -36 33 -9 121 -43 194 -76 73 -33 135 -58 138 -55 18 18 -190 136
-314 177 -79 27 -116 33 -202 36 -58 2 -114 1 -125 -2z"/>
<path d="M5271 7379 c-129 -15 -321 -79 -429 -142 -54 -32 -31 -29 64 9 120
47 240 77 419 104 83 13 154 27 160 31 11 11 -113 9 -214 -2z"/>
<path d="M5575 7249 c-105 -35 -227 -101 -327 -176 -90 -69 -218 -194 -218
-215 0 -6 26 14 58 43 126 115 314 239 488 320 113 54 113 67 -1 28z"/>
<path d="M5588 7023 c-70 -77 -154 -229 -186 -338 -24 -82 -37 -175 -25 -175
4 1 26 55 47 121 47 141 101 266 148 340 47 74 50 79 45 79 -2 0 -15 -12 -29
-27z"/>
<path d="M1453 7029 c3 -13 11 -48 18 -78 20 -93 105 -166 210 -178 l49 -6 0
31 c0 102 -85 211 -181 231 -29 7 -65 15 -78 18 -21 5 -23 3 -18 -18z m148
-90 c26 -18 65 -86 56 -96 -3 -2 -22 3 -41 12 -38 18 -68 53 -81 93 -6 22 -5
23 17 17 12 -4 35 -16 49 -26z"/>
<path d="M2021 6797 c-51 -26 -66 -61 -68 -159 l-2 -91 -65 2 c-124 4 -184
-30 -193 -113 -6 -52 17 -99 70 -138 53 -41 66 -45 222 -68 161 -23 231 -43
339 -97 37 -19 70 -32 73 -30 2 3 -11 36 -31 75 -53 105 -72 173 -96 337 -19
129 -26 157 -52 198 -54 85 -132 118 -197 84z m128 -95 c25 -24 30 -42 46
-147 17 -113 52 -268 69 -308 7 -16 5 -16 -20 -7 -47 18 -181 47 -304 66 -100
15 -118 21 -142 45 -81 80 29 142 189 106 37 -8 69 -15 70 -14 1 1 -6 33 -14
70 -36 160 26 270 106 189z"/>
<path d="M6957 7031 c-48 -13 -77 -27 -101 -50 -44 -42 -77 -110 -79 -163 -2
-37 1 -43 20 -46 59 -9 181 56 209 110 8 16 23 61 33 99 20 80 25 77 -82 50z
m13 -75 c0 -39 -105 -135 -125 -114 -13 13 40 90 75 109 42 22 50 23 50 5z"/>
<path d="M6355 6791 c-71 -48 -99 -109 -120 -261 -21 -153 -55 -274 -100 -359
-19 -36 -33 -66 -31 -68 2 -2 41 15 87 37 99 47 190 71 354 95 126 18 152 27
204 71 92 77 77 203 -28 235 -20 6 -67 9 -104 7 l-67 -3 0 78 c0 125 -33 177
-117 184 -36 3 -55 -1 -78 -16z m84 -80 c35 -35 38 -174 5 -255 -6 -17 -4 -18
17 -12 180 51 309 10 259 -83 -14 -27 -51 -38 -190 -61 -114 -18 -239 -46
-282 -65 -16 -7 -16 -4 1 47 10 29 28 109 40 178 42 232 41 228 68 250 32 25
58 25 82 1z"/>
<path d="M4085 5559 c-135 -18 -304 -69 -416 -125 -295 -147 -557 -439 -657
-731 -82 -239 -101 -473 -57 -702 150 -777 952 -1251 1702 -1006 209 69 363
164 523 325 161 160 256 314 325 523 245 750 -229 1551 -1006 1702 -102 20
-319 27 -414 14z m353 -63 c8 -5 3 -19 -18 -44 -16 -20 -45 -70 -65 -111 -20
-40 -38 -71 -40 -69 -3 2 -15 33 -29 68 -13 35 -28 66 -34 68 -5 1 -22 -29
-37 -68 -15 -38 -28 -70 -30 -70 -1 0 -18 33 -37 73 -20 40 -50 90 -68 110
-34 39 -33 42 25 51 45 7 320 0 333 -8z m-426 -43 c39 -42 83 -120 109 -196
l23 -67 -22 -45 c-24 -50 -37 -56 -46 -22 -11 46 -108 177 -180 245 l-75 69
67 21 c89 27 94 26 124 -5z m596 6 c39 -12 72 -26 72 -30 0 -5 -4 -9 -9 -9 -5
0 -35 -23 -66 -52 -62 -57 -131 -148 -166 -220 -13 -27 -26 -48 -29 -48 -3 0
-16 19 -29 43 -24 43 -24 44 -6 98 33 101 120 239 151 239 5 0 42 -10 82 -21z
m-742 -151 c129 -136 180 -261 167 -403 -6 -62 -23 -92 -23 -40 0 42 -37 134
-81 201 -71 109 -215 228 -303 250 -28 7 -28 8 -10 22 10 8 41 25 68 37 l49
24 46 -24 c25 -13 64 -43 87 -67z m1021 30 c9 -7 -12 -22 -70 -51 -161 -80
-310 -273 -325 -419 l-6 -53 -12 70 c-9 51 -10 86 -3 130 21 123 147 304 247
357 l53 28 52 -26 c29 -15 57 -31 64 -36z m-1229 -104 c63 -36 201 -179 231
-240 24 -47 65 -194 57 -202 -9 -9 -55 31 -60 52 -9 37 -99 167 -152 220 -66
66 -147 118 -221 140 l-61 19 26 24 c23 21 34 23 80 19 32 -3 71 -15 100 -32z
m1363 14 l30 -22 -65 -22 c-134 -46 -266 -165 -344 -313 -37 -69 -64 -101 -85
-101 -12 0 27 141 53 195 30 61 130 175 202 229 77 57 159 71 209 34z m-676
-213 c38 -84 57 -194 53 -297 -3 -91 -4 -95 -50 -168 -25 -41 -57 -96 -69
-122 -13 -27 -25 -48 -28 -48 -4 1 -17 24 -31 52 -14 29 -45 84 -70 122 l-45
71 0 115 c0 160 29 258 119 399 l28 43 35 -58 c20 -33 46 -81 58 -109z m-857
121 c70 -19 137 -59 198 -120 49 -50 140 -174 132 -182 -2 -2 -60 16 -128 41
-69 24 -125 43 -127 42 -1 -2 18 -58 42 -127 25 -68 43 -125 41 -127 -8 -8
-136 85 -188 137 -67 67 -113 156 -124 237 -6 49 -5 54 24 83 34 34 53 36 130
16z m1651 -12 c36 -30 39 -61 15 -145 -21 -72 -64 -138 -129 -197 -49 -45
-156 -122 -169 -122 -3 0 14 57 39 127 25 70 44 128 42 129 -1 2 -58 -17 -127
-41 -68 -25 -125 -43 -127 -41 -7 7 83 131 131 180 59 61 127 103 194 121 71
20 97 18 131 -11z m-1781 -286 c17 -25 53 -68 79 -94 52 -51 182 -141 219
-150 21 -5 61 -51 52 -59 -9 -9 -148 30 -198 55 -67 34 -206 166 -244 231 -15
26 -29 70 -33 97 -5 44 -2 55 18 80 l24 28 25 -70 c14 -39 40 -92 58 -118z
m1912 97 c0 -67 -42 -141 -133 -230 -46 -45 -103 -94 -128 -108 -40 -24 -207
-72 -217 -63 -11 11 28 46 84 75 89 46 183 120 234 183 47 59 97 155 106 207
l7 33 23 -28 c16 -20 23 -42 24 -69z m-1936 -300 c90 -89 195 -150 279 -161
26 -4 47 -10 47 -14 0 -12 -129 -20 -180 -10 -65 12 -108 31 -176 76 -86 57
-160 129 -183 179 l-21 45 26 53 c43 84 42 84 86 -6 32 -63 59 -100 122 -162z
m2034 180 c31 -64 32 -66 17 -103 -20 -46 -81 -111 -160 -167 -82 -58 -130
-81 -198 -94 -57 -10 -187 -4 -187 9 0 4 21 10 46 13 147 16 381 218 426 369
6 21 14 38 17 38 4 0 21 -29 39 -65z m-1571 -70 c124 -47 195 -106 280 -230
41 -61 78 -130 106 -197 l15 -36 -36 15 c-163 68 -309 175 -371 272 -28 43
-81 169 -81 191 0 15 13 12 87 -15z m690 -12 c-3 -10 -5 -4 -5 12 0 17 2 24 5
18 2 -7 2 -21 0 -30z m303 29 c0 -20 -41 -126 -67 -173 -48 -90 -195 -207
-347 -277 -37 -18 -70 -32 -72 -32 -10 0 69 155 111 219 86 131 165 198 288
245 67 27 87 31 87 18z m-768 -27 c3 -13 1 -22 -3 -19 -9 5 -13 44 -5 44 2 0
6 -11 8 -25z m-743 -276 c42 -27 86 -52 99 -55 33 -9 27 -22 -23 -46 l-45 -22
-67 24 c-78 26 -167 77 -202 114 l-24 25 23 80 23 80 69 -75 c39 -41 105 -97
147 -125z m2200 50 c2 -37 -111 -112 -222 -150 l-68 -23 -45 24 c-31 17 -41
27 -32 33 167 98 234 150 286 221 l37 50 22 -70 c12 -38 22 -76 22 -85z
m-1726 -46 c-7 -2 -19 -2 -25 0 -7 3 -2 5 12 5 14 0 19 -2 13 -5z m1030 0 c-7
-2 -21 -2 -30 0 -10 3 -4 5 12 5 17 0 24 -2 18 -5z m-1626 -131 c40 -19 73
-36 73 -37 0 -2 -31 -15 -70 -30 -38 -15 -72 -30 -75 -35 -2 -4 29 -20 70 -35
41 -15 75 -29 75 -31 0 -2 -35 -22 -78 -43 -44 -22 -93 -52 -110 -66 -30 -25
-32 -25 -39 -8 -10 24 -10 342 0 366 6 17 10 16 44 -13 20 -18 70 -48 110 -68z
m2348 11 c7 -84 0 -301 -10 -311 -2 -2 -20 9 -39 26 -20 17 -70 48 -113 68
l-77 37 77 30 c42 17 77 33 77 36 0 4 -34 19 -75 35 -42 16 -74 30 -72 32 1 2
39 21 83 43 44 22 90 52 104 66 13 14 27 25 31 25 4 0 10 -39 14 -87z m-1594
-5 c30 -19 84 -51 121 -69 37 -19 67 -36 67 -40 1 -3 -20 -15 -46 -28 -27 -12
-82 -44 -123 -69 -73 -46 -77 -47 -168 -50 -147 -6 -268 27 -406 111 l-58 35
43 27 c24 15 54 33 66 41 84 53 220 84 349 80 98 -2 104 -4 155 -38z m1064 8
c74 -25 225 -103 225 -117 0 -13 -169 -101 -235 -122 -57 -18 -93 -22 -196
-22 -123 0 -126 1 -170 30 -24 16 -80 48 -123 71 l-79 42 54 27 c30 15 84 47
121 70 81 53 87 54 218 51 82 -3 123 -10 185 -30z m-807 -242 c-75 -164 -194
-307 -297 -358 -59 -30 -151 -60 -158 -52 -12 11 59 172 98 222 40 53 116 116
204 171 48 31 177 93 183 88 1 -1 -12 -33 -30 -71z m337 -27 c89 -57 166 -128
205 -189 38 -58 87 -184 77 -195 -11 -10 -137 39 -195 77 -93 60 -188 183
-256 332 l-35 77 77 -35 c42 -19 99 -50 127 -67z m-1145 21 c22 -13 40 -25 40
-29 0 -3 -21 -15 -47 -28 -73 -35 -164 -104 -221 -166 -29 -31 -52 -61 -52
-66 0 -5 -4 -9 -9 -9 -12 0 -53 144 -45 163 13 34 124 104 218 138 66 23 70
23 116 -3z m1891 3 c111 -38 229 -114 229 -148 0 -8 -9 -46 -21 -84 l-21 -70
-62 68 c-69 75 -148 136 -224 173 -28 14 -52 27 -52 31 0 5 79 47 91 48 3 1
30 -7 60 -18z m-886 -220 c29 -44 30 -47 30 -170 0 -103 -4 -139 -22 -196 -21
-66 -109 -235 -122 -235 -13 0 -92 153 -118 227 -24 68 -27 94 -27 203 l-1
125 46 70 c26 39 59 94 74 124 l27 54 42 -79 c23 -43 55 -99 71 -123z m-734
122 l54 -7 -54 -7 c-150 -20 -338 -166 -418 -326 -46 -90 -44 -90 -87 -5 l-27
53 29 52 c70 126 311 269 423 252 14 -2 50 -7 80 -12z m1463 -15 c106 -41 250
-158 286 -232 l21 -44 -33 -66 c-18 -36 -35 -66 -39 -66 -4 0 -10 12 -14 28
-11 45 -63 128 -117 188 -98 107 -249 192 -346 195 -30 1 -25 4 28 14 77 15
147 9 214 -17z m-1341 5 c-7 -2 -21 -2 -30 0 -10 3 -4 5 12 5 17 0 24 -2 18
-5z m1030 0 c-7 -2 -21 -2 -30 0 -10 3 -4 5 12 5 17 0 24 -2 18 -5z m-1082
-92 c-6 -11 -47 -39 -91 -62 -145 -75 -268 -211 -314 -345 l-22 -65 -23 32
c-20 27 -23 39 -18 81 4 28 18 70 32 95 33 56 166 187 225 222 39 23 209 74
218 66 2 -2 -1 -12 -7 -24z m1284 -30 c41 -19 87 -54 146 -112 130 -128 169
-229 117 -301 l-21 -30 -18 59 c-23 75 -81 164 -150 232 -52 51 -201 151 -225
151 -10 0 -44 41 -44 53 0 11 142 -27 195 -52z m-1379 -202 c-25 -68 -44 -124
-42 -126 1 -2 59 17 129 42 70 25 127 42 127 39 0 -18 -84 -128 -140 -185 -71
-71 -127 -103 -213 -121 -65 -14 -96 -4 -123 38 -16 23 -16 33 -5 87 17 83 54
149 123 218 54 54 176 144 185 136 2 -2 -17 -60 -41 -128z m1388 35 c80 -66
134 -139 157 -215 27 -87 25 -120 -11 -154 -27 -25 -34 -27 -81 -22 -64 8
-161 53 -216 101 -43 38 -124 140 -149 188 l-14 28 127 -45 c69 -25 128 -43
130 -42 1 2 -17 61 -42 131 l-45 127 41 -23 c22 -12 69 -46 103 -74z m-977 -1
c-3 -10 -5 -4 -5 12 0 17 2 24 5 18 2 -7 2 -21 0 -30z m470 0 c-3 -10 -5 -4
-5 12 0 17 2 24 5 18 2 -7 2 -21 0 -30z m-558 -103 c-25 -108 -54 -155 -154
-257 -122 -124 -225 -163 -297 -111 l-30 21 53 17 c155 48 281 162 370 335 19
35 43 68 54 73 11 5 21 9 22 8 1 -1 -7 -40 -18 -86z m656 74 c14 -9 25 -22 25
-28 0 -23 99 -172 148 -223 66 -68 163 -130 236 -151 l58 -16 -28 -23 c-40
-31 -96 -30 -165 4 -76 38 -214 179 -250 258 -25 53 -63 195 -52 195 2 0 15
-7 28 -16z m-65 -164 c57 -143 233 -316 353 -345 15 -4 27 -10 27 -14 0 -4
-29 -21 -65 -39 -61 -30 -68 -31 -98 -18 -46 19 -101 69 -158 145 -97 127
-126 223 -106 351 l12 75 6 -50 c4 -27 17 -75 29 -105z m-487 66 c8 -80 -5
-161 -34 -218 -56 -111 -166 -235 -234 -264 -33 -13 -38 -12 -100 18 -36 18
-65 35 -65 39 0 3 17 11 38 17 151 46 353 279 370 428 7 63 18 54 25 -20z
m107 -286 c0 -25 -56 -166 -80 -202 -37 -53 -72 -88 -89 -87 -9 0 -47 10 -85
22 l-69 22 55 42 c61 46 140 145 189 236 l31 59 24 -39 c13 -21 23 -45 24 -53z
m280 81 c0 -5 19 -42 42 -83 26 -46 73 -105 129 -160 l87 -87 -68 -20 c-38
-12 -75 -21 -83 -21 -35 0 -115 127 -152 238 -17 53 -17 54 6 98 22 41 39 56
39 35z m-198 -248 c12 -35 25 -63 29 -63 4 0 19 34 34 75 15 41 29 75 31 75 2
0 19 -33 37 -73 18 -40 48 -89 67 -110 18 -21 29 -41 25 -45 -9 -9 -381 -9
-390 0 -4 4 7 24 25 45 18 20 49 70 68 111 39 82 39 82 74 -15z"/>
<path d="M1235 5628 c36 -163 174 -389 325 -531 87 -82 112 -88 38 -9 -112
122 -227 295 -310 470 -27 56 -52 102 -55 102 -2 0 -1 -15 2 -32z"/>
<path d="M1470 5595 c90 -100 364 -225 494 -225 47 0 21 14 -114 59 -135 46
-295 118 -344 154 -50 38 -63 42 -36 12z"/>
<path d="M917 5503 c-54 -74 -113 -194 -144 -290 -23 -75 -27 -106 -28 -203 0
-109 15 -200 34 -200 4 0 11 64 15 143 9 193 31 287 110 457 35 77 60 140 56
140 -5 0 -24 -21 -43 -47z"/>
<path d="M1110 5437 c0 -167 39 -351 107 -502 66 -146 92 -169 38 -32 -47 116
-78 242 -105 422 -25 161 -40 205 -40 112z"/>
<path d="M7230 5589 c-81 -176 -211 -377 -318 -491 -86 -91 -60 -87 35 5 137
132 249 306 303 470 31 95 20 103 -20 16z"/>
<path d="M7010 5593 c-58 -42 -248 -129 -370 -169 -139 -45 -159 -59 -72 -50
81 9 201 48 277 91 81 45 205 133 205 145 0 13 1 13 -40 -17z"/>
<path d="M7540 5542 c0 -5 24 -60 54 -123 86 -181 113 -297 117 -504 4 -168
36 -125 46 60 6 122 -17 235 -76 360 -52 111 -141 242 -141 207z"/>
<path d="M7376 5478 c-2 -7 -16 -92 -31 -188 -25 -164 -70 -330 -119 -442 -31
-72 1 -37 37 40 53 114 83 199 102 288 17 83 33 314 21 314 -4 0 -8 -6 -10
-12z"/>
<path d="M758 3648 c-8 -26 -13 -92 -12 -163 0 -109 3 -129 33 -217 44 -129
152 -318 182 -318 5 0 -4 26 -20 58 -59 116 -110 249 -125 325 -9 43 -19 141
-23 218 -3 76 -10 139 -14 139 -5 0 -14 -19 -21 -42z"/>
<path d="M1231 3589 c-80 -168 -121 -347 -121 -532 0 -86 16 -40 39 113 29
187 54 291 102 414 21 55 36 102 34 105 -3 2 -27 -43 -54 -100z"/>
<path d="M1566 3409 c-87 -80 -202 -233 -253 -339 -45 -93 -89 -217 -80 -226
3 -3 23 33 45 80 82 174 205 362 321 489 29 31 49 57 43 57 -5 0 -39 -27 -76
-61z"/>
<path d="M1915 3123 c-56 -8 -170 -45 -230 -76 -76 -38 -194 -117 -220 -148
l-20 -23 30 19 c96 61 153 89 266 134 69 27 153 58 187 67 90 25 82 40 -13 27z"/>
<path d="M7231 3638 c50 -122 89 -265 113 -414 14 -88 26 -169 26 -181 0 -12
5 -25 12 -29 8 -5 10 24 5 117 -10 183 -39 299 -117 465 -42 92 -72 123 -39
42z"/>
<path d="M7719 3685 c0 -6 -2 -26 -4 -45 -2 -19 -6 -82 -9 -138 -10 -175 -38
-277 -121 -442 -63 -126 -56 -150 14 -45 131 200 187 428 150 607 -10 49 -28
86 -30 63z"/>
<path d="M6915 3398 c89 -97 210 -279 287 -434 34 -69 64 -120 66 -114 6 17
-45 156 -89 240 -21 41 -68 113 -103 161 -64 85 -197 219 -217 219 -6 0 19
-33 56 -72z"/>
<path d="M6510 3124 c0 -5 54 -26 119 -47 137 -45 287 -110 351 -153 68 -46
77 -50 50 -19 -53 59 -227 158 -340 193 -76 23 -180 38 -180 26z"/>
<path d="M2335 2369 c-77 -43 -193 -78 -338 -99 -73 -11 -141 -22 -153 -25
-33 -7 -101 -58 -130 -95 -21 -29 -25 -43 -21 -83 7 -84 59 -117 184 -117 l78
0 -3 -67 c-5 -85 10 -134 49 -167 88 -75 236 22 254 166 27 216 56 332 115
448 42 83 42 83 -35 39z m-73 -126 c-15 -29 -49 -178 -67 -298 -22 -141 -39
-174 -92 -175 -61 -1 -88 100 -59 216 9 37 16 68 14 69 -2 2 -28 -3 -58 -11
-151 -39 -273 14 -214 94 23 30 42 35 254 73 69 12 147 30 175 39 27 10 51 16
53 15 2 -2 -1 -12 -6 -22z"/>
<path d="M1641 1719 c-71 -21 -139 -78 -159 -134 -16 -46 -33 -127 -28 -132 8
-8 119 19 157 38 60 30 126 149 117 212 -4 26 -34 31 -87 16z m19 -73 c0 -26
-46 -81 -83 -100 -21 -10 -40 -16 -43 -13 -13 12 34 81 71 103 46 27 55 29 55
10z"/>
<path d="M6102 2393 c2 -5 20 -43 40 -85 44 -90 73 -190 88 -308 19 -145 29
-179 60 -225 53 -78 132 -105 199 -70 43 22 61 70 61 164 l0 81 81 0 c94 0
142 18 164 61 35 67 8 146 -68 198 -53 36 -55 36 -217 61 -165 25 -222 41
-324 91 -85 42 -90 43 -84 32z m358 -182 c233 -42 228 -41 250 -69 66 -83 -54
-139 -210 -97 -30 8 -55 13 -57 12 -1 -2 4 -27 12 -57 40 -151 -10 -269 -91
-216 -34 23 -39 39 -64 195 -12 73 -31 168 -44 211 l-22 78 50 -18 c28 -9 107
-27 176 -39z"/>
<path d="M6774 1715 c-18 -47 51 -186 110 -220 28 -17 155 -49 163 -42 7 8
-25 135 -42 163 -42 72 -214 145 -231 99z m137 -86 c26 -18 65 -86 56 -96 -3
-2 -22 3 -41 12 -38 18 -68 53 -81 93 -6 22 -5 23 17 17 12 -4 35 -16 49 -26z"/>
<path d="M3115 1978 c-2 -7 -21 -62 -41 -123 -41 -125 -117 -292 -164 -359
-43 -63 -24 -58 26 7 100 128 175 297 190 427 6 54 0 80 -11 48z"/>
<path d="M3415 1599 c-89 -91 -271 -213 -465 -310 -123 -62 -127 -74 -12 -35
91 31 218 97 296 154 66 49 212 186 227 215 16 30 -5 19 -46 -24z"/>
<path d="M3650 1274 c-117 -50 -253 -88 -405 -115 -93 -16 -182 -29 -197 -29
-15 0 -30 -5 -34 -12 -10 -16 207 -4 309 17 91 19 208 60 299 106 69 34 73 37
67 43 -2 2 -20 -2 -39 -10z"/>
<path d="M2955 950 c13 -20 130 -94 210 -131 125 -59 238 -82 360 -76 113 6
194 25 160 37 -11 4 -56 8 -100 9 -207 4 -323 31 -504 117 -115 54 -137 62
-126 44z"/>
<path d="M5375 1933 c19 -151 128 -379 220 -463 31 -27 27 -18 -19 50 -43 64
-108 214 -153 351 -21 65 -42 119 -47 119 -4 0 -5 -26 -1 -57z"/>
<path d="M5030 1641 c0 -20 134 -153 219 -217 48 -35 124 -84 171 -108 88 -45
212 -90 231 -84 6 2 -46 32 -115 66 -155 77 -337 198 -434 287 -39 37 -72 62
-72 56z"/>
<path d="M4810 1281 c0 -11 157 -83 240 -111 103 -35 186 -50 319 -57 93 -5
122 -3 117 5 -4 7 -17 12 -29 12 -12 0 -93 12 -180 26 -153 25 -260 53 -399
107 -38 14 -68 22 -68 18z"/>
<path d="M5440 914 c-184 -89 -320 -121 -527 -125 -81 -2 -123 -12 -93 -23
136 -49 344 -27 516 53 122 57 246 142 207 141 -5 0 -51 -21 -103 -46z"/>
<path d="M2129 7730 c-161 -87 -157 -308 5 -392 57 -29 158 -23 214 15 129 85
129 279 0 365 -55 36 -164 42 -219 12z m171 -55 c52 -27 90 -87 90 -142 0 -15
-9 -46 -21 -69 -53 -110 -207 -118 -276 -14 -27 39 -31 116 -9 158 41 79 136
108 216 67z"/>
<path d="M6179 7730 c-125 -66 -161 -222 -76 -333 50 -66 171 -98 254 -66 74
28 133 118 133 204 0 85 -44 156 -122 196 -49 25 -140 25 -189 -1z m175 -58
c100 -57 106 -206 11 -268 -68 -44 -155 -34 -209 26 -79 87 -44 214 70 255 43
16 84 11 128 -13z"/>
<path d="M4223 7538 c-67 -74 -78 -178 -38 -347 43 -178 28 -259 -82 -437 -36
-60 -81 -133 -99 -162 -75 -123 -94 -254 -50 -347 30 -64 97 -131 161 -161 67
-32 198 -34 264 -3 71 31 125 82 161 151 61 113 44 216 -62 389 -195 318 -211
373 -164 558 28 112 33 210 15 272 -11 37 -63 109 -78 109 -4 0 -17 -10 -28
-22z m41 -123 c8 -38 -2 -105 -14 -105 -11 0 -18 59 -12 103 6 47 18 48 26 2z
m61 -682 c16 -26 47 -75 70 -108 72 -102 98 -162 103 -241 4 -65 2 -77 -24
-125 -34 -62 -88 -104 -162 -125 -151 -44 -311 76 -312 233 0 74 24 130 118
275 45 70 86 137 91 150 5 12 17 41 26 62 l17 39 22 -55 c13 -31 36 -78 51
-105z"/>
<path d="M4182 6533 c-47 -23 -75 -67 -79 -127 -7 -94 57 -166 146 -166 89 0
151 64 151 155 0 115 -116 189 -218 138z m132 -69 c36 -37 37 -104 1 -139 -37
-38 -95 -35 -129 6 -36 43 -35 91 3 130 39 38 88 40 125 3z"/>
<path d="M880 6474 c-46 -20 -87 -60 -112 -108 -30 -59 -23 -159 17 -215 89
-129 277 -128 362 1 38 56 44 157 15 214 -54 105 -179 153 -282 108z m170 -67
c48 -31 72 -78 72 -137 0 -64 -29 -112 -86 -139 -70 -34 -125 -25 -184 32 -58
56 -63 145 -12 209 46 59 150 76 210 35z"/>
<path d="M7443 6469 c-85 -42 -127 -118 -121 -215 13 -212 288 -275 402 -91
110 178 -93 399 -281 306z m167 -54 c43 -22 79 -76 86 -126 12 -95 -78 -186
-175 -176 -153 17 -196 233 -59 300 42 21 110 22 148 2z"/>
<path d="M2025 4551 c-69 -25 -104 -44 -228 -123 -118 -76 -175 -104 -252
-124 -72 -20 -120 -17 -242 12 -166 40 -284 25 -348 -46 l-20 -22 37 -32 c72
-63 181 -72 344 -31 54 14 115 25 134 25 89 0 207 -49 360 -148 165 -107 281
-150 363 -137 101 17 198 92 243 188 35 76 35 202 -1 274 -33 65 -97 129 -160
159 -62 30 -157 32 -230 5z m200 -70 c112 -50 174 -180 141 -293 -21 -74 -63
-128 -125 -162 -48 -26 -60 -28 -125 -24 -82 6 -129 26 -256 113 -84 58 -213
125 -239 125 -23 0 -2 14 59 40 30 12 111 59 179 103 69 44 145 88 170 98 60
24 145 24 196 0z m-1052 -221 c31 0 18 -18 -18 -24 -40 -8 -111 3 -98 14 11
11 54 19 78 14 11 -2 28 -4 38 -4z"/>
<path d="M2040 4358 c-57 -30 -82 -65 -87 -125 -11 -114 114 -196 219 -144 64
32 83 64 83 138 0 55 -3 65 -30 94 -33 34 -81 59 -118 59 -12 0 -43 -10 -67
-22z m106 -53 c39 -16 64 -61 56 -101 -7 -36 -57 -74 -99 -74 -68 0 -115 80
-82 141 9 18 59 47 82 49 4 0 23 -7 43 -15z"/>
<path d="M6246 4546 c-62 -31 -126 -94 -157 -154 -21 -40 -24 -61 -24 -147 0
-91 2 -104 28 -147 63 -108 166 -172 272 -171 85 1 158 31 314 127 167 103
201 120 278 140 80 21 122 20 213 -5 97 -27 225 -35 276 -19 48 15 114 58 114
75 0 18 -41 52 -90 74 -61 28 -146 27 -276 -4 -194 -46 -261 -30 -489 113
-179 112 -233 135 -330 139 -69 3 -87 0 -129 -21z m234 -69 c30 -13 97 -51
149 -86 51 -35 131 -81 178 -104 l86 -41 -35 -12 c-55 -19 -117 -53 -211 -116
-132 -89 -200 -118 -272 -118 -229 1 -334 281 -163 436 22 20 54 42 72 50 48
21 133 17 196 -9z m953 -217 c31 0 18 -18 -18 -24 -40 -8 -111 3 -98 14 11 11
54 19 78 14 11 -2 28 -4 38 -4z"/>
<path d="M6322 4383 c-74 -36 -105 -139 -62 -208 32 -51 74 -75 135 -75 91 0
155 62 155 151 0 111 -124 184 -228 132z m121 -55 c34 -18 46 -39 47 -81 0
-54 -35 -87 -93 -87 -34 0 -50 6 -71 26 -74 74 23 192 117 142z"/>
<path d="M907 2436 c-91 -25 -157 -114 -157 -211 0 -122 93 -215 215 -215 65
0 114 22 162 72 41 42 53 76 53 145 0 148 -130 247 -273 209z m103 -56 c75
-21 127 -110 110 -186 -37 -165 -265 -169 -310 -6 -20 75 34 170 108 190 50
13 52 13 92 2z"/>
<path d="M7484 2439 c-50 -12 -118 -68 -144 -120 -24 -47 -26 -125 -4 -177 34
-82 110 -132 199 -132 65 0 104 17 158 69 153 147 2 407 -209 360z m98 -59
c21 -6 51 -27 71 -50 57 -62 61 -140 10 -201 -98 -117 -283 -56 -283 93 0 78
34 128 107 154 47 16 49 16 95 4z"/>
<path d="M4132 2424 c-61 -23 -146 -104 -178 -171 -23 -50 -26 -66 -22 -133 5
-92 30 -150 140 -325 143 -228 159 -295 113 -489 -40 -170 -29 -273 37 -344
28 -29 40 -28 67 8 57 78 65 178 26 338 -29 121 -30 153 -9 235 19 73 56 148
129 262 108 167 154 287 140 364 -17 96 -82 185 -172 238 -40 23 -60 28 -138
30 -63 2 -103 -2 -133 -13z m224 -74 c130 -56 181 -208 115 -347 -16 -34 -58
-103 -92 -155 -35 -51 -77 -126 -95 -166 l-31 -72 -41 84 c-22 46 -68 126
-103 177 -35 52 -73 119 -86 149 -54 130 -9 260 109 321 77 40 144 42 224 9z
m-91 -1200 c7 -42 -1 -100 -14 -100 -12 0 -21 65 -14 105 7 46 20 44 28 -5z"/>
<path d="M4182 2243 c-47 -23 -75 -67 -79 -127 -7 -94 57 -166 146 -166 89 0
151 64 151 155 0 115 -116 189 -218 138z m132 -69 c36 -37 37 -104 1 -139 -27
-28 -88 -34 -116 -12 -47 36 -52 105 -10 148 39 38 88 40 125 3z"/>
<path d="M2133 1160 c-77 -39 -123 -113 -123 -195 0 -168 186 -276 327 -189
140 86 146 277 12 369 -57 40 -154 46 -216 15z m177 -62 c72 -50 95 -116 65
-194 -20 -53 -73 -93 -132 -100 -49 -7 -120 29 -150 75 -49 73 -19 186 59 224
49 24 118 22 158 -5z"/>
<path d="M6179 1160 c-54 -29 -106 -94 -118 -149 -25 -118 46 -229 168 -261
127 -33 261 76 261 215 0 89 -50 165 -132 199 -51 22 -134 20 -179 -4z m178
-60 c39 -23 62 -57 73 -105 25 -112 -95 -221 -204 -185 -49 16 -102 78 -111
129 -9 53 25 126 74 158 44 30 123 31 168 3z"/>
</g>
</svg>
