<?xml version="1.0" encoding="UTF-8" standalone="no"?>
<svg
   xmlns:dc="http://purl.org/dc/elements/1.1/"
   xmlns:cc="http://creativecommons.org/ns#"
   xmlns:rdf="http://www.w3.org/1999/02/22-rdf-syntax-ns#"
   xmlns:svg="http://www.w3.org/2000/svg"
   xmlns="http://www.w3.org/2000/svg"
   xmlns:sodipodi="http://sodipodi.sourceforge.net/DTD/sodipodi-0.dtd"
   xmlns:inkscape="http://www.inkscape.org/namespaces/inkscape"
   version="1.0"
   width="850.000000pt"
   height="850.000000pt"
   viewBox="0 0 850.000000 850.000000"
   preserveAspectRatio="xMidYMid meet"
   id="svg2"
   inkscape:version="0.91 r13725"
   sodipodi:docname="Mandala518_011.svg">
  <defs
     id="defs622" />
  <sodipodi:namedview
     pagecolor="#ffffff"
     bordercolor="#666666"
     borderopacity="1"
     objecttolerance="10"
     gridtolerance="10"
     guidetolerance="10"
     inkscape:pageopacity="0"
     inkscape:pageshadow="2"
     inkscape:window-width="1920"
     inkscape:window-height="980"
     id="namedview620"
     showgrid="false"
     inkscape:zoom="0.62824358"
     inkscape:cx="18.581836"
     inkscape:cy="756.55206"
     inkscape:window-x="0"
     inkscape:window-y="1"
     inkscape:window-maximized="1"
     inkscape:current-layer="svg2" />
  <metadata
     id="metadata4">
Created by potrace 1.14, written by Peter Selinger 2001-2017
<rdf:RDF>
  <cc:Work
     rdf:about="">
    <dc:format>image/svg+xml</dc:format>
    <dc:type
       rdf:resource="http://purl.org/dc/dcmitype/StillImage" />
  </cc:Work>
</rdf:RDF>
</metadata>
  <g
     transform="translate(0.000000,850.000000) scale(0.100000,-0.100000)"
     fill="#000000"
     stroke="none"
     id="g6">
    <path
       d="M0 4250 l0 -4250 4250 0 4250 0 0 4250 0 4250 -4250 0 -4250 0 0 -4250z m4106 4166 c130 -42 242 -127 308 -233 14 -24 38 -78 52 -120 23 -68 26 -90 22 -173 -3 -82 -9 -104 -36 -161 -37 -76 -117 -163 -198 -215 -58 -37 -172 -84 -204 -84 -34 0 -31 -17 13 -61 47 -47 175 -134 185 -125 3 4 13 37 23 74 109 430 471 753 962 859 125 27 443 24 549 -5 304 -83 508 -262 563 -493 20 -87 19 -161 -5 -254 -44 -174 -148 -279 -325 -331 -97 -29 -269 -23 -361 13 -22 8 -18 -37 11 -112 22 -58 72 -155 80 -155 2 0 30 27 61 61 333 348 915 431 1402 199 369 -176 592 -468 592 -776 0 -271 -215 -509 -465 -515 -27 -1 -13 -5 47 -15 247 -38 484 -161 685 -357 168 -164 288 -357 349 -562 35 -118 44 -304 20 -415 -42 -197 -176 -359 -348 -420 -135 -47 -252 -44 -363 10 l-60 30 40 -32 c78 -62 212 -204 262 -278 259 -386 312 -879 133 -1245 -57 -117 -118 -198 -196 -259 -146 -114 -307 -150 -480 -106 -176 45 -289 162 -334 345 -17 70 -14 229 4 290 9 28 16 54 16 59 0 19 -87 -5 -177 -48 l-95 -46 79 -83 c213 -221 313 -479 313 -801 0 -350 -127 -680 -349 -910 -310 -319 -706 -357 -950 -90 -61 67 -96 138 -113 233 l-13 72 -13 -81 c-87 -552 -640 -1049 -1170 -1050 -229 0 -427 97 -532 260 -102 158 -106 375 -11 513 74 108 248 226 356 243 25 3 45 10 45 14 0 5 -29 35 -64 67 -76 69 -164 121 -170 101 -3 -7 -10 -38 -17 -68 -67 -302 -298 -579 -617 -739 -356 -179 -793 -192 -1107 -34 -223 113 -364 320 -365 534 0 121 60 276 135 349 130 125 352 166 568 104 13 -4 17 1 17 21 0 31 -40 134 -77 200 l-25 46 -82 -79 c-216 -210 -478 -312 -800 -312 -350 0 -680 127 -910 349 -312 303 -356 684 -107 932 77 77 147 113 252 131 l74 12 -80 13 c-463 77 -878 449 -1021 918 -25 82 -28 104 -28 250 0 148 2 166 26 233 89 248 293 393 535 380 115 -6 205 -51 296 -148 72 -75 141 -201 153 -277 4 -24 10 -43 14 -43 24 0 161 175 172 219 2 8 -31 21 -92 37 -497 127 -862 643 -863 1219 0 498 270 860 643 860 242 0 417 -136 470 -365 23 -95 16 -220 -16 -332 -11 -38 93 -13 204 49 l63 35 -83 86 c-210 219 -308 473 -308 797 0 347 126 674 350 909 158 165 326 251 515 263 166 10 298 -40 415 -157 77 -77 115 -149 132 -251 l12 -74 12 76 c41 242 163 476 348 667 158 163 326 273 515 336 145 48 194 56 336 52 96 -3 136 -9 201 -30z"
       id="path8"
       style="fill:none" />
    <path
       d="M4050 8343 c290 -144 368 -506 158 -730 -29 -31 -73 -69 -97 -85 -59 -37 -30 -36 47 2 84 43 163 125 209 218 36 72 38 81 38 171 0 90 -2 101 -37 173 -62 131 -172 227 -306 268 -92 29 -95 25 -12 -17z"
       id="path10"
       style="fill:#66ff00" />
    <path
       d="M3665 8322 c-28 -10 -71 -30 -97 -44 -54 -32 -153 -137 -187 -199 l-25 -44 62 57 c274 252 669 169 742 -157 45 -199 -182 -390 -365 -306 -139 63 -150 266 -15 266 l39 0 -21 22 c-26 27 -66 30 -114 7 -96 -46 -89 -205 12 -294 112 -98 274 -102 404 -11 261 182 163 589 -168 700 -77 26 -196 28 -267 3z"
       id="path12"
       style="fill:#66ffff" />
    <path
       d="M3412 8263 c-229 -133 -393 -339 -453 -568 -32 -120 -30 -298 4 -428 69 -260 222 -456 506 -646 115 -77 261 -164 266 -159 3 2 0 31 -5 64 -6 32 -10 95 -10 139 0 79 -1 81 -29 98 -72 43 -197 143 -271 219 -185 187 -270 380 -270 613 0 230 93 442 283 642 38 40 68 73 65 73 -2 0 -41 -21 -86 -47z"
       id="path14"
       style="fill:#009900" />
    <path
       d="M3651 8150 c-179 -64 -324 -237 -366 -436 -19 -89 -19 -232 0 -313 15 -62 83 -207 93 -197 2 3 19 42 37 86 l33 82 -18 41 c-85 194 -27 476 126 617 99 91 246 122 340 73 84 -45 144 -155 128 -237 -16 -89 -102 -166 -185 -166 -26 0 -30 -3 -19 -10 8 -5 35 -10 60 -10 58 0 115 33 154 88 26 37 31 54 34 117 5 86 -17 143 -76 202 -81 81 -219 107 -341 63z"
       id="path16"
       style="fill:#00ff66" />
    <path
       d="M5429 8140 c-154 -14 -308 -66 -433 -147 -191 -123 -317 -317 -368 -563 -16 -77 -19 -120 -15 -225 6 -148 29 -240 102 -413 45 -108 185 -372 197 -372 3 0 14 22 22 48 9 26 36 83 60 125 l44 78 -43 92 c-141 302 -169 555 -89 796 65 197 223 371 429 474 74 36 198 81 262 93 l38 8 -40 7 c-46 9 -50 9 -166 -1z"
       id="path18"
       style="fill:#009900" />
    <path
       d="M5610 8073 c-63 -10 -229 -77 -218 -88 1 -1 32 3 68 11 330 70 622 -160 570 -448 -14 -74 -31 -111 -74 -156 -92 -99 -256 -116 -359 -38 -78 60 -107 149 -73 231 28 66 119 93 157 46 19 -23 19 -23 19 -2 0 60 -77 103 -144 81 -102 -33 -137 -174 -75 -298 33 -68 66 -100 143 -140 45 -23 63 -26 146 -27 82 0 103 4 151 26 75 35 134 96 172 177 30 63 32 74 32 177 0 106 -1 113 -37 188 -93 193 -277 294 -478 260z"
       id="path20"
       style="fill:#66ffff" />
    <path
       d="M3684 8052 c-85 -40 -155 -126 -195 -238 -29 -83 -30 -212 -1 -274 l20 -45 1 39 c1 38 1 39 21 21 11 -10 85 -50 165 -90 l145 -72 0 28 c0 24 -8 32 -54 54 -67 32 -148 103 -181 159 -13 22 -31 68 -40 101 -58 223 194 408 347 255 34 -34 38 -43 38 -90 0 -47 -4 -56 -39 -91 -32 -32 -45 -39 -79 -39 -42 0 -72 19 -72 46 0 10 7 13 25 8 27 -7 33 4 13 24 -32 32 -68 -11 -48 -58 24 -57 110 -64 171 -13 85 72 74 196 -23 260 -54 36 -153 43 -214 15z"
       id="path22"
       style="fill:#00cc99" />
    <path
       d="M3831 7952 c17 -15 34 -43 39 -62 l8 -35 1 33 c1 25 -7 41 -28 63 -16 16 -34 29 -40 29 -6 0 3 -12 20 -28z"
       id="path24"
       style="fill:#00cccc" />
    <path
       d="M6087 7950 c74 -88 123 -220 123 -334 0 -124 -39 -225 -123 -313 -85 -90 -202 -142 -322 -144 -44 0 -47 -2 -25 -10 14 -6 68 -9 120 -7 85 3 104 8 170 39 134 64 201 145 236 280 40 157 -21 348 -152 469 -27 25 -39 34 -27 20z"
       id="path26"
       style="fill:#66ff00" />
    <path
       d="M4733 7857 c-164 -168 -241 -356 -251 -609 -9 -243 62 -497 216 -774 44 -77 47 -81 103 -101 l59 -21 -31 51 c-124 215 -208 401 -249 557 -31 117 -38 321 -16 447 30 175 117 368 215 476 62 68 26 48 -46 -26z"
       id="path28"
       style="fill:#00ff66" />
    <path
       d="M5442 7915 c-107 -30 -183 -76 -273 -165 -73 -73 -94 -100 -132 -180 -51 -107 -67 -171 -67 -266 l0 -66 48 40 c26 21 59 47 75 57 18 11 27 26 27 44 0 43 27 131 61 200 39 79 160 204 238 245 221 117 464 37 487 -160 17 -138 -92 -256 -222 -241 -25 2 -59 15 -76 27 l-30 22 17 -26 c20 -30 90 -66 131 -66 53 0 105 21 145 57 61 55 83 105 83 188 1 124 -62 217 -184 274 -47 22 -71 26 -165 28 -74 2 -127 -2 -163 -12z"
       id="path30"
       style="fill:#00ff66" />
    <path
       d="M5550 7814 c-142 -39 -278 -173 -310 -304 -14 -59 -8 -87 10 -47 17 35 23 34 39 -8 6 -19 37 -69 67 -111 31 -43 68 -99 83 -126 l28 -49 13 30 c11 28 10 35 -22 83 -80 120 -95 262 -41 375 86 183 364 186 413 4 29 -109 -78 -203 -177 -155 -31 15 -39 25 -41 52 -2 18 1 32 7 32 6 0 11 -4 11 -10 0 -5 7 -10 15 -10 20 0 19 36 -1 44 -25 10 -54 -22 -54 -60 0 -50 46 -84 113 -84 155 0 212 173 96 289 -61 61 -153 82 -249 55z"
       id="path32"
       style="fill:#00cc99" />
    <path
       d="M2050 7720 c-25 -5 -56 -13 -70 -19 -20 -8 -11 -9 40 -5 77 7 187 -14 266 -50 107 -49 213 -177 244 -295 26 -98 9 -235 -42 -336 l-20 -40 26 25 c15 13 44 58 64 99 37 74 37 76 37 200 0 119 -2 129 -29 180 -95 182 -303 278 -516 241z"
       id="path34"
       style="fill:#66ffff" />
    <path
       d="M2883 7688 c-59 -168 -61 -377 -7 -551 33 -105 101 -237 167 -324 105 -139 295 -302 481 -412 l83 -49 59 12 58 12 -84 48 c-415 238 -631 476 -724 798 -44 152 -52 345 -21 471 10 37 1 34 -12 -5z"
       id="path36"
       style="fill:#00ff66" />
    <path
       d="M4516 7679 c-41 -48 -109 -175 -137 -257 -20 -57 -49 -180 -49 -207 0 -12 66 -55 83 -55 3 0 8 37 12 83 13 162 64 355 116 445 25 43 18 40 -25 -9z"
       id="path38"
       style="fill:#66ff00" />
    <path
       d="M5736 7676 c15 -38 15 -57 -1 -101 -7 -20 -6 -20 9 -1 22 28 20 89 -4 117 l-20 24 16 -39z"
       id="path40"
       style="fill:#00cccc" />
    <path
       d="M1950 7619 c-73 -12 -165 -58 -219 -110 -90 -87 -134 -190 -146 -340 l-6 -84 29 82 c37 104 76 165 152 237 169 161 393 164 550 6 37 -36 60 -69 68 -96 42 -145 -22 -295 -151 -349 -46 -19 -129 -19 -166 0 -38 19 -78 68 -86 104 -10 46 18 100 55 108 38 7 21 23 -25 23 -62 0 -111 -63 -102 -132 8 -58 47 -109 108 -143 46 -25 65 -29 129 -30 93 0 167 33 230 101 68 74 95 143 95 244 0 76 -4 93 -32 151 -59 120 -181 206 -323 228 -73 12 -83 12 -160 0z"
       id="path42"
       style="fill:#66ffff" />
    <path
       d="M3554 7434 c0 -16 -4 -90 -9 -165 -9 -149 3 -232 35 -249 16 -8 16 -5 7 33 -6 29 -5 76 4 151 l14 109 58 -58 c32 -32 66 -74 76 -94 17 -32 19 -33 25 -14 13 39 -46 133 -165 267 -44 48 -44 48 -45 20z"
       id="path44"
       style="fill:#00cccc" />
    <path
       d="M1929 7436 c-119 -42 -218 -169 -260 -333 -37 -145 -19 -282 57 -441 36 -74 60 -109 117 -166 63 -63 162 -135 172 -124 2 2 -2 42 -9 90 -12 80 -16 89 -47 115 -138 114 -209 257 -217 434 -5 116 13 190 64 266 102 149 268 177 385 63 83 -80 90 -176 21 -269 -13 -18 -39 -39 -56 -47 -19 -8 -24 -13 -13 -14 50 -1 125 57 146 113 16 41 13 132 -5 175 -38 93 -136 152 -249 151 -38 0 -86 -6 -106 -13z"
       id="path46"
       style="fill:#00ff66" />
    <path
       d="M3679 7380 c30 -36 66 -86 80 -112 30 -54 38 -58 47 -23 10 40 -38 98 -136 167 l-45 32 54 -64z"
       id="path48"
       style="fill:#00cccc" />
    <path
       d="M2767 7366 c-20 -138 3 -336 52 -467 l21 -56 48 5 c26 2 48 6 50 7 1 1 -18 44 -42 96 -54 114 -92 242 -109 369 -13 94 -13 95 -20 46z"
       id="path50"
       style="fill:#66ff00" />
    <path
       d="M1530 7331 c-50 -84 -101 -204 -124 -291 -27 -99 -32 -288 -12 -389 41 -202 150 -375 324 -512 135 -108 280 -171 468 -203 83 -15 362 -36 476 -36 l47 0 -50 67 c-28 36 -64 90 -81 119 -32 58 -24 55 -181 69 -174 16 -373 80 -501 159 -327 204 -455 579 -342 1002 13 46 22 84 20 84 -2 0 -21 -31 -44 -69z"
       id="path52"
       style="fill:#009900" />
    <path
       d="M3493 7302 c-30 -107 -36 -153 -24 -185 16 -42 31 -33 25 16 -3 23 2 87 10 141 9 54 15 100 13 102 -1 2 -12 -32 -24 -74z"
       id="path54"
       style="fill:#00cccc" />
    <path
       d="M5178 7260 c-109 -163 -143 -241 -120 -278 6 -8 12 -1 19 23 11 34 131 214 144 215 11 0 42 -141 42 -189 l0 -44 19 23 c25 30 23 124 -5 260 l-22 105 -77 -115z"
       id="path56"
       style="fill:#00cccc" />
    <path
       d="M3932 7278 c-74 -323 -38 -631 102 -878 21 -37 34 -47 77 -62 48 -16 51 -16 44 0 -59 144 -85 289 -85 471 l0 135 63 -61 c34 -33 116 -99 183 -146 137 -97 229 -183 280 -262 19 -30 39 -55 44 -55 14 0 14 2 -28 82 -21 40 -53 107 -71 148 -30 66 -46 87 -144 180 -322 304 -382 376 -418 498 -7 23 -15 42 -19 42 -4 0 -16 -42 -28 -92z"
       id="path58"
       style="fill:#3399ff" />
    <path
       d="M1945 7333 c-87 -45 -135 -132 -143 -254 -8 -136 34 -256 120 -342 51 -51 73 -57 44 -13 -18 29 -21 40 -6 31 6 -4 91 -3 190 1 l180 7 -19 26 c-18 24 -23 25 -97 23 -195 -7 -361 112 -372 266 -5 75 11 134 51 179 77 87 204 96 265 18 62 -78 -12 -234 -93 -197 -30 14 -33 32 -4 32 12 0 19 5 17 13 -3 6 -16 12 -29 12 -32 0 -37 -37 -10 -64 42 -42 123 -14 154 52 38 80 8 175 -66 211 -45 21 -142 20 -182 -1z"
       id="path60"
       style="fill:#00cc99" />
    <path
       d="M4020 7324 c0 -16 64 -119 106 -169 41 -49 334 -310 334 -297 0 32 -32 149 -42 155 -177 104 -305 201 -363 276 -19 24 -35 40 -35 35z"
       id="path62"
       style="fill:#33ccff" />
    <path
       d="M5108 7261 c-62 -56 -109 -136 -99 -165 6 -16 9 -14 21 15 8 19 43 71 77 117 35 45 61 82 59 82 -2 0 -29 -22 -58 -49z"
       id="path64"
       style="fill:#00cccc" />
    <path
       d="M5315 7285 c18 -114 26 -190 22 -211 -5 -27 0 -29 27 -9 16 12 18 22 12 72 -4 32 -20 85 -36 118 -22 43 -29 52 -25 30z"
       id="path66"
       style="fill:#00cccc" />
    <path
       d="M2673 7229 c-17 -89 -80 -212 -148 -287 -32 -35 -56 -65 -53 -67 14 -14 135 -35 205 -35 l82 0 -19 54 c-29 84 -42 162 -49 285 l-6 115 -12 -65z"
       id="path68"
       style="fill:#66ffff" />
    <path
       d="M2022 7251 c42 -9 88 -36 88 -53 0 -6 2 -9 5 -6 11 11 -8 39 -36 53 -15 8 -43 14 -61 14 l-33 -1 37 -7z"
       id="path70"
       style="fill:#00cccc" />
    <path
       d="M6490 7139 c-208 -54 -398 -193 -526 -385 -131 -197 -199 -441 -210 -754 l-5 -145 39 -43 39 -44 6 199 c10 357 66 569 198 765 129 190 284 318 474 393 106 42 103 45 -15 14z"
       id="path72"
       style="fill:#00ff66" />
    <path
       d="M3650 7119 c0 -43 27 -139 45 -158 11 -11 14 -5 20 37 7 52 -2 79 -44 132 l-21 25 0 -36z"
       id="path74"
       style="fill:#00cccc" />
    <path
       d="M3836 7073 c-46 -209 -42 -449 9 -612 23 -73 27 -79 56 -85 39 -8 89 -8 89 0 0 3 -11 24 -24 47 -36 62 -93 240 -107 335 -6 48 -10 147 -7 237 2 85 3 155 2 155 0 0 -9 -35 -18 -77z"
       id="path76"
       style="fill:#33ccff" />
    <path
       d="M6690 7113 c-76 -13 -184 -49 -254 -86 -275 -143 -453 -409 -505 -753 -10 -67 -13 -115 -26 -377 l-5 -109 41 34 c23 18 78 56 123 83 l81 51 6 91 c16 225 84 438 189 593 54 80 177 192 262 239 150 84 342 122 518 102 82 -9 198 -34 265 -56 l20 -7 -20 17 c-36 30 -179 103 -252 128 -132 48 -328 69 -443 50z"
       id="path78"
       style="fill:#009900" />
    <path
       d="M5499 7043 c-138 -148 -257 -342 -309 -503 -29 -90 -50 -219 -50 -303 0 -66 2 -72 35 -108 19 -22 35 -37 35 -35 0 31 38 188 60 249 29 79 114 246 153 301 l20 28 18 -70 c10 -38 45 -129 78 -201 78 -170 111 -275 119 -380 5 -54 12 -86 20 -89 9 -3 12 15 12 68 0 39 5 113 10 164 13 110 5 148 -85 426 -75 232 -90 367 -55 490 5 16 7 30 5 30 -1 0 -31 -30 -66 -67z"
       id="path80"
       style="fill:#3399ff" />
    <path
       d="M6150 7064 c-104 -50 -182 -108 -278 -208 l-82 -86 26 -40 c15 -22 30 -40 34 -40 3 0 32 37 63 83 65 95 174 210 261 274 72 53 72 53 60 53 -5 0 -43 -16 -84 -36z"
       id="path82"
       style="fill:#66ff00" />
    <path
       d="M5158 7010 c-27 -56 -47 -151 -32 -149 5 0 22 16 37 34 25 31 28 40 25 102 l-3 68 -27 -55z"
       id="path84"
       style="fill:#00cccc" />
    <path
       d="M5587 7003 c-24 -24 13 -216 80 -413 31 -91 59 -171 63 -179 4 -8 17 15 32 62 l25 75 -30 49 c-55 88 -118 231 -141 323 -12 49 -26 87 -29 83z"
       id="path86"
       style="fill:#33ccff" />
    <path
       d="M5283 6878 c-94 -112 -145 -189 -204 -311 -47 -98 -96 -255 -86 -280 2 -7 25 -26 49 -44 l45 -32 6 92 c13 196 98 416 230 595 61 84 37 71 -40 -20z"
       id="path88"
       style="fill:#33ccff" />
    <path
       d="M3565 6940 c6 -9 151 -110 159 -110 3 0 6 7 6 15 0 8 -3 15 -8 15 -4 0 -42 20 -85 44 -42 24 -75 41 -72 36z"
       id="path90"
       style="fill:#00cccc" />
    <path
       d="M7165 6892 c150 -53 268 -153 328 -279 29 -61 32 -78 32 -158 0 -82 -3 -97 -32 -155 -60 -122 -151 -190 -256 -193 -115 -2 -215 53 -261 144 -58 117 -12 247 96 273 44 10 95 -17 106 -56 l9 -33 12 29 c32 79 -75 161 -161 125 -104 -43 -161 -157 -138 -276 21 -114 88 -200 198 -251 49 -23 70 -27 147 -27 79 0 97 3 145 28 262 134 319 510 108 717 -84 82 -183 122 -338 134 l-75 6 80 -28z"
       id="path92"
       style="fill:#66ffff" />
    <path
       d="M5010 6908 c0 -3 17 -43 39 -89 27 -58 41 -79 45 -68 4 10 -10 43 -39 89 -25 41 -45 71 -45 68z"
       id="path94"
       style="fill:#00cccc" />
    <path
       d="M6834 6836 c-194 -45 -370 -170 -446 -319 l-20 -40 33 7 c18 3 57 9 87 13 51 6 58 10 131 83 126 127 275 187 447 178 75 -4 104 -11 157 -36 119 -55 187 -147 187 -252 0 -214 -257 -310 -377 -141 -14 20 -23 28 -19 18 3 -10 6 -25 6 -32 0 -21 58 -83 94 -102 45 -24 141 -22 192 4 132 69 186 234 122 373 -45 100 -150 184 -286 229 -82 28 -226 36 -308 17z"
       id="path96"
       style="fill:#00ff66" />
    <path
       d="M2436 6794 c16 -69 69 -214 104 -289 90 -189 244 -370 405 -475 72 -46 84 -51 119 -45 70 11 71 17 8 68 -31 27 -89 86 -127 131 -70 83 -202 292 -192 303 3 3 27 -2 54 -11 26 -8 89 -20 138 -25 50 -6 134 -15 188 -22 117 -13 220 -40 302 -79 32 -16 63 -26 67 -24 5 3 -40 38 -99 77 -60 40 -121 82 -138 95 -37 27 -123 52 -336 97 -249 53 -352 94 -451 183 -49 44 -49 45 -42 16z"
       id="path98"
       style="fill:#3399ff" />
    <path
       d="M2555 6768 c78 -49 191 -85 383 -123 97 -19 180 -35 185 -35 4 0 -16 27 -45 60 l-52 60 -112 0 c-123 0 -247 18 -338 50 -78 27 -80 25 -21 -12z"
       id="path100"
       style="fill:#33ccff" />
    <path
       d="M4160 6683 c0 -60 27 -170 56 -231 l27 -57 13 45 c7 25 18 65 24 89 l12 44 36 -40 c48 -52 78 -69 130 -77 l44 -7 -20 29 c-35 49 -108 110 -212 177 -55 36 -103 65 -105 65 -3 0 -5 -17 -5 -37z"
       id="path102"
       style="fill:#3399ff" />
    <path
       d="M2197 6672 c45 -16 102 -41 127 -56 l46 -27 0 26 c0 37 -83 74 -182 81 l-73 5 82 -29z"
       id="path104"
       style="fill:#00cccc" />
    <path
       d="M6931 6684 c-74 -20 -146 -61 -198 -113 -48 -48 -50 -60 -6 -38 l28 15 1 -87 c1 -179 8 -290 19 -284 38 22 42 33 37 102 -9 125 53 270 142 330 106 72 221 68 311 -11 51 -45 69 -92 62 -155 -13 -114 -133 -168 -217 -97 -37 32 -46 70 -23 96 17 19 17 19 25 -3 8 -21 10 -21 25 -6 13 13 14 19 3 31 -19 24 -46 19 -69 -10 -77 -98 99 -216 209 -141 51 34 75 82 74 148 -2 175 -205 282 -423 223z"
       id="path106"
       style="fill:#00cc99" />
    <path
       d="M2050 6675 c0 -15 132 -269 155 -300 24 -31 71 -65 89 -65 3 0 -8 19 -25 43 -29 41 -112 217 -106 224 7 7 154 -40 184 -59 30 -18 33 -18 33 -2 0 9 -8 23 -17 31 -35 27 -140 76 -222 104 -92 32 -91 31 -91 24z"
       id="path108"
       style="fill:#00cccc" />
    <path
       d="M1345 6550 c36 -250 236 -511 495 -645 191 -98 456 -156 712 -155 l93 1 43 38 44 38 -204 6 c-217 6 -331 21 -473 62 -315 91 -583 338 -692 635 -23 62 -24 63 -18 20z"
       id="path110"
       style="fill:#00ff66" />
    <path
       d="M2060 6551 c0 -7 7 -41 16 -75 20 -79 59 -146 84 -146 18 0 18 2 -4 35 -13 19 -39 70 -56 113 -35 83 -40 92 -40 73z"
       id="path112"
       style="fill:#00cccc" />
    <path
       d="M2461 6553 c-2 -26 64 -194 112 -287 27 -54 76 -133 107 -175 58 -79 163 -181 183 -180 7 0 34 10 60 22 l48 22 -76 50 c-148 97 -305 286 -395 478 -21 45 -39 77 -39 70z"
       id="path114"
       style="fill:#33ccff" />
    <path
       d="M7697 6475 c15 -256 -146 -472 -385 -515 -84 -15 -185 0 -272 41 l-64 30 24 -26 c39 -42 156 -94 236 -105 140 -19 264 21 358 114 120 120 167 325 113 496 l-14 45 4 -80z"
       id="path116"
       style="fill:#66ff00" />
    <path
       d="M7252 6483 c-1 -29 -10 -51 -29 -74 -24 -29 -25 -31 -5 -20 31 17 44 46 39 94 l-4 42 -1 -42z"
       id="path118"
       style="fill:#00cccc" />
    <path
       d="M2310 6414 c27 -39 108 -110 116 -101 2 1 -4 23 -12 49 -13 38 -23 50 -64 72 -67 37 -76 33 -40 -20z"
       id="path120"
       style="fill:#00cccc" />
    <path
       d="M4326 6419 c-3 -18 -6 -84 -6 -149 0 -117 21 -238 52 -292 11 -21 14 -15 24 62 7 47 13 129 13 183 1 97 0 99 -38 162 l-39 65 -6 -31z"
       id="path122"
       style="fill:#3399ff" />
    <path
       d="M6503 6430 c-104 -27 -173 -66 -173 -97 0 -9 12 -6 38 12 21 14 78 41 127 61 126 51 128 55 8 24z"
       id="path124"
       style="fill:#00cccc" />
    <path
       d="M6533 6381 c-126 -63 -213 -127 -213 -158 0 -18 15 -16 31 4 15 18 219 116 227 109 7 -8 -37 -147 -59 -184 l-19 -33 21 3 c29 4 82 94 118 198 40 117 44 130 34 129 -4 -1 -67 -32 -140 -68z"
       id="path126"
       style="fill:#00cccc" />
    <path
       d="M5372 6363 c-37 -91 -51 -151 -52 -212 l0 -43 64 68 63 69 12 -53 c15 -70 34 -106 71 -132 17 -12 33 -21 35 -19 1 2 -1 30 -7 61 -8 48 -138 338 -151 338 -2 0 -18 -35 -35 -77z"
       id="path128"
       style="fill:#3399ff" />
    <path
       d="M4440 6406 c0 -3 11 -39 25 -80 14 -41 41 -168 60 -284 46 -275 75 -366 153 -485 21 -32 66 -67 86 -67 3 0 -6 24 -19 53 -40 87 -73 232 -98 432 -13 105 -23 191 -22 193 2 2 45 -25 96 -60 124 -84 213 -169 290 -278 35 -50 66 -90 69 -90 3 0 13 18 22 40 l16 40 -88 118 c-141 189 -284 311 -503 427 -48 26 -87 44 -87 41z"
       id="path130"
       style="fill:#3366cc" />
    <path
       d="M6676 6313 c-10 -32 -33 -86 -51 -120 l-33 -63 25 0 c20 0 29 10 50 56 22 49 45 184 31 184 -2 0 -12 -26 -22 -57z"
       id="path132"
       style="fill:#00cccc" />
    <path
       d="M4630 6355 c0 -2 25 -18 55 -35 139 -79 324 -249 418 -382 23 -32 44 -58 47 -58 3 0 13 13 23 28 l16 29 -53 64 c-118 143 -287 267 -468 342 -21 9 -38 14 -38 12z"
       id="path134"
       style="fill:#3399ff" />
    <path
       d="M2939 6333 c39 -71 210 -237 227 -221 3 3 -6 43 -20 88 l-25 82 22 -7 c94 -30 162 -30 202 -1 18 13 13 16 -49 35 -43 13 -120 25 -205 31 -176 13 -164 13 -152 -7z"
       id="path136"
       style="fill:#3399ff" />
    <path
       d="M833 6265 c-90 -20 -190 -76 -254 -142 -47 -49 -49 -52 -14 -25 197 152 457 148 630 -10 83 -75 144 -213 146 -328 1 -78 18 -14 18 71 2 191 -109 362 -273 420 -75 26 -177 32 -253 14z"
       id="path138"
       style="fill:#66ff00" />
    <path
       d="M3560 6270 c-42 -7 -40 -7 25 -8 168 -4 360 -44 512 -107 130 -54 123 -53 123 -12 0 35 -1 36 -78 66 -127 48 -260 71 -409 69 -70 0 -148 -4 -173 -8z"
       id="path140"
       style="fill:#3399ff" />
    <path
       d="M1411 6200 c46 -122 149 -265 258 -357 l62 -52 40 26 c21 14 39 28 39 32 0 3 -27 23 -59 44 -125 80 -248 201 -343 337 -15 21 -14 16 3 -30z"
       id="path142"
       style="fill:#00cccc" />
    <path
       d="M2380 6230 c80 -12 130 -11 130 0 0 6 -37 9 -92 9 -87 -2 -89 -2 -38 -9z"
       id="path144"
       style="fill:#00cccc" />
    <path
       d="M3393 6159 c38 -34 126 -132 196 -218 71 -86 161 -187 201 -224 87 -80 209 -147 258 -139 l31 4 -57 43 c-85 64 -167 153 -296 323 l-115 152 33 0 c76 0 246 -22 316 -41 41 -11 117 -40 169 -65 52 -24 95 -43 96 -42 1 2 0 23 -4 47 l-6 44 -108 49 c-208 93 -376 128 -627 128 l-155 0 68 -61z"
       id="path146"
       style="fill:#3366cc" />
    <path
       d="M6405 6181 c-36 -26 -99 -101 -92 -108 2 -1 25 4 51 13 40 14 50 23 71 65 37 71 32 76 -30 30z"
       id="path148"
       style="fill:#00cccc" />
    <path
       d="M3220 6192 c0 -22 100 -204 143 -259 43 -56 124 -133 140 -133 17 0 -89 232 -134 295 -18 24 -42 48 -53 51 -12 4 -38 18 -58 31 -21 13 -38 20 -38 15z"
       id="path150"
       style="fill:#3399ff" />
    <path
       d="M6227 6081 c-4 -46 -5 -86 -2 -89 15 -16 22 21 16 93 l-6 80 -8 -84z"
       id="path152"
       style="fill:#00cccc" />
    <path
       d="M765 6117 c-78 -20 -170 -74 -225 -133 -137 -145 -158 -347 -55 -541 20 -37 34 -61 31 -52 -19 67 -28 151 -23 222 17 249 174 417 391 417 106 0 169 -22 226 -79 102 -102 110 -280 17 -379 -92 -100 -265 -74 -284 41 -4 29 -1 40 20 61 30 30 14 35 -33 11 -34 -17 -55 -72 -46 -119 7 -36 57 -89 99 -105 16 -6 56 -11 89 -11 147 0 272 129 286 295 11 148 -73 287 -216 352 -66 31 -198 40 -277 20z"
       id="path154"
       style="fill:#66ffff" />
    <path
       d="M5372 6050 c-81 -110 -159 -300 -150 -364 2 -17 18 -1 74 74 40 52 85 122 102 155 27 54 29 66 23 127 l-6 66 -43 -58z"
       id="path156"
       style="fill:#3399ff" />
    <path
       d="M4467 6040 c-31 -216 -3 -457 57 -479 24 -9 96 -21 96 -17 0 2 -11 24 -25 49 -51 91 -89 227 -110 397 -10 89 -12 92 -18 50z"
       id="path158"
       style="fill:#3399ff" />
    <path
       d="M6690 6031 c-307 -102 -535 -273 -680 -509 -32 -53 -33 -55 -21 -108 l12 -54 38 48 c60 75 167 170 265 234 79 52 177 108 189 108 2 0 -4 -24 -14 -54 -10 -29 -25 -123 -34 -207 -25 -244 -44 -329 -101 -440 -13 -27 -20 -50 -14 -54 5 -3 16 7 24 22 8 15 48 77 90 136 86 123 96 151 150 403 56 264 96 365 187 467 22 26 37 47 32 47 -4 -1 -60 -18 -123 -39z"
       id="path160"
       style="fill:#3399ff" />
    <path
       d="M4291 6030 c-1 -22 36 -172 50 -203 7 -15 16 -27 21 -27 16 0 8 61 -13 103 -12 23 -30 64 -40 92 -10 27 -18 43 -18 35z"
       id="path162"
       style="fill:#3399ff" />
    <path
       d="M6475 6016 c-181 -58 -377 -175 -492 -292 -40 -41 -73 -78 -73 -83 0 -4 10 -32 23 -61 l23 -52 45 68 c58 91 195 228 291 292 65 44 218 127 268 145 13 5 13 5 0 6 -8 0 -46 -10 -85 -23z"
       id="path164"
       style="fill:#33ccff" />
    <path
       d="M5473 5937 c-12 -52 -51 -172 -87 -268 -36 -96 -74 -208 -85 -249 -38 -144 -39 -286 -1 -332 17 -21 17 -20 29 62 7 47 24 119 37 161 24 75 155 394 168 406 7 8 97 -181 125 -263 21 -64 36 -150 47 -266 l6 -68 36 25 c34 23 36 27 33 77 -4 92 -31 256 -57 346 -27 95 -118 288 -186 395 l-44 67 -21 -93z"
       id="path166"
       style="fill:#3366cc" />
    <path
       d="M6872 6013 c-17 -33 -32 -123 -32 -197 l0 -73 79 23 c91 26 204 43 299 45 37 1 56 4 42 6 -101 17 -236 84 -319 159 -53 49 -61 53 -69 37z"
       id="path168"
       style="fill:#66ffff" />
    <path
       d="M6771 5947 c-32 -53 -68 -139 -86 -207 -13 -48 -75 -354 -75 -368 0 -2 26 19 59 47 l58 50 6 148 c6 142 30 282 58 335 18 34 2 31 -20 -5z"
       id="path170"
       style="fill:#33ccff" />
    <path
       d="M3830 5964 c0 -14 94 -125 156 -185 84 -79 167 -137 276 -189 117 -57 127 -54 78 21 -22 34 -50 93 -62 132 -25 78 -32 83 -167 152 -99 49 -281 94 -281 69z"
       id="path172"
       style="fill:#3366ff" />
    <path
       d="M817 5949 c-228 -35 -325 -347 -191 -617 44 -91 149 -204 241 -263 104 -65 182 -91 298 -97 l100 -5 -35 40 c-19 22 -48 56 -63 77 -20 26 -35 36 -56 36 -73 0 -214 62 -294 128 -130 109 -197 238 -197 378 0 227 212 360 378 236 85 -62 106 -193 43 -266 -15 -18 -15 -18 7 -5 66 40 87 153 44 235 -50 97 -152 142 -275 123z"
       id="path174"
       style="fill:#00ff66" />
    <path
       d="M4745 5909 c28 -220 114 -433 225 -560 l39 -44 1 90 c0 50 6 118 13 152 l13 62 -45 77 c-47 80 -143 190 -214 246 l-39 32 7 -55z"
       id="path176"
       style="fill:#3366ff" />
    <path
       d="M3566 5855 c25 -55 65 -129 88 -165 41 -63 125 -154 156 -169 8 -4 38 2 67 14 l51 21 -51 29 c-67 37 -194 160 -275 265 -36 47 -69 89 -74 95 -5 5 12 -35 38 -90z"
       id="path178"
       style="fill:#3399ff" />
    <path
       d="M3132 5885 c-112 -25 -165 -43 -267 -93 -83 -41 -245 -144 -245 -156 0 -2 42 18 93 45 156 80 333 132 520 154 31 3 57 8 57 10 0 2 -5 16 -12 30 -13 30 -45 32 -146 10z"
       id="path180"
       style="fill:#3399ff" />
    <path
       d="M5684 5783 c77 -154 125 -311 147 -478 6 -49 13 -91 14 -93 2 -2 16 3 33 12 33 17 32 9 5 149 -19 102 -42 167 -93 269 -38 74 -136 228 -146 228 -2 0 16 -39 40 -87z"
       id="path182"
       style="fill:#3399ff" />
    <path
       d="M820 5854 c-41 -17 -94 -62 -118 -103 -23 -39 -27 -57 -27 -121 0 -63 5 -86 32 -143 60 -127 198 -240 310 -253 l48 -5 -27 18 c-16 10 -28 20 -28 23 0 3 16 12 35 19 19 6 69 37 111 67 43 31 99 68 126 83 l49 28 -30 13 c-28 11 -35 10 -83 -23 -134 -88 -295 -98 -406 -23 -116 78 -147 239 -64 338 49 58 154 78 204 38 40 -31 61 -93 48 -141 -12 -42 -47 -73 -74 -63 -17 7 -22 24 -6 24 6 0 10 7 10 15 0 8 -9 15 -19 15 -21 0 -33 -22 -25 -44 8 -22 51 -37 78 -27 86 33 88 182 3 243 -30 22 -115 34 -147 22z"
       id="path184"
       style="fill:#00cc99" />
    <path
       d="M3418 5783 c36 -45 141 -143 154 -143 15 0 -25 68 -46 78 -11 5 -48 31 -81 58 l-60 49 33 -42z"
       id="path186"
       style="fill:#3399ff" />
    <path
       d="M1870 5738 c-104 -60 -209 -104 -307 -129 -42 -10 -79 -21 -81 -24 -10 -10 105 -4 180 9 65 12 386 113 425 135 7 3 -21 18 -61 32 l-73 25 -83 -48z"
       id="path188"
       style="fill:#33ccff" />
    <path
       d="M3195 5773 c-92 -11 -229 -39 -295 -60 -90 -29 -269 -115 -365 -177 l-69 -44 39 -7 c80 -14 164 -40 345 -108 102 -38 228 -78 280 -89 116 -24 234 -21 277 7 l28 19 -81 13 c-44 6 -118 24 -165 39 -84 26 -386 150 -403 165 -11 10 170 97 264 127 78 25 169 42 226 42 23 0 55 3 72 6 l31 6 -26 34 c-23 31 -29 34 -77 33 -28 -1 -64 -4 -81 -6z"
       id="path190"
       style="fill:#3366cc" />
    <path
       d="M5151 5703 c-20 -64 -42 -174 -36 -181 9 -10 45 71 45 100 0 20 5 59 10 88 6 29 8 55 6 57 -2 2 -13 -27 -25 -64z"
       id="path192"
       style="fill:#3399ff" />
    <path
       d="M809 5740 l-24 -20 40 16 c31 13 47 14 75 5 32 -9 33 -9 16 4 -28 21 -80 18 -107 -5z"
       id="path194"
       style="fill:#00cccc" />
    <path
       d="M7105 5733 c-49 -7 -178 -41 -218 -58 -36 -15 -37 -17 -37 -68 l0 -53 86 42 c127 62 251 98 414 120 49 7 52 8 25 15 -32 7 -221 9 -270 2z"
       id="path196"
       style="fill:#66ff00" />
    <path
       d="M5308 5658 c-104 -150 -159 -262 -173 -358 -6 -44 -5 -46 38 -82 l44 -37 6 87 c6 98 40 222 96 359 21 51 37 93 36 93 -2 0 -23 -28 -47 -62z"
       id="path198"
       style="fill:#3399ff" />
    <path
       d="M2175 5694 c-33 -8 -127 -37 -210 -64 -82 -26 -179 -56 -215 -66 -71 -18 -237 -24 -310 -11 l-45 9 50 -52 c83 -86 238 -196 358 -255 145 -70 269 -104 414 -112 l112 -6 40 36 39 35 -65 12 c-138 24 -283 81 -450 178 -67 39 -77 52 -40 52 34 0 117 30 268 98 171 77 254 102 358 110 134 11 112 28 -46 35 -76 4 -151 9 -168 11 -16 3 -57 -2 -90 -10z"
       id="path200"
       style="fill:#3399ff" />
    <path
       d="M7220 5645 c-290 -65 -545 -259 -757 -575 -102 -153 -105 -162 -98 -235 l7 -66 78 130 c43 72 107 170 141 218 75 105 232 264 310 316 130 85 299 152 444 178 65 11 298 8 355 -5 14 -3 -9 6 -50 21 -65 23 -94 27 -220 29 -100 2 -165 -1 -210 -11z"
       id="path202"
       style="fill:#00ff66" />
    <path
       d="M353 5507 c15 -283 93 -473 262 -642 184 -184 409 -265 694 -252 183 8 365 71 636 219 126 68 153 88 122 88 -17 0 -172 75 -207 100 l-28 20 -94 -45 c-117 -55 -256 -101 -366 -120 -463 -81 -850 180 -985 665 -12 44 -26 80 -31 80 -5 0 -6 -48 -3 -113z"
       id="path204"
       style="fill:#009900" />
    <path
       d="M3238 5599 c-60 -9 -195 -52 -210 -67 -12 -12 127 -66 239 -94 72 -18 116 -22 238 -21 83 0 163 4 180 10 l30 9 -62 33 c-34 18 -91 57 -127 87 l-65 54 -83 -1 c-46 -1 -109 -5 -140 -10z"
       id="path206"
       style="fill:#3366ff" />
    <path
       d="M2390 5554 c-39 -8 -120 -41 -200 -80 l-135 -67 63 -29 c80 -36 163 -58 223 -58 l47 0 -66 64 -66 64 53 11 c69 15 105 34 131 71 12 17 21 33 19 34 -2 2 -33 -3 -69 -10z"
       id="path208"
       style="fill:#3399ff" />
    <path
       d="M6272 5514 c-65 -50 -170 -170 -158 -181 3 -3 39 5 81 18 41 12 77 20 80 18 2 -3 -2 -27 -10 -54 -19 -62 -19 -93 1 -141 l16 -38 15 27 c22 44 41 150 48 285 4 67 6 122 4 122 -2 0 -37 -25 -77 -56z"
       id="path210"
       style="fill:#3399ff" />
    <path
       d="M7435 5563 c-171 -13 -350 -79 -490 -178 -76 -54 -195 -177 -268 -277 -67 -90 -220 -338 -214 -344 3 -3 33 0 68 6 35 5 98 10 139 10 l75 1 60 87 c84 123 269 305 370 364 127 75 246 110 390 116 99 3 135 1 209 -17 169 -40 318 -126 470 -271 l80 -75 -34 60 c-117 209 -255 347 -435 436 -124 61 -286 93 -420 82z"
       id="path212"
       style="fill:#009900" />
    <path
       d="M4013 5489 c-224 -37 -396 -202 -464 -444 -29 -101 -31 -274 -5 -380 45 -184 166 -347 334 -449 71 -43 91 -47 36 -8 -64 46 -159 158 -197 230 -59 112 -88 229 -88 352 0 119 16 192 64 289 40 82 133 177 212 216 33 16 86 52 118 80 31 27 85 67 119 88 l62 37 -70 -1 c-38 -1 -92 -5 -121 -10z"
       id="path214"
       style="fill:#3333ff" />
    <path
       d="M4352 5465 c-215 -49 -414 -238 -495 -473 -39 -114 -48 -270 -23 -384 15 -69 91 -246 101 -237 2 2 -5 30 -15 60 -86 253 -19 548 165 734 112 113 258 173 400 162 45 -3 91 0 127 9 31 8 93 16 137 17 45 1 81 3 81 4 0 1 -24 16 -54 33 -131 75 -297 104 -424 75z"
       id="path216"
       style="fill:#3333ff" />
    <path
       d="M5497 5412 c-62 -143 -94 -329 -83 -480 4 -52 12 -106 17 -121 l11 -26 13 32 c17 40 66 112 117 174 38 45 38 46 38 133 0 48 -7 121 -16 163 -17 86 -51 183 -63 183 -5 0 -20 -26 -34 -58z"
       id="path218"
       style="fill:#3366ff" />
    <path
       d="M2451 5420 l-65 -5 77 -53 c92 -63 180 -106 265 -127 112 -29 116 -18 22 53 -155 117 -206 140 -299 132z"
       id="path220"
       style="fill:#3399ff" />
    <path
       d="M1300 5361 c-48 -15 -160 -69 -120 -58 55 16 144 30 202 31 37 0 68 4 68 7 0 3 -8 13 -18 22 -23 21 -62 21 -132 -2z"
       id="path222"
       style="fill:#00cccc" />
    <path
       d="M1560 5335 c66 -69 243 -194 355 -249 117 -58 194 -84 263 -88 41 -3 45 -1 78 45 l36 47 -60 0 c-121 0 -318 53 -454 121 -32 16 -102 59 -155 95 -85 57 -93 61 -63 29z"
       id="path224"
       style="fill:#33ccff" />
    <path
       d="M2785 5350 c3 -4 45 -36 95 -70 111 -75 214 -124 298 -141 l64 -12 38 44 38 44 -92 7 c-105 8 -226 41 -355 97 -50 21 -89 35 -86 31z"
       id="path226"
       style="fill:#3399ff" />
    <path
       d="M1325 5294 c-11 -2 -59 -12 -107 -21 -49 -9 -88 -19 -87 -22 0 -3 54 -41 119 -84 132 -88 214 -123 257 -112 27 7 27 7 -19 25 -27 10 -78 40 -115 68 -38 27 -77 54 -88 60 -23 12 -24 11 64 36 30 9 80 16 110 16 52 0 54 1 38 17 -17 17 -125 28 -172 17z"
       id="path228"
       style="fill:#00cccc" />
    <path
       d="M3499 5259 c-321 -208 -370 -610 -115 -948 83 -110 250 -220 387 -255 63 -16 245 -31 214 -17 -11 4 -51 16 -90 25 -38 9 -108 35 -155 58 -70 34 -102 58 -181 137 -76 77 -104 112 -136 178 -98 195 -95 376 8 547 22 37 52 99 65 138 13 38 37 94 53 124 16 30 26 54 22 54 -5 0 -37 -19 -72 -41z"
       id="path230"
       style="fill:#3333ff" />
    <path
       d="M4675 5273 c-152 -21 -315 -104 -428 -217 -126 -126 -193 -275 -211 -468 -8 -83 5 -89 21 -10 27 139 105 276 220 382 229 213 503 247 738 91 22 -15 67 -35 100 -45 33 -10 88 -33 123 -52 34 -18 62 -30 62 -25 0 4 -19 37 -41 72 -132 203 -349 304 -584 272z"
       id="path232"
       style="fill:#3333ff" />
    <path
       d="M6128 5250 c-76 -32 -164 -87 -221 -136 -46 -39 -111 -113 -105 -119 12 -13 265 108 309 147 21 18 97 139 87 138 -2 -1 -33 -14 -70 -30z"
       id="path234"
       style="fill:#3399ff" />
    <path
       d="M4307 5236 c-219 -90 -356 -308 -357 -568 0 -63 22 -223 32 -234 2 -1 3 61 3 139 1 133 3 148 32 233 18 51 51 124 75 164 51 87 158 196 239 246 85 53 75 60 -24 20z"
       id="path236"
       style="fill:#333399" />
    <path
       d="M7391 5209 c-72 -18 -172 -66 -178 -85 -1 -5 34 -23 78 -40 l80 -31 67 24 c222 81 507 -1 631 -181 33 -48 61 -133 61 -185 0 -89 -52 -170 -134 -214 -123 -64 -279 15 -294 150 -4 36 -7 43 -13 28 -18 -47 -10 -102 24 -151 66 -98 190 -126 304 -68 132 68 190 228 138 384 -25 75 -108 193 -173 247 -153 125 -392 175 -591 122z"
       id="path238"
       style="fill:#00ff66" />
    <path
       d="M3825 5158 c-147 -171 -176 -422 -74 -638 36 -76 103 -172 154 -220 l38 -35 -37 49 c-179 237 -203 584 -59 834 14 24 23 46 20 48 -3 3 -21 -14 -42 -38z"
       id="path240"
       style="fill:#333399" />
    <path
       d="M1460 5170 c27 -20 121 -50 160 -50 23 0 23 1 -10 35 -33 34 -37 35 -104 35 l-71 0 25 -20z"
       id="path242"
       style="fill:#00cccc" />
    <path
       d="M2524 5158 c-128 -102 -240 -236 -311 -374 -44 -83 -74 -157 -50 -120 115 177 282 360 400 440 31 22 57 42 57 46 0 3 -13 13 -28 22 -28 17 -29 16 -68 -14z"
       id="path244"
       style="fill:#3399ff" />
    <path
       d="M2759 5165 c34 -16 117 -38 181 -49 l35 -6 -28 24 c-22 18 -46 25 -100 29 -40 4 -83 9 -97 12 -18 4 -16 1 9 -10z"
       id="path246"
       style="fill:#3399ff" />
    <path
       d="M1235 5109 c75 -76 134 -112 164 -101 19 7 16 10 -31 34 -29 14 -81 49 -116 77 -34 28 -65 51 -69 51 -4 0 19 -27 52 -61z"
       id="path248"
       style="fill:#00cccc" />
    <path
       d="M6145 5092 c-38 -41 -124 -119 -191 -173 -166 -134 -238 -202 -289 -273 -65 -93 -87 -141 -83 -188 l3 -41 39 56 c21 31 69 85 106 120 80 76 360 290 368 282 3 -3 0 -66 -6 -140 -14 -153 -42 -256 -104 -379 -22 -43 -38 -79 -36 -80 2 -2 23 -1 47 2 l43 4 43 92 c48 103 88 217 111 321 15 65 31 399 23 451 -3 18 -15 10 -74 -54z"
       id="path250"
       style="fill:#3366cc" />
    <path
       d="M8093 5081 c97 -105 147 -228 147 -361 0 -95 -18 -158 -66 -227 -66 -97 -221 -174 -318 -159 -165 27 -278 190 -236 342 17 60 72 118 125 133 83 22 163 -29 152 -96 -4 -25 -2 -31 9 -26 35 13 45 83 19 133 -20 39 -69 64 -125 63 -120 -2 -214 -94 -240 -235 -27 -142 60 -301 200 -367 47 -22 68 -26 151 -26 90 0 99 2 170 37 225 111 324 379 222 596 -31 67 -154 194 -223 231 l-45 25 58 -63z"
       id="path252"
       style="fill:#ccff99" />
    <path
       d="M2563 5031 c-139 -104 -249 -217 -334 -343 -57 -86 -145 -248 -134 -248 2 0 39 11 80 25 42 13 160 38 263 55 274 45 387 80 505 158 32 22 67 66 67 87 0 3 -17 -3 -37 -14 -72 -36 -204 -71 -345 -90 -198 -28 -292 -39 -297 -35 -2 2 31 52 73 113 86 121 165 202 271 276 39 27 74 52 79 56 4 4 -10 17 -32 28 l-40 21 -119 -89z"
       id="path254"
       style="fill:#3366cc" />
    <path
       d="M5725 5025 c-47 -47 -85 -89 -85 -95 0 -13 62 18 73 37 5 7 31 43 58 78 27 36 47 65 44 65 -3 0 -43 -38 -90 -85z"
       id="path256"
       style="fill:#3399ff" />
    <path
       d="M1655 5053 c-77 -50 -74 -50 32 -3 40 18 70 36 67 41 -9 15 -27 8 -99 -38z"
       id="path258"
       style="fill:#00cccc" />
    <path
       d="M4581 5064 c-191 -51 -358 -212 -436 -417 -36 -97 -30 -103 16 -16 128 243 360 394 639 416 l85 7 -40 12 c-55 17 -198 16 -264 -2z"
       id="path260"
       style="fill:#333399" />
    <path
       d="M2835 5003 c-27 -16 -71 -43 -96 -60 -49 -34 -203 -192 -195 -200 9 -9 167 18 255 43 103 30 256 108 337 172 l59 47 -115 6 c-63 3 -133 9 -155 13 -33 5 -49 2 -90 -21z"
       id="path262"
       style="fill:#3366ff" />
    <path
       d="M7099 5014 c-12 -15 -10 -16 27 -10 22 4 85 0 144 -8 57 -9 106 -16 109 -15 3 0 -30 11 -73 25 -95 28 -187 32 -207 8z"
       id="path264"
       style="fill:#00cccc" />
    <path
       d="M7547 5015 c-53 -18 -57 -25 -13 -25 l37 0 -29 -42 c-16 -24 -46 -81 -66 -127 -20 -47 -45 -96 -55 -110 -34 -50 -34 -51 1 -51 31 0 35 5 58 57 30 70 117 160 185 193 35 17 73 25 125 28 67 3 81 1 130 -25 95 -50 149 -160 120 -248 -16 -48 -57 -95 -97 -112 -73 -30 -161 27 -170 110 -5 38 -2 47 18 61 33 22 40 20 33 -10 -6 -22 -4 -25 12 -22 11 2 20 13 22 26 5 34 -43 49 -77 24 -42 -31 -48 -72 -20 -129 64 -129 222 -124 290 9 26 51 26 146 -1 199 -67 131 -212 209 -383 209 -45 -1 -99 -7 -120 -15z"
       id="path266"
       style="fill:#00cc99" />
    <path
       d="M4745 4969 c-171 -26 -296 -89 -415 -209 -47 -47 -98 -109 -113 -138 l-29 -53 84 83 c96 96 163 138 285 181 112 39 277 49 387 23 154 -36 290 -138 353 -263 17 -34 53 -87 79 -118 27 -31 66 -83 87 -117 l37 -62 0 68 c0 343 -246 588 -612 610 -46 3 -110 1 -143 -5z"
       id="path268"
       style="fill:#3333ff" />
    <path
       d="M5798 4903 c-113 -57 -144 -79 -210 -143 l-77 -76 22 -55 22 -56 47 72 c50 76 153 180 258 259 115 87 111 87 -62 -1z"
       id="path270"
       style="fill:#3399ff" />
    <path
       d="M6261 4898 c-3 -191 -44 -361 -148 -606 -4 -10 4 -13 32 -10 38 3 39 3 68 83 48 132 67 243 66 395 0 154 -16 273 -18 138z"
       id="path272"
       style="fill:#3399ff" />
    <path
       d="M7081 4951 c-18 -5 -41 -17 -50 -26 -15 -16 -14 -17 24 -11 45 6 255 -14 255 -25 0 -12 -120 -116 -152 -132 -27 -13 -29 -15 -11 -21 11 -4 29 -3 39 0 39 15 131 79 198 138 l69 61 -39 7 c-67 12 -297 18 -333 9z"
       id="path274"
       style="fill:#00cccc" />
    <path
       d="M6893 4868 c-64 -94 -65 -96 -54 -102 5 -4 24 20 42 51 17 32 41 73 51 91 35 57 12 34 -39 -40z"
       id="path276"
       style="fill:#00cccc" />
    <path
       d="M3433 4838 c-17 -63 -16 -190 2 -258 24 -91 73 -178 142 -251 76 -80 150 -131 253 -175 93 -39 159 -55 82 -19 -279 129 -445 383 -465 710 l-2 40 -12 -47z"
       id="path278"
       style="fill:#333399" />
    <path
       d="M7390 4829 c-30 -28 -81 -67 -113 -87 -47 -29 -55 -37 -42 -45 39 -21 106 26 173 122 24 34 42 61 40 61 -2 -1 -28 -24 -58 -51z"
       id="path280"
       style="fill:#00cccc" />
    <path
       d="M2015 4784 c-151 -86 -332 -165 -460 -201 -133 -37 -350 -43 -494 -13 -179 36 -312 98 -443 204 l-63 51 40 -49 c90 -110 279 -225 440 -267 112 -30 319 -37 442 -15 169 29 361 100 538 199 90 49 91 51 112 108 12 33 21 59 20 58 -1 0 -60 -34 -132 -75z"
       id="path282"
       style="fill:#00ff66" />
    <path
       d="M7047 4839 c-21 -5 -52 -17 -70 -26 l-32 -17 50 -12 c54 -12 73 -6 133 43 l27 22 -35 0 c-19 -1 -52 -5 -73 -10z"
       id="path284"
       style="fill:#00cccc" />
    <path
       d="M3092 4739 c-24 -48 -50 -120 -58 -160 -81 -380 272 -759 706 -759 117 0 220 24 322 75 89 45 111 63 42 36 -125 -49 -266 -62 -396 -37 -329 63 -554 312 -535 590 2 38 0 85 -5 104 -5 19 -15 80 -22 136 l-12 101 -42 -86z"
       id="path286"
       style="fill:#3333ff" />
    <path
       d="M4655 4795 c-116 -25 -267 -109 -350 -195 l-40 -41 82 54 c139 93 265 131 433 131 136 -1 236 -24 357 -85 l78 -39 -53 49 c-69 63 -132 97 -228 121 -88 23 -191 25 -279 5z"
       id="path288"
       style="fill:#333399" />
    <path
       d="M6675 4693 c-76 -6 -168 -24 -230 -45 l-63 -20 -6 -45 c-11 -85 -15 -83 82 -36 48 24 132 55 187 70 92 25 116 27 304 27 l204 1 -74 17 c-77 18 -269 39 -329 36 -19 -1 -53 -3 -75 -5z"
       id="path290"
       style="fill:#33ccff" />
    <path
       d="M7948 4664 c-14 -14 -41 -30 -59 -34 l-34 -8 32 -1 c23 -1 43 8 65 28 18 16 31 32 27 35 -3 3 -17 -6 -31 -20z"
       id="path292"
       style="fill:#00cccc" />
    <path
       d="M4600 4664 c-35 -7 -101 -31 -145 -53 -106 -51 -139 -78 -56 -44 259 103 572 41 765 -151 117 -116 170 -248 165 -405 -1 -42 3 -103 10 -136 6 -33 15 -91 19 -130 l8 -70 42 85 c71 143 87 267 52 404 -28 109 -73 189 -159 278 -151 159 -337 239 -549 237 -48 0 -116 -7 -152 -15z"
       id="path294"
       style="fill:#3333ff" />
    <path
       d="M5920 4638 c-83 -61 -156 -134 -221 -221 -59 -78 -132 -216 -145 -271 l-7 -30 29 21 c42 29 131 73 189 93 45 15 54 24 93 86 23 38 52 94 63 124 19 51 62 231 56 237 -2 1 -27 -16 -57 -39z"
       id="path296"
       style="fill:#3366ff" />
    <path
       d="M2027 4626 c-21 -13 -84 -43 -140 -67 -100 -43 -104 -47 -217 -163 -271 -282 -325 -333 -390 -368 -36 -20 -83 -41 -105 -48 -22 -7 -44 -16 -48 -20 -11 -9 168 -47 291 -61 226 -26 478 22 668 127 55 31 61 38 76 85 16 47 16 50 0 44 -54 -22 -135 -48 -191 -61 -76 -18 -285 -33 -362 -27 l-55 5 51 49 c29 27 94 108 146 181 107 149 193 242 274 293 30 20 55 40 55 45 0 15 -11 12 -53 -14z"
       id="path298"
       style="fill:#3399ff" />
    <path
       d="M2871 4579 c-85 -43 -200 -74 -346 -93 -94 -12 -98 -14 -60 -22 22 -4 105 -8 185 -8 128 0 153 3 214 25 74 25 73 24 89 107 4 17 3 31 -1 30 -4 0 -40 -18 -81 -39z"
       id="path300"
       style="fill:#3399ff" />
    <path
       d="M6870 4604 c-179 -20 -298 -53 -431 -120 -84 -41 -87 -44 -98 -88 -6 -25 -11 -47 -11 -50 0 -3 23 3 52 15 114 45 207 60 392 66 l178 6 -52 -49 c-29 -27 -91 -103 -138 -169 -117 -165 -183 -239 -269 -298 -62 -44 -86 -67 -69 -67 3 0 75 35 161 77 l157 77 107 115 c274 297 335 349 457 393 35 12 64 25 64 29 0 6 -116 34 -205 48 -71 12 -245 21 -295 15z"
       id="path302"
       style="fill:#3399ff" />
    <path
       d="M795 4535 c102 -86 222 -145 364 -181 129 -33 136 -32 161 16 11 21 20 42 20 45 0 3 -19 5 -42 5 -123 0 -333 49 -457 106 -69 31 -73 32 -46 9z"
       id="path304"
       style="fill:#66ff00" />
    <path
       d="M4535 4539 c-108 -19 -101 -24 33 -24 116 0 149 -4 212 -24 189 -59 330 -162 435 -318 58 -87 61 -56 4 56 -118 236 -393 361 -684 310z"
       id="path306"
       style="fill:#333399" />
    <path
       d="M8361 4482 c-21 -57 -78 -137 -134 -188 -182 -164 -441 -164 -616 0 -30 28 -67 71 -84 96 -19 30 -27 37 -22 20 29 -105 130 -222 239 -275 123 -61 268 -57 386 12 110 65 210 196 241 316 14 58 8 71 -10 19z"
       id="path308"
       style="fill:#66ff00" />
    <path
       d="M1985 4449 c-47 -44 -205 -261 -205 -282 0 -14 88 -7 163 12 67 18 157 55 157 65 0 2 -35 12 -77 21 -43 9 -82 21 -86 25 -5 4 5 18 22 31 44 33 78 87 84 137 3 23 4 42 2 42 -2 0 -29 -23 -60 -51z"
       id="path310"
       style="fill:#3399ff" />
    <path
       d="M7260 4448 c-85 -50 -211 -177 -397 -399 -12 -15 -9 -15 39 -3 29 7 65 15 79 18 20 4 38 24 69 78 65 110 131 196 208 271 39 37 67 67 64 67 -4 0 -32 -15 -62 -32z"
       id="path312"
       style="fill:#33ccff" />
    <path
       d="M7368 4433 c-44 -46 -128 -167 -128 -185 0 -4 12 -8 26 -8 46 0 241 -71 321 -116 l77 -45 -57 58 c-32 32 -67 72 -78 88 -38 55 -88 167 -95 211 -3 24 -9 44 -13 44 -4 0 -28 -21 -53 -47z"
       id="path314"
       style="fill:#ccff99" />
    <path
       d="M1553 4442 l-62 -17 -51 -84 c-66 -110 -115 -173 -199 -254 -38 -37 -66 -67 -62 -67 14 0 122 69 166 107 43 37 295 316 295 328 0 8 -18 5 -87 -13z"
       id="path316"
       style="fill:#33ccff" />
    <path
       d="M4570 4445 c149 -30 280 -104 394 -226 202 -214 242 -499 99 -715 -18 -28 -43 -80 -54 -115 -11 -35 -36 -92 -54 -126 -18 -35 -29 -63 -25 -63 22 0 165 108 209 156 158 178 184 447 66 689 -122 250 -374 417 -625 414 l-75 -1 65 -13z"
       id="path318"
       style="fill:#3333ff" />
    <path
       d="M4180 4419 c-32 -13 -78 -56 -96 -91 -23 -43 -18 -125 10 -172 68 -116 248 -115 314 2 26 46 30 128 8 170 -19 36 -65 78 -99 91 -35 13 -103 13 -137 0z"
       id="path320"
       style="fill:#3300cc" />
    <path
       d="M485 4396 c-80 -19 -171 -74 -230 -138 -58 -62 -120 -178 -131 -243 -6 -36 -3 -33 32 35 74 146 206 245 361 271 169 28 344 -52 450 -206 41 -59 36 -29 -9 57 -54 103 -169 193 -283 222 -69 19 -121 19 -190 2z"
       id="path322"
       style="fill:#66ff00" />
    <path
       d="M2111 4370 c-36 -22 -60 -40 -55 -41 5 0 46 -4 92 -8 46 -5 121 -5 167 0 82 7 215 43 215 58 0 12 -169 31 -266 31 -86 -1 -91 -2 -153 -40z"
       id="path324"
       style="fill:#3399ff" />
    <path
       d="M3244 4361 c12 -66 69 -163 136 -231 79 -80 194 -142 310 -166 86 -18 265 -14 339 8 41 12 37 13 -70 10 -285 -9 -519 113 -684 359 -36 52 -37 53 -31 20z"
       id="path326"
       style="fill:#333399" />
    <path
       d="M2895 4344 c-42 -29 -125 -66 -197 -88 -44 -13 -147 -244 -166 -373 -10 -70 -13 -70 68 -7 121 92 231 227 302 369 31 60 57 136 46 134 -2 0 -25 -16 -53 -35z"
       id="path328"
       style="fill:#3366ff" />
    <path
       d="M4631 4339 c259 -136 405 -375 422 -689 l2 -45 13 53 c16 72 15 185 -3 257 -49 191 -211 362 -418 440 -97 36 -103 30 -16 -16z"
       id="path330"
       style="fill:#333399" />
    <path
       d="M2605 4353 c-16 -9 -57 -27 -90 -39 -68 -26 -64 -29 20 -13 76 14 167 48 160 60 -9 14 -57 10 -90 -8z"
       id="path332"
       style="fill:#3399ff" />
    <path
       d="M6577 4325 c-70 -14 -185 -61 -174 -71 3 -3 25 -10 49 -15 24 -6 61 -15 82 -20 l39 -11 -53 -53 c-44 -45 -54 -62 -60 -102 -4 -26 -7 -49 -5 -51 1 -2 28 20 58 48 31 28 92 105 137 171 l81 119 -43 -1 c-24 0 -74 -7 -111 -14z"
       id="path334"
       style="fill:#3399ff" />
    <path
       d="M4652 4228 c95 -94 148 -179 183 -290 99 -313 -1 -613 -247 -737 -31 -16 -84 -53 -117 -82 -34 -30 -87 -69 -118 -86 l-58 -33 75 0 c168 0 311 58 420 169 218 222 249 594 74 878 -51 82 -166 195 -243 236 l-52 29 83 -84z"
       id="path336"
       style="fill:#3333ff" />
    <path
       d="M478 4231 c-251 -83 -389 -371 -290 -602 38 -87 132 -189 224 -243 l33 -20 -33 40 c-139 166 -186 350 -131 513 50 148 240 271 373 241 72 -16 94 -28 146 -76 133 -125 113 -333 -37 -390 -36 -14 -50 -15 -83 -5 -53 16 -83 56 -76 100 l5 34 -24 -23 c-44 -41 -27 -126 32 -166 39 -26 126 -24 179 3 51 27 100 83 127 142 31 70 28 179 -5 253 -34 74 -107 151 -174 184 -73 35 -186 42 -266 15z"
       id="path338"
       style="fill:#ccff99" />
    <path
       d="M2502 4222 l-44 -3 -40 -87 c-102 -221 -138 -387 -138 -642 l0 -164 67 73 c36 40 136 130 222 200 86 71 176 150 201 177 92 98 150 202 150 265 l0 41 -43 -58 c-61 -82 -159 -172 -332 -303 l-148 -112 7 107 c12 183 41 295 115 443 18 35 31 64 29 65 -2 0 -23 0 -46 -2z"
       id="path340"
       style="fill:#3366cc" />
    <path
       d="M2309 4193 c-66 -168 -89 -288 -88 -462 0 -150 16 -258 18 -126 2 160 42 343 112 513 21 53 39 97 39 99 0 2 -16 3 -35 3 -29 0 -37 -5 -46 -27z"
       id="path342"
       style="fill:#3399ff" />
    <path
       d="M4609 4164 c169 -251 184 -559 41 -823 l-31 -56 50 53 c151 159 183 413 81 638 -34 75 -102 174 -150 219 -32 29 -31 28 9 -31z"
       id="path344"
       style="fill:#333399" />
    <path
       d="M5948 4194 c-37 -8 -89 -24 -115 -36 l-48 -22 37 -4 c24 -2 52 5 80 19 24 12 68 30 98 40 66 21 41 23 -52 3z"
       id="path346"
       style="fill:#3399ff" />
    <path
       d="M3000 4138 c0 -343 240 -587 605 -614 151 -12 330 35 456 119 75 50 164 142 215 224 49 77 59 106 16 47 -44 -61 -156 -158 -222 -193 -339 -181 -724 -96 -869 191 -16 31 -53 84 -82 117 -30 34 -69 87 -86 118 l-33 58 0 -67z"
       id="path348"
       style="fill:#3333ff" />
    <path
       d="M6073 4160 c-40 -10 -83 -25 -95 -32 -21 -11 -16 -13 57 -24 44 -7 128 -13 187 -13 l107 -1 61 39 61 38 -38 6 c-80 14 -266 6 -340 -13z"
       id="path350"
       style="fill:#3399ff" />
    <path
       d="M7181 4131 c-12 -22 -21 -42 -21 -44 0 -3 35 -8 78 -11 163 -14 302 -49 427 -107 28 -13 55 -25 60 -28 6 -2 -12 15 -40 38 -98 81 -293 165 -437 186 l-47 7 -20 -41z"
       id="path352"
       style="fill:#66ff00" />
    <path
       d="M4555 4135 c38 -103 48 -139 57 -212 29 -215 -60 -468 -216 -610 -106 -97 -232 -145 -376 -142 -47 1 -125 -5 -175 -14 -49 -9 -108 -18 -130 -19 l-40 -3 82 -42 c242 -123 496 -83 693 109 228 221 295 562 165 836 -35 73 -76 140 -60 97z"
       id="path354"
       style="fill:#3333ff" />
    <path
       d="M497 4051 c-93 -48 -148 -119 -167 -219 -22 -118 37 -270 149 -381 119 -119 277 -181 460 -181 119 0 203 20 294 67 57 30 66 38 51 45 -10 4 -50 21 -89 37 -63 27 -72 28 -97 15 -122 -63 -350 -54 -496 20 -122 62 -217 188 -229 302 -18 168 131 304 284 259 77 -23 143 -107 143 -182 0 -22 2 -25 10 -13 17 27 11 95 -13 141 -16 31 -39 54 -77 77 -47 27 -63 32 -120 32 -45 0 -78 -6 -103 -19z"
       id="path356"
       style="fill:#00cc33" />
    <path
       d="M4518 3969 c12 -281 -115 -532 -349 -688 -58 -39 -61 -43 -30 -37 67 12 165 69 232 137 79 78 141 194 165 309 18 86 14 253 -9 335 -13 49 -14 48 -9 -56z"
       id="path358"
       style="fill:#333399" />
    <path
       d="M6320 4033 c-41 -13 -167 -40 -280 -59 -113 -19 -236 -43 -275 -55 -141 -43 -272 -128 -275 -180 0 -3 37 9 83 27 45 18 129 42 187 53 106 21 410 60 410 53 0 -2 -28 -45 -62 -95 -84 -123 -182 -225 -284 -294 -46 -31 -84 -59 -84 -62 0 -3 18 -14 40 -23 l40 -16 87 61 c126 89 288 252 363 367 65 100 146 251 133 249 -5 -1 -42 -12 -83 -26z"
       id="path360"
       style="fill:#3366cc" />
    <path
       d="M5722 4039 c-34 -5 -84 -17 -110 -27 -46 -17 -47 -19 -58 -72 -6 -30 -10 -57 -8 -58 1 -2 22 7 46 21 95 55 327 114 461 118 l42 2 -45 7 c-81 14 -264 19 -328 9z"
       id="path362"
       style="fill:#3399ff" />
    <path
       d="M7025 4005 c-162 -30 -300 -77 -464 -160 -153 -76 -165 -86 -188 -149 l-21 -56 62 36 c235 135 468 232 624 259 283 50 605 -24 814 -186 84 -66 85 -66 47 -21 -79 94 -226 191 -355 236 -154 54 -362 70 -519 41z"
       id="path364"
       style="fill:#00ff66" />
    <path
       d="M2052 3955 c-151 -78 -307 -109 -535 -103 -176 4 -182 -1 -40 -28 180 -36 462 -20 598 32 40 15 43 19 49 61 8 59 8 73 -1 72 -5 -1 -36 -16 -71 -34z"
       id="path366"
       style="fill:#33ccff" />
    <path
       d="M527 3960 c-90 -49 -125 -185 -74 -286 52 -102 176 -183 314 -204 78 -12 161 -3 210 24 l28 15 -39 1 c-38 0 -39 1 -22 19 10 11 50 85 90 165 l72 146 -30 0 c-28 0 -33 -6 -55 -58 -35 -79 -129 -172 -207 -202 -149 -57 -285 -8 -345 125 -24 51 -23 99 0 150 38 85 118 118 192 80 60 -32 90 -123 51 -158 -24 -22 -46 -22 -38 -1 8 21 -1 34 -19 27 -24 -9 -17 -42 10 -55 21 -10 30 -8 52 8 40 30 49 67 28 120 -34 89 -136 128 -218 84z"
       id="path368"
       style="fill:#00cc99" />
    <path
       d="M4450 3956 c0 -39 -40 -156 -78 -231 -55 -105 -201 -248 -309 -302 -198 -99 -395 -94 -558 13 -27 18 -79 42 -115 54 -36 12 -93 36 -127 55 -35 18 -63 29 -63 25 0 -21 106 -163 151 -204 223 -200 558 -193 838 18 118 89 225 256 255 398 21 104 29 198 16 198 -5 0 -10 -11 -10 -24z"
       id="path370"
       style="fill:#3333ff" />
    <path
       d="M4371 3933 c-23 -67 -90 -171 -153 -238 -135 -145 -311 -227 -523 -244 l-90 -7 53 -12 c72 -16 195 -15 262 3 148 39 305 165 385 308 37 68 88 202 83 219 -2 5 -9 -8 -17 -29z"
       id="path372"
       style="fill:#333399" />
    <path
       d="M4190 3909 c-47 -40 -200 -115 -280 -136 -47 -13 -101 -18 -195 -17 -118 1 -139 4 -225 32 -52 18 -115 43 -139 57 -24 14 -46 24 -48 21 -10 -10 98 -91 162 -121 203 -96 433 -67 640 80 52 37 137 116 124 115 -2 -1 -20 -14 -39 -31z"
       id="path374"
       style="fill:#333399" />
    <path
       d="M2896 3851 c-54 -80 -182 -206 -278 -275 -38 -26 -68 -49 -68 -51 0 -2 43 16 96 41 124 57 216 118 283 188 l55 55 -18 56 c-9 30 -18 55 -20 55 -1 0 -24 -31 -50 -69z"
       id="path376"
       style="fill:#3399ff" />
    <path
       d="M7085 3878 c-141 -26 -319 -96 -520 -206 -66 -35 -126 -69 -133 -75 -9 -7 8 -18 62 -42 41 -18 97 -46 124 -63 l51 -31 93 43 c176 82 385 136 527 136 138 0 307 -45 418 -111 86 -52 215 -179 274 -272 58 -90 109 -207 136 -309 10 -38 22 -68 27 -68 13 0 -1 215 -20 308 -74 362 -344 623 -711 687 -94 16 -250 18 -328 3z"
       id="path378"
       style="fill:#009900" />
    <path
       d="M552 3855 c-16 -14 -32 -34 -35 -46 -4 -15 3 -11 26 16 19 22 46 40 67 45 l35 8 -32 1 c-20 1 -42 -8 -61 -24z"
       id="path380"
       style="fill:#00cccc" />
    <path
       d="M6280 3752 c-79 -117 -211 -257 -319 -337 -44 -33 -80 -62 -81 -65 0 -3 13 -13 29 -23 l30 -17 58 48 c83 70 179 175 228 251 44 68 129 231 123 236 -2 2 -32 -40 -68 -93z"
       id="path382"
       style="fill:#3399ff" />
    <path
       d="M1190 3785 c-38 -27 -64 -56 -112 -124 l-30 -43 73 62 c41 34 92 71 114 82 51 26 52 27 35 38 -23 15 -42 11 -80 -15z"
       id="path384"
       style="fill:#00cccc" />
    <path
       d="M1269 3739 c-30 -16 -96 -65 -145 -107 l-89 -77 164 -9 c172 -9 264 0 275 30 4 12 -4 13 -47 9 -29 -3 -95 0 -147 8 l-95 13 62 61 c35 33 76 66 93 73 23 9 28 15 18 21 -20 13 -29 11 -89 -22z"
       id="path386"
       style="fill:#00cccc" />
    <path
       d="M5910 3755 c-8 -2 -49 -9 -90 -15 -97 -16 -224 -59 -308 -105 -82 -46 -192 -123 -192 -136 0 -5 37 -9 83 -9 45 0 110 -6 145 -14 l62 -13 68 40 c121 72 184 128 271 240 12 15 11 17 -5 16 -11 -1 -26 -3 -34 -4z"
       id="path388"
       style="fill:#3366ff" />
    <path
       d="M1970 3729 c-25 -4 -83 -8 -130 -9 l-85 -1 -55 -82 c-32 -49 -105 -133 -180 -207 -139 -139 -214 -189 -368 -244 -83 -30 -94 -31 -242 -31 -135 0 -165 3 -230 23 -154 49 -285 129 -419 256 l-85 81 34 -60 c82 -149 195 -282 306 -361 78 -56 208 -117 299 -140 102 -25 283 -24 399 5 247 60 427 187 605 427 66 89 221 334 221 349 0 6 -10 5 -70 -6z"
       id="path390"
       style="fill:#009900" />
    <path
       d="M1623 3688 c-12 -24 -34 -62 -48 -85 -38 -61 -26 -53 27 20 60 83 73 107 55 107 -7 0 -23 -19 -34 -42z"
       id="path392"
       style="fill:#00cccc" />
    <path
       d="M1397 3689 c-26 -17 -47 -33 -47 -36 0 -10 115 6 152 21 51 22 54 32 10 40 -59 9 -66 8 -115 -25z"
       id="path394"
       style="fill:#00cccc" />
    <path
       d="M2046 3593 c-234 -392 -455 -586 -772 -678 -150 -43 -340 -51 -467 -20 -56 14 -24 -5 41 -25 212 -63 458 -38 672 70 223 113 428 324 597 617 27 46 28 51 18 108 l-10 60 -79 -132z"
       id="path396"
       style="fill:#00cc33" />
    <path
       d="M3026 3649 c-16 -32 -53 -88 -83 -124 l-53 -64 0 -84 c0 -46 5 -110 10 -143 12 -68 60 -214 70 -214 11 0 76 177 94 255 8 39 18 113 22 165 6 95 -7 246 -23 260 -4 4 -21 -19 -37 -51z"
       id="path398"
       style="fill:#3366ff" />
    <path
       d="M2823 3563 c-18 -9 -33 -20 -33 -24 0 -4 -25 -40 -56 -80 l-57 -73 41 33 c45 35 142 140 142 153 0 10 2 10 -37 -9z"
       id="path400"
       style="fill:#3399ff" />
    <path
       d="M7283 3477 c23 -29 49 -62 57 -73 11 -14 36 -23 84 -31 139 -23 301 -134 382 -259 118 -184 91 -419 -58 -495 -92 -47 -196 -33 -264 35 -64 64 -79 137 -43 216 l20 45 -31 -30 c-102 -98 -30 -285 127 -331 69 -20 128 -14 200 21 138 68 204 232 170 427 -24 136 -71 225 -176 328 -134 133 -281 199 -444 200 l-67 0 43 -53z"
       id="path402"
       style="fill:#00ff66" />
    <path
       d="M1170 3500 c80 -30 179 -44 213 -31 40 16 33 30 -12 24 -34 -5 -131 5 -231 23 -14 2 0 -5 30 -16z"
       id="path404"
       style="fill:#00cccc" />
    <path
       d="M2072 3369 c-105 -155 -111 -171 -167 -432 -55 -257 -96 -358 -185 -460 -43 -48 -43 -48 -14 -41 77 18 218 71 299 111 218 109 370 245 485 431 31 51 32 54 20 102 l-12 49 -85 -89 c-46 -49 -115 -112 -153 -140 -68 -50 -233 -150 -249 -150 -4 0 0 24 10 54 10 29 25 123 34 207 25 242 48 341 101 438 14 25 21 48 17 52 -5 4 -50 -55 -101 -132z"
       id="path406"
       style="fill:#3399ff" />
    <path
       d="M2615 3476 c-182 -74 -236 -111 -279 -192 -18 -35 -31 -64 -28 -64 21 0 198 98 253 139 60 46 146 137 138 146 -2 2 -40 -11 -84 -29z"
       id="path408"
       style="fill:#3399ff" />
    <path
       d="M6247 3462 l-35 -49 90 -7 c198 -14 446 -110 607 -235 66 -51 67 -43 1 19 -79 74 -243 186 -342 233 -78 37 -178 70 -244 81 -41 7 -42 6 -77 -42z"
       id="path410"
       style="fill:#33ccff" />
    <path
       d="M7098 3491 c-13 -5 -5 -13 35 -34 29 -15 80 -50 115 -77 34 -28 62 -48 62 -45 0 12 -87 99 -125 124 -50 34 -65 40 -87 32z"
       id="path412"
       style="fill:#00cccc" />
    <path
       d="M6823 3452 c-68 -34 -90 -52 -60 -52 6 0 44 21 82 45 84 54 76 57 -22 7z"
       id="path414"
       style="fill:#00cccc" />
    <path
       d="M6982 3442 c-8 -6 -1 -12 23 -19 33 -11 214 -131 215 -144 0 -11 -129 -41 -180 -42 -48 -1 -49 -1 -32 -20 15 -17 27 -19 107 -14 50 2 129 13 176 23 l86 18 -124 83 c-155 105 -234 138 -271 115z"
       id="path416"
       style="fill:#00cccc" />
    <path
       d="M3171 3349 c-7 -46 -24 -119 -38 -164 -25 -79 -149 -382 -164 -399 -4 -5 -24 23 -43 63 -83 163 -117 283 -131 453 l-7 78 -34 -26 c-31 -24 -34 -31 -34 -76 0 -76 28 -249 56 -346 28 -99 121 -295 186 -395 l44 -68 18 83 c10 46 50 171 90 278 101 269 124 374 111 496 -4 36 -14 73 -24 85 -17 21 -17 19 -30 -62z"
       id="path418"
       style="fill:#3366cc" />
    <path
       d="M5520 3385 c0 -2 15 -12 33 -23 19 -12 60 -22 102 -26 39 -3 81 -9 95 -12 49 -10 -41 26 -99 40 -63 16 -131 27 -131 21z"
       id="path420"
       style="fill:#3399ff" />
    <path
       d="M6891 3346 c35 -36 36 -37 105 -34 l69 3 -55 27 c-30 15 -77 30 -105 33 l-50 7 36 -36z"
       id="path422"
       style="fill:#00cccc" />
    <path
       d="M5223 3331 c-18 -22 -33 -42 -33 -44 0 -2 37 -7 83 -10 94 -7 220 -41 354 -96 51 -21 93 -37 93 -35 0 6 -157 112 -211 143 -65 36 -151 67 -211 76 -41 5 -45 4 -75 -34z"
       id="path424"
       style="fill:#3399ff" />
    <path
       d="M2190 3293 c-18 -59 -39 -236 -40 -331 l0 -33 61 43 c34 23 81 65 106 92 45 51 80 106 66 106 -5 0 -44 -11 -88 -25 -44 -14 -80 -25 -81 -25 0 0 7 24 17 53 10 28 18 66 19 83 0 29 -25 104 -35 104 -2 0 -13 -30 -25 -67z"
       id="path426"
       style="fill:#3399ff" />
    <path
       d="M6131 3326 l-34 -35 24 -5 c13 -3 51 -10 84 -17 69 -13 178 -51 250 -86 74 -36 215 -117 215 -123 0 -3 -30 -12 -68 -21 -37 -9 -128 -45 -202 -79 -175 -80 -257 -107 -365 -119 -111 -13 -136 -31 -43 -31 36 0 111 -5 166 -10 119 -12 153 -6 386 70 83 27 180 57 216 66 76 20 253 24 315 6 40 -11 40 -11 -45 70 -229 217 -528 348 -794 348 -69 0 -74 -1 -105 -34z"
       id="path428"
       style="fill:#3399ff" />
    <path
       d="M3277 3228 c-8 -103 -35 -206 -87 -334 -23 -54 -44 -106 -47 -114 -9 -26 107 142 143 206 38 68 68 149 79 213 7 40 5 44 -32 76 -21 19 -41 34 -44 35 -3 0 -9 -37 -12 -82z"
       id="path430"
       style="fill:#3399ff" />
    <path
       d="M2619 3275 c-25 -14 -26 -16 -17 -72 24 -157 67 -282 140 -406 40 -69 106 -167 113 -167 2 0 -18 44 -45 98 -74 149 -127 332 -145 500 -4 34 -10 62 -13 62 -4 -1 -19 -7 -33 -15z"
       id="path432"
       style="fill:#3399ff" />
    <path
       d="M5670 3276 c0 -11 193 -148 246 -174 56 -28 66 -30 130 -24 l69 7 -86 57 c-97 65 -170 100 -257 123 -58 14 -102 19 -102 11z"
       id="path434"
       style="fill:#3399ff" />
    <path
       d="M7454 3256 c11 -9 23 -16 28 -16 20 0 5 -17 -25 -28 -18 -6 -76 -43 -129 -80 -53 -38 -110 -75 -128 -82 l-32 -13 24 -13 c34 -19 44 -17 89 16 97 70 238 93 346 56 134 -45 209 -201 154 -321 -47 -103 -182 -146 -244 -77 -64 70 -49 192 23 192 17 0 30 -4 30 -10 0 -5 -4 -10 -10 -10 -5 0 -10 -7 -10 -16 0 -21 44 -15 48 7 9 49 -78 66 -119 23 -20 -21 -24 -36 -24 -88 0 -53 4 -68 27 -98 72 -94 226 -68 295 49 24 41 28 59 28 123 -1 63 -6 86 -33 143 -58 125 -197 237 -312 252 -42 6 -44 5 -26 -9z"
       id="path436"
       style="fill:#00cc99" />
    <path
       d="M5145 3224 c-16 -3 -41 -13 -54 -23 l-24 -18 80 -12 c110 -16 208 -48 410 -133 l173 -73 -77 -38 c-168 -85 -282 -118 -455 -132 l-78 -7 25 -36 c23 -34 27 -36 77 -33 92 4 256 31 346 57 104 30 266 105 379 177 l82 51 -107 27 c-59 15 -174 53 -257 84 -82 32 -188 68 -234 81 -82 23 -225 37 -286 28z"
       id="path438"
       style="fill:#3366cc" />
    <path
       d="M3490 3093 c0 -49 -6 -113 -14 -144 l-13 -56 40 -69 c22 -38 58 -91 79 -119 44 -58 171 -170 176 -157 6 20 -30 208 -53 279 -14 40 -40 104 -59 141 -40 78 -132 212 -146 212 -6 0 -10 -38 -10 -87z"
       id="path440"
       style="fill:#3366ff" />
    <path
       d="M6175 3118 c71 -66 71 -70 0 -83 -21 -4 -51 -13 -65 -20 -24 -13 -75 -73 -68 -80 2 -2 35 2 72 10 65 14 325 131 326 147 0 8 -145 64 -201 77 -24 6 -63 11 -87 11 l-43 0 66 -62z"
       id="path442"
       style="fill:#3399ff" />
    <path
       d="M1827 3077 l-57 -52 0 -106 c0 -115 -21 -260 -51 -346 -10 -29 -14 -51 -8 -48 18 12 79 145 99 219 21 74 82 378 77 382 -1 1 -28 -21 -60 -49z"
       id="path444"
       style="fill:#33ccff" />
    <path
       d="M7984 3105 c31 -124 34 -216 11 -313 -21 -88 -59 -157 -119 -217 -90 -90 -203 -126 -324 -105 -137 24 -216 99 -240 228 -26 142 61 278 186 290 62 6 116 -17 142 -60 26 -44 25 -74 -5 -103 l-24 -25 22 0 c52 0 98 74 84 132 -18 69 -94 118 -184 118 -109 0 -210 -69 -262 -180 -22 -47 -26 -69 -26 -145 1 -78 4 -98 28 -147 59 -121 177 -198 317 -206 139 -8 249 31 350 125 155 143 183 355 74 562 -19 36 -32 57 -30 46z"
       id="path446"
       style="fill:#ccff99" />
    <path
       d="M4869 3080 c-83 -10 -86 -17 -22 -51 32 -17 88 -55 125 -85 l67 -54 84 0 c46 0 110 5 143 10 64 12 214 60 214 69 0 8 -152 67 -220 86 -116 31 -269 41 -391 25z"
       id="path448"
       style="fill:#3366ff" />
    <path
       d="M3761 2941 c16 -38 38 -106 49 -152 18 -79 71 -450 64 -458 -1 -1 -45 26 -96 60 -121 84 -223 181 -288 277 -29 42 -57 81 -61 86 -4 4 -17 -10 -28 -32 l-20 -40 62 -89 c86 -122 251 -285 366 -362 89 -59 251 -147 251 -136 0 2 -11 38 -25 80 -14 41 -41 168 -60 282 -47 278 -75 368 -153 486 -21 32 -66 67 -86 67 -2 0 9 -31 25 -69z"
       id="path450"
       style="fill:#3366cc" />
    <path
       d="M3362 2946 c-12 -18 -22 -47 -22 -68 0 -19 -5 -59 -10 -88 -6 -29 -8 -55 -6 -58 10 -10 72 234 62 245 -1 1 -11 -13 -24 -31z"
       id="path452"
       style="fill:#3399ff" />
    <path
       d="M4617 2962 l-47 -17 57 -34 c76 -46 193 -160 273 -265 35 -47 66 -84 68 -81 2 2 -26 62 -63 134 -52 102 -81 146 -136 206 -39 41 -78 75 -87 74 -10 0 -38 -8 -65 -17z"
       id="path454"
       style="fill:#3399ff" />
    <path
       d="M2506 2912 c-98 -161 -311 -336 -516 -424 -88 -37 -53 -35 57 3 120 42 270 120 362 189 71 53 181 162 181 180 0 4 -10 31 -23 60 l-24 53 -37 -61z"
       id="path456"
       style="fill:#33ccff" />
    <path
       d="M3880 2953 c0 -2 11 -23 24 -46 53 -92 113 -328 117 -455 l1 -37 8 34 c18 76 22 255 7 336 -17 93 -40 155 -59 155 -7 1 -32 5 -55 9 -24 5 -43 6 -43 4z"
       id="path458"
       style="fill:#3399ff" />
    <path
       d="M4156 2895 c20 -32 49 -92 64 -134 27 -74 29 -77 96 -119 38 -23 94 -52 124 -63 54 -21 231 -61 237 -55 8 7 -116 154 -178 210 -99 92 -263 190 -352 212 l-28 7 37 -58z"
       id="path460"
       style="fill:#3366ff" />
    <path
       d="M1545 2895 c-111 -54 -240 -92 -365 -108 -116 -14 -89 -24 75 -26 118 -1 247 21 345 58 l55 21 -3 50 c-2 27 -7 50 -10 49 -4 0 -47 -20 -97 -44z"
       id="path462"
       style="fill:#66ff00" />
    <path
       d="M4420 2917 c0 -2 25 -21 55 -41 76 -53 172 -158 298 -324 59 -79 107 -146 107 -149 0 -8 -186 5 -259 18 -83 15 -176 47 -265 91 -43 22 -79 38 -80 36 -2 -2 -1 -23 2 -47 l4 -43 93 -43 c214 -100 331 -126 595 -132 l205 -5 -74 68 c-40 38 -131 138 -201 224 -166 202 -237 268 -357 329 -35 17 -123 30 -123 18z"
       id="path464"
       style="fill:#3366cc" />
    <path
       d="M6865 2909 c-32 -5 -84 -16 -115 -24 -72 -21 -351 -117 -348 -120 2 -2 35 -14 74 -27 l70 -25 75 44 c118 69 309 142 379 144 23 0 23 1 5 9 -25 11 -62 10 -140 -1z"
       id="path466"
       style="fill:#33ccff" />
    <path
       d="M4936 2828 c9 -18 23 -37 31 -41 7 -5 44 -31 81 -60 l67 -51 -43 51 c-41 50 -133 133 -146 133 -4 0 1 -15 10 -32z"
       id="path468"
       style="fill:#3399ff" />
    <path
       d="M5815 2830 c-119 -69 -313 -132 -484 -157 -64 -9 -117 -18 -119 -19 -2 -1 3 -15 12 -32 l15 -29 83 13 c160 26 314 86 453 179 107 72 131 98 40 45z"
       id="path470"
       style="fill:#3399ff" />
    <path
       d="M3207 2745 c-37 -49 -83 -121 -101 -160 -31 -64 -33 -75 -27 -135 l6 -65 57 86 c66 98 100 170 123 259 29 112 18 115 -58 15z"
       id="path472"
       style="fill:#3399ff" />
    <path
       d="M7147 2751 c-13 -61 -7 -158 13 -224 40 -130 132 -233 248 -278 77 -31 221 -32 307 -4 71 23 197 106 234 154 l26 34 -50 -38 c-164 -126 -391 -140 -554 -36 -121 78 -193 202 -210 359 -6 60 -7 63 -14 33z"
       id="path474"
       style="fill:#66ff00" />
    <path
       d="M7680 2764 c-31 -17 -64 -18 -93 -2 -20 10 -21 10 -8 -5 19 -24 83 -22 112 3 28 22 24 24 -11 4z"
       id="path476"
       style="fill:#00cccc" />
    <path
       d="M1600 2738 c-80 -27 -210 -48 -309 -49 l-86 -1 65 -14 c96 -20 219 -85 289 -152 57 -54 61 -56 70 -36 18 41 32 139 29 205 l-3 66 -55 -19z"
       id="path478"
       style="fill:#ccff99" />
    <path
       d="M5813 2712 l-42 -39 192 -6 c291 -9 461 -41 623 -117 260 -121 464 -335 549 -578 29 -83 32 -61 5 42 -27 105 -91 230 -165 323 -206 257 -531 393 -975 409 l-145 5 -42 -39z"
       id="path480"
       style="fill:#00cc33" />
    <path
       d="M2667 2532 c-9 -305 -49 -494 -142 -669 -122 -230 -311 -404 -534 -490 -63 -24 -75 -32 -46 -27 193 28 402 155 537 324 163 203 252 481 264 830 l5 145 -39 42 -39 42 -6 -197z"
       id="path482"
       style="fill:#00cc33" />
    <path
       d="M2555 2675 c-22 -18 -76 -55 -120 -83 l-80 -49 -6 -89 c-32 -447 -235 -766 -560 -885 -184 -67 -368 -74 -580 -21 -133 34 -125 22 46 -63 142 -70 238 -95 391 -102 251 -11 460 71 640 251 152 151 236 322 279 561 12 67 38 502 31 511 -1 1 -19 -13 -41 -31z"
       id="path484"
       style="fill:#009900" />
    <path
       d="M6730 2684 c-19 -14 -35 -28 -35 -33 0 -5 26 -26 57 -47 134 -91 239 -193 323 -314 39 -58 39 -43 -1 48 -38 86 -106 181 -191 264 -112 111 -111 111 -153 82z"
       id="path486"
       style="fill:#66ff00" />
    <path
       d="M4130 2670 c0 -17 10 -50 21 -73 12 -23 30 -64 40 -92 23 -67 23 -39 -1 61 -21 88 -39 134 -52 134 -4 0 -8 -14 -8 -30z"
       id="path488"
       style="fill:#3399ff" />
    <path
       d="M5002 2668 c18 -54 104 -231 129 -266 21 -28 149 -111 149 -96 0 17 -74 161 -111 215 -41 62 -153 179 -170 179 -4 0 -3 -15 3 -32z"
       id="path490"
       style="fill:#3399ff" />
    <path
       d="M3327 2591 l-17 -30 48 -58 c69 -82 168 -172 248 -225 70 -46 233 -132 240 -126 1 2 -40 32 -91 66 -116 77 -255 208 -337 316 -33 45 -63 82 -67 84 -4 1 -14 -11 -24 -27z"
       id="path492"
       style="fill:#3399ff" />
    <path
       d="M1061 2584 c-139 -49 -253 -190 -282 -349 -13 -69 -6 -180 14 -245 l14 -45 -4 80 c-12 207 95 393 274 477 119 56 281 50 408 -14 30 -16 37 -17 27 -5 -25 30 -112 79 -173 98 -76 24 -214 25 -278 3z"
       id="path494"
       style="fill:#66ff00" />
    <path
       d="M5577 2566 l-49 -22 66 -43 c169 -109 330 -306 418 -511 37 -88 35 -53 -3 57 -42 117 -99 229 -171 335 -59 87 -178 209 -201 207 -7 0 -34 -11 -60 -23z"
       id="path496"
       style="fill:#33ccff" />
    <path
       d="M5852 2518 c29 -41 65 -95 79 -120 l27 -45 95 -6 c436 -29 760 -235 878 -558 73 -200 75 -413 5 -644 l-15 -50 19 25 c38 48 130 246 151 325 30 115 37 296 14 406 -53 262 -235 488 -502 622 -146 74 -317 106 -601 114 l-203 6 53 -75z"
       id="path498"
       style="fill:#009900" />
    <path
       d="M2810 2497 c0 -40 -5 -112 -10 -161 -13 -110 -8 -140 72 -386 87 -269 102 -367 74 -500 l-14 -65 80 85 c211 224 332 489 345 755 l5 110 -35 34 -36 34 -5 -24 c-3 -13 -10 -51 -17 -84 -13 -69 -51 -178 -86 -250 -36 -74 -117 -215 -123 -215 -3 0 -12 30 -21 68 -9 37 -45 128 -79 202 -84 184 -111 267 -117 372 -4 60 -10 89 -19 92 -11 4 -14 -10 -14 -67z"
       id="path500"
       style="fill:#3399ff" />
    <path
       d="M4102 2445 c-7 -52 -12 -133 -12 -182 0 -85 1 -90 39 -152 l39 -63 7 46 c13 87 0 295 -24 368 -12 37 -25 69 -30 72 -4 3 -13 -37 -19 -89z"
       id="path502"
       style="fill:#3399ff" />
    <path
       d="M5403 2507 l-43 -12 35 -24 c59 -40 188 -182 246 -271 48 -73 109 -181 109 -193 0 -2 -24 4 -54 14 -29 10 -123 25 -207 34 -241 24 -353 51 -448 106 -19 11 -38 16 -42 12 -10 -10 256 -188 310 -208 24 -8 129 -33 234 -56 282 -61 376 -98 480 -189 48 -43 48 -43 41 -14 -20 85 -73 222 -122 318 -97 191 -226 338 -388 445 -83 54 -86 55 -151 38z"
       id="path504"
       style="fill:#3399ff" />
    <path
       d="M2257 2503 c-2 -5 -1 -44 3 -88 4 -44 8 -64 9 -45 0 19 4 59 7 88 5 34 3 52 -4 52 -6 0 -13 -3 -15 -7z"
       id="path506"
       style="fill:#00cccc" />
    <path
       d="M1163 2456 c-149 -49 -259 -186 -286 -355 -18 -120 18 -256 93 -351 71 -90 210 -154 357 -165 l78 -6 -77 29 c-149 56 -254 145 -316 271 -34 69 -37 82 -37 160 1 119 28 186 109 267 72 71 121 90 219 82 139 -12 246 -116 247 -241 0 -61 -19 -106 -59 -140 -64 -54 -151 -41 -169 26 l-9 32 -12 -30 c-16 -39 6 -87 51 -115 59 -35 127 -20 185 41 47 49 66 103 66 180 0 173 -142 314 -324 325 -47 2 -89 -1 -116 -10z"
       id="path508"
       style="fill:#ccff99" />
    <path
       d="M2933 2443 c3 -10 8 -36 12 -58 9 -52 45 -139 103 -244 l46 -85 29 65 c34 76 57 167 57 227 l0 42 -64 -67 -64 -68 -7 30 c-17 84 -29 111 -63 142 -40 37 -56 42 -49 16z"
       id="path510"
       style="fill:#3399ff" />
    <path
       d="M2132 2413 c-37 -13 -47 -23 -73 -75 -29 -57 -29 -59 -7 -47 41 21 103 76 121 108 20 35 19 35 -41 14z"
       id="path512"
       style="fill:#00cccc" />
    <path
       d="M4282 2355 c3 -38 3 -39 83 -68 132 -48 243 -67 395 -66 154 0 273 16 138 18 -160 2 -352 43 -507 107 -47 20 -92 39 -99 41 -10 4 -13 -4 -10 -32z"
       id="path514"
       style="fill:#3399ff" />
    <path
       d="M5332 2373 c3 -10 14 -46 23 -81 10 -34 16 -64 14 -67 -3 -2 -27 2 -54 10 -62 19 -94 19 -141 -1 l-39 -17 35 -15 c56 -23 157 -40 284 -48 l119 -7 -34 49 c-43 64 -136 157 -178 179 -33 16 -34 16 -29 -2z"
       id="path516"
       style="fill:#3399ff" />
    <path
       d="M1927 2323 c-34 -56 -112 -261 -103 -270 2 -3 67 27 143 66 139 70 213 124 213 156 0 14 -4 14 -30 -5 -33 -24 -221 -112 -226 -107 -7 7 27 123 50 170 21 43 21 47 5 47 -11 0 -31 -22 -52 -57z"
       id="path518"
       style="fill:#00cccc" />
    <path
       d="M1833 2314 c-16 -36 -27 -80 -30 -123 l-4 -66 29 75 c15 42 40 97 55 123 l28 47 -26 0 c-22 0 -30 -9 -52 -56z"
       id="path520"
       style="fill:#00cccc" />
    <path
       d="M1709 2310 c-25 -19 -26 -24 -22 -84 12 -149 -64 -303 -179 -360 -150 -75 -338 19 -338 170 0 47 22 96 55 122 33 26 102 29 145 7 41 -21 65 -70 51 -101 -13 -30 -27 -31 -35 -2 -5 22 -6 22 -22 6 -14 -14 -15 -20 -4 -32 18 -22 46 -20 70 6 58 63 -24 168 -132 168 -89 0 -151 -70 -151 -169 0 -92 47 -162 143 -212 40 -21 59 -24 160 -24 112 0 117 1 192 37 46 22 96 55 124 83 50 50 53 65 7 42 l-28 -15 -1 87 c0 64 -7 293 -9 291 0 0 -12 -9 -26 -20z"
       id="path522"
       style="fill:#00cc99" />
    <path
       d="M1195 2284 c-132 -72 -186 -238 -122 -378 50 -109 171 -197 323 -236 147 -38 284 -20 444 58 74 36 110 62 165 117 39 38 83 94 99 124 l29 54 -26 -7 c-15 -3 -54 -9 -87 -13 -59 -6 -61 -7 -142 -87 -58 -57 -103 -91 -149 -113 -237 -114 -497 -70 -603 100 -38 61 -47 147 -22 212 30 77 124 145 202 145 60 0 140 -48 168 -102 l17 -33 -6 35 c-9 46 -27 73 -72 107 -31 24 -47 28 -112 31 -55 2 -84 -2 -106 -14z"
       id="path524"
       style="fill:#00cc33" />
    <path
       d="M3410 2236 c0 -182 -89 -435 -215 -611 -68 -94 -74 -105 -41 -75 90 81 234 293 291 429 27 65 65 198 65 230 0 5 -22 25 -50 45 l-50 36 0 -54z"
       id="path526"
       style="fill:#33ccff" />
    <path
       d="M5992 2268 c3 -7 14 -13 26 -12 12 0 50 1 84 2 34 1 59 4 57 6 -2 2 -42 7 -88 10 -67 6 -82 5 -79 -6z"
       id="path528"
       style="fill:#00cccc" />
    <path
       d="M6070 2187 c0 -2 7 -25 16 -51 14 -42 22 -50 76 -77 57 -29 59 -29 47 -7 -21 41 -76 103 -108 121 -17 10 -31 16 -31 14z"
       id="path530"
       style="fill:#00cccc" />
    <path
       d="M2130 2154 c-19 -14 -70 -39 -112 -56 -43 -18 -76 -34 -73 -36 8 -8 110 21 162 46 29 14 55 34 59 44 9 28 3 29 -36 2z"
       id="path532"
       style="fill:#00cccc" />
    <path
       d="M6224 2158 c21 -28 118 -230 113 -234 -7 -7 -123 27 -169 50 -44 21 -48 21 -48 5 0 -20 76 -70 154 -101 65 -25 169 -58 173 -54 9 9 -141 286 -173 319 -41 42 -78 53 -50 15z"
       id="path534"
       style="fill:#00cccc" />
    <path
       d="M4371 2088 c41 -121 59 -241 59 -399 l0 -138 -47 51 c-27 28 -102 89 -168 136 -192 137 -250 193 -336 322 -9 14 -20 22 -23 19 -4 -3 26 -73 66 -155 80 -165 86 -173 355 -422 133 -123 210 -225 239 -317 10 -30 21 -55 25 -55 4 0 14 30 23 68 74 327 53 584 -68 838 l-53 111 -46 11 c-25 7 -48 12 -50 12 -3 0 8 -37 24 -82z"
       id="path536"
       style="fill:#3399ff" />
    <path
       d="M6355 2114 c18 -30 46 -89 61 -130 15 -41 28 -73 30 -71 2 1 -4 34 -13 72 -16 72 -56 164 -76 177 -32 20 -32 3 -2 -48z"
       id="path538"
       style="fill:#00cccc" />
    <path
       d="M3644 2141 c143 -247 205 -377 254 -531 44 -139 56 -229 49 -383 -10 -245 -79 -428 -235 -627 l-27 -35 40 34 c123 105 218 261 265 436 15 56 23 121 27 220 4 123 2 155 -20 260 -28 137 -78 276 -149 419 -79 158 -88 170 -152 193 -31 11 -54 18 -52 14z"
       id="path540"
       style="fill:#00cc33" />
    <path
       d="M4807 2133 l-39 -4 133 -80 c198 -119 283 -183 404 -304 120 -120 181 -211 240 -358 79 -195 100 -399 60 -582 -5 -23 -4 -26 4 -13 26 40 53 193 52 302 0 158 -30 286 -101 426 -102 203 -313 413 -570 569 -84 52 -91 53 -183 44z"
       id="path542"
       style="fill:#00cc33" />
    <path
       d="M4510 2123 c0 -3 11 -26 25 -49 37 -62 92 -236 106 -332 6 -48 10 -147 7 -238 -4 -161 2 -169 26 -30 36 205 28 414 -20 566 l-24 77 -46 7 c-59 8 -74 8 -74 -1z"
       id="path544"
       style="fill:#33ccff" />
    <path
       d="M6484 2107 c3 -15 9 -54 13 -87 6 -59 7 -61 87 -142 122 -124 176 -252 176 -416 0 -201 -115 -359 -270 -370 -32 -2 -75 1 -95 8 -78 26 -154 123 -155 196 0 70 44 148 102 178 26 14 28 16 8 12 -14 -3 -30 -6 -37 -6 -21 0 -85 -63 -99 -97 -21 -48 -18 -147 5 -191 67 -129 235 -183 375 -119 109 50 197 171 236 323 38 147 20 284 -58 444 -36 74 -62 110 -117 165 -38 39 -94 83 -124 99 l-54 29 7 -26z"
       id="path546"
       style="fill:#00cc33" />
    <path
       d="M1265 2095 c-20 -19 -25 -34 -24 -72 l1 -48 9 50 c5 35 16 57 34 73 14 12 21 22 15 22 -6 0 -22 -11 -35 -25z"
       id="path548"
       style="fill:#00cccc" />
    <path
       d="M2739 2026 l-25 -74 43 -73 c56 -96 110 -226 132 -318 11 -45 21 -70 25 -62 11 18 -1 131 -25 229 -17 70 -114 360 -123 369 -2 2 -14 -30 -27 -71z"
       id="path550"
       style="fill:#33ccff" />
    <path
       d="M4240 2048 c-6 -29 -16 -68 -22 -87 l-10 -33 -53 52 c-45 44 -62 54 -102 60 -26 4 -49 7 -51 5 -2 -1 20 -28 48 -58 28 -31 105 -92 171 -137 l119 -81 0 43 c0 63 -26 172 -54 234 -14 30 -27 54 -29 54 -3 0 -10 -24 -17 -52z"
       id="path552"
       style="fill:#3399ff" />
    <path
       d="M3557 2012 c-15 -38 -42 -94 -61 -125 l-35 -57 44 -93 c114 -246 158 -488 121 -679 -32 -167 -91 -280 -210 -405 -124 -130 -288 -224 -478 -272 -65 -17 -70 -20 -45 -26 16 -4 72 -4 125 -1 263 19 456 100 612 255 130 129 201 265 241 456 43 208 15 410 -91 655 -35 83 -182 360 -190 360 -3 0 -17 -31 -33 -68z"
       id="path554"
       style="fill:#009900" />
    <path
       d="M4764 2013 c4 -16 9 -80 13 -143 l6 -115 80 -55 c93 -63 249 -208 312 -291 59 -76 109 -169 141 -264 25 -73 28 -93 28 -235 1 -136 -2 -164 -22 -230 -49 -153 -130 -286 -256 -419 l-81 -85 60 34 c210 117 351 258 436 435 60 123 81 218 81 360 1 138 -17 228 -67 350 -78 191 -177 310 -390 470 -85 63 -325 215 -341 215 -3 0 -3 -12 0 -27z"
       id="path556"
       style="fill:#009900" />
    <path
       d="M6130 1885 c0 -22 9 -30 56 -52 36 -16 80 -27 123 -30 l66 -4 -75 29 c-42 15 -97 40 -123 55 l-47 28 0 -26z"
       id="path558"
       style="fill:#00cccc" />
    <path
       d="M5419 1832 l54 -62 98 0 c121 0 227 -14 333 -45 89 -26 84 -16 -17 36 -66 34 -191 69 -357 99 -63 12 -126 24 -140 27 -21 5 -17 -2 29 -55z"
       id="path560"
       style="fill:#33ccff" />
    <path
       d="M2613 1763 c-79 -128 -203 -257 -324 -339 -56 -38 -41 -38 47 1 111 49 223 136 321 248 l52 59 -26 39 c-14 21 -29 39 -33 39 -4 0 -20 -21 -37 -47z"
       id="path562"
       style="fill:#66ff00" />
    <path
       d="M6520 1805 c0 -3 6 -18 14 -33 l14 -27 -87 -1 c-47 0 -132 -2 -187 -5 l-102 -4 19 -26 c18 -25 22 -26 83 -22 149 12 303 -64 360 -179 75 -150 -19 -338 -170 -338 -47 0 -96 22 -122 55 -26 33 -29 102 -7 145 21 41 70 65 101 51 30 -13 31 -27 2 -35 -22 -5 -22 -6 -6 -22 14 -14 20 -15 32 -4 22 18 20 46 -6 70 -63 58 -168 -24 -168 -132 0 -89 72 -153 170 -152 134 2 228 108 238 268 7 120 -25 231 -94 321 -23 30 -84 81 -84 70z"
       id="path564"
       style="fill:#00cc99" />
    <path
       d="M3400 1741 c0 -12 83 -151 88 -147 5 6 -72 156 -80 156 -4 0 -8 -4 -8 -9z"
       id="path566"
       style="fill:#00cccc" />
    <path
       d="M4770 1657 c0 -7 15 -21 33 -30 17 -8 57 -30 87 -48 63 -36 58 -28 -20 28 -77 56 -100 67 -100 50z"
       id="path568"
       style="fill:#00cccc" />
    <path
       d="M5608 1652 c-27 -2 -48 -4 -48 -6 0 -2 20 -46 44 -97 54 -113 92 -241 109 -369 l13 -95 9 69 c17 145 -12 358 -62 463 -17 37 -19 38 -65 35z"
       id="path570"
       style="fill:#66ff00" />
    <path
       d="M5761 1598 c28 -90 49 -219 50 -312 l1 -81 14 65 c20 96 85 219 152 289 l57 61 -25 10 c-49 19 -116 30 -191 30 l-77 0 19 -62z"
       id="path572"
       style="fill:#ccff99" />
    <path
       d="M4046 1598 c7 -29 16 -65 19 -80 4 -21 21 -36 71 -64 96 -53 210 -141 282 -217 34 -36 62 -63 62 -61 0 3 -9 22 -19 43 -41 79 -143 188 -316 337 -124 107 -115 103 -99 42z"
       id="path574"
       style="fill:#33ccff" />
    <path
       d="M3341 1607 c-31 -33 -32 -37 -29 -103 l3 -69 27 55 c23 48 48 150 36 150 -2 0 -19 -15 -37 -33z"
       id="path576"
       style="fill:#00cccc" />
    <path
       d="M6302 1600 c-102 -21 -193 -96 -241 -199 -22 -47 -26 -70 -26 -141 0 -76 4 -93 32 -151 101 -205 371 -295 588 -195 79 36 127 77 174 147 51 76 79 165 86 272 l6 82 -25 -76 c-50 -148 -147 -264 -275 -327 -69 -34 -82 -37 -160 -37 -119 1 -186 28 -266 109 -68 68 -85 109 -85 202 0 72 32 145 85 197 107 104 281 82 325 -41 13 -37 12 -45 -3 -76 -11 -25 -26 -38 -49 -44 l-33 -9 30 -12 c39 -16 87 6 115 51 35 59 20 127 -41 185 -59 56 -151 80 -237 63z"
       id="path578"
       style="fill:#ccff99" />
    <path
       d="M4785 1501 c-6 -44 -3 -57 19 -95 15 -25 31 -48 36 -51 27 -16 -6 153 -35 184 -11 11 -14 4 -20 -38z"
       id="path580"
       style="fill:#00cccc" />
    <path
       d="M3422 1491 c-7 -22 -34 -69 -61 -103 -26 -35 -53 -73 -60 -85 -6 -13 -16 -23 -20 -23 -13 0 -43 130 -44 186 l0 47 -19 -23 c-25 -30 -24 -105 4 -252 l21 -117 44 65 c23 35 63 94 88 131 54 80 83 162 69 194 -9 20 -11 18 -22 -20z"
       id="path582"
       style="fill:#00cccc" />
    <path
       d="M5986 1474 c-63 -82 -81 -142 -81 -279 0 -111 2 -124 28 -176 56 -115 194 -215 332 -240 70 -13 180 -6 245 14 l45 15 -80 -5 c-148 -9 -286 41 -384 140 -62 63 -85 99 -112 179 -36 108 -23 251 32 360 26 51 17 48 -25 -8z"
       id="path584"
       style="fill:#66ff00" />
    <path
       d="M4915 1432 c3 -26 0 -92 -7 -147 l-14 -100 -56 56 c-30 30 -65 73 -76 94 -18 36 -20 37 -26 17 -10 -32 41 -121 126 -221 71 -83 72 -84 80 -56 15 58 21 290 9 343 -17 69 -44 80 -36 14z"
       id="path586"
       style="fill:#00cccc" />
    <path
       d="M3135 1430 c-24 -27 -13 -109 26 -186 16 -32 27 -48 25 -34 -18 92 -27 177 -24 206 5 39 -2 42 -27 14z"
       id="path588"
       style="fill:#00cccc" />
    <path
       d="M3457 1367 c-15 -29 -50 -80 -77 -115 -28 -34 -47 -62 -42 -62 14 0 127 122 145 157 11 20 14 39 9 52 -6 18 -11 13 -35 -32z"
       id="path590"
       style="fill:#00cccc" />
    <path
       d="M5006 1367 c3 -23 -1 -87 -10 -142 -8 -54 -14 -101 -12 -102 3 -4 42 134 51 185 8 41 -2 89 -20 96 -12 4 -13 -3 -9 -37z"
       id="path592"
       style="fill:#00cccc" />
    <path
       d="M2518 1337 c-84 -29 -169 -87 -214 -145 -91 -119 -107 -305 -40 -456 28 -61 94 -151 137 -185 31 -24 31 -24 -6 25 -174 226 -126 547 103 693 59 37 169 71 236 72 80 2 17 17 -74 18 -54 0 -94 -6 -142 -22z"
       id="path594"
       style="fill:#66ff00" />
    <path
       d="M4073 1228 c-14 -132 -39 -237 -87 -354 -40 -101 -22 -93 49 21 51 82 87 170 115 279 29 113 27 122 -20 146 -21 11 -41 20 -43 20 -1 0 -8 -51 -14 -112z"
       id="path596"
       style="fill:#66ff00" />
    <path
       d="M3020 1299 c-10 -24 -11 -35 -2 -48 93 -127 119 -257 78 -380 -58 -169 -283 -228 -389 -102 -50 60 -55 153 -9 194 70 63 192 49 192 -23 0 -16 -4 -32 -10 -35 -5 -3 -10 1 -10 9 0 9 -7 16 -15 16 -20 0 -19 -36 1 -44 21 -8 20 -8 38 10 25 24 20 77 -9 104 -33 31 -109 38 -159 15 -57 -27 -81 -69 -81 -141 0 -76 32 -130 102 -171 41 -24 59 -28 123 -28 63 0 85 5 140 31 119 57 224 176 250 284 14 59 8 87 -10 48 -17 -36 -23 -35 -38 6 -7 19 -38 69 -69 111 -31 43 -68 99 -83 127 l-27 49 -13 -32z"
       id="path598"
       style="fill:#00cc99" />
    <path
       d="M6380 1300 c0 -6 11 -22 25 -35 19 -20 33 -25 72 -24 l48 2 -49 6 c-36 5 -55 15 -72 35 -13 15 -24 22 -24 16z"
       id="path600"
       style="fill:#00cccc" />
    <path
       d="M5088 1212 c-33 -80 -35 -89 -22 -114 23 -44 44 -149 44 -218 0 -184 -92 -374 -220 -455 -45 -28 -131 -55 -178 -55 -100 0 -198 73 -226 170 -25 83 -8 146 56 207 38 36 76 53 121 53 24 0 28 3 17 10 -8 5 -36 10 -61 10 -62 0 -134 -47 -166 -109 -27 -53 -31 -152 -8 -207 37 -88 122 -154 223 -174 118 -22 267 36 380 148 119 118 182 277 182 458 0 111 -13 178 -50 261 -52 115 -51 115 -92 15z"
       id="path602"
       style="fill:#00cc33" />
    <path
       d="M4696 1264 c-3 -9 -6 -21 -6 -28 0 -26 69 -102 131 -146 l63 -44 -58 68 c-31 37 -71 90 -87 117 -17 27 -32 49 -34 49 -1 0 -6 -7 -9 -16z"
       id="path604"
       style="fill:#00cccc" />
    <path
       d="M2644 1251 c-154 -39 -262 -176 -272 -341 -8 -138 32 -250 127 -352 136 -148 335 -177 544 -81 42 20 76 37 75 39 -2 1 -32 -4 -68 -12 -338 -71 -631 153 -580 444 14 81 38 130 86 172 56 48 118 72 188 73 138 1 246 -91 246 -208 0 -57 -21 -100 -63 -125 -43 -27 -73 -25 -102 5 l-25 24 0 -25 c0 -59 92 -101 155 -71 89 43 122 170 72 280 -50 111 -154 178 -281 183 -39 2 -85 0 -102 -5z"
       id="path606"
       style="fill:#ccff99" />
    <path
       d="M3508 1243 c-10 -11 -42 -37 -71 -58 -52 -38 -53 -40 -64 -108 -29 -186 -191 -376 -371 -436 -111 -38 -249 -20 -326 40 -66 52 -99 162 -76 249 22 82 114 150 200 150 14 0 45 -10 70 -21 l45 -20 -30 31 c-70 73 -202 58 -282 -34 -40 -45 -57 -97 -57 -171 2 -239 273 -367 562 -265 89 31 159 79 237 162 122 129 189 287 183 430 -3 68 -4 69 -20 51z"
       id="path608"
       style="fill:#00cc33" />
    <path
       d="M4660 1076 c0 -28 6 -33 55 -55 145 -62 251 -233 227 -363 -27 -144 -168 -239 -287 -194 -50 19 -104 75 -106 109 -4 71 13 106 64 137 44 27 92 26 111 -2 23 -33 21 -51 -4 -36 -22 14 -35 6 -27 -17 10 -24 46 -18 59 10 10 22 8 30 -9 53 -32 43 -73 49 -129 21 -59 -30 -85 -64 -91 -121 -16 -137 149 -231 295 -168 103 45 192 176 211 316 12 78 2 165 -23 211 l-15 28 -1 -38 0 -38 -31 22 c-17 12 -92 52 -165 89 l-134 67 0 -31z"
       id="path610"
       style="fill:#00cc99" />
    <path
       d="M4353 970 c-185 -87 -295 -295 -252 -479 30 -130 138 -261 269 -324 41 -20 93 -39 115 -43 36 -6 33 -3 -35 32 -239 121 -342 392 -234 620 30 64 107 151 171 193 59 39 46 39 -34 1z"
       id="path612"
       style="fill:#66ff00" />
    <path
       d="M4534 940 c-104 -22 -203 -99 -251 -198 -25 -50 -28 -68 -28 -153 0 -90 2 -99 38 -171 45 -93 126 -172 225 -220 64 -32 72 -33 187 -33 112 0 124 2 178 29 69 33 173 127 216 195 17 26 31 51 31 55 0 5 -25 -15 -56 -44 -138 -126 -333 -173 -495 -118 -87 29 -185 124 -219 213 -27 71 -30 163 -7 217 21 49 92 125 140 150 125 63 278 11 317 -107 26 -77 -30 -163 -98 -152 -29 5 -31 4 -22 -12 11 -22 32 -31 71 -31 50 0 89 27 111 76 44 101 -23 231 -146 285 -51 22 -138 30 -192 19z"
       id="path614"
       style="fill:#ccff99" />
    <path
       d="M2752 918 c-19 -19 -14 -83 8 -109 l21 -24 -16 32 c-18 37 -19 67 -5 94 12 22 9 24 -8 7z"
       id="path616"
       style="fill:#00cccc" />
    <path
       d="M4621 613 c-1 -36 36 -87 70 -96 15 -4 11 3 -16 26 -22 19 -40 46 -45 67 l-8 35 -1 -32z"
       id="path618"
       style="fill:#00cccc" />
  </g>
</svg>
