<?xml version="1.0" encoding="UTF-8" standalone="no"?>
<svg
   xmlns:dc="http://purl.org/dc/elements/1.1/"
   xmlns:cc="http://creativecommons.org/ns#"
   xmlns:rdf="http://www.w3.org/1999/02/22-rdf-syntax-ns#"
   xmlns:svg="http://www.w3.org/2000/svg"
   xmlns="http://www.w3.org/2000/svg"
   xmlns:sodipodi="http://sodipodi.sourceforge.net/DTD/sodipodi-0.dtd"
   xmlns:inkscape="http://www.inkscape.org/namespaces/inkscape"
   version="1.0"
   width="850.000000pt"
   height="850.000000pt"
   viewBox="0 0 850.000000 850.000000"
   preserveAspectRatio="xMidYMid meet"
   id="svg2"
   inkscape:version="0.91 r13725"
   sodipodi:docname="Mandala518_001.svg">
  <defs
     id="defs624" />
  <sodipodi:namedview
     pagecolor="#ffffff"
     bordercolor="#666666"
     borderopacity="1"
     objecttolerance="10"
     gridtolerance="10"
     guidetolerance="10"
     inkscape:pageopacity="0"
     inkscape:pageshadow="2"
     inkscape:window-width="1920"
     inkscape:window-height="980"
     id="namedview622"
     showgrid="false"
     inkscape:zoom="0.62824358"
     inkscape:cx="746.53386"
     inkscape:cy="771.86933"
     inkscape:window-x="0"
     inkscape:window-y="1"
     inkscape:window-maximized="1"
     inkscape:current-layer="svg2" />
  <metadata
     id="metadata4">
Created by potrace 1.14, written by Peter Selinger 2001-2017
<rdf:RDF>
  <cc:Work
     rdf:about="">
    <dc:format>image/svg+xml</dc:format>
    <dc:type
       rdf:resource="http://purl.org/dc/dcmitype/StillImage" />
  </cc:Work>
</rdf:RDF>
</metadata>
  <g
     transform="translate(0.000000,850.000000) scale(0.100000,-0.100000)"
     fill="#000000"
     stroke="none"
     id="g6">
    <path
       d="M0 4250 l0 -4250 4250 0 4250 0 0 4250 0 4250 -4250 0 -4250 0 0 -4250z m5415 4191 c75 -35 130 -120 141 -219 8 -64 -17 -174 -59 -265 l-35 -75 68 57 c90 75 158 111 223 118 96 10 147 -38 147 -135 0 -57 -30 -161 -60 -210 -11 -18 -20 -35 -20 -37 0 -3 24 7 53 21 72 37 178 44 224 15 42 -26 59 -83 42 -143 -15 -59 -34 -94 -85 -159 l-44 -57 61 19 c243 76 338 -101 158 -293 -27 -29 -49 -52 -49 -53 0 0 28 0 63 0 112 -1 178 -54 191 -156 l7 -51 35 58 c45 75 59 91 113 126 30 18 58 28 84 28 84 0 149 -117 133 -239 l-6 -46 22 30 c12 17 49 57 82 90 91 90 171 107 230 48 45 -45 56 -143 29 -251 -6 -25 -2 -23 50 24 112 102 230 134 295 79 64 -54 59 -172 -12 -322 l-44 -91 64 51 c130 104 250 148 347 127 122 -26 193 -105 191 -215 -2 -139 -93 -241 -287 -320 l-78 -32 82 -8 c211 -18 333 -109 289 -215 -26 -63 -142 -144 -237 -165 -35 -7 -45 -25 -15 -25 25 0 123 -48 150 -73 74 -69 65 -163 -19 -215 -43 -26 -130 -51 -191 -54 -27 -2 -48 -5 -48 -8 0 -4 15 -11 34 -18 42 -15 122 -85 141 -123 56 -108 -45 -204 -217 -204 -43 0 -78 -2 -78 -5 0 -3 17 -16 37 -30 49 -34 73 -76 73 -130 0 -46 -28 -120 -57 -152 -19 -22 -19 -22 54 -3 67 18 150 19 190 4 42 -16 82 -58 89 -95 9 -46 -27 -119 -89 -182 -49 -51 -51 -53 -22 -45 17 4 71 8 120 8 73 -1 98 -5 132 -23 73 -38 91 -104 50 -176 -19 -35 -88 -99 -143 -133 -16 -10 -8 -12 46 -13 197 -2 324 -106 266 -219 -32 -61 -141 -131 -262 -167 l-59 -18 64 -8 c141 -16 232 -47 306 -104 47 -35 95 -134 95 -193 -1 -89 -52 -160 -145 -203 -94 -43 -244 -24 -387 48 l-49 25 61 -72 c76 -91 120 -177 120 -236 0 -87 -49 -133 -144 -133 -51 0 -157 31 -204 60 -18 11 -35 20 -37 20 -3 0 4 -19 17 -42 44 -87 52 -171 22 -229 -42 -83 -174 -67 -305 36 l-57 45 19 -61 c76 -243 -101 -338 -293 -158 -29 27 -52 49 -53 49 0 0 0 -28 0 -63 -1 -112 -54 -178 -156 -191 l-51 -7 58 -35 c75 -45 91 -59 126 -113 18 -30 28 -58 28 -84 0 -84 -117 -149 -239 -133 l-46 6 30 -22 c17 -12 57 -49 90 -82 90 -91 107 -171 48 -230 -45 -45 -123 -55 -243 -30 l-35 7 52 -56 c122 -134 140 -274 42 -324 -30 -16 -131 -17 -184 -2 -22 6 -75 28 -117 50 l-77 38 54 -67 c102 -125 146 -248 125 -344 -30 -142 -136 -216 -268 -188 -108 24 -202 122 -266 280 l-33 81 -8 -82 c-18 -211 -109 -333 -215 -289 -65 27 -136 129 -165 240 -7 26 -15 39 -18 30 -43 -125 -65 -163 -116 -197 -108 -73 -226 48 -233 239 -2 57 -9 61 -26 14 -15 -42 -85 -122 -123 -141 -47 -25 -94 -19 -133 15 -48 42 -69 105 -70 201 -1 43 -3 79 -6 79 -3 0 -16 -17 -30 -37 -34 -49 -76 -73 -130 -73 -46 0 -120 28 -152 57 -22 20 -22 12 -3 -51 19 -62 19 -157 1 -199 -47 -111 -156 -109 -275 6 -30 29 -51 43 -47 33 15 -42 18 -165 6 -215 -39 -162 -194 -157 -302 11 l-33 51 -6 -90 c-25 -346 -279 -330 -385 23 l-18 59 -8 -64 c-16 -141 -47 -232 -104 -306 -35 -47 -134 -95 -193 -95 -89 1 -161 52 -202 145 -43 95 -25 246 47 387 l25 49 -70 -59 c-91 -76 -159 -112 -224 -119 -96 -10 -147 39 -147 141 0 51 31 157 60 204 11 18 20 35 20 37 0 3 -19 -4 -42 -17 -128 -65 -253 -48 -277 39 -19 67 9 146 85 244 l44 57 -61 -19 c-243 -76 -338 101 -158 293 27 29 49 52 49 53 0 0 -28 0 -63 0 -112 1 -178 54 -191 156 l-7 51 -35 -58 c-45 -75 -59 -91 -113 -126 -30 -18 -58 -28 -84 -28 -84 0 -149 117 -133 239 l6 46 -22 -30 c-48 -68 -143 -151 -186 -163 -113 -34 -183 48 -168 197 4 35 11 72 17 82 16 31 0 22 -57 -30 -112 -102 -230 -131 -296 -72 -33 29 -33 30 -33 123 0 91 1 96 47 190 l46 96 -64 -51 c-130 -104 -250 -148 -347 -127 -141 30 -215 136 -187 268 24 108 122 202 280 266 l81 33 -82 8 c-211 18 -333 109 -289 215 26 63 142 144 237 165 35 7 45 25 16 25 -26 0 -124 48 -151 73 -71 66 -67 154 9 208 42 30 141 59 200 59 57 0 63 11 15 28 -42 15 -122 85 -141 123 -56 108 45 204 217 204 43 0 78 2 78 5 0 3 -17 16 -37 30 -49 34 -73 76 -73 130 0 46 28 120 57 152 20 22 12 22 -51 3 -147 -45 -279 6 -279 107 0 56 23 101 86 166 l52 52 -35 -7 c-19 -5 -73 -8 -120 -8 -102 0 -161 25 -187 79 -36 77 19 168 153 253 16 10 8 12 -46 13 -197 2 -324 106 -266 219 32 61 141 131 262 167 l59 18 -70 8 c-203 24 -317 86 -371 203 -62 132 9 266 163 311 88 26 218 2 346 -62 l48 -25 -59 70 c-76 91 -112 159 -119 224 -10 96 39 147 141 147 51 0 157 -31 204 -60 18 -11 35 -20 37 -20 3 0 -7 24 -21 52 -31 62 -43 162 -24 207 39 94 174 84 311 -24 l57 -45 -19 61 c-76 243 101 338 293 158 29 -27 52 -49 53 -49 0 0 0 28 0 63 1 112 54 178 156 191 l51 7 -58 35 c-75 45 -91 59 -126 113 -18 30 -28 58 -28 84 0 84 117 149 239 133 l46 -7 -30 22 c-16 13 -57 50 -90 83 -90 91 -107 171 -48 230 45 45 123 55 243 30 l35 -7 -51 56 c-69 76 -104 147 -104 213 0 86 45 125 146 125 69 0 123 -15 216 -61 l77 -39 -54 67 c-102 125 -146 248 -125 344 26 124 103 192 215 191 140 -1 241 -91 320 -286 l32 -78 8 82 c18 211 109 333 215 289 63 -26 144 -142 165 -237 7 -35 25 -45 25 -15 0 25 48 123 73 150 69 74 163 65 215 -19 26 -43 51 -130 54 -191 2 -27 5 -48 8 -48 4 0 11 15 18 34 15 42 85 122 123 141 108 56 204 -45 204 -217 0 -43 2 -78 5 -78 3 0 16 17 30 37 34 49 76 73 130 73 46 0 120 -28 152 -57 22 -20 22 -12 3 51 -30 100 -15 206 36 252 59 53 134 37 226 -49 l63 -59 -8 33 c-4 19 -7 72 -7 119 0 68 5 93 23 127 23 44 65 73 104 73 61 -1 141 -63 192 -150 l21 -35 6 91 c13 181 91 277 199 245 67 -20 134 -114 186 -261 21 -61 23 -63 23 -28 3 123 59 285 122 347 74 74 183 100 264 62z"
       id="path8"
       style="fill:none" />
    <path
       d="M5255 8401 c-49 -22 -99 -71 -125 -120 -42 -84 -52 -148 -57 -373 l-5 -218 57 0 c43 0 67 -6 100 -26 l44 -26 55 84 c118 183 187 353 187 468 1 103 -39 177 -115 211 -52 23 -90 24 -141 0z"
       id="path10"
       style="fill:#ff6600" />
    <path
       d="M4731 8264 c-44 -37 -71 -131 -71 -248 1 -80 40 -339 54 -353 2 -3 57 2 121 11 64 9 134 16 156 16 46 0 45 -6 23 137 -35 236 -107 403 -195 448 -39 21 -53 19 -88 -11z"
       id="path12"
       style="fill:#ff6600" />
    <path
       d="M4357 8108 c-66 -66 -55 -234 29 -454 l34 -91 123 41 c67 22 123 41 125 42 2 1 -8 53 -22 115 -47 208 -135 345 -234 365 -24 5 -36 1 -55 -18z"
       id="path14"
       style="fill:#ff6666" />
    <path
       d="M2673 7996 c-84 -71 -110 -265 -72 -538 8 -55 15 -78 25 -78 8 0 53 6 101 14 49 8 114 18 146 21 l59 7 -7 96 c-20 295 -89 470 -197 497 -18 5 -33 -1 -55 -19z"
       id="path16"
       style="fill:#00ffff" />
    <path
       d="M5707 8004 c-58 -21 -155 -94 -225 -169 -66 -70 -178 -213 -171 -219 2 -1 32 -22 66 -45 34 -22 90 -64 124 -93 l62 -51 49 54 c89 100 171 213 207 289 30 63 36 86 36 143 0 60 -3 71 -24 88 -27 22 -70 23 -124 3z"
       id="path18"
       style="fill:#ff6600" />
    <path
       d="M2102 7983 c-58 -28 -93 -95 -93 -178 0 -116 80 -247 263 -428 l119 -118 43 39 c26 24 59 43 89 50 31 8 47 18 47 28 0 28 -58 248 -83 315 -58 155 -121 244 -198 283 -62 30 -136 34 -187 9z"
       id="path20"
       style="fill:#00ffff" />
    <path
       d="M3059 7921 c-69 -74 -100 -209 -91 -407 l4 -91 130 -7 c72 -3 132 -5 134 -3 2 2 8 55 15 120 23 239 -34 427 -129 427 -16 0 -38 -14 -63 -39z"
       id="path22"
       style="fill:#66ffcc" />
    <path
       d="M4055 7910 c-36 -14 -56 -46 -62 -102 -9 -90 25 -193 114 -340 l34 -57 64 39 c35 21 88 51 117 66 29 14 55 28 57 30 2 2 -19 50 -48 107 -86 174 -204 284 -276 257z"
       id="path24"
       style="fill:#ff6666" />
    <path
       d="M3465 7830 c-36 -15 -83 -74 -114 -142 -29 -64 -79 -273 -68 -284 3 -3 47 -15 98 -26 71 -15 98 -17 116 -9 13 6 33 11 43 11 23 0 42 59 61 179 26 174 -42 311 -136 271z"
       id="path26"
       style="fill:#66ffcc" />
    <path
       d="M5915 7669 c-71 -27 -169 -103 -249 -192 l-68 -77 69 -78 c39 -44 77 -89 86 -102 l16 -22 74 60 c206 168 306 343 237 412 -26 26 -97 26 -165 -1z"
       id="path28"
       style="fill:#ff6666" />
    <path
       d="M4870 7643 c-376 -43 -781 -257 -1031 -547 l-71 -81 63 -13 63 -12 66 63 c125 122 233 198 388 276 202 102 421 158 647 167 l140 6 60 -37 c181 -110 389 -305 503 -473 82 -120 174 -311 210 -437 l28 -99 62 -23 63 -22 -7 37 c-16 90 -66 264 -99 347 -135 334 -377 616 -693 804 l-86 51 -135 -2 c-75 0 -152 -3 -171 -5z"
       id="path30"
       style="fill:#ff9900" />
    <path
       d="M3760 7627 c-86 -43 -56 -198 67 -355 26 -34 52 -61 56 -62 4 0 40 28 80 63 40 34 88 74 107 88 l34 26 -47 70 c-96 145 -214 212 -297 170z"
       id="path32"
       style="fill:#ff9966" />
    <path
       d="M3642 7470 c-31 -69 -35 -90 -20 -90 7 0 34 -11 61 -24 26 -13 47 -22 47 -20 0 1 -9 18 -20 36 -10 18 -26 58 -34 88 l-14 55 -20 -45z"
       id="path34"
       style="fill:#66ffcc" />
    <path
       d="M1776 7479 c-57 -45 -16 -165 92 -275 48 -48 174 -144 273 -208 l26 -16 66 87 c36 49 80 105 98 127 l33 38 -35 29 c-57 49 -201 145 -259 174 -133 67 -243 84 -294 44z"
       id="path36"
       style="fill:#00ffff" />
    <path
       d="M4945 7441 l-40 -6 -12 -180 c-17 -270 -21 -242 34 -250 26 -4 75 -17 109 -29 l61 -22 96 191 96 192 -87 57 c-84 54 -88 56 -152 55 -36 -1 -83 -5 -105 -8z"
       id="path38"
       style="fill:#ff6600" />
    <path
       d="M4751 7414 c-129 -28 -201 -54 -201 -72 0 -23 42 -356 46 -360 1 -2 34 3 73 12 38 9 90 16 115 16 44 0 44 1 50 38 3 20 8 91 11 157 3 66 8 144 12 173 6 60 6 61 -106 36z"
       id="path40"
       style="fill:#ff6600" />
    <path
       d="M2769 7365 c-132 -21 -250 -54 -290 -81 -68 -46 -218 -227 -299 -359 -71 -115 -180 -370 -180 -420 0 -7 15 -16 34 -19 19 -4 46 -16 60 -27 20 -16 27 -17 31 -7 2 7 16 47 31 88 63 179 197 396 333 542 l81 86 88 21 c152 35 255 44 447 38 99 -3 200 -11 225 -16 97 -24 88 -27 92 32 2 28 8 59 12 68 6 13 -6 19 -71 32 -43 10 -109 21 -148 27 -98 13 -343 11 -446 -5z"
       id="path42"
       style="fill:#00ccff" />
    <path
       d="M6067 7326 c-66 -24 -194 -97 -244 -140 l-25 -22 45 -69 c24 -39 55 -90 67 -115 12 -25 24 -47 25 -48 6 -6 148 80 206 124 135 104 182 236 98 279 -40 21 -94 18 -172 -9z"
       id="path44"
       style="fill:#ff6666" />
    <path
       d="M3489 7311 c-23 -24 -29 -38 -29 -73 0 -57 37 -132 92 -184 l43 -40 67 5 67 6 61 72 c33 39 60 76 60 81 0 17 -114 104 -175 133 -83 40 -146 40 -186 0z"
       id="path46"
       style="fill:#ff9966" />
    <path
       d="M4420 7304 c-41 -19 -103 -51 -137 -71 l-61 -36 55 -161 c31 -89 60 -171 64 -184 9 -22 9 -22 67 20 31 24 77 52 100 62 23 10 42 22 42 26 0 16 -50 373 -52 376 -2 1 -37 -13 -78 -32z"
       id="path48"
       style="fill:#ff9966" />
    <path
       d="M5276 7208 c-24 -51 -64 -135 -90 -185 l-46 -93 42 -26 c23 -15 65 -49 93 -75 l51 -48 117 151 116 152 -42 46 c-54 59 -177 170 -189 170 -5 0 -29 -42 -52 -92z"
       id="path50"
       style="fill:#ff6600" />
    <path
       d="M2888 7173 c-21 -2 -38 -7 -38 -11 0 -4 36 -110 79 -237 l78 -230 45 -3 c40 -3 47 0 63 25 10 15 36 50 58 76 l40 49 -17 136 c-9 75 -20 152 -23 170 l-5 32 -122 -2 c-66 -1 -138 -3 -158 -5z"
       id="path52"
       style="fill:#0099cc" />
    <path
       d="M3224 7124 c4 -27 9 -77 13 -111 3 -35 8 -63 10 -63 2 0 15 13 29 29 37 44 101 65 174 58 l60 -7 -36 49 c-33 46 -39 51 -102 64 -37 9 -87 18 -111 22 l-44 7 7 -48z"
       id="path54"
       style="fill:#66ccff" />
    <path
       d="M2680 7139 c-90 -20 -107 -33 -196 -146 l-26 -32 158 -178 c86 -98 161 -182 166 -188 6 -7 21 3 43 29 27 30 45 40 81 47 26 5 49 10 51 12 1 2 -33 109 -75 238 -65 193 -82 234 -98 236 -10 1 -57 -7 -104 -18z"
       id="path56"
       style="fill:#0099cc" />
    <path
       d="M4115 7118 c-106 -88 -155 -141 -143 -155 6 -7 15 -13 19 -13 5 0 38 -18 73 -40 62 -39 135 -109 170 -162 l18 -27 30 35 30 34 -63 185 c-34 102 -67 185 -73 185 -6 0 -33 -19 -61 -42z"
       id="path58"
       style="fill:#ff9966" />
    <path
       d="M1661 7117 c-19 -6 -43 -24 -54 -39 -20 -26 -20 -28 -3 -72 29 -75 127 -156 280 -232 72 -35 133 -64 136 -64 3 0 32 52 64 117 l58 116 -23 18 c-60 45 -199 121 -254 138 -85 26 -163 33 -204 18z"
       id="path60"
       style="fill:#66ffcc" />
    <path
       d="M5474 6898 c-60 -79 -110 -145 -112 -149 -1 -3 13 -30 33 -60 20 -30 43 -75 53 -102 10 -29 22 -45 29 -42 7 2 73 57 147 122 l135 118 -31 55 c-40 71 -128 200 -138 200 -4 0 -56 -64 -116 -142z"
       id="path62"
       style="fill:#ff9966" />
    <path
       d="M3360 6989 c-35 -14 -70 -49 -70 -70 0 -15 11 -12 77 22 43 21 83 39 90 39 7 0 13 5 13 10 0 13 -77 12 -110 -1z"
       id="path64"
       style="fill:#0066cc" />
    <path
       d="M6170 6979 c-25 -5 -82 -27 -128 -49 -69 -33 -83 -43 -77 -58 4 -9 26 -69 48 -132 22 -63 41 -116 42 -117 3 -6 115 41 178 74 117 62 181 159 146 222 -30 53 -119 79 -209 60z"
       id="path66"
       style="fill:#ff9966" />
    <path
       d="M6625 6974 c-16 -8 -43 -27 -58 -42 -37 -35 -99 -160 -122 -244 l-18 -67 34 -38 c27 -31 49 -43 109 -60 41 -12 82 -24 91 -28 33 -13 99 204 100 326 1 83 -14 126 -53 153 -28 20 -45 20 -83 0z"
       id="path68"
       style="fill:#66ff33" />
    <path
       d="M3585 6963 c-264 -59 -469 -258 -532 -517 l-17 -69 25 -16 c13 -9 46 -36 72 -60 43 -40 53 -45 91 -42 23 1 61 -4 84 -12 l42 -15 0 42 c1 116 52 248 121 311 65 59 114 78 209 83 114 5 180 -19 255 -93 66 -67 95 -137 95 -233 -1 -184 -167 -311 -317 -243 -54 25 -77 67 -71 133 4 33 2 46 -5 39 -5 -5 -12 -31 -14 -58 -13 -137 138 -243 304 -215 213 35 353 213 353 447 -1 242 -167 439 -426 505 -72 19 -214 26 -269 13z"
       id="path70"
       style="fill:#ff3300" />
    <path
       d="M4748 6949 c-147 -19 -307 -101 -417 -213 l-54 -55 21 -66 c12 -36 22 -72 22 -79 0 -8 24 -28 54 -44 29 -17 63 -42 74 -57 l20 -25 31 51 c45 73 117 138 189 172 57 26 70 29 145 25 136 -7 231 -67 289 -186 29 -59 33 -76 33 -147 -1 -122 -47 -206 -144 -263 -40 -23 -57 -27 -127 -27 -68 0 -86 4 -115 24 -45 31 -69 64 -76 106 -7 47 2 77 33 108 15 15 22 27 17 27 -21 0 -63 -54 -74 -93 -30 -111 37 -223 171 -286 48 -23 68 -26 156 -26 95 0 104 2 175 37 143 71 246 215 270 380 29 194 -79 411 -264 536 -86 57 -169 88 -277 102 -41 5 -77 9 -80 8 -3 0 -35 -4 -72 -9z"
       id="path72"
       style="fill:#ff9900" />
    <path
       d="M2377 6853 c-25 -37 -61 -98 -82 -135 l-36 -67 142 -108 c90 -68 150 -107 163 -106 138 13 145 16 181 79 l18 31 -163 184 c-89 101 -166 185 -170 187 -4 2 -28 -28 -53 -65z"
       id="path74"
       style="fill:#0099cc" />
    <path
       d="M7005 6891 c-70 -31 -149 -131 -221 -275 -35 -72 -64 -133 -64 -136 0 -6 222 -120 233 -120 9 0 108 161 133 214 13 28 30 82 39 121 21 90 13 148 -25 187 -33 33 -42 34 -95 9z"
       id="path76"
       style="fill:#66ff33" />
    <path
       d="M6366 6742 c-16 -18 -46 -43 -67 -55 -22 -12 -39 -25 -39 -28 0 -3 19 -7 43 -8 23 -1 51 -3 61 -4 15 -2 22 7 28 38 5 22 8 51 6 65 l-3 26 -29 -34z"
       id="path78"
       style="fill:#66ff33" />
    <path
       d="M1625 6750 c-50 -8 -81 -24 -101 -55 -52 -79 89 -206 288 -260 l67 -18 38 34 c31 27 43 49 60 109 12 41 24 82 28 91 5 13 -8 22 -62 42 -137 51 -236 68 -318 57z"
       id="path80"
       style="fill:#66ffcc" />
    <path
       d="M7327 6718 c-32 -18 -84 -57 -114 -87 -47 -47 -149 -181 -207 -273 l-17 -26 47 -33 c26 -18 84 -62 127 -97 l80 -65 28 34 c139 166 239 364 239 474 0 108 -69 135 -183 73z"
       id="path82"
       style="fill:#00cc00" />
    <path
       d="M5628 6608 c-136 -119 -147 -132 -142 -156 4 -15 8 -28 9 -30 2 -2 36 7 76 20 59 18 97 23 186 23 94 0 113 3 113 15 0 21 -76 240 -86 250 -5 4 -75 -50 -156 -122z"
       id="path84"
       style="fill:#ff9966" />
    <path
       d="M3625 6630 c-92 -24 -159 -81 -201 -173 -22 -48 -29 -81 -32 -150 l-4 -87 42 -46 c23 -25 60 -83 81 -128 34 -73 42 -84 74 -93 19 -6 35 -9 35 -7 0 2 -26 54 -57 114 -52 99 -58 117 -61 183 -7 133 39 226 134 273 59 29 153 35 209 14 47 -18 103 -59 125 -94 33 -52 22 -4 -12 54 -69 115 -207 173 -333 140z"
       id="path86"
       style="fill:#cc0033" />
    <path
       d="M2924 6619 c-34 -8 -49 -20 -92 -78 -29 -37 -52 -73 -52 -79 0 -7 15 -12 33 -12 19 0 54 -6 80 -14 44 -13 46 -13 66 10 12 13 27 24 34 24 7 0 22 28 33 63 11 34 24 70 28 80 7 15 2 17 -40 16 -27 -1 -67 -5 -90 -10z"
       id="path88"
       style="fill:#0066cc" />
    <path
       d="M4750 6621 c-93 -31 -183 -107 -233 -198 -22 -41 -25 -56 -18 -76 17 -45 23 -141 12 -207 -11 -65 -11 -65 19 -95 l30 -30 0 70 c2 180 27 269 100 344 57 58 107 81 180 81 102 0 179 -45 230 -133 22 -38 30 -65 30 -102 0 -36 3 -46 10 -35 5 8 10 47 10 86 0 121 -69 228 -179 277 -49 21 -151 31 -191 18z"
       id="path90"
       style="fill:#ff9933" />
    <path
       d="M6115 6596 c-27 -7 -49 -16 -48 -22 17 -99 35 -180 41 -184 4 -4 30 -23 59 -43 l52 -37 63 20 c102 31 178 102 178 165 0 34 -31 74 -73 94 -35 17 -61 21 -133 20 -49 0 -111 -6 -139 -13z"
       id="path92"
       style="fill:#ff9966" />
    <path
       d="M2219 6553 c-11 -26 -27 -73 -36 -105 -16 -57 -16 -58 9 -113 l25 -55 18 45 c31 83 78 124 150 134 l40 6 -88 68 c-48 37 -90 67 -93 67 -2 0 -14 -21 -25 -47z"
       id="path94"
       style="fill:#66ccff" />
    <path
       d="M3655 6501 c-88 -40 -143 -148 -132 -261 7 -86 122 -308 173 -335 47 -25 129 -115 159 -175 13 -26 33 -77 45 -113 17 -53 28 -70 55 -87 62 -38 152 -146 194 -232 73 -147 85 -213 85 -443 -1 -185 -3 -207 -28 -300 l-27 -100 38 -77 c21 -42 41 -77 44 -77 9 -1 95 150 123 216 142 339 141 754 -3 1098 -61 146 -158 291 -247 367 l-32 28 -57 -26 c-77 -35 -208 -44 -283 -20 -124 42 -209 173 -181 280 20 75 76 116 158 116 42 0 53 -4 70 -26 26 -33 26 -55 3 -85 -25 -30 -78 -31 -103 -1 -23 29 -26 28 -34 -9 -15 -68 37 -121 121 -121 62 0 113 30 152 88 32 46 34 54 30 116 -3 56 -8 73 -34 105 -66 83 -196 116 -289 74z m426 -670 c21 -22 29 -39 29 -66 0 -80 -100 -126 -155 -71 -34 34 -41 71 -21 112 28 60 99 72 147 25z m168 -195 c56 -29 67 -102 22 -147 -78 -77 -200 14 -147 110 15 26 51 50 79 51 10 0 30 -6 46 -14z m133 -276 c25 -26 29 -36 24 -63 -9 -48 -51 -80 -95 -73 -46 7 -71 38 -71 86 0 77 85 106 142 50z m30 -260 c24 -25 29 -36 24 -58 -21 -86 -146 -79 -146 8 0 36 39 80 70 80 12 0 35 -14 52 -30z m-11 -231 c29 -29 23 -79 -13 -99 -25 -13 -31 -13 -55 0 -38 21 -45 81 -11 104 30 22 54 20 79 -5z m-44 -211 c22 -29 22 -48 -1 -74 -18 -21 -28 -26 -49 -20 -14 3 -29 16 -33 29 -16 44 4 77 46 77 15 0 32 -6 37 -12z m-67 -178 c24 -24 25 -34 4 -54 -30 -31 -74 -13 -74 31 0 20 22 42 43 43 4 0 16 -9 27 -20z"
       id="path96"
       style="fill:#ff0000" />
    <path
       d="M3990 5817 c-18 -9 -26 -22 -28 -48 -3 -37 7 -52 45 -63 17 -5 29 -1 48 18 31 31 32 50 0 81 -28 29 -31 29 -65 12z"
       id="path98"
       style="fill:#660000" />
    <path
       d="M4154 5585 c-14 -21 -14 -30 -4 -55 22 -53 78 -52 109 2 35 62 -66 112 -105 53z"
       id="path100"
       style="fill:#660000" />
    <path
       d="M4282 5348 c-23 -28 -18 -74 9 -88 52 -29 107 26 75 75 -18 27 -66 35 -84 13z"
       id="path102"
       style="fill:#660000" />
    <path
       d="M4325 5076 c-30 -45 20 -91 64 -59 25 17 27 46 5 67 -23 23 -51 20 -69 -8z"
       id="path104"
       style="fill:#660000" />
    <path
       d="M4332 4848 c-18 -18 -14 -46 7 -58 25 -13 48 -4 56 21 12 38 -35 65 -63 37z"
       id="path106"
       style="fill:#660000" />
    <path
       d="M4297 4644 c-13 -13 -7 -52 8 -58 27 -10 46 5 43 33 -3 26 -35 41 -51 25z"
       id="path108"
       style="fill:#660000" />
    <path
       d="M4247 4473 c-15 -14 -7 -43 12 -43 26 0 36 17 21 35 -14 16 -23 19 -33 8z"
       id="path110"
       style="fill:#660000" />
    <path
       d="M6496 6466 c-4 -19 -16 -46 -27 -60 -16 -20 -17 -27 -7 -31 7 -2 47 -16 88 -31 193 -68 406 -201 557 -347 71 -69 72 -70 92 -156 35 -151 44 -255 38 -446 -3 -99 -11 -200 -16 -225 -24 -97 -27 -88 32 -92 28 -2 59 -8 68 -12 13 -6 19 6 32 66 57 263 47 566 -28 824 -14 48 -28 68 -93 132 -134 131 -287 238 -451 315 -81 38 -243 97 -267 97 -6 0 -15 -15 -18 -34z"
       id="path112"
       style="fill:#66cc00" />
    <path
       d="M4755 6471 c-47 -21 -105 -82 -136 -143 -18 -35 -23 -69 -30 -188 l-8 -145 32 -64 c27 -56 32 -77 35 -160 3 -65 -1 -118 -12 -164 -14 -59 -14 -72 -2 -95 8 -15 24 -58 35 -97 27 -86 30 -250 6 -335 -22 -82 -18 -82 20 -5 19 39 63 104 99 147 63 74 64 76 40 82 -28 7 -64 60 -64 94 0 30 61 92 90 92 28 0 61 -17 82 -44 l18 -21 0 26 c0 38 28 127 60 191 l29 57 -17 68 -18 68 -73 12 c-195 32 -321 153 -321 308 0 152 118 237 240 175 63 -32 78 -80 37 -118 -32 -30 -71 -28 -96 4 -12 15 -21 33 -21 41 0 24 -22 9 -42 -28 -23 -43 -17 -74 25 -117 109 -113 318 -16 317 149 -1 84 -61 172 -145 210 -51 24 -129 24 -180 0z m118 -729 c30 -27 39 -60 27 -98 -14 -42 -44 -64 -88 -64 -47 0 -71 16 -88 57 -14 31 -13 38 3 71 30 62 98 78 146 34z"
       id="path114"
       style="fill:#ff6600" />
    <path
       d="M4767 5712 c-10 -10 -17 -28 -17 -40 0 -27 33 -62 58 -62 31 0 62 29 62 59 0 54 -68 82 -103 43z"
       id="path116"
       style="fill:#ff6600" />
    <path
       d="M7698 6466 c-87 -36 -182 -108 -311 -238 l-118 -119 38 -42 c23 -25 44 -61 52 -90 9 -31 19 -47 30 -47 35 0 283 70 357 101 109 45 193 105 229 164 26 42 30 58 30 119 0 58 -4 77 -23 103 -52 73 -174 94 -284 49z"
       id="path118"
       style="fill:#00cc00" />
    <path
       d="M4323 6381 c-6 -50 -21 -111 -32 -137 -13 -28 -21 -68 -21 -100 0 -29 -5 -86 -11 -126 l-11 -73 57 -85 c32 -47 58 -86 60 -88 1 -2 21 49 43 111 86 243 96 409 29 508 -20 30 -80 79 -96 79 -4 0 -12 -40 -18 -89z"
       id="path120"
       style="fill:#ff3366" />
    <path
       d="M1958 6435 c-46 -25 -68 -89 -67 -191 1 -82 18 -191 29 -188 3 1 50 9 105 19 l100 18 33 54 34 54 -21 67 c-24 80 -68 144 -115 166 -41 19 -63 20 -98 1z"
       id="path122"
       style="fill:#9966cc" />
    <path
       d="M2986 6421 c-4 -7 -5 -15 -2 -18 9 -9 19 4 14 18 -4 11 -6 11 -12 0z"
       id="path124"
       style="fill:#0066cc" />
    <path
       d="M2330 6394 c-30 -26 -76 -101 -67 -111 3 -2 26 12 53 32 26 20 65 45 88 57 52 26 53 27 36 38 -28 18 -78 11 -110 -16z"
       id="path126"
       style="fill:#0066cc" />
    <path
       d="M5660 6410 c-31 -5 -80 -17 -109 -27 l-54 -18 -18 -90 -18 -90 29 -59 c17 -33 30 -70 30 -83 0 -14 3 -23 8 -21 4 2 31 16 60 31 161 85 322 70 434 -40 164 -161 124 -435 -77 -534 -59 -29 -71 -31 -133 -27 -133 10 -222 90 -222 200 0 62 26 97 95 126 l30 12 -39 -5 c-115 -13 -174 -184 -110 -314 78 -155 258 -243 434 -212 187 34 345 172 400 349 25 79 26 218 4 312 -53 226 -250 423 -476 475 -85 19 -201 26 -268 15z"
       id="path128"
       style="fill:#00ffff" />
    <path
       d="M2600 6394 c-106 -22 -223 -86 -299 -163 -124 -125 -180 -255 -188 -437 -4 -85 -2 -130 12 -190 27 -120 25 -119 119 -141 l81 -20 34 23 c19 13 55 28 81 35 l47 12 -28 52 c-41 74 -62 167 -56 242 17 219 244 359 454 282 78 -29 163 -114 188 -189 49 -147 -38 -312 -170 -322 -74 -5 -117 21 -140 87 -14 38 -14 39 -15 10 -1 -78 91 -148 194 -149 195 -2 368 218 341 432 -21 171 -129 324 -280 398 -113 55 -238 68 -375 38z"
       id="path130"
       style="fill:#3399ff" />
    <path
       d="M1758 6356 c21 -19 47 -51 57 -70 11 -20 22 -36 26 -36 3 0 7 19 8 43 1 23 3 51 4 62 2 21 -27 32 -96 34 l-37 1 38 -34z"
       id="path132"
       style="fill:#66ffcc" />
    <path
       d="M1572 6365 c-47 -34 -68 -111 -52 -196 10 -51 82 -219 95 -219 3 0 31 11 63 24 31 13 89 34 127 46 39 13 71 24 73 25 8 7 -64 165 -97 214 -66 100 -154 145 -209 106z"
       id="path134"
       style="fill:#9966cc" />
    <path
       d="M3730 6320 c-11 -11 -20 -24 -20 -29 0 -16 30 -41 49 -41 40 0 57 61 22 80 -26 13 -28 13 -51 -10z"
       id="path136"
       style="fill:#cc0033" />
    <path
       d="M6336 6306 l-49 -22 47 -18 c83 -32 136 -93 138 -157 1 -16 2 -29 4 -29 1 0 32 39 69 86 42 55 63 90 57 96 -13 13 -173 68 -197 67 -11 0 -42 -11 -69 -23z"
       id="path138"
       style="fill:#66cc99" />
    <path
       d="M4822 6288 c-21 -21 -14 -57 14 -70 23 -11 29 -10 45 11 17 21 18 26 6 45 -17 25 -47 32 -65 14z"
       id="path140"
       style="fill:#ff9933" />
    <path
       d="M1181 6251 c-59 -59 -25 -207 87 -373 28 -42 56 -79 61 -83 5 -3 40 14 78 38 37 25 88 55 113 67 25 12 47 24 48 25 6 5 -64 122 -114 191 -90 128 -218 190 -273 135z"
       id="path142"
       style="fill:#993399" />
    <path
       d="M6300 6236 c0 -3 15 -27 34 -53 18 -27 44 -68 56 -92 16 -33 24 -41 31 -30 17 26 10 77 -15 106 -22 26 -106 81 -106 69z"
       id="path144"
       style="fill:#66cc99" />
    <path
       d="M6553 6099 c-59 -78 -107 -146 -105 -151 1 -5 7 -42 13 -83 11 -70 13 -75 50 -99 21 -14 41 -26 44 -26 7 0 369 320 373 330 4 9 -106 83 -200 135 l-67 36 -108 -142z"
       id="path146"
       style="fill:#00cc66" />
    <path
       d="M3211 6214 c2 -5 16 -32 31 -60 29 -55 58 -155 58 -201 0 -16 4 -33 9 -38 5 -6 31 -62 58 -126 28 -64 67 -142 87 -172 35 -53 144 -163 152 -154 6 6 -54 354 -72 417 -62 222 -147 328 -271 338 -31 3 -54 1 -52 -4z"
       id="path148"
       style="fill:#3399cc" />
    <path
       d="M4193 6091 l-43 -48 35 -33 c19 -19 37 -32 39 -29 5 5 20 159 15 158 -2 -1 -23 -22 -46 -48z"
       id="path150"
       style="fill:#ff3366" />
    <path
       d="M5430 6131 c0 -23 -88 -137 -138 -177 -30 -25 -72 -68 -93 -97 -99 -135 -159 -230 -177 -279 -23 -62 -43 -158 -32 -158 18 0 332 274 382 334 110 132 143 247 98 340 -20 42 -40 60 -40 37z"
       id="path152"
       style="fill:#ff9966" />
    <path
       d="M830 6070 c-14 -14 -20 -33 -20 -65 0 -100 78 -228 213 -349 l77 -68 78 69 c44 39 89 77 102 86 l22 16 -60 74 c-168 206 -343 306 -412 237z"
       id="path154"
       style="fill:#993399" />
    <path
       d="M2653 6066 c-209 -66 -277 -289 -154 -502 27 -46 35 -53 78 -63 52 -13 117 -48 176 -94 31 -24 43 -28 72 -23 19 4 35 10 35 14 0 4 -37 29 -82 57 -46 27 -101 66 -124 87 -90 83 -126 240 -76 334 64 123 238 180 348 115 51 -31 41 -7 -13 28 -85 57 -176 73 -260 47z"
       id="path156"
       style="fill:#336699" />
    <path
       d="M5653 6046 c-82 -31 -129 -67 -137 -106 -9 -45 -52 -128 -92 -177 -30 -37 -34 -47 -28 -78 3 -19 10 -35 14 -35 5 0 30 35 55 78 69 112 101 149 159 182 116 66 227 62 312 -13 89 -78 120 -205 73 -306 -19 -42 -19 -44 -1 -28 42 38 75 118 80 193 4 62 1 79 -22 130 -34 74 -86 129 -151 160 -68 32 -175 32 -262 0z"
       id="path158"
       style="fill:#00cccc" />
    <path
       d="M1980 6029 c-212 -48 -407 -131 -586 -250 -192 -128 -395 -350 -514 -562 l-33 -58 6 -167 c6 -189 27 -301 83 -464 70 -202 179 -389 325 -557 69 -78 218 -215 226 -207 3 2 10 29 17 59 l13 56 -49 48 c-215 209 -371 501 -438 818 -11 55 -23 161 -27 236 l-6 137 34 58 c98 172 305 395 475 511 154 105 335 186 520 233 37 9 41 14 57 63 9 30 17 57 17 60 0 10 -27 7 -120 -14z"
       id="path160"
       style="fill:#9966ff" />
    <path
       d="M4485 6008 c-4 -18 -27 -88 -52 -155 l-45 -123 36 -82 c28 -66 63 -178 90 -283 4 -14 41 72 73 169 23 70 27 98 27 206 1 118 -1 128 -28 182 -16 31 -43 71 -61 88 l-33 32 -7 -34z"
       id="path162"
       style="fill:#ff3366" />
    <path
       d="M6825 5913 c-77 -69 -160 -143 -185 -164 l-45 -39 41 -38 c33 -31 43 -48 48 -86 5 -30 12 -46 19 -43 7 2 111 37 232 77 121 40 224 76 229 80 9 9 -20 162 -39 198 -11 22 -143 143 -154 141 -3 0 -69 -57 -146 -126z"
       id="path164"
       style="fill:#00cc66" />
    <path
       d="M2770 5991 c-191 -40 -252 -240 -125 -407 13 -17 78 -66 143 -108 104 -66 125 -76 164 -76 99 0 229 -62 328 -155 29 -28 47 -35 109 -44 85 -13 166 -43 247 -92 64 -39 202 -173 242 -236 31 -50 42 -54 42 -15 -1 21 -12 35 -51 62 -85 60 -152 162 -198 301 l-22 66 -38 -19 c-48 -24 -82 -16 -117 25 -21 25 -25 38 -20 66 6 42 46 81 82 81 22 0 18 6 -38 59 -35 32 -76 82 -93 109 -28 48 -34 52 -100 70 l-70 20 -14 -22 c-33 -48 -139 -143 -186 -165 -74 -35 -176 -40 -243 -11 -99 43 -157 139 -133 219 16 56 82 111 132 111 63 0 91 -63 49 -108 -23 -24 -69 -29 -88 -10 -20 20 -15 -23 8 -59 46 -77 168 -45 220 58 75 146 -63 315 -230 280z m603 -492 c21 -26 22 -87 2 -116 -20 -29 -75 -46 -107 -34 -42 16 -71 61 -64 99 6 41 22 61 60 77 36 16 84 4 109 -26z"
       id="path166"
       style="fill:#3366cc" />
    <path
       d="M3257 5482 c-35 -39 -9 -102 41 -102 28 0 62 34 62 60 0 27 -35 60 -63 60 -13 0 -31 -8 -40 -18z"
       id="path168"
       style="fill:#336699" />
    <path
       d="M3560 5925 c0 -3 7 -34 15 -68 8 -34 31 -156 51 -272 59 -344 116 -499 222 -602 29 -29 57 -53 62 -53 16 0 12 431 -5 535 -35 215 -125 370 -249 429 -58 28 -96 40 -96 31z"
       id="path170"
       style="fill:#3399cc" />
    <path
       d="M5670 5904 c-74 -34 -111 -72 -177 -179 -31 -49 -61 -97 -68 -105 -7 -8 -15 -46 -17 -85 -5 -92 -54 -197 -130 -280 -49 -54 -56 -66 -61 -116 -29 -247 -214 -469 -511 -614 -98 -48 -263 -105 -302 -105 -8 0 -14 -4 -14 -8 0 -5 -18 -37 -40 -71 -22 -34 -40 -67 -40 -73 0 -17 258 -2 360 21 174 40 320 101 470 199 274 177 469 422 551 691 l22 75 -24 15 c-60 39 -131 118 -162 180 -62 127 -37 273 61 347 83 64 180 50 233 -35 35 -54 36 -70 8 -105 -28 -36 -73 -33 -103 7 -17 24 -19 32 -9 58 12 30 12 31 -15 25 -33 -8 -82 -59 -82 -86 0 -27 26 -90 48 -113 53 -59 165 -75 237 -34 87 49 124 154 90 257 -47 140 -187 198 -325 134z m-146 -635 c24 -27 27 -38 22 -68 -17 -112 -186 -106 -186 6 0 44 14 69 48 88 38 21 82 11 116 -26z m-97 -260 c30 -29 38 -71 19 -108 -30 -57 -94 -68 -145 -25 -50 42 -41 117 17 149 33 19 78 12 109 -16z m-158 -235 c47 -59 9 -138 -66 -138 -26 0 -42 7 -59 28 -28 31 -30 56 -9 96 17 33 27 38 77 39 28 1 41 -5 57 -25z m-212 -166 c33 -30 31 -80 -3 -107 -30 -24 -43 -26 -78 -10 -33 15 -50 57 -37 91 19 50 78 63 118 26z m-207 -118 c11 -11 20 -31 20 -45 0 -30 -32 -65 -59 -65 -31 0 -63 33 -63 65 0 32 32 65 63 65 10 0 28 -9 39 -20z m-206 -76 c26 -25 20 -72 -9 -86 -31 -14 -74 3 -76 29 -4 63 46 97 85 57z m-180 -40 c34 -33 8 -82 -38 -70 -33 8 -43 42 -20 67 21 23 37 24 58 3z"
       id="path172"
       style="fill:#00ffff" />
    <path
       d="M5406 5248 c-21 -30 -20 -54 4 -78 39 -39 100 -14 100 42 0 53 -74 79 -104 36z"
       id="path174"
       style="fill:#66cccc" />
    <path
       d="M5317 4982 c-23 -25 -21 -58 3 -82 39 -39 100 -14 100 43 0 52 -68 78 -103 39z"
       id="path176"
       style="fill:#66cccc" />
    <path
       d="M5182 4767 c-43 -19 -37 -88 8 -102 32 -10 70 20 70 54 0 43 -38 66 -78 48z"
       id="path178"
       style="fill:#66cccc" />
    <path
       d="M4972 4588 c-29 -29 -7 -78 35 -78 32 0 58 42 43 69 -12 24 -58 29 -78 9z"
       id="path180"
       style="fill:#66cccc" />
    <path
       d="M4777 4474 c-15 -15 -6 -54 14 -65 18 -9 25 -7 43 10 16 17 18 25 10 39 -11 18 -55 28 -67 16z"
       id="path182"
       style="fill:#66cccc" />
    <path
       d="M4593 4403 c-15 -6 -17 -49 -3 -58 20 -12 50 6 50 30 0 18 -21 40 -33 34 -1 0 -8 -3 -14 -6z"
       id="path184"
       style="fill:#66cccc" />
    <path
       d="M4420 4355 c-10 -11 -10 -19 -2 -27 15 -15 44 -2 40 19 -4 23 -22 27 -38 8z"
       id="path186"
       style="fill:#66cccc" />
    <path
       d="M7537 5909 c-97 -10 -147 -20 -148 -32 0 -4 6 -49 15 -100 8 -50 18 -118 21 -150 l7 -59 96 7 c268 18 443 79 486 169 21 44 20 49 -9 84 -63 75 -229 104 -468 81z"
       id="path188"
       style="fill:#00cc00" />
    <path
       d="M5120 5862 c-25 -8 -46 -16 -48 -17 -5 -4 11 -85 17 -85 3 0 16 15 28 33 12 17 32 44 43 60 24 30 23 31 -40 9z"
       id="path190"
       style="fill:#ff9966" />
    <path
       d="M1902 5825 c-162 -55 -157 -39 -50 -162 170 -194 167 -192 216 -186 35 4 42 8 36 22 -24 56 -46 160 -52 251 -9 127 -4 125 -150 75z"
       id="path192"
       style="fill:#ff99ff" />
    <path
       d="M3290 5808 c-7 -29 -12 -55 -10 -58 3 -5 80 -30 80 -26 0 4 -52 131 -55 134 -1 2 -8 -21 -15 -50z"
       id="path194"
       style="fill:#3399cc" />
    <path
       d="M518 5835 c-81 -46 -27 -188 131 -346 72 -71 228 -196 235 -188 1 2 22 32 45 66 22 34 64 90 93 124 l51 62 -54 49 c-99 89 -213 171 -286 205 -86 41 -172 52 -215 28z"
       id="path196"
       style="fill:#9933cc" />
    <path
       d="M2782 5798 c-16 -16 -15 -53 3 -68 19 -16 45 -10 61 15 26 39 -31 86 -64 53z"
       id="path198"
       style="fill:#336699" />
    <path
       d="M1647 5711 c-82 -48 -187 -121 -187 -131 0 -3 65 -57 145 -118 l146 -111 53 34 c30 19 74 42 98 51 23 9 47 20 51 24 6 6 -119 158 -232 282 -4 4 -37 -10 -74 -31z"
       id="path200"
       style="fill:#ff99ff" />
    <path
       d="M5753 5733 c-21 -8 -16 -61 7 -73 30 -16 60 4 60 39 0 35 -29 50 -67 34z"
       id="path202"
       style="fill:#00cccc" />
    <path
       d="M6465 5693 c-3 -16 -12 -51 -19 -80 -13 -50 -12 -53 10 -72 13 -12 24 -32 24 -45 0 -21 8 -27 53 -42 28 -9 64 -23 78 -30 15 -7 28 -11 31 -9 5 5 -8 147 -16 180 -5 18 -132 125 -149 125 -4 0 -9 -12 -12 -27z"
       id="path204"
       style="fill:#66cc99" />
    <path
       d="M5344 5669 c-10 -12 -98 -87 -194 -167 -291 -242 -398 -361 -450 -500 -12 -30 -20 -70 -18 -89 l3 -33 120 66 c193 106 312 189 411 288 135 136 186 257 164 392 -5 31 -11 58 -13 60 -2 2 -12 -5 -23 -17z"
       id="path206"
       style="fill:#ff9966" />
    <path
       d="M6930 5570 l-225 -78 -3 -53 -3 -54 64 -51 64 -51 172 23 c94 13 176 26 181 29 11 7 13 181 4 263 -4 28 -12 52 -18 51 -6 0 -112 -36 -236 -79z"
       id="path208"
       style="fill:#00cc66" />
    <path
       d="M1330 5467 c-86 -86 -136 -144 -128 -152 8 -8 348 -175 357 -175 5 0 20 17 33 38 14 20 47 61 73 90 26 29 46 54 44 56 -9 7 -227 175 -260 199 l-36 27 -83 -83z"
       id="path210"
       style="fill:#9966cc" />
    <path
       d="M7514 5532 l-81 -3 -6 -131 c-4 -73 -5 -133 -4 -135 2 -1 55 -7 120 -14 344 -33 552 103 344 226 -78 45 -199 64 -373 57z"
       id="path212"
       style="fill:#66ff33" />
    <path
       d="M6406 5504 c-9 -23 -8 -24 19 -24 23 0 24 2 15 20 -13 24 -26 26 -34 4z"
       id="path214"
       style="fill:#66cc99" />
    <path
       d="M250 5498 c-61 -11 -120 -54 -147 -108 -28 -53 -29 -92 -4 -145 64 -141 235 -195 589 -187 l122 3 0 53 c0 39 7 66 26 99 l25 46 -75 49 c-162 107 -341 184 -451 194 -22 3 -60 1 -85 -4z"
       id="path216"
       style="fill:#9933cc" />
    <path
       d="M3936 5478 c4 -13 9 -178 10 -368 l3 -344 27 -51 c15 -27 44 -68 64 -90 21 -22 54 -62 74 -88 36 -48 36 -48 45 -23 6 13 17 61 26 107 62 332 0 627 -171 809 -69 73 -92 87 -78 48z"
       id="path218"
       style="fill:#3399cc" />
    <path
       d="M2439 5467 c-19 -7 -45 -20 -57 -28 -21 -15 -19 -16 43 -58 36 -23 84 -67 108 -96 23 -30 50 -57 60 -60 9 -4 56 -36 105 -72 83 -62 89 -65 131 -59 24 3 71 6 103 6 l60 0 -33 43 c-18 23 -82 92 -143 153 -84 83 -127 118 -176 142 -76 38 -149 48 -201 29z"
       id="path220"
       style="fill:#9966cc" />
    <path
       d="M4563 5392 c-40 -88 -40 -90 -30 -158 9 -66 4 -355 -8 -419 -9 -53 83 147 107 230 30 106 32 283 4 365 -10 30 -22 58 -25 63 -4 4 -25 -33 -48 -81z"
       id="path222"
       style="fill:#ff3366" />
    <path
       d="M4842 5449 c-33 -12 -47 -56 -27 -85 30 -46 98 -39 111 11 12 49 -36 91 -84 74z"
       id="path224"
       style="fill:#ff6600" />
    <path
       d="M6312 5380 c-53 -57 -54 -59 -56 -127 -2 -37 -7 -78 -11 -90 -7 -22 -5 -23 47 -23 111 0 241 -52 300 -119 40 -46 75 -123 83 -188 13 -99 -43 -238 -118 -296 -76 -57 -117 -72 -207 -72 -75 0 -91 3 -132 27 -84 50 -138 133 -138 215 0 16 10 49 23 73 35 69 95 92 172 65 17 -6 17 -5 -3 10 -48 35 -156 11 -208 -47 -54 -59 -77 -149 -63 -243 51 -317 439 -457 730 -263 102 68 187 198 224 343 19 77 19 221 -1 298 -48 185 -187 348 -369 433 -68 31 -179 65 -206 63 -8 -1 -38 -27 -67 -59z"
       id="path226"
       style="fill:#66cc00" />
    <path
       d="M1949 5406 c-175 -62 -329 -223 -391 -411 -19 -59 -23 -90 -22 -195 0 -110 3 -135 28 -205 35 -103 99 -205 175 -279 l60 -59 50 22 c27 11 67 25 87 29 29 6 42 16 59 46 12 21 36 53 53 71 l33 33 -46 26 c-63 37 -141 118 -172 179 -72 142 -23 330 110 421 209 143 487 22 487 -213 0 -50 -5 -73 -25 -107 -56 -96 -170 -113 -232 -34 -7 8 -13 10 -13 4 0 -17 41 -55 76 -70 118 -49 264 40 314 191 61 184 -16 381 -194 497 -125 81 -300 102 -437 54z"
       id="path228"
       style="fill:#cc66ff" />
    <path
       d="M3521 5383 c-34 -43 -7 -93 50 -93 30 0 59 31 59 62 0 26 -36 58 -64 58 -15 0 -33 -11 -45 -27z"
       id="path230"
       style="fill:#336699" />
    <path
       d="M2860 5364 c-8 -3 -21 -8 -29 -10 -8 -3 9 -28 50 -72 35 -37 84 -93 109 -123 l45 -56 90 -11 c49 -6 135 -23 189 -37 55 -13 101 -23 103 -22 8 8 -134 172 -189 218 -94 78 -174 112 -273 116 -44 1 -87 0 -95 -3z"
       id="path232"
       style="fill:#9966cc" />
    <path
       d="M6185 5276 c-30 -20 -124 -53 -175 -61 -25 -3 -81 -23 -125 -44 -44 -21 -99 -46 -122 -57 -38 -17 -47 -28 -87 -112 -42 -86 -44 -92 -23 -87 12 2 51 9 87 15 309 52 465 151 486 308 7 57 -2 65 -41 38z"
       id="path234"
       style="fill:#66ffcc" />
    <path
       d="M1105 5192 l-57 -87 6 -100 c4 -54 11 -102 17 -106 6 -3 68 -9 137 -13 70 -3 159 -9 198 -12 l71 -6 12 63 c7 34 21 84 32 111 l19 48 -189 94 -188 95 -58 -87z"
       id="path236"
       style="fill:#9966cc" />
    <path
       d="M7045 5267 c-44 -5 -82 -11 -84 -13 -2 -1 13 -16 32 -33 43 -38 62 -100 54 -176 l-5 -54 48 35 c45 32 50 40 63 102 9 37 18 86 22 110 8 49 14 47 -130 29z"
       id="path238"
       style="fill:#66cc99" />
    <path
       d="M5747 5190 c-8 -25 -12 -47 -10 -49 3 -4 133 48 145 58 4 3 -22 13 -58 21 l-64 16 -13 -46z"
       id="path240"
       style="fill:#66ffcc" />
    <path
       d="M7406 5203 c-24 -89 -37 -182 -27 -201 6 -11 11 -30 11 -41 0 -16 11 -24 53 -35 177 -51 332 -39 387 32 29 37 25 67 -17 114 -50 55 -152 101 -280 127 -122 25 -120 25 -127 4z"
       id="path242"
       style="fill:#66ff33" />
    <path
       d="M6910 5180 c11 -16 36 -62 55 -102 l33 -73 7 38 c16 82 -28 167 -87 167 l-29 0 21 -30z"
       id="path244"
       style="fill:#66cc99" />
    <path
       d="M2614 5152 c8 -15 17 -45 21 -65 6 -30 11 -37 24 -32 9 4 28 9 44 12 15 3 29 9 32 13 4 6 -116 100 -129 100 -4 0 0 -13 8 -28z"
       id="path246"
       style="fill:#9966cc" />
    <path
       d="M3361 5164 c2 -5 28 -41 58 -81 50 -69 58 -75 156 -122 109 -52 222 -120 292 -177 23 -19 44 -34 48 -34 15 0 -105 160 -165 220 -79 79 -158 133 -242 164 -70 26 -152 43 -147 30z"
       id="path248"
       style="fill:#9966cc" />
    <path
       d="M5103 5096 c-86 -64 -210 -138 -397 -237 -155 -83 -193 -119 -222 -217 -8 -28 -27 -80 -40 -113 -14 -34 -23 -64 -20 -66 9 -10 168 45 254 87 256 124 429 303 487 502 28 99 21 104 -62 44z"
       id="path250"
       style="fill:#ff9966" />
    <path
       d="M2067 5096 c-82 -30 -131 -75 -178 -166 -35 -69 -33 -177 5 -249 34 -66 105 -136 174 -174 45 -24 57 -27 85 -19 59 18 114 22 188 12 73 -9 74 -9 102 19 l29 28 -124 6 c-68 3 -139 11 -159 16 -61 19 -141 82 -176 141 -28 47 -33 63 -33 120 0 78 22 131 75 185 48 47 107 74 165 75 33 0 41 3 30 10 -22 14 -139 11 -183 -4z"
       id="path252"
       style="fill:#9966cc" />
    <path
       d="M6218 5104 c-10 -3 -18 -10 -18 -15 0 -16 -117 -95 -176 -119 -33 -13 -60 -24 -61 -24 0 -1 -4 -18 -8 -38 l-7 -37 121 62 c119 61 123 62 199 61 120 0 208 -48 253 -137 59 -114 14 -271 -96 -339 -40 -24 -15 -23 38 2 64 30 109 72 142 131 27 49 30 63 30 144 0 81 -3 95 -30 145 -35 63 -92 110 -171 139 -54 21 -181 35 -216 25z"
       id="path254"
       style="fill:#669900" />
    <path
       d="M2161 5057 c-86 -33 -161 -137 -161 -225 0 -86 59 -170 155 -219 44 -23 69 -27 198 -35 138 -8 150 -8 180 11 83 50 215 64 352 36 71 -15 76 -15 113 4 104 53 282 66 427 32 103 -25 226 -77 323 -137 87 -55 241 -181 265 -218 15 -23 24 -25 107 -28 49 -2 90 -2 90 0 0 13 -68 131 -109 189 -234 332 -651 559 -1067 580 -124 6 -241 -5 -332 -32 l-47 -14 -13 -78 c-21 -136 -89 -241 -186 -288 -146 -71 -316 0 -316 133 0 56 33 117 72 133 25 10 33 9 56 -8 51 -37 31 -123 -28 -123 -11 0 -20 -5 -20 -10 0 -14 61 -50 84 -50 57 0 126 88 126 161 0 53 -46 136 -92 166 -46 31 -125 40 -177 20z m1000 -136 c21 -22 29 -39 29 -66 0 -45 -45 -95 -85 -95 -41 0 -82 26 -94 62 -33 95 79 170 150 99z m272 -32 c9 -12 17 -38 17 -59 0 -73 -90 -108 -140 -55 -56 59 -9 154 69 141 20 -3 44 -15 54 -27z m-561 -10 c11 -6 26 -26 34 -45 12 -29 12 -39 1 -66 -19 -45 -43 -63 -87 -63 -42 0 -76 24 -91 64 -12 31 6 86 34 106 25 18 80 20 109 4z m791 -87 c24 -21 22 -77 -3 -102 -43 -43 -120 -13 -122 47 -2 70 71 102 125 55z m181 -123 c31 -25 34 -61 6 -89 -28 -28 -64 -25 -89 6 -27 34 -26 50 4 79 29 30 45 31 79 4z m160 -145 c41 -40 -7 -109 -59 -86 -14 6 -27 23 -31 37 -13 50 53 86 90 49z m100 -137 c22 -16 18 -55 -6 -71 -40 -24 -80 44 -42 71 10 7 21 13 24 13 3 0 14 -6 24 -13z"
       id="path256"
       style="fill:#cc66ff" />
    <path
       d="M3062 4904 c-33 -23 -27 -83 10 -103 25 -14 29 -14 55 5 39 29 41 66 7 93 -32 25 -42 26 -72 5z"
       id="path258"
       style="fill:#9933cc" />
    <path
       d="M3330 4870 c-24 -24 -25 -38 -4 -68 35 -51 117 -8 95 50 -16 42 -59 50 -91 18z"
       id="path260"
       style="fill:#9933cc" />
    <path
       d="M2782 4844 c-27 -19 -29 -64 -4 -87 58 -53 137 28 82 83 -24 24 -48 25 -78 4z"
       id="path262"
       style="fill:#9933cc" />
    <path
       d="M3577 4772 c-24 -26 -21 -49 7 -67 46 -31 97 25 60 66 -22 24 -46 24 -67 1z"
       id="path264"
       style="fill:#9933cc" />
    <path
       d="M3777 4653 c-14 -14 -6 -53 13 -63 15 -8 24 -6 40 10 16 16 18 25 10 40 -10 19 -49 27 -63 13z"
       id="path266"
       style="fill:#9933cc" />
    <path
       d="M3942 4508 c-18 -18 -15 -36 9 -49 29 -15 59 12 43 39 -14 22 -36 26 -52 10z"
       id="path268"
       style="fill:#9933cc" />
    <path
       d="M4063 4369 c-15 -15 -5 -39 17 -39 22 0 32 24 17 39 -6 6 -14 11 -17 11 -3 0 -11 -5 -17 -11z"
       id="path270"
       style="fill:#9933cc" />
    <path
       d="M7163 5020 c-24 -10 -65 -40 -93 -66 -50 -46 -50 -47 -50 -109 l0 -62 80 -66 c43 -37 83 -67 88 -67 15 0 107 117 133 168 13 27 25 72 27 104 4 53 2 59 -26 88 -25 24 -39 30 -74 30 -24 0 -62 -9 -85 -20z"
       id="path272"
       style="fill:#666699" />
    <path
       d="M665 5004 c-230 -35 -396 -109 -441 -196 -31 -60 12 -112 120 -143 77 -22 236 -16 394 15 95 19 112 25 107 39 -10 24 -35 211 -35 259 0 49 2 49 -145 26z"
       id="path274"
       style="fill:#9933cc" />
    <path
       d="M4625 4922 c-17 -42 -31 -80 -33 -85 -2 -4 7 -3 20 3 20 10 26 23 35 83 6 40 10 73 9 74 -1 1 -15 -33 -31 -75z"
       id="path276"
       style="fill:#ff3366" />
    <path
       d="M6169 4956 c-19 -8 -82 -39 -140 -69 -82 -45 -108 -63 -123 -92 -43 -80 -184 -177 -300 -206 -37 -9 -53 -20 -76 -53 -54 -78 -158 -163 -245 -201 -22 -10 -71 -27 -110 -39 l-69 -22 89 4 c58 3 121 -2 176 -12 47 -9 88 -16 90 -16 3 0 3 15 1 33 -3 25 3 41 23 65 22 27 34 32 70 32 36 0 48 -5 69 -31 27 -32 33 -67 16 -100 -13 -23 -16 -23 50 2 32 12 90 23 137 26 l81 6 52 52 52 53 -27 68 c-37 92 -44 191 -19 270 14 46 31 72 73 114 103 103 234 108 298 11 30 -44 33 -139 5 -164 -25 -22 -75 -21 -95 1 -23 26 -21 75 3 97 16 14 17 20 8 27 -18 11 -66 10 -89 -2 -58 -32 -65 -151 -13 -218 102 -128 284 -99 350 57 25 58 16 168 -18 219 -43 65 -105 95 -202 99 -52 2 -94 -2 -117 -11z m-335 -412 c54 -55 22 -148 -56 -161 -33 -5 -41 -2 -73 30 -38 38 -43 63 -20 107 19 37 41 49 86 50 26 0 44 -7 63 -26z"
       id="path278"
       style="fill:#66ff33" />
    <path
       d="M5732 4524 c-26 -18 -30 -65 -6 -88 23 -24 70 -20 88 6 21 30 20 54 -4 78 -24 24 -48 25 -78 4z"
       id="path280"
       style="fill:#669900" />
    <path
       d="M5900 4928 c-13 -5 -85 -20 -159 -33 -117 -20 -138 -26 -151 -46 -35 -54 -132 -168 -184 -217 -31 -29 -56 -54 -56 -56 0 -1 33 1 73 6 94 11 237 52 301 86 79 42 159 127 185 196 12 32 20 62 19 66 -2 4 -14 3 -28 -2z"
       id="path282"
       style="fill:#66ffcc" />
    <path
       d="M7390 4878 c0 -7 -11 -34 -24 -60 -13 -27 -22 -48 -20 -48 1 0 18 9 36 20 18 10 58 26 88 34 l55 14 -45 20 c-69 31 -90 35 -90 20z"
       id="path284"
       style="fill:#66ff33" />
    <path
       d="M2202 4868 c-19 -19 -14 -45 10 -62 19 -13 25 -14 43 -2 25 16 31 42 15 61 -15 18 -52 19 -68 3z"
       id="path286"
       style="fill:#9933cc" />
    <path
       d="M1070 4837 c0 -25 29 -156 51 -229 17 -58 23 -68 43 -68 32 0 330 41 335 46 2 2 -1 28 -7 56 -7 29 -13 81 -14 115 -3 74 9 69 -178 78 -69 3 -149 8 -177 11 -44 5 -53 4 -53 -9z"
       id="path288"
       style="fill:#9966cc" />
    <path
       d="M7459 4777 c-76 -29 -237 -136 -239 -160 0 -4 28 -40 63 -80 34 -40 74 -88 88 -107 l26 -34 70 47 c125 83 191 179 180 260 -8 57 -35 80 -99 84 -29 2 -69 -3 -89 -10z"
       id="path290"
       style="fill:#666699" />
    <path
       d="M6260 4760 c-14 -26 -5 -57 19 -65 28 -8 50 4 58 33 11 45 -55 73 -77 32z"
       id="path292"
       style="fill:#669900" />
    <path
       d="M7014 4703 c-3 -15 -10 -42 -14 -59 -7 -29 -4 -36 42 -80 276 -269 447 -658 465 -1055 l6 -137 -34 -58 c-100 -175 -310 -399 -480 -514 -158 -106 -368 -199 -529 -234 -21 -4 -29 -16 -43 -62 -10 -31 -16 -59 -13 -61 8 -8 170 28 281 64 390 124 731 404 935 766 l33 58 -6 167 c-6 189 -27 301 -83 464 -103 296 -299 573 -536 757 -15 11 -18 9 -24 -16z"
       id="path294"
       style="fill:#6699ff" />
    <path
       d="M730 4634 c-134 -31 -236 -79 -299 -142 -110 -110 -61 -188 119 -186 81 1 183 26 309 74 l77 30 -40 125 c-23 68 -45 124 -51 124 -5 0 -57 -11 -115 -25z"
       id="path296"
       style="fill:#993399" />
    <path
       d="M3123 4636 c-33 -8 -74 -21 -90 -30 l-28 -15 33 -11 c74 -27 204 -96 400 -214 207 -125 207 -125 272 -126 36 -1 97 6 135 14 39 9 87 16 108 16 20 0 37 4 37 9 0 15 -152 143 -238 198 -101 67 -204 115 -303 143 -97 27 -245 34 -326 16z"
       id="path298"
       style="fill:#99cc66" />
    <path
       d="M2623 4596 c-54 -18 -122 -57 -151 -88 l-22 -25 42 -12 c24 -7 141 -48 260 -92 275 -100 401 -132 528 -133 91 -1 191 21 205 44 14 23 -367 231 -515 281 -113 38 -274 49 -347 25z"
       id="path300"
       style="fill:#99cc66" />
    <path
       d="M5415 4553 c-16 -2 -48 -5 -70 -8 -28 -4 -66 -24 -124 -66 -81 -57 -289 -168 -341 -182 -47 -12 -14 -15 83 -6 189 16 353 80 459 177 32 30 63 63 69 73 10 20 1 22 -76 12z"
       id="path302"
       style="fill:#66ffcc" />
    <path
       d="M1336 4514 c-93 -13 -170 -25 -171 -26 -5 -5 63 -148 102 -215 l36 -61 141 48 c78 27 155 54 173 60 l32 12 -35 45 c-20 26 -49 73 -65 105 -16 32 -33 58 -37 57 -4 -1 -83 -12 -176 -25z"
       id="path304"
       style="fill:#ff99ff" />
    <path
       d="M6966 4525 c-9 -9 -16 -21 -16 -26 0 -24 -86 -143 -137 -189 -55 -50 -55 -51 -37 -71 40 -44 46 -44 225 17 93 32 169 62 169 67 0 13 -97 131 -148 180 -36 36 -40 37 -56 22z"
       id="path306"
       style="fill:#ccccff" />
    <path
       d="M7693 4495 c-58 -16 -128 -49 -215 -102 l-57 -34 39 -64 c21 -35 51 -88 66 -117 14 -29 28 -55 30 -57 2 -2 50 19 107 48 207 102 308 235 235 308 -21 20 -37 26 -89 29 -38 2 -85 -2 -116 -11z"
       id="path308"
       style="fill:#666699" />
    <path
       d="M2163 4456 c-55 -18 -97 -49 -122 -90 -12 -18 -21 -36 -21 -40 0 -3 33 -6 73 -6 52 0 91 -8 142 -26 84 -31 155 -41 341 -50 127 -6 148 -5 210 15 38 11 74 24 81 29 13 8 -267 116 -397 152 -96 27 -250 35 -307 16z"
       id="path310"
       style="fill:#99cc66" />
    <path
       d="M843 4320 c-105 -53 -211 -138 -239 -192 -37 -72 -6 -132 74 -144 89 -13 210 25 353 111 l57 35 -52 90 c-30 49 -59 103 -66 120 -7 16 -15 30 -19 30 -4 0 -52 -23 -108 -50z"
       id="path312"
       style="fill:#993399" />
    <path
       d="M5510 4330 c-11 -11 -20 -29 -20 -40 0 -28 35 -60 65 -60 30 0 65 32 65 60 0 28 -35 60 -65 60 -14 0 -34 -9 -45 -20z"
       id="path314"
       style="fill:#669900" />
    <path
       d="M6016 4311 l-29 -30 24 -5 c13 -3 47 -8 74 -11 l50 -6 -44 40 c-24 23 -44 41 -45 41 -1 0 -15 -13 -30 -29z"
       id="path316"
       style="fill:#66ff99" />
    <path
       d="M1503 4233 c-90 -31 -163 -61 -163 -66 0 -13 97 -131 148 -180 36 -36 40 -37 56 -22 9 9 16 21 16 26 0 24 87 143 138 190 l56 51 -32 29 c-18 16 -38 29 -45 28 -6 0 -85 -26 -174 -56z"
       id="path318"
       style="fill:#ff99ff" />
    <path
       d="M1965 4268 c-84 -16 -190 -73 -255 -138 -65 -65 -129 -183 -155 -285 -19 -75 -19 -212 0 -293 55 -231 261 -428 512 -488 l69 -17 58 61 c57 60 58 60 60 129 2 37 6 77 10 89 7 20 3 21 -71 27 -197 13 -328 121 -354 292 -18 110 33 246 114 308 76 57 117 72 207 72 101 0 146 -19 207 -89 65 -74 79 -151 41 -226 -32 -61 -84 -88 -142 -72 -36 9 -39 9 -22 -4 28 -20 100 -17 144 5 159 82 168 338 18 499 -103 110 -276 161 -441 130z"
       id="path320"
       style="fill:#00cc00" />
    <path
       d="M7165 4264 c-22 -8 -99 -35 -172 -60 l-132 -46 35 -46 c20 -25 49 -72 65 -103 26 -53 31 -58 57 -54 15 3 94 14 176 25 82 11 151 21 152 23 4 4 -90 196 -118 238 l-23 37 -40 -14z"
       id="path322"
       style="fill:#ccccff" />
    <path
       d="M3504 4260 c-5 -5 -27 -16 -49 -25 l-40 -15 43 5 c23 3 61 8 84 11 41 6 41 7 17 20 -29 16 -42 17 -55 4z"
       id="path324"
       style="fill:#339933" />
    <path
       d="M5035 4265 c-5 -2 -32 -6 -60 -10 l-50 -7 28 -15 c25 -13 32 -12 70 5 23 11 49 22 57 25 8 3 4 5 -10 5 -14 0 -29 -1 -35 -3z"
       id="path326"
       style="fill:#66ffcc" />
    <path
       d="M2820 4238 c-30 -11 -92 -22 -137 -25 l-81 -6 -53 -53 -53 -54 18 -37 c47 -98 58 -212 29 -304 -22 -69 -108 -159 -169 -177 -87 -26 -158 -5 -201 58 -30 43 -32 138 -5 163 25 22 75 21 95 -1 23 -26 21 -75 -3 -97 -24 -22 -12 -35 33 -35 59 0 97 46 97 119 0 77 -41 138 -115 172 -104 48 -222 -4 -271 -120 -11 -24 -14 -59 -12 -107 4 -87 34 -139 105 -181 43 -25 57 -28 140 -28 l91 0 127 65 c108 56 129 71 150 106 50 86 181 175 299 205 37 9 53 20 76 53 54 78 158 163 245 201 22 10 71 27 110 39 l69 22 -89 -4 c-58 -3 -121 2 -176 12 -47 9 -88 16 -90 16 -3 0 -3 -16 -1 -35 6 -48 -40 -95 -93 -95 -68 0 -115 74 -85 131 6 10 9 19 8 18 -2 0 -28 -9 -58 -21z m-14 -162 c37 -37 42 -62 19 -106 -44 -86 -175 -55 -175 41 0 91 92 129 156 65z"
       id="path328"
       style="fill:#339900" />
    <path
       d="M2694 4044 c-37 -55 25 -117 80 -80 30 19 35 65 10 90 -25 25 -71 20 -90 -10z"
       id="path330"
       style="fill:#33cc00" />
    <path
       d="M2910 4240 c-11 -11 -20 -29 -20 -40 0 -28 35 -60 65 -60 30 0 65 32 65 60 0 28 -35 60 -65 60 -14 0 -34 -9 -45 -20z"
       id="path332"
       style="fill:#33cc00" />
    <path
       d="M4680 4238 c-41 -9 -94 -17 -117 -17 -24 -1 -43 -4 -43 -8 0 -19 169 -159 263 -217 236 -147 511 -194 682 -117 l40 18 -45 18 c-87 35 -246 122 -417 227 -159 99 -175 106 -230 110 -32 1 -92 -4 -133 -14z"
       id="path334"
       style="fill:#66ff99" />
    <path
       d="M5810 4250 c-56 -7 -187 -47 -178 -55 10 -8 347 -128 413 -147 117 -33 271 -32 338 1 42 20 107 88 107 111 0 4 -39 9 -87 12 -63 4 -107 13 -154 32 -36 14 -80 26 -98 26 -18 0 -62 4 -99 9 -111 16 -174 19 -242 11z"
       id="path336"
       style="fill:#66ff99" />
    <path
       d="M5112 4234 c-29 -7 -63 -19 -74 -25 -21 -11 -21 -12 -2 -26 107 -80 376 -220 507 -265 83 -29 104 -32 212 -32 109 -1 125 1 175 25 31 14 73 41 94 59 l38 33 -154 55 c-535 190 -651 215 -796 176z"
       id="path338"
       style="fill:#66ff99" />
    <path
       d="M2420 4190 l44 -40 28 27 c34 32 28 38 -57 47 l-59 7 44 -41z"
       id="path340"
       style="fill:#99cc66" />
    <path
       d="M3915 4216 c-500 -79 -960 -458 -1096 -905 l-22 -75 24 -15 c60 -39 131 -118 162 -180 62 -127 37 -273 -61 -347 -83 -64 -180 -50 -233 35 -35 54 -36 70 -8 105 28 36 73 33 103 -7 17 -23 19 -32 9 -57 -10 -27 -9 -30 9 -30 27 0 88 62 88 89 0 28 -26 90 -48 114 -53 59 -165 75 -237 34 -117 -66 -137 -227 -43 -341 64 -78 175 -98 278 -50 73 34 110 71 177 179 31 50 62 97 68 105 7 8 15 48 17 88 7 92 56 197 132 280 47 51 54 63 59 113 22 186 130 357 315 497 127 95 345 196 470 217 23 4 42 10 42 14 0 4 18 36 40 70 22 34 40 66 40 71 0 14 -188 11 -285 -4z m195 -45 c5 -11 10 -24 10 -30 0 -17 -46 -42 -64 -35 -22 8 -31 50 -16 69 18 21 57 19 70 -4z m-176 -14 c38 -28 13 -97 -35 -97 -26 0 -49 28 -49 60 0 44 47 64 84 37z m-188 -72 c18 -18 23 -31 19 -48 -9 -28 -42 -57 -66 -57 -27 0 -59 35 -59 65 0 30 32 65 60 65 12 0 32 -11 46 -25z m-211 -81 c8 -4 22 -19 31 -35 39 -76 -51 -145 -113 -87 -59 55 5 151 82 122z m-167 -180 c26 -29 28 -54 7 -93 -38 -75 -155 -43 -155 43 0 26 7 40 32 61 38 32 81 29 116 -11z m-159 -210 c51 -43 41 -118 -20 -150 -73 -38 -155 33 -129 112 22 67 94 85 149 38z m-84 -269 c27 -26 34 -80 15 -116 -16 -28 -67 -51 -99 -44 -74 16 -103 114 -48 161 39 33 99 33 132 -1z"
       id="path342"
       style="fill:#0099ff" />
    <path
       d="M4053 4154 c-3 -8 -1 -20 6 -27 14 -14 47 15 37 32 -10 16 -36 13 -43 -5z"
       id="path344"
       style="fill:#0066cc" />
    <path
       d="M3883 4143 c-18 -7 -16 -50 3 -57 21 -8 20 -8 38 10 12 12 13 20 6 35 -11 19 -23 22 -47 12z"
       id="path346"
       style="fill:#0066cc" />
    <path
       d="M3674 4069 c-24 -27 -8 -54 32 -54 23 0 30 5 32 24 3 15 -3 30 -14 38 -24 17 -28 17 -50 -8z"
       id="path348"
       style="fill:#0066cc" />
    <path
       d="M3465 3956 c-19 -29 -10 -54 23 -63 31 -7 56 7 60 36 8 50 -55 70 -83 27z"
       id="path350"
       style="fill:#0066cc" />
    <path
       d="M3266 3811 c-40 -44 8 -115 58 -89 41 22 47 57 16 88 -25 25 -52 25 -74 1z"
       id="path352"
       style="fill:#0066cc" />
    <path
       d="M3107 3592 c-37 -41 -11 -102 42 -102 55 0 80 61 41 100 -25 25 -62 26 -83 2z"
       id="path354"
       style="fill:#0066cc" />
    <path
       d="M3017 3322 c-37 -40 -9 -102 46 -102 28 0 57 32 57 62 0 25 -36 58 -63 58 -13 0 -31 -8 -40 -18z"
       id="path356"
       style="fill:#0066cc" />
    <path
       d="M6675 4218 c-11 -7 -47 -19 -80 -28 -51 -15 -62 -22 -80 -54 -12 -21 -35 -52 -53 -70 l-31 -32 64 -43 c69 -45 119 -99 156 -171 20 -37 24 -60 24 -135 0 -76 -4 -98 -26 -145 -118 -251 -482 -262 -584 -17 -53 127 25 287 140 287 42 0 105 -31 105 -52 0 -6 3 -9 6 -6 12 13 -18 47 -59 67 -131 63 -282 -29 -332 -204 -74 -252 122 -515 413 -555 250 -34 523 160 614 435 19 59 23 90 22 195 0 110 -3 135 -28 205 -15 44 -44 107 -64 140 -38 63 -157 195 -176 195 -6 0 -20 -6 -31 -12z"
       id="path358"
       style="fill:#9999ff" />
    <path
       d="M4300 4212 c0 -13 68 -131 109 -189 187 -265 502 -471 839 -549 188 -43 411 -43 560 1 l47 14 12 76 c28 173 124 289 262 315 94 18 190 -20 226 -90 34 -67 3 -176 -57 -201 -25 -10 -33 -9 -56 8 -51 37 -31 123 28 123 11 0 20 5 20 10 0 14 -61 50 -85 50 -58 0 -125 -87 -125 -161 0 -51 46 -136 89 -164 85 -56 186 -41 266 39 101 101 100 231 -1 328 -72 68 -109 80 -275 91 -140 9 -150 8 -181 -11 -84 -51 -216 -65 -353 -37 -71 15 -76 15 -113 -4 -143 -73 -372 -67 -572 14 -141 58 -295 161 -406 272 l-61 61 -86 4 c-48 2 -87 2 -87 0z m164 -53 c17 -25 12 -45 -15 -60 -26 -14 -59 5 -59 34 0 47 48 63 74 26z m116 -119 c24 -24 25 -47 3 -72 -33 -36 -93 -13 -93 37 0 24 33 55 57 55 7 0 22 -9 33 -20z m173 -142 c17 -23 19 -31 9 -53 -6 -14 -23 -31 -37 -37 -22 -10 -30 -8 -53 9 -35 26 -40 65 -12 93 28 28 67 23 93 -12z m202 -98 c25 -27 23 -76 -3 -102 -26 -26 -75 -28 -102 -3 -26 24 -26 79 0 105 26 26 81 26 105 0z m798 -38 c30 -27 39 -60 27 -98 -14 -42 -44 -64 -88 -64 -47 0 -71 16 -88 57 -14 31 -13 38 3 71 30 62 98 78 146 34z m-548 -54 c32 -38 29 -81 -11 -115 -29 -27 -54 -29 -93 -8 -33 16 -41 33 -41 80 0 42 38 75 85 75 25 0 40 -8 60 -32z m254 7 c86 -44 46 -175 -54 -175 -40 0 -85 50 -85 95 0 27 8 44 29 66 33 32 67 37 110 14z"
       id="path360"
       style="fill:#9999ff" />
    <path
       d="M4407 4146 c-9 -22 19 -42 37 -26 19 15 10 40 -14 40 -10 0 -20 -6 -23 -14z"
       id="path362"
       style="fill:#6666ff" />
    <path
       d="M4519 4024 c-9 -11 -10 -20 -2 -32 14 -22 43 -22 57 1 9 15 7 21 -8 33 -25 18 -31 18 -47 -2z"
       id="path364"
       style="fill:#6666ff" />
    <path
       d="M4680 3890 c-28 -28 -11 -63 28 -58 21 2 28 9 30 30 5 39 -30 56 -58 28z"
       id="path366"
       style="fill:#6666ff" />
    <path
       d="M4870 3780 c-25 -25 -25 -42 -2 -63 24 -22 45 -21 65 1 23 25 21 48 -5 66 -29 20 -34 20 -58 -4z"
       id="path368"
       style="fill:#6666ff" />
    <path
       d="M5647 3732 c-10 -10 -17 -28 -17 -40 0 -27 33 -62 58 -62 31 0 62 29 62 59 0 54 -68 82 -103 43z"
       id="path370"
       style="fill:#6666ff" />
    <path
       d="M5102 3698 c-40 -50 11 -118 66 -89 49 26 29 101 -27 101 -16 0 -33 -6 -39 -12z"
       id="path372"
       style="fill:#6666ff" />
    <path
       d="M5385 3688 c-26 -15 -35 -28 -35 -55 0 -22 42 -63 65 -63 26 0 58 36 58 65 0 18 -9 36 -23 47 -26 21 -37 22 -65 6z"
       id="path374"
       style="fill:#6666ff" />
    <path
       d="M3539 4200 c-179 -16 -348 -83 -451 -178 -32 -30 -64 -64 -69 -74 -10 -19 -8 -19 58 -13 112 11 135 19 217 79 77 55 304 176 331 176 8 0 17 5 20 10 3 6 0 9 -7 9 -7 -1 -52 -5 -99 -9z"
       id="path376"
       style="fill:#33ccff" />
    <path
       d="M4198 4113 c-175 -296 -224 -683 -132 -1048 55 -220 188 -457 315 -563 l27 -22 58 27 c77 35 207 44 282 19 124 -42 209 -173 181 -280 -20 -75 -76 -116 -158 -116 -42 0 -53 4 -70 26 -26 33 -26 55 -3 85 25 30 78 31 103 1 23 -29 27 -28 34 12 15 75 -43 122 -139 114 -104 -9 -172 -95 -164 -208 5 -75 40 -123 118 -162 134 -69 284 -6 325 137 28 96 18 150 -58 301 -54 106 -72 132 -100 147 -82 44 -171 168 -203 283 -16 57 -25 70 -60 94 -113 79 -213 232 -255 395 -42 161 -37 423 12 605 l20 75 -38 77 c-21 42 -41 77 -44 77 -3 1 -26 -34 -51 -76z m82 -47 c6 -8 10 -25 8 -38 -4 -32 -62 -39 -78 -9 -23 44 38 85 70 47z m-64 -144 c24 -16 33 -48 21 -73 -10 -18 -21 -24 -47 -24 -26 0 -37 6 -47 24 -17 36 9 81 47 81 8 0 20 -4 26 -8z m-24 -209 c27 -24 24 -79 -6 -98 -29 -19 -72 -11 -86 15 -35 66 38 132 92 83z m8 -223 c40 -40 16 -112 -42 -126 -22 -5 -34 0 -59 25 -25 25 -30 37 -25 59 14 58 86 82 126 42z m45 -245 c38 -37 37 -88 -1 -122 -54 -49 -138 -10 -138 62 0 74 88 112 139 60z m126 -244 c33 -33 37 -67 14 -111 -18 -35 -71 -55 -107 -41 -35 13 -68 58 -68 93 0 44 48 88 95 88 27 0 44 -8 66 -29z m175 -196 c28 -19 48 -69 40 -101 -10 -40 -53 -74 -93 -74 -49 0 -93 45 -93 95 0 73 88 121 146 80z"
       id="path378"
       style="fill:#ffcc00" />
    <path
       d="M4224 4049 c-3 -6 0 -18 9 -26 18 -18 37 -9 37 18 0 21 -34 27 -46 8z"
       id="path380"
       style="fill:#ffff66" />
    <path
       d="M4172 3901 c-8 -4 -12 -19 -10 -32 2 -18 9 -24 28 -24 19 0 26 6 28 24 3 20 -11 41 -28 41 -3 0 -11 -4 -18 -9z"
       id="path382"
       style="fill:#ffff66" />
    <path
       d="M4125 3694 c-19 -20 -16 -43 8 -58 37 -23 77 35 41 61 -23 17 -29 16 -49 -3z"
       id="path384"
       style="fill:#ffff66" />
    <path
       d="M4121 3473 c-25 -17 -27 -46 -5 -67 23 -23 51 -20 69 8 30 45 -20 91 -64 59z"
       id="path386"
       style="fill:#ffff66" />
    <path
       d="M4150 3220 c-24 -24 -25 -38 -4 -68 18 -26 65 -30 84 -7 18 22 15 66 -6 82 -25 19 -51 16 -74 -7z"
       id="path388"
       style="fill:#ffff66" />
    <path
       d="M4261 2974 c-25 -32 -26 -43 -5 -72 31 -45 114 -18 114 38 0 25 -38 60 -65 60 -14 0 -32 -11 -44 -26z"
       id="path390"
       style="fill:#ffff66" />
    <path
       d="M4455 2765 c-32 -31 -31 -50 0 -81 26 -25 52 -26 83 -2 21 18 15 75 -10 92 -31 22 -45 20 -73 -9z"
       id="path392"
       style="fill:#ffff66" />
    <path
       d="M7888 4180 c-63 -11 -148 -36 -238 -71 l-76 -29 40 -122 c22 -68 41 -124 42 -126 6 -10 241 54 301 82 85 41 167 117 178 165 18 82 -91 127 -247 101z"
       id="path394"
       style="fill:#666699" />
    <path
       d="M1045 4049 c-127 -86 -193 -180 -182 -261 9 -64 35 -83 115 -83 55 1 78 7 128 32 62 32 183 122 184 136 0 4 -28 40 -63 80 -34 40 -73 87 -85 105 -13 17 -26 32 -30 32 -4 0 -34 -19 -67 -41z"
       id="path396"
       style="fill:#9966cc" />
    <path
       d="M3978 4000 c-321 -108 -562 -323 -632 -559 -9 -30 -16 -65 -16 -79 0 -24 1 -23 48 12 78 60 228 151 401 243 182 98 217 130 247 231 8 28 26 79 40 112 13 33 24 62 24 65 0 10 -26 4 -112 -25z"
       id="path398"
       style="fill:#ff6699" />
    <path
       d="M6368 4005 c-16 -16 -132 -24 -199 -15 l-73 11 -30 -31 -31 -30 89 0 c139 0 208 -16 279 -64 83 -55 120 -115 125 -202 5 -82 -15 -138 -69 -194 -50 -51 -109 -79 -169 -80 -67 -2 -21 -18 52 -19 119 -2 217 59 270 167 62 126 39 252 -67 357 -23 24 -67 57 -96 74 -54 31 -71 36 -81 26z"
       id="path400"
       style="fill:#6666ff" />
    <path
       d="m 4355,3988 c -15,-46 -36,-146 -46,-228 -23,-192 12,-417 88,-562 35,-67 165,-219 177,-207 3,3 1,34 -5,69 -5,36 -9,200 -8,366 l 2,301 -28,49 c -16,27 -45,67 -65,89 -21,22 -54,62 -74,88 -22,30 -38,43 -41,35 z"
       id="path402"
       style="fill:#ccccff"
       inkscape:connector-curvature="0"
       sodipodi:nodetypes="cccsccccccc" />
    <path
       d="M2045 3969 c-63 -30 -108 -72 -140 -130 -27 -49 -30 -63 -30 -144 0 -81 3 -95 30 -145 56 -101 169 -162 310 -164 l80 -1 45 43 c40 38 170 112 197 112 9 0 23 44 23 70 0 5 -54 -20 -120 -53 -118 -61 -123 -62 -198 -61 -156 1 -259 83 -278 221 -12 97 39 205 121 255 40 24 11 22 -40 -3z"
       id="path404"
       style="fill:#33cc00" />
    <path
       d="M7153 3928 c-156 -22 -152 -20 -133 -87 5 -18 10 -64 12 -102 2 -68 2 -69 33 -73 50 -8 369 -25 374 -21 6 6 -25 154 -49 235 l-21 70 -37 -1 c-20 -1 -101 -10 -179 -21z"
       id="path406"
       style="fill:#9999ff" />
    <path
       d="M3065 3904 c-244 -34 -410 -134 -465 -281 -26 -70 -26 -75 7 -62 14 5 87 20 162 33 117 21 138 27 151 47 35 54 132 168 184 218 32 29 56 54 54 55 -2 2 -43 -3 -93 -10z"
       id="path408"
       style="fill:#33ccff" />
    <path
       d="M1265 3783 c-65 -79 -105 -165 -105 -226 0 -40 5 -54 29 -78 55 -55 156 -32 251 57 50 46 50 47 50 109 l0 62 -80 66 c-43 37 -83 67 -88 67 -5 0 -31 -26 -57 -57z"
       id="path410"
       style="fill:#9966cc" />
    <path
       d="M7802 3815 c-68 -13 -126 -26 -129 -29 -3 -3 -1 -36 5 -74 7 -38 15 -108 18 -155 5 -67 10 -87 22 -87 45 0 235 34 310 56 278 81 358 231 155 294 -88 27 -221 25 -381 -5z"
       id="path412"
       style="fill:#6666ff" />
    <path
       d="M2186 3784 c-9 -8 -16 -22 -16 -29 0 -20 28 -45 50 -45 18 0 40 27 40 49 0 14 -29 41 -45 41 -7 0 -21 -7 -29 -16z"
       id="path414"
       style="fill:#33cc00" />
    <path
       d="M4600 3732 c0 -12 72 -114 124 -175 89 -106 244 -203 363 -227 30 -7 57 -10 59 -7 3 2 -21 39 -52 81 -55 73 -62 78 -160 125 -108 52 -221 120 -291 178 -24 19 -43 30 -43 25z"
       id="path416"
       style="fill:#9999cc" />
    <path
       d="M1125 3700 c-17 -11 -55 -26 -85 -34 l-55 -14 45 -20 c69 -31 90 -35 90 -20 0 7 11 34 24 61 26 52 24 54 -19 27z"
       id="path418"
       style="fill:#33ff99" />
    <path
       d="M3942 3612 c-68 -146 -87 -228 -86 -367 1 -92 5 -132 20 -173 11 -30 24 -52 29 -50 12 4 78 148 77 168 -12 247 -13 347 -3 419 6 46 9 86 8 88 -2 2 -22 -36 -45 -85z"
       id="path420"
       style="fill:#ffff99" />
    <path
       d="M6252 3684 c-37 -26 -23 -74 23 -74 43 0 59 44 27 73 -23 21 -22 21 -50 1z"
       id="path422"
       style="fill:#6666ff" />
    <path
       d="M3894 3648 c-16 -8 -23 -22 -27 -61 -4 -29 -9 -63 -12 -77 -3 -14 10 13 29 60 19 46 34 85 33 86 -1 1 -12 -3 -23 -8z"
       id="path424"
       style="fill:#ff66cc" />
    <path
       d="M4590 3633 c1 -22 12 -36 51 -63 85 -60 152 -162 198 -301 l22 -66 38 19 c48 24 82 16 117 -25 21 -25 25 -38 20 -66 -6 -42 -46 -81 -82 -81 -23 0 -20 -5 31 -52 31 -28 74 -78 96 -110 36 -52 45 -59 97 -73 31 -9 62 -18 69 -20 7 -2 21 11 33 30 30 49 121 128 177 155 67 32 168 38 230 15 133 -51 190 -187 116 -275 -68 -81 -173 -78 -173 5 0 48 76 85 108 53 20 -20 15 23 -8 59 -49 81 -183 38 -226 -72 -50 -133 43 -268 185 -268 61 0 139 29 179 66 86 80 85 228 -3 343 -13 17 -78 66 -143 108 -104 66 -125 76 -164 76 -99 0 -231 63 -328 156 -30 28 -46 35 -107 44 -88 12 -160 39 -243 88 -71 43 -194 161 -243 234 -37 55 -47 59 -47 21z m694 -524 c24 -27 27 -38 22 -68 -17 -112 -186 -106 -186 6 0 44 14 69 48 88 38 21 82 11 116 -26z"
       id="path426"
       style="fill:#9999cc" />
    <path
       d="M5166 3088 c-21 -30 -20 -54 4 -78 39 -39 100 -14 100 42 0 53 -74 79 -104 36z"
       id="path428"
       style="fill:#cccccc" />
    <path
       d="M7021 3559 c-7 -34 -21 -84 -32 -111 l-19 -48 189 -94 188 -95 58 87 57 87 -6 99 c-3 56 -10 102 -16 106 -7 4 -69 10 -138 14 -70 3 -159 9 -198 12 l-71 6 -12 -63z"
       id="path430"
       style="fill:#9999ff" />
    <path
       d="M3705 3544 c-250 -137 -398 -251 -491 -377 -75 -101 -101 -207 -80 -326 l8 -43 42 40 c22 22 111 97 196 168 268 221 379 346 430 482 12 30 20 70 18 89 l-3 33 -120 -66z"
       id="path432"
       style="fill:#ff6699" />
    <path
       d="M793 3590 c-81 -17 -133 -58 -133 -107 0 -38 68 -103 146 -139 67 -31 279 -83 290 -71 3 3 15 47 26 98 15 71 17 98 9 116 -6 13 -11 33 -11 43 0 22 -57 42 -170 60 -74 11 -98 11 -157 0z"
       id="path434"
       style="fill:#33ff99" />
    <path
       d="M2770 3560 c-326 -61 -465 -149 -486 -307 -8 -62 -5 -63 64 -28 51 25 151 55 187 55 11 0 31 7 43 16 13 9 65 34 117 57 l95 42 45 93 c24 50 41 92 37 91 -4 0 -50 -9 -102 -19z"
       id="path436"
       style="fill:#33ccff" />
    <path
       d="m 4590,3343 c 0,-120 5,-249 10,-288 39,-271 148,-436 321,-485 29,-9 31,-8 25,13 -9,33 -31,149 -70,367 -56,312 -111,456 -214,558 -29,28 -57,52 -62,52 -6,0 -10,-86 -10,-217 z"
       id="path438"
       style="fill:#ccccff"
       inkscape:connector-curvature="0"
       sodipodi:nodetypes="scccccss" />
    <path
       d="M1418 3464 c-43 -32 -48 -40 -61 -102 -9 -37 -18 -87 -22 -111 l-7 -44 43 6 c24 3 74 9 112 13 37 4 67 9 67 11 0 2 -15 17 -34 33 -42 38 -61 100 -52 175 3 30 5 55 4 54 -2 0 -24 -16 -50 -35z"
       id="path440"
       style="fill:#33cc00" />
    <path
       d="M1505 3451 c-17 -79 29 -171 87 -171 l29 0 -21 30 c-11 16 -36 62 -54 101 -33 72 -34 72 -41 40z"
       id="path442"
       style="fill:#339966" />
    <path
       d="M3813 3412 c-18 -37 -62 -102 -98 -144 -37 -45 -59 -78 -51 -78 28 0 67 -44 73 -82 5 -33 2 -41 -30 -73 -48 -48 -96 -45 -139 9 l-18 21 0 -28 c0 -36 -45 -172 -70 -212 -18 -30 -18 -33 -1 -100 l17 -70 73 -12 c195 -32 321 -153 321 -308 0 -152 -118 -237 -240 -175 -63 32 -78 80 -37 118 32 30 71 28 96 -4 12 -15 21 -33 21 -40 0 -23 28 -4 45 31 21 45 12 77 -35 119 -114 103 -311 7 -310 -153 1 -59 27 -116 76 -163 99 -95 235 -91 326 10 69 76 80 110 89 272 l8 145 -31 63 c-27 54 -32 77 -36 160 -3 67 1 117 12 164 15 63 14 69 -4 111 -52 116 -66 281 -35 412 8 38 14 69 13 71 -2 1 -17 -28 -35 -64z m-61 -513 c11 -6 26 -26 34 -45 12 -29 12 -39 1 -66 -19 -46 -43 -63 -88 -63 -44 0 -84 32 -92 73 -6 33 15 86 40 101 24 14 79 14 105 0z"
       id="path444"
       style="fill:#ff0033" />
    <path
       d="M3662 2864 c-27 -19 -29 -64 -4 -87 58 -53 137 28 82 83 -24 24 -48 25 -78 4z"
       id="path446"
       style="fill:#990000" />
    <path
       d="M5118 3420 c107 -145 240 -254 349 -286 57 -16 185 -16 212 0 8 5 -8 29 -51 74 -35 37 -83 93 -107 124 l-44 56 -71 7 c-61 6 -219 39 -296 61 -24 7 -24 7 8 -36z"
       id="path448"
       style="fill:#9999cc" />
    <path
       d="M5813 3427 c-24 -6 -43 -14 -43 -17 0 -7 125 -100 134 -100 4 0 0 13 -8 28 -8 15 -17 44 -21 65 -4 20 -10 36 -14 36 -3 -1 -25 -7 -48 -12z"
       id="path450"
       style="fill:#9999cc" />
    <path
       d="M1157 3358 c-57 -263 -47 -566 28 -824 14 -48 28 -68 93 -132 133 -130 288 -238 447 -313 84 -39 247 -99 270 -99 7 0 16 15 19 34 4 19 16 46 27 60 16 20 17 27 7 31 -7 2 -47 16 -88 31 -179 63 -396 197 -542 333 l-86 81 -21 88 c-35 152 -44 255 -38 447 3 99 11 200 16 225 24 97 27 88 -32 92 -28 2 -59 8 -68 12 -13 6 -19 -6 -32 -66z"
       id="path452"
       style="fill:#33cc00" />
    <path
       d="M7700 3374 c0 -42 -6 -66 -26 -99 l-26 -44 76 -49 c105 -69 258 -146 341 -171 176 -54 319 -7 356 118 31 105 -58 226 -196 267 -93 27 -167 34 -347 34 l-178 0 0 -56z"
       id="path454"
       style="fill:#6666ff" />
    <path
       d="M5592 3391 l-72 -6 68 -80 c218 -256 382 -339 522 -266 40 22 43 25 26 35 -57 34 -138 101 -167 141 -19 24 -42 47 -52 50 -9 4 -56 35 -103 71 -67 50 -93 64 -118 62 -17 -1 -64 -4 -104 -7z"
       id="path456"
       style="fill:#9999cc" />
    <path
       d="M2710 3328 c-25 -11 -56 -24 -70 -30 -23 -9 -20 -11 40 -27 36 -9 66 -16 67 -16 2 1 9 23 17 48 16 54 13 56 -54 25z"
       id="path458"
       style="fill:#33ccff" />
    <path
       d="M6915 3308 c-15 -23 -48 -64 -73 -90 l-45 -48 29 -22 c15 -13 82 -64 148 -115 l120 -92 46 42 c55 51 170 177 170 187 0 8 -344 180 -360 180 -4 0 -20 -19 -35 -42z"
       id="path460"
       style="fill:#9999ff" />
    <path
       d="M741 3239 c-121 -19 -201 -69 -201 -127 0 -36 67 -96 135 -121 69 -26 188 -38 313 -33 l92 4 0 57 c0 32 3 92 6 133 l7 75 -49 6 c-101 13 -241 15 -303 6z"
       id="path462"
       style="fill:#33ff99" />
    <path
       d="M2476 3224 c-170 -41 -315 -176 -366 -342 -25 -79 -26 -218 -4 -312 85 -364 492 -584 856 -463 l53 18 11 65 c6 36 14 75 18 88 5 16 -1 40 -23 84 -17 34 -31 72 -31 85 0 14 -3 23 -7 21 -5 -2 -32 -16 -61 -31 -209 -110 -418 -48 -509 150 -71 155 -2 348 152 424 59 29 71 31 133 27 133 -10 222 -90 222 -200 0 -62 -26 -97 -95 -126 l-30 -12 39 5 c78 9 136 94 136 197 -1 144 -121 280 -285 323 -72 18 -130 18 -209 -1z"
       id="path464"
       style="fill:#0099ff" />
    <path
       d="M1513 3185 c-89 -12 -169 -25 -179 -29 -15 -6 -16 -21 -12 -156 3 -83 8 -153 11 -156 3 -3 110 30 239 74 l233 79 3 54 3 54 -66 53 c-36 28 -67 52 -68 51 -1 -1 -75 -11 -164 -24z"
       id="path466"
       style="fill:#339933" />
    <path
       d="M4896 3178 c-9 -12 -16 -30 -16 -40 0 -26 36 -58 64 -58 32 0 69 45 60 74 -14 49 -81 63 -108 24z"
       id="path468"
       style="fill:#cccccc" />
    <path
       d="M7595 3142 c-16 -26 -59 -83 -94 -126 l-64 -80 54 -48 c169 -151 313 -236 416 -244 231 -19 122 248 -200 491 -41 30 -76 55 -78 55 -2 0 -17 -21 -34 -48z"
       id="path470"
       style="fill:#6666ff" />
    <path
       d="M3600 3140 c-25 -25 -25 -51 -2 -80 21 -26 67 -30 87 -9 25 26 26 55 4 82 -25 32 -61 35 -89 7z"
       id="path472"
       style="fill:#990000" />
    <path
       d="M6703 3104 c-29 -19 -74 -43 -100 -53 -26 -11 -47 -25 -45 -31 1 -6 55 -71 120 -145 l117 -134 55 31 c71 40 200 128 200 138 0 6 -276 222 -290 227 -3 1 -28 -14 -57 -33z"
       id="path474"
       style="fill:#ccccff" />
    <path
       d="M3972 3086 c-59 -133 -76 -205 -76 -336 -1 -118 1 -128 28 -182 16 -31 43 -71 61 -88 l33 -32 7 34 c4 18 27 88 52 155 l45 123 -36 82 c-28 66 -63 178 -90 283 -2 6 -12 -12 -24 -39z"
       id="path476"
       style="fill:#ffff99" />
    <path
       d="M5683 3106 c-18 -5 -33 -12 -33 -15 0 -3 37 -28 82 -55 139 -84 182 -133 214 -241 29 -101 2 -191 -78 -259 -78 -67 -205 -84 -284 -37 -52 31 -41 7 13 -28 130 -86 273 -76 386 28 112 103 121 269 23 435 -19 33 -34 46 -58 51 -49 11 -127 50 -183 93 -45 34 -53 37 -82 28z"
       id="path478"
       style="fill:#cccccc" />
    <path
       d="M1873 2994 c3 -49 8 -96 12 -105 3 -9 38 -40 76 -69 73 -56 88 -56 89 -4 0 11 6 41 14 67 13 44 13 46 -10 66 -13 12 -24 32 -24 45 0 21 -8 27 -52 42 -29 9 -66 23 -82 31 l-29 15 6 -88z"
       id="path480"
       style="fill:#339966" />
    <path
       d="M3360 2942 c-281 -234 -370 -373 -331 -514 15 -52 41 -90 48 -69 15 39 96 141 143 180 64 52 196 228 245 326 29 57 71 202 62 212 -2 1 -77 -60 -167 -135z"
       id="path482"
       style="fill:#ff6699" />
    <path
       d="M6151 3025 c-19 -13 -55 -29 -81 -36 l-47 -12 28 -52 c139 -255 9 -528 -260 -543 -106 -6 -176 21 -252 97 -91 91 -114 213 -61 318 25 48 82 101 120 109 15 3 33 8 41 10 22 7 87 -15 105 -35 10 -11 24 -37 32 -58 l13 -38 1 31 c0 17 -10 46 -23 65 -57 85 -189 110 -296 55 -222 -114 -284 -400 -135 -624 154 -233 446 -298 723 -161 142 70 249 195 309 361 24 67 27 86 27 218 0 138 -14 221 -43 267 -4 6 -36 18 -72 27 -36 8 -72 17 -80 20 -8 3 -30 -6 -49 -19z"
       id="path484"
       style="fill:#ccccff" />
    <path
       d="m 4900,3028 c 0,-35 75,-421 91,-468 47,-145 107,-233 182,-269 41,-20 133,-30 125,-13 -43,82 -69,153 -79,208 -6,38 -20,87 -30,109 -10,22 -35,81 -57,130 -46,106 -129.9356,192.8348 -185.9356,253.8348 -36,39 -46.0644,58.1652 -46.0644,49.1652 z"
       id="path486"
       style="fill:#ccccff"
       inkscape:connector-curvature="0"
       sodipodi:nodetypes="sccccsccs" />
    <path
       d="M6439 3013 l-36 -4 24 -82 c16 -51 27 -120 30 -185 5 -77 10 -105 20 -109 16 -6 232 62 257 80 13 10 -5 34 -115 160 -72 81 -133 146 -137 145 -4 -1 -23 -3 -43 -5z"
       id="path488"
       style="fill:#ccccff" />
    <path
       d="M2070 2990 c13 -24 26 -26 34 -4 9 23 8 24 -19 24 -23 0 -24 -2 -15 -20z"
       id="path490"
       style="fill:#339966" />
    <path
       d="M1578 2872 c-125 -42 -230 -80 -233 -84 -8 -7 19 -144 36 -189 8 -21 72 -83 141 -137 15 -12 38 5 195 144 98 86 183 161 188 166 7 6 -3 21 -27 42 -28 25 -41 45 -50 84 -6 29 -14 52 -17 51 -3 0 -108 -35 -233 -77z"
       id="path492"
       style="fill:#339933" />
    <path
       d="M2491 2913 c-126 -153 -71 -391 109 -472 125 -57 374 12 394 109 9 45 52 128 92 177 30 37 34 47 28 78 -3 19 -10 35 -14 35 -5 0 -30 -35 -55 -77 -69 -113 -101 -150 -159 -183 -116 -66 -227 -62 -312 13 -92 81 -121 210 -70 310 13 26 22 47 20 47 -1 0 -16 -17 -33 -37z"
       id="path494"
       style="fill:#0099cc" />
    <path
       d="M906 2909 c-181 -16 -319 -63 -383 -130 -45 -48 -50 -79 -19 -116 55 -66 208 -100 392 -88 104 7 229 26 227 35 0 3 -7 48 -16 100 -9 52 -19 121 -22 153 l-6 57 -42 -1 c-23 -1 -82 -5 -131 -10z"
       id="path496"
       style="fill:#33ff00" />
    <path
       d="M7329 2831 c-41 -37 -86 -75 -98 -83 l-23 -17 60 -74 c131 -160 263 -257 351 -257 111 0 109 137 -3 294 -38 54 -181 196 -204 203 -4 1 -41 -28 -83 -66z"
       id="path498"
       style="fill:#666699" />
    <path
       d="M2708 2829 c-21 -12 -24 -49 -6 -67 18 -18 56 -14 68 7 12 24 4 48 -21 61 -21 12 -20 12 -41 -1z"
       id="path500"
       style="fill:#0066cc" />
    <path
       d="m 5155,2752 c 4,-10 16,-42 28,-72 l 21,-54 13,44 c 21,72 21,72 -25,85 -40,12 -43,12 -37,-3 z"
       id="path502"
       style="fill:#ccccff"
       inkscape:connector-curvature="0"
       sodipodi:nodetypes="sccccs" />
    <path
       d="M5666 2748 c-13 -19 -14 -25 -2 -43 7 -11 24 -20 36 -20 12 0 29 9 36 20 12 18 11 24 -2 43 -8 12 -24 22 -34 22 -10 0 -26 -10 -34 -22z"
       id="path504"
       style="fill:#cccccc" />
    <path
       d="M1765 2588 c-99 -88 -181 -164 -183 -168 -3 -9 110 -85 200 -134 l67 -37 108 142 c59 78 108 144 108 148 -1 3 -7 41 -14 84 -13 75 -16 80 -52 103 -21 13 -42 24 -46 23 -5 0 -89 -73 -188 -161z"
       id="path506"
       style="fill:#339933" />
    <path
       d="M3373 2672 c-22 -31 -40 -58 -39 -59 1 -2 98 28 104 32 5 4 -11 85 -17 84 -3 0 -25 -26 -48 -57z"
       id="path508"
       style="fill:#ff6699" />
    <path
       d="M4106 2618 c-64 -186 -70 -215 -71 -338 0 -101 3 -120 23 -158 19 -36 91 -102 111 -102 4 0 12 40 18 89 6 50 21 111 32 137 13 28 21 68 21 100 0 29 5 86 11 126 l11 73 -60 88 -60 87 -36 -102z"
       id="path510"
       style="fill:#ffff99" />
    <path
       d="M7125 2671 c-22 -16 -71 -46 -110 -67 -38 -20 -72 -39 -73 -40 -6 -4 65 -122 114 -190 137 -194 323 -208 301 -24 -3 27 -20 82 -37 122 -30 72 -125 219 -145 224 -5 2 -28 -10 -50 -25z"
       id="path512"
       style="fill:#666699" />
    <path
       d="M3396 2584 c-162 -51 -299 -219 -326 -400 -41 -270 162 -552 455 -629 77 -20 232 -20 310 0 112 29 239 99 322 180 57 55 74 78 70 91 -3 11 -15 48 -25 83 -16 55 -23 66 -54 82 -20 10 -52 34 -72 52 l-36 34 -30 -49 c-45 -72 -116 -137 -188 -171 -57 -26 -70 -29 -145 -25 -136 7 -231 67 -289 186 -29 59 -33 76 -33 147 1 122 47 206 144 263 40 23 57 27 127 27 68 0 86 -4 115 -24 45 -31 69 -64 76 -106 7 -47 -2 -77 -33 -108 -15 -15 -22 -27 -17 -27 19 0 62 51 74 87 6 20 9 55 5 79 -19 139 -145 235 -316 241 -57 2 -101 -2 -134 -13z"
       id="path514"
       style="fill:#cc0000" />
    <path
       d="M975 2526 c-315 -81 -462 -185 -473 -335 -7 -102 47 -171 149 -189 130 -23 264 50 467 255 l123 124 -38 42 c-23 25 -44 61 -52 90 -9 32 -19 47 -30 47 -9 -1 -74 -16 -146 -34z"
       id="path516"
       style="fill:#33ff00" />
    <path
       d="M4890 2544 c0 -2 26 -54 58 -115 l57 -110 0 -97 c0 -80 -4 -104 -22 -137 -49 -92 -119 -134 -226 -135 -97 0 -161 30 -214 102 -34 47 -28 11 10 -52 61 -102 172 -159 289 -146 162 17 267 142 276 328 l4 87 -42 48 c-24 26 -60 84 -81 129 -34 71 -42 82 -74 91 -19 6 -35 9 -35 7z"
       id="path518"
       style="fill:#ffff66" />
    <path
       d="M6855 2525 c-16 -8 -73 -28 -125 -46 -52 -17 -96 -33 -97 -33 -5 -4 41 -116 74 -179 60 -113 154 -178 218 -149 54 25 82 111 65 201 -10 57 -83 222 -97 220 -4 0 -21 -7 -38 -14z"
       id="path520"
       style="fill:#666699" />
    <path
       d="M4287 2512 c-3 -4 -8 -42 -12 -86 l-8 -78 42 45 c23 25 42 49 41 54 -4 15 -59 73 -63 65z"
       id="path522"
       style="fill:#ffff99" />
    <path
       d="M4543 2485 c-191 -52 -313 -222 -313 -435 0 -198 108 -369 291 -459 383 -189 827 25 936 452 l18 69 -30 21 c-16 12 -49 40 -73 61 -38 35 -49 40 -86 37 -23 -1 -61 4 -84 12 l-42 15 0 -42 c-1 -116 -52 -248 -121 -311 -73 -66 -113 -80 -224 -80 -86 0 -107 3 -150 24 -63 32 -124 93 -155 156 -34 69 -40 185 -12 247 57 130 186 190 299 139 54 -25 77 -67 71 -133 -6 -59 11 -50 19 10 8 56 -13 108 -62 158 -69 69 -168 89 -282 59z"
       id="path524"
       style="fill:#ffcc00" />
    <path
       d="M3947 2348 c-7 -142 -21 -191 -76 -262 -117 -156 -334 -142 -431 27 -22 38 -30 65 -30 102 0 36 -3 46 -10 35 -5 -8 -10 -47 -10 -87 0 -61 5 -80 33 -134 56 -109 177 -178 292 -166 104 11 218 94 277 204 l28 50 -17 68 c-14 56 -15 80 -5 148 l11 82 -28 28 -28 28 -6 -123z"
       id="path526"
       style="fill:#990000" />
    <path
       d="M2086 2424 c-12 -32 -5 -73 18 -101 22 -26 106 -81 106 -69 0 3 -15 27 -34 53 -18 27 -43 67 -55 91 -24 47 -26 49 -35 26z"
       id="path528"
       style="fill:#339966" />
    <path
       d="M6485 2416 l-100 -19 -34 -54 -33 -54 21 -67 c32 -105 102 -182 166 -182 65 0 116 81 118 188 1 67 -20 200 -32 205 -3 1 -51 -6 -106 -17z"
       id="path530"
       style="fill:#666699" />
    <path
       d="M1967 2327 c-37 -49 -65 -92 -62 -97 7 -11 170 -70 194 -70 10 0 42 10 71 23 l52 23 -46 18 c-84 32 -125 78 -135 151 l-6 40 -68 -88z"
       id="path532"
       style="fill:#33cc00" />
    <path
       d="M1218 2293 c-184 -237 -262 -445 -197 -527 52 -66 194 -5 318 138 34 39 152 203 175 243 4 7 -12 24 -41 44 -26 18 -82 61 -124 96 -43 35 -80 63 -82 63 -2 0 -24 -26 -49 -57z"
       id="path534"
       style="fill:#33ff00" />
    <path
       d="M3636 2267 c-22 -16 -18 -55 7 -71 39 -24 79 44 41 71 -10 7 -21 13 -24 13 -3 0 -14 -6 -24 -13z"
       id="path536"
       style="fill:#990000" />
    <path
       d="M4722 2228 c-19 -19 -14 -56 8 -68 38 -21 80 22 60 61 -12 21 -50 25 -68 7z"
       id="path538"
       style="fill:#ffff66" />
    <path
       d="M6661 2198 c-1 -24 -3 -52 -4 -63 -2 -21 27 -32 96 -34 l37 -1 -38 34 c-21 19 -47 51 -57 70 -11 20 -22 36 -26 36 -3 0 -7 -19 -8 -42z"
       id="path540"
       style="fill:#cc33cc" />
    <path
       d="M6208 2186 c-20 -18 -61 -45 -90 -61 -66 -35 -65 -34 -48 -45 49 -31 123 7 161 82 28 54 21 62 -23 24z"
       id="path542"
       style="fill:#cc66cc" />
    <path
       d="M6276 2166 c-32 -84 -78 -125 -151 -135 l-40 -6 89 -68 c56 -43 92 -65 98 -59 12 12 68 171 68 193 0 9 -10 40 -23 69 l-23 52 -18 -46z"
       id="path544"
       style="fill:#cc66cc" />
    <path
       d="M2220 2157 c-101 -34 -170 -100 -170 -162 0 -68 80 -116 193 -117 64 0 178 16 198 28 4 2 1 30 -6 61 -7 32 -16 74 -19 94 -5 30 -16 43 -64 75 -31 22 -59 40 -62 41 -3 1 -34 -8 -70 -20z"
       id="path546"
       style="fill:#ff3333" />
    <path
       d="M1500 2049 c-70 -110 -99 -175 -117 -268 -14 -68 -14 -84 -2 -121 8 -24 26 -52 41 -63 26 -19 28 -20 72 -3 53 21 139 108 188 194 37 62 111 222 106 227 -8 6 -225 115 -230 115 -4 0 -29 -36 -58 -81z"
       id="path548"
       style="fill:#33ff99" />
    <path
       d="M5510 2074 c0 -8 5 -12 10 -9 6 3 10 10 10 16 0 5 -4 9 -10 9 -5 0 -10 -7 -10 -16z"
       id="path550"
       style="fill:#cc66cc" />
    <path
       d="M2455 2057 c2 -12 9 -49 16 -82 18 -99 78 -273 129 -381 141 -294 393 -561 683 -724 l58 -33 167 6 c189 6 301 27 464 83 268 93 528 267 702 471 l67 78 -63 13 -62 12 -66 -63 c-278 -270 -641 -427 -1031 -444 l-137 -6 -58 34 c-173 99 -395 306 -512 477 -82 120 -174 311 -210 437 l-28 99 -62 23 -62 22 5 -22z"
       id="path552"
       style="fill:#990000" />
    <path
       d="M2935 2048 c-46 -16 -88 -21 -177 -22 -98 -1 -118 -4 -118 -16 0 -21 76 -240 86 -250 13 -13 307 249 300 267 -3 8 -6 21 -6 29 0 18 -11 17 -85 -8z"
       id="path554"
       style="fill:#ff3366" />
    <path
       d="M5551 2044 c-12 -13 -27 -24 -34 -24 -7 0 -22 -28 -33 -62 -11 -35 -24 -71 -28 -80 -7 -16 -3 -18 32 -18 23 0 63 5 90 10 44 10 54 17 100 79 29 37 52 73 52 79 0 7 -15 12 -33 12 -19 0 -54 6 -80 14 -44 13 -46 13 -66 -10z"
       id="path556"
       style="fill:#cc66cc" />
    <path
       d="M6592 2039 c-26 -23 -40 -51 -63 -122 -16 -51 -29 -93 -29 -94 0 -4 143 -54 195 -68 81 -21 204 -21 244 -1 134 70 20 221 -223 295 -37 12 -73 21 -80 21 -6 0 -26 -14 -44 -31z"
       id="path558"
       style="fill:#cc33cc" />
    <path
       d="M5915 2050 c-16 -4 -46 -8 -66 -9 -37 -1 -53 -14 -84 -67 l-18 -31 163 -184 c90 -101 167 -185 171 -187 8 -4 83 108 134 200 l36 67 -141 108 c-78 59 -147 109 -153 109 -7 1 -25 -2 -42 -6z"
       id="path560"
       style="fill:#cc99ff" />
    <path
       d="M6385 2038 c-2 -7 -16 -47 -31 -88 -68 -192 -195 -397 -345 -555 -70 -74 -70 -74 -157 -94 -152 -35 -255 -44 -447 -38 -99 3 -200 11 -225 16 -97 24 -88 27 -92 -32 -2 -28 -8 -59 -12 -68 -6 -13 6 -19 71 -32 253 -54 523 -49 768 14 104 26 133 47 235 163 105 120 187 241 251 371 45 92 109 263 109 291 0 6 -15 15 -34 18 -19 4 -46 16 -60 27 -20 16 -27 17 -31 7z"
       id="path562"
       style="fill:#cc33ff" />
    <path
       d="M1806 1933 c-40 -107 -56 -182 -57 -264 -1 -85 15 -128 56 -155 79 -52 206 89 260 288 l18 67 -33 38 c-26 30 -49 42 -104 58 -39 12 -81 25 -92 28 -20 7 -25 1 -48 -60z"
       id="path564"
       style="fill:#33ff99" />
    <path
       d="M2891 1828 l-140 -123 31 -55 c40 -72 128 -200 138 -200 6 0 220 273 228 291 1 3 -13 30 -33 60 -20 30 -43 75 -53 102 -9 26 -20 47 -24 47 -3 0 -70 -55 -147 -122z"
       id="path566"
       style="fill:#ff3366" />
    <path
       d="M5682 1864 c-23 -28 -41 -38 -78 -45 -26 -5 -49 -11 -51 -12 -4 -5 151 -464 160 -473 3 -3 50 3 104 15 94 20 100 23 141 69 24 26 54 61 68 79 l25 32 -161 183 c-89 101 -166 184 -170 186 -4 2 -21 -14 -38 -34z"
       id="path568"
       style="fill:#cc99ff" />
    <path
       d="M2389 1846 c-103 -42 -180 -89 -219 -134 -83 -93 -57 -177 61 -203 59 -14 139 4 238 51 69 33 82 43 76 58 -4 9 -26 70 -49 134 -23 65 -43 117 -46 117 -3 0 -30 -11 -61 -23z"
       id="path570"
       style="fill:#ff3333" />
    <path
       d="M2126 1841 c-3 -5 -9 -37 -13 -72 l-6 -63 36 40 c20 22 52 49 71 59 20 11 36 22 36 26 0 3 -19 6 -42 7 -23 1 -50 4 -59 7 -10 3 -20 2 -23 -4z"
       id="path572"
       style="fill:#33ff99" />
    <path
       d="M5395 1773 c-10 -15 -36 -49 -58 -75 l-40 -48 21 -160 c11 -88 24 -165 28 -171 7 -12 298 -8 310 4 4 4 -29 111 -73 239 l-80 233 -45 3 c-40 3 -47 0 -63 -25z"
       id="path574"
       style="fill:#cc99ff" />
    <path
       d="M6426 1664 c-32 -64 -54 -120 -49 -124 4 -5 48 -33 96 -64 103 -64 172 -92 265 -107 80 -13 134 1 165 43 20 26 20 28 3 72 -29 75 -127 156 -280 232 -72 35 -133 64 -136 64 -3 0 -32 -52 -64 -116z"
       id="path576"
       style="fill:#cc33cc" />
    <path
       d="M4226 1734 l-28 -34 63 -185 c34 -102 67 -185 72 -185 13 0 131 97 181 148 l38 40 -23 14 c-13 8 -50 30 -82 49 -54 31 -125 97 -172 160 l-20 26 -29 -33z"
       id="path578"
       style="fill:#ff3366" />
    <path
       d="M3067 1558 l-116 -152 42 -46 c63 -69 179 -171 190 -167 6 2 50 85 98 185 l88 183 -42 26 c-23 14 -64 48 -92 74 l-51 48 -117 -151z"
       id="path580"
       style="fill:#ff0033" />
    <path
       d="M4106 1620 c-28 -21 -71 -49 -98 -61 -26 -12 -48 -26 -48 -30 0 -15 50 -372 52 -375 5 -4 149 65 215 103 l61 36 -60 176 c-33 97 -63 179 -67 183 -3 3 -28 -11 -55 -32z"
       id="path582"
       style="fill:#ff3366" />
    <path
       d="M5166 1561 c-26 -16 -66 -34 -87 -41 -50 -17 -50 -30 1 -30 70 0 147 46 138 84 -2 13 -12 10 -52 -13z"
       id="path584"
       style="fill:#cc66cc" />
    <path
       d="M2494 1517 c-141 -84 -206 -143 -248 -224 -18 -36 -21 -85 -6 -112 26 -50 123 -52 237 -4 63 27 214 121 227 142 3 5 -18 47 -47 94 -30 46 -59 99 -67 116 -7 17 -15 31 -19 31 -3 -1 -38 -20 -77 -43z"
       id="path586"
       style="fill:#ff3333" />
    <path
       d="M3317 1345 l-96 -192 87 -57 c81 -53 89 -56 147 -55 33 0 80 4 105 7 l45 7 12 180 c17 270 21 242 -34 250 -26 4 -75 17 -109 29 l-61 22 -96 -191z"
       id="path588"
       style="fill:#ff0033" />
    <path
       d="M5228 1506 c-35 -42 -98 -61 -173 -52 l-55 6 35 -49 c34 -46 40 -51 103 -64 37 -9 87 -18 111 -22 l44 -7 -6 43 c-3 24 -9 74 -13 112 -4 37 -10 67 -13 66 -3 0 -18 -15 -33 -33z"
       id="path590"
       style="fill:#cc66cc" />
    <path
       d="M3835 1495 c-27 -7 -73 -14 -102 -14 l-52 -1 -5 -52 c-10 -95 -25 -362 -21 -366 6 -7 152 23 235 48 51 15 70 26 70 38 0 9 -10 95 -22 190 -24 191 -16 179 -103 157z"
       id="path592"
       style="fill:#ff0033" />
    <path
       d="M6277 1423 c-36 -49 -80 -105 -98 -127 l-33 -38 35 -29 c166 -139 364 -239 474 -239 107 0 134 67 74 180 -49 92 -177 208 -360 324 l-26 16 -66 -87z"
       id="path594"
       style="fill:#cc33cc" />
    <path
       d="M4843 1471 l-62 -6 -61 -72 c-33 -39 -60 -76 -60 -81 0 -17 114 -104 175 -133 40 -20 76 -29 108 -29 95 0 134 84 87 187 -18 41 -106 145 -119 141 -3 -1 -34 -4 -68 -7z"
       id="path596"
       style="fill:#ff3333" />
    <path
       d="M2680 1244 c-128 -106 -222 -214 -258 -297 -19 -45 -15 -104 9 -128 18 -18 30 -21 78 -17 103 7 223 84 344 220 l59 67 -71 82 c-40 44 -77 89 -84 100 -6 10 -14 19 -17 18 -3 0 -30 -20 -60 -45z"
       id="path598"
       style="fill:#ff3333" />
    <path
       d="M4545 1217 c-39 -34 -86 -74 -105 -88 l-34 -26 47 -70 c83 -125 179 -191 260 -180 63 9 82 35 82 115 -1 55 -7 78 -32 128 -35 67 -122 184 -138 183 -5 0 -42 -28 -80 -62z"
       id="path600"
       style="fill:#ff3333" />
    <path
       d="M6079 1194 c-20 -21 -54 -41 -86 -51 -29 -9 -53 -22 -53 -29 0 -7 15 -72 34 -146 59 -236 137 -385 231 -443 42 -26 58 -30 119 -30 58 0 77 4 103 23 71 51 94 166 53 274 -37 100 -170 267 -309 387 l-58 50 -34 -35z"
       id="path602"
       style="fill:#cc00ff" />
    <path
       d="M4780 1154 c0 -1 9 -18 20 -36 10 -18 26 -58 34 -88 l14 -55 20 45 c31 69 35 90 20 90 -7 0 -34 11 -60 24 -27 13 -48 22 -48 20z"
       id="path604"
       style="fill:#cc33cc" />
    <path
       d="M5010 1120 c-8 -5 -25 -10 -37 -10 -18 0 -25 -10 -37 -52 -25 -86 -38 -190 -30 -243 13 -101 56 -165 110 -165 39 0 104 67 140 146 31 66 83 279 71 290 -6 6 -174 44 -191 44 -6 0 -18 -5 -26 -10z"
       id="path606"
       style="fill:#cc33cc" />
    <path
       d="M5810 1099 c-19 -4 -77 -13 -129 -19 -52 -6 -97 -12 -99 -15 -9 -9 20 -279 38 -348 33 -132 97 -226 163 -242 24 -6 33 -2 65 32 67 70 92 218 73 421 -17 178 -18 182 -50 181 -14 -1 -42 -5 -61 -10z"
       id="path608"
       style="fill:#cc33cc" />
    <path
       d="M4310 1043 c-30 -19 -82 -48 -115 -65 -33 -17 -62 -32 -64 -34 -2 -2 19 -50 48 -107 54 -109 138 -214 193 -243 105 -55 170 35 138 190 -12 57 -92 229 -128 272 l-17 21 -55 -34z"
       id="path610"
       style="fill:#ff3333" />
    <path
       d="M5270 1074 c0 -5 -5 -60 -11 -123 -22 -236 35 -421 129 -421 36 0 96 67 121 135 26 69 38 188 33 313 l-4 92 -57 0 c-32 0 -92 3 -134 6 -44 4 -77 3 -77 -2z"
       id="path612"
       style="fill:#cc33cc" />
    <path
       d="M2888 997 c-150 -170 -226 -301 -234 -404 -19 -232 248 -122 492 202 31 42 55 77 53 79 -2 1 -32 22 -66 45 -34 22 -89 64 -122 91 -33 28 -62 50 -64 50 -2 0 -29 -28 -59 -63z"
       id="path614"
       style="fill:#ff3300" />
    <path
       d="M3965 886 c-66 -22 -121 -41 -123 -42 -10 -6 54 -241 82 -301 59 -124 159 -204 215 -173 87 46 71 288 -33 510 l-21 46 -120 -40z"
       id="path616"
       style="fill:#ff3333" />
    <path
       d="M3178 757 c-75 -124 -131 -237 -157 -322 -24 -77 -29 -182 -11 -230 29 -76 105 -135 175 -135 74 0 162 68 201 155 46 101 58 211 55 503 l-1 72 -57 0 c-44 1 -68 7 -98 25 -22 14 -42 25 -45 25 -3 -1 -30 -42 -62 -93z"
       id="path618"
       style="fill:#ff3300" />
    <path
       d="M3725 824 c-38 -7 -109 -16 -157 -20 -68 -5 -88 -10 -88 -22 0 -8 7 -61 16 -119 35 -236 107 -403 195 -448 39 -21 53 -19 88 11 73 61 89 233 46 470 -14 76 -27 139 -28 139 -1 0 -33 -5 -72 -11z"
       id="path620"
       style="fill:#ff3300" />
  </g>
</svg>
