<?xml version="1.0" standalone="no"?>
<!DOCTYPE svg PUBLIC "-//W3C//DTD SVG 20010904//EN"
 "http://www.w3.org/TR/2001/REC-SVG-20010904/DTD/svg10.dtd">
<svg version="1.0" xmlns="http://www.w3.org/2000/svg"
 width="850.000000pt" height="850.000000pt" viewBox="0 0 850.000000 850.000000"
 preserveAspectRatio="xMidYMid meet">
<metadata>
Created by potrace 1.14, written by Peter Selinger 2001-2017
</metadata>
<g transform="translate(0.000000,850.000000) scale(0.100000,-0.100000)"
fill="#000000" stroke="none">
<path d="M2705 8455 c-5 -2 -23 -6 -38 -10 -16 -3 -39 -17 -52 -31 -23 -25
-24 -25 -56 -9 -35 18 -43 13 -55 -32 -5 -19 -13 -23 -44 -23 -42 0 -92 -29
-124 -73 -16 -22 -21 -43 -21 -97 0 -83 -18 -110 -75 -110 -54 0 -120 -26
-158 -63 -32 -31 -33 -35 -31 -100 2 -54 -2 -73 -17 -93 -17 -22 -22 -24 -54
-14 -63 18 -133 -22 -145 -85 -4 -21 1 -45 19 -79 23 -46 24 -51 10 -78 -10
-20 -20 -28 -31 -24 -26 10 -91 -13 -112 -41 -29 -35 -27 -97 3 -149 34 -60
26 -91 -33 -116 -70 -30 -101 -64 -101 -111 0 -47 30 -100 71 -124 23 -14 29
-24 29 -50 0 -39 0 -39 -79 -14 -34 10 -61 18 -61 16 0 -1 7 -22 15 -45 24
-67 20 -90 -13 -90 -20 0 -35 9 -51 31 -12 16 -37 39 -54 50 -69 42 -133 13
-176 -80 -30 -62 -64 -75 -112 -40 -42 30 -111 37 -145 15 -29 -20 -54 -72
-54 -114 0 -44 -37 -57 -92 -32 -63 28 -104 26 -138 -8 -33 -34 -48 -92 -31
-128 10 -22 8 -28 -16 -49 -16 -13 -35 -22 -43 -20 -57 14 -81 15 -113 1 -51
-21 -89 -83 -95 -154 -7 -85 -26 -102 -120 -102 l-75 0 -43 -44 c-39 -38 -44
-48 -44 -89 0 -43 -2 -46 -35 -57 -39 -13 -41 -19 -21 -59 14 -26 13 -29 -14
-54 -35 -33 -48 -98 -30 -151 6 -20 31 -53 56 -75 36 -31 44 -45 44 -72 0 -23
-6 -38 -19 -46 -30 -19 -71 -112 -71 -161 0 -45 16 -68 88 -124 22 -18 32 -78
12 -78 -5 0 -25 -14 -44 -31 -43 -38 -56 -87 -33 -134 15 -30 67 -65 100 -65
18 0 32 -17 39 -47 4 -15 -2 -29 -18 -44 -29 -27 -48 -81 -39 -111 12 -40 56
-76 107 -89 69 -18 83 -46 57 -112 -45 -114 -2 -181 118 -182 50 0 67 -4 84
-22 l22 -21 -57 -32 c-31 -18 -56 -33 -56 -35 0 -2 25 -17 56 -35 l57 -32 -22
-21 c-17 -18 -34 -22 -84 -22 -120 -1 -163 -68 -118 -182 26 -66 12 -94 -57
-112 -51 -13 -95 -49 -107 -89 -9 -30 10 -84 39 -111 18 -17 22 -28 17 -48 -7
-28 -11 -31 -79 -59 -55 -22 -76 -60 -67 -116 7 -42 57 -108 81 -108 9 0 14
-11 14 -27 0 -49 -11 -71 -41 -84 -89 -36 -91 -158 -5 -238 41 -38 35 -75 -18
-122 -25 -22 -50 -55 -56 -75 -18 -53 -4 -122 30 -154 19 -17 25 -31 20 -41
-24 -45 -22 -57 15 -69 33 -11 35 -14 35 -56 0 -36 6 -51 36 -84 41 -46 87
-62 151 -53 59 8 93 -21 93 -81 0 -66 19 -116 60 -159 37 -40 40 -41 106 -42
79 -2 119 -18 108 -43 -25 -59 -6 -120 46 -147 40 -21 59 -19 114 9 60 30 96
21 96 -26 0 -42 25 -94 54 -114 34 -22 103 -15 145 15 48 35 82 22 112 -40 43
-93 107 -122 176 -80 17 11 42 34 54 50 16 22 31 31 51 31 33 0 37 -23 13 -90
-8 -23 -15 -44 -15 -45 0 -2 27 6 61 16 79 25 79 25 79 -14 0 -26 -6 -36 -29
-50 -41 -24 -71 -77 -71 -124 0 -47 31 -81 101 -111 59 -25 67 -56 33 -116
-30 -52 -32 -114 -3 -149 21 -28 86 -51 112 -41 11 4 21 -4 31 -25 15 -28 15
-32 -4 -63 -60 -98 18 -209 125 -179 34 9 39 8 61 -17 13 -15 21 -34 18 -42
-3 -8 -7 -32 -10 -55 -11 -76 64 -143 170 -153 74 -6 98 -31 90 -93 -8 -61 8
-107 51 -149 24 -23 47 -35 77 -39 35 -5 43 -11 51 -36 13 -40 10 -38 53 -20
36 15 39 15 54 -3 21 -27 48 -39 90 -42 78 -6 92 -1 143 50 61 62 88 64 152
15 47 -36 99 -55 150 -55 23 0 41 12 81 55 41 43 59 55 82 55 22 0 33 -6 37
-20 21 -66 138 -95 184 -46 12 13 28 43 35 67 10 32 20 45 40 52 22 7 32 4 62
-22 33 -29 53 -36 99 -31 54 5 93 62 104 151 1 3 12 11 26 17 19 9 36 7 82 -9
73 -25 113 -19 148 23 23 27 26 39 24 95 -2 55 1 67 20 86 22 22 22 22 37 2 8
-11 22 -36 32 -57 16 -34 32 -50 32 -30 0 4 14 30 31 56 l30 48 24 -22 c21
-19 23 -29 18 -70 -7 -58 17 -114 58 -135 37 -19 48 -19 118 6 56 19 62 19 84
4 16 -10 27 -29 31 -55 7 -46 45 -94 84 -108 35 -12 99 8 122 38 12 16 22 19
47 14 27 -5 33 -12 42 -48 6 -23 22 -54 35 -69 21 -22 34 -27 75 -27 42 0 54
5 80 31 17 17 31 37 31 45 0 9 11 14 35 14 30 0 39 -6 62 -41 48 -72 110 -87
198 -45 28 13 59 33 69 45 33 37 78 28 128 -25 28 -29 56 -48 80 -53 54 -12
118 2 145 33 21 25 23 25 58 10 21 -8 38 -14 39 -12 2 2 8 18 15 35 12 29 18
33 50 33 44 0 104 38 126 80 9 18 15 56 15 98 0 80 15 102 72 102 46 0 95 17
136 47 45 34 56 66 43 128 -9 47 -8 51 18 78 24 25 30 26 59 16 42 -15 93 3
128 44 30 35 29 72 -4 136 -17 33 -17 38 -3 62 11 21 22 26 51 26 108 0 152
98 87 195 -35 50 -21 81 55 119 47 24 63 38 75 67 21 50 5 100 -47 145 -31 26
-40 41 -40 66 0 35 5 35 93 6 39 -13 42 -10 28 27 -4 13 -11 40 -15 61 -7 37
-7 37 26 37 26 0 37 -7 55 -34 27 -42 84 -70 130 -63 46 8 59 20 94 89 36 72
59 80 122 44 98 -58 187 -14 187 92 0 34 4 41 29 52 25 10 35 8 70 -9 63 -33
103 -28 141 16 30 34 32 40 27 92 -4 46 -1 60 15 77 17 19 27 21 86 17 58 -5
71 -2 95 17 39 31 69 94 69 146 0 28 7 52 20 69 18 23 26 25 91 25 84 0 122
18 157 75 15 25 21 45 17 65 -6 26 -3 29 26 35 47 10 47 11 30 60 -15 44 -15
45 13 68 23 20 28 34 32 85 5 70 -13 108 -73 155 -44 35 -47 72 -9 108 39 36
66 97 68 152 1 48 -1 51 -51 97 -43 37 -53 53 -53 78 0 25 6 35 30 47 58 30
79 118 40 168 -11 14 -42 33 -69 42 -42 14 -51 21 -56 46 -5 21 -2 34 8 42 47
39 61 112 31 156 -18 26 -87 60 -120 61 -35 0 -50 50 -30 100 47 117 -17 203
-136 185 -36 -6 -47 -3 -62 14 -23 25 -18 32 48 70 l45 27 -49 27 c-61 34 -67
43 -44 68 15 17 26 19 62 14 119 -18 183 68 136 185 -20 50 -5 100 30 100 33
1 102 35 120 61 30 44 16 117 -31 156 -10 8 -13 21 -8 42 5 25 14 32 56 46 27
9 58 28 69 42 40 52 15 145 -49 178 -27 13 -30 19 -24 48 3 18 17 41 32 52 61
46 71 62 71 112 0 56 -26 118 -64 152 -38 35 -35 73 9 108 60 47 78 85 73 155
-4 51 -9 65 -32 85 -26 22 -27 26 -16 59 7 19 10 37 8 38 -1 2 -16 10 -32 18
-23 12 -29 22 -30 55 -2 46 -35 97 -76 118 -18 9 -57 15 -99 15 -63 0 -72 2
-90 26 -11 14 -17 32 -14 40 11 28 -19 112 -54 154 l-36 41 -73 -2 c-98 -4
-114 9 -107 90 5 54 3 60 -27 94 -38 44 -83 49 -144 16 -33 -17 -43 -19 -67
-8 -25 10 -29 17 -29 51 0 106 -89 150 -187 92 -63 -36 -86 -28 -122 44 -35
69 -48 81 -94 89 -46 7 -103 -21 -130 -63 -18 -27 -29 -34 -55 -34 -33 0 -33
0 -26 38 4 20 11 47 15 60 14 37 11 40 -28 27 -88 -29 -93 -29 -93 6 0 25 9
40 40 66 52 45 68 95 47 145 -12 29 -28 43 -75 67 -76 38 -90 69 -55 119 65
97 21 195 -88 195 -32 0 -40 4 -49 28 -10 24 -9 35 9 72 28 57 27 89 -4 126
-34 40 -85 56 -128 41 -29 -10 -34 -9 -54 15 -19 22 -22 36 -21 96 1 60 -2 73
-23 96 -34 36 -96 63 -150 63 -66 0 -83 22 -80 105 2 75 -13 112 -61 147 -18
12 -53 25 -77 28 -39 4 -46 9 -54 35 -13 40 -10 38 -52 21 -35 -15 -37 -15
-58 10 -27 31 -91 45 -145 33 -25 -5 -50 -23 -79 -53 -53 -59 -87 -61 -144
-12 -46 39 -114 61 -162 52 -34 -6 -75 -42 -96 -83 -9 -17 -21 -23 -46 -23
-28 0 -37 6 -50 29 -22 44 -53 61 -108 61 -58 0 -92 -30 -108 -96 -9 -36 -15
-43 -42 -48 -25 -5 -35 -2 -47 14 -23 30 -87 50 -122 38 -39 -14 -77 -62 -84
-108 -4 -26 -15 -45 -31 -55 -22 -15 -28 -15 -84 4 -70 25 -81 25 -118 6 -41
-21 -65 -77 -58 -135 5 -41 3 -51 -18 -70 l-24 -22 -30 48 c-17 26 -31 52 -31
56 0 20 -16 4 -32 -30 -10 -21 -24 -46 -32 -57 -15 -20 -15 -20 -37 2 -19 19
-22 31 -20 86 2 56 -1 68 -24 95 -35 42 -75 48 -148 23 -46 -16 -63 -18 -82
-9 -14 6 -25 14 -26 17 -11 89 -50 146 -104 151 -46 5 -66 -2 -99 -31 -30 -26
-40 -29 -62 -22 -20 7 -30 20 -40 52 -7 24 -23 54 -35 67 -46 49 -163 20 -184
-46 -5 -15 -15 -20 -41 -20 -28 0 -38 6 -61 41 -57 86 -146 91 -248 14 -61
-47 -95 -46 -131 1 -15 19 -39 41 -53 48 -29 15 -81 26 -96 21z m87 -75 l33
-29 -37 -1 c-50 0 -138 19 -138 31 0 13 39 28 77 28 23 1 43 -8 65 -29z m3047
13 l24 -16 -22 -8 c-12 -5 -51 -11 -86 -15 -74 -8 -85 4 -32 36 39 24 85 26
116 3z m-2671 -19 c38 -27 25 -34 -63 -34 -47 0 -85 4 -85 8 0 14 63 41 95 41
17 1 41 -6 53 -15z m2277 2 c59 -25 42 -36 -52 -36 l-88 1 28 24 c32 28 63 31
112 11z m-1961 -11 c16 -16 31 -54 24 -61 -6 -6 -128 17 -128 25 1 20 43 50
72 51 9 0 23 -7 32 -15z m1620 -6 c14 -11 26 -24 26 -29 0 -4 -21 -11 -47 -15
-27 -3 -59 -9 -72 -12 -21 -5 -22 -3 -16 18 8 29 41 59 65 59 9 0 29 -9 44
-21z m-2154 -59 c291 -11 372 -17 482 -36 250 -42 502 -159 677 -314 l45 -39
-28 -51 c-16 -29 -30 -74 -33 -104 -5 -44 -10 -55 -26 -60 -16 -4 -29 4 -51
32 -53 67 -150 153 -216 192 -126 75 -402 169 -555 189 -38 5 -133 9 -210 10
-77 1 -162 4 -190 7 -61 6 -180 40 -210 60 -21 14 -23 12 -47 -45 -41 -94 -95
-167 -225 -304 -141 -148 -188 -215 -277 -393 -114 -229 -144 -349 -132 -526
6 -92 6 -97 -14 -103 -15 -5 -30 2 -56 24 -19 17 -61 39 -95 48 l-60 18 7 80
c18 226 95 445 228 644 70 105 148 197 341 401 126 133 182 206 223 286 l21
41 83 -24 c72 -21 115 -26 318 -33z m3020 29 c28 -66 96 -156 213 -281 181
-193 254 -275 312 -353 157 -212 256 -464 271 -695 l7 -96 -59 -16 c-35 -10
-73 -29 -92 -48 -24 -21 -40 -28 -55 -25 -21 6 -22 10 -22 163 0 151 -1 160
-33 250 -32 93 -111 259 -172 362 -46 79 -80 119 -213 259 -129 135 -198 229
-223 303 -15 45 -16 47 -37 34 -12 -8 -53 -24 -92 -36 -69 -21 -109 -24 -395
-35 -150 -5 -260 -28 -440 -90 -190 -66 -271 -115 -388 -232 -89 -90 -105
-102 -122 -93 -15 8 -20 21 -20 54 0 29 -10 63 -29 100 l-30 55 51 46 c113
102 269 191 436 249 165 57 285 76 562 87 310 12 421 23 490 47 30 11 58 20
61 21 4 0 12 -13 19 -30z m-3506 -28 c3 -5 -18 -39 -47 -77 -50 -67 -52 -68
-55 -40 -6 47 5 71 45 99 41 29 49 32 57 18z m3653 -34 c23 -21 40 -78 29 -96
-7 -11 -43 26 -85 86 -39 57 -3 64 56 10z m-2356 13 c26 -15 55 -70 36 -70
-20 0 -117 41 -117 50 0 7 38 28 53 29 5 1 17 -4 28 -9z m1049 -8 c22 -17 21
-18 -44 -43 -36 -15 -66 -23 -66 -18 0 20 24 58 44 67 30 15 41 14 66 -6z
m-744 -140 c18 -11 34 -49 34 -77 0 -15 -3 -25 -7 -23 -24 10 -123 82 -123 89
0 15 76 25 96 11z m455 -3 c19 -10 15 -14 -43 -55 l-63 -44 -3 36 c-6 62 51
94 109 63z m-1801 -26 c53 -16 242 -32 386 -33 161 0 325 -41 560 -138 125
-52 255 -150 317 -239 23 -34 25 -43 17 -75 -7 -24 -7 -45 0 -63 15 -39 14
-41 -28 -57 l-39 -15 -23 34 c-68 99 -229 213 -396 280 -138 56 -224 74 -384
79 -200 7 -261 17 -347 58 -50 24 -75 32 -77 23 -35 -123 -69 -179 -183 -299
-52 -55 -115 -128 -140 -162 -81 -110 -158 -285 -189 -431 -15 -71 -21 -247
-10 -283 5 -16 -1 -24 -31 -39 l-38 -18 -20 35 c-11 19 -34 42 -51 50 -36 17
-44 49 -44 174 1 134 34 241 140 457 79 159 122 219 262 367 133 139 193 215
222 280 14 32 23 41 35 36 9 -3 36 -13 61 -21z m3190 -63 c19 -35 92 -122 168
-203 171 -181 206 -231 296 -418 84 -173 111 -251 126 -358 13 -91 3 -218 -18
-234 -36 -29 -79 -73 -84 -87 -4 -13 -9 -13 -38 1 l-34 15 -1 135 c-2 172 -33
295 -117 462 -49 99 -91 156 -199 273 -121 131 -169 200 -194 283 -10 34 -21
60 -24 58 -123 -67 -205 -87 -372 -87 -123 0 -251 -20 -358 -56 -182 -61 -360
-173 -447 -282 l-47 -59 -39 16 c-27 11 -36 20 -31 31 13 30 15 91 3 105 -15
18 21 66 120 158 79 73 158 118 315 177 210 79 266 90 505 100 222 10 309 20
376 44 45 16 40 20 94 -74z m-3718 -57 c-17 -21 -44 -51 -61 -67 l-31 -30 0
30 c0 38 24 73 64 90 52 23 60 17 28 -23z m4157 18 c40 -21 68 -68 57 -97 -4
-9 -8 -15 -9 -13 -2 2 -29 32 -62 67 -62 66 -57 79 14 43z m-2014 -162 c37
-72 40 -108 13 -149 -13 -19 -38 -45 -57 -57 -33 -22 -33 -22 -70 -4 -52 27
-73 54 -78 104 -6 47 9 84 74 186 l35 54 29 -44 c17 -24 41 -64 54 -90z
m-1503 -9 c-4 -14 -7 -42 -6 -64 0 -31 7 -45 33 -68 30 -27 39 -30 80 -25 49
5 91 41 91 77 0 33 -22 34 -47 1 -43 -55 -113 -35 -113 32 0 58 2 59 164 51
129 -6 146 -9 140 -23 -25 -64 -7 -145 40 -176 34 -23 108 -31 145 -16 45 19
71 101 35 115 -23 9 -34 -2 -34 -34 0 -35 -38 -51 -87 -38 -56 15 -79 73 -51
134 12 25 15 26 63 20 53 -6 157 -39 238 -76 47 -21 48 -22 31 -41 -25 -28
-30 -108 -9 -153 39 -83 157 -91 190 -13 24 56 -12 82 -39 28 -9 -16 -22 -31
-31 -35 -27 -10 -65 13 -81 49 -16 40 -11 76 17 101 18 16 21 15 75 -17 61
-36 172 -134 205 -180 18 -25 18 -31 6 -51 -37 -59 -25 -152 28 -222 30 -39
29 -40 -42 -50 l-41 -6 -45 63 c-83 116 -212 216 -367 283 -101 44 -184 63
-330 74 -124 9 -184 27 -227 69 -25 23 -28 20 -32 -29 -4 -55 -35 -108 -115
-200 -93 -105 -150 -203 -193 -331 -53 -160 -63 -322 -28 -464 3 -15 -7 -27
-45 -52 l-50 -31 0 26 c0 81 -53 161 -126 193 -42 17 -42 18 -49 82 -8 71 -1
139 22 235 15 60 16 62 48 62 25 0 40 -8 59 -31 52 -62 22 -127 -54 -115 -35
5 -40 4 -40 -14 0 -10 9 -24 19 -30 89 -47 182 63 134 157 -23 44 -75 83 -110
83 -32 0 -28 12 42 155 71 143 84 160 119 151 77 -19 100 -100 45 -155 -36
-36 -39 -37 -70 -12 -44 34 -66 5 -27 -36 60 -64 178 18 178 123 0 30 -8 44
-42 79 -24 23 -50 44 -58 47 -11 4 4 26 55 79 39 41 84 91 101 112 l31 37 34
-23 c66 -44 43 -124 -34 -114 -45 6 -63 -17 -32 -39 56 -41 155 20 155 96 0
34 -30 77 -67 97 -18 10 -33 18 -33 19 0 1 6 17 14 35 7 19 16 42 19 51 6 16
10 15 56 -5 45 -20 49 -24 43 -47z m2954 9 c15 -34 16 -43 5 -47 -28 -9 -80
-64 -86 -91 -14 -64 43 -131 113 -131 37 0 65 21 57 42 -6 14 -15 16 -50 12
-37 -6 -44 -3 -59 17 -24 35 -20 54 20 89 30 26 39 29 48 18 7 -7 55 -57 106
-112 l94 -98 -29 -15 c-79 -40 -107 -99 -81 -167 18 -48 48 -80 87 -95 49 -18
123 39 92 70 -6 6 -20 1 -36 -11 -30 -24 -52 -18 -86 26 -30 38 -26 71 13 110
43 43 68 43 100 2 28 -38 112 -210 121 -249 6 -24 3 -27 -27 -33 -69 -13 -122
-100 -104 -171 17 -66 110 -100 151 -55 24 26 13 35 -43 35 -41 0 -48 3 -60
27 -26 54 25 123 85 116 23 -3 29 -11 40 -53 17 -65 28 -209 19 -267 -6 -42
-10 -46 -55 -65 -64 -27 -103 -83 -109 -159 -2 -30 -7 -54 -9 -54 -3 0 -18 10
-33 23 -15 12 -35 27 -45 32 -17 10 -17 16 -5 79 19 99 8 259 -24 369 -49 165
-107 267 -230 405 -68 76 -85 108 -93 172 l-6 49 -31 -23 c-64 -48 -95 -57
-226 -67 -195 -14 -347 -65 -504 -172 -75 -51 -167 -142 -201 -201 -29 -50
-28 -50 -123 -30 l-23 5 29 37 c52 66 65 141 37 209 -15 35 -14 38 11 75 36
51 91 100 174 154 70 45 92 48 110 13 24 -43 4 -106 -41 -129 -28 -16 -55 -4
-69 31 -15 35 -43 36 -48 1 -5 -37 48 -82 96 -82 98 0 153 127 95 217 -14 21
-12 23 24 41 60 31 190 73 244 79 48 6 49 5 63 -28 28 -67 -11 -131 -78 -131
-44 0 -64 15 -68 50 -2 16 -9 27 -18 27 -21 0 -25 -61 -6 -90 31 -47 133 -45
188 4 26 23 32 37 36 83 2 31 -1 64 -7 77 -12 21 -10 21 71 22 46 0 113 3 151
8 l67 7 11 -39 c8 -31 7 -43 -6 -63 -23 -36 -73 -33 -105 6 -18 21 -29 27 -39
21 -12 -8 -12 -14 -2 -38 23 -55 93 -78 150 -48 40 20 56 65 45 123 l-9 47 45
16 c25 8 48 14 51 13 3 -2 14 -22 25 -45z m-3812 -85 c12 -5 8 -16 -22 -57
-19 -29 -37 -54 -39 -57 -6 -7 -22 21 -30 49 -5 19 0 30 21 48 28 24 43 27 70
17z m4626 -14 c23 -23 26 -58 7 -84 -12 -16 -16 -13 -50 35 -20 28 -34 56 -31
61 10 15 54 8 74 -12z m-2469 -97 c27 -33 93 -73 119 -73 30 0 118 52 126 75
9 22 28 18 63 -11 37 -31 39 -48 7 -95 -24 -34 -170 -139 -195 -139 -19 0
-156 96 -185 130 -34 41 -34 82 0 109 32 25 47 26 65 4z m-1196 -97 c87 -35
99 -57 104 -174 3 -97 13 -121 38 -100 21 17 13 164 -13 231 -6 16 -2 18 32
15 35 -3 40 -7 53 -43 8 -23 15 -81 15 -134 1 -97 13 -124 36 -80 15 26 15
151 0 199 -5 19 -10 40 -10 46 0 17 59 4 70 -16 18 -34 22 -124 8 -193 -16
-71 -15 -77 13 -77 25 0 42 84 37 183 -3 82 -1 85 45 68 34 -13 44 -91 23
-192 -21 -97 -20 -101 6 -97 18 2 24 13 35 63 7 33 12 91 13 128 l0 68 31 -18
c63 -36 70 -75 43 -240 -6 -39 -5 -43 14 -43 16 0 23 11 33 53 7 28 13 76 13
104 1 29 4 53 8 53 3 0 20 -12 37 -26 37 -31 39 -56 11 -159 -18 -70 -14 -93
14 -82 16 6 46 94 46 135 0 35 20 23 62 -37 l37 -53 -20 -31 c-23 -38 -25
-104 -4 -153 8 -20 12 -40 9 -45 -7 -12 -54 -12 -54 0 0 5 -20 31 -45 58 -67
76 -156 117 -359 169 -179 45 -281 78 -291 95 -11 17 -23 9 -29 -22 -9 -48
-55 -145 -113 -242 -120 -199 -149 -281 -139 -394 5 -64 3 -76 -14 -93 -19
-19 -19 -19 -38 23 -25 55 -66 94 -112 108 -37 11 -39 14 -50 75 -7 34 -10 67
-9 73 2 5 30 -8 63 -30 63 -42 106 -51 106 -21 0 11 -16 26 -42 39 -24 12 -62
37 -85 58 -43 37 -52 64 -34 108 6 16 9 15 31 -9 14 -15 52 -44 84 -65 45 -30
62 -36 73 -28 7 6 13 14 13 18 0 4 -33 30 -73 57 -85 60 -113 103 -103 157 4
21 10 37 14 37 5 0 24 -16 43 -36 41 -43 142 -114 162 -114 8 0 17 7 21 15 4
10 -15 29 -63 60 -38 25 -85 65 -105 90 l-37 44 16 38 16 38 27 -35 c54 -69
150 -144 179 -138 34 6 22 28 -35 67 -65 44 -119 103 -128 139 -4 13 1 33 10
47 l17 26 39 -58 c40 -61 77 -99 121 -127 24 -15 27 -15 39 -1 11 13 4 23 -46
69 -33 30 -72 77 -88 106 l-28 52 23 24 c12 13 25 24 28 24 3 0 16 -20 29 -43
13 -24 48 -68 78 -97 50 -50 55 -53 70 -38 15 15 11 21 -44 78 -33 35 -68 79
-77 100 -16 36 -16 39 9 94 14 31 26 61 26 66 0 13 -5 14 65 -14z m2705 1 c0
-7 9 -30 20 -52 11 -22 20 -49 20 -60 0 -28 -48 -101 -99 -150 -42 -40 -50
-58 -30 -71 15 -9 125 101 150 149 22 42 29 45 54 17 11 -12 15 -27 11 -43 -9
-39 -90 -142 -130 -166 -30 -19 -34 -25 -26 -42 10 -18 13 -18 39 -5 36 19
125 116 143 156 7 16 15 30 18 30 3 0 14 -14 24 -30 17 -30 17 -31 -3 -64 -25
-40 -93 -104 -139 -131 -34 -20 -44 -55 -15 -55 39 0 193 129 193 161 0 5 4 9
9 9 16 0 33 -67 22 -88 -14 -27 -89 -93 -143 -127 -49 -31 -60 -51 -33 -61 19
-8 135 67 175 112 16 19 31 34 34 34 2 0 10 -15 16 -34 18 -56 -15 -103 -122
-175 -48 -32 -60 -54 -34 -64 16 -6 154 86 163 109 11 30 23 12 23 -34 0 -44
-3 -51 -37 -79 -21 -16 -59 -42 -85 -57 -51 -30 -55 -35 -37 -53 13 -13 69 11
128 56 l34 26 -6 -61 c-9 -83 -14 -92 -56 -104 -44 -12 -83 -50 -109 -108 -19
-41 -19 -42 -37 -22 -15 16 -18 39 -19 122 -2 124 -17 169 -113 325 -36 60
-86 150 -110 200 l-44 93 -27 -14 c-15 -7 -88 -28 -162 -46 -340 -80 -414
-114 -493 -221 -22 -30 -36 -39 -58 -39 -34 0 -34 1 -13 43 23 44 23 124 0
163 -19 31 -19 32 3 65 11 19 32 47 45 62 l23 29 12 -62 c16 -81 30 -110 53
-110 22 0 22 4 3 77 -8 31 -15 78 -15 103 0 40 4 49 30 68 16 12 32 22 35 22
3 0 5 -24 5 -52 0 -81 22 -153 46 -153 22 0 22 7 5 108 -15 88 -2 141 39 162
16 8 31 15 35 15 3 0 5 -22 5 -50 0 -27 7 -83 17 -125 13 -62 19 -75 36 -75
17 0 18 5 13 43 -9 63 -19 237 -13 237 2 0 20 7 40 15 l35 14 -4 -77 c-6 -100
13 -187 41 -187 15 0 19 6 17 25 -1 14 -5 66 -8 115 -6 108 5 138 52 143 l31
3 -13 -53 c-15 -55 -17 -145 -5 -188 4 -16 14 -25 26 -25 19 0 20 6 17 82 -3
55 1 99 12 137 16 55 17 56 55 56 l39 0 -15 -41 c-19 -57 -14 -214 7 -214 12
0 16 20 21 96 8 126 20 147 100 179 65 27 79 28 79 7z m-3820 -64 c0 -16 -45
-113 -53 -113 -8 0 -27 43 -27 61 0 16 48 59 65 59 8 0 15 -3 15 -7z m4920
-13 c22 -22 26 -60 9 -92 -11 -20 -14 -17 -40 42 -16 34 -29 64 -29 66 0 13
43 1 60 -16z m-2593 -66 c47 -30 91 -58 98 -60 7 -3 54 22 105 55 68 45 100
61 126 61 77 0 132 -59 119 -128 -16 -84 -68 -137 -232 -235 l-112 -67 -123
76 c-144 89 -152 95 -190 153 -63 99 -18 198 91 200 25 1 56 -14 118 -55z
m-2431 -230 c-3 -9 -9 -40 -12 -70 -7 -60 -17 -72 -40 -53 -42 35 -36 97 13
123 36 20 47 20 39 0z m5137 -22 c25 -22 21 -56 -10 -93 l-28 -33 -12 70 c-17
98 -17 97 10 83 12 -6 30 -18 40 -27z m-3746 -14 c76 -28 98 -49 124 -117 18
-48 20 -73 17 -173 -2 -68 -8 -122 -14 -128 -18 -18 -131 76 -187 156 -64 92
-69 131 -32 219 16 36 29 65 31 65 1 0 28 -10 61 -22z m2382 -36 c31 -73 31
-128 -2 -184 -57 -97 -199 -226 -217 -197 -14 22 -23 137 -16 208 7 69 48 169
76 182 32 15 116 47 125 48 6 0 21 -25 34 -57z m-1394 -32 c39 -23 89 -56 113
-72 l43 -29 102 65 c123 78 143 86 213 86 128 0 179 -81 115 -182 -31 -48 -91
-84 -181 -108 -25 -6 -92 -27 -149 -47 -99 -34 -105 -35 -136 -20 -18 9 -81
29 -140 47 -150 43 -201 67 -239 112 -42 49 -53 96 -31 138 23 45 66 61 150
57 62 -3 78 -9 140 -47z m-680 -17 c101 -32 173 -72 220 -124 l37 -42 -63 -33
c-82 -44 -133 -95 -170 -169 -27 -57 -58 -173 -59 -222 0 -18 -6 -23 -25 -23
-13 0 -28 -7 -33 -17 -9 -14 -15 -12 -53 19 -109 87 -217 125 -328 113 -36 -4
-81 -13 -100 -21 -18 -8 -38 -11 -43 -8 -19 12 -3 164 24 231 23 55 105 203
113 203 2 0 15 -25 29 -55 30 -65 99 -142 181 -200 102 -72 101 -72 119 -19
28 81 39 207 26 281 -6 36 -18 79 -26 96 l-16 29 44 -7 c24 -4 79 -18 123 -32z
m1820 10 c-26 -49 -38 -135 -32 -223 6 -78 28 -184 41 -198 11 -10 175 109
222 161 47 53 84 115 84 142 0 30 17 14 63 -62 82 -138 116 -242 102 -322 l-6
-38 -57 20 c-46 15 -76 18 -152 15 -106 -5 -172 -29 -263 -94 -46 -34 -51 -35
-63 -19 -8 11 -20 15 -33 10 -17 -5 -20 0 -26 42 -24 180 -103 303 -235 365
l-50 24 30 36 c55 66 136 109 285 148 101 27 107 26 90 -7z m-3540 -199 c64
-11 140 -42 164 -68 28 -29 37 -92 22 -139 -10 -29 -18 -36 -54 -46 -97 -24
-151 23 -187 163 -25 98 -25 109 -2 102 9 -3 35 -8 57 -12z m5175 -69 c-27
-120 -48 -155 -108 -180 -63 -27 -126 -2 -143 55 -17 57 3 114 50 146 30 19
165 61 208 63 8 1 6 -24 -7 -84z m-5430 40 c13 -14 22 -26 19 -28 -7 -5 -143
-26 -147 -22 -6 6 27 63 40 68 31 13 66 6 88 -18z m5729 -1 c24 -31 28 -59 7
-51 -8 3 -42 9 -75 13 -34 3 -61 10 -61 15 0 4 12 17 26 28 37 29 78 27 103
-5z m-3315 3 c16 -12 12 -16 -45 -45 -93 -45 -134 -84 -171 -159 -30 -61 -33
-75 -33 -160 0 -108 6 -104 -105 -65 l-75 27 3 35 c14 180 113 321 257 366 53
17 147 17 169 1z m1008 -19 c102 -47 172 -140 203 -270 26 -111 27 -110 -68
-141 -46 -15 -86 -27 -90 -27 -4 0 -7 38 -7 84 0 159 -55 251 -194 322 -65 34
-72 40 -58 51 28 22 148 11 214 -19z m-902 -28 c13 -9 12 -12 -5 -22 -43 -24
-91 -86 -108 -137 -21 -65 -22 -193 -3 -276 8 -33 13 -62 10 -64 -2 -3 -50 11
-107 30 l-102 34 0 101 c0 92 3 105 30 159 35 68 90 113 193 156 79 33 73 31
92 19z m758 -63 c107 -64 149 -161 135 -311 l-6 -63 -94 -32 c-52 -18 -97 -30
-100 -27 -3 3 1 29 8 58 8 29 13 96 13 148 0 77 -5 105 -23 147 -22 49 -88
123 -111 123 -6 0 -10 4 -10 9 0 31 93 5 188 -52z m-2678 33 c28 -28 29 -77 3
-207 l-16 -82 -76 -18 c-176 -41 -251 -13 -225 85 5 18 13 22 43 22 21 0 60 7
88 15 46 14 53 20 64 52 6 21 13 60 15 87 2 38 7 52 21 57 33 13 63 9 83 -11z
m4504 10 c23 -8 26 -16 27 -57 1 -67 20 -115 52 -131 15 -7 55 -16 90 -20 59
-7 62 -8 65 -36 10 -87 -38 -108 -182 -80 -50 9 -98 20 -106 25 -21 10 -55
184 -47 235 6 38 36 74 62 74 8 0 25 -4 39 -10z m-4932 -69 c11 -37 30 -71 49
-91 27 -26 30 -35 21 -54 -9 -21 -13 -22 -88 -14 -173 16 -317 -19 -549 -136
-178 -90 -238 -133 -402 -290 -136 -129 -220 -192 -298 -222 l-44 -16 19 -39
c33 -64 50 -157 55 -299 10 -277 14 -316 44 -430 75 -290 155 -445 300 -582
79 -75 87 -85 78 -105 -8 -19 -18 -23 -56 -23 -30 0 -64 -9 -98 -27 l-53 -26
-26 24 c-80 75 -204 277 -258 421 -69 183 -93 339 -105 698 -10 264 -21 353
-56 442 -5 13 6 23 54 47 76 39 141 92 316 257 191 181 292 263 410 333 201
120 413 187 595 190 l75 1 17 -59z m2488 52 c0 -5 -7 -28 -16 -53 -20 -57 -12
-131 23 -219 l26 -65 -44 -38 c-52 -45 -140 -91 -166 -86 -25 5 -43 90 -44
204 -1 135 29 192 126 242 39 21 95 29 95 15z m395 -12 c59 -27 110 -88 125
-151 23 -94 -4 -300 -39 -300 -31 0 -120 49 -164 89 l-45 41 26 63 c32 80 40
178 18 231 -9 21 -16 40 -16 42 0 11 60 1 95 -15z m2634 4 c114 -22 269 -78
381 -137 161 -85 254 -158 548 -435 126 -118 208 -180 277 -209 l33 -14 -25
-87 c-20 -72 -26 -124 -34 -293 -13 -305 -27 -465 -48 -565 -35 -161 -104
-332 -189 -465 -46 -72 -144 -190 -158 -190 -7 0 -32 11 -55 25 -30 17 -59 25
-92 25 -41 0 -49 3 -59 25 -7 16 -8 29 -2 33 5 5 35 30 67 57 116 96 199 238
272 460 61 184 75 262 81 458 6 206 17 284 50 356 13 29 24 54 24 56 0 1 -34
19 -75 39 -63 31 -103 64 -247 203 -95 92 -206 188 -246 214 -105 69 -295 164
-403 201 -90 31 -101 33 -246 33 -142 0 -153 1 -161 20 -7 16 -2 28 24 57 19
21 40 61 49 93 l16 55 69 0 c37 0 104 -7 149 -15z m-6009 -5 c18 -11 18 -11
-52 -43 -58 -26 -58 -26 -58 -5 0 47 66 76 110 48z m6366 -21 c8 -17 12 -35 7
-39 -4 -4 -34 5 -65 20 -64 30 -63 50 4 50 32 0 40 -5 54 -31z m-3198 -7 c47
29 74 21 90 -27 15 -45 4 -130 -26 -191 -18 -40 -23 -41 -48 -13 -37 41 -52
43 -95 8 -22 -17 -42 -30 -44 -28 -2 2 -13 32 -24 66 -27 82 -28 152 0 187
l20 26 48 -24 47 -24 32 20z m-2000 -18 c35 -23 62 -90 61 -154 0 -30 -15
-116 -33 -190 l-34 -134 -128 -33 c-156 -40 -235 -44 -297 -14 -80 39 -99 122
-43 188 18 21 39 31 88 40 35 7 86 17 114 23 l51 11 23 112 c13 62 30 120 39
131 38 45 107 54 159 20z m4068 -4 c22 -14 35 -31 39 -53 9 -47 37 -180 40
-193 3 -9 75 -29 222 -59 29 -7 65 -67 65 -111 0 -46 -23 -79 -73 -105 -59
-30 -127 -27 -288 11 l-139 33 -31 126 c-40 164 -45 207 -32 258 13 46 53 100
85 114 28 12 72 3 112 -21z m-5509 -92 c10 -8 -1 -20 -40 -48 -28 -21 -55 -36
-59 -33 -17 10 -7 55 17 79 26 25 52 26 82 2z m6882 12 c24 -13 45 -64 34 -84
-7 -13 -16 -10 -58 20 -28 19 -51 39 -53 43 -2 7 28 23 56 30 2 1 11 -3 21 -9z
m-5112 -81 c30 -29 47 -92 38 -144 -5 -33 -66 -162 -124 -260 -6 -11 -19 -40
-30 -65 -18 -44 -22 -47 -187 -129 -189 -95 -241 -107 -308 -76 -38 18 -66 58
-66 95 0 33 25 73 73 117 47 44 62 49 220 85 72 16 97 26 97 38 0 8 13 69 29
134 26 105 33 122 67 158 79 82 137 97 191 47z m3389 15 c19 -9 52 -37 74 -63
39 -45 50 -78 95 -288 4 -17 16 -24 63 -33 151 -31 203 -48 249 -86 26 -21 54
-56 65 -80 17 -39 17 -47 4 -78 -39 -95 -159 -97 -326 -6 -30 17 -92 48 -137
70 -46 22 -83 45 -83 51 0 6 -25 60 -55 120 -89 175 -114 247 -106 295 9 47
31 83 63 101 31 17 54 16 94 -3z m-2861 -69 c39 -19 87 -48 107 -65 l37 -31
-42 -84 -41 -85 -61 59 c-86 85 -150 115 -245 114 -50 -1 -95 -8 -134 -22 -71
-25 -66 -25 -66 -2 0 19 79 99 118 120 94 50 220 49 327 -4z m2511 16 c80 -36
172 -126 150 -148 -3 -3 -31 5 -63 17 -39 15 -83 23 -133 23 -67 2 -84 -2
-142 -31 -44 -21 -84 -51 -118 -88 -28 -31 -52 -55 -53 -53 -1 2 -20 41 -42
87 l-39 83 29 24 c135 108 288 140 411 86z m-4038 2 c48 -5 55 -9 69 -39 9
-18 31 -41 49 -50 19 -10 34 -20 34 -21 0 -1 -7 -17 -16 -35 l-15 -33 -108 3
c-132 5 -236 -14 -376 -69 -168 -65 -249 -119 -444 -296 -92 -84 -147 -118
-238 -148 l-52 -17 29 -51 c44 -79 58 -148 65 -317 9 -226 33 -332 115 -507
66 -141 157 -259 254 -329 27 -20 28 -21 14 -61 -11 -34 -16 -39 -33 -32 -29
11 -83 11 -106 -2 -17 -9 -32 2 -118 88 -88 88 -104 110 -149 203 -58 119
-122 299 -146 410 -10 46 -20 163 -26 300 -8 202 -18 282 -45 351 -4 11 6 21
37 35 65 29 141 89 280 222 154 146 210 185 392 273 244 117 360 143 534 122z
m5558 -22 c89 -25 288 -115 396 -177 64 -38 123 -89 268 -230 102 -99 208
-193 235 -209 28 -16 51 -29 53 -30 1 -1 -7 -37 -19 -81 -15 -59 -22 -132 -29
-294 -10 -243 -21 -301 -95 -500 -78 -208 -148 -321 -258 -414 -45 -38 -52
-40 -115 -41 -37 0 -73 -2 -80 -5 -8 -3 -18 10 -27 35 -13 36 -13 41 3 49 43
24 140 129 192 207 130 197 185 395 189 672 2 126 17 202 56 279 14 28 25 51
25 53 0 1 -30 15 -67 30 -106 42 -144 68 -264 180 -62 58 -136 121 -166 141
-78 52 -224 118 -328 150 -80 24 -107 28 -236 28 l-145 1 -16 37 -16 36 30 13
c16 7 40 29 54 50 20 32 30 38 66 42 81 9 223 -2 294 -22z m-2843 -86 c162
-150 267 -173 462 -103 55 20 143 52 195 71 52 19 110 38 127 42 l33 7 62
-129 c35 -71 81 -166 102 -212 49 -103 117 -180 188 -211 43 -19 78 -25 183
-29 l130 -6 7 -112 c15 -237 63 -309 266 -405 206 -97 287 -137 305 -150 18
-13 17 -20 -26 -144 -25 -71 -60 -169 -78 -219 -28 -75 -34 -104 -34 -175 0
-77 3 -90 33 -146 18 -33 66 -96 106 -140 l73 -79 -73 -80 c-40 -43 -88 -106
-106 -140 -30 -55 -33 -68 -33 -145 0 -71 6 -100 34 -175 18 -49 53 -148 78
-219 43 -124 44 -131 26 -144 -18 -13 -99 -53 -305 -150 -203 -96 -251 -168
-266 -405 l-7 -112 -130 -6 c-105 -4 -140 -10 -183 -29 -71 -31 -139 -108
-188 -211 -21 -46 -67 -141 -102 -212 l-62 -129 -33 7 c-17 4 -75 23 -127 42
-291 106 -293 107 -370 107 -65 1 -84 -3 -140 -31 -38 -19 -99 -63 -148 -109
l-82 -76 -85 80 c-114 108 -174 137 -280 136 -68 -1 -97 -7 -195 -43 -168 -62
-312 -111 -325 -111 -7 0 -58 96 -114 213 -57 116 -118 231 -137 254 -22 27
-59 54 -102 75 -62 31 -75 33 -197 38 l-130 5 -6 125 c-4 69 -12 140 -18 158
-18 59 -60 121 -106 155 -47 36 -67 47 -307 161 l-157 74 39 114 c21 62 57
165 79 228 75 211 54 314 -93 468 -42 44 -76 83 -76 87 0 4 34 43 76 87 147
154 168 257 93 468 -22 63 -58 166 -79 228 l-39 114 157 74 c240 114 260 125
307 161 46 34 88 96 106 155 6 18 14 89 18 158 l6 125 130 5 c122 5 135 7 197
38 43 21 80 48 102 75 19 23 80 138 137 255 56 116 107 212 114 212 13 0 157
-49 325 -111 98 -36 127 -42 195 -43 106 -1 167 28 278 135 45 43 84 78 85 79
2 0 40 -34 85 -75z m-3733 6 c0 -15 -114 -113 -118 -101 -7 19 20 70 46 90 25
21 72 27 72 11z m7364 -3 c24 -10 66 -79 66 -108 0 -11 -120 93 -128 113 -5
11 34 8 62 -5z m-4946 -77 c41 -21 162 -135 162 -153 0 -14 -79 -166 -89 -172
-5 -4 -27 19 -47 50 -54 81 -124 148 -188 179 -49 24 -65 27 -131 23 -45 -2
-74 0 -72 6 6 19 53 47 122 72 86 31 176 29 243 -5z m2683 13 c85 -25 148 -61
149 -84 0 -3 -34 -4 -75 -2 -68 3 -79 1 -135 -29 -64 -34 -138 -106 -186 -183
-16 -25 -32 -46 -36 -46 -4 0 -28 41 -53 91 l-46 90 73 73 c103 103 184 127
309 90z m-3981 -60 c8 -2 23 -24 34 -49 27 -68 102 -115 182 -115 l32 0 -31
-50 c-32 -49 -32 -49 -72 -42 -22 4 -105 7 -185 6 -141 0 -148 -1 -257 -38
-131 -45 -237 -106 -343 -201 -87 -77 -128 -100 -192 -110 l-47 -7 24 -32 c41
-54 53 -97 64 -231 13 -156 37 -248 97 -369 74 -149 180 -270 307 -351 14 -9
14 -17 4 -68 l-12 -59 -20 22 c-47 53 -168 77 -225 45 -34 -19 -32 -20 -88 24
-52 41 -122 126 -163 198 -23 41 -23 42 -5 62 28 31 95 29 125 -3 31 -33 25
-76 -12 -94 -17 -8 -27 -20 -25 -30 9 -46 93 -3 104 54 19 102 -106 181 -201
126 l-35 -21 -24 47 c-26 51 -69 184 -80 244 -6 34 -4 38 25 53 62 33 139 -9
139 -76 0 -42 -10 -59 -34 -59 -31 0 -50 -16 -43 -34 15 -39 101 -9 118 41 35
109 -56 208 -168 182 -21 -4 -41 -5 -45 -1 -4 4 -8 70 -9 147 l-2 140 36 9
c79 20 120 -57 56 -107 -22 -17 -30 -30 -26 -42 14 -35 89 16 103 70 9 36 -3
73 -32 102 -22 22 -31 24 -90 21 l-66 -3 -18 46 -17 46 49 21 48 20 15 -28
c50 -97 176 -92 206 8 13 46 -2 95 -29 90 -13 -3 -17 -13 -17 -47 0 -36 -5
-47 -27 -64 -25 -19 -28 -19 -52 -3 -14 9 -33 28 -42 42 -17 25 -17 26 22 57
21 17 71 62 110 99 39 37 73 68 76 68 3 0 8 -10 12 -23 16 -66 118 -107 183
-73 43 22 83 73 83 105 0 32 -34 81 -56 81 -23 0 -28 -29 -9 -50 24 -27 12
-66 -28 -91 -40 -24 -73 -18 -109 22 -39 42 -36 71 10 102 80 53 255 131 266
119 4 -3 6 -15 6 -28 0 -47 80 -114 135 -114 55 0 115 50 115 97 0 35 -21 73
-41 73 -23 0 -34 -19 -20 -33 16 -16 14 -48 -6 -69 -18 -20 -64 -24 -94 -8
-25 14 -51 66 -44 90 13 40 260 71 355 44z m5350 -13 c59 -14 65 -19 68 -44 2
-20 -5 -35 -27 -57 -36 -36 -81 -40 -112 -9 -20 20 -21 32 -4 71 9 22 -19 35
-39 19 -38 -32 -19 -119 33 -145 37 -20 72 -20 114 -2 42 18 66 46 81 95 l11
40 82 -33 c87 -36 192 -96 213 -121 21 -25 -11 -82 -56 -101 -41 -17 -75 -6
-107 37 -19 26 -19 28 -1 58 15 25 16 33 5 43 -10 11 -18 7 -42 -20 -34 -38
-36 -56 -9 -100 27 -44 76 -72 127 -72 35 0 50 7 83 36 21 19 42 44 45 55 4
11 10 19 15 17 4 -2 54 -47 110 -101 100 -96 102 -99 89 -124 -21 -40 -51 -55
-83 -43 -31 11 -50 53 -37 79 14 26 -3 49 -26 35 -41 -25 -22 -124 28 -149 61
-32 129 -8 166 59 10 18 12 18 57 1 25 -10 46 -20 46 -24 0 -3 -8 -25 -17 -48
l-18 -42 -62 6 c-59 6 -63 4 -92 -25 -53 -52 -39 -138 27 -171 12 -7 27 -9 32
-6 16 10 12 45 -5 45 -8 0 -22 11 -31 25 -14 21 -14 30 -4 55 14 35 36 44 86
34 l36 -7 -6 -51 c-3 -28 -6 -95 -6 -149 l0 -99 -32 8 c-76 19 -146 -4 -173
-56 -8 -16 -15 -52 -15 -80 0 -65 30 -100 85 -100 32 0 36 3 33 23 -2 16 -11
23 -31 25 -62 7 -55 109 8 139 39 18 91 9 108 -19 14 -21 -21 -161 -64 -257
l-31 -70 -36 20 c-95 50 -205 -6 -205 -105 0 -32 6 -45 32 -68 36 -32 74 -34
79 -5 3 12 -6 21 -27 28 -38 14 -50 49 -27 84 28 42 117 48 142 9 13 -18 9
-27 -32 -90 -46 -70 -117 -150 -165 -185 -25 -17 -30 -18 -63 -4 -72 30 -145
17 -223 -42 l-33 -24 -1 38 c0 21 -4 47 -8 58 -7 17 1 26 43 54 116 76 205
186 280 342 58 120 83 218 94 372 9 124 22 168 63 213 19 20 19 20 -50 42 -54
18 -83 35 -142 88 -146 130 -269 197 -437 240 -104 26 -277 33 -362 13 -39 -9
-46 -8 -55 7 -5 9 -20 29 -32 44 -13 15 -23 31 -23 34 0 3 17 6 38 6 75 1 146
50 177 122 15 37 21 41 85 52 40 7 159 -5 230 -23z m-4243 -75 c62 -29 123
-88 183 -175 l43 -64 -24 -18 c-34 -27 -114 -49 -175 -49 l-52 0 -31 66 c-42
91 -83 139 -141 166 -44 21 -47 25 -34 42 15 22 105 55 149 56 17 0 53 -11 82
-24z m3045 -8 c52 -29 57 -43 21 -56 -63 -21 -134 -104 -168 -196 l-19 -49
-76 6 c-73 5 -149 31 -165 57 -16 26 111 187 181 230 19 12 47 26 62 31 41 13
119 2 164 -23z m-5542 -37 c0 -11 -117 -101 -131 -101 -27 0 14 75 53 96 27
15 78 18 78 5z m7946 -25 c29 -29 46 -76 28 -76 -10 0 -97 66 -118 89 -19 21
-19 21 18 21 30 0 45 -7 72 -34z m-5621 -79 c38 -40 79 -109 87 -147 2 -11 -9
-16 -47 -20 l-50 -5 -8 -50 c-4 -27 -10 -51 -12 -53 -9 -9 -121 56 -155 90
-63 63 -58 110 15 124 30 5 36 12 50 55 15 45 19 49 48 49 23 0 41 -11 72 -43z
m3316 -7 c14 -38 22 -46 58 -58 24 -8 45 -20 48 -28 19 -49 -82 -147 -184
-178 -21 -7 -23 -4 -23 33 0 62 -7 71 -55 71 -24 0 -47 4 -50 10 -15 24 62
148 112 182 46 30 75 20 94 -32z m-4259 -99 c23 -32 51 -73 61 -91 9 -17 23
-30 30 -28 25 9 17 45 -23 107 -23 35 -39 65 -37 67 2 2 34 -2 72 -9 67 -12
68 -13 82 -52 17 -51 48 -83 100 -107 42 -19 43 -19 27 -44 -12 -17 -22 -23
-35 -19 -11 4 -49 7 -87 7 -97 2 -175 -28 -359 -138 -87 -52 -183 -102 -213
-111 -30 -9 -56 -18 -58 -19 -2 -1 9 -26 23 -54 15 -29 48 -137 75 -240 62
-242 103 -322 201 -394 29 -21 35 -31 31 -55 -4 -28 -4 -28 -35 -13 -50 25
-116 26 -161 3 l-39 -20 -58 41 c-33 22 -59 45 -59 49 0 5 17 9 38 10 80 1
154 41 127 68 -7 7 -25 5 -55 -5 -25 -9 -72 -18 -105 -21 -59 -5 -61 -4 -87
30 l-27 34 72 6 c99 8 149 24 145 45 -4 18 -7 18 -134 6 -93 -9 -117 -2 -143
42 -12 19 -21 38 -21 40 0 3 18 3 39 -1 50 -8 211 23 218 42 11 28 -12 34 -78
18 -65 -15 -147 -19 -185 -9 -13 3 -25 19 -31 38 l-10 33 91 -1 c113 0 176 16
176 46 0 17 -4 19 -32 14 -81 -14 -176 -18 -214 -7 -35 9 -43 16 -48 43 -3 17
-5 32 -4 34 2 1 35 -5 73 -13 104 -22 214 -6 202 30 -2 6 -46 11 -108 12 -131
2 -165 14 -174 62 -3 19 -5 37 -3 39 2 1 27 -4 55 -12 31 -9 80 -14 124 -12
66 3 74 5 74 23 0 18 -8 20 -101 25 -124 6 -139 15 -170 100 -13 35 -22 65
-21 65 1 0 28 11 60 24 82 33 109 25 196 -55 61 -56 74 -64 87 -53 13 11 7 21
-48 76 -34 35 -79 71 -100 82 l-37 18 27 26 28 27 64 -38 c37 -22 78 -56 99
-84 36 -48 63 -57 69 -26 4 23 -87 120 -145 154 -35 20 -42 28 -33 39 19 23
47 27 77 11 36 -18 115 -102 137 -144 18 -34 43 -42 53 -16 11 28 -123 194
-157 194 -21 0 -8 17 24 33 l35 16 50 -45 c28 -25 67 -72 87 -105 37 -59 57
-72 68 -44 8 21 -73 144 -119 182 l-37 31 36 12 c20 6 45 9 56 5 33 -11 79
-54 121 -116 40 -60 55 -70 65 -45 7 19 -17 65 -71 130 l-44 55 27 4 c15 2 34
5 44 6 9 0 34 -23 60 -58z m5052 47 c-4 -7 -17 -26 -30 -43 -41 -57 -56 -95
-43 -111 18 -22 27 -17 53 34 13 26 41 66 62 90 38 42 41 43 82 36 l42 -7 -39
-42 c-53 -57 -94 -124 -87 -141 10 -25 34 -15 57 24 39 63 72 102 107 124 30
18 38 19 74 9 l41 -13 -50 -51 c-59 -62 -105 -132 -101 -154 7 -35 29 -21 73
45 25 39 65 86 88 105 41 33 44 34 75 21 29 -12 44 -34 24 -34 -15 0 -104 -93
-133 -138 -28 -44 -29 -72 -3 -72 7 0 29 25 49 55 39 57 92 109 131 127 18 9
30 8 49 -2 34 -18 31 -33 -7 -52 -72 -35 -169 -142 -153 -168 12 -19 31 -9 76
43 26 28 72 67 103 86 l57 34 24 -23 c32 -30 31 -35 -7 -51 -38 -16 -158 -126
-158 -145 0 -36 33 -25 83 26 95 97 128 107 221 64 46 -21 55 -29 45 -40 -6
-7 -17 -33 -23 -56 -20 -67 -59 -88 -165 -88 -92 0 -118 -8 -108 -34 8 -21
129 -22 205 -2 l52 13 0 -37 c0 -37 0 -37 -62 -55 -41 -11 -86 -16 -137 -13
-65 3 -76 1 -79 -14 -6 -29 68 -43 158 -30 41 6 83 14 93 17 13 6 17 2 17 -16
0 -13 -4 -29 -8 -36 -21 -33 -114 -42 -216 -22 -43 9 -60 9 -69 0 -20 -20 13
-39 88 -51 39 -6 94 -9 123 -5 33 4 52 3 52 -4 0 -24 -24 -60 -44 -65 -38 -10
-113 -6 -182 10 -52 12 -69 12 -75 3 -4 -7 -5 -18 -3 -24 7 -17 184 -49 223
-40 17 3 31 4 31 0 0 -16 -32 -66 -49 -75 -26 -14 -118 -13 -181 2 -43 10 -53
9 -60 -2 -5 -8 -5 -19 1 -26 8 -10 109 -30 183 -37 l29 -2 -28 -34 c-28 -33
-30 -33 -89 -28 -34 3 -80 13 -103 21 -35 12 -43 13 -53 1 -7 -8 -9 -19 -5
-24 8 -14 101 -41 138 -41 40 0 31 -18 -34 -63 l-54 -37 -40 20 c-46 23 -84
25 -140 5 -54 -20 -55 -19 -55 15 0 17 4 30 9 30 5 0 32 21 60 46 71 64 112
152 166 364 25 96 58 201 74 233 18 38 24 60 17 62 -87 31 -142 57 -242 116
-221 132 -325 168 -436 150 -41 -7 -50 -5 -67 13 l-20 21 54 29 c56 29 95 76
95 114 0 21 25 32 100 45 50 9 61 7 54 -5z m-4374 -93 c16 -47 96 -117 176
-151 l66 -29 -5 -68 c-7 -83 -49 -182 -73 -173 -77 30 -203 148 -236 223 -24
54 -21 129 8 184 30 59 48 63 64 14z m3789 -18 c61 -124 9 -244 -155 -357 -73
-50 -76 -51 -95 -34 -22 20 -45 93 -54 175 l-7 57 50 16 c95 32 202 127 202
180 0 33 35 11 59 -37z m-6045 -39 c24 -137 18 -166 -23 -109 -23 31 -28 90
-11 122 15 28 27 23 34 -13z m8276 -8 c13 -49 5 -82 -27 -112 l-26 -23 6 70
c9 111 28 137 47 65z m-6154 -42 c0 -54 5 -85 20 -118 29 -62 104 -142 180
-192 35 -23 64 -45 64 -49 0 -13 -172 -90 -189 -84 -30 9 -130 120 -151 167
-28 61 -26 150 4 232 25 69 51 116 65 116 4 0 8 -33 7 -72z m4053 -13 c45
-104 49 -194 12 -269 -25 -50 -133 -166 -155 -166 -14 0 -155 67 -173 82 -9 7
3 20 48 51 86 57 153 127 184 193 23 49 27 67 23 126 -5 94 16 88 61 -17z
m-4149 43 c0 -2 -10 -28 -22 -58 -16 -40 -22 -78 -22 -140 -1 -78 2 -90 33
-147 18 -35 56 -83 82 -108 27 -25 49 -48 49 -50 0 -3 -37 -23 -82 -46 l-82
-41 -28 33 c-15 19 -45 68 -66 108 -35 70 -37 81 -37 165 0 79 4 98 28 147 28
59 105 139 132 139 8 0 15 -1 15 -2z m4268 -45 c106 -113 125 -261 53 -408
-17 -33 -45 -78 -63 -99 l-34 -38 -83 42 -84 42 58 56 c114 112 144 241 91
387 -23 65 -23 65 -3 65 12 0 40 -21 65 -47z m-4464 -49 c14 -5 14 -9 1 -33
-7 -15 -19 -58 -25 -95 -21 -115 13 -233 95 -340 34 -45 36 -50 20 -62 -10 -8
-15 -20 -11 -31 5 -17 -4 -21 -78 -35 -46 -8 -109 -27 -140 -41 -71 -33 -156
-116 -187 -185 -13 -29 -28 -52 -33 -52 -21 0 -100 97 -127 154 -25 54 -81
246 -74 254 2 2 16 -3 33 -12 43 -22 157 -38 221 -31 68 7 190 35 195 44 8 13
-106 171 -156 216 -29 26 -77 59 -107 75 l-55 27 43 27 c89 56 168 96 221 110
57 15 137 20 164 10z m4737 -10 c61 -18 127 -50 212 -102 l58 -35 -59 -29
c-69 -33 -184 -147 -231 -230 -17 -29 -31 -56 -31 -60 0 -4 35 -15 78 -24 108
-25 251 -23 320 4 l53 21 -7 -32 c-15 -73 -56 -201 -75 -239 -21 -41 -105
-138 -120 -138 -4 0 -20 24 -34 53 -59 118 -169 194 -327 225 -69 13 -79 18
-75 34 3 11 -2 23 -12 30 -16 10 -14 17 31 82 85 123 110 265 68 386 -14 41
-16 57 -7 62 20 13 101 9 158 -8z m-5133 -210 c62 -31 138 -97 186 -163 20
-27 36 -51 36 -54 0 -13 -147 -29 -208 -22 -77 8 -163 37 -184 63 -20 24 -63
145 -52 149 5 2 32 14 59 27 65 32 100 32 163 0z m5539 -1 c46 -21 61 -32 57
-43 -4 -8 -14 -36 -24 -63 -31 -87 -83 -118 -225 -132 -55 -6 -180 7 -193 20
-3 3 12 30 33 61 61 89 194 183 260 184 17 0 58 -12 92 -27z m-6951 -170 c-4
-4 -16 3 -28 14 -26 26 -26 68 -1 120 l18 38 9 -83 c5 -45 6 -86 2 -89z m8224
127 c24 -47 25 -78 4 -108 -27 -38 -34 -25 -34 63 0 47 2 85 5 85 2 0 14 -18
25 -40z m-8194 -385 c9 -57 8 -65 -6 -65 -30 0 -60 30 -60 61 0 27 29 69 48
69 5 0 13 -29 18 -65z m8176 48 c27 -31 30 -58 8 -85 -11 -14 -29 -28 -41 -31
-20 -5 -21 -3 -14 41 14 98 19 106 47 75z m-6269 -116 c15 -46 27 -87 27 -91
0 -5 -21 -6 -46 -2 -66 9 -170 -10 -228 -42 -56 -31 -110 -93 -145 -170 -27
-58 -38 -64 -47 -26 -14 54 2 159 31 213 63 115 204 198 340 200 l41 1 27 -83z
m4521 54 c144 -50 229 -158 242 -308 4 -52 2 -73 -9 -88 -9 -11 -17 -18 -19
-15 -2 3 -18 35 -37 73 -66 133 -164 191 -324 191 -59 -1 -86 3 -83 10 2 6 17
46 31 90 l28 79 58 -7 c32 -3 83 -14 113 -25z m-4473 -208 c15 -15 68 -177 61
-185 -4 -3 -38 1 -77 9 -162 34 -315 -3 -378 -93 -26 -37 -33 -42 -40 -28 -6
11 -1 37 18 85 47 120 113 190 203 216 52 14 197 12 213 -4z m4486 -19 c46
-23 67 -42 98 -89 46 -69 82 -164 71 -191 -6 -16 -9 -14 -25 12 -70 115 -257
155 -453 98 -25 -7 -23 11 13 110 35 97 32 96 161 92 63 -2 89 -8 135 -32z
m-6358 -55 c13 -33 21 -63 18 -65 -12 -12 -67 28 -73 52 -6 23 11 74 25 74 3
0 17 -27 30 -61z m8021 1 c0 -29 -22 -54 -57 -64 -28 -9 -28 -9 -4 45 10 24
21 53 25 64 7 20 8 20 22 1 8 -11 14 -32 14 -46z m-6722 -90 c47 -34 89 -114
121 -233 12 -43 32 -104 45 -136 23 -57 23 -58 5 -93 -10 -20 -33 -85 -50
-144 -18 -60 -43 -133 -57 -163 -32 -68 -88 -111 -144 -111 -79 0 -108 40
-108 148 0 66 2 73 56 163 32 52 65 105 76 118 16 22 17 26 3 45 -8 12 -42 66
-75 120 -58 96 -60 102 -60 168 0 108 28 147 106 148 30 0 52 -8 82 -30z
m5525 0 c30 -35 41 -91 32 -154 -6 -40 -45 -112 -135 -252 -11 -19 -10 -26 17
-65 63 -93 111 -186 118 -226 10 -60 -3 -119 -32 -153 -20 -24 -33 -30 -66
-30 -101 0 -160 80 -222 299 -14 52 -33 107 -41 123 -14 27 -13 34 14 106 16
42 44 123 62 180 45 144 99 202 187 202 33 0 46 -6 66 -30z m-4968 -61 c33 -6
66 -14 73 -18 22 -13 -14 -101 -68 -168 l-50 -62 -58 26 c-74 35 -202 44 -250
19 l-32 -17 0 33 c0 71 66 157 142 185 42 15 164 16 243 2z m4490 0 c75 -21
170 -149 149 -202 -5 -13 -9 -13 -36 0 -44 22 -176 13 -247 -18 l-54 -23 -43
47 c-49 55 -87 127 -82 159 2 19 13 25 58 34 72 15 205 17 255 3z m-5400 -38
c58 -27 101 -76 181 -209 l70 -117 -69 -115 c-78 -131 -124 -184 -182 -211
-53 -25 -96 -24 -130 3 -28 22 -55 73 -55 105 0 10 30 63 66 118 43 66 63 104
57 112 -111 167 -125 194 -118 230 4 22 20 50 40 70 39 39 78 43 140 14z
m6196 3 c32 -16 59 -66 59 -108 0 -14 -28 -69 -63 -123 l-63 -98 62 -95 c66
-101 74 -128 50 -185 -39 -93 -179 -79 -259 27 -36 47 -158 250 -155 257 19
39 141 232 165 261 37 43 105 80 146 80 15 0 42 -7 58 -16z m-6998 -87 c15
-23 35 -52 43 -64 16 -23 16 -23 -18 -23 -49 0 -78 24 -78 65 0 36 8 65 19 65
3 -1 18 -20 34 -43z m7733 -3 c9 -46 -24 -84 -73 -84 -18 0 -33 2 -33 5 0 14
84 124 91 119 5 -2 11 -21 15 -40z m-7190 -45 c28 -17 144 -174 144 -194 0 -3
-25 -44 -55 -90 -61 -92 -110 -131 -150 -121 -31 8 -62 53 -49 71 5 6 24 32
42 55 18 24 35 55 39 68 7 29 -15 77 -56 125 -37 42 -38 51 -6 82 29 30 48 31
91 4z m6678 5 c40 -39 39 -52 -3 -100 -71 -81 -70 -121 4 -202 30 -34 35 -44
26 -61 -32 -60 -73 -66 -127 -18 -36 31 -127 162 -127 182 0 6 20 42 45 80 75
117 141 160 182 119z m-5690 -79 c32 -8 66 -20 77 -26 19 -10 18 -12 -11 -47
-16 -20 -30 -41 -30 -47 0 -6 14 -27 31 -48 l31 -37 -37 -16 c-95 -39 -196
-42 -229 -5 -16 18 -16 21 4 62 l22 43 -21 44 c-18 36 -19 47 -9 59 29 35 84
41 172 18z m4761 1 c41 -17 43 -34 14 -85 l-21 -38 21 -34 c30 -50 27 -68 -16
-86 -52 -21 -169 -5 -218 31 -18 13 -18 15 13 50 35 40 34 53 -7 90 -27 24
-26 32 1 47 67 36 160 47 213 25z m-5862 -57 c20 -23 37 -51 37 -63 0 -13 -16
-41 -35 -64 -41 -47 -84 -60 -139 -42 -30 10 -146 78 -169 100 -9 8 95 79 153
105 58 25 108 14 153 -36z m6958 39 c35 -11 169 -93 169 -103 0 -13 -142 -96
-184 -107 -59 -16 -104 4 -143 63 l-27 41 21 37 c24 42 76 81 108 81 12 0 37
-5 56 -12z m-7155 -233 c31 -16 63 -25 94 -25 39 0 48 -4 57 -23 10 -21 4 -30
-75 -102 -145 -135 -228 -293 -303 -584 -29 -113 -32 -139 -44 -441 -5 -134
-23 -227 -55 -290 l-20 -39 32 -17 c112 -56 210 -127 316 -225 152 -143 195
-175 326 -248 231 -128 371 -172 543 -173 62 0 121 3 132 7 16 5 24 0 32 -19
10 -22 8 -28 -20 -56 -20 -20 -38 -54 -49 -92 l-17 -61 -105 6 c-179 10 -376
76 -565 188 -118 70 -219 152 -410 333 -175 165 -240 218 -316 257 -48 24 -59
34 -54 47 35 89 46 178 56 440 15 443 48 604 171 844 63 123 192 298 219 298
5 0 29 -11 55 -25z m7302 -2 c204 -241 310 -497 341 -823 5 -58 13 -202 16
-320 6 -205 11 -240 52 -415 3 -16 -4 -25 -33 -39 -80 -38 -154 -96 -294 -231
-165 -160 -305 -279 -400 -341 -195 -125 -412 -200 -636 -219 l-82 -7 -12 52
c-7 28 -28 72 -47 97 -26 34 -33 51 -29 69 5 19 12 23 29 20 111 -23 265 -11
387 31 101 34 316 142 415 208 44 29 141 108 215 175 113 102 150 129 230 167
52 26 96 47 97 48 1 0 -9 28 -22 61 -32 80 -43 162 -49 385 -7 231 -31 357
-112 574 -59 157 -101 224 -212 334 -88 89 -102 107 -95 124 7 16 20 21 57 23
28 2 64 13 89 28 55 32 67 31 95 -1z m-5769 -118 c10 -22 22 -52 25 -67 6 -24
3 -28 -31 -38 -63 -18 -227 -24 -276 -10 -84 23 -157 111 -157 188 l0 33 32
-17 c48 -25 176 -16 248 18 l55 26 42 -46 c24 -26 51 -65 62 -87z m4333 96
c68 -25 179 -28 220 -7 23 12 27 12 32 -1 21 -53 -74 -181 -149 -202 -53 -14
-175 -13 -250 2 -50 11 -61 16 -63 35 -7 50 102 209 137 199 9 -3 42 -15 73
-26z m-6042 -4 c0 -2 -18 -27 -40 -56 -21 -30 -41 -59 -44 -65 -8 -20 -26 17
-26 56 0 44 27 68 77 68 18 0 33 -1 33 -3z m7659 -21 c19 -20 22 -32 17 -60
-4 -19 -10 -38 -15 -40 -7 -5 -91 105 -91 119 0 3 15 5 33 5 23 0 41 -8 56
-24z m-7217 -75 c18 0 42 4 53 8 17 7 22 2 33 -32 14 -40 13 -41 -14 -61 -126
-87 -251 -281 -318 -495 -33 -105 -44 -181 -51 -366 -6 -158 -16 -208 -59
-294 -20 -38 -23 -52 -14 -55 7 -3 36 -12 64 -21 74 -23 134 -64 240 -165 156
-149 243 -206 424 -275 127 -49 232 -68 360 -63 l109 3 15 -33 c9 -18 16 -34
16 -35 0 -1 -15 -11 -34 -21 -18 -9 -40 -33 -49 -51 -15 -32 -18 -33 -94 -41
-93 -8 -214 6 -304 36 -92 31 -335 150 -408 199 -34 23 -119 97 -189 163 -139
133 -215 193 -280 222 -31 14 -41 24 -37 35 27 69 37 149 45 351 6 137 16 254
26 300 24 111 88 291 146 410 45 93 61 115 149 203 86 86 101 97 118 88 11 -6
35 -11 53 -10z m6707 2 l57 6 62 -55 c109 -98 170 -197 248 -406 78 -212 85
-250 94 -548 6 -190 12 -280 24 -320 8 -30 14 -55 13 -56 -1 0 -29 -15 -62
-33 -60 -31 -122 -81 -304 -246 -113 -103 -204 -160 -381 -240 -193 -87 -303
-112 -446 -100 -85 7 -85 7 -109 44 -13 21 -37 43 -53 50 l-30 13 16 36 16 37
145 1 c129 0 156 4 236 28 101 30 271 108 338 155 25 17 98 80 164 141 119
111 205 167 289 189 l42 11 -33 65 c-42 83 -53 147 -59 325 -5 166 -24 269
-71 391 -42 109 -67 158 -122 241 -42 63 -147 173 -186 194 -15 9 -16 15 -8
35 5 13 12 32 15 42 5 15 9 16 28 6 13 -7 43 -9 77 -6z m-5866 -75 c60 -82
217 -118 372 -85 39 8 73 12 77 9 7 -8 -47 -171 -62 -186 -6 -6 -52 -11 -108
-11 -116 0 -169 21 -231 91 -47 53 -105 185 -96 216 7 22 8 21 48 -34z m5047
22 c0 -33 -48 -142 -85 -191 -23 -32 -52 -56 -92 -75 -52 -26 -68 -29 -156
-29 -73 0 -100 4 -106 14 -15 23 -66 180 -61 184 3 3 37 -1 75 -9 153 -29 273
-10 350 58 24 21 47 48 50 59 8 23 25 16 25 -11z m-5467 -125 c-127 -81 -233
-202 -307 -351 -60 -121 -84 -213 -97 -369 -11 -134 -23 -177 -64 -231 l-24
-32 47 -7 c64 -10 105 -33 192 -110 106 -95 212 -156 343 -201 109 -37 116
-38 257 -38 80 -1 163 2 185 6 40 7 40 7 72 -42 l31 -50 -32 0 c-79 0 -152
-45 -181 -112 -10 -23 -20 -44 -21 -46 -1 -1 -28 -7 -60 -12 -40 -7 -85 -6
-139 1 -167 22 -192 37 -160 98 18 35 43 51 81 51 50 0 84 -56 53 -87 -14 -14
-3 -33 20 -33 20 0 41 38 41 73 0 47 -60 97 -115 97 -55 0 -135 -67 -135 -114
0 -13 -2 -25 -6 -28 -11 -12 -186 66 -266 119 -46 31 -49 60 -10 102 36 40 69
46 109 22 40 -25 52 -64 28 -91 -19 -21 -14 -50 9 -50 22 0 56 49 56 81 0 32
-40 83 -83 105 -65 34 -167 -7 -183 -73 -4 -13 -9 -23 -12 -23 -3 0 -37 31
-76 68 -39 37 -89 82 -110 99 -39 31 -39 32 -22 57 9 14 28 33 42 42 24 16 27
16 52 -3 22 -17 27 -28 27 -64 0 -34 4 -44 17 -47 27 -5 42 44 29 90 -30 100
-156 105 -206 8 l-15 -28 -48 20 -49 21 17 46 18 46 66 -3 c59 -3 68 -1 90 21
29 29 41 66 32 102 -14 54 -89 105 -103 70 -4 -12 4 -25 26 -42 64 -50 23
-127 -56 -107 l-36 9 2 140 c1 77 5 143 9 147 4 4 24 3 45 -1 112 -26 203 73
168 182 -17 50 -103 80 -118 41 -7 -18 12 -34 43 -34 24 0 34 -17 34 -59 0
-67 -77 -109 -139 -76 -29 15 -31 19 -25 53 11 60 54 193 80 244 l24 47 35
-21 c95 -55 220 24 201 126 -11 57 -95 100 -104 54 -2 -10 8 -22 25 -30 37
-18 43 -61 12 -94 -30 -32 -97 -34 -125 -3 -18 20 -18 21 5 62 41 72 111 157
163 198 56 44 54 43 88 24 57 -32 178 -8 225 45 l20 22 12 -59 c10 -51 10 -59
-4 -68z m5934 61 c40 -20 113 -21 159 -1 33 14 38 13 63 -4 48 -35 119 -115
165 -185 41 -63 45 -72 32 -90 -25 -39 -114 -33 -142 9 -23 35 -11 70 27 84
21 7 30 16 27 28 -5 29 -43 27 -79 -5 -26 -23 -32 -36 -32 -68 0 -99 110 -155
205 -105 l36 20 31 -70 c43 -96 78 -236 64 -257 -17 -29 -69 -37 -108 -19 -65
31 -71 132 -8 139 20 2 29 9 31 26 3 19 -1 22 -33 22 -55 0 -85 -35 -85 -100
0 -28 7 -64 15 -80 27 -52 97 -75 173 -56 l32 8 0 -99 c0 -54 3 -121 6 -150
l7 -52 -36 -6 c-49 -9 -73 0 -87 35 -10 25 -10 34 4 55 9 14 23 25 31 25 17 0
21 35 5 45 -16 10 -65 -22 -78 -50 -22 -47 -15 -94 18 -127 29 -28 35 -30 93
-26 l63 4 15 -47 16 -46 -46 -23 c-35 -17 -46 -19 -50 -8 -2 7 -21 30 -41 51
-51 51 -97 52 -147 2 -30 -30 -34 -40 -31 -76 3 -47 31 -76 48 -50 5 9 5 22
-1 32 -13 26 6 68 37 79 32 12 62 -3 83 -43 13 -25 11 -28 -89 -124 -56 -54
-106 -99 -110 -101 -5 -2 -11 6 -15 17 -3 11 -24 36 -45 55 -33 29 -48 36 -83
36 -51 0 -100 -28 -127 -72 -27 -44 -25 -62 9 -100 24 -27 32 -31 42 -20 11
10 10 18 -5 43 -18 30 -18 32 1 58 32 43 66 54 107 37 45 -19 77 -76 56 -101
-21 -25 -126 -85 -213 -121 l-82 -33 -11 40 c-15 49 -39 77 -81 95 -42 18 -77
18 -114 -2 -52 -26 -71 -113 -33 -145 20 -16 48 -3 39 19 -17 39 -16 51 4 71
31 31 76 27 112 -9 22 -22 29 -37 27 -57 -3 -26 -9 -30 -73 -46 -73 -19 -233
-27 -273 -13 -12 4 -29 23 -38 44 -30 72 -101 121 -176 122 -21 0 -38 3 -38 6
0 3 10 19 23 34 12 15 27 35 32 44 9 15 16 16 55 7 85 -20 258 -13 362 13 168
43 291 110 437 240 72 64 137 96 194 96 18 0 18 1 3 23 -48 67 -59 101 -68
224 -11 154 -36 252 -94 372 -75 156 -164 266 -280 342 -42 28 -50 37 -43 54
4 11 8 37 8 58 l1 38 33 -24 c17 -14 46 -32 64 -41z m-5566 -68 c35 -77 89
-139 145 -170 58 -32 162 -51 228 -42 25 4 46 3 46 -2 0 -4 -12 -45 -27 -91
l-27 -83 -36 0 c-20 0 -62 7 -93 15 -167 43 -274 159 -285 306 -5 69 2 119 16
119 5 0 19 -23 33 -52z m5150 30 c14 -26 5 -135 -16 -184 -54 -130 -176 -214
-334 -230 l-58 -7 -28 79 c-14 44 -29 84 -31 90 -3 7 24 11 83 10 124 0 182
22 253 93 35 35 65 78 80 113 14 32 28 58 32 58 4 0 13 -10 19 -22z m-6561
-45 c0 -14 -45 -123 -51 -123 -14 0 -31 51 -25 74 7 29 76 74 76 49z m7983
-21 c21 -18 22 -61 3 -88 -14 -19 -15 -19 -22 1 -4 11 -15 40 -25 64 -11 24
-19 46 -19 48 0 8 45 -9 63 -25z m-6858 -16 c43 -20 106 -17 156 8 26 13 27
13 31 -16 4 -25 -2 -33 -42 -63 -93 -68 -131 -149 -199 -422 -28 -112 -60
-221 -71 -244 -12 -22 -20 -42 -18 -43 2 -2 33 -10 69 -19 37 -8 91 -31 120
-50 75 -48 180 -100 269 -132 56 -21 100 -29 175 -32 70 -4 105 -10 118 -21
24 -21 21 -29 -12 -35 -43 -9 -98 -62 -114 -110 -14 -42 -14 -42 -82 -54 -38
-7 -70 -11 -72 -9 -2 2 14 32 37 67 40 63 49 104 21 104 -8 0 -28 -23 -45 -51
-17 -28 -45 -68 -61 -88 -28 -35 -32 -37 -72 -30 l-41 6 44 54 c53 65 77 111
70 130 -10 25 -25 15 -65 -45 -42 -62 -88 -105 -121 -116 -11 -4 -36 -1 -56 5
l-36 12 35 29 c46 38 129 163 121 183 -11 29 -31 16 -68 -43 -20 -33 -59 -80
-87 -105 l-50 -45 -35 16 c-33 16 -45 33 -24 33 36 0 168 165 156 195 -9 25
-35 17 -52 -17 -22 -42 -101 -126 -137 -144 -30 -16 -58 -12 -77 11 -9 11 -2
19 33 39 58 34 149 131 145 154 -6 31 -33 22 -69 -26 -21 -28 -62 -62 -99 -84
l-64 -38 -28 27 -27 26 37 18 c21 11 66 47 100 82 55 55 61 65 48 76 -13 11
-26 3 -87 -53 -87 -80 -114 -88 -196 -55 -32 13 -59 24 -60 24 -1 0 8 30 21
65 31 85 46 94 170 100 93 5 101 7 101 25 0 18 -8 20 -74 23 -44 2 -93 -3
-124 -12 -28 -8 -53 -13 -55 -12 -2 2 0 20 3 39 9 48 43 60 174 62 62 1 106 6
108 12 12 36 -98 52 -202 30 -38 -8 -71 -14 -73 -13 -1 2 1 17 4 34 5 27 13
34 48 43 25 7 69 9 111 5 127 -12 129 -12 133 6 5 25 -66 42 -174 42 l-91 -1
10 33 c6 19 18 35 31 38 38 10 120 6 185 -9 66 -16 89 -10 78 18 -7 19 -168
50 -218 42 -21 -4 -39 -4 -39 -1 0 2 9 21 21 40 26 44 50 51 143 42 127 -12
130 -12 134 6 4 21 -46 37 -145 45 l-72 6 27 33 c33 41 71 44 175 15 57 -16
69 -16 74 -5 3 8 0 20 -6 28 -14 16 -86 36 -131 36 -18 0 -30 4 -28 10 4 12
111 90 118 87 3 -2 23 -11 45 -21z m5775 -13 c64 -45 73 -63 33 -63 -37 0
-130 -27 -138 -41 -4 -5 -2 -16 5 -24 10 -12 18 -11 53 1 23 8 69 18 103 21
59 5 61 5 89 -28 l28 -34 -29 -2 c-74 -7 -175 -27 -183 -37 -6 -7 -6 -18 -1
-26 7 -11 17 -12 60 -2 63 15 155 16 181 2 17 -9 49 -59 49 -75 0 -4 -14 -3
-31 0 -39 9 -216 -23 -223 -40 -2 -6 -1 -17 3 -24 6 -9 23 -9 75 3 69 16 144
20 182 10 19 -5 44 -41 44 -62 0 -4 -44 -7 -97 -8 -103 -1 -179 -22 -170 -46
4 -14 26 -14 128 -3 112 13 169 -8 169 -61 0 -20 -4 -24 -17 -20 -89 27 -157
32 -216 15 -28 -7 -37 -15 -35 -27 3 -15 14 -16 79 -14 51 3 96 -2 137 -13 62
-18 62 -18 62 -55 l0 -37 -52 13 c-76 20 -197 19 -205 -2 -10 -26 16 -34 108
-34 106 0 145 -21 165 -88 6 -23 17 -49 23 -56 10 -11 1 -19 -45 -40 -93 -43
-126 -33 -221 64 -50 51 -83 62 -83 26 0 -19 120 -129 158 -145 38 -16 39 -21
7 -51 l-24 -23 -57 34 c-31 19 -77 58 -103 86 -45 52 -64 62 -76 43 -16 -26
81 -133 153 -168 38 -19 41 -34 7 -52 -43 -23 -109 22 -176 121 -22 33 -46 59
-53 59 -26 0 -25 -28 3 -72 29 -45 118 -138 133 -138 20 0 5 -22 -24 -34 -31
-13 -34 -12 -75 21 -23 19 -63 66 -88 105 -44 66 -66 80 -73 45 -4 -22 42 -92
101 -154 l50 -51 -41 -13 c-36 -10 -44 -9 -74 9 -35 22 -68 61 -107 125 -23
38 -47 48 -57 23 -7 -17 34 -84 87 -141 l39 -42 -42 -7 c-41 -7 -44 -6 -82 36
-21 24 -49 64 -62 91 -26 50 -35 55 -53 33 -13 -16 2 -54 43 -111 43 -58 43
-58 -5 -50 -93 14 -119 25 -119 47 0 38 -39 85 -95 114 l-54 29 20 21 c16 18
26 19 71 14 122 -16 209 13 407 135 105 64 161 93 224 114 27 9 48 19 48 21 0
3 -11 30 -25 61 -14 31 -46 134 -71 230 -54 211 -95 299 -166 363 -28 25 -55
46 -60 46 -5 0 -9 14 -9 30 0 34 1 35 55 15 55 -19 94 -18 135 4 47 25 40 26
100 -16z m-237 -132 c25 -26 54 -66 66 -89 19 -38 60 -166 75 -238 l7 -31 -58
20 c-75 26 -210 27 -315 3 -43 -9 -78 -20 -78 -24 0 -4 14 -31 31 -60 47 -83
162 -197 231 -230 l59 -29 -58 -35 c-131 -80 -231 -118 -312 -118 -68 0 -73 6
-51 70 42 121 17 263 -68 386 -45 65 -47 72 -31 82 10 7 15 19 12 30 -4 16 6
21 75 34 158 31 268 107 327 226 14 28 30 52 34 52 5 0 29 -22 54 -49z m-5310
-16 c59 -112 167 -183 323 -214 73 -14 83 -18 78 -34 -4 -11 1 -23 11 -31 16
-12 14 -17 -20 -62 -99 -128 -126 -271 -78 -413 12 -36 12 -45 1 -52 -39 -25
-185 7 -315 71 -57 28 -103 54 -103 59 0 5 12 12 28 16 46 11 120 64 180 130
56 62 111 149 101 160 -3 3 -41 14 -85 26 -99 25 -240 28 -304 6 -24 -9 -46
-14 -49 -11 -9 8 31 158 61 231 29 71 107 173 131 173 7 0 25 -25 40 -55z
m6735 -130 c7 -16 8 -34 3 -48 -10 -24 -38 -53 -46 -45 -5 5 -25 103 -25 124
0 22 56 -4 68 -31z m-8192 -30 c-5 -36 -13 -65 -18 -65 -19 0 -48 42 -48 69 0
31 30 61 60 61 14 0 15 -8 6 -65z m2014 -195 c44 -22 80 -42 80 -45 0 -2 -22
-25 -49 -50 -26 -25 -64 -73 -82 -108 -31 -57 -34 -69 -33 -147 0 -62 6 -100
22 -140 26 -65 26 -60 7 -60 -27 0 -104 80 -132 139 -24 49 -28 68 -28 146 0
77 5 99 28 149 25 53 93 156 103 156 2 0 40 -18 84 -40z m4220 3 c103 -125
131 -284 72 -416 -25 -54 -102 -137 -129 -137 -20 0 -20 0 3 65 53 146 23 275
-91 387 l-58 56 79 41 c44 22 82 40 86 41 3 0 21 -17 38 -37z m607 -18 c59
-18 90 -48 113 -112 10 -27 20 -55 24 -63 7 -18 -103 -70 -147 -70 -67 0 -200
94 -262 185 -21 30 -36 58 -33 61 26 25 218 25 305 -1z m-5319 -1 c42 -9 79
-18 81 -20 8 -8 -56 -88 -108 -135 -98 -87 -142 -100 -268 -78 l-64 11 6 40
c16 91 31 131 56 150 65 49 164 60 297 32z m-1553 -134 c-6 -69 -9 -79 -20
-63 -28 41 -35 83 -20 113 13 26 34 42 44 34 2 -1 0 -39 -4 -84z m8229 68 c9
-12 16 -33 16 -46 0 -22 -35 -102 -45 -102 -3 0 -5 38 -5 85 0 88 7 101 34 63z
m-5949 -29 c47 -23 85 -44 85 -48 0 -4 -29 -26 -64 -49 -76 -50 -151 -130
-180 -192 -15 -33 -20 -64 -20 -117 1 -40 -3 -73 -7 -73 -14 0 -40 47 -65 116
-33 89 -32 173 1 241 25 49 132 163 154 163 6 0 50 -19 96 -41z m3777 9 c60
-49 115 -131 129 -194 15 -65 2 -135 -42 -231 -38 -86 -56 -84 -51 5 4 59 0
77 -23 126 -31 66 -98 136 -184 193 -45 31 -57 44 -48 51 15 13 159 82 170 82
4 0 26 -15 49 -32z m-3616 -153 c15 -32 27 -81 31 -122 l5 -68 -66 -29 c-80
-34 -160 -104 -176 -151 -16 -49 -34 -45 -64 14 -47 91 -26 189 60 281 43 46
157 130 177 130 4 0 19 -25 33 -55z m3429 4 c162 -112 215 -233 154 -356 -25
-50 -59 -70 -59 -35 0 53 -105 145 -204 178 l-48 16 7 62 c9 78 29 143 51 167
9 10 19 19 21 19 3 0 38 -23 78 -51z m-5875 -196 c0 -29 -21 -147 -26 -153 -3
-3 -12 4 -20 14 -21 29 -17 93 7 127 23 33 39 37 39 12z m8264 -49 c7 -28 -10
-104 -23 -104 -14 0 -22 30 -28 105 l-6 70 26 -23 c14 -13 28 -35 31 -48z
m-5777 -56 l8 -53 50 -5 c56 -6 57 -8 23 -79 -33 -68 -98 -131 -135 -131 -29
0 -33 4 -48 49 -14 43 -20 50 -50 55 -72 14 -78 61 -15 124 32 32 129 90 152
92 3 0 10 -24 15 -52z m3315 21 c77 -39 139 -115 125 -153 -3 -8 -25 -20 -48
-28 -37 -12 -45 -20 -57 -57 -8 -23 -20 -45 -28 -48 -26 -10 -63 7 -99 44 -40
41 -90 137 -80 152 3 6 26 11 50 11 48 0 55 9 55 71 0 37 2 40 23 33 12 -3 39
-15 59 -25z m-3780 -79 c29 -11 91 -41 138 -68 47 -27 106 -57 133 -67 26 -10
47 -24 47 -31 0 -7 36 -82 79 -166 43 -84 82 -168 86 -186 17 -80 -26 -166
-89 -178 -42 -7 -78 11 -135 69 -40 42 -45 54 -72 163 -16 65 -29 126 -29 134
0 12 -25 22 -97 38 -158 36 -173 41 -220 85 -71 66 -87 110 -59 166 31 59 123
77 218 41z m4328 2 c21 -10 42 -32 53 -54 18 -36 18 -38 -1 -81 -39 -89 -109
-126 -314 -167 -47 -9 -59 -16 -63 -33 -50 -234 -55 -246 -109 -301 -79 -81
-150 -85 -196 -10 -43 69 -23 162 68 319 25 44 53 99 62 123 16 42 20 45 195
132 195 98 234 108 305 72z m-3544 -27 c27 -8 60 -23 73 -34 l24 -18 -43 -64
c-81 -118 -186 -199 -261 -199 -43 0 -128 30 -149 52 l-20 22 50 24 c58 27 98
75 141 166 l31 66 52 0 c29 0 75 -7 102 -15z m2769 -32 c34 -91 105 -174 168
-195 36 -13 31 -27 -24 -58 -63 -36 -147 -35 -210 2 -79 46 -212 209 -194 238
19 31 103 57 186 59 l56 1 18 -47z m-2585 -154 c22 -43 40 -82 40 -87 0 -18
-121 -132 -161 -153 -66 -33 -145 -36 -229 -9 -71 23 -130 56 -137 75 -2 7 24
9 72 7 66 -4 82 -1 131 23 64 31 134 98 188 179 20 31 42 54 47 50 5 -3 27
-41 49 -85z m2314 45 c48 -77 122 -149 186 -183 56 -30 67 -32 135 -29 41 2
75 1 75 -2 -1 -24 -66 -59 -154 -85 -120 -35 -218 -3 -317 103 l-59 63 45 89
c25 50 49 90 53 90 4 0 20 -21 36 -46z m-5185 -50 c34 -25 61 -50 61 -55 0
-13 -51 -10 -78 5 -39 21 -80 96 -53 96 5 0 36 -21 70 -46z m8041 25 c0 -12
-15 -36 -34 -55 -26 -26 -42 -34 -71 -34 -23 0 -34 4 -30 11 9 14 118 99 128
99 4 0 7 -9 7 -21z m-6153 -133 l125 -32 34 -134 c18 -74 33 -160 34 -190 0
-115 -76 -196 -159 -171 -60 17 -75 44 -101 168 l-23 112 -51 11 c-28 6 -79
16 -114 23 -74 14 -107 43 -118 104 -13 69 39 125 128 142 56 10 94 5 245 -33z
m4495 12 c47 -23 70 -57 70 -102 0 -44 -36 -105 -65 -110 -12 -3 -67 -15 -122
-28 l-100 -23 -6 -35 c-35 -196 -45 -218 -120 -241 -50 -16 -98 8 -130 64 -34
60 -31 139 10 303 l33 131 137 31 c75 18 145 33 156 35 33 7 98 -5 137 -25z
m-3400 -236 c-20 -18 -70 -49 -110 -69 -63 -32 -82 -36 -150 -37 -104 -1 -167
22 -237 86 -30 27 -55 59 -55 69 0 23 -5 23 66 -2 39 -14 84 -21 134 -22 96
-1 164 31 246 114 l59 59 42 -82 42 -83 -37 -33z m2100 143 c32 -36 73 -66
116 -87 58 -29 75 -33 142 -31 50 0 94 8 133 23 32 12 60 20 63 17 12 -11 -18
-56 -60 -90 -147 -121 -328 -110 -500 28 l-30 24 40 85 c21 47 40 85 42 86 2
0 26 -25 54 -55z m2659 -69 c-12 -23 -33 -48 -47 -54 -26 -12 -64 -16 -64 -7
0 12 125 123 128 114 2 -5 -6 -29 -17 -53z m-7448 -15 c43 -41 46 -51 14 -51
-43 0 -97 59 -97 106 0 19 9 14 83 -55z m3294 45 c-18 -45 -29 -147 -25 -223
5 -108 34 -173 96 -218 22 -16 41 -33 41 -36 4 -44 -195 45 -252 112 -20 23
-43 62 -51 87 -17 48 -22 197 -8 220 8 12 165 71 191 72 7 0 11 -6 8 -14z
m139 -11 c27 -14 69 -42 93 -63 l44 -38 -26 -65 c-35 -88 -43 -162 -23 -219 9
-25 16 -48 16 -52 0 -16 -52 -7 -98 16 -92 47 -123 105 -124 231 0 72 16 186
29 208 8 13 39 7 89 -18z m614 -22 c19 -77 24 -194 10 -253 -21 -88 -113 -169
-192 -170 -33 0 -32 -3 -12 46 22 53 14 151 -18 231 l-26 63 45 41 c44 40 133
89 164 89 11 0 20 -15 29 -47z m145 16 l92 -32 6 -63 c16 -171 -37 -267 -189
-340 -74 -35 -117 -45 -132 -29 -4 4 -1 10 7 13 32 11 90 75 109 120 36 84 38
179 6 330 -3 17 -3 32 1 32 4 0 49 -14 100 -31z m-1150 -152 c0 -85 3 -99 33
-160 37 -75 78 -114 171 -159 58 -29 62 -33 45 -46 -14 -10 -39 -13 -91 -9
-184 11 -318 161 -335 377 l-3 35 75 27 c111 39 105 43 105 -65z m1392 66 c94
-31 92 -26 69 -134 -39 -182 -159 -295 -327 -307 -48 -3 -73 -1 -87 10 -19 13
-16 16 54 52 139 71 194 163 194 322 0 46 3 84 7 84 4 0 44 -12 90 -27z
m-3041 -48 l71 -16 17 -82 c20 -92 22 -166 6 -196 -13 -25 -50 -36 -85 -24
-23 7 -27 15 -29 59 -2 27 -9 66 -15 87 -11 32 -18 38 -64 52 -28 8 -67 15
-88 15 -30 0 -38 4 -43 23 -14 54 2 88 49 100 28 8 98 1 181 -18z m1370 10 c4
-10 14 -13 28 -9 21 5 23 0 34 -73 23 -153 104 -269 230 -331 28 -15 52 -29
52 -33 0 -15 -102 -99 -149 -123 -47 -24 -218 -76 -250 -76 -9 0 -11 6 -6 18
29 67 36 104 36 187 0 86 -24 229 -40 239 -14 9 -118 -61 -188 -127 -50 -47
-82 -88 -100 -128 -16 -32 -30 -58 -33 -58 -7 -1 -95 155 -121 214 -21 49 -37
179 -26 208 5 12 14 12 59 -4 66 -23 185 -25 255 -4 28 8 84 37 124 64 83 55
87 57 95 36z m1914 -15 c21 -17 69 -45 107 -63 88 -42 215 -50 305 -20 l57 20
6 -38 c7 -41 -8 -129 -32 -187 -21 -52 -116 -212 -125 -212 -4 0 -8 6 -8 13 0
26 -48 100 -100 154 -57 59 -196 156 -210 148 -17 -11 -40 -148 -40 -237 1
-65 6 -110 20 -148 10 -30 17 -57 14 -59 -2 -2 -43 6 -91 19 -125 32 -221 80
-273 136 l-43 46 60 29 c112 54 197 169 223 304 6 33 14 70 16 83 4 18 9 22
24 17 13 -4 22 -1 26 9 9 23 21 20 64 -14z m1499 19 c33 -12 45 -37 39 -85 -3
-28 -6 -29 -65 -36 -35 -4 -75 -13 -90 -20 -32 -16 -51 -64 -52 -131 -1 -41
-4 -49 -27 -57 -36 -14 -49 -13 -74 8 -31 25 -36 86 -15 189 10 49 22 92 26
97 9 10 160 44 200 45 14 1 40 -4 58 -10z m-3995 -114 c-11 -121 15 -195 150
-420 73 -122 116 -210 116 -240 0 -9 3 -15 8 -13 82 42 147 64 294 102 208 52
295 93 363 169 25 27 45 53 45 58 0 12 47 12 54 0 3 -5 -1 -25 -9 -45 -21 -49
-19 -115 4 -153 l20 -31 -40 -56 c-43 -60 -59 -69 -59 -33 0 40 -30 128 -46
134 -28 11 -32 -12 -14 -82 28 -103 26 -128 -11 -159 -17 -14 -34 -26 -37 -26
-4 0 -7 24 -8 53 0 28 -6 76 -13 105 -10 41 -17 52 -33 52 -19 0 -20 -4 -14
-42 27 -166 20 -205 -43 -241 l-31 -18 0 68 c-1 37 -6 95 -13 128 -11 50 -17
61 -35 63 -26 4 -27 0 -6 -97 21 -101 11 -179 -23 -192 -46 -17 -48 -14 -45
68 5 99 -12 183 -37 183 -28 0 -29 -6 -13 -77 14 -69 10 -159 -8 -193 -11 -20
-70 -33 -70 -16 0 6 5 27 10 46 15 48 15 173 0 199 -23 44 -35 17 -36 -80 0
-53 -7 -111 -15 -134 -13 -36 -18 -40 -53 -43 -34 -3 -38 -1 -32 15 26 67 34
214 13 231 -25 21 -35 -3 -38 -100 -5 -117 -17 -139 -104 -174 -70 -28 -65
-27 -65 -14 0 5 -12 35 -26 66 -25 55 -25 58 -9 94 9 21 44 65 77 100 55 57
59 63 44 78 -15 15 -20 12 -70 -38 -30 -29 -65 -73 -78 -97 -13 -23 -26 -43
-29 -43 -3 0 -16 11 -28 24 l-23 24 28 52 c16 29 55 76 88 106 50 46 57 56 46
69 -12 14 -15 14 -39 -1 -44 -28 -81 -66 -121 -127 l-39 -58 -17 26 c-9 14
-14 34 -10 47 9 36 63 95 128 139 57 39 69 61 35 67 -29 6 -125 -69 -179 -138
l-27 -35 -16 38 -16 38 37 44 c20 25 67 65 105 90 48 31 67 50 63 60 -4 8 -13
15 -21 15 -20 0 -121 -71 -162 -114 -19 -20 -38 -36 -43 -36 -4 0 -10 16 -14
37 -10 54 18 97 103 157 40 27 73 53 73 57 0 4 -6 12 -13 18 -11 8 -28 2 -73
-28 -32 -21 -70 -50 -84 -65 -22 -24 -25 -25 -31 -9 -18 44 -9 71 34 108 23
21 61 46 85 58 42 21 56 50 28 60 -12 5 -79 -30 -133 -69 -22 -16 -23 -15 -23
3 0 11 5 45 11 75 11 52 14 56 49 67 46 14 87 53 112 108 18 41 19 42 39 25
17 -15 19 -25 13 -87z m3127 -17 c19 -14 46 -28 60 -32 32 -7 38 -20 46 -100
l6 -61 -34 26 c-59 45 -115 69 -128 56 -18 -18 -14 -23 37 -53 26 -15 64 -41
85 -57 34 -28 37 -35 37 -79 0 -46 -12 -64 -23 -34 -9 23 -147 115 -163 109
-26 -10 -14 -32 34 -64 107 -72 140 -119 122 -175 -6 -19 -14 -34 -16 -34 -3
0 -18 15 -34 34 -40 45 -156 120 -175 112 -27 -10 -16 -30 33 -61 54 -34 129
-100 143 -127 11 -21 -6 -88 -22 -88 -5 0 -9 4 -9 9 0 32 -154 161 -193 161
-29 0 -19 -35 15 -55 46 -27 114 -91 139 -131 20 -33 20 -34 3 -64 -10 -16
-21 -30 -24 -30 -3 0 -11 14 -18 30 -18 40 -107 137 -143 156 -26 13 -29 13
-39 -5 -8 -17 -4 -23 26 -42 40 -24 121 -127 130 -166 4 -16 0 -31 -11 -43
-25 -28 -32 -25 -54 18 -25 47 -135 157 -150 148 -20 -13 -12 -31 30 -71 52
-50 99 -122 99 -151 0 -12 -7 -35 -15 -51 -9 -15 -20 -40 -25 -54 l-9 -27 -66
26 c-84 33 -95 53 -104 181 -5 76 -9 96 -21 96 -21 0 -26 -157 -7 -214 l15
-41 -39 0 c-38 0 -39 1 -55 56 -11 38 -15 82 -12 137 3 76 2 82 -17 82 -12 0
-22 -9 -26 -25 -12 -43 -10 -133 5 -188 l13 -53 -31 3 c-47 5 -58 35 -52 143
3 50 7 101 8 115 2 19 -2 25 -17 25 -28 0 -47 -87 -41 -187 l4 -77 -35 14
c-20 8 -38 15 -40 15 -6 0 4 174 13 238 5 37 4 42 -13 42 -17 0 -23 -13 -36
-75 -10 -42 -17 -98 -17 -125 0 -28 -2 -50 -5 -50 -4 0 -19 7 -35 15 -41 21
-54 74 -39 162 17 101 17 108 -5 108 -24 0 -46 -72 -46 -152 0 -29 -3 -53 -7
-53 -5 0 -20 12 -35 25 -33 29 -37 77 -13 168 19 73 19 77 -3 77 -23 0 -37
-29 -53 -110 l-12 -62 -23 29 c-13 15 -34 43 -45 62 -22 33 -22 34 -3 65 23
38 23 119 1 162 -18 35 -14 44 19 44 16 0 32 -14 53 -44 61 -89 176 -144 415
-201 60 -14 144 -40 187 -59 79 -34 89 -35 89 -7 0 26 60 145 138 274 103 170
117 210 118 334 1 84 4 106 19 123 18 19 18 19 40 -29 13 -26 38 -60 56 -73z
m-1660 81 c41 -33 56 -31 93 10 25 28 30 27 48 -13 30 -61 41 -146 26 -191
-16 -48 -43 -56 -91 -27 -31 20 -33 20 -67 2 -19 -11 -43 -19 -52 -20 -27 0
-48 40 -48 92 0 43 36 178 47 178 3 0 22 -14 44 -31z m-3364 -105 c-26 -26
-56 -26 -82 0 -23 23 -33 65 -19 79 4 3 30 -11 59 -31 40 -28 51 -40 42 -48z
m6913 25 c-17 -40 -40 -51 -79 -38 -18 6 -31 15 -29 20 2 4 25 24 53 43 42 30
51 33 58 20 5 -9 4 -27 -3 -45z m-5265 -44 c-35 -142 -25 -304 28 -464 42
-123 99 -225 183 -321 79 -90 110 -142 119 -195 11 -69 12 -70 50 -36 43 38
120 61 201 61 265 0 562 149 710 357 l46 63 41 -6 c71 -10 72 -11 42 -50 -53
-70 -65 -163 -28 -222 12 -20 12 -26 -6 -51 -33 -46 -144 -144 -205 -180 -54
-32 -57 -33 -75 -17 -28 25 -33 61 -17 101 16 36 54 59 81 49 9 -4 22 -19 31
-35 27 -54 63 -28 39 28 -33 78 -151 70 -190 -13 -21 -45 -16 -125 9 -153 17
-19 16 -20 -31 -41 -81 -37 -185 -70 -238 -76 -48 -6 -51 -5 -63 20 -7 15 -12
40 -12 55 0 86 136 118 150 36 5 -27 10 -31 40 -26 13 2 13 44 -1 75 -7 13
-25 30 -40 37 -37 15 -111 7 -145 -16 -47 -31 -65 -112 -40 -176 6 -14 -11
-17 -140 -23 -162 -8 -164 -7 -164 51 0 67 70 87 113 32 25 -33 47 -32 47 1 0
36 -42 72 -91 77 -41 5 -50 2 -80 -25 -26 -23 -33 -37 -33 -68 -1 -22 2 -50 6
-64 6 -23 3 -27 -37 -43 -24 -10 -48 -18 -52 -16 -6 1 -43 83 -43 94 0 0 15 8
33 18 37 20 67 63 67 97 0 76 -99 137 -155 96 -31 -22 -13 -45 32 -39 77 10
100 -70 34 -114 l-34 -23 -31 37 c-17 21 -62 71 -101 112 -51 53 -66 75 -55
79 8 3 34 24 58 47 34 35 42 49 42 79 0 104 -113 184 -177 124 -42 -39 -19
-71 26 -37 31 25 34 24 70 -12 55 -55 32 -136 -45 -155 -35 -9 -48 8 -119 151
-70 143 -74 155 -42 155 35 0 87 39 110 83 48 94 -45 204 -134 157 -10 -6 -19
-20 -19 -30 0 -18 5 -19 40 -14 76 12 106 -53 54 -115 -19 -23 -34 -31 -59
-31 -32 0 -33 2 -48 63 -23 95 -30 163 -22 234 7 64 7 65 49 82 73 32 126 112
126 193 l0 26 50 -31 c38 -25 48 -37 45 -52z m3617 31 c6 -76 45 -132 109
-159 45 -19 49 -23 55 -65 9 -58 -2 -202 -19 -267 -11 -42 -17 -50 -40 -53
-37 -5 -66 14 -83 54 -12 29 -13 39 -2 62 12 24 19 27 60 27 56 0 67 9 43 35
-41 45 -134 11 -151 -55 -18 -71 35 -158 104 -171 30 -6 33 -9 27 -33 -9 -39
-93 -211 -121 -248 -32 -42 -57 -42 -100 1 -39 39 -43 72 -13 110 34 44 56 50
86 26 16 -12 30 -17 36 -11 31 31 -43 88 -92 70 -39 -15 -69 -47 -87 -95 -26
-68 2 -127 81 -167 l29 -15 -94 -98 c-51 -55 -99 -105 -106 -112 -9 -11 -18
-8 -48 18 -41 37 -45 61 -15 91 17 17 29 20 60 15 31 -5 41 -3 46 10 15 39
-71 59 -117 27 -40 -27 -49 -45 -50 -92 0 -40 5 -49 46 -89 l46 -44 -18 -41
c-10 -23 -19 -44 -20 -46 -2 -2 -23 5 -48 15 l-46 19 7 52 c3 33 1 64 -7 82
-15 38 -70 65 -115 57 -35 -7 -85 -55 -85 -82 0 -19 32 -32 38 -15 17 52 90
68 117 27 13 -20 14 -32 6 -63 l-11 -39 -72 7 c-40 4 -108 8 -151 8 -76 1 -77
1 -66 22 6 13 9 46 7 77 -4 46 -10 60 -36 83 -55 49 -157 51 -188 4 -19 -29
-15 -90 6 -90 9 0 16 11 18 27 4 35 24 50 68 50 67 0 106 -64 78 -131 -14 -33
-15 -34 -63 -28 -54 6 -184 48 -244 79 -36 18 -38 20 -24 41 58 90 3 217 -95
217 -48 0 -101 -45 -96 -82 5 -35 33 -34 48 1 14 35 41 47 69 31 58 -31 70
-124 20 -151 -34 -18 -204 104 -263 189 -25 37 -26 40 -11 75 28 68 15 143
-37 209 l-29 37 23 5 c95 20 94 20 123 -29 35 -60 125 -151 200 -202 158 -107
309 -158 504 -172 136 -10 165 -18 215 -56 18 -14 35 -25 38 -25 3 0 8 22 12
48 7 55 37 104 129 210 81 93 122 162 163 270 61 163 80 331 52 467 -10 53
-10 60 7 69 10 6 30 21 44 33 14 12 29 23 32 23 4 0 9 -24 11 -54z m-4287 -27
c38 -10 46 -16 56 -46 14 -45 6 -108 -18 -135 -10 -12 -37 -29 -59 -39 -43
-20 -176 -51 -183 -43 -2 2 5 43 17 91 26 104 57 155 103 170 19 6 35 11 37
12 2 1 23 -4 47 -10z m4936 -3 c36 -15 59 -37 78 -74 15 -29 51 -192 43 -192
-35 0 -185 46 -213 64 -47 32 -67 89 -50 146 14 47 29 57 102 69 4 1 22 -5 40
-13z m-5631 -113 c9 -8 -26 -23 -54 -23 -36 0 -66 25 -66 56 l0 23 58 -26 c31
-14 59 -28 62 -30z m6356 8 c-14 -26 -22 -31 -54 -31 -67 0 -68 20 -4 50 31
15 61 24 65 20 5 -4 1 -22 -7 -39z m-4238 -129 c3 -100 1 -125 -17 -173 -25
-66 -50 -91 -111 -112 -25 -8 -52 -18 -61 -21 -12 -5 -22 8 -44 59 -37 88 -32
127 32 219 56 80 169 174 187 156 6 -6 12 -60 14 -128z m2094 93 c59 -46 127
-125 155 -179 23 -44 20 -103 -8 -169 -17 -40 -29 -56 -39 -53 -46 13 -120 44
-133 54 -8 7 -25 36 -38 65 -19 44 -23 70 -23 162 -1 107 7 165 22 165 4 0 33
-20 64 -45z m-3158 -29 c-12 -37 -6 -209 10 -281 31 -147 108 -321 189 -431
25 -34 87 -106 139 -161 113 -119 147 -175 184 -301 3 -11 11 -10 37 6 95 56
140 64 423 77 172 8 340 59 509 155 82 47 195 145 235 203 l23 34 39 -15 c42
-16 43 -18 28 -57 -7 -18 -7 -39 0 -63 8 -32 6 -41 -17 -75 -39 -56 -138 -143
-213 -187 -75 -44 -297 -129 -415 -159 -44 -11 -125 -25 -180 -31 -55 -6 -191
-27 -303 -46 -112 -19 -207 -34 -212 -34 -4 0 -30 30 -56 67 -26 37 -108 139
-182 227 -164 196 -197 246 -301 453 -97 194 -124 283 -124 408 0 135 8 167
46 186 18 8 40 31 50 51 l17 35 40 -20 c34 -16 39 -23 34 -41z m4221 34 c3
-10 20 -31 38 -45 18 -14 37 -29 43 -34 17 -14 26 -149 14 -232 -15 -110 -42
-186 -129 -364 -92 -187 -127 -236 -289 -407 -123 -130 -163 -180 -201 -255
l-21 -42 -41 14 c-70 25 -156 35 -379 45 -239 10 -295 21 -505 100 -157 59
-236 104 -315 177 -99 92 -135 140 -120 158 12 14 10 75 -3 105 -5 11 4 20 31
31 l39 16 46 -57 c78 -98 208 -187 369 -254 141 -58 231 -76 438 -86 193 -9
258 -23 335 -70 38 -24 45 -25 45 -7 0 7 20 54 44 105 36 72 64 111 137 189
119 127 171 198 226 307 89 176 131 357 120 512 -6 83 -6 83 21 98 38 20 50
19 57 -4z m-2120 -20 c15 -6 79 -24 143 -40 158 -41 216 -70 253 -128 65 -102
12 -182 -120 -182 -64 0 -81 7 -206 85 l-105 66 -42 -29 c-134 -92 -182 -115
-248 -120 -153 -11 -216 89 -124 196 39 46 67 58 259 117 161 49 155 48 190
35z m-2877 -26 c28 -4 52 -9 52 -12 0 -3 -10 -16 -22 -29 -35 -38 -89 -29
-113 18 -20 38 -19 42 8 35 12 -3 46 -9 75 -12z m5782 2 c0 -27 -41 -66 -69
-66 -27 0 -81 33 -81 49 0 4 30 12 68 18 37 5 70 11 75 11 4 1 7 -4 7 -12z
m-5242 -25 c10 -6 12 -29 7 -102 -13 -165 14 -276 116 -488 99 -207 173 -318
312 -471 86 -93 160 -204 233 -348 0 -1 61 13 135 32 84 21 205 42 323 56 222
25 370 61 548 132 185 74 303 158 404 290 34 44 60 29 67 -38 3 -30 17 -75 33
-104 l28 -51 -45 -39 c-175 -155 -425 -271 -678 -315 -96 -16 -368 -35 -525
-35 -55 0 -158 -9 -230 -21 -109 -18 -132 -19 -139 -8 -64 111 -107 166 -248
317 -215 229 -248 268 -325 383 -132 198 -210 418 -228 644 l-7 80 61 18 c34
10 74 30 92 47 35 31 45 35 66 21z m4674 -22 c19 -18 57 -37 92 -47 l59 -16
-7 -96 c-15 -231 -113 -480 -272 -696 -58 -79 -114 -142 -311 -347 -107 -111
-219 -254 -235 -298 -2 -4 -34 1 -73 12 -57 16 -121 22 -337 29 -281 10 -405
21 -525 46 -222 46 -451 157 -605 294 l-57 50 30 56 c19 37 29 71 29 100 0 33
5 46 20 54 17 9 33 -3 122 -93 118 -119 200 -167 398 -235 213 -73 314 -90
550 -93 166 -2 264 -17 333 -49 26 -12 49 -21 51 -19 2 2 13 25 24 51 36 84
93 158 226 297 148 155 211 246 301 434 98 204 110 252 110 434 0 156 0 156
37 162 4 0 22 -13 40 -30z m-2259 -256 c164 -98 216 -151 232 -235 13 -69 -42
-128 -119 -128 -26 0 -58 16 -126 61 -51 33 -98 58 -105 55 -7 -2 -52 -30
-100 -62 -81 -53 -89 -56 -133 -51 -135 15 -135 182 0 277 36 25 227 146 236
149 1 1 53 -29 115 -66z m2505 -21 c-2 -17 -15 -35 -37 -49 -19 -13 -36 -22
-38 -20 -2 2 2 39 9 82 l12 77 29 -32 c19 -21 27 -40 25 -58z m-5162 2 c6 -38
10 -70 9 -72 -2 -2 -17 4 -35 13 -50 26 -59 74 -22 118 25 28 35 15 48 -59z
m5054 -306 c0 -33 -31 -68 -61 -68 -11 0 -19 4 -17 8 2 4 14 34 28 65 22 52
26 57 37 41 7 -10 13 -30 13 -46z m-4961 -3 c13 -31 21 -58 17 -62 -11 -11
-56 16 -67 40 -10 23 2 77 18 77 5 0 19 -25 32 -55z m2544 -27 c77 -50 127
-105 127 -139 0 -19 -54 -69 -75 -69 -7 0 -15 7 -19 15 -8 23 -96 75 -126 75
-26 0 -92 -40 -119 -73 -18 -22 -33 -21 -65 4 -34 27 -34 68 0 109 31 36 162
129 183 129 8 1 50 -22 94 -51z m-17 -210 c35 -38 46 -67 38 -101 -8 -38 -41
-105 -83 -166 l-29 -44 -35 54 c-65 102 -80 139 -74 186 5 49 26 77 77 103 39
20 67 12 106 -32z m-2374 -33 l37 -55 -25 -6 c-26 -7 -71 16 -81 42 -6 15 15
74 26 74 3 -1 23 -25 43 -55z m4668 -2 c0 -30 -34 -63 -64 -63 -38 0 -38 13 1
69 34 48 38 51 50 35 7 -10 13 -28 13 -41z m-4404 -321 c-3 -2 -21 1 -40 8
-45 14 -76 53 -76 94 l1 31 60 -64 c32 -35 57 -66 55 -69z m4194 103 c0 -31
-26 -68 -62 -86 -70 -36 -73 -22 -12 45 57 61 74 70 74 41z m-2310 -140 c0
-35 -20 -74 -42 -81 -25 -8 -90 4 -86 16 3 10 109 88 121 89 4 1 7 -10 7 -24z
m388 -26 c49 -35 52 -38 33 -48 -57 -31 -111 -1 -111 61 0 44 -4 44 78 -13z
m-2068 -146 c33 -43 47 -70 41 -76 -7 -7 -19 -4 -35 6 -47 32 -66 59 -66 99 0
21 2 38 5 38 2 0 27 -30 55 -67z m3726 14 c-6 -34 -33 -65 -73 -86 -32 -17
-38 3 -12 42 68 97 98 113 85 44z m-1318 -42 c2 -2 -8 -11 -22 -20 -22 -15
-31 -15 -55 -6 -25 11 -51 46 -51 70 0 7 116 -33 128 -44z m-1033 15 c-22 -42
-50 -55 -86 -40 -16 7 -29 16 -29 20 0 9 89 48 113 49 16 1 16 -1 2 -29z
m-285 -70 c0 -24 -26 -61 -46 -66 -31 -8 -83 22 -84 48 0 3 24 11 53 16 72 13
77 13 77 2z m1573 -5 c26 -4 47 -11 47 -15 0 -14 -51 -50 -70 -50 -24 0 -57
30 -65 59 -6 21 -5 23 16 18 13 -3 45 -9 72 -12z m-1893 -34 c0 -17 -43 -41
-72 -41 -30 0 -98 29 -98 42 0 4 38 8 85 8 47 0 85 -4 85 -9z m2290 -2 c0 -13
-62 -39 -94 -39 -14 0 -38 11 -53 25 l-28 24 88 1 c54 0 87 -4 87 -11z m-2689
-30 c-30 -28 -39 -31 -78 -26 -45 5 -73 21 -60 33 10 10 75 22 127 23 l45 0
-34 -30z m3050 12 l22 -8 -24 -16 c-31 -23 -77 -21 -116 3 -53 32 -42 44 32
36 35 -4 74 -10 86 -15z"/>
<path d="M3397 6250 c-9 -41 -82 -212 -123 -287 -75 -136 -207 -245 -348 -288
l-82 -25 -13 -53 c-26 -101 -71 -177 -157 -263 -68 -70 -96 -90 -185 -133 -57
-28 -140 -64 -184 -80 -49 -18 -79 -35 -78 -43 1 -7 20 -55 43 -107 74 -168
93 -236 98 -351 5 -127 -11 -202 -67 -305 l-37 -70 37 -70 c56 -104 72 -178
67 -305 -5 -115 -24 -183 -98 -351 -23 -52 -42 -100 -43 -107 -1 -8 29 -25 78
-43 44 -16 127 -52 184 -80 176 -86 299 -229 342 -396 l13 -53 82 -25 c141
-43 273 -152 348 -288 41 -75 114 -246 123 -287 7 -36 11 -37 74 -5 165 84
313 126 439 126 106 0 149 -10 262 -63 l86 -40 54 30 c194 110 405 98 697 -39
46 -21 85 -38 87 -37 1 2 18 45 38 96 68 177 115 260 198 347 83 88 151 131
253 160 33 10 65 21 70 26 6 4 17 32 24 61 24 96 77 181 162 263 66 63 98 84
201 134 68 32 148 67 178 76 71 22 77 28 56 59 -25 39 -102 232 -122 306 -23
88 -23 237 0 315 10 33 34 89 54 126 l35 65 -36 65 c-19 35 -43 91 -53 124
-23 78 -23 227 0 315 20 74 97 267 122 306 21 31 15 37 -56 59 -30 9 -110 44
-178 76 -103 50 -135 71 -201 134 -85 82 -138 167 -162 263 -7 29 -18 57 -24
61 -5 5 -37 16 -70 26 -102 29 -170 72 -253 160 -83 87 -130 170 -198 347 -20
51 -37 94 -38 96 -2 1 -41 -16 -87 -37 -292 -137 -502 -149 -697 -39 l-53 31
-87 -41 c-113 -53 -156 -63 -262 -63 -126 0 -274 42 -439 126 -63 32 -67 31
-74 -5z m94 -56 c208 -101 414 -137 564 -99 33 8 91 31 129 49 l70 34 68 -34
c101 -51 183 -67 303 -61 115 6 206 30 337 87 51 23 97 42 102 43 4 1 16 -20
26 -48 57 -162 146 -311 236 -396 69 -65 124 -98 214 -130 36 -12 70 -27 76
-33 7 -6 21 -41 33 -78 60 -183 210 -318 471 -425 58 -23 104 -44 103 -45 -11
-16 -62 -145 -91 -228 -29 -86 -36 -124 -40 -210 -5 -129 7 -193 57 -297 l38
-79 -34 -67 c-52 -104 -66 -173 -61 -302 4 -93 10 -127 42 -219 20 -61 49
-136 65 -169 25 -51 26 -59 12 -64 -9 -3 -64 -25 -122 -50 -236 -98 -382 -234
-440 -411 -12 -37 -26 -72 -33 -78 -6 -6 -40 -21 -76 -33 -90 -32 -145 -65
-214 -130 -90 -85 -179 -234 -236 -396 -10 -27 -22 -49 -26 -48 -5 1 -51 20
-102 43 -252 110 -461 118 -641 26 l-65 -33 -70 33 c-39 18 -98 40 -131 49
-149 38 -356 2 -564 -99 -30 -14 -55 -26 -56 -26 -1 0 -8 19 -14 43 -22 72
-108 245 -155 311 -81 114 -194 196 -325 236 l-54 17 -26 74 c-48 137 -113
224 -226 304 -69 50 -224 127 -302 152 -30 9 -52 22 -49 27 157 354 174 528
71 741 l-33 70 34 70 c102 210 84 388 -72 741 -3 5 19 18 49 27 78 25 233 102
302 152 113 80 178 167 226 304 l26 74 54 17 c131 40 244 122 325 236 47 66
133 239 155 312 6 23 13 42 14 42 1 0 26 -12 56 -26z"/>
<path d="M4069 5971 c-80 -21 -170 -46 -200 -57 -51 -18 -121 -75 -145 -118
-10 -19 -13 -18 -68 13 -32 19 -61 29 -65 25 -4 -5 -15 -35 -25 -67 l-17 -58
-32 8 c-90 23 -142 5 -365 -129 l-153 -92 -84 -141 c-116 -193 -139 -247 -138
-315 0 -30 2 -63 4 -73 3 -15 -8 -23 -58 -38 -35 -11 -63 -23 -63 -28 0 -4 14
-33 30 -63 l30 -56 -34 -20 c-74 -44 -113 -135 -179 -418 l-24 -102 43 -168
c64 -254 86 -302 161 -346 l33 -20 -30 -56 c-16 -30 -30 -59 -30 -63 0 -5 28
-17 63 -28 50 -15 61 -23 58 -38 -2 -10 -4 -43 -4 -73 -1 -68 22 -122 138
-315 l84 -141 153 -92 c223 -134 275 -152 365 -129 l32 8 17 -58 c10 -32 21
-62 25 -67 4 -4 33 6 65 25 55 31 58 32 68 13 27 -48 93 -100 156 -121 87 -30
340 -93 373 -93 46 0 373 87 425 114 51 26 102 77 102 102 0 19 2 19 71 -17
34 -17 63 -29 65 -26 2 2 12 30 22 63 15 48 22 58 38 56 50 -9 133 -3 169 13
22 9 109 58 194 108 175 104 174 103 294 311 78 135 108 218 99 271 -11 67
-11 68 52 87 33 10 62 20 64 23 2 2 -10 28 -27 58 -35 62 -38 77 -14 77 27 0
90 75 112 135 25 67 101 360 101 390 0 30 -76 323 -101 390 -22 60 -85 135
-112 135 -24 0 -21 15 14 77 17 30 29 56 27 58 -2 3 -31 13 -64 23 -63 19 -63
20 -52 87 9 53 -21 136 -99 271 -121 209 -120 208 -294 311 -85 50 -172 99
-194 108 -36 16 -119 22 -169 13 -16 -2 -23 8 -38 56 -10 33 -20 61 -22 63 -2
3 -31 -9 -65 -26 -69 -36 -71 -36 -71 -17 0 25 -51 76 -102 102 -57 29 -382
114 -431 113 -17 0 -98 -17 -178 -38z m373 -51 c105 -28 207 -60 228 -71 34
-20 81 -82 70 -92 -3 -3 -33 -18 -66 -35 l-61 -31 -29 30 c-39 41 -88 66 -219
109 l-109 37 -101 -32 c-137 -43 -192 -69 -229 -109 l-32 -33 -62 28 c-66 30
-75 46 -46 87 26 37 90 63 279 113 99 26 182 48 183 48 2 1 89 -22 194 -49z
m-84 -134 c139 -48 203 -82 202 -110 -1 -10 -113 -88 -135 -93 -5 -2 -19 12
-30 29 -11 18 -47 46 -82 66 l-63 34 -60 -37 c-32 -20 -70 -50 -83 -66 l-24
-31 -71 48 -72 48 22 24 c13 13 32 29 43 35 27 14 227 86 242 86 7 1 57 -14
111 -33z m-575 -92 c83 -42 177 -93 207 -114 62 -42 140 -122 163 -166 31 -62
30 -69 -14 -99 -43 -28 -43 -28 -69 16 -14 25 -99 66 -215 103 -60 20 -110 35
-111 33 -1 -1 -30 -58 -64 -127 -59 -119 -61 -128 -58 -186 l4 -62 -46 -10
c-52 -13 -62 -5 -82 63 -16 50 -15 196 1 255 26 99 116 370 124 370 4 0 76
-34 160 -76z m1145 -41 c84 -247 87 -259 87 -383 0 -92 -4 -124 -19 -158 -12
-26 -24 -41 -32 -38 -7 3 -29 8 -49 12 -34 6 -35 8 -29 39 7 41 -30 138 -97
247 -26 44 -49 84 -51 90 -5 13 -193 -53 -256 -88 -23 -14 -50 -37 -59 -52 -9
-15 -18 -28 -19 -30 -1 -2 -20 9 -42 23 -37 25 -40 29 -31 53 31 82 99 160
190 218 42 27 347 182 360 183 4 1 25 -52 47 -116z m-1414 14 c16 -12 16 -16
-6 -77 l-23 -65 -47 -1 c-61 -2 -103 -17 -228 -79 l-105 -53 -57 -115 c-60
-120 -83 -193 -73 -236 5 -24 1 -27 -61 -49 -80 -28 -94 -21 -94 47 0 55 27
114 137 296 l78 130 140 83 c77 46 163 94 190 108 55 26 121 31 149 11z m1597
1 c19 -6 108 -55 199 -109 l165 -97 87 -149 c48 -81 96 -168 107 -193 24 -52
27 -108 7 -135 -13 -18 -15 -17 -78 5 l-66 23 -4 69 c-5 58 -14 86 -66 189
l-60 120 -104 54 c-114 59 -203 87 -247 79 -28 -6 -30 -4 -51 62 -22 65 -22
68 -4 81 22 16 70 17 115 1z m-822 -28 c42 -21 91 -73 91 -96 0 -7 -15 -34
-34 -59 -19 -24 -40 -60 -47 -78 -10 -28 -16 -33 -45 -33 -29 0 -35 5 -51 40
-10 23 -33 60 -51 84 -36 47 -34 58 15 103 25 22 73 57 81 58 1 1 20 -8 41
-19z m-828 -180 c-2 -8 -9 -46 -16 -85 -8 -49 -16 -69 -26 -67 -50 12 -179 -9
-198 -32 -19 -23 -41 -130 -35 -171 l5 -40 -81 -16 c-68 -12 -83 -13 -87 -2
-11 30 10 99 62 204 l55 109 93 46 c121 61 155 73 197 71 25 -1 34 -6 31 -17z
m1796 -45 l114 -54 54 -113 c51 -105 75 -184 62 -205 -3 -5 -42 -2 -87 7 l-81
16 -3 75 c-1 41 -9 90 -18 110 -14 32 -23 38 -68 49 -48 12 -109 15 -140 8 -9
-2 -18 21 -30 80 -9 45 -14 85 -11 88 15 15 106 -11 208 -61z m-1386 -34 c109
-37 145 -55 166 -88 17 -25 16 -26 -12 -49 -92 -73 -315 -153 -349 -124 -9 7
-16 27 -16 44 0 36 98 246 115 246 6 0 49 -13 96 -29z m906 -45 c56 -98 77
-164 64 -199 -6 -15 -18 -27 -28 -27 -63 0 -261 80 -337 135 -26 19 -14 58 25
86 33 23 180 77 214 78 15 1 31 -19 62 -73z m-372 -109 c202 -144 198 -142
395 -177 96 -17 186 -37 199 -43 27 -13 36 -40 71 -209 26 -129 70 -240 132
-335 29 -43 71 -109 94 -148 l42 -69 -26 -46 c-14 -25 -56 -91 -93 -147 -81
-124 -118 -217 -154 -388 -34 -164 -45 -190 -81 -198 -343 -73 -390 -89 -538
-187 -56 -36 -121 -78 -147 -93 l-45 -27 -65 38 c-35 21 -91 56 -124 79 -111
75 -242 130 -350 148 -71 11 -210 47 -222 57 -6 5 -24 62 -38 126 -57 255 -81
318 -167 444 -23 35 -59 92 -80 128 l-38 64 32 56 c17 30 53 88 80 128 93 138
115 195 173 454 14 64 32 121 38 126 12 10 151 46 222 57 108 18 239 73 350
148 117 80 187 117 204 107 9 -4 70 -47 136 -93z m-980 23 c8 -7 15 -27 15
-44 1 -17 9 -56 20 -86 l18 -54 -23 -24 c-20 -20 -27 -22 -46 -11 -12 6 -54
17 -93 23 -67 12 -71 14 -80 43 -10 37 -1 113 17 138 25 33 138 43 172 15z
m1807 1 c21 -8 29 -20 38 -64 17 -74 1 -127 -39 -127 -23 0 -76 -13 -148 -35
-17 -6 -23 -3 -23 9 0 9 -7 16 -15 16 -19 0 -19 2 5 78 11 35 20 77 20 93 0
21 6 32 23 39 25 11 99 6 139 -9z m-1854 -260 c24 -10 43 -21 43 -27 0 -5 -3
-27 -7 -49 l-6 -40 -67 0 c-61 0 -77 -5 -189 -59 -67 -33 -122 -62 -122 -66 0
-3 18 -59 39 -123 44 -131 71 -180 110 -204 14 -10 27 -18 29 -19 6 -4 -51
-84 -60 -84 -16 0 -92 42 -131 72 -57 45 -119 139 -212 322 l-84 165 182 60
c100 33 211 64 247 70 80 11 171 4 228 -18z m2047 3 c77 -19 337 -104 348
-114 9 -8 -114 -261 -174 -355 -60 -95 -188 -205 -238 -205 -6 0 -23 18 -37
40 -26 39 -27 41 -8 55 10 8 22 15 26 15 16 0 61 95 98 206 22 65 40 119 40
119 0 1 -55 28 -122 61 -113 54 -129 59 -190 59 -67 0 -68 0 -74 30 -3 17 -8
38 -10 48 -4 13 4 22 33 33 84 35 185 38 308 8z m-2050 -168 c17 -13 18 -16 1
-82 -10 -38 -27 -94 -40 -124 -29 -73 -92 -170 -110 -170 -31 0 -75 70 -106
167 -16 53 -30 100 -30 104 0 10 103 69 170 96 64 26 89 28 115 9z m1940 -42
c50 -25 93 -49 97 -53 8 -7 -40 -170 -65 -218 -17 -32 -52 -63 -72 -63 -17 0
-99 146 -124 217 -33 99 -38 143 -15 160 28 21 77 10 179 -43z m-2537 -119
c31 -64 31 -65 11 -75 -35 -19 -77 -99 -118 -225 l-40 -120 39 -118 c42 -129
78 -199 115 -223 l24 -16 -32 -64 c-34 -69 -48 -77 -89 -44 -39 30 -62 89
-112 285 l-47 180 47 180 c51 197 73 255 112 285 41 33 55 25 90 -45z m3045
41 c41 -38 56 -79 106 -275 l48 -186 -47 -186 c-50 -196 -66 -237 -107 -275
-42 -39 -60 -31 -93 38 l-30 62 34 35 c18 20 42 52 51 71 25 49 85 230 85 255
0 25 -60 206 -85 255 -9 19 -33 51 -51 71 l-34 35 30 62 c33 69 51 77 93 38z
m-2974 -183 c7 -15 26 -44 43 -65 l30 -39 -38 -33 c-22 -19 -52 -58 -68 -88
l-29 -55 32 -56 c18 -31 48 -70 68 -86 l36 -30 -31 -38 c-17 -22 -36 -51 -43
-66 -15 -33 -29 -34 -56 -4 -29 31 -45 67 -83 181 l-33 99 23 71 c40 126 61
176 87 206 31 37 46 38 62 3z m2863 10 c25 -29 53 -91 87 -193 l31 -96 -33
-100 c-48 -139 -83 -204 -111 -204 -7 0 -20 15 -30 33 -11 17 -32 49 -48 70
-17 20 -25 37 -19 37 19 0 80 69 105 118 l24 47 -21 40 c-28 57 -63 99 -91
115 l-25 13 28 36 c15 20 36 51 47 69 21 36 34 40 56 15z m-2697 -197 c24 -19
60 -40 78 -47 28 -10 33 -16 33 -45 0 -29 -4 -35 -33 -45 -19 -6 -54 -26 -79
-45 -24 -19 -53 -34 -63 -34 -20 0 -85 66 -102 104 -8 17 -8 30 1 46 21 40 82
100 101 100 10 0 39 -15 64 -34z m2574 18 c13 -9 36 -37 52 -62 l29 -45 -23
-40 c-24 -43 -71 -87 -92 -87 -7 0 -37 16 -66 36 -30 20 -66 41 -80 46 -22 7
-27 16 -27 42 0 29 5 35 47 54 25 13 60 34 76 47 36 29 53 31 84 9z m-2405
-225 c15 -22 26 -42 24 -43 -2 -1 -15 -9 -29 -19 -39 -24 -66 -73 -110 -204
-21 -64 -39 -120 -39 -123 0 -4 55 -33 122 -66 112 -54 128 -59 189 -59 l66 0
10 -49 10 -48 -35 -15 c-114 -48 -233 -36 -489 48 l-183 60 85 166 c94 183
155 276 212 321 41 32 111 71 129 72 6 0 24 -18 38 -41z m2228 20 c61 -31 143
-113 193 -193 52 -86 181 -343 174 -350 -6 -6 -272 -89 -359 -111 -87 -23
-211 -24 -277 -1 -29 10 -55 21 -57 25 -3 3 0 27 5 51 l10 45 67 0 c61 0 77 5
177 54 61 29 115 58 122 63 22 17 -96 327 -125 328 -4 0 -16 7 -26 15 -19 14
-18 16 8 55 14 22 31 40 37 40 5 0 28 -9 51 -21z m-2135 -166 c45 -70 76 -144
99 -237 17 -67 17 -69 -2 -83 -27 -21 -76 -10 -169 36 -130 65 -123 51 -86
169 32 102 75 172 107 172 8 0 31 -26 51 -57z m2031 41 c29 -20 54 -71 82
-163 12 -40 24 -79 26 -86 6 -14 -139 -96 -204 -116 -33 -9 -48 -10 -68 0 -24
11 -26 15 -21 55 4 24 16 73 28 108 25 72 107 218 124 218 6 0 21 -7 33 -16z
m-2385 -529 c54 -18 57 -21 52 -45 -10 -44 13 -116 73 -237 l57 -115 105 -53
c125 -62 167 -77 228 -79 l47 -1 23 -65 c22 -61 22 -65 6 -77 -28 -20 -88 -15
-146 11 -29 14 -116 62 -193 108 l-140 83 -78 130 c-109 181 -137 241 -137
296 0 44 15 72 35 67 5 -2 36 -12 68 -23z m2757 6 c29 -55 10 -105 -118 -324
l-87 -149 -165 -97 c-91 -54 -180 -103 -199 -109 -45 -16 -93 -15 -115 1 -18
13 -18 16 3 79 l22 65 52 1 c64 1 109 17 233 81 l96 50 61 120 c51 103 60 131
65 189 l4 69 57 21 c71 26 78 26 91 3z m-2223 -55 c22 -23 22 -26 8 -60 -8
-19 -19 -59 -23 -88 -6 -44 -12 -55 -35 -66 -36 -18 -122 -7 -147 18 -23 23
-36 101 -23 143 8 29 14 33 59 39 28 4 68 14 90 21 21 8 41 15 44 16 3 0 15
-10 27 -23z m1698 -2 c27 -8 62 -14 77 -14 23 0 29 -6 39 -40 10 -32 9 -50 -2
-92 -14 -52 -15 -53 -67 -67 -38 -10 -64 -12 -90 -5 -35 9 -37 12 -44 59 -4
28 -14 70 -23 94 -19 54 -19 61 0 61 8 0 15 7 15 16 0 12 6 15 23 9 12 -4 44
-13 72 -21z m-1968 -84 c1 -85 21 -141 59 -160 16 -8 63 -15 109 -17 l79 -2
12 -68 c7 -37 13 -75 15 -83 3 -12 -6 -15 -43 -14 -35 0 -74 13 -162 57 l-115
56 -55 110 c-53 105 -75 174 -63 204 4 11 18 10 84 -2 l80 -16 0 -65z m2299
38 c-4 -24 -31 -94 -61 -156 l-54 -113 -113 -54 c-105 -51 -184 -75 -205 -62
-5 3 -2 42 7 88 l16 83 55 -3 c30 -1 77 3 103 10 41 10 51 17 64 48 9 20 17
70 18 111 l3 74 78 16 c43 9 82 13 87 9 5 -4 6 -27 2 -51z m-1894 7 l34 -6 -4
-62 c-3 -59 -1 -68 58 -187 34 -69 63 -126 64 -127 1 -2 51 13 111 33 116 37
201 78 215 103 26 44 26 44 69 16 44 -30 45 -37 13 -99 -24 -48 -110 -133
-177 -175 -63 -40 -338 -181 -353 -181 -4 0 -18 30 -29 68 -12 37 -38 118 -58
181 -48 155 -61 246 -46 329 14 78 37 126 56 118 7 -2 29 -8 47 -11z m1403
-22 c23 -47 32 -198 16 -274 -13 -64 -110 -370 -121 -382 -11 -13 -357 166
-421 217 -59 48 -124 133 -134 178 -6 22 -1 30 31 52 47 32 48 32 62 1 17 -38
77 -70 210 -115 68 -23 124 -40 126 -38 1 1 28 57 61 122 55 111 60 125 60
187 l0 67 40 10 c22 5 43 10 46 11 3 0 14 -16 24 -36z m-1204 -34 c74 -23 241
-109 247 -127 2 -7 -11 -27 -30 -45 -25 -25 -59 -42 -136 -66 -57 -18 -105
-31 -106 -29 -2 1 -23 41 -48 88 -59 110 -74 159 -58 189 13 25 17 25 131 -10z
m1049 1 c8 -14 8 -32 0 -62 -12 -42 -97 -208 -107 -208 -3 0 -50 14 -105 30
-97 31 -168 75 -168 105 0 27 281 152 347 154 13 1 27 -8 33 -19z m-541 -267
c7 -18 28 -54 47 -78 19 -25 34 -52 34 -59 0 -23 -49 -75 -91 -97 -37 -18 -40
-19 -67 -2 -36 22 -81 64 -93 85 -7 13 -1 28 23 60 18 24 41 61 51 84 16 35
22 40 51 40 29 0 35 -5 45 -33z m-191 -202 c11 -16 48 -46 82 -66 l60 -37 63
34 c35 20 71 48 82 66 11 17 25 31 30 29 22 -5 134 -83 135 -93 1 -28 -70 -66
-212 -114 l-96 -32 -84 27 c-117 39 -179 68 -206 97 l-22 24 67 46 c38 26 71
47 74 47 3 1 15 -12 27 -28z m-102 -173 c27 -12 94 -36 149 -53 l101 -32 109
37 c131 43 180 68 219 109 l29 30 61 -31 c33 -17 63 -32 66 -35 11 -10 -36
-72 -70 -92 -21 -11 -123 -43 -226 -71 l-189 -49 -185 48 c-193 50 -258 76
-284 113 -29 41 -20 57 46 87 l62 28 32 -33 c17 -19 53 -44 80 -56z"/>
<path d="M3868 4933 c-106 -142 -223 -252 -376 -353 l-23 -15 17 -75 c24 -104
24 -395 1 -499 -9 -41 -16 -75 -14 -76 196 -131 305 -234 408 -387 23 -34 43
-64 44 -66 2 -2 43 5 91 14 146 29 390 24 540 -12 18 -5 32 9 78 76 81 115
178 214 299 304 l104 77 -13 57 c-34 149 -34 376 1 527 7 33 13 60 12 61 -1 0
-31 20 -67 44 -153 102 -260 206 -362 351 -23 32 -47 59 -52 59 -6 0 -47 -7
-91 -16 -49 -10 -132 -17 -215 -17 -120 0 -179 6 -285 28 -29 6 -34 2 -97 -82z
m207 16 c97 -15 283 -13 390 5 49 8 90 14 91 13 1 -1 30 -40 65 -87 90 -123
209 -236 338 -321 23 -15 24 -17 12 -80 -26 -145 -24 -351 5 -514 5 -28 0 -34
-83 -95 -113 -83 -192 -163 -272 -272 -35 -49 -66 -88 -70 -88 -3 0 -44 7 -91
16 -102 19 -284 21 -398 5 -46 -7 -89 -14 -96 -17 -7 -3 -27 17 -46 43 -102
144 -217 260 -351 351 l-46 31 13 68 c29 152 26 391 -6 504 -8 26 -4 31 81 94
111 83 204 176 282 283 53 74 63 82 86 78 14 -3 58 -11 96 -17z"/>
<path d="M4204 4834 c-44 -44 -81 -122 -90 -186 l-6 -47 -52 34 c-86 57 -223
80 -248 41 -23 -35 3 -153 52 -229 16 -26 30 -49 30 -51 0 -1 -26 -9 -57 -16
-32 -7 -75 -21 -95 -31 -45 -23 -108 -84 -108 -104 0 -20 63 -81 108 -104 20
-10 63 -24 95 -31 31 -7 57 -15 57 -16 0 -2 -14 -25 -30 -51 -49 -76 -75 -194
-52 -229 25 -39 162 -16 248 41 l52 34 6 -47 c3 -26 17 -70 30 -98 25 -53 87
-124 109 -124 19 0 82 68 106 115 11 22 26 65 32 97 l11 57 32 -23 c70 -53
168 -82 233 -70 l33 6 0 63 c0 73 -17 128 -60 190 -28 41 -29 45 -12 45 54 0
152 42 201 86 28 25 51 52 51 59 0 7 -23 34 -51 59 -49 44 -147 86 -201 86
-17 0 -16 4 12 45 43 62 60 117 60 190 l0 63 -33 6 c-65 12 -163 -17 -233 -70
l-32 -23 -11 57 c-6 32 -21 75 -32 97 -24 47 -87 115 -106 115 -7 0 -29 -16
-49 -36z m78 -51 c52 -56 63 -90 63 -198 0 -96 -2 -104 -41 -190 -23 -49 -45
-90 -50 -92 -13 -4 -82 156 -94 218 -12 60 -5 134 17 188 17 40 60 101 72 101
4 0 19 -12 33 -27z m-285 -167 c51 -25 113 -86 151 -147 22 -37 72 -161 72
-180 0 -36 -207 60 -274 127 -59 59 -86 112 -93 182 l-6 55 51 -6 c28 -3 72
-17 99 -31z m655 -20 c-6 -130 -153 -266 -336 -312 -29 -7 -29 -6 -22 27 9 47
69 171 103 214 57 72 160 127 228 122 29 -2 30 -3 27 -51z m-617 -272 c62 -17
158 -65 159 -79 1 -5 -24 -22 -54 -37 -158 -79 -315 -80 -417 -2 -41 31 -41
47 0 78 80 61 189 75 312 40z m701 -12 c21 -11 49 -31 61 -44 l23 -24 -28 -26
c-99 -93 -264 -93 -446 -1 -46 23 -49 26 -32 39 37 27 168 75 224 82 73 10
148 0 198 -26z m-516 -112 c0 -18 -50 -143 -72 -179 -62 -101 -155 -167 -250
-178 l-51 -6 6 55 c12 123 94 214 254 284 80 34 113 42 113 24z m198 -32 c130
-54 229 -169 234 -274 l3 -49 -48 2 c-104 3 -205 86 -269 218 -21 44 -41 95
-44 114 -7 33 -7 34 22 27 16 -4 62 -21 102 -38z m-102 -93 c25 -61 29 -82 29
-170 0 -109 -15 -154 -69 -204 -25 -24 -26 -24 -46 -6 -11 10 -32 43 -47 74
-48 102 -35 226 39 375 l30 59 17 -29 c10 -16 31 -60 47 -99z"/>
</g>
</svg>
