<?xml version="1.0" encoding="UTF-8" standalone="no"?>
<svg
   xmlns:dc="http://purl.org/dc/elements/1.1/"
   xmlns:cc="http://creativecommons.org/ns#"
   xmlns:rdf="http://www.w3.org/1999/02/22-rdf-syntax-ns#"
   xmlns:svg="http://www.w3.org/2000/svg"
   xmlns="http://www.w3.org/2000/svg"
   xmlns:sodipodi="http://sodipodi.sourceforge.net/DTD/sodipodi-0.dtd"
   xmlns:inkscape="http://www.inkscape.org/namespaces/inkscape"
   version="1.0"
   width="850.000000pt"
   height="850.000000pt"
   viewBox="0 0 850.000000 850.000000"
   preserveAspectRatio="xMidYMid meet"
   id="svg2"
   inkscape:version="0.91 r13725"
   sodipodi:docname="Mandala518_069.svg">
  <defs
     id="defs190" />
  <sodipodi:namedview
     pagecolor="#ffffff"
     bordercolor="#666666"
     borderopacity="1"
     objecttolerance="10"
     gridtolerance="10"
     guidetolerance="10"
     inkscape:pageopacity="0"
     inkscape:pageshadow="2"
     inkscape:window-width="1920"
     inkscape:window-height="980"
     id="namedview188"
     showgrid="false"
     inkscape:zoom="0.62824358"
     inkscape:cx="778.87497"
     inkscape:cy="531.5434"
     inkscape:window-x="0"
     inkscape:window-y="1"
     inkscape:window-maximized="1"
     inkscape:current-layer="svg2" />
  <metadata
     id="metadata4">
Created by potrace 1.14, written by Peter Selinger 2001-2017
<rdf:RDF>
  <cc:Work
     rdf:about="">
    <dc:format>image/svg+xml</dc:format>
    <dc:type
       rdf:resource="http://purl.org/dc/dcmitype/StillImage" />
  </cc:Work>
</rdf:RDF>
</metadata>
  <g
     transform="translate(0.000000,850.000000) scale(0.100000,-0.100000)"
     fill="#000000"
     stroke="none"
     id="g6">
    <path
       d="M0 4250 l0 -4250 4250 0 4250 0 0 4250 0 4250 -4250 0 -4250 0 0 -4250z m3968 4033 c11 -16 31 -51 45 -79 69 -138 81 -212 51 -327 -19 -73 -33 -102 -68 -140 l-26 -28 35 -41 c111 -130 104 -348 -15 -469 -25 -25 -53 -51 -63 -56 -18 -9 -17 -12 7 -48 76 -112 81 -310 11 -417 -47 -71 -162 -114 -245 -91 l-35 10 -2 -67 c-3 -83 -32 -163 -79 -219 -71 -82 -158 -97 -276 -47 -15 7 -16 4 -4 -41 17 -63 37 -101 104 -198 110 -158 141 -208 147 -237 4 -17 12 -27 18 -25 252 107 412 140 677 140 239 0 413 -32 615 -112 l70 -28 26 57 c15 32 56 97 92 146 85 117 123 182 141 245 9 29 14 54 13 56 -2 2 -21 -4 -43 -13 -21 -9 -65 -17 -97 -17 -48 0 -65 5 -100 29 -44 31 -101 115 -117 174 -5 19 -10 63 -10 96 l0 61 -44 -10 c-100 -23 -201 23 -252 115 -28 50 -29 59 -29 173 0 104 3 127 24 172 12 28 32 59 42 69 19 17 18 18 -18 38 -81 46 -145 171 -145 286 0 78 28 160 79 226 l35 46 -25 27 c-13 14 -31 37 -40 51 -23 38 -50 175 -45 228 8 78 115 298 141 289 6 -2 14 -16 19 -32 19 -71 119 -135 280 -179 219 -60 436 -145 582 -231 177 -103 312 -283 383 -512 26 -84 27 -98 27 -293 0 -225 -14 -341 -65 -535 -88 -340 -189 -531 -457 -863 l-76 -93 30 -25 c75 -63 72 -63 113 -13 20 24 90 106 156 182 229 264 277 322 351 419 86 114 175 262 221 367 l32 75 -24 27 c-82 98 -69 259 31 368 60 67 104 86 204 86 76 0 91 -3 138 -29 29 -17 67 -46 84 -65 30 -34 32 -34 42 -16 23 42 124 131 181 162 81 42 222 83 318 90 l78 6 -6 -44 c-26 -185 -61 -294 -132 -401 -38 -58 -102 -119 -137 -131 -5 -2 8 -20 30 -39 82 -75 116 -208 79 -317 -32 -98 -140 -178 -254 -188 -82 -8 -123 2 -175 42 l-44 34 -119 -59 c-197 -97 -359 -214 -643 -465 -63 -56 -160 -139 -215 -185 -55 -46 -101 -87 -103 -90 -3 -8 65 -93 77 -98 4 -1 61 41 127 93 292 235 504 347 814 429 206 54 467 83 645 72 232 -14 453 -112 600 -267 77 -81 93 -104 154 -223 66 -129 122 -275 176 -463 25 -84 54 -173 66 -196 28 -57 85 -114 126 -128 19 -6 32 -16 30 -22 -5 -18 -100 -72 -186 -108 -69 -29 -82 -31 -151 -26 -103 8 -174 31 -220 74 l-40 35 -41 -36 c-131 -112 -350 -106 -469 14 -25 25 -49 53 -55 63 -9 16 -12 16 -46 -7 -83 -57 -239 -76 -350 -43 -127 38 -199 181 -152 303 5 14 2 16 -19 11 -13 -4 -53 -2 -88 4 -131 21 -227 93 -250 188 -9 39 -8 56 9 110 l20 63 -42 -6 c-52 -9 -140 -57 -249 -138 -85 -63 -180 -118 -203 -118 -9 0 -3 -27 21 -87 151 -383 150 -835 0 -1208 l-34 -84 36 -12 c37 -11 73 -34 227 -141 96 -67 149 -94 205 -107 37 -8 41 -7 34 7 -24 57 -34 123 -24 160 29 108 141 184 283 191 60 2 77 6 73 16 -46 122 28 263 158 300 115 34 292 7 359 -53 18 -16 20 -16 36 8 53 79 139 133 241 149 99 16 223 -21 292 -86 l27 -26 41 35 c46 40 130 68 225 75 50 4 73 0 140 -26 87 -33 186 -89 192 -108 2 -6 -15 -20 -39 -31 -84 -37 -121 -101 -187 -332 -84 -289 -187 -512 -300 -648 -84 -101 -258 -206 -427 -259 -85 -26 -98 -27 -294 -27 -281 1 -477 35 -750 129 -186 65 -406 197 -630 379 -57 48 -107 86 -110 86 -8 -1 -75 -89 -75 -100 0 -5 32 -36 71 -67 39 -32 150 -128 248 -212 315 -275 501 -407 688 -487 l78 -33 26 24 c96 89 277 65 383 -51 101 -110 97 -276 -11 -388 -43 -44 -46 -51 -31 -60 10 -5 41 -32 70 -58 60 -58 111 -150 147 -268 27 -87 49 -230 37 -241 -9 -10 -148 9 -231 32 -109 30 -220 91 -277 152 -27 29 -54 60 -59 70 -9 15 -16 12 -61 -32 -65 -62 -129 -85 -222 -79 -37 3 -83 13 -103 22 -156 74 -219 315 -112 431 l24 26 -31 72 c-84 190 -213 378 -446 644 -77 87 -179 205 -228 263 -49 58 -92 105 -97 105 -9 0 -97 -67 -98 -75 0 -3 45 -61 100 -130 108 -133 213 -289 279 -412 78 -143 164 -422 196 -634 22 -146 30 -393 16 -492 -30 -207 -155 -440 -296 -553 -127 -102 -348 -205 -600 -279 -265 -78 -335 -116 -369 -201 -9 -22 -22 -39 -29 -36 -18 6 -74 104 -107 189 -34 87 -37 133 -15 226 18 74 38 117 73 154 l26 28 -25 27 c-58 64 -91 151 -91 238 -1 115 57 233 137 284 43 27 44 29 26 45 -60 55 -90 245 -56 362 37 130 178 204 300 158 10 -4 14 13 16 73 7 142 83 254 191 283 37 11 102 0 161 -25 16 -7 17 -4 12 21 -12 55 -75 169 -149 273 -42 57 -85 127 -97 156 l-22 53 -67 -29 c-364 -154 -838 -157 -1222 -5 -61 24 -88 30 -88 21 0 -23 -55 -118 -118 -203 -81 -109 -129 -197 -138 -250 l-7 -42 44 16 c103 37 187 13 251 -71 44 -58 69 -135 71 -215 1 -46 5 -59 15 -55 102 39 246 -20 287 -119 52 -123 36 -285 -39 -398 -17 -27 -17 -27 11 -41 91 -48 166 -217 148 -331 -12 -69 -43 -140 -81 -185 l-36 -41 35 -40 c43 -46 66 -117 74 -220 5 -69 3 -82 -26 -151 -36 -86 -90 -181 -108 -186 -6 -2 -16 11 -22 30 -14 41 -71 98 -128 126 -23 12 -111 41 -195 65 -562 163 -798 344 -912 702 -47 147 -55 259 -36 489 17 196 55 371 122 570 70 206 203 427 400 663 38 45 68 86 66 91 -5 14 -90 82 -99 79 -4 -2 -29 -30 -56 -64 -26 -33 -120 -142 -207 -243 -286 -327 -375 -449 -476 -654 l-59 -119 34 -44 c40 -52 50 -93 42 -174 -10 -113 -91 -223 -188 -255 -109 -37 -242 -3 -317 79 -19 22 -37 35 -39 30 -12 -35 -73 -99 -131 -137 -107 -71 -216 -106 -401 -132 l-44 -6 6 78 c7 96 48 237 90 318 31 57 120 158 162 181 18 10 18 12 -16 42 -19 17 -48 55 -65 84 -26 47 -29 62 -29 138 0 100 19 144 86 204 53 49 117 77 189 83 68 6 121 -8 171 -47 l36 -29 74 33 c104 45 252 134 367 220 91 69 136 107 437 367 66 57 140 120 165 140 49 41 49 38 -14 113 l-24 29 -123 -98 c-303 -244 -512 -352 -849 -439 -180 -46 -300 -60 -520 -60 -195 0 -209 1 -293 27 -208 64 -376 180 -479 330 -88 129 -199 394 -264 635 -44 161 -108 261 -179 280 -16 5 -30 13 -32 19 -9 26 211 133 289 141 53 5 190 -22 228 -45 14 -9 37 -27 51 -40 l27 -25 46 35 c66 51 148 79 226 79 111 0 237 -62 282 -138 22 -37 30 -41 47 -20 6 8 35 24 64 37 45 21 68 24 172 24 114 0 123 -1 173 -29 92 -51 138 -152 115 -252 l-10 -44 62 0 c118 0 236 -61 279 -145 25 -48 26 -123 2 -179 -9 -22 -15 -41 -13 -43 2 -1 27 4 56 13 60 17 150 70 255 149 40 30 99 67 133 82 l60 28 -28 70 c-80 202 -112 376 -112 615 0 265 33 429 139 676 3 6 -13 16 -34 22 -21 7 -97 53 -168 103 -148 104 -205 136 -263 145 l-41 7 16 -39 c27 -62 23 -145 -10 -194 -53 -81 -152 -130 -270 -133 -61 -2 -65 -3 -58 -22 4 -11 7 -47 7 -81 -1 -73 -36 -141 -93 -179 -107 -70 -305 -65 -417 11 -36 24 -39 25 -48 7 -5 -10 -31 -38 -56 -63 -121 -119 -339 -126 -469 -15 l-41 35 -28 -26 c-38 -35 -67 -49 -140 -68 -115 -30 -189 -18 -327 51 -59 29 -106 61 -106 71 0 4 23 18 50 30 65 30 109 95 145 212 113 371 197 575 289 705 128 178 364 314 602 346 238 32 647 -28 940 -136 178 -66 372 -185 589 -359 66 -53 122 -96 125 -96 3 0 24 22 47 48 l41 49 -96 80 c-53 44 -160 136 -237 203 -288 254 -442 365 -639 461 l-118 57 -44 -33 c-51 -40 -93 -50 -173 -42 -99 9 -198 75 -243 162 -53 101 -26 247 59 333 42 41 44 46 27 55 -46 26 -125 114 -157 175 -45 86 -86 225 -94 321 l-6 74 74 -6 c98 -8 238 -49 322 -95 64 -34 148 -110 175 -157 11 -19 12 -18 40 15 17 20 54 49 83 65 48 27 63 30 139 30 68 0 93 -5 125 -22 88 -47 154 -146 162 -244 8 -80 -3 -122 -42 -173 l-34 -45 64 -128 c102 -205 193 -330 480 -658 77 -88 165 -190 195 -227 30 -37 60 -68 65 -67 6 0 30 17 54 39 33 29 42 42 34 52 -5 7 -47 59 -92 116 -170 212 -291 411 -356 586 -108 293 -168 702 -136 940 23 173 114 371 225 493 142 155 338 249 826 398 113 34 183 83 213 146 12 27 25 49 29 49 4 0 15 -12 26 -27z m-1620 -565 c129 -86 129 -280 0 -365 -56 -38 -157 -44 -214 -15 -162 84 -166 305 -5 392 55 30 164 24 219 -12z m4020 13 c78 -40 122 -111 122 -196 0 -86 -59 -176 -133 -204 -83 -32 -204 0 -254 66 -85 111 -49 267 76 333 49 26 140 26 189 1z m-2080 -207 c60 -72 68 -179 26 -345 -47 -185 -31 -240 164 -558 70 -114 95 -182 95 -261 1 -55 -4 -74 -33 -128 -36 -69 -90 -120 -161 -151 -66 -31 -197 -29 -264 3 -64 30 -131 97 -161 161 -44 93 -25 224 50 347 18 29 63 102 99 162 110 178 125 259 82 437 -40 169 -29 273 38 347 11 12 24 22 28 22 4 0 21 -16 37 -36z m-3240 -1050 c47 -19 88 -58 114 -108 29 -57 23 -158 -15 -214 -85 -129 -273 -130 -362 -1 -40 56 -47 156 -17 215 54 105 175 152 280 108z m6570 0 c123 -51 174 -201 106 -311 -86 -139 -277 -146 -369 -13 -35 51 -46 145 -23 200 48 114 177 170 286 124z m-5363 -1928 c63 -30 127 -94 160 -159 36 -72 36 -198 1 -274 -45 -96 -142 -171 -243 -188 -82 -13 -198 30 -363 137 -153 99 -271 148 -360 148 -19 0 -80 -11 -134 -25 -163 -41 -272 -32 -344 31 l-37 32 20 22 c64 71 182 86 348 46 122 -29 170 -32 242 -12 77 20 134 48 252 124 59 38 124 77 143 87 117 61 230 72 315 31z m4265 -13 c36 -16 119 -64 185 -105 228 -143 295 -159 489 -113 130 31 215 32 276 4 49 -22 90 -56 90 -74 0 -17 -66 -60 -114 -75 -51 -16 -179 -8 -276 19 -91 25 -133 26 -213 5 -77 -20 -111 -37 -278 -140 -156 -96 -229 -126 -314 -127 -106 -1 -209 63 -272 171 -26 43 -28 56 -28 147 0 86 3 107 24 147 31 60 95 123 157 154 71 36 183 30 274 -13z m-5472 -2104 c80 -30 132 -110 132 -202 0 -69 -12 -103 -53 -145 -48 -50 -97 -72 -162 -72 -122 0 -215 93 -215 215 0 155 151 258 298 204z m6589 -11 c52 -24 98 -84 113 -148 31 -130 -77 -260 -215 -260 -123 0 -215 94 -215 220 0 64 26 117 81 164 67 57 148 66 236 24z m-3234 -11 c90 -53 155 -142 172 -238 14 -77 -32 -197 -140 -364 -73 -114 -110 -189 -129 -262 -21 -82 -20 -114 9 -235 39 -160 31 -260 -26 -338 -27 -36 -39 -37 -67 -8 -66 71 -77 174 -37 344 46 194 30 261 -113 489 -110 175 -135 233 -140 325 -4 67 -1 83 22 133 32 67 117 148 178 171 30 11 70 15 133 13 78 -2 98 -7 138 -30z m-2054 -1262 c134 -92 128 -283 -12 -369 -141 -87 -327 21 -327 189 0 82 46 156 123 195 62 31 159 25 216 -15z m4009 19 c82 -34 132 -110 132 -199 0 -68 -23 -118 -78 -167 -152 -137 -394 10 -351 213 12 55 64 120 118 149 45 24 128 26 179 4z"
       id="path8"
       style="fill:none" />
    <path
       d="M3930 8122 c-67 -52 -165 -90 -378 -147 -335 -88 -595 -239 -704 -408 -86 -134 -128 -312 -128 -543 0 -389 111 -767 317 -1079 79 -119 241 -335 251 -335 6 0 197 109 220 126 8 5 -70 133 -138 229 -102 143 -144 232 -148 314 -3 54 0 71 15 90 l19 24 51 -46 c86 -76 170 -72 231 12 56 77 62 203 16 333 -8 22 -12 43 -9 46 3 3 46 -14 95 -38 102 -48 144 -50 201 -10 95 68 91 276 -7 371 -20 18 -44 46 -55 61 l-19 27 86 71 c121 102 144 136 144 217 0 97 -34 151 -137 218 -49 32 -51 38 -21 59 54 38 113 105 136 154 21 46 23 64 20 130 -2 42 -11 92 -19 110 l-14 34 -25 -20z m-299 -378 c38 -9 67 -19 64 -23 -2 -4 -66 -11 -142 -14 -194 -9 -273 -27 -446 -104 -81 -36 -150 -63 -153 -60 -3 2 17 20 43 40 200 145 438 206 634 161z m-414 -365 c52 -6 134 -22 182 -35 102 -30 266 -100 283 -122 11 -13 10 -15 -2 -10 -184 76 -293 106 -505 138 -82 13 -154 27 -159 31 -14 12 85 11 201 -2z m-236 -150 c146 -56 311 -170 428 -294 77 -83 79 -104 3 -33 -122 112 -295 227 -469 310 -57 27 -103 52 -103 55 0 8 63 -8 141 -38z m-10 -281 c85 -124 159 -317 159 -412 0 -45 -13 -22 -50 89 -56 169 -117 302 -187 405 l-17 25 28 -25 c16 -14 46 -51 67 -82z"
       id="path10"
       style="fill:#ffcc00" />
    <path
       d="M4526 8086 c-21 -70 -20 -140 0 -202 13 -37 35 -66 93 -123 l76 -73 -23 -17 c-134 -95 -162 -137 -162 -238 0 -56 3 -65 38 -110 21 -26 73 -75 115 -108 43 -33 77 -64 77 -69 0 -5 -24 -34 -53 -65 -146 -153 -121 -396 43 -418 32 -5 56 2 130 37 49 24 93 41 96 37 4 -3 -1 -25 -11 -49 -11 -26 -20 -81 -23 -139 -4 -88 -2 -102 20 -151 38 -82 104 -120 176 -99 18 5 54 28 80 51 l47 42 17 -22 c26 -32 24 -127 -3 -193 -12 -29 -56 -103 -98 -165 -81 -120 -170 -263 -171 -273 0 -4 13 -12 28 -18 16 -7 66 -36 112 -65 l84 -54 78 101 c98 128 219 308 268 401 234 438 294 1051 136 1381 -75 158 -176 253 -371 350 -139 69 -241 106 -429 156 -155 42 -257 82 -312 124 -18 14 -35 25 -38 25 -2 0 -12 -24 -20 -54z m706 -366 c124 -41 332 -159 314 -177 -3 -3 -65 22 -138 55 -73 33 -161 67 -194 76 -75 19 -223 36 -326 36 -84 0 -102 13 -40 29 20 5 46 12 57 15 11 3 67 4 125 2 86 -3 123 -9 202 -36z m253 -339 c-6 -4 -77 -18 -160 -31 -179 -27 -299 -57 -419 -104 -95 -38 -118 -41 -64 -9 108 63 300 127 429 142 101 11 225 13 214 2z m175 -116 c0 -2 -38 -22 -84 -44 -174 -81 -362 -205 -488 -320 -32 -29 -58 -49 -58 -43 0 21 128 146 218 215 100 75 222 141 327 176 60 20 85 25 85 16z m-46 -227 c-4 -7 -23 -37 -42 -67 -47 -74 -101 -199 -148 -340 -21 -66 -43 -120 -47 -121 -12 0 1 93 25 175 32 109 116 261 186 338 27 29 38 35 26 15z"
       id="path12"
       style="fill:#ffcc00" />
    <path
       d="M1380 7111 c0 -5 9 -52 20 -105 47 -230 152 -338 340 -353 44 -3 80 -9 80 -13 0 -4 -38 -22 -84 -39 -155 -58 -206 -118 -206 -241 0 -127 76 -196 215 -194 46 0 81 6 103 18 37 19 57 17 162 -16 162 -51 406 -195 610 -359 58 -46 180 -157 271 -246 l165 -162 22 21 21 22 -162 165 c-89 91 -200 213 -246 271 -243 303 -426 674 -377 768 25 49 30 123 12 183 -29 97 -85 139 -185 139 -124 0 -183 -51 -242 -206 -17 -46 -35 -84 -39 -84 -4 0 -10 36 -13 80 -15 188 -123 293 -353 340 -110 23 -114 23 -114 11z m169 -82 c96 -20 181 -129 181 -231 l0 -31 -49 6 c-105 12 -190 85 -210 178 -7 30 -15 65 -18 78 -5 21 -3 23 18 18 13 -3 49 -11 78 -18z m602 -243 c20 -14 50 -46 67 -73 26 -41 33 -69 52 -198 24 -164 43 -232 96 -337 20 -39 33 -72 31 -75 -3 -2 -36 11 -73 30 -108 54 -178 74 -339 97 -156 23 -169 27 -222 68 -53 39 -76 86 -70 138 9 83 69 117 193 113 l65 -2 2 91 c2 74 6 96 23 119 43 58 115 70 175 29z"
       id="path14"
       style="fill:#9999ff" />
    <path
       d="M1535 6948 c13 -40 43 -75 81 -93 19 -9 38 -14 41 -12 2 3 -3 22 -12 41 -18 38 -53 68 -93 81 -22 6 -23 5 -17 -17z"
       id="path16"
       style="fill:#3366ff" />
    <path
       d="M2061 6711 c-29 -29 -37 -116 -18 -198 8 -37 15 -69 14 -70 -1 -1 -33 6 -70 14 -160 36 -270 -26 -189 -106 24 -24 42 -30 142 -45 123 -19 257 -48 304 -66 25 -9 27 -9 20 7 -17 40 -52 195 -69 308 -16 105 -21 123 -46 147 -32 33 -61 36 -88 9z"
       id="path18"
       style="fill:#3366ff" />
    <path
       d="M6990 7096 c-219 -51 -320 -152 -336 -336 -3 -44 -10 -80 -13 -80 -4 0 -15 24 -26 53 -27 78 -70 159 -97 184 -37 35 -92 53 -158 53 -87 0 -135 -30 -175 -110 -23 -45 -24 -151 -1 -205 21 -50 15 -90 -31 -210 -62 -162 -182 -364 -323 -540 -105 -132 -264 -307 -352 -386 l-79 -72 23 -24 22 -24 141 139 c329 326 616 526 895 626 90 33 136 35 213 11 51 -16 66 -17 115 -7 113 24 162 82 162 191 0 132 -49 187 -227 251 -35 12 -63 26 -63 30 0 4 36 10 80 13 99 8 172 40 228 101 58 63 86 125 114 254 l25 112 -21 -1 c-12 0 -64 -10 -116 -23z m49 -115 c-10 -38 -25 -83 -33 -99 -28 -54 -150 -119 -209 -110 -49 7 -10 142 59 209 24 23 53 37 101 50 107 27 102 30 82 -50z m-538 -197 c35 -31 49 -78 49 -161 l0 -78 67 3 c37 2 84 -1 104 -7 105 -32 120 -158 28 -235 -52 -44 -78 -53 -204 -71 -164 -24 -255 -48 -354 -95 -46 -22 -85 -39 -87 -37 -2 2 12 32 31 68 45 85 79 206 100 359 21 152 49 213 120 261 37 25 114 21 146 -7z"
       id="path20"
       style="fill:#9999ff" />
    <path
       d="M6920 6951 c-35 -19 -88 -96 -75 -109 20 -21 125 75 125 114 0 18 -8 17 -50 -5z"
       id="path22"
       style="fill:#3366ff" />
    <path
       d="M6357 6710 c-27 -22 -26 -18 -68 -250 -12 -69 -30 -149 -40 -178 -17 -51 -17 -54 -1 -47 43 19 168 47 282 65 139 23 176 34 190 61 50 93 -79 134 -259 83 -21 -6 -23 -5 -17 12 17 42 29 142 22 187 -12 80 -57 108 -109 67z"
       id="path24"
       style="fill:#3366ff" />
    <path
       d="M4073 5839 c-852 -90 -1491 -866 -1415 -1718 21 -236 60 -379 158 -576 230 -464 645 -776 1159 -873 139 -26 446 -22 585 7 375 78 702 275 933 561 178 221 288 465 338 750 20 110 18 422 -3 535 -48 256 -146 482 -301 692 -69 93 -236 256 -335 326 -331 237 -715 338 -1119 296z m426 -294 c777 -151 1251 -952 1006 -1702 -69 -209 -164 -363 -325 -523 -160 -161 -314 -256 -523 -325 -750 -245 -1552 229 -1702 1006 -44 229 -25 463 57 702 100 292 362 584 657 731 112 56 281 107 416 125 95 13 312 6 414 -14z"
       id="path26"
       style="fill:#6699ff" />
    <path
       d="M4105 5504 c-58 -9 -59 -12 -25 -51 18 -20 48 -70 68 -110 19 -40 36 -73 37 -73 2 0 15 32 30 70 15 39 32 69 37 68 6 -2 21 -33 34 -68 14 -35 26 -66 29 -68 2 -2 20 29 40 69 20 41 49 91 65 111 21 25 26 39 18 44 -13 8 -288 15 -333 8z"
       id="path28"
       style="fill:#666600" />
    <path
       d="M3888 5458 l-67 -21 75 -69 c72 -68 169 -199 180 -245 9 -34 22 -28 46 22 l22 45 -23 67 c-39 112 -115 224 -150 222 -9 -1 -46 -10 -83 -21z"
       id="path30"
       style="fill:#669900" />
    <path
       d="M4485 5444 c-40 -43 -86 -128 -110 -203 -18 -54 -18 -55 6 -98 13 -24 26 -43 29 -43 3 0 16 21 29 48 35 72 104 163 166 220 31 29 61 52 66 52 5 0 9 4 9 9 0 7 -131 51 -154 51 -4 0 -23 -16 -41 -36z"
       id="path32"
       style="fill:#669900" />
    <path
       d="M3684 5375 c-27 -12 -58 -29 -68 -37 -18 -14 -18 -15 10 -22 88 -22 232 -141 303 -250 44 -67 81 -159 81 -201 0 -52 17 -22 23 40 11 112 -17 207 -90 308 -57 80 -114 136 -164 162 l-46 24 -49 -24z"
       id="path34"
       style="fill:#00cc99" />
    <path
       d="M4718 5372 c-100 -53 -226 -234 -247 -357 -7 -44 -6 -79 3 -130 l12 -70 6 53 c15 146 164 339 325 419 90 45 90 44 6 87 l-52 26 -53 -28z"
       id="path36"
       style="fill:#00cc99" />
    <path
       d="M3478 5247 l-26 -24 61 -19 c74 -22 155 -74 221 -140 53 -53 143 -183 152 -220 5 -21 51 -61 60 -52 8 8 -33 155 -57 202 -30 61 -168 204 -231 240 -29 17 -68 29 -100 32 -46 4 -57 2 -80 -19z"
       id="path38"
       style="fill:#66cccc" />
    <path
       d="M4887 5256 c-81 -29 -230 -175 -277 -271 -26 -54 -65 -195 -53 -195 21 0 48 32 85 101 78 148 210 267 344 313 l65 22 -30 22 c-34 25 -78 28 -134 8z"
       id="path40"
       style="fill:#66cccc" />
    <path
       d="M4224 5159 c-90 -141 -119 -239 -119 -399 l0 -115 45 -71 c25 -38 56 -93 70 -122 14 -28 27 -51 31 -52 3 0 15 21 28 48 12 26 44 81 69 122 46 73 47 77 50 168 6 147 -27 268 -111 406 l-35 58 -28 -43z"
       id="path42"
       style="fill:#66ffff" />
    <path
       d="M3358 5140 c-29 -29 -30 -34 -24 -83 11 -81 57 -170 124 -237 52 -52 180 -145 188 -137 2 2 -16 59 -41 127 -24 69 -43 125 -42 127 2 1 58 -18 127 -42 68 -25 126 -43 128 -41 8 8 -83 132 -132 182 -61 61 -128 101 -198 120 -77 20 -96 18 -130 -16z"
       id="path44"
       style="fill:#99cccc" />
    <path
       d="M5008 5155 c-67 -18 -135 -60 -194 -121 -48 -49 -138 -173 -131 -180 2 -2 59 16 127 41 69 24 126 43 127 41 2 -1 -17 -59 -42 -129 -25 -70 -42 -127 -39 -127 13 0 120 77 169 122 65 59 108 125 129 197 24 84 21 115 -15 145 -34 29 -60 31 -131 11z"
       id="path46"
       style="fill:#99cccc" />
    <path
       d="M3251 5018 c-20 -25 -23 -36 -18 -80 4 -27 18 -71 33 -97 38 -65 177 -197 244 -231 50 -25 189 -64 198 -55 9 8 -31 54 -52 59 -37 9 -167 99 -219 150 -67 68 -108 130 -137 212 l-25 70 -24 -28z"
       id="path48"
       style="fill:#66cccc" />
    <path
       d="M5216 5019 c-9 -52 -59 -148 -106 -207 -51 -63 -145 -137 -234 -183 -56 -29 -95 -64 -84 -75 10 -9 177 39 217 63 72 42 206 181 235 243 33 70 33 125 2 164 l-23 28 -7 -33z"
       id="path50"
       style="fill:#66cccc" />
    <path
       d="M3162 4887 c-5 -7 -21 -36 -36 -64 l-26 -53 21 -45 c23 -50 97 -122 183 -179 68 -45 111 -64 176 -76 51 -10 180 -2 180 10 0 4 -21 10 -47 14 -139 19 -324 168 -401 323 -28 58 -43 79 -50 70z"
       id="path52"
       style="fill:#00cc99" />
    <path
       d="M5312 4862 c-45 -151 -279 -353 -426 -369 -25 -3 -46 -9 -46 -13 0 -13 130 -19 187 -9 68 13 116 36 198 94 79 56 140 121 160 167 15 37 14 39 -17 103 -18 36 -35 65 -39 65 -3 0 -11 -17 -17 -38z"
       id="path54"
       style="fill:#00cc99" />
    <path
       d="M3710 4780 c0 -22 53 -148 81 -191 62 -97 208 -204 371 -272 l36 -15 -15 36 c-68 163 -175 309 -272 371 -43 28 -169 81 -191 81 -6 0 -10 -4 -10 -10z"
       id="path56"
       style="fill:#66ccff" />
    <path
       d="M4482 4765 c0 -16 2 -22 5 -12 2 9 2 23 0 30 -3 6 -5 -1 -5 -18z"
       id="path58" />
    <path
       d="M4703 4764 c-123 -47 -202 -114 -288 -245 -42 -64 -121 -219 -111 -219 15 0 154 72 210 109 142 93 211 175 256 307 30 87 31 86 -67 48z"
       id="path60"
       style="fill:#66ccff" />
    <path
       d="M4010 4761 c0 -11 4 -22 9 -25 4 -3 6 6 3 19 -5 30 -12 33 -12 6z"
       id="path62" />
    <path
       d="M3040 4599 l-23 -80 24 -25 c35 -37 124 -88 202 -114 l67 -24 45 22 c50 24 56 37 23 46 -47 11 -178 108 -246 180 l-69 75 -23 -80z"
       id="path64"
       style="fill:#669900" />
    <path
       d="M5398 4634 c-52 -71 -119 -123 -286 -221 -9 -6 1 -16 32 -33 l45 -24 68 23 c111 38 224 113 222 150 0 9 -10 47 -22 85 l-22 70 -37 -50z"
       id="path66"
       style="fill:#669900" />
    <path
       d="M3728 4483 c6 -2 18 -2 25 0 6 3 1 5 -13 5 -14 0 -19 -2 -12 -5z"
       id="path68" />
    <path
       d="M4753 4483 c9 -2 23 -2 30 0 6 3 -1 5 -18 5 -16 0 -22 -2 -12 -5z"
       id="path70" />
    <path
       d="M3003 4433 c-10 -24 -10 -342 0 -366 7 -17 9 -17 39 8 17 14 66 44 110 66 43 21 78 41 78 43 0 2 -34 16 -75 31 -41 15 -72 31 -70 35 3 5 37 20 75 35 39 15 70 28 70 30 0 1 -33 18 -73 37 -40 20 -90 50 -110 68 -34 29 -38 30 -44 13z"
       id="path72"
       style="fill:#666600" />
    <path
       d="M5460 4425 c-14 -14 -60 -44 -104 -66 -44 -22 -82 -41 -83 -43 -2 -2 30 -16 72 -32 41 -16 75 -31 75 -35 0 -3 -35 -19 -77 -36 l-77 -30 77 -37 c43 -20 93 -51 113 -68 19 -17 37 -28 39 -26 20 19 15 398 -4 398 -4 0 -18 -11 -31 -25z"
       id="path74"
       style="fill:#666600" />
    <path
       d="M3595 4385 c-66 -15 -153 -47 -188 -69 -12 -8 -42 -26 -66 -41 l-43 -27 58 -35 c138 -84 259 -117 406 -111 91 3 95 4 168 50 41 25 96 57 123 69 26 13 47 25 46 28 0 4 -30 21 -67 40 -37 18 -91 50 -121 69 -51 34 -57 36 -155 38 -61 2 -125 -2 -161 -11z"
       id="path76"
       style="fill:#66ffff" />
    <path
       d="M4662 4393 c-13 -2 -54 -24 -90 -48 -37 -23 -91 -55 -121 -70 l-54 -27 79 -42 c43 -23 99 -55 123 -71 44 -29 47 -30 170 -30 103 0 139 4 196 22 66 21 235 109 235 122 0 14 -151 92 -225 117 -62 20 -103 27 -185 30 -58 1 -116 0 -128 -3z"
       id="path78"
       style="fill:#66ffff" />
    <path
       d="M4130 4168 c-127 -57 -257 -152 -319 -232 -39 -50 -110 -211 -98 -222 7 -8 99 22 158 52 103 51 222 194 297 358 18 38 31 70 30 71 -2 1 -32 -11 -68 -27z"
       id="path80"
       style="fill:#66ccff" />
    <path
       d="M4336 4122 c68 -149 163 -272 256 -332 58 -38 184 -87 195 -77 10 11 -39 137 -77 195 -60 93 -183 188 -332 256 l-77 35 35 -77z"
       id="path82"
       style="fill:#66ccff" />
    <path
       d="M3244 4121 c-94 -34 -205 -104 -218 -138 -8 -19 33 -163 45 -163 5 0 9 4 9 9 0 5 23 35 52 66 57 62 148 131 221 166 26 13 47 25 47 28 0 9 -78 51 -92 50 -7 0 -36 -9 -64 -18z"
       id="path84"
       style="fill:#669900" />
    <path
       d="M5143 4117 c-24 -11 -43 -23 -43 -26 0 -4 24 -17 52 -31 76 -37 155 -98 224 -173 l62 -68 21 70 c12 38 21 76 21 84 0 34 -118 110 -229 148 -64 23 -56 23 -108 -4z"
       id="path86"
       style="fill:#669900" />
    <path
       d="M4225 4049 c-15 -30 -48 -85 -74 -124 l-46 -70 1 -125 c0 -109 3 -135 27 -203 26 -74 105 -227 118 -227 13 0 101 169 122 235 18 57 22 93 22 196 0 123 -1 126 -30 170 -16 24 -48 80 -71 123 l-42 79 -27 -54z"
       id="path88"
       style="fill:#66ffff" />
    <path
       d="M3470 4027 c-119 -27 -288 -148 -342 -244 l-29 -52 27 -53 c43 -85 41 -85 87 5 80 160 268 306 418 326 l54 7 -54 7 c-30 5 -66 10 -80 12 -14 2 -51 -2 -81 -8z"
       id="path90"
       style="fill:#00cc99" />
    <path
       d="M4880 4025 c-53 -10 -58 -13 -28 -14 97 -3 248 -88 346 -195 54 -60 106 -143 117 -188 4 -16 10 -28 14 -28 4 0 21 30 39 66 l33 66 -21 44 c-36 74 -180 191 -286 232 -67 26 -137 32 -214 17z"
       id="path92"
       style="fill:#00cc99" />
    <path
       d="M3723 4013 c9 -2 23 -2 30 0 6 3 -1 5 -18 5 -16 0 -22 -2 -12 -5z"
       id="path94" />
    <path
       d="M4753 4013 c9 -2 23 -2 30 0 6 3 -1 5 -18 5 -16 0 -22 -2 -12 -5z"
       id="path96" />
    <path
       d="M3620 3927 c-108 -28 -156 -57 -252 -150 -91 -90 -127 -147 -135 -215 -5 -42 -2 -54 18 -81 l23 -32 22 65 c46 134 169 270 314 345 67 35 111 74 98 86 -2 2 -41 -7 -88 -18z"
       id="path98"
       style="fill:#66cccc" />
    <path
       d="M4790 3943 c0 -12 34 -53 44 -53 24 0 173 -100 225 -151 69 -68 127 -157 150 -232 l18 -59 21 30 c52 72 13 173 -117 301 -95 94 -162 131 -273 154 -38 8 -68 13 -68 10z"
       id="path100"
       style="fill:#66cccc" />
    <path
       d="M3581 3779 c-81 -54 -169 -144 -203 -205 -14 -27 -32 -77 -39 -111 -11 -54 -11 -64 5 -87 27 -42 58 -52 123 -38 86 18 142 50 213 121 56 57 140 167 140 185 0 3 -57 -14 -127 -39 -70 -25 -128 -44 -129 -42 -2 2 17 58 42 126 24 68 43 126 41 128 -2 2 -32 -15 -66 -38z"
       id="path102"
       style="fill:#99cccc" />
    <path
       d="M4895 3694 c25 -70 43 -129 42 -131 -2 -1 -61 17 -130 42 l-127 45 14 -28 c25 -48 106 -150 149 -188 55 -48 152 -93 216 -101 47 -5 54 -3 81 22 21 20 30 38 30 61 0 54 -35 150 -76 205 -41 56 -138 141 -203 177 l-41 23 45 -127z"
       id="path104"
       style="fill:#99cccc" />
    <path
       d="M4012 3735 c0 -16 2 -22 5 -12 2 9 2 23 0 30 -3 6 -5 -1 -5 -18z"
       id="path106" />
    <path
       d="M4482 3735 c0 -16 2 -22 5 -12 2 9 2 23 0 30 -3 6 -5 -1 -5 -18z"
       id="path108" />
    <path
       d="M3925 3698 c-11 -5 -35 -38 -54 -73 -89 -173 -215 -287 -370 -335 l-53 -17 30 -21 c72 -52 175 -13 297 111 100 102 129 149 154 257 11 46 19 85 18 86 -1 1 -11 -3 -22 -8z"
       id="path110"
       style="fill:#66cccc" />
    <path
       d="M4567 3643 c23 -112 60 -179 154 -274 129 -131 234 -171 303 -116 l28 23 -58 16 c-73 21 -170 83 -236 151 -49 51 -148 200 -148 223 0 10 -41 44 -53 44 -3 0 2 -30 10 -67z"
       id="path112"
       style="fill:#66cccc" />
    <path
       d="M4473 3610 c-20 -128 9 -224 106 -351 57 -76 112 -126 158 -145 30 -13 37 -12 98 18 36 18 65 35 65 39 0 4 -12 10 -27 14 -46 11 -129 63 -189 117 -105 96 -179 223 -193 333 l-6 50 -12 -75z"
       id="path114"
       style="fill:#00cc99" />
    <path
       d="M4008 3616 c-17 -149 -219 -382 -370 -428 -21 -6 -38 -14 -38 -17 0 -4 29 -21 65 -39 62 -30 67 -31 100 -18 68 29 178 153 234 264 29 57 42 138 34 218 -7 74 -18 83 -25 20z"
       id="path116"
       style="fill:#00cc99" />
    <path
       d="M4061 3343 c-49 -91 -128 -190 -189 -236 l-55 -42 69 -22 c38 -12 76 -22 85 -22 34 -2 101 93 140 197 35 92 35 97 5 145 l-24 39 -31 -59z"
       id="path118"
       style="fill:#669900" />
    <path
       d="M4381 3356 c-23 -44 -23 -45 -6 -98 37 -111 117 -238 152 -238 8 0 45 9 83 21 l68 20 -87 87 c-56 55 -103 114 -129 160 -23 41 -42 78 -42 83 0 21 -17 6 -39 -35z"
       id="path120"
       style="fill:#669900" />
    <path
       d="M4148 3158 c-19 -41 -50 -91 -68 -111 -18 -21 -29 -41 -25 -45 9 -9 381 -9 390 0 4 4 -7 24 -25 45 -19 21 -49 70 -67 110 -18 40 -35 73 -37 73 -2 0 -16 -34 -31 -75 -15 -41 -30 -75 -34 -75 -4 0 -17 28 -29 63 -35 97 -35 97 -74 15z"
       id="path122"
       style="fill:#666600" />
    <path
       d="M1240 5764 c-183 -33 -300 -92 -415 -208 -131 -133 -219 -314 -306 -631 -45 -165 -100 -301 -144 -361 -15 -21 -15 -22 31 -38 26 -9 77 -16 113 -16 102 0 180 44 259 148 13 17 28 32 32 32 4 0 20 -19 35 -42 67 -104 121 -138 218 -138 81 0 115 23 217 144 l71 86 27 -19 c15 -11 43 -35 61 -55 95 -98 304 -101 374 -5 37 51 34 99 -13 199 -24 49 -41 92 -38 95 3 3 24 -1 46 -9 130 -46 256 -40 333 16 84 61 88 145 12 231 l-46 51 24 19 c19 15 36 18 90 15 83 -4 174 -47 315 -148 96 -69 223 -145 228 -138 2 1 22 37 46 78 23 41 54 90 67 108 14 18 23 35 22 36 -38 32 -297 218 -360 259 -233 150 -511 251 -798 291 -136 19 -396 19 -501 0z m48 -206 c83 -175 198 -348 310 -470 74 -79 49 -73 -38 9 -124 116 -232 275 -290 426 -29 75 -45 137 -37 137 3 0 28 -46 55 -102z m218 25 c49 -36 209 -108 344 -154 135 -45 161 -59 114 -59 -130 0 -404 125 -494 225 -27 30 -14 26 36 -12z m-602 -173 c-79 -170 -101 -264 -110 -457 -4 -79 -11 -143 -15 -143 -19 0 -34 91 -34 200 1 97 5 128 28 203 40 126 157 337 187 337 4 0 -21 -63 -56 -140z m246 -85 c27 -180 58 -306 105 -422 54 -137 28 -114 -38 32 -68 151 -107 335 -107 502 0 93 15 49 40 -112z"
       id="path124"
       style="fill:#ff33ff" />
    <path
       d="M6752 5764 c-284 -41 -584 -153 -802 -299 -121 -82 -340 -246 -340 -255 0 -4 25 -47 55 -95 30 -48 57 -95 60 -106 4 -10 10 -19 15 -19 15 0 155 87 241 149 124 91 217 135 298 139 55 3 71 1 91 -16 l25 -20 -42 -45 c-90 -98 -72 -201 45 -255 73 -34 185 -35 276 -3 33 12 61 21 63 21 11 0 -2 -39 -33 -100 -47 -93 -51 -124 -22 -180 31 -60 89 -90 174 -90 89 0 158 28 233 97 34 30 66 52 70 47 4 -5 34 -42 66 -83 33 -40 79 -88 103 -107 40 -30 52 -34 109 -34 43 0 76 6 102 19 42 22 101 83 126 130 8 17 19 31 23 31 5 0 35 -30 67 -66 74 -84 133 -114 224 -114 35 0 88 7 116 16 l53 17 -32 42 c-43 56 -70 122 -112 273 -79 284 -155 471 -247 606 -108 160 -255 250 -479 297 -112 23 -380 25 -526 3z m498 -191 c-54 -164 -166 -338 -303 -470 -95 -92 -121 -96 -35 -5 107 114 237 315 318 491 40 87 51 79 20 -16z m-200 37 c0 -12 -124 -100 -205 -145 -76 -43 -196 -82 -277 -91 -87 -9 -67 5 72 50 122 40 312 127 370 169 41 30 40 30 40 17z m551 -132 c61 -89 116 -213 140 -314 17 -72 20 -108 16 -189 -6 -113 -25 -194 -37 -160 -4 11 -8 56 -9 100 -4 207 -31 323 -117 504 -30 63 -54 118 -54 123 0 18 20 -4 61 -64z m-214 -105 c-9 -188 -39 -303 -124 -485 -36 -77 -68 -112 -37 -40 49 112 94 278 119 442 31 196 32 200 41 200 4 0 4 -53 1 -117z"
       id="path126"
       style="fill:#66ff00" />
    <path
       d="M411 3974 c-24 -7 -46 -16 -48 -18 -3 -3 7 -20 21 -39 38 -50 80 -150 110 -262 165 -616 340 -837 726 -917 125 -27 366 -28 530 -3 231 34 472 111 650 207 92 50 276 174 404 272 l94 72 -54 84 c-29 46 -58 96 -65 112 -6 15 -14 28 -18 28 -10 -1 -153 -90 -273 -171 -62 -42 -136 -86 -165 -98 -66 -27 -161 -29 -192 -3 l-22 17 44 52 c87 101 68 196 -51 250 -48 23 -63 25 -145 21 -51 -3 -114 -13 -140 -22 -27 -10 -51 -15 -55 -12 -3 3 14 47 38 96 35 74 42 98 37 130 -11 82 -75 131 -182 138 -86 6 -164 -26 -236 -95 -31 -29 -60 -53 -65 -53 -5 0 -36 34 -69 76 -33 42 -79 93 -103 112 -38 31 -53 37 -107 40 -106 7 -147 -20 -246 -160 l-16 -22 -74 75 c-56 58 -86 80 -123 92 -59 20 -144 20 -205 1z m382 -423 c4 -77 14 -175 23 -218 15 -76 66 -209 125 -325 16 -32 25 -58 20 -58 -30 0 -138 189 -182 318 -30 88 -33 108 -33 217 -1 114 14 205 33 205 4 0 11 -63 14 -139z m458 33 c-48 -123 -73 -227 -102 -414 -23 -153 -39 -199 -39 -113 0 98 21 254 46 341 24 85 120 300 129 291 2 -3 -13 -50 -34 -105z m348 -171 c-116 -127 -239 -315 -321 -489 -22 -47 -42 -83 -45 -80 -9 9 35 133 80 226 23 47 74 128 114 182 69 90 194 218 215 218 6 0 -14 -26 -43 -57z m391 -291 c0 -5 -28 -16 -62 -26 -34 -9 -118 -40 -187 -67 -113 -45 -170 -73 -266 -134 l-30 -19 20 23 c26 31 144 110 220 148 104 53 305 102 305 75z"
       id="path128"
       style="fill:#ff33ff" />
    <path
       d="M7344 3964 c-42 -27 -82 -69 -146 -151 -22 -29 -44 -53 -49 -53 -5 0 -37 26 -73 58 -125 114 -293 124 -378 24 -49 -59 -46 -108 13 -221 27 -50 36 -81 24 -81 -3 0 -34 9 -68 21 -91 31 -224 24 -290 -14 -97 -57 -108 -158 -26 -242 21 -23 39 -46 39 -52 0 -15 -53 -35 -94 -35 -86 0 -178 42 -331 151 -97 70 -223 146 -230 139 -1 -1 -13 -23 -25 -48 -13 -25 -40 -72 -61 -106 -22 -34 -39 -64 -39 -68 0 -9 248 -192 350 -259 275 -178 586 -280 942 -307 237 -19 438 13 604 95 230 113 363 336 503 845 37 132 70 209 111 261 l29 37 -58 16 c-73 20 -144 20 -207 -1 -37 -12 -66 -34 -120 -90 -39 -40 -73 -73 -76 -73 -3 0 -20 21 -37 48 -61 95 -121 132 -214 132 -41 0 -63 -6 -93 -26z m-74 -368 c78 -166 107 -282 117 -465 5 -93 3 -122 -5 -117 -7 4 -12 17 -12 29 0 12 -12 93 -26 181 -24 149 -63 292 -113 414 -33 81 -3 50 39 -42z m479 26 c37 -179 -19 -407 -150 -607 -70 -105 -77 -81 -14 45 83 165 111 267 121 442 3 56 7 119 9 138 2 19 4 39 4 45 2 23 20 -14 30 -63z m-808 -219 c86 -82 186 -213 238 -313 44 -84 95 -223 89 -240 -2 -6 -32 45 -66 114 -77 155 -198 337 -287 434 -37 39 -62 72 -56 72 6 0 43 -30 82 -67z m-251 -305 c113 -35 287 -134 340 -193 27 -31 18 -27 -50 19 -64 43 -214 108 -351 153 -65 21 -119 42 -119 47 0 12 104 -3 180 -26z"
       id="path130"
       style="fill:#66ff00" />
    <path
       d="M2992 3033 c-73 -81 -272 -264 -397 -364 -183 -145 -372 -258 -540 -322 -107 -41 -166 -53 -194 -38 -11 6 -43 16 -71 21 -94 18 -189 -18 -237 -89 -43 -63 -27 -198 30 -259 26 -28 110 -72 185 -96 28 -10 52 -21 52 -26 0 -4 -36 -11 -80 -14 -189 -17 -294 -127 -341 -357 -11 -55 -18 -103 -15 -107 10 -10 204 36 260 61 123 57 192 157 203 297 3 44 9 80 13 80 4 0 18 -28 30 -62 67 -186 125 -234 269 -226 81 4 119 28 153 96 29 59 31 169 4 220 -20 39 -14 85 29 198 96 254 303 549 597 850 l158 161 -24 22 -23 22 -61 -68z m-592 -638 c0 -3 -14 -32 -30 -65 -59 -116 -88 -232 -115 -448 -18 -144 -166 -241 -254 -166 -39 33 -54 82 -49 167 l3 67 -78 0 c-125 0 -177 33 -184 117 -4 40 0 54 21 83 29 37 97 88 130 95 12 3 80 14 153 25 145 21 261 56 338 99 51 30 65 35 65 26z m-672 -692 c9 -63 -57 -182 -117 -212 -38 -19 -149 -46 -157 -38 -14 13 32 153 60 186 66 75 207 117 214 64z"
       id="path132"
       style="fill:#9999ff" />
    <path
       d="M2215 2250 c-28 -9 -106 -27 -175 -39 -212 -38 -231 -43 -254 -73 -59 -80 63 -133 214 -94 30 8 56 13 58 11 2 -1 -5 -32 -14 -69 -29 -116 -2 -217 59 -216 53 1 70 34 92 175 18 120 52 269 67 298 5 10 8 20 6 22 -2 1 -26 -5 -53 -15z"
       id="path134"
       style="fill:#3366ff" />
    <path
       d="M1605 1636 c-37 -22 -84 -91 -71 -103 11 -11 82 34 103 66 23 34 30 61 16 61 -5 0 -26 -11 -48 -24z"
       id="path136"
       style="fill:#3366ff" />
    <path
       d="M5422 3078 l-21 -22 162 -165 c89 -91 200 -213 246 -271 176 -219 310 -450 367 -634 l27 -89 -19 -55 c-33 -99 -18 -203 40 -265 34 -37 65 -47 142 -47 119 0 180 52 236 201 18 49 36 89 39 89 4 0 10 -36 13 -80 13 -141 79 -237 205 -296 58 -28 246 -72 258 -61 11 12 -35 207 -61 262 -61 123 -157 188 -296 201 -44 3 -80 10 -80 13 0 4 28 17 63 30 92 32 156 71 191 114 30 37 31 43 31 130 0 79 -3 96 -22 123 -50 70 -185 98 -285 60 -56 -22 -100 -14 -238 41 -250 100 -513 288 -811 580 l-165 162 -22 -21z m764 -717 c102 -50 159 -66 324 -91 162 -25 164 -25 217 -61 76 -52 103 -131 68 -198 -22 -43 -70 -61 -164 -61 l-81 0 0 -81 c0 -94 -18 -142 -61 -164 -67 -35 -146 -8 -199 70 -31 46 -41 80 -60 225 -15 118 -44 218 -88 308 -46 95 -44 92 -40 92 2 0 40 -18 84 -39z m669 -642 c53 -14 129 -65 150 -103 17 -28 49 -155 42 -163 -8 -7 -135 25 -163 42 -40 23 -90 99 -105 157 -19 77 -6 89 76 67z"
       id="path138"
       style="fill:#9999ff" />
    <path
       d="M6256 2190 c13 -43 32 -138 44 -211 25 -156 30 -172 64 -195 81 -53 131 65 91 216 -8 30 -13 55 -12 57 2 1 27 -4 57 -12 156 -42 276 14 210 97 -22 28 -17 27 -250 69 -69 12 -148 30 -176 39 l-50 18 22 -78z"
       id="path140"
       style="fill:#3366ff" />
    <path
       d="M6845 1638 c13 -40 43 -75 81 -93 19 -9 38 -14 41 -12 2 3 -3 22 -12 41 -18 38 -53 68 -93 81 -22 6 -23 5 -17 -17z"
       id="path142"
       style="fill:#3366ff" />
    <path
       d="M3198 2778 c-248 -331 -364 -564 -431 -868 -40 -178 -50 -290 -44 -482 7 -253 50 -399 161 -545 113 -149 348 -273 706 -371 184 -51 248 -75 311 -118 28 -19 52 -34 54 -34 12 0 35 105 35 159 0 93 -29 150 -116 229 -63 58 -67 64 -50 75 51 32 102 76 130 110 27 34 31 47 34 116 4 76 4 77 -35 126 -22 28 -74 77 -116 110 -43 33 -77 62 -77 65 0 3 25 32 55 65 67 73 95 141 95 229 0 85 -30 143 -90 174 -56 29 -88 25 -182 -23 -61 -31 -98 -43 -98 -32 0 2 9 30 21 63 14 38 21 87 22 139 2 71 -1 87 -28 140 -34 69 -75 98 -135 97 -48 -1 -74 -14 -123 -61 l-38 -36 -20 24 c-26 32 -25 114 2 187 12 31 53 103 93 161 97 142 175 266 175 280 1 6 -8 14 -18 18 -11 3 -58 30 -106 60 -48 30 -91 55 -95 55 -4 0 -46 -51 -92 -112z m-72 -848 c-15 -130 -90 -299 -190 -427 -50 -65 -69 -70 -26 -7 47 67 123 234 164 359 20 61 39 116 41 123 11 32 17 6 11 -48z m335 -307 c-15 -29 -161 -166 -227 -215 -78 -57 -205 -123 -296 -154 -115 -39 -111 -27 12 35 194 97 376 219 465 310 41 43 62 54 46 24z m228 -347 c-13 -12 -142 -71 -209 -96 -109 -40 -215 -60 -354 -67 -89 -5 -117 -3 -112 5 4 7 19 12 34 12 15 0 104 13 197 29 152 27 288 65 405 115 30 12 52 14 39 2z m-608 -370 c181 -86 297 -113 504 -117 168 -4 125 -36 -60 -46 -122 -6 -235 17 -360 76 -111 52 -242 141 -207 141 5 0 60 -24 123 -54z"
       id="path144"
       style="fill:#ff0000" />
    <path
       d="M5150 2854 c-30 -19 -77 -47 -105 -61 -27 -14 -52 -27 -54 -29 -6 -6 63 -120 141 -230 100 -143 148 -242 149 -312 2 -54 -16 -112 -34 -112 -5 0 -29 18 -52 39 -94 86 -194 70 -249 -40 -22 -45 -26 -66 -26 -138 1 -59 7 -104 20 -141 11 -30 19 -58 20 -62 0 -15 -28 -8 -81 21 -113 59 -162 62 -221 13 -100 -85 -90 -253 24 -378 32 -36 58 -68 58 -72 0 -5 -38 -39 -85 -77 -110 -88 -145 -140 -145 -212 0 -93 37 -153 132 -214 27 -17 48 -34 48 -37 0 -3 -33 -37 -73 -76 -82 -79 -107 -130 -107 -221 0 -45 24 -155 34 -155 2 0 27 15 55 34 63 43 127 67 308 117 335 92 535 189 670 326 48 48 74 87 112 165 70 145 93 261 94 473 0 390 -108 756 -318 1076 -76 117 -242 339 -253 339 -4 0 -32 -16 -62 -36z m273 -983 c45 -137 110 -287 153 -351 46 -68 50 -77 19 -50 -62 57 -156 222 -193 340 -23 76 -38 180 -26 180 5 0 26 -54 47 -119z m-131 -432 c65 -43 174 -106 244 -141 69 -34 121 -64 115 -66 -19 -6 -143 39 -231 84 -47 24 -123 73 -171 108 -85 64 -219 197 -219 217 0 6 33 -19 72 -56 40 -37 126 -102 190 -146z m-260 -230 c78 -25 370 -79 425 -79 12 0 25 -5 29 -12 5 -8 -24 -10 -117 -5 -133 7 -216 22 -319 57 -83 28 -240 100 -240 111 0 4 30 -4 68 -18 37 -14 106 -38 154 -54z m518 -257 c0 -13 -126 -91 -214 -133 -172 -80 -380 -102 -516 -53 -30 11 12 21 93 23 207 4 343 36 527 125 99 47 110 51 110 38z"
       id="path146"
       style="fill:#ff0000" />
    <path
       d="M2177 7686 c-73 -26 -107 -76 -107 -154 0 -58 28 -106 78 -135 45 -27 121 -26 166 2 37 24 76 91 76 134 0 105 -115 188 -213 153z"
       id="path148"
       style="fill:#cc99ff" />
    <path
       d="M6226 7685 c-114 -41 -149 -168 -70 -255 108 -120 309 -19 274 136 -22 95 -117 151 -204 119z"
       id="path150"
       style="fill:#cc99ff" />
    <path
       d="M4238 7413 c-6 -44 1 -103 12 -103 12 0 22 67 14 105 -8 46 -20 45 -26 -2z"
       id="path152"
       style="fill:#ff9933" />
    <path
       d="M4235 6854 c-9 -21 -21 -50 -26 -62 -5 -13 -46 -80 -91 -150 -94 -145 -118 -201 -118 -275 1 -157 161 -277 312 -233 74 21 128 63 162 125 26 48 28 60 24 125 -5 79 -31 139 -103 241 -57 81 -94 146 -121 213 l-22 55 -17 -39z m82 -320 c106 -51 113 -212 11 -274 -46 -28 -115 -27 -158 3 -49 33 -72 82 -67 143 8 113 113 175 214 128z"
       id="path154"
       style="fill:#ffcc66" />
    <path
       d="M4189 6461 c-38 -39 -39 -87 -3 -130 21 -25 33 -31 65 -31 57 0 89 34 89 93 0 89 -89 129 -151 68z"
       id="path156"
       style="fill:#9900ff" />
    <path
       d="M892 6413 c-97 -47 -117 -176 -40 -250 59 -57 114 -66 184 -32 146 70 96 300 -65 299 -25 0 -61 -8 -79 -17z"
       id="path158"
       style="fill:#cc99ff" />
    <path
       d="M7462 6413 c-137 -67 -94 -283 59 -300 97 -10 187 81 175 176 -7 50 -43 104 -86 126 -38 20 -106 19 -148 -2z"
       id="path160"
       style="fill:#cc99ff" />
    <path
       d="M2029 4481 c-25 -10 -101 -54 -170 -98 -68 -44 -149 -91 -179 -103 -61 -26 -82 -40 -59 -40 26 0 155 -67 239 -125 127 -87 174 -107 256 -113 65 -4 77 -2 125 24 150 82 179 282 58 403 -69 69 -174 90 -270 52z m134 -115 c18 -7 46 -28 62 -45 27 -29 30 -39 30 -94 0 -74 -19 -106 -83 -138 -75 -37 -148 -14 -200 62 -19 27 -23 43 -19 82 5 60 30 95 87 125 51 26 78 27 123 8z"
       id="path162"
       style="fill:#ff99cc" />
    <path
       d="M2063 4305 c-37 -16 -53 -42 -53 -85 0 -45 47 -90 93 -90 42 0 92 38 99 74 8 40 -17 85 -56 101 -42 18 -43 18 -83 0z"
       id="path164"
       style="fill:#ff6600" />
    <path
       d="M1090 4263 c-14 -3 -29 -8 -33 -13 -13 -11 58 -22 98 -14 36 6 49 24 18 24 -10 0 -27 2 -38 4 -11 2 -31 2 -45 -1z"
       id="path166"
       style="fill:#ff0099" />
    <path
       d="M6284 4486 c-90 -39 -156 -140 -156 -236 0 -142 106 -249 247 -250 72 0 140 29 272 118 94 63 156 97 211 116 l35 12 -86 41 c-47 23 -127 69 -178 104 -52 35 -119 73 -149 86 -63 26 -148 30 -196 9z m186 -105 c51 -26 80 -74 80 -130 0 -89 -64 -151 -155 -151 -61 0 -103 24 -135 75 -43 69 -12 172 62 208 44 22 105 21 148 -2z"
       id="path168"
       style="fill:#66ff66" />
    <path
       d="M6329 4311 c-61 -62 -21 -151 68 -151 58 0 93 33 93 87 -1 42 -13 63 -47 81 -39 21 -82 14 -114 -17z"
       id="path170"
       style="fill:#cc0000" />
    <path
       d="M7350 4263 c-14 -3 -29 -8 -33 -13 -13 -11 58 -22 98 -14 36 6 49 24 18 24 -10 0 -27 2 -38 4 -11 2 -31 2 -45 -1z"
       id="path172"
       style="fill:#669900" />
    <path
       d="M918 2378 c-74 -20 -128 -115 -108 -190 45 -163 273 -159 310 6 17 76 -35 165 -110 186 -40 11 -42 11 -92 -2z"
       id="path174"
       style="fill:#cc99ff" />
    <path
       d="M7487 2376 c-73 -26 -107 -76 -107 -154 0 -149 185 -210 283 -93 51 61 47 139 -10 201 -20 23 -50 44 -71 50 -46 12 -48 12 -95 -4z"
       id="path176"
       style="fill:#cc99ff" />
    <path
       d="M4207 2369 c-125 -28 -207 -124 -207 -241 1 -69 31 -140 109 -257 35 -51 81 -131 103 -177 l41 -84 31 72 c18 40 60 115 95 166 92 137 121 204 121 277 0 36 -8 76 -19 100 -46 103 -169 167 -274 144z m110 -125 c106 -51 113 -212 11 -274 -46 -28 -115 -27 -158 3 -49 33 -72 82 -67 143 8 113 113 175 214 128z"
       id="path178"
       style="fill:#ff3300" />
    <path
       d="M4189 2171 c-31 -32 -38 -75 -17 -114 18 -34 39 -46 81 -47 54 0 87 35 87 93 0 89 -89 129 -151 68z"
       id="path180"
       style="fill:#009900" />
    <path
       d="M4237 1155 c-7 -40 2 -105 14 -105 13 0 21 58 14 100 -8 49 -21 51 -28 5z"
       id="path182"
       style="fill:#990000" />
    <path
       d="M2152 1103 c-78 -38 -108 -151 -59 -224 30 -46 101 -82 150 -75 90 11 158 97 144 183 -17 105 -138 164 -235 116z"
       id="path184"
       style="fill:#cc99ff" />
    <path
       d="M6189 1097 c-49 -32 -83 -105 -74 -158 9 -51 62 -113 111 -129 109 -36 229 73 204 185 -18 80 -74 125 -156 125 -36 0 -61 -7 -85 -23z"
       id="path186"
       style="fill:#cc99ff" />
  </g>
</svg>
