<?xml version="1.0" standalone="no"?>
<!DOCTYPE svg PUBLIC "-//W3C//DTD SVG 20010904//EN"
 "http://www.w3.org/TR/2001/REC-SVG-20010904/DTD/svg10.dtd">
<svg version="1.0" xmlns="http://www.w3.org/2000/svg"
 width="850.000000pt" height="850.000000pt" viewBox="0 0 850.000000 850.000000"
 preserveAspectRatio="xMidYMid meet">
<metadata>
Created by potrace 1.14, written by Peter Selinger 2001-2017
</metadata>
<g transform="translate(0.000000,850.000000) scale(0.100000,-0.100000)"
fill="#000000" stroke="none">
<path d="M5133 8350 c-188 -67 -317 -274 -316 -510 0 -100 19 -167 67 -234
111 -157 309 -165 452 -20 109 110 143 239 88 332 -26 44 -84 81 -130 82 -86
1 -205 -79 -224 -151 -15 -54 2 -104 43 -129 100 -61 187 -10 153 90 -15 44
-13 50 21 50 31 0 43 -33 30 -83 -12 -46 -102 -148 -147 -167 -39 -16 -111 -8
-143 16 -64 48 -96 128 -96 239 -1 150 43 270 130 357 77 77 122 93 259 93
109 0 119 -2 184 -33 103 -48 182 -109 291 -224 205 -216 281 -362 320 -618
18 -113 19 -195 4 -276 -25 -142 -112 -356 -214 -529 l-60 -100 -8 74 c-6 54
-20 101 -52 170 -23 53 -46 119 -50 146 -13 94 -41 136 -69 101 -222 -281
-242 -383 -124 -640 22 -49 43 -107 45 -130 l5 -41 -113 -105 c-82 -77 -111
-98 -105 -80 4 14 10 50 13 81 11 109 -55 254 -208 452 -53 68 -64 91 -91 185
-26 90 -32 130 -37 257 -6 139 -7 150 -25 150 -13 0 -36 -28 -74 -90 -41 -66
-88 -123 -177 -211 -139 -137 -175 -196 -201 -329 -9 -44 -18 -82 -20 -84 -2
-2 -30 21 -63 51 -32 30 -101 87 -153 126 -106 79 -163 138 -184 188 -8 19
-20 34 -27 34 -7 0 -22 -36 -35 -83 -12 -45 -38 -116 -58 -157 -32 -68 -135
-233 -152 -244 -4 -2 -6 54 -4 124 6 219 -32 487 -104 732 -20 67 -38 130 -41
139 -3 9 21 46 57 89 33 40 72 91 85 114 50 86 69 230 44 348 -17 80 -61 163
-137 259 -37 47 -78 109 -91 138 -12 29 -27 51 -33 49 -6 -2 -21 -47 -33 -99
-11 -51 -41 -143 -65 -204 -43 -106 -45 -114 -45 -216 l0 -106 -70 58 c-231
190 -468 273 -815 286 -198 7 -291 -8 -415 -66 -179 -85 -275 -226 -275 -405
1 -96 13 -146 63 -246 51 -104 142 -200 232 -245 52 -26 71 -30 145 -30 96 0
141 18 196 77 64 68 79 111 79 233 0 100 -3 115 -28 167 -50 103 -133 151
-219 127 -79 -21 -138 -115 -138 -218 0 -97 69 -163 146 -142 113 31 126 141
21 180 -24 9 -26 14 -17 31 6 11 21 20 34 20 73 0 114 -180 64 -280 -82 -163
-339 -63 -453 175 -48 100 -61 185 -40 266 36 142 134 238 302 296 69 23 97
27 244 31 331 9 509 -40 732 -199 164 -117 262 -248 347 -466 40 -101 110
-331 110 -359 0 -10 -17 -1 -47 24 -55 45 -104 72 -183 97 -30 10 -76 32 -101
50 -59 42 -103 65 -125 65 -15 0 -16 -9 -10 -72 29 -298 108 -407 368 -503
133 -50 142 -58 146 -136 2 -35 0 -107 -3 -159 l-7 -95 -18 36 c-23 43 -95
111 -148 138 -60 31 -170 58 -326 82 -123 18 -149 26 -201 57 -131 78 -173
109 -255 189 -47 46 -88 83 -91 83 -4 0 -11 -6 -17 -13 -7 -8 -3 -41 15 -112
22 -88 25 -124 27 -290 2 -182 3 -193 29 -255 15 -36 45 -89 67 -118 22 -29
40 -57 40 -62 0 -6 -34 -10 -77 -10 -43 0 -123 -7 -178 -16 -135 -21 -242 -21
-282 0 -65 33 -69 14 -17 -74 45 -77 90 -199 115 -310 31 -141 29 -143 -53
-55 -153 163 -426 367 -640 475 l-107 55 -6 75 c-14 166 -48 257 -131 349 -98
108 -213 162 -389 182 -54 6 -117 17 -140 26 -62 23 -85 27 -85 14 0 -7 23
-47 52 -89 29 -42 70 -120 91 -172 55 -133 95 -190 170 -245 21 -15 36 -29 35
-30 -2 -2 -51 -8 -109 -14 -274 -29 -483 -127 -739 -346 -144 -123 -249 -275
-285 -412 -34 -130 -12 -280 53 -375 112 -160 355 -255 551 -214 170 36 266
141 265 291 -1 89 -29 151 -100 221 -110 109 -239 143 -332 88 -44 -26 -81
-84 -82 -130 -1 -89 88 -215 161 -229 56 -10 106 15 129 67 23 50 24 68 9 102
-17 36 -61 49 -109 32 -44 -15 -50 -13 -50 21 0 31 33 43 83 30 46 -12 148
-102 167 -147 16 -39 8 -111 -16 -143 -48 -64 -128 -96 -239 -96 -150 -1 -270
43 -357 130 -77 77 -93 122 -93 259 0 109 2 119 33 184 48 102 108 180 221
288 213 205 365 284 621 323 113 18 195 19 276 4 142 -25 356 -112 529 -214
l100 -60 -75 -8 c-55 -6 -100 -19 -170 -52 -52 -23 -117 -46 -145 -50 -94 -13
-136 -41 -101 -69 282 -224 382 -243 640 -124 49 22 107 43 130 45 l42 5 98
-106 c54 -59 97 -109 94 -111 -2 -3 -20 0 -39 5 -121 35 -276 -28 -501 -201
-68 -52 -91 -64 -185 -91 -92 -27 -130 -32 -258 -37 -139 -6 -150 -7 -150 -25
0 -13 28 -36 90 -74 66 -41 123 -88 211 -177 137 -139 196 -175 329 -201 44
-9 82 -18 84 -20 2 -2 -21 -30 -51 -63 -30 -32 -87 -101 -126 -153 -79 -106
-138 -163 -188 -184 -19 -8 -34 -20 -34 -27 0 -7 36 -22 83 -35 105 -29 210
-79 314 -149 46 -31 85 -59 87 -62 2 -3 -53 -4 -123 -3 -217 6 -488 -32 -733
-104 -67 -20 -130 -38 -139 -41 -9 -3 -46 21 -89 57 -40 33 -91 72 -114 85
-86 50 -230 69 -348 44 -80 -17 -163 -61 -259 -137 -47 -37 -109 -78 -138 -91
-29 -12 -51 -27 -49 -33 3 -7 47 -21 99 -33 52 -12 144 -41 204 -65 106 -43
114 -45 216 -45 l105 0 -68 -84 c-185 -230 -262 -453 -275 -801 -7 -198 8
-291 66 -415 85 -180 224 -275 400 -275 101 1 149 13 251 63 104 51 200 142
245 232 26 52 30 71 30 145 0 96 -18 141 -77 196 -68 64 -111 79 -233 79 -100
0 -115 -3 -167 -28 -103 -50 -151 -133 -127 -219 21 -79 115 -138 218 -138 97
0 163 69 142 146 -31 113 -141 126 -180 21 -9 -24 -14 -26 -31 -17 -11 6 -20
21 -20 34 0 73 180 114 280 63 163 -81 63 -338 -175 -452 -100 -48 -185 -61
-266 -40 -142 36 -238 134 -296 302 -23 69 -27 97 -31 244 -9 331 40 509 199
732 117 164 248 262 466 347 101 40 331 110 359 110 10 0 1 -17 -24 -47 -45
-55 -72 -104 -97 -183 -10 -30 -32 -76 -50 -101 -42 -59 -65 -103 -65 -125 0
-15 9 -16 73 -10 297 29 406 108 502 368 50 133 58 142 136 146 35 2 107 0
159 -3 l95 -7 -36 -18 c-43 -23 -111 -95 -138 -148 -31 -60 -58 -170 -82 -326
-18 -123 -26 -149 -57 -201 -75 -128 -124 -193 -196 -264 -42 -40 -76 -77 -76
-81 0 -26 30 -27 125 -3 88 22 124 25 290 27 182 2 193 3 255 29 36 15 89 45
118 67 29 22 57 40 62 40 6 0 10 -34 10 -77 0 -43 7 -123 16 -178 21 -135 21
-242 0 -282 -33 -65 -14 -69 74 -17 77 45 199 90 310 115 141 31 143 29 55
-53 -163 -153 -367 -426 -475 -640 l-55 -107 -75 -6 c-166 -14 -257 -48 -349
-131 -108 -97 -163 -215 -181 -386 -5 -53 -17 -116 -26 -140 -35 -95 -28 -109
30 -65 61 46 153 96 239 131 102 40 172 90 218 153 17 24 32 43 34 41 2 -2 8
-51 14 -109 29 -274 129 -486 346 -739 125 -145 276 -250 412 -285 82 -21 207
-19 276 4 172 59 288 221 317 442 24 181 -48 342 -180 403 -64 29 -168 28
-235 -4 -111 -53 -215 -202 -215 -308 0 -74 36 -136 93 -163 51 -23 69 -23
134 -4 144 43 211 204 110 265 -100 61 -187 10 -153 -90 15 -44 13 -50 -21
-50 -31 0 -43 33 -30 83 12 46 102 148 147 167 39 16 111 8 143 -16 64 -48 96
-128 96 -239 1 -150 -43 -270 -130 -357 -77 -77 -122 -93 -259 -93 -109 0
-119 2 -184 33 -102 48 -180 108 -288 221 -205 213 -284 365 -323 621 -33 211
-9 347 104 600 26 58 73 150 106 205 l60 100 8 -74 c6 -54 20 -101 52 -170 23
-53 46 -118 50 -146 13 -94 41 -136 69 -101 222 281 242 383 124 640 -22 49
-43 107 -45 130 l-5 41 113 105 c82 77 111 98 105 80 -4 -14 -10 -50 -13 -81
-11 -109 55 -254 208 -452 53 -68 64 -91 91 -185 26 -90 32 -130 37 -257 6
-139 7 -150 25 -150 13 0 36 28 74 90 41 66 88 123 177 211 139 137 175 196
201 329 9 44 18 82 20 84 2 2 30 -21 63 -51 32 -30 101 -87 153 -126 106 -79
163 -138 184 -188 8 -19 20 -34 27 -34 7 0 22 36 35 83 29 105 79 210 149 314
31 46 59 85 62 87 3 2 4 -53 3 -123 -6 -217 32 -488 104 -733 20 -67 38 -130
41 -139 3 -9 -21 -46 -57 -89 -33 -40 -72 -91 -85 -114 -50 -86 -69 -230 -44
-348 17 -80 61 -163 137 -259 37 -47 78 -109 91 -138 12 -29 27 -51 33 -49 7
3 21 47 33 99 12 52 41 144 65 204 43 106 45 114 45 216 l0 106 70 -58 c231
-190 468 -273 815 -286 198 -7 291 8 417 67 177 82 273 224 273 399 -1 101
-13 149 -63 251 -51 104 -142 200 -232 245 -52 25 -71 29 -145 30 -96 0 -141
-17 -196 -77 -64 -68 -79 -111 -79 -233 0 -100 3 -115 28 -167 50 -103 133
-151 219 -127 79 21 138 115 138 218 0 97 -69 163 -146 142 -113 -31 -126
-141 -21 -180 24 -9 26 -14 17 -31 -6 -11 -21 -20 -34 -20 -73 0 -114 180 -63
280 81 163 338 63 452 -175 48 -100 61 -185 40 -266 -36 -142 -134 -238 -302
-296 -69 -23 -97 -27 -244 -31 -331 -9 -509 40 -732 199 -164 117 -262 248
-347 466 -40 101 -110 331 -110 359 0 10 17 1 47 -24 55 -45 104 -72 183 -97
30 -10 76 -32 101 -50 59 -42 103 -65 125 -65 15 0 16 9 10 73 -29 297 -108
406 -368 502 -133 50 -142 58 -146 136 -2 35 0 107 3 159 l7 95 18 -36 c23
-43 95 -111 148 -138 60 -31 170 -58 326 -82 123 -18 149 -26 201 -57 131 -78
173 -109 255 -189 47 -46 88 -83 91 -83 4 0 11 6 17 13 7 8 3 41 -15 112 -22
88 -25 124 -27 290 -2 182 -3 193 -29 255 -15 36 -45 89 -67 118 -22 29 -40
57 -40 62 0 6 34 10 78 10 42 0 122 7 177 16 135 21 242 21 282 0 65 -33 69
-14 17 74 -45 77 -90 199 -115 310 -31 141 -29 143 53 55 153 -163 426 -367
640 -475 l107 -55 6 -75 c14 -166 48 -257 131 -349 98 -108 213 -162 389 -182
54 -6 117 -17 140 -26 61 -22 85 -27 85 -15 0 6 -25 50 -56 97 -30 47 -73 129
-95 181 -44 109 -92 179 -156 225 -24 17 -43 32 -41 34 2 2 51 8 109 14 273
29 479 125 737 343 144 123 251 277 287 415 21 82 19 207 -4 276 -67 193 -273
321 -516 320 -122 -1 -189 -26 -266 -102 -47 -46 -60 -67 -74 -115 -31 -108 0
-213 91 -302 110 -109 239 -143 332 -88 44 26 81 84 82 130 1 89 -88 215 -161
229 -58 11 -106 -15 -131 -71 -41 -93 12 -161 102 -130 44 15 50 13 50 -21 0
-31 -33 -43 -83 -30 -46 12 -148 102 -167 147 -16 39 -8 111 16 143 48 64 128
96 239 96 150 1 270 -43 357 -130 77 -77 93 -122 93 -259 0 -109 -2 -119 -33
-184 -48 -102 -108 -180 -221 -288 -213 -205 -365 -284 -621 -323 -113 -18
-195 -19 -276 -4 -142 25 -356 112 -529 214 l-100 60 75 8 c55 6 100 19 170
52 52 23 118 46 145 50 94 13 136 41 101 69 -282 224 -382 243 -640 124 -49
-22 -107 -43 -130 -45 l-42 -5 -98 106 c-54 59 -96 109 -94 112 3 2 17 0 32
-6 109 -41 284 28 509 201 68 53 91 64 185 91 90 26 130 32 257 37 139 6 150
7 150 25 0 13 -28 36 -90 74 -66 41 -123 88 -211 177 -137 139 -196 175 -329
201 -44 9 -82 18 -84 20 -2 2 22 32 54 66 32 35 89 104 126 153 75 102 135
160 185 181 19 8 34 20 34 27 0 7 -36 22 -83 35 -105 29 -210 79 -314 149 -46
31 -85 59 -87 62 -2 3 54 5 124 3 220 -6 493 33 727 104 65 19 127 38 139 40
15 4 41 -11 93 -56 41 -33 92 -72 115 -85 86 -50 230 -69 348 -44 80 17 163
61 259 137 47 37 109 78 138 91 29 12 51 27 49 33 -2 6 -47 21 -99 33 -51 11
-143 41 -204 65 -106 43 -114 45 -216 45 l-105 0 68 85 c184 227 264 461 275
805 7 193 -9 288 -66 410 -85 179 -224 275 -400 275 -94 0 -164 -18 -261 -67
-94 -48 -193 -144 -235 -228 -25 -52 -29 -71 -30 -145 0 -96 17 -141 77 -196
68 -64 111 -79 233 -79 100 0 115 3 167 28 103 50 151 133 127 219 -21 79
-115 138 -218 138 -97 0 -163 -69 -142 -146 31 -113 141 -126 180 -21 9 24 14
26 31 17 11 -6 20 -21 20 -34 0 -73 -180 -114 -280 -63 -163 81 -63 338 175
452 100 48 185 61 266 40 142 -36 238 -134 296 -302 23 -69 27 -97 31 -244 9
-331 -40 -509 -199 -732 -117 -164 -248 -262 -466 -347 -101 -40 -331 -110
-359 -110 -10 0 -1 17 24 48 45 54 72 103 97 182 10 30 32 76 50 101 42 59 65
103 65 125 0 15 -9 16 -72 10 -298 -29 -407 -108 -503 -368 -50 -133 -58 -142
-136 -146 -35 -2 -107 0 -159 3 l-95 7 36 18 c43 23 111 95 138 148 31 60 58
170 82 324 19 130 23 143 71 225 63 111 110 172 192 252 37 35 66 67 66 71 0
26 -30 27 -125 3 -87 -22 -124 -25 -290 -27 -182 -2 -193 -3 -255 -29 -36 -15
-89 -45 -118 -67 -29 -22 -57 -40 -62 -40 -6 0 -10 34 -10 78 0 42 -7 122 -16
177 -21 135 -21 242 0 282 33 65 14 69 -74 17 -77 -45 -199 -90 -310 -115
-141 -31 -143 -29 -52 56 162 152 359 417 468 628 l59 116 75 6 c166 14 257
48 349 131 108 98 162 213 182 389 6 54 17 117 26 140 34 91 27 105 -31 62
-60 -45 -152 -96 -229 -126 -115 -46 -179 -91 -232 -164 -15 -21 -29 -36 -30
-35 -2 2 -8 51 -14 109 -29 274 -129 486 -346 739 -125 145 -276 250 -412 285
-79 21 -215 18 -280 -5z m-1392 -226 c103 -164 129 -308 82 -459 -9 -27 -23
-61 -32 -76 -25 -40 -82 -102 -88 -95 -3 3 0 49 8 103 20 145 17 308 -9 443
-21 111 -28 179 -16 168 3 -4 28 -41 55 -84z m-66 -106 c8 -59 15 -125 15
-148 0 -38 -23 -201 -39 -280 l-7 -35 -28 48 c-41 69 -66 159 -66 235 -1 53 9
98 47 216 54 169 48 172 78 -36z m2923 -575 c-14 -16 -59 -73 -101 -129 -74
-99 -126 -149 -220 -213 -27 -18 -65 -47 -85 -65 l-35 -31 6 44 c9 73 70 183
132 239 48 44 288 180 319 182 6 0 -2 -12 -16 -27z m26 -95 c-32 -134 -75
-218 -149 -294 -64 -65 -120 -99 -200 -120 -57 -16 -128 -18 -123 -5 2 4 48
44 103 88 118 94 195 173 255 263 70 104 120 170 129 170 5 0 -2 -46 -15 -102z
m-3209 -204 c17 -12 59 -34 94 -48 134 -54 206 -117 256 -222 40 -84 30 -90
-34 -22 -36 39 -91 82 -142 112 -113 67 -146 92 -191 149 -57 72 -51 82 17 31z
m91 -165 c69 -50 108 -89 158 -156 36 -48 66 -91 66 -95 0 -8 -70 17 -156 56
-100 46 -168 128 -205 247 -27 88 -24 101 14 55 17 -22 73 -69 123 -107z
m1515 -119 c25 -123 21 -212 -16 -355 -29 -112 -93 -266 -130 -312 -23 -30
-152 -123 -169 -123 -3 0 -6 21 -6 48 0 26 -13 84 -30 132 -38 108 -51 202
-39 286 15 110 47 161 170 276 60 56 129 127 152 157 l42 56 3 -30 c1 -16 12
-77 23 -135z m698 -30 c10 -30 28 -81 40 -112 28 -76 28 -177 0 -261 -33 -99
-45 -100 -41 -4 3 65 -2 104 -24 187 -28 108 -36 226 -20 285 l9 30 9 -35 c5
-19 17 -60 27 -90z m-64 -197 c5 -53 3 -110 -5 -160 -17 -112 -24 -118 -53
-53 -49 112 -59 157 -56 244 4 74 8 91 49 172 l45 89 7 -105 c3 -58 9 -142 13
-187z m-2674 -9 c106 -64 224 -235 308 -447 21 -52 31 -95 31 -130 0 -51 -22
-162 -33 -174 -4 -3 -23 9 -44 27 -21 19 -71 49 -113 68 -98 45 -173 103 -226
175 -70 95 -77 130 -78 378 l-1 216 47 -38 c27 -21 75 -54 109 -75z m1374 -86
c116 -92 201 -185 245 -268 39 -77 60 -163 50 -211 -7 -35 -140 -159 -171
-159 -14 0 -40 -9 -59 -20 -19 -11 -61 -34 -92 -51 -52 -29 -128 -101 -169
-160 -15 -22 -16 -20 -37 67 -34 139 -42 208 -42 359 1 92 7 176 19 245 22
123 51 290 58 339 l4 34 62 -60 c34 -32 94 -84 132 -115z m-3193 93 c122 -28
210 -74 284 -146 65 -64 99 -120 120 -200 15 -55 18 -125 6 -125 -4 0 -40 42
-80 93 -92 119 -184 207 -297 285 -108 73 -169 125 -140 118 11 -3 59 -14 107
-25z m63 -153 c38 -30 93 -85 122 -123 29 -39 74 -97 99 -129 l46 -59 -44 7
c-23 3 -75 22 -115 41 -100 49 -155 113 -237 274 -36 71 -66 132 -66 135 0 3
28 -17 63 -44 34 -27 93 -73 132 -102z m2830 -24 c-57 -309 -40 -530 59 -774
14 -33 23 -60 22 -60 -2 0 -35 30 -73 68 -39 37 -98 83 -132 102 -69 39 -93
77 -111 169 -12 63 0 155 31 234 21 54 220 409 226 404 1 -2 -9 -66 -22 -143z
m1070 -79 c-3 -38 -24 -139 -46 -225 -22 -85 -45 -194 -51 -242 -7 -49 -16
-88 -19 -88 -20 0 -42 103 -46 215 -4 115 -4 122 21 165 60 106 85 160 101
216 25 91 26 93 37 59 5 -16 6 -61 3 -100z m-1628 69 c128 -33 225 -94 269
-170 22 -37 25 -52 20 -92 -14 -115 -18 -220 -8 -255 8 -27 7 -37 -1 -37 -25
0 -164 159 -217 249 -99 167 -170 270 -208 302 l-37 31 62 -6 c34 -4 88 -14
120 -22z m1741 -73 c99 -148 129 -283 84 -384 -15 -34 -31 -51 -62 -67 -54
-28 -126 -94 -160 -148 -26 -39 -28 -41 -34 -20 -20 75 3 251 54 428 20 66 33
139 37 197 3 51 10 90 14 87 5 -2 35 -45 67 -93z m-1906 42 c60 -57 84 -91
179 -254 39 -68 94 -153 121 -187 27 -35 47 -66 44 -69 -8 -9 -90 37 -148 83
-83 65 -133 137 -146 209 -7 33 -33 103 -59 155 -27 52 -49 98 -51 103 -8 18
12 4 60 -40z m1457 -433 c-62 -170 -98 -394 -80 -495 l9 -50 1 51 c2 73 37
258 64 339 13 39 41 104 62 145 l38 75 12 -80 c17 -109 29 -150 82 -273 61
-144 83 -235 83 -346 0 -167 -50 -286 -170 -407 -56 -56 -95 -85 -150 -112
-70 -34 -180 -71 -180 -62 0 3 15 25 34 49 40 53 69 124 64 157 -3 22 -5 21
-26 -15 -28 -48 -92 -126 -102 -126 -4 0 -4 17 1 38 18 77 9 155 -37 342 -50
205 -65 347 -45 438 31 149 149 292 320 394 25 15 47 26 48 24 2 -1 -11 -40
-28 -86z m1137 35 c-4 -19 1 -106 10 -193 19 -188 14 -310 -17 -402 -26 -77
-41 -103 -88 -152 l-35 -38 -100 7 c-62 4 -110 12 -124 21 -25 16 -125 46
-212 63 -51 10 -138 7 -174 -7 -31 -12 -16 23 55 132 103 157 259 308 454 441
83 56 166 115 185 132 45 39 54 38 46 -4z m-167 -3 c-13 -11 -78 -58 -145
-105 -66 -47 -147 -112 -180 -144 -108 -106 -206 -251 -273 -399 l-30 -69 -1
91 c0 57 -7 120 -20 168 l-19 77 21 57 c48 129 174 213 418 278 74 20 155 42
180 49 63 19 77 18 49 -3z m-2254 -95 c57 -45 150 -93 284 -148 121 -50 206
-106 280 -185 131 -139 181 -344 132 -536 -19 -73 -71 -191 -90 -202 -5 -3
-12 20 -16 51 -4 31 -11 68 -17 82 -11 31 -50 91 -59 91 -4 0 0 -26 7 -57 8
-32 14 -80 13 -108 l0 -50 -17 25 c-40 60 -117 129 -199 179 -340 209 -414
277 -469 435 -24 67 -34 177 -24 263 11 95 29 183 38 183 4 0 27 -44 52 -97
54 -118 139 -246 220 -336 64 -69 125 -117 84 -65 -156 199 -206 282 -258 420
-20 53 -36 100 -36 103 0 8 16 -2 75 -48z m-425 12 c78 -27 103 -41 152 -88
l38 -35 -6 -100 c-5 -70 -12 -110 -24 -131 -18 -30 -44 -118 -62 -210 -9 -47
-5 -134 8 -169 12 -31 -23 -16 -132 55 -149 98 -310 260 -423 427 -45 68 -105
153 -132 188 -27 36 -49 67 -49 70 0 3 19 3 43 0 23 -4 96 0 162 8 169 20 342
14 425 -15z m1339 -169 c-18 -42 -35 -107 -42 -162 l-13 -92 -12 53 c-26 114
-7 203 55 250 15 11 31 21 35 21 3 0 -7 -32 -23 -70z m-98 -23 c-11 -60 -2
-148 24 -224 7 -24 11 -43 9 -43 -3 0 -24 13 -47 28 -23 16 -63 41 -89 56 -27
15 -48 32 -48 38 0 27 68 133 108 169 25 22 47 37 49 35 3 -2 0 -29 -6 -59z
m-2278 32 c99 -33 100 -45 4 -41 -65 3 -103 -2 -187 -24 -111 -29 -240 -36
-290 -17 -23 10 -22 11 20 18 25 4 83 22 130 40 47 18 92 36 100 38 40 14 164
6 223 -14z m508 -87 c173 -252 297 -365 528 -481 l117 -58 -110 -6 c-61 -3
-134 -13 -163 -21 -49 -16 -54 -15 -109 5 -101 38 -190 142 -240 281 -8 24
-34 111 -56 193 -22 83 -43 159 -46 170 -10 34 20 2 79 -83z m4138 -54 c-21
-27 -54 -75 -75 -109 -64 -106 -235 -224 -447 -308 -52 -21 -95 -31 -130 -31
-51 0 -162 22 -174 33 -3 4 9 23 27 44 19 21 48 69 66 108 79 171 199 280 335
303 22 4 130 7 238 7 l197 0 -37 -47z m-4636 28 c37 -7 70 -16 73 -19 7 -7
-76 -45 -154 -71 -39 -13 -76 -17 -136 -15 -74 4 -91 8 -172 49 l-89 45 123 6
c68 4 126 9 129 13 11 11 155 6 226 -8z m1267 -251 c15 -33 50 -86 79 -117 29
-32 49 -58 44 -58 -18 0 -117 75 -145 111 -32 39 -45 99 -33 146 l7 28 11 -25
c5 -14 22 -52 37 -85z m941 12 c12 -23 24 -69 27 -103 5 -62 -6 -219 -14 -211
-3 3 -7 56 -8 118 -3 81 -10 133 -25 179 -24 76 -24 73 -11 65 6 -4 20 -25 31
-48z m127 -101 c27 -82 27 -97 2 -129 -12 -14 -30 -47 -41 -72 -11 -25 -22
-45 -24 -45 -2 0 -1 57 2 128 5 111 3 134 -15 182 -11 30 -23 64 -27 75 -4 11
12 0 37 -27 32 -33 51 -65 66 -112z m-1139 45 c33 -52 95 -103 169 -140 24
-13 42 -25 39 -27 -5 -5 -103 -30 -171 -44 -38 -8 -38 -7 -56 34 -24 54 -34
125 -26 181 4 25 8 45 10 45 1 0 17 -22 35 -49z m-732 -31 c31 -14 47 -29 63
-60 28 -54 94 -126 148 -160 39 -26 41 -28 20 -34 -75 -20 -251 3 -428 54 -66
20 -139 33 -197 37 -51 3 -90 10 -87 14 14 24 191 129 245 147 104 34 160 34
236 2z m2862 -39 c22 -6 20 -8 -27 -39 -53 -34 -104 -95 -141 -170 -13 -24
-25 -42 -27 -39 -5 5 -30 102 -44 170 -7 35 -5 39 21 52 57 30 161 42 218 26z
m110 -60 c10 -6 3 -12 -25 -21 -71 -23 -130 -58 -188 -110 -31 -29 -56 -49
-56 -44 0 14 59 99 87 126 15 15 42 34 58 42 33 17 102 21 124 7z m961 -6 c0
-12 -97 -109 -136 -135 -22 -16 -96 -61 -165 -101 -68 -39 -153 -94 -187 -121
-35 -27 -66 -47 -69 -44 -8 8 34 85 79 144 54 69 130 129 182 142 91 22 144
42 211 79 72 39 85 45 85 36z m-596 -71 c72 -15 90 -23 69 -31 -43 -15 -206
-100 -262 -137 -83 -53 -201 -154 -233 -198 l-23 -33 26 20 c118 92 202 152
258 184 66 39 259 116 268 107 3 -2 -16 -30 -41 -61 -51 -62 -99 -152 -157
-294 -66 -161 -166 -288 -279 -353 -163 -94 -383 -101 -560 -17 -101 48 -103
51 -21 65 66 11 161 54 161 73 0 5 -26 2 -57 -5 -32 -8 -80 -14 -108 -13 -50
0 -50 0 -25 16 62 41 149 145 219 263 95 160 159 248 224 306 134 121 308 155
541 108z m593 -91 c-30 -158 -87 -265 -172 -321 -45 -30 -55 -33 -100 -28
-130 15 -223 17 -258 8 -27 -8 -37 -7 -37 1 0 25 159 164 249 217 167 99 271
171 299 206 24 30 27 32 30 14 2 -11 -3 -55 -11 -97z m-2896 61 c25 -8 67 -28
93 -44 38 -24 46 -35 46 -59 0 -17 9 -53 20 -82 11 -28 17 -49 12 -47 -5 1
-39 37 -75 79 -67 78 -132 126 -200 150 -31 11 -35 15 -20 21 21 8 59 3 124
-18z m3512 -22 c-28 -26 -76 -82 -107 -125 -41 -57 -80 -95 -144 -142 -48 -36
-90 -65 -94 -65 -8 0 17 70 56 156 45 98 127 167 244 205 96 30 104 25 45 -29z
m-4715 -12 c86 -22 196 -46 245 -52 48 -7 87 -16 87 -19 0 -4 -24 -16 -52 -26
-41 -14 -83 -18 -179 -18 -119 0 -128 1 -165 26 -64 42 -135 76 -199 94 -91
25 -94 27 -65 36 46 15 170 0 328 -41z m4816 38 c-4 -7 -18 -26 -30 -43 -12
-16 -35 -61 -50 -100 -49 -125 -116 -201 -221 -250 -83 -40 -89 -30 -21 34 35
32 79 85 97 117 73 123 105 166 158 210 54 43 82 56 67 32z m-2089 -73 c-9
-24 -30 -62 -48 -84 -30 -38 -158 -144 -165 -137 -2 2 30 37 70 78 42 43 90
105 113 146 42 76 60 74 30 -3z m-1610 21 c55 -25 121 -86 173 -160 42 -58 28
-60 -19 -3 -45 53 -126 115 -204 156 -54 28 -57 31 -30 31 17 0 53 -11 80 -24z
m1023 -116 c-2 -47 -9 -94 -16 -105 -9 -16 -11 2 -12 92 0 61 3 119 7 129 13
35 25 -29 21 -116z m641 42 c-12 -56 -41 -122 -69 -162 -16 -22 -29 -30 -53
-30 -18 0 -52 -9 -76 -20 -41 -19 -67 -20 -45 -2 150 127 196 181 225 265 12
34 14 35 21 17 4 -12 3 -42 -3 -68z m-711 -9 c11 -92 4 -172 -19 -215 -12 -21
-14 -17 -27 52 -8 41 -15 89 -15 105 0 38 31 145 42 145 5 0 13 -39 19 -87z
m-1118 62 c153 -41 305 -165 373 -305 34 -70 71 -180 62 -180 -3 0 -25 15 -49
34 -53 40 -124 69 -157 64 -22 -3 -21 -5 15 -26 48 -28 126 -92 126 -102 0 -4
-17 -4 -37 1 -79 18 -155 10 -348 -38 -177 -44 -199 -48 -321 -48 l-131 0 -87
43 c-69 34 -105 61 -164 121 -66 66 -159 197 -148 208 2 2 32 -7 66 -21 148
-60 403 -104 510 -87 l55 9 -51 1 c-74 2 -258 37 -339 64 -38 13 -104 41 -145
63 l-75 38 60 7 c92 11 175 35 293 85 59 26 138 54 177 65 86 22 239 24 315 4z
m-1308 -39 c114 -30 268 -93 315 -131 30 -23 123 -152 123 -169 0 -3 -21 -6
-47 -6 -27 0 -85 -13 -133 -30 -115 -41 -204 -53 -287 -40 -112 18 -161 48
-275 171 -56 60 -127 128 -157 151 l-55 42 84 13 c47 7 101 17 120 23 53 14
208 2 312 -24z m2301 -68 c32 -93 39 -165 17 -159 -73 18 -99 22 -127 19 -18
-2 -33 -2 -33 -1 0 2 20 46 45 96 25 51 45 100 45 108 0 20 12 32 21 22 3 -5
18 -43 32 -85z m-420 27 c47 -36 99 -102 111 -142 6 -19 -125 109 -163 160
-22 28 3 20 52 -18z m-3 -96 c73 -60 162 -202 98 -155 -13 9 -46 32 -74 51
-49 33 -102 101 -119 154 -6 21 -5 22 14 12 11 -6 48 -34 81 -62z m4180 22
l145 -48 -50 -7 c-27 -4 -93 -14 -146 -22 -53 -8 -115 -14 -138 -14 -39 0
-201 22 -281 39 l-35 7 48 28 c73 43 152 65 237 65 63 0 97 -7 220 -48z
m-4273 -116 c78 -36 143 -79 143 -95 0 -4 -20 -20 -44 -34 -25 -14 -53 -37
-64 -51 -11 -14 -22 -25 -25 -25 -3 0 -15 33 -27 72 -12 40 -33 94 -46 120
-13 27 -22 48 -19 48 4 0 41 -16 82 -35z m4421 29 c-22 -21 -172 -108 -216
-124 -135 -51 -301 -43 -403 19 -40 24 -102 82 -95 88 3 3 49 0 103 -8 139
-19 317 -16 438 9 97 20 184 28 173 16z m-3422 -90 c-37 -79 -80 -144 -96
-144 -4 0 -20 20 -34 44 -14 25 -37 53 -51 64 -14 11 -25 22 -25 25 0 3 33 15
72 27 40 12 93 32 118 45 25 13 46 22 48 20 2 -2 -13 -38 -32 -81z m-576 18
c0 -5 -9 -17 -20 -27 -57 -51 -82 -237 -46 -335 l17 -44 -31 29 c-16 16 -39
53 -50 82 -39 104 -19 185 63 261 45 40 67 52 67 34z m723 -43 c-29 -51 -125
-144 -171 -168 -24 -12 -46 -21 -48 -19 -5 6 68 107 103 143 27 27 106 75 126
75 5 0 0 -14 -10 -31z m-643 -23 c0 -13 -19 -59 -41 -102 -32 -61 -43 -93 -48
-148 -7 -69 -8 -70 -21 -41 -19 44 -24 133 -10 185 8 29 27 59 55 87 48 49 65
54 65 19z m695 -36 c-16 -23 -45 -54 -64 -69 -33 -26 -93 -61 -105 -61 -3 0
38 41 90 91 53 50 98 88 101 85 3 -3 -7 -24 -22 -46z m1187 15 c60 -20 433
-224 425 -232 -2 -1 -66 9 -143 22 -309 57 -530 40 -774 -59 -33 -14 -60 -23
-60 -22 0 2 30 35 68 73 37 39 83 97 102 131 26 46 45 66 77 82 89 44 185 46
305 5z m-3632 -67 c47 -50 69 -81 70 -98 0 -14 9 -41 20 -60 11 -19 34 -61 51
-92 29 -52 101 -128 160 -169 22 -15 20 -16 -67 -37 -139 -34 -208 -42 -359
-42 -92 1 -176 7 -245 19 -123 22 -290 51 -339 58 l-34 4 60 62 c33 34 77 85
99 112 101 131 199 221 289 267 79 41 99 46 168 47 l59 1 68 -72z m2007 61
c27 -11 27 -12 -31 -25 -100 -24 -198 -100 -243 -187 -13 -27 -27 -47 -29 -44
-3 3 -2 26 1 51 8 52 58 141 96 168 58 43 150 59 206 37z m-539 -117 c6 -15
18 -52 26 -82 9 -30 33 -78 56 -107 22 -29 36 -53 31 -53 -21 0 -108 69 -135
107 -23 33 -31 57 -34 103 -2 33 -1 67 2 76 6 16 8 16 25 0 11 -10 24 -29 29
-44z m-86 -111 c38 -61 100 -122 153 -149 61 -31 41 -41 -38 -18 -70 20 -131
66 -158 117 -26 52 -35 134 -19 174 l12 30 14 -59 c8 -32 24 -75 36 -95z m663
130 c8 -14 -43 -50 -89 -62 -77 -20 -106 -33 -156 -71 -28 -21 -50 -34 -50
-30 0 5 13 29 29 54 30 47 78 90 121 107 32 12 137 14 145 2z m-953 -61 c21
-6 39 -14 42 -18 5 -8 -197 -5 -234 4 -23 6 -24 7 -5 14 29 12 154 12 197 0z
m-719 -104 l92 -12 -53 -12 c-118 -26 -206 -6 -251 57 -12 16 -21 31 -21 34 0
3 32 -8 70 -24 41 -18 109 -35 163 -43z m1712 45 c43 -20 85 -57 111 -97 24
-35 10 -41 -25 -11 -69 58 -233 79 -331 43 l-44 -17 29 31 c60 63 183 87 260
51z m-905 -19 l35 -15 -72 -13 c-40 -7 -77 -16 -83 -19 -15 -9 -147 24 -160
40 -9 10 4 15 62 23 86 11 169 6 218 -16z m-397 -12 c14 -12 47 -30 72 -41 25
-11 45 -22 45 -24 0 -2 -57 -1 -127 2 -112 5 -135 3 -183 -15 -30 -11 -64 -23
-75 -27 -11 -4 0 12 27 37 32 31 66 51 110 66 79 27 99 27 131 2z m3017 1
c123 -22 290 -51 339 -58 l34 -4 -60 -62 c-32 -34 -77 -84 -98 -112 -103 -133
-200 -222 -297 -271 -69 -35 -165 -56 -203 -45 -34 10 -155 144 -155 172 0 14
-9 40 -20 59 -11 19 -34 61 -51 92 -29 52 -101 128 -160 169 -22 15 -20 16 67
38 137 33 187 39 349 40 106 0 181 -5 255 -18z m-3327 -83 c-16 -24 -42 -64
-57 -90 -15 -27 -32 -48 -38 -48 -27 0 -133 68 -169 108 -22 25 -37 47 -35 49
2 3 29 0 60 -6 57 -11 175 3 236 27 14 5 27 8 28 7 2 -2 -9 -23 -25 -47z
m1562 21 c40 -11 125 -85 125 -108 0 -22 -50 -10 -127 31 -63 33 -91 42 -146
46 -37 3 -65 7 -62 11 28 28 141 39 210 20z m298 -20 c31 -17 81 -39 109 -49
29 -10 53 -22 53 -26 0 -12 -160 -63 -207 -66 -34 -2 -42 0 -39 12 18 73 22
99 19 128 -2 17 -1 32 2 32 4 0 32 -14 63 -31z m-1152 1 c-18 -71 -22 -99 -19
-127 2 -18 1 -33 -2 -33 -4 0 -32 14 -63 31 -31 17 -80 38 -107 48 -28 10 -51
22 -50 27 1 17 186 75 225 71 12 -2 19 -8 16 -17z m1941 -22 c53 -28 145 -114
134 -125 -2 -3 -29 0 -59 6 -60 11 -148 2 -224 -24 -24 -7 -43 -11 -43 -9 0 3
13 24 28 47 16 23 41 63 56 90 15 26 32 47 38 47 5 0 37 -14 70 -32z m-2292
-7 c57 -11 57 -11 -80 -15 -81 -3 -134 -10 -180 -24 -71 -23 -85 -22 -46 3 64
42 188 57 306 36z m566 -42 c61 -32 93 -43 148 -48 69 -7 70 -8 41 -21 -44
-19 -133 -24 -185 -10 -44 12 -130 84 -130 109 0 22 50 10 126 -30z m1529 21
c-14 -23 -93 -53 -151 -58 -62 -5 -219 6 -211 14 3 3 56 7 118 8 80 3 132 10
174 24 72 24 78 25 70 12z m-988 -15 c67 -20 128 -66 154 -116 26 -52 35 -134
19 -174 l-12 -30 -14 59 c-24 99 -100 198 -186 242 -26 13 -48 27 -48 29 0 9
36 5 87 -10z m-1015 -44 c73 -19 191 -71 202 -90 3 -5 -20 -12 -51 -16 -31 -4
-68 -11 -82 -17 -31 -11 -91 -50 -91 -59 0 -4 26 0 58 7 31 8 80 14 107 13 50
0 50 0 25 -16 -62 -41 -149 -145 -219 -263 -187 -315 -291 -402 -508 -430 -95
-12 -333 15 -333 39 0 3 43 26 94 49 161 75 347 209 408 294 l23 33 -26 -20
c-212 -164 -287 -211 -423 -260 -54 -20 -100 -34 -102 -32 -2 2 17 30 42 63
52 67 99 155 155 293 50 121 106 206 185 280 139 131 344 181 536 132z m984
-23 c71 -48 107 -104 112 -178 2 -33 1 -67 -2 -76 -6 -16 -8 -16 -25 0 -21 19
-30 41 -56 127 -9 31 -34 79 -56 108 -21 28 -35 51 -30 51 5 0 30 -15 57 -32z
m982 -12 c-32 -29 -67 -49 -112 -64 -82 -27 -97 -27 -129 -2 -14 12 -47 30
-72 41 -25 11 -45 21 -45 22 0 2 66 3 148 2 131 0 152 2 192 22 66 32 70 27
18 -21z m-1633 14 c51 -57 237 -82 335 -46 l44 17 -29 -31 c-34 -36 -120 -70
-176 -70 -69 0 -150 46 -191 109 -29 43 -17 59 17 21z m635 -127 c34 -91 23
-166 -36 -236 -30 -36 -82 -72 -91 -64 -3 4 6 20 20 36 58 69 79 233 43 331
l-17 44 31 -29 c16 -16 39 -53 50 -82z m1320 77 c32 -16 80 -66 80 -83 0 -3
-32 8 -70 24 -41 18 -109 35 -163 43 l-92 13 45 10 c76 18 156 15 200 -7z
m-2927 -67 c-38 -38 -84 -98 -103 -132 -39 -69 -77 -93 -169 -111 -63 -12
-155 0 -234 31 -54 21 -410 220 -404 226 2 1 68 -9 148 -24 120 -23 171 -27
309 -27 183 0 267 15 430 78 47 18 86 31 88 31 1 -1 -28 -33 -65 -72z m1516
28 c14 -43 14 -114 0 -166 -11 -40 -85 -125 -108 -125 -22 0 -10 50 31 127 33
63 42 91 46 146 5 71 12 75 31 18z m656 33 c102 -26 101 -39 -2 -52 -92 -11
-172 -4 -215 19 -21 12 -17 14 51 26 40 6 76 15 79 18 8 8 17 7 87 -11z m-799
-57 c-29 -51 -76 -94 -123 -114 -37 -15 -139 -18 -148 -4 -8 14 43 50 89 62
76 20 106 33 153 69 27 21 50 36 52 34 2 -2 -8 -23 -23 -47z m69 -4 c-12 -84
-63 -161 -127 -194 -51 -26 -133 -35 -173 -19 l-30 12 59 14 c99 24 198 100
242 186 13 26 27 48 30 48 4 0 3 -21 -1 -47z m1490 -62 c67 -33 104 -60 163
-120 66 -66 159 -197 148 -208 -2 -2 -32 7 -66 21 -148 60 -403 104 -510 87
l-55 -9 51 -1 c74 -2 258 -37 339 -64 39 -13 104 -41 145 -62 l75 -38 -80 -12
c-109 -17 -150 -29 -273 -82 -144 -61 -235 -83 -346 -83 -167 0 -286 50 -407
170 -56 56 -85 95 -112 150 -34 70 -71 180 -62 180 3 0 25 -15 49 -34 53 -40
124 -69 157 -64 22 3 21 5 -15 26 -48 28 -126 92 -126 102 0 4 17 4 38 -1 76
-17 155 -9 342 35 240 58 218 55 347 52 110 -2 114 -3 198 -45z m-685 23 c23
-6 24 -7 5 -14 -47 -20 -224 -6 -239 18 -5 8 197 5 234 -4z m-1466 -125 c-53
-50 -98 -88 -101 -85 -9 9 47 85 86 115 36 28 90 60 103 61 4 0 -36 -41 -88
-91z m182 69 c-9 -13 -32 -46 -51 -74 -33 -49 -101 -102 -154 -119 -28 -9 -26
-4 35 76 43 56 85 93 139 122 42 22 50 21 31 -5z m68 -92 c14 -25 37 -53 51
-64 14 -11 25 -22 25 -25 0 -3 -33 -15 -72 -27 -40 -12 -94 -33 -120 -46 -27
-13 -48 -22 -48 -19 0 4 16 41 35 82 36 78 79 143 95 143 4 0 20 -20 34 -44z
m886 -28 c12 -40 33 -94 46 -120 13 -27 22 -48 19 -48 -4 0 -41 16 -82 35 -78
36 -143 79 -143 95 0 4 20 20 45 34 24 15 52 38 62 51 10 13 21 25 25 25 3 0
16 -33 28 -72z m1879 -9 c69 -24 101 -49 202 -160 46 -50 111 -112 144 -138
60 -46 60 -46 30 -49 -16 -1 -77 -12 -135 -23 -123 -25 -212 -21 -355 16 -112
29 -266 93 -312 130 -30 23 -123 152 -123 169 0 3 21 6 46 6 26 0 87 14 138
31 147 51 253 56 365 18z m-5774 -16 c27 -9 61 -23 76 -32 39 -24 102 -81 96
-88 -3 -2 -72 3 -154 12 -162 19 -223 16 -401 -16 -63 -11 -125 -19 -139 -17
-22 3 -16 9 52 52 171 108 319 136 470 89z m813 -92 c-41 -38 -82 -91 -116
-149 -29 -49 -68 -107 -86 -128 -35 -42 -113 -100 -121 -92 -3 2 8 22 24 44
16 21 42 71 57 109 49 124 115 200 219 250 85 41 92 31 23 -34z m802 43 c49
-4 101 -2 123 4 27 8 37 7 37 -1 0 -25 -160 -164 -249 -217 -182 -109 -247
-153 -290 -199 l-44 -46 7 62 c20 181 88 323 186 385 39 25 52 28 95 24 28 -3
88 -8 135 -12z m2146 -49 c49 -33 102 -101 119 -154 6 -21 5 -22 -14 -12 -11
6 -48 34 -81 62 -73 60 -162 202 -97 155 12 -9 45 -32 73 -51z m-699 -38 c-41
-54 -70 -125 -65 -158 3 -22 5 -21 26 15 28 48 92 126 102 126 4 0 4 -17 -1
-37 -18 -78 -10 -155 38 -348 43 -174 47 -200 48 -315 0 -99 -4 -135 -19 -175
-28 -75 -100 -178 -164 -235 -52 -47 -182 -133 -189 -126 -2 1 11 40 28 86 62
170 98 394 80 495 l-9 50 -1 -51 c-1 -69 -36 -255 -62 -334 -11 -35 -39 -100
-62 -145 l-41 -80 -7 60 c-11 92 -35 175 -85 293 -62 144 -84 235 -84 346 0
167 50 287 170 406 41 41 100 88 129 104 52 28 192 78 199 71 2 -2 -12 -23
-31 -48z m236 -122 c0 -38 -31 -145 -42 -145 -5 0 -13 39 -19 88 -11 91 -4
171 19 214 12 21 14 17 27 -52 8 -41 15 -88 15 -105z m-2374 113 c-76 -196
-138 -262 -290 -309 -88 -27 -101 -24 -55 14 22 17 69 73 107 123 50 69 89
108 156 158 48 36 91 66 95 66 4 0 -2 -24 -13 -52z m1849 43 c-1 -4 -36 -36
-76 -71 -80 -69 -122 -123 -150 -196 -18 -44 -19 -45 -25 -22 -7 28 14 122 39
171 35 68 54 87 87 87 18 0 50 9 72 19 45 22 58 25 53 12z m669 -25 c34 0 63
-4 63 -7 0 -3 -14 -31 -31 -62 -17 -31 -38 -80 -48 -107 -10 -28 -22 -51 -26
-51 -11 0 -51 110 -65 178 -13 62 -8 78 23 62 11 -7 49 -12 84 -13z m-3504
-22 c56 -8 118 -19 137 -23 l35 -7 -48 -28 c-71 -42 -159 -66 -240 -66 -59 0
-98 9 -217 49 l-145 49 50 7 c28 3 88 12 135 20 116 18 174 18 293 -1z m3896
-166 c22 -29 -3 -21 -52 17 -47 36 -99 102 -111 142 -6 19 125 -109 163 -159z
m-2075 150 c-20 -64 -129 -198 -196 -242 -15 -10 -61 -26 -103 -37 -42 -10
-115 -39 -163 -64 -47 -24 -88 -42 -90 -40 -8 8 95 109 148 144 30 21 107 67
170 104 63 36 140 86 170 111 63 51 74 55 64 24z m964 -70 c-44 -45 -89 -103
-113 -148 -26 -47 -41 -67 -43 -55 -6 26 25 99 61 144 30 38 158 144 165 137
2 -2 -30 -37 -70 -78z m466 -158 c-6 -24 -7 -24 -14 -5 -13 31 -11 156 3 200
11 38 12 35 15 -65 2 -58 0 -116 -4 -130z m400 64 c18 -34 41 -64 48 -64 3 0
-1 26 -8 58 -8 31 -14 80 -13 107 l0 50 17 -25 c40 -60 117 -129 199 -179 340
-209 414 -277 469 -435 25 -70 34 -177 23 -272 -11 -95 -28 -174 -38 -174 -3
0 -26 44 -51 97 -54 118 -139 246 -220 336 -64 69 -125 117 -84 65 86 -110
151 -201 183 -257 37 -63 116 -259 108 -267 -2 -2 -30 17 -63 42 -67 52 -155
99 -293 155 -282 115 -430 315 -431 580 0 79 29 197 66 271 44 89 47 89 61 11
6 -39 18 -84 27 -99z m447 93 c45 -53 126 -115 204 -156 54 -28 57 -31 30 -31
-73 0 -176 75 -253 184 -42 58 -28 60 19 3z m-31 -55 c69 -80 123 -122 196
-150 44 -18 45 -19 22 -25 -28 -7 -122 14 -171 39 -66 34 -87 54 -87 84 0 16
-9 52 -20 81 -11 28 -16 49 -12 47 5 -1 37 -36 72 -76z m1394 -50 c74 -45 149
-76 209 -87 52 -10 54 -22 6 -30 -59 -10 -133 1 -309 46 -85 22 -194 45 -242
51 -49 7 -88 16 -88 19 0 7 62 30 115 43 11 2 70 4 130 3 l110 -3 69 -42z
m-2907 -93 c36 -147 36 -139 -13 -160 -50 -23 -156 -34 -198 -22 l-30 9 47 27
c49 29 109 101 147 175 12 24 24 42 26 39 3 -3 12 -34 21 -68z m-93 -6 c-56
-80 -102 -115 -162 -121 -27 -2 -57 0 -67 5 -13 8 -5 14 42 31 70 25 135 67
182 116 19 20 37 33 40 31 2 -3 -13 -31 -35 -62z m929 -80 c-5 -112 -3 -135
15 -183 11 -30 23 -64 27 -75 4 -11 -12 0 -37 27 -32 33 -51 65 -66 112 -27
82 -27 97 -2 129 12 14 30 47 41 72 11 25 22 45 24 45 2 0 1 -57 -2 -127z
m1818 112 c46 -8 131 -28 189 -45 66 -20 139 -33 197 -37 51 -3 90 -10 87 -14
-15 -24 -191 -130 -248 -149 -135 -44 -255 -20 -296 60 -28 55 -94 126 -148
161 -34 21 -39 28 -25 32 39 10 165 6 244 -8z m-1757 -136 c3 -80 10 -133 24
-179 23 -71 22 -85 -3 -46 -30 46 -44 99 -44 171 -1 74 9 178 16 171 2 -2 6
-55 7 -117z m1453 99 c121 -45 213 -173 268 -375 14 -51 36 -134 50 -184 14
-51 24 -94 21 -96 -4 -5 -40 43 -142 186 -119 169 -263 290 -466 391 l-119 60
93 1 c57 0 118 7 158 18 36 10 68 19 72 20 4 0 33 -9 65 -21z m-416 -63 c22
-51 34 -156 22 -198 l-9 -29 -32 51 c-34 52 -95 103 -170 140 -24 13 -42 24
-40 27 4 3 114 32 183 47 11 3 21 5 23 6 2 0 12 -19 23 -44z m-2698 -9 c32 -7
61 -16 64 -19 3 -4 -9 -23 -27 -44 -19 -21 -50 -74 -71 -119 -64 -139 -162
-236 -279 -280 -36 -13 -87 -17 -266 -18 l-221 -1 38 47 c21 27 54 75 74 108
64 105 227 219 440 306 90 37 153 42 248 20z m2873 -57 c149 -98 310 -260 423
-427 45 -68 105 -153 132 -188 27 -36 49 -68 49 -71 0 -3 -16 -2 -35 1 -19 4
-106 -1 -193 -10 -188 -19 -310 -14 -402 17 -77 26 -103 41 -152 88 l-38 35 7
100 c4 62 12 110 21 124 16 25 46 125 63 212 10 51 7 138 -7 174 -12 31 23 16
132 -55z m-2518 -7 c25 -16 125 -46 212 -63 51 -10 138 -7 174 7 31 12 16 -23
-55 -132 -98 -149 -260 -310 -427 -423 -68 -45 -153 -105 -188 -132 -36 -27
-68 -49 -71 -49 -3 0 -2 16 1 35 4 19 -1 106 -10 193 -19 188 -14 310 17 402
26 77 41 103 88 152 l35 38 100 -7 c62 -4 110 -12 124 -21z m2192 -9 c78 -55
112 -102 118 -161 2 -27 0 -58 -6 -67 -8 -15 -11 -12 -22 21 -23 71 -58 130
-110 188 -29 31 -48 56 -43 56 5 0 34 -17 63 -37z m-1726 -305 c16 -55 16 -59
-5 -115 -38 -100 -142 -189 -281 -239 -42 -15 -319 -91 -368 -101 -26 -6 7 21
179 143 182 129 319 298 416 515 l30 66 6 -106 c3 -58 13 -132 23 -163z m799
74 c23 -16 63 -41 90 -56 26 -15 47 -32 47 -38 0 -27 -68 -133 -108 -169 -25
-22 -47 -37 -49 -35 -3 2 0 29 6 59 11 60 2 148 -24 225 -7 23 -11 42 -9 42 3
0 24 -13 47 -28z m-33 -160 c0 -63 -26 -121 -69 -151 -16 -12 -31 -21 -34 -21
-3 0 8 32 25 71 18 44 34 106 41 161 l11 90 13 -48 c7 -27 13 -73 13 -102z
m2676 58 l89 -45 -105 -7 c-58 -3 -142 -9 -187 -13 -53 -5 -110 -3 -160 5
-111 17 -118 24 -58 50 122 53 147 60 241 57 85 -2 96 -5 180 -47z m-2399 -87
c39 -38 98 -84 132 -103 69 -39 93 -77 111 -169 12 -63 0 -155 -31 -234 -21
-54 -220 -410 -226 -404 -1 2 9 68 24 148 23 120 27 171 27 309 0 184 -14 261
-77 430 -19 50 -33 90 -32 90 1 0 34 -30 72 -67z m-41 -118 c9 -42 18 -140 21
-245 4 -146 1 -193 -15 -285 -22 -123 -51 -292 -59 -344 l-4 -34 -62 60 c-34
32 -93 84 -132 115 -188 148 -284 288 -293 425 l-5 72 74 70 c50 47 82 70 99
71 14 0 36 6 50 14 154 83 210 127 258 201 l26 40 13 -45 c7 -25 20 -76 29
-115z m2535 116 c18 -6 12 -10 -34 -19 -31 -6 -89 -25 -129 -43 -101 -44 -209
-51 -308 -19 -102 33 -105 46 -9 41 61 -2 105 3 187 23 59 14 116 27 127 30
26 6 139 -2 166 -13z m-3492 -147 c1 -89 -19 -208 -59 -344 -20 -66 -33 -139
-37 -197 -3 -51 -10 -90 -14 -87 -5 2 -35 45 -67 93 -99 147 -129 283 -84 383
15 35 31 51 73 75 57 32 141 115 161 159 11 23 13 24 19 7 4 -10 8 -50 8 -89z
m78 -36 c14 -41 18 -83 18 -178 l0 -125 -42 -69 c-45 -74 -77 -149 -88 -209
-10 -52 -22 -54 -30 -6 -10 59 1 133 46 309 22 85 45 194 51 243 7 48 16 87
19 87 4 0 16 -24 26 -52z m1741 -30 c20 -17 70 -47 112 -66 98 -45 173 -103
226 -175 71 -95 78 -130 78 -378 l1 -216 -47 38 c-27 21 -75 54 -109 75 -107
64 -223 234 -309 449 -29 73 -32 87 -27 155 6 74 23 150 34 150 3 0 22 -14 41
-32z m-448 -66 c43 -45 98 -118 130 -171 99 -167 170 -270 208 -302 l37 -31
-62 6 c-182 19 -331 93 -389 192 -22 37 -25 52 -20 92 14 115 18 220 8 255
-16 56 3 48 88 -41z m95 30 c126 -79 194 -164 219 -272 9 -43 36 -111 62 -159
24 -46 42 -86 40 -88 -7 -8 -106 88 -136 133 -16 22 -61 96 -101 165 -39 68
-94 152 -120 186 -27 35 -49 65 -49 68 0 10 43 -7 85 -33z m-1105 -178 c0 -25
16 -91 36 -152 31 -91 36 -121 37 -197 0 -156 -38 -230 -190 -363 -45 -40
-104 -100 -130 -135 -47 -61 -48 -62 -51 -32 -1 17 -12 77 -23 135 -25 123
-21 212 16 355 29 112 93 266 130 312 24 31 148 121 168 123 4 0 7 -20 7 -46z
m3208 -137 c86 -112 184 -208 272 -267 83 -55 182 -131 178 -135 -9 -10 -216
49 -275 77 -79 39 -179 131 -213 198 -39 77 -67 220 -42 220 4 0 40 -42 80
-93z m159 38 c100 -49 155 -113 237 -274 36 -71 66 -132 66 -135 0 -3 -28 17
-62 44 -35 27 -94 73 -133 102 -38 30 -93 85 -122 123 -29 39 -74 97 -99 129
l-46 59 44 -7 c23 -3 75 -22 115 -41z m-4385 -237 c-3 -66 2 -104 24 -188 29
-110 36 -240 17 -289 -9 -22 -11 -18 -21 32 -6 31 -25 89 -43 129 -41 94 -50
205 -24 294 14 49 39 104 48 104 1 0 0 -37 -1 -82z m140 -13 c30 -72 33 -89
33 -181 0 -99 -1 -102 -45 -190 l-45 -89 -7 105 c-3 58 -9 144 -13 191 -9 105
15 274 35 253 5 -5 24 -45 42 -89z m2004 -319 c100 -46 168 -128 205 -247 27
-88 24 -101 -14 -55 -17 22 -73 69 -123 107 -69 50 -108 89 -158 156 -36 48
-66 91 -66 95 0 8 70 -17 156 -56z m-8 -184 c49 -29 107 -68 128 -86 42 -35
100 -113 92 -121 -2 -3 -22 8 -44 24 -21 16 -68 41 -103 55 -134 54 -206 117
-256 222 -40 84 -30 90 34 22 38 -41 91 -82 149 -116z m-2568 39 c0 -5 -35
-35 -77 -67 -107 -79 -206 -177 -261 -254 -95 -135 -144 -200 -152 -200 -14 0
40 203 73 269 57 117 170 214 287 247 53 14 130 18 130 5z m-14 -136 c-4 -18
-22 -65 -42 -104 -49 -98 -114 -154 -273 -235 -71 -36 -132 -66 -136 -66 -3 0
11 21 33 48 21 26 69 87 107 136 53 69 92 106 180 172 62 45 117 89 121 95 12
20 17 -5 10 -46z m2460 -477 c-32 -258 -31 -305 5 -506 11 -63 19 -125 17
-139 -3 -22 -9 -16 -52 52 -28 43 -60 104 -73 136 -53 132 -46 307 16 410 23
38 75 97 85 98 5 1 6 -23 2 -51z m90 -63 c40 -70 64 -158 64 -238 0 -59 -9
-98 -49 -217 l-48 -145 -7 50 c-4 28 -14 93 -22 146 -18 120 -18 162 0 269 8
47 17 106 21 133 3 26 8 47 10 47 2 0 16 -20 31 -45z"/>
</g>
</svg>
