<?xml version="1.0" standalone="no"?>
<!DOCTYPE svg PUBLIC "-//W3C//DTD SVG 20010904//EN"
 "http://www.w3.org/TR/2001/REC-SVG-20010904/DTD/svg10.dtd">
<svg version="1.0" xmlns="http://www.w3.org/2000/svg"
 width="850.000000pt" height="850.000000pt" viewBox="0 0 850.000000 850.000000"
 preserveAspectRatio="xMidYMid meet">
<metadata>
Created by potrace 1.14, written by Peter Selinger 2001-2017
</metadata>
<g transform="translate(0.000000,850.000000) scale(0.100000,-0.100000)"
fill="#000000" stroke="none">
<path d="M3731 8439 c-96 -17 -269 -80 -359 -132 -352 -202 -603 -547 -666
-916 l-12 -76 -12 74 c-17 102 -55 174 -132 251 -117 117 -249 167 -415 157
-189 -12 -357 -98 -515 -263 -224 -235 -350 -562 -350 -909 0 -204 36 -367
118 -530 54 -108 100 -172 190 -267 l83 -86 -63 -35 c-111 -62 -215 -87 -204
-49 32 112 39 237 16 332 -53 229 -228 365 -470 365 -310 0 -551 -248 -626
-644 -22 -112 -22 -317 0 -438 33 -187 109 -380 213 -536 58 -88 184 -221 273
-288 90 -69 247 -144 360 -173 61 -16 94 -29 92 -37 -11 -44 -148 -219 -172
-219 -4 0 -10 19 -14 43 -12 76 -81 202 -153 277 -91 97 -181 142 -296 148
-145 8 -276 -41 -382 -139 -70 -67 -116 -139 -153 -241 -24 -67 -26 -85 -26
-233 0 -146 3 -168 28 -250 143 -469 558 -841 1021 -918 l80 -13 -74 -12
c-105 -18 -175 -54 -252 -131 -107 -107 -159 -231 -159 -381 0 -405 416 -793
949 -884 121 -21 333 -21 442 -1 236 44 421 138 585 297 l82 79 25 -46 c37
-66 77 -169 77 -200 0 -20 -4 -25 -17 -21 -120 35 -240 39 -351 12 -173 -43
-287 -156 -332 -330 -24 -94 -25 -168 -5 -254 102 -434 705 -647 1283 -453
401 134 711 452 791 811 7 30 14 61 17 68 6 20 94 -32 170 -101 35 -32 64 -62
64 -67 0 -4 -20 -11 -45 -14 -108 -17 -282 -135 -356 -243 -73 -105 -89 -249
-45 -388 125 -394 635 -506 1100 -240 344 196 602 551 658 905 l13 81 13 -72
c17 -95 52 -166 113 -233 324 -355 902 -153 1169 409 143 302 171 668 73 970
-53 163 -130 291 -256 422 l-79 83 95 46 c90 43 177 67 177 48 0 -5 -7 -31
-16 -59 -18 -61 -21 -220 -4 -290 45 -183 158 -300 334 -345 173 -44 334 -8
480 106 78 61 139 142 196 259 179 366 126 859 -133 1245 -50 74 -184 216
-262 278 l-40 32 60 -30 c111 -54 228 -57 363 -10 172 61 306 223 348 420 24
111 15 297 -20 415 -61 205 -181 398 -349 562 -201 196 -438 319 -685 357 -60
10 -74 14 -47 15 250 6 465 244 465 515 0 415 -420 803 -965 891 -387 63 -784
-58 -1029 -314 -31 -34 -59 -61 -61 -61 -8 0 -58 97 -80 155 -29 75 -33 120
-11 112 92 -36 264 -42 361 -13 129 38 218 104 278 207 34 58 67 186 67 258
-1 233 -167 453 -425 560 -154 65 -210 74 -425 75 -267 1 -403 -29 -625 -139
-314 -155 -533 -419 -614 -737 -10 -37 -20 -70 -23 -74 -10 -9 -138 78 -185
125 -44 44 -47 61 -13 61 32 0 146 47 204 84 81 52 161 139 198 215 27 57 33
79 36 161 4 83 1 105 -22 173 -44 130 -109 215 -220 288 -94 62 -198 91 -341
95 -66 1 -144 -1 -174 -7z m331 -79 c134 -41 244 -137 306 -268 35 -72 37 -83
37 -173 0 -90 -2 -99 -38 -171 -46 -93 -125 -175 -209 -218 -77 -38 -106 -39
-47 -2 63 41 146 133 174 193 13 29 29 84 36 122 35 195 -78 404 -271 500 -83
42 -80 46 12 17z m-130 -41 c331 -111 429 -518 168 -700 -130 -91 -292 -87
-404 11 -73 65 -101 174 -63 246 31 60 125 83 165 41 l21 -22 -39 0 c-99 0
-129 -125 -53 -216 52 -61 159 -86 244 -57 131 44 217 187 189 313 -73 326
-468 409 -742 157 l-62 -57 25 44 c34 62 133 167 187 199 113 65 247 81 364
41z m-499 -82 c-190 -200 -283 -412 -283 -642 0 -233 85 -426 270 -613 74 -76
199 -176 271 -219 28 -17 29 -19 29 -98 0 -44 4 -107 10 -139 5 -33 8 -62 5
-64 -5 -5 -151 82 -266 159 -284 190 -437 386 -506 646 -34 130 -36 308 -4
428 44 170 158 345 302 463 56 47 221 152 237 152 3 0 -27 -33 -65 -73z m473
-91 c63 -29 114 -79 144 -140 18 -39 22 -59 18 -121 -3 -63 -8 -80 -34 -117
-39 -55 -96 -88 -154 -88 -25 0 -52 5 -60 10 -11 7 -7 10 19 10 55 0 120 37
151 87 38 60 44 103 25 168 -55 191 -291 230 -459 75 -153 -141 -211 -423
-126 -617 l18 -41 -33 -82 c-18 -44 -35 -83 -37 -86 -10 -10 -78 135 -93 197
-8 35 -15 105 -15 154 0 246 100 431 301 559 93 59 245 74 335 32z m1689 -5
l40 -7 -38 -8 c-64 -12 -188 -57 -262 -93 -206 -103 -364 -277 -429 -474 -80
-241 -52 -494 89 -796 l43 -92 -44 -78 c-24 -42 -51 -99 -60 -125 -8 -26 -19
-48 -22 -48 -12 0 -152 264 -197 372 -73 173 -96 265 -102 413 -4 105 -1 148
15 225 91 442 415 698 907 718 11 0 38 -3 60 -7z m187 -72 c129 -27 241 -121
306 -256 36 -75 37 -82 37 -188 0 -103 -2 -114 -32 -177 -38 -81 -97 -142
-172 -177 -48 -22 -69 -26 -151 -26 -83 1 -101 4 -146 27 -77 40 -110 72 -143
140 -62 124 -27 265 75 298 67 22 144 -21 144 -81 0 -21 0 -21 -19 2 -38 47
-129 20 -157 -46 -34 -82 -5 -171 73 -231 103 -78 267 -61 359 38 43 45 60 82
74 156 52 288 -240 518 -570 448 -36 -8 -67 -12 -68 -11 -6 6 90 51 143 68 90
29 164 33 247 16z m-1884 -32 c97 -64 108 -188 23 -260 -61 -51 -147 -44 -171
13 -20 47 16 90 48 58 20 -20 14 -31 -13 -24 -18 5 -25 2 -25 -8 0 -27 30 -46
72 -46 34 0 47 7 79 39 35 35 39 44 39 91 0 47 -4 56 -38 90 -117 117 -314 37
-352 -143 -12 -61 5 -145 45 -213 33 -56 114 -127 181 -159 46 -22 54 -30 54
-54 l0 -28 -145 72 c-80 40 -154 80 -165 90 -20 18 -20 17 -21 -21 l-1 -39
-20 45 c-29 62 -28 191 1 274 40 112 110 198 195 238 61 28 160 21 214 -15z
m-47 -86 c21 -22 29 -38 28 -63 l-1 -33 -8 35 c-5 19 -22 47 -39 62 -17 16
-26 28 -20 28 6 0 24 -13 40 -29z m2344 -116 c74 -115 101 -257 71 -374 -35
-135 -102 -216 -236 -280 -66 -31 -85 -36 -170 -39 -52 -2 -106 1 -120 7 -22
8 -19 10 25 10 120 2 237 54 322 144 84 88 123 189 123 313 0 114 -49 246
-123 334 -12 14 0 5 27 -20 27 -25 63 -67 81 -95z m-1416 48 c-98 -108 -185
-301 -215 -476 -22 -126 -15 -330 16 -447 41 -156 125 -342 249 -557 l31 -51
-59 21 c-56 20 -59 24 -103 101 -154 277 -225 531 -216 774 10 253 87 441 251
609 72 74 108 94 46 26z m991 16 c122 -57 185 -150 184 -274 0 -83 -22 -133
-83 -188 -40 -36 -92 -57 -145 -57 -41 0 -111 36 -131 66 l-17 26 30 -22 c17
-12 51 -25 76 -27 130 -15 239 103 222 241 -23 197 -266 277 -487 160 -78 -41
-199 -166 -238 -245 -34 -69 -61 -157 -61 -200 0 -18 -9 -33 -27 -44 -16 -10
-49 -36 -75 -57 l-48 -40 0 66 c0 95 16 159 67 266 38 80 59 107 132 180 137
136 250 182 436 177 94 -2 118 -6 165 -28z m-36 -93 c18 -7 47 -28 65 -47 116
-116 59 -289 -96 -289 -67 0 -113 34 -113 84 0 38 29 70 54 60 20 -8 21 -44 1
-44 -8 0 -15 5 -15 10 0 6 -5 10 -11 10 -6 0 -9 -14 -7 -32 2 -27 10 -37 41
-52 47 -22 94 -16 136 20 119 100 -7 293 -177 270 -219 -30 -298 -295 -154
-514 32 -48 33 -55 22 -83 l-13 -30 -28 49 c-15 27 -52 83 -83 126 -30 42 -61
92 -67 111 -16 42 -22 43 -39 8 -7 -17 -14 -23 -17 -15 -9 25 20 113 56 169
108 167 302 249 445 189z m-3481 -91 c133 -28 251 -116 313 -236 27 -51 29
-61 29 -180 0 -124 0 -126 -37 -200 -20 -41 -49 -86 -64 -99 l-26 -25 20 40
c51 101 68 238 42 336 -31 118 -137 246 -244 295 -79 36 -189 57 -266 50 -51
-4 -60 -3 -40 5 68 29 177 35 273 14z m642 -22 c-31 -126 -23 -319 21 -471 93
-322 309 -560 724 -798 l84 -48 -58 -12 -59 -12 -83 49 c-186 110 -376 273
-481 412 -197 261 -258 594 -160 875 13 39 22 42 12 5z m1646 -5 c-52 -90
-103 -283 -116 -445 -4 -46 -9 -83 -12 -83 -17 0 -83 43 -83 55 0 27 29 150
49 207 28 82 96 209 137 257 43 49 50 52 25 9z m1219 -57 c0 -21 -7 -46 -16
-57 -15 -19 -16 -19 -9 1 16 44 16 63 1 101 l-16 39 20 -24 c12 -14 20 -38 20
-60z m-3650 -12 c142 -22 264 -108 323 -228 28 -58 32 -75 32 -151 0 -101 -27
-170 -95 -244 -63 -68 -137 -101 -230 -101 -64 1 -83 5 -129 30 -61 34 -100
85 -108 143 -9 69 40 132 102 132 46 0 63 -16 25 -23 -37 -8 -65 -62 -55 -108
8 -36 48 -85 86 -104 37 -19 120 -19 166 0 98 41 163 140 163 248 0 93 -17
135 -80 197 -157 158 -381 155 -550 -6 -76 -72 -115 -133 -152 -237 l-29 -82
6 84 c12 150 56 253 146 340 54 52 146 98 219 110 77 12 87 12 160 0z m1572
-303 c55 -69 91 -142 82 -169 -6 -19 -8 -18 -25 14 -10 20 -44 62 -76 94 l-58
58 -14 -109 c-9 -75 -10 -122 -4 -151 9 -38 9 -41 -7 -33 -32 17 -44 100 -35
249 5 75 9 149 9 165 1 28 1 28 45 -20 23 -27 61 -71 83 -98z m-1527 110 c59
-28 108 -76 129 -128 18 -43 21 -134 5 -175 -21 -56 -96 -114 -146 -113 -11 1
-6 6 13 14 17 8 43 29 56 47 69 93 62 189 -21 269 -117 114 -283 86 -385 -63
-51 -76 -69 -150 -64 -266 8 -177 79 -320 217 -434 31 -26 35 -35 47 -115 7
-48 11 -88 9 -90 -10 -11 -109 61 -172 124 -116 117 -193 303 -193 467 0 73
29 195 61 259 51 101 136 185 218 214 61 22 169 17 226 -10z m1581 -63 c45
-38 76 -92 70 -118 -9 -35 -17 -31 -47 23 -14 26 -50 76 -80 112 l-54 64 45
-32 c25 -17 54 -39 66 -49z m-911 -228 c15 -49 46 -132 71 -184 24 -52 43 -95
42 -96 -2 -1 -24 -5 -50 -7 l-48 -5 -21 56 c-49 131 -72 329 -52 467 7 49 7
48 20 -46 7 -52 24 -135 38 -185z m-1271 181 c-113 -423 15 -798 342 -1002
128 -79 327 -143 501 -159 157 -14 149 -11 181 -69 17 -29 53 -83 81 -119 l50
-67 -47 0 c-114 0 -393 21 -476 36 -295 50 -520 194 -676 431 -97 148 -136
295 -127 487 6 133 23 211 73 330 29 68 109 216 118 216 2 0 -7 -38 -20 -84z
m1950 -42 c-8 -54 -13 -118 -10 -141 3 -26 2 -43 -4 -43 -18 0 -31 52 -25 95
8 47 48 195 52 191 2 -2 -4 -48 -13 -102z m1795 -175 c1 -51 -3 -72 -17 -89
l-19 -23 0 44 c0 48 -31 189 -42 189 -13 -1 -133 -181 -144 -215 -7 -24 -13
-31 -19 -23 -23 37 11 115 120 278 l77 115 22 -105 c12 -58 22 -135 22 -171z
m-1320 229 c36 -122 96 -194 418 -498 98 -93 114 -114 144 -180 18 -41 50
-108 71 -148 42 -80 42 -82 28 -82 -5 0 -25 25 -44 55 -51 79 -143 165 -280
262 -67 47 -149 113 -183 146 l-63 61 0 -135 c0 -182 26 -327 85 -471 7 -16 4
-16 -44 0 -43 15 -56 25 -77 62 -109 192 -158 432 -135 667 12 120 49 303 61
303 4 0 12 -19 19 -42z m-1852 6 c74 -36 104 -131 66 -211 -31 -66 -112 -94
-154 -52 -27 27 -22 64 10 64 13 0 26 -6 29 -12 2 -8 -5 -13 -17 -13 -29 0
-26 -18 4 -32 81 -37 155 119 93 197 -61 78 -188 69 -265 -18 -40 -45 -56
-104 -51 -179 11 -154 177 -273 372 -266 74 2 79 1 97 -23 l19 -26 -180 -7
c-99 -4 -184 -5 -190 -1 -15 9 -12 -2 6 -31 29 -44 7 -38 -44 13 -86 86 -128
206 -120 342 8 122 56 209 143 254 40 21 137 22 182 1z m2028 -144 c53 -44
165 -120 263 -177 10 -6 42 -123 42 -155 0 -13 -293 248 -334 297 -42 50 -106
153 -106 169 0 5 16 -11 35 -35 19 -25 64 -69 100 -99z m952 38 c-34 -46 -69
-98 -77 -117 -12 -29 -15 -31 -21 -15 -10 29 37 109 99 165 29 27 56 49 58 49
2 0 -24 -37 -59 -82z m269 -91 c6 -50 4 -60 -12 -72 -27 -20 -32 -18 -27 9 4
21 -4 97 -22 211 -4 22 3 13 25 -30 16 -33 32 -86 36 -118z m-2666 -131 c6
-32 20 -83 30 -112 l19 -54 -82 0 c-70 0 -191 21 -205 35 -3 2 21 32 53 67 68
75 131 198 148 287 l12 65 6 -115 c4 -63 12 -140 19 -173z m-631 239 c28 -14
47 -42 36 -53 -3 -3 -5 0 -5 6 0 17 -46 44 -88 53 l-37 7 33 1 c18 0 46 -6 61
-14z m4500 -89 c-2 -2 -35 -16 -74 -31 -190 -75 -345 -203 -474 -393 -132
-196 -188 -408 -198 -765 l-6 -199 -39 44 -39 43 5 145 c11 313 79 557 210
754 128 192 318 331 526 385 76 20 97 24 89 17z m-2873 -80 c20 -37 10 -137
-11 -115 -18 19 -45 115 -45 158 l0 36 21 -25 c11 -14 27 -38 35 -54z m146
-81 c-3 -90 1 -189 7 -237 14 -95 71 -273 107 -335 13 -23 24 -44 24 -47 0 -8
-50 -8 -89 0 -29 6 -33 12 -56 85 -36 114 -50 280 -37 421 9 90 40 268 46 268
1 0 0 -70 -2 -155z m3128 109 c45 -8 114 -27 153 -41 73 -25 216 -98 252 -128
l20 -17 -20 7 c-473 158 -911 1 -1112 -400 -61 -120 -110 -314 -122 -478 l-6
-91 -81 -51 c-45 -27 -100 -65 -123 -83 l-41 -34 5 109 c13 262 16 310 26 377
52 344 230 610 505 753 70 37 178 73 254 86 61 10 215 6 290 -9z m-1420 -24
c-35 -123 -20 -258 55 -490 90 -278 98 -316 85 -426 -5 -51 -10 -125 -10 -164
0 -53 -3 -71 -12 -68 -8 3 -15 35 -20 89 -8 105 -41 210 -119 380 -33 72 -68
163 -78 201 l-18 70 -20 -28 c-39 -55 -124 -222 -153 -301 -22 -61 -60 -218
-60 -249 0 -2 -16 13 -35 35 -33 36 -35 42 -35 108 0 267 132 562 359 806 35
37 65 67 66 67 2 0 0 -14 -5 -30z m679 16 c-2 -2 -31 -24 -65 -49 -87 -64
-196 -179 -261 -274 -31 -46 -60 -83 -63 -83 -4 0 -19 18 -34 40 l-26 40 82
86 c96 100 174 158 278 208 65 32 102 45 89 32z m-1076 -201 c-15 -18 -32 -34
-37 -34 -15 -2 5 93 32 149 l27 55 3 -68 c3 -62 0 -71 -25 -102z m520 -158
c24 -50 57 -114 74 -140 l30 -49 -25 -75 c-15 -47 -28 -70 -32 -62 -25 48
-122 359 -135 433 -28 166 -15 217 21 76 13 -50 43 -132 67 -183z m-360 161
c-132 -179 -217 -399 -230 -595 l-6 -92 -45 32 c-24 18 -47 37 -49 44 -10 25
39 182 86 280 59 122 110 199 204 311 77 91 101 104 40 20z m-1601 -38 c5 0 8
-7 8 -15 0 -8 -3 -15 -6 -15 -8 0 -153 101 -159 110 -3 5 30 -12 72 -36 43
-24 81 -44 85 -44z m3558 39 c125 -27 244 -120 300 -232 109 -221 22 -495
-190 -604 -48 -25 -66 -28 -145 -28 -77 0 -98 4 -147 27 -173 81 -252 275
-173 428 18 35 72 82 113 99 86 36 193 -46 161 -125 l-12 -29 -9 33 c-11 39
-62 66 -106 56 -108 -26 -154 -156 -96 -273 46 -91 146 -146 261 -144 105 3
196 71 256 193 29 58 32 73 32 155 0 80 -3 97 -32 158 -60 126 -178 226 -328
279 l-80 28 75 -6 c41 -3 95 -10 120 -15z m-2186 -148 c-4 -11 -18 10 -45 68
-22 46 -39 86 -39 89 0 3 20 -27 45 -68 29 -46 43 -79 39 -89z m2048 68 c87
-29 159 -72 215 -127 149 -150 124 -384 -51 -475 -51 -26 -147 -28 -192 -4
-36 19 -94 81 -94 102 0 7 -3 22 -6 32 -4 10 5 2 19 -18 120 -169 377 -73 377
141 0 105 -68 197 -187 252 -53 25 -82 32 -157 36 -172 9 -321 -51 -447 -178
-73 -73 -80 -77 -131 -83 -30 -4 -69 -10 -87 -13 l-33 -7 20 40 c76 149 252
274 446 319 82 19 226 11 308 -17z m-4553 -117 c87 -47 152 -67 340 -107 213
-45 299 -70 336 -97 17 -13 78 -55 138 -95 59 -39 104 -74 99 -77 -4 -2 -35 8
-67 24 -82 39 -185 66 -302 79 -54 7 -138 16 -188 22 -49 5 -112 17 -138 25
-27 9 -51 14 -54 11 -10 -11 122 -220 192 -303 38 -45 96 -104 127 -131 63
-51 62 -57 -8 -68 -35 -6 -47 -1 -119 45 -161 105 -315 286 -405 475 -35 75
-88 220 -104 289 -7 29 -7 28 42 -16 27 -24 77 -59 111 -76z m-13 78 c91 -32
215 -50 338 -50 l112 0 52 -60 c29 -33 49 -60 45 -60 -5 0 -88 16 -185 35
-192 38 -305 74 -383 123 -59 37 -57 39 21 12z m1694 -125 c104 -67 177 -128
212 -177 l20 -29 -44 7 c-52 8 -82 25 -130 77 l-36 40 -12 -44 c-6 -24 -17
-64 -24 -89 l-13 -45 -27 57 c-15 31 -33 87 -41 125 -14 66 -20 143 -10 143 2
0 50 -29 105 -65z m-1955 11 c46 -21 55 -29 55 -51 l0 -26 -46 27 c-25 15 -82
40 -127 56 l-82 29 73 -5 c47 -3 92 -14 127 -30z m4853 19 c111 -33 185 -122
186 -224 1 -66 -23 -114 -74 -148 -63 -44 -173 -22 -211 41 -24 40 -24 67 2
100 23 29 50 34 69 10 11 -12 10 -18 -3 -31 -15 -15 -17 -15 -25 6 -8 22 -8
22 -25 3 -23 -26 -14 -64 23 -96 84 -71 204 -17 217 97 7 63 -11 110 -62 155
-90 79 -205 83 -311 11 -89 -60 -151 -205 -142 -330 5 -69 1 -80 -37 -102 -11
-6 -18 105 -19 284 l-1 87 -28 -15 c-44 -22 -42 -10 6 38 108 109 291 156 435
114z m-5027 -34 c82 -28 187 -77 222 -104 9 -8 17 -22 17 -31 0 -16 -3 -16
-33 2 -30 19 -177 66 -184 59 -6 -7 77 -183 106 -224 17 -24 28 -43 25 -43
-18 0 -65 34 -89 65 -23 31 -155 285 -155 300 0 7 -1 8 91 -24z m-731 -231
c122 -240 377 -447 645 -525 142 -41 256 -56 473 -62 l204 -6 -44 -38 -43 -38
-93 -1 c-256 -1 -521 57 -712 155 -259 134 -459 395 -495 645 -6 43 -5 42 18
-20 13 -36 34 -85 47 -110z m690 58 c17 -43 43 -94 56 -113 22 -33 22 -35 4
-35 -25 0 -64 67 -84 146 -29 111 -22 112 24 2z m494 -163 c73 -112 204 -247
301 -310 l76 -50 -48 -22 c-26 -12 -53 -22 -60 -22 -20 -1 -125 101 -183 180
-69 92 -147 242 -189 362 -42 119 -38 130 9 30 21 -46 64 -121 94 -168z m5133
78 c20 -244 -135 -458 -356 -492 -125 -20 -301 30 -371 104 l-24 26 64 -30
c329 -153 679 99 657 474 l-4 80 14 -45 c8 -25 17 -77 20 -117z m-477 28 c-6
-11 -20 -26 -32 -32 -20 -11 -19 -9 5 20 19 23 28 45 29 74 l1 42 4 -42 c2
-23 -1 -51 -7 -62z m-4900 13 c41 -22 51 -34 64 -72 8 -26 14 -48 12 -49 -8
-9 -89 62 -116 101 -36 53 -27 57 40 20z m2059 -211 c0 -54 -6 -136 -13 -183
-10 -77 -13 -83 -24 -62 -31 54 -52 175 -52 292 0 65 3 131 6 149 l6 31 39
-65 c38 -63 39 -65 38 -162z m2180 223 c-2 -2 -44 -20 -94 -40 -49 -20 -106
-47 -127 -61 -26 -18 -38 -21 -38 -12 0 31 69 70 173 97 76 19 93 23 86 16z
m86 -18 c-50 -170 -116 -300 -154 -306 l-21 -3 19 33 c22 37 66 176 59 184 -8
7 -212 -91 -227 -109 -16 -20 -31 -22 -31 -4 0 31 87 95 213 158 73 36 136 67
140 68 5 0 5 -9 2 -21z m-1195 -129 c41 -84 72 -163 78 -197 6 -31 8 -59 7
-61 -2 -2 -18 7 -35 19 -37 26 -56 62 -71 132 l-12 53 -63 -69 -64 -68 0 43
c0 24 5 64 10 89 10 44 70 200 77 200 2 0 35 -63 73 -141z m-783 -35 c117 -78
232 -190 333 -326 l88 -118 -16 -40 c-9 -22 -19 -40 -22 -40 -3 0 -34 40 -69
90 -77 109 -166 194 -290 278 -51 35 -94 62 -96 60 -1 -2 9 -88 22 -193 25
-200 58 -345 98 -432 13 -29 22 -53 19 -53 -20 0 -65 35 -86 67 -78 119 -107
210 -153 485 -19 116 -46 243 -60 284 -14 41 -25 77 -25 80 0 10 171 -85 257
-142z m2001 42 c-3 -38 -16 -87 -31 -120 -21 -46 -30 -56 -50 -56 l-25 0 33
63 c18 34 41 88 51 120 10 31 20 57 22 57 3 0 2 -29 0 -64z m-1943 -3 c143
-72 283 -183 381 -302 l53 -64 -16 -29 c-10 -15 -20 -28 -23 -28 -3 0 -24 26
-47 58 -94 133 -279 303 -418 382 -30 17 -55 33 -55 35 0 5 63 -21 125 -52z
m-1664 37 c85 -6 162 -18 205 -31 62 -19 67 -22 49 -35 -40 -29 -108 -29 -202
1 l-22 7 25 -82 c14 -45 23 -85 20 -88 -17 -16 -188 150 -227 221 -12 20 -24
20 152 7z m-2005 -89 c164 -58 275 -229 273 -420 0 -85 -17 -149 -18 -71 -2
115 -63 253 -146 328 -173 158 -433 162 -630 10 -35 -27 -33 -24 14 25 132
136 336 187 507 128z m2877 8 c55 -11 136 -34 179 -50 77 -30 78 -31 78 -66 0
-41 7 -42 -123 12 -152 63 -344 103 -512 107 -65 1 -67 1 -25 8 101 16 299 11
403 -11z m-2481 -126 c63 -79 177 -181 269 -240 32 -21 59 -41 59 -44 0 -4
-18 -18 -39 -32 l-40 -26 -62 52 c-109 92 -212 235 -258 357 -17 46 -18 51 -3
30 9 -13 43 -57 74 -97z m1028 97 c0 -11 -50 -12 -130 0 -51 7 -49 7 38 9 55
0 92 -3 92 -9z m1220 -25 c128 -19 248 -55 377 -113 l108 -49 6 -44 c4 -24 5
-45 4 -47 -1 -1 -44 18 -96 42 -52 25 -128 54 -169 65 -70 19 -240 41 -316 41
l-33 0 115 -152 c129 -170 211 -259 296 -323 l57 -43 -31 -4 c-49 -8 -171 59
-258 139 -40 37 -130 138 -201 224 -70 86 -158 184 -196 218 l-68 61 155 0
c85 0 198 -7 250 -15z m2730 0 c0 -3 -11 -28 -25 -54 -21 -42 -31 -51 -71 -65
-26 -9 -49 -14 -51 -13 -1 2 10 21 26 42 38 52 121 113 121 90z m-3144 -59
c11 -3 35 -27 53 -51 45 -63 151 -295 134 -295 -16 0 -97 77 -140 133 -43 55
-143 237 -143 259 0 5 17 -2 38 -15 20 -13 46 -27 58 -31z m2923 -150 c-17
-19 -20 2 -12 85 l8 84 6 -80 c3 -44 2 -84 -2 -89z m-5197 101 c143 -65 227
-204 216 -352 -14 -166 -139 -295 -286 -295 -33 0 -73 5 -89 11 -42 16 -92 69
-99 105 -9 47 12 102 46 119 47 24 63 19 33 -11 -21 -21 -24 -32 -20 -61 11
-63 65 -103 142 -103 200 0 281 285 125 441 -57 57 -120 79 -226 79 -287 0
-464 -308 -368 -639 3 -9 -11 15 -31 52 -103 194 -82 396 55 541 55 59 147
113 225 133 79 20 211 11 277 -20z m4356 -182 c-17 -33 -62 -103 -102 -155
-56 -75 -72 -91 -74 -74 -9 64 69 254 150 364 l43 58 6 -66 c6 -61 4 -73 -23
-127z m-889 -78 c18 -81 56 -191 86 -244 14 -25 25 -47 25 -49 0 -4 -72 8 -96
17 -60 22 -88 263 -57 479 6 42 8 39 18 -50 7 -52 18 -121 24 -153z m2272 186
c-91 -102 -131 -203 -187 -467 -54 -252 -64 -280 -150 -403 -42 -59 -82 -121
-90 -136 -8 -15 -19 -25 -24 -22 -6 4 1 27 14 54 57 111 76 196 101 440 9 84
24 178 34 207 10 30 16 54 14 54 -12 0 -110 -56 -189 -108 -98 -64 -205 -159
-265 -234 l-38 -48 -12 54 c-12 53 -11 55 21 108 145 236 373 407 680 509 63
21 119 38 123 39 5 0 -10 -21 -32 -47z m-2432 -120 c21 -42 29 -103 13 -103
-13 0 -31 46 -52 134 -24 100 -24 128 -1 61 10 -28 28 -69 40 -92z m2211 130
c-50 -18 -203 -101 -268 -145 -96 -64 -233 -201 -291 -292 l-45 -68 -23 52
c-13 29 -23 57 -23 61 0 22 152 161 233 213 130 85 359 186 417 185 13 -1 13
-1 0 -6z m-920 -258 c33 -66 71 -159 84 -207 26 -90 53 -254 57 -346 3 -50 1
-54 -33 -77 l-36 -25 -6 68 c-11 116 -26 202 -47 266 -28 82 -118 271 -125
263 -13 -12 -144 -331 -168 -406 -13 -42 -30 -114 -37 -161 -12 -82 -12 -83
-29 -62 -38 46 -37 188 1 332 11 41 49 153 85 249 36 96 75 216 87 268 l21 93
44 -67 c23 -38 70 -122 102 -188z m1428 112 c65 -34 142 -62 192 -70 14 -2 -5
-5 -42 -6 -95 -2 -208 -19 -299 -45 l-79 -23 0 73 c0 74 15 164 32 197 8 16
16 12 69 -37 33 -30 91 -70 127 -89z m-277 65 c-28 -53 -52 -193 -58 -335 l-6
-148 -58 -50 c-33 -28 -59 -49 -59 -47 0 14 62 320 75 368 18 68 54 154 86
207 22 36 38 39 20 5z m-2829 -1 c72 -19 181 -68 258 -116 29 -18 39 -34 58
-92 12 -39 40 -98 62 -132 49 -75 39 -78 -78 -21 -109 52 -192 110 -276 189
-62 60 -156 171 -156 185 0 12 58 6 132 -13z m-2987 -16 c45 -18 93 -63 117
-109 43 -82 22 -195 -44 -235 -22 -13 -22 -13 -7 5 63 73 42 204 -43 266 -166
124 -378 -9 -378 -236 0 -140 67 -269 197 -378 80 -66 221 -128 294 -128 21 0
36 -10 56 -36 15 -21 44 -55 63 -77 l35 -40 -100 5 c-167 9 -303 76 -433 212
-188 198 -224 495 -81 669 74 90 216 126 324 82z m3906 -103 c35 -37 85 -103
110 -146 l45 -77 -13 -62 c-7 -34 -13 -102 -13 -152 l-1 -90 -39 44 c-111 127
-197 340 -225 560 l-7 55 39 -32 c22 -17 69 -62 104 -100z m-1279 18 c81 -105
208 -228 275 -265 l51 -29 -51 -21 c-29 -12 -59 -18 -67 -14 -31 15 -115 106
-156 169 -38 59 -147 279 -126 255 5 -6 38 -48 74 -95z m-324 25 c7 -14 12
-28 12 -30 0 -2 -26 -7 -57 -10 -187 -22 -364 -74 -520 -154 -51 -27 -93 -47
-93 -45 0 2 33 27 73 55 159 113 397 205 538 208 29 1 38 -4 47 -24z m2420
-78 c95 -138 158 -281 185 -424 27 -140 28 -132 -5 -149 -17 -9 -31 -14 -33
-12 -1 2 -8 44 -14 93 -22 167 -70 324 -147 478 -24 48 -42 87 -40 87 2 0 26
-33 54 -73z m-4731 35 c85 -61 83 -210 -3 -243 -27 -10 -70 5 -78 27 -8 22 4
44 25 44 10 0 19 -7 19 -15 0 -8 -4 -15 -10 -15 -16 0 -11 -17 6 -24 27 -10
62 21 74 63 8 32 7 48 -6 80 -22 56 -56 81 -111 81 -117 0 -193 -92 -180 -218
23 -217 296 -300 515 -155 48 33 55 34 83 23 l30 -13 -49 -28 c-27 -15 -83
-52 -126 -83 -42 -30 -92 -61 -111 -67 -19 -7 -35 -16 -35 -19 0 -3 12 -13 28
-23 l27 -18 -48 5 c-112 13 -250 126 -310 253 -27 57 -32 80 -32 143 0 64 4
82 27 121 24 41 77 86 118 103 32 12 117 0 147 -22z m2559 -114 c21 -10 61
-78 46 -78 -13 0 -118 98 -154 143 l-33 42 60 -49 c33 -27 70 -53 81 -58z
m-1439 11 c-39 -22 -360 -123 -425 -135 -75 -13 -190 -19 -180 -9 2 3 39 14
81 24 98 25 203 69 307 129 l83 48 73 -25 c40 -14 68 -29 61 -32z m1266 17
l26 -34 -31 -6 c-17 -3 -49 -6 -72 -6 -57 0 -148 -17 -226 -42 -94 -30 -275
-117 -264 -127 17 -15 319 -139 403 -165 47 -15 121 -33 165 -39 l81 -13 -28
-19 c-43 -28 -161 -31 -277 -7 -52 11 -178 51 -280 89 -181 68 -265 94 -345
108 l-39 7 69 44 c96 62 275 148 365 177 101 33 273 62 376 66 48 1 54 -2 77
-33z m1817 -36 c-5 -29 -10 -68 -10 -88 0 -29 -36 -110 -45 -100 -11 11 51
256 61 245 2 -2 0 -28 -6 -57z m-4254 35 c17 -13 16 -13 -16 -4 -28 9 -44 8
-75 -5 l-40 -16 24 20 c27 23 79 26 107 5z m6459 -14 c27 -7 24 -8 -25 -15
-163 -22 -287 -58 -414 -120 l-86 -42 0 53 c0 51 1 53 37 68 40 17 169 51 218
58 49 7 238 5 270 -2z m-2056 -104 c-56 -137 -90 -261 -96 -359 l-6 -87 -44
37 c-43 36 -44 38 -38 82 10 63 48 162 92 234 40 65 123 186 128 186 1 0 -15
-42 -36 -93z m-2886 66 c158 -7 180 -24 46 -35 -104 -8 -187 -33 -358 -110
-151 -68 -234 -98 -268 -98 -37 0 -27 -13 40 -52 167 -97 312 -154 450 -178
l65 -12 -39 -35 -40 -36 -112 6 c-145 8 -269 42 -414 112 -120 59 -275 169
-358 255 l-50 52 45 -9 c73 -13 239 -7 310 11 36 10 133 40 215 66 190 63 262
80 300 74 17 -2 92 -7 168 -11z m5217 -66 c41 -15 64 -24 50 -21 -57 13 -290
16 -355 5 -145 -26 -314 -93 -444 -178 -78 -52 -235 -211 -310 -316 -34 -48
-98 -146 -141 -218 l-78 -130 -7 66 c-6 60 -4 69 21 113 163 281 384 507 599
615 149 74 260 97 445 93 126 -2 155 -6 220 -29z m-7263 -87 c83 -299 257
-511 503 -616 241 -104 531 -79 848 71 l94 45 28 -20 c35 -25 190 -100 207
-100 31 0 4 -20 -122 -88 -271 -148 -453 -211 -636 -219 -285 -13 -510 68
-694 252 -129 129 -202 266 -240 449 -19 93 -32 306 -19 306 5 0 19 -36 31
-80z m3139 16 c36 -30 93 -69 127 -87 l62 -33 -30 -9 c-17 -6 -97 -10 -180
-10 -122 -1 -166 3 -238 21 -112 28 -251 82 -239 94 15 15 150 58 210 67 31 5
94 9 140 10 l83 1 65 -54z m-1086 -26 c-26 -37 -62 -56 -131 -71 l-53 -11 66
-64 66 -64 -47 0 c-60 0 -143 22 -223 58 l-63 29 135 67 c80 39 161 72 200 80
36 7 67 12 69 10 2 -1 -7 -17 -19 -34z m3905 -82 c-7 -135 -26 -241 -48 -285
l-15 -27 -16 38 c-20 48 -20 79 -1 141 8 27 12 51 10 54 -3 2 -39 -6 -80 -18
-42 -13 -78 -21 -81 -18 -12 11 93 131 158 181 40 31 75 56 77 56 2 0 0 -55
-4 -122z m1355 91 c238 -59 443 -231 590 -494 l34 -60 -80 75 c-152 145 -301
231 -470 271 -74 18 -110 20 -209 17 -144 -6 -263 -41 -390 -116 -101 -59
-286 -241 -370 -364 l-60 -87 -75 -1 c-41 0 -104 -5 -139 -10 -35 -6 -65 -9
-68 -6 -6 6 147 254 214 344 73 100 192 223 268 277 223 159 504 216 755 154z
m-3558 -76 c-34 -21 -88 -61 -119 -88 -32 -28 -85 -64 -118 -80 -79 -39 -172
-134 -212 -216 -48 -97 -64 -170 -64 -289 0 -123 29 -240 88 -352 38 -72 133
-184 197 -230 55 -39 35 -35 -36 8 -168 102 -289 265 -334 449 -26 106 -24
279 5 380 81 288 288 449 585 454 l70 1 -62 -37z m507 -18 c57 -19 181 -80
181 -88 0 -1 -36 -3 -81 -4 -44 -1 -106 -9 -137 -17 -36 -9 -82 -12 -127 -9
-142 11 -288 -49 -400 -162 -184 -186 -251 -481 -165 -734 10 -30 17 -58 15
-60 -3 -2 -22 33 -44 79 -57 117 -75 207 -69 344 9 199 87 368 237 508 174
164 382 214 590 143z m910 -28 c31 -84 51 -198 51 -293 0 -87 0 -88 -38 -133
-51 -62 -100 -134 -117 -174 l-13 -32 -11 26 c-17 47 -24 210 -12 304 18 139
86 355 112 355 4 0 17 -24 28 -53z m-2933 -42 c22 -13 78 -52 124 -87 94 -71
90 -82 -22 -53 -85 21 -173 64 -265 127 l-77 53 65 5 c68 6 104 -3 175 -45z
m-1194 -12 c10 -9 18 -19 18 -22 0 -3 -31 -7 -68 -7 -58 -1 -147 -15 -202 -31
-40 -11 72 43 120 58 70 23 109 23 132 2z m346 -152 c136 -68 333 -121 454
-121 l60 0 -36 -47 c-33 -46 -37 -48 -78 -45 -69 4 -146 30 -263 88 -112 55
-289 180 -355 249 -30 32 -22 28 63 -29 53 -36 123 -79 155 -95z m1270 43 c48
-14 128 -28 178 -32 l92 -7 -38 -44 -38 -44 -64 12 c-84 17 -187 66 -298 141
-50 34 -92 66 -95 70 -3 4 36 -10 86 -31 50 -22 130 -51 177 -65z m-1551 23
c16 -16 14 -17 -38 -17 -30 0 -80 -7 -110 -16 -88 -25 -87 -24 -64 -36 11 -6
50 -33 88 -60 37 -28 88 -58 115 -68 46 -18 46 -18 19 -25 -43 -11 -125 24
-257 112 -65 43 -119 81 -119 84 -1 3 38 13 87 22 48 9 96 19 107 21 47 11
155 0 172 -17z m2052 -31 c-16 -30 -40 -86 -53 -124 -13 -39 -43 -101 -65
-138 -103 -171 -106 -352 -8 -547 32 -66 60 -101 136 -178 79 -79 111 -103
181 -137 47 -23 117 -49 155 -58 39 -9 79 -21 90 -25 31 -14 -151 1 -214 17
-137 35 -304 145 -387 255 -255 338 -206 740 115 948 35 22 67 41 72 41 4 0
-6 -24 -22 -54z m1321 24 c94 -15 217 -78 289 -148 53 -52 141 -173 141 -193
0 -5 -28 7 -62 25 -35 19 -90 42 -123 52 -33 10 -78 30 -100 45 -154 102 -312
123 -483 65 -234 -79 -429 -300 -475 -538 -7 -32 -15 -58 -20 -58 -10 0 1 117
19 196 78 355 453 610 814 554z m1299 -47 c-18 -32 -44 -68 -58 -81 -44 -39
-297 -160 -309 -147 -6 6 59 80 105 119 57 49 145 104 221 136 37 16 68 29 70
30 1 0 -12 -26 -29 -57z m-1779 33 c0 -2 -27 -20 -59 -40 -81 -50 -188 -159
-239 -246 -24 -40 -57 -113 -75 -164 -29 -85 -31 -100 -32 -233 0 -78 -1 -140
-3 -139 -10 11 -32 171 -32 234 1 211 101 413 257 516 61 40 183 89 183 72z
m3320 -41 c158 -33 293 -122 378 -249 80 -120 104 -229 73 -337 -45 -159 -229
-248 -368 -178 -87 45 -134 146 -104 224 6 15 9 8 13 -28 15 -135 171 -214
294 -150 178 93 177 324 -2 482 -60 53 -128 86 -234 112 -107 27 -223 22 -322
-14 l-67 -24 -80 31 c-44 17 -79 35 -78 40 6 19 106 67 178 85 91 24 221 27
319 6z m-3863 -67 c-144 -250 -120 -597 59 -834 l37 -49 -38 35 c-51 48 -118
144 -154 220 -84 177 -79 399 13 554 29 49 96 129 103 122 3 -2 -6 -24 -20
-48z m-2237 7 c33 -34 33 -35 10 -35 -39 0 -133 30 -160 50 l-25 20 71 0 c67
0 71 -1 104 -35z m1010 -5 c0 -4 -26 -24 -57 -46 -118 -80 -285 -263 -400
-440 -24 -37 6 37 50 120 71 138 183 272 311 374 39 30 40 31 68 14 15 -9 28
-19 28 -22z m227 13 c54 -4 78 -11 100 -29 l28 -24 -35 6 c-64 11 -147 33
-181 49 -25 11 -27 14 -9 10 14 -3 57 -8 97 -12z m-1595 -44 c35 -28 87 -63
116 -77 47 -24 50 -27 31 -34 -30 -11 -89 25 -164 101 -33 34 -56 61 -52 61 4
0 35 -23 69 -51z m4965 -174 c-7 -237 -37 -367 -132 -571 l-43 -92 -43 -4
c-24 -3 -45 -4 -47 -2 -2 1 14 37 36 80 62 123 90 226 104 379 6 74 9 137 6
140 -8 8 -288 -206 -368 -282 -37 -35 -85 -89 -106 -120 l-39 -56 -3 41 c-4
47 18 95 83 188 51 71 123 139 289 273 67 54 153 132 191 173 59 64 71 72 74
54 2 -11 1 -102 -2 -201z m1984 75 c86 -86 124 -155 138 -252 27 -195 -77
-386 -258 -476 -71 -35 -80 -37 -170 -37 -83 0 -104 4 -151 26 -140 66 -227
225 -200 367 26 141 120 233 240 235 56 1 105 -24 125 -63 26 -50 16 -120 -19
-133 -11 -5 -13 1 -9 26 11 67 -69 118 -152 96 -53 -15 -108 -73 -125 -133
-42 -152 71 -315 236 -342 97 -15 252 62 318 159 48 69 66 132 66 227 0 133
-50 256 -147 361 l-58 63 45 -25 c25 -13 79 -58 121 -99z m-5447 51 c-5 -4
-40 -29 -79 -56 -106 -74 -185 -155 -271 -276 -42 -61 -75 -111 -73 -113 5 -4
99 7 297 35 141 19 273 54 345 90 20 11 37 17 37 14 0 -21 -35 -65 -67 -87
-118 -78 -231 -113 -505 -158 -103 -17 -221 -42 -263 -55 -41 -14 -78 -25 -80
-25 -11 0 77 162 134 248 85 126 195 239 334 343 l119 89 40 -21 c22 -11 36
-24 32 -28z m3017 -26 c-27 -35 -53 -71 -58 -78 -11 -19 -73 -50 -73 -37 0 10
165 180 175 180 3 0 -17 -29 -44 -65z m-4017 46 c3 -5 -27 -23 -67 -41 -106
-47 -109 -47 -32 3 72 46 90 53 99 38z m3091 -25 l40 -12 -85 -7 c-279 -22
-511 -173 -639 -416 -46 -87 -52 -81 -16 16 78 205 245 366 436 417 66 18 209
19 264 2z m-1765 -55 l115 -6 -59 -47 c-81 -64 -234 -142 -337 -172 -88 -25
-246 -52 -255 -43 -8 8 146 166 195 200 102 70 143 88 186 81 22 -4 92 -10
155 -13z m4226 -5 c43 -14 76 -25 73 -25 -3 -1 -52 6 -109 15 -59 8 -122 12
-144 8 -37 -6 -39 -5 -27 10 20 24 112 20 207 -8z m503 5 c161 -50 261 -162
261 -291 0 -120 -72 -200 -179 -200 -52 0 -101 35 -130 93 -28 57 -22 98 20
129 34 25 82 10 77 -24 -2 -13 -11 -24 -22 -26 -16 -3 -18 0 -12 22 7 30 0 32
-33 10 -20 -14 -23 -23 -18 -61 9 -83 97 -140 170 -110 40 17 81 64 97 112 29
88 -25 198 -120 248 -49 26 -63 28 -130 25 -52 -3 -90 -11 -125 -28 -68 -33
-155 -123 -185 -193 -23 -52 -27 -57 -58 -57 -35 0 -35 1 -1 51 10 14 35 63
55 110 20 46 50 103 66 127 l29 42 -37 0 c-44 0 -40 7 13 25 57 21 190 19 262
-4z m-2762 -61 c224 -58 393 -229 437 -442 9 -42 16 -107 16 -144 l0 -68 -37
62 c-21 34 -60 86 -87 117 -26 31 -62 84 -79 118 -40 80 -135 173 -219 215
-100 49 -184 65 -318 60 -199 -8 -343 -71 -488 -216 l-84 -83 29 53 c45 84
183 216 278 265 177 91 359 112 552 63z m888 12 c-6 -5 -39 -31 -75 -58 -105
-79 -208 -183 -258 -259 l-47 -72 -22 56 -22 55 77 76 c66 64 97 86 210 143
126 64 158 77 137 59z m344 -202 c1 -152 -18 -263 -66 -395 -29 -80 -30 -80
-68 -83 -28 -3 -36 0 -32 10 104 245 145 415 148 606 2 135 18 16 18 -138z
m1135 182 l39 -7 -69 -61 c-67 -59 -159 -123 -198 -138 -10 -3 -28 -4 -39 0
-18 6 -16 8 11 21 32 16 152 120 152 132 0 11 -210 31 -255 25 -38 -6 -39 -5
-24 11 9 9 32 21 50 26 36 9 266 3 333 -9z m-482 -34 c-10 -18 -34 -59 -51
-91 -18 -31 -37 -55 -42 -51 -11 6 -10 8 54 102 51 74 74 97 39 40z m-3471
-176 c39 -262 207 -484 451 -597 77 -36 11 -20 -82 19 -200 85 -346 242 -395
426 -18 68 -19 195 -2 258 l12 47 2 -40 c2 -22 8 -73 14 -113z m3947 87 c-67
-96 -134 -143 -173 -122 -13 8 -5 16 42 45 32 20 83 59 113 87 30 27 56 50 58
51 2 0 -16 -27 -40 -61z m-5281 -18 c-21 -57 -22 -59 -112 -108 -177 -99 -369
-170 -538 -199 -123 -22 -330 -15 -442 15 -161 42 -350 157 -440 267 l-40 49
63 -51 c131 -106 264 -168 443 -204 144 -30 361 -24 494 13 128 36 309 115
460 201 72 41 131 75 132 75 1 1 -8 -25 -20 -58z m5001 26 c-60 -49 -79 -55
-133 -43 l-50 12 32 17 c39 21 95 35 143 36 l35 0 -27 -22z m-3960 -239 c5
-19 7 -66 5 -104 -19 -278 206 -527 535 -590 130 -25 271 -12 396 37 69 27 47
9 -42 -36 -387 -193 -874 1 -1014 405 -46 133 -31 287 44 439 l42 86 12 -101
c7 -56 17 -117 22 -136z m1766 202 c96 -24 159 -58 228 -121 l53 -49 -78 39
c-121 61 -221 84 -357 85 -168 0 -294 -38 -433 -131 l-82 -54 40 41 c50 51
154 122 232 156 124 55 266 68 397 34z m1961 -100 c61 -6 144 -18 184 -28 l74
-17 -204 -1 c-188 0 -212 -2 -304 -27 -55 -15 -139 -46 -187 -70 -97 -47 -93
-49 -82 36 l6 45 63 20 c82 28 188 45 305 50 19 1 85 -3 145 -8z m1057 -41
c-22 -20 -42 -29 -65 -28 l-32 1 34 8 c18 4 45 20 59 34 14 14 28 23 31 20 4
-3 -9 -19 -27 -35z m-3043 16 c151 -32 280 -105 392 -223 86 -89 131 -169 159
-278 35 -137 19 -261 -52 -404 l-42 -85 -8 70 c-4 39 -13 97 -19 130 -7 33
-11 94 -10 136 5 157 -48 289 -165 405 -193 192 -506 254 -765 151 -83 -34
-50 -7 56 44 44 22 110 46 145 53 87 19 222 19 309 1z m1052 -80 c-24 -115
-50 -183 -103 -269 -39 -62 -48 -71 -93 -86 -58 -20 -147 -64 -189 -93 l-29
-21 7 30 c23 99 152 299 257 400 53 51 161 136 166 131 1 -2 -6 -43 -16 -92z
m-3881 55 c0 -5 -25 -25 -55 -45 -81 -51 -167 -144 -274 -293 -52 -73 -117
-154 -146 -181 l-51 -49 55 -5 c77 -6 286 9 362 27 56 13 137 39 191 61 16 6
16 3 0 -44 -15 -47 -21 -54 -76 -85 -190 -105 -442 -153 -668 -127 -123 14
-302 52 -291 61 4 4 26 13 48 20 22 7 69 28 105 48 65 35 119 86 390 368 113
116 117 120 217 163 56 24 119 54 140 67 42 26 53 29 53 14z m873 -52 c-16
-83 -15 -82 -89 -107 -61 -22 -86 -25 -214 -25 -80 0 -163 4 -185 8 -38 8 -34
10 60 22 146 19 261 50 346 93 41 21 77 39 81 39 4 1 5 -13 1 -30z m4212 1
c89 -14 205 -42 205 -48 0 -4 -29 -17 -64 -29 -122 -44 -183 -96 -457 -393
l-107 -115 -157 -77 c-86 -42 -158 -77 -161 -77 -17 0 7 23 69 67 86 59 152
133 269 298 47 66 109 142 138 169 l52 49 -178 -6 c-185 -6 -278 -21 -392 -66
-29 -12 -52 -18 -52 -15 0 3 5 25 11 50 11 44 14 47 98 88 133 67 252 100 431
120 50 6 224 -3 295 -15z m-6174 -119 c85 -24 244 -50 307 -50 23 0 42 -2 42
-5 0 -3 -9 -24 -20 -45 -25 -48 -32 -49 -161 -16 -142 36 -262 95 -364 181
-27 23 -23 22 46 -9 41 -19 109 -44 150 -56z m3816 65 c180 -34 333 -148 412
-306 57 -112 54 -143 -4 -56 -105 156 -246 259 -435 318 -63 20 -96 24 -212
24 -134 0 -141 5 -33 24 79 14 187 12 272 -4z m3564 -72 c-31 -120 -131 -251
-241 -316 -118 -69 -263 -73 -386 -12 -109 53 -210 170 -239 275 -5 17 3 10
22 -20 17 -25 54 -68 84 -96 175 -164 434 -164 616 0 56 51 113 131 134 188
18 52 24 39 10 -19z m-6328 -5 c-6 -50 -40 -104 -84 -137 -17 -13 -27 -27 -22
-31 4 -4 43 -16 86 -25 42 -9 77 -19 77 -21 0 -10 -90 -47 -157 -65 -75 -19
-163 -26 -163 -12 0 21 158 238 205 282 31 28 58 51 60 51 2 0 1 -19 -2 -42z
m5215 -45 c-77 -75 -143 -161 -208 -271 -31 -54 -49 -74 -69 -78 -14 -3 -50
-11 -79 -18 -48 -12 -51 -12 -39 3 186 222 312 349 397 399 30 17 58 32 62 32
3 0 -25 -30 -64 -67z m176 23 c7 -44 57 -156 95 -211 11 -16 46 -56 78 -88
l57 -58 -77 45 c-80 45 -275 116 -321 116 -14 0 -26 4 -26 8 0 31 157 232 181
232 4 0 10 -20 13 -44z m-5794 19 c0 -12 -252 -291 -295 -328 -44 -38 -152
-107 -166 -107 -4 0 24 30 62 67 84 81 133 144 199 254 l51 84 62 17 c69 18
87 21 87 13z m3080 -11 c36 -8 97 -30 136 -49 409 -197 555 -733 283 -1039
-44 -48 -187 -156 -209 -156 -4 0 7 28 25 63 18 34 43 91 54 126 11 35 36 87
54 115 143 216 103 501 -99 715 -114 122 -245 196 -394 226 l-65 13 75 1 c41
0 104 -6 140 -15z m-403 -25 c34 -13 80 -55 99 -91 22 -42 18 -124 -8 -170
-66 -117 -246 -118 -314 -2 -28 47 -33 129 -10 172 18 35 64 78 96 91 34 13
102 13 137 0z m-3642 -25 c114 -29 229 -119 283 -222 45 -86 50 -116 9 -57
-106 154 -281 234 -450 206 -155 -26 -287 -125 -361 -271 -35 -68 -38 -71 -32
-35 11 65 73 181 131 243 82 89 209 149 320 151 23 1 68 -6 100 -15z m1766 4
c49 -6 89 -15 89 -19 0 -15 -133 -51 -215 -58 -46 -5 -121 -5 -167 0 -46 4
-87 8 -92 8 -5 1 19 19 55 41 62 38 67 39 153 40 49 0 129 -5 177 -12z m910
-160 c22 -26 70 -70 107 -98 150 -114 310 -164 501 -158 107 3 111 2 70 -10
-74 -22 -253 -26 -339 -8 -116 24 -231 86 -310 166 -67 68 -124 165 -136 231
-6 33 -5 32 31 -20 20 -30 54 -76 76 -103z m-406 110 c-10 -44 -68 -159 -118
-233 -64 -95 -213 -241 -293 -288 -17 -10 3 106 35 198 31 92 105 224 129 231
72 22 155 59 197 88 28 19 51 35 53 35 2 1 0 -14 -3 -31z m1702 7 c207 -78
369 -249 418 -440 18 -72 19 -185 3 -257 l-13 -53 -2 45 c-17 314 -163 553
-422 689 -87 46 -81 52 16 16z m-1952 6 c7 -12 -84 -46 -160 -60 -84 -16 -88
-13 -20 13 33 12 74 30 90 39 33 18 81 22 90 8z m3955 -140 c-45 -66 -106
-143 -137 -171 -30 -28 -57 -50 -58 -48 -2 2 1 25 5 51 6 40 16 57 60 102 l53
53 -39 11 c-21 5 -58 14 -82 20 -24 5 -46 12 -49 15 -3 3 19 17 50 31 61 28
167 53 235 54 l43 1 -81 -119z m-1904 -34 c290 -271 310 -747 44 -1018 -109
-111 -252 -169 -420 -169 l-75 0 58 33 c31 17 84 56 118 86 33 29 86 66 117
82 246 124 346 424 247 737 -35 111 -88 196 -183 290 l-83 84 52 -29 c29 -15
85 -59 125 -96z m-4002 29 c67 -33 140 -110 174 -184 66 -144 10 -326 -122
-395 -53 -27 -140 -29 -179 -3 -59 40 -76 125 -32 166 l24 23 -5 -34 c-7 -44
23 -84 76 -100 101 -31 210 74 210 202 0 160 -173 303 -326 269 -129 -29 -244
-128 -283 -241 -55 -163 -8 -347 131 -513 l33 -40 -33 20 c-92 54 -186 156
-224 243 -99 231 39 519 290 602 80 27 193 20 266 -15z m1775 -57 c-74 -148
-103 -260 -115 -443 l-7 -107 148 112 c173 131 271 221 332 303 l43 58 0 -41
c0 -63 -58 -167 -150 -265 -25 -27 -115 -106 -201 -177 -86 -70 -186 -160
-222 -200 l-67 -73 0 164 c0 255 36 421 138 642 l40 87 44 3 c23 2 44 2 46 2
2 -1 -11 -30 -29 -65z m-129 58 c0 -2 -18 -46 -39 -99 -70 -170 -110 -353
-112 -513 -2 -132 -18 -24 -18 126 -1 141 16 259 53 364 44 129 42 125 81 125
19 0 35 -1 35 -3z m2286 -114 c180 -250 177 -571 -7 -765 l-50 -53 31 56 c143
264 128 572 -41 823 -40 59 -41 60 -9 31 17 -16 52 -58 76 -92z m1324 88 c-30
-10 -74 -28 -98 -40 -28 -14 -56 -21 -80 -19 l-37 4 48 22 c46 21 162 50 202
51 11 0 -5 -8 -35 -18z m-2881 -162 c29 -33 66 -86 82 -117 169 -336 682 -386
996 -98 36 33 79 78 95 100 43 59 33 30 -16 -47 -51 -82 -140 -174 -215 -224
-275 -183 -672 -153 -892 66 -111 111 -169 259 -169 429 l0 67 33 -58 c17 -31
56 -84 86 -118z m3294 144 l38 -6 -61 -38 -61 -39 -107 1 c-59 0 -143 6 -187
13 -73 11 -78 13 -57 24 54 30 168 51 282 51 63 1 132 -2 153 -6z m966 -39
c103 -30 238 -99 306 -155 28 -23 46 -40 40 -38 -5 3 -32 15 -60 28 -125 58
-264 93 -427 107 -43 3 -78 8 -78 11 0 2 9 22 21 44 l20 41 47 -7 c25 -4 84
-18 131 -31z m-2764 -96 c176 -370 -18 -845 -402 -985 -144 -52 -301 -39 -456
40 l-82 42 40 3 c22 1 81 10 130 19 50 9 128 15 175 14 144 -3 270 45 376 142
156 142 245 395 216 610 -9 73 -19 109 -57 212 -16 43 25 -24 60 -97z m-3895
0 c38 -23 61 -46 77 -77 24 -46 30 -114 13 -141 -8 -12 -10 -9 -10 13 0 15 -7
44 -16 65 -61 147 -248 169 -357 42 -95 -111 -68 -283 64 -405 72 -66 135
-100 237 -126 121 -31 284 -20 370 25 25 13 34 12 97 -15 39 -16 79 -33 89
-37 15 -7 6 -15 -51 -45 -180 -94 -424 -90 -616 10 -188 98 -318 319 -287 485
28 143 135 238 270 238 57 0 73 -5 120 -32z m3826 -168 c7 -133 -11 -225 -67
-339 -69 -141 -217 -265 -340 -287 -31 -6 -28 -2 30 37 234 156 361 407 349
688 -5 104 -4 105 9 56 8 -27 16 -97 19 -155z m1825 113 c-105 -210 -275 -407
-464 -540 l-87 -61 -40 16 c-22 9 -40 20 -40 23 0 3 38 31 84 62 102 69 200
171 284 294 34 50 62 93 62 95 0 7 -304 -32 -410 -53 -58 -11 -142 -35 -187
-53 -46 -18 -83 -30 -83 -27 3 52 134 137 275 180 39 12 162 36 275 55 113 19
239 46 280 59 41 14 78 25 83 26 4 1 -10 -34 -32 -76z m-321 47 l45 -7 -42 -2
c-134 -4 -366 -63 -461 -118 -24 -14 -45 -23 -46 -21 -2 1 2 28 8 58 11 53 12
55 58 72 26 10 76 22 110 27 64 10 247 5 328 -9z m1341 -26 c205 -39 394 -142
508 -276 38 -45 37 -45 -47 21 -209 162 -531 236 -814 186 -156 -27 -389 -124
-624 -259 l-62 -36 21 56 c23 63 35 73 188 149 301 152 584 206 830 159z
m-5261 -28 c0 -7 -3 -34 -6 -59 -6 -42 -9 -46 -49 -61 -136 -52 -418 -68 -598
-32 -142 27 -136 32 40 28 228 -6 384 25 535 103 73 38 78 39 78 21z m-1436
-29 c43 -33 72 -103 59 -143 -5 -15 -21 -37 -36 -48 -22 -16 -31 -18 -52 -8
-27 13 -34 46 -10 55 18 7 27 -6 19 -27 -8 -21 14 -21 38 1 39 35 9 126 -51
158 -74 38 -154 5 -192 -80 -23 -51 -24 -99 0 -150 60 -133 196 -182 345 -125
78 30 172 123 207 202 22 52 27 58 55 58 l30 0 -72 -146 c-40 -80 -80 -154
-90 -165 -17 -18 -16 -19 22 -19 l39 -1 -28 -15 c-49 -27 -132 -36 -210 -24
-138 21 -262 102 -314 204 -51 101 -16 237 74 286 52 28 120 22 167 -13z
m3771 -29 c-32 -328 -215 -562 -520 -663 -214 -72 -437 -30 -594 111 -45 41
-151 183 -151 204 0 4 28 -7 63 -25 34 -19 91 -43 127 -55 36 -12 88 -36 115
-54 163 -107 360 -112 558 -13 108 54 254 197 309 302 38 75 78 192 78 231 0
13 5 24 10 24 7 0 9 -22 5 -62z m-99 -36 c-74 -221 -247 -394 -446 -447 -67
-18 -190 -19 -262 -3 l-53 12 90 7 c212 17 388 99 523 244 63 67 130 171 153
238 8 21 15 34 17 29 1 -5 -8 -41 -22 -80z m-167 22 c-82 -86 -217 -164 -337
-195 -138 -35 -273 -23 -397 36 -64 30 -172 111 -162 121 2 3 24 -7 48 -21 24
-14 87 -39 139 -57 86 -28 107 -31 225 -32 94 -1 148 4 195 17 80 21 233 96
280 136 47 41 51 39 9 -5z m-1233 -39 l18 -56 -55 -55 c-67 -70 -159 -131
-283 -188 -53 -25 -96 -43 -96 -41 0 2 30 25 68 51 96 69 224 195 278 275 26
38 49 69 50 69 2 0 11 -25 20 -55z m4447 10 c367 -64 637 -325 711 -687 19
-93 33 -308 20 -308 -5 0 -17 30 -27 68 -27 102 -78 219 -136 309 -59 93 -188
220 -274 272 -111 66 -280 111 -418 111 -142 0 -351 -54 -527 -136 l-93 -43
-51 31 c-27 17 -83 45 -124 63 -54 24 -71 35 -62 42 7 6 67 40 133 75 201 110
379 180 520 206 78 15 234 13 328 -3z m-6803 -5 c-21 -5 -48 -23 -67 -45 -23
-27 -30 -31 -26 -16 9 34 60 71 96 70 l32 -1 -35 -8z m5699 -111 c-84 -168
-178 -289 -312 -401 l-58 -48 -30 17 c-16 10 -29 20 -29 23 1 3 37 32 81 65
108 80 240 220 319 337 36 53 66 95 68 93 2 -2 -16 -41 -39 -86z m-5039 41
c17 -11 16 -12 -35 -38 -22 -11 -73 -48 -114 -82 l-73 -62 30 43 c48 68 74 97
112 124 38 26 57 30 80 15z m88 -39 c10 -6 5 -12 -18 -21 -17 -7 -58 -40 -93
-73 l-62 -61 95 -13 c52 -8 118 -11 147 -8 43 4 51 3 47 -9 -11 -30 -103 -39
-275 -30 l-164 9 89 77 c81 69 185 137 211 138 6 0 16 -4 23 -9z m4591 -18
c-87 -112 -150 -168 -271 -240 l-68 -40 -62 13 c-35 8 -100 14 -145 14 -46 0
-83 4 -83 9 0 13 110 90 192 136 84 46 211 89 308 105 41 6 82 13 90 15 8 1
23 3 34 4 16 1 17 -1 5 -16z m-3909 -8 c0 -15 -155 -260 -221 -349 -178 -240
-358 -367 -605 -427 -116 -29 -297 -30 -399 -5 -250 64 -458 236 -605 501
l-34 60 85 -81 c134 -127 265 -207 419 -256 65 -20 95 -23 230 -23 148 0 159
1 242 31 154 55 229 105 368 244 75 74 148 158 180 207 l55 82 85 1 c47 1 105
5 130 9 60 11 70 12 70 6z m-381 -27 c-14 -27 -101 -148 -106 -148 -2 0 8 19
22 43 14 23 36 61 48 85 11 23 27 42 34 42 11 0 11 -5 2 -22z m-147 6 c44 -8
41 -18 -10 -40 -37 -15 -152 -31 -152 -21 0 10 93 67 109 67 9 0 33 -3 53 -6z
m605 -157 c-169 -293 -374 -504 -597 -617 -214 -108 -460 -133 -672 -70 -65
20 -97 39 -41 25 127 -31 317 -23 467 20 317 92 538 286 772 678 l79 132 10
-60 c10 -57 9 -62 -18 -108z m965 57 c12 -93 4 -239 -18 -339 -18 -78 -83
-255 -94 -255 -10 0 -58 146 -70 214 -5 33 -10 97 -10 143 l0 84 53 64 c30 36
67 92 83 124 16 32 33 55 37 51 5 -4 13 -43 19 -86z m-222 -42 c0 -13 -97
-118 -142 -153 l-41 -33 57 73 c31 40 56 76 56 80 0 4 15 15 33 24 39 19 37
19 37 9z m4579 -57 c170 -41 362 -193 436 -348 69 -146 80 -321 26 -442 -59
-134 -212 -209 -344 -171 -157 46 -229 233 -127 331 l31 30 -20 -45 c-36 -79
-21 -152 43 -216 68 -68 172 -82 264 -35 149 76 176 311 58 495 -81 125 -243
236 -382 259 -48 8 -73 17 -84 31 -8 11 -34 44 -57 73 l-43 53 67 0 c38 0 97
-7 132 -15z m-6191 -16 c46 -6 101 -9 123 -6 45 6 52 -8 12 -24 -34 -13 -133
1 -213 31 -30 11 -44 18 -30 16 14 -3 62 -10 108 -17z m908 -50 c-53 -97 -76
-196 -101 -438 -9 -84 -24 -178 -34 -207 -10 -30 -14 -54 -10 -54 16 0 181
100 249 150 38 28 107 91 153 140 l85 89 12 -49 c12 -48 11 -51 -20 -102 -115
-186 -267 -322 -485 -431 -81 -40 -222 -93 -299 -111 -29 -7 -29 -7 14 41 89
102 130 203 185 460 56 261 62 277 167 432 51 77 96 136 101 132 4 -4 -3 -27
-17 -52z m509 6 c-53 -64 -154 -138 -260 -190 -50 -25 -94 -45 -97 -45 -3 0
10 29 28 64 34 64 62 89 154 136 59 30 204 89 209 85 2 -2 -14 -25 -34 -50z
m3765 23 c148 -46 354 -169 480 -288 66 -62 65 -70 -1 -19 -161 125 -409 221
-607 235 l-90 7 35 49 c35 48 36 49 77 42 23 -3 70 -15 106 -26z m755 -19 c38
-25 125 -112 125 -124 0 -3 -28 17 -62 45 -35 27 -86 62 -115 77 -40 21 -48
29 -35 34 22 8 37 2 87 -32z m-340 -14 c-67 -43 -95 -54 -95 -37 0 8 138 80
155 81 6 1 -21 -19 -60 -44z m235 -15 c27 -11 105 -57 173 -103 l124 -83 -86
-18 c-47 -10 -126 -21 -176 -23 -80 -5 -92 -3 -107 14 -17 19 -16 19 32 20 51
1 180 31 180 42 -1 13 -182 133 -215 144 -24 7 -31 13 -23 19 20 12 43 10 98
-12z m-3855 -104 c13 -122 -10 -227 -111 -496 -40 -107 -80 -232 -90 -278
l-18 -83 -44 68 c-65 100 -158 296 -186 395 -28 97 -56 270 -56 346 0 45 3 52
34 76 l34 26 7 -78 c14 -170 48 -290 131 -453 19 -40 39 -68 43 -63 15 17 139
320 164 399 14 45 31 118 38 164 13 81 13 83 30 62 10 -12 20 -49 24 -85z
m2426 38 c58 -14 148 -50 99 -40 -14 3 -56 9 -95 12 -42 4 -83 14 -102 26 -18
11 -33 21 -33 23 0 6 68 -5 131 -21z m1359 -22 l55 -27 -69 -3 c-69 -3 -70 -2
-105 34 l-36 36 50 -7 c28 -3 75 -18 105 -33z m-1613 -3 c31 -10 82 -33 112
-50 54 -31 211 -137 211 -143 0 -2 -42 14 -93 35 -134 55 -260 89 -354 96 -46
3 -83 8 -83 10 0 2 15 22 33 44 30 38 34 39 75 34 23 -4 68 -15 99 -26z
m-3162 -15 c20 -47 19 -87 -4 -151 -10 -29 -17 -53 -17 -53 1 0 37 11 81 25
44 14 83 25 88 25 14 0 -21 -55 -66 -106 -25 -27 -72 -69 -106 -92 l-61 -43 0
33 c1 95 22 272 40 331 12 37 23 67 25 67 3 0 12 -16 20 -36z m4156 21 c228
-39 453 -157 639 -333 85 -81 85 -81 45 -70 -62 18 -239 14 -315 -6 -36 -9
-133 -39 -216 -66 -233 -76 -267 -82 -386 -70 -55 5 -130 10 -166 10 -93 0
-68 18 43 31 108 12 190 39 365 119 74 34 165 70 202 79 38 9 68 18 68 21 0 6
-141 87 -215 123 -72 35 -181 73 -250 86 -33 7 -71 14 -84 17 l-24 5 34 35
c31 33 36 34 105 34 39 0 109 -7 155 -15z m-3058 -70 c37 -32 39 -36 32 -76
-11 -64 -41 -145 -79 -213 -36 -64 -152 -232 -143 -206 3 8 24 60 47 114 52
128 79 231 87 334 3 45 9 82 12 82 3 -1 23 -16 44 -35z m-668 -47 c18 -168 71
-351 145 -500 27 -54 47 -98 45 -98 -7 0 -73 98 -113 167 -73 124 -116 249
-140 406 -9 56 -8 58 17 72 14 8 29 14 33 15 3 0 9 -28 13 -62z m3107 37 c87
-23 160 -58 257 -123 l86 -57 -69 -7 c-64 -6 -74 -4 -130 24 -53 26 -246 163
-246 174 0 8 44 3 102 -11z m1808 -32 c78 -38 173 -136 212 -220 27 -57 32
-80 33 -143 0 -64 -4 -82 -28 -123 -69 -117 -223 -143 -295 -49 -23 30 -27 45
-27 98 0 52 4 67 24 88 41 43 128 26 119 -23 -4 -22 -48 -28 -48 -7 0 9 5 16
10 16 6 0 10 5 10 10 0 6 -13 10 -30 10 -72 0 -87 -122 -23 -192 62 -69 197
-26 244 77 55 120 -20 276 -154 321 -108 37 -249 14 -346 -56 -45 -33 -55 -35
-89 -16 l-24 13 32 13 c18 7 75 44 128 82 53 37 111 74 129 80 30 11 45 28 25
28 -5 0 -17 7 -28 16 -18 14 -16 15 26 9 25 -3 70 -18 100 -32z m-2149 -37
c46 -13 152 -49 234 -81 83 -31 198 -69 257 -84 l107 -27 -82 -51 c-113 -72
-275 -147 -379 -177 -90 -26 -254 -53 -346 -57 -50 -3 -54 -1 -77 33 l-25 36
78 7 c173 14 287 47 455 132 l77 38 -173 73 c-202 85 -300 117 -410 133 l-80
12 24 18 c13 10 38 20 54 23 61 9 204 -5 286 -28z m-1870 -88 c99 -142 157
-283 184 -453 9 -53 15 -101 13 -107 -5 -13 -132 99 -176 157 -21 28 -57 81
-79 119 l-40 69 13 56 c8 31 14 95 14 144 0 49 4 87 10 87 5 0 33 -33 61 -72z
m2678 61 c56 -13 201 -69 201 -77 -1 -16 -261 -133 -326 -147 -37 -8 -70 -12
-72 -10 -7 7 44 67 68 80 14 7 44 16 65 20 71 13 71 17 0 83 l-66 62 43 0 c24
0 63 -5 87 -11z m-4379 -198 c-39 -201 -63 -288 -105 -371 -43 -85 -60 -98
-36 -27 30 86 51 231 51 346 l0 106 57 52 c32 28 59 50 60 49 2 -1 -11 -71
-27 -155z m6205 -42 c12 -44 16 -90 13 -146 -4 -69 -10 -93 -41 -156 -157
-319 -619 -348 -764 -49 -24 49 -27 69 -28 147 0 76 4 98 26 145 52 111 153
180 262 180 90 0 166 -49 184 -118 14 -58 -32 -132 -84 -132 l-22 0 24 25 c30
29 31 59 5 103 -26 43 -80 66 -142 60 -125 -12 -212 -148 -186 -290 11 -62 28
-95 70 -143 40 -47 90 -71 170 -85 121 -21 234 15 324 105 60 60 98 129 119
217 23 97 20 189 -11 313 -2 11 11 -10 30 -46 19 -36 42 -95 51 -130z m-2945
151 c47 -6 110 -17 140 -25 68 -19 220 -78 220 -86 0 -9 -150 -57 -214 -69
-33 -5 -97 -10 -143 -10 l-84 0 -67 54 c-37 30 -93 68 -125 85 -64 34 -61 41
22 51 85 11 158 11 251 0z m-1351 -84 c47 -25 114 -141 150 -261 12 -39 37
-163 56 -278 19 -114 46 -241 60 -282 14 -42 25 -78 25 -80 0 -11 -162 77
-251 136 -115 77 -280 240 -366 362 l-62 89 20 40 c11 22 24 36 28 32 4 -5 32
-44 61 -86 65 -96 167 -193 288 -277 51 -34 95 -61 96 -60 7 8 -46 379 -64
458 -11 46 -33 114 -49 152 -16 38 -27 69 -25 69 3 0 17 -6 33 -14z m-390 -76
c-10 -64 -48 -194 -55 -188 -2 3 0 29 6 58 5 29 10 69 10 88 0 21 10 50 22 68
13 18 23 32 24 31 1 -1 -2 -27 -7 -57z m1390 -15 c55 -60 84 -104 136 -206 37
-72 65 -132 63 -134 -2 -3 -33 34 -68 81 -80 105 -197 219 -273 265 l-57 34
47 17 c27 9 55 17 65 17 9 1 48 -33 87 -74z m-2179 -45 c0 -18 -110 -127 -181
-180 -92 -69 -242 -147 -362 -189 -110 -38 -145 -40 -57 -3 205 88 418 263
516 424 l37 61 24 -53 c13 -29 23 -56 23 -60z m1388 80 c19 0 42 -62 59 -155
15 -81 11 -260 -7 -336 l-8 -34 -1 37 c-4 127 -64 363 -117 455 -13 23 -24 44
-24 46 0 2 19 1 43 -4 23 -4 48 -8 55 -9z m259 -30 c144 -67 277 -173 385
-309 32 -40 57 -75 55 -77 -6 -6 -183 34 -237 55 -30 11 -86 40 -124 63 -67
42 -69 45 -96 119 -15 42 -44 102 -64 134 l-37 58 28 -7 c15 -4 56 -20 90 -36z
m-2585 -20 l3 -50 -55 -21 c-98 -37 -227 -59 -345 -58 -164 2 -191 12 -75 26
125 16 254 54 365 108 50 24 93 44 97 44 3 1 8 -22 10 -49z m2891 9 c120 -61
191 -127 357 -329 70 -86 161 -186 201 -224 l74 -68 -205 5 c-264 6 -381 32
-595 132 l-93 43 -4 43 c-3 24 -4 45 -2 47 1 2 37 -14 80 -36 89 -44 182 -76
265 -91 73 -13 259 -26 259 -18 0 3 -48 70 -107 149 -126 166 -222 271 -298
324 -30 20 -55 39 -55 41 0 12 88 -1 123 -18z m2462 11 c18 -8 18 -9 -5 -9
-70 -2 -261 -75 -379 -144 l-75 -44 -70 25 c-39 13 -72 25 -74 27 -3 3 276 99
348 120 104 29 219 40 255 25z m-2024 -91 c26 -22 67 -63 91 -92 l43 -51 -67
51 c-37 29 -74 55 -81 60 -16 9 -51 73 -41 73 3 0 28 -18 55 -41z m879 27
c-33 -31 -160 -110 -235 -146 -99 -47 -194 -77 -303 -94 l-83 -13 -15 29 c-9
17 -14 31 -12 32 2 1 55 10 119 19 171 25 365 88 484 157 56 33 66 37 45 16z
m-2595 -116 c-23 -89 -57 -161 -123 -259 l-57 -86 -6 65 c-6 60 -4 71 27 135
18 39 64 111 101 160 76 100 87 97 58 -15z m3916 -117 c102 -317 473 -425 744
-218 l50 38 -26 -34 c-37 -48 -163 -131 -234 -154 -86 -28 -230 -27 -307 4
-116 45 -208 148 -248 278 -20 66 -26 163 -13 224 7 30 8 27 14 -33 4 -37 13
-85 20 -105z m510 147 c-29 -25 -93 -27 -112 -3 -13 15 -12 15 8 5 29 -16 62
-15 93 2 35 20 39 18 11 -4z m-6041 -194 c-21 -109 -22 -109 -91 -44 -70 67
-193 132 -289 152 l-65 14 86 1 c99 1 229 22 309 49 l55 19 3 -66 c2 -36 -2
-92 -8 -125z m4610 155 c319 -55 551 -180 715 -384 74 -93 138 -218 165 -323
27 -103 24 -125 -5 -42 -85 243 -289 457 -549 578 -162 76 -332 108 -623 117
l-192 6 42 39 42 39 145 -5 c80 -3 197 -14 260 -25z m-3514 -221 c-12 -349
-101 -627 -264 -830 -135 -169 -344 -296 -537 -324 -29 -5 -17 3 46 27 223 86
412 260 534 490 93 175 133 364 142 669 l6 197 39 -42 39 -42 -5 -145z m-157
-5 c-13 -354 -54 -517 -176 -705 -135 -207 -340 -350 -566 -396 -106 -22 -289
-15 -402 15 -78 21 -276 112 -323 149 -20 16 -8 14 87 -10 212 -53 396 -46
580 21 325 119 528 438 560 885 l6 89 80 49 c44 28 98 65 120 83 22 18 40 32
41 31 1 0 -2 -95 -7 -211z m4294 107 c85 -83 153 -178 191 -264 40 -91 40
-106 1 -48 -84 121 -189 223 -323 314 -31 21 -57 42 -57 47 0 5 16 19 35 33
42 29 41 29 153 -82z m-2724 71 c14 -31 51 -181 50 -203 0 -8 -8 8 -18 35 -10
28 -28 69 -40 92 -21 42 -29 103 -13 103 5 0 14 -12 21 -27z m908 -30 c71 -69
133 -159 179 -259 19 -40 34 -75 34 -78 0 -3 -28 10 -62 29 -74 40 -94 66
-158 200 -54 114 -73 165 -61 165 5 0 35 -26 68 -57z m-1649 -109 c82 -108
221 -239 337 -316 51 -34 92 -64 91 -66 -7 -6 -170 80 -240 126 -80 53 -179
143 -248 225 l-48 58 17 30 c10 16 20 28 24 27 4 -2 34 -39 67 -84z m-2079 47
c61 -19 148 -68 173 -98 10 -12 3 -11 -27 5 -127 64 -289 70 -408 14 -179 -84
-286 -270 -274 -477 l4 -80 -14 45 c-76 241 49 517 268 594 64 22 202 21 278
-3z m4375 -51 c112 -106 229 -296 295 -483 38 -110 40 -145 3 -57 -88 205
-249 402 -418 511 l-66 43 49 22 c26 12 53 23 60 23 7 1 41 -26 77 -59z m581
36 c130 -23 226 -51 308 -93 267 -134 449 -360 502 -622 23 -110 16 -291 -14
-406 -21 -79 -113 -277 -151 -325 l-19 -25 15 50 c123 407 20 780 -276 1002
-145 109 -375 185 -607 200 l-95 6 -27 45 c-14 25 -50 79 -79 120 l-53 75 203
-6 c112 -3 244 -12 293 -21z m-3452 -94 c6 -105 33 -188 117 -372 34 -74 70
-165 79 -202 9 -38 18 -68 21 -68 6 0 87 141 123 215 35 72 73 181 86 250 7
33 14 71 17 84 l5 24 36 -34 35 -34 -5 -110 c-13 -266 -134 -531 -345 -755
l-80 -85 14 65 c28 133 13 231 -74 500 -80 246 -85 276 -72 386 5 49 10 121
10 161 0 57 3 71 14 67 9 -3 15 -32 19 -92z m1308 -10 c24 -73 37 -281 24
-368 l-7 -46 -39 63 c-38 62 -39 67 -39 152 0 106 20 278 31 271 5 -3 18 -35
30 -72z m1403 7 c162 -107 291 -254 388 -445 49 -96 102 -233 122 -318 7 -29
7 -29 -41 14 -104 91 -198 128 -480 189 -105 23 -210 48 -234 56 -54 20 -320
198 -310 208 4 4 23 -1 42 -12 95 -55 207 -82 448 -106 84 -9 178 -24 207 -34
30 -10 54 -16 54 -14 0 12 -61 120 -109 193 -58 89 -187 231 -246 271 l-35 24
43 12 c65 17 68 16 151 -38z m-3278 -11 c-3 -29 -7 -69 -7 -88 -1 -19 -5 1 -9
45 -7 83 -6 95 12 95 7 0 9 -18 4 -52z m-861 -27 c188 -93 251 -334 122 -470
-58 -61 -126 -76 -185 -41 -45 28 -67 76 -51 115 l12 30 9 -32 c18 -67 105
-80 169 -26 40 34 59 79 59 140 -1 125 -108 229 -247 241 -98 8 -147 -11 -219
-82 -81 -81 -108 -148 -109 -267 0 -78 3 -91 37 -160 62 -126 167 -215 316
-271 l77 -29 -78 6 c-147 11 -286 75 -357 165 -189 239 -87 614 193 706 68 23
177 12 252 -25z m1567 -4 c34 -31 46 -58 63 -142 l7 -30 64 68 64 67 0 -42 c0
-60 -23 -151 -57 -227 l-29 -65 -46 85 c-58 105 -94 192 -103 244 -4 22 -9 48
-12 58 -7 26 9 21 49 -16z m-809 -28 c-18 -32 -80 -87 -121 -108 -22 -12 -22
-10 7 47 26 52 36 62 73 75 60 21 61 21 41 -14z m2218 -53 c155 -64 347 -105
507 -107 135 -2 16 -18 -138 -18 -152 -1 -263 18 -395 66 -80 29 -80 30 -83
68 -3 28 0 36 10 32 7 -2 52 -21 99 -41z m1059 -45 c31 -31 71 -78 89 -105
l34 -49 -119 7 c-127 8 -228 25 -284 48 l-35 15 39 17 c47 20 79 20 141 1 27
-8 51 -12 54 -10 2 3 -4 33 -14 67 -9 35 -20 71 -23 81 -5 18 -4 18 29 2 18
-10 58 -43 89 -74z m-3476 32 c-23 -47 -57 -163 -50 -170 5 -5 193 83 226 107
26 19 30 19 30 5 0 -32 -74 -86 -213 -156 -76 -39 -141 -69 -143 -66 -2 2 12
51 32 108 42 121 97 219 123 219 16 0 16 -4 -5 -47z m-91 -10 c-15 -26 -40
-81 -55 -123 l-29 -75 4 66 c3 43 14 87 30 123 22 47 30 56 52 56 l26 0 -28
-47z m-144 -95 c3 -57 5 -142 5 -189 l1 -87 28 15 c46 23 43 8 -7 -42 -28 -28
-78 -61 -124 -83 -75 -36 -80 -37 -192 -37 -101 0 -120 3 -160 24 -96 50 -143
120 -143 212 0 99 62 169 151 169 108 0 190 -105 132 -168 -24 -26 -52 -28
-70 -6 -11 12 -10 18 4 32 16 16 17 16 22 -6 8 -29 22 -28 35 2 14 31 -10 80
-51 101 -71 37 -157 9 -186 -61 -28 -68 -14 -136 39 -193 71 -75 188 -94 285
-45 115 57 191 211 179 360 -4 60 -3 65 22 84 14 11 26 20 26 20 0 0 2 -46 4
-102z m-326 39 c45 -34 63 -61 72 -107 l6 -35 -17 33 c-28 54 -108 102 -168
102 -78 0 -172 -68 -202 -145 -25 -65 -16 -151 22 -212 106 -170 366 -214 603
-100 46 22 91 56 149 113 81 80 83 81 142 87 33 4 72 10 87 13 l26 7 -29 -54
c-16 -30 -60 -86 -99 -124 -116 -117 -304 -195 -468 -195 -194 0 -398 113
-464 256 -51 111 -28 247 55 326 61 58 88 69 173 66 65 -3 81 -7 112 -31z
m2097 -58 c0 -32 -38 -165 -65 -230 -57 -136 -201 -348 -291 -429 -33 -30 -27
-19 41 75 126 176 215 429 215 611 l0 54 50 -36 c28 -20 50 -40 50 -45z m2649
55 c2 -2 -23 -5 -57 -6 -34 -1 -72 -2 -84 -2 -12 -1 -23 5 -26 12 -3 11 12 12
79 6 46 -3 86 -8 88 -10z m6 -149 c18 -22 38 -50 44 -63 12 -22 10 -22 -47 7
-54 27 -62 35 -76 77 -9 26 -16 49 -16 51 0 13 68 -39 95 -72z m-3999 37 c-4
-10 -30 -30 -59 -44 -52 -25 -154 -54 -162 -46 -3 2 30 18 73 36 42 17 93 42
112 56 39 27 45 26 36 -2z m4108 -9 c32 -33 182 -310 173 -319 -4 -4 -108 29
-173 54 -78 31 -154 81 -154 101 0 16 4 16 48 -5 46 -23 162 -57 169 -50 5 4
-92 206 -113 234 -28 38 9 27 50 -15z m-1877 15 l46 -11 53 -111 c121 -254
142 -511 68 -838 -9 -38 -19 -68 -23 -68 -4 0 -15 25 -25 55 -29 92 -106 194
-239 317 -269 249 -275 257 -355 422 -40 82 -70 152 -66 155 3 3 14 -5 23 -19
86 -129 144 -185 336 -322 66 -47 141 -108 168 -136 l47 -51 0 138 c0 158 -18
278 -59 399 -16 45 -27 82 -24 82 2 0 25 -5 50 -12z m1960 4 c20 -13 60 -105
76 -177 9 -38 15 -71 13 -72 -2 -2 -15 30 -30 71 -15 41 -43 100 -61 130 -30
51 -30 68 2 48z m-2582 -92 c92 -145 187 -383 222 -555 22 -105 24 -137 20
-260 -4 -99 -12 -164 -27 -220 -47 -175 -142 -331 -265 -436 l-40 -34 27 35
c156 199 225 382 235 627 12 283 -54 483 -303 914 -2 4 21 -3 52 -14 42 -16
62 -30 79 -57z m1215 19 c192 -116 402 -304 497 -444 119 -176 174 -350 174
-551 1 -109 -26 -262 -52 -302 -8 -13 -9 -10 -4 13 40 183 19 387 -60 582 -59
147 -120 238 -240 358 -121 121 -206 185 -404 304 l-133 80 39 4 c92 9 99 8
183 -44z m-406 35 l46 -7 24 -77 c48 -152 56 -361 20 -566 -24 -139 -30 -131
-26 30 3 91 -1 190 -7 238 -14 96 -69 270 -106 332 -36 62 -37 61 49 50z
m2071 -119 c117 -116 195 -304 195 -468 0 -194 -113 -398 -256 -464 -140 -64
-308 -10 -375 119 -23 44 -26 143 -5 191 14 34 78 97 99 97 7 0 23 3 37 6 20
4 18 2 -8 -12 -58 -30 -102 -108 -102 -178 1 -73 77 -170 155 -196 20 -7 63
-10 95 -8 155 11 270 169 270 370 0 164 -54 292 -176 416 -80 81 -81 83 -87
142 -4 33 -10 72 -13 87 l-7 26 54 -29 c30 -16 86 -60 124 -99z m-5370 93
c-18 -16 -29 -38 -34 -73 l-9 -50 -1 48 c-1 38 4 53 24 72 13 14 29 25 35 25
6 0 -1 -10 -15 -22z m1534 -145 c57 -163 87 -280 97 -375 9 -96 -6 -106 -27
-17 -22 92 -76 222 -132 318 l-43 73 25 74 c13 41 25 73 27 71 2 -1 25 -66 53
-144z m1467 93 c28 -62 54 -171 54 -234 l0 -43 -119 81 c-66 45 -143 106 -171
137 -28 30 -50 57 -48 58 2 2 25 -1 51 -5 40 -6 57 -16 102 -60 l53 -52 10 33
c6 19 16 58 22 87 7 28 14 52 17 52 2 0 15 -24 29 -54z m-614 -109 c202 -375
254 -606 199 -872 -40 -191 -111 -327 -241 -456 -156 -155 -349 -236 -612
-255 -53 -3 -109 -3 -125 1 -25 6 -20 9 45 26 190 48 354 142 478 272 119 125
178 238 210 405 37 191 -7 433 -121 679 l-44 93 35 57 c19 31 46 87 61 125 16
37 30 68 33 68 3 0 39 -64 82 -143z m1219 31 c258 -156 448 -323 535 -471 94
-160 137 -314 136 -492 0 -335 -176 -604 -517 -795 l-60 -34 81 85 c126 133
207 266 256 419 20 66 23 94 22 230 0 142 -3 162 -28 235 -32 95 -82 188 -141
264 -63 83 -219 228 -312 291 l-80 55 -6 115 c-4 63 -9 127 -13 143 -3 15 -3
27 0 27 4 0 61 -33 127 -72z m1409 -140 l75 -29 -66 4 c-43 3 -87 14 -123 30
-47 22 -56 30 -56 52 l0 26 47 -28 c26 -15 81 -40 123 -55z m-770 32 c166 -30
291 -65 357 -99 101 -52 106 -62 17 -36 -106 31 -212 45 -333 45 l-98 0 -54
62 c-46 53 -50 60 -29 55 14 -3 77 -15 140 -27z m-2847 -89 l26 -39 -52 -59
c-98 -112 -210 -199 -321 -248 -88 -39 -103 -39 -47 -1 121 82 245 211 324
339 17 26 33 47 37 47 4 0 19 -18 33 -39z m3921 -36 c121 -158 129 -398 17
-518 -117 -127 -331 -74 -331 81 0 108 105 190 168 132 26 -24 28 -52 6 -70
-12 -11 -18 -10 -32 4 -16 16 -16 17 6 22 29 8 28 22 -2 35 -31 14 -80 -10
-101 -51 -37 -71 -9 -157 61 -186 68 -28 136 -14 193 39 75 71 94 188 45 285
-57 115 -211 191 -360 179 -61 -4 -65 -3 -83 22 l-19 26 102 4 c55 3 140 5
187 5 l87 1 -14 27 c-8 15 -14 30 -14 33 0 11 61 -40 84 -70z m-3151 -61 c21
-42 36 -78 35 -80 -5 -4 -88 135 -88 147 0 26 19 1 53 -67z m1417 -67 c78 -56
83 -64 20 -28 -30 18 -70 40 -87 48 -18 9 -33 23 -33 30 0 17 23 6 100 -50z
m841 -105 c24 -91 35 -251 24 -348 l-9 -69 -13 95 c-17 128 -55 256 -109 369
-24 51 -44 95 -44 97 0 2 21 4 48 6 46 3 48 2 65 -35 10 -20 27 -72 38 -115z
m229 148 c25 -6 56 -15 70 -20 l25 -10 -57 -61 c-67 -70 -132 -193 -152 -289
l-14 -65 -1 81 c-1 93 -22 222 -50 312 l-19 62 77 0 c42 0 96 -5 121 -10z
m-1795 -94 c173 -149 275 -258 316 -337 10 -21 19 -40 19 -43 0 -2 -28 25 -62
61 -72 76 -186 164 -282 217 -50 28 -67 43 -71 64 -3 15 -12 51 -19 80 -16 61
-25 65 99 -42z m-770 37 c-3 -27 -18 -73 -33 -103 l-27 -55 -3 69 c-3 66 -2
70 29 103 18 18 35 33 37 33 2 0 1 -21 -3 -47z m3095 -9 c71 -30 130 -108 130
-171 0 -39 -34 -91 -72 -109 -27 -13 -39 -13 -63 -3 l-30 12 33 9 c23 6 38 19
49 44 15 31 16 39 3 76 -44 123 -218 145 -325 41 -53 -52 -85 -125 -85 -197 0
-93 17 -134 85 -202 80 -81 147 -108 266 -109 78 0 91 3 160 37 128 63 225
179 275 327 l25 76 -6 -82 c-7 -107 -35 -196 -86 -272 -47 -70 -95 -111 -174
-147 -217 -100 -487 -10 -588 195 -28 58 -32 75 -32 151 0 71 4 94 26 141 78
166 257 246 409 183z m-1636 -113 c18 -61 21 -125 6 -116 -5 3 -21 26 -36 51
-22 38 -25 51 -19 95 6 42 9 49 20 38 7 -8 20 -38 29 -68z m-1397 -34 c-9 -29
-37 -83 -62 -120 -25 -37 -65 -96 -88 -131 l-44 -65 -21 117 c-28 147 -29 222
-4 252 l19 23 0 -47 c1 -56 31 -186 44 -186 4 0 14 10 20 23 7 12 34 50 60 85
27 34 54 81 61 103 11 38 13 40 22 20 7 -16 5 -37 -7 -74z m2574 45 c-55 -109
-68 -252 -32 -360 27 -80 50 -116 112 -179 98 -99 236 -149 384 -140 l80 5
-45 -15 c-65 -20 -175 -27 -245 -14 -138 25 -276 125 -332 240 -26 52 -28 65
-28 176 0 137 18 197 81 279 42 56 51 59 25 8z m-1060 -64 c12 -53 6 -285 -9
-343 -8 -28 -9 -27 -80 56 -85 100 -136 189 -126 221 6 20 8 19 26 -17 11 -21
46 -64 76 -94 l56 -56 14 100 c7 55 10 121 7 147 -8 66 19 55 36 -14z m-1789
-2 c-3 -29 6 -114 24 -206 2 -14 -9 2 -25 34 -39 77 -50 159 -26 186 25 28 32
25 27 -14z m321 -69 c-18 -35 -131 -157 -145 -157 -5 0 14 28 42 62 27 35 62
86 77 115 24 45 29 50 35 32 5 -13 2 -32 -9 -52z m1552 22 c4 -16 4 -44 0 -61
-9 -51 -48 -189 -51 -185 -2 1 4 48 12 102 9 55 13 119 10 142 -4 34 -3 41 9
37 7 -3 17 -19 20 -35z m-2275 -19 c20 -6 14 -8 -26 -9 -67 -1 -177 -35 -236
-72 -229 -146 -277 -467 -103 -693 37 -49 37 -49 6 -25 -43 34 -109 124 -137
185 -67 151 -51 337 40 456 76 99 223 168 356 167 41 -1 86 -5 100 -9z m1370
-30 c47 -24 49 -33 20 -146 -28 -109 -64 -197 -115 -279 -71 -114 -89 -122
-49 -21 48 117 73 222 87 354 6 61 13 112 14 112 2 0 22 -9 43 -20z m-987
-165 c31 -42 62 -92 69 -111 15 -41 21 -42 38 -6 18 39 24 11 10 -48 -26 -108
-131 -227 -250 -284 -55 -26 -77 -31 -140 -31 -64 0 -82 4 -123 28 -70 41
-102 95 -102 171 0 72 24 114 81 141 50 23 126 16 159 -15 29 -27 34 -80 9
-104 -18 -18 -17 -18 -38 -10 -20 8 -21 44 -1 44 8 0 15 -7 15 -16 0 -8 5 -12
10 -9 6 3 10 19 10 35 0 72 -122 86 -192 23 -46 -41 -41 -134 9 -194 106 -126
331 -67 389 102 41 123 15 253 -78 380 -9 13 -8 24 2 48 l13 32 27 -49 c15
-28 52 -84 83 -127z m3333 94 l49 -6 -48 -2 c-39 -1 -53 4 -72 24 -14 13 -25
29 -25 35 0 6 11 -1 24 -16 17 -20 36 -30 72 -35z m-1296 -52 c77 -172 67
-401 -27 -580 -75 -143 -233 -264 -376 -287 -142 -23 -280 50 -332 174 -23 55
-19 154 8 207 32 62 104 109 166 109 25 0 53 -5 61 -10 11 -7 7 -10 -17 -10
-17 0 -44 -5 -60 -11 -33 -12 -90 -64 -108 -99 -70 -138 53 -320 217 -320 47
0 133 27 178 55 128 81 220 271 220 455 0 69 -21 174 -44 218 -13 25 -11 34
22 114 41 100 40 100 92 -15z m-441 34 c16 -27 56 -80 87 -117 l58 -68 -63 44
c-62 44 -131 120 -131 146 0 14 10 44 15 44 2 0 17 -22 34 -49z m-1868 -3 c70
-32 125 -86 156 -155 35 -76 30 -173 -11 -227 -37 -49 -83 -71 -131 -62 -45 9
-85 46 -85 80 l0 25 25 -24 c29 -30 59 -32 102 -5 83 50 84 190 1 267 -68 64
-200 85 -289 46 -98 -44 -150 -112 -169 -225 -51 -291 242 -515 580 -444 36 8
66 13 68 12 1 -2 -33 -19 -75 -39 -209 -96 -408 -67 -544 81 -223 241 -144
619 145 693 59 15 168 4 227 -23z m644 -170 c-52 -199 -225 -394 -407 -458
-289 -102 -560 26 -562 265 0 74 17 126 57 171 80 92 212 107 282 34 l30 -31
-45 20 c-25 11 -56 21 -70 21 -86 0 -178 -68 -200 -150 -23 -87 10 -197 76
-249 77 -60 215 -78 326 -40 180 60 342 250 371 436 11 68 12 70 64 108 29 21
61 47 71 58 16 18 17 17 20 -51 2 -43 -4 -96 -13 -134z m1444 -107 l31 -22 0
38 1 38 15 -28 c25 -46 35 -133 23 -211 -19 -140 -108 -271 -211 -316 -146
-63 -311 31 -295 168 6 57 32 91 91 121 56 28 97 22 129 -21 17 -23 19 -31 9
-53 -13 -28 -49 -34 -59 -10 -8 23 5 31 27 17 25 -15 27 3 4 36 -40 58 -168
-6 -174 -88 -4 -53 1 -70 30 -104 114 -129 326 -46 362 142 24 130 -82 301
-227 363 -49 22 -55 27 -55 55 l0 31 134 -67 c73 -37 148 -77 165 -89z m-572
18 c-64 -42 -141 -129 -171 -193 -108 -228 -5 -499 234 -620 68 -35 71 -38 35
-32 -22 4 -74 23 -115 43 -131 63 -239 194 -269 324 -43 184 67 392 252 479
80 38 93 38 34 -1z m339 -48 c123 -54 190 -184 146 -285 -22 -49 -61 -76 -111
-76 -39 0 -60 9 -71 31 -9 16 -7 17 22 12 68 -11 124 75 98 152 -39 118 -192
170 -317 107 -48 -25 -119 -101 -140 -150 -23 -54 -20 -146 7 -217 34 -89 132
-184 219 -213 162 -55 357 -8 495 118 31 29 56 49 56 44 0 -4 -14 -29 -31 -55
-43 -68 -147 -162 -216 -195 -54 -27 -66 -29 -178 -29 -115 0 -123 1 -187 33
-99 48 -180 127 -225 220 -36 72 -38 81 -38 171 0 85 3 103 28 153 82 168 282
249 443 179z m-1966 -10 c-14 -27 -13 -57 5 -94 l16 -32 -21 24 c-22 26 -27
90 -8 109 17 17 20 15 8 -7z m1915 -368 c27 -23 31 -30 16 -26 -34 9 -71 60
-70 96 l1 32 8 -35 c5 -21 23 -48 45 -67z"/>
</g>
</svg>
