<?xml version="1.0" encoding="UTF-8" standalone="no"?>
<svg
   xmlns:dc="http://purl.org/dc/elements/1.1/"
   xmlns:cc="http://creativecommons.org/ns#"
   xmlns:rdf="http://www.w3.org/1999/02/22-rdf-syntax-ns#"
   xmlns:svg="http://www.w3.org/2000/svg"
   xmlns="http://www.w3.org/2000/svg"
   xmlns:sodipodi="http://sodipodi.sourceforge.net/DTD/sodipodi-0.dtd"
   xmlns:inkscape="http://www.inkscape.org/namespaces/inkscape"
   version="1.0"
   width="850.000000pt"
   height="850.000000pt"
   viewBox="0 0 850.000000 850.000000"
   preserveAspectRatio="xMidYMid meet"
   id="svg2"
   inkscape:version="0.91 r13725"
   sodipodi:docname="Mandala_20170421_213.svg">
  <defs
     id="defs844" />
  <sodipodi:namedview
     pagecolor="#ffffff"
     bordercolor="#666666"
     borderopacity="1"
     objecttolerance="10"
     gridtolerance="10"
     guidetolerance="10"
     inkscape:pageopacity="0"
     inkscape:pageshadow="2"
     inkscape:window-width="1920"
     inkscape:window-height="979"
     id="namedview842"
     showgrid="false"
     inkscape:zoom="0.88847059"
     inkscape:cx="544.28406"
     inkscape:cy="521.70657"
     inkscape:window-x="0"
     inkscape:window-y="1"
     inkscape:window-maximized="1"
     inkscape:current-layer="svg2" />
  <metadata
     id="metadata4">
Created by potrace 1.14, written by Peter Selinger 2001-2017
<rdf:RDF>
  <cc:Work
     rdf:about="">
    <dc:format>image/svg+xml</dc:format>
    <dc:type
       rdf:resource="http://purl.org/dc/dcmitype/StillImage" />
  </cc:Work>
</rdf:RDF>
</metadata>
  <g
     transform="translate(0.000000,850.000000) scale(0.100000,-0.100000)"
     fill="#000000"
     stroke="none"
     id="g6">
    <path
       d="M0 4250 l0 -4250 4250 0 4250 0 0 4250 0 4250 -4250 0 -4250 0 0 -4250z m4356 3505 c78 -40 175 -111 320 -236 268 -231 378 -303 539 -355 89 -29 92 -29 320 -28 127 1 345 3 485 5 239 4 257 3 295 -16 72 -36 137 -187 204 -478 55 -235 72 -296 112 -392 102 -247 226 -370 585 -583 161 -95 252 -160 341 -245 l76 -72 -6 -79 c-8 -101 -39 -201 -133 -428 -42 -101 -87 -212 -101 -248 -64 -169 -80 -370 -43 -551 24 -116 38 -155 135 -384 92 -214 134 -348 142 -447 l6 -77 -79 -79 c-85 -83 -130 -115 -379 -267 -263 -160 -358 -242 -459 -394 -87 -131 -108 -191 -212 -616 -65 -264 -128 -399 -199 -424 -57 -20 -293 -26 -453 -12 -75 7 -222 13 -327 13 -186 0 -192 0 -295 -32 -181 -55 -297 -130 -551 -355 -185 -164 -359 -275 -429 -275 -63 1 -223 102 -389 246 -287 250 -394 321 -561 375 -132 43 -256 53 -467 39 -434 -30 -619 -23 -672 24 -53 47 -113 200 -162 411 -16 72 -37 159 -45 195 -89 371 -221 556 -539 752 -283 175 -373 236 -438 297 -109 103 -112 108 -97 199 17 105 50 209 127 392 153 364 163 401 163 621 0 144 -2 164 -30 255 -28 96 -73 213 -160 419 -53 125 -85 231 -100 330 -14 89 -10 97 79 185 62 61 138 113 401 276 418 260 502 386 630 944 54 233 116 396 171 447 51 46 260 55 624 27 243 -20 368 -12 508 32 170 54 274 122 532 349 198 174 353 274 426 275 22 0 63 -14 105 -35z"
       id="path8"
       style="fill:none" />
    <path
       d="M4170 7699 c-73 -40 -120 -72 -120 -82 0 -17 203 -278 210 -270 22 25 191 255 195 266 8 20 -163 117 -207 117 -13 0 -48 -14 -78 -31z"
       id="path10"
       style="fill:#3366ff" />
    <path
       d="M3885 7489 c-44 -38 -81 -72 -82 -76 -2 -9 136 -119 161 -129 16 -6 17 5 15 112 -3 179 1 176 -94 93z"
       id="path12"
       style="fill:#99cccc" />
    <path
       d="M4526 7528 c-8 -39 -8 -172 0 -220 l7 -37 56 44 c31 25 70 56 86 70 l30 25 -70 66 c-94 88 -101 91 -109 52z"
       id="path14"
       style="fill:#99cccc" />
    <path
       d="M4390 7440 c-47 -61 -86 -114 -87 -118 -3 -7 157 -66 163 -60 5 6 17 288 12 288 -2 0 -42 -50 -88 -110z"
       id="path16"
       style="fill:#99ffcc" />
    <path
       d="M4030 7401 c0 -78 3 -141 6 -141 4 0 42 12 86 27 57 19 77 30 73 41 -6 17 -144 200 -156 208 -5 3 -9 -58 -9 -135z"
       id="path18"
       style="fill:#99ffcc" />
    <path
       d="M3647 7289 c-42 -33 -75 -64 -72 -69 8 -12 136 -103 140 -98 5 4 18 228 14 227 -2 0 -39 -27 -82 -60z"
       id="path20"
       style="fill:#99cccc" />
    <path
       d="M3780 7323 c0 -16 -3 -65 -7 -110 -3 -46 -3 -83 0 -83 12 0 177 84 177 91 0 6 -156 129 -164 129 -4 0 -6 -12 -6 -27z"
       id="path22"
       style="fill:#99ffcc" />
    <path
       d="M4635 7290 c-38 -32 -71 -63 -73 -68 -2 -8 115 -74 157 -87 l24 -7 -7 73 c-10 103 -18 149 -25 148 -3 0 -37 -27 -76 -59z"
       id="path24"
       style="fill:#99ffcc" />
    <path
       d="M4777 7344 c-7 -7 12 -224 20 -224 9 0 133 101 133 109 0 9 -147 120 -153 115z"
       id="path26"
       style="fill:#99cccc" />
    <path
       d="M4180 7251 c-64 -21 -259 -110 -448 -205 -154 -77 -463 -184 -622 -215 -58 -11 -186 -34 -285 -51 -228 -39 -328 -71 -373 -119 -41 -44 -114 -167 -217 -366 -113 -218 -139 -261 -212 -353 -23 -28 -59 -78 -79 -110 -45 -70 -64 -92 -279 -317 -295 -308 -301 -317 -291 -467 3 -56 18 -173 32 -261 41 -264 44 -302 45 -553 0 -228 -2 -255 -36 -468 -39 -249 -51 -376 -41 -429 10 -54 96 -160 296 -364 144 -146 211 -225 303 -351 135 -185 175 -251 272 -442 73 -145 138 -258 191 -330 26 -37 45 -50 101 -72 70 -27 261 -68 413 -88 132 -17 239 -44 435 -105 147 -46 229 -81 445 -185 146 -71 301 -140 345 -154 l81 -26 69 24 c72 25 249 105 440 199 244 120 527 208 793 248 179 27 343 62 414 88 85 33 141 110 283 391 89 177 163 304 217 371 24 30 71 92 103 138 33 46 149 176 258 290 109 113 219 235 245 271 47 64 47 65 50 156 2 55 -3 138 -13 206 -63 412 -63 409 -63 623 0 213 10 331 48 563 11 67 23 183 27 257 l6 134 -57 76 c-32 42 -141 163 -244 268 -143 146 -215 231 -304 354 -134 185 -147 204 -252 408 -93 178 -191 345 -226 383 -39 43 -164 78 -457 127 -235 40 -288 53 -466 111 -198 66 -267 95 -502 211 -160 79 -258 120 -325 138 -65 18 -53 18 -120 -4z m282 -150 c62 -21 160 -57 218 -81 129 -52 212 -80 360 -124 63 -19 152 -48 197 -65 45 -16 173 -55 285 -85 238 -65 366 -107 413 -136 19 -12 59 -48 88 -80 56 -62 77 -92 250 -355 58 -88 127 -187 154 -220 27 -33 82 -108 122 -167 41 -59 109 -152 153 -205 192 -238 267 -341 303 -418 19 -39 19 -73 18 -927 -1 -672 -4 -892 -14 -910 -33 -64 -117 -180 -244 -339 -154 -190 -212 -269 -234 -312 -8 -15 -48 -69 -89 -120 -41 -50 -108 -144 -150 -207 -41 -63 -109 -167 -151 -230 -41 -63 -103 -142 -136 -176 -77 -78 -144 -106 -443 -185 -125 -33 -252 -70 -282 -81 -30 -11 -102 -36 -160 -55 -58 -19 -163 -54 -235 -77 -71 -24 -206 -73 -300 -108 -216 -83 -256 -92 -364 -85 -91 5 -113 12 -476 150 -93 35 -208 74 -254 86 -46 12 -123 37 -170 55 -86 33 -189 64 -441 131 -329 89 -361 111 -547 395 -151 229 -179 271 -238 345 -30 39 -89 121 -131 183 -42 62 -139 190 -215 284 -279 340 -287 361 -273 673 11 226 11 910 2 1185 -9 243 -2 289 58 389 53 86 67 104 235 311 69 85 153 196 187 247 33 50 88 126 122 169 34 43 131 182 215 309 84 126 171 251 193 276 71 80 163 118 507 208 191 50 262 72 345 108 25 11 86 30 135 43 81 21 214 67 395 137 111 43 263 94 305 103 68 15 167 1 287 -39z"
       id="path28"
       style="fill:#cc3333" />
    <path
       d="M4165 7082 c-70 -20 -74 -29 -51 -118 23 -91 74 -398 87 -528 l12 -116 38 0 c43 0 38 -14 59 165 16 139 54 362 80 473 12 52 18 98 14 102 -10 10 -137 40 -162 39 -9 0 -44 -8 -77 -17z"
       id="path30"
       style="fill:#66ffcc" />
    <path
       d="M3975 7021 c-78 -28 -125 -49 -125 -56 0 -3 9 -56 20 -118 25 -143 38 -261 46 -412 3 -66 8 -126 10 -134 3 -11 27 -13 114 -9 60 2 113 7 116 11 11 11 -16 254 -52 452 -36 205 -54 277 -69 281 -6 2 -32 -5 -60 -15z"
       id="path32"
       style="fill:#66ccff" />
    <path
       d="M4442 6958 c-50 -202 -111 -633 -92 -652 5 -5 59 -12 120 -14 l110 -5 1 49 c0 27 2 56 3 64 2 8 6 56 10 107 10 142 44 387 62 444 3 13 -12 24 -68 47 -130 54 -122 56 -146 -40z"
       id="path34"
       style="fill:#66ccff" />
    <path
       d="M4706 6942 c-8 -13 -54 -302 -60 -382 -3 -36 -8 -109 -12 -163 l-6 -98 38 7 c81 14 177 43 189 56 12 12 27 241 29 443 l1 79 -70 27 c-38 14 -77 29 -86 33 -10 4 -20 3 -23 -2z"
       id="path36"
       style="fill:#66ccff" />
    <path
       d="M3690 6910 l-75 -27 1 -49 c0 -27 3 -87 7 -134 4 -47 9 -141 13 -210 3 -69 8 -128 10 -131 4 -7 125 -41 193 -54 l34 -7 -6 133 c-4 74 -9 145 -11 159 -2 14 -7 52 -11 85 -6 63 -32 217 -41 248 -7 22 -24 21 -114 -13z"
       id="path38"
       style="fill:#66ccff" />
    <path
       d="M3430 6832 c-47 -16 -100 -36 -118 -46 l-32 -17 16 -32 c39 -74 229 -367 239 -367 2 0 15 4 30 10 l26 10 -6 117 c-7 160 -16 273 -24 314 -9 44 -25 46 -131 11z"
       id="path40"
       style="fill:#66ffcc" />
    <path
       d="M4947 6853 c-5 -9 -14 -107 -22 -243 -3 -52 -8 -125 -10 -161 l-5 -67 30 -4 c21 -3 35 1 49 16 23 25 131 192 194 298 l46 78 -27 14 c-33 17 -217 76 -237 76 -7 0 -16 -3 -18 -7z"
       id="path42"
       style="fill:#66ffcc" />
    <path
       d="M3108 6724 l-77 -25 16 -37 c30 -73 137 -269 206 -377 72 -114 95 -145 108 -145 4 0 39 39 77 86 l71 87 -22 33 c-12 18 -53 80 -92 139 -38 58 -92 141 -120 185 -57 91 -53 90 -167 54z"
       id="path44"
       style="fill:#66ccff" />
    <path
       d="M5232 6674 c-26 -42 -89 -140 -140 -217 l-92 -140 27 -40 c37 -53 113 -137 124 -137 11 0 126 176 188 289 47 84 131 254 131 265 0 6 -159 56 -178 56 -7 0 -34 -34 -60 -76z"
       id="path46"
       style="fill:#66ccff" />
    <path
       d="M2875 6663 c-49 -14 -92 -27 -94 -29 -12 -11 176 -403 274 -570 32 -54 59 -101 61 -102 4 -6 159 96 177 116 15 16 9 29 -90 192 -58 96 -132 230 -165 298 -32 67 -62 122 -66 121 -4 0 -47 -12 -97 -26z"
       id="path48"
       style="fill:#66ccff" />
    <path
       d="M5506 6648 c-31 -78 -159 -309 -239 -431 -43 -66 -75 -123 -70 -127 25 -22 123 -89 151 -104 26 -13 37 -15 47 -6 43 36 325 594 325 644 0 9 -12 18 -27 22 -26 5 -118 29 -154 40 -12 3 -21 -7 -33 -38z"
       id="path50"
       style="fill:#66ccff" />
    <path
       d="M2652 6589 c-58 -25 -83 -43 -128 -92 l-55 -62 58 -54 c115 -106 310 -299 394 -391 l86 -93 30 23 31 22 -50 87 c-51 87 -222 427 -268 533 l-25 57 -73 -30z"
       id="path52"
       style="fill:#66ffcc" />
    <path
       d="M5745 6544 c-19 -42 -35 -79 -35 -81 0 -10 -168 -339 -219 -428 l-51 -90 28 -22 c15 -13 29 -22 32 -20 3 1 51 52 107 112 105 115 228 236 351 345 39 35 72 69 72 75 0 11 -133 145 -144 145 -3 0 -28 9 -56 20 l-51 20 -34 -76z"
       id="path54"
       style="fill:#66ffcc" />
    <path
       d="M2433 6372 c-7 -4 -34 -41 -61 -83 l-50 -76 125 -124 c69 -68 167 -173 218 -234 116 -138 119 -141 148 -126 34 19 150 115 155 128 4 14 -468 493 -504 511 -11 6 -25 7 -31 4z"
       id="path56"
       style="fill:#66ccff" />
    <path
       d="M5929 6267 c-114 -104 -343 -340 -377 -388 -13 -19 -12 -24 19 -55 18 -18 58 -52 90 -74 l57 -40 49 57 c119 144 185 216 296 329 l119 121 -54 81 c-29 45 -58 82 -64 82 -5 0 -66 -51 -135 -113z"
       id="path58"
       style="fill:#66ccff" />
    <path
       d="M3540 6263 c-32 -43 -33 -47 -16 -57 10 -6 42 -28 70 -49 l51 -37 11 42 c6 24 18 57 27 75 10 18 17 34 17 37 0 6 -90 36 -110 36 -9 0 -32 -21 -50 -47z"
       id="path60"
       style="fill:#00cc33" />
    <path
       d="M4846 6294 c-22 -8 -41 -16 -43 -18 -2 -1 8 -23 21 -47 13 -24 27 -59 31 -77 l7 -32 30 25 c17 14 48 35 70 46 42 21 42 22 -5 82 -32 41 -49 44 -111 21z"
       id="path62"
       style="fill:#00cc33" />
    <path
       d="M3741 6235 c-26 -34 -44 -91 -39 -130 3 -25 9 -30 53 -42 28 -7 117 -16 199 -20 l148 -6 -7 64 c-4 35 -8 80 -9 99 -1 34 -2 35 -41 32 -39 -3 -190 12 -252 24 -25 5 -34 1 -52 -21z m213 -36 c20 -16 26 -29 26 -58 0 -78 -96 -116 -146 -57 -31 35 -30 67 2 105 31 38 78 41 118 10z"
       id="path64"
       style="fill:#66cc99" />
    <path
       d="M3871 6156 c-9 -11 -10 -20 -1 -36 13 -24 38 -23 53 1 23 37 -25 68 -52 35z"
       id="path66"
       style="fill:#ff9966" />
    <path
       d="M4185 6252 l-40 -7 -3 -60 c-2 -33 2 -77 8 -98 10 -33 15 -38 33 -33 12 3 54 6 93 6 83 0 82 -1 91 101 5 60 4 68 -15 78 -26 14 -117 21 -167 13z"
       id="path68"
       style="fill:#00cc33" />
    <path
       d="M4660 6249 c-25 -5 -88 -10 -141 -12 l-96 -2 -7 -75 c-3 -41 -7 -84 -9 -95 -2 -19 4 -20 128 -20 166 1 261 18 269 49 7 28 -10 91 -36 134 -21 34 -31 36 -108 21z m5 -54 c46 -45 26 -116 -38 -138 -26 -10 -80 16 -96 46 -43 80 70 157 134 92z"
       id="path70"
       style="fill:#66cc99" />
    <path
       d="M4577 6156 c-14 -35 23 -67 50 -45 8 7 13 22 11 33 -4 26 -52 35 -61 12z"
       id="path72"
       style="fill:#ff9966" />
    <path
       d="M2283 6137 c-25 -27 -93 -129 -93 -139 0 -4 35 -47 78 -95 42 -49 115 -137 161 -196 81 -103 86 -108 115 -101 45 10 179 69 183 81 7 21 -259 324 -383 436 l-41 37 -20 -23z"
       id="path74"
       style="fill:#66ccff" />
    <path
       d="M3410 6109 c-30 -28 -85 -76 -123 -106 -63 -51 -66 -55 -51 -71 10 -9 30 -45 47 -79 16 -35 31 -63 33 -63 18 0 144 99 218 171 l90 86 -17 26 c-23 36 -78 76 -113 82 -25 5 -37 -2 -84 -46z m59 -54 c33 -16 52 -60 40 -91 -10 -29 -57 -64 -84 -64 -30 0 -71 34 -79 65 -7 29 15 79 41 94 25 15 49 13 82 -4z"
       id="path76"
       style="fill:#66cc99" />
    <path
       d="M3400 6005 c-18 -22 -1 -50 31 -50 20 0 24 5 24 30 0 23 -5 31 -21 33 -11 2 -27 -4 -34 -13z"
       id="path78"
       style="fill:#ff9966" />
    <path
       d="M4958 6130 c-26 -17 -53 -42 -62 -55 -16 -24 -15 -26 48 -92 58 -62 199 -173 238 -188 12 -5 19 3 27 28 6 19 25 55 41 81 17 26 30 48 30 50 0 2 -22 20 -49 39 -27 20 -81 65 -119 101 -38 36 -78 66 -89 66 -11 0 -40 -14 -65 -30z m186 -92 c50 -71 -30 -168 -105 -128 -27 15 -51 67 -43 93 13 42 34 57 85 57 38 0 51 -5 63 -22z"
       id="path80"
       style="fill:#66cc99" />
    <path
       d="M5051 6006 c-26 -31 14 -71 45 -45 8 7 14 22 12 33 -4 26 -40 33 -57 12z"
       id="path82"
       style="fill:#ff9966" />
    <path
       d="M6104 6068 c-141 -147 -334 -366 -334 -381 0 -8 186 -87 207 -87 12 0 36 23 65 63 45 60 129 162 232 281 l49 56 -29 43 c-44 66 -85 117 -93 117 -4 0 -48 -42 -97 -92z"
       id="path84"
       style="fill:#66ccff" />
    <path
       d="M3575 5922 c-97 -94 -183 -158 -294 -218 -30 -16 -89 -60 -130 -98 -110 -100 -182 -150 -301 -209 l-106 -52 -16 -110 c-19 -127 -47 -219 -112 -363 -29 -65 -50 -127 -56 -171 -14 -100 -55 -221 -116 -345 l-54 -109 60 -121 c58 -118 103 -257 114 -357 2 -25 28 -97 56 -160 62 -137 93 -242 110 -368 l13 -94 76 -34 c107 -49 222 -128 325 -222 50 -46 115 -95 148 -111 97 -48 190 -116 294 -213 68 -64 104 -91 118 -89 12 1 59 9 105 17 105 19 239 19 358 1 70 -11 103 -11 135 -3 72 18 371 14 452 -6 l70 -18 85 84 c112 109 158 144 269 207 50 29 131 87 179 128 133 114 196 158 308 214 l102 50 7 78 c9 105 54 258 114 388 30 65 52 127 55 158 10 88 57 235 113 352 30 62 54 116 54 120 0 5 -22 53 -49 108 -55 112 -96 233 -116 345 -8 47 -33 120 -65 190 -58 128 -96 262 -106 373 l-7 75 -74 35 c-109 52 -226 133 -325 223 -48 45 -116 95 -155 116 -102 53 -201 126 -301 221 l-89 86 -74 -16 c-89 -19 -345 -22 -437 -5 -45 9 -78 9 -119 1 -85 -15 -366 -13 -438 5 -33 8 -64 14 -70 14 -5 0 -55 -43 -110 -97z m1447 -172 c33 -22 100 -59 147 -81 70 -33 97 -53 148 -109 79 -86 173 -155 290 -214 50 -25 94 -49 96 -54 3 -4 8 -35 12 -67 15 -149 37 -221 115 -375 40 -79 50 -110 60 -184 15 -119 60 -255 115 -345 25 -40 45 -76 45 -79 0 -3 -11 -19 -24 -36 -61 -81 -118 -241 -136 -383 -10 -74 -20 -104 -61 -185 -59 -116 -97 -222 -106 -298 -3 -30 -7 -62 -9 -70 -1 -8 -3 -29 -3 -45 -1 -28 -7 -33 -93 -74 -121 -57 -200 -113 -285 -205 -57 -62 -84 -82 -163 -122 -151 -75 -262 -160 -338 -258 l-22 -28 -82 16 c-136 28 -231 31 -338 10 -118 -22 -148 -22 -285 0 -122 20 -215 18 -334 -9 l-71 -17 -83 85 c-88 90 -186 159 -292 207 -51 23 -91 54 -181 140 -104 100 -125 115 -229 166 -92 45 -115 61 -116 78 0 11 -2 32 -5 46 -2 14 -9 54 -15 90 -15 94 -55 204 -107 292 -39 67 -46 88 -53 160 -14 144 -59 271 -144 414 l-19 31 40 69 c71 123 124 288 124 385 0 39 10 68 51 145 65 125 105 246 119 364 6 52 12 95 13 95 1 1 32 14 69 29 102 43 209 118 305 217 48 49 97 92 108 95 99 29 272 148 358 246 l53 61 81 -17 c103 -21 273 -21 386 0 75 14 98 14 150 4 157 -32 312 -30 442 4 l50 13 78 -83 c43 -46 105 -101 139 -124z"
       id="path86"
       style="fill:#ff3300" />
    <path
       d="M4175 5893 c-66 -19 -319 -22 -397 -3 l-57 13 -85 -81 c-100 -94 -148 -127 -265 -187 -64 -32 -108 -64 -171 -124 -107 -102 -191 -163 -284 -207 -80 -37 -86 -45 -86 -127 0 -63 -47 -202 -108 -324 -36 -70 -52 -115 -57 -158 -15 -141 -68 -302 -134 -408 l-23 -37 52 -101 c53 -104 93 -235 106 -350 5 -49 18 -85 55 -155 58 -108 95 -220 109 -329 5 -44 10 -82 10 -86 0 -4 33 -23 74 -42 111 -53 191 -111 283 -203 65 -67 97 -91 160 -120 107 -50 182 -103 280 -197 l82 -79 53 13 c73 19 332 17 421 -3 60 -14 74 -14 120 -1 87 24 288 28 387 9 l86 -17 74 73 c88 87 168 143 282 198 63 31 98 57 157 116 107 109 246 202 354 238 13 4 17 17 17 58 0 99 76 328 138 416 11 15 25 60 31 102 24 163 44 231 101 346 l57 115 -26 42 c-61 98 -106 233 -130 395 -8 53 -25 101 -62 175 -60 118 -97 234 -105 328 -4 37 -9 71 -13 76 -3 4 -51 30 -105 58 -102 51 -228 151 -295 233 -18 23 -38 42 -44 42 -17 0 -168 80 -227 121 -30 20 -88 71 -129 112 l-73 75 -57 -16 c-78 -21 -312 -20 -404 2 -80 19 -86 19 -152 -1z m-309 -134 c123 -38 295 -69 383 -69 90 0 230 25 374 66 65 19 122 34 127 34 5 0 44 -46 88 -102 93 -121 224 -251 302 -300 70 -45 214 -109 335 -151 l95 -32 1 -90 c1 -176 19 -315 55 -424 26 -75 96 -210 159 -304 33 -48 68 -101 78 -116 l17 -29 -76 -108 c-171 -245 -233 -441 -234 -747 0 -92 -1 -98 -22 -106 -13 -5 -70 -26 -128 -47 -189 -67 -291 -126 -406 -236 -55 -54 -127 -132 -160 -174 -32 -42 -68 -88 -79 -101 l-21 -25 -122 36 c-290 87 -489 87 -756 1 -60 -19 -114 -35 -120 -35 -6 0 -38 37 -71 83 -174 241 -352 369 -655 473 -89 30 -95 34 -96 61 -1 15 -5 93 -8 173 -3 93 -12 177 -26 235 -25 110 -95 256 -184 385 -99 143 -96 130 -48 197 56 78 152 244 184 318 51 116 74 247 77 435 3 143 3 143 42 157 137 48 238 87 282 109 148 75 270 177 378 316 84 107 119 148 129 148 4 0 52 -14 106 -31z"
       id="path88"
       style="fill:#ff6600" />
    <path
       d="M3809 5699 c-8 -17 -17 -20 -40 -15 -38 7 -37 -3 6 -44 38 -36 39 -35 49 38 7 46 2 53 -15 21z"
       id="path90"
       style="fill:#66cc00" />
    <path
       d="M4684 5675 c5 -28 10 -53 13 -58 2 -4 20 9 39 29 34 37 40 59 8 33 -14 -12 -20 -10 -42 16 l-25 30 7 -50z"
       id="path92"
       style="fill:#66cc00" />
    <path
       d="M3878 5684 c-16 -15 -9 -83 10 -93 42 -22 227 -70 233 -60 3 6 6 34 5 62 l-1 52 -90 18 c-49 9 -103 20 -120 23 -16 3 -33 2 -37 -2z"
       id="path94"
       style="fill:#66cc99" />
    <path
       d="M4500 5669 c-47 -11 -94 -21 -106 -24 -19 -4 -20 -10 -16 -62 2 -32 6 -59 7 -61 4 -4 216 58 238 69 17 10 21 37 11 77 -7 26 -18 26 -134 1z"
       id="path96"
       style="fill:#66cc99" />
    <path
       d="M3685 5617 c-5 -7 -42 -48 -81 -92 l-72 -80 39 -44 c22 -24 42 -42 44 -39 39 38 145 188 145 204 0 21 -38 64 -56 64 -5 -1 -13 -6 -19 -13z"
       id="path98"
       style="fill:#66cc99" />
    <path
       d="M4176 5614 c-11 -29 -6 -83 10 -98 8 -9 17 -16 19 -16 2 0 2 29 2 65 -2 63 -17 86 -31 49z"
       id="path100"
       style="fill:#66cc00" />
    <path
       d="M4300 5570 c0 -45 3 -61 13 -57 7 2 12 23 12 57 0 34 -5 55 -12 58 -10 3 -13 -13 -13 -58z"
       id="path102"
       style="fill:#66cc00" />
    <path
       d="M4766 5601 c-16 -17 -26 -36 -23 -44 7 -19 123 -172 142 -187 12 -10 20 -6 42 20 48 56 49 53 -39 149 -45 50 -85 91 -88 91 -3 0 -19 -13 -34 -29z"
       id="path104"
       style="fill:#66cc99" />
    <path
       d="M3754 5448 c-123 -160 -195 -228 -294 -277 -47 -23 -136 -59 -199 -80 l-115 -39 -2 -93 c-6 -220 -20 -323 -56 -392 -32 -63 -123 -208 -168 -268 l-39 -52 20 -26 c53 -69 155 -231 185 -295 25 -53 36 -94 43 -161 12 -106 20 -223 21 -283 0 -25 5 -44 13 -47 60 -18 255 -94 306 -119 98 -47 159 -107 321 -320 19 -25 42 -45 51 -46 9 0 42 9 73 20 110 38 267 70 339 70 74 0 184 -23 320 -65 43 -14 84 -25 91 -25 7 0 49 46 93 103 164 209 237 261 486 348 60 20 110 39 112 41 2 2 6 66 9 143 13 277 29 329 174 540 41 61 75 115 75 120 0 6 -36 65 -80 131 -142 211 -156 255 -168 519 -4 83 -10 153 -13 156 -4 3 -50 21 -102 39 -132 46 -248 98 -293 130 -45 33 -138 137 -215 240 -30 41 -58 78 -62 83 -3 4 -33 -2 -66 -13 -238 -83 -394 -95 -569 -46 -94 26 -158 46 -196 61 -12 4 -37 -21 -95 -97z m295 7 c185 -55 234 -53 475 20 63 19 121 35 130 35 8 0 52 -47 97 -105 169 -219 197 -240 434 -321 77 -26 143 -50 146 -53 4 -3 9 -94 11 -201 l4 -195 33 -64 c17 -35 58 -101 89 -148 31 -46 72 -106 89 -133 l33 -48 -43 -59 c-84 -115 -160 -236 -180 -287 -17 -43 -21 -81 -25 -241 -2 -104 -5 -191 -7 -193 -1 -1 -60 -23 -131 -48 -260 -91 -299 -119 -454 -329 -41 -55 -75 -102 -77 -104 -2 -2 -40 6 -85 19 -227 63 -296 80 -328 80 -44 -1 -162 -28 -303 -70 -88 -26 -110 -30 -123 -20 -8 7 -60 71 -115 141 -55 71 -120 144 -145 163 -44 34 -172 88 -319 136 -38 12 -73 25 -76 29 -4 3 -9 92 -13 196 -6 184 -8 192 -37 255 -34 74 -68 129 -151 247 -32 45 -58 84 -58 88 0 4 38 62 85 130 47 68 101 156 120 197 34 73 34 73 41 263 3 105 8 193 10 196 2 4 61 26 131 49 153 51 238 90 279 127 40 37 125 139 196 235 l57 76 63 -19 c35 -11 101 -31 147 -44z"
       id="path106"
       style="fill:#ff0033" />
    <path
       d="M3812 5398 c-74 -97 -161 -200 -196 -232 -38 -35 -114 -70 -273 -125 l-121 -43 -5 -42 c-3 -22 -6 -95 -7 -161 -2 -197 -7 -212 -129 -394 -42 -62 -82 -123 -90 -135 -12 -19 -6 -31 75 -151 138 -204 138 -205 144 -429 l5 -188 120 -43 c243 -86 284 -113 392 -253 37 -48 82 -106 100 -129 l33 -41 78 24 c42 14 128 37 190 51 104 25 117 26 185 15 40 -7 124 -28 187 -47 63 -19 123 -35 132 -35 11 0 56 48 112 118 159 198 162 201 411 292 l130 48 6 173 c5 114 12 191 23 225 15 48 109 206 181 304 l33 45 -58 85 c-83 119 -146 228 -160 275 -7 22 -14 119 -17 216 l-5 176 -112 37 c-243 83 -299 122 -443 314 -47 61 -86 112 -89 112 -2 0 -45 -13 -96 -30 -265 -84 -354 -81 -676 25 -7 3 -34 -23 -60 -57z m178 -24 c52 -14 132 -35 177 -45 82 -19 84 -19 175 2 51 11 133 32 181 45 48 14 94 23 102 20 8 -3 66 -67 129 -143 63 -76 125 -144 138 -152 12 -8 95 -42 182 -75 101 -39 160 -66 161 -76 1 -8 6 -69 9 -135 10 -163 21 -236 42 -276 9 -19 55 -91 101 -161 73 -110 83 -130 73 -148 -6 -11 -45 -73 -87 -136 -112 -173 -110 -168 -128 -394 -1 -25 -3 -73 -4 -108 -1 -55 -4 -64 -23 -72 -13 -5 -90 -35 -173 -66 -135 -50 -155 -61 -196 -104 -36 -37 -142 -165 -216 -259 -2 -3 -65 12 -141 32 -254 67 -223 66 -431 13 -100 -25 -183 -46 -185 -46 -2 0 -47 54 -101 120 -145 179 -161 190 -393 275 -56 21 -107 45 -112 55 -5 9 -10 64 -11 121 -2 145 -16 244 -40 291 -11 22 -56 95 -100 162 -43 66 -79 126 -79 132 0 6 36 65 80 132 129 198 128 193 136 397 4 82 10 159 14 170 6 15 51 37 167 83 93 36 174 75 196 93 21 17 83 87 138 155 55 68 105 124 112 124 7 0 55 -12 107 -26z"
       id="path108"
       style="fill:#ff0033" />
    <path
       d="M3880 5325 c-13 -16 -8 -18 28 -9 12 4 22 10 22 15 0 15 -37 10 -50 -6z"
       id="path110"
       style="fill:none" />
    <path
       d="M4580 5331 c0 -11 39 -25 47 -18 3 3 2 10 -2 16 -8 13 -45 15 -45 2z"
       id="path112"
       style="fill:none" />
    <path
       d="M3945 5280 c-22 -10 -52 -19 -66 -20 -53 0 -96 -76 -76 -135 l13 -36 69 50 c69 51 70 51 147 51 90 0 95 7 46 63 -41 46 -79 54 -133 27z"
       id="path114"
       style="fill:#00ff33" />
    <path
       d="M4463 5290 c-23 -9 -63 -65 -63 -87 0 -9 22 -13 78 -13 76 -1 78 -1 136 -45 33 -25 65 -45 72 -45 18 0 26 46 14 90 -12 45 -46 73 -88 72 -15 0 -41 9 -58 19 -34 21 -57 23 -91 9z"
       id="path116"
       style="fill:#00ff33" />
    <path
       d="M4135 5270 c3 -5 8 -10 11 -10 2 0 4 5 4 10 0 6 -5 10 -11 10 -5 0 -7 -4 -4 -10z"
       id="path118"
       style="fill:none" />
    <path
       d="M4205 5238 c-21 -12 -35 -28 -35 -40 0 -5 38 -8 85 -8 93 0 104 9 53 40 -37 22 -73 25 -103 8z"
       id="path120"
       style="fill:#ccff99" />
    <path
       d="M3730 5140 c0 -5 5 -10 10 -10 6 0 10 5 10 10 0 6 -4 10 -10 10 -5 0 -10 -4 -10 -10z"
       id="path122"
       style="fill:none" />
    <path
       d="M4760 5140 c0 -5 5 -10 11 -10 5 0 7 5 4 10 -3 6 -8 10 -11 10 -2 0 -4 -4 -4 -10z"
       id="path124"
       style="fill:none" />
    <path
       d="M4090 5091 l-105 -6 -115 -76 c-63 -41 -161 -113 -218 -158 -88 -71 -107 -92 -128 -139 -31 -71 -107 -296 -130 -389 -17 -69 -17 -74 0 -150 21 -89 95 -314 128 -391 18 -40 43 -68 113 -128 95 -80 298 -219 344 -235 46 -16 269 -25 409 -17 132 9 133 9 200 50 129 79 356 251 376 286 18 31 94 241 119 328 50 171 50 170 17 296 -33 128 -63 219 -109 328 -28 69 -38 81 -115 144 -109 89 -320 233 -360 245 -41 12 -293 19 -426 12z m273 -21 c156 -11 181 -21 339 -127 136 -91 220 -172 261 -250 47 -91 100 -247 122 -361 18 -92 18 -93 -5 -195 -29 -128 -72 -252 -117 -339 -49 -93 -166 -194 -361 -312 l-93 -56 -172 -6 c-220 -8 -339 5 -404 43 -90 52 -248 168 -311 228 -48 46 -70 77 -93 130 -68 158 -119 337 -119 419 0 75 38 225 91 355 28 69 53 132 56 138 8 20 192 173 266 220 123 80 187 104 295 113 53 4 99 8 102 8 3 1 67 -3 143 -8z"
       id="path126"
       style="fill:#cc3300" />
    <path
       d="M4095 5029 c-122 -15 -251 -86 -416 -232 l-86 -75 -50 -124 c-42 -102 -72 -204 -98 -333 -10 -48 62 -305 119 -426 45 -95 165 -201 361 -320 l90 -54 230 0 230 0 65 32 c75 37 197 122 298 208 63 54 75 69 107 145 48 113 81 215 102 316 17 82 17 84 -6 185 -30 134 -86 290 -125 348 -71 105 -345 302 -449 322 -78 14 -281 19 -372 8z m430 -40 c68 -36 145 -89 262 -182 107 -85 113 -92 141 -160 35 -85 83 -233 106 -333 17 -70 17 -71 -8 -171 -28 -109 -71 -237 -108 -319 -18 -40 -42 -68 -103 -119 -72 -60 -232 -171 -295 -206 -19 -11 -81 -14 -270 -14 l-245 0 -70 44 c-188 117 -308 219 -344 289 -39 77 -83 207 -112 325 -21 89 -22 102 -10 160 17 85 65 235 108 337 30 74 42 91 91 130 90 72 181 138 261 188 67 42 84 48 151 54 41 3 149 4 240 2 142 -4 170 -7 205 -25z"
       id="path128"
       style="fill:#cc3300" />
    <path
       d="M4128 4963 c-27 -2 -48 -8 -48 -13 0 -5 14 -18 31 -31 l30 -21 30 28 c31 29 37 45 17 42 -7 -1 -34 -3 -60 -5z"
       id="path130"
       style="fill:#66ff66" />
    <path
       d="M4319 4942 c5 -9 18 -25 28 -34 18 -17 21 -16 53 17 l34 35 -62 0 c-57 0 -62 -2 -53 -18z"
       id="path132"
       style="fill:#66ff66" />
    <path
       d="M4235 4920 c-23 -26 -16 -32 30 -28 l37 3 -24 23 -25 22 -18 -20z"
       id="path134"
       style="fill:#ccff66" />
    <path
       d="M3928 4895 c-51 -34 -54 -43 -13 -51 42 -8 52 0 61 44 8 38 1 39 -48 7z"
       id="path136"
       style="fill:#66ff66" />
    <path
       d="M4526 4893 c14 -57 19 -61 64 -50 22 6 40 14 40 17 0 5 -94 60 -104 60 -4 0 -3 -12 0 -27z"
       id="path138"
       style="fill:#66ff66" />
    <path
       d="M4030 4896 c0 -8 -3 -22 -7 -32 -5 -15 -2 -16 23 -10 39 10 40 13 19 36 -21 23 -35 26 -35 6z"
       id="path140"
       style="fill:#ccff66" />
    <path
       d="M4435 4890 c-21 -24 -19 -28 23 -36 30 -6 31 -5 23 22 -9 35 -23 40 -46 14z"
       id="path142"
       style="fill:#ccff66" />
    <path
       d="M4167 4825 c-223 -45 -383 -174 -463 -375 -45 -112 -45 -306 0 -414 53 -126 176 -259 289 -311 190 -88 354 -84 546 12 116 58 223 189 269 329 68 203 18 419 -136 585 -74 80 -155 127 -274 158 -105 28 -154 31 -231 16z m288 -96 c33 -16 97 -59 142 -95 95 -76 115 -110 163 -282 l31 -111 -30 -101 c-49 -164 -73 -208 -144 -266 -158 -129 -198 -144 -375 -144 -104 0 -135 4 -169 20 -54 24 -122 70 -192 129 -64 53 -105 133 -142 275 l-23 89 23 91 c39 154 66 210 129 267 62 56 157 123 199 140 45 18 141 27 238 22 74 -4 101 -10 150 -34z"
       id="path144"
       style="fill:#ff0000" />
    <path
       d="M4225 4700 c3 -5 19 -10 36 -10 16 0 29 5 29 10 0 6 -16 10 -36 10 -21 0 -33 -4 -29 -10z"
       id="path146"
       style="fill:none" />
    <path
       d="m 4067,4611 c -40,-53 -52,-61 -104,-76 -32,-9 -63,-18 -70,-20 -8,-3 -10,-26 -6,-78 l 6,-75 -47,-57 c -29,-36 -43,-62 -38,-69 5,-6 25,-32 46,-58 37,-46 38,-49 34,-120 l -3,-73 73,-24 c 69,-23 76,-28 113,-83 22,-32 44,-58 50,-58 5,0 36,11 68,24 l 60,24 63,-22 c 35,-12 70,-21 78,-19 8,2 31,27 50,56 31,46 42,54 98,72 35,12 67,28 72,35 4,8 7,43 7,77 0,53 4,69 29,103 16,23 35,49 42,59 10,15 6,26 -30,76 -40,56 -42,62 -42,133 l -1,75 -65,18 c -50,14 -71,26 -90,51 -14,18 -37,46 -51,62 l -26,29 -66,-23 -67,-24 -62,22 c -35,12 -66,22 -69,22 -3,0 -26,-27 -52,-59 z m 245,-56 c 29,-14 74,-28 100,-31 43,-6 48,-10 58,-40 7,-19 33,-58 59,-87 l 46,-52 -9,-48 c -6,-32 -6,-66 1,-100 l 11,-52 -47,-51 c -25,-28 -55,-66 -66,-84 -17,-28 -29,-36 -75,-45 -30,-6 -74,-21 -97,-34 l -41,-22 -49,25 c -26,14 -61,28 -78,31 -16,3 -40,8 -53,11 -15,3 -29,18 -38,40 -8,20 -35,57 -58,83 l -44,46 9,57 c 6,36 6,74 -1,101 -9,43 -9,45 34,92 24,26 52,65 61,85 16,35 22,39 65,45 26,4 69,17 96,30 27,13 52,24 56,24 3,1 30,-10 60,-24 z"
       id="path148"
       style="fill:#cc0000"
       inkscape:connector-curvature="0" />
    <path
       d="M4200 4495 c-25 -14 -59 -25 -76 -25 -26 0 -34 -6 -45 -32 -7 -17 -30 -51 -51 -75 -21 -24 -38 -46 -38 -47 0 -2 5 -16 10 -33 7 -20 8 -44 1 -73 -9 -42 -8 -46 24 -81 19 -21 41 -51 50 -68 11 -22 26 -33 58 -41 23 -6 57 -17 75 -25 42 -19 62 -19 90 1 12 8 41 18 64 22 36 6 47 15 79 60 20 29 46 60 57 68 18 12 19 18 10 51 -5 20 -7 59 -3 88 5 45 3 53 -19 72 -13 12 -36 42 -51 67 -21 36 -33 46 -53 46 -15 0 -51 11 -80 25 -30 14 -55 25 -55 25 -1 -1 -22 -12 -47 -25z m93 -123 c84 -32 120 -132 70 -195 -13 -16 -23 -33 -23 -38 0 -5 -9 -9 -20 -9 -10 0 -30 -5 -44 -11 -19 -9 -33 -8 -68 5 -52 20 -88 70 -88 123 0 43 43 113 69 113 12 0 56 23 56 30 0 0 22 -8 48 -18z"
       id="path150"
       style="fill:#990033" />
    <path
       d="M4210 4290 c-33 -33 -26 -76 17 -99 31 -16 41 -14 68 14 30 29 32 54 5 83 -26 27 -64 28 -90 2z"
       id="path152"
       style="fill:#990000" />
    <path
       d="M3974 4616 c-16 -14 -24 -26 -18 -26 17 0 60 37 53 45 -4 3 -20 -5 -35 -19z"
       id="path154"
       style="fill:none" />
    <path
       d="M4496 4625 c6 -15 35 -35 50 -35 10 0 -17 30 -37 41 -15 7 -17 6 -13 -6z"
       id="path156"
       style="fill:none" />
    <path
       d="M3812 4391 c-14 -38 -11 -49 7 -27 7 8 11 25 9 38 -3 20 -5 19 -16 -11z"
       id="path158"
       style="fill:none" />
    <path
       d="M4670 4407 c0 -7 7 -22 16 -33 14 -17 15 -17 10 -1 -3 10 -6 25 -6 33 0 8 -4 14 -10 14 -5 0 -10 -6 -10 -13z"
       id="path160"
       style="fill:none" />
    <path
       d="M4687 4133 c-4 -3 -7 -20 -6 -37 l1 -31 9 34 c10 33 8 47 -4 34z"
       id="path162"
       style="fill:none" />
    <path
       d="M3812 4104 c7 -15 14 -21 16 -15 5 16 -5 41 -17 41 -7 0 -6 -10 1 -26z"
       id="path164"
       style="fill:none" />
    <path
       d="M3960 3894 c0 -5 12 -18 27 -28 16 -12 24 -14 21 -6 -5 16 -48 46 -48 34z"
       id="path166"
       style="fill:none" />
    <path
       d="M4522 3893 c-7 -2 -17 -14 -23 -25 -11 -20 -11 -20 20 -2 40 24 43 43 3 27z"
       id="path168"
       style="fill:none" />
    <path
       d="M4233 3803 c-26 -9 -12 -23 23 -23 19 0 33 4 30 9 -7 11 -37 19 -53 14z"
       id="path170"
       style="fill:none" />
    <path
       d="M3845 4802 c-3 -3 -5 -18 -5 -34 l0 -30 29 24 c17 13 30 26 30 29 1 8 -47 18 -54 11z"
       id="path172"
       style="fill:#ccff66" />
    <path
       d="M4628 4803 c-10 -2 -18 -8 -18 -12 0 -7 46 -51 54 -51 4 0 3 26 -3 63 -1 7 -5 7 -33 0z"
       id="path174"
       style="fill:#ccff66" />
    <path
       d="M4713 4787 c4 -10 7 -34 7 -53 0 -31 3 -34 28 -33 15 0 35 4 45 7 19 8 11 18 -62 77 -23 19 -24 19 -18 2z"
       id="path176"
       style="fill:#66ff66" />
    <path
       d="M3736 4753 c-38 -37 -38 -37 -15 -45 39 -15 69 5 69 47 0 19 -3 35 -7 35 -5 0 -25 -17 -47 -37z"
       id="path178"
       style="fill:#66ff66" />
    <path
       d="M3697 4625 l16 -35 19 30 c24 40 24 40 -17 40 l-35 0 17 -35z"
       id="path180"
       style="fill:#ccff66" />
    <path
       d="M4760 4648 c0 -6 7 -20 16 -30 16 -17 18 -17 30 0 22 28 16 42 -16 42 -16 0 -30 -5 -30 -12z"
       id="path182"
       style="fill:#ccff66" />
    <path
       d="M3616 4597 c-22 -53 -28 -77 -20 -77 16 0 74 24 74 31 0 11 -30 79 -35 79 -3 0 -11 -15 -19 -33z"
       id="path184"
       style="fill:#66ff66" />
    <path
       d="M4851 4599 c-17 -49 -14 -56 25 -69 19 -7 37 -10 39 -8 6 6 -36 108 -45 108 -4 0 -13 -14 -19 -31z"
       id="path186"
       style="fill:#66ff66" />
    <path
       d="M3612 4470 c-19 -8 -21 -13 -12 -29 21 -40 32 -37 44 12 7 29 4 31 -32 17z"
       id="path188"
       style="fill:#ccff66" />
    <path
       d="M4858 4469 c6 -7 12 -23 12 -36 0 -30 18 -29 32 2 13 30 12 31 -27 40 -25 6 -28 5 -17 -6z"
       id="path190"
       style="fill:#ccff66" />
    <path
       d="M3546 4398 c-2 -7 -9 -32 -14 -55 -12 -51 -2 -55 42 -20 l29 24 -19 31 c-19 34 -32 40 -38 20z"
       id="path192"
       style="fill:#66ff66" />
    <path
       d="M4934 4398 c-4 -7 -14 -23 -21 -34 -13 -20 -11 -24 22 -44 20 -12 38 -20 41 -18 7 7 -18 108 -27 108 -4 0 -11 -6 -15 -12z"
       id="path194"
       style="fill:#66ff66" />
    <path
       d="M3572 4262 l-24 -18 26 -17 c34 -23 36 -22 36 18 0 40 -5 42 -38 17z"
       id="path196"
       style="fill:#ccff66" />
    <path
       d="M4892 4245 c2 -40 5 -41 36 -19 28 20 28 28 -3 42 -36 16 -36 16 -33 -23z"
       id="path198"
       style="fill:#ccff66" />
    <path
       d="M3524 4184 c3 -9 9 -33 12 -55 4 -22 10 -42 15 -45 7 -4 49 52 49 66 0 6 -67 50 -76 50 -3 0 -3 -7 0 -16z"
       id="path200"
       style="fill:#66ff66" />
    <path
       d="M4937 4173 l-38 -24 20 -32 c11 -17 24 -33 29 -35 8 -2 38 106 30 113 -1 1 -20 -8 -41 -22z"
       id="path202"
       style="fill:#66ff66" />
    <path
       d="M3613 4069 c-19 -19 -16 -37 8 -49 28 -16 32 -8 17 29 -10 26 -15 30 -25 20z"
       id="path204"
       style="fill:#ccff66" />
    <path
       d="M4864 4045 c-12 -37 -6 -42 26 -25 17 9 18 14 8 35 -15 33 -21 32 -34 -10z"
       id="path206"
       style="fill:#ccff66" />
    <path
       d="M3594 3957 c12 -47 38 -99 45 -91 5 5 13 23 19 41 12 35 8 40 -42 61 -27 12 -28 12 -22 -11z"
       id="path208"
       style="fill:#66ff66" />
    <path
       d="M4880 3964 c-19 -8 -36 -16 -38 -18 -6 -6 18 -86 26 -86 7 0 54 111 49 116 -1 1 -18 -4 -37 -12z"
       id="path210"
       style="fill:#66ff66" />
    <path
       d="M3696 3872 c-21 -41 -21 -42 19 -42 19 0 35 2 35 5 0 2 -9 19 -19 36 l-19 31 -16 -30z"
       id="path212"
       style="fill:#ccff66" />
    <path
       d="M4768 3866 c-16 -21 -16 -25 -2 -30 25 -10 54 -7 54 5 0 15 -19 49 -28 49 -4 0 -15 -11 -24 -24z"
       id="path214"
       style="fill:#ccff66" />
    <path
       d="M3712 3781 c-23 -6 -23 -7 16 -39 49 -38 62 -40 62 -8 0 54 -18 64 -78 47z"
       id="path216"
       style="fill:#66ff66" />
    <path
       d="M4719 3773 c0 -10 -3 -30 -5 -45 -3 -16 -2 -28 2 -28 4 0 27 17 52 37 39 32 43 38 26 44 -37 14 -74 10 -75 -8z"
       id="path218"
       style="fill:#66ff66" />
    <path
       d="M3842 3724 c2 -23 9 -30 31 -32 35 -4 34 7 -4 37 l-31 24 4 -29z"
       id="path220"
       style="fill:#ccff66" />
    <path
       d="M4627 3722 c-31 -21 -26 -32 13 -32 21 0 26 5 26 25 0 30 -3 30 -39 7z"
       id="path222"
       style="fill:#ccff66" />
    <path
       d="M3912 3649 c-18 -3 -35 -9 -38 -12 -3 -2 19 -18 48 -35 29 -17 54 -29 56 -27 8 7 -11 74 -21 78 -7 2 -27 0 -45 -4z"
       id="path224"
       style="fill:#66ff66" />
    <path
       d="M4542 3643 c-12 -24 -24 -73 -17 -73 2 0 28 14 56 32 53 32 53 39 -3 52 -20 5 -30 2 -36 -11z"
       id="path226"
       style="fill:#66ff66" />
    <path
       d="M4024 3618 c3 -18 8 -33 10 -36 5 -5 55 30 56 39 0 3 -16 11 -36 17 l-36 11 6 -31z"
       id="path228"
       style="fill:#ccff66" />
    <path
       d="M4448 3638 c-34 -12 -35 -21 -4 -42 24 -15 25 -14 35 16 16 44 16 44 -31 26z"
       id="path230"
       style="fill:#ccff66" />
    <path
       d="M4109 3572 l-34 -30 26 -7 c14 -3 42 -5 62 -3 l36 3 -28 34 -28 34 -34 -31z"
       id="path232"
       style="fill:#66ff66" />
    <path
       d="M4225 3580 c10 -11 23 -20 29 -20 6 0 17 9 24 20 11 19 10 20 -29 20 -41 0 -42 0 -24 -20z"
       id="path234"
       style="fill:#ccff66" />
    <path
       d="M4336 3571 c-14 -15 -26 -30 -26 -34 0 -10 108 -9 114 2 3 5 -9 20 -28 34 l-33 26 -27 -28z"
       id="path236"
       style="fill:#66ff66" />
    <path
       d="M3685 5066 c-35 -15 -65 -55 -65 -86 0 -26 12 -25 36 1 10 12 38 32 61 46 46 27 52 37 27 47 -21 8 -24 8 -59 -8z"
       id="path238"
       style="fill:#ccff99" />
    <path
       d="M4750 5069 c-11 -8 -12 -12 -2 -16 6 -2 39 -24 72 -49 57 -42 78 -44 66 -6 -16 50 -103 95 -136 71z"
       id="path240"
       style="fill:#ccff99" />
    <path
       d="M3550 5010 c0 -5 5 -10 10 -10 6 0 10 5 10 10 0 6 -4 10 -10 10 -5 0 -10 -4 -10 -10z"
       id="path242"
       style="fill:none" />
    <path
       d="M4935 5010 c-3 -5 -2 -10 4 -10 5 0 13 5 16 10 3 6 2 10 -4 10 -5 0 -13 -4 -16 -10z"
       id="path244"
       style="fill:none" />
    <path
       d="M3455 4963 c-30 -8 -55 -34 -55 -58 0 -14 -13 -33 -34 -49 -39 -29 -53 -73 -35 -108 16 -32 50 -68 64 -68 6 0 22 31 35 69 28 85 25 81 81 118 65 45 73 56 51 75 -19 17 -76 28 -107 21z"
       id="path246"
       style="fill:#00ff33" />
    <path
       d="M4970 4957 c-53 -18 -48 -37 24 -90 49 -36 66 -55 71 -80 13 -55 37 -107 51 -107 21 0 64 71 64 107 0 31 -28 73 -49 73 -5 0 -15 16 -21 35 -13 40 -53 75 -84 74 -11 0 -37 -5 -56 -12z"
       id="path248"
       style="fill:#00ff33" />
    <path
       d="M3320 4915 c-7 -9 -10 -18 -7 -22 8 -7 37 15 37 28 0 14 -16 11 -30 -6z"
       id="path250"
       style="fill:none" />
    <path
       d="M5156 4915 c4 -8 12 -15 20 -15 8 0 11 6 8 15 -4 8 -12 15 -20 15 -8 0 -11 -6 -8 -15z"
       id="path252"
       style="fill:none" />
    <path
       d="M3305 4670 c3 -5 8 -10 11 -10 2 0 4 5 4 10 0 6 -5 10 -11 10 -5 0 -7 -4 -4 -10z"
       id="path254"
       style="fill:none" />
    <path
       d="M3327 4602 c-29 -32 -39 -72 -27 -108 7 -19 15 -34 19 -34 7 0 26 49 58 143 7 23 -28 23 -50 -1z"
       id="path256"
       style="fill:#ccff99" />
    <path
       d="M5147 4553 c13 -38 26 -75 29 -83 9 -24 34 18 34 56 0 37 -42 94 -70 94 -16 0 -16 -5 7 -67z"
       id="path258"
       style="fill:#ccff99" />
    <path
       d="M3235 4460 c-3 -5 -1 -10 4 -10 6 0 11 5 11 10 0 6 -2 10 -4 10 -3 0 -8 -4 -11 -10z"
       id="path260"
       style="fill:none" />
    <path
       d="M5250 4460 c0 -5 5 -10 10 -10 6 0 10 5 10 10 0 6 -4 10 -10 10 -5 0 -10 -4 -10 -10z"
       id="path262"
       style="fill:none" />
    <path
       d="M3247 4396 c-67 -24 -77 -40 -76 -115 1 -36 0 -79 -1 -95 -4 -40 44 -86 98 -93 50 -7 50 -5 20 89 l-22 68 23 70 c20 64 21 91 3 90 -4 -1 -24 -7 -45 -14z"
       id="path264"
       style="fill:#00ff33" />
    <path
       d="M5196 4402 c-3 -5 6 -43 20 -84 l25 -76 -26 -73 c-14 -40 -25 -75 -25 -77 0 -3 21 -2 46 1 74 8 116 63 94 123 -7 18 -7 36 1 58 14 39 -1 79 -41 107 -30 21 -86 34 -94 21z"
       id="path266"
       style="fill:#00ff33" />
    <path
       d="M3106 4261 c-8 -13 4 -42 15 -35 12 7 12 44 0 44 -6 0 -12 -4 -15 -9z"
       id="path268"
       style="fill:none" />
    <path
       d="M5380 4245 c0 -15 4 -24 10 -20 6 3 10 12 10 20 0 8 -4 17 -10 20 -6 4 -10 -5 -10 -20z"
       id="path270"
       style="fill:none" />
    <path
       d="M5255 4040 c-3 -5 -1 -10 4 -10 6 0 11 5 11 10 0 6 -2 10 -4 10 -3 0 -8 -4 -11 -10z"
       id="path272"
       style="fill:none" />
    <path
       d="M3302 4002 c-17 -51 23 -132 66 -132 9 0 12 6 9 18 -31 93 -51 142 -57 142 -5 0 -12 -13 -18 -28z"
       id="path274"
       style="fill:#ccff99" />
    <path
       d="M5175 4019 c-2 -8 -16 -45 -29 -82 l-26 -68 22 3 c30 4 68 63 68 103 0 36 -26 68 -35 44z"
       id="path276"
       style="fill:#ccff99" />
    <path
       d="M5185 3830 c-3 -5 -1 -10 4 -10 6 0 11 5 11 10 0 6 -2 10 -4 10 -3 0 -8 -4 -11 -10z"
       id="path278"
       style="fill:none" />
    <path
       d="M3361 3785 c-17 -20 -33 -46 -37 -59 -7 -27 10 -65 38 -84 10 -8 26 -30 36 -50 11 -24 30 -44 54 -55 36 -18 38 -18 83 2 25 11 45 24 45 28 0 5 -26 28 -59 51 -58 43 -75 68 -101 154 -6 21 -15 40 -20 43 -4 3 -22 -11 -39 -30z"
       id="path280"
       style="fill:#00ff33" />
    <path
       d="M5089 3783 c-6 -16 -17 -48 -25 -73 -11 -38 -24 -54 -79 -94 -36 -26 -65 -50 -65 -52 0 -11 72 -34 105 -34 37 0 85 35 85 63 0 8 16 30 35 50 43 45 46 85 9 134 -31 40 -51 42 -65 6z"
       id="path282"
       style="fill:#00ff33" />
    <path
       d="M3310 3591 c0 -13 29 -35 37 -28 7 8 -15 37 -28 37 -5 0 -9 -4 -9 -9z"
       id="path284"
       style="fill:none" />
    <path
       d="M5160 3580 c-8 -16 -8 -20 4 -20 16 0 29 27 16 35 -5 3 -14 -4 -20 -15z"
       id="path286"
       style="fill:none" />
    <path
       d="M3620 3509 c0 -34 18 -58 61 -79 38 -20 79 -20 79 0 0 4 -22 22 -49 40 -27 17 -55 38 -61 46 -17 20 -30 17 -30 -7z"
       id="path288"
       style="fill:#ccff99" />
    <path
       d="M4845 3510 c-10 -11 -38 -33 -62 -48 -23 -15 -43 -30 -43 -34 0 -17 50 -19 79 -3 32 16 74 72 68 89 -6 18 -24 16 -42 -4z"
       id="path290"
       style="fill:#ccff99" />
    <path
       d="M3555 3480 c3 -5 8 -10 11 -10 2 0 4 5 4 10 0 6 -5 10 -11 10 -5 0 -7 -4 -4 -10z"
       id="path292"
       style="fill:none" />
    <path
       d="M4935 3480 c4 -6 11 -8 16 -5 14 9 11 15 -7 15 -8 0 -12 -5 -9 -10z"
       id="path294"
       style="fill:none" />
    <path
       d="M3803 3373 c-20 -79 20 -143 90 -143 12 0 41 -10 65 -22 l42 -23 37 20 c39 21 79 77 68 95 -3 5 -41 10 -84 10 -73 0 -81 2 -122 33 -24 19 -54 39 -66 46 -20 10 -23 9 -30 -16z"
       id="path296"
       style="fill:#00ff33" />
    <path
       d="M4618 3350 c-55 -39 -59 -40 -137 -40 -44 0 -82 -4 -85 -8 -11 -19 40 -87 76 -100 34 -13 41 -13 78 7 22 11 54 21 71 21 35 0 75 35 85 74 7 28 -7 78 -22 83 -6 2 -35 -15 -66 -37z"
       id="path298"
       style="fill:#00ff33" />
    <path
       d="M4760 3349 c0 -5 5 -7 10 -4 6 3 10 8 10 11 0 2 -4 4 -10 4 -5 0 -10 -5 -10 -11z"
       id="path300"
       style="fill:none" />
    <path
       d="M4253 3302 c-46 -2 -83 -6 -83 -11 0 -13 34 -38 61 -45 35 -8 87 11 100 36 6 11 9 20 7 21 -2 1 -40 1 -85 -1z"
       id="path302"
       style="fill:#ccff99" />
    <path
       d="M4130 3220 c0 -5 5 -10 10 -10 6 0 10 5 10 10 0 6 -4 10 -10 10 -5 0 -10 -4 -10 -10z"
       id="path304"
       style="fill:none" />
    <path
       d="M3880 3170 c0 -13 28 -25 38 -16 3 4 0 11 -8 16 -20 13 -30 12 -30 0z"
       id="path306"
       style="fill:none" />
    <path
       d="M4598 3173 c-19 -5 -25 -23 -9 -23 17 0 41 12 41 21 0 9 -4 10 -32 2z"
       id="path308"
       style="fill:none" />
    <path
       d="M3480 5403 c0 -5 54 -95 67 -113 11 -13 20 26 11 44 -21 42 -78 92 -78 69z"
       id="path310"
       style="fill:#66cc00" />
    <path
       d="M4992 5394 c-30 -21 -55 -71 -44 -89 6 -11 16 -2 45 40 37 56 37 76 -1 49z"
       id="path312"
       style="fill:#66cc00" />
    <path
       d="M3385 5318 c10 -33 54 -88 70 -88 20 0 29 19 11 26 -8 3 -26 23 -40 45 -29 43 -51 52 -41 17z"
       id="path314"
       style="fill:#66cc00" />
    <path
       d="M3460 5331 c0 -5 5 -13 10 -16 6 -3 10 -2 10 4 0 5 -4 13 -10 16 -5 3 -10 2 -10 -4z"
       id="path316"
       style="fill:none" />
    <path
       d="M5067 5289 c-40 -54 -42 -65 -8 -54 33 10 81 105 54 105 -5 0 -25 -23 -46 -51z"
       id="path318"
       style="fill:#66cc00" />
    <path
       d="M3275 5278 c-22 -12 -69 -34 -105 -49 -69 -28 -75 -39 -44 -86 19 -31 43 -29 151 12 133 49 127 42 87 98 -19 26 -38 47 -42 47 -4 -1 -25 -11 -47 -22z"
       id="path320"
       style="fill:#66cc99" />
    <path
       d="M5141 5252 c-17 -26 -27 -50 -23 -54 11 -11 212 -78 232 -78 23 0 58 66 43 81 -10 10 -48 27 -175 79 l-46 19 -31 -47z"
       id="path322"
       style="fill:#66cc99" />
    <path
       d="M3038 5153 c-2 -20 -9 -29 -25 -31 -13 -2 -23 -7 -23 -12 0 -10 88 -25 96 -17 5 5 -33 87 -41 87 -2 0 -5 -12 -7 -27z"
       id="path324"
       style="fill:#66cc00" />
    <path
       d="M5435 5143 c-11 -21 -21 -41 -23 -45 -4 -10 34 -10 77 -2 37 8 41 24 6 24 -21 0 -25 5 -25 30 0 40 -12 38 -35 -7z"
       id="path326"
       style="fill:#66cc00" />
    <path
       d="M2995 5040 c-3 -6 -10 -52 -16 -103 -5 -50 -10 -103 -11 -116 -3 -22 3 -26 51 -38 29 -8 56 -12 58 -9 3 2 7 61 10 129 l5 124 -33 12 c-40 14 -56 14 -64 1z"
       id="path328"
       style="fill:#66cc99" />
    <path
       d="M5445 5038 c-11 -6 -23 -16 -27 -22 -9 -13 1 -228 12 -239 6 -6 96 9 108 18 4 3 -16 194 -24 233 -5 25 -35 29 -69 10z"
       id="path330"
       style="fill:#66cc99" />
    <path
       d="M2952 4729 c3 -8 99 -49 115 -49 2 0 3 7 3 16 0 17 -57 44 -96 44 -14 0 -24 -5 -22 -11z"
       id="path332"
       style="fill:#66cc00" />
    <path
       d="M5475 4730 c-27 -10 -49 -37 -37 -44 12 -7 115 29 120 43 4 13 -53 14 -83 1z"
       id="path334"
       style="fill:#66cc00" />
    <path
       d="M2910 4617 c0 -15 66 -47 100 -47 19 0 36 17 26 27 -3 3 -22 9 -43 13 -21 5 -48 12 -60 15 -17 5 -23 3 -23 -8z"
       id="path336"
       style="fill:#66cc00" />
    <path
       d="M5555 4620 c-11 -5 -37 -11 -57 -15 -42 -7 -49 -20 -17 -30 27 -9 109 22 109 41 0 16 -6 16 -35 4z"
       id="path338"
       style="fill:#66cc00" />
    <path
       d="M2827 4454 c-32 -58 -56 -111 -53 -119 4 -12 74 -41 80 -33 16 17 147 210 144 212 -2 1 -25 11 -53 22 -27 10 -52 20 -55 21 -3 1 -31 -45 -63 -103z"
       id="path340"
       style="fill:#66cc99" />
    <path
       d="M5565 4539 c-22 -10 -44 -20 -50 -22 -12 -5 121 -203 141 -211 18 -7 56 7 72 27 10 12 1 34 -50 121 -35 58 -65 106 -68 105 -3 0 -23 -9 -45 -20z"
       id="path342"
       style="fill:#66cc99" />
    <path
       d="M2720 4295 c0 -3 7 -17 16 -31 16 -23 15 -26 -1 -44 -10 -11 -13 -20 -7 -20 21 0 81 35 78 45 -3 11 -86 60 -86 50z"
       id="path344"
       style="fill:#66cc00" />
    <path
       d="M5732 4272 l-44 -24 42 -25 c43 -26 65 -24 38 4 -15 14 -15 18 -1 40 9 13 14 25 12 27 -2 1 -24 -8 -47 -22z"
       id="path346"
       style="fill:#66cc00" />
    <path
       d="M2787 4170 l-26 -21 39 -63 c21 -35 48 -84 61 -108 12 -23 22 -44 23 -45 1 -1 28 8 59 21 l58 23 -61 91 c-58 88 -91 122 -116 122 -6 0 -23 -9 -37 -20z"
       id="path348"
       style="fill:#66cc99" />
    <path
       d="M5634 4163 c-26 -28 -124 -172 -124 -182 0 -3 24 -15 53 -27 l53 -21 63 110 64 110 -24 18 c-33 26 -56 24 -85 -8z"
       id="path350"
       style="fill:#66cc99" />
    <path
       d="M2943 3903 c-33 -17 -44 -33 -20 -33 28 1 108 27 110 36 3 16 -57 14 -90 -3z"
       id="path352"
       style="fill:#66cc00" />
    <path
       d="M5465 3910 c-3 -6 0 -12 7 -14 7 -2 37 -10 66 -19 43 -13 52 -13 52 -1 0 30 -109 60 -125 34z"
       id="path354"
       style="fill:#66cc00" />
    <path
       d="M3008 3792 c-32 -14 -58 -29 -58 -34 0 -16 83 2 104 22 33 32 12 37 -46 12z"
       id="path356"
       style="fill:#66cc00" />
    <path
       d="M5434 3809 c-16 -26 79 -70 111 -52 10 6 -2 16 -45 35 -35 15 -62 22 -66 17z"
       id="path358"
       style="fill:#66cc00" />
    <path
       d="M5420 3683 c-1 -26 -3 -82 -6 -123 -6 -86 4 -103 67 -115 l36 -7 8 104 c13 173 15 162 -25 168 -19 4 -45 10 -57 14 -22 7 -23 5 -23 -41z"
       id="path360"
       style="fill:#66cc99" />
    <path
       d="M3010 3711 c-34 -6 -35 -7 -36 -56 -1 -78 12 -195 23 -206 7 -7 24 -7 52 1 l42 11 -2 103 c-2 165 0 161 -79 147z"
       id="path362"
       style="fill:#66cc99" />
    <path
       d="M3030 3395 c-43 -12 -44 -13 -18 -20 21 -5 28 -14 30 -38 l3 -32 23 46 c12 25 22 48 22 52 0 8 -2 8 -60 -8z"
       id="path364"
       style="fill:#66cc00" />
    <path
       d="M5410 3405 c0 -2 11 -24 24 -49 24 -46 36 -49 36 -10 0 14 8 24 23 28 21 7 21 7 2 15 -26 10 -85 22 -85 16z"
       id="path366"
       style="fill:#66cc00" />
    <path
       d="M3137 3362 c-28 -33 -38 -59 -24 -70 14 -11 220 -103 222 -99 1 1 16 23 33 49 17 26 27 50 23 52 -11 7 -147 56 -198 72 -36 11 -43 10 -56 -4z"
       id="path368"
       style="fill:#66cc99" />
    <path
       d="M5216 3335 c-49 -19 -93 -38 -97 -42 -10 -10 42 -92 59 -93 15 0 203 79 216 91 6 5 3 22 -7 44 -14 30 -22 35 -49 34 -18 0 -73 -16 -122 -34z"
       id="path370"
       style="fill:#66cc99" />
    <path
       d="M3427 3242 c-35 -38 -51 -72 -39 -84 6 -6 21 6 41 36 18 25 36 46 41 46 15 0 12 17 -4 23 -7 3 -25 -7 -39 -21z"
       id="path372"
       style="fill:#66cc00" />
    <path
       d="M5030 3253 c1 -5 21 -30 45 -58 39 -44 45 -47 45 -27 0 31 -47 92 -71 92 -11 0 -19 -3 -19 -7z"
       id="path374"
       style="fill:#66cc00" />
    <path
       d="M3515 3151 c-39 -60 -39 -61 -21 -61 8 0 26 15 39 33 36 48 38 54 24 65 -9 7 -20 -2 -42 -37z"
       id="path376"
       style="fill:#66cc00" />
    <path
       d="M4945 3190 c-8 -12 10 -48 43 -82 39 -42 44 -23 10 33 -35 56 -44 64 -53 49z"
       id="path378"
       style="fill:#66cc00" />
    <path
       d="M3569 3092 l-37 -47 87 -93 86 -93 33 33 32 34 -49 70 c-27 38 -64 86 -83 106 l-33 38 -36 -48z"
       id="path380"
       style="fill:#66cc99" />
    <path
       d="M4849 3082 c-57 -72 -109 -148 -109 -159 0 -5 14 -22 30 -38 l31 -29 72 78 c104 115 101 107 67 147 -16 19 -29 40 -30 47 0 23 -15 12 -61 -46z"
       id="path382"
       style="fill:#66cc99" />
    <path
       d="M4181 2971 c-14 -25 -14 -62 -1 -97 15 -38 22 -24 25 46 3 64 -7 84 -24 51z"
       id="path384"
       style="fill:#66cc00" />
    <path
       d="M4300 2919 c0 -81 24 -77 28 4 2 46 0 57 -13 57 -12 0 -15 -13 -15 -61z"
       id="path386"
       style="fill:#66cc00" />
    <path
       d="M4085 2965 c-5 -2 -56 -17 -112 -35 l-103 -31 0 -37 c0 -61 7 -65 81 -48 35 9 90 20 122 26 l58 12 -2 41 c-2 73 -9 84 -44 72z"
       id="path388"
       style="fill:#66cc99" />
    <path
       d="M4380 2910 c0 -54 2 -60 23 -65 12 -3 56 -12 97 -20 41 -9 87 -18 101 -21 25 -6 27 -3 34 35 4 22 4 45 0 50 -5 10 -159 60 -227 75 l-28 6 0 -60z"
       id="path390"
       style="fill:#66cc99" />
    <path
       d="M3766 2844 c-40 -35 -44 -54 -8 -35 29 16 40 14 47 -9 3 -11 10 -20 15 -20 9 0 1 81 -9 92 -3 3 -24 -9 -45 -28z"
       id="path392"
       style="fill:#66cc00" />
    <path
       d="M4698 2874 c-12 -20 -20 -94 -10 -94 6 0 14 9 17 20 7 22 25 26 43 8 6 -6 14 -9 18 -6 3 4 -10 23 -29 44 -18 20 -36 33 -39 28z"
       id="path394"
       style="fill:#66cc00" />
    <path
       d="M2114 5912 c-58 -69 -125 -175 -122 -190 3 -18 118 -69 307 -138 117 -42 124 -44 137 -27 7 10 14 23 14 30 0 22 -279 363 -298 363 -4 0 -21 -17 -38 -38z"
       id="path396"
       style="fill:#66ffcc" />
    <path
       d="M6309 5903 c-57 -60 -149 -168 -213 -251 -45 -59 -47 -66 -36 -88 8 -13 17 -24 22 -24 34 0 431 163 436 179 4 12 -75 132 -125 189 l-38 43 -46 -48z"
       id="path398"
       style="fill:#66ffcc" />
    <path
       d="M3094 5885 c-28 -19 -63 -48 -78 -65 -26 -31 -26 -32 -9 -62 20 -34 90 -98 108 -98 6 0 22 12 36 26 13 14 43 37 67 51 23 14 42 30 42 36 -1 21 -41 102 -62 125 -28 29 -43 27 -104 -13z"
       id="path400"
       style="fill:#00cc33" />
    <path
       d="M5302 5893 c-23 -33 -47 -80 -56 -110 -6 -19 0 -25 36 -44 24 -12 58 -35 76 -50 40 -35 51 -31 115 42 42 48 44 54 32 73 -28 42 -140 116 -175 116 -5 0 -17 -12 -28 -27z"
       id="path402"
       style="fill:#00cc33" />
    <path
       d="M2888 5714 c-26 -19 -84 -56 -130 -83 -75 -43 -83 -50 -86 -81 -4 -34 18 -101 42 -133 13 -17 17 -17 81 12 77 35 218 127 254 164 l23 25 -56 56 c-31 31 -56 61 -56 66 0 18 -24 9 -72 -26z m27 -90 c40 -43 27 -104 -27 -130 -63 -29 -127 22 -114 91 13 66 95 89 141 39z"
       id="path404"
       style="fill:#66cc99" />
    <path
       d="M2836 5597 c-26 -19 -17 -51 17 -55 31 -4 47 20 30 46 -13 22 -26 24 -47 9z"
       id="path406"
       style="fill:#ff9966" />
    <path
       d="M5493 5681 l-63 -68 23 -21 c75 -69 292 -190 321 -179 30 12 56 69 56 124 l0 53 -52 26 c-29 15 -90 51 -136 80 -45 30 -84 54 -85 53 -1 0 -30 -31 -64 -68z m221 -62 c30 -35 32 -49 11 -88 -37 -73 -155 -46 -155 36 0 78 94 112 144 52z"
       id="path408"
       style="fill:#66cc99" />
    <path
       d="M5625 5590 c-15 -16 -15 -22 -5 -35 7 -8 23 -15 36 -15 18 0 24 5 24 23 0 22 -16 47 -30 47 -4 0 -15 -9 -25 -20z"
       id="path410"
       style="fill:#ff9966" />
    <path
       d="M1885 5594 l-59 -76 25 -19 c32 -24 239 -126 359 -177 135 -57 198 -78 207 -68 4 4 8 58 8 119 l0 111 -164 62 c-89 34 -193 76 -230 93 -37 17 -72 31 -78 31 -6 0 -36 -34 -68 -76z"
       id="path412"
       style="fill:#66ccff" />
    <path
       d="M6495 5648 c-48 -25 -122 -55 -270 -109 -179 -65 -159 -44 -151 -159 7 -106 12 -130 30 -130 23 0 271 102 379 156 158 79 198 104 190 117 -19 34 -117 147 -127 147 -6 -1 -29 -10 -51 -22z"
       id="path414"
       style="fill:#66ccff" />
    <path
       d="M2543 5547 c-44 -17 -45 -19 -49 -87 l-4 -60 85 0 c47 0 85 3 85 6 0 3 -5 15 -12 27 -6 12 -17 45 -23 72 -13 56 -27 63 -82 42z"
       id="path416"
       style="fill:#00cc33" />
    <path
       d="M5881 5510 c-6 -28 -17 -63 -25 -78 l-14 -27 88 -1 89 -1 -3 51 c-2 28 -4 56 -5 63 -1 11 -81 43 -107 43 -7 0 -17 -23 -23 -50z"
       id="path418"
       style="fill:#00cc33" />
    <path
       d="M1744 5423 c-22 -27 -50 -62 -62 -80 l-22 -32 42 -29 c92 -62 409 -228 551 -287 40 -17 71 -25 76 -19 15 16 71 172 71 196 0 20 -17 30 -138 77 -140 55 -316 137 -410 191 -29 16 -57 30 -61 30 -4 0 -26 -21 -47 -47z"
       id="path420"
       style="fill:#66ccff" />
    <path
       d="M6544 5385 c-89 -45 -224 -106 -300 -137 -161 -64 -153 -49 -103 -190 23 -66 36 -88 49 -88 20 0 517 249 598 299 28 18 52 38 52 45 0 15 -110 149 -125 152 -5 1 -83 -35 -171 -81z"
       id="path422"
       style="fill:#66ccff" />
    <path
       d="M2524 5350 c-29 -9 -31 -13 -53 -117 -12 -60 -31 -132 -41 -160 l-18 -53 36 -10 c21 -5 59 -23 86 -40 58 -37 55 -40 97 90 34 109 58 265 42 281 -14 14 -112 20 -149 9z m98 -130 c25 -26 29 -36 24 -63 -13 -66 -93 -91 -141 -42 -50 49 -15 135 55 135 22 0 41 -10 62 -30z"
       id="path424"
       style="fill:#66cc99" />
    <path
       d="M2533 5184 c-15 -39 38 -67 60 -32 8 12 7 21 -2 32 -17 21 -50 20 -58 0z"
       id="path426"
       style="fill:#ff9966" />
    <path
       d="M5853 5349 c-18 -5 -33 -15 -33 -22 1 -74 55 -297 87 -359 l13 -28 38 23 c20 13 58 32 85 42 26 10 47 19 47 20 0 1 -7 22 -16 46 -8 24 -24 87 -35 139 -27 130 -26 128 -67 140 -44 12 -75 12 -119 -1z m138 -112 c26 -20 41 -57 34 -85 -11 -45 -34 -62 -81 -62 -34 0 -47 5 -63 26 -28 36 -27 79 4 109 27 27 79 33 106 12z"
       id="path428"
       style="fill:#66cc99" />
    <path
       d="M5909 5184 c-11 -14 -10 -19 10 -35 13 -11 27 -19 31 -19 16 0 31 30 25 50 -8 24 -47 27 -66 4z"
       id="path430"
       style="fill:#ff9966" />
    <path
       d="M1603 5237 c-41 -60 -71 -141 -76 -208 l-6 -66 132 -12 c157 -15 326 -41 495 -77 68 -14 126 -23 129 -21 3 3 6 20 6 38 2 38 23 25 -233 147 -91 44 -221 112 -290 152 -69 40 -127 74 -130 76 -3 1 -15 -12 -27 -29z"
       id="path432"
       style="fill:#66ffcc" />
    <path
       d="M6779 5211 c-96 -59 -344 -188 -493 -255 -65 -30 -77 -39 -71 -53 4 -10 10 -26 13 -36 3 -13 11 -17 26 -13 95 25 445 82 605 98 l124 12 -7 73 c-6 76 -36 153 -79 206 l-22 26 -96 -58z"
       id="path434"
       style="fill:#66ffcc" />
    <path
       d="M2394 4962 c-37 -24 -84 -186 -61 -208 29 -27 158 -47 170 -26 3 4 8 24 11 45 3 21 15 55 26 77 l20 39 -33 25 c-31 24 -97 56 -114 56 -4 0 -13 -4 -19 -8z"
       id="path436"
       style="fill:#00cc33" />
    <path
       d="M6020 4938 c-72 -36 -73 -40 -46 -118 9 -25 18 -58 21 -74 6 -29 6 -29 68 -23 34 3 75 10 91 16 28 11 29 13 23 63 -7 60 -55 162 -77 166 -9 1 -45 -12 -80 -30z"
       id="path438"
       style="fill:#00cc33" />
    <path
       d="M1525 4849 c12 -138 15 -149 38 -153 12 -3 53 -8 92 -11 82 -7 264 -44 428 -87 65 -17 120 -28 124 -25 3 4 19 53 35 109 25 90 27 104 14 114 -32 23 -459 96 -643 110 l-93 7 5 -64z"
       id="path440"
       style="fill:#66ccff" />
    <path
       d="M6780 4895 c-202 -25 -523 -84 -538 -99 -14 -14 44 -207 65 -219 5 -2 42 4 83 14 189 46 342 79 425 89 163 21 155 19 155 43 0 12 3 59 6 105 l6 82 -48 -1 c-27 -1 -96 -7 -154 -14z"
       id="path442"
       style="fill:#66ccff" />
    <path
       d="M2305 4686 c-3 -6 -12 -33 -21 -61 -9 -27 -34 -88 -55 -134 -21 -46 -39 -90 -39 -97 0 -18 86 -91 118 -99 32 -8 49 10 98 107 28 56 94 239 94 262 0 3 -17 6 -37 6 -21 0 -64 6 -96 14 -43 10 -60 11 -62 2z m96 -135 c32 -33 36 -58 14 -100 -15 -31 -33 -41 -70 -41 -37 0 -55 10 -70 41 -21 40 -19 63 11 98 34 41 75 42 115 2z"
       id="path444"
       style="fill:#66cc99" />
    <path
       d="M2319 4514 c-16 -20 -1 -48 29 -52 29 -4 41 37 16 55 -23 17 -29 16 -45 -3z"
       id="path446"
       style="fill:#ff9966" />
    <path
       d="M6135 4685 c-22 -8 -57 -14 -77 -14 -20 -1 -40 -5 -43 -11 -17 -28 99 -313 145 -355 17 -16 21 -15 63 3 24 11 56 35 71 54 l26 35 -44 94 c-24 52 -52 120 -62 152 -19 61 -19 61 -79 42z m79 -127 c58 -52 25 -148 -50 -148 -68 0 -103 65 -69 130 24 46 78 54 119 18z"
       id="path448"
       style="fill:#66cc99" />
    <path
       d="M6142 4521 c-8 -4 -12 -19 -10 -32 2 -19 9 -24 33 -24 33 0 45 25 25 50 -14 17 -29 19 -48 6z"
       id="path450"
       style="fill:#ff9966" />
    <path
       d="M1543 4554 c4 -54 10 -101 14 -104 5 -4 76 -24 159 -44 83 -19 190 -47 238 -61 47 -14 90 -25 96 -25 8 0 115 155 126 184 4 11 -11 20 -58 34 -102 32 -326 80 -423 92 -49 6 -105 13 -124 16 l-34 5 6 -97z"
       id="path452"
       style="fill:#66ccff" />
    <path
       d="M6830 4634 c-182 -25 -500 -103 -500 -122 0 -13 98 -168 115 -182 13 -10 27 -9 83 8 65 21 312 83 382 97 19 4 38 13 42 19 4 6 8 53 8 104 0 81 -2 92 -17 91 -10 -1 -61 -7 -113 -15z"
       id="path454"
       style="fill:#66ccff" />
    <path
       d="M1546 4368 c-7 -31 -3 -255 6 -263 7 -7 287 58 403 93 53 17 60 21 57 43 -1 13 -6 27 -11 32 -18 18 -392 117 -441 117 -4 0 -10 -10 -14 -22z"
       id="path456"
       style="fill:#66ffcc" />
    <path
       d="M6895 4383 c-125 -30 -197 -48 -291 -74 l-112 -31 2 -31 c2 -31 2 -32 116 -64 187 -54 332 -85 343 -74 13 13 19 174 9 232 -8 46 -20 53 -67 42z"
       id="path458"
       style="fill:#66ffcc" />
    <path
       d="M2125 4317 c-50 -81 -49 -72 -8 -127 l37 -49 46 43 c26 24 57 47 69 51 21 6 19 9 -21 34 -24 16 -54 40 -67 55 -14 14 -27 26 -30 26 -3 0 -15 -15 -26 -33z"
       id="path460"
       style="fill:#00cc33" />
    <path
       d="M6333 4331 c-6 -10 -35 -34 -62 -52 l-51 -32 33 -20 c17 -10 46 -33 64 -49 17 -17 35 -28 40 -25 5 3 23 25 40 50 l32 44 -36 52 c-20 28 -39 51 -42 51 -3 0 -11 -9 -18 -19z"
       id="path462"
       style="fill:#00cc33" />
    <path
       d="M2285 4188 c-32 -17 -95 -81 -95 -95 0 -8 14 -42 32 -76 17 -34 43 -96 59 -137 24 -65 30 -75 51 -74 34 2 159 22 164 27 7 6 -61 199 -91 257 -54 108 -74 124 -120 98z m115 -130 c29 -32 34 -61 16 -96 -17 -34 -33 -42 -81 -42 -40 0 -75 38 -75 82 0 67 94 105 140 56z"
       id="path464"
       style="fill:#66cc99" />
    <path
       d="M2322 4028 c-30 -30 0 -78 37 -58 26 14 27 46 2 60 -24 13 -24 13 -39 -2z"
       id="path466"
       style="fill:#ff9966" />
    <path
       d="M6152 4188 c-38 -48 -142 -305 -142 -352 0 -9 22 -15 68 -20 37 -3 79 -9 93 -12 24 -5 27 -2 44 48 9 29 37 96 61 148 49 108 49 110 -25 168 -44 33 -81 41 -99 20z m72 -139 c30 -36 32 -55 9 -89 -24 -35 -33 -40 -75 -40 -28 0 -42 6 -57 26 -69 88 52 188 123 103z"
       id="path468"
       style="fill:#66cc99" />
    <path
       d="M6142 4028 c-26 -26 -2 -75 31 -62 24 9 29 35 11 55 -20 22 -26 23 -42 7z"
       id="path470"
       style="fill:#ff9966" />
    <path
       d="M6406 4112 c-79 -123 -83 -132 -66 -142 49 -30 602 -141 620 -124 6 6 1 163 -5 185 -4 11 -42 24 -127 44 -67 16 -180 45 -251 66 l-129 37 -42 -66z"
       id="path472"
       style="fill:#66ccff" />
    <path
       d="M1940 4145 c-41 -13 -145 -40 -230 -61 -85 -21 -157 -39 -158 -40 -2 -1 -6 -48 -9 -104 l-5 -101 34 5 c18 3 80 13 138 21 146 22 451 94 468 110 5 5 -63 121 -94 163 -29 38 -41 38 -144 7z"
       id="path474"
       style="fill:#66ccff" />
    <path
       d="M2100 3899 c-120 -35 -332 -80 -436 -91 -57 -6 -109 -15 -116 -19 -8 -5 -14 -42 -16 -108 -4 -93 -3 -101 14 -101 138 2 655 87 701 116 l22 14 -26 92 c-36 132 -32 129 -143 97z"
       id="path476"
       style="fill:#66ccff" />
    <path
       d="M6292 3904 c-25 -48 -62 -214 -48 -214 3 0 38 -7 78 -15 186 -40 557 -94 641 -95 18 0 18 7 12 103 -4 56 -9 104 -10 106 -2 2 -52 10 -110 17 -124 16 -273 46 -405 81 -138 37 -147 38 -158 17z"
       id="path478"
       style="fill:#66ccff" />
    <path
       d="M2370 3759 c-19 -6 -39 -14 -44 -19 -12 -12 20 -134 46 -182 18 -32 25 -37 47 -32 32 7 99 39 126 60 20 15 20 15 1 47 -10 18 -24 55 -30 82 l-11 50 -50 2 c-28 1 -66 -3 -85 -8z"
       id="path480"
       style="fill:#00cc33" />
    <path
       d="M5987 3722 c-3 -26 -14 -62 -24 -79 -17 -31 -17 -32 6 -57 27 -28 118 -67 139 -59 30 12 83 170 69 207 -8 19 -68 36 -133 36 l-51 0 -6 -48z"
       id="path482"
       style="fill:#00cc33" />
    <path
       d="M2185 3625 c-74 -20 -414 -73 -537 -84 -59 -5 -111 -12 -116 -15 -12 -7 -4 -100 14 -156 8 -24 28 -68 45 -96 l31 -51 122 70 c125 72 440 231 512 259 l42 16 -12 36 c-12 41 -21 42 -101 21z"
       id="path484"
       style="fill:#66ffcc" />
    <path
       d="M6221 3608 c-6 -17 -8 -35 -4 -39 5 -4 60 -30 123 -59 143 -64 356 -175 461 -240 l80 -49 34 54 c47 73 53 92 61 179 l6 75 -33 5 c-19 3 -72 7 -119 10 -85 6 -368 50 -508 80 -94 20 -88 21 -101 -16z"
       id="path486"
       style="fill:#66ffcc" />
    <path
       d="M2521 3514 c-35 -19 -71 -34 -81 -34 -27 0 -29 -8 -10 -58 9 -26 25 -87 34 -137 10 -49 20 -100 22 -112 7 -38 140 -53 183 -19 20 16 5 130 -36 266 -19 63 -37 118 -41 122 -4 3 -36 -9 -71 -28z m93 -126 c15 -13 29 -37 32 -55 12 -62 -77 -118 -127 -80 -48 37 -49 116 -1 142 38 20 67 18 96 -7z"
       id="path488"
       style="fill:#66cc99" />
    <path
       d="M2542 3348 c-19 -19 -14 -46 9 -53 30 -10 58 19 43 43 -14 22 -36 26 -52 10z"
       id="path490"
       style="fill:#ff9966" />
    <path
       d="M5900 3507 c-25 -55 -66 -217 -74 -290 l-6 -58 35 -14 c41 -18 78 -18 124 -1 33 12 34 13 56 122 13 60 30 129 39 153 16 47 14 61 -9 61 -7 0 -43 16 -80 35 l-66 34 -19 -42z m101 -126 c17 -18 29 -40 29 -56 0 -32 -49 -85 -79 -85 -68 0 -118 83 -78 132 36 45 88 49 128 9z"
       id="path492"
       style="fill:#66cc99" />
    <path
       d="M5922 3351 c-18 -11 -12 -41 11 -55 25 -15 51 18 36 45 -10 20 -26 24 -47 10z"
       id="path494"
       style="fill:#ff9966" />
    <path
       d="M2225 3486 c-234 -110 -354 -172 -480 -249 -93 -57 -92 -49 -24 -138 33 -44 61 -79 63 -79 2 0 77 37 167 83 132 67 327 151 441 190 14 5 15 11 6 44 -22 83 -70 183 -86 182 -10 0 -48 -15 -87 -33z"
       id="path496"
       style="fill:#66ccff" />
    <path
       d="M6166 3493 c-7 -16 -25 -61 -40 -102 -29 -80 -27 -91 22 -109 196 -74 375 -155 490 -220 41 -23 77 -40 81 -38 4 3 35 39 69 80 l62 75 -28 20 c-96 68 -595 321 -633 321 -5 0 -15 -12 -23 -27z"
       id="path498"
       style="fill:#66ccff" />
    <path
       d="M6086 3227 c-3 -13 -9 -67 -12 -119 l-7 -94 129 -49 c71 -26 176 -68 233 -92 57 -23 112 -43 121 -43 10 0 43 32 76 76 47 61 55 77 43 85 -39 27 -334 166 -437 206 -64 25 -122 47 -128 50 -6 2 -14 -7 -18 -20z"
       id="path500"
       style="fill:#66ccff" />
    <path
       d="M2310 3211 c-166 -62 -487 -219 -483 -235 1 -4 29 -41 62 -82 l61 -74 38 16 c100 43 315 128 376 149 l69 23 -2 84 c-2 113 -9 148 -30 148 -9 -1 -50 -14 -91 -29z"
       id="path502"
       style="fill:#66ccff" />
    <path
       d="M2492 3030 c3 -65 3 -65 38 -76 77 -26 82 -24 95 31 6 28 17 61 24 73 7 13 11 25 9 27 -2 1 -40 5 -86 7 l-83 3 3 -65z"
       id="path504"
       style="fill:#00cc00" />
    <path
       d="M5928 3093 c-43 -2 -78 -8 -78 -13 0 -5 6 -24 14 -42 8 -18 18 -50 21 -71 7 -41 9 -41 95 -12 35 12 35 12 38 78 2 37 -1 66 -5 65 -4 -1 -43 -4 -85 -5z"
       id="path506"
       style="fill:#00cc00" />
    <path
       d="M2717 3072 c-25 -28 -47 -88 -47 -129 0 -37 2 -39 77 -78 42 -22 103 -59 137 -82 l60 -42 51 53 c84 87 82 83 49 111 -48 42 -155 110 -231 149 -40 20 -74 36 -76 36 -2 0 -11 -8 -20 -18z m194 -91 c38 -38 38 -79 2 -116 -24 -23 -34 -26 -68 -22 -47 7 -75 36 -75 79 0 82 83 117 141 59z"
       id="path508"
       style="fill:#66cc99" />
    <path
       d="M2824 2946 c-11 -28 1 -51 28 -54 31 -4 48 29 28 53 -16 19 -49 19 -56 1z"
       id="path510"
       style="fill:#ff9966" />
    <path
       d="M5665 3039 c-62 -32 -179 -110 -234 -156 -3 -2 15 -23 40 -46 25 -23 55 -55 66 -70 l21 -28 79 54 c43 29 104 66 136 81 l57 28 0 50 c0 64 -32 128 -63 128 -12 0 -58 -19 -102 -41z m49 -59 c31 -30 27 -87 -8 -116 -55 -48 -136 -13 -136 59 0 77 89 112 144 57z"
       id="path512"
       style="fill:#66cc99" />
    <path
       d="M5626 2947 c-15 -11 -17 -17 -7 -35 6 -12 20 -22 31 -22 25 0 41 30 29 53 -12 20 -29 22 -53 4z"
       id="path514"
       style="fill:#ff9966" />
    <path
       d="M2261 2895 c-180 -68 -271 -110 -271 -126 0 -23 129 -205 159 -223 15 -10 301 332 301 358 -1 15 -25 46 -36 46 -5 0 -74 -25 -153 -55z"
       id="path516"
       style="fill:#66ffcc" />
    <path
       d="M6070 2937 c0 -8 -6 -17 -12 -20 -9 -2 -4 -17 17 -47 37 -53 224 -277 257 -308 l25 -23 55 68 c30 37 62 80 71 96 9 15 24 38 32 51 l16 24 -110 46 c-126 53 -284 112 -323 122 -21 5 -28 2 -28 -9z"
       id="path518"
       style="fill:#66ffcc" />
    <path
       d="M2434 2793 c-43 -54 -115 -142 -161 -195 -46 -53 -83 -99 -83 -102 0 -10 102 -166 109 -166 23 0 431 444 431 470 0 4 -6 12 -12 17 -20 15 -171 73 -190 73 -10 0 -51 -43 -94 -97z"
       id="path520"
       style="fill:#66ccff" />
    <path
       d="M5910 2871 c-115 -47 -141 -61 -134 -73 49 -85 400 -458 430 -458 12 0 114 143 114 159 0 5 -3 11 -8 13 -14 6 -157 173 -236 276 -87 112 -90 114 -166 83z"
       id="path522"
       style="fill:#66ccff" />
    <path
       d="M3063 2796 c-21 -19 -46 -48 -56 -64 -17 -31 -17 -31 14 -66 17 -20 58 -51 92 -70 l60 -34 17 21 c30 39 72 129 66 143 -3 8 -16 18 -28 23 -13 5 -43 25 -67 45 -23 20 -47 36 -52 36 -5 0 -26 -15 -46 -34z"
       id="path524"
       style="fill:#00cc00" />
    <path
       d="M5353 2808 c-10 -13 -37 -35 -60 -51 -24 -15 -43 -34 -43 -43 0 -23 61 -135 77 -141 18 -7 100 42 150 90 l43 41 -27 35 c-38 51 -84 91 -104 91 -10 0 -26 -10 -36 -22z"
       id="path526"
       style="fill:#00cc00" />
    <path
       d="M2704 2683 c-43 -54 -144 -166 -226 -249 -81 -83 -148 -155 -148 -160 0 -15 104 -164 113 -161 42 14 531 499 524 521 -4 12 -166 146 -178 146 -4 0 -42 -44 -85 -97z"
       id="path528"
       style="fill:#66ccff" />
    <path
       d="M5654 2736 c-33 -24 -74 -57 -92 -72 l-34 -29 104 -110 c98 -105 277 -281 380 -375 57 -50 55 -51 122 55 l48 76 -127 127 c-70 70 -172 180 -226 244 -55 64 -103 119 -108 122 -5 3 -35 -14 -67 -38z"
       id="path530"
       style="fill:#66ccff" />
    <path
       d="M3290 2653 c-11 -26 -32 -61 -45 -79 l-25 -33 62 -47 c35 -27 91 -75 125 -108 l63 -59 44 17 c42 16 106 74 106 96 0 29 -270 260 -303 260 -4 0 -15 -21 -27 -47z m194 -88 c60 -56 7 -158 -74 -140 -35 8 -58 33 -66 73 -5 26 -1 36 24 62 38 38 79 40 116 5z"
       id="path532"
       style="fill:#66cc99" />
    <path
       d="M3401 2527 c-24 -29 17 -70 46 -46 20 17 12 53 -13 57 -11 2 -26 -3 -33 -11z"
       id="path534"
       style="fill:#ff9966" />
    <path
       d="M5119 2658 c-35 -24 -104 -82 -153 -130 l-90 -88 39 -40 c52 -53 100 -76 131 -61 13 6 24 15 24 20 0 9 145 132 190 162 l24 16 -32 47 c-17 27 -36 63 -42 82 -7 19 -15 34 -20 34 -4 0 -36 -19 -71 -42z m16 -93 c37 -36 34 -86 -7 -120 -25 -21 -38 -25 -62 -21 -40 8 -64 33 -72 73 -5 27 -1 37 24 63 39 38 83 40 117 5z"
       id="path536"
       style="fill:#66cc99" />
    <path
       d="M5055 2530 c-29 -33 7 -78 40 -50 21 17 19 47 -4 59 -14 8 -23 6 -36 -9z"
       id="path538"
       style="fill:#ff9966" />
    <path
       d="M2800 2381 c-113 -115 -234 -233 -269 -264 l-64 -56 37 -45 c21 -25 52 -57 69 -70 41 -31 133 -70 149 -63 7 2 31 47 52 98 46 108 169 352 245 483 28 49 51 90 51 92 0 2 -6 4 -14 4 -7 0 -19 7 -26 15 -7 8 -15 15 -19 14 -3 0 -98 -94 -211 -208z"
       id="path540"
       style="fill:#66ffcc" />
    <path
       d="M5467 2572 c-24 -26 -22 -34 27 -120 55 -97 216 -419 246 -492 36 -87 38 -88 114 -56 63 27 129 81 164 135 16 23 14 25 -74 105 -97 88 -295 285 -386 384 -31 34 -61 62 -66 62 -5 0 -16 -8 -25 -18z"
       id="path542"
       style="fill:#66ffcc" />
    <path
       d="M3058 2433 c-107 -185 -260 -502 -270 -558 -3 -17 10 -23 92 -46 l95 -26 84 161 c46 89 121 221 168 295 81 130 83 134 66 154 -18 19 -140 103 -166 113 -8 3 -33 -31 -69 -93z"
       id="path544"
       style="fill:#66ccff" />
    <path
       d="M5339 2502 c-25 -15 -69 -44 -97 -65 l-51 -38 34 -52 c67 -103 158 -261 227 -395 39 -76 72 -140 74 -143 4 -8 175 39 188 52 12 11 -15 79 -120 294 -68 140 -198 375 -207 375 -1 0 -23 -13 -48 -28z"
       id="path546"
       style="fill:#66ccff" />
    <path
       d="M3785 2436 c-33 -6 -66 -15 -72 -19 -25 -16 -9 -111 26 -156 l18 -24 159 13 c88 7 161 14 162 16 2 1 6 29 9 61 2 32 8 70 13 85 4 14 6 29 3 32 -11 11 -256 4 -318 -8z m144 -7 c35 -12 51 -35 51 -73 0 -38 -10 -55 -42 -72 -38 -20 -82 -10 -108 23 -28 36 -25 69 9 104 32 32 43 34 90 18z"
       id="path548"
       style="fill:#66cc99" />
    <path
       d="M3869 2374 c-17 -21 0 -49 32 -49 18 0 25 6 27 24 6 38 -34 55 -59 25z"
       id="path550"
       style="fill:#ff9966" />
    <path
       d="M4404 2424 c3 -16 9 -59 12 -96 l7 -66 96 -6 c53 -4 123 -10 156 -15 33 -5 65 -6 72 -4 22 8 53 88 53 135 0 45 0 46 -42 58 -24 6 -115 14 -202 17 l-159 5 7 -28z m245 1 c31 -15 41 -33 41 -70 0 -13 -3 -31 -6 -40 -8 -19 -55 -45 -84 -45 -31 0 -80 53 -80 85 0 32 49 85 80 85 11 0 34 -7 49 -15z"
       id="path552"
       style="fill:#66cc99" />
    <path
       d="M4581 2372 c-11 -21 3 -52 23 -52 21 0 38 27 31 50 -8 25 -41 26 -54 2z"
       id="path554"
       style="fill:#ff9966" />
    <path
       d="M4157 2422 c-11 -14 -26 -161 -17 -167 25 -15 134 -22 177 -12 l48 12 3 50 c2 28 -3 68 -10 89 l-13 39 -88 1 c-62 1 -92 -3 -100 -12z"
       id="path556"
       style="fill:#00cc00" />
    <path
       d="M3620 2355 c-14 -15 -43 -36 -65 -47 -22 -11 -42 -22 -44 -24 -2 -2 11 -27 30 -54 37 -56 47 -58 124 -26 l36 15 -17 33 c-10 18 -23 55 -29 81 l-11 48 -24 -26z"
       id="path558"
       style="fill:#00cc00" />
    <path
       d="M4855 2343 c-3 -15 -16 -49 -29 -76 l-24 -48 36 -15 c77 -32 85 -31 125 24 41 55 43 62 24 62 -8 0 -39 18 -70 40 l-56 41 -6 -28z"
       id="path560"
       style="fill:#00cc00" />
    <path
       d="M3286 2263 c-103 -161 -226 -388 -240 -445 -6 -27 -4 -28 77 -53 46 -14 88 -25 94 -25 6 0 36 42 67 93 30 50 91 146 136 212 44 66 80 125 80 132 0 11 -137 183 -146 183 -2 0 -33 -44 -68 -97z"
       id="path562"
       style="fill:#66ccff" />
    <path
       d="M5089 2293 c-102 -124 -104 -95 17 -278 58 -88 120 -186 137 -217 17 -32 36 -58 42 -58 16 1 177 49 184 55 14 15 -297 565 -319 565 -3 0 -31 -30 -61 -67z"
       id="path564"
       style="fill:#66ccff" />
    <path
       d="M3927 2193 c-2 -4 -7 -69 -11 -143 -6 -127 -36 -367 -56 -455 -5 -22 -10 -47 -10 -56 0 -17 63 -49 147 -74 42 -13 44 -12 53 9 38 101 126 693 106 713 -11 11 -223 17 -229 6z"
       id="path566"
       style="fill:#66ccff" />
    <path
       d="M4357 2187 c-17 -12 -17 -20 -2 -147 23 -201 91 -569 108 -587 6 -5 166 53 182 67 9 8 10 23 3 58 -16 88 -46 307 -53 387 -13 174 -18 220 -22 228 -7 13 -198 8 -216 -6z"
       id="path568"
       style="fill:#66ccff" />
    <path
       d="M3755 2169 c-44 -11 -88 -27 -97 -37 -14 -14 -18 -44 -23 -152 -3 -74 -8 -153 -10 -175 -2 -22 -7 -74 -10 -116 l-7 -77 53 -20 c111 -40 129 -46 135 -40 17 18 61 316 70 478 4 69 8 132 8 140 1 22 -29 21 -119 -1z"
       id="path570"
       style="fill:#66ccff" />
    <path
       d="M4634 2099 c16 -248 54 -521 75 -542 10 -10 147 35 175 57 12 9 13 24 6 86 -5 41 -12 152 -15 245 -4 94 -8 175 -10 181 -3 12 -124 49 -193 59 l-44 7 6 -93z"
       id="path572"
       style="fill:#66ccff" />
    <path
       d="M4206 2103 c-8 -104 -63 -452 -91 -569 -16 -68 -19 -96 -11 -103 6 -5 43 -16 81 -24 61 -12 78 -12 142 2 39 9 74 19 78 23 4 4 -2 46 -14 95 -22 96 -75 411 -85 508 -17 155 -13 145 -56 145 l-38 0 -6 -77z"
       id="path574"
       style="fill:#66ffcc" />
    <path
       d="M3426 1966 c-57 -89 -113 -181 -125 -204 l-21 -41 27 -14 c40 -20 183 -66 217 -69 27 -3 31 1 37 32 8 38 16 144 24 317 l6 111 -30 15 -31 15 -104 -162z"
       id="path576"
       style="fill:#66ffcc" />
    <path
       d="M4937 2112 c-27 -13 -28 -16 -23 -65 3 -29 8 -101 11 -162 7 -120 13 -198 21 -232 4 -19 9 -22 37 -16 40 7 229 72 239 81 10 10 -228 395 -251 406 -3 1 -19 -4 -34 -12z"
       id="path578"
       style="fill:#66ffcc" />
    <path
       d="M4945 7167 c-17 -11 -50 -36 -74 -55 l-43 -35 28 -15 c26 -14 144 -62 151 -62 10 0 -19 175 -30 187 -1 1 -16 -8 -32 -20z"
       id="path580"
       style="fill:#99ffcc" />
    <path
       d="M3527 7173 c-10 -16 -39 -164 -34 -170 7 -7 135 43 162 63 12 9 16 17 10 22 -6 4 -36 26 -66 50 -58 44 -65 47 -72 35z"
       id="path582"
       style="fill:#99ffcc" />
    <path
       d="M3415 7149 c-22 -10 -44 -20 -49 -22 -12 -4 25 -65 53 -91 23 -20 18 -28 41 74 15 71 17 69 -45 39z"
       id="path584"
       style="fill:#99cccc" />
    <path
       d="M5048 7095 c9 -41 20 -75 24 -75 8 0 77 90 78 101 0 5 -103 49 -114 49 -2 0 4 -34 12 -75z"
       id="path586"
       style="fill:#99cccc" />
    <path
       d="M2276 7085 c-78 -14 -81 -17 -131 -120 -53 -111 -58 -103 85 -152 153 -54 197 -65 203 -49 2 6 5 84 6 174 l2 162 -48 -1 c-26 -1 -79 -7 -117 -14z"
       id="path588"
       style="fill:#3366ff" />
    <path
       d="M3218 7087 c-27 -6 -48 -13 -48 -17 0 -8 110 -103 115 -99 3 4 8 95 6 117 -1 14 -6 13 -73 -1z"
       id="path590"
       style="fill:#99cccc" />
    <path
       d="M5216 7085 c-8 -22 -7 -75 3 -99 7 -17 13 -14 63 30 31 27 57 52 57 55 1 4 -18 9 -42 12 -24 3 -50 9 -59 12 -9 4 -18 0 -22 -10z"
       id="path592"
       style="fill:#99cccc" />
    <path
       d="M6067 7093 c-8 -8 3 -325 12 -334 3 -4 69 12 146 36 188 58 178 53 170 84 -12 51 -76 171 -98 186 -35 23 -214 45 -230 28z"
       id="path594"
       style="fill:#3366ff" />
    <path
       d="M2576 7023 c94 -133 109 -152 119 -149 11 3 67 187 60 195 -8 8 -105 19 -168 20 l-59 1 48 -67z"
       id="path596"
       style="fill:#99cccc" />
    <path
       d="M5798 7083 c-27 -2 -48 -9 -48 -15 0 -5 11 -52 25 -104 14 -52 25 -96 25 -99 0 -3 4 -5 8 -5 7 0 127 167 156 218 7 12 -49 14 -166 5z"
       id="path598"
       style="fill:#99cccc" />
    <path
       d="M2850 7065 c0 -9 142 -175 150 -175 7 0 55 159 49 164 -8 7 -199 17 -199 11z"
       id="path600"
       style="fill:#99cccc" />
    <path
       d="M5503 7063 c-29 -2 -53 -7 -53 -11 0 -4 12 -43 27 -87 l26 -79 40 44 c21 25 57 66 79 93 l40 47 -54 -2 c-29 -1 -77 -3 -105 -5z"
       id="path602"
       style="fill:#99cccc" />
    <path
       d="M3340 7007 c0 -48 6 -53 42 -39 15 6 13 12 -13 46 l-29 40 0 -47z"
       id="path604"
       style="fill:#99ffcc" />
    <path
       d="M5325 6988 c-52 -49 -63 -63 -51 -70 22 -12 169 -48 175 -42 5 5 -47 174 -54 174 -2 0 -34 -28 -70 -62z"
       id="path606"
       style="fill:#99ffcc" />
    <path
       d="M2486 6988 c-9 -76 -7 -228 2 -228 7 0 87 23 160 46 8 2 10 9 6 16 -22 39 -150 218 -155 218 -3 0 -9 -24 -13 -52z"
       id="path608"
       style="fill:#99ffcc" />
    <path
       d="M3105 7030 c-10 -16 -55 -153 -52 -156 5 -5 167 35 184 44 11 7 0 21 -50 65 -68 60 -72 63 -82 47z"
       id="path610"
       style="fill:#99ffcc" />
    <path
       d="M5945 6958 c-32 -46 -69 -97 -83 -115 l-23 -32 73 -21 c40 -12 81 -24 91 -26 16 -5 17 5 16 124 -1 71 -4 135 -8 141 -5 7 -31 -22 -66 -71z"
       id="path612"
       style="fill:#99ffcc" />
    <path
       d="M2791 6993 c-6 -21 -18 -62 -26 -92 -8 -30 -15 -60 -15 -66 0 -8 27 -7 95 6 53 9 98 19 100 21 5 5 -116 151 -134 162 -6 4 -15 -10 -20 -31z"
       id="path614"
       style="fill:#99ffcc" />
    <path
       d="M5125 7004 c-19 -29 -9 -44 28 -44 15 0 18 7 15 32 -4 41 -21 46 -43 12z"
       id="path616"
       style="fill:#99ffcc" />
    <path
       d="M5626 6948 c-36 -40 -66 -78 -66 -84 0 -10 186 -41 195 -32 6 6 -48 188 -56 188 -4 0 -37 -33 -73 -72z"
       id="path618"
       style="fill:#99ffcc" />
    <path
       d="M2135 6779 c10 -16 153 -210 164 -222 8 -8 101 122 101 141 0 10 -34 23 -169 62 -40 12 -80 24 -89 28 -11 4 -13 2 -7 -9z"
       id="path620"
       style="fill:#99ffcc" />
    <path
       d="M6230 6748 c-69 -22 -127 -42 -128 -43 -2 -2 20 -38 48 -80 28 -42 53 -75 54 -73 49 57 173 238 164 237 -7 0 -69 -19 -138 -41z"
       id="path622"
       style="fill:#99ffcc" />
    <path
       d="M2048 6652 c-15 -59 -25 -109 -22 -111 8 -8 153 -13 188 -7 l36 7 -75 99 c-42 54 -81 103 -88 109 -10 8 -19 -14 -39 -97z"
       id="path624"
       style="fill:#99cccc" />
    <path
       d="M6341 6654 c-44 -60 -81 -113 -81 -118 0 -8 208 -1 217 8 5 5 -37 186 -47 205 -6 11 -30 -16 -89 -95z"
       id="path626"
       style="fill:#99cccc" />
    <path
       d="M2050 6485 c0 -10 108 -179 117 -182 9 -3 99 165 91 171 -5 5 -208 16 -208 11z"
       id="path628"
       style="fill:#99ffcc" />
    <path
       d="M6318 6483 c-43 -2 -78 -6 -78 -8 0 -13 95 -183 101 -180 7 5 95 154 104 178 6 14 2 17 -21 15 -16 -1 -64 -4 -106 -5z"
       id="path630"
       style="fill:#99ffcc" />
    <path
       d="M1976 6356 c-14 -46 -26 -89 -26 -95 0 -7 30 -11 85 -11 49 0 85 4 85 10 0 13 -103 180 -111 180 -4 0 -18 -38 -33 -84z"
       id="path632"
       style="fill:#99cccc" />
    <path
       d="M6436 6351 c-31 -48 -56 -91 -56 -95 0 -3 41 -6 90 -6 50 0 90 2 90 6 0 18 -55 184 -61 184 -4 0 -32 -40 -63 -89z"
       id="path634"
       style="fill:#99cccc" />
    <path
       d="M1946 6202 c-6 -11 61 -172 72 -172 12 0 108 158 100 165 -1 2 -40 6 -84 10 -55 5 -84 4 -88 -3z"
       id="path636"
       style="fill:#99ffcc" />
    <path
       d="M6443 6203 c-36 -3 -53 -8 -53 -17 0 -8 21 -46 47 -85 54 -82 53 -82 99 26 29 69 25 85 -21 81 -11 -1 -44 -3 -72 -5z"
       id="path638"
       style="fill:#99ffcc" />
    <path
       d="M1875 6113 c-38 -75 -39 -71 21 -89 31 -9 58 -13 61 -10 7 6 -48 135 -58 136 -3 0 -14 -17 -24 -37z"
       id="path640"
       style="fill:#99cccc" />
    <path
       d="M6571 6084 c-17 -36 -31 -70 -31 -74 0 -12 112 23 117 36 4 11 -43 104 -52 104 -2 0 -17 -30 -34 -66z"
       id="path642"
       style="fill:#99cccc" />
    <path
       d="M1756 5944 c-21 -25 -35 -48 -32 -52 4 -3 39 -8 77 -10 l71 -4 -16 28 c-8 16 -25 41 -38 56 l-23 27 -39 -45z"
       id="path644"
       style="fill:#99cccc" />
    <path
       d="M6673 5941 c-18 -26 -33 -51 -33 -56 0 -9 137 -1 147 9 4 4 -13 27 -37 51 l-45 44 -32 -48z"
       id="path646"
       style="fill:#99cccc" />
    <path
       d="M1878 5963 c6 -10 17 -27 26 -38 15 -20 15 -20 37 2 l23 22 -25 9 c-64 24 -71 25 -61 5z"
       id="path648"
       style="fill:#99ffcc" />
    <path
       d="M6583 5968 c-37 -12 -38 -15 -17 -43 15 -20 16 -20 40 8 39 45 34 53 -23 35z"
       id="path650"
       style="fill:#99ffcc" />
    <path
       d="M1680 5847 c0 -18 52 -167 58 -167 16 1 132 124 132 140 0 4 -36 10 -80 14 -44 3 -86 9 -95 12 -8 4 -15 4 -15 1z"
       id="path652"
       style="fill:#99ffcc" />
    <path
       d="M6723 5837 c-46 -6 -83 -14 -83 -18 0 -9 89 -118 112 -137 18 -14 16 -17 54 92 28 81 27 76 12 74 -7 -1 -50 -6 -95 -11z"
       id="path654"
       style="fill:#99ffcc" />
    <path
       d="M1547 5763 c-43 -31 -75 -59 -70 -63 7 -7 183 -50 203 -50 8 0 -37 149 -49 161 -3 4 -41 -18 -84 -48z"
       id="path656"
       style="fill:#99cccc" />
    <path
       d="M6852 5758 c-10 -29 -22 -66 -26 -82 -6 -26 -5 -28 16 -24 147 31 198 43 198 49 0 7 -129 95 -153 105 -11 4 -20 -9 -35 -48z"
       id="path658"
       style="fill:#99cccc" />
    <path
       d="M7115 5642 c-30 -75 -65 -185 -61 -189 6 -7 223 62 246 77 17 12 25 6 -97 79 -70 42 -83 47 -88 33z"
       id="path660"
       style="fill:#99cccc" />
    <path
       d="M1330 5628 c-79 -46 -142 -90 -137 -95 8 -7 239 -83 254 -83 8 0 3 26 -17 83 -46 135 -40 130 -100 95z"
       id="path662"
       style="fill:#99cccc" />
    <path
       d="M1450 5643 c0 -11 58 -185 64 -190 2 -2 35 29 74 69 39 40 69 74 67 76 -1 2 -41 12 -86 23 -46 11 -92 22 -101 25 -10 3 -18 1 -18 -3z"
       id="path664"
       style="fill:#99ffcc" />
    <path
       d="M6942 5626 c-51 -13 -95 -25 -97 -28 -6 -6 130 -141 141 -139 8 1 74 165 74 184 0 10 -14 8 -118 -17z"
       id="path666"
       style="fill:#99ffcc" />
    <path
       d="M1010 5403 l-82 -77 7 -45 c8 -58 34 -163 44 -179 9 -14 310 85 318 104 6 16 -175 274 -192 274 -7 0 -50 -35 -95 -77z"
       id="path668"
       style="fill:#3366ff" />
    <path
       d="M1185 5469 c11 -18 146 -211 155 -222 6 -7 43 36 107 124 12 16 1 21 -115 60 -70 23 -133 44 -141 47 -10 4 -12 1 -6 -9z"
       id="path670"
       style="fill:#99ffcc" />
    <path
       d="M7290 5473 c-8 -3 -66 -24 -127 -45 l-113 -40 29 -41 c16 -23 42 -57 58 -74 l28 -33 75 111 c93 138 93 138 50 122z"
       id="path672"
       style="fill:#99ffcc" />
    <path
       d="M7328 5393 c-94 -128 -131 -184 -125 -189 12 -12 318 -116 324 -111 7 8 34 129 39 181 l6 61 -58 56 c-59 55 -102 89 -115 89 -3 0 -35 -39 -71 -87z"
       id="path674"
       style="fill:#3366ff" />
    <path
       d="M1250 5131 c-25 -10 -80 -30 -123 -46 -43 -15 -76 -29 -74 -32 8 -7 205 -72 240 -78 l32 -6 -5 87 c-3 48 -9 88 -15 90 -5 1 -30 -6 -55 -15z"
       id="path676"
       style="fill:#99ffcc" />
    <path
       d="M7186 5134 c-9 -23 -7 -137 3 -152 6 -10 34 -5 132 25 68 21 127 42 129 46 4 6 -236 97 -255 97 -2 0 -6 -7 -9 -16z"
       id="path678"
       style="fill:#99ffcc" />
    <path
       d="M1029 4961 c45 -113 70 -166 79 -164 16 3 172 114 172 122 0 4 -53 24 -119 44 -65 20 -126 40 -135 43 -15 6 -14 1 3 -45z"
       id="path680"
       style="fill:#99cccc" />
    <path
       d="M7357 4967 c-71 -23 -126 -45 -124 -51 4 -14 148 -115 163 -116 11 0 101 197 93 203 -2 2 -61 -14 -132 -36z"
       id="path682"
       style="fill:#99cccc" />
    <path
       d="M1241 4823 c-47 -30 -80 -58 -75 -63 11 -10 179 -80 192 -80 6 0 9 8 7 18 -2 9 -9 52 -16 95 -6 43 -15 79 -18 81 -3 2 -44 -21 -90 -51z"
       id="path684"
       style="fill:#99ffcc" />
    <path
       d="M7166 4853 c-7 -35 -26 -155 -26 -167 0 -12 37 -1 124 39 43 20 74 39 71 45 -6 10 -150 110 -159 110 -2 0 -7 -12 -10 -27z"
       id="path686"
       style="fill:#99ffcc" />
    <path
       d="M1140 4707 c0 -14 63 -177 69 -182 7 -4 140 85 141 95 0 3 -40 22 -88 42 -116 49 -122 51 -122 45z"
       id="path688"
       style="fill:#99cccc" />
    <path
       d="M7258 4668 c-54 -22 -98 -44 -98 -47 0 -14 132 -103 139 -95 12 14 63 162 59 173 -1 5 -47 -9 -100 -31z"
       id="path690"
       style="fill:#99cccc" />
    <path
       d="M1325 4539 c-61 -46 -86 -72 -78 -80 13 -12 134 -79 144 -79 19 0 4 181 -16 186 -6 1 -28 -11 -50 -27z"
       id="path692"
       style="fill:#99ffcc" />
    <path
       d="M7116 4539 c-8 -40 -8 -159 0 -159 9 0 115 58 139 76 12 9 16 17 10 22 -6 4 -38 26 -72 50 -34 23 -64 42 -66 42 -3 0 -7 -14 -11 -31z"
       id="path694"
       style="fill:#99ffcc" />
    <path
       d="M1236 4343 c3 -32 7 -59 9 -60 4 -6 107 34 108 42 2 9 -100 75 -116 75 -5 0 -5 -26 -1 -57z"
       id="path696"
       style="fill:#99cccc" />
    <path
       d="M7207 4371 c-74 -43 -74 -45 -10 -69 32 -12 61 -18 64 -14 4 4 9 31 12 60 5 60 2 61 -66 23z"
       id="path698"
       style="fill:#99cccc" />
    <path
       d="M1345 4261 l-40 -18 38 -12 c44 -15 50 -12 45 23 l-3 25 -40 -18z"
       id="path700"
       style="fill:#99ffcc" />
    <path
       d="M7110 4251 c0 -34 7 -36 60 -17 l34 13 -29 10 c-17 6 -38 14 -47 18 -15 6 -18 2 -18 -24z"
       id="path702"
       style="fill:#99ffcc" />
    <path
       d="M1246 4201 c-9 -14 -18 -111 -11 -111 11 0 114 60 120 70 3 5 -2 13 -12 18 -30 16 -93 31 -97 23z"
       id="path704"
       style="fill:#99cccc" />
    <path
       d="M7200 4194 c-25 -9 -49 -19 -53 -24 -5 -4 21 -24 58 -45 37 -20 68 -35 69 -33 1 1 0 29 -2 61 -4 63 -5 64 -72 41z"
       id="path706"
       style="fill:#99cccc" />
    <path
       d="M1350 4097 c-112 -67 -112 -67 -99 -84 23 -27 128 -93 133 -84 11 17 19 191 10 190 -5 0 -25 -10 -44 -22z"
       id="path708"
       style="fill:#99ffcc" />
    <path
       d="M7108 4048 c2 -40 7 -86 10 -101 l7 -28 70 48 c38 26 69 53 67 58 -1 9 -138 93 -152 94 -3 1 -4 -32 -2 -71z"
       id="path710"
       style="fill:#99ffcc" />
    <path
       d="M7223 3926 l-72 -52 46 -23 c26 -12 76 -34 111 -47 57 -21 63 -22 57 -6 -4 9 -20 54 -37 100 -16 45 -31 82 -31 82 -1 -1 -34 -25 -74 -54z"
       id="path712"
       style="fill:#99cccc" />
    <path
       d="M1171 3879 c-18 -50 -31 -93 -29 -94 4 -5 191 74 201 84 8 8 -91 83 -126 97 -10 4 -23 -21 -46 -87z"
       id="path714"
       style="fill:#99cccc" />
    <path
       d="M1255 3774 c-44 -20 -83 -39 -87 -43 -8 -7 141 -111 159 -111 5 0 15 37 22 83 7 45 14 88 16 95 7 20 -26 13 -110 -24z"
       id="path716"
       style="fill:#99ffcc" />
    <path
       d="M7144 3773 c4 -21 10 -64 13 -96 3 -32 9 -59 12 -61 3 -2 46 22 95 54 48 31 84 60 78 64 -25 15 -175 76 -189 76 -13 0 -14 -7 -9 -37z"
       id="path718"
       style="fill:#99ffcc" />
    <path
       d="M1080 3650 c-28 -55 -63 -150 -57 -156 6 -6 211 53 245 71 23 11 20 14 -62 68 -47 31 -90 57 -95 57 -6 0 -20 -18 -31 -40z"
       id="path720"
       style="fill:#99cccc" />
    <path
       d="M7305 3638 c-44 -29 -79 -57 -78 -63 1 -10 251 -91 258 -83 12 11 -74 198 -90 198 -6 0 -47 -24 -90 -52z"
       id="path722"
       style="fill:#99cccc" />
    <path
       d="M1184 3486 c-127 -41 -138 -45 -132 -52 4 -3 257 -94 265 -94 1 0 3 41 5 90 4 107 12 104 -138 56z"
       id="path724"
       style="fill:#99ffcc" />
    <path
       d="M7187 3513 c-4 -3 -7 -44 -7 -91 0 -63 3 -83 13 -80 6 3 69 24 139 48 71 24 125 47 120 51 -8 8 -232 79 -249 79 -5 0 -13 -3 -16 -7z"
       id="path726"
       style="fill:#99ffcc" />
    <path
       d="M965 3346 c-24 -81 -36 -166 -26 -185 22 -41 165 -160 177 -148 26 26 191 273 186 278 -7 6 -305 109 -316 109 -3 0 -12 -24 -21 -54z"
       id="path728"
       style="fill:#3366ff" />
    <path
       d="M7460 3385 c-19 -7 -82 -30 -140 -50 -58 -21 -108 -40 -113 -44 -7 -7 164 -264 184 -276 12 -8 69 34 133 99 l49 50 -6 61 c-8 78 -38 169 -57 172 -8 1 -31 -4 -50 -12z"
       id="path730"
       style="fill:#3366ff" />
    <path
       d="M1277 3158 c-70 -101 -91 -138 -81 -138 11 0 201 60 234 73 l30 13 -50 66 c-27 37 -54 69 -59 72 -5 4 -38 -35 -74 -86z"
       id="path732"
       style="fill:#99ffcc" />
    <path
       d="M7101 3179 c-29 -39 -51 -72 -49 -74 7 -8 268 -94 268 -89 0 9 -154 233 -160 234 -3 0 -29 -32 -59 -71z"
       id="path734"
       style="fill:#99ffcc" />
    <path
       d="M1390 3031 c-25 -10 -80 -30 -123 -46 -55 -19 -75 -31 -68 -38 19 -19 175 -106 182 -101 7 4 79 184 79 197 0 10 -20 7 -70 -12z"
       id="path736"
       style="fill:#99cccc" />
    <path
       d="M7050 3039 c0 -24 68 -199 78 -199 2 0 47 25 100 56 71 42 91 59 80 65 -8 5 -62 24 -119 42 -57 19 -112 38 -121 42 -12 5 -18 3 -18 -6z"
       id="path738"
       style="fill:#99cccc" />
    <path
       d="M1511 3022 c-15 -28 -71 -175 -68 -178 5 -5 217 48 217 55 0 3 -31 37 -69 75 -65 64 -70 67 -80 48z"
       id="path740"
       style="fill:#99ffcc" />
    <path
       d="M6915 2970 c-38 -38 -67 -72 -64 -74 6 -7 203 -55 207 -51 4 4 -62 195 -68 195 -3 0 -37 -31 -75 -70z"
       id="path742"
       style="fill:#99ffcc" />
    <path
       d="M1560 2819 c-41 -10 -81 -21 -88 -24 -8 -3 21 -29 68 -61 45 -31 86 -52 90 -47 13 14 58 142 52 147 -9 10 -44 6 -122 -15z"
       id="path744"
       style="fill:#99cccc" />
    <path
       d="M6822 2828 c3 -7 15 -43 27 -80 13 -38 25 -68 29 -68 12 0 160 105 156 112 -5 7 -172 48 -199 48 -9 0 -15 -6 -13 -12z"
       id="path746"
       style="fill:#99cccc" />
    <path
       d="M1728 2795 c-20 -39 -49 -137 -43 -143 6 -7 164 13 172 22 7 7 -14 39 -70 101 l-44 50 -15 -30z"
       id="path748"
       style="fill:#99ffcc" />
    <path
       d="M6701 2753 c-33 -37 -61 -71 -61 -75 0 -10 27 -16 112 -24 l77 -6 -26 78 c-14 44 -29 83 -33 87 -4 5 -35 -22 -69 -60z"
       id="path750"
       style="fill:#99ffcc" />
    <path
       d="M1773 2611 c-24 -4 -46 -10 -50 -14 -6 -7 65 -87 77 -87 5 0 70 96 70 105 0 6 -43 4 -97 -4z"
       id="path752"
       style="fill:#99cccc" />
    <path
       d="M6645 2593 c10 -15 28 -43 40 -61 l23 -33 40 48 c48 55 47 56 -57 67 l-64 7 18 -28z"
       id="path754"
       style="fill:#99cccc" />
    <path
       d="M1891 2553 l-23 -36 33 7 c44 9 53 19 37 45 -7 11 -15 21 -18 21 -3 0 -16 -17 -29 -37z"
       id="path756"
       style="fill:#99ffcc" />
    <path
       d="M6565 2564 c-9 -14 -15 -27 -13 -28 10 -7 78 -23 78 -19 0 7 -41 73 -45 73 -1 0 -10 -12 -20 -26z"
       id="path758"
       style="fill:#99ffcc" />
    <path
       d="M1912 2475 c-79 -24 -76 -19 -46 -75 15 -27 30 -50 34 -50 9 0 63 116 59 128 -3 6 -19 5 -47 -3z"
       id="path760"
       style="fill:#99cccc" />
    <path
       d="M6540 2481 c0 -20 63 -142 70 -134 4 4 19 29 33 55 l27 46 -53 17 c-28 9 -58 18 -64 20 -7 3 -13 1 -13 -4z"
       id="path762"
       style="fill:#99cccc" />
    <path
       d="M6434 2389 c-68 -106 -70 -99 40 -99 l96 0 -14 33 c-8 17 -25 56 -37 85 -13 28 -27 52 -31 52 -4 0 -29 -32 -54 -71z"
       id="path764"
       style="fill:#99ffcc" />
    <path
       d="M1981 2393 c-54 -108 -56 -103 48 -103 53 0 91 4 91 10 0 16 -89 150 -100 150 -5 0 -23 -26 -39 -57z"
       id="path766"
       style="fill:#99ffcc" />
    <path
       d="M1956 2231 c-3 -5 6 -46 19 -92 14 -45 25 -84 25 -86 0 -25 94 113 116 170 5 15 -3 17 -74 17 -45 0 -83 -4 -86 -9z"
       id="path768"
       style="fill:#99cccc" />
    <path
       d="M6380 2235 c0 -11 111 -185 118 -185 4 0 18 37 31 82 13 46 26 88 28 95 4 10 -17 13 -86 13 -50 0 -91 -2 -91 -5z"
       id="path770"
       style="fill:#99cccc" />
    <path
       d="M2142 2163 c-24 -36 -82 -139 -82 -147 0 -9 188 -7 194 2 6 9 -74 172 -85 172 -4 0 -16 -12 -27 -27z"
       id="path772"
       style="fill:#99ffcc" />
    <path
       d="M6305 2143 c-46 -82 -57 -115 -43 -125 14 -8 188 -11 188 -3 0 11 -103 175 -110 175 -5 0 -20 -21 -35 -47z"
       id="path774"
       style="fill:#99ffcc" />
    <path
       d="M2043 1953 c-7 -2 -13 -12 -13 -20 0 -32 42 -193 50 -193 8 0 91 104 149 188 l22 32 -98 -1 c-54 0 -104 -3 -110 -6z"
       id="path776"
       style="fill:#99cccc" />
    <path
       d="M6260 1953 c0 -3 17 -29 39 -57 21 -28 57 -77 81 -110 31 -42 45 -55 50 -45 14 25 51 199 45 209 -7 11 -215 14 -215 3z"
       id="path778"
       style="fill:#99cccc" />
    <path
       d="M2238 1854 c-34 -47 -74 -99 -86 -115 -13 -16 -19 -29 -13 -29 27 0 261 74 261 83 0 9 -89 147 -95 147 -2 0 -32 -39 -67 -86z"
       id="path780"
       style="fill:#99ffcc" />
    <path
       d="M6146 1863 c-25 -37 -43 -70 -39 -74 12 -11 242 -81 254 -77 11 4 -139 210 -157 215 -6 2 -32 -27 -58 -64z"
       id="path782"
       style="fill:#99ffcc" />
    <path
       d="M2310 1708 c-176 -55 -195 -62 -198 -81 -4 -20 60 -161 85 -189 16 -18 77 -33 181 -43 l62 -7 0 154 c0 160 -5 199 -24 197 -6 0 -54 -14 -106 -31z"
       id="path784"
       style="fill:#3366ff" />
    <path
       d="M2480 1624 c0 -120 6 -164 20 -164 9 0 149 196 153 212 1 6 -29 21 -68 33 -38 12 -78 26 -87 30 -17 7 -18 -2 -18 -111z"
       id="path786"
       style="fill:#99ffcc" />
    <path
       d="M6076 1728 c-3 -7 -7 -86 -9 -175 -3 -116 -1 -163 7 -163 60 1 190 22 214 34 21 11 41 38 71 100 22 46 41 91 41 98 0 8 -10 19 -23 25 -18 8 -197 65 -280 89 -9 3 -19 -1 -21 -8z"
       id="path788"
       style="fill:#3366ff" />
    <path
       d="M5918 1706 c-38 -11 -68 -25 -68 -29 0 -12 152 -227 160 -227 3 0 7 63 9 140 3 161 11 152 -101 116z"
       id="path790"
       style="fill:#99ffcc" />
    <path
       d="M2746 1648 c4 -12 18 -57 30 -98 12 -41 26 -76 31 -77 11 -4 133 139 133 155 0 5 -37 15 -82 22 -46 6 -91 14 -101 17 -16 4 -18 1 -11 -19z"
       id="path792"
       style="fill:#99ffcc" />
    <path
       d="M5665 1654 c-112 -20 -110 -19 -85 -54 33 -46 117 -136 123 -130 10 12 55 186 49 191 -4 3 -43 0 -87 -7z"
       id="path794"
       style="fill:#99ffcc" />
    <path
       d="M2611 1519 l-80 -114 31 -3 c29 -3 187 14 194 21 5 5 -47 191 -56 201 -4 4 -44 -43 -89 -105z"
       id="path796"
       style="fill:#99cccc" />
    <path
       d="M5775 1530 c-15 -56 -26 -103 -23 -105 7 -7 138 -25 185 -25 l42 0 -22 33 c-65 95 -141 197 -148 197 -3 0 -19 -45 -34 -100z"
       id="path798"
       style="fill:#99cccc" />
    <path
       d="M3058 1615 c-5 -5 17 -82 47 -163 3 -9 29 8 75 49 38 35 70 66 70 69 0 4 -33 14 -72 23 -40 10 -82 20 -93 23 -11 3 -23 2 -27 -1z"
       id="path800"
       style="fill:#99ffcc" />
    <path
       d="M5345 1598 c-44 -11 -82 -22 -84 -24 -6 -6 66 -80 102 -106 16 -11 31 -18 34 -15 11 12 52 150 47 158 -7 11 -4 12 -99 -13z"
       id="path802"
       style="fill:#99ffcc" />
    <path
       d="M2928 1525 c-34 -42 -64 -80 -66 -85 -2 -6 36 -10 97 -10 l100 0 -16 53 c-18 61 -40 117 -47 117 -2 0 -33 -34 -68 -75z"
       id="path804"
       style="fill:#99cccc" />
    <path
       d="M5475 1519 c-15 -44 -25 -82 -22 -85 2 -3 49 -3 103 -2 l98 3 -70 82 c-38 45 -72 82 -76 82 -3 1 -18 -35 -33 -80z"
       id="path806"
       style="fill:#99cccc" />
    <path
       d="M3340 1494 c0 -49 7 -50 40 -5 l20 29 -30 11 -30 10 0 -45z"
       id="path808"
       style="fill:#99ffcc" />
    <path
       d="M5116 1522 c-2 -4 5 -23 16 -41 23 -36 38 -28 38 22 0 22 -4 27 -24 27 -14 0 -27 -4 -30 -8z"
       id="path810"
       style="fill:#99ffcc" />
    <path
       d="M5211 1460 c-1 -38 2 -70 7 -70 5 0 32 7 62 16 l53 16 -54 54 c-29 30 -56 54 -60 54 -3 0 -7 -31 -8 -70z"
       id="path812"
       style="fill:#99cccc" />
    <path
       d="M3218 1471 l-53 -49 40 -10 c105 -28 99 -29 92 8 -4 18 -7 48 -7 66 0 19 -4 34 -9 34 -5 0 -34 -22 -63 -49z"
       id="path814"
       style="fill:#99cccc" />
    <path
       d="M3490 1481 c0 -20 33 -157 40 -164 8 -10 135 83 133 98 -1 10 -137 73 -160 74 -7 1 -13 -3 -13 -8z"
       id="path816"
       style="fill:#99ffcc" />
    <path
       d="M4913 1455 c-40 -18 -73 -38 -73 -43 0 -11 129 -106 135 -100 7 7 35 127 35 152 0 33 -10 32 -97 -9z"
       id="path818"
       style="fill:#99ffcc" />
    <path
       d="M3392 1427 l-42 -57 37 -15 c20 -9 48 -18 61 -22 22 -5 23 -4 16 33 -4 22 -12 57 -18 78 l-11 39 -43 -56z"
       id="path820"
       style="fill:#99cccc" />
    <path
       d="M5050 1405 c-7 -42 -11 -77 -9 -79 2 -2 28 8 57 21 l52 24 -29 43 c-53 76 -57 76 -71 -9z"
       id="path822"
       style="fill:#99cccc" />
    <path
       d="M3659 1339 c-24 -17 -54 -41 -67 -52 -26 -24 -35 -13 78 -100 l63 -49 -8 109 c-4 59 -10 111 -14 116 -4 4 -27 -7 -52 -24z"
       id="path824"
       style="fill:#99cccc" />
    <path
       d="M3765 1338 c9 -63 14 -123 14 -155 1 -18 5 -33 10 -33 12 0 161 111 161 120 0 7 -172 100 -184 100 -2 0 -3 -15 -1 -32z"
       id="path826"
       style="fill:#99ffcc" />
    <path
       d="M4797 1363 c-11 -17 -30 -223 -22 -223 3 0 31 21 61 46 31 25 65 51 75 57 27 17 23 28 -19 59 -20 15 -49 37 -64 48 -14 11 -29 17 -31 13z"
       id="path828"
       style="fill:#99cccc" />
    <path
       d="M4631 1316 l-83 -42 83 -67 84 -67 6 31 c4 16 10 66 13 110 6 62 4 79 -6 78 -7 0 -51 -19 -97 -43z"
       id="path830"
       style="fill:#99ffcc" />
    <path
       d="M4030 1092 c0 -80 4 -142 8 -137 63 74 166 214 161 220 -2 2 -41 17 -87 34 l-82 30 0 -147z"
       id="path832"
       style="fill:#99ffcc" />
    <path
       d="M4372 1203 l-72 -25 22 -31 c49 -70 139 -186 149 -193 9 -5 10 27 6 127 -4 74 -7 137 -7 142 0 11 -19 7 -98 -20z"
       id="path834"
       style="fill:#99ffcc" />
    <path
       d="M3889 1155 c-46 -35 -84 -69 -84 -74 0 -5 36 -41 80 -79 76 -66 80 -69 86 -47 7 26 12 265 6 265 -2 0 -42 -29 -88 -65z"
       id="path836"
       style="fill:#99cccc" />
    <path
       d="M4521 1103 c1 -65 4 -131 8 -146 l6 -29 83 73 c45 40 82 76 82 80 0 10 -161 139 -172 139 -5 0 -7 -53 -7 -117z"
       id="path838"
       style="fill:#99cccc" />
    <path
       d="M4236 1131 c-27 -30 -186 -245 -186 -252 0 -21 170 -119 205 -119 21 0 169 80 193 104 12 11 -2 35 -83 142 -54 71 -101 132 -105 137 -3 4 -14 -1 -24 -12z"
       id="path840"
       style="fill:#3366ff" />
  </g>
</svg>
