<?xml version="1.0" encoding="UTF-8" standalone="no"?>
<svg
   xmlns:dc="http://purl.org/dc/elements/1.1/"
   xmlns:cc="http://creativecommons.org/ns#"
   xmlns:rdf="http://www.w3.org/1999/02/22-rdf-syntax-ns#"
   xmlns:svg="http://www.w3.org/2000/svg"
   xmlns="http://www.w3.org/2000/svg"
   xmlns:sodipodi="http://sodipodi.sourceforge.net/DTD/sodipodi-0.dtd"
   xmlns:inkscape="http://www.inkscape.org/namespaces/inkscape"
   version="1.0"
   width="850.000000pt"
   height="850.000000pt"
   viewBox="0 0 850.000000 850.000000"
   preserveAspectRatio="xMidYMid meet"
   id="svg2"
   inkscape:version="0.91 r13725"
   sodipodi:docname="Basic_20170421_257.svg">
  <defs
     id="defs392" />
  <sodipodi:namedview
     pagecolor="#ffffff"
     bordercolor="#666666"
     borderopacity="1"
     objecttolerance="10"
     gridtolerance="10"
     guidetolerance="10"
     inkscape:pageopacity="0"
     inkscape:pageshadow="2"
     inkscape:window-width="1920"
     inkscape:window-height="981"
     id="namedview390"
     showgrid="false"
     inkscape:zoom="0.62824358"
     inkscape:cx="586.14491"
     inkscape:cy="536.17176"
     inkscape:window-x="0"
     inkscape:window-y="1"
     inkscape:window-maximized="1"
     inkscape:current-layer="svg2" />
  <metadata
     id="metadata4">
Created by potrace 1.14, written by Peter Selinger 2001-2017
<rdf:RDF>
  <cc:Work
     rdf:about="">
    <dc:format>image/svg+xml</dc:format>
    <dc:type
       rdf:resource="http://purl.org/dc/dcmitype/StillImage" />
  </cc:Work>
</rdf:RDF>
</metadata>
  <g
     transform="translate(0.000000,850.000000) scale(0.100000,-0.100000)"
     fill="#000000"
     stroke="none"
     id="g6">
    <path
       d="M80 8251 l0 -168 61 -53 60 -53 87 87 c97 96 241 208 359 281 43 27 87 54 98 62 16 11 -35 13 -323 13 l-342 0 0 -169z"
       id="path8"
       style="fill:#ff9900" />
    <path
       d="M837 8413 c-2 -5 43 -126 101 -271 83 -209 107 -262 119 -257 59 22 183 47 263 52 85 5 129 1 261 -23 l35 -6 31 69 c135 296 193 427 193 434 0 11 -997 12 -1003 2z"
       id="path10"
       style="fill:#ff6600" />
    <path
       d="M1951 8416 c2 -3 40 -28 84 -56 118 -77 255 -191 343 -286 l78 -84 80 82 c131 137 309 329 312 339 2 5 -182 9 -449 9 -249 0 -450 -2 -448 -4z"
       id="path12"
       style="fill:#ff9900" />
    <path
       d="M2819 8333 c-151 -156 -339 -360 -339 -370 0 -5 17 -34 38 -64 21 -30 54 -80 73 -112 19 -31 39 -55 46 -53 16 7 525 345 541 361 17 16 7 33 -96 162 -73 92 -146 163 -167 163 -6 0 -49 -39 -96 -87z"
       id="path14"
       style="fill:#ff9933" />
    <path
       d="M3047 8343 c38 -43 99 -124 137 -180 l69 -102 61 31 c34 17 135 67 226 110 91 44 216 105 278 134 61 30 112 58 112 63 0 18 -76 21 -507 21 l-444 0 68 -77z"
       id="path16"
       style="fill:#ffcc00" />
    <path
       d="M3967 8413 c-5 -8 97 -241 112 -256 5 -5 125 37 267 91 142 55 294 113 336 128 43 16 78 32 78 37 0 4 -177 7 -394 7 -217 0 -397 -3 -399 -7z"
       id="path18"
       style="fill:#ffcc33" />
    <path
       d="M4956 8263 c36 -86 67 -159 70 -162 7 -8 99 13 474 105 190 47 349 90 354 95 6 5 2 30 -9 64 l-19 55 -467 0 -467 0 64 -157z"
       id="path20"
       style="fill:#ffff66" />
    <path
       d="M5863 8403 c3 -10 21 -70 40 -133 19 -63 43 -149 52 -190 10 -41 19 -78 21 -81 5 -9 76 7 374 85 140 36 292 76 338 87 56 15 82 26 82 36 0 27 -61 197 -73 205 -7 4 -198 8 -426 8 -389 0 -413 -1 -408 -17z"
       id="path22"
       style="fill:#ccffcc" />
    <path
       d="M6740 8412 c0 -5 11 -46 25 -93 25 -82 87 -336 100 -411 4 -21 9 -38 10 -38 2 0 55 11 119 25 170 37 339 62 531 80 94 9 173 19 177 23 12 13 -66 353 -93 405 -9 16 -40 17 -439 17 -237 0 -430 -4 -430 -8z"
       id="path24"
       style="fill:#ccff99" />
    <path
       d="M7643 8398 c3 -13 21 -86 40 -163 20 -77 39 -164 43 -192 6 -52 7 -53 41 -53 102 0 162 42 199 139 28 75 80 148 126 178 36 23 57 28 123 31 86 4 98 10 121 54 l15 28 -357 0 -356 0 5 -22z"
       id="path26"
       style="fill:#ccff99" />
    <path
       d="M8360 8378 c-16 -22 -30 -44 -30 -49 0 -4 19 -31 42 -61 l43 -53 6 30 c16 74 6 175 -17 175 -8 0 -27 -19 -44 -42z"
       id="path28"
       style="fill:#ccccff" />
    <path
       d="M1860 8388 c-5 -13 -57 -129 -114 -257 -58 -129 -104 -236 -103 -237 1 -1 34 -18 72 -37 39 -20 95 -51 124 -70 l55 -35 56 76 c31 43 78 109 105 147 26 39 72 103 102 142 29 40 53 76 53 80 -2 24 -295 213 -330 213 -6 0 -15 -10 -20 -22z"
       id="path30"
       style="fill:#ff6633" />
    <path
       d="M4750 8375 c-47 -19 -89 -35 -93 -35 -10 0 -167 -72 -167 -76 0 -2 6 -21 14 -41 8 -21 54 -146 101 -278 48 -132 94 -260 102 -283 16 -44 17 -44 56 -38 22 4 82 19 134 33 91 26 95 29 115 68 11 22 29 52 40 68 l19 27 -35 129 c-67 238 -158 461 -190 461 -6 0 -49 -16 -96 -35z"
       id="path32"
       style="fill:#ffff00" />
    <path
       d="M715 8355 c-100 -57 -269 -178 -266 -190 4 -18 313 -455 321 -455 5 0 30 17 57 39 27 21 81 57 120 80 l71 43 -23 56 c-13 32 -60 150 -105 265 -45 114 -85 207 -89 207 -3 0 -42 -20 -86 -45z"
       id="path34"
       style="fill:#ff6633" />
    <path
       d="M3810 8301 c-411 -192 -542 -261 -537 -278 3 -10 28 -67 55 -128 27 -60 62 -152 78 -202 16 -51 32 -93 37 -93 4 0 112 159 240 353 275 415 270 407 260 407 -5 0 -64 -27 -133 -59z"
       id="path36"
       style="fill:#ff9933" />
    <path
       d="M3955 8306 c-30 -41 -464 -695 -474 -714 -11 -21 -10 -22 11 -17 52 11 256 56 460 101 119 26 222 50 229 55 9 5 -1 44 -40 156 -65 182 -164 433 -171 433 -3 0 -10 -6 -15 -14z"
       id="path38"
       style="fill:#ff9933" />
    <path
       d="M8152 8307 c-60 -19 -110 -75 -165 -187 -39 -80 -60 -109 -84 -123 -32 -18 -91 -26 -348 -47 -179 -14 -378 -41 -368 -50 8 -8 96 -24 423 -81 l186 -32 84 62 c46 34 129 85 185 112 93 45 267 99 321 99 30 0 47 32 38 73 -7 32 -78 136 -116 170 -23 19 -101 22 -156 4z"
       id="path40"
       style="fill:#ccccff" />
    <path
       d="M5735 8240 c-183 -46 -627 -159 -667 -170 l-37 -11 15 -47 c8 -26 19 -69 25 -97 6 -27 14 -54 18 -58 4 -4 23 6 42 22 121 106 334 140 509 81 69 -23 199 -97 283 -161 29 -21 53 -35 55 -30 7 20 -41 285 -69 389 -24 86 -35 112 -48 111 -9 -1 -65 -14 -126 -29z"
       id="path42"
       style="fill:#ffff66" />
    <path
       d="M4410 8245 c-19 -7 -96 -37 -170 -66 -74 -28 -139 -55 -143 -59 -5 -4 14 -72 42 -151 49 -138 89 -269 125 -410 l18 -67 106 28 c95 25 234 63 285 77 24 7 22 29 -12 120 -17 43 -62 167 -101 276 -84 233 -98 267 -108 266 -4 0 -23 -6 -42 -14z"
       id="path44"
       style="fill:#ffff00" />
    <path
       d="M2183 8108 c-26 -35 -61 -82 -77 -105 l-29 -43 54 -89 c30 -49 124 -199 209 -335 l155 -247 34 6 c19 4 71 20 117 37 l83 30 -6 31 c-23 124 -122 338 -224 486 -64 93 -241 291 -259 291 -5 0 -30 -28 -57 -62z"
       id="path46"
       style="fill:#ff6600" />
    <path
       d="M6630 8130 c-164 -44 -583 -152 -607 -157 -36 -8 -41 -23 -32 -93 5 -36 11 -121 15 -190 3 -69 7 -134 8 -145 4 -31 91 -85 138 -85 36 0 46 7 121 84 107 110 147 130 246 124 55 -3 90 -12 127 -31 69 -35 142 -95 184 -150 19 -25 39 -47 44 -47 9 0 1 176 -15 310 -13 105 -58 355 -70 387 -11 29 -26 29 -159 -7z"
       id="path48"
       style="fill:#ccff99" />
    <path
       d="M327 8068 c-79 -79 -161 -181 -221 -276 -26 -42 -26 -45 -24 -185 l3 -142 70 -28 69 -28 18 23 c10 13 34 50 55 83 20 33 68 107 106 165 38 58 92 140 118 182 l49 78 -51 72 c-28 40 -61 88 -72 105 -12 18 -25 33 -29 33 -5 0 -45 -37 -91 -82z"
       id="path50"
       style="fill:#ff6600" />
    <path
       d="M2949 7907 c-140 -94 -265 -180 -279 -189 -23 -17 -23 -20 -12 -50 39 -101 91 -275 106 -353 27 -144 24 -136 49 -130 12 3 159 35 326 70 167 35 308 68 314 74 15 15 -27 209 -84 384 -42 126 -133 335 -157 359 -4 4 -122 -70 -263 -165z"
       id="path52"
       style="fill:#ff9900" />
    <path
       d="M80 7925 c0 -63 2 -115 4 -115 1 0 24 32 50 71 l48 71 -43 44 c-24 24 -47 44 -51 44 -4 0 -8 -52 -8 -115z"
       id="path54"
       style="fill:#ff9933" />
    <path
       d="M8285 8016 c-146 -42 -282 -106 -385 -181 -57 -43 -62 -49 -43 -56 50 -18 248 -42 358 -43 111 -1 124 1 165 24 l45 25 0 125 0 125 -30 2 c-16 1 -66 -8 -110 -21z"
       id="path56"
       style="fill:#ccccff" />
    <path
       d="M5295 7941 c-114 -41 -210 -127 -259 -231 -29 -62 -30 -72 -33 -208 l-3 -144 24 19 c13 10 75 63 137 117 131 115 217 172 310 209 139 56 331 61 450 13 35 -14 65 -24 67 -21 7 6 -51 60 -123 114 -86 64 -213 127 -284 141 -87 16 -229 12 -286 -9z"
       id="path58"
       style="fill:#ccccff" />
    <path
       d="M1984 7832 l-71 -97 59 -65 c107 -118 175 -236 224 -392 14 -43 27 -78 30 -78 3 0 58 16 121 36 98 31 114 39 110 55 -6 21 -389 638 -397 638 -3 0 -37 -43 -76 -97z"
       id="path60"
       style="fill:#ff6600" />
    <path
       d="M1341 7911 c-7 -5 -11 -13 -8 -17 2 -5 8 -54 12 -109 3 -55 11 -143 16 -195 4 -52 9 -102 9 -111 0 -13 14 -17 64 -21 65 -6 154 -40 203 -78 l25 -20 32 26 c17 14 84 78 149 141 l118 115 -28 30 c-101 108 -285 204 -434 227 -119 19 -144 20 -158 12z"
       id="path62"
       style="fill:#ff3333" />
    <path
       d="M489 7765 c-185 -285 -229 -359 -222 -366 5 -5 55 -26 113 -48 58 -21 113 -42 122 -46 13 -5 24 11 58 82 49 106 89 171 148 241 l44 53 -37 52 c-20 29 -55 80 -78 114 -23 35 -45 63 -48 63 -4 0 -49 -65 -100 -145z"
       id="path64"
       style="fill:#ff6600" />
    <path
       d="M1175 7890 c-155 -41 -263 -99 -371 -202 -72 -68 -174 -195 -174 -216 0 -9 62 -49 300 -196 l75 -47 14 23 c8 13 42 51 76 84 62 62 121 96 204 119 l45 12 -3 59 c-1 32 -4 61 -6 64 -1 3 -6 52 -10 109 -4 57 -9 111 -10 120 -2 9 -4 33 -4 54 -1 35 -3 37 -33 36 -18 0 -64 -8 -103 -19z"
       id="path66"
       style="fill:#ff3366" />
    <path
       d="M6951 7860 c-40 -10 -74 -20 -75 -22 -2 -2 4 -60 12 -130 13 -114 17 -128 34 -128 10 0 132 11 271 24 139 14 313 30 387 37 181 16 180 15 167 76 -6 26 -12 49 -13 51 -6 9 -635 112 -677 111 -18 -1 -65 -9 -106 -19z"
       id="path68"
       style="fill:#ccffcc" />
    <path
       d="M7766 7762 c-2 -1 1 -22 6 -45 13 -59 38 -254 38 -299 0 -46 -30 -44 320 -22 193 12 269 21 280 31 12 11 15 43 15 158 0 79 -3 146 -7 150 -4 4 -30 -1 -59 -10 -68 -23 -268 -15 -457 18 -73 12 -134 21 -136 19z"
       id="path70"
       style="fill:#ccff99" />
    <path
       d="M5632 7719 c-90 -14 -213 -61 -285 -110 -34 -23 -106 -81 -160 -128 -178 -156 -240 -201 -370 -267 -234 -120 -394 -165 -523 -150 l-54 6 -21 -42 c-12 -24 -30 -55 -40 -70 -11 -14 -19 -28 -19 -30 0 -15 131 -33 235 -32 235 0 364 50 835 319 113 65 273 156 355 203 200 115 242 131 333 132 l72 0 0 50 c0 57 -11 67 -103 99 -70 25 -173 32 -255 20z"
       id="path72"
       style="fill:#ffccff" />
    <path
       d="M4090 7680 c-137 -29 -635 -141 -637 -143 -1 -1 5 -36 13 -77 19 -98 41 -272 49 -385 3 -49 8 -104 11 -121 l4 -31 53 10 c30 5 149 7 279 4 304 -7 309 -3 363 195 16 57 37 122 48 146 22 49 22 52 -29 256 -31 128 -46 168 -63 165 -3 0 -44 -9 -91 -19z"
       id="path74"
       style="fill:#ffcc00" />
    <path
       d="M4925 7638 c-22 -6 -85 -23 -140 -38 -55 -15 -178 -49 -274 -75 -218 -59 -224 -61 -218 -83 3 -9 8 -34 12 -55 l6 -38 39 35 c77 69 167 99 235 76 20 -7 61 -32 92 -57 91 -74 143 -103 185 -103 45 0 92 22 103 47 10 26 18 303 8 302 -4 -1 -26 -6 -48 -11z"
       id="path76"
       style="fill:#ffcc33" />
    <path
       d="M6430 7635 c-31 -10 -64 -33 -103 -72 -31 -31 -57 -60 -57 -64 0 -4 -19 -21 -42 -38 -52 -38 -97 -40 -153 -6 -99 60 -113 65 -179 65 -57 0 -75 -5 -158 -48 -51 -26 -191 -105 -311 -175 -624 -364 -779 -428 -1038 -428 -99 -1 -143 4 -202 20 -66 19 -105 22 -338 24 l-264 2 -79 -28 c-78 -27 -162 -74 -220 -121 -35 -29 -35 -29 129 -50 406 -51 551 -70 722 -92 l191 -25 91 46 c131 66 208 94 497 186 294 93 404 134 659 247 340 150 511 201 746 223 179 17 445 3 542 -27 15 -5 17 2 17 54 0 58 -1 60 -65 135 -126 148 -266 210 -385 172z"
       id="path78"
       style="fill:#9999ff" />
    <path
       d="M7445 7605 c-115 -13 -275 -29 -355 -35 -79 -7 -155 -16 -168 -21 l-23 -9 6 -133 c4 -72 8 -138 11 -145 5 -16 26 -5 91 44 41 31 51 34 113 34 75 0 137 -20 276 -89 150 -74 375 -157 389 -143 8 9 4 324 -6 407 -14 119 -12 115 -72 114 -28 -1 -146 -12 -262 -24z"
       id="path80"
       style="fill:#ccff99" />
    <path
       d="M1859 7503 c-62 -60 -126 -120 -141 -135 l-29 -27 34 -48 c52 -72 74 -121 91 -202 8 -41 18 -77 23 -81 7 -7 230 -35 338 -42 l40 -3 0 40 c0 114 -37 277 -89 390 -43 93 -123 215 -141 215 -7 0 -64 -48 -126 -107z"
       id="path82"
       style="fill:#ff3366" />
    <path
       d="M584 7383 c-52 -117 -75 -235 -76 -383 0 -128 13 -235 30 -252 7 -7 312 79 395 111 l27 11 0 113 c0 74 5 132 16 166 8 30 12 57 7 61 -12 10 -270 172 -325 204 l-48 27 -26 -58z"
       id="path84"
       style="fill:#ff3333" />
    <path
       d="M1300 7426 c-91 -24 -190 -88 -190 -121 0 -8 6 -29 14 -47 8 -18 36 -84 62 -145 25 -62 52 -120 59 -130 12 -16 25 -11 161 59 280 144 334 173 334 184 0 21 -109 130 -157 156 -58 32 -152 58 -203 57 -19 0 -55 -6 -80 -13z"
       id="path86"
       style="fill:#ff0000" />
    <path
       d="M4450 7423 c-19 -10 -60 -42 -90 -73 -57 -59 -96 -139 -107 -221 l-6 -39 96 0 c118 0 206 25 387 111 l125 60 -43 19 c-24 11 -78 46 -120 79 -42 33 -90 64 -105 70 -41 16 -97 13 -137 -6z"
       id="path88"
       style="fill:#ccccff" />
    <path
       d="M80 7247 l0 -183 118 -12 c255 -27 282 -27 282 -6 1 28 9 91 21 162 7 35 10 64 8 66 -8 6 -410 156 -419 156 -6 0 -10 -72 -10 -183z"
       id="path90"
       style="fill:#ff6633" />
    <path
       d="M8140 7374 c-96 -8 -208 -17 -247 -20 l-73 -6 0 -124 c0 -143 -16 -126 137 -144 105 -12 209 -41 269 -76 31 -18 55 -24 103 -24 106 0 101 -10 101 215 l0 195 -57 -1 c-32 -1 -137 -8 -233 -15z"
       id="path92"
       style="fill:#ccff99" />
    <path
       d="M2665 7309 c-33 -10 -143 -44 -245 -77 l-185 -59 -6 -189 c-3 -109 -11 -212 -19 -243 -13 -50 -13 -54 6 -68 39 -29 434 -243 448 -243 15 0 34 69 72 260 30 150 28 604 -3 630 -4 4 -35 -1 -68 -11z"
       id="path94"
       style="fill:#ff6633" />
    <path
       d="M7063 7310 c-11 -5 -42 -25 -68 -44 -51 -40 -73 -43 -133 -22 -153 54 -563 49 -792 -9 -145 -37 -249 -77 -535 -203 -216 -95 -323 -134 -645 -240 -363 -119 -507 -178 -486 -199 4 -5 141 -9 304 -11 270 -3 300 -1 331 15 53 28 70 59 80 146 10 86 29 124 67 133 46 12 157 -4 261 -37 l101 -32 39 30 c111 87 298 174 463 218 92 24 129 28 295 33 120 3 218 0 265 -7 109 -17 270 -66 350 -106 l70 -35 242 0 c402 1 938 23 938 40 0 4 -24 17 -52 29 -52 20 -127 35 -333 65 -121 18 -223 53 -426 147 -212 98 -273 114 -336 89z"
       id="path96"
       style="fill:#9999ff" />
    <path
       d="M3285 7259 c-71 -15 -209 -45 -305 -65 -96 -20 -178 -39 -181 -42 -4 -4 -9 -93 -13 -199 l-6 -191 37 -6 c21 -3 117 -8 215 -12 l176 -6 64 48 c34 27 98 67 142 89 l78 40 -6 160 c-3 88 -8 172 -12 188 -8 34 -18 34 -189 -4z"
       id="path98"
       style="fill:#ff9900" />
    <path
       d="M1056 7258 c-50 -77 -70 -143 -74 -245 -6 -151 26 -238 124 -337 65 -67 160 -117 235 -124 27 -2 49 -3 49 0 0 6 -40 106 -105 258 -31 74 -68 160 -80 190 -13 30 -39 91 -58 136 -70 165 -66 160 -91 122z"
       id="path100"
       style="fill:#ff3300" />
    <path
       d="M1640 7134 c-52 -30 -97 -57 -99 -59 -3 -4 18 -85 84 -315 15 -52 29 -97 31 -99 8 -10 60 64 97 139 42 85 42 85 41 195 -1 114 -18 188 -45 193 -8 1 -57 -23 -109 -54z"
       id="path102"
       style="fill:#ff0033" />
    <path
       d="M6245 7064 c-159 -24 -350 -81 -466 -139 -82 -41 -191 -114 -185 -124 14 -22 271 -71 373 -71 85 0 205 26 267 57 28 14 85 49 126 77 145 98 154 101 325 100 83 0 175 -4 205 -7 38 -5 50 -4 40 3 -25 16 -190 68 -271 84 -75 15 -356 29 -414 20z"
       id="path104"
       style="fill:#ffccff" />
    <path
       d="M1381 7000 c-63 -33 -116 -62 -118 -64 -4 -4 82 -208 132 -313 22 -45 41 -73 51 -73 29 0 164 62 174 80 11 20 1 62 -57 255 -31 104 -58 176 -66 175 -1 -1 -53 -28 -116 -60z"
       id="path106"
       style="fill:#ff0000" />
    <path
       d="M80 6625 c0 -223 2 -405 4 -405 8 0 470 282 488 297 16 14 16 18 1 46 -35 69 -74 208 -88 316 -9 63 -17 116 -19 119 -6 6 -274 32 -333 32 l-53 0 0 -405z"
       id="path108"
       style="fill:#ff6600" />
    <path
       d="M1835 6969 c-4 -6 -13 -38 -21 -72 -8 -34 -24 -86 -36 -116 l-21 -53 54 -51 c30 -28 93 -89 141 -134 48 -46 92 -83 97 -83 29 0 123 224 146 349 25 140 40 125 -147 145 -90 9 -173 19 -185 22 -12 2 -25 -1 -28 -7z"
       id="path110"
       style="fill:#ff3366" />
    <path
       d="M8329 6956 c-2 -2 -107 -9 -234 -16 -126 -6 -239 -13 -251 -16 -18 -3 -22 -13 -28 -71 -4 -38 -10 -86 -13 -109 l-5 -41 81 -6 c168 -13 269 -103 284 -251 9 -89 25 -101 174 -132 12 -2 34 -17 50 -34 15 -16 31 -30 35 -30 4 0 7 160 8 355 l0 355 -48 0 c-27 0 -51 -2 -53 -4z"
       id="path112"
       style="fill:#ccff99" />
    <path
       d="M6515 6922 c-27 -10 -87 -43 -133 -74 -98 -67 -174 -105 -257 -128 l-60 -17 -8 -94 c-10 -112 -9 -113 96 -123 39 -4 178 -18 307 -31 129 -14 280 -26 335 -27 l100 -3 7 178 c4 98 4 211 0 250 l-7 72 -55 7 c-113 13 -273 8 -325 -10z"
       id="path114"
       style="fill:#ccffcc" />
    <path
       d="M6924 6883 c3 -27 6 -84 7 -126 1 -43 5 -79 8 -82 12 -7 826 26 834 34 4 4 10 53 14 109 l6 102 -414 0 c-228 0 -424 3 -437 6 -22 6 -23 5 -18 -43z"
       id="path116"
       style="fill:#ccff99" />
    <path
       d="M5171 6830 c-11 -19 -23 -59 -27 -89 -3 -31 -8 -65 -10 -76 -11 -61 -15 -193 -6 -199 8 -5 318 -76 632 -146 47 -10 118 -27 157 -36 40 -10 75 -15 78 -13 6 6 22 127 29 219 3 36 8 97 11 136 l7 72 -99 6 c-124 8 -253 35 -463 97 -91 28 -193 52 -227 56 -62 6 -62 6 -82 -27z"
       id="path118"
       style="fill:#ffff66" />
    <path
       d="M830 6800 c-63 -21 -154 -50 -202 -64 l-87 -26 29 -71 c49 -118 134 -254 190 -304 21 -19 23 -19 35 -2 6 9 50 59 97 110 119 128 178 199 178 212 0 5 -16 34 -36 64 -20 29 -42 68 -50 87 -8 19 -20 34 -27 33 -6 0 -64 -18 -127 -39z"
       id="path120"
       style="fill:#ff3366" />
    <path
       d="M2757 6659 c-9 -41 -19 -91 -23 -112 l-6 -37 58 -26 c68 -30 519 -209 550 -218 18 -6 25 3 52 66 33 80 64 179 86 276 l14 63 -24 10 c-27 10 -318 33 -550 44 l-142 7 -15 -73z"
       id="path122"
       style="fill:#ff9933" />
    <path
       d="M1686 6651 c-69 -70 -145 -108 -237 -119 -41 -5 -97 -6 -124 -1 -72 11 -72 11 -77 -13 -6 -27 -96 -375 -104 -400 -12 -40 252 -56 394 -24 87 19 196 68 280 124 71 49 202 179 202 202 0 17 -261 280 -277 280 -5 0 -31 -22 -57 -49z"
       id="path124"
       style="fill:#ff3333" />
    <path
       d="M3515 6668 c-10 -31 -56 -230 -53 -232 7 -7 670 -244 725 -260 15 -5 23 -2 27 11 13 43 35 197 42 290 7 102 7 102 -17 107 -20 4 -279 38 -599 77 -47 6 -93 13 -103 15 -9 3 -19 -1 -22 -8z"
       id="path126"
       style="fill:#ffcc33" />
    <path
       d="M7802 6670 c-72 -15 -149 -56 -196 -104 -45 -46 -162 -258 -152 -275 3 -4 30 -11 60 -14 66 -7 167 -55 223 -106 22 -21 68 -80 103 -132 80 -120 103 -147 157 -186 70 -50 152 -73 278 -80 155 -8 150 -15 147 215 -3 152 -6 182 -24 224 -24 56 -44 69 -142 94 -75 19 -102 43 -111 103 -19 116 -27 136 -75 182 -67 66 -175 97 -268 79z"
       id="path128"
       style="fill:#66ff00" />
    <path
       d="M7325 6659 c-77 -3 -192 -7 -255 -8 -63 -1 -120 -5 -127 -9 -6 -4 -14 -49 -17 -107 -8 -118 -12 -165 -26 -304 -6 -57 -9 -105 -6 -108 6 -6 143 -22 198 -22 30 -1 38 3 44 22 23 77 139 157 226 157 l48 0 60 121 c64 128 117 194 189 241 l45 28 -120 -2 c-65 -1 -182 -5 -259 -9z"
       id="path130"
       style="fill:#ccffcc" />
    <path
       d="M2154 6588 c-61 -131 -163 -265 -269 -355 l-49 -42 24 -43 c13 -24 42 -74 65 -113 23 -38 74 -125 113 -191 39 -67 78 -126 85 -133 19 -15 33 2 92 109 25 47 54 93 62 103 27 29 105 77 143 87 20 5 53 26 73 46 37 38 106 161 150 271 l25 62 -34 21 c-20 11 -37 20 -39 20 -2 0 -50 26 -107 59 -120 68 -293 161 -300 161 -2 0 -18 -28 -34 -62z"
       id="path132"
       style="fill:#ff6600" />
    <path
       d="M1080 6610 c-8 -10 -76 -85 -150 -166 l-134 -146 44 -39 c59 -51 259 -154 273 -140 11 11 107 384 107 416 0 14 -18 31 -57 55 -32 19 -60 36 -63 37 -3 1 -12 -6 -20 -17z"
       id="path134"
       style="fill:#ff3333" />
    <path
       d="M5050 6576 c-40 -19 -68 -21 -240 -24 -174 -3 -390 8 -491 24 l-37 6 -1 -80 c-1 -53 3 -83 11 -89 7 -6 74 -31 148 -56 74 -25 234 -80 354 -122 121 -41 225 -75 232 -75 7 0 18 35 27 88 23 127 50 330 45 340 -1 5 -23 -1 -48 -12z"
       id="path136"
       style="fill:#ffcc33" />
    <path
       d="M410 6384 c-315 -194 -310 -191 -303 -211 9 -27 99 -160 153 -228 27 -33 97 -108 157 -166 93 -92 115 -109 162 -123 30 -9 56 -16 58 -16 6 0 243 533 243 547 0 5 -29 33 -65 62 -61 50 -130 129 -185 213 -14 21 -27 38 -30 37 -3 0 -88 -52 -190 -115z"
       id="path138"
       style="fill:#ff6633" />
    <path
       d="M2695 6403 c-48 -135 -105 -260 -146 -318 -21 -31 -39 -58 -39 -60 0 -2 15 -7 33 -10 39 -9 127 -55 127 -67 0 -23 33 2 77 57 141 174 292 224 458 151 32 -15 63 -26 70 -26 6 0 24 22 39 50 l27 49 -38 17 c-21 8 -81 33 -133 54 -96 38 -415 168 -436 176 -7 3 -23 -27 -39 -73z"
       id="path140"
       style="fill:#ff9900" />
    <path
       d="M6046 6429 c-4 -24 -17 -124 -31 -221 -14 -97 -25 -185 -25 -196 0 -18 16 -24 118 -47 64 -15 240 -56 390 -91 149 -35 281 -64 291 -64 16 0 22 16 39 113 47 256 69 447 53 457 -11 6 -133 20 -596 66 -82 8 -169 17 -192 20 l-41 6 -6 -43z"
       id="path142"
       style="fill:#ccff99" />
    <path
       d="M5110 6431 c-1 -32 -59 -337 -96 -499 -26 -111 -44 -205 -41 -209 4 -3 12 -1 19 4 7 6 103 57 213 113 110 56 268 137 350 180 83 43 210 108 284 145 81 40 130 70 124 76 -8 8 -58 20 -323 79 -47 10 -166 37 -265 60 -229 52 -265 59 -265 51z"
       id="path144"
       style="fill:#ffff99" />
    <path
       d="M3418 6338 c-18 -40 -49 -107 -69 -148 -21 -41 -35 -78 -33 -81 2 -4 57 -5 122 -2 138 7 178 -6 257 -78 72 -66 88 -106 93 -224 4 -108 15 -150 43 -166 27 -14 48 3 98 76 42 63 90 95 141 95 25 0 39 28 84 167 55 168 57 160 -44 195 -47 16 -128 46 -180 65 -52 19 -124 45 -160 58 -175 63 -287 104 -302 110 -14 6 -24 -7 -50 -67z"
       id="path146"
       style="fill:#ffcc00" />
    <path
       d="M4276 6372 c-2 -4 -10 -39 -16 -78 -19 -112 -67 -292 -103 -391 -32 -86 -34 -93 -18 -108 10 -8 23 -15 30 -15 7 0 64 -50 127 -112 68 -66 118 -108 123 -102 5 5 43 115 84 244 121 377 140 440 134 446 -5 5 -277 101 -334 118 -12 4 -24 3 -27 -2z"
       id="path148"
       style="fill:#ffff00" />
    <path
       d="M7307 6244 c-56 -17 -130 -86 -153 -139 -27 -65 -18 -164 26 -304 23 -71 41 -147 41 -173 l1 -48 51 -15 c78 -24 169 -30 222 -15 39 11 61 29 138 112 51 55 107 109 125 120 35 22 66 22 230 2 62 -8 67 4 15 34 -55 30 -102 84 -182 204 -76 116 -132 166 -231 208 -71 30 -211 37 -283 14z"
       id="path150"
       style="fill:#66ff00" />
    <path
       d="M4667 6233 c-3 -5 -21 -57 -40 -118 -19 -60 -56 -175 -82 -255 -100 -307 -105 -327 -86 -343 48 -41 217 -115 310 -137 59 -14 63 -12 80 45 5 17 25 85 45 152 42 143 121 449 131 509 l6 42 -168 56 c-172 57 -189 61 -196 49z"
       id="path152"
       style="fill:#ffff00" />
    <path
       d="M5680 6054 c-404 -205 -651 -334 -674 -350 -19 -13 -17 -14 20 -30 21 -9 111 -46 199 -84 133 -57 521 -220 561 -237 15 -6 31 43 88 268 45 173 119 551 114 576 -2 8 -118 -46 -308 -143z"
       id="path154"
       style="fill:#ffff99" />
    <path
       d="M903 6157 c-4 -7 -34 -70 -66 -142 -119 -268 -169 -386 -165 -391 11 -11 269 -134 312 -148 87 -30 109 -20 214 89 40 42 88 83 107 91 21 8 68 14 119 14 47 0 87 4 90 9 5 8 -7 54 -70 277 l-26 91 -111 6 c-118 5 -207 27 -302 74 -81 40 -93 44 -102 30z"
       id="path156"
       style="fill:#ff6600" />
    <path
       d="M1736 6139 c-66 -34 -179 -73 -243 -84 -24 -4 -43 -9 -43 -11 0 -6 54 -211 79 -298 10 -38 25 -73 33 -78 16 -11 486 -5 511 6 9 4 17 13 17 20 0 6 -39 76 -86 156 -47 80 -109 184 -137 232 -29 49 -56 88 -62 88 -5 -1 -37 -15 -69 -31z"
       id="path158"
       style="fill:#ff6633" />
    <path
       d="M2940 6139 c-62 -31 -182 -156 -259 -269 -181 -267 -357 -435 -562 -536 -106 -52 -202 -73 -384 -84 -88 -6 -187 -14 -219 -20 -84 -14 -191 -68 -256 -128 -91 -85 -102 -83 455 -80 l470 3 68 32 c163 78 379 289 681 668 111 140 236 268 304 312 28 18 52 37 52 42 0 4 -33 23 -72 42 -60 28 -87 34 -153 37 -67 2 -87 -1 -125 -19z"
       id="path160"
       style="fill:#ccccff" />
    <path
       d="M80 6050 c0 -112 -1 -111 64 -56 l29 25 -36 53 c-20 29 -37 59 -37 66 0 6 -4 12 -10 12 -6 0 -10 -40 -10 -100z"
       id="path162"
       style="fill:#ff9933" />
    <path
       d="M3360 6068 c-78 -27 -176 -95 -245 -169 -28 -30 -114 -133 -192 -229 -176 -217 -174 -214 -346 -388 -95 -96 -172 -164 -232 -204 l-90 -60 64 7 c35 3 134 24 220 46 86 21 172 39 191 39 31 0 45 10 105 71 201 203 380 320 600 393 95 31 229 56 303 56 53 0 62 6 40 28 -7 7 -13 57 -16 124 -5 128 -16 162 -74 220 -85 85 -205 109 -328 66z"
       id="path164"
       style="fill:#ffccff" />
    <path
       d="M6887 6083 c-3 -5 -11 -41 -17 -79 -17 -110 -57 -287 -102 -452 -23 -83 -39 -154 -36 -157 3 -3 44 -11 91 -17 113 -15 208 1 268 44 124 90 134 157 58 396 -28 89 -39 140 -39 186 0 46 -4 65 -14 69 -29 11 -203 19 -209 10z"
       id="path166"
       style="fill:#ccff99" />
    <path
       d="M128 5949 l-48 -41 0 -190 0 -191 46 43 c71 65 158 101 260 108 l85 5 -104 106 c-57 58 -120 127 -141 154 -21 26 -41 47 -45 47 -3 -1 -27 -19 -53 -41z"
       id="path168"
       style="fill:#ff9900" />
    <path
       d="M2382 5968 c-50 -24 -103 -83 -139 -153 -62 -121 -100 -153 -203 -174 -59 -12 -71 -19 -176 -95 -89 -65 -239 -139 -349 -171 -76 -23 -120 -28 -280 -36 -104 -5 -203 -11 -220 -15 -49 -9 -155 -45 -155 -52 0 -4 24 -19 53 -35 28 -15 86 -58 128 -95 43 -37 88 -74 102 -81 24 -13 28 -11 79 41 60 61 156 119 238 142 30 8 123 20 205 26 290 20 366 38 502 119 155 91 331 261 452 436 63 90 62 95 -19 138 -66 34 -153 37 -218 5z"
       id="path170"
       style="fill:#ffccff" />
    <path
       d="M5975 5948 c-2 -7 -16 -69 -30 -138 -15 -69 -33 -149 -42 -178 -8 -30 -13 -56 -10 -58 5 -5 330 -82 605 -144 73 -17 148 -30 166 -30 33 0 33 0 60 91 42 139 75 272 71 280 -6 8 -33 15 -355 90 -307 72 -429 99 -447 99 -8 0 -15 -6 -18 -12z"
       id="path172"
       style="fill:#ccffcc" />
    <path
       d="M3996 5758 c-13 -13 -41 -49 -61 -81 -32 -51 -34 -58 -18 -63 57 -17 186 -89 236 -132 63 -54 153 -151 235 -254 l52 -66 108 -8 c59 -5 283 -9 497 -9 364 0 398 1 505 23 63 12 133 27 155 33 64 18 19 27 -140 28 -179 1 -318 15 -481 46 -237 47 -404 97 -548 166 -68 32 -96 56 -286 239 -36 34 -83 71 -105 81 -56 26 -118 25 -149 -3z"
       id="path174"
       style="fill:#9999ff" />
    <path
       d="M7779 5761 c-20 -11 -71 -59 -114 -106 -108 -118 -143 -138 -248 -137 -45 1 -104 8 -131 16 -27 8 -53 13 -58 10 -4 -3 -17 -22 -27 -42 -23 -44 -83 -103 -128 -126 -18 -9 -33 -20 -33 -25 0 -12 66 -38 144 -57 89 -22 132 -63 170 -160 53 -137 114 -192 224 -201 l57 -4 240 238 c132 131 272 276 311 323 91 110 186 241 179 249 -8 7 -213 22 -340 24 -55 1 -125 6 -155 10 -45 6 -61 4 -91 -12z"
       id="path176"
       style="fill:#66cc00" />
    <path
       d="M8371 5688 c-73 -104 -224 -287 -320 -388 -50 -52 -91 -95 -91 -96 0 -1 37 12 83 28 70 25 94 29 163 26 73 -3 86 -7 143 -42 34 -21 64 -36 67 -34 2 3 3 132 2 287 l-3 283 -44 -64z"
       id="path178"
       style="fill:#00ff00" />
    <path
       d="M4945 5658 c-32 -101 -93 -303 -92 -305 6 -5 237 -54 320 -67 128 -21 328 -36 472 -36 132 0 135 1 135 56 0 15 -7 27 -17 31 -19 6 -34 12 -268 111 -77 33 -196 83 -265 112 -69 29 -155 65 -192 81 -74 32 -87 35 -93 17z"
       id="path180"
       style="fill:#ffff66" />
    <path
       d="M342 5649 c-70 -12 -150 -50 -196 -95 -46 -44 -39 -62 41 -100 77 -36 170 -43 248 -19 61 20 145 87 178 143 l17 30 -47 16 c-42 13 -169 38 -183 35 -3 -1 -29 -5 -58 -10z"
       id="path182"
       style="fill:#9999ff" />
    <path
       d="M1350 5641 c-55 -18 -88 -42 -148 -109 -106 -120 -164 -122 -382 -13 -77 39 -147 71 -155 71 -7 0 -23 -15 -34 -34 -30 -49 -98 -108 -156 -136 -41 -20 -65 -25 -135 -25 -91 0 -141 14 -208 60 -20 14 -40 25 -44 25 -5 0 -8 -40 -8 -90 l0 -90 303 0 c166 0 332 -5 370 -10 63 -9 71 -8 115 15 63 33 120 43 328 55 96 6 208 17 249 25 118 22 262 86 395 176 101 67 105 65 -123 73 -111 3 -233 8 -272 11 -38 2 -81 1 -95 -4z"
       id="path184"
       style="fill:#ffccff" />
    <path
       d="M3580 5584 c-143 -33 -191 -49 -294 -100 -137 -69 -319 -199 -389 -278 -11 -12 -34 -38 -53 -58 -19 -20 -30 -39 -26 -41 17 -11 164 -28 252 -29 124 -2 148 10 256 128 173 188 242 203 395 86 88 -67 139 -88 250 -101 99 -13 422 -32 428 -26 6 7 -109 145 -189 226 -130 131 -233 189 -374 208 -106 15 -135 13 -256 -15z"
       id="path186"
       style="fill:#ccccff" />
    <path
       d="M5831 5373 c-53 -169 -89 -274 -142 -415 -34 -90 -35 -104 -11 -111 9 -3 76 -26 147 -52 72 -26 141 -50 155 -55 14 -4 69 -24 123 -44 77 -28 99 -32 103 -21 3 7 -6 56 -20 109 -15 52 -28 119 -30 148 -12 171 79 339 229 424 34 19 73 34 85 34 61 0 -17 23 -282 84 -157 36 -290 66 -295 66 -5 0 -33 -75 -62 -167z"
       id="path188"
       style="fill:#ccff99" />
    <path
       d="M6545 5358 c63 -285 57 -265 116 -381 96 -191 165 -259 351 -345 221 -103 279 -146 346 -261 l26 -44 17 99 c9 54 28 131 42 169 33 95 100 227 137 268 l30 34 -43 7 c-101 16 -173 74 -219 176 -77 169 -73 166 -207 200 -46 11 -96 31 -112 42 -25 19 -49 23 -157 29 -70 4 -158 12 -197 18 -38 6 -85 11 -103 11 -28 0 -32 -3 -27 -22z"
       id="path190"
       style="fill:#66cc00" />
    <path
       d="M6429 5347 c-103 -43 -179 -122 -222 -230 -30 -77 -32 -204 -5 -298 11 -41 24 -89 27 -108 l6 -35 75 -1 c83 -1 128 -19 245 -98 75 -51 159 -86 206 -87 44 0 133 26 148 43 8 10 -2 23 -42 57 -63 53 -132 133 -170 198 -55 94 -117 286 -162 500 -20 94 -21 94 -106 59z"
       id="path192"
       style="fill:#66cc00" />
    <path
       d="M3480 5310 c-25 -16 -93 -80 -152 -141 l-107 -111 114 -144 113 -143 39 42 c84 90 293 371 293 394 0 6 -39 38 -86 72 -104 74 -141 79 -214 31z"
       id="path194"
       style="fill:#ffcc00" />
    <path
       d="M80 5209 l0 -74 58 -37 c75 -49 309 -169 403 -209 93 -39 203 -79 216 -79 12 0 19 15 104 223 l68 167 -37 19 c-88 45 -128 50 -477 57 l-335 7 0 -74z"
       id="path196"
       style="fill:#ffcc00" />
    <path
       d="M8102 5225 c-29 -8 -91 -33 -139 -56 -68 -32 -104 -59 -175 -127 -49 -47 -104 -107 -123 -132 -37 -51 -100 -172 -110 -211 -6 -25 -5 -25 80 -37 61 -8 108 -22 160 -47 40 -19 82 -35 92 -35 11 0 49 25 87 56 117 97 131 104 202 104 34 0 98 -7 141 -15 126 -24 113 -46 113 194 l0 209 -32 24 c-105 79 -195 101 -296 73z"
       id="path198"
       style="fill:#00ff00" />
    <path
       d="M3793 5167 c-11 -12 -38 -49 -60 -82 -23 -33 -68 -95 -102 -139 -33 -43 -61 -82 -61 -87 0 -4 120 -108 267 -231 l267 -223 100 -16 101 -17 38 37 c79 75 193 241 176 255 -2 2 -80 61 -174 131 -93 71 -243 184 -332 251 -202 153 -195 149 -220 121z"
       id="path200"
       style="fill:#ffff00" />
    <path
       d="M891 5042 c-57 -143 -93 -243 -88 -248 1 -1 47 -14 102 -28 141 -35 284 -54 473 -62 l164 -7 -7 69 c-12 125 -25 218 -33 225 -4 4 -74 9 -157 11 -138 4 -154 6 -201 30 -27 15 -80 54 -117 87 -37 34 -71 61 -75 61 -4 0 -31 -62 -61 -138z"
       id="path202"
       style="fill:#ff9933" />
    <path
       d="M3901 5172 c7 -20 639 -493 650 -486 29 18 203 413 189 428 -3 2 -147 12 -320 21 -320 16 -494 30 -513 42 -5 3 -8 1 -6 -5z"
       id="path204"
       style="fill:#ffcc33" />
    <path
       d="M5611 5154 c-52 -13 -98 -27 -102 -31 -7 -8 -312 -560 -349 -633 l-20 -40 147 0 148 1 67 142 c95 199 197 448 233 565 8 28 1 28 -124 -4z"
       id="path206"
       style="fill:#ffff66" />
    <path
       d="M5325 5118 c-71 -4 -224 -7 -339 -6 l-210 3 -43 -110 c-23 -60 -57 -140 -74 -177 -18 -37 -31 -69 -28 -71 7 -6 313 -199 396 -249 42 -26 80 -45 84 -42 7 4 121 208 229 409 24 44 63 114 87 156 41 73 52 101 36 97 -5 0 -66 -5 -138 -10z"
       id="path208"
       style="fill:#ffff66" />
    <path
       d="M90 5061 c-6 -13 -10 -145 -10 -362 0 -290 2 -341 14 -329 25 28 316 514 316 530 0 12 -41 40 -140 92 -47 25 -101 55 -120 67 -43 26 -47 26 -60 2z"
       id="path210"
       style="fill:#ffcc00" />
    <path
       d="M2630 5068 c-148 -41 -171 -50 -166 -64 5 -12 372 -462 489 -599 l34 -39 29 19 c57 36 211 166 312 262 l104 98 -58 75 c-74 97 -165 212 -176 225 -5 5 -61 10 -126 12 -64 1 -155 6 -202 12 -101 13 -192 13 -240 -1z"
       id="path212"
       style="fill:#ffcc33" />
    <path
       d="M2095 4999 c-132 -3 -305 -7 -385 -8 -80 -1 -151 -5 -159 -10 -12 -8 -13 -26 -2 -124 7 -63 17 -120 21 -128 22 -34 312 27 505 106 77 32 289 145 309 165 7 7 0 9 -19 8 -17 -1 -138 -5 -270 -9z"
       id="path214"
       style="fill:#ffcc00" />
    <path
       d="M2370 4959 c-58 -38 -283 -152 -332 -168 -21 -7 -40 -16 -43 -21 -5 -7 19 -107 111 -460 96 -368 90 -350 108 -350 23 0 235 88 347 144 181 90 394 222 394 244 0 21 -508 632 -530 638 -6 1 -30 -11 -55 -27z"
       id="path216"
       style="fill:#ffcc00" />
    <path
       d="M465 4859 c4 -19 33 -142 65 -274 32 -132 72 -301 89 -375 18 -74 39 -164 48 -199 19 -77 10 -92 122 189 45 113 95 237 111 275 71 176 90 224 90 233 0 6 -24 15 -52 22 -108 25 -303 91 -467 157 -10 5 -12 -1 -6 -28z"
       id="path218"
       style="fill:#ffcc33" />
    <path
       d="M411 4838 c-8 -13 -86 -141 -173 -286 l-158 -263 0 -78 0 -78 103 -46 c191 -86 430 -175 475 -177 6 0 -13 85 -109 490 -55 228 -101 425 -104 438 -3 12 -9 22 -13 22 -4 0 -14 -10 -21 -22z"
       id="path220"
       style="fill:#ffcc33" />
    <path
       d="M6700 4843 c0 -14 73 -122 112 -165 18 -20 83 -76 143 -124 244 -192 286 -250 331 -450 15 -67 18 -139 21 -474 l3 -395 49 -16 c26 -9 58 -22 70 -28 l21 -12 2 313 c1 172 2 333 4 358 1 25 5 136 8 247 6 194 9 230 22 368 7 78 41 240 55 266 5 11 9 25 7 31 -2 5 -22 -32 -45 -84 -58 -134 -91 -278 -93 -406 0 -46 -19 -37 -42 22 -46 117 -137 206 -277 272 -232 109 -284 143 -353 236 -21 28 -38 46 -38 41z"
       id="path222"
       style="fill:#006600" />
    <path
       d="M3523 4815 c-5 -8 -51 -59 -104 -112 -52 -54 -101 -106 -108 -115 -11 -15 2 -39 112 -195 69 -98 161 -228 204 -290 43 -62 81 -112 84 -113 7 0 144 147 284 304 39 43 70 84 70 91 0 20 -500 445 -524 445 -5 0 -14 -7 -18 -15z"
       id="path224"
       style="fill:#ffcc33" />
    <path
       d="M5613 4773 c-14 -32 -54 -118 -89 -191 l-63 -132 -7 -114 -6 -113 93 -11 c52 -7 195 -23 319 -37 124 -14 231 -28 238 -30 16 -6 16 -5 -15 51 -24 42 -28 60 -28 129 0 88 7 103 100 230 24 33 44 63 45 68 0 4 -12 12 -27 18 -38 15 -242 89 -273 99 -14 4 -76 27 -139 49 -62 23 -116 41 -118 41 -2 0 -16 -26 -30 -57z"
       id="path226"
       style="fill:#ccffcc" />
    <path
       d="M1885 4744 c-116 -33 -249 -53 -378 -60 l-138 -7 1 -272 c1 -149 5 -277 9 -284 6 -9 78 5 282 54 151 37 298 71 328 76 29 6 64 14 76 19 l23 9 -58 223 c-32 123 -61 231 -65 241 -8 19 -12 20 -80 1z"
       id="path228"
       style="fill:#ffcc33" />
    <path
       d="M4538 4618 c-42 -62 -100 -141 -128 -176 -52 -64 -56 -82 -17 -82 20 0 137 -16 572 -80 71 -11 131 -17 134 -14 3 3 7 38 9 79 l4 74 -98 64 c-153 98 -375 238 -388 243 -7 3 -45 -44 -88 -108z"
       id="path230"
       style="fill:#ffff99" />
    <path
       d="M8105 4699 c-22 -12 -65 -43 -95 -69 -30 -26 -65 -52 -77 -59 -22 -11 -20 -14 55 -89 90 -89 126 -153 197 -347 26 -71 61 -156 77 -188 l29 -58 33 28 c17 16 49 39 69 52 l37 23 0 344 c0 267 -3 345 -12 348 -16 5 -169 26 -228 32 -34 4 -55 0 -85 -17z"
       id="path232"
       style="fill:#00ff00" />
    <path
       d="M1002 4663 c-30 -66 -101 -246 -249 -633 -24 -63 -42 -119 -39 -126 5 -12 17 -15 202 -49 132 -24 411 -51 422 -41 3 3 7 197 10 431 4 356 3 425 -9 429 -8 3 -66 10 -129 15 -63 6 -131 13 -150 17 -35 6 -36 5 -58 -43z"
       id="path234"
       style="fill:#ffcc00" />
    <path
       d="M6247 4640 c-9 -6 -24 -25 -34 -43 -9 -18 -38 -61 -65 -96 -79 -104 -93 -191 -48 -281 23 -45 56 -75 102 -95 79 -32 149 -9 287 93 103 77 159 104 219 105 72 2 93 -7 178 -79 95 -80 162 -114 224 -114 52 0 118 14 132 28 12 12 -31 110 -76 171 -29 40 -163 161 -204 185 -7 4 -37 -5 -67 -19 -48 -24 -64 -27 -137 -24 -90 4 -98 8 -287 126 -64 40 -82 46 -140 50 -37 2 -74 -1 -84 -7z"
       id="path236"
       style="fill:#00ff00" />
    <path
       d="M7542 4628 c-16 -20 -31 -127 -38 -285 l-7 -133 72 0 c95 0 126 -15 221 -105 76 -72 81 -75 127 -75 60 0 132 21 148 43 25 34 -24 224 -85 332 -73 128 -215 222 -351 232 -58 4 -77 2 -87 -9z"
       id="path238"
       style="fill:#00cc33" />
    <path
       d="M3205 4499 c-107 -89 -289 -223 -388 -284 -53 -33 -97 -62 -97 -65 0 -7 286 -484 343 -572 20 -32 42 -58 48 -58 15 0 293 170 367 224 50 37 202 193 210 216 2 4 -47 79 -109 167 -62 87 -128 181 -147 208 -68 97 -156 215 -162 215 -3 0 -32 -23 -65 -51z"
       id="path240"
       style="fill:#ffff00" />
    <path
       d="M7990 4446 c0 -3 13 -30 29 -59 35 -61 66 -173 82 -295 11 -80 7 -311 -6 -412 -10 -74 -45 -444 -45 -475 l0 -32 57 9 c32 5 58 10 59 11 1 1 5 54 9 117 12 220 45 417 85 507 l18 42 -33 63 c-18 35 -50 110 -70 168 -48 135 -114 275 -154 324 -17 21 -31 36 -31 32z"
       id="path242"
       style="fill:#006633" />
    <path
       d="M5124 4403 c2 -10 8 -83 11 -163 4 -80 10 -149 14 -153 5 -5 69 -5 144 -1 l136 7 0 163 1 164 -156 0 c-143 0 -155 -1 -150 -17z"
       id="path244"
       style="fill:#cc99cc" />
    <path
       d="M4195 4308 c33 -35 119 -126 190 -203 72 -77 160 -171 196 -210 36 -38 92 -97 123 -131 l56 -61 333 5 c182 2 334 6 336 8 2 2 -68 81 -155 176 l-159 172 -5 85 -5 86 -50 7 c-138 19 -441 63 -615 88 -107 15 -220 31 -250 35 l-54 6 59 -63z"
       id="path246"
       style="fill:#99ccff" />
    <path
       d="M4005 4268 c-38 -44 -154 -173 -257 -286 -104 -114 -188 -210 -188 -213 0 -4 51 -10 113 -13 232 -14 481 -25 485 -22 1 2 -6 37 -17 79 -37 137 -52 248 -52 395 0 78 -4 142 -7 141 -4 0 -38 -36 -77 -81z"
       id="path248"
       style="fill:#99ccff" />
    <path
       d="M4113 4188 c7 -168 26 -300 59 -394 l21 -62 51 -5 c28 -4 146 -9 261 -13 l210 -7 -20 24 c-11 13 -47 53 -81 89 -33 36 -94 101 -135 145 -220 237 -353 375 -362 375 -6 0 -8 -53 -4 -152z"
       id="path250"
       style="fill:#99cccc" />
    <path
       d="M6619 4272 c-30 -16 -87 -53 -127 -84 -100 -75 -148 -98 -211 -98 -28 0 -51 -4 -51 -8 0 -4 21 -29 48 -54 l47 -47 101 -10 c100 -10 123 -17 243 -72 192 -89 272 -89 356 -4 39 41 95 152 95 189 0 8 -16 16 -41 20 -54 9 -113 39 -174 91 -105 88 -135 105 -185 105 -33 0 -64 -9 -101 -28z"
       id="path252"
       style="fill:#00ff00" />
    <path
       d="M1960 4219 c-91 -23 -455 -109 -567 -134 -22 -5 -23 -9 -23 -135 0 -155 -12 -146 171 -131 202 18 390 52 563 102 l68 21 -6 31 c-20 102 -71 277 -80 276 -6 -1 -63 -14 -126 -30z"
       id="path254"
       style="fill:#ffcc33" />
    <path
       d="M5453 4130 c2 -33 6 -62 8 -64 2 -2 54 -39 114 -83 61 -44 166 -122 235 -173 l125 -92 300 6 c164 4 302 9 305 12 2 3 -27 36 -66 72 -38 37 -128 122 -199 190 -71 67 -136 122 -145 122 -8 0 -154 16 -324 35 -171 19 -321 35 -334 35 -23 0 -24 -2 -19 -60z"
       id="path256"
       style="fill:#99ccff" />
    <path
       d="M7496 4175 c-3 -9 -9 -81 -12 -160 -7 -157 -6 -160 46 -130 53 30 110 9 205 -74 67 -59 109 -75 177 -69 59 6 90 28 135 92 30 44 33 54 33 127 l0 78 -47 -14 c-48 -14 -105 -20 -155 -17 -19 1 -53 26 -112 81 -90 86 -122 101 -212 101 -38 0 -54 -4 -58 -15z"
       id="path258"
       style="fill:#00cc33" />
    <path
       d="M2545 4068 c-77 -38 -141 -71 -143 -73 -1 -1 9 -26 22 -56 13 -30 51 -115 84 -189 33 -74 97 -218 142 -320 45 -102 87 -190 93 -197 17 -17 190 -27 262 -15 57 10 154 42 184 61 10 7 -42 101 -233 418 -135 226 -248 418 -252 427 -3 9 -9 16 -13 15 -3 0 -69 -32 -146 -71z"
       id="path260"
       style="fill:#ffcc33" />
    <path
       d="M7200 4115 c-37 -13 -41 -19 -93 -135 -57 -126 -116 -170 -226 -170 -68 0 -116 14 -239 72 -86 39 -189 68 -247 68 -28 -1 -23 -7 87 -113 l118 -112 -6 -90 -6 -90 71 -32 c39 -18 78 -33 86 -33 9 0 39 23 68 50 65 62 122 90 186 90 64 0 110 -20 153 -68 38 -42 42 -53 57 -174 6 -42 16 -87 22 -101 12 -26 37 -42 48 -32 8 9 7 629 -2 725 -10 106 -20 153 -32 155 -6 2 -26 -3 -45 -10z"
       id="path262"
       style="fill:#00cc33" />
    <path
       d="M80 3816 c0 -292 4 -314 44 -263 12 15 67 117 124 226 92 180 101 201 85 210 -47 25 -227 101 -239 101 -12 0 -14 -49 -14 -274z"
       id="path264"
       style="fill:#ffff00" />
    <path
       d="M5160 4054 c0 -4 33 -41 74 -83 102 -106 200 -212 223 -240 l19 -24 197 8 c108 4 197 10 196 14 0 3 -42 36 -92 73 -51 37 -150 110 -221 163 l-128 95 -134 0 c-74 0 -134 -3 -134 -6z"
       id="path266"
       style="fill:#cc99cc" />
    <path
       d="M2280 3953 c-90 -35 -206 -69 -335 -99 -60 -14 -111 -27 -113 -28 -3 -4 19 -135 52 -306 14 -69 32 -169 42 -222 11 -66 21 -98 30 -98 7 0 59 12 116 26 138 35 354 43 513 20 61 -9 113 -16 117 -16 10 0 4 15 -84 210 -41 91 -112 249 -158 353 -58 128 -89 187 -100 186 -8 0 -44 -12 -80 -26z"
       id="path268"
       style="fill:#ffff00" />
    <path
       d="M373 3958 c-11 -15 -83 -151 -207 -390 l-86 -167 0 -116 c0 -93 3 -115 14 -115 8 0 52 9 98 20 185 43 365 45 578 4 41 -8 80 -14 86 -14 6 0 25 66 43 153 62 292 80 382 87 429 7 53 15 48 -116 73 -120 24 -296 70 -397 105 -101 35 -88 33 -100 18z"
       id="path270"
       style="fill:#ffcc33" />
    <path
       d="M8382 3928 c-18 -11 -32 -21 -32 -23 0 -6 64 15 73 24 19 19 -10 19 -41 -1z"
       id="path272" />
    <path
       d="M8351 3873 c-35 -13 -47 -23 -61 -57 -45 -101 -90 -356 -93 -529 l-2 -92 115 0 115 0 3 285 c2 286 -4 401 -23 406 -5 1 -30 -5 -54 -13z"
       id="path274"
       style="fill:#00cc33" />
    <path
       d="M7511 3842 c-27 -27 -28 -30 -34 -181 -4 -85 -7 -232 -7 -326 0 -146 2 -175 16 -186 9 -7 34 -39 55 -71 22 -32 43 -58 46 -58 4 0 63 22 132 49 70 28 164 61 211 74 97 28 93 21 105 176 3 47 8 95 11 106 2 11 8 85 14 165 6 80 13 165 16 190 l6 45 -33 -36 c-70 -75 -163 -98 -237 -60 -20 10 -72 46 -116 80 -66 51 -85 61 -118 61 -30 0 -46 -7 -67 -28z"
       id="path276"
       style="fill:#009900" />
    <path
       d="M1662 3806 c-99 -12 -114 -21 -107 -66 3 -14 9 -81 15 -150 6 -69 13 -145 15 -170 2 -25 7 -81 11 -125 4 -44 8 -87 10 -95 1 -8 3 -32 3 -52 1 -34 4 -38 27 -38 14 0 64 11 112 24 48 14 106 29 129 35 49 13 49 -9 1 246 -52 282 -69 370 -74 388 -6 19 -11 19 -142 3z"
       id="path278"
       style="fill:#ffcc33" />
    <path
       d="M1024 3796 c-20 -58 -129 -615 -121 -622 11 -11 186 -53 290 -70 107 -18 323 -24 369 -12 22 7 26 13 23 35 -2 16 -6 71 -10 123 -3 52 -10 133 -15 180 -5 47 -12 119 -16 160 -3 41 -9 102 -13 135 l-6 60 -160 7 c-88 4 -200 8 -249 10 -56 3 -89 0 -92 -6z"
       id="path280"
       style="fill:#ffff00" />
    <path
       d="M3570 3694 c87 -144 276 -409 318 -448 l21 -18 -6 238 c-3 132 -9 243 -13 247 -4 5 -83 11 -175 14 l-169 6 24 -39z"
       id="path282"
       style="fill:#ccffff" />
    <path
       d="M3394 3657 c-54 -35 -138 -89 -187 -121 -98 -65 -96 -51 -30 -154 l33 -53 33 43 c50 66 90 84 245 114 21 4 22 8 22 119 0 63 -4 115 -8 115 -5 0 -53 -28 -108 -63z"
       id="path284"
       style="fill:#ffff66" />
    <path
       d="M3925 3636 c4 -45 8 -83 10 -85 2 -2 71 0 153 4 l150 7 -30 67 c-16 36 -33 69 -36 72 -4 4 -62 9 -130 11 l-123 4 6 -80z"
       id="path286"
       style="fill:#ccffff" />
    <path
       d="M6178 3701 c-124 -3 -229 -9 -233 -13 -9 -8 -39 -192 -65 -393 -11 -88 -23 -176 -26 -195 -5 -33 -4 -34 10 -15 57 72 130 113 221 122 l56 6 54 83 c30 46 74 105 97 130 53 57 145 105 218 113 l55 6 3 83 2 82 -82 -2 c-46 -1 -185 -4 -310 -7z"
       id="path288"
       style="fill:#ffffff" />
    <path
       d="M3534 3580 c3 -69 6 -186 7 -260 1 -172 2 -180 43 -180 43 0 109 -37 144 -82 28 -36 41 -71 59 -168 5 -25 14 -44 20 -43 6 1 101 5 212 9 111 4 201 8 201 9 0 1 -50 51 -111 111 -214 209 -378 409 -504 614 -32 52 -63 100 -68 105 -5 6 -7 -38 -3 -115z"
       id="path290"
       style="fill:#ffffff" />
    <path
       d="M4210 3689 c0 -20 83 -171 127 -231 24 -32 71 -91 104 -131 64 -76 131 -170 142 -200 19 -51 129 -188 142 -176 2 3 7 165 11 361 l7 357 -24 5 c-30 7 -358 26 -445 26 -40 0 -64 -4 -64 -11z"
       id="path292"
       style="fill:#ffffff" />
    <path
       d="M5028 3683 l-258 -3 -2 -43 c-1 -23 -3 -58 -4 -77 -1 -19 -5 -176 -9 -348 l-7 -313 69 6 c165 14 275 26 289 32 20 7 24 16 157 328 139 326 171 405 165 410 -8 9 -147 11 -400 8z"
       id="path294"
       style="fill:#ffffff" />
    <path
       d="M5432 3593 c-23 -54 -42 -102 -42 -106 0 -8 479 1 488 8 1 1 7 31 12 66 6 35 12 79 15 97 l6 32 -219 0 -219 0 -41 -97z"
       id="path296"
       style="fill:#ccffff" />
    <path
       d="M6948 3591 c-33 -11 -112 -67 -151 -109 l-29 -30 48 -58 c41 -52 66 -95 100 -182 9 -22 13 -20 109 61 163 137 166 140 156 174 -16 55 -41 93 -79 118 -42 27 -112 39 -154 26z"
       id="path298"
       style="fill:#33ff33" />
    <path
       d="M3930 3365 l0 -165 160 0 161 0 -2 133 c-1 72 -4 147 -6 165 l-5 32 -154 0 -154 0 0 -165z"
       id="path300"
       style="fill:#cc9966" />
    <path
       d="M80 3489 c0 -11 5 -17 10 -14 6 3 10 13 10 21 0 8 -4 14 -10 14 -5 0 -10 -9 -10 -21z"
       id="path302"
       style="fill:#ffff00" />
    <path
       d="M6450 3501 c-47 -15 -85 -39 -129 -82 -54 -54 -143 -187 -139 -208 4 -22 106 -75 199 -105 156 -51 303 -42 439 26 49 25 66 39 68 57 6 38 -57 151 -117 212 -78 77 -146 109 -230 108 -37 0 -77 -4 -91 -8z"
       id="path304"
       style="fill:#33cc00" />
    <path
       d="M4273 3360 c7 -152 13 -170 59 -170 20 0 101 -31 176 -67 29 -14 55 -24 57 -21 7 6 -82 137 -134 198 -26 30 -74 89 -106 130 l-58 75 6 -145z"
       id="path306"
       style="fill:#cc9966" />
    <path
       d="M5655 3461 l-100 -6 -3 -149 c-1 -82 1 -153 5 -157 7 -6 263 9 271 16 2 1 12 61 23 131 10 71 21 139 24 152 6 25 2 25 -220 13z"
       id="path308"
       style="fill:#cc9966" />
    <path
       d="M3397 3441 c-114 -30 -155 -84 -167 -222 -4 -49 -13 -95 -20 -104 -18 -21 -72 -19 -147 7 -57 19 -70 20 -116 9 -60 -14 -106 -46 -138 -97 -18 -29 -22 -52 -23 -115 -1 -43 4 -82 9 -88 6 -6 78 -8 197 -4 l186 6 23 41 c69 125 140 197 242 244 l79 37 -6 145 c-3 80 -6 148 -6 153 0 11 -39 7 -113 -12z"
       id="path310"
       style="fill:#33cc00" />
    <path
       d="M5374 3442 c-19 -11 -150 -309 -141 -318 6 -7 274 13 287 21 10 6 13 223 4 273 l-6 32 -67 0 c-36 0 -71 -4 -77 -8z"
       id="path312"
       style="fill:#cc9966" />
    <path
       d="M7058 3267 c-145 -119 -187 -148 -273 -182 -63 -25 -87 -29 -245 -36 -96 -4 -202 -12 -235 -18 -33 -5 -143 -20 -245 -31 -101 -12 -190 -26 -197 -32 -27 -22 55 -145 89 -133 228 75 483 81 695 15 l101 -31 104 104 c92 93 117 112 228 172 69 37 138 77 153 88 l29 19 -32 33 c-24 25 -34 45 -37 79 -3 25 -9 46 -14 46 -4 0 -59 -42 -121 -93z"
       id="path314"
       style="fill:#66ffcc" />
    <path
       d="M3154 3234 c-29 -13 -78 -29 -110 -35 -76 -15 -275 -6 -468 21 -82 11 -179 20 -215 20 -94 0 -241 -29 -491 -99 -281 -77 -335 -85 -517 -78 -123 5 -178 12 -327 46 -99 22 -181 39 -184 37 -2 -2 7 -7 20 -11 13 -4 87 -36 164 -70 185 -82 252 -99 384 -99 128 0 299 34 555 110 166 49 233 58 400 59 181 0 222 -9 337 -76 72 -42 78 -44 78 -28 0 23 52 77 99 102 64 35 135 36 224 2 l66 -24 20 26 c15 18 21 40 21 74 0 27 -1 49 -2 48 -2 0 -26 -12 -54 -25z"
       id="path316"
       style="fill:#33cc99" />
    <path
       d="M7269 3177 c-21 -18 -79 -54 -130 -81 -168 -88 -211 -121 -307 -230 -61 -69 -61 -68 52 -97 95 -25 137 -24 269 7 139 31 221 38 315 27 72 -9 74 -9 90 16 25 37 19 128 -11 195 -33 72 -85 127 -149 158 -82 40 -89 41 -129 5z"
       id="path318"
       style="fill:#66cc99" />
    <path
       d="M225 3169 c-77 -16 -141 -29 -142 -29 -7 0 -2 -139 5 -144 4 -2 61 20 127 49 159 70 295 115 370 121 88 8 98 17 30 25 -129 15 -246 9 -390 -22z"
       id="path320"
       style="fill:#66cccc" />
    <path
       d="M3980 3171 c-24 -8 -20 -13 100 -131 69 -67 139 -133 156 -147 l31 -23 194 11 c107 6 208 14 224 18 l30 8 -87 86 c-90 89 -180 143 -278 167 -57 14 -337 22 -370 11z"
       id="path322"
       style="fill:#ccffff" />
    <path
       d="M6020 3171 c-46 -14 -87 -40 -112 -69 -25 -30 -54 -90 -47 -96 5 -5 489 53 509 61 13 5 13 6 0 11 -8 2 -61 27 -116 53 -105 50 -165 61 -234 40z"
       id="path324"
       style="fill:#33ff33" />
    <path
       d="M8176 3165 c-170 -24 -400 -91 -526 -153 l-54 -27 2 -61 c4 -67 -19 -140 -46 -149 -10 -2 -23 -14 -30 -26 -13 -20 -12 -21 10 -14 12 4 64 9 115 12 99 6 160 -5 323 -56 75 -23 101 -26 215 -25 99 1 143 6 185 20 l55 19 3 224 c1 124 -1 228 -6 233 -16 16 -145 17 -246 3z"
       id="path326"
       style="fill:#33cc99" />
    <path
       d="M585 3144 c-102 -21 -243 -71 -415 -147 -20 -9 2 -13 120 -18 114 -6 162 -13 225 -32 44 -14 143 -46 220 -70 213 -68 357 -77 487 -31 40 14 127 72 128 85 0 3 -25 9 -55 13 -66 7 -127 29 -304 108 -189 84 -310 111 -406 92z"
       id="path328"
       style="fill:#33cccc" />
    <path
       d="M5720 3129 c-52 -4 -171 -12 -265 -18 -258 -17 -237 -10 -271 -94 -15 -40 -28 -74 -28 -77 -2 -8 319 20 569 50 44 6 82 10 86 10 10 0 21 122 12 129 -4 4 -51 4 -103 0z"
       id="path330"
       style="fill:#ccffff" />
    <path
       d="M2234 3110 c-33 -5 -132 -27 -220 -50 -368 -96 -433 -111 -523 -117 -92 -6 -93 -6 -145 -51 -90 -78 -202 -109 -352 -99 -97 7 -152 20 -379 92 -209 67 -282 80 -399 72 -144 -10 -136 -3 -136 -118 0 -54 4 -100 9 -104 12 -7 215 -48 356 -71 135 -23 460 -25 575 -5 115 20 309 68 480 118 549 161 834 189 1136 112 43 -11 89 -23 102 -26 21 -5 22 -3 22 60 l0 66 -43 29 c-81 57 -163 84 -277 93 -121 9 -124 9 -206 -1z"
       id="path332"
       style="fill:#66cccc" />
    <path
       d="M3485 3111 c-40 -10 -106 -53 -151 -97 -53 -54 -125 -167 -110 -176 11 -8 360 -2 475 8 l63 6 -4 51 c-6 71 -45 146 -94 179 -42 30 -125 43 -179 29z"
       id="path334"
       style="fill:#33cc00" />
    <path
       d="M5640 2955 c-220 -24 -661 -64 -778 -71 l-113 -7 -102 -77 c-267 -201 -508 -311 -822 -375 -126 -26 -138 -26 -395 -22 -290 5 -337 12 -566 87 -109 36 -329 138 -414 193 l-54 35 -56 -20 c-30 -11 -101 -42 -157 -69 -196 -96 -235 -193 -103 -260 88 -45 320 -118 483 -152 151 -32 154 -32 447 -32 268 0 304 3 397 23 55 12 161 29 235 37 222 26 301 48 653 185 390 151 447 165 660 164 156 0 163 -1 277 -37 65 -20 123 -37 128 -37 6 0 38 23 71 50 127 106 283 197 399 235 30 10 57 19 59 21 2 1 -6 16 -18 33 -12 17 -28 47 -35 68 -16 46 -20 46 -196 28z"
       id="path336"
       style="fill:#66cc99" />
    <path
       d="M2075 2889 c-99 -13 -248 -50 -570 -139 -154 -42 -310 -83 -347 -91 -38 -7 -68 -16 -68 -20 0 -11 90 -21 185 -20 50 0 169 14 266 30 303 51 439 64 590 58 131 -6 140 -5 226 23 96 31 251 65 346 76 31 4 57 10 57 14 0 7 -102 39 -190 60 -62 15 -409 21 -495 9z"
       id="path338"
       style="fill:#33cccc" />
    <path
       d="M6186 2865 c-49 -8 -123 -24 -165 -36 -42 -11 -109 -30 -150 -40 -77 -21 -186 -71 -261 -122 -75 -50 -210 -152 -210 -158 0 -11 108 -47 220 -74 209 -51 549 -52 766 -1 142 33 326 96 434 149 103 50 240 129 240 138 0 4 -42 9 -92 11 -80 4 -110 12 -217 53 -212 81 -398 107 -565 80z"
       id="path340"
       style="fill:#66cc99" />
    <path
       d="M4410 2854 c-238 -16 -646 -32 -1125 -44 -378 -10 -585 -25 -730 -55 -122 -26 -124 -27 -77 -57 65 -43 301 -155 387 -183 535 -174 1094 -114 1568 171 97 58 246 165 247 177 0 9 -33 8 -270 -9z"
       id="path342"
       style="fill:#66ffcc" />
    <path
       d="M7295 2779 c-90 -13 -144 -34 -231 -90 -162 -104 -367 -197 -536 -245 -179 -50 -275 -65 -470 -71 -224 -7 -371 10 -548 64 -63 20 -122 37 -130 40 -8 2 -61 -36 -120 -87 -183 -159 -373 -314 -442 -360 -37 -25 -68 -48 -68 -51 -1 -15 343 41 560 91 310 72 309 72 365 26 26 -21 29 -29 27 -70 -3 -70 1 -71 343 -71 l290 0 125 32 c320 83 555 224 801 480 96 100 229 269 229 290 0 21 -112 34 -195 22z"
       id="path344"
       style="fill:#33cc99" />
    <path
       d="M7587 2720 c-67 -12 -116 -47 -181 -129 -31 -38 -81 -97 -112 -130 -31 -34 -54 -61 -50 -61 3 0 28 9 56 20 123 49 179 55 475 55 286 0 316 -3 532 -47 57 -12 106 -18 110 -15 8 8 10 243 3 251 -3 3 -51 -4 -105 -15 -130 -27 -208 -21 -395 30 -155 43 -256 55 -333 41z"
       id="path346"
       style="fill:#66cccc" />
    <path
       d="M80 2597 c0 -92 2 -106 18 -111 58 -17 366 -81 467 -97 208 -33 392 -22 616 36 200 52 355 63 597 41 100 -9 186 -15 191 -12 5 3 11 19 14 36 9 40 79 108 156 149 33 18 61 35 61 38 0 14 -370 -6 -478 -26 -271 -49 -477 -67 -567 -50 -33 6 -195 14 -360 19 -273 7 -315 10 -470 39 -93 17 -187 34 -207 37 l-38 7 0 -106z"
       id="path348"
       style="fill:#66cccc" />
    <path
       d="M4804 2565 c-107 -19 -231 -58 -435 -136 -340 -130 -367 -139 -481 -169 -62 -16 -128 -30 -147 -30 -28 0 -32 -3 -26 -17 4 -10 13 -47 20 -82 31 -155 108 -181 530 -180 265 0 389 10 441 37 22 11 78 48 124 83 139 102 490 398 498 419 4 11 -161 60 -258 76 -102 17 -171 17 -266 -1z"
       id="path350"
       style="fill:#33cc99" />
    <path
       d="M82 2378 l3 -83 235 -6 c264 -7 308 -10 575 -45 195 -25 388 -60 626 -113 160 -36 170 -37 269 -12 123 30 378 140 387 167 2 5 -27 23 -64 39 -38 16 -86 46 -108 66 l-40 36 -175 13 c-252 18 -367 11 -594 -39 -383 -84 -479 -80 -992 34 -61 14 -114 25 -118 25 -4 0 -6 -37 -4 -82z"
       id="path352"
       style="fill:#33cccc" />
    <path
       d="M7520 2445 c-182 -30 -307 -81 -425 -171 -234 -178 -430 -271 -683 -323 -196 -41 -454 -45 -665 -11 -54 8 -73 8 -95 -3 -15 -8 -53 -22 -85 -32 -136 -42 -191 -193 -103 -281 17 -17 50 -37 71 -43 55 -16 242 -45 486 -76 l207 -27 85 51 c420 253 910 361 1506 331 119 -6 272 -18 341 -27 69 -9 134 -16 146 -16 11 0 45 18 74 39 l53 38 -6 239 c-3 132 -8 241 -10 244 -10 9 -323 63 -424 73 -143 13 -380 11 -473 -5z"
       id="path354"
       style="fill:#33cccc" />
    <path
       d="M2085 2204 c-134 -66 -282 -119 -370 -130 -39 -5 -86 3 -220 35 -434 103 -817 151 -1202 151 l-213 0 0 -99 0 -99 27 -6 c16 -3 62 -8 103 -11 165 -15 335 -50 645 -135 214 -59 381 -99 495 -119 370 -65 513 -52 950 89 328 106 373 115 545 114 143 0 238 -13 445 -59 232 -53 339 -74 420 -86 103 -14 373 -15 492 0 83 10 296 55 328 69 8 4 -133 9 -315 12 -354 6 -360 7 -439 63 -35 25 -65 89 -66 140 0 45 -36 87 -74 87 -14 0 -71 -9 -128 -19 -221 -42 -263 -46 -498 -46 -266 1 -366 13 -595 72 -77 19 -153 37 -170 39 -21 2 -68 -15 -160 -62z"
       id="path356"
       style="fill:#33cc99" />
    <path
       d="M5420 2069 c-168 -42 -466 -98 -605 -113 -82 -10 -167 -28 -270 -59 -238 -71 -310 -81 -600 -80 -277 0 -208 -9 -691 97 -211 47 -332 60 -474 53 -124 -6 -184 -20 -411 -93 -348 -112 -396 -124 -538 -134 -259 -18 -493 12 -836 105 -71 19 -188 51 -260 70 -227 62 -435 100 -580 107 l-70 3 -3 -61 -3 -61 143 -5 c215 -8 356 -45 678 -178 362 -149 408 -154 806 -75 205 41 379 52 604 38 112 -7 151 -5 230 9 125 23 347 34 430 20 36 -6 119 -23 185 -37 96 -22 155 -28 300 -32 208 -6 331 6 880 84 225 32 892 21 1025 -17 26 -8 28 -6 34 32 8 49 36 106 68 135 12 12 62 38 109 58 63 26 89 43 98 61 16 37 14 52 -14 79 -32 33 -85 32 -235 -6z"
       id="path358"
       style="fill:#66cccc" />
    <path
       d="M103 1874 c-22 -5 -23 -10 -23 -89 l0 -83 53 -11 c28 -7 216 -54 417 -106 504 -131 612 -149 860 -149 172 0 209 3 315 26 179 38 638 181 618 192 -24 13 -358 12 -448 -3 -44 -7 -147 -26 -230 -43 -128 -27 -172 -31 -305 -32 -153 0 -156 0 -255 35 -55 20 -165 63 -245 96 -276 115 -451 161 -630 168 -58 2 -115 1 -127 -1z"
       id="path360"
       style="fill:#33cccc" />
    <path
       d="M7440 1840 c-250 -20 -524 -76 -730 -150 -47 -17 -152 -64 -235 -106 -147 -73 -193 -100 -184 -108 6 -5 443 -51 769 -81 379 -34 1023 -78 1275 -87 l90 -3 0 222 c0 138 -4 226 -11 233 -12 12 -83 26 -229 45 -273 35 -563 49 -745 35z"
       id="path362"
       style="fill:#66cccc" />
    <path
       d="M8384 1826 l-29 -25 32 -1 c36 0 48 12 35 36 -8 14 -12 13 -38 -10z"
       id="path364"
       style="fill:#00cc66" />
    <path
       d="M4470 1715 c-212 -25 -284 -34 -465 -60 -136 -20 -241 -27 -428 -32 -136 -3 -244 -9 -240 -14 17 -16 285 -99 369 -114 162 -28 274 -19 614 49 263 53 322 59 503 53 145 -4 179 -9 327 -45 275 -68 327 -77 445 -76 95 0 206 17 193 29 -2 3 -53 12 -113 21 -156 23 -208 45 -251 105 -39 54 -27 50 -219 75 -168 21 -587 27 -735 9z"
       id="path366"
       style="fill:#33cccc" />
    <path
       d="M2725 1694 c-165 -24 -291 -53 -485 -114 -509 -159 -680 -190 -944 -170 -202 15 -318 37 -596 110 -203 53 -536 137 -577 145 -31 6 -32 5 -38 -37 -3 -24 -5 -70 -3 -102 l3 -59 175 -33 c96 -18 263 -51 370 -74 517 -109 741 -137 995 -124 252 14 491 10 730 -10 297 -25 504 -13 942 54 429 66 750 66 989 0 39 -10 156 -46 260 -79 258 -82 367 -108 511 -122 207 -21 390 4 898 121 304 70 521 91 1120 111 193 6 356 14 363 18 8 5 -21 11 -65 14 -273 22 -364 30 -593 53 -140 13 -352 36 -470 50 -118 13 -268 31 -333 38 -113 14 -120 13 -175 -6 -73 -27 -240 -35 -354 -18 -46 6 -155 29 -243 50 -374 91 -450 91 -865 10 -298 -58 -495 -73 -640 -51 -65 10 -223 61 -495 157 -38 14 -106 34 -150 44 -78 19 -270 33 -330 24z"
       id="path368"
       style="fill:#33cccc" />
    <path
       d="M82 1348 c3 -82 3 -82 33 -90 195 -48 363 -91 420 -107 374 -103 432 -113 573 -92 76 11 265 65 397 114 l60 22 -155 12 c-212 17 -367 42 -770 124 -425 87 -486 98 -528 99 l-33 0 3 -82z"
       id="path370"
       style="fill:#00cc99" />
    <path
       d="M7585 1315 c-14 -5 -353 -23 -645 -35 -520 -21 -711 -42 -1000 -110 -469 -110 -649 -135 -861 -119 -146 10 -242 31 -464 101 -104 33 -218 68 -253 79 -262 83 -559 95 -954 39 -267 -37 -264 -36 -371 -101 -113 -69 -216 -116 -337 -154 -163 -51 -230 -60 -445 -59 -203 0 -293 9 -507 53 -89 18 -252 42 -384 56 -45 5 -90 1 -168 -15 -89 -19 -129 -21 -234 -17 -113 4 -144 10 -287 51 -199 59 -542 146 -572 146 -23 0 -23 -2 -23 -114 l0 -114 87 -6 c331 -24 432 -38 874 -120 491 -91 545 -98 854 -103 226 -4 302 -2 390 11 129 19 353 74 590 145 423 126 605 161 835 161 189 0 276 -14 467 -74 370 -117 584 -148 1026 -147 385 0 556 19 1063 116 657 127 842 150 1174 149 166 0 273 -6 365 -18 229 -31 267 -35 425 -42 201 -9 200 -10 200 94 0 107 -6 113 -111 118 -46 3 -213 11 -371 19 -285 15 -344 17 -363 10z"
       id="path372"
       style="fill:#00cc99" />
    <path
       d="M1685 1196 c-113 -29 -286 -83 -303 -94 -8 -6 27 -14 90 -21 57 -7 199 -30 317 -52 118 -21 264 -44 325 -50 214 -22 454 12 669 94 74 29 232 108 263 133 18 14 17 15 -11 10 -62 -12 -305 -26 -430 -26 -71 0 -215 7 -320 15 -291 22 -489 19 -600 -9z"
       id="path374"
       style="fill:#009999" />
    <path
       d="M7315 1114 c-22 -2 -98 -9 -170 -15 -165 -13 -440 -56 -765 -119 -601 -116 -769 -135 -1180 -135 -309 0 -422 7 -619 41 -81 13 -116 12 -75 -2 10 -4 48 -19 84 -34 176 -75 356 -141 455 -166 104 -27 122 -29 315 -29 159 0 224 4 290 18 146 31 369 87 510 127 428 124 593 151 915 150 227 0 376 -11 720 -54 232 -29 401 -44 535 -48 l95 -3 0 100 0 100 -205 6 c-113 3 -236 12 -275 18 -189 33 -518 56 -630 45z"
       id="path376"
       style="fill:#009999" />
    <path
       d="M3445 1046 c-141 -26 -274 -58 -460 -113 -563 -164 -712 -193 -1021 -193 -265 0 -506 31 -1086 139 -273 51 -495 80 -665 88 l-133 6 0 -120 0 -119 67 -13 c72 -14 246 -66 503 -151 454 -149 694 -187 1109 -177 200 5 274 11 396 32 283 49 509 119 856 266 250 106 428 145 609 136 160 -8 247 -44 550 -222 91 -54 198 -113 237 -131 226 -103 519 -120 850 -49 131 29 274 70 548 159 499 161 712 198 1019 176 125 -8 409 -50 536 -79 25 -5 128 -25 230 -43 174 -30 199 -32 420 -33 146 0 268 5 322 14 l87 13 6 61 c4 34 5 76 3 92 -3 28 -6 30 -53 32 -159 8 -378 29 -670 65 -279 34 -368 41 -578 45 -161 4 -276 1 -330 -6 -121 -18 -364 -73 -597 -137 -501 -136 -614 -158 -840 -158 -260 -1 -398 37 -862 235 -390 166 -505 197 -758 204 -143 4 -182 2 -295 -19z"
       id="path378"
       style="fill:#00cc99" />
    <path
       d="M3490 798 c-146 -11 -255 -44 -592 -181 -102 -42 -198 -79 -212 -83 -63 -15 -20 -19 196 -16 340 5 561 -21 1038 -124 629 -136 760 -159 1003 -175 292 -20 472 2 907 111 524 131 645 136 1285 55 393 -50 522 -59 740 -51 181 5 505 39 553 57 21 8 22 14 22 110 l0 102 -67 -6 c-421 -39 -504 -34 -1038 63 -373 69 -506 83 -690 76 -234 -8 -402 -42 -720 -146 -594 -193 -758 -230 -1035 -230 -171 0 -298 18 -411 60 -85 31 -224 102 -296 151 -23 16 -44 29 -46 29 -3 0 -34 17 -69 39 -95 57 -216 117 -278 136 -74 22 -186 31 -290 23z"
       id="path380"
       style="fill:#3399cc" />
    <path
       d="M84 687 c-2 -7 -3 -62 -2 -123 l3 -109 105 -12 c58 -6 227 -32 375 -57 337 -58 505 -76 701 -76 142 0 361 22 391 39 8 4 -68 13 -167 19 -304 21 -485 58 -850 177 -295 96 -496 155 -527 155 -13 0 -26 -6 -29 -13z"
       id="path382"
       style="fill:#3399cc" />
    <path
       d="M2540 470 c-58 -10 -136 -25 -175 -33 -127 -28 -248 -47 -398 -62 -87 -8 -197 -27 -270 -46 -118 -31 -131 -32 -375 -36 -274 -6 -375 1 -617 43 -245 42 -496 81 -563 89 l-62 7 0 -69 0 -69 182 -12 c101 -7 275 -24 388 -38 113 -13 259 -31 325 -39 245 -29 390 -37 589 -32 224 6 347 23 711 103 395 85 532 104 759 104 323 -1 646 -65 1143 -227 l238 -78 1180 -3 c1219 -3 2185 5 2185 18 0 4 -26 11 -57 14 -32 4 -96 14 -143 21 -226 38 -683 88 -955 105 -93 6 -198 13 -232 15 -34 3 -221 5 -417 5 -271 0 -372 -3 -428 -14 -177 -36 -238 -41 -488 -41 -323 0 -416 14 -1112 164 -527 114 -594 123 -978 127 -283 3 -339 1 -430 -16z"
       id="path384"
       style="fill:#009999" />
    <path
       d="M6235 393 c-146 -22 -446 -99 -415 -106 14 -3 198 -10 410 -16 391 -10 762 -38 1076 -81 82 -11 181 -25 219 -30 39 -5 150 -23 247 -39 279 -47 372 -55 507 -41 75 7 121 17 131 26 12 12 15 40 15 129 0 63 -4 117 -8 121 -3 4 -39 2 -79 -5 -334 -55 -811 -54 -1196 4 -367 54 -704 68 -907 38z"
       id="path386"
       style="fill:#3399cc" />
    <path
       d="M2945 354 c-213 -15 -315 -30 -565 -84 -467 -101 -660 -130 -870 -130 -126 0 -427 24 -625 49 -329 42 -524 62 -662 68 l-143 6 0 -96 0 -97 2122 0 c1206 0 2118 4 2113 9 -11 10 -351 116 -495 155 -333 89 -666 135 -875 120z"
       id="path388"
       style="fill:#3399cc" />
  </g>
</svg>
