<?xml version="1.0" standalone="no"?>
<!DOCTYPE svg PUBLIC "-//W3C//DTD SVG 20010904//EN"
 "http://www.w3.org/TR/2001/REC-SVG-20010904/DTD/svg10.dtd">
<svg version="1.0" xmlns="http://www.w3.org/2000/svg"
 width="1024.000000pt" height="1024.000000pt" viewBox="0 0 1024.000000 1024.000000"
 preserveAspectRatio="xMidYMid meet">
<metadata>
Created by potrace 1.14, written by Peter Selinger 2001-2017
</metadata>
<g transform="translate(0.000000,1024.000000) scale(0.100000,-0.100000)"
fill="#000000" stroke="none">
<path d="M2773 9850 c-50 -21 -50 -16 -62 -640 -7 -321 -14 -586 -16 -588 -2
-3 -18 1 -36 7 -56 19 -142 14 -174 -11 l-27 -21 4 -126 c4 -118 3 -128 -17
-152 -21 -26 -22 -39 -28 -314 -4 -159 -7 -348 -7 -422 0 -98 -3 -135 -12
-137 -143 -42 -240 -76 -311 -109 -48 -22 -89 -38 -90 -36 -19 24 -47 80 -47
93 0 8 -18 27 -40 41 -46 29 -57 47 -79 128 -20 74 -56 107 -96 89 -20 -9 -25
-19 -25 -49 0 -21 4 -44 9 -52 6 -9 5 -23 -1 -37 -16 -34 13 -103 62 -148 27
-25 41 -47 45 -73 4 -21 10 -48 15 -60 8 -20 1 -28 -68 -76 -158 -112 -289
-241 -405 -399 -44 -61 -52 -67 -76 -62 -14 4 -33 12 -41 18 -35 26 -80 46
-105 46 -20 0 -47 19 -104 75 -88 86 -128 102 -155 64 -19 -28 -20 -62 -3 -97
8 -15 20 -40 28 -57 10 -22 35 -41 99 -72 46 -23 99 -58 116 -78 18 -19 37
-35 42 -35 4 0 18 -9 30 -20 l22 -21 -26 -51 c-72 -142 -134 -354 -159 -542
-8 -61 -19 -113 -26 -117 -7 -4 -40 -6 -73 -4 -44 3 -68 0 -85 -12 -21 -14
-31 -14 -80 -2 -88 22 -158 17 -189 -14 -22 -23 -24 -29 -14 -51 6 -14 9 -32
6 -39 -2 -7 5 -22 16 -32 30 -27 115 -31 185 -10 52 17 59 17 83 3 16 -9 52
-16 86 -17 33 0 63 -4 68 -9 5 -5 13 -49 18 -98 20 -183 78 -400 148 -554 l30
-64 -44 -33 c-23 -18 -46 -33 -50 -33 -3 0 -23 -15 -44 -34 -25 -22 -55 -38
-89 -45 -63 -13 -98 -31 -134 -66 -33 -34 -34 -60 -4 -80 32 -21 80 -5 149 48
60 46 114 74 125 63 15 -14 -24 -57 -77 -85 -73 -39 -122 -93 -118 -129 2 -21
9 -28 32 -30 44 -5 83 16 128 72 55 67 66 76 100 76 15 0 36 8 46 18 10 10 33
30 53 44 l34 27 60 -82 c107 -146 267 -296 469 -440 19 -13 19 -14 0 -48 -10
-19 -25 -41 -32 -50 -7 -9 -15 -34 -18 -55 -3 -27 -16 -51 -43 -79 -110 -114
-125 -215 -31 -215 30 0 75 51 94 105 9 25 23 65 32 90 11 31 25 50 45 60 16
9 29 20 29 25 0 7 42 75 54 87 2 2 41 -15 87 -36 46 -22 136 -57 199 -77 63
-20 124 -40 135 -45 20 -8 20 -8 -1 -14 -20 -6 -21 -15 -26 -155 -3 -81 -10
-156 -16 -166 -7 -12 -7 -27 0 -43 10 -27 10 -356 -1 -1041 l-6 -394 -125 -23
c-69 -12 -126 -22 -127 -23 -2 0 -3 -11 -3 -24 0 -26 17 -22 -195 -42 l-65 -6
0 75 c0 107 0 107 -79 107 -36 0 -90 -3 -118 -6 l-53 -7 0 -83 c0 -79 -1 -84
-22 -88 -13 -3 -55 -12 -95 -21 -40 -8 -74 -15 -77 -15 -4 0 -6 72 -6 160 l0
160 29 0 c16 0 43 3 60 6 32 7 32 7 29 63 l-3 56 -272 3 c-262 2 -273 3 -273
22 0 15 -8 19 -38 22 l-37 3 -3 56 -3 57 64 11 c35 6 91 11 124 11 53 0 63 4
94 31 19 17 53 40 76 50 49 23 57 41 55 129 -3 122 -26 176 -90 214 -11 6 -31
19 -45 29 -24 17 -34 18 -114 8 -48 -6 -107 -11 -130 -11 l-43 0 0 73 c0 40 4
77 9 83 6 5 11 32 13 59 l3 50 46 -3 c37 -3 51 1 76 22 26 22 41 26 92 26 54
0 61 2 61 20 0 11 11 27 26 36 34 23 54 65 54 115 0 35 -6 47 -40 81 -22 22
-40 45 -40 50 0 5 18 26 40 47 36 34 40 43 40 86 0 43 -4 52 -41 88 l-42 39
41 37 c53 49 62 93 32 156 -26 54 -37 61 -118 70 -42 5 -66 13 -75 24 -21 31
-51 40 -117 35 -36 -3 -74 -7 -85 -9 -34 -7 -55 -66 -55 -156 0 -79 0 -80 -22
-73 -65 20 -68 23 -68 60 0 45 -42 90 -94 100 -26 4 -40 14 -46 29 -23 61
-127 88 -170 45 -11 -11 -20 -26 -20 -32 0 -7 -14 -21 -30 -30 -17 -9 -30 -24
-30 -31 0 -9 -14 -17 -35 -21 -49 -10 -58 -33 -50 -130 l6 -81 -44 -28 c-48
-30 -71 -69 -65 -109 3 -23 5 -23 181 -32 147 -7 177 -11 177 -24 0 -18 -29
-41 -52 -42 -24 0 -26 -80 -3 -80 18 0 19 14 -5 -143 -26 -170 -28 -177 -45
-177 -22 0 -21 -96 1 -104 33 -13 0 -26 -67 -26 l-69 0 -2 -65 c-1 -36 -2 -75
-2 -87 -1 -21 5 -24 54 -28 41 -4 55 -9 53 -20 -1 -8 -7 -45 -13 -83 l-12 -67
-98 0 -97 0 -5 -102 c-3 -57 -4 -106 -1 -110 2 -5 40 -8 85 -8 l81 0 -7 -31
c-3 -17 -6 -44 -6 -60 0 -26 -4 -29 -40 -35 l-40 -7 0 -53 0 -54 45 0 45 0 0
-104 c0 -145 -5 -166 -41 -166 l-29 0 0 -115 c0 -70 -4 -115 -10 -115 -6 0
-10 63 -10 170 l0 170 -90 0 c-53 0 -90 -4 -90 -10 0 -5 15 -10 34 -10 18 0
54 -3 80 -6 l46 -7 0 -52 c0 -28 -3 -99 -6 -157 l-7 -106 -73 -7 c-56 -5 -74
-10 -74 -22 0 -11 8 -14 38 -9 82 12 723 78 726 75 2 -2 1 -30 -2 -62 l-5 -58
-25 37 -25 37 -90 -7 c-49 -3 -152 -6 -227 -6 l-137 0 -58 -87 c-46 -70 -59
-96 -59 -128 -2 -86 17 -542 23 -580 l6 -40 120 -17 c95 -14 168 -17 347 -15
207 4 230 6 249 23 21 19 22 23 15 264 -3 135 -7 335 -7 445 l-1 200 103 6
c57 4 168 10 247 14 136 7 144 8 152 30 7 19 23 25 105 40 53 10 98 21 100 25
2 4 7 44 11 88 l7 82 71 0 c39 0 80 3 92 6 20 5 21 1 26 -86 3 -50 7 -93 9
-95 8 -8 284 18 297 28 6 5 12 18 12 28 0 18 22 24 145 44 22 3 50 9 63 12 21
5 22 3 22 -68 0 -41 -3 -145 -7 -233 l-6 -159 -77 7 c-88 7 -89 7 -143 -75
-46 -69 -50 -122 -12 -167 25 -30 25 -31 25 -235 0 -115 4 -208 9 -212 5 -3
47 -10 93 -17 80 -10 243 -8 1148 21 l205 6 7 235 c11 317 11 318 -4 375 -13
49 -14 50 -58 57 -25 3 -81 7 -126 7 l-81 1 -6 248 c-3 136 -4 248 -4 248 6 5
371 43 374 40 3 -2 -1 -14 -7 -26 -9 -17 -12 -185 -11 -650 l2 -628 -63 -6
c-35 -3 -290 -15 -568 -26 -819 -34 -1083 -50 -1892 -121 -290 -26 -235 -29
-748 41 -408 55 -400 55 -400 39 0 -11 103 -28 448 -72 l447 -59 280 26 c491
45 782 67 1120 86 169 9 1305 60 1351 60 19 0 22 -7 26 -54 3 -30 11 -62 18
-71 21 -25 78 -14 148 29 33 20 72 36 88 36 l28 0 -22 -16 c-30 -21 -32 -84
-2 -84 11 0 20 -7 20 -15 0 -10 -16 -15 -62 -17 -63 -3 -63 -3 -63 -33 l0 -30
75 -3 c52 -2 77 -7 83 -17 11 -20 67 -20 67 0 0 18 -9 18 202 0 245 -21 255
-23 261 -44 4 -16 -131 -38 -1647 -270 -908 -139 -1669 -256 -1691 -260 -88
-18 116 -11 238 8 67 11 858 133 1757 272 l1635 252 215 6 c203 6 218 8 275
33 49 22 81 27 175 32 63 3 232 19 375 35 143 16 342 37 442 47 l182 17 44
-40 c24 -23 58 -44 75 -48 18 -3 34 -10 36 -14 3 -4 -93 -24 -212 -44 -119
-20 -269 -46 -332 -57 -113 -20 -330 -58 -600 -105 -377 -65 -504 -87 -605
-105 -60 -11 -148 -26 -195 -34 -47 -8 -292 -51 -545 -95 -253 -44 -570 -99
-705 -121 -135 -23 -247 -44 -249 -46 -28 -27 483 59 3457 576 2881 501 3521
610 3589 610 7 0 13 7 13 16 0 21 -75 14 -340 -32 -107 -19 -205 -34 -217 -34
-22 0 -23 4 -23 70 l0 70 60 0 60 0 0 70 0 70 -35 0 c-34 0 -35 1 -35 40 l0
40 105 0 105 0 0 40 c0 49 23 64 46 31 8 -11 23 -21 33 -21 18 0 34 -27 47
-83 3 -15 19 -38 35 -52 49 -41 159 -62 159 -30 0 10 -10 15 -33 15 -19 0 -54
10 -78 23 -36 19 -47 33 -62 73 -21 56 -34 73 -62 84 -19 7 -19 8 5 13 14 3
71 11 128 18 74 8 102 15 102 25 0 9 -8 12 -27 8 -16 -2 -168 -20 -339 -39
-171 -18 -321 -39 -335 -44 -22 -10 -274 -47 -1254 -181 -502 -69 -972 -139
-1020 -151 -63 -17 -127 -53 -184 -105 -65 -59 -90 -97 -124 -193 -15 -41 -34
-85 -42 -98 -32 -49 -55 -53 -604 -109 -289 -29 -591 -60 -671 -70 -174 -20
-433 -15 -520 9 -31 9 -88 34 -128 57 -116 67 -362 177 -424 190 -32 6 -93 14
-137 18 -52 5 -78 11 -73 17 5 7 74 8 212 2 113 -5 405 -6 650 -3 444 5 445 5
463 27 15 19 17 40 15 163 -3 135 -4 141 -23 138 -96 -14 -447 -21 -735 -15
l-345 8 -3 35 c-4 45 43 134 65 126 8 -3 67 -6 132 -6 l117 0 17 -29 c9 -16
37 -39 62 -51 60 -29 113 -21 165 26 37 34 38 34 136 34 l99 0 40 79 40 78
165 7 c323 14 1082 64 1090 73 5 4 18 46 31 93 12 47 23 86 23 87 1 1 123 9
272 18 148 8 314 20 369 26 217 21 287 22 324 2 57 -30 75 -78 78 -212 1 -63
7 -119 12 -124 15 -15 19 -15 591 52 289 33 584 67 655 76 754 87 1093 125
1121 125 18 0 36 5 39 11 16 25 83 31 -1175 -112 -481 -54 -949 -108 -1039
-119 -91 -11 -168 -17 -172 -13 -4 5 -9 60 -11 123 -4 132 -22 181 -79 215
-43 25 -112 25 -464 -3 -143 -12 -317 -24 -387 -28 l-126 -7 24 83 c13 46 25
84 27 86 1 1 340 21 752 44 1317 72 2183 119 2423 131 150 8 232 16 232 23 0
15 -39 13 -1200 -49 -553 -30 -1277 -69 -1609 -87 -534 -29 -606 -35 -621 -50
-15 -16 -84 -18 -920 -28 -798 -10 -981 -9 -1547 7 -630 17 -642 18 -647 38
-11 41 -5 83 19 130 13 27 21 52 16 55 -8 5 5 390 14 418 3 6 15 12 27 13 l23
0 -22 16 c-37 25 -28 36 22 29 59 -9 58 6 -2 27 l-48 17 55 -6 c30 -3 66 -8
80 -11 46 -10 7 14 -50 32 -30 9 -61 19 -69 21 -9 3 -11 8 -5 14 6 6 46 0 104
-15 109 -27 101 -10 -13 25 -40 13 -76 27 -81 31 -23 21 9 18 109 -11 101 -28
145 -36 134 -25 -3 2 -59 23 -125 46 -134 47 -128 44 -120 57 3 5 63 -7 138
-28 174 -49 195 -54 183 -42 -5 5 -67 29 -137 52 -71 23 -128 47 -128 51 0 12
-13 15 166 -36 87 -25 163 -45 168 -45 25 1 -26 22 -143 61 -79 27 -119 44
-110 50 7 4 20 4 28 -1 23 -12 303 -91 308 -87 2 2 -36 19 -84 37 -136 52
-159 62 -146 67 6 2 70 -12 142 -32 151 -42 197 -42 71 0 -47 16 -79 30 -72
33 10 3 154 -26 210 -44 6 -2 12 1 12 6 0 6 -6 10 -12 10 -7 1 -26 7 -43 16
-28 13 -26 14 46 9 42 -2 89 -10 105 -16 l29 -11 -50 -18 c-172 -60 -322 -155
-456 -290 -147 -148 -262 -337 -245 -404 9 -37 54 -46 226 -46 l158 0 89 -55
c50 -30 95 -55 101 -55 30 0 6 32 -48 66 -33 20 -60 39 -60 42 0 3 35 2 78 -2
96 -7 142 5 180 49 40 44 236 637 230 691 -3 29 0 35 16 39 12 3 41 10 66 15
57 14 498 26 487 14 -5 -5 -112 -11 -238 -14 l-229 -5 -30 -30 c-24 -24 -51
-91 -141 -344 -60 -173 -113 -327 -116 -342 -4 -21 1 -34 20 -53 26 -26 27
-26 194 -26 l168 0 27 -60 c14 -33 31 -60 37 -60 16 0 13 19 -9 69 -11 24 -20
45 -20 47 0 2 116 4 258 4 293 0 304 2 357 78 l30 44 9 299 c10 345 16 320
-88 370 -98 46 -143 51 -440 47 -262 -4 -274 -6 -356 -32 -127 -41 -123 -40
-197 -10 l-68 29 -240 -1 c-243 -2 -264 -4 -401 -49 -19 -6 -21 -3 -20 23 l1
31 80 5 c44 3 265 10 490 16 226 6 585 15 799 21 214 5 402 7 418 4 16 -4 41
-17 57 -31 24 -20 32 -22 57 -12 22 8 179 4 614 -16 545 -25 3845 -156 3918
-156 20 0 32 5 32 14 0 10 -44 15 -212 20 -210 7 -1012 38 -2493 96 -418 17
-962 39 -1210 51 -247 11 -502 22 -565 23 -88 2 -123 7 -150 21 -33 17 -59 18
-415 11 -209 -3 -591 -13 -850 -21 -626 -19 -579 -20 -595 9 -15 29 1 78 53
157 l32 49 66 0 c53 0 69 4 84 20 10 11 28 20 39 20 20 -1 20 -1 3 -11 -40
-23 -63 -150 -37 -199 20 -38 66 -40 515 -25 237 8 480 15 542 15 102 0 114 2
139 23 52 45 40 173 -20 212 -23 15 -57 15 -468 1 -454 -16 -574 -19 -567 -12
2 2 242 12 532 22 419 14 537 15 573 6 30 -8 227 -16 582 -22 674 -13 854 -21
1382 -64 595 -49 1944 -157 2495 -200 309 -24 536 -38 542 -32 16 16 -21 24
-144 29 -76 4 -219 14 -318 22 -99 8 -661 53 -1250 100 -588 47 -1203 96
-1365 110 -162 13 -367 29 -455 35 -180 12 -907 30 -1206 30 -148 0 -208 4
-248 16 -49 14 -102 14 -655 -6 -560 -20 -602 -23 -622 -41 -13 -13 -35 -19
-64 -19 l-44 0 44 46 c138 142 294 211 670 298 490 113 977 139 1430 76 80
-11 366 -40 635 -65 270 -25 585 -54 700 -65 116 -11 406 -38 645 -60 962 -89
1416 -148 1753 -229 99 -24 406 -124 480 -156 12 -5 17 -3 17 8 0 8 -5 17 -10
19 -6 2 -14 179 -20 483 -20 916 -29 1238 -37 1246 -11 10 -147 62 -420 160
-206 73 -284 92 -297 71 -3 -5 -133 -85 -288 -177 -156 -93 -285 -170 -287
-172 -5 -4 27 -1028 35 -1097 4 -44 3 -48 -13 -42 -10 4 -61 17 -115 29 l-97
22 -5 60 c-3 33 -13 220 -21 415 -17 404 -22 460 -37 460 -7 0 -66 -32 -132
-72 -334 -197 -408 -240 -410 -236 -2 1 -7 48 -10 104 l-7 101 313 178 c172
98 333 190 358 205 25 15 88 51 140 80 176 98 424 250 408 250 -21 0 -297
-154 -1163 -650 -407 -232 -775 -442 -818 -466 l-77 -43 -45 16 c-25 8 -47 18
-50 23 -2 4 104 74 238 156 133 82 610 374 1060 650 l819 502 111 -38 c62 -21
220 -77 352 -123 526 -187 525 -187 525 -173 0 15 -10 19 -145 66 -49 18 -198
70 -330 117 -132 47 -301 107 -377 133 l-136 49 -79 -48 c-43 -27 -458 -281
-923 -566 -465 -285 -918 -562 -1006 -617 l-162 -98 -78 0 c-48 0 -74 4 -68 9
5 5 214 133 464 284 250 151 718 433 1040 627 322 194 636 384 698 421 l113
67 42 -13 c23 -8 238 -73 477 -145 239 -72 443 -133 452 -136 12 -4 18 0 18
10 0 9 -7 16 -16 16 -10 0 -14 6 -10 18 12 40 18 220 8 226 -6 3 -113 -7 -237
-24 -125 -17 -228 -30 -230 -28 -1 2 -6 13 -9 26 -5 16 -3 22 8 22 18 0 407
48 454 55 41 7 41 23 0 27 -27 2 -33 8 -40 36 -11 42 -23 46 -89 29 -52 -13
-54 -14 -57 -50 -2 -20 -4 -37 -5 -38 -1 0 -63 -9 -137 -18 -135 -18 -135 -18
-163 3 -25 18 -41 21 -110 18 -115 -3 -151 -13 -155 -40 -4 -27 -1 -27 -102 3
-89 27 -120 30 -135 16 -6 -5 -75 -48 -154 -96 -101 -61 -156 -88 -185 -92
-23 -2 -250 -31 -506 -63 -256 -33 -624 -80 -818 -104 -318 -41 -357 -48 -397
-72 -52 -30 -55 -41 -19 -54 40 -16 79 -13 438 35 187 25 341 43 343 41 3 -2
8 -85 13 -183 6 -132 5 -181 -3 -189 -18 -17 -818 -496 -821 -492 -2 1 -11
156 -21 343 -9 187 -20 344 -22 349 -5 7 -82 2 -145 -10 -26 -5 -28 -3 -28 25
0 24 6 34 25 41 32 12 32 40 1 72 l-25 24 -10 334 c-10 302 -9 336 5 352 15
15 15 21 2 55 -10 26 -12 51 -7 78 4 22 8 59 8 81 1 25 9 51 21 66 24 32 39
96 40 170 0 54 -3 60 -45 108 -25 28 -45 59 -45 69 0 10 -11 29 -24 43 -12 14
-26 43 -29 64 -4 21 -13 44 -21 52 -12 12 -16 11 -31 -12 -13 -20 -15 -32 -7
-54 8 -22 6 -32 -9 -51 -11 -13 -19 -30 -19 -37 0 -8 -17 -33 -39 -57 -46 -51
-61 -78 -61 -110 0 -39 40 -160 60 -182 11 -12 23 -49 30 -89 6 -38 18 -82 26
-99 13 -23 14 -35 5 -54 -8 -16 -8 -30 -1 -43 6 -11 13 -165 17 -360 6 -313 5
-343 -10 -352 -23 -12 -24 -110 -2 -132 22 -22 19 -26 -20 -26 -23 0 -37 -6
-44 -19 -11 -19 12 -682 24 -701 3 -6 22 -10 41 -10 33 0 34 -1 34 -38 0 -45
-14 -62 -52 -62 -40 0 -51 -28 -46 -127 l3 -84 -30 5 c-17 3 -135 -5 -263 -19
-128 -14 -235 -25 -238 -25 -2 0 -4 -7 -4 -15 0 -12 -17 -15 -95 -15 l-95 0 0
31 0 32 -297 -7 c-164 -5 -301 -10 -305 -12 -5 -3 -8 -18 -8 -34 0 -22 7 -33
28 -44 23 -13 24 -15 6 -16 -78 -1 -317 -25 -464 -46 -321 -46 -654 -131 -799
-203 -153 -77 -312 -227 -376 -355 -19 -38 -35 -75 -35 -83 0 -7 9 -32 21 -55
19 -37 20 -47 10 -122 -13 -94 -27 -301 -37 -534 -7 -154 -8 -163 -28 -166
-27 -6 -360 -44 -363 -42 -1 1 -12 377 -23 836 l-22 835 -26 27 c-21 23 -24
31 -15 50 8 18 30 28 94 46 46 13 134 43 196 68 61 24 118 41 127 38 16 -6 56
-68 56 -87 0 -7 13 -21 30 -30 23 -14 34 -31 46 -75 32 -111 70 -162 122 -162
12 0 25 7 28 15 4 9 19 15 35 15 31 0 34 8 30 65 -4 39 -22 74 -71 130 -29 33
-40 55 -40 78 0 20 -13 53 -35 86 -19 29 -35 58 -35 65 0 7 30 33 68 59 142
97 294 248 433 428 25 33 27 33 55 19 16 -8 37 -22 46 -32 13 -12 27 -15 52
-11 28 4 39 0 72 -30 56 -50 114 -87 136 -87 11 0 42 7 69 16 47 16 50 19 44
43 -10 39 -51 77 -109 101 -84 35 -96 42 -116 76 -11 17 -28 34 -38 38 -25 8
-54 28 -73 51 -16 19 -15 23 13 79 75 149 138 360 161 541 l13 100 29 -2 c17
-2 48 4 70 13 36 13 45 13 90 -1 87 -26 170 -12 181 30 3 14 13 25 23 25 26 0
61 29 61 50 0 11 -11 27 -25 36 -22 14 -42 16 -130 10 -69 -5 -111 -4 -124 4
-11 6 -46 12 -78 14 -97 6 -95 3 -108 151 -13 148 -75 374 -144 528 -22 50
-27 69 -18 74 7 5 18 21 25 36 12 28 38 42 145 81 26 10 47 22 47 26 0 5 20
29 44 52 54 53 65 82 37 98 -35 18 -124 -15 -170 -64 -14 -15 -46 -33 -73 -41
-26 -7 -62 -20 -80 -28 -64 -29 -61 -30 -129 66 -80 115 -296 333 -411 416
-49 35 -88 67 -88 71 0 4 11 28 25 51 14 24 25 52 25 61 0 20 33 75 74 125 22
26 31 48 34 89 4 48 2 54 -15 54 -31 0 -62 -28 -88 -81 -14 -27 -29 -49 -34
-49 -5 0 -17 -20 -26 -44 -10 -26 -26 -48 -41 -54 -13 -6 -30 -27 -38 -45 -8
-19 -18 -37 -24 -41 -5 -3 -52 14 -103 39 -76 36 -195 78 -336 121 -10 2 -13
59 -14 236 0 128 -2 321 -5 428 -4 182 -5 196 -25 212 -20 17 -20 23 -15 305
4 158 9 341 12 405 l5 116 -28 32 c-35 39 -96 49 -160 27 l-42 -14 -3 308 c-3
305 -3 309 -26 331 -18 19 -35 23 -95 25 -39 2 -82 -1 -94 -7z m130 -19 c21
-5 42 -12 45 -16 4 -4 9 -335 12 -735 l5 -729 -25 6 c-42 11 -85 8 -149 -12
-33 -10 -64 -16 -66 -13 -7 7 23 1447 31 1470 10 32 77 45 147 29z m261 -662
l27 -21 -6 -367 c-3 -201 -8 -379 -11 -396 l-4 -30 -90 -1 -90 0 0 402 0 402
33 16 c46 23 109 21 141 -5z m-497 -574 c34 -14 35 -17 29 -53 -3 -20 -6 -77
-6 -126 0 -87 0 -88 -22 -81 -13 3 -58 9 -100 12 l-78 6 0 123 0 123 33 10
c38 12 95 6 144 -14z m388 -266 c85 2 105 -1 133 -18 l32 -21 0 -415 c0 -389
-1 -415 -17 -415 -10 0 -58 7 -108 15 -49 8 -109 15 -132 15 -23 0 -44 4 -47
8 -9 14 8 28 39 30 48 3 55 22 9 22 -40 0 -41 1 -51 45 l-10 45 51 1 c66 1
110 17 50 18 -105 2 -127 21 -117 99 l5 40 54 -5 c38 -4 67 -1 99 12 26 9 59
15 76 13 36 -6 37 -1 3 12 -18 7 -42 6 -85 -5 -71 -19 -149 -5 -149 25 0 22
-37 70 -54 70 -21 0 -46 -35 -53 -73 -7 -46 -33 -53 -115 -31 -70 18 -168 20
-197 5 -30 -16 -31 -15 -31 40 0 48 1 51 37 65 41 18 114 15 206 -7 51 -12 62
-11 110 5 43 14 69 17 129 11 60 -6 87 -3 128 10 31 10 65 15 83 11 27 -5 29
-4 13 5 -12 7 -33 8 -60 3 -22 -5 -90 -7 -151 -6 -62 1 -125 -3 -145 -10 -45
-15 -92 -12 -153 8 -48 16 -121 15 -174 -1 -20 -7 -23 -4 -23 24 0 24 6 34 29
45 49 26 106 30 161 12 66 -22 124 -22 184 -2 41 14 57 15 108 5 50 -10 68 -9
116 5 31 9 71 17 87 19 25 3 23 4 -9 6 -21 0 -56 -4 -78 -11 -31 -9 -56 -9
-112 1 -63 10 -80 10 -121 -5 -53 -17 -89 -16 -182 10 -56 15 -69 16 -118 3
-59 -15 -70 -10 -61 27 12 46 113 57 244 25 46 -12 59 -11 106 5 43 15 69 17
134 11 64 -5 92 -3 132 10 31 10 65 15 83 11 27 -5 29 -4 13 5 -12 7 -35 9
-65 4 -25 -5 -100 -9 -166 -11 -66 -1 -143 -5 -172 -9 -38 -5 -66 -2 -104 10
-51 17 -142 17 -181 0 -15 -6 -18 -2 -18 24 0 25 6 34 28 42 49 20 106 22 162
5 69 -20 123 -20 178 1 37 14 53 15 106 5 52 -10 72 -9 112 3 27 8 67 15 89
16 37 1 38 1 13 9 -18 5 -48 3 -85 -7 -49 -13 -68 -13 -126 -2 -59 11 -75 10
-121 -4 -67 -21 -77 -21 -156 4 -66 21 -140 20 -182 -2 -33 -17 -23 36 11 60
35 25 59 26 165 5 79 -16 83 -16 146 4 47 15 79 20 115 16 28 -3 95 -5 150 -5z
m-193 -554 c-1 -59 3 -105 17 -153 10 -38 17 -81 14 -95 -5 -24 -10 -27 -44
-27 -52 0 -58 27 -29 116 22 67 23 67 5 145 -15 65 -16 84 -6 106 11 25 13 25
29 9 14 -14 17 -33 14 -101z m-239 20 c32 -8 82 -15 112 -15 30 0 56 -4 59 -9
4 -5 9 -29 12 -53 6 -40 4 -45 -20 -56 -36 -16 -82 -15 -146 4 -54 16 -145 15
-183 -1 -16 -7 -18 -2 -15 56 l3 63 40 12 c54 17 71 16 138 -1z m35 -162 c50
-13 70 -14 99 -5 20 6 38 10 39 9 2 -1 -4 -24 -13 -50 -15 -46 -17 -47 -55
-47 -22 0 -65 7 -95 16 -54 16 -128 15 -180 -1 -21 -7 -23 -4 -23 28 0 41 13
53 66 66 43 10 70 8 162 -16z m-875 -20 c8 -10 22 -44 30 -76 18 -70 38 -101
73 -119 15 -7 30 -20 34 -28 4 -8 17 -35 30 -59 22 -43 22 -45 4 -58 -29 -21
-42 -16 -63 25 -11 21 -27 44 -35 51 -9 8 -16 24 -16 37 0 35 -18 74 -52 112
-17 20 -37 50 -44 68 -23 54 4 85 39 47z m2167 -53 c0 -22 -28 -76 -49 -94
-11 -11 -21 -27 -21 -36 0 -9 -11 -27 -25 -40 -14 -13 -25 -34 -25 -47 0 -23
-22 -75 -42 -100 -8 -10 -17 -9 -40 3 -28 14 -29 17 -14 33 9 10 16 22 16 28
0 5 16 26 35 46 19 20 35 43 35 51 0 8 16 33 35 56 19 23 35 45 35 50 0 4 9
19 21 34 21 27 39 34 39 16z m-1303 -36 c32 -9 73 -14 95 -11 27 4 38 2 35 -6
-2 -7 -41 -15 -100 -19 -53 -4 -122 -12 -153 -17 -85 -16 -94 -15 -94 14 0 52
107 71 217 39z m-864 -61 c15 -20 27 -47 27 -61 0 -25 0 -25 -21 -6 -25 22
-49 66 -49 89 0 24 13 17 43 -22z m1235 -4 c581 -64 1084 -399 1377 -919 86
-152 153 -338 192 -535 28 -142 25 -473 -5 -623 -33 -166 -83 -309 -162 -467
-261 -523 -752 -874 -1344 -961 -163 -24 -449 -15 -607 19 -648 140 -1149 593
-1343 1214 -59 187 -70 271 -70 518 0 261 12 341 84 558 261 782 1053 1287
1878 1196z m-1143 -190 c16 -31 13 -51 -4 -33 -12 11 -25 64 -17 64 3 0 13
-14 21 -31z m-851 -454 c40 -41 71 -75 69 -75 -13 0 -114 24 -135 32 -34 13
-58 49 -58 88 0 26 4 30 26 30 19 0 45 -19 98 -75z m3726 -45 c0 -5 -16 -22
-35 -37 -19 -15 -35 -33 -35 -39 0 -21 -37 -44 -105 -65 -53 -16 -79 -31 -105
-59 l-35 -38 -23 38 c-25 44 -26 50 -11 50 6 0 33 11 61 25 27 14 58 25 68 25
11 0 35 13 53 30 68 59 167 101 167 70z m-3725 -45 c59 -7 64 -10 88 -47 10
-16 22 -28 28 -28 6 0 34 -18 61 -40 40 -31 47 -41 34 -46 -9 -4 -25 1 -35 10
-10 9 -22 16 -28 16 -6 0 -22 15 -37 34 -18 24 -46 42 -95 60 -38 15 -77 36
-87 48 -19 21 -19 21 1 11 11 -6 43 -14 70 -18z m164 -8 c25 -21 68 -43 99
-53 10 -3 8 -12 -9 -35 l-22 -32 -23 27 c-13 14 -27 26 -32 26 -5 0 -15 7 -22
15 -6 8 -17 13 -22 12 -6 -1 -19 12 -29 29 l-19 31 33 -5 c17 -2 38 -9 46 -15z
m5588 -169 c-3 -8 -6 -5 -6 6 -1 11 2 17 5 13 3 -3 4 -12 1 -19z m54 -108 c14
-29 41 -66 59 -81 l33 -28 -44 2 -44 2 3 -65 c1 -36 -2 -81 -7 -100 -8 -30 -9
-23 -10 45 -2 112 -6 125 -45 125 -17 0 -48 -5 -69 -11 -22 -6 -42 -8 -45 -5
-3 4 13 26 36 49 23 24 42 50 42 59 0 21 40 70 54 65 6 -1 23 -27 37 -57z
m-37 -161 c9 -47 7 -92 -5 -127 -14 -40 -71 -56 -94 -26 -14 20 -45 119 -45
146 0 17 52 35 106 37 28 1 32 -3 38 -30z m129 12 c9 -9 -9 -135 -24 -163 -15
-27 -45 -19 -42 12 1 14 3 58 5 98 3 72 3 73 28 67 14 -4 29 -10 33 -14z m-61
-209 c6 -6 5 -42 -3 -97 -8 -64 -8 -94 0 -112 8 -18 8 -29 -2 -46 -10 -18 -11
-88 -2 -364 10 -335 10 -342 33 -363 28 -26 28 -28 -3 -40 -24 -9 -25 -12 -25
-112 0 -174 21 -700 29 -746 8 -36 6 -44 -10 -53 -25 -13 -24 -25 1 -32 19 -5
20 -14 20 -127 l0 -122 -47 7 c-27 4 -50 9 -53 12 -3 2 -8 53 -11 111 -5 84
-3 109 8 118 11 10 12 78 2 430 -11 386 -13 421 -30 440 -26 28 -25 85 1 102
21 13 21 17 14 365 -4 194 -11 360 -16 369 -5 11 -4 25 4 37 10 17 8 27 -10
63 -12 24 -24 69 -28 101 -6 53 -5 57 17 67 27 11 97 6 111 -8z m-6052 -314
c30 0 90 2 133 4 l77 4 0 -38 c0 -21 -4 -38 -10 -38 -5 0 -10 4 -10 10 0 5
-23 8 -55 5 -33 -2 -72 2 -95 10 -35 12 -46 12 -81 0 -97 -34 -222 -2 -163 42
14 11 35 13 84 8 36 -4 90 -7 120 -7z m3864 -36 c3 -5 27 -8 53 -7 26 1 65 -5
87 -13 33 -11 55 -11 121 -1 62 9 86 9 103 0 29 -16 28 -29 -5 -42 -21 -8 -46
-7 -103 6 -69 15 -79 15 -119 1 -26 -10 -49 -12 -58 -7 -8 4 -37 6 -64 3 l-49
-5 0 37 c0 25 5 36 14 36 8 0 17 -4 20 -8z m-3816 -37 c20 -9 46 -15 57 -14
43 3 76 -1 71 -9 -7 -12 -99 -12 -113 0 -7 6 -33 7 -60 4 -135 -17 -178 -18
-198 -2 -19 14 -14 15 65 16 47 1 94 5 105 10 28 12 31 12 73 -5z m162 -35 c0
-5 -2 -10 -4 -10 -3 0 -8 5 -11 10 -3 6 -1 10 4 10 6 0 11 -4 11 -10z m3911
-11 c46 -16 58 -27 39 -39 -21 -13 -91 -12 -145 2 -35 10 -55 9 -92 0 -36 -10
-48 -10 -54 -1 -4 7 -14 9 -23 6 -11 -4 -16 -1 -16 11 0 14 10 17 54 17 30 0
58 -3 61 -7 4 -3 23 0 43 7 46 17 89 18 133 4z m5213 -25 c4 -15 6 -27 4 -29
-2 -1 -25 -5 -51 -8 -48 -7 -48 -7 -45 20 2 19 10 29 28 34 46 13 58 10 64
-17z m-465 -75 c59 -21 37 -35 -51 -35 -46 1 -98 -3 -115 -7 -31 -8 -33 -7
-33 17 0 23 4 25 48 29 97 7 120 7 151 -4z m14 -65 c18 -4 27 -12 27 -25 0
-24 -7 -24 -94 2 -57 17 -67 23 -51 30 19 8 53 6 118 -7z m505 -74 c-2 -51 -8
-94 -15 -101 -9 -9 -60 3 -222 51 -175 53 -230 74 -208 81 10 3 398 57 420 58
l29 1 -4 -90z m-1373 -86 c-25 -19 -21 -18 -250 -48 -104 -14 -305 -41 -445
-60 -674 -92 -954 -126 -962 -118 -25 25 73 43 542 102 267 34 616 78 775 99
160 21 306 39 325 39 33 1 34 1 15 -14z m-120 -73 c-87 -55 -619 -373 -630
-377 -14 -6 -25 85 -25 217 l0 87 83 11 c45 7 190 27 322 46 293 41 289 40
250 16z m-682 -178 c4 -54 7 -127 7 -163 0 -63 -1 -67 -31 -84 -17 -10 -32
-16 -34 -14 -1 1 -6 83 -10 181 l-7 177 34 0 35 0 6 -97z m1530 38 c25 -10 25
-11 31 -188 4 -98 8 -205 9 -237 2 -56 0 -60 -23 -67 -14 -4 -49 -7 -77 -8
-47 -1 -53 1 -57 22 -3 12 -8 118 -13 235 l-8 213 35 24 c35 24 52 25 103 6z
m152 -51 l50 -17 7 -119 c15 -278 15 -284 -7 -289 -63 -12 -126 -13 -130 -2
-2 7 -6 113 -10 235 l-7 224 24 -8 c13 -4 46 -15 73 -24z m-311 -142 c3 -79 9
-182 12 -229 l6 -86 -62 -7 c-35 -4 -66 -4 -70 1 -4 4 -10 95 -12 200 l-5 192
56 35 c31 19 59 35 62 35 3 1 9 -63 13 -141z m557 -19 c4 -41 7 -113 8 -160
l1 -86 -76 -7 c-42 -4 -77 -6 -79 -4 -1 2 -6 90 -10 196 l-7 192 78 -28 79
-28 6 -75z m-708 -151 c7 -178 13 -165 -83 -170 l-55 -2 -5 154 c-4 100 -2
158 5 162 5 4 35 22 65 41 l55 33 6 -30 c4 -17 9 -102 12 -188z m-2203 210 c2
-13 38 -673 37 -675 -1 -1 -39 -4 -83 -8 -75 -7 -82 -6 -87 11 -3 11 -7 163
-9 339 l-3 320 40 6 c44 7 105 10 105 7z m3031 -31 l84 -33 3 -110 3 -111 -53
-6 c-29 -4 -68 -7 -85 -7 -32 0 -33 1 -33 43 0 24 -3 92 -7 150 -3 59 -4 107
-1 107 2 0 42 -15 89 -33z m-3307 -110 c3 -56 8 -206 12 -333 6 -227 5 -231
-15 -237 -11 -3 -24 0 -29 7 -10 12 -37 650 -28 665 3 4 16 6 30 4 23 -5 24
-9 30 -106z m-5524 31 c26 -42 26 -61 1 -53 -13 4 -23 0 -30 -12 -8 -16 -13
-16 -31 -5 -19 12 -22 11 -27 -7 -3 -12 -11 -17 -19 -14 -25 9 -102 -27 -156
-72 -53 -46 -102 -65 -121 -46 -17 17 39 69 88 82 84 23 123 40 150 69 15 16
32 27 37 24 4 -3 11 2 14 10 3 9 14 16 25 16 10 0 23 9 29 20 14 26 17 26 40
-12z m7828 -135 l3 -140 -38 -7 c-21 -3 -57 -6 -80 -6 l-41 0 -4 78 c-5 129
-2 137 72 182 36 21 70 38 75 36 6 -1 11 -60 13 -143z m-4631 107 c3 -11 14
-20 24 -20 11 0 22 -7 25 -15 4 -8 14 -15 23 -15 10 0 28 -14 40 -31 15 -19
51 -44 97 -65 97 -44 147 -94 93 -94 -30 0 -58 17 -122 77 -47 42 -65 53 -92
53 -24 0 -38 6 -45 20 -6 11 -17 20 -26 20 -8 0 -17 7 -20 15 -4 8 -15 15 -25
15 -22 0 -23 1 -7 35 14 30 28 32 35 5z m-3144 -64 c6 -16 -16 -40 -26 -29 -4
3 -9 -2 -13 -11 -3 -9 -15 -16 -25 -16 -12 0 -19 -7 -19 -20 0 -16 -7 -20 -31
-20 -27 0 -44 -13 -108 -80 -72 -75 -110 -97 -125 -72 -11 19 35 70 90 99 64
34 98 65 109 100 4 14 17 25 33 29 15 3 36 9 47 14 53 23 62 23 68 6z m3128
-22 c6 -8 15 -14 20 -14 5 0 18 -9 29 -20 12 -12 33 -20 52 -20 23 0 43 -12
82 -48 28 -27 60 -53 71 -59 11 -7 17 -14 14 -18 -11 -11 -53 13 -108 60 -63
54 -86 65 -124 58 -23 -5 -27 -2 -27 17 0 18 -4 21 -21 17 -12 -3 -22 0 -26 9
-3 8 -12 14 -20 14 -12 0 -13 3 -4 14 13 16 45 11 62 -10z m5747 -429 l-3 -70
-70 -6 c-38 -3 -73 -3 -77 0 -6 5 -27 390 -22 399 1 1 37 6 80 10 l79 7 8
-135 c4 -74 6 -166 5 -205z m-197 224 c4 -52 9 -142 13 -200 l6 -107 -81 -7
c-44 -4 -83 -5 -85 -2 -6 6 -22 389 -17 396 4 5 133 19 148 16 6 -1 13 -44 16
-96z m-187 -96 c4 -98 9 -188 12 -200 5 -26 -8 -31 -98 -35 -37 -2 -59 1 -62
8 -3 7 -6 97 -7 200 l-2 189 49 6 c27 3 61 7 75 7 l27 2 6 -177z m-1161 65 c4
-57 10 -176 13 -265 l7 -163 -66 0 -66 0 -3 236 -3 235 45 29 c25 16 50 29 56
29 7 1 13 -37 17 -101z m980 -45 c4 -75 7 -164 7 -198 l0 -62 -76 -7 c-42 -4
-78 -6 -79 -4 -2 2 -6 92 -10 200 l-7 197 38 4 c22 2 57 4 80 5 l41 2 6 -137z
m-179 -124 l7 -146 -32 -7 c-17 -3 -48 -6 -69 -6 l-37 0 -6 83 c-4 45 -7 133
-7 194 0 126 -5 119 85 125 l40 3 6 -50 c4 -27 10 -116 13 -196z m-170 104 c4
-71 7 -159 9 -198 l2 -70 -75 -6 c-41 -3 -76 -6 -76 -5 -1 1 -3 89 -5 196 l-4
195 45 6 c25 3 57 7 71 7 l27 2 6 -127z m-171 -85 c3 -106 5 -193 4 -194 -1
-1 -39 -5 -84 -9 l-83 -8 0 114 c0 63 -3 151 -6 196 l-7 82 34 4 c19 2 57 5
85 5 l51 2 6 -192z m-1033 117 c0 -67 18 -486 25 -572 l4 -63 -39 0 c-33 0
-40 3 -40 20 0 33 -19 470 -25 553 l-4 78 32 19 c18 11 35 20 40 20 4 0 7 -25
7 -55z m432 -167 c3 -123 4 -226 1 -230 -2 -5 -40 -8 -84 -8 l-79 0 0 188 0
187 73 42 c39 24 75 43 78 43 3 0 9 -100 11 -222z m-530 77 c0 -47 1 -90 2
-96 1 -6 -102 -71 -229 -144 l-230 -134 3 -118 c4 -110 2 -121 -20 -156 l-23
-38 -60 6 c-135 13 -133 13 -140 59 -3 22 -5 103 -3 180 l3 138 335 193 c184
106 341 193 348 194 8 1 12 -23 14 -84z m341 -62 c4 -54 7 -134 7 -179 l0 -81
-102 -7 c-55 -3 -102 -5 -103 -4 -2 2 -4 59 -6 127 l-4 124 95 58 c52 32 98
59 101 59 3 0 9 -44 12 -97z m-7808 -67 c46 -20 49 -51 4 -42 -17 3 -47 6 -65
6 -38 0 -47 22 -16 39 23 14 37 13 77 -3z m6500 -31 c-60 -35 -74 -33 -75 7 0
18 23 24 95 26 l40 1 -60 -34z m-5989 14 c4 -8 -3 -9 -23 -5 -37 8 -111 -7
-131 -27 -8 -9 -21 -37 -28 -64 l-13 -48 0 40 c-1 60 29 103 76 108 78 8 112
7 119 -4z m6970 -215 c-1 -1 -29 -4 -63 -8 l-63 -7 0 43 c0 24 -3 60 -6 80 -6
37 -6 37 57 77 l64 41 6 -113 c3 -61 5 -113 5 -113z m2207 74 c4 -66 7 -145 7
-175 l0 -53 -44 0 c-24 0 -57 -3 -73 -6 l-30 -6 -6 64 c-4 34 -8 113 -9 173
l-3 110 55 6 c108 11 96 25 103 -113z m-9281 9 c-3 -94 -4 -98 -25 -95 -20 3
-22 10 -25 79 -3 73 -1 78 24 98 15 12 27 20 28 19 1 -2 0 -47 -2 -101z m139
58 c-35 -41 -41 -91 -16 -139 22 -41 19 -46 -25 -46 -22 0 -40 -4 -40 -10 0
-6 34 -10 83 -10 46 0 86 -3 90 -6 3 -4 -8 -16 -26 -28 -50 -34 -80 -85 -73
-126 7 -47 36 -83 74 -95 18 -5 32 -12 32 -16 0 -10 -56 -19 -121 -19 -48 0
-59 -3 -59 -16 0 -15 8 -16 60 -11 l59 7 -19 -33 c-23 -38 -26 -91 -6 -129
l15 -28 -54 0 c-29 0 -60 -3 -69 -6 -14 -6 -16 30 -16 358 0 270 3 367 12 376
7 7 38 12 71 12 l59 0 -31 -35z m8963 -37 c3 -40 8 -116 12 -170 l6 -96 -87
-7 c-47 -4 -87 -6 -89 -4 -2 2 -7 79 -11 171 l-7 166 23 5 c13 2 52 5 86 6
l61 1 6 -72z m-9447 51 c81 -14 111 -39 121 -99 7 -43 9 -46 57 -62 l50 -16 3
-107 3 -107 -123 5 c-68 2 -212 6 -320 8 -108 2 -199 7 -202 10 -9 9 24 69 38
69 7 0 21 9 31 20 10 11 25 20 32 20 12 0 14 10 9 48 -10 80 -10 142 0 151 5
5 25 11 44 13 22 2 35 8 36 18 1 8 2 21 3 28 1 16 129 16 218 1z m9258 -155
c4 -92 4 -169 -1 -174 -5 -4 -42 -10 -81 -12 -55 -3 -74 0 -78 10 -3 8 -5 85
-5 172 l0 159 48 4 c26 2 61 4 78 5 l32 2 7 -166z m-8609 131 c9 -13 18 -41
21 -62 5 -35 1 -43 -33 -76 -21 -20 -47 -37 -57 -37 -17 0 -17 1 2 26 32 40
29 113 -5 148 l-27 26 41 0 c33 0 45 -5 58 -25z m724 7 c19 -16 20 -21 9 -45
-7 -15 -16 -27 -21 -27 -4 0 -8 -9 -8 -20 0 -10 -10 -25 -22 -31 -34 -18 -45
-36 -74 -124 -32 -95 -72 -142 -104 -125 -37 20 -19 68 60 155 27 30 52 67 55
82 8 35 66 153 76 153 4 0 17 -8 29 -18z m1867 -3 c-4 -15 0 -23 14 -26 10 -3
19 -14 19 -24 0 -11 7 -22 15 -25 8 -4 15 -17 15 -29 0 -38 19 -78 55 -115 34
-35 65 -95 65 -125 0 -24 -37 -17 -59 11 -12 15 -30 55 -41 90 -26 85 -35 101
-70 119 -18 9 -30 23 -30 35 0 11 -4 20 -10 20 -5 0 -10 9 -10 19 0 10 -8 22
-17 26 -16 6 -16 8 6 26 32 26 55 25 48 -2z m5836 -160 l6 -166 -76 -7 c-42
-3 -79 -4 -82 -1 -6 7 -19 328 -13 335 5 7 146 16 153 10 4 -3 9 -80 12 -171z
m-8497 107 c12 -48 -15 -96 -53 -96 -18 0 -28 9 -39 35 -19 46 -18 57 7 89 19
25 22 25 50 11 16 -9 31 -26 35 -39z m8308 12 c3 -24 8 -100 11 -169 l6 -126
-38 -6 c-21 -4 -54 -7 -74 -7 l-36 0 -6 107 c-4 58 -7 134 -7 169 l0 63 33 4
c17 2 49 5 69 5 36 2 37 1 42 -40z m-1624 -38 c0 -62 -2 -70 -19 -70 -10 0
-39 -3 -65 -6 l-46 -7 0 46 c0 44 1 46 53 76 28 17 58 31 65 31 8 0 12 -21 12
-70z m1454 62 c2 -4 7 -80 11 -169 l8 -162 -24 -5 c-13 -3 -49 -7 -80 -8 l-56
-3 -7 95 c-3 52 -6 130 -6 172 l0 77 53 4 c28 2 62 4 74 5 12 1 24 -1 27 -6z
m-5524 -86 c0 -9 17 -27 39 -40 38 -24 61 -64 75 -132 4 -17 18 -46 32 -65 30
-41 30 -51 2 -47 -29 4 -64 57 -85 127 -10 38 -27 67 -50 89 -22 20 -33 38
-29 48 3 8 -1 17 -9 20 -8 4 -15 14 -15 24 0 10 -10 22 -22 26 -21 6 -21 7 -3
20 16 12 21 10 42 -21 13 -19 23 -41 23 -49z m3349 58 c3 -2 6 -86 9 -187 l5
-183 -49 5 -49 6 0 50 c0 49 0 49 -37 58 l-38 9 0 61 c0 34 -3 93 -7 130 l-6
68 84 -7 c46 -4 86 -8 88 -10z m2005 -76 c3 -50 6 -126 6 -168 l0 -77 -77 -6
c-43 -3 -79 -4 -81 -2 -2 2 -6 78 -9 168 -7 189 -15 174 93 176 l61 1 7 -92z
m-2330 -42 c6 -88 5 -98 -10 -92 -8 3 -22 6 -30 6 -11 0 -14 20 -14 94 0 82 2
95 18 99 9 2 20 1 23 -2 4 -3 9 -50 13 -105z m408 99 l45 -16 6 -121 c4 -67 7
-146 7 -176 l0 -55 -45 6 c-26 2 -48 6 -50 9 -6 5 -19 368 -13 368 2 0 25 -7
50 -15z m476 -90 c-2 -2 -30 -6 -63 -10 -69 -8 -67 0 12 45 l48 28 3 -30 c2
-16 2 -31 0 -33z m1005 -113 c5 -90 7 -165 5 -167 -2 -2 -125 21 -273 50 -149
30 -273 55 -277 55 -5 0 -8 42 -8 94 0 52 3 97 8 99 4 3 50 7 102 8 l95 4 6
-102 c3 -57 8 -106 12 -109 4 -4 7 43 7 104 l0 112 28 0 c15 0 51 3 80 6 l52
7 1 -64 c0 -35 4 -82 8 -104 7 -32 9 -19 10 62 l1 102 38 4 c20 2 51 4 67 3
l30 -1 8 -163z m-7779 92 c13 -5 16 -24 16 -105 0 -99 0 -99 -25 -99 l-25 0 0
105 c0 103 3 111 34 99z m7096 -68 l0 -73 -102 -7 c-111 -8 -293 -31 -320 -41
-13 -5 -18 3 -23 47 -4 29 -5 69 -3 88 l3 35 68 3 67 3 1 -33 c0 -18 4 -42 9
-53 6 -14 9 -4 9 38 l1 57 70 0 70 0 0 -37 c0 -21 5 -45 10 -53 7 -11 10 2 10
43 l0 57 65 0 65 0 0 -74z m-5440 30 c47 -8 124 -17 173 -21 82 -7 87 -9 87
-30 0 -19 -9 -26 -49 -40 -45 -15 -56 -15 -136 0 -80 15 -106 15 -187 -1 -26
-5 -28 -4 -28 31 0 28 5 38 20 42 11 3 20 12 20 19 0 17 -5 17 100 0z m691
-72 c19 -21 21 -60 49 -1120 17 -605 30 -1111 30 -1126 l0 -28 -465 0 -465 0
0 149 c0 174 -11 160 135 162 60 0 83 3 70 9 -11 5 -62 9 -112 9 l-93 1 0 64
c0 63 0 64 31 70 17 3 70 6 117 6 118 0 93 14 -36 20 l-107 5 -3 58 c-3 54 -1
58 23 67 15 6 68 10 118 11 61 0 85 3 72 9 -11 5 -62 9 -112 9 l-93 1 0 64 c0
63 0 64 31 70 17 3 68 6 113 7 54 0 74 3 61 9 -11 5 -62 9 -112 9 l-93 1 0 64
c0 75 0 75 130 77 114 1 76 17 -42 18 l-88 1 0 59 c0 70 1 71 113 71 57 0 78
3 70 11 -5 5 -49 11 -97 11 l-86 2 0 53 c0 37 4 55 14 59 8 3 59 6 114 7 131
3 116 19 -23 25 l-105 5 0 48 c0 44 2 49 26 55 15 4 63 4 108 1 52 -4 75 -3
65 3 -20 12 -150 32 -176 28 -15 -2 -18 4 -18 37 l0 40 82 0 c44 0 79 3 77 7
-8 12 -77 28 -121 28 -42 0 -43 1 -43 34 0 19 4 37 10 41 5 3 40 9 77 12 77 7
62 21 -24 22 -50 1 -53 3 -53 26 l0 25 188 1 c203 2 183 10 -55 24 l-133 8 0
30 0 30 178 -7 c147 -6 186 -4 229 9 53 16 93 9 93 -15 0 -10 -149 -259 -176
-295 -15 -19 -17 -19 -55 25 -21 25 -49 69 -61 98 -12 29 -27 51 -32 49 -17
-6 -11 -116 9 -176 39 -118 138 -173 269 -150 67 12 152 48 149 64 -2 6 -46
13 -98 16 -53 4 -98 9 -101 12 -5 4 149 293 166 310 4 5 31 -3 60 -18 60 -30
73 -28 88 14 11 31 11 31 -49 62 l-60 30 26 47 c24 44 25 47 9 59 -29 21 -41
15 -69 -33 -23 -39 -29 -44 -43 -32 -9 7 -18 13 -20 14 -1 0 4 14 13 30 8 16
15 39 15 52 0 18 5 22 33 22 18 0 42 7 53 15 18 14 17 14 -13 9 -42 -8 -83 17
-83 50 0 20 7 24 43 30 120 21 123 21 100 30 -13 4 -43 4 -68 1 -24 -4 -56 -4
-71 -1 -20 5 -25 12 -22 34 2 15 10 28 18 29 8 0 48 7 88 14 57 10 78 10 99 0
23 -11 25 -10 14 3 -18 22 -69 29 -129 18 -50 -9 -52 -8 -52 13 0 18 10 24 65
37 36 9 73 15 82 13 61 -12 83 -14 78 -6 -3 6 -31 15 -61 21 -44 9 -66 9 -100
0 -25 -7 -47 -11 -49 -8 -3 3 -2 19 1 36 6 30 10 32 48 33 22 0 75 6 116 12
l75 12 3 -30 c2 -16 12 -40 23 -51z m-2026 6 c27 -29 25 -84 -4 -113 l-22 -22
8 30 c11 46 6 87 -18 118 -19 26 -19 28 -2 19 10 -6 27 -20 38 -32z m1735 32
c0 -5 -3 -11 -6 -15 -3 -3 -8 -27 -10 -53 -2 -30 -11 -55 -24 -69 -24 -25 -25
-44 -5 -109 16 -54 20 -153 6 -175 -12 -19 -45 1 -61 39 -15 36 -17 92 -5 177
6 45 4 67 -4 77 -7 8 -10 20 -6 26 3 5 6 32 7 60 l0 50 54 0 c30 0 54 -4 54
-8z m-1780 -52 c21 -39 0 -110 -37 -124 -24 -10 -63 36 -63 72 0 26 23 69 44
84 13 9 43 -8 56 -32z m5657 8 c90 -18 163 -36 163 -40 0 -4 -6 -6 -12 -4 -53
16 -307 28 -471 21 l-187 -7 0 -24 c0 -28 -2 -28 -140 -10 -83 12 -88 13 -42
15 43 1 55 5 59 20 4 16 26 20 181 35 97 10 182 19 187 21 31 10 117 1 262
-27z m-5972 -324 c9 -7 15 -35 17 -85 l3 -74 52 -3 c46 -3 55 0 74 22 20 23
30 26 91 26 38 0 67 -4 64 -9 -3 -4 -28 -6 -57 -3 -45 4 -54 2 -75 -22 -21
-22 -33 -26 -84 -26 -59 0 -59 0 -64 -32 -3 -18 -8 -49 -12 -68 -3 -19 -7 -60
-8 -90 -1 -43 -5 -55 -18 -58 -22 -4 -26 21 -32 240 -4 146 -2 179 10 188 11
10 14 48 16 179 l2 166 3 -170 c3 -134 6 -172 18 -181z m5095 318 l0 -28 -132
-12 c-305 -27 -314 -27 -369 -2 -59 28 -64 49 -11 51 20 1 127 5 237 9 110 3
217 7 238 8 34 2 37 0 37 -26z m4251 -54 c13 -410 13 -598 1 -598 -7 0 -65 20
-130 44 -202 74 -499 142 -825 187 l-168 23 -25 50 c-14 27 -41 67 -60 88 -32
36 -35 43 -32 96 l3 57 75 5 c41 3 77 4 80 2 3 -2 8 -49 11 -105 l5 -102 2
106 2 106 76 7 c42 4 81 3 85 -1 5 -5 10 -51 12 -103 l3 -95 2 101 2 102 31 6
c17 3 51 6 74 6 40 0 43 -2 49 -31 3 -17 6 -66 7 -108 1 -42 4 -87 8 -101 4
-14 7 36 7 110 l-1 135 75 5 c41 3 76 6 77 5 1 -1 6 -68 11 -151 l9 -149 2
153 1 152 50 2 c28 1 65 2 83 2 l32 1 12 -185 11 -185 -3 186 -3 187 37 6 c20
3 59 6 88 6 l52 0 5 -52 c3 -29 10 -114 15 -188 l9 -135 -1 190 -2 190 60 6
c33 3 66 6 73 7 8 1 12 -13 13 -40z m-7501 18 c30 0 67 3 82 8 25 7 26 6 25
-26 -3 -60 -59 -72 -203 -42 -50 11 -99 14 -136 10 -57 -6 -58 -5 -58 19 0 35
44 46 150 38 47 -3 110 -6 140 -7z m3377 -2 c-3 -3 -12 -4 -19 -1 -8 3 -5 6 6
6 11 1 17 -2 13 -5z m613 -33 l0 -39 118 -7 c64 -4 126 -8 137 -8 16 -2 21 5
23 31 4 37 22 34 22 -4 0 -14 6 -27 13 -29 6 -3 100 -16 207 -30 266 -35 260
-34 260 -56 0 -12 -7 -19 -20 -19 -11 0 -311 27 -667 60 -603 56 -907 90 -921
104 -12 13 151 5 302 -14 197 -25 186 -25 186 4 0 40 54 41 183 1 61 -18 115
-31 119 -29 5 3 8 21 8 40 0 24 5 34 15 34 11 0 15 -11 15 -39z m243 9 c4 0 7
-9 7 -20 0 -18 -6 -19 -87 -14 -117 7 -133 11 -133 33 0 10 2 20 5 23 3 2 49
-1 102 -8 54 -7 101 -13 106 -14z m-303 5 c0 -18 -23 -18 -70 0 l-35 13 53 1
c40 1 52 -2 52 -14z m1510 -5 c267 -48 752 -150 778 -164 47 -25 137 -144 121
-160 -3 -3 -75 3 -160 14 -169 21 -993 100 -1048 100 -19 0 -31 3 -28 7 4 3
80 7 169 7 l162 1 10 28 c13 36 -2 78 -34 94 -17 9 -77 13 -188 13 -160 0
-163 0 -187 -25 -14 -13 -25 -34 -25 -45 0 -31 18 -60 37 -60 9 0 14 -3 10 -6
-3 -3 -29 -3 -56 1 -52 7 -67 23 -31 32 22 6 39 68 22 85 -5 5 -43 13 -83 17
l-74 7 30 16 c18 9 88 23 165 32 255 30 279 30 410 6z m-7598 -60 c2 -19 10
-26 31 -28 23 -3 26 -7 21 -26 -3 -13 13 -103 36 -200 23 -98 39 -180 36 -183
-8 -8 -12 5 -54 197 -21 96 -43 173 -48 170 -5 -3 -8 -17 -6 -32 2 -30 -7 -35
-26 -16 -26 26 -40 -13 -52 -142 -13 -155 -17 -170 -35 -170 -17 0 -17 -9 16
208 20 125 19 142 -6 142 -9 0 -12 6 -9 15 4 8 13 15 20 15 22 0 56 36 54 56
-5 47 15 41 22 -6z m154 20 l104 0 0 -92 c-1 -65 -5 -99 -15 -112 -10 -13 -13
-36 -10 -75 2 -31 7 -113 10 -183 l5 -128 -30 0 c-32 0 -42 23 -15 34 10 4 15
20 15 51 0 43 -1 45 -29 45 l-29 0 -41 173 c-22 94 -39 190 -38 212 2 37 0 40
-28 45 -19 3 -31 12 -33 24 -3 14 0 17 13 12 9 -3 64 -6 121 -6z m218 -102 c3
-50 6 -124 6 -164 0 -72 0 -73 28 -77 19 -3 14 -4 -15 -6 l-43 -1 0 79 c0 44
-4 81 -8 83 -5 2 -12 42 -16 91 -6 87 -6 87 17 87 23 0 24 -4 31 -92z m1720
76 c87 -15 100 -15 143 -1 26 9 49 14 51 12 2 -1 -1 -18 -5 -36 -15 -57 -87
-71 -221 -43 -42 9 -103 16 -134 16 -57 0 -58 1 -58 28 0 16 6 31 13 33 25 11
119 6 211 -9z m5464 -30 c18 -3 22 -11 22 -39 0 -18 -3 -36 -7 -38 -5 -2 -89
-1 -188 2 l-180 6 -3 27 c-2 18 4 31 20 42 19 13 45 15 168 10 80 -3 155 -7
168 -10z m-428 -10 c0 -9 -11 -27 -24 -39 -13 -12 -25 -26 -27 -32 -2 -6 -26
-8 -61 -5 -56 4 -58 6 -58 32 0 56 6 60 91 60 66 0 79 -3 79 -16z m-5089 -50
c51 -10 112 -14 157 -11 l73 4 -3 -31 c-2 -25 -11 -35 -42 -50 -43 -21 -75
-18 -226 24 -41 12 -89 19 -107 16 -41 -6 -54 21 -23 46 27 22 64 23 171 2z
m-1378 -18 c14 -13 29 -36 33 -51 8 -33 -16 -89 -46 -105 -21 -11 -21 -11 -6
19 28 53 17 107 -28 143 l-21 18 21 0 c12 0 33 -11 47 -24z m-49 -28 c30 -43
11 -128 -29 -128 -22 0 -47 39 -47 73 0 70 44 101 76 55z m-599 -21 c9 3 17
-13 25 -54 7 -32 20 -93 30 -135 l17 -78 -69 0 -70 0 6 43 c3 23 8 80 11 127
8 102 12 117 27 102 6 -6 16 -8 23 -5z m2024 -32 c96 -28 156 -31 205 -11 32
13 34 13 40 -7 8 -30 -9 -44 -67 -57 -55 -13 -92 -8 -216 25 -36 9 -79 15 -98
12 -32 -6 -33 -5 -33 29 0 33 1 34 43 34 23 0 80 -12 126 -25z m432 -104 c-12
-22 -21 -44 -21 -49 0 -4 25 -20 55 -35 30 -15 55 -34 55 -42 0 -20 -2 -19
-60 10 -27 14 -55 25 -62 25 -13 0 -205 -342 -201 -357 2 -8 23 -13 118 -29
l40 -7 -40 -13 c-91 -29 -185 -7 -237 54 -26 31 -65 129 -55 138 3 3 19 -15
37 -40 35 -52 70 -79 92 -71 11 5 103 147 200 312 l19 33 -47 30 c-26 16 -52
30 -56 30 -4 0 -8 7 -8 15 0 20 1 20 71 -15 l59 -31 28 45 c33 54 41 53 13 -3z
m-436 19 c75 -21 168 -26 209 -10 22 8 26 7 26 -9 0 -10 10 -25 23 -34 21 -14
21 -15 -26 -22 -27 -4 -83 -5 -125 -1 -43 3 -121 9 -174 12 l-98 7 0 32 c0 17
3 35 7 38 13 13 89 7 158 -13z m1562 -136 c-3 -3 -12 -4 -19 -1 -8 3 -5 6 6 6
11 1 17 -2 13 -5z m1052 -20 c27 -34 29 -113 4 -142 -17 -20 -35 -22 -560 -38
-297 -9 -553 -14 -567 -10 -39 10 -50 42 -36 109 6 30 16 60 23 65 7 5 198 15
427 22 228 7 417 14 419 16 2 2 64 4 137 4 131 0 133 0 153 -26z m-4459 -49
l0 -25 -167 2 c-166 3 -168 3 -171 26 l-3 22 170 0 171 0 0 -25z m-280 -60 c0
-8 -7 -15 -15 -15 -16 0 -20 12 -8 23 11 12 23 8 23 -8z m200 -10 c0 -13 -14
-15 -82 -13 -54 2 -83 7 -86 16 -3 9 18 12 82 12 71 0 86 -3 86 -15z m50 -1
c0 -8 -4 -12 -10 -9 -5 3 -10 10 -10 16 0 5 5 9 10 9 6 0 10 -7 10 -16z m74
-40 c12 -5 16 -21 16 -65 l0 -59 -257 2 -258 3 -3 63 -3 62 245 0 c134 0 251
-3 260 -6z m212 -86 c147 16 172 16 176 -4 2 -9 18 -22 37 -28 45 -15 69 -61
77 -153 9 -97 2 -119 -44 -138 -20 -9 -50 -29 -67 -44 -25 -24 -41 -30 -105
-35 -41 -4 -96 -9 -122 -13 l-48 -6 0 33 c0 26 -5 34 -30 43 -16 6 -30 15 -30
19 0 4 14 8 30 8 28 0 30 3 30 36 0 24 7 41 21 53 20 16 21 23 14 99 -7 77 -9
84 -36 97 -15 8 -37 15 -49 15 -14 0 -20 6 -20 23 0 37 12 40 35 10 l22 -27
109 12z m-128 -163 c2 -86 -1 -121 -10 -126 -6 -4 -16 -5 -20 -3 -10 6 -11
238 -1 248 21 20 28 -9 31 -119z m-448 95 c0 -5 -5 -43 -11 -85 -8 -52 -16
-75 -25 -75 -8 0 -14 6 -14 13 0 16 19 127 25 145 5 14 25 16 25 2z m288 -5
c3 -3 41 -143 42 -152 0 -2 -74 -3 -164 -3 l-163 0 13 75 c7 42 16 80 19 85 5
8 243 3 253 -5z m81 -71 c12 -42 20 -79 17 -81 -14 -15 -34 11 -44 58 -7 30
-15 64 -18 77 -5 15 -2 22 8 22 10 0 22 -26 37 -76z m120 -2 c-1 -79 -6 -72
-11 15 -2 34 -1 60 4 57 4 -3 8 -35 7 -72z m4621 46 l62 -33 -1 -270 c-1 -148
-6 -287 -12 -308 -13 -49 -62 -104 -102 -115 -18 -5 -145 -7 -284 -4 l-251 5
-26 56 c-94 210 -125 281 -121 281 2 0 38 -48 79 -107 95 -136 105 -148 111
-141 7 7 -74 131 -180 273 l-86 117 37 104 c56 158 29 147 376 160 161 6 303
11 315 12 12 1 49 -13 83 -30z m-824 -13 c3 -8 -42 -158 -101 -334 -133 -399
-119 -381 -293 -381 -116 0 -117 0 -174 36 -32 19 -62 32 -68 29 -5 -3 -59 10
-120 29 -151 47 -146 23 8 -37 l117 -46 -129 2 c-108 2 -131 5 -139 19 -40 62
171 352 358 493 140 105 356 200 428 188 19 -3 43 0 53 6 27 15 54 13 60 -4z
m-3896 -230 l0 -85 -92 0 c-51 0 -198 3 -325 7 l-233 6 0 63 c0 103 -31 94
331 94 l319 0 0 -85z m64 -37 c3 -13 10 -385 16 -828 7 -443 14 -809 17 -813
9 -15 -19 -37 -47 -37 -56 0 -55 -4 -52 183 11 681 31 1498 37 1506 10 18 24
12 29 -11z m3936 -208 c50 -118 94 -220 96 -226 6 -13 -220 -26 -280 -16 -58
10 -65 30 -39 105 97 278 126 357 128 355 1 -2 44 -100 95 -218z m-4444 103
c-3 -21 -6 -48 -6 -60 0 -17 -6 -23 -23 -23 -21 0 -23 4 -20 38 7 69 12 82 34
82 19 0 21 -4 15 -37z m362 30 l82 -6 0 -45 0 -45 -119 6 c-65 3 -123 1 -128
-4 -5 -5 -47 -11 -94 -15 l-85 -7 3 39 c9 90 -1 84 136 84 67 0 159 -3 205 -7z
m79 -128 c3 -9 4 -17 2 -19 -2 -2 -53 -5 -114 -7 -108 -4 -110 -4 -113 19 -3
22 -2 22 108 22 90 0 112 -3 117 -15z m-247 -15 c0 -6 -7 -13 -15 -16 -8 -4
-15 -17 -15 -30 0 -24 0 -24 -119 -24 -65 0 -133 3 -150 6 -27 6 -32 11 -29
33 3 25 5 26 88 32 154 10 240 9 240 -1z m398 -17 l3 -23 275 0 274 0 0 -22
c0 -13 -4 -28 -8 -34 -6 -11 -379 -34 -540 -34 l-52 0 0 71 c0 67 1 70 23 67
14 -2 23 -11 25 -25z m-150 -61 c2 -20 -2 -34 -10 -36 -7 -3 -64 -7 -125 -9
l-113 -6 0 45 0 45 123 -3 122 -3 3 -33z m-382 -32 l64 0 0 -125 0 -125 -85 0
-85 0 0 123 c0 68 3 127 7 131 4 3 13 4 21 1 7 -3 43 -5 78 -5z m115 -40 c5 0
9 -47 9 -105 0 -87 -3 -105 -15 -105 -13 0 -15 21 -14 133 1 72 4 120 6 105 2
-16 9 -28 14 -28z m259 -184 l0 -193 -28 -6 c-15 -3 -67 -9 -116 -13 l-89 -7
6 69 c4 38 7 128 7 201 l0 132 93 4 c50 1 100 4 110 5 16 2 17 -13 17 -192z
m583 82 c7 -114 9 -247 5 -249 -13 -4 -465 -25 -470 -22 -5 2 -8 85 -8 184 l0
179 38 1 c20 1 100 5 177 8 77 4 165 8 196 9 l56 2 6 -112z m-930 -135 l97 -6
0 -82 0 -83 -117 -12 c-176 -18 -177 -18 -181 4 -2 11 -1 57 3 103 l7 83 46 0
c26 0 91 -3 145 -7z m3929 -85 c239 -8 633 -9 1345 -4 960 8 1084 8 1090 3 1
-2 -5 -30 -14 -65 -14 -57 -18 -62 -47 -66 -17 -3 -240 -15 -496 -26 -515 -23
-1394 -28 -1800 -10 -241 10 -644 37 -697 46 l-33 5 0 63 c0 34 2 65 5 68 6 6
197 2 647 -14z m-312 -174 c267 -19 1279 -38 1625 -30 255 6 780 28 983 42
107 7 104 11 72 -97 -19 -64 -23 -69 -49 -69 -16 0 -212 -12 -437 -27 -298
-19 -498 -27 -734 -27 l-325 -1 -39 28 c-49 34 -115 37 -166 6 -34 -21 -44
-21 -249 -17 -158 4 -216 8 -219 18 -10 28 -64 78 -93 84 -44 9 -95 -16 -121
-60 l-22 -37 -190 7 c-105 4 -231 12 -281 19 l-90 12 -3 89 -3 88 68 -6 c37
-4 160 -13 273 -22z m-3596 -16 c3 -13 5 -43 5 -68 l-1 -45 -13 46 c-7 26 -15
52 -19 58 -4 6 -36 11 -76 11 l-70 0 -16 -37 c-8 -21 -18 -51 -21 -66 l-6 -28
118 3 118 3 -6 -245 c-4 -135 -7 -287 -7 -339 l0 -94 -67 6 c-38 3 -98 11
-135 17 l-68 12 0 52 c0 29 -5 168 -11 308 l-10 256 53 81 53 80 75 3 c41 2
80 5 86 6 7 1 14 -8 18 -20z m286 -30 l32 -52 -7 -352 -8 -353 -26 -5 c-14 -3
-75 -8 -135 -11 l-109 -7 6 323 c3 178 1 362 -3 408 -5 47 -7 88 -4 93 3 4 54
8 114 8 l108 0 32 -52z m-326 -20 c15 -58 12 -61 -66 -53 -40 4 -74 8 -75 9
-2 1 3 17 9 34 12 31 15 32 69 32 50 0 57 -3 63 -22z m4041 -72 c71 -71 36
-216 -53 -218 -44 -1 -79 26 -93 71 -34 114 72 221 146 147z m-2103 -63 l3
-38 443 -3 c244 -1 465 1 490 6 42 6 47 11 50 35 l3 28 112 -3 111 -3 9 -44
c5 -25 5 -47 0 -52 -5 -5 -319 -8 -731 -7 l-721 3 37 57 37 58 77 0 77 0 3
-37z m1521 7 c49 -5 158 -12 243 -16 l154 -7 0 -25 c0 -14 9 -45 21 -69 33
-68 96 -91 159 -58 35 18 70 81 70 125 l0 30 108 0 c60 0 150 -3 201 -7 79 -5
91 -8 85 -22 -3 -9 -9 -37 -11 -63 l-6 -48 -133 0 -134 0 -30 -52 c-21 -37
-30 -67 -30 -97 l0 -44 -37 7 c-21 3 -109 6 -195 6 l-158 0 0 58 c0 31 -5 73
-10 94 -12 43 -17 44 -205 53 -66 3 -146 8 -177 11 l-57 6 -10 49 c-19 86 -17
92 27 85 20 -3 77 -10 125 -16z m1231 6 c60 -25 97 -99 82 -161 -4 -14 -21
-42 -39 -61 -81 -89 -217 -30 -217 94 0 58 26 101 75 123 48 22 56 23 99 5z
m4796 -67 l0 -31 -97 3 -98 3 -9 -51 c-12 -69 -5 -83 39 -83 34 0 35 -1 35
-40 l0 -40 -60 0 -60 0 0 -90 c0 -85 -1 -90 -22 -95 -13 -3 -88 -16 -168 -30
-80 -13 -509 -88 -955 -165 -445 -78 -850 -148 -898 -157 -49 -8 -104 -12
-122 -9 -41 8 -81 38 -101 78 -19 37 -34 32 -51 -18 l-13 -39 -168 -34 c-92
-19 -176 -36 -188 -39 -18 -3 -22 2 -27 39 -4 34 0 51 24 94 16 28 29 58 29
66 0 33 63 142 105 184 96 93 152 109 603 175 218 32 222 31 222 -16 0 -20 4
-21 45 -16 56 6 79 -12 136 -110 49 -83 69 -98 134 -98 27 0 304 49 614 109
644 123 595 106 625 228 20 80 51 139 86 164 18 13 64 22 155 32 195 21 185
22 185 -14z m-4469 13 c14 -6 12 -16 -20 -72 -24 -42 -43 -65 -54 -64 -9 0
-46 1 -82 2 l-64 2 2 43 c1 23 -1 54 -6 70 l-7 27 107 -1 c60 0 115 -3 124 -7z
m4063 -59 c-4 -10 -22 -60 -39 -112 -18 -51 -39 -99 -46 -107 -8 -7 -185 -46
-409 -89 -217 -42 -467 -89 -555 -106 -88 -17 -181 -32 -206 -33 -57 -1 -80
17 -119 94 -41 81 -91 120 -156 120 -31 0 -32 28 -1 35 24 6 1490 212 1521
214 14 1 16 -3 10 -16z m-5904 -23 c0 -14 -9 -20 -32 -24 -86 -14 -1391 -32
-1422 -20 -10 4 -16 18 -16 35 l0 29 735 0 c723 0 735 0 735 -20z m452 -37
c110 -7 108 -4 108 -105 l0 -58 -67 0 c-81 0 -235 16 -315 31 l-58 12 0 70 0
70 118 -7 c64 -3 161 -9 214 -13z m-472 -222 l0 -209 -137 -6 c-513 -23 -1241
-31 -1257 -15 -2 2 -6 96 -7 209 l-4 205 623 7 c343 4 629 9 635 12 7 2 42 5
80 5 l67 1 0 -209z m233 52 c-7 -2 -19 -2 -25 0 -7 3 -2 5 12 5 14 0 19 -2 13
-5z m317 -24 c129 -7 128 -7 -35 -3 -93 3 -192 9 -220 14 -39 7 -31 7 35 3 47
-3 146 -9 220 -14z m-262 -14 c53 -8 126 -15 162 -16 60 0 166 -15 128 -18
-10 0 -25 -12 -34 -26 -15 -24 -21 -25 -108 -25 -96 0 -183 10 -253 29 -40 11
-43 14 -43 47 0 34 2 36 26 30 14 -4 69 -13 122 -21z m1822 -9 c-17 -17 -416
-18 -925 -3 l-440 14 615 -4 c338 -2 644 0 680 4 70 10 88 7 70 -11z m-1382
-27 c-11 -6 -34 -6 -65 0 l-48 9 65 1 c48 0 60 -2 48 -10z m757 -10 c333 -8
521 -9 563 -2 l62 10 0 -28 c0 -15 -5 -31 -11 -35 -24 -14 -701 -24 -934 -13
-333 15 -341 17 -367 58 l-22 34 105 -6 c57 -4 329 -12 604 -18z m-811 -19
c43 -7 63 -6 74 2 10 9 16 8 23 -3 13 -20 11 -39 -3 -39 -7 1 -41 7 -76 14
-60 13 -63 13 -77 -7 -20 -28 -19 -116 1 -145 8 -12 32 -31 52 -42 34 -18 35
-19 11 -20 -29 0 -66 30 -80 67 -5 13 -9 47 -9 74 0 42 -3 49 -20 49 -24 0
-26 17 -3 42 19 21 27 21 107 8z m-424 -32 c30 -6 102 -11 160 -12 l106 -1 20
-31 c12 -17 24 -46 27 -64 l7 -33 -132 6 c-127 6 -237 25 -279 47 -15 8 -19
22 -19 61 0 51 0 51 27 44 15 -3 52 -11 83 -17z m445 -22 c14 -4 25 -20 32
-47 22 -84 -17 -124 -73 -75 -25 21 -29 31 -27 70 2 54 9 68 31 62 10 -2 26
-7 37 -10z m345 -17 c190 -12 1017 -7 1053 6 15 6 17 0 17 -54 0 -51 -3 -62
-21 -72 -32 -17 -1273 -9 -1291 9 -12 12 -14 77 -3 113 5 16 13 19 33 15 15
-3 110 -11 212 -17z m-283 -31 c-3 -7 -5 -2 -5 12 0 14 2 19 5 13 2 -7 2 -19
0 -25z m-507 -72 c36 -8 124 -18 197 -22 120 -6 134 -9 154 -30 l21 -23 -43
-11 c-118 -30 -156 -44 -269 -101 -66 -33 -131 -59 -143 -57 -21 3 -22 8 -25
137 l-3 133 23 -6 c13 -3 52 -13 88 -20z m517 -28 c-3 -7 -5 -2 -5 12 0 14 2
19 5 13 2 -7 2 -19 0 -25z m223 -84 c70 -15 170 -52 170 -63 0 -3 -55 -6 -122
-6 l-123 0 -3 -46 -3 -46 245 -6 c217 -6 248 -8 276 -26 l32 -19 -29 -6 c-16
-4 -96 -2 -178 4 -83 5 -169 10 -192 10 l-43 0 0 -40 0 -40 53 -1 c28 -1 97
-5 152 -9 95 -7 92 -8 -55 -7 -140 2 -155 0 -158 -16 -5 -23 -26 -22 -43 2
-12 17 -39 21 -209 35 -107 9 -216 19 -242 22 -40 5 -48 3 -48 -10 0 -18 -16
-22 -22 -5 -2 6 -40 14 -83 19 l-80 7 68 2 67 1 0 39 c0 33 -4 40 -22 43 -31
4 -34 26 -4 39 20 10 26 19 26 45 0 32 2 34 65 53 163 51 349 60 505 25z
m2842 -146 c-59 -10 -327 -57 -452 -79 -63 -10 -128 -22 -145 -25 l-29 -7 32
37 c18 20 32 43 32 51 0 19 36 55 55 55 10 0 15 -10 15 -32 0 -64 0 -64 201
-23 101 20 195 39 207 42 14 3 28 17 33 32 l10 27 39 -35 39 -36 -37 -7z
m-2542 27 l45 -24 -106 -1 c-58 0 -147 3 -197 6 -81 6 -92 9 -92 25 0 18 11
19 153 19 141 -1 155 -3 197 -25z m1960 -30 c0 -8 -15 -31 -33 -51 -26 -29
-42 -37 -80 -41 -60 -7 -129 12 -164 45 l-28 26 48 8 c46 8 48 7 78 -27 27
-30 37 -35 73 -34 l41 1 -35 8 c-33 8 -77 47 -65 58 3 3 38 9 78 12 39 4 75 8
80 9 4 0 7 -6 7 -14z m-1925 -91 c121 -2 234 -8 250 -12 49 -14 -125 -23 -299
-17 -201 8 -236 12 -236 32 0 12 7 14 33 8 17 -3 131 -9 252 -11z m405 -29 c0
-2 -9 -9 -21 -16 -39 -20 -143 -29 -264 -22 l-120 8 155 5 c92 3 163 10 175
18 19 11 75 17 75 7z m-610 -65 c-36 -12 -80 -12 -80 0 0 6 24 10 53 9 41 -1
47 -3 27 -9z"/>
<path d="M2679 7259 c-411 -40 -814 -256 -1068 -574 -168 -210 -285 -490 -322
-770 -16 -123 -6 -383 19 -500 115 -535 484 -951 1007 -1138 158 -56 277 -78
465 -84 184 -6 285 4 439 43 489 123 911 508 1079 985 63 177 77 272 77 504 0
178 -4 224 -22 305 -46 202 -118 374 -226 538 -322 488 -866 747 -1448 691z
m456 -47 c266 -58 535 -194 715 -363 l65 -60 -60 48 c-74 59 -199 143 -213
143 -6 0 -17 -9 -25 -21 -14 -20 -16 -20 -47 -4 -29 15 -31 20 -26 50 6 32 6
33 -71 73 -139 71 -347 121 -510 122 -46 0 -52 -2 -55 -22 -3 -20 -10 -23 -55
-26 -51 -3 -53 -2 -53 22 0 26 -1 26 -74 26 -86 0 -214 -21 -311 -51 -73 -22
-275 -113 -275 -124 0 -3 7 -17 16 -30 16 -24 15 -25 -22 -42 -22 -11 -39 -14
-41 -8 -18 50 -42 45 -161 -35 -111 -74 -234 -196 -309 -307 l-58 -85 34 -30
34 -30 -29 -59 c-15 -32 -30 -59 -33 -59 -3 0 -17 9 -31 20 -14 11 -31 20 -38
20 -18 0 -75 -93 -108 -178 -39 -101 -42 -75 -3 34 127 359 401 665 754 842
139 69 301 121 460 147 126 20 408 13 530 -13z m-365 -52 c0 -11 -22 -16 -105
-25 -96 -11 -273 -60 -374 -104 -88 -38 -111 -43 -111 -21 0 24 231 117 360
144 76 17 230 21 230 6z m398 -6 c13 -4 22 -14 22 -26 0 -14 -5 -18 -17 -14
-19 5 -116 21 -195 31 -27 3 -48 11 -48 17 0 11 191 5 238 -8z m138 -35 c74
-23 198 -82 209 -99 17 -27 -13 -24 -92 10 -49 21 -114 46 -145 56 -43 13 -58
22 -58 36 0 23 3 23 86 -3z m-235 -13 c573 -93 1026 -534 1141 -1111 26 -130
28 -351 4 -485 -88 -498 -448 -920 -920 -1080 -159 -53 -234 -65 -436 -65
-203 0 -280 11 -445 66 -547 182 -915 669 -942 1249 -27 566 294 1088 812
1320 90 40 243 87 340 104 105 19 338 20 446 2z m-1004 -172 c4 -11 -1 -22
-13 -31 -16 -12 -20 -11 -32 4 -11 15 -10 20 5 30 23 17 32 16 40 -3z m1683
-52 c86 -60 221 -192 276 -269 50 -69 52 -78 25 -93 -17 -8 -26 -1 -67 58 -60
84 -208 232 -296 297 -52 37 -65 51 -57 62 13 15 27 9 119 -55z m-1751 9 c9
-16 0 -28 -65 -81 -81 -67 -162 -157 -238 -264 l-49 -67 -23 22 c-22 21 -22
23 -6 48 44 70 102 142 161 202 64 64 185 159 202 159 4 0 13 -8 18 -19z
m2129 -368 c79 -123 148 -287 187 -442 26 -103 49 -291 43 -356 -3 -35 -6 -40
-28 -40 -23 0 -25 -4 -28 -47 -3 -40 -6 -48 -23 -48 -17 0 -19 7 -19 75 l0 75
35 0 c23 0 38 6 41 15 4 9 -4 59 -16 113 -48 211 -121 398 -192 492 -19 25
-45 62 -58 84 l-23 38 31 25 c27 20 30 28 22 44 -20 37 -2 19 28 -28z m-2568
-209 c0 -3 -15 -49 -34 -102 -42 -124 -66 -231 -74 -341 -6 -73 -10 -86 -24
-85 -10 0 -40 1 -68 2 -49 2 -50 3 -50 33 0 72 110 401 160 479 l32 50 29 -15
c16 -9 29 -18 29 -21z m2674 -234 c30 -89 76 -264 76 -291 0 -14 -7 -19 -25
-19 -23 0 -25 4 -25 43 0 72 -34 257 -65 352 -5 15 -4 17 3 5 6 -8 21 -49 36
-90z m-2798 -324 c1 0 5 -32 9 -70 l7 -69 -67 5 c-36 3 -69 8 -72 12 -8 8 -16
102 -10 119 4 10 21 12 68 9 35 -2 65 -5 65 -6z m2916 -157 c-4 -67 -36 -229
-56 -289 -9 -25 -14 -34 -11 -20 26 149 34 208 40 283 5 58 11 87 19 84 7 -2
10 -24 8 -58z m-2906 -12 c1 -1 11 -56 22 -122 12 -66 37 -175 56 -243 20 -68
36 -127 36 -131 0 -4 -21 -17 -46 -29 l-45 -22 -34 72 c-43 95 -91 251 -110
362 -23 138 -27 130 52 122 37 -4 68 -8 69 -9z m2848 -79 c-17 -140 -83 -428
-110 -480 -15 -28 -15 -28 -47 -12 -57 29 -57 29 -16 112 48 98 93 233 115
345 16 80 19 87 41 87 23 0 23 -2 17 -52z m-2669 -465 c11 -21 44 -71 73 -111
215 -302 511 -493 886 -574 131 -28 406 -31 531 -5 44 10 83 17 88 17 4 0 7
-25 7 -55 l0 -54 -37 -10 c-189 -50 -518 -46 -716 10 -37 10 -38 12 -36 50 2
21 -1 43 -6 48 -6 5 -65 32 -132 61 -119 52 -123 53 -143 35 -11 -10 -22 -26
-25 -36 -8 -23 -15 -24 -40 -5 -19 14 -19 15 -2 51 24 49 16 68 -45 106 -102
62 -248 210 -335 339 -18 27 -40 50 -48 50 -8 0 -35 -10 -60 -22 -24 -12 -46
-20 -48 -17 -2 2 -16 24 -30 49 l-26 44 57 32 c31 17 59 32 62 33 3 0 14 -16
25 -36z m2485 -43 c22 -11 40 -24 40 -28 0 -4 -16 -31 -35 -60 l-36 -52 -32
16 c-59 30 -59 31 -20 90 20 30 38 54 40 54 2 0 22 -9 43 -20z m-2406 -150
c70 -95 245 -267 310 -305 50 -29 56 -47 28 -83 l-18 -23 -89 63 c-103 73
-260 225 -328 316 -26 35 -47 67 -47 71 0 8 59 39 75 40 6 1 37 -35 69 -79z
m2317 10 c48 -25 48 -24 -49 -135 -73 -84 -130 -136 -246 -223 l-70 -53 -17
33 c-32 63 -32 72 2 92 61 36 208 166 266 235 32 38 62 70 66 70 4 1 26 -8 48
-19z m-411 -377 c11 -25 19 -47 18 -48 -18 -14 -100 -56 -102 -54 -10 10 -46
81 -46 89 0 9 85 58 102 60 4 0 16 -21 28 -47z m-135 -69 c15 -25 25 -47 23
-49 -14 -14 -229 -95 -252 -95 -7 0 -10 17 -8 43 l4 43 101 52 c56 28 103 51
104 51 0 1 13 -20 28 -45z m-1194 -23 c108 -46 114 -50 117 -80 2 -17 -1 -31
-7 -31 -26 0 -238 86 -260 106 -4 4 27 54 33 54 2 0 55 -22 117 -49z"/>
<path d="M2716 6800 c-44 -101 -61 -130 -80 -130 -7 0 -25 40 -41 91 -25 77
-27 92 -15 99 20 13 -1 13 -33 1 -23 -9 -26 -17 -32 -95 -4 -47 -9 -86 -12
-86 -2 0 -31 29 -64 64 -58 63 -61 64 -91 54 -28 -10 -29 -12 -12 -19 15 -5
27 -29 43 -84 12 -43 20 -79 18 -81 -3 -4 -40 7 -106 31 -11 4 -12 8 -3 17 16
16 15 61 0 76 -21 21 -62 13 -121 -24 -60 -38 -68 -45 -39 -38 12 3 31 -17 70
-76 29 -45 50 -85 47 -90 -11 -18 9 -10 40 14 24 19 26 24 11 23 -19 -2 -64
58 -53 70 3 3 32 -4 65 -15 43 -14 64 -17 77 -10 13 8 16 7 11 -1 -8 -12 9
-13 39 -2 17 7 17 9 4 17 -17 9 -63 134 -51 134 4 0 31 -27 60 -60 29 -33 57
-60 61 -60 5 0 12 38 16 85 4 47 10 85 14 85 12 0 50 -129 40 -136 -25 -15 -4
-21 32 -9 23 8 52 15 64 15 18 0 21 5 18 23 -7 38 16 58 60 50 44 -7 73 -47
46 -64 -9 -6 13 -9 64 -9 73 0 77 1 62 17 -12 11 -15 25 -11 46 3 16 6 48 6
70 l0 40 66 -87 c37 -47 71 -86 75 -86 5 0 9 45 9 100 0 84 3 101 18 109 13 8
8 10 -27 11 -39 0 -42 -2 -27 -13 14 -10 16 -25 14 -75 l-3 -63 -58 75 c-46
61 -63 76 -85 76 -20 0 -23 -3 -14 -12 7 -7 12 -43 12 -92 0 -147 -31 -143
-93 12 -23 56 -44 102 -47 102 -3 0 -23 -40 -44 -90z m52 -3 c16 -46 16 -47
-18 -47 -16 0 -30 3 -30 7 0 14 24 73 30 73 3 0 11 -15 18 -33z m-514 -86 c19
-21 15 -51 -10 -72 -13 -11 -19 -8 -39 17 -30 37 -31 52 -2 64 31 12 32 12 51
-9z"/>
<path d="M3147 6832 c-26 -28 -20 -60 18 -105 40 -46 44 -71 15 -87 -27 -15
-58 3 -75 43 -8 18 -14 25 -15 17 0 -8 -3 -24 -6 -35 -4 -16 2 -22 35 -32 61
-19 88 -16 107 12 20 30 13 52 -32 106 -37 44 -38 47 -25 67 15 25 55 9 73
-28 9 -19 17 -28 18 -20 0 8 3 26 7 39 4 17 3 22 -5 17 -7 -4 -22 0 -34 8 -30
21 -61 20 -81 -2z"/>
<path d="M3382 6761 c0 -15 -12 -68 -26 -116 -14 -49 -24 -90 -22 -93 2 -2 28
12 57 32 29 19 55 34 57 32 1 -2 -4 -31 -12 -64 -9 -33 -16 -63 -16 -66 0 -4
35 19 78 49 42 31 89 61 103 68 l26 12 -24 19 c-23 17 -24 17 -21 0 2 -12 -15
-30 -51 -56 -30 -21 -56 -37 -57 -35 -1 1 5 32 14 70 11 47 21 67 31 67 13 1
12 4 -4 16 -38 29 -55 36 -49 19 10 -26 -4 -60 -36 -84 -18 -12 -34 -20 -37
-17 -9 9 19 110 34 122 12 10 9 15 -15 33 l-29 20 -1 -28z"/>
<path d="M2005 6590 c-33 -34 -53 -60 -44 -60 24 0 143 -126 136 -144 -10 -26
2 -19 64 41 61 58 71 81 42 104 -15 12 -16 12 -10 -5 8 -21 -24 -81 -50 -90
-11 -5 -27 3 -47 23 l-30 30 24 26 c15 16 32 24 42 22 26 -7 22 6 -9 34 -19
17 -24 19 -20 7 7 -19 -27 -68 -47 -68 -7 0 -23 11 -36 25 l-24 25 30 31 c20
21 36 29 52 26 12 -2 22 -1 22 2 0 9 -22 31 -30 31 -3 0 -32 -27 -65 -60z"/>
<path d="M3630 6582 c0 -28 -127 -142 -149 -135 -11 4 -8 -3 9 -23 41 -48 43
-50 37 -32 -4 12 4 28 26 48 l32 30 35 -36 35 -35 -35 -28 c-19 -16 -41 -26
-50 -23 -8 3 -2 -9 15 -27 26 -28 30 -29 36 -14 12 32 128 135 145 129 11 -4
10 2 -6 24 -25 35 -46 51 -37 28 5 -16 -39 -68 -59 -68 -5 0 -21 15 -36 34
l-28 35 32 26 c18 16 37 24 47 20 9 -4 2 9 -14 27 -17 18 -31 35 -32 37 -2 2
-3 -5 -3 -17z"/>
<path d="M2768 6549 c-330 -35 -592 -256 -694 -584 -15 -47 -19 -92 -19 -215
0 -135 3 -165 23 -230 71 -225 208 -387 417 -491 278 -139 594 -110 840 75
213 160 338 427 322 686 -13 205 -93 383 -237 529 -169 171 -408 256 -652 230z
m277 -44 c148 -39 307 -140 402 -254 187 -226 234 -537 123 -804 -78 -188
-239 -347 -430 -424 -163 -65 -361 -71 -530 -14 -311 105 -511 365 -536 695
-12 155 39 343 128 476 112 169 298 292 504 335 85 18 255 13 339 -10z"/>
<path d="M2645 6174 c-27 -8 -60 -12 -72 -9 -16 4 -26 -3 -42 -30 -17 -30 -73
-75 -93 -75 -3 0 -4 9 -1 20 3 13 0 20 -9 20 -25 0 -58 -30 -80 -73 -26 -52
-63 -88 -83 -81 -21 8 -54 -69 -55 -125 0 -44 0 -44 -21 -25 -17 16 -22 16
-30 4 -29 -44 30 -174 123 -271 80 -84 97 -93 165 -85 29 3 53 4 53 0 0 -3
-11 -20 -24 -37 -37 -49 -38 -87 -2 -87 13 0 53 -13 89 -30 37 -16 78 -30 91
-30 14 0 36 -4 51 -10 19 -7 35 -6 61 5 55 23 42 45 -43 75 -39 14 -78 31 -87
39 -15 12 -13 16 16 37 17 13 39 24 47 24 9 1 27 7 41 14 21 12 29 12 63 -6
25 -12 58 -19 95 -19 104 0 222 -10 222 -20 0 -5 -8 -9 -17 -9 -10 0 -36 -11
-58 -25 -22 -13 -52 -25 -67 -25 -37 0 -42 -13 -17 -44 31 -39 82 -35 193 15
116 51 118 52 129 71 18 28 -1 63 -49 90 l-46 25 68 12 c38 7 81 15 95 17 54
10 105 68 139 156 17 46 32 99 33 118 2 31 -1 35 -20 33 -22 -3 -23 1 -23 68
0 95 -37 167 -55 107 -7 -20 -9 -19 -42 16 -57 60 -146 98 -162 68 -8 -14 -11
-14 -35 2 -15 9 -29 23 -32 30 -4 11 -27 13 -97 9 -124 -6 -155 -17 -173 -60
-20 -46 -11 -55 38 -37 55 19 60 17 16 -7 -21 -11 -38 -23 -38 -28 0 -14 49
-19 88 -9 58 16 126 13 153 -5 13 -10 29 -17 36 -17 7 0 13 -8 13 -17 0 -10 9
-33 21 -52 l20 -33 -33 5 c-18 3 -64 17 -103 31 -85 30 -219 48 -300 40 -73
-7 -169 -31 -206 -49 -34 -18 -93 0 -83 25 3 8 8 27 11 41 8 39 62 62 166 69
77 5 91 9 114 33 34 33 24 44 -26 29 -51 -16 -93 -15 -116 2 -18 13 -16 15 25
20 25 4 63 7 84 9 46 3 56 20 24 41 -35 22 -88 26 -143 10z m85 -24 c-8 -5
-30 -10 -48 -10 -36 0 -102 -24 -102 -37 0 -5 17 -15 37 -22 l37 -14 -45 -11
c-72 -19 -119 -52 -119 -85 0 -16 -9 -40 -20 -54 -28 -35 -25 -45 14 -45 18 0
43 -5 55 -11 17 -9 29 -7 62 9 131 67 356 65 529 -6 50 -20 73 -24 107 -19 24
3 43 9 43 12 0 3 -13 21 -30 40 -16 18 -31 41 -32 51 0 9 -1 24 -2 32 -1 8
-13 16 -28 18 -14 2 -32 10 -38 18 -7 8 -26 14 -43 14 -24 0 -28 3 -19 12 7 7
12 15 12 19 0 13 -94 20 -142 11 -48 -9 -64 -1 -30 16 9 5 58 12 108 15 75 5
94 4 104 -8 7 -9 32 -24 56 -35 31 -13 44 -25 44 -39 0 -12 3 -21 8 -21 4 0
17 -15 30 -33 26 -40 29 -93 5 -142 -25 -53 -6 -56 38 -5 29 33 37 50 32 65
-3 11 -7 41 -7 67 -1 37 -7 53 -31 79 l-30 31 31 -15 c28 -15 94 -98 94 -119
0 -4 7 -8 15 -8 10 0 15 11 16 33 1 17 6 -8 11 -58 7 -72 5 -97 -6 -125 -23
-55 -28 -78 -17 -85 6 -3 21 16 35 42 31 60 33 48 4 -30 -13 -35 -40 -78 -63
-103 -34 -35 -48 -43 -90 -48 -27 -3 -69 -11 -93 -16 -23 -6 -65 -10 -92 -10
-77 0 -62 -31 24 -50 72 -16 108 -37 104 -62 -3 -23 -3 -23 -103 -68 -79 -36
-131 -51 -151 -43 -17 6 -18 23 -1 23 11 0 42 13 145 64 23 11 41 25 39 31 -2
5 -51 12 -109 15 -69 3 -111 10 -122 19 -13 11 -20 11 -28 3 -19 -19 -61 -14
-113 12 -44 23 -50 24 -76 10 -15 -8 -34 -14 -42 -14 -21 0 -138 -81 -131 -91
3 -5 13 -9 23 -9 10 0 24 -7 31 -15 7 -8 44 -24 83 -36 52 -15 67 -23 55 -30
-20 -11 -149 14 -203 40 -22 11 -51 23 -64 28 l-23 9 27 32 c15 18 40 39 57
48 45 23 23 36 -61 34 -42 -1 -84 -2 -95 -1 -32 2 -156 140 -188 208 -31 69
-32 73 -20 73 5 0 21 -22 35 -49 15 -27 34 -54 43 -62 8 -7 24 -29 34 -50 15
-29 27 -38 57 -44 20 -4 50 -16 65 -27 l28 -19 42 23 c23 13 41 28 40 33 -4
18 -55 26 -124 20 l-68 -5 -19 37 c-10 21 -28 46 -40 57 -11 10 -18 22 -16 26
10 16 81 -10 104 -37 39 -45 61 -52 99 -30 17 10 32 22 32 27 0 4 -20 15 -44
24 -24 9 -47 24 -50 31 -3 8 -14 15 -25 15 -25 0 -61 45 -61 76 0 34 32 31 64
-7 14 -17 26 -35 26 -40 0 -5 14 -9 30 -9 17 0 30 2 30 5 0 3 -20 33 -45 67
-25 34 -45 69 -45 78 0 8 12 43 27 76 23 51 36 65 73 85 25 13 54 38 65 56 16
26 27 33 55 34 19 0 46 5 60 9 14 4 39 8 55 9 23 0 26 -2 15 -9z m590 -173 c0
-6 -11 0 -25 13 -14 13 -25 28 -25 33 0 6 11 0 25 -13 14 -13 25 -28 25 -33z
m-954 -42 c-9 -25 -16 -51 -16 -58 0 -7 -10 -18 -21 -26 -18 -11 -23 -11 -30
1 -14 22 -10 44 16 79 14 19 33 46 42 61 16 25 18 26 21 9 2 -11 -4 -40 -12
-66z m-93 -86 c18 -32 21 -80 8 -114 -7 -18 -10 -17 -30 15 -23 38 -24 50 -15
99 8 39 14 39 37 0z m153 -194 c10 -8 14 -15 8 -15 -5 0 -19 7 -30 15 -10 8
-14 15 -8 15 5 0 19 -7 30 -15z m33 -104 c7 -5 9 -11 4 -14 -6 -4 -19 0 -29 8
-15 11 -16 14 -4 15 8 0 21 -4 29 -9z"/>
<path d="M3352 5781 c-28 -33 -55 -53 -83 -62 -41 -13 -90 -62 -76 -75 3 -4
22 1 41 10 46 22 59 21 47 -3 -6 -11 -31 -24 -60 -31 -54 -13 -90 -34 -79 -46
4 -4 27 1 51 10 23 9 54 16 67 16 19 1 32 12 51 43 15 26 41 50 62 60 36 17
36 18 30 70 -3 28 -7 53 -8 55 -1 1 -20 -20 -43 -47z m-2 -61 c-19 -16 -39
-29 -45 -29 -5 0 6 13 25 29 19 16 40 29 45 29 6 0 -6 -13 -25 -29z"/>
<path d="M1880 6448 c-31 -47 -31 -48 -16 -42 14 5 76 -32 76 -46 0 -3 -13
-21 -28 -40 l-29 -34 -31 23 c-18 12 -32 30 -32 39 0 12 -7 9 -25 -13 -28 -35
-31 -47 -10 -39 9 4 38 -11 71 -37 l55 -42 -28 -12 c-15 -7 -45 -24 -67 -38
-30 -21 -42 -24 -57 -16 -10 5 -19 14 -19 18 0 18 36 52 58 54 12 1 22 4 22 8
0 7 -36 19 -58 19 -7 0 -11 -4 -8 -9 3 -4 -1 -17 -9 -27 -21 -28 -19 -81 4
-94 32 -16 55 -12 97 20 42 32 63 37 82 18 28 -28 -2 -78 -46 -78 -12 0 -22
-4 -22 -10 0 -5 6 -10 14 -10 8 0 21 -3 29 -6 8 -3 17 2 21 13 3 10 13 29 21
43 8 14 15 37 15 51 0 15 7 32 15 39 17 14 21 35 5 25 -6 -4 -26 5 -45 20 -38
28 -37 32 4 84 l19 24 28 -22 c16 -12 31 -32 34 -43 5 -19 8 -17 35 17 20 28
24 37 11 32 -22 -9 -169 100 -162 120 8 21 -8 15 -24 -9z"/>
<path d="M3745 6278 c-38 -5 -82 -7 -97 -5 -32 4 -32 3 -17 -24 7 -14 14 -17
22 -11 30 25 58 18 79 -20 21 -37 21 -38 3 -58 -10 -11 -25 -18 -32 -16 -7 3
0 -20 17 -51 17 -31 30 -62 30 -69 0 -7 5 -16 10 -19 6 -4 9 -1 8 6 -3 14 38
39 65 39 24 0 22 -8 -18 -65 l-35 -51 14 -69 c8 -39 15 -63 15 -54 1 10 13 19
32 23 63 12 69 9 69 -33 0 -22 -5 -42 -12 -44 -7 -3 5 -6 26 -6 34 -1 37 1 24
12 -9 6 -19 26 -23 44 -6 30 -5 32 29 38 19 4 39 4 45 0 18 -11 13 -86 -6
-102 -16 -13 -16 -13 7 -7 14 3 26 7 27 8 2 1 0 39 -4 84 -5 74 -8 81 -22 68
-9 -8 -52 -17 -103 -21 -107 -8 -115 0 -67 73 l33 49 29 -21 c26 -19 30 -19
55 -5 35 19 39 57 13 129 -11 30 -20 48 -20 39 -1 -12 -26 -24 -87 -43 -85
-27 -114 -28 -114 -5 0 7 26 49 58 93 32 45 62 87 66 94 8 14 -13 14 -119 0z
m49 -43 c-14 -19 -28 -35 -30 -35 -2 0 -10 13 -19 29 -15 29 -14 30 13 34 65
10 65 10 36 -28z m164 -186 c6 -53 -63 -65 -86 -15 -10 22 -8 26 16 35 43 16
67 9 70 -20z"/>
<path d="M1706 6052 c-2 -4 -7 -25 -11 -47 -4 -28 -3 -36 3 -26 9 12 24 11
104 -10 69 -18 92 -28 90 -39 -2 -10 0 -12 6 -5 6 6 13 24 17 42 6 28 4 31
-14 26 -23 -6 -159 24 -178 39 -7 6 -10 14 -7 19 3 5 3 9 0 9 -3 0 -7 -3 -10
-8z"/>
<path d="M1687 5923 c-10 -17 -18 -168 -8 -154 7 11 25 12 101 4 51 -6 96 -16
100 -23 4 -7 10 1 14 20 9 48 8 51 -12 39 -12 -7 -33 -9 -55 -5 -31 6 -37 11
-37 33 0 15 7 35 17 45 15 17 14 18 -22 18 -35 0 -37 -1 -21 -13 14 -10 17
-21 11 -45 -7 -33 -18 -38 -64 -25 -21 5 -23 10 -18 47 3 22 14 46 23 53 17
12 16 13 -3 13 -12 0 -24 -3 -26 -7z"/>
<path d="M3894 5696 c-8 -22 3 -49 19 -43 6 2 12 14 12 27 0 27 -22 39 -31 16z"/>
<path d="M1744 5676 c-8 -22 3 -49 19 -43 6 2 12 14 12 27 0 27 -22 39 -31 16z"/>
<path d="M1754 5580 c-79 -32 -85 -164 -9 -198 82 -38 175 17 175 104 0 53
-53 104 -106 103 -22 0 -49 -4 -60 -9z m128 -47 c26 -23 23 -65 -7 -93 -19
-18 -40 -25 -84 -28 -55 -4 -60 -3 -77 23 -13 20 -15 33 -8 52 19 53 135 84
176 46z"/>
<path d="M3815 5565 c-65 -64 2 -155 115 -155 73 0 114 71 74 128 -39 56 -146
71 -189 27z m153 -32 c53 -39 37 -93 -28 -93 -95 0 -170 73 -116 113 20 14
116 1 144 -20z"/>
<path d="M1940 5388 c0 -23 -169 -91 -188 -76 -11 10 -11 4 2 -27 18 -43 26
-54 26 -37 0 13 34 37 66 46 17 5 24 0 34 -24 10 -24 10 -33 0 -45 -17 -20 5
-20 40 0 19 11 21 14 8 15 -11 0 -24 14 -31 33 -14 31 -13 32 17 49 17 9 34
17 37 18 4 0 14 -18 23 -41 13 -32 14 -44 5 -55 -17 -20 -6 -26 16 -10 18 13
18 16 -10 82 -30 74 -45 98 -45 72z"/>
<path d="M3752 5391 c1 -3 -5 -19 -12 -34 -12 -25 -12 -33 1 -55 28 -53 139
-89 190 -62 21 12 26 54 9 80 -7 11 -8 6 -4 -17 6 -28 3 -34 -20 -44 -30 -14
-80 -3 -133 31 -43 26 -46 67 -5 76 15 3 31 7 36 8 5 1 -8 7 -27 13 -20 6 -36
8 -35 4z"/>
<path d="M3660 5226 c0 -7 -9 -21 -20 -31 -33 -30 -24 -80 18 -96 19 -7 36 -4
78 18 57 29 85 26 92 -10 5 -23 -34 -57 -65 -57 -21 -1 -24 -3 -13 -9 23 -13
66 -25 57 -15 -4 4 2 17 13 29 31 33 36 79 11 104 -28 28 -53 26 -110 -6 -51
-28 -81 -26 -81 5 0 24 19 41 57 51 l28 7 -33 12 c-25 9 -32 8 -32 -2z"/>
<path d="M2026 5141 c-16 -17 -18 -30 -12 -80 5 -47 4 -62 -9 -75 -21 -20 -29
-20 -50 1 -13 12 -16 27 -12 56 l6 40 -26 -25 c-25 -25 -25 -26 -6 -48 39 -49
54 -60 82 -60 47 0 62 31 55 108 -8 70 3 89 39 70 15 -8 18 -18 15 -49 -4 -44
1 -48 27 -19 18 20 18 21 -12 58 -35 43 -71 52 -97 23z"/>
<path d="M3559 5103 c-39 -47 -43 -54 -26 -47 11 4 38 -14 82 -53 53 -46 65
-63 62 -81 -4 -22 -2 -21 29 9 37 36 42 44 20 36 -17 -7 -151 127 -142 142 11
18 -10 13 -25 -6z"/>
<path d="M3500 5033 c0 -7 -7 -13 -16 -13 -8 0 -29 -13 -45 -29 -35 -36 -39
-88 -9 -136 19 -30 72 -65 100 -65 24 0 67 30 78 55 20 43 14 50 -11 14 -43
-64 -116 -41 -153 48 -26 61 26 116 78 84 29 -18 30 -9 3 24 -13 17 -24 24
-25 18z"/>
<path d="M2112 4955 c-93 -58 -101 -65 -82 -75 16 -8 20 -8 20 3 0 7 11 19 24
26 21 12 28 10 55 -10 34 -25 41 -62 15 -77 -14 -8 -12 -12 12 -31 l29 -23 3
28 c2 16 12 71 22 121 11 51 20 95 20 98 0 11 -18 1 -118 -60z m68 -21 c-11
-46 -11 -46 -40 -23 l-25 19 25 20 c38 30 49 26 40 -16z"/>
<path d="M2321 4942 c9 -14 3 -31 -31 -90 -24 -41 -51 -77 -61 -81 -17 -6 -16
-9 13 -25 29 -18 31 -18 24 -1 -4 11 7 41 31 84 l37 66 7 -40 c4 -22 13 -73
19 -113 7 -39 15 -70 19 -67 4 2 29 40 55 85 36 62 51 80 69 80 19 0 18 2 -11
20 -40 25 -41 25 -35 1 5 -19 -42 -111 -57 -111 -4 0 -13 41 -19 90 -10 72
-17 93 -34 105 -29 20 -40 19 -26 -3z"/>
<path d="M3337 4919 c-16 -9 -16 -12 -4 -22 18 -14 70 -108 64 -114 -3 -2 -42
14 -86 37 -71 35 -84 39 -104 28 -19 -11 -20 -13 -4 -16 21 -4 101 -157 93
-178 -5 -12 0 -11 24 1 17 9 30 18 30 21 0 3 -4 3 -8 0 -14 -9 -29 8 -61 71
l-31 62 38 -16 c20 -8 63 -29 96 -45 32 -16 60 -28 62 -26 2 2 -17 43 -42 92
-25 48 -43 94 -40 102 6 16 -2 17 -27 3z"/>
<path d="M2608 4803 c19 -8 16 -51 -13 -180 -3 -13 -13 -24 -23 -24 -19 -1 32
-16 62 -18 14 -1 16 2 7 13 -14 17 0 91 17 90 7 -1 21 -2 33 -2 12 -1 23 -11
26 -23 8 -29 23 -4 22 36 0 17 -3 24 -6 18 -2 -8 -22 -13 -45 -13 -40 0 -40 0
-34 31 3 17 6 35 6 40 0 17 70 9 89 -10 17 -17 20 -17 25 -4 9 22 5 24 -71 39
-67 13 -120 17 -95 7z"/>
<path d="M3090 4790 c0 -40 -24 -208 -32 -223 -8 -17 -7 -18 14 -12 28 9 48
25 30 25 -7 0 -12 13 -12 28 0 25 5 30 42 41 39 12 43 12 60 -9 14 -17 16 -26
7 -36 -9 -11 -6 -12 22 -2 42 14 46 17 33 26 -6 4 -42 43 -79 87 -68 81 -85
96 -85 75z m69 -114 c-2 -2 -19 -7 -38 -11 -29 -6 -33 -5 -28 10 4 9 7 29 7
43 l0 27 32 -32 c18 -18 30 -34 27 -37z"/>
<path d="M2824 4769 c17 -10 18 -20 11 -103 -4 -50 -11 -97 -17 -103 -8 -10 0
-13 38 -13 38 1 45 3 32 11 -13 7 -18 23 -18 54 0 25 4 45 9 45 5 0 26 -25 46
-55 31 -44 44 -55 66 -55 l27 0 -35 38 c-51 55 -57 69 -32 77 32 10 45 49 26
78 -17 26 -54 37 -126 37 -38 -1 -43 -3 -27 -11z m107 -19 c39 -21 12 -80 -37
-80 -22 0 -24 4 -24 45 0 39 3 45 21 45 11 0 29 -5 40 -10z"/>
<path d="M2667 2843 c-3 -5 -6 -98 -8 -208 l-4 -200 165 -5 c91 -3 168 -4 173
-2 4 2 7 95 7 206 0 203 0 204 -22 210 -33 8 -306 7 -311 -1z m307 -32 c3 -5
3 -88 -1 -185 l-6 -176 -67 0 c-37 0 -101 3 -143 6 l-77 7 0 81 c0 45 3 125 7
179 l6 97 138 0 c76 0 140 -4 143 -9z"/>
<path d="M2735 2800 c-4 -6 8 -10 27 -11 l33 -1 -33 -8 c-18 -4 -35 -10 -38
-13 -11 -11 148 -19 193 -9 47 10 48 10 11 11 -47 1 -61 21 -16 22 31 1 32 1
8 9 -37 12 -178 12 -185 0z"/>
<path d="M2720 2721 c0 -11 124 -20 190 -12 l55 6 -40 8 c-56 10 -205 9 -205
-2z"/>
<path d="M2750 2661 l-35 -7 40 -7 c58 -10 167 -8 185 3 12 8 9 10 -11 10 -14
0 -53 2 -85 4 -32 3 -75 1 -94 -3z"/>
<path d="M2720 2601 c0 -12 112 -20 179 -13 45 4 51 7 31 13 -36 10 -210 11
-210 0z"/>
<path d="M2745 2541 l-30 -7 40 -7 c55 -9 167 -8 183 2 8 5 -13 10 -55 14 -77
8 -96 7 -138 -2z"/>
<path d="M9473 3475 c0 -22 2 -30 4 -17 2 12 2 30 0 40 -3 9 -5 -1 -4 -23z"/>
<path d="M10042 3395 c0 -16 2 -22 5 -12 2 9 2 23 0 30 -3 6 -5 -1 -5 -18z"/>
<path d="M935 2990 c-3 -5 -3 -64 1 -131 9 -150 17 -164 96 -164 68 1 128 13
128 27 0 7 -22 8 -70 4 -39 -4 -79 -5 -89 -1 -29 9 -41 58 -41 166 0 90 -9
125 -25 99z"/>
<path d="M503 1782 c-9 -6 -9 -20 0 -62 l12 -55 118 -3 c74 -2 117 1 117 7 0
6 -12 35 -27 66 l-27 55 -91 0 c-49 0 -95 -4 -102 -8z m192 -52 c8 -16 15 -34
15 -40 0 -6 -32 -10 -84 -10 -79 0 -85 1 -91 23 -18 62 -23 57 64 57 79 0 81
-1 96 -30z"/>
<path d="M4316 1604 c-13 -34 -6 -94 14 -114 24 -24 82 -27 100 -5 10 12 6 13
-23 8 -51 -8 -80 24 -75 83 3 44 -5 58 -16 28z"/>
<path d="M4960 1549 c-27 -43 -23 -120 7 -151 38 -37 137 -30 151 11 4 11 -1
10 -19 -2 -79 -56 -171 43 -125 134 22 44 12 49 -14 8z"/>
<path d="M9316 1461 c-22 -3 -41 -12 -44 -20 -4 -11 5 -12 44 -6 27 4 52 9 57
12 8 5 -1 24 -11 22 -4 -1 -25 -5 -46 -8z"/>
<path d="M9302 1411 c-47 -9 -39 -27 11 -23 53 3 70 9 62 22 -7 11 -21 11 -73
1z"/>
<path d="M8776 1381 c-22 -3 -41 -12 -44 -19 -3 -11 8 -12 54 -7 64 8 74 11
74 26 0 10 -22 10 -84 0z"/>
<path d="M9295 1361 c-38 -8 -30 -27 10 -23 52 5 76 12 70 22 -7 11 -33 11
-80 1z"/>
<path d="M8776 1341 c-22 -3 -41 -12 -44 -19 -3 -10 8 -12 50 -7 66 8 78 12
78 25 0 11 -21 11 -84 1z"/>
<path d="M9295 1321 c-38 -8 -30 -27 10 -23 52 5 76 12 70 22 -7 11 -33 11
-80 1z"/>
<path d="M8776 1301 c-22 -3 -41 -12 -44 -19 -3 -10 8 -12 50 -7 66 8 78 12
78 25 0 11 -21 11 -84 1z"/>
<path d="M8771 1261 c-19 -3 -36 -12 -39 -19 -3 -11 8 -12 54 -7 64 8 74 11
74 26 0 10 -35 10 -89 0z"/>
<path d="M8758 1213 c-16 -3 -28 -11 -28 -19 0 -12 8 -14 38 -9 78 13 92 17
92 26 0 9 -49 10 -102 2z"/>
<path d="M4017 823 c-6 -6 -10 -72 -4 -74 15 -4 360 -23 363 -20 2 2 4 23 4
46 l0 42 -137 6 c-172 9 -218 9 -226 0z m341 -52 c4 -23 2 -23 -50 -18 -29 4
-101 9 -160 13 -83 5 -108 10 -108 20 0 12 28 14 158 12 157 -3 157 -3 160
-27z"/>
<path d="M4030 676 c0 -27 4 -36 18 -37 9 0 118 -8 242 -18 124 -10 229 -15
233 -11 5 4 7 23 5 41 l-3 34 -98 6 c-54 4 -165 10 -247 14 l-150 7 0 -36z
m468 -15 c6 -1 12 -8 12 -17 0 -14 -8 -15 -52 -10 -29 3 -127 11 -218 17 -173
11 -194 14 -187 27 3 4 101 2 219 -5 117 -6 219 -12 226 -12z"/>
<path d="M7251 8964 c-169 -45 -301 -170 -301 -286 0 -26 5 -59 10 -73 l10
-26 -57 7 c-240 30 -415 -32 -479 -170 l-23 -50 -78 0 c-85 -1 -126 -20 -186
-83 -26 -28 -31 -29 -70 -22 -68 13 -199 10 -253 -6 -68 -20 -126 -69 -122
-104 7 -58 128 -77 298 -47 74 13 75 13 95 -9 44 -51 79 -60 230 -59 92 1 175
8 241 21 l101 19 36 -23 c20 -13 71 -35 114 -50 72 -25 90 -27 238 -27 162 0
227 10 361 58 39 13 43 13 62 -6 31 -32 109 -35 182 -9 l60 22 27 -20 c69 -50
290 -76 403 -47 36 9 83 29 105 44 38 26 42 27 80 14 95 -32 264 -7 322 47 20
19 24 19 109 4 105 -18 245 -13 317 12 48 17 117 72 117 94 0 6 -13 25 -29 43
-26 29 -34 32 -83 32 -30 -1 -63 -6 -73 -12 -16 -8 -28 -2 -70 34 -67 60 -192
120 -290 140 -62 13 -115 15 -231 12 l-152 -5 -11 23 c-32 72 -173 174 -238
174 -18 0 -30 14 -54 61 -70 140 -173 210 -319 216 -64 3 -96 10 -130 28 -49
25 -133 45 -183 44 -18 0 -56 -7 -86 -15z m191 -24 c56 -16 129 -70 152 -115
12 -22 22 -42 24 -44 1 -3 7 0 12 5 7 7 2 26 -15 59 l-26 48 59 -6 c136 -14
226 -76 292 -199 29 -54 34 -72 33 -125 0 -48 3 -63 13 -63 10 0 14 15 14 56
0 53 1 55 23 49 157 -47 242 -153 249 -310 4 -98 23 -80 21 20 l-1 84 36 8
c21 5 91 8 157 7 210 -1 341 -49 456 -165 38 -38 71 -69 75 -69 3 0 4 9 1 21
-12 44 95 55 134 13 l24 -26 -32 -28 c-18 -16 -56 -36 -84 -44 -63 -19 -203
-21 -311 -4 -76 11 -77 11 -117 -16 -81 -56 -192 -71 -290 -37 l-54 19 -43
-33 c-58 -45 -131 -59 -264 -52 -121 6 -197 26 -229 61 l-23 24 -56 -26 c-63
-29 -139 -35 -166 -13 -12 11 -14 17 -5 28 21 25 3 24 -89 -6 -249 -82 -476
-86 -645 -11 -58 26 -64 36 -27 44 30 5 42 26 16 26 -7 0 -69 -12 -137 -26
-85 -18 -168 -28 -265 -31 -127 -5 -145 -3 -187 15 -30 14 -51 30 -57 46 -5
15 -11 26 -12 26 -2 0 -38 -7 -81 -15 -114 -22 -248 -20 -277 3 l-23 19 29 26
c44 41 111 59 217 58 51 0 108 -5 127 -11 33 -9 36 -8 80 36 25 26 59 53 77
60 47 20 130 17 182 -6 24 -11 47 -20 52 -20 19 0 8 21 -16 32 -30 14 -31 27
-6 77 63 122 235 182 442 152 204 -30 307 -97 277 -181 -5 -17 -7 -34 -3 -38
11 -11 35 30 35 60 0 64 -48 115 -139 147 -62 22 -77 34 -92 78 -9 27 -8 45 2
81 24 86 168 205 282 232 47 12 137 11 179 0z"/>
<path d="M990 8466 c-14 -9 -43 -15 -64 -16 -61 0 -124 -36 -157 -88 -21 -33
-43 -53 -78 -69 -27 -13 -59 -38 -71 -57 l-23 -33 -74 5 c-93 6 -189 -18 -247
-62 -34 -26 -48 -31 -81 -28 -31 3 -45 -1 -59 -17 -51 -56 57 -106 195 -90 52
6 68 4 101 -13 30 -16 52 -19 100 -16 44 3 71 0 92 -11 43 -22 190 -21 233 2
24 13 38 15 58 7 34 -13 78 -13 91 0 7 7 39 4 100 -11 113 -27 203 -23 273 14
44 22 54 24 102 15 81 -15 213 -7 236 14 16 14 28 16 79 9 68 -10 108 -5 125
15 34 41 -45 87 -146 83 -52 -2 -67 2 -100 24 -25 17 -53 27 -76 27 -30 0 -39
6 -60 37 -36 55 -89 78 -179 77 l-75 0 0 36 c0 80 -91 150 -203 157 -47 2 -74
-1 -92 -11z m175 -35 c49 -22 95 -73 95 -107 0 -24 -31 -64 -49 -64 -5 0 -23
-12 -40 -26 -34 -29 -40 -64 -14 -85 15 -13 16 -11 11 15 -7 38 16 61 83 80
100 30 200 18 251 -31 27 -26 38 -63 18 -63 -5 0 -10 -7 -10 -16 0 -11 5 -14
18 -9 70 28 115 22 155 -22 15 -18 24 -19 67 -11 69 12 162 -14 146 -41 -9
-14 -57 -14 -127 -1 -50 10 -55 9 -70 -12 -14 -18 -30 -23 -82 -26 -57 -4
-183 15 -235 36 -10 3 -13 -2 -10 -18 2 -19 -4 -25 -37 -37 -55 -20 -201 -12
-279 16 -70 25 -66 24 -66 7 0 -22 -22 -25 -65 -10 -36 12 -44 11 -83 -7 -56
-28 -188 -25 -221 5 -18 16 -26 17 -66 7 -46 -12 -89 -7 -114 13 -9 7 -59 11
-125 11 -91 0 -117 3 -140 18 -22 15 -25 21 -15 33 17 20 40 17 46 -6 3 -11 8
-20 10 -20 3 0 27 20 54 44 66 59 124 78 230 74 l83 -3 0 -40 c1 -57 20 -55
27 4 8 57 38 105 79 126 38 20 36 20 51 -17 l12 -33 6 45 c12 85 78 160 143
160 25 0 28 -3 22 -25 -8 -32 11 -33 27 -2 35 65 118 80 214 38z"/>
<path d="M5295 6732 c-34 -11 -67 -33 -102 -68 -48 -47 -56 -51 -112 -57 -100
-11 -161 -57 -161 -122 0 -53 62 -90 171 -102 38 -4 63 -11 66 -20 9 -22 84
-60 143 -72 69 -14 150 -1 202 34 30 20 43 23 58 15 27 -14 105 -12 144 4 18
7 42 25 53 40 20 25 22 25 75 15 109 -22 280 27 312 90 23 44 20 66 -17 104
-33 36 -112 67 -169 67 -17 0 -45 12 -66 29 -20 16 -55 34 -77 40 -62 17 -193
13 -251 -7 l-51 -18 -21 23 c-17 20 -30 23 -84 22 -35 0 -85 -8 -113 -17z
m167 -13 c16 -8 19 -17 14 -40 -4 -21 -2 -29 9 -29 7 0 17 5 20 10 24 39 163
65 261 50 86 -14 122 -33 140 -76 15 -35 34 -46 34 -19 0 32 110 10 160 -31
112 -95 -115 -200 -321 -149 -22 6 -27 3 -32 -17 -15 -58 -131 -81 -201 -40
-39 23 -66 21 -46 -3 9 -11 6 -17 -13 -30 -58 -37 -133 -44 -216 -19 -62 18
-101 52 -101 89 0 27 -17 34 -26 10 -14 -34 -162 -2 -191 41 -15 24 -15 27 4
52 37 51 77 64 181 59 87 -5 122 5 67 19 -14 3 -25 10 -25 14 0 20 89 87 130
98 95 24 123 26 152 11z"/>
<path d="M9283 6589 c-18 -5 -51 -27 -74 -49 -33 -31 -50 -40 -78 -40 -70 0
-131 -64 -104 -109 15 -24 74 -51 113 -51 24 0 42 -8 58 -24 45 -48 174 -57
224 -16 18 14 28 15 50 8 38 -14 95 -2 122 25 19 19 33 22 107 22 92 1 137 17
165 60 34 51 -13 103 -107 118 -19 3 -52 17 -73 30 -48 34 -124 42 -196 23
-47 -12 -57 -12 -74 0 -23 16 -84 17 -133 3z m119 -46 c-4 -28 -2 -28 45 -1
30 18 53 23 113 23 82 0 128 -19 137 -56 6 -20 29 -26 35 -8 5 14 93 -8 109
-27 6 -8 8 -25 5 -38 -11 -45 -137 -75 -223 -53 -27 7 -33 6 -33 -7 0 -40 -94
-61 -138 -30 -22 15 -47 11 -37 -6 3 -5 -5 -16 -17 -24 -50 -35 -189 -7 -196
39 -2 17 -10 20 -62 20 -46 0 -64 4 -80 20 -18 19 -19 22 -5 42 20 29 75 43
136 36 33 -4 49 -2 49 6 0 6 -7 11 -15 11 -21 0 -19 13 8 38 33 31 66 41 122
39 46 -2 50 -4 47 -24z"/>
<path d="M6470 3248 c-32 -53 -21 -150 22 -186 18 -14 230 -29 271 -18 35 8
57 53 57 117 0 45 -4 55 -34 85 l-34 34 -131 0 -131 0 -20 -32z m291 -8 c38
-21 50 -118 18 -156 -17 -21 -251 -20 -273 1 -23 24 -36 81 -26 116 18 60 23
62 150 54 63 -4 122 -11 131 -15z"/>
<path d="M6937 3223 c-30 -34 -26 -125 8 -158 22 -23 32 -25 119 -25 87 0 96
2 110 22 35 50 32 122 -6 158 -19 17 -35 20 -118 20 -80 0 -100 -3 -113 -17z
m190 -14 c15 -5 31 -16 35 -22 13 -20 9 -81 -7 -104 -14 -19 -21 -21 -97 -16
-67 4 -86 9 -100 25 -21 23 -23 66 -6 103 10 23 16 25 79 25 37 0 80 -5 96
-11z"/>
<path d="M7305 3210 c-26 -28 -30 -98 -8 -140 18 -35 18 -35 103 -41 47 -4 92
-3 101 2 47 25 50 137 4 176 -22 20 -38 23 -104 23 -65 0 -81 -3 -96 -20z
m189 -32 c18 -26 21 -80 6 -109 -9 -16 -22 -19 -78 -19 -87 0 -112 16 -112 71
0 70 10 79 95 79 65 0 76 -3 89 -22z"/>
<path d="M7659 3183 c-37 -42 -30 -137 14 -168 23 -16 162 -22 183 -7 39 26
46 117 12 156 -20 21 -35 26 -108 31 -75 6 -87 5 -101 -12z m180 -31 c23 -18
30 -59 17 -100 -7 -20 -13 -22 -86 -22 -91 0 -110 12 -110 66 0 64 12 74 89
74 51 0 75 -5 90 -18z"/>
<path d="M8040 3151 c-16 -30 -12 -123 6 -149 13 -20 24 -22 95 -22 l80 0 15
35 c18 44 18 78 -1 114 -17 34 -38 41 -122 41 -51 0 -64 -3 -73 -19z m170 -30
c13 -25 13 -77 0 -101 -8 -16 -19 -17 -72 -13 -71 6 -88 19 -88 69 0 60 6 64
81 64 57 0 70 -3 79 -19z"/>
<path d="M8430 3121 c-15 -28 -12 -113 5 -135 10 -13 31 -19 77 -23 35 -2 72
-2 84 1 44 11 59 104 23 150 -19 24 -26 26 -99 26 -68 0 -81 -3 -90 -19z m164
-17 c17 -16 21 -80 7 -102 -5 -9 -28 -12 -77 -10 l-69 3 -8 35 c-6 22 -5 45 2
63 10 25 14 27 70 27 41 0 65 -5 75 -16z"/>
<path d="M8844 3096 c-20 -29 -18 -99 4 -124 12 -14 34 -22 75 -25 76 -7 97
11 97 81 0 64 -17 78 -98 84 -55 4 -65 2 -78 -16z m136 -26 c22 -22 24 -37 10
-74 -8 -23 -15 -26 -59 -26 -73 0 -96 30 -71 94 8 23 15 26 55 26 32 0 51 -6
65 -20z"/>
<path d="M9232 3060 c-18 -30 -15 -94 6 -112 26 -23 137 -32 156 -12 24 23 21
99 -4 124 -29 29 -140 29 -158 0z m122 -10 c30 -11 42 -49 26 -79 -7 -15 -20
-21 -45 -21 -74 0 -105 31 -86 84 9 21 17 26 45 26 19 0 46 -4 60 -10z"/>
<path d="M9542 3038 c-17 -17 -15 -93 3 -108 9 -7 40 -15 70 -17 49 -4 55 -2
71 22 17 27 14 76 -7 102 -14 17 -120 18 -137 1z m112 -21 c12 -9 17 -23 14
-42 -3 -29 -6 -30 -55 -33 -48 -3 -53 -1 -59 22 -9 38 11 66 49 66 18 0 41 -6
51 -13z"/>
<path d="M9760 3005 c-9 -27 -8 -40 2 -62 11 -24 22 -29 71 -37 40 -6 61 -5
71 3 21 18 26 62 11 98 -14 32 -15 33 -79 33 l-64 0 -12 -35z m125 -1 c9 -9
15 -28 13 -43 -3 -24 -7 -26 -52 -26 -56 0 -73 16 -62 58 6 24 12 27 45 27 23
0 46 -7 56 -16z"/>
<path d="M9988 3005 c-8 -17 -8 -37 -2 -63 l9 -37 59 -3 c67 -3 76 3 76 60 0
50 -21 68 -81 68 -43 0 -51 -3 -61 -25z m117 -25 c3 -11 3 -29 0 -41 -6 -17
-14 -20 -48 -17 -41 3 -42 4 -45 41 l-3 37 45 0 c36 0 46 -4 51 -20z"/>
<path d="M5662 2613 l3 -378 70 0 c68 0 70 1 70 25 0 113 -17 663 -21 693 l-6
37 -59 0 -59 0 2 -377z m102 145 c3 -112 9 -269 12 -350 l7 -148 -47 0 -46 0
0 350 0 350 34 0 33 0 7 -202z"/>
<path d="M5840 2938 c0 -7 7 -146 15 -308 8 -162 15 -312 15 -332 l0 -38 114
0 c79 0 116 4 123 13 6 7 7 68 2 157 -4 80 -8 202 -8 271 -1 69 -4 154 -7 188
l-7 61 -123 0 c-93 0 -124 -3 -124 -12z m197 -14 l30 -6 7 -231 c3 -128 9
-268 12 -313 l6 -81 -93 -6 c-52 -3 -96 -3 -98 -1 -4 4 -30 496 -30 592 l-1
52 69 0 c38 0 82 -3 98 -6z"/>
<path d="M6144 2718 c3 -117 9 -265 12 -329 l7 -117 36 -6 c51 -8 169 -7 174
2 2 4 -1 153 -7 332 l-11 325 -109 3 -109 3 7 -213z m142 182 l42 0 6 -132 c3
-73 8 -211 12 -306 l6 -173 -83 3 -84 3 -11 300 c-6 165 -9 304 -6 309 2 4 21
6 41 2 20 -3 55 -6 77 -6z"/>
<path d="M6588 2733 c-97 -4 -101 -6 -112 -78 -4 -22 0 -129 8 -238 11 -150
19 -205 31 -224 l17 -25 131 4 c73 3 139 8 149 12 37 17 41 56 29 286 -6 120
-14 225 -17 233 -8 23 -51 37 -102 35 -26 -1 -86 -4 -134 -5z m204 -40 c12
-14 18 -53 22 -158 13 -265 12 -303 -4 -318 -10 -10 -52 -16 -138 -20 -118 -6
-123 -5 -136 16 -20 31 -43 430 -28 470 l12 27 128 0 c110 0 131 -3 144 -17z"/>
<path d="M7024 2719 c-18 -20 -19 -36 -16 -232 5 -296 10 -304 166 -292 50 3
102 9 115 12 l24 6 -7 151 c-3 83 -9 202 -13 264 l-6 112 -122 0 c-111 0 -124
-2 -141 -21z m239 -31 c5 -25 17 -288 22 -443 0 -13 -174 -34 -202 -24 -42 15
-48 43 -51 247 -2 106 -1 204 2 217 6 22 12 24 79 28 39 1 88 4 108 5 34 2 37
0 42 -30z"/>
<path d="M7450 2709 c1 -76 27 -499 31 -503 5 -4 269 11 275 16 5 5 -24 499
-29 505 -3 2 -66 7 -141 10 l-136 6 0 -34z m255 -11 c5 -17 28 -449 23 -453
-2 -1 -53 -5 -114 -9 l-111 -7 -6 103 c-4 57 -10 165 -13 241 l-7 137 112 0
c80 0 113 -3 116 -12z"/>
<path d="M7894 2648 c3 -35 8 -126 11 -203 3 -77 8 -157 12 -179 l5 -38 112 7
c61 4 114 10 117 14 5 4 -15 441 -20 459 -1 1 -56 2 -122 2 l-121 0 6 -62z
m212 29 c4 -5 24 -400 20 -405 -3 -2 -45 -7 -94 -10 l-89 -5 -7 114 c-3 63 -9
161 -13 218 l-6 104 93 -6 c51 -4 94 -8 96 -10z"/>
<path d="M8264 2595 c3 -63 9 -166 12 -229 l6 -114 107 -4 c58 -2 109 -1 113
2 7 5 -9 424 -17 448 -3 8 -36 12 -116 12 l-111 0 6 -115z m185 86 c14 -9 28
-178 30 -358 l1 -53 -84 0 c-47 0 -87 3 -89 8 -3 4 -8 98 -12 210 l-7 202 73
0 c41 0 80 -4 88 -9z"/>
<path d="M8664 2648 c3 -35 9 -139 12 -232 l7 -169 101 7 c56 4 104 10 108 14
4 4 1 104 -5 222 l-12 215 -109 3 -108 3 6 -63z m180 31 c8 -8 28 -377 21
-389 -3 -5 -39 -10 -80 -10 l-73 0 -6 63 c-3 34 -8 127 -12 206 l-6 143 75 -4
c42 -2 78 -6 81 -9z"/>
<path d="M8984 2539 c4 -90 9 -190 13 -222 l6 -58 86 7 c47 3 89 9 93 13 8 7
-19 401 -28 410 -3 3 -44 8 -91 10 l-86 3 7 -163z m164 -52 c8 -98 11 -181 8
-184 -2 -3 -34 -8 -69 -10 l-65 -6 -6 169 c-4 93 -9 179 -12 192 -4 22 -3 23
63 20 l68 -3 13 -178z"/>
<path d="M9220 2643 c1 -72 18 -375 22 -378 5 -4 178 12 183 17 3 3 -1 92 -10
199 -8 107 -15 200 -15 207 0 9 -25 12 -90 12 l-90 0 0 -57z m116 27 l40 0 13
-181 c7 -100 11 -182 9 -184 -2 -1 -33 -6 -69 -9 l-66 -7 -10 188 c-5 103 -7
192 -5 196 2 5 14 6 26 3 11 -3 39 -6 62 -6z"/>
<path d="M9468 2694 c-7 -13 12 -408 20 -415 4 -3 40 -3 81 0 l75 6 -3 65 c-3
91 -20 332 -23 336 -8 8 -146 15 -150 8z m140 -201 c6 -98 8 -181 6 -185 -3
-4 -27 -8 -54 -8 -48 0 -49 1 -54 33 -3 17 -7 101 -10 185 l-5 152 53 0 53 0
11 -177z"/>
<path d="M9683 2628 c4 -35 9 -119 13 -188 4 -69 11 -130 15 -136 8 -10 146
-8 157 1 4 4 -29 368 -35 378 -2 4 -38 7 -80 7 l-76 0 6 -62z m127 25 c5 -5
28 -237 29 -295 l1 -38 -54 0 -54 0 -6 73 c-14 174 -18 256 -12 265 5 9 84 5
96 -5z"/>
<path d="M9893 2593 c4 -49 12 -130 19 -180 10 -84 13 -93 32 -92 12 0 30 4
41 9 17 7 15 9 -12 9 l-31 1 -7 78 c-3 42 -10 110 -16 150 -13 106 -15 100 39
105 45 3 45 3 -12 5 l-59 2 6 -87z"/>
<path d="M10080 2571 c0 -137 10 -231 24 -231 8 0 8 42 0 157 -10 141 -10 159
4 171 14 10 13 12 -6 12 -21 0 -22 -4 -22 -109z"/>
</g>
</svg>
