<?xml version="1.0" standalone="no"?>
<!DOCTYPE svg PUBLIC "-//W3C//DTD SVG 20010904//EN"
 "http://www.w3.org/TR/2001/REC-SVG-20010904/DTD/svg10.dtd">
<svg version="1.0" xmlns="http://www.w3.org/2000/svg"
 width="850.000000pt" height="850.000000pt" viewBox="0 0 850.000000 850.000000"
 preserveAspectRatio="xMidYMid meet">
<metadata>
Created by potrace 1.14, written by Peter Selinger 2001-2017
</metadata>
<g transform="translate(0.000000,850.000000) scale(0.100000,-0.100000)"
fill="#000000" stroke="none">
<path d="M560 8438 c-40 -84 -70 -208 -70 -282 0 -128 55 -249 165 -364 69
-73 140 -124 378 -272 125 -77 157 -107 157 -148 0 -14 -18 -65 -41 -114 -73
-158 -72 -277 2 -384 36 -53 126 -122 223 -171 l69 -35 -59 -32 c-77 -43 -116
-91 -121 -153 -13 -136 168 -244 534 -319 190 -39 346 -37 713 12 306 40 474
47 573 25 31 -7 57 -16 57 -20 0 -5 -134 -95 -297 -201 l-297 -193 -126 6
c-311 16 -767 104 -1127 218 -500 159 -892 365 -1280 672 -9 7 -13 5 -13 -6 0
-20 195 -166 358 -269 156 -98 437 -239 613 -308 462 -180 990 -299 1409 -317
l148 -6 -28 -24 c-24 -20 -39 -23 -106 -23 -44 0 -189 14 -324 30 -439 55
-596 51 -1010 -25 -283 -52 -361 -59 -504 -46 -210 20 -382 72 -498 152 -41
28 -58 35 -58 24 0 -20 106 -88 179 -116 161 -61 382 -95 546 -86 55 3 197 24
315 45 316 58 386 66 585 66 140 -1 235 -8 430 -32 138 -18 286 -32 328 -32
85 0 88 -3 59 -58 -13 -26 -81 -73 -331 -227 -172 -107 -318 -195 -324 -195
-5 0 -25 12 -44 26 l-34 26 -216 -129 -215 -128 6 -52 c4 -37 2 -55 -8 -66
-10 -10 -15 -47 -17 -130 -3 -114 -3 -117 23 -144 20 -21 25 -35 21 -55 l-5
-27 -42 21 c-56 29 -186 36 -279 14 -106 -25 -163 -60 -272 -166 -55 -54 -114
-105 -132 -114 -37 -19 -114 -21 -181 -5 -66 16 -211 85 -218 103 -3 9 -10 14
-14 11 -19 -12 9 -56 86 -132 71 -70 99 -90 186 -132 159 -77 307 -101 617
-101 l183 0 -6 -57 c-4 -32 -10 -73 -13 -91 l-5 -33 -22 20 c-33 31 -71 41
-151 41 -228 0 -435 -159 -474 -366 -5 -27 -15 -121 -22 -209 -7 -88 -16 -163
-21 -166 -4 -3 -76 -18 -158 -35 l-150 -29 0 -72 c0 -62 3 -74 20 -83 14 -7
20 -21 20 -43 0 -30 -3 -34 -43 -44 -50 -14 -132 -82 -178 -150 -47 -68 -31
-80 21 -15 66 83 176 160 198 138 3 -3 7 -144 10 -314 l5 -308 -57 -10 -58 -9
2 -232 c1 -264 9 -241 -93 -279 -44 -16 -67 -37 -55 -49 5 -6 211 76 278 110
159 81 392 368 550 680 186 366 278 672 306 1011 l7 84 87 0 c48 0 101 3 117
6 28 5 31 3 37 -27 10 -51 -12 -265 -44 -423 -16 -77 -27 -142 -25 -144 1 -2
12 25 24 60 55 169 86 353 79 469 l-4 69 32 0 c32 0 200 7 1476 65 539 25 793
33 806 26 17 -9 19 -30 25 -273 7 -293 28 -579 57 -768 11 -69 17 -100 15 -70
-22 281 -52 1000 -43 1000 5 0 8 -8 8 -17 0 -57 114 -472 126 -460 2 2 -11 71
-30 153 -40 172 -86 399 -86 419 0 29 71 35 340 30 146 -3 326 -8 400 -10 74
-2 192 -5 261 -5 l126 0 27 -105 c34 -130 106 -358 111 -353 4 4 -80 348 -104
427 l-10 33 197 -6 c108 -3 528 -11 932 -17 404 -6 827 -14 939 -18 l204 -6
61 -185 c34 -102 79 -240 100 -307 25 -82 42 -123 52 -123 8 0 24 20 36 45 12
25 25 45 29 45 3 0 32 -62 63 -137 l56 -136 -56 -50 c-65 -59 -93 -99 -123
-183 -21 -56 -24 -60 -50 -56 -27 4 -28 6 -39 102 -14 117 -40 191 -96 273
-116 170 -337 234 -551 161 -26 -8 -51 -12 -56 -7 -14 14 -66 126 -84 181 -24
74 -45 68 -66 -18 l-15 -65 -70 105 c-39 58 -90 140 -113 183 -40 73 -60 93
-62 65 -6 -61 54 -443 87 -555 l6 -23 -44 20 c-51 22 -102 27 -174 16 l-51 -7
-6 38 c-9 54 -58 124 -106 151 -80 45 -203 35 -293 -23 l-37 -24 -24 29 c-14
16 -83 115 -153 220 -71 104 -135 190 -143 190 -11 0 -12 -17 -7 -92 7 -93 42
-386 52 -443 l5 -30 -58 0 c-66 -1 -152 -36 -192 -79 l-24 -25 -33 25 c-93 71
-283 71 -424 -1 -27 -14 -56 -25 -64 -25 -24 0 -123 131 -161 213 -35 76 -105
301 -105 338 0 29 -29 23 -41 -8 -15 -38 -31 -490 -24 -643 l6 -125 -38 61
c-62 99 -116 165 -133 162 -12 -3 -14 -16 -12 -63 5 -96 31 -258 68 -430 20
-88 39 -188 43 -223 l7 -62 -184 2 -184 3 -72 205 c-151 425 -253 672 -275
668 -19 -4 -24 -25 -112 -470 -41 -208 -76 -378 -79 -378 -11 1 -80 131 -118
225 -22 55 -64 154 -92 220 -29 66 -67 165 -85 220 -19 55 -39 101 -44 103 -6
2 -18 -16 -28 -40 -9 -24 -59 -128 -112 -233 l-94 -190 -23 95 c-35 142 -102
481 -133 664 -20 122 -30 161 -41 161 -8 0 -16 -9 -18 -20 -2 -11 -25 -121
-52 -245 -27 -124 -70 -326 -95 -450 -47 -226 -121 -531 -148 -605 l-14 -40
-84 -17 c-46 -9 -113 -20 -149 -24 l-65 -7 42 45 c78 85 115 162 133 273 12
75 0 168 -28 220 -15 27 -17 77 -17 460 0 367 -2 430 -14 430 -9 0 -26 -29
-42 -70 -124 -317 -174 -437 -257 -617 -89 -195 -98 -211 -149 -254 -61 -52
-58 -60 -26 70 34 140 -37 302 -142 322 -79 14 -200 -81 -285 -224 -136 -231
-196 -584 -134 -792 8 -29 14 -53 12 -54 -2 -1 -47 -15 -101 -30 -54 -15 -140
-43 -190 -62 -50 -18 -93 -32 -95 -30 -2 2 12 28 31 57 57 89 198 388 197 418
0 3 -35 -59 -76 -139 -42 -80 -101 -187 -131 -239 l-55 -94 -29 54 c-43 80
-79 109 -136 109 -96 0 -184 -70 -224 -179 l-22 -62 -22 21 c-14 13 -35 20
-63 20 -54 0 -55 -18 -2 -26 35 -6 44 -13 61 -45 23 -46 46 -50 54 -11 33 164
107 252 211 252 27 0 48 -7 62 -20 21 -19 87 -139 80 -144 -2 -1 -34 -15 -73
-31 -91 -37 -305 -145 -377 -190 -88 -55 -75 -75 15 -24 227 129 510 250 758
324 141 42 460 125 482 125 5 0 -6 -26 -24 -57 -95 -170 -137 -252 -136 -269
2 -16 -8 -20 -58 -26 -33 -4 -80 -12 -105 -17 -38 -9 -29 -10 55 -6 55 2 108
7 117 10 11 5 29 -11 63 -57 l46 -63 252 8 252 9 75 38 c41 21 135 65 207 99
131 59 134 60 265 71 188 16 266 30 128 24 -58 -3 -127 -7 -155 -10 l-50 -5
70 35 c67 33 78 35 240 46 235 17 244 32 14 24 -176 -7 -186 -6 -193 12 -4 10
-30 61 -59 113 l-52 94 -237 -6 c-200 -5 -238 -4 -238 7 0 15 8 18 145 40 218
37 531 78 660 86 385 27 593 40 720 45 829 33 1793 -15 2750 -136 88 -12 178
-23 200 -25 179 -20 853 -126 1042 -163 54 -10 208 -40 343 -66 191 -37 665
-146 828 -191 16 -5 22 -2 22 9 0 8 -7 17 -15 21 -11 4 -15 20 -15 58 1 48 5
86 26 233 l7 50 -24 -22 c-70 -63 -159 -55 -312 28 -81 43 -100 71 -95 137 6
68 40 105 117 128 99 29 204 4 274 -64 23 -23 37 -31 37 -21 0 8 -17 32 -39
53 l-38 37 -5 472 -5 472 29 69 c15 38 28 72 28 75 0 7 -180 3 -217 -5 -28 -6
-29 -23 -3 -94 17 -47 20 -80 20 -237 l0 -183 -39 28 -38 27 -7 179 c-10 284
-8 345 14 431 32 125 44 115 -132 115 -84 0 -159 -4 -166 -9 -9 -5 -12 -29
-10 -82 l3 -74 33 -3 32 -3 0 -267 c0 -314 16 -309 -145 -40 -109 182 -181
329 -253 523 -50 132 -61 182 -62 257 0 31 -4 68 -10 82 -8 23 -15 26 -55 26
-45 0 -53 5 -88 54 -11 14 -32 20 -98 25 -80 6 -84 7 -98 35 -9 19 -29 204
-57 515 -23 267 -45 510 -48 539 l-6 52 89 0 c207 0 549 100 886 259 200 94
485 268 485 296 0 11 -21 2 -72 -33 -408 -274 -1001 -502 -1305 -502 l-80 0
-7 38 c-13 83 -8 114 25 142 36 30 47 77 48 201 1 58 -3 80 -15 89 -9 8 -14
25 -12 44 2 25 12 34 51 54 l47 25 0 68 c0 37 2 74 5 82 4 9 -21 30 -80 65
l-86 52 -37 -25 c-33 -22 -38 -23 -57 -10 -70 52 -60 50 -140 30 l-74 -19 -51
24 c-27 13 -50 29 -50 35 0 19 53 86 111 141 111 104 282 199 415 230 93 22
239 15 313 -15 161 -65 300 -229 332 -392 7 -38 17 -59 25 -59 8 0 14 9 14 19
0 41 83 81 213 101 84 13 162 1 223 -35 49 -29 92 -32 140 -9 44 21 104 88
104 117 -1 21 -2 20 -23 -8 -37 -51 -77 -84 -118 -96 -36 -11 -43 -10 -101 21
-49 26 -77 34 -134 38 -86 5 -202 -18 -270 -54 -26 -14 -47 -23 -48 -22 -1 2
-10 28 -20 58 -53 158 -192 297 -353 351 -95 32 -229 32 -333 0 -191 -58 -413
-213 -487 -338 -14 -24 -27 -43 -29 -43 -13 0 -414 195 -414 201 0 4 19 10 43
14 138 23 291 93 557 253 323 194 480 309 636 462 105 103 161 182 263 363 81
146 134 221 206 292 69 69 122 104 267 175 243 118 358 185 358 208 0 15 -14
8 -99 -46 -29 -19 -128 -70 -219 -113 -294 -141 -378 -222 -548 -526 -88 -157
-134 -222 -218 -311 -135 -142 -336 -290 -661 -487 -214 -129 -358 -198 -489
-235 -130 -36 -147 -36 -204 -6 l-44 22 44 13 c60 18 165 73 224 116 130 97
234 267 304 495 55 182 158 407 235 515 59 83 203 218 265 250 81 41 201 53
317 32 150 -28 142 -30 254 78 96 92 186 155 221 155 10 0 46 -15 82 -34 60
-32 66 -33 117 -24 73 13 162 44 229 79 80 42 190 126 190 145 0 13 -5 12 -27
-5 -124 -96 -240 -157 -349 -185 -85 -22 -100 -21 -156 15 -41 26 -56 31 -92
27 -58 -7 -132 -57 -231 -157 -44 -45 -88 -84 -97 -87 -9 -3 -54 2 -99 11
-104 19 -218 19 -294 0 -130 -34 -288 -177 -398 -360 -53 -89 -138 -290 -191
-454 -71 -218 -137 -333 -249 -438 -64 -60 -202 -139 -283 -163 -38 -11 -47
-10 -95 12 -30 14 -79 31 -109 38 -66 16 -145 51 -227 102 -61 39 -62 40 -69
94 -5 41 -10 54 -23 54 -9 0 -259 -18 -556 -40 -297 -22 -579 -43 -627 -47
l-86 -6 -19 37 c-15 31 -34 46 -111 87 l-94 48 -191 2 -192 1 -117 -133 c-80
-92 -118 -143 -123 -165 -5 -27 -16 -39 -61 -65 -51 -29 -61 -31 -118 -26
-247 23 -655 177 -904 340 -260 171 -497 417 -680 708 -199 316 -311 640 -359
1037 -9 78 -21 142 -25 142 -5 0 -6 -17 -3 -37 2 -21 7 -74 10 -118 45 -628
436 -1317 958 -1694 274 -196 701 -370 962 -389 l90 -7 -44 -28 -43 -29 -72
19 c-109 28 -281 23 -576 -17 -206 -28 -277 -34 -445 -34 -219 -1 -302 11
-505 76 -161 52 -236 96 -277 166 -49 83 -11 157 112 218 41 20 75 40 75 43 0
3 -37 23 -83 44 -45 20 -112 60 -148 87 -109 81 -144 154 -137 281 3 61 11 90
46 165 72 155 62 179 -125 295 -245 152 -290 184 -364 258 -84 86 -139 181
-160 278 -21 100 18 286 82 390 18 29 19 33 4 33 -10 0 -27 -23 -45 -62z
m3105 -1877 c17 -46 25 -84 23 -113 l-3 -42 -132 -83 -133 -82 -1 52 c-2 71 1
89 14 108 12 17 201 229 204 229 1 0 13 -31 28 -69z m353 24 c2 -22 9 -43 15
-47 7 -4 38 -8 69 -8 99 0 101 -2 138 -130 6 -21 12 -25 41 -23 291 19 1212
64 1223 60 12 -5 16 -21 16 -67 0 -74 27 -257 41 -279 10 -16 6 83 -7 147 -4
21 -1 29 18 37 17 7 25 22 32 58 4 26 13 47 20 46 6 0 40 -15 76 -32 61 -31
65 -35 68 -70 4 -51 37 -73 89 -60 28 6 39 14 41 31 2 12 8 22 14 22 5 0 105
-46 221 -101 495 -237 760 -360 764 -355 2 2 0 21 -6 43 -15 54 -14 56 19 36
30 -17 32 -17 70 5 l39 22 53 -32 c88 -52 88 -52 88 -133 l0 -72 -36 -6 c-47
-8 51 -29 -1379 292 -1379 308 -1967 438 -2005 443 -23 3 -26 8 -31 63 -3 33
-13 80 -22 104 -10 24 -17 45 -17 47 0 3 78 3 173 2 l172 -3 3 -40z m72 -5
l35 -19 -37 -1 c-21 0 -38 2 -38 4 0 2 -3 11 -6 20 -8 21 3 20 46 -4z m1420
-70 c0 -25 -5 -40 -12 -40 -7 0 -285 -16 -617 -35 -332 -19 -608 -32 -613 -29
-4 3 -8 16 -8 29 0 31 -19 28 445 61 209 14 452 32 540 39 88 7 184 13 213 14
l52 1 0 -40z m58 -92 c17 -17 16 -118 -2 -118 -13 0 -26 48 -26 103 0 29 9 34
28 15z m-1518 -108 c173 -39 915 -206 1648 -370 733 -165 1337 -302 1342 -305
6 -3 10 -23 10 -44 0 -22 6 -44 15 -51 10 -8 15 -31 15 -67 0 -47 -2 -54 -17
-49 -18 5 -2261 410 -2948 532 -203 36 -376 68 -382 70 -13 3 -19 95 -8 106 6
6 175 -28 705 -142 157 -33 299 -63 315 -65 116 -18 -546 144 -815 199 l-205
42 -3 113 c-1 62 1 110 5 108 4 -3 150 -37 323 -77z m-360 -44 l0 -94 -636
-322 c-349 -177 -637 -320 -639 -318 -3 2 6 20 19 39 17 24 82 71 217 154 107
66 381 236 609 377 228 142 418 258 423 258 4 0 7 -42 7 -94z m-290 7 c0 -16
-4 -34 -9 -42 -9 -14 -914 -582 -919 -576 -2 1 4 20 13 41 15 36 44 57 337
244 176 113 332 212 346 220 14 8 66 43 116 77 50 34 97 62 104 63 7 0 12 -12
12 -27z m2471 11 c4 -2 5 -13 2 -24 -4 -15 -14 -20 -39 -20 -19 0 -34 3 -34 8
0 4 -3 18 -7 31 -6 23 -5 24 33 16 21 -4 42 -9 45 -11z m-2181 -204 c0 -49 -3
-60 -17 -60 -9 0 -134 -61 -277 -136 -144 -75 -477 -249 -741 -387 -264 -137
-677 -353 -918 -478 -241 -126 -440 -229 -443 -229 -3 0 -4 21 -2 46 l3 46
238 149 c131 82 242 149 246 149 4 0 20 -13 36 -30 36 -38 54 -38 85 0 23 29
145 91 330 170 54 23 70 36 97 76 17 27 39 59 50 71 15 19 1282 671 1306 673
4 0 7 -27 7 -60z m23 -89 c14 -6 78 -19 143 -31 165 -29 154 -24 154 -76 0
-39 -3 -45 -17 -40 -10 3 -75 17 -145 31 l-127 27 -82 -46 c-45 -26 -83 -45
-84 -44 -1 2 -5 26 -8 53 l-7 50 73 41 c39 23 73 42 74 43 1 1 13 -3 26 -8z
m441 -86 l39 -7 -89 -57 -89 -57 3 -48 c4 -46 6 -49 43 -64 l39 -15 0 -729 0
-728 -49 0 -49 0 -6 93 c-3 50 -17 394 -30 762 l-23 670 43 45 c37 39 44 53
50 101 l6 56 37 -7 c20 -4 54 -11 75 -15z m2700 -7 c3 -17 4 -33 2 -35 -2 -2
-25 6 -51 19 l-47 23 29 12 c46 20 60 16 67 -19z m-3334 -23 c0 -26 -16 -31
-55 -16 -18 7 -17 9 10 24 40 22 45 21 45 -8z m834 -5 c59 -11 111 -22 117
-25 11 -7 12 -62 2 -68 -5 -3 -58 11 -120 31 l-112 35 -94 -61 c-51 -34 -96
-62 -100 -62 -4 0 -7 11 -7 25 0 21 16 36 92 85 51 33 97 60 103 60 6 0 60 -9
119 -20z m-486 -24 c63 -13 115 -26 118 -28 2 -3 -9 -17 -25 -32 l-29 -28 -35
26 c-18 14 -48 29 -65 32 -42 9 -120 -12 -159 -42 l-33 -25 -37 19 -37 19 25
15 c81 50 117 67 139 68 14 0 76 -11 138 -24z m-375 -21 c28 -4 37 -11 37 -25
0 -10 10 -26 22 -34 28 -20 14 -20 -71 0 l-69 15 -70 -45 c-39 -26 -75 -46
-81 -46 -6 0 -11 17 -11 38 0 37 2 39 73 74 72 37 77 38 170 23z m1096 3 c36
-6 70 -14 74 -18 4 -4 -28 -31 -73 -60 -77 -51 -80 -54 -80 -91 0 -34 5 -41
45 -69 l45 -31 2 -694 3 -695 -62 0 -61 0 -6 103 c-5 83 -50 1093 -58 1324 -2
61 -2 64 40 106 37 38 42 48 42 90 0 53 -3 52 89 35z m-235 -48 c55 -17 101
-31 102 -33 1 -1 -10 -18 -26 -37 l-29 -35 -28 27 c-63 59 -172 58 -240 -4
-20 -19 -63 -18 -63 0 0 9 161 111 175 112 6 0 55 -14 109 -30z m477 5 c136
-25 129 -22 129 -55 0 -17 -4 -30 -9 -30 -5 0 -57 11 -115 25 -58 14 -114 25
-123 25 -10 0 -52 -23 -93 -50 -41 -27 -78 -50 -82 -50 -5 0 -8 8 -8 18 0 21
165 132 196 132 12 0 59 -7 105 -15z m-963 -15 c18 -11 37 -30 42 -42 12 -28
63 -1510 52 -1518 -4 -3 -52 -3 -107 0 -60 3 -123 1 -159 -6 l-58 -12 7 757
c4 416 9 764 12 774 6 24 98 67 143 67 19 0 50 -9 68 -20z m-638 -55 c0 -38
-11 -42 -80 -29 l-32 7 49 28 c26 16 51 29 56 29 4 0 7 -16 7 -35z m300 14
l100 -22 0 -34 0 -35 -35 22 c-52 32 -165 26 -222 -12 l-40 -26 -33 20 -33 20
69 44 c38 24 74 44 81 44 7 0 57 -10 113 -21z m1556 9 c35 -6 64 -14 64 -17 0
-3 -30 -26 -65 -50 -68 -45 -72 -54 -59 -117 4 -21 16 -34 45 -48 l39 -19 0
-111 c1 -61 11 -363 24 -671 13 -308 21 -562 17 -565 -3 -3 -40 -4 -83 -2
l-76 4 -6 66 c-3 37 -18 359 -33 715 l-26 649 26 54 c15 30 27 70 27 89 0 41
6 42 106 23z m-269 -34 c59 -14 114 -27 121 -29 12 -4 9 -13 -24 -63 -1 -2
-19 8 -41 21 -21 14 -53 28 -70 32 -43 9 -133 -18 -172 -51 -29 -24 -31 -24
-56 -8 -14 9 -23 19 -20 23 5 5 145 97 152 100 1 1 50 -10 110 -25z m-504 2
c18 -7 42 -24 54 -37 21 -23 22 -40 53 -752 17 -401 29 -731 26 -734 -3 -3
-76 -2 -163 3 l-158 9 -3 731 c-2 712 -2 731 17 748 23 21 86 45 119 46 12 0
37 -6 55 -14z m1125 -31 c17 -4 22 -12 22 -40 l0 -34 -47 14 c-27 7 -80 22
-120 33 l-71 20 -82 -55 c-45 -30 -84 -53 -86 -51 -2 2 -5 15 -6 29 -3 20 10
32 74 75 l76 52 109 -19 c59 -11 118 -21 131 -24z m-2262 -19 c75 -13 144 -48
144 -72 0 -19 -17 -18 -131 7 l-97 21 -64 -41 c-55 -35 -64 -38 -70 -23 -18
45 -9 61 50 91 65 34 71 35 168 17z m420 -31 l32 -25 -5 -417 c-3 -230 -8
-548 -12 -708 l-6 -290 -125 -27 c-69 -15 -128 -27 -133 -27 -8 -1 -9 1431 -1
1466 6 21 46 42 109 57 41 10 108 -4 141 -29z m2011 16 c11 -6 -3 -19 -51 -51
-55 -35 -66 -47 -66 -70 0 -51 12 -90 28 -90 9 0 30 -5 48 -12 l31 -11 7 -481
c3 -265 9 -556 12 -648 l7 -168 -57 0 c-40 0 -56 4 -56 14 0 7 -16 296 -35
642 -42 754 -42 737 -13 776 14 21 21 46 21 76 l0 44 55 -6 c30 -4 61 -10 69
-15z m-772 -17 c67 -31 61 16 94 -759 17 -390 29 -711 26 -713 -2 -2 -76 -1
-164 3 l-161 7 0 363 c0 199 -3 517 -7 707 l-6 344 37 23 c68 43 127 51 181
25z m499 -14 c60 -16 111 -31 113 -34 10 -9 -23 -47 -37 -42 -8 3 -35 12 -60
21 -59 22 -130 14 -183 -21 -34 -22 -43 -24 -64 -15 -14 6 -23 16 -21 21 3 9
127 98 138 99 3 0 54 -13 114 -29z m473 -2 c122 -21 123 -21 123 -49 l0 -27
-57 14 c-32 7 -86 19 -119 25 l-62 12 -80 -56 c-44 -32 -83 -57 -86 -57 -3 0
-6 16 -6 35 0 32 6 38 67 80 37 25 74 45 82 45 8 0 70 -10 138 -22z m-2877
-53 l0 -36 -52 7 c-29 4 -55 8 -56 10 -4 3 89 53 101 54 4 0 7 -16 7 -35z
m283 3 c106 -22 107 -22 107 -50 l0 -29 -32 18 c-52 28 -154 23 -218 -10 -48
-25 -53 -26 -76 -10 -14 8 -23 20 -22 24 4 11 110 78 123 79 6 0 58 -10 118
-22z m2840 7 c26 -4 47 -10 47 -14 0 -3 -30 -26 -66 -50 -35 -25 -68 -49 -73
-55 -4 -6 -6 -30 -3 -52 3 -37 8 -44 43 -60 24 -10 41 -26 43 -38 4 -19 27
-1037 26 -1164 l0 -53 -42 3 -43 3 -44 684 -44 685 31 26 c26 21 32 34 32 64
0 34 2 38 23 33 12 -3 43 -9 70 -12z m-3689 -52 c-82 -142 -65 -127 -260 -219
-105 -50 -192 -97 -211 -116 l-33 -32 -27 27 c-15 14 -25 28 -22 30 9 8 574
357 577 357 2 0 -9 -21 -24 -47z m3459 18 c49 -11 91 -21 93 -23 2 -3 -7 -15
-21 -28 -24 -22 -26 -23 -44 -6 -45 41 -144 29 -206 -25 -32 -28 -33 -28 -64
-13 l-32 16 43 31 c24 17 57 41 73 53 17 12 39 21 50 18 11 -2 60 -13 108 -23z
m535 -26 c6 -2 12 -16 12 -30 0 -30 1 -30 -131 -4 l-106 21 -71 -51 c-38 -28
-73 -51 -76 -51 -3 0 -6 10 -6 23 0 16 19 35 72 72 40 28 79 53 87 56 13 5
186 -23 219 -36z m-1017 25 c69 -19 64 19 103 -695 20 -357 36 -666 36 -685
l0 -35 -147 8 c-82 5 -149 10 -149 10 -1 1 -14 303 -28 670 -20 498 -24 672
-16 682 20 24 94 55 130 55 19 0 51 -5 71 -10z m-2391 -50 c40 -28 66 -60 49
-60 -24 0 -156 27 -167 34 -6 4 -47 -11 -91 -33 -66 -34 -80 -38 -85 -25 -14
36 -5 53 47 83 50 30 55 31 137 25 58 -4 93 -12 110 -24z m3521 10 c11 0 19
-4 19 -9 0 -8 -81 -61 -94 -61 -3 0 -6 19 -6 41 0 41 0 41 31 35 17 -3 40 -6
50 -6z m-3183 -27 l27 -20 0 -394 c0 -217 -1 -514 -3 -660 l-3 -266 -107 -22
c-59 -13 -117 -25 -128 -28 -18 -4 -22 1 -27 29 -3 18 -7 324 -9 679 -2 534 0
649 11 663 38 45 188 57 239 19z m3451 -28 c5 -3 8 -13 7 -23 -4 -21 -26 -21
-153 -2 -89 13 -92 13 -110 -7 -10 -11 -35 -33 -55 -48 l-38 -27 0 29 c0 25 9
34 75 74 l75 46 95 -18 c52 -10 99 -21 104 -24z m-898 7 l32 -29 43 -659 c23
-362 41 -661 39 -663 -2 -2 -73 1 -157 5 l-153 9 -2 155 c-2 85 -7 373 -12
640 -11 542 -15 511 61 549 61 30 110 28 149 -7z m401 3 c114 -23 118 -25 118
-39 0 -7 -9 -21 -20 -31 -18 -17 -21 -16 -65 5 -57 28 -114 23 -185 -16 -44
-24 -50 -25 -70 -11 -21 14 -20 16 42 60 35 25 73 46 85 46 12 1 55 -6 95 -14z
m-3332 -35 c92 -16 100 -19 100 -41 0 -23 1 -23 -39 -3 -44 22 -132 15 -194
-16 -44 -22 -49 -23 -80 -8 l-32 15 70 36 c39 20 79 35 90 32 11 -2 49 -9 85
-15z m4055 -10 c60 -11 110 -20 112 -20 7 0 2 -39 -5 -44 -4 -2 -55 6 -112 20
l-104 24 -68 -45 c-58 -39 -68 -42 -68 -26 0 19 103 110 126 111 5 0 59 -9
119 -20z m-332 -21 c47 -8 75 -17 72 -23 -3 -6 -8 -19 -11 -29 -5 -12 -12 -16
-23 -11 -9 5 -44 10 -79 12 -49 3 -70 0 -96 -16 -27 -16 -37 -17 -60 -8 l-28
11 58 43 c32 23 65 40 74 38 8 -3 50 -10 93 -17z m-4017 -9 c13 -5 24 -13 24
-18 0 -5 18 -17 40 -27 68 -30 44 -35 -40 -7 l-79 26 -71 -48 c-39 -27 -72
-47 -74 -45 -2 2 -6 19 -7 37 -4 31 0 35 56 67 62 35 90 38 151 15z m3663 -27
l29 -28 43 -622 c24 -342 40 -625 37 -628 -6 -6 -276 10 -283 17 -7 7 -36
1229 -29 1240 12 19 89 48 131 48 33 0 49 -6 72 -27z m-3303 -12 l31 -19 6
-622 c4 -343 6 -624 4 -626 -5 -5 -241 -54 -244 -50 -3 3 -22 1021 -23 1218
l0 86 43 15 c61 22 145 21 183 -2z m3390 -9 c7 -19 21 -31 45 -38 27 -8 35
-16 42 -47 5 -20 7 -44 3 -52 -8 -22 -105 -69 -110 -53 -8 25 -17 199 -11 208
10 17 20 11 31 -18z m623 2 l73 -17 -21 -20 c-20 -20 -21 -20 -60 -2 -52 23
-120 15 -174 -21 -31 -20 -41 -23 -53 -13 -20 17 -16 24 41 64 55 39 61 39
194 9z m-4334 -36 c33 -12 64 -24 69 -29 18 -16 -2 -20 -45 -9 -51 14 -116 1
-170 -35 -34 -22 -36 -22 -58 -6 l-22 17 68 46 c38 26 75 44 83 41 8 -3 42
-14 75 -25z m-246 -82 c17 -20 9 -20 -54 -1 l-49 15 -57 -35 c-31 -19 -60 -35
-64 -35 -3 0 -5 12 -3 27 3 23 18 36 98 80 l95 52 10 -43 c6 -24 16 -51 24
-60z m4259 77 c13 -8 25 -20 27 -26 7 -22 67 -1208 62 -1214 -3 -2 -59 -2
-125 2 l-119 7 -6 167 c-21 547 -30 1052 -20 1062 30 30 136 31 181 2z m311
-30 c20 -17 24 -50 71 -588 27 -313 51 -587 54 -609 l4 -38 -131 7 c-73 4
-135 10 -140 14 -8 8 -57 1158 -50 1178 8 21 87 53 129 53 25 0 50 -7 63 -17z
m-5242 -24 l22 -22 -222 -139 -222 -139 -6 33 c-3 19 0 39 6 46 11 12 384 241
394 242 3 0 15 -10 28 -21z m5023 -57 c0 -26 9 -265 20 -532 22 -532 23 -607
13 -597 -3 4 -19 229 -34 500 -15 270 -30 539 -34 595 -7 103 -7 104 14 93 17
-9 21 -21 21 -59z m-4050 32 c16 -18 18 -63 25 -610 l6 -590 -106 -23 c-59
-13 -108 -21 -110 -19 -1 1 -9 274 -16 606 -14 672 -18 620 57 648 49 18 121
12 144 -12z m-550 -52 c0 -21 6 -44 13 -51 10 -11 4 -12 -33 -8 -37 3 -54 -1
-93 -24 -26 -16 -52 -29 -57 -29 -14 0 -12 47 3 60 14 13 149 88 160 89 4 1 7
-16 7 -37z m235 16 c58 -17 75 -26 75 -40 0 -15 -3 -17 -19 -8 -34 18 -121 12
-169 -12 -44 -21 -71 -18 -79 8 -3 10 85 72 105 73 7 1 46 -9 87 -21z m4066
-145 c0 -65 6 -308 12 -541 l12 -422 -32 0 c-22 0 -33 5 -33 14 0 8 -16 229
-35 493 -19 263 -35 488 -35 500 0 17 12 29 48 47 26 14 50 25 55 26 4 0 7
-53 8 -117z m-4009 66 c10 -5 18 -20 19 -32 11 -332 24 -1094 19 -1100 -10
-12 -209 -51 -217 -43 -9 9 -27 1146 -19 1154 3 3 29 13 58 23 53 19 103 18
140 -2z m-492 -38 c0 -16 3 -37 7 -46 5 -15 1 -16 -25 -11 -23 6 -44 0 -90
-23 -62 -31 -72 -31 -72 3 0 16 19 31 78 62 95 51 102 52 102 15z m208 13 c46
-6 52 -9 52 -30 0 -22 -4 -24 -53 -24 -33 0 -67 -7 -91 -19 -35 -19 -40 -19
-62 -4 -28 18 -30 15 27 53 49 32 53 32 127 24z m51 -90 c7 -6 20 -1069 13
-1075 -6 -5 -165 -39 -184 -39 -5 0 -8 245 -8 545 0 528 1 545 19 555 45 24
140 32 160 14z m-459 -24 c0 -28 -6 -33 -66 -60 -36 -17 -68 -30 -70 -30 -2 0
-4 11 -4 24 0 19 13 32 63 60 34 19 65 35 70 36 4 0 7 -14 7 -30z m234 10 c44
-16 33 -38 -17 -33 -31 4 -58 -1 -96 -17 -47 -21 -54 -22 -68 -7 -14 14 -11
18 33 41 52 26 106 32 148 16z m-176 -109 c-2 -12 -12 -15 -36 -13 -19 2 -49
-5 -71 -17 -38 -19 -39 -19 -56 -1 -17 19 -17 20 6 29 13 5 44 18 69 29 41 17
47 18 68 4 13 -8 22 -22 20 -31z m190 37 c9 -9 12 -138 12 -520 l0 -508 -22
-10 c-28 -11 -188 -43 -193 -38 -5 5 34 1008 40 1034 9 40 133 72 163 42z
m-408 -17 c0 -22 -7 -27 -82 -70 l-58 -32 0 30 c0 27 7 34 58 60 67 35 82 37
82 12z m35 -71 c18 -19 17 -20 -6 -20 -14 0 -49 -12 -78 -26 -38 -19 -55 -24
-64 -15 -13 13 -15 11 53 50 65 36 71 37 95 11z m-195 -22 c0 -4 -36 -26 -81
-48 -78 -40 -80 -40 -77 -18 2 17 21 33 73 60 66 34 84 36 85 6z m370 -30 c-2
-145 -37 -938 -43 -944 -7 -8 -139 -36 -144 -31 -2 2 11 231 28 508 26 423 34
506 47 517 9 6 37 12 64 12 l48 0 0 -62z m-160 -35 c0 -57 -59 -945 -63 -949
-7 -7 -157 -37 -162 -32 -3 2 11 180 30 394 19 214 37 423 40 464 9 114 11
119 58 140 23 11 54 20 70 20 25 0 27 -3 27 -37z m-187 13 c20 -16 23 -40 3
-33 -22 9 -82 -11 -114 -38 -27 -22 -30 -23 -46 -7 -15 16 -12 19 56 54 84 43
78 41 101 24z m4 -64 c9 -5 1 -120 -31 -469 -23 -254 -45 -465 -48 -469 -6 -6
-171 -45 -174 -41 -3 2 101 813 113 892 7 46 11 52 53 73 46 23 67 27 87 14z
m-266 -98 c98 -28 96 -20 65 -266 -15 -117 -31 -215 -34 -218 -4 -3 -124 -3
-267 1 -210 6 -277 11 -350 28 -123 29 -239 88 -317 163 -35 33 -54 56 -43 52
122 -45 167 -57 225 -57 90 -2 126 19 241 135 71 73 111 105 155 125 116 53
224 65 325 37z m2774 -405 c67 -8 1273 -107 2805 -229 558 -44 534 -41 547
-59 20 -26 15 -32 -24 -26 -21 3 -443 30 -938 60 -495 30 -966 59 -1048 65
-81 5 -157 9 -170 9 -22 -1 181 -27 378 -48 104 -12 1696 -109 1845 -114 l85
-2 6 -85 c4 -47 5 -87 3 -89 -1 -2 -502 6 -1111 18 -609 12 -1262 24 -1451 28
l-343 6 -27 46 c-14 25 -31 49 -37 53 -5 4 -98 8 -205 9 -253 2 -254 2 -260
59 -5 45 -5 45 -50 51 -25 4 -80 10 -122 14 l-78 7 0 123 0 124 58 -5 c31 -2
93 -9 137 -15z m-235 -104 l0 -114 -32 -6 c-18 -3 -454 -59 -968 -125 -514
-67 -1072 -139 -1239 -161 -167 -22 -306 -37 -309 -34 -3 3 -1 9 4 15 5 5 236
56 514 115 278 58 843 177 1255 264 413 88 756 160 763 160 9 1 12 -28 12
-114z m2545 -30 c413 -25 764 -45 782 -45 22 0 36 -6 43 -21 7 -11 10 -22 8
-24 -3 -3 -1447 113 -1593 128 -134 13 101 2 760 -38z m-2547 -222 l-3 -108
-625 -27 c-344 -15 -885 -39 -1203 -53 -317 -15 -585 -25 -594 -23 -9 2 363
52 828 112 464 59 1006 130 1204 156 198 26 368 48 378 49 16 1 17 -9 15 -106z
m-2577 74 l34 -23 -2 -83 c-2 -46 -7 -89 -13 -96 -5 -7 -22 -34 -36 -61 -21
-40 -28 -70 -35 -159 -5 -60 -11 -124 -14 -141 l-5 -30 -118 -18 c-64 -9 -181
-28 -260 -42 -79 -15 -146 -23 -149 -20 -12 11 28 360 47 414 59 166 236 280
441 281 64 1 82 -3 110 -22z m2792 6 c45 -5 47 -7 47 -37 0 -68 3 -69 258 -80
l231 -9 12 -29 c6 -16 10 -30 8 -31 -11 -7 -709 9 -716 16 -4 5 -10 49 -12 99
l-3 91 63 -7 c35 -4 85 -9 112 -13z m3547 -375 c45 -126 183 -395 313 -611 59
-98 105 -182 102 -188 -13 -20 -41 -7 -68 32 -43 62 -81 81 -148 74 l-56 -6
-58 146 c-32 80 -64 150 -71 156 -10 8 -20 1 -45 -34 l-32 -45 -93 279 c-52
153 -94 281 -94 284 0 3 49 5 109 5 l108 0 33 -92z m-1916 -433 c6 -8 -3 -28
-27 -59 -20 -26 -43 -67 -53 -91 l-16 -44 -33 24 c-17 14 -45 30 -62 35 l-30
11 -17 197 c-9 108 -19 224 -22 257 l-6 60 128 -189 c71 -103 133 -194 138
-201z m2599 339 c13 -5 13 -12 1 -56 -7 -28 -17 -55 -22 -60 -5 -5 -62 -7
-128 -6 l-119 3 -3 63 -3 62 130 0 c71 0 136 -3 144 -6z m-1801 -180 c48 -71
93 -136 102 -143 21 -18 36 -5 36 32 0 18 3 43 7 56 5 20 13 10 50 -70 l44
-94 -33 -25 c-54 -40 -107 -98 -129 -142 l-21 -40 -35 33 c-48 47 -58 70 -76
179 -15 86 -47 331 -47 354 0 15 7 5 102 -140z m-2077 -19 c36 -125 103 -259
165 -328 l52 -57 -65 -69 c-98 -104 -123 -208 -82 -347 51 -176 137 -246 304
-248 l83 -1 -5 -58 c-3 -32 -7 -60 -9 -62 -3 -2 -159 5 -434 20 l-121 7 -6 67
c-3 36 -22 136 -41 221 -41 188 -69 356 -64 402 3 33 4 32 64 -57 34 -49 76
-103 94 -120 l32 -30 -8 75 c-9 87 -7 667 3 683 4 6 8 7 10 2 1 -6 14 -50 28
-100z m-2336 -320 c-4 -329 -6 -375 -19 -371 -82 28 -102 30 -157 18 -32 -6
-84 -25 -115 -40 -32 -16 -58 -27 -58 -25 0 2 31 65 69 141 76 152 179 393
236 550 20 56 40 102 42 102 3 0 4 -169 2 -375z m6184 223 c4 -83 7 -203 7
-267 l0 -116 -83 0 -84 0 -6 259 c-3 143 -4 263 -1 268 3 4 40 8 83 8 l78 0 6
-152z m-7073 124 c0 -10 -5 -45 -12 -76 -8 -43 -17 -60 -32 -66 -21 -9 -743
-110 -784 -110 -10 0 -12 15 -10 63 3 61 4 62 33 65 17 1 149 25 295 52 146
27 317 58 380 68 63 11 118 20 123 21 4 0 7 -7 7 -17z m1424 -67 c19 -168 155
-818 175 -838 13 -13 31 0 31 22 0 25 14 58 118 268 l90 182 32 -92 c17 -51
56 -148 85 -217 29 -69 68 -161 85 -205 17 -44 51 -114 76 -156 24 -42 44 -79
44 -82 0 -4 -31 -7 -69 -7 -39 0 -206 -9 -373 -20 -263 -18 -399 -31 -575 -56
l-42 -7 34 95 c53 149 162 620 257 1111 7 31 15 57 18 57 4 0 10 -25 14 -55z
m5926 -25 c0 -5 -7 -28 -16 -50 l-17 -41 -60 3 -61 3 -12 40 c-11 39 -10 40
15 46 42 11 151 10 151 -1z m-2500 -45 c34 -17 53 -41 84 -102 33 -67 33 -80
-4 -88 -40 -9 -118 -68 -159 -121 -43 -56 -81 -151 -88 -220 -7 -61 -11 -63
-77 -35 -185 80 -224 349 -70 491 96 88 226 119 314 75z m-4890 -42 c0 -5 -5
-25 -11 -45 -9 -35 -13 -38 -47 -38 -43 0 -95 -29 -113 -62 -9 -16 -10 -62 -6
-168 6 -120 4 -152 -10 -187 -8 -24 -20 -43 -24 -43 -5 0 -10 71 -11 158 -2
230 -2 226 -28 252 -39 39 -125 15 -166 -48 -17 -25 -19 -53 -19 -317 0 -287
0 -290 -21 -293 -21 -3 -21 0 -29 285 -8 307 -11 327 -60 359 -45 29 -109 -6
-147 -79 -18 -37 -20 -52 -14 -147 3 -58 6 -181 7 -275 l1 -170 -24 -3 -25 -3
-6 137 c-4 75 -7 239 -7 364 l0 227 183 23 c100 13 265 35 367 50 220 33 210
32 210 23z m5969 -42 c123 -38 201 -106 258 -223 39 -80 53 -147 53 -256 0
-210 -74 -335 -247 -419 -76 -37 -81 -38 -188 -38 -94 0 -123 4 -198 29 -107
35 -154 68 -202 140 -53 80 -76 149 -82 241 -11 164 45 320 149 422 109 106
306 151 457 104z m1381 -452 c0 -252 -2 -459 -4 -459 -7 0 -86 119 -86 129 0
7 9 40 21 74 31 91 29 185 -5 266 l-27 64 7 196 7 196 43 -4 44 -3 0 -459z
m-7386 383 c4 -8 -54 -170 -90 -247 l-18 -40 -7 110 c-7 124 0 147 54 170 37
16 54 18 61 7z m-236 -40 c17 -17 20 -44 26 -240 l6 -222 -44 -77 c-35 -63
-50 -80 -75 -87 -17 -5 -33 -7 -35 -5 -2 2 -7 129 -11 281 -9 308 -9 308 58
348 40 25 52 25 75 2z m4645 -20 c26 -14 51 -30 56 -36 4 -6 13 -44 20 -84 6
-41 22 -95 35 -120 43 -84 123 -142 196 -142 16 0 30 -4 30 -9 0 -15 -106
-109 -149 -130 -96 -49 -211 -34 -295 40 -33 30 -50 54 -58 84 -11 39 -15 43
-49 48 -80 11 -138 85 -139 178 0 86 74 167 180 195 58 16 113 8 173 -24z
m893 -7 c24 -14 59 -46 78 -71 l35 -46 -21 -51 c-30 -74 -37 -242 -13 -323 9
-32 25 -74 36 -92 27 -46 25 -56 -22 -96 -63 -54 -125 -71 -254 -71 -105 0
-114 2 -177 33 -111 55 -157 125 -182 278 -15 98 -6 155 41 248 70 140 161
203 328 229 36 5 108 -13 151 -38z m-5811 -5 c22 -24 31 -129 38 -417 5 -219
16 -198 -98 -209 l-70 -6 -4 265 c-4 291 0 320 50 362 37 30 60 32 84 5z
m4492 5 c69 -21 81 -36 60 -81 -10 -19 -17 -59 -17 -90 0 -43 -6 -63 -27 -96
-25 -37 -28 -50 -27 -117 1 -42 6 -88 12 -103 9 -23 7 -32 -17 -66 -59 -81
-172 -132 -290 -132 -98 0 -139 15 -191 69 -57 58 -90 140 -97 242 -5 67 -3
83 20 132 82 180 371 302 574 242z m-1457 -170 c85 -219 230 -620 230 -638 0
-3 -257 -16 -440 -21 -31 -1 -35 2 -34 24 0 14 35 189 78 390 42 201 79 378
82 393 3 16 10 25 14 20 4 -4 36 -80 70 -168z m4286 9 l52 -55 72 22 c59 18
86 21 148 15 93 -8 123 -25 176 -99 l41 -58 0 -102 c-1 -93 -4 -108 -32 -167
-45 -94 -87 -146 -144 -181 -66 -41 -93 -92 -87 -166 3 -32 12 -61 23 -73 10
-11 16 -22 14 -24 -2 -2 -31 -13 -64 -26 -43 -16 -84 -23 -145 -24 -81 -1 -88
1 -165 41 -44 22 -90 52 -102 64 -63 69 -129 221 -152 353 -38 214 26 401 173
508 31 22 50 28 90 28 48 0 52 -2 102 -56z m-6418 26 c22 -14 42 -40 60 -78
38 -83 36 -177 -7 -297 -39 -109 -47 -145 -33 -145 6 0 25 20 41 44 44 64 145
150 226 193 56 29 83 37 140 41 61 3 74 1 104 -20 94 -64 106 -234 29 -389
-28 -56 -139 -189 -158 -189 -5 0 -11 35 -15 78 -9 102 -21 138 -48 146 -36
10 -157 7 -178 -4 -15 -8 -139 -186 -204 -294 -11 -18 -335 -102 -359 -93 -35
14 -56 213 -37 362 35 285 179 573 323 644 53 26 74 26 116 1z m3723 -209 c20
-12 51 -21 68 -21 25 0 31 -4 31 -20 0 -80 118 -180 213 -180 40 0 57 -15 57
-51 0 -36 -19 -54 -81 -74 -67 -23 -178 -17 -235 13 -112 57 -194 230 -163
344 17 66 28 74 53 39 12 -17 37 -39 57 -50z m2289 -173 c0 -110 23 -230 61
-318 l21 -48 -40 -36 c-40 -37 -61 -88 -77 -193 -4 -24 -12 -43 -17 -43 -8 0
-9 29 -4 93 14 166 18 150 -41 153 -28 1 -68 10 -87 19 -33 16 -106 86 -106
103 0 4 20 20 45 35 94 60 151 149 186 290 10 40 15 47 35 47 24 0 24 -1 24
-102z m-1651 30 c35 -166 135 -262 308 -297 l88 -18 0 -84 0 -84 -40 4 c-22 2
-148 16 -279 30 l-240 27 -7 27 c-9 35 -29 217 -29 270 0 41 1 43 58 72 31 17
73 47 92 67 19 20 36 37 37 37 1 1 6 -23 12 -51z m-711 -123 c43 -61 100 -99
177 -120 l65 -18 0 -58 c0 -33 -1 -62 -2 -66 -3 -7 -15 -7 -253 10 l-160 12
-3 85 -2 85 46 30 c25 17 54 42 65 58 11 15 24 27 28 27 4 0 21 -20 39 -45z
m497 -77 c0 -62 4 -137 8 -166 l8 -53 -33 3 c-32 3 -33 5 -28 38 3 19 5 92 5
163 0 120 1 127 20 127 19 0 20 -7 20 -112z m-4890 10 c-61 -93 -154 -207
-239 -296 -70 -73 -105 -100 -160 -127 -38 -19 -74 -32 -78 -29 -4 3 -8 102
-8 220 0 163 3 216 13 219 18 6 491 62 496 58 2 -1 -9 -22 -24 -45z m5919 -83
c13 -7 22 -33 31 -85 23 -137 26 -190 12 -190 -6 0 -91 11 -187 25 -96 14
-178 25 -182 25 -10 0 -9 145 0 178 5 17 26 31 75 52 37 15 84 42 105 58 l37
30 45 -41 c26 -23 54 -47 64 -52z m1737 52 c43 -54 43 -54 -19 -49 -31 2 -59
6 -61 8 -5 4 42 74 49 74 3 0 17 -15 31 -33z m-3464 -62 l1 -75 -35 0 c-34 0
-35 1 -29 31 3 17 6 49 6 70 0 36 7 43 45 48 6 1 11 -29 12 -74z m633 8 c0
-32 -3 -75 -7 -96 -5 -35 -8 -38 -37 -35 l-31 3 -3 78 -3 78 33 14 c18 8 36
14 41 15 4 0 7 -26 7 -57z m-104 -25 c-3 -29 -6 -63 -6 -75 0 -18 -6 -23 -27
-23 -28 0 -28 0 -28 70 0 72 2 76 49 79 17 1 18 -4 12 -51z m-3647 3 c21 -14
30 -140 30 -462 l1 -296 -220 -7 c-121 -4 -226 -9 -233 -12 -13 -5 -127 138
-127 159 0 24 201 353 327 535 l64 92 72 0 c40 0 78 -4 86 -9z m4496 -18 c-4
-10 -10 -53 -13 -95 -4 -66 -7 -78 -22 -78 -16 0 -17 4 -8 37 6 21 8 61 4 89
-6 55 -3 64 27 64 14 0 17 -4 12 -17z m425 -9 c6 -14 10 -36 10 -49 0 -13 5
-36 11 -52 l11 -28 46 53 c26 28 55 52 65 52 16 0 14 -5 -11 -42 -27 -42 -55
-101 -67 -145 -4 -16 -14 -23 -30 -23 -21 0 -24 6 -35 88 -7 48 -18 106 -25
130 -11 36 -11 42 1 42 8 0 19 -12 24 -26z m76 -9 c13 -4 12 -10 -7 -37 l-23
-32 -7 24 c-12 43 -10 60 6 55 8 -3 22 -7 31 -10z m328 -22 c-31 -73 -44 -127
-44 -190 0 -50 -3 -63 -15 -63 -13 0 -15 19 -13 132 l3 131 40 13 c22 6 41 12
43 13 1 1 -5 -16 -14 -36z m69 -3 c29 -41 92 -79 150 -91 l58 -12 -7 -96 c-4
-53 -8 -98 -11 -100 -3 -5 -32 0 -210 30 l-63 11 0 59 c0 60 43 219 60 219 5
0 15 -9 23 -20z m-163 -121 c0 -107 -2 -119 -17 -119 -28 0 -195 28 -200 34
-9 9 26 98 59 153 32 52 32 52 87 55 31 2 59 2 64 0 4 -2 7 -57 7 -123z m577
9 c17 -24 49 -56 71 -73 36 -27 42 -37 51 -91 14 -79 14 -94 -3 -94 -8 0 -58
9 -112 20 -164 33 -148 23 -140 83 10 82 25 125 58 162 16 19 33 35 37 35 4 0
21 -19 38 -42z m-5238 -202 c28 -52 49 -101 46 -108 -3 -7 -67 -40 -143 -73
-75 -33 -197 -89 -269 -125 l-133 -65 0 180 c0 99 -3 204 -6 233 l-7 52 231 0
230 0 51 -94z m5845 68 c39 -19 41 -27 52 -158 l7 -89 -24 6 c-13 3 -59 13
-101 23 l-78 18 0 43 c0 24 5 64 11 89 9 36 19 49 48 64 45 24 43 24 85 4z
m-436 -6 c13 -13 17 -128 4 -128 -5 0 -13 32 -18 70 -10 71 -8 80 14 58z m168
-42 c28 7 39 -12 49 -84 l7 -53 -29 7 c-15 3 -44 10 -63 14 -19 4 -47 11 -62
14 -27 6 -28 9 -28 65 l0 58 51 -13 c29 -8 62 -11 75 -8z m110 -30 c-9 -26
-16 -61 -17 -79 -1 -21 -6 -8 -15 38 -7 38 -10 73 -6 76 7 7 45 17 50 13 2 -1
-4 -23 -12 -48z m260 -75 c1 -80 -1 -101 -12 -101 -11 0 -14 18 -14 73 0 39
-3 89 -7 111 -5 35 -4 38 12 29 16 -9 19 -26 21 -112z m229 82 c-11 -30 -35
-163 -35 -199 0 -24 -5 -34 -15 -34 -12 0 -15 18 -15 99 0 55 -2 106 -5 114
-4 9 5 17 27 24 47 15 51 15 43 -4z m-102 -10 c4 -2 7 -52 7 -110 0 -87 -2
-104 -14 -100 -8 3 -33 11 -55 17 l-41 11 0 100 0 100 48 -7 c26 -3 50 -8 55
-11z"/>
<path d="M4788 5913 c7 -3 16 -2 19 1 4 3 -2 6 -13 5 -11 0 -14 -3 -6 -6z"/>
<path d="M5706 8460 c-9 -22 -19 -64 -22 -93 -13 -112 56 -277 162 -385 35
-37 64 -67 64 -68 0 -1 -15 -5 -34 -8 -57 -11 -152 -64 -191 -108 -47 -52
-102 -166 -119 -248 -16 -80 -37 -97 -132 -111 -103 -14 -130 -26 -170 -74
-28 -35 -52 -50 -113 -74 -152 -59 -322 -92 -611 -120 -86 -8 -79 -9 80 -6
153 2 200 7 375 40 310 58 509 120 754 236 441 209 850 552 1076 904 90 140
98 155 82 155 -8 0 -45 -48 -83 -107 -331 -516 -920 -932 -1568 -1108 -50 -14
-92 -23 -94 -20 -2 2 8 7 24 11 15 4 56 33 89 64 50 46 71 59 106 64 173 27
190 38 213 144 33 152 108 258 218 307 34 15 81 30 105 33 24 2 46 8 48 13 3
4 -19 26 -48 48 -85 65 -149 155 -187 267 -26 72 -28 186 -6 239 19 44 19 45
7 45 -5 0 -16 -18 -25 -40z"/>
<path d="M8396 4785 c-119 -77 -325 -183 -496 -255 -134 -57 -153 -67 -144
-81 11 -18 465 -7 687 17 86 9 73 28 -15 21 -179 -15 -451 -28 -532 -25 l-90
3 105 44 c195 81 488 244 563 312 17 16 29 28 26 28 -3 0 -50 -28 -104 -64z"/>
<path d="M7199 1636 c-51 -18 -96 -52 -129 -98 -33 -45 -33 -42 6 -200 30
-123 31 -119 -8 -107 -73 21 -446 90 -643 118 -442 64 -738 84 -1265 83 -548
0 -1003 -24 -1755 -92 -170 -15 -313 -26 -317 -23 -5 2 -8 17 -8 32 0 51 -17
61 -125 72 -55 5 -126 14 -157 20 -69 12 -74 10 -204 -107 -89 -80 -92 -81
-155 -87 -826 -84 -1897 -157 -2316 -157 -68 0 -123 -4 -123 -8 0 -17 198 -22
495 -12 406 13 1102 62 1658 115 348 34 323 37 257 -31 -30 -30 -62 -59 -71
-64 -8 -5 -83 -14 -165 -20 -857 -64 -1202 -113 -1363 -194 -49 -25 -91 -67
-91 -92 0 -29 56 -75 148 -122 103 -54 142 -83 142 -108 0 -66 -85 -106 -475
-224 -370 -112 -535 -171 -535 -190 0 -16 8 -15 74 11 41 16 221 74 399 129
395 121 479 153 529 201 72 68 43 122 -108 197 -87 44 -144 86 -144 107 0 7
13 25 30 38 84 71 349 126 820 172 210 20 683 55 688 51 3 -3 -206 -202 -302
-288 l-40 -35 29 -59 c15 -33 39 -84 51 -114 l23 -55 139 1 c132 1 139 0 148
-20 9 -21 14 -21 254 -20 282 1 550 27 550 53 0 5 -7 28 -15 51 -20 56 -19 58
13 62 22 2 28 9 30 34 l3 31 222 6 c266 8 417 21 429 39 4 7 8 22 8 34 0 20 8
21 238 33 130 7 239 15 241 17 2 2 -104 4 -237 4 l-242 0 0 50 c0 41 -4 52
-23 65 -51 33 -145 51 -511 95 -94 11 -171 22 -172 23 -1 1 -5 12 -8 24 -9 29
-3 30 320 44 383 16 912 7 1109 -20 238 -32 399 -82 425 -131 36 -66 -83 -122
-580 -274 -135 -41 -292 -91 -350 -111 -309 -107 -411 -199 -315 -283 68 -60
217 -94 695 -157 320 -42 521 -78 658 -116 56 -16 119 -29 140 -28 31 1 21 6
-66 35 -146 49 -348 87 -732 139 -365 49 -512 75 -595 106 -144 54 -139 111
19 191 102 51 220 93 572 202 187 57 379 121 428 142 94 39 166 96 166 131 0
97 -243 171 -665 203 -243 18 -946 9 -1182 -15 -58 -6 -54 -11 -68 96 l-6 46
63 6 c157 16 653 58 848 71 758 54 1465 60 1970 15 424 -37 1130 -159 1151
-199 18 -36 111 -312 106 -316 -3 -3 -83 1 -179 10 -354 32 -490 39 -778 40
-375 0 -630 -26 -760 -77 -46 -19 -56 -26 -58 -50 -6 -49 37 -62 554 -167 553
-113 806 -176 1068 -267 162 -56 312 -126 326 -153 10 -18 6 -23 -32 -39 -61
-27 -167 -47 -543 -101 -321 -47 -327 -48 -228 -49 98 -1 312 25 563 69 234
41 304 77 266 135 -35 54 -269 151 -576 240 -211 61 -412 107 -860 198 -337
69 -468 101 -496 122 -16 11 -15 14 13 28 41 22 201 53 353 68 154 16 646 16
860 0 337 -25 515 -44 526 -55 11 -11 108 -306 102 -311 -2 -1 -39 -11 -83
-20 -90 -21 -78 -32 18 -17 41 7 82 7 117 0 30 -5 89 -8 130 -6 66 3 81 7 118
34 40 29 48 32 101 27 38 -4 61 -2 65 6 5 7 68 11 194 12 197 2 180 7 -81 24
-53 4 -95 10 -92 15 2 4 46 5 97 2 51 -2 91 -2 88 1 -3 3 -41 10 -84 16 -44 6
-82 13 -84 16 -2 2 10 34 27 70 30 65 31 66 63 61 18 -3 110 -18 203 -32 94
-14 204 -32 245 -40 87 -16 118 -18 105 -5 -12 11 -218 51 -415 82 -80 12
-148 25 -151 28 -7 6 55 155 73 177 6 9 22 8 61 -2 78 -21 390 -84 415 -84 38
0 26 28 -15 35 -144 25 -429 88 -439 98 -3 3 4 23 15 46 24 47 27 120 7 159
-40 77 -159 128 -208 90 -8 -7 -37 -49 -63 -93 -82 -140 -65 -126 -136 -107
l-62 17 -34 130 c-57 223 -91 315 -132 356 -55 55 -136 72 -212 45z m148 -36
c25 -11 51 -33 63 -52 38 -61 105 -307 180 -658 31 -146 63 -286 75 -327 6
-17 -1 -27 -36 -52 -39 -29 -48 -31 -123 -30 -126 2 -124 0 -162 109 -90 260
-226 689 -248 786 l-26 109 28 40 c33 47 119 95 171 95 20 0 55 -9 78 -20z
m-4452 -201 c61 -6 120 -15 131 -19 24 -9 21 5 53 -260 11 -96 29 -238 39
-315 11 -77 17 -143 15 -147 -2 -5 -12 -8 -21 -8 -13 0 -27 28 -55 113 -56
166 -94 238 -137 259 -38 19 -224 28 -268 14 -35 -12 -312 -440 -312 -483 0
-19 -7 -22 -92 -28 -51 -4 -111 -5 -133 -3 -39 3 -41 4 -87 93 -26 50 -47 92
-48 95 0 5 78 80 416 397 65 61 157 149 204 194 97 94 137 122 165 114 11 -2
70 -10 130 -16z m5053 -143 c40 -21 69 -56 81 -100 10 -37 6 -49 -50 -183 -33
-80 -70 -165 -83 -191 -21 -40 -48 -103 -96 -219 -8 -19 -17 -23 -53 -23 l-43
0 -32 113 c-17 61 -36 138 -41 171 -8 57 -7 60 36 140 48 88 156 260 181 289
18 21 63 22 100 3z m-274 -216 c8 -8 -34 -93 -53 -104 -7 -5 -31 86 -31 117 0
11 70 0 84 -13z m-4404 -34 c58 -8 177 -25 265 -37 88 -11 184 -30 213 -41
l52 -19 0 -80 c0 -43 -1 -79 -2 -80 -42 -9 -346 -28 -466 -29 -191 0 -173 -14
-192 150 -6 58 -14 118 -17 134 -6 27 -4 29 18 23 13 -4 71 -13 129 -21z
m-367 -8 c35 -13 68 -78 124 -238 62 -177 77 -229 71 -235 -13 -13 -281 -36
-491 -42 -244 -6 -246 -6 -247 42 0 39 260 462 298 485 21 12 204 3 245 -12z"/>
</g>
</svg>
