<?xml version="1.0" standalone="no"?>
<!DOCTYPE svg PUBLIC "-//W3C//DTD SVG 20010904//EN"
 "http://www.w3.org/TR/2001/REC-SVG-20010904/DTD/svg10.dtd">
<svg version="1.0" xmlns="http://www.w3.org/2000/svg"
 width="850.000000pt" height="850.000000pt" viewBox="0 0 850.000000 850.000000"
 preserveAspectRatio="xMidYMid meet">
<metadata>
Created by potrace 1.14, written by Peter Selinger 2001-2017
</metadata>
<g transform="translate(0.000000,850.000000) scale(0.100000,-0.100000)"
fill="#000000" stroke="none">
<path d="M547 8468 c-62 -60 -91 -114 -91 -173 -1 -63 20 -92 90 -125 37 -17
44 -25 44 -49 0 -34 31 -76 70 -96 91 -47 234 26 296 151 13 27 24 43 24 37 0
-17 53 -43 85 -43 31 0 64 16 85 40 21 25 59 27 100 5 42 -22 108 -23 151 -1
47 23 64 20 109 -21 61 -54 65 -67 36 -106 -37 -50 -52 -109 -37 -156 15 -51
51 -79 111 -87 l48 -6 -34 -44 c-59 -79 -54 -152 14 -186 18 -9 41 -23 51 -32
24 -21 109 -37 152 -27 19 4 47 15 60 25 30 19 73 9 126 -31 17 -13 47 -27 67
-30 30 -5 40 -1 66 25 24 24 30 39 30 72 0 36 2 41 18 34 36 -16 109 -16 141
0 l31 17 100 -62 c55 -33 102 -64 105 -68 2 -5 -15 -14 -38 -21 -67 -20 -169
-75 -202 -110 -25 -26 -31 -43 -37 -98 -4 -37 -10 -90 -13 -118 -7 -51 -7 -51
25 -63 18 -6 41 -11 51 -11 10 0 21 -12 27 -29 15 -43 53 -65 106 -59 28 3 49
0 62 -9 10 -8 29 -11 41 -8 18 4 26 -1 38 -25 29 -56 71 -56 131 1 30 28 36
12 17 -43 -15 -40 -15 -49 -2 -83 22 -58 57 -79 131 -78 35 0 82 8 105 16 l41
15 7 -35 c4 -20 15 -60 26 -89 15 -40 27 -56 53 -68 48 -23 143 -21 183 4 45
27 56 53 51 125 l-4 63 32 -24 c39 -30 67 -30 120 1 81 48 105 148 58 243 -29
59 -60 87 -114 103 l-37 11 15 31 c15 30 10 87 -13 141 -7 16 -5 18 26 11 19
-4 61 -17 93 -29 51 -18 64 -28 89 -68 27 -45 28 -51 18 -98 -8 -35 -8 -65 -1
-96 8 -35 7 -51 -5 -74 -23 -45 -19 -111 10 -154 14 -20 25 -48 25 -61 0 -28
43 -65 75 -65 23 0 54 29 76 71 l14 26 118 -49 c64 -28 117 -54 117 -58 0 -5
-9 -11 -19 -15 -35 -11 -91 -82 -91 -116 0 -35 50 -91 108 -121 29 -15 32 -22
32 -61 0 -73 51 -105 123 -78 44 17 96 71 109 113 7 26 20 43 35 49 25 9 38
47 29 84 -4 14 -4 25 -2 25 19 0 484 -189 549 -224 46 -24 123 -56 173 -72 49
-16 91 -29 93 -31 2 -1 -2 -9 -9 -18 -17 -21 -6 -57 32 -96 18 -19 37 -43 43
-54 6 -12 23 -21 42 -23 29 -3 36 2 65 42 38 55 48 50 89 -40 21 -46 45 -76
103 -128 42 -37 76 -71 76 -76 0 -4 -23 -10 -51 -12 -55 -6 -95 -30 -119 -72
-14 -24 -13 -29 3 -59 18 -31 18 -32 1 -42 -47 -26 -74 -63 -74 -102 0 -51 20
-78 74 -98 37 -14 51 -15 78 -6 30 11 34 9 55 -17 81 -104 250 -24 231 109 -4
22 1 33 19 45 13 8 28 26 33 39 l9 23 66 -35 c36 -19 64 -38 62 -41 -59 -110
-41 -147 81 -167 40 -6 45 -5 77 29 l34 36 15 -22 c9 -12 16 -28 16 -34 0 -23
-331 -149 -561 -214 -239 -67 -849 -184 -1037 -197 -45 -3 -84 -9 -87 -12 -5
-10 34 -94 48 -103 7 -4 29 -8 50 -8 30 0 44 -6 64 -30 19 -24 33 -30 63 -30
31 0 39 -4 44 -23 4 -18 49 -45 210 -128 l205 -104 -52 -5 -52 -5 0 -50 0 -50
81 -16 c88 -18 301 -39 389 -39 87 0 64 -16 -45 -30 -99 -13 -100 -13 -100
-41 0 -24 4 -28 33 -31 24 -2 33 -8 35 -24 2 -17 -3 -22 -30 -27 -18 -3 -123
-22 -233 -42 -192 -34 -569 -86 -725 -100 -144 -12 -152 -18 -105 -88 18 -26
33 -37 50 -37 14 0 25 -5 25 -11 0 -6 9 -23 20 -39 14 -20 26 -26 43 -23 18 4
26 -2 37 -27 14 -29 27 -35 175 -85 88 -30 225 -79 305 -109 l145 -55 -61 -1
c-47 0 -63 -4 -68 -16 -10 -25 -7 -92 4 -99 19 -12 206 -44 325 -55 188 -19
189 -24 13 -54 l-123 -21 -3 -32 c-3 -32 -2 -33 37 -33 34 0 41 -3 41 -20 0
-13 -9 -22 -27 -26 -56 -12 -61 -15 -66 -44 -6 -26 -10 -29 -64 -36 -70 -8
-681 3 -808 15 -49 5 -94 5 -99 1 -4 -5 3 -34 17 -64 19 -41 34 -60 56 -69 17
-7 41 -28 53 -47 18 -26 32 -36 56 -38 26 -3 35 -10 46 -37 11 -26 23 -36 53
-44 21 -6 140 -47 265 -93 194 -70 223 -83 205 -93 -29 -14 -57 -102 -37 -115
27 -17 292 -62 345 -58 52 3 54 2 77 -32 14 -21 38 -40 58 -46 31 -10 35 -16
38 -51 l3 -40 -47 -7 c-26 -3 -92 -6 -148 -7 -56 -1 -126 -4 -156 -7 -52 -7
-55 -9 -51 -32 4 -30 17 -40 54 -40 22 0 27 -5 27 -24 0 -13 -8 -38 -18 -56
-16 -30 -16 -32 1 -44 9 -7 17 -26 17 -41 l0 -28 -252 6 c-274 7 -474 20 -665
42 -159 20 -173 19 -172 -2 1 -37 54 -127 77 -133 13 -3 32 -22 45 -44 12 -22
31 -40 42 -42 72 -10 82 -15 97 -48 14 -29 24 -35 85 -50 37 -9 167 -50 288
-91 l220 -74 -76 0 c-49 -1 -80 -6 -86 -13 -6 -7 -13 -40 -16 -74 l-6 -61 142
-16 c78 -9 197 -19 265 -23 90 -5 122 -10 122 -19 0 -7 21 -31 46 -54 41 -35
45 -43 39 -70 -7 -34 -17 -36 -230 -45 -66 -3 -141 -9 -168 -12 -41 -6 -47
-10 -47 -30 0 -25 26 -44 58 -44 29 0 37 -69 10 -88 -24 -17 -23 -43 2 -49 14
-4 20 -14 20 -34 0 -24 -5 -30 -37 -38 -51 -15 -46 -16 -121 28 -37 21 -125
69 -197 106 -281 147 -548 304 -675 399 -41 31 -90 59 -108 62 -25 5 -66 -5
-160 -37 -182 -62 -231 -60 -407 19 l-79 35 -235 -7 c-129 -3 -291 -11 -359
-17 -137 -11 -138 -11 -242 -100 -219 -186 -640 -464 -1045 -691 -428 -239
-539 -295 -1240 -624 -148 -69 -241 -118 -243 -128 -2 -9 -2 -16 1 -16 8 0
442 201 462 214 11 7 95 47 185 89 91 41 219 102 285 135 66 33 141 66 167 72
36 9 48 17 50 34 4 29 42 29 46 -1 3 -19 8 -21 35 -16 71 13 165 52 633 261
190 85 317 132 356 132 18 0 -8 -31 -130 -153 -131 -131 -155 -160 -167 -202
-17 -56 -19 -101 -5 -110 28 -17 64 -4 271 101 412 210 489 247 494 243 2 -3
-17 -41 -44 -84 -88 -148 -123 -264 -87 -290 9 -7 26 -10 38 -7 26 6 27 8 -67
-123 -101 -141 -118 -170 -64 -110 66 71 86 97 174 215 43 58 110 138 149 179
117 121 372 318 399 308 7 -3 20 -29 30 -60 10 -30 24 -60 32 -67 24 -20 60 2
98 57 37 56 120 143 134 143 6 0 49 -51 97 -114 48 -63 93 -117 100 -119 8 -3
23 1 33 8 17 12 21 30 26 116 7 137 7 137 139 120 57 -7 137 -17 178 -22 89
-9 332 -12 354 -3 35 13 38 41 11 95 -32 63 -30 103 5 107 23 2 132 -20 299
-62 62 -16 281 -122 281 -136 0 -4 -64 -17 -142 -29 -79 -13 -183 -29 -231
-37 -72 -12 -118 -12 -253 -3 -90 6 -171 9 -179 5 -23 -8 -21 -105 3 -112 36
-11 46 -22 54 -53 11 -39 29 -47 131 -60 64 -8 82 -14 102 -35 13 -14 35 -26
47 -26 40 0 218 -50 313 -87 91 -36 237 -106 297 -143 l32 -19 -189 2 -190 2
0 -75 0 -75 40 -3 c22 -1 76 -7 120 -12 80 -10 372 -40 389 -40 5 0 6 -36 4
-80 -4 -60 -2 -80 8 -80 18 0 23 23 26 108 3 77 -3 89 -60 121 -7 4 -17 23
-21 42 -5 25 -13 35 -29 37 -27 4 -30 38 -4 44 9 2 53 5 96 7 l79 3 -5 -181
c-4 -139 -3 -181 7 -181 13 0 25 142 25 292 l0 78 46 0 c54 0 56 -19 3 -36
-26 -9 -34 -17 -34 -35 l0 -24 130 3 c152 4 177 15 132 56 -15 14 -27 29 -27
34 0 10 104 22 180 22 l45 -1 -29 -23 c-20 -17 -27 -29 -22 -42 6 -15 17 -16
113 -11 134 9 165 28 102 66 -17 10 -27 21 -22 24 4 3 59 8 121 12 126 8 141
-1 75 -44 -35 -23 -36 -24 -17 -38 15 -11 46 -14 136 -11 144 4 159 13 105 64
-20 19 -37 39 -37 43 0 9 73 21 123 21 l30 0 -7 -225 c-6 -188 -4 -225 7 -225
17 0 27 124 27 329 l0 134 47 -7 c26 -3 51 -10 56 -15 11 -11 -9 -51 -37 -73
-31 -25 -13 -35 76 -42 72 -6 77 -5 92 16 9 12 16 33 16 46 0 12 6 25 13 27
13 5 205 -30 214 -39 3 -3 -2 -17 -11 -30 -9 -14 -16 -30 -16 -35 0 -13 91
-39 150 -43 42 -3 45 -2 44 22 0 14 -3 32 -5 40 -3 12 4 14 36 11 22 -1 43 -5
48 -8 4 -2 7 -78 7 -169 0 -90 4 -164 9 -164 4 0 11 73 15 163 4 89 9 163 10
164 1 2 49 -8 114 -22 32 -8 31 -57 -3 -79 -14 -9 -25 -24 -25 -33 0 -9 -14
-28 -32 -43 -28 -23 -32 -34 -36 -88 -4 -52 -2 -62 12 -62 12 0 16 10 16 45 0
50 25 85 60 85 11 0 59 -14 108 -31 164 -57 332 -99 396 -98 61 0 60 1 -84 38
-202 53 -233 62 -227 67 2 3 62 0 132 -6 95 -8 130 -8 135 0 11 17 21 173 12
182 -4 4 -94 13 -200 20 -105 6 -192 15 -192 18 0 11 154 99 270 153 63 30
178 78 255 107 77 28 147 58 156 66 9 8 36 14 61 14 44 0 47 2 72 45 22 37 32
45 56 45 22 0 30 5 30 18 0 15 -11 17 -117 13 -142 -4 -539 14 -753 35 -281
26 -569 74 -815 135 -176 44 -175 43 -175 95 0 24 2 44 5 44 2 0 53 -13 112
-29 143 -38 427 -94 638 -125 230 -34 470 -54 775 -66 333 -13 330 -13 330 4
0 16 -100 26 -252 26 -108 0 -424 17 -475 26 -26 4 -33 10 -33 28 0 20 6 24
45 28 25 3 52 11 60 18 17 14 20 56 5 65 -18 11 -207 58 -487 120 -19 4 -23
12 -23 40 0 31 4 37 37 51 40 17 39 17 328 -5 55 -5 106 -6 113 -3 15 5 17
118 2 156 -9 26 -10 26 -125 26 -63 0 -115 4 -115 9 0 15 170 87 365 154 294
102 289 100 300 136 8 27 13 31 47 31 33 0 40 4 63 44 21 36 32 45 58 48 43 4
86 66 87 124 l0 41 -292 7 c-340 7 -491 22 -496 48 -2 9 8 27 22 39 28 25 34
60 12 78 -13 11 -192 54 -418 101 l-108 23 0 43 c0 39 3 44 23 44 13 0 29 6
35 13 9 8 70 14 200 17 l187 5 3 72 3 72 -58 3 -58 3 96 37 c122 47 291 92
443 117 119 20 149 34 161 72 4 11 13 19 21 19 8 0 31 16 53 35 21 19 48 35
59 35 23 0 99 98 85 109 -4 4 -109 22 -233 40 -402 58 -720 123 -720 148 0 10
9 12 34 8 29 -6 34 -4 39 17 14 52 11 56 -80 83 -49 14 -96 29 -106 33 -11 5
38 14 124 25 79 10 151 23 161 28 14 7 18 22 18 59 l0 49 -97 3 -98 3 145 62
c80 34 208 85 285 114 77 29 145 56 151 61 6 4 11 22 12 39 0 17 10 51 21 75
l21 44 73 -6 74 -7 33 57 c17 32 30 59 28 61 -2 2 -80 16 -173 30 -275 43
-585 110 -842 182 -88 24 -93 27 -93 53 0 47 15 52 141 40 63 -6 152 -10 199
-8 l85 3 9 53 c6 33 5 57 0 62 -6 6 -38 13 -72 16 -34 4 -61 8 -59 10 2 3 235
61 309 78 18 4 35 22 56 58 17 29 41 65 54 81 l23 27 89 -17 89 -17 38 44 c45
52 57 79 39 90 -7 5 -38 11 -69 15 -200 24 -495 103 -687 184 -209 89 -635
334 -615 354 5 5 79 13 163 16 91 4 162 12 176 19 27 16 29 48 2 62 -17 9 -18
14 -8 36 9 20 9 28 -3 39 -15 15 -162 37 -185 28 -8 -3 -23 -20 -34 -38 -11
-18 -38 -49 -60 -69 -37 -33 -45 -36 -101 -36 -58 0 -63 2 -150 64 -50 36 -96
67 -102 69 -7 2 -3 15 11 34 30 42 29 97 -3 139 -21 27 -22 34 -10 44 8 6 19
27 25 46 14 43 1 86 -38 127 -17 18 -23 30 -16 35 17 11 34 48 34 75 0 13 -12
41 -26 62 -14 21 -22 43 -19 49 3 6 12 22 20 36 22 37 19 93 -5 115 -18 16
-19 20 -5 35 25 27 29 74 10 114 -17 35 -17 36 9 67 33 38 35 95 5 132 -16 21
-18 31 -10 46 24 45 0 110 -49 136 -39 20 -39 50 0 70 36 19 52 47 52 91 0 41
-24 81 -58 96 -51 24 -23 60 64 82 24 6 42 16 40 21 -5 15 -77 8 -104 -10 -22
-14 -25 -14 -30 0 -9 23 3 46 21 39 27 -11 105 6 105 22 0 11 -15 14 -65 14
-39 0 -65 4 -65 11 0 6 24 9 64 7 36 -1 68 1 73 5 14 15 -22 27 -79 27 -32 0
-58 5 -58 10 0 6 27 10 60 10 47 0 60 3 60 15 0 12 -13 15 -60 15 -47 0 -60 3
-60 15 0 12 13 15 60 15 47 0 60 3 60 15 0 12 -13 15 -60 15 -48 0 -60 3 -60
16 0 12 12 15 60 13 33 -1 63 1 67 5 14 13 -22 26 -74 26 -31 0 -53 4 -53 11
0 7 21 8 64 4 45 -5 66 -4 71 5 12 20 -16 30 -82 30 l-63 0 0 45 c0 32 6 51
20 65 24 24 26 72 5 90 -8 7 -15 29 -15 49 0 44 -14 61 -52 61 -35 0 -63 -39
-54 -74 3 -14 2 -28 -4 -31 -16 -10 -12 -72 6 -89 10 -11 14 -30 12 -63 -3
-43 -6 -48 -28 -51 -14 -2 -42 -8 -63 -13 -54 -14 -37 -33 24 -25 59 8 75 -10
17 -19 -61 -9 -78 -15 -78 -26 0 -5 27 -9 60 -9 33 0 60 -4 60 -10 0 -5 -17
-10 -37 -10 -21 0 -48 -3 -60 -6 -43 -12 -23 -24 37 -24 78 0 77 -15 -2 -24
-34 -3 -64 -9 -67 -12 -12 -11 27 -24 79 -25 l55 -1 -52 -8 c-29 -4 -61 -11
-70 -14 -30 -12 6 -26 65 -26 73 0 65 -18 -10 -22 -38 -2 -63 -8 -66 -15 -3
-10 14 -13 62 -13 l66 0 0 -30 c0 -30 0 -30 -27 -16 -41 20 -90 29 -98 17 -3
-6 6 -16 22 -21 113 -41 128 -63 68 -99 -38 -22 -55 -54 -55 -105 0 -36 33
-86 56 -86 29 0 15 -48 -21 -70 -19 -12 -40 -30 -45 -40 -13 -25 -13 -76 1
-101 8 -16 7 -29 -6 -56 -14 -30 -15 -42 -6 -73 6 -21 18 -43 25 -49 13 -11
12 -17 -6 -46 -23 -40 -18 -79 14 -120 l20 -26 -22 -24 c-29 -31 -29 -94 -1
-134 20 -28 20 -28 1 -46 -33 -30 -24 -133 14 -157 7 -5 3 -15 -11 -30 -42
-44 -39 -113 7 -171 19 -24 19 -25 0 -42 -24 -22 -26 -78 -5 -119 14 -26 14
-31 0 -52 -14 -22 -16 -23 -52 -7 -21 8 -60 27 -88 41 -45 24 -47 27 -25 30
37 6 62 32 57 61 -3 13 2 39 9 57 12 29 12 39 0 67 -15 37 -59 77 -85 77 -9 0
-25 7 -35 15 -57 43 -164 -24 -182 -113 -4 -18 -9 -32 -12 -32 -10 0 -100 61
-113 76 -10 12 -9 17 3 27 9 7 18 19 20 27 3 8 22 24 44 35 83 43 67 118 -34
161 -2 1 5 18 14 37 43 90 -59 142 -196 101 -69 -20 -99 -15 -263 45 -73 27
-155 54 -184 61 -28 6 -60 18 -70 25 -17 13 -16 14 9 20 15 4 32 13 38 21 15
17 4 51 -18 58 -11 4 -18 16 -17 33 1 63 -146 95 -244 52 l-53 -22 -190 94
-189 94 60 12 c34 7 74 19 90 28 39 20 38 20 45 -20 14 -70 107 -145 182 -145
73 0 146 58 160 128 6 27 11 32 35 32 23 0 29 -4 29 -22 0 -34 35 -85 71 -104
44 -22 109 -14 153 20 l35 26 24 -54 c28 -62 74 -101 135 -114 81 -19 152 13
183 81 23 51 24 86 4 133 -14 34 -14 35 13 45 71 25 85 35 118 74 l34 42 50
-9 c55 -10 125 -33 214 -71 l60 -26 48 41 c58 48 63 80 19 106 -27 15 -29 20
-24 57 4 34 1 44 -21 66 -75 75 -195 14 -200 -101 -1 -35 -3 -39 -21 -33 -49
15 -110 49 -112 63 -9 70 -18 95 -45 126 -67 77 -172 97 -304 58 -21 -6 -21
-4 -12 43 18 94 -16 209 -71 237 -38 20 -103 20 -142 0 -17 -8 -47 -31 -69
-50 l-38 -34 -31 55 c-42 75 -79 97 -153 92 -69 -4 -111 -33 -172 -118 -22
-32 -44 -58 -48 -58 -5 -1 -8 12 -8 29 0 63 -110 147 -178 136 -46 -7 -104
-64 -133 -130 -17 -40 -20 -62 -16 -106 l6 -56 -82 8 c-45 5 -121 15 -170 23
-48 8 -92 15 -97 15 -6 0 -10 5 -10 10 0 6 6 10 14 10 22 0 63 38 74 68 12 34
-6 92 -38 127 l-21 23 55 6 c30 4 70 17 88 29 36 24 82 108 92 167 21 134
-125 227 -274 175 -23 -8 -46 -15 -50 -15 -5 0 -1 22 8 49 13 42 13 54 2 81
-35 84 -107 130 -214 138 -120 9 -165 -36 -174 -175 l-5 -72 -35 14 c-19 8
-57 15 -85 15 -46 0 -54 -3 -91 -43 -63 -65 -85 -174 -51 -241 9 -16 14 -31
12 -33 -2 -2 -53 8 -113 21 -60 14 -160 32 -222 42 -70 10 -108 20 -100 25 7
5 19 9 27 9 7 0 39 11 70 24 31 13 76 29 101 36 35 9 60 27 113 82 37 39 67
77 67 84 0 20 -44 45 -90 51 l-40 6 0 61 c-1 127 -55 183 -170 173 -30 -2 -63
-8 -72 -12 -15 -6 -18 -2 -18 29 0 44 -36 86 -73 86 -40 0 -113 -30 -138 -56
l-23 -24 -22 27 c-20 26 -23 26 -45 11 -40 -26 -81 -94 -104 -172 -21 -74 -21
-74 -45 -60 -14 7 -35 13 -47 14 -50 0 -50 10 -1 59 44 44 48 52 48 96 0 42
-5 52 -38 85 -22 23 -55 43 -80 49 -23 7 -42 16 -42 21 0 19 -57 74 -95 91
-46 21 -84 23 -138 8 -46 -12 -103 -67 -112 -108 -6 -28 -25 -44 -25 -21 0 16
-61 80 -91 96 -15 7 -44 14 -63 14 -27 0 -48 11 -99 55 -44 38 -73 55 -92 55
-26 0 -24 -4 39 -61 l66 -61 -22 -28 c-13 -16 -27 -29 -31 -29 -4 -1 -54 39
-110 89 -81 71 -108 90 -132 90 -29 -1 -29 -1 33 -56 34 -31 62 -62 62 -70 0
-31 -40 -91 -77 -117 -51 -35 -128 -38 -162 -6 -48 45 -54 123 -16 199 24 47
24 50 6 50 -13 0 -25 -16 -41 -52 -19 -44 -22 -64 -17 -121 4 -43 2 -65 -4
-61 -5 3 -28 -10 -49 -30 -43 -39 -73 -45 -107 -21 -25 17 -38 59 -48 150 -9
82 -25 135 -42 135 -15 0 -14 -30 7 -159 14 -87 3 -140 -41 -201 -35 -48 -122
-100 -167 -100 -63 0 -111 42 -112 98 0 29 -5 35 -56 59 -71 33 -93 72 -76
131 14 46 63 111 111 147 35 25 35 25 9 25 -16 0 -40 -13 -61 -32z m1646 -92
c37 -16 74 -53 79 -81 2 -13 15 -22 42 -27 137 -29 164 -145 49 -218 -76 -48
-159 -64 -206 -38 -12 7 -29 12 -37 13 -15 0 -16 7 -5 37 10 25 -21 35 -44 14
-28 -25 -44 -20 -36 12 7 35 -16 62 -38 43 -22 -17 -27 -3 -27 73 0 91 21 133
80 164 51 25 96 28 143 8z m-621 -62 c52 -48 95 -124 75 -136 -6 -3 -21 -13
-31 -21 -18 -13 -22 -12 -47 23 -15 20 -43 47 -63 59 l-35 22 19 37 c11 20 20
43 20 50 0 19 12 13 62 -34z m258 31 c45 -23 100 -107 100 -151 0 -8 12 -33
26 -55 24 -39 25 -43 13 -90 -10 -40 -17 -49 -35 -49 -18 0 -20 4 -16 27 5 25
1 23 -44 -23 -27 -28 -75 -68 -105 -88 -143 -95 -281 -28 -228 111 12 33 71
96 117 124 36 23 39 38 16 75 -25 38 -4 100 39 119 42 19 81 18 117 0z m1034
-131 c29 -29 13 -90 -41 -153 l-29 -34 -52 64 c-29 35 -52 67 -52 71 0 10 51
44 85 56 44 15 71 14 89 -4z m-165 -113 c39 -52 71 -102 71 -111 0 -9 11 -26
25 -38 32 -28 33 -80 4 -131 -31 -56 -52 -65 -167 -69 -84 -4 -107 -1 -128 13
l-26 17 25 26 c35 38 40 62 22 111 -17 48 -9 101 26 181 17 38 68 105 75 97 1
-1 34 -44 73 -96z m407 -4 c24 -28 40 -101 30 -141 -6 -24 -45 -39 -216 -85
-25 -6 -54 -14 -65 -18 -17 -4 -15 -1 7 21 21 20 27 34 25 56 -5 38 -13 46
-32 30 -20 -17 -20 1 1 41 21 42 12 46 -20 9 -21 -26 -26 -28 -26 -13 0 26 87
111 125 123 16 5 57 8 89 6 50 -2 63 -7 82 -29z m752 -59 c41 -12 88 -52 108
-90 21 -41 12 -85 -31 -149 -19 -28 -35 -54 -35 -58 0 -4 -13 -20 -29 -35 -40
-38 -75 -33 -79 12 -3 28 -6 31 -18 22 -7 -7 -20 -10 -28 -7 -11 5 -16 -3 -18
-31 l-3 -37 -24 40 c-28 46 -41 32 -15 -16 12 -24 13 -34 5 -37 -8 -3 -6 -9 6
-18 17 -13 17 -13 -1 -14 -15 0 -16 -2 -6 -15 18 -21 8 -28 -80 -63 -133 -52
-155 -50 -219 23 -26 30 -31 44 -31 87 0 60 29 128 67 158 34 26 91 26 154 -1
27 -12 52 -19 56 -15 3 3 5 35 4 70 -3 87 7 131 36 160 34 35 97 40 181 14z
m-1400 -85 c15 -11 33 -33 41 -48 22 -45 -1 -74 -79 -106 l-65 -26 0 -44 c-1
-59 -9 -69 -56 -69 -71 0 -93 20 -148 134 -54 109 -59 127 -38 144 22 19 161
41 240 38 59 -2 84 -8 105 -23z m-508 -10 c0 -16 5 -45 11 -67 7 -25 7 -42 1
-48 -6 -6 -8 -33 -5 -63 14 -132 -77 -217 -196 -185 -22 6 -45 19 -50 29 -6
10 -24 21 -40 24 -93 19 -46 149 83 232 28 18 71 49 94 69 56 46 102 50 102 9z
m148 -104 c24 -50 41 -97 38 -104 -3 -8 4 -25 15 -38 27 -35 26 -110 -2 -138
-25 -25 -58 -20 -105 16 -17 13 -43 27 -58 31 -31 7 -31 10 -10 60 12 29 15
63 12 145 -2 80 0 105 9 102 6 -3 20 0 30 6 10 6 20 10 23 11 3 0 24 -41 48
-91z m1108 51 c11 0 28 -6 38 -13 16 -12 15 -16 -18 -59 -46 -60 -131 -115
-106 -69 24 45 7 86 -45 114 -22 11 -26 17 -15 21 23 8 82 14 105 10 11 -2 29
-4 41 -4z m-136 -59 c31 -22 36 -45 17 -74 -39 -59 -155 -106 -267 -107 -49 0
-176 32 -219 55 -25 14 -23 14 34 15 86 0 130 16 173 60 71 74 195 98 262 51z
m3368 -34 c4 -20 -25 -34 -40 -19 -15 15 -1 44 19 40 10 -2 19 -11 21 -21z
m-2232 -6 c23 -10 49 -29 58 -42 22 -33 20 -103 -7 -168 -31 -78 -64 -95 -187
-98 -52 -1 -96 -5 -97 -10 -2 -4 21 -21 51 -36 85 -45 111 -118 56 -158 -40
-30 -121 -41 -175 -24 -50 14 -88 42 -79 56 3 5 -2 37 -10 71 -22 96 -26 158
-10 158 8 0 14 -4 14 -10 0 -5 5 -10 10 -10 6 0 10 6 10 14 0 9 7 12 20 9 16
-4 19 -2 14 11 -4 11 -1 16 11 16 9 0 13 5 10 10 -4 6 7 16 24 23 17 7 28 16
24 20 -3 4 1 7 10 7 9 0 19 5 23 11 5 8 -4 10 -30 7 -20 -2 -36 0 -36 4 0 4
-10 8 -22 8 -20 0 -15 8 33 56 87 87 196 116 285 75z m-1511 -166 c50 -14 185
-42 300 -61 302 -50 477 -100 638 -180 72 -37 171 -108 191 -139 10 -15 24
-82 37 -172 11 -81 23 -151 26 -156 3 -6 90 -50 192 -99 338 -162 741 -361
737 -365 -7 -7 -431 169 -451 187 -21 20 -132 60 -164 60 -22 0 -310 120 -357
149 -22 13 -37 34 -48 66 -8 26 -28 64 -43 84 -26 34 -28 41 -25 122 2 84 2
86 -36 139 -41 60 -59 69 -222 116 -126 37 -244 52 -441 59 -101 3 -195 11
-220 18 -25 8 -80 40 -124 73 -44 32 -125 87 -181 121 -105 65 -130 86 -120
102 4 5 53 -14 114 -44 59 -30 148 -66 197 -80z m3767 90 c15 -33 -2 -55 -27
-35 -13 11 -21 11 -36 2 -17 -11 -19 -9 -19 16 0 36 6 42 42 42 21 0 32 -7 40
-25z m-28 -242 c3 -93 8 -210 10 -260 3 -92 3 -93 -20 -93 l-24 0 0 163 c0
188 10 357 20 357 5 0 11 -75 14 -167z m-2680 64 c15 -11 18 -28 18 -91 0 -42
-3 -80 -6 -84 -4 -3 -19 2 -34 11 -15 10 -54 31 -87 48 -33 17 -62 33 -64 35
-11 10 36 58 72 75 50 22 77 24 101 6z m-1099 -47 c4 -6 -11 -18 -32 -26 -86
-36 -144 -104 -123 -144 9 -17 1 -31 -57 -100 -69 -81 -77 -87 -102 -71 -12 8
-13 18 -3 61 7 28 12 70 12 94 0 70 43 109 183 166 76 31 112 37 122 20z m79
-59 c17 -11 50 -24 74 -30 36 -10 46 -20 72 -64 47 -82 44 -88 -56 -126 -102
-39 -126 -36 -153 17 -24 48 -46 66 -96 82 -22 7 -44 16 -49 21 -15 14 22 57
77 89 61 35 88 37 131 11z m2314 -20 c78 -78 82 -181 9 -258 -16 -18 -42 -34
-56 -37 -92 -17 -101 -17 -101 -1 0 17 -11 20 -25 6 -6 -5 -20 -12 -32 -16
-19 -5 -22 -3 -17 12 3 10 -4 2 -16 -17 l-20 -35 6 48 c9 65 -15 63 -45 -3
-30 -66 -45 -65 -36 3 10 73 39 141 91 214 58 82 104 113 166 113 38 0 52 -5
76 -29z m-418 -3 c76 -52 88 -104 61 -260 l-18 -103 -16 35 c-8 19 -16 30 -16
24 -1 -14 -94 -8 -124 8 -12 6 -37 27 -54 47 -27 28 -33 43 -33 80 0 56 31
121 76 161 42 36 78 39 124 8z m-1543 -27 l82 -1 -24 -36 c-25 -37 -42 -114
-29 -135 5 -9 1 -10 -17 -5 -13 4 -39 11 -58 14 -30 6 -35 12 -47 53 -8 26
-27 61 -44 79 -16 18 -30 34 -30 37 0 2 19 2 43 -1 23 -2 79 -5 124 -5z m2292
-7 c13 -9 29 -32 37 -50 17 -41 18 -152 2 -205 -6 -22 -8 -42 -5 -46 4 -3 32
4 63 16 109 41 235 20 285 -50 22 -31 38 -99 23 -99 -5 0 -47 12 -94 26 -235
71 -295 86 -415 109 -167 31 -172 37 -134 150 41 123 164 200 238 149z m-2002
-30 c64 -26 90 -139 44 -188 -14 -14 -31 -26 -38 -26 -8 0 -37 -12 -65 -26
-28 -14 -53 -22 -57 -16 -12 18 -55 36 -59 23 -7 -22 -27 -9 -48 32 -17 34
-19 53 -14 98 7 69 30 106 73 117 38 11 120 4 164 -14z m-411 -92 c4 -19 1
-45 -5 -59 -9 -20 -9 -28 0 -34 10 -6 9 -16 -5 -46 -25 -55 -48 -80 -83 -87
-30 -7 -31 -6 -52 55 -12 35 -21 69 -21 75 0 7 27 23 60 35 75 27 84 38 77 92
-5 38 -4 40 9 23 7 -11 17 -35 20 -54z m-367 19 c11 -7 9 -14 -9 -39 -30 -40
-23 -60 12 -33 14 12 30 21 35 21 4 0 0 -5 -9 -11 -25 -14 -24 -43 1 -36 13 3
18 1 14 -8 -3 -10 2 -12 16 -8 28 7 26 -2 -9 -64 -36 -62 -46 -70 -68 -50 -12
11 -30 14 -63 10 -39 -4 -50 -2 -68 16 -37 37 -28 81 30 150 51 62 81 75 118
52z m1453 -96 c56 -14 167 -32 247 -41 135 -16 160 -24 161 -48 0 -9 -437 0
-517 10 -46 6 -48 9 -59 86 l-6 48 36 -15 c20 -9 82 -26 138 -40z m-963 1 c15
-8 33 -27 40 -43 11 -25 11 -29 -8 -42 -27 -17 -27 -35 -1 -28 29 7 36 -12 11
-29 -20 -15 -29 -44 -13 -44 4 0 17 6 28 14 19 14 20 13 18 -16 -3 -40 -52
-118 -92 -145 -48 -32 -130 -47 -182 -33 -33 9 -44 18 -56 46 -24 57 10 133
61 138 14 2 32 12 40 22 23 30 64 116 70 147 6 31 38 36 84 13z m-304 -84 l17
-57 -38 -32 c-49 -43 -70 -42 -91 2 -17 35 -16 36 12 89 24 44 33 53 56 54 26
1 29 -4 44 -56z m749 -20 c62 -59 82 -150 46 -210 -22 -36 -74 -72 -104 -72
-21 0 -106 85 -106 105 0 7 -18 37 -40 66 -51 69 -52 94 -2 115 93 41 159 40
206 -4z m2955 3 c28 -14 41 -33 41 -61 0 -11 -8 -10 -37 6 -47 25 -98 25 -146
1 -38 -19 -45 -14 -26 20 23 44 115 62 168 34z m-2437 -25 c51 -5 156 -10 234
-10 77 0 144 -3 147 -7 4 -3 -6 -14 -23 -24 -66 -41 -100 -187 -57 -252 9 -14
17 -29 17 -32 0 -7 -437 212 -443 222 -3 4 -8 35 -12 67 l-8 59 26 -7 c14 -3
67 -10 119 -16z m598 16 c0 -2 3 -11 6 -19 3 -10 -3 -17 -20 -21 -49 -12 -19
-36 47 -36 33 0 33 -3 5 -43 -13 -18 -32 -61 -44 -97 -24 -75 -55 -102 -133
-119 -60 -13 -99 -3 -125 33 -42 55 -15 196 42 217 13 5 39 19 56 32 45 32
166 71 166 53z m660 -40 c166 -39 425 -112 449 -126 12 -7 8 -9 -19 -10 -19 0
-65 -3 -102 -7 -58 -5 -68 -4 -68 10 0 19 -10 22 -122 42 -48 8 -120 28 -160
43 -95 37 -152 52 -211 56 -30 1 -54 9 -65 20 -16 18 -14 18 68 12 47 -3 150
-21 230 -40z m-331 10 c15 -13 49 -31 78 -40 38 -13 57 -26 71 -49 28 -46 34
-93 18 -132 -17 -39 -54 -61 -114 -64 -47 -3 -72 11 -72 41 0 30 -40 139 -61
170 l-20 28 20 0 c12 0 21 7 21 15 0 8 5 15 11 15 8 0 9 4 0 13 -11 14 -5 27
13 27 5 0 21 -11 35 -24z m1154 -44 c21 -19 22 -41 1 -70 -19 -27 -12 -52 15
-52 52 0 67 -28 29 -54 -32 -22 -62 -20 -129 10 -70 32 -80 53 -54 120 26 68
89 88 138 46z m-2913 -14 c0 -17 4 -19 28 -13 15 3 29 11 31 16 6 18 52 -60
67 -114 33 -120 37 -153 23 -183 -20 -42 -77 -67 -134 -59 -60 10 -89 35 -105
90 -16 59 -10 96 34 186 20 41 36 82 36 92 0 10 5 15 10 12 6 -3 10 -15 10
-27z m3258 12 c37 -23 40 -35 11 -50 -16 -9 -24 -8 -38 4 -25 23 -57 20 -76
-6 -12 -18 -19 -21 -33 -12 -28 18 -20 47 18 66 45 23 77 23 118 -2z m-1232
-40 c36 -16 45 -23 36 -32 -17 -17 -15 -30 6 -26 9 2 22 -3 28 -11 10 -12 15
-13 27 -3 11 9 22 10 42 2 21 -8 30 -8 36 1 12 20 99 3 117 -22 14 -21 20 -21
119 -15 59 4 103 3 103 -2 0 -32 -110 -92 -167 -92 -18 0 -17 -25 2 -40 8 -7
19 -29 25 -49 13 -50 -3 -103 -42 -136 -29 -24 -39 -27 -90 -23 -47 3 -64 10
-89 34 -50 46 -72 106 -64 171 5 42 4 54 -6 51 -14 -5 -20 -14 -45 -70 -39
-90 -165 -104 -202 -23 -18 39 -15 51 18 65 40 17 76 61 84 103 6 32 -1 65
-29 131 -7 17 -5 18 17 13 15 -4 48 -16 74 -27z m-485 -20 c5 0 9 5 9 11 0 8
4 8 13 2 14 -12 59 -2 57 12 -1 5 3 11 8 13 17 5 69 -117 86 -198 14 -70 14
-77 -2 -109 -39 -74 -136 -91 -208 -36 -52 40 -66 81 -59 168 6 60 13 81 43
127 31 47 37 52 40 33 2 -13 8 -23 13 -23z m-1012 -34 c18 -38 41 -72 60 -85
37 -27 38 -37 7 -76 -21 -27 -26 -28 -50 -17 -20 9 -26 19 -26 41 0 18 -10 41
-25 57 -19 20 -25 38 -25 70 0 93 21 97 59 10z m2691 15 c19 -37 12 -51 -25
-51 -19 0 -35 2 -35 4 0 1 5 17 11 35 12 35 33 40 49 12z m35 -91 c10 -16 -56
-50 -96 -50 -20 0 -42 7 -49 15 -10 13 -7 17 21 30 39 16 115 20 124 5z m51
-35 c10 -16 14 -34 10 -53 l-7 -28 -87 -1 c-48 0 -100 -2 -117 -4 -28 -4 -30
-2 -33 35 -3 38 -3 38 20 22 47 -33 166 -8 184 39 8 20 11 19 30 -10z m-35
-115 c10 -6 19 -17 19 -24 0 -24 -46 -56 -91 -62 -36 -5 -49 -2 -71 16 -56 44
-24 78 75 79 27 1 57 -4 68 -9z m-2202 -29 c45 -24 108 -91 117 -126 9 -35
-12 -57 -30 -32 -26 35 -57 11 -36 -28 18 -33 5 -73 -36 -112 -38 -36 -96 -52
-119 -33 -8 6 -15 34 -17 63 -3 51 -4 52 -52 77 -98 50 -108 103 -34 163 58
47 146 59 207 28z m2271 -32 c0 -27 -28 -79 -43 -80 -6 -1 -42 0 -79 1 -36 1
-76 -4 -88 -10 -27 -15 -56 8 -65 52 -10 41 1 46 34 14 15 -15 44 -29 65 -33
52 -8 122 21 142 58 16 32 34 31 34 -2z m-1505 -113 c37 -16 42 -25 24 -43
-16 -16 -3 -43 20 -43 25 0 36 -16 15 -24 -37 -14 -82 -3 -165 41 -49 26 -89
51 -89 56 0 27 139 36 195 13z m1440 -10 c18 -13 18 -15 -13 -46 -30 -30 -37
-32 -83 -28 -44 5 -89 29 -89 48 0 4 15 15 33 24 40 19 127 21 152 2z m41 -78
c-4 -18 -12 -38 -19 -44 -6 -7 -51 -14 -99 -17 -93 -5 -107 1 -122 51 -9 27
-10 27 39 2 63 -32 136 -22 174 24 22 26 34 19 27 -16z m-41 -117 c0 -35 -44
-64 -107 -68 -96 -8 -117 38 -37 80 23 12 51 17 89 15 51 -3 55 -5 55 -27z
m45 -33 c0 -13 -9 -37 -19 -54 -17 -29 -24 -32 -87 -37 -38 -3 -77 -7 -87 -9
-11 -2 -25 6 -33 18 -14 20 -13 20 44 16 45 -3 66 2 102 20 25 13 49 33 55 46
5 12 13 22 17 22 5 0 8 -10 8 -22z m-1165 -90 c25 -12 45 -26 45 -30 0 -16
-28 -64 -46 -79 -15 -12 -18 -12 -28 5 -6 10 -28 36 -48 57 -21 20 -38 45 -38
53 0 24 60 20 115 -6z m383 11 c51 -18 50 -60 -3 -95 -36 -24 -31 -41 16 -48
23 -4 51 -17 66 -32 22 -22 23 -27 11 -46 -8 -11 -29 -26 -48 -32 -24 -8 -36
-18 -38 -33 -5 -31 -30 -29 -64 4 -16 15 -48 37 -70 48 -68 33 -81 60 -79 160
l1 51 68 16 c83 20 101 21 140 7z m718 -49 c26 -10 26 -11 8 -32 -45 -50 -184
-68 -184 -23 0 42 114 78 176 55z m74 -81 c0 -9 -9 -28 -21 -43 -17 -22 -28
-26 -72 -26 -29 0 -67 -4 -85 -9 -27 -8 -36 -7 -53 10 -32 32 -24 45 24 41 62
-5 118 13 152 48 27 29 31 30 42 14 7 -10 13 -25 13 -35z m-41 -110 c42 -15
39 -45 -8 -76 -27 -19 -48 -23 -106 -23 -83 0 -108 13 -94 48 19 48 134 76
208 51z m54 -127 c-18 -37 -19 -37 -71 -34 -30 2 -77 -2 -105 -9 -48 -11 -51
-11 -69 11 -10 12 -18 25 -18 29 0 3 33 5 74 3 85 -5 133 8 166 44 21 21 25
22 33 9 5 -10 2 -29 -10 -53z m-482 42 c83 -27 113 -92 67 -141 -19 -20 -20
-27 -10 -44 14 -22 12 -23 -46 -33 -21 -4 -45 0 -63 9 -33 18 -39 36 -9 28 18
-5 20 0 20 36 0 29 -5 43 -16 48 -24 9 -49 -10 -52 -41 -4 -29 -6 -30 -33 -16
-38 21 -17 107 37 149 32 25 41 26 105 5z m-262 -125 c79 -61 92 -75 89 -97
-2 -20 -11 -28 -36 -34 -26 -7 -32 -13 -27 -26 16 -41 16 -80 1 -110 -16 -32
-61 -62 -91 -62 -32 0 -73 30 -89 65 -9 19 -19 35 -22 35 -3 0 -17 -9 -32 -20
-48 -35 -132 0 -132 55 0 39 10 54 59 87 25 17 48 33 50 35 2 1 -8 14 -22 27
-15 14 -27 29 -27 34 0 21 37 53 75 67 79 28 102 22 204 -56z m686 9 c33 -15
32 -41 -2 -68 -23 -18 -38 -21 -80 -18 -28 3 -63 12 -78 22 -24 16 -26 20 -13
33 19 18 85 42 120 43 15 0 39 -5 53 -12z m75 -82 c0 -22 -8 -40 -26 -57 -23
-21 -36 -24 -120 -27 l-94 -4 -15 36 c-22 52 -19 56 23 34 28 -15 51 -18 97
-15 53 3 62 7 89 39 35 42 46 40 46 -6z m-410 -136 c33 -17 60 -37 60 -45 0
-23 -39 -57 -58 -51 -9 2 -31 7 -49 11 -50 10 -59 28 -38 75 10 22 20 40 22
40 2 0 30 -14 63 -30z m374 11 c7 -11 -79 -61 -105 -61 -10 0 -43 9 -74 21
-46 17 -54 23 -44 35 8 10 38 14 115 14 56 0 105 -4 108 -9z m609 -7 c37 -7
37 -7 22 -31 -18 -28 -14 -53 10 -53 8 0 15 -4 15 -9 0 -17 -60 -23 -156 -16
l-95 7 48 53 c51 57 71 63 156 49z m-463 -83 l35 -30 -56 -1 c-66 0 -78 10
-72 62 l5 38 27 -19 c14 -11 42 -33 61 -50z m-124 -8 c-2 -3 -21 1 -42 7 l-37
13 39 23 39 24 3 -31 c2 -17 1 -33 -2 -36z m-76 -48 c0 -20 -409 -193 -601
-254 -315 -99 -963 -230 -1144 -231 -68 0 -71 1 -87 30 -21 37 -22 36 88 44
44 3 164 19 265 36 559 93 867 175 1209 320 117 50 144 58 203 59 37 0 67 -1
67 -4z m88 -28 c4 -22 -74 -71 -213 -135 -315 -143 -444 -188 -723 -251 -305
-69 -794 -144 -835 -128 -9 3 -17 11 -17 16 0 13 15 16 144 31 118 14 485 87
686 136 272 67 582 178 815 293 66 33 125 58 130 57 6 -2 11 -10 13 -19z m94
-42 c203 -188 785 -464 1221 -580 75 -20 85 -41 16 -37 -247 17 -726 211
-1054 428 -155 103 -249 183 -253 217 -2 15 0 27 3 27 4 0 34 -25 67 -55z
m263 -37 c339 -213 565 -322 830 -397 119 -33 315 -75 407 -86 l58 -7 -31 -40
c-28 -35 -35 -38 -63 -33 -143 29 -273 61 -368 91 -383 121 -897 370 -1062
515 l-39 35 74 -1 74 -1 120 -76z m-326 8 c8 -9 14 -102 18 -279 l6 -264 -34
-5 c-19 -3 -35 -4 -37 -3 -9 8 -17 541 -9 553 13 16 42 15 56 -2z m-89 -143
c0 -119 9 -385 13 -406 1 -6 -8 -13 -20 -15 -19 -3 -22 4 -33 70 -18 109 -69
354 -80 383 -9 23 -6 27 48 54 31 17 60 30 65 31 4 0 7 -53 7 -117z m244 -66
c-73 -324 -86 -370 -97 -357 -2 3 -7 121 -11 263 l-6 257 64 -50 64 -50 -14
-63z m-380 41 c16 -72 76 -386 76 -400 0 -5 -8 -8 -17 -8 -13 0 -23 17 -37 58
-28 85 -101 252 -136 313 -18 29 -28 55 -24 56 5 2 32 14 59 27 28 14 53 25
56 25 4 1 14 -32 23 -71z m-134 -59 c17 -33 58 -126 90 -207 63 -159 63 -160
0 -161 -22 -1 -32 13 -87 122 -34 68 -85 153 -113 190 l-51 67 43 19 c53 22
71 29 79 30 3 1 21 -26 39 -60z m636 -3 c-2 -6 -22 -51 -44 -101 -21 -49 -51
-127 -66 -172 -28 -85 -40 -103 -58 -85 -7 7 4 71 36 204 26 106 49 199 51
206 3 9 16 5 45 -14 23 -15 39 -32 36 -38z m-759 -88 c71 -108 156 -275 148
-288 -14 -22 -35 -5 -97 78 -36 48 -104 126 -150 174 l-84 88 55 19 c31 11 59
20 62 20 3 1 33 -41 66 -91z m849 46 c24 -14 44 -28 44 -30 0 -3 -18 -29 -40
-58 -22 -29 -67 -102 -98 -162 -32 -59 -63 -109 -68 -111 -6 -2 -18 3 -28 10
-18 13 -17 18 18 113 57 151 107 264 118 264 5 0 29 -12 54 -26z m-992 -81
c77 -81 156 -174 196 -232 19 -27 20 -35 9 -42 -34 -21 -62 -6 -211 119 -84
70 -171 141 -192 158 l-39 30 74 21 c41 11 77 21 81 22 4 0 41 -34 82 -76z
m1131 10 c30 -15 55 -30 54 -33 0 -3 -24 -25 -52 -49 -29 -25 -92 -89 -141
-143 -50 -54 -92 -98 -95 -98 -3 0 -13 5 -21 10 -12 8 -9 20 24 82 65 121 156
258 173 258 1 0 27 -12 58 -27z m-1369 -4 c10 -12 73 -67 139 -122 136 -113
195 -168 195 -179 0 -4 -15 -10 -34 -13 -39 -8 -35 -10 -216 116 -69 47 -160
106 -203 129 -43 23 -76 45 -73 48 5 4 139 39 162 41 6 1 19 -9 30 -20z m-222
-37 c3 -5 43 -30 88 -57 67 -39 317 -207 352 -236 4 -4 -12 -10 -36 -14 -43
-7 -51 -3 -179 72 -74 44 -187 110 -252 148 -65 37 -116 69 -114 72 5 5 85 20
114 22 12 1 24 -3 27 -7z m1741 -34 c25 -12 45 -25 45 -28 0 -3 -44 -37 -97
-75 -54 -38 -130 -97 -169 -131 l-70 -61 -33 17 -34 17 140 141 c76 78 147
142 156 142 9 0 37 -10 62 -22z m-1810 -65 c312 -183 383 -227 379 -234 -2 -4
-15 -10 -29 -13 -20 -5 -68 16 -225 98 -213 113 -341 189 -341 202 0 12 60 23
86 16 10 -3 69 -34 130 -69z m-232 23 c49 -37 202 -127 306 -181 52 -27 90
-50 84 -52 -26 -9 -565 196 -597 227 -5 5 8 11 30 15 22 3 46 8 54 10 50 10
93 3 123 -19z m-201 -41 c106 -57 283 -129 483 -195 131 -42 196 -68 208 -83
23 -29 58 -99 52 -105 -10 -10 -328 124 -560 236 -264 127 -281 136 -296 163
-17 32 42 24 113 -16z m2423 6 l70 -29 -136 -66 c-75 -36 -173 -90 -219 -120
l-83 -54 -34 16 c-18 9 -33 19 -33 24 0 22 315 257 345 257 11 0 51 -13 90
-28z m184 -66 c19 -6 30 -14 25 -18 -6 -3 -108 -47 -228 -96 -119 -50 -230
-98 -247 -106 -28 -15 -69 -13 -69 3 0 27 432 245 465 235 11 -3 35 -11 54
-18z m-714 -160 c324 -162 359 -181 350 -195 -11 -18 -32 -11 -202 66 -92 42
-233 105 -313 140 -80 35 -145 68 -144 74 1 5 2 21 3 35 0 14 4 25 8 25 4 0
138 -65 298 -145z m-342 103 c-3 -18 -6 -33 -7 -34 -1 0 -91 -17 -201 -38
-110 -20 -287 -59 -393 -85 -191 -47 -193 -48 -207 -28 -13 19 -12 22 23 37
79 35 683 176 769 179 20 1 22 -3 16 -31z m1232 15 c25 -3 48 -9 50 -13 15
-24 -629 -209 -650 -188 -10 9 511 217 533 212 12 -2 42 -7 67 -11z m99 -45
c-31 -54 -45 -65 -101 -77 -112 -25 -349 -92 -432 -123 -83 -30 -83 -30 -117
-12 -19 10 -34 21 -34 24 0 3 63 17 140 32 136 27 354 92 476 143 68 28 78 30
68 13z m-1314 -83 c0 -38 -4 -47 -22 -54 -33 -12 -38 -6 -38 50 0 48 1 49 30
49 29 0 30 -2 30 -45z m90 -22 l0 -44 -30 18 c-25 14 -30 24 -30 55 0 37 0 37
30 27 27 -10 30 -15 30 -56z m-182 5 l-3 -53 -60 -8 c-33 -4 -163 -24 -289
-43 -141 -21 -233 -31 -238 -26 -6 6 -8 20 -6 33 3 21 15 26 123 52 98 24 438
93 468 96 4 1 7 -23 5 -51z m330 -31 c48 -24 132 -63 187 -87 121 -53 125 -56
125 -86 0 -32 -13 -31 -133 14 -186 71 -298 124 -292 139 3 8 5 26 5 39 0 13
5 24 10 24 6 0 50 -19 98 -43z m-1332 -38 l119 -50 -100 6 c-106 6 -286 32
-297 43 -3 4 -4 20 -1 36 l6 29 77 -7 c60 -5 101 -17 196 -57z m1124 -24 c0
-30 -5 -37 -38 -54 -58 -30 -374 -127 -589 -182 -478 -121 -1008 -204 -1343
-210 -121 -2 -113 -4 -133 30 l-17 29 73 6 c623 56 1153 160 1837 360 102 30
191 55 198 55 7 1 12 -12 12 -34z m134 -24 c214 -103 485 -196 791 -271 288
-70 658 -140 743 -140 38 0 38 -3 12 -39 -19 -27 -22 -28 -97 -24 -481 25
-1016 166 -1423 374 -53 27 -103 54 -112 61 -15 13 -33 88 -21 88 4 0 52 -22
107 -49z m-884 -1 c0 -27 -3 -30 -30 -30 -23 0 -33 6 -39 23 -9 24 5 35 47 36
18 1 22 -4 22 -29z m1752 10 l39 0 -3 -42 -3 -43 -105 2 c-58 1 -138 4 -177 8
-65 6 -72 9 -63 24 5 10 36 25 72 35 35 10 68 20 73 22 6 2 37 1 69 -1 32 -3
77 -5 98 -5z m-1323 -4 c-15 -14 -180 -48 -319 -65 -291 -36 -433 -51 -438
-46 -3 3 -1 5 4 5 5 0 50 7 101 15 50 8 174 26 275 40 101 14 219 32 263 39
84 15 121 19 114 12z m511 -155 c333 -170 803 -301 1238 -347 96 -10 75 -29
-29 -27 -156 3 -417 50 -633 113 -248 73 -591 197 -698 252 -56 29 -58 32 -58
70 l0 39 43 -26 c23 -14 85 -48 137 -74z m-210 50 c0 -38 0 -38 -80 -75 -169
-77 -477 -172 -719 -221 -358 -73 -553 -95 -901 -102 l-276 -6 -16 25 -16 24
197 12 c368 22 783 91 1236 207 168 43 516 149 545 166 26 15 30 10 30 -30z
m620 -5 c0 -24 -18 -38 -39 -31 -21 6 -26 21 -15 49 5 12 10 13 30 4 13 -6 24
-16 24 -22z m-1350 -6 c-36 -11 -52 -11 -45 0 3 6 21 10 38 9 31 -1 31 -1 7
-9z m-85 -10 c5 -8 -16 -16 -92 -33 -13 -3 -23 -1 -23 4 0 5 0 12 0 17 -1 4
16 10 37 13 60 10 71 10 78 -1z m-145 -24 c0 -8 -4 -18 -10 -21 -5 -3 -10 3
-10 14 0 12 5 21 10 21 6 0 10 -6 10 -14z m1019 -246 c7 -124 15 -236 18 -249
5 -22 4 -23 -18 -16 -13 4 -33 7 -44 7 -20 0 -20 7 -20 239 0 228 1 239 20
247 11 6 23 7 26 3 3 -3 12 -107 18 -231z m-89 36 c0 -84 -3 -156 -7 -160 -4
-4 -24 59 -45 140 -21 81 -37 148 -35 149 1 0 18 8 37 17 19 8 38 14 43 11 4
-2 7 -73 7 -157z m164 143 c35 -15 46 -25 42 -37 -3 -9 -12 -111 -21 -227 -10
-115 -19 -212 -21 -214 -15 -16 -24 42 -41 257 -10 133 -15 242 -12 242 4 0
27 -9 53 -21z m-231 -231 c26 -112 48 -209 47 -216 0 -8 -9 -12 -22 -10 -18 2
-28 24 -64 131 -24 71 -59 158 -79 194 -20 36 -35 66 -33 68 8 6 84 34 94 34
5 1 31 -90 57 -201z m390 162 c4 -3 -10 -82 -32 -176 -22 -93 -42 -190 -46
-216 -7 -45 -25 -63 -39 -39 -3 5 1 101 9 213 8 111 15 215 15 230 l0 28 43
-17 c23 -9 45 -19 50 -23z m-531 -77 c39 -86 118 -320 110 -327 -3 -3 -17 -6
-32 -6 -21 0 -30 9 -49 48 -33 67 -159 280 -171 287 -22 13 -8 34 33 48 71 26
75 24 109 -50z m612 51 c36 -12 46 -21 43 -33 -39 -124 -153 -411 -163 -411
-21 0 -17 34 26 235 22 102 40 194 40 205 0 24 -4 24 54 4z m-741 -121 c84
-137 149 -262 142 -273 -3 -5 -17 -10 -30 -10 -18 0 -49 32 -137 142 -62 78
-123 154 -136 170 -25 30 -26 29 38 47 63 17 66 15 123 -76z m883 71 c27 -9
50 -18 52 -19 2 -2 -24 -44 -57 -93 -34 -50 -88 -142 -122 -206 -56 -106 -62
-115 -81 -105 -12 7 -18 17 -14 27 3 10 37 100 76 202 38 102 72 191 75 198 6
16 12 15 71 -4z m-1024 -116 c197 -241 206 -257 137 -258 -19 0 -38 16 -81 68
-30 37 -96 110 -146 163 l-91 96 42 10 c23 6 47 11 53 12 5 0 44 -41 86 -91z
m1184 62 c24 -9 25 -12 12 -28 -8 -9 -37 -44 -65 -77 -28 -33 -90 -114 -138
-180 -48 -66 -90 -121 -94 -123 -4 -1 -14 3 -24 10 -15 12 -10 25 56 138 40
69 97 161 127 203 57 84 56 83 126 57z m-1303 -102 c139 -154 196 -222 191
-230 -3 -4 -19 -8 -36 -8 -25 0 -48 17 -123 89 -51 48 -126 117 -166 151 -41
35 -75 66 -77 70 -4 11 101 27 120 18 9 -4 50 -45 91 -90z m1411 70 c22 -6 45
-14 49 -18 4 -4 -16 -25 -46 -48 -68 -53 -166 -155 -246 -257 -35 -44 -67 -81
-72 -83 -4 -2 -17 2 -29 8 -19 10 -15 18 84 148 100 131 207 261 215 262 2 0
22 -5 45 -12z m-1486 -163 c83 -81 152 -150 152 -155 0 -4 -11 -10 -23 -12
-18 -4 -52 18 -148 95 -68 55 -160 125 -204 156 l-79 56 59 10 c33 6 67 8 75
4 8 -4 84 -73 168 -154z m-262 76 c27 -20 112 -85 188 -146 122 -97 135 -111
114 -116 -13 -4 -32 0 -43 7 -107 72 -272 174 -365 225 -63 34 -110 64 -105
66 6 1 35 6 65 11 61 9 71 6 146 -47z m2044 9 c0 -3 -31 -22 -70 -43 -143 -78
-328 -207 -421 -294 -31 -30 -39 -33 -62 -24 -15 6 -27 15 -27 19 0 19 210
250 276 303 116 93 100 89 209 65 52 -11 95 -23 95 -26z m-2222 -31 c194 -115
382 -232 392 -245 9 -10 2 -14 -34 -19 -43 -7 -50 -4 -203 86 -88 52 -212 119
-276 149 -64 30 -116 58 -116 62 -1 4 23 9 52 11 28 2 62 4 75 5 13 1 62 -21
110 -49z m-185 -30 c142 -71 446 -241 447 -250 0 -4 -12 -10 -26 -13 -20 -5
-32 -2 -46 13 -33 36 -79 55 -643 269 l-70 27 65 6 c144 13 142 13 273 -52z
m-322 10 c52 -23 211 -86 354 -141 292 -112 325 -129 325 -163 l0 -24 -77 33
c-113 48 -606 231 -739 274 -143 47 -153 62 -40 62 75 0 91 -4 177 -41z m2938
26 c63 -9 116 -17 118 -19 2 -2 -52 -22 -119 -46 -245 -85 -486 -196 -611
-281 -50 -34 -60 -38 -77 -27 -11 7 -20 15 -20 18 1 10 155 128 245 188 121
81 305 182 330 182 11 0 71 -7 134 -15z m191 -42 c-1 -41 -16 -53 -108 -89
-285 -108 -542 -223 -656 -292 -37 -23 -72 -42 -77 -42 -5 0 -9 13 -9 29 0 25
9 35 63 69 134 85 305 162 577 263 185 68 210 76 210 62z m-1214 -201 c120
-60 245 -120 276 -133 50 -21 58 -28 58 -51 l0 -28 -42 17 c-24 9 -71 32 -105
50 -34 19 -137 69 -230 111 -92 43 -174 81 -180 85 -14 9 -18 57 -4 57 4 0
107 -49 227 -108z m-256 78 c0 -25 21 -19 -250 -69 -124 -23 -329 -62 -456
-86 -127 -25 -234 -45 -238 -45 -3 0 -6 9 -6 19 0 15 11 21 63 29 34 5 130 24
212 41 83 17 186 38 230 46 44 8 157 30 250 49 205 41 195 41 195 16z m0 -89
c0 -28 -14 -41 -46 -41 -9 0 -14 11 -14 28 0 35 6 42 37 42 19 0 23 -5 23 -29z
m171 -36 c139 -68 140 -73 4 -22 -44 16 -95 30 -112 31 -29 1 -33 4 -33 29 0
15 2 27 4 27 1 0 63 -29 137 -65z m-261 21 c0 -29 -4 -35 -27 -40 -55 -12
-580 -105 -660 -117 -46 -7 -85 -10 -88 -7 -3 3 -3 17 0 31 5 18 15 26 38 30
117 20 639 118 672 126 63 14 65 14 65 -23z m-1025 -62 c130 -52 143 -60 130
-73 -18 -17 -415 34 -435 56 -4 4 -6 22 -3 39 l5 31 96 -5 c85 -4 111 -10 207
-48z m1565 -104 c201 -65 398 -129 438 -141 39 -11 72 -25 72 -30 0 -5 -6 -9
-12 -9 -31 0 -373 105 -588 181 -193 68 -246 82 -295 83 -33 0 -161 -17 -285
-38 -342 -56 -931 -146 -965 -146 -76 0 9 20 205 49 183 28 821 138 930 161
94 20 124 14 500 -110z m-286 38 c62 -21 88 -40 73 -55 -9 -8 -187 57 -187 68
0 15 42 10 114 -13z m916 -8 c0 -41 -13 -45 -201 -69 -148 -19 -199 -19 -199
0 0 5 33 26 73 46 75 39 125 48 260 51 l67 2 0 -30z m-1980 -10 c0 -20 -5 -30
-15 -30 -8 0 -18 -1 -22 -2 -11 -5 -11 47 1 54 23 16 36 7 36 -22z m848 15
c-3 -3 -44 -18 -91 -34 l-87 -30 0 23 c0 21 6 25 68 33 81 12 117 15 110 8z
m52 -70 c0 -54 -1 -55 -37 -71 -240 -103 -616 -178 -1208 -241 -203 -21 -844
-26 -881 -6 -20 12 -62 79 -54 86 3 2 43 0 90 -6 47 -6 263 -11 480 -11 365
-1 406 1 540 22 284 45 632 131 910 227 85 29 156 53 158 54 1 0 2 -24 2 -54z
m87 34 c79 -34 475 -166 670 -224 287 -85 588 -144 956 -186 59 -6 107 -16
107 -21 0 -5 -8 -20 -17 -35 -17 -25 -18 -26 -111 -19 -233 16 -696 90 -926
148 -148 37 -515 157 -665 217 l-66 26 -3 58 c-2 31 -1 57 2 57 2 0 26 -9 53
-21z m-347 -14 c0 -16 -6 -25 -15 -25 -9 0 -15 9 -15 25 0 16 6 25 15 25 9 0
15 -9 15 -25z m-60 -14 c0 -27 -4 -30 -50 -40 -28 -6 -75 -14 -105 -17 l-55
-7 0 31 0 30 93 15 c50 8 98 15 105 16 7 1 12 -11 12 -28z m630 -1 c0 -6 -9
-10 -20 -10 -13 0 -20 7 -20 20 0 18 3 19 20 10 11 -6 20 -15 20 -20z m138
-34 c51 -17 82 -33 82 -42 0 -8 -1 -14 -3 -14 -7 0 -178 59 -187 65 -13 8 -2
28 14 22 6 -2 48 -16 94 -31z m-1000 -3 c-4 -39 -28 -42 -28 -4 0 21 5 31 16
31 11 0 14 -8 12 -27z m-58 -12 c0 -28 -2 -29 -62 -35 -35 -4 -80 -10 -101
-13 -38 -6 -39 -5 -35 23 3 28 6 30 73 40 118 19 125 18 125 -15z m-222 -28
c-4 -33 -24 -41 -31 -12 -7 27 -1 39 19 39 11 0 14 -8 12 -27z m-60 -10 c-2
-20 -9 -29 -25 -31 -20 -3 -23 1 -23 27 0 27 4 31 26 31 22 0 25 -4 22 -27z
m-80 -10 c-3 -24 -9 -29 -43 -34 -22 -4 -41 -6 -42 -5 0 0 -3 12 -5 25 -3 26
18 38 70 40 20 1 23 -3 20 -26z m1562 6 c10 -18 9 -20 -7 -17 -10 2 -19 11
-21 21 -5 24 15 21 28 -4z m-1680 -23 c0 -13 -7 -26 -15 -30 -11 -4 -15 2 -15
24 0 20 5 30 15 30 9 0 15 -9 15 -24z m1525 -131 c215 -72 368 -113 565 -149
151 -27 516 -81 628 -91 56 -6 70 -10 62 -20 -14 -17 -352 -12 -495 9 -357 50
-635 113 -970 219 l-200 64 -3 60 -3 61 113 -44 c62 -25 199 -74 303 -109z
m358 105 c11 0 9 -30 -2 -30 -22 0 -171 51 -171 59 0 18 16 18 88 -5 42 -13
80 -24 85 -24z m-815 -75 c-33 -32 -407 -110 -693 -144 -406 -49 -517 -56
-921 -56 -372 0 -393 1 -413 19 -12 11 -21 22 -21 25 0 3 156 6 347 6 295 0
378 4 548 23 541 61 856 123 1090 213 l70 27 3 -51 c2 -32 -2 -55 -10 -62z
m-718 79 c-82 -20 -305 -60 -437 -78 -37 -5 -41 -4 -36 14 6 22 2 21 208 45
77 9 178 22 225 29 129 21 146 16 40 -10z m1618 -42 c3 -9 -3 -13 -19 -10 -12
1 -24 9 -27 16 -3 9 3 13 19 10 12 -1 24 -9 27 -16z m-829 -73 c30 -11 32 -15
27 -43 -3 -17 -11 -93 -17 -168 -12 -131 -14 -138 -34 -138 -21 0 -22 6 -28
108 -4 59 -13 134 -21 167 -8 33 -14 61 -12 62 1 1 13 6 26 12 14 5 25 10 26
10 1 1 16 -4 33 -10z m-100 -96 c7 -43 15 -120 18 -170 l6 -93 -36 0 c-35 0
-36 1 -42 48 -6 56 -41 230 -50 253 -4 11 4 18 32 26 21 6 43 11 49 12 7 0 16
-31 23 -76z m222 56 c19 -7 35 -13 37 -14 1 -1 -4 -18 -13 -38 -20 -47 -52
-170 -60 -229 -5 -39 -10 -48 -26 -48 -30 0 -33 23 -20 159 19 197 16 192 82
170z m-327 -145 c8 -43 17 -102 20 -130 l5 -52 -41 -6 c-22 -4 -42 -5 -44 -3
-2 2 -15 47 -28 100 -14 53 -34 117 -45 143 -12 26 -19 49 -16 52 2 3 28 10
57 17 53 12 53 12 65 -15 6 -15 18 -62 27 -106z m468 97 l27 -10 -33 -50 c-19
-28 -48 -90 -66 -138 -17 -49 -35 -94 -39 -101 -10 -17 -41 -4 -41 17 0 37 22
140 47 219 28 92 29 92 105 63z m-635 -38 c9 -21 29 -85 44 -143 29 -113 27
-126 -23 -118 -16 2 -26 18 -43 68 -12 36 -39 98 -59 137 -20 40 -36 75 -36
77 0 3 12 7 28 9 67 10 72 8 89 -30z m-114 -55 c45 -89 88 -204 80 -212 -4 -3
-24 -6 -45 -6 -30 0 -38 4 -38 18 0 23 -62 152 -100 207 -16 24 -30 46 -30 49
0 4 27 9 81 14 11 1 28 -22 52 -70z m858 61 c19 -6 40 -13 47 -15 8 -2 -8 -28
-44 -70 -31 -37 -79 -101 -106 -143 -60 -92 -52 -85 -76 -72 -20 11 -20 13 15
98 43 108 59 139 90 181 27 36 27 36 74 21z m-1000 -51 c38 -52 109 -195 109
-220 0 -10 -4 -18 -9 -18 -5 0 -22 -3 -40 -6 -27 -6 -32 -3 -41 20 -14 39
-114 187 -144 215 -35 33 -33 39 12 44 81 8 81 8 113 -35z m-148 -28 c53 -58
149 -209 141 -222 -3 -4 -24 -8 -47 -8 -40 1 -43 3 -76 57 -19 32 -68 92 -109
134 l-73 78 33 4 c82 10 84 9 131 -43z m1311 34 c20 -3 36 -7 36 -9 0 -1 -39
-43 -87 -92 -49 -50 -104 -115 -123 -146 -19 -31 -38 -56 -41 -57 -4 0 -23 7
-43 15 l-36 15 40 59 c55 81 158 209 178 221 9 5 22 8 29 5 6 -2 28 -7 47 -11z
m-1442 -71 c55 -58 148 -181 148 -197 0 -2 -14 -8 -31 -11 -28 -6 -35 -3 -58
26 -49 65 -136 152 -193 195 -63 46 -61 52 18 53 50 1 52 0 116 -66z m-224 38
c62 -32 262 -222 262 -250 0 -4 -20 -11 -45 -14 -43 -6 -47 -5 -92 39 -53 52
-186 157 -253 200 l-45 29 55 6 c30 3 61 6 68 7 7 1 29 -7 50 -17z m-678 -16
c14 -7 84 -36 155 -65 198 -80 456 -212 442 -227 -3 -3 -66 20 -139 50 -107
45 -427 164 -617 230 -19 7 -36 18 -39 25 -3 11 14 12 84 6 49 -4 100 -12 114
-19z m2518 6 c11 -6 7 -13 -19 -29 -36 -22 -170 -156 -230 -231 l-36 -43 -36
13 c-21 7 -37 16 -37 20 0 16 121 158 190 223 71 66 74 68 113 62 22 -4 47
-10 55 -15z m-2246 1 c2 -5 30 -23 63 -42 50 -28 299 -203 329 -231 5 -5 7
-11 4 -14 -3 -3 -38 15 -78 41 -85 55 -293 155 -432 209 -54 20 -98 39 -98 41
0 8 208 4 212 -4z m251 -34 c72 -49 234 -176 261 -207 20 -22 19 -23 -32 -34
-17 -4 -60 22 -180 110 -86 63 -178 126 -204 139 -27 13 -48 27 -48 29 0 3 32
5 71 5 66 0 74 -3 132 -42z m2126 11 c99 -16 99 -16 37 -54 -84 -50 -131 -88
-231 -187 l-91 -89 -43 15 c-23 9 -47 18 -52 22 -14 8 162 196 240 254 36 27
68 50 70 50 2 0 34 -5 70 -11z m306 -48 l130 -17 -75 -18 c-211 -52 -409 -146
-511 -243 -29 -28 -41 -33 -63 -27 -14 3 -28 10 -31 14 -3 4 39 50 94 102 101
95 267 208 305 207 12 0 80 -8 151 -18z m413 -50 c-7 -12 -29 -23 -53 -26
-272 -44 -470 -102 -664 -195 -68 -33 -129 -60 -137 -60 -33 0 -19 22 38 63
198 141 482 235 716 236 109 1 112 0 100 -18z m-1498 -66 c32 -17 37 -38 18
-80 -14 -31 -12 -33 45 -41 46 -7 47 -6 58 25 6 17 14 31 17 31 3 0 36 -12 74
-27 59 -24 68 -31 68 -53 0 -21 10 -31 55 -53 70 -34 93 -35 97 -2 2 15 7 22
14 17 7 -4 13 -55 16 -125 l5 -119 -36 7 c-20 4 -139 26 -266 49 l-230 43 -5
164 c-6 189 -1 201 70 164z m-100 -163 l0 -169 -222 -17 c-296 -23 -631 -46
-692 -46 l-49 0 6 141 c3 77 7 142 9 143 1 2 26 6 55 10 l52 7 3 -33 3 -33 55
4 c84 5 104 15 97 51 -7 32 -6 32 101 45 55 7 69 -5 35 -30 -30 -22 -4 -35 73
-35 84 0 98 12 69 56 -9 14 -15 27 -13 28 6 6 173 23 181 19 4 -2 -1 -18 -10
-34 -16 -26 -16 -31 -3 -39 17 -11 59 -12 113 -4 l38 7 -7 43 c-7 47 -3 49 74
53 l32 1 0 -168z m-142 131 c0 -31 -12 -43 -45 -43 -19 0 -23 6 -23 29 0 29 7
34 56 40 6 0 12 -11 12 -26z m340 -12 c12 -7 12 -13 0 -35 -12 -23 -16 -25
-31 -14 -11 9 -15 21 -11 36 7 23 20 27 42 13z m-638 -10 c0 -5 3 -16 6 -25 5
-13 -1 -16 -30 -16 -32 0 -36 3 -36 25 0 21 5 25 30 25 17 0 30 -4 30 -9z
m-837 -57 c123 -50 153 -73 115 -87 -25 -9 -33 -8 -210 25 -127 24 -130 26
-108 82 15 40 69 35 203 -20z m564 2 c-4 -9 -17 -16 -29 -16 -13 0 -33 -3 -45
-6 -20 -5 -23 -2 -23 19 0 23 4 26 43 29 48 3 62 -4 54 -26z m-267 -86 c0 -79
0 -80 -25 -80 -27 0 -75 43 -75 66 0 8 -11 21 -25 30 -34 22 -31 42 8 48 129
21 117 28 117 -64z m1480 13 c0 -7 -2 -13 -5 -13 -4 0 -73 30 -84 37 -1 1 0 6
3 12 9 13 86 -18 86 -36z m524 -12 c3 -5 3 -30 0 -55 l-7 -46 -153 0 c-102 0
-154 4 -154 11 0 28 22 49 53 49 18 0 44 8 57 17 15 11 54 20 100 24 41 3 80
7 87 7 6 1 14 -2 17 -7z m-351 -33 c16 -8 16 -11 2 -38 -16 -31 -43 -50 -69
-50 -13 0 -16 12 -16 56 l0 56 33 -7 c17 -4 40 -12 50 -17z m-268 -197 c143
-28 352 -71 465 -96 113 -25 215 -45 227 -45 26 0 31 -18 8 -26 -8 -4 -221 35
-472 84 -252 50 -491 96 -532 102 -57 8 -134 7 -325 -5 -596 -36 -1136 -53
-1136 -37 0 9 35 12 117 12 185 0 573 20 878 45 380 31 449 28 770 -34z m-454
-27 c-65 -29 -71 -29 -71 -5 0 21 21 27 90 29 34 1 34 0 -19 -24z m192 10 c81
-15 87 -18 87 -40 0 -29 -4 -29 -83 -4 -92 31 -117 41 -117 51 0 12 12 11 113
-7z m-295 -25 c2 -20 -2 -28 -20 -33 -36 -9 -38 -8 -38 30 0 33 2 35 28 32 21
-2 28 -9 30 -29z m-88 -8 c0 -17 -4 -32 -8 -35 -4 -2 -68 -6 -142 -7 l-135 -2
-3 31 -3 31 68 4 c37 2 103 4 146 5 l77 2 0 -29z m-330 -16 c0 -28 -4 -35 -19
-35 -13 0 -20 9 -23 30 -5 34 -2 40 24 40 14 0 18 -8 18 -35z m-80 -5 c0 -29
-1 -30 -48 -30 -27 0 -83 -3 -124 -6 l-75 -7 -5 31 c-5 37 0 38 155 40 l97 2
0 -30z m1012 -80 c435 -120 807 -175 1256 -187 133 -3 242 -8 242 -11 0 -3
-12 -24 -27 -48 l-28 -44 -85 0 c-348 0 -1282 132 -1620 228 l-65 19 -3 75 -3
76 75 -29 c41 -16 157 -52 258 -79z m-72 80 c0 -22 -4 -28 -15 -24 -8 4 -15
17 -15 30 0 15 6 24 15 24 10 0 15 -10 15 -30z m-1290 -9 c0 -27 -3 -29 -52
-35 -29 -3 -79 -6 -110 -6 -58 0 -58 0 -58 29 0 28 2 30 48 34 26 2 75 4 110
5 l62 2 0 -29z m60 15 c0 -8 3 -21 6 -30 4 -12 0 -16 -15 -16 -17 0 -21 6 -21
30 0 20 5 30 15 30 8 0 15 -6 15 -14z m940 -51 c0 -56 -3 -66 -22 -79 -55 -34
-372 -86 -863 -142 -308 -34 -786 -30 -1230 12 -214 20 -206 17 -233 66 -12
23 -21 42 -20 43 2 1 50 -6 108 -15 227 -39 799 -66 1061 -50 436 25 885 107
1116 204 84 35 83 35 83 -39z m419 44 c58 -11 61 -13 61 -40 0 -34 3 -34 -82
-12 -64 16 -68 19 -68 46 0 21 4 28 14 24 8 -3 41 -11 75 -18z m-1669 -19 c0
-20 -5 -30 -15 -30 -10 0 -15 10 -15 30 0 20 5 30 15 30 10 0 15 -10 15 -30z
m1794 -6 c10 -4 16 -18 16 -36 0 -25 -4 -29 -22 -26 -18 2 -24 11 -26 36 -3
32 3 37 32 26z m144 -30 l82 -17 0 -33 c0 -40 -1 -40 -105 -17 l-75 16 0 34
c0 18 3 33 8 33 4 0 44 -7 90 -16z m-1058 -6 c-36 -15 -921 -40 -935 -27 -3 3
172 11 387 18 216 7 402 14 413 15 11 2 52 4 90 4 58 1 66 -1 45 -10z m1214
-28 c20 -7 26 -16 26 -41 0 -28 -3 -31 -22 -25 -13 3 -28 6 -33 6 -7 0 -9 15
-7 35 2 19 6 35 7 35 2 0 15 -4 29 -10z m132 -20 c9 0 14 -12 14 -36 0 -29 -3
-35 -16 -30 -9 3 -29 6 -45 6 -27 0 -29 3 -29 36 0 36 1 36 31 30 17 -3 38 -6
45 -6z m-1681 -15 c-38 -7 -98 -16 -132 -20 -53 -6 -63 -5 -63 8 0 18 36 23
175 24 l90 1 -70 -13z m-537 -28 c3 -22 -1 -27 -17 -27 -17 0 -21 6 -21 31 0
24 4 30 18 27 10 -2 18 -14 20 -31z m242 13 c0 -21 -15 -25 -137 -35 l-73 -5
0 30 0 30 105 0 c98 0 105 -1 105 -20z m68 3 c-5 -26 -38 -29 -38 -4 0 15 6
21 21 21 14 0 19 -5 17 -17z m1994 -24 c-2 -16 -8 -29 -12 -29 -21 0 -38 13
-34 26 2 8 6 20 8 28 3 9 13 12 24 10 14 -4 17 -12 14 -35z m-995 0 c201 -77
1097 -217 1504 -235 82 -4 149 -10 149 -13 0 -4 -7 -17 -17 -30 l-16 -24 -206
6 c-251 8 -634 55 -1119 136 l-337 56 -3 58 c-3 61 0 64 45 46z m-79 -46 l-3
-47 -60 -13 c-217 -45 -591 -89 -960 -114 -275 -18 -860 3 -1128 42 -67 10
-80 15 -89 35 -6 13 -9 26 -7 28 2 2 63 -2 134 -10 379 -39 701 -50 960 -35
332 20 879 90 1050 135 50 13 94 24 98 25 4 0 7 -20 5 -46z m55 -100 c-2 -7
-6 -71 -9 -143 -7 -126 -8 -130 -29 -130 -30 0 -35 21 -35 168 l0 123 38 -3
c23 -2 36 -8 35 -15z m-103 -133 l0 -140 -29 0 -29 0 -7 108 c-3 59 -8 119
-11 134 -5 27 4 34 54 37 22 1 22 0 22 -139z m215 119 c5 -6 1 -45 -13 -107
-11 -53 -24 -114 -28 -134 -4 -28 -11 -38 -25 -38 -10 0 -21 4 -24 10 -3 5 -3
73 1 150 l7 140 36 -6 c20 -4 40 -10 46 -15z m-315 -98 c0 -54 3 -113 6 -130
6 -31 6 -31 -35 -31 l-41 0 0 84 c0 46 3 104 6 130 6 43 9 46 35 46 l29 0 0
-99z m-94 52 c-3 -21 -6 -77 -6 -125 0 -86 0 -88 -24 -88 -22 0 -25 5 -31 58
-3 31 -10 81 -15 111 -6 30 -10 58 -10 62 0 7 15 10 79 17 10 2 12 -7 7 -35z
m522 31 c17 -5 21 -11 16 -23 -4 -9 -26 -70 -49 -136 -41 -116 -55 -135 -83
-116 -11 7 -9 33 14 145 28 131 29 136 54 136 14 0 35 -3 48 -6z m-634 -36 c3
-13 9 -67 13 -120 l6 -98 -41 0 c-39 0 -42 2 -42 28 0 25 -21 128 -36 179 -5
18 -1 22 23 26 62 9 71 7 77 -15z m799 5 c4 -2 -14 -29 -41 -58 -26 -30 -67
-90 -91 -135 -44 -82 -47 -86 -69 -71 -11 7 -7 28 22 107 20 55 44 116 53 137
l17 38 50 -6 c28 -4 54 -9 59 -12z m-924 -40 c6 -21 13 -58 16 -83 3 -25 8
-57 10 -72 4 -27 2 -28 -35 -28 l-39 0 -6 58 c-6 54 -20 117 -32 148 -4 11 4
14 36 14 38 0 41 -2 50 -37z m1047 22 c24 -5 21 -10 -66 -102 -50 -53 -103
-114 -118 -135 -22 -32 -31 -37 -52 -32 -14 3 -26 7 -28 9 -12 12 82 159 146
227 35 38 50 47 68 43 13 -3 36 -7 50 -10z m-2461 -15 c6 -3 30 -12 55 -19 24
-7 112 -44 195 -82 160 -73 280 -132 255 -126 -8 2 -159 50 -335 106 -176 56
-331 105 -344 109 -13 4 -26 13 -29 20 -3 11 15 12 94 6 55 -3 104 -10 109
-14z m1312 -45 c6 -33 13 -80 15 -105 2 -39 0 -45 -19 -48 -18 -3 -23 5 -33
50 -7 29 -21 75 -31 101 -26 65 -25 69 19 65 37 -3 37 -3 49 -63z m-95 -30
c16 -44 27 -91 25 -105 -2 -21 -7 -25 -36 -25 l-34 0 -22 90 c-12 50 -26 98
-30 108 -7 16 -3 18 31 15 l39 -3 27 -80z m-885 29 c83 -45 303 -187 303 -196
0 -4 -44 15 -97 42 -54 27 -165 79 -248 116 -82 36 -153 69 -157 73 -4 4 25 5
65 3 59 -3 84 -10 134 -38z m774 -24 c32 -126 32 -137 7 -143 -30 -8 -40 4
-72 96 -16 42 -32 80 -37 83 -5 3 -9 12 -9 20 0 12 11 14 47 12 l47 -3 17 -65z
m1511 61 c26 -6 22 -10 -77 -90 -58 -46 -126 -106 -151 -133 -43 -46 -49 -49
-80 -43 -45 8 -42 13 96 158 105 109 114 117 148 116 21 -1 49 -4 64 -8z
m-1641 -43 c21 -42 59 -144 59 -160 0 -4 -15 -8 -32 -8 -31 0 -35 5 -83 96
-27 53 -51 100 -53 105 -2 5 17 9 42 9 43 0 47 -2 67 -42z m-417 -4 c45 -34
156 -159 156 -176 0 -17 -34 -7 -65 20 -17 16 -86 62 -151 102 -65 41 -123 77
-128 82 -6 4 24 8 66 8 71 0 78 -2 122 -36z m178 -27 c74 -99 94 -137 77 -148
-26 -17 -47 -9 -75 29 -15 20 -59 70 -98 110 l-69 72 59 0 59 0 47 -63z m148
-37 c27 -55 50 -102 50 -105 0 -3 -16 -5 -35 -5 -31 0 -37 5 -56 43 -12 23
-44 70 -70 105 l-49 62 55 0 55 0 50 -100z m1930 82 c3 -2 0 -7 -7 -9 -41 -15
-228 -152 -282 -206 -62 -64 -64 -65 -100 -55 -20 6 -40 12 -44 15 -13 8 36
56 158 155 61 49 117 96 125 103 11 10 32 12 80 8 36 -3 67 -8 70 -11z m163
-19 l38 -6 -66 -38 c-94 -55 -145 -91 -247 -177 l-91 -75 -53 12 c-30 7 -54
16 -54 21 0 27 178 168 290 229 76 41 107 47 183 34z m317 -30 l45 -5 -135
-47 c-147 -51 -302 -126 -410 -197 -60 -39 -73 -44 -104 -38 -20 3 -36 10 -36
14 0 8 143 124 209 170 19 13 73 45 120 72 l86 48 90 -5 c50 -3 110 -8 135
-12z m210 -18 c0 -20 -41 -37 -266 -115 -203 -70 -328 -120 -395 -158 -30 -16
-52 -23 -65 -18 -16 6 -10 13 36 41 113 71 284 147 457 205 185 62 233 71 233
45z m-1850 -117 c0 -7 -14 -25 -32 -39 -21 -18 -29 -32 -25 -43 5 -13 23 -16
111 -16 57 0 111 3 120 6 23 9 20 51 -4 64 -37 20 -24 40 25 40 l45 0 -2 -167
-3 -168 -440 -17 c-242 -9 -482 -17 -532 -17 l-93 -1 0 154 c0 175 -5 166 93
166 67 0 62 -17 -17 -52 -36 -16 -51 -39 -42 -63 6 -16 17 -17 138 -11 72 4
135 9 140 12 4 3 8 16 8 30 0 19 -8 28 -34 39 -70 29 -59 52 29 59 33 3 88 8
123 12 58 6 62 5 62 -14 0 -12 -13 -30 -30 -42 -20 -14 -30 -30 -30 -47 l0
-26 107 7 c59 4 113 12 120 18 24 20 14 47 -28 74 -24 15 -38 29 -33 34 5 5
50 11 99 13 50 1 98 4 108 5 9 1 17 -4 17 -10z m116 -10 c3 -12 16 -30 28 -40
20 -17 19 -17 -66 -18 l-88 0 20 20 c11 11 20 29 20 40 0 17 7 20 39 20 32 0
41 -4 47 -22z m223 0 l24 -9 -28 -29 c-33 -35 -28 -56 17 -63 126 -21 117 -22
134 18 15 36 17 37 52 31 20 -3 61 -13 90 -21 48 -14 52 -18 52 -46 0 -34 15
-42 99 -53 49 -6 57 -5 71 15 13 17 23 20 47 15 29 -7 31 -10 37 -68 3 -33 6
-99 6 -146 0 -82 -1 -84 -22 -80 -165 34 -582 118 -610 123 l-38 6 0 149 c0
81 -3 156 -6 165 -5 13 -2 15 22 9 16 -4 40 -11 53 -16z m-594 -19 c4 -11 22
-27 41 -36 45 -22 43 -33 -5 -33 -21 0 -60 -3 -87 -6 l-49 -7 28 26 c16 15 27
37 27 52 0 31 35 35 45 4z m-872 -21 c78 -27 90 -35 102 -64 9 -23 21 -34 42
-37 60 -11 -268 2 -365 14 l-103 13 3 45 c3 42 6 46 33 52 17 4 68 7 115 8 72
1 98 -4 173 -31z m504 5 c9 -27 36 -54 62 -64 13 -5 22 -12 19 -14 -9 -10
-145 -14 -183 -6 -22 5 -34 9 -27 10 35 3 81 35 91 62 11 33 28 38 38 12z
m1092 1 c2 -2 -1 -15 -7 -28 -11 -24 -18 -25 -91 -10 l-24 5 24 25 c20 21 29
24 59 19 19 -4 37 -9 39 -11z m-1329 -106 l0 -102 -30 29 c-16 16 -30 39 -30
51 0 30 -25 54 -56 54 -20 0 -24 5 -24 28 0 16 3 32 7 35 3 4 35 7 70 7 l63 0
0 -102z m-2050 19 c41 -21 80 -37 87 -37 8 0 48 -20 91 -45 77 -44 152 -79
152 -71 0 3 -20 19 -45 37 l-45 33 78 36 c111 53 207 83 234 75 13 -4 61 -36
108 -71 91 -67 231 -154 399 -249 57 -33 99 -61 94 -62 -6 -2 -41 3 -78 12
-86 20 -149 20 -165 0 -19 -23 -14 -78 10 -126 37 -71 33 -73 -160 -66 -211 8
-418 34 -444 56 -26 23 -46 65 -46 98 0 15 -5 35 -10 43 -7 10 -10 -22 -10
-100 0 -170 -11 -310 -24 -310 -6 0 -51 52 -99 115 -48 63 -93 115 -100 115
-28 0 -90 -55 -145 -128 -32 -42 -64 -77 -72 -77 -8 0 -22 26 -34 65 -18 56
-25 65 -47 68 -47 5 -310 -198 -458 -354 -86 -91 -145 -134 -162 -117 -20 20
36 157 113 280 45 72 48 110 8 105 -14 -1 -95 -38 -180 -82 -465 -238 -560
-284 -570 -274 -7 7 -5 28 6 65 14 49 31 69 167 207 173 174 186 198 102 196
-66 -2 -182 -46 -520 -199 -317 -143 -474 -203 -487 -183 -10 16 -18 10 157
104 442 240 820 483 1132 732 131 104 152 117 197 123 67 10 151 11 160 2 3
-4 -28 -43 -71 -86 -78 -80 -78 -80 -23 -39 150 110 311 154 535 148 80 -3 98
-7 165 -39z m3683 10 c60 -15 58 -33 -3 -28 -52 4 -60 7 -60 27 0 17 2 17 63
1z m255 -67 c35 -9 42 -15 42 -35 0 -17 -9 -29 -30 -40 -23 -12 -30 -22 -30
-46 0 -26 -22 -50 -35 -37 -3 2 -8 43 -11 91 -6 73 -5 87 7 83 8 -3 33 -10 57
-16z m260 -36 l141 -7 7 -43 c9 -59 -1 -84 -34 -84 -15 0 -99 7 -187 15 -88 8
-163 15 -167 15 -19 0 -5 30 20 42 20 10 28 22 30 46 3 30 6 33 26 28 13 -3
86 -9 164 -12z m-847 -153 c460 -94 998 -216 1011 -229 7 -7 3 -14 -11 -21
-27 -15 -90 -3 -541 99 -471 107 -592 130 -665 124 -147 -10 -1508 -25 -1517
-16 -13 13 100 20 537 33 329 10 984 34 1026 38 9 0 81 -12 160 -28z m-65 -67
c44 -9 85 -21 92 -26 14 -12 16 -76 3 -96 -10 -17 -84 0 -153 35 -43 21 -48
27 -48 57 0 53 -2 52 106 30z m-556 -35 c0 -26 -3 -29 -30 -29 -27 0 -30 3
-30 29 0 23 5 30 23 33 31 6 37 1 37 -33z m418 4 c-2 -23 -8 -38 -15 -37 -7 1
-94 2 -193 3 l-180 1 0 35 0 35 196 0 195 0 -3 -37z m-988 -8 c0 -35 0 -35
-45 -35 -45 0 -45 0 -45 35 0 35 0 35 45 35 45 0 45 0 45 -35z m160 0 l0 -35
-63 0 -64 0 -1 35 -1 35 64 0 65 0 0 -35z m73 8 c6 -32 -5 -48 -27 -40 -24 9
-21 67 3 67 12 0 20 -9 24 -27z m247 -2 l0 -30 -105 -3 -105 -3 0 33 0 32 105
0 105 0 0 -29z m-870 -15 c0 -26 -5 -36 -21 -41 -25 -8 -27 -7 -29 30 -3 44
-2 45 25 45 22 0 25 -4 25 -34z m260 5 c0 -28 -3 -30 -52 -36 -29 -4 -80 -5
-113 -3 -60 3 -60 3 -63 36 l-3 32 115 0 116 0 0 -29z m1432 -51 c-3 -62 -4
-63 -26 -54 -12 5 -16 19 -16 61 0 51 2 54 23 51 20 -3 22 -8 19 -58z m308
-62 c0 -44 -2 -48 -23 -48 -23 0 -94 11 -194 31 l-53 10 0 58 0 58 135 -30
135 -30 0 -49z m-705 52 c-45 -13 -1206 -32 -1300 -22 l-80 9 60 3 c386 17
1373 24 1320 10z m82 -97 c-8 -8 -242 -71 -360 -97 -204 -46 -708 -111 -1042
-136 -240 -17 -577 -9 -854 20 -138 15 -141 16 -141 54 l0 32 68 -10 c94 -14
734 -12 932 3 386 28 696 62 935 102 138 23 374 83 425 109 l35 18 3 -45 c2
-25 1 -47 -1 -50z m710 61 c3 -8 2 -30 -1 -50 -6 -29 -11 -35 -29 -32 -18 2
-23 11 -25 42 -2 21 -1 44 2 51 6 17 46 8 53 -11z m231 -40 l82 -17 0 -33 c0
-40 3 -40 -150 -19 -58 8 -111 15 -117 15 -9 0 -13 17 -13 49 l0 49 58 -14
c31 -7 94 -21 140 -30z m-1451 20 c9 -25 -7 -31 -104 -38 l-93 -7 0 25 c0 23
4 25 53 29 122 8 137 7 144 -9z m93 -4 c0 -16 -7 -20 -30 -20 -23 0 -30 4 -30
20 0 16 7 20 30 20 23 0 30 -4 30 -20z m190 16 c0 -8 -151 -39 -157 -33 -3 4
-3 13 0 22 5 12 23 15 82 15 41 0 75 -2 75 -4z m-1148 -36 c4 -27 2 -30 -24
-30 -24 0 -28 4 -28 30 0 25 4 30 24 30 19 0 25 -6 28 -30z m265 16 c1 -1 0
-12 -4 -24 -5 -21 -10 -22 -119 -22 -113 0 -114 0 -114 23 0 13 3 27 7 30 5 6
222 -1 230 -7z m285 9 c3 -3 3 -17 0 -30 -4 -23 -8 -25 -63 -25 -59 0 -59 0
-59 30 0 30 0 30 58 30 32 0 61 -2 64 -5z m78 -20 c0 -18 -5 -25 -20 -25 -15
0 -20 7 -20 25 0 18 5 25 20 25 15 0 20 -7 20 -25z m-240 -10 c0 -23 -4 -25
-45 -25 -41 0 -45 2 -45 25 0 23 4 25 45 25 41 0 45 -2 45 -25z m2078 -24 c22
-13 11 -56 -15 -59 -20 -3 -23 1 -23 32 0 36 11 44 38 27z m-1831 -28 c-12
-11 -578 -60 -782 -68 -82 -3 -181 -8 -219 -10 -39 -3 -67 -3 -64 1 4 3 66 17
140 30 73 14 154 30 181 37 32 8 158 12 396 12 192 0 349 -1 348 -2z m734 -41
c-1 -20 -7 -42 -13 -49 -5 -6 -69 -26 -141 -43 -272 -65 -665 -120 -1002 -140
-218 -13 -806 -13 -955 0 -192 17 -197 18 -209 52 l-11 30 38 -6 c130 -20 337
-30 607 -30 250 0 350 4 515 22 496 53 817 107 1050 175 63 18 117 31 120 29
2 -1 3 -20 1 -40z m204 3 c405 -107 903 -166 1492 -178 l113 -2 -23 -29 -23
-28 -204 0 c-396 1 -1106 79 -1455 161 l-70 16 -3 54 c-3 52 -2 53 20 47 13
-4 82 -22 153 -41z m-134 -97 c13 -11 14 -35 6 -173 -5 -88 -10 -160 -10 -161
-1 -1 -18 -4 -38 -7 l-36 -5 -9 171 c-7 119 -7 174 1 179 16 12 70 9 86 -4z
m-120 -174 c4 -87 4 -162 0 -165 -3 -4 -18 -9 -33 -13 -30 -7 -30 -8 -48 99
-7 39 -24 101 -37 138 -14 38 -23 70 -21 72 6 6 113 33 123 31 6 -2 13 -69 16
-162z m222 150 c32 -7 32 0 10 -181 l-16 -143 -28 0 c-15 0 -30 4 -33 8 -3 5
-2 81 1 170 5 142 8 162 22 158 9 -3 28 -8 44 -12z m156 -30 c2 -2 -5 -36 -17
-76 -11 -40 -26 -100 -32 -133 -21 -114 -17 -107 -53 -100 -18 4 -33 8 -34 9
-1 0 7 64 18 141 10 77 19 148 19 158 0 16 6 17 48 11 26 -3 49 -8 51 -10z
m-530 -47 c22 -59 51 -192 51 -232 0 -17 -5 -25 -17 -25 -10 0 -28 -3 -40 -6
-19 -5 -23 0 -33 38 -17 64 -49 136 -87 196 -23 36 -29 54 -21 57 16 5 99 22
115 24 6 1 21 -23 32 -52z m649 28 c23 -4 42 -11 42 -16 0 -5 -12 -33 -27 -62
-14 -29 -41 -92 -59 -142 l-32 -90 -34 3 c-18 2 -37 8 -42 12 -10 10 36 219
60 278 10 24 18 32 31 28 10 -2 37 -8 61 -11z m-805 -62 c38 -63 96 -218 85
-228 -3 -4 -24 -9 -46 -12 l-39 -5 -43 81 c-24 44 -61 103 -82 131 -21 28 -38
54 -38 59 0 5 26 13 58 19 31 5 60 10 64 11 4 0 22 -25 41 -56z m985 32 c2 -2
-21 -45 -51 -96 -29 -52 -64 -120 -77 -151 -22 -55 -24 -57 -54 -51 -17 3 -35
9 -39 13 -9 8 72 214 105 268 20 33 22 34 67 27 25 -4 47 -8 49 -10z m-1125
-93 c71 -114 99 -170 92 -182 -3 -6 -32 -10 -64 -10 l-57 0 -23 56 c-13 30
-48 89 -77 130 -55 77 -55 80 1 87 74 10 71 12 128 -81z m1250 79 l27 -6 -61
-74 c-33 -41 -78 -109 -99 -151 -37 -74 -40 -77 -70 -72 -17 2 -34 10 -36 17
-7 18 103 230 144 278 15 17 44 20 95 8z m167 -18 c0 -3 -27 -34 -60 -71 -33
-36 -86 -103 -117 -149 -52 -75 -60 -83 -89 -83 -18 0 -35 3 -37 8 -10 15 61
136 128 220 l70 87 52 -3 c29 -2 53 -6 53 -9z m-1595 -50 c39 -50 115 -186
115 -206 0 -4 -22 -7 -49 -7 -49 0 -49 0 -95 64 -25 35 -75 91 -111 124 l-66
60 58 7 c32 4 63 8 68 10 26 9 38 1 80 -52z m1783 32 c1 -1 -19 -16 -46 -33
-56 -37 -197 -178 -237 -239 -24 -37 -31 -42 -54 -37 -43 9 -51 13 -51 23 0
17 118 169 184 236 l64 66 69 -7 c37 -4 69 -8 71 -9z m-1977 -52 c73 -63 169
-175 169 -197 0 -3 -29 -6 -64 -6 -58 0 -65 2 -82 28 -32 50 -98 122 -151 166
-29 24 -49 46 -46 50 4 3 32 6 63 6 52 0 59 -3 111 -47z m2164 38 l40 -7 -40
-13 c-111 -36 -263 -138 -358 -240 -45 -48 -87 -66 -101 -43 -6 11 82 118 150
184 27 25 76 64 109 87 64 43 107 50 200 32z m-3102 -31 c167 -41 376 -141
446 -214 l35 -36 -29 0 c-17 0 -89 30 -166 70 -75 38 -176 85 -225 104 -97 37
-277 86 -318 86 -14 0 -26 4 -26 8 0 15 201 2 283 -18z m754 -9 c55 -45 128
-119 168 -173 l27 -38 -74 0 -75 0 -28 40 c-34 48 -180 190 -197 191 -35 2 34
18 79 18 45 1 57 -4 100 -38z m2598 29 l80 -1 -145 -55 c-177 -67 -318 -134
-428 -202 -46 -29 -95 -52 -110 -52 l-26 0 35 36 c53 57 176 152 233 181 86
45 240 102 261 98 11 -3 56 -5 100 -5z m-3055 -20 c98 -29 320 -189 320 -230
0 -5 -23 -10 -50 -10 -45 0 -54 4 -81 35 -44 50 -160 119 -286 170 l-108 44
75 3 c41 2 82 2 90 0 8 -2 26 -8 40 -12z m262 -7 c85 -68 198 -190 198 -214 0
-5 -20 -9 -44 -9 -41 0 -48 5 -117 73 -41 40 -112 97 -159 125 l-84 52 86 0
c79 0 89 -2 120 -27z m1088 -198 c0 -9 11 -27 25 -41 14 -14 25 -27 25 -29 0
-3 -41 -5 -91 -5 l-91 0 33 38 c27 31 51 44 92 51 4 0 7 -6 7 -14z m438 0 c2
-1 -1 -18 -6 -36 -8 -33 -10 -34 -61 -37 -48 -3 -53 -1 -46 15 4 10 10 31 13
46 4 28 6 29 51 22 25 -4 47 -8 49 -10z m-814 -50 l24 -24 -31 -5 c-66 -10
-127 -15 -127 -11 0 2 12 17 28 33 34 38 73 40 106 7z m-362 -29 l4 -34 -66
-6 c-36 -3 -78 -6 -95 -6 l-30 1 33 14 c17 8 32 19 32 24 0 16 52 40 86 41 29
0 32 -3 36 -34z m1515 18 c21 -4 33 -15 41 -37 6 -17 10 -32 8 -34 -5 -6 -110
17 -119 26 -12 12 10 51 27 51 7 0 27 -3 43 -6z m-2009 -33 c6 0 12 -10 12
-21 0 -13 9 -22 25 -26 16 -4 25 -13 25 -26 0 -10 12 -31 26 -45 l26 -26 -69
7 c-37 4 -126 14 -198 21 -71 8 -152 16 -180 19 l-50 3 -3 43 c-2 23 -1 47 1
54 3 8 55 9 188 5 101 -4 190 -7 197 -8z m2600 -53 l162 -12 0 -60 c0 -34 -4
-67 -9 -75 -7 -11 -35 -11 -167 -2 -146 11 -262 26 -271 35 -9 8 10 34 33 44
19 9 24 19 24 47 0 42 -10 41 228 23z"/>
<path d="M5684 5684 c-27 -19 -22 -78 6 -69 12 4 19 -1 23 -15 5 -19 31 -28
40 -12 2 4 7 23 11 44 11 58 -32 86 -80 52z"/>
<path d="M6711 2575 c-11 -20 -24 -47 -27 -60 -7 -29 10 -38 116 -60 75 -16
90 -9 90 41 0 26 -6 38 -27 51 -16 10 -38 28 -50 40 -35 36 -76 31 -102 -12z
m86 -10 c3 -9 18 -22 34 -31 30 -15 41 -54 16 -54 -18 0 -131 22 -136 26 -2 2
4 20 15 39 20 38 59 49 71 20z"/>
<path d="M6952 2532 c-27 -22 -33 -34 -30 -57 3 -27 9 -32 73 -53 39 -12 87
-25 107 -28 33 -6 39 -4 49 20 10 22 9 32 -7 61 -14 27 -30 38 -69 51 -27 9
-54 20 -59 25 -16 14 -29 10 -64 -19z m100 -22 c25 -7 43 -21 57 -45 11 -19
17 -36 13 -39 -9 -5 -129 22 -154 35 -23 12 -23 35 0 48 22 13 38 13 84 1z"/>
<path d="M6397 2623 c-4 -3 -7 -14 -7 -23 0 -9 -9 -25 -21 -36 -33 -30 -41
-51 -28 -75 11 -21 16 -22 117 -15 58 4 109 9 114 12 4 3 8 20 8 37 0 25 -7
36 -30 49 -18 10 -30 25 -30 38 0 18 -6 20 -58 20 -32 0 -62 -3 -65 -7z m103
-37 c0 -8 11 -23 25 -34 14 -11 25 -24 25 -30 0 -10 -77 -22 -142 -22 -45 0
-47 9 -13 46 14 15 25 33 25 40 0 10 13 14 40 14 28 0 40 -4 40 -14z"/>
<path d="M6115 2586 c-3 -9 -7 -23 -10 -31 -2 -8 -16 -20 -30 -25 -32 -12 -41
-34 -27 -66 10 -21 18 -24 64 -24 96 0 158 12 168 31 14 25 4 43 -29 56 -22 8
-30 18 -33 39 -3 27 -6 29 -51 32 -36 2 -48 -1 -52 -12z m75 -33 c0 -23 29
-53 52 -53 10 0 18 -4 18 -9 0 -10 -178 -27 -187 -18 -3 4 11 21 31 40 20 19
36 39 36 46 0 6 11 11 25 11 17 0 25 -6 25 -17z"/>
<path d="M5825 2571 c-24 -5 -31 -12 -33 -34 -3 -21 -11 -31 -33 -39 -30 -10
-46 -44 -35 -73 4 -12 27 -15 120 -15 111 0 114 1 130 26 22 33 17 56 -17 72
-15 7 -34 26 -42 43 -16 30 -29 33 -90 20z m70 -51 c4 -11 20 -27 36 -35 52
-28 37 -45 -38 -45 -38 0 -85 -3 -105 -6 -31 -6 -38 -4 -38 10 0 9 8 19 18 23
28 10 52 35 52 55 0 27 66 26 75 -2z"/>
<path d="M6408 1489 c-10 -5 -18 -17 -18 -25 0 -9 -17 -22 -39 -31 -43 -17
-72 -60 -46 -69 26 -10 253 0 265 12 16 16 -5 62 -35 76 -13 6 -27 19 -30 30
-7 20 -67 25 -97 7z m85 -43 c13 -12 30 -25 38 -28 34 -12 -10 -23 -99 -25
l-97 -2 38 16 c20 9 37 21 37 27 0 18 22 36 42 36 9 0 28 -11 41 -24z"/>
<path d="M6054 1472 c-6 -4 -16 -17 -23 -29 -6 -12 -23 -28 -39 -35 -18 -9
-28 -22 -30 -41 l-3 -27 131 0 c112 0 132 2 137 16 9 24 -8 46 -50 67 -23 12
-37 26 -37 38 0 15 -7 19 -37 19 -21 0 -43 -4 -49 -8z m61 -44 c6 -13 24 -26
43 -30 63 -16 33 -28 -70 -27 -101 0 -102 1 -71 16 17 9 36 26 42 39 13 30 43
31 56 2z"/>
<path d="M5690 1452 c-9 -4 -32 -20 -53 -36 -30 -23 -37 -35 -37 -62 l0 -34
63 0 c100 0 192 11 212 26 15 12 17 18 7 39 -8 17 -20 25 -36 25 -13 0 -30 9
-37 19 -15 20 -92 35 -119 23z m100 -52 c11 -11 29 -20 39 -20 11 0 23 -4 26
-10 4 -6 -7 -10 -27 -10 -18 0 -70 -3 -115 -7 -72 -5 -83 -4 -83 10 0 9 10 22
23 28 12 7 26 19 31 27 11 20 80 8 106 -18z"/>
<path d="M6733 1453 c-24 -5 -63 -47 -63 -69 0 -17 58 -33 150 -41 62 -5 78
-3 89 10 15 19 7 35 -25 47 -13 5 -24 16 -24 24 0 30 -56 43 -127 29z m105
-53 c21 -28 21 -30 4 -30 -35 0 -132 23 -132 31 0 14 34 28 71 29 28 0 40 -6
57 -30z"/>
<path d="M7069 1413 c-8 -11 -27 -24 -44 -30 -36 -12 -48 -58 -18 -67 51 -14
143 -27 178 -24 34 2 39 6 37 23 -2 11 -6 37 -9 57 -6 41 -11 44 -82 54 -41 5
-50 3 -62 -13z m107 -26 c6 -8 11 -77 6 -77 -4 0 -42 8 -84 17 -77 18 -102 33
-53 33 14 0 30 9 37 21 11 17 19 19 53 14 21 -3 40 -7 41 -8z"/>
<path d="M5400 8493 c0 -5 9 -22 20 -40 23 -38 86 -73 132 -73 25 0 29 -3 20
-12 -36 -36 3 -131 88 -212 75 -71 104 -73 135 -10 29 61 44 74 80 74 112 0
207 94 191 191 -8 51 -26 89 -43 89 -16 0 -16 0 2 -43 43 -103 -16 -189 -140
-206 -80 -11 -90 -1 -90 91 1 56 6 83 23 116 l22 42 -87 -1 c-49 -1 -78 -4
-65 -6 27 -5 28 -12 5 -29 -30 -21 -5 -29 35 -10 l37 18 -22 -24 c-30 -32 -30
-52 0 -44 23 5 23 4 19 -49 -3 -42 0 -63 17 -95 l21 -40 -22 -45 c-12 -25 -28
-45 -35 -45 -21 0 -113 90 -134 132 -26 51 -24 82 7 107 40 31 26 49 -34 43
-60 -5 -115 18 -139 59 -16 26 -43 40 -43 22z"/>
<path d="M6339 8486 c17 -21 75 -46 105 -46 l27 0 -26 -43 c-50 -86 -25 -153
66 -177 81 -22 203 11 230 62 11 21 13 20 35 -23 29 -59 92 -115 143 -129 114
-30 211 66 202 201 -1 9 -12 33 -26 54 -15 20 -25 38 -23 39 39 21 86 36 114
36 l35 0 -16 -30 c-36 -69 -10 -127 75 -167 55 -26 60 -31 66 -68 5 -27 19
-52 44 -77 67 -68 155 -61 237 18 l47 45 66 -45 c36 -25 83 -63 105 -85 l39
-41 -50 0 c-124 0 -170 -59 -104 -134 l31 -34 -31 -48 c-35 -56 -38 -91 -9
-128 28 -35 53 -47 113 -55 44 -5 50 -9 57 -35 12 -42 38 -66 74 -66 52 0 87
49 108 152 l13 63 57 -60 57 -60 0 -77 c0 -107 18 -148 91 -203 63 -48 92 -55
107 -29 11 20 0 74 -22 105 -24 35 -19 46 9 19 14 -13 25 -19 25 -13 0 13 -58
81 -178 207 -51 54 -102 112 -112 129 -18 29 -18 33 -3 49 8 10 13 25 9 34 -4
10 3 29 19 50 45 59 37 75 -72 143 -75 46 -106 72 -131 110 -19 28 -49 62 -69
77 l-34 26 21 15 c34 24 70 110 70 170 0 64 -7 83 -31 83 -16 0 -17 -4 -9 -26
22 -58 3 -143 -42 -192 -12 -12 -44 -29 -71 -37 -44 -13 -53 -13 -81 0 -18 9
-38 31 -49 53 -9 20 -28 55 -42 77 -20 33 -24 48 -19 83 l6 42 -61 0 c-39 0
-60 -4 -56 -10 3 -5 -2 -9 -12 -8 -36 3 -63 -2 -63 -12 0 -5 11 -10 23 -10 38
0 38 -10 -3 -62 -22 -27 -45 -67 -51 -89 -14 -44 -24 -47 -79 -19 -91 46 -91
118 0 185 l34 25 -92 0 c-78 0 -97 -3 -120 -20 -46 -34 -93 -36 -129 -6 -32
27 -53 33 -53 16 0 -20 62 -79 99 -93 46 -19 66 -59 58 -118 -20 -148 -190
-165 -271 -27 -34 60 -40 103 -22 173 20 73 20 75 1 75 -8 0 -17 -12 -20 -27
-22 -109 -59 -181 -105 -208 -50 -28 -148 -28 -187 1 -55 41 -44 93 37 174 67
67 60 75 -31 43 -45 -16 -50 -16 -84 0 -45 22 -83 23 -66 3z m1161 -88 c0 -29
1 -30 18 -15 20 18 42 22 42 8 0 -5 19 -37 43 -72 38 -56 42 -68 37 -101 -8
-47 -30 -71 -87 -99 -55 -27 -101 -20 -143 22 -33 34 -37 57 -19 139 10 49 77
150 99 150 6 0 10 -14 10 -32z m279 -225 c19 -13 45 -26 58 -29 24 -6 115
-130 133 -182 11 -30 16 -35 -47 51 -31 44 -135 130 -203 171 l-45 26 34 -7
c19 -3 51 -17 70 -30z m66 17 c10 -11 15 -20 11 -20 -12 0 -76 29 -76 34 0 15
49 4 65 -14z m225 -206 c39 -26 70 -52 70 -59 0 -6 -14 -24 -30 -40 -23 -22
-29 -36 -25 -52 3 -13 3 -23 1 -23 -15 0 -96 178 -96 212 0 13 7 10 80 -38z
m-149 -33 c39 -39 37 -56 -11 -75 -65 -26 -116 -21 -151 13 -16 16 -29 36 -29
45 0 27 41 46 103 46 51 0 62 -4 88 -29z m59 -91 c0 -5 -16 -30 -35 -55 -22
-30 -39 -66 -47 -105 -8 -42 -17 -60 -30 -63 -26 -7 -81 10 -113 35 -23 18
-26 26 -22 55 4 19 18 50 32 69 23 30 31 34 73 34 26 0 65 9 87 19 47 23 55
24 55 11z m45 -82 c24 -36 27 -48 21 -91 -16 -143 -113 -203 -132 -81 -8 53
15 133 52 182 14 17 26 32 28 32 2 0 16 -19 31 -42z m275 -304 c10 -23 24 -45
30 -49 13 -8 49 -83 50 -102 0 -21 -17 -15 -71 24 -59 42 -77 76 -86 166 l-6
62 33 -30 c18 -16 40 -49 50 -71z"/>
<path d="M23 7673 c-34 -7 -30 -35 5 -31 23 3 30 -3 50 -42 19 -37 23 -56 19
-110 -4 -69 -37 -149 -76 -184 -12 -11 -21 -27 -21 -38 0 -16 5 -15 53 11 113
65 235 75 307 27 37 -25 55 -53 94 -154 l24 -63 -28 -14 c-16 -8 -35 -27 -42
-42 -14 -30 -80 -71 -135 -83 -47 -11 -124 10 -207 56 -63 34 -66 35 -66 14 0
-13 11 -27 31 -38 80 -43 181 -116 209 -151 55 -71 77 -167 43 -196 -10 -8
-41 -35 -69 -60 l-52 -46 -55 63 c-31 35 -67 77 -81 93 l-25 30 -1 -48 c0 -48
1 -50 88 -135 85 -84 91 -93 172 -259 46 -95 85 -171 87 -169 4 4 -42 127 -61
165 -7 14 -17 37 -21 51 -6 20 -2 18 26 -15 19 -23 63 -103 98 -178 35 -75 66
-135 68 -133 2 2 -10 39 -27 82 -16 43 -30 83 -30 89 0 22 60 -81 142 -245 96
-193 144 -282 170 -314 10 -11 51 -66 91 -121 41 -55 104 -133 140 -174 44
-48 67 -82 67 -98 0 -59 60 -113 125 -113 25 0 26 -1 20 -44 -5 -34 -2 -53 13
-82 11 -22 25 -51 30 -65 15 -38 74 -80 122 -86 31 -4 54 0 89 17 l49 22 182
-137 c226 -170 456 -362 574 -477 49 -49 93 -88 98 -88 4 0 8 9 8 20 0 31 28
38 108 27 61 -8 72 -13 66 -26 -4 -9 -12 -46 -17 -83 -10 -66 -12 -68 -49 -83
-22 -8 -45 -12 -52 -8 -8 5 -98 87 -202 185 -452 422 -631 538 -834 542 -71 2
-93 6 -135 29 -97 51 -118 81 -169 232 -20 61 -47 133 -61 160 l-24 50 6 -40
c3 -22 16 -74 29 -115 41 -129 30 -122 -50 35 -55 106 -84 150 -94 141 -2 -3
16 -47 42 -99 25 -52 46 -98 46 -102 0 -9 -71 70 -104 115 -74 101 -111 158
-157 244 -47 88 -52 104 -50 155 2 66 -16 96 -80 137 -36 22 -39 28 -39 69 0
56 -21 90 -63 105 -25 8 -61 49 -162 187 -187 255 -269 353 -273 327 -2 -15
32 -68 102 -162 59 -77 106 -142 106 -145 0 -2 -11 -2 -25 1 -14 2 -36 -3 -49
-12 -14 -8 -39 -15 -58 -14 -48 2 -78 -11 -78 -32 0 -16 3 -17 30 -7 22 8 38
8 59 0 25 -9 32 -7 54 15 32 31 50 25 78 -29 33 -65 36 -176 7 -259 -18 -51
-27 -65 -43 -65 -11 0 -23 4 -26 9 -12 16 -30 -5 -24 -27 5 -18 3 -17 -12 6
-32 49 -40 31 -17 -40 5 -17 5 -17 -10 1 -8 10 -24 24 -34 30 -11 6 -29 17
-41 24 -18 11 -21 10 -21 -2 0 -14 50 -56 67 -56 5 0 16 -13 25 -28 l17 -29
-52 1 c-42 1 -52 -2 -55 -16 -3 -16 5 -18 61 -18 58 0 66 -3 81 -26 24 -36 23
-145 -1 -187 -21 -36 -98 -80 -125 -71 -23 7 -25 -24 -3 -33 27 -10 104 27
133 63 32 41 38 42 46 9 10 -40 77 -102 117 -110 46 -9 94 15 103 50 6 22 12
25 50 25 50 0 76 22 76 64 0 34 -24 80 -51 99 -20 14 -18 16 37 41 31 14 58
25 59 24 1 -2 24 -41 50 -88 26 -47 61 -104 76 -127 16 -23 29 -44 29 -47 0
-3 -17 -6 -37 -6 -111 0 -223 -75 -223 -148 0 -16 -10 -21 -47 -27 -98 -14
-181 -67 -209 -132 -16 -36 -6 -76 20 -86 12 -5 15 -14 11 -30 -6 -23 9 -45
57 -80 15 -10 16 -18 6 -54 -15 -55 -2 -93 37 -112 17 -8 38 -18 48 -23 9 -4
50 -13 90 -20 62 -9 77 -9 102 5 29 14 31 14 63 -14 58 -51 144 -37 230 37 22
19 51 34 64 34 12 0 29 4 37 9 9 6 21 5 32 -2 15 -9 26 -8 55 8 49 26 68 58
74 125 l5 56 53 -24 54 -24 -29 -18 c-69 -43 -95 -101 -75 -172 l10 -36 -47
20 c-93 40 -174 6 -263 -110 -55 -72 -69 -130 -46 -190 18 -47 69 -82 121 -82
l39 0 -16 -25 c-9 -13 -16 -35 -16 -48 0 -35 40 -89 82 -112 33 -18 41 -18 70
-6 18 7 56 13 83 12 33 -1 60 5 79 16 29 18 29 18 58 -11 37 -37 74 -33 190
22 92 43 110 65 101 129 -5 30 -3 32 38 45 27 8 63 31 93 60 l49 47 -5 71 -5
71 17 -29 c24 -40 68 -54 175 -57 l90 -3 155 -160 c85 -88 162 -162 170 -164
8 -1 33 3 55 10 38 13 43 12 77 -10 33 -22 36 -27 41 -87 3 -43 11 -69 23 -82
22 -21 156 -64 176 -57 7 3 31 40 53 82 22 42 45 76 51 76 6 0 18 -26 27 -58
9 -32 26 -67 37 -77 21 -19 23 -19 52 -2 16 9 44 17 62 17 36 0 107 45 125 79
20 36 13 90 -13 116 -30 30 -16 42 20 19 32 -22 105 -22 154 -2 47 20 110 80
110 106 0 12 -19 36 -51 61 l-50 40 68 -6 c68 -5 69 -5 96 26 14 17 29 47 33
66 5 27 12 37 33 41 208 49 306 78 365 109 103 54 228 85 386 95 212 14 316
57 308 125 -5 45 -48 69 -128 73 -57 4 -77 0 -123 -21 -30 -13 -74 -42 -97
-63 -33 -30 -62 -44 -124 -61 -44 -12 -82 -20 -84 -18 -2 2 5 16 17 31 30 38
42 90 29 120 -13 29 -44 39 -97 31 -30 -4 -40 -1 -50 15 -10 17 -20 19 -52 15
-80 -11 -160 -97 -167 -181 -4 -45 -1 -56 23 -84 15 -18 24 -32 22 -32 -3 0
-59 -9 -124 -20 -151 -26 -153 -25 -153 4 0 16 -14 37 -42 61 -61 52 -82 54
-124 14 l-34 -33 3 68 c2 62 0 70 -23 87 -14 11 -58 27 -97 37 -64 15 -73 20
-73 40 0 38 -18 61 -54 68 -49 9 -73 -2 -99 -47 -25 -41 -37 -42 -37 -2 0 24
-85 99 -148 129 -30 14 -35 14 -57 0 -14 -9 -32 -30 -41 -47 -15 -29 -19 -31
-57 -26 -23 3 -52 9 -64 12 -32 10 -68 -31 -82 -93 -13 -62 3 -127 47 -181 47
-60 47 -62 1 -46 -59 21 -73 19 -109 -17 -80 -79 -123 -177 -84 -192 25 -10 5
-26 -32 -26 -27 0 -44 9 -77 40 l-42 40 32 28 c70 60 95 146 51 176 -13 9 -43
16 -70 16 -27 0 -48 1 -48 3 0 2 20 25 45 50 73 76 61 114 -70 231 -53 47 -94
76 -108 76 -32 -1 -98 -33 -139 -69 -29 -25 -44 -31 -82 -31 -51 0 -86 -25
-86 -60 0 -11 -3 -20 -7 -20 -5 0 -181 128 -206 150 -9 8 2 40 14 40 5 0 9 -7
9 -16 0 -8 13 -29 29 -45 33 -32 87 -39 130 -15 14 8 41 11 67 8 96 -10 177
64 181 167 1 47 4 55 30 70 57 35 72 83 39 120 -16 18 -15 20 18 40 72 45 99
139 55 195 -35 44 -76 60 -159 60 -71 0 -113 -13 -201 -61 -3 -2 1 23 10 55
12 49 13 67 3 100 -24 78 -96 133 -156 118 -13 -3 -41 1 -62 10 -100 42 -250
-33 -270 -134 -4 -20 2 -46 19 -83 14 -30 24 -55 23 -55 0 -1 -24 3 -52 9 -27
5 -62 7 -76 4 -42 -11 -85 -53 -114 -113 l-27 -55 -36 42 c-66 77 -66 77 -37
100 33 26 66 89 66 126 -1 32 -14 52 -52 77 l-27 18 34 33 c44 41 47 85 10
135 -30 40 -100 90 -127 90 -33 0 -30 26 10 106 l40 79 6 -55 c10 -79 50 -156
99 -191 32 -24 50 -29 94 -29 30 0 64 5 75 11 12 6 39 13 62 14 141 10 207
101 171 238 -8 32 -15 60 -15 61 0 2 18 -1 40 -6 81 -21 155 17 191 96 12 28
18 35 19 21 3 -63 63 -162 119 -201 51 -34 132 -34 167 1 14 14 32 25 40 25 9
0 29 13 45 29 36 36 39 94 9 173 -11 28 -18 53 -17 55 2 1 19 -2 38 -7 52 -15
191 -12 240 5 127 45 156 165 65 272 l-27 32 35 32 c77 67 29 169 -104 219
-19 7 -84 15 -145 19 l-110 6 48 28 c61 36 113 82 149 131 70 97 -3 245 -131
265 -32 6 -36 10 -42 45 -11 67 -79 102 -188 94 -132 -10 -262 -103 -322 -233
l-32 -66 -28 49 c-51 90 -120 132 -215 132 -121 0 -201 -88 -174 -189 8 -30 7
-53 -5 -97 -8 -32 -15 -76 -15 -99 -1 -46 -36 -95 -69 -95 -11 0 -36 -14 -56
-31 -44 -39 -68 -112 -59 -182 l7 -49 -41 21 c-49 25 -155 29 -207 7 -46 -20
-58 -47 -50 -112 6 -49 4 -57 -19 -85 -18 -22 -26 -42 -26 -70 0 -42 27 -106
55 -129 14 -11 12 -15 -17 -33 -29 -17 -43 -31 -70 -71 -5 -7 -14 -1 -25 14
-10 14 -73 89 -140 167 -68 78 -123 145 -123 148 0 18 59 80 88 92 41 17 55
52 49 119 -6 63 -26 103 -79 160 l-41 44 35 0 c53 0 178 66 191 100 6 16 25
35 45 44 40 19 40 20 -7 141 -51 133 -127 184 -253 171 -32 -3 -74 -13 -94
-21 -21 -8 -39 -14 -41 -12 -2 2 6 24 16 48 41 92 37 188 -11 259 -25 36 -31
39 -65 33z m1924 -239 c22 -17 28 -29 28 -60 0 -27 5 -39 15 -41 75 -10 95
-18 131 -50 51 -47 67 -98 44 -142 -40 -78 -175 -169 -358 -241 -49 -19 -65
-33 -105 -86 -53 -71 -75 -85 -40 -25 30 52 16 63 -27 21 -49 -48 -53 -32 -6
25 37 44 43 65 21 65 -4 0 -17 -17 -27 -37 -11 -21 -27 -39 -36 -41 -14 -3
-16 2 -10 30 3 18 10 41 15 51 9 18 -6 57 -22 57 -13 0 -13 -33 0 -46 12 -12
-15 -54 -35 -54 -10 0 -14 18 -14 73 1 39 -3 90 -8 112 -17 80 -9 156 22 213
38 70 130 155 197 181 70 28 174 25 215 -5z m-638 -104 c22 -10 55 -38 74 -60
64 -76 114 -255 102 -370 -9 -81 -13 -89 -36 -59 -16 21 -19 21 -19 6 0 -10 5
-27 10 -38 11 -19 -3 -29 -14 -10 -3 5 -16 11 -28 14 -18 5 -15 -1 15 -28 36
-31 42 -55 14 -55 -7 0 -29 -11 -49 -25 -43 -29 -81 -26 -154 14 -96 52 -163
198 -150 325 3 34 13 67 23 78 16 18 16 21 0 47 -68 116 81 229 212 161z
m-259 -435 c0 -46 87 -172 143 -205 l27 -17 -42 -28 c-59 -39 -96 -82 -114
-135 -32 -90 -37 -100 -45 -100 -5 0 -12 12 -15 28 -4 15 -25 50 -46 79 -50
66 -78 139 -78 204 0 89 50 157 105 143 20 -5 26 -1 35 20 10 28 30 35 30 11z
m1172 -21 c105 -32 155 -125 87 -162 -17 -9 -41 -24 -52 -33 -21 -16 -20 -17
30 -66 61 -59 75 -105 50 -158 -24 -51 -85 -75 -188 -75 -135 0 -179 18 -268
108 -42 42 -78 77 -81 77 -3 1 -27 15 -55 32 l-50 32 33 12 c37 13 42 29 10
29 -21 1 -20 2 7 17 l30 17 -30 7 -30 6 38 17 c20 9 37 23 37 31 0 19 -19 19
-26 0 -8 -19 -54 -20 -54 -1 0 24 76 83 131 101 110 37 273 40 381 9z m-788
-226 l-29 -30 37 18 c43 20 55 15 38 -15 -12 -24 2 -28 20 -6 18 22 24 11 9
-17 -12 -22 -11 -23 8 -5 27 24 70 8 79 -28 10 -39 -2 -234 -17 -278 -16 -49
-53 -85 -94 -93 -70 -13 -145 37 -145 96 0 43 -20 53 -66 34 -73 -31 -153 8
-174 84 -17 62 20 98 122 121 63 14 75 20 88 46 26 53 70 102 103 118 29 14
33 14 40 1 6 -11 1 -25 -19 -46z m-651 -12 c56 -23 207 -209 207 -255 0 -6
-25 -49 -55 -96 l-55 -85 -61 0 c-34 0 -78 5 -98 11 -82 24 -167 107 -178 173
-5 31 -1 43 26 76 l32 40 -16 45 c-17 52 -9 80 28 95 34 14 134 12 170 -4z
m507 -23 c-16 -20 -40 -33 -87 -45 l-65 -16 24 25 c31 33 86 62 121 63 l28 0
-21 -27z m464 -62 c25 -18 52 -44 60 -60 14 -26 66 -76 115 -111 26 -18 70
-123 71 -165 0 -40 -25 -75 -55 -75 -36 0 -55 -10 -55 -30 0 -23 -32 -34 -75
-26 -42 8 -117 88 -133 142 -6 22 -16 84 -22 139 -6 55 -15 118 -20 140 -13
54 -12 55 6 48 13 -5 15 -2 10 15 -6 19 -4 21 22 18 16 -2 50 -17 76 -35z
m-625 -258 c45 -21 63 -25 113 -20 51 4 59 3 53 -10 -3 -9 5 -33 19 -53 53
-80 73 -202 40 -248 -24 -35 -87 -62 -142 -62 -32 0 -54 -5 -62 -15 -16 -19
-82 -19 -119 0 -71 36 -105 111 -99 218 3 58 11 88 41 150 37 79 37 79 69 72
18 -4 57 -19 87 -32z m-480 -92 c20 -11 44 -22 54 -25 28 -9 60 -90 52 -134
-3 -20 -8 -55 -10 -77 -3 -39 -36 -127 -56 -152 -6 -6 -17 -9 -25 -6 -19 7
-164 295 -164 324 0 28 62 89 90 89 12 0 39 -9 59 -19z m209 -38 c-2 -5 -17
-34 -33 -66 l-29 -58 -12 48 c-6 26 -15 56 -19 66 -6 15 -1 17 45 17 28 0 50
-3 48 -7z m-528 -269 l29 -41 -39 -26 -40 -26 0 48 c0 26 -7 70 -14 97 l-15
49 25 -30 c13 -16 37 -48 54 -71z m526 -3 c47 -21 104 -86 104 -117 0 -31 -62
-82 -107 -89 -21 -3 -55 -10 -76 -15 -31 -7 -39 -5 -44 8 -12 31 50 232 71
232 6 0 29 -9 52 -19z m-406 -86 c8 -9 11 -38 9 -77 -4 -56 -2 -63 16 -66 78
-15 121 -65 105 -124 -12 -43 -34 -63 -89 -83 -86 -30 -162 -16 -228 42 -28
25 -33 36 -34 84 -3 72 49 183 100 217 39 25 102 29 121 7z m1057 -100 c20 -9
50 -13 67 -10 71 13 133 -67 121 -154 -9 -68 -64 -175 -92 -179 -14 -2 -22 3
-25 14 -1 10 -12 18 -23 19 -11 1 -32 6 -47 10 -21 5 -28 4 -28 -6 0 -8 -9 -3
-20 11 l-20 25 0 -29 c0 -22 -3 -27 -17 -22 -27 11 -102 70 -103 81 0 6 -14
26 -30 45 -45 52 -42 98 10 150 58 58 135 75 207 45z m-569 -81 c29 -19 36
-37 28 -69 -7 -26 -62 -95 -77 -95 -11 0 -119 143 -119 157 0 14 78 32 114 27
17 -2 41 -11 54 -20z m-697 -150 c33 -36 85 -61 144 -69 60 -9 98 -34 115 -74
21 -53 12 -65 -55 -71 -56 -5 -60 -7 -60 -30 0 -16 -9 -29 -27 -39 -25 -14
-30 -14 -60 2 -59 32 -98 109 -98 194 0 23 -5 54 -12 68 -10 22 -9 28 3 36 20
13 23 12 50 -17z m1724 5 c120 -30 127 -133 14 -205 -43 -27 -49 -48 -18 -64
32 -18 22 -60 -21 -85 -49 -28 -157 -28 -221 2 -50 23 -129 94 -129 117 0 7 9
16 21 19 15 4 20 12 18 29 -8 55 110 157 210 184 59 16 73 16 126 3z m-710
-45 c63 -16 157 -73 147 -88 -3 -5 8 -20 23 -32 27 -21 28 -24 10 -29 -52 -17
-168 -81 -206 -113 -34 -30 -49 -36 -89 -36 -57 -1 -85 19 -101 75 -17 54 12
139 66 196 47 48 60 51 150 27z m219 -185 c22 -10 25 -19 31 -93 10 -120 -11
-197 -69 -253 -55 -53 -100 -63 -153 -36 -38 20 -43 26 -84 114 -19 41 -20 51
-9 84 17 51 69 99 165 151 90 49 85 48 119 33z m134 -80 c48 -55 127 -91 213
-97 62 -4 70 -7 75 -27 8 -32 -28 -110 -62 -131 -19 -13 -45 -18 -86 -17 -34
1 -71 -5 -86 -13 -50 -26 -85 -16 -109 30 -14 24 -17 61 -17 173 -1 139 6 171
29 135 6 -8 25 -33 43 -53z m-852 -19 c42 -15 112 -101 135 -165 21 -61 24
-152 6 -205 -14 -39 -6 -38 -137 -19 -79 11 -88 15 -126 53 -23 23 -54 52 -69
65 -23 22 -26 30 -21 64 6 33 3 42 -14 54 -32 23 -25 61 18 103 57 54 140 74
208 50z m-246 -175 c6 -8 9 -23 6 -33 -10 -30 11 -72 55 -113 23 -21 38 -43
34 -48 -3 -6 -28 -11 -54 -11 -32 0 -53 -5 -62 -16 -38 -47 -137 -59 -183 -23
-21 16 -24 24 -16 39 16 30 12 47 -15 54 -29 7 -33 35 -9 71 43 65 210 121
244 80z m500 -75 c4 0 15 -18 25 -40 10 -22 27 -47 37 -57 32 -29 48 -69 48
-119 0 -40 -5 -51 -36 -82 l-36 -36 -19 22 c-15 19 -24 22 -54 16 -19 -3 -51
-3 -70 0 -29 6 -39 15 -60 56 -14 27 -25 52 -25 56 0 3 18 3 39 -1 58 -10 74
20 79 145 l4 96 30 -28 c17 -15 33 -28 38 -28z m1094 -75 c122 -108 130 -132
62 -200 -45 -44 -93 -65 -153 -65 -44 0 -145 50 -138 68 4 10 0 12 -11 8 -14
-5 -15 -4 -4 9 11 13 9 15 -20 13 -44 -4 -60 20 -40 59 36 68 163 172 212 173
9 0 50 -29 92 -65z m694 8 c91 -62 100 -75 107 -157 10 -109 2 -138 -52 -190
-39 -36 -49 -41 -60 -31 -7 8 -13 19 -13 25 0 6 -5 8 -11 4 -6 -3 -9 -15 -6
-25 3 -11 1 -17 -4 -13 -5 3 -9 1 -9 -4 0 -6 -15 -15 -32 -22 -32 -11 -34 -10
-95 54 -84 88 -117 147 -116 206 1 46 16 88 36 101 5 4 22 3 38 -3 15 -5 44
-8 65 -6 32 3 43 10 67 46 16 23 32 42 36 42 4 0 26 -12 49 -27z m-988 -47 c0
-5 -40 -76 -47 -86 -7 -8 -23 24 -23 46 0 26 18 44 47 44 13 0 23 -2 23 -4z
m1268 -28 c24 -24 14 -53 -22 -66 -19 -7 -51 -31 -71 -54 -36 -39 -37 -43 -32
-96 4 -40 3 -52 -5 -44 -15 15 -10 134 7 176 32 77 90 117 123 84z m-2509 -24
c27 -6 31 -11 31 -38 0 -18 9 -50 20 -71 26 -51 19 -78 -26 -106 -33 -20 -41
-21 -98 -12 -58 10 -117 29 -143 46 -15 10 -17 71 -3 96 6 12 26 21 54 25 25
4 61 20 83 36 44 33 41 32 82 24z m3380 -20 c9 -20 16 -24 29 -18 9 4 35 8 57
8 36 1 40 -1 43 -27 7 -60 -74 -146 -161 -171 -75 -22 -94 -20 -124 10 -22 22
-25 32 -20 71 6 52 45 106 97 134 47 25 65 24 79 -7z m-3131 -69 c16 -29 39
-56 55 -63 l29 -14 -28 -29 c-58 -60 -147 -85 -192 -53 -24 17 -28 40 -11 78
10 21 8 29 -10 52 -36 46 -25 72 27 65 6 -1 20 2 29 7 9 5 29 9 45 8 24 -1 34
-10 56 -51z m3726 31 c59 -25 58 -54 -2 -79 -90 -39 -210 -54 -253 -32 -35 19
-32 27 31 70 76 53 159 68 224 41z m-3037 -27 c73 -23 93 -40 93 -79 0 -40
-70 -123 -140 -166 -66 -40 -150 -57 -150 -30 0 10 -6 16 -12 13 -7 -2 -12
-11 -12 -20 3 -30 -25 -26 -45 7 -12 18 -21 38 -21 43 0 6 -7 25 -16 43 -28
55 -29 111 -4 143 59 75 161 90 307 46z m1706 1 c43 -13 68 -27 71 -38 8 -25
-9 -111 -36 -179 -25 -62 -44 -77 -115 -89 -34 -5 -44 -3 -63 17 -48 52 -97
178 -86 223 3 14 25 40 48 56 50 36 89 38 181 10z m-1556 -68 c10 -6 8 -17 -7
-47 -11 -22 -20 -49 -20 -61 0 -16 -8 -23 -27 -27 -16 -3 -29 -4 -31 -2 -2 1
11 22 27 46 17 24 32 56 33 72 3 29 6 31 25 19z m86 -54 c24 -17 27 -25 27
-79 0 -63 -7 -70 -34 -40 -10 11 -31 25 -47 31 -34 14 -38 43 -14 91 16 31 18
31 68 -3z m495 -4 c28 -6 29 -32 2 -84 -22 -44 -62 -75 -84 -67 -8 3 -53 39
-100 79 l-85 73 77 5 c78 5 149 3 190 -6z m1209 -36 c56 -54 46 -65 -90 -93
-43 -9 -81 -15 -83 -12 -2 2 19 34 47 70 59 77 77 82 126 35z m-1547 -78 c129
-103 130 -104 45 -96 -84 9 -115 22 -132 56 -13 25 -18 110 -7 110 3 0 46 -31
94 -70z m642 51 c30 -10 71 -29 91 -42 30 -20 34 -28 31 -54 -3 -16 1 -54 9
-83 13 -48 13 -53 -2 -46 -31 13 -146 20 -189 12 -48 -9 -102 11 -102 37 0 8
-8 18 -17 24 -16 9 -16 12 -1 43 20 42 96 128 112 128 7 0 38 -9 68 -19z m431
-29 c24 -27 52 -63 61 -79 15 -30 15 -31 -7 -37 -39 -10 -47 -7 -47 20 0 32
-68 104 -99 104 -24 0 -27 10 -9 28 24 24 55 12 101 -36z m-1841 14 c35 -15
59 -34 71 -55 10 -17 15 -31 11 -31 -3 0 -1 -6 5 -14 9 -11 8 -18 -5 -30 -9
-9 -13 -24 -10 -33 9 -22 -58 -84 -128 -118 -36 -17 -79 -29 -120 -32 -59 -5
-66 -3 -89 20 -57 56 -42 146 39 230 88 92 133 105 226 63z m2686 -17 c-10 -5
-154 -44 -320 -86 -243 -61 -320 -76 -388 -78 -47 -1 -95 -5 -107 -9 -14 -4
-23 -3 -23 3 0 14 81 36 200 56 52 9 176 33 275 55 145 32 296 60 370 68 6 1
2 -3 -7 -9z m-2101 -44 c54 -62 46 -145 -18 -197 -38 -31 -119 -51 -119 -30 0
7 -19 21 -42 33 -56 28 -158 110 -158 127 0 7 12 17 28 23 15 5 49 21 75 35
70 38 95 44 157 39 43 -3 60 -9 77 -30z m1182 10 c16 -8 34 -28 41 -45 11 -27
11 -40 -4 -88 -10 -32 -30 -76 -44 -99 -31 -49 -57 -66 -47 -30 7 22 7 22 -9
2 -15 -20 -15 -20 -17 5 -1 25 -1 25 -7 2 -7 -21 -8 -21 -29 -7 -39 28 -101
191 -87 229 3 9 7 16 8 16 0 0 19 7 41 15 52 18 119 19 154 0z m601 -100 c0
-26 -33 -75 -54 -81 -25 -6 -98 6 -146 24 -24 9 -24 10 15 20 123 34 185 46
185 37z m-1977 -152 c47 -34 48 -37 45 -82 l-3 -46 -76 -37 c-101 -51 -131
-56 -158 -29 -12 12 -21 32 -21 45 0 13 -7 37 -15 52 -8 16 -15 55 -15 89 0
62 11 82 54 98 10 4 20 16 23 27 5 18 11 15 62 -30 31 -28 78 -67 104 -87z
m-257 -38 l6 -120 -32 -19 c-23 -13 -42 -17 -71 -12 -26 4 -49 1 -69 -9 -16
-8 -36 -15 -46 -15 -24 0 -84 65 -84 92 0 42 34 83 86 103 56 21 118 61 153
99 39 41 49 19 57 -119z m1907 84 c51 -55 31 -111 -55 -155 -45 -23 -55 -25
-94 -15 -23 6 -57 11 -73 11 -29 0 -46 19 -18 21 9 0 9 2 -1 6 -10 4 -9 9 5
20 17 14 17 14 -6 9 l-23 -5 23 25 c24 26 20 31 -13 13 -20 -11 -20 -10 -3 18
48 81 78 96 175 87 45 -4 60 -11 83 -35z m86 14 c20 -14 60 -46 89 -71 l53
-45 -23 -25 c-32 -34 -95 -62 -145 -62 -53 0 -61 13 -29 51 30 35 35 98 11
139 -28 49 -11 54 44 13z m-590 -10 c25 -14 61 -40 79 -57 35 -33 44 -63 15
-51 -10 4 -27 10 -38 13 -17 5 -18 3 -7 -11 8 -9 22 -19 33 -22 10 -4 19 -11
19 -16 0 -6 -7 -6 -19 1 -26 14 -52 14 -31 0 13 -9 12 -12 -4 -25 -27 -21
-122 -55 -151 -55 -48 0 -72 49 -60 126 9 63 24 93 54 109 38 21 59 18 110
-12z m96 -215 c-6 -19 -5 -21 6 -10 20 18 31 14 19 -7 -19 -36 -9 -36 20 -1
l30 34 0 -36 c0 -20 -4 -39 -9 -42 -5 -4 -28 -40 -51 -82 -33 -60 -45 -74 -58
-69 -9 4 -35 12 -57 17 -54 14 -75 37 -82 86 -6 45 8 72 36 72 9 0 43 13 76
29 74 36 78 37 70 9z m260 3 c86 -22 115 -42 115 -81 0 -44 -77 -104 -119 -93
-14 3 -29 -1 -42 -13 -30 -27 -49 -9 -71 70 -10 38 -23 77 -28 87 -14 25 7 35
30 14 18 -16 18 -16 13 7 -6 21 -5 22 12 8 17 -14 18 -13 12 3 -3 9 -5 17 -3
17 2 0 38 -9 81 -19z"/>
<path d="M7420 7450 c-19 -36 -19 -43 -6 -105 15 -73 33 -98 88 -126 113 -58
225 24 202 147 -8 43 -29 57 -114 79 -35 9 -76 23 -92 31 -42 22 -56 17 -78
-26z m248 -67 c19 -27 15 -87 -9 -117 -31 -40 -65 -50 -116 -35 -62 17 -89 47
-103 113 -13 61 -7 86 9 42 15 -38 24 -32 16 11 -7 37 -6 37 12 20 21 -18 34
-22 32 -9 -4 26 5 27 74 10 39 -10 78 -26 85 -35z"/>
<path d="M0 6515 c0 -18 116 -133 124 -124 2 2 -25 35 -60 74 -46 49 -64 64
-64 50z"/>
<path d="M4621 6143 c-91 -94 -110 -172 -55 -224 33 -31 94 -30 168 4 72 33
90 61 77 118 -6 24 -11 60 -11 79 0 51 -11 60 -74 67 l-57 6 -48 -50z m44 -3
c-21 -24 -13 -39 11 -19 9 7 33 14 54 15 l37 2 12 -72 c12 -70 12 -71 -14 -93
-24 -21 -111 -53 -144 -53 -24 0 -61 41 -61 68 0 30 52 118 89 149 32 28 40
30 16 3z"/>
<path d="M2730 5963 c-98 -16 -170 -66 -170 -119 0 -28 30 -46 118 -68 47 -13
67 -14 83 -6 28 15 99 127 99 156 0 38 -46 51 -130 37z m-10 -38 c-16 -19 -7
-19 30 0 26 13 29 13 24 0 -5 -11 1 -13 25 -10 19 2 31 -1 31 -8 -1 -17 -68
-107 -86 -114 -19 -7 -140 25 -152 41 -23 28 23 74 98 97 38 11 44 10 30 -6z"/>
<path d="M795 5360 c9 -16 18 -30 21 -30 2 0 -2 14 -11 30 -9 17 -18 30 -21
30 -2 0 2 -13 11 -30z"/>
<path d="M4285 5110 c-11 -4 -45 -15 -75 -24 -102 -30 -174 -84 -140 -107 25
-16 130 1 183 29 82 44 110 134 32 102z m-1 -51 c-29 -33 -93 -59 -147 -59
-58 0 -55 13 12 42 39 18 69 25 145 37 5 0 1 -9 -10 -20z"/>
<path d="M375 4046 c-81 -35 -142 -150 -158 -299 -6 -56 -12 -104 -13 -105 -1
-2 -44 30 -96 72 -51 42 -96 76 -100 76 -21 0 -2 -23 54 -70 201 -167 495
-459 475 -472 -24 -16 -37 -6 -108 77 -39 47 -101 109 -138 137 -36 29 -97 80
-136 113 -38 33 -89 75 -112 93 -39 31 -43 32 -43 13 0 -12 20 -36 54 -63 59
-46 67 -58 38 -58 -50 0 -72 -88 -35 -139 11 -15 40 -32 66 -41 37 -12 47 -20
47 -37 0 -12 11 -30 25 -41 30 -24 31 -28 6 -35 -52 -13 -69 -107 -36 -197 15
-42 15 -46 -1 -55 -102 -60 -145 -156 -105 -238 37 -76 125 -107 208 -72 50
21 53 20 53 -26 0 -54 23 -100 70 -143 44 -39 127 -68 171 -59 41 8 79 56 79
100 0 32 2 35 23 29 89 -25 145 -15 191 33 60 63 37 169 -52 236 -24 19 -50
35 -56 35 -7 0 -17 5 -23 11 -15 15 12 59 36 59 26 0 231 -105 274 -140 20
-18 51 -51 68 -76 29 -43 30 -47 27 -138 -3 -107 6 -128 78 -178 53 -37 92
-46 100 -23 9 23 -6 65 -72 201 -30 62 -54 115 -54 118 0 4 10 0 23 -8 12 -8
82 -40 155 -71 72 -32 132 -61 132 -65 0 -21 78 -65 115 -66 22 -1 76 -16 120
-35 81 -33 89 -40 235 -193 30 -32 67 -64 82 -72 25 -13 32 -13 68 6 54 27 70
62 44 91 -23 25 -43 34 -150 64 -74 21 -224 104 -224 125 0 4 24 7 54 7 88 0
176 57 176 115 0 7 24 24 53 38 59 28 92 70 102 130 14 82 -39 132 -145 138
-66 4 -70 6 -70 29 0 72 -79 132 -186 141 -48 3 -74 0 -103 -12 -37 -17 -39
-17 -72 3 -40 24 -107 28 -147 7 -123 -64 -152 -273 -56 -403 9 -13 12 -23 6
-23 -6 0 -60 23 -119 51 -104 49 -107 52 -78 60 57 16 73 73 30 107 -17 14
-60 24 -159 37 l-134 17 -89 81 c-48 45 -101 99 -116 120 -18 24 -48 48 -80
63 -29 13 -70 41 -92 64 -44 45 -44 46 15 25 98 -34 207 -10 231 53 16 40 6
128 -18 161 l-21 27 35 32 c37 33 38 57 4 96 -20 23 -95 61 -139 71 l-34 7 33
34 c45 47 44 85 -4 152 -32 42 -49 55 -112 81 -79 33 -123 38 -170 17z m175
-51 c56 -28 92 -63 111 -107 16 -38 -5 -68 -79 -115 -31 -20 -60 -40 -63 -45
-3 -5 -13 -6 -22 -2 -12 4 -17 18 -17 46 0 29 -7 46 -26 65 -22 22 -32 25 -75
21 -36 -4 -60 -14 -89 -37 -46 -37 -50 -28 -21 49 24 62 63 115 105 141 40 26
105 20 176 -16z m-118 -182 c12 -10 18 -30 18 -57 0 -37 4 -43 40 -64 51 -29
100 -95 100 -134 0 -17 -10 -44 -22 -60 -21 -30 -23 -30 -89 -26 -75 6 -121
28 -198 97 -42 37 -45 44 -45 89 0 111 130 215 196 155z m247 -99 c62 -18 117
-63 108 -87 -3 -9 -31 -29 -62 -44 -51 -25 -55 -30 -50 -54 5 -22 0 -31 -32
-56 -52 -40 -61 -45 -73 -38 -6 4 0 18 15 37 14 16 28 41 31 55 9 36 -12 98
-48 139 -17 19 -29 36 -27 38 35 29 67 31 138 10z m-520 -197 c46 -19 161
-118 161 -138 0 -38 -67 -72 -99 -52 -9 6 -18 25 -21 44 -5 32 -8 34 -47 37
-47 3 -83 37 -83 76 0 44 33 56 89 33z m598 -13 c26 -40 23 -118 -5 -146 -19
-20 -33 -23 -90 -22 -71 1 -135 26 -197 78 -26 22 -27 25 -10 25 11 0 38 -8
60 -19 22 -11 51 -19 65 -20 41 0 130 75 130 110 0 28 26 25 47 -6z m-307
-271 c0 -26 -41 -25 -79 2 -21 14 -56 31 -77 36 l-38 11 29 13 c17 7 39 22 50
34 l20 23 47 -54 c26 -29 48 -58 48 -65z m-124 -9 c53 -25 58 -37 34 -80 -36
-68 -27 -112 38 -191 29 -36 32 -44 18 -49 -9 -3 -28 -3 -43 1 -35 8 -159 133
-178 179 -20 47 -19 115 2 138 20 23 83 24 129 2z m293 -28 c15 -8 45 -34 65
-57 36 -39 38 -45 34 -91 -7 -72 -39 -108 -134 -152 -42 -20 -84 -30 -84 -20
0 5 4 25 10 44 l9 35 -18 -22 c-23 -28 -31 -29 -31 -5 0 13 -2 14 -9 3 -13
-21 -91 89 -91 129 0 52 36 101 98 134 35 19 115 20 151 2z m946 -110 c38 -16
67 -63 68 -112 1 -18 -1 -36 -4 -38 -3 -3 -28 7 -57 21 -90 44 -158 14 -192
-87 l-19 -55 -1 71 c0 59 5 81 28 124 41 80 103 107 177 76z m287 -28 c46 -25
73 -67 64 -96 -4 -12 -28 -25 -67 -36 -62 -19 -119 -58 -119 -81 0 -7 -7 -16
-16 -19 -12 -4 -15 -2 -10 9 4 10 -1 15 -16 15 -20 0 -20 1 -5 18 21 23 22 42
2 42 -19 0 -19 5 2 37 14 21 14 25 3 21 -10 -3 -20 9 -32 40 -10 25 -15 49
-12 54 22 35 140 33 206 -4z m-976 -85 c-2 -3 -112 35 -124 42 -1 1 1 16 4 33
l6 31 59 -51 c32 -29 57 -53 55 -55z m-551 -103 c-4 -6 6 -10 24 -10 47 0 47
-18 0 -66 -68 -69 -156 -91 -216 -54 -43 26 -56 54 -51 110 6 60 39 107 91
130 l40 18 59 -59 c33 -32 57 -63 53 -69z m1256 41 c24 -24 29 -38 29 -76 l0
-47 34 6 c36 7 97 -12 111 -33 3 -7 -3 -28 -15 -48 l-21 -36 26 -21 27 -21
-22 -20 c-33 -30 -118 -27 -205 9 -86 35 -110 56 -129 114 -26 75 -17 133 26
180 33 34 101 31 139 -7z m-383 -25 c17 -10 15 -43 -4 -50 -41 -16 -83 -5
-126 30 -23 20 -44 39 -46 43 -3 9 159 -12 176 -23z m860 28 c17 -3 40 -15 52
-27 30 -27 24 -106 -11 -144 -27 -28 -77 -53 -109 -53 -20 0 -20 1 -6 22 21
29 20 72 -1 93 -25 25 -61 36 -143 44 l-75 7 38 18 c76 34 193 52 255 40z
m-1309 -44 c49 -24 99 -84 107 -126 13 -70 -53 -131 -130 -119 -77 11 -137 60
-176 140 -32 66 -28 77 38 102 72 27 113 28 161 3z m-319 -77 c0 -24 1 -25 18
-10 16 15 19 15 30 -4 7 -11 17 -17 22 -14 5 3 20 -16 34 -42 13 -26 36 -59
50 -72 34 -32 36 -91 5 -122 -18 -18 -30 -20 -70 -17 -98 10 -169 90 -169 193
0 42 5 54 32 82 39 40 48 41 48 6z m1504 3 c41 -17 45 -32 16 -69 -11 -14 -20
-31 -20 -39 0 -7 9 -19 20 -26 28 -17 25 -36 -10 -66 -37 -30 -84 -41 -146
-31 l-45 6 25 26 c31 31 33 58 7 73 -19 10 -19 12 -5 47 15 34 14 38 -5 64
-15 20 -17 29 -8 33 21 10 134 -2 171 -18z m-701 -241 c25 -55 41 -101 36
-103 -16 -6 -86 40 -102 68 -11 18 -17 50 -17 87 0 105 19 94 83 -52z m753
-197 c-6 10 -1 11 21 6 53 -12 123 -46 123 -60 0 -15 -38 -44 -58 -44 -18 0
-96 64 -117 96 l-16 25 27 -18 c16 -10 25 -12 20 -5z"/>
<path d="M1731 3735 c-88 -33 -99 -45 -82 -92 39 -108 103 -152 196 -134 41 8
56 17 85 52 19 23 57 64 85 90 31 30 46 52 40 57 -18 15 -171 52 -216 51 -24
0 -73 -11 -108 -24z m159 -4 l25 -7 -25 -7 c-27 -7 -19 -22 15 -29 11 -2 19
-10 17 -17 -2 -9 6 -11 30 -6 l32 7 -50 -63 c-47 -59 -54 -65 -102 -73 -41 -7
-56 -6 -76 7 -29 20 -86 99 -86 121 0 19 67 54 123 66 52 10 65 10 97 1z"/>
<path d="M3242 2723 c-57 -28 -66 -51 -48 -122 21 -82 49 -134 102 -191 24
-26 44 -53 44 -61 1 -8 13 0 28 17 15 18 43 38 62 46 56 23 65 42 65 127 0
117 -5 128 -73 147 -31 9 -68 22 -82 29 -46 23 -65 24 -98 8z m142 -46 c38
-14 73 -33 79 -42 5 -9 9 -48 9 -86 1 -53 -3 -74 -17 -89 -25 -27 -50 -27 -35
0 13 24 3 26 -20 5 -16 -14 -17 -14 -13 10 7 34 -3 31 -23 -7 -16 -31 -17 -31
-31 -12 -15 18 -15 18 -11 -8 3 -16 2 -28 -2 -28 -28 0 -110 167 -110 222 0
12 10 32 22 46 27 28 48 26 152 -11z"/>
<path d="M1227 1413 c-35 -34 65 -212 149 -263 32 -20 40 -21 90 -12 93 19
243 120 231 156 -2 6 -35 15 -73 21 -38 6 -98 25 -134 42 -111 53 -240 80
-263 56z m203 -59 c94 -38 117 -54 78 -54 -39 0 1 -20 42 -20 l35 -1 -25 -14
c-34 -20 -2 -20 44 -1 31 13 34 13 32 -2 -3 -21 -117 -83 -169 -93 -57 -10
-101 6 -136 50 -35 44 -81 132 -81 155 0 29 80 20 180 -20z"/>
<path d="M3986 728 c39 -78 241 -426 339 -587 66 -107 91 -141 107 -141 19 0
19 2 6 23 -8 12 -88 144 -178 292 -156 259 -288 465 -296 465 -3 0 8 -23 22
-52z"/>
<path d="M3550 529 c-48 -14 -197 -86 -205 -99 -3 -5 2 -13 12 -16 10 -3 41
-17 69 -31 45 -23 55 -24 87 -14 75 25 176 126 150 152 -15 15 -74 19 -113 8z
m80 -31 c0 -19 -77 -85 -115 -98 -41 -13 -67 -8 -59 13 3 8 -3 17 -12 21 -14
5 -3 15 47 40 64 34 139 47 139 24z"/>
<path d="M2907 313 c-145 -230 -187 -308 -171 -311 8 -2 17 -2 18 0 19 21 219
398 212 398 -2 0 -29 -39 -59 -87z"/>
<path d="M3972 296 c61 -111 186 -295 201 -296 9 0 17 3 17 6 0 21 -196 300
-216 308 -12 5 -12 2 -2 -18z"/>
<path d="M6322 268 c-12 -6 -25 -22 -28 -34 -3 -13 -12 -28 -20 -35 -18 -15
-18 -46 0 -56 8 -5 55 -5 103 -1 48 3 107 7 130 7 31 1 45 6 53 21 14 26 -3
60 -31 60 -12 0 -23 10 -29 25 -9 24 -14 25 -82 24 -40 0 -83 -5 -96 -11z
m161 -42 c14 -14 33 -26 42 -26 9 0 14 -4 11 -9 -4 -5 -50 -12 -104 -15 -53
-4 -110 -9 -126 -11 l-30 -5 22 23 c12 13 22 31 22 40 0 20 52 37 101 33 22
-2 46 -14 62 -30z"/>
<path d="M6733 258 c-27 -29 -47 -98 -30 -103 7 -2 60 -6 119 -9 88 -4 110 -2
123 10 16 17 12 31 -17 52 -10 7 -18 21 -18 31 0 31 -22 41 -90 41 -56 0 -70
-4 -87 -22z m147 -25 c0 -9 10 -28 23 -41 l22 -25 -55 7 c-30 3 -74 6 -97 6
-48 0 -57 18 -26 52 23 25 133 27 133 1z"/>
<path d="M5963 250 c-13 -5 -23 -16 -23 -24 0 -8 -12 -28 -26 -45 -14 -17 -24
-37 -21 -44 7 -18 252 -24 273 -6 22 18 17 45 -12 57 -14 7 -30 26 -36 42 -10
29 -12 30 -71 29 -34 0 -72 -4 -84 -9z m131 -43 c3 -13 18 -30 33 -38 26 -13
22 -14 -66 -17 -105 -3 -131 2 -113 20 7 7 12 20 12 29 0 22 14 27 76 28 46 1
52 -2 58 -22z"/>
<path d="M7159 243 c-9 -2 -21 -15 -27 -28 -7 -14 -18 -25 -25 -25 -21 0 -50
-37 -44 -55 4 -9 19 -15 39 -15 18 0 71 -7 117 -14 47 -8 91 -12 98 -9 20 8
26 43 10 61 -8 9 -17 28 -19 42 -2 21 -11 27 -53 37 -54 12 -71 13 -96 6z m94
-34 c29 -8 37 -15 37 -32 0 -13 5 -28 12 -35 22 -22 1 -23 -101 -6 l-101 17
30 18 c16 10 30 26 30 34 0 18 37 20 93 4z"/>
<path d="M5593 233 c-13 -3 -25 -14 -29 -27 -3 -12 -18 -27 -35 -33 -22 -9
-29 -18 -29 -37 l0 -26 119 0 c126 0 171 9 171 35 0 9 -15 25 -34 36 -19 11
-36 29 -39 39 -4 17 -13 20 -54 19 -26 -1 -58 -4 -70 -6z m104 -43 c3 -10 14
-22 24 -25 43 -14 2 -25 -89 -24 -68 0 -90 3 -74 9 12 5 22 14 22 19 0 22 33
41 72 41 31 0 41 -4 45 -20z"/>
<path d="M5910 57 c-28 -14 -41 -57 -17 -57 8 0 17 9 20 20 5 18 14 20 102 20
88 0 97 -2 102 -20 3 -11 12 -20 19 -20 17 0 19 41 2 58 -16 16 -195 16 -228
-1z"/>
<path d="M6264 60 c-12 -5 -24 -20 -26 -34 -6 -31 12 -35 30 -6 12 19 21 20
135 18 110 -3 122 -5 119 -21 -2 -9 3 -17 11 -17 16 0 32 45 22 60 -8 12 -262
12 -291 0z"/>
<path d="M6722 51 c-5 -3 -12 -16 -16 -28 -5 -17 -3 -23 7 -23 9 0 17 5 19 11
5 16 174 12 199 -4 10 -6 21 -9 24 -6 11 11 -7 39 -29 44 -36 7 -195 12 -204
6z"/>
<path d="M7060 34 c-13 -32 -12 -34 1 -34 7 0 17 7 23 16 11 14 21 14 119 -1
58 -9 116 -15 129 -13 l23 3 -21 13 c-23 12 -189 42 -237 42 -20 0 -30 -7 -37
-26z"/>
<path d="M5503 39 c-18 -18 -16 -39 2 -39 8 0 15 5 15 11 0 12 197 7 238 -6
23 -8 28 1 13 25 -13 20 -250 28 -268 9z"/>
</g>
</svg>
