<?xml version="1.0" standalone="no"?>
<!DOCTYPE svg PUBLIC "-//W3C//DTD SVG 20010904//EN"
 "http://www.w3.org/TR/2001/REC-SVG-20010904/DTD/svg10.dtd">
<svg version="1.0" xmlns="http://www.w3.org/2000/svg"
 width="850.000000pt" height="850.000000pt" viewBox="0 0 850.000000 850.000000"
 preserveAspectRatio="xMidYMid meet">
<metadata>
Created by potrace 1.14, written by Peter Selinger 2001-2017
</metadata>
<g transform="translate(0.000000,850.000000) scale(0.100000,-0.100000)"
fill="#000000" stroke="none">
<path d="M7294 8448 c-173 -131 -321 -301 -394 -452 -54 -112 -73 -193 -74
-306 -1 -114 19 -185 69 -259 31 -44 33 -51 17 -51 -45 0 -165 -74 -236 -144
-132 -133 -187 -286 -137 -384 36 -70 80 -105 186 -148 54 -22 100 -44 102
-50 6 -19 -67 -103 -125 -143 -160 -108 -237 -131 -472 -140 -212 -9 -265 -23
-295 -81 -34 -67 6 -136 125 -214 38 -25 74 -55 80 -65 10 -21 14 -64 5 -73
-3 -3 -30 4 -60 14 -73 24 -272 58 -343 58 -241 -1 -413 -153 -399 -353 6 -89
65 -212 142 -296 30 -32 55 -64 55 -70 0 -5 -23 -46 -50 -90 -37 -57 -66 -89
-105 -116 -52 -36 -115 -104 -115 -124 0 -5 18 -20 40 -32 38 -22 80 -72 80
-97 0 -6 -53 -41 -117 -78 l-118 -67 -205 32 c-113 18 -222 37 -242 42 -57 15
-85 56 -92 136 -16 171 -54 261 -152 359 -185 182 -529 241 -874 149 -52 -14
-115 -37 -140 -51 -42 -24 -46 -24 -55 -8 -5 9 -28 40 -51 68 -102 128 -274
152 -599 84 -156 -33 -135 -45 -223 128 -42 83 -98 196 -124 250 -97 206 -259
344 -488 416 -66 20 -94 23 -235 22 -237 -1 -308 -24 -775 -250 -287 -139
-434 -195 -560 -215 -88 -14 -217 -6 -279 15 -51 19 -61 20 -61 6 0 -22 134
-52 235 -52 185 0 299 37 698 232 136 66 292 138 345 159 188 75 353 101 502
81 184 -25 328 -95 450 -219 85 -86 133 -163 185 -295 20 -50 66 -147 103
-216 53 -99 72 -125 87 -123 11 1 74 13 140 27 225 48 398 50 482 7 46 -23
117 -97 140 -146 19 -40 26 -42 52 -16 26 26 112 57 233 82 145 31 366 32 490
1 206 -51 372 -187 419 -345 6 -18 14 -71 19 -119 5 -48 15 -101 23 -118 15
-29 15 -30 -6 -30 -25 0 -199 28 -202 32 -1 2 -12 30 -24 63 -49 132 -27 113
-256 205 l-207 82 -27 -20 c-14 -12 -87 -58 -161 -103 -172 -105 -220 -138
-220 -149 0 -6 16 -20 35 -32 30 -20 35 -28 35 -64 0 -23 -6 -46 -12 -52 -7
-5 -172 -73 -366 -151 l-353 -142 -205 66 -205 66 -245 -85 c-135 -47 -249
-86 -255 -86 -5 0 -331 155 -723 344 -446 215 -726 345 -747 346 -19 1 -130 2
-246 1 -189 -1 -213 -3 -213 -17 0 -15 24 -16 233 -13 l232 4 592 -285 c325
-157 590 -286 589 -288 -2 -1 -371 110 -821 248 -449 138 -820 249 -822 246
-17 -17 21 -36 143 -73 208 -63 1707 -522 1723 -528 10 -4 11 -9 4 -16 -7 -7
-183 42 -559 156 -634 192 -1271 385 -1296 392 -12 4 -18 0 -18 -10 0 -11 22
-23 72 -37 40 -12 136 -41 213 -65 77 -24 426 -130 775 -235 349 -106 637
-194 640 -197 3 -2 -8 -3 -25 -1 -27 3 -30 0 -37 -37 -4 -22 -7 -66 -7 -98 -1
-53 1 -58 25 -67 57 -22 62 -17 69 77 5 59 4 92 -4 105 -14 22 -11 22 64 -1
l60 -19 3 -63 c2 -35 0 -88 -3 -117 -6 -45 -9 -52 -23 -47 -24 9 -1797 455
-1811 455 -6 0 -11 -6 -11 -14 0 -12 708 -195 1582 -408 222 -54 258 -66 258
-82 0 -15 -5 -17 -27 -11 -130 33 -1797 435 -1804 435 -5 0 -9 -7 -9 -15 0 -8
16 -18 38 -24 48 -13 1727 -417 1769 -426 18 -4 33 -10 33 -15 0 -15 -31 -33
-68 -39 -35 -6 -37 -9 -43 -51 l-6 -45 -1 43 c-2 39 -5 44 -37 58 -20 8 -40
12 -45 9 -6 -4 -10 -51 -10 -105 l0 -98 30 -7 c40 -9 50 -1 52 43 1 36 1 36 7
-8 5 -40 9 -45 34 -48 16 -2 27 -9 27 -18 0 -12 -7 -14 -28 -10 -30 7 -867
138 -1382 216 -179 28 -335 52 -347 55 -18 4 -23 1 -23 -15 0 -11 3 -20 8 -20
22 1 1722 -262 1747 -270 25 -8 23 -9 -15 -4 -53 6 -1659 241 -1708 249 -26 5
-32 3 -32 -12 0 -16 19 -21 153 -40 83 -12 465 -67 847 -123 382 -55 714 -103
738 -106 38 -6 42 -9 42 -35 0 -20 -5 -29 -16 -29 -9 0 -148 18 -308 40 -436
59 -1430 190 -1444 190 -24 0 -11 -28 16 -33 15 -3 415 -56 890 -118 772 -102
862 -115 862 -131 0 -18 -21 -29 -120 -64 -30 -10 -73 -34 -95 -52 l-40 -33
-6 62 c-6 56 -10 66 -42 96 -66 60 -155 36 -206 -57 -22 -40 -26 -61 -34 -229
-5 -103 -12 -190 -17 -195 -13 -13 -43 2 -36 19 3 8 8 97 12 197 10 278 -14
338 -137 338 -54 0 -63 -3 -99 -36 -22 -20 -51 -60 -65 -89 -24 -49 -27 -68
-35 -251 -5 -110 -9 -200 -10 -201 0 -2 -10 -3 -23 -3 l-23 0 0 238 c1 223 0
240 -21 284 -26 57 -59 80 -124 86 -89 8 -188 -47 -229 -128 -16 -31 -20 -73
-28 -258 -4 -122 -10 -224 -13 -226 -2 -3 -72 -10 -154 -16 -201 -14 -235 -19
-235 -36 0 -15 -3 -15 168 1 31 3 230 10 442 15 212 5 447 14 523 21 119 11
140 10 148 -2 23 -37 15 -39 -188 -39 -109 0 -369 -7 -578 -15 -209 -8 -410
-15 -447 -15 -54 0 -68 -3 -68 -15 0 -19 102 -20 425 -4 121 5 427 12 680 14
842 6 1109 14 1500 46 279 22 284 22 225 3 -61 -19 -288 -41 -565 -54 -489
-24 -626 -34 -639 -51 -7 -10 -35 -18 -81 -22 -167 -15 -487 -48 -695 -71
-124 -14 -310 -32 -415 -41 -371 -30 -452 -41 -434 -59 11 -11 675 43 974 79
116 14 360 38 515 50 138 11 159 15 165 34 5 15 30 19 213 30 114 6 299 16
412 21 277 12 438 28 544 51 49 11 136 23 193 26 67 4 110 11 118 19 7 8 34
45 59 83 l46 69 328 7 c397 9 875 1 1152 -20 113 -8 264 -20 335 -25 368 -26
430 -32 438 -43 12 -19 0 -75 -22 -104 -12 -14 -21 -33 -21 -42 0 -16 45 -57
88 -80 31 -16 40 -45 53 -159 6 -53 17 -112 25 -130 8 -19 14 -36 14 -38 0
-20 -114 37 -159 79 -38 36 -91 139 -91 177 -1 85 -107 192 -176 178 -21 -4
-52 -86 -53 -140 -1 -33 3 -40 35 -56 l37 -19 -44 1 c-40 1 -44 -1 -47 -26 -2
-18 4 -31 18 -41 21 -15 21 -15 -5 -21 -42 -11 -23 -75 23 -77 13 0 11 -3 -6
-11 -17 -8 -22 -19 -20 -37 3 -23 8 -26 52 -29 60 -4 77 -22 106 -112 28 -84
64 -150 110 -200 l36 -39 -50 -5 c-28 -3 -114 -10 -191 -16 -456 -35 -782 -99
-815 -161 -28 -52 27 -77 268 -125 225 -44 273 -68 200 -98 -51 -21 -155 -42
-543 -109 -198 -34 -360 -67 -360 -72 0 -16 205 -17 635 -5 251 7 426 17 480
26 106 18 172 49 185 87 12 37 -10 58 -122 116 -85 44 -88 47 -91 83 -3 34 0
39 35 56 70 36 277 63 508 65 l130 2 8 -60 c16 -118 6 -110 139 -108 114 2
115 2 127 -23 10 -22 8 -26 -15 -34 -14 -6 -49 -10 -79 -10 -78 0 -105 -13
-105 -49 0 -16 7 -37 16 -45 29 -30 64 -32 172 -10 28 6 32 4 32 -14 0 -22 -3
-23 -103 -36 -52 -7 -70 -23 -62 -55 12 -47 24 -53 98 -49 83 4 100 -13 35
-33 -36 -12 -44 -19 -46 -42 -6 -50 10 -57 123 -57 l102 0 104 -68 c158 -104
189 -120 258 -136 35 -8 65 -17 67 -19 3 -2 -14 -43 -37 -91 -52 -110 -117
-182 -206 -229 -63 -32 -82 -36 -248 -56 -304 -35 -629 -58 -970 -68 -173 -5
-229 -3 -313 11 -141 24 -364 81 -427 110 -126 58 -317 315 -424 573 -18 43
-39 93 -47 110 -12 29 -11 42 11 125 35 136 48 245 43 367 -4 94 -8 116 -35
173 -47 100 -101 153 -210 205 -77 36 -101 44 -140 41 l-48 -3 -21 -61 c-36
-100 -115 -469 -117 -545 l-2 -71 95 -34 c52 -20 116 -42 142 -50 81 -25 92
-40 96 -134 l4 -82 -33 18 c-19 9 -87 37 -153 61 -141 52 -148 50 -144 -36 3
-53 5 -56 43 -78 22 -13 69 -32 105 -43 36 -11 95 -32 132 -47 65 -25 68 -28
68 -60 0 -18 -5 -33 -10 -33 -6 0 -78 21 -160 46 -83 25 -160 44 -172 42 -21
-3 -23 -8 -23 -68 l0 -64 105 -28 c58 -15 145 -41 195 -56 88 -28 90 -30 98
-66 5 -20 7 -39 4 -42 -7 -7 -259 44 -324 67 -72 25 -89 24 -97 -3 -8 -32 -7
-81 2 -95 12 -19 230 -100 302 -113 169 -29 179 -33 180 -86 0 -13 -198 16
-341 52 -143 35 -143 35 -147 -48 -2 -56 0 -68 15 -76 26 -14 235 -59 333 -72
159 -20 201 -31 211 -54 92 -223 163 -358 257 -489 43 -59 61 -77 79 -77 l24
0 -23 31 c-109 144 -217 339 -287 515 l-32 80 -112 18 c-62 9 -141 22 -177 27
-36 6 -107 20 -157 31 -92 21 -93 22 -99 55 -4 19 -4 37 0 40 3 3 48 -6 100
-21 134 -37 303 -62 387 -57 l26 1 -14 48 c-27 86 -30 91 -70 97 -146 25 -241
49 -325 82 -91 35 -98 40 -98 66 0 15 2 27 3 27 2 0 30 -9 63 -21 75 -26 306
-79 346 -79 26 0 29 3 25 22 -3 13 -11 51 -18 85 -11 62 -12 63 -53 74 -22 5
-75 21 -116 34 -41 14 -109 33 -150 44 -75 19 -90 32 -76 66 4 11 36 4 153
-30 81 -23 164 -45 183 -48 l36 -5 -4 66 c-3 45 -9 71 -19 79 -16 13 -74 36
-238 95 -81 30 -90 36 -93 61 -4 36 6 35 134 -13 149 -56 185 -65 195 -48 13
19 11 135 -2 179 -7 21 -21 47 -33 58 -12 10 -83 42 -160 70 -76 27 -140 52
-143 54 -11 12 81 449 119 562 17 52 37 54 135 14 101 -42 179 -117 213 -204
47 -122 34 -363 -30 -550 -47 -136 -50 -151 -50 -272 0 -336 192 -833 440
-1133 95 -115 189 -200 222 -200 27 0 21 7 -79 108 -200 199 -346 441 -450
746 -77 225 -115 452 -94 567 6 34 15 67 20 72 5 5 18 -19 31 -60 69 -207 243
-478 383 -595 195 -162 434 -272 749 -342 213 -48 308 -58 603 -62 276 -4 369
0 955 46 396 32 923 99 1135 145 175 38 459 109 623 157 128 37 142 43 142 64
0 21 -2 21 -42 10 -41 -13 -43 -12 -102 29 -34 24 -101 66 -150 95 -48 29 -84
55 -80 59 5 4 68 20 139 35 194 40 235 53 235 78 0 24 17 26 -205 -27 -82 -19
-174 -38 -202 -41 -87 -11 -74 -29 102 -146 85 -56 155 -106 155 -110 0 -12
-72 -22 -86 -12 -7 5 -73 52 -146 105 -73 53 -143 101 -155 107 -18 10 -61 3
-250 -42 -384 -92 -951 -188 -1808 -306 -249 -34 -416 -42 -823 -38 -372 3
-389 4 -439 25 -58 25 -166 84 -161 88 2 2 64 -12 138 -31 150 -39 304 -56
444 -49 50 3 190 10 311 15 121 6 301 18 400 26 180 15 677 71 705 79 8 2 110
18 225 35 414 61 827 142 1340 265 473 114 449 107 453 133 2 12 1 22 -2 22
-3 0 -202 -49 -443 -109 -458 -114 -848 -199 -860 -188 -3 4 -8 54 -11 111 -5
123 -21 111 158 121 281 15 725 78 1019 145 73 16 135 30 137 30 2 0 4 9 4 21
0 16 -4 20 -17 14 -39 -14 -468 -96 -633 -119 -183 -26 -448 -53 -585 -58
l-80 -3 -3 28 c-3 21 4 34 29 54 63 53 75 133 19 133 -45 0 -60 10 -60 40 0
28 2 29 68 35 390 36 676 86 1130 196 l132 32 0 42 c0 39 -4 46 -45 76 -24 19
-45 37 -45 40 0 4 20 12 45 18 34 8 45 16 45 31 0 18 -2 18 -52 4 -95 -29
-100 -32 -88 -53 5 -11 37 -41 70 -67 33 -26 60 -48 60 -49 0 -2 -7 -5 -15 -9
-9 -3 -43 20 -90 60 -88 77 -47 76 -365 11 -322 -66 -691 -128 -774 -130 -70
-2 -71 -1 -71 23 0 23 5 25 60 33 276 35 694 115 1044 200 191 46 238 64 219
83 -3 2 -97 -18 -209 -45 -357 -87 -689 -152 -963 -191 l-149 -20 -33 34 c-38
39 -77 51 -139 42 -47 -8 -71 -28 -77 -66 l-3 -25 -185 -3 c-271 -4 -426 20
-552 85 -49 25 -71 44 -82 68 -23 48 -21 58 12 52 131 -28 928 -33 1167 -7
259 27 725 121 789 158 52 31 103 116 143 240 l37 115 85 -7 c47 -3 102 -9
123 -12 33 -6 38 -4 38 13 0 17 -12 21 -111 31 -62 6 -114 14 -117 16 -2 3 1
29 8 58 22 99 9 90 121 82 88 -6 99 -5 99 10 0 13 -11 16 -54 16 -29 0 -74 3
-100 6 l-48 7 7 36 c9 49 30 85 59 105 52 34 21 96 -48 96 -41 0 -82 -32 -90
-72 -31 -152 -35 -158 -89 -144 -20 5 -22 11 -23 93 0 86 -59 698 -69 712 -4
8 240 21 383 21 62 0 72 2 72 18 0 18 -1 18 -362 9 -71 -2 -128 -2 -128 0 0
16 54 83 68 83 9 0 104 9 211 20 107 11 198 20 203 20 4 0 8 7 8 15 0 20 -25
19 -244 -5 -99 -11 -181 -18 -184 -16 -3 4 -68 553 -71 606 0 8 -7 70 -15 136
-21 187 -81 294 -164 294 -19 0 -33 2 -31 4 4 4 693 166 705 166 2 0 4 7 4 15
0 8 -4 15 -9 15 -5 0 -105 -23 -223 -51 -592 -140 -618 -145 -596 -123 5 4
634 170 776 204 32 7 52 17 52 26 0 8 -6 14 -12 14 -11 0 -466 -118 -736 -191
-45 -12 -84 -20 -86 -18 -5 5 -56 433 -56 466 0 15 33 34 163 88 89 38 266
115 392 173 127 57 254 115 283 128 29 13 52 30 52 39 0 8 -2 15 -4 15 -2 0
-61 -27 -131 -60 -142 -67 -752 -340 -760 -340 -3 0 -5 7 -5 15 0 19 20 29
493 246 216 99 396 184 401 189 4 4 7 13 5 18 -3 9 -682 -297 -847 -382 -38
-19 -53 -23 -56 -14 -12 38 -47 411 -40 418 5 5 218 121 474 259 293 157 466
256 469 267 2 13 -1 15 -15 10 -19 -7 -384 -204 -748 -403 -104 -57 -191 -103
-193 -103 -1 0 -3 10 -3 23 0 20 61 56 476 283 262 142 478 265 481 272 3 7 3
15 1 18 -3 3 -147 -72 -319 -167 -334 -182 -400 -217 -384 -202 6 5 136 80
290 167 154 86 287 161 295 166 8 5 39 23 68 40 28 16 52 37 52 46 0 9 -3 14
-7 12 -5 -2 -31 -15 -60 -30 -45 -24 -52 -25 -57 -11 -4 9 1 26 9 39 13 20 24
24 65 24 38 0 50 4 50 15 0 11 -12 15 -47 15 l-48 1 25 21 c14 11 35 29 48 39
13 10 22 25 20 34 -2 12 -22 0 -77 -45 -41 -33 -77 -60 -81 -60 -5 0 -33 160
-148 867 -14 89 -24 164 -22 165 3 2 78 70 168 152 107 97 162 154 162 167 0
23 -4 19 -233 -191 -100 -91 -125 -121 -126 -142 -1 -15 35 -245 79 -511 44
-266 80 -489 80 -496 0 -9 -34 -12 -140 -10 -154 2 -147 5 -240 -82 l-35 -32
-236 -11 -235 -11 -277 -318 c-152 -175 -277 -325 -277 -333 0 -8 11 -19 24
-26 32 -14 33 -18 42 -131 l7 -94 -109 -5 c-65 -3 -114 -1 -121 5 -9 6 -13 37
-13 88 l0 78 -55 11 c-52 11 -56 10 -89 -16 -31 -25 -34 -33 -41 -100 -4 -40
-5 -117 -4 -171 3 -74 0 -103 -11 -119 -8 -11 -73 -89 -145 -172 l-130 -152
-305 6 -305 7 -91 -51 c-49 -29 -93 -52 -96 -52 -3 0 -9 11 -12 24 -3 13 -27
43 -52 65 -45 40 -46 41 -31 65 9 13 43 43 77 67 47 32 72 61 115 129 30 48
55 92 55 99 0 6 -27 44 -61 84 -160 190 -184 367 -65 495 69 75 166 112 297
112 95 0 242 -24 338 -56 82 -27 86 -26 97 33 10 52 -18 93 -97 143 -71 44
-129 107 -129 139 0 27 30 62 66 77 20 9 103 18 206 24 94 6 201 17 237 26 72
18 194 74 266 124 52 35 135 136 135 162 0 23 -28 40 -129 79 -128 50 -175
109 -175 215 1 90 38 159 139 261 87 88 181 143 242 143 46 0 49 16 10 63 -68
83 -88 148 -88 275 1 147 57 300 162 443 62 83 225 241 315 304 92 65 93 65
57 65 -21 0 -51 -16 -99 -52z m1048 -1970 c-9 -9 -61 -15 -156 -18 l-143 -6
-55 -49 -54 -50 -250 -15 -249 -15 -248 -295 c-229 -271 -276 -319 -289 -290
-2 3 117 143 264 311 l266 306 236 7 236 7 62 60 63 59 164 0 c132 0 163 -3
153 -12z m1 -62 c3 -8 -4 -21 -18 -30 -30 -20 -33 -20 -51 -2 -14 15 -66 14
-169 -3 l-40 -6 -3 -70 -3 -70 -270 -154 c-148 -85 -272 -152 -274 -149 -9 8
-62 353 -56 360 4 4 111 10 240 14 l233 7 61 53 c67 59 66 58 253 62 72 2 93
-1 97 -12z m-87 -65 c-6 -9 -150 -91 -161 -91 -3 0 -5 20 -5 44 0 41 2 45 28
49 54 8 143 7 138 -2z m-813 -182 l14 -85 -47 -52 c-47 -52 -60 -56 -60 -18 0
12 -6 46 -14 75 l-14 53 50 60 c28 33 52 58 54 56 2 -2 9 -42 17 -89z m-125
-140 l12 -81 -37 -44 c-42 -52 -47 -49 -64 47 l-12 67 39 46 c21 25 41 46 45
46 3 0 11 -36 17 -81z m155 -46 l5 -42 -222 -213 c-122 -117 -236 -226 -254
-242 l-32 -30 0 28 c0 21 18 47 73 105 40 42 120 128 177 191 58 63 122 133
144 155 21 22 50 55 64 73 29 38 37 33 45 -25z m307 52 c0 -2 -13 -11 -30 -20
-38 -19 -40 -11 -2 9 31 17 32 18 32 11z m-570 -134 l13 -69 -30 -39 c-41 -50
-70 -76 -76 -66 -2 4 -7 40 -11 78 l-6 70 42 52 c23 28 45 50 48 48 4 -2 13
-35 20 -74z m280 -36 c0 -13 5 -25 11 -27 6 -2 13 -17 15 -33 2 -17 9 -79 15
-139 l13 -109 -35 -29 c-19 -15 -51 -42 -71 -59 l-37 -30 -6 48 c-21 156 -36
190 -79 179 -20 -5 -33 -19 -48 -53 -19 -43 -20 -53 -9 -150 7 -57 14 -110 17
-117 4 -11 -92 -106 -108 -106 -3 0 -11 39 -18 87 -14 89 -38 133 -73 133 -35
0 -40 -26 -34 -179 6 -137 5 -149 -12 -165 -18 -16 -19 -15 -24 16 -4 18 -12
91 -18 161 l-12 128 144 137 c79 75 191 182 249 238 57 57 108 100 112 98 4
-3 8 -16 8 -29z m-408 -123 c2 -66 0 -75 -23 -98 l-26 -26 -12 77 -13 77 28
29 c15 16 31 26 35 22 5 -5 9 -41 11 -81z m-88 -49 c10 -61 6 -107 -9 -127
-20 -27 -25 -19 -32 56 -8 92 27 153 41 71z m-346 -61 c8 -6 13 -38 15 -95 2
-81 1 -88 -24 -113 l-27 -26 -6 78 c-6 80 -9 143 -7 157 1 9 33 9 49 -1z m701
-55 c6 -28 13 -77 16 -107 6 -52 5 -57 -24 -84 -17 -16 -33 -28 -35 -25 -2 2
-9 48 -15 101 -11 96 -6 133 21 165 16 20 26 7 37 -50z m-771 -83 l11 -126
-27 -34 -27 -34 -3 146 c-2 138 3 174 28 174 3 0 12 -57 18 -126z m980 -71
c-2 -17 -74 -75 -268 -217 -262 -192 -265 -194 -272 -168 -8 28 2 39 123 137
20 17 120 102 220 189 l184 159 8 -39 c4 -21 6 -49 5 -61z m-616 -13 c3 -32 0
-35 -25 -38 -36 -4 -39 -13 -30 -97 l8 -70 35 -5 c37 -5 40 -11 53 -132 4 -46
4 -48 -22 -48 -48 0 -52 -10 -41 -86 5 -38 10 -72 10 -76 0 -5 17 -8 39 -8
l38 0 6 -67 c11 -116 11 -120 -23 -127 l-31 -6 3 -82 3 -83 43 -3 c39 -3 42
-5 42 -31 0 -16 3 -43 6 -60 l7 -32 -126 3 -126 3 -6 50 c-10 97 -85 974 -85
1004 l0 30 103 3 c56 2 105 1 109 -2 4 -3 9 -21 10 -40z m163 -14 c32 -158 33
-185 2 -214 -13 -12 -27 -19 -30 -15 -4 3 -7 64 -7 134 0 110 2 128 15 123 8
-4 17 -16 20 -28z m-370 -506 c25 -283 43 -516 41 -518 -3 -2 -13 1 -23 6 -15
8 -21 31 -31 116 -7 59 -17 118 -22 131 -11 30 -40 32 -65 5 -15 -16 -17 -33
-13 -105 2 -47 2 -85 -1 -85 -18 1 -31 21 -42 63 -8 32 -20 54 -37 65 -23 15
-25 15 -38 -3 -8 -10 -14 -36 -14 -57 0 -24 -5 -38 -12 -38 -20 0 -192 31
-197 35 -2 3 8 10 22 16 14 6 28 17 30 23 6 14 -13 128 -22 138 -4 4 -24 -5
-45 -19 l-38 -28 4 -62 c3 -52 1 -63 -12 -63 -30 0 -38 16 -44 100 -3 47 -9
114 -11 150 l-5 65 126 145 c69 80 150 172 179 205 30 33 89 102 131 152 43
51 82 89 87 84 4 -4 28 -239 52 -521z m853 283 c12 -104 22 -198 22 -210 0
-15 -15 -31 -50 -52 -47 -29 -70 -38 -70 -26 0 23 -32 208 -39 226 -12 33 -46
61 -67 57 -9 -1 -26 -15 -37 -30 -24 -32 -27 -94 -14 -260 l8 -97 -53 -30
c-29 -17 -53 -29 -54 -28 -2 1 -10 45 -19 97 -26 151 -60 197 -101 135 -14
-22 -16 -45 -10 -168 7 -138 7 -142 -14 -155 -12 -7 -23 -12 -25 -10 -2 2 -12
81 -22 176 -14 123 -16 177 -9 186 6 7 72 56 146 109 74 53 187 134 250 180
63 47 120 86 125 86 6 1 20 -78 33 -186z m-634 146 c3 -17 6 -47 6 -65 0 -27
-4 -34 -19 -34 -15 0 -20 10 -26 55 -3 30 -4 59 0 65 12 20 33 9 39 -21z m467
-216 c15 -41 42 -244 33 -252 -5 -4 -26 -18 -46 -30 -27 -16 -38 -19 -39 -9 0
7 -4 64 -8 126 -9 117 -2 179 20 193 17 10 28 2 40 -28z m-3314 -54 c193 -77
214 -89 193 -113 -17 -21 -38 -20 -76 3 -28 17 -298 121 -314 121 -5 0 -77
-43 -161 -95 -83 -52 -157 -95 -163 -95 -6 0 -18 5 -26 10 -21 13 -11 21 155
120 77 46 151 91 164 102 13 10 30 18 37 18 8 0 94 -32 191 -71z m-78 -63 c66
-25 147 -59 179 -76 l59 -31 6 -336 c4 -184 4 -339 1 -344 -3 -5 -25 -9 -50
-9 l-44 0 -1 163 c-1 288 -13 447 -36 492 -28 53 -59 81 -112 100 -118 41
-245 -15 -306 -136 -25 -48 -25 -50 -25 -343 l0 -294 -22 -6 c-13 -3 -38 -6
-56 -6 l-33 0 7 338 c3 185 10 341 15 347 7 7 289 183 296 185 1 0 56 -20 122
-44z m2965 -27 c12 -62 8 -79 -19 -79 -20 0 -25 5 -25 24 0 13 -3 38 -6 55 -6
28 -4 31 19 31 20 0 26 -6 31 -31z m188 -139 l22 -113 -23 -18 c-32 -26 -37
-24 -45 12 -8 42 -8 234 1 243 14 14 25 -14 45 -124z m-3136 84 c24 -12 47
-34 61 -59 32 -56 30 -69 -5 -51 -80 41 -171 27 -235 -37 -67 -67 -72 -89 -70
-287 1 -96 5 -203 8 -237 l7 -63 -41 0 -41 0 0 283 c0 171 4 297 11 321 14 50
83 123 134 142 50 18 120 13 171 -12z m297 -41 l18 -48 -28 -24 -28 -24 -3 58
c-5 97 13 114 41 38z m1836 32 c2 -3 -9 -20 -25 -39 -34 -41 -36 -41 -348 -26
l-199 10 -168 -85 c-92 -47 -178 -85 -191 -85 -62 1 -38 21 155 129 l202 113
285 -7 c157 -4 287 -8 289 -10z m1450 -100 l1 -40 -275 -137 c-267 -134 -275
-137 -281 -114 -3 13 -4 38 -2 56 3 30 11 38 93 85 50 29 171 100 270 158
l180 105 7 -36 c4 -21 7 -55 7 -77z m-1709 2 l215 -12 9 -128 c5 -70 7 -129 5
-131 -5 -5 -507 79 -513 85 -2 2 -6 48 -9 102 l-5 97 41 -1 c23 0 139 -6 257
-12z m-322 -90 l3 -87 -28 0 c-35 0 -242 35 -248 42 -7 7 247 138 260 134 6
-1 11 -42 13 -89z m-1523 59 c61 -26 63 -34 67 -321 l3 -260 -150 -6 c-82 -3
-153 -4 -156 -3 -3 2 -9 95 -13 206 -7 223 -1 269 47 332 47 61 129 82 202 52z
m460 -12 c83 -14 193 -32 245 -40 52 -8 102 -16 110 -19 8 -2 116 -20 240 -40
124 -19 488 -78 810 -130 322 -52 603 -98 625 -101 41 -7 261 -113 235 -113
-8 -1 -554 93 -1215 209 -660 115 -1215 212 -1233 216 -33 5 -33 6 -16 25 21
24 19 24 199 -7z m3191 -66 c-32 -34 -43 -40 -48 -28 -15 34 -8 48 30 58 60
16 62 14 18 -30z m-82 -10 c4 -24 11 -83 16 -133 6 -49 13 -106 16 -126 5 -36
5 -37 -42 -53 -26 -9 -49 -16 -50 -16 -6 0 -23 77 -34 150 -7 41 -18 85 -26
98 -20 30 -64 29 -94 -3 -27 -29 -30 -75 -17 -215 l9 -85 -66 -22 c-36 -12
-68 -18 -71 -14 -2 5 -9 41 -15 82 -21 141 -45 177 -92 140 -22 -18 -23 -27
-26 -149 -3 -117 -5 -131 -22 -135 -20 -5 -22 3 -35 123 -3 30 -8 72 -11 93
l-6 37 274 135 c150 74 276 135 280 135 4 0 9 -19 12 -42z m-2922 -38 c535
-94 2167 -380 2173 -380 3 0 5 -12 5 -26 0 -25 -2 -26 -32 -20 -32 7 -2471
450 -2535 461 -33 6 -48 35 -19 35 8 0 192 -31 408 -70z m-1154 49 c-3 -9
-1246 -515 -1668 -680 l-25 -10 25 24 c16 16 251 115 655 277 347 139 711 286
810 326 184 75 210 83 203 63z m4303 -18 c36 -36 36 -45 3 -59 -31 -15 -61
-79 -72 -153 l-7 -54 -45 0 -45 0 -8 82 c-8 71 -6 87 11 127 22 48 70 86 110
86 13 0 37 -13 53 -29z m-3051 -116 c250 -46 820 -149 1265 -230 446 -81 813
-150 817 -154 8 -7 52 -550 45 -557 -2 -2 -15 0 -29 5 -24 9 -25 12 -36 183
-14 205 -23 244 -69 298 -65 75 -156 100 -241 65 -53 -23 -81 -52 -113 -120
-27 -57 -29 -67 -29 -192 0 -73 -4 -133 -8 -133 -5 0 -15 6 -24 13 -12 9 -17
42 -21 162 -6 156 -26 245 -65 288 -25 29 -112 67 -153 67 -44 0 -116 -24
-142 -48 -48 -43 -61 -90 -65 -240 -4 -126 -6 -143 -21 -140 -14 3 -17 27 -21
188 -5 173 -7 187 -29 224 -35 55 -103 96 -162 96 -60 0 -87 -10 -133 -51 -63
-55 -70 -78 -73 -229 -2 -83 -7 -135 -13 -134 -5 1 -14 2 -19 3 -5 0 -12 79
-15 174 -7 156 -10 177 -33 225 -61 129 -213 151 -291 43 -44 -60 -56 -125
-49 -253 6 -100 5 -108 -12 -108 -15 0 -19 11 -24 68 -4 37 -7 106 -7 153 0
101 -27 204 -62 236 -87 79 -197 66 -258 -31 -34 -57 -41 -94 -40 -224 1 -97
-2 -123 -12 -120 -10 3 -15 49 -20 168 -9 181 -21 230 -70 277 -25 24 -37 28
-87 28 -47 0 -65 -5 -98 -28 -62 -43 -83 -100 -85 -234 l-1 -108 -7 115 c-4
63 -8 168 -9 234 l-1 119 33 -7 c17 -4 237 -44 487 -91z m-1252 74 c-2 -6 -69
-37 -148 -69 -80 -31 -470 -186 -868 -344 -397 -158 -728 -285 -735 -283 -6 3
11 15 38 27 128 54 1692 678 1703 679 8 1 12 -4 10 -10z m2735 -26 c4 -39 -6
-63 -28 -63 -18 0 -29 54 -15 79 17 33 37 25 43 -16z m727 18 c0 -10 3 -39 6
-65 6 -44 6 -46 -19 -46 -24 0 -25 4 -29 56 -2 42 1 58 12 65 23 13 30 11 30
-10z m-341 -88 c18 -117 15 -135 -18 -114 -17 11 -31 149 -18 183 12 33 24 11
36 -69z m832 -48 c10 -55 19 -111 21 -124 2 -20 -3 -26 -41 -39 -55 -18 -60
-12 -63 88 -5 152 4 184 46 178 18 -3 23 -16 37 -103z m402 88 c8 -10 18 -48
22 -85 7 -67 7 -68 -16 -68 -13 0 -41 -3 -61 -6 -38 -7 -38 -6 -38 27 1 42 23
104 46 130 21 23 27 24 47 2z m-4362 -6 c-1 -4 -1 -40 -1 -79 -1 -59 -3 -70
-13 -58 -25 32 -62 50 -104 50 -35 0 -50 -6 -82 -36 -22 -19 -50 -56 -62 -81
-19 -40 -22 -59 -20 -174 1 -75 -2 -129 -7 -129 -13 0 -22 36 -22 91 0 179
-131 268 -227 155 -48 -57 -58 -93 -63 -230 -4 -94 -9 -131 -18 -134 -10 -3
-13 15 -11 79 2 92 -9 130 -49 172 -54 56 -144 24 -193 -70 -23 -43 -28 -69
-34 -167 -4 -64 -11 -118 -15 -121 -4 -2 -9 41 -12 98 -7 144 -32 187 -111
187 -48 0 -96 -36 -126 -95 -23 -43 -26 -64 -29 -172 -2 -68 -7 -123 -12 -123
-4 0 -10 42 -12 93 -8 170 -84 252 -168 181 -57 -48 -74 -96 -77 -219 -4 -123
-9 -155 -23 -155 -6 0 -10 32 -10 73 0 220 -120 294 -206 127 -12 -23 -22 -79
-30 -165 l-12 -130 2 179 1 179 640 252 c352 139 741 293 865 343 217 87 242
95 241 79z m-955 -74 c96 -32 174 -60 174 -64 0 -3 -36 -20 -81 -37 l-80 -32
-302 -10 c-166 -5 -330 -12 -365 -14 -69 -4 -85 5 -49 29 17 11 494 178 525
184 2 1 82 -25 178 -56z m3949 0 c6 -29 4 -33 -14 -33 -27 0 -33 13 -25 56 5
29 9 33 19 22 7 -7 16 -28 20 -45z m-2001 16 c25 -20 66 -87 66 -109 0 -6 -48
-10 -135 -10 l-135 0 15 37 c20 47 38 67 78 87 44 21 79 20 111 -5z m386 -57
c26 -19 72 -101 63 -114 -2 -5 -65 -8 -139 -8 -101 0 -134 3 -134 13 1 26 47
92 80 115 40 27 87 25 130 -6z m2284 -24 c19 -112 28 -161 32 -172 5 -12 -41
-36 -67 -36 -10 0 -12 200 -3 224 10 27 33 18 38 -16z m-3721 -6 c11 -9 27
-33 36 -53 l18 -36 -116 -6 c-63 -4 -117 -4 -119 -2 -10 9 50 86 81 106 35 21
70 18 100 -9z m1842 -52 c32 -20 81 -95 68 -103 -5 -3 -70 -8 -147 -12 l-138
-8 7 24 c36 115 120 154 210 99z m2615 -16 c0 -20 -5 -34 -12 -34 -7 -1 -58
-5 -113 -9 -64 -6 -104 -5 -112 1 -16 13 -17 45 -1 54 13 8 219 32 231 26 4
-2 7 -19 7 -38z m-6260 -81 c0 -66 -2 -74 -17 -71 -15 3 -19 16 -21 67 -4 74
1 93 23 85 12 -5 15 -23 15 -81z m2924 -39 c4 -69 4 -129 1 -132 -5 -5 -231
34 -262 46 -9 3 -13 34 -13 108 l0 104 134 0 133 0 7 -126z m3066 91 c0 -28
29 -17 -350 -129 -196 -57 -255 -67 -223 -35 10 10 534 186 561 188 6 1 12
-10 12 -24z m-676 9 c25 -4 46 -11 46 -15 0 -14 -162 -9 -195 6 -29 13 -28 13
36 14 36 1 87 -2 113 -5z m-4519 -24 c-156 -66 -539 -220 -548 -220 -7 0 -25
-12 -42 -26 l-30 -26 -3 64 c-1 34 1 95 5 133 l8 70 170 5 c287 9 461 9 440 0z
m676 -19 c17 -17 29 -40 29 -55 0 -24 -3 -26 -47 -26 -27 0 -72 -3 -102 -7
l-53 -6 17 34 c25 47 72 89 102 89 14 0 37 -13 54 -29z m389 -61 l0 -70 -29 0
c-52 0 -94 -13 -98 -30 -5 -17 -99 -54 -115 -44 -4 3 -8 50 -8 104 l0 99 53 4
c28 2 85 4 125 5 l72 2 0 -70z m1462 -71 c2 -78 1 -142 -2 -144 -3 -2 -71 11
-152 28 l-148 31 0 113 0 113 149 0 150 0 3 -141z m729 131 c40 -11 123 -92
116 -113 -4 -13 -276 -33 -303 -23 -10 4 -11 12 -3 34 13 39 58 81 105 97 48
17 42 17 85 5z m1328 -115 c12 -122 59 -525 68 -579 6 -36 4 -39 -13 -31 -10
4 -48 16 -84 25 l-65 16 -26 325 c-14 178 -24 329 -22 336 5 12 111 23 125 13
4 -3 12 -50 17 -105z m891 93 c1 -13 16 -151 34 -308 l33 -285 -34 -57 c-34
-55 -37 -83 -9 -72 8 3 17 0 21 -6 5 -8 64 -571 65 -622 0 -11 -198 -10 -204
0 -3 5 -12 87 -21 183 -8 96 -18 188 -20 204 -19 111 -113 961 -107 967 7 6
65 11 190 16 48 2 52 0 52 -20z m-270 -10 c0 -12 119 -1120 138 -1280 l7 -66
-34 -6 c-44 -7 -48 -3 -27 29 15 23 16 36 7 98 -20 131 -91 751 -91 788 0 90
-70 236 -124 260 -36 17 -79 -11 -106 -67 -37 -75 -35 -148 8 -439 22 -143 38
-262 36 -264 -2 -2 -19 7 -38 18 -41 25 -35 3 -72 296 -32 258 -52 327 -104
355 -28 15 -55 -2 -80 -50 -24 -46 -26 -109 -8 -288 6 -67 8 -125 4 -129 -3
-4 -14 1 -23 10 -14 14 -23 73 -45 294 -16 152 -25 280 -21 284 8 8 539 167
561 168 6 1 12 -5 12 -11z m-2268 -175 c3 -82 3 -150 2 -152 -4 -5 -281 51
-293 59 -5 3 -10 53 -13 112 l-5 106 91 6 c50 4 107 8 126 9 19 2 47 5 61 5
l26 2 5 -147z m808 107 c45 -23 67 -51 76 -98 l7 -32 -168 0 -167 0 6 33 c19
100 144 149 246 97z m-3386 -22 c13 -13 27 -32 30 -44 6 -19 0 -21 -81 -30
-49 -6 -90 -9 -93 -7 -17 14 74 103 106 103 7 0 24 -10 38 -22z m366 -57 l0
-69 -85 -31 c-133 -48 -131 -48 -139 -10 -3 17 -6 62 -6 100 0 79 -7 75 143
78 l87 1 0 -69z m1075 4 c0 -39 -1 -40 -38 -43 -22 -2 -60 4 -87 14 -47 17
-48 17 -82 -4 -41 -25 -92 -28 -128 -7 -14 8 -30 17 -37 20 -6 4 -30 -6 -54
-21 -53 -33 -104 -35 -169 -4 l-49 23 -36 -31 c-44 -39 -76 -48 -115 -32 -26
11 -30 18 -30 51 0 22 1 40 3 40 4 3 763 36 792 35 28 -1 30 -3 30 -41z m2413
20 c62 -26 102 -74 123 -147 l8 -28 -185 0 c-207 0 -201 -3 -165 75 23 50 58
83 108 100 50 18 66 18 111 0z m-829 -192 c1 -89 -1 -103 -15 -103 -16 0 -306
59 -310 63 -1 1 -3 52 -5 112 l-4 110 160 5 160 5 7 -45 c3 -25 7 -91 7 -147z
m-1398 146 c176 -37 2486 -514 2549 -526 l45 -9 3 -62 c2 -34 0 -62 -3 -62 -3
0 -74 16 -158 35 -83 18 -683 149 -1332 290 -649 140 -1196 259 -1215 263 -34
7 -35 10 -37 55 -1 26 -1 47 1 47 2 0 68 -14 147 -31z m-1931 -9 c18 -9 49
-85 39 -94 -2 -2 -46 -7 -97 -11 l-94 -7 22 41 c20 40 70 81 98 81 7 0 22 -5
32 -10z m878 -85 c-5 -5 -1780 -625 -1790 -625 -5 0 -8 16 -6 37 l3 36 125 44
c69 24 181 63 250 87 69 24 240 85 380 135 140 50 431 153 645 230 l390 138 3
-39 c2 -22 2 -41 0 -43z m-530 3 l-3 -73 -90 -32 c-49 -17 -96 -32 -102 -32
-10 -1 -13 24 -13 93 l0 95 58 6 c31 3 64 8 72 9 8 2 30 4 48 5 l33 1 -3 -72z
m1267 57 c22 -8 61 -14 88 -15 l47 0 0 -68 0 -69 -157 -6 c-87 -4 -274 -7
-415 -7 l-258 0 0 60 c0 64 1 66 32 49 30 -16 84 -2 123 32 l34 30 40 -20 c53
-28 122 -27 171 0 37 21 40 21 79 5 55 -21 99 -20 141 3 19 11 35 20 35 20 0
1 18 -6 40 -14z m3433 -32 c34 -50 34 -53 7 -63 -37 -14 -65 -81 -64 -155 0
-33 11 -168 23 -300 13 -132 21 -242 19 -244 -2 -3 -11 3 -20 12 -13 13 -26
76 -50 255 -43 312 -48 378 -34 428 24 89 81 121 119 67z m-1267 -2 c13 -12
22 -281 10 -281 -18 0 -342 70 -352 76 -9 5 -13 207 -4 216 8 7 339 -3 346
-11z m-4053 -79 c35 -64 27 -72 -69 -72 -70 0 -80 2 -75 16 3 9 6 20 6 24 0 5
14 25 31 45 44 49 75 45 107 -13z m2142 32 c74 -17 2515 -546 2603 -564 54
-11 57 -13 57 -41 0 -16 -5 -29 -12 -29 -7 0 -254 54 -548 120 -294 66 -906
203 -1360 303 -774 172 -825 185 -828 205 -4 26 2 27 88 6z m-985 -35 c0 -9
-284 -112 -899 -326 -495 -172 -902 -311 -904 -308 -18 18 76 55 614 243 335
117 735 257 889 311 154 55 285 98 290 97 6 -1 10 -9 10 -17z m-1745 -64 c0
-60 -3 -75 -15 -75 -12 0 -15 15 -15 75 0 60 3 75 15 75 12 0 15 -15 15 -75z
m90 -11 c0 -59 -3 -74 -15 -74 -12 0 -15 14 -15 64 0 35 3 71 6 80 13 34 24 2
24 -70z m813 79 c2 -5 1 -35 -2 -68 l-6 -60 -92 -32 -92 -32 -3 86 c-2 47 -1
89 2 93 9 14 186 25 193 13z m4722 -23 c20 -40 20 -44 -16 -80 l-31 -31 6 -92
c4 -50 9 -130 13 -176 5 -80 5 -83 -14 -73 -16 9 -21 34 -36 195 -17 169 -17
188 -2 223 30 72 55 83 80 34z m-471 -18 c3 -15 8 -83 11 -150 7 -117 6 -124
-12 -118 -10 2 -100 22 -200 42 l-183 38 0 101 c0 56 3 105 6 108 4 4 89 6
190 6 l183 -1 5 -26z m811 6 c3 -13 25 -198 50 -413 24 -214 47 -409 50 -432
l6 -43 -38 0 c-43 0 -55 -6 -71 -35 -9 -16 -11 5 -12 98 0 65 -4 126 -9 135
-13 25 -64 580 -57 629 3 23 11 52 18 63 18 28 56 26 63 -2z m-1930 -305
l1340 -297 175 -169 c96 -93 177 -173 178 -178 6 -16 -282 -10 -709 15 -228
14 -471 28 -541 32 l-127 7 0 75 c0 41 -4 79 -8 83 -4 3 -34 10 -65 14 -56 6
-58 6 -68 -20 -5 -14 -10 -53 -10 -86 l0 -60 -37 7 c-21 4 -41 11 -44 17 -4 5
-10 40 -13 78 -8 74 -13 81 -75 93 -65 12 -81 -34 -31 -91 17 -18 30 -45 30
-59 0 -23 -3 -25 -41 -22 -37 3 -42 7 -53 38 -23 66 -108 185 -195 270 -238
236 -590 389 -1046 457 -167 24 -543 24 -710 0 -620 -92 -1101 -367 -1274
-731 l-31 -63 -172 -6 c-95 -4 -260 -7 -366 -7 l-193 0 3 136 3 137 125 42
c69 24 469 163 890 309 421 146 768 266 772 266 3 0 8 -7 10 -15 3 -14 53 -16
432 -15 269 0 435 4 447 11 10 5 19 17 19 26 0 11 6 14 23 9 12 -3 625 -140
1362 -303z m-3734 257 c10 -14 22 -40 25 -57 l7 -33 -71 0 c-39 0 -74 4 -77
10 -13 21 57 113 84 108 7 -2 22 -14 32 -28z m314 -33 c4 -13 5 -43 3 -67 l-3
-44 -92 -33 -93 -33 0 95 0 94 78 4 c42 1 83 4 89 5 7 1 15 -8 18 -21z m5045
-6 c0 -15 50 -385 56 -415 l6 -28 -32 18 c-17 11 -36 24 -42 31 -11 14 -48
320 -41 343 11 35 27 60 40 60 7 0 13 -4 13 -9z m-2907 -60 c481 -86 842 -267
1042 -523 56 -71 114 -173 104 -182 -8 -8 -49 5 -49 16 0 16 -76 123 -131 182
-153 167 -434 316 -699 370 -302 61 -645 41 -916 -55 -260 -92 -489 -255 -611
-435 l-41 -60 -348 -27 c-192 -15 -357 -27 -367 -27 -15 0 -15 6 9 53 152 302
542 551 1037 661 201 45 317 55 597 52 205 -3 278 -8 373 -25z m-2470 -21 l58
0 -3 -62 -3 -63 -75 -27 c-41 -15 -78 -27 -82 -27 -10 -1 -10 173 -1 183 4 4
17 5 28 2 11 -3 46 -6 78 -6z m-1242 -147 c40 -45 49 -109 49 -338 l0 -205
-35 0 -36 0 3 213 c2 199 1 215 -19 259 -22 49 -70 88 -108 88 -17 0 -18 2 -5
11 8 5 39 8 69 6 45 -3 59 -9 82 -34z m3654 25 c2 -7 6 -102 8 -210 l5 -198
-239 0 -239 0 0 88 c0 137 -23 191 -74 178 -34 -8 -56 -72 -63 -178 -6 -84 -7
-88 -29 -88 -24 0 -24 1 -24 118 0 64 3 134 6 154 6 37 7 37 103 67 157 50
317 76 479 80 42 1 64 -3 67 -11z m167 -3 c37 -4 80 -10 95 -14 24 -7 18 -10
-44 -20 l-73 -13 -2 -181 -3 -182 -43 1 c-23 0 -45 4 -49 7 -3 4 -8 99 -11
213 l-5 205 34 -5 c19 -3 64 -8 101 -11z m-3419 -45 c18 -20 27 -47 32 -90 9
-77 -4 -410 -16 -410 -5 0 -9 67 -9 150 0 157 -10 231 -41 292 -22 43 -45 58
-91 58 -31 1 -32 1 -14 15 11 8 41 15 67 15 40 0 51 -5 72 -30z m-514 -5 c57
-29 65 -67 62 -299 -1 -115 -4 -213 -7 -218 -3 -4 -61 -8 -130 -8 l-125 0 6
188 c8 228 17 281 55 322 22 24 36 30 70 30 22 0 54 -7 69 -15z m4219 -10 c29
-9 52 -17 52 -19 0 -2 -7 -17 -16 -35 -13 -27 -16 -59 -12 -177 3 -128 1 -144
-13 -144 -20 0 -29 55 -29 184 0 138 -26 204 -65 165 -19 -19 -35 -131 -35
-246 l0 -93 -47 0 c-27 0 -66 3 -87 7 l-39 6 7 166 c4 91 11 170 15 174 5 5
53 13 108 17 54 4 101 8 104 9 3 0 29 -6 57 -14z m-3381 -19 c23 -20 28 -34
33 -91 4 -53 2 -71 -10 -83 -13 -14 -16 -9 -22 47 -4 35 -14 74 -22 87 -16 23
-75 42 -95 29 -6 -3 -11 -2 -11 3 0 13 40 31 72 31 15 1 39 -10 55 -23z m-393
-21 c33 -50 46 -134 46 -296 l0 -157 -111 -7 c-60 -4 -112 -5 -115 -3 -2 3 0
93 5 201 7 164 12 202 28 229 35 61 117 79 147 33z m6331 -171 c149 -102 158
-109 128 -112 -27 -3 -61 17 -223 129 -157 110 -190 137 -190 157 0 23 2 22
63 -21 34 -24 134 -93 222 -153z m-2387 143 c6 -8 6 -36 0 -77 -5 -36 -7 -104
-4 -152 6 -88 6 -88 -18 -88 -26 0 -24 -15 -40 281 l-3 67 28 -10 c15 -5 32
-15 37 -21z m-217 -140 c4 -84 5 -155 3 -159 -2 -3 -14 -4 -25 -1 -21 6 -21
10 -17 152 4 136 11 181 26 166 4 -3 10 -75 13 -158z m-3394 145 c20 -13 33
-60 33 -120 l0 -57 -61 -50 c-92 -75 -89 -70 -89 -137 0 -38 -4 -58 -11 -56
-6 2 -11 8 -11 13 0 15 19 346 21 368 2 12 65 47 86 47 11 0 25 -4 32 -8z
m2309 -38 c-3 -26 -6 -91 -6 -145 l0 -99 -40 0 -40 0 0 53 c0 30 3 88 6 129 6
72 8 76 38 91 46 23 49 21 42 -29z m1222 -130 c4 -148 4 -156 -14 -152 -17 3
-19 16 -22 143 -3 153 2 195 21 176 7 -7 13 -68 15 -167z m143 80 c4 -32 9
-101 13 -152 l6 -93 -28 3 c-27 3 -27 4 -30 83 -7 178 24 304 39 159z m-1473
-189 c-9 -9 -318 -16 -318 -8 0 18 151 142 235 194 l80 50 3 -117 c1 -64 1
-118 0 -119z m279 223 c4 -7 8 -61 8 -120 l0 -108 -41 0 -41 0 4 53 c12 149
41 220 70 175z m3420 -112 l178 -123 3 -43 c2 -28 -2 -48 -13 -60 -8 -9 -19
-37 -24 -61 l-8 -44 -158 157 -159 157 -4 70 c-2 39 -2 71 1 71 3 0 86 -56
184 -124z m-2159 97 c17 -16 21 -34 25 -140 l5 -123 -23 0 c-28 0 -31 13 -41
168 -6 117 -3 127 34 95z m-3538 -38 c0 -24 -9 -45 -31 -70 -32 -36 -242 -215
-253 -215 -3 0 -6 17 -6 38 0 37 5 43 143 160 78 66 143 121 145 122 1 0 2
-16 2 -35z m3632 -123 c3 -104 -1 -119 -27 -108 -12 4 -15 29 -15 121 0 111 1
115 19 103 17 -10 20 -26 23 -116z m173 -57 c25 -28 45 -55 45 -59 0 -12 -166
-6 -178 6 -8 8 -12 45 -12 101 l0 89 50 -42 c28 -23 70 -66 95 -95z m-3797
-77 l-3 -133 -147 -3 -148 -3 0 35 c0 32 8 41 103 115 56 44 120 95 142 114
31 27 42 32 48 21 4 -7 6 -73 5 -146z m5990 -66 c3 -154 4 -152 -54 -136 -19
5 -21 9 -12 46 4 22 18 58 29 80 25 49 20 66 -23 70 -30 3 -33 6 -36 40 -3 35
-1 37 30 41 66 8 63 15 66 -141z m-1845 111 c3 -5 13 -55 22 -113 17 -105 52
-193 81 -204 10 -4 14 -23 14 -62 0 -56 0 -56 -22 -42 -43 27 -75 113 -91 240
-12 99 -18 123 -41 153 l-27 35 30 0 c16 0 32 -3 34 -7z m255 -55 c-3 -30 -6
-33 -40 -36 -37 -3 -38 -3 -38 32 0 35 1 36 41 36 39 0 40 -1 37 -32z m1532
-33 c0 -3 -9 -23 -20 -45 -11 -21 -25 -71 -31 -112 -27 -172 -78 -207 -329
-223 -58 -3 -193 -13 -300 -22 -111 -9 -330 -16 -510 -17 l-315 -1 -3 74 -3
74 62 -7 c132 -13 502 -18 674 -8 99 6 250 22 335 36 85 14 186 31 224 37 97
16 133 50 147 139 6 35 16 68 22 72 14 9 47 11 47 3z m-1539 -224 c-1 -102 -4
-188 -7 -193 -3 -4 -25 -8 -50 -8 -52 0 -49 -19 -32 223 l11 168 40 -3 40 -3
-2 -184z m-2908 172 c-7 -2 -19 -2 -25 0 -7 3 -2 5 12 5 14 0 19 -2 13 -5z
m2598 -32 c33 -6 34 -9 37 -58 3 -49 2 -50 -23 -46 -16 4 -27 14 -31 30 -13
48 -145 76 -159 33 -3 -11 -11 -20 -16 -20 -13 0 -12 4 12 45 l22 36 62 -6
c35 -4 78 -10 96 -14z m192 -23 c-2 -5 -3 -29 -3 -54 0 -52 -11 -51 -40 6 -27
54 -26 62 13 58 17 -2 31 -6 30 -10z m1882 2 c3 -5 -10 -27 -30 -48 -41 -46
-57 -81 -97 -217 -36 -118 -66 -182 -107 -222 -28 -29 -35 -31 -133 -36 -125
-8 -1210 -1 -1381 8 -125 7 -284 29 -325 46 -33 13 -51 66 -62 178 -11 112
-31 172 -67 201 -44 35 -12 61 53 44 18 -5 22 -15 27 -77 6 -77 28 -150 53
-178 25 -27 205 -97 285 -111 48 -8 193 -12 409 -12 339 -1 625 18 901 59 196
29 349 123 349 215 0 32 24 105 46 137 15 24 67 32 79 13z m-1125 -35 c245
-14 503 -26 573 -26 70 -1 126 -3 124 -5 -6 -6 -150 -32 -312 -56 -136 -20
-189 -22 -562 -23 -300 0 -415 3 -424 12 -8 8 -9 31 -4 73 l7 62 77 -6 c42 -4
276 -18 521 -31z m-1365 -33 c49 -34 68 -81 55 -138 -16 -65 -11 -186 9 -266
45 -174 127 -271 346 -403 45 -28 15 -29 -57 -1 -164 61 -223 127 -313 347
-30 74 -65 103 -112 95 l-28 -6 28 12 c30 13 38 54 12 65 -13 5 -12 8 5 20 33
24 22 56 -22 67 -21 5 -38 13 -38 18 0 10 3 10 36 -2 33 -13 54 2 54 37 0 18
-9 28 -35 39 -19 8 -35 20 -35 27 0 31 32 117 43 117 7 -1 30 -13 52 -28z
m3069 -8 c22 -9 20 -31 -4 -39 -13 -4 -45 -55 -90 -140 -116 -218 -178 -270
-390 -319 -154 -36 -270 -45 -725 -56 -383 -10 -994 -1 -1110 16 -81 12 -295
78 -284 88 2 2 38 -3 79 -11 60 -12 216 -16 798 -20 744 -5 991 2 1167 33 286
50 439 167 465 357 12 82 42 111 94 91z m-734 -24 c0 -20 -50 -77 -85 -97 -59
-33 -67 -29 -40 20 14 23 25 49 25 58 0 8 4 19 10 25 11 11 90 6 90 -6z m472
-87 c-3 -73 -1 -83 17 -92 11 -6 29 -11 40 -11 12 0 21 -4 21 -10 0 -19 -77
-87 -124 -110 l-48 -23 -54 26 c-61 30 -231 183 -233 209 -1 10 6 36 15 58
l16 40 177 -2 176 -3 -3 -82z m-2346 59 c5 -4 16 -23 24 -42 8 -19 37 -56 64
-82 59 -56 54 -71 -18 -57 -68 13 -91 30 -110 85 -24 70 -22 104 7 104 12 0
27 -4 33 -8z m1820 -101 c-28 -30 -149 -81 -233 -96 -43 -8 -202 -26 -353 -40
-401 -37 -1000 -34 -1068 4 -11 6 106 10 338 9 310 0 547 9 700 27 25 3 117
10 205 15 169 9 329 42 390 80 39 24 42 24 21 1z m230 -110 c65 -62 82 -83 64
-78 -14 3 -64 9 -113 12 -48 4 -89 10 -92 14 -6 11 36 142 45 139 4 -2 47 -41
96 -87z m-2342 -50 c30 -33 175 -127 240 -156 110 -49 257 -94 343 -107 64 -9
274 -13 778 -13 596 0 710 3 840 18 344 40 475 101 576 266 l41 66 -6 -41
c-12 -86 -106 -348 -145 -404 -36 -53 -41 -56 -115 -77 -110 -32 -396 -88
-566 -112 -287 -40 -730 -52 -1110 -31 -244 14 -241 13 -263 80 -29 91 -76
177 -116 213 -36 32 -156 86 -228 101 -32 7 -33 6 -33 -24 0 -17 5 -74 11
-126 6 -53 8 -98 5 -101 -10 -10 -140 81 -197 139 -92 91 -139 217 -139 373
l0 59 31 -50 c17 -27 41 -60 53 -73z m-257 33 c-3 -3 -12 -4 -19 -1 -8 3 -5 6
6 6 11 1 17 -2 13 -5z m2575 -85 c126 -13 143 -18 103 -30 -43 -13 -214 -39
-258 -39 l-37 0 26 40 c30 45 25 44 166 29z m-1958 -211 c71 -26 140 -86 170
-147 29 -56 100 -279 120 -377 31 -147 109 -313 189 -400 62 -68 150 -126 252
-165 44 -17 82 -33 85 -36 3 -3 -20 -3 -50 1 -71 9 -128 36 -273 129 -129 83
-148 90 -251 85 -80 -3 -94 9 -36 34 48 20 59 42 39 77 -14 24 -20 26 -87 26
-91 0 -94 17 -5 28 37 5 71 14 75 20 12 19 9 72 -5 92 -13 16 -19 17 -80 5
-71 -13 -121 -7 -114 13 2 7 35 14 84 18 44 3 85 9 92 13 6 4 11 31 11 61 0
66 -19 90 -64 81 -17 -4 -64 -9 -103 -13 -57 -5 -73 -3 -77 8 -2 8 -14 100
-26 204 -12 105 -24 207 -27 228 -7 45 1 46 81 15z m-221 -240 c43 -20 81 -39
84 -42 4 -3 -14 -6 -38 -6 -85 0 -454 -41 -506 -55 -71 -21 -113 -57 -113
-100 0 -47 29 -77 113 -118 85 -42 106 -61 90 -85 -26 -43 -204 -69 -558 -82
-148 -5 -322 -12 -385 -15 -67 -3 -110 -2 -105 4 6 4 133 30 284 56 400 68
476 91 469 138 -5 36 -62 58 -256 97 -180 36 -252 59 -252 81 0 27 203 85 400
113 192 28 564 57 655 51 22 -1 75 -18 118 -37z m2712 -294 c4 -36 5 -67 3
-69 -13 -13 -499 -110 -698 -139 -140 -21 -411 -46 -422 -40 -13 8 -9 100 5
111 6 6 44 13 82 17 101 9 619 100 830 145 99 21 183 39 186 40 4 0 10 -29 14
-65z m-2129 36 c19 -19 143 -59 239 -75 71 -13 160 -18 307 -19 l208 -1 0 -22
c0 -21 -4 -23 -62 -23 -266 1 -650 72 -703 130 -18 20 -8 29 11 10z m942 -13
c6 -5 12 -18 12 -31 0 -45 -98 -63 -138 -26 -30 28 -27 61 7 72 18 5 102 -5
119 -15z m1275 -31 c32 -24 34 -33 7 -40 -11 -3 -29 -9 -40 -12 -18 -5 -20 -1
-20 41 0 49 0 49 53 11z m-2048 -72 c108 -25 292 -49 474 -60 l113 -7 -7 -51
c-3 -28 -9 -54 -13 -58 -9 -9 -259 7 -344 22 -138 24 -269 84 -334 152 -35 37
-37 40 -14 33 14 -4 70 -18 125 -31z m-19 -116 c116 -61 245 -89 487 -103 96
-6 107 -9 107 -26 0 -14 -7 -19 -27 -19 -35 0 -63 -27 -63 -61 0 -23 -7 -31
-42 -47 -24 -11 -65 -38 -91 -62 l-48 -42 -74 27 c-140 51 -244 128 -312 233
-32 50 -103 203 -103 223 0 6 22 -12 48 -38 27 -27 80 -65 118 -85z m742 115
c26 2 55 8 65 12 27 11 21 -20 -9 -44 -51 -40 -164 -20 -164 29 0 17 3 18 31
8 17 -6 51 -8 77 -5z m82 -105 c0 -64 -10 -87 -41 -103 -36 -19 -70 -19 -114
-1 -35 15 -35 16 -35 77 0 59 1 61 23 55 55 -16 85 -17 117 -3 50 22 50 22 50
-25z m-147 -143 c46 -14 100 -11 123 6 31 24 34 -59 3 -87 -28 -25 -114 -26
-152 -1 -22 14 -27 25 -27 57 0 22 1 40 3 40 1 0 24 -7 50 -15z m-80 -80 c14
-15 46 -30 89 -41 64 -17 68 -17 107 1 22 10 48 26 57 36 23 25 64 25 64 0 0
-10 -9 -30 -20 -44 -63 -80 -262 -72 -334 13 -27 33 -31 42 -19 53 13 13 34 7
56 -18z m-53 -70 c10 -13 9 -15 -11 -15 -81 0 -191 -137 -254 -314 -26 -71
-96 -137 -174 -161 -16 -5 -3 13 43 58 54 53 75 84 113 163 69 147 107 201
177 245 64 42 87 47 106 24z m45 -75 c0 -22 -5 -25 -44 -28 -53 -4 -98 6 -85
18 22 21 71 40 99 38 25 -3 30 -7 30 -28z m237 -97 c1 -62 2 -134 3 -160 l0
-47 -60 -12 c-33 -7 -79 -15 -102 -19 l-43 -6 0 178 0 179 100 0 100 -1 2
-112z m-232 -113 c0 -77 -1 -140 -2 -140 -2 0 -79 -11 -173 -25 -225 -33 -215
-34 -166 21 23 27 51 75 67 117 15 40 38 91 53 114 28 46 34 48 159 51 l62 2
0 -140z m1166 -132 c79 -56 140 -105 136 -109 -9 -8 -318 -92 -437 -118 -354
-78 -865 -137 -1520 -176 -548 -33 -816 -30 -1054 11 -91 15 -328 72 -348 82
-6 4 153 7 355 8 386 0 504 9 839 64 68 12 295 45 505 75 393 55 1062 180
1259 235 57 15 108 29 113 29 4 1 73 -45 152 -101z"/>
<path d="M7550 6251 l-35 -6 2 -69 c1 -38 4 -84 8 -103 l6 -34 77 3 77 3 -4
90 c-2 50 -7 98 -13 108 -9 18 -48 21 -118 8z m95 -33 c2 -7 6 -43 8 -80 l5
-68 -53 0 -52 0 -7 53 c-10 89 -9 95 22 100 54 8 73 7 77 -5z"/>
<path d="M6592 5242 c-31 -47 -31 -48 -18 -110 7 -34 16 -65 20 -69 4 -5 25
10 46 33 l38 41 -10 58 c-9 60 -23 95 -37 95 -5 0 -23 -21 -39 -48z m51 -55
c5 -30 1 -43 -17 -64 l-23 -26 -6 48 c-5 36 -3 55 9 73 19 29 29 20 37 -31z"/>
<path d="M6456 5111 c-25 -26 -28 -34 -22 -73 4 -24 13 -56 20 -73 l12 -29 44
40 43 41 -19 59 c-11 34 -25 60 -34 62 -9 1 -28 -11 -44 -27z m48 -33 c10 -38
7 -65 -9 -78 -20 -16 -24 -11 -32 34 -8 53 28 92 41 44z"/>
<path d="M6337 4971 l-36 -39 14 -57 c7 -31 15 -59 19 -62 7 -8 76 45 83 65 8
20 -19 125 -33 129 -6 2 -27 -14 -47 -36z m38 -97 c-27 -20 -32 -18 -38 19 -3
24 1 38 17 55 l21 24 9 -42 c8 -37 7 -45 -9 -56z"/>
<path d="M6638 4942 c-33 -30 -33 -30 -28 -100 3 -39 9 -74 13 -78 11 -12 78
27 89 52 6 13 7 46 2 85 -11 76 -26 84 -76 41z m48 -57 c5 -36 3 -50 -11 -65
-26 -29 -32 -25 -40 26 -5 36 -3 50 11 65 25 28 32 24 40 -26z"/>
<path d="M6521 4856 c-33 -34 -33 -35 -25 -93 10 -65 25 -76 68 -47 20 13 26
24 25 53 0 55 -13 114 -24 118 -6 2 -26 -12 -44 -31z m39 -67 c0 -20 -6 -42
-14 -48 -11 -9 -16 -3 -24 31 -9 36 -8 45 5 60 21 23 33 8 33 -43z"/>
<path d="M6213 4854 c-22 -22 -24 -30 -18 -72 13 -95 18 -99 64 -49 33 35 37
52 20 110 -12 44 -30 47 -66 11z m41 -30 c11 -28 6 -51 -14 -69 -20 -18 -20
-17 -20 27 0 43 5 58 21 58 4 0 10 -7 13 -16z"/>
<path d="M6396 4760 c-21 -16 -41 -32 -44 -35 -3 -3 1 -36 8 -75 15 -78 23
-83 78 -50 26 16 32 26 32 52 -1 45 -16 118 -26 128 -5 5 -26 -4 -48 -20z m38
-42 c12 -46 6 -83 -14 -96 -23 -14 -24 -13 -34 47 -4 24 -1 40 10 53 22 24 30
23 38 -4z"/>
<path d="M5672 4710 c2 -38 8 -74 14 -80 6 -6 31 -12 55 -13 l44 -2 -3 45 c-1
25 -4 55 -7 67 -6 25 -52 53 -86 53 -20 0 -21 -4 -17 -70z m64 22 c14 -9 27
-92 15 -92 -31 0 -41 14 -41 56 0 44 5 50 26 36z"/>
<path d="M4116 3398 c-10 -14 -16 -44 -16 -80 l0 -58 40 0 c29 0 42 5 50 19
11 22 3 109 -13 129 -15 19 -44 14 -61 -10z m44 -48 c0 -22 1 -43 3 -47 1 -5
-9 -9 -21 -11 -22 -3 -23 -1 -17 30 11 55 16 68 26 68 5 0 9 -18 9 -40z"/>
<path d="M3982 3398 c-6 -7 -11 -35 -12 -63 -3 -90 -5 -86 43 -83 l42 3 3 57
c2 47 -1 61 -18 78 -23 23 -43 26 -58 8z m46 -76 c2 -32 0 -42 -12 -42 -17 0
-23 23 -18 63 6 41 27 27 30 -21z"/>
<path d="M4258 3398 c-20 -16 -31 -111 -15 -127 15 -15 60 -14 75 1 16 16 16
110 0 126 -15 15 -40 15 -60 0z m42 -63 c0 -38 -3 -45 -20 -45 -21 0 -24 9
-14 59 10 49 34 39 34 -14z"/>
<path d="M4598 3448 c-2 -35 1 -66 7 -71 5 -4 26 -6 45 -5 l35 3 0 65 0 65
-42 3 -41 3 -4 -63z m60 -6 c2 -31 0 -42 -11 -42 -15 0 -27 29 -27 68 0 17 5
23 18 20 12 -2 18 -15 20 -46z"/>
<path d="M8188 6041 c-31 -20 -60 -39 -63 -42 -3 -4 1 -48 10 -100 8 -52 15
-111 15 -131 0 -21 4 -38 10 -38 17 0 125 42 136 54 8 8 8 40 -1 119 -18 147
-24 177 -38 176 -7 0 -38 -17 -69 -38z m76 -142 l6 -97 -41 -16 c-23 -9 -43
-16 -44 -14 -1 2 -7 38 -14 82 -6 43 -14 89 -17 102 -5 19 2 28 43 53 48 30
48 30 54 8 3 -12 9 -65 13 -118z"/>
<path d="M7923 5903 c-52 -28 -63 -39 -63 -60 0 -38 31 -217 39 -226 4 -4 40
7 79 24 l72 32 0 40 c0 23 -7 83 -17 134 -19 108 -18 107 -110 56z m85 -80
c19 -126 19 -127 -35 -151 -26 -11 -49 -19 -51 -17 -6 6 -32 148 -32 176 0 20
9 30 43 46 23 12 47 22 53 22 6 1 16 -34 22 -76z"/>
<path d="M7651 5764 l-54 -24 7 -73 c11 -117 18 -164 26 -177 6 -9 19 -9 62 4
80 23 81 26 68 148 -18 168 -16 165 -109 122z m77 -114 c12 -106 8 -115 -44
-126 l-31 -6 -13 95 c-7 52 -9 100 -5 106 9 15 68 40 77 32 3 -3 11 -49 16
-101z"/>
<path d="M8275 5454 c-33 -14 -68 -28 -77 -31 -20 -6 -21 -10 -18 -68 2 -56
36 -314 42 -320 5 -5 75 16 136 40 42 17 43 19 38 54 -4 20 -13 101 -21 181
-16 153 -20 170 -32 170 -4 0 -35 -12 -68 -26z m68 -111 c4 -54 10 -128 13
-165 l7 -68 -35 -14 c-19 -8 -46 -18 -60 -21 -25 -6 -26 -5 -33 62 -4 37 -15
110 -25 161 -16 86 -16 94 -1 99 9 4 36 14 61 24 25 10 50 18 56 18 7 1 13
-36 17 -96z"/>
<path d="M7717 5213 l-49 -27 7 -71 c11 -131 28 -246 36 -251 10 -6 127 25
133 35 4 7 -21 284 -29 319 -7 30 -38 28 -98 -5z m83 -146 c7 -70 10 -134 7
-141 -5 -14 -64 -32 -73 -24 -4 5 -34 220 -34 250 0 19 70 62 82 50 3 -4 11
-65 18 -135z"/>
<path d="M146 4803 c-3 -10 -6 -65 -7 -123 l-3 -104 58 -24 c32 -12 60 -21 62
-19 5 5 34 202 34 232 0 21 -8 26 -52 40 -67 19 -85 19 -92 -2z m84 -24 l32
-12 -6 -66 c-14 -138 -17 -144 -71 -119 -28 12 -28 16 -19 131 7 83 9 85 64
66z"/>
<path d="M326 4772 c-3 -5 -10 -59 -17 -120 -9 -85 -9 -115 0 -126 16 -19 101
-40 114 -27 10 10 40 219 33 236 -2 6 -24 17 -47 24 -24 7 -51 14 -61 17 -9 3
-19 1 -22 -4z m97 -52 c5 -4 3 -51 -3 -104 l-13 -97 -31 7 c-17 3 -35 9 -40
11 -8 5 1 190 10 205 5 7 63 -10 77 -22z"/>
<path d="M576 4681 c-4 -5 -9 -56 -13 -114 l-6 -105 41 -13 c22 -6 47 -9 55
-6 9 3 17 36 25 100 7 53 12 101 12 107 0 24 -102 51 -114 31z m62 -28 c23 -6
24 -8 17 -77 -8 -93 -13 -106 -35 -106 -28 0 -33 16 -31 99 3 96 3 97 49 84z"/>
<path d="M706 4595 c-3 -30 -9 -80 -12 -110 l-6 -55 36 -15 c75 -32 79 -27 92
126 l6 76 -41 16 c-64 26 -68 24 -75 -38z m68 12 c16 -12 18 -23 11 -95 -6
-67 -10 -82 -24 -82 -39 1 -43 14 -36 104 8 89 14 98 49 73z"/>
<path d="M8128 4601 c-37 -9 -71 -20 -74 -24 -4 -4 -2 -31 4 -59 6 -29 14 -74
17 -100 3 -27 8 -69 11 -94 l6 -47 57 6 c32 4 70 11 85 16 24 10 26 15 25 68
-2 95 -32 248 -49 250 -8 1 -45 -6 -82 -16z m81 -88 c24 -154 24 -171 4 -181
-10 -5 -35 -12 -55 -16 -34 -6 -38 -4 -42 16 -4 19 -19 130 -29 202 -1 15 8
23 38 32 71 22 72 21 84 -53z"/>
<path d="M994 4557 c-2 -7 -3 -58 -2 -112 l3 -99 38 -15 c22 -8 41 -10 47 -5
4 5 12 55 15 111 l7 102 -37 15 c-46 19 -64 20 -71 3z m57 -27 c15 -9 19 -22
19 -68 0 -31 -3 -67 -6 -79 -7 -24 -38 -31 -49 -12 -7 11 4 169 12 169 2 0 13
-5 24 -10z"/>
<path d="M1116 4518 c-3 -13 -6 -64 -6 -114 l0 -92 39 -10 c27 -6 43 -6 50 1
6 6 11 52 11 109 l0 98 -36 15 c-47 20 -51 19 -58 -7z m68 -57 c-2 -128 -3
-133 -26 -129 -16 2 -23 10 -22 26 0 12 1 51 2 87 2 62 3 64 25 56 16 -6 22
-16 21 -40z"/>
<path d="M1357 4464 c-4 -4 -7 -54 -7 -111 0 -111 0 -112 56 -116 l29 -2 5 91
c6 113 5 121 -25 128 -13 3 -29 8 -37 11 -8 3 -17 2 -21 -1z m61 -108 c3 -80
-1 -98 -23 -90 -12 5 -15 23 -15 86 0 70 2 79 18 76 14 -3 18 -16 20 -72z"/>
<path d="M1466 4422 c-3 -5 -6 -50 -7 -101 -2 -101 4 -113 51 -109 24 3 25 7
33 98 8 84 7 95 -9 107 -20 15 -60 17 -68 5z m54 -89 c0 -71 -12 -105 -29 -88
-16 16 -2 155 15 155 11 0 14 -17 14 -67z"/>
<path d="M1752 4347 c-11 -14 -22 -161 -13 -175 11 -16 53 -34 61 -25 14 15
20 181 7 191 -22 17 -46 21 -55 9z m38 -91 c0 -58 -11 -88 -27 -72 -9 8 8 136
18 136 5 0 9 -29 9 -64z"/>
<path d="M96 4264 c-3 -26 -6 -93 -6 -149 0 -98 1 -103 23 -108 56 -14 115
-18 120 -9 4 5 9 70 13 144 l7 136 -56 16 c-87 25 -93 23 -101 -30z m81 4 l46
-11 -5 -114 c-3 -62 -8 -116 -10 -119 -3 -2 -24 -2 -47 2 l-41 7 0 123 c0 68
3 124 6 124 3 0 26 -5 51 -12z"/>
<path d="M272 4263 c-5 -10 -12 -75 -16 -144 -7 -144 -13 -134 83 -145 l59 -6
7 43 c3 24 5 87 3 139 l-3 95 -35 11 c-76 24 -89 25 -98 7z m109 -148 c-1 -61
-4 -112 -7 -114 -2 -2 -23 0 -46 5 l-43 9 4 110 c2 61 5 113 7 117 3 4 23 1
46 -5 l42 -13 -3 -109z"/>
<path d="M512 4198 c4 -8 2 -64 -3 -124 -10 -129 -8 -132 74 -141 43 -4 58 -2
61 8 2 8 7 65 10 127 l6 113 -28 10 c-15 6 -49 13 -76 16 -41 5 -48 4 -44 -9z
m112 -38 c4 -4 5 -51 1 -104 -8 -104 -10 -106 -71 -90 -21 5 -22 10 -17 87 7
126 8 130 46 122 18 -4 36 -11 41 -15z"/>
<path d="M686 4171 c-4 -6 -10 -64 -13 -130 l-6 -120 28 -7 c16 -4 45 -7 64
-8 l36 -1 8 109 c5 59 6 114 3 122 -3 7 -23 18 -46 24 -23 6 -47 13 -55 16 -7
3 -16 1 -19 -5z m73 -38 c23 -6 23 -8 19 -99 -2 -51 -6 -96 -9 -99 -3 -3 -20
-2 -37 1 l-32 7 0 98 c0 107 0 108 59 92z"/>
<path d="M956 4059 c-3 -34 -6 -88 -6 -119 0 -64 7 -70 81 -70 36 0 36 1 43
46 3 26 6 77 6 114 l0 68 -44 11 c-72 18 -72 17 -80 -50z m80 21 c11 0 14 -19
14 -88 0 -49 -2 -91 -5 -94 -3 -2 -18 -3 -35 0 l-30 4 0 87 c0 91 4 105 28 96
7 -3 20 -5 28 -5z"/>
<path d="M1096 4063 c-3 -21 -6 -75 -6 -120 0 -92 8 -103 74 -103 l35 0 3 111
c2 61 0 115 -3 120 -5 9 -64 29 -85 29 -6 0 -14 -17 -18 -37z m80 -15 c3 -5 3
-47 -1 -93 -7 -81 -9 -85 -31 -85 -24 0 -24 2 -24 93 0 52 3 96 6 99 7 8 43
-2 50 -14z"/>
<path d="M8258 4090 c-14 -4 -54 -11 -88 -15 -57 -7 -61 -9 -56 -29 3 -11 9
-74 12 -138 4 -64 10 -122 14 -128 8 -14 164 -2 184 14 12 9 12 30 0 146 -8
76 -20 140 -27 146 -7 7 -22 9 -39 4z m26 -82 c4 -29 7 -84 9 -123 l2 -70 -64
-5 c-38 -3 -65 -1 -66 5 -2 5 -6 58 -9 117 l-6 107 53 9 c28 5 57 10 64 11 7
1 14 -20 17 -51z"/>
<path d="M1337 4043 c-3 -4 -7 -55 -9 -112 l-3 -105 39 -9 c51 -13 56 -4 56
115 0 105 5 96 -62 114 -9 3 -18 1 -21 -3z m57 -115 c-3 -46 -8 -85 -10 -87
-2 -2 -10 -1 -19 2 -11 5 -15 20 -15 55 0 78 10 112 32 112 18 0 19 -5 12 -82z"/>
<path d="M1447 4023 c-3 -5 -8 -54 -12 -110 l-7 -101 38 -11 c55 -15 64 1 64
110 0 57 -4 90 -12 96 -18 14 -66 25 -71 16z m57 -117 c-4 -44 -8 -82 -9 -84
-1 -1 -10 0 -19 4 -12 5 -16 19 -16 59 0 84 9 113 31 108 18 -5 19 -12 13 -87z"/>
<path d="M109 3702 c-13 -34 -11 -179 2 -188 6 -4 51 -9 100 -12 l89 -5 0 102
c0 118 2 115 -113 123 -65 4 -69 3 -78 -20z m159 -17 c8 -3 12 -28 12 -80 l0
-76 -72 3 -73 3 -3 83 -3 83 63 -6 c35 -4 69 -8 76 -10z"/>
<path d="M105 3398 c-3 -18 -5 -67 -3 -108 l3 -75 83 -9 c45 -4 89 -5 97 -2
20 7 22 188 3 204 -7 5 -50 13 -95 17 l-82 7 -6 -34z m128 -4 l37 -7 0 -79 0
-80 -67 7 c-38 4 -69 8 -69 9 -1 0 -4 36 -6 79 l-3 77 35 0 c19 0 52 -3 73 -6z"/>
<path d="M3439 3110 c-61 -11 -89 -26 -89 -49 0 -24 10 -27 111 -41 46 -6 97
-17 113 -24 29 -12 30 -13 11 -23 -23 -12 -193 -47 -305 -62 -201 -28 -671
-61 -862 -61 -125 0 -139 -5 -117 -46 11 -21 10 -27 -2 -39 -32 -31 -200 -52
-674 -85 -353 -25 -461 -36 -1058 -106 -439 -51 -574 -70 -564 -80 5 -5 334
27 712 71 450 51 568 62 953 90 579 41 683 63 668 137 l-5 28 85 0 c94 0 489
24 674 41 198 18 473 66 523 91 21 11 22 41 3 57 -8 7 -52 19 -98 28 -146 26
-136 23 -113 36 14 8 114 12 335 13 212 1 282 -1 215 -6 -120 -9 -206 -26
-231 -45 -18 -14 -18 -16 8 -39 15 -13 75 -43 134 -66 143 -56 154 -61 154
-75 0 -14 -38 -32 -97 -46 -21 -5 -191 -16 -378 -24 -611 -26 -765 -49 -765
-113 0 -7 29 -44 65 -81 36 -37 65 -73 65 -79 0 -15 -28 -29 -86 -42 -27 -6
-209 -15 -404 -20 -195 -5 -476 -18 -625 -29 -148 -11 -407 -27 -575 -36 -429
-22 -619 -41 -1005 -100 -210 -33 -215 -34 -215 -52 0 -11 7 -14 23 -10 33 9
405 64 542 81 206 26 319 35 705 56 206 11 461 27 565 35 168 13 419 25 855
39 74 2 152 10 172 17 44 14 78 43 78 66 0 9 -29 45 -65 80 -36 35 -65 68 -65
74 0 43 228 68 795 89 269 9 343 19 408 52 32 16 38 24 35 46 -3 28 4 24 -212
114 -149 63 -111 70 388 77 291 4 410 9 413 17 10 30 -166 42 -697 48 -250 2
-476 1 -501 -4z"/>
<path d="M5630 1580 c-30 -4 -143 -28 -250 -54 -276 -65 -365 -114 -346 -190
10 -39 82 -68 317 -127 214 -53 249 -64 249 -78 0 -5 -45 -23 -99 -40 -98 -31
-161 -69 -161 -97 0 -23 42 -43 141 -68 150 -38 298 -56 531 -66 241 -9 338
-5 338 16 0 8 -10 16 -22 18 -13 3 -60 12 -105 21 -82 15 -224 65 -301 104
-53 27 -94 77 -90 110 2 21 13 29 53 44 67 25 77 34 64 59 -16 30 -60 44 -253
83 -206 41 -228 48 -220 70 6 14 137 82 287 149 36 15 57 31 55 38 -5 15 -106
20 -188 8z m80 -37 c-168 -77 -242 -116 -256 -138 -36 -55 -5 -70 241 -120 97
-19 189 -42 204 -49 l26 -14 -28 -11 c-16 -6 -32 -11 -36 -11 -5 0 -20 -9 -35
-21 -68 -54 -5 -152 137 -212 45 -19 107 -42 137 -52 74 -24 84 -35 24 -30
-27 2 -116 7 -199 10 -234 8 -488 56 -524 99 -16 19 -2 26 119 61 52 15 101
31 108 37 20 17 14 56 -12 73 -13 9 -126 43 -250 76 -312 82 -334 93 -286 144
36 38 110 64 339 116 119 27 221 51 226 53 6 3 30 4 55 5 l45 0 -35 -16z"/>
<path d="M3255 1423 c-520 -65 -805 -126 -1160 -246 -344 -117 -483 -198 -501
-292 -14 -75 22 -162 93 -226 34 -31 49 -37 128 -48 96 -14 277 -50 283 -56 7
-7 -99 -56 -181 -84 -130 -45 -178 -58 -236 -65 -30 -4 -133 -22 -230 -41 -97
-18 -243 -45 -326 -60 -223 -39 -461 -91 -630 -136 -168 -46 -475 -146 -490
-160 -22 -22 56 -6 183 37 293 98 625 177 1060 253 613 107 784 151 860 221
61 55 50 61 -173 98 -200 33 -200 33 -239 70 -49 47 -76 104 -76 164 0 41 5
54 35 87 60 66 254 153 545 244 197 62 308 91 485 126 159 31 506 84 512 77 2
-2 -103 -38 -234 -81 -545 -176 -773 -302 -799 -441 -9 -49 27 -117 85 -160
113 -83 263 -125 689 -194 293 -48 452 -77 460 -85 12 -11 -152 -78 -318 -130
-74 -23 -145 -69 -172 -112 -41 -67 -21 -183 33 -183 20 0 20 0 0 28 -51 70
-18 148 87 205 27 15 111 46 186 71 75 24 155 56 176 71 40 28 59 61 43 75 -4
4 -181 36 -391 70 -422 68 -546 95 -657 141 -208 86 -250 193 -122 305 110 97
324 190 762 333 154 50 286 95 294 100 7 5 10 14 7 20 -7 11 -14 11 -71 4z"/>
<path d="M8292 124 c-95 -24 -250 -61 -345 -83 l-172 -39 75 -1 c57 -1 127 11
290 50 118 27 248 57 288 66 57 13 72 20 72 35 0 24 -6 23 -208 -28z"/>
</g>
</svg>
