<?xml version="1.0" encoding="utf-8"?>
<!-- Generator: Adobe Illustrator 25.4.0, SVG Export Plug-In . SVG Version: 6.00 Build 0)  -->
<svg version="1.1" baseProfile="tiny" id="图层_1"
	 xmlns="http://www.w3.org/2000/svg" xmlns:xlink="http://www.w3.org/1999/xlink" x="0px" y="0px" viewBox="0 0 768.7 1024.7"
	 overflow="visible" xml:space="preserve">
<g>
	<path fill="#8F830C" d="M366.1,1024.1c-120.6,0-241.1,0-361.7,0.1c-3.4,0-4.4-0.5-4.4-4.3C0.2,949,0.2,878,0.1,807.1
		c3-0.2,6.1,0,8.1-2.9c1.2-1.8-0.7-6.3,4.5-4.8c0.8,0.2,0.8-2.7-0.2-3.9c-1.7-2.1-3.5-4-5.3-5.9c-1.1-1.2-1.9-2.4-0.3-3.8
		c0.8-0.9,2.2-0.9,3-0.1c0.2,0.2,0.3,0.3,0.4,0.5c4.4,5.8,11.5,9.1,14.6,16.2c1.6,3.6,4.7,5.6,9,3.2c1.6-1,3.6-1.1,5.3-0.5
		c5.2,2,6.2-1.3,6.7-5c0.6-5.4-0.8-10.6-3-15.5c-1.5-3.2-2-6.3-0.8-9.7c1.1-2.9,2.2-2.9,3.9-0.5c3.5,5,5.2,10.7,7,16.4
		c0.7,2.1,0.7,4.6,3.1,5.3c2.7,0.8,3-2,4-3.5c0.9-1.3,2-2.2,3.7-1.9c1.7,0.3,2.8,1.2,2.8,3c0.1,2.6,0.2,5.3,3.5,5.7s6.7,0,9.5-2.2
		c1.8-1.4,1.6-2.9-0.6-3.7s-5.8-1.5-4.5-4.6s4.6-1.5,7.2-0.8c0.8,0.2,1.6,0.6,2.4,0.8c2.8,0.6,6.2,3.5,7.4-2
		c0.1-0.6,0.7-0.7,1.2-0.4c7.3,4,6.6-2.4,7.7-6.1c1.1-3.8,1.1-8.1,4.2-11.4c0,6.6-0.1,12.9,0,19.2c0,4.6,1.1,5.2,5.1,2.8
		c1,1.4,0.3,4.2,2.6,4.4s3.1-2.1,4-3.8c1.6-3.5,3.7-6.7,6.3-9.5c2.7-2.8,5.6-5.3,9.9-5c2.5,0.1,4.1,0.6,1.8,3.4
		c-3.9,4.7-0.1,11-3.1,15.9c-0.1,0.2,0.2,0.6,0.4,0.9c2.1,2.7,5.1,2,7.9,1.9c2.6-0.1,5.3-0.6,6.2-3.3c0.8-2.5-1.8-3.6-3.1-5.2
		c-0.1-0.2,0-0.6,0-1.7h8.2c2.5,0,4.9-0.6,5.7-3.1c1.1-3.2,3-2.3,5.2-1.7c1.5,0.4,3.2,1.7,4.7,0.2s-0.1-3.1-0.6-4.5
		c-0.3-0.6-0.5-1.2-0.7-1.8c-0.6-2.8,0.2-5.8,2.2-7.9c1-1.2,2.8-1.4,4.1-0.4c2.6,1.7,3,4.3,2.7,7c-0.5,4.3-1.4,8.5-1.9,12.8
		c-0.2,1.8-1.2,4.1,0.8,5.6c1.9,1.5,2.7-2.2,4.6-1.5c0.8,1.8,0.4,4.5,3,4.8c2.6,0.2,2.9-2.3,3.9-4c1.3-2.3,2.5-4.8,4-6.9
		c2.7-4.1,7.1-6.6,12-7c-2.2,3.9-3.2,7.3-0.3,10.9c0.4,0.6,0,1.9-0.2,2.9c-0.3,1.7-1.9,3.5,0,5c1.9,1.6,3.6,0.2,5.1-0.6
		c4.7-2.1,9.2-3.2,14.4-1c3.8,1.6,6.4-0.4,6.8-4.7c1.9,0.3,2.8,3.2,4.8,2.1c2.2-1.2,1-3.6,0.9-5.5c-0.4-3.9,0.7-7.8,3.1-10.9
		c0.9-1.1,1.6-3,3.4-2.4c1.2,0.4,1.3,2.2,1.5,3.5c0.9,5.4-0.4,10.6-1.1,15.9c-1.1,7.6,1.1,9.3,8.6,7.3c5.1-1.4,8.7-5,13.3-8.8
		c-0.2,5.5,2.2,10.8-0.8,14.8c-7.4,9.6-15.5,18.7-23.3,28c-1.3,1.6-2.2,2-3.8,0.2c-6.1-6.6-4.8-19.3,2.5-24.3
		c4.7-3.2,4.9-6.8,0.3-10.3c-3.2-2.5-6.8-3.4-10.8-1.9c-6.9,2.6-9.9,8-10.8,14.9c-0.9,7.6,1.1,14.5,4.9,21
		c2.9,5.1,5.6,10.2,6.2,16.2c0.8,8.3-0.7,10-8.8,10.9c-2.5,0.3-3.4-0.5-3.3-2.9c0.2-3.5-1.9-5.9-4.3-8c-3.2-2.9-7-4.3-11-5.6
		c-7-2.3-10.6-7.1-10.7-14.5c0-3.7,0-7.3,0.2-11c0.1-3.3-0.6-6-4-7.2c-3.6-1.3-7.2-0.8-9.4,2.5c-1.8,2.8-4,3.5-7,3.7
		c-3.9,0.2-7.4,2-10.9,3.4c-2.6,1.1-5.3,1.9-8.2,1.1c-1.9-0.5-2.6-1.1-2.7-3.3c-0.3-7.3-4.9-11.5-13.9-12.8
		c-7.5-1.1-13.7,2.3-16,8.9c-0.4,1.2-1.4,2.6-0.2,3.7c1.6,1.5,2.8-0.1,3.9-1c3.4-2.7,6.4-3.4,9,1.2c0.9,1.7,2.6,1.4,4.4,1.2
		s4.6,0.7,2.8,3.3c-2.9,4.2-1.5,8,0.1,11.8c2.6,6.1,5.5,12.1,6.9,18.7c0.8,3.5,3.2,6.4,6.4,7.8c6,2.9,6.6,4.7,3.8,10.9
		c-0.9,2.1-2.1,4.2-3.6,6c-9.9,12-10.9,25.7-8,40.2c1.4,7.1,4.2,8,10.1,3.9c1.6,3.1,3.1,6.3,6,8.5c1.3,1,2.7,2.3,4.5,1.3
		c1.6-0.9,1.3-2.6,1.2-4c-0.3-5.2-2-10.1-3-15.2c-0.2-1.2-1-2.9,0.8-3.4c1.6-0.5,2.8,0.8,3.6,2.1s0.6,2.9,0.5,4.4
		c-0.1,1.3-0.5,3.2,1.3,3.1c1.6,0,1.6-1.9,1.7-3.2c0.3-5.4,0-10.8-1-16.1c3.6,2.7,4.9,5.8,6,9.2c0.9,3,1.8,6.1,3,9
		c1.1,2.5,2.7,4.7,5.8,4.8c8.8,0.1,17.6,1,26.3-0.3c7.3-1.1,12.1-4.9,11.7-10.7c-0.8-10.6-2.5-21.2-6.7-31c-1-2.2-2.1-4.2-0.4-6.5
		c1.6-2.3,4.1-2.6,6.7-2.3c12.8,1.2,20-6.1,18.5-18.7c-0.2-1.5-0.4-3-0.8-4.4c-0.5-2.2-0.6-4.9,1.1-6s4.1,0.5,5.8,1.7
		c1.6,1.2,2.9,2.7,4,4.4c1.7,2.4,3.1,5.1,4.9,7.6c2,2.8,3.8,6.8,7.8,2.2c0.7-0.7,1-0.4,1.6,0c2.8,2.2,3.9-0.1,4.8-2.1
		c1.7-3.6,2.2-7.8,1.2-11.7c-0.9-3.6-2.4-7-4.6-10c-1.1-1.6-1.4-3.3,0-4.5c1.8-1.6,3.1,0.5,4,1.6c1.5,1.8,3.1,3.2,2.7,6.4
		s1.4,6.8,2.2,10.1c0.2,0.9,0.7,1.6,1.7,1.5c1.3-0.2,1.4-1.2,1.1-2.3c-0.3-1.3-0.7-2.8,1.3-3c1.6-0.2,3.1,0.3,3.4,2.2
		c0.6,4.2,3.4,4.3,6.7,3.9c2-0.3,4-0.6,5.9-0.7c2.7-0.1,3.9,1,2.1,3.6s-3.6,4.8-5.3,7.2c-2.6,3.7-2,6.2,2.3,7.6
		c5.4,1.8,11.3,1.8,16.7-0.1c3.6-1.3,5.7-3.7,5.3-8c-0.3-3.1-0.1-6.2-0.1-9.7c4.6,1.2,6.7,4.2,8.2,7.8c0.9,2.4,2.3,4.8,5.2,4.7
		c3.3,0,5.5-2.1,7-5c1-2,0.7-4.2,0.8-6.4c0.1-2.6-1.4-5.1-0.6-8.3c3.4,2.4,3.4,5.8,3.6,9c0.1,2,0.3,4.9,2.8,4.3
		c5.7-1.5,10,3.3,15.2,2c0.3,2.5-3.1,3-1.2,5.4c1.2,1.8,3.2,2.7,5.3,2.5c11.8-0.4,23.7-0.5,35.5-1c3.3-0.1,5,0.7,6.1,4
		c5.1,15.2,11.9,29.6,19.4,43.7c0.7,1.2,1.9,2.3,1.5,4.2c-2.4,0.3-4.9,0.7-7.4,1c-19.6,2.5-36.1,11-49.8,25.2
		c-8.2,8.5-12.2,18.3-11.5,30.3c0.7,13.5,4,26.7,9.7,39C364,1018.9,365.8,1021.2,366.1,1024.1z M24.1,994.2c0.1,1.2,0.1,1.8,0.1,2.5
		c0.5,5.9,1.9,6.6,7,4c2-1,4.9-2.3,5.8,1.6c0.2,1,0.3,2,1.7,1.9s1.1-1.4,1.2-2.3c0.3-6.3-4.7-13.2-10.9-14.9
		c-1.4-0.4-2.7-0.6-2.7-2.3c0-2.8-1.4-4.5-4.3-4.3s-5.2,1.6-5.4,4.8c-0.2,2.2-1,3.3-3.1,3.8c-7.4,1.7-9,8.2-10.1,14.1
		c-1.1,5.4,2,10,6.2,13.4c1.2,1,2.7,2.3,4.5,1.2c1.6-1,1-2.7,1-4.1c0.1-2-1.3-4.6,2.1-5.2s4-3.1,3.9-6c0.1-3.7-0.5-7.3-1.6-10.8
		c-0.8-2.1-0.2-3.9-0.1-5.9c0-1.3,1-2.4,2.3-2.4c1.7-0.3,1.5,1.2,1.9,2.2C25,988.5,24.5,991.6,24.1,994.2z M27,867.1
		c4.3,2.5,5,5.8,5.8,8.9c0.3,1.1,0.3,2.7,1.7,2.8c1.9,0.1,1.6-1.7,2-2.9c0.3-0.8,0.4-1.6,0.6-2.4s0.5-2.2,1.7-2
		c0.9,0.3,1.7,1,2.1,1.9c0.3,0.9,0.4,1.9,0.2,2.9c-0.1,2.5,1.2,3.2,2.9,1.6c4.1-3.8,6.4-8.8,9.3-13.4c0.2-0.4-0.1-1.2-0.4-1.8
		c-4.6-11.3-21.5-15.3-30.9-7.3c-0.9,0.7-1.6,1.7-1.9,2.8c-1.8,7.8-1.3,15.2,3.5,21.8c0.8,1.1,1.9,2.2,3.3,1.7s1.5-2.1,1.4-3.4
		C28,874.9,27.5,871.4,27,867.1L27,867.1z"/>
	<path fill="#789128" d="M768.1,402.1v36c-10-5.2-20.1-10.3-31.6-11.4c-3.5-0.3-5.1-1.8-6.3-5c-6.2-16.1-11.8-32.5-20.8-47.4
		c-8.8-14.5-17.8-28.9-27.3-43c-4.9-7.4-10.9-13.9-17.8-19.5c-19.5-15.5-43.9-17.9-64.5-6.8c-6.7,3.6-10.6,8.8-11.9,16.2
		c-1.6,9-0.1,17.6,2.7,26c5.3,16,15.8,28.3,28.4,39.1c10.4,8.9,19.4,19,29.6,29.7c-8.6-0.7-11.7,4.4-14.2,10
		c-2.2,5.1-0.8,11.3,2.9,13.5c3.8,2.3,10.1,0.5,13.6-3.9c2.8-3.4,4.4-7.7,4.5-12.1c1,0.9,1.5,1.3,2,1.7c21.5,22.1,39.9,47,54.8,74
		c17.1,31.4,29.7,64.6,42,98c4.4,12,8.4,24.1,14,35.6v352c-0.9-0.9-0.8-2.1-0.9-3.3c-3.8-37.8-7.3-75.6-11.3-113.3
		c-6.4-60.1-14.8-120-27-179.2c-10.2-49.5-20.7-99-34.8-147.6c-10.2-34.9-26.7-65.9-53.1-91.3c-4.3-4.2-8.9-8.1-14.3-10.7
		c-6-2.9-12.2-4.7-18.8-2.6c-3.1,1-4.8,0.1-6.6-2.3c-14.1-17.8-24.5-37.5-30.1-59.6c-2.6-10.2-5-20.5-3.7-31.1
		c3-24.8,11.9-47.3,26-67.9c0.6-0.8,0.8-2.3,2.4-2c8.5,12.4,20,20.1,34,22.5c10,1.7,19.2-0.9,27.5-6.4c2.3-1.5,4.9-3.5,4.5-6.7
		s-3.3-4-5.8-4.8c-5.1-1.7-8-5.2-9.5-10.1c-2.8-9-4.3-18.4-8.9-27.4c7.5,0.6,12.4-2.8,16.2-8c2.4-3.2,1.8-7.5-0.9-9.1
		c-6-3.4-16.7-0.6-19.6,5.6c-1.5,3.1-2.3,3.3-5.1,1.4c-9.7-6.8-19-6.8-26.7,1c-3.9,4-6.6,3.1-10.5,0.8
		c-26.2-15.3-41.2-44.4-35.7-72.8c5-26.6,21.3-44.9,46.1-55.8c12.7-5.5,25.4-10.8,38.2-16.1c1.1-0.4,2.2-1.8,3.8-0.4
		c-2.1,7.3-3.7,14.8-4.7,22.3c-2,17.5-2,35,7.6,50.4c18.9,30.4,46.1,48.3,81.9,52.3c6.8,0.8,13.8,0.8,21.1,1.2c-0.8,1.2-1.4,2-2,2.8
		c-14.3,19.6-26.9,40.1-34.2,63.4c-7.3,23.3-8.6,46.4,4.1,68.7c11.8,20.8,28.6,37.1,46.8,52.1C765,402,766.6,402.4,768.1,402.1z
		 M582.1,183.1c4.9,0.5,9.8-1,13.4-4.3c4.7-4,8.7-8.7,11.9-14c2.3-3.9,3-8.6,1.9-13c-0.8-4-3.2-6.2-7.5-6.6
		c-8-0.7-13.3,4.7-19.4,8.1c-5.5,3-10,7.5-11.5,13.8C568.7,176.1,569.6,184.4,582.1,183.1L582.1,183.1z M689.5,295.9
		c7.4-0.1,13.2-3.9,15.9-10.6c3-7.4-1.2-14.5-8-13.2c-7.2,1.4-12.8,5.5-15.5,12.6C679.6,290.7,683.3,295.9,689.5,295.9z
		 M629.5,204.4c8.3,1,17.2-8.9,16.3-17c-0.5-4.3-3.3-7.3-7.6-7.5c-5.9-0.3-13.7,4.3-16.3,9.6C618.7,196.2,622.8,204.4,629.5,204.4z
		 M596.9,137.4c7.3-0.1,12.1-4.2,12-10.4c0-4.1-2.4-5.7-8.6-5.7c-7.2,0-10,2.8-10,9.9C590.2,136.4,591.3,137.5,596.9,137.4
		L596.9,137.4z"/>
	<path fill="#9FAA0E" d="M0.1,214.1c0-69.9,0-139.9-0.1-209.8C0,0.5,1,0,4.4,0C115,0.1,225.6,0.2,336.1,0.1c-0.1,0.5-0.2,1-0.3,1.5
		c-0.8,18.3-8.4,32.3-25.3,40.4c-2.3,1.1-2.6,2.8-3.1,4.7c-2.6,9.8-6.1,19.4-11.5,28c-3.9,6.1-8.4,11.8-15.5,14.4
		c-18.5,6.7-36.3,5.1-53-5.7c-5.1-3.3-4.9-3.4-7.1,2.1c-9.5,24-26.7,38.6-52.6,41.7c-14,1.7-24.9-5.8-35.4-13.7
		c-8-6.1-15-13.4-22.5-21.9c2.5,6.7,4.7,12.2,6.6,17.9c5.1,14.8,1.7,27.7-9.5,38.3c-3.6,3.4-5.4,7.2-6.7,11.7
		c-4.1,14.7-10,28.5-19.2,40.9c-7.3,9.9-16.8,16.4-29,18.9C34.3,222.8,17.1,219.3,0.1,214.1z M38,174.4c0.1-6.3-2.2-10.6-6.6-12.2
		c-5.5-2-14.3,0.1-17.3,4.4c-3.7,5.2-4.9,11.9-3.3,18.1c1.1,4.8,4.4,7.2,9.3,7.4C31.7,192.5,37.9,186.4,38,174.4z M56.9,29.7
		c0.2-6.2-3.1-9.6-9.3-9.6c-10.3,0-19.4,10.8-17.4,21c0.8,3.8,3,6.5,7.5,6.8C47.6,48.4,56.6,40.1,56.9,29.7z M166.8,101.4
		c-0.2,10.6,4.2,14.2,14.1,11.5c3.7-1,6.1-3.8,8.6-6.5c3.4-3.7,5-8,3.1-12.8c-2.2-5.6-7.4-4.8-12-4.3
		C169.2,90.5,166.9,92.7,166.8,101.4z M291.3,35.6c8.4-0.1,17.3-11.3,15.6-19.7c-1.1-5.3-8.9-9.4-13.3-6.8
		c-6.6,3.9-10.3,9.7-10.9,17.4C282.3,32.3,285.6,35.7,291.3,35.6z M101.1,59.3c7.1,0,13.4-4.6,15.6-11.4c1.3-4.5-1.2-9.7-5.4-10.9
		c-5.6-1.6-14.4,1.5-18,6.2c-2.2,3.1-3.1,7-1.1,9.8S96.3,60.2,101.1,59.3z M70.3,158.8c0-7.5-2.8-10.6-9.4-10.5
		c-6.4,0.1-8.8,2.9-8.7,10.5c0,6.5,2.5,9.3,8.2,9.3C67.4,168.2,70.4,165.4,70.3,158.8z"/>
	<path fill="#EEC270" d="M466.9,0c-0.1,0.5-0.3,1.1-0.4,1.6c1.1,0.6,0.5,2.4,0.5,3.5c0.4,12.8-1.2,25.6-4.7,38
		c-0.7,2.6-1.1,4.2,2.8,4.1c11.8-0.2,23.7-0.1,35.5,0c2.7,0.1,3.7-0.7,3.7-3.6c0.1-14.5,0.5-29,0.8-43.5V0H466.9z"/>
	<path fill="#304C25" d="M464.2,5.2c0-1.1-0.9-3.3,0.7-3.7c0.1-0.5,0.2-1,0.4-1.5H338.2c2.1,17.5-7.1,34.9-23.3,43.5
		c-2.5,1.2-4.3,3.5-4.9,6.2c-2.9,10.8-6.8,21.2-13.6,30.3c-4.4,5.9-9.5,10.8-16.8,12.8c-18.3,4.9-35.9,4.4-52.5-5.8
		c-2.6-1.7-3.4-1.1-4.4,1.6c-4.1,10.6-10.8,20-19.6,27.3c-16.7,13.9-44.8,22.2-68.5,3.4c-3.7-3-7.4-6.1-11.2-9.1
		c-0.9-0.7-1.5-2.3-3.2-1.6c0,0.3-0.1,0.7-0.1,1c0.1,0.9,0.2,1.7,0.4,2.5c3.2,14.6,0.4,27.6-10.8,37.9c-3.5,3.2-5.2,6.9-6.4,11.3
		c-4.4,15.3-10.5,29.8-20.4,42.5c-1.1,1.2-1.7,2.8-1.7,4.5c0.3,6.1-1.3,11.9-2.2,17.8c-2.9,18.8-10.1,34.5-30.4,40.3
		c-0.1,0-0.3,0.1-0.4,0.2c-1.2,0.8-3.3,0.9-3.1,2.7c0.1,1.4,2,1.5,3.2,1.9c5.1,1.5,10.2,2.8,15.3,4.4c16.5,5,28.1,15.3,33.7,32
		c0.1,0.3,0.6,0.6,1.2,1.1c11.9-21.1,26.3-40.6,43-58.2c4-4.2,4.3-10,3.1-15.6c-1.6-7.9-6.1-14-11.8-19.3c-0.9-0.8-2.7-1.3-1.7-3.1
		c0.8-1.5,2.4-0.5,3.6-0.9c0.9-0.3,2.4,0.9,3.6,1.4c7.5,3.3,15.3,5.8,23.5,6.3c13.1,0.7,26.3,1.1,39.4,1.8
		c13.9,0.8,26.1-3.3,37.6-11.1c17.5-11.7,31.9-27.5,41.9-46.1c4.6-8.5,8.2-17.5,9-27.3c0.7-8.5,0.5-17-1.6-25.3
		c-0.3-1.2-2.6-1.7-1.1-3.3c1.3-1.4,2.6-0.1,3.6,0.4c27.6,12.3,56.3,16.5,86.3,13.8c23.4-2.1,42.5-11.7,57-30.1
		C454,66.6,464.6,37.8,464.2,5.2z M91,262.6c-2-0.2-3.9-1-4.4-2.8c-1.5-4.7-0.4-9.1,2.5-13.1s6.8-4.3,11.1-3.6
		c3.9,0.6,2.6,3.9,2.9,6C102.8,259,98.6,263.4,91,262.6z M109.1,226.9c-2.8,3.5-5.8,6.9-8.9,10.1c-3.8,3.9-10.9,5.4-14,3.2
		c-4.2-2.9-5.1-7.6-2.7-13.9c3.2-7.9,10.8-13.2,19.3-13.3c3-0.1,6,0.2,7.4,3.5C111.6,220.2,111.6,223.8,109.1,226.9z M230.7,132.5
		c-3,8-20.1,20.3-28.5,20.3c-7.5,0-10.7-3.4-10-10.7c0.7-8.6,8-16.4,16.2-19c5.2-1.7,10.1-3.6,15.8-2.1S232.7,127,230.7,132.5z
		 M333.5,78c-3.5,5.6-8.2,10-15,9.8c-8.8,0.2-12.9-5.7-10.1-13.7c2.5-7.4,14.7-12.9,22-10C334.8,65.8,336.6,73,333.5,78z
		 M370.2,70.4c-3.6,4.8-7.8,9.1-12.7,12.6c-1.8,1.4-4.1,1.2-6.2,1.3c-5.9,0-9.3-4.8-8-11.5c2.3-9.7,11.7-16,21.6-14.3
		C370.4,59.5,373.4,65.9,370.2,70.4z M393.4,107.3c-2.2,0.7-4.6,0.9-6.9,0.8c-6-0.1-9.8-3.1-10.6-8.3c-0.9-6.1,2.3-11.9,7.6-13.6
		c2.4-0.7,4.9-1.1,7.4-1.1c6.7,0.1,10.8,2.9,11.5,7.9C403.3,99.7,399.6,105.5,393.4,107.3z M427.7,62c-4.9,0-7.7-3.3-7.7-9.3
		c-0.1-7.2,4.4-12.7,10.4-12.7c7.8-0.1,11,2.5,11.1,8.7C441.5,56.1,435.5,61.9,427.7,62z"/>
	<path fill="#CAC427" d="M738.1,1024.1c-3.7-70.6-9.7-140.9-26-209.9c-10.6-44.6-25.9-87.7-41.5-130.8c-12.3-34-27.3-66.8-42.8-99.4
		c-10.1-21.3-20.3-42.7-29.2-64.5c-7.9-19.5-10.2-39.9-4.8-60.7c5.4-20.5,20.1-25.9,37.2-13.1c15.2,11.5,26.6,26.5,36.8,42.5
		c14,21.9,21.7,46.4,28.3,71.2c16.9,63.2,30.2,127.2,41.1,191.8c8.9,52.7,14.7,105.9,20,159.1c3.3,32.5,6.4,65,9.7,97.5
		c0.1,1.2-0.4,2.8,1.2,3.5c0,4.3,1.7,10.4-0.5,12.5c-2.2,2.2-8.2,0.5-12.5,0.5L738.1,1024.1z"/>
	<path fill="#B9B11C" d="M768.1,399.1c-2.8-0.1-4.2-2.6-6-4.1c-12.6-10.4-24-22.1-33.9-35.1c-18.2-23.8-22-49.5-12.5-77.7
		c8.3-24.4,21.3-46.1,36.7-66.6c1.2-1.6,2.4-3.1,4.2-5.6c-9.8,1-18.6,1.3-27.4,0c-38.6-5.6-68.1-24.3-84.3-60.5
		c-7.8-17.4-5.1-36-0.3-53.9c8.9-33.7,26.2-63.1,46.1-91.2c0.9-1.3,2.3-2.4,2.5-4.2h57c-1.4,2-2.8,4.1-4.1,6.2
		c-2.9,4.8-6.5,9.4-6.3,15.4c0.1,5.8,3.5,8.8,9.2,8.4c4.5-0.3,7.6-2.8,10.6-5.9s4.9-7.4,8.7-10.1L768.1,399.1z M713.5,62.8
		c0.2-11-3.7-13.8-11.7-12.2c-8.4,1.6-13.7,7.3-18.9,13c-5.9,6.7-11.5,13.9-11,23.7c0.2,5.2,3.3,9,8.4,9.3c3.6,0.2,7.5,0.2,10.6-1.8
		C703.5,86.5,712.2,75.5,713.5,62.8z M742.4,154c-3.4-0.2-6.7,0.8-9.3,3c-5.9,5.1-11.5,10.6-16,17.1c-3.6,5.3-3,11,1,14.8
		c3.1,3,9.8,3,14.3-0.3c4-3,7.7-6.4,10.9-10.1c3.1-3.7,6.1-7.5,7.4-12.3C752.7,158.8,749.2,153.8,742.4,154z M732.4,300.8
		c6.3,0.9,10.7-3.5,14.8-8.2c4.7-5.4,9.5-10.8,9.5-18.6c0.1-7.2-3.4-10.2-10.5-9.5c-5.3,0.5-8.4,4.6-12.2,7.2
		c-5.8,4-10.5,9.3-12.2,16.4C719.8,296.3,723.4,300.8,732.4,300.8L732.4,300.8z M680.8,149.2c0.9,0,1.9-0.1,2.8-0.2
		c7.6-1.4,21-17.4,21.1-25.3c0.1-4.7-2.9-7.3-7.6-7.9c-12.7-1.6-25.5,14.2-23.8,26.8C673.9,146,675.9,149.4,680.8,149.2z M722.1,115
		c-0.8,3.7,1,7.5,4.4,9.2s7.5,1.2,10.3-1.3c5.1-3.9,8.4-9.7,9.3-16c0.6-3.2-0.8-6.4-3.6-8.1c-2.6-1.8-6-1.7-8.5,0.2
		c-3.4,2.8-7.4,5.1-9.9,8.9C722.5,109.9,721.8,112.5,722.1,115z M763.4,324.6c0.1-5.7-3.3-8.9-9.1-8.5c-7.6,0.5-15.3,13.4-12,20.1
		c1.4,2.9,3.4,5,7.4,4.8C756.7,340.6,763.3,333.1,763.4,324.6L763.4,324.6z"/>
	<path fill="#CAC427" d="M768.1,522.1v103c-1.4-1.1-1.6-2.9-2.2-4.4c-8.3-22.1-16.3-44.3-25.1-66.2c-14.3-36-31.2-70.7-55.5-101.2
		c-20.1-25.2-42.3-48.4-65.9-70.2c-4.5-4-8.7-8.2-12.6-12.8c-10.2-12.5-16.7-26.4-16.7-42.8c0-9.9,4-17.2,13.5-21.2
		c7-2.9,14.1-5,21.7-5.2c22.2-0.4,38.5,10.6,51.1,27.5c12.5,16.7,23.2,34.5,33.5,52.6c3.6,6.4,6.7,13,9.3,19.9
		c13.6,34.5,27.2,69,41,103.4C762.6,510.5,764.5,516.7,768.1,522.1z"/>
	<path fill="#BAB221" d="M730.1,1024.1h-29c-0.1-1.9-1.6-3.3-2.5-4.8c-6.5-11.1-13.3-21.9-19.5-33.1
		c-31.4-56.8-56.8-116.3-77.1-177.9c-10.2-30.8-17-62-11.9-94.7c1.2-7.4,2.4-14.8,5.1-21.8c1-2.6,1.7-6,4.8-6.5s4.5,2.9,6.1,5.2
		c1.2,1.6,2.2,3.3,3,5.2c10,23.9,23.2,46.4,30,71.7c6.5,23.9,18.2,46.1,26.2,69.6C686.5,899.5,708.1,961.8,730.1,1024.1z"/>
	<path fill="#D27728" d="M0.1,483.1c0.6-0.2,1.1-0.5,1.6-0.9C31,448,59.1,412.9,78.3,371.8c4-8.5,8.8-16.9,10.5-26.3
		c0.4-2.5,3-2.4,4-4.3c3.8-7,6.4-14.3,6.1-22.3c-0.1-2.7,0.6-5.3,2-7.5c18.3-33,43.1-62,73-85.1c2.8-2.4,6.4-3.5,10.1-3.1
		c8.4,0.9,16.9,1.2,25.4,0.9C128.1,277,87.3,350.7,87.3,446.9c-4.7-1.6-8.2-4.4-11.5-7.4c-7.8-7-14.4-7.1-22.8-0.7
		c-6.6,5-9.7,12.1-11.8,19.8c-1.4,5-2.3,10.1-4.8,14.6c-1.5,2.7-3.4,4.8-7,4.8c-6.2,0-6.3,0.4-3.2,6c0.2,0.5,0.4,1,0.5,1.5
		c-2.6,0.8-5.1,1.5-7.6,2.3s-5.7,1.7-5.5,4.9c0.1,2.9,3.3,3.5,5.7,4c7.3,1.7,14.3,4.5,20.8,8.1c1.7,1,3.4,2.1,5.5,3.4
		c-20,16.5-31.4,39.1-45.4,59.7L0.1,483.1z"/>
	<path fill="#849B28" d="M0.1,218.1c7.7,1.2,15.2,3.5,23,4.5c5.9,0.8,11.8,0.6,18.4,1c-3.9,5.4-10.4,10.1-3.8,16.5
		c3.6,3.5,13.1,0.6,16.2-4.2c2.4-3.7,0.9-9.9-3.5-13c5.1-1.2,9.9-2.2,14.4-4.2s8.4-5.2,13-8.9c0,7.9-1.4,14.8-2.9,21.6
		c-0.6,2.9-1.8,5.7-2.5,8.6c-2.7,10.5-9.1,17.5-19.2,21.2c-2.5,1-4.9,2.1-7.2,3.3c-2,1.1-4.6,2.3-4.4,4.9c0.2,2.9,3.1,3.7,5.5,4.4
		c5.2,1.6,10.6,2.9,15.8,4.5c14.5,4.5,25.3,13.1,30.8,27.6c4.6,12,3.2,23.3-4,34.6c-3.6-18-14.9-19.4-28-17.7
		c-13.6,1.7-24.6,8.1-34.1,17.4c-10.3,10-18.9,21.4-27.5,32.9C0.1,373.1,0.1,218.1,0.1,218.1z M26.6,309.2
		c9.1-0.2,15.2-5.7,19.8-12.5s-0.4-14.5-8.6-14.4c-7.8,0.1-17.9,8.5-19.3,16.1C17.3,304.7,20.7,309.2,26.6,309.2z"/>
	<path fill="#BAB221" d="M623.1,1024.1h-26c0-8.8-4.8-15-11.5-19.9c-5.9-4.1-10.1-10.4-11.6-17.5c-2.2-9.3-6-18-11.5-25.9
		c-6-8.9-9.7-18.8-12.8-29.1c-5.9-20-6.6-40.7-8.6-61.2c-0.9-8.8,1.7-16.8,8.6-23c4.8-4.3,9.6-4.7,15.1-1.3c5.2,3.3,8.8,8,11.6,13.4
		c7.7,14.8,15.7,29.5,14.9,47c0,0.7,0.2,1.4,0.4,2c4.1,19.8,11.2,38.6,17,57.9C614.3,985.5,620.2,1004.4,623.1,1024.1z"/>
	<g id="live16m1">
		<path fill="#5E772A" d="M735.1,1024.1h-2c-6.3-17.9-12.8-35.7-18.8-53.7c-25-74.6-52.4-148.3-78.5-222.5
			c-6.9-19.6-17.5-37.7-25.8-56.8c-0.6-1.2-1.3-2.3-2.1-3.4c-2.2-2.8-4.4-5.9-8.4-5.3c-3.7,0.5-5.4,3.8-6.5,7
			c-1.5,4.4-2.8,8.9-3.9,13.4c-7.1,28.8-3.8,57.4,3.8,85.4c9.8,36,23.3,70.8,37.8,105.1c19.2,45.2,41.2,89.1,67.3,130.8h-72
			c-0.2-1.2-0.2-2.3-0.5-3.5c-4.7-26.3-13.4-51.4-21.1-76.9c-4.8-15.7-11-31.1-11.3-47.9c-0.1-5.7-1.5-11.2-4-16.3
			c-3.6-7.5-7.2-15-11-22.4c-2.5-4.9-6.1-9.2-10.6-12.4c-7.8-5.5-14.8-4.7-21.4,2.2c-7.2,7.6-8.8,16.9-7.9,26.9
			c0.9,9.8,1.5,19.6,2.9,29.3c3,21.5,7.3,42.7,20,61c4.8,7,8.2,14.9,10,23.2c1.6,6.8,4.5,13,10.4,17.2c7,4.9,11.9,11,13.5,19.5h-79
			c3-14.5,6.5-28.9,9-43.5c3.5-20.8,2.3-41.9,0.6-62.8c-1-11.6-7.9-18.3-19-20.9c-2.6-0.7-5.3-0.2-7.5,1.4
			c-9.3,6.1-16.6,14.6-21.2,24.7c-8.5,18.6-9.5,37.8-5.4,57.6c3,14.5,6.4,28.9,8.5,43.6h-35c9.8-17,16.6-34.7,14.1-54.9
			c-0.9-7,0.2-13.9,2.1-20.7c2.7-9.9-3.3-16-13.3-14c-6.7,1.3-11.1,5.7-14.8,11c-10.4,14.9-13.1,31.7-11.5,49.4
			c0.9,9.7,1.7,19.5,2.5,29.2h-55c-7.1-12.3-11.8-25.8-13.7-39.9c-2.2-15.4,1.9-28.1,13.7-38.6c14.1-12.9,32.3-20.6,51.5-21.5
			c5.3-0.3,5.7-0.8,3.1-5.5c-10.5-18.5-19-38.2-25.1-58.6c-3.9-13.2-6.8-26.5-5-40.3c2.3-18.3,11.6-33.3,24-46.3
			c25.8-27.2,57.5-38,94.6-33.2c4.1,0.5,4.3-0.3,3.2-3.7c-1.5-4.3-2.8-8.7-4.4-13c-7.2-19.3-13.3-39-17.1-59.3
			c-5.2-27.2-3.4-53,12.2-76.8c6.4-9.8,12.8-19.5,20.3-28.5c17.2-20.5,39.3-31.9,65.6-35.4c2.8-0.4,4,0.4,5.3,2.9
			c9.2,18.3,16.8,37.3,25.7,55.8c16.8,35,32.8,70.2,45.8,106.8c17.6,49.2,34.7,98.6,45,150c7.2,36.1,11.9,72.6,15.4,109.3
			C732.4,973.5,734.1,998.8,735.1,1024.1z M564.9,629.6c0.1-12.2-3.1-18-15.1-28.2c-5.4-4.6-11.1-8.3-18.6-8.4
			c-7.9-0.1-13.6,5.6-14,13.6c-0.6,10.8,4,19.5,9.4,28.3c2.4,3.9,5.9,7.1,10,9.2C549.9,651.1,566.7,645.2,564.9,629.6z M468.3,819.1
			c1.5-10.7-4.8-19.7-13.5-27.6c-3.2-3.1-8-3.9-12.1-2.1c-7.9,3.5-12.9,9.6-13.7,18.5c-1.2,12.5,2.1,23.9,10.3,33.3
			c7.7,8.8,20.8,7.1,25.9-1.8C468.4,833.4,468.2,827.2,468.3,819.1z M559.8,839.1c6.9-0.4,13-2.7,17.7-7.9c0.9-1,1.8-2.2,1.3-3.6
			s-2-1.7-3.3-1.5c-4.6,0.6-6.3-2-6.7-6c-0.2-2.2-0.6-4.3-0.9-6.4c-1.5-9.2-6.3-16-15-19.7c-4.7-2-9-0.9-12,3.1
			c-6.2,8.2-7.6,17.3-3.3,26.8C541.8,833.4,549.4,838.4,559.8,839.1z M609.9,629.1c-0.1-7.9-3.1-14.4-8.5-20.1
			c-3.9-4.1-8.5-6.3-13.8-4.3c-7.6,2.8-11.6,9.8-11.5,15.2c0.1,8.5,5.6,13.9,11.1,19.2c5,4.8,9.1,5.5,15.3,2.8
			C608,639.5,610.1,635.8,609.9,629.1L609.9,629.1z M565.8,665.1c-1.7-0.1-3.3-0.1-5,0c-4.3,0.6-7.1,5.4-7.5,12.1
			c-0.4,8.1,1.7,13.1,6.2,14.4c8.7,2.5,15.6-2.5,15.6-11.5c-0.1-2.3-0.3-4.6-0.7-6.9C573.5,665.4,573.3,665.3,565.8,665.1
			L565.8,665.1z"/>
		<path fill="#25411A" d="M562.1,630.6c1.1,6.4-3.5,10.6-9.5,12.9c-6,2.4-11.7-0.4-16.8-3.7c-8.7-5.6-11.3-15.2-15.1-23.9
			c-1.8-4.1-0.3-8.8,0.5-13.1c0.9-4.8,7.5-7.3,13.6-6.1C547.5,599,562.2,616.8,562.1,630.6z"/>
		<path fill="#25411A" d="M607.2,631.4c0.2,3.4-3,6.5-7.5,8.4c-3.9,1.7-7.1-0.2-10-2.9s-5.5-5.7-7.7-9c-4.1-6.3-2.4-14.7,3.8-18.8
			c1.2-0.8,2.6-1.4,4-1.8c2.1-0.5,4.4,0,6.1,1.4C602.4,613.9,606.8,620.6,607.2,631.4z"/>
		<path fill="#25411A" d="M566.1,668.3c4.5-1.3,5.3,1.8,5.6,5.5c0.1,1.8,0.4,3.6,0.5,5.4c0.6,6.7-2.1,9.7-9.1,10
			c-4,0.2-7-3.6-6.9-9.2c0.1-2.5,0.5-4.9,1.2-7.3C558.4,669.4,560.7,668.3,566.1,668.3z"/>
	</g>
	<path fill="#DCD329" d="M0.1,378.1c9-12.2,17.9-24.4,28.7-35.1c9.4-9.3,20.2-15.7,33.5-17.5c0.8-0.1,1.6-0.2,2.5-0.3
		c17.8-1.5,26.1,10.6,19.3,27.2c-15.4,37.9-38,71.3-63.5,102.9c-6.6,8.1-12.8,16.5-20.4,23.8v-101H0.1z"/>
	<path fill="#DCD329" d="M0.1,574.1c8.4-13.2,16.1-26.8,25.4-39.3c5.5-7.5,11-15.1,18.3-21c6.7-5.4,14-8.2,22.7-5.9
		c9.5,2.5,13.1,6.5,12.5,16.3c-1.4,23.6-7.2,46.1-20.1,66.1C42.2,616.3,22.7,640.1,2,663c-0.5,0.6-1,1.4-2,1.2v-90.1L0.1,574.1
		L0.1,574.1z"/>
	<path fill="#364D10" d="M0.1,669.1c23.6-25.4,45.5-52.2,63.9-81.7c6.4-10.2,10.1-21.6,13.3-33.1c1.1,0,1.3,0.7,1.3,1.2
		c1,11.3-0.2,21.8-6.9,32c-4.5,7.1-8.4,14.6-11.6,22.5c-0.4,1-0.8,2.2,0.6,2.3c3.2,0.4,3.5,3.2,4.5,5.3C84,656.8,84,697,71.8,737.8
		c-4.4,15.2-10.6,29.8-18.2,43.6c-2.7-3.2-3.5-7-6.1-9.8c-2.9-3.1-5.3-3.1-7.3,0.8c-2.1,4.1-2.2,8.9-0.1,13c2,4,3,8.5,3.1,13
		c0,3-0.5,4.9-4.3,3.8c-1.6-0.5-3.3-0.4-4.9,0.3c-3.8,2.2-6,0.6-7.5-2.7c-3.2-7.2-10.2-10.8-15.2-16.3c-2.3-2.6-1.6-3.5-0.2-5.4
		c9.1-12.7,18.7-25.1,27.1-38.3c11.2-17.8,19.5-36.7,23.3-57.5c1.9-10.6-0.3-20.6-5.7-29.8c-5.2-8.9-11.8-11.3-21.6-7.8
		c-13.3,4.8-22.7,14.2-30.2,25.8c-1.2,1.9-1.8,4.2-3.9,5.5L0.1,669.1z"/>
	<path fill="#E1D82A" d="M0.1,683.1c2.4-2.4,3.2-5.8,4.8-8.6c6.6-11.1,15.1-20.3,27-25.8c11.4-5.3,17.9-2.7,23.2,8.8
		c4.5,9.6,5,19.5,2.5,29.7C53.4,705,46.2,722,36.3,737.4c-11.2,17.5-23.7,34-36.2,50.7L0.1,683.1z"/>
	<path fill="#BCB725" d="M513.1,1024.1h-29c-1.5-8.2-3.1-16.3-4.6-24.5c-2.7-14.5-7.2-28.8-6.3-43.8c1.1-20.1,7-38.1,23-51.8
		c7.9-6.8,12.7-5.1,20.6,1.1c4.4,3.5,5.7,8.8,6.3,14.2C526.9,954.9,522.1,989.7,513.1,1024.1z"/>
	<path fill="#456637" d="M689.1,0.1c-8.2,12.7-16.9,25-24.2,38.3S651.2,65,646.2,79.1c-0.8,2.2-1.7,3.8-3.9,4.7
		c-11,4.6-22,9.3-33,14.1c-1.9,0.8-3.3,1.3-4-1.4c-5.1-18.4-11.5-36.5-11.3-56c0.2-15.4,4.8-28.7,17-38.8c0.4-0.5,0.8-1,1.1-1.5
		L689.1,0.1L689.1,0.1z M635.5,38.1c1-8.4-6-12.5-13-9.1c-8,4-14.5,10.1-16.9,19.2c-0.4,1.8-0.4,3.6,0,5.4c0.8,4.7,4.2,7.4,9,7.5
		C625.1,61.2,635.4,49.9,635.5,38.1z M650.9,17c-6.9-0.8-9.1,4.4-9.4,12.8c-0.2,4.7,2.9,7,8.8,7c5.5,0,9.7-4.7,9.8-10.8
		C660.1,20,657.1,17,650.9,17z"/>
	<path fill="#EEC270" d="M608.1,0.1c-12.4,11.3-17.4,25.6-16.9,42.1c0.1,3.7-0.6,5.1-4.7,5.1c-25-0.2-49.9-0.2-74.9,0
		c-3.8,0-4.8-1-4.6-4.7c0.5-14.1,0.7-28.3,1.1-42.4L608.1,0.1z"/>
	<path fill="#BCB725" d="M443.1,1024.1h-15c-0.9-9.6-1.7-19.2-2.6-28.8c-1.7-17.7,0.9-34.5,11.7-49.3c2.7-3.7,5.9-6.8,10.3-8.3
		c3.8-1.2,7.7-1.5,10.8,1.4c2.9,2.6,2,6.1,1,9.3c-1.9,6.2-2.7,12.7-2.2,19.2c0.2,5.5,1.2,10.9,0.6,16.4
		C455.8,998.6,450.1,1011.5,443.1,1024.1z"/>
	<path fill="#2F4B23" d="M768.1,515.1c-5.9-11.5-10.1-23.8-15-35.7c-6.1-14.9-11.9-29.9-17.8-44.9c-0.6-1.5-1.7-2.9-1.1-5.1
		c12.5,1,23.5,5.9,33.9,12.6L768.1,515.1z"/>
	<path fill="#959F0B" d="M755.1,0.1h6c7,0,7,0,7,7c-0.6,0.8-1.3,1.5-1.8,2.3c-3.7,5.5-7.4,11.1-12.5,15.4c-2.4,2-5.5,3.8-8.6,1.5
		s-3.1-5.4-1.6-8.9C746.6,11.1,750.4,5.2,755.1,0.1z"/>
	<path fill="#364D10" d="M0.1,793.1c2.2-3,4.4-3.2,6.6,0c0.7,0.9,1.2,1.6-0.4,2s-1.8,2-1.2,3.2c2.2,5.3-0.8,6-4.9,5.8L0.1,793.1z"/>
	<path fill="#CA681C" d="M506,583.3c-4.9,8.9-10,17-12.8,26.4c-2.1,6.8-3.4,13.9-3.8,21.1c-0.1,3.1-1.5,4.7-3.8,6.4
		c-36.8,27.3-77.9,43.2-123.6,48.2c-95,10.3-191.3-38.2-239.6-124.3C96.9,515.7,86.1,466.9,91.9,415
		c9.4-83.8,51.1-147.5,123.7-189.8c41.4-24.1,86.8-35.2,135-32.2c49.2,3.1,94.1,18.9,133.8,48.4c33.9,25.1,60.8,58.5,78.1,96.9
		c0.9,1.9,1.8,3.9,1.8,6.2c-0.6,22,5.8,42.4,15.5,61.9c3.1,6.3,3.9,12.7,4.2,19.3c1.7,31.9-2.6,63.7-12.7,94
		c-1.8,5.4-4.6,8.9-11.1,9.8c0.9-2.4,1.7-4.7,2.5-6.9c16.3-47.4,13.9-93.7-8.8-138.5c-7.2-14.4-17-27.2-28.9-38
		c-8.8-7.9-18.9-11.6-30.8-8.8c-2.1,0.3-3.8,1.7-4.6,3.7c-6.1,13-9.6,26.8-9.3,41.1c0.5,22.7-1.8,45.2-3.8,67.8
		c-0.1,0.7-0.1,1.3-0.1,2c-0.3,37.5,1.2,74.9,7.7,112C486.3,576.8,492.3,582,506,583.3z M345,660c11.8,0,23.7,0.1,35.5,0
		c10.7-0.2,21.3,0.7,31.9-0.9c13.9-2.1,22.8-12.7,22.8-26.2c-0.5-116.1-0.5-232.2,2.1-348.3c0.1-6.8-1.7-12.3-4.5-17.8
		c-9.7-19.5-25.5-29.8-47.4-28.5c-27,1.6-54-1-80.9,0.4c-5.2,0.3-10.4-0.3-15.7,1.2c-10.1,2.8-18.8,7.5-25.5,15.6
		c-6.7,8.1-9.6,17-9.3,27.9c0.7,27.5,0.2,55,0.2,82.5c0,4.2,0.9,8.3,2.7,12c23.2,48.9,23.2,97.9,0,146.9c-0.5,1.2-0.8,2.5-0.8,3.8
		c-0.4,31.8-0.8,63.6-0.9,95.5c0,12.1,5.2,22,14.9,29.1c4.5,3.3,8.8,7.1,15.4,6.9C305.3,659.8,325.1,660,345,660L345,660z
		 M222.1,449c0-23,0.1-46,0-69c0.1-9.9-2.2-19.6-6.7-28.4c-10.7-20.1-25.5-27.1-45-9.2c-15,13.8-28.7,28.6-39.4,45.8
		c-18.1,29-25.6,60.7-20.2,94.6c6.8,43.5,30.7,74.7,70.3,93.9c11.3,5.5,21.2,3.9,30.1-4.9c2.5-2.4,5.7-4.8,6.2-8.3
		c1.6-11.3,2.6-22.8,3.8-34.2C223.7,502.7,223,475.9,222.1,449L222.1,449z M257.2,475.5c-0.2-1.2-0.5-3.5-0.8-5.8
		c-0.9-5.3-0.9-10.3,3.6-14.2c0.8-0.8,1.4-1.8,1.9-2.9c2.3-4.7,1.2-9.5-2.8-12.4c-3.9-2.9-9.3-2.6-12.7,0.9
		c-4.1,3.9-5.6,9.3-2.4,12.9c4.8,5.4,4.7,11.3,3.7,17.7c-0.7,4.4-1.4,9,1.2,13.1c0.9,1.5,2.2,3.2,4.3,3s2.8-2,3.4-3.8
		C257.2,481.6,257.2,479.2,257.2,475.5L257.2,475.5z"/>
	<path fill="#E2DF96" d="M479.6,479.4c-2-21.1,0.8-41.9,2.8-62.8c0.9-9.3,0.7-18.6,0.6-28c-0.2-15.2,2-29.8,7.9-43.9
		c1.6-3.8,3.9-5.3,7.7-5.6c8.4-0.8,16.8,2,23,7.7c16.5,14.7,29.2,33.2,36.9,53.9c15.9,42.6,15.9,85.3-1.4,127.7
		c-0.8,2-1.6,3.9-3.7,5.1c-17.8,9.4-30.1,24.4-41.3,40.6c-5.2,7.6-13.9,8.1-20.1,1c-4.2-4.7-5.2-10.6-6.1-16.6
		c-3.5-25.2-6.7-50.5-6.2-76.1C479.8,481.4,479.7,480.4,479.6,479.4z"/>
	<path fill="#E7AC5C" d="M80.4,539.3c2.3,1.1,2.2,3.2,2.8,4.8c38.1,90.2,104.4,147.6,200.1,168.3c73.2,15.9,142.3,2.6,205.9-37.3
		c3.1-1.9,4.5-2.6,5.4,2c1.4,6.8,3.4,13.5,5.5,20.2c0.8,2.7,0.4,4.1-2.1,5.6c-28.8,17.5-60.2,30.1-93.2,37.2
		c-28.3,6.1-57,8.8-85.9,6.2c-106.5-9.7-187.2-60.6-242.7-151.8c-1.5-2.5-1.8-4.4-0.3-7.2c6.5-12.2,8.5-25.1,3.9-38.5
		C78.6,545.3,80.2,542.5,80.4,539.3z"/>
	<path fill="#EEDB9D" d="M229,789.4c-5.4-3.3-5.5-3.3-5.8,3c-0.1,2-0.7,3.7-2.8,2.7c-5.9-2.8-11.3-1.3-17.1,1.4
		c-0.3-3.5,0.3-6.6-1.9-9.3c-1.2-1.5,0.8-3,1.6-4.4s1.7-2.7,0.6-4.1c-1-1.3-2.6-1.3-4.2-1c-6.5,1.1-11.2,4.8-14.6,10.3
		c-1,1.7-1.9,3.5-3.1,5.6c-2-1.4-2.1-5.1-5.7-4.4c-1.1,0.2-0.4-1.6-0.3-2.5c0.5-3.6,1.2-7.2,1.4-10.9c0.2-5.4-3.2-9.5-7.4-9.5
		c-3.8,0-7.1,4.1-7.5,9.2c-0.1,2,0.2,3.9,1,5.7c-4.4-0.8-7.9-1.1-9.4,3.7c-0.5,1.6-2.6,1.2-4,1.2s-2.7,0-4,0c-2.6,0.2-5.8-0.2-7,2.7
		s2.4,3.9,3.7,6.2c-1.6,2-3.9,1.3-5.9,1.4c-2,0-2.6-1-1.6-2.8c1.3-2.2,1.5-4.9,0.5-7.2c-0.9-2.1,0.8-3.4,1.8-4.8
		c2.9-4.2,1.7-6.7-3.4-7.3c-5.6-0.7-9.6,2.1-13.2,5.8c-2.8,2.9-4.6,6.5-7,10c-1.3-1.6-1.3-4.6-4.8-3.6c-1.9,0.6-1.2-1.8-1.2-2.8
		c0-5,0.2-10,0.3-15c0-1.8-0.3-3.6-2.2-4.1s-2.9,1.1-3.9,2.5c-3,4.4-3.8,9.5-4.8,14.6c-0.6,3.5-1.9,3.5-4,1.2
		c-0.6-0.6-1.1-1.2-1.7-1.8c-0.9-0.9-1.8-2.3-3.3-1.5s-1,2.3-0.6,3.5c0.3,1.1,0.9,2.2,0.2,3.8l-6.9-1.9c-3.6-1-7.2-1.1-9.1,2.8
		c-2,3.9,1.3,5.7,3.7,8.1c-2.3,1-4.7,2.9-5.9-0.9c-2.6-8.3-6.4-9.3-12.8-3.2c-2.4-5.6-2.5-5.7,0.3-10.8c8-15,14.3-30.8,18.6-47.2
		c1-3.6,2.5-4.5,6.1-4.5c47.3,0.1,94.7,0.1,142,0c6.1,0,11.2,2.9,16.7,4.7c42,14,85,18.5,129.1,14.6c25.5-2.3,50.7-7.8,74.8-16.4
		c2.1-0.6,4.2-0.9,6.4-0.8c18.5,0,37,0.1,55.5-0.1c4.5-0.1,6.4,1.5,6.4,6.2c-9.3-0.9-18.6-1.3-27.9-0.2
		c-28.9,3.5-52.9,16.3-71.8,38.3c-4.2,4.9-4.2,5-7.7-0.3c-4.9-7.2-9.8-14.3-14.6-21.5c-1.5-2.3-3.1-3.4-6-3.3c-34,0.8-68,1.4-102,2
		c-2-0.1-3.9,0.9-4.9,2.6c-5.4,7.2-10.8,14.4-16.4,21.5c-1.4,1.8-1.5,3.4-1.3,5.5c0.8,9.3-5.7,17.6-14.8,19.3
		c-3.1,0.6-4.5-0.3-3.9-3.6c1-5.6,2.3-11.1,1.5-16.8c-0.4-2.9-0.6-6.5-4.2-7.2c-3.2-0.5-5,2.2-6.5,4.7
		C230.1,781.5,229,785.4,229,789.4z"/>
	<path fill="#DE9243" d="M489,639.1c0.5,8.8,1.5,17.5,3.1,26.1c0.5,2.7-0.3,4.2-2.6,5.7c-33,21.4-68.8,35.4-107.8,41.2
		c-13.2,2-26.4,3.8-39.8,3.8c-120.2-0.8-219.1-74.3-258.1-179.3c-1.5-3.7-2.1-7.7-1.9-11.7c0.4-6.2-0.8-11.8-5.8-16.3
		c-2.7-2.4-2-6.2-2.9-9.3c-0.7-2.2-0.6-4.6-1.4-6.8c-1.6-4.6-0.5-7.7,3.4-11.1c5.6-4.9,7.9-11.8,7.8-19.3c0-1.7-0.2-3.3-0.2-5
		c-0.1-2.2,0.4-4.1,3.1-4.2c3.1-0.1,2.1,2.5,2.2,4c2.1,30.5,8.8,59.9,22.1,87.5c35.5,73.8,92.9,121.5,172.9,139.1
		c73.4,16.2,141.5,1.7,202.8-42.4C486.7,640.5,487.6,640.1,489,639.1z"/>
	<path fill="#D27722" d="M577.1,298.8c-72.6-105.6-171.8-147.2-297.8-126.3c5.1-9.1,10.1-18.4,12.4-29c0.5-2.2,2.4-2,4-2.2
		c30.9-4.7,62.3-4.4,93.1,0.8c76.3,13,139,49.7,188.1,109.4c4.8,5.8,9,12,13.5,18c1.1,1.4,2.2,2.7,0.7,4.8
		C585.7,282,581.1,290.2,577.1,298.8z"/>
	<path fill="#DE9243" d="M253.1,203.5c8-7.3,15.3-15.5,21.6-24.3c1.4-2,3.5-2.4,5.6-2.9c33-7,66.1-8.9,99.7-3.6
		c52,8.1,97.9,29,138,63.1c21.5,18.5,40.1,40.2,54.9,64.3c1.5,2.5,2,4.5,0.8,7.3c-3.6,9.2-6.4,18.8-8.1,28.6
		c-28.7-59.1-71.6-102-131.2-126.9S314.2,183.7,253.1,203.5z"/>
	<path fill="#EEC270" d="M434.4,96.4c5.3-6.6,10.1-13.5,14.3-20.8c4-7.3,7.9-14.7,10.5-22.6c0.8-2.5,2-3.1,4.6-3
		c41,0.1,81.9,0.1,122.9,0c4.1,0,5.3,1.2,5.7,5.2c1.2,12.2,5.1,24,8.7,35.7c0.9,3.1,0.7,4.2-3.1,4.3c-53.3,0.5-106.6,1.2-159.9,1.9
		C436.9,97.2,435.7,97.6,434.4,96.4z"/>
	<path fill="#EEC270" d="M291.7,112.4c10,3.6,19.1,6.9,28.7,9.1c25.4,5.9,50.8,6.2,76.2,0c12.3-3,22.4-10,31.4-18.7
		c1.6-1.9,4-2.9,6.5-2.9c22-0.2,44-0.4,65.9-0.9c3.9-0.1,5,0.9,5,4.9c-0.2,15-0.2,30,0,45c0,3-0.7,4-3.8,3.9
		c-19.1-0.3-38.3-0.4-57.5-0.7c-5.7-0.1-10.8-2.9-16.3-4.5c-38-11-77.8-14.7-117.1-10.9c-5,0.5-9.9,1.1-14.9,1.6
		c-1.5,0.2-3.2,0.6-3-1.9C293.5,128.6,292.9,120.9,291.7,112.4z"/>
	<path fill="#EEDB9D" d="M218.4,725.5c-1.8,1.1-3.3,0.7-4.7,0.7c-43.5,0-87,0-130.5,0.1c-4.6,0-5.5-0.8-4.4-5.5
		c3.1-13,4.5-26.3,4.1-39.6c-0.1-3.3,0.9-4.2,4.2-4.2c16.8,0.2,33.7,0.1,50.5,0c1.8-0.1,3.6,0.4,5,1.5c22.4,18.7,47.3,34.2,74,45.9
		C217.1,724.7,217.6,725,218.4,725.5z"/>
	<path fill="#EDAC66" d="M240.6,837.2c8-9.5,15.3-18.3,22.6-27.1c1.1-1.4,2.7-1.1,4.2-1.1c40.8-0.3,81.6-0.7,122.4-1
		c3.4,0,4.2,0.8,3.3,4.1c-1.8,6.9-2.4,14.2-1.7,21.3c0.2,2.7-0.2,3.8-3.3,3.8c-37.1,0.5-74.3,1.2-111.4,1.9c-2.4,0-4.1-0.5-5.2-2.8
		c-0.8-1.5-1.9-2.8-3.2-3.8c-4.3-3.8-7.6-2.9-8.9,2.7c-0.4,1.8-0.7,3-3,2.9C251.5,837.7,246.6,837.5,240.6,837.2z"/>
	<path fill="#F3D591" d="M591.7,264.5c-17.7-24.1-38.5-45.6-61.9-64.2c-23.5-18.4-49.5-33.3-77.3-44.2c0.4-1.6,1.7-0.9,2.4-0.9
		c31.3,0.2,62.6,0.6,94,0.8c3.2,0,3.9,0.8,3.3,3.9c-5.7,29.9,12,62.2,39.5,76.4c3,1.5,3.7,2.8,2.1,6
		C590.4,249.3,590.6,256.8,591.7,264.5z"/>
	<path fill="#F0CF4F" d="M184,827.5c-0.4,14.7,2.4,18.5,16,23.8c5.3,2.1,10.6,4.6,10.3,11.8c-0.1,1.6,0.8,3,2.2,3.6
		c6,2.8,15.2-2.7,15.6-9.3c0.4-8-2.6-15-6.5-21.7c-3.6-6.2-5.6-12.8-4.6-20c0.7-5.5,3-9.8,8.4-12c2.8-1.3,6.1-0.8,8.4,1.3
		c2.4,2,3,3.5-0.1,5.7c-9.1,6.4-10.5,19.8-2.9,28.5c1.9,2.2,2.8,4.2,2.3,7.1c-0.6,4,0.8,7.9,1.3,11.9c0.9,8.5-5.7,15.5-14.1,14.2
		c-5.7-0.8-9.4,0.8-12.4,5.8c-4.5,7.6-14,7.4-18.8,0.1c-1.5-2.4-3-4.8-4.7-7.1c-0.9-1.2-2.1-2.4-3.7-2c-1.7,0.4-2.1,2.1-2.4,3.5
		c-0.7,3.4-1.1,6.9-1.9,10.3c-0.6,2.6-1.4,5.7-5.1,4.6c-3.4-1-2.4-3.8-2-6.3c0.3-1.3,0.5-2.6,0.6-3.9c0.2-2.1-1.2-4-3.2-4.4
		c-2.2-0.6-4.2-0.1-5.2,2c-1.3,2.7-2.1,5.6-3.3,8.3c-1,2.4-2.2,4.6-5.6,2.9c-3.7-1.8-1.3-3.5-0.2-5.5c1.2-2,2.2-4.1,3.1-6.3
		c2.1-6.1,0.7-9.4-5.1-12c-2.8-1.2-5-2.9-5.6-5.9c-1.6-7.4-5.1-14-7.8-21c-2.5-6.7,0.2-9.9,7.1-8.2c5,1.4,10.4,0.8,15-1.6
		c2.5-1.4,5.3-2.2,8.1-2.4c3.7-0.1,6.8-1,8.7-4.6c1.2-2.2,3.5-2.3,5.8-1.8c2.5,0.6,2.7,2.6,2.6,4.7
		C184.2,823.8,184.1,825.6,184,827.5z"/>
	<path fill="#EEC270" d="M555.8,98c14.5,0,29,0,43.4,0c1.3,0,3.4-0.9,3.8,1.2c0.3,1.7-1.7,1.8-2.8,2.3
		c-22.4,9.6-37.5,25.9-45.6,48.8c-0.7,2.1-1.7,2.8-3.8,2.8c-12.7-0.2-25.3-0.2-38-0.2c-2.7,0-3.5-0.8-3.8-3.7
		c-1.9-15.6-0.3-31.2-0.9-46.7c-0.1-3,1.2-3.5,3.8-3.5c14.6,0.1,29.3,0.1,43.9,0.1L555.8,98L555.8,98z"/>
	<path fill="#D47D31" d="M407.4,782c-4.7,7.3-8.8,13.8-11.5,21c-0.7,2-2.2,2.1-3.9,2.2c-41.4,0.3-82.9,0.6-124.3,1
		c-2.8,0-3.8-0.7-3.8-3.6c0-5.5-0.3-11-0.7-16.5c-0.3-3.4,0.9-4.2,4.1-4.2c11.5,0.2,23,0.1,34.5,0.1H407.4L407.4,782z"/>
	<path fill="#EDAC66" d="M263.1,778.8c6-7.9,11.5-15.1,17-22.4c1.2-1.6,2.9-1.4,4.5-1.5c32.6-0.6,65.3-1.2,97.9-2
		c3-0.3,5.8,1.2,7.2,3.9c4.6,7.2,9.6,14.2,14.9,21.9L263.1,778.8z"/>
	<path fill="#D00B00" d="M635.4,294.2c-22.6,0-42-19.1-41.3-40.6c0-1.5,0.2-3,0.5-4.4c2.2-10.4,10.2-19,18.5-20s17.7,5.2,22.5,14.6
		c3.6,7,5.4,14.6,7.2,22.2s5.5,13.1,13,15.7c4.5,1.5,3.5,3.5,0.5,5.6C650.3,291.8,642.9,294.2,635.4,294.2z"/>
	<path fill="#DD5205" d="M158.9,931.8c-2.4-0.7-3.4-2.7-4.4-4.5c-3.5-6.5-3.4-6.5-9-1.8c-5.3-8.3-4.4-29.3,1.5-36.9
		c1.4-1.9,2.3-0.9,3.6-0.2c5.3,2.8,8.1,1.7,10.4-4c0.9-2.2,1.5-4.4,2.3-6.6c0.4-1.1,1.1-2.2,2.6-1.7s1.3,1.8,1.1,2.9
		c-0.2,1.5-0.7,2.9-0.9,4.4c-0.6,3.7,0.9,6.2,4.5,7.3s6.2-0.6,7.6-3.9c0.8-2.2,1.4-4.4,1.8-6.7c0.5-2.1,0.8-4.2,1.2-6.7
		c2.9,1.1,3.6,3.8,5,5.9c5.1,8.1,11,9.9,19.4,5.2c2.6-1.4,3.6-0.8,4.4,1.4c3.6,9.5,5.6,19.5,6,29.7c0.2,5.2-4.4,6.6-8.7,7.4
		c-8.6,1.5-17.2,0.5-25.8,0.4c-2.5,0-3.4-1.8-4.1-3.7c-1-2.8-1.8-5.7-2.7-8.6c-1.2-4-3.5-7.6-6.6-10.4c-1.1-1-2.4-2-4-1.3
		c-1.8,0.8-1.2,2.6-1,4s0.6,2.9,0.9,4.4s0.5,2.7-2.1,2.5c-4.8-0.5-6.3,1.3-5.5,6c0.6,3.4,1.5,6.8,2.3,10.2
		C159.1,928.1,159.7,929.9,158.9,931.8z"/>
	<path fill="#D47D31" d="M357.5,866.2c2.4-5.1,1.4-6.7-4.5-7.2c-3.1-0.2-6.3,0.4-8.2-3.3c-0.8-1.6-2.7-0.3-4.3,0.2
		c-0.9-2.8-0.6-5.9-2.3-8.4c-1.4-2.2-3.4-4.1-6.1-3c-2.6,1-2,3.5-1.5,5.7c0.7,2.7,0.9,5.6,0.8,8.4c-0.1,2.4-1.8,4.5-4.1,5
		c-2.5,0.6-2.8-2-3.5-3.5c-1.9-4.1-4.6-7.3-9-8.8c-2.8-1-5-0.5-4.7,3.3c0.2,2.5-0.2,5,0.2,7.5c0.9,5-1.8,7-6.1,7.7
		c-1.3,0.2-2.7,0.3-4,0.3c-3.3,0.1-7.6,0.6-9.2-2.3c-1.3-2.2,2.7-4.4,4-6.7c0.6-1.2,1.5-2.2,2.1-3.4c2.2-4.3,0.9-6.7-3.9-7
		c-1.5,0-3,0.1-4.5,0.3c-3,0.2-6.2,1.5-7.3-3.3c-0.5-2.1-3.3-2.6-5.5-2.5c-1.3,0-2.9,0.3-2.9-1.7c0.1-2.2,1.9-1.4,3-1.4
		c11.3-0.3,22.7-0.5,34-0.7c25.6-0.4,51.3-0.7,76.9-1.3c3.9-0.1,5.5,0.8,6.1,4.8c1.1,6,2.6,12,4.3,17.9c0.7,2.5,0.7,3.6-2.4,3.5
		C382.6,866.2,370.1,866.2,357.5,866.2z"/>
	<path fill="#D12304" d="M85.3,449.5c-4.2,1.7-5.9,4.2-5.4,7.7c3,22.9-15.8,30.9-32.1,31.8c-10.1,0.6-15.2-1.6-19.6-7.8
		c8-0.2,11-5.8,13.1-12.2c1.7-5.4,3.1-10.9,4.9-16.2c2.2-6.4,6.9-11.6,13-14.5c4.4-2.1,8.7-2,12.5,1.4
		C75.8,443.7,80.4,447,85.3,449.5z"/>
	<path fill="#EEDB9D" d="M137.4,674.1c-17.3,0-33.1,0-48.9,0c-1.6,0-2.5-0.5-2.5-2.3c0-17.9,0-35.8,0.5-53.9
		C101.4,638.5,118.5,657.3,137.4,674.1z"/>
	<path fill="#DE9243" d="M586.5,419.5c5.1,6.8,9.3,12.4,13.4,18c0.8,1,1.8,1.9,0.4,3.3c-10.2,10.3-11.1,23.8-12,37.1
		c-0.9,13.1,1.9,25.8,6,38.2c1.2,3.6,0.4,4.8-3.2,5c-6,0.3-11.6,2.3-18.4,3.7C584.9,490.7,588.7,456.1,586.5,419.5z"/>
	<path fill="#F2DB9D" d="M457.3,728.1c14.4-7.1,28.5-14.1,42-22.3c2.2-1.3,3.1-1.1,3.9,1.4c1.9,6,4,12,6,17.9
		c0.6,1.7,1.2,3.1-1.7,3.1C490.8,728.1,474.1,728.1,457.3,728.1z"/>
	<path fill="#E5B55D" d="M83.2,669.5c-2.4-19.5-8-38.5-16.7-56.1c-0.8-1.6-3.6-2.5-2.4-4.8c2.2-4.5,4.6-8.8,7.2-13.1
		c0.8-1.3,1.7,0.1,2.2,0.9c5,8.5,10.9,16.1,10,27.3C82.3,638.9,83.2,654.2,83.2,669.5z"/>
	<path fill="#CB691A" d="M71.4,506.2c-7.6-2.6-14.8-3-21.7,0.4c-0.8,0.4-1.7,0.2-2.3-0.4c-8.8-6.4-18.8-10-29-12.9
		c-0.7-0.3-1.4-0.7-2.1-1.2c6.3-1.8,11-5.4,17.8-2.4c9.8,4.4,20,2.4,29.7-1.3c3-1.1,4.2-1.1,4.7,2.5
		C69.1,495.9,70.3,500.8,71.4,506.2z"/>
	<path fill="#D27722" d="M172.4,223.1c-9,7.1-16.5,13.6-24.5,21.2c0.9-11.1-2.9-19.3-8.8-27.1C149.9,220.8,161.1,222.8,172.4,223.1z
		"/>
	<path fill="#D47D31" d="M264.2,857c-6.5-6.6-4.5,3.3-7.7,3.5c-2.1-1.7-3.2-4.6-4.8-7.1c-2.8-4.4-5.7-8.7-11.2-10
		c-1.1-0.3-2.4-0.8-2.2-2.2c0.3-1.7,1.9-1,2.9-1c6,0.2,12,0.5,17.9,0.8c1.4,0,2.6,0.2,3.3,1.7C264.7,847.2,266.3,851.9,264.2,857z"
		/>
	<path fill="#4D6C36" d="M640.8,238.1c-1.8-0.6-4.4-0.2-5.5-2.3s0.5-4.2,1.7-5.9c2.5-3.7,9.7-5.3,13.5-3.3c1.4,0.7,2.1,1.4,1.6,3.1
		C651.2,232.5,644,238.1,640.8,238.1z"/>
	<path fill="#DD5205" d="M120,815.9c5.5-5.7,17.8-4.3,21.3,1.9c1,1.8,1.6,4,0,5.6c-1.8,1.7-3.1-0.7-4.7-1.2
		C131.1,820.6,126.9,815.4,120,815.9z"/>
	<path fill="#5D730A" d="M43.5,238.2c-2.5-0.1-5.2,0.1-5.3-3.5c-0.1-3.4,4.9-8.4,8.3-8.4c3.2-0.1,5.4,1,5.4,4.7
		C52,234.6,47.9,238.2,43.5,238.2z"/>
	<path fill="#4D6C36" d="M636.3,430.7c1.1-4.3,3-8.6,7.2-11.1s9.2,1.3,8.6,6.1c-0.6,4.5-3.2,8.6-7.1,11
		C640.9,439.4,636.4,436.3,636.3,430.7z"/>
	<path fill="#335414" d="M465.4,819.7c0,6.8,0.3,12.2-2.7,17.2c-4.7,7.8-14,9.6-20,3c-7.8-8.8-12-19.2-10.8-31.4
		c0.8-8.1,6.2-12.7,12.3-16.6c2.2-1.4,5.5-0.2,7.7,1.7C460.3,800.7,466.2,809.2,465.4,819.7z"/>
	<path fill="#DC4012" d="M574.9,829.3c-7,8.2-19.2,9.1-27.9,2.3c-9.4-7.4-11.7-20.8-5.2-30.9c3.1-4.8,6.9-6,11.9-3.1
		c6.4,3.7,10.4,9.1,11.4,16.6c0.2,2,0.5,4,0.8,5.9C566.5,825.3,568.7,829.2,574.9,829.3z"/>
	<path fill="#DD5205" d="M12,1013.8c-7.6-5.1-7.7-16.2-0.5-21.2c3.1-2.2,5.3-1.4,6,2.2c0.4,2.4,0.7,4.9,0.8,7.4
		c0.1,1.1,0.3,2.7-1.2,2.9C11.8,1005.8,12.1,1009.9,12,1013.8z"/>
	<path fill="#DD5205" d="M35.7,996.8c-1.4,0.2-2.8,0.4-4.2,0.4c-1.5,0-2.8,3.1-4,0.7c-1-2.3-0.9-5,0.3-7.2c0.8-1.5,2.3-1,3.4-0.2
		C33.5,991.9,35.1,994.2,35.7,996.8z"/>
	<path fill="#EC4728" d="M44.4,872.4c-2.7-2.2-4.8-6.8-9.3-2.4c-1,1-1.3-0.5-1.7-1c-1-1.6-2.3-2.9-3.8-3.9c-3.1-1.8-4.9-0.6-5.2,2.6
		c-0.2,2.4,0.3,4.9,0.5,7.5c-3.3-4.3-4-14.7-1.2-17.5s14.7-4.4,18.5-2.3C50.8,859.9,51.4,863.9,44.4,872.4z"/>
	<path fill="#4D6C36" d="M581.5,180.4c-7,0.1-9.9-3.6-8.2-10.6s6.9-11.6,12.9-15.1c3.3-2.1,6.8-4,10.5-5.7
		c6.2-2.6,10.7,0.9,10.3,7.4C606.3,166.4,591.7,180.2,581.5,180.4z"/>
	<path fill="#4D6C36" d="M703.2,280.3c0.2,6.2-8.8,14.1-14.5,12.6c-2.8-0.7-5.3-2.9-3.9-6.6c2.3-6.4,7.5-9.8,13.7-11.2
		C702.1,274.2,702.6,277.9,703.2,280.3z"/>
	<path fill="#4D6C36" d="M629.6,201.6c-4.4,0-7.4-5.7-4.9-10.1c2.2-4.2,6-7.2,10.5-8.5c5.2-1.4,8.8,2.6,7.3,7.7
		C640.8,196.5,634.6,201.7,629.6,201.6z"/>
	<path fill="#4D6C36" d="M597,134.6c-2.7,0.2-4-0.9-3.9-3.8c0.1-3.8,3.2-6.7,7-6.6c0.2,0,0.4,0,0.6,0c2.1,0.2,5.1-0.1,5.2,3.2
		S601.1,134.5,597,134.6z"/>
	<path fill="#5D730A" d="M35.2,174.7c-0.3,8.7-6.1,14.9-13.7,14.5c-3.9-0.2-6.5-2-7.7-5.9c-2.6-7.9,3-17.8,10.6-18.7
		C31.1,163.8,35.4,167.8,35.2,174.7z"/>
	<path fill="#5D730A" d="M54,29.8c-0.2,6.1-7.2,14-13.3,15c-5,0.8-7.7-2.5-7-7.5c1-7.4,4.8-12.1,12-14c3.5-1,7.1,1,8.1,4.4
		C54,28.3,54.1,29.1,54,29.8z"/>
	<path fill="#5D730A" d="M169.4,102.1c0.5-5,1.4-8.5,7.1-8.3c2.5,0.1,4.8-2,7.6-1.9c5.1,0.3,7.4,3.7,5.4,8.3
		c-1.6,3.5-4.2,6.4-7.5,8.4c-2.9,1.9-6.3,2.9-9.4,1.1C169.7,108,170.3,104.3,169.4,102.1z"/>
	<path fill="#5D730A" d="M285.7,26.7c0.6-6.7,4.4-11.3,9.8-14.8c1.2-1,2.9-0.8,3.9,0.4c0,0,0,0.1,0.1,0.1c1.9,2.1,5.3,3.4,4.4,7.1
		c-1.3,5.8-5.3,10.6-10.8,13C289.4,34.1,285.2,30.7,285.7,26.7z"/>
	<path fill="#5D730A" d="M107.7,39.6c3.2-0.1,5.9,2.5,6,5.7c0,0.9-0.2,1.8-0.6,2.6c-1.5,3.4-4.2,6.1-7.5,7.7
		c-4.2,2-8.4,0.5-10.8-4.1c-1.7-3.3,0.6-5.5,2.7-7.8C100.4,40.7,104.1,40.2,107.7,39.6z"/>
	<path fill="#5D730A" d="M61.3,151.1c3.5,0.1,6.3,3.4,6.3,7.6c0,3.7-3.1,6.6-6.8,6.6c-0.1,0-0.2,0-0.3,0c-4-0.4-5.6-3.1-5.5-6.9
		C55.1,153.9,57.5,151.1,61.3,151.1z"/>
	<path fill="#253F1B" d="M201.8,150c-4.7-0.1-7.7-3.8-6.5-8.4c1.4-5.7,4.2-11.7,9.1-13.7c6.1-2.5,12.6-6.7,20-3.8
		c2.5,1,4.6,2.9,3.6,6.1C225.9,137.1,208.7,150.1,201.8,150z"/>
	<path fill="#253F1B" d="M91.5,238.2c-3.7,0-6.7-3.4-6.3-6.5c1-7.4,9.6-15.4,17-15.8c4.4-0.2,7.5,3.4,5.4,6.9
		c-3.5,5.8-7.6,11.2-13.7,14.7C93.1,237.8,92.3,238.1,91.5,238.2z"/>
	<path fill="#253F1B" d="M358.1,61.8c1.9,0.8,3.1-0.3,4.4-0.4c2.5-0.3,4,1.4,5.4,3c1.4,1.6,0.6,3.6-0.7,4.9
		c-3.5,3.6-6.9,7.2-10.7,10.4c-2.1,1.7-4.9,3.2-7.6,0.9c-2.7-2.3-3.5-4.9-1.8-8.3c1.6-3.1,3.6-5.9,6-8.5
		C354.5,62.2,356.1,60.5,358.1,61.8z"/>
	<path fill="#253F1B" d="M317.6,84.9c-5.3,0.1-8.4-4.6-6.2-9.5c2.2-5,9-9.3,14.3-9.1c4.6,0.1,7.2,3.8,5.9,8.1
		C330,79.4,322.8,84.8,317.6,84.9z"/>
	<path fill="#253F1B" d="M387.1,105.2c-4.3,0.1-8.5-3.8-8.5-7.6c0.1-5,5.5-9.4,11.9-9.6c5.1-0.2,9.2,3,9.1,7.1
		C399.6,100.7,394,105.1,387.1,105.2z"/>
	<path fill="#253F1B" d="M422.8,52.3c0.1-4.8,4.4-9.6,8.5-9.4c4.3,0.2,7.5,2.9,7.4,6.2c-0.1,4.4-6.3,10.1-10.9,10
		C425.3,59.1,422.7,55.6,422.8,52.3z"/>
	<path fill="#253F1B" d="M100.1,249.6c-0.2,6-3.5,10.4-7.5,10.2c-2.7-0.1-3.9-1.7-3.8-4.2c0.2-4.8,5-10.2,8.7-10
		C100.3,245.8,100.5,247.6,100.1,249.6z"/>
	<path fill="#AEA308" d="M674.9,84.4c0.8-7.3,6.1-13.9,11.7-19.9c4.6-4.9,9.4-9.9,16.8-11c3.5-0.5,7.1,1.5,7.3,5
		c0.9,13.1-17.2,35.5-27.3,35.2C678.1,93.5,674.7,91.2,674.9,84.4z"/>
	<path fill="#959F0B" d="M748.3,161.6c-0.5,4.9-2.6,8.2-4.8,11.2c-3.9,5.4-8.7,10-14.2,13.7c-2.8,1.9-5.8,2.6-9-0.2
		c-3.4-3-3-6.2-1-9.3c4.6-7.1,10.5-13.3,17.3-18.3c2.3-1.7,5.4-3.1,8.4-1.3C746.7,158.5,748.6,160,748.3,161.6z"/>
	<path fill="#959F0B" d="M731.8,297.9c-5.7,0.1-8.5-3.6-7-9c1-3.2,2.7-6.1,4.8-8.6c3.8-4.9,9.2-8,14.1-11.6c2-1.5,4.8-2.5,7-0.9
		c2.4,1.7,3.5,4.6,3,7.4C752.5,284.2,739.5,297.8,731.8,297.9z"/>
	<path fill="#959F0B" d="M676.2,140.4c0-9.8,10.1-21.2,19.2-21.9c4.3-0.3,7.3,3,5.9,6.8c-3.2,8.3-9.1,15.3-16.8,19.9
		C680.4,147.6,676.2,145,676.2,140.4z"/>
	<path fill="#959F0B" d="M724.8,114.8c0-2,0.8-3.9,2.3-5.3c2.6-2.9,5.6-5.5,8.7-7.9c3-2.1,7.8,0.6,7.3,4.1
		c-0.9,6.3-3.9,11.8-9.5,15.1C729.2,123.5,724.9,120.6,724.8,114.8z"/>
	<path fill="#4D6C36" d="M760.5,324.9c-0.7,4.8-3.4,9.2-7.4,12c-1.5,1.1-3.8,2.3-5.5,0.8s-3.5-3.4-2.5-6.4
		c1.6-4.9,2.6-10.1,8.5-11.9c2.9-0.8,5.9,0.9,6.7,3.8C760.5,323.7,760.6,324.3,760.5,324.9z"/>
	<path fill="#5D730A" d="M44.7,291.5c-0.3,0.9-0.3,2.4-1,3.4c-3.7,5-8.3,9-14.3,11c-2.7,0.9-4.8,0.4-6.8-2.2
		c-1.9-2.4-1.3-4.3-0.2-6.3c2.2-4.3,5.5-7.9,9.6-10.5C37.6,283.2,44.5,285.6,44.7,291.5z"/>
	<path fill="#4D6C36" d="M615.4,58.3c-4-0.1-7.2-3.4-7.1-7.4c0-0.3,0-0.6,0.1-1c0.9-6.1,10.9-17.2,16.8-18.6c3.2-0.9,6.6,1,7.5,4.3
		c0,0.1,0.1,0.2,0.1,0.3C634.5,43.6,623.2,58.2,615.4,58.3z"/>
	<path fill="#4D6C36" d="M650.6,19.8c3.4-0.1,6.7,2.8,6.7,5.8c0,3.4-3.8,8.5-6.6,8.2c-2.6-0.3-6-0.5-6.3-4.2
		C643.8,24.4,646.8,19.9,650.6,19.8z"/>
	<path fill="#C7C031" d="M360.6,647.1c-1.8-6.7-3.7-13.3-5.2-20c-1.2-4.6,0.1-9.6,3.5-13c6.9-7,7.8-15.2,5-24
		c-1.4-4.3,2-7.1,2.8-10.7c0.3-1.4,1.9-2.6,0.7-4.1c-1.2-1.5-3-1.1-4.7-0.8c-1.5,0.3-3.5,0.3-4.2,1.2c-4.2,5-7.8,1.8-11.9,0
		c-7-3.2-14.1-4-20.6,1.5c-2,1.7-3.7,1.1-5.1-0.8c-0.9-1.2-1.7-2.5-2.5-3.8c-1.3-2-2.5-4.4-5.1-4.2c-3.1,0.3-4,3.1-5.1,5.5
		c-1.7,4-0.8,7.9,0.4,11.7c1.1,3,1.2,6.3,0.4,9.3c-1.8,5.8,0.1,10.4,4.1,14.5c0.9,1,1.9,1.8,2.9,2.7c8,7.1,8.4,8.9,3.5,18.4
		c-3.7,6.8-5,14.6-3.7,22.2c0.6,3.2,0.2,4.5-3.4,4.3c-9-0.5-18,0.6-26.9-0.8c-14.9-2.3-27-15.3-27-30.7c-0.1-32.3,0.5-64.7,0.8-97
		c0-1.1,0.3-2.3,0.9-3.3c23.3-50.3,23.1-100.4-1.2-150.3c-1.1-2.2-1.7-4.7-1.7-7.1c0.1-28.5,0.1-57,0-85.5
		c0-19.8,12.6-35.5,32.2-39.5c15.1-3.1,30.5-1.4,45.8-1.7c17.1-0.3,34.3,0.7,51.5-0.1c26.9-1.3,40.6,16.3,47.3,35.5
		c0.7,2.1,0.5,4.6,0.5,6.9c-1,78.8-2.1,157.6-2,236.5c0,37.5-0.2,75,0.5,112.5c0.2,11.6-9.2,21.8-19.1,23.4
		c-13.6,2.2-27.3,0.7-40.9,1.1c-2.2,0.1-1.9-1.2-1.6-2.6c2.3-9.1,1.9-18.5,2.9-27.8c0.6-5.8,3.4-9.6,9.2-11
		c4.8-1.2,9.2-3.1,12.7-6.7s2.8-6.5-1.4-8.8c-5.3-2.9-12.3-2-17.7,2.6c-8.6,7.4-12.5,17-13.6,28c-0.6,5.4-1.1,10.8-1.6,16.2
		L360.6,647.1z M348.3,422.6c4.1-1.3,7.1-2.3,10.2-3.1c2.1-0.5,4.8,0,4.2,2.6c-1,4.4-5.3,7.5-4.1,13.3c0.4,1.7-1.8,4.7,0.6,7
		c1.4,1.4,0,1.8-0.5,2.7c-1.2,2.1-1.1,4.6,0.2,6.6c1.5,2.1,3.9,1.5,6,0.9c5.5-1.5,8-10.6,3.6-14.8c-3-2.9-1.9-4,0-6.5
		c4.8-6.4,4.8-13.1,0.2-17.6c-4.8-4.7-11.1-4.7-16.2-1.9c-6.4,3.5-12.7,1.9-18.2,0.1c-4.9-1.6-6.6,0.3-9,3.2
		c-6.6,8.3-9.6,18.1-12.2,28.1c-0.7,2.9,0.1,5.5,3.6,4.9c5.7-0.9,6.2,2.2,6.7,6.5c0.5,4.6,4.6,6.3,8,4.1c2.1-1.4,1.1-3.9,1.8-6.1
		c1.5,1.6,3.4,2.6,5.5,3.1c3.7,0.7,6.7-1.8,5.1-4.9c-2.1-4-3.4-7.5-1.6-11.8c0.1-0.4-0.6-1.1-1-1.6c-3.3-4.4-1.6-10.4,4.3-13.1
		c0,4.5-0.2,8.8,0.1,13.1s1.3,8.5,1.8,12.8c0.3,3.1,0.9,5.5,5,5.2c3.8-0.3,4.7-2.4,4.4-5.7c-0.5-6.7-2.3-13.1-3.5-19.6
		C352.6,427.1,351.8,424.4,348.3,422.6z M341.3,363.8c-1.1,0-3.3-0.1-5.5,0c-2.3,0.1-3-0.8-2.3-3c1.8-5.7,6.3-10,12.1-11.6
		c5.6-1.5,10.7-0.5,15.6,3.8c6,5.2,5.3,27.7-1.2,32.7c-3.4,2.7-7.7,3.2-12.2,3.2c-4.4-0.1-7,2.7-6.8,6.8c0.2,4.5,3.1,6,7.1,5.6
		c10.3-0.9,22.3-8.9,24.9-19.8c1.6-7.2,2-14.5,1.3-21.8c-0.6-7.7-9-17.6-16-19.5c-16.3-4.3-31.5,5.7-34.1,22.4
		c-1.1,7.2,0.4,14.3,0.4,21.4c0,2.8,2.1,3.3,4.6,3.3s4.1-0.8,3.8-3.4c-0.5-3.9,1.8-3.9,4.5-3.8c2,0.1,4,0,6,0
		c8.3-0.1,8.3-0.1,9.1-8.3c0.8-7.7,0.2-8.3-7.4-8.2C344.3,363.6,343.3,363.7,341.3,363.8L341.3,363.8z M340.4,518.7
		c1.6,0.1,2.2,0.1,2.9,0.1c3.5,0.4,6.8-0.2,7.5-4c0.7-4-2.4-4.9-5.7-5.1c-1.5-0.1-2.1-1-1.7-2.3c0.4-1.4,0-3.6,2.5-3.6
		c1.8-0.1,3.7,0.2,5.5-0.2c4.2-1.1,5,1.3,4.8,4.6c-0.1,1.5-0.7,2.9-0.9,4.3c-0.3,2.1-0.8,4.6,1.9,5.5c2.7,0.9,5.3,0.5,6.8-2.5
		c1.2-2.4,1.5-5.2,1-7.8c-1.2-5.6,1.6-7.3,6.5-7.3c0.5,0,1-0.1,1.5-0.1c2.2,0,4.1-0.5,4.4-3.1c0.2-2.2-0.8-4.4-2.7-5.6
		c-1.5-1-3.3-0.5-4.9-0.2c-3.1,0.5-4.5,0.6-3.9-3.7c1.6-11.5-4.5-16.9-15.9-14.8c-3.8,0.7-6.6,2.2-5.5,6.5s4.5,2.7,7.3,2
		c4.6-1.1,6.3,0.5,5.5,5.1c-0.8,4.3-6.2,8.5-10.5,8.3c-1.3,0.1-2.5-0.7-2.9-2c-2.2-5.1-4-5.3-7.8-0.9c-0.7,0.9-1.9,1.3-3,1.1
		c-1.8-0.3-1-1.8-0.9-2.8c0.5-3.4,1.3-6.9,1.7-10.3c0.3-2.3-1-3.8-3.2-4.4c-2.3-0.6-3.5,1-4,2.8c-1.3,3.8-2.4,7.6-3.4,11.5
		c-0.6,2.3-0.9,4.2-3.8,5c-2.7,0.8-3.5,4.8-1.8,5.6c4.8,2.3,3.6,7.3,6.1,10.5c1.1,1.4,1,2.2-0.6,3.1c-1.9,1-2.6,3.3-1.6,5.1
		c0,0,0,0,0,0.1c0.9,2,2.8,2.8,5,2.6s4.4,0,6.3-1.2C335,519,337.7,518.3,340.4,518.7L340.4,518.7z M345.1,334.1c2.3,0,4.7,0.3,7,0
		c12.2-2.1,21.8-7.5,21.7-22c-0.1-12.4-5.7-21.7-16.7-26.8c-9.8-4.5-20.4-5.6-29.8,1.6c-6.2,4.8-9.2,11.8-9.8,19.4
		C316,323.2,327.2,334.2,345.1,334.1z"/>
	<path fill="#DFA536" d="M366.4,576.3c-6,7.2-4.2,14.6-3.1,22.1c0.7,4.6-0.9,9.2-4.2,12.4c-6,6.1-7,13.2-4.5,21.2
		c1.9,6,3.1,12.2,4.5,18.4c0.3,1.2,0.4,2.6,1.8,2.7c1.8,0.1,2-1.5,2.1-2.8c0.7-6.6,1.3-13.3,2.1-19.9c1.1-9.9,4.7-18.7,12.3-25.5
		c5.1-4.6,11.2-5.5,16.1-2.9c2.9,1.6,3.5,3.4,1,5.8c-3,2.9-6.8,4.9-10.9,5.8c-7.5,1.8-11,6.6-11.7,14.2c-0.6,6.8-0.3,13.6-1.6,20.4
		c-1.4,7.5-2.8,8.9-10.2,8.9c-12.5,0-25-0.2-37.5,0.1c-3.7,0.1-4.9-1.3-5.3-4.7c-0.9-7.5,0.5-15.1,4-21.7c4.8-9,4.2-13-3.7-19.5
		c-6-4.9-9.3-10.2-6.6-18.2c1.1-3.4-0.4-6.9-1.3-10.3c-1.1-3.4-0.8-7,0.9-10.2c1.6-2.9,3.3-3.8,5.3-0.3c0.7,1.1,1.4,2.3,2.1,3.4
		c3.5,4.9,5.3,5.1,10.2,1.8c6.9-4.8,13.8-2.7,20.2,1c3.6,2.1,6.1,3.3,9.4-0.5C359.5,576.2,362.4,576,366.4,576.3z"/>
	<path fill="#E2DF96" d="M219.1,449.3c1,27.1,1.8,54.3-1,81.4c-1.1,10.8-2.2,21.5-3.9,32.2c-1.6,9.6-18.2,17.2-28.4,12.8
		c-13-5.6-25.5-12.5-35.6-22.7c-39-39.4-47.1-85.7-29.4-137.1c10.6-30.8,31.8-54,55.9-74.6c11.8-10.1,22.7-7.6,31.9,5
		c7.2,10,10.3,21.2,10.5,33.2C219.4,402.6,219.1,426,219.1,449.3z"/>
	<path fill="#FFECCF" d="M248.9,475.1l0.8-6.3c0.7-5.3,0.2-10.1-3.5-14.5c-3.4-4-2.8-8.2,1.1-11.9c3-3.2,8-3.3,11.2-0.2l0,0
		c3.3,3.1,3.8,7.6,0.1,11.6c-4.8,5.1-5.3,10.7-4,17.1c0.9,3.7,0.9,7.6,0.2,11.4c-0.3,1.3-0.5,3.4-2.3,3.4c-1.6,0-2.4-1.7-3-3.1
		C248.7,480.6,249,478.4,248.9,475.1z"/>
	<path fill="#FFFFFF" d="M370,421.3c-0.2,4-1.8,7.8-4.7,10.7c-1,1.2-2.7,1.6-4.1,0.8c-2-1.2-0.2-2.6,0.2-3.9c0.2-0.8,1-1.4,1.4-2.1
		c1.2-2.3,3.4-4.5,1.5-7.3c-2.1-3.1-5.2-2.2-8.2-1.5c-3.7,1-7.4,1.9-11,3.2c-5.8,2-7.2,7.3-8.1,12.5c-0.4,2.3-1.1,4.3-3.4,3.8
		c-2.4-0.5-1.6-3-1.2-4.7c1.1-5.5,2.3-11,3.5-16.5c0.2-1,0.3-2.1,1.6-2.2c1-0.2,2,0.4,2.2,1.4v0.1c0.3,3.4,2.3,1.7,3.7,1.3
		c4.4-1.4,8.8-3.2,13.2-4.2C363.5,410.8,370.1,415.3,370,421.3z"/>
	<path fill="#FFFFFF" d="M325.6,429.7c-2.9,4-3.6,8.8-4.6,13.5c-0.6,2.6-1.7,3.7-4.4,3.2c-3.2-0.7-1.5-2.6-1.1-4.2
		c2.3-9.6,5.7-18.7,12-26.6c1-1.3,2.1-3.7,4.3-2.3c2.5,1.5,0.1,3.1-0.6,4.6c-1.9,4-5.2,7.3-5.6,12L325.6,429.7z"/>
	<path fill="#FFFFFF" d="M354.7,448c0.1,3.3,0.2,5-2.5,5.3s-2.9-1.5-3-3.4c-0.4-7.1-2.8-14-2.3-21.2c0.1-1.2-0.6-3,1.4-3.1
		c1.3-0.1,1.9,1.2,2.1,2.4C352,435.1,353.5,442.2,354.7,448z"/>
	<path fill="#FFFFFF" d="M325.5,429.8c2.3,0.4,2.4,2.2,2.7,4.1c0.9,6.9-0.1,13.9,2.5,20.6c0.7,1.8-0.2,2.8-2.1,3.1
		c-2.3,0.4-2.9-1.3-3.3-2.9c-1.5-6.6-1.8-13.5-0.8-20.2c0.3-1.6,0.7-3.2,1.1-4.8C325.5,429.7,325.5,429.7,325.5,429.8z"/>
	<path fill="#FFFFFF" d="M368.2,444.5c0.4,3.4-1.2,5.6-4.6,6.4c-1.1,0.3-2.5,0.6-3.1-0.6s-1.2-3,0.2-4.1c2.8-2.1,3.5-3.8-0.2-5.6
		c-0.9-0.5-1.4-1.5-1-2.5c0.5-1,1.4-1.2,2.5-1.2C366.2,436.7,368.3,439.3,368.2,444.5z"/>
	<path fill="#FFFFFF" d="M338.3,438c1.5,0.4,2.4,1.3,1.6,2.9c-1.7,3.3-2.9,6.4,1.5,8.7c1,0.5,0.9,2.1,0.3,3.2
		c-0.7,1.2-1.8,1.2-3,0.8c-3.3-1.1-5.3-3.2-5.5-6.8s1.7-6.2,4.1-8.6C337.5,438.1,337.9,438.1,338.3,438z"/>
	<path fill="#C7C031" d="M331.8,420.9c0.6,3.9-0.9,6.4-1.6,9.1C326.5,426.7,330.2,424.5,331.8,420.9z"/>
	<path fill="#C7C031" d="M331.2,443c-0.8-1.6-0.9-2.6-0.1-3.6c0.1-0.1,1,0,1.2,0.3C333.2,440.9,332.1,441.7,331.2,443z"/>
	<path fill="#FFFFFF" d="M331.4,372.9c5.1,0,10.1,0.1,15.2-0.1c2.2-0.1,4.3,0,4.5,2.5c0.1,2.5-2.2,2.6-4,2.7c-3.7,0.2-7.3,0.2-11,0
		c-3.4-0.2-5.6,0.1-4.9,4.3c0.2,1.2,0.3,2.8-1.8,2.8c-1.8,0-3-0.6-2.9-2.5c0.3-7.6-1.5-15.2,0.4-22.9c3-11.9,14-19.7,27.1-18.5
		c10.3,1,18.6,11,18.8,22.8c0.2,9.1-0.2,18-6.4,25.5c-4.3,5.4-10.5,7.5-16.6,9.5c-2.8,0.9-6.2,0.5-6.6-3.2c-0.5-4.1,2.4-5.5,6.1-5.4
		c12.9,0.2,16.4-5.8,17.5-15.2c1-8.7,2.7-18-5.5-25.1c-5.4-4.7-11.6-4.4-17.4-2.5c-6.4,1.9-11.2,7.2-12.5,13.8
		c-0.6,2.9,0.1,4.7,3.9,4.3c4.1-0.4,8.3-0.2,12.5-0.3c2.1-0.1,3.5,0.5,3.6,3c0.1,3.1-2.1,2.4-3.8,2.4c-5.4,0.1-10.7,0-16.1,0
		L331.4,372.9z"/>
	<path fill="#FFFFFF" d="M329,514.2c-3.4-3.5-5.5-7.3-5.9-12c-0.1-1-0.1-2-1.5-2.2s-2.9,0.1-2.6-2c0.2-1.2,1.3-2.1,2.6-1.9
		c2.6-0.1,2.5-2.2,3-3.9c1.1-4,2.2-8,3.4-12c0.4-1.1,0.5-3,2.3-2.6s1.8,2.2,1.5,3.7c-0.6,3.1-1.4,6.2-1.8,9.3
		c-0.2,1.4-1.9,4,0.3,4.2c2.4,0.3,5.7,1.7,7.5-1.7c0.5-1,0.6-2.4,2.2-2.1s2,1.7,2,3c0.2,4.8,0.8,9.7-1,14.3c-1,2.5-0.8,3.4,2,3.2
		c0.3,0,0.7,0,1,0c2.1,0.1,5-0.1,4.8,2.8c-0.2,2.5-2.8,2.7-5.2,2.5c-4.4-0.3-9-0.9-12.8,2.2c-0.1,0.1-0.3,0.1-0.5,0.1
		c-2.5,0.1-6.1,1.8-6.8-1.7C322.6,514,326.9,515.8,329,514.2z M337.1,502.6c0-1.8,0.3-3.7-2.2-2.6c-2.1,0.9-5.7-2.1-6.3,2.2
		c-0.4,3.1,3.3,8.6,4.9,7.8C336.3,508.4,336.8,505.3,337.1,502.6z"/>
	<path fill="#FFFFFF" d="M360.9,494.5c4.1-0.5,7.2-0.8,10.3-1.4c2.5-0.4,3.5,1.1,3.8,2.9c0.6,2.8-1.9,2-3.3,2.4
		c-0.3,0.1-0.7,0-1,0.1c-2.6,0.5-5.8,0.2-7.7,1.6c-2.3,1.7,0.4,4.8,0,7.3c-0.3,2.3,0,4.6-1,6.8c-0.8,1.8-2.2,2.6-4,1.8
		c-1.6-0.6-1.4-2.2-0.8-3.4c0.6-1.4,0.9-2.9,0.8-4.4c0.1-6.4-1-7.4-7.3-6.7c-1.3,0.1-2.7,0.1-4,0.1c-1.8,0-2.8-0.9-2.6-2.8
		c-0.1-1.2,0.8-2.2,1.9-2.3c0.2,0,0.5,0,0.7,0.1c4.7,0.5,7.7-2.2,10.3-5.6c2.5-2.8,2.9-6.9,1.1-10.2c-1.7-3.1-5.2-1.9-8.2-1.1
		c-1.5,0.4-3.4,1.4-4-1.2c-0.4-2.1,1.2-3,2.9-3.4c4.6-1.1,9.4-1.8,12.9,2.4c3.7,4.6,2.5,9.6,0.6,14.6
		C362,493,361.5,493.8,360.9,494.5z"/>
	<path fill="#FFFFFF" d="M344.9,332.2c-15.9,0.1-26.9-10.5-25.6-25.2c0.6-7,3.3-13.7,8.9-18.3c8.6-7.1,18.5-5.9,27.7-1.7
		c10.4,4.7,15.8,13.5,15.8,25c0,12.5-6.5,17.3-19.8,20.1C349.7,332.6,347.3,332.2,344.9,332.2z M352.4,291.2
		c-0.2,2.9-0.4,5.2-0.5,7.5c-0.2,3.8-1.2,7.8,1.1,11.2c2.3,3.4,5.8,1.3,8.8,1.7c1,0,1.9,0.5,2.5,1.4c0.8,1.5,1.1,2.6-0.9,3.6
		c-5.8,2.8-12.8,0.4-15.6-5.4c-0.6-1.2-1-2.6-1.1-3.9c-0.5-4.8,0.5-9.6,0.8-14.4c0.1-1,1.3-2.1-0.4-3c-2.3-1.2-5.2-0.3-6.4,2
		c-0.3,0.6-0.5,1.2-0.5,1.9c-0.3,3.6-0.6,7.3-1,10.9c-0.6,4.7-2.8,8.5-7.2,10.7c-5.1,2.6-5.2,3-1.2,7.4c1.8,2,3.9,3.7,6.7,4.1
		c5.1,0.8,10.3,0.8,15.4-0.1c10.8-2.2,15.4-8.6,13.5-18.4C364.7,300.6,360.7,294.6,352.4,291.2z M335.5,290.4
		c-7,4.1-10.3,9.2-11.1,15.8c-0.2,1.9-1.4,5,1.1,5.7c2.3,0.6,4.9-1,6.5-3c0.8-1.1,1.3-2.3,1.5-3.6
		C334.3,300.6,334.8,296,335.5,290.4L335.5,290.4z"/>
	<path fill="#C7C031" d="M333,506.9c-1.4-0.6-1.7-1.9-1.9-3.1c-0.3-1.8,1-1.7,2.2-1.7s2,0.3,1.7,1.7
		C334.6,505,334.5,506.3,333,506.9z"/>
	<path fill="#C7C031" d="M330.2,318.5c7.5-3.1,11-8.6,11-16.5c0.1-2.7,0.4-5.3,0.8-7.9c0.1-1.2,0.3-2.4,2-2.2
		c1.7,0.2,1.3,1.7,1.2,2.8c-0.2,3.3-0.6,6.6-0.6,10c0,10.6,3.4,14.1,13.9,14.3c1,0,2,0,3.1,0C356.5,327.6,336.4,327.4,330.2,318.5z"
		/>
	<path fill="#C7C031" d="M353.5,301.6c0.6-1.9-0.7-5.5,1.3-6.1c2.7-0.8,4.2,2.5,5.8,4.5c0.5,0.6,1,1.4,1.3,2.1
		c1,2.2,3.3,4.9,1.8,6.8c-1.4,1.9-5,1.2-7.5,0.7c-3.2-0.7-2.5-3.9-2.7-6.2C353.4,302.9,353.5,302.4,353.5,301.6z"/>
	<path fill="#C7C031" d="M332.6,295.7c-1.5,4.8,1.6,11.5-6.2,14C325.8,303.5,328.4,299.2,332.6,295.7z"/>
</g>
<g>
	<path d="M768.7,1018.9v1.7C768.7,1020.1,768.7,1019.5,768.7,1018.9z"/>
	<path d="M765.8,1024.7h-5.7C762.3,1024.9,764.3,1025.1,765.8,1024.7z"/>
	<path d="M358.3,340.2c-16.3-4.3-31.5,5.7-34.1,22.4c-1.1,7.2,0.4,14.3,0.4,21.4c0,2.8,2.1,3.3,4.6,3.3s4.1-0.8,3.8-3.4
		c-0.5-3.9,1.8-3.9,4.5-3.8c2,0.1,4,0,6,0c8.3-0.1,8.3-0.1,9.1-8.3c0.8-7.7,0.2-8.3-7.4-8.2c-0.9,0-1.9,0.1-3.9,0.2
		c-1.1,0-3.3-0.1-5.5,0c-2.3,0.1-3-0.8-2.3-3c1.8-5.7,6.3-10,12.1-11.6c5.6-1.5,10.7-0.5,15.6,3.8c6,5.2,5.3,27.7-1.2,32.7
		c-3.4,2.7-7.7,3.2-12.2,3.2c-4.4-0.1-7,2.7-6.8,6.8c0.2,4.5,3.1,6,7.1,5.6c10.3-0.9,22.3-8.9,24.9-19.8c1.6-7.2,2-14.5,1.3-21.8
		C373.7,352,365.3,342.1,358.3,340.2z M366.4,389.5c-4.3,5.4-10.5,7.5-16.6,9.5c-2.8,0.9-6.2,0.5-6.6-3.2c-0.5-4.1,2.4-5.5,6.1-5.4
		c12.9,0.2,16.4-5.8,17.5-15.2c1-8.7,2.7-18-5.5-25.1c-5.4-4.7-11.6-4.4-17.4-2.5c-6.4,1.9-11.2,7.2-12.5,13.8
		c-0.6,2.9,0.1,4.7,3.9,4.3c4.1-0.4,8.3-0.2,12.5-0.3c2.1-0.1,3.5,0.5,3.6,3c0.1,3.1-2.1,2.4-3.8,2.4c-5.4,0.1-10.7,0-16.1,0
		l-0.1,2.1c5.1,0,10.1,0.1,15.2-0.1c2.2-0.1,4.3,0,4.5,2.5c0.1,2.5-2.2,2.6-4,2.7c-3.7,0.2-7.3,0.2-11,0c-3.4-0.2-5.6,0.1-4.9,4.3
		c0.2,1.2,0.3,2.8-1.8,2.8c-1.8,0-3-0.6-2.9-2.5c0.3-7.6-1.5-15.2,0.4-22.9c3-11.9,14-19.7,27.1-18.5c10.3,1,18.6,11,18.8,22.8
		C373,373.1,372.6,382,366.4,389.5z"/>
	<path d="M697.1,115.8c-12.7-1.6-25.5,14.2-23.8,26.8c0.6,3.4,2.6,6.8,7.5,6.6c0.9,0,1.9-0.1,2.8-0.2c7.6-1.4,21-17.4,21.1-25.3
		C704.8,119,701.8,116.4,697.1,115.8z M701.3,125.3c-3.2,8.3-9.1,15.3-16.8,19.9c-4.1,2.4-8.3-0.2-8.3-4.8
		c0-9.8,10.1-21.2,19.2-21.9C699.7,118.2,702.7,121.5,701.3,125.3z"/>
	<path d="M726.5,124.2c3.4,1.7,7.5,1.2,10.3-1.3c5.1-3.9,8.4-9.7,9.3-16c0.6-3.2-0.8-6.4-3.6-8.1c-2.6-1.8-6-1.7-8.5,0.2
		c-3.4,2.8-7.4,5.1-9.9,8.9c-1.6,2-2.3,4.6-2,7.1C721.3,118.7,723.1,122.5,726.5,124.2z M727.1,109.5c2.6-2.9,5.6-5.5,8.7-7.9
		c3-2.1,7.8,0.6,7.3,4.1c-0.9,6.3-3.9,11.8-9.5,15.1c-4.4,2.7-8.7-0.2-8.8-6C724.8,112.8,725.6,110.9,727.1,109.5z"/>
	<path d="M332,315.4c-5.1,2.6-5.2,3-1.2,7.4c1.8,2,3.9,3.7,6.7,4.1c5.1,0.8,10.3,0.8,15.4-0.1c10.8-2.2,15.4-8.6,13.5-18.4
		c-1.7-7.8-5.7-13.8-14-17.2c-0.2,2.9-0.4,5.2-0.5,7.5c-0.2,3.8-1.2,7.8,1.1,11.2c2.3,3.4,5.8,1.3,8.8,1.7c1,0,1.9,0.5,2.5,1.4
		c0.8,1.5,1.1,2.6-0.9,3.6c-5.8,2.8-12.8,0.4-15.6-5.4c-0.6-1.2-1-2.6-1.1-3.9c-0.5-4.8,0.5-9.6,0.8-14.4c0.1-1,1.3-2.1-0.4-3
		c-2.3-1.2-5.2-0.3-6.4,2c-0.3,0.6-0.5,1.2-0.5,1.9c-0.3,3.6-0.6,7.3-1,10.9C338.6,309.4,336.4,313.2,332,315.4z M363.7,308.9
		c-1.4,1.9-5,1.2-7.5,0.7c-3.2-0.7-2.5-3.9-2.7-6.2c-0.1-0.5,0-1,0-1.8c0.6-1.9-0.7-5.5,1.3-6.1c2.7-0.8,4.2,2.5,5.8,4.5
		c0.5,0.6,1,1.4,1.3,2.1C362.9,304.3,365.2,307,363.7,308.9z M341.2,302c0.1-2.7,0.4-5.3,0.8-7.9c0.1-1.2,0.3-2.4,2-2.2
		c1.7,0.2,1.3,1.7,1.2,2.8c-0.2,3.3-0.6,6.6-0.6,10c0,10.6,3.4,14.1,13.9,14.3c1,0,2,0,3.1,0c-5.1,8.6-25.2,8.4-31.4-0.5
		C337.7,315.4,341.2,309.9,341.2,302z"/>
	<path d="M332,308.9c0.8-1.1,1.3-2.3,1.5-3.6c0.8-4.7,1.3-9.3,2-14.9c-7,4.1-10.3,9.2-11.1,15.8c-0.2,1.9-1.4,5,1.1,5.7
		C327.8,312.5,330.4,310.9,332,308.9z M332.6,295.7c-1.5,4.8,1.6,11.5-6.2,14C325.8,303.5,328.4,299.2,332.6,295.7z"/>
	<path d="M746.2,264.5c-5.3,0.5-8.4,4.6-12.2,7.2c-5.8,4-10.5,9.3-12.2,16.4c-2,8.2,1.6,12.7,10.6,12.7c6.3,0.9,10.7-3.5,14.8-8.2
		c4.7-5.4,9.5-10.8,9.5-18.6C756.8,266.8,753.3,263.8,746.2,264.5z M753.7,275.2c-1.2,9-14.2,22.6-21.9,22.7c-5.7,0.1-8.5-3.6-7-9
		c1-3.2,2.7-6.1,4.8-8.6c3.8-4.9,9.2-8,14.1-11.6c2-1.5,4.8-2.5,7-0.9C753.1,269.5,754.2,272.4,753.7,275.2z"/>
	<path d="M754.3,316.1c-7.6,0.5-15.3,13.4-12,20.1c1.4,2.9,3.4,5,7.4,4.8c7-0.4,13.6-7.9,13.7-16.4
		C763.5,318.9,760.1,315.7,754.3,316.1z M760.3,323.2c0.2,0.5,0.3,1.1,0.2,1.7c-0.7,4.8-3.4,9.2-7.4,12c-1.5,1.1-3.8,2.3-5.5,0.8
		s-3.5-3.4-2.5-6.4c1.6-4.9,2.6-10.1,8.5-11.9C756.5,318.6,759.5,320.3,760.3,323.2z"/>
	<path d="M732.4,188.6c4-3,7.7-6.4,10.9-10.1c3.1-3.7,6.1-7.5,7.4-12.3c2-7.4-1.5-12.4-8.3-12.2c-3.4-0.2-6.7,0.8-9.3,3
		c-5.9,5.1-11.5,10.6-16,17.1c-3.6,5.3-3,11,1,14.8C721.2,191.9,727.9,191.9,732.4,188.6z M719.3,177c4.6-7.1,10.5-13.3,17.3-18.3
		c2.3-1.7,5.4-3.1,8.4-1.3c1.7,1.1,3.6,2.6,3.3,4.2c-0.5,4.9-2.6,8.2-4.8,11.2c-3.9,5.4-8.7,10-14.2,13.7c-2.8,1.9-5.8,2.6-9-0.2
		C716.9,183.3,717.3,180.1,719.3,177z"/>
	<path d="M334.9,500c-2.1,0.9-5.7-2.1-6.3,2.2c-0.4,3.1,3.3,8.6,4.9,7.8c2.8-1.6,3.3-4.7,3.6-7.4C337.1,500.8,337.4,498.9,334.9,500
		z M335,503.8c-0.4,1.2-0.5,2.5-2,3.1c-1.4-0.6-1.7-1.9-1.9-3.1c-0.3-1.8,1-1.7,2.2-1.7S335.3,502.4,335,503.8z"/>
	<path d="M650.3,36.8c5.5,0,9.7-4.7,9.8-10.8c0-6-3-9-9.2-9c-6.9-0.8-9.1,4.4-9.4,12.8C641.3,34.5,644.4,36.8,650.3,36.8z
		 M650.6,19.8c3.4-0.1,6.7,2.8,6.7,5.8c0,3.4-3.8,8.5-6.6,8.2c-2.6-0.3-6-0.5-6.3-4.2C643.8,24.4,646.8,19.9,650.6,19.8z"/>
	<path d="M369.8,491.4c-3.1,0.5-4.5,0.6-3.9-3.7c1.6-11.5-4.5-16.9-15.9-14.8c-3.8,0.7-6.6,2.2-5.5,6.5c1.1,4.3,4.5,2.7,7.3,2
		c4.6-1.1,6.3,0.5,5.5,5.1c-0.8,4.3-6.2,8.5-10.5,8.3c-1.3,0.1-2.5-0.7-2.9-2c-2.2-5.1-4-5.3-7.8-0.9c-0.7,0.9-1.9,1.3-3,1.1
		c-1.8-0.3-1-1.8-0.9-2.8c0.5-3.4,1.3-6.9,1.7-10.3c0.3-2.3-1-3.8-3.2-4.4c-2.3-0.6-3.5,1-4,2.8c-1.3,3.8-2.4,7.6-3.4,11.5
		c-0.6,2.3-0.9,4.2-3.8,5c-2.7,0.8-3.5,4.8-1.8,5.6c4.8,2.3,3.6,7.3,6.1,10.5c1.1,1.4,1,2.2-0.6,3.1c-1.9,1-2.6,3.3-1.6,5.1
		c0,0,0,0,0,0.1c0.9,2,2.8,2.8,5,2.6s4.4,0,6.3-1.2c2.1-1.6,4.8-2.3,7.5-1.9c1.6,0.1,2.2,0.1,2.9,0.1c3.5,0.4,6.8-0.2,7.5-4
		c0.7-4-2.4-4.9-5.7-5.1c-1.5-0.1-2.1-1-1.7-2.3c0.4-1.4,0-3.6,2.5-3.6c1.8-0.1,3.7,0.2,5.5-0.2c4.2-1.1,5,1.3,4.8,4.6
		c-0.1,1.5-0.7,2.9-0.9,4.3c-0.3,2.1-0.8,4.6,1.9,5.5c2.7,0.9,5.3,0.5,6.8-2.5c1.2-2.4,1.5-5.2,1-7.8c-1.2-5.6,1.6-7.3,6.5-7.3
		c0.5,0,1-0.1,1.5-0.1c2.2,0,4.1-0.5,4.4-3.1c0.2-2.2-0.8-4.4-2.7-5.6C373.2,490.6,371.4,491.1,369.8,491.4z M344,511.5
		c2.1,0.1,5-0.1,4.8,2.8c-0.2,2.5-2.8,2.7-5.2,2.5c-4.4-0.3-9-0.9-12.8,2.2c-0.1,0.1-0.3,0.1-0.5,0.1c-2.5,0.1-6.1,1.8-6.8-1.7
		c-0.9-3.4,3.4-1.6,5.5-3.2c-3.4-3.5-5.5-7.3-5.9-12c-0.1-1-0.1-2-1.5-2.2c-1.4-0.2-2.9,0.1-2.6-2c0.2-1.2,1.3-2.1,2.6-1.9
		c2.6-0.1,2.5-2.2,3-3.9c1.1-4,2.2-8,3.4-12c0.4-1.1,0.5-3,2.3-2.6c1.8,0.4,1.8,2.2,1.5,3.7c-0.6,3.1-1.4,6.2-1.8,9.3
		c-0.2,1.4-1.9,4,0.3,4.2c2.4,0.3,5.7,1.7,7.5-1.7c0.5-1,0.6-2.4,2.2-2.1c1.6,0.3,2,1.7,2,3c0.2,4.8,0.8,9.7-1,14.3
		c-1,2.5-0.8,3.4,2,3.2C343.3,511.5,343.7,511.5,344,511.5z M375,496c0.6,2.8-1.9,2-3.3,2.4c-0.3,0.1-0.7,0-1,0.1
		c-2.6,0.5-5.8,0.2-7.7,1.6c-2.3,1.7,0.4,4.8,0,7.3c-0.3,2.3,0,4.6-1,6.8c-0.8,1.8-2.2,2.6-4,1.8c-1.6-0.6-1.4-2.2-0.8-3.4
		c0.6-1.4,0.9-2.9,0.8-4.4c0.1-6.4-1-7.4-7.3-6.7c-1.3,0.1-2.7,0.1-4,0.1c-1.8,0-2.8-0.9-2.6-2.8c-0.1-1.2,0.8-2.2,1.9-2.3
		c0.2,0,0.5,0,0.7,0.1c4.7,0.5,7.7-2.2,10.3-5.6c2.5-2.8,2.9-6.9,1.1-10.2c-1.7-3.1-5.2-1.9-8.2-1.1c-1.5,0.4-3.4,1.4-4-1.2
		c-0.4-2.1,1.2-3,2.9-3.4c4.6-1.1,9.4-1.8,12.9,2.4c3.7,4.6,2.5,9.6,0.6,14.6c-0.3,0.9-0.8,1.7-1.4,2.4c4.1-0.5,7.2-0.8,10.3-1.4
		C373.7,492.7,374.7,494.2,375,496z"/>
	<path d="M680.3,96.6c3.6,0.2,7.5,0.2,10.6-1.8c12.6-8.3,21.3-19.3,22.6-32c0.2-11-3.7-13.8-11.7-12.2c-8.4,1.6-13.7,7.3-18.9,13
		c-5.9,6.7-11.5,13.9-11,23.7C672.1,92.5,675.2,96.3,680.3,96.6z M686.6,64.5c4.6-4.9,9.4-9.9,16.8-11c3.5-0.5,7.1,1.5,7.3,5
		c0.9,13.1-17.2,35.5-27.3,35.2c-5.3-0.2-8.7-2.5-8.5-9.3C675.7,77.1,681,70.5,686.6,64.5z"/>
	<path d="M689.5,295.9c7.4-0.1,13.2-3.9,15.9-10.6c3-7.4-1.2-14.5-8-13.2c-7.2,1.4-12.8,5.5-15.5,12.6
		C679.6,290.7,683.3,295.9,689.5,295.9z M684.8,286.3c2.3-6.4,7.5-9.8,13.7-11.2c3.6-0.9,4.1,2.8,4.7,5.2
		c0.2,6.2-8.8,14.1-14.5,12.6C685.9,292.2,683.4,290,684.8,286.3z"/>
	<path d="M254.2,365.9c0,4.2,0.9,8.3,2.7,12c23.2,48.9,23.2,97.9,0,146.9c-0.5,1.2-0.8,2.5-0.8,3.8c-0.4,31.8-0.8,63.6-0.9,95.5
		c0,12.1,5.2,22,14.9,29.1c4.5,3.3,8.8,7.1,15.4,6.9c19.8-0.3,39.6-0.1,59.5-0.1c11.8,0,23.7,0.1,35.5,0c10.7-0.2,21.3,0.7,31.9-0.9
		c13.9-2.1,22.8-12.7,22.8-26.2c-0.5-116.1-0.5-232.2,2.1-348.3c0.1-6.8-1.7-12.3-4.5-17.8c-9.7-19.5-25.5-29.8-47.4-28.5
		c-27,1.6-54-1-80.9,0.4c-5.2,0.3-10.4-0.3-15.7,1.2c-10.1,2.8-18.8,7.5-25.5,15.6c-6.7,8.1-9.6,17-9.3,27.9
		C254.7,310.9,254.2,338.4,254.2,365.9z M360.1,657.1c-12.5,0-25-0.2-37.5,0.1c-3.7,0.1-4.9-1.3-5.3-4.7c-0.9-7.5,0.5-15.1,4-21.7
		c4.8-9,4.2-13-3.7-19.5c-6-4.9-9.3-10.2-6.6-18.2c1.1-3.4-0.4-6.9-1.3-10.3c-1.1-3.4-0.8-7,0.9-10.2c1.6-2.9,3.3-3.8,5.3-0.3
		c0.7,1.1,1.4,2.3,2.1,3.4c3.5,4.9,5.3,5.1,10.2,1.8c6.9-4.8,13.8-2.7,20.2,1c3.6,2.1,6.1,3.3,9.4-0.5c1.7-1.8,4.6-2,8.6-1.7
		c-6,7.2-4.2,14.6-3.1,22.1c0.7,4.6-0.9,9.2-4.2,12.4c-6,6.1-7,13.2-4.5,21.2c1.9,6,3.1,12.2,4.5,18.4c0.3,1.2,0.4,2.6,1.8,2.7
		c1.8,0.1,2-1.5,2.1-2.8c0.7-6.6,1.3-13.3,2.1-19.9c1.1-9.9,4.7-18.7,12.3-25.5c5.1-4.6,11.2-5.5,16.1-2.9c2.9,1.6,3.5,3.4,1,5.8
		c-3,2.9-6.8,4.9-10.9,5.8c-7.5,1.8-11,6.6-11.7,14.2c-0.6,6.8-0.3,13.6-1.6,20.4C368.9,655.7,367.5,657.1,360.1,657.1z
		 M257.3,282.3c0-19.8,12.6-35.5,32.2-39.5c15.1-3.1,30.5-1.4,45.8-1.7c17.1-0.3,34.3,0.7,51.5-0.1c26.9-1.3,40.6,16.3,47.3,35.5
		c0.7,2.1,0.5,4.6,0.5,6.9c-1,78.8-2.1,157.6-2,236.5c0,37.5-0.2,75,0.5,112.5c0.2,11.6-9.2,21.8-19.1,23.4
		c-13.6,2.2-27.3,0.7-40.9,1.1c-2.2,0.1-1.9-1.2-1.6-2.6c2.3-9.1,1.9-18.5,2.9-27.8c0.6-5.8,3.4-9.6,9.2-11
		c4.8-1.2,9.2-3.1,12.7-6.7s2.8-6.5-1.4-8.8c-5.3-2.9-12.3-2-17.7,2.6c-8.6,7.4-12.5,17-13.6,28c-0.6,5.4-1.1,10.8-1.6,16.2
		l-1.4,0.3c-1.8-6.7-3.7-13.3-5.2-20c-1.2-4.6,0.1-9.6,3.5-13c6.9-7,7.8-15.2,5-24c-1.4-4.3,2-7.1,2.8-10.7c0.3-1.4,1.9-2.6,0.7-4.1
		c-1.2-1.5-3-1.1-4.7-0.8c-1.5,0.3-3.5,0.3-4.2,1.2c-4.2,5-7.8,1.8-11.9,0c-7-3.2-14.1-4-20.6,1.5c-2,1.7-3.7,1.1-5.1-0.8
		c-0.9-1.2-1.7-2.5-2.5-3.8c-1.3-2-2.5-4.4-5.1-4.2c-3.1,0.3-4,3.1-5.1,5.5c-1.7,4-0.8,7.9,0.4,11.7c1.1,3,1.2,6.3,0.4,9.3
		c-1.8,5.8,0.1,10.4,4.1,14.5c0.9,1,1.9,1.8,2.9,2.7c8,7.1,8.4,8.9,3.5,18.4c-3.7,6.8-5,14.6-3.7,22.2c0.6,3.2,0.2,4.5-3.4,4.3
		c-9-0.5-18,0.6-26.9-0.8c-14.9-2.3-27-15.3-27-30.7c-0.1-32.3,0.5-64.7,0.8-97c0-1.1,0.3-2.3,0.9-3.3
		c23.3-50.3,23.1-100.4-1.2-150.3c-1.1-2.2-1.7-4.7-1.7-7.1C257.4,339.3,257.4,310.8,257.3,282.3z"/>
	<path d="M638.2,179.9c-5.9-0.3-13.7,4.3-16.3,9.6c-3.2,6.7,0.9,14.9,7.6,14.9c8.3,1,17.2-8.9,16.3-17
		C645.3,183.1,642.5,180.1,638.2,179.9z M642.5,190.7c-1.7,5.8-7.9,11-12.9,10.9c-4.4,0-7.4-5.7-4.9-10.1c2.2-4.2,6-7.2,10.5-8.5
		C640.4,181.6,644,185.6,642.5,190.7z"/>
	<path d="M247.7,471.7c-0.7,4.4-1.4,9,1.2,13.1c0.9,1.5,2.2,3.2,4.3,3c2.1-0.2,2.8-2,3.4-3.8c0.6-2.4,0.6-4.8,0.6-8.5
		c-0.2-1.2-0.5-3.5-0.8-5.8c-0.9-5.3-0.9-10.3,3.6-14.2c0.8-0.8,1.4-1.8,1.9-2.9c2.3-4.7,1.2-9.5-2.8-12.4
		c-3.9-2.9-9.3-2.6-12.7,0.9c-4.1,3.9-5.6,9.3-2.4,12.9C248.8,459.4,248.7,465.3,247.7,471.7z M247.3,442.4c3-3.2,8-3.3,11.2-0.2
		c3.3,3.1,3.8,7.6,0.1,11.6c-4.8,5.1-5.3,10.7-4,17.1c0.9,3.7,0.9,7.6,0.2,11.4c-0.3,1.3-0.5,3.4-2.3,3.4c-1.6,0-2.4-1.7-3-3.1
		c-0.8-2-0.5-4.2-0.6-7.5l0.8-6.3c0.7-5.3,0.2-10.1-3.5-14.5C242.8,450.3,243.4,446.1,247.3,442.4z"/>
	<path d="M325.6,429.7c0,0,0,0.1,0,0.1c0,0,0,0,0,0L325.6,429.7z"/>
	<path d="M605.6,53.6c0.8,4.7,4.2,7.4,9,7.5c10.5,0.1,20.8-11.2,20.9-23c1-8.4-6-12.5-13-9.1c-8,4-14.5,10.1-16.9,19.2
		C605.2,50,605.2,51.8,605.6,53.6z M608.4,49.9c0.9-6.1,10.9-17.2,16.8-18.6c3.2-0.9,6.6,1,7.5,4.3c0,0.1,0.1,0.2,0.1,0.3
		c1.7,7.7-9.6,22.3-17.4,22.4c-4-0.1-7.2-3.4-7.1-7.4C608.3,50.6,608.3,50.3,608.4,49.9z"/>
	<path d="M601.8,145.2c-8-0.7-13.3,4.7-19.4,8.1c-5.5,3-10,7.5-11.5,13.8c-2.2,9-1.3,17.3,11.2,16c4.9,0.5,9.8-1,13.4-4.3
		c4.7-4,8.7-8.7,11.9-14c2.3-3.9,3-8.6,1.9-13C608.5,147.8,606.1,145.6,601.8,145.2z M607,156.4c-0.7,10-15.3,23.8-25.5,24
		c-7,0.1-9.9-3.6-8.2-10.6s6.9-11.6,12.9-15.1c3.3-2.1,6.8-4,10.5-5.7C602.9,146.4,607.4,149.9,607,156.4z"/>
	<path d="M131,388.2c-18.1,29-25.6,60.7-20.2,94.6c6.8,43.5,30.7,74.7,70.3,93.9c11.3,5.5,21.2,3.9,30.1-4.9
		c2.5-2.4,5.7-4.8,6.2-8.3c1.6-11.3,2.6-22.8,3.8-34.2c2.5-26.6,1.8-53.4,0.9-80.3c0-23,0.1-46,0-69c0.1-9.9-2.2-19.6-6.7-28.4
		c-10.7-20.1-25.5-27.1-45-9.2C155.4,356.2,141.7,371,131,388.2z M176.7,341.3c11.8-10.1,22.7-7.6,31.9,5
		c7.2,10,10.3,21.2,10.5,33.2c0.3,23.1,0,46.5,0,69.8c1,27.1,1.8,54.3-1,81.4c-1.1,10.8-2.2,21.5-3.9,32.2
		c-1.6,9.6-18.2,17.2-28.4,12.8c-13-5.6-25.5-12.5-35.6-22.7c-39-39.4-47.1-85.7-29.4-137.1C131.4,385.1,152.6,361.9,176.7,341.3z"
		/>
	<path d="M316.7,448.1c5.7-0.9,6.2,2.2,6.7,6.5c0.5,4.6,4.6,6.3,8,4.1c2.1-1.4,1.1-3.9,1.8-6.1c1.5,1.6,3.4,2.6,5.5,3.1
		c3.7,0.7,6.7-1.8,5.1-4.9c-2.1-4-3.4-7.5-1.6-11.8c0.1-0.4-0.6-1.1-1-1.6c-3.3-4.4-1.6-10.4,4.3-13.1c0,4.5-0.2,8.8,0.1,13.1
		c0.3,4.3,1.3,8.5,1.8,12.8c0.3,3.1,0.9,5.5,5,5.2c3.8-0.3,4.7-2.4,4.4-5.7c-0.5-6.7-2.3-13.1-3.5-19.6c-0.7-3-1.5-5.7-5-7.5
		c4.1-1.3,7.1-2.3,10.2-3.1c2.1-0.5,4.8,0,4.2,2.6c-1,4.4-5.3,7.5-4.1,13.3c0.4,1.7-1.8,4.7,0.6,7c1.4,1.4,0,1.8-0.5,2.7
		c-1.2,2.1-1.1,4.6,0.2,6.6c1.5,2.1,3.9,1.5,6,0.9c5.5-1.5,8-10.6,3.6-14.8c-3-2.9-1.9-4,0-6.5c4.8-6.4,4.8-13.1,0.2-17.6
		c-4.8-4.7-11.1-4.7-16.2-1.9c-6.4,3.5-12.7,1.9-18.2,0.1c-4.9-1.6-6.6,0.3-9,3.2c-6.6,8.3-9.6,18.1-12.2,28.1
		C312.4,446.1,313.2,448.7,316.7,448.1z M331.2,443c-0.8-1.6-0.9-2.6-0.1-3.6c0.1-0.1,1,0,1.2,0.3
		C333.2,440.9,332.1,441.7,331.2,443z M330.2,430c-3.7-3.3,0-5.5,1.6-9.1C332.4,424.8,330.9,427.3,330.2,430z M339.9,440.9
		c-1.7,3.3-2.9,6.4,1.5,8.7c1,0.5,0.9,2.1,0.3,3.2c-0.7,1.2-1.8,1.2-3,0.8c-3.3-1.1-5.3-3.2-5.5-6.8s1.7-6.2,4.1-8.6
		c0.2-0.1,0.6-0.1,1-0.2C339.8,438.4,340.7,439.3,339.9,440.9z M348.3,425.6c1.3-0.1,1.9,1.2,2.1,2.4c1.6,7.1,3.1,14.2,4.3,20
		c0.1,3.3,0.2,5-2.5,5.3s-2.9-1.5-3-3.4c-0.4-7.1-2.8-14-2.3-21.2C347,427.5,346.3,425.7,348.3,425.6z M368.2,444.5
		c0.4,3.4-1.2,5.6-4.6,6.4c-1.1,0.3-2.5,0.6-3.1-0.6c-0.6-1.2-1.2-3,0.2-4.1c2.8-2.1,3.5-3.8-0.2-5.6c-0.9-0.5-1.4-1.5-1-2.5
		c0.5-1,1.4-1.2,2.5-1.2C366.2,436.7,368.3,439.3,368.2,444.5z M335.9,416.3c0.2-1,0.3-2.1,1.6-2.2c1-0.2,2,0.4,2.2,1.4v0.1
		c0.3,3.4,2.3,1.7,3.7,1.3c4.4-1.4,8.8-3.2,13.2-4.2c6.9-1.9,13.5,2.6,13.4,8.6c-0.2,4-1.8,7.8-4.7,10.7c-1,1.2-2.7,1.6-4.1,0.8
		c-2-1.2-0.2-2.6,0.2-3.9c0.2-0.8,1-1.4,1.4-2.1c1.2-2.3,3.4-4.5,1.5-7.3c-2.1-3.1-5.2-2.2-8.2-1.5c-3.7,1-7.4,1.9-11,3.2
		c-5.8,2-7.2,7.3-8.1,12.5c-0.4,2.3-1.1,4.3-3.4,3.8c-2.4-0.5-1.6-3-1.2-4.7C333.5,427.3,334.7,421.8,335.9,416.3z M315.5,442.2
		c2.3-9.6,5.7-18.7,12-26.6c1-1.3,2.1-3.7,4.3-2.3c2.5,1.5,0.1,3.1-0.6,4.6c-1.9,4-5.2,7.3-5.6,11.9c2.2,0.4,2.3,2.2,2.6,4.1
		c0.9,6.9-0.1,13.9,2.5,20.6c0.7,1.8-0.2,2.8-2.1,3.1c-2.3,0.4-2.9-1.3-3.3-2.9c-1.5-6.6-1.8-13.5-0.8-20.2c0.3-1.6,0.7-3.1,1.1-4.7
		c0,0,0,0,0,0c-2.8,4-3.5,8.7-4.5,13.4c-0.6,2.6-1.7,3.7-4.4,3.2C313.4,445.7,315.1,443.8,315.5,442.2z"/>
	<path d="M46.4,296.7c4.6-6.8-0.4-14.5-8.6-14.4c-7.8,0.1-17.9,8.5-19.3,16.1c-1.2,6.3,2.2,10.8,8.1,10.8
		C35.7,309,41.8,303.5,46.4,296.7z M29.4,305.9c-2.7,0.9-4.8,0.4-6.8-2.2c-1.9-2.4-1.3-4.3-0.2-6.3c2.2-4.3,5.5-7.9,9.6-10.5
		c5.6-3.7,12.5-1.3,12.7,4.6c-0.3,0.9-0.3,2.4-1,3.4C40,299.9,35.4,303.9,29.4,305.9z"/>
	<path d="M345.1,334.1c2.3,0,4.7,0.3,7,0c12.2-2.1,21.8-7.5,21.7-22c-0.1-12.4-5.7-21.7-16.7-26.8c-9.8-4.5-20.4-5.6-29.8,1.6
		c-6.2,4.8-9.2,11.8-9.8,19.4C316,323.2,327.2,334.2,345.1,334.1z M319.3,307c0.6-7,3.3-13.7,8.9-18.3c8.6-7.1,18.5-5.9,27.7-1.7
		c10.4,4.7,15.8,13.5,15.8,25c0,12.5-6.5,17.3-19.8,20.1c-2.2,0.5-4.6,0.1-7,0.1C329,332.3,318,321.7,319.3,307z"/>
	<path d="M26.9,881.7c1.4-0.5,1.5-2.1,1.4-3.4c-0.3-3.4-0.8-6.9-1.3-11.2c4.3,2.5,5,5.8,5.8,8.9c0.3,1.1,0.3,2.7,1.7,2.8
		c1.9,0.1,1.6-1.7,2-2.9c0.3-0.8,0.4-1.6,0.6-2.4c0.2-0.8,0.5-2.2,1.7-2c0.9,0.3,1.7,1,2.1,1.9c0.3,0.9,0.4,1.9,0.2,2.9
		c-0.1,2.5,1.2,3.2,2.9,1.6c4.1-3.8,6.4-8.8,9.3-13.4c0.2-0.4-0.1-1.2-0.4-1.8c-4.6-11.3-21.5-15.3-30.9-7.3
		c-0.9,0.7-1.6,1.7-1.9,2.8c-1.8,7.8-1.3,15.2,3.5,21.8C24.4,881.1,25.5,882.2,26.9,881.7z M23.7,857.7c2.8-2.8,14.7-4.4,18.5-2.3
		c8.6,4.5,9.2,8.5,2.2,17c-2.7-2.2-4.8-6.8-9.3-2.4c-1,1-1.3-0.5-1.7-1c-1-1.6-2.3-2.9-3.8-3.9c-3.1-1.8-4.9-0.6-5.2,2.6
		c-0.2,2.4,0.3,4.9,0.5,7.5C21.6,870.9,20.9,860.5,23.7,857.7z"/>
	<path d="M9.6,1016.5c1.2,1,2.7,2.3,4.5,1.2c1.6-1,1-2.7,1-4.1c0.1-2-1.3-4.6,2.1-5.2c3.4-0.6,4-3.1,3.9-6c0.1-3.7-0.5-7.3-1.6-10.8
		c-0.8-2.1-0.2-3.9-0.1-5.9c0-1.3,1-2.4,2.3-2.4c1.7-0.3,1.5,1.2,1.9,2.2c1.4,3,0.9,6.1,0.5,8.7c0.1,1.2,0.1,1.8,0.1,2.5
		c0.5,5.9,1.9,6.6,7,4c2-1,4.9-2.3,5.8,1.6c0.2,1,0.3,2,1.7,1.9c1.4-0.1,1.1-1.4,1.2-2.3c0.3-6.3-4.7-13.2-10.9-14.9
		c-1.4-0.4-2.7-0.6-2.7-2.3c0-2.8-1.4-4.5-4.3-4.3s-5.2,1.6-5.4,4.8c-0.2,2.2-1,3.3-3.1,3.8c-7.4,1.7-9,8.2-10.1,14.1
		C2.3,1008.5,5.4,1013.1,9.6,1016.5z M27.8,990.7c0.8-1.5,2.3-1,3.4-0.2c2.3,1.4,3.9,3.7,4.5,6.3c-1.4,0.2-2.8,0.4-4.2,0.4
		c-1.5,0-2.8,3.1-4,0.7C26.5,995.6,26.6,992.9,27.8,990.7z M11.5,992.6c3.1-2.2,5.3-1.4,6,2.2c0.4,2.4,0.7,4.9,0.8,7.4
		c0.1,1.1,0.3,2.7-1.2,2.9c-5.3,0.7-5,4.8-5.1,8.7C4.4,1008.7,4.3,997.6,11.5,992.6z"/>
	<path d="M208.4,123.1c-8.2,2.6-15.5,10.4-16.2,19c-0.7,7.3,2.5,10.7,10,10.7c8.4,0,25.5-12.3,28.5-20.3c2-5.5-0.8-10-6.5-11.5
		S213.6,121.4,208.4,123.1z M228,130.2c-2.1,6.9-19.3,19.9-26.2,19.8c-4.7-0.1-7.7-3.8-6.5-8.4c1.4-5.7,4.2-11.7,9.1-13.7
		c6.1-2.5,12.6-6.7,20-3.8C226.9,125.1,229,127,228,130.2z"/>
	<path d="M101.1,59.3c7.1,0,13.4-4.6,15.6-11.4c1.3-4.5-1.2-9.7-5.4-10.9c-5.6-1.6-14.4,1.5-18,6.2c-2.2,3.1-3.1,7-1.1,9.8
		S96.3,60.2,101.1,59.3z M97.5,43.7c2.9-3,6.6-3.5,10.2-4.1c3.2-0.1,5.9,2.5,6,5.7c0,0.9-0.2,1.8-0.6,2.6c-1.5,3.4-4.2,6.1-7.5,7.7
		c-4.2,2-8.4,0.5-10.8-4.1C93.1,48.2,95.4,46,97.5,43.7z"/>
	<path d="M420,52.7c0,6,2.8,9.3,7.7,9.3c7.8-0.1,13.8-5.9,13.8-13.3c-0.1-6.2-3.3-8.8-11.1-8.7C424.4,40,419.9,45.5,420,52.7z
		 M438.7,49.1c-0.1,4.4-6.3,10.1-10.9,10c-2.5,0-5.1-3.5-5-6.8c0.1-4.8,4.4-9.6,8.5-9.4C435.6,43.1,438.8,45.8,438.7,49.1z"/>
	<path d="M390.9,85.1c-2.5,0-5,0.4-7.4,1.1c-5.3,1.7-8.5,7.5-7.6,13.6c0.8,5.2,4.6,8.2,10.6,8.3c2.3,0.1,4.7-0.1,6.9-0.8
		c6.2-1.8,9.9-7.6,9-14.3C401.7,88,397.6,85.2,390.9,85.1z M387.1,105.2c-4.3,0.1-8.5-3.8-8.5-7.6c0.1-5,5.5-9.4,11.9-9.6
		c5.1-0.2,9.2,3,9.1,7.1C399.6,100.7,394,105.1,387.1,105.2z"/>
	<path d="M180.9,112.9c3.7-1,6.1-3.8,8.6-6.5c3.4-3.7,5-8,3.1-12.8c-2.2-5.6-7.4-4.8-12-4.3c-11.4,1.2-13.7,3.4-13.8,12.1
		C166.6,112,171,115.6,180.9,112.9z M176.5,93.8c2.5,0.1,4.8-2,7.6-1.9c5.1,0.3,7.4,3.7,5.4,8.3c-1.6,3.5-4.2,6.4-7.5,8.4
		c-2.9,1.9-6.3,2.9-9.4,1.1c-2.9-1.7-2.3-5.4-3.2-7.6C169.9,97.1,170.8,93.6,176.5,93.8z"/>
	<path d="M738.1,1024.1c-3.7-70.6-9.7-140.9-26-209.9c-10.6-44.6-25.9-87.7-41.5-130.8c-12.3-34-27.3-66.8-42.8-99.4
		c-10.1-21.3-20.3-42.7-29.2-64.5c-7.9-19.5-10.2-39.9-4.8-60.7c5.4-20.5,20.1-25.9,37.2-13.1c15.2,11.5,26.6,26.5,36.8,42.5
		c14,21.9,21.7,46.4,28.3,71.2c16.9,63.2,30.2,127.2,41.1,191.8c8.9,52.7,14.7,105.9,20,159.1c3.3,32.5,6.4,65,9.7,97.5
		c0.1,1.2-0.4,2.8,1.2,3.5c0,2.3,0.5,5.1,0.6,7.6V0H505.1v0.1c-0.3,14.5-0.7,29-0.8,43.5c0,2.9-1,3.7-3.7,3.6
		c-11.8-0.1-23.7-0.2-35.5,0c-3.9,0.1-3.5-1.5-2.8-4.1c3.5-12.4,5.1-25.2,4.7-38c0-1.1,0.6-2.9-0.5-3.5c0.1-0.5,0.3-1.1,0.4-1.6
		h-1.6c-0.2,0.5-0.3,1-0.4,1.5c-1.6,0.4-0.7,2.6-0.7,3.7c0.4,32.6-10.2,61.4-30.3,86.9c-14.5,18.4-33.6,28-57,30.1
		c-30,2.7-58.7-1.5-86.3-13.8c-1-0.5-2.3-1.8-3.6-0.4c-1.5,1.6,0.8,2.1,1.1,3.3c2.1,8.3,2.3,16.8,1.6,25.3c-0.8,9.8-4.4,18.8-9,27.3
		c-10,18.6-24.4,34.4-41.9,46.1c-11.5,7.8-23.7,11.9-37.6,11.1c-13.1-0.7-26.3-1.1-39.4-1.8c-8.2-0.5-16-3-23.5-6.3
		c-1.2-0.5-2.7-1.7-3.6-1.4c-1.2,0.4-2.8-0.6-3.6,0.9c-1,1.8,0.8,2.3,1.7,3.1c5.7,5.3,10.2,11.4,11.8,19.3
		c1.2,5.6,0.9,11.4-3.1,15.6c-16.7,17.6-31.1,37.1-43,58.2c-0.6-0.5-1.1-0.8-1.2-1.1c-5.6-16.7-17.2-27-33.7-32
		c-5.1-1.6-10.2-2.9-15.3-4.4c-1.2-0.4-3.1-0.5-3.2-1.9c-0.2-1.8,1.9-1.9,3.1-2.7c0.1-0.1,0.3-0.2,0.4-0.2
		c20.3-5.8,27.5-21.5,30.4-40.3c0.9-5.9,2.5-11.7,2.2-17.8c0-1.7,0.6-3.3,1.7-4.5c9.9-12.7,16-27.2,20.4-42.5
		c1.2-4.4,2.9-8.1,6.4-11.3c11.2-10.3,14-23.3,10.8-37.9c-0.2-0.8-0.3-1.6-0.4-2.5c0-0.3,0.1-0.7,0.1-1c1.7-0.7,2.3,0.9,3.2,1.6
		c3.8,3,7.5,6.1,11.2,9.1c23.7,18.8,51.8,10.5,68.5-3.4c8.8-7.3,15.5-16.7,19.6-27.3c1-2.7,1.8-3.3,4.4-1.6
		c16.6,10.2,34.2,10.7,52.5,5.8c7.3-2,12.4-6.9,16.8-12.8c6.8-9.1,10.7-19.5,13.6-30.3c0.6-2.7,2.4-5,4.9-6.2
		c16.2-8.6,25.4-26,23.3-43.5H4.4C115,0.1,225.6,0.2,336.1,0.1c-0.1,0.5-0.2,1-0.3,1.5c-0.8,18.3-8.4,32.3-25.3,40.4
		c-2.3,1.1-2.6,2.8-3.1,4.7c-2.6,9.8-6.1,19.4-11.5,28c-3.9,6.1-8.4,11.8-15.5,14.4c-18.5,6.7-36.3,5.1-53-5.7
		c-5.1-3.3-4.9-3.4-7.1,2.1c-9.5,24-26.7,38.6-52.6,41.7c-14,1.7-24.9-5.8-35.4-13.7c-8-6.1-15-13.4-22.5-21.9
		c2.5,6.7,4.7,12.2,6.6,17.9c5.1,14.8,1.7,27.7-9.5,38.3c-3.6,3.4-5.4,7.2-6.7,11.7c-4.1,14.7-10,28.5-19.2,40.9
		c-7.3,9.9-16.8,16.4-29,18.9c-17.7,3.5-34.9,0-51.9-5.2c0-69.9,0-139.9-0.1-209.8v569.8l0.1,0c8.4-13.2,16.1-26.8,25.4-39.3
		c5.5-7.5,11-15.1,18.3-21c6.7-5.4,14-8.2,22.7-5.9c9.5,2.5,13.1,6.5,12.5,16.3c-1.4,23.6-7.2,46.1-20.1,66.1
		C42.2,616.3,22.7,640.1,2,663c-0.5,0.6-1,1.4-2,1.2v355.7C0.2,949,0.2,878,0.1,807.1c3-0.2,6.1,0,8.1-2.9c1.2-1.8-0.7-6.3,4.5-4.8
		c0.8,0.2,0.8-2.7-0.2-3.9c-1.7-2.1-3.5-4-5.3-5.9c-1.1-1.2-1.9-2.4-0.3-3.8c0.8-0.9,2.2-0.9,3-0.1c0.2,0.2,0.3,0.3,0.4,0.5
		c4.4,5.8,11.5,9.1,14.6,16.2c1.6,3.6,4.7,5.6,9,3.2c1.6-1,3.6-1.1,5.3-0.5c5.2,2,6.2-1.3,6.7-5c0.6-5.4-0.8-10.6-3-15.5
		c-1.5-3.2-2-6.3-0.8-9.7c1.1-2.9,2.2-2.9,3.9-0.5c3.5,5,5.2,10.7,7,16.4c0.7,2.1,0.7,4.6,3.1,5.3c2.7,0.8,3-2,4-3.5
		c0.9-1.3,2-2.2,3.7-1.9s2.8,1.2,2.8,3c0.1,2.6,0.2,5.3,3.5,5.7c3.3,0.4,6.7,0,9.5-2.2c1.8-1.4,1.6-2.9-0.6-3.7s-5.8-1.5-4.5-4.6
		s4.6-1.5,7.2-0.8c0.8,0.2,1.6,0.6,2.4,0.8c2.8,0.6,6.2,3.5,7.4-2c0.1-0.6,0.7-0.7,1.2-0.4c7.3,4,6.6-2.4,7.7-6.1
		c1.1-3.8,1.1-8.1,4.2-11.4c0,6.6-0.1,12.9,0,19.2c0,4.6,1.1,5.2,5.1,2.8c1,1.4,0.3,4.2,2.6,4.4s3.1-2.1,4-3.8
		c1.6-3.5,3.7-6.7,6.3-9.5c2.7-2.8,5.6-5.3,9.9-5c2.5,0.1,4.1,0.6,1.8,3.4c-3.9,4.7-0.1,11-3.1,15.9c-0.1,0.2,0.2,0.6,0.4,0.9
		c2.1,2.7,5.1,2,7.9,1.9c2.6-0.1,5.3-0.6,6.2-3.3c0.8-2.5-1.8-3.6-3.1-5.2c-0.1-0.2,0-0.6,0-1.7h8.2c2.5,0,4.9-0.6,5.7-3.1
		c1.1-3.2,3-2.3,5.2-1.7c1.5,0.4,3.2,1.7,4.7,0.2s-0.1-3.1-0.6-4.5c-0.3-0.6-0.5-1.2-0.7-1.8c-0.6-2.8,0.2-5.8,2.2-7.9
		c1-1.2,2.8-1.4,4.1-0.4c2.6,1.7,3,4.3,2.7,7c-0.5,4.3-1.4,8.5-1.9,12.8c-0.2,1.8-1.2,4.1,0.8,5.6c1.9,1.5,2.7-2.2,4.6-1.5
		c0.8,1.8,0.4,4.5,3,4.8c2.6,0.2,2.9-2.3,3.9-4c1.3-2.3,2.5-4.8,4-6.9c2.7-4.1,7.1-6.6,12-7c-2.2,3.9-3.2,7.3-0.3,10.9
		c0.4,0.6,0,1.9-0.2,2.9c-0.3,1.7-1.9,3.5,0,5c1.9,1.6,3.6,0.2,5.1-0.6c4.7-2.1,9.2-3.2,14.4-1c3.8,1.6,6.4-0.4,6.8-4.7
		c1.9,0.3,2.8,3.2,4.8,2.1c2.2-1.2,1-3.6,0.9-5.5c-0.4-3.9,0.7-7.8,3.1-10.9c0.9-1.1,1.6-3,3.4-2.4c1.2,0.4,1.3,2.2,1.5,3.5
		c0.9,5.4-0.4,10.6-1.1,15.9c-1.1,7.6,1.1,9.3,8.6,7.3c5.1-1.4,8.7-5,13.3-8.8c-0.2,5.5,2.2,10.8-0.8,14.8
		c-7.4,9.6-15.5,18.7-23.3,28c-1.3,1.6-2.2,2-3.8,0.2c-6.1-6.6-4.8-19.3,2.5-24.3c4.7-3.2,4.9-6.8,0.3-10.3
		c-3.2-2.5-6.8-3.4-10.8-1.9c-6.9,2.6-9.9,8-10.8,14.9c-0.9,7.6,1.1,14.5,4.9,21c2.9,5.1,5.6,10.2,6.2,16.2c0.8,8.3-0.7,10-8.8,10.9
		c-2.5,0.3-3.4-0.5-3.3-2.9c0.2-3.5-1.9-5.9-4.3-8c-3.2-2.9-7-4.3-11-5.6c-7-2.3-10.6-7.1-10.7-14.5c0-3.7,0-7.3,0.2-11
		c0.1-3.3-0.6-6-4-7.2c-3.6-1.3-7.2-0.8-9.4,2.5c-1.8,2.8-4,3.5-7,3.7c-3.9,0.2-7.4,2-10.9,3.4c-2.6,1.1-5.3,1.9-8.2,1.1
		c-1.9-0.5-2.6-1.1-2.7-3.3c-0.3-7.3-4.9-11.5-13.9-12.8c-7.5-1.1-13.7,2.3-16,8.9c-0.4,1.2-1.4,2.6-0.2,3.7c1.6,1.5,2.8-0.1,3.9-1
		c3.4-2.7,6.4-3.4,9,1.2c0.9,1.7,2.6,1.4,4.4,1.2s4.6,0.7,2.8,3.3c-2.9,4.2-1.5,8,0.1,11.8c2.6,6.1,5.5,12.1,6.9,18.7
		c0.8,3.5,3.2,6.4,6.4,7.8c6,2.9,6.6,4.7,3.8,10.9c-0.9,2.1-2.1,4.2-3.6,6c-9.9,12-10.9,25.7-8,40.2c1.4,7.1,4.2,8,10.1,3.9
		c1.6,3.1,3.1,6.3,6,8.5c1.3,1,2.7,2.3,4.5,1.3c1.6-0.9,1.3-2.6,1.2-4c-0.3-5.2-2-10.1-3-15.2c-0.2-1.2-1-2.9,0.8-3.4
		c1.6-0.5,2.8,0.8,3.6,2.1c0.8,1.3,0.6,2.9,0.5,4.4c-0.1,1.3-0.5,3.2,1.3,3.1c1.6,0,1.6-1.9,1.7-3.2c0.3-5.4,0-10.8-1-16.1
		c3.6,2.7,4.9,5.8,6,9.2c0.9,3,1.8,6.1,3,9c1.1,2.5,2.7,4.7,5.8,4.8c8.8,0.1,17.6,1,26.3-0.3c7.3-1.1,12.1-4.9,11.7-10.7
		c-0.8-10.6-2.5-21.2-6.7-31c-1-2.2-2.1-4.2-0.4-6.5c1.6-2.3,4.1-2.6,6.7-2.3c12.8,1.2,20-6.1,18.5-18.7c-0.2-1.5-0.4-3-0.8-4.4
		c-0.5-2.2-0.6-4.9,1.1-6s4.1,0.5,5.8,1.7c1.6,1.2,2.9,2.7,4,4.4c1.7,2.4,3.1,5.1,4.9,7.6c2,2.8,3.8,6.8,7.8,2.2
		c0.7-0.7,1-0.4,1.6,0c2.8,2.2,3.9-0.1,4.8-2.1c1.7-3.6,2.2-7.8,1.2-11.7c-0.9-3.6-2.4-7-4.6-10c-1.1-1.6-1.4-3.3,0-4.5
		c1.8-1.6,3.1,0.5,4,1.6c1.5,1.8,3.1,3.2,2.7,6.4c-0.4,3.2,1.4,6.8,2.2,10.1c0.2,0.9,0.7,1.6,1.7,1.5c1.3-0.2,1.4-1.2,1.1-2.3
		c-0.3-1.3-0.7-2.8,1.3-3c1.6-0.2,3.1,0.3,3.4,2.2c0.6,4.2,3.4,4.3,6.7,3.9c2-0.3,4-0.6,5.9-0.7c2.7-0.1,3.9,1,2.1,3.6
		s-3.6,4.8-5.3,7.2c-2.6,3.7-2,6.2,2.3,7.6c5.4,1.8,11.3,1.8,16.7-0.1c3.6-1.3,5.7-3.7,5.3-8c-0.3-3.1-0.1-6.2-0.1-9.7
		c4.6,1.2,6.7,4.2,8.2,7.8c0.9,2.4,2.3,4.8,5.2,4.7c3.3,0,5.5-2.1,7-5c1-2,0.7-4.2,0.8-6.4c0.1-2.6-1.4-5.1-0.6-8.3
		c3.4,2.4,3.4,5.8,3.6,9c0.1,2,0.3,4.9,2.8,4.3c5.7-1.5,10,3.3,15.2,2c0.3,2.5-3.1,3-1.2,5.4c1.2,1.8,3.2,2.7,5.3,2.5
		c11.8-0.4,23.7-0.5,35.5-1c3.3-0.1,5,0.7,6.1,4c5.1,15.2,11.9,29.6,19.4,43.7c0.7,1.2,1.9,2.3,1.5,4.2c-2.4,0.3-4.9,0.7-7.4,1
		c-19.6,2.5-36.1,11-49.8,25.2c-8.2,8.5-12.2,18.3-11.5,30.3c0.7,13.5,4,26.7,9.7,39c1.1,2.2,2.9,4.5,3.2,7.4
		c-120.6,0-241.1,0-361.7,0.1c-3.4,0-4.4-0.5-4.4-4.3v4.8h760.2c-1.7-0.2-3.5-0.4-5.1-0.4L738.1,1024.1z M120,815.9
		c5.5-5.7,17.8-4.3,21.3,1.9c1,1.8,1.6,4,0,5.6c-1.8,1.7-3.1-0.7-4.7-1.2C131.1,820.6,126.9,815.4,120,815.9z M216,915.6
		c0.2,5.2-4.4,6.6-8.7,7.4c-8.6,1.5-17.2,0.5-25.8,0.4c-2.5,0-3.4-1.8-4.1-3.7c-1-2.8-1.8-5.7-2.7-8.6c-1.2-4-3.5-7.6-6.6-10.4
		c-1.1-1-2.4-2-4-1.3c-1.8,0.8-1.2,2.6-1,4c0.2,1.4,0.6,2.9,0.9,4.4s0.5,2.7-2.1,2.5c-4.8-0.5-6.3,1.3-5.5,6
		c0.6,3.4,1.5,6.8,2.3,10.2c0.4,1.6,1,3.4,0.2,5.3c-2.4-0.7-3.4-2.7-4.4-4.5c-3.5-6.5-3.4-6.5-9-1.8c-5.3-8.3-4.4-29.3,1.5-36.9
		c1.4-1.9,2.3-0.9,3.6-0.2c5.3,2.8,8.1,1.7,10.4-4c0.9-2.2,1.5-4.4,2.3-6.6c0.4-1.1,1.1-2.2,2.6-1.7s1.3,1.8,1.1,2.9
		c-0.2,1.5-0.7,2.9-0.9,4.4c-0.6,3.7,0.9,6.2,4.5,7.3c3.6,1.1,6.2-0.6,7.6-3.9c0.8-2.2,1.4-4.4,1.8-6.7c0.5-2.1,0.8-4.2,1.2-6.7
		c2.9,1.1,3.6,3.8,5,5.9c5.1,8.1,11,9.9,19.4,5.2c2.6-1.4,3.6-0.8,4.4,1.4C213.6,895.4,215.6,905.4,216,915.6z M220.3,872.4
		c-5.7-0.8-9.4,0.8-12.4,5.8c-4.5,7.6-14,7.4-18.8,0.1c-1.5-2.4-3-4.8-4.7-7.1c-0.9-1.2-2.1-2.4-3.7-2c-1.7,0.4-2.1,2.1-2.4,3.5
		c-0.7,3.4-1.1,6.9-1.9,10.3c-0.6,2.6-1.4,5.7-5.1,4.6c-3.4-1-2.4-3.8-2-6.3c0.3-1.3,0.5-2.6,0.6-3.9c0.2-2.1-1.2-4-3.2-4.4
		c-2.2-0.6-4.2-0.1-5.2,2c-1.3,2.7-2.1,5.6-3.3,8.3c-1,2.4-2.2,4.6-5.6,2.9c-3.7-1.8-1.3-3.5-0.2-5.5c1.2-2,2.2-4.1,3.1-6.3
		c2.1-6.1,0.7-9.4-5.1-12c-2.8-1.2-5-2.9-5.6-5.9c-1.6-7.4-5.1-14-7.8-21c-2.5-6.7,0.2-9.9,7.1-8.2c5,1.4,10.4,0.8,15-1.6
		c2.5-1.4,5.3-2.2,8.1-2.4c3.7-0.1,6.8-1,8.7-4.6c1.2-2.2,3.5-2.3,5.8-1.8c2.5,0.6,2.7,2.6,2.6,4.7c-0.1,2.2-0.2,4-0.3,5.9
		c-0.4,14.7,2.4,18.5,16,23.8c5.3,2.1,10.6,4.6,10.3,11.8c-0.1,1.6,0.8,3,2.2,3.6c6,2.8,15.2-2.7,15.6-9.3c0.4-8-2.6-15-6.5-21.7
		c-3.6-6.2-5.6-12.8-4.6-20c0.7-5.5,3-9.8,8.4-12c2.8-1.3,6.1-0.8,8.4,1.3c2.4,2,3,3.5-0.1,5.7c-9.1,6.4-10.5,19.8-2.9,28.5
		c1.9,2.2,2.8,4.2,2.3,7.1c-0.6,4,0.8,7.9,1.3,11.9C235.3,866.7,228.7,873.7,220.3,872.4z M600.3,440.8
		c-10.2,10.3-11.1,23.8-12,37.1c-0.9,13.1,1.9,25.8,6,38.2c1.2,3.6,0.4,4.8-3.2,5c-6,0.3-11.6,2.3-18.4,3.7
		c12.2-34.1,16-68.7,13.8-105.3c5.1,6.8,9.3,12.4,13.4,18C600.7,438.5,601.7,439.4,600.3,440.8z M768.2,984.8
		c-0.9-0.9-0.8-2.1-0.9-3.3c-3.8-37.8-7.3-75.6-11.3-113.3c-6.4-60.1-14.8-120-27-179.2c-10.2-49.5-20.7-99-34.8-147.6
		c-10.2-34.9-26.7-65.9-53.1-91.3c-4.3-4.2-8.9-8.1-14.3-10.7c-6-2.9-12.2-4.7-18.8-2.6c-3.1,1-4.8,0.1-6.6-2.3
		c-14.1-17.8-24.5-37.5-30.1-59.6c-2.6-10.2-5-20.5-3.7-31.1c3-24.8,11.9-47.3,26-67.9c0.6-0.8,0.8-2.3,2.4-2
		c8.5,12.4,20,20.1,34,22.5c10,1.7,19.2-0.9,27.5-6.4c2.3-1.5,4.9-3.5,4.5-6.7s-3.3-4-5.8-4.8c-5.1-1.7-8-5.2-9.5-10.1
		c-2.8-9-4.3-18.4-8.9-27.4c7.5,0.6,12.4-2.8,16.2-8c2.4-3.2,1.8-7.5-0.9-9.1c-6-3.4-16.7-0.6-19.6,5.6c-1.5,3.1-2.3,3.3-5.1,1.4
		c-9.7-6.8-19-6.8-26.7,1c-3.9,4-6.6,3.1-10.5,0.8c-26.2-15.3-41.2-44.4-35.7-72.8c5-26.6,21.3-44.9,46.1-55.8
		c12.7-5.5,25.4-10.8,38.2-16.1c1.1-0.4,2.2-1.8,3.8-0.4c-2.1,7.3-3.7,14.8-4.7,22.3c-2,17.5-2,35,7.6,50.4
		c18.9,30.4,46.1,48.3,81.9,52.3c6.8,0.8,13.8,0.8,21.1,1.2c-0.8,1.2-1.4,2-2,2.8c-14.3,19.6-26.9,40.1-34.2,63.4
		s-8.6,46.4,4.1,68.7c11.8,20.8,28.6,37.1,46.8,52.1c0.8,1.2,2.4,1.6,3.9,1.3v36c-10-5.2-20.1-10.3-31.6-11.4
		c-3.5-0.3-5.1-1.8-6.3-5c-6.2-16.1-11.8-32.5-20.8-47.4c-8.8-14.5-17.8-28.9-27.3-43c-4.9-7.4-10.9-13.9-17.8-19.5
		c-19.5-15.5-43.9-17.9-64.5-6.8c-6.7,3.6-10.6,8.8-11.9,16.2c-1.6,9-0.1,17.6,2.7,26c5.3,16,15.8,28.3,28.4,39.1
		c10.4,8.9,19.4,19,29.6,29.7c-8.6-0.7-11.7,4.4-14.2,10c-2.2,5.1-0.8,11.3,2.9,13.5c3.8,2.3,10.1,0.5,13.6-3.9
		c2.8-3.4,4.4-7.7,4.5-12.1c1,0.9,1.5,1.3,2,1.7c21.5,22.1,39.9,47,54.8,74c17.1,31.4,29.7,64.6,42,98c4.4,12,8.4,24.1,14,35.6
		V984.8z M591.7,264.5c-17.7-24.1-38.5-45.6-61.9-64.2c-23.5-18.4-49.5-33.3-77.3-44.2c0.4-1.6,1.7-0.9,2.4-0.9
		c31.3,0.2,62.6,0.6,94,0.8c3.2,0,3.9,0.8,3.3,3.9c-5.7,29.9,12,62.2,39.5,76.4c3,1.5,3.7,2.8,2.1,6
		C590.4,249.3,590.6,256.8,591.7,264.5z M508.1,102.5c-0.1-3,1.2-3.5,3.8-3.5c14.6,0.1,29.3,0.1,43.9,0.1l0-1.1c14.5,0,29,0,43.4,0
		c1.3,0,3.4-0.9,3.8,1.2c0.3,1.7-1.7,1.8-2.8,2.3c-22.4,9.6-37.5,25.9-45.6,48.8c-0.7,2.1-1.7,2.8-3.8,2.8
		c-12.7-0.2-25.3-0.2-38-0.2c-2.7,0-3.5-0.8-3.8-3.7C507.1,133.6,508.7,118,508.1,102.5z M635.6,243.8c3.6,7,5.4,14.6,7.2,22.2
		c1.8,7.6,5.5,13.1,13,15.7c4.5,1.5,3.5,3.5,0.5,5.6c-6,4.5-13.4,6.9-20.9,6.9c-22.6,0-42-19.1-41.3-40.6c0-1.5,0.2-3,0.5-4.4
		c2.2-10.4,10.2-19,18.5-20S630.8,234.4,635.6,243.8z M637,229.9c2.5-3.7,9.7-5.3,13.5-3.3c1.4,0.7,2.1,1.4,1.6,3.1
		c-0.9,2.8-8.1,8.4-11.3,8.4c-1.8-0.6-4.4-0.2-5.5-2.3C634.2,233.7,635.8,231.6,637,229.9z M619.4,383.1c-4.5-4-8.7-8.2-12.6-12.8
		c-10.2-12.5-16.7-26.4-16.7-42.8c0-9.9,4-17.2,13.5-21.2c7-2.9,14.1-5,21.7-5.2c22.2-0.4,38.5,10.6,51.1,27.5
		c12.5,16.7,23.2,34.5,33.5,52.6c3.6,6.4,6.7,13,9.3,19.9c13.6,34.5,27.2,69,41,103.4c2.4,6,4.3,12.2,7.9,17.6v103
		c-1.4-1.1-1.6-2.9-2.2-4.4c-8.3-22.1-16.3-44.3-25.1-66.2c-14.3-36-31.2-70.7-55.5-101.2C665.2,428.1,643,404.9,619.4,383.1z
		 M652.1,425.7c-0.6,4.5-3.2,8.6-7.1,11c-4.1,2.7-8.6-0.4-8.7-6c1.1-4.3,3-8.6,7.2-11.1S652.7,420.9,652.1,425.7z M753.1,479.4
		c-6.1-14.9-11.9-29.9-17.8-44.9c-0.6-1.5-1.7-2.9-1.1-5.1c12.5,1,23.5,5.9,33.9,12.6l0,73.1C762.2,503.6,758,491.3,753.1,479.4z
		 M761.1,0.1c7,0,7,0,7,7c-0.6,0.8-1.3,1.5-1.8,2.3c-3.7,5.5-7.4,11.1-12.5,15.4c-2.4,2-5.5,3.8-8.6,1.5s-3.1-5.4-1.6-8.9
		c3-6.3,6.8-12.2,11.5-17.3H761.1z M693.2,0.2h57c-1.4,2-2.8,4.1-4.1,6.2c-2.9,4.8-6.5,9.4-6.3,15.4c0.1,5.8,3.5,8.8,9.2,8.4
		c4.5-0.3,7.6-2.8,10.6-5.9c3-3.1,4.9-7.4,8.7-10.1l-0.2,384.9c-2.8-0.1-4.2-2.6-6-4.1c-12.6-10.4-24-22.1-33.9-35.1
		c-18.2-23.8-22-49.5-12.5-77.7c8.3-24.4,21.3-46.1,36.7-66.6c1.2-1.6,2.4-3.1,4.2-5.6c-9.8,1-18.6,1.3-27.4,0
		c-38.6-5.6-68.1-24.3-84.3-60.5c-7.8-17.4-5.1-36-0.3-53.9c8.9-33.7,26.2-63.1,46.1-91.2C691.6,3.1,693,2,693.2,0.2z M612.1,0.2
		l77-0.1c-8.2,12.7-16.9,25-24.2,38.3c-7.3,13.3-13.7,26.6-18.7,40.7c-0.8,2.2-1.7,3.8-3.9,4.7c-11,4.6-22,9.3-33,14.1
		c-1.9,0.8-3.3,1.3-4-1.4c-5.1-18.4-11.5-36.5-11.3-56c0.2-15.4,4.8-28.7,17-38.8C611.4,1.2,611.8,0.7,612.1,0.2z M507,42.6
		c0.5-14.1,0.7-28.3,1.1-42.4l100-0.1c-12.4,11.3-17.4,25.6-16.9,42.1c0.1,3.7-0.6,5.1-4.7,5.1c-25-0.2-49.9-0.2-74.9,0
		C507.8,47.3,506.8,46.3,507,42.6z M448.7,75.6c4-7.3,7.9-14.7,10.5-22.6c0.8-2.5,2-3.1,4.6-3c41,0.1,81.9,0.1,122.9,0
		c4.1,0,5.3,1.2,5.7,5.2c1.2,12.2,5.1,24,8.7,35.7c0.9,3.1,0.7,4.2-3.1,4.3c-53.3,0.5-106.6,1.2-159.9,1.9c-1.2,0.1-2.4,0.5-3.7-0.7
		C439.7,89.8,444.5,82.9,448.7,75.6z M320.4,121.5c25.4,5.9,50.8,6.2,76.2,0c12.3-3,22.4-10,31.4-18.7c1.6-1.9,4-2.9,6.5-2.9
		c22-0.2,44-0.4,65.9-0.9c3.9-0.1,5,0.9,5,4.9c-0.2,15-0.2,30,0,45c0,3-0.7,4-3.8,3.9c-19.1-0.3-38.3-0.4-57.5-0.7
		c-5.7-0.1-10.8-2.9-16.3-4.5c-38-11-77.8-14.7-117.1-10.9c-5,0.5-9.9,1.1-14.9,1.6c-1.5,0.2-3.2,0.6-3-1.9c0.7-7.8,0.1-15.5-1.1-24
		C301.7,116,310.8,119.3,320.4,121.5z M291.7,143.5c0.5-2.2,2.4-2,4-2.2c30.9-4.7,62.3-4.4,93.1,0.8c76.3,13,139,49.7,188.1,109.4
		c4.8,5.8,9,12,13.5,18c1.1,1.4,2.2,2.7,0.7,4.8c-5.4,7.7-10,15.9-14,24.5c-72.6-105.6-171.8-147.2-297.8-126.3
		C284.4,163.4,289.4,154.1,291.7,143.5z M274.7,179.2c1.4-2,3.5-2.4,5.6-2.9c33-7,66.1-8.9,99.7-3.6c52,8.1,97.9,29,138,63.1
		c21.5,18.5,40.1,40.2,54.9,64.3c1.5,2.5,2,4.5,0.8,7.3c-3.6,9.2-6.4,18.8-8.1,28.6c-28.7-59.1-71.6-102-131.2-126.9
		c-59.6-24.9-120.2-25.4-181.3-5.6C261.1,196.2,268.4,188,274.7,179.2z M350.6,193c49.2,3.1,94.1,18.9,133.8,48.4
		c33.9,25.1,60.8,58.5,78.1,96.9c0.9,1.9,1.8,3.9,1.8,6.2c-0.6,22,5.8,42.4,15.5,61.9c3.1,6.3,3.9,12.7,4.2,19.3
		c1.7,31.9-2.6,63.7-12.7,94c-1.8,5.4-4.6,8.9-11.1,9.8c0.9-2.4,1.7-4.7,2.5-6.9c16.3-47.4,13.9-93.7-8.8-138.5
		c-7.2-14.4-17-27.2-28.9-38c-8.8-7.9-18.9-11.6-30.8-8.8c-2.1,0.3-3.8,1.7-4.6,3.7c-6.1,13-9.6,26.8-9.3,41.1
		c0.5,22.7-1.8,45.2-3.8,67.8c-0.1,0.7-0.1,1.3-0.1,2c-0.3,37.5,1.2,74.9,7.7,112c2.2,12.9,8.2,18.1,21.9,19.4
		c-4.9,8.9-10,17-12.8,26.4c-2.1,6.8-3.4,13.9-3.8,21.1c-0.1,3.1-1.5,4.7-3.8,6.4c-36.8,27.3-77.9,43.2-123.6,48.2
		c-95,10.3-191.3-38.2-239.6-124.3C96.9,515.7,86.1,466.9,91.9,415c9.4-83.8,51.1-147.5,123.7-189.8C257,201.1,302.4,190,350.6,193z
		 M479.6,479.4c-2-21.1,0.8-41.9,2.8-62.8c0.9-9.3,0.7-18.6,0.6-28c-0.2-15.2,2-29.8,7.9-43.9c1.6-3.8,3.9-5.3,7.7-5.6
		c8.4-0.8,16.8,2,23,7.7c16.5,14.7,29.2,33.2,36.9,53.9c15.9,42.6,15.9,85.3-1.4,127.7c-0.8,2-1.6,3.9-3.7,5.1
		c-17.8,9.4-30.1,24.4-41.3,40.6c-5.2,7.6-13.9,8.1-20.1,1c-4.2-4.7-5.2-10.6-6.1-16.6c-3.5-25.2-6.7-50.5-6.2-76.1
		C479.8,481.4,479.7,480.4,479.6,479.4z M139.1,217.2c10.8,3.6,22,5.6,33.3,5.9c-9,7.1-16.5,13.6-24.5,21.2
		C148.8,233.2,145,225,139.1,217.2z M51.9,231c0.1,3.6-4,7.2-8.4,7.2c-2.5-0.1-5.2,0.1-5.3-3.5c-0.1-3.4,4.9-8.4,8.3-8.4
		C49.7,226.2,51.9,227.3,51.9,231z M0.1,218.1c7.7,1.2,15.2,3.5,23,4.5c5.9,0.8,11.8,0.6,18.4,1c-3.9,5.4-10.4,10.1-3.8,16.5
		c3.6,3.5,13.1,0.6,16.2-4.2c2.4-3.7,0.9-9.9-3.5-13c5.1-1.2,9.9-2.2,14.4-4.2s8.4-5.2,13-8.9c0,7.9-1.4,14.8-2.9,21.6
		c-0.6,2.9-1.8,5.7-2.5,8.6c-2.7,10.5-9.1,17.5-19.2,21.2c-2.5,1-4.9,2.1-7.2,3.3c-2,1.1-4.6,2.3-4.4,4.9c0.2,2.9,3.1,3.7,5.5,4.4
		c5.2,1.6,10.6,2.9,15.8,4.5c14.5,4.5,25.3,13.1,30.8,27.6c4.6,12,3.2,23.3-4,34.6c-3.6-18-14.9-19.4-28-17.7
		c-13.6,1.7-24.6,8.1-34.1,17.4c-10.3,10-18.9,21.4-27.5,32.9V218.1z M28.8,343c9.4-9.3,20.2-15.7,33.5-17.5
		c0.8-0.1,1.6-0.2,2.5-0.3c17.8-1.5,26.1,10.6,19.3,27.2c-15.4,37.9-38,71.3-63.5,102.9c-6.6,8.1-12.8,16.5-20.4,23.8v-101H0.1
		C9.1,365.9,18,353.7,28.8,343z M0.2,567.9l-0.1-84.8c0.6-0.2,1.1-0.5,1.6-0.9C31,448,59.1,412.9,78.3,371.8
		c4-8.5,8.8-16.9,10.5-26.3c0.4-2.5,3-2.4,4-4.3c3.8-7,6.4-14.3,6.1-22.3c-0.1-2.7,0.6-5.3,2-7.5c18.3-33,43.1-62,73-85.1
		c2.8-2.4,6.4-3.5,10.1-3.1c8.4,0.9,16.9,1.2,25.4,0.9C128.1,277,87.3,350.7,87.3,446.9c-4.7-1.6-8.2-4.4-11.5-7.4
		c-7.8-7-14.4-7.1-22.8-0.7c-6.6,5-9.7,12.1-11.8,19.8c-1.4,5-2.3,10.1-4.8,14.6c-1.5,2.7-3.4,4.8-7,4.8c-6.2,0-6.3,0.4-3.2,6
		c0.2,0.5,0.4,1,0.5,1.5c-2.6,0.8-5.1,1.5-7.6,2.3s-5.7,1.7-5.5,4.9c0.1,2.9,3.3,3.5,5.7,4c7.3,1.7,14.3,4.5,20.8,8.1
		c1.7,1,3.4,2.1,5.5,3.4C25.6,524.7,14.2,547.3,0.2,567.9z M79.9,457.2c3,22.9-15.8,30.9-32.1,31.8c-10.1,0.6-15.2-1.6-19.6-7.8
		c8-0.2,11-5.8,13.1-12.2c1.7-5.4,3.1-10.9,4.9-16.2c2.2-6.4,6.9-11.6,13-14.5c4.4-2.1,8.7-2,12.5,1.4c4.1,4,8.7,7.3,13.6,9.8
		C81.1,451.2,79.4,453.7,79.9,457.2z M49.7,506.6c-0.8,0.4-1.7,0.2-2.3-0.4c-8.8-6.4-18.8-10-29-12.9c-0.7-0.3-1.4-0.7-2.1-1.2
		c6.3-1.8,11-5.4,17.8-2.4c9.8,4.4,20,2.4,29.7-1.3c3-1.1,4.2-1.1,4.7,2.5c0.6,5,1.8,9.9,2.9,15.3C63.8,503.6,56.6,503.2,49.7,506.6
		z M76.1,508.6c-2.7-2.4-2-6.2-2.9-9.3c-0.7-2.2-0.6-4.6-1.4-6.8c-1.6-4.6-0.5-7.7,3.4-11.1c5.6-4.9,7.9-11.8,7.8-19.3
		c0-1.7-0.2-3.3-0.2-5c-0.1-2.2,0.4-4.1,3.1-4.2c3.1-0.1,2.1,2.5,2.2,4c2.1,30.5,8.8,59.9,22.1,87.5
		c35.5,73.8,92.9,121.5,172.9,139.1c73.4,16.2,141.5,1.7,202.8-42.4c0.8-0.6,1.7-1,3.1-2c0.5,8.8,1.5,17.5,3.1,26.1
		c0.5,2.7-0.3,4.2-2.6,5.7c-33,21.4-68.8,35.4-107.8,41.2c-13.2,2-26.4,3.8-39.8,3.8c-120.2-0.8-219.1-74.3-258.1-179.3
		c-1.5-3.7-2.1-7.7-1.9-11.7C82.3,518.7,81.1,513.1,76.1,508.6z M79.8,548.8c-1.2-3.5,0.4-6.3,0.6-9.5c2.3,1.1,2.2,3.2,2.8,4.8
		c38.1,90.2,104.4,147.6,200.1,168.3c73.2,15.9,142.3,2.6,205.9-37.3c3.1-1.9,4.5-2.6,5.4,2c1.4,6.8,3.4,13.5,5.5,20.2
		c0.8,2.7,0.4,4.1-2.1,5.6c-28.8,17.5-60.2,30.1-93.2,37.2c-28.3,6.1-57,8.8-85.9,6.2c-106.5-9.7-187.2-60.6-242.7-151.8
		c-1.5-2.5-1.8-4.4-0.3-7.2C82.4,575.1,84.4,562.2,79.8,548.8z M503.2,707.2c1.9,6,4,12,6,17.9c0.6,1.7,1.2,3.1-1.7,3.1
		c-16.7-0.1-33.4-0.1-50.2-0.1c14.4-7.1,28.5-14.1,42-22.3C501.5,704.5,502.4,704.7,503.2,707.2z M82.9,681.2
		c-0.1-3.3,0.9-4.2,4.2-4.2c16.8,0.2,33.7,0.1,50.5,0c1.8-0.1,3.6,0.4,5,1.5c22.4,18.7,47.3,34.2,74,45.9c0.5,0.3,1,0.6,1.8,1.1
		c-1.8,1.1-3.3,0.7-4.7,0.7c-43.5,0-87,0-130.5,0.1c-4.6,0-5.5-0.8-4.4-5.5C81.9,707.8,83.3,694.5,82.9,681.2z M83.2,669.5
		c-2.4-19.5-8-38.5-16.7-56.1c-0.8-1.6-3.6-2.5-2.4-4.8c2.2-4.5,4.6-8.8,7.2-13.1c0.8-1.3,1.7,0.1,2.2,0.9c5,8.5,10.9,16.1,10,27.3
		C82.3,638.9,83.2,654.2,83.2,669.5z M86,671.8c0-17.9,0-35.8,0.5-53.9c14.9,20.6,32,39.4,50.9,56.2c-17.3,0-33.1,0-48.9,0
		C86.9,674.1,86,673.6,86,671.8z M6.7,793.1c0.7,0.9,1.2,1.6-0.4,2c-1.6,0.4-1.8,2-1.2,3.2c2.2,5.3-0.8,6-4.9,5.8l-0.1-11
		C2.3,790.1,4.5,789.9,6.7,793.1z M0.1,788.1v-105c2.4-2.4,3.2-5.8,4.8-8.6c6.6-11.1,15.1-20.3,27-25.8c11.4-5.3,17.9-2.7,23.2,8.8
		c4.5,9.6,5,19.5,2.5,29.7C53.4,705,46.2,722,36.3,737.4C25.1,754.9,12.6,771.4,0.1,788.1z M53.6,781.4c-2.7-3.2-3.5-7-6.1-9.8
		c-2.9-3.1-5.3-3.1-7.3,0.8c-2.1,4.1-2.2,8.9-0.1,13c2,4,3,8.5,3.1,13c0,3-0.5,4.9-4.3,3.8c-1.6-0.5-3.3-0.4-4.9,0.3
		c-3.8,2.2-6,0.6-7.5-2.7c-3.2-7.2-10.2-10.8-15.2-16.3c-2.3-2.6-1.6-3.5-0.2-5.4c9.1-12.7,18.7-25.1,27.1-38.3
		c11.2-17.8,19.5-36.7,23.3-57.5c1.9-10.6-0.3-20.6-5.7-29.8c-5.2-8.9-11.8-11.3-21.6-7.8c-13.3,4.8-22.7,14.2-30.2,25.8
		c-1.2,1.9-1.8,4.2-3.9,5.5v-6.9c23.6-25.4,45.5-52.2,63.9-81.7c6.4-10.2,10.1-21.6,13.3-33.1c1.1,0,1.3,0.7,1.3,1.2
		c1,11.3-0.2,21.8-6.9,32c-4.5,7.1-8.4,14.6-11.6,22.5c-0.4,1-0.8,2.2,0.6,2.3c3.2,0.4,3.5,3.2,4.5,5.3C84,656.8,84,697,71.8,737.8
		C67.4,753,61.2,767.6,53.6,781.4z M261.3,776.6c-1.4,1.8-1.5,3.4-1.3,5.5c0.8,9.3-5.7,17.6-14.8,19.3c-3.1,0.6-4.5-0.3-3.9-3.6
		c1-5.6,2.3-11.1,1.5-16.8c-0.4-2.9-0.6-6.5-4.2-7.2c-3.2-0.5-5,2.2-6.5,4.7c-2,3-3.1,6.9-3.1,10.9c-5.4-3.3-5.5-3.3-5.8,3
		c-0.1,2-0.7,3.7-2.8,2.7c-5.9-2.8-11.3-1.3-17.1,1.4c-0.3-3.5,0.3-6.6-1.9-9.3c-1.2-1.5,0.8-3,1.6-4.4s1.7-2.7,0.6-4.1
		c-1-1.3-2.6-1.3-4.2-1c-6.5,1.1-11.2,4.8-14.6,10.3c-1,1.7-1.9,3.5-3.1,5.6c-2-1.4-2.1-5.1-5.7-4.4c-1.1,0.2-0.4-1.6-0.3-2.5
		c0.5-3.6,1.2-7.2,1.4-10.9c0.2-5.4-3.2-9.5-7.4-9.5c-3.8,0-7.1,4.1-7.5,9.2c-0.1,2,0.2,3.9,1,5.7c-4.4-0.8-7.9-1.1-9.4,3.7
		c-0.5,1.6-2.6,1.2-4,1.2c-1.4,0-2.7,0-4,0c-2.6,0.2-5.8-0.2-7,2.7c-1.2,2.9,2.4,3.9,3.7,6.2c-1.6,2-3.9,1.3-5.9,1.4
		c-2,0-2.6-1-1.6-2.8c1.3-2.2,1.5-4.9,0.5-7.2c-0.9-2.1,0.8-3.4,1.8-4.8c2.9-4.2,1.7-6.7-3.4-7.3c-5.6-0.7-9.6,2.1-13.2,5.8
		c-2.8,2.9-4.6,6.5-7,10c-1.3-1.6-1.3-4.6-4.8-3.6c-1.9,0.6-1.2-1.8-1.2-2.8c0-5,0.2-10,0.3-15c0-1.8-0.3-3.6-2.2-4.1
		c-1.9-0.5-2.9,1.1-3.9,2.5c-3,4.4-3.8,9.5-4.8,14.6c-0.6,3.5-1.9,3.5-4,1.2c-0.6-0.6-1.1-1.2-1.7-1.8c-0.9-0.9-1.8-2.3-3.3-1.5
		s-1,2.3-0.6,3.5c0.3,1.1,0.9,2.2,0.2,3.8l-6.9-1.9c-3.6-1-7.2-1.1-9.1,2.8c-2,3.9,1.3,5.7,3.7,8.1c-2.3,1-4.7,2.9-5.9-0.9
		c-2.6-8.3-6.4-9.3-12.8-3.2c-2.4-5.6-2.5-5.7,0.3-10.8c8-15,14.3-30.8,18.6-47.2c1-3.6,2.5-4.5,6.1-4.5c47.3,0.1,94.7,0.1,142,0
		c6.1,0,11.2,2.9,16.7,4.7c42,14,85,18.5,129.1,14.6c25.5-2.3,50.7-7.8,74.8-16.4c2.1-0.6,4.2-0.9,6.4-0.8c18.5,0,37,0.1,55.5-0.1
		c4.5-0.1,6.4,1.5,6.4,6.2c-9.3-0.9-18.6-1.3-27.9-0.2c-28.9,3.5-52.9,16.3-71.8,38.3c-4.2,4.9-4.2,5-7.7-0.3
		c-4.9-7.2-9.8-14.3-14.6-21.5c-1.5-2.3-3.1-3.4-6-3.3c-34,0.8-68,1.4-102,2c-2-0.1-3.9,0.9-4.9,2.6
		C272.3,762.3,266.9,769.5,261.3,776.6z M267.3,781.9c11.5,0.2,23,0.1,34.5,0.1h105.6c-4.7,7.3-8.8,13.8-11.5,21
		c-0.7,2-2.2,2.1-3.9,2.2c-41.4,0.3-82.9,0.6-124.3,1c-2.8,0-3.8-0.7-3.8-3.6c0-5.5-0.3-11-0.7-16.5
		C262.9,782.7,264.1,781.9,267.3,781.9z M263.1,778.8c6-7.9,11.5-15.1,17-22.4c1.2-1.6,2.9-1.4,4.5-1.5c32.6-0.6,65.3-1.2,97.9-2
		c3-0.3,5.8,1.2,7.2,3.9c4.6,7.2,9.6,14.2,14.9,21.9L263.1,778.8z M262.4,842.7c2.3,4.5,3.9,9.2,1.8,14.3c-6.5-6.6-4.5,3.3-7.7,3.5
		c-2.1-1.7-3.2-4.6-4.8-7.1c-2.8-4.4-5.7-8.7-11.2-10c-1.1-0.3-2.4-0.8-2.2-2.2c0.3-1.7,1.9-1,2.9-1c6,0.2,12,0.5,17.9,0.8
		C260.5,841,261.7,841.2,262.4,842.7z M271.5,836.3c-0.8-1.5-1.9-2.8-3.2-3.8c-4.3-3.8-7.6-2.9-8.9,2.7c-0.4,1.8-0.7,3-3,2.9
		c-4.9-0.4-9.8-0.6-15.8-0.9c8-9.5,15.3-18.3,22.6-27.1c1.1-1.4,2.7-1.1,4.2-1.1c40.8-0.3,81.6-0.7,122.4-1c3.4,0,4.2,0.8,3.3,4.1
		c-1.8,6.9-2.4,14.2-1.7,21.3c0.2,2.7-0.2,3.8-3.3,3.8c-37.1,0.5-74.3,1.2-111.4,1.9C274.3,839.1,272.6,838.6,271.5,836.3z
		 M394.9,866.3c-12.3-0.1-24.8-0.1-37.4-0.1c2.4-5.1,1.4-6.7-4.5-7.2c-3.1-0.2-6.3,0.4-8.2-3.3c-0.8-1.6-2.7-0.3-4.3,0.2
		c-0.9-2.8-0.6-5.9-2.3-8.4c-1.4-2.2-3.4-4.1-6.1-3c-2.6,1-2,3.5-1.5,5.7c0.7,2.7,0.9,5.6,0.8,8.4c-0.1,2.4-1.8,4.5-4.1,5
		c-2.5,0.6-2.8-2-3.5-3.5c-1.9-4.1-4.6-7.3-9-8.8c-2.8-1-5-0.5-4.7,3.3c0.2,2.5-0.2,5,0.2,7.5c0.9,5-1.8,7-6.1,7.7
		c-1.3,0.2-2.7,0.3-4,0.3c-3.3,0.1-7.6,0.6-9.2-2.3c-1.3-2.2,2.7-4.4,4-6.7c0.6-1.2,1.5-2.2,2.1-3.4c2.2-4.3,0.9-6.7-3.9-7
		c-1.5,0-3,0.1-4.5,0.3c-3,0.2-6.2,1.5-7.3-3.3c-0.5-2.1-3.3-2.6-5.5-2.5c-1.3,0-2.9,0.3-2.9-1.7c0.1-2.2,1.9-1.4,3-1.4
		c11.3-0.3,22.7-0.5,34-0.7c25.6-0.4,51.3-0.7,76.9-1.3c3.9-0.1,5.5,0.8,6.1,4.8c1.1,6,2.6,12,4.3,17.9
		C398,865.3,398,866.4,394.9,866.3z M428.1,1024.1c-0.9-9.6-1.7-19.2-2.6-28.8c-1.7-17.7,0.9-34.5,11.7-49.3
		c2.7-3.7,5.9-6.8,10.3-8.3c3.8-1.2,7.7-1.5,10.8,1.4c2.9,2.6,2,6.1,1,9.3c-1.9,6.2-2.7,12.7-2.2,19.2c0.2,5.5,1.2,10.9,0.6,16.4
		c-1.9,14.6-7.6,27.5-14.6,40.1H428.1z M484.1,1024.1c-1.5-8.2-3.1-16.3-4.6-24.5c-2.7-14.5-7.2-28.8-6.3-43.8
		c1.1-20.1,7-38.1,23-51.8c7.9-6.8,12.7-5.1,20.6,1.1c4.4,3.5,5.7,8.8,6.3,14.2c3.8,35.6-1,70.4-10,104.8H484.1z M597.1,1024.1
		c0-8.8-4.8-15-11.5-19.9c-5.9-4.1-10.1-10.4-11.6-17.5c-2.2-9.3-6-18-11.5-25.9c-6-8.9-9.7-18.8-12.8-29.1
		c-5.9-20-6.6-40.7-8.6-61.2c-0.9-8.8,1.7-16.8,8.6-23c4.8-4.3,9.6-4.7,15.1-1.3c5.2,3.3,8.8,8,11.6,13.4
		c7.7,14.8,15.7,29.5,14.9,47c0,0.7,0.2,1.4,0.4,2c4.1,19.8,11.2,38.6,17,57.9c5.6,19,11.5,37.9,14.4,57.6H597.1z M701.1,1024.1
		c-0.1-1.9-1.6-3.3-2.5-4.8c-6.5-11.1-13.3-21.9-19.5-33.1c-31.4-56.8-56.8-116.3-77.1-177.9c-10.2-30.8-17-62-11.9-94.7
		c1.2-7.4,2.4-14.8,5.1-21.8c1-2.6,1.7-6,4.8-6.5s4.5,2.9,6.1,5.2c1.2,1.6,2.2,3.3,3,5.2c10,23.9,23.2,46.4,30,71.7
		c6.5,23.9,18.2,46.1,26.2,69.6c21.2,62.5,42.8,124.8,64.8,187.1H701.1z M733.1,1024.1c-6.3-17.9-12.8-35.7-18.8-53.7
		c-25-74.6-52.4-148.3-78.5-222.5c-6.9-19.6-17.5-37.7-25.8-56.8c-0.6-1.2-1.3-2.3-2.1-3.4c-2.2-2.8-4.4-5.9-8.4-5.3
		c-3.7,0.5-5.4,3.8-6.5,7c-1.5,4.4-2.8,8.9-3.9,13.4c-7.1,28.8-3.8,57.4,3.8,85.4c9.8,36,23.3,70.8,37.8,105.1
		c19.2,45.2,41.2,89.1,67.3,130.8h-72c-0.2-1.2-0.2-2.3-0.5-3.5c-4.7-26.3-13.4-51.4-21.1-76.9c-4.8-15.7-11-31.1-11.3-47.9
		c-0.1-5.7-1.5-11.2-4-16.3c-3.6-7.5-7.2-15-11-22.4c-2.5-4.9-6.1-9.2-10.6-12.4c-7.8-5.5-14.8-4.7-21.4,2.2
		c-7.2,7.6-8.8,16.9-7.9,26.9c0.9,9.8,1.5,19.6,2.9,29.3c3,21.5,7.3,42.7,20,61c4.8,7,8.2,14.9,10,23.2c1.6,6.8,4.5,13,10.4,17.2
		c7,4.9,11.9,11,13.5,19.5h-79c3-14.5,6.5-28.9,9-43.5c3.5-20.8,2.3-41.9,0.6-62.8c-1-11.6-7.9-18.3-19-20.9
		c-2.6-0.7-5.3-0.2-7.5,1.4c-9.3,6.1-16.6,14.6-21.2,24.7c-8.5,18.6-9.5,37.8-5.4,57.6c3,14.5,6.4,28.9,8.5,43.6h-35
		c9.8-17,16.6-34.7,14.1-54.9c-0.9-7,0.2-13.9,2.1-20.7c2.7-9.9-3.3-16-13.3-14c-6.7,1.3-11.1,5.7-14.8,11
		c-10.4,14.9-13.1,31.7-11.5,49.4c0.9,9.7,1.7,19.5,2.5,29.2h-55c-7.1-12.3-11.8-25.8-13.7-39.9c-2.2-15.4,1.9-28.1,13.7-38.6
		c14.1-12.9,32.3-20.6,51.5-21.5c5.3-0.3,5.7-0.8,3.1-5.5c-10.5-18.5-19-38.2-25.1-58.6c-3.9-13.2-6.8-26.5-5-40.3
		c2.3-18.3,11.6-33.3,24-46.3c25.8-27.2,57.5-38,94.6-33.2c4.1,0.5,4.3-0.3,3.2-3.7c-1.5-4.3-2.8-8.7-4.4-13
		c-7.2-19.3-13.3-39-17.1-59.3c-5.2-27.2-3.4-53,12.2-76.8c6.4-9.8,12.8-19.5,20.3-28.5c17.2-20.5,39.3-31.9,65.6-35.4
		c2.8-0.4,4,0.4,5.3,2.9c9.2,18.3,16.8,37.3,25.7,55.8c16.8,35,32.8,70.2,45.8,106.8c17.6,49.2,34.7,98.6,45,150
		c7.2,36.1,11.9,72.6,15.4,109.3c2.2,25.2,3.9,50.5,4.9,75.8H733.1z"/>
	<path d="M52.2,158.8c0,6.5,2.5,9.3,8.2,9.3c7,0.1,10-2.7,9.9-9.3c0-7.5-2.8-10.6-9.4-10.5C54.5,148.4,52.1,151.2,52.2,158.8z
		 M61.3,151.1c3.5,0.1,6.3,3.4,6.3,7.6c0,3.7-3.1,6.6-6.8,6.6c-0.1,0-0.2,0-0.3,0c-4-0.4-5.6-3.1-5.5-6.9
		C55.1,153.9,57.5,151.1,61.3,151.1z"/>
	<path d="M768.7,1020.6c-0.1,1.4-0.4,2.5-1.1,3.2c-0.4,0.4-1.1,0.7-1.8,0.9h2.9V1020.6z"/>
	<path d="M596.9,137.4c7.3-0.1,12.1-4.2,12-10.4c0-4.1-2.4-5.7-8.6-5.7c-7.2,0-10,2.8-10,9.9C590.2,136.4,591.3,137.5,596.9,137.4z
		 M600.1,124.2c0.2,0,0.4,0,0.6,0c2.1,0.2,5.1-0.1,5.2,3.2c0.1,3.3-4.8,7.1-8.9,7.2c-2.7,0.2-4-0.9-3.9-3.8
		C593.2,127,596.3,124.1,600.1,124.2z"/>
	<path d="M601.4,609c-3.9-4.1-8.5-6.3-13.8-4.3c-7.6,2.8-11.6,9.8-11.5,15.2c0.1,8.5,5.6,13.9,11.1,19.2c5,4.8,9.1,5.5,15.3,2.8
		c5.5-2.4,7.6-6.1,7.4-12.8C609.8,621.2,606.8,614.7,601.4,609z M599.7,639.8c-3.9,1.7-7.1-0.2-10-2.9s-5.5-5.7-7.7-9
		c-4.1-6.3-2.4-14.7,3.8-18.8c1.2-0.8,2.6-1.4,4-1.8c2.1-0.5,4.4,0,6.1,1.4c6.5,5.2,10.9,11.9,11.3,22.7
		C607.4,634.8,604.2,637.9,599.7,639.8z"/>
	<path d="M100.2,243.1c-4.3-0.7-8.2-0.4-11.1,3.6c-2.9,4-4,8.4-2.5,13.1c0.5,1.8,2.4,2.6,4.4,2.8c7.6,0.8,11.8-3.6,12.1-13.5
		C102.8,247,104.1,243.7,100.2,243.1z M100.1,249.6c-0.2,6-3.5,10.4-7.5,10.2c-2.7-0.1-3.9-1.7-3.8-4.2c0.2-4.8,5-10.2,8.7-10
		C100.3,245.8,100.5,247.6,100.1,249.6z"/>
	<path d="M110.2,216.5c-1.4-3.3-4.4-3.6-7.4-3.5c-8.5,0.1-16.1,5.4-19.3,13.3c-2.4,6.3-1.5,11,2.7,13.9c3.1,2.2,10.2,0.7,14-3.2
		c3.1-3.2,6.1-6.6,8.9-10.1C111.6,223.8,111.6,220.2,110.2,216.5z M107.6,222.8c-3.5,5.8-7.6,11.2-13.7,14.7
		c-0.8,0.3-1.6,0.6-2.4,0.7c-3.7,0-6.7-3.4-6.3-6.5c1-7.4,9.6-15.4,17-15.8C106.6,215.7,109.7,219.3,107.6,222.8z"/>
	<path d="M308.4,74.1c-2.8,8,1.3,13.9,10.1,13.7c6.8,0.2,11.5-4.2,15-9.8c3.1-5,1.3-12.2-3.1-13.9C323.1,61.2,310.9,66.7,308.4,74.1
		z M331.6,74.4c-1.6,5-8.8,10.4-14,10.5c-5.3,0.1-8.4-4.6-6.2-9.5c2.2-5,9-9.3,14.3-9.1C330.3,66.4,332.9,70.1,331.6,74.4z"/>
	<path d="M4.4,0H0v4.3C0,0.5,1,0,4.4,0z"/>
	<path d="M291.3,35.6c8.4-0.1,17.3-11.3,15.6-19.7c-1.1-5.3-8.9-9.4-13.3-6.8c-6.6,3.9-10.3,9.7-10.9,17.4
		C282.3,32.3,285.6,35.7,291.3,35.6z M285.7,26.7c0.6-6.7,4.4-11.3,9.8-14.8c1.2-1,2.9-0.8,3.9,0.4c0,0,0,0.1,0.1,0.1
		c1.9,2.1,5.3,3.4,4.4,7.1c-1.3,5.8-5.3,10.6-10.8,13C289.4,34.1,285.2,30.7,285.7,26.7z"/>
	<path d="M343.3,72.8c-1.3,6.7,2.1,11.5,8,11.5c2.1-0.1,4.4,0.1,6.2-1.3c4.9-3.5,9.1-7.8,12.7-12.6c3.2-4.5,0.2-10.9-5.3-11.9
		C355,56.8,345.6,63.1,343.3,72.8z M367.9,64.4c1.4,1.6,0.6,3.6-0.7,4.9c-3.5,3.6-6.9,7.2-10.7,10.4c-2.1,1.7-4.9,3.2-7.6,0.9
		s-3.5-4.9-1.8-8.3c1.6-3.1,3.6-5.9,6-8.5c1.4-1.6,3-3.3,5-2c1.9,0.8,3.1-0.3,4.4-0.4C365,61.1,366.5,62.8,367.9,64.4z"/>
	<path d="M575.5,826.1c-4.6,0.6-6.3-2-6.7-6c-0.2-2.2-0.6-4.3-0.9-6.4c-1.5-9.2-6.3-16-15-19.7c-4.7-2-9-0.9-12,3.1
		c-6.2,8.2-7.6,17.3-3.3,26.8c4.2,9.5,11.8,14.5,22.2,15.2c6.9-0.4,13-2.7,17.7-7.9c0.9-1,1.8-2.2,1.3-3.6S576.8,825.9,575.5,826.1z
		 M547,831.6c-9.4-7.4-11.7-20.8-5.2-30.9c3.1-4.8,6.9-6,11.9-3.1c6.4,3.7,10.4,9.1,11.4,16.6c0.2,2,0.5,4,0.8,5.9
		c0.6,5.2,2.8,9.1,9,9.2C567.9,837.5,555.7,838.4,547,831.6z"/>
	<path d="M37.7,47.9c9.9,0.5,18.9-7.8,19.2-18.2c0.2-6.2-3.1-9.6-9.3-9.6c-10.3,0-19.4,10.8-17.4,21C31,44.9,33.2,47.6,37.7,47.9z
		 M33.7,37.3c1-7.4,4.8-12.1,12-14c3.5-1,7.1,1,8.1,4.4c0.2,0.6,0.3,1.4,0.2,2.1c-0.2,6.1-7.2,14-13.3,15
		C35.7,45.6,33,42.3,33.7,37.3z"/>
	<path d="M560.8,665.1c-4.3,0.6-7.1,5.4-7.5,12.1c-0.4,8.1,1.7,13.1,6.2,14.4c8.7,2.5,15.6-2.5,15.6-11.5c-0.1-2.3-0.3-4.6-0.7-6.9
		c-0.9-7.8-1.1-7.9-8.6-8.1C564.1,665,562.5,665,560.8,665.1z M566.1,668.3c4.5-1.3,5.3,1.8,5.6,5.5c0.1,1.8,0.4,3.6,0.5,5.4
		c0.6,6.7-2.1,9.7-9.1,10c-4,0.2-7-3.6-6.9-9.2c0.1-2.5,0.5-4.9,1.2-7.3C558.4,669.4,560.7,668.3,566.1,668.3z"/>
	<path d="M564.9,629.6c0.1-12.2-3.1-18-15.1-28.2c-5.4-4.6-11.1-8.3-18.6-8.4c-7.9-0.1-13.6,5.6-14,13.6c-0.6,10.8,4,19.5,9.4,28.3
		c2.4,3.9,5.9,7.1,10,9.2C549.9,651.1,566.7,645.2,564.9,629.6z M520.7,615.9c-1.8-4.1-0.3-8.8,0.5-13.1c0.9-4.8,7.5-7.3,13.6-6.1
		c12.7,2.3,27.4,20.1,27.3,33.9c1.1,6.4-3.5,10.6-9.5,12.9c-6,2.4-11.7-0.4-16.8-3.7C527.1,634.2,524.5,624.6,520.7,615.9z"/>
	<path d="M20.1,192.1c11.6,0.4,17.8-5.7,17.9-17.7c0.1-6.3-2.2-10.6-6.6-12.2c-5.5-2-14.3,0.1-17.3,4.4c-3.7,5.2-4.9,11.9-3.3,18.1
		C11.9,189.5,15.2,191.9,20.1,192.1z M24.4,164.6c6.7-0.8,11,3.2,10.8,10.1c-0.3,8.7-6.1,14.9-13.7,14.5c-3.9-0.2-6.5-2-7.7-5.9
		C11.2,175.4,16.8,165.5,24.4,164.6z"/>
	<path d="M454.8,791.5c-3.2-3.1-8-3.9-12.1-2.1c-7.9,3.5-12.9,9.6-13.7,18.5c-1.2,12.5,2.1,23.9,10.3,33.3
		c7.7,8.8,20.8,7.1,25.9-1.8c3.2-6,3-12.2,3.1-20.3C469.8,808.4,463.5,799.4,454.8,791.5z M462.7,836.9c-4.7,7.8-14,9.6-20,3
		c-7.8-8.8-12-19.2-10.8-31.4c0.8-8.1,6.2-12.7,12.3-16.6c2.2-1.4,5.5-0.2,7.7,1.7c8.4,7.1,14.3,15.6,13.5,26.1
		C465.4,826.5,465.7,831.9,462.7,836.9z"/>
	<path d="M325.5,429.8C325.5,429.8,325.5,429.8,325.5,429.8c0.1,0,0.1-0.1,0.1-0.1C325.5,429.7,325.5,429.7,325.5,429.8z"/>
	<path d="M325.6,429.9C325.6,429.9,325.6,429.9,325.6,429.9C325.6,429.8,325.6,429.8,325.6,429.9L325.6,429.9z"/>
</g>
</svg>
