<?xml version="1.0" standalone="no"?>
<!DOCTYPE svg PUBLIC "-//W3C//DTD SVG 20010904//EN"
 "http://www.w3.org/TR/2001/REC-SVG-20010904/DTD/svg10.dtd">
<svg version="1.0" xmlns="http://www.w3.org/2000/svg"
 width="850.000000pt" height="850.000000pt" viewBox="0 0 850.000000 850.000000"
 preserveAspectRatio="xMidYMid meet">
<metadata>
Created by potrace 1.14, written by Peter Selinger 2001-2017
</metadata>
<g transform="translate(0.000000,850.000000) scale(0.100000,-0.100000)"
fill="#000000" stroke="none">
<path d="M1269 7820 c-109 -28 -238 -112 -306 -201 -86 -112 -127 -240 -126
-394 2 -208 89 -406 248 -559 35 -34 163 -130 184 -138 9 -3 -13 -297 -30
-403 -23 -143 -92 -287 -215 -451 -30 -39 -124 -152 -210 -250 -388 -446 -483
-601 -545 -896 -32 -148 -32 -397 0 -556 68 -347 241 -653 456 -807 63 -46
257 -128 403 -171 118 -35 302 -44 423 -20 123 25 348 102 420 144 227 134
428 460 485 786 22 124 22 361 -1 491 -67 387 -205 622 -650 1100 -320 345
-389 440 -431 598 -14 52 -20 320 -8 364 l6 21 51 -23 c73 -33 209 -71 307
-86 130 -19 366 -6 650 36 135 19 308 38 385 41 356 16 555 -82 823 -401 102
-122 176 -198 243 -250 61 -48 161 -102 221 -120 l38 -11 -52 -34 c-166 -113
-197 -360 -63 -509 20 -22 52 -50 71 -62 l34 -21 0 -954 0 -955 -32 -11 c-79
-28 -188 -91 -245 -143 -262 -237 -297 -651 -78 -915 147 -178 174 -276 111
-415 -34 -75 -95 -137 -178 -181 l-73 -39 -365 -3 c-270 -2 -366 -6 -372 -15
-4 -7 -8 -81 -8 -164 l0 -153 -517 -2 -518 -3 0 -205 0 -205 2475 0 2475 0 0
205 0 205 -492 3 -493 2 0 154 c0 114 -3 156 -13 164 -9 7 -122 12 -333 14
l-319 3 -67 34 c-128 64 -231 179 -269 302 -38 121 -20 223 66 383 111 205
114 447 8 649 -75 142 -227 271 -377 318 l-76 24 0 952 0 952 43 30 c130 89
179 271 112 419 -27 61 -119 161 -148 162 -7 1 25 14 70 29 212 73 378 251
433 467 37 143 20 337 -39 453 -12 22 -21 44 -21 48 0 13 187 -176 264 -267
99 -117 172 -215 316 -425 149 -218 246 -347 361 -480 305 -353 755 -678 1079
-779 63 -20 130 -45 148 -56 141 -87 32 -399 -328 -940 -217 -326 -361 -614
-396 -790 -22 -113 -28 -290 -15 -409 29 -248 118 -434 295 -619 98 -102 176
-160 288 -211 139 -65 199 -76 393 -75 187 1 251 13 398 74 252 105 457 338
550 625 46 141 61 245 60 415 -1 133 -4 169 -27 255 -77 299 -218 515 -549
844 -80 79 -152 148 -161 153 -29 16 -188 202 -237 275 -49 76 -90 172 -110
260 -10 41 -9 58 1 82 13 33 14 33 130 50 110 15 176 39 260 96 132 90 256
263 295 415 13 50 16 94 13 190 -4 111 -9 137 -41 233 -20 60 -60 155 -89 210
-97 191 -256 318 -437 349 -63 11 -81 10 -139 -5 -158 -41 -265 -174 -291
-363 -30 -205 83 -367 264 -381 110 -9 200 36 226 114 42 129 -50 260 -178
250 -36 -2 -62 -11 -85 -29 -31 -23 -43 -45 -75 -128 l-10 -25 -21 34 c-86
141 26 397 192 442 142 38 316 -81 377 -259 65 -188 12 -401 -135 -548 -100
-99 -181 -133 -318 -134 -227 -1 -551 151 -878 410 -147 117 -306 280 -515
530 -332 396 -555 599 -849 770 -103 60 -277 139 -385 175 l-53 17 46 47 c97
99 127 244 77 374 -31 79 -109 157 -188 188 -127 49 -266 22 -367 -71 -153
-141 -134 -416 36 -525 50 -32 59 -45 31 -45 -38 0 -200 -90 -260 -145 -83
-75 -157 -188 -186 -281 -12 -40 -25 -74 -28 -74 -4 0 -10 15 -13 34 -16 84
-151 235 -277 309 -125 73 -319 135 -494 156 -127 15 -369 14 -639 -5 -279
-19 -635 -15 -768 10 -166 30 -299 92 -363 168 -52 61 -69 114 -68 211 1 77 4
95 32 151 38 78 129 167 208 203 38 18 80 28 128 31 63 4 80 1 134 -23 141
-64 226 -240 180 -374 -12 -35 -29 -41 -29 -11 0 35 -39 100 -73 120 -20 13
-50 20 -80 20 -123 0 -199 -92 -167 -204 69 -247 415 -159 455 115 22 150 -91
352 -237 423 -63 31 -182 43 -249 26z m236 -49 c76 -36 146 -110 188 -199 42
-88 50 -205 19 -274 -41 -94 -141 -168 -226 -168 -156 1 -234 224 -101 289 46
22 99 25 138 6 46 -22 82 -90 74 -141 -6 -38 -1 -41 31 -18 64 44 76 174 28
281 -33 73 -113 154 -182 185 -131 58 -332 -5 -436 -136 -77 -97 -92 -138 -92
-256 -1 -95 2 -110 26 -155 73 -139 236 -222 504 -256 140 -18 454 -16 769 5
519 35 788 -4 1045 -154 179 -104 265 -234 303 -455 2 -11 7 9 11 45 33 291
221 505 506 579 41 11 66 20 54 20 -33 2 -118 49 -159 89 -59 58 -89 132 -90
222 0 65 4 84 33 142 60 123 163 183 302 176 128 -6 217 -66 273 -185 27 -59
29 -71 25 -146 -6 -116 -58 -207 -142 -252 -20 -11 -36 -22 -36 -25 0 -3 48
-21 106 -40 209 -68 473 -212 654 -357 189 -151 317 -282 574 -588 340 -405
600 -628 924 -794 206 -105 329 -141 480 -141 116 0 200 25 280 85 255 187
298 589 86 801 -94 94 -228 128 -332 84 -64 -28 -135 -101 -169 -177 -35 -75
-43 -185 -19 -247 16 -41 59 -96 76 -96 4 0 12 25 19 56 14 62 54 114 101 134
62 26 149 -14 180 -83 26 -55 25 -103 -3 -151 -61 -107 -251 -110 -356 -5 -92
92 -107 273 -36 423 107 225 353 273 578 113 114 -81 194 -196 266 -382 55
-140 75 -246 68 -365 -9 -162 -66 -283 -199 -425 -114 -121 -223 -173 -400
-190 -56 -5 -71 -11 -88 -32 -28 -35 -26 -97 6 -191 61 -182 142 -292 395
-532 406 -388 561 -614 643 -937 47 -183 32 -457 -34 -655 -115 -344 -360
-576 -697 -660 -125 -31 -353 -31 -467 0 -224 62 -411 204 -556 424 -116 175
-162 341 -163 588 0 92 6 177 16 233 36 198 180 482 437 867 221 330 335 573
347 740 10 140 -20 169 -267 245 -246 76 -699 397 -945 671 -173 191 -259 302
-455 589 -274 402 -412 556 -689 769 -8 6 7 -18 34 -54 175 -236 179 -539 10
-775 -25 -35 -68 -84 -97 -110 -87 -76 -266 -153 -363 -156 -26 0 -23 -3 22
-18 174 -60 264 -266 187 -431 -27 -59 -82 -123 -126 -146 l-28 -15 0 -973 0
-974 38 -6 c60 -11 213 -91 270 -141 62 -56 133 -152 166 -228 31 -68 56 -188
56 -262 0 -111 -45 -268 -99 -344 -27 -38 -60 -128 -71 -195 -12 -78 3 -167
45 -252 45 -91 152 -197 251 -245 l69 -34 322 -3 323 -3 0 -164 0 -165 500 0
500 0 -2 -185 -3 -185 -2455 0 -2455 0 -3 185 -2 185 525 0 525 0 0 165 0 164
363 3 362 3 57 28 c135 66 229 196 236 326 5 91 -23 162 -103 261 -86 104
-119 160 -151 255 -23 68 -27 97 -28 195 0 134 15 194 77 314 70 134 201 247
350 301 l62 23 2 973 2 974 -45 29 c-93 59 -153 185 -140 295 15 129 107 240
228 276 l41 11 -69 17 c-94 23 -216 85 -294 150 -36 29 -129 128 -208 220
-160 187 -265 278 -387 337 -140 68 -182 75 -420 74 -183 -1 -237 -5 -419 -32
-303 -46 -469 -58 -605 -43 -135 14 -240 40 -345 86 -44 19 -82 32 -84 30 -11
-11 -23 -208 -18 -290 6 -104 25 -173 72 -266 48 -96 116 -182 330 -415 249
-271 304 -335 408 -474 202 -268 306 -581 306 -916 0 -268 -62 -489 -195 -696
-151 -234 -273 -325 -546 -407 -288 -88 -432 -81 -734 31 -141 52 -197 80
-266 134 -115 88 -206 211 -294 396 -96 204 -135 364 -142 593 -9 255 22 415
117 613 82 170 161 275 488 655 234 269 332 427 371 597 17 70 51 376 51 456
0 16 -19 34 -67 65 -38 24 -107 82 -154 129 -73 74 -93 101 -137 191 -59 121
-82 214 -82 331 0 170 53 303 164 414 108 108 205 152 336 153 74 1 93 -3 145
-28z"/>
<path d="M4176 7465 c-57 -20 -87 -45 -113 -95 -85 -161 86 -337 253 -261 96
43 137 166 88 262 -19 39 -78 86 -121 98 -48 14 -59 13 -107 -4z m128 -29 c82
-34 121 -153 77 -233 -43 -76 -128 -108 -205 -79 -140 54 -152 228 -21 307 36
22 102 25 149 5z"/>
<path d="M4162 7390 c-33 -21 -62 -71 -62 -110 0 -61 69 -130 129 -130 31 0
83 24 105 49 26 29 33 109 12 149 -31 61 -120 81 -184 42z m145 -33 c54 -54
31 -156 -39 -175 -125 -33 -195 132 -83 197 30 17 94 6 122 -22z"/>
<path d="M926 7060 c7 -38 19 -57 27 -43 3 4 -4 24 -14 43 l-20 35 7 -35z"/>
<path d="M1001 7041 c34 -63 173 -202 244 -243 254 -147 579 -180 1027 -104
294 50 371 59 538 59 178 0 267 -14 389 -59 142 -53 217 -127 303 -302 28 -56
52 -101 54 -100 8 9 -38 167 -65 223 -46 93 -164 201 -284 260 -244 119 -505
147 -1036 109 -302 -21 -685 -15 -816 14 -156 34 -267 85 -344 156 l-34 31 24
-44z m154 -105 c71 -33 171 -60 287 -77 118 -18 531 -15 796 4 258 20 380 21
523 6 283 -28 496 -115 629 -255 l45 -48 -50 43 c-98 84 -205 130 -369 156
-178 29 -346 19 -710 -42 -246 -40 -514 -54 -655 -34 -186 27 -342 87 -456
174 -57 43 -132 115 -110 105 6 -2 37 -17 70 -32z"/>
<path d="M960 6970 c0 -20 25 -38 36 -27 8 7 -15 47 -26 47 -6 0 -10 -9 -10
-20z"/>
<path d="M986 6905 c4 -8 10 -12 15 -9 14 8 10 24 -6 24 -9 0 -12 -6 -9 -15z"/>
<path d="M4103 6907 l-43 -12 32 -18 c17 -10 31 -16 32 -15 1 2 10 15 19 31
19 30 20 30 -40 14z"/>
<path d="M4350 6914 c0 -2 6 -14 13 -27 6 -12 12 -23 13 -25 0 -1 15 5 33 14
18 9 31 18 29 19 -6 6 -88 23 -88 19z"/>
<path d="M4185 6885 c-28 -27 -34 -88 -12 -116 56 -73 167 -39 167 51 0 56
-34 90 -90 90 -30 0 -47 -6 -65 -25z m115 -15 c26 -26 25 -68 -2 -97 -28 -30
-63 -29 -93 2 -30 30 -31 54 -4 89 25 32 70 35 99 6z"/>
<path d="M1027 6893 c-25 -24 10 -83 49 -83 25 0 51 17 41 26 -4 4 -13 2 -19
-4 -30 -30 -76 6 -63 48 7 20 3 25 -8 13z"/>
<path d="M1057 6873 c-3 -5 -2 -15 2 -22 7 -10 10 -10 16 -1 4 6 3 16 -3 22
-5 5 -12 6 -15 1z"/>
<path d="M3993 6846 c-62 -28 -74 -107 -22 -150 76 -64 182 9 144 100 -22 54
-69 73 -122 50z m87 -36 c41 -41 7 -120 -52 -120 -26 0 -68 44 -68 71 0 57 79
90 120 49z"/>
<path d="M4435 6846 c-59 -26 -72 -101 -26 -147 48 -48 116 -38 147 22 39 77
-41 161 -121 125z m85 -36 c29 -29 26 -74 -6 -99 -35 -27 -59 -26 -89 4 -30
30 -31 54 -4 89 25 32 70 35 99 6z"/>
<path d="M3860 6780 l-45 -39 41 -1 c41 0 42 1 46 38 3 20 4 38 4 39 -1 1 -22
-15 -46 -37z"/>
<path d="M1130 6791 c-17 -32 -12 -58 15 -80 50 -39 125 -35 125 6 0 13 -3 14
-12 5 -7 -7 -27 -12 -45 -12 -40 0 -67 35 -57 74 7 31 -10 35 -26 7z"/>
<path d="M4602 6759 c0 -40 3 -49 15 -45 8 3 31 6 51 6 l36 0 -35 36 c-58 61
-67 61 -67 3z"/>
<path d="M1075 6780 c3 -5 10 -10 16 -10 5 0 9 5 9 10 0 6 -7 10 -16 10 -8 0
-12 -4 -9 -10z"/>
<path d="M1180 6761 c0 -21 32 -37 51 -25 8 5 4 13 -12 25 -31 24 -39 24 -39
0z"/>
<path d="M1290 6691 c-26 -63 36 -131 120 -131 34 0 90 46 90 74 0 25 -13 19
-32 -14 -15 -26 -22 -30 -63 -30 -62 0 -100 35 -92 86 7 43 -7 53 -23 15z"/>
<path d="M4143 6694 c-10 -22 -10 -25 3 -20 9 3 27 9 41 12 l26 7 -24 13 c-32
18 -32 18 -46 -12z"/>
<path d="M4313 6706 c-33 -16 -28 -23 17 -28 22 -2 40 -1 40 2 -1 8 -27 40
-31 39 -2 -1 -14 -6 -26 -13z"/>
<path d="M2802 6702 c-37 -3 -43 -6 -40 -24 2 -12 11 -26 20 -32 14 -9 23 -6
44 16 15 14 25 30 23 34 -2 5 -23 8 -47 6z"/>
<path d="M3820 6697 c-14 -7 -33 -28 -43 -48 -45 -93 70 -173 144 -100 47 48
38 116 -21 146 -35 18 -47 18 -80 2z m89 -43 c12 -15 21 -35 21 -46 0 -24 -44
-68 -68 -68 -33 0 -72 38 -72 71 0 65 80 93 119 43z"/>
<path d="M1347 6693 c-15 -14 -6 -53 15 -67 31 -22 64 -20 82 6 20 28 12 36
-13 14 -29 -26 -66 -17 -66 16 -1 30 -8 42 -18 31z"/>
<path d="M2623 6693 c-7 -3 -13 -21 -13 -40 0 -46 -58 -106 -118 -122 -79 -22
-165 21 -178 89 -6 29 -18 38 -28 22 -10 -17 14 -79 41 -105 74 -70 172 -72
248 -5 53 46 75 84 75 127 0 32 -7 41 -27 34z"/>
<path d="M2680 6689 c0 -36 30 -99 62 -131 36 -36 41 -38 104 -38 64 0 68 2
105 39 35 35 39 44 39 90 0 50 -1 51 -30 51 -25 0 -30 -4 -30 -25 0 -72 -69
-125 -137 -106 -50 14 -82 48 -89 93 -6 34 -24 55 -24 27z"/>
<path d="M2720 6691 c0 -29 26 -74 51 -86 55 -29 102 -14 125 40 19 46 18 55
-6 55 -11 0 -20 -6 -20 -14 0 -7 -9 -25 -21 -40 -40 -50 -109 -29 -109 33 0
12 -4 21 -10 21 -5 0 -10 -4 -10 -9z"/>
<path d="M2544 6673 c-14 -47 -31 -68 -58 -71 -42 -5 -73 5 -99 34 -28 30 -61
24 -51 -10 27 -93 181 -100 235 -12 26 42 25 76 -1 76 -11 0 -23 -8 -26 -17z"/>
<path d="M3028 6684 c-13 -12 -9 -82 6 -119 15 -34 76 -75 113 -75 41 0 148
98 129 117 -4 4 -18 -7 -32 -24 -30 -38 -79 -51 -134 -34 -50 15 -64 33 -70
93 -3 28 -8 46 -12 42z"/>
<path d="M1385 6671 c-7 -12 12 -24 25 -16 11 7 4 25 -10 25 -5 0 -11 -4 -15
-9z"/>
<path d="M2447 6671 c-46 -7 -50 -21 -11 -40 24 -12 31 -12 53 0 31 18 41 50
14 48 -10 -1 -35 -5 -56 -8z"/>
<path d="M3064 6656 c-12 -49 26 -87 86 -88 33 0 48 6 69 26 20 21 23 28 13
35 -9 5 -22 0 -38 -16 -40 -40 -104 -13 -104 44 0 30 -18 30 -26 -1z"/>
<path d="M4595 6655 c-19 -18 -25 -35 -25 -65 0 -56 34 -90 90 -90 56 0 90 34
90 90 0 56 -34 90 -90 90 -30 0 -47 -6 -65 -25z m112 -17 c29 -27 29 -65 1
-95 -27 -29 -65 -29 -95 -1 -29 27 -29 65 -1 95 27 29 65 29 95 1z"/>
<path d="M3122 6649 c3 -27 32 -36 54 -18 17 14 10 20 -34 34 -21 6 -23 4 -20
-16z"/>
<path d="M1230 6640 c32 -25 39 -25 33 0 -4 14 -14 20 -32 20 l-26 0 25 -20z"/>
<path d="M1522 6612 c-21 -62 42 -130 141 -152 40 -9 54 -7 84 6 34 17 75 68
88 112 10 35 -39 30 -61 -7 -24 -40 -64 -61 -119 -61 -38 0 -52 5 -77 30 -23
23 -29 37 -26 62 4 40 -17 48 -30 10z"/>
<path d="M2215 6632 c-5 -4 -11 -26 -11 -49 -6 -145 -210 -190 -273 -61 -11
24 -21 52 -21 61 0 10 -8 17 -20 17 -43 0 -13 -89 46 -138 33 -28 46 -32 94
-32 79 1 139 15 156 36 65 83 87 209 29 166z"/>
<path d="M4487 6631 l-29 -6 31 -22 c16 -13 32 -23 34 -23 3 0 7 14 9 30 5 31
3 32 -45 21z"/>
<path d="M1580 6595 c0 -28 5 -37 30 -50 16 -8 38 -15 50 -15 30 0 78 27 91
51 17 33 4 33 -29 -1 -17 -16 -41 -30 -54 -30 -35 0 -68 27 -68 56 0 13 -4 24
-10 24 -5 0 -10 -16 -10 -35z"/>
<path d="M2147 6623 c-4 -3 -7 -21 -7 -38 0 -43 -27 -65 -79 -65 -32 0 -48 6
-67 25 -15 15 -23 32 -20 41 6 17 -21 31 -34 18 -13 -14 16 -86 45 -111 50
-44 149 -18 182 47 25 50 10 113 -20 83z"/>
<path d="M3990 6610 c0 -20 1 -20 25 -4 14 9 25 18 25 20 0 2 -11 4 -25 4 -18
0 -25 -5 -25 -20z"/>
<path d="M1623 6606 c4 -10 7 -20 7 -22 0 -8 55 -4 70 6 20 12 12 18 -40 26
-38 6 -43 5 -37 -10z"/>
<path d="M2038 6613 c-45 -5 -52 -32 -16 -57 45 -32 98 -10 98 40 0 25 0 25
-82 17z"/>
<path d="M3701 6577 c-22 -48 -52 -137 -46 -137 2 0 16 11 31 25 26 24 47 30
89 26 17 -1 16 2 -9 28 -16 17 -32 47 -36 68 l-7 38 -22 -48z"/>
<path d="M2645 6565 c-16 -25 -33 -45 -37 -45 -4 0 -8 -4 -8 -10 0 -8 129 -3
139 6 3 3 -3 10 -11 17 -9 6 -25 27 -36 45 l-19 32 -28 -45z"/>
<path d="M4790 6568 c0 -15 -11 -40 -25 -56 -30 -36 -31 -42 -6 -35 11 3 34
-2 52 -11 18 -9 33 -16 35 -16 5 0 -39 125 -47 135 -5 5 -9 -2 -9 -17z"/>
<path d="M3290 6554 c-14 -35 -12 -116 3 -135 23 -30 52 -39 89 -28 20 5 41
16 48 24 15 18 18 16 -44 19 -75 3 -104 54 -71 129 4 10 3 17 -4 17 -6 0 -16
-12 -21 -26z"/>
<path d="M2977 6544 c-11 -14 -17 -27 -15 -28 1 -2 22 -6 45 -10 l42 -6 -22
35 c-12 19 -24 34 -27 34 -3 0 -13 -11 -23 -25z"/>
<path d="M1445 6545 l-30 -13 25 -10 c14 -5 42 -17 63 -25 41 -18 48 -10 17
18 -11 10 -20 24 -20 32 0 16 -16 16 -55 -2z"/>
<path d="M2242 6506 l-31 -57 57 7 c31 4 68 10 82 14 l25 7 -31 16 c-18 9 -41
28 -51 43 l-20 27 -31 -57z"/>
<path d="M3332 6538 c-33 -33 9 -85 66 -79 6 0 12 6 12 11 0 6 -10 8 -23 5
-31 -8 -51 16 -43 50 7 28 5 30 -12 13z"/>
<path d="M4155 6520 c-85 -42 -145 -152 -129 -237 35 -196 270 -261 398 -111
97 113 53 295 -86 352 -51 22 -134 20 -183 -4z m191 -27 c22 -11 53 -40 72
-67 28 -42 32 -57 32 -111 0 -54 -4 -69 -32 -111 -37 -54 -88 -84 -153 -92
-35 -3 -57 1 -100 23 -71 34 -107 85 -113 159 -5 68 10 114 51 156 68 70 159
87 243 43z"/>
<path d="M4165 6456 c-54 -33 -79 -78 -79 -141 0 -101 77 -171 179 -163 33 3
64 13 85 28 36 26 70 90 70 135 0 45 -34 109 -71 135 -49 36 -132 39 -184 6z
m155 -17 c47 -27 72 -69 72 -124 0 -55 -25 -97 -72 -124 -44 -24 -78 -26 -123
-7 -54 23 -80 59 -85 118 -5 63 23 113 78 140 46 24 84 23 130 -3z"/>
<path d="M5077 6519 c10 -15 45 -58 78 -95 84 -96 157 -193 345 -460 89 -126
199 -276 244 -334 80 -104 326 -364 378 -402 l28 -19 -7 33 c-4 23 -37 67
-107 143 -139 151 -216 244 -411 500 -92 121 -206 267 -253 323 -82 101 -333
364 -295 311z m573 -704 c139 -185 223 -286 359 -435 78 -86 88 -99 37 -50
-115 109 -233 247 -366 425 -119 160 -177 243 -153 220 6 -5 61 -77 123 -160z"/>
<path d="M1829 6501 c-9 -15 -31 -34 -48 -42 -17 -8 -31 -17 -31 -21 0 -5 41
-8 91 -8 l92 0 -25 20 c-14 10 -31 33 -38 50 -15 37 -21 37 -41 1z"/>
<path d="M3365 6510 c3 -5 11 -10 16 -10 6 0 7 5 4 10 -3 6 -11 10 -16 10 -6
0 -7 -4 -4 -10z"/>
<path d="M3221 6490 c-13 -11 -31 -20 -40 -21 -13 0 50 -36 69 -38 4 -1 6 17
5 39 0 46 -1 46 -34 20z"/>
<path d="M3870 6481 c-28 -5 -32 -8 -19 -16 9 -6 21 -19 27 -30 10 -19 11 -19
22 9 6 16 13 33 16 37 3 5 2 8 -3 8 -4 -1 -24 -4 -43 -8z"/>
<path d="M4609 6422 c14 -43 17 -47 24 -28 5 11 18 31 29 43 l21 23 -24 0
c-13 0 -33 3 -45 6 -21 6 -21 5 -5 -44z"/>
<path d="M3740 6453 c-103 -38 -75 -183 35 -183 38 0 85 50 85 90 0 42 -15 67
-50 85 -30 16 -45 17 -70 8z m74 -39 c61 -61 -14 -158 -82 -107 -35 26 -41 74
-13 102 25 25 73 27 95 5z"/>
<path d="M4715 6428 c-69 -40 -67 -138 4 -168 96 -40 175 77 102 151 -31 31
-70 37 -106 17z m69 -19 c34 -16 51 -58 35 -91 -13 -30 -51 -50 -76 -41 -70
24 -72 111 -3 136 8 3 16 6 17 6 1 1 13 -4 27 -10z"/>
<path d="M3400 6369 c-19 -11 -30 -19 -24 -19 6 0 44 -30 85 -67 40 -38 70
-61 67 -53 -33 82 -73 160 -82 159 -6 -1 -27 -10 -46 -20z"/>
<path d="M5342 6330 c81 -98 112 -139 253 -330 301 -411 498 -631 617 -689 66
-33 199 -56 197 -35 0 5 -28 27 -62 49 -77 49 -228 171 -325 260 -83 77 -217
227 -407 455 -71 85 -174 200 -228 255 -81 82 -90 88 -45 35z m617 -711 c107
-107 194 -181 357 -306 l29 -23 -30 6 c-118 23 -228 118 -448 387 -135 165
-178 225 -91 127 32 -36 114 -122 183 -191z"/>
<path d="M3640 6286 c0 -25 17 -117 26 -146 4 -10 10 -5 19 17 8 18 28 41 45
52 l31 19 -27 6 c-16 4 -43 23 -61 42 -33 35 -33 35 -33 10z"/>
<path d="M4620 6268 c0 -18 -3 -44 -7 -57 -5 -21 -4 -22 15 -12 60 32 158 -5
177 -67 5 -17 12 -32 15 -32 7 0 42 141 37 146 -2 2 -22 -6 -44 -17 -31 -15
-51 -18 -78 -13 -40 7 -95 48 -95 70 0 8 -4 14 -10 14 -5 0 -10 -15 -10 -32z"/>
<path d="M3843 6256 l-31 -22 36 -11 c20 -6 38 -11 39 -10 1 1 -2 16 -5 33
l-7 32 -32 -22z"/>
<path d="M3736 6159 c-35 -41 -34 -83 3 -120 50 -50 124 -35 151 31 24 59 -22
120 -91 120 -29 0 -43 -7 -63 -31z m114 -9 c41 -41 12 -120 -45 -120 -31 0
-75 41 -75 70 0 29 44 70 75 70 14 0 34 -9 45 -20z"/>
<path d="M4654 6170 c-39 -16 -66 -61 -60 -100 12 -78 101 -106 157 -51 47 47
34 117 -26 146 -37 17 -41 17 -71 5z m81 -40 c40 -44 9 -120 -49 -120 -59 0
-91 92 -44 124 31 22 71 20 93 -4z"/>
<path d="M3927 6068 c-2 -18 -4 -34 -3 -35 1 -1 15 2 33 5 l31 7 -23 28 c-13
15 -26 27 -28 27 -3 0 -7 -15 -10 -32z"/>
<path d="M4527 6062 c-16 -18 -16 -19 8 -30 21 -10 25 -9 25 6 0 33 -15 44
-33 24z"/>
<path d="M3925 5988 c-64 -36 -61 -129 5 -163 80 -41 158 43 119 128 -19 42
-81 59 -124 35z m90 -33 c30 -29 32 -68 5 -95 -41 -41 -120 -12 -120 45 0 31
41 75 70 75 12 0 32 -11 45 -25z"/>
<path d="M4429 5971 c-49 -49 -30 -129 34 -150 80 -27 151 54 113 128 -31 59
-99 70 -147 22z m109 -11 c28 -26 29 -80 3 -104 -28 -25 -79 -17 -104 16 -18
24 -18 30 -7 58 22 52 69 66 108 30z"/>
<path d="M3750 5968 c0 -3 20 -28 45 -55 l44 -48 1 35 c0 19 3 44 6 55 5 18 0
20 -45 20 -28 0 -51 -3 -51 -7z"/>
<path d="M4091 5959 c6 -13 9 -42 6 -68 -4 -36 -13 -52 -41 -78 -20 -18 -45
-33 -56 -33 -40 0 -19 -17 48 -38 37 -12 83 -25 102 -29 l35 -6 -37 32 c-47
41 -57 85 -33 146 9 25 24 49 33 54 13 7 9 12 -22 25 -49 20 -49 20 -35 -5z"/>
<path d="M4620 5939 c11 -39 4 -74 -24 -114 l-21 -30 30 22 c17 12 56 48 88
81 l58 59 -53 -1 c-29 0 -61 3 -70 8 -15 7 -16 4 -8 -25z"/>
<path d="M4343 5953 c-24 -5 -30 -18 -12 -28 16 -11 31 -56 31 -97 -1 -45 -25
-84 -64 -104 -17 -9 -28 -17 -25 -20 7 -8 151 24 207 46 63 25 90 44 42 31
-39 -12 -87 1 -119 31 -27 25 -47 90 -39 124 4 13 5 23 4 23 -2 -1 -13 -4 -25
-6z"/>
<path d="M4169 5901 c-48 -48 -38 -116 22 -147 77 -39 159 39 125 119 -26 65
-97 78 -147 28z m105 -12 c51 -40 25 -119 -40 -119 -66 0 -94 79 -42 123 27
22 49 22 82 -4z"/>
<path d="M1210 5838 c-65 -129 -167 -264 -354 -470 -58 -65 -106 -119 -106
-122 0 -9 226 126 268 161 55 45 88 97 141 216 39 91 95 266 87 274 -2 2 -18
-24 -36 -59z m-96 -252 c-61 -125 -90 -157 -204 -225 -47 -29 -52 -30 -34 -10
109 124 185 216 232 281 31 43 58 76 60 74 2 -2 -22 -56 -54 -120z"/>
<path d="M1385 5855 c14 -80 84 -273 135 -375 62 -124 125 -219 209 -315 33
-38 78 -92 98 -118 23 -29 86 -81 163 -134 160 -111 282 -205 303 -235 l18
-23 -7 25 c-22 85 -148 294 -265 440 -68 86 -130 155 -462 518 -55 59 -122
141 -149 182 -50 73 -51 74 -43 35z m86 -133 c15 -20 82 -95 149 -167 199
-212 364 -399 440 -500 66 -88 180 -269 180 -287 0 -4 -29 14 -64 41 -35 26
-111 81 -169 120 -58 40 -120 89 -138 109 -17 20 -54 62 -81 92 -110 121 -200
257 -267 402 -47 100 -93 228 -83 228 4 0 19 -17 33 -38z"/>
<path d="M1280 5738 c-22 -87 -55 -168 -147 -363 -103 -217 -156 -360 -173
-469 -12 -78 -11 -188 2 -184 5 2 38 44 73 93 118 164 207 373 239 560 16 94
33 405 23 405 -4 0 -11 -19 -17 -42z m-13 -220 c-11 -169 -56 -335 -133 -492
-42 -84 -143 -246 -154 -246 -3 0 -2 39 1 88 10 117 49 230 157 459 49 103 97
209 107 236 10 26 20 47 23 47 3 0 2 -42 -1 -92z"/>
<path d="M1370 5700 c0 -44 30 -212 56 -310 45 -167 158 -380 294 -550 65 -82
211 -240 222 -240 4 0 5 15 2 33 -27 164 -96 316 -192 425 -180 205 -289 388
-358 597 -13 40 -23 59 -24 45z m84 -256 c40 -87 143 -238 245 -359 68 -80
106 -137 142 -210 42 -86 83 -203 74 -213 -4 -5 -102 101 -162 175 -115 143
-212 303 -264 436 -22 54 -70 227 -64 227 2 0 15 -25 29 -56z"/>
<path d="M7704 5670 c34 -146 32 -332 -3 -442 -12 -36 -37 -89 -55 -117 -19
-28 -31 -51 -27 -51 17 0 132 122 153 162 20 37 23 57 22 138 -1 83 -5 108
-38 200 -39 107 -63 159 -52 110z m71 -275 c8 -74 -11 -153 -46 -195 -17 -20
-19 -21 -14 -5 20 55 35 137 36 202 1 40 5 70 9 68 4 -3 11 -34 15 -70z"/>
<path d="M7651 5580 c-1 -47 -8 -110 -16 -140 -10 -36 -13 -77 -9 -120 3 -43
0 -84 -10 -120 -8 -30 -13 -57 -10 -59 7 -7 45 93 61 159 17 73 14 295 -5 340
-9 20 -11 9 -11 -60z"/>
<path d="M1336 5475 c-18 -172 -66 -334 -143 -489 -46 -93 -148 -250 -183
-281 -35 -32 -22 -35 35 -9 197 90 496 82 708 -20 37 -17 67 -30 67 -28 0 2
-23 29 -51 60 -213 233 -349 485 -407 752 l-19 85 -7 -70z m86 -292 c39 -92
126 -235 216 -353 44 -58 79 -106 78 -107 -1 -1 -22 5 -46 13 -163 57 -430 59
-573 5 -15 -6 -27 -9 -27 -7 0 1 25 41 57 87 95 142 189 368 208 504 4 28 10
54 13 59 3 5 15 -24 27 -65 12 -41 33 -102 47 -136z"/>
<path d="M4155 5523 c-71 -37 -114 -105 -115 -177 0 -119 126 -217 240 -186
47 13 104 59 127 104 34 65 12 178 -44 228 -51 46 -151 61 -208 31z m132 -14
c64 -24 113 -93 113 -159 0 -91 -61 -159 -150 -168 -62 -6 -100 10 -144 58
-77 85 -48 212 59 261 46 21 82 24 122 8z"/>
<path d="M4175 5464 c-122 -62 -78 -244 59 -244 49 0 100 31 116 70 16 39 8
115 -16 142 -22 25 -74 48 -106 48 -13 0 -36 -7 -53 -16z m116 -24 c25 -14 49
-62 49 -101 0 -43 -56 -99 -100 -99 -66 0 -109 43 -110 108 0 60 41 102 100
102 23 0 50 -5 61 -10z"/>
<path d="M1075 5373 c-36 -62 -129 -197 -245 -353 -97 -131 -161 -251 -205
-385 -32 -100 -55 -229 -55 -309 l1 -61 19 39 c34 68 101 148 212 256 l108
105 3 145 c3 137 5 151 39 251 20 59 64 162 98 229 62 123 76 172 25 83z
m-130 -260 c-39 -93 -59 -198 -60 -320 l-1 -121 -121 -119 c-66 -65 -128 -133
-139 -150 -10 -18 -21 -33 -25 -33 -11 0 20 165 47 251 45 143 98 243 206 389
57 77 104 140 106 140 1 0 -5 -17 -13 -37z"/>
<path d="M870 5263 c-136 -76 -209 -129 -247 -180 -15 -21 -35 -44 -44 -50
-34 -25 -157 -232 -174 -293 -7 -25 -7 -24 26 6 19 17 77 60 129 95 141 96
219 179 388 417 28 39 48 72 44 71 -4 -1 -59 -30 -122 -66z m14 -55 c-118
-165 -224 -274 -349 -358 -41 -28 -75 -48 -75 -46 0 3 22 43 49 88 47 79 108
156 179 222 32 30 209 144 225 145 5 1 -8 -23 -29 -51z"/>
<path d="M7540 5238 c-19 -27 -60 -69 -90 -93 -91 -72 -266 -240 -253 -243 24
-6 139 29 210 64 66 32 75 40 107 97 38 69 69 165 64 200 -3 22 -7 19 -38 -25z
m-11 -90 c-36 -92 -68 -130 -139 -165 -36 -18 -80 -36 -98 -39 l-32 -7 52 58
c29 32 78 74 108 95 30 21 71 54 89 74 19 20 36 36 38 36 1 0 -6 -23 -18 -52z"/>
<path d="M6405 5229 c-22 -5 -61 -6 -87 -3 -27 3 -48 4 -48 1 0 -6 195 -137
254 -171 45 -26 54 -28 135 -24 49 3 103 12 126 22 l40 17 -83 34 c-45 18
-125 56 -177 84 -51 28 -100 50 -107 50 -7 -1 -31 -5 -53 -10z m190 -80 c72
-36 137 -68 145 -71 29 -10 2 -19 -72 -25 -84 -6 -101 0 -242 90 l-80 51 55
12 c30 6 56 11 59 10 3 -1 64 -31 135 -67z"/>
<path d="M6207 5187 c14 -35 34 -57 86 -97 85 -64 279 -191 285 -186 11 12
-79 111 -126 138 -45 25 -139 93 -239 171 l-23 19 17 -45z"/>
<path d="M7744 5109 c-58 -61 -241 -179 -287 -184 -12 -2 -46 -13 -76 -25 -30
-11 -100 -28 -155 -36 -56 -8 -105 -16 -111 -18 -20 -6 89 -65 133 -72 69 -10
201 2 267 25 68 24 99 51 161 138 42 58 110 191 101 199 -2 2 -17 -10 -33 -27z
m-65 -126 c-60 -88 -94 -125 -131 -144 -51 -26 -152 -49 -219 -49 -52 0 -166
26 -156 36 2 3 33 9 68 15 131 20 305 89 414 163 28 18 52 32 53 31 2 -2 -11
-25 -29 -52z"/>
<path d="M6834 5028 c-27 -15 -70 -31 -96 -34 -27 -4 -48 -10 -48 -14 0 -8
118 -52 190 -71 73 -19 169 -16 221 8 38 17 145 110 137 119 -2 1 -26 -2 -53
-8 -58 -11 -178 -4 -252 15 -48 13 -52 12 -99 -15z m140 -17 c33 -6 91 -11
129 -11 l70 0 -19 -21 c-61 -70 -207 -77 -358 -19 l-30 11 60 29 c32 15 66 27
74 25 8 -2 42 -9 74 -14z"/>
<path d="M4151 4908 c1 -123 3 -133 25 -155 34 -34 75 -34 112 0 32 29 30 81
-4 112 -33 30 -63 32 -98 4 -19 -15 -24 -16 -20 -5 3 8 15 18 26 22 20 6 20 6
-1 21 -12 8 -21 19 -21 25 0 7 9 2 20 -10 45 -48 107 -12 97 55 -5 26 -3 33 3
23 16 -24 11 -68 -9 -87 -18 -18 -18 -19 10 -41 l29 -24 0 97 c0 80 -3 96 -14
92 -37 -14 -86 -18 -120 -9 l-36 11 1 -131z m37 92 c-7 -10 -14 -17 -17 -15
-4 4 18 35 25 35 2 0 -1 -9 -8 -20z m72 -15 c6 -8 9 -23 5 -35 -10 -31 -59
-24 -63 9 -6 37 34 55 58 26z m10 -155 c15 -28 3 -59 -25 -66 -40 -10 -69 24
-54 64 11 30 63 31 79 2z"/>
<path d="M4214 4969 c-3 -6 -2 -15 4 -21 13 -13 32 -2 32 18 0 16 -26 19 -36
3z"/>
<path d="M4207 4817 c-8 -21 8 -39 29 -35 27 5 25 42 -2 46 -12 2 -24 -3 -27
-11z"/>
<path d="M6662 4898 c70 -82 180 -137 355 -179 94 -23 278 -29 338 -11 25 7
18 9 -51 14 -99 7 -171 36 -219 90 -34 36 -40 39 -118 49 -94 12 -216 41 -288
69 -27 11 -52 20 -56 20 -3 0 15 -24 39 -52z m290 -60 c77 -10 92 -15 106 -36
8 -13 38 -37 66 -54 l51 -30 -55 6 c-125 13 -305 76 -391 137 -48 34 -34 37
52 13 44 -13 121 -29 171 -36z"/>
<path d="M2000 4842 c0 -5 7 -15 16 -23 23 -19 100 -127 169 -239 33 -53 76
-118 95 -143 36 -49 106 -160 113 -180 2 -7 7 -10 9 -7 3 3 -3 51 -12 108 -25
142 -62 216 -160 312 -74 74 -230 190 -230 172z m201 -174 c90 -87 140 -174
163 -283 l6 -30 -18 25 c-9 14 -37 52 -62 85 -25 33 -58 83 -74 110 -16 28
-47 76 -69 108 -46 70 -28 64 54 -15z"/>
<path d="M544 4776 c-103 -69 -167 -140 -184 -203 -6 -26 -16 -59 -21 -73 -18
-51 -28 -248 -18 -362 8 -96 28 -238 33 -238 0 0 1 75 2 167 0 149 3 179 27
268 32 117 113 290 192 406 31 44 54 83 52 85 -1 2 -39 -21 -83 -50z m-7 -43
c-2 -5 -25 -44 -50 -88 -54 -94 -101 -208 -127 -308 l-19 -72 0 55 c0 30 4 78
9 105 27 158 51 208 127 274 44 37 71 52 60 34z"/>
<path d="M1963 4773 c10 -32 22 -96 25 -143 5 -84 6 -86 51 -137 30 -33 69
-98 106 -177 33 -69 63 -125 67 -125 11 -1 21 125 14 173 -9 59 -60 162 -137
276 -79 117 -132 189 -140 189 -3 1 3 -25 14 -56z m134 -188 c31 -49 67 -112
79 -140 24 -52 43 -175 28 -175 -5 0 -26 35 -46 78 -20 43 -58 108 -86 144
-44 58 -50 72 -56 131 -3 37 -9 75 -12 84 -10 30 32 -25 93 -122z"/>
<path d="M4151 4682 c0 -71 4 -84 24 -106 30 -32 72 -34 109 -5 14 11 26 16
26 10 0 -5 -10 -17 -22 -25 l-22 -16 22 -16 c12 -8 22 -20 22 -26 0 -6 -10 -2
-23 10 -33 31 -81 29 -112 -4 -22 -24 -24 -33 -23 -137 0 -62 4 -120 9 -129 5
-10 23 -25 40 -34 81 -42 150 69 83 131 -33 30 -63 32 -98 4 -31 -24 -35 -18
-5 10 l21 19 -21 11 c-12 7 -21 16 -21 22 0 6 12 1 26 -10 34 -27 64 -27 100
0 l29 21 -25 -24 -26 -23 26 -22 26 -21 0 218 0 218 -28 -21 c-28 -21 -28 -22
-9 -31 11 -5 22 -15 25 -23 4 -9 -3 -7 -20 6 -34 27 -72 27 -101 -1 -13 -12
-23 -16 -23 -10 0 6 10 18 22 26 12 9 20 17 17 18 -2 2 -14 12 -26 22 l-22 19
0 -81z m109 -22 c11 -11 20 -25 20 -32 0 -16 -31 -48 -47 -48 -15 0 -53 35
-53 50 0 6 9 19 20 30 11 11 25 20 30 20 6 0 19 -9 30 -20z m4 -176 c30 -30
10 -74 -34 -74 -40 0 -58 32 -35 66 18 28 46 31 69 8z m6 -184 c22 -42 -13
-80 -60 -65 -19 6 -25 22 -20 55 5 34 63 41 80 10z"/>
<path d="M4210 4644 c-11 -12 -10 -18 3 -32 16 -15 18 -15 34 0 13 14 14 20 3
32 -7 9 -16 16 -20 16 -4 0 -13 -7 -20 -16z"/>
<path d="M4210 4465 c-9 -11 -10 -19 -3 -26 17 -17 48 -6 48 16 0 25 -28 31
-45 10z"/>
<path d="M4207 4287 c-8 -21 8 -39 29 -35 27 5 25 42 -2 46 -12 2 -24 -3 -27
-11z"/>
<path d="M1195 4693 c-60 -12 -215 -69 -215 -78 0 -1 23 -3 50 -3 58 0 123
-36 136 -74 6 -19 9 -14 21 32 15 57 39 91 88 121 37 23 20 24 -80 2z m3 -30
c-2 -5 -10 -21 -18 -38 -8 -16 -15 -31 -16 -33 0 -1 -20 8 -43 21 l-42 24 53
16 c63 18 71 19 66 10z"/>
<path d="M1440 4699 c13 -6 33 -18 43 -27 25 -23 57 -86 57 -113 0 -19 5 -16
39 19 38 39 54 45 131 55 58 6 -187 78 -263 76 -31 0 -31 0 -7 -10z m158 -41
l34 -10 -36 -24 c-39 -27 -46 -29 -46 -13 0 6 -9 24 -21 40 l-21 30 29 -6 c15
-4 43 -11 61 -17z"/>
<path d="M1300 4689 c-62 -25 -100 -85 -100 -157 0 -85 61 -151 149 -160 69
-6 130 29 161 94 65 133 -72 278 -210 223z m118 -23 c98 -51 116 -166 37 -235
-47 -41 -91 -48 -148 -23 -59 26 -82 62 -82 127 0 104 106 176 193 131z"/>
<path d="M1292 4634 c-52 -36 -66 -107 -32 -162 51 -83 178 -63 210 32 15 45
-11 111 -51 131 -37 20 -99 19 -127 -1z m129 -33 c35 -36 39 -86 9 -124 -43
-55 -136 -40 -159 25 -33 95 79 170 150 99z"/>
<path d="M1317 4572 c-22 -24 -21 -55 1 -75 39 -36 92 -10 92 43 0 47 -61 68
-93 32z"/>
<path d="M517 4543 c-155 -326 -162 -604 -23 -898 25 -52 46 -95 49 -95 2 0
-8 33 -21 73 -35 100 -43 317 -17 433 12 55 19 129 20 239 2 137 6 174 28 259
15 55 25 101 24 103 -2 2 -29 -50 -60 -114z m-14 -240 c-2 -105 -9 -183 -20
-233 -9 -41 -17 -119 -17 -172 -1 -54 -4 -98 -8 -98 -3 0 -14 43 -23 96 -21
113 -16 290 10 389 14 52 55 175 59 175 0 0 0 -71 -1 -157z"/>
<path d="M1633 4599 c-55 -27 -83 -72 -83 -135 0 -160 203 -214 284 -75 43 75
11 176 -68 212 -53 24 -82 24 -133 -2z m153 -42 c31 -28 37 -41 41 -83 3 -37
-1 -57 -15 -80 -21 -33 -76 -64 -112 -64 -36 0 -91 31 -112 64 -14 23 -18 43
-15 80 4 42 10 55 41 83 30 28 43 33 86 33 43 0 56 -5 86 -33z"/>
<path d="M1619 4541 c-62 -62 -27 -171 59 -187 72 -14 141 58 128 131 -16 82
-128 115 -187 56z m136 -16 c33 -32 34 -89 3 -122 -51 -54 -148 -14 -148 62 0
76 92 114 145 60z"/>
<path d="M1673 4510 c-46 -19 -36 -84 14 -96 20 -5 31 -2 45 16 23 29 23 45
-2 70 -22 22 -25 23 -57 10z"/>
<path d="M958 4586 c-16 -8 -34 -18 -40 -23 -7 -4 -19 -8 -25 -8 -17 0 -133
-104 -174 -156 l-33 -41 33 17 c33 17 96 17 133 1 15 -7 16 -4 7 30 -12 41 3
115 27 135 18 15 17 1 -1 -31 -18 -32 -19 -91 -1 -134 30 -71 134 -107 210
-71 110 52 114 220 6 275 -46 23 -104 26 -142 6z m137 -30 c59 -39 80 -119 46
-174 -43 -67 -117 -89 -178 -52 -91 55 -93 168 -3 228 40 27 92 26 135 -2z
m-265 -111 c0 -32 -2 -35 -30 -35 -16 0 -30 3 -30 7 0 7 51 63 57 63 2 0 3
-16 3 -35z"/>
<path d="M973 4545 c-38 -16 -63 -60 -63 -110 0 -63 72 -117 136 -101 15 4 39
20 55 36 23 23 29 37 29 72 0 52 -21 85 -66 104 -41 17 -50 17 -91 -1z m104
-30 c44 -31 35 -131 -12 -149 -25 -9 -74 -7 -94 4 -25 13 -45 64 -37 95 15 58
93 85 143 50z"/>
<path d="M987 4482 c-32 -35 -11 -92 32 -92 42 0 66 64 35 94 -21 21 -47 20
-67 -2z"/>
<path d="M1820 4585 c0 -3 9 -19 21 -34 25 -34 36 -109 20 -140 -14 -25 -13
-25 28 -5 32 16 85 16 126 -1 28 -11 -68 87 -137 142 -32 24 -58 41 -58 38z
m130 -137 c0 -4 -13 -8 -30 -8 -28 0 -30 3 -30 37 l0 37 30 -29 c17 -16 30
-32 30 -37z"/>
<path d="M4150 4543 l0 -46 23 19 c12 10 23 19 25 20 2 1 -8 13 -22 27 l-26
26 0 -46z"/>
<path d="M1196 4416 c-4 -19 -17 -49 -30 -68 l-23 -35 39 14 c22 7 63 17 91
21 l52 8 -35 16 c-20 8 -48 29 -62 46 l-26 31 -6 -33z"/>
<path d="M1506 4425 c-9 -14 -31 -34 -48 -45 -31 -19 -31 -19 -7 -24 13 -3 43
-7 66 -10 23 -3 50 -9 60 -13 14 -5 12 1 -9 26 -16 18 -28 40 -28 49 0 9 -4
23 -9 30 -6 10 -12 7 -25 -13z"/>
<path d="M1900 4397 c-70 -24 -101 -117 -60 -184 56 -93 194 -79 229 24 13 37
13 45 -3 88 -15 38 -26 51 -60 66 -47 22 -59 22 -106 6z m110 -36 c14 -10 31
-34 38 -54 12 -31 12 -39 -3 -71 -32 -67 -110 -86 -164 -40 -17 14 -31 30 -31
36 0 6 9 -1 20 -15 27 -34 78 -44 118 -23 58 30 70 94 26 145 -35 42 -94 44
-137 4 -27 -26 -28 -26 -16 -4 29 50 97 60 149 22z m-7 -42 c26 -36 16 -84
-24 -104 -75 -40 -141 42 -88 109 28 36 83 33 112 -5z"/>
<path d="M1910 4305 c-17 -20 -5 -61 20 -68 11 -3 30 3 42 13 20 15 21 21 10
44 -13 30 -52 36 -72 11z"/>
<path d="M723 4361 c-127 -58 -79 -251 63 -251 107 0 169 130 102 215 -22 28
-74 55 -105 55 -10 0 -37 -9 -60 -19z m127 -30 c56 -39 56 -123 0 -173 -69
-63 -180 -7 -180 91 0 36 50 98 83 104 32 6 69 -3 97 -22z"/>
<path d="M715 4317 c-17 -14 -28 -36 -32 -63 -5 -36 -1 -46 25 -75 25 -28 37
-34 72 -34 35 0 47 6 72 34 26 29 30 39 25 75 -7 54 -44 86 -97 86 -26 0 -48
-8 -65 -23z m105 -7 c22 -12 42 -64 33 -88 -21 -59 -95 -73 -133 -25 -52 66
25 153 100 113z"/>
<path d="M745 4270 c-35 -39 17 -92 61 -62 19 13 23 39 8 61 -19 26 -46 27
-69 1z"/>
<path d="M1750 4305 c-46 -20 -52 -25 -35 -31 11 -4 40 -21 64 -37 42 -29 43
-29 35 -6 -5 13 -8 41 -7 62 2 20 2 36 0 36 -1 -1 -27 -12 -57 -24z"/>
<path d="M925 4244 l0 -61 41 31 c23 17 50 36 60 43 18 11 17 12 -6 12 -14 1
-41 9 -60 19 l-35 17 0 -61z"/>
<path d="M1235 4294 c-33 -8 -94 -31 -135 -51 -105 -52 -231 -178 -282 -283
-174 -355 -1 -767 376 -894 331 -112 699 84 806 429 28 90 30 241 6 334 -47
177 -175 335 -334 416 -123 61 -303 81 -437 49z m346 -38 c183 -64 327 -209
391 -395 19 -55 23 -86 23 -191 0 -109 -4 -134 -26 -197 -34 -91 -106 -200
-172 -258 -68 -59 -187 -121 -273 -141 -143 -33 -318 -6 -450 71 -84 48 -196
170 -237 255 -117 245 -72 515 118 706 81 81 195 144 305 169 92 21 230 13
321 -19z"/>
<path d="M1248 4175 c-178 -45 -322 -176 -388 -350 -31 -82 -38 -227 -16 -312
47 -185 182 -330 366 -394 84 -29 227 -31 315 -5 185 55 340 216 385 401 16
69 14 198 -5 269 -45 171 -175 312 -345 374 -83 30 -229 38 -312 17z m207 -15
c89 -13 213 -72 277 -134 219 -210 224 -544 11 -755 -105 -103 -220 -151 -363
-151 -323 0 -570 282 -522 598 31 202 178 371 372 426 94 26 132 29 225 16z"/>
<path d="M1258 4123 c-31 -5 -37 -18 -12 -27 25 -10 33 -7 44 14 6 11 7 19 3
19 -4 -1 -20 -4 -35 -6z"/>
<path d="M1338 4114 c-52 -28 -50 -106 4 -128 82 -35 146 57 83 119 -28 28
-48 31 -87 9z m76 -30 c21 -20 20 -43 -1 -66 -23 -26 -59 -23 -79 7 -15 23
-15 27 0 50 19 29 56 33 80 9z"/>
<path d="M1465 4107 c14 -22 19 -23 40 -13 28 13 22 21 -23 31 l-34 7 17 -25z"/>
<path d="M1151 4063 c-11 -10 -24 -32 -27 -50 -13 -65 78 -111 126 -63 64 64
-29 170 -99 113z m79 -23 c26 -26 25 -52 0 -75 -16 -15 -26 -17 -48 -9 -37 13
-43 65 -10 88 29 20 34 20 58 -4z"/>
<path d="M1505 4055 c-32 -31 -33 -74 -2 -103 72 -67 172 34 102 103 -13 14
-36 25 -50 25 -14 0 -37 -11 -50 -25z m85 -15 c11 -11 20 -27 20 -35 0 -8 -9
-24 -20 -35 -11 -11 -27 -20 -35 -20 -18 0 -55 35 -55 53 0 17 12 32 35 45 27
16 32 15 55 -8z"/>
<path d="M1062 4022 c-40 -33 -40 -40 -3 -34 22 3 30 10 34 30 3 15 4 28 4 29
-1 1 -17 -11 -35 -25z"/>
<path d="M1655 4004 c0 -33 3 -43 13 -39 8 3 27 5 44 5 31 0 31 0 12 21 -10
12 -30 29 -44 39 l-25 18 0 -44z"/>
<path d="M1290 3950 c-10 -18 -8 -19 22 -13 42 8 43 8 13 21 -21 10 -26 9 -35
-8z"/>
<path d="M1425 3958 c-19 -11 -18 -12 10 -19 34 -10 38 -8 29 15 -7 19 -12 19
-39 4z"/>
<path d="M1024 3948 c-22 -10 -44 -47 -44 -72 0 -7 9 -25 21 -40 26 -33 79
-36 109 -6 30 30 27 83 -6 109 -29 23 -48 25 -80 9z m74 -31 c18 -14 14 -52
-8 -72 -31 -28 -74 -10 -78 32 -5 51 43 73 86 40z"/>
<path d="M1655 3915 c-14 -13 -25 -36 -25 -50 0 -35 42 -75 78 -75 17 0 37 9
50 23 67 72 -34 172 -103 102z m85 -15 c26 -26 25 -52 0 -75 -32 -29 -74 -10
-78 35 -6 55 40 78 78 40z"/>
<path d="M1578 3902 c-34 -4 -35 -12 -4 -34 23 -17 24 -17 29 10 3 15 5 27 4
27 -1 0 -14 -1 -29 -3z"/>
<path d="M1164 3881 c0 -17 2 -17 23 -4 13 9 23 17 23 19 0 2 -10 4 -23 4 -16
0 -23 -6 -23 -19z"/>
<path d="M923 3834 c-11 -27 -24 -60 -28 -74 l-7 -25 23 22 c13 12 40 26 59
31 19 6 29 11 22 11 -7 1 -21 20 -30 43 l-18 41 -21 -49z"/>
<path d="M1810 3843 c0 -11 -9 -32 -21 -47 l-20 -26 30 0 c16 0 33 -4 36 -10
17 -27 22 -4 8 38 -18 55 -33 75 -33 45z"/>
<path d="M1335 3821 c-68 -17 -117 -65 -136 -133 -40 -149 122 -279 259 -209
160 82 120 317 -58 344 -19 3 -48 2 -65 -2z m110 -35 c79 -34 114 -152 67
-228 -31 -49 -99 -82 -154 -75 -149 20 -191 227 -60 297 44 23 100 25 147 6z"/>
<path d="M1303 3760 c-62 -37 -83 -132 -44 -196 24 -40 95 -69 145 -60 98 19
145 155 79 228 -45 50 -124 62 -180 28z m127 -15 c63 -33 80 -123 33 -175 -52
-57 -129 -56 -177 1 -46 55 -28 141 36 172 41 21 71 21 108 2z"/>
<path d="M1072 3780 l-34 -5 24 -23 25 -22 12 26 c6 15 10 27 9 28 -2 1 -18
-1 -36 -4z"/>
<path d="M1664 3729 c9 -36 12 -38 23 -22 7 10 17 24 24 31 14 16 12 18 -27
25 l-31 6 11 -40z"/>
<path d="M948 3745 c-54 -30 -49 -107 7 -131 31 -13 39 -13 64 0 16 9 31 23
35 31 27 72 -41 136 -106 100z m76 -31 c21 -20 20 -43 -1 -66 -23 -26 -59 -23
-79 7 -15 23 -15 27 0 50 19 29 56 33 80 9z"/>
<path d="M1731 3714 c-12 -15 -21 -38 -21 -51 0 -32 42 -73 75 -73 33 0 75 41
75 73 0 40 -36 77 -75 77 -24 0 -39 -7 -54 -26z m89 -14 c11 -11 20 -27 20
-35 0 -8 -9 -24 -20 -35 -11 -11 -27 -20 -35 -20 -8 0 -24 9 -35 20 -11 11
-20 27 -20 35 0 8 9 24 20 35 11 11 27 20 35 20 8 0 24 -9 35 -20z"/>
<path d="M885 3592 c4 -29 11 -65 15 -80 l7 -27 11 26 c6 14 23 36 39 47 28
21 28 21 5 22 -14 0 -37 14 -54 32 l-31 33 8 -53z"/>
<path d="M1673 3585 c-9 -41 -9 -45 6 -39 59 25 124 3 146 -48 9 -23 15 -28
19 -18 10 27 25 104 21 108 -2 2 -14 -3 -27 -12 -43 -31 -118 -13 -143 33 -11
21 -12 19 -22 -24z"/>
<path d="M1042 3592 l-22 -17 33 -10 c32 -11 33 -10 29 17 -5 33 -9 34 -40 10z"/>
<path d="M960 3518 c-48 -52 -3 -137 65 -124 61 12 83 71 44 120 -27 34 -79
36 -109 4z m95 -22 c28 -43 -16 -94 -62 -73 -32 14 -40 52 -18 77 25 27 61 25
80 -4z"/>
<path d="M1675 3505 c-14 -13 -25 -36 -25 -50 0 -36 42 -75 80 -75 67 0 97 88
44 129 -35 28 -69 26 -99 -4z m85 -15 c26 -26 25 -52 0 -75 -26 -23 -69 -11
-81 23 -7 18 -4 28 16 48 29 29 39 30 65 4z"/>
<path d="M1117 3444 c-6 -34 -8 -32 20 -25 22 6 22 7 4 30 l-18 24 -6 -29z"/>
<path d="M1602 3440 c-10 -17 -10 -21 3 -26 20 -8 23 -4 16 24 -6 22 -6 22
-19 2z"/>
<path d="M1114 3378 c-22 -10 -44 -47 -44 -72 0 -7 9 -25 21 -40 26 -33 79
-36 109 -6 30 30 27 83 -6 109 -29 23 -48 25 -80 9z m64 -24 c47 -33 9 -107
-46 -88 -37 13 -43 65 -10 88 28 20 28 20 56 0z"/>
<path d="M1526 3369 c-33 -26 -36 -79 -5 -110 47 -47 141 2 125 65 -15 62 -72
83 -120 45z m89 -60 c0 -28 -5 -35 -28 -43 -59 -21 -93 71 -34 93 34 14 62 -9
62 -50z"/>
<path d="M970 3362 c0 -7 65 -82 71 -82 3 0 4 11 2 24 -3 13 0 32 5 42 9 17 6
19 -34 19 -24 0 -44 -1 -44 -3z"/>
<path d="M1249 3343 c15 -55 -29 -133 -75 -133 -36 0 -7 -19 59 -39 92 -27 95
-27 58 8 -26 24 -31 37 -31 74 0 29 7 53 20 69 l19 25 -25 12 c-34 15 -34 15
-25 -16z"/>
<path d="M1677 3323 c4 -21 0 -42 -12 -59 -9 -14 -15 -27 -13 -29 6 -6 86 64
107 93 l19 27 -53 0 -53 0 5 -32z"/>
<path d="M1430 3343 c0 -5 9 -19 20 -33 l20 -25 0 33 c0 25 -4 32 -20 32 -11
0 -20 -3 -20 -7z"/>
<path d="M1318 3316 c-28 -21 -38 -58 -23 -92 31 -75 139 -51 139 31 0 61 -68
98 -116 61z m74 -23 c24 -21 23 -55 -3 -79 -19 -17 -23 -17 -47 -3 -33 18 -40
54 -16 80 21 23 42 24 66 2z"/>
<path d="M1465 3234 c-3 -19 -18 -44 -36 -58 -29 -25 -30 -26 -7 -26 29 0 113
23 158 43 l35 15 -43 1 c-34 1 -50 7 -72 29 l-28 29 -7 -33z"/>
<path d="M2090 4277 c0 -21 -7 -51 -15 -67 -15 -29 -15 -30 10 -30 14 0 39 -7
55 -15 17 -9 30 -14 30 -12 0 9 -44 103 -61 131 l-19 31 0 -38z"/>
<path d="M2325 4259 c33 -92 47 -211 43 -343 -5 -145 3 -139 27 17 23 156 21
171 -30 275 -47 98 -63 118 -40 51z"/>
<path d="M614 4233 c-29 -68 -45 -117 -50 -148 -2 -16 -6 -43 -9 -60 -12 -62
63 -130 128 -118 15 3 30 9 33 14 3 5 10 9 15 9 19 0 -2 -20 -35 -34 -17 -7
-45 -11 -62 -9 -23 4 -39 -2 -64 -23 -30 -26 -32 -26 -21 -6 7 13 23 28 37 34
21 10 23 13 9 21 -9 5 -25 22 -35 39 l-18 30 -7 -50 c-7 -52 1 -135 17 -164 5
-10 22 -25 38 -33 26 -14 34 -14 65 -1 55 23 68 82 27 129 -9 10 -11 17 -4 17
6 0 18 -12 25 -27 l14 -26 13 39 c7 21 14 48 16 59 1 11 8 34 15 51 37 94 -68
176 -158 124 l-38 -22 28 26 c17 16 40 26 57 26 l29 0 -20 35 c-12 19 -21 51
-21 70 0 19 -2 35 -4 35 -2 0 -11 -17 -20 -37z m88 -180 c24 -21 23 -58 -2
-83 -24 -24 -48 -25 -78 -4 -26 18 -30 65 -6 88 20 21 63 20 86 -1z m-54 -209
c39 -27 23 -84 -24 -84 -21 0 -54 33 -54 52 0 10 38 48 48 48 4 0 18 -7 30
-16z"/>
<path d="M636 4034 c-9 -8 -16 -18 -16 -22 1 -39 63 -42 68 -3 6 37 -26 52
-52 25z"/>
<path d="M612 3831 c-19 -11 -11 -45 11 -49 9 -2 20 4 23 13 9 21 -16 47 -34
36z"/>
<path d="M2256 4171 c-16 -68 -16 -86 -5 -137 33 -154 6 -374 -66 -532 -29
-65 -31 -73 -11 -49 35 43 93 165 117 248 30 106 37 307 15 431 -9 52 -20 99
-25 106 -4 7 -15 -21 -25 -67z m39 -183 l4 -123 -13 97 c-7 53 -16 104 -20
113 -3 9 -3 28 0 42 13 50 25 -4 29 -129z"/>
<path d="M4151 4152 c0 -71 3 -84 24 -106 31 -33 79 -35 112 -4 13 12 23 16
23 10 0 -6 -10 -18 -22 -26 l-22 -16 22 -16 c12 -8 22 -20 22 -26 0 -6 -10 -2
-23 10 -33 31 -81 29 -112 -4 -21 -22 -24 -35 -24 -106 l-1 -81 26 24 c25 24
25 24 5 38 -12 7 -21 18 -21 23 0 5 12 0 26 -11 34 -27 64 -27 100 0 l29 21
-25 -24 -26 -23 26 -22 26 -21 0 218 0 218 -28 -21 c-28 -21 -28 -22 -9 -31
11 -5 22 -15 25 -23 4 -9 -3 -7 -20 6 -34 27 -64 27 -98 0 -14 -11 -26 -16
-26 -10 0 5 9 16 20 24 20 14 19 14 -5 37 l-25 23 1 -81z m109 -22 c11 -11 20
-25 20 -32 0 -18 -31 -48 -51 -48 -17 0 -49 35 -49 52 0 11 38 48 50 48 6 0
19 -9 30 -20z m5 -180 c27 -30 7 -70 -34 -70 -41 0 -59 32 -36 66 19 29 46 31
70 4z"/>
<path d="M4210 4114 c-11 -12 -10 -18 3 -32 16 -15 18 -15 34 0 13 14 14 20 3
32 -7 9 -16 16 -20 16 -4 0 -13 -7 -20 -16z"/>
<path d="M4210 3934 c-11 -12 -10 -18 3 -32 16 -15 18 -15 33 0 19 18 12 48
-9 48 -8 0 -20 -7 -27 -16z"/>
<path d="M7048 4100 c-37 -74 -76 -169 -87 -210 -21 -85 -37 -240 -25 -240 11
0 94 128 127 195 49 100 58 144 55 271 l-3 119 -67 -135z m42 -62 c-6 -100
-30 -166 -99 -273 l-32 -50 6 63 c3 35 15 94 26 130 22 71 88 222 98 222 3 0
4 -42 1 -92z"/>
<path d="M7170 4208 c0 -48 22 -155 40 -196 22 -49 108 -143 176 -192 37 -26
45 -29 41 -14 -3 10 -13 45 -21 76 -16 56 -70 145 -171 280 -28 37 -53 67 -57
67 -5 1 -8 -9 -8 -21z m102 -138 c66 -89 103 -154 113 -195 l6 -29 -23 19
c-99 83 -131 127 -153 212 -28 106 -26 106 57 -7z"/>
<path d="M2038 4154 c-65 -35 -73 -121 -17 -168 84 -71 205 26 154 124 -9 18
-31 38 -50 46 -42 17 -53 17 -87 -2z m87 -50 c26 -26 16 -76 -19 -93 -25 -12
-31 -11 -55 6 -32 25 -37 47 -17 78 19 29 66 34 91 9z"/>
<path d="M2062 4091 c-8 -4 -12 -19 -10 -32 4 -29 45 -34 61 -7 19 30 -19 60
-51 39z"/>
<path d="M1922 4098 l43 -53 6 30 c4 16 9 37 13 46 5 12 0 15 -26 15 -18 0
-44 3 -56 8 -20 7 -17 0 20 -46z"/>
<path d="M820 4098 c-14 -5 -35 -7 -47 -5 -27 5 -28 -1 -8 -27 8 -11 15 -31
15 -44 0 -20 6 -15 35 28 20 29 34 54 33 55 -2 2 -14 -2 -28 -7z"/>
<path d="M4150 4013 l0 -46 23 19 c12 10 23 19 25 20 2 1 -8 13 -22 27 l-26
26 0 -46z"/>
<path d="M2190 4018 c0 -6 -9 -21 -19 -32 -19 -21 -19 -21 16 -44 l36 -23 -7
23 c-3 13 -6 38 -6 56 0 17 -4 32 -10 32 -5 0 -10 -5 -10 -12z"/>
<path d="M2034 3906 c41 -95 59 -116 103 -116 39 0 83 37 83 70 0 26 -18 61
-39 77 -36 28 -103 5 -121 -41 -7 -16 -9 -17 -9 -4 -1 9 6 23 14 32 19 19 19
26 0 26 -9 0 -27 7 -40 16 -24 16 -24 15 9 -60z m130 1 c22 -16 18 -65 -6 -80
-28 -18 -68 7 -68 42 0 44 39 64 74 38z"/>
<path d="M2121 3890 c-19 -11 -9 -45 14 -45 13 0 21 8 23 21 3 23 -17 37 -37
24z"/>
<path d="M6773 3727 c-203 -306 -225 -340 -287 -464 -31 -62 -56 -114 -56
-117 0 -3 24 12 53 34 28 22 130 78 224 125 203 100 279 162 331 267 28 58 72
195 72 226 0 8 -23 -21 -52 -64 -55 -82 -127 -164 -145 -164 -17 0 -23 38 -23
156 0 69 6 129 15 159 8 27 13 50 12 51 -1 2 -66 -93 -144 -209z m89 25 c-5
-71 13 -192 30 -203 25 -15 114 57 148 121 6 12 14 19 17 16 3 -3 -13 -43 -36
-89 -58 -120 -113 -167 -311 -264 -85 -41 -167 -84 -182 -94 -14 -11 -29 -19
-33 -19 -15 0 93 184 224 382 75 114 139 207 142 208 3 0 3 -26 1 -58z"/>
<path d="M7215 3873 c35 -103 53 -142 100 -215 96 -147 174 -209 421 -334 205
-104 275 -146 339 -205 25 -23 45 -37 45 -32 0 30 -122 244 -192 338 -70 93
-465 511 -474 502 -2 -1 3 -21 11 -42 14 -40 20 -156 9 -167 -7 -8 -168 104
-216 150 -21 20 -40 44 -44 54 -3 10 -9 18 -14 18 -5 0 2 -30 15 -67z m673
-434 c69 -92 176 -259 169 -266 -2 -2 -33 16 -69 40 -36 24 -152 88 -259 142
-191 97 -195 99 -289 194 -78 78 -105 113 -143 188 -26 50 -47 95 -47 99 0 4
10 -2 23 -13 42 -38 186 -133 201 -133 21 0 39 72 31 124 l-6 41 159 -161 c87
-89 190 -204 230 -255z"/>
<path d="M7164 3648 c4 -112 9 -228 12 -259 l6 -56 56 14 c32 8 112 15 183 16
l127 1 -57 39 c-75 52 -134 110 -186 182 -48 67 -125 219 -125 247 0 10 -5 18
-11 18 -8 0 -10 -56 -5 -202z m145 -107 c31 -38 77 -87 103 -108 l48 -38 -88
-7 c-48 -4 -106 -11 -128 -16 l-41 -9 -7 105 c-3 58 -6 141 -6 185 l0 80 31
-61 c18 -34 57 -93 88 -131z"/>
<path d="M4179 3801 c-34 -34 -37 -68 -9 -104 26 -33 63 -41 99 -23 50 26 57
92 15 131 -36 33 -69 31 -105 -4z m92 -32 c16 -30 -3 -69 -33 -69 -34 0 -50
15 -50 45 0 46 61 64 83 24z"/>
<path d="M4207 3757 c-8 -21 8 -39 29 -35 27 5 25 42 -2 46 -12 2 -24 -3 -27
-11z"/>
<path d="M2191 3799 c-23 -19 -23 -20 -5 -42 19 -22 19 -22 -2 -4 -11 9 -31
17 -43 17 -13 0 -37 10 -53 22 l-31 22 8 -30 c11 -36 13 -159 4 -199 -23 -109
-36 -148 -66 -210 -19 -38 -46 -85 -61 -104 -57 -72 -53 -73 17 -6 88 86 150
178 196 291 40 99 41 106 18 97 -16 -5 -16 -4 0 9 16 12 54 144 45 154 -2 1
-14 -6 -27 -17z m-81 -33 c0 -2 -7 -9 -15 -16 -13 -11 -14 -10 -9 4 5 14 24
23 24 12z m48 -25 c8 -4 12 -19 10 -32 -4 -33 -53 -40 -63 -9 -11 36 22 61 53
41z m-18 -94 c13 -5 13 -6 -1 -6 -8 -1 -24 6 -35 15 -19 15 -19 15 1 6 11 -5
27 -12 35 -15z m4 -44 c10 -26 -23 -48 -42 -29 -8 8 -12 22 -9 30 8 21 43 20
51 -1z"/>
<path d="M2122 3713 c2 -10 10 -18 18 -18 22 0 18 29 -3 33 -14 3 -18 -1 -15
-15z"/>
<path d="M2107 3604 c-8 -8 1 -24 14 -24 5 0 9 7 9 15 0 15 -12 20 -23 9z"/>
<path d="M545 3719 c4 -24 11 -48 15 -54 4 -5 11 -26 15 -45 9 -45 67 -167
108 -228 32 -47 137 -162 148 -162 3 0 23 -16 43 -35 21 -19 43 -35 49 -35 7
0 -8 19 -32 43 -94 91 -189 288 -182 380 1 20 -3 27 -11 24 -7 -2 -12 -11 -12
-20 1 -9 -3 -14 -8 -11 -5 4 -23 -3 -39 -15 -29 -22 -30 -22 -17 -2 7 12 21
24 31 27 25 8 50 50 44 74 -3 11 -1 35 3 55 9 39 5 43 -22 19 -17 -16 -17 -18
0 -31 15 -13 15 -13 -5 -4 -12 6 -33 11 -47 11 -13 0 -39 12 -56 27 l-32 27 7
-45z m45 -30 c-7 -11 -14 -18 -17 -15 -3 3 0 12 7 21 18 21 23 19 10 -6z m78
-41 c-4 -26 -30 -43 -52 -35 -21 8 -21 53 1 66 25 13 55 -5 51 -31z m-53 -66
c-3 -3 -11 0 -18 7 -9 10 -8 11 6 5 10 -3 15 -9 12 -12z m79 -47 c7 -19 -20
-46 -39 -39 -21 8 -26 32 -9 48 16 17 40 12 48 -9z m29 -89 c7 -17 -18 -40
-33 -31 -5 3 -10 15 -10 26 0 23 35 27 43 5z"/>
<path d="M615 3661 c-8 -15 3 -31 21 -31 9 0 14 7 12 17 -4 20 -24 28 -33 14z"/>
<path d="M650 3525 c0 -8 7 -15 15 -15 8 0 15 7 15 15 0 8 -7 15 -15 15 -8 0
-15 -7 -15 -15z"/>
<path d="M690 3440 c0 -5 5 -10 10 -10 6 0 10 5 10 10 0 6 -4 10 -10 10 -5 0
-10 -4 -10 -10z"/>
<path d="M4151 3622 c0 -71 3 -84 24 -106 31 -33 79 -35 112 -4 13 12 23 16
23 10 0 -6 -10 -18 -22 -26 l-22 -16 22 -16 c12 -8 22 -20 22 -26 0 -6 -10 -2
-23 10 -33 31 -81 29 -112 -4 -21 -22 -24 -35 -24 -106 l-1 -81 25 23 c24 23
25 23 5 37 -11 8 -20 19 -20 24 0 6 12 1 26 -10 34 -27 64 -27 100 0 l29 21
-27 -25 -26 -25 27 -20 27 -20 0 218 0 218 -27 -21 c-24 -20 -25 -23 -8 -31
10 -5 20 -15 23 -23 4 -9 -3 -7 -20 6 -34 27 -64 27 -98 0 -14 -11 -26 -16
-26 -10 0 5 9 16 20 24 20 14 19 14 -5 37 l-25 23 1 -81z m109 -22 c11 -11 20
-25 20 -32 0 -18 -31 -48 -51 -48 -17 0 -49 35 -49 52 0 11 38 48 50 48 6 0
19 -9 30 -20z m2 -177 c35 -31 16 -73 -34 -73 -38 0 -55 33 -33 66 18 28 41
31 67 7z"/>
<path d="M4210 3584 c-11 -12 -10 -18 3 -32 16 -15 18 -15 34 0 13 14 14 20 3
32 -7 9 -16 16 -20 16 -4 0 -13 -7 -20 -16z"/>
<path d="M4210 3404 c-11 -12 -10 -18 3 -32 16 -15 18 -15 33 0 19 18 12 48
-9 48 -8 0 -20 -7 -27 -16z"/>
<path d="M7080 3552 c-45 -86 -135 -177 -222 -222 -37 -19 -65 -36 -64 -38 2
-1 32 4 67 13 35 8 108 15 162 15 75 0 99 3 103 14 3 8 2 76 -3 150 l-8 136
-35 -68z m26 -198 c-1 -1 -40 -4 -87 -6 l-86 -4 58 54 c32 29 69 70 81 90 l23
37 6 -85 c3 -47 5 -86 5 -86z"/>
<path d="M4150 3480 l0 -49 25 24 24 25 -24 25 -25 24 0 -49z"/>
<path d="M7311 3313 c-8 -3 19 -14 60 -24 306 -78 583 -368 696 -727 14 -45
27 -81 30 -79 9 9 -29 284 -52 373 -32 125 -75 205 -153 282 -81 78 -211 146
-325 167 -77 15 -228 19 -256 8z m284 -39 c160 -38 317 -157 379 -288 33 -68
76 -227 76 -277 0 -16 -13 2 -41 55 -118 229 -283 397 -484 493 -41 19 -75 37
-75 39 0 6 76 -6 145 -22z"/>
<path d="M4179 3271 c-35 -36 -38 -75 -6 -110 l22 -26 -22 19 c-23 19 -23 19
-23 -7 0 -22 5 -27 25 -27 14 0 25 4 25 9 0 5 16 5 38 0 67 -15 82 -12 82 18
0 24 -1 25 -17 11 -33 -28 -48 -32 -20 -5 43 41 37 106 -14 132 -40 21 -57 19
-90 -14z m92 -32 c16 -30 -3 -69 -33 -69 -34 0 -50 15 -50 45 0 46 61 64 83
24z"/>
<path d="M4207 3227 c-8 -21 8 -39 29 -35 27 5 25 42 -2 46 -12 2 -24 -3 -27
-11z"/>
<path d="M6895 3265 c-176 -33 -291 -104 -400 -246 -57 -73 -108 -169 -134
-248 -29 -89 -26 -105 9 -46 59 102 169 214 303 308 70 51 154 93 274 137 52
20 97 45 125 70 l43 39 -75 0 c-41 -1 -106 -7 -145 -14z m155 -13 c0 -10 -89
-55 -145 -72 -124 -39 -290 -146 -412 -267 -46 -44 -83 -79 -83 -76 0 26 133
214 186 265 83 78 221 133 365 147 46 5 85 9 87 10 1 0 2 -3 2 -7z"/>
<path d="M7183 3139 c4 -74 7 -154 7 -179 l0 -45 88 -1 c59 -1 106 -8 147 -22
33 -11 60 -20 61 -19 1 1 -31 60 -71 131 -82 146 -133 210 -195 245 l-43 24 6
-134z m58 69 c17 -13 46 -43 64 -68 38 -52 127 -211 121 -217 -2 -2 -23 1 -47
6 -24 6 -72 11 -106 11 l-62 0 -3 145 c-2 80 -2 145 0 145 2 0 17 -10 33 -22z"/>
<path d="M7316 3234 c41 -39 85 -105 149 -225 30 -55 69 -120 86 -142 54 -70
148 -144 274 -218 66 -39 139 -84 163 -100 23 -17 42 -26 42 -20 0 26 -86 214
-132 290 -70 113 -237 283 -335 340 -70 41 -171 81 -243 96 l-35 8 31 -29z
m190 -72 c194 -98 364 -296 468 -545 l16 -38 -33 19 c-17 11 -84 50 -147 87
-160 94 -247 183 -319 325 -30 58 -69 126 -87 153 -19 26 -34 49 -34 52 0 7
72 -21 136 -53z"/>
<path d="M6539 3166 c-103 -70 -160 -144 -174 -231 l-6 -40 30 54 c57 100 138
193 211 243 14 9 20 17 15 17 -6 1 -40 -19 -76 -43z"/>
<path d="M7055 3166 c-11 -7 -74 -34 -140 -60 -175 -69 -337 -184 -442 -315
-46 -57 -130 -217 -120 -227 11 -12 265 68 352 111 113 55 179 113 250 219 55
83 68 109 111 224 25 64 23 72 -11 48z m-22 -73 c-73 -178 -190 -323 -310
-386 -94 -48 -333 -125 -333 -106 0 15 45 100 74 139 72 97 238 240 336 290
40 21 225 96 242 99 4 0 0 -16 -9 -36z"/>
<path d="M7124 3143 c-19 -64 -73 -188 -105 -240 -21 -35 -36 -63 -34 -63 2 0
19 9 37 19 18 11 52 25 76 32 l42 12 0 129 c0 121 -4 150 -16 111z m-4 -166
c0 -50 -2 -53 -32 -65 -17 -6 -32 -11 -33 -9 -3 3 56 127 61 127 2 0 4 -24 4
-53z"/>
<path d="M7985 3101 c95 -133 142 -309 161 -606 9 -131 18 -114 36 67 15 145
0 317 -34 388 -21 44 -167 200 -188 200 -5 0 6 -22 25 -49z m140 -166 c21 -43
45 -191 45 -273 0 -42 -18 12 -28 85 -9 69 -36 163 -76 268 -15 39 34 -28 59
-80z"/>
<path d="M4101 3068 l-44 -10 33 -19 c18 -11 33 -19 34 -17 1 2 10 15 19 31
10 15 14 27 10 26 -5 -1 -28 -6 -52 -11z"/>
<path d="M4213 3065 c-37 -16 -53 -42 -53 -87 1 -37 14 -59 47 -76 62 -33 133
6 133 73 0 49 -15 74 -55 91 -40 16 -32 17 -72 -1z m87 -35 c41 -41 7 -120
-52 -120 -24 0 -68 44 -68 68 0 59 79 93 120 52z"/>
<path d="M4350 3075 c0 -3 6 -15 13 -28 6 -12 12 -23 13 -25 0 -1 16 5 34 15
29 14 31 17 14 23 -34 13 -74 20 -74 15z"/>
<path d="M3988 3004 c-58 -31 -67 -106 -17 -148 84 -71 195 27 135 119 -16 25
-53 45 -79 45 -7 -1 -24 -7 -39 -16z m92 -34 c41 -41 7 -120 -52 -120 -26 0
-68 44 -68 71 0 57 79 90 120 49z"/>
<path d="M4435 3006 c-59 -26 -72 -101 -26 -147 48 -48 116 -38 147 22 39 77
-41 161 -121 125z m83 -32 c32 -22 30 -76 -4 -103 -35 -27 -59 -26 -89 4 -30
30 -31 54 -4 89 24 30 63 34 97 10z"/>
<path d="M3860 2941 l-45 -38 42 0 c40 0 41 1 46 36 2 20 3 37 3 38 -1 1 -22
-15 -46 -36z"/>
<path d="M4602 2919 c0 -40 3 -49 15 -45 8 3 31 6 51 6 l36 0 -44 45 c-24 25
-47 45 -51 45 -4 0 -7 -23 -7 -51z"/>
<path d="M4143 2854 c-10 -22 -10 -25 3 -20 9 3 27 9 41 12 l26 7 -24 13 c-32
18 -32 18 -46 -12z"/>
<path d="M4311 2865 l-25 -14 30 -6 c16 -4 35 -8 42 -11 15 -4 15 6 -2 29 -15
19 -13 19 -45 2z"/>
<path d="M7140 2870 c-35 -6 -35 -6 -11 -19 20 -11 26 -11 39 3 20 20 15 23
-28 16z"/>
<path d="M7216 2859 c-56 -44 -21 -133 51 -127 70 6 93 79 41 128 -28 26 -58
25 -92 -1z m89 -60 c0 -27 -5 -35 -27 -43 -59 -21 -94 63 -38 91 36 18 65 -4
65 -48z"/>
<path d="M7352 2861 c9 -15 19 -19 33 -15 38 12 36 18 -13 29 -32 7 -33 6 -20
-14z"/>
<path d="M3825 2861 c-71 -29 -80 -133 -14 -166 43 -23 77 -18 110 14 47 48
38 116 -21 146 -32 17 -45 18 -75 6z m84 -47 c12 -15 21 -35 21 -46 0 -24 -44
-68 -68 -68 -33 0 -72 38 -72 71 0 65 80 93 119 43z"/>
<path d="M4595 2815 c-19 -18 -25 -35 -25 -65 0 -56 34 -90 90 -90 56 0 90 34
90 90 0 56 -34 90 -90 90 -30 0 -47 -6 -65 -25z m112 -17 c29 -27 29 -65 1
-95 -27 -29 -65 -29 -95 -1 -29 27 -29 65 -1 95 27 29 65 29 95 1z"/>
<path d="M7032 2807 c-45 -48 -11 -127 55 -127 32 0 73 42 73 75 0 35 -42 75
-78 75 -17 0 -37 -9 -50 -23z m88 -17 c11 -11 20 -27 20 -35 0 -19 -36 -55
-55 -55 -19 0 -55 36 -55 55 0 19 36 55 55 55 8 0 24 -9 35 -20z"/>
<path d="M7397 2818 c-24 -19 -36 -59 -25 -87 16 -43 59 -62 103 -45 24 10 46
60 39 89 -12 48 -78 72 -117 43z m75 -25 c24 -21 23 -55 -3 -79 -19 -17 -23
-17 -47 -3 -33 18 -40 54 -16 80 21 23 42 24 66 2z"/>
<path d="M4520 2800 c-8 -5 -25 -10 -38 -10 -23 0 -22 -1 8 -26 17 -15 32 -25
34 -23 4 5 16 69 13 69 -1 0 -9 -5 -17 -10z"/>
<path d="M3990 2773 c0 -23 1 -23 25 -7 14 9 25 18 25 19 0 1 -11 5 -25 7 -21
4 -25 1 -25 -19z"/>
<path d="M6942 2770 l-32 -30 34 0 c30 0 34 3 38 30 6 37 1 37 -40 0z"/>
<path d="M7545 2757 l0 -42 43 4 c24 2 42 4 40 5 -2 0 -21 18 -43 38 l-40 37
0 -42z"/>
<path d="M3701 2737 c-29 -61 -51 -137 -41 -137 4 0 10 6 13 13 8 22 75 49
100 41 20 -6 19 -4 -7 24 -16 17 -32 48 -36 69 l-7 38 -22 -48z"/>
<path d="M4790 2728 c0 -15 -11 -40 -25 -56 -30 -36 -31 -42 -6 -35 11 3 34
-2 52 -11 18 -9 33 -16 35 -16 5 0 -39 125 -47 135 -5 5 -9 -2 -9 -17z"/>
<path d="M7176 2704 c-3 -9 -6 -17 -6 -18 0 -1 14 0 32 2 29 4 30 6 13 18 -24
18 -32 18 -39 -2z"/>
<path d="M7310 2710 c-18 -11 -14 -15 23 -24 26 -6 27 -5 17 14 -12 22 -18 24
-40 10z"/>
<path d="M6896 2689 c-52 -41 -20 -129 48 -129 34 0 76 41 76 75 0 33 -41 75
-73 75 -13 0 -36 -9 -51 -21z m84 -19 c11 -11 20 -27 20 -35 0 -19 -36 -55
-55 -55 -19 0 -55 36 -55 55 0 19 36 55 55 55 8 0 24 -9 35 -20z"/>
<path d="M4153 2679 c-139 -69 -172 -263 -61 -366 59 -56 171 -79 241 -50 154
65 191 265 70 379 -63 60 -172 76 -250 37z m193 -26 c22 -11 53 -40 72 -67 27
-41 32 -57 32 -109 0 -100 -55 -172 -151 -198 -58 -15 -105 -6 -162 32 -63 41
-91 100 -85 179 11 147 162 231 294 163z"/>
<path d="M4168 2620 c-112 -61 -110 -233 5 -291 53 -27 130 -23 177 11 36 26
69 90 70 135 0 41 -38 114 -72 139 -40 29 -132 32 -180 6z m150 -19 c112 -57
93 -226 -29 -262 -51 -16 -104 0 -144 41 -38 40 -46 119 -16 168 43 68 118 89
189 53z"/>
<path d="M6748 2646 l-78 -42 46 -23 c26 -12 47 -21 48 -19 0 2 15 31 32 66
17 34 31 62 30 61 0 0 -36 -20 -78 -43z"/>
<path d="M7542 2670 c-32 -30 -30 -82 4 -109 15 -12 38 -21 51 -21 32 0 73 42
73 75 0 35 -42 75 -78 75 -15 0 -38 -9 -50 -20z m80 -12 c27 -23 28 -46 3 -75
-23 -27 -25 -27 -52 -13 -34 19 -41 54 -17 81 20 22 44 24 66 7z"/>
<path d="M7455 2650 l-29 -5 28 -18 c31 -21 39 -18 34 10 -2 15 -9 17 -33 13z"/>
<path d="M7722 2652 c2 -4 10 -24 17 -44 15 -37 15 -37 60 -31 25 3 47 7 48 8
2 1 -27 18 -63 38 -36 20 -64 33 -62 29z"/>
<path d="M3870 2641 c-28 -5 -32 -8 -19 -16 9 -6 21 -19 27 -30 10 -19 11 -19
22 9 6 16 13 33 16 37 3 5 2 8 -3 8 -4 -1 -24 -4 -43 -8z"/>
<path d="M7050 2635 c0 -8 4 -15 9 -15 5 0 14 7 21 15 10 13 9 15 -9 15 -12 0
-21 -6 -21 -15z"/>
<path d="M4609 2582 c14 -43 17 -47 24 -28 5 11 18 31 29 43 l21 23 -24 0
c-13 0 -33 3 -45 6 -21 6 -21 5 -5 -44z"/>
<path d="M6805 2578 c-10 -29 -20 -59 -23 -66 -3 -8 8 -6 29 7 19 12 42 21 52
21 17 0 17 2 -2 26 -12 15 -21 35 -21 45 0 35 -16 19 -35 -33z"/>
<path d="M3740 2613 c-103 -40 -75 -183 35 -183 40 0 85 50 85 94 0 60 -67
110 -120 89z m74 -39 c61 -61 -14 -158 -82 -107 -54 40 -32 123 33 123 18 0
41 -7 49 -16z"/>
<path d="M7701 2599 c-1 -9 -10 -28 -21 -42 -26 -33 -25 -37 8 -37 15 0 34 -6
41 -12 11 -11 12 -8 7 16 -10 42 -34 94 -35 75z"/>
<path d="M4708 2585 c-58 -32 -56 -130 4 -161 96 -50 185 70 109 147 -33 32
-70 37 -113 14z m76 -16 c75 -34 37 -146 -44 -130 -54 10 -68 85 -24 120 31
24 35 25 68 10z"/>
<path d="M7205 2568 c-50 -18 -82 -46 -104 -91 -82 -170 106 -339 259 -234 99
67 113 191 31 277 -51 53 -120 71 -186 48z m156 -54 c47 -44 62 -80 57 -134
-6 -61 -39 -107 -95 -132 -60 -27 -113 -17 -164 29 -85 77 -74 192 25 255 48
30 136 21 177 -18z"/>
<path d="M7184 2510 c-62 -40 -80 -134 -39 -197 23 -35 98 -66 138 -58 126 27
161 190 54 255 -42 26 -112 26 -153 0z m137 -17 c29 -17 59 -67 59 -97 0 -35
-30 -85 -59 -100 -51 -27 -98 -21 -137 18 -96 96 20 248 137 179z"/>
<path d="M6546 2560 c-121 -38 -193 -182 -137 -274 25 -40 86 -73 154 -82 76
-11 225 37 188 60 -5 3 -21 2 -36 -4 -38 -14 -140 -12 -178 4 -75 32 -104 107
-63 168 38 57 165 90 249 64 42 -13 33 10 -15 38 -49 28 -119 39 -162 26z"/>
<path d="M6958 2531 l-26 -6 19 -23 19 -24 10 27 c12 33 12 33 -22 26z"/>
<path d="M6363 2513 c-23 -4 -29 -30 -15 -64 5 -11 13 -4 29 28 12 24 19 42
15 42 -4 -1 -17 -4 -29 -6z"/>
<path d="M7541 2514 c1 -19 28 -78 28 -65 1 8 11 25 23 38 l21 23 -20 0 c-12
0 -28 3 -37 6 -9 3 -16 2 -15 -2z"/>
<path d="M6824 2487 c-52 -45 -23 -127 45 -127 56 0 94 56 70 103 -28 51 -72
61 -115 24z m74 -13 c39 -27 19 -94 -28 -94 -47 0 -67 67 -28 94 12 9 25 16
28 16 3 0 16 -7 28 -16z"/>
<path d="M7940 2491 c5 -11 10 -36 10 -56 0 -42 -39 -85 -76 -85 -36 0 -28
-17 11 -24 42 -8 99 15 121 50 25 37 14 85 -25 111 -42 28 -55 29 -41 4z"/>
<path d="M7787 2493 c-15 -14 -6 -51 13 -56 25 -6 34 7 26 39 -6 23 -25 32
-39 17z"/>
<path d="M7873 2474 c3 -18 0 -42 -8 -58 -14 -26 -13 -27 8 -24 18 2 23 10 25
44 2 29 -2 45 -14 55 -16 13 -17 11 -11 -17z"/>
<path d="M7619 2472 c-33 -27 -30 -78 5 -109 36 -31 61 -29 98 7 24 25 29 36
23 58 -3 15 -14 35 -22 45 -21 22 -75 22 -104 -1z m85 -18 c19 -18 21 -55 4
-72 -7 -7 -24 -12 -38 -12 -48 0 -67 45 -33 82 20 22 46 23 67 2z"/>
<path d="M3640 2448 c0 -26 16 -118 26 -148 4 -10 10 -5 19 17 8 18 28 41 45
52 l32 19 -36 12 c-20 6 -47 26 -61 43 l-25 32 0 -27z"/>
<path d="M4620 2428 c0 -18 -3 -44 -7 -57 -5 -21 -4 -22 15 -12 60 32 158 -5
177 -67 5 -17 12 -32 15 -32 7 0 42 141 37 146 -2 2 -22 -6 -46 -18 -38 -18
-47 -19 -84 -8 -45 13 -87 45 -87 67 0 7 -4 13 -10 13 -5 0 -10 -15 -10 -32z"/>
<path d="M6556 2437 c-48 -27 -61 -46 -52 -80 9 -36 53 -57 118 -57 l53 0 -31
19 c-42 26 -59 74 -40 112 18 36 6 37 -48 6z"/>
<path d="M3843 2416 l-31 -22 36 -11 c20 -6 38 -11 39 -10 1 1 -2 16 -5 33
l-7 32 -32 -22z"/>
<path d="M6670 2427 c-14 -7 -25 -21 -25 -32 0 -22 58 -60 80 -51 21 8 20 82
-1 90 -21 8 -25 8 -54 -7z"/>
<path d="M6774 2329 c3 -35 11 -68 16 -73 7 -7 10 -6 10 3 0 7 14 26 31 42 23
22 27 29 14 29 -9 0 -30 14 -47 31 l-31 30 7 -62z"/>
<path d="M8060 2376 c0 -21 -77 -86 -110 -93 l-30 -5 20 -29 c30 -42 52 -98
59 -153 l6 -48 43 81 c49 91 62 164 42 225 -11 35 -30 49 -30 22z m10 -130
c-6 -28 -19 -67 -30 -86 -16 -31 -19 -33 -25 -15 -4 11 -16 41 -27 67 -12 27
-20 49 -17 51 2 2 23 15 47 30 23 15 42 33 43 40 0 6 5 1 10 -12 6 -16 6 -42
-1 -75z"/>
<path d="M7560 2360 c0 -14 -3 -36 -7 -49 -5 -21 -4 -22 15 -12 11 6 33 11 49
11 26 1 26 1 8 11 -11 6 -30 23 -42 38 l-23 26 0 -25z"/>
<path d="M6928 2346 c-23 -17 -23 -26 0 -26 10 0 23 -5 30 -12 13 -13 15 -5 6
30 -7 25 -12 26 -36 8z"/>
<path d="M3736 2319 c-35 -41 -34 -83 3 -120 48 -48 116 -38 147 22 32 62 -13
129 -86 129 -30 0 -44 -6 -64 -31z m114 -9 c41 -41 12 -120 -45 -120 -31 0
-75 41 -75 70 0 29 44 70 75 70 14 0 34 -9 45 -20z"/>
<path d="M4654 2330 c-39 -16 -66 -61 -60 -100 12 -78 101 -106 157 -51 48 48
31 128 -32 150 -37 13 -37 13 -65 1z m78 -37 c25 -29 29 -53 13 -82 -35 -69
-125 -44 -125 34 0 56 76 89 112 48z"/>
<path d="M7720 2325 c-14 -8 -36 -14 -49 -15 l-24 0 27 -21 c15 -12 32 -33 38
-48 11 -26 11 -26 25 19 7 25 12 53 11 62 -3 15 -6 15 -28 3z"/>
<path d="M6874 2290 c-26 -10 -54 -48 -54 -72 0 -9 11 -29 23 -44 46 -53 130
-23 130 46 0 51 -53 88 -99 70z m60 -36 c32 -31 11 -84 -32 -84 -35 0 -52 16
-52 50 0 14 5 31 12 38 17 17 54 15 72 -4z"/>
<path d="M7776 2291 c-3 -5 7 -11 22 -14 15 -3 36 -9 47 -12 18 -6 17 -4 -4
14 -24 22 -56 28 -65 12z"/>
<path d="M7562 2257 c-67 -72 34 -172 103 -102 14 13 25 36 25 50 0 35 -42 75
-78 75 -17 0 -37 -9 -50 -23z m80 -9 c31 -24 27 -74 -7 -90 -19 -9 -29 -8 -50
6 -30 20 -32 49 -5 76 23 23 40 25 62 8z"/>
<path d="M3927 2228 c-2 -18 -4 -34 -3 -34 0 -1 15 1 33 3 l32 5 -21 29 c-28
37 -35 36 -41 -3z"/>
<path d="M4527 2222 c-18 -20 -18 -20 3 -27 28 -9 35 0 24 26 -9 20 -10 20
-27 1z"/>
<path d="M7005 2199 c-8 -25 -3 -32 23 -27 20 3 20 3 2 26 l-19 22 -6 -21z"/>
<path d="M7834 2179 c0 -32 -5 -45 -23 -60 -30 -24 -46 -24 -71 1 -24 24 -26
17 -3 -20 22 -38 53 -51 82 -35 49 26 68 107 32 139 -18 16 -18 15 -17 -25z"/>
<path d="M7487 2192 c-17 -18 -17 -20 -1 -26 22 -8 26 -3 22 24 -3 22 -3 22
-21 2z"/>
<path d="M7754 2197 c-7 -20 3 -37 22 -37 18 0 18 24 -1 40 -12 10 -16 9 -21
-3z"/>
<path d="M6430 2193 c0 -23 145 -243 159 -243 3 0 7 25 8 55 1 38 9 69 27 101
14 26 26 48 26 49 0 1 -35 4 -78 7 -43 2 -92 12 -110 20 -18 9 -32 14 -32 11z
m133 -58 c23 -2 41 -6 39 -9 -4 -8 -10 -25 -25 -70 l-14 -40 -41 62 c-48 70
-50 76 -21 67 11 -4 39 -8 62 -10z"/>
<path d="M7916 2166 c14 -59 -56 -156 -112 -156 -33 0 -79 24 -98 52 -9 12
-18 19 -22 15 -9 -8 44 -55 88 -78 20 -10 54 -21 77 -25 36 -6 43 -3 71 24 25
25 30 39 30 77 0 42 -22 115 -35 115 -3 0 -3 -11 1 -24z"/>
<path d="M6745 2165 c-81 -35 -128 -153 -94 -242 30 -79 141 -137 217 -112 44
14 56 22 111 72 23 21 39 41 37 46 -3 5 -23 -8 -45 -29 -65 -62 -167 -72 -225
-22 -70 62 -58 229 19 264 46 21 27 43 -20 23z"/>
<path d="M3907 2135 c-49 -50 -36 -124 28 -151 82 -34 156 50 113 129 -28 54
-98 64 -141 22z m108 -20 c30 -29 32 -64 5 -93 -41 -44 -120 -15 -120 43 0 31
41 75 70 75 12 0 32 -11 45 -25z"/>
<path d="M4429 2131 c-49 -49 -30 -129 34 -150 80 -27 151 54 113 128 -31 59
-99 70 -147 22z m109 -11 c30 -28 30 -83 0 -104 -76 -54 -157 47 -86 107 27
23 59 22 86 -3z"/>
<path d="M3770 2100 c15 -19 37 -44 49 -54 21 -19 21 -19 21 15 0 19 3 43 6
54 4 18 0 20 -49 20 l-55 0 28 -35z"/>
<path d="M4091 2119 c6 -13 9 -42 6 -68 -4 -36 -13 -52 -41 -78 -20 -18 -45
-33 -56 -33 -40 0 -19 -17 48 -38 37 -12 83 -25 102 -29 l35 -6 -37 32 c-20
17 -40 46 -43 62 -9 40 12 116 38 134 19 13 18 14 -18 29 -48 20 -48 20 -34
-5z"/>
<path d="M6986 2119 c-52 -41 -20 -129 48 -129 34 0 76 41 76 75 0 33 -41 75
-73 75 -13 0 -36 -9 -51 -21z m76 -11 c28 -22 31 -55 9 -77 -12 -12 -28 -21
-36 -21 -19 0 -55 36 -55 55 0 18 35 55 53 55 7 0 20 -6 29 -12z"/>
<path d="M7411 2123 c-11 -10 -24 -32 -27 -50 -13 -65 74 -109 124 -63 67 63
-26 171 -97 113z m77 -19 c47 -33 9 -107 -46 -88 -33 12 -42 56 -16 85 21 23
33 24 62 3z"/>
<path d="M4620 2104 c13 -34 4 -80 -24 -119 l-21 -30 30 22 c17 12 56 48 88
81 l58 59 -53 -1 c-29 0 -61 3 -71 8 -16 7 -16 5 -7 -20z"/>
<path d="M4338 2113 c-22 -5 -23 -17 -3 -33 16 -13 31 -73 26 -105 -6 -37 -31
-75 -62 -91 -17 -8 -29 -18 -26 -20 7 -8 156 26 211 47 59 23 84 42 40 30 -39
-10 -91 2 -120 30 -28 26 -48 91 -40 125 6 24 5 25 -26 17z"/>
<path d="M6780 2093 c-85 -76 -19 -220 93 -199 36 7 87 40 87 57 0 6 -12 1
-26 -10 -85 -67 -184 32 -134 133 10 22 18 42 16 44 -2 2 -18 -9 -36 -25z"/>
<path d="M6887 2073 c20 -24 37 -42 38 -41 1 2 5 21 7 43 l5 40 -43 1 -43 1
36 -44z"/>
<path d="M7134 2104 c3 -9 6 -28 6 -42 1 -25 1 -26 12 -7 6 11 17 25 25 31 11
10 8 14 -18 23 -27 9 -30 8 -25 -5z"/>
<path d="M7560 2065 c0 -22 -8 -52 -17 -65 -17 -24 -17 -25 2 -11 29 21 115
104 115 111 0 3 -22 5 -50 5 l-50 0 0 -40z"/>
<path d="M7320 2093 c0 -5 7 -16 14 -26 13 -16 14 -16 18 8 4 19 1 25 -13 25
-11 0 -19 -3 -19 -7z"/>
<path d="M4169 2061 c-50 -50 -37 -121 28 -147 80 -34 158 48 119 125 -31 60
-99 70 -147 22z m105 -12 c17 -14 26 -30 26 -50 0 -65 -80 -93 -119 -43 -27
35 -26 59 4 89 30 30 54 31 89 4z"/>
<path d="M7191 2054 c-28 -35 -26 -69 4 -99 30 -30 64 -32 99 -4 33 26 36 79
6 109 -30 30 -83 27 -109 -6z m94 -14 c39 -43 -13 -107 -61 -75 -33 21 -36 60
-6 83 23 17 46 15 67 -8z"/>
<path d="M6834 2035 c-7 -28 18 -75 39 -75 7 0 22 6 33 14 18 14 18 16 -15 50
-41 43 -49 44 -57 11z"/>
<path d="M7131 2022 c-2 -21 -52 -62 -75 -62 -18 0 -17 -2 7 -15 25 -13 122
-45 136 -45 2 0 -8 13 -24 30 -15 16 -31 46 -35 67 -4 21 -8 32 -9 25z"/>
<path d="M7350 2000 c0 -37 -21 -70 -55 -88 -53 -30 90 -3 165 31 l35 15 -32
1 c-44 1 -76 18 -96 49 l-16 27 -1 -35z"/>
<path d="M7618 2009 c-16 -9 -15 -13 8 -47 21 -30 25 -45 21 -81 -9 -84 -73
-127 -157 -104 -22 5 -37 7 -35 3 10 -17 76 -40 113 -40 99 0 153 125 102 238
-20 44 -25 47 -52 31z"/>
<path d="M4654 1967 c-16 -13 -38 -29 -49 -35 -18 -10 -18 -11 -2 -12 10 0 31
-7 46 -15 l28 -14 7 46 c3 25 4 48 2 50 -2 2 -16 -7 -32 -20z"/>
<path d="M7735 1923 c4 -30 1 -65 -8 -95 -14 -45 -14 -47 3 -38 10 6 54 38 97
72 l78 63 -55 6 c-30 3 -70 14 -88 23 l-33 17 6 -48z m69 -50 c-20 -18 -40
-33 -43 -33 -3 0 -5 20 -3 43 l4 44 40 -11 40 -11 -38 -32z"/>
<path d="M7580 1930 c15 -28 5 -52 -29 -73 -41 -24 -56 -21 -86 16 -24 29 -26
30 -20 7 17 -61 82 -86 128 -50 20 16 27 30 27 55 0 39 -8 65 -21 65 -6 0 -5
-9 1 -20z"/>
<path d="M7502 1927 c-14 -17 2 -42 22 -34 20 8 20 21 2 36 -10 8 -16 8 -24
-2z"/>
<path d="M3915 1903 c5 -10 10 -59 13 -109 4 -84 6 -91 23 -87 21 6 25 18 9
28 -5 3 -10 24 -10 46 0 42 27 79 57 79 23 0 12 9 -48 36 -44 21 -50 22 -44 7z"/>
<path d="M4455 1863 c-38 -14 -96 -28 -128 -30 l-59 -6 44 -22 c41 -21 43 -21
50 -3 4 10 19 23 32 29 59 27 107 -60 52 -96 -13 -8 -30 -13 -38 -10 -13 5
-14 -2 -10 -44 5 -55 -9 -102 -40 -137 -19 -21 -19 -22 11 -26 28 -4 29 -3 29
37 0 67 28 122 77 150 23 14 54 25 69 25 l28 0 -31 29 c-33 31 -41 74 -21 112
6 10 9 18 8 18 -2 -1 -34 -13 -73 -26z"/>
<path d="M4555 1870 c-38 -42 -7 -110 50 -110 33 0 68 47 60 80 -12 50 -76 68
-110 30z m73 -12 c34 -34 -6 -90 -48 -68 -25 13 -26 55 -2 69 23 14 36 13 50
-1z"/>
<path d="M7094 1863 c9 -37 51 -73 84 -73 38 0 92 35 92 60 0 11 -4 20 -10 20
-5 0 -10 -4 -10 -10 0 -22 -41 -50 -74 -50 -37 0 -66 28 -66 62 0 10 -5 18
-11 18 -7 0 -9 -10 -5 -27z"/>
<path d="M7160 1865 c0 -8 6 -15 14 -15 22 0 28 17 10 24 -22 9 -24 8 -24 -9z"/>
<path d="M4084 1831 c9 -10 18 -28 19 -40 2 -26 9 -26 31 -2 10 11 32 23 50
27 29 7 26 8 -34 20 -86 17 -86 17 -66 -5z"/>
<path d="M3992 1824 c-24 -17 -30 -62 -10 -82 17 -17 64 -15 82 4 22 21 20 50
-4 74 -24 24 -38 25 -68 4z m62 -30 c8 -21 -11 -44 -35 -44 -19 0 -35 33 -24
50 10 16 52 12 59 -6z"/>
<path d="M6952 1800 c-24 -16 -62 -32 -85 -35 l-41 -7 35 -19 c35 -19 181 -69
201 -69 6 0 4 8 -5 18 -22 24 -47 86 -47 117 0 31 -4 31 -58 -5z m45 -47 c6
-21 10 -40 8 -42 -2 -2 -27 5 -54 15 l-51 18 38 22 c20 12 39 23 42 23 3 1 10
-16 17 -36z"/>
<path d="M4390 1805 c-26 -31 13 -82 44 -56 21 17 21 57 0 65 -23 9 -30 8 -44
-9z"/>
<path d="M7055 1800 c35 -116 121 -167 192 -114 33 24 73 90 73 119 0 19 -1
19 -18 -1 -27 -34 -76 -54 -133 -54 -47 0 -55 4 -87 37 -30 33 -34 34 -27 13z"/>
<path d="M7360 1789 c0 -27 -25 -80 -52 -108 -11 -12 -18 -24 -17 -26 5 -4
110 12 173 26 l49 12 -35 18 c-38 20 -98 74 -98 90 0 5 -4 9 -10 9 -5 0 -10
-9 -10 -21z m54 -64 l30 -24 -30 -6 c-67 -14 -66 -14 -59 3 4 9 10 25 12 35 7
22 12 21 47 -8z"/>
<path d="M4184 1764 c-40 -19 -64 -62 -64 -114 0 -34 6 -48 34 -76 29 -29 41
-34 79 -34 55 0 100 33 117 85 16 50 -16 120 -64 140 -44 19 -63 18 -102 -1z
m120 -45 c36 -43 35 -91 -3 -130 -33 -33 -67 -37 -111 -14 -88 46 -52 175 48
175 33 0 45 -6 66 -31z"/>
<path d="M4681 1772 c-1 -7 -18 -20 -38 -29 -38 -15 -38 -16 -13 -25 54 -20
100 -90 100 -153 0 -63 -63 -155 -106 -155 -8 0 -14 -3 -14 -7 0 -5 32 -8 70
-8 72 0 81 4 55 25 -18 15 -19 53 -4 83 15 28 28 37 58 37 l23 0 -26 35 c-23
30 -49 81 -94 185 -6 14 -11 19 -11 12z"/>
<path d="M4030 1703 c-23 -3 -25 -8 -22 -37 2 -19 -1 -37 -8 -41 -8 -5 -1 -14
20 -26 43 -27 65 -80 50 -125 -6 -18 -22 -42 -36 -53 -13 -10 -24 -21 -24 -23
0 -2 21 -2 46 1 33 2 43 6 35 14 -19 19 -13 65 10 81 22 15 66 7 80 -16 4 -6
12 -7 19 -3 8 5 -4 17 -36 34 -69 38 -89 70 -89 142 0 34 -4 58 -10 57 -5 0
-21 -3 -35 -5z"/>
<path d="M3940 1685 c-6 -8 -10 -22 -8 -32 4 -24 47 -24 62 0 9 15 7 21 -8 33
-25 18 -31 18 -46 -1z"/>
<path d="M4535 1683 c-67 -17 -107 -90 -85 -157 20 -63 94 -97 153 -72 103 43
103 179 1 222 -35 15 -37 15 -69 7z m90 -47 c32 -32 40 -69 25 -107 -23 -54
-81 -75 -133 -47 -34 18 -46 40 -47 85 0 34 5 46 31 67 40 34 91 35 124 2z"/>
<path d="M3910 1632 c0 -4 -20 -38 -44 -75 -38 -57 -41 -67 -25 -67 10 0 19 7
19 15 0 28 30 76 60 93 27 17 28 19 9 30 -10 7 -19 9 -19 4z"/>
<path d="M3932 1573 c-21 -8 -43 -61 -36 -88 21 -84 144 -67 144 20 0 56 -54
90 -108 68z m66 -29 c26 -18 28 -50 5 -76 -20 -22 -41 -23 -65 -1 -25 22 -23
59 4 77 12 9 25 16 28 16 3 0 16 -7 28 -16z"/>
<path d="M4756 1501 c-35 -39 -4 -90 47 -77 33 8 43 40 23 71 -20 30 -47 32
-70 6z m54 -31 c0 -24 -26 -38 -42 -22 -16 16 -2 42 22 42 13 0 20 -7 20 -20z"/>
<path d="M4287 1498 c-22 -8 -26 -13 -16 -24 6 -8 9 -27 7 -43 l-4 -30 120 -3
c67 -2 123 -2 124 -1 2 1 -11 9 -30 18 -18 10 -43 29 -55 44 l-22 26 -1 -27
c0 -17 -8 -31 -21 -38 -48 -26 -104 23 -80 69 7 11 10 21 9 20 -2 0 -16 -5
-31 -11z"/>
<path d="M4336 1497 c-36 -26 4 -84 42 -61 23 15 26 38 7 58 -20 19 -26 20
-49 3z"/>
<path d="M4106 1471 c-33 -36 18 -83 52 -49 18 18 14 46 -7 58 -25 13 -25 13
-45 -9z"/>
<path d="M4860 1464 c0 -13 -9 -33 -20 -44 -11 -11 -20 -21 -20 -22 0 -2 38
-3 85 -3 47 0 85 2 84 5 0 3 -29 24 -65 47 -63 40 -64 41 -64 17z"/>
<path d="M3814 1466 c-9 -24 4 -48 23 -44 12 2 18 12 18 28 0 29 -32 41 -41
16z"/>
<path d="M4212 1468 c-30 -30 1 -73 36 -51 23 14 25 29 7 47 -20 19 -27 20
-43 4z"/>
<path d="M3743 1431 c-23 -14 -43 -28 -43 -31 0 -3 29 -5 65 -5 36 0 65 3 65
8 0 4 -6 7 -14 7 -8 0 -18 10 -23 23 l-8 23 -42 -25z"/>
<path d="M3863 1416 l-20 -21 43 0 c50 0 53 3 21 26 -22 16 -24 16 -44 -5z"/>
<path d="M4176 1411 c-3 -5 1 -11 9 -15 8 -3 15 -1 15 4 0 13 -18 22 -24 11z"/>
<path d="M2910 1210 l0 -140 1390 2 1390 3 3 138 2 137 -1392 0 -1393 0 0
-140z m2760 0 l0 -120 -1365 0 -1365 0 0 120 0 120 1365 0 1365 0 0 -120z"/>
<path d="M1913 1023 l-43 -4 0 -52 1 -52 20 38 c11 21 31 43 44 49 14 6 25 15
25 20 0 4 -1 7 -2 6 -2 -1 -22 -3 -45 -5z"/>
<path d="M2380 1019 c0 -3 11 -11 24 -17 13 -6 32 -28 42 -49 l19 -39 19 39
c10 21 30 44 42 49 13 6 24 14 24 17 0 3 -38 6 -85 6 -47 0 -85 -3 -85 -6z"/>
<path d="M2970 1019 c0 -3 11 -11 25 -17 15 -7 34 -29 43 -50 l17 -38 18 36
c9 20 28 43 42 50 14 7 25 16 25 19 0 3 -38 6 -85 6 -47 0 -85 -3 -85 -6z"/>
<path d="M3860 1019 c0 -3 11 -12 25 -19 14 -7 33 -30 42 -51 l17 -38 17 39
c10 22 29 45 44 52 14 6 25 14 25 17 0 3 -38 6 -85 6 -47 0 -85 -3 -85 -6z"/>
<path d="M4830 1022 c0 -1 15 -16 34 -32 19 -17 37 -42 41 -57 6 -27 7 -27 25
15 11 24 30 47 45 54 14 6 25 14 25 17 0 3 -38 6 -85 6 -47 0 -85 -1 -85 -3z"/>
<path d="M5420 1019 c0 -3 11 -11 24 -17 13 -6 32 -28 42 -49 l19 -39 19 39
c10 21 30 44 42 49 13 6 24 14 24 17 0 3 -38 6 -85 6 -47 0 -85 -3 -85 -6z"/>
<path d="M6010 1019 c0 -3 11 -11 25 -17 15 -7 34 -30 44 -53 18 -38 19 -39
25 -16 3 14 22 39 41 56 19 17 35 32 35 33 0 2 -38 3 -85 3 -47 0 -85 -3 -85
-6z"/>
<path d="M2124 986 c20 -18 36 -41 36 -50 0 -9 5 -16 10 -16 6 0 10 7 10 16 0
9 15 31 34 50 l34 34 -80 0 -79 0 35 -34z"/>
<path d="M2716 986 c19 -19 34 -41 34 -50 0 -9 5 -16 10 -16 6 0 10 7 10 16 0
9 16 32 36 50 l35 34 -79 0 -80 0 34 -34z"/>
<path d="M3306 986 c19 -19 34 -41 34 -50 0 -26 14 -18 29 15 7 17 28 39 45
50 l31 19 -86 0 -87 0 34 -34z"/>
<path d="M3582 1004 c15 -8 36 -31 47 -52 l19 -37 10 26 c6 14 25 38 42 52
l32 27 -89 0 c-84 -1 -87 -2 -61 -16z"/>
<path d="M4195 985 c19 -20 35 -45 35 -55 0 -11 5 -20 10 -20 6 0 10 5 10 11
0 8 13 10 38 7 35 -5 39 -3 51 24 8 16 28 38 45 49 l31 19 -128 0 -128 0 36
-35z m131 -6 c-22 -32 -71 -33 -91 -3 l-15 24 60 0 c60 0 61 0 46 -21z"/>
<path d="M4552 1004 c15 -8 36 -31 47 -52 l19 -37 10 26 c6 14 25 38 42 52
l32 27 -89 0 c-84 -1 -87 -2 -61 -16z"/>
<path d="M5164 986 c20 -18 36 -41 36 -50 0 -9 5 -16 10 -16 6 0 10 7 10 16 0
9 15 31 34 50 l34 34 -80 0 -79 0 35 -34z"/>
<path d="M5756 986 c19 -19 34 -41 34 -50 0 -9 5 -16 10 -16 6 0 10 7 10 16 0
9 16 32 36 50 l35 34 -79 0 -80 0 34 -34z"/>
<path d="M6335 998 c15 -12 34 -37 43 -57 9 -23 16 -30 19 -21 11 37 30 65 58
82 l30 18 -89 0 -89 0 28 -22z"/>
<path d="M6623 1004 c16 -9 37 -34 48 -57 l19 -42 0 58 0 57 -47 0 -48 -1 28
-15z"/>
<path d="M1967 950 c-81 -64 1 -193 93 -145 54 28 65 86 24 134 -31 37 -78 42
-117 11z m91 -32 c18 -18 14 -53 -8 -73 -17 -15 -24 -16 -45 -7 -32 15 -41 37
-27 68 13 27 58 34 80 12z"/>
<path d="M2256 944 c-44 -45 -32 -110 25 -139 69 -36 145 36 115 110 -26 60
-94 75 -140 29z m98 -30 c21 -21 20 -40 -4 -64 -23 -23 -33 -24 -61 -10 -22
12 -26 59 -7 78 17 17 54 15 72 -4z"/>
<path d="M2557 950 c-55 -43 -39 -128 28 -150 90 -30 153 84 83 150 -28 26
-78 26 -111 0z m91 -32 c27 -27 3 -88 -34 -88 -18 0 -54 36 -54 54 0 37 61 61
88 34z"/>
<path d="M2846 939 c-42 -50 -32 -105 25 -134 91 -48 173 81 92 145 -39 31
-86 26 -117 -11z m109 -43 c8 -24 6 -31 -14 -47 -13 -10 -29 -19 -36 -19 -21
0 -45 29 -45 54 0 31 20 47 55 44 22 -2 32 -10 40 -32z"/>
<path d="M3145 945 c-57 -56 -18 -149 61 -149 28 0 42 7 60 28 51 59 15 146
-61 146 -25 0 -44 -8 -60 -25z m93 -27 c7 -7 12 -24 12 -40 0 -50 -66 -62 -91
-17 -23 43 44 92 79 57z"/>
<path d="M3439 941 c-48 -49 -34 -114 31 -141 39 -16 85 1 105 41 22 42 18 67
-14 100 -40 39 -82 39 -122 0z m105 -43 c8 -22 6 -32 -9 -48 -22 -24 -42 -25
-67 -3 -21 18 -23 36 -7 64 16 31 71 22 83 -13z"/>
<path d="M3735 945 c-35 -34 -34 -93 0 -125 56 -53 145 -15 145 62 0 52 -35
88 -85 88 -25 0 -44 -8 -60 -25z m98 -36 c30 -42 -16 -94 -62 -70 -23 13 -29
59 -9 79 19 19 55 14 71 -9z"/>
<path d="M4037 950 c-81 -64 1 -193 92 -145 57 29 67 84 25 134 -31 37 -78 42
-117 11z m91 -32 c18 -18 14 -53 -8 -73 -17 -15 -24 -16 -45 -7 -32 15 -41 37
-27 68 13 27 58 34 80 12z"/>
<path d="M4409 941 c-48 -49 -34 -114 31 -141 39 -16 85 1 105 41 22 42 18 67
-14 100 -40 39 -82 39 -122 0z m105 -43 c8 -22 6 -32 -9 -48 -22 -24 -42 -25
-67 -3 -38 34 -15 86 37 81 22 -2 32 -10 39 -30z"/>
<path d="M4705 945 c-35 -34 -34 -93 0 -125 56 -53 145 -15 145 62 0 52 -35
88 -85 88 -25 0 -44 -8 -60 -25z m98 -36 c30 -42 -16 -94 -62 -70 -23 13 -29
59 -9 79 19 19 55 14 71 -9z"/>
<path d="M4999 941 c-32 -33 -36 -58 -14 -100 20 -40 66 -57 105 -41 65 27 79
92 31 141 -40 39 -82 39 -122 0z m99 -23 c18 -18 14 -53 -9 -74 -19 -17 -23
-17 -47 -3 -32 17 -39 50 -17 73 19 19 56 21 73 4z"/>
<path d="M5296 945 c-55 -51 -18 -149 57 -149 66 0 107 60 83 119 -25 59 -92
74 -140 30z m90 -23 c50 -34 -2 -111 -56 -82 -23 12 -28 58 -8 78 13 13 47 16
64 4z"/>
<path d="M5597 950 c-54 -43 -39 -128 26 -149 99 -33 161 93 78 156 -24 19
-75 15 -104 -7z m91 -32 c27 -27 3 -88 -34 -88 -18 0 -54 36 -54 54 0 37 61
61 88 34z"/>
<path d="M5886 939 c-44 -52 -29 -113 34 -139 89 -37 160 90 83 150 -39 31
-86 26 -117 -11z m98 -25 c9 -8 16 -22 16 -30 0 -18 -36 -54 -54 -54 -37 0
-61 61 -34 88 17 17 54 15 72 -4z"/>
<path d="M6197 959 c-27 -16 -49 -73 -38 -101 37 -96 171 -74 171 28 0 66 -75
107 -133 73z m81 -41 c7 -7 12 -24 12 -40 0 -50 -66 -62 -91 -17 -23 43 44 92
79 57z"/>
<path d="M6479 941 c-48 -49 -34 -114 31 -141 39 -16 85 1 105 41 22 42 18 67
-14 100 -40 39 -82 39 -122 0z m105 -43 c8 -22 6 -32 -9 -48 -22 -24 -42 -25
-67 -3 -21 18 -23 36 -7 64 16 31 71 22 83 -13z"/>
<path d="M6680 838 c0 -12 -18 -38 -40 -60 l-41 -38 46 0 45 0 0 60 c0 33 -2
60 -5 60 -3 0 -5 -10 -5 -22z"/>
<path d="M2156 826 c-3 -13 -22 -38 -41 -55 l-36 -31 86 0 86 0 -36 35 c-19
20 -35 45 -35 55 0 28 -17 25 -24 -4z"/>
<path d="M2451 822 c-8 -18 -28 -44 -45 -57 l-31 -25 90 0 90 0 -33 26 c-18
14 -38 40 -45 57 l-13 31 -13 -32z"/>
<path d="M2750 830 c0 -10 -16 -35 -37 -55 l-36 -35 89 0 89 0 -32 21 c-18 11
-38 36 -45 55 -13 37 -28 45 -28 14z"/>
<path d="M3050 836 c0 -11 -18 -36 -40 -58 l-41 -38 88 0 87 0 -31 28 c-17 15
-38 41 -47 57 -11 22 -15 25 -16 11z"/>
<path d="M3341 826 c-6 -15 -25 -41 -42 -57 l-31 -29 88 0 89 0 -34 27 c-18
14 -39 40 -46 57 l-13 31 -11 -29z"/>
<path d="M3640 834 c0 -9 -18 -34 -40 -56 l-41 -38 86 0 86 0 -35 34 c-20 18
-36 40 -36 49 0 9 -4 19 -10 22 -5 3 -10 -2 -10 -11z"/>
<path d="M3930 820 c-7 -17 -27 -42 -44 -55 l-31 -25 90 0 90 0 -34 27 c-18
14 -39 39 -46 55 l-12 30 -13 -32z"/>
<path d="M4226 826 c-3 -13 -22 -38 -41 -55 l-36 -31 131 0 131 0 -41 38 c-22
22 -40 46 -40 55 0 20 -11 22 -28 5 -9 -9 -18 -9 -37 0 -33 15 -32 16 -39 -12z
m94 -20 c0 -2 3 -11 6 -20 5 -13 -2 -16 -45 -16 -52 0 -61 6 -39 28 11 11 78
18 78 8z"/>
<path d="M4610 834 c0 -9 -18 -34 -40 -56 l-41 -38 86 0 86 0 -35 34 c-20 18
-36 40 -36 49 0 9 -4 19 -10 22 -5 3 -10 -2 -10 -11z"/>
<path d="M4900 820 c-7 -17 -27 -42 -44 -55 l-31 -25 90 0 90 0 -34 27 c-18
14 -39 39 -46 55 l-12 30 -13 -32z"/>
<path d="M5196 826 c-3 -13 -22 -38 -41 -55 l-36 -31 86 0 86 0 -36 35 c-19
20 -35 42 -35 50 0 25 -18 26 -24 1z"/>
<path d="M5491 822 c-8 -18 -28 -44 -45 -57 l-31 -25 90 0 90 0 -33 26 c-18
14 -38 40 -45 57 l-13 31 -13 -32z"/>
<path d="M5790 830 c0 -10 -16 -35 -37 -55 l-36 -35 89 0 89 0 -32 21 c-18 11
-38 36 -45 55 -13 37 -28 45 -28 14z"/>
<path d="M6090 836 c0 -11 -18 -36 -40 -58 l-41 -38 88 0 87 0 -31 28 c-17 15
-38 41 -47 57 -11 22 -15 25 -16 11z"/>
<path d="M6381 826 c-6 -15 -25 -41 -42 -57 l-31 -29 88 0 89 0 -34 27 c-18
14 -39 40 -46 57 l-13 31 -11 -29z"/>
<path d="M1870 791 l0 -51 47 0 48 0 -38 31 c-20 17 -37 37 -37 44 0 8 -4 17
-10 20 -6 4 -10 -13 -10 -44z"/>
</g>
</svg>
