<?xml version="1.0" standalone="no"?>
<!DOCTYPE svg PUBLIC "-//W3C//DTD SVG 20010904//EN"
 "http://www.w3.org/TR/2001/REC-SVG-20010904/DTD/svg10.dtd">
<svg version="1.0" xmlns="http://www.w3.org/2000/svg"
 width="1024.000000pt" height="1024.000000pt" viewBox="0 0 1024.000000 1024.000000"
 preserveAspectRatio="xMidYMid meet">
<metadata>
Created by potrace 1.14, written by Peter Selinger 2001-2017
</metadata>
<g transform="translate(0.000000,1024.000000) scale(0.100000,-0.100000)"
fill="#000000" stroke="none">
<path d="M4860 9854 c-244 -20 -313 -28 -429 -45 -269 -39 -533 -101 -791
-184 -74 -24 -155 -49 -180 -55 -25 -7 -63 -21 -85 -32 -92 -46 -300 -138
-313 -138 -7 0 -28 -11 -45 -24 -18 -13 -61 -38 -97 -56 -99 -49 -262 -145
-390 -228 -454 -295 -877 -692 -1211 -1137 -283 -376 -522 -827 -678 -1280
-417 -1206 -331 -2545 237 -3680 465 -931 1217 -1675 2157 -2135 366 -178 685
-286 1155 -390 201 -45 530 -79 825 -87 1065 -27 2106 303 2950 935 350 262
695 607 957 957 923 1233 1183 2858 697 4345 -136 416 -348 840 -603 1209
-693 999 -1753 1697 -2941 1936 -312 63 -534 86 -885 90 -157 1 -305 1 -330
-1z m286 -47 c-272 -174 -403 -297 -588 -552 -132 -182 -205 -266 -287 -329
-46 -36 -78 -50 -166 -74 -61 -17 -119 -34 -130 -38 -14 -6 -9 4 18 36 85 100
127 236 108 355 -26 173 -181 324 -377 368 -32 7 -54 16 -48 19 5 4 64 22 131
41 141 41 149 40 273 -24 146 -76 223 -170 255 -315 8 -38 18 -79 20 -91 8
-35 32 -27 55 18 98 192 294 407 499 548 l75 51 90 -1 c74 0 88 -2 72 -12z
m-343 -65 c-118 -92 -267 -250 -349 -373 l-68 -100 -16 58 c-9 32 -28 81 -43
109 -35 70 -147 171 -236 214 -41 20 -65 37 -58 41 25 14 329 69 482 89 193
24 221 26 308 28 l69 2 -89 -68z m607 58 c155 -25 307 -140 377 -286 35 -72
38 -86 38 -164 0 -76 -4 -93 -32 -150 -41 -83 -110 -152 -193 -193 l-65 -32
-165 3 c-190 3 -199 7 -240 87 -37 75 -38 145 -1 302 33 141 31 171 -8 192
-32 17 -82 13 -136 -13 -126 -58 -172 -193 -126 -368 9 -38 16 -68 15 -68 -2
0 -25 8 -51 19 -71 27 -118 33 -165 21 -89 -24 -144 -91 -136 -165 l5 -41
-103 -21 c-57 -11 -104 -18 -104 -16 0 2 19 20 41 40 53 48 133 147 241 299
143 200 270 328 438 443 110 75 143 92 210 107 70 16 82 16 160 4z m325 -20
c86 -11 164 -24 174 -30 39 -21 132 -134 165 -202 59 -119 66 -220 26 -357
-19 -67 2 -66 106 5 175 119 365 201 557 243 139 30 161 29 247 -11 l75 -35
-60 -7 c-266 -33 -461 -104 -760 -279 -147 -85 -221 -120 -316 -147 -41 -11
-86 -24 -101 -29 -17 -6 -67 -3 -140 8 l-112 17 54 31 c74 41 144 119 183 201
29 61 32 75 31 162 0 73 -5 108 -22 150 -42 105 -136 210 -258 287 -25 16 -27
16 151 -7z m405 -70 c204 -44 535 -142 649 -192 l46 -21 -81 -17 c-178 -40
-379 -124 -538 -227 -63 -40 -68 -42 -63 -21 36 151 1 295 -105 436 -27 35
-48 65 -48 68 0 2 10 2 23 -1 12 -3 65 -14 117 -25z m-2433 -175 c296 -70 435
-323 313 -572 -37 -75 -120 -154 -187 -179 -27 -9 -52 -22 -58 -29 -17 -20
-128 -59 -159 -57 -17 2 -49 14 -72 27 -82 48 -126 136 -160 326 -10 52 -25
100 -36 114 -58 74 -198 -31 -221 -165 -14 -75 34 -197 109 -280 19 -21 34
-40 34 -44 0 -3 -28 -6 -62 -6 -166 0 -282 -148 -205 -261 l23 -34 -85 -58
c-47 -32 -89 -60 -93 -63 -4 -3 2 17 13 43 32 75 64 195 93 348 37 189 68 304
117 421 66 158 162 318 223 372 28 25 181 91 241 105 41 10 112 6 172 -8z
m1401 -22 c6 -12 0 -57 -20 -138 -37 -152 -35 -245 5 -326 14 -29 24 -55 22
-57 -5 -5 -81 -10 -240 -16 -71 -3 -165 -10 -208 -16 -89 -13 -107 -6 -107 41
0 41 50 94 102 107 63 16 152 -9 245 -68 31 -20 39 -6 24 43 -59 194 -63 256
-21 342 37 77 173 137 198 88z m-1914 -130 c-146 -221 -215 -402 -279 -732
-38 -190 -76 -316 -126 -411 -22 -41 -48 -70 -106 -114 -42 -33 -73 -52 -70
-42 4 9 12 46 19 82 30 163 -49 341 -187 424 -108 64 -253 85 -380 56 -33 -8
-61 -13 -63 -11 -2 1 38 38 89 81 l92 78 84 4 c205 11 357 -60 463 -217 42
-61 64 -63 68 -6 15 230 97 497 211 694 40 68 47 75 114 107 86 41 95 42 71 7z
m4054 -78 c281 -133 376 -528 173 -718 -89 -83 -209 -125 -320 -112 -70 8
-314 127 -340 165 -11 16 -16 45 -15 90 0 85 28 146 128 275 67 86 77 104 74
134 -8 94 -189 112 -289 29 -56 -47 -119 -186 -119 -264 0 -19 -4 -34 -8 -34
-4 0 -26 18 -47 41 -22 22 -58 50 -80 62 -50 26 -136 28 -183 4 -37 -20 -72
-71 -72 -106 0 -20 -4 -22 -24 -17 -14 3 -66 16 -118 28 l-93 21 65 22 c102
36 152 60 298 144 262 150 410 212 601 250 195 40 262 37 369 -14z m-4324
-112 c-67 -136 -120 -296 -145 -441 -10 -63 -19 -119 -19 -125 0 -6 -22 14
-50 45 -95 107 -200 154 -369 166 l-93 7 98 71 c125 90 255 176 365 242 92 55
250 142 260 142 3 0 -18 -48 -47 -107z m4772 -135 c65 -42 72 -50 92 -104 44
-119 55 -258 27 -352 -13 -42 -55 -113 -130 -218 -18 -25 7 -28 108 -10 219
38 448 31 661 -20 107 -26 133 -43 206 -134 l28 -36 -66 22 c-203 68 -430 94
-655 75 -240 -21 -452 -25 -532 -10 -38 7 -74 13 -80 14 -5 0 -59 33 -120 73
-96 63 -106 72 -80 72 42 0 135 25 190 51 73 34 147 109 185 186 29 58 35 81
38 158 6 126 -29 247 -99 347 -11 14 -19 29 -19 32 0 6 122 -67 246 -146z
m-811 110 c39 -18 31 -45 -45 -141 -38 -48 -84 -117 -102 -154 -28 -58 -33
-77 -33 -145 0 -43 -1 -78 -3 -78 -2 0 -34 13 -70 29 -81 35 -295 113 -374
136 -47 13 -59 21 -64 42 -9 35 23 75 73 91 68 22 116 3 193 -76 36 -37 70
-76 76 -87 20 -34 35 -4 44 91 18 196 100 303 232 304 26 0 59 -5 73 -12z
m-3567 -30 c5 -7 21 -69 35 -137 15 -69 38 -148 52 -176 23 -48 95 -125 140
-151 16 -9 -2 -20 -116 -75 -74 -36 -182 -93 -241 -127 -59 -34 -114 -62 -122
-62 -22 0 -46 40 -46 76 0 44 38 95 90 122 37 18 60 22 147 22 77 0 103 3 103
13 0 7 -27 39 -61 72 -72 72 -108 128 -125 201 -15 66 -6 113 33 168 40 57 89
80 111 54z m4619 -249 c148 -111 317 -256 448 -383 134 -131 137 -121 -25 -90
-120 23 -357 28 -485 11 -60 -9 -112 -14 -114 -12 -1 2 9 19 23 37 14 19 38
61 53 93 26 56 28 68 27 190 0 95 -5 142 -17 174 -10 24 -17 45 -17 47 0 11
22 -2 107 -67z m-2497 41 c890 -77 1686 -437 2340 -1057 106 -101 296 -316
377 -426 220 -302 301 -437 451 -757 141 -300 260 -731 309 -1115 22 -175 25
-680 5 -850 -46 -385 -135 -739 -271 -1075 -96 -238 -318 -633 -439 -783 -22
-29 -65 -84 -94 -124 -185 -249 -510 -557 -809 -766 -275 -191 -624 -368 -934
-474 -422 -143 -797 -205 -1250 -205 -449 0 -839 65 -1258 208 -1296 445
-2264 1564 -2511 2904 -168 915 0 1862 472 2664 378 643 957 1172 1637 1497
416 199 835 312 1335 362 82 8 534 6 640 -3z m-3142 -325 c118 -28 199 -87
249 -182 59 -110 65 -223 20 -343 -16 -44 -42 -77 -130 -167 l-110 -113 -51 0
c-103 1 -175 55 -285 214 -63 91 -100 126 -131 126 -5 0 -25 -14 -45 -31 -38
-33 -65 -104 -65 -168 0 -97 107 -222 235 -275 l39 -17 -59 -30 c-104 -52
-146 -109 -147 -199 0 -56 25 -109 60 -125 12 -5 22 -14 22 -20 0 -5 -24 -47
-54 -93 l-53 -82 -6 102 c-3 57 -21 176 -41 268 -58 272 -61 296 -61 480 1
299 35 419 151 530 123 118 294 164 462 125z m-633 -376 c-23 -119 -30 -335
-15 -455 6 -54 30 -184 52 -289 36 -167 41 -207 42 -330 l1 -140 -49 -95 -49
-95 -13 61 c-27 135 -113 248 -233 307 -54 26 -78 32 -155 35 -79 4 -102 1
-171 -23 -44 -14 -113 -48 -152 -75 -40 -26 -73 -46 -73 -44 0 2 27 57 59 122
l59 118 64 31 c114 55 165 68 273 68 92 0 105 -3 168 -32 38 -18 81 -42 97
-53 32 -23 60 -26 60 -7 0 6 -14 59 -30 117 -17 58 -38 148 -47 200 -18 112
-21 372 -4 474 11 62 17 75 68 133 31 35 58 62 60 59 2 -2 -3 -41 -12 -87z
m6714 -4 c146 -26 270 -66 332 -107 142 -95 218 -284 191 -471 -22 -153 -98
-264 -220 -324 -51 -24 -68 -28 -158 -28 -96 0 -103 2 -177 38 -66 33 -85 49
-134 110 -31 40 -73 93 -95 119 -49 60 -52 109 -8 184 37 66 76 98 208 169
133 72 142 80 142 123 0 27 -8 42 -35 68 -36 34 -114 64 -166 64 -80 0 -186
-70 -254 -169 -37 -53 -46 -61 -51 -45 -3 10 -20 48 -36 82 -23 49 -40 70 -74
92 -83 52 -171 48 -217 -11 l-24 -31 -79 62 c-44 34 -82 65 -86 69 -4 3 64 5
150 3 90 -1 214 4 292 12 157 18 374 14 499 -9z m-592 -110 c70 -30 102 -76
132 -198 10 -39 23 -73 29 -75 5 -1 26 25 45 60 76 136 138 195 231 220 38 10
53 9 99 -5 59 -19 101 -55 95 -83 -2 -12 -42 -40 -104 -74 -56 -30 -120 -68
-143 -84 -50 -35 -103 -106 -122 -161 -7 -22 -14 -42 -15 -43 -1 -2 -35 31
-76 74 -87 93 -242 244 -280 274 -32 25 -36 60 -10 82 35 31 67 34 119 13z
m-6283 -17 c-12 -37 -8 -347 5 -433 7 -44 23 -122 37 -173 13 -52 24 -95 24
-97 0 -2 -35 13 -77 33 -76 36 -81 37 -193 36 -103 -1 -124 -4 -200 -32 -46
-17 -86 -30 -87 -28 -5 4 129 225 206 341 41 61 115 163 165 228 50 65 95 125
101 133 15 22 27 17 19 -8z m399 -30 c13 -18 50 -71 83 -117 83 -119 156 -172
267 -196 27 -5 27 -6 -54 -97 -44 -51 -122 -146 -171 -212 -50 -67 -99 -122
-108 -124 -29 -5 -60 45 -60 95 0 49 16 87 52 120 27 25 127 76 171 87 32 8
36 35 6 43 -45 12 -177 82 -212 112 -39 35 -87 122 -87 159 0 67 46 162 79
162 5 0 21 -15 34 -32z m7124 -328 c100 -150 97 -141 90 -240 -6 -95 -41 -215
-81 -279 -33 -52 -108 -116 -186 -160 -36 -21 -65 -43 -65 -50 0 -8 42 -23
113 -41 224 -57 456 -172 612 -304 69 -58 74 -65 96 -136 13 -41 24 -78 24
-83 0 -4 -36 23 -79 61 -181 156 -359 251 -671 357 -322 110 -393 157 -503
334 -50 81 -55 93 -35 86 134 -42 212 -46 312 -15 65 20 137 67 182 118 88
101 134 291 105 440 -11 56 -5 50 86 -88z m214 -352 c89 -163 200 -402 263
-565 25 -67 46 -125 46 -128 0 -4 -26 14 -57 38 -84 64 -223 145 -322 188 -88
38 -241 89 -266 89 -29 0 -24 19 12 41 132 81 206 204 234 387 7 45 14 82 15
82 2 0 35 -60 75 -132z m-7904 -213 c156 -46 263 -199 263 -373 0 -59 -8 -85
-59 -212 -67 -166 -70 -169 -187 -170 -64 0 -80 4 -145 38 -41 21 -108 60
-151 86 -62 39 -82 47 -105 42 -99 -22 -79 -238 30 -317 53 -38 154 -69 228
-69 32 0 59 -3 59 -6 0 -4 -16 -25 -36 -46 -47 -52 -74 -112 -74 -166 0 -83
50 -155 116 -168 38 -7 38 -5 24 -94 -19 -123 -16 -122 -66 -24 -24 49 -88
150 -141 224 -135 187 -211 317 -260 441 -103 257 -118 413 -55 542 103 209
356 332 559 272z m7535 -351 c312 -106 506 -211 668 -362 76 -70 111 -126 135
-219 55 -209 -60 -460 -253 -555 -57 -28 -74 -32 -146 -31 -99 0 -176 27 -249
87 -85 69 -109 115 -150 281 -40 164 -39 171 20 227 57 55 128 77 279 89 156
12 187 24 192 77 6 61 -65 152 -144 183 -77 29 -208 3 -304 -61 -25 -16 -48
-30 -51 -30 -4 0 -4 28 -2 63 7 79 -9 138 -50 184 -51 57 -138 81 -187 51 -10
-7 -21 -10 -23 -8 -9 11 -87 158 -87 164 0 3 36 -12 80 -34 43 -22 166 -69
272 -106z m-102 -80 c50 -45 65 -94 55 -188 -3 -38 -10 -79 -15 -91 -6 -16 -5
-27 4 -34 9 -7 31 4 83 43 96 72 168 99 254 94 54 -3 73 -9 103 -32 63 -48 98
-126 62 -139 -8 -3 -58 -9 -113 -12 -54 -4 -123 -11 -153 -17 -68 -12 -163
-61 -196 -101 -14 -16 -27 -28 -29 -25 -2 2 -23 58 -45 124 -23 65 -66 179
-97 253 -53 127 -55 135 -37 148 34 25 81 16 124 -23z m-8011 -304 c47 -140
112 -267 208 -408 191 -279 230 -342 263 -418 33 -77 34 -83 32 -194 -2 -63
-7 -119 -11 -123 -5 -5 -18 7 -30 26 -33 53 -116 126 -176 153 -209 96 -426
19 -576 -204 l-51 -77 7 135 c6 134 7 135 43 189 44 65 132 140 215 184 62 32
63 32 210 32 107 0 147 3 147 12 0 6 -25 40 -56 75 -148 169 -269 395 -327
615 l-24 88 24 70 c12 39 26 77 29 85 4 8 14 -21 24 -66 10 -45 32 -123 49
-174z m310 51 c172 -105 173 -106 289 -106 87 0 102 -2 98 -15 -49 -165 -98
-343 -112 -410 -22 -108 -31 -120 -79 -97 -40 19 -65 65 -65 119 0 49 36 112
101 178 32 33 59 65 59 70 0 6 -39 10 -95 10 -120 0 -184 14 -243 53 -60 40
-92 101 -92 173 0 47 16 84 37 84 3 0 49 -27 102 -59z m-426 -149 c52 -164
149 -344 265 -492 l51 -65 -112 -6 c-101 -5 -118 -9 -181 -40 -44 -21 -99 -61
-148 -108 -43 -40 -78 -71 -78 -67 0 28 44 335 60 421 28 149 100 445 108 445
4 0 20 -40 35 -88z m9117 -476 l22 -136 -30 -62 c-36 -78 -107 -173 -161 -216
-78 -63 -198 -102 -313 -102 -56 0 -49 -27 20 -75 81 -57 267 -246 335 -342
32 -45 82 -128 111 -185 l53 -103 -10 -88 c-5 -48 -12 -86 -14 -83 -3 3 -20
38 -37 79 -87 200 -190 333 -466 607 -274 271 -301 309 -319 460 -7 52 -15
108 -18 124 l-5 30 47 -42 c97 -85 231 -130 347 -117 169 20 338 184 390 379
16 60 20 49 48 -128z m49 -440 c17 -241 11 -686 -9 -686 -3 0 -14 17 -24 38
-70 148 -255 372 -404 490 -48 38 -51 42 -30 46 120 23 150 32 201 58 67 36
180 151 217 221 25 47 25 47 32 20 4 -16 11 -100 17 -187z m-8854 38 c112 -29
204 -103 258 -209 29 -57 31 -67 37 -220 8 -187 5 -196 -85 -240 -70 -35 -146
-41 -267 -21 -132 22 -173 21 -198 -4 -55 -55 17 -208 120 -253 67 -30 184
-27 273 7 42 16 67 21 64 13 -3 -6 -13 -43 -22 -82 -19 -77 -13 -121 25 -183
33 -53 76 -74 141 -69 l56 5 23 -87 c12 -47 25 -95 28 -106 4 -14 -9 -7 -44
25 -69 64 -128 105 -294 205 -193 117 -276 180 -391 294 -113 113 -200 226
-227 296 -65 166 -15 364 127 506 120 120 239 159 376 123z m8049 -86 c11 -18
126 -139 256 -268 258 -256 329 -347 428 -548 l47 -97 0 -115 c0 -112 -1 -117
-37 -193 -51 -107 -138 -194 -245 -245 -74 -35 -83 -37 -178 -37 -90 0 -106 3
-158 28 -112 56 -200 176 -217 299 -12 85 27 318 60 353 66 71 200 73 373 6
138 -53 170 -53 196 -4 28 55 0 161 -59 222 -55 56 -153 86 -254 77 -39 -3
-81 -9 -93 -12 -22 -6 -21 -3 13 62 33 63 36 75 32 135 -6 105 -61 169 -147
169 l-41 0 0 69 c0 38 -3 83 -6 100 -8 40 7 40 30 -1z m72 -223 c31 -21 54
-76 54 -128 0 -47 -37 -129 -87 -195 -37 -49 -21 -56 78 -32 132 31 225 22
297 -30 60 -43 97 -139 76 -194 -9 -23 -34 -20 -126 15 -167 65 -283 77 -367
39 -24 -11 -46 -18 -48 -16 -3 2 0 44 7 93 6 48 14 169 17 268 4 114 10 183
17 187 18 13 60 9 82 -7z m-7816 -360 c0 -28 44 -336 60 -419 24 -122 20 -136
-37 -136 -45 0 -97 50 -113 108 -12 48 4 132 42 210 12 26 17 47 11 53 -5 5
-41 -5 -90 -27 -100 -43 -177 -57 -244 -44 -60 12 -76 20 -110 57 -55 58 -77
137 -42 150 9 3 74 -2 144 -12 82 -11 148 -15 185 -11 60 7 146 39 165 62 11
13 29 19 29 9z m-750 -130 c63 -84 211 -231 300 -297 41 -31 143 -98 225 -148
201 -123 257 -165 340 -249 56 -58 74 -84 91 -134 12 -34 31 -85 42 -113 l21
-51 -77 39 c-137 69 -265 73 -391 12 -138 -68 -249 -256 -252 -429 l-1 -50
-25 55 c-14 30 -43 102 -65 160 -38 101 -39 107 -28 158 18 82 85 206 143 265
56 57 112 88 221 121 38 12 71 27 73 33 2 6 -38 32 -89 58 -213 106 -387 243
-531 419 -49 60 -57 75 -62 125 -3 31 -8 74 -10 96 l-5 40 18 -25 c9 -13 37
-51 62 -85z m285 -475 c44 -30 116 -75 161 -100 l82 -46 -62 -24 c-69 -26 -99
-44 -142 -80 -66 -57 -135 -162 -169 -260 l-12 -35 -22 70 c-58 182 -137 537
-165 737 l-7 46 128 -127 c70 -69 164 -151 208 -181z m8128 -167 c14 -21 48
-60 76 -86 181 -169 443 -142 644 66 31 32 57 56 57 52 0 -13 -52 -211 -76
-292 -22 -72 -31 -87 -72 -123 -60 -52 -168 -105 -256 -127 -59 -14 -79 -15
-139 -5 -38 7 -99 24 -134 38 -90 36 -96 25 -46 -73 101 -195 162 -426 171
-645 l5 -137 -43 -71 c-23 -39 -45 -72 -49 -74 -3 -2 -6 62 -7 142 -1 212 -35
387 -116 594 -163 419 -184 523 -139 664 11 32 30 93 42 134 l21 75 19 -47
c10 -26 29 -65 42 -85z m-173 -296 c0 -47 41 -178 114 -363 109 -278 139 -404
152 -631 11 -189 -17 -279 -120 -391 -144 -155 -393 -203 -569 -110 -156 83
-231 278 -175 458 6 19 52 92 102 162 99 140 111 148 197 134 74 -12 138 -54
245 -162 85 -86 108 -104 133 -104 82 0 130 166 77 268 -37 71 -124 135 -226
166 l-71 21 50 37 c62 47 96 91 111 146 20 78 -13 162 -76 188 -20 9 -34 20
-31 27 3 7 20 49 38 95 32 82 49 102 49 59z m-7440 -7 c76 -14 151 -52 205
-101 35 -33 63 -75 111 -171 35 -70 64 -139 64 -153 0 -39 -35 -99 -77 -134
-51 -42 -104 -66 -231 -102 -114 -33 -152 -57 -152 -97 0 -56 69 -124 154
-152 87 -28 205 12 303 106 32 30 58 54 59 54 1 0 4 -25 8 -56 15 -133 87
-214 191 -214 46 0 100 20 107 40 3 9 138 -142 138 -154 0 -1 -36 7 -80 20
-45 13 -135 30 -200 39 -66 8 -174 22 -240 30 -205 26 -369 77 -552 172 -122
63 -169 107 -219 208 -38 76 -42 93 -47 177 -8 154 39 289 134 384 57 58 91
78 166 98 65 18 90 19 158 6z m8236 -196 c-62 -180 -194 -478 -286 -645 -29
-52 -55 -98 -59 -102 -5 -4 -11 40 -14 99 -11 179 -77 424 -154 578 l-25 49
24 -7 c12 -4 57 -14 98 -23 120 -26 251 4 376 86 33 21 60 37 61 36 2 -1 -8
-33 -21 -71z m-843 -32 c57 -63 42 -147 -39 -221 -29 -27 -74 -59 -99 -71 -51
-25 -58 -47 -17 -56 160 -35 214 -59 277 -119 44 -43 65 -92 65 -150 -1 -44
-35 -115 -56 -115 -10 0 -66 47 -124 105 -118 116 -180 152 -275 162 -30 3
-55 7 -55 7 0 1 29 50 64 109 35 59 92 166 127 237 57 116 67 130 90 130 14 0
33 -8 42 -18z m-6905 -359 c38 -65 104 -167 146 -226 42 -60 76 -117 76 -128
0 -41 -90 -53 -146 -19 -50 31 -76 97 -83 203 -3 51 -11 92 -17 94 -6 2 -38
-28 -72 -65 -74 -84 -141 -129 -215 -144 -47 -10 -61 -9 -103 7 -61 23 -117
76 -112 106 2 17 16 26 58 40 30 9 95 29 143 44 110 35 192 91 227 158 14 26
26 47 26 47 1 0 33 -53 72 -117z m-443 -431 c126 -40 216 -58 430 -82 365 -43
440 -71 585 -222 82 -85 91 -98 65 -91 -16 4 -73 8 -125 8 -85 -1 -102 -4
-162 -32 -201 -94 -289 -301 -228 -538 11 -43 18 -80 16 -83 -3 -2 -52 42
-110 98 -120 117 -126 130 -126 294 0 164 41 255 168 372 40 37 63 65 58 72
-5 8 -41 12 -105 12 -195 0 -449 60 -645 153 -101 48 -99 46 -150 138 l-36 67
132 -67 c73 -37 178 -81 233 -99z m-7 -152 c117 -39 274 -70 394 -77 54 -3 98
-8 98 -11 0 -3 -24 -31 -54 -62 -94 -98 -126 -189 -126 -360 l-1 -105 -51 55
c-73 79 -234 280 -321 402 -77 108 -157 231 -157 241 0 3 30 -8 66 -24 36 -16
105 -43 152 -59z m6745 48 c-10 -90 33 -227 97 -308 38 -48 119 -102 190 -126
111 -37 280 -20 402 42 26 13 48 22 48 18 0 -3 -38 -52 -85 -109 -80 -96 -89
-104 -143 -120 -85 -25 -243 -31 -320 -11 -73 18 -149 65 -212 130 -74 77 -78
71 -73 -106 8 -234 -32 -466 -110 -647 -29 -68 -38 -78 -102 -122 -38 -27 -71
-47 -72 -45 -2 2 5 21 16 42 31 61 77 182 99 264 38 138 53 253 62 505 14 368
33 445 137 562 36 40 67 73 68 73 1 0 0 -19 -2 -42z m-219 -258 c-8 -37 -18
-177 -24 -320 -14 -377 -55 -569 -167 -783 -43 -81 -94 -128 -188 -173 -89
-42 -174 -56 -269 -44 -92 12 -122 21 -196 61 -181 96 -244 301 -154 498 32
72 79 120 179 186 147 96 154 99 202 86 94 -26 164 -108 224 -266 46 -119 58
-141 83 -155 69 -37 176 87 176 205 0 71 -43 156 -115 228 -31 31 -61 57 -66
57 -5 0 -9 4 -9 9 0 5 23 14 50 20 97 21 155 63 185 133 26 65 17 127 -26 167
l-22 20 74 70 c41 38 75 68 76 67 1 0 -5 -30 -13 -66z m-5390 -93 c32 -15 72
-38 90 -52 17 -15 59 -47 94 -72 70 -51 82 -71 82 -142 0 -78 -47 -158 -143
-244 -45 -39 -96 -86 -114 -103 -110 -106 88 -217 245 -138 76 38 132 113 171
227 l17 50 32 -49 c72 -114 166 -158 259 -123 37 14 83 58 83 81 0 10 3 18 8
17 4 0 49 -21 100 -47 l92 -47 -100 -18 c-55 -9 -189 -46 -297 -81 -260 -85
-361 -105 -553 -113 -172 -6 -267 4 -335 37 -56 27 -169 131 -200 184 -86 146
-96 337 -26 474 41 80 143 158 238 182 71 17 192 7 257 -23z m5262 -51 c22
-45 12 -96 -27 -140 -35 -41 -85 -62 -181 -77 -40 -7 -77 -15 -81 -19 -5 -4
27 -35 70 -68 153 -116 205 -230 153 -337 -24 -50 -39 -68 -69 -84 -32 -18
-40 -8 -91 124 -42 107 -91 194 -128 228 -10 9 -42 30 -71 45 l-52 29 123 91
c68 49 164 124 213 166 50 41 98 76 108 76 10 0 24 -14 33 -34z m474 -238 c45
-18 77 -22 175 -22 66 -1 140 3 165 7 l45 8 -140 -141 c-188 -190 -516 -472
-531 -457 -3 3 2 22 10 42 56 133 96 365 96 557 l0 128 62 -50 c34 -28 87 -60
118 -72z m-5268 -41 c84 -57 188 -122 231 -146 77 -42 86 -55 71 -96 -9 -22
-57 -45 -95 -45 -60 0 -115 36 -159 103 -22 34 -46 77 -52 95 -19 52 -38 36
-68 -58 -42 -136 -87 -203 -161 -241 -50 -25 -133 -25 -179 0 -59 31 -52 49
59 145 138 119 191 203 191 301 0 25 2 45 4 45 2 0 73 -46 158 -103z m3900
-290 c-59 -101 -75 -262 -35 -363 67 -171 236 -281 443 -287 43 -1 76 -5 74
-8 -2 -3 -51 -29 -109 -58 -117 -58 -123 -58 -245 -24 -175 49 -279 147 -345
326 -18 48 -41 61 -52 30 -92 -268 -222 -481 -395 -649 -69 -67 -77 -72 -138
-83 -36 -7 -76 -15 -90 -18 -20 -5 -12 6 35 48 205 187 291 309 462 659 134
272 203 364 320 424 88 45 101 46 75 3z m-3139 -109 l109 -42 -56 -13 c-81
-18 -152 -58 -212 -117 -102 -102 -141 -233 -112 -370 21 -94 57 -169 120
-247 56 -69 62 -68 -95 -11 l-98 36 -43 66 c-24 36 -56 97 -72 135 -25 61 -29
83 -29 170 0 94 2 105 39 188 25 57 35 92 29 98 -6 6 -38 -2 -89 -25 -198 -86
-367 -125 -591 -133 l-162 -6 -53 37 c-113 78 -123 71 105 72 243 1 308 12
609 110 235 76 303 92 412 93 70 1 92 -4 189 -41z m2858 -29 c-49 -65 -84
-128 -177 -324 -75 -160 -145 -278 -221 -378 -77 -101 -233 -249 -295 -280
-174 -88 -403 -43 -554 107 -70 70 -108 137 -123 218 -27 148 53 312 191 396
48 28 74 35 201 53 81 12 157 19 170 15 35 -8 77 -54 106 -116 25 -53 26 -61
24 -220 -3 -194 2 -210 68 -210 49 0 92 21 141 68 80 77 89 211 23 350 -34 72
-34 74 -13 68 53 -15 146 -18 182 -6 72 23 136 100 136 162 0 13 -6 35 -14 49
l-13 26 101 40 c55 22 102 38 104 37 2 -1 -15 -26 -37 -55z m-197 -61 c20 -28
20 -42 0 -84 -10 -21 -34 -45 -61 -61 -39 -23 -52 -25 -108 -20 -34 3 -88 15
-120 25 -42 14 -58 16 -61 8 -3 -7 17 -55 45 -108 78 -151 81 -255 10 -333
-43 -47 -84 -68 -121 -63 -23 3 -23 3 -20 138 1 74 -3 160 -9 190 -13 64 -48
137 -78 164 -12 11 -21 22 -21 26 0 4 28 13 63 19 82 16 351 86 402 105 54 20
61 19 79 -6z m-2384 -13 c163 -34 170 -37 204 -79 30 -36 31 -42 31 -134 l0
-97 -59 -124 c-33 -68 -59 -137 -59 -154 0 -44 33 -67 95 -67 79 0 128 19 178
70 62 62 85 128 85 247 l-1 92 26 -16 c83 -55 116 -68 175 -68 97 0 175 63
175 141 l0 34 98 0 c54 0 102 -3 105 -6 3 -4 -32 -32 -78 -63 -46 -31 -148
-112 -225 -181 -242 -214 -367 -296 -580 -381 -81 -32 -123 -43 -182 -47 -187
-11 -367 100 -454 283 -81 170 -64 321 52 445 66 71 182 124 279 129 11 0 72
-10 135 -24z m-760 -68 c0 -1 -10 -30 -22 -62 -13 -36 -23 -94 -26 -145 -4
-73 0 -96 23 -165 14 -44 40 -104 56 -132 17 -29 28 -53 25 -53 -14 0 -303
139 -410 197 -135 74 -324 187 -344 207 -11 11 10 14 115 19 70 3 175 16 233
28 95 19 283 78 320 100 15 8 30 12 30 6z m1160 -21 c69 -13 184 -32 255 -41
72 -10 136 -22 143 -27 49 -40 -40 -138 -125 -138 -43 0 -122 42 -181 95 -70
63 -78 55 -62 -63 28 -217 -59 -359 -215 -350 -69 4 -69 20 1 170 53 113 58
130 62 208 3 59 -1 98 -11 128 -10 29 -11 42 -3 42 6 0 67 -11 136 -24z m903
-124 c-184 -182 -183 -432 2 -617 42 -43 88 -75 144 -103 94 -48 94 -48 -70
-57 l-105 -5 -62 40 c-174 112 -251 249 -252 448 0 57 -4 82 -12 82 -6 0 -53
-42 -104 -94 -151 -154 -332 -277 -524 -356 -79 -33 -95 -34 -210 -9 l-55 12
78 28 c245 90 384 178 637 403 143 127 266 217 345 251 51 23 103 32 183 34
l64 1 -59 -58z m1430 -216 c59 -58 164 -117 250 -139 33 -9 61 -18 63 -20 11
-11 -321 -138 -516 -197 -133 -41 -280 -80 -301 -80 -7 0 7 21 32 48 135 141
255 329 329 516 l23 59 35 -68 c19 -38 57 -91 85 -119z m-1785 -279 c27 -76
68 -132 157 -215 l77 -72 -108 0 c-141 0 -348 15 -547 40 -231 29 -224 25
-120 75 169 80 329 193 448 314 l60 62 7 -74 c4 -41 16 -99 26 -130z"/>
<path d="M5342 9529 c-47 -24 -73 -55 -92 -112 -35 -109 56 -227 175 -227 144
0 231 160 152 279 -51 76 -150 102 -235 60z m148 -34 c46 -24 74 -71 74 -126
0 -79 -59 -139 -139 -139 -80 0 -139 60 -139 139 0 105 111 174 204 126z"/>
<path d="M4696 9294 c-9 -8 -16 -22 -16 -29 0 -7 7 -21 16 -29 30 -30 74 -13
74 29 0 42 -44 59 -74 29z"/>
<path d="M3607 9320 c-84 -26 -132 -99 -125 -190 7 -99 74 -163 173 -164 138
-2 225 135 165 258 -35 74 -138 120 -213 96z m113 -52 c76 -39 102 -133 55
-204 -23 -36 -97 -67 -138 -59 -144 30 -159 233 -21 275 45 13 57 12 104 -12z"/>
<path d="M3030 8779 c-15 -28 12 -72 42 -67 29 4 48 38 37 66 -11 30 -64 31
-79 1z"/>
<path d="M6427 9103 c-11 -11 -8 -58 5 -71 33 -33 91 16 68 57 -10 20 -58 30
-73 14z"/>
<path d="M7058 9040 c-124 -66 -131 -246 -14 -315 125 -73 276 13 276 156 0
43 -26 104 -57 131 -53 48 -143 60 -205 28z m142 -38 c71 -35 98 -116 63 -189
-22 -46 -67 -73 -123 -73 -145 0 -193 184 -68 260 41 25 82 25 128 2z"/>
<path d="M4935 8704 c-830 -50 -1575 -354 -2185 -890 -913 -802 -1354 -2005
-1179 -3219 133 -929 630 -1768 1381 -2337 517 -390 1106 -625 1768 -704 102
-12 221 -17 405 -17 240 0 343 6 530 34 947 140 1787 645 2361 1421 334 451
563 1003 649 1566 32 212 38 307 38 557 0 297 -14 452 -68 720 -272 1361
-1304 2438 -2653 2769 -264 65 -496 94 -787 100 -110 2 -227 2 -260 0z m595
-60 c742 -84 1406 -385 1981 -899 107 -95 300 -298 334 -350 8 -11 19 -80 25
-152 21 -245 -18 -372 -158 -505 -63 -61 -124 -95 -217 -124 -73 -23 -329 -26
-437 -6 -116 22 -149 42 -291 180 -202 195 -365 313 -594 426 -214 107 -420
174 -663 218 -108 20 -159 23 -385 23 -223 0 -278 -3 -385 -22 -447 -79 -843
-266 -1170 -554 -146 -129 -504 -219 -715 -180 -130 24 -267 116 -347 233 -75
111 -128 271 -128 389 0 56 1 57 74 140 168 192 404 404 616 556 520 371 1159
597 1814 643 159 11 477 3 646 -16z m-25 -1252 c231 -41 411 -100 622 -202
719 -348 1201 -1038 1284 -1839 24 -230 0 -576 -55 -791 -192 -752 -733 -1351
-1452 -1605 -288 -103 -455 -130 -789 -130 -218 1 -267 4 -380 24 -396 72
-760 235 -1060 476 -87 69 -251 230 -317 310 -27 33 -58 71 -70 85 -52 61
-172 258 -236 387 -116 236 -191 495 -223 773 -17 152 -7 472 21 627 128 731
588 1349 1245 1673 223 110 433 177 670 214 153 24 155 24 400 21 171 -3 258
-9 340 -23z m-3140 -244 c51 -194 176 -358 337 -439 96 -48 174 -62 323 -56
130 6 208 21 333 67 29 11 55 20 58 20 3 0 -28 -39 -69 -87 -40 -49 -95 -116
-120 -150 -43 -57 -54 -64 -130 -94 -77 -30 -91 -32 -233 -35 -167 -4 -260
-15 -339 -43 l-53 -19 -7 47 c-13 88 -55 196 -111 291 -72 120 -148 281 -163
342 -23 96 -18 114 67 227 l77 104 7 -56 c4 -31 14 -84 23 -119z m5627 60
c119 -167 113 -153 112 -248 0 -108 -23 -177 -109 -330 -70 -122 -105 -218
-105 -281 0 -21 -1 -39 -3 -39 -1 0 -18 5 -37 11 -22 7 -132 12 -290 13 -209
2 -267 5 -320 20 -108 29 -157 62 -226 151 -34 44 -61 81 -59 83 1 1 31 -5 66
-13 35 -9 129 -18 210 -22 168 -7 257 8 374 61 127 59 242 189 287 325 19 57
22 87 21 219 -1 83 0 152 2 152 2 0 37 -46 77 -102z m-5764 -416 c33 -67 37
-82 31 -117 -31 -161 -29 -378 6 -547 35 -170 125 -383 228 -541 58 -89 179
-238 246 -302 l41 -39 0 -163 c0 -90 -3 -163 -6 -163 -14 0 -183 139 -271 224
-169 161 -273 309 -352 500 -85 205 -121 394 -122 642 0 225 31 443 92 646
l22 73 23 -68 c12 -37 40 -102 62 -145z m6001 44 l60 -109 -44 -57 c-119 -155
-289 -454 -355 -625 -13 -33 -26 -64 -30 -68 -4 -5 -25 2 -47 16 -112 71 -305
152 -489 206 -148 44 -145 42 -178 102 -25 45 -26 51 -10 44 10 -4 51 -17 89
-28 62 -18 101 -21 325 -22 231 -1 261 -4 315 -22 33 -12 62 -20 66 -17 4 2 4
32 2 66 -6 79 15 143 93 280 73 127 104 204 116 290 6 38 14 66 18 61 5 -4 35
-57 69 -117z m-6174 4 c-40 -155 -66 -360 -68 -530 l-2 -155 -35 -12 c-19 -7
-79 -12 -133 -12 -89 -1 -98 1 -93 17 3 9 15 49 27 87 32 106 114 305 180 439
68 141 139 269 144 264 2 -2 -7 -46 -20 -98z m6286 -227 c17 -38 51 -117 75
-177 l44 -110 -118 -120 c-145 -149 -227 -270 -247 -366 -4 -19 -9 -38 -12
-43 -2 -4 -35 19 -73 52 -38 33 -79 66 -92 75 l-22 16 19 57 c29 84 143 313
210 423 62 99 174 260 181 260 3 0 19 -30 35 -67z m-6003 -15 c43 -77 80 -188
88 -264 4 -36 12 -68 18 -70 7 -3 28 2 48 10 41 17 48 11 48 -44 0 -56 51
-227 95 -318 49 -102 87 -161 151 -238 l43 -51 -20 -119 c-10 -65 -19 -133
-19 -151 0 -17 -4 -34 -8 -37 -19 -11 -171 165 -255 294 -188 291 -270 597
-245 918 7 94 12 122 23 122 2 0 17 -24 33 -52z m786 -245 c-10 -16 -50 -91
-90 -167 l-72 -139 -25 49 c-22 44 -77 203 -77 223 0 4 38 11 85 15 46 3 106
15 132 25 65 26 68 25 47 -6z m-286 -106 c12 -45 41 -120 63 -168 l40 -85 -39
-120 c-22 -65 -43 -136 -47 -156 -4 -21 -11 -38 -16 -38 -16 0 -107 132 -153
220 -24 47 -56 122 -70 167 -27 86 -48 223 -37 235 10 11 102 26 171 27 l65 1
23 -83z m5707 -202 c19 -71 35 -137 35 -145 0 -8 -34 -37 -74 -63 -87 -56
-185 -150 -226 -213 l-28 -45 -33 43 c-18 24 -48 60 -67 80 -33 34 -34 40 -28
85 14 106 116 266 264 412 l86 84 18 -54 c11 -30 34 -112 53 -184z m-1219 111
c446 -138 702 -317 923 -649 60 -90 174 -318 163 -328 -14 -13 -197 -60 -199
-52 -2 5 -30 49 -61 99 -114 175 -285 345 -472 469 -88 59 -266 154 -316 169
-15 5 -29 25 -45 69 -12 34 -42 104 -66 156 -23 52 -43 96 -43 97 0 6 2 6 116
-30z m-5332 -68 c3 -13 10 -56 17 -96 9 -63 9 -76 -5 -97 -33 -51 -346 -178
-373 -151 -7 6 49 273 67 321 9 23 13 24 112 24 57 0 117 4 133 9 43 15 44 14
49 -10z m46 -242 c0 -8 14 -56 30 -106 l31 -91 -22 -32 c-64 -94 -164 -175
-297 -241 -83 -42 -185 -86 -199 -86 -13 0 24 380 39 395 3 3 43 15 89 26 87
21 246 91 289 127 30 25 40 27 40 8z m6579 -148 c12 -79 24 -159 27 -179 l5
-37 -67 -22 c-79 -25 -117 -43 -161 -76 -17 -13 -34 -24 -36 -24 -2 0 -27 41
-56 91 l-52 91 27 46 c35 60 132 156 213 210 35 23 67 42 71 42 4 0 17 -64 29
-142z m-1146 71 c181 -91 321 -194 457 -335 118 -123 240 -288 240 -324 0 -9
-203 -110 -220 -110 -4 0 -12 12 -19 28 -27 58 -109 171 -179 244 -75 78 -178
156 -269 201 -47 24 -52 30 -58 69 -6 38 -47 214 -61 261 -3 9 -3 17 1 17 3 0
51 -23 108 -51z m-5304 -260 l45 -89 -18 -57 c-57 -185 -224 -411 -397 -538
-86 -64 -189 -119 -199 -109 -9 10 -30 306 -30 432 0 52 4 83 13 90 6 5 56 28
110 50 177 74 334 183 398 276 13 20 26 36 29 35 3 0 25 -41 49 -90z m5441
-164 c67 -51 130 -114 182 -179 56 -71 122 -186 112 -195 -5 -4 -52 -37 -104
-73 l-95 -65 -49 69 c-27 38 -82 103 -121 146 l-72 77 -7 135 c-3 74 -9 148
-13 164 l-6 30 59 -34 c32 -18 84 -52 114 -75z m1051 -30 l3 -100 -101 -16
-102 -15 -25 60 c-14 34 -26 66 -26 72 0 23 77 68 170 100 46 15 67 18 72 10
3 -6 8 -56 9 -111z m-6341 -35 c82 -103 80 -90 35 -247 -76 -265 -216 -516
-381 -685 -87 -89 -225 -188 -262 -188 -16 0 -65 204 -92 378 -6 37 -13 79
-16 93 -5 25 1 30 73 69 211 114 397 306 505 525 20 39 41 87 47 108 7 20 14
37 16 37 1 0 35 -41 75 -90z m6350 -157 c0 -27 -3 -98 -7 -160 l-6 -111 -61
-7 c-478 -52 -948 -339 -1189 -727 -23 -37 -44 -67 -47 -67 -3 -1 -20 36 -39
81 l-35 81 23 66 c32 90 59 135 150 249 268 335 677 570 1096 631 117 17 115
18 115 -36z m-6080 -178 c0 -154 -43 -360 -112 -533 -105 -262 -295 -513 -510
-673 -44 -32 -83 -59 -88 -59 -14 0 -161 389 -160 425 0 5 38 30 83 55 98 54
264 213 344 330 105 155 197 353 248 540 15 52 28 101 31 108 2 9 34 -13 84
-59 l80 -73 0 -61z m4940 48 c29 -32 72 -86 97 -121 l45 -63 -99 -97 c-54 -53
-116 -118 -137 -145 -22 -26 -40 -46 -42 -44 -2 2 5 44 16 93 24 111 50 308
50 380 0 29 4 54 9 54 5 0 33 -26 61 -57z m-4801 -93 c53 -40 61 -50 68 -90
14 -80 7 -240 -16 -347 -84 -401 -309 -770 -619 -1019 -58 -46 -111 -84 -118
-84 -11 0 -144 247 -144 268 0 6 30 32 68 58 37 26 121 102 187 168 227 227
370 487 439 796 14 64 29 162 32 218 7 95 8 102 25 90 9 -7 44 -33 78 -58z
m5921 -127 c0 -49 -14 -147 -41 -299 l-22 -121 -116 -6 c-312 -15 -632 -175
-925 -460 -53 -52 -98 -92 -100 -88 -1 3 -17 50 -35 103 l-32 96 33 54 c83
137 180 252 298 356 236 207 516 340 816 386 131 21 124 22 124 -21z m-5750
-403 c21 -63 58 -160 83 -215 25 -55 41 -101 36 -103 -27 -10 -279 90 -279
111 0 5 14 53 30 105 17 52 37 127 45 166 8 39 18 82 21 96 7 24 7 24 17 -10
5 -19 26 -87 47 -150z m5670 -78 c0 -26 -75 -282 -113 -387 l-33 -90 -64 3
c-85 5 -243 -13 -344 -39 -162 -41 -325 -121 -450 -221 -32 -26 -61 -47 -62
-45 -2 1 -10 46 -18 98 -9 53 -18 104 -22 113 -8 22 171 200 296 293 258 193
498 288 738 292 63 1 72 -1 72 -17z m-1251 -259 c109 -268 146 -455 138 -698
-6 -175 -24 -275 -77 -435 -35 -103 -114 -280 -126 -280 -4 0 -37 20 -73 43
-36 24 -76 49 -88 56 l-22 11 28 78 c106 285 116 666 26 976 l-23 78 46 77
c25 42 61 109 80 149 19 40 36 71 38 69 3 -2 26 -58 53 -124z m-4347 -13 l87
-23 55 -91 c30 -50 71 -113 90 -141 l36 -50 -57 -3 c-171 -9 -434 70 -552 166
l-23 18 56 111 56 112 82 -38 c46 -21 122 -49 170 -61z m-237 -252 c119 -60
295 -98 450 -98 l92 0 34 -42 c18 -24 67 -78 107 -120 l73 -77 -46 -7 c-26 -3
-117 -4 -204 -1 -248 8 -451 57 -649 156 -113 56 -142 73 -142 83 0 3 30 49
67 101 l66 95 51 -33 c28 -18 74 -44 101 -57z m4379 -122 c53 -268 40 -537
-40 -786 -37 -115 -27 -111 -146 -55 -57 26 -107 52 -112 56 -4 4 4 37 19 74
50 127 66 210 67 345 0 77 -6 153 -16 199 l-16 74 58 71 c32 39 78 98 102 130
52 71 48 75 84 -108z m1282 122 c11 -12 -96 -242 -190 -410 -34 -61 -40 -67
-64 -63 -225 40 -438 31 -582 -24 -30 -12 -56 -21 -58 -21 -1 0 -1 46 0 102
l3 102 66 56 c164 136 380 229 604 259 78 10 210 10 221 -1z m-5801 -237 c106
-51 244 -96 374 -123 90 -19 141 -22 339 -23 l233 -1 72 -61 c40 -33 96 -77
125 -98 29 -21 50 -41 45 -46 -10 -10 -244 -56 -348 -68 -116 -14 -355 -6
-455 14 -194 39 -389 122 -565 240 -129 87 -145 100 -145 110 0 5 32 41 72 81
l72 73 50 -30 c28 -17 87 -48 131 -68z m4245 -25 c0 -2 5 -28 10 -57 6 -30 11
-106 11 -169 0 -126 -20 -225 -67 -338 -31 -73 -14 -70 -164 -28 -98 27 -93
15 -66 160 9 49 16 114 16 146 l0 58 108 97 c60 53 114 105 120 116 10 16 32
27 32 15z m-4551 -104 c46 -36 47 -39 37 -70 -12 -35 -84 -137 -122 -173 -29
-27 -29 -27 -94 77 l-50 79 22 15 c13 8 49 36 82 63 33 26 63 47 68 47 5 0 30
-17 57 -38z m204 -135 l59 -32 -6 -66 c-7 -84 -47 -222 -86 -299 -17 -33 -32
-60 -35 -60 -5 0 -133 161 -188 237 l-38 52 46 48 c50 51 108 133 119 171 l8
23 31 -21 c18 -11 58 -35 90 -53z m5540 1 c59 -6 107 -14 107 -18 0 -7 -134
-207 -190 -283 -39 -52 -32 -52 -145 -17 -52 17 -106 23 -213 27 -140 5 -144
6 -138 27 3 11 13 58 22 104 19 94 24 100 118 132 113 40 250 49 439 28z
m-1497 -105 c-6 -65 -32 -200 -41 -211 -1 -1 -55 4 -119 13 -64 8 -154 15
-199 15 l-82 0 95 51 c106 56 223 127 290 176 25 18 49 33 54 33 5 0 6 -34 2
-77z m-3834 3 c84 -34 99 -43 109 -70 17 -46 24 -256 10 -329 -16 -83 -72
-277 -80 -277 -12 0 -145 126 -215 204 l-69 77 41 87 c46 99 78 206 88 293 4
33 10 58 13 57 4 -2 50 -21 103 -42z m1219 -62 c223 -131 472 -522 563 -885
47 -185 69 -442 50 -561 -6 -35 -7 -36 -43 -31 -20 4 -88 18 -151 32 l-115 26
3 115 c14 465 -161 907 -485 1229 -41 40 -73 75 -71 76 2 2 39 12 83 23 44 11
82 20 84 21 2 1 39 -20 82 -45z m-970 -14 c104 -22 106 -23 163 -131 81 -151
126 -347 126 -538 -1 -105 -20 -264 -34 -279 -3 -3 -16 0 -29 7 -50 27 -265
188 -376 281 l-24 21 31 102 c39 128 49 173 61 278 9 78 1 210 -14 260 -4 10
-4 19 -2 19 2 0 46 -9 98 -20z m795 -122 c248 -260 399 -595 435 -961 10 -104
6 -293 -6 -305 -6 -6 -251 74 -345 112 -96 39 -92 29 -70 156 47 277 -81 691
-312 1012 -26 37 -48 72 -48 78 0 5 15 10 33 11 17 0 64 6 102 13 l70 12 45
-37 c25 -21 68 -61 96 -91z m-373 50 c101 -125 232 -368 286 -533 61 -184 82
-361 62 -506 -7 -47 -16 -91 -20 -98 -10 -16 -116 32 -314 142 -127 70 -147
85 -142 102 36 126 46 362 20 511 -20 111 -63 241 -112 336 -21 40 -39 76 -41
81 -2 4 48 7 111 7 l116 0 34 -42z m952 -103 c50 -18 129 -43 178 -55 48 -13
87 -27 87 -31 0 -19 -208 -149 -238 -149 -4 0 -35 41 -67 92 -33 51 -83 120
-112 154 -29 34 -53 65 -53 68 0 3 26 -7 58 -21 31 -14 98 -40 147 -58z m2143
-5 c316 -58 629 -208 866 -416 l88 -77 -28 -27 c-16 -16 -74 -62 -128 -103
l-100 -75 -85 80 c-207 194 -479 332 -786 399 -108 24 -394 36 -500 21 -38 -5
-72 -8 -75 -5 -2 2 14 41 37 86 l41 82 73 24 c41 14 94 28 119 32 81 14 357 2
478 -21z m1307 5 c54 -13 100 -27 103 -29 5 -6 -145 -180 -206 -240 l-40 -38
-46 31 c-59 41 -165 91 -192 91 -11 0 -23 2 -26 5 -9 9 60 178 78 192 32 23
216 17 329 -12z m-2086 -167 c-178 -347 -414 -588 -723 -738 -90 -44 -373
-147 -381 -138 -4 4 -25 176 -25 204 0 16 11 26 48 39 282 106 559 328 757
607 l50 71 107 18 c58 10 130 24 160 32 29 8 55 13 56 11 2 -1 -20 -49 -49
-106z m-926 58 c50 -8 120 -18 155 -21 34 -4 62 -10 62 -14 0 -17 -169 -175
-237 -222 -76 -52 -233 -129 -265 -129 -10 0 -18 5 -18 11 0 7 -20 54 -45 107
-25 52 -45 96 -45 98 0 1 35 21 78 44 42 23 104 63 137 90 33 27 66 49 73 49
7 1 54 -5 105 -13z m591 -28 c-69 -118 -292 -349 -428 -446 -86 -61 -303 -174
-358 -188 -24 -5 -28 -3 -28 14 0 18 -39 162 -55 205 -4 10 -3 17 4 17 26 0
194 81 262 126 80 53 223 184 260 239 l24 34 145 4 c80 1 153 4 163 5 12 1 16
-2 11 -10z m2103 -113 c29 -13 74 -38 100 -56 l47 -33 -73 -67 -73 -68 -82 71
c-44 39 -82 72 -84 74 -4 3 36 84 50 101 12 15 44 9 115 -22z m-1162 -15 c282
-60 556 -199 746 -378 43 -41 79 -78 79 -82 0 -14 -220 -150 -336 -208 l-62
-31 -27 38 c-38 56 -149 160 -223 210 -194 131 -509 237 -762 256 -41 3 -89 8
-107 11 l-31 5 58 92 58 92 68 12 c109 19 416 9 539 -17z m-530 -241 c354 -45
701 -208 868 -407 26 -31 47 -60 47 -64 0 -16 -184 -98 -370 -164 -100 -36
-102 -36 -116 -16 -163 233 -456 422 -733 473 -39 7 -71 16 -71 19 0 4 12 17
26 31 14 13 48 52 76 86 l50 63 71 -5 c40 -3 108 -10 152 -16z m-328 -214
c202 -38 398 -135 557 -276 53 -47 166 -175 166 -188 0 -14 -448 -121 -509
-121 -5 0 -43 51 -84 113 -118 176 -230 286 -349 342 l-36 18 81 63 c45 34 85
63 88 63 4 1 43 -6 86 -14z m-198 -187 c75 -42 213 -183 284 -290 78 -119 77
-114 17 -122 -67 -9 -344 -25 -349 -21 -2 2 -18 37 -35 77 -41 95 -95 177
-159 246 -29 30 -47 57 -42 59 6 2 46 23 90 48 92 52 108 52 194 3z m-240
-176 c56 -71 141 -221 141 -250 0 -8 -17 -12 -47 -12 -85 1 -303 17 -309 23
-3 3 -10 38 -15 79 -6 40 -21 99 -34 131 l-23 58 21 9 c97 41 154 57 179 48
15 -5 54 -44 87 -86z m-310 -24 c22 -47 38 -110 43 -173 l3 -40 -40 4 c-96 7
-120 15 -119 39 0 12 1 60 2 107 l2 84 33 10 c51 15 54 13 76 -31z"/>
<path d="M4806 8484 c-65 -7 -125 -19 -132 -25 -21 -18 -17 -57 9 -82 l24 -22
-26 -295 c-21 -233 -30 -301 -44 -320 -9 -13 -17 -36 -17 -51 0 -44 17 -50
111 -39 112 14 111 13 107 57 -2 28 -9 41 -26 48 -18 8 -22 17 -20 40 3 29 5
30 59 33 54 3 57 2 64 -25 5 -20 2 -31 -11 -40 -19 -14 -22 -69 -5 -86 10 -10
290 15 311 28 20 12 11 71 -15 95 -28 26 -29 30 -136 400 -53 183 -80 261 -96
278 -12 12 -26 21 -30 21 -4 -1 -61 -7 -127 -15z m139 -44 c3 -5 46 -150 96
-322 73 -253 95 -318 117 -341 34 -36 24 -43 -82 -51 -44 -4 -96 -9 -113 -13
-37 -6 -43 8 -17 34 16 16 14 56 -6 109 -9 23 -13 23 -72 17 -112 -11 -113
-11 -116 -76 -3 -53 -1 -58 23 -69 31 -14 32 -24 3 -32 -31 -8 -118 -8 -118 1
0 3 7 15 16 24 13 14 22 76 40 281 13 145 26 287 29 316 5 48 3 55 -21 77 -15
14 -24 28 -21 32 17 16 232 28 242 13z"/>
<path d="M4786 8288 c-6 -17 -26 -312 -26 -367 l0 -43 78 7 c42 4 80 10 84 14
6 5 -33 161 -87 348 -15 51 -40 71 -49 41z m67 -257 c15 -52 26 -96 24 -97 -1
-1 -20 -6 -41 -10 l-39 -7 6 78 c4 43 7 94 7 114 0 52 14 28 43 -78z"/>
<path d="M5482 8468 c-17 -17 -15 -75 3 -86 14 -7 8 -45 -44 -292 -54 -252
-63 -286 -85 -304 -28 -23 -41 -64 -27 -85 8 -13 212 -61 258 -61 32 0 51 41
36 80 -9 23 -6 51 11 134 12 58 25 108 27 111 3 3 13 -1 23 -8 16 -11 15 -20
-9 -132 -40 -184 -31 -203 113 -231 103 -21 117 -14 109 58 -4 26 0 81 8 122
17 86 8 136 -32 178 l-25 26 38 20 c75 39 114 104 114 192 0 88 -50 169 -130
210 -35 18 -309 80 -353 80 -13 0 -28 -5 -35 -12z m198 -59 c168 -35 218 -60
255 -123 49 -84 22 -207 -56 -246 -21 -11 -48 -20 -59 -20 -26 0 -60 -17 -60
-30 0 -5 18 -19 40 -30 59 -30 74 -68 64 -154 -4 -39 -8 -97 -8 -129 0 -54 -1
-58 -21 -53 -11 3 -44 10 -73 16 -76 17 -79 26 -47 181 26 120 26 131 11 153
-17 26 -81 46 -96 30 -4 -5 -20 -67 -35 -138 -23 -109 -25 -132 -14 -152 7
-13 10 -27 6 -30 -9 -10 -217 38 -217 49 0 6 11 20 24 32 22 18 32 55 86 313
57 270 64 332 39 332 -5 0 -9 7 -9 15 0 20 2 20 170 -16z"/>
<path d="M5667 8213 c-32 -153 -34 -169 -19 -180 24 -19 69 -16 91 6 34 34 81
239 68 292 -7 27 -43 49 -81 49 -21 0 -25 -10 -59 -167z m103 88 c0 -37 -35
-192 -49 -219 -11 -21 -41 -31 -41 -14 0 10 50 244 55 259 8 22 35 2 35 -26z"/>
<path d="M4250 8373 c-8 -3 -42 -18 -75 -33 -33 -15 -113 -49 -177 -75 -148
-60 -162 -69 -153 -104 9 -34 23 -51 45 -51 13 0 27 -25 55 -97 166 -432 169
-438 229 -467 124 -59 326 57 326 188 0 20 -41 142 -96 286 -88 227 -96 253
-84 275 10 19 10 30 0 54 -12 31 -33 38 -70 24z m30 -63 c-5 -10 -10 -27 -10
-38 0 -10 43 -130 95 -266 52 -136 95 -258 95 -272 0 -61 -60 -124 -142 -149
-68 -20 -96 -19 -135 5 -41 24 -46 34 -141 286 -101 263 -101 263 -129 270
-13 4 -23 12 -23 20 0 8 2 14 4 14 2 0 52 20 110 44 l106 45 -6 -38 c-5 -32 9
-78 91 -292 53 -140 104 -260 113 -266 42 -34 113 1 111 55 0 15 -44 139 -97
277 -76 194 -102 252 -120 261 -38 19 -37 23 18 48 58 27 76 26 60 -4z m-98
-82 c22 -17 202 -493 195 -513 -4 -8 -15 -15 -26 -15 -20 0 -33 29 -166 378
-52 137 -53 188 -3 150z"/>
<path d="M6343 8154 c-14 -22 -15 -31 -5 -57 11 -28 5 -42 -119 -263 -122
-217 -132 -233 -160 -236 -40 -4 -70 -48 -50 -72 15 -18 263 -156 280 -156 6
0 18 14 27 31 13 27 14 36 3 56 -12 22 -10 30 19 81 17 31 76 137 129 234 90
162 100 178 125 178 31 0 62 37 56 67 -3 17 -249 162 -275 163 -7 0 -20 -12
-30 -26z m157 -85 c60 -34 107 -65 104 -71 -3 -5 -12 -7 -20 -4 -27 10 -64
-42 -193 -276 -121 -218 -130 -238 -120 -262 7 -14 10 -29 6 -32 -7 -8 -227
115 -227 127 0 5 13 9 29 9 16 0 33 6 39 13 29 36 272 487 272 505 0 11 -4 24
-10 27 -13 8 -13 25 0 25 5 0 59 -27 120 -61z"/>
<path d="M3474 8090 c-53 -12 -103 -49 -132 -98 -24 -42 -27 -57 -26 -132 2
-235 201 -513 384 -537 49 -7 117 17 150 52 l23 24 39 -20 c77 -39 158 -19
158 38 0 14 -14 49 -32 78 -29 49 -36 54 -72 57 l-40 3 -12 73 c-21 125 -121
305 -215 386 -73 62 -160 92 -225 76z m161 -80 c121 -83 244 -301 245 -433 0
-42 3 -49 26 -57 14 -6 37 -10 52 -10 22 0 32 -9 50 -42 12 -24 22 -49 22 -55
0 -20 -66 -16 -110 7 -51 26 -56 25 -91 -10 -64 -64 -148 -62 -241 6 -133 96
-251 338 -233 480 18 147 152 202 280 114z"/>
<path d="M3450 7963 c-17 -21 -21 -37 -17 -65 6 -44 108 -257 166 -346 68
-104 144 -131 203 -72 27 28 30 35 24 73 -10 69 -127 283 -203 372 -43 50 -68
64 -115 65 -28 0 -41 -6 -58 -27z m108 -28 c48 -34 196 -276 223 -363 11 -37
10 -44 -6 -62 -39 -43 -87 -19 -147 74 -49 76 -158 299 -158 324 0 41 47 55
88 27z"/>
<path d="M6852 7943 c-22 -8 -44 -61 -33 -82 9 -15 -17 -56 -145 -237 -86
-120 -160 -229 -165 -242 -5 -13 -9 -45 -9 -71 0 -108 137 -230 260 -231 80 0
105 25 281 270 137 193 164 225 186 225 31 0 68 44 59 71 -6 20 -122 104 -144
104 -6 0 -12 4 -12 9 0 10 -224 174 -250 183 -8 3 -21 3 -28 1z m124 -113 c54
-39 100 -75 102 -79 1 -5 -10 -11 -27 -14 -24 -5 -55 -42 -189 -230 -88 -123
-165 -233 -171 -246 -16 -28 3 -69 42 -91 24 -13 30 -13 54 0 16 9 99 115 191
245 140 196 163 233 158 257 -3 15 -2 29 2 32 10 6 102 -61 102 -74 0 -6 -10
-10 -23 -10 -13 0 -30 -6 -38 -12 -9 -7 -87 -113 -174 -236 -105 -148 -168
-228 -188 -239 -96 -49 -277 69 -277 181 0 50 11 69 197 328 126 177 134 190
127 223 -3 20 -2 35 3 35 5 0 54 -32 109 -70z m117 -154 c5 -14 -2 -32 -25
-66 -212 -299 -285 -400 -295 -404 -21 -9 -43 5 -43 26 0 17 103 168 272 399
49 68 76 81 91 45z"/>
<path d="M2843 7639 c-57 -44 -103 -86 -103 -93 0 -25 41 -66 66 -66 21 0 38
-28 159 -271 90 -178 134 -277 130 -289 -8 -25 21 -80 42 -80 25 0 163 110
163 131 0 26 -48 60 -74 53 -17 -4 -25 1 -34 20 -10 23 -8 28 34 62 44 36 45
36 65 18 15 -14 19 -26 15 -47 -7 -35 34 -83 59 -70 45 26 225 171 231 186 8
26 -22 67 -49 67 -30 0 -57 20 -221 168 -310 279 -325 292 -354 292 -18 -1
-60 -27 -129 -81z m377 -170 c238 -215 281 -249 313 -249 35 0 13 -27 -81 -99
l-97 -73 -3 41 c-3 33 -10 46 -42 71 l-39 31 -65 -48 c-73 -54 -79 -71 -43
-124 17 -25 31 -35 55 -37 18 -2 32 -7 32 -10 0 -12 -100 -83 -109 -78 -4 3
-6 18 -4 33 2 20 -36 105 -140 308 -133 262 -144 280 -172 285 -16 3 -30 10
-30 17 0 13 162 143 179 143 6 0 117 -95 246 -211z"/>
<path d="M2934 7477 c-7 -18 177 -367 193 -367 18 0 123 82 123 97 0 12 -289
283 -303 283 -4 0 -10 -6 -13 -13z m203 -211 l62 -60 -31 -23 c-17 -12 -33
-22 -34 -20 -1 1 -26 47 -55 102 -58 111 -56 111 58 1z"/>
<path d="M7410 7383 c-8 -3 -35 -19 -58 -36 -75 -51 -107 -117 -177 -367 -28
-103 -49 -137 -72 -119 -19 16 -16 37 12 97 14 30 25 64 25 77 0 29 -36 75
-60 75 -16 0 -127 -119 -150 -161 -11 -20 13 -57 45 -69 14 -5 26 -20 29 -38
9 -37 57 -89 101 -107 76 -32 158 -12 225 55 53 53 72 93 123 264 25 80 53
158 63 174 l19 27 3 -29 c2 -16 -6 -55 -18 -87 -19 -54 -20 -61 -5 -88 19 -37
44 -52 66 -41 23 13 129 145 129 161 0 24 -30 59 -50 59 -12 0 -22 12 -30 35
-14 44 -53 91 -91 110 -28 15 -100 19 -129 8z m127 -53 c23 -13 37 -34 50 -71
14 -41 25 -55 51 -66 17 -7 32 -16 32 -19 0 -3 -23 -33 -52 -65 -46 -54 -54
-59 -65 -44 -10 14 -8 27 8 68 36 90 24 157 -26 157 -45 0 -62 -35 -134 -267
-46 -146 -80 -203 -146 -240 -86 -49 -170 -20 -211 72 -16 37 -32 59 -49 65
-14 5 -25 12 -25 15 0 10 104 125 113 125 18 0 18 -33 -2 -74 -11 -25 -23 -63
-27 -85 -5 -34 -3 -43 19 -65 33 -33 52 -33 86 2 21 21 36 59 65 167 58 213
99 287 181 329 41 21 93 20 132 -4z"/>
<path d="M4900 7309 c-320 -33 -654 -145 -930 -313 -557 -338 -941 -929 -1032
-1586 -19 -135 -16 -487 5 -619 36 -223 97 -421 191 -616 124 -256 236 -415
431 -610 636 -638 1600 -822 2435 -463 63 27 151 70 195 95 44 26 106 59 137
74 31 16 71 43 90 61 18 18 69 63 114 100 783 649 1008 1780 537 2701 -407
797 -1277 1267 -2173 1176z m367 -35 l52 -7 -57 -33 c-37 -22 -113 -91 -215
-196 -140 -146 -155 -158 -137 -118 45 102 12 239 -71 297 -21 16 -39 31 -39
35 0 3 39 9 88 13 48 3 92 8 97 10 18 6 228 5 282 -1z m288 -55 c121 -82 127
-257 12 -340 -103 -74 -217 6 -193 136 17 89 146 101 146 13 0 -37 -36 -56
-70 -38 -18 10 -24 9 -31 -1 -19 -31 52 -60 93 -38 35 19 47 40 48 86 1 112
-170 126 -216 18 -19 -47 -18 -114 4 -156 l18 -35 -208 0 c-114 1 -208 4 -208
8 0 10 247 264 292 299 22 18 65 43 96 56 74 31 164 27 217 -8z m-752 -25 c82
-57 110 -169 66 -262 -43 -89 -130 -106 -196 -39 -60 59 -56 151 8 177 35 15
67 5 81 -25 15 -33 -4 -63 -45 -67 -43 -4 -44 -32 0 -36 44 -4 69 12 83 53 9
28 8 40 -5 69 -48 102 -205 49 -205 -70 0 -60 20 -104 64 -141 l37 -30 -110
-36 c-61 -20 -150 -54 -197 -77 -48 -22 -89 -39 -91 -37 -6 6 126 338 154 387
29 50 74 101 117 132 65 47 173 48 239 2z m1002 -26 c153 -50 334 -136 290
-137 -58 -2 -151 -32 -308 -102 -86 -38 -159 -69 -162 -69 -2 0 10 23 27 50
51 82 52 192 3 264 -14 20 -25 39 -25 42 0 7 44 -5 175 -48z m-1359 -35 c-46
-65 -64 -103 -132 -282 l-58 -155 -11 55 c-7 30 -19 68 -27 84 -31 57 -120
125 -165 125 -53 1 -36 19 66 73 100 53 318 144 348 146 7 1 -2 -20 -21 -46z
m1790 -167 c181 -84 156 -333 -39 -387 -83 -22 -147 31 -147 123 0 39 6 54 31
83 25 28 38 35 67 35 19 0 44 -7 54 -17 20 -18 24 -63 6 -81 -17 -17 -53 -15
-68 3 -18 21 -40 19 -40 -4 0 -27 37 -51 78 -51 79 0 112 101 53 161 -25 24
-38 29 -79 29 -87 0 -142 -66 -142 -170 0 -27 -2 -50 -5 -50 -3 0 -47 21 -98
47 -50 25 -138 63 -195 83 l-103 37 173 76 c209 91 254 105 338 106 48 1 78
-5 116 -23z m-2134 -67 c105 -53 138 -221 57 -293 -28 -25 -38 -28 -81 -24
-94 9 -157 109 -108 171 27 34 72 37 94 5 23 -32 20 -47 -14 -66 -36 -20 -39
-42 -6 -42 70 0 98 98 43 146 -36 30 -94 32 -130 4 -32 -26 -51 -81 -42 -126
9 -50 68 -111 122 -127 l44 -13 -63 -51 c-35 -28 -104 -93 -154 -145 l-92 -93
-6 80 c-10 134 -6 327 8 386 41 178 186 260 328 188z m2521 -229 c60 -58 118
-117 128 -132 l19 -26 -48 16 c-39 14 -86 16 -265 15 l-218 -2 48 33 c27 18
62 55 78 81 27 44 30 57 30 131 l-1 82 61 -47 c33 -25 109 -93 168 -151z
m-1168 130 c539 -113 971 -449 1205 -935 127 -263 178 -515 167 -814 -13 -340
-120 -655 -315 -931 -86 -122 -270 -306 -392 -392 -447 -316 -1019 -402 -1537
-233 -588 193 -1010 671 -1144 1295 -19 90 -23 137 -23 320 -1 186 2 230 22
328 150 743 719 1277 1472 1382 113 16 431 4 545 -20z m-1717 -57 c-9 -28 -13
-100 -13 -265 l0 -227 -22 43 c-47 93 -143 144 -248 133 -65 -7 -66 -11 22 95
66 79 263 271 271 264 2 -3 -2 -22 -10 -43z m2980 -257 c57 -21 114 -63 143
-105 20 -29 24 -47 24 -111 0 -64 -4 -82 -24 -112 -68 -99 -218 -125 -287 -51
-31 34 -33 104 -4 151 23 38 81 66 117 57 58 -14 83 -80 41 -109 -32 -23 -47
-20 -66 14 -9 17 -24 29 -32 27 -23 -5 -13 -49 17 -76 52 -45 143 -1 143 70 0
63 -57 119 -121 119 -61 0 -139 -67 -157 -135 -7 -25 -9 -24 -79 57 -39 46
-103 110 -142 143 -38 33 -70 63 -70 67 -2 22 435 17 497 -6z m-3149 -115 c82
-42 133 -135 115 -208 -17 -70 -112 -105 -184 -68 -64 33 -81 107 -34 144 32
25 42 26 66 4 22 -20 23 -56 3 -73 -17 -14 -20 -40 -4 -40 40 0 76 61 60 103
-25 65 -109 83 -157 35 -37 -36 -43 -110 -15 -155 29 -47 92 -75 155 -71 l52
3 -62 -120 c-33 -66 -72 -150 -85 -187 -13 -38 -26 -68 -30 -68 -10 0 -148
325 -165 390 -37 145 15 274 127 319 41 17 117 12 158 -8z m3413 -153 c81
-141 208 -432 194 -446 -4 -3 -19 6 -34 20 -47 44 -112 76 -308 149 -212 80
-239 92 -178 83 129 -19 273 96 274 219 0 20 4 37 8 37 4 0 24 -28 44 -62z
m-3731 -198 c6 -19 49 -122 96 -228 80 -183 103 -258 55 -180 -63 102 -219
137 -327 73 -25 -14 -45 -25 -45 -23 0 2 9 34 20 72 29 101 65 196 124 320
l51 110 8 -55 c4 -30 12 -70 18 -89z m3588 -124 c94 -36 192 -77 218 -93 101
-59 163 -147 163 -233 0 -178 -218 -274 -342 -150 -44 44 -50 86 -18 137 27
44 64 66 115 67 48 1 79 -20 90 -61 8 -33 -18 -73 -49 -73 -28 0 -43 16 -48
50 -1 14 -11 26 -20 28 -15 3 -18 -4 -18 -37 0 -103 156 -109 176 -7 7 40 -17
98 -50 119 -59 39 -143 28 -202 -28 -20 -20 -38 -34 -39 -33 -2 2 -17 46 -35
98 -17 52 -51 137 -75 188 -24 50 -42 92 -41 92 2 0 81 -29 175 -64z m-3553
-240 c86 -40 127 -115 100 -180 -43 -102 -212 -102 -232 0 -5 24 -1 37 15 53
45 45 97 14 86 -50 -7 -43 7 -53 31 -21 35 45 -11 132 -71 132 -89 0 -132 -97
-80 -177 38 -57 140 -73 215 -34 l42 22 -7 -28 c-4 -15 -10 -111 -14 -211 l-6
-184 -139 134 c-152 145 -208 220 -227 302 -30 135 66 265 196 266 22 0 63
-11 91 -24z m3980 -308 c14 -132 17 -316 6 -386 l-7 -42 -29 55 c-31 60 -94
129 -266 288 -107 100 -112 106 -70 88 71 -31 120 -35 184 -17 63 19 113 57
141 110 11 19 21 33 24 31 2 -3 10 -60 17 -127z m-4241 -82 c21 -32 92 -108
157 -169 65 -61 117 -112 115 -113 -1 -1 -23 3 -49 8 -81 19 -149 -3 -216 -68
-31 -29 -57 -52 -58 -51 -2 2 -6 63 -10 137 -7 137 2 339 15 323 4 -4 24 -34
46 -67z m4000 -114 c187 -182 210 -220 210 -339 0 -76 -2 -84 -31 -120 -82
-102 -193 -120 -292 -46 -97 73 -94 181 5 225 54 24 104 18 139 -17 53 -53 12
-145 -53 -116 -24 11 -25 15 -19 56 4 34 2 45 -8 45 -30 0 -46 -44 -33 -92 10
-36 59 -62 103 -54 89 17 102 155 19 206 -50 31 -105 35 -156 13 l-44 -20 0
204 c0 111 2 203 5 203 3 0 73 -67 155 -148z m-3770 -203 c24 -6 60 -25 80
-43 84 -72 35 -197 -83 -213 -73 -10 -130 69 -85 119 19 21 56 24 71 6 6 -7
12 -26 14 -43 5 -45 32 -39 36 7 7 81 -89 119 -149 59 -49 -50 -36 -124 30
-168 61 -41 161 -19 213 47 l25 32 8 -38 c11 -60 63 -217 96 -291 16 -36 28
-69 27 -74 -4 -8 -314 125 -379 163 -55 32 -125 107 -145 153 -21 50 -18 131
7 182 22 46 61 79 118 99 45 16 61 17 116 3z m3711 -375 c36 -10 73 -14 101
-10 47 6 112 36 132 60 28 33 29 13 4 -76 -50 -184 -158 -442 -174 -417 -5 8
-9 26 -9 41 0 38 -45 155 -129 337 -39 84 -71 157 -71 162 0 5 20 -11 44 -36
33 -32 60 -48 102 -61z m-92 -126 c95 -211 108 -250 109 -338 1 -66 -3 -83
-29 -129 -39 -73 -88 -104 -168 -109 -76 -4 -137 24 -180 86 -33 46 -46 125
-26 161 16 31 69 61 108 61 107 0 174 -115 96 -166 -53 -35 -107 26 -63 72 18
19 20 27 11 36 -28 28 -80 -39 -68 -85 21 -86 130 -100 177 -23 25 41 24 86
-3 126 -40 58 -72 75 -144 75 -35 0 -64 1 -64 2 0 1 27 56 60 123 32 67 69
152 82 191 12 38 25 69 28 69 3 0 36 -68 74 -152z m-3689 4 c33 -16 132 -60
220 -97 88 -38 166 -73 172 -79 9 -8 -9 -11 -70 -11 -76 0 -88 -3 -133 -30
-53 -33 -114 -113 -114 -151 0 -56 -24 -28 -84 98 -58 120 -136 326 -136 357
0 7 19 -3 43 -22 23 -19 69 -48 102 -65z m364 -228 c18 -4 45 -20 62 -36 69
-69 9 -208 -90 -208 -51 0 -81 23 -81 64 0 62 58 79 88 26 20 -36 42 -39 42
-6 0 41 -36 76 -79 76 -101 0 -130 -139 -39 -186 90 -47 204 17 227 129 6 27
8 25 61 -45 30 -40 94 -112 143 -160 48 -48 87 -90 87 -93 0 -10 -377 -5 -435
6 -156 29 -260 142 -241 262 20 122 131 196 255 171z m3005 -262 c23 -44 86
-100 132 -118 30 -11 63 -15 109 -12 36 2 65 3 65 1 0 -1 -33 -42 -74 -90 -77
-93 -274 -288 -282 -281 -2 3 1 29 7 59 8 38 10 125 6 290 -7 224 -1 294 15
214 4 -19 14 -48 22 -63z m-75 -257 c1 -224 -20 -286 -123 -359 -55 -40 -70
-46 -114 -46 -62 0 -98 13 -135 48 -51 48 -70 97 -65 170 4 58 8 68 36 93 98
88 271 -43 191 -145 -27 -35 -72 -35 -94 -2 -19 29 -8 61 25 71 21 7 27 30 10
40 -17 10 -67 -23 -79 -53 -10 -24 -10 -36 2 -65 18 -41 42 -57 89 -57 89 0
136 103 86 192 -26 46 -71 76 -128 86 l-42 7 105 88 c58 48 132 117 164 153
l58 66 6 -69 c4 -37 7 -135 8 -218z m-2699 36 l265 -6 -60 -17 c-123 -34 -208
-169 -177 -281 12 -44 12 -44 -80 31 -71 57 -271 260 -288 292 -10 19 -9 19
32 3 34 -13 97 -18 308 -22z m336 -82 c54 -51 53 -137 -3 -193 -61 -61 -162
-8 -123 65 13 23 52 25 70 4 14 -17 36 -20 44 -6 3 5 -4 20 -15 35 -16 20 -29
26 -60 26 -100 0 -123 -132 -32 -179 12 -6 40 -11 62 -11 79 0 150 98 136 187
l-6 43 97 -51 c53 -29 139 -69 192 -90 l95 -37 -30 -15 c-81 -43 -312 -140
-362 -153 -81 -21 -147 -18 -206 10 -168 78 -176 287 -15 369 65 33 118 32
156 -4z m1894 -75 c-18 -45 -12 -140 11 -189 27 -57 90 -112 148 -129 l44 -13
-59 -32 c-117 -63 -378 -171 -416 -171 -6 0 6 18 26 40 46 51 78 116 161 325
62 155 81 195 91 195 2 0 -1 -12 -6 -26z m-89 -71 c-121 -304 -145 -354 -202
-413 -92 -95 -203 -112 -300 -47 -80 53 -107 179 -59 265 29 51 61 74 105 74
89 0 157 -94 125 -172 -15 -36 -37 -50 -79 -50 -62 0 -70 93 -9 95 37 2 51 14
37 31 -32 39 -119 -15 -119 -75 0 -47 46 -93 92 -93 47 0 94 28 113 68 28 60
13 127 -42 185 l-34 36 113 36 c62 20 145 52 183 71 95 47 99 46 76 -11z
m-1296 -101 c-50 -31 -94 -89 -111 -148 -19 -67 -13 -122 21 -181 16 -30 20
-43 11 -43 -39 0 -276 90 -389 147 l-72 36 67 13 c66 12 146 44 363 142 111
51 165 67 110 34z m134 -30 c39 -21 71 -73 71 -115 0 -97 -100 -152 -146 -81
-15 22 -15 26 0 49 18 27 36 31 67 15 27 -15 40 17 14 36 -28 21 -71 17 -102
-10 -22 -19 -28 -32 -28 -65 0 -118 159 -133 218 -20 25 46 19 128 -13 171
l-23 31 44 -8 c24 -4 124 -10 222 -14 l178 -6 -153 -151 c-180 -178 -242 -217
-343 -218 -112 0 -200 68 -219 170 -11 55 16 133 61 176 61 59 98 69 152 40z
m563 -49 c-57 -102 -22 -250 74 -311 24 -15 43 -30 44 -33 1 -18 -365 -35
-479 -22 l-74 8 59 38 c32 22 131 112 219 202 88 90 165 164 172 164 7 1 0
-19 -15 -46z"/>
<path d="M5805 5770 c-111 -23 -182 -64 -319 -180 -190 -160 -259 -195 -370
-188 -84 5 -181 53 -330 163 -206 152 -310 195 -467 195 -173 0 -311 -57 -442
-179 -137 -129 -217 -277 -217 -403 0 -44 4 -58 14 -58 8 0 55 47 105 104 166
190 265 258 423 290 195 40 319 1 558 -174 145 -107 232 -153 319 -171 55 -12
71 -11 129 4 85 23 147 60 277 169 207 174 278 204 462 195 71 -3 127 -12 163
-24 80 -29 263 -122 355 -182 91 -58 115 -63 115 -26 0 82 -177 293 -313 374
-96 57 -216 93 -326 97 -53 2 -114 -1 -136 -6z m300 -65 c92 -31 160 -68 227
-124 69 -57 197 -215 185 -228 -3 -3 -25 8 -49 24 -109 74 -293 161 -398 188
-36 9 -102 16 -159 16 -169 0 -251 -38 -449 -205 -127 -107 -170 -134 -247
-158 -118 -37 -225 1 -435 157 -260 193 -426 233 -657 160 -129 -41 -232 -118
-377 -285 l-48 -55 7 39 c18 103 114 250 222 340 116 97 248 146 393 146 146
0 247 -43 440 -186 63 -48 153 -105 200 -128 72 -35 96 -42 160 -44 125 -6
196 31 413 214 155 130 247 166 402 160 64 -3 115 -12 170 -31z"/>
<path d="M5776 5104 c-84 -20 -164 -68 -286 -170 -201 -168 -262 -199 -375
-192 -84 5 -174 51 -340 172 -218 160 -301 191 -484 184 -99 -4 -127 -9 -192
-35 -231 -91 -423 -320 -437 -519 -6 -100 7 -104 77 -23 122 143 235 245 312
283 191 94 398 84 572 -27 30 -19 97 -67 149 -105 222 -165 342 -199 491 -141
64 25 107 56 247 173 138 116 224 162 330 176 127 17 228 -3 395 -80 81 -37
124 -61 259 -144 72 -43 86 -45 86 -8 0 47 -70 152 -170 253 -79 80 -109 103
-180 137 -156 77 -315 100 -454 66z m265 -39 c144 -31 293 -122 385 -237 67
-84 97 -128 91 -134 -3 -3 -37 16 -77 42 -217 140 -441 209 -599 185 -139 -22
-200 -54 -378 -203 -150 -126 -241 -173 -327 -172 -106 2 -169 34 -396 199
-179 130 -299 173 -461 162 -200 -13 -344 -99 -533 -317 l-48 -55 7 40 c17
102 114 251 224 342 119 98 242 143 391 143 148 0 244 -41 440 -185 63 -47
153 -104 199 -128 73 -36 95 -42 160 -45 125 -6 208 37 415 216 169 146 313
188 507 147z"/>
<path d="M2583 6655 c-27 -19 -38 -68 -24 -104 13 -31 58 -61 91 -61 28 0 80
52 80 80 0 75 -89 126 -147 85z m93 -50 c29 -44 -9 -90 -55 -66 -26 14 -35 45
-21 71 15 28 56 26 76 -5z"/>
<path d="M7701 6594 c-47 -60 -10 -144 64 -144 74 0 111 84 64 144 -16 21 -29
26 -64 26 -35 0 -48 -5 -64 -26z m97 -26 c7 -7 12 -21 12 -33 0 -12 -5 -26
-12 -33 -7 -7 -21 -12 -33 -12 -12 0 -26 5 -33 12 -7 7 -12 21 -12 33 0 12 5
26 12 33 7 7 21 12 33 12 12 0 26 -5 33 -12z"/>
<path d="M2110 8391 c-86 -46 -121 -145 -82 -233 61 -139 257 -144 328 -7 17
33 18 106 3 146 -35 95 -160 142 -249 94z m146 -37 c99 -47 98 -201 -3 -249
-55 -26 -117 -16 -160 27 -55 55 -57 127 -6 188 43 52 105 64 169 34z"/>
<path d="M1778 7679 c-21 -12 -24 -49 -6 -67 18 -18 56 -14 68 7 14 27 13 37
-6 55 -18 18 -32 20 -56 5z"/>
<path d="M7956 8187 c-12 -9 -17 -23 -14 -42 2 -25 8 -30 35 -33 43 -4 62 28
38 64 -17 27 -33 30 -59 11z"/>
<path d="M8444 7861 c-61 -28 -97 -80 -102 -150 -7 -96 41 -165 133 -190 68
-18 131 4 183 63 74 85 44 224 -60 275 -54 26 -100 26 -154 2z m152 -46 c59
-39 79 -115 47 -182 -45 -96 -199 -98 -248 -4 -65 126 83 263 201 186z"/>
<path d="M1124 6961 c-64 -29 -98 -81 -102 -155 -2 -50 2 -68 20 -101 31 -52
94 -87 157 -87 134 0 222 142 162 260 -23 46 -46 67 -94 87 -48 20 -93 19
-143 -4z m152 -46 c59 -39 79 -115 47 -182 -45 -96 -199 -98 -248 -4 -65 126
83 263 201 186z"/>
<path d="M1048 6139 c-36 -21 -16 -79 27 -79 44 0 63 60 26 80 -24 12 -31 12
-53 -1z"/>
<path d="M8937 6722 c-22 -24 -21 -35 3 -57 23 -20 64 -14 74 11 8 22 -20 64
-43 64 -10 0 -25 -8 -34 -18z"/>
<path d="M9192 6219 c-58 -29 -92 -88 -92 -158 0 -133 125 -217 247 -166 50
21 72 42 94 90 36 78 13 168 -56 221 -51 38 -132 44 -193 13z m159 -42 c148
-99 23 -317 -138 -240 -93 44 -99 189 -10 243 44 27 105 26 148 -3z"/>
<path d="M775 5234 c-135 -70 -137 -258 -3 -323 173 -83 338 115 226 272 -43
60 -156 86 -223 51z m152 -44 c90 -55 83 -199 -11 -244 -63 -30 -136 -12 -175
42 -45 64 -36 138 25 192 28 24 44 30 82 30 29 0 59 -8 79 -20z"/>
<path d="M982 4418 c-15 -15 -15 -51 0 -66 28 -28 78 -7 78 33 0 27 -18 45
-45 45 -12 0 -26 -5 -33 -12z"/>
<path d="M9247 5002 c-34 -37 -11 -76 40 -70 23 2 29 9 31 33 6 48 -40 71 -71
37z"/>
<path d="M9225 4431 c-45 -20 -92 -70 -101 -107 -4 -14 -4 -49 -2 -79 8 -96
76 -155 178 -155 59 0 97 17 133 59 77 92 50 229 -55 280 -54 26 -100 26 -153
2z m150 -45 c61 -40 81 -120 45 -183 -28 -50 -66 -73 -122 -73 -83 0 -138 57
-138 144 0 103 127 169 215 112z"/>
<path d="M8792 3248 c-32 -32 4 -87 48 -73 25 8 37 50 20 70 -15 18 -51 20
-68 3z"/>
<path d="M8496 2749 c-89 -21 -141 -93 -134 -190 5 -70 41 -122 102 -150 54
-24 100 -24 154 2 104 51 134 190 60 275 -51 58 -111 78 -182 63z m119 -59
c106 -65 73 -233 -50 -256 -111 -20 -203 104 -151 205 35 67 134 93 201 51z"/>
<path d="M1162 3479 c-122 -61 -127 -244 -9 -314 132 -77 295 30 273 180 -19
124 -149 190 -264 134z m159 -42 c90 -60 88 -181 -4 -237 -91 -56 -210 12
-210 120 0 111 123 178 214 117z"/>
<path d="M1647 2789 c-28 -39 5 -79 52 -64 27 8 34 34 16 61 -19 30 -49 31
-68 3z"/>
<path d="M7726 1924 c-22 -22 -20 -50 6 -68 19 -13 25 -14 43 -2 27 18 31 43
9 67 -21 23 -37 24 -58 3z"/>
<path d="M7185 1583 c-64 -17 -125 -101 -125 -172 0 -144 158 -231 278 -154
143 93 87 320 -80 329 -29 2 -62 0 -73 -3z m152 -76 c29 -28 37 -45 40 -84 10
-95 -54 -160 -149 -151 -70 7 -119 55 -125 125 -11 130 142 203 234 110z"/>
<path d="M2278 2051 c-145 -47 -174 -244 -47 -328 57 -38 141 -37 199 1 103
68 105 233 3 300 -42 28 -113 40 -155 27z m129 -56 c116 -76 62 -259 -77 -259
-130 0 -189 159 -92 247 42 39 120 44 169 12z"/>
<path d="M2926 1584 c-30 -30 -13 -74 29 -74 27 0 45 18 45 45 0 42 -44 59
-74 29z"/>
<path d="M6235 1140 c-15 -17 -16 -24 -7 -45 20 -43 82 -28 82 20 0 45 -44 59
-75 25z"/>
<path d="M5515 1041 c-92 -57 -119 -149 -72 -241 49 -98 168 -128 257 -67 55
37 74 70 77 140 5 77 -22 130 -82 164 -51 29 -137 31 -180 4z m162 -41 c42
-25 63 -68 63 -126 0 -40 -5 -51 -38 -85 -43 -42 -76 -54 -126 -45 -92 17
-143 122 -98 204 37 69 131 94 199 52z"/>
<path d="M3784 1191 c-136 -83 -117 -282 32 -331 154 -51 292 120 212 262 -46
80 -169 115 -244 69z m163 -41 c46 -28 66 -72 60 -134 -4 -41 -10 -55 -40 -83
-42 -38 -73 -48 -122 -39 -73 14 -126 93 -111 168 18 92 131 139 213 88z"/>
<path d="M4542 1018 c-28 -28 -7 -78 33 -78 27 0 45 18 45 45 0 27 -18 45 -45
45 -12 0 -26 -5 -33 -12z"/>
</g>
</svg>
