<?xml version="1.0" standalone="no"?>
<!DOCTYPE svg PUBLIC "-//W3C//DTD SVG 20010904//EN"
 "http://www.w3.org/TR/2001/REC-SVG-20010904/DTD/svg10.dtd">
<svg version="1.0" xmlns="http://www.w3.org/2000/svg"
 width="850.000000pt" height="850.000000pt" viewBox="0 0 850.000000 850.000000"
 preserveAspectRatio="xMidYMid meet">
<metadata>
Created by potrace 1.14, written by Peter Selinger 2001-2017
</metadata>
<g transform="translate(0.000000,850.000000) scale(0.100000,-0.100000)"
fill="#000000" stroke="none">
<path d="M6488 7515 c-229 -43 -459 -186 -584 -362 -56 -77 -102 -176 -160
-345 -57 -162 -82 -215 -142 -293 -57 -73 -71 -86 -143 -124 -99 -54 -265 -77
-359 -51 -62 17 -127 66 -151 111 -31 62 -24 162 14 213 16 20 41 43 57 51 33
17 86 20 95 5 3 -5 -4 -10 -15 -10 -35 0 -90 -62 -90 -102 0 -50 34 -96 86
-120 57 -25 102 -18 145 20 58 52 49 173 -19 253 -20 23 -51 48 -69 55 -45 19
-120 17 -168 -5 -48 -22 -121 -98 -142 -149 -24 -57 -22 -177 4 -233 77 -171
276 -245 508 -190 44 11 81 18 83 17 1 -2 -18 -46 -42 -98 -24 -53 -61 -140
-81 -194 -20 -55 -73 -196 -117 -314 -169 -453 -331 -705 -568 -882 -143 -107
-278 -164 -487 -207 -129 -27 -217 -26 -395 1 -204 31 -417 31 -557 -1 -238
-52 -415 -136 -785 -370 -401 -254 -517 -318 -664 -367 -232 -76 -463 -15
-666 175 -98 93 -136 147 -136 193 0 54 15 73 209 273 179 183 226 250 263
369 19 62 20 75 8 138 -23 133 -119 221 -240 221 -76 0 -122 -28 -146 -88 -21
-56 -13 -103 24 -138 52 -49 115 -48 164 5 15 16 28 26 28 21 0 -30 -58 -86
-160 -154 -123 -83 -249 -192 -277 -240 -10 -16 -20 -29 -24 -29 -3 0 -9 30
-12 68 -9 100 -43 219 -79 275 -38 60 -128 129 -201 153 -81 29 -180 25 -245
-9 -117 -61 -192 -168 -192 -275 0 -77 45 -153 112 -188 69 -36 173 3 202 76
32 80 14 139 -50 166 -43 18 -72 18 -108 -1 -41 -22 -42 -13 -5 29 62 72 110
79 194 31 112 -65 156 -173 170 -425 11 -194 66 -347 182 -510 86 -121 133
-171 223 -239 262 -198 583 -241 928 -126 217 72 344 147 688 401 255 190 324
238 324 228 0 -3 -13 -23 -29 -43 -73 -93 -151 -255 -271 -561 -127 -324 -210
-477 -347 -642 -208 -250 -533 -458 -762 -488 -41 -6 -80 -15 -88 -22 -24 -19
-61 -101 -90 -195 -24 -82 -26 -101 -27 -283 -1 -169 2 -210 22 -304 62 -285
167 -492 326 -643 122 -116 257 -173 411 -173 148 0 241 47 299 150 28 50 31
63 31 145 0 79 -4 97 -28 147 -36 74 -112 157 -207 226 -92 67 -157 128 -176
165 -8 15 -15 51 -15 81 -2 116 94 221 286 312 131 62 229 94 625 205 352 99
488 147 729 260 57 27 106 47 108 45 2 -2 -13 -30 -33 -62 -53 -82 -138 -274
-171 -385 -24 -81 -28 -111 -28 -219 0 -112 2 -130 24 -170 78 -149 196 -210
339 -177 57 13 62 13 58 -2 -22 -76 -28 -118 -28 -196 0 -148 46 -262 144
-350 126 -114 288 -142 469 -80 83 28 144 66 255 160 165 141 225 165 299 123
27 -16 48 -38 64 -71 21 -43 22 -50 10 -80 l-13 -32 -8 44 c-8 50 -30 78 -73
96 -41 18 -79 8 -115 -28 -54 -55 -52 -136 5 -186 88 -77 266 -36 332 76 24
40 28 59 28 118 -1 115 -58 210 -159 263 -42 22 -64 27 -127 27 -67 0 -83 -4
-150 -37 -40 -20 -114 -71 -164 -112 -49 -42 -122 -92 -162 -112 -68 -35 -77
-36 -146 -32 -237 15 -309 208 -217 578 18 69 42 150 55 180 13 30 41 100 61
155 80 219 132 291 297 411 173 128 233 199 262 312 18 68 14 105 -15 162 -23
44 -93 112 -144 139 l-40 20 40 17 c70 29 221 63 336 75 152 16 388 6 496 -20
340 -85 552 -330 552 -638 0 -92 -1 -99 -41 -177 -23 -44 -69 -124 -102 -176
-217 -343 -275 -458 -308 -615 -23 -110 -24 -182 -4 -283 57 -286 305 -494
588 -493 173 0 317 81 572 321 72 68 164 150 205 183 131 105 264 154 395 145
147 -10 257 -123 272 -280 5 -56 2 -73 -16 -112 -19 -37 -71 -86 -94 -86 -3 0
0 17 5 38 32 127 -109 240 -212 170 -120 -81 -74 -255 79 -298 83 -23 192 -3
257 46 18 13 44 47 58 76 50 101 28 263 -54 385 -64 96 -156 151 -289 173
-135 22 -278 -11 -436 -101 -170 -97 -445 -229 -445 -215 0 2 20 35 45 73 71
106 220 415 265 548 110 323 160 634 159 985 0 107 -4 236 -8 285 -5 50 -7 91
-6 93 2 2 18 -25 36 -59 106 -197 289 -280 488 -220 38 11 91 36 117 54 88 61
126 174 90 262 -8 19 -12 35 -8 36 126 10 193 33 263 86 91 69 158 196 144
273 -11 56 -43 108 -85 136 l-40 27 39 34 c59 50 95 130 94 209 -1 75 -20 115
-81 161 -87 66 -217 65 -282 -2 -27 -28 -34 -44 -38 -89 -5 -68 11 -118 49
-150 81 -69 204 -21 226 87 7 33 19 35 25 3 13 -66 -62 -165 -142 -186 -138
-37 -308 121 -340 318 -11 63 -13 195 -4 228 5 20 9 17 49 -25 83 -89 195
-120 309 -87 137 40 237 229 192 364 -18 53 -72 117 -113 133 -37 14 -90 11
-124 -7 -32 -16 -68 -81 -69 -122 0 -72 64 -135 133 -130 43 4 48 -4 12 -20
-42 -19 -72 -14 -109 18 -83 73 -101 192 -52 345 107 338 104 469 -22 727 -31
65 -56 118 -54 118 2 0 22 -16 45 -35 80 -69 223 -102 311 -72 104 36 160 113
160 223 0 40 -6 70 -17 87 -16 24 -15 25 29 53 25 16 58 49 74 74 33 53 110
295 110 348 0 51 -49 151 -94 190 -58 51 -108 66 -295 87 -95 11 -157 54 -193
133 -14 32 -17 54 -13 86 l7 43 -84 5 c-148 9 -250 65 -463 253 -232 205 -351
264 -545 271 -65 2 -134 -2 -182 -11z m303 -29 c120 -26 229 -94 410 -257 201
-180 350 -259 486 -259 l40 0 0 -42 c0 -55 32 -117 83 -160 47 -41 84 -53 205
-68 111 -14 131 -18 175 -41 69 -34 117 -106 127 -188 4 -38 -3 -73 -35 -177
-51 -161 -83 -213 -148 -244 -27 -13 -51 -24 -52 -26 -2 -1 6 -16 19 -33 55
-75 23 -212 -63 -268 -38 -25 -52 -28 -123 -28 -69 0 -89 4 -147 32 -78 37
-158 113 -243 231 -32 45 -60 80 -62 78 -2 -2 32 -68 77 -147 177 -315 220
-429 221 -598 0 -82 -5 -114 -37 -221 -70 -239 -79 -306 -49 -391 29 -81 99
-149 154 -149 42 0 110 47 119 83 5 18 8 33 6 35 -1 2 -16 -4 -33 -12 -75 -39
-150 -4 -158 74 -6 61 22 105 76 121 38 11 44 10 88 -17 112 -69 122 -213 25
-349 -112 -158 -367 -113 -453 80 l-23 50 -8 -35 c-14 -64 -14 -301 1 -360 56
-221 243 -359 399 -294 72 30 132 110 132 177 0 36 -32 91 -65 113 -19 13 -20
11 -17 -40 4 -64 -15 -109 -58 -131 -48 -25 -88 -19 -125 18 -43 43 -53 93
-31 152 31 80 133 107 232 61 96 -45 130 -124 99 -231 -12 -43 -28 -69 -65
-106 -26 -26 -60 -51 -74 -55 -34 -8 -33 -21 3 -29 87 -19 150 -111 137 -199
-9 -55 -69 -151 -119 -189 -76 -57 -145 -81 -234 -82 -46 0 -83 -1 -83 -1 0
-1 11 -22 25 -45 38 -67 35 -142 -7 -205 -40 -60 -127 -107 -229 -124 -115
-20 -232 22 -315 112 -81 88 -141 216 -178 383 l-16 70 5 -70 c3 -38 13 -146
21 -240 65 -691 -54 -1286 -361 -1810 -32 -55 -78 -126 -102 -158 -25 -33 -43
-60 -41 -62 6 -6 180 65 282 115 56 27 155 79 221 116 145 81 235 114 336 121
166 12 309 -49 387 -166 62 -93 91 -212 72 -296 -25 -113 -92 -165 -220 -172
-64 -4 -82 -1 -120 19 -79 41 -111 119 -75 188 21 40 53 60 97 60 49 0 105
-47 114 -97 7 -37 -11 -113 -26 -113 -6 0 -10 -4 -10 -10 0 -17 59 -11 100 10
25 13 49 37 67 67 24 41 28 59 28 124 0 65 -5 85 -33 142 -74 150 -217 212
-399 174 -142 -31 -246 -99 -473 -313 -225 -212 -339 -287 -487 -320 -67 -15
-82 -15 -165 -1 -167 28 -297 114 -390 255 -138 213 -128 485 29 772 19 36 78
132 130 213 52 82 120 194 151 250 56 100 57 103 60 193 3 68 -1 113 -16 172
-77 303 -313 490 -687 542 -224 31 -578 -13 -760 -95 l-60 -27 70 -32 c126
-59 196 -160 179 -260 -17 -104 -81 -184 -248 -310 -209 -158 -212 -162 -375
-585 -36 -94 -74 -240 -92 -351 -37 -239 45 -403 220 -440 126 -27 210 4 373
137 178 145 292 182 407 133 137 -60 204 -244 128 -359 -51 -76 -181 -114
-262 -76 -64 31 -74 108 -21 161 41 41 64 43 106 7 31 -26 32 -29 27 -81 -5
-45 -3 -53 9 -48 9 3 20 6 24 6 5 0 18 10 30 22 45 49 9 162 -67 209 -86 53
-161 25 -339 -128 -182 -155 -357 -213 -519 -169 -71 18 -105 38 -169 96 -132
121 -170 336 -95 534 10 28 17 51 15 53 -1 2 -25 -7 -52 -19 -75 -34 -183 -32
-246 4 -118 70 -171 202 -148 371 22 158 126 411 239 582 25 39 49 75 53 81 4
6 -42 -13 -101 -42 -167 -81 -432 -190 -555 -229 -61 -19 -212 -61 -336 -95
-371 -100 -571 -175 -693 -259 -114 -78 -177 -173 -177 -266 1 -94 46 -155
201 -268 91 -66 169 -149 200 -214 34 -68 34 -208 1 -270 -70 -132 -267 -177
-462 -106 -126 46 -273 181 -364 331 -78 131 -144 324 -177 517 -19 117 -15
336 9 440 21 94 61 197 89 227 10 11 30 18 52 18 149 0 467 166 658 344 200
187 334 391 456 696 25 63 69 174 97 245 102 255 191 409 316 545 l59 64 -50
-28 c-105 -61 -228 -145 -447 -307 -270 -201 -329 -239 -473 -312 -363 -181
-713 -195 -994 -39 -133 73 -210 147 -349 332 -57 75 -125 228 -142 321 -5 26
-14 108 -20 181 -12 157 -24 216 -56 280 -33 66 -74 109 -133 142 -87 47 -159
34 -219 -40 -34 -41 -42 -71 -32 -117 6 -29 7 -30 14 -10 19 59 108 83 160 42
48 -38 28 -142 -34 -174 -64 -33 -136 -13 -179 50 -78 115 -15 274 141 357 58
31 181 31 248 1 104 -48 172 -120 203 -218 26 -79 47 -220 47 -311 0 -87 13
-112 23 -46 18 107 110 213 294 337 63 43 130 92 148 109 43 41 59 97 41 141
-21 49 -36 53 -36 10 0 -48 -44 -95 -90 -95 -44 0 -90 47 -90 92 0 104 113
148 230 88 100 -51 145 -191 102 -316 -34 -98 -85 -167 -248 -334 -201 -205
-224 -237 -224 -301 0 -43 5 -54 49 -106 144 -172 309 -278 483 -309 106 -20
192 -12 311 26 135 44 271 116 578 310 151 96 330 204 399 242 341 186 611
239 955 188 212 -32 367 -31 510 2 191 45 315 101 451 203 181 135 333 332
449 580 44 94 146 347 163 406 30 102 157 411 213 519 19 36 35 69 37 73 3 5
-19 -3 -47 -17 -127 -65 -313 -74 -429 -21 -120 54 -190 166 -179 285 6 69 26
112 80 167 78 81 175 89 251 22 85 -74 90 -219 8 -250 -65 -25 -152 28 -152
93 0 60 66 99 124 73 16 -7 17 -5 11 16 -11 36 -24 48 -66 60 -74 23 -170 -38
-199 -127 -19 -58 -8 -156 24 -204 86 -131 331 -158 529 -60 75 37 97 56 163
140 65 83 71 94 137 280 70 196 98 259 152 340 120 181 360 330 593 370 77 13
212 11 283 -4z"/>
<path d="M6655 7420 c30 -32 99 -56 220 -79 73 -13 188 -67 238 -111 46 -40
49 -26 5 17 -136 127 -298 202 -437 203 l-55 0 29 -30z m149 -15 c32 -9 66
-20 75 -26 23 -14 -61 -1 -129 21 -70 23 -29 26 54 5z"/>
<path d="M6411 7414 c-45 -13 -95 -31 -109 -38 l-26 -14 45 -9 c47 -10 309 14
309 29 0 13 -86 58 -111 57 -13 0 -62 -11 -108 -25z m139 -13 c0 -4 -28 -12
-62 -15 -35 -4 -74 -10 -88 -13 -14 -3 -22 -2 -18 2 19 20 168 43 168 26z"/>
<path d="M6555 7323 c-11 -2 -53 -14 -93 -25 -70 -20 -72 -22 -83 -60 -6 -22
-9 -41 -7 -43 2 -2 48 12 103 31 93 31 165 72 165 94 0 10 -47 12 -85 3z m13
-38 c-4 -5 -40 -15 -138 -41 -20 -5 -23 -4 -13 6 7 8 43 21 80 31 63 16 84 17
71 4z"/>
<path d="M6686 7314 c-3 -11 -9 -25 -12 -31 -4 -10 11 -13 61 -13 86 0 203
-24 289 -61 77 -32 97 -31 45 1 -100 62 -217 104 -325 116 -44 6 -52 4 -58
-12z"/>
<path d="M6163 7282 c-65 -26 -127 -74 -177 -138 -44 -57 -53 -82 -19 -52 10
8 49 27 87 42 37 15 95 46 128 69 33 23 78 54 101 70 l41 27 -59 -1 c-33 0
-79 -8 -102 -17z m32 -37 c-37 -30 -145 -89 -151 -82 -8 7 66 65 111 86 56 28
77 26 40 -4z"/>
<path d="M6275 7209 c-55 -27 -92 -66 -97 -100 -3 -16 -3 -29 0 -29 8 0 107
83 129 109 40 45 30 51 -32 20z"/>
<path d="M6550 7200 c-91 -24 -255 -103 -336 -163 -107 -79 -325 -299 -311
-313 3 -3 20 4 38 15 19 11 77 34 129 52 86 30 108 33 240 36 120 4 158 1 220
-15 41 -11 77 -18 79 -17 2 2 -6 16 -16 32 -92 131 -26 320 129 374 l53 18
-75 0 c-41 0 -109 -9 -150 -19z m48 -47 c-66 -68 -92 -176 -65 -266 l15 -48
-46 8 c-26 4 -108 8 -182 8 -129 -1 -194 -11 -305 -51 -26 -9 94 114 170 175
109 87 260 165 385 200 61 16 65 12 28 -26z"/>
<path d="M7072 7099 c29 -34 95 -112 146 -173 200 -239 311 -295 532 -267 55
7 100 16 99 20 0 3 -21 20 -47 36 -57 37 -101 97 -117 162 -11 42 -16 48 -41
51 -103 11 -359 104 -474 172 -52 31 -121 60 -142 60 -6 0 14 -28 44 -61z m93
-28 c70 -44 201 -97 335 -136 67 -19 128 -35 136 -35 7 0 17 -12 20 -27 12
-48 45 -106 81 -145 l35 -36 -47 -7 c-137 -21 -259 21 -367 128 -60 59 -254
287 -243 287 2 0 25 -13 50 -29z"/>
<path d="M6750 7109 c-120 -50 -135 -211 -26 -278 46 -29 113 -28 156 2 55 37
75 72 75 132 0 57 -18 91 -67 128 -30 23 -103 31 -138 16z m142 -57 c24 -23
32 -42 35 -79 5 -43 2 -53 -23 -82 -57 -68 -128 -74 -190 -16 -30 29 -34 38
-34 85 0 48 3 56 40 92 38 39 42 40 91 36 40 -4 58 -12 81 -36z"/>
<path d="M6731 7044 c-58 -49 -48 -141 21 -178 86 -46 182 34 156 131 -19 72
-116 98 -177 47z m137 -30 c30 -34 28 -70 -7 -105 -38 -37 -82 -39 -116 -4
-35 34 -33 78 5 117 26 25 36 29 63 24 18 -3 42 -17 55 -32z"/>
<path d="M6026 7066 c-47 -29 -130 -110 -156 -151 -19 -31 -82 -196 -77 -202
2 -1 32 41 68 94 35 54 97 139 136 190 40 51 71 93 70 93 -1 0 -19 -11 -41
-24z"/>
<path d="M6060 7003 c-77 -93 -82 -106 -18 -48 50 45 99 115 80 115 -4 0 -32
-30 -62 -67z"/>
<path d="M7052 7014 c18 -69 -12 -173 -68 -228 -39 -38 -98 -67 -153 -75 l-46
-6 61 -40 c34 -22 104 -78 156 -123 262 -231 545 -383 829 -446 68 -15 147
-26 190 -26 125 0 150 27 215 233 46 144 48 179 9 243 -23 37 -44 56 -84 77
-68 34 -145 36 -311 7 -137 -24 -266 -25 -334 -5 -112 34 -190 99 -353 295
-58 69 -109 126 -113 128 -5 2 -4 -14 2 -34z m120 -149 c221 -267 355 -319
668 -265 157 28 256 28 309 1 58 -30 96 -91 95 -150 -2 -53 -74 -273 -102
-310 -10 -15 -38 -32 -63 -40 -38 -13 -56 -12 -144 2 -318 51 -631 208 -914
459 -51 46 -106 91 -122 101 -34 22 -31 32 11 41 45 8 142 109 158 162 7 23
12 54 12 68 0 15 4 26 8 24 5 -1 43 -43 84 -93z"/>
<path d="M6280 6780 c0 -5 4 -10 9 -10 19 0 72 -54 92 -92 l20 -39 22 28 c28
37 44 49 90 70 47 21 36 28 -66 42 -98 14 -167 14 -167 1z m163 -28 c16 -7 16
-10 -8 -30 -14 -12 -27 -22 -28 -22 -2 0 -13 14 -25 30 l-23 30 33 -1 c18 0
41 -4 51 -7z"/>
<path d="M6092 6739 c-54 -27 -117 -98 -129 -147 -10 -38 0 -96 19 -119 12
-15 18 -16 36 -5 10 7 9 15 -4 41 -20 41 -14 112 13 150 24 32 97 71 136 71
67 0 148 -73 163 -148 9 -45 34 -42 34 3 0 43 -18 81 -57 116 -66 62 -137 74
-211 38z"/>
<path d="M6524 6691 c-48 -22 -80 -62 -89 -114 -6 -29 -4 -37 8 -37 9 0 17 14
21 39 3 22 17 49 32 65 53 52 180 26 244 -52 27 -33 30 -34 30 -14 0 36 -27
79 -67 107 -46 31 -119 33 -179 6z"/>
<path d="M5895 6660 c-50 -29 -125 -96 -125 -111 0 -5 21 -9 48 -9 26 0 56 -3
68 -6 19 -5 22 0 27 40 4 26 14 60 23 77 8 17 14 32 12 34 -2 2 -26 -9 -53
-25z m-5 -63 c0 -31 -4 -34 -41 -29 l-31 5 28 23 c37 30 44 30 44 1z"/>
<path d="M6086 6650 c-42 -38 -53 -77 -31 -119 8 -17 20 -31 25 -31 13 0 13 7
0 31 -22 41 42 109 103 109 31 0 57 -29 57 -63 0 -20 5 -27 20 -27 24 0 26 20
5 60 -39 75 -119 93 -179 40z"/>
<path d="M6550 6623 c-25 -9 -40 -35 -39 -67 1 -24 3 -26 6 -8 2 12 15 30 29
38 20 14 29 14 53 5 39 -17 55 -51 47 -99 -4 -29 -2 -41 8 -45 20 -8 66 45 66
75 0 33 -55 83 -107 97 -41 12 -41 12 -63 4z"/>
<path d="M6814 6587 c0 -23 -3 -56 -7 -72 l-8 -31 68 1 c37 0 79 -4 93 -9 18
-6 6 11 -45 64 -95 97 -103 101 -101 47z m62 -42 l27 -25 -32 0 c-26 0 -31 4
-31 25 0 14 2 25 4 25 3 0 17 -11 32 -25z"/>
<path d="M6137 6572 c-15 -16 -16 -21 -3 -31 8 -7 25 -9 41 -5 19 5 25 12 23
28 -4 28 -39 32 -61 8z"/>
<path d="M6560 6525 c0 -29 25 -44 43 -26 14 14 -2 44 -27 49 -11 3 -16 -4
-16 -23z"/>
<path d="M6395 6496 c20 -31 16 -30 50 -12 30 16 25 21 -29 31 l-38 8 17 -27z"/>
<path d="M6156 6497 l-29 -13 28 -12 c24 -11 29 -10 41 5 26 35 12 42 -40 20z"/>
<path d="M6245 6485 c-37 -36 -34 -86 6 -119 17 -14 37 -26 44 -26 50 0 102
60 89 103 -20 67 -93 89 -139 42z m100 -25 c23 -25 13 -67 -20 -82 -30 -13
-49 -6 -71 26 -15 24 -15 28 0 51 20 31 65 34 91 5z"/>
<path d="M5740 6484 c-78 -34 -110 -86 -110 -179 0 -90 35 -156 102 -191 23
-12 27 -12 33 4 3 9 2 18 -4 20 -64 21 -117 100 -107 156 14 74 90 146 153
146 34 0 93 -27 93 -42 0 -15 28 -8 34 8 8 22 -20 60 -59 78 -41 20 -89 20
-135 0z"/>
<path d="M6445 6445 c-17 -16 -25 -35 -25 -58 0 -111 160 -113 163 -3 2 75
-86 114 -138 61z m102 -31 c15 -24 15 -29 2 -53 -11 -20 -22 -26 -49 -26 -27
0 -38 6 -49 26 -13 24 -13 29 2 53 12 18 26 26 47 26 21 0 35 -8 47 -26z"/>
<path d="M6057 6430 c-50 -40 -39 -114 22 -139 56 -24 111 16 111 80 0 68 -78
102 -133 59z m99 -35 c15 -22 15 -29 4 -51 -24 -44 -90 -41 -105 6 -19 59 67
96 101 45z"/>
<path d="M6611 6413 c5 -15 7 -38 4 -50 -5 -22 -3 -23 22 -16 16 4 38 7 51 6
12 0 22 2 22 6 -1 7 -95 81 -104 81 -3 0 -1 -12 5 -27z"/>
<path d="M6805 6428 c-30 -16 -66 -56 -56 -62 4 -3 17 4 27 16 11 11 33 29 49
39 32 20 14 26 -20 7z"/>
<path d="M6962 6407 c34 -29 48 -58 48 -101 0 -47 -50 -100 -110 -116 -37 -10
-41 -13 -26 -22 36 -20 124 22 157 76 10 17 19 47 19 68 0 31 -7 42 -46 77
-26 23 -52 41 -58 41 -6 0 1 -10 16 -23z"/>
<path d="M5951 6376 l-33 -34 36 0 c28 0 36 4 36 18 0 10 3 25 6 34 10 26 -10
18 -45 -18z"/>
<path d="M5758 6380 c-25 -15 -58 -74 -58 -103 0 -25 43 -87 61 -87 5 0 0 13
-11 28 -27 36 -19 73 23 108 26 22 37 25 69 20 43 -7 49 5 16 28 -25 18 -74
20 -100 6z"/>
<path d="M6836 6378 c-17 -10 -16 -12 13 -24 44 -19 60 -57 39 -95 -20 -35
-12 -36 33 -6 87 58 6 178 -85 125z"/>
<path d="M7105 6364 c4 -10 23 -60 40 -109 48 -132 68 -367 45 -523 -30 -204
-168 -529 -302 -710 -22 -30 -38 -55 -35 -58 8 -8 243 242 309 330 173 232
255 480 219 668 -17 87 -79 210 -146 289 -63 75 -144 145 -130 113z m175 -221
c17 -28 43 -84 57 -125 23 -66 25 -83 21 -183 -4 -87 -11 -126 -33 -185 -37
-100 -77 -179 -138 -270 -47 -70 -165 -220 -173 -220 -3 0 15 39 40 88 94 188
148 356 166 512 13 119 -2 365 -29 450 -11 36 -21 67 -21 70 0 12 81 -89 110
-137z"/>
<path d="M6361 6331 l-24 -18 38 -7 c45 -9 48 -7 27 21 -17 22 -18 22 -41 4z"/>
<path d="M6211 6314 c-12 -27 -10 -27 37 -11 l33 12 -30 11 c-26 10 -30 9 -40
-12z"/>
<path d="M6638 6314 c-76 -41 -55 -154 28 -154 47 0 69 13 84 50 17 42 -2 88
-46 106 -39 16 -33 17 -66 -2z m72 -34 c11 -11 20 -29 20 -40 0 -22 -33 -60
-53 -60 -27 0 -57 31 -57 60 0 18 8 34 22 44 30 21 44 20 68 -4z"/>
<path d="M5800 6290 c-21 -21 -24 -50 -5 -57 6 -1 18 11 28 29 23 40 8 59 -23
28z"/>
<path d="M5905 6285 c-45 -44 -26 -116 37 -138 28 -10 78 13 93 44 21 39 19
53 -11 88 -33 40 -83 43 -119 6z m104 -29 c19 -22 5 -64 -24 -78 -30 -13 -49
-6 -70 26 -13 19 -14 29 -5 46 22 41 68 44 99 6z"/>
<path d="M6807 6303 c-3 -5 -2 -15 3 -22 10 -17 43 -6 38 12 -6 15 -34 22 -41
10z"/>
<path d="M6517 6271 l-29 -6 31 -22 c39 -29 41 -29 41 7 0 17 -3 29 -7 29 -5
-1 -21 -4 -36 -8z"/>
<path d="M5557 6204 c-26 -93 -39 -213 -32 -284 l7 -65 25 55 c26 60 69 109
121 142 l34 21 -25 16 c-36 23 -64 61 -91 122 l-23 52 -16 -59z m41 -56 c7
-13 21 -35 33 -49 l21 -26 -49 -46 c-26 -25 -50 -41 -52 -35 -6 17 20 178 28
178 4 0 13 -10 19 -22z"/>
<path d="M6077 6230 c-3 -11 -2 -20 2 -20 5 0 16 9 26 20 18 19 17 20 -2 20
-12 0 -23 -8 -26 -20z"/>
<path d="M7052 6200 l-42 -48 30 -7 c16 -4 45 -17 65 -30 19 -14 35 -22 35
-19 0 18 -33 144 -38 148 -4 2 -26 -18 -50 -44z m48 -31 c0 -5 -7 -9 -15 -9
-15 0 -20 12 -9 23 8 8 24 -1 24 -14z"/>
<path d="M6785 6213 c-3 -15 -16 -38 -27 -50 l-21 -23 32 0 c18 0 41 -5 53
-11 11 -6 21 -9 23 -7 4 3 -38 104 -47 113 -3 3 -9 -7 -13 -22z"/>
<path d="M5833 6215 c-6 -11 -20 -51 -31 -89 l-21 -69 28 27 c15 15 44 29 64
33 l35 5 -25 22 c-13 12 -28 37 -32 56 -7 32 -8 33 -18 15z"/>
<path d="M5457 6117 c-25 -56 -70 -163 -99 -237 l-52 -135 0 -115 c0 -120 13
-181 59 -286 54 -123 189 -282 308 -363 71 -48 182 -98 272 -122 116 -30 340
-31 483 0 302 64 458 193 592 491 45 101 92 231 86 237 -2 2 -21 -27 -41 -64
-50 -89 -186 -225 -284 -282 -86 -51 -202 -95 -292 -111 -85 -16 -242 -14
-328 4 -330 69 -596 335 -666 665 -19 92 -19 267 0 350 9 35 14 65 12 67 -2 2
-24 -42 -50 -99z m22 -370 c93 -365 420 -632 802 -654 251 -14 475 65 655 231
l76 69 -42 -84 c-144 -287 -331 -407 -683 -441 -356 -35 -650 100 -837 383
-84 127 -115 230 -115 379 0 111 2 118 43 225 74 191 66 183 74 72 4 -55 16
-135 27 -180z"/>
<path d="M7456 6134 c221 -315 301 -384 454 -392 78 -4 124 17 152 69 36 64
11 170 -47 197 -11 6 -74 20 -140 32 -155 29 -269 68 -459 158 -5 3 13 -26 40
-64z m295 -96 l79 -21 -19 -21 c-46 -51 -61 -109 -41 -160 14 -37 2 -33 -58
20 -46 40 -212 248 -212 265 0 3 39 -9 86 -28 47 -19 122 -43 165 -55z m229
-57 c14 -10 33 -34 43 -54 17 -33 17 -41 5 -80 -31 -93 -139 -116 -205 -43
-97 105 39 258 157 177z"/>
<path d="M7867 5940 c-34 -27 -37 -80 -7 -110 30 -30 83 -27 109 6 26 33 27
65 4 93 -27 32 -73 37 -106 11z m81 -51 c4 -36 -21 -55 -53 -41 -44 20 -24 76
25 70 18 -2 26 -10 28 -29z"/>
<path d="M6235 6161 c-162 -75 -149 -315 21 -371 52 -17 134 -8 172 19 60 42
86 87 90 156 4 68 -15 120 -60 162 -56 53 -151 67 -223 34z m164 -26 c70 -35
110 -123 91 -195 -32 -117 -168 -171 -263 -103 -106 75 -104 219 2 290 40 27
126 31 170 8z"/>
<path d="M6242 6111 c-45 -29 -72 -77 -72 -131 0 -89 64 -150 158 -150 47 0
57 4 94 38 67 63 68 159 2 223 -29 28 -42 33 -91 36 -46 3 -65 0 -91 -16z
m134 -21 c76 -37 95 -137 36 -192 -60 -56 -114 -60 -171 -12 -72 60 -54 171
34 210 41 18 52 17 101 -6z"/>
<path d="M6624 6119 c4 -13 10 -34 13 -46 6 -26 23 -31 23 -8 0 8 9 24 20 35
25 25 25 33 0 25 -10 -3 -29 -1 -41 6 -20 10 -21 9 -15 -12z"/>
<path d="M5983 6115 l-31 -10 23 -23 23 -22 12 30 c7 17 11 32 9 33 -2 2 -18
-2 -36 -8z"/>
<path d="M6716 6088 c-15 -13 -29 -37 -32 -55 -5 -27 -1 -37 24 -63 32 -32 60
-37 95 -18 33 17 46 39 47 76 0 70 -81 106 -134 60z m92 -20 c29 -29 4 -98
-36 -98 -28 0 -62 29 -62 52 0 46 67 77 98 46z"/>
<path d="M6928 6100 c70 -13 108 -34 127 -70 47 -90 -30 -187 -127 -159 -39
11 -48 5 -17 -12 107 -57 229 -6 229 95 0 91 -71 147 -194 152 l-71 3 53 -9z
m185 -143 c1 -22 -6 -44 -18 -57 -25 -28 -28 -20 -9 25 9 22 13 49 9 64 -5 20
-4 23 5 15 7 -7 12 -28 13 -47z"/>
<path d="M5855 6078 c-52 -28 -62 -92 -20 -133 63 -64 166 6 131 90 -21 50
-66 68 -111 43z m84 -49 c13 -24 13 -29 -2 -53 -22 -34 -69 -36 -91 -4 -21 30
-20 44 5 69 27 27 69 22 88 -12z"/>
<path d="M6976 6016 c16 -33 16 -36 0 -62 -15 -22 -23 -25 -52 -21 -19 3 -34
2 -34 -3 0 -4 18 -11 40 -15 56 -9 90 13 90 59 0 30 -14 51 -48 70 -8 5 -7 -4
4 -28z"/>
<path d="M5685 5999 c-76 -58 -123 -154 -110 -229 19 -112 163 -196 282 -164
21 6 21 7 6 30 -13 20 -24 24 -67 24 -71 0 -116 25 -143 80 -42 82 -19 176 56
227 38 27 55 63 29 63 -7 0 -31 -14 -53 -31z"/>
<path d="M6890 6001 c0 -11 39 -25 47 -18 3 3 2 10 -2 16 -8 13 -45 15 -45 2z"/>
<path d="M6650 5952 c0 -22 -3 -49 -7 -59 -6 -16 -5 -16 10 -4 24 19 89 17
125 -5 17 -10 37 -32 43 -48 l12 -31 13 40 c7 22 13 55 13 74 1 34 1 34 -20
15 -15 -13 -36 -19 -71 -19 -46 0 -53 3 -84 39 l-34 39 0 -41z"/>
<path d="M5784 5914 c3 -26 11 -65 17 -88 l11 -40 13 30 c7 17 26 40 41 52 29
21 29 21 6 22 -14 0 -39 15 -59 35 l-36 36 7 -47z"/>
<path d="M5723 5918 c-43 -46 -54 -108 -27 -159 16 -33 73 -63 98 -53 25 10
19 24 -10 24 -15 0 -38 12 -55 29 -38 39 -39 87 -3 130 31 37 28 62 -3 29z"/>
<path d="M5980 5932 c0 -6 -12 -18 -27 -26 -16 -8 -21 -15 -13 -16 8 0 27 -6
42 -14 l27 -14 -6 31 c-6 32 -23 61 -23 39z"/>
<path d="M6683 5865 c-85 -36 -60 -155 32 -155 25 0 44 8 60 25 64 63 -8 165
-92 130z m65 -31 c28 -19 29 -57 2 -84 -24 -24 -38 -25 -68 -4 -14 10 -22 26
-22 44 0 28 30 60 55 60 6 0 21 -7 33 -16z"/>
<path d="M5904 5850 c-55 -22 -70 -95 -29 -135 36 -37 86 -34 119 6 14 17 26
37 26 45 0 28 -31 75 -56 84 -29 12 -32 12 -60 0z m66 -40 c24 -24 25 -47 3
-72 -48 -53 -126 10 -82 66 24 31 52 33 79 6z"/>
<path d="M5748 5838 c-7 -17 9 -58 22 -58 6 0 8 11 4 28 -8 34 -20 47 -26 30z"/>
<path d="M7090 5809 c-19 -11 -50 -19 -68 -19 l-33 0 25 -33 c14 -18 33 -52
43 -76 l19 -44 22 57 c20 54 40 138 31 135 -2 -1 -20 -10 -39 -20z m0 -51 c0
-7 -4 -19 -9 -27 -7 -11 -11 -10 -20 7 -15 28 -14 32 9 32 11 0 20 -6 20 -12z"/>
<path d="M7525 5785 c23 -99 35 -219 35 -368 0 -139 -5 -202 -31 -365 -39
-253 -38 -384 5 -474 34 -71 76 -114 141 -144 60 -29 106 -30 160 -5 43 20
109 82 70 66 -37 -15 -83 -17 -118 -6 -44 15 -106 77 -143 143 -27 48 -29 61
-28 148 0 84 6 112 45 235 43 137 44 143 44 275 0 159 -12 203 -107 389 -64
125 -85 156 -73 106z m129 -299 c8 -24 20 -82 26 -130 15 -106 6 -162 -52
-349 -33 -110 -41 -147 -42 -222 -1 -83 2 -96 31 -156 37 -76 117 -156 163
-165 46 -10 36 -24 -16 -24 -94 0 -180 73 -218 183 -25 74 -21 233 11 417 24
137 27 182 28 383 l0 228 27 -61 c15 -34 34 -81 42 -104z"/>
<path d="M6860 5781 c0 -13 11 -23 34 -31 76 -25 106 -92 71 -159 -19 -38 -94
-75 -134 -66 -28 6 -65 38 -73 64 -3 11 -6 11 -16 -1 -23 -28 101 -98 172 -98
70 0 125 65 112 134 -17 89 -166 230 -166 157z"/>
<path d="M6577 5772 c-22 -25 -21 -29 8 -34 22 -5 24 -3 18 21 -8 34 -7 34
-26 13z"/>
<path d="M6047 5753 c-7 -35 -6 -35 33 -31 l32 3 -30 28 -29 28 -6 -28z"/>
<path d="M6495 5685 c-47 -46 -25 -119 41 -139 30 -9 73 13 90 45 20 39 18 53
-12 88 -33 40 -83 43 -119 6z m92 -19 c24 -21 26 -27 18 -52 -14 -39 -57 -54
-85 -29 -27 24 -26 70 2 89 29 21 32 20 65 -8z"/>
<path d="M6814 5685 c-4 -9 -2 -21 4 -27 15 -15 44 -1 40 19 -4 23 -36 29 -44
8z"/>
<path d="M7416 5689 c-100 -338 -350 -640 -830 -1007 -225 -172 -340 -292
-421 -436 -127 -228 -201 -771 -149 -1110 22 -148 33 -163 34 -46 1 403 132
753 441 1185 119 167 172 232 404 498 286 329 384 466 461 646 30 70 79 269
69 279 -3 3 -6 -1 -9 -9z m-159 -411 c-50 -85 -208 -286 -372 -473 -211 -239
-301 -350 -415 -510 -245 -345 -379 -636 -420 -910 -17 -114 -24 -121 -28 -30
-6 162 46 534 99 710 70 229 175 356 508 614 271 211 494 427 604 587 48 70
62 77 24 12z"/>
<path d="M6033 5668 c-28 -31 -35 -60 -24 -91 10 -26 57 -57 86 -57 29 0 75
55 75 90 0 69 -92 107 -137 58z m95 -21 c19 -14 14 -62 -8 -82 -38 -35 -99 7
-86 59 10 39 58 51 94 23z"/>
<path d="M6659 5672 c16 -30 13 -63 -9 -99 -42 -69 -125 -79 -182 -23 l-28 28
0 -24 c0 -37 -26 -81 -58 -98 -76 -42 102 -1 195 45 43 20 81 50 122 96 34 36
61 70 61 74 0 5 -15 8 -32 7 -18 0 -44 2 -56 6 -21 7 -23 6 -13 -12z"/>
<path d="M6902 5663 c-3 -38 -38 -66 -74 -59 -21 4 -26 2 -21 -9 3 -9 16 -18
30 -21 54 -14 116 45 95 91 -15 33 -27 32 -30 -2z"/>
<path d="M6196 5627 c6 -65 -9 -96 -60 -121 -27 -13 -35 -21 -25 -26 21 -12
134 -40 160 -40 22 0 22 1 -8 20 -17 10 -37 29 -43 41 -16 29 -7 105 15 129
20 22 21 21 -17 37 l-26 12 4 -52z"/>
<path d="M5930 5661 l-45 -6 45 -48 45 -48 1 55 c0 31 0 55 0 54 -1 0 -21 -4
-46 -7z"/>
<path d="M6409 5662 c-13 -6 -12 -12 8 -41 l23 -34 0 42 c0 42 -3 45 -31 33z"/>
<path d="M6266 5614 c-55 -55 -15 -144 64 -144 30 0 80 53 80 85 0 16 -12 38
-29 56 -38 37 -79 38 -115 3z m96 -21 c22 -20 23 -51 1 -75 -33 -36 -93 -13
-93 37 0 49 55 72 92 38z"/>
<path d="M5614 5604 c27 -71 190 -259 255 -293 19 -10 19 -10 0 39 -23 60 -24
113 -4 170 19 54 20 51 -11 40 -52 -20 -153 -2 -210 36 -29 20 -35 22 -30 8z
m188 -79 c26 0 26 0 25 -72 l-2 -72 -33 32 c-19 18 -52 54 -75 80 l-40 49 49
-8 c27 -5 61 -8 76 -9z"/>
<path d="M5218 5500 c-117 -300 -79 -580 104 -760 163 -162 463 -254 750 -229
208 17 271 43 450 188 83 68 228 211 212 211 -5 0 -14 -4 -19 -8 -20 -18 -123
-53 -228 -77 -370 -87 -674 -25 -929 190 -158 133 -273 338 -297 528 l-6 51
-37 -94z m56 -121 c48 -154 163 -310 308 -419 183 -138 367 -200 593 -200 135
0 329 30 432 67 57 20 -201 -193 -285 -236 -110 -56 -405 -73 -577 -33 -302
69 -487 225 -550 462 -19 72 -19 237 1 320 17 75 36 130 44 130 3 0 18 -41 34
-91z"/>
<path d="M5915 5520 c-21 -41 -19 -123 5 -169 54 -108 201 -154 289 -92 31 22
81 106 81 136 0 29 -39 17 -53 -18 -17 -38 -77 -94 -113 -103 -67 -17 -144 23
-175 90 -23 50 -24 85 -4 132 23 57 -2 78 -30 24z"/>
<path d="M6650 5513 c0 -5 7 -28 16 -53 17 -50 13 -94 -16 -151 -36 -69 -109
-94 -181 -61 -56 25 -78 49 -100 114 -15 43 -18 47 -19 25 -1 -98 118 -191
219 -172 48 9 103 69 130 140 28 74 27 110 -4 140 -23 24 -45 33 -45 18z"/>
<path d="M7505 5478 c-11 -69 -50 -201 -124 -424 -97 -288 -114 -380 -108
-564 7 -230 57 -362 180 -476 75 -70 116 -93 68 -39 -63 72 -105 194 -117 335
-7 80 7 252 31 400 42 255 77 532 82 663 6 145 1 187 -12 105z m-31 -313 c-7
-49 -25 -171 -39 -270 -15 -99 -31 -209 -36 -245 -31 -206 -29 -412 6 -511 22
-60 12 -59 -23 3 -91 161 -111 404 -52 650 15 64 112 368 145 457 12 32 12 1
-1 -84z"/>
<path d="M5986 5484 c-3 -9 -6 -34 -6 -56 0 -32 7 -47 34 -74 56 -56 135 -44
171 26 17 34 18 40 6 40 -5 0 -13 -9 -16 -20 -4 -11 -20 -27 -37 -36 -26 -13
-38 -14 -70 -5 -50 15 -72 49 -65 101 5 40 -5 55 -17 24z"/>
<path d="M6764 5436 c-1 -37 -11 -73 -30 -112 -15 -33 -30 -63 -32 -68 -12
-23 108 56 170 113 l70 65 -53 11 c-30 6 -69 18 -88 28 -19 9 -35 17 -35 17
-1 0 -2 -24 -2 -54z m94 -13 c12 -3 22 -8 22 -12 -1 -7 -86 -74 -102 -80 -7
-2 -9 3 -4 15 5 11 10 36 13 57 5 34 9 38 27 32 12 -4 31 -9 44 -12z"/>
<path d="M6607 5438 c5 -44 3 -50 -30 -83 -28 -28 -43 -35 -74 -35 -44 0 -69
20 -83 66 -7 26 -8 26 -9 6 -3 -76 93 -137 160 -102 46 25 75 135 45 175 -13
18 -14 15 -9 -27z"/>
<path d="M6050 5447 c0 -29 18 -47 46 -47 19 0 53 26 43 33 -9 6 -80 37 -84
37 -3 0 -5 -10 -5 -23z"/>
<path d="M6501 5436 c-19 -7 -36 -17 -39 -24 -5 -17 17 -52 33 -52 25 0 79 55
72 73 -7 20 -19 20 -66 3z"/>
<path d="M6296 5292 c-18 -34 -76 -87 -105 -97 -12 -3 -19 -10 -16 -15 7 -12
183 -21 240 -13 l50 8 -46 27 c-27 16 -60 47 -77 74 l-31 45 -15 -29z m74 -98
c0 -2 -25 -4 -55 -4 -30 0 -55 3 -55 7 0 4 12 20 27 35 l27 28 28 -31 c15 -16
28 -32 28 -35z"/>
<path d="M5064 5163 c-65 -115 -84 -171 -84 -248 0 -261 192 -525 440 -605
140 -45 335 -14 605 97 61 24 113 48 118 52 4 4 -59 5 -140 3 -119 -3 -168 0
-248 16 -198 39 -346 113 -465 232 -121 121 -184 267 -185 432 0 49 -1 88 -2
88 -1 0 -19 -30 -39 -67z m41 -198 c67 -235 270 -415 553 -494 67 -18 205 -38
302 -44 43 -2 38 -4 -85 -46 -248 -82 -373 -85 -524 -10 -187 93 -314 279
-345 510 -8 56 7 125 43 194 l25 50 7 -50 c3 -28 14 -77 24 -110z"/>
<path d="M7248 5119 c-23 -13 -23 -52 1 -73 18 -16 19 -15 35 24 9 22 16 45
16 50 0 13 -30 12 -52 -1z"/>
<path d="M7288 4962 c-104 -218 -127 -291 -135 -422 -11 -193 52 -375 172
-495 82 -82 126 -107 64 -37 -192 221 -219 587 -72 981 13 35 22 65 20 67 -2
2 -24 -40 -49 -94z m-91 -392 c-8 -100 -7 -129 11 -215 11 -55 18 -102 16
-103 -1 -2 -10 20 -20 50 -22 68 -31 286 -14 347 6 24 12 41 14 40 1 -2 -2
-56 -7 -119z"/>
<path d="M7156 5005 c-9 -13 -16 -39 -16 -57 0 -34 31 -93 43 -82 3 4 0 16 -8
28 -18 25 -19 68 -3 84 7 7 28 12 47 12 33 0 34 0 16 20 -25 27 -59 25 -79 -5z"/>
<path d="M375 4992 c72 -25 120 -57 159 -105 76 -94 102 -179 116 -377 10
-148 32 -257 66 -325 20 -40 54 -65 39 -29 -18 46 -26 103 -40 309 -20 292
-41 371 -121 451 -57 58 -115 83 -201 90 l-68 4 50 -18z m263 -195 c12 -32 24
-76 27 -100 5 -35 2 -31 -18 28 -29 87 -59 144 -86 169 -12 11 -21 24 -21 30
1 26 79 -75 98 -127z m45 -282 c4 -82 3 -101 -3 -60 -8 63 -13 191 -6 184 2
-2 6 -58 9 -124z"/>
<path d="M7190 4955 c-9 -11 -10 -22 -3 -38 10 -21 10 -21 26 10 10 18 17 34
17 38 0 11 -28 4 -40 -10z"/>
<path d="M4843 4863 c-108 -121 -136 -176 -137 -268 -1 -100 39 -183 137 -279
101 -101 124 -110 256 -102 169 10 341 29 341 38 0 4 -8 8 -19 8 -10 0 -56 19
-102 42 -67 33 -102 59 -169 127 -47 47 -102 115 -123 151 -47 81 -85 202 -95
300 l-7 74 -82 -91z m65 -23 c3 -52 37 -160 70 -225 65 -130 179 -255 286
-316 58 -32 59 -33 32 -40 -15 -4 -90 -11 -166 -15 -136 -7 -139 -6 -182 19
-63 36 -155 138 -184 202 -39 84 -43 160 -12 226 23 50 131 189 147 189 4 0 8
-18 9 -40z"/>
<path d="M7077 4914 l-29 -34 41 0 c40 0 41 1 35 28 -10 41 -17 42 -47 6z"/>
<path d="M1240 4857 c-30 -28 -99 -80 -154 -115 -188 -122 -248 -211 -270
-397 -6 -54 -8 -57 38 50 21 51 104 140 287 310 73 68 169 189 157 200 -1 2
-28 -20 -58 -48z m-150 -165 c-36 -31 -98 -88 -139 -127 -59 -56 -70 -63 -55
-37 35 61 82 109 166 166 45 31 84 56 87 56 4 0 -23 -26 -59 -58z"/>
<path d="M1332 4878 c-21 -59 -108 -161 -225 -266 -124 -111 -185 -183 -215
-253 -20 -44 -35 -99 -29 -99 2 0 20 24 40 53 20 28 94 109 165 178 178 174
250 273 280 382 13 46 1 49 -16 5z m-267 -358 c-38 -38 -74 -70 -80 -70 -11 1
130 140 142 140 4 0 -24 -31 -62 -70z"/>
<path d="M7050 4847 c-54 -27 -62 -106 -19 -177 16 -25 23 -30 29 -20 5 9 1
23 -11 38 -29 37 -25 88 10 123 31 31 51 35 82 19 12 -7 19 -7 19 -1 0 28 -68
39 -110 18z"/>
<path d="M7083 4805 c-38 -27 -38 -115 -1 -115 9 0 9 3 0 12 -7 7 -12 24 -12
38 0 32 17 50 47 50 26 0 31 15 7 24 -20 8 -16 8 -41 -9z"/>
<path d="M6928 4744 c-27 -28 -48 -54 -48 -55 0 -2 15 -4 33 -4 17 0 45 -4 61
-8 25 -7 28 -6 21 10 -4 10 -10 39 -14 64 l-6 46 -47 -53z"/>
<path d="M7097 4763 c-4 -3 -7 -15 -7 -26 0 -16 3 -17 15 -7 8 7 15 19 15 26
0 15 -12 19 -23 7z"/>
<path d="M4615 4665 c-16 -14 -62 -41 -102 -60 -80 -40 -93 -60 -93 -150 0
-67 38 -144 93 -189 39 -31 50 -34 152 -45 61 -6 134 -11 163 -11 l54 0 -55
50 c-113 104 -184 252 -174 367 2 35 2 63 -2 63 -3 -1 -19 -12 -36 -25z m58
-247 c20 -40 57 -97 83 -126 l47 -54 -94 7 c-130 9 -162 19 -198 60 -60 68
-80 133 -61 199 10 37 18 45 88 82 l77 41 11 -68 c7 -37 28 -100 47 -141z"/>
<path d="M6900 4663 c-67 -21 -95 -62 -85 -126 9 -51 35 -105 64 -131 33 -30
39 5 7 37 -70 70 24 214 116 176 44 -18 45 -3 1 19 -45 23 -82 32 -103 25z"/>
<path d="M6921 4579 c-27 -25 -43 -66 -36 -89 8 -24 42 -53 49 -42 3 5 -1 15
-9 22 -8 7 -15 27 -15 46 0 39 21 54 66 47 34 -5 56 13 33 28 -24 15 -64 10
-88 -12z"/>
<path d="M6729 4514 c-77 -96 -76 -91 -9 -86 32 2 73 -1 90 -7 l31 -10 -22 35
c-12 19 -24 58 -28 86 l-6 51 -56 -69z m50 -46 c1 -5 -10 -8 -24 -8 -29 0 -31
7 -8 32 17 19 18 19 24 1 4 -10 8 -21 8 -25z"/>
<path d="M4276 4516 c-56 -16 -82 -28 -87 -42 -10 -25 -11 -126 -1 -141 10
-16 76 -39 180 -64 102 -24 100 -24 75 4 -48 50 -68 108 -68 190 0 45 -4 76
-10 76 -5 -1 -46 -11 -89 -23z m67 -76 c3 -33 14 -79 26 -102 11 -23 19 -43
18 -45 -2 -1 -42 10 -90 24 l-87 26 0 63 c0 61 1 64 28 70 15 3 41 10 57 14
17 5 33 9 36 9 3 1 9 -26 12 -59z"/>
<path d="M6930 4526 c0 -20 11 -46 19 -46 4 0 15 14 24 30 l18 30 -30 0 c-20
0 -31 -5 -31 -14z"/>
<path d="M3250 4500 c-168 -30 -325 -92 -528 -207 -53 -31 -107 -61 -118 -67
-12 -7 -48 -29 -80 -51 -33 -21 -75 -48 -94 -60 -19 -12 -60 -37 -90 -56 -30
-20 -83 -53 -118 -75 -34 -21 -77 -48 -95 -59 -63 -41 -297 -158 -297 -150 0
3 -16 -2 -37 -10 -113 -47 -297 -61 -418 -30 -119 29 -262 114 -371 218 -56
54 -85 59 -111 21 -16 -24 -16 -28 2 -60 42 -78 274 -239 374 -259 9 -2 28 -8
43 -14 50 -19 121 -26 250 -25 126 1 298 28 298 46 0 4 11 8 23 8 13 0 27 3
31 7 3 4 16 8 27 10 12 2 33 10 48 18 14 8 46 23 71 35 41 19 123 64 208 115
19 11 56 37 82 58 26 20 52 37 56 37 5 0 29 16 54 35 92 70 192 144 268 197
18 13 45 32 60 44 138 105 434 252 545 271 20 3 40 10 43 14 7 12 -1 11 -126
-11z m-299 -142 c-10 -11 -11 -9 -5 6 6 15 4 17 -6 11 -9 -6 -11 -4 -5 4 5 9
10 10 18 2 8 -8 7 -14 -2 -23z m-56 -28 c0 -22 -29 -18 -33 3 -3 14 1 18 15
15 10 -2 18 -10 18 -18z m-69 -49 c-9 -14 -33 -14 -41 -1 -4 6 -1 18 6 26 11
13 14 13 27 0 8 -8 11 -19 8 -25z m-76 -41 c0 -10 -6 -20 -12 -23 -21 -7 -38
4 -38 23 0 10 6 20 13 23 20 7 37 -4 37 -23z m-86 -47 c4 -9 1 -23 -7 -30 -7
-8 -21 -11 -30 -7 -17 6 -23 35 -10 47 12 13 41 7 47 -10z m-99 -73 c0 -18 -6
-26 -23 -28 -27 -4 -40 22 -22 44 19 22 45 13 45 -16z m-101 -46 c20 -19 20
-28 1 -44 -30 -25 -70 15 -45 45 16 19 25 19 44 -1z m-100 -70 c22 -21 3 -56
-27 -52 -25 3 -34 32 -17 53 16 19 25 19 44 -1z m-1400 -49 c9 -23 -22 -47
-45 -35 -24 13 -25 36 -2 48 20 12 39 6 47 -13z m1290 -21 c12 -12 13 -20 6
-35 -12 -21 -40 -25 -58 -7 -16 16 -15 23 4 42 19 20 29 20 48 0z m-1210 -59
c9 -23 -22 -47 -45 -35 -23 13 -24 24 -4 44 17 17 40 12 49 -9z m1096 -10 c20
-24 3 -57 -28 -53 -30 3 -41 30 -22 53 16 19 34 19 50 0z m-1003 -61 c3 -8 -1
-23 -10 -32 -15 -14 -18 -14 -36 2 -11 10 -17 24 -14 32 7 19 52 18 60 -2z
m889 -16 c9 -28 -20 -52 -47 -37 -19 10 -25 39 -12 52 15 16 52 6 59 -15z
m-796 -33 c18 -21 5 -47 -22 -43 -26 3 -37 36 -16 49 18 12 24 11 38 -6z m674
-17 c8 -14 7 -21 -6 -34 -30 -30 -75 9 -48 42 16 18 39 15 54 -8z m-570 -30
c15 -24 -10 -51 -35 -37 -22 11 -24 30 -7 47 15 15 28 11 42 -10z m446 -3 c10
-12 10 -18 0 -30 -7 -8 -18 -15 -25 -15 -7 0 -18 7 -25 15 -10 12 -10 18 0 30
7 8 18 15 25 15 7 0 18 -7 25 -15z m-334 -20 c7 -18 -13 -45 -33 -45 -17 0
-27 24 -19 45 7 20 45 19 52 0z m219 -15 c0 -18 -6 -26 -23 -28 -24 -4 -38 18
-28 44 3 9 15 14 28 12 17 -2 23 -10 23 -28z m-108 4 c3 -8 -2 -23 -11 -32
-15 -15 -17 -15 -32 0 -21 21 -11 48 16 48 11 0 23 -7 27 -16z"/>
<path d="M2870 4329 c0 -5 5 -7 10 -4 6 3 10 8 10 11 0 2 -4 4 -10 4 -5 0 -10
-5 -10 -11z"/>
<path d="M2790 4290 c0 -5 7 -10 15 -10 8 0 15 5 15 10 0 6 -7 10 -15 10 -8 0
-15 -4 -15 -10z"/>
<path d="M2712 4239 c2 -6 8 -10 13 -10 5 0 11 4 13 10 2 6 -4 11 -13 11 -9 0
-15 -5 -13 -11z"/>
<path d="M2627 4193 c-12 -11 -8 -23 8 -23 8 0 15 7 15 15 0 16 -12 20 -23 8z"/>
<path d="M2530 4130 c-12 -7 -12 -12 -2 -22 9 -9 15 -9 24 0 16 16 -2 34 -22
22z"/>
<path d="M2426 4061 c-7 -11 18 -33 27 -24 4 3 7 12 7 20 0 15 -26 18 -34 4z"/>
<path d="M2324 3989 c-10 -17 13 -36 27 -22 12 12 4 33 -11 33 -5 0 -12 -5
-16 -11z"/>
<path d="M920 3945 c0 -8 7 -15 15 -15 8 0 15 7 15 15 0 8 -7 15 -15 15 -8 0
-15 -7 -15 -15z"/>
<path d="M2212 3913 c2 -10 10 -18 18 -18 8 0 16 8 18 18 2 12 -3 17 -18 17
-15 0 -20 -5 -18 -17z"/>
<path d="M1000 3865 c0 -8 7 -15 15 -15 8 0 15 7 15 15 0 8 -7 15 -15 15 -8 0
-15 -7 -15 -15z"/>
<path d="M2095 3850 c-8 -14 3 -30 21 -30 8 0 14 9 14 20 0 21 -24 28 -35 10z"/>
<path d="M1090 3795 c0 -8 7 -15 15 -15 8 0 15 7 15 15 0 8 -7 15 -15 15 -8 0
-15 -7 -15 -15z"/>
<path d="M1975 3790 c-8 -14 3 -30 21 -30 8 0 14 9 14 20 0 21 -24 28 -35 10z"/>
<path d="M1195 3750 c-10 -17 12 -37 25 -24 8 8 6 15 -4 23 -10 9 -16 9 -21 1z"/>
<path d="M1860 3725 c0 -10 7 -15 18 -13 21 4 19 22 -2 26 -10 2 -16 -3 -16
-13z"/>
<path d="M1295 3701 c-3 -5 -1 -12 5 -16 12 -7 30 2 30 16 0 12 -27 12 -35 0z"/>
<path d="M1745 3700 c-7 -12 2 -30 16 -30 5 0 9 9 9 20 0 21 -15 27 -25 10z"/>
<path d="M1405 3680 c-7 -12 2 -30 16 -30 5 0 9 9 9 20 0 21 -15 27 -25 10z"/>
<path d="M1624 3679 c-10 -17 13 -36 27 -22 12 12 4 33 -11 33 -5 0 -12 -5
-16 -11z"/>
<path d="M1515 3669 c-10 -15 1 -23 20 -15 9 3 13 10 10 16 -8 13 -22 13 -30
-1z"/>
<path d="M7021 4423 c-11 -38 -37 -156 -58 -263 -36 -186 -37 -205 -38 -400 0
-137 4 -223 13 -260 21 -86 53 -184 65 -195 7 -7 8 -4 3 10 -12 34 -26 182
-22 227 3 24 7 75 11 113 3 39 16 133 27 210 17 112 22 188 22 382 1 134 0
243 -1 243 -1 0 -11 -30 -22 -67z m-26 -542 c-14 -97 -25 -194 -26 -216 0 -22
-4 -49 -9 -60 -12 -27 -12 291 0 375 9 68 35 197 48 240 4 16 8 -8 10 -69 2
-62 -6 -154 -23 -270z"/>
<path d="M3988 4473 c-49 -2 -88 -7 -88 -11 0 -4 52 -33 115 -65 l115 -57 0
48 c0 26 3 57 6 70 6 20 3 22 -27 20 -19 -1 -73 -4 -121 -5z m116 -50 c-4 -16
-8 -29 -9 -31 -2 -2 -24 7 -49 20 -38 18 -43 24 -29 30 10 3 35 7 56 7 36 1
37 0 31 -26z"/>
<path d="M3437 4460 c-248 -45 -420 -182 -564 -450 -39 -71 -98 -200 -105
-228 -2 -8 15 -19 41 -29 52 -17 114 -54 155 -92 23 -21 28 -22 22 -7 -16 46
-17 163 -2 234 24 115 69 196 156 283 92 92 171 133 298 156 245 45 494 -84
602 -312 35 -76 50 -146 50 -240 0 -103 -16 -167 -62 -258 -72 -139 -193 -235
-356 -282 l-73 -22 43 -12 c107 -32 297 -144 359 -213 l37 -41 37 28 c47 36
117 135 154 217 46 101 68 186 80 305 44 434 -201 856 -549 948 -68 18 -258
27 -323 15z m343 -49 c365 -124 583 -593 483 -1036 -27 -120 -98 -263 -173
-348 -36 -42 -50 -45 -67 -18 -16 25 -209 153 -268 178 -42 17 -59 33 -34 33
34 0 148 69 210 128 135 127 196 279 186 462 -6 118 -33 197 -99 296 -109 163
-281 254 -482 257 -163 2 -296 -53 -416 -172 -115 -113 -172 -247 -174 -403
-1 -38 -2 -68 -2 -68 -1 0 -28 14 -59 30 -31 17 -64 30 -72 30 -20 0 -12 24
58 165 147 294 306 433 550 485 80 17 286 6 359 -19z"/>
<path d="M6247 4463 c-3 -5 -38 -25 -76 -43 -69 -34 -87 -50 -56 -50 9 0 20
-11 27 -25 l11 -24 30 42 c16 23 41 54 55 69 14 15 23 30 20 34 -3 3 -8 1 -11
-3z"/>
<path d="M7099 4435 c-10 -35 9 -348 24 -415 76 -324 244 -539 468 -596 168
-43 333 38 375 185 26 87 5 153 -51 164 -32 6 -37 -1 -20 -27 21 -28 19 -70
-5 -116 -38 -74 -112 -95 -182 -52 -85 53 -91 169 -12 231 l26 20 -24 5 c-12
3 -56 10 -96 17 -149 23 -306 129 -391 264 -48 75 -87 184 -98 275 -5 38 -11
57 -14 45z m41 -249 c0 -27 98 -162 153 -213 31 -28 81 -65 110 -81 59 -34
175 -72 218 -72 34 0 34 0 9 -50 -40 -78 -15 -163 63 -213 102 -66 210 -14
242 116 l13 52 1 -39 c2 -87 -43 -164 -126 -213 -34 -20 -63 -27 -117 -30
-255 -16 -483 228 -555 593 -27 140 -31 175 -20 169 5 -4 9 -12 9 -19z"/>
<path d="M6675 4397 c-42 -19 -54 -37 -67 -98 -14 -68 8 -152 53 -204 36 -41
40 -42 56 -16 11 17 8 24 -17 50 -25 24 -30 38 -30 77 0 50 27 107 60 124 25
13 76 13 102 -1 18 -9 24 -8 35 7 19 26 17 28 -24 48 -50 24 -130 30 -168 13z
m71 -33 c-54 -19 -72 -38 -96 -98 l-20 -51 3 59 c5 77 34 106 105 105 l47 0
-39 -15z"/>
<path d="M6885 4277 c-72 -111 -292 -548 -301 -597 -3 -19 -15 -64 -25 -100
-67 -223 -81 -546 -35 -810 14 -80 41 -219 60 -309 58 -270 78 -423 74 -571
-2 -72 -2 -130 0 -130 4 0 19 40 62 165 150 428 193 912 130 1435 -23 196 -20
396 8 530 11 52 30 142 42 200 11 58 27 128 35 155 17 65 26 125 17 125 -4 0
-34 -42 -67 -93z m5 -102 c-47 -212 -60 -279 -76 -390 -18 -128 -16 -198 21
-545 28 -262 16 -624 -30 -885 -17 -97 -75 -325 -99 -390 l-15 -40 0 41 c-2
77 -31 270 -71 459 -88 422 -106 562 -96 748 9 175 22 256 58 382 12 39 22 83
24 99 5 34 98 239 181 396 59 112 116 210 119 207 1 -1 -6 -38 -16 -82z"/>
<path d="M5987 4342 l-38 -15 38 -13 c20 -7 38 -12 39 -11 1 1 4 14 8 30 7 31
5 31 -47 9z"/>
<path d="M6060 4346 c-6 -8 -10 -25 -8 -38 2 -19 9 -23 38 -23 29 0 36 4 38
23 4 28 -14 52 -38 52 -10 0 -23 -7 -30 -14z"/>
<path d="M6542 4268 c-53 -74 -102 -146 -102 -152 0 -3 14 0 31 6 30 10 98 7
133 -7 17 -8 17 -7 0 26 -13 24 -18 56 -19 106 0 40 -1 73 -2 73 -1 0 -20 -24
-41 -52z m26 -113 c-2 -2 -17 0 -35 2 l-32 5 22 34 22 33 13 -36 c6 -20 11
-37 10 -38z"/>
<path d="M6731 4293 c-40 -35 -53 -99 -27 -138 9 -14 23 -25 31 -25 20 0 19
10 -6 36 -14 15 -19 29 -14 43 7 23 53 51 84 51 18 0 49 36 39 45 -2 2 -19 6
-39 10 -31 6 -41 3 -68 -22z"/>
<path d="M5822 4286 l-73 -22 53 -24 c29 -13 55 -25 58 -27 3 -2 6 9 6 23 1
14 12 36 25 50 27 29 24 29 -69 0z"/>
<path d="M3460 4272 c-18 -19 -30 -41 -30 -57 0 -16 12 -38 30 -57 26 -25 36
-29 63 -24 45 9 71 39 71 81 0 42 -26 72 -71 81 -27 5 -37 1 -63 -24z m90 -22
c11 -11 20 -27 20 -35 0 -20 -36 -55 -57 -55 -23 0 -53 30 -53 53 0 26 28 57
52 57 10 0 27 -9 38 -20z"/>
<path d="M3607 4277 c14 -20 21 -22 40 -13 13 6 23 14 23 17 0 8 -37 19 -63
19 -17 0 -17 -1 0 -23z"/>
<path d="M4121 4274 c42 -48 74 -95 116 -172 l40 -74 7 36 c9 47 62 101 112
115 47 13 108 0 140 -31 22 -19 22 -19 47 6 l25 25 -42 6 c-148 23 -341 70
-451 111 -17 6 -17 3 6 -22z m187 -76 c18 -18 14 -53 -8 -73 -41 -37 -102 24
-64 66 19 21 54 25 72 7z"/>
<path d="M4252 4191 c-22 -14 -10 -56 17 -59 37 -6 52 26 25 52 -18 18 -24 19
-42 7z"/>
<path d="M3373 4283 c-30 -6 -29 -15 2 -29 21 -10 26 -9 40 12 17 26 13 28
-42 17z"/>
<path d="M5910 4268 c-37 -40 -15 -100 42 -114 33 -7 78 32 78 68 0 63 -76 93
-120 46z m74 -11 c38 -27 -2 -95 -41 -71 -24 15 -28 48 -8 68 20 19 26 20 49
3z"/>
<path d="M6057 4239 c6 -32 -21 -87 -47 -97 -18 -7 -18 -9 9 -34 l28 -27 13
42 c7 23 23 63 36 88 l23 47 -34 4 c-32 4 -33 2 -28 -23z"/>
<path d="M3675 4244 c-38 -20 -45 -31 -45 -76 0 -28 6 -42 26 -57 78 -62 178
39 112 113 -31 33 -57 39 -93 20z m63 -30 c40 -28 19 -94 -30 -94 -27 0 -58
28 -58 52 0 21 34 58 53 58 7 0 23 -7 35 -16z"/>
<path d="M3274 4216 c-21 -18 -28 -32 -28 -60 0 -76 90 -110 140 -52 32 37 30
71 -5 107 -36 35 -70 37 -107 5z m88 -23 c22 -20 23 -51 1 -75 -20 -22 -42
-23 -71 -2 -26 18 -28 50 -5 76 20 22 51 23 75 1z"/>
<path d="M6770 4228 c-31 -11 -42 -29 -28 -45 15 -19 22 -16 42 18 21 36 19
40 -14 27z"/>
<path d="M3815 4179 c0 -37 3 -48 13 -44 8 3 30 5 49 5 31 0 34 2 23 15 -7 9
-29 29 -49 44 l-36 29 0 -49z"/>
<path d="M5540 4218 c-37 -8 -42 -12 -29 -22 9 -6 20 -18 25 -27 8 -13 15 -10
45 23 39 41 36 43 -41 26z"/>
<path d="M5685 4199 c-68 -19 -113 -104 -94 -174 12 -42 68 -92 113 -100 56
-11 122 24 146 77 25 55 25 72 -1 125 -30 62 -98 92 -164 72z m93 -33 c13 -7
32 -26 43 -42 64 -97 -50 -217 -151 -157 -37 22 -55 56 -54 105 3 79 93 133
162 94z"/>
<path d="M3174 4165 l-39 -34 36 -1 c34 0 37 3 42 33 2 17 4 33 2 35 -1 1 -19
-14 -41 -33z"/>
<path d="M5360 4191 l-45 -6 38 -22 c44 -26 47 -27 47 -11 0 6 7 20 17 30 18
20 21 19 -57 9z"/>
<path d="M5437 4172 c-24 -27 -21 -59 8 -78 23 -15 27 -15 50 0 46 30 26 96
-28 96 -8 0 -21 -8 -30 -18z"/>
<path d="M4648 4161 c12 -12 22 -28 22 -36 0 -24 -39 -57 -60 -50 -16 5 -18 1
-17 -29 1 -20 4 -36 7 -36 3 0 15 16 28 35 27 42 92 91 133 100 46 10 34 25
-20 25 -27 0 -64 3 -82 6 l-34 7 23 -22z"/>
<path d="M5035 4161 l-70 -6 40 -14 c24 -9 63 -38 99 -74 37 -38 56 -52 51
-38 -10 32 12 87 46 116 l31 25 -64 -2 c-35 -1 -94 -4 -133 -7z"/>
<path d="M4594 4146 c-15 -12 -17 -18 -8 -33 15 -24 58 -24 62 0 4 18 -14 47
-27 47 -4 0 -16 -6 -27 -14z"/>
<path d="M4374 4121 c-37 -22 -59 -78 -49 -119 3 -15 18 -39 32 -54 72 -75
193 -23 193 82 0 34 -6 48 -34 76 -40 40 -92 46 -142 15z m123 -33 c52 -56 16
-148 -57 -148 -37 0 -90 47 -90 80 0 26 25 77 42 83 34 14 85 6 105 -15z"/>
<path d="M5237 4129 c-22 -13 -47 -61 -47 -93 0 -14 13 -40 29 -58 24 -27 36
-33 71 -33 35 0 47 6 71 33 40 44 40 93 0 133 -23 22 -39 29 -68 29 -21 0 -46
-5 -56 -11z m105 -36 c39 -35 6 -123 -47 -123 -36 0 -75 37 -75 71 0 58 78 92
122 52z"/>
<path d="M5914 4123 c3 -8 6 -19 6 -25 0 -5 7 -3 15 6 20 19 19 23 -6 29 -15
4 -19 2 -15 -10z"/>
<path d="M3560 4114 c-17 -9 -20 -14 -9 -14 9 0 32 -3 50 -7 l34 -6 -19 21
c-22 25 -22 25 -56 6z"/>
<path d="M3422 4100 c-12 -20 -11 -21 25 -14 55 10 59 17 13 29 -19 4 -28 1
-38 -15z"/>
<path d="M3828 4096 c-23 -17 -39 -61 -31 -83 22 -64 94 -83 138 -38 51 50 15
135 -57 135 -18 0 -41 -6 -50 -14z m96 -39 c14 -23 -4 -68 -31 -78 -34 -12
-78 28 -70 63 12 45 76 55 101 15z"/>
<path d="M5952 4098 c-18 -18 -15 -56 6 -66 9 -6 27 -6 40 -1 38 14 24 79 -18
79 -9 0 -21 -5 -28 -12z"/>
<path d="M3125 4075 c-16 -15 -25 -36 -25 -55 0 -71 91 -107 140 -55 71 75
-42 184 -115 110z m99 -24 c23 -25 18 -49 -16 -74 -25 -19 -28 -19 -52 -3 -28
18 -35 63 -14 84 18 18 63 14 82 -7z"/>
<path d="M6443 4081 c-76 -35 -92 -111 -44 -212 22 -46 126 -179 141 -179 4 0
11 7 14 16 4 11 -6 28 -32 53 -90 84 -103 185 -31 246 36 30 103 34 151 9 25
-13 32 -14 39 -2 9 14 -8 31 -66 69 -39 25 -117 25 -172 0z m98 -22 c-58 -11
-109 -60 -117 -111 -8 -48 -24 -39 -24 13 0 76 39 109 130 108 l55 -1 -44 -9z"/>
<path d="M5516 4081 c-6 -9 -22 -12 -50 -9 -41 5 -42 4 -38 -21 2 -14 -8 -47
-21 -73 -21 -41 -22 -48 -8 -47 30 1 56 15 43 23 -16 9 -15 49 0 64 7 7 24 12
40 12 36 0 55 -32 39 -67 -14 -32 -14 -33 7 -33 62 0 185 -101 221 -181 16
-34 20 -37 31 -24 29 35 88 -2 76 -48 -5 -21 -2 -25 24 -31 17 -3 41 -16 55
-30 l24 -24 6 57 c4 31 13 94 21 141 19 115 19 120 -9 120 -13 0 -32 9 -42 20
-15 17 -16 24 -7 45 6 14 17 25 23 25 7 0 5 8 -6 20 -18 20 -18 20 -37 -22
-11 -24 -26 -51 -35 -60 -15 -17 -15 -18 6 -18 59 0 110 -61 97 -116 -11 -42
-50 -74 -90 -74 -66 0 -118 73 -93 130 6 13 -4 15 -62 15 -61 0 -74 4 -112 30
-52 37 -78 79 -88 142 -4 33 -9 44 -15 34z m426 -396 c-4 -21 -9 -24 -26 -19
-35 11 -41 23 -15 33 39 16 47 13 41 -14z"/>
<path d="M4797 4066 c-89 -33 -147 -116 -147 -211 0 -134 94 -230 225 -229
177 2 282 180 199 336 -52 96 -175 142 -277 104z m191 -48 c47 -31 92 -114 92
-167 -1 -106 -103 -201 -215 -201 -79 1 -166 76 -184 160 -20 95 24 182 114
226 48 23 144 14 193 -18z"/>
<path d="M3722 4061 c-24 -6 -24 -6 7 -29 17 -12 31 -22 33 -22 2 0 4 14 5 30
2 31 -3 33 -45 21z"/>
<path d="M3299 4047 c0 -1 -2 -12 -5 -25 -4 -22 -3 -22 21 -6 14 9 25 18 25
19 0 3 -40 14 -41 12z"/>
<path d="M3990 4011 c0 -11 -11 -32 -24 -48 l-24 -29 34 -1 c19 -1 41 -7 49
-13 19 -16 19 -5 -1 53 -17 51 -34 70 -34 38z"/>
<path d="M6007 4015 c-14 -10 -15 -14 -3 -24 11 -9 15 -7 19 11 8 28 6 29 -16
13z"/>
<path d="M3043 3974 c-11 -27 -24 -64 -28 -83 l-7 -35 32 27 c19 16 44 27 62
27 l31 0 -27 26 c-14 15 -30 41 -34 57 l-8 31 -21 -50z"/>
<path d="M5450 4005 c-18 -22 -1 -50 31 -50 20 0 24 5 24 30 0 23 -5 31 -21
33 -11 2 -27 -4 -34 -13z"/>
<path d="M6499 3981 c-35 -35 -38 -76 -10 -136 24 -53 76 -102 84 -81 4 9 -1
17 -12 21 -26 8 -44 55 -33 86 15 39 47 62 81 57 24 -3 32 0 40 19 15 32 15
30 -19 48 -48 25 -97 19 -131 -14z m116 -11 c4 -6 -5 -10 -20 -10 -17 0 -39
-12 -61 -34 l-34 -34 0 26 c0 38 27 62 71 62 21 0 41 -4 44 -10z"/>
<path d="M5943 3974 c-15 -39 38 -67 60 -32 8 12 7 21 -2 32 -17 21 -50 20
-58 0z"/>
<path d="M3491 3970 c-131 -30 -196 -183 -125 -297 83 -133 279 -121 345 22
66 143 -67 310 -220 275z m90 -31 c78 -26 123 -95 117 -176 -11 -126 -141
-194 -252 -130 -56 31 -91 100 -82 161 9 60 42 107 96 134 50 25 72 27 121 11z"/>
<path d="M3475 3916 c-41 -18 -83 -69 -91 -111 -18 -98 49 -175 153 -175 158
0 203 216 59 284 -41 19 -80 20 -121 2z m123 -36 c67 -41 77 -133 21 -189
-105 -106 -278 45 -182 159 45 54 104 65 161 30z"/>
<path d="M5180 3934 c6 -14 10 -51 10 -82 l0 -57 58 55 59 55 -36 6 c-42 6
-81 25 -81 39 0 6 -4 10 -10 10 -6 0 -6 -9 0 -26z"/>
<path d="M7061 3789 c-49 -358 -22 -531 102 -666 75 -81 161 -104 273 -74 120
32 185 139 134 220 -21 34 -21 34 -36 12 -18 -26 -76 -51 -116 -51 -42 0 -68
17 -84 56 -20 47 -2 115 39 150 33 27 33 26 -32 72 -68 47 -187 246 -227 377
-10 33 -20 63 -24 67 -3 4 -16 -69 -29 -163z m49 27 c0 -48 158 -291 217 -334
l26 -19 -23 -31 c-34 -45 -39 -135 -11 -180 36 -57 106 -68 185 -28 54 27 63
21 52 -38 -12 -64 -80 -106 -198 -122 -83 -12 -174 50 -233 157 -60 111 -75
245 -51 451 9 75 16 142 16 148 0 5 5 10 10 10 6 0 10 -7 10 -14z"/>
<path d="M6272 3823 c-34 -69 -60 -129 -57 -131 3 -3 13 2 22 10 42 35 122 49
192 33 l34 -7 -35 48 c-45 62 -78 127 -78 154 0 41 -17 17 -78 -107z m98 -13
c27 -37 26 -40 -14 -40 -19 0 -46 -4 -60 -10 -14 -5 -26 -7 -26 -4 0 2 14 33
31 67 29 57 32 60 40 38 5 -13 18 -36 29 -51z"/>
<path d="M3825 3912 c4 -9 10 -27 12 -40 6 -27 23 -40 23 -18 0 9 9 25 21 37
25 25 25 25 -24 32 -34 5 -38 4 -32 -11z"/>
<path d="M4545 3910 c-41 -45 -163 -51 -200 -10 -26 29 -35 24 -24 -12 6 -18
13 -39 15 -47 4 -11 8 -11 22 3 38 34 88 5 78 -46 -5 -25 -3 -28 20 -28 22 0
23 2 14 20 -25 46 22 94 65 66 23 -15 23 -15 27 27 3 23 4 43 3 45 -1 1 -10
-7 -20 -18z"/>
<path d="M3203 3912 c-18 -2 -33 -5 -33 -8 0 -6 41 -46 44 -42 8 9 27 50 24
51 -2 1 -18 1 -35 -1z"/>
<path d="M6566 3888 c-20 -28 -20 -62 -1 -78 9 -7 17 -11 19 -9 11 13 43 98
38 103 -12 13 -42 5 -56 -16z"/>
<path d="M3912 3877 c-47 -50 -10 -137 58 -137 69 0 107 91 57 138 -32 30 -87
29 -115 -1z m93 -21 c36 -36 15 -86 -35 -86 -48 0 -69 46 -39 84 25 32 43 33
74 2z"/>
<path d="M5836 3874 c-38 -37 -27 -96 20 -114 46 -18 94 16 94 66 0 55 -76 87
-114 48z m65 -14 c23 -13 25 -52 4 -70 -12 -10 -21 -10 -40 -2 -29 13 -33 43
-9 66 18 19 20 19 45 6z"/>
<path d="M3055 3855 c-16 -15 -25 -36 -25 -55 0 -71 91 -107 140 -55 72 77
-41 185 -115 110z m98 -23 c21 -19 22 -40 0 -64 -19 -22 -66 -24 -82 -4 -20
23 -9 69 18 83 26 12 34 10 64 -15z"/>
<path d="M4369 3831 l-24 -20 21 -21 21 -21 24 20 24 20 -21 21 -21 21 -24
-20z"/>
<path d="M4484 3836 c-10 -26 1 -51 23 -54 28 -4 50 32 32 54 -15 18 -48 18
-55 0z"/>
<path d="M5380 3837 c-53 -17 -123 -93 -139 -150 -58 -206 167 -372 344 -255
223 148 52 486 -205 405z m158 -32 c145 -61 165 -260 34 -348 -61 -41 -125
-46 -195 -14 -73 33 -109 86 -115 166 -11 150 136 254 276 196z"/>
<path d="M4551 3786 c-7 -9 -25 -16 -38 -16 l-25 0 31 -29 c38 -35 42 -85 10
-125 l-20 -26 44 0 c68 0 126 -36 158 -97 l26 -50 16 33 c12 25 26 36 56 44
43 11 66 6 96 -21 20 -17 21 -17 41 14 l21 32 -96 0 c-87 0 -100 3 -143 28
-84 49 -141 122 -157 201 -6 26 -8 27 -20 12z"/>
<path d="M3853 3766 c3 -7 2 -30 -3 -50 -7 -34 1 -49 15 -26 8 14 78 13 109
-1 14 -7 33 -28 42 -48 16 -33 17 -34 25 -13 5 12 11 45 15 74 l7 52 -28 -22
c-46 -36 -130 -23 -155 23 -14 26 -36 35 -27 11z"/>
<path d="M4350 3744 c0 -39 8 -42 31 -11 16 22 15 23 -7 34 -23 11 -24 9 -24
-23z"/>
<path d="M3006 3719 c10 -70 24 -119 34 -119 6 0 10 7 10 16 0 8 15 28 32 45
31 28 32 29 9 29 -14 0 -37 14 -58 36 l-34 36 7 -43z"/>
<path d="M4401 3714 c-24 -31 -25 -35 -9 -69 29 -64 128 -41 128 30 0 64 -79
90 -119 39z m77 -6 c24 -24 8 -78 -24 -78 -17 0 -44 28 -44 45 0 17 27 45 44
45 6 0 17 -5 24 -12z"/>
<path d="M3181 3709 c-28 -23 -27 -24 16 -34 l32 -6 -10 30 c-6 17 -12 31 -12
31 -1 -1 -13 -10 -26 -21z"/>
<path d="M5785 3710 c-14 -16 -15 -22 -5 -35 28 -34 77 -4 53 33 -15 24 -28
24 -48 2z"/>
<path d="M2732 3693 c-19 -48 -32 -105 -47 -203 -16 -107 -8 -243 19 -319 16
-44 66 -131 76 -131 3 0 3 28 2 62 -5 73 6 113 61 231 l40 88 49 -48 c27 -26
59 -69 72 -95 21 -42 24 -45 30 -25 18 69 -8 232 -49 302 -34 60 -107 121
-171 145 -69 25 -69 25 -82 -7z m93 -29 c106 -49 185 -177 185 -296 l0 -39
-56 60 c-31 34 -63 61 -71 61 -18 0 -108 -187 -125 -258 -14 -65 -23 -54 -44
55 -19 93 -13 216 17 341 19 84 26 102 35 102 3 0 29 -11 59 -26z"/>
<path d="M6280 3704 c-52 -23 -88 -61 -106 -117 -28 -86 -5 -173 66 -248 36
-38 143 -95 189 -101 42 -5 34 18 -12 36 -98 37 -187 156 -173 230 8 41 58 88
111 106 36 12 116 10 147 -4 13 -6 19 -2 24 20 9 35 -17 58 -89 79 -63 19
-112 19 -157 -1z m163 -30 c64 -22 68 -34 9 -27 -164 19 -282 -112 -216 -240
9 -16 13 -31 10 -34 -10 -11 -56 102 -56 138 0 139 111 211 253 163z"/>
<path d="M5124 3655 c-9 -14 -35 -38 -57 -55 -40 -29 -40 -30 -13 -30 33 0 81
-24 96 -47 8 -14 9 -8 3 22 -5 22 -8 61 -7 88 1 26 0 47 -2 47 -2 0 -11 -11
-20 -25z"/>
<path d="M3862 3647 c-49 -52 -13 -137 57 -137 68 0 104 78 60 134 -27 35 -86
36 -117 3z m86 -13 c25 -18 30 -65 8 -83 -25 -21 -69 -9 -86 22 -14 27 -14 29
13 53 33 28 36 29 65 8z"/>
<path d="M3124 3650 c-28 -11 -54 -48 -54 -78 0 -13 13 -37 29 -53 33 -32 65
-37 99 -13 52 36 48 110 -9 139 -32 17 -36 17 -65 5z m66 -40 c24 -24 25 -38
4 -68 -18 -26 -50 -28 -76 -5 -25 22 -23 59 4 77 30 21 44 20 68 -4z"/>
<path d="M5780 3628 c0 -17 2 -18 15 -8 8 7 15 14 15 15 0 2 -7 5 -15 9 -10 4
-15 -1 -15 -16z"/>
<path d="M4360 3562 c0 -39 -2 -79 -5 -89 -5 -15 -4 -15 7 2 7 11 32 39 54 62
31 33 37 43 23 43 -9 0 -31 12 -48 26 l-31 26 0 -70z"/>
<path d="M5811 3594 c-12 -15 -21 -30 -21 -35 0 -24 26 -59 52 -70 25 -10 33
-9 56 8 33 25 41 76 16 104 -26 29 -78 25 -103 -7z m79 -14 c25 -25 25 -32 1
-54 -40 -36 -91 15 -55 55 22 24 29 24 54 -1z"/>
<path d="M3782 3570 c-16 -26 -16 -27 11 -32 20 -4 23 -1 19 24 -5 33 -13 35
-30 8z"/>
<path d="M6334 3581 c-30 -13 -64 -59 -64 -88 0 -30 23 -86 51 -121 27 -35 97
-82 121 -82 27 0 22 29 -7 40 -43 16 -75 59 -75 99 1 60 56 108 109 96 27 -6
31 -3 37 20 3 14 3 29 0 33 -11 11 -148 13 -172 3z m116 -21 c0 -5 -7 -10 -16
-10 -47 0 -104 -63 -104 -117 l-1 -28 -14 25 c-20 36 -19 84 4 104 32 29 131
49 131 26z"/>
<path d="M3266 3554 c-9 -33 -6 -35 28 -26 l27 7 -24 23 -25 23 -6 -27z"/>
<path d="M4484 3526 c-47 -21 -78 -71 -78 -127 0 -83 59 -139 146 -139 39 0
54 6 83 31 49 44 63 95 41 154 -10 25 -31 54 -48 66 -37 27 -103 34 -144 15z
m117 -32 c60 -31 75 -127 26 -172 -56 -53 -132 -45 -174 17 -27 40 -29 71 -8
111 29 55 98 75 156 44z"/>
<path d="M5023 3528 c-41 -11 -63 -42 -63 -89 0 -29 7 -43 31 -63 17 -15 43
-26 59 -26 16 0 42 11 59 26 24 20 31 34 31 63 0 67 -52 107 -117 89z m75 -45
c31 -41 1 -103 -49 -103 -35 0 -72 44 -63 74 15 53 80 70 112 29z"/>
<path d="M5754 3507 c-4 -12 -18 -39 -31 -59 l-23 -38 33 0 c22 0 43 -9 61
-25 l26 -24 0 23 c0 50 63 73 100 36 25 -25 25 -41 -1 -74 -24 -30 -45 -33
-78 -9 -24 16 -24 16 -18 -7 13 -51 -38 -110 -96 -110 -15 0 -4 -11 38 -34 58
-32 81 -38 57 -14 -18 18 -15 42 9 72 24 31 72 35 101 9 17 -16 18 -11 18 116
l0 132 -26 -20 c-42 -33 -90 -28 -130 14 -32 34 -33 35 -40 12z"/>
<path d="M3725 3509 c-33 -19 -45 -41 -45 -80 0 -79 97 -105 147 -40 45 58
-38 155 -102 120z m67 -36 c24 -22 24 -69 -1 -83 -31 -16 -59 -12 -75 12 -21
30 -20 44 4 68 24 24 47 25 72 3z"/>
<path d="M3274 3490 c-28 -11 -54 -48 -54 -78 0 -32 52 -82 85 -82 30 0 85 49
85 75 0 29 -30 76 -56 85 -29 12 -32 12 -60 0z m66 -40 c24 -24 25 -47 3 -72
-20 -22 -51 -23 -75 -1 -25 22 -23 59 4 77 30 21 44 20 68 -4z"/>
<path d="M4792 3484 c-52 -36 -5 -134 58 -119 54 13 73 65 40 108 -25 31 -63
36 -98 11z m78 -29 c16 -19 4 -52 -22 -61 -30 -9 -62 29 -48 57 13 22 52 25
70 4z"/>
<path d="M6401 3474 c-12 -15 -21 -35 -21 -45 0 -22 44 -75 69 -82 16 -4 20 4
30 64 15 92 16 89 -23 89 -25 0 -40 -7 -55 -26z m54 -36 c-9 -52 -10 -54 -30
-38 -22 18 -19 46 7 64 12 9 24 16 26 16 2 0 1 -19 -3 -42z"/>
<path d="M3868 3440 c4 -39 0 -51 -24 -80 l-29 -35 30 22 c28 20 78 70 117
118 16 20 15 20 -41 20 l-58 0 5 -45z"/>
<path d="M3406 3462 c11 -24 8 -85 -6 -111 -6 -13 -29 -31 -51 -40 l-40 -18
66 -22 c36 -11 80 -21 98 -21 l32 0 -31 19 c-57 35 -69 118 -24 166 l20 22
-36 11 c-32 9 -35 9 -28 -6z"/>
<path d="M3129 3434 c14 -16 35 -37 46 -46 19 -15 20 -14 20 31 l0 46 -46 0
-47 0 27 -31z"/>
<path d="M3613 3464 c-8 -4 -4 -17 13 -41 38 -56 30 -103 -24 -151 l-27 -24
44 6 c45 7 168 51 186 67 5 6 -9 7 -35 3 -37 -5 -50 -2 -74 17 -33 26 -59 82
-51 110 6 19 -5 23 -32 13z"/>
<path d="M5174 3429 c0 -35 -6 -47 -37 -75 -20 -19 -37 -35 -37 -37 0 -1 66
-2 148 -3 121 -1 141 1 112 10 -19 6 -49 19 -66 28 -33 18 -104 92 -104 108 0
6 -3 10 -7 10 -5 0 -8 -19 -9 -41z"/>
<path d="M3501 3436 c-26 -14 -50 -51 -51 -78 0 -9 12 -30 26 -47 34 -41 75
-42 115 -2 44 45 36 97 -21 126 -35 18 -38 18 -69 1z m69 -36 c11 -11 20 -28
20 -37 0 -23 -30 -53 -53 -53 -26 0 -57 28 -57 52 0 22 34 58 55 58 8 0 24 -9
35 -20z"/>
<path d="M6122 3373 c-7 -43 -16 -125 -19 -183 l-5 -105 32 38 c40 47 112 97
162 111 l39 12 -50 33 c-58 37 -106 91 -123 139 -7 17 -15 32 -18 32 -3 0 -11
-35 -18 -77z m93 -141 c-22 -13 -51 -33 -64 -45 l-24 -22 8 84 c3 46 9 89 11
96 3 8 25 -7 57 -39 l52 -51 -40 -23z"/>
<path d="M3075 3430 c14 -22 5 -193 -16 -294 -12 -59 -19 -109 -16 -112 3 -3
17 5 32 18 38 33 205 216 205 226 0 4 -17 16 -37 27 -21 11 -66 48 -101 83
-61 59 -81 74 -67 52z m153 -159 c13 -7 2 -24 -63 -95 -43 -48 -79 -85 -81
-83 -2 1 3 39 11 82 8 44 14 104 15 133 l0 52 51 -40 c28 -22 58 -44 67 -49z"/>
<path d="M2611 3400 c-8 -19 -30 -66 -48 -104 -18 -38 -33 -73 -33 -76 0 -4
14 -13 30 -20 17 -7 49 -26 72 -43 32 -23 39 -25 33 -11 -19 49 -28 97 -34
189 -6 99 -6 100 -20 65z m1 -145 c3 -48 1 -52 -25 -32 -15 10 -16 16 -5 45
17 44 25 40 30 -13z"/>
<path d="M5840 3401 c-16 -31 4 -63 37 -59 34 4 52 32 37 56 -16 26 -60 28
-74 3z"/>
<path d="M4341 3382 c-1 -13 -14 -57 -31 -99 -37 -92 -38 -117 -5 -139 35 -23
115 -14 197 22 82 36 85 39 35 40 -88 2 -157 60 -182 152 -8 29 -14 38 -14 24z
m54 -137 c29 -28 31 -42 9 -73 -18 -26 -60 -29 -86 -5 -25 23 -23 68 4 87 31
22 45 20 73 -9z"/>
<path d="M4326 3234 c-22 -22 -20 -41 8 -59 29 -19 54 -10 62 21 12 46 -37 72
-70 38z"/>
<path d="M4740 3381 c0 -36 -28 -91 -62 -124 -22 -20 -26 -28 -13 -22 47 19
200 55 280 66 82 12 85 13 57 24 -16 7 -38 25 -50 40 l-22 28 -26 -27 c-39
-38 -96 -36 -135 5 -27 29 -29 29 -29 10z"/>
<path d="M5703 3380 c-44 -18 -56 -77 -23 -110 41 -41 120 -12 120 44 0 47
-53 83 -97 66z m48 -30 c25 -14 25 -56 -1 -70 -42 -22 -82 34 -48 68 15 15 24
15 49 2z"/>
<path d="M5585 3334 c-34 -16 -69 -24 -110 -25 -66 -1 -71 1 80 -39 44 -11 89
-23 100 -26 12 -3 16 -2 9 3 -22 16 -35 55 -29 84 4 16 5 29 3 28 -2 0 -25
-11 -53 -25z"/>
<path d="M2888 3308 c-52 -82 -76 -186 -58 -244 18 -56 79 -114 119 -114 5 0
19 30 31 66 18 52 21 77 15 122 -8 68 -38 142 -69 171 l-23 22 -15 -23z m53
-75 c28 -58 32 -169 8 -222 l-15 -35 -40 36 c-38 35 -39 39 -38 100 0 61 35
168 54 168 5 0 18 -21 31 -47z"/>
<path d="M3281 3191 l-52 -60 58 29 c32 17 83 36 113 44 l55 14 -45 11 c-25 7
-52 14 -61 17 -11 3 -34 -16 -68 -55z"/>
<path d="M5846 3234 c-21 -21 -20 -47 3 -68 26 -24 62 -17 80 16 14 24 14 28
-3 47 -23 25 -58 27 -80 5z m62 -33 c-2 -9 -11 -17 -21 -19 -21 -4 -35 27 -17
38 19 12 42 0 38 -19z"/>
<path d="M6260 3198 c-53 -26 -121 -93 -144 -142 -53 -112 16 -248 149 -293
61 -21 206 -24 212 -5 3 8 -11 12 -49 12 -120 0 -218 54 -239 133 -30 111 48
193 204 212 l57 7 0 38 c0 30 -5 39 -25 48 -42 19 -115 14 -165 -10z m158 -31
c4 -19 2 -20 -82 -36 -69 -13 -129 -48 -156 -94 -22 -36 -28 -134 -10 -168 18
-32 1 -21 -20 14 -31 51 -27 132 9 189 26 41 89 95 131 111 8 3 40 5 70 4 43
-2 56 -6 58 -20z"/>
<path d="M5932 3153 c-17 -19 -31 -24 -52 -21 -29 4 -28 3 18 -41 26 -25 60
-63 76 -84 16 -21 30 -36 33 -34 2 2 -3 22 -11 43 -13 38 -32 141 -28 157 4
14 -13 5 -36 -20z"/>
<path d="M3403 3155 c-47 -13 -153 -61 -153 -68 0 -2 24 -4 53 -5 29 -1 84
-11 122 -23 74 -22 195 -84 195 -99 0 -5 -24 -35 -54 -67 -50 -54 -72 -68
-176 -111 -21 -9 -16 -11 35 -11 76 -1 237 23 335 50 90 24 230 87 230 104 0
35 -145 136 -296 207 -57 27 -83 33 -154 35 -53 2 -105 -3 -137 -12z m308 -62
c105 -51 239 -140 239 -157 0 -29 -227 -107 -362 -124 -38 -5 -68 -7 -68 -5 0
1 21 22 46 45 25 23 54 59 65 80 19 38 19 38 -2 59 -29 29 -151 86 -215 100
-30 7 -54 15 -54 19 0 15 89 28 175 27 84 -2 96 -5 176 -44z"/>
<path d="M2509 3133 c-28 -73 -21 -171 17 -258 l18 -40 6 52 c4 35 13 60 27
75 l22 21 66 -63 66 -64 -7 44 c-16 107 -69 192 -149 242 -41 25 -54 23 -66
-9z m113 -70 c28 -29 70 -105 62 -112 -2 -3 -17 7 -32 21 -43 40 -60 42 -94 8
-16 -17 -32 -30 -35 -30 -8 0 2 154 11 168 9 14 43 -8 88 -55z"/>
<path d="M4433 3090 c-110 -23 -217 -99 -258 -185 -60 -128 -34 -244 70 -317
174 -121 481 31 511 255 19 140 -163 279 -323 247z m168 -51 c78 -39 129 -113
129 -184 0 -42 -40 -133 -71 -161 l-22 -19 22 42 c27 55 28 151 2 209 -23 51
-84 103 -147 126 l-49 18 50 -6 c27 -3 66 -14 86 -25z m-66 -27 c54 -26 95
-74 111 -130 43 -148 -70 -285 -222 -269 -161 17 -243 193 -152 327 31 46 68
70 125 85 52 14 91 10 138 -13z m-305 -92 c-24 -48 -27 -141 -5 -193 29 -70
117 -137 179 -137 14 0 28 -4 31 -10 12 -20 -89 -10 -140 14 -109 51 -146 141
-110 263 13 44 48 103 61 103 2 0 -5 -18 -16 -40z"/>
<path d="M4379 2933 c-59 -37 -81 -129 -42 -181 11 -15 36 -35 57 -46 113 -56
232 83 160 188 -36 53 -122 72 -175 39z m142 -40 c13 -16 12 -17 -3 -4 -17 13
-22 21 -14 21 2 0 10 -8 17 -17z m-28 -20 c40 -46 11 -123 -47 -123 -60 0 -92
75 -51 120 23 25 76 26 98 3z"/>
<path d="M6320 3078 c-82 -23 -125 -85 -109 -156 11 -51 33 -77 86 -102 54
-25 173 -40 173 -21 0 6 -15 11 -34 11 -46 0 -85 16 -118 47 -35 33 -43 72
-24 116 17 43 60 67 116 67 36 0 40 2 40 25 0 23 -3 25 -47 24 -27 0 -64 -5
-83 -11z m-34 -63 c-27 -29 -35 -65 -24 -107 10 -40 -8 -34 -22 6 -15 45 -4
81 32 111 38 32 47 26 14 -10z"/>
<path d="M2402 3020 c-47 -66 -49 -70 -26 -70 9 0 32 -9 50 -21 l34 -21 -8 34
c-4 18 -7 57 -6 86 0 28 0 52 -1 52 0 0 -20 -27 -43 -60z"/>
<path d="M3175 3012 c-60 -21 -137 -80 -133 -101 2 -9 29 -28 60 -44 44 -23
74 -30 139 -34 138 -9 249 29 284 98 15 28 15 29 -25 49 -98 50 -234 63 -325
32z m260 -36 c33 -13 60 -29 60 -37 0 -17 -58 -56 -104 -69 -87 -24 -269 -3
-301 35 -10 13 -8 19 15 38 76 61 219 76 330 33z"/>
<path d="M6354 3006 c-34 -15 -44 -32 -44 -78 0 -38 48 -85 96 -94 58 -11 61
-6 52 86 -4 44 -10 85 -13 91 -9 13 -55 11 -91 -5z m74 -83 c2 -38 -1 -63 -7
-63 -48 0 -100 64 -81 99 12 23 27 30 60 28 23 -2 25 -6 28 -64z"/>
<path d="M2755 2984 c4 -11 10 -59 14 -107 l6 -88 68 52 c37 29 67 55 67 58 0
4 -16 13 -35 20 -19 7 -56 28 -82 48 -32 25 -44 30 -38 17z m80 -76 l25 -11
-22 -24 c-30 -32 -38 -29 -38 12 0 39 0 39 35 23z"/>
<path d="M4102 2916 c-43 -23 -131 -118 -157 -169 -18 -37 -25 -67 -25 -108 0
-49 5 -63 33 -100 20 -26 55 -54 92 -73 50 -26 72 -31 131 -31 62 0 76 4 113
29 l43 30 -53 23 c-82 36 -118 69 -150 137 -33 70 -39 161 -14 231 8 21 13 40
12 41 -1 1 -12 -3 -25 -10z m-30 -115 c-9 -119 47 -228 145 -283 54 -31 55
-31 32 -44 -45 -25 -121 -17 -190 19 -80 41 -109 81 -109 150 0 62 26 118 80
175 23 23 42 42 44 42 1 0 0 -26 -2 -59z"/>
<path d="M2333 2895 c-23 -17 -22 -92 2 -164 17 -51 35 -68 35 -32 0 27 34 66
75 85 19 9 35 21 35 26 0 13 -87 87 -110 93 -10 3 -27 -1 -37 -8z m70 -46 l37
-31 -40 -29 c-22 -16 -42 -29 -44 -29 -8 0 -18 89 -12 105 8 21 17 19 59 -16z"/>
<path d="M2594 2885 c-9 -34 19 -105 54 -139 28 -26 29 -26 46 -7 25 28 13 70
-35 125 -23 25 -45 46 -50 46 -5 0 -11 -11 -15 -25z m72 -76 c30 -59 8 -68
-24 -10 -27 47 -29 70 -6 50 8 -7 22 -25 30 -40z"/>
<path d="M2938 2857 c-16 -13 -28 -25 -28 -27 0 -3 27 -3 61 -2 l61 4 -23 24
c-28 29 -36 29 -71 1z"/>
<path d="M2246 2835 c-3 -9 0 -15 9 -15 8 0 15 7 15 15 0 8 -4 15 -9 15 -5 0
-11 -7 -15 -15z"/>
<path d="M6110 2817 c0 -24 103 -274 121 -292 5 -5 9 1 9 18 0 58 39 124 95
158 19 12 24 19 14 19 -48 0 -149 43 -193 81 -44 39 -46 40 -46 16z m157 -107
c15 0 17 -16 3 -25 -6 -3 -19 -23 -29 -43 l-19 -37 -25 57 c-45 100 -45 99 9
72 26 -13 53 -24 61 -24z"/>
<path d="M3832 2794 c-123 -47 -252 -66 -413 -62 l-147 3 39 -42 c22 -24 49
-64 61 -90 13 -27 23 -49 24 -51 3 -6 289 129 370 175 73 41 150 94 134 92 -3
-1 -33 -12 -68 -25z m-145 -79 c-35 -26 -270 -126 -277 -118 -4 4 -19 29 -33
54 l-26 46 137 6 c75 4 153 11 172 16 48 12 47 12 27 -4z"/>
<path d="M2925 2775 c-46 -9 -55 -14 -40 -19 11 -5 32 -12 47 -18 31 -11 112
-113 103 -128 -3 -6 -18 -10 -33 -10 -15 -1 -54 -6 -87 -13 l-59 -13 49 -21
c67 -28 106 -39 200 -58 89 -18 154 -9 200 27 50 39 19 114 -75 183 -94 69
-197 93 -305 70z m198 -42 c54 -21 131 -76 158 -114 31 -45 22 -70 -34 -93
l-49 -20 -111 22 c-110 23 -158 42 -105 42 33 0 80 17 90 33 6 11 -35 76 -79
124 -13 13 -23 27 -23 30 0 10 109 -7 153 -24z"/>
<path d="M2210 2743 c-37 -47 -66 -134 -40 -118 18 11 51 -6 61 -33 l11 -27
16 30 c27 51 15 175 -18 175 -5 0 -18 -12 -30 -27z m39 -75 c1 -29 -12 -35
-39 -18 -12 8 -12 14 4 47 17 34 19 36 27 18 4 -11 8 -32 8 -47z"/>
<path d="M2441 2724 c-34 -28 -41 -70 -17 -112 l12 -23 32 29 c28 26 32 37 32
81 0 60 -12 65 -59 25z m39 -23 c0 -20 -20 -61 -30 -61 -14 0 -13 43 2 58 14
14 28 16 28 3z"/>
<path d="M2118 2715 c-15 -13 -36 -30 -48 -38 l-21 -15 28 -28 28 -29 22 65
c12 36 21 66 20 67 -1 1 -14 -9 -29 -22z"/>
<path d="M2552 2695 c-1 -25 2 -45 6 -45 6 0 40 20 61 36 4 3 -51 53 -59 54
-3 0 -7 -20 -8 -45z"/>
<path d="M6403 2706 c-60 -19 -98 -50 -122 -99 -37 -76 -22 -143 41 -190 46
-34 91 -47 164 -47 56 0 64 2 64 19 0 16 -4 17 -49 8 -66 -13 -118 -2 -153 33
-23 23 -28 37 -28 77 0 85 66 153 150 153 34 0 34 -1 20 34 -11 29 -25 31 -87
12z"/>
<path d="M2783 2700 c-31 -13 -29 -24 8 -51 33 -23 86 -28 149 -14 37 8 35 22
-10 53 -35 23 -104 29 -147 12z m125 -29 c10 -6 4 -10 -18 -15 -36 -7 -80 1
-80 15 0 11 81 12 98 0z"/>
<path d="M3822 2624 c-55 -84 -59 -108 -32 -173 39 -90 136 -152 215 -137 17
4 54 20 80 37 l49 31 -64 24 c-91 33 -139 70 -173 134 -23 45 -28 64 -24 103
2 26 1 47 -2 47 -3 0 -25 -30 -49 -66z m32 -58 c11 -59 68 -121 147 -160 l72
-36 -36 -15 c-63 -26 -118 -14 -175 39 -29 25 -62 88 -62 115 0 23 30 91 41
91 4 0 10 -15 13 -34z"/>
<path d="M2635 2641 l-60 -36 58 -7 c31 -4 81 -19 111 -33 59 -28 132 -99 142
-139 3 -14 13 -26 22 -26 25 0 172 42 172 49 0 3 -26 11 -57 17 -133 26 -272
106 -311 178 l-17 33 -60 -36z m315 -185 l32 -13 -33 -7 c-22 -4 -35 -2 -41 6
-19 31 -7 35 42 14z"/>
<path d="M6411 2622 c-54 -29 -85 -104 -65 -157 10 -25 59 -45 113 -45 85 0
116 24 34 26 -38 1 -52 7 -70 28 -46 54 -12 126 59 126 23 0 29 4 24 16 -3 9
-6 18 -6 20 0 11 -59 2 -89 -14z"/>
<path d="M2296 2573 c-15 -31 -24 -58 -22 -60 3 -4 82 32 94 42 3 3 -38 75
-43 75 -2 0 -15 -25 -29 -57z"/>
<path d="M6120 2546 c0 -144 -39 -251 -188 -509 -98 -170 -139 -276 -150 -384
-21 -205 39 -338 186 -412 58 -29 132 -54 132 -44 0 3 -13 20 -30 39 -36 42
-46 91 -30 151 31 108 128 147 195 80 44 -44 53 -93 29 -144 -12 -23 -32 -44
-51 -53 -39 -18 -40 -25 -8 -46 22 -15 32 -15 68 -4 56 17 121 62 146 104 33
52 61 179 61 270 0 170 -45 349 -146 581 -31 72 -78 181 -104 243 -27 63 -62
135 -79 160 l-31 47 0 -79z m89 -151 c137 -315 166 -387 193 -480 40 -140 51
-223 45 -350 -7 -170 -40 -243 -130 -295 -69 -39 -96 -40 -57 -2 60 60 58 151
-3 219 -62 67 -165 52 -216 -30 -29 -48 -44 -121 -32 -165 6 -20 9 -38 7 -40
-8 -8 -87 40 -121 73 -45 45 -70 95 -85 170 -29 139 17 305 142 521 127 217
174 330 193 457 4 26 9 47 10 45 1 -2 26 -57 54 -123z"/>
<path d="M1995 2576 c-30 -40 -59 -120 -51 -142 5 -13 9 -13 35 0 54 28 90 99
77 151 -9 34 -30 31 -61 -9z m21 -64 c-14 -28 -46 -61 -46 -48 0 4 12 30 27
59 17 34 28 46 31 35 2 -9 -4 -30 -12 -46z"/>
<path d="M1919 2575 c-38 -37 -312 -155 -360 -155 -32 0 -22 -18 19 -32 40
-14 213 -17 273 -5 35 7 36 9 42 61 3 29 15 72 27 96 23 45 23 58 -1 35z m-53
-114 l-10 -50 -60 -6 c-79 -8 -179 -3 -151 8 11 5 65 28 120 52 55 23 103 43
106 44 3 1 1 -21 -5 -48z"/>
<path d="M2164 2556 c-7 -30 -2 -56 11 -59 6 -1 11 17 13 41 3 45 -13 58 -24
18z"/>
<path d="M6432 2558 c-28 -28 -1 -82 48 -91 52 -11 59 -2 46 51 -11 44 -15 47
-47 50 -19 2 -40 -3 -47 -10z m68 -49 c0 -22 -4 -23 -31 -9 -21 12 -25 36 -6
43 17 6 37 -12 37 -34z"/>
<path d="M2525 2554 c-49 -12 -49 -14 -15 -49 59 -61 132 -74 138 -24 6 51
-57 89 -123 73z m76 -34 c23 -13 25 -40 3 -40 -19 0 -74 31 -74 42 0 11 48 10
71 -2z"/>
<path d="M2698 2486 c3 -35 -1 -49 -18 -66 -19 -19 -30 -22 -73 -17 -27 4 -60
13 -73 22 -13 8 -24 11 -24 5 0 -5 18 -22 41 -37 50 -33 131 -41 231 -23 63
11 68 14 62 33 -11 38 -54 87 -94 107 -22 11 -43 20 -47 20 -5 0 -7 -20 -5
-44z m103 -58 c6 -11 9 -21 7 -23 -8 -8 -108 -21 -108 -14 0 4 4 10 9 13 4 3
11 24 15 46 l6 41 30 -21 c17 -12 35 -30 41 -42z"/>
<path d="M2378 2506 c-38 -14 -35 -26 7 -26 35 0 41 6 27 26 -5 7 -16 7 -34 0z"/>
<path d="M2078 2470 c-12 -21 -13 -30 -5 -30 25 0 38 16 30 38 -8 20 -9 20
-25 -8z"/>
<path d="M3691 2400 c-35 -78 -39 -124 -15 -160 42 -62 71 -64 184 -11 l83 39
-36 11 c-61 20 -123 76 -152 136 -15 30 -28 55 -30 55 -1 0 -16 -32 -34 -70z
m94 -75 c11 -11 34 -30 50 -42 l30 -21 -48 -21 c-62 -27 -81 -26 -107 1 -24
26 -26 72 -4 124 l16 38 21 -29 c12 -17 31 -39 42 -50z"/>
<path d="M2240 2425 c7 -8 19 -15 27 -15 13 0 13 3 3 15 -7 8 -19 15 -27 15
-13 0 -13 -3 -3 -15z"/>
<path d="M2329 2417 c10 -26 5 -39 -23 -54 -16 -9 -11 -12 33 -23 28 -7 67 -9
86 -6 29 6 35 11 35 31 0 31 -62 75 -107 75 -30 0 -32 -2 -24 -23z m76 -23
c35 -23 31 -34 -10 -34 -31 0 -35 3 -35 25 0 29 11 31 45 9z"/>
<path d="M2150 2408 c0 -9 4 -19 9 -22 5 -3 12 -22 15 -41 7 -34 8 -35 54 -35
l47 0 -31 19 c-17 10 -45 36 -62 57 -21 25 -32 33 -32 22z"/>
<path d="M6300 2367 c52 -118 89 -190 90 -171 0 35 30 96 61 124 l28 27 -50 6
c-27 3 -71 17 -98 31 l-50 24 19 -41z m88 -33 c26 -8 27 -12 4 -42 l-18 -23
-17 36 c-18 37 -14 41 31 29z"/>
<path d="M2031 2379 l-25 -10 21 -20 c11 -11 39 -23 62 -26 36 -5 41 -3 41 14
0 43 -47 63 -99 42z"/>
<path d="M4220 2350 c-41 -22 -154 -76 -250 -121 -96 -44 -199 -99 -228 -120
-133 -100 -175 -240 -106 -356 79 -136 243 -130 373 13 60 66 113 168 186 359
32 83 69 173 84 200 34 66 34 65 24 65 -4 -1 -42 -19 -83 -40z m-37 -182 c-74
-193 -131 -310 -173 -358 l-30 -35 15 37 c39 98 -1 200 -99 250 -31 16 -53 19
-99 16 -58 -4 -58 -4 -35 13 27 21 117 66 313 156 77 35 144 68 150 74 24 24
17 -3 -42 -153z m-292 -134 c34 -17 77 -68 85 -100 10 -40 -2 -114 -23 -143
-35 -46 -81 -71 -135 -71 -132 0 -210 124 -153 244 38 80 143 113 226 70z
m-92 -344 l46 -8 -38 -1 c-40 -1 -100 19 -112 39 -4 6 7 4 25 -5 18 -10 54
-21 79 -25z"/>
<path d="M3745 1957 c-44 -44 -48 -91 -9 -136 47 -56 126 -50 164 11 42 66 2
144 -78 155 -37 5 -45 2 -77 -30z m107 -34 c22 -20 23 -51 1 -75 -33 -36 -93
-13 -93 37 0 49 55 72 92 38z"/>
<path d="M1880 2345 c-73 -14 -60 -21 46 -28 l62 -3 -15 23 c-9 13 -18 22 -22
22 -3 -1 -35 -7 -71 -14z"/>
<path d="M2510 2345 c0 -8 9 -15 20 -15 11 0 20 2 20 5 0 2 -9 9 -20 15 -16 9
-20 8 -20 -5z"/>
<path d="M1466 2334 c-10 -26 1 -28 25 -5 22 21 22 21 2 21 -11 0 -24 -7 -27
-16z"/>
<path d="M1544 2321 c9 -9 16 -23 16 -30 0 -9 6 -11 18 -5 62 27 133 9 173
-45 l21 -28 28 29 c16 15 38 28 50 28 29 0 76 -26 84 -45 10 -28 7 -80 -6 -94
-11 -11 -10 -13 5 -7 10 3 22 6 26 6 3 0 5 18 3 41 -4 33 0 45 22 68 l27 28
-98 7 c-99 8 -289 37 -352 56 -32 9 -33 8 -17 -9z"/>
<path d="M6504 2330 c-46 -19 -94 -103 -94 -166 0 -59 87 -134 156 -134 53 0
61 25 13 35 -45 10 -97 60 -109 106 -17 63 28 139 83 139 24 0 16 24 -9 27
-10 1 -28 -2 -40 -7z"/>
<path d="M1484 2306 c-10 -26 4 -48 28 -44 17 2 23 10 23 28 0 18 -6 26 -23
28 -13 2 -25 -3 -28 -12z"/>
<path d="M2437 2279 c-91 -10 -109 -18 -113 -52 -3 -26 -2 -26 18 -7 12 11 17
24 13 31 -6 8 -4 10 4 5 7 -5 10 -15 7 -23 -5 -11 -2 -13 11 -8 10 5 54 19 97
32 120 35 115 38 -37 22z"/>
<path d="M6504 2255 c-22 -33 -13 -99 16 -130 23 -24 74 -48 83 -38 12 11 -7
33 -29 33 -28 0 -54 35 -54 73 0 19 10 39 31 58 l31 29 -31 0 c-22 0 -35 -7
-47 -25z"/>
<path d="M2220 2264 c0 -3 14 -19 30 -36 33 -33 60 -32 60 2 0 25 -25 37 -45
20 -9 -7 -15 -8 -15 -2 0 5 -7 12 -15 16 -8 3 -15 3 -15 0z"/>
<path d="M1402 2219 c-18 -66 -32 -147 -32 -187 0 -35 0 -35 21 -17 12 12 36
19 59 20 23 0 38 4 36 10 -3 6 -17 48 -32 95 -42 134 -39 129 -52 79z m41
-151 c-2 -5 -13 -8 -25 -8 -18 0 -20 4 -14 31 3 17 6 39 7 48 0 9 9 -2 18 -24
10 -22 16 -43 14 -47z"/>
<path d="M1470 2247 c0 -26 21 -87 30 -87 6 0 10 11 10 24 0 13 2 31 5 38 4 9
-4 19 -20 26 -19 9 -25 9 -25 -1z"/>
<path d="M1587 2249 c-22 -13 -47 -61 -47 -93 0 -14 13 -40 29 -58 24 -27 36
-33 71 -33 35 0 47 6 71 33 40 44 40 93 0 133 -23 22 -39 29 -68 29 -21 0 -46
-5 -56 -11z m107 -41 c22 -31 20 -68 -6 -95 -27 -29 -57 -29 -92 -2 -53 41
-21 119 48 119 25 0 39 -7 50 -22z"/>
<path d="M2116 2238 c10 -13 19 -24 19 -25 0 0 8 10 18 23 l18 24 -37 0 -37 0
19 -22z"/>
<path d="M2170 2235 c-20 -25 -8 -50 25 -50 21 0 31 5 33 18 4 21 -14 47 -33
47 -7 0 -18 -7 -25 -15z"/>
<path d="M1804 2215 c-27 -41 4 -95 55 -95 34 0 61 28 61 62 0 56 -85 81 -116
33z m74 -7 c18 -18 14 -46 -7 -58 -37 -19 -70 38 -33 59 22 13 26 13 40 -1z"/>
<path d="M2002 2217 c-42 -45 -15 -107 47 -109 63 -2 93 68 48 110 -30 28 -68
28 -95 -1z m76 -19 c32 -32 -18 -87 -53 -58 -28 23 -12 70 25 70 9 0 21 -5 28
-12z"/>
<path d="M3599 2193 c-16 -59 -13 -104 9 -121 14 -10 22 -6 58 29 l42 41 -33
30 c-19 16 -37 38 -40 49 -10 31 -22 22 -36 -28z m46 -73 c-24 -27 -31 -25
-29 8 1 15 3 34 3 42 1 11 7 9 23 -7 21 -22 21 -23 3 -43z"/>
<path d="M6549 2214 c-12 -34 -4 -61 22 -69 27 -9 28 -7 22 48 -6 53 -27 63
-44 21z"/>
<path d="M2240 2190 c0 -6 -11 -15 -25 -22 -19 -9 -29 -7 -51 7 -19 12 -25 13
-22 3 3 -7 1 -23 -3 -35 -5 -13 -7 -23 -5 -23 15 0 144 69 139 74 -10 10 -33
7 -33 -4z"/>
<path d="M1764 2104 c-18 -38 -60 -69 -106 -79 -18 -4 -26 -11 -21 -18 4 -7
-2 -5 -12 3 -14 11 -19 12 -22 3 -3 -7 -9 -13 -15 -13 -7 0 -6 5 1 14 9 11 4
18 -24 35 l-35 20 25 -49 c28 -55 26 -55 112 -13 29 14 60 23 68 19 11 -4 15
1 15 18 0 25 28 56 51 56 28 0 50 -25 51 -58 1 -36 14 -50 30 -34 7 7 8 16 2
25 -5 7 -1 5 8 -5 20 -22 36 -5 18 17 -7 8 -10 26 -8 40 5 21 3 23 -14 14 -25
-13 -63 -4 -88 21 -19 19 -20 19 -36 -16z"/>
<path d="M1920 2089 c-9 -15 -8 -24 1 -35 27 -33 79 1 58 39 -14 23 -46 21
-59 -4z"/>
<path d="M1776 2068 c-8 -11 -12 -26 -9 -33 10 -29 56 -28 67 1 15 39 -34 66
-58 32z"/>
<path d="M2000 2068 c0 -10 -13 -26 -30 -37 -16 -10 -27 -22 -22 -27 4 -4 0
-3 -10 4 -11 9 -18 10 -23 2 -3 -6 -10 -8 -15 -5 -5 3 -11 1 -15 -5 -3 -6 1
-13 9 -16 8 -3 18 -15 21 -25 6 -17 12 -13 50 28 23 27 54 55 69 62 34 19 33
28 -4 33 -24 4 -30 1 -30 -14z"/>
<path d="M6454 2000 c19 -54 36 -77 36 -50 0 6 12 22 26 35 19 17 22 25 12 25
-8 0 -32 11 -52 25 -20 14 -38 25 -40 25 -2 0 6 -27 18 -60z"/>
<path d="M3551 1958 l1 -83 12 50 c7 28 17 59 24 71 12 23 0 44 -25 44 -10 0
-13 -21 -12 -82z"/>
<path d="M1818 2003 c-20 -5 -22 -12 -9 -32 7 -11 12 -10 29 5 12 10 19 21 16
26 -5 8 -8 9 -36 1z"/>
<path d="M1677 1982 c-21 -23 -22 -76 -1 -96 21 -22 77 -20 97 2 25 27 22 78
-5 96 -30 21 -71 20 -91 -2z m84 -33 c9 -18 7 -25 -9 -41 -35 -35 -85 -1 -62
43 14 26 56 25 71 -2z"/>
<path d="M6576 1989 c-40 -11 -64 -36 -77 -79 -10 -31 -8 -43 10 -78 19 -37
63 -72 91 -72 21 0 9 18 -20 30 -84 35 -80 136 6 159 15 4 28 15 30 24 3 22
-5 26 -40 16z"/>
<path d="M1413 1975 c-12 -9 -27 -32 -32 -51 -10 -38 -3 -164 9 -164 4 0 15
10 26 21 24 27 85 55 142 64 23 4 42 9 42 12 0 12 -63 94 -86 112 -32 25 -71
27 -101 6z m107 -54 c35 -41 37 -51 13 -51 -10 0 -42 -11 -71 -25 -45 -21 -54
-22 -59 -9 -11 28 5 98 26 115 28 23 56 14 91 -30z"/>
<path d="M1590 1961 c0 -3 10 -19 23 -34 l22 -28 0 34 c0 29 -4 35 -22 35 -13
0 -23 -3 -23 -7z"/>
<path d="M1835 1950 c-7 -22 9 -50 28 -50 6 0 19 7 28 16 14 13 16 21 8 35
-13 26 -56 25 -64 -1z"/>
<path d="M6562 1914 c-22 -15 -27 -38 -16 -69 7 -18 64 -50 64 -36 0 5 -9 12
-19 16 -11 3 -22 13 -25 22 -7 17 18 63 34 63 6 0 10 5 10 10 0 15 -22 12 -48
-6z"/>
<path d="M1806 1885 c-19 -28 -20 -35 -6 -35 6 0 10 6 10 14 0 8 5 18 11 22 8
4 9 0 4 -15 -8 -25 19 -41 38 -22 9 9 5 17 -15 36 l-26 24 -16 -24z"/>
<path d="M1875 1880 c11 -18 -6 -50 -26 -50 -12 0 -19 -7 -19 -20 0 -11 4 -20
9 -20 5 0 15 -2 23 -5 10 -4 16 10 24 50 8 44 7 55 -4 55 -7 0 -10 -5 -7 -10z"/>
<path d="M6593 1874 c-3 -8 -1 -20 4 -25 7 -7 12 -2 15 15 6 28 -9 36 -19 10z"/>
<path d="M1680 1842 c0 -6 54 -62 60 -62 3 0 5 13 5 29 0 26 -4 30 -32 33 -18
2 -33 2 -33 0z"/>
<path d="M1761 1826 c-16 -20 -3 -46 24 -46 25 0 38 21 29 45 -8 19 -38 19
-53 1z"/>
<path d="M1504 1781 c-46 -21 -80 -59 -89 -101 -7 -31 62 -257 75 -243 4 4 15
30 24 56 33 88 150 182 234 189 17 1 32 5 32 8 0 8 -122 88 -153 100 -41 15
-76 12 -123 -9z m167 -46 l42 -27 -42 -19 c-59 -26 -118 -77 -154 -132 l-31
-48 -23 67 c-27 81 -28 102 -7 133 47 67 137 78 215 26z"/>
<path d="M1831 1766 c-17 -20 13 -43 34 -26 12 10 13 16 4 26 -6 8 -15 14 -19
14 -4 0 -13 -6 -19 -14z"/>
<path d="M6515 1760 c3 -10 7 -73 8 -140 l2 -122 22 51 c20 45 58 182 51 185
-2 1 -22 11 -46 23 -40 20 -43 21 -37 3z"/>
<path d="M1760 1764 c0 -7 141 -97 145 -92 3 3 -1 20 -8 38 -9 19 -17 28 -21
21 -11 -17 -44 -13 -55 8 -6 10 -8 20 -6 23 3 3 -8 5 -25 5 -16 0 -30 -1 -30
-3z"/>
<path d="M4027 1683 c-52 -86 -70 -146 -75 -255 -3 -74 0 -108 13 -150 53
-161 169 -256 326 -266 140 -8 243 37 421 184 134 112 193 144 260 144 89 0
184 -67 215 -152 11 -33 11 -33 12 20 1 29 -6 66 -13 81 -22 41 -77 86 -131
107 -40 15 -55 16 -99 7 -69 -15 -121 -46 -256 -154 -133 -106 -197 -139 -284
-146 -168 -14 -320 92 -361 252 -19 73 -19 228 -1 315 8 36 13 66 11 68 -2 2
-19 -23 -38 -55z m12 -375 c64 -169 254 -269 426 -225 52 14 57 14 40 1 -67
-50 -250 -58 -333 -15 -107 55 -173 152 -194 283 -9 64 -8 85 8 153 l18 80 7
-110 c5 -74 14 -129 28 -167z m1031 52 c21 -11 42 -25 45 -31 4 -6 -12 -1 -35
11 -23 12 -61 25 -83 30 l-42 8 38 1 c21 1 55 -8 77 -19z"/>
<path d="M5679 1643 c-9 -30 -14 -97 -14 -183 0 -114 4 -146 23 -206 61 -186
251 -333 453 -351 110 -10 256 44 384 141 66 51 303 267 304 278 1 11 -131
-55 -275 -137 -168 -96 -286 -136 -398 -136 -45 -1 -99 2 -121 6 -53 10 -146
56 -199 100 -117 95 -174 270 -148 455 6 41 10 76 8 77 -2 2 -9 -18 -17 -44z
m125 -496 c100 -94 210 -132 365 -125 134 7 232 41 397 139 64 38 119 68 121
66 7 -7 -178 -162 -244 -204 -125 -81 -236 -107 -355 -83 -121 23 -249 107
-316 207 -42 64 -67 118 -30 68 12 -16 40 -47 62 -68z"/>
<path d="M1695 1620 c-87 -45 -168 -159 -169 -238 -1 -40 7 -59 50 -125 l50
-77 12 60 c17 82 84 167 174 222 55 34 150 60 202 55 l49 -4 -24 18 c-13 11
-61 38 -107 61 -102 51 -174 60 -237 28z m205 -41 l65 -31 -52 -14 c-75 -19
-128 -49 -186 -102 -55 -52 -107 -126 -107 -154 0 -31 -16 -20 -43 31 -33 60
-34 79 -2 141 77 152 186 195 325 129z"/>
<path d="M5734 1440 c10 -117 93 -239 203 -297 114 -61 240 -67 380 -19 73 25
131 53 88 42 -11 -3 -38 -9 -60 -15 -133 -32 -262 -18 -381 40 -116 57 -188
138 -220 247 l-14 47 4 -45z"/>
<path d="M1908 1456 c-97 -35 -185 -112 -209 -184 -64 -194 211 -387 451 -316
120 36 174 101 173 210 -1 80 -28 141 -95 208 -86 86 -216 119 -320 82z m142
-16 c21 -7 17 -8 -21 -9 -58 -1 -107 -21 -154 -62 -44 -39 -63 -73 -75 -141
-12 -63 7 -141 46 -187 14 -17 22 -31 17 -31 -18 0 -111 91 -127 124 -22 46
-20 108 3 155 52 102 216 181 311 151z m67 -51 c40 -15 92 -67 114 -114 26
-57 24 -121 -6 -182 -90 -179 -352 -143 -396 54 -22 95 24 188 116 236 35 19
131 22 172 6z m179 -196 c8 -69 -14 -132 -61 -167 -48 -37 -53 -32 -12 13 45
50 65 130 49 199 -9 40 -8 44 3 28 8 -10 17 -43 21 -73z"/>
<path d="M1985 1310 c-29 -12 -65 -53 -74 -86 -30 -113 103 -207 199 -142 50
34 70 93 50 150 -25 71 -106 107 -175 78z m100 -30 c3 -6 -1 -7 -9 -4 -18 7
-21 14 -7 14 6 0 13 -4 16 -10z m0 -45 c30 -30 31 -54 4 -89 -40 -50 -119 -24
-119 40 0 68 68 97 115 49z m-148 -62 c-3 -10 -5 -4 -5 12 0 17 2 24 5 18 2
-7 2 -21 0 -30z m183 -47 c0 -2 -8 -10 -17 -17 -16 -13 -17 -12 -4 4 13 16 21
21 21 13z"/>
</g>
</svg>
