<?xml version="1.0" encoding="utf-8"?>
<!-- Generator: Adobe Illustrator 24.1.0, SVG Export Plug-In . SVG Version: 6.00 Build 0)  -->
<svg version="1.1" baseProfile="tiny" id="图层_1"
	 xmlns="http://www.w3.org/2000/svg" xmlns:xlink="http://www.w3.org/1999/xlink" x="0px" y="0px" viewBox="0 0 1000.4 888.5"
	 xml:space="preserve">
<g>
	<g>
		<polygon fill="#F48B88" stroke="#000000" stroke-width="0.2" stroke-miterlimit="10" points="499.6,151.1 501,222.9 658,0.2 		"/>
		<polygon fill="#FEAAAA" stroke="#000000" stroke-width="0.2" stroke-miterlimit="10" points="498.1,559.2 496.6,888 711.8,560.7 
					"/>
		<polygon fill="#FEAAAA" stroke="#000000" stroke-width="0.2" stroke-miterlimit="10" points="501,384.3 498.1,559.2 711.8,560.7 
					"/>
		<polygon fill="#FEAAAA" stroke="#000000" stroke-width="0.2" stroke-miterlimit="10" points="658,0.2 501,222.9 807.5,385.8 		"/>
		<polygon fill="#F78988" stroke="#000000" stroke-width="0.2" stroke-miterlimit="10" points="501,222.9 501,384.3 807.5,385.8 		
			"/>
		<polygon fill="#F69292" stroke="#000000" stroke-width="0.2" stroke-miterlimit="10" points="501,384.3 711.8,560.7 807.5,385.8 
					"/>
		<polygon fill="#F78988" stroke="#000000" stroke-width="0.2" stroke-miterlimit="10" points="658,0.2 807.5,385.8 898.7,45 		"/>
		<polygon fill="#F78988" stroke="#000000" stroke-width="0.2" stroke-miterlimit="10" points="807.5,385.8 711.8,560.7 
			928.6,556.2 		"/>
		<polygon fill="#E86C6C" stroke="#000000" stroke-width="0.2" stroke-miterlimit="10" points="711.8,560.7 496.6,888 928.6,556.2 
					"/>
		<polygon fill="#E86C6C" stroke="#000000" stroke-width="0.2" stroke-miterlimit="10" points="898.7,45 807.5,385.8 1000.3,248.3 
					"/>
		<polygon fill="#F77776" stroke="#000000" stroke-width="0.2" stroke-miterlimit="10" points="807.5,385.8 928.6,556.2 
			1000.3,248.3 		"/>
	</g>
	<g>
		<polygon fill="#FEAAAA" stroke="#000000" stroke-width="0.1" stroke-miterlimit="10" points="100.4,46.5 0.3,252.8 158.7,303.6 		
			"/>
		<polygon fill="#F69292" stroke="#000000" stroke-width="0.1" stroke-miterlimit="10" points="0.3,252.8 64.6,550.2 173.7,382.8 		
			"/>
		<polygon fill="#FBAAA9" stroke="#000000" stroke-width="0.1" stroke-miterlimit="10" points="158.7,303.6 0.3,252.8 173.7,382.8 
					"/>
		<polygon fill="#FA9A9B" stroke="#000000" stroke-width="0.1" stroke-miterlimit="10" points="158.7,303.6 173.7,382.8 
			230.5,248.3 		"/>
		<polygon fill="#FA9A9B" stroke="#000000" stroke-width="0.1" stroke-miterlimit="10" points="100.4,46.5 158.7,303.6 230.5,248.3 
					"/>
		<polygon fill="#F78988" stroke="#000000" stroke-width="0.1" stroke-miterlimit="10" points="173.7,382.8 64.6,550.2 284.3,559.2 
					"/>
		<polygon fill="#F78988" stroke="#000000" stroke-width="0.1" stroke-miterlimit="10" points="230.5,248.3 173.7,382.8 
			323.2,302.1 		"/>
		<polygon fill="#FA9A9B" stroke="#000000" stroke-width="0.1" stroke-miterlimit="10" points="100.4,46.5 230.5,248.3 341.1,1.6 		
			"/>
		<polygon fill="#FEAAAA" stroke="#000000" stroke-width="0.1" stroke-miterlimit="10" points="173.7,382.8 284.3,559.2 371,379.8 
					"/>
		<polygon fill="#FA9A9B" stroke="#000000" stroke-width="0.1" stroke-miterlimit="10" points="323.2,302.1 173.7,382.8 371,379.8 
					"/>
		<polygon fill="#FEAAAA" stroke="#000000" stroke-width="0.1" stroke-miterlimit="10" points="371,379.8 284.3,559.2 408.4,457.6 
					"/>
		<polygon fill="#F78988" stroke="#000000" stroke-width="0.1" stroke-miterlimit="10" points="230.5,248.3 323.2,302.1 
			444.2,140.7 		"/>
		<polygon fill="#F78988" stroke="#000000" stroke-width="0.1" stroke-miterlimit="10" points="341.1,1.6 230.5,248.3 444.2,140.7 
					"/>
		<polygon fill="#EB6763" stroke="#000000" stroke-width="0.1" stroke-miterlimit="10" points="341.1,1.6 444.2,140.7 457.7,115.3 
					"/>
		<polygon fill="#F77B7B" stroke="#000000" stroke-width="0.1" stroke-miterlimit="10" points="284.3,559.2 64.6,550.2 496.6,888 		
			"/>
		<polygon fill="#F78988" stroke="#000000" stroke-width="0.1" stroke-miterlimit="10" points="408.4,457.6 284.3,559.2 
			498.1,559.2 		"/>
		<polygon fill="#F78988" stroke="#000000" stroke-width="0.1" stroke-miterlimit="10" points="284.3,559.2 496.6,888 498.1,559.2 
					"/>
		<polygon fill="#E56864" stroke="#000000" stroke-width="0.1" stroke-miterlimit="10" points="457.7,115.3 444.2,140.7 
			499.6,151.1 		"/>
		<polygon fill="#F78988" stroke="#000000" stroke-width="0.1" stroke-miterlimit="10" points="444.2,140.7 323.2,302.1 501,222.9 
					"/>
		<polygon fill="#E86666" stroke="#000000" stroke-width="0.1" stroke-miterlimit="10" points="499.6,151.1 444.2,140.7 501,222.9 
					"/>
		<polygon fill="#FA9A9B" stroke="#000000" stroke-width="0.1" stroke-miterlimit="10" points="323.2,302.1 371,379.8 501,222.9 		
			"/>
		<polygon fill="#F78988" stroke="#000000" stroke-width="0.1" stroke-miterlimit="10" points="408.4,457.6 498.1,559.2 501,384.3 
					"/>
		<polygon fill="#FEA9AC" stroke="#000000" stroke-width="0.1" stroke-miterlimit="10" points="371,379.8 408.4,457.6 501,384.3 		
			"/>
		<polygon fill="#FA9A9B" stroke="#000000" stroke-width="0.1" stroke-miterlimit="10" points="501,222.9 371,379.8 501,384.3 		"/>
	</g>
</g>
</svg>
