<?xml version="1.0" encoding="UTF-8" standalone="no"?>
<svg
   xmlns:dc="http://purl.org/dc/elements/1.1/"
   xmlns:cc="http://creativecommons.org/ns#"
   xmlns:rdf="http://www.w3.org/1999/02/22-rdf-syntax-ns#"
   xmlns:svg="http://www.w3.org/2000/svg"
   xmlns="http://www.w3.org/2000/svg"
   xmlns:sodipodi="http://sodipodi.sourceforge.net/DTD/sodipodi-0.dtd"
   xmlns:inkscape="http://www.inkscape.org/namespaces/inkscape"
   version="1.0"
   width="850.000000pt"
   height="850.000000pt"
   viewBox="0 0 850.000000 850.000000"
   preserveAspectRatio="xMidYMid meet"
   id="svg2"
   inkscape:version="0.91 r13725"
   sodipodi:docname="Special_dates518_004.svg">
  <defs
     id="defs582" />
  <sodipodi:namedview
     pagecolor="#ffffff"
     bordercolor="#666666"
     borderopacity="1"
     objecttolerance="10"
     gridtolerance="10"
     guidetolerance="10"
     inkscape:pageopacity="0"
     inkscape:pageshadow="2"
     inkscape:window-width="1920"
     inkscape:window-height="981"
     id="namedview580"
     showgrid="false"
     inkscape:zoom="0.62824358"
     inkscape:cx="619.30333"
     inkscape:cy="545.4561"
     inkscape:window-x="0"
     inkscape:window-y="1"
     inkscape:window-maximized="1"
     inkscape:current-layer="svg2" />
  <metadata
     id="metadata4">
Created by potrace 1.14, written by Peter Selinger 2001-2017
<rdf:RDF>
  <cc:Work
     rdf:about="">
    <dc:format>image/svg+xml</dc:format>
    <dc:type
       rdf:resource="http://purl.org/dc/dcmitype/StillImage" />
  </cc:Work>
</rdf:RDF>
</metadata>
  <g
     transform="translate(0.000000,850.000000) scale(0.100000,-0.100000)"
     fill="#000000"
     stroke="none"
     id="g6">
    <path
       d="M0 4250 l0 -4250 4250 0 4250 0 0 4250 0 4250 -4250 0 -4250 0 0 -4250z m4364 4156 c34 -35 66 -118 66 -167 0 -43 -24 -92 -53 -112 -15 -10 -46 -17 -73 -17 -39 0 -51 5 -80 34 -30 30 -34 40 -34 88 0 71 23 137 62 177 40 41 72 40 112 -3z m-342 -90 c88 -42 162 -157 198 -308 32 -133 42 -265 39 -478 l-4 -200 60 0 60 0 -3 222 c-2 164 1 249 13 331 42 288 143 440 303 454 55 5 61 3 91 -23 105 -96 29 -472 -191 -936 l-50 -106 61 -60 c66 -65 116 -154 127 -229 5 -34 10 -43 23 -39 28 9 340 86 346 86 3 0 5 -6 5 -14 0 -9 -47 -25 -147 -50 -242 -60 -220 -51 -228 -92 -3 -20 -4 -38 -1 -41 3 -3 69 -8 147 -12 110 -5 143 -9 147 -20 4 -12 -20 -13 -155 -8 l-160 6 -26 -36 -26 -37 116 -63 c131 -71 130 -70 117 -83 -6 -6 -53 15 -127 55 -65 36 -123 65 -128 65 -6 0 -24 -9 -40 -21 -68 -48 -136 -64 -274 -64 -141 0 -200 13 -270 61 -20 13 -41 24 -46 24 -6 0 -59 -27 -118 -59 -119 -66 -132 -71 -138 -54 -2 6 46 38 111 73 64 34 116 64 116 67 0 3 -9 21 -21 39 l-20 33 -160 -6 c-144 -6 -159 -5 -159 10 0 15 13 17 98 17 53 0 121 3 150 7 l52 6 -6 36 c-4 20 -8 38 -10 39 -1 2 -83 24 -180 49 -193 48 -200 51 -186 65 7 7 238 -43 353 -78 13 -4 18 6 23 44 9 72 52 149 122 219 l62 63 -78 172 c-131 290 -203 539 -204 708 -1 103 7 134 42 167 24 22 34 24 82 21 30 -2 72 -12 92 -22z m-488 -142 l38 -66 59 58 59 58 0 -136 c0 -195 -31 -267 -136 -315 l-54 -24 0 -106 0 -105 40 35 c21 20 56 45 77 56 75 38 130 112 163 220 l17 53 7 -117 c12 -210 -16 -285 -132 -364 -33 -22 -71 -54 -85 -70 -36 -43 -79 -139 -85 -188 -2 -24 -8 -43 -12 -43 -4 0 -10 19 -12 43 -11 96 -84 202 -190 274 -97 66 -124 148 -112 343 7 110 8 113 19 75 32 -105 93 -185 180 -235 22 -13 55 -37 73 -54 l33 -31 -3 109 -3 109 -30 10 c-47 15 -92 54 -122 105 -27 45 -28 53 -31 202 l-3 155 59 -59 60 -58 38 66 c22 36 41 66 44 66 3 0 22 -30 44 -66z m1571 -74 c90 -56 165 -228 165 -380 0 -85 -19 -137 -66 -183 -109 -108 -297 -79 -365 56 -59 115 -11 347 97 467 58 64 110 76 169 40z m388 -330 c42 -36 74 -108 83 -183 12 -104 -47 -177 -143 -177 -48 0 -97 30 -119 71 -39 76 9 257 80 300 42 26 60 24 99 -11z m-2406 -115 c61 -67 87 -140 87 -251 1 -85 -1 -93 -28 -128 -102 -134 -303 -77 -323 92 -12 106 53 270 127 320 49 33 84 24 137 -33z m1856 -225 c15 -18 35 -30 49 -30 55 0 90 -57 67 -112 -9 -22 -9 -35 1 -58 22 -52 -15 -110 -69 -110 -11 0 -33 -13 -49 -30 -21 -21 -40 -30 -62 -30 -23 0 -40 9 -60 30 -15 17 -37 30 -48 30 -10 0 -31 9 -46 21 -20 15 -26 29 -26 58 0 20 5 42 12 49 9 9 9 15 0 24 -36 36 4 128 56 128 14 0 36 13 52 30 21 22 37 30 63 30 27 0 41 -7 60 -30z m-1126 -3 c55 -30 103 -136 103 -224 0 -94 -53 -153 -139 -153 -125 0 -175 128 -110 279 23 54 78 111 107 111 9 -1 27 -6 39 -13z m2003 -19 c34 -57 20 -165 -25 -181 -12 -5 -15 -25 -15 -97 l0 -91 29 22 c58 43 111 22 111 -43 0 -71 -54 -138 -111 -138 -28 0 -29 -2 -29 -51 l0 -51 31 26 c35 30 70 33 94 9 13 -13 16 -28 13 -65 -7 -64 -55 -118 -105 -118 l-33 0 0 -151 c0 -116 -3 -150 -12 -147 -9 3 -14 31 -16 80 -3 73 -4 76 -27 76 -37 0 -75 29 -96 75 -23 51 -24 76 -3 105 19 28 63 29 98 1 l26 -20 0 53 c0 53 0 53 -32 54 -24 1 -41 11 -64 38 -80 92 -34 203 61 147 l35 -20 0 44 c0 41 -2 45 -24 45 -48 0 -116 81 -116 139 0 11 10 32 23 47 27 31 57 29 95 -6 l22 -21 0 28 c0 17 -8 33 -20 40 -10 7 -24 31 -30 53 -29 109 67 204 120 118z m-415 -42 c123 -52 217 -329 156 -461 -22 -49 -77 -99 -127 -115 -22 -8 -59 -10 -92 -7 -179 19 -236 218 -129 450 28 62 94 133 129 140 13 2 24 5 26 6 1 0 18 -6 37 -13z m-2505 -186 c15 -16 38 -30 51 -30 36 0 69 -38 69 -80 0 -20 -5 -41 -12 -48 -9 -9 -9 -15 0 -24 36 -36 -4 -128 -56 -128 -14 0 -36 -13 -52 -30 -20 -21 -37 -30 -60 -30 -22 0 -41 9 -62 30 -16 17 -40 30 -54 30 -52 0 -89 71 -60 115 15 23 15 27 0 50 -29 44 8 115 60 115 14 0 38 13 54 30 21 21 40 30 62 30 23 0 40 -9 60 -30z m512 -95 c20 -14 47 -42 60 -64 12 -21 44 -54 71 -72 l49 -33 -24 -19 c-12 -11 -32 -27 -43 -36 -11 -9 -26 -29 -33 -45 -12 -26 -11 -31 11 -55 29 -30 57 -83 57 -106 0 -8 20 -28 45 -43 52 -31 61 -59 51 -154 -15 -132 -85 -242 -187 -293 -106 -54 -262 -54 -368 -1 -56 29 -126 102 -151 159 -39 88 -51 277 -17 264 53 -20 52 -20 65 42 8 36 27 81 48 112 31 47 34 55 23 80 -16 40 -13 133 7 171 21 43 62 86 99 106 68 36 171 31 237 -13z m-807 -209 c61 -36 121 -108 166 -202 53 -109 52 -121 -7 -85 l-32 19 -5 -43 c-4 -24 -14 -59 -23 -78 l-17 -35 35 -42 c20 -22 43 -66 53 -96 14 -44 21 -54 34 -49 9 4 21 9 28 12 16 6 26 -67 18 -130 -18 -131 -76 -216 -183 -269 -61 -30 -74 -33 -162 -33 -81 0 -103 4 -150 26 -110 51 -160 117 -186 240 -22 104 -13 154 32 181 20 11 44 39 56 62 11 22 32 53 46 68 l25 28 -19 42 c-12 28 -19 63 -18 101 l1 59 -43 -6 c-24 -3 -44 -3 -44 0 0 12 46 93 77 137 36 49 96 96 148 115 44 17 121 6 170 -22z m3515 -31 c40 -21 90 -125 97 -203 5 -50 2 -66 -17 -100 -53 -95 -190 -95 -242 -1 -42 75 4 256 76 300 37 23 48 23 86 4z m-917 -46 c14 -6 30 -21 37 -34 9 -16 24 -24 54 -28 73 -10 111 -87 70 -145 -14 -20 -14 -24 0 -44 44 -62 -22 -164 -94 -145 -13 3 -20 0 -20 -8 0 -20 -59 -65 -85 -65 -36 0 -71 19 -86 46 -8 15 -21 24 -36 24 -32 0 -80 26 -93 49 -15 28 -12 73 6 99 14 20 14 24 0 44 -42 59 5 148 78 148 20 0 36 5 36 10 0 6 12 22 26 35 29 27 68 32 107 14z m329 -106 c2 -22 9 -29 31 -31 35 -4 30 -26 -6 -30 -25 -3 -27 -7 -27 -55 l-1 -52 208 -202 208 -202 -57 -1 c-56 0 -58 -1 -58 -27 0 -23 29 -56 162 -185 l163 -157 -57 -1 -58 0 0 -285 0 -285 -520 0 -520 0 0 285 0 285 -57 0 -58 1 163 157 c133 129 162 162 162 185 0 26 -1 27 -60 27 l-59 0 204 197 205 196 0 58 c0 51 -2 58 -22 61 -32 5 -35 28 -4 28 22 0 26 4 26 30 0 39 27 41 32 3z m-1412 -132 c54 -42 114 -139 146 -237 38 -115 41 -253 8 -324 -46 -99 -126 -149 -239 -150 -124 0 -214 62 -251 174 -22 65 -14 217 14 298 85 239 207 329 322 239z m651 -45 c48 -32 104 -118 142 -219 28 -75 31 -93 32 -202 0 -113 -2 -123 -27 -167 -54 -91 -123 -128 -239 -128 -106 1 -190 55 -232 150 -74 167 37 512 187 582 48 22 86 17 137 -16z m1554 -75 c80 -45 157 -223 159 -366 1 -70 -3 -86 -28 -132 -34 -62 -84 -100 -149 -112 -142 -26 -259 63 -274 211 -12 119 58 313 139 382 57 49 90 53 153 17z m-3225 -381 c0 -19 7 -20 180 -20 173 0 180 1 180 20 0 11 7 20 15 20 8 0 15 -9 15 -20 0 -18 8 -20 103 -22 l102 -3 0 -365 0 -365 -417 -3 -418 -2 0 370 0 370 105 0 c98 0 105 1 105 20 0 11 7 20 15 20 8 0 15 -9 15 -20z m-1009 -63 c41 -27 94 -112 116 -187 24 -77 23 -194 -1 -244 -68 -136 -277 -138 -349 -3 -45 86 -19 260 55 372 55 83 116 104 179 62z m2329 -188 c92 -21 172 -69 256 -153 158 -158 251 -382 284 -685 16 -141 8 -383 -15 -465 -89 -322 -402 -496 -775 -432 -235 41 -406 184 -477 400 -23 71 -27 102 -31 248 -2 97 1 209 8 269 21 184 81 377 157 509 47 80 191 226 259 263 99 52 229 70 334 46z m-1952 -24 c67 -56 104 -227 63 -292 -30 -47 -66 -67 -122 -67 -127 0 -177 140 -105 289 47 94 105 119 164 70z m197 -61 c25 -10 45 -59 45 -113 0 -42 -5 -56 -30 -84 -26 -31 -40 -67 -25 -67 3 0 18 9 34 21 38 28 82 22 99 -13 30 -63 -35 -168 -104 -168 l-34 0 0 -50 c0 -55 7 -61 35 -30 28 31 86 24 103 -12 29 -62 -40 -168 -108 -168 -30 0 -30 -1 -30 -56 l0 -55 28 19 c57 40 94 35 113 -16 22 -59 -49 -162 -112 -162 l-29 0 0 -75 c0 -43 -4 -75 -10 -75 -6 0 -10 55 -10 145 l0 145 -31 0 c-87 0 -152 161 -80 199 28 15 34 14 75 -14 l36 -24 0 50 c0 42 -3 50 -16 45 -8 -3 -30 0 -48 8 -54 23 -94 104 -75 154 18 47 59 56 102 22 14 -11 28 -20 31 -20 3 0 6 37 6 81 0 76 -2 84 -30 116 -25 28 -30 42 -30 84 0 85 40 134 95 113z m3653 -34 c12 -12 22 -25 22 -30 0 -6 14 -10 30 -10 20 0 40 -9 56 -26 22 -21 25 -31 20 -62 -8 -46 -8 -58 0 -105 8 -50 -23 -87 -73 -87 -22 0 -33 -5 -33 -14 0 -22 -40 -46 -75 -46 -30 0 -75 30 -75 50 0 6 -14 10 -30 10 -20 0 -40 9 -57 26 -20 20 -24 31 -18 57 8 39 8 61 -1 109 -5 31 -2 41 20 62 14 14 36 26 50 26 14 0 37 13 54 30 36 36 78 39 110 10z m356 -81 c69 -54 110 -224 72 -298 -48 -91 -184 -94 -243 -5 -40 62 -10 214 56 285 43 45 75 50 115 18z m-4304 -284 c0 -42 -3 -55 -15 -55 -12 0 -15 -20 -15 -117 l0 -118 46 -65 c83 -118 78 -86 82 -547 l3 -413 -190 0 -191 0 0 413 0 413 25 50 c14 27 43 73 65 102 l40 52 0 114 c0 105 -1 114 -20 119 -16 4 -20 14 -20 49 0 25 3 48 7 51 3 4 46 7 95 7 l88 0 0 -55z m-441 9 c17 -14 31 -32 31 -41 0 -10 6 -12 21 -8 70 22 137 -80 93 -143 -14 -20 -14 -24 0 -44 42 -59 -5 -148 -78 -148 -20 0 -36 -5 -36 -10 0 -6 -12 -22 -26 -35 -37 -34 -96 -34 -129 0 -14 13 -25 29 -25 35 0 5 -16 10 -36 10 -73 0 -120 89 -78 148 14 20 14 24 0 44 -18 26 -21 71 -6 99 15 27 68 52 96 45 17 -5 24 -2 24 8 0 23 59 66 90 66 16 0 42 -11 59 -26z m1415 -129 c112 -24 194 -85 232 -173 25 -56 31 -217 10 -266 -13 -32 -16 -79 -16 -270 0 -230 0 -233 -26 -284 -31 -62 -80 -105 -151 -132 -150 -56 -336 -23 -423 76 -59 68 -63 86 -72 354 -4 135 -11 289 -14 343 -7 129 10 191 72 257 88 94 230 129 388 95z m3317 -75 c18 -33 38 -60 44 -60 5 0 33 24 63 53 l54 52 -4 -150 c-3 -130 -6 -155 -25 -191 -30 -55 -80 -102 -125 -116 l-38 -11 0 -104 c0 -56 3 -103 8 -103 4 0 18 12 31 26 13 14 41 34 62 45 86 44 146 119 179 226 l17 56 7 -119 c12 -205 -16 -280 -133 -360 -38 -27 -82 -67 -100 -94 -36 -53 -71 -139 -71 -175 0 -14 -4 -25 -10 -25 -5 0 -10 11 -10 25 0 38 -37 127 -74 179 -19 26 -63 67 -99 92 -114 76 -143 154 -131 358 l7 119 17 -56 c33 -107 92 -182 178 -226 20 -10 48 -31 61 -45 14 -14 28 -26 33 -26 4 0 8 47 8 104 l0 104 -31 7 c-40 9 -104 67 -132 119 -19 36 -22 61 -25 191 l-4 150 54 -52 c30 -29 58 -53 63 -53 6 0 26 27 44 60 19 33 38 60 41 60 3 0 22 -27 41 -60z m-1281 -95 l0 -95 95 0 95 0 0 -95 0 -95 -95 0 -95 0 0 -205 0 -205 -90 0 -90 0 0 205 0 205 -95 0 -95 0 0 95 0 95 95 0 95 0 0 95 0 95 90 0 90 0 0 -95z m420 69 c100 -40 156 -216 148 -467 l-3 -107 26 0 26 0 6 168 c9 283 65 405 191 419 38 5 45 2 64 -22 29 -36 29 -120 2 -233 -21 -87 -83 -254 -124 -332 l-24 -45 53 -57 c45 -48 126 -185 147 -248 3 -11 15 -11 71 3 80 20 87 21 87 4 0 -8 -28 -20 -74 -31 l-74 -17 9 -32 c5 -18 9 -33 9 -34 0 -2 45 -3 100 -3 82 0 100 -3 100 -15 0 -12 -17 -15 -95 -15 -105 0 -101 3 -88 -73 5 -31 13 -41 44 -58 22 -11 39 -24 39 -29 0 -18 -17 -18 -48 0 l-32 20 0 -30 c0 -51 -22 -133 -50 -190 -35 -68 -88 -120 -160 -157 -51 -26 -63 -28 -175 -28 -111 0 -124 2 -177 28 -113 55 -191 173 -205 308 -6 61 -14 69 -47 44 -19 -14 -36 -12 -36 5 0 5 18 19 40 30 23 12 40 28 40 38 0 9 3 34 6 55 l7 37 -97 0 c-79 0 -96 3 -96 15 0 12 18 15 98 15 l99 0 10 34 11 34 -109 27 c-73 18 -109 32 -109 41 0 18 -2 18 110 -11 52 -14 100 -25 106 -25 6 0 19 21 29 48 26 71 88 173 135 221 l42 43 -16 36 c-8 20 -33 79 -56 130 -83 191 -114 389 -69 446 24 30 52 33 109 10z m-3829 -431 c8 -43 14 -122 14 -175 0 -112 -13 -140 -83 -173 l-42 -19 0 -133 c0 -127 1 -132 22 -135 12 -2 23 -9 26 -15 3 -10 -14 -13 -62 -13 -52 0 -66 3 -66 15 0 9 9 15 25 15 l25 0 0 133 -1 132 -47 22 c-53 25 -76 58 -86 121 -7 45 7 186 26 260 l10 42 113 0 112 0 14 -77z m3673 9 c27 -25 65 -106 76 -163 13 -68 -1 -124 -39 -163 -29 -28 -37 -31 -96 -31 -59 0 -67 3 -96 31 -56 56 -58 157 -5 261 45 90 105 114 160 65z m-2879 -184 c70 -71 112 -220 85 -304 -46 -145 -237 -166 -307 -34 -65 123 33 380 144 380 29 0 44 -9 78 -42z m4210 -82 c45 -45 42 -159 -5 -189 -11 -6 -20 -22 -20 -35 l0 -23 29 20 c77 55 137 -8 97 -103 -18 -42 -61 -76 -97 -76 -28 0 -29 -2 -29 -51 l0 -50 26 20 c32 25 71 27 96 4 52 -47 -17 -183 -93 -183 -28 0 -29 -1 -29 -55 l0 -56 29 22 c36 26 80 28 98 3 43 -58 -27 -184 -102 -184 -22 0 -25 -4 -25 -35 0 -24 -5 -35 -15 -35 -12 0 -15 18 -15 105 0 99 -1 105 -20 105 -37 0 -79 30 -100 70 -26 51 -26 94 1 121 25 25 61 19 97 -13 l22 -21 0 49 c0 48 -1 49 -30 50 -76 3 -142 133 -93 186 23 25 56 23 92 -8 l31 -26 0 94 c0 82 -2 95 -20 105 -26 17 -44 82 -36 128 8 40 45 85 71 85 9 0 27 -11 40 -24z m-5357 -81 c65 -55 102 -215 65 -284 -27 -52 -65 -75 -123 -75 -92 0 -144 64 -137 169 8 114 72 215 137 215 16 0 42 -11 58 -25z m3599 -184 c2 -3 29 21 61 52 32 31 61 57 65 57 4 0 7 -65 7 -145 0 -121 -3 -153 -20 -199 -24 -63 -87 -127 -143 -145 l-37 -13 0 -120 0 -120 28 30 c15 16 53 44 84 61 98 55 156 133 195 256 l18 60 3 -149 c4 -223 -21 -298 -126 -370 -88 -60 -132 -108 -167 -181 -25 -50 -35 -86 -35 -119 0 -34 -4 -46 -15 -46 -10 0 -15 11 -15 35 0 47 -40 144 -84 204 -20 27 -64 66 -101 90 -134 87 -149 132 -145 416 l2 110 17 -55 c40 -126 90 -191 191 -250 38 -22 80 -54 94 -71 l26 -31 0 125 0 124 -37 11 c-56 17 -108 65 -139 129 -26 53 -28 67 -32 210 -3 88 -1 153 5 153 5 0 33 -25 63 -55 30 -30 57 -55 61 -55 4 0 26 32 49 71 l42 71 41 -69 c22 -37 42 -70 44 -72z m-1557 43 c0 -8 16 -45 35 -81 19 -36 35 -77 35 -91 0 -14 -14 -38 -35 -59 -26 -26 -35 -43 -35 -69 l0 -34 60 0 60 0 0 -330 0 -330 75 0 75 0 0 75 c0 87 16 127 60 150 42 22 102 19 134 -6 26 -20 56 -68 56 -89 0 -21 -30 -9 -36 15 -16 63 -109 87 -156 40 -24 -23 -26 -33 -30 -148 -4 -104 -9 -132 -30 -178 -31 -68 -82 -120 -151 -156 -70 -36 -188 -39 -258 -7 -102 47 -176 146 -186 250 l-6 54 87 0 86 0 0 330 0 330 65 0 65 0 0 34 c0 26 -5 36 -20 41 -10 3 -31 20 -45 36 -44 53 -30 126 40 207 36 41 55 47 55 16z m409 -149 c34 -17 83 -91 106 -160 62 -185 -6 -325 -157 -325 -143 1 -212 130 -162 301 48 160 127 229 213 184z m-1234 -65 c98 -25 221 -84 304 -145 73 -54 54 -62 194 74 l87 86 0 -240 -1 -240 -31 40 c-18 22 -67 76 -109 119 l-76 79 -44 -30 c-226 -155 -486 -183 -709 -77 -78 37 -180 107 -180 124 0 21 138 149 188 174 116 59 242 71 377 36z m1701 1 c146 -66 257 -413 185 -578 -26 -58 -84 -117 -138 -139 -48 -20 -159 -19 -211 1 -56 23 -125 101 -143 162 -52 180 58 491 195 554 51 23 61 23 112 0z m-2466 -471 l0 -420 -165 0 -165 0 0 -56 0 -55 -35 27 -36 27 -29 -28 -29 -28 -3 54 -3 54 -102 3 -103 3 0 419 0 420 335 0 335 0 0 -420z m4560 303 c12 -16 29 -28 38 -29 35 -2 62 -16 73 -37 14 -25 14 -76 1 -89 -7 -7 -6 -21 2 -40 7 -16 11 -41 8 -54 -6 -30 -47 -64 -79 -64 -13 0 -26 -7 -30 -15 -7 -20 -55 -45 -83 -45 -12 0 -35 14 -50 30 -15 17 -37 30 -48 30 -27 0 -69 35 -76 65 -4 14 -1 37 7 52 12 22 12 30 0 54 -26 51 9 107 69 112 12 1 34 14 46 29 33 39 92 39 122 1z m-4320 -163 c81 -41 239 -183 356 -321 25 -30 39 -37 82 -42 117 -14 242 -109 302 -231 27 -55 32 -74 28 -116 -9 -88 -61 -124 -183 -123 -44 0 -91 3 -104 8 -22 7 -23 5 -17 -16 17 -56 18 -164 3 -201 l-16 -38 43 -30 c24 -16 56 -44 70 -61 71 -85 -36 -129 -153 -63 l-45 25 -20 -20 -20 -21 31 -6 c74 -15 77 -70 6 -96 -51 -17 -450 -18 -510 0 -62 18 -133 71 -167 124 -19 29 -39 47 -51 48 -35 1 -100 36 -128 69 -48 58 -63 165 -27 201 24 24 48 25 97 5 19 -8 39 -15 43 -15 4 0 13 19 20 43 42 140 155 257 291 298 55 17 89 20 169 17 101 -3 101 -3 106 22 3 14 12 40 20 58 8 18 14 34 14 36 0 2 -38 20 -85 40 -159 68 -284 158 -335 241 -41 66 -22 149 41 183 30 16 87 8 139 -18z m870 -35 c16 -8 31 -23 35 -34 4 -13 18 -20 48 -24 54 -7 87 -43 87 -94 0 -20 -7 -44 -16 -54 -15 -16 -15 -20 0 -41 42 -59 -5 -148 -78 -148 -20 0 -36 -5 -36 -10 0 -6 -11 -22 -25 -35 -37 -38 -88 -34 -132 10 -19 19 -44 35 -54 35 -32 0 -74 27 -87 55 -16 34 -15 54 3 88 13 26 13 31 0 50 -43 61 24 163 95 144 13 -3 21 1 25 14 9 26 54 59 82 59 13 0 37 -7 53 -15z m2580 -137 c0 -12 14 -45 30 -75 18 -31 30 -67 30 -89 0 -27 -7 -43 -30 -64 -18 -17 -30 -38 -30 -53 0 -24 4 -26 48 -29 l47 -3 0 -325 0 -325 -113 -3 -112 -3 2 328 3 328 48 3 c44 3 47 5 47 31 0 20 -7 31 -24 39 -71 32 -74 119 -7 207 45 59 61 68 61 33z m807 -78 c38 -23 89 -89 111 -143 l15 -38 46 45 c169 163 301 92 301 -163 0 -103 -18 -177 -59 -243 l-30 -48 89 0 90 0 0 -147 c0 -171 -12 -211 -76 -259 l-37 -29 -502 0 -502 0 -37 29 c-64 48 -76 88 -76 259 l0 147 95 0 96 0 -26 28 c-43 46 -67 126 -73 238 -6 122 12 197 59 243 53 54 139 37 229 -46 22 -19 40 -31 40 -25 0 21 82 131 113 151 40 26 93 27 134 1z m-1126 -133 c105 -71 175 -318 120 -425 -75 -146 -282 -150 -351 -7 -58 120 8 358 119 432 43 29 69 29 112 0z m-562 -1 c134 -70 241 -390 186 -556 -61 -183 -297 -239 -434 -102 -55 56 -81 124 -81 217 0 159 97 377 194 436 37 23 96 25 135 5z m-590 -56 c51 -25 94 -78 136 -165 144 -300 53 -565 -195 -565 -124 0 -221 73 -254 189 -20 72 -20 111 -1 209 29 144 119 297 198 336 43 21 70 20 116 -4z m-2699 -240 c11 -11 20 -24 20 -30 0 -5 15 -10 34 -10 48 0 80 -41 72 -90 -8 -44 -8 -56 0 -102 5 -31 2 -41 -20 -62 -14 -14 -36 -26 -50 -26 -14 0 -37 -13 -54 -30 -19 -18 -41 -30 -57 -30 -16 0 -38 12 -57 30 -17 17 -40 30 -54 30 -14 0 -36 12 -50 26 -22 21 -25 31 -20 62 8 46 8 58 0 102 -8 49 24 90 72 90 19 0 34 5 34 10 0 23 41 50 75 50 22 0 43 -8 55 -20z m1903 -110 c79 -30 134 -75 171 -140 36 -63 35 -55 19 -560 -10 -301 -15 -322 -97 -398 -66 -61 -141 -86 -261 -85 -127 0 -198 25 -265 92 -74 74 -80 104 -80 377 0 191 -3 238 -16 270 -19 45 -15 201 7 268 29 85 140 173 249 196 71 15 207 5 273 -20z m1905 -196 c158 -79 283 -348 251 -543 -18 -114 -85 -210 -184 -262 l-45 -24 0 -59 c0 -51 4 -64 26 -87 30 -32 24 -61 -7 -33 -17 16 -19 16 -19 1 0 -10 -7 -17 -15 -17 -8 0 -15 7 -15 15 0 19 -14 19 -30 0 -9 -11 -16 -13 -24 -5 -7 7 0 20 23 44 28 29 32 39 29 80 l-3 48 -88 1 -87 2 0 -54 c0 -46 4 -60 26 -82 30 -32 24 -61 -7 -33 -17 16 -19 16 -19 1 0 -10 -7 -17 -15 -17 -8 0 -15 7 -15 17 0 15 -2 15 -19 -1 -31 -28 -36 0 -7 35 21 25 26 41 26 87 l0 57 -50 24 c-61 29 -133 104 -162 168 -29 66 -36 197 -14 283 39 156 149 315 248 360 61 28 132 26 196 -6z m-1461 -68 c25 -22 28 -30 28 -91 0 -60 -3 -69 -27 -90 -27 -23 -28 -28 -28 -115 l0 -92 31 26 c56 47 109 24 109 -47 0 -70 -70 -147 -121 -134 -17 5 -19 -1 -19 -44 l0 -50 29 22 c58 43 111 22 111 -43 0 -71 -54 -138 -111 -138 l-29 0 0 -105 c0 -87 -3 -105 -15 -105 -10 0 -15 11 -15 35 0 31 -3 35 -26 35 -37 0 -100 65 -109 113 -15 76 57 117 112 65 l23 -21 0 56 0 57 -31 0 c-64 0 -129 113 -98 169 19 34 63 40 100 12 l29 -22 0 49 c0 46 -2 50 -25 50 -79 0 -142 130 -93 189 16 20 62 15 92 -8 l26 -20 0 25 c0 14 -7 29 -16 34 -26 15 -46 88 -34 130 12 45 19 55 45 70 28 16 30 15 62 -12z m-2305 -63 c79 -85 95 -236 30 -294 -60 -54 -147 -43 -195 23 -60 82 18 298 108 298 21 0 40 -9 57 -27z m2989 -39 c54 -27 123 -107 166 -190 37 -72 83 -198 83 -229 0 -7 -33 -26 -72 -43 l-73 -31 -37 37 -38 36 -37 -35 c-72 -66 -64 -67 -128 13 -32 40 -59 74 -61 76 -1 2 -22 -18 -47 -45 l-46 -48 -33 33 c-40 38 -46 39 -92 11 l-35 -20 20 73 c52 189 154 332 266 374 46 17 119 12 164 -12z m1419 -172 c10 -11 26 -16 47 -14 24 2 39 -3 58 -23 31 -30 27 -58 -11 -92 l-25 -23 35 -52 c49 -74 60 -125 51 -236 -8 -117 1 -134 82 -158 77 -22 165 -14 277 25 104 36 138 39 166 11 25 -25 25 -46 2 -85 -17 -27 -17 -32 -3 -57 14 -23 14 -32 2 -60 -14 -36 -14 -35 -5 -89 4 -22 1 -46 -7 -60 -14 -25 -16 -31 -18 -53 -5 -63 -178 -155 -289 -156 -39 0 -62 -11 -119 -58 -41 -32 -43 -37 -43 -87 0 -46 3 -53 26 -63 31 -15 21 -36 -12 -28 -19 5 -30 0 -50 -24 -30 -35 -49 -39 -41 -10 4 17 1 20 -15 18 -40 -6 -28 19 17 36 l45 18 0 59 c0 50 -23 139 -36 139 -3 0 -22 -12 -44 -26 -38 -26 -40 -29 -40 -80 0 -49 2 -54 25 -60 33 -8 26 -30 -8 -26 -19 2 -32 -5 -48 -28 -13 -16 -29 -30 -36 -30 -16 0 -16 5 -3 31 10 17 8 18 -14 9 -17 -6 -27 -6 -32 1 -8 14 -4 16 42 32 l39 14 3 71 c3 66 0 76 -39 154 -23 46 -53 96 -66 112 -36 43 -89 154 -108 224 -11 44 -15 98 -13 184 2 99 -1 129 -15 154 -18 35 -67 79 -97 89 -31 10 -24 30 14 43 21 8 44 27 56 47 12 19 32 43 45 53 17 13 22 25 18 40 -7 28 22 72 46 72 12 0 21 10 25 25 11 45 82 55 116 17z m832 -22 c15 -21 30 -30 50 -30 55 0 86 -67 57 -122 -8 -14 -8 -23 0 -31 6 -6 11 -26 11 -44 0 -44 -38 -83 -79 -83 -20 0 -32 -6 -36 -18 -6 -21 -45 -42 -76 -42 -12 0 -34 14 -49 30 -15 17 -38 30 -50 30 -26 0 -80 52 -80 77 0 10 6 29 13 43 11 21 11 29 -1 47 -29 47 9 114 67 115 17 1 31 4 31 8 0 3 9 16 20 28 15 15 33 22 60 22 32 0 43 -6 62 -30z m-376 -44 c44 -46 78 -121 95 -211 27 -141 -49 -248 -176 -248 -126 0 -200 106 -174 249 28 151 102 254 183 254 22 0 41 -12 72 -44z m-4347 10 c38 -20 89 -80 115 -136 l22 -47 49 44 c87 79 170 104 223 67 59 -41 92 -183 73 -310 -19 -128 -72 -217 -148 -250 -52 -22 -141 -18 -188 10 l-40 23 -45 -26 c-59 -34 -164 -36 -224 -5 -38 20 -39 20 -74 2 -49 -25 -141 -24 -191 2 -93 47 -141 156 -141 321 0 249 123 323 288 174 l38 -34 20 37 c24 46 92 122 119 133 31 12 73 10 104 -5z m724 -13 c36 -38 67 -114 74 -177 10 -100 -45 -166 -140 -166 -40 0 -53 5 -84 34 -34 31 -37 39 -41 97 -5 76 23 161 68 209 38 40 85 41 123 3z m1603 -235 c32 -40 59 -75 61 -77 2 -3 18 9 36 25 80 74 73 71 110 36 l33 -32 74 30 c40 16 77 30 83 30 6 0 8 -38 5 -98 -3 -86 -8 -107 -36 -164 -56 -115 -152 -176 -291 -185 -202 -14 -346 98 -381 297 -7 35 -9 83 -5 105 5 36 12 45 46 65 l41 22 40 -38 39 -39 41 48 c22 26 42 47 44 47 2 0 29 -33 60 -72z m1248 -289 c68 -59 124 -224 107 -315 -18 -95 -84 -154 -174 -154 -130 0 -205 108 -177 253 27 140 103 247 175 247 24 0 45 -9 69 -31z m-656 -25 c53 -34 3 -77 -88 -77 -117 0 -152 69 -47 93 41 10 105 2 135 -16z m-2173 -102 l60 -20 88 25 c79 23 101 25 210 21 91 -4 139 -11 190 -28 65 -22 67 -24 67 -56 0 -32 2 -34 35 -34 l35 0 0 -380 0 -380 -130 0 -130 0 0 -46 0 -46 -43 35 -44 36 -36 -37 -37 -37 0 48 0 47 -412 2 -413 3 0 375 0 375 33 3 c28 3 32 7 32 33 0 33 21 46 123 74 79 22 293 15 372 -13z m2146 -41 c37 -38 38 -79 3 -120 l-26 -31 67 -247 c77 -281 78 -263 -24 -284 -95 -19 -251 7 -251 43 0 7 29 120 65 251 l65 239 -25 30 c-34 40 -33 82 4 119 20 20 39 29 61 29 22 0 41 -9 61 -29z m-1044 -23 c13 -12 23 -28 23 -36 0 -9 6 -12 17 -8 9 4 31 2 50 -5 55 -18 80 -90 47 -137 -14 -20 -14 -24 0 -44 42 -59 -5 -148 -78 -148 -20 0 -36 -5 -36 -10 0 -6 -11 -22 -25 -35 -18 -19 -35 -25 -65 -25 -30 0 -47 6 -65 25 -14 13 -25 29 -25 35 0 5 -16 10 -36 10 -73 0 -120 89 -78 148 14 20 14 24 0 44 -20 29 -20 72 0 103 18 27 72 49 97 39 11 -4 17 -1 17 8 0 16 35 52 60 61 25 10 73 -2 97 -25z m-1844 -8 c16 -18 35 -30 50 -30 40 0 71 -32 69 -71 -2 -43 -2 -95 0 -138 2 -39 -29 -71 -69 -71 -15 0 -34 -12 -50 -30 -35 -42 -84 -42 -123 0 -15 17 -37 30 -48 30 -10 0 -32 10 -47 21 -24 19 -26 27 -21 63 8 52 8 63 0 109 -5 31 -2 43 17 63 12 13 33 24 47 24 14 0 36 13 52 30 21 22 37 30 63 30 27 0 41 -7 60 -30z m2243 11 c20 -12 43 -42 60 -78 25 -50 29 -70 29 -141 l0 -84 -37 -34 c-33 -30 -44 -34 -93 -34 -46 0 -59 4 -90 31 -45 40 -61 94 -46 166 15 74 56 150 94 173 40 25 44 25 83 1z m268 -72 c102 -62 216 -154 216 -173 0 -32 -49 -105 -92 -136 -63 -46 -148 -36 -148 16 0 8 -11 19 -24 26 -14 6 -32 27 -41 47 -9 20 -25 51 -37 69 -16 26 -18 38 -10 56 7 16 7 35 -1 64 -21 80 36 94 137 31z m766 20 c8 -14 8 -29 2 -48 -6 -15 -8 -49 -5 -74 5 -40 2 -49 -20 -69 -14 -13 -27 -34 -29 -48 -1 -14 -17 -34 -35 -46 -18 -12 -29 -24 -26 -28 3 -3 -2 -15 -12 -26 -36 -40 -118 -20 -169 41 -24 28 -66 100 -66 113 0 11 210 161 255 182 62 29 91 30 105 3z m343 -282 c46 -20 104 -89 143 -171 121 -256 73 -488 -112 -542 -183 -53 -345 73 -344 270 1 164 101 384 199 436 43 23 71 25 114 7z m-1517 -67 c26 0 103 -81 132 -139 l29 -57 50 46 c83 77 160 101 218 70 14 -7 37 -38 52 -68 21 -43 27 -72 31 -151 l5 -98 52 -22 c75 -31 91 -53 109 -150 26 -136 17 -213 -28 -251 -17 -13 -17 -14 1 -21 16 -6 12 -12 -26 -49 -53 -51 -145 -96 -231 -113 -54 -12 -60 -15 -45 -27 23 -19 7 -26 -94 -41 -107 -15 -270 -7 -374 19 -77 19 -78 19 -71 -1 6 -18 3 -19 -36 -13 -54 9 -170 63 -235 110 -38 28 -51 33 -55 21 -8 -23 -63 18 -100 73 -61 93 -113 327 -84 384 12 23 104 78 132 78 6 0 12 48 14 108 3 86 8 115 26 149 52 100 142 101 260 5 23 -19 44 -33 45 -31 2 2 15 24 29 49 46 80 123 137 166 124 8 -2 20 -4 28 -4z m1094 -65 c51 -26 103 -163 86 -229 -10 -40 -54 -85 -91 -92 -49 -9 -103 12 -126 50 -45 74 -4 235 71 273 31 16 26 16 60 -2z m-64 -380 c18 -19 42 -35 53 -35 34 0 72 -22 87 -51 18 -35 18 -57 0 -91 -13 -24 -13 -32 0 -55 18 -35 18 -57 -1 -92 -16 -31 -64 -56 -95 -48 -13 3 -21 -1 -25 -14 -9 -26 -54 -59 -82 -59 -33 0 -80 26 -88 49 -4 13 -18 20 -48 24 -54 7 -87 43 -87 94 0 20 7 45 17 55 15 17 15 19 0 36 -47 52 4 152 77 152 20 0 36 5 36 10 0 6 11 22 25 35 37 38 89 34 131 -10z m-2232 4 c46 -36 79 -114 84 -199 3 -67 1 -79 -20 -110 -64 -95 -219 -68 -249 43 -22 79 19 208 81 261 38 31 68 33 104 5z m398 -106 c35 -33 66 -107 74 -175 8 -70 -19 -139 -65 -162 -68 -36 -163 -10 -196 53 -30 59 -12 185 36 256 47 68 98 78 151 28z"
       id="path8"
       style="fill:none" />
    <path
       d="M4272 8387 c-32 -34 -52 -91 -52 -147 0 -64 30 -100 84 -100 48 0 65 8 81 41 20 38 19 79 -4 140 -34 89 -68 110 -109 66z"
       id="path10"
       style="fill:#ff66ff" />
    <path
       d="M3861 8284 c-79 -100 6 -472 200 -882 32 -68 62 -121 67 -118 5 3 -28 114 -73 248 -86 259 -107 347 -108 464 -1 142 66 167 127 47 37 -74 92 -344 127 -628 18 -138 26 -91 28 147 2 347 -44 555 -147 670 -70 77 -180 104 -221 52z"
       id="path12"
       style="fill:#99ccff" />
    <path
       d="M4625 8291 c-109 -49 -176 -179 -210 -408 -16 -107 -21 -528 -6 -551 5 -8 13 28 20 95 31 278 85 536 134 633 30 59 70 76 98 41 15 -18 19 -40 19 -101 0 -117 -22 -211 -109 -472 -44 -131 -75 -240 -71 -243 11 -7 21 12 103 195 76 171 118 286 151 419 51 199 56 333 14 386 -24 31 -83 34 -143 6z"
       id="path14"
       style="fill:#99ccff" />
    <path
       d="M3983 8078 c-20 -33 -2 -215 33 -333 44 -145 148 -435 156 -435 27 0 -56 522 -107 673 -31 90 -62 126 -82 95z"
       id="path16"
       style="fill:#99cccc" />
    <path
       d="M4606 8075 c-38 -38 -91 -239 -125 -480 -29 -199 -36 -285 -23 -285 12 0 156 427 177 528 8 40 15 106 15 147 0 102 -10 123 -44 90z"
       id="path18"
       style="fill:#99cccc" />
    <path
       d="M4193 7282 c-134 -48 -245 -177 -260 -301 l-5 -47 53 -15 c35 -9 55 -20 57 -31 3 -15 -1 -15 -49 -3 -29 8 -55 13 -57 10 -2 -2 -1 -17 3 -34 l7 -31 70 0 c87 0 91 -22 6 -30 l-56 -5 19 -24 c18 -23 23 -24 51 -13 41 15 57 4 27 -20 -24 -18 -24 -19 -5 -33 11 -8 45 -25 75 -37 48 -19 75 -23 186 -23 112 0 138 3 185 23 30 12 64 29 75 37 19 15 19 15 -4 31 -30 22 -13 39 22 23 23 -10 30 -9 47 6 31 28 24 35 -35 35 -42 0 -55 3 -55 15 0 12 14 15 65 15 61 0 66 2 75 26 16 41 13 46 -22 38 -47 -11 -73 -11 -76 1 -2 6 22 16 54 24 l56 14 -6 46 c-15 110 -110 233 -221 286 -79 38 -203 45 -282 17z m7 -227 c0 -33 -4 -45 -15 -45 -11 0 -15 12 -15 45 0 33 4 45 15 45 11 0 15 -12 15 -45z m260 0 c0 -33 -4 -45 -15 -45 -11 0 -15 12 -15 45 0 33 4 45 15 45 11 0 15 -12 15 -45z m-90 -110 c41 -21 42 -67 3 -92 -16 -9 -30 -19 -33 -21 -12 -9 37 -32 67 -32 23 0 33 -5 33 -15 0 -22 -71 -20 -101 4 -24 19 -25 19 -48 0 -27 -22 -115 -28 -109 -6 3 6 22 14 44 17 62 9 85 32 44 45 -27 9 -52 48 -44 69 16 41 93 58 144 31z"
       id="path20"
       style="fill:#ffcccc" />
    <path
       d="M4266 6914 c-15 -15 -16 -19 -3 -31 17 -18 84 -20 100 -4 19 19 -6 46 -45 49 -23 2 -41 -3 -52 -14z"
       id="path22"
       style="fill:#ff9966" />
    <path
       d="M3449 8120 l-34 -59 -47 47 -48 46 0 -105 c0 -93 3 -111 26 -157 34 -68 82 -102 144 -102 62 0 110 34 144 102 23 46 26 64 26 157 l0 105 -48 -47 -48 -47 -34 60 c-19 33 -37 60 -41 60 -3 0 -21 -27 -40 -60z"
       id="path24"
       style="fill:#ff3333" />
    <path
       d="M3204 7667 c6 -100 34 -160 96 -204 81 -58 121 -96 148 -142 l27 -46 3 58 c4 76 -13 161 -39 198 -12 17 -46 44 -76 61 -57 32 -103 72 -142 123 l-22 30 5 -78z"
       id="path26"
       style="fill:#336600" />
    <path
       d="M3743 7698 c-30 -42 -49 -57 -151 -122 -23 -15 -51 -41 -62 -58 -20 -34 -34 -126 -28 -198 l3 -45 18 33 c28 51 83 108 133 137 83 48 130 148 122 256 l-3 42 -32 -45z"
       id="path28"
       style="fill:#336600" />
    <path
       d="M5080 8062 c24 -32 21 -59 -8 -89 -12 -12 -14 -17 -4 -21 24 -8 42 -34 42 -61 0 -35 -18 -58 -52 -66 -21 -5 -33 -1 -52 19 -32 31 -33 60 -2 91 l24 23 -23 6 c-25 6 -51 57 -40 78 4 7 -3 3 -15 -9 l-23 -22 27 -31 c31 -38 33 -63 5 -91 -15 -15 -30 -20 -57 -17 -35 3 -36 2 -49 -47 -7 -28 -13 -73 -13 -102 l0 -52 25 24 c13 14 31 25 40 25 12 0 14 4 5 19 -27 51 2 101 57 101 36 0 63 -27 63 -63 0 -29 -34 -67 -61 -67 -17 0 -17 -2 -1 -30 15 -27 16 -32 2 -57 -13 -24 -23 -28 -57 -28 -45 0 -46 -11 -4 -49 17 -15 21 -16 21 -4 0 24 34 48 67 48 36 0 63 -27 63 -63 0 -22 4 -26 23 -23 12 3 27 5 34 5 14 1 83 59 83 70 0 4 -11 13 -25 19 -14 6 -25 19 -25 28 0 12 -7 10 -31 -10 -17 -14 -35 -26 -40 -26 -15 0 -53 21 -61 34 -17 24 -8 65 18 85 35 28 50 26 82 -6 l27 -28 23 24 c16 16 31 22 48 18 23 -4 24 -2 23 42 0 41 -1 43 -10 21 -23 -58 -63 -75 -107 -44 -28 19 -30 74 -4 97 25 23 68 21 92 -3 18 -18 20 -18 20 -2 0 28 -13 40 -43 40 -60 -1 -89 70 -46 111 l21 20 -22 30 c-12 17 -35 38 -52 47 l-30 15 22 -29z"
       id="path30"
       style="fill:#66ffff" />
    <path
       d="M4999 8044 c-9 -11 -10 -20 -2 -32 25 -41 86 -14 63 27 -13 25 -42 27 -61 5z"
       id="path32"
       style="fill:#66ff99" />
    <path
       d="M4891 7940 c-8 -25 -7 -32 4 -37 35 -13 68 25 45 52 -19 23 -37 18 -49 -15z"
       id="path34"
       style="fill:#66ff99" />
    <path
       d="M5162 7958 c-18 -18 -15 -46 6 -57 31 -17 42 0 23 37 -13 25 -19 30 -29 20z"
       id="path36"
       style="fill:#66ff99" />
    <path
       d="M5028 7919 c-37 -21 -9 -77 32 -64 22 7 27 44 8 63 -14 14 -18 14 -40 1z"
       id="path38"
       style="fill:#66ff99" />
    <path
       d="M4945 7806 c-20 -15 -17 -44 7 -59 12 -8 21 -7 32 2 36 30 -1 85 -39 57z"
       id="path40"
       style="fill:#66ff99" />
    <path
       d="M5131 7802 c-20 -38 31 -71 59 -37 6 8 9 23 5 35 -8 25 -51 27 -64 2z"
       id="path42"
       style="fill:#66ff99" />
    <path
       d="M5050 7685 c-26 -31 13 -82 44 -56 19 16 21 42 4 59 -16 16 -33 15 -48 -3z"
       id="path44"
       style="fill:#66ff99" />
    <path
       d="M4884 7676 c-11 -28 1 -51 28 -54 31 -4 48 29 28 53 -16 19 -49 19 -56 1z"
       id="path46"
       style="fill:#66ff99" />
    <path
       d="M5180 7671 c-14 -27 -2 -51 26 -51 17 0 25 7 30 24 3 14 3 30 -1 35 -10 18 -44 12 -55 -8z"
       id="path48"
       style="fill:#66ff99" />
    <path
       d="M4977 7559 c-26 -15 -21 -46 8 -53 32 -8 45 -1 45 24 0 25 -30 41 -53 29z"
       id="path50"
       style="fill:#66ff99" />
    <path
       d="M5402 7750 c-51 -48 -85 -166 -68 -235 19 -76 117 -101 178 -46 31 28 33 33 32 98 -1 77 -30 150 -72 183 -31 25 -43 25 -70 0z"
       id="path52"
       style="fill:#ff6600" />
    <path
       d="M2953 7656 c-51 -43 -103 -174 -103 -261 0 -56 37 -124 80 -147 69 -36 154 -14 198 52 51 75 8 278 -75 350 -41 36 -63 38 -100 6z"
       id="path54"
       style="fill:#ff33ff" />
    <path
       d="M4840 7411 c-5 -11 -10 -30 -10 -42 0 -18 -3 -20 -12 -11 -17 17 -63 15 -77 -2 -19 -23 -9 -69 17 -82 l23 -11 -26 -17 c-20 -14 -25 -24 -23 -48 4 -41 28 -56 68 -41 28 11 30 10 30 -12 0 -30 25 -55 54 -55 30 0 46 18 46 52 0 25 2 27 19 18 29 -15 56 -12 74 8 24 26 21 47 -9 71 l-26 20 28 24 c22 19 26 29 20 50 -8 32 -46 45 -82 28 -22 -10 -24 -9 -24 17 0 15 -5 33 -12 40 -19 19 -66 15 -78 -7z m84 -102 c35 -28 35 -70 0 -98 -33 -26 -55 -26 -85 -3 -45 37 -16 122 41 122 9 0 29 -9 44 -21z"
       id="path56"
       style="fill:#ff3333" />
    <path
       d="M4850 7281 c-13 -25 -4 -48 21 -56 38 -12 65 35 37 63 -18 18 -46 14 -58 -7z"
       id="path58"
       style="fill:#ff6600" />
    <path
       d="M3735 7376 c-41 -43 -69 -132 -62 -194 4 -35 12 -53 36 -74 60 -54 158 -28 177 47 10 39 -2 127 -21 166 -22 44 -65 89 -83 89 -8 0 -29 -15 -47 -34z"
       id="path60"
       style="fill:#669900" />
    <path
       d="M5734 7373 c-13 -30 -14 -44 -4 -76 14 -48 37 -58 62 -28 20 26 24 91 8 122 -18 32 -49 24 -66 -18z"
       id="path62"
       style="fill:#cc99ff" />
    <path
       d="M5649 7174 c-29 -35 43 -147 85 -131 11 4 16 19 16 43 0 28 -8 44 -34 70 -38 38 -48 41 -67 18z"
       id="path64"
       style="fill:#cc99ff" />
    <path
       d="M5838 7044 c-29 -15 -62 -86 -53 -115 17 -53 105 15 105 81 0 44 -15 54 -52 34z"
       id="path66"
       style="fill:#cc99ff" />
    <path
       d="M5650 6915 c-29 -35 35 -141 79 -133 35 7 25 81 -15 121 -30 31 -46 34 -64 12z"
       id="path68"
       style="fill:#cc99ff" />
    <path
       d="M5823 6778 c-71 -76 -39 -166 34 -93 29 29 34 40 31 72 -4 47 -33 56 -65 21z"
       id="path70"
       style="fill:#cc99ff" />
    <path
       d="M5644 6635 c-12 -49 53 -133 92 -118 18 7 18 57 -1 93 -27 52 -80 67 -91 25z"
       id="path72"
       style="fill:#cc99ff" />
    <path
       d="M5330 7332 c-71 -38 -140 -197 -140 -321 0 -89 28 -146 90 -178 98 -52 214 -13 256 86 41 97 -12 306 -98 388 -44 41 -67 47 -108 25z"
       id="path74"
       style="fill:#cc99cc" />
    <path
       d="M2802 7168 c-7 -7 -12 -25 -12 -40 0 -25 -2 -27 -19 -18 -29 15 -56 12 -74 -8 -24 -26 -21 -47 9 -71 l27 -21 -27 -21 c-30 -24 -33 -49 -8 -72 21 -19 45 -21 73 -7 17 9 19 7 19 -18 0 -35 16 -52 52 -52 29 0 48 23 48 58 0 18 3 19 30 9 40 -15 64 0 68 41 2 22 -3 34 -20 46 l-22 16 22 16 c17 12 22 24 20 46 -4 41 -28 56 -68 41 -27 -10 -30 -9 -30 9 0 35 -19 58 -48 58 -16 0 -33 -5 -40 -12z m83 -113 c14 -13 25 -33 25 -45 0 -27 -43 -70 -70 -70 -27 0 -70 43 -70 70 0 27 43 70 70 70 12 0 32 -11 45 -25z"
       id="path76"
       style="fill:#cc99ff" />
    <path
       d="M2812 7038 c-23 -23 -7 -68 24 -68 14 0 44 27 44 40 0 13 -30 40 -44 40 -6 0 -17 -5 -24 -12z"
       id="path78"
       style="fill:#ff9900" />
    <path
       d="M3231 7088 c-60 -13 -124 -78 -140 -142 -12 -48 -2 -115 20 -143 7 -8 -3 -28 -30 -64 -38 -50 -61 -111 -61 -162 0 -16 8 -28 25 -35 39 -18 52 -15 77 18 12 17 26 30 30 30 5 0 33 -22 62 -50 l53 -50 63 81 62 81 49 -48 49 -48 25 24 c14 13 25 31 25 39 0 27 -46 115 -73 140 -25 23 -25 25 -11 53 15 28 14 32 -9 67 l-25 37 20 27 c23 31 18 54 -20 92 -52 52 -116 70 -191 53z m139 -113 c0 -16 -6 -25 -15 -25 -9 0 -15 9 -15 25 0 16 6 25 15 25 9 0 15 -9 15 -25z"
       id="path80"
       style="stroke:#ffcc66;fill:#ffcc66" />
    <path
       d="M3469 6934 c-9 -11 -10 -20 -2 -32 14 -22 43 -22 57 1 9 15 7 21 -8 33 -25 18 -31 18 -47 -2z"
       id="path82"
       style="fill:#ff9966" />
    <path
       d="M3334 6528 c-32 -40 -59 -75 -61 -77 -1 -2 -28 20 -59 49 l-55 53 -33 -32 -33 -32 -71 31 c-39 16 -73 30 -76 30 -9 0 -7 -62 5 -125 27 -147 119 -239 265 -266 164 -31 316 42 378 181 22 49 28 78 29 143 2 78 1 81 -25 96 -27 15 -28 15 -66 -22 -21 -20 -41 -37 -45 -37 -4 0 -23 18 -43 40 -20 22 -40 40 -45 40 -4 0 -34 -33 -65 -72z"
       id="path84"
       style="fill:#ff9966" />
    <path
       d="M2424 6861 c-23 -10 -58 -35 -78 -55 -34 -35 -86 -108 -86 -122 0 -4 19 -4 43 -1 28 4 66 -1 112 -14 64 -19 74 -19 105 -6 33 14 38 13 82 -12 l48 -26 16 23 16 23 35 -21 c20 -11 37 -19 39 -17 8 7 -51 106 -90 153 -42 50 -122 94 -171 94 -16 0 -48 -9 -71 -19z"
       id="path86"
       style="fill:#ff9966" />
    <path
       d="M2333 6644 c-17 -41 -8 -121 18 -160 l25 -38 -31 -28 c-18 -15 -43 -48 -56 -73 l-24 -45 27 -27 28 -27 43 42 c23 23 45 42 48 42 3 0 29 -31 58 -70 30 -38 56 -70 59 -70 4 0 28 21 54 47 l48 47 33 -32 c31 -30 36 -31 65 -21 18 6 32 16 32 23 0 37 -38 114 -74 151 l-41 43 23 35 c22 33 43 137 27 137 -5 0 -16 -7 -26 -16 -16 -14 -21 -14 -64 12 -43 25 -49 26 -84 14 -37 -12 -87 -4 -166 26 -9 4 -18 -1 -22 -12z m112 -59 c0 -10 -6 -20 -12 -22 -8 -3 -13 5 -13 22 0 17 5 25 13 23 6 -3 12 -13 12 -23z m155 0 c0 -26 -14 -33 -25 -15 -9 14 1 40 15 40 5 0 10 -11 10 -25z m-43 -47 l33 -32 -27 -28 c-34 -35 -59 -35 -102 0 l-33 28 36 32 c20 18 42 32 48 32 7 0 27 -14 45 -32z"
       id="path88"
       style="fill:#ffcc99" />
    <path
       d="M2484 6526 c-19 -15 -19 -15 3 -37 33 -34 83 0 53 36 -16 19 -31 19 -56 1z"
       id="path90"
       style="fill:#ff9966" />
    <path
       d="M2367 6250 c-18 -22 -38 -40 -43 -40 -6 0 -25 16 -44 35 -19 19 -37 35 -40 35 -3 0 -17 -10 -29 -22 -21 -19 -23 -27 -17 -85 17 -161 84 -249 222 -289 66 -19 167 -15 224 9 110 47 174 141 186 275 4 39 5 72 3 72 -3 0 -36 -13 -74 -30 l-70 -29 -27 32 -27 32 -48 -47 c-27 -27 -53 -48 -58 -48 -6 0 -32 30 -59 66 -27 35 -53 67 -57 69 -4 3 -23 -13 -42 -35z"
       id="path92"
       style="fill:#ff9966" />
    <path
       d="M6037 6804 c-35 -35 -67 -123 -67 -185 0 -45 4 -55 34 -85 28 -28 42 -34 75 -34 90 0 131 86 97 203 -18 61 -67 127 -96 127 -9 0 -29 -12 -43 -26z"
       id="path94"
       style="fill:#ff33ff" />
    <path
       d="M5111 6754 c-12 -15 -21 -35 -21 -46 0 -15 -3 -17 -19 -8 -48 25 -101 -6 -101 -58 0 -30 26 -62 51 -62 8 0 -1 -12 -18 -26 -39 -30 -44 -73 -13 -104 21 -21 65 -27 75 -10 10 16 25 11 25 -9 0 -10 9 -30 21 -45 38 -48 112 -23 112 39 0 20 3 25 16 19 39 -17 67 -15 89 6 31 29 28 66 -9 101 -17 16 -26 29 -20 29 20 0 51 40 51 65 0 36 -36 68 -68 62 -15 -2 -34 -7 -43 -11 -13 -6 -16 -1 -16 19 0 62 -74 87 -112 39z m88 -114 c10 -5 24 -23 31 -40 17 -40 -1 -84 -41 -100 -34 -15 -83 1 -99 31 -37 69 40 146 109 109z"
       id="path96"
       style="fill:#ccff00" />
    <path
       d="M5126 6604 c-30 -30 -9 -84 33 -84 22 0 51 30 51 53 0 21 -27 47 -50 47 -10 0 -26 -7 -34 -16z"
       id="path98"
       style="fill:#ff6600" />
    <path
       d="M5340 6320 c-157 -152 -172 -169 -147 -170 23 0 57 27 173 138 80 75 149 137 154 137 4 0 74 -62 154 -138 121 -115 150 -138 172 -135 23 3 8 20 -149 171 -97 92 -177 167 -179 167 -1 -1 -82 -77 -178 -170z"
       id="path100"
       style="fill:#990000" />
    <path
       d="M5377 6257 l-138 -132 1 -457 0 -458 90 0 90 0 0 166 0 166 35 35 c32 32 40 35 73 30 24 -4 47 -17 65 -37 l27 -30 0 -165 0 -165 90 0 90 0 0 459 0 458 -139 132 c-76 72 -141 131 -142 131 -2 -1 -66 -60 -142 -133z m168 33 c36 -14 55 -65 55 -150 l0 -70 -80 0 -80 0 0 75 c0 79 15 125 47 144 23 13 26 13 58 1z m-154 -300 c33 -18 49 -64 49 -145 l0 -76 -77 3 -78 3 0 76 c0 82 14 120 49 137 28 14 34 14 57 2z m330 -19 c28 -28 29 -34 29 -115 l0 -86 -75 0 -75 0 0 86 c0 81 1 87 29 115 16 16 37 29 46 29 9 0 30 -13 46 -29z"
       id="path102"
       style="fill:#6699ff" />
    <path
       d="M5495 6256 c-15 -11 -20 -30 -23 -85 l-4 -71 51 0 51 0 0 56 c0 54 -12 92 -34 106 -15 11 -20 10 -41 -6z"
       id="path104"
       style="fill:#993333" />
    <path
       d="M5334 5949 c-14 -16 -19 -36 -19 -82 l0 -62 48 -3 47 -3 0 65 c0 53 -4 70 -20 86 -25 25 -32 25 -56 -1z"
       id="path106"
       style="fill:#993333" />
    <path
       d="M5646 5948 c-11 -15 -16 -45 -16 -86 l0 -63 48 3 47 3 0 62 c0 88 -43 132 -79 81z"
       id="path108"
       style="fill:#993333" />
    <path
       d="M5080 5899 c-116 -110 -123 -119 -95 -118 24 0 50 19 128 93 81 77 98 98 95 118 -3 23 -14 15 -128 -93z"
       id="path110"
       style="fill:#990000" />
    <path
       d="M5830 5992 c0 -23 18 -45 100 -121 80 -74 105 -92 125 -89 24 3 14 14 -99 121 -118 111 -126 117 -126 89z"
       id="path112"
       style="fill:#990000" />
    <path
       d="M5118 5839 l-88 -81 0 -274 0 -274 90 0 90 0 0 355 c0 195 -1 355 -2 355 -2 0 -42 -37 -90 -81z m41 -105 c16 -20 21 -41 21 -85 l0 -59 -60 0 -60 0 0 59 c0 64 25 111 60 111 10 0 28 -12 39 -26z"
       id="path114"
       style="fill:#6699cc" />
    <path
       d="M5102 5718 c-7 -7 -12 -31 -12 -55 0 -41 1 -43 30 -43 29 0 30 2 30 43 0 38 -13 67 -30 67 -3 0 -11 -5 -18 -12z"
       id="path116"
       style="fill:#993333" />
    <path
       d="M5830 5566 l0 -356 90 0 90 0 0 274 0 274 -90 82 -90 82 0 -356z m129 168 c16 -20 21 -41 21 -85 l0 -59 -60 0 -60 0 0 56 c0 103 52 148 99 88z"
       id="path118"
       style="fill:#6699cc" />
    <path
       d="M5902 5718 c-7 -7 -12 -31 -12 -55 0 -41 1 -43 30 -43 29 0 30 2 30 43 0 38 -13 67 -30 67 -3 0 -11 -5 -18 -12z"
       id="path120"
       style="fill:#993333" />
    <path
       d="M5476 5559 l-26 -20 0 -165 0 -164 70 0 70 0 0 160 c0 157 -1 161 -25 185 -30 30 -54 31 -89 4z"
       id="path122"
       style="fill:#993333" />
    <path
       d="M3985 6554 c-46 -23 -51 -32 -32 -51 16 -16 19 -15 50 15 l33 32 28 -29 c28 -29 56 -32 56 -5 0 18 -58 54 -85 54 -11 0 -33 -7 -50 -16z"
       id="path124"
       style="fill:#66ffff" />
    <path
       d="M3998 6473 l-27 -27 -24 22 c-29 28 -31 27 -51 -3 l-16 -25 150 0 c82 0 150 3 150 8 0 4 -7 16 -15 26 -15 19 -15 19 -40 -4 l-25 -24 -28 27 c-35 34 -41 34 -74 0z"
       id="path126"
       style="fill:#66ff99" />
    <path
       d="M3852 6385 c-23 -50 -14 -61 21 -27 l33 32 32 -32 32 -32 33 32 33 32 29 -30 29 -30 33 32 33 32 35 -34 c39 -38 42 -35 21 15 l-15 35 -169 0 -169 0 -11 -25z"
       id="path128"
       style="fill:#66ff33" />
    <path
       d="M3876 6321 c-16 -16 -34 -27 -40 -25 -8 3 -17 -11 -24 -34 -18 -60 -15 -96 11 -120 l23 -22 29 30 29 30 33 -32 33 -32 33 32 33 32 29 -30 29 -30 33 32 33 32 33 -32 33 -32 23 24 c21 22 22 28 12 80 -12 67 -17 77 -34 70 -7 -2 -26 9 -42 26 l-29 30 -31 -30 -31 -30 -29 30 -29 30 -33 -32 -33 -32 -33 32 -33 32 -28 -29z"
       id="path130"
       style="fill:#66ffff" />
    <path
       d="M3875 6110 l-29 -30 -23 22 -23 21 0 -31 0 -32 233 2 232 3 3 30 4 30 -26 -24 -26 -25 -33 32 -33 32 -29 -30 -29 -30 -31 30 -31 30 -32 -32 -32 -32 -33 32 -33 32 -29 -30z"
       id="path132"
       style="fill:#66ff00" />
    <path
       d="M3825 6000 c19 -36 25 -37 55 -5 l24 25 33 -32 33 -32 33 32 33 32 29 -30 29 -30 33 32 33 32 30 -29 c16 -16 31 -27 34 -24 6 7 26 47 26 53 0 3 -99 6 -220 6 l-221 0 16 -30z"
       id="path134"
       style="fill:#66ff00" />
    <path
       d="M3884 5959 c-18 -21 -18 -21 1 -36 64 -49 183 -60 253 -24 52 26 58 38 36 62 -17 19 -18 19 -49 -11 l-31 -30 -29 30 -29 30 -33 -32 -33 -32 -33 32 -33 32 -20 -21z"
       id="path136"
       style="fill:#66ffff" />
    <path
       d="M4645 6506 c-42 -18 -93 -79 -126 -151 -36 -78 -46 -117 -27 -110 8 3 32 -14 58 -40 l44 -45 48 47 48 47 48 -47 48 -47 44 45 c25 25 51 43 58 40 17 -6 10 19 -28 100 -38 83 -81 139 -123 158 -42 20 -52 20 -92 3z"
       id="path138"
       style="fill:#ff0000" />
    <path
       d="M4475 6190 c-11 -12 -20 -41 -23 -72 l-4 -53 23 22 23 23 48 -47 48 -47 48 47 47 47 48 -47 47 -47 48 47 c48 47 48 48 67 27 10 -11 22 -20 26 -20 15 0 -3 105 -22 125 -19 19 -19 19 -67 -28 l-47 -47 -48 47 -47 47 -48 -47 -48 -47 -44 45 c-24 25 -47 45 -51 45 -3 0 -14 -9 -24 -20z"
       id="path140"
       style="fill:#ccff00" />
    <path
       d="M4477 6052 c-22 -24 -21 -54 2 -100 41 -80 115 -124 205 -125 109 -1 184 49 221 148 18 45 18 46 -5 71 l-24 24 -48 -47 -48 -47 -47 47 -48 47 -47 -47 -48 -47 -48 47 c-47 46 -49 47 -65 29z"
       id="path142"
       style="fill:#00ccff" />
    <path
       d="M6293 6412 c24 -26 21 -67 -5 -92 -18 -16 -19 -20 -5 -20 20 0 47 -37 47 -65 0 -31 -44 -69 -73 -63 -22 4 -23 3 -14 -23 13 -33 -11 -75 -47 -85 -23 -6 -24 -6 -8 -34 16 -27 16 -30 -4 -57 -16 -21 -30 -28 -57 -28 -29 0 -34 -3 -27 -16 5 -9 17 -22 26 -30 15 -12 18 -12 22 0 8 24 41 51 62 51 12 0 32 -11 45 -25 14 -13 25 -33 25 -45 0 -11 7 -20 15 -20 27 0 79 27 103 53 l24 25 -22 7 c-12 4 -26 18 -33 32 -11 24 -11 24 -19 4 -16 -44 -100 -39 -116 6 -20 58 31 109 84 84 14 -6 28 -20 31 -31 5 -19 7 -19 30 6 18 20 31 25 54 22 l30 -5 -6 49 c-13 91 -19 103 -48 100 -39 -5 -81 40 -72 76 3 15 15 34 26 43 20 15 20 16 -20 57 -40 41 -82 62 -48 24z m129 -229 c38 -34 8 -113 -44 -113 -29 0 -68 38 -68 67 0 52 72 82 112 46z"
       id="path144"
       style="fill:#ccff00" />
    <path
       d="M6350 6155 c-18 -22 -1 -50 31 -50 20 0 24 5 24 30 0 23 -5 31 -21 33 -11 2 -27 -4 -34 -13z"
       id="path146"
       style="fill:#00cc00" />
    <path
       d="M6225 6396 c-20 -15 -17 -44 7 -59 12 -8 21 -7 32 2 36 30 -1 85 -39 57z"
       id="path148"
       style="fill:#00cc00" />
    <path
       d="M6164 6375 c-15 -24 -15 -26 7 -43 14 -12 22 -30 22 -50 0 -46 -19 -64 -66 -60 -39 2 -40 2 -53 -42 -8 -25 -14 -71 -14 -102 l0 -57 25 24 c13 14 31 25 40 25 12 0 14 4 5 19 -28 52 5 107 59 99 26 -4 29 -2 20 13 -14 26 -11 60 7 80 14 15 13 19 -11 44 -19 18 -26 33 -22 51 5 30 2 30 -19 -1z"
       id="path150"
       style="fill:#cccc33" />
    <path
       d="M6115 6291 c-16 -32 -12 -41 21 -41 23 0 37 21 28 44 -11 28 -33 26 -49 -3z"
       id="path152"
       style="fill:#00cc00" />
    <path
       d="M6366 6295 c-7 -20 2 -42 21 -50 25 -9 35 9 22 38 -13 30 -34 35 -43 12z"
       id="path154"
       style="fill:#00cc00" />
    <path
       d="M6233 6254 c-8 -22 10 -49 32 -49 10 0 22 7 28 16 15 24 1 49 -28 49 -15 0 -28 -7 -32 -16z"
       id="path156"
       style="fill:#00cc00" />
    <path
       d="M6157 6153 c-4 -3 -7 -17 -7 -29 0 -29 36 -42 57 -21 21 21 8 57 -21 57 -12 0 -26 -3 -29 -7z"
       id="path158"
       style="fill:#00cc00" />
    <path
       d="M6266 6034 c-19 -19 -20 -26 -4 -42 24 -24 68 -9 68 23 0 7 -32 35 -40 35 -5 0 -16 -7 -24 -16z"
       id="path160"
       style="fill:#ccff00" />
    <path
       d="M6104 6026 c-11 -28 1 -51 25 -51 32 0 49 28 32 49 -17 20 -50 21 -57 2z"
       id="path162"
       style="fill:#00cc00" />
    <path
       d="M6400 6025 c-17 -21 -8 -50 17 -53 17 -3 24 3 29 22 10 42 -19 63 -46 31z"
       id="path164"
       style="fill:#00cc00" />
    <path
       d="M6192 5911 c-23 -14 -10 -46 21 -49 31 -4 46 20 27 43 -14 17 -29 19 -48 6z"
       id="path166"
       style="fill:#00cc00" />
    <path
       d="M2890 5920 l0 -90 390 0 390 0 0 90 0 90 -90 0 c-89 0 -90 0 -90 -25 0 -16 -6 -25 -15 -25 -9 0 -15 9 -15 25 l0 25 -179 0 c-177 0 -180 0 -183 -22 -4 -30 -26 -34 -30 -6 -3 22 -8 23 -90 26 l-88 3 0 -91z"
       id="path168"
       style="fill:#ff3399" />
    <path
       d="M2890 5565 l0 -235 390 0 390 0 0 235 0 235 -390 0 -390 0 0 -235z"
       id="path170"
       style="fill:#993366" />
    <path
       d="M1984 5971 c-21 -13 -44 -44 -67 -90 -85 -170 -71 -318 37 -370 121 -59 246 24 246 164 0 98 -47 221 -107 281 -38 39 -64 42 -109 15z"
       id="path172"
       style="fill:#ff6600" />
    <path
       d="M4208 5779 c-80 -18 -162 -70 -243 -153 -69 -69 -89 -98 -138 -196 -31 -63 -68 -154 -81 -202 -29 -101 -56 -271 -56 -352 l0 -56 110 0 c61 0 110 2 110 4 0 2 -7 17 -15 32 -40 79 -46 255 -9 330 12 25 32 45 55 57 33 16 41 16 77 4 22 -8 59 -29 82 -47 45 -36 44 -36 75 21 8 14 30 40 50 58 29 25 45 31 80 31 39 0 50 -5 83 -38 20 -20 46 -56 57 -80 11 -23 23 -42 26 -42 3 0 16 12 30 26 30 32 79 63 120 74 48 14 93 -9 121 -62 20 -37 23 -57 23 -153 -1 -92 -4 -118 -23 -159 -12 -27 -22 -50 -22 -52 0 -2 50 -4 110 -4 l110 0 0 43 c0 23 -7 90 -15 149 -53 403 -245 697 -499 764 -57 15 -161 17 -218 3z"
       id="path174"
       style="fill:#66ffcc" />
    <path
       d="M4268 5271 c-18 -9 -48 -38 -65 -64 -32 -48 -78 -175 -68 -186 3 -3 58 47 123 112 111 111 116 117 97 131 -32 23 -52 25 -87 7z"
       id="path176"
       style="fill:#00ffff" />
    <path
       d="M3953 5220 c-43 -17 -58 -65 -58 -185 0 -97 3 -116 25 -160 l25 -50 93 -3 c50 -1 92 -1 92 1 0 3 -7 21 -15 40 -20 47 -19 150 1 217 l16 55 -33 28 c-61 51 -111 71 -146 57z"
       id="path178"
       style="fill:#330066" />
    <path
       d="M4604 5216 c-37 -16 -46 -27 -35 -44 6 -10 16 -9 44 3 50 21 52 20 70 -25 11 -29 20 -38 31 -34 20 8 20 17 -1 61 -9 19 -27 39 -40 44 -30 11 -31 11 -69 -5z"
       id="path180"
       style="fill:#ccff66" />
    <path
       d="M4257 5092 c-117 -118 -127 -130 -127 -165 0 -20 3 -37 8 -37 4 0 70 63 146 139 134 134 139 141 128 165 -6 15 -15 26 -19 26 -5 0 -66 -57 -136 -128z"
       id="path182"
       style="fill:#00ffcc" />
    <path
       d="M4507 5141 c-24 -29 -24 -29 -9 -99 l15 -71 39 20 39 20 16 -40 c18 -46 20 -47 70 -26 26 11 39 12 43 4 10 -16 20 27 20 89 l0 54 -30 -7 c-27 -6 -31 -4 -46 34 l-16 40 -39 -20 c-41 -20 -59 -18 -59 6 0 27 -18 25 -43 -4z"
       id="path184"
       style="fill:#66ff33" />
    <path
       d="M4293 4998 c-119 -120 -140 -146 -132 -160 22 -38 52 -20 178 106 l123 124 -12 36 c-6 20 -12 36 -13 36 -1 0 -66 -64 -144 -142z"
       id="path186"
       style="fill:#00ff99" />
    <path
       d="M4360 4925 l-105 -105 86 0 c95 0 106 6 128 69 13 39 14 110 3 128 -5 9 -41 -21 -112 -92z"
       id="path188"
       style="fill:#00ff66" />
    <path
       d="M4538 4955 c-17 -9 -29 -27 -33 -47 -4 -18 -14 -45 -21 -60 l-15 -28 105 0 c99 0 104 1 120 25 18 27 21 61 6 70 -5 3 -23 -1 -39 -10 -43 -22 -49 -19 -67 25 -18 45 -18 45 -56 25z"
       id="path190"
       style="fill:#00ff00" />
    <path
       d="M3692 4673 c10 -248 112 -421 303 -513 115 -55 168 -65 330 -64 123 1 150 4 221 27 251 83 394 295 394 587 l0 80 -626 0 -626 0 4 -117z"
       id="path192"
       style="fill:#00ffff" />
    <path
       d="M2361 5754 c-30 -38 -61 -129 -61 -177 0 -86 69 -142 144 -117 47 15 68 42 73 94 12 99 -48 226 -106 226 -20 0 -36 -9 -50 -26z"
       id="path194"
       style="fill:#66ff99" />
    <path
       d="M2617 5682 c-19 -21 -23 -92 -7 -123 6 -10 19 -19 30 -19 26 0 40 29 40 83 0 30 -6 49 -18 60 -23 21 -25 21 -45 -1z"
       id="path196"
       style="fill:#999933" />
    <path
       d="M2686 5439 c-18 -21 -26 -42 -26 -70 0 -34 3 -39 23 -39 42 0 95 79 82 121 -10 29 -50 23 -79 -12z"
       id="path198"
       style="fill:#999933" />
    <path
       d="M2520 5325 c-20 -24 14 -101 52 -121 40 -21 52 -7 49 52 -1 26 -53 84 -74 84 -8 0 -20 -7 -27 -15z"
       id="path200"
       style="fill:#999933" />
    <path
       d="M2686 5179 c-18 -21 -26 -42 -26 -70 0 -34 3 -39 23 -39 42 0 95 79 82 121 -10 29 -50 23 -79 -12z"
       id="path202"
       style="fill:#999933" />
    <path
       d="M2520 5070 c-22 -41 31 -130 76 -130 41 0 28 96 -18 132 -30 23 -45 22 -58 -2z"
       id="path204"
       style="fill:#999933" />
    <path
       d="M2694 4916 c-26 -26 -34 -42 -34 -70 0 -44 20 -55 56 -31 36 23 59 81 45 112 -14 31 -27 29 -67 -11z"
       id="path206"
       style="fill:#999933" />
    <path
       d="M6225 5656 c-8 -13 -13 -31 -9 -40 7 -17 -11 -23 -21 -6 -9 15 -52 12 -69 -6 -28 -27 -14 -73 26 -86 8 -3 2 -14 -17 -30 -26 -23 -28 -29 -20 -54 12 -33 49 -43 86 -23 19 10 21 9 15 -6 -4 -10 0 -28 9 -42 13 -19 23 -23 48 -21 26 2 34 9 41 34 8 28 13 30 49 30 26 -1 43 5 50 15 15 23 0 67 -24 74 -21 7 -21 8 6 29 20 16 26 29 23 50 -4 40 -29 54 -68 39 -28 -10 -30 -10 -30 11 0 51 -68 74 -95 32z m68 -87 c30 -16 37 -28 37 -66 0 -56 -69 -84 -110 -43 -29 29 -26 74 6 99 31 24 37 25 67 10z"
       id="path208"
       style="fill:#cc99ff" />
    <path
       d="M6242 5538 c-28 -28 -1 -75 38 -63 33 11 21 75 -15 75 -6 0 -16 -5 -23 -12z"
       id="path210"
       style="fill:#ff9900" />
    <path
       d="M6588 5580 c-29 -22 -63 -96 -73 -157 -14 -88 33 -153 110 -153 81 0 123 64 105 161 -13 66 -34 114 -64 144 -30 30 -45 31 -78 5z"
       id="path212"
       style="fill:#669900" />
    <path
       d="M2210 5325 c0 -24 2 -25 65 -25 63 0 65 1 65 25 0 24 -2 25 -65 25 -63 0 -65 -1 -65 -25z"
       id="path214"
       style="fill:#993333" />
    <path
       d="M2250 5152 l0 -118 -41 -55 c-64 -85 -89 -144 -89 -216 l0 -63 160 0 160 0 0 43 c0 69 -26 139 -80 213 l-50 69 0 122 0 123 -30 0 -30 0 0 -118z"
       id="path216"
       style="fill:#993333" />
    <path
       d="M2120 4515 l0 -155 160 0 160 0 0 155 0 155 -160 0 -160 0 0 -155z"
       id="path218"
       style="fill:#993333" />
    <path
       d="M2120 4185 l0 -145 160 0 160 0 0 145 0 145 -160 0 -160 0 0 -145z"
       id="path220"
       style="fill:#993333" />
    <path
       d="M1825 5305 c-14 -13 -25 -33 -25 -45 0 -23 -4 -24 -31 -9 -39 20 -89 -14 -89 -61 0 -21 9 -36 30 -52 l31 -22 -26 -13 c-74 -39 -16 -150 60 -115 20 9 23 8 28 -18 13 -63 78 -82 117 -33 12 15 19 36 16 46 -3 14 -1 17 12 11 9 -4 29 -9 44 -11 32 -6 68 26 68 62 0 26 -31 65 -52 65 -7 0 2 12 20 26 41 33 44 73 5 104 -16 12 -35 19 -45 16 -10 -3 -26 -8 -35 -12 -14 -4 -18 1 -20 23 -1 30 -35 63 -65 63 -10 0 -30 -11 -43 -25z m96 -134 c17 -18 29 -40 29 -56 0 -36 -41 -75 -80 -75 -36 0 -80 38 -80 69 0 49 37 89 83 90 10 1 32 -12 48 -28z"
       id="path222"
       style="fill:#cc99cc" />
    <path
       d="M1835 5150 c-22 -24 -13 -66 15 -75 52 -16 90 36 55 75 -10 11 -26 20 -35 20 -9 0 -25 -9 -35 -20z"
       id="path224"
       style="fill:#ff9900" />
    <path
       d="M3135 5177 c-105 -28 -167 -76 -204 -157 -30 -65 -30 -231 -1 -260 11 -11 31 -20 44 -20 28 0 76 35 76 56 0 24 24 15 42 -16 21 -38 60 -48 94 -25 15 9 29 26 31 36 7 27 32 24 43 -6 21 -55 103 -58 123 -5 14 38 32 38 51 1 25 -48 73 -55 111 -16 22 21 25 33 25 103 0 156 -54 246 -176 292 -72 27 -190 35 -259 17z m240 -66 c8 -14 -77 -63 -89 -51 -11 11 -11 12 34 39 39 23 46 25 55 12z m-249 -62 c33 -20 40 -30 28 -42 -4 -4 -57 20 -83 39 -4 4 9 24 16 24 3 0 21 -9 39 -21z m318 -77 c3 -5 -10 -23 -28 -41 -43 -41 -61 -23 -20 20 29 30 39 35 48 21z m-188 -23 c6 -10 -41 -58 -58 -59 -15 0 -8 24 14 47 24 26 34 28 44 12z m-212 -30 c22 -13 33 -26 29 -35 -5 -15 -10 -13 -56 18 -15 11 -25 24 -22 29 8 12 9 12 49 -12z"
       id="path226"
       style="fill:#ccccff" />
    <path
       d="M3060 4443 l0 -321 40 -16 c22 -9 45 -16 50 -16 6 0 10 114 10 309 l0 309 -27 7 c-16 3 -38 16 -50 27 l-23 21 0 -320z"
       id="path228"
       style="fill:#cccccc" />
    <path
       d="M3213 4734 c-23 -21 -23 -22 -23 -338 l0 -316 50 0 50 0 -1 318 0 317 -27 20 -27 21 -22 -22z"
       id="path230"
       style="fill:#cccccc" />
    <path
       d="M3363 4726 l-42 -21 -1 -307 c0 -195 4 -308 10 -308 5 0 28 7 50 16 l40 16 0 314 c0 173 -3 313 -7 313 -5 -1 -27 -11 -50 -23z"
       id="path232"
       style="fill:#cccccc" />
    <path
       d="M2932 4495 c3 -205 5 -223 26 -266 12 -25 33 -56 47 -69 l25 -23 0 289 0 290 -51 0 -51 -1 4 -220z"
       id="path234"
       style="fill:#cccccc" />
    <path
       d="M3450 4432 c0 -311 0 -311 55 -233 l30 43 3 236 3 237 -46 0 -45 0 0 -283z"
       id="path236"
       style="fill:#cccccc" />
    <path
       d="M6580 5075 c-17 -30 -34 -55 -38 -55 -3 0 -26 19 -49 42 l-43 42 0 -94 c0 -115 11 -160 52 -206 75 -86 161 -86 236 0 41 46 52 91 52 206 l0 94 -43 -42 c-23 -23 -46 -42 -49 -42 -4 0 -21 25 -38 55 -17 30 -35 55 -40 55 -5 0 -23 -25 -40 -55z"
       id="path238"
       style="fill:#ff3333" />
    <path
       d="M6333 4624 c3 -44 11 -94 17 -110 15 -38 63 -88 125 -128 30 -20 67 -57 90 -91 l40 -58 3 49 c5 76 -7 150 -31 186 -13 18 -45 47 -72 65 -73 46 -115 83 -148 128 l-30 40 6 -81z"
       id="path240"
       style="fill:#006600" />
    <path
       d="M6888 4672 c-21 -35 -86 -93 -153 -135 -27 -18 -59 -47 -72 -65 -24 -36 -36 -110 -31 -186 l3 -49 40 58 c23 34 60 71 90 91 62 40 110 90 125 128 11 30 27 186 19 186 -3 0 -12 -13 -21 -28z"
       id="path242"
       style="fill:#006600" />
    <path
       d="M5230 5005 l0 -95 -95 0 -95 0 0 -65 0 -65 95 0 95 0 0 -205 0 -205 60 0 60 0 0 205 0 205 95 0 95 0 0 65 0 65 -95 0 -95 0 0 95 0 95 -60 0 -60 0 0 -95z"
       id="path244"
       style="fill:#ccffff" />
    <path
       d="M5710 5075 c-9 -11 -11 -41 -8 -103 6 -98 48 -236 116 -385 l41 -88 31 16 30 16 0 114 c0 200 -30 338 -86 398 -42 46 -100 61 -124 32z"
       id="path246"
       style="fill:#cc9999" />
    <path
       d="M6152 5073 c-38 -19 -77 -80 -99 -155 -9 -33 -17 -117 -20 -223 l-5 -171 27 -12 c16 -7 32 -9 36 -5 20 20 114 257 135 342 25 99 31 189 14 222 -13 23 -44 24 -88 2z"
       id="path248"
       style="fill:#cc9999" />
    <path
       d="M5893 4479 c-24 -12 -65 -46 -93 -76 -53 -58 -136 -212 -127 -236 3 -8 24 -18 46 -22 40 -7 51 -18 31 -30 -5 -3 -28 -1 -51 5 -47 13 -45 13 -54 -20 l-6 -25 76 3 c63 3 75 1 75 -12 0 -13 -13 -16 -74 -16 -41 0 -77 -4 -80 -8 -3 -5 -8 -28 -12 -52 l-7 -43 75 41 c84 47 88 48 88 28 0 -8 -37 -34 -81 -58 l-81 -43 5 -72 c15 -197 149 -323 346 -323 138 0 232 45 298 144 38 56 52 98 59 186 l6 65 -81 43 c-45 24 -81 50 -81 58 0 20 2 19 86 -27 l75 -42 -6 39 c-11 66 -9 64 -90 64 -60 0 -75 3 -75 15 0 12 15 15 74 15 l73 0 -5 26 c-4 21 -9 25 -29 19 -70 -17 -83 -18 -83 -2 0 10 14 18 41 22 22 4 43 13 46 20 8 23 -75 179 -127 237 -84 94 -170 120 -257 77z m2 -254 c0 -16 -6 -30 -12 -32 -9 -3 -13 7 -13 32 0 25 4 35 13 33 6 -3 12 -17 12 -33z m185 0 c0 -24 -5 -35 -15 -35 -15 0 -22 50 -8 63 15 15 23 5 23 -28z m-46 -96 c14 -11 26 -28 26 -36 0 -21 -29 -53 -47 -53 -7 0 -13 -4 -13 -10 0 -14 35 -30 64 -30 16 0 26 -6 26 -15 0 -22 -62 -19 -91 4 -23 18 -24 18 -50 -1 -17 -13 -38 -18 -60 -16 -44 4 -44 21 1 28 20 4 41 10 48 14 16 10 15 26 -1 26 -24 0 -50 37 -43 63 11 47 94 62 140 26z m-226 -285 c12 -8 22 -24 22 -35 0 -30 -28 -79 -45 -79 -19 0 -19 11 0 36 32 42 7 77 -40 56 -31 -14 -46 5 -20 25 25 17 55 17 83 -3z m407 4 c14 -6 25 -15 25 -19 0 -12 -29 -19 -35 -9 -10 16 -45 11 -52 -7 -4 -9 1 -29 10 -44 10 -18 12 -31 6 -35 -16 -10 -38 16 -45 54 -6 29 -3 39 16 54 26 21 40 22 75 6z m-287 -193 c4 -50 -9 -87 -25 -77 -9 6 -10 17 -3 41 5 19 7 38 4 42 -10 18 -44 8 -60 -16 -16 -24 -44 -34 -44 -16 0 5 13 23 30 41 23 25 36 31 62 28 31 -3 33 -6 36 -43z m187 20 c24 -23 34 -55 17 -55 -5 0 -18 11 -30 25 -23 26 -62 34 -62 12 0 -6 4 -26 9 -44 7 -24 6 -33 -5 -37 -20 -8 -39 69 -25 101 15 32 64 31 96 -2z"
       id="path250"
       style="fill:#cc9999" />
    <path
       d="M5929 4104 c-11 -14 -10 -18 6 -30 25 -18 56 -18 81 1 19 15 19 15 0 30 -26 20 -70 19 -87 -1z"
       id="path252"
       style="fill:#ff0000" />
    <path
       d="M1741 4657 c-16 -92 -14 -117 7 -117 9 0 59 10 110 22 l94 23 -7 60 c-4 32 -9 63 -11 67 -3 4 -45 8 -94 8 l-88 0 -11 -63z"
       id="path254"
       style="fill:#ff6666" />
    <path
       d="M1840 4529 c-36 -10 -77 -19 -92 -19 -32 0 -35 -18 -18 -81 22 -77 110 -112 178 -70 40 26 52 55 52 132 0 58 -1 59 -27 58 -16 0 -57 -9 -93 -20z"
       id="path256"
       style="fill:#ff6666" />
    <path
       d="M5558 4670 c-26 -16 -56 -72 -73 -138 -28 -110 11 -182 100 -182 53 0 91 28 106 79 19 65 -31 214 -81 241 -23 12 -30 12 -52 0z"
       id="path258"
       style="fill:#ff33ff" />
    <path
       d="M2631 4478 c-62 -63 -101 -231 -68 -294 65 -125 238 -103 263 34 14 73 -28 205 -84 265 -35 37 -71 35 -111 -5z"
       id="path260"
       style="fill:#66ff99" />
    <path
       d="M6917 4399 c-33 -19 -34 -110 -2 -143 20 -19 39 -12 54 20 20 44 7 116 -23 127 -7 3 -20 1 -29 -4z"
       id="path262"
       style="fill:#ff00ff" />
    <path
       d="M6987 4154 c-32 -32 -46 -90 -26 -109 33 -31 102 40 97 100 -4 40 -36 45 -71 9z"
       id="path264"
       style="fill:#ff00ff" />
    <path
       d="M6817 4043 c-24 -23 12 -111 53 -133 40 -22 64 24 39 73 -27 52 -71 81 -92 60z"
       id="path266"
       style="fill:#ff00ff" />
    <path
       d="M6999 3908 c-46 -37 -66 -112 -33 -125 41 -15 98 50 92 105 -3 31 -33 41 -59 20z"
       id="path268"
       style="fill:#ff00ff" />
    <path
       d="M6823 3793 c-33 -13 -2 -109 43 -134 69 -37 71 77 2 125 -24 17 -26 17 -45 9z"
       id="path270"
       style="fill:#ff00ff" />
    <path
       d="M7013 3649 c-44 -16 -83 -116 -52 -134 20 -13 58 5 78 39 37 59 22 113 -26 95z"
       id="path272"
       style="fill:#ff00ff" />
    <path
       d="M1518 4313 c-57 -65 -84 -193 -54 -252 37 -71 145 -76 186 -8 35 57 18 172 -37 245 -28 37 -70 43 -95 15z"
       id="path274"
       style="fill:#cc99ff" />
    <path
       d="M5117 4209 c-8 -13 -27 -44 -42 -68 l-27 -43 -47 46 c-26 25 -50 46 -54 46 -11 0 -8 -173 4 -227 13 -62 55 -122 104 -151 85 -49 183 -9 238 98 25 49 27 63 27 169 l0 115 -51 -49 c-42 -41 -53 -47 -61 -35 -5 8 -24 39 -43 69 l-33 54 -15 -24z"
       id="path276"
       style="fill:#ff6600" />
    <path
       d="M5412 3700 c-37 -53 -74 -85 -137 -118 -48 -24 -100 -77 -114 -115 -6 -16 -11 -74 -11 -130 l1 -102 23 38 c34 55 83 104 143 143 96 61 139 151 131 276 l-3 56 -33 -48z"
       id="path278"
       style="fill:#66ff00" />
    <path
       d="M4815 3718 c-4 -14 -2 -57 4 -97 13 -100 44 -148 130 -206 71 -46 112 -91 147 -155 l19 -35 3 85 c5 153 -20 207 -126 269 -64 38 -121 89 -155 140 l-16 24 -6 -25z"
       id="path280"
       style="fill:#66ff00" />
    <path
       d="M3595 4117 c-33 -58 -33 -100 3 -135 l27 -27 3 33 c4 38 23 39 32 2 l6 -24 17 24 c9 13 17 31 17 38 0 18 -62 132 -72 132 -4 0 -19 -20 -33 -43z"
       id="path282"
       style="fill:#ff9900" />
    <path
       d="M3532 3688 c3 -135 4 -143 23 -143 16 0 21 10 28 50 10 59 21 75 53 75 16 0 28 -8 36 -25 17 -38 35 -30 41 18 4 27 13 47 26 56 17 10 21 24 21 62 l0 49 -115 0 -116 0 3 -142z"
       id="path284"
       style="fill:#ff3300" />
    <path
       d="M3747 3683 c-4 -3 -7 -21 -7 -38 0 -18 -7 -38 -14 -45 -22 -17 -60 -8 -71 18 -19 43 -45 21 -45 -39 0 -47 -17 -69 -50 -69 l-30 0 0 -155 0 -155 115 0 115 0 0 245 c0 135 -1 245 -3 245 -2 0 -7 -3 -10 -7z"
       id="path286"
       style="fill:#ff3300" />
    <path
       d="M3360 3152 c0 -38 32 -111 67 -151 152 -178 440 -102 492 128 l9 41 -284 0 c-268 0 -284 -1 -284 -18z"
       id="path288"
       style="fill:#330000" />
    <path
       d="M3982 4023 c-45 -18 -112 -178 -112 -269 0 -111 60 -171 163 -162 117 10 165 112 121 259 -41 137 -103 200 -172 172z"
       id="path290"
       style="fill:#ff6699" />
    <path
       d="M2570 3956 c-76 -20 -142 -58 -202 -117 -32 -32 -58 -61 -58 -66 0 -18 137 -98 219 -127 78 -28 97 -31 206 -30 107 0 129 3 205 30 85 30 230 108 230 123 0 13 -109 85 -189 125 -136 69 -298 93 -411 62z m-60 -131 c0 -14 -4 -25 -10 -25 -5 0 -10 11 -10 25 0 14 5 25 10 25 6 0 10 -11 10 -25z"
       id="path292"
       style="fill:#3366cc" />
    <path
       d="M3355 3882 c-17 -15 -52 -46 -79 -70 l-49 -42 81 -84 82 -84 0 154 c0 85 -1 154 -2 154 -2 0 -17 -13 -33 -28z"
       id="path294"
       style="fill:#3366cc" />
    <path
       d="M4435 3955 c-58 -29 -130 -136 -160 -235 -7 -23 -6 -22 19 8 23 26 35 32 66 32 30 0 46 -7 73 -32 19 -18 37 -40 40 -48 6 -13 8 -13 14 0 3 8 21 30 39 48 39 39 87 43 129 10 l27 -21 -7 24 c-27 88 -98 189 -149 213 -42 20 -53 20 -91 1z"
       id="path296"
       style="fill:#9999ff" />
    <path
       d="M4314 3705 c-36 -55 15 -123 100 -132 45 -6 46 -5 46 23 -1 40 -34 110 -58 123 -35 19 -70 13 -88 -14z"
       id="path298"
       style="fill:#9966cc" />
    <path
       d="M4547 3710 c-26 -21 -47 -73 -47 -119 0 -22 3 -23 45 -19 59 7 91 29 105 73 24 71 -42 112 -103 65z"
       id="path300"
       style="fill:#9966cc" />
    <path
       d="M4256 3650 c-4 -25 -10 -53 -12 -62 -5 -15 1 -18 37 -18 41 0 42 1 25 19 -10 11 -23 39 -30 63 l-13 43 -7 -45z"
       id="path302"
       style="fill:#9999ff" />
    <path
       d="M4686 3653 c-4 -18 -16 -44 -27 -58 l-20 -25 35 0 c34 0 36 2 35 33 -1 17 -4 43 -8 57 -8 25 -8 25 -15 -7z"
       id="path304"
       style="fill:#9999ff" />
    <path
       d="M4240 3517 c0 -46 31 -128 62 -163 46 -52 101 -76 173 -77 132 -1 220 78 240 216 l7 47 -111 0 c-61 0 -111 -4 -111 -9 0 -14 22 -29 58 -38 18 -4 33 -13 33 -18 0 -18 -35 -16 -73 4 -37 19 -39 19 -75 0 -44 -22 -83 -25 -83 -5 0 8 16 16 40 20 25 4 43 14 50 26 10 19 7 20 -100 20 -108 0 -110 0 -110 -23z"
       id="path306"
       style="fill:#9999ff" />
    <path
       d="M1430 3510 l0 -390 40 0 40 0 0 390 0 390 -40 0 -40 0 0 -390z"
       id="path308"
       style="fill:#ff3300" />
    <path
       d="M1540 3510 l0 -390 250 0 250 0 0 390 0 390 -250 0 -250 0 0 -390z m230 210 l0 -40 40 0 c29 0 40 -4 40 -15 0 -11 -11 -15 -40 -15 l-40 0 0 -80 c0 -64 -3 -80 -15 -80 -12 0 -15 16 -15 80 l0 80 -40 0 c-29 0 -40 4 -40 15 0 11 11 15 40 15 l40 0 0 40 c0 29 4 40 15 40 11 0 15 -11 15 -40z"
       id="path310"
       style="fill:#ff3333" />
    <path
       d="M1640 3069 c0 -18 2 -19 15 -9 12 10 18 10 30 0 18 -15 30 -7 22 15 -4 9 -19 15 -37 15 -24 0 -30 -4 -30 -21z"
       id="path312"
       style="fill:#ffcc00" />
    <path
       d="M6542 3804 c-12 -8 -22 -26 -22 -40 0 -27 -3 -28 -30 -14 -12 6 -28 7 -43 1 -46 -18 -46 -71 1 -95 l27 -14 -27 -13 c-35 -16 -44 -43 -24 -74 17 -25 59 -34 71 -15 11 18 25 10 25 -14 0 -29 24 -56 50 -56 26 0 50 27 50 56 0 21 3 23 19 14 32 -17 60 -12 76 14 19 29 9 58 -27 77 l-21 12 23 12 c45 24 46 79 2 96 -18 7 -31 5 -48 -6 -23 -15 -24 -15 -24 14 0 26 -29 61 -50 61 -3 0 -16 -7 -28 -16z m78 -121 c38 -48 8 -103 -56 -103 -58 0 -83 63 -42 107 30 32 71 30 98 -4z"
       id="path314"
       style="fill:#ff3366" />
    <path
       d="M6540 3665 c-23 -28 9 -72 45 -59 36 14 24 74 -15 74 -10 0 -23 -7 -30 -15z"
       id="path316" />
    <path
       d="M2177 3639 c-11 -6 -25 -26 -33 -45 -13 -30 -12 -39 1 -71 34 -80 151 -171 317 -245 60 -27 112 -47 114 -45 2 2 -42 31 -99 65 -160 93 -260 196 -241 246 18 46 133 -24 325 -196 69 -61 99 -80 99 -62 0 14 -159 181 -229 241 -76 65 -178 123 -215 123 -12 0 -29 -5 -39 -11z"
       id="path318"
       style="fill:#ff99cc" />
    <path
       d="M2274 3501 c9 -16 39 -49 67 -74 53 -46 256 -173 265 -165 6 7 -176 163 -258 221 -77 55 -95 60 -74 18z"
       id="path320"
       style="fill:#ffcccc" />
    <path
       d="M2643 3244 c-65 -33 -114 -129 -94 -184 5 -17 8 -30 7 -30 -2 0 -21 7 -42 16 -29 12 -63 15 -144 12 -95 -3 -112 -6 -171 -35 -83 -41 -159 -121 -202 -210 -29 -63 -32 -76 -32 -168 0 -87 4 -107 27 -157 34 -73 95 -132 161 -155 44 -15 85 -18 272 -18 161 0 226 3 243 13 48 28 27 36 -129 53 -57 6 -108 15 -113 19 -5 5 5 36 23 71 50 99 40 147 -35 180 -52 24 -59 44 -11 35 99 -19 132 -110 79 -217 -12 -24 -20 -45 -17 -47 2 -2 33 -7 69 -9 l66 -6 40 41 41 40 22 -22 c49 -49 167 -71 167 -31 0 8 -21 31 -46 52 -26 21 -58 48 -72 59 l-26 22 18 40 c24 53 18 157 -12 225 -22 50 -21 53 7 37 40 -21 163 -33 217 -21 72 17 81 30 49 76 -31 46 -33 100 -6 117 17 11 18 15 6 38 -19 38 -115 125 -165 150 -59 30 -154 37 -197 14z m227 -135 c0 -38 -24 -35 -28 4 -2 19 1 27 12 27 11 0 16 -10 16 -31z"
       id="path322"
       style="fill:#ffccff" />
    <path
       d="M3010 2991 c0 -16 9 -39 20 -52 l19 -24 1 37 c0 46 -8 68 -26 68 -9 0 -14 -11 -14 -29z"
       id="path324"
       style="fill:#ff99cc" />
    <path
       d="M1812 2718 c-19 -19 -14 -80 11 -128 24 -48 56 -75 101 -86 27 -6 29 -5 22 17 -4 13 -9 57 -13 97 -6 72 -6 73 -44 93 -44 22 -60 24 -77 7z"
       id="path326"
       style="fill:#ff99cc" />
    <path
       d="M3092 3584 c-14 -10 -22 -25 -22 -46 0 -25 -3 -29 -17 -23 -40 17 -60 16 -86 -5 -15 -12 -27 -31 -27 -44 0 -27 27 -66 46 -66 8 0 14 -4 14 -10 0 -5 -4 -10 -10 -10 -19 0 -50 -40 -50 -65 0 -53 52 -76 113 -50 14 6 17 2 17 -22 0 -17 8 -37 18 -46 40 -37 112 -6 112 47 0 23 2 24 30 13 44 -17 84 7 88 52 4 36 -20 71 -47 71 -10 0 -5 9 17 26 38 30 43 73 11 105 -20 20 -41 21 -81 4 -14 -5 -18 -2 -18 13 0 29 -38 72 -64 72 -12 0 -32 -7 -44 -16z m101 -145 c25 -30 22 -75 -8 -104 -40 -40 -96 -30 -123 22 -18 34 -14 52 18 85 26 25 36 29 63 24 18 -3 40 -16 50 -27z"
       id="path328"
       style="fill:#ff00ff" />
    <path
       d="M3097 3422 c-22 -25 -21 -45 3 -67 46 -41 108 26 65 69 -22 21 -48 20 -68 -2z"
       id="path330"
       style="fill:#ffcc00" />
    <path
       d="M5718 3423 c-42 -48 -51 -118 -20 -146 25 -23 32 -21 32 8 0 30 20 33 27 5 4 -16 8 -18 19 -9 22 18 16 60 -14 112 -27 44 -30 46 -44 30z"
       id="path332"
       style="fill:#cc9900" />
    <path
       d="M5660 2840 l0 -300 85 0 85 0 -2 298 -3 297 -82 3 -83 3 0 -301z"
       id="path334"
       style="fill:#0000ff" />
    <path
       d="M6429 3353 c-22 -20 -54 -63 -70 -95 -28 -55 -65 -175 -57 -184 2 -2 67 60 143 137 l140 140 -25 19 c-40 31 -84 26 -131 -17z"
       id="path336"
       style="fill:#cc66ff" />
    <path
       d="M6066 3290 l-25 -30 25 -25 c37 -37 31 -92 -13 -120 -28 -17 -32 -26 -33 -61 0 -22 2 -43 5 -46 3 -3 19 7 35 23 31 31 49 35 83 17 52 -27 62 -83 22 -123 -26 -27 -63 -32 -96 -14 -19 10 -20 9 -9 -13 7 -13 24 -35 38 -50 l25 -27 21 31 c38 57 104 54 136 -7 8 -17 16 -32 17 -34 1 -2 9 -1 17 2 13 5 11 14 -12 54 -25 44 -27 57 -27 154 0 104 0 105 -18 82 -32 -40 -98 -30 -123 18 -16 32 -11 70 14 92 46 41 130 10 133 -47 1 -15 4 -11 12 12 9 30 7 36 -22 66 -40 41 -108 76 -149 76 -21 0 -38 -9 -56 -30z"
       id="path338"
       style="fill:#6666ff" />
    <path
       d="M6442 3167 l-153 -153 7 -42 c4 -23 10 -44 13 -47 4 -2 82 71 174 163 l167 167 -20 33 c-11 17 -23 32 -27 32 -5 0 -77 -69 -161 -153z"
       id="path340"
       style="fill:#cc66ff" />
    <path
       d="M6832 3300 c-28 -17 -31 -23 -22 -40 10 -19 12 -19 48 -4 20 9 43 18 49 21 8 3 21 -13 33 -41 18 -44 41 -58 55 -35 11 16 -3 55 -31 88 -31 38 -81 42 -132 11z"
       id="path342"
       style="fill:#669900" />
    <path
       d="M6755 3240 c-18 -20 -18 -22 3 -66 22 -44 22 -44 49 -31 64 33 70 32 92 -19 17 -37 24 -45 38 -39 10 4 30 12 46 17 21 8 27 16 27 40 0 25 -3 29 -17 23 -46 -19 -50 -17 -67 29 -10 25 -22 46 -27 46 -5 0 -28 -9 -50 -21 -23 -11 -42 -19 -44 -17 -1 2 -9 16 -17 31 l-14 28 -19 -21z"
       id="path344"
       style="fill:#669900" />
    <path
       d="M6026 3205 c-9 -25 -7 -75 3 -75 17 0 32 29 29 56 -3 32 -23 43 -32 19z"
       id="path346"
       style="fill:#cc99ff" />
    <path
       d="M6487 3052 l-166 -167 20 -27 c12 -16 26 -28 32 -28 7 0 81 69 166 154 l153 154 -12 36 c-6 19 -15 38 -19 40 -4 3 -82 -70 -174 -162z"
       id="path348"
       style="fill:#cc66ff" />
    <path
       d="M6170 3190 c-24 -24 -25 -43 -4 -64 18 -19 55 -21 72 -4 19 19 14 55 -10 72 -29 20 -34 20 -58 -4z"
       id="path350"
       style="fill:#cc99ff" />
    <path
       d="M6714 3168 c3 -13 11 -51 18 -85 l11 -62 38 20 c21 10 42 19 47 19 4 0 18 -21 30 -46 13 -27 28 -44 35 -41 7 3 29 12 50 21 35 15 38 15 44 -1 6 -15 7 -15 14 3 9 22 11 84 4 84 -3 0 -23 -9 -45 -20 -22 -11 -44 -20 -49 -20 -5 0 -17 20 -27 45 -9 25 -20 45 -25 45 -4 0 -28 -9 -52 -19 l-45 -20 -21 50 c-22 50 -38 66 -27 27z"
       id="path352"
       style="fill:#669900" />
    <path
       d="M6550 2955 l-145 -145 104 0 104 0 37 39 c40 42 60 101 59 173 -1 90 -3 89 -159 -67z"
       id="path354"
       style="fill:#cc66ff" />
    <path
       d="M6077 3012 c-22 -24 -21 -45 3 -67 45 -40 105 20 65 65 -23 25 -47 25 -68 2z"
       id="path356"
       style="fill:#cc99ff" />
    <path
       d="M6774 3006 c-28 -13 -43 -38 -44 -74 0 -9 5 -10 19 -2 35 18 48 11 65 -35 10 -25 19 -45 21 -45 1 0 24 9 50 21 39 17 49 19 56 8 6 -11 11 -10 23 6 17 22 20 53 8 73 -7 10 -19 8 -57 -8 -53 -23 -55 -22 -77 38 -13 36 -19 37 -64 18z"
       id="path358"
       style="fill:#669900" />
    <path
       d="M6744 2894 c-17 -7 -38 -24 -47 -38 -16 -24 -16 -26 3 -36 11 -6 42 -10 69 -8 l48 3 -21 46 -21 46 -31 -13z"
       id="path360"
       style="fill:#669900" />
    <path
       d="M6182 2854 c-39 -27 -28 -44 28 -44 37 0 50 4 50 14 0 13 -36 46 -50 46 -3 0 -16 -7 -28 -16z"
       id="path362"
       style="fill:#cc99ff" />
    <path
       d="M6865 2830 l-40 -19 36 0 c33 -1 59 13 59 31 0 11 -9 9 -55 -12z"
       id="path364"
       style="fill:#669900" />
    <path
       d="M5930 2718 l0 -62 33 32 c18 18 37 32 42 32 5 0 26 -17 47 -37 l38 -37 38 37 c21 20 42 37 47 37 5 0 26 -17 47 -37 l38 -37 38 37 c21 20 42 37 48 37 6 0 25 -16 44 -35 19 -19 38 -35 44 -35 6 0 27 17 48 37 l38 37 43 -42 43 -42 42 42 42 42 43 -42 43 -42 42 42 42 43 42 -43 42 -42 43 42 43 42 35 -34 35 -34 0 62 0 62 -585 0 -585 0 0 -62z"
       id="path366"
       style="fill:#663399" />
    <path
       d="M5962 2647 c-27 -28 -32 -40 -32 -83 0 -60 25 -111 70 -141 l33 -23 482 0 482 0 33 23 c45 30 70 81 70 142 0 45 -4 55 -35 85 l-35 34 -43 -42 -43 -42 -42 42 -42 42 -43 -42 -43 -42 -42 42 -42 43 -42 -43 -42 -42 -43 42 -43 42 -43 -42 -43 -42 -42 42 -42 42 -43 -42 -43 -42 -39 40 c-21 22 -44 40 -49 40 -6 0 -29 -18 -51 -40 l-41 -40 -39 40 c-21 22 -42 40 -45 40 -3 0 -20 -15 -38 -33z"
       id="path368"
       style="fill:#6600ff" />
    <path
       d="M5330 3234 c-64 -55 -129 -238 -114 -322 18 -100 90 -159 185 -150 92 9 141 65 147 168 9 150 -85 330 -172 330 -8 0 -29 -12 -46 -26z"
       id="path370"
       style="fill:#ccff00" />
    <path
       d="M4852 3220 c24 -25 29 -36 24 -58 -21 -88 -146 -79 -146 11 0 18 6 39 13 47 10 12 9 12 -6 0 -10 -7 -27 -26 -38 -41 l-19 -27 30 -30 c45 -46 38 -98 -18 -121 -19 -8 -36 -9 -54 -2 -23 9 -26 7 -37 -27 -6 -20 -14 -80 -17 -132 -5 -88 -4 -93 10 -69 23 40 67 54 104 35 48 -25 57 -78 19 -114 -25 -24 -76 -29 -95 -10 -25 25 -11 -9 19 -45 32 -39 49 -47 49 -22 0 25 38 55 69 55 44 0 75 -30 75 -74 0 -47 26 -46 38 1 10 40 37 55 90 51 26 -2 43 2 45 10 3 6 -2 12 -11 12 -27 0 -56 38 -56 73 0 43 28 69 74 69 l36 0 -1 47 c0 25 -6 66 -12 91 -11 42 -14 45 -42 42 -74 -7 -115 83 -59 127 l26 20 -21 30 c-30 41 -79 81 -101 81 -15 0 -13 -5 12 -30z m15 -145 c49 -34 31 -117 -28 -130 -69 -15 -117 69 -68 121 26 27 65 31 96 9z m142 -131 c12 -15 21 -38 21 -51 0 -32 -42 -73 -75 -73 -33 0 -75 41 -75 73 0 40 36 77 75 77 24 0 39 -7 54 -26z m-232 -6 c31 -29 30 -72 -3 -105 -20 -20 -31 -24 -57 -19 -44 8 -70 42 -63 80 13 65 77 88 123 44z m132 -144 c27 -34 26 -57 -1 -88 -48 -53 -128 -25 -128 44 0 67 88 96 129 44z"
       id="path372"
       style="fill:#66ff99" />
    <path
       d="M4792 3048 c-17 -17 -15 -53 3 -68 20 -17 62 -5 70 20 14 44 -41 80 -73 48z"
       id="path374"
       style="fill:#66ff33" />
    <path
       d="M4920 2925 c-17 -20 -5 -62 20 -70 44 -14 80 41 48 73 -17 17 -53 15 -68 -3z"
       id="path376"
       style="fill:#66ff33" />
    <path
       d="M4690 2915 c-17 -20 -5 -62 20 -70 44 -14 80 41 48 73 -17 17 -53 15 -68 -3z"
       id="path378"
       style="fill:#66ff33" />
    <path
       d="M4838 2793 c-34 -8 -35 -74 -1 -87 24 -10 65 21 61 46 -4 25 -36 47 -60 41z"
       id="path380"
       style="fill:#66ff33" />
    <path
       d="M4778 3209 c-21 -12 -24 -49 -6 -67 39 -39 100 17 63 58 -20 22 -32 24 -57 9z"
       id="path382"
       style="fill:#66ff33" />
    <path
       d="M4642 3085 c-17 -36 -15 -53 7 -60 27 -8 50 4 57 31 13 50 -43 74 -64 29z"
       id="path384"
       style="fill:#66ff33" />
    <path
       d="M4952 3098 c-27 -27 -7 -78 29 -78 27 0 31 15 12 54 -18 39 -23 42 -41 24z"
       id="path386"
       style="fill:#66ff33" />
    <path
       d="M4636 2774 c-30 -30 -13 -74 29 -74 42 0 59 44 29 74 -8 9 -22 16 -29 16 -7 0 -21 -7 -29 -16z"
       id="path388"
       style="fill:#66ff33" />
    <path
       d="M4986 2777 c-12 -9 -17 -23 -14 -42 3 -26 7 -30 32 -30 23 0 31 6 39 29 8 24 6 32 -9 43 -22 16 -26 16 -48 0z"
       id="path390"
       style="fill:#66ff33" />
    <path
       d="M4730 2625 c-19 -22 -8 -48 25 -57 41 -11 63 11 47 47 -13 28 -52 34 -72 10z"
       id="path392"
       style="fill:#66ff33" />
    <path
       d="M4913 2613 c-12 -4 -19 -33 -8 -33 12 0 55 24 55 32 0 9 -27 10 -47 1z"
       id="path394"
       style="fill:#66ff33" />
    <path
       d="M4173 3180 c-36 -22 -40 -32 -20 -49 10 -8 20 -4 42 19 l29 30 33 -31 c27 -27 35 -30 48 -19 8 7 15 16 15 21 0 15 -63 49 -90 49 -14 0 -40 -9 -57 -20z"
       id="path396"
       style="fill:#ff99cc" />
    <path
       d="M4195 3110 l-29 -30 -21 20 c-12 11 -26 20 -31 20 -11 0 -38 -40 -31 -46 2 -3 71 -3 152 -2 l147 3 -20 25 -20 25 -26 -24 -26 -25 -33 32 -33 32 -29 -30z"
       id="path398"
       style="fill:#ff99cc" />
    <path
       d="M4044 3005 c-21 -50 -18 -53 21 -15 l35 34 33 -32 33 -32 32 32 32 32 33 -32 33 -32 29 30 29 30 33 -32 c35 -34 44 -23 21 27 l-11 25 -169 0 -169 0 -15 -35z"
       id="path400"
       style="fill:#ff99cc" />
    <path
       d="M4075 2950 c-16 -17 -35 -28 -42 -26 -17 7 -23 -5 -33 -71 -9 -52 -8 -59 12 -80 l22 -23 33 32 33 32 33 -32 33 -32 32 32 32 32 33 -32 33 -32 29 30 29 30 31 -30 31 -30 22 23 c24 26 28 62 12 119 -7 23 -15 35 -23 32 -7 -2 -26 9 -42 26 l-29 30 -33 -32 -33 -32 -33 32 -33 32 -29 -30 -29 -30 -31 30 -31 30 -29 -30z"
       id="path402"
       style="fill:#ff9966" />
    <path
       d="M4072 2738 l-31 -32 -26 24 c-20 18 -25 20 -25 8 0 -48 -2 -48 240 -48 l228 0 4 29 4 30 -25 -20 -24 -20 -32 31 -31 30 -29 -30 -29 -30 -33 32 -33 32 -32 -32 -32 -32 -31 30 -31 30 -32 -32z"
       id="path404"
       style="fill:#ff99cc" />
    <path
       d="M4010 2654 c0 -6 20 -46 26 -53 3 -3 18 8 34 24 l30 29 32 -32 32 -32 33 32 33 32 33 -32 33 -32 29 30 29 30 26 -25 c33 -32 36 -31 55 5 l16 30 -221 0 c-121 0 -220 -3 -220 -6z"
       id="path406"
       style="fill:#ff99cc" />
    <path
       d="M4086 2591 c-23 -25 -14 -38 38 -62 74 -34 190 -23 251 24 19 15 19 15 1 36 l-20 21 -33 -32 -33 -32 -33 32 -33 32 -29 -30 -29 -30 -31 30 c-31 30 -32 30 -49 11z"
       id="path408"
       style="fill:#ff99cc" />
    <path
       d="M1497 2942 c-10 -10 -17 -26 -17 -35 0 -12 -7 -15 -35 -10 -62 10 -90 -46 -41 -84 l24 -19 -24 -21 c-28 -25 -31 -55 -8 -77 18 -19 55 -21 72 -4 9 9 12 8 12 -8 0 -31 29 -64 55 -64 26 0 55 33 55 64 0 16 3 17 12 8 17 -17 54 -15 72 4 24 24 20 60 -11 82 -26 19 -27 20 -5 26 25 8 40 52 25 75 -7 11 -24 16 -52 15 -33 -1 -41 3 -41 17 0 44 -63 65 -93 31z m83 -102 c29 -29 26 -74 -6 -99 -15 -12 -32 -21 -39 -21 -7 0 -24 9 -39 21 -48 38 -22 119 39 119 14 0 34 -9 45 -20z"
       id="path410"
       style="fill:#cc99ff" />
    <path
       d="M1512 2821 c-18 -11 -12 -51 10 -64 21 -14 48 7 48 38 0 30 -31 44 -58 26z"
       id="path412"
       style="fill:#ffcc00" />
    <path
       d="M3210 2844 c-161 -43 -230 -139 -230 -321 0 -76 2 -86 25 -108 13 -14 35 -25 48 -25 31 0 77 36 77 61 0 30 25 22 41 -13 27 -62 108 -61 132 2 6 17 16 30 22 30 6 0 16 -13 22 -30 24 -63 104 -64 133 -3 18 39 36 42 44 8 14 -55 110 -73 136 -25 16 30 12 200 -6 252 -48 142 -257 222 -444 172z m260 -73 c0 -15 -81 -54 -92 -43 -6 6 4 18 33 35 40 24 59 27 59 8z m-226 -82 c22 -20 -24 -18 -58 1 -36 22 -42 31 -29 43 5 6 64 -23 87 -44z m300 -57 c8 -14 -61 -75 -74 -67 -8 5 -1 18 21 41 34 35 44 40 53 26z m-198 -28 c4 -14 -54 -56 -67 -49 -7 5 -1 18 17 36 27 28 45 33 50 13z m-186 -55 c0 -26 -28 -17 -89 27 -1 2 0 8 4 14 7 11 85 -26 85 -41z"
       id="path414"
       style="fill:#66ffff" />
    <path
       d="M3121 2387 c-15 -15 -34 -22 -66 -22 l-45 0 0 -112 0 -113 101 0 102 0 -27 25 c-14 13 -26 32 -26 43 0 24 36 62 59 62 25 0 68 -36 87 -73 l17 -31 19 25 c65 82 98 97 131 61 25 -28 21 -67 -9 -91 l-27 -21 107 0 106 0 0 113 0 112 -49 0 c-37 0 -55 5 -73 22 l-24 23 -22 -23 c-17 -16 -34 -22 -66 -22 -32 0 -51 6 -68 22 l-24 23 -20 -20 c-33 -33 -83 -36 -125 -7 l-37 25 -21 -21z"
       id="path416"
       style="fill:#66ff99" />
    <path
       d="M3202 2228 c-22 -22 -13 -39 31 -58 61 -28 73 -26 52 8 -18 28 -52 62 -64 62 -4 0 -12 -5 -19 -12z"
       id="path418"
       style="fill:#cc6600" />
    <path
       d="M3391 2205 c-37 -42 -40 -59 -8 -49 53 16 78 35 75 57 -5 34 -32 31 -67 -8z"
       id="path420"
       style="fill:#cc6600" />
    <path
       d="M3010 2007 c0 -91 3 -109 26 -156 49 -98 149 -146 299 -145 76 0 99 4 150 28 121 55 155 111 163 268 l5 108 -144 0 -144 -1 30 -25 c17 -13 40 -27 53 -30 23 -6 29 -19 13 -28 -15 -9 -56 10 -95 45 l-37 32 -27 -25 c-32 -30 -64 -48 -86 -48 -29 0 -17 26 18 38 19 7 40 19 46 27 11 13 -6 15 -129 15 l-141 0 0 -103z"
       id="path422"
       style="fill:#66ff66" />
    <path
       d="M5225 2649 c-81 -44 -144 -113 -192 -206 l-23 -46 45 -49 c81 -90 112 -227 80 -348 -27 -101 -27 -101 35 -127 74 -32 202 -28 270 6 25 13 46 24 47 25 2 1 -7 26 -18 56 -27 72 -28 197 0 270 23 60 65 125 95 146 21 14 21 15 -14 82 -39 75 -116 159 -172 185 -40 19 -123 22 -153 6z m-5 -179 c11 -11 20 -24 20 -30 0 -14 -37 -50 -52 -50 -17 0 -48 31 -48 48 0 20 29 52 47 52 7 0 22 -9 33 -20z m211 10 c29 -16 26 -67 -5 -81 -34 -16 -66 3 -66 41 0 41 33 60 71 40z m-81 -85 c0 -3 -12 -23 -26 -45 -29 -44 -25 -46 -69 23 l-17 27 56 0 c31 0 56 -2 56 -5z"
       id="path424"
       style="fill:#ffffcc" />
    <path
       d="M5174 2449 c-10 -17 13 -36 27 -22 12 12 4 33 -11 33 -5 0 -12 -5 -16 -11z"
       id="path426"
       style="fill:#000000" />
    <path
       d="M5392 2446 c1 -10 8 -17 13 -17 15 1 12 24 -3 29 -9 3 -13 -2 -10 -12z"
       id="path428"
       style="fill:#000000" />
    <path
       d="M4988 2334 c-7 -17 -12 -76 -12 -139 -1 -100 1 -115 26 -166 15 -30 39 -66 53 -79 l25 -23 17 39 c12 27 17 67 18 129 0 82 -3 96 -32 156 -18 35 -43 75 -57 88 l-25 24 -13 -29z"
       id="path430"
       style="fill:#ffff66" />
    <path
       d="M5562 2330 c-85 -91 -110 -232 -65 -358 l15 -44 28 27 c16 15 41 55 56 88 24 53 28 74 27 147 -1 47 -7 105 -15 130 l-14 45 -32 -35z"
       id="path432"
       style="fill:#ffff66" />
    <path
       d="M3875 2570 c-27 -30 -25 -105 4 -133 l22 -22 20 24 c23 29 25 97 3 129 -19 27 -26 27 -49 2z"
       id="path434"
       style="fill:#cc66ff" />
    <path
       d="M3774 2336 c-12 -50 53 -133 94 -119 17 6 15 58 -3 93 -27 52 -80 67 -91 26z"
       id="path436"
       style="fill:#cc66ff" />
    <path
       d="M3958 2210 c-34 -26 -53 -81 -38 -110 14 -27 32 -25 64 7 29 29 40 58 34 94 -4 31 -28 35 -60 9z"
       id="path438"
       style="fill:#cc66ff" />
    <path
       d="M3775 2078 c-12 -49 35 -118 80 -118 22 0 25 4 25 34 0 73 -90 145 -105 84z"
       id="path440"
       style="fill:#cc66ff" />
    <path
       d="M3969 1965 c-30 -16 -63 -87 -54 -116 9 -29 43 -23 76 13 25 26 29 38 27 71 -3 46 -12 52 -49 32z"
       id="path442"
       style="fill:#cc66ff" />
    <path
       d="M3774 1815 c-16 -40 42 -128 80 -123 34 5 34 67 1 107 -29 33 -71 42 -81 16z"
       id="path444"
       style="fill:#cc66ff" />
    <path
       d="M1526 2498 c-38 -51 -61 -142 -47 -188 21 -71 88 -98 148 -61 56 35 63 124 17 215 -39 75 -77 86 -118 34z"
       id="path446"
       style="fill:#ff3399" />
    <path
       d="M4442 2464 c-29 -14 -68 -44 -88 -67 -37 -43 -119 -201 -130 -250 -6 -27 -5 -28 14 -16 19 12 25 10 56 -20 l35 -34 42 46 c22 26 44 47 49 47 5 0 32 -30 61 -67 29 -38 56 -72 60 -77 4 -4 30 13 59 40 l51 47 39 -38 39 -38 43 17 c74 28 72 24 43 112 -35 105 -70 166 -130 232 -53 59 -111 91 -161 92 -16 0 -53 -12 -82 -26z"
       id="path448"
       style="fill:#ff9966" />
    <path
       d="M5962 2308 c-25 -25 -12 -98 18 -98 18 0 40 44 40 80 0 27 -37 39 -58 18z"
       id="path450"
       style="fill:#ccff99" />
    <path
       d="M6058 2263 c-9 -10 -19 -28 -22 -40 -15 -47 80 -34 98 14 15 38 -47 59 -76 26z"
       id="path452"
       style="fill:#ccff99" />
    <path
       d="M5887 2243 c-12 -11 -8 -43 6 -43 22 0 38 16 31 33 -6 17 -25 22 -37 10z"
       id="path454"
       style="fill:#ccff99" />
    <path
       d="M5883 2164 c-18 -9 -49 -38 -68 -65 -19 -27 -41 -49 -47 -49 -7 0 4 -16 25 -35 48 -44 68 -91 70 -165 l1 -57 28 20 28 21 34 -33 33 -32 31 38 31 38 36 -35 36 -35 19 24 c33 45 39 146 15 229 -18 60 -66 119 -112 138 -43 19 -121 17 -160 -2z m85 -56 c-5 -32 -28 -35 -28 -4 0 17 5 26 16 26 10 0 14 -7 12 -22z"
       id="path456"
       style="fill:#ccff00" />
    <path
       d="M6020 1765 l-34 -35 -32 31 -32 31 -32 -23 c-32 -24 -32 -25 -27 -89 5 -77 34 -162 79 -238 95 -157 223 -220 434 -210 115 6 190 30 249 81 30 26 38 40 37 65 0 18 4 32 9 32 15 0 28 43 17 63 -6 11 -21 17 -46 17 l-37 0 31 19 c55 33 81 89 52 108 -7 4 -40 6 -73 5 l-60 -2 59 23 c62 23 103 64 93 91 -9 24 -50 20 -151 -16 -76 -27 -105 -33 -181 -33 -76 0 -98 4 -140 25 -27 14 -55 35 -61 47 l-11 23 -24 -26 -24 -26 -31 36 -31 35 -33 -34z m188 -120 c99 -56 219 -104 258 -105 30 0 44 -20 44 -63 0 -59 -26 -104 -79 -135 -39 -23 -57 -27 -118 -26 -148 2 -273 102 -308 247 -11 43 20 34 33 -10 16 -54 64 -126 101 -152 l31 -22 -2 22 c-4 34 18 33 32 -1 15 -35 21 -40 66 -50 l34 -8 -17 29 c-26 44 -6 48 33 7 31 -33 37 -36 65 -28 43 12 46 18 23 34 -50 37 -57 44 -50 55 5 8 21 2 51 -19 l44 -30 15 22 c9 12 16 38 16 58 0 35 0 35 -67 53 -104 27 -331 147 -318 167 9 14 4 16 113 -45z"
       id="path458"
       style="fill:#ccff33" />
    <path
       d="M6068 1231 c22 -49 23 -49 56 -25 l28 20 -50 21 -50 21 16 -37z"
       id="path460"
       style="fill:#cc9966" />
    <path
       d="M6219 1177 l16 -34 33 25 c18 14 31 26 30 27 -2 1 -24 5 -49 9 l-47 7 17 -34z"
       id="path462"
       style="fill:#cc9966" />
    <path
       d="M6781 2294 c-12 -9 -21 -26 -21 -40 0 -22 -3 -24 -22 -19 -13 4 -25 7 -28 7 -30 1 -42 -6 -52 -27 -9 -19 -8 -29 6 -50 9 -14 24 -25 34 -25 12 -1 9 -5 -10 -16 -36 -19 -46 -58 -23 -84 19 -21 60 -27 70 -10 12 19 24 10 27 -22 6 -65 98 -57 98 8 0 21 2 23 25 12 63 -29 107 51 49 89 l-26 16 26 14 c35 19 36 66 1 89 -23 15 -27 15 -50 0 -25 -16 -25 -16 -25 13 0 45 -43 70 -79 45z m71 -111 c36 -43 26 -95 -21 -111 -47 -17 -91 16 -91 67 0 50 80 81 112 44z"
       id="path464"
       style="fill:#cc66ff" />
    <path
       d="M6782 2158 c-19 -19 -14 -46 9 -59 18 -9 25 -7 41 9 16 16 18 23 9 41 -13 23 -40 28 -59 9z"
       id="path466" />
    <path
       d="M6367 2250 c-35 -28 -84 -132 -97 -207 -18 -106 13 -176 91 -207 83 -33 162 4 195 91 15 39 16 55 7 108 -22 125 -90 235 -147 235 -13 0 -35 -9 -49 -20z"
       id="path468"
       style="fill:#0066ff" />
    <path
       d="M2010 2202 c-69 -72 -63 -90 7 -20 31 32 54 60 50 64 -4 4 -30 -16 -57 -44z"
       id="path470"
       style="fill:#ffccff" />
    <path
       d="M2018 2142 c-90 -91 -107 -114 -117 -154 -6 -26 -11 -50 -11 -55 0 -4 63 55 140 132 77 77 140 143 140 146 0 4 -11 14 -23 22 -23 15 -26 13 -129 -91z"
       id="path472"
       style="fill:#ffccff" />
    <path
       d="M1678 2174 c-9 -3 -24 -16 -33 -30 -16 -24 -15 -26 9 -49 34 -32 35 -83 3 -113 -13 -12 -29 -22 -35 -22 -8 0 -12 -18 -12 -50 0 -27 3 -50 6 -50 3 0 15 11 26 25 28 36 89 35 117 -1 28 -35 26 -69 -4 -99 -26 -27 -82 -34 -103 -13 -24 24 -12 -9 18 -50 29 -40 50 -53 50 -32 0 23 50 60 80 60 36 0 80 -38 80 -70 0 -22 7 -25 29 -11 11 7 10 14 -6 37 -37 55 -45 90 -42 183 l4 90 -21 -20 c-31 -29 -87 -26 -114 8 -41 52 -3 123 65 123 34 0 58 -20 73 -60 9 -25 9 -25 17 8 8 39 -5 57 -75 104 -43 29 -96 42 -132 32z"
       id="path474"
       style="fill:#ff99cc" />
    <path
       d="M2031 2026 l-152 -154 7 -38 c3 -22 9 -42 13 -46 4 -4 82 68 174 160 l167 167 -20 33 c-11 17 -23 32 -28 32 -4 0 -77 -69 -161 -154z"
       id="path476"
       style="fill:#ffccff" />
    <path
       d="M2432 2162 c-24 -11 -32 -22 -30 -37 3 -23 18 -23 71 -1 l37 16 22 -45 c22 -45 32 -52 55 -37 16 10 -10 82 -38 105 -26 21 -73 21 -117 -1z"
       id="path478"
       style="fill:#999966" />
    <path
       d="M2346 2101 c-17 -19 -17 -21 3 -65 11 -25 23 -46 26 -46 3 0 23 9 45 20 22 11 42 20 45 20 3 0 15 -20 26 -45 11 -25 23 -45 27 -45 25 0 92 35 92 49 0 27 -14 41 -30 31 -27 -17 -39 -11 -61 33 -12 23 -23 43 -24 45 -2 2 -16 -3 -32 -11 -49 -25 -73 -30 -73 -15 0 8 -6 22 -13 32 -12 16 -14 16 -31 -3z"
       id="path480"
       style="fill:#999966" />
    <path
       d="M1617 2073 c-10 -9 -9 -83 1 -83 15 0 32 24 32 46 0 23 -22 48 -33 37z"
       id="path482"
       style="fill:#3366ff" />
    <path
       d="M2082 1917 c-89 -89 -162 -169 -162 -178 0 -8 10 -25 23 -37 l23 -21 158 158 158 158 -13 41 c-7 23 -15 42 -18 42 -4 0 -79 -73 -169 -163z"
       id="path484"
       style="fill:#ffccff" />
    <path
       d="M1749 2039 c-14 -27 1 -64 30 -72 44 -11 81 49 49 81 -20 20 -66 14 -79 -9z"
       id="path486"
       style="fill:#3366ff" />
    <path
       d="M2320 1961 l15 -79 35 15 c19 8 41 17 47 20 8 3 21 -13 33 -42 22 -50 21 -50 88 -23 28 11 34 11 42 -2 5 -8 11 -12 13 -10 7 8 15 88 10 94 -2 2 -23 -4 -46 -15 -23 -10 -46 -19 -52 -19 -5 0 -18 20 -29 45 -20 49 -26 50 -88 19 -15 -8 -29 -14 -32 -14 -2 0 -12 20 -22 45 -9 25 -20 45 -23 45 -4 0 0 -36 9 -79z"
       id="path488"
       style="fill:#999966" />
    <path
       d="M2140 1811 c-80 -77 -141 -142 -137 -148 4 -6 23 -14 43 -18 37 -6 39 -5 146 102 103 103 108 110 108 150 0 23 -4 44 -8 47 -4 3 -73 -57 -152 -133z"
       id="path490"
       style="fill:#ffccff" />
    <path
       d="M1672 1874 c-12 -8 -22 -26 -22 -38 0 -54 77 -64 95 -12 8 24 6 31 -14 47 -28 23 -31 23 -59 3z"
       id="path492"
       style="fill:#3366ff" />
    <path
       d="M2363 1863 c-18 -9 -33 -24 -33 -34 0 -10 -3 -25 -7 -35 -5 -14 -3 -16 13 -10 48 20 51 19 69 -28 10 -25 21 -46 26 -46 4 0 28 9 52 19 42 18 46 18 52 3 5 -13 10 -11 26 15 16 26 18 35 8 56 l-11 25 -45 -19 c-25 -10 -48 -19 -52 -19 -5 0 -16 20 -25 45 -19 49 -25 52 -73 28z"
       id="path494"
       style="fill:#999966" />
    <path
       d="M2217 1723 c-37 -37 -65 -68 -63 -71 13 -12 91 47 113 86 14 24 24 45 21 47 -2 2 -34 -26 -71 -62z"
       id="path496"
       style="fill:#ffccff" />
    <path
       d="M2331 1749 c-27 -11 -50 -37 -51 -57 0 -19 68 -44 121 -44 44 0 101 21 114 43 12 18 -2 21 -32 6 -64 -33 -70 -32 -92 18 -21 48 -23 49 -60 34z"
       id="path498"
       style="fill:#999966" />
    <path
       d="M1758 1695 c-13 -30 -4 -42 32 -45 48 -4 60 0 60 19 0 50 -72 70 -92 26z"
       id="path500"
       style="fill:#3366ff" />
    <path
       d="M2765 2224 c-32 -34 -55 -106 -55 -172 0 -46 4 -58 29 -83 23 -23 38 -29 71 -29 95 0 133 80 94 197 -35 105 -90 140 -139 87z"
       id="path502"
       style="fill:#999933" />
    <path
       d="M4373 1998 l-43 -42 -40 39 c-36 35 -42 37 -64 27 -34 -15 -41 -50 -27 -134 20 -120 73 -198 169 -245 51 -25 67 -28 157 -28 85 1 108 5 150 25 107 52 165 144 173 274 4 75 4 79 -14 72 -11 -5 -43 -17 -72 -28 l-53 -21 -29 28 -29 28 -39 -31 c-21 -17 -45 -38 -52 -47 -7 -8 -16 -15 -21 -15 -4 0 -32 31 -61 70 -29 38 -55 69 -58 70 -3 0 -24 -19 -47 -42z"
       id="path504"
       style="fill:#ff9966" />
    <path
       d="M5590 1694 c-38 -44 -64 -101 -80 -178 -27 -131 31 -226 138 -226 150 0 201 145 116 329 -53 117 -114 143 -174 75z"
       id="path506"
       style="fill:#0066ff" />
    <path
       d="M4935 1691 c-66 -14 -1 -46 73 -35 41 6 60 18 45 27 -16 10 -89 15 -118 8z"
       id="path508"
       style="fill:#ccccff" />
    <path
       d="M2605 1600 c-33 -5 -85 -17 -115 -27 l-55 -18 -3 -353 -2 -353 37 8 c21 4 90 8 153 7 104 -1 125 -4 218 -36 l102 -35 0 382 0 381 -54 17 c-47 15 -184 38 -211 35 -5 0 -37 -4 -70 -8z m85 -110 l0 -40 45 0 c33 0 45 -4 45 -15 0 -11 -12 -15 -45 -15 l-45 0 0 -91 c0 -68 -3 -90 -12 -87 -9 3 -14 33 -16 91 l-3 87 -39 0 c-29 0 -40 4 -40 15 0 11 11 15 40 15 l40 0 0 40 c0 29 4 40 15 40 11 0 15 -11 15 -40z m200 -325 c0 -13 -29 -15 -200 -15 -171 0 -200 2 -200 15 0 13 29 15 200 15 171 0 200 -2 200 -15z m-22 -101 c27 -8 24 -30 -4 -27 -87 10 -241 13 -297 5 -63 -8 -90 -2 -72 16 19 19 305 23 373 6z"
       id="path510"
       style="fill:#66ffff" />
    <path
       d="M3145 1600 c-33 -5 -85 -17 -115 -27 l-55 -18 -3 -382 c-1 -211 -1 -383 1 -383 2 0 31 11 65 24 108 42 203 59 305 53 51 -3 102 -8 115 -12 l22 -7 0 354 0 354 -54 17 c-47 15 -184 38 -211 35 -5 0 -37 -4 -70 -8z m214 -196 c34 -4 61 -12 61 -18 0 -8 -59 -11 -195 -11 -145 0 -195 3 -195 12 0 19 209 29 329 17z m61 -129 c0 -13 -28 -15 -195 -15 -167 0 -195 2 -195 15 0 13 28 15 195 15 167 0 195 -2 195 -15z m0 -110 c0 -13 -28 -15 -195 -15 -167 0 -195 2 -195 15 0 13 28 15 195 15 167 0 195 -2 195 -15z m-15 -101 c8 -4 15 -12 15 -20 0 -11 -7 -12 -27 -7 -36 10 -300 10 -335 0 -22 -6 -28 -4 -28 8 0 26 76 35 242 29 65 -3 125 -7 133 -10z"
       id="path512"
       style="fill:#66cccc" />
    <path
       d="M2367 1473 c-4 -3 -7 -161 -7 -350 l0 -343 258 1 c272 0 278 2 137 40 -113 30 -241 24 -337 -16 -17 -7 -18 13 -18 334 0 277 -2 341 -13 341 -8 0 -17 -3 -20 -7z"
       id="path514"
       style="fill:#00ffff" />
    <path
       d="M3510 1142 l0 -339 -52 18 c-29 10 -72 18 -95 19 -41 0 -43 -1 -43 -30 l0 -30 115 0 115 0 0 350 c0 343 0 350 -20 350 -20 0 -20 -7 -20 -338z"
       id="path516"
       style="fill:#00ffff" />
    <path
       d="M3208 833 c-14 -3 -18 -15 -18 -55 l0 -51 23 21 24 22 18 -20 c28 -31 35 -24 35 35 l0 55 -32 -1 c-18 -1 -41 -3 -50 -6z"
       id="path518"
       style="fill:#00ffff" />
    <path
       d="M3085 800 l-50 -18 63 -1 c56 -1 62 1 62 19 0 24 -10 24 -75 0z"
       id="path520"
       style="fill:#00ffff" />
    <path
       d="M4937 1542 c-35 -39 -9 -102 41 -102 28 0 62 34 62 60 0 27 -35 60 -63 60 -13 0 -31 -8 -40 -18z"
       id="path522"
       style="fill:#ccccff" />
    <path
       d="M4961 1373 c-6 -21 -35 -128 -66 -238 -61 -225 -62 -218 22 -231 52 -8 155 1 183 16 18 9 17 13 -6 97 -13 49 -43 157 -66 241 -22 83 -45 152 -49 152 -5 0 -13 -17 -18 -37z"
       id="path524"
       style="fill:#ccccff" />
    <path
       d="M3885 1515 c-14 -13 -25 -34 -25 -46 0 -16 -4 -19 -17 -14 -39 16 -50 15 -76 -5 -38 -30 -37 -72 3 -102 l31 -22 -26 -13 c-74 -39 -16 -150 60 -115 20 9 23 8 28 -18 3 -15 13 -35 22 -44 17 -17 62 -21 81 -8 18 12 36 53 30 69 -5 11 -2 13 11 8 61 -26 113 -3 113 50 0 26 -31 65 -52 65 -7 0 3 12 21 28 41 34 40 74 -1 105 -26 20 -30 20 -61 5 l-34 -16 0 31 c0 33 -32 67 -65 67 -10 0 -30 -11 -43 -25z m96 -134 c17 -18 29 -40 29 -56 0 -36 -41 -75 -80 -75 -39 0 -80 39 -80 75 0 32 50 85 80 85 12 0 35 -13 51 -29z"
       id="path526"
       style="fill:#ff3366" />
    <path
       d="M3899 1361 c-20 -16 -22 -23 -14 -47 9 -24 16 -29 45 -29 29 0 36 5 45 29 8 24 6 31 -14 47 -13 10 -27 19 -31 19 -4 0 -18 -9 -31 -19z"
       id="path528"
       style="fill:#66ff00" />
    <path
       d="M2056 1514 c-9 -8 -16 -27 -16 -42 0 -20 -3 -23 -12 -14 -17 17 -63 15 -77 -2 -19 -23 -9 -69 17 -82 l23 -11 -26 -17 c-27 -18 -34 -63 -13 -84 15 -15 61 -15 76 0 9 9 12 6 12 -14 0 -32 24 -58 54 -58 30 0 46 18 46 52 0 26 2 27 24 17 65 -30 114 33 62 78 l-27 23 27 23 c52 45 3 108 -62 78 -22 -10 -24 -9 -24 17 0 15 -5 33 -12 40 -17 17 -54 15 -72 -4z m78 -105 c17 -13 26 -30 26 -49 0 -31 -39 -70 -70 -70 -32 0 -63 34 -63 70 0 22 7 39 22 52 30 23 52 23 85 -3z"
       id="path530"
       style="fill:#999933" />
    <path
       d="M2066 1385 c-9 -9 -16 -20 -16 -25 0 -15 32 -41 48 -38 24 5 39 35 26 56 -15 23 -38 26 -58 7z"
       id="path532"
       style="fill:#ff3300" />
    <path
       d="M4328 1519 c-27 -15 -66 -89 -79 -148 -21 -101 22 -171 106 -171 81 0 123 64 105 161 -11 57 -41 120 -72 149 -24 22 -35 24 -60 9z"
       id="path534"
       style="fill:#ff6699" />
    <path
       d="M4550 1461 c0 -33 48 -79 103 -100 65 -24 153 -38 143 -23 -9 16 -125 96 -173 121 -52 26 -73 27 -73 2z"
       id="path536"
       style="fill:#ccccff" />
    <path
       d="M4553 1364 c-16 -43 57 -84 149 -83 96 1 113 13 37 27 -35 6 -90 25 -122 41 -44 21 -60 25 -64 15z"
       id="path538"
       style="fill:#ccccff" />
    <path
       d="M4617 1238 c22 -24 67 -31 110 -17 82 26 75 34 -28 34 -91 0 -97 -1 -82 -17z"
       id="path540"
       style="fill:#ccccff" />
    <path
       d="M4776 1208 c-11 -6 -40 -16 -65 -23 -44 -11 -45 -12 -23 -24 20 -11 29 -9 67 13 42 25 65 46 48 46 -4 0 -17 -6 -27 -12z"
       id="path542"
       style="fill:#ccccff" />
    <path
       d="M5322 1450 c-29 -16 -81 -50 -115 -76 l-62 -46 45 5 c117 16 203 63 216 120 8 36 -14 36 -84 -3z"
       id="path544"
       style="fill:#ccccff" />
    <path
       d="M5340 1347 c-31 -15 -84 -33 -119 -39 -76 -14 -59 -26 39 -27 87 -1 150 36 138 81 -2 10 -18 6 -58 -15z"
       id="path546"
       style="fill:#ccccff" />
    <path
       d="M5177 1242 c44 -32 127 -37 160 -10 24 20 13 23 -82 23 -80 0 -92 -2 -78 -13z"
       id="path548"
       style="fill:#ccccff" />
    <path
       d="M5179 1190 c40 -34 59 -40 91 -27 23 9 21 11 -30 24 -30 8 -59 19 -64 24 -6 5 -15 9 -20 9 -6 -1 4 -14 23 -30z"
       id="path550"
       style="fill:#ccccff" />
    <path
       d="M5665 1172 c-17 -11 -43 -35 -58 -56 -48 -62 -108 -210 -79 -192 5 3 26 -13 47 -34 22 -22 44 -40 49 -40 6 0 30 19 53 42 l43 42 48 -47 48 -47 44 45 c25 25 51 43 58 40 17 -6 10 18 -27 100 -45 99 -115 165 -173 165 -13 0 -37 -8 -53 -18z"
       id="path552"
       style="fill:#cc99cc" />
    <path
       d="M5515 870 c-11 -12 -20 -41 -23 -72 l-4 -53 23 22 23 23 48 -47 48 -47 48 47 48 47 44 -45 44 -45 48 47 48 47 25 -24 26 -25 -7 55 c-4 32 -14 63 -25 75 -19 19 -19 19 -67 -28 l-48 -47 -44 45 -44 44 -49 -46 -49 -45 -47 46 c-47 46 -47 47 -66 26z"
       id="path554"
       style="fill:#cc9999" />
    <path
       d="M5513 728 c-20 -21 -20 -26 -8 -60 17 -52 39 -82 77 -111 105 -79 271 -51 332 56 39 68 41 85 15 113 l-23 24 -46 -45 -46 -45 -44 45 -44 45 -48 -47 -48 -47 -48 47 -48 47 -21 -22z"
       id="path556"
       style="fill:#669966" />
    <path
       d="M4185 1106 c-111 -48 -207 -322 -164 -467 14 -45 64 -109 86 -109 8 0 42 18 75 40 33 22 62 40 63 40 2 0 -1 -18 -6 -40 -12 -55 3 -94 34 -84 131 40 187 184 142 359 -49 188 -146 298 -230 261z"
       id="path558"
       style="fill:#ccff00" />
    <path
       d="M3799 1035 c-56 -30 -84 -146 -67 -280 9 -80 35 -154 64 -187 20 -22 56 -10 102 35 l32 31 0 -47 c0 -50 16 -67 64 -67 51 0 57 8 30 47 -48 71 -57 175 -25 296 l18 68 -36 35 c-64 63 -139 92 -182 69z"
       id="path560"
       style="fill:#ff0000" />
    <path
       d="M4581 1035 c-41 -18 -116 -78 -136 -109 -12 -18 -12 -30 2 -86 20 -85 13 -193 -15 -251 -25 -49 -20 -59 37 -78 48 -16 90 -13 137 8 79 36 122 121 131 261 13 193 -53 300 -156 255z"
       id="path562"
       style="fill:#0099ff" />
    <path
       d="M3645 691 c-22 -10 -48 -27 -58 -39 -18 -20 -18 -21 3 -32 29 -15 162 -61 167 -57 1 2 -6 21 -17 42 -11 21 -23 54 -26 72 -7 38 -14 39 -69 14z"
       id="path564"
       style="fill:#996600" />
    <path
       d="M4747 656 c-22 -70 -70 -133 -122 -160 -55 -29 -145 -28 -202 2 -35 18 -43 19 -53 7 -6 -7 -30 -23 -53 -34 -36 -18 -38 -21 -17 -21 14 0 47 7 75 15 50 15 50 15 68 -10 14 -19 28 -25 57 -25 49 0 185 68 231 115 34 34 34 34 50 14 15 -20 16 -20 65 24 42 39 47 48 38 64 -13 21 -58 49 -94 58 -24 6 -27 2 -43 -49z"
       id="path566"
       style="fill:#996600" />
    <path
       d="M3580 569 c1 -87 61 -258 106 -300 l24 -22 0 28 0 28 23 -24 c63 -68 188 -147 261 -165 31 -7 30 -9 10 40 -4 10 10 8 53 -9 111 -45 298 -66 441 -49 58 8 64 14 27 34 -14 7 -25 16 -25 19 0 3 31 7 68 8 88 4 185 34 246 77 l49 34 -49 8 c-45 6 -47 8 -24 17 120 49 134 69 126 182 -7 120 -9 123 -63 75 -46 -40 -67 -48 -78 -30 -3 5 -34 -10 -69 -34 -119 -82 -227 -107 -273 -64 -22 20 -27 21 -68 10 -25 -7 -57 -12 -71 -12 -33 0 -84 50 -84 84 0 36 -11 38 -65 11 -38 -20 -64 -25 -122 -25 -65 0 -77 3 -98 25 -14 13 -25 28 -25 33 0 6 -17 1 -37 -9 -21 -10 -49 -19 -63 -18 -22 0 -154 41 -202 63 -14 7 -18 3 -18 -15z m1258 -91 c-6 -18 -169 -128 -180 -122 -16 10 -4 23 77 78 80 54 110 67 103 44z m-935 -64 c68 -4 87 -9 87 -21 0 -13 -13 -14 -82 -9 -151 12 -178 17 -178 33 0 11 9 13 43 9 23 -3 81 -8 130 -12z m595 -126 c48 -13 82 -28 82 -35 0 -17 -12 -16 -104 10 -44 12 -81 28 -84 35 -5 17 12 16 106 -10z m-353 -43 c69 -32 95 -49 88 -56 -15 -15 -187 61 -191 84 -2 9 -1 17 1 17 2 0 49 -20 102 -45z"
       id="path568"
       style="fill:#996600" />
    <path
       d="M5297 1049 c-31 -18 -67 -108 -67 -166 0 -45 4 -54 31 -77 17 -14 43 -26 58 -26 40 0 79 34 87 75 9 50 -14 132 -48 171 -33 37 -35 38 -61 23z"
       id="path570"
       style="fill:#0066ff" />
    <path
       d="M5170 680 c-11 -11 -20 -31 -20 -45 0 -25 -14 -33 -25 -15 -9 15 -48 12 -73 -6 -32 -22 -30 -76 4 -103 l27 -21 -27 -21 c-36 -28 -36 -82 -1 -105 24 -16 38 -15 78 1 13 5 17 2 17 -13 0 -29 38 -72 64 -72 36 0 66 28 66 62 0 25 3 29 18 23 43 -18 63 -17 88 5 38 37 26 90 -27 114 -12 5 -12 7 0 12 53 24 65 77 27 114 -25 22 -45 23 -88 5 -15 -6 -18 -2 -18 22 0 57 -69 84 -110 43z m83 -121 c25 -11 47 -47 47 -75 0 -25 -56 -74 -85 -74 -36 0 -75 41 -75 80 0 36 38 80 69 80 11 0 31 -5 44 -11z"
       id="path572"
       style="fill:#cc6600" />
    <path
       d="M5188 529 c-38 -22 -9 -93 35 -87 12 2 28 15 36 30 14 24 14 28 -3 47 -21 23 -41 26 -68 10z"
       id="path574"
       style="fill:#ff9966" />
    <path
       d="M2962 667 c-51 -54 -82 -171 -62 -232 29 -87 161 -101 198 -20 28 61 7 175 -44 242 -30 39 -61 43 -92 10z"
       id="path576"
       style="fill:#ff6699" />
    <path
       d="M3356 579 c-48 -38 -70 -95 -71 -182 0 -74 2 -80 28 -103 41 -35 114 -34 150 2 46 45 47 118 5 217 -19 43 -58 87 -78 87 -4 0 -19 -9 -34 -21z"
       id="path578"
       style="fill:#ff6699" />
  </g>
</svg>
