<?xml version="1.0" encoding="utf-8"?>
<!-- Generator: Adobe Illustrator 21.0.0, SVG Export Plug-In . SVG Version: 6.00 Build 0)  -->
<svg version="1.1" id="图层_1" xmlns="http://www.w3.org/2000/svg" xmlns:xlink="http://www.w3.org/1999/xlink" x="0px" y="0px"
	 viewBox="0 0 568.7 792.3" style="enable-background:new 0 0 568.7 792.3;" xml:space="preserve">
<style type="text/css">
	.st0{fill:#FFFFFF;stroke:#000000;stroke-miterlimit:10;}
</style>
<title>Anime10_13_239</title>
<g>
	<path id="XB6D21FM2Gra4OT28" class="st0" d="M126.5,277.8c-9.4-0.2-21.7,1-33.3-3.8c-6.4-2.7-11.4-6.4-13.8-13.6
		c-0.5-3.1-0.2-6.5,1.5-9.1c8.7-12.1,17.6-13.2,29-15.9c18.5-4.3,37.3-7,55.6-12.3c9.2-2.7,16.5-8.5,24.2-13.8
		c2.8-1.9,4.5-1.9,6.9,0.2c3.5,3,7.8,5.2,12.3,6.3c2,0.5,3.7,1.2,4.3,3.6c3.1,13.2,13.4,18.7,25.1,21.6c16,4,32,2.9,47.8-2.2
		c2.1-0.7,4.3-0.6,6.4,0.2c14.6,5.1,29.4,5.4,44.3,2.1c7.7-1.7,14.8-5.1,19.4-12.1c1.5-2.5,4.2-3.9,7.1-3.6
		c13.2,0.6,25.6-1.8,35.9-10.8c2-1.7,4.3-2.2,6.5-0.8c18.9,11.8,40.6,13.3,61.8,16.4c7.5,1,15,2.6,22.3,4.8
		c4.5,1.4,8.5,3.9,11.7,7.4c5.3,5.6,5.1,12.1-0.4,18.9c-2.4,2.9-5.3,5.5-7.8,8.4s-3.6,6.3,0.3,10.3c1.7,1.6,3.4,3.2,5.3,4.6
		c1.7,1.4,3.5,2.5,5.2,3.9c5.8,4.9,12.1,9.6,9.5,18.6c-2.2,7.5-12,15.4-20.3,15.8s-14.7-0.1-22,0s-8.1,0.9-10.6,7.9
		s-6.9,15.7-13.5,21.3c-11.9,10.1-17.5,9.2-29.2,0.6c-7.5-5.5-12.7-13.1-18.3-20.4s-15-15.1-25.6-18.3s-23-2.2-34.2,2.3
		c-6.9,2.8-13.9,5.5-20.6,8.9c-11,5.5-19.5,3.4-29.8-7.1c-2.3-2.4-4.5-5-7-7.2c-13.1-11.4-31.1-12.4-46.4-2.9
		c-10.4,6.5-17.4,16.3-24.5,25.9c-5,6.8-10.1,13.7-18.1,17.5s-15.7,1.9-21.5-4.2c-9.3-9.4-14.1-22.2-13.3-35.4
		c0.4-7.8,0.6-15.6,0.3-23.5c-0.1-2.5-0.6-5-1.5-7.3c-1.3-3.4-3.5-4.8-7.3-4.5C143.1,277.1,136.1,277.3,126.5,277.8z"/>
	<path id="XFFCC33M2Gra1Co2" class="st0" d="M149.3,315.8c-0.2,10.2-0.6,21.9,4.3,32.9c8.1,18.2,36.9,24.4,51.8,11.3
		c10.1-8.9,17.2-20.3,25.8-30.4c4.1-4.8,8.9-8.9,14.4-12.1c12-7,22.8-5.8,33,7s24.7,18.8,41.3,14c8.5-2.5,16.5-7,24.4-11.2
		c15.7-8.3,36.3-0.1,43.1,11.1c4.3,6.9,8.9,13.6,13.9,20.1c15.8,20.9,47,21.1,62.5-1.8c3.6-5.3,6.7-10.7,7.7-17.1
		c0.6-3.7,2.6-4.1,5.7-3.2c9.4,2.8,18.8,5.8,27.5,10.4c10.6,5.6,21.3,11,32.1,16.1c8.8,4.1,8.6,7.9,0.6,13.2
		c-8,5.3-25.2,12-37.5,17.5c-1.5,0.7-3.3,0.8-4.9,0.4c-8-1.8-15,0.3-21.6,5c-15.3,10.8-32.6,12.9-50.6,10.7
		c-4.2-0.5-8.2-2.6-12.4-3.8c-9.7-3-19.3-3.8-28.7,0.8s-18.8,4-28.4,4.3c-18,0.5-35.9-0.1-53.4-5.4c-9.3-2.8-18.8-1.8-27.8,2.4
		c-17.5,8-35.1,7.9-52.7-0.1c-5.6-2.5-11.3-4.9-17.1-7c-7.8-2.8-15.3-2.6-22,3.3c-8.2,7.2-18.1,7.4-27.9,5
		c-11.7-2.8-23.1-6.5-33.9-11.9c-7.3-3.7-14.9-4.7-22.7-1.9c-5.4,2.1-11.3,2-16.6-0.3c-14-6.1-27.6-13.3-38.4-24.3
		s-12.4-20.9-4.9-35.3s20.2-26.3,33.6-36.3c6.3-4.9,13.1-9.2,20.2-12.8c2.1-1.1,4.4-1.5,6.7-1.1c15.1,2.1,30.2,2.8,45.3,1
		c4.1-0.5,5.9,0.8,6.4,4.8C149.3,299.3,149.7,307.5,149.3,315.8z"/>
	<path id="XF9D886M2Gra1OT15_1_" class="st0" d="M342.6,495.4c-0.8,19.8-1.9,39.6-1.8,59.4c0.2,2.4-1.3,4.6-3.5,5.5
		c-13.7,6.4-25.7,15.3-37.7,24.2s-25.4,6-31.8-7.3c-1.5-3-3.3-6.1-5.9-7.9c-4.5-3.1-5-7-5-12c0.3-29.7-3.3-59.1-4.5-88.7
		c-0.5-10.8-0.7-21.6-1.2-32.4c-0.3-2.4,1-4.6,3.2-5.6c8.8-5.1,18-9.3,27.6-12.6c0.7-0.1,1.3-0.3,1.9-0.6c11.4-8,22-2.4,32.3,2.5
		c7.7,3.6,14.9,8.1,23.1,10.6c2.8,0.9,3.7,2.8,3.7,5.7C343.2,455.7,343.3,475.6,342.6,495.4z"/>
	<path id="XF9D886M2Gra4OT15_1_" class="st0" d="M402.1,413.9c5.1,1.9,9.8,4.6,14.1,8c4.6,3.6,9.1,7.3,13.9,10.5
		c2.3,1.6,3.3,3.6,3,6.8c-1.6,19.1-3,38.2-4.4,57.3c-1.9,26.4-3.7,52.8-6.9,79.1c-1,7.8-3.6,12-11,13.9c-4.3,1.1-8.5,3-12.7,4.5
		s-6.8-0.4-7-4c-0.5-10.9-8.9-14.9-16.3-19.8c-4.8-3.2-10.2-5.7-15.3-8.4c-3-1.6-4-3.7-3.9-7.3c1.3-30.3,2.3-60.6,3.5-90.9
		c0.4-10,1-20,1.5-29.9c-0.1-1.7,0.6-3.3,1.8-4.5C367.6,424.5,394.2,413.9,402.1,413.9z"/>
	<path id="XF37FFFM2Gra4OT20_1_" class="st0" d="M292.6,129.6c17-0.1,31.1-7.6,44-17.9c2-1.6,2.3-3.9,2.9-6.2
		c2.2-8.3,3.7-16.5,0.3-24.9c-1.3-3.1,1.4-3.6,3.7-3.6c6.8,0,13.2,2.1,18,6.4c11.4,10.2,17.9,23,14.3,38.7
		c-2.5,11-10.6,18.3-19.3,24.6c-10.7,7.8-23.4,10.9-36.2,13.4c-10.5,2.1-20.7,5.1-30.6,9c-19.4,7.7-23.6,27.6-17.6,43.5
		c1.5,3.9,3.7,7.4,6.4,10.6c2.9,3.5,2.6,5.1-1.6,6.3c-8.8,2.7-18.3,2.6-27.1-0.1c-12.5-4-23.7-9.9-30-22.3c-0.5-1-0.9-3.1-1.9-3.3
		c-10.5-2.5-13.9-10.7-18.1-18.7c-5.4-10.4-0.8-19.3,5.2-27.2c15.4-20.3,35.5-31.2,61.7-29c2.8,0.2,5.7,0,8.5,0L292.6,129.6z"/>
	<path id="XDAA6B7M2Gra6OT11_2_" class="st0" d="M81.9,422.6c-0.4-2.8,0.8-4,2.3-5.3c5.6-4.8,12.1-8.2,18.4-11.9
		c1.9-1.1,3.7-0.8,5.7,0c11.3,4,21.7,10.1,33.3,13.5c5.4,1.6,7.8,5.7,8.7,11.1c2.7,16,2.6,32.2,4.8,48.2c3.6,25.7,5.3,51.7,8.9,77.4
		c1.3,8.9,2,17.9,3.3,26.7c0.5,3.3-1.2,4.2-4.1,3.7c-18.3-2.7-36-8-53.5-13.9c-5-1.7-5.3-5.2-6.1-9.5c-2.9-15.4-5-30.9-7.4-46.3
		c-4.8-30.6-9.4-61.2-14-91.8C82.1,423.6,81.9,422.8,81.9,422.6z"/>
	<path id="XDAA6B7M2Gra5OT11_1_" class="st0" d="M512.6,417.7c-2.3,17.8-5,35.6-6.8,53.5c-2.5,24.5-6.9,48.8-7.9,73.5
		c-0.5,11.9-5.6,20-17,23.6c-13,4.2-25.8,8.9-39,12.2c-4.6,1.2-5.3,0.4-4.9-4.3c2-20.5,3.6-41.1,5.9-61.7c3.2-28,5.2-56,6.8-84.1
		c0-1.7,0.8-3.3,2.3-4.1l35.9-20.7c1.1-0.8,2.5-1,3.8-0.8c7,1.7,13.2,5.4,19.7,8.3C513.3,414,512.9,416.1,512.6,417.7z"/>
	<path id="XDAA6B7M2Gra6OT11_1_" class="st0" d="M241.1,550.8c-0.1,8.6-0.1,8.6-8.8,7.9c-6.7-0.5-13.4-1-19.9,0.3
		c-9.8,1.9-17.7,6.4-20.8,16.9c-1,3.4-2.3,8.3-6.3,7.8s-3.3-5.6-3.5-8.8c-2.1-30.4-6.5-60.6-9.5-90.9c-0.6-6.3-1.3-12.6-1.7-18.9
		c-0.7-10.1-1.2-20.3-4.5-30c-1.4-4.1-0.1-6.7,2.9-9.6c5-4.8,10.9-8.2,16.4-12.2s10.1-2,14.9,0.7s11.8,6.1,17.2,10
		c2.1,1.5,4.6,3.3,7.1,3.6c6.8,0.9,8.2,4.6,8.8,11.1c1.8,19.6,1.9,39.2,3.7,58.8C238.5,515.3,239.8,533,241.1,550.8z"/>
	<path id="XDAA6B7M2Gra1OT11_1_" class="st0" d="M14.3,361c1.1,0,1.8,0.3,1.8,1c0.1,0.8-0.1,1.6-0.6,2.3c-1.3,1.3-2.9,2.3-4.2,3.5
		c-3.9,3.1-5.4,8.4-3.6,13.1c1.6,4.8,5.7,5,9.7,5.3h2c10.3-0.6,18.3,3.4,24.6,11.6c3.8,4.9,8.9,8.6,14.3,11.5c3.6,1.8,6,5.5,6.1,9.6
		c2.2,28.3,7.7,56,11.8,84c2.7,18.9,5.6,37.9,8.3,56.8c0.7,4.7-0.6,5.5-4.9,3.8c-12.3-4.7-24.3-10-36.3-15.3
		c-9.6-4.3-15.2-10.6-15.2-21.7s-3.8-24.3-6-36.4c-5-27.5-10.4-54.9-15.9-82.3c-1.8-9-4.8-17.6-6.1-26.7c-0.9-6.5,1.2-11.1,6.3-14.5
		C9.2,364.7,11.3,362,14.3,361z"/>
	<path id="XF9D886M2Gra1OT15" class="st0" d="M336,783.2c0,4.3-1.3,6.3-5.8,6.8c-16.1,1.7-32.1,3.4-48.3,1.3l-4.9-0.8
		c-9-1.9-9.6-2.4-9.3-11.8c0.7-21.6-3.3-42.8-4.3-64.2c-0.6-12.7,1.9-24.8,5.2-36.9c0.9-3.4,3-5.7,7.1-5.9
		c5.7-0.2,10.9-2.8,16.2-4.8c3.4-1.3,6.1-1.2,8.9,1.8c5.6,5.8,12.6,10,19.6,13.5c4.3,2.2,9.7,2.7,14.4,4.9c2.7,1.3,3.5,2.9,3.4,5.8
		c-0.2,15-0.4,31.5-0.7,46.5C337.5,739.4,337,767.7,336,783.2z"/>
	<path id="XDAA6B7M2Gra6OT11" class="st0" d="M121.6,649.3c6.8,0.3,13.7,2.7,20.7,4.1c9.6,2,19.3,3.7,29.1,4c3.1,0.1,4,1.2,4.3,4
		c3.9,33.1,7.9,66.1,11.8,99.2c0.9,7.4,1,14.9,1.7,22.4c0.3,3.6-1.6,3.7-4.4,3.5c-9.4-0.9-18.3-3.4-27.1-6.5
		c-5.3-1.9-10.7-3.7-16.1-5.3s-6-3.4-6.6-7.6c-5.5-37.9-11.2-75.7-17-113.6C117.5,650.5,117.6,648.6,121.6,649.3z"/>
	<path id="XE51F1FM1Gra3OT28_1_" class="st0" d="M400,647.4c-4,1.7-6.5-2-8.8-6.2s-3.8-7.5-6.3-10.7s-1.8-6.9-0.6-11
		c2.7-9.2,7.4-13.4,17.6-14.9c25.7-3.8,50.2-12.6,74.3-22.4c17.7-7.2,35.3-14.6,52.7-22.6c1-0.5,2-1.4,3.2-0.6s1.2,2.6,1,4.1
		c-1.5,12.4-6.1,24.3-7.5,36.6c-0.9,8.4-5.1,11.8-12.4,14.8c-26.6,11.1-53.1,22.1-81.3,28.5C421.9,645.2,411.8,645.9,400,647.4z"/>
	<path id="XF9D886M2Gra4OT15" class="st0" d="M349.1,740.9c0.5-13.8,1.1-27.6,1.5-41.5c0.1-4.1,1.5-5.9,6-6.7
		c12.5-2.4,22.2-9.6,28.7-20.6c1.7-2.8,3.4-4.2,6.6-4.2c5.3-0.2,10.6-1.1,15.7-2.6c2.8-0.8,4.3,0.1,5.5,2.7c1.7,3.8,2.3,8,1.8,12.2
		c-2.7,29.3-5.5,58.7-8.2,88.1c-0.9,9.8-1.3,9.9-10.9,12.2c-14.1,3.4-28.3,6.3-42.9,6.6c-5.5,0.1-5.8-0.1-5.5-5.8
		c0.8-13.5,1.3-27,1.9-40.4H349.1z"/>
	<path id="XE51F1FM1Gra3OT28" class="st0" d="M170.7,643.5c-24.4-2.6-48.5-7.6-72-14.7c-15.8-4.8-31.3-10.3-46.8-15.7
		c-2.6-0.7-4.6-2.6-5.6-5.1c-5.9-14.5-7.6-30-10.4-45.2c-0.7-3.6,1.1-4.1,4-2.6c30.4,15.3,62.5,26.7,95.7,34
		c13.3,3,26.8,5.2,40.4,6.6c3.2,0.3,4.8,1.3,5.1,4.6c0.6,4.3,2.3,8.4,5,11.9c1.9,2.7,2,5.1,0.3,7.8c-3,4.8-6,9.6-9.1,14.4
		C175.8,642,173.9,644.2,170.7,643.5z"/>
	<path id="XE900DDM1Gra2OT11_1_" class="st0" d="M192.5,650.8c0.2-7.3,2.9-14.4,7.6-20c3.4-4.1,3.3-7.3,0.1-11.5
		c-15.4-20,4.4-49.2,23.7-50.5c6.1-0.4,11.8,1.6,17.2,4.3c8.8,4.2,16.6,9.6,22.4,17.7c2,2.9,2,5-0.4,7.4c-4.3,4.4-9,8.5-10.9,14.7
		c-0.6,1.8-2.3,2-4.1,2.1c-5.5,0.3-9.9,4.1-10.6,8.8c-1,6.8,1.2,11.4,7.9,12.9s8.9,4.1,11.3,9.1c1.5,3.4,4,6.2,7.1,8.2
		c2.5,1.5,2.6,3.4,0.9,5.9c-8.8,12.8-20.2,21.6-35.9,23.9c-8.5,1.3-16.4-1.4-22.9-6.6C197.7,670.5,192.8,661.5,192.5,650.8z"/>
	<path id="XDAA6B7M2Gra5OT11" class="st0" d="M483.1,661.1c-1.4,22.3-5.5,44.2-9.1,66.3c-1.6,10-2.9,20.1-4.1,30.2
		c-0.3,2.9-1.3,4.6-4.1,5.4c-13.8,3.8-27.1,9.3-41.1,12.3c-5.4,1.1-5.8,0.5-5.5-5.1c1.4-26.6,4.3-53.1,6.9-79.6
		c0.8-7.8,1.7-15.5,2.5-23.3c0.1-2.6,1.9-4.8,4.5-5.3c14.9-4.1,29.8-8.3,43.9-14.9c2.8-1.3,4.4,0.1,5.4,2.7S483.2,657.3,483.1,661.1
		z"/>
	<path id="XF37FFFM2Gra4OT20" class="st0" d="M399,174.6c0.3,14-8.3,22.7-18.2,30.5c-5.1,4.1-11.2,6.8-17.7,7.8
		c-7.4,1-13.4,4.8-19.5,8.3s-14.3,7.8-22.5,9.3c-11.2,2-26.2-3.9-31-14.1c-8.1-17.2-5.6-33,15.3-40.7c9.4-3.4,19.2-5.7,29.1-6.8
		c17.4-2.1,31.2-10,40.9-24.7c2.4-3.7,4.3-3.4,7.5-0.9C392.8,151.5,398.7,161.6,399,174.6z"/>
	<path id="XE900DDM1Gra2OT11" class="st0" d="M377.3,603.6c0.4,6.6-2.9,13.5-7.6,19.7c-2.4,3.1-2.3,5.6,0.1,8.4
		c7.5,8.8,8.7,18.4,3.8,28.8s-13.9,19.2-27,20c-5.7,0.2-11.3-1.3-16.2-4.3c-9.3-5.3-17.1-12.9-22.6-22.1c-1.2-2-1.3-3.6,0.3-5.4
		c3.2-3.6,6-7.6,8.3-11.8c1-2.2,3.4-3.4,5.7-2.9c2,0.3,3.9,0.2,5.9-0.1c5.3-1,9.4-5.7,9-9.9s-6.2-10.5-11.5-10s-7-0.9-9.4-4.3
		s-4.9-7.1-8.3-9.9s-1.5-3.2,0.1-5.1c7.2-8.7,15.6-16,26.2-20.3C355.5,565.6,377.7,579.6,377.3,603.6z"/>
	<path id="XDAA6B7M2Gra1OT11" class="st0" d="M113.6,757.3c0.1,6.5-0.8,7.2-5.5,5.8c-11.2-3.3-22.1-7.3-32.8-12
		c-3.4-1.5-5-4-5.6-7.6c-2.8-17.1-5.5-34.2-8.7-51.2c-3.7-19.8-7.8-39.5-11.6-59.3c-1.3-7-0.6-7.2,6.1-6.2
		c13,1.9,24.8,7.5,37.1,11.4c3.4,1.1,4.1,3.6,4.4,6.5c1.5,11.7,2.8,23.5,4.5,35.2c3.2,21.1,5.8,42.2,9.9,63.2
		C112.7,748.2,113.1,753.5,113.6,757.3z"/>
	<path id="XDAA6B7M2Gra8OT11" class="st0" d="M252.7,723.3c-0.3,15.1,1.4,31.3,3.5,47.5c0.8,5.6,0.9,11.3,0.2,16.9
		c-0.4,2.8-1.8,4-4.6,4.2c-14.1,0.8-27.9-1.4-41.6-4.2c-2.8-0.6-3.9-2.7-4.2-5.5c-3-27.8-6-55.6-9-83.3c-0.2-1.5-0.3-3-0.5-4.5
		s-1.2-3,0.2-4.2s3.1-0.3,4.6,0.4c12.8,5.6,25.7,6.2,38.8,1c6.4-2.6,7.5-1.9,9.5,4.8C252,704.8,252.3,713.4,252.7,723.3z"/>
	<path id="XBF0202M2Gra3Co4" class="st0" d="M270.3,114.7c-12.4-0.4-24-2.1-33.9-9s-12.8-18.4-9.5-28.8c2.3-7.2,5.6-13.9,11.4-19.1
		c4.3-3.8,6.3-3.7,8.9,1.2c4.1,7.9,10.7,10.3,19,10c10.3-0.4,16.5-6.8,15.5-17c-0.4-4,1-5.1,4.5-6.1c13.5-4,33.8,7.7,36.9,22.4
		c3.8,17.9-0.9,29.4-17.4,37.6C294.4,111.8,282.3,114.2,270.3,114.7z"/>
	<path id="XDAA6B7M2Gra2OT11_1_" class="st0" d="M568.6,384.8c-0.3,2-0.3,5.1-1.2,7.9c-6.8,20.6-9.8,42.1-13.7,63.4
		c-4.7,25.4-9.1,50.8-13.5,76.2c-0.5,3.5-2.4,6.6-5.3,8.6c-5.6,4-11.8,6.8-17.8,10c-1,0.6-2.2,1.1-3.3,0.3s-0.7-2.8-0.5-4.2
		c3.6-28.4,7.4-56.8,10.9-85.2c2.1-17,4-34.1,5.9-51.1c0.5-3.6,1.9-7.1,4.2-10c3.4-4.9,7.2-9.6,11.4-13.9c3-3,5.7-5.6,10.8-4.1
		s4.5-2.1,3.8-5.4s-2.1-4.2,0.2-5.4s4,1.4,5.5,3.1S568.5,380.6,568.6,384.8z"/>
	<path id="XDAA6B7M2Gra2OT11" class="st0" d="M521.1,634.4c-1.1,8.4-1.8,15.8-3,23.2c-3.2,19.9-7.7,39.5-11.8,59.2
		c-1.9,8.9-3.2,18-4.2,27.1c-0.4,3.5-1.6,5.4-4.7,6.8s-5.2,3.1-7.8,4.3s-4.7,0.5-4.2-3.2c1.5-10.1,3-20.1,4.5-30.1
		c3.6-23.5,6.5-47.1,8.4-70.8c0.4-5.7,2.2-9.8,7.3-12.4s7.6-4.1,11.5-5.9S521.1,632.2,521.1,634.4z"/>
	<path id="XE51F1FM1Gra6OT28" class="st0" d="M304.6,624c0.1,10.4-7.7,19.6-17,19.9c-11,0.3-21-9-21.3-20s8.1-20.8,16.7-20.5
		C293.3,603.7,304.4,611.7,304.6,624z"/>
	<path id="X038203M2Gra7Co14" class="st0" d="M267,40.1c0.3,4.1-0.3,8.9,3,13.2s0.4,5.5-3.3,5.7s-7-0.9-9.1-4.1
		c-3.6-5.6-5.5-11.5-4.8-18.4c1.5-15.7,17.6-33.7,32.1-36.2c7.1-1.2,13.5,0.7,16.6,5.1s-0.2,5.9-2.2,8.1s-4.4,3.8-7.5,1.7
		s-4.5-5.8-8.9-3.8c-5.1,2.1-9.4,5.6-12.5,10.2C266.8,27.2,267.1,33.3,267,40.1z"/>
</g>
</svg>
