<?xml version="1.0" encoding="utf-8"?>
<!-- Generator: Adobe Illustrator 21.0.0, SVG Export Plug-In . SVG Version: 6.00 Build 0)  -->
<svg version="1.1" id="图层_1" xmlns="http://www.w3.org/2000/svg" xmlns:xlink="http://www.w3.org/1999/xlink" x="0px" y="0px"
	 viewBox="0 0 429.2 924.5" style="enable-background:new 0 0 429.2 924.5;" xml:space="preserve">
<style type="text/css">
	.st0{fill:#FFFFFF;stroke:#000000;stroke-miterlimit:10;}
</style>
<title>Anime10_13_186</title>
<g>
	<path id="XE79CFFM2Gra2OT16_1_" class="st0" d="M110.8,727.2c-14.4-0.7-28.5-3.7-41.9-9.1l-0.9-0.4c-8.7-4.2-9.4-5.8-5.8-14.5
		s7.3-16.3,14.4-22.4c2.1-1.8,1.3-4,0.2-5.9c-7.4-12.9-12.2-27.1-14.2-41.8c-2.6-17.9-2.4-35.8,1.7-53.6c0.6-2.7,2.5-3.3,4.6-3.8
		c15.5-3.9,30.5-2.2,45.2,3.9c15.8,6.6,30.3,15.9,43,27.4c2.9,2.6,5.6,2,7.5-1.2c4-6.8,10.5-11,16.4-15.9c2.1-1.7,3.8-0.9,5.9,0.3
		c9.9,6.3,15.6,15.3,18.8,26.5c3.7,13.2,3.5,26.5,1.2,39.6c-1.8,10.4-6.1,20.1-12.6,28.4c-1.9,2.5-3.5,3.4-6.5,1
		c-4.6-3.8-9.6-7.1-15-9.7c-1.2-0.6-3-1.7-3.9,0.2s0.2,2.9,1.5,3.9c3.9,3.1,7.9,6,10.9,10.2c4.2,5.8,3.8,11.9-1.8,16.2
		c-12.4,9.4-26.4,15.1-41.7,18.1C128.7,726.4,119.9,727.6,110.8,727.2z"/>
	<path id="XE79CFFM2Gra2OT16" class="st0" d="M253,700.4c-9.3-1-17.3-0.9-25.1-3.3c-5.7-1.8-10.2-5.5-15.3-8.2c-1.9-1-2.1-3-0.3-4.6
		c5.3-4.5,9.9-9.6,15.6-13.5c1.2-0.9,3.6-1.5,2.4-3.6s-3.1-2-4.9-1.3s-3.8,2.1-5.7,3c-1.3,0.8-3,0.7-4.3-0.1
		c-1.6-1.2-0.7-2.7-0.3-4.1l7.1-25.4c0.5-1.8,0.5-3.6,0.1-5.4c-2.8-10.5-3.4-21.8-10.8-30.7c-0.4-0.5-0.6-1.2-0.5-1.8
		c2.3-5.1,4.4-10.4,7.3-15.3c1.1-1.9,4.1-1.1,6-0.2s3.9,1.8,4.9,3.3c5,7.8,11.6,5.9,18.6,3.8c12.9-3.8,25.6-8.5,39.4-8
		c3,0.1,6,0.5,8.9,0.8c9.9,1.1,12.4,4.3,12.4,14.3c0,18.8-5.5,36-14.5,52.2c-1.1,1.9-1.6,3.6,0.1,5.4c4.5,5.1,8.5,10.5,12.1,16.3
		c2.3,3.5,2.2,5.9-1.1,9C290,697.1,271.3,700,253,700.4z"/>
	<path id="X95C61BM2Gra1OT26_3_" class="st0" d="M63.9,387.8c16.8,0.9,32.6,6.1,44.3,21.8c7.8,10.4,15.6,20.7,21.7,32.2
		c8.7,16.3,16.5,32.9,21.3,50.9c2.8,10.5,4.7,21,6.6,31.6c2.4,13.4,4.3,26.8,6.2,40.2c1.1,7.3-0.8,14.2-1.1,21.3
		c-0.2,3.4-2.6,2.8-4.8,1.7c-9.1-4.3-11.8-12.8-13.1-21.6c-2.4-16.6-4.2-33.4-7.9-49.8c-4.8-20.9-11.4-41.4-21-60.6
		c-8.2-16.5-19.8-31-34.2-42.5c-11.8-9.4-25.2-10.6-39.3-7c-10.3,2.6-20.5,5.7-28.6,13.1c-3.5,3.2-6.8,6.8-10.2,10.1
		C3,430,2.3,431.4,1,430.9s-0.9-2.3-0.7-3.5c1.7-8.8,6.6-15.8,13.4-21.5C27.8,394.3,44.3,388.8,63.9,387.8z"/>
	<path id="XB6D21FM2Gra2OT28_1_" class="st0" d="M121.6,785.2c0.2-10.5-4.4-19.7-7.9-29.2c-0.9-2.4-2.5-4.7-0.2-6.9s5.3-1.7,7.9-0.5
		c4.3,1.9,6.5,5.8,8.3,9.7c8.6,19.1,11.4,38.6-0.4,57.3c-8.8,13.9-21.2,23.9-38.1,26.7c-26.6,4.4-49.3-4.5-64.8-25.5
		s-13.5-42.6,7.9-58.6c15.4-11.5,32.2-11.8,48.9-1.7c10.9,6.6,16.4,21.4,12.4,33.5c-3.4,10.1-19.4,14.7-26.6,7.6
		c-2.9-2.8-2.6-5.6,0.9-7.7l5.2-3c1.7-0.9,2.6-2.7,2.5-4.6c0-4-5.9-12.4-9.8-13.6c-10.2-3.5-21.5,0.1-27.7,9
		c-5.9,8.1-4.9,22.8,2.5,32.8c8.8,11.8,20.5,17.9,35.3,17c10.2-0.6,20.6-0.9,29.1-8.1C117.7,810.3,121.3,798.5,121.6,785.2z"/>
	<path id="XB6D21FM2Gra2OT28" class="st0" d="M264.9,742.6c0.1,7.7-1.1,18.5,3.6,28.6c10.1,21.4,23.8,30.8,47.4,28.2
		c15.4-1.7,24.7-10.8,28.1-26.4c1.6-7.5-4.1-17.2-11.4-19.8c-3.9-1.4-7.7-0.2-10.9,2.1s-2.3,4.7,0.1,6.7s4.3,6.3,1.2,9.9
		s-7.5,3.6-11.6,0.6c-7-5-7.1-11.2-4.3-19.7c6.1-18.9,23.2-19.8,36.7-13.8s20.7,16.6,20.1,30.5c-0.7,17.6-6.8,33.9-24.8,41.1
		c-10.1,4.1-21.1,5.4-31.9,3.7c-16.6-2.6-30.5-10.3-42.2-21.8c-5.4-5.3-9-12-12.2-19.1c-4.5-9.9-5.4-20.1-6-30.5s3.4-18.7,7.7-27.2
		c1.1-2.2,3.7-3.2,6-2.4c2.1,0.5,3.8,2.2,4.2,4.3C266.9,724.9,265.4,732.3,264.9,742.6z"/>
	<path id="X81B540M2Gra1OT4_1_" class="st0" d="M197.7,736.6c0-5.7,0-11.3,0-17c0-3.6,1.8-6.4,4.4-8.6s9.7-1.3,11.8,4.6
		s2.7,10.9,4.3,16.3c2.4,8,6.8,15.1,10.9,22.4c0.7,1.3,2.4,2.7,0.9,4.5s-2.9,1.4-4.6,1.2l-4.5-0.3c-3.1-0.1-4.2,1.3-4.6,4.5
		c-1.3,13,0.4,26.2,5.1,38.4c2.1,5.6,4.1,11.2,6.5,16.6c1.4,3.1,1.4,6.4-3.2,7.2s-3.8,3.2-3.8,6.1c-0.1,14,3.9,27.2,7.9,40.4
		s7.6,25.4,11.4,38.2c0.7,2.5,2.5,4.7,2.4,7.5s0.8,4.7-1.8,5.6s-3.9-1.2-5.1-3.1c-3.2-5.1-6-10.4-8.3-15.9
		c-7.5-17.5-12.3-35.9-16.1-54.4c-4.7-22.8-8-45.8-10-69C199.9,766.8,198.4,751.7,197.7,736.6z"/>
	<path id="X81B540M2Gra6OT4_1_" class="st0" d="M183.4,522.7c0.6,11.1,0.1,28.5,3,45.6c0.4,2.6,2.1,6.8-1.9,7.7s-4.9-3.2-5.7-6.1
		c-6.1-21.6-10.3-43.7-12.4-66c-3.1-32.8-3-65.8-6.3-98.6c-1.1-10.9-2.3-21.8-5.6-32.4c-2-6.7-1.1-9.8,2.6-11.3s9,1,12,4.9
		c4.7,6,5.4,13.3,5.9,20.3c2.3,30,6.2,59.9,7.1,90.1C182.5,490,182.7,503.3,183.4,522.7z"/>
	<path id="X81B540M2Gra1OT4" class="st0" d="M190.7,760.3c-0.4,17.3,2.7,34.5,1.4,51.9c-2.3,31.1-4.9,62.1-14.1,92.1
		c-0.7,2.2-1.6,4.4-2.3,6.6s-2.1,3.5-4.4,3.2s-2.1-2.6-2.2-4.3c-0.7-14.9,2.2-29.5,3.4-44.2c1.3-16.9,3-33.8,3.6-50.8
		c0.1-1.9-0.1-3.8-2-4.7s-3.5,0.3-4.9,1.5s-1.4,1.4-2.2,2s-2,1.4-3.2,0.7c-1-0.7-1.5-1.9-1.2-3.1c0.8-5.4,0.8-11.1,2.6-16.2
		c5.9-16.9,9.4-34.5,10.7-52.3c0.6-9,3.7-17.5,4.4-26.5c0.1-1.2,1.1-2.2,2.3-2.3c2-0.3,2.8,1,3.7,2.6c4.1,7.6,3.7,16.1,4.4,24.3
		C191.2,747.3,190.7,753.8,190.7,760.3z"/>
	<path id="XB6D21FM2Gra3OT28_12_" class="st0" d="M166.7,54c0.9,10.7-2.4,20.2-7.6,29.4c-7.9,14.1-22.6,9.1-29.7-1.7
		c-8.8-13.2-8.1-27.6-3.2-42.1c4-12,10.5-23,13-35.6c1-5.2,2-5.1,6.1-1.6c13.4,11.7,19.2,26.9,21.4,44
		C166.9,48.9,166.9,51.5,166.7,54z"/>
	<path id="X81B540M2Gra6OT4" class="st0" d="M191.7,552.3c0.3-13.5,2.3-26.8,4.5-40.1c5-30.1,12.7-59.5,20.3-88.9
		c5.1-19.6,9.9-39.3,14.8-59c0.6-2.5,1.2-4.4,4.3-4.5s4.9,0.7,6.2,3.7c1.9,4.6,2.2,9.7,0.7,14.5c-7.8,27.5-14.8,55.2-23.1,82.6
		s-13.3,53.6-17.1,80.9c-1.3,9.4-3.5,18.6-4,28.1c-0.1,1.7,0.5,4.8-2.4,4.6s-3-2.8-3-5.1C193,563.5,191.3,558,191.7,552.3z"/>
	<path id="XB6D21FM2Gra4OT28_6_" class="st0" d="M373.2,47.4c-0.4,18.9-7.5,33.3-20.6,45c-3.8,3.4-8.2,4.9-12.9,6
		c-2.6,0.6-5-0.5-6.9-2.1c-8.7-7-10.3-20.8-4.9-30.1c8.9-15.2,23.4-24.7,34.9-37.3c3.2-3.5,6.6-2.5,7.7,2.1S374.5,42.5,373.2,47.4z"
		/>
	<path id="X95C61BM2Gra1OT26_1_" class="st0" d="M317.2,489.4c12.4,0,21,1.3,27.5,8.6c1.2,1.3,3.3,2.7,2.2,4.6
		c-1.1,1.9-4.2,1.5-5.9,0.7c-6.8-3.2-13.8-3.5-21-2.4c-13.8,2.1-25.5,8.6-36.5,17c-11,8.4-18.4,19.8-26.6,30.7
		c-4.8,6.4-8.8,13.2-13.2,19.9c-3,4.6-7.2,5.5-12,5.9c-2.2,0.2-3-1.4-3-3.2s0.3-3.7,0.9-5.4c7.9-21.7,21.5-40.9,39.3-55.5
		C283.8,498,300.9,490.2,317.2,489.4z"/>
	<path id="XB6D21FM2Gra7OT29_5_" class="st0" d="M155.4,123.3c0-11,3.8-21.6,10.7-30.2c5.6-7.2,11.3-14.4,15.8-22.3
		c0.5-0.7,0.9-1.4,1.3-2.1c0.6-1.6-0.1-4,2.4-4.5s3.2,1.9,4.4,3.4c11,13.8,9.6,28.5,4.1,44.1c-3.1,8.7-8.8,15.2-15.2,21.1
		c-3.7,3.4-8.2,5.7-13,6.9c-4.2,1-7.9-1.4-9.2-5.6C155.7,130.6,155.3,126.9,155.4,123.3z"/>
	<path id="XB6D21FM2Gra3OT28_11_" class="st0" d="M147.8,282.8c-0.1,4.1-1.5,8-3.8,11.3c-2.9,4.4-7.3,5.6-12.2,3.5
		c-24-10.3-34.4-30-37.3-54.7c-0.4-3.6,1.4-7,3-9.9s4.9-1.7,7,0.1c13,11.2,26.8,21.7,37.8,35C145.9,272.4,147.2,277.5,147.8,282.8z"
		/>
	<path id="XB6D21FM2Gra3OT28_10_" class="st0" d="M127.6,142.9c-6.3-0.5-12.8-5-17.7-11.2c-10.8-13.5-14.6-29.3-12.4-46.4
		c0.6-4.3,2.4-8.4,5.3-11.6c1.7-2,2.7-2.4,4.5,0.1c5.6,7.9,12.8,14.5,18.4,22.1c7.9,10.5,14.4,22.5,14.9,36.4
		C140.9,139,136.5,143.1,127.6,142.9z"/>
	<path id="XB6D21FM2Gra7OT29_4_" class="st0" d="M202.2,143.4c-1.8,17.9-8.4,33.4-23.3,44.4c-3.8,2.9-7.7,5.8-12.3,7.5
		s-8.4,0.4-9.7-4.4c-2.7-10.4-1.9-19.9,5.3-29c9.5-12.1,20.2-22.9,30.6-34c2.5-2.6,4.4-2.6,5.4,0.7
		C199.8,133.4,202.5,138,202.2,143.4z"/>
	<path id="XB6D21FM2Gra4OT28_5_" class="st0" d="M346.8,211.7c-2.8,12-7.1,23.3-17.2,31.4c-6.8,5.4-14.2,9.1-22.8,10.3
		c-5.9,0.8-10.8-1.4-15.3-4.7c-2.8-2-2.6-10.3-0.5-15.1c5-11.6,14.9-16.6,25.9-20.7c8.5-3.2,17.7-4.3,26-8.2c2-1,2.7,0.1,3.4,1.6
		S346.5,209.7,346.8,211.7z"/>
	<path id="XB6D21FM2Gra7OT29_3_" class="st0" d="M202.9,200.4c-1.1,13-7.1,24.8-16.6,34.9c-3.7,3.9-6.5,8.5-12.5,10.1
		c-12.8,3.4-17.1-0.7-17.6-11.3c-0.4-8.6,1.9-15.8,9-22.1c10.6-9.3,21.8-17.9,32.1-27.5c2.5-2.3,4-1.3,4.4,1.5
		C202.3,190.4,202.5,194.9,202.9,200.4z"/>
	<path id="XB6D21FM2Gra4OT28_4_" class="st0" d="M377,107.9c-1.1,15.2-7.7,26.8-20.2,35.6c-6.1,4.3-12,8.2-19.1,10.4
		c-4.3,1.3-8.8,2.6-12.2-0.9s-4.7-9.6-2.9-15.3s5.8-9.2,10-12.6c9.3-7.5,19.7-13.6,29.7-20c1.3-0.7,2.5-1.6,3.7-2.5
		c2.4-2.1,5.4-3.7,8.1-2.5S376.9,105.2,377,107.9z"/>
	<path id="XB6D21FM2Gra3OT28_9_" class="st0" d="M286.3,103.9c0-12.5,6.8-21.9,14.6-30.7s8.8-7.6,10.9,2.7c2.7,12.9,8.3,25.4,7.2,39
		c-0.7,8.2-4.6,14.8-9.4,21.1c-2.2,2.9-10.8,1.3-13.8-2C288,125.5,287.1,114.8,286.3,103.9z"/>
	<path id="XB6D21FM2Gra3OT28_8_" class="st0" d="M131.9,188.6c-12.9-0.6-22.5-6.9-30.7-16.7s-11.7-19.8-13.4-31.4
		c-0.3-1.8-0.9-3.8,0.9-5s3.6,0.2,5.1,1.1c9.4,5.6,18.6,11.5,28.1,16.9c6.1,3.5,11.7,7.4,15.2,13.6c2.3,4.2,4.4,8.6,6,13.1
		c1.5,4.2-2.8,8.6-8.2,8.8C133.9,188.9,132.9,188.8,131.9,188.6z"/>
	<path id="XB6D21FM2Gra7OT29_2_" class="st0" d="M157.1,285.2c0.5-8.8,5.4-15.5,11.2-21.5s13.8-13,20.7-19.5c3.1-3,5.1-2.6,7,1.5
		c2.3,4.9,3.1,10.3,2.4,15.6c-0.9,8-3.3,15.7-7.1,22.7c-4.6,8.5-12.4,14.9-21.7,17.8c-3.1,1-8.1-1.2-9.5-4.5
		C158.7,294,156.9,289.6,157.1,285.2z"/>
	<path id="X009E41M2Gra6OT27" class="st0" d="M209.9,566.5c2.7-9.8,4.9-19.7,8.1-29.3c2.6-7.8,6.3-15.3,9.6-22.9
		c5.6-12.8,12.4-25,18.8-37.4l7-13.8c2.7-5.3,6.9-9.3,11.4-13c2.3-1.9,5.6-1.9,7.9,0.1c2.6,2,1,4.4-0.4,6.6
		c-6.1,10.2-12.1,20.4-19,30.2c-5.4,7.7-9.3,16.8-12.6,25.9c-4.3,11.8-9.6,23.2-14.6,34.8c-3.3,7.7-6.2,15.7-9.7,23.3
		c-0.5,1.1-1,2.2-2.4,2.2c-1.2,0-2.3-0.8-2.7-1.9C210.6,569.8,210.1,568.2,209.9,566.5z"/>
	<path id="XB6D21FM2Gra4OT28_3_" class="st0" d="M285,299.8c-2,0-4,0.1-6,0c-5.4-0.4-8.7-4.5-8-9.8c1.5-12.1,9.4-18.5,20-22.3
		s19.5-6.5,29.3-9.7c1.9-0.6,4-1.6,5.7,0.1s1.4,4.8,0.9,7.2c-3.4,18.9-16.9,28-33.4,34.1l-1.5,0.3L285,299.8L285,299.8z"/>
	<path id="XB6D21FM2Gra7OT29_1_" class="st0" d="M147.4,344.6c0.1,8.9-3.6,12.3-11.4,10.9c-6.1-1.1-11.6-4.1-15.9-8.6
		c-12.3-12.3-16.2-28.1-19.2-44.2c-0.6-3.4,1.3-4.2,4.2-3.1c15.7,6.1,29.2,15.2,38.2,29.7C146.1,333.9,146.7,339.8,147.4,344.6z"/>
	<path id="XB6D21FM2Gra4OT28_2_" class="st0" d="M317.9,202.2c-4.3-0.9-9,0.9-11.3-4.3s-0.3-12.3,3-17.8s10-8.7,15.8-11.7
		c8.8-4.6,17.9-8.8,26.9-13c3.8-1.8,6.9,1.4,6.4,6.4c-1.1,12.1-7.2,21.4-15.9,29.5S327.6,202.5,317.9,202.2z"/>
	<path id="XB6D21FM2Gra3OT28_7_" class="st0" d="M284.9,187.9c-10.3,0-18-6.4-19.8-16.4c-2.3-13.2-2.5-26.5-4.1-39.7
		c-0.4-3.3,1.7-4.5,4.8-3c15.5,7.7,26.1,19.3,30.3,36.7c1.3,5.4,1.3,9.9-0.6,14.9S290.8,187.9,284.9,187.9z"/>
	<path id="XB6D21FM2Gra3OT28_6_" class="st0" d="M134.1,232.8c-12.5-0.1-20.9-6.7-29-14.9s-8.7-19.3-9.6-29.9
		c-0.2-2.4,1.1-4.4,3.5-3c14.4,8.7,29.9,15.9,42.3,27.7c4.7,4.5,4.2,10.5,2.5,15.9S137.9,233.2,134.1,232.8z"/>
	<path id="XB6D21FM2Gra3OT28_5_" class="st0" d="M429.2,250.7c-0.9,14.6-6.3,27.5-16.6,37.8c-7.1,7-16.6,3.4-19.6-6.2
		s0.5-19.5,8.4-26.7s13.9-12.6,20.9-19c2.3-2.1,3.6-0.6,4.6,1.3C429.1,241.9,428.7,246.3,429.2,250.7z"/>
	<path id="XB6D21FM2Gra3OT28_4_" class="st0" d="M227.2,248.3c0.3-2.4,0.6-6.2,1.1-10s2.3-4.3,5.6-3.1c11.2,3.9,17.7,12.6,22.9,22.5
		c5.2,9.9,5.2,19.3,1.6,29.4c-1.2,3.4-2.9,4.2-6.4,3.1c-18.9-5.8-23.4-20.8-24.7-37.9C227.3,251.4,227.3,250.6,227.2,248.3z"/>
	<path id="XB6D21FM2Gra4OT28_1_" class="st0" d="M361.8,369.3c-3.8-0.4-7.9,1.3-11.2-2.4c-5.3-5.9-3-17.2,4.6-20.8
		c14.3-6.9,29.9-8.1,45.4-9.6c3.4-0.3,3.5,2.3,3,4.8c-1.6,7-5.6,13.3-11.3,17.7C383.5,365.9,373.3,369.8,361.8,369.3z"/>
	<path id="XB6D21FM2Gra4OT28" class="st0" d="M299,453.8c-1.4-0.1-2.8-0.3-4.2-0.5c-11.6-2.8-13.6-4.5-6.9-15.7
		c7.6-12.9,20.5-18.3,35.3-18.7c4.3,0,8.6,0.4,12.9,1.1c3.1,0.4,4.5,1.9,2.6,5.1c-5.6,9.4-11.4,18.6-21.8,23.8
		C310.9,451.9,304.6,452.4,299,453.8z"/>
	<path id="XB6D21FM2Gra7OT29" class="st0" d="M197.9,307.9c-0.8,12-2.9,23.6-12,32.7c-2.7,2.7-4.8,5.9-8.1,8s-8,4.2-12.2,2.1
		s-6.4-6.5-6.7-11.5c-0.7-10.8,4.2-18.2,14-23.5c6.7-3.7,12.7-8.7,19-13.3c1.4-1,2.2-3.3,4.5-2.3s1.8,3,1.8,4.8
		S197.9,306.9,197.9,307.9z"/>
	<path id="XB6D21FM2Gra3OT28_3_" class="st0" d="M287.4,413.6c-0.8,9.9-4.2,17.7-11.3,23.5c-3.5,2.9-7.9,2.1-11-1.1
		c-5.2-5.2-6.5-11.5-5.9-18.3c1.3-14.4,6.3-27.3,16.1-38.1c2-2.2,3.4-1.8,4.9,0.8c2.5,4.2,2,9,3.2,13.5
		C285.3,400.6,286.2,407.6,287.4,413.6z"/>
	<path id="XB6D21FM2Gra3OT28_2_" class="st0" d="M279.2,223c-0.1,5.5-3,10-7.9,13.5s-10.2,1.9-14.2-1.4s-6.9-6.2-8.4-10.8
		c-3.2-9.4-6.7-18.7-10-28.1c-0.9-2.5-0.4-4.8,2.7-4.3c14.6,2.2,27.7,7,35.3,21C278.5,216,279.4,219.5,279.2,223z"/>
	<path id="XB6D21FM2Gra4OT29" class="st0" d="M291.9,371.6c0.2-13.7,5.8-25.3,14.7-35.4c3.5-3.9,5.6-3.4,7,1.7
		c2.4,9.6,5.7,19.1,5.2,29.1c-0.4,7.5-2,14.8-8,20.3s-11.1,4.4-15.4-1C292.5,382.8,291.8,379.6,291.9,371.6z"/>
	<path id="X95C61BM2Gra1OT26" class="st0" d="M339,407.9c-4.9-0.3-10,0.2-14.3-3.2c-2.2-1.5-3.5-4.1-3.2-6.8
		c0.5-7.8,3.9-11.6,11.3-14.3c12-4.4,24.7-2.9,36.9-5.1c3.5-0.6,4.4,1.7,3.4,5.1C369.1,397.5,353.2,408.8,339,407.9z"/>
	<path id="XB6D21FM2Gra3OT28_1_" class="st0" d="M244.2,326.5c0.9,6.3-2.6,11.2-6.9,15.9c-2.5,2.8-4.8,2.4-7.4,0.5
		c-5.9-4.2-9.7-9.9-12.4-16.4s-4-15.4-3.9-23.4c0.1-5.9,4.4-9.8,7.7-14.1c1-1.3,2.6,0,3.1,1.2c4.6,9.1,12.7,15.8,17.3,24.9
		C243.5,318.7,244.9,322.1,244.2,326.5z"/>
	<path id="XB6D21FM2Gra8OT29_2_" class="st0" d="M348.3,318.2c-0.6,10.5-2.3,21.7-10.6,30.8c-2.6,2.8-4.5,2.6-7.2,0.8
		c-7.1-4.8-8.6-12.2-8.2-19.8c0.7-12.2,4-23.6,13.1-32.5c1.9-1.9,3.8-4.4,6.6-4s2.2,4,3.1,6.2C347.3,305.6,348.4,311.9,348.3,318.2z
		"/>
	<path id="XB6D21FM2Gra8OT29_1_" class="st0" d="M354,295.8c-0.3-3.3,1.3-6.1,2.4-9.1c3.1-8.6,6.5-17.1,9.8-25.5
		c1.6-4.1,3.4-4.3,6.5-1.3s4.8,7.9,6.3,12.3c3.5,10.3,1.7,20.4-2.7,30c-2,4.5-6.4,7.3-10.9,9s-10.9-3.1-11.1-8.4
		C354.3,300.4,354.1,298.1,354,295.8z"/>
	<path id="XB6D21FM2Gra8OT29" class="st0" d="M388.8,330.2c-3.9-0.4-7.6-1.5-11.1-3.2c-3.6-1.8-4.2-5.3-2.1-8.9
		c3.6-6.3,9.3-11.1,16-13.7c9.6-3.9,19.5-5.3,29.8-3.2c4.7,0.9,6.2,4.7,2.6,7.8c-9.3,8-18.6,16.1-30.4,20.3
		C392,329.7,390.4,330,388.8,330.2z"/>
	<path id="XB6D21FM2Gra3OT28" class="st0" d="M294.1,316.5c-1.5,14.6-13.3,27.4-26.3,31.3c-4.1,1.2-7.8-1-11.8-0.8
		c-1.7,0.1-2-2.1-2.1-3.5c-0.7-6.2,1.8-11.3,5.9-15.8c6.4-7.1,15.3-9.5,23.6-13.2c1.9-0.7,3.8-1.3,5.7-1.8
		C294.5,311.1,294.5,311.1,294.1,316.5z"/>
</g>
</svg>
