<?xml version="1.0" encoding="utf-8"?>
<!-- Generator: Adobe Illustrator 21.0.0, SVG Export Plug-In . SVG Version: 6.00 Build 0)  -->
<svg version="1.1" id="图层_1" xmlns="http://www.w3.org/2000/svg" xmlns:xlink="http://www.w3.org/1999/xlink" x="0px" y="0px"
	 viewBox="0 0 615.8 766.4" style="enable-background:new 0 0 615.8 766.4;" xml:space="preserve">
<style type="text/css">
	.st0{fill:#FFFFFF;stroke:#000000;stroke-miterlimit:10;}
</style>
<title>Anime10_13_230</title>
<g>
	<path id="XEC2AFFM2Gra2OT32" class="st0" d="M497.8,660.4c2.9,0.5,3.8-1.5,5.1-2.6c6.5-5.5,12.4-6,18.6-1.6s6.7,10.5,3.5,17.6
		c-4.5,9.9-12.2,16.4-22.3,20.2c-1.8,0.7-4.6,0.5-4.9,2.8s2.7,3.1,4.3,4.2c9.7,6.1,15.3,4.9,24.3-2.3s11.7-16.7,17-25.4
		s11.4-15.3,21.4-17.4c10-2.1,19.1,5,18.1,16.3c-1.5,15.9-13.3,25.2-27.1,21.5c-1.9-0.6-3.7-1.5-5.2-2.8c-0.8-0.6-1.8-1.1-2.8-0.5
		s-0.8,2-0.5,3.1c2.4,9.5,11.9,13.9,22.4,10.3c9.6-3.2,18.2-8.8,24.9-16.3c1.2-1.3,2.5-3.5,4.4-1.8s-0.4,3.2-1.5,4.5
		c-8,9.2-16,18.4-26.9,24.3c-12.7,6.9-25.2,4.2-31.9-6.8c-0.9-1.4-1.5-3-1.8-4.6c-0.2-1.3-0.1-2.9-1.8-3.2s-2.5,1.2-3.2,2.6
		c-2.4,4.8-5.7,9-9.7,12.5c-10.3,8.5-21,1.6-27.3-6.7c-2.6-3.5-4.3-7.5-5.2-11.8c-0.2-0.9-0.4-2.2-1.7-2.1c-1.3,0.1-1.2,1.4-1.4,2.3
		l-3,14.1c-0.9,4.2-2.8,7.9-7.6,7.8c-4.8-0.1-7.6-2.4-7.1-7.7c0.1-0.8-0.1-1.8-1.1-2s-2.3,1-3.1,2c-5.1,6.1-11.6,7.1-17.6,2.8
		c-2.3-1.6-3.5-4-4.6-6.4s-0.2-4.3-2.3-4.5c-2.1-0.2-2.4,2.8-3.4,4.3c-1.3,2.2-3,4-5,5.5c-8.1,5.2-16.4,0.1-17.1-10.4
		c-0.1-2,1.5-4.9-1.2-5.7s-3.2,2.5-4.6,4c-7.1,7.4-14.6,14-24.8,17.1c-13.3,4-26.4-4.1-28.3-17.7c-0.2-1.1,0.3-2.6-1.1-3
		s-2.1,0.7-2.9,1.6c-7.5,8.6-17.2,13.4-28.1,16.3c-6.6,1.8-13.8-3.8-13.6-10.7c0-1.2,0.1-2.6,1.3-3c1.2-0.4,1.7,1.1,2.2,2.1
		c3.5,7.1,6.6,8,11.9,2.3c8.8-9.3,12.6-20.9,13.5-33.5c0.3-2.9-1.2-5.8-3.9-7.1c-2.6-1.3-4.5,0.9-6.2,2.3
		c-9.9,8.9-18,18.9-21.1,32.4c-3.8,16.3-7.6,32.7-14,48.3c-2.9,7-6.9,13.3-13.8,17.2c-5.2,2.9-9.9,0.6-10.3-5.3
		c-0.6-8.4,2.5-16.1,5.4-23.7c2.9-7.6,5.5-15.3,10.4-22c0.6-0.8,1.7-2.1,0.6-3.1s-2.4,0.3-3.4,1.1c-6.3,5.1-9.9,5.4-14.9,1.6
		c-1.6-1.2-2.8-2.9-3.2-4.8c-0.3-1.5,0.1-3.8-2.1-4s-2.5,2-3.4,3.3c-2.8,4.2-6.6,7-11.8,7.6c-7.9,0.9-14.3-4.8-14.9-13.1
		c-0.1-1.7,1.1-4.1-1.2-4.8s-2.9,1.8-4.3,2.9c-16,12.5-33.7,18.3-53.6,11.7c-10.8-3.6-16.1-13.1-18.2-23.9
		c-4.8-24.6,2.9-46.1,18.9-64.2c13.1-14.9,30.4-21.9,50.8-17.1c20.4,4.8,22,23.4,9.3,37.3c-4.9,5.4-11.4,8.7-18.2,11.1
		c-1.9,0.6-3.9,0.9-5.9,0.8c-3.1,0-4.6-2.6-5.8-4.9c-1.2-2.3,0.4-4.1,2.1-5.6c3.4-3.2,8.1-3.7,12.1-5.7c5.8-2.9,11.1-6.5,12.6-13.3
		c2.3-10.3-8-18.9-19.2-17.5c-17.4,2.2-26.4,14.2-33.9,27.9c-8.7,15.9-11,33-8.2,50.8c2.1,13.2,13.4,20.9,29,19.8
		c15.6-1.1,26.3-7.8,34.3-19.7c3.8-5.6,5.1-12.9,7.7-19.4c1.3-3.9,3.1-7.6,5.1-11.2c2.9-4.7,6.7-6.2,10.8-3.9s5.1,7.2,2.7,12.1
		c-5.5,11.1-11.9,21.9-14.6,34.3c-0.5,2.5-1.6,5.1,1.3,6.7c2.9,1.6,5.3,0.6,7.4-1.2c6-5.3,10.4-11.4,11.8-19.6
		c1.6-9.3,4.3-18.4,7.9-27.2c1.9-4.8,5.7-6.5,9.4-4.9c3.7,1.6,5.8,5.8,3.7,10.8c-4.9,11.7-9.9,23.5-12.1,36.3
		c-0.3,2-1.2,4.1,0.9,5.5s3.5-0.8,5-1.9c5.2-4,9.2-9.2,13.5-14c2.1-2.4,3.5-5.3,4.1-8.4c1.6-7.8,3.4-15.6,5.1-23.4
		c0.8-3.8,4.3-6.4,7.6-5.5s5.9,3.8,5.4,7.8s-1.6,7.5-2.4,11.2c-0.3,1.2-0.9,2.9,0.8,3.4c1.7,0.5,1.8-1.1,2.5-2
		c2.2-3.1,4.3-6.4,6.6-9.4c4-5,8.6-9.3,15.6-7.6s10.6,8.3,11.9,15.2c1.5,8-0.3,16.2-5,22.8c-0.7,1-2.2,2.4-0.8,3.4s2.1-1,3-1.7
		c5.2-4.2,8-10.1,10.7-16c4.3-9.3,10.1-17.2,19.2-22.3c7.1-4.1,15.5-3.2,20.6,2.2c7.4,7.8,4.6,24.9-4.9,29.8
		c-3.5,1.8-8.6,1-10.4-1.8s-2.1-6.8,1.3-9.7c1.1-0.8,2-1.8,2.7-3c1.6-3.1,3.8-6.5,0.6-9.6c-3.2-3.1-7-2.7-10.6-0.6
		c-3.6,2.1-7,6.5-8.8,11.2c-2.3,6.1-2.5,12.9-0.5,19.1c2.3,7.7,10.2,10.7,19.4,8.1s18.1-8.1,25.6-15c3.6-3.4,4-8,5.6-12.1
		c2.9-7.4,6.7-14.2,13.1-19.1c9.5-7.3,17.9-5.1,25.6,2c4,3.7,3.5,7.8-1,10.9c-2.1,1.4-2.6,2.4-0.8,4.2c3.4,3.2,2.8,6.8,1.4,10.6
		c-2,5.3-3.8,10.7-4.1,16.4c-0.1,1.9-0.5,4.3,1.9,5.2s3.8-0.5,5.3-1.9c9.7-9.3,15.3-20.7,17.7-33.9c2.8-14.9,6.8-29.5,11.9-43.8
		c2.3-7,6.1-13.4,11.1-18.7c1.7-1.8,3.8-3.2,6.2-4.1c4.1-1.4,7.3,0.4,8,4.8c0.7,5.3,0.2,10.7-1.6,15.8c-3.6,11.6-7.9,23-14.7,33.2
		C498.1,659,497.9,659.7,497.8,660.4z M422.9,699.8c0,3-0.7,5.9,2.1,7.2s5-1.3,6.6-3.2c5.5-6.5,9.4-14.1,11.5-22.3
		c0.9-3.1,1.3-6.2,4.5-7.9c1.5-0.8,1.3-2,0.3-3.3c-2.8-3.8-9.2-4.2-12.2-0.6C428.3,678.5,423.8,688.7,422.9,699.8z M569.5,671.6
		c0.2-5.6-2.3-7.9-7.8-7.4s-14.4,10.5-13.7,16.9c0.2,2.2,1.6,3,3.3,3.9C558.4,688.7,570.2,681.9,569.5,671.6L569.5,671.6z
		 M493.6,691.7c1-0.2,2.3-0.4,3.5-0.8c9.4-2.9,14-10.2,16.6-19c0.5-1.6,1.3-3.4-0.5-4.5s-3.6-0.3-5.1,0.8
		c-6.4,5.3-12.7,10.7-17.9,17.3c-1,1.3-2.3,2.7-1.5,4.5S491.6,691.4,493.6,691.7L493.6,691.7z M273.9,755.3c0,1.7,0,3.1,1.2,3.5
		s2.6-0.7,3.1-1.8c1.4-2.8,2.6-5.7,3.6-8.7c2.1-6.7,4-13.4,5.9-20.1c0.3-1.1,0.6-2.5-0.8-3.1s-2,0.9-2.5,1.8c-1.5,2.6-2.8,5.3-4,8
		C277.6,741.7,274.8,748.5,273.9,755.3z M511.6,614.8c-0.2-1.7,0-3.3-1.7-3.7c-1.5-0.4-3.1,0.6-3.5,2.1c-0.6,1.5-0.9,3.2-1.4,4.8
		c-2.4,7.7-4.9,15.5-7.2,23.2c-0.4,1.2-0.9,2.7,0.8,3.4s1.6-0.3,2-1C505.5,634.5,509.2,624.8,511.6,614.8z"/>
	<path id="XFF99FFM1Gra4Co8_4_" class="st0" d="M266,338.5c4.8,0.3,9.2,2.2,13.5,4.5c8.1,4.5,15.3,10.6,23.8,14.5
		c1.7,0.8,2.8,2.5,2.8,4.4c1.5,16.3,3.1,32.5,4.7,48.7c2.6,26.5,5.2,53,7.8,79.5c1.3,13.9,2.3,27.9,3.7,41.8
		c1.8,18.4,3.9,36.7,5.9,55.1c0.6,5.9-0.2,6.7-6.1,6c-13.1-1.4-26.1-2.9-38.9-6.4c-4.5-1.2-6.1-3.4-6.7-8.3
		c-1.6-12.9-4.1-25.6-6.4-38.4c-3.3-17.7-6.8-35.3-10.1-53c-3-15.5-5.6-31.1-8.8-46.6c-5.1-24.8-9.5-49.7-13.7-74.6
		c-1-5.7-2.1-11.5-3.2-17.2c-0.5-2.7,0.2-4.8,3.1-5.3C246.8,341.5,256.1,338.9,266,338.5z"/>
	<path id="XFF99FFM1Gra4Co8_3_" class="st0" d="M401.4,593.3h-11c-2.4-0.1-4.5-0.9-4.1-3.8c2.2-15.1,2.7-30.5,4.5-45.6
		c3.5-29.4,6.9-58.8,10.6-88.2c3.7-29.4,8.1-60.7,10.4-91.2c0.7-8.7,3.9-13,11.5-16s16.2-7.8,24.2-11.8c2.7-1.5,5.8-1.6,8.6-0.3
		c6.9,2.9,13.9,5.5,21,8c3.3,1.2,4.2,3.1,3.6,6.5c-2,12.8-4.7,25.5-7.2,38.2s-4.2,23.9-6.4,35.9c-3.3,18.2-6.6,36.3-9.9,54.5
		c-5.4,29.6-10.8,59.2-16.1,88.8c-1,5.2-2.4,10.4-3.3,15.6c-0.6,3.7-2.5,5.4-6.1,6C421.7,591.6,411.6,592.8,401.4,593.3z"/>
	<path id="XFF99FFM1Gra4Co8_2_" class="st0" d="M359.5,594.1c-5.2,0.3-10.4,0.1-15.5-0.6c-2.8-0.3-4.4-1.5-4.7-4.7
		c-3.7-42-7.5-83.9-11.1-125.9c-2.9-34.2-5.4-68.4-8.3-102.6c-0.3-3.6,0.6-5.5,4.1-6.8c11-3.9,21.8-8.3,32.3-13.3
		c2.3-1.1,4.3-1.6,6.7-0.8c11.4,4.1,23,7.5,33.8,13.3c2.9,1.6,3.7,3.3,3.4,6.3c-2.4,23.8-5.3,47.7-7.9,71.5c-3,26.3-5.1,52.7-8,79
		s-6.2,51.9-8.1,78c-0.4,4.9-2.7,6.8-7.3,6.7L359.5,594.1z"/>
	<path id="XFF99FFM1Gra4Co8_1_" class="st0" d="M552,321.6c-0.6,11.6-4.6,22.5-6.7,33.8c-2.9,16.2-6.9,32.2-10.4,48.3
		c-5.4,24.5-10.8,49.1-16.1,73.6c-3.5,16.3-6.8,32.5-10.1,48.8c-2.9,14-5.6,28-8.3,42.1c-0.3,2.7-2.3,5-5,5.6
		c-13,3.5-25.7,8.2-38.8,11.1c-5.6,1.2-6.2,0.4-5.1-5.5c3.1-17.2,5.9-34.4,9-51.6c4.3-24.4,8.6-48.8,13-73.2
		c3.5-19.7,7-39.3,10.6-59c2.2-12.3,5.6-24.3,6.4-36.8c0.4-5.5,1-10.9,1.2-16.4c0-3.6,1.9-6.9,5-8.6c8.6-5.1,17.3-10,25.4-15.8
		c1.6-1.2,3.3-1.1,5.2-0.8c4.4,0.8,8.9,1.4,13.3,1.9c4.4,0.5,5.9-0.5,5.1-4.9c-0.4-1.9-1.1-4.6,1.4-5.1s3.4,2.1,4.2,4.1
		C552.1,315.9,552.3,318.8,552,321.6z"/>
	<path id="XFFCC00M1Color2_4_" class="st0" d="M389.8,265.3c0.3-17.7-10.2-29.1-23-39.2c-5-4-10.7-6.7-16.5-9.2
		c-3.5-1.5-5.5-3.7-5.6-7.9c-0.3-7.6-5.8-12.1-10.8-16.7c-2.6-2.3-5.5-4.3-8.6-5.9c-3.8-2-4.2-4.9-2.9-8.4
		c3.5-9.8,10.6-16.8,18.5-23c2.1-1.6,4-0.7,6,0.5c6.3,3.8,12.8,7.1,19.6,9.9c6.3,2.6,12.8,3.3,19.6,3.2c3.4-0.1,5.5-2.2,7.7-4.1
		c2.2-1.9,6.5-3.2,10-0.7c11.5,8.1,17.7,19.5,20.1,33.1c0.3,2-0.1,4.1-1.1,5.8c-2.2,3.8-0.8,5.9,3,7.7c9.9,4.9,18.3,11.4,22.8,22.1
		c1.6,3.8,2.3,8,2.2,12.1c-0.1,3.4,1.2,5.6,3.6,7.7c6.5,5.8,11.8,12.8,14.7,21.1c4.1,11.7,0.1,21.3-11.4,26.1
		c-8.9,3.7-18.1,6.2-27.3,0.6c-1.2-0.6-2.6-0.8-3.9-0.8c-11.1-0.7-19.9-5.4-26.1-14.8c-1.4-1.9-3-3.6-4.7-5.1
		C389.7,273.5,389.7,273.5,389.8,265.3z"/>
	<path id="XFFCC00M2Color2" class="st0" d="M217,276.4c6.6-0.9,11,1.3,14.6,7.5c5.7,9.9,15.2,15.5,26.5,16.6
		c6.1,0.6,11.2,2.7,16.3,5.5c15.5,8.4,31.5,8.5,47.7,2.5c3.5-1.3,6.3-1,9.5,0.2c17.9,6.3,36,9.3,54.9,4.8c6-1.5,11.6-4.3,16.3-8.4
		c2-1.7,3.7-2.5,6.3-1.2c2.6,1.3,5.2,0.8,7.9,0.9c4,0,8,0.8,11.7,2.2c16.8,6.6,32.6,4.9,46.8-6.7c2.5-2.2,5.7-3.3,9-3
		c10.1,0.4,20.3,1.2,29.9-3.5c5.7-2.7,10.3-6.2,10.4-13.3c0.1-3.2,1.9-4.2,4.7-3c8.6,3.7,16,13.8,6.6,24s-19.4,11.5-30.7,12.8
		c-5.6,0.6-9.8,1.6-13.1,7c-5.4,9-22.5,13-33.5,8.3c-5.4-2.3-10.5-3.1-16,0.5c-3.9,2.5-8.8,2.8-13,0.9c-2.3-1.2-5.1-0.8-6.8,1.1
		c-7.8,7.7-17.6,9.8-28.1,9.1c-10.3-0.7-20.5-3-30.1-6.7c-4.4-1.7-8.5-2.6-12.7,0.7c-2.1,1.6-4.9,1.8-7.2,0.7
		c-3.2-1.3-5.7-0.5-8.4,1.3c-9.3,6.4-19.6,7.8-30.5,6.1c-10.9-1.7-23.8-4.6-34.3-11.3c-2-1.3-4.1-1-6.3-0.4
		c-8.2,2.5-15.7,3.5-24.7,0.5s-18.6-5.6-27.3-10.2c-7.4-3.9-13.6-9.9-17.7-17.2c-6.8-11.9,0.6-25.7,14.8-27.8
		C212.6,276.6,214.8,276.6,217,276.4z"/>
	<path id="XFF99FFM1Gra4Co8" class="st0" d="M190.9,323.9c6.4-1.5,10.6,2.5,14.6,6.9s7.2,8.8,11.9,12c1.5,1,1.9,2.6,2.2,4.3
		c4.2,22.6,8.2,45.2,12.5,67.7s9.1,42.6,12.9,64.1c2.9,16.5,6.6,32.9,9.6,49.4c3,16.5,6,32.4,9.3,48.5c0.3,1.4,1.2,2.9,0,4.2
		s-3,0-4.5-0.3c-5.5-1.2-11.1-2.4-16.6-3.4c-9.7-1.6-9.7-1.6-11.9-10.8c-5.1-21.2-10.6-42.3-15.4-63.6c-10-44.3-21-88.4-31.9-132.4
		c-3.1-12.4-6.8-24.7-10.2-37c-1.9-7-4-14,2.7-19.9c1.5-1.4,3.2-2.4,5.1-3.1c1-0.3,2-0.4,2.7,0.5c0.6,0.9,0.4,2-0.3,2.7
		c-2.1,2.1-4.1,4.5-2.2,7.4S187.2,323.7,190.9,323.9z"/>
	<path id="XFFCC00M1Color2_3_" class="st0" d="M331.2,289.1c0.1-16.9-6.5-30.3-21.2-39.3c-3.9-2.4-6-5-6.7-10
		c-1.7-13.5-11.7-20.1-23.2-25.1l-5.1-2.1c-6.2-2.7-6.4-3.1-3.4-9.4c4.8-10.1,17-16.7,28.7-14.7s21.9,6.6,29.5,16.2
		c3.2,3.9,5.3,8.6,6.1,13.5c0.5,2.9,1.7,4.2,4.6,5c22,5.8,38.6,27.9,37.8,50.5c-0.2,2.4,0.9,4.6,3,5.8c4.2,2.8,7.9,6,10.4,10.6
		c3.7,6.6,2.1,10.8-5,13.8c-4.9,2-10.2,1.5-15.2,2.3c-10.7,1.7-21.2,0.9-31.3-3.2S331.1,299,331.2,289.1z"/>
	<path id="XFFCC00M1Color2_2_" class="st0" d="M491.6,290.9c-2-0.3-4.3-0.5-6.6-0.9c-2.3-0.4-3.7-1.9-3.2-5
		c1.8-10.6-0.8-21.5-7.2-30.1c-0.8-1.1-1.6-2.2-2.6-3.1c-5.5-5-7.7-10.9-8.4-18.6c-1.2-14.5-11-23.7-23.8-29.7
		c-5-2.4-6.1-6.5-3-11.2c4.4-7,12.9-10.2,20.9-8c13.1,3.8,23.7,10.6,28.2,24.4c0.8,2.6,2.9,2.9,4.9,3.7c12.4,4.8,23,11.9,30.4,23.2
		c5.2,8,4.2,16.2,0.6,24.2c-1.8,3.9-3.7,7.4-3.5,12.1c0.3,8.4-8.8,16.6-19,18.3C497,290.5,494.4,290.6,491.6,290.9z"/>
	<path id="XF37FFFM2Gra7OT19_1_" class="st0" d="M551.1,23.7c-1.8,15.5-10,30.4-22.2,43.4c-1.5,1.6-2.8,3.5-4.7,4.5
		c-9.2,5-10.6,7.5-19.4,0.9c-13.9-10.4-27.4-21.3-34.5-37.9c-5.9-13.9,0.3-29.4,13.7-33.3c8.3-2.4,17.2,1.1,21.5,8.6
		c2.8,4.8,3.1,4.8,6.1-0.1c4.7-7.7,15.7-11.5,25-8.6C545.9,4.1,551.5,11.7,551.1,23.7z"/>
	<path id="XF37FFFM2Gra7OT19" class="st0" d="M542.2,120.6c0.1-5.7,0.8-11.2,3.3-16.5c5.8-12.2,19-17.3,31.3-11.7
		c6.1,2.8,9.5,7.7,11,14c0.7,2.8,1.9,4,5,4.3c10,1.1,17.9,6.1,21.5,15.5s-0.2,19.8-8.2,26.8c-12.1,10.6-26.6,15.3-42.6,15.7
		c-5,0.1-7.5-1.8-9.6-6.6c-4.4-9.9-7.9-20.1-10.4-30.6C542.7,128,542.6,124.3,542.2,120.6z"/>
	<path id="X3FD6FFM2Gra1OT21_10_" class="st0" d="M122.9,183.4c4.1,0.2,4.5-0.6,2.9-4.8s-4.1-9-3.7-14.3s4.3-9.3,9.8-9
		c3.8,0.3,7.5,1.7,10.6,3.9c10,6.6,18.8,14.9,28.3,22.2c1.8,1.4,3.5,3.1,5.7,1.7s2.9-3.9,2.6-6.6c-0.8-6.4-4.8-11.3-7.6-16.7
		c-0.3-0.6-0.9-1-1.2-1.6s-1.6-2.9,0-4s2.7,0.5,3.6,1.7c5.7,8,10.4,16.7,14.1,25.8c1.6,3.6,0.9,7.8-1.8,10.7c-2.3,2.8-5,3.7-8.4,2.7
		c-4.6-1.5-8.9-3.8-12.7-6.7c-8.4-6-16.6-12.2-24.9-18.4c-2.2-1.6-4.7-2.5-6.9-1.1s-0.8,4-0.3,5.9c2.9,11.8,11.2,19.8,19.8,27.5
		c6.6,5.8,13.3,11.6,20.1,17.2c2,1.7,3.1,3.4,2.3,6.1c-0.8,2.7-0.1,3.3-1.7,4c-1.6,0.7-2.9-0.9-4.2-1.9
		c-11.4-9.5-22.7-19.1-34.2-28.3c-2.7-2.2-6-5.9-9.6-3.4s-1.2,6.8-0.2,10.1c1.3,4.3,3.6,8.2,6.8,11.4c10.1,10.2,20.7,19.8,31.8,28.9
		c3,2.5,3.4,7,0.9,10c-0.1,0.1-0.2,0.3-0.4,0.4c-1.4,1.4-2.5,1.2-3.8,0c-16.2-15.3-33.5-29.4-50.5-43.8c-3.2-2.7-3.2-5.2-1.5-8.7
		s1.9-4.1,4.9-2.1s3.1,0.1,2.6-2.1s-1.8-6.8-1.1-10.4C115.7,186.1,117.6,182.6,122.9,183.4z"/>
	<path id="XFFCC00M1Color2_1_" class="st0" d="M300.6,305.3c-7-0.4-14.5-3.2-21.9-6.1c-1.4-0.6-1.7-1.7-1.3-3.3
		c8-26.1,2.5-43.6-19-59.8c-1.6-1.2-3.3-2.3-5-3.4c-6.3-3.9-6.3-5,0.3-8.8c12.4-7.1,24.7-1.6,33.7,9.5c3.4,4.2,6.4,8.9,6.4,14.8
		c0,2.3,1.6,3.5,3.4,4.5c12.3,7.5,19.6,18.6,23.6,32.2c2.6,9,0.5,13.7-8,17.7C309,304.5,304.8,305.4,300.6,305.3z"/>
	<path id="X3FD6FFM2Gra1OT21_9_" class="st0" d="M101.1,451.6c0,10.4-9.1,17.9-20,16.3c-15.8-2.3-30.2-8-41.1-20.4
		c-5.8-6.6-7.6-14.9-4.3-20.7c3.5-6.1,10.9-8.7,17.5-6.3c4.8,1.6,9.1,4.3,12.7,7.8c1.3,1.3,2.2,3,2.6,4.8c0.5,1.7-0.3,3.5-2,4.1
		c-2.1,0.8-3.6-0.4-4.6-2c-1.8-3.2-4.6-5.7-8-7.1c-3.1-1.5-6.8-0.7-9.1,1.8c-2.7,2.7-2.3,5.6-0.4,8.6c7.5,11.7,18.8,17,32,18.8
		c5.1,0.7,8.3-3,10.8-6.9S88,443,86,439.6c-6.9-11.8-17.3-20.6-26.8-30.1c-12.9-13-24.9-26.8-36.1-41.3
		c-8.2-10.6-13.6-23.1-15.6-36.3c-0.3-1.6-0.9-3.6,1.1-4.4s2.2,1.1,2.6,2.3c7.9,22.8,24,39.7,40.3,56.4
		c14.5,14.9,29.4,29.5,41.7,46.4C97.2,438.3,99.9,444.8,101.1,451.6z"/>
	<path id="XFF0033M1Gra3Co5" class="st0" d="M355.7,116.4c3.1-0.1,5.9,0.9,8.7,2.1c2.8,1.2,5,0.5,6.9-2c7.5-9.4,14.8-8.5,20.1-5.8
		c8,4.2,11.5,12,9.1,21c-2.2,7.9-5.1,15.5-8.6,22.9c-3,6.6-4.5,7.1-11.8,5.8c-12.2-2.3-24.2-5.1-33.6-14c-1.5-1.5-3-3.1-4.3-4.8
		c-3.8-4.9-6-10.3-2.8-16.2C342.6,119.5,348.8,116.7,355.7,116.4z"/>
	<path id="XFFCC00M1Color2" class="st0" d="M274.6,277.7c0.2,4.9-2,9.3-4.3,13.5s-5.6,3.5-8.7,1.9c-8.1-4.1-16.2-8.9-18.9-18
		c-1.7-5.7-4.6-9.6-8.8-13.5c-6.8-6.3-7.4-13.3-3.1-19.5c4.3-6.2,8.6-7.4,15.5-4.4c12.3,5.4,20.7,14.8,25.5,27.3
		C273.3,269,275,273.1,274.6,277.7z"/>
	<path id="X3FD6FFM2Gra1OT21_8_" class="st0" d="M114.4,395.3c-12.7-1.4-24.6-5.5-36.2-10.8c-15.9-7.3-31.6-14.9-44.8-26.7
		c-0.8-0.6-1.5-1.3-2.2-2c-1.1-1.4-1.6-3.1-0.2-4.5c1.4-1.4,2.7-0.4,3.9,0.6c7.4,6.2,15.8,10.9,24.3,15.6s17.9,8.7,27,12.7
		c1.3,0.6,2.9,1.8,4,0.2s-0.6-2.7-1.6-3.7c-8-7.5-16.3-14.8-23.3-23.3c-15.6-18.8-29.6-38.5-37.3-62.1c-0.3-1-0.7-1.9-1-2.8
		s-0.8-3.2,1.1-3.8c1.9-0.6,2.3,1,2.8,2.3c3,7,5.6,14.3,9.1,21c10.6,20,25.4,36.8,42,52.1c10.5,9.7,22.3,17.9,32.7,27.7
		c0.7,0.7,1.6,1.3,2.2,2s1.9,2.5,1.2,4.1S115.9,395.3,114.4,395.3z"/>
	<path id="X3FD6FFM2Gra1OT21_7_" class="st0" d="M104.1,56.5c2.7,0.7,5.2,2.1,7.2,4c8.9,7.9,16.1,17.3,23.6,26.4
		c11.6,14.1,23.4,28.1,35.1,42.2l1,1.1c0.9,1.3,2.9,2.6,1.3,4.2c-1.6,1.6-3.4,0.1-4.7-1.1c-15-13.4-30.8-26-45.6-39.6
		c-6.7-6-12.9-12.5-18.5-19.5c-2.5-3.2-4.8-6.5-5.1-10.7S100.8,56.5,104.1,56.5z"/>
	<path id="XFFB8B8M2Color20_1_" class="st0" d="M421.6,117c-0.9,3.1,0.6,4.8,3.8,5.4c0.6,0.2,1.2,0.4,1.8,0.7
		c12.3,4.8,13.5,12.7,3.4,21.4c-7.2,6.2-15.9,8.6-25.1,9.9c-4,0.5-4.7-0.8-3.1-4.6c4-9.4,6.2-19.2,5.6-29.6
		c-0.2-3.6-0.8-7.2-3.6-10.1s-1.3-4.3,1.5-5.3C411.9,102.7,422.1,110.4,421.6,117z"/>
	<path id="X3FD6FFM2Gra1OT21_6_" class="st0" d="M122.4,345.4c-0.4-2.7-1.4-5.4-2.9-7.7c-0.8-1.3-1.5-3,0-4s3,0.2,3.8,1.5
		c3.9,6.3,7.1,12.9,7.9,20.3c0.5,4.4-4,7.7-9.5,7c-2.8-0.4-5.5-1.2-8.1-2.4c-24-11.2-44.6-27-63.3-45.5c-2.5-2.5-4-6.1-5.9-9.2
		c-0.8-1.3-2.2-3.1-0.4-4.4s3,0.4,4.2,1.6c6.2,6.3,12.8,12.1,19.8,17.5c13,10.1,26.8,19.1,41.2,27.1c2.4,1.5,5.1,2.5,7.9,3
		C120.5,350.6,122.1,348.9,122.4,345.4z"/>
	<path id="X3FD6FFM2Gra1OT21_5_" class="st0" d="M95,254.5c0-2.5-0.1-3.5,0-4.5s-0.6-4.3,1.4-4.9c2-0.6,3.7,1.8,5,3.4
		s0.9,2.4,1.2,3.7c4.3,18.9,15.7,32.7,31.2,43.5c2.2,1.6,5.3,1.7,7.6,0.2c2.5-1.5,3.4-4.1,3.2-6.9c-0.3-2-0.7-3.9-1.3-5.8
		c-0.3-1.2-0.5-2.4,0.8-3.1c0.9-0.5,2.1-0.2,2.7,0.6c4.7,4.9,5,11.1,4.5,17.3c-0.5,6.2-3.9,9.3-9.3,10.5c-5.4,1.2-10.1-1.9-14.4-4.5
		c-13.7-8.3-22.4-21-29.7-34.8C95.3,264,95.2,258.5,95,254.5z"/>
	<path id="X3FD6FFM2Gra1OT21_4_" class="st0" d="M132.8,315.5c-0.1-1.2-0.9-3,1-3.6s3.2,0.8,4,2.3c1.5,3,2.5,6.2,2.9,9.5
		c0.9,6.7-4.4,10.7-10.8,8.3s-12.5-6.9-18-11.3c-9.7-7.8-20-14.8-28.4-24.2c-2.6-2.9-2.9-9.9-0.2-12.7c2.7-2.8,3.3,0.2,4.3,1.4
		c6.8,7.5,13.8,14.9,21.6,21.3c5.3,4.3,10.7,8.5,16.2,12.4c1.6,1.2,3.7,2.7,6,1.3C133.7,318.8,133.2,317.5,132.8,315.5z"/>
	<path id="X3FD6FFM2Gra1OT21_3_" class="st0" d="M159.8,270.8c0,6.5-5.1,9.8-10.4,6.6c-11.3-6.8-21.4-15.2-31.3-23.9
		c-5.1-4.5-10-9.3-15-13.9c-5-4.6-4.5-7-1.7-11.5c1.7-2.7,3-0.8,4.3,0.4c7.5,7.3,14.8,14.8,22.6,21.9c5.5,5,11,10.1,17.3,14.2
		c1.8,1.1,3.8,2.7,5.9,0.9s0.6-4-0.1-6s-3.6-4.1-0.9-5.5c2.7-1.4,3.5,2.1,4.8,4.1C157.7,261.9,159.3,266.3,159.8,270.8z"/>
	<path id="X3FD6FFM2Gra1OT21_2_" class="st0" d="M9.4,363c-0.8,7.1-1.8,14.2-2.5,21.3c-0.7,7.1,2,11,6.5,12.9
		c2.2,0.9,4.4,1.2,5.6-1.3s-1.2-2.9-2.8-3.7s-3.3-2.5-2.4-4.8c0.9-2.3,2.5-3.8,5.4-3.5c5.2,0.7,9.1,6.4,8.1,12.4s-6.6,10.9-12.2,9.7
		c-9.8-2-16.2-12-14.8-23.3c0.6-4.1,1.4-8.2,2.5-12.2c1.5-5.5,2.5-11,1.8-16.8c-0.2-1.4-0.7-3.5,1.4-3.6s2,1.9,2.3,3.3
		C9.1,356.5,9.4,359.8,9.4,363z"/>
	<path id="XFFB8B8M2Color20" class="st0" d="M332.1,149.5c-7.3-1.2-13.6-5.9-16.8-12.6c-1.7-3.4,0.8-5.1,2.8-6.6s7.5-4.4,7.3-9.8
		c0-1,1.5-2.1,2.4-3s2.5-2.8,4.3-1.6c1.8,1.2,0.3,2.7,0,4.1c-2.1,9-1.9,17.7,3.5,25.7c0.7,1,1.2,2.1,0.5,3.2
		C335.4,150,334.3,149.9,332.1,149.5z"/>
	<path id="X3FD6FFM2Gra1OT21_1_" class="st0" d="M55.7,260.7c0.1-3.8,3.5-5.9,6.5-3.7c5.3,3.8,8.5,9.3,10,15.6
		c0.4,1.7-0.3,3.4-1.7,4.4c-1.5,1.2-3.1,0.8-4.7,0.1C61.6,275.1,55.6,265.5,55.7,260.7z"/>
	<path id="X3FD6FFM2Gra1OT21" class="st0" d="M194.9,157.6c-5.1-0.2-13.2-7.6-13.7-12c-0.2-2.4,1-4.1,2.8-5.5s3.7-1.2,5.5,0.1
		c4.1,3,7.3,6.8,8.7,11.8C199.2,155.3,198.1,157.6,194.9,157.6z"/>
</g>
</svg>
