<?xml version="1.0" encoding="utf-8"?>
<!-- Generator: Adobe Illustrator 24.1.0, SVG Export Plug-In . SVG Version: 6.00 Build 0)  -->
<svg version="1.1" id="图层_1" xmlns="http://www.w3.org/2000/svg" xmlns:xlink="http://www.w3.org/1999/xlink" x="0px" y="0px"
	 viewBox="0 0 527 783" style="enable-background:new 0 0 527 783;" xml:space="preserve">
<style type="text/css">
	.st0{fill:#FFFFFF;stroke:#000000;stroke-miterlimit:10;}
</style>
<g>
	<path id="X4200A0M1Gra8OT23_5_" class="st0" d="M306.4,633.3c1.4,2.6-0.6,4.4-1.2,6.2c-7.3,22.4-22.7,38.3-42.1,50.7
		c-16.8,10.7-35.7,17.6-55.4,20.2c-27.4,3.7-54.6,2.8-81.4-5.9c-17.6-5.5-34.1-14.4-48.4-26c-14.2-11.7-26.2-25.8-35.4-41.7
		c-14-23.8-24.5-49-30.3-76.2c-3.4-15.6-6.5-31.3-9.1-47c-1.3-8.7-2-17.5-2.2-26.3c-0.6-17.5-1.1-35-0.6-52.5c0-1.3-0.6-2.9,0.7-3.7
		s2.3,0.8,3.4,1.5c11,7.3,21.5,15.3,33.5,20.8c15.1,6.9,30.9,12.4,47,16.4c17.1,4.4,34.5,7.5,52,9.3c19.8,2,39.8,3.2,59.7,2.4
		c12.6-0.5,25.1-1.9,37.8-2c9.6,0,19.2-1.2,28.9-1.2c10.1,0.1,20.2,1.3,30,3.8c13.1,3.2,21.5,11.8,26.9,24
		c6.9,15.6,7.5,31.7,5.1,48.3c-2.7,20.1-11.1,38.9-24.3,54.3c-9.4,11.1-22.1,17.5-35.2,23c-17.6,7.3-35.9,11-55,10.1
		c-17.4-0.9-34.1-4.5-48.7-14.3c-14.2-9.5-22.9-23.2-26.7-40c-0.2-0.9-0.8-2,0.2-2.8c1.4-1.1,2.5,0.1,3.5,0.8
		c6.9,4.5,13.7,8.8,22.1,10c14.1,1.9,39-8.2,42.3-26.2c1.2-6.7-0.8-12.6-4-18c-6.4-10.9-16.2-17.1-28.5-20.2
		c-16-4-31.7-3.8-46.8,2.9c-18.4,8.2-28.6,23.2-33.1,42.4c-4.3,18.3-3.3,36.4,3.8,53.9c3.8,9.3,9.5,17.5,16,25.2
		c15.7,18.6,36.2,29,59.5,34.2c19.3,4.3,38.5,2.9,57.7-1.7c21.9-5.3,38.7-18.6,54.7-33.4c7.4-6.8,14.6-13.6,21.9-20.4
		C305.1,633.8,305.7,633.5,306.4,633.3z"/>
	<path id="XF9D886M2Gra4OT15_1_" class="st0" d="M203.7,355c-2.5-5.9-4.8-11.8-7.5-17.5c-7.3-15.4-20.7-24.9-33.1-35.4
		c-8.1-6.9-16.4-13.5-23-22c-9.3-11.9-13.2-25.5-13.9-40.3c-0.6-11.5,0.8-23,4.3-34c4-12.9,11.9-23.4,22.2-31.9
		c15.6-13.1,33.9-19.9,54-22.5s39.8-1,58.7,6.8c26.8,11.1,42.1,31.5,46.4,59.7c3.6,23.4-1.8,45.3-16.8,63.6
		c-15.9,19.4-37,27.5-62.2,23.8c-14-2-26.6-7.3-37-17c-17-15.7-16.6-45.8,0.6-61.3c8.1-7.3,22.1-9.3,31.8-4.4c1,0.5,2.4,0.7,2.6,2
		c0.3,1.7-1.4,1.5-2.3,2c-10.7,6.6-13.3,18.3-5.6,26c3.1,3,6.9,4.3,11.4,2.8c5.9-1.8,11.3-4.9,15.8-9.1c10.9-10.3,9.9-22.4,2.3-32.8
		c-16.1-22-38.9-28.6-63.7-15.6c-21.6,11.3-32.4,34.7-23.4,60.2c5.1,14.6,14.3,26.6,22.8,39.1c5.5,8.1,10.3,16.7,14.4,25.6
		C207.3,333.4,206.8,344.1,203.7,355z"/>
	<path id="XDAA6B7M2Gra4OT11" class="st0" d="M215.1,393.2c13.1-0.6,29.8-0.1,46.4,0.8c30.9,1.6,61.6,5.3,91.6,13.2
		c0.8,0.2,1.6,0.5,2.4,0.8c0.8,0.3,1.7,0.8,1.5,1.8c-0.3,1.4-1.5,1.1-2.4,0.9c-11.2-1.9-22.4-2.7-33.6-4.1
		c-13-1.7-26.1-2.5-39.2-3.3c-18.8-1.2-37.5-1.9-56.3-1.4c-23.6,0.6-47.1,1.6-70.5,4.9c-23.4,3.3-46.6,7.9-69.5,13.8
		c-6.1,1.6-11.9,4.5-16.9,8.3c-3.7,2.8-6.4,6.2-5.8,10.9c0.8,5.4,5.8,7.3,10,8.8c13.9,4.8,28.3,7.1,42.9,8.9
		c13,1.6,26.1,2.1,39.2,3.5c2.5,0.1,5,0.1,7.5-0.1c12.1-0.3,24.2,1.7,36.4,1c21.9-1.2,43.8-1.3,65.7-3.6c20.3-2.1,40.7-4.5,60.5-9.7
		c6-1.6,12.3-3,17.1-7.8c2.3-2.2,2.5-4.1,0.2-6.3c-2.6-2.6-5.7-4.6-9.1-6c-12.8-4.7-26.1-8-39.6-10c-17.2-2.7-34.3-4.6-51.7-3.7
		c-23.7,1.3-47.4,2-71,5.2c-15.2,2.1-30.3,4.3-45,8.7c-3.5,1-6.9,2.4-10.1,4.2c-4.5,2.6-4.4,5.7,0.1,8.1c5.9,3.1,12.5,3.3,18.9,4.2
		c13.4,1.8,26.9,2.3,40.3,1.4c18.9-1.2,37.9-0.5,56.4-5.6c2.7-0.8,6.7-1,6.7-4s-4.1-3.8-6.7-4.1c-8.6-1-17-3.4-25.8-2.6
		c-2.7,0.2-5.2,0.4-6.3,3.7s-4.6,3.8-7.4,4.3c-8.4,1.3-16.8,2.4-25.2,3.3c-7.4,0.7-14.5-1.7-21.8-2c-1.3-0.1-3.1-0.5-3.4-2.4
		c-0.2-1.6,1.2-2.2,2.2-3.1c7.2-6.1,16.2-6.8,24.8-8.3c23.5-4.1,47.3-5,71-4.3c25.5,0.7,51.1,2.1,76,9.1c3.3,1,6.7,2.1,9.9,3.3
		c2.6,1,2.8,2.4,0.8,4.5c-3,3.1-6.9,4-10.7,5c-15,3.9-30.4,5.5-45.8,6.7c-16.1,1.2-32,3.1-48.2,3.3c-19.3,0.2-38.6,0.6-57.9-0.3
		c-9.1-0.4-18.3-0.7-27.4-1.5c-16.2-1.5-32.4-2.6-48.3-6.4c-3.9-0.9-8.9-1.7-9.6-6.7c-0.6-4.7,2.6-8.1,6.3-10.6
		c2-1.5,4.1-2.8,6.5-3.7c18-6.1,36.2-11,55.4-12.2c11.9-0.8,23.7-2.9,35.6-4.1c7.6-0.8,15.2-1.4,22.9-1.5
		c18.1-0.2,36.3-1.8,54.4-0.7c28.8,1.8,57.9,2,85.9,10.1c13,3.8,26.5,6.7,38,14.6c2.3,1.4,4.2,3.2,5.7,5.4c2.7,4.3,2.1,7.9-2.1,10.8
		c-8.8,6-18.8,9.2-29,11.8c-18.1,4.6-36.4,8-54.9,10.1c-11.9,1.4-23.9,1.2-35.8,2.3c-21.1,1.9-42.2,2.2-63.3,2.1
		c-21.4-0.1-42.8-1.3-64.2-3.2c-11.7-1-23.5-1.5-35.2-3.1c-22.4-3.1-44.9-6.3-65.4-16.7c-6-3-11.9-7-11.9-15.3
		c0-5.8,2.5-9.8,7.2-12.8c13.4-8.5,28.4-13,43.7-16.2c25.2-5.3,50.8-8.4,76.5-10.4C173.7,393.8,192.6,393.1,215.1,393.2z"/>
	<path id="X4200A0M1Gra8OT23_4_" class="st0" d="M38.6,661.2c-2.6,2.3-5.7,4.1-9.1,5.1c-4.9,1.7-8.7,4.7-9.1,10.1s2.7,9.4,6.9,12.5
		c6.9,4.9,14.8,7.7,22.8,9.8c18.2,4.9,36.9,7.1,55.4,10.4s36.9,7,55.5,9.8c18.9,2.9,38,3.4,57.2,3.1c27.6-0.5,55.2-2.3,82.2-8.6
		c24.6-5.8,49.3-11.3,73.2-19.9c6.6-2.4,12.8-5.6,17.8-10.7c4.6-4.7,5.3-10.3,1.9-15.8c-0.6-1-1.2-2-1.7-3.1c-0.7-1.8,0-2.4,1.9-2
		c9.8,1.8,15.3,15.2,9.7,23.5c-6.6,9.7-16.8,14.4-26.8,19.3c-24.7,12.2-51.1,19-77.9,24.2c-19.6,3.8-39.5,5.2-59.5,5.5
		c-9,0.1-18,0.7-26.9,0.5c-13.5-0.2-26.9-0.9-40.3-1.1c-4.8-0.2-9.7,0.7-14.1,2.7c-4.2,2-7.8,4.7-7.8,10s3.4,8.5,7.7,10.8
		c10.6,5.7,22.1,8.4,33.9,9.5c14.4,1.3,28.7,2.9,43.2,2.5c29-0.8,57.6-6.3,84.8-16.2c17.1-6.3,33.7-13.4,48.9-23.5
		c1.2-0.8,2.6-2,4-0.6c1.1,1.2,0.1,2.5-0.5,3.7c-1,1.9-2.3,3.6-3.9,5c-19.9,17-42.9,27.4-68,34.2s-50.9,9.7-76.8,10.9
		c-37.9,1.8-75.5-1.6-112.1-12c-25.8-7.3-49.7-19.1-70.3-36.6c-12.4-10.5-22.3-23.1-27.3-38.6c-2.8-8.5-4.2-17.9,2.6-25.6
		C21.8,663,29.9,660.8,38.6,661.2z"/>
	<path id="XF9D886M2Gra4OT15" class="st0" d="M146.7,166.4c1.3-11.3,7.4-19.2,16.5-25.2c9.3-6.2,19.7-10.4,29.5-15.7
		c8.8-4.8,17.8-9.2,24.1-17.4c15.1-20,11.5-44-8.5-59.3c-13.5-10.3-35.7-11.8-49.3,3.6c-1,1.2-2.2,2.3-2.4,3.7
		c-1.4,9.5-0.1,20.8,8.9,27.5c5.3,3.8,12.6,2.6,16.4-2.7c0.1-0.1,0.1-0.2,0.2-0.3c1.6-2.5,1-4.7-0.2-7c-1.4-2.5-2.7-5-3.9-7.5
		s-0.2-3.9,2.5-3.8c7.2,0.1,13.6,2.4,17.5,8.7c9.1,14.4,5.6,42.8-15.5,50.4c-15.8,5.7-40.4,2.9-55.9-14.1
		c-18.2-19.9-22.3-50.8-10.3-73.4c4-7.4,9.6-13.7,16.4-18.6c21.5-15.7,44.8-19.6,70.2-10.1c19.6,7.3,35.2,19.1,46.2,37
		c10.3,16.8,13,34.8,7.7,53.6c-4.5,15.7-12.4,29.4-26.5,38.7c-5.9,3.8-12.6,5.9-19.4,7.6c-12.6,3.1-25.3,5.8-37.9,9
		C163.1,153.5,153.9,158.9,146.7,166.4z"/>
	<path id="X4200A0M1Gra8OT23_3_" class="st0" d="M268.5,704.2c6.7-3.2,13.4-6.2,20-9.5c13.5-6.6,25.7-15.2,35.2-26.7
		c10.7-13,18.5-27.8,25-43.5c10.5-25.4,15.4-51.7,14-78.9c-1-20.2-6.8-39.3-20.1-55.2c-4.6-5.5-9.8-10.8-16.2-14.2
		c0.7-2.1,2.1-1.4,3.1-1.4c18.5,0.2,36.4-3.1,53.2-11c10.9-5,20.6-12.4,28.3-21.6c0.9-1,1.4-3.2,3.2-2.5s0.7,2.7,0.7,4.1
		c-0.3,21.4-1.5,42.8-2.4,64.2c-1.2,27.7-6.9,54.7-13.1,81.5c-1.6,6.1-3.5,12.1-5.9,18c-8.3,22-19.1,42.6-35.8,59.4
		c-17.6,17.8-39,29.1-63.5,34.8c-8.4,2-17,2.5-25.4,3.9C268.8,705.2,268.6,704.7,268.5,704.2z"/>
	<path id="X4200A0M1Gra8OT23_2_" class="st0" d="M472.5,590c4.4-4.9,9-8.7,12.7-13.3c7.4-9.1,13.7-18.7,18-29.7
		c9.7-25.2-4.8-46.7-32-47.5c-5.6-0.2-10.5,1.1-14.8,4.7c-1.1,0.9-2.6,1.9-2,3.7c0.5,1.5,1.9,2.4,3.5,2.5c3.2,0.3,6.2,1.6,8.5,3.8
		c1.2,0.8,1.6,2.3,1.1,3.6c-0.8,1.7-2.2,1-3.4,0.5c-3.9-1.4-4.6,0.4-4.4,3.9c0.3,3.6,0.2,7.3-0.4,10.9c-2.2,12-14,16.4-25.7,9.9
		c-11.2-6.2-17.3-20.3-15-33.8c3.4-20.3,17.8-30.3,37.7-34.4c13.8-2.9,27.3-1.9,40.4,3.9c18.8,8.4,29.5,23,30.3,44.1
		c0.3,8,0.2,15.9-2.2,23.7c-3.2,10.8-9.3,19.3-17.7,26.5C499.5,579.5,482.1,588.6,472.5,590z"/>
	<path id="X4200A0M1Gra8OT23_1_" class="st0" d="M401.8,417.2c-62.7-23.7-127.7-31.6-193.5-31.8c-65.7-0.2-130.7,6.2-193.7,30.2
		c2.2-4.6,5.4-6.6,8.6-8.5c19-11.9,39.6-19.6,61.4-24.3c20.8-4.5,41.9-7,63-9.1c31.1-3,62.3-4,93.6-3.2c18.1,0.4,36.1,1.8,54.1,4.1
		c22.9,3,45.6,7.4,67.4,15.8c13.9,5.2,26.6,13.2,37.4,23.3c0.6,0.6,1.1,1.2,1.6,1.9C401.6,415.7,401.6,416.1,401.8,417.2z"/>
	<path id="X4200A0M1Gra8OT23" class="st0" d="M423,638.2c-9.9-0.6-18.5-2.9-24.7-10.8c-5.4-7-4.4-19.2,1.6-25.8
		c7.1-7.8,16.7-10.7,26.1-13.8c13-4.3,26.1-7.9,38.9-12.6c7.5-2.7,14.5-6.7,19.4-13.5c0.6-0.9,1.1-2.5,2.5-1.5
		c1.2,0.8,0.2,2.2-0.3,3.1c-3.8,6.5-9.1,11.9-15.5,15.9c-13,8.1-27.2,14.1-40.9,20.7c-5.2,2.3-9.8,5.6-13.6,9.8
		c-1.5,1.8-3.1,3.5-3.4,6c-0.5,3.8,1.4,6.2,4.8,7.2c3.7,1.1,6.2-1.5,7.7-4.2c1.3-2.4-0.9-3-3-2.9c-3.8,0.2-4.2-1.6-2.8-4.7
		c2-4.9,6.7-8.2,12-8.3c5.8-0.4,10.5,0.2,14.3,6.3c9,14.4-3.4,25.9-15,28.3C428.4,637.8,425.7,638.1,423,638.2z"/>
</g>
</svg>
