<?xml version="1.0" encoding="utf-8"?>
<!-- Generator: Adobe Illustrator 21.0.0, SVG Export Plug-In . SVG Version: 6.00 Build 0)  -->
<svg version="1.1" id="图层_1" xmlns="http://www.w3.org/2000/svg" xmlns:xlink="http://www.w3.org/1999/xlink" x="0px" y="0px"
	 viewBox="0 0 449.6 691.7" style="enable-background:new 0 0 449.6 691.7;" xml:space="preserve">
<style type="text/css">
	.st0{fill:#FFFFFF;stroke:#000000;stroke-miterlimit:10;}
</style>
<title>Anime10_13_178</title>
<g>
	<path id="X6AA9FFM1Gra2OT29" class="st0" d="M23,359.9c-0.5-5.6,0.2-11.3,2-16.7c2.2-6.4,9.1-9.8,15.5-7.6c0.2,0.1,0.4,0.1,0.6,0.2
		c2.6,1.1,3.2,2.9,3,5.6c-0.4,6.8,4,12.1,10.3,14.4c11.2,4,22.1,9,33.4,12.7c6.9,2.3,14.4,2.9,21.6,4.5c14,3,28.2,4.3,42.3,6.5
		c14.1,2.2,26.8,2.4,40.2,3s24,1.1,35.9,0.4s25.4,0.1,37.8-1.4c5.4-0.6,10.9-0.9,16.3-1.7c12.4-1.9,25-3.9,36.7-8.4
		c8.4-3.2,17.7-4.7,25.1-10.5c5-3.9,8.7-8.5,10.2-14.8c0.5-2.2-0.7-3.8-1.8-5.5c-1.1-1.7-2.4-4.9-0.1-6.8s4.4,0.4,6.3,1.9
		c10.3,7.7,15.2,18.9,16.3,30.8s2.1,23-2.9,32.7c-3.4,4.9-7.5,10.3-14.7,12.5c-9.5,2.9-19,6.1-28.5,8.4c-9,2.2-18.1,4-27.3,5.3
		c-7.5,1-15.1,1.4-22.7,3s-18.6,1.4-27.8,2.3c-17.9,1.7-35.8,2.4-53.7,3c-9.3,0.2-18.5-0.3-27.7-1.6c-9.6-1.2-19.1-1.8-28.7-2.8
		c-12-1.3-23.8-4.2-35.6-6.5s-22.9-6-34.5-8.4c-3.6-0.7-27.1-9.6-33.1-14.2c-4.2-3.1-6.9-7.8-8.9-12.3
		C24.5,379.3,21.7,370.2,23,359.9z"/>
	<path id="X2382D6M2Gra2OT14" class="st0" d="M237.8,141.8c-14.7,0-24.8-2.7-38.7-4.5c-9.8-1.3-13.4-6.3-17.1-16
		c-1.7-3-3-6.9-4.5-10.9c-4.8-12.6-10.5-20.1-15.8-33.1c-1.7-4.7-4.9-11.8-7.7-15.9c-1.4-2.1,1.9-2.6,3.6-2.3
		c5.8,1,11.6,0.7,17.4,1.1c17.6,1.3,35.3,0.5,52.7-2.6c18.7-3.4,37.1-8.6,54.2-17.4c6-3.1,12.2-5.8,17.7-10c3-2.4,4.4-0.9,4.9,2.4
		c0.8,5.6,1.9,6.4,6.9,3.5s10.2-7.7,18.5-9.3c14.6-1.1,20.9,7.6,20.9,15.8c0.2,1.8-0.8,3.6-2.5,4.4c-2.1,1.1-3.4-0.1-4.7-1.5
		c-5-5.3-12.4-7.6-22.4-1c-3.5,3.3-7.6,9.8-8.7,15.7c-1,6.9-0.6,11.3,0,18.3c1.3,5.7,5.3,9.8,10.5,10.6c10.6,1.7,17.9-4,22.9-13.1
		c3-5.5,1.7-10.8,4.8-17.1c1.7-2.4,2-2.8,4.1-2.2s2.3,2.4,2.2,4.1c-0.8,11.3-3.1,23.2-13.2,30.5c-7.1,5.1-14.5,7.5-23.1,9.3
		c-5.8,1.2-7.5,6.5-7.1,12.5c0.5,5.2,0,11,0.1,12.6c-0.4,6.4,0.4,7.1-6.9,8.8C284.2,139.9,259.5,141.8,237.8,141.8z"/>
	<path id="X009E41M2Gra4OT27" class="st0" d="M272.3,632.4c-7.2-0.2-14.2,1.4-21.2,2.5c-22.8,3.7-45.4,1.4-68.2-0.1
		c-13.4-0.9-26.9-1.8-40.2-3.3c-15.1-1.7-30.3-3.5-45.2-7.2c-8.1-2-16.7-3.8-25.1-5.2c-6-1-11.4-4.1-17.3-5.6s-11.8-5.1-18.1-6.7
		c-3.5-0.9-6.4-2.9-9.7-4.2c-7.4-2.8-14.8-6-21.1-11.6c-3.7-3.3-4.9-6.5-5.9-10.4s0.8-6.5,5.1-8.5c9.5-4.5,19.4-5.1,29.6-5.5
		c7.4-0.3,13.4,2.4,19.2,5.8c18.7,10.8,38.7,17.9,59.4,23.7c22.4,6.2,45.2,9,68.1,11.5c11.9,1.3,24,0.4,35.9,1.1
		c21.6,1.3,42.8-2.3,63.9-5.2c10.4-1.4,20.8-5.1,30.8-9c7.1-2.8,13.7-6.8,20.6-9.1c11.9-3.9,22.1-11.6,34.6-13.7c4-0.7,7.5-1,11,1.2
		s9.3,4.1,13.3,7.5s4.1,7.4,1.1,11.1c-7,8.4-16.6,12-25.9,16.8c-12.7,6.6-26.6,9.2-39.6,14.5c-5.1,2.1-11.3,1.9-17,3.3
		C298,628.9,285.3,631.9,272.3,632.4z"/>
	<path id="XE655FFM2Gra3OT30" class="st0" d="M208.2,689.8c-25.3,2.6-50.6,2.9-75.7-1c-9.6-1.6-18.7-5.4-26.5-11.2
		c-12.5-8.9-24.8-18.1-37.3-27c-14.5-10.3-30.4-18.2-44.5-29c-1.5-1.2-4.1-2.4-2.5-4.6s3.7-0.3,5.2,0.9s5.8,2.6,9.1,3.3
		c7,1.4,13.8,3.3,20.5,5.8c2.7,1,5.1,2.1,8,2.1c1.7,0,3.3,0.3,4.9,0.8c15.6,5.3,31.7,8.8,47.9,11.9c12.1,2.3,24.4,3.1,36.5,4.9
		c35.2,5.2,70.4,3.5,105.6,2c12.1-0.5,24.3-3,36.3-5.3s40.3-8,42.2-8.6c1.9-0.6,4.6-1.2,5.8,1.3s-1.2,3.2-2.6,4.1
		c-7.6,5.1-16.1,8.4-24.5,11.7c-10.4,4-18.9,10.3-26.6,18.5c-5.7,6.2-10.4,13.8-19.1,17.1c-3.7,1.5-7.6,2.2-11.6,2.3H208.2z"/>
	<path id="XFF6633M1Gra4Co4_1_" class="st0" d="M281.5,185.5c-21.6,0.7-43.3,1.5-64.9,0.8c-5.8-0.2-11.9,0.1-17.4-1.3
		c-18.3-4.7-37.3-6.8-55.2-13.1c-12.5-4.3-24.8-9.3-36.7-15C93,150,79.2,142.2,66.7,132.2c-2.3-1.7-4.7-4.5-4.3-7.4
		c0.3-4.1,1-8.4,1.7-12.5c1.1-6.4,3.3-12.8,3.9-14.9s3.9-4.1,5.8-1.2c7,10.2,17.8,15.1,28,20.9c11.9,6.8,24.4,12.4,37.4,16.8
		c11.1,3.9,22.4,7.5,33.8,10.2s23.2,4,34.9,5.4c16.4,2,32.8,3.7,49.3,3.2s34.8-1.6,51.5-7.1c4.5-1.5,8.2-4.3,11.8-7.3
		c1-0.9,2.3-2.4,3.9-1.1s0.3,2.8-0.4,4c-2.5,4.5-3.1,9.6-5,14.3c-1.4,3.9-2.9,7.1-4.8,11.3c-2.2,4.2-3.9,9.4-6.7,11.8
		c-6.8,4.8-15.1,7.2-23.4,6.8L281.5,185.5z"/>
	<path id="X0014AAM2Gra2OT23" class="st0" d="M149.1,593.6c-26.3-4.2-51.9-11.8-76.1-22.7c-14.6-6.5-28.1-15-40.3-25.3
		c-2.7-2.3-4.7-5-3.7-8.6s4.3-4.8,7.3-5.3c8.2-1.5,16.5-3.7,24.6-3.4s19,3.9,25.8,11.3c2.7,3,5.9,5.6,9.5,7.6
		c11.2,6.2,22.6,11.8,35,15.7s26.3,8,39.7,11.2c3.5,0.8,35.1,3.4,47.6,2.8c9.8-0.5,51.5-5.5,61.5-11.8c6.1-3.9,13.3-6.4,19.6-10.2
		c3.5-2.1,6.2-4.9,9.3-7.5c5.9-5,12.8-2.2,19.2-2.2s12.9,1.2,19.3,1.5c2.5-0.1,4.9,1.4,5.9,3.7c1.3,2.7,1.6,5.6-0.7,7.9
		c-8.7,8.7-17.9,14.1-30.2,20.2c-5.5,2.7-10.8,3.6-17.1,6c-1.5,0.7-36.7,9.5-53.1,12C235.9,600,174.7,597.7,149.1,593.6z"/>
	<path id="XB6D21FM2Gra4OT29_4_" class="st0" d="M284,369.5c-4.4,0.4-5.5-1.6-6.6-4.1c-3-6.2-5-12.8-9-18.7
		c-5.3-7.9-8.8-16.8-12.9-25.3c-2.4-5.3-5.1-10.4-8.1-15.3c-1.8-2.8-5.6-12.7-6.6-14.5c-4.8-9.7-9.6-19.5-14.4-29.2
		c-0.7-1-0.4-2.4,0.6-3c0,0,0.1,0,0.1-0.1c2.4-1.8,4.7-4.5,7.4-4.9c9.1-2.7,24-7.7,32.5-11.4c4.1-1.8,5.3-1.9,7.4,1.8
		c3.8,7.1,7,14.5,9.5,22.2c1.2,3.4,3.7,6.1,5.1,9.6c4.6,11.5,9.3,22.9,15.1,33.9c1.9,3.6,2.6,7.9,4.7,11.4
		c4.4,7.5,5.1,16.6,10.6,23.5c2.3,2.9,1.8,7.1,4,10.1c0.9,1.3-0.2,2.1-1.2,2.8c-1,0.7-4.1,3.2-6.5,3.7c-7.7,1.8-14.8,6.1-23,5.7
		C289.1,367.5,286.1,369.2,284,369.5z"/>
	<path id="XB6D21FM2Gra4OT29_3_" class="st0" d="M259,371.1c-11.8,1.8-24.7,1.1-37.4,1.5c-2.2,0.3-4.3-0.9-5.1-2.9
		c-3.2-6.1-6.5-12.2-9.6-18.4c-4-7.9-8.2-15.9-13-23.5c-2.8-4.5-4.8-9.4-6.9-14.2c-4.1-9.2-9.4-18-12.4-27.7
		c-0.9-2.8-3.6-4.3-5.3-6.6c-1.7-2.3-1.8-4.7,1.2-4.9c6.2-0.3,11.3-3.5,16.9-5.3c7.8-2.4,16.2-1.9,23.5-5.8c0.8-0.5,1.8-0.3,2.3,0.5
		c0.1,0.1,0.1,0.2,0.2,0.3c1.9,3.4,4.9,6.1,6.2,10.1c2,6.1,5.9,11.4,8.6,17.3c2.7,5.9,4.6,9.8,6.7,14.9c1.7,3.9,3.7,7.5,6.1,11
		c2.8,4.3,5.2,8.9,7,13.7c2.4,6.1,5.8,11.9,9.2,17.5c3.4,5.6,5.5,12.8,9.7,18.4c1.9,2.6-0.1,4.6-4.1,4.4L259,371.1z"/>
	<path id="X6AA9FFM1Gra4OT29" class="st0" d="M449.3,423.4c-0.2,11.2-5.1,26-7.5,30.8c-0.6,1.2-8.3,13.6-12.2,17.9
		c-6.5,7.3-14.1,13.7-22.5,18.8c-12.2,7.5-19.3,11.8-34.5,17c-6.4,1.8-16.5,3.7-25.3,1.1c-8.5-2.5-7.9-12.8-6.4-20.1
		c1.5-5.3,5.8-7.2,8.5-9.1s3.1,1,3.9,2.7c3.6,7.4,6.7,6.4,12,6.6c17.1-0.1,27.7-9.5,38.6-20.2c4.7-5.6,7-9.1,9.8-16.1
		c4-14.9,8.1-23.4,1.3-35.7c-4.4-8.1-15.7-9.2-21-1.8c-1.4,2.1-2.5,4.3-3.3,6.7c-1.2,3.4-4.1,4.3-7.3,4.2c-3.2-0.1-4.6-5.2-5.3-7.7
		c-1.2-13.8,2.1-19.9,9.4-29.3c4.7-5.6,9.8-6.7,15-7.6c7.6-1.3,13.2-1.8,22.2,1.6c11.8,5.4,15.2,10.7,19,18.4
		C445.4,405,448.5,414.7,449.3,423.4z"/>
	<path id="X1100AAM2Gra4OT6" class="st0" d="M182.8,51.4c-8.8,1-19.3-1.8-29.8-4.3c-4.7-1.1-4.9-3.5-1.9-7.3c5.4-7,13-10,20.4-14.1
		c9-4.9,18.3-9.3,27.8-13.2c11.9-5,24.2-9.2,37.3-10.1c9.8-0.7,19.7-3.3,29.2-2c11.3,1.5,23.3-0.9,33.9,5.5c3.1,1.9,3.4,4,2.5,7.1
		s-4.8,7.3-7.7,8.7c-7.5,3.7-14.3,8.9-22.1,11.6l-28.9,9.8c-9.6,3.3-19.4,4.4-29.2,6.3S194.8,51.3,182.8,51.4z"/>
	<path id="XB6D21FM2Gra4OT29_2_" class="st0" d="M86.9,284.9c4.8-1.3,8.6,2.6,10.6,5.9c8.4,14.7,18.2,28.5,25.5,43.9
		c3.3,7,9,13.3,13.1,20.2c1.6,2.7,3.5,5.2,5.3,7.8c0.7,1,2.2,1.9,1.3,3.4c-0.8,1.2-2.3,1.6-3.6,1.1c-9.2-2.4-18.9-2-27.9-4.8
		s-16.5-2.1-24.2-5.5c-3.2-1.4-5.9-3.7-7.9-6.5c-6.6-8.7-13.7-17.1-20.5-25.7c-8.4-10.6-17-21.4-22.8-33.6
		c-4.2-8.9-6.9-19.2-1.9-29.3c0.9-1.7,0.5-3.6,0.4-5.4c-0.1-1.8,0.7-3.7,3-3.6c2.3,0.1,3.1,1.6,3.1,3.7c0,0.5-0.1,1-0.2,1.5
		c-1.6,12.7,3,19.3,14.6,24.5C62.4,286.6,78.8,286.9,86.9,284.9z"/>
	<path id="XB6D21FM2Gra4OT29_1_" class="st0" d="M336.2,222.4c0,6.7,1.5,19.4,2.2,30c1,14.2,2.5,26.5,3.2,39.7
		c0.8,12.8,0.8,25.5,0.1,38.3c-0.4,6.1-4.2,11.4-4.8,17.6c-0.3,3.1-3.4,2.6-4.5,0.1c-4-9.2-9.9-17.5-12.5-27.4
		c-1-3.9-3.6-7.6-5.5-11.2c-6.5-12.6-10.1-26.4-17.6-38.6c-4.6-7.5-7.4-16.2-11.1-24.3c-0.3-0.8-0.7-1.5-1.1-2.2
		c-3.5-5.5-3.4-5.3,2.3-7.6c2.4-1.1,4.6-2.5,6.5-4.3c4.5-3.7,9.6-6.4,14.8-8.9c9.2-4.5,13.8-17.9,10.1-29c-0.7-2-1.5-3.8,0.2-5.5
		s3.4,0.3,4.9,0.9c4.8,2,7.6,5.8,8.9,10.7C334.3,208.4,335.3,214.7,336.2,222.4z"/>
	<path id="XB6D21FM2Gra4OT29" class="st0" d="M116.8,283.6c7.4-1.1,16.3-1.3,24.8-3.6c12.2-3.4,13.2-3.2,20.2,6.9
		c4.7,6.8,8,14.4,11.7,21.8s9.5,17.1,13.3,26.1s8.7,14.6,10.9,23c1,4,4.1,7.4,6.2,11.1c0.5,1,1.6,1.9,0.7,3.2
		c-0.9,1.3-2,0.8-3.2,0.6c-11.7-1.3-23.4-2.9-35.2-2.8c-8.8,0.1-12.9-6.4-15.9-12.5s-8.2-13.9-12.1-20.9c-6.1-11-13-21.4-19.2-32.2
		c-3-5.3-5.1-11.1-8.7-16.1S108.9,283.3,116.8,283.6z"/>
	<path id="X009E41M2Gra8OT27" class="st0" d="M393.4,242.6c0-7.9,0.1-14.2-4-20.9s-13.2-11.8-21.7-6c-5.1,3.5-9.3,8-13.4,12.6
		c-2.6,2.9-3.9,1.8-4.7-1c-1.8-6.2-2.3-14,1.3-19.3c3.2-5.1,7.8-9.1,12.7-12.6s13.8-5.9,21.8-5.6c12.5,0.5,19.7,7.9,24.1,14.4
		c2.3,3.5,5.6,9.1,5,22c-0.6,6.5-2.2,14.4-3.2,17.6c-2.7,8.3-4.4,10.8-9.2,18.7c-6.7,9-13.1,18-21.3,25.9
		c-5.9,5.7-12,10.5-19.6,13.2c-4.2,1.5-5.7,0.4-5.7-3.9s-0.7-11.7,3.6-16.7c2-2.3,3.7-3.3,6.2-0.9s6.3,1.9,9-0.2
		c7.1-6.5,10.3-10.3,15.3-20C391.8,255.6,392.5,250.5,393.4,242.6z"/>
	<path id="X6AA9FFM1Gra3OT29_7_" class="st0" d="M324.3,434.9c4.9,1.1,8.4-3.7,13.4-3.7c1.6,0,3.2-0.7,4.8,0.1
		c1.6,0.8,4.2,0.3,5.7-1.6c1.2-1.4,2.9-2.3,4.8-2.2c2.4,0,3.8,0.5,2.6,3.6c-3.3,8.6-5.7,17.6-9.8,25.8c-4.1,8.2-9.4,13.3-17.3,15.7
		c-12.1,3.7-25,3.3-37.4,5.2c-2,0.3-3.6-0.1-3-3c2-9.8,6.1-19.1,7.2-29.1c0.5-4,2.5-6,7-6.1c4.3-0.1,8.6-1.1,12.5-2.9
		C317.8,435.3,321,434.7,324.3,434.9z"/>
	<path id="XFF6633M1Gra2Co4" class="st0" d="M51,142.3c11.4,1.2,19.4,6.3,19.2,15.8c-0.1,3.6-0.5,7.3-4.1,9s-7.7,0.6-10.6-2.1
		s-4.6-2.5-7.7-2.1c-4,0.4-6.6,4-8.2,10.1c-1,4.5-0.4,9.1-0.4,13c-0.1,13,9.1,21,16,30.6s14.7,20.3,17.7,32.9
		c1.9,8.1,0.1,13-6.2,17.4c-1.8,1.3-4.8,2.7-7.1,2c-2-0.6-4.2-1.8-4.5-5.4s1.3-6.3,3.8-6.8c8.1-1.4,7-8.1,5.8-14.1
		c-4-11.8-10.6-17.6-20-25.4c-8-6.5-14.4-11.9-19.2-20.3c-2.8-6.2-4.2-15.1-4-20.5c0.3-7.7,2-13.7,8.7-23
		C36.6,145.3,41.5,143.5,51,142.3z"/>
	<path id="X6AA9FFM1Gra3OT29_6_" class="st0" d="M167.1,452.4c0.2-8.2,1.2-9.5,7.8-9.4c15.1,0.3,30.2,1.1,45.3,0.1
		c2.1-0.1,3.7,0.6,3.9,3.4c0.8,9.1,0.6,18.2-0.8,27.2c-1.1,7.1-1.4,7.5-8.6,6.6c-3.4-0.4-6.7,0.7-10.2,0.4
		c-5.4-0.5-10.8-1.8-16.3-0.9s-8.9-2.3-13.6-0.8c-1.3,0.4-2.8-1.3-3.1-2.8C170,467.8,168.4,459.4,167.1,452.4z"/>
	<path id="X6AA9FFM1Gra3OT29_5_" class="st0" d="M105.2,468c-0.5,3.2-2.3,4.1-4.7,2.8c-4.8-2.6-10.3-2.5-15.2-4
		c-6.6-2-13.4-3.4-19.8-5.8c-3.3-1.2-6.3-3.1-9.9-3.1s-3.3-1.9-4.5-3.9c-5.8-9.8-6.1-21.5-11.1-31.5c-0.5-1.1-1-2.2,0.1-3.2
		s1.9-0.4,2.8,0.2c6.1,3.8,13.1,5.4,19.6,8.1c8.7,3.6,17.4,6.9,26.5,7.6s9.7,5.2,11.2,11.9S101.7,461.6,105.2,468z"/>
	<path id="X6AA9FFM1Gra3OT29_4_" class="st0" d="M174.9,530.7c-0.1-2.1-0.3-3.9-0.3-5.7c-0.1-2.4,1.6-4.6,4-5
		c10.2-2.7,20.3-2.6,30.3,1.1c2.8,1,4,2.3,3.7,5.4c-1,9.9-1.4,19.8-2.6,29.7c-1.3,11.3-16.4,10.4-16.4,10.4
		c-12.5,0.6-12-5.8-14-12.6c-1.2-4-2.1-6.2-3.1-11.8C175.7,538.2,175.4,534.4,174.9,530.7z"/>
	<path id="X6AA9FFM1Gra3OT29_3_" class="st0" d="M228.8,519c-3.4-0.2-5-1.2-4.7-4.4c0.9-8.1,4.4-15.6,4.5-23.8
		c0.1-3.3,3.9-3.3,6.3-3.7c12.7-2.2,25.7-2.8,38.6-1.7c3.7,0.3,5,1.5,3.9,4.8s-1,6.9-1.4,10.3c-1.1,9.8-7,15.4-16.8,15.8
		c-7.5,0.3-14.9,0.7-22.4,0.9C234.1,517.4,231.3,518,228.8,519z"/>
	<path id="X6AA9FFM1Gra3OT29_2_" class="st0" d="M160.5,514.3c-10.2-2-21.8-2.7-33.2-5.3c-4.9-1.1-7.2-4.4-8.2-8.9
		s-2.4-11.7-3.4-17.6c-0.4-2.1,0.7-4.5,2.7-3.4c5.2,2.9,10.4,0,15.6,1.1s11.4,2.1,17.1,3.4c2.2,0.5,4.4,1.4,6.8,1.1
		c6.1-0.7,9.6,2,10.2,8.2c0.5,4.3,0.6,8.4,2.3,12.6C172.9,511.3,169.6,514.4,160.5,514.3z"/>
	<path id="X6AA9FFM1Gra3OT29_1_" class="st0" d="M262.3,560.9c-2.1-0.3-2.2-1.6-1.3-3.2c3.1-7.5,7.2-21.6,8.9-25.7
		c2.3-7,6.1-9.7,13.1-11s15.6-5.1,23.4-7.8c1.2-0.4,2.5-1.6,3.7-0.4c1.2,1.2,0,2.7-0.6,4c-3.2,7.7-7.2,15.2-13,21
		C284,554,262.3,560.9,262.3,560.9z"/>
	<path id="X6AA9FFM1Gra3OT29" class="st0" d="M126.9,549.4c0,3-2,2.3-3.6,1.4c-4.3-2.4-8.7-4.8-12.8-7.6
		c-7.7-5.2-14.6-11.5-20.5-18.7c-5-6-8.7-13.1-12.9-19.7c-0.3-0.6-0.3-1.2-0.1-1.8c0.5-0.8,1.4-0.7,2.2-0.3
		c9.8,5.5,21.2,5.4,31.4,9.4c5.1,2.6,6.9,7.9,7.9,10.4C121.9,531.2,125.7,539.8,126.9,549.4z"/>
	<path id="XFF6633M1Gra4Co4" class="st0" d="M143.7,75.7c2.3,0.3,4.6,0.9,5.6,2.1s3.8,4.2,5.5,6.4s2.3,2.6,1.5,4
		c-0.7,1.2-2.5,1.4-3.9,1.3c-7.1,0-30.4,4.7-35.1,5.1c-7.3,0.5-14.5,2.2-21.8,0.8c-2-0.4-3.7-0.1-5.3-1.3s-3.9-3.4-3.1-5.5
		c2.3-5.8,29.4-9.7,42.5-11.9C130.9,76.4,138.2,75.2,143.7,75.7z"/>
	<path id="XFF6633M1Gra7Co4_6_" class="st0" d="M136.6,219.2c0,7.8-8.7,16.7-16.1,16.6s-13.8-6.7-13.7-14.8
		c0.1-8.1,6.9-14.8,14.2-14.7C132,206.3,137.3,211.4,136.6,219.2z"/>
	<path id="XFF6633M1Gra7Co4_5_" class="st0" d="M182.8,199.1c3.2-0.2,6.3-0.1,9.2,2.2c7.1,5.6,5.9,10-0.7,15.7c-1.8,1.6-4,2.9-6,4.4
		s-6,2.4-8.4-1.3c-0.4-0.7-0.8-1.6-1.5-1.9c-2.1-0.9-4.5-1.4-5.1-4.1c-0.7-3.3-0.4-6.7,0.7-9.8C173.1,198.5,177.9,198.9,182.8,199.1
		z"/>
	<path id="XFF6633M1Gra7Co4_4_" class="st0" d="M225.6,227.9c7.6,0.2,11.7,3.3,15,7.8c1.3,1.7,0.6,3.3-0.9,4.3
		c-7.9,5.5-16.6,8.9-26.2,9.3c-3.7,0.2-3.8-3.6-3.4-6.5C211.5,233.2,217.6,227.9,225.6,227.9z"/>
	<path id="XFF6633M1Gra7Co4_3_" class="st0" d="M288.1,214.9c0,5.7-7,12.4-12.7,12.4c-2.5,0-5-0.2-7.4-0.6c-4.4-0.7-3.8-5-5-7.8
		s0.4-6.6,3-8.8c5.3-4.5,10.9-7,17.8-2.4C286.8,209.8,288.6,211.6,288.1,214.9z"/>
	<path id="XFF6633M1Gra7Co4_2_" class="st0" d="M94.2,182.2c0.2,7-3.2,11.8-9.8,13.7c-3.1,0.9-5.1,0.1-4.8-3.4
		c0.6-7.3,0-14.6-0.5-21.9c-0.2-3.6,1.7-4.6,5.1-3.9C90,168,93.9,173.9,94.2,182.2z"/>
	<path id="XFF6633M1Gra7Co4_1_" class="st0" d="M135.3,269.5c-2.1,0.2-4.1-1.3-4.3-3.5c-0.1-0.7,0.1-1.5,0.4-2.1
		c2.3-5.5,6.5-8.6,12.3-9.7c5.8-1.1,13-0.6,18.1,5c2.2,2.4,2,4-0.8,4.7C152.5,266.1,144.4,269.9,135.3,269.5z"/>
	<path id="XFF6633M1Gra7Co4" class="st0" d="M95.6,256.9c-0.4,4.5-2.8,8.5-6.3,11.8c-1.3,1.2-3.1,2.1-5,1s-1.2-2.9-1-4.5
		c0.5-5.8,0.9-11.5-0.1-17.3c-0.4-2.1-1.2-5,1.6-6.2c2.8-1.2,4.4,0.9,6.1,2.4C94.6,247.4,95.8,251.1,95.6,256.9z"/>
</g>
</svg>
