<?xml version="1.0" encoding="utf-8"?>
<!-- Generator: Adobe Illustrator 24.1.0, SVG Export Plug-In . SVG Version: 6.00 Build 0)  -->
<svg version="1.1" id="图层_1" xmlns="http://www.w3.org/2000/svg" xmlns:xlink="http://www.w3.org/1999/xlink" x="0px" y="0px"
	 viewBox="0 0 699 806.1" style="enable-background:new 0 0 699 806.1;" xml:space="preserve">
<style type="text/css">
	.st0{fill:#FFFFFF;stroke:#000000;stroke-miterlimit:10;}
</style>
<g>
	<path id="XFFCC00M2Color2" class="st0" d="M526.3,776.5c-13-0.7-23.6-1.7-33.9-4.9c-8.4-2.6-16.1-1.2-22.7,3.9
		c-13.1,10-28.2,13.3-44.1,13.6c-32.6,0.5-61.4-9.2-82.4-35.3c-13.9-17.2-20.7-37.9-23.7-59.7c-4.4-32.8,0.8-64.3,12.9-95
		c6.6-16.7,13.6-33.3,20.5-49.9c4.5-10.7,4.8-22.2,5.1-33.3c0.6-21.1,1.5-42,8.3-62.2c4.6-13.9,10.4-27.3,19.1-39.4
		c8-11.2,18.6-16.4,32-17.6c20.3-1.8,37.1,5.8,52.4,18.2c13.8,11.2,22.8,26,30.4,41.6c4.9,10,9.3,20.3,14.2,30.3
		c8.8,18,21.8,33,34.8,48c18,20.6,35.3,41.8,47.4,66.5c7.4,15,13.7,30.4,15.7,47.2c3.5,28.5-1.9,55.3-14.9,80.8
		c-11.9,23.4-31.1,37.7-55.8,45.2C536.8,776,531.6,776.7,526.3,776.5z"/>
	<path id="XFFFF00M2Color1" class="st0" d="M273,806.1c-15.4,0.3-25-3-33.7-8.5c-8.1-5.1-16.7-6.2-26.1-6.1
		c-13,0.1-25.9,1.2-38.9,0.7c-20.1-0.6-36-9.9-46.3-26.4c-19.1-30.7-23.5-63.6-12.9-98.8c8.2-27,21.9-50.3,42.4-69.5
		c21.3-20,35-44.4,44.9-71.7c7.7-20.8,17.6-40.7,29.7-59.3c7.5-11.7,17.3-21.1,28.5-29.1c9.9-7,21.4-9.2,33.2-9.1
		c13.2,0.2,23.2,9.7,27.9,24.8c3.4,10.7,4.6,21.8,6.9,32.7c3.1,15,7.8,29.7,14,43.7c3,6.5,3,12.7-1.3,19.3
		c-25.7,39.9-39.2,83.3-36.5,131.1c1,19.2,5.6,38,13.6,55.5c3.4,7.3,8.1,13.8,14,19.3c5.1,4.8,5.4,7.8,2,14
		c-6.9,13.1-17.4,22.1-30.9,27.9C292.2,801.4,280.7,805.7,273,806.1z"/>
	<path id="X81B540M2Gra7OT4_3_" class="st0" d="M694.6,418.1c-0.1,1.5,0.2,2.8-1,3.5s-2.2-0.1-3.2-0.8c-1.7-1.1-3.1-2.5-4.1-4.3
		c-10.4-18.5-27.7-25.4-47.4-26.8c-15.8-1.1-31.6-0.3-47.3-3.4c-36.4-7.2-65-26.4-87-55.9c-12.9-17.3-22.7-36.5-34-54.7
		c-4.2-6.8-8.4-13.5-15.4-18c-2.3-1.5-5.9-3.7-4.2-7c1.7-3.2,5.5-2.2,8.6-1.4c19.1,5.3,37.4,13.1,55.7,20.6
		c32.7,13.5,64.5,28.8,94.7,47.1c34.4,20.6,62,50.8,79.7,86.8C691.9,408.5,694.3,413.2,694.6,418.1z"/>
	<path id="X81B540M2Gra5OT4_3_" class="st0" d="M457.9,170c-8.9,0-16.2-0.3-23.4-1.9c-11.3-2.5-22.8-3-34.3-2.5
		c-1.4,0.1-3.2,0.8-4.1-0.9c-0.9-1.9,0.6-3.1,1.8-4.2c5.3-5.1,11.3-9.8,17.8-12.8c30.1-13.8,57.4-32.4,84.9-50.6
		c28.5-18.9,59.1-32.8,93-38.6c5.7-1,11.7-0.6,17.3-2.3c1.1-0.3,2.5-0.3,3.1,0.9c0.8,1.7-0.7,2.4-1.8,3.1c-2.4,1.7-5,3.4-7.6,4.8
		c-19.5,10.2-32.6,26.7-43.9,44.8c-11,17.7-26.2,30.9-43.6,41.7c-8.9,5.6-18.4,10.1-28.4,13.4C478.2,168.5,467.5,170.3,457.9,170z"
		/>
	<path id="X66FF00M2Gra1Co13_1_" class="st0" d="M96.8,294.8c15.2,0.3,30.3,0.1,44.7-5.8c10.5-4.3,19.2-11.4,28.4-17.5
		c14.3-9.5,27.6-20.4,42.5-29c15.4-8.9,31.8-15.1,48.8-20.1c1.8-0.5,3.6-0.7,5.4-0.5c6,0.4,7.3,2.1,6.1,7.9
		c-2.5,12.5-7.5,24.3-14.7,34.7c-22.8,33.8-53.5,56.2-94.6,61.2c-16.3,2-32.4-1.9-47.9-7.9c-11.3-4.4-21.8-10.9-33.8-13.4
		c-2.6-0.5-5.3-0.9-7.8-1.6c-2-0.6-4.6-1.1-4.3-4c0.3-2.7,2.6-4,5-4c5.2-0.2,10.3,0,15.5,0C92.5,294.8,94.6,294.8,96.8,294.8z"/>
	<path id="X81B540M2Gra7OT4_2_" class="st0" d="M541,228.3c-20.2,0.2-39.4-11.7-55.6-29.9c-1.8-2-3.3-5.2,1-5.2
		c15,0,28.2-6.3,41.5-11.8c14.6-6,28.5-13.9,43.7-18.4c31.1-9.2,62.6-12.6,94.8-7c6.7,1.3,13.2,3.4,19.4,6.3
		c1.2,0.5,2.8,0.9,2.8,2.5c0,1.8-1.7,1.8-2.9,2.1c-22.3,5.8-41.8,16.9-59.7,31.4C602.9,217.3,576.2,227.5,541,228.3z"/>
	<path id="X81B540M2Gra5OT4_2_" class="st0" d="M381.2,126.6c-0.2,14.3-5.8,26.1-16.6,35.5c-2.6,2.3-4.5,2.1-5.6-1.2
		c-4.4-12.3-11.7-22.8-19.6-32.9c-17.7-22.6-36.1-44.6-60.1-60.9c-9.1-6.2-16.6-14.4-23.4-23.1c-9.4-11.9-17.9-24.5-26.4-37
		c-1.2-1.8-3.5-3.9-1-6.1c2.3-2,4.1,0,6.1,1.3c11.6,7.7,24.3,13.1,37.2,18.2c12.4,4.9,24.8,9.8,37.4,14
		c25.9,8.7,43.9,26.5,57.7,49.2C376.8,100.4,381.3,113.6,381.2,126.6z"/>
	<path id="X66FF00M2Gra1Co13" class="st0" d="M96.3,289c-3.8,0-7.7,0.1-11.5,0c-2.9-0.1-4.7-1.4-2.3-4.4
		c10.8-13.1,19.8-27.6,29.5-41.5c7.8-11.2,18-19.5,29.7-26.2c21.5-12.3,43.7-22.7,68.7-25.7c13.6-1.7,27.4,0,40.2,4.9
		c5,1.9,9.5,5,12.9,9.2c3.2,3.9,2.9,5.4-2,6.1c-16.7,2.6-31.3,10-45.1,19.3c-12.4,8.4-24.2,17.7-36.7,26
		c-14.2,9.5-27.9,20-44.4,25.6C122.7,286.6,109.7,289.2,96.3,289z"/>
	<path id="X81B540M2Gra8OT4_4_" class="st0" d="M224.8,177c-40.2-0.6-77.7-10.3-111.3-33.3c-1.1-0.7-2.7-1.2-2.5-2.8
		c0.2-1.3,1.6-0.9,2.5-0.8c25.2,1.6,48.9-5.2,72.5-12.5c15.7-5,32.1-7.8,48.6-8.4c9.6-0.3,18.8,2.7,28.2,3.9c2.1,0.3,3.4,2,4.9,3.3
		c13.6,12.9,29.3,23.3,46.5,30.7c1.3,0.5,3.3,0.6,3.1,2.7c-0.2,1.8-2.1,2-3.5,2.4c-14,4.4-28.2,7.9-42.7,10.5
		C255.8,175.5,240.4,177.3,224.8,177z"/>
	<path id="X81B540M2Gra4OT4_1_" class="st0" d="M440.5,321.7c9.8,1.5,21.3,4.7,31.7,11.1c25.5,15.8,41.2,39.2,50.9,67
		c3.3,9.3,4.6,19,5.3,28.9c0.9,14.1,2.4,28.2,3.6,42.3c0.1,1.4,1.1,3.2-0.6,4.1c-2,1-3-1-4-2.1c-1.6-1.7-3-3.6-4.1-5.6
		c-9.7-19.6-24-35.6-39.2-50.8c-11.4-11.4-21-23.8-28.3-38.3c-8.6-17.2-18.7-33.5-33.2-46.5c-3.2-2.8-2-4.7,0.9-6.6
		C428,322.3,433.1,321.9,440.5,321.7z"/>
	<path id="X81B540M2Gra8OT4_3_" class="st0" d="M233.4,111.6c-25.5,0.4-47,5.1-68.3,11.8c-18.9,6.1-38.7,8.9-58.6,8.3
		c-6.6-0.3-12.8-3.1-17.3-7.9c-1.5-1.5-2.2-3.8,0.9-3.7c13.2,0.7,22.7-7.1,32.4-13.9c13.7-9.5,25.9-21,39.5-30.6
		c18-12.7,37.5-17.1,59.2-13.2c5.8,1,9.3,3.9,11.7,8.8c4.9,10.2,9.6,20.5,16,29.9c1.6,2.3,3.3,4.6,5,6.9c0.8,1.1,2,2.1,1.3,3.5
		c-0.8,1.7-2.5,1.4-4,1.3C244.2,112.4,237.3,111.3,233.4,111.6z"/>
	<path id="XA34F1FM2Color24_5_" class="st0" d="M0,356.5c0-4.8,0-9.7,0-14.5c0-3.1,1.2-4.1,3.9-2.3c1.5,1,3.3,2,4.2,3.4
		c9.5,14.1,23.6,22.7,37.8,31.2c20.6,12.4,43,19.3,66.9,21.5c5.3,0.5,10.7-0.7,15.4-3.3c6.5-3.4,12.8-7.1,19.2-10.7
		c1.6-0.9,3.1-2.1,5-0.7c2,1.4,1.8,3.3,1.4,5.4c-1.6,7.7-2.4,15.5-0.4,23.3c1.1,4.3-0.4,7.3-3.9,9.3c-9,5-17.9,10.3-27.7,13.8
		c-6.2,2.2-9.4,0.6-12.3-5.4c-0.7-1.5-1.5-2.5-3.3-2.5c-17.6-0.4-33.4-7-49.3-13.6c-16.8-7-33.4-14.3-49-23.7
		c-2.6-1.5-4.5-3.9-5.2-6.9C0.7,372.8,1.2,364.6,0,356.5z"/>
	<path id="X66FF00M2Gra4Co13_1_" class="st0" d="M233.9,316.3c2.4,0.6,1.5,2.2,1.1,3.6c-3.5,15.4-7.3,30.8-12.1,45.8
		c-8.6,26.4-16.9,53-29.6,77.8c-3.6,7.1-7.9,13.9-12.1,20.7c-0.9,1.4-1.4,3.9-3.8,3.3c-2.1-0.5-2.2-2.8-2.5-4.5
		c-1.4-7.9-2.8-15.7-3.9-23.6c-1.6-11.2-3.5-22.4-4.6-33.6c-2.9-30.8,9.6-62.7,43.2-77.9c7.6-3.4,15-7.2,22.5-10.8
		C232.7,316.8,233.4,316.6,233.9,316.3z"/>
	<path id="X81B540M2Gra8OT4_2_" class="st0" d="M353.1,312.6c-0.9-20.9-7.3-41.8-13.5-62.7c-2.8-9.4-5.9-18.8-8.1-28.3
		c-2.6-11.5-1.5-23.5,3.3-34.2c3.3-7.5,7.6-8.9,14.6-4.9c14.5,8.3,25.1,20,31.1,35.8c3.1,8.1,7,15.9,8.1,24.6c2.7,19-2,38.4-13.3,54
		c-5.6,8-11.3,16-17.1,24c-1,1.4-2.1,3.6-4.2,2.8c-2-0.7-1-2.9-1.1-4.5C353.1,317.3,353.1,315.5,353.1,312.6z"/>
	<path id="X81B540M2Gra7OT4_1_" class="st0" d="M501.1,242.6c31.5,2.3,63.3,5.3,91.4,20.4c37.5,20.2,67.4,48.7,82.4,90.1
		c1.2,3.4,2,7,3,10.6c0.4,1.4,1,3.2-0.8,3.9c-1.5,0.6-2.2-1.1-3-2.1c-12.3-16.6-27.1-30.7-43.4-43.2c-23.5-18.1-49.9-31.2-76.2-44.6
		c-21.9-11.2-45-19.2-67.9-28c-1.4-0.5-2.8-1.1-4.2-1.6c-1.1-0.4-2.3-1-2-2.4c0.2-1.4,1.5-1.7,2.7-1.8
		C489.1,243.3,495.1,242.6,501.1,242.6z"/>
	<path id="X66FF00M2Gra4Co13" class="st0" d="M268.5,377.5c-1,22.5-11.1,43.6-30.4,60.3c-12.1,10.4-25.5,19.4-37,30.4
		c-5.2,4.9-10.1,10.1-15.2,15.1c-1,1-2,3-3.5,1.9c-1.6-1.2,0.1-2.6,0.8-3.9c8.8-18.1,18.8-35.6,26.8-54.1
		c12.2-28.4,19.9-58.2,27.6-88c1.4-5.5,2.8-11,4.3-16.4c1.2-4.4,3.1-5,6-1.5C260.6,336.7,268.7,354,268.5,377.5z"/>
	<path id="X81B540M2Gra7OT4" class="st0" d="M699,155c-0.9,3-2.8,2-4.4,1.2c-11-5.2-22.9-6.9-34.7-9.2c-22.6-4.4-45.1-1.7-67.5,2.4
		c-18,3.3-34.5,11.2-51.5,17.4c-4.9,1.8-9.9,3.2-14.6,5.3c-7.3,3.3-14.7,1.7-22.1,1.2c-0.8-0.1-1.8,0-1.9-1.2c0-1.2,1.1-1.6,2-2
		c5.7-3,11.4-6.1,17.3-9c9.5-4.7,18.4-10.4,25.3-18.4c10.3-11.9,23.5-18.4,38.1-22.6c22.1-6.2,44.5-8.9,67-2.7
		c19.8,5.5,35,17.4,45.6,35C698.2,153.3,698.6,154.2,699,155z"/>
	<path id="X81B540M2Gra5OT4_1_" class="st0" d="M236,31.3c1.5,0.3,2.8,1.2,3.6,2.5c15.3,21.6,36.2,37.6,55.1,55.6
		c20.5,19.4,37,41.9,52.4,65.3c1.2,2,2.3,4.1,3.3,6.2c0.5,0.7,0.4,1.7-0.2,2.3c-0.7,0.7-1.5,0.4-2.3,0c-8.5-4.6-18-6.8-27-10.4
		c-27.2-10.9-46-31-62.4-54.2c-9.1-12.9-14.2-27.4-18.7-42.3c-2.1-7-4.2-14-6.4-21C232.7,32.9,233.2,31.4,236,31.3z"/>
	<path id="X81B540M2Gra5OT4" class="st0" d="M533.6,64.6c2.8,0.7,7.7-1.4,8,1.3c0.4,3.2-4.6,2.2-7.2,3.1
		c-10.9,3.2-21.2,8.2-30.4,14.8c-25.4,18.6-52.7,34.4-79.2,51.2c-8.3,5.3-15.4,12.2-23.1,18.3c-1.3,1-2.6,2.1-4,3
		c-0.8,0.6-1.8,1.3-2.7,0.3c-0.9-0.9,0-1.8,0.5-2.6c17.3-29.4,39.5-53.8,70.5-69.3C487.5,74,509.5,66.2,533.6,64.6z"/>
	<path id="X81B540M2Gra8OT4_1_" class="st0" d="M422.5,285c-0.6,10.8-4.1,24.8-19.7,31.9c-9.7,4.4-19.9,6.8-30.6,3.5
		c-4.5-1.4-4.7-2.2-1.5-5.3c16.9-16.4,25.4-36.3,25.5-59.8c0.2-4-0.5-8-1.8-11.8c-0.4-1.1-0.8-2.3,0.4-3.1c0.9-0.5,2-0.4,2.8,0.3
		C412.1,250.1,423.1,261.7,422.5,285z"/>
	<path id="XA34F1FM2Color24_4_" class="st0" d="M340.1,300.6c0.3,2.1-1,3.4-2.2,4.8c-3.1,3.6-7.1,6-11,8.6
		c-16.4,10.8-32.9,21.5-48.6,33.3c-2.6,2-3.7,1.7-4.9-1.5c-1.9-4.8-4.2-9.4-6.7-13.9c-1.2-2.4-1.3-3.9,1.3-5.3
		c19.3-10.5,36-24.5,53.2-37.9c1.1-0.8,2.2-1.5,3.2-2.4c2.9-2.3,5.4-1.7,7.9,0.8C336.3,290.8,339.4,295,340.1,300.6z"/>
	<path id="X81B540M2Gra8OT4" class="st0" d="M53.7,358.2c-1.5-0.1-4.3-0.4-7.1-0.7c-0.8-0.1-1.7-0.6-1.5-1.6
		c0.2-0.6,0.6-1.1,1.2-1.4c16.4-5,27.8-18,42-26.7c6.3-3.8,11.6-4.8,18.1-1.3c8.2,4.5,17,7.5,26.7,7.4c3.4-0.1,8.4,0.3,8.7,4.1
		c0.2,3.8-4.9,3.6-7.9,4.2c-22.2,4.5-44,10.6-66.3,14.6C62.9,357.7,58.3,358.1,53.7,358.2z"/>
	<path id="XA34F1FM2Color24_3_" class="st0" d="M293.4,410c0.1-4.8,1-9.5,2.6-14c7.6-21.8,18.8-42.1,33.2-60.1c0.8-1.1,1.7-2,2.7-3
		c2.5-2.4,4.5-6.3,9-2.7c4.3,3.4,5.5,7.7,3.2,12.2c-1.6,3.1-3.7,5.9-6.2,8.5c-16.2,16.6-25.7,36.7-30.8,59.1
		c-0.2,1.5-0.8,2.9-1.7,4.1c-2.1,2.2-4.1,4.5-7.7,3.1C294.1,415.8,292.7,413.4,293.4,410z"/>
	<path id="XA34F1FM2Color24_2_" class="st0" d="M369.4,327.6c2,0,4,0.9,5.3,2.4c15.1,16,25.4,34.9,33.7,55c1.1,2.6,0.5,4.1-2,5.1
		c-0.2,0.1-0.3,0.1-0.4,0.2c-9.1,4.5-8.9,4.4-13.3-4.7c-7.5-15.7-15.7-30.9-30.2-41.5c-2.8-2-5.2-4.2-3.5-8.3
		C360.8,331.5,365.6,327.6,369.4,327.6z"/>
	<path id="XA34F1FM2Color24_1_" class="st0" d="M433.2,186.4c10.7,0.4,21.1,1.6,31.4,5.3c6.4,2.3,7.6,7.9,9.4,12.6
		c1.2,3-2.8,2.7-4.8,1.7c-4.8-2.4-9.8-4.2-15-5.4c-21.7-4.9-41.8-1.6-59.9,11.4c-3.7,2.7-5.7,1.5-7.6-1.6c-1.6-2.8-5.4-5.3-0.3-8.9
		C400.5,191.4,415.9,186.2,433.2,186.4z"/>
	<path id="X81B540M2Gra4OT4" class="st0" d="M412.8,338.5c0-2.5,0.3-4.9,2.6-5.8c2.1-0.9,3.3,1.2,4.5,2.4
		c10.1,10.2,17.6,22.2,24.4,34.6c3.1,5.7,5.8,11.6,8.8,17.4c1,1.9,1.6,3.7-0.3,5.4c-2,1.7-3.3,0.2-4.8-0.9
		c-5.1-4.1-11.3-6.6-17.8-7.2c-1.7-0.1-3.2-0.5-4.1-2.3C419.7,368.1,414.9,353.6,412.8,338.5z"/>
	<path id="XA34F1FM2Color24" class="st0" d="M287.2,214.3c14.2,0.6,25.7,8.2,35.3,19.2c1.4,1.5,1.3,11.2,0,12.5
		c-2,2-2.9-0.2-3.9-1.3c-5.3-6.6-12-12-19.7-15.7c-4.8-2.3-10-3.8-15.3-4.2c-3.2-0.2-5.3-0.8-5.1-4.9c0.2-3.9,1.3-6.1,5.6-5.6
		C284.9,214.4,285.6,214.3,287.2,214.3z"/>
</g>
</svg>
