<?xml version="1.0" encoding="utf-8"?>
<!-- Generator: Adobe Illustrator 24.1.0, SVG Export Plug-In . SVG Version: 6.00 Build 0)  -->
<svg version="1.1" id="图层_1" xmlns="http://www.w3.org/2000/svg" xmlns:xlink="http://www.w3.org/1999/xlink" x="0px" y="0px"
	 viewBox="0 0 783.9 770.6" style="enable-background:new 0 0 783.9 770.6;" xml:space="preserve">
<style type="text/css">
	.st0{fill:#FFFFFF;stroke:#000000;stroke-miterlimit:10;}
</style>
<g>
	<path id="X3FD6FFM2Gra6OT21" class="st0" d="M552.1,349.7c1.9-28.6-2.7-56.9-4.4-85.3c-0.5-8.3-3.8-16.5-6.1-24.6
		c-3.1-11-6.5-22-9.8-33c-0.4-1.3-0.9-2.5-1.5-3.7c-0.7-1.3-1.6-2.9-3.3-2.5c-2,0.4-1.4,2.4-1.5,3.7c-1.9,19.4-19.1,29.8-35.8,21.7
		c-9.2-4.5-16.5-18.5-13.5-27.2c4.5-13.2,11.8-20,27.1-19.4c6,0.1,11.5,2.9,15.1,7.6c1.1,1.5,2.6,3.2,4.5,1.9
		c1.7-1.2,1.2-3.6,0.4-5.1c-3.7-6.6-6-13.6-8.6-20.6c-0.8-2.1-2-4.6-4.7-4.7c-2.7-0.1-2.6,2.7-3.5,4.3c-3.3,6.1-13.3,7.8-18.6,3.1
		c-2.4-2-4.3-4.7-5.2-7.8c-0.3-1.2-0.9-2.3-2.3-2.2c-1.2,0.1-2.2,1.2-2.1,2.5c0,0,0,0,0,0c0.1,14.2-5.6,27.5-6.5,41.7
		c-1.5,23.3-1,46.6,1.6,69.8c2.3,20,8,38.8,14.9,57.5c5.5,14.8,13.5,28.1,20.7,42c8,15.6,16.5,30.9,24.9,46.3
		c0.8,1.4,2.7,3.4,0.4,4.8c-2.1,1.2-3.1-1.1-4.3-2.5c-10.7-12.3-21.6-24.4-31.4-37.5c-8.7-11.6-16.8-23.5-24.4-35.9
		c-11.3-18.8-20.2-39-26.5-60.1c-4.1-13.5-6.6-27.5-7.5-41.6c-0.9-14.3,0-28.7,2.6-42.8c2.8-14.7,7-29,13.9-42.5
		c1.6-3.1,4-5.7,7.1-7.4c6.5-3.8,13-7.5,18.5-12.6c1-0.9,2.2-2,3.5-1.2s0.2,2.1,0,3.2c-0.3,1.6-1.7,3.3,0.1,4.5
		c1.5,1,3.4,0.2,4.7-0.6c2.8-1.7,5.3-2.3,8.4-0.7c2.8,1.5,4.5,0.3,4.2-3.1c-0.2-2.7,1-3.6,3.2-1.8c7.3,6,15.7,10.1,24.2,13.7
		c11.6,4.8,18.7,13.4,24.4,23.8c3.5,6.3,6.2,12.9,8.1,19.8c0.4,1.6,0.5,3.7,2.7,3.6c2.5-0.1,2.7-2.4,2.6-4.1c-0.5-8-1.1-15.9-2-23.9
		c-1.5-12.2-1.9-24.2,1.2-36.2c1.3-5.1,3.2-9.9,6.6-13.8c3-3.5,2.3-6.2-0.7-9c-12.5-11.5-22.2-25-27.1-41.2
		c-3.7-12.2-4.5-24.7,1-36.9c1.1-2.4,4.6-5.5,1.4-7.9c-2.8-2.2-5.3,1.2-7.7,2.8c-12.9,8.4-22,20.2-29.5,33.3
		c-4.1,7.1-3.7,9.3,2.4,15c8.4,7.8,13.7,17.4,17,28.3c4.1,13.7,8.6,27.3,12.9,40.9c0.3,1.1,1.4,2.2,0.3,3.2c-1.3,1.2-2.5,0-3.6-0.6
		c-9.2-4.9-18.6-9.6-27.6-14.9c-5.1-3-9.9-6.9-12.8-12.3c-2.1-3.9-4.1-4.1-7.2-0.9c-7.3,7.6-16,13.5-25,18.9
		c-4.2,2.3-8.3,5-12.2,7.9c-0.9,0.7-1.9,1.8-3.1,0.9s-0.3-2.1,0.2-3.1c6.3-11.3,9.4-23.8,14-35.7c4.8-12.7,10.1-25.2,22-33.1
		c4.2-2.8,9.1-4.7,10.5-10c0.9-3.3,2.3-6.6,4-9.6c11.3-21.5,28.4-36.7,50.7-46c3.9-1.6,8.4-1.6,12.7-2.2c1.9-0.2,3.7,0.9,4.4,2.7
		c0.8,1.6,0.4,3.4-0.9,4.6c-16.3,18.5-9,37.5-0.9,56.4c2.7,6.3,7.5,10.9,13.2,14.6c2.3,1.5,4.9,2.6,7.5,1.3c2.8-1.4,2-4.3,1.8-6.7
		c-0.8-7.2,2.7-13.1,6.6-18.4c9.3-13,20.8-23.4,37.1-27c8-1.6,16.3,1.8,20.9,8.6c5.3,7.5,6.9,15.3,2.1,23.8S646,81.7,637.7,85.8
		c-7.6,3.9-15.6,6.6-24,8.2c-1.6,0.3-3.5,0.7-3.6,2.8c0,2.4,2.1,2.9,3.8,3.2c7.1,1.1,14-0.1,20.7-2.1c10.8-3.1,21.7-6.3,32.3-10.2
		c10.9-4,22.1-6,33.4-7.7c6.8-0.9,13.7,0.1,19.9,3.1c1.2,0.5,2.8,1.2,2.3,2.8c-0.6,1.9-2.3,0.9-3.4,0.5c-11.2-3.9-21.9-0.5-32.8,2
		c-12.4,2.9-24.1,7.7-36.1,11.4c-10.5,3.3-20.7,7.1-31.9,7.2c-6.2,0.1-11.5-1.4-16.2-5.2c-3.5-2.8-7.7-4.6-12.2-5.3
		c-11.7-2.1-19.7-9.3-25.2-19.4c-4.5-8.3-8.7-16.7-8.6-26.5c0-1.7-0.2-4.2-2.6-4.2s-2.3,2.6-2.7,4.2c-1.7,8.2,1.8,15.6,4.8,22.5
		c6.1,13.7,15.9,24.8,26.7,35.1c3.9,3.7,8.5,4.5,12.9,6c11.6,3.9,20.5,11.4,28.9,19.9c9.3,9.5,16.5,20.9,26.6,29.7
		c0.9,0.8,1.8,1.6,1.2,3s-1.9,1.4-3,1.2c-12.7-2-25.7,0.1-38.2-3.4c-3.4-0.8-6.6-2.2-9.5-4.1c-3.5-2.5-7-1.8-8,2.2
		c-4.1,16-15.6,27.7-23.3,41.6c-1.2,2.1-2.6,4.2-1.7,6.5c2.7,7,2.5,14.4,4.1,21.5c0.4,1.7,0.4,4.3,2.8,4c2.6-0.3,1.5-2.9,1.5-4.6
		c0-7.3-0.3-14.7-0.4-22c-0.1-1.8,0.4-3.7,1.4-5.2c5.1-7.2,9.8-14.7,14.1-22.4c0.7-1.2,1.1-3.3,3-2.7s1.3,2.6,1,3.9
		c-1.8,8.5,0.3,16.5,2.7,24.5c2,6.7,3,13.6,5,20.3c4,13,8.9,25.7,14.5,38.1c4.7,10.5,9.5,20.8,15.2,30.8
		c11.3,20,25.4,38.3,41.9,54.4c14.6,14.2,31.7,25.3,47.1,38.5c1.2,1,2.7,2.6,4.4,1.1s0.2-3.1-0.5-4.5c-4.2-9.5-2.1-15.8,7-20.8
		c4.3-2.4,8.4-3,12.5,0.4c1.5,1.3,3.4,2.6,5.3,0.8c1.6-1.5,0.8-3.4-0.1-5.1c-7-13.2-12.2-27.3-19.2-40.5c-11-20.8-21.6-41.7-35.1-61
		c-7.8-11.2-18.5-20.1-27.4-30.4c-14.7-17.1-32.6-30.9-48.2-47c-2.6-2.7-5.8-4.9-8.8-7.4c-0.5-0.4-0.8-1-0.9-1.6
		c0.1-1,1.1-1.1,1.9-1.1c0.7,0,1.3,0,2,0.1c9.5,2,19.2,2.7,28.8,2.3c12.1-0.6,21.2,5.8,30.5,12c14.7,10,25.3,23.9,35.8,38
		c17.5,23.7,31.9,49.7,42.8,77.1c6.5,16.1,10.6,33.1,14.4,50.3c4,18.1,2.8,36.1,2,54.2c-0.1,2.6,0.5,7-2.9,7c-3.2,0-3-4.5-3-7
		c0-7.3-3.3-13.9-3.9-21.1c-0.1-1.5-0.6-3.2-2.3-3.6c-2-0.4-2.9,1.4-3.6,2.9c-3.2,7.3-8.6,10.7-16.7,9.8c-1.4-0.2-3.3-0.7-3.8,1.3
		c-0.4,1.7,1.1,2.7,2.3,3.6c5.8,4.2,11.6,8.4,17.3,12.7c1.2,0.9,2.4,1.8,3.5,2.9c0.8,0.8,1.9,1.7,0.8,3c-0.8,0.9-1.8,0.4-2.8,0
		c-11.6-5.3-23.3-10.5-34.9-16c-20.6-9.8-40.2-21.6-58.5-35.2c-17.9-13.2-33.9-28.7-47.5-46.2c-9.7-12.3-17.7-25.9-23.7-40.3
		c-4.4-10.7-8.5-21.6-9.5-33.4c-0.1-1.5-0.4-3-0.7-4.4c-0.4-1.7,0-4.4-2.5-4.1s-1.5,2.9-1.6,4.6c-0.8,10.3,1.9,20.2,2.9,30.3
		c1.9,18.4,1.6,37-1.1,55.3c-0.9,5.9-0.9,12-1.8,17.9c-1.2,8.3-3.7,16.5-6,24.6c-4.8,16.2-11.9,31.4-20.2,46.1
		c-1.1,2-1.8,5.8-4.8,4.6s-1-4.7-0.2-6.6c3.2-8,3.6-16.5,6-24.7c0.4-1.4,0.6-2.9,0.5-4.4c-0.2-3-1.7-3.9-4.3-2
		c-1.6,1.2-3.1,2.6-4.5,4c-3.8,3.6-8.1,4.7-12.9,2.6s-8.9-4.8-9.7-10.8c-1.8-13.1,7.1-21.6,18.7-17.6c4.5,1.6,7.4,4.9,9.2,9.2
		c0.6,1.4,0.2,3.9,2.7,3.3c1.8-0.5,1.9-2.5,1.9-4.2C552.1,363.7,552.1,356.7,552.1,349.7z M654.8,59.2c0-10.7-11.5-19.5-20.6-16.3
		c-14.5,5.2-24.8,15-32.8,27.8c-2.8,4.2-3.8,9.3-2.9,14.3c1,5.4,3.4,6.7,8.4,4.8c1.7-0.6,3.5-1,5.3-1.3c11.9-2.2,23.2-7.1,33-14.4
		C649.9,70.6,654.8,66.3,654.8,59.2z"/>
	<path id="XFF3366M2Color4_1_" class="st0" d="M525.5,556.1c-0.3-9.1,0.9-21.5,7.1-33.1c6.8-12.6,23.6-19.5,37.6-16.5
		c12.3,2.7,23.5,8.4,35.8,10.8c10.8,2.1,21,0.9,30.4-4.4c17.9-9.9,45.6-5.2,59.8,7.1c10.6,9.2,13.4,21.4,10.6,35
		c-2.5,11.9-8.1,22.5-13.7,33.1c-5.9,11.2-8.5,23-9.2,35.4c-1.1,18.4-2.6,36.9-5.6,55.1c-1.9,11.5-7.5,18-18.8,20.4
		c-19.9,4.1-40.3,5.3-60.6,3.6c-15.7-1.2-30.4-5-44.2-12.5c-3.9-2.1-6.3-4.8-7-9.5c-2.7-16.8-7.7-33-11.4-49.6
		C530.9,607.7,525.4,584.1,525.5,556.1z M629,631.1c0,9.6,0,19.3,0,28.9c0,1.3,0,3,1.6,3.2c1.8,0.2,1.9-1.6,2.1-2.8
		c0.4-2,0.6-4,0.7-6c0.5-17.8,3.2-35.4,8-52.6c5.2-18.2,7-36.6,0.6-55c-1.9-5.5-4.4-10.8-8.7-14.9c-1.2-1.1-3-3.2-4.6-1.5
		c-1.5,1.5,0.8,2.9,1.7,4.1c7.6,10.8,11,22.2,6.9,35.3c-2.4,7.6-4.4,15.3-6.5,23C627.5,605.5,628.2,618.3,629,631.1L629,631.1z
		 M587.5,517.3c-0.8,0.4-1.6,0.8-2.4,1.3c-4.4,3.1-7.4,7.8-8.3,13.1c-3.1,16.8-0.8,33.4,1.8,50.1c1.6,10.2,2.6,20.4,4,30.7
		c0.3,2-0.9,5.4,1.7,5.4c2.3,0,1.7-3.5,1.9-5.5c1.4-15.1-0.7-30.2-0.8-45.4c-0.1-15.8-4.8-31.9,4.1-46.9
		C590.2,518.7,589.7,517.5,587.5,517.3z"/>
	<path id="XE655FFM2Gra4OT30_3_" class="st0" d="M185.6,376.4c-27.6,0.4-50.7-6.4-69.7-24.2c-16-15-21.7-33.9-19.7-55.3
		c1.5-15.5,6.9-30,11.8-44.7c4.7-13.9,8.9-27.9,13.5-41.7c4.1-12.5,8.6-24.8,10.8-37.8c2.5-15,3-30.2,1.5-45.3
		c-0.1-0.8-0.3-1.6-0.4-2.5c0-1.9-1.2-4.5,1.1-5.4c2-0.8,2.9,1.8,4,3.1c20.7,24.3,39,50.6,58.8,75.7c13.9,17.6,29.2,34.1,42.4,52.3
		c12.2,16.8,20.3,35.4,20.1,56.4c-0.1,15.1-2.1,30.2-10.3,43.6c-5.3,8.6-13.3,14-22.2,18C213.5,374.8,198.7,376.6,185.6,376.4z
		 M108.2,296.5c0.1,15.9,4.1,32.3,15.4,46.2c14.2,17.6,32.9,26.2,55.5,25.1c17-0.8,31.2-8.5,42.9-20.9c7.5-7.9,12.9-17.3,17.8-27
		c0.7-1.5,1.8-3.2,0.1-4.5c-1.5-1.1-2.8,0.2-4,1c-0.9,0.5-1.7,1.1-2.5,1.7c-11.8,8.4-25.2,14.3-39.3,17.5
		c-25.2,5.7-46.5-3.1-58.4-24.5c-9.4-17-13.4-35.4-10.5-54.9c0.5-2.8,0.5-5.7-0.1-8.4c-0.2-1-0.7-2-1.8-2.1
		c-1.4-0.2-2.1,0.8-2.5,1.9c-0.7,1.9-1.1,3.9-1.9,5.7C112.6,267,109,281.6,108.2,296.5z"/>
	<path id="XE655FFM2Gra4OT30_2_" class="st0" d="M0.1,268.5c-0.8-24.9,9.1-45.7,23.2-65.1c9.3-12.8,20-24.5,30-36.7
		c6.8-8.3,16.3-13,25.3-18.4c15.3-9.2,24.6-22.5,25.5-40.4c0.4-7.9-2.2-15.8-4.7-23.4c-9-27-28.8-44.9-51.4-60.4
		c-4.8-3.3-9.1-7.3-14.5-9.7c-1.2-0.4-1.9-1.6-1.7-2.8c0.3-1.7,1.7-1.8,3.1-1.9c5.8-0.4,11.6-0.9,17.4-1.3
		c8.6-0.6,16.6-2.6,23.8-7.5c2-1.4,4.2-1.1,5.5,1.3c0.9,1.4,1.5,3,1.8,4.6c2.7,18.2,10.8,34.4,18.4,50.9c7,15.1,14.3,30,21.4,45.1
		c1.9,4,2.1,8.4,2.6,12.7c2.8,27.1,2.2,53.9-6.2,80.1c-3.9,12-8.2,23.9-12.4,35.8c-6.3,17.7-12.9,35.3-17.3,53.6
		c-4.7,19.2-1.8,37.7,8,55c2.4,4.2,4.4,8.6,7.8,12.1c0.9,1,1.8,2.2,0.9,3.6s-2.4,0.7-3.6,0.7c-14.8-0.1-29-3.4-42.9-8.3
		c-12.8-4.3-24.4-11.5-34-21c-6.6-6.6-13-13.2-17.4-21.7C2.4,293.9-0.5,281.2,0.1,268.5z M10.3,269.2c1.1,18.4,10.3,37.9,30.4,51.2
		c14,9.3,29.1,8.8,38.7-2.9c3.5-4.3,2.5-7.8-2.9-9c-17.1-3.9-35.3-26.3-35.6-43.9c-0.1-8.3,0-16.6-0.1-25c-0.3-15,5-28.6,11-41.9
		c3-6.8,7-13.2,11.8-19c0.8-0.9,1.5-2,0.7-3.1c-1-1.3-2.4-1.1-3.6-0.4c-1,0.6-1.9,1.3-2.7,2.2c-13.6,13.7-25.7,28.7-35.1,45.7
		C15.5,235.9,10.2,249,10.3,269.2L10.3,269.2z"/>
	<path id="XFF3366M2Color4" class="st0" d="M581.5,770.4c-18.6,1.2-36.2-4.2-53.4-12.1c-13.9-6.4-28.2-12-41.1-20.3
		c-5.4-3.3-10.2-7.5-14.2-12.5c-6.2-7.9-6.2-16.4,0-24.2c0.4-0.6,0.8-1.1,1.3-1.5c7.3-5.4,12.2-12.5,16.5-20.6
		c4-7.7,14.8-9.2,25.1-5.6c14.1,5,25.9,14.1,38.5,21.8c20.3,12.4,41.9,20.4,66.2,17.8c14.2-1.6,28.1-5.3,41.7-9.8
		c7.7-2.6,15.5-4.8,23.3-7.2c8-2.5,14.9-7.3,22.1-11.4c23.7-13.5,47.3-27.2,70.9-40.9c0.6-0.3,1.1-0.8,1.7-1.1
		c1.2-0.6,2.5-1.6,3.5-0.1c0.8,1.2-0.4,2.2-1.2,3c-4.3,4-8.7,7.8-12.8,11.8c-20.5,19.8-41.1,39.4-61.4,59.4
		c-20.7,20.3-45.2,34.7-72.3,44.1C618.5,766.9,600.6,771.2,581.5,770.4z M492.6,695.9c-0.8,0-1.7,0.1-2.5,0.3
		c-2.1,0.8-5.4,1-5.1,3.8s3.5,1.8,5.4,1.8c5.9-0.3,11.2,1.7,16.3,4.1c14.5,7,27.1,17.4,43.1,21.5c8.2,2.1,15.6,6.5,24.1,7.9
		c4.2,0.7,8.5,1.5,12.7,2.2c1.3,0.2,3.1,0.6,3.5-0.9c0.6-1.9-1.4-1.9-2.6-2.2c-3.1-0.7-5.9-2-9-2.9c-7.6-2.1-15.4-4-22.4-8.1
		c-12.9-7.6-26.2-14.4-39.9-20.3C508.7,699.9,501.1,696.5,492.6,695.9z"/>
	<path id="XE655FFM2Gra4OT30_1_" class="st0" d="M359.9,236.4c-1,16-6.9,34.9-25,47.9c-1.3,0.9-2.4,2.7-4.3,1.8s-1.2-2.9-1.2-4.5
		c-0.6-15.2-5.6-29-13.4-41.8c-13.4-22-31.5-39.2-52.7-53.8c-22.2-15.2-46.2-27-70.8-37.5c-9.1-3.9-18.2-8.1-28-10.3
		c-8-1.7-12.1-7.9-16.4-13.8c-5.1-7-10.2-14-16.2-20.3c-6-6.3-7.1-14.9-10.8-22.4c-5-10.3-9.7-20.8-14.3-31.3c-4-9-7.7-18-11.5-27
		c-1.6-3.8,1-5.2,3.8-5.2c7.3,0.1,14.6,1,21.7,2.6c2.9,0.7,5.6,2.2,8.5,2.8c4.3,0.8,6.7,3.5,6.9,7.4c0.3,6,2.4,11.4,4.1,16.9
		c5.3,16.8,10.6,33.5,20.3,48.6c12.8,20,30.3,33.6,52.9,40.9c17.7,5.8,35.9,8.6,54.2,10.4c12,1.2,23.9,2.6,35.3,5.8
		c24.5,6.8,41.1,23,50.6,46.6C357.6,210.2,359.9,220.5,359.9,236.4z M354.5,231.9c0.3-5.8-0.1-11.7-1-17.4c-1-4.6-2.4-9-4.2-13.3
		c-7.1-18.4-20.9-30-38.3-38c-1.4-0.6-3.3-1.9-4.4,0.2c-0.9,1.7,0.8,2.7,1.9,3.6c10.9,8.9,18,20.4,22.3,33.6
		c4.7,14.7,6.2,29.2-1.5,43.5c-3.1,5.7-1.6,9.3,4.2,12c6,2.8,13.3,0.2,17.2-5.2C354.9,244.8,354.7,237.9,354.5,231.9z"/>
	<path id="XB6D21FM2Gra4OT29_5_" class="st0" d="M203.6,725.7c-6.8,1.5-13.1,4.7-20.2,5.1c-0.9,0-1.7,0.5-1.9,1.4
		c-0.2,1.3,0.9,1.8,1.9,1.8c2.6,0.3,5.3,0.5,7.9,0.6c2.8,0,4,1.2,3.6,4c-1.2,8.3-1,16.6-1.1,24.9c-0.1,4.1-2.1,5.8-6,5.2
		s-8.9,1.3-12.2-1.1c-3.6-2.5-1.4-7.9-2.8-11.7c-2.1-5.5-1.7-11.5-2.9-17.2c-0.7-3.1,0.1-5.7,3.9-6.2c2.2-0.3,3.3-1.5,4.3-3.6
		c2.2-4.9,6.9-7.9,9.6-12.6c9.1-16.1,12.2-33.6,13-51.7c1.1-25.5-0.1-51,1.4-76.4c1.2-19.1,3.1-38.1,10.5-56.2
		c7-17,19.4-28.7,35.1-37.5c1-0.6,2.2-1.3,3.2-0.3c1.4,1.6-0.1,2.7-1,3.9c-6.8,9.3-11.8,19.8-14.6,30.9c-1.8,7.3-2.2,14.9-1.2,22.3
		c2.2,18.3,5.2,36.6,7.2,55c1.8,17,5.7,33.9,3.7,51.2c-0.2,3.2-0.8,6.3-1.7,9.3c-0.9,2.3-1,4.9-0.1,7.2c2,0.3,1.9-1.2,2.2-2.2
		c2.5-10.1,4.9-20.3,10.4-29.3c2-3.4,4.8-6.4,7.3-9.5c0.6-0.8,1.5-1.5,2.6-1s1,1.6,0.9,2.6c-2.5,16.3-4.8,32.5-10.2,48.2
		c-3.7,10.9-8.8,20.8-16.7,29.2s-17.6,13.1-28.1,16.4c-2.9,0.9-6.8,2.5-7.9-2.7c2.6,0.7,4.9-0.2,7.1-1.4c14.1-7.1,22.6-19,28.4-33.2
		c0.6-1.4,1.2-3.1-0.3-4.5c-0.4,0.1-0.7,0.4-1.1,0.6c-0.3,0.4-0.6,0.8-0.7,1.3c-5,12.2-12,22.8-23.1,30.4
		C210.5,721.2,206.3,722.4,203.6,725.7z"/>
	<path id="XE655FFM2Gra4OT30" class="st0" d="M320.9,281.7c-0.8,22.9-12.8,40-31.2,53.4c-7,5.1-15.3,7-23.4,9.3
		c-1.3,0.4-2.7,0.8-3.7-0.6s0.1-2.4,0.5-3.7c5-14.8,8-29.4,4.2-45.3c-3.8-16.4-10.5-31.9-19.6-46C236,231,221.9,215,208,198.9
		c-13.6-15.6-26.4-31.7-38.6-48.3c-0.9-1.3-3.5-2.7-1.9-4.5c1.3-1.4,3,0.5,4.4,1.1c13.9,5.9,28,11.4,41.8,17.7
		c37.2,16.9,70.4,38.9,92.9,74.1C314.7,251.8,319.9,265.7,320.9,281.7z M316.1,279.2c-0.2-1.4-0.3-3.1-0.5-4.7
		c-1.7-14.9-9.5-27.1-17.5-39.2c-1.1-1.6-2.3-4-4.5-2.7c-2,1.2-1.1,3.8,0,5.4c4.4,6.5,4.9,14,6.3,21.3c1.7,9.1-1.2,17.4-4.6,25.5
		c-3,7.1-9.2,11.7-15.6,15.7c-2,1.2-3.7,2.7-3.7,5c-0.1,4.3,0.3,8.5,4.2,11.6c4.1,3.2,8.6,4.8,13.5,2.9c4.5-1.8,8.6-4.5,11.9-8
		C314.2,302.7,314.7,290.9,316.1,279.2L316.1,279.2z"/>
	<path id="XB6D21FM2Gra4OT29_4_" class="st0" d="M129.8,671.2c-1.1,2-1.4,4.4-1,6.7c2.4,18.5,8,35.4,24.4,46.7
		c2,1.4,4.3,2.5,6.4,3.8c1,0.6,3.1,0.5,2.4,2.5c-0.5,1.3-2,1.1-3.1,0.9c-10.9-1.9-21.1-4.8-27.3-15.2c-5.8-9.6-7.6-20.3-8.2-31.1
		c-0.5-11.1-1.8-22.2-3.6-33.2c-0.3-1.5-1.4-3.8,0.8-4.4c2.3-0.7,2.6,1.9,3.6,3.4c1.9,3.1,0.9,7.3,3.4,10.2c1.8-0.5,1.6-1.8,1.7-2.9
		c2.2-23.4,4-46.8,2.6-70.3c-0.9-14-2.7-27.8-8.4-40.8c-1.2-2.8-2.7-5.3-4.6-7.7c-0.9-1.1-2.8-1.8-2-3.6s2.6-1.1,4.1-1
		c17.3,1.8,30.4,9.9,38.4,25.7c5.3,10.4,6.9,21.4,6.1,33c-1.1,15.4-2.6,30.8-0.6,46.4c1.8,14.1,6.6,27.6,14.1,39.6
		c1.9,3.1,3.9,6.2,5.7,9.4c4.7,8.2,5.1,16.2-0.4,24.3c-3.1,4.7-6.6,9.2-10.6,13.2c-2.9,2.9-6,3-9.6,1.1
		c-13.3-7.2-21.4-18.7-26.5-32.5c-2.5-6.8-5.2-13.7-5.8-21.1C131.6,673,131.5,671.7,129.8,671.2z"/>
	<path id="XB6D21FM2Gra4OT29_3_" class="st0" d="M349,684.3c1.5-6.2,3.5-11.9,6.8-17c1.5-2.3,2.5-6.5,5.5-5.4s0.6,4.8,0.1,7.1
		c-2.9,15.3-4.9,31-14.8,44c-5.8,7.6-13.5,12.2-22.3,15.2c-0.1,0-0.3,0.2-0.5,0.1c-6.4-2.1-12.7,0.5-19,0.7c-2.1,0.1-4-1.2-2-3.4
		c12.3-13,13.6-29.5,14.3-46c0.5-13.5,0.4-27,0.5-40.5c0-13.3,1.8-26.6,5.1-39.5c3.7-14.1,12.4-24.4,24.4-32.2
		c1.1-0.7,2.5-2,3.6-1.1c1.5,1.3,0,2.9-0.8,3.9c-12.4,15.7-10.2,33.5-7.9,51.6c2.4,18.8,6.8,37.4,4.8,56.5
		C346.7,680.3,346.3,682.5,349,684.3z M340.1,706.9c-3.7,5.2-8.1,9.6-12.1,14.4C333.5,717.7,338.8,713.9,340.1,706.9z"/>
	<path id="XB6D21FM2Gra4OT29_2_" class="st0" d="M83.7,657.1c0-16.5,0.5-33,3.8-49.2c3.4-16.8,11.9-30.2,26.6-39.3
		c1-0.6,2.1-1.2,3.2-0.2c0.9,0.9,0.3,1.9-0.3,2.7c-12.5,15.6-11.2,33.2-8.5,51.4c2.6,17.6,6.3,35.1,5.6,53
		c-0.7,19.3-6.5,36.2-23.6,47.4c-0.9,0.6-1.9,1.2-1.2,2.3s1.8,0.6,2.8,0.3c7.6-2.8,14.4-6.4,16.1-15.4c0.8-4.2,3.4-7.1,6.1-10.1
		c0.7-1,2-1.4,3.1-0.9c1.4,0.7,0.9,1.9,0.7,3.1c-0.4,1.9-0.8,3.9-1,5.9c-1.2,15.8-14.6,24.5-29.5,19.3c-3.5-1.2-6.1,1.2-9.2,1.3
		s-6.7,3.1-8.8-0.1s2.5-4.4,3.9-6.6c7.2-10.6,9.2-22.8,10-35.1C84.3,677.1,83.7,667.1,83.7,657.1z"/>
	<path id="XB6D21FM2Gra4OT29_1_" class="st0" d="M36,648.8c0.7-11.5,0.6-23-2.1-34.3c-1.2-5.1-2.5-10-5.6-14.3
		c-0.8-1.1-1.8-2.3-1.1-3.6c0.9-1.7,2.6-1,4-0.8c12.8,1.8,22.9,11.3,26.7,24c2.5,8.3,1.6,16.5,0.7,24.7c-1.4,13.8-0.3,27.2,4.7,40.3
		c2.5,6.4,6.2,12.2,9.8,17.9c2.6,4.1,2.3,7.8,0.6,11.8c-1.9,4.5-5.3,8-8.2,11.9c-0.2,0.3-0.5,0.5-0.8,0.7
		c-2.5,1.9-14.6,2.3-17.5,0.7c-8-4.7-13-11.8-16.2-20.2c-5.2-13.7-7.7-28.1-9.6-42.6c-0.7-5.1-2-10.1-2.9-15.2
		c-0.2-1.2-1.2-2.7,0.4-3.6c1.4-0.8,2.5,0.4,3.5,1.3c5.6,5.3,8.4,11.8,9,19.4c0.2,2.4-0.7,6.7,2.3,6.7c2.9-0.1,2-4.4,2.1-6.8
		C36.2,660.8,36,654.8,36,648.8z M35.2,683.2c-5.1,12.5,6.1,39.6,17.4,41.1C41.4,712.9,37.2,699,35.2,683.2L35.2,683.2z"/>
	<path id="X78D111M2Color15_5_" class="st0" d="M478.7,265.8c-1.6-18.2,16.9-33,34.5-31.7c17.2,1.3,29.8,17,30,32.4
		c0.2,21.3-17,33.5-32.6,33.1C491.6,299.1,477.4,285.8,478.7,265.8z"/>
	<path id="X78D111M2Color15_4_" class="st0" d="M671,320.1c-20.6,0.7-32.9-17.2-32-33.2c1-18.8,14.3-30.8,32.4-31
		c20.3-0.3,32.2,17.8,32,34.4C703.1,307.1,688,320.8,671,320.1z"/>
	<path id="XB6D21FM2Gra4OT29" class="st0" d="M293.2,632.3c-0.6,5.2-1.6,10.8-2,16.4c-1.4,18.4,3.6,36.8,14.2,51.9
		c3.8,5.5,3.5,10.9-0.1,16.3c-1.1,1.7-2.1,3.4-3.3,5c-6.3,8.4-6.8,8.9-16.6,1.1c-6.8-5.4-10.1-13.3-13.4-21.2
		c-6.3-15.2-3.7-30.7-2.7-46.3c1.1-15.2,0.1-30.6-3.1-45.5c-0.8-4.1-2.6-7.9-5.2-11.2c-0.7-0.9-1.8-1.8-1.2-3
		c0.7-1.6,2.2-1.3,3.5-1.2c9.5,1,17.1,5.3,22.4,13.3C290.6,615.1,292.9,623.2,293.2,632.3z"/>
	<path id="X376600M2Color16_3_" class="st0" d="M571,502c4.3-1.9,7.6-1.7,10.8-1.8c3.8-0.2,7.7-0.2,11.4-1.3
		c7.1-2.2,8.8-6.7,5.5-13.5c-3.2-6.5-7.8-12-12.3-17.6c-7.8-9.7-7.2-11,4.6-14.5c5.6-1.7,11.2-1.1,16.8-1.5c3.7-0.2,4.1,2.3,4.7,5.1
		c2.6,13.1,7.9,24.9,17.2,34.8c5.4,5.8,11.7,8.5,19.6,7.7c1.2-0.1,2.3-0.2,3.5-0.1c1.1,0,2.7-0.3,2.9,1.1s-1.4,1.5-2.5,1.8
		c-0.3,0.1-0.7,0.1-1,0.1c-7.1,0.7-14,2.9-20.3,6.4c-11.4,6.4-23.3,4.2-34.8,0.5C588.7,506.3,579.9,503.9,571,502z"/>
	<path id="X78D111M2Color15_3_" class="st0" d="M707.2,316.4c16,0,24.9,11.2,25.7,25.1s-11.3,25.7-25,25.9
		c-11.2,0.1-25.7-13.5-25.7-25C682.1,328.5,693.7,316.5,707.2,316.4z"/>
	<path id="X78D111M2Color15_2_" class="st0" d="M522.1,306.4c13.5,0,23.1,9.9,24.1,24.1c0.9,12.3-11.3,25.2-23.6,25.1
		c-13.5-0.1-25-8.4-25.4-25.6C497,318.5,505.7,306.1,522.1,306.4z"/>
	<path id="X78D111M2Color15_1_" class="st0" d="M635.3,257.9c-14.8-1-23.2-10.7-22.2-26c0.6-9.9,10.3-20.5,24.6-19.6
		c12.1,0.8,21.8,11.6,21.1,23.5C658.1,248.8,647.6,260.5,635.3,257.9z"/>
	<path id="X376600M2Color16_2_" class="st0" d="M457.6,702.9c-0.8-4.2,2.4-8.3,4.4-12.6c3.5-7.7,3-13.1-2.9-19.1
		c-6-6.5-12.9-12.1-20.5-16.7c-5.4-3.2-5.7-4.6-3.2-10.5c0.1-0.2,0.1-0.3,0.2-0.5c1.2-2-0.2-5.8,3.1-6.2s3.9,3.2,5.4,5.2
		c4.3,5.8,8.5,11.6,13.3,16.9c3.7,4.1,8.1,6.7,13.9,6.7c6,0,12,0.3,17.9-0.8c1.7-0.3,4-0.8,4.9,1.3c0.8,2-1.3,2.9-2.7,3.7
		c-5.1,3-9.1,6.4-11.1,12.5c-1.6,4.8-6.5,7.9-10.6,11c-4.2,3.1-7.2,7.6-8.5,12.6c-0.4,1.5-0.1,4.1-2.3,3.7c-2-0.3-1.1-2.8-1.3-4.3
		C457.6,704.9,457.6,703.9,457.6,702.9z"/>
	<path id="X376600M2Color16_1_" class="st0" d="M72,768.5c-1.4-0.1-2.7-0.1-4.1,0c-3,0.3-4.1-0.9-4.6-3.8
		c-1.2-7.5-2.5-15.1-4.2-22.5c-2.2-9.1,0.7-10.8,9.9-9.3c3.9,0.6,7.7,1.9,11.7,1.8c3.6-0.1,4.2,1.6,3.4,4.8
		c-1.8,7.2-1.8,14.5-1.7,21.8s-0.4,7.8-7.5,7.4L72,768.5z"/>
	<path id="X376600M2Color16" class="st0" d="M315.1,768.9c-0.8-0.1-1.6-0.3-2.5-0.3c-10.2-0.9-10.3-0.9-12.4-10.8
		c-1.3-6.2-2.5-12.4-3.5-18.6c-0.9-5,1.6-7.8,6.6-6.9c5.5,1,10.9,2.7,16.7,2.4c2.4-0.1,3.1,1.8,2.5,3.8c-2.4,8.3-2,16.7-2,25.2
		C320.6,767.5,319,769.3,315.1,768.9z"/>
	<path id="X78D111M2Color15" class="st0" d="M620.9,193.3c0,5.1-4.8,10.1-9.7,10.1s-10-5.4-9.9-10.7c0.1-5.4,4.6-9.8,10-9.8
		C616.8,183.1,620.8,187.3,620.9,193.3z"/>
	<path id="XB6D21FM2Gra3OT28_75_" class="st0" d="M212.5,516.1c-0.1,5.3-4.4,9.5-9.7,9.4c-5.1-0.1-9.1-4.2-9.1-9.3c0,0,0,0,0,0
		c0.1-5.2,4-8.8,9.4-8.8C208,507.5,212.6,511.8,212.5,516.1z"/>
	<path id="XB6D21FM2Gra3OT28_74_" class="st0" d="M178.2,426.6c-5.1-0.1-9.2-4.2-9.4-9.2c0-4.4,4.5-9,9-9.1c5.2,0,9.6,4.1,9.9,9.3
		C187.9,422.2,183.2,426.6,178.2,426.6z"/>
	<path id="XB6D21FM2Gra3OT28_73_" class="st0" d="M170.4,461.9c-0.1-5.5,3.3-9.2,8.7-9.5c4.9-0.2,10,4.4,10,9.1
		c-0.1,4.7-4.5,9.1-9.3,9.2C174.7,471,170.5,467,170.4,461.9C170.4,462,170.4,462,170.4,461.9z"/>
	<path id="XB6D21FM2Gra3OT28_72_" class="st0" d="M183.3,625.6c-4.4,0.1-9.1-4.2-9.3-8.7c-0.2-4.6,4.2-9.4,9-9.6
		c5.2-0.2,9.5,3.8,9.7,9c0,0.1,0,0.2,0,0.2C192.9,621.4,188.6,625.5,183.3,625.6z"/>
	<path id="XB6D21FM2Gra3OT28_71_" class="st0" d="M191.7,572.8c-0.1,4.5-4.7,8.8-9.3,8.7c-5,0.1-9.1-4-9.2-9c0-0.2,0-0.4,0-0.7
		c0.2-4.8,4.4-8.9,9-8.8C187.5,563.2,191.7,567.5,191.7,572.8z"/>
	<path id="XB6D21FM2Gra3OT28_70_" class="st0" d="M180.5,496.7c5.1,0,9.3,4.2,9.3,9.3c0,0.1,0,0.2,0,0.2c0,4.9-4.2,8.8-9.5,8.8
		c-4.9,0-9.3-4.4-9.3-9.1C171.1,501.3,175.9,496.7,180.5,496.7z"/>
	<path id="XB6D21FM2Gra3OT28_69_" class="st0" d="M181,537.2c-4.5,0.1-9.2-4.3-9.3-8.8c-0.1-5.1,3.9-9.3,9-9.4
		c5.2-0.1,9.9,4.2,10,9.2C190.8,532.7,186,537.1,181,537.2z"/>
	<path id="XB6D21FM2Gra3OT28_68_" class="st0" d="M181.6,558.9c-5.3,0-9.3-3.9-9.2-9c0.1-4.9,4.1-8.8,9-8.9c5-0.1,9.7,4.1,9.9,8.7
		C191.5,554.7,186.9,559,181.6,558.9z"/>
	<path id="XB6D21FM2Gra3OT28_67_" class="st0" d="M156.1,419.9c5.1-0.1,9.3,4,9.4,9.1c0.1,5-3.8,9.2-8.8,9.4c-4.6,0.1-9.6-4.5-9.6-9
		C147.1,424.6,151.5,419.9,156.1,419.9z"/>
	<path id="XB6D21FM2Gra3OT28_66_" class="st0" d="M156.9,460.1c-5.3-0.1-9.3-4-9.2-9c0.1-5,4.2-8.7,9.6-8.7c4.6,0,9.1,4.3,9.1,8.9
		C166.5,456,162,460.1,156.9,460.1z"/>
	<path id="XB6D21FM2Gra3OT28_65_" class="st0" d="M210.4,449.7c0.1,5.4-3.8,9.3-9.4,9.5c-4.6,0.1-9.4-4.6-9.3-9.3
		c0-4.6,4.8-8.9,9.7-8.9c4.8-0.1,8.9,3.7,9,8.5C210.3,449.6,210.3,449.7,210.4,449.7z"/>
	<path id="XB6D21FM2Gra3OT28_64_" class="st0" d="M201.9,481c-5.1,0-9.6-4-9.6-8.7c-0.1-5,4.7-9.1,10.3-9.1c4.5,0,8.6,4.5,8.5,9.2
		C211,477.3,206.9,481,201.9,481z"/>
	<path id="XB6D21FM2Gra3OT28_63_" class="st0" d="M202.6,503.4c-4.9,0-9.4-4.3-9.5-9.1s4.2-9.1,9.3-9.2c5.1-0.1,9.8,4.7,9.7,9.5
		C211.9,498.8,206.9,503.4,202.6,503.4z"/>
	<path id="XB6D21FM2Gra3OT28_62_" class="st0" d="M180.1,474.9c5.6,0.1,9.3,4,9.1,9.6c-0.1,4.5-4.7,8.6-9.4,8.5
		c-5-0.3-9-4.4-9.1-9.4C170.8,478.3,174.5,474.8,180.1,474.9z"/>
	<path id="XB6D21FM2Gra3OT28_61_" class="st0" d="M200.4,436.8c-5.4,0-9.1-3.9-9-9.2c0.1-4.5,4.7-9.1,9-9c5,0.1,9.7,4.7,9.6,9.6
		C209.9,433.3,205.9,436.8,200.4,436.8z"/>
	<path id="XB6D21FM2Gra3OT28_60_" class="st0" d="M158.2,486.5c4.9-0.1,9.7,4.3,9.6,8.8c-0.1,4.8-5,9.3-10,9.2c-4.8,0-8.7-4-8.7-8.8
		c0-0.1,0-0.1,0-0.2C149.1,490.2,152.7,486.6,158.2,486.5z"/>
	<path id="XB6D21FM2Gra3OT28_59_" class="st0" d="M167.2,473.1c0.1,5-4.4,9.1-9.8,9.1c-4.8-0.2-8.8-4-9.2-8.8
		c-0.1-4.3,4.9-9.3,9.4-9.4S167.1,468.6,167.2,473.1z"/>
	<path id="XB6D21FM2Gra3OT28_58_" class="st0" d="M170.1,439.3c0.1-5.4,3.4-8.8,8.6-8.8c4.9,0,10.1,4.9,9.9,9.3
		c-0.2,4.6-4.8,8.6-9.8,8.6C173.1,448.4,170,445.1,170.1,439.3z"/>
	<path id="XB6D21FM2Gra3OT28_57_" class="st0" d="M175.7,660.9c-0.3-5,3.6-9.2,8.5-9.5c0.1,0,0.2,0,0.2,0c5.2,0.1,9.4,4.2,9.7,9.4
		c0,4.7-4.3,8.7-9.6,8.8c-4.7,0.2-8.6-3.5-8.8-8.2C175.7,661.3,175.7,661.1,175.7,660.9z"/>
	<path id="XB6D21FM2Gra3OT28_56_" class="st0" d="M168,517.7c0,5.4-3.7,8.7-9.3,8.7c-5.5-0.1-8.9-3.3-9-8.5c0-5.2,4.2-9.5,9.4-9.5
		C164.1,508.5,168,512.7,168,517.7z"/>
	<path id="XB6D21FM2Gra3OT28_55_" class="st0" d="M184.4,629.7c4.7,0,9,4.1,9.1,8.7c-0.1,5-4.2,9.1-9.2,9.2c-5-0.1-9.9-4.9-9.7-9.4
		C174.9,633.4,179.2,629.7,184.4,629.7z"/>
	<path id="XB6D21FM2Gra3OT28_54_" class="st0" d="M192,594.8c-0.1,5.2-4,8.6-9.5,8.5c-5.4-0.1-9-3.9-8.8-9.2c0.2-5.3,4-8.6,9.6-8.5
		C188.6,585.6,192.1,589.3,192,594.8z"/>
	<path id="XB6D21FM2Gra3OT28_53_" class="st0" d="M280.7,536.9c0-2.5,0.7-4.4,2.8-5.6c3-1.8,2.8-3.4-0.2-5c-2.6-1.3-3.4-3.6-2.8-6.3
		c0.6-2.7,2.8-4.8,5.5-5.2c2.7-0.6,4.3,1.3,5.7,3.2c2.2,2.8,1.7,5.5-1.1,7.3c-4.5,2.9-2.4,4.8,0.6,6.9c2.2,1.3,2.9,4.2,1.5,6.4
		c-0.1,0.1-0.1,0.2-0.2,0.3c-1.5,2.3-3.4,4.8-6.8,3.7C282.9,541.8,280.6,540.2,280.7,536.9z"/>
	<path id="XB6D21FM2Gra3OT28_52_" class="st0" d="M158.8,530.4c5.1-0.1,9.7,3.9,9.8,8.7c0.1,4.8-3.8,9.6-8.2,9.8
		c-3.2,0.2-10.4-7-10.4-10.3C150,535,154.9,530.5,158.8,530.4z"/>
	<path id="XB6D21FM2Gra3OT28_51_" class="st0" d="M69,539c2.5,0.7,4.8,1.6,5.9,4.1c1.2,2.4,0.4,5.2-1.8,6.7c-3.2,2.2-3.6,3.7,0.1,6
		c3.3,2,3.4,5.9,1,8.6c-3.1,3.4-6.3,3.5-9.3,0.1c-2.5-2.8-2.4-6.6,0.8-8.6c3.5-2.2,3.3-3.6,0-5.6c-2.5-1.4-3.5-4.4-2.4-7
		C64.2,540.7,66.5,539.8,69,539z"/>
	<path id="XB6D21FM2Gra3OT28_50_" class="st0" d="M194.4,539.8c-0.2-4.1,0.9-6.6,3.4-8.4s5.2-3.2,7.8-1.5c3,2,0.5,4.7-0.3,7.1
		c-0.5,1.6-1.2,3.1-1.6,4.7c-0.5,2.1-0.3,4.6-3,5.1c-2.7,0.5-4-1.9-5.3-3.8C195,542,194.6,540.9,194.4,539.8z"/>
	<path id="XB6D21FM2Gra3OT28_49_" class="st0" d="M304.2,613.3c2.3-0.1,6.6,4.1,6.6,6.5s-4,7.4-6.2,6.9c-3.4-0.7-6.2-2.5-6.5-6.5
		C297.9,617.5,301.6,613.4,304.2,613.3z"/>
	<path id="XB6D21FM2Gra3OT28_48_" class="st0" d="M301.6,506.9c3.2,0.4,5.9,1.7,6.4,5.6c0.4,3.1-3.4,7.5-6.3,7.1
		c-3.5-0.2-6.3-3.1-6.3-6.6C295.1,509.3,297.8,507.4,301.6,506.9z"/>
	<path id="XB6D21FM2Gra3OT28_47_" class="st0" d="M323.6,535.7c0,3.8-2.5,5.7-5.8,6.2c-3.1,0.5-7-3.2-6.8-6.4
		c0.3-3.9,3.2-5.7,6.5-6.5C319.9,528.5,323.5,532.7,323.6,535.7z"/>
	<path id="XB6D21FM2Gra3OT28_46_" class="st0" d="M311.4,650.3c-0.1,3.4-3.5,6.7-6.6,6.6c-3.4-0.4-6-3.2-6-6.7
		c0.3-4.2,3.2-5.8,6.7-5.7c3.2-0.1,5.8,2.5,5.8,5.6C311.4,650.2,311.4,650.3,311.4,650.3z"/>
	<path id="XB6D21FM2Gra3OT28_45_" class="st0" d="M72.7,672.6c-3.8,0.1-6.8-2.6-6.6-6c0.2-3.7,2.5-5.8,6-6.3c3.1-0.4,6.5,3,6.5,6.2
		c0.2,3.2-2.3,5.9-5.5,6.1C73,672.6,72.8,672.6,72.7,672.6z"/>
	<path id="XB6D21FM2Gra3OT28_44_" class="st0" d="M324.7,565.9c0.1,2.6-3.9,7-6.3,7.2c-2,0.1-6.6-4.2-6.8-6.5
		c-0.2-2.8,3.4-6.6,6.4-6.5C321.7,560.3,323.9,562.5,324.7,565.9z"/>
	<path id="XB6D21FM2Gra3OT28_43_" class="st0" d="M61.1,583.8c-0.6,3.4-2.4,6.2-6,6c-3.3-0.2-6.5-1.8-6.7-6
		c-0.1-2.8,4.2-7.5,6.6-6.8C58.4,577.8,60.9,579.9,61.1,583.8z"/>
	<path id="XB6D21FM2Gra3OT28_42_" class="st0" d="M66.6,680.7c0.3-3,2.9-5.3,6-5.2c3.4,0,6.2,2.8,6.2,6.2c0,0.1,0,0.1,0,0.2
		c0.1,4.3-3.1,5.6-6.3,6.3C69.7,688.7,66.5,684.7,66.6,680.7z"/>
	<path id="XB6D21FM2Gra3OT28_41_" class="st0" d="M281,551.5c0.2-3.8,3-5.7,6.5-5.8s5.8,2.2,6,6c0.2,2.8-3.6,6.9-6.1,6.8
		C284.6,558.4,281,554.6,281,551.5z"/>
	<path id="XB6D21FM2Gra3OT28_40_" class="st0" d="M324,551.2c-0.3,3.4-2.5,5.4-6.1,5.8c-3,0.3-6.7-3.3-6.7-6.2s3.9-6.7,6.5-6.6
		C321.2,544.8,323.8,547.7,324,551.2z"/>
	<path id="XB6D21FM2Gra3OT28_39_" class="st0" d="M311.1,635.6c-0.1,2.8-3.9,6.6-6.6,6.1c-3.2-0.6-6-2.2-5.9-6.2
		c0-3.8,2.7-6.7,6.2-6.2S311.1,631.4,311.1,635.6z"/>
	<path id="XB6D21FM2Gra3OT28_38_" class="st0" d="M325,581.2c0,2.9-3.6,6.7-6.3,6.7c-3,0-6.9-3.6-6.6-6.3c0.4-3.5,2.5-5.8,6-6.3
		C321.2,574.9,325,578.4,325,581.2z"/>
	<path id="XB6D21FM2Gra3OT28_37_" class="st0" d="M294.4,582.2c-0.5,3.4-2.2,5.8-5.9,6.2c-3.1,0.4-6.8-2.9-7-5.9s3-6.1,6.6-6.2
		C291.9,576.3,293.7,578.5,294.4,582.2z"/>
	<path id="XB6D21FM2Gra3OT28_36_" class="st0" d="M309.7,589.8c-0.4,3.2-3,5.7-6.3,5.8c-3.1,0.3-6.9-3.4-6.4-6.4
		c0.4-3.3,2.9-5.8,6.2-6.2C306.1,582.7,309.9,586.8,309.7,589.8z"/>
	<path id="XB6D21FM2Gra3OT28_35_" class="st0" d="M71.8,657.2c-3.7-0.1-6.1-1.8-6-5.7c0.1-3.6,2.2-5.9,5.8-6.2
		c3.1-0.3,6.7,2.9,6.8,6S75.4,657.1,71.8,657.2z"/>
	<path id="XB6D21FM2Gra3OT28_34_" class="st0" d="M77.6,521.5c0.4-3.1,1.9-5.3,5.7-5.3c4.1,0,7.3,2.8,6.8,6.3
		c-0.3,3.3-3,5.9-6.4,5.9C80.4,528.5,77.5,525.2,77.6,521.5z"/>
	<path id="XB6D21FM2Gra3OT28_33_" class="st0" d="M316.6,526.2c-3.8-0.1-5.9-2.2-5.8-6c0.1-3.6,2.1-6,5.9-6.2c3.3-0.2,6.7,3,6.5,6.2
		C323.1,524.4,320.4,525.9,316.6,526.2z"/>
	<path id="XB6D21FM2Gra3OT28_32_" class="st0" d="M75,530c0,2.8-3.6,6.8-6.2,6.7s-6.4-3.9-6.4-6.6c0-2.3,4.2-6.8,6.3-6.8
		S75,527.5,75,530z"/>
	<path id="XB6D21FM2Gra3OT28_31_" class="st0" d="M54.6,561.8c2.7,0.1,6.4,4,6.1,6.9c-0.1,3.2-2.7,5.7-5.8,5.6c-0.2,0-0.4,0-0.6,0
		c-3.3-0.2-6.1-1.8-6.1-5.9C48.3,565.7,52.1,561.8,54.6,561.8z"/>
	<path id="XB6D21FM2Gra3OT28_30_" class="st0" d="M91.5,582.9c-0.5,3.6-2.3,5.8-6.2,5.8c-3.3,0-6.9-3.1-6.4-6.1
		c0.6-3.7,3-5.9,6.8-5.8C89.5,576.8,91.1,579.4,91.5,582.9z"/>
	<path id="XB6D21FM2Gra3OT28_29_" class="st0" d="M311.6,665.9c0.1,3.2-2.4,5.8-5.5,5.9c-0.3,0-0.6,0-1,0c-3.6-0.3-5.9-2.5-6-6.1
		c0-4.2,3-5.6,6.7-5.7S311.6,662.1,311.6,665.9z"/>
	<path id="XB6D21FM2Gra3OT28_28_" class="st0" d="M303.7,564.8c-4.5,0.1-7.6-2.5-7.3-5.9s2.3-5.9,6-6.2c3.5-0.1,6.4,2.6,6.5,6.1
		c0,0,0,0,0,0C308.8,562.6,306.7,564.6,303.7,564.8z"/>
	<path id="XB6D21FM2Gra3OT28_27_" class="st0" d="M52.8,528.8c-3.1-0.3-5.4-1.9-5.6-5.5c-0.2-3.4,2.4-6.4,5.8-6.6c0.1,0,0.2,0,0.2,0
		c3.1,0,6.5,3.5,6.5,6.5S56.4,528.9,52.8,528.8z"/>
	<path id="XB6D21FM2Gra3OT28_26_" class="st0" d="M90.7,552.4c-0.3,3.9-2.4,6-6,6.2s-6.7-2.8-6.4-6.1c0.3-3.8,2.7-5.6,6.3-5.7
		C88.4,546.7,90.3,548.9,90.7,552.4z"/>
	<path id="XB6D21FM2Gra3OT28_25_" class="st0" d="M304.5,598c2.8,1.1,5.4,2.9,5.8,6.4c0.3,2.7-3.5,6.7-6.2,6.8s-6.4-3.6-6.4-6.6
		C297.6,602,301.6,598,304.5,598z"/>
	<path id="XB6D21FM2Gra3OT28_24_" class="st0" d="M62.1,514.2c0.6-3.1,3.2-5.4,6.3-5.6c2.8-0.2,6.5,3.9,6.2,6.6s-4.2,6.5-7,6
		C64.4,520.5,62.2,518.3,62.1,514.2z"/>
	<path id="XB6D21FM2Gra3OT28_23_" class="st0" d="M53.5,559.2c-2.8-0.4-5.4-1.6-5.5-5.4c-0.1-3.6,3.1-7.2,6.3-6.8
		c3.3,0.2,5.9,2.8,6.1,6.1C60.7,556.3,57.4,559.2,53.5,559.2z"/>
	<path id="XB6D21FM2Gra3OT28_22_" class="st0" d="M70.8,584.9c3.2,0.2,5.4,2.1,5.5,5.5s-1.8,6.1-5.5,6.6c-3.1,0.4-6.8-2.9-6.8-5.9
		C63.9,587.7,66.8,585,70.8,584.9z"/>
	<path id="XB6D21FM2Gra3OT28_21_" class="st0" d="M76,575.3c0.1,3.1-3.4,7-6.1,7c-2.5,0-6.6-4-6.3-6.6c0.2-3.3,2.9-5.9,6.3-5.9
		C73.4,569.6,75.7,571.7,76,575.3z"/>
	<path id="XB6D21FM2Gra3OT28_20_" class="st0" d="M302.6,579.9c-3.2-0.6-6.2-2.2-5.9-6c0.3-3.3,2.4-5.9,6.2-6
		c3.1-0.1,6.6,3.5,6.4,6.5C309,578.3,306.3,579.7,302.6,579.9z"/>
	<path id="XB6D21FM2Gra3OT28_19_" class="st0" d="M78,537.4c0.1-4,2.6-5.5,6.2-5.7s6.1,1.8,6.2,5.6s-2.3,5.8-5.9,6.2
		C81.2,543.9,78,540.7,78,537.4z"/>
	<path id="XB6D21FM2Gra3OT28_18_" class="st0" d="M53.6,531.9c3-0.1,6.9,3.3,6.7,6.2c-0.3,3.6-2.8,5.6-6.3,5.8
		c-3.7,0.3-6-1.7-6.3-5.4c-0.2-3.4,2.4-6.4,5.8-6.6C53.5,531.9,53.5,531.9,53.6,531.9z"/>
	<path id="XB6D21FM2Gra3OT28_17_" class="st0" d="M71.2,627.1c-3.7-0.3-6.3-1.9-6.4-5.6c-0.1-4,2.5-5.9,6.3-6.1
		c3.3-0.2,7,3.1,6.5,6.1C77.1,624.9,74.6,626.7,71.2,627.1z"/>
	<path id="XB6D21FM2Gra3OT28_16_" class="st0" d="M288,561.1c3.2,0.3,5.7,1.9,5.7,5.8c0,3.7-2.2,6.1-5.7,6.2
		c-3.5,0.2-6.5-2.4-6.8-5.9c0,0,0,0,0,0C280.8,564,283.9,561.2,288,561.1z"/>
	<path id="XB6D21FM2Gra3OT28_15_" class="st0" d="M302.4,549.5c-3.5-0.2-6.2-1.6-6.4-5.5c-0.2-3.4,2.9-6.2,6.5-6.1s5.7,2.2,5.8,5.6
		C308.5,547.2,306.3,549.3,302.4,549.5z"/>
	<path id="XB6D21FM2Gra3OT28_14_" class="st0" d="M295.8,528.2c0.2-4,2.7-5.5,6.2-5.5c3.8,0,5.8,2.1,6.1,5.8
		c0.2,3.1-3.4,6.3-6.5,6.2C298.3,534.3,295.8,531.5,295.8,528.2z"/>
	<path id="XB6D21FM2Gra3OT28_13_" class="st0" d="M305,686.9c-3.4-0.3-5.2-2.7-5.2-6.2c0-3.8,2.6-5.5,6.2-5.6c4-0.1,5.7,2.2,5.9,5.8
		C312.2,684.4,309.2,687,305,686.9z"/>
	<path id="XB6D21FM2Gra3OT28_12_" class="st0" d="M91.2,567.6c-0.3,4-2.5,5.8-6.2,5.8c-3.6,0-6.8-2.9-6.4-6.2
		c0.5-3.8,3.1-5.4,6.6-5.5C89,561.8,90.7,564.2,91.2,567.6z"/>
	<path id="XB6D21FM2Gra3OT28_11_" class="st0" d="M71.8,600.2c2.9,0.4,5,2.1,4.7,5.8c-0.3,3.4-1.7,6.2-5.7,6.2
		c-3.1,0.1-6.5-3.4-6.4-6.5C64.4,602.6,67.6,600,71.8,600.2z"/>
	<path id="XB6D21FM2Gra3OT28_10_" class="st0" d="M71.6,642.2c-3.6-0.1-6.2-1.5-6.1-5.6c0.1-3.9,1.9-6.4,6.1-6.2
		c3.6,0.2,6,2,6.5,5.6C78.5,639.1,75.1,642.2,71.6,642.2z"/>
	<path id="XB6D21FM2Gra3OT28_9_" class="st0" d="M54.8,592.3c3.3,0.1,7,3.9,6.6,6.8c-0.4,3.2-2.2,5.6-5.7,5.8
		c-2.2,0.2-7.2-5.1-6.8-7.1C49.6,594.6,52.3,593.2,54.8,592.3z"/>
	<path id="XB6D21FM2Gra3OT28_8_" class="st0" d="M287.6,591.7c4.7-0.1,6.8,2.3,7,5.8c0.2,3.2-1.9,6.2-5.4,5.9
		c-3.5-0.2-6.4-2.9-6.7-6.4C282.2,593.5,284.9,591.8,287.6,591.7z"/>
	<path id="XB6D21FM2Gra3OT28_7_" class="st0" d="M194,680.7c-0.1,0.6-0.2,1.3-0.3,1.9c-0.8,2.1,0.1,5.4-2.8,5.8
		c-2.6,0.4-2.8-2.8-3.9-4.5c-1.1-1.7-2.2-3.7-3.4-5.5c-0.8-1.3-1.5-2.7-0.3-4.1c1.2-1.4,2.7-0.9,4.1-0.4
		C190.9,675.2,193.7,677,194,680.7z"/>
	<path id="XB6D21FM2Gra3OT28_6_" class="st0" d="M87.4,594.9c-2,2.3,0.2,7.5-4.9,7.7c-2.2,0.1-3.7-2.5-3.3-4.7c0.6-3,2.3-5.5,5.7-6
		C86.7,591.7,87.6,592.9,87.4,594.9z"/>
	<path id="XB6D21FM2Gra3OT28_5_" class="st0" d="M320.6,594.1c-1.8,2.2-0.1,7-4.4,7.6c-2.3,0.3-3.5-2.5-3.5-4.7
		c0-3.3,1.7-5.8,5.1-6.2C319.6,590.7,320.5,592,320.6,594.1z"/>
	<path id="XB6D21FM2Gra3OT28_4_" class="st0" d="M194.7,560.5c0.1-0.9,0.3-1.9,0.6-2.8c0.9-1.9,1.4-5,3.9-4.4c3.1,0.7,1.1,3.5,1,5.4
		c-0.1,0.8-0.2,1.6-0.3,2.5c-0.2,1.8-0.2,4.2-2.6,4.1C194.7,565.2,194.9,562.6,194.7,560.5z"/>
	<path id="XB6D21FM2Gra3OT28_3_" class="st0" d="M169.3,560.9c-0.1,1.4-0.1,2.9-1.7,3.3c-1.4,0.3-2-0.8-2.5-1.9
		c-1-1.9-1.9-3.8-2.8-5.7c-0.5-1.1-0.9-2.2,0.3-3.1c0.9-0.5,2-0.4,2.7,0.4C167.5,555.7,168.9,558.2,169.3,560.9z"/>
	<path id="XB6D21FM2Gra3OT28_2_" class="st0" d="M78.8,696.9c-0.3,1.3-0.4,3.8-2,3.2c-3-1.2-4.1-4.5-4.7-7.5c-0.3-1.2,0.5-2.5,2-2
		C76.8,691.6,78.8,693.6,78.8,696.9z"/>
	<path id="XB6D21FM2Gra3OT28_1_" class="st0" d="M312.2,695.5c-0.3,1.6-0.6,3.2-2.3,3.6c-1.1,0.3-4.9-5.3-4.7-7
		c-0.1-1.1,0.8-2,1.8-2c0.2,0,0.3,0,0.5,0C310.4,690.6,311.7,692.8,312.2,695.5z"/>
	<path id="XB6D21FM2Gra3OT28" class="st0" d="M316.8,610.7c-0.2,1.3-0.1,3.1-2.1,3.2c-1.4,0-1.8-1.2-1.8-2.4
		c0.1-1.7,0.5-3.5,2.5-3.5C316.7,607.9,316.8,609.4,316.8,610.7z"/>
</g>
</svg>
