<?xml version="1.0" encoding="UTF-8" standalone="no"?>
<svg
   xmlns:dc="http://purl.org/dc/elements/1.1/"
   xmlns:cc="http://creativecommons.org/ns#"
   xmlns:rdf="http://www.w3.org/1999/02/22-rdf-syntax-ns#"
   xmlns:svg="http://www.w3.org/2000/svg"
   xmlns="http://www.w3.org/2000/svg"
   xmlns:sodipodi="http://sodipodi.sourceforge.net/DTD/sodipodi-0.dtd"
   xmlns:inkscape="http://www.inkscape.org/namespaces/inkscape"
   version="1.0"
   width="850.000000pt"
   height="850.000000pt"
   viewBox="0 0 850.000000 850.000000"
   preserveAspectRatio="xMidYMid meet"
   id="svg2"
   inkscape:version="0.91 r13725"
   sodipodi:docname="Heart_love518_010.svg">
  <defs
     id="defs400" />
  <sodipodi:namedview
     pagecolor="#ffffff"
     bordercolor="#666666"
     borderopacity="1"
     objecttolerance="10"
     gridtolerance="10"
     guidetolerance="10"
     inkscape:pageopacity="0"
     inkscape:pageshadow="2"
     inkscape:window-width="1920"
     inkscape:window-height="980"
     id="namedview398"
     showgrid="false"
     inkscape:zoom="0.44423529"
     inkscape:cx="529.04109"
     inkscape:cy="701.26522"
     inkscape:window-x="0"
     inkscape:window-y="1"
     inkscape:window-maximized="1"
     inkscape:current-layer="svg2" />
  <metadata
     id="metadata4">
Created by potrace 1.14, written by Peter Selinger 2001-2017
<rdf:RDF>
  <cc:Work
     rdf:about="">
    <dc:format>image/svg+xml</dc:format>
    <dc:type
       rdf:resource="http://purl.org/dc/dcmitype/StillImage" />
  </cc:Work>
</rdf:RDF>
</metadata>
  <g
     transform="translate(0.000000,850.000000) scale(0.100000,-0.100000)"
     fill="#000000"
     stroke="none"
     id="g6">
    <path
       d="M0 4250 l0 -4250 4250 0 4250 0 0 4250 0 4250 -4250 0 -4250 0 0 -4250z m2440 3542 c167 -11 296 -40 452 -102 99 -39 203 -92 260 -132 14 -10 38 -18 53 -18 14 0 74 -15 133 -34 59 -19 132 -42 162 -51 78 -24 195 -87 264 -142 33 -27 85 -65 115 -86 215 -147 341 -376 366 -662 l7 -80 32 90 c88 245 241 450 428 576 49 32 96 59 104 59 7 0 51 34 96 76 109 101 188 156 290 203 148 70 293 91 416 62 49 -12 59 -11 140 13 48 15 125 47 172 71 276 141 499 188 677 141 45 -12 84 -15 145 -10 143 11 294 -40 397 -132 l52 -46 62 28 c83 38 160 39 237 3 30 -14 132 -78 226 -141 188 -127 255 -158 357 -166 61 -4 98 -20 70 -29 -7 -3 -46 -45 -89 -95 -66 -78 -75 -92 -62 -102 9 -6 36 -25 61 -43 269 -188 340 -781 150 -1257 l-35 -88 19 -57 c14 -44 18 -86 18 -196 0 -132 -2 -146 -33 -233 -35 -102 -62 -153 -130 -250 -34 -49 -42 -69 -38 -88 19 -76 -33 -332 -91 -449 -63 -125 -194 -290 -264 -331 -9 -5 -34 -47 -56 -94 -90 -193 -187 -307 -453 -531 -165 -138 -270 -239 -322 -309 -17 -23 -22 -45 -23 -98 -4 -171 -112 -267 -425 -377 -192 -67 -240 -95 -351 -205 -93 -92 -96 -97 -102 -149 -10 -82 -53 -202 -99 -273 -90 -139 -189 -230 -398 -366 -145 -93 -229 -162 -304 -247 -49 -56 -60 -76 -73 -131 -21 -93 -93 -196 -196 -282 -45 -38 -90 -71 -100 -75 -25 -9 -134 -84 -187 -128 -25 -20 -61 -62 -80 -92 l-34 -55 -56 81 c-66 98 -200 240 -333 355 -114 98 -152 145 -173 218 -16 55 -28 64 -90 64 -53 0 -217 46 -297 83 -270 125 -437 333 -517 644 -8 33 -19 47 -60 73 -65 42 -149 135 -189 210 -22 40 -39 61 -54 64 -12 2 -48 10 -80 16 -206 42 -408 247 -506 516 l-29 79 -108 12 c-151 16 -204 29 -284 69 -87 44 -183 137 -227 219 -62 117 -78 198 -78 398 0 97 -3 177 -7 177 -33 0 -253 34 -289 44 -124 37 -242 133 -292 238 -74 152 -77 339 -7 494 l28 62 -36 -10 c-109 -30 -226 49 -305 207 -51 102 -59 148 -62 335 -2 195 -12 243 -96 451 -98 245 -129 361 -129 484 0 99 15 165 57 255 30 61 54 92 138 175 120 117 146 159 210 345 108 312 193 420 364 460 66 16 177 8 280 -19 l75 -20 40 37 c129 119 346 212 492 212 42 0 67 7 116 35 124 67 143 69 488 47z"
       id="path8"
       style="fill:none" />
    <path
       d="M2091 7774 c-84 -22 -168 -72 -241 -144 -71 -69 -173 -213 -168 -239 2 -8 22 -29 46 -45 35 -25 55 -31 112 -34 57 -4 77 0 123 21 l55 25 4 93 c4 77 9 104 32 147 45 88 90 125 216 180 40 17 -113 14 -179 -4z"
       id="path10"
       style="fill:#ff3333" />
    <path
       d="M2294 7756 c-34 -8 -76 -21 -93 -30 -48 -26 -101 -84 -130 -145 -35 -76 -37 -204 -4 -267 20 -38 85 -105 101 -103 4 0 22 23 39 51 l33 50 -16 55 c-19 64 -13 110 21 169 34 58 97 111 174 147 56 27 81 32 171 37 l105 5 -71 18 c-102 24 -255 30 -330 13z"
       id="path12"
       style="fill:#ff6699" />
    <path
       d="M6305 7753 c-73 -15 -194 -60 -305 -111 l-65 -31 116 0 c134 -1 246 -20 363 -61 65 -23 105 -29 201 -34 117 -6 246 -29 333 -59 52 -18 54 -9 11 56 -125 190 -408 293 -654 240z"
       id="path14"
       style="fill:#ff3333" />
    <path
       d="M6726 7742 c-2 -4 25 -23 61 -41 78 -41 179 -138 213 -207 14 -27 26 -51 27 -53 1 -2 36 28 78 65 l75 69 -41 38 c-56 50 -168 104 -254 122 -77 16 -151 19 -159 7z"
       id="path16"
       style="fill:#ff3366" />
    <path
       d="M2487 7689 c-118 -28 -229 -132 -251 -236 -7 -29 8 -113 20 -113 2 0 35 23 72 52 168 129 430 196 667 171 55 -6 102 -9 104 -7 2 2 -44 27 -102 55 -71 33 -138 57 -200 70 -97 20 -243 24 -310 8z"
       id="path18"
       style="fill:#ffcccc" />
    <path
       d="M1604 7632 c-108 -48 -196 -105 -277 -181 -163 -154 -247 -332 -247 -523 0 -225 108 -386 336 -501 65 -33 263 -107 286 -107 5 0 -5 26 -23 58 -32 58 -33 59 -166 126 -239 119 -323 233 -323 441 0 103 19 178 74 290 77 156 239 330 367 396 22 10 39 22 39 24 0 6 6 8 -66 -23z"
       id="path20"
       style="fill:#cc99ff" />
    <path
       d="M1667 7610 c-230 -116 -400 -337 -447 -578 -19 -93 -8 -192 29 -267 46 -94 115 -155 247 -222 62 -32 115 -55 119 -52 3 4 -1 24 -10 45 -11 29 -32 50 -76 79 -171 113 -257 289 -229 467 26 169 164 366 346 493 108 76 111 81 21 35z"
       id="path22"
       style="fill:#ccccff" />
    <path
       d="M7254 7586 c-64 -33 -204 -146 -204 -166 0 -4 19 -19 43 -33 23 -14 63 -45 89 -70 l46 -45 23 24 c72 76 210 87 374 28 207 -74 248 -85 320 -86 46 0 84 5 110 17 l40 17 -73 19 c-94 24 -178 69 -327 176 -150 107 -230 146 -310 151 -53 3 -68 -1 -131 -32z"
       id="path24"
       style="fill:#cc99ff" />
    <path
       d="M1713 7551 c-80 -62 -148 -167 -180 -275 -24 -80 -19 -277 6 -262 5 3 11 30 15 59 15 133 105 363 182 468 19 27 33 49 31 49 -3 0 -27 -18 -54 -39z"
       id="path26"
       style="fill:#99cccc" />
    <path
       d="M5851 7560 c-51 -11 -95 -21 -97 -23 -2 -2 22 -11 54 -21 31 -10 104 -38 160 -62 228 -97 312 -92 312 17 0 29 -6 43 -26 58 -67 53 -230 65 -403 31z"
       id="path28"
       style="fill:#ff3333" />
    <path
       d="M6290 7534 c40 -47 42 -109 4 -145 -22 -21 -35 -24 -97 -24 l-72 0 116 -111 c120 -116 164 -142 220 -130 128 25 149 185 40 309 -52 58 -121 104 -184 120 l-58 15 31 -34z"
       id="path30"
       style="fill:#cc3333" />
    <path
       d="M1586 7500 c-166 -134 -268 -319 -268 -488 0 -137 64 -257 187 -349 38 -29 70 -51 71 -50 1 1 -4 31 -12 67 -11 44 -25 75 -47 100 -83 92 -111 174 -105 313 4 80 10 115 30 164 36 85 92 167 165 241 35 34 61 62 58 62 -2 0 -38 -27 -79 -60z"
       id="path32"
       style="fill:#9999cc" />
    <path
       d="M2840 7543 c-282 -19 -491 -120 -603 -291 -68 -104 -89 -168 -95 -297 -5 -124 9 -198 57 -300 l28 -60 7 65 c10 88 34 194 58 255 115 295 349 523 617 601 l73 21 -38 6 c-22 4 -43 6 -49 5 -5 -1 -30 -3 -55 -5z"
       id="path34"
       style="fill:#ff3333" />
    <path
       d="M5425 7540 c-66 -9 -231 -65 -242 -83 -4 -7 0 -8 12 -3 11 4 51 12 91 18 209 33 369 -95 325 -260 -7 -24 -25 -57 -41 -75 l-28 -32 37 -40 c20 -22 44 -51 54 -65 15 -22 24 -25 76 -24 100 1 195 76 221 176 21 76 -16 174 -96 255 -103 104 -255 153 -409 133z"
       id="path36"
       style="fill:#cc3333" />
    <path
       d="M2948 7500 c-156 -39 -284 -114 -409 -239 -172 -173 -264 -373 -276 -607 -10 -194 37 -335 152 -450 88 -87 188 -136 295 -142 81 -5 159 12 203 43 18 13 17 15 -18 30 -99 41 -201 151 -260 280 -78 170 -83 347 -16 543 72 208 245 408 417 482 53 24 174 50 232 51 35 0 36 1 12 11 -14 5 -77 12 -140 14 -91 3 -131 0 -192 -16z"
       id="path38"
       style="fill:#cc33ff" />
    <path
       d="M930 7474 c-95 -35 -172 -107 -228 -212 -16 -31 -52 -120 -80 -197 -64 -179 -78 -211 -114 -264 -16 -24 -27 -45 -24 -48 8 -9 82 46 132 98 28 30 84 93 123 141 40 48 94 103 119 121 78 56 119 64 218 41 16 -4 23 0 27 18 10 38 91 169 137 220 29 33 38 49 28 53 -112 40 -270 54 -338 29z"
       id="path40"
       style="fill:#cc99ff" />
    <path
       d="M5795 7472 c86 -53 165 -184 165 -275 0 -115 -112 -229 -240 -244 l-49 -6 40 -79 c36 -71 45 -82 85 -99 40 -18 51 -19 102 -8 33 6 117 42 202 86 80 42 168 83 195 93 28 10 50 20 50 22 0 2 -51 73 -114 158 -184 249 -251 310 -378 348 -87 27 -97 27 -58 4z"
       id="path42"
       style="fill:#ff6666" />
    <path
       d="M6521 7459 c76 -99 97 -202 57 -278 -37 -71 -124 -101 -205 -70 -15 5 -80 63 -143 128 -63 64 -132 127 -153 139 -37 22 -37 21 21 -46 32 -38 102 -130 156 -205 120 -170 184 -235 272 -278 62 -31 77 -34 155 -34 81 0 90 2 131 30 67 48 89 95 86 180 -3 56 -10 85 -37 139 -54 111 -190 240 -321 306 l-44 23 25 -34z"
       id="path44"
       style="fill:#ff6666" />
    <path
       d="M6629 7442 c34 -20 93 -65 130 -99 l68 -62 44 22 c37 19 61 22 157 22 129 0 129 3 4 62 -111 52 -295 93 -420 93 l-46 0 63 -38z"
       id="path46"
       style="fill:#cc3333" />
    <path
       d="M1556 7407 c-156 -195 -178 -444 -50 -568 l34 -33 0 55 c0 31 -9 78 -21 109 -45 119 -18 313 62 444 17 26 29 49 27 51 -2 2 -25 -25 -52 -58z"
       id="path48"
       style="fill:#99ccff" />
    <path
       d="M3170 7455 c-255 -57 -472 -291 -550 -594 -19 -72 -22 -103 -18 -205 6 -142 23 -197 99 -310 60 -91 124 -150 196 -183 48 -22 65 -25 132 -21 84 5 135 26 197 80 98 86 137 233 98 369 -13 47 -53 99 -75 99 -4 0 -9 -31 -11 -68 -12 -161 -140 -312 -264 -312 -90 1 -182 79 -239 203 -42 93 -58 162 -58 257 0 182 83 356 238 497 112 103 250 155 447 169 81 6 97 9 73 16 -60 16 -198 18 -265 3z"
       id="path50"
       style="fill:#cc6699" />
    <path
       d="M5225 7435 c-123 -27 -145 -36 -218 -95 -41 -32 -80 -67 -88 -76 -13 -16 -11 -17 16 -11 76 17 221 19 294 3 78 -16 181 -60 243 -103 45 -31 81 -26 101 15 24 46 27 89 12 140 -35 117 -177 167 -360 127z"
       id="path52"
       style="fill:#ff3333" />
    <path
       d="M3323 7410 c-214 -23 -369 -107 -492 -267 -106 -137 -151 -279 -131 -416 19 -130 65 -252 118 -314 60 -69 141 -90 219 -58 66 28 67 32 19 88 -59 66 -131 195 -159 282 -17 54 -22 94 -22 176 0 101 1 108 37 181 60 121 178 222 325 279 48 18 85 23 207 27 131 4 146 6 125 18 -26 15 -128 16 -246 4z"
       id="path54"
       style="fill:#ff33cc" />
    <path
       d="M1632 7286 c-17 -46 -37 -112 -44 -146 l-13 -63 50 -44 c104 -91 196 -109 342 -65 67 21 150 71 158 95 1 7 11 36 20 66 16 53 16 53 -7 69 -36 25 -75 70 -89 101 l-13 29 -36 -18 c-87 -44 -208 -33 -285 26 -25 19 -47 34 -49 34 -2 0 -18 -38 -34 -84z"
       id="path56"
       style="fill:#cc3333" />
    <path
       d="M3330 7359 c-76 -11 -156 -42 -226 -88 -151 -97 -226 -259 -204 -438 11 -83 29 -137 77 -223 44 -81 132 -192 147 -187 18 6 55 66 68 111 7 23 12 73 12 112 0 68 -2 74 -35 111 -55 61 -72 117 -67 215 6 110 45 195 123 266 76 70 142 94 275 99 83 3 119 0 173 -15 37 -11 67 -18 67 -17 0 2 -22 17 -48 34 -48 31 -50 31 -178 30 -71 -1 -154 -5 -184 -10z"
       id="path58"
       style="fill:#ff3366" />
    <path
       d="M7345 7324 c-41 -22 -85 -65 -85 -82 0 -8 9 -27 21 -43 11 -16 36 -64 56 -106 19 -43 37 -79 38 -81 1 -1 23 2 49 8 38 8 68 6 171 -15 105 -21 134 -23 173 -14 85 19 153 70 251 187 43 53 44 53 15 45 -73 -20 -157 -7 -331 53 -138 47 -182 58 -248 61 -60 3 -87 -1 -110 -13z"
       id="path60"
       style="fill:#cc99ff" />
    <path
       d="M3413 7305 c-127 -28 -205 -91 -260 -211 -22 -47 -27 -74 -28 -134 -1 -174 69 -242 333 -323 l83 -26 -68 72 c-144 152 -184 321 -97 417 116 128 348 110 517 -40 168 -151 280 -415 295 -695 l7 -130 15 70 c10 44 15 121 14 210 -1 122 -4 151 -28 230 -77 256 -289 483 -513 548 -79 23 -198 29 -270 12z"
       id="path62"
       style="fill:#cc3333" />
    <path
       d="M6995 7313 c-50 -7 -135 -33 -135 -41 1 -4 23 -18 51 -31 28 -12 72 -45 99 -72 40 -40 59 -51 100 -59 98 -19 186 -85 228 -173 l21 -42 0 35 c1 88 -61 238 -124 303 -63 65 -150 94 -240 80z"
       id="path64"
       style="fill:#ff0099" />
    <path
       d="M4965 7236 c-233 -54 -464 -256 -602 -530 -24 -48 -43 -90 -40 -92 2 -2 22 22 44 54 100 142 275 297 412 366 193 98 383 103 538 15 66 -38 153 -132 189 -204 38 -78 44 -185 14 -233 -33 -53 -97 -76 -191 -69 -64 4 -103 15 -229 66 -170 69 -249 91 -332 91 -150 0 -312 -100 -437 -269 -84 -114 -75 -114 41 2 161 161 269 213 423 205 98 -5 172 -37 346 -148 151 -98 215 -124 304 -125 116 0 209 57 267 168 32 59 32 187 0 271 -70 190 -238 352 -427 412 -99 32 -233 40 -320 20z"
       id="path66"
       style="fill:#ff6666" />
    <path
       d="M6933 7172 c84 -89 112 -155 112 -262 0 -102 -23 -162 -88 -228 -89 -92 -183 -111 -290 -58 -58 28 -161 120 -225 201 -27 33 -31 36 -23 13 42 -117 127 -219 224 -266 192 -94 363 -43 443 131 26 55 29 73 29 162 0 92 -3 106 -32 167 -36 76 -101 146 -165 179 l-43 22 58 -61z"
       id="path68"
       style="fill:#ff33cc" />
    <path
       d="M6896 7175 c17 -48 34 -122 34 -148 0 -109 -64 -192 -175 -226 -37 -12 -79 -21 -94 -21 -47 0 -127 29 -180 64 -28 19 -51 31 -51 27 0 -19 118 -147 172 -186 129 -96 241 -92 339 12 64 67 84 116 84 213 0 73 -4 93 -27 140 -27 55 -116 163 -102 125z"
       id="path70"
       style="fill:#ff3366" />
    <path
       d="M3534 7160 c-179 -26 -231 -154 -137 -334 57 -107 166 -211 271 -258 45 -20 82 -35 82 -34 0 1 -9 21 -20 44 -25 52 -26 134 -2 182 39 78 124 100 218 56 123 -57 185 -225 186 -506 0 -129 -6 -191 -26 -295 -5 -25 -3 -23 15 13 11 24 27 92 35 155 36 261 -22 508 -169 730 -129 193 -274 272 -453 247z"
       id="path72"
       style="fill:#cc0033" />
    <path
       d="M923 7126 c-52 -24 -108 -74 -175 -155 -90 -109 -148 -170 -190 -201 l-38 -28 128 -7 c238 -14 305 -5 378 50 l33 25 -6 88 c-3 60 0 107 10 152 9 36 12 69 8 73 -16 16 -115 18 -148 3z"
       id="path74"
       style="fill:#cc99ff" />
    <path
       d="M4960 7076 c-30 -6 -84 -26 -120 -44 -36 -18 -54 -30 -40 -27 207 43 352 -30 352 -177 0 -82 -46 -129 -131 -131 -27 -1 -48 -3 -47 -4 8 -8 223 -95 269 -108 82 -24 176 -23 218 1 67 40 75 153 19 270 -50 102 -176 190 -315 219 -83 17 -130 18 -205 1z"
       id="path76"
       style="fill:#cc0033" />
    <path
       d="M7099 7053 c27 -54 51 -140 51 -183 0 -23 13 -63 34 -103 44 -83 55 -161 33 -231 l-16 -51 35 40 c72 81 131 234 120 308 -17 107 -92 203 -184 237 -29 11 -62 20 -73 20 -19 0 -19 0 0 -37z"
       id="path78"
       style="fill:#cc00cc" />
    <path
       d="M7933 7044 c-40 -33 -41 -35 -31 -72 14 -49 4 -130 -21 -180 -19 -36 -41 -59 -85 -87 -13 -9 -10 -16 23 -54 l38 -44 46 43 c28 25 60 70 80 109 30 62 32 72 32 173 0 94 -2 110 -20 127 -20 20 -20 20 -62 -15z"
       id="path80"
       style="fill:#cc33ff" />
    <path
       d="M1564 6983 c-4 -40 -2 -107 5 -163 18 -151 18 -151 86 -185 56 -28 67 -30 175 -30 109 0 118 2 180 32 36 17 80 45 99 60 l33 29 -12 60 c-7 32 -13 94 -14 136 0 43 -3 77 -6 75 -93 -54 -201 -82 -295 -74 -70 5 -124 30 -190 87 -25 22 -48 40 -50 40 -2 0 -7 -30 -11 -67z"
       id="path82"
       style="fill:#ff6666" />
    <path
       d="M8038 6926 c-3 -95 -6 -109 -41 -178 -21 -44 -54 -91 -77 -112 -22 -20 -40 -38 -40 -41 0 -3 19 -17 43 -32 50 -32 145 -63 192 -63 33 0 60 -20 38 -27 -32 -11 -140 -85 -194 -132 -58 -51 -60 -55 -54 -90 12 -64 71 -196 142 -318 39 -65 78 -133 87 -150 9 -18 20 -33 25 -33 10 0 61 150 90 265 61 242 57 504 -11 715 -39 121 -125 262 -177 289 -18 10 -19 5 -23 -93z"
       id="path84"
       style="fill:#cc6699" />
    <path
       d="M7401 6989 c-18 -7 -22 -14 -17 -32 24 -98 14 -223 -25 -314 l-21 -48 49 -42 c128 -111 224 -127 526 -87 59 8 111 14 115 14 4 0 -19 11 -50 24 -114 47 -205 136 -256 250 -67 148 -108 221 -132 233 -29 15 -154 16 -189 2z"
       id="path86"
       style="fill:#cc66ff" />
    <path
       d="M4760 6971 c-30 -10 -67 -24 -82 -32 -54 -28 -171 -135 -246 -224 -105 -125 -157 -209 -177 -286 -9 -35 -18 -73 -21 -84 -3 -11 15 14 41 55 87 140 207 244 347 299 98 39 154 45 268 30 116 -14 159 -8 205 32 41 36 52 77 31 117 -21 40 -79 87 -125 101 -56 16 -178 13 -241 -8z"
       id="path88"
       style="fill:#ff0000" />
    <path
       d="M7810 6978 c-19 -5 -63 -8 -98 -6 -41 3 -61 0 -58 -7 42 -97 107 -239 110 -243 12 -12 72 38 93 77 23 44 30 118 17 169 -7 24 -12 25 -64 10z"
       id="path90"
       style="fill:#cc6699" />
    <path
       d="M6309 6916 c-55 -21 -119 -56 -119 -65 0 -19 62 -33 129 -29 39 2 72 6 75 9 11 10 -20 94 -34 96 -8 1 -31 -4 -51 -11z"
       id="path92"
       style="fill:#cc3333" />
    <path
       d="M6062 6790 c-141 -74 -227 -85 -286 -39 l-24 19 5 -76 c6 -74 8 -80 60 -148 60 -80 122 -195 148 -275 l18 -55 21 27 c12 14 52 80 90 146 66 115 126 191 174 221 l23 15 -44 78 c-25 43 -50 91 -57 107 -7 17 -18 30 -24 29 -6 -1 -53 -23 -104 -49z"
       id="path94"
       style="fill:#cc3333" />
    <path
       d="M3791 6798 c-110 -75 -86 -201 67 -358 127 -130 183 -244 200 -410 l8 -75 20 80 c16 66 19 114 18 270 -1 212 -17 301 -73 399 -53 96 -171 142 -240 94z"
       id="path96"
       style="fill:#ff0000" />
    <path
       d="M6210 6803 c0 -10 88 -158 104 -175 16 -18 27 -20 81 -16 34 3 74 12 89 20 l27 14 -22 28 c-12 15 -34 50 -49 78 l-28 51 -101 1 c-56 0 -101 0 -101 -1z"
       id="path98"
       style="fill:#ff0099" />
    <path
       d="M1059 6784 c-9 -24 -81 -62 -147 -79 -82 -19 -136 -59 -163 -119 -23 -51 -25 -165 -4 -291 8 -49 15 -108 15 -130 l0 -39 53 51 c28 28 86 73 127 101 137 94 163 127 189 245 l19 85 -32 64 c-17 34 -36 77 -42 93 -5 17 -12 25 -15 19z"
       id="path100"
       style="fill:#cc66ff" />
    <path
       d="M7140 6761 c0 -37 -40 -111 -85 -160 -34 -36 -47 -60 -54 -97 -12 -62 -26 -99 -51 -134 -11 -16 -20 -30 -20 -33 0 -17 116 33 184 78 45 29 57 44 75 91 30 78 28 151 -6 220 -27 56 -43 69 -43 35z"
       id="path102"
       style="fill:#ff00cc" />
    <path
       d="M437 6693 c-100 -34 -206 -188 -228 -332 -21 -140 5 -260 123 -576 33 -88 67 -196 76 -240 8 -44 16 -86 18 -94 3 -8 22 6 50 37 87 97 183 127 480 147 150 10 229 20 277 35 71 22 143 70 166 111 13 24 12 30 -25 91 l-40 66 -35 -33 c-65 -59 -167 -85 -399 -100 -118 -8 -219 -28 -275 -55 -47 -23 -111 -83 -121 -112 -12 -40 -25 -10 -29 72 -2 56 -16 130 -39 215 -41 149 -55 285 -37 380 18 100 90 232 177 324 l76 81 -83 -1 c-49 0 -104 -7 -132 -16z"
       id="path104"
       style="fill:#cc66ff" />
    <path
       d="M624 6638 c-115 -120 -175 -222 -201 -342 -20 -95 -11 -186 33 -333 20 -68 38 -152 41 -197 l6 -79 21 25 c65 77 153 106 366 119 270 16 343 35 397 106 25 33 26 37 15 79 -7 24 -12 67 -12 94 l0 50 -49 -35 c-65 -47 -113 -63 -263 -85 -138 -21 -179 -34 -233 -76 -20 -15 -38 -24 -42 -21 -3 3 2 24 11 47 21 52 21 152 0 342 -21 191 -10 270 43 329 l35 39 -28 0 c-16 0 -38 3 -49 6 -16 4 -37 -12 -91 -68z"
       id="path106"
       style="fill:#9966ff" />
    <path
       d="M2101 6650 c-122 -84 -304 -101 -445 -40 -38 16 -46 17 -46 5 0 -38 94 -240 123 -263 7 -6 41 -20 77 -32 52 -18 81 -21 146 -18 105 5 173 38 243 114 60 65 60 77 -3 195 l-41 76 -54 -37z"
       id="path108"
       style="fill:#ff3366" />
    <path
       d="M3407 6608 c9 -11 45 -39 78 -63 34 -24 87 -71 119 -105 103 -112 144 -226 171 -470 8 -80 20 -165 25 -190 20 -86 94 -320 102 -320 4 0 8 16 8 35 0 62 30 186 72 295 46 121 58 227 38 323 -31 151 -164 330 -298 400 -37 19 -127 53 -200 75 -114 34 -131 37 -115 20z"
       id="path110"
       style="fill:#ff6666" />
    <path
       d="M6495 6613 c-15 -8 -57 -18 -93 -21 l-66 -7 62 -66 c34 -36 79 -78 101 -93 40 -28 40 -28 93 -12 36 10 65 28 92 54 l38 40 -37 12 c-20 7 -65 33 -99 60 -61 45 -64 47 -91 33z"
       id="path112"
       style="fill:#cc00cc" />
    <path
       d="M4692 6606 c-66 -17 -76 -26 -27 -26 48 0 114 -32 139 -67 31 -43 33 -119 3 -174 l-25 -46 63 -6 c69 -5 181 -51 223 -90 l24 -22 23 29 c47 59 54 148 17 221 -33 65 -65 94 -145 134 -125 61 -191 72 -295 47z"
       id="path114"
       style="fill:#cc0033" />
    <path
       d="M3353 6598 c20 -57 37 -187 46 -348 20 -351 39 -396 280 -645 87 -89 167 -181 181 -208 24 -45 40 -60 40 -35 0 6 -22 80 -50 164 -59 181 -73 244 -94 430 -20 169 -36 236 -80 329 -47 99 -101 162 -192 224 -43 30 -92 66 -108 80 -20 18 -27 21 -23 9z"
       id="path116"
       style="fill:#ff3399" />
    <path
       d="M6267 6571 c-50 -38 -88 -87 -154 -201 -31 -52 -70 -115 -88 -140 l-33 -45 13 -70 c8 -38 17 -116 21 -172 6 -95 13 -118 29 -93 3 5 68 41 143 79 75 39 157 87 181 108 62 53 114 138 145 239 24 75 26 88 13 96 -42 23 -122 95 -168 150 -28 35 -54 66 -58 70 -3 4 -23 -6 -44 -21z"
       id="path118"
       style="fill:#cc33ff" />
    <path
       d="M1164 6552 c-33 -149 -55 -187 -142 -249 -206 -144 -247 -185 -266 -265 -7 -32 -2 -34 49 -12 21 8 88 22 149 30 170 22 226 45 314 128 59 55 105 117 127 170 l14 33 -77 51 c-43 27 -97 71 -120 96 l-42 45 -6 -27z"
       id="path120"
       style="fill:#cc66ff" />
    <path
       d="M5745 6543 c-9 -43 -68 -116 -121 -151 -65 -43 -115 -55 -206 -49 l-76 5 18 -32 c10 -17 28 -59 40 -94 27 -73 35 -77 150 -77 93 1 164 24 229 75 49 39 101 124 101 164 0 26 -106 186 -123 186 -3 0 -8 -12 -12 -27z"
       id="path122"
       style="fill:#ff3366" />
    <path
       d="M4580 6549 c-122 -24 -342 -255 -401 -421 -43 -121 -71 -178 -134 -274 -39 -60 -63 -111 -80 -171 -14 -47 -25 -90 -25 -97 1 -6 21 27 45 74 58 111 164 251 220 291 29 21 48 44 56 68 37 115 117 214 208 258 46 23 69 28 131 28 41 0 89 -4 105 -8 28 -8 33 -5 64 38 18 25 35 63 38 84 5 34 1 43 -31 79 -25 27 -50 43 -81 51 -49 12 -52 12 -115 0z"
       id="path124"
       style="fill:#ff0000" />
    <path
       d="M7271 6505 c-37 -46 -79 -85 -124 -116 -26 -18 91 -156 174 -206 75 -45 166 -67 241 -58 90 11 176 60 308 176 63 56 132 113 153 127 20 14 36 27 33 29 -2 2 -79 -6 -172 -18 -227 -29 -307 -24 -405 23 -41 19 -91 49 -113 67 -21 17 -42 31 -45 31 -3 0 -26 -25 -50 -55z"
       id="path126"
       style="fill:#cc66ff" />
    <path
       d="M6925 6512 c-23 -8 -72 -15 -114 -15 -72 0 -75 -1 -104 -34 -32 -36 -94 -73 -124 -73 -16 -1 -16 -2 2 -16 37 -28 144 -54 222 -54 64 0 77 3 98 24 32 32 61 92 70 144 7 46 7 46 -50 24z"
       id="path128"
       style="fill:#ff00cc" />
    <path
       d="M5140 6466 c0 -2 7 -23 15 -46 27 -76 12 -193 -30 -240 -14 -15 -13 -19 6 -36 37 -34 117 -161 134 -216 9 -29 19 -60 22 -68 7 -21 66 48 100 117 33 70 32 110 -6 209 -49 126 -96 192 -174 241 -37 23 -67 41 -67 39z"
       id="path130"
       style="fill:#ff6666" />
    <path
       d="M3357 6415 c-25 -142 -167 -285 -300 -302 -48 -7 -57 -16 -57 -60 0 -29 4 -33 38 -42 138 -39 277 42 327 188 16 47 19 149 6 216 l-7 40 -7 -40z"
       id="path132"
       style="fill:#cc3333" />
    <path
       d="M2207 6375 c-71 -65 -140 -88 -262 -88 -69 0 -114 5 -144 17 -24 9 -46 15 -47 13 -2 -2 26 -40 61 -85 77 -95 179 -189 215 -197 39 -8 140 22 196 60 50 33 124 112 124 132 0 6 -15 36 -34 68 -19 31 -38 70 -41 86 -4 16 -10 31 -13 33 -4 2 -29 -16 -55 -39z"
       id="path134"
       style="fill:#ff33cc" />
    <path
       d="M1406 6323 c-15 -32 -41 -74 -57 -94 -15 -20 -33 -57 -38 -82 -19 -81 3 -142 107 -305 79 -123 108 -176 132 -247 l17 -50 5 60 c8 82 37 158 97 259 100 164 113 227 77 353 l-18 61 -132 44 c-72 25 -138 48 -146 52 -12 5 -23 -8 -44 -51z"
       id="path136"
       style="fill:#cc99ff" />
    <path
       d="M7075 6344 c-22 -13 -61 -29 -86 -35 l-46 -12 -27 -136 c-29 -149 -31 -187 -15 -244 15 -55 61 -101 170 -173 87 -57 103 -73 158 -153 61 -89 93 -125 76 -85 -30 72 -35 136 -32 399 l2 270 -47 47 c-26 26 -62 70 -79 98 -17 27 -31 50 -32 49 -1 0 -20 -12 -42 -25z"
       id="path138"
       style="fill:#cc99ff" />
    <path
       d="M5870 6283 c-42 -67 -124 -128 -199 -150 -41 -12 -79 -14 -149 -10 l-94 6 6 -32 c4 -18 9 -64 13 -104 l6 -72 59 -25 c161 -70 331 -46 444 63 l41 39 -13 85 c-14 86 -59 243 -72 250 -4 3 -23 -20 -42 -50z"
       id="path140"
       style="fill:#ff33cc" />
    <path
       d="M6547 6258 c-54 -161 -58 -180 -54 -258 8 -130 68 -243 172 -322 67 -51 136 -75 279 -98 136 -22 270 -48 294 -57 10 -4 6 7 -13 33 -53 72 -79 96 -161 150 -45 29 -98 69 -118 90 -71 73 -93 199 -62 351 8 37 16 83 18 101 l3 32 -90 4 c-61 2 -110 11 -150 26 -33 12 -67 24 -75 26 -11 3 -22 -17 -43 -78z"
       id="path142"
       style="fill:#cc99ff" />
    <path
       d="M4533 6272 c-136 -48 -236 -166 -273 -322 -18 -74 -16 -244 4 -356 22 -127 81 -316 117 -377 l31 -52 -7 45 c-10 71 -6 396 6 469 32 202 110 335 232 397 26 14 83 30 127 36 44 6 80 14 80 18 0 4 -21 30 -47 58 -85 89 -176 117 -270 84z"
       id="path144"
       style="fill:#ff66ff" />
    <path
       d="M4846 6240 c159 -91 234 -242 222 -443 -10 -152 -56 -239 -239 -452 -116 -136 -180 -230 -215 -316 -13 -32 -24 -61 -24 -65 0 -4 30 22 68 57 37 35 132 114 212 175 188 143 251 203 312 288 69 99 93 182 84 293 -16 192 -97 334 -245 427 -50 32 -150 66 -193 66 l-33 0 51 -30z"
       id="path146"
       style="fill:#cc99ff" />
    <path
       d="M4817 6216 c107 -122 150 -308 108 -471 -19 -74 -99 -238 -199 -408 -68 -117 -132 -251 -150 -317 -4 -14 12 13 36 60 51 102 86 150 224 312 114 135 175 238 199 339 47 203 -21 371 -199 492 l-61 41 42 -48z"
       id="path148"
       style="fill:#ff66ff" />
    <path
       d="M7807 6210 c-32 -26 -80 -57 -106 -70 -42 -19 -50 -27 -55 -59 -23 -141 -154 -272 -288 -288 l-51 -6 6 -96 c5 -102 29 -188 67 -241 l21 -30 39 57 c21 32 65 90 97 129 32 39 90 110 128 157 39 47 85 111 104 141 64 107 106 242 99 320 l-3 33 -58 -47z"
       id="path150"
       style="fill:#9900ff" />
    <path
       d="M1774 6225 c4 -11 10 -50 13 -87 7 -85 -8 -131 -92 -285 -55 -100 -105 -220 -105 -254 0 -5 22 8 50 30 27 21 104 67 170 101 137 70 180 103 209 164 33 66 29 77 -55 147 -42 35 -104 95 -137 134 -33 38 -57 61 -53 50z"
       id="path152"
       style="fill:#cc99ff" />
    <path
       d="M2332 6140 c-50 -57 -141 -106 -220 -119 -29 -4 -55 -11 -58 -13 -8 -8 145 -108 249 -163 l87 -47 0 79 c0 43 7 122 15 176 12 78 12 102 2 117 -17 29 -27 25 -75 -30z"
       id="path154"
       style="fill:#cc6699" />
    <path
       d="M3356 6112 c-34 -49 -80 -86 -143 -114 -37 -16 -60 -19 -117 -15 -39 2 -79 8 -88 12 -16 6 -18 0 -18 -59 l0 -66 43 -21 c62 -32 162 -37 213 -11 47 24 105 85 133 140 16 32 19 50 13 107 l-7 68 -29 -41z"
       id="path156"
       style="fill:#ff0099" />
    <path
       d="M7314 6113 c3 -21 6 -68 6 -105 0 -77 4 -80 82 -56 40 12 108 76 108 102 0 8 2 21 6 29 4 11 -7 16 -47 21 -28 4 -75 16 -103 27 -28 10 -53 19 -55 19 -2 0 -1 -17 3 -37z"
       id="path158"
       style="fill:#cc6699" />
    <path
       d="M2436 6132 c-12 -22 -28 -240 -22 -319 13 -189 96 -368 244 -525 109 -116 241 -184 413 -214 179 -31 314 -5 509 99 63 33 140 69 170 79 l55 19 -80 -5 c-51 -3 -117 -16 -180 -36 -230 -72 -304 -81 -439 -55 -300 57 -494 335 -537 769 l-13 125 -58 35 c-32 19 -60 31 -62 28z"
       id="path160"
       style="fill:#99ccff" />
    <path
       d="M2903 6076 l-61 -31 5 -40 c35 -254 153 -458 305 -533 79 -38 136 -49 321 -62 219 -15 276 -32 354 -103 27 -24 41 -33 35 -21 -20 37 -93 95 -158 126 -35 16 -145 50 -246 74 -100 25 -210 58 -244 74 -88 43 -157 108 -196 188 -33 66 -33 68 -33 214 0 93 -4 147 -10 147 -5 -1 -38 -16 -72 -33z"
       id="path162"
       style="fill:#ccccff" />
    <path
       d="M7568 6103 c-20 -3 -28 -10 -28 -25 0 -67 -81 -141 -169 -154 -55 -8 -61 -15 -61 -72 l0 -44 43 7 c107 17 199 91 236 189 28 79 33 106 19 105 -7 -1 -25 -4 -40 -6z"
       id="path164"
       style="fill:#cc33ff" />
    <path
       d="M6447 6065 c-29 -37 -113 -98 -185 -134 -41 -21 -42 -22 -26 -46 32 -49 104 -69 236 -66 l38 1 -18 43 c-12 30 -17 70 -17 140 0 53 0 97 0 97 0 0 -13 -16 -28 -35z"
       id="path166"
       style="fill:#9900ff" />
    <path
       d="M4752 6080 c-202 -30 -315 -207 -331 -520 -6 -132 4 -394 18 -470 9 -44 9 -43 10 25 5 285 54 495 141 605 67 85 230 129 293 80 14 -11 27 -20 30 -20 3 0 8 27 12 59 8 67 -7 157 -36 214 -21 41 -30 42 -137 27z"
       id="path168"
       style="fill:#cc33cc" />
    <path
       d="M2580 6034 c0 -143 53 -365 119 -499 80 -162 190 -266 338 -317 59 -20 87 -23 203 -22 129 0 142 2 274 42 76 23 165 44 198 48 45 5 56 9 44 16 -33 18 -162 20 -298 4 -75 -9 -163 -16 -196 -16 -149 0 -257 45 -352 146 -96 103 -142 224 -174 462 -9 62 -16 116 -16 121 0 5 -24 13 -52 19 -29 6 -61 14 -70 17 -15 6 -18 2 -18 -21z"
       id="path170"
       style="fill:#99cccc" />
    <path
       d="M7940 6043 c0 -6 27 -102 60 -212 71 -233 90 -325 90 -425 0 -125 -47 -255 -122 -341 -110 -125 -277 -130 -384 -13 -58 63 -77 127 -72 242 3 80 8 101 40 167 19 42 66 122 103 180 104 160 155 249 141 249 -2 0 -18 -22 -35 -48 -17 -27 -87 -115 -155 -197 -140 -168 -181 -230 -213 -324 -51 -150 -7 -342 107 -461 94 -99 200 -122 315 -66 118 57 260 233 328 406 53 134 60 311 19 430 -22 62 -72 164 -110 225 -14 22 -45 76 -69 120 -23 44 -43 75 -43 68z"
       id="path172"
       style="fill:#ff6666" />
    <path
       d="M2762 6033 c-26 -5 -26 -13 9 -199 73 -388 243 -545 554 -513 278 29 293 30 355 20 35 -6 66 -9 68 -6 12 12 -121 37 -243 46 -198 14 -308 33 -372 65 -147 71 -260 267 -304 527 -12 70 -12 70 -67 60z"
       id="path174"
       style="fill:#9999cc" />
    <path
       d="M7856 5978 c-29 -91 -94 -219 -175 -340 -123 -187 -157 -274 -149 -387 12 -159 96 -251 229 -251 144 0 244 106 285 302 25 118 16 226 -36 406 -45 159 -62 191 -39 75 18 -93 15 -309 -5 -397 -20 -83 -60 -160 -97 -187 -61 -43 -150 -15 -189 60 -52 103 -35 203 55 336 79 115 99 155 119 232 15 58 33 213 25 213 -2 0 -13 -28 -23 -62z"
       id="path176"
       style="fill:#cc3333" />
    <path
       d="M5404 5970 c-11 -25 -42 -71 -67 -102 -26 -32 -47 -66 -47 -75 0 -31 54 -243 62 -243 11 0 56 154 68 235 6 39 10 107 8 150 l-3 80 -21 -45z"
       id="path178"
       style="fill:#990099" />
    <path
       d="M7900 5944 c0 -54 -26 -156 -51 -207 -12 -23 -43 -73 -69 -112 -106 -157 -132 -252 -91 -332 60 -118 162 -109 225 20 31 63 50 215 41 327 -7 82 -45 332 -51 339 -2 2 -4 -13 -4 -35z"
       id="path180"
       style="fill:#ff3333" />
    <path
       d="M3388 5932 c-31 -52 -103 -110 -159 -126 -67 -20 -92 -20 -159 4 -30 11 -58 19 -63 20 -10 0 29 -76 58 -116 19 -24 36 -33 81 -42 151 -31 271 7 319 98 11 21 11 29 -1 44 -7 10 -23 48 -34 82 -12 35 -23 64 -24 64 -1 0 -9 -13 -18 -28z"
       id="path182"
       style="fill:#cc00cc" />
    <path
       d="M2062 5907 c-11 -23 -40 -62 -65 -86 l-46 -44 30 -59 c45 -90 92 -135 157 -154 67 -20 127 -13 198 21 78 38 84 49 70 120 l-12 60 -109 58 c-59 31 -130 73 -156 92 l-48 34 -19 -42z"
       id="path184"
       style="fill:#cc33ff" />
    <path
       d="M5970 5918 c-107 -88 -317 -108 -459 -43 -30 14 -55 24 -57 23 -1 -2 -7 -41 -14 -88 -11 -81 -23 -141 -38 -178 -3 -10 12 -1 36 19 57 49 120 66 179 50 45 -11 117 -55 142 -85 22 -27 108 -21 172 12 53 27 54 28 62 82 4 30 6 94 5 142 l-3 86 -25 -20z"
       id="path186"
       style="fill:#cc6699" />
    <path
       d="M4175 5879 c-94 -88 -202 -265 -239 -388 -16 -54 -22 -141 -10 -141 3 0 19 11 36 25 78 66 228 53 316 -28 26 -24 27 -17 7 49 -35 115 -56 260 -56 387 0 70 3 132 6 137 14 23 -10 7 -60 -41z"
       id="path188"
       style="fill:#990099" />
    <path
       d="M6148 5873 c-27 -14 -48 -29 -48 -33 0 -21 88 -103 138 -127 49 -24 69 -28 142 -28 56 0 103 6 138 18 28 10 52 21 52 23 0 3 -9 18 -21 33 -20 27 -23 28 -62 19 -87 -20 -189 13 -249 80 -21 23 -39 42 -40 42 -2 0 -24 -12 -50 -27z"
       id="path190"
       style="fill:#cc33ff" />
    <path
       d="M6043 5798 c-14 -15 -23 -44 -28 -83 -19 -168 -74 -331 -151 -445 -30 -45 -48 -78 -41 -74 6 5 62 49 122 99 121 101 203 159 280 197 85 43 245 99 348 122 l99 22 -34 26 -34 26 -74 -20 c-169 -44 -352 8 -421 118 -24 40 -38 42 -66 12z"
       id="path192"
       style="fill:#ff0099" />
    <path
       d="M4720 5779 c-25 -11 -65 -39 -88 -62 -124 -120 -162 -330 -136 -762 l7 -120 22 80 c43 155 108 296 246 542 85 148 132 258 124 283 -18 58 -96 75 -175 39z"
       id="path194"
       style="fill:#ff00ff" />
    <path
       d="M1402 5739 c-32 -39 -94 -75 -167 -94 -46 -12 -366 -43 -467 -45 -22 0 -38 -51 -38 -124 0 -73 40 -167 88 -208 84 -70 202 -59 320 29 45 34 56 21 27 -34 -76 -143 26 -298 206 -311 74 -5 120 7 164 42 l30 24 -24 89 c-32 120 -40 274 -16 345 11 35 15 66 10 94 -6 45 -89 224 -102 223 -4 0 -18 -13 -31 -30z"
       id="path196"
       style="fill:#cc0000" />
    <path
       d="M1835 5711 c-48 -29 -79 -54 -77 -62 6 -29 99 -173 145 -224 32 -36 70 -65 115 -87 60 -30 76 -33 152 -33 79 0 92 3 161 37 40 20 93 56 117 81 l42 43 -30 66 -29 66 -72 -36 c-63 -32 -80 -37 -143 -37 -59 0 -79 4 -118 27 -54 32 -97 81 -135 155 -16 29 -32 53 -38 52 -5 0 -46 -22 -90 -48z"
       id="path198"
       style="fill:#cc3333" />
    <path
       d="M3467 5727 c-39 -52 -118 -89 -191 -91 -33 0 -81 2 -106 7 l-45 7 25 -20 c14 -10 48 -32 75 -47 48 -26 56 -27 200 -28 126 0 155 3 183 18 18 10 32 22 30 26 -2 5 -35 43 -74 85 l-72 76 -25 -33z"
       id="path200"
       style="fill:#ff00cc" />
    <path
       d="M5500 5651 c-45 -25 -73 -55 -108 -119 l-29 -52 15 -88 c7 -48 12 -122 10 -164 l-5 -78 31 0 c88 0 145 -94 111 -182 -6 -15 -1 -18 31 -18 114 0 182 -144 114 -240 -12 -16 -18 -30 -13 -30 4 0 53 -7 108 -15 55 -8 143 -15 196 -15 158 0 235 36 286 133 23 44 28 64 28 132 0 95 -22 152 -80 208 -86 83 -247 101 -367 42 -32 -16 -60 -27 -62 -24 -3 3 7 34 21 69 37 91 43 213 14 290 -51 135 -195 207 -301 151z"
       id="path202"
       style="fill:#ff0066" />
    <path
       d="M5280 5549 c0 -130 -9 -188 -40 -272 -37 -99 -99 -177 -311 -387 -267 -266 -311 -334 -346 -530 -18 -98 -8 -213 25 -290 l19 -45 5 75 c14 177 119 334 322 484 298 220 418 434 403 720 -4 93 -47 309 -68 346 -5 9 -9 -32 -9 -101z"
       id="path204"
       style="fill:#ff6666" />
    <path
       d="M1695 5628 c-61 -43 -105 -92 -105 -116 0 -91 81 -253 170 -342 243 -242 623 -215 825 60 l37 50 -46 61 c-26 34 -50 68 -55 77 -7 12 -19 7 -67 -32 -188 -154 -373 -153 -544 1 -60 55 -136 159 -163 226 -9 20 -17 37 -19 37 -2 0 -16 -10 -33 -22z"
       id="path206"
       style="fill:#ff0099" />
    <path
       d="M5925 5593 c-22 -8 -61 -15 -87 -16 -27 -1 -48 -3 -48 -5 0 -1 7 -13 15 -25 26 -41 47 -146 41 -206 l-7 -56 35 59 c33 57 100 239 94 256 -2 4 -21 1 -43 -7z"
       id="path208"
       style="fill:#cc33ff" />
    <path
       d="M6555 5585 c-178 -41 -305 -95 -431 -181 -58 -40 -189 -141 -231 -178 -9 -8 13 -10 80 -9 l92 2 85 56 c105 71 231 134 333 168 259 87 548 82 810 -13 83 -31 92 -25 24 14 -59 34 -156 62 -321 92 -77 14 -174 36 -214 50 -87 29 -100 29 -227 -1z"
       id="path210"
       style="fill:#cc99cc" />
    <path
       d="M654 5571 c-27 -10 -64 -26 -81 -34 -49 -26 -120 -112 -139 -169 -15 -46 -16 -62 -4 -147 46 -359 278 -511 486 -319 25 23 47 38 51 34 4 -4 6 -46 4 -94 -7 -232 131 -392 337 -392 105 0 166 22 227 83 60 61 80 116 79 217 0 69 -22 197 -33 205 -4 2 -27 -5 -50 -17 -49 -24 -150 -29 -218 -9 -59 16 -132 69 -168 119 -27 40 -30 51 -30 121 l0 78 -54 -25 c-117 -54 -239 -23 -302 76 -41 65 -52 114 -46 210 3 45 2 82 -2 81 -3 0 -29 -9 -57 -18z"
       id="path212"
       style="fill:#cc0033" />
    <path
       d="M3656 5571 c-12 -18 -110 -42 -182 -43 l-68 -1 129 -32 c143 -35 233 -76 297 -133 47 -41 44 -34 -18 53 -54 77 -149 171 -158 156z"
       id="path214"
       style="fill:#cc33ff" />
    <path
       d="M5237 5528 c-49 -104 -127 -181 -357 -351 -171 -127 -231 -184 -290 -273 -155 -237 -172 -590 -40 -843 23 -44 57 -96 76 -118 l34 -38 -35 75 c-73 158 -92 302 -56 442 44 170 133 296 341 483 201 180 290 304 329 457 18 73 37 218 27 218 -2 0 -16 -24 -29 -52z"
       id="path216"
       style="fill:#ff3399" />
    <path
       d="M1554 5455 c-24 -54 -24 -198 0 -279 32 -109 113 -254 174 -316 82 -81 136 -104 242 -105 101 0 142 16 212 86 37 37 88 113 88 132 0 2 -48 4 -107 4 -172 0 -293 51 -418 177 -81 81 -127 162 -154 268 l-19 73 -18 -40z"
       id="path218"
       style="fill:#cc00cc" />
    <path
       d="M6743 5479 c-158 -15 -383 -93 -530 -185 -48 -31 -96 -63 -106 -71 -16 -15 -14 -17 25 -35 23 -10 56 -29 73 -42 l30 -23 75 44 c107 64 302 157 395 188 120 41 266 66 392 67 63 1 108 5 100 9 -21 12 -227 47 -302 52 -38 2 -107 0 -152 -4z"
       id="path220"
       style="fill:#99cccc" />
    <path
       d="M6986 5399 c-148 -17 -281 -56 -409 -120 -52 -27 -263 -149 -305 -177 -10 -7 -8 -18 7 -53 15 -32 21 -66 21 -125 0 -71 -4 -89 -31 -143 -17 -34 -42 -69 -55 -78 -29 -19 -30 -29 -4 -36 17 -4 33 14 92 101 127 188 307 347 541 479 141 79 304 141 377 144 l25 1 -25 8 c-32 10 -144 10 -234 -1z"
       id="path222"
       style="fill:#ffcc99" />
    <path
       d="M4001 5384 c-66 -34 -111 -137 -111 -253 1 -183 110 -498 228 -660 27 -36 81 -113 120 -171 42 -62 104 -138 154 -186 88 -86 181 -164 193 -164 5 0 -37 46 -91 103 -112 115 -190 215 -258 330 -153 260 -231 604 -168 742 46 99 121 151 206 142 l51 -6 -47 44 c-91 83 -205 115 -277 79z"
       id="path224"
       style="fill:#ff66ff" />
    <path
       d="M7149 5350 c-42 -11 -110 -34 -150 -52 -71 -31 -235 -121 -252 -137 -11 -11 29 -58 63 -76 46 -24 65 -18 105 31 80 97 258 206 392 238 l58 14 -70 0 c-38 1 -104 -8 -146 -18z"
       id="path226"
       style="fill:#9900ff" />
    <path
       d="M7270 5317 c-151 -54 -286 -144 -365 -244 -160 -205 -222 -558 -145 -840 21 -79 70 -217 75 -211 1 2 -1 32 -6 68 -13 99 -13 395 1 485 50 342 202 571 466 703 62 31 90 62 56 62 -9 0 -46 -11 -82 -23z"
       id="path228"
       style="fill:#cc99ff" />
    <path
       d="M7274 5234 c-151 -80 -247 -182 -329 -349 -98 -200 -122 -396 -91 -740 37 -402 49 -512 56 -540 10 -34 5 118 -11 310 -15 190 -12 486 6 589 27 154 77 280 156 397 45 67 88 106 195 176 l82 53 4 67 c3 38 4 69 3 71 -1 1 -33 -14 -71 -34z"
       id="path230"
       style="fill:#ccffff" />
    <path
       d="M2605 5204 c-45 -64 -107 -119 -190 -164 -33 -19 -62 -35 -64 -36 -2 -2 8 -17 23 -35 15 -17 33 -44 42 -60 17 -33 32 -35 97 -13 69 23 131 84 171 167 54 111 54 116 3 159 l-44 37 -38 -55z"
       id="path232"
       style="fill:#ff00cc" />
    <path
       d="M3770 5221 c-30 -9 -100 -40 -155 -67 -106 -54 -163 -77 -233 -94 l-43 -11 39 -47 c22 -26 53 -71 69 -100 l30 -53 17 40 c22 57 83 121 136 144 72 32 168 24 240 -20 3 -2 4 49 2 112 -4 132 0 129 -102 96z"
       id="path234"
       style="fill:#cc99cc" />
    <path
       d="M4202 5217 c-42 -13 -105 -84 -120 -135 -34 -114 16 -342 136 -610 62 -139 127 -237 224 -337 l78 -80 -46 78 c-85 143 -196 425 -241 612 -23 98 -24 279 -1 321 23 42 70 81 108 89 31 7 31 7 13 27 -21 24 -74 48 -100 47 -10 -1 -33 -6 -51 -12z"
       id="path236"
       style="fill:#cc33cc" />
    <path
       d="M2754 5142 c-14 -48 -66 -142 -98 -179 -40 -46 -143 -103 -187 -103 -48 0 -24 -28 29 -35 107 -12 181 -28 255 -52 77 -26 77 -26 124 -8 95 37 173 147 173 245 l0 36 -69 17 c-38 10 -103 36 -145 57 -68 35 -77 37 -82 22z"
       id="path238"
       style="fill:#cc33ff" />
    <path
       d="M6650 5094 c-58 -42 -62 -48 -56 -76 13 -64 97 -137 158 -138 15 0 48 52 96 151 1 4 -12 12 -30 19 -18 8 -49 31 -69 52 l-36 38 -63 -46z"
       id="path240"
       style="fill:#ccffcc" />
    <path
       d="M4313 5110 c-55 -33 -68 -70 -67 -195 1 -121 23 -224 88 -412 36 -101 126 -316 132 -311 1 2 -4 32 -13 68 -16 67 -18 144 -15 475 1 179 -6 271 -29 358 -8 31 -14 37 -37 37 -15 0 -41 -9 -59 -20z"
       id="path242"
       style="fill:#ff00ff" />
    <path
       d="M5388 5118 c-9 -7 -23 -39 -32 -70 -33 -115 -149 -293 -228 -349 -16 -12 -27 -23 -25 -25 2 -2 30 5 63 17 95 33 189 36 288 9 100 -27 146 -22 188 20 57 57 23 173 -57 200 -32 11 -42 9 -86 -13 -57 -28 -69 -21 -36 20 69 82 61 163 -20 194 -31 12 -36 11 -55 -3z"
       id="path244"
       style="fill:#ff0000" />
    <path
       d="M7260 5043 c-184 -123 -272 -259 -326 -507 -22 -98 -29 -330 -16 -526 7 -91 14 -218 18 -283 4 -65 9 -115 12 -112 3 2 9 152 13 332 5 186 15 379 24 447 17 128 59 272 102 345 57 97 149 169 261 202 23 7 42 15 42 18 0 3 -10 36 -23 73 l-23 68 -84 -57z"
       id="path246"
       style="fill:#cc99cc" />
    <path
       d="M3193 5042 l-113 -3 0 -37 c0 -83 -82 -197 -175 -245 l-46 -23 88 -53 c78 -47 94 -52 143 -52 144 1 272 129 286 284 6 62 6 62 -33 97 l-38 35 -112 -3z"
       id="path248"
       style="fill:#993399" />
    <path
       d="M3629 5010 c-47 -25 -86 -71 -116 -136 l-24 -52 25 -74 c14 -41 28 -94 32 -118 l7 -45 12 52 c21 92 74 143 149 143 52 0 148 -49 229 -116 l65 -53 -33 72 c-18 40 -45 113 -60 162 -33 114 -34 114 -84 150 -55 38 -147 46 -202 15z"
       id="path250"
       style="fill:#ff66ff" />
    <path
       d="M6492 4963 c-82 -77 -82 -77 -26 -156 36 -51 98 -97 164 -120 81 -29 82 -29 96 38 29 135 30 122 -7 130 -42 9 -132 99 -144 144 l-10 33 -73 -69z"
       id="path252"
       style="fill:#cccccc" />
    <path
       d="M2283 4940 c-37 -79 -97 -149 -156 -180 l-44 -24 0 -75 c0 -99 -20 -150 -123 -306 -93 -142 -126 -216 -139 -311 -6 -36 -12 -69 -15 -72 -3 -3 -27 17 -54 45 -63 66 -131 96 -310 137 -83 19 -173 46 -200 60 -84 42 -130 115 -148 236 -5 30 -20 60 -48 95 -62 76 -97 162 -103 255 l-6 77 -49 -36 c-86 -62 -138 -197 -138 -354 0 -228 139 -402 366 -461 32 -8 118 -22 191 -31 225 -26 339 -57 442 -119 56 -34 129 -104 162 -156 l17 -25 11 56 c25 119 87 221 265 434 192 230 235 308 244 450 8 129 -28 245 -102 331 l-34 39 -29 -65z"
       id="path254"
       style="fill:#ff0099" />
    <path
       d="M1627 4907 c4 -18 8 -88 8 -157 0 -117 -2 -128 -27 -176 -53 -100 -156 -156 -289 -157 -64 -1 -85 4 -143 31 l-67 31 7 -47 c22 -154 86 -199 353 -252 117 -24 214 -64 276 -114 l42 -35 11 61 c15 80 56 165 126 263 32 44 74 114 94 155 30 63 36 86 36 143 l1 68 -80 2 c-110 3 -174 35 -278 138 -72 72 -78 75 -70 46z"
       id="path256"
       style="fill:#ff00ff" />
    <path
       d="M7327 4906 c-250 -103 -337 -337 -337 -911 0 -221 -13 -406 -36 -504 -8 -35 -13 -66 -10 -68 5 -6 53 114 70 177 23 83 33 154 61 400 13 124 34 263 46 310 66 261 208 411 392 412 48 0 67 -5 107 -30 l49 -31 -6 32 c-7 40 -9 41 -59 55 -48 14 -122 76 -165 138 -16 24 -35 44 -42 44 -7 0 -38 -11 -70 -24z"
       id="path258"
       style="fill:#990099" />
    <path
       d="M3401 4874 c-27 -107 -90 -187 -182 -233 -33 -17 -79 -33 -102 -36 l-43 -7 81 -79 81 -79 55 0 c102 1 184 62 213 160 13 44 13 57 1 105 -17 65 -57 166 -78 195 -14 20 -15 19 -26 -26z"
       id="path260"
       style="fill:#ff0099" />
    <path
       d="M7937 4836 c-59 -53 -136 -92 -200 -101 l-47 -7 7 -52 c5 -28 8 -123 7 -211 0 -153 -4 -185 -40 -310 -9 -29 109 88 160 160 98 137 154 295 163 463 3 56 4 102 2 102 -2 -1 -26 -20 -52 -44z"
       id="path262"
       style="fill:#cc9999" />
    <path
       d="M6327 4761 c-37 -55 -67 -102 -67 -105 0 -2 34 -21 75 -41 137 -65 275 -184 358 -308 l28 -42 -8 80 c-4 44 -8 126 -7 183 0 86 -2 102 -15 102 -32 1 -130 48 -172 83 -24 19 -60 60 -79 91 -19 30 -37 55 -40 56 -3 0 -36 -45 -73 -99z"
       id="path264"
       style="fill:#cc99cc" />
    <path
       d="M2464 4779 c3 -17 6 -65 6 -105 0 -71 1 -74 24 -74 98 0 312 -58 431 -118 132 -65 366 -238 440 -325 80 -95 -44 123 -134 235 -194 241 -423 371 -730 413 l-44 6 7 -32z"
       id="path266"
       style="fill:#cc99cc" />
    <path
       d="M3630 4722 c-83 -83 -45 -278 79 -403 62 -61 138 -102 266 -142 131 -42 133 -41 49 12 -133 83 -216 187 -250 314 -27 102 -14 165 40 191 l31 15 -45 20 c-25 11 -67 21 -93 21 -40 0 -54 -5 -77 -28z"
       id="path268"
       style="fill:#cc33cc" />
    <path
       d="M5255 4689 c-68 -14 -199 -77 -288 -138 -241 -167 -355 -390 -297 -581 l14 -45 7 90 c11 144 76 275 194 391 144 141 334 180 454 94 50 -36 97 -117 106 -181 l7 -47 34 20 c45 26 78 67 99 122 62 163 -122 316 -330 275z"
       id="path270"
       style="fill:#ff66ff" />
    <path
       d="M7412 4679 c-31 -12 -76 -43 -111 -74 -80 -75 -129 -172 -166 -332 l-13 -55 32 31 c89 86 229 80 335 -15 50 -45 101 -130 101 -168 1 -78 76 166 90 292 18 151 3 228 -54 290 -50 56 -122 66 -214 31z"
       id="path272"
       style="fill:#ff6666" />
    <path
       d="M3844 4670 c-56 -22 -67 -86 -34 -194 36 -116 118 -201 297 -309 78 -48 423 -213 403 -194 -8 8 -40 37 -71 63 -81 71 -190 200 -299 354 -96 136 -235 291 -261 289 -8 0 -24 -4 -35 -9z"
       id="path274"
       style="fill:#ff00ff" />
    <path
       d="M6247 4610 c159 -80 289 -212 371 -376 109 -217 164 -505 166 -866 1 -104 3 -188 6 -188 10 0 69 103 86 150 13 37 15 70 10 193 -20 464 -155 781 -416 979 -68 52 -243 143 -295 154 -16 3 16 -17 72 -46z"
       id="path276"
       style="fill:#ccffff" />
    <path
       d="M5802 4617 c54 -19 127 -53 162 -77 150 -97 298 -301 376 -518 13 -34 24 -61 26 -59 7 6 -24 172 -46 253 -34 127 -121 294 -184 357 l-53 54 -154 7 c-85 3 -170 9 -189 12 -19 3 9 -10 62 -29z"
       id="path278"
       style="fill:#ffcccc" />
    <path
       d="M5577 4618 c25 -26 53 -88 53 -116 0 -15 12 -21 58 -29 214 -41 424 -200 580 -440 26 -39 53 -79 59 -90 24 -35 -40 133 -83 220 -138 280 -346 435 -634 471 l-55 7 22 -23z"
       id="path280"
       style="fill:#66ccff" />
    <path
       d="M6207 4558 c148 -159 250 -396 283 -661 16 -125 8 -398 -14 -486 -9 -35 -15 -65 -14 -67 2 -1 35 -4 73 -5 l70 -2 -3 129 c-9 364 -67 657 -170 859 -36 70 -63 107 -126 170 -45 44 -97 89 -116 99 -34 19 -33 17 17 -36z"
       id="path282"
       style="fill:#ffccff" />
    <path
       d="M2452 4532 c-6 -28 -23 -74 -37 -103 -14 -29 -25 -53 -25 -54 0 0 61 1 135 3 75 3 180 -1 233 -8 166 -20 356 -90 504 -185 l73 -47 -60 62 c-68 70 -211 180 -302 234 -122 72 -296 127 -442 142 l-67 6 -12 -50z"
       id="path284"
       style="fill:#99cccc" />
    <path
       d="M3498 4525 c-39 -64 -93 -96 -173 -102 -36 -3 -65 -8 -65 -10 0 -2 17 -27 38 -56 55 -75 116 -182 143 -254 13 -35 27 -63 31 -63 3 0 16 42 28 93 29 122 46 317 34 384 l-9 51 -27 -43z"
       id="path286"
       style="fill:#9900ff" />
    <path
       d="M6340 4504 c185 -197 261 -471 286 -1025 7 -148 8 -151 33 -167 14 -8 41 -29 59 -46 l32 -30 0 170 c0 93 -5 221 -11 284 -33 357 -155 637 -348 797 -95 78 -115 85 -51 17z"
       id="path288"
       style="fill:#ccccff" />
    <path
       d="M5067 4496 c-80 -33 -129 -69 -193 -141 -100 -111 -165 -267 -163 -390 l1 -60 13 61 c30 136 82 227 166 294 117 92 254 91 336 -3 l32 -37 65 15 c103 24 99 21 93 78 -20 166 -183 251 -350 183z"
       id="path290"
       style="fill:#cc33cc" />
    <path
       d="M3567 4369 c-4 -68 -13 -153 -21 -189 -8 -36 -13 -66 -12 -67 1 -2 22 6 45 18 53 25 159 48 226 49 l50 1 -45 23 c-94 49 -184 150 -220 244 l-17 44 -6 -123z"
       id="path292"
       style="fill:#cc99cc" />
    <path
       d="M5650 4455 c0 -3 17 -12 38 -20 57 -24 110 -82 127 -139 19 -64 19 -114 -1 -193 l-15 -62 32 -41 32 -40 33 49 c50 74 102 121 167 151 l59 26 -58 53 c-106 97 -217 163 -338 200 -74 23 -76 23 -76 16z"
       id="path294"
       style="fill:#9900cc" />
    <path
       d="M5612 4401 c-13 -37 -77 -108 -116 -128 -17 -9 -59 -26 -94 -39 l-63 -22 81 -11 c134 -20 239 -59 317 -117 30 -23 33 -23 42 -7 17 33 29 127 22 168 -14 75 -59 134 -128 169 -43 22 -49 21 -61 -13z"
       id="path296"
       style="fill:#cc99cc" />
    <path
       d="M6285 4378 c38 -85 93 -278 106 -374 14 -107 6 -252 -20 -372 -23 -105 -76 -273 -103 -326 -11 -21 -16 -37 -11 -35 5 2 38 16 74 31 35 14 72 29 81 32 21 6 33 50 54 191 40 268 -22 617 -146 826 -50 84 -67 97 -35 27z"
       id="path298"
       style="fill:#cc99ff" />
    <path
       d="M2390 4343 c-22 -4 -105 -94 -105 -114 0 -3 30 -29 67 -57 l67 -51 56 20 c193 68 416 86 593 50 57 -12 127 -30 155 -41 28 -11 53 -18 55 -16 6 7 -82 64 -154 100 -95 47 -204 84 -299 100 -75 13 -378 19 -435 9z"
       id="path300"
       style="fill:#ffcc99" />
    <path
       d="M4995 4292 c-69 -24 -122 -67 -166 -136 -47 -72 -76 -148 -84 -218 l-6 -53 27 50 c38 71 130 157 211 197 38 19 111 45 161 58 51 12 92 26 92 30 0 17 -71 69 -107 79 -51 14 -69 13 -128 -7z"
       id="path302"
       style="fill:#ff00ff" />
    <path
       d="M7225 4273 c-91 -48 -110 -91 -135 -305 -11 -95 -22 -195 -26 -223 -6 -48 -6 -49 10 -28 21 28 91 69 133 78 41 8 98 -10 118 -38 8 -12 15 -37 15 -56 l0 -34 26 24 c36 33 114 141 159 218 36 61 37 67 33 135 -8 112 -54 183 -148 225 -55 25 -142 27 -185 4z"
       id="path304"
       style="fill:#cc3333" />
    <path
       d="M2198 4138 c-142 -162 -208 -275 -234 -401 -13 -58 -13 -80 -4 -112 38 -128 125 -226 317 -356 155 -106 234 -175 275 -238 15 -25 28 -43 29 -40 7 32 5 386 -2 519 -15 279 -54 420 -150 548 -36 47 -149 142 -169 142 -4 0 -32 -28 -62 -62z"
       id="path306"
       style="fill:#ff6699" />
    <path
       d="M2830 4184 c-87 -10 -174 -27 -282 -56 l-117 -30 23 -32 c13 -17 31 -47 41 -66 10 -19 18 -36 20 -38 1 -1 28 11 61 27 187 93 540 107 784 32 l65 -20 -30 25 c-50 40 -206 113 -285 133 -77 19 -218 32 -280 25z"
       id="path308"
       style="fill:#ffcccc" />
    <path
       d="M5116 4159 c-134 -33 -236 -96 -311 -195 -50 -65 -43 -74 15 -20 101 94 244 139 445 140 108 0 143 -3 205 -23 94 -29 146 -59 194 -112 51 -55 66 -96 66 -172 0 -102 -40 -188 -103 -223 -17 -10 -13 -17 35 -82 l53 -71 10 52 c15 75 49 123 110 158 49 27 54 34 65 80 24 100 -20 226 -111 317 -62 62 -181 126 -285 152 -103 27 -278 26 -388 -1z"
       id="path310"
       style="fill:#ff66ff" />
    <path
       d="M3732 4146 c-40 -8 -106 -30 -145 -49 -64 -30 -74 -38 -84 -70 -10 -34 -9 -39 12 -55 12 -10 41 -26 65 -37 42 -19 43 -19 149 4 192 41 291 53 382 47 85 -6 301 -53 458 -100 46 -13 79 -21 75 -16 -18 17 -282 150 -359 180 -115 45 -320 98 -406 104 -44 3 -104 0 -147 -8z"
       id="path312"
       style="fill:#ffcccc" />
    <path
       d="M6080 4131 c-51 -16 -88 -41 -131 -89 -68 -76 -76 -94 -56 -139 9 -21 21 -50 27 -65 l9 -28 52 32 c42 26 64 33 119 36 38 2 84 -1 103 -7 43 -15 113 -74 134 -115 27 -52 26 -11 -2 73 -25 76 -95 205 -150 277 -27 35 -52 41 -105 25z"
       id="path314"
       style="fill:#cc99cc" />
    <path
       d="M5165 4054 c-136 -21 -269 -75 -340 -138 l-40 -35 87 43 c273 136 581 106 668 -64 40 -79 36 -151 -11 -205 l-29 -32 41 -28 c38 -24 44 -26 67 -13 32 16 77 78 93 125 18 55 6 147 -25 194 -65 98 -188 150 -366 154 -63 2 -128 1 -145 -1z"
       id="path316"
       style="fill:#cc33cc" />
    <path
       d="M2875 4039 c-100 -13 -206 -44 -278 -80 -34 -17 -63 -32 -65 -34 -9 -8 23 -64 40 -69 32 -8 156 19 297 64 182 60 275 80 366 80 161 0 12 37 -180 45 -60 2 -141 0 -180 -6z"
       id="path318"
       style="fill:#ccffff" />
    <path
       d="M5108 3980 c-94 -17 -287 -84 -275 -96 2 -2 34 5 71 16 215 61 369 43 439 -51 20 -28 27 -95 14 -139 -7 -23 -4 -26 45 -43 78 -28 89 -26 115 12 65 95 -4 239 -136 287 -53 18 -205 27 -273 14z"
       id="path320"
       style="fill:#cc33cc" />
    <path
       d="M3100 3960 c-47 -10 -143 -37 -215 -59 -71 -23 -149 -44 -172 -48 -24 -3 -43 -8 -43 -12 0 -3 55 -19 123 -35 252 -59 501 -160 661 -267 100 -67 219 -184 276 -272 51 -80 58 -78 95 28 67 194 27 373 -115 515 -147 148 -369 202 -610 150z"
       id="path322"
       style="fill:#990099" />
    <path
       d="M3865 3955 c-38 -7 -102 -22 -141 -34 l-70 -22 68 -70 68 -71 53 18 c28 9 86 34 128 55 41 20 102 45 135 55 75 22 207 22 333 0 51 -10 95 -15 98 -13 7 7 -215 65 -311 82 -106 18 -264 18 -361 0z"
       id="path324"
       style="fill:#ffcccc" />
    <path
       d="M1396 3922 c-12 -72 -6 -296 9 -361 36 -151 155 -304 287 -369 88 -43 167 -58 373 -71 256 -17 353 -47 464 -147 l53 -48 -22 44 c-38 74 -126 155 -284 263 -231 156 -301 228 -337 348 -62 204 -237 336 -495 373 l-41 6 -7 -38z"
       id="path326"
       style="fill:#ff99cc" />
    <path
       d="M4981 3899 c-89 -23 -105 -34 -35 -24 62 8 127 -8 172 -41 36 -28 64 -76 60 -101 -2 -14 11 -19 71 -28 l73 -12 15 35 c18 44 9 84 -29 128 -56 64 -185 81 -327 43z"
       id="path328"
       style="fill:#ff00ff" />
    <path
       d="M4145 3876 c-33 -8 -109 -37 -170 -64 -60 -28 -122 -54 -138 -57 -38 -10 -41 -19 -19 -62 11 -21 27 -62 36 -91 l18 -52 37 21 c21 11 78 55 127 96 129 110 225 149 414 171 l65 8 -90 16 c-136 25 -213 29 -280 14z"
       id="path330"
       style="fill:#ffcccc" />
    <path
       d="M6054 3849 c-23 -5 -60 -26 -83 -45 -35 -30 -41 -41 -41 -74 0 -21 -4 -50 -9 -63 -10 -24 -8 -26 42 -32 144 -20 210 -109 223 -301 l7 -96 24 38 c38 64 84 182 110 287 l25 100 -23 49 c-30 64 -96 122 -154 137 -50 13 -64 13 -121 0z"
       id="path332"
       style="fill:#ff6666" />
    <path
       d="M4845 3839 c-22 -5 -51 -12 -65 -15 l-25 -6 25 -13 c49 -27 146 -55 245 -70 128 -19 125 -19 125 11 0 69 -63 104 -185 103 -44 -1 -98 -5 -120 -10z"
       id="path334"
       style="fill:#ff00ff" />
    <path
       d="M4418 3820 c-152 -18 -235 -56 -363 -165 -49 -43 -110 -90 -134 -105 l-44 -28 2 -69 c2 -83 -20 -172 -59 -236 -28 -46 -31 -77 -6 -77 37 0 103 71 194 209 106 161 175 241 268 307 77 55 226 126 319 153 l70 20 -90 -1 c-49 0 -120 -4 -157 -8z"
       id="path336"
       style="fill:#ffcccc" />
    <path
       d="M2620 3747 c63 -101 136 -264 164 -367 14 -52 39 -178 55 -280 42 -261 73 -341 178 -463 32 -38 78 -97 102 -130 25 -34 41 -53 37 -42 -18 45 -18 213 -1 399 20 215 14 312 -24 422 -59 167 -219 336 -446 469 -51 30 -96 55 -99 55 -4 0 12 -28 34 -63z"
       id="path338"
       style="fill:#ff3399" />
    <path
       d="M2670 3796 c0 -2 24 -19 53 -36 82 -51 209 -153 264 -214 78 -85 202 -277 229 -355 13 -38 28 -115 34 -172 28 -278 40 -332 83 -393 34 -47 104 -86 157 -86 64 0 108 31 142 101 101 204 13 521 -216 775 -135 151 -383 288 -648 359 -103 28 -98 27 -98 21z"
       id="path340"
       style="fill:#ff3333" />
    <path
       d="M4750 3791 c0 -32 56 -114 113 -167 66 -62 190 -133 312 -179 239 -90 346 -187 410 -373 21 -59 28 -103 32 -187 6 -130 -9 -208 -62 -322 -42 -91 -24 -79 49 31 119 180 166 311 166 462 0 213 -115 444 -270 544 -70 45 -145 66 -322 90 -221 31 -314 54 -420 108 -5 2 -8 -1 -8 -7z"
       id="path342"
       style="fill:#cc99ff" />
    <path
       d="M2574 3755 c17 -90 26 -234 27 -430 1 -121 5 -273 9 -337 l7 -117 54 -87 c63 -102 165 -208 234 -246 60 -32 215 -90 215 -80 0 4 -39 55 -86 112 -148 182 -180 258 -219 531 -26 179 -42 250 -82 362 -27 76 -121 268 -148 302 -15 19 -16 19 -11 -10z"
       id="path344"
       style="fill:#ff6666" />
    <path
       d="M4520 3751 c-232 -86 -329 -168 -486 -406 -72 -110 -135 -184 -186 -221 l-28 -19 24 -65 c24 -66 50 -178 61 -262 3 -27 10 -48 15 -48 18 0 123 128 150 185 16 33 48 132 70 220 23 87 54 189 69 227 56 132 178 271 319 362 40 26 72 49 72 51 0 6 6 8 -80 -24z"
       id="path346"
       style="fill:#ccccff" />
    <path
       d="M7185 3768 c-82 -29 -122 -82 -166 -220 -17 -51 -49 -124 -72 -163 -23 -38 -48 -83 -55 -99 -11 -25 -4 -22 45 25 32 30 124 110 205 177 177 147 192 165 184 211 -3 19 -14 43 -24 53 -23 23 -78 31 -117 16z"
       id="path348"
       style="fill:#ff3333" />
    <path
       d="M4650 3730 c-83 -116 -136 -322 -180 -700 -28 -237 -46 -336 -82 -449 -71 -224 -168 -382 -332 -547 -143 -143 -239 -213 -355 -260 -31 -13 -56 -27 -56 -32 0 -21 98 -134 161 -186 38 -31 71 -56 74 -56 3 0 16 21 28 46 47 96 195 214 268 214 38 0 187 176 245 293 36 71 91 258 115 392 19 112 23 335 8 500 -12 129 -1 399 20 495 22 100 53 193 88 263 31 63 31 73 -2 27z"
       id="path350"
       style="fill:#ffccff" />
    <path
       d="M4564 3693 c-93 -91 -140 -202 -194 -461 -100 -473 -196 -700 -378 -894 -117 -124 -239 -198 -389 -236 -40 -10 -75 -21 -78 -24 -11 -11 27 -162 57 -230 31 -68 32 -70 62 -64 42 8 165 68 221 106 163 112 317 295 419 498 91 181 131 339 166 657 12 105 30 237 41 294 24 125 80 299 115 359 14 24 24 46 21 48 -2 3 -31 -21 -63 -53z"
       id="path352"
       style="fill:#ffccff" />
    <path
       d="M4494 3677 c-147 -108 -256 -276 -309 -477 -14 -52 -34 -129 -45 -170 -34 -125 -80 -207 -159 -284 -48 -46 -71 -75 -71 -91 0 -51 -30 -177 -55 -229 -54 -114 -179 -219 -277 -232 -47 -6 -57 -18 -58 -65 0 -15 6 -15 66 -3 307 65 529 307 662 724 17 52 51 190 77 305 76 342 110 432 203 528 20 20 33 37 30 37 -3 0 -32 -19 -64 -43z"
       id="path354"
       style="fill:#ccccff" />
    <path
       d="M4642 3633 c-73 -160 -89 -303 -76 -663 11 -281 5 -442 -22 -605 -37 -230 -122 -409 -261 -556 l-34 -36 43 -7 c24 -4 66 -20 95 -36 l51 -29 52 51 c117 116 186 275 211 491 15 134 6 288 -32 507 -47 269 -59 365 -59 495 0 131 19 272 51 379 11 37 18 70 16 72 -2 2 -18 -26 -35 -63z"
       id="path356"
       style="fill:#ffcccc" />
    <path
       d="M3120 3668 c262 -161 415 -324 505 -536 73 -174 91 -350 46 -464 -23 -58 -79 -120 -127 -138 -42 -16 -105 -11 -151 11 -87 42 -125 138 -148 377 -17 169 -33 250 -65 315 -17 35 -19 37 -14 12 4 -16 10 -48 15 -70 13 -62 10 -210 -6 -320 -22 -150 -20 -318 5 -396 48 -151 180 -249 336 -249 149 0 279 117 341 305 21 67 26 99 26 195 0 173 -44 326 -143 490 -118 196 -285 334 -548 449 -104 46 -124 51 -72 19z"
       id="path358"
       style="fill:#cc3333" />
    <path
       d="M4677 3595 c-32 -144 -39 -204 -39 -350 1 -122 6 -183 32 -330 60 -344 63 -368 64 -525 0 -209 -25 -332 -99 -480 -37 -74 -114 -180 -152 -210 l-26 -20 29 -55 c29 -55 29 -55 44 -33 51 76 110 120 181 133 85 16 163 235 176 495 10 213 -21 411 -117 719 -32 107 -67 231 -76 275 -21 100 -23 258 -5 352 18 94 8 118 -12 29z"
       id="path360"
       style="fill:#ffcccc" />
    <path
       d="M4795 3584 c24 -60 82 -139 129 -178 24 -19 117 -71 208 -115 236 -114 312 -190 354 -352 22 -85 13 -177 -33 -332 -49 -167 -73 -266 -73 -302 0 -42 149 231 186 340 68 201 28 446 -95 587 -59 67 -120 102 -323 185 -202 82 -250 107 -321 165 l-48 40 16 -38z"
       id="path362"
       style="fill:#cc99ff" />
    <path
       d="M5865 3591 c-77 -36 -125 -111 -125 -195 0 -25 11 -78 24 -118 14 -40 28 -102 31 -138 6 -61 44 -190 55 -190 3 0 15 15 27 34 43 67 140 84 189 34 13 -13 29 -45 36 -73 6 -27 13 -51 14 -53 1 -2 17 6 35 17 105 64 249 -17 249 -140 l0 -49 66 25 c211 79 304 177 304 322 0 154 -92 243 -252 243 -118 0 -255 -55 -323 -130 -36 -39 -40 -26 -40 123 0 124 -3 148 -22 189 -36 78 -95 116 -183 117 -25 0 -63 -8 -85 -18z"
       id="path364"
       style="fill:#990033" />
    <path
       d="M4716 3500 c18 -122 74 -274 192 -520 164 -342 197 -471 197 -785 0 -233 -28 -372 -104 -511 l-29 -54 33 -56 c19 -31 37 -69 40 -85 4 -17 11 -29 16 -27 19 6 131 167 173 248 87 168 124 348 112 540 -18 283 -88 518 -200 673 -24 34 -94 121 -156 192 -130 152 -210 268 -251 363 -29 66 -29 67 -23 22z"
       id="path366"
       style="fill:#ff99ff" />
    <path
       d="M4780 3527 c0 -17 41 -86 78 -133 22 -28 105 -103 186 -168 157 -126 206 -182 256 -287 46 -99 60 -193 61 -412 l1 -192 22 85 c13 47 35 125 50 175 55 185 54 302 -4 422 -39 80 -127 161 -223 207 -40 19 -115 54 -168 79 -104 50 -186 115 -231 186 -15 25 -28 42 -28 38z"
       id="path368"
       style="fill:#cc99ff" />
    <path
       d="M4690 3428 c0 -107 23 -225 76 -395 107 -340 144 -524 144 -719 0 -200 -42 -425 -98 -529 -31 -57 -31 -65 0 -65 21 0 95 -35 120 -57 15 -14 20 -9 52 56 130 257 139 643 25 986 -17 50 -75 182 -129 295 -108 225 -141 311 -164 420 -8 39 -17 74 -20 78 -3 3 -6 -29 -6 -70z"
       id="path370"
       style="fill:#ff99ff" />
    <path
       d="M4790 3433 c0 -17 76 -122 181 -249 142 -173 213 -272 259 -364 39 -78 85 -212 96 -281 4 -21 11 -42 17 -46 15 -9 1 250 -18 322 -40 151 -116 248 -333 423 -56 46 -125 110 -152 143 -28 33 -50 56 -50 52z"
       id="path372"
       style="fill:#cc99ff" />
    <path
       d="M2095 3069 c18 -62 87 -204 129 -267 93 -141 245 -253 387 -287 38 -9 112 -15 183 -15 l119 0 -46 31 c-69 45 -155 145 -217 249 -109 184 -265 281 -495 305 l-67 8 7 -24z"
       id="path374"
       style="fill:#cc99ff" />
    <path
       d="M5965 3022 c-33 -7 -72 -40 -85 -72 -14 -34 -12 -55 23 -204 15 -61 29 -154 33 -209 l7 -99 36 40 c80 89 221 180 329 213 30 9 47 20 53 37 12 31 11 89 -1 112 -17 32 -74 60 -124 60 -40 0 -52 -5 -90 -40 -24 -22 -46 -40 -50 -40 -3 0 -6 21 -6 48 0 57 -15 116 -34 131 -19 16 -67 28 -91 23z"
       id="path376"
       style="fill:#990000" />
    <path
       d="M5795 2965 c-7 -38 -55 -184 -81 -248 l-19 -49 28 -24 c33 -29 92 -32 139 -8 29 15 30 18 24 62 -7 50 -63 257 -76 282 -6 11 -10 7 -15 -15z"
       id="path378"
       style="stroke:#9966ff;fill:#9966ff" />
    <path
       d="M5614 2559 l-68 -100 19 -35 c11 -20 39 -47 64 -62 55 -32 141 -34 216 -6 44 17 50 23 58 59 4 22 5 77 2 123 -6 72 -9 82 -23 77 -80 -33 -144 -25 -180 20 l-20 25 -68 -101z"
       id="path380"
       style="fill:#9999cc" />
    <path
       d="M2740 2463 c0 -13 63 -118 94 -157 34 -43 112 -106 131 -106 8 0 9 15 4 53 -4 28 -8 79 -8 112 -2 109 2 105 -117 105 -57 0 -104 -3 -104 -7z"
       id="path382"
       style="fill:#6666cc" />
    <path
       d="M2980 2466 c0 -2 9 -34 20 -70 75 -240 236 -454 405 -536 44 -22 98 -42 119 -46 44 -8 43 -15 7 87 -27 75 -43 179 -36 238 l6 48 -49 7 c-82 11 -164 59 -232 136 -50 56 -75 74 -140 104 -73 33 -100 42 -100 32z"
       id="path384"
       style="stroke:#9966ff;fill:#9966ff" />
    <path
       d="M5468 2348 l-57 -83 27 -49 c50 -91 147 -139 283 -138 43 0 82 3 88 6 14 9 69 156 77 205 l7 42 -29 -12 c-16 -6 -60 -12 -99 -12 -87 0 -145 24 -197 81 -21 23 -39 42 -41 42 -2 0 -29 -37 -59 -82z"
       id="path386"
       style="fill:#99ccff" />
    <path
       d="M2984 2279 c20 -277 150 -518 367 -680 79 -58 228 -130 319 -153 71 -19 197 -35 205 -28 3 3 5 15 5 27 0 16 -21 38 -71 75 -71 53 -162 152 -202 222 -19 32 -28 38 -71 44 -212 29 -409 214 -526 494 l-31 75 5 -76z"
       id="path388"
       style="fill:#9999cc" />
    <path
       d="M5382 2228 c-7 -7 -12 -39 -12 -77 0 -37 -5 -103 -12 -149 l-11 -82 29 -38 c17 -20 56 -50 87 -66 l57 -29 39 27 c62 44 153 130 188 178 l32 45 -72 6 c-132 10 -250 75 -296 164 -13 26 -19 31 -29 21z"
       id="path390"
       style="fill:#6699ff" />
    <path
       d="M5321 1848 c-23 -77 -79 -188 -137 -270 l-56 -81 73 64 c41 36 122 95 182 133 59 38 107 70 107 72 0 1 -20 14 -44 28 -24 14 -57 41 -74 61 -17 19 -33 35 -35 35 -2 0 -10 -19 -16 -42z"
       id="path392"
       style="fill:#6666ff" />
    <path
       d="M4185 1741 c-99 -26 -211 -118 -252 -207 -50 -109 -11 -242 102 -354 l56 -55 -16 37 c-51 123 24 262 156 290 48 10 59 9 100 -9 53 -24 92 -70 124 -148 l22 -56 13 31 c37 89 113 150 187 150 53 -1 131 -46 168 -98 27 -40 30 -51 30 -125 0 -45 -4 -93 -8 -107 -15 -48 90 77 125 147 31 63 33 75 33 168 0 86 -3 106 -24 145 -45 86 -103 130 -200 151 -92 19 -188 -26 -252 -120 -19 -28 -37 -51 -40 -51 -4 0 -14 20 -23 43 -22 58 -78 123 -128 148 -45 23 -127 32 -173 20z"
       id="path394"
       style="fill:#ff99ff" />
    <path
       d="M4191 1414 c-100 -50 -137 -156 -91 -262 17 -39 39 -65 96 -113 81 -66 163 -162 217 -252 34 -56 35 -57 49 -35 29 45 85 91 199 168 130 88 149 108 179 186 42 113 16 203 -72 253 -131 75 -241 4 -283 -183 -8 -38 -20 -23 -34 42 -26 122 -108 222 -184 222 -12 0 -47 -12 -76 -26z"
       id="path396"
       style="fill:#ffccff" />
  </g>
</svg>
