<?xml version="1.0" standalone="no"?>
<!DOCTYPE svg PUBLIC "-//W3C//DTD SVG 20010904//EN"
 "http://www.w3.org/TR/2001/REC-SVG-20010904/DTD/svg10.dtd">
<svg version="1.0" xmlns="http://www.w3.org/2000/svg"
 width="850.000000pt" height="850.000000pt" viewBox="0 0 850.000000 850.000000"
 preserveAspectRatio="xMidYMid meet">
<metadata>
Created by potrace 1.14, written by Peter Selinger 2001-2017
</metadata>
<g transform="translate(0.000000,850.000000) scale(0.100000,-0.100000)"
fill="#000000" stroke="none">
<path d="M2239 8096 c-46 -16 -140 -74 -156 -95 -7 -9 -17 -41 -24 -71 -18
-89 -16 -87 -62 -42 -48 47 -101 72 -151 72 -27 0 -49 -11 -91 -46 -31 -25
-83 -61 -115 -80 -59 -35 -84 -63 -96 -108 l-6 -27 -35 36 c-40 41 -102 75
-138 75 -68 0 -119 -44 -176 -151 -36 -67 -47 -76 -108 -83 -47 -6 -200 -83
-245 -125 -47 -43 -56 -78 -56 -215 l0 -125 -27 -18 c-16 -10 -60 -50 -98 -89
-70 -71 -71 -72 -101 -59 -17 7 -49 16 -70 19 -53 9 -66 -6 -108 -130 -32 -97
-33 -99 -78 -121 -61 -29 -94 -75 -128 -175 -15 -46 -35 -100 -44 -120 -23
-54 -20 -99 10 -144 l26 -38 -32 -58 c-35 -64 -41 -123 -26 -231 5 -43 15 -67
37 -92 l30 -34 -49 -64 c-91 -119 -122 -179 -122 -236 0 -44 8 -65 66 -165 36
-63 75 -123 86 -133 17 -15 37 -18 123 -16 l103 2 -51 -47 c-73 -68 -107 -146
-107 -242 0 -87 11 -134 43 -180 18 -28 64 -61 100 -73 4 -1 -8 -29 -27 -62
-35 -58 -56 -112 -56 -148 0 -22 65 -151 97 -194 28 -37 96 -73 137 -73 15 0
26 -3 24 -7 -47 -92 -48 -153 -4 -219 15 -23 43 -74 64 -115 30 -60 45 -78 82
-99 41 -24 46 -30 52 -76 3 -27 7 -84 7 -127 1 -43 7 -92 15 -110 7 -18 45
-62 84 -99 80 -76 111 -86 193 -69 28 6 54 9 57 6 3 -3 -3 -22 -13 -43 -9 -20
-20 -66 -22 -102 -5 -60 -3 -68 22 -98 15 -18 44 -37 67 -44 22 -7 64 -33 92
-58 63 -58 85 -70 130 -70 l35 0 37 -116 c29 -88 46 -126 75 -157 l37 -42 111
-3 111 -4 -31 -38 c-65 -81 -46 -168 50 -229 26 -17 62 -49 79 -71 41 -50 81
-59 168 -35 36 10 67 16 69 14 2 -2 -1 -28 -7 -58 -5 -30 -7 -65 -3 -79 9 -35
130 -158 180 -182 25 -12 62 -20 93 -20 29 0 52 -3 52 -7 0 -5 -5 -26 -10 -47
-15 -65 -3 -93 79 -180 42 -44 83 -90 91 -102 27 -37 63 -54 113 -54 65 0 80
-10 128 -85 49 -77 86 -111 141 -126 46 -12 80 -8 181 23 37 11 70 18 73 16 2
-3 -5 -25 -16 -49 -23 -52 -25 -88 -6 -133 17 -41 51 -65 139 -99 94 -37 144
-71 203 -136 28 -31 83 -78 122 -105 115 -79 188 -75 286 15 l54 50 -1 -132
-2 -131 61 -57 c33 -31 82 -70 108 -85 45 -27 51 -28 90 -16 58 17 207 94 245
125 79 67 83 153 16 317 -5 13 12 8 77 -20 66 -29 94 -35 136 -33 120 6 139 4
183 -13 73 -30 103 -19 215 82 116 104 142 145 127 205 -6 23 -14 50 -18 60
-7 16 -4 17 21 10 16 -4 45 -7 65 -6 53 3 195 61 221 90 60 67 64 70 116 77
63 8 184 61 231 101 41 35 70 97 71 147 0 21 -13 79 -30 130 -16 51 -28 94
-26 96 2 1 32 -12 67 -29 120 -61 202 -49 307 46 74 67 96 113 89 191 l-5 62
30 6 c46 9 93 7 143 -6 43 -11 46 -11 73 15 16 15 49 31 81 39 48 11 56 17 97
74 59 82 77 136 68 194 -5 25 -8 49 -9 54 0 11 90 44 122 45 61 2 108 46 230
214 34 47 38 87 14 142 -12 26 -21 49 -21 50 0 1 27 5 59 8 105 9 240 95 257
163 9 37 -23 273 -41 300 -19 29 -47 45 -108 59 l-48 11 36 41 36 42 54 -53
c96 -96 162 -106 328 -46 97 35 142 71 152 122 4 18 18 79 31 135 20 84 23
110 15 141 -12 42 -54 86 -119 124 l-43 25 78 5 c107 7 169 35 237 109 79 85
103 169 71 246 -21 50 -41 71 -97 99 -37 19 -48 30 -48 48 l0 24 81 -34 c123
-52 159 -46 205 32 15 25 58 70 97 101 l70 56 -6 118 c-10 205 -46 250 -216
273 l-86 11 61 33 c140 76 174 128 174 268 0 110 -17 150 -77 180 -23 12 -52
24 -65 28 -23 6 -22 7 7 20 55 25 124 107 156 187 41 101 47 154 21 205 -33
63 -165 218 -195 228 -25 9 -152 -5 -196 -22 -9 -4 -3 10 15 33 66 84 79 121
79 225 0 78 -4 104 -24 148 -44 98 -119 138 -211 112 -85 -24 -84 -24 -96 8
-7 19 -33 44 -68 68 -31 20 -56 40 -56 44 0 4 12 10 28 13 38 8 110 58 133 93
24 37 24 71 -1 135 -12 29 -25 84 -30 122 -5 40 -17 81 -27 96 -26 36 -215
131 -261 131 -60 0 -115 -34 -171 -107 l-51 -67 0 112 c0 73 -5 124 -14 146
-18 44 -74 88 -173 138 -46 23 -85 49 -87 57 -2 9 -7 33 -11 53 -4 29 -13 42
-35 53 -17 9 -38 32 -49 53 -26 51 -46 66 -120 91 -81 26 -155 27 -201 2 -34
-18 -36 -18 -72 0 -27 14 -43 16 -61 10 -24 -10 -38 -5 -88 31 -42 30 -217 88
-265 88 -86 0 -135 -32 -210 -137 -25 -35 -49 -63 -55 -63 -5 0 -9 16 -9 36 0
78 -63 151 -139 161 -45 6 -262 -32 -302 -53 -30 -15 -79 -69 -79 -87 0 -7
-11 -36 -25 -65 l-25 -53 -37 28 c-32 25 -45 28 -107 28 -65 0 -78 -4 -151
-43 -130 -70 -140 -81 -160 -161 l-17 -69 -36 15 c-27 11 -63 14 -137 11 -108
-4 -150 -19 -186 -68 -19 -26 -79 -224 -79 -261 0 -31 25 -73 66 -108 20 -18
34 -34 31 -37 -5 -5 -121 79 -132 95 -13 22 -85 51 -124 51 -23 0 -59 -7 -81
-16 -23 -9 -43 -15 -45 -13 -2 3 1 37 7 76 9 54 9 82 0 111 -14 45 -35 62
-108 86 -28 9 -78 33 -110 53 -78 48 -128 50 -200 6 l-52 -31 -4 78 c-4 104
-18 122 -138 182 -162 80 -186 83 -255 28 -21 -16 -41 -30 -46 -30 -4 0 -17
30 -30 68 -16 50 -33 79 -68 113 -61 62 -102 73 -274 74 l-139 0 -29 -33 -29
-33 -38 30 c-50 41 -112 66 -204 85 -92 19 -112 19 -159 2z m184 -52 c51 -15
104 -33 119 -40 33 -17 65 -69 73 -119 13 -83 -122 -287 -225 -340 -34 -18
-35 -18 -21 1 8 10 28 34 45 51 42 47 26 51 -34 9 -65 -45 -86 -47 -61 -6 23
35 -4 27 -40 -12 l-39 -43 4 35 c14 101 16 160 7 160 -6 0 -15 -19 -21 -42 -6
-24 -16 -61 -23 -83 l-11 -40 -10 78 c-5 42 -13 77 -18 77 -4 0 -8 -34 -8 -75
0 -43 -4 -75 -10 -75 -5 0 -10 13 -10 29 0 18 -8 34 -21 42 -57 39 -48 270 14
337 28 30 135 81 170 82 16 0 70 -12 120 -26z m617 -67 c34 -18 51 -36 73 -77
27 -52 29 -60 24 -150 -4 -90 -39 -228 -70 -285 -11 -18 -12 -17 -18 15 -6 31
-7 33 -14 13 -11 -34 -19 -28 -39 30 -26 71 -40 84 -32 27 18 -127 19 -120 -2
-70 -11 25 -41 100 -67 168 -26 67 -51 122 -56 122 -16 0 -10 -26 31 -141 22
-61 39 -113 37 -115 -2 -2 -17 16 -34 39 -33 48 -77 73 -144 82 -78 11 -88 15
-105 40 -15 23 -14 29 9 97 13 40 28 94 31 120 7 50 36 94 70 109 11 5 75 7
141 4 99 -4 128 -9 165 -28z m2736 7 c62 -29 69 -57 69 -251 0 -94 -4 -175 -8
-179 -4 -4 -62 46 -127 111 -72 72 -120 113 -120 103 0 -10 43 -67 95 -128 52
-61 95 -119 95 -129 0 -15 -11 -19 -62 -24 -55 -5 -77 -2 -173 30 -94 31 -116
42 -152 79 -66 68 -67 130 -6 267 32 72 62 89 193 111 52 9 96 19 99 21 10 11
65 4 97 -11z m486 -14 c141 -45 150 -53 183 -153 22 -67 27 -98 23 -143 -5
-55 -8 -61 -59 -108 -83 -77 -145 -101 -254 -101 -107 0 -129 6 -174 45 l-34
29 54 60 c30 33 88 97 129 142 45 49 65 77 50 69 -57 -29 -133 -97 -195 -172
-63 -77 -86 -88 -45 -20 23 37 24 42 10 42 -5 0 -23 -19 -40 -42 -16 -22 -30
-37 -30 -32 1 33 53 210 75 253 46 92 125 156 197 160 10 1 59 -12 110 -29z
m-4357 -61 c60 -32 93 -67 114 -125 23 -59 55 -223 47 -232 -3 -3 -17 0 -31 6
-29 14 -30 12 -10 -35 8 -19 15 -37 15 -39 0 -2 -40 16 -90 41 -96 48 -100 50
-100 36 0 -5 27 -26 60 -47 33 -22 60 -42 60 -46 0 -10 8 -10 -78 6 -40 7 -74
10 -77 6 -2 -4 38 -20 90 -36 52 -16 95 -32 95 -37 0 -9 -107 -2 -160 10 l-25
6 20 -23 20 -22 -55 6 c-111 14 -175 48 -206 109 -14 26 -15 49 -10 140 4 59
10 115 13 123 3 8 37 31 75 50 39 19 88 55 111 79 47 50 65 54 122 24z m4925
-35 c33 -7 110 -69 110 -89 0 -7 -57 -61 -127 -120 l-127 -107 -37 104 c-21
56 -38 113 -38 126 -1 29 24 78 46 92 17 10 106 7 173 -6z m-271 -104 c1 -30
13 -70 36 -119 19 -40 35 -82 35 -94 0 -11 -19 -49 -41 -84 -47 -72 -45 -72
-179 -44 l-85 17 50 35 c128 88 158 150 131 278 -16 74 -11 104 16 114 17 5
36 -47 37 -103z m-3098 -1 c111 -48 139 -71 146 -127 11 -82 -3 -111 -112
-238 -23 -27 -42 -37 -86 -46 -50 -10 -63 -9 -127 12 -40 12 -72 25 -72 29 0
3 42 46 92 94 62 58 83 83 62 73 -39 -19 -125 -86 -186 -144 -26 -25 -51 -43
-55 -39 -7 7 17 58 59 127 l21 35 -41 -39 c-23 -22 -44 -38 -46 -35 -3 2 24
63 59 134 66 138 121 205 168 205 13 0 66 -18 118 -41z m1790 -5 c32 -33 81
-153 83 -204 1 -33 -2 -37 -59 -65 -33 -16 -86 -55 -118 -86 -32 -31 -60 -52
-63 -47 -3 4 0 42 7 83 6 42 9 78 6 81 -6 7 -32 -73 -48 -151 -9 -45 -14 -54
-18 -37 -9 34 -25 32 -29 -3 -7 -62 -20 -44 -33 44 -13 89 -25 113 -37 69 -4
-17 -11 -7 -29 47 -27 80 -29 112 -9 160 12 29 31 43 123 90 93 47 114 55 152
51 31 -3 51 -12 72 -32z m-3809 -29 c54 -36 87 -91 99 -166 5 -35 21 -99 34
-142 24 -76 33 -157 17 -157 -4 0 -17 41 -27 90 -21 98 -41 122 -32 38 20
-179 20 -171 -3 -200 -12 -16 -25 -28 -30 -28 -4 0 -45 65 -90 145 -61 105
-99 160 -144 205 l-61 60 34 64 c72 133 112 151 203 91z m5535 -27 c18 -23 22
-72 8 -104 -7 -17 -30 -41 -50 -54 -21 -13 -68 -50 -104 -82 -36 -32 -75 -61
-86 -64 -11 -3 -50 -4 -85 -2 l-65 3 110 114 c115 119 215 201 245 201 10 0
22 -6 27 -12z m-4381 -45 c7 -10 14 -21 14 -25 0 -10 -81 -51 -87 -44 -6 6 46
86 55 86 3 0 11 -8 18 -17z m179 -82 c74 -33 145 -137 145 -211 0 -52 -38
-127 -85 -168 -59 -52 -86 -53 -245 -5 -125 38 -184 66 -209 102 l-22 31 105
0 c64 0 106 4 106 10 0 6 -28 10 -62 11 -35 0 -83 4 -108 8 l-45 7 55 7 c30 4
104 12 165 18 60 5 111 12 113 14 11 10 -73 16 -161 11 l-102 -7 24 21 c32 27
22 34 -29 20 -73 -20 -56 -1 39 42 56 26 90 47 87 54 -5 13 27 39 59 47 47 11
132 6 170 -12z m4348 -17 c60 -31 144 -95 154 -117 7 -15 7 -73 2 -172 -8
-118 -13 -155 -27 -174 -27 -37 -38 -35 -51 9 -6 22 -16 40 -21 40 -13 0 -13
-5 5 -70 8 -30 12 -56 10 -58 -4 -5 -17 24 -70 166 -21 56 -42 99 -47 94 -7
-7 7 -60 67 -252 l7 -25 -26 24 c-26 24 -26 24 -26 3 l0 -22 -52 21 c-54 20
-82 45 -72 61 13 20 -10 63 -60 117 -68 71 -106 127 -106 156 0 12 9 34 21 48
24 32 224 167 245 167 8 0 29 -7 47 -16z m-1711 -24 c42 -28 48 -40 19 -40
-42 0 -71 19 -71 46 0 29 0 29 52 -6z m-1531 -15 c47 -32 79 -45 152 -60 48
-10 74 -110 47 -181 -13 -34 -207 -244 -226 -244 -20 0 -18 14 12 71 43 87 10
77 -48 -14 l-33 -52 -3 173 c-2 159 -11 206 -26 150 -3 -13 -6 -78 -6 -145 0
-67 -4 -124 -8 -127 -4 -2 -21 31 -36 75 -16 43 -32 79 -37 79 -13 0 -12 -6
15 -93 20 -66 22 -76 8 -65 -10 8 -30 20 -45 26 -21 9 -37 31 -62 86 -77 166
-55 231 106 316 93 50 124 50 190 5z m897 5 c51 -31 105 -124 113 -195 4 -33
10 -76 15 -95 l7 -35 -25 23 c-32 29 -40 28 -28 -3 15 -39 -2 -31 -93 40 -45
36 -85 65 -89 65 -21 0 1 -26 90 -110 53 -50 89 -88 80 -84 -12 4 -18 1 -18
-9 0 -12 -8 -14 -36 -10 -20 3 -45 1 -58 -6 -20 -11 -38 -7 -131 28 -168 63
-175 76 -131 239 37 137 48 151 141 163 94 12 129 9 163 -11z m-3591 -17 c67
-31 209 -235 262 -375 22 -60 -10 -33 -69 58 -35 52 -67 97 -71 100 -22 13 25
-94 68 -158 28 -40 58 -89 68 -107 l18 -35 -29 19 c-16 10 -84 58 -151 107
-74 53 -123 82 -123 73 0 -25 57 -80 109 -105 47 -21 66 -40 41 -40 -22 0 -7
-19 38 -49 l47 -31 -45 0 c-25 1 -70 10 -100 21 -85 31 -90 32 -90 21 0 -6 30
-25 68 -42 37 -18 62 -34 55 -37 -19 -7 -314 57 -352 77 -75 38 -97 86 -106
231 -7 94 -5 110 11 138 24 40 92 84 187 122 84 33 116 35 164 12z m4738 -43
c21 -24 15 -58 -19 -97 -21 -24 -26 -26 -49 -16 -14 7 -33 24 -43 38 -19 29
-11 45 41 77 38 23 48 23 70 -2z m-3710 -30 c26 -38 27 -41 11 -65 -9 -14 -25
-25 -35 -25 -22 0 -71 37 -71 53 0 9 58 77 66 77 1 0 14 -18 29 -40z m3329 17
c53 -16 59 -37 11 -37 -21 0 -34 -4 -30 -10 3 -5 19 -10 36 -10 53 0 30 -17
-45 -33 -112 -25 -178 -53 -217 -93 l-34 -36 40 18 c98 43 237 83 324 94 51 6
95 9 98 7 2 -2 -37 -35 -86 -73 -50 -38 -90 -72 -91 -76 -1 -22 45 -3 91 38
28 25 53 43 56 40 3 -3 -39 -72 -94 -153 -76 -113 -108 -153 -138 -170 -52
-29 -127 -31 -172 -3 -31 19 -213 251 -213 271 0 32 149 208 177 209 5 1 31 7
58 15 61 17 176 18 229 2z m864 -66 c23 -5 45 -11 48 -14 3 -3 -17 -47 -44
-97 l-49 -92 -22 35 c-33 54 -92 102 -144 116 -60 17 -60 31 1 31 26 0 58 7
72 14 29 16 77 19 138 7z m-4626 -52 c-4 -3 -35 -16 -69 -27 l-61 -20 -11 43
c-6 24 -11 46 -11 48 0 3 36 -4 80 -16 44 -12 77 -24 72 -28z m4957 16 c16 -8
43 -38 61 -67 18 -29 52 -72 76 -96 58 -58 72 -100 47 -149 -15 -31 -41 -50
-163 -120 -79 -46 -148 -83 -153 -83 -22 0 -16 44 21 154 44 126 48 146 33
146 -5 0 -31 -55 -57 -122 -44 -117 -67 -158 -85 -158 -14 0 -76 141 -88 198
-15 72 -14 156 3 195 17 43 68 85 109 91 18 2 55 9 82 14 74 14 83 13 114 -3z
m-3650 -33 c8 -15 3 -26 -27 -54 -39 -37 -55 -39 -72 -7 -19 35 20 76 72 78
10 1 22 -7 27 -17z m3024 -3 c45 -12 94 -27 108 -35 41 -21 89 -82 126 -160
27 -57 32 -76 24 -95 -5 -13 -12 -32 -15 -42 -5 -15 -21 -3 -85 65 -74 78
-146 128 -185 128 -27 0 -18 -14 29 -43 25 -16 86 -72 135 -125 141 -150 127
-167 -133 -156 -111 5 -156 11 -180 24 -39 21 -87 108 -87 158 0 40 89 241
123 280 25 27 37 27 140 1z m1569 -24 c51 -25 99 -52 107 -60 8 -8 17 -49 21
-98 5 -52 16 -99 29 -125 28 -55 27 -61 -14 -109 -48 -56 -103 -76 -197 -71
-87 4 -186 45 -195 79 -5 16 -12 20 -34 17 -16 -3 -29 -2 -29 2 0 3 29 30 65
60 40 33 62 57 56 63 -6 6 -22 0 -43 -16 -18 -13 -46 -33 -62 -43 l-30 -19 37
55 c20 30 37 60 37 67 0 24 -30 0 -60 -48 -16 -27 -32 -49 -35 -49 -3 0 -3 15
0 34 5 26 3 36 -9 43 -14 8 -6 25 55 117 108 164 145 177 301 101z m-4156 -46
c12 -30 21 -56 19 -58 -2 -2 -33 22 -69 52 -47 40 -62 58 -53 65 41 33 74 14
103 -59z m-1556 40 c-11 -19 -10 -20 10 -9 52 28 28 -9 -57 -89 -81 -76 -108
-111 -88 -111 3 0 51 38 107 85 56 46 105 82 109 79 14 -8 10 -57 -6 -78 -8
-11 -15 -29 -15 -39 0 -19 1 -20 20 -2 19 18 20 17 20 -3 0 -33 -36 -138 -63
-185 -29 -49 -90 -107 -112 -107 -8 0 -28 29 -44 64 -36 74 -42 78 -191 101
-58 9 -109 21 -115 26 -12 12 30 157 53 183 42 45 219 106 315 106 65 0 67 -1
57 -21z m1437 -58 c138 -120 183 -166 183 -190 0 -22 -3 -23 -45 -17 -59 9
-58 -6 3 -32 72 -32 32 -26 -91 13 -60 20 -112 33 -115 30 -12 -11 19 -28 124
-66 98 -35 135 -54 123 -61 -2 -2 -23 -18 -47 -37 -78 -60 -196 -88 -249 -58
-11 7 -67 56 -123 110 l-102 99 7 86 c4 48 13 96 19 107 17 25 149 74 203 74
38 1 50 -6 110 -58z m-1114 8 c23 -12 44 -23 45 -25 5 -4 -51 -74 -59 -74 -4
0 -13 27 -22 60 -8 33 -13 60 -10 60 2 0 23 -10 46 -21z m3503 4 c-12 -43 -18
-113 -9 -113 6 0 18 27 28 60 10 33 22 60 27 60 11 0 11 -1 -12 -104 -33 -148
-27 -188 40 -267 l38 -46 -46 -24 c-26 -13 -51 -25 -56 -27 -4 -3 -5 19 -1 47
10 71 -8 64 -23 -9 -10 -45 -16 -59 -26 -53 -44 27 -195 161 -195 174 -1 27
65 149 124 229 30 41 55 70 55 65 0 -6 -7 -35 -15 -65 -17 -64 -18 -70 -7 -70
4 0 20 36 36 80 15 44 33 80 38 80 5 0 7 -8 4 -17z m-3591 -67 c44 11 51 -51
11 -110 -31 -47 -33 -89 -6 -166 11 -30 19 -58 20 -62 0 -12 -91 28 -112 49
-20 21 -21 25 -9 124 8 70 20 121 39 163 26 59 27 60 30 28 3 -28 6 -31 27
-26z m2117 16 c18 -16 47 -37 64 -47 17 -9 36 -26 42 -36 11 -18 49 -170 59
-237 6 -40 -17 -78 -51 -84 -35 -7 -126 10 -155 29 -66 43 -128 36 -201 -23
-41 -33 -46 -34 -55 -18 -5 10 -22 31 -37 47 -16 16 -28 30 -28 33 0 2 26 4
59 4 32 0 73 3 92 7 52 10 9 21 -83 22 -43 1 -78 5 -78 9 0 4 48 28 108 52 90
38 102 45 76 48 -17 2 -75 -11 -128 -28 -54 -17 -101 -29 -104 -25 -12 12 43
101 98 156 40 41 75 64 130 87 97 41 148 42 192 4z m-1767 -20 c44 -12 92 -24
108 -27 15 -3 42 -18 60 -34 52 -47 46 -94 -32 -266 -35 -77 -66 -142 -68
-145 -10 -10 -31 33 -79 159 -27 72 -52 131 -56 131 -11 0 -11 0 31 -168 23
-90 35 -155 29 -158 -13 -8 -161 82 -220 135 -55 49 -73 79 -87 143 -16 68 0
105 71 173 101 96 96 95 243 57z m285 -52 c-24 -34 -50 -40 -50 -12 0 18 31
40 58 41 9 1 6 -9 -8 -29z m2243 -12 c20 -23 23 -88 5 -106 -21 -21 -77 -14
-103 13 -33 32 -31 60 5 96 33 34 62 33 93 -3z m-2043 -5 c0 -16 -3 -38 -6
-51 -5 -18 -9 -20 -21 -11 -11 9 -19 7 -40 -12 l-25 -24 6 25 c16 56 30 82 50
90 33 13 36 12 36 -17z m-140 2 c0 -18 12 -19 28 -3 17 17 16 -15 -2 -50 -23
-43 -103 -112 -131 -112 -9 0 6 71 23 105 29 60 82 98 82 60z m1808 -52 c127
-7 152 -23 36 -23 -105 0 -96 -22 14 -34 45 -5 82 -12 82 -15 0 -4 -25 -19
-55 -34 -30 -15 -55 -31 -55 -37 0 -13 0 -13 50 5 78 28 66 15 -63 -62 -86
-51 -125 -79 -118 -86 10 -10 73 23 278 143 40 23 77 40 83 38 11 -3 -109
-191 -187 -292 -33 -43 -50 -54 -136 -89 -53 -22 -100 -37 -103 -34 -3 3 0 24
6 47 12 46 6 92 -17 129 -10 15 -13 36 -9 60 17 108 18 120 2 174 -19 66 -20
104 -3 110 18 8 68 8 195 0z m-3872 -34 c71 -57 162 -89 249 -89 50 0 43 -16
-12 -30 -68 -17 -120 -48 -133 -81 -15 -35 -38 -43 -96 -34 -61 9 -56 -10 6
-25 60 -14 72 -28 68 -75 l-3 -37 -45 36 c-51 40 -85 51 -121 37 -24 -9 -27
-5 -73 86 l-47 94 36 49 c43 59 90 100 114 100 10 0 36 -14 57 -31z m6242
-124 c-8 -8 -148 63 -148 75 0 5 10 16 22 25 22 15 25 13 77 -40 30 -30 52
-57 49 -60z m-4015 61 c18 -7 67 -50 110 -94 70 -72 77 -83 77 -119 0 -103
-41 -219 -85 -243 -23 -12 -31 -11 -71 8 -59 29 -83 28 -135 -8 -24 -16 -49
-30 -54 -30 -6 0 -45 20 -88 45 -60 35 -81 54 -98 86 -11 23 -19 42 -17 43 2
1 79 33 171 71 92 37 166 70 164 72 -11 11 -159 -31 -257 -73 -61 -25 -114
-44 -117 -40 -9 8 55 109 105 166 62 71 166 128 235 130 15 0 42 -6 60 -14z
m-1340 -15 c31 -4 65 -14 74 -24 24 -23 29 -114 9 -161 -11 -27 -14 -53 -10
-90 9 -74 1 -79 -162 -84 -81 -3 -134 -1 -134 5 0 5 14 35 31 66 31 57 28 74
-6 37 -10 -11 -26 -19 -36 -18 -10 2 -29 -8 -43 -21 l-25 -23 14 53 c8 30 15
55 15 57 0 1 -8 -2 -19 -7 -10 -6 -21 -8 -24 -4 -9 9 81 182 110 210 27 28 27
28 206 4z m357 -15 c0 -24 -19 -45 -57 -65 -35 -18 -34 1 3 52 36 49 54 53 54
13z m4842 12 l23 -23 -40 -7 c-22 -4 -53 -7 -70 -7 l-30 0 35 29 c41 36 53 37
82 8z m-3122 -3 c47 -24 62 -62 34 -89 -38 -39 -134 -7 -134 45 0 56 42 74
100 44z m1424 -47 c31 -35 56 -69 56 -75 0 -18 -31 -16 -59 3 -22 16 -23 16
-18 -2 21 -69 21 -76 -2 -69 -19 6 -21 3 -21 -32 0 -70 20 -165 46 -215 14
-28 23 -52 21 -55 -3 -2 -42 6 -88 18 -62 15 -99 19 -143 15 l-58 -6 -69 67
c-38 36 -69 70 -69 74 0 4 34 65 76 134 102 170 106 169 121 -45 13 -188 10
-170 23 -170 6 0 10 70 10 190 l0 190 26 -10 c35 -14 36 -13 24 11 -22 40 2
34 41 -11 38 -44 52 -39 24 10 -36 63 -8 52 59 -22z m87 31 c46 -17 85 -32 87
-34 2 -1 -13 -12 -32 -23 l-34 -20 -39 25 c-66 45 -101 83 -75 83 5 0 46 -14
93 -31z m1953 0 c34 -27 36 -83 4 -125 -12 -16 -23 -30 -24 -32 -9 -13 -45 25
-54 56 -28 103 8 153 74 101z m-6726 -4 c72 -31 118 -94 108 -149 -4 -18 -1
-47 5 -64 13 -39 -3 -70 -51 -98 -16 -10 -33 -26 -36 -36 -10 -33 -42 -32 -79
4 -19 18 -48 45 -65 60 -26 23 -30 34 -30 76 0 58 23 132 47 150 9 6 28 12 42
12 l26 1 -29 23 c-20 17 -24 25 -15 29 24 9 38 8 77 -8z m721 -50 c34 -17 53
-54 81 -159 26 -93 21 -120 -14 -87 -23 21 -25 22 -34 5 -9 -16 -14 -14 -56
21 -58 50 -135 105 -147 105 -21 0 -5 -22 49 -66 96 -81 132 -117 132 -136 0
-26 -19 -31 -75 -18 -54 12 -69 6 -40 -17 19 -14 17 -15 -28 -9 -57 7 -121 38
-142 69 -20 30 -10 220 13 240 22 19 163 65 200 66 18 1 46 -6 61 -14z m4332
-25 c79 -47 116 -87 125 -138 11 -55 -13 -252 -34 -281 -9 -13 -23 -33 -29
-45 -12 -20 -13 -19 -29 22 -9 23 -21 42 -26 42 -8 0 -4 -48 9 -92 2 -10 2
-18 0 -18 -2 0 -23 54 -47 120 -23 66 -46 120 -52 120 -12 0 -5 -35 34 -172
25 -88 29 -110 18 -122 -15 -19 -25 -14 -128 63 -99 75 -112 90 -161 184 -57
109 -53 154 21 223 48 46 187 134 211 134 12 0 51 -18 88 -40z m1377 25 c117
-27 156 -66 168 -172 3 -26 10 -67 16 -90 15 -59 5 -87 -55 -151 -43 -46 -143
-109 -154 -98 -2 2 4 32 13 67 20 80 13 146 -22 206 -23 39 -24 44 -8 39 96
-28 99 -10 7 32 -100 45 -154 57 -207 43 -55 -14 -106 -14 -106 -1 0 14 32 28
79 36 55 9 61 21 14 29 -21 4 -42 8 -48 9 -17 4 45 39 93 52 64 17 131 17 210
-1z m-4831 -41 c26 -9 86 -36 132 -61 69 -38 81 -47 67 -55 -12 -7 -16 -17
-12 -33 l6 -22 -88 18 c-48 10 -105 19 -127 19 -47 0 -115 -17 -115 -29 0 -5
53 -11 118 -13 134 -5 264 -40 270 -71 5 -23 -41 -66 -151 -142 -118 -81 -145
-95 -194 -95 -72 0 -128 32 -158 90 -20 38 -67 269 -59 292 6 20 100 69 194
101 57 20 60 20 117 1z m4363 -19 c40 -30 52 -48 44 -68 -12 -33 -116 -51
-142 -25 -17 17 -15 78 5 100 22 25 53 23 93 -7z m-2243 -19 c37 -14 94 -30
126 -36 39 -8 69 -21 90 -40 53 -47 46 -91 -38 -256 -38 -76 -76 -140 -82
-142 -10 -3 -13 14 -13 62 0 65 -12 86 -26 44 -9 -28 -17 -13 -38 70 -9 35
-23 73 -31 85 -22 31 -19 7 10 -98 13 -50 28 -117 31 -149 l7 -59 -29 7 c-51
13 -107 52 -179 125 -82 83 -105 122 -105 174 0 52 11 71 90 149 55 56 83 76
117 87 1 1 32 -10 70 -23z m1906 17 c59 -3 107 -10 107 -15 0 -4 -45 -8 -100
-8 -60 0 -100 -4 -100 -10 0 -6 26 -10 59 -10 82 0 181 -11 176 -20 -3 -4 -18
-10 -35 -13 -44 -9 -37 -27 12 -27 55 0 42 -10 -59 -49 -97 -37 -111 -38 -165
-10 -32 16 -54 20 -98 17 -69 -5 -98 -22 -153 -93 -22 -29 -45 -51 -49 -49
-18 11 -8 101 17 151 29 58 79 97 158 124 58 21 80 22 230 12z m1405 -9 c77
-22 161 -66 194 -101 33 -35 45 -65 53 -140 9 -75 -3 -103 -92 -213 -77 -95
-118 -119 -187 -106 -46 9 -120 74 -167 148 -38 58 -79 168 -79 206 1 22 8 14
37 -43 20 -38 38 -65 40 -60 2 6 -8 46 -21 90 -13 44 -22 81 -21 83 2 2 13 -2
25 -8 31 -17 34 -8 9 34 l-21 36 87 -46 c115 -61 132 -46 30 26 -41 29 -73 55
-71 57 2 3 20 0 40 -5 33 -10 49 -1 26 13 -16 10 -12 21 13 33 31 15 41 14
105 -4z m-3948 -2 c0 -5 -36 -28 -80 -52 -52 -29 -76 -48 -70 -54 7 -7 26 -2
56 12 26 13 49 21 51 18 3 -3 -22 -37 -56 -77 -34 -40 -61 -76 -61 -81 0 -23
32 1 126 93 57 56 107 98 113 95 18 -11 13 -88 -9 -152 -29 -83 -22 -115 9
-41 29 67 46 74 38 15 -8 -57 -33 -87 -106 -126 -73 -39 -101 -78 -101 -139 0
-40 -2 -43 -27 -42 -16 1 -57 6 -92 13 -64 11 -65 11 -79 54 -14 42 -60 99
-95 119 -18 9 -17 14 12 98 50 140 55 148 119 179 31 16 95 39 142 52 97 25
110 27 110 16z m314 -38 c30 -12 37 -39 21 -84 -20 -57 -19 -110 4 -170 21
-54 18 -57 -35 -35 -20 8 -65 20 -100 26 -68 12 -69 13 -54 74 6 25 8 27 14
13 16 -36 24 -16 19 44 -4 39 -3 59 4 55 5 -4 34 -47 64 -96 50 -84 69 -106
69 -81 0 5 -23 53 -51 107 l-51 98 39 -43 c21 -23 41 -42 45 -42 4 0 -2 30
-13 67 -10 38 -19 69 -19 70 0 5 28 3 44 -3z m2860 -58 c40 -17 123 -124 132
-172 13 -73 -86 -296 -149 -335 l-32 -19 -5 58 -5 57 -15 -60 -15 -60 -3 143
c-2 138 -13 181 -26 105 -3 -21 -6 -63 -6 -94 0 -90 -12 -182 -21 -167 -5 7
-9 34 -9 61 0 26 -4 47 -10 47 -5 0 -10 -18 -10 -40 0 -54 -16 -52 -78 8 -60
59 -92 136 -99 244 -9 118 13 153 120 193 47 18 146 42 180 44 10 1 32 -5 51
-13z m-6412 -109 c21 -43 36 -157 21 -157 -5 0 -38 11 -73 25 -73 29 -73 29
-68 14 2 -6 30 -25 63 -42 49 -26 60 -37 60 -57 0 -21 -11 -31 -75 -62 -86
-42 -129 -47 -155 -18 -22 24 -17 67 20 186 30 99 78 173 125 197 l35 17 14
-32 c8 -18 23 -50 33 -71z m461 71 c16 -18 44 -69 63 -113 l32 -80 -33 -60
c-18 -33 -47 -107 -64 -165 -56 -186 -74 -220 -116 -220 -34 0 -69 33 -125
116 -56 85 -68 119 -51 146 6 10 8 30 5 44 l-6 25 78 -7 c90 -8 90 0 1 36 -60
24 -62 27 -65 64 -4 47 22 88 118 180 82 80 114 86 163 34z m5534 -15 c-65
-115 -100 -173 -103 -173 -3 0 -13 20 -23 43 -11 24 -31 53 -45 64 l-26 21 41
16 c25 10 53 14 72 11 21 -4 39 -1 52 9 21 16 39 21 32 9z m1660 -23 c41 -24
57 -51 78 -124 35 -120 0 -228 -106 -331 -62 -61 -64 -60 -22 7 43 70 4 48
-58 -32 -34 -44 -64 -79 -66 -76 -2 2 5 23 17 46 26 50 19 62 -15 30 -14 -13
-27 -22 -29 -19 -2 2 14 62 35 133 22 70 38 133 36 140 -6 17 -44 -64 -72
-152 -25 -78 -39 -98 -83 -121 -21 -11 -24 -9 -37 22 -23 55 4 132 71 206 44
50 64 99 64 159 0 102 103 163 187 112z m-1963 -29 c23 -16 62 -37 87 -48 26
-12 50 -26 54 -33 5 -7 11 -51 16 -96 4 -46 15 -106 24 -133 21 -64 8 -96 -52
-129 -67 -37 -145 -46 -230 -26 -40 9 -73 21 -73 25 0 4 17 10 38 12 22 2 9 4
-33 6 l-70 2 35 28 c19 16 32 32 29 35 -3 3 -32 -3 -64 -14 -33 -11 -63 -19
-67 -18 -4 2 30 34 77 72 47 37 83 72 80 77 -3 4 -35 -9 -70 -31 -36 -22 -65
-37 -65 -34 0 4 20 35 45 70 25 34 41 65 37 68 -5 3 -31 -22 -58 -54 -27 -33
-52 -60 -56 -60 -3 0 -9 14 -13 31 -6 24 0 46 26 97 53 103 85 141 142 168 62
29 101 26 161 -15z m-3430 -3 c15 -24 -3 -69 -37 -88 -24 -13 -30 -13 -54 0
-15 9 -32 28 -38 44 -8 24 -6 31 14 48 30 24 99 22 115 -4z m4621 -85 c8 -60
0 -133 -18 -157 -11 -15 -17 -15 -77 5 -36 12 -67 24 -69 26 -3 2 9 18 25 36
48 52 57 66 70 115 12 43 13 44 13 15 1 -55 21 -37 22 20 1 52 1 52 14 22 8
-16 17 -54 20 -82z m-6231 -14 c-6 -11 -45 -11 -61 -1 -13 8 -33 55 -33 78 0
10 18 0 50 -27 27 -23 47 -46 44 -50z m3772 55 c39 -19 114 -97 114 -120 0 -8
-23 -60 -52 -115 l-51 -100 23 -55 c12 -30 20 -57 17 -60 -3 -3 -20 -10 -39
-14 -18 -5 -52 -15 -76 -22 -58 -17 -119 0 -203 57 -50 34 -70 55 -81 84 l-16
40 154 63 c85 35 147 64 139 66 -22 5 -182 -37 -245 -64 l-55 -24 37 34 c41
35 41 50 1 35 -36 -13 -36 -13 -11 33 25 44 97 107 162 140 80 41 129 47 182
22z m-3005 -14 c10 -6 19 -16 19 -23 0 -22 58 -134 80 -155 12 -11 48 -33 79
-49 l56 -28 -39 -3 c-22 -2 -59 1 -82 7 -80 20 -115 15 -173 -29 -29 -22 -64
-43 -77 -46 -36 -9 -76 12 -115 59 -56 67 -56 72 5 38 31 -18 60 -30 63 -27 7
7 10 4 -49 45 -27 18 -48 34 -48 36 0 2 25 -5 56 -16 97 -34 110 -18 20 24
-44 20 -77 39 -75 41 2 3 79 -12 171 -32 93 -19 171 -32 175 -28 12 11 -10 20
-110 47 l-92 24 48 3 c31 2 47 7 44 15 -5 17 -42 25 -122 27 -101 2 -53 18 58
19 94 1 117 16 40 26 -79 10 -80 11 -33 22 60 14 78 15 101 3z m-383 -22 c21
-21 13 -58 -18 -89 -25 -25 -33 -28 -50 -19 -28 15 -34 34 -19 62 28 55 61 72
87 46z m4976 -45 c4 -27 9 -61 12 -78 l6 -30 -45 44 -46 44 26 33 c14 19 29
34 33 34 4 0 11 -21 14 -47z m-3557 -6 l24 -24 -36 -69 c-33 -62 -37 -75 -32
-125 l5 -55 -72 9 c-90 11 -100 20 -87 78 6 24 11 68 11 97 0 49 10 66 25 41
4 -5 12 -8 18 -6 7 2 20 -2 30 -11 25 -22 29 -11 12 38 -8 23 -12 47 -9 52 11
18 85 1 111 -25z m-444 -7 c-4 -16 -1 -20 18 -18 15 2 27 -5 37 -22 14 -25 12
-30 -32 -106 -25 -45 -46 -84 -46 -87 0 -21 24 1 65 58 26 37 51 63 57 59 6
-4 19 4 29 17 29 37 41 9 34 -76 -5 -64 -5 -68 10 -51 14 19 15 18 15 -15 0
-40 -23 -66 -82 -94 -52 -24 -92 -72 -118 -142 -28 -75 -37 -85 -70 -78 -14 3
-57 -1 -94 -10 -38 -9 -70 -14 -72 -13 -2 2 8 39 21 81 41 129 31 201 -37 273
l-29 31 59 54 c43 40 221 158 239 159 0 0 -1 -9 -4 -20z m703 0 c145 -50 194
-99 194 -195 0 -39 -7 -62 -30 -98 -16 -26 -31 -47 -34 -47 -2 0 -2 19 1 43 8
59 -9 38 -37 -46 -22 -67 -22 -68 -42 -50 -31 27 -36 43 -59 160 -20 108 -39
155 -39 98 0 -17 7 -77 15 -135 19 -139 19 -137 -3 -117 -27 25 -31 21 -25
-25 5 -48 -2 -43 -38 25 -18 34 -23 38 -49 32 -24 -5 -32 -1 -53 27 -55 74
-69 126 -47 184 16 40 139 164 165 164 11 0 48 -9 81 -20z m-1968 -17 c39 -9
72 -19 72 -22 0 -3 -41 -31 -90 -61 -50 -30 -90 -58 -90 -62 0 -16 26 -7 98
32 88 48 106 50 122 10 15 -36 12 -45 -58 -165 -62 -107 -119 -165 -160 -165
-41 0 -95 48 -128 111 -29 58 -30 94 -5 136 11 17 25 51 31 74 15 55 37 87 75
110 37 23 43 23 133 2z m2789 -17 c38 -13 86 -34 106 -47 33 -21 37 -29 37
-66 l0 -41 -46 14 c-25 7 -74 17 -109 20 -70 7 -162 -3 -149 -16 5 -5 60 -13
122 -20 130 -12 205 -36 211 -65 2 -11 8 -23 14 -27 6 -4 -16 -19 -49 -33 -72
-33 -56 -45 21 -16 30 11 55 19 55 17 0 -4 -286 -166 -294 -166 -2 0 -10 15
-16 34 -6 19 -30 54 -53 79 -23 24 -62 68 -86 97 -25 28 -54 57 -67 62 -25 12
-44 47 -44 83 0 33 31 59 104 89 80 33 151 33 243 2z m1250 -1 c103 -32 228
-105 281 -163 23 -26 39 -48 34 -50 -4 -1 -50 16 -100 38 -51 22 -97 40 -103
40 -22 0 -6 -18 30 -34 21 -10 51 -27 67 -38 l29 -19 -80 2 c-186 5 -177 -9
25 -41 80 -13 149 -26 153 -30 5 -5 -8 -11 -30 -14 -49 -9 -79 -26 -45 -26 38
0 17 -15 -63 -46 -96 -37 -103 -56 -12 -35 20 5 37 7 37 6 0 -2 -25 -18 -56
-36 l-56 -32 -82 43 c-44 24 -102 62 -127 86 -37 34 -57 44 -95 49 -64 8 -89
21 -104 53 -10 23 -6 37 39 128 28 57 63 112 77 123 35 28 85 27 181 -4z
m-4666 -8 c8 -18 7 -33 -5 -60 -17 -41 -30 -46 -46 -18 -15 29 -12 62 7 83 21
24 31 23 44 -5z m5828 -42 c60 -43 124 -112 183 -195 91 -130 85 -144 -23 -45
-66 61 -89 76 -89 57 0 -4 14 -24 31 -45 17 -21 29 -40 27 -43 -3 -2 -40 10
-82 28 l-78 33 6 46 c5 35 1 61 -19 113 -14 36 -25 71 -25 76 0 18 22 10 69
-25z m1133 -170 c74 -93 138 -176 142 -184 7 -11 -9 -12 -87 -10 -85 4 -98 7
-121 28 -19 18 -26 35 -26 62 0 52 -15 86 -57 132 -33 37 -35 42 -29 88 4 27
9 56 13 65 7 20 -1 29 165 -181z m-304 121 c15 -8 62 -50 105 -94 84 -87 89
-101 61 -168 -11 -26 -16 -66 -16 -117 1 -70 -2 -82 -22 -102 -25 -25 -83 -45
-132 -45 -51 0 -121 26 -190 70 -79 52 -86 81 -26 108 l37 17 -70 5 c-79 6
-83 3 57 57 37 14 65 29 63 34 -3 4 -33 1 -67 -7 -90 -21 -97 -14 -35 31 30
22 53 43 51 47 -7 10 -32 -1 -89 -39 -91 -61 -100 -37 -22 58 107 129 219 184
295 145z m-5580 -173 c8 -14 12 -49 10 -88 l-3 -64 -69 30 c-107 46 -136 47
-179 9 -20 -17 -53 -54 -73 -81 -34 -47 -37 -49 -55 -33 -25 23 -32 65 -19
116 16 57 50 114 60 97 6 -9 15 -7 37 9 17 12 36 28 43 37 18 21 30 19 30 -7
0 -36 11 -68 21 -62 5 3 9 31 9 62 l1 57 23 -27 c13 -15 26 -25 29 -22 2 3 -2
33 -9 67 -7 34 -13 66 -14 71 0 13 142 -141 158 -171z m5382 169 c0 -5 -23
-29 -52 -53 -30 -25 -49 -36 -45 -25 4 10 7 21 7 25 0 21 44 61 66 61 13 0 24
-4 24 -8z m-6668 -239 c-2 -110 -8 -193 -14 -200 -14 -18 -89 -16 -114 1 -18
13 -22 29 -28 126 -6 98 -4 114 13 148 25 49 94 112 124 112 l22 0 -3 -187z
m1737 152 c113 -30 146 -111 103 -252 -29 -94 -96 -198 -146 -225 -20 -11 -21
-13 21 55 41 66 19 63 -41 -6 -33 -37 -63 -64 -67 -61 -5 3 0 28 11 57 22 58
24 67 11 67 -4 0 -23 -33 -41 -72 -18 -40 -34 -68 -36 -63 -2 6 -8 57 -12 115
-8 94 -10 102 -20 77 -7 -16 -12 -57 -12 -92 0 -91 -9 -109 -31 -59 -17 37
-18 38 -18 11 l-1 -28 -30 21 c-55 39 -90 143 -90 265 0 85 65 163 167 201 44
17 149 12 232 -11z m1376 6 c18 -7 15 -11 -22 -30 -23 -11 -45 -21 -48 -21
-11 0 -4 29 11 44 17 17 28 19 59 7z m955 -26 c70 -36 33 -115 -55 -115 -46 0
-85 86 -53 118 17 17 73 15 108 -3z m-753 -24 c17 -11 45 -39 61 -63 17 -24
49 -60 71 -81 45 -42 51 -69 24 -107 -10 -14 -31 -52 -48 -85 -34 -67 -110
-137 -148 -137 -30 0 -170 80 -162 92 3 5 -15 21 -40 35 -25 15 -45 30 -45 35
0 8 94 18 195 22 33 1 -12 5 -100 8 l-160 5 75 23 c41 13 105 33 143 44 37 11
67 24 67 29 0 19 -199 -20 -282 -56 -37 -15 -16 15 42 62 67 54 64 69 -6 28
-25 -15 -48 -24 -51 -21 -3 3 5 22 18 42 18 30 43 47 133 90 122 58 163 65
213 35z m4073 -11 c0 -19 -11 -41 -30 -62 l-30 -33 -52 55 c-50 53 -50 55 -27
61 13 4 50 7 82 8 57 1 57 1 57 -29z m-1996 5 c38 -38 22 -98 -29 -111 -39
-10 -58 13 -52 58 9 64 46 88 81 53z m-5107 -88 c136 -138 135 -164 -6 -253
-96 -61 -129 -67 -182 -31 -48 32 -71 100 -64 189 5 63 22 131 25 98 1 -8 10
3 21 25 l19 40 -6 -77 c-3 -43 -2 -78 3 -78 5 0 14 32 21 71 24 142 44 144
169 16z m2174 49 c62 -26 129 -68 124 -76 -3 -5 -17 -5 -31 0 -24 10 -25 9
-19 -24 6 -29 4 -35 -14 -41 -12 -3 -46 -1 -76 6 -30 7 -58 9 -62 6 -10 -11 0
-16 73 -33 103 -25 119 -32 137 -63 l16 -28 -129 -38 c-78 -23 -130 -43 -130
-51 0 -11 92 8 204 42 12 4 16 2 12 -5 -12 -19 -220 -80 -297 -87 -71 -6 -77
-5 -104 19 -26 22 -30 32 -33 96 -4 62 -1 78 22 126 24 48 36 60 109 103 45
27 89 52 97 55 27 10 67 7 101 -7z m5515 -10 c11 -8 53 -58 94 -111 92 -121
94 -137 26 -277 -41 -86 -52 -100 -91 -124 -39 -23 -54 -26 -106 -22 -52 4
-69 11 -132 54 -69 48 -160 155 -144 170 3 4 30 -3 58 -15 76 -33 85 -12 12
30 l-58 34 163 3 c97 1 162 6 162 12 0 6 -59 10 -150 10 -177 0 -195 12 -75
50 41 13 75 27 75 32 0 10 -9 10 -97 -6 -45 -8 -73 -9 -73 -3 0 24 48 90 79
109 92 57 215 83 257 54z m-1861 -63 c74 -37 135 -71 135 -76 0 -4 -15 -5 -34
-2 -29 6 -34 4 -39 -15 -6 -22 -10 -22 -99 -18 -102 5 -141 20 -212 82 l-39
34 59 30 c32 17 67 31 76 32 10 0 79 -30 153 -67z m-425 15 c64 -19 169 -80
204 -118 34 -37 34 -38 31 -126 -2 -49 -3 -92 -4 -96 -3 -19 -189 -218 -204
-218 -5 0 -6 10 -3 23 4 12 9 54 13 93 5 65 3 76 -22 122 -33 61 -89 117 -151
151 -49 27 -102 85 -86 95 5 3 24 -5 43 -18 170 -115 208 -118 72 -5 -49 39
-78 69 -65 65 12 -3 31 -9 42 -12 21 -6 28 10 9 21 -7 5 -5 13 6 26 18 19 42
18 115 -3z m-1865 -28 c-16 -16 -26 -32 -23 -35 3 -3 27 7 53 22 48 27 52 20
12 -24 -31 -34 -11 -41 23 -8 16 16 32 27 34 24 3 -2 -29 -56 -70 -118 -40
-63 -71 -117 -69 -120 9 -9 53 42 108 124 57 87 84 102 111 64 19 -28 15 -34
-37 -57 -84 -38 -109 -88 -133 -276 -23 -178 -41 -200 -69 -85 -23 91 -50 122
-136 153 -113 41 -132 53 -124 84 16 67 77 129 205 209 141 87 167 97 115 43z
m945 -24 c38 -36 87 -70 107 -76 51 -17 61 -26 69 -65 17 -91 -61 -199 -194
-269 l-74 -38 -23 22 -23 21 -21 -27 c-12 -15 -24 -25 -26 -22 -3 3 6 70 20
149 14 79 25 155 24 169 -1 23 -2 22 -16 -10 -8 -19 -23 -78 -33 -132 -26
-137 -35 -147 -48 -58 -6 39 -13 75 -16 78 -14 13 -16 -11 -8 -92 11 -114 1
-114 -58 2 -38 75 -56 168 -46 236 10 63 53 109 116 125 25 7 70 20 100 31 30
10 61 19 67 19 7 1 44 -28 83 -63z m-4182 9 c45 -64 84 -85 157 -85 67 0 79
-5 89 -37 14 -43 -32 -100 -184 -229 -140 -120 -177 -144 -166 -106 30 102 86
335 82 340 -14 13 -29 -24 -70 -170 -46 -163 -61 -202 -76 -193 -5 3 -21 59
-36 125 -15 66 -32 120 -37 120 -15 0 -1 -115 22 -190 11 -35 19 -66 16 -68
-6 -7 -53 82 -64 123 -6 22 -11 62 -11 88 0 43 4 52 44 91 27 26 49 59 57 84
7 23 18 42 25 42 31 0 64 26 86 66 13 24 25 44 29 44 3 0 19 -20 37 -45z
m3562 -37 l52 -48 -49 0 c-27 0 -54 5 -61 12 -14 14 -17 91 -3 86 4 -1 32 -24
61 -50z m193 -10 c27 -19 27 -21 27 -126 l0 -107 -80 120 c-43 65 -77 121 -75
123 2 3 16 -3 31 -12 33 -23 39 -15 19 24 l-16 31 33 -17 c18 -9 45 -25 61
-36z m2117 27 c8 -10 11 -32 7 -62 -9 -79 -72 -109 -122 -58 -35 35 -33 76 6
109 35 29 89 35 109 11z m-5274 -11 c70 -34 144 -138 178 -253 21 -72 22 -71
-21 -71 l-37 0 29 -30 c16 -16 24 -30 19 -30 -5 0 -77 22 -159 50 -82 27 -153
46 -157 42 -5 -5 55 -35 134 -68 l143 -59 -82 -3 c-46 -2 -83 -6 -83 -11 0 -4
39 -12 88 -17 96 -11 93 -17 -18 -35 -62 -11 -70 -14 -45 -19 l30 -6 -40 -12
c-75 -22 -155 -9 -212 34 -44 34 -52 50 -69 154 -18 113 -6 151 63 200 24 18
61 55 80 81 19 27 42 53 51 59 25 14 70 12 108 -6z m4024 -12 c0 -4 -16 -47
-35 -95 -39 -96 -39 -97 -25 -97 5 0 30 39 55 88 39 76 44 82 39 47 l-7 -40
26 23 c21 20 29 22 46 13 45 -24 11 -90 -53 -105 -38 -9 -79 -55 -94 -104
l-12 -41 -35 15 c-39 16 -96 18 -143 5 -30 -9 -32 -8 -27 12 3 12 10 44 15 71
6 26 17 61 25 77 17 32 83 80 158 114 58 26 67 29 67 17z m2308 -25 c27 -29
39 -82 22 -102 -18 -22 -76 -19 -100 5 -27 27 -25 66 5 95 30 31 46 31 73 2z
m-2058 -16 c16 -31 13 -37 -29 -56 -46 -20 -71 -15 -71 15 0 40 19 60 55 60
24 0 38 -6 45 -19z m1754 -19 c66 -20 121 -42 123 -47 2 -6 -42 -23 -97 -39
-135 -39 -151 -66 -20 -32 30 8 56 13 58 12 2 -3 -109 -56 -209 -99 -53 -23
-77 -42 -67 -53 3 -2 90 31 194 74 104 44 192 77 197 75 8 -5 -20 -41 -96
-126 -38 -43 -48 -49 -100 -56 -69 -9 -101 -35 -125 -103 -9 -26 -22 -48 -29
-48 -28 0 -102 72 -155 150 -31 47 -57 88 -58 91 0 3 28 14 63 24 138 41 174
74 163 153 -10 75 -8 76 158 24z m-4381 -16 c20 -16 13 -40 -18 -66 -14 -11
-19 -10 -37 8 -19 18 -20 25 -10 47 13 28 37 32 65 11z m3248 7 c33 -7 33 -7
9 -14 -37 -10 -108 -10 -114 0 -12 19 45 26 105 14z m-1915 -32 c58 -27 104
-70 164 -157 47 -68 53 -82 53 -126 -1 -28 -6 -55 -11 -60 -7 -7 -44 7 -117
46 -59 32 -110 55 -113 51 -9 -9 15 -28 118 -90 52 -32 96 -59 98 -60 6 -5
-11 -34 -23 -38 -7 -3 -28 5 -46 18 -19 14 -89 42 -156 65 -99 32 -136 40
-198 40 -60 0 -75 3 -75 15 0 8 12 64 26 125 32 139 47 158 135 175 87 18 98
17 145 -4z m-673 -48 c-32 -72 -33 -73 -33 -35 0 25 40 92 55 92 2 0 -8 -26
-22 -57z m2700 21 c3 -4 -23 -41 -59 -83 -36 -41 -60 -77 -53 -80 6 -2 42 27
80 65 38 38 69 65 69 61 0 -4 -38 -58 -85 -121 -47 -63 -85 -117 -85 -120 0
-3 10 -1 23 5 12 5 54 50 92 99 84 108 98 114 70 35 -7 -20 6 -7 48 50 27 36
27 10 -1 -104 l-27 -113 -90 -38 c-49 -22 -99 -39 -111 -40 -11 0 -40 14 -63
32 -35 25 -56 33 -109 37 l-66 6 61 68 c65 72 89 121 79 167 -7 38 9 49 96 65
84 15 122 18 131 9z m-620 -23 c46 -30 106 -109 113 -149 15 -80 -33 -229
-103 -317 l-48 -60 -3 43 c-2 23 -7 42 -12 42 -4 0 -12 -19 -16 -42 l-8 -43
-7 40 c-4 22 -10 79 -14 128 -11 137 -25 114 -26 -45 -2 -124 -3 -137 -12 -95
-12 53 -27 63 -27 17 0 -16 -5 -30 -10 -30 -22 0 -68 30 -94 60 -22 26 -26 41
-26 91 0 57 -2 62 -40 99 -34 33 -40 46 -40 81 0 56 26 89 101 129 124 66 222
84 272 51z m-3512 -11 c4 -8 16 -32 25 -54 18 -39 59 -72 104 -82 14 -3 30 -7
36 -9 8 -3 7 -30 -5 -99 -25 -137 -47 -157 -156 -135 -61 12 -66 11 -114 -13
-55 -29 -96 -27 -149 8 -22 15 -24 19 -9 22 30 6 18 19 -30 33 l-48 13 45 12
c25 7 71 18 103 24 31 6 57 16 57 21 0 12 -7 12 -124 -6 -160 -24 -138 -13
109 56 44 12 84 26 90 31 19 17 -75 7 -155 -17 -46 -14 -86 -25 -89 -25 -3 1
9 14 28 30 42 36 37 45 -16 26 l-40 -14 77 79 c42 43 94 88 116 99 47 24 132
24 145 0z m4643 -44 c82 -63 121 -102 109 -109 -4 -3 -49 -21 -99 -40 -119
-46 -170 -72 -222 -114 -41 -34 -44 -34 -57 -17 -27 35 -38 86 -33 154 3 36
10 75 15 84 9 16 13 10 29 -33 10 -28 22 -51 26 -51 11 0 10 6 -7 70 -23 87
-19 85 103 -56 41 -46 43 -47 37 -19 -4 16 -27 58 -52 93 -46 65 -50 82 -15
63 28 -15 31 -14 25 9 -5 17 0 20 33 20 30 0 51 -11 108 -54z m-3641 -41 c176
-93 167 -82 123 -142 -43 -60 -45 -101 -10 -215 5 -16 3 -16 -30 -3 -42 18
-118 20 -149 4 -12 -6 -38 -27 -58 -46 l-37 -35 -25 43 c-54 93 -95 299 -69
345 10 17 11 17 17 -9 9 -35 25 -35 25 1 l1 27 29 -34 c34 -40 43 -38 31 7 -5
18 -8 32 -6 32 2 0 32 -39 66 -87 71 -102 107 -143 126 -143 7 0 13 3 13 6 0
3 -29 46 -65 96 -36 50 -65 95 -65 100 0 17 24 7 67 -28 24 -20 47 -33 50 -30
8 8 -74 93 -128 132 -35 26 -48 44 -33 44 3 0 60 -29 127 -65z m-2988 26 c41
-18 205 -181 205 -202 0 -7 -8 -5 -20 6 -24 22 -36 14 -21 -13 14 -27 14 -32
-4 -32 -22 0 -18 -16 8 -35 22 -16 21 -16 -13 -11 -65 11 -299 46 -304 46 -3
0 -6 -6 -6 -14 0 -15 12 -18 213 -57 64 -13 117 -26 117 -30 0 -4 -33 -10 -72
-14 -99 -8 -129 -15 -122 -26 3 -5 47 -9 97 -10 87 0 91 -1 70 -16 -28 -19
-29 -30 -5 -36 21 -5 -97 -62 -160 -77 -123 -28 -183 -4 -228 93 -16 34 -41
83 -56 110 -33 59 -28 89 27 183 53 89 75 113 124 135 51 24 99 24 150 0z
m193 -53 c6 -23 9 -44 7 -46 -2 -2 -17 11 -34 30 -27 30 -29 34 -14 46 25 19
30 15 41 -30z m586 -35 c12 -144 25 -127 -126 -163 -73 -17 -142 -33 -153 -37
-17 -4 -16 -1 8 24 40 42 35 60 -9 34 -76 -45 -52 -18 47 53 57 41 129 95 159
120 30 25 58 45 61 46 3 0 9 -34 13 -77z m5526 -32 c0 -54 -3 -100 -6 -104 -3
-3 -19 -1 -35 5 -24 8 -29 15 -29 44 0 41 48 166 61 158 5 -3 9 -49 9 -103z
m1053 82 c7 -36 -1 -53 -30 -64 -30 -11 -63 -12 -63 -1 0 12 70 92 80 92 4 0
10 -12 13 -27z m78 -10 c19 -60 24 -61 29 -8 l5 50 33 -55 c17 -30 40 -78 49
-107 l16 -51 -40 -84 -40 -83 -27 85 c-16 47 -39 104 -53 128 -21 37 -23 50
-17 102 8 70 26 79 45 23z m-4768 -107 c1 -64 1 -116 1 -116 -1 0 -21 9 -45
20 -30 13 -66 20 -114 20 -137 0 -184 -29 -247 -154 -47 -93 -46 -94 -73 57
-14 79 -15 106 -6 137 13 45 65 94 128 121 54 23 73 24 73 4 0 -8 2 -15 5 -15
3 0 22 7 42 15 45 19 46 19 33 -4 -16 -30 -12 -33 20 -16 32 17 38 9 19 -27
-18 -33 -1 -33 34 0 40 39 49 40 41 7 -10 -39 8 -29 45 26 19 27 36 48 38 45
3 -2 5 -56 6 -120z m804 83 c115 -41 136 -54 165 -103 19 -34 23 -55 23 -126
-1 -71 -5 -96 -29 -150 -50 -115 -58 -129 -77 -135 -12 -4 -23 -23 -31 -53
l-12 -47 -12 45 c-11 43 -12 44 -22 20 -12 -31 -11 -35 -57 140 -20 74 -38
140 -40 145 -15 31 8 -145 29 -225 44 -165 35 -168 -89 -28 -181 203 -219 271
-196 348 11 39 112 142 175 181 42 26 70 24 173 -12z m1611 -95 c32 -32 64
-68 70 -80 6 -11 12 -77 14 -146 3 -115 1 -129 -18 -154 -42 -57 -69 -69 -152
-69 -91 1 -166 22 -241 67 -74 45 -79 65 -10 39 53 -21 80 -19 45 3 -86 52
-106 67 -106 77 0 8 14 9 44 5 70 -11 63 10 -9 30 -36 9 -68 20 -70 24 -2 4
43 17 100 30 58 13 105 28 105 33 0 6 -38 8 -107 3 -72 -4 -103 -3 -93 4 9 5
15 25 15 47 0 34 5 41 48 70 69 46 189 84 254 80 49 -3 56 -7 111 -63z m2556
-11 c-31 -23 -36 -18 -59 56 -7 22 -5 22 35 -10 38 -30 40 -34 24 -46z m-6161
16 c20 -17 37 -36 37 -43 0 -7 -20 -22 -45 -35 -48 -24 -75 -19 -95 19 -15 28
-13 38 15 65 31 32 43 31 88 -6z m5364 -86 c46 -46 86 -95 89 -109 14 -57 -20
-151 -82 -225 -39 -47 -41 -43 -14 36 11 32 20 62 20 67 0 23 -24 -10 -50 -66
-15 -33 -37 -70 -50 -81 l-23 -20 8 25 c4 14 10 31 12 38 12 30 -15 8 -40 -34
-15 -26 -30 -45 -32 -42 -2 2 9 46 25 98 33 105 34 110 22 110 -5 0 -26 -46
-47 -102 -60 -165 -66 -156 -40 59 10 77 12 130 7 135 -9 9 -25 -77 -39 -204
-8 -81 -31 -79 -35 4 -4 75 -28 96 -28 23 0 -49 -13 -53 -25 -8 -3 16 -25 70
-47 122 -49 111 -46 133 22 170 81 45 224 100 245 94 11 -3 57 -44 102 -90z
m491 83 c54 -28 97 -144 122 -332 11 -83 11 -97 -5 -140 -10 -27 -21 -53 -25
-57 -4 -4 -15 37 -24 93 -21 114 -42 137 -34 35 3 -36 3 -65 -1 -65 -3 0 -28
39 -56 85 -46 79 -65 101 -65 74 0 -5 27 -68 59 -140 l59 -129 -40 0 c-28 0
-51 8 -72 23 -17 13 -42 30 -56 37 -24 12 -24 11 4 -19 52 -54 19 -45 -70 20
-151 111 -167 134 -146 216 7 24 12 65 12 91 0 51 43 155 75 182 19 16 126 38
193 39 24 1 55 -5 70 -13z m518 -92 c49 -20 101 -42 115 -50 39 -20 53 -63 46
-148 -10 -131 -56 -188 -206 -250 -68 -29 -94 -35 -124 -30 -31 6 -36 10 -32
25 8 23 -8 25 -25 4 -7 -8 -16 -15 -21 -15 -5 0 20 40 56 90 62 86 75 110 57
110 -4 0 -39 -38 -77 -84 -73 -88 -96 -107 -70 -56 18 35 11 39 -16 8 -25 -31
-25 -6 1 51 11 24 20 47 20 52 0 19 -16 8 -38 -26 -12 -19 -26 -35 -30 -35
-14 0 8 159 28 211 71 179 143 212 316 143z m-3874 7 c31 -10 80 -24 110 -30
84 -18 108 -48 120 -155 14 -117 7 -145 -52 -209 -68 -75 -144 -113 -287 -142
-65 -14 -120 -25 -122 -25 -2 0 2 7 9 15 21 25 4 29 -60 12 -33 -8 -62 -11
-65 -7 -3 4 50 56 117 116 127 114 143 147 33 70 -36 -25 -75 -46 -87 -46 -11
0 -33 -11 -50 -25 -16 -14 -34 -25 -39 -25 -35 0 42 206 141 378 53 91 119
112 232 73z m-3137 -30 c34 -30 105 -51 170 -51 42 0 53 -15 23 -31 -13 -6
-54 -37 -93 -69 -123 -100 -109 -96 -217 -60 -88 30 -170 70 -182 89 -4 5 3 7
14 4 27 -7 25 11 -2 29 -22 15 -19 16 52 27 122 19 129 32 15 26 l-100 -4 125
33 c69 19 133 35 144 35 10 1 33 -12 51 -28z m5043 7 c88 -65 165 -134 173
-155 6 -17 4 -42 -7 -80 -12 -40 -14 -73 -9 -124 8 -80 -4 -107 -57 -135 -51
-26 -166 -15 -261 25 -79 34 -94 54 -32 44 22 -3 35 -2 35 5 0 6 -20 14 -45
17 -37 6 -44 10 -42 28 1 16 -6 24 -33 33 l-35 12 88 42 c48 23 85 45 82 50
-3 5 -37 -2 -75 -15 -39 -13 -70 -21 -70 -17 0 4 26 30 58 58 31 29 54 55 50
59 -4 4 -41 -18 -82 -49 -42 -31 -78 -56 -81 -56 -27 0 82 159 152 220 71 63
138 76 191 38z m-1333 -13 c50 -49 17 -145 -50 -145 -38 0 -85 50 -85 90 0 41
39 80 80 80 19 0 40 -9 55 -25z m-1971 1 c46 -19 101 -76 133 -139 21 -41 27
-66 28 -117 0 -71 -31 -173 -46 -149 -11 19 -17 10 -27 -46 -7 -40 -11 -46
-17 -30 -4 11 -21 54 -37 95 -16 41 -33 79 -38 84 -23 23 -18 -8 15 -104 20
-56 34 -104 31 -107 -3 -3 -34 54 -70 126 -37 72 -71 131 -76 131 -16 0 -1
-47 41 -132 43 -86 49 -108 22 -87 -14 12 -16 12 -11 -1 14 -40 19 -60 13 -60
-4 0 -54 34 -111 76 -85 63 -108 85 -129 127 -27 55 -34 142 -15 193 43 113
190 183 294 140z m3705 0 c48 -25 112 -105 151 -189 21 -45 36 -84 33 -87 -3
-3 -8 0 -10 6 -2 6 -10 20 -18 30 -12 17 -14 18 -20 2 -4 -11 7 -37 32 -75 22
-32 43 -65 48 -73 16 -28 -34 22 -76 76 -48 62 -73 63 -31 1 37 -54 44 -67 39
-67 -3 0 -46 34 -97 75 -51 41 -96 75 -101 75 -22 0 -3 -24 82 -102 62 -56 86
-84 75 -86 -24 -5 -20 -13 21 -50 l38 -32 -30 7 c-27 6 -29 5 -17 -10 12 -14
10 -17 -13 -23 -67 -17 -227 23 -282 70 -24 21 -25 28 -26 121 -1 55 2 123 7
151 8 48 7 52 -23 86 l-31 35 78 36 c83 39 128 45 171 23z m-649 -36 c-50 -43
-63 -49 -53 -22 9 26 25 43 48 52 45 19 47 7 5 -30z m-4019 -26 c44 -31 83
-63 86 -71 7 -17 -16 -154 -28 -167 -12 -14 -64 68 -113 179 -25 58 -46 108
-46 110 0 14 29 -1 101 -51z m-1258 29 c31 -35 31 -68 -1 -104 l-29 -33 -27
29 c-34 36 -35 87 -4 109 29 20 41 20 61 -1z m844 -34 c-3 -32 47 -48 74 -23
34 30 21 4 -41 -81 -55 -77 -73 -112 -51 -103 4 2 45 47 91 101 45 53 86 97
90 97 15 0 20 -31 20 -119 0 -101 -10 -122 -84 -165 -24 -14 -56 -40 -71 -58
-25 -29 -27 -37 -21 -89 9 -80 -3 -88 -91 -59 -124 41 -212 86 -223 115 -18
46 -12 164 10 209 20 43 45 61 194 148 93 53 107 56 103 27z m276 -61 c14 -54
14 -65 2 -77 -26 -26 -45 4 -45 69 0 54 5 70 20 70 4 0 15 -28 23 -62z m566
38 c41 -9 82 -21 92 -27 11 -5 27 -38 39 -78 11 -38 29 -80 40 -94 27 -34 25
-68 -5 -101 -21 -23 -32 -26 -89 -26 -106 0 -150 -26 -192 -115 l-24 -50 6
104 c5 73 3 102 -4 97 -16 -9 -32 -73 -33 -126 0 -25 -4 -54 -8 -65 -7 -17
-10 -13 -22 24 -11 36 -15 41 -24 27 -55 -75 -122 162 -84 298 13 45 58 96 87
96 11 0 37 14 58 31 42 33 36 33 163 5z m2291 -21 c0 -22 -51 -73 -68 -68 -4
1 -31 76 -32 91 0 1 23 2 50 2 47 0 50 -2 50 -25z m-1245 -34 c39 -18 139
-111 120 -111 -6 0 -44 7 -85 16 -124 26 -188 3 -254 -90 -79 -111 -95 -189
-55 -267 11 -23 18 -43 15 -46 -3 -3 -21 -2 -41 1 l-35 7 0 58 c0 38 9 82 25
126 32 84 28 104 -9 45 l-27 -45 6 35 c20 102 115 248 180 276 43 19 114 17
160 -5z m1285 -42 c0 -6 -12 -54 -26 -106 -26 -97 -27 -126 -1 -77 8 15 16 23
19 18 10 -16 -21 -101 -55 -150 -46 -67 -68 -68 -136 -7 l-53 48 36 38 c20 21
54 70 77 108 50 83 139 165 139 128z m924 -121 c-16 -25 -94 18 -94 51 0 10 5
32 11 50 l11 32 38 -63 c21 -34 36 -66 34 -70z m-4764 97 c14 -8 43 -14 65
-15 45 0 72 -15 160 -87 42 -34 64 -61 74 -89 16 -45 16 -44 -51 -159 -57 -97
-79 -115 -135 -115 -53 1 -147 21 -181 39 -31 17 -60 79 -74 160 -11 67 -11
72 16 140 15 39 33 71 40 71 7 0 43 -43 81 -96 47 -66 71 -92 78 -85 7 7 -13
46 -66 126 -42 63 -77 117 -77 120 0 10 46 4 70 -10z m-400 -32 c0 -4 -32 -40
-71 -79 -102 -103 -69 -105 38 -2 l87 83 6 -30 5 -29 22 29 c37 50 26 14 -37
-120 -34 -70 -58 -130 -55 -134 9 -8 28 19 83 119 36 66 47 80 50 63 4 -30 16
-29 31 3 20 45 20 22 1 -61 -11 -44 -19 -81 -20 -82 0 -2 4 -3 10 -3 5 0 16
12 24 28 14 25 15 21 16 -80 0 -119 -8 -149 -45 -174 -25 -16 -136 -41 -232
-51 -96 -10 -137 39 -148 177 -6 78 -5 92 15 131 12 25 62 82 113 132 86 82
107 97 107 80z m1440 -43 c48 -25 63 -43 107 -135 30 -63 38 -91 37 -130 -2
-62 -14 -125 -23 -125 -4 0 -52 18 -106 40 -54 22 -104 40 -112 40 -31 0 -7
-18 83 -63 53 -27 95 -50 92 -52 -2 -2 -37 0 -77 6 -69 8 -92 7 -79 -6 3 -3
43 -13 89 -22 l84 -18 -68 -15 c-57 -12 -67 -18 -63 -33 4 -15 -1 -17 -27 -12
-168 27 -207 41 -241 88 -17 23 -22 49 -27 140 -3 62 -2 120 3 129 5 10 40 37
78 62 38 25 80 61 92 80 39 59 79 66 158 26z m3008 -114 c32 -72 64 -132 70
-134 19 -6 15 10 -32 120 -25 56 -43 105 -40 107 2 2 10 -2 19 -9 21 -18 28
-8 16 24 -8 18 -7 26 1 26 16 0 143 -97 177 -136 88 -100 70 -270 -37 -352
-32 -24 -44 -27 -116 -27 -64 0 -90 5 -123 23 -102 53 -155 197 -123 331 10
44 14 49 30 41 16 -9 20 -3 32 52 l13 62 29 -74 c50 -128 56 -141 66 -135 5 3
-7 51 -26 107 -57 170 -42 161 44 -26z m-1419 108 c26 -7 66 -27 88 -43 41
-30 163 -164 163 -180 0 -4 -20 -4 -45 2 -30 7 -52 7 -67 0 -21 -9 -19 -12 30
-29 28 -10 52 -21 52 -25 0 -6 -186 -19 -282 -19 -32 0 -58 -4 -58 -9 0 -13
99 -23 203 -20 88 3 137 -8 137 -31 0 -15 -68 -66 -125 -94 -105 -51 -237 -60
-293 -20 -30 22 -129 205 -131 242 -1 30 61 152 100 196 50 57 111 65 228 30z
m2309 -26 c20 -20 15 -85 -8 -108 -42 -42 -110 -14 -110 46 0 55 82 98 118 62z
m-245 -13 c55 -23 51 -32 -11 -28 l-57 4 24 -19 23 -19 -47 -6 c-26 -4 -65 -7
-86 -7 -22 0 -39 -4 -39 -10 0 -5 39 -11 88 -12 83 -3 87 -4 84 -25 -2 -16 3
-22 19 -25 22 -3 22 -3 -5 -35 -15 -18 -31 -33 -34 -33 -13 1 -63 80 -57 90 5
7 -3 8 -22 3 -15 -4 -65 -8 -110 -8 -73 0 -84 3 -108 25 -34 32 -69 80 -62 86
3 3 42 -2 87 -12 104 -21 169 -15 218 20 43 30 48 31 95 11z m1841 -66 c33
-26 53 -65 77 -148 22 -76 24 -131 7 -153 -16 -20 -118 -102 -146 -117 -53
-28 -124 1 -215 88 -50 47 -87 101 -87 126 0 3 12 2 27 -1 23 -6 25 -4 20 15
-3 11 -2 21 1 21 4 -1 70 -14 147 -30 77 -15 144 -26 149 -23 15 10 -36 31
-115 49 -73 16 -129 41 -129 56 0 4 9 8 20 8 11 0 20 5 20 10 0 6 -28 10 -62
10 -75 1 -64 10 42 36 65 16 71 19 45 24 l-30 6 35 22 c49 31 156 31 194 1z
m-4738 -104 c66 -26 125 -52 132 -57 27 -23 9 -26 -45 -7 -31 10 -61 18 -66
16 -5 -1 16 -19 47 -40 31 -20 56 -41 56 -46 0 -6 -24 -7 -55 -4 -76 8 -71
-11 8 -27 115 -24 110 -29 -65 -67 -43 -9 -78 -21 -78 -26 0 -10 99 -5 195 8
39 6 40 6 18 -11 -34 -24 -28 -33 17 -27 60 8 44 -16 -50 -76 -96 -62 -164
-90 -241 -98 -71 -7 -112 8 -139 51 -10 18 -30 38 -44 45 -35 19 -43 44 -56
167 -13 126 -6 158 46 205 69 63 150 62 320 -6z m3377 3 c69 -37 156 -113 188
-164 l21 -35 -21 -94 c-24 -104 -45 -138 -98 -160 -20 -9 -55 -33 -79 -55 -98
-91 -201 -52 -275 103 -35 76 -54 179 -44 243 l8 49 19 -82 c11 -46 24 -83 29
-83 5 0 9 44 9 98 l1 97 25 -48 c36 -69 47 -49 18 35 -28 84 -27 78 -11 78 6
0 39 -34 72 -75 54 -68 85 -92 85 -66 0 5 -28 44 -61 87 -57 71 -59 76 -34 70
21 -5 31 -2 42 14 19 27 35 25 106 -12z m929 5 c10 -9 18 -29 18 -45 0 -55
-74 -100 -108 -66 -19 19 -14 73 9 102 23 30 54 33 81 9z m-3057 -28 c32 -31
32 -50 0 -71 -23 -15 -27 -15 -59 6 -43 26 -56 58 -30 77 27 20 62 16 89 -12z
m1415 10 c109 -15 138 -41 164 -143 32 -120 20 -151 -102 -260 -62 -56 -152
-112 -180 -112 -2 0 -2 16 1 35 7 42 3 43 -28 8 -20 -23 -16 -8 24 90 27 64
45 119 41 122 -12 8 -26 -14 -74 -116 -55 -115 -70 -138 -62 -91 6 37 -5 42
-26 10 -14 -20 -15 -18 -41 53 -15 41 -27 77 -27 82 0 15 17 6 26 -13 8 -18
16 -12 71 58 84 106 106 153 111 230 4 62 5 63 31 58 14 -3 46 -8 71 -11z
m1085 6 c16 -7 4 -16 -73 -55 l-93 -47 -19 23 -18 23 76 32 c81 34 95 36 127
24z m1167 -9 c45 -17 47 -19 31 -35 -15 -15 -15 -17 0 -23 12 -4 17 -18 17
-49 0 -35 -7 -53 -39 -93 -82 -103 -290 -201 -349 -163 -9 5 3 10 33 14 102
14 264 123 295 197 11 28 9 36 -24 100 -41 77 -38 80 36 52z m745 -14 c23 -10
49 -30 58 -45 19 -28 49 -224 41 -259 -3 -12 -31 -40 -62 -62 -31 -22 -73 -64
-93 -93 -31 -45 -43 -55 -71 -57 -105 -10 -207 96 -260 270 -19 60 -17 68 12
68 20 0 24 20 6 38 -26 26 5 20 160 -32 89 -30 164 -51 167 -47 5 9 1 11 -170
82 l-130 54 73 3 c89 4 96 22 8 22 -68 0 -96 15 -49 26 96 22 127 32 99 33
-42 1 -28 9 35 19 68 12 122 5 176 -20z m-3868 7 c42 -21 100 -93 107 -132 7
-36 -20 -238 -38 -285 -15 -40 -53 -50 -171 -46 -96 3 -107 5 -147 33 -69 48
-127 109 -154 164 -31 61 -32 70 -6 46 18 -16 20 -16 20 -2 0 25 13 21 76 -19
66 -43 150 -74 196 -74 43 0 28 12 -57 45 -38 16 -92 42 -120 60 -53 33 -115
97 -115 118 0 15 290 104 343 106 21 1 51 -6 66 -14z m-3200 -16 c17 -6 31
-13 31 -15 0 -7 -62 -114 -66 -114 -2 0 -4 32 -4 70 0 39 2 70 4 70 1 0 17 -5
35 -11z m6591 -25 c17 -43 -19 -84 -72 -84 -52 0 -65 55 -22 89 38 30 82 28
94 -5z m-6657 -55 c-1 -35 -11 -89 -22 -119 l-20 -55 6 80 c7 104 -6 90 -33
-33 -15 -73 -24 -96 -35 -93 -8 2 -23 4 -35 4 -17 -1 -23 8 -32 46 -12 50 -13
48 50 92 13 9 41 46 62 83 21 37 44 65 50 63 7 -3 10 -29 9 -68z m4432 19 l-6
-43 22 38 c22 35 42 47 52 30 7 -12 -50 -248 -69 -285 -23 -46 -53 -77 -94
-98 -36 -18 -130 -36 -130 -25 0 3 31 41 69 84 73 83 97 134 87 183 -3 18 0
42 10 61 18 36 57 97 62 97 2 0 1 -19 -3 -42z m-4206 1 c53 -16 101 -36 107
-42 6 -7 19 -34 29 -62 11 -30 34 -65 58 -87 48 -45 46 -69 -9 -112 -34 -27
-131 -66 -199 -80 l-30 -6 30 17 c28 17 29 18 8 21 -13 2 -59 -13 -104 -33
-44 -20 -83 -34 -86 -31 -12 12 63 109 136 177 42 39 80 78 84 85 16 29 -12
12 -88 -51 -96 -80 -141 -109 -160 -101 -16 6 -10 27 60 206 41 106 53 130 62
130 3 0 49 -14 102 -31z m-700 7 c11 -13 34 -136 27 -143 -1 -2 -17 2 -34 8
-35 12 -37 20 -26 103 7 48 14 55 33 32z m3963 -3 c8 -10 33 -50 56 -89 45
-77 88 -120 130 -130 44 -11 101 -43 112 -63 12 -23 13 -120 2 -139 -6 -8 -21
16 -47 73 -36 81 -50 103 -61 92 -3 -2 6 -34 20 -71 14 -36 22 -66 18 -66 -3
0 -41 34 -83 76 -42 42 -82 75 -89 72 -7 -2 34 -59 94 -132 91 -110 116 -146
104 -146 -2 0 -38 7 -81 15 -102 20 -113 20 -97 0 11 -13 8 -15 -18 -15 -44 0
-132 35 -170 67 l-32 28 26 105 c14 58 29 147 33 198 6 77 12 96 31 117 28 30
32 30 52 8z m1928 7 c24 -8 24 -8 3 -9 -13 -1 -23 -5 -23 -11 0 -13 9 -13 108
6 46 8 86 13 89 10 5 -5 -46 -29 -149 -72 -27 -10 -48 -25 -48 -31 0 -17 -5
-18 95 18 48 16 91 29 97 27 6 -2 -1 -18 -16 -35 -14 -17 -26 -33 -26 -36 0
-3 14 -10 32 -16 l32 -11 -32 -33 c-38 -39 -42 -56 -8 -34 13 9 26 14 29 11 8
-8 -110 -199 -143 -233 -52 -52 -101 -49 -329 19 -103 30 -102 29 -62 170 11
41 26 101 32 133 14 73 49 116 105 127 52 10 183 10 214 0z m-3573 -105 c13
-28 14 -37 3 -50 -27 -32 -110 -8 -110 34 0 8 12 27 26 43 32 33 56 25 81 -27z
m869 8 c104 -116 160 -236 152 -324 -7 -65 -30 -90 -142 -146 -103 -52 -126
-52 -190 0 -23 19 -69 52 -103 76 -84 56 -110 109 -82 164 15 30 231 247 246
247 21 0 25 -39 18 -176 -9 -169 7 -180 24 -16 19 189 23 212 34 212 5 0 25
-17 43 -37z m-1689 -15 c25 -23 30 -67 11 -86 -29 -29 -108 -1 -108 39 0 22
42 69 61 69 7 0 23 -10 36 -22z m-1341 -8 c47 -12 86 -28 95 -39 9 -11 22 -47
28 -81 7 -34 15 -68 18 -76 11 -29 -30 -13 -64 26 -40 44 -50 48 -55 24 -2
-13 -85 91 -122 154 -10 17 7 15 100 -8z m6104 -93 c14 -112 28 -153 29 -81 1
44 4 52 26 62 21 10 27 9 37 -8 18 -28 31 -25 25 5 -7 42 16 23 45 -36 50
-100 49 -112 -29 -219 -78 -106 -108 -129 -187 -137 -118 -12 -176 22 -176
103 0 50 28 154 42 154 4 0 8 -9 8 -21 0 -46 25 -7 62 96 26 75 49 120 70 142
18 18 33 32 34 30 2 -1 8 -42 14 -90z m-3730 28 c28 -19 70 -40 93 -46 40 -11
127 -7 192 7 l30 7 -18 -24 c-82 -115 -74 -201 26 -263 49 -30 49 -30 28 -47
-45 -36 -180 -50 -231 -24 -30 16 -203 206 -194 214 2 3 17 -5 33 -17 50 -37
44 -10 -11 45 -28 29 -50 55 -47 57 3 3 28 -11 56 -30 28 -20 59 -34 69 -32
13 2 -3 19 -59 62 -43 32 -76 61 -73 63 2 2 60 -24 129 -59 70 -34 130 -59
134 -54 4 4 1 11 -7 16 -8 5 -64 38 -125 73 -60 35 -111 69 -113 76 -7 22 37
10 88 -24z m4517 -125 l6 -75 13 40 c7 22 13 63 13 92 1 66 14 74 32 20 l14
-42 10 49 c6 27 16 51 22 53 10 4 50 -109 83 -237 24 -90 -9 -178 -79 -216
-25 -13 -57 -33 -71 -43 -22 -17 -34 -18 -115 -10 -166 16 -211 33 -241 91
-27 53 -10 157 43 262 24 47 121 161 130 152 3 -2 -7 -22 -21 -45 -42 -65 -30
-69 30 -11 l56 55 -5 -42 c-6 -49 4 -56 22 -15 7 15 20 38 29 52 l17 25 2 -40
c2 -22 6 -74 10 -115z m-7031 108 c27 -18 83 -66 124 -107 64 -65 72 -76 54
-79 -16 -2 -21 -8 -17 -23 5 -19 2 -20 -46 -13 -74 10 -64 -10 14 -25 36 -7
65 -17 65 -22 0 -5 -12 -6 -27 -4 -16 3 -84 12 -153 20 -69 9 -140 18 -157 21
-25 5 -33 3 -33 -8 0 -11 37 -20 158 -37 209 -29 223 -32 216 -42 -3 -5 -20
-9 -37 -9 -44 0 -78 -10 -71 -21 3 -5 15 -9 27 -9 21 -1 21 -1 -3 -14 -32 -17
-272 -84 -332 -92 -73 -10 -111 16 -180 129 -59 96 -55 122 42 275 20 30 60
48 161 71 118 27 138 26 195 -11z m1068 -56 c3 -5 -29 -25 -70 -45 -41 -20
-74 -33 -74 -28 0 5 15 26 34 45 26 28 41 36 69 36 20 0 38 -4 41 -8z m3939
-71 c20 -43 37 -90 37 -104 0 -27 10 -34 193 -115 81 -37 89 -56 15 -36 -63
16 -68 17 -68 5 0 -5 21 -18 48 -29 l47 -20 -64 -1 c-61 -1 -63 -2 -48 -19 23
-25 13 -32 -44 -32 -39 0 -53 5 -77 30 -17 16 -38 51 -47 77 -35 99 -50 126
-88 158 l-38 33 43 66 c24 36 45 66 48 66 3 0 22 -36 43 -79z m-2849 12 c-16
-68 -17 -83 -6 -83 4 0 20 29 36 65 15 36 32 65 37 65 5 0 9 -1 9 -2 0 -2 -11
-82 -24 -178 -23 -161 -25 -192 -11 -178 3 2 18 71 35 153 17 82 32 150 34
152 2 2 7 -13 11 -34 17 -97 27 -133 36 -133 10 0 8 23 -7 133 -4 28 -2 37 8
37 27 0 60 -48 84 -124 37 -119 29 -212 -23 -259 -19 -16 -167 -72 -224 -84
-21 -4 -37 5 -85 47 -32 29 -83 64 -111 77 -58 27 -83 55 -83 93 0 87 69 176
192 247 43 26 81 50 84 55 16 26 20 0 8 -49z m-916 25 c7 -7 8 -17 1 -30 -12
-22 -1 -23 29 -2 36 25 26 8 -43 -73 -36 -42 -63 -78 -60 -81 2 -3 43 35 90
84 82 86 85 88 101 69 13 -16 15 -40 12 -130 -4 -98 -8 -118 -35 -175 -63
-133 -135 -184 -225 -159 -59 15 -226 107 -238 129 -15 28 -12 166 4 203 22
51 66 85 172 132 100 44 169 56 192 33z m5482 -4 c0 -4 -13 -49 -30 -101 -26
-80 -30 -110 -31 -206 0 -61 -3 -105 -6 -97 -2 8 -7 21 -9 29 -3 10 -8 10 -18
2 -16 -14 -31 1 -41 42 -4 16 -18 33 -30 39 -19 9 -26 27 -44 117 -11 58 -21
109 -21 113 0 14 44 31 129 48 102 22 101 22 101 14z m-5118 -45 c68 -53 97
-68 166 -80 81 -15 83 -18 76 -113 -6 -77 -5 -83 21 -120 l27 -40 -24 -50
c-33 -70 -73 -123 -107 -141 -20 -10 -58 -15 -115 -15 -108 0 -149 17 -171 73
-27 68 -55 199 -55 260 0 54 33 191 50 210 4 5 10 -25 14 -65 9 -100 17 -139
26 -133 4 2 5 36 2 75 -2 38 -2 70 2 70 3 0 26 -40 51 -90 44 -88 72 -118 59
-62 -4 15 -24 74 -45 131 -37 99 -45 131 -34 131 3 0 29 -18 57 -41z m-762
-78 c-9 -17 -20 -21 -67 -21 -31 0 -54 2 -51 5 13 13 123 52 126 45 2 -5 -2
-18 -8 -29z m2613 9 c21 -12 66 -24 113 -30 91 -10 130 -23 162 -52 34 -32 27
-54 -30 -96 -29 -22 -61 -49 -71 -60 -27 -29 -46 -89 -47 -143 0 -68 -11 -76
-124 -95 -81 -14 -107 -15 -152 -5 -29 7 -56 16 -58 20 -3 4 29 16 71 25 122
29 146 37 137 46 -5 5 -43 2 -84 -5 -41 -7 -76 -12 -78 -10 -1 1 40 30 93 65
88 58 111 80 85 80 -6 0 -70 -31 -144 -70 -73 -38 -136 -70 -140 -70 -4 0 -2
9 4 21 7 11 9 27 6 35 -3 8 3 33 14 55 22 42 20 45 -11 28 -20 -10 -20 -9 1
31 15 30 32 46 63 59 52 23 60 32 87 104 12 31 31 64 43 72 26 18 19 19 60 -5z
m1425 -30 c33 -20 40 -32 88 -150 42 -104 42 -107 -15 -180 -31 -39 -58 -86
-67 -118 -14 -46 -21 -56 -52 -69 -49 -20 -110 -10 -169 30 -64 43 -183 200
-183 242 0 60 0 60 193 44 96 -8 173 -11 171 -8 -6 11 -84 27 -189 39 -55 7
-106 15 -113 19 -7 4 21 15 63 26 84 21 103 42 28 30 -116 -18 -153 -21 -153
-15 0 18 132 93 205 116 64 20 154 17 193 -6z m548 -23 c13 -36 12 -37 -7 -26
-27 14 -34 6 -19 -22 12 -21 11 -22 -19 -16 -29 6 -31 5 -21 -13 16 -30 13
-30 -50 -3 l-60 26 72 49 c40 26 77 47 82 45 5 -2 15 -20 22 -40z m-5027 7
c27 -34 26 -50 -4 -79 -42 -43 -95 -25 -95 30 0 18 52 75 69 75 5 0 19 -12 30
-26z m3425 -43 c19 -21 19 -21 -6 -21 -28 0 -52 23 -63 59 l-7 24 28 -20 c16
-12 38 -30 48 -42z m-1340 4 l26 -34 -21 -12 c-24 -12 -39 0 -39 33 0 9 -3 23
-6 32 -11 28 13 17 40 -19z m-1747 16 c29 -4 56 -11 60 -15 5 -4 11 -46 14
-93 5 -82 7 -87 40 -117 20 -17 44 -36 55 -43 18 -10 16 -14 -31 -62 l-50 -51
-16 48 c-24 69 -45 108 -86 153 -47 52 -81 69 -161 80 -36 5 -71 14 -79 21
-20 17 1 35 49 41 22 3 50 15 62 26 22 23 52 25 143 12z m4916 -27 c32 -21 36
-27 27 -44 -15 -28 -80 -29 -80 -1 0 29 -15 33 -35 11 -21 -23 -45 -26 -45 -6
0 7 -3 28 -6 46 l-7 32 54 -7 c30 -4 71 -18 92 -31z m297 -13 c0 -25 -14 -34
-91 -59 -84 -28 -116 -28 -124 -1 -4 11 -5 22 -3 23 3 3 196 53 211 55 4 1 7
-7 7 -18z m553 -119 c55 -115 55 -122 -15 -122 -27 0 -38 -4 -38 -15 0 -11
-26 -2 -100 35 -55 28 -100 54 -100 59 0 5 10 13 21 16 35 11 104 81 124 125
18 39 19 40 38 23 10 -10 42 -65 70 -121z m-2133 98 c49 -49 7 -140 -65 -140
-62 0 -95 63 -64 121 21 40 97 51 129 19z m2964 -25 c31 -24 56 -68 56 -100 0
-32 -55 -132 -98 -178 -45 -48 -78 -59 -201 -67 -141 -8 -185 0 -86 16 l70 12
-122 1 c-68 0 -123 4 -123 7 0 3 10 15 23 25 l22 20 -59 -7 c-58 -7 -58 -6
-51 17 29 95 76 125 154 98 31 -11 31 -12 15 -30 -10 -11 -15 -21 -12 -24 6
-7 155 52 205 81 23 13 65 51 94 84 54 63 78 72 113 45z m-3360 -1 c36 -5 46
-11 46 -25 0 -18 14 -24 70 -32 20 -2 4 -13 -72 -49 -54 -26 -98 -51 -98 -57
0 -15 7 -14 70 10 65 25 110 39 110 34 0 -2 -50 -34 -110 -70 -61 -37 -108
-71 -104 -76 3 -6 47 12 99 41 82 44 98 49 130 42 l36 -7 -53 -89 c-68 -114
-107 -152 -176 -172 -100 -29 -217 9 -269 88 -25 37 -28 51 -28 122 0 97 20
138 93 188 80 55 141 67 256 52z m-1382 -41 c30 -20 55 -28 118 -33 82 -7 90
-11 153 -69 62 -59 47 -69 -32 -19 -28 17 -54 28 -58 24 -4 -4 17 -30 47 -57
34 -31 47 -48 35 -45 -52 12 -125 17 -125 8 0 -5 38 -22 85 -38 47 -16 85 -32
85 -35 0 -9 -82 -19 -159 -19 -62 0 -64 -1 -48 -17 15 -15 34 -18 115 -16 l97
1 -63 -29 c-35 -16 -60 -33 -57 -38 3 -5 30 -3 61 6 64 16 80 10 44 -18 -103
-79 -312 -124 -390 -84 -17 9 -38 32 -49 53 -10 20 -31 48 -45 61 -35 33 -40
72 -22 159 14 65 25 92 56 142 5 8 11 28 15 43 10 51 78 61 137 20z m389 -3
c54 -39 97 -47 139 -25 17 9 34 14 37 11 13 -12 -11 -63 -46 -98 -54 -54 -59
-52 -114 35 -20 31 -41 57 -47 57 -13 0 -13 -1 10 -56 11 -26 19 -48 17 -50
-2 -2 -32 25 -66 60 l-63 64 41 7 c22 4 41 11 41 16 0 14 7 11 51 -21z m3048
-86 c-29 -36 -135 -40 -189 -8 -24 14 -24 15 18 8 49 -7 57 9 11 25 -23 8 -30
16 -27 32 2 17 16 27 53 40 l50 17 48 -50 c38 -40 45 -53 36 -64z m-5829 76
c0 -23 -42 -91 -99 -162 -51 -63 -85 -128 -68 -128 2 0 60 69 128 153 l124
152 5 -39 c4 -35 7 -37 19 -23 7 10 17 17 22 17 16 0 10 -24 -14 -60 -19 -29
-87 -204 -87 -225 0 -3 9 -1 21 6 34 18 39 -2 14 -58 l-24 -53 -64 0 c-63 0
-92 -10 -183 -65 -40 -24 -80 -14 -102 26 -9 17 -41 72 -70 122 -30 51 -56
107 -59 124 -11 63 59 105 347 211 9 3 6 -4 -7 -20 -37 -40 -27 -41 29 -3 56
37 68 42 68 25z m5370 -8 c19 -16 22 -24 16 -55 -7 -39 -46 -77 -78 -77 -25 0
-68 44 -68 70 0 29 53 80 83 80 14 0 35 -8 47 -18z m-4940 -8 c47 -31 102 -89
123 -129 17 -32 22 -58 22 -125 0 -99 -19 -162 -40 -133 -11 14 -14 8 -20 -46
-4 -35 -11 -59 -15 -54 -5 4 -25 50 -45 101 -21 50 -41 92 -46 92 -14 0 -11
-13 26 -116 19 -53 33 -99 31 -102 -3 -2 -23 31 -45 74 -21 44 -54 104 -71
134 l-31 55 6 -39 c4 -22 20 -66 36 -98 31 -61 30 -65 -3 -47 -31 17 -33 4 -5
-44 43 -73 19 -61 -50 23 -35 44 -66 80 -69 80 -2 0 -1 -12 2 -27 l7 -27 -34
22 c-53 33 -92 112 -93 186 -1 134 100 234 239 235 31 1 60 -5 75 -15z m6132
-51 c16 -19 1 -58 -27 -73 -35 -19 -45 -3 -45 68 l0 53 31 -18 c17 -10 35 -24
41 -30z m-5369 -15 c3 -23 2 -49 -3 -59 -10 -18 -69 -34 -82 -21 -7 7 61 122
73 122 4 0 9 -19 12 -42z m4968 -79 c140 -69 179 -93 170 -102 -8 -8 -65 -12
-184 -12 -151 1 -181 4 -250 24 -68 21 -127 58 -127 80 0 15 156 100 183 101
15 0 108 -41 208 -91z m-4342 31 c35 -29 61 -59 61 -69 0 -29 -128 -179 -171
-202 -21 -10 -40 -19 -43 -19 -2 0 -2 27 1 60 8 89 -13 76 -33 -20 -10 -44
-21 -80 -26 -80 -5 0 -14 11 -20 25 -14 30 -28 33 -28 5 0 -11 -4 -20 -8 -20
-9 0 -68 118 -61 123 2 3 23 7 46 11 33 5 44 3 51 -11 8 -13 21 6 67 98 56
111 80 149 96 149 4 0 35 -23 68 -50z m3787 -12 c128 -70 164 -104 164 -153 0
-53 -39 -194 -60 -215 -11 -11 -51 -20 -131 -29 -149 -17 -178 -7 -214 71 -30
66 -40 121 -27 144 9 15 12 12 23 -24 7 -23 16 -42 21 -42 10 0 10 14 -2 70
-6 25 -12 56 -15 70 l-5 25 20 -24 c21 -24 23 -22 21 19 -2 23 1 22 41 -20 24
-25 68 -74 99 -110 89 -102 77 -54 -16 68 -47 61 -85 113 -85 115 0 3 9 3 20
0 19 -5 19 -4 5 37 -19 54 -20 50 15 50 17 0 71 -23 126 -52z m-572 18 c18 -8
45 -12 59 -9 33 7 76 -24 77 -55 0 -14 -19 -44 -52 -78 -28 -30 -48 -57 -45
-60 10 -10 81 51 112 95 39 57 51 51 18 -8 -31 -55 -26 -76 10 -43 55 52 40
-2 -19 -67 -42 -47 -54 -71 -35 -71 7 0 90 90 128 139 8 10 12 11 13 4 0 -19
-115 -185 -165 -236 -53 -56 -88 -61 -163 -23 -26 13 -71 29 -100 36 -78 18
-83 31 -85 199 -2 171 -1 173 106 182 40 3 80 6 90 7 10 1 33 -4 51 -12z
m-2893 -119 c-2 -68 0 -93 13 -112 23 -36 20 -43 -24 -55 -55 -15 -51 -29 5
-19 54 10 72 4 103 -33 28 -33 72 -58 102 -58 27 0 26 -25 -5 -55 -28 -29 -45
-31 -102 -9 -41 16 -45 16 -113 -10 -60 -22 -88 -26 -175 -26 -105 0 -128 8
-105 35 6 8 9 22 6 32 -5 15 11 25 94 57 63 24 97 43 91 49 -12 12 -108 -16
-184 -55 -62 -31 -93 -32 -38 -1 50 28 67 41 60 47 -3 4 -22 -1 -42 -9 -20 -8
-39 -15 -43 -15 -3 0 19 29 50 64 59 67 70 92 36 81 -34 -11 -23 14 33 70 71
70 160 116 217 112 25 -2 25 -2 21 -90z m2076 36 c19 -32 29 -42 31 -31 2 9
-2 27 -8 38 -14 27 -8 34 24 26 30 -7 95 -102 127 -184 13 -33 22 -81 23 -115
1 -56 -1 -60 -40 -95 -22 -20 -48 -49 -57 -64 -19 -31 -50 -41 -183 -58 -84
-12 -94 -11 -137 8 -81 36 -111 124 -87 259 13 75 58 179 90 208 l20 18 -20
-58 c-29 -85 -20 -89 24 -12 20 37 41 67 47 67 5 0 7 -28 3 -70 -4 -40 -3 -70
2 -70 5 0 17 36 27 80 10 44 22 80 26 80 5 0 21 -46 36 -102 15 -57 32 -107
36 -113 14 -14 10 73 -6 145 -23 107 -20 114 22 43z m-3384 15 c45 -23 144
-31 201 -15 27 8 24 3 -32 -57 -71 -76 -81 -108 -63 -201 23 -128 14 -155 -62
-177 -44 -12 -219 -19 -211 -7 2 4 44 22 94 40 86 33 110 49 72 49 -11 0 -40
-6 -66 -14 -26 -8 -46 -11 -44 -6 2 4 35 36 73 71 39 34 72 66 73 71 9 22 -31
0 -141 -77 -66 -47 -122 -83 -125 -81 -2 2 1 13 7 24 8 15 7 23 -4 32 -12 10
-9 23 23 85 34 70 39 113 8 69 -45 -62 -47 -62 -30 -4 23 79 49 126 99 176 50
50 68 53 128 22z m406 -45 c30 -60 54 -76 121 -81 74 -5 88 -20 134 -137 36
-94 35 -104 -6 -126 -18 -9 -114 12 -293 66 l-50 15 29 -25 c28 -22 129 -59
233 -85 31 -8 41 -15 37 -25 -4 -11 1 -15 17 -15 23 -1 23 -1 5 -15 -30 -23
-179 -65 -227 -65 -90 0 -194 52 -225 112 -14 28 -44 181 -44 230 0 23 115
145 159 168 58 31 87 26 110 -17z m1672 -2 c54 -54 29 -121 -45 -121 -43 0
-66 26 -66 73 0 76 57 101 111 48z m3578 -21 l31 -39 -24 -16 c-31 -21 -63
-12 -78 21 -10 20 -8 28 12 49 13 14 24 25 25 25 1 0 16 -18 34 -40z m-1734
-184 c17 -103 19 -182 5 -191 -10 -6 -13 1 -35 124 -14 79 -25 113 -25 80 0
-11 -2 -11 -10 1 -16 25 -11 57 18 116 l27 56 3 -48 c1 -27 9 -89 17 -138z
m1639 94 c21 -39 24 -54 16 -75 -5 -14 -13 -25 -18 -25 -8 0 -72 124 -72 140
0 6 11 10 24 10 19 0 30 -11 50 -50z m-3013 -16 c42 -20 92 -52 111 -71 31
-32 33 -39 32 -96 -2 -68 -56 -223 -92 -264 -37 -41 -204 -45 -260 -5 -35 25
-86 99 -137 198 -37 74 -45 131 -19 141 8 3 13 12 9 20 -8 22 12 12 115 -57
50 -34 96 -60 102 -58 11 4 -28 40 -141 130 -30 24 -54 48 -54 53 1 6 30 20
65 33 88 32 165 25 269 -24z m2589 39 c-1 -5 -16 -25 -34 -47 l-33 -38 -21 37
c-12 20 -22 38 -22 40 0 2 12 6 28 8 49 7 82 7 82 0z m775 -32 c120 -35 209
-110 209 -176 0 -55 -54 -239 -77 -262 -25 -25 -153 -77 -213 -87 -29 -5 -53
-2 -80 9 -89 37 -119 94 -128 240 -5 94 -5 98 9 68 28 -62 31 -38 9 85 -9 48
9 39 36 -18 21 -45 40 -65 40 -42 0 8 -29 96 -45 135 -18 43 16 10 63 -61 47
-73 168 -199 179 -188 7 6 -27 55 -93 132 -47 56 -72 99 -62 109 2 2 28 -11
58 -30 30 -18 58 -31 62 -29 5 3 -19 28 -52 56 -33 27 -60 52 -60 55 0 3 16 2
35 -1 39 -8 44 -1 18 21 -17 13 -17 14 2 9 11 -2 52 -13 90 -25z m-465 -9 c41
-38 142 -234 142 -276 0 -116 -176 -245 -382 -281 l-35 -6 34 19 c40 22 28 35
-20 22 -54 -16 -54 -13 -5 44 25 30 46 57 46 60 0 20 -34 -1 -73 -44 -25 -27
-48 -50 -51 -50 -3 0 40 63 95 141 72 98 99 143 91 151 -10 10 -19 0 -162
-200 -36 -50 -69 -92 -74 -92 -5 0 -6 53 -3 123 8 174 52 335 101 376 29 25
82 36 174 38 88 2 94 1 122 -25z m-1773 -3 c52 -25 98 -81 129 -157 31 -75 32
-111 2 -59 -20 35 -38 48 -38 29 0 -5 7 -31 15 -58 21 -71 20 -71 -35 -20 -45
42 -70 56 -70 40 0 -4 28 -38 63 -77 69 -78 67 -79 -60 -24 -46 20 -83 32 -83
27 0 -12 55 -53 107 -79 58 -29 60 -39 8 -33 -52 5 -57 -1 -17 -22 l27 -15
-48 -1 c-34 0 -46 -3 -41 -12 11 -18 -103 -3 -171 23 -61 23 -95 49 -95 74 0
10 10 15 27 15 14 0 45 11 67 24 41 24 131 120 154 163 16 29 15 80 -2 136
-17 56 -8 60 61 26z m-4350 -77 c-35 -4 -57 17 -57 53 0 38 12 36 50 -8 l38
-42 -31 -3z m5699 20 c8 -43 -1 -154 -18 -207 l-12 -40 -4 33 c-2 17 -8 32
-14 32 -7 0 -8 -27 -3 -84 5 -70 4 -86 -10 -100 -9 -9 -21 -16 -26 -16 -7 0
-109 202 -109 216 0 2 9 4 20 4 34 0 86 56 100 107 7 27 20 65 28 87 14 36 16
37 29 21 7 -10 16 -34 19 -53z m-1196 13 c0 -25 -3 -45 -7 -45 -10 0 -53 66
-53 80 0 5 14 10 30 10 29 0 30 -2 30 -45z m-790 -90 c8 -178 32 -207 184
-229 l81 -12 -3 -34 c-4 -48 -39 -97 -88 -120 -42 -21 -210 -47 -222 -35 -4 4
3 14 16 22 34 23 27 33 -23 33 -44 0 -45 1 -39 25 6 25 6 25 -36 19 -52 -8
-48 5 10 37 22 13 40 26 40 31 0 11 2 11 -65 -12 -32 -11 -62 -20 -67 -20 -16
0 -8 19 12 25 11 3 20 13 20 21 0 18 -22 13 -93 -23 -27 -13 -50 -23 -52 -21
-2 2 12 28 30 57 19 30 46 85 61 123 38 101 80 158 144 196 81 48 84 46 90
-83z m1443 36 c9 -27 17 -51 17 -55 0 -3 -25 -6 -55 -6 -30 0 -55 3 -55 7 0
10 62 103 69 103 3 0 14 -22 24 -49z m-2524 -73 c-32 -127 -32 -128 -20 -128
4 0 21 35 36 78 15 42 32 81 36 87 5 5 9 -27 9 -73 0 -45 4 -82 9 -82 15 0 21
28 22 103 l1 72 13 -53 c17 -71 25 -76 26 -16 l1 49 13 -31 c23 -51 38 -195
26 -240 -24 -86 -78 -134 -153 -134 -19 0 -58 -7 -87 -16 -28 -8 -61 -12 -71
-9 -11 3 -41 31 -67 62 -26 30 -72 72 -103 92 -46 31 -56 42 -58 70 -8 79 48
155 163 224 79 47 104 52 151 32 36 -15 39 -15 58 5 11 11 21 20 22 20 1 0
-11 -51 -27 -112z m869 87 c2 -2 -24 -56 -57 -121 -33 -66 -60 -114 -60 -109
-1 6 8 62 19 125 11 63 20 116 20 117 0 2 74 -9 78 -12z m-3528 -30 c48 -20
153 -85 147 -92 -2 -2 -17 1 -32 7 -44 17 -43 2 3 -36 44 -37 55 -59 25 -50
-10 2 -47 8 -83 12 -58 6 -63 5 -51 -9 12 -15 73 -31 146 -40 30 -3 30 -3 -17
-25 -25 -12 -75 -25 -110 -28 -34 -4 -70 -10 -78 -15 -32 -16 20 -21 114 -10
126 15 138 14 102 -5 -22 -13 -26 -18 -15 -25 8 -5 23 -9 35 -9 33 0 35 -11 6
-35 -91 -76 -252 -141 -327 -131 -31 4 -49 15 -86 55 -26 28 -52 51 -58 51
-24 0 -39 59 -45 175 -6 113 -5 122 16 159 36 62 77 78 178 73 47 -3 105 -13
130 -22z m2280 -122 c-19 -43 -35 -80 -37 -82 -5 -6 -43 31 -43 42 0 11 103
126 109 121 2 -2 -11 -39 -29 -81z m-720 35 c38 -63 16 -113 -37 -84 -46 24
-83 60 -75 72 13 18 56 44 74 44 10 0 27 -15 38 -32z m3161 22 c23 -13 24 -41
4 -79 -19 -37 -39 -44 -60 -21 -14 15 -16 29 -11 65 8 48 25 57 67 35z m112
-44 l39 -24 -60 -46 c-33 -25 -64 -46 -68 -46 -10 0 1 60 20 103 8 20 19 37
23 37 4 0 25 -11 46 -24z m394 2 c49 -35 173 -196 173 -225 0 -24 -50 -175
-70 -213 -20 -38 -68 -53 -141 -46 -134 12 -327 90 -373 150 l-26 35 83 -23
c45 -13 93 -26 106 -30 17 -6 22 -5 19 4 -2 7 -28 22 -58 32 -77 29 -79 35
-13 42 133 15 153 18 153 27 0 5 -69 9 -154 9 -89 0 -157 4 -161 10 -3 5 11
17 32 26 33 14 35 17 19 23 -16 6 -9 13 42 42 34 18 62 37 62 41 0 4 -17 4
-37 1 l-38 -5 35 26 c94 72 152 94 250 95 53 1 72 -3 97 -21z m266 -10 c12
-10 137 -286 137 -304 0 -2 -13 -1 -30 3 -37 7 -38 -5 -2 -34 44 -37 2 -28
-70 14 -76 44 -87 58 -81 98 4 26 -6 42 -71 120 -42 50 -76 93 -76 97 0 4 26
9 58 11 31 2 71 4 88 5 16 1 38 -4 47 -10z m-3366 -64 c83 -63 153 -125 164
-145 7 -15 6 -58 -5 -155 -17 -141 -28 -180 -70 -229 l-25 -30 -1 25 -1 25
-24 -30 -25 -30 0 37 c0 44 -17 59 -26 23 -3 -14 -9 -24 -11 -21 -3 2 -20 78
-39 167 -18 89 -36 164 -39 167 -18 18 -15 -26 10 -163 15 -86 25 -158 22
-161 -3 -4 -21 23 -39 57 -31 61 -33 62 -36 33 -2 -16 11 -68 28 -113 18 -49
25 -79 17 -73 -21 18 -154 215 -187 278 -35 66 -40 140 -12 192 21 40 199 181
229 181 12 1 43 -15 70 -35z m-237 9 c-37 -16 -115 -13 -148 6 -12 8 11 10 83
10 98 -1 99 -1 65 -16z m-1506 -39 l29 -35 -21 -22 -22 -21 -30 29 c-35 33
-36 42 -13 67 21 23 23 23 57 -18z m2539 -26 c24 -35 53 -76 63 -92 l18 -29
-44 7 c-75 12 -84 22 -84 104 -1 40 0 72 1 72 1 0 22 -28 46 -62z m-2093 21
c69 -15 178 -60 197 -81 15 -16 15 -27 5 -96 -7 -42 -12 -113 -12 -157 0 -115
-14 -129 -149 -155 -107 -20 -128 -7 -272 177 -89 113 -97 143 -36 136 l32 -4
-27 23 c-51 43 -29 39 82 -17 60 -30 114 -55 120 -55 29 0 -1 24 -100 80 -60
34 -113 67 -116 72 -14 22 29 39 82 32 33 -4 54 -2 58 5 5 7 -4 11 -25 11 -42
0 -27 16 26 29 54 12 82 12 135 0z m570 -12 c0 -7 -20 -73 -45 -147 -25 -74
-45 -139 -45 -144 0 -28 33 30 70 124 69 175 103 211 115 125 5 -31 13 -46 26
-50 10 -4 21 -18 25 -33 3 -15 9 -46 15 -69 17 -78 12 -122 -19 -151 -15 -15
-42 -34 -59 -44 -18 -9 -43 -34 -57 -56 -22 -35 -30 -40 -83 -48 -32 -6 -69
-7 -83 -4 -23 5 -158 167 -196 234 -43 78 28 152 234 242 84 37 102 41 102 21z
m407 -1 c5 -4 -60 -166 -66 -166 -4 0 -26 27 -49 60 -44 62 -45 68 -10 49 17
-9 20 -9 15 2 -3 8 -8 22 -12 31 -10 24 28 38 80 31 22 -3 41 -7 42 -7z m2838
-66 c25 -28 32 -102 10 -123 -9 -9 -25 -17 -35 -17 -25 0 -60 46 -60 80 0 30
34 80 54 80 7 0 21 -9 31 -20z m-538 -52 c41 -15 42 -24 2 -33 -32 -7 -48 4
-49 33 0 15 5 15 47 0z m-2484 -35 c14 -26 15 -26 21 -5 4 12 11 22 15 22 12
0 82 -90 77 -99 -3 -5 -22 -12 -42 -15 -19 -4 -41 -9 -48 -12 -9 -4 -18 15
-30 60 -9 36 -16 68 -16 71 0 13 10 3 23 -22z m768 7 c10 -6 19 -20 19 -31 0
-26 -38 -81 -51 -74 -16 10 -9 115 8 115 2 0 13 -5 24 -10z m569 -7 c65 -18
78 -33 30 -33 -46 0 -36 -15 18 -27 l47 -9 -30 -13 c-21 -9 -54 -10 -110 -6
-95 8 -93 -6 5 -28 63 -14 64 -15 37 -26 -35 -14 -150 -14 -199 -1 -20 6 -47
19 -59 29 l-22 18 48 19 c27 10 68 35 92 56 50 43 60 44 143 21z m399 -19 c12
-15 21 -35 21 -46 0 -27 -44 -68 -73 -68 -29 0 -73 32 -79 58 -18 68 86 113
131 56z m-3070 -64 c4 0 15 16 25 36 9 20 19 34 22 31 3 -2 -4 -70 -15 -151
-23 -163 -24 -176 -13 -176 4 0 16 42 26 93 30 156 37 187 45 183 4 -3 13 -37
20 -76 7 -38 17 -70 22 -70 4 0 6 37 3 83 l-5 82 31 -35 c44 -48 71 -112 77
-180 11 -122 -21 -179 -115 -206 -32 -9 -81 -24 -109 -35 -29 -10 -61 -16 -70
-12 -10 4 -42 29 -72 56 -30 27 -80 61 -110 75 l-56 27 -3 54 c-4 78 3 96 60
157 66 70 136 115 166 107 17 -4 28 1 40 18 l17 24 3 -42 c2 -24 7 -43 11 -43z
m3751 62 c0 -19 -66 -122 -78 -122 -4 0 -16 7 -27 15 -18 15 -17 17 35 70 58
59 70 65 70 37z m426 -10 c13 -7 11 -13 -16 -36 -37 -30 -33 -45 6 -27 43 19
40 5 -10 -50 -51 -56 -60 -80 -21 -55 14 9 37 24 51 33 l26 17 -31 -62 c-17
-34 -31 -66 -31 -72 0 -26 20 -4 59 65 24 41 48 75 53 75 20 0 1 -104 -32
-189 -42 -103 -65 -139 -108 -164 -46 -27 -97 -25 -163 7 -31 14 -62 26 -68
26 -24 0 -79 31 -86 48 -3 9 -13 47 -20 83 -8 37 -25 87 -39 113 -30 56 -23
85 29 136 58 56 120 72 262 66 68 -3 130 -9 139 -14z m995 -43 c21 -17 39 -35
39 -40 0 -5 -22 -9 -50 -9 -41 0 -50 3 -50 18 0 23 11 62 17 62 3 0 23 -14 44
-31z m855 -11 c18 -18 53 -177 54 -244 0 -53 -17 -73 -107 -124 -110 -61 -160
-53 -270 45 -41 36 -53 53 -53 75 0 16 -4 32 -10 35 -13 8 -13 62 0 70 5 3 58
-6 117 -20 127 -30 167 -19 52 15 -145 42 -194 59 -175 59 15 1 16 4 6 16 -16
19 -17 19 55 41 43 13 53 19 38 22 -13 2 -23 7 -23 12 0 12 65 18 192 16 86
-1 111 -4 124 -18z m-3765 -19 c19 -7 64 -29 100 -51 41 -24 88 -42 124 -48
32 -5 59 -11 61 -13 4 -4 -18 -105 -43 -197 -18 -66 -70 -123 -128 -139 -22
-6 -69 -11 -105 -11 l-65 0 30 25 30 24 -52 1 c-46 0 -51 2 -46 20 5 17 0 20
-33 20 -42 1 -42 0 20 46 33 23 11 26 -45 5 -29 -11 -55 -19 -57 -17 -2 3 1
14 8 25 13 26 14 26 -55 -4 -32 -14 -59 -24 -61 -22 -2 2 7 18 21 37 13 18 36
64 50 101 26 67 97 187 119 201 17 12 89 9 127 -3z m3196 -11 c29 -32 36 -61
19 -83 -12 -17 -18 -18 -55 -6 -57 17 -74 51 -41 86 29 31 50 32 77 3z m-2076
-8 c221 -31 289 -67 289 -155 0 -63 -69 -158 -140 -195 -40 -20 -222 -26 -276
-9 -41 13 -88 63 -114 122 -26 59 -20 72 12 23 28 -44 42 -46 33 -6 -8 35 1
70 18 70 7 0 39 -21 71 -45 33 -25 63 -45 68 -45 20 0 2 22 -71 84 -80 69 -91
82 -91 116 0 29 23 30 141 9 60 -11 118 -18 127 -16 29 7 -29 25 -120 37 -45
6 -87 16 -92 21 -13 12 -14 12 145 -11z m1092 -25 c20 -8 50 -15 67 -15 48 0
96 -25 154 -80 55 -52 116 -157 116 -200 0 -42 -48 -106 -135 -180 -105 -89
-125 -92 -236 -34 -105 56 -113 72 -118 252 -3 139 -3 142 18 142 16 0 21 6
21 28 l0 27 26 -30 25 -30 -5 38 c-2 20 -3 37 0 37 2 0 29 -50 59 -110 31 -61
60 -108 65 -105 5 3 -16 64 -46 136 -30 73 -54 133 -54 135 0 6 6 5 43 -11z
m-2988 -11 c30 -30 109 -158 127 -207 14 -37 16 -53 8 -62 -8 -10 -8 -20 0
-36 12 -22 12 -22 -51 -15 -35 3 -76 9 -91 12 -45 10 -32 -12 15 -25 23 -7 53
-19 67 -27 l25 -13 -27 -1 c-40 0 -35 -17 7 -24 19 -4 35 -11 35 -15 0 -16
-51 -22 -126 -15 -41 4 -74 4 -74 1 0 -2 31 -13 70 -22 38 -9 67 -21 64 -26
-3 -5 -50 -9 -106 -9 -150 0 -197 31 -218 142 -6 29 -17 74 -27 99 -24 70 -15
88 84 160 139 102 182 119 218 83z m1385 -1 c0 -5 -9 -19 -20 -33 -28 -36 -24
-44 10 -20 17 12 28 16 25 8 -8 -22 -75 -266 -75 -272 0 -3 6 -6 13 -6 7 0 31
56 58 138 25 75 50 136 55 135 5 -2 10 -28 12 -58 4 -74 22 -70 22 4 0 69 16
90 25 34 13 -76 25 -110 45 -128 19 -18 20 -17 21 1 2 35 17 -27 18 -74 1 -49
-17 -99 -45 -123 -31 -28 -173 -79 -216 -79 -34 0 -46 6 -77 38 -61 64 -141
182 -141 208 0 39 34 96 84 142 65 60 87 58 40 -3 -46 -61 -9 -45 61 25 65 66
85 80 85 63z m2345 -2 c16 -7 11 -10 -25 -15 -65 -11 -83 -17 -74 -26 5 -4 38
-4 74 0 36 4 67 6 68 4 2 -1 -51 -38 -118 -81 -162 -104 -157 -100 -145 -112
7 -6 46 12 115 53 202 119 206 121 191 100 -8 -10 -35 -40 -59 -65 -53 -56
-40 -75 16 -24 22 19 42 35 45 35 4 0 4 -13 1 -30 -5 -23 -3 -30 10 -30 9 0
16 -3 16 -6 0 -23 -83 -157 -121 -196 -60 -60 -100 -69 -173 -40 -28 12 -77
31 -108 42 -59 22 -62 25 -73 100 -4 25 -20 78 -36 118 -16 40 -29 77 -29 82
0 6 40 10 98 9 107 -2 124 4 185 57 30 28 45 34 80 33 23 0 51 -4 62 -8z
m-4861 -138 c31 -45 53 -84 49 -86 -4 -3 -32 6 -61 19 -60 26 -72 48 -72 127
0 61 1 61 84 -60z m2281 62 c-21 -25 -40 -43 -44 -41 -4 3 -5 23 -3 45 4 40 5
41 44 41 l39 0 -36 -45z m-1821 13 c13 -21 -35 -136 -81 -192 -18 -23 -41 -53
-51 -68 -9 -16 -19 -28 -22 -28 -18 1 -32 23 -44 68 -11 44 -11 55 1 72 8 11
21 20 30 20 9 0 36 9 59 20 41 21 55 41 69 103 6 30 22 32 39 5z m2936 -115
c6 -32 16 -74 21 -93 16 -61 13 -66 -46 -80 -44 -11 -57 -11 -70 0 -21 17 -19
29 10 72 13 20 32 63 41 97 10 34 21 61 25 61 4 0 13 -26 19 -57z m1755 -150
c26 -106 51 -193 57 -193 13 0 1 76 -32 200 -38 146 -39 149 -30 155 4 3 18
-20 30 -49 21 -52 43 -75 55 -56 3 5 -6 34 -20 66 -14 31 -23 59 -21 61 4 4
172 -210 220 -281 44 -66 39 -83 -71 -226 -73 -93 -110 -111 -176 -86 -61 23
-117 74 -152 137 -27 49 -30 62 -29 144 1 56 7 105 17 130 l16 40 0 -85 c1
-47 5 -80 10 -75 4 6 14 68 20 140 13 135 21 171 21 92 0 -52 8 -79 21 -71 5
3 9 39 9 81 0 42 2 74 4 72 2 -2 25 -91 51 -196z m-4625 162 c16 -30 57 -44
143 -49 36 -2 73 -9 81 -15 26 -22 66 -113 66 -151 0 -56 -15 -67 -125 -89
-186 -37 -170 -38 -185 13 -7 25 -10 52 -6 61 3 8 33 32 66 53 33 21 58 41 55
44 -4 3 -45 -10 -93 -28 -47 -19 -92 -32 -99 -30 -9 4 -5 17 12 48 26 45 32
74 16 80 -10 3 36 88 48 88 4 0 14 -11 21 -25z m-322 -57 c14 -14 16 -48 3
-48 -6 0 -13 5 -16 11 -5 6 -12 4 -20 -8 -7 -10 -15 -16 -17 -13 -11 15 -38
60 -38 65 0 10 76 5 88 -7z m-177 -39 c88 -44 159 -134 159 -201 l0 -38 -167
0 c-191 -1 -198 -12 -18 -30 113 -11 165 -27 165 -50 0 -16 -90 -69 -144 -85
-58 -18 -133 -19 -173 -4 -54 20 -81 58 -115 161 l-32 98 19 26 c11 14 43 35
71 45 50 19 79 41 117 88 20 25 54 23 118 -10z m3899 -3 c0 -28 -24 -51 -46
-42 -13 5 -13 10 6 36 26 36 40 38 40 6z m-1643 -136 c27 -30 55 -65 62 -77
20 -38 67 -56 128 -49 41 5 53 3 53 -8 0 -31 -50 -205 -73 -254 -21 -46 -27
-51 -35 -36 -8 15 -13 16 -25 6 -12 -11 -26 16 -93 180 -100 245 -113 218 -20
-42 36 -101 64 -185 62 -187 -3 -3 -210 101 -225 113 -2 2 8 30 23 63 14 32
26 73 26 90 0 45 -34 106 -75 134 l-34 24 43 30 c29 21 52 49 71 87 l28 57 17
-38 c9 -21 39 -63 67 -93z m-755 83 c42 -38 7 -113 -52 -113 -38 0 -80 39 -80
74 0 49 91 76 132 39z m1356 -62 c17 -5 109 -7 204 -4 198 6 209 -2 48 -37
-168 -37 -158 -54 14 -24 117 20 139 14 46 -15 -243 -73 -248 -76 -206 -79 23
-2 74 7 122 22 102 32 117 32 80 0 -36 -32 -26 -43 19 -21 20 9 38 17 40 17
16 0 -180 -183 -209 -195 -48 -20 -132 -19 -181 4 -51 23 -121 102 -135 150
-22 79 2 167 57 211 l26 20 22 -20 c12 -11 36 -25 53 -29z m1034 22 c9 -10 30
-46 47 -80 21 -42 41 -68 62 -78 31 -17 51 -53 63 -113 5 -31 1 -38 -84 -121
-50 -48 -90 -93 -90 -100 0 -7 -15 -18 -34 -26 -30 -13 -41 -13 -84 0 -64 19
-111 70 -163 178 -43 89 -48 123 -21 143 15 11 15 16 4 34 -7 12 -11 24 -8 27
2 3 45 -7 95 -21 96 -28 111 -30 111 -18 0 4 -33 20 -73 36 -39 16 -76 33 -81
38 -6 4 27 8 72 8 45 0 82 4 82 9 0 5 -42 12 -92 16 -102 8 -98 14 19 35 45 8
79 20 89 32 22 23 66 23 86 1z m-427 -63 c18 -20 18 -21 -15 -55 l-34 -35 -23
27 c-29 37 -29 49 5 67 36 20 46 20 67 -4z m1123 -27 c115 -49 196 -52 239
-10 16 15 34 27 39 27 22 0 42 -37 48 -89 10 -80 29 -115 97 -187 34 -35 59
-67 56 -70 -4 -4 -34 1 -67 10 -49 14 -70 15 -117 7 -31 -6 -76 -11 -100 -11
-39 0 -49 5 -102 58 -32 31 -102 97 -155 146 -53 48 -96 92 -96 97 0 5 15 9
33 9 l32 1 -30 24 -30 25 33 0 c18 0 72 -17 120 -37z m-2806 -8 c192 -28 248
-44 278 -82 42 -53 11 -148 -70 -217 -47 -39 -60 -42 -187 -50 l-112 -7 -39
35 c-34 31 -113 156 -98 156 3 0 12 -13 21 -30 19 -36 48 -31 43 9 -5 43 37
40 101 -9 100 -74 75 -20 -29 64 -39 32 -70 60 -67 62 2 2 23 -3 47 -11 40
-14 68 -12 44 3 -61 39 -124 87 -124 94 0 11 -5 11 192 -17z m-1448 -6 c48
-38 56 -91 15 -104 -35 -12 -109 43 -109 81 0 44 52 56 94 23z m2313 -72 c-2
-57 1 -66 30 -103 l32 -41 -52 -57 c-32 -34 -61 -56 -74 -56 -56 0 -65 24 -38
100 17 48 11 66 -11 36 -13 -19 -14 -18 -14 12 0 38 23 98 48 126 13 14 61 42
79 46 1 0 1 -28 0 -63z m-1815 -4 c36 -33 68 -93 68 -125 0 -46 -59 -242 -76
-255 -25 -18 -120 -16 -185 3 -69 21 -119 57 -158 114 -29 43 -59 135 -48 146
3 3 31 -15 62 -40 30 -25 74 -55 96 -66 41 -22 132 -43 124 -30 -3 5 -49 35
-102 68 -54 33 -116 76 -138 95 -34 30 -38 38 -29 54 13 21 68 38 189 58 118
18 159 14 197 -22z m498 12 c18 6 19 4 5 -42 -49 -170 -63 -233 -52 -233 7 0
32 59 55 130 24 72 47 130 52 130 4 0 11 -17 16 -37 l7 -38 12 50 c13 56 16
51 36 -52 11 -58 13 -62 34 -57 21 5 23 1 29 -49 8 -65 -8 -113 -48 -145 -30
-23 -168 -72 -203 -72 -31 0 -158 133 -179 187 -25 63 -12 107 45 165 54 54
76 62 61 23 -14 -36 0 -31 50 20 36 37 46 42 53 30 5 -10 16 -14 27 -10z
m3198 -112 c137 -135 141 -140 195 -253 69 -141 98 -237 76 -251 -19 -12 -161
-11 -194 1 -14 5 -28 18 -31 27 -20 61 -34 80 -93 127 -83 66 -92 71 -85 52 5
-13 -1 -16 -29 -16 -19 0 -49 3 -66 6 l-31 7 45 48 c32 34 46 59 51 89 l7 40
21 -28 c23 -32 43 -39 38 -14 -2 9 -24 59 -48 111 -45 96 -49 121 -18 121 13
0 15 7 10 35 -4 19 -3 35 2 35 5 0 73 -62 150 -137z m-3465 107 l61 0 -26 -27
c-59 -63 -73 -141 -43 -238 8 -27 12 -51 10 -54 -7 -6 -5 -8 -60 94 -26 50
-66 123 -88 164 l-40 74 63 -6 c35 -4 90 -7 123 -7z m2480 -131 c52 -103 77
-242 56 -309 -10 -32 -24 -51 -49 -66 -19 -13 -50 -35 -69 -51 -29 -24 -43
-28 -90 -27 -94 1 -220 21 -247 38 -35 24 -64 75 -64 115 0 48 27 146 57 204
24 48 112 152 120 143 3 -2 -5 -22 -17 -45 -11 -23 -17 -41 -13 -41 4 0 29 21
56 48 54 51 52 53 31 -33 -12 -48 13 -25 41 38 l28 62 9 -60 c4 -33 11 -79 14
-103 9 -73 24 -35 24 64 0 100 8 112 30 45 19 -58 33 -52 25 10 -10 73 11 62
58 -32z m667 48 c70 -41 120 -112 120 -170 0 -34 -6 -46 -40 -78 -22 -21 -68
-54 -104 -74 -67 -37 -183 -81 -192 -72 -3 3 15 68 40 145 25 77 51 172 58
211 11 67 14 71 38 71 14 0 50 -15 80 -33z m-3995 -33 c0 -21 -4 -82 -8 -134
-9 -119 8 -101 29 32 14 88 36 148 53 148 15 0 90 -112 110 -166 28 -73 37
-154 21 -185 -22 -43 -52 -69 -89 -75 -20 -4 -54 -15 -76 -25 -22 -10 -48 -19
-57 -19 -19 0 -212 161 -228 190 -15 29 -12 55 11 84 36 45 211 197 223 193 6
-2 11 -21 11 -43z m783 -166 c28 -54 47 -98 42 -98 -5 0 -21 5 -35 10 -24 9
-26 8 -20 -11 6 -18 4 -20 -17 -14 -32 9 -68 51 -68 81 0 36 32 146 40 137 4
-4 30 -52 58 -105z m1790 77 c45 -29 125 -48 172 -40 l35 5 -35 -30 c-79 -69
-370 -181 -370 -142 0 4 7 18 16 31 13 18 14 28 5 47 -10 23 -6 30 52 89 35
36 68 65 75 65 7 0 29 -11 50 -25z m301 -34 c-12 -33 -43 -65 -59 -59 -11 3
46 88 60 88 5 0 4 -13 -1 -29z m911 -87 c-30 -87 -65 -154 -80 -154 -17 0 -30
72 -17 95 46 83 95 145 113 145 9 0 4 -24 -16 -86z m-1863 26 c78 -39 146
-106 162 -161 10 -34 10 -43 0 -50 -20 -12 -168 -47 -234 -55 -33 -4 -69 -10
-80 -15 -46 -18 124 -13 220 7 69 14 70 14 87 -8 18 -23 18 -23 -39 -77 -113
-106 -275 -152 -353 -99 -19 13 -49 46 -67 73 -18 28 -46 67 -63 89 -16 21
-30 50 -30 65 0 37 57 184 77 199 9 6 41 12 70 12 38 0 68 7 101 25 60 32 76
31 149 -5z m2853 5 c37 -19 60 -52 60 -87 0 -31 -69 -177 -93 -197 -8 -6 -31
-14 -49 -18 l-35 -5 -66 150 c-37 82 -67 152 -67 155 0 3 24 8 53 10 123 8
169 7 197 -8z m-3300 -30 c58 -21 63 -27 46 -50 -13 -18 -15 -18 -92 4 -44 13
-81 25 -83 27 -2 2 4 13 15 25 21 23 39 22 114 -6z m2042 -98 c10 -32 9 -40
-3 -48 -19 -12 -76 -11 -84 2 -4 5 -4 42 0 80 l7 71 34 -33 c19 -19 40 -51 46
-72z m-3128 2 c22 -6 83 -9 137 -7 76 2 101 7 117 21 20 18 22 17 81 -27 l62
-45 -33 -18 c-24 -13 -53 -17 -110 -16 -43 0 -78 -3 -78 -7 0 -5 39 -11 88
-15 112 -8 118 -11 52 -19 -148 -19 -276 -37 -289 -42 -9 -3 -11 -8 -5 -13 5
-5 98 1 209 14 110 12 204 19 209 14 9 -8 -245 -180 -343 -231 -98 -52 -162
-34 -269 74 -87 89 -89 106 -23 230 28 53 51 104 51 113 0 9 5 25 11 36 10 19
12 18 51 -16 23 -19 60 -40 82 -46z m2437 6 c6 -84 27 -127 78 -163 34 -23 39
-33 45 -77 10 -86 7 -121 -12 -138 -23 -21 -191 -51 -243 -44 -47 6 -150 68
-206 124 -40 39 -42 44 -31 73 12 35 10 35 106 -5 73 -30 154 -46 190 -36 21
6 9 11 -62 30 -93 25 -214 80 -237 108 -13 15 -11 16 13 10 15 -4 29 -3 32 2
3 5 -15 14 -40 20 -26 7 -45 13 -43 15 4 4 306 140 329 149 8 3 29 5 45 4 30
-2 30 -3 36 -72z m807 19 c28 -19 28 -77 1 -82 -15 -3 -79 70 -79 90 0 14 55
9 78 -8z m-2218 -16 c39 -27 70 -81 70 -122 0 -16 9 -49 21 -73 l20 -42 -20
-102 c-12 -63 -27 -110 -39 -123 -11 -11 -23 -34 -26 -50 -6 -23 -9 -27 -16
-16 -8 13 -11 12 -23 -3 -11 -17 -21 0 -91 152 -44 94 -81 169 -84 167 -7 -7
37 -144 69 -215 16 -35 29 -65 29 -68 0 -2 -16 3 -35 11 -35 15 -35 15 -29 -9
3 -14 3 -25 0 -25 -15 0 -163 106 -202 146 -147 146 -99 281 126 359 118 40
184 44 230 13z m885 -19 c8 -15 15 -37 15 -49 0 -18 -6 -20 -58 -20 -32 0 -63
5 -69 11 -29 29 44 107 85 91 7 -2 19 -17 27 -33z m-1327 -9 c12 -12 22 -23
22 -27 0 -11 -55 -92 -63 -93 -5 0 -22 9 -38 21 -33 23 -38 61 -13 97 19 28
63 29 92 2z m3187 -25 c118 -31 151 -71 168 -199 19 -146 19 -149 -48 -216
-75 -76 -131 -105 -186 -96 -102 16 -201 98 -255 211 -34 69 -39 99 -27 144 6
22 9 23 67 18 34 -3 112 -22 174 -41 63 -20 116 -36 119 -36 4 0 -2 9 -12 20
-17 19 -96 47 -230 82 -45 12 -50 16 -53 45 -3 28 0 32 42 48 99 38 154 42
241 20z m-674 -65 l24 -19 -70 0 -70 0 24 19 c13 11 33 20 46 20 13 0 33 -9
46 -20z m240 -19 c20 -16 22 -23 14 -46 -16 -44 -39 -53 -72 -29 -36 27 -40
47 -14 73 26 26 42 26 72 2z m-1374 -94 c55 -51 139 -186 148 -237 5 -28 1
-51 -13 -84 -17 -37 -35 -54 -113 -105 -50 -34 -101 -61 -113 -61 -12 0 -37
10 -56 22 -19 11 -74 40 -121 64 -48 24 -96 55 -108 70 -23 29 -27 74 -10 107
22 42 190 265 203 270 10 4 19 -29 36 -136 32 -199 41 -207 34 -31 -3 83 -3
161 1 173 6 20 8 20 37 5 17 -9 50 -34 75 -57z m1172 51 c20 -14 20 -16 4 -30
-10 -8 -74 -38 -143 -67 -177 -75 -190 -94 -30 -44 47 14 100 26 119 25 19 0
47 7 63 16 50 30 41 4 -25 -70 -36 -40 -64 -74 -62 -77 3 -2 11 2 20 9 9 7 18
10 21 7 8 -8 -146 -177 -192 -212 -46 -35 -92 -42 -135 -20 -96 49 -232 141
-242 163 -10 22 -8 27 20 52 45 40 53 61 53 133 0 89 4 91 145 83 l116 -7 27
31 27 32 97 -5 c61 -3 104 -10 117 -19z m-2584 -153 c4 -16 5 -54 3 -84 -3
-52 -5 -56 -48 -86 -66 -46 -105 -109 -129 -211 -11 -48 -26 -91 -33 -95 -15
-10 -55 -2 -85 17 -12 8 -60 57 -107 110 -74 82 -86 101 -86 132 0 29 8 43 43
76 54 52 141 110 198 132 24 10 56 26 71 36 14 10 37 18 51 18 l24 0 -53 -127
c-57 -139 -71 -183 -57 -183 5 0 26 39 48 88 21 48 56 125 78 172 l38 85 19
-25 c11 -14 22 -38 25 -55z m704 -147 c-50 -57 -52 -58 -71 -41 -21 18 -21 22
-2 133 l5 35 -21 -25 -21 -25 7 25 c21 78 18 77 89 15 l65 -57 -51 -60z m2027
82 c6 17 11 -32 14 -155 5 -165 6 -177 18 -140 7 22 16 81 19 130 5 62 9 82
14 65 l7 -25 8 24 c7 22 8 23 20 6 12 -16 14 -15 20 9 3 14 10 26 14 26 14 0
80 -116 101 -176 11 -31 22 -84 25 -118 8 -90 -11 -114 -138 -176 -57 -29
-115 -50 -133 -50 -24 0 -57 17 -125 68 -118 85 -133 105 -138 185 -3 53 0 69
25 114 50 92 152 223 173 223 10 0 27 11 37 24 l18 24 6 -41 c6 -39 7 -40 15
-17z m-2677 -25 c1 -16 -3 -36 -8 -43 -10 -16 -21 31 -21 87 l1 36 14 -25 c8
-14 14 -38 14 -55z m959 30 c-12 -26 -13 -26 -96 -45 -43 -10 -62 -22 -100
-62 -58 -62 -132 -98 -132 -65 0 19 99 126 132 143 23 12 161 49 200 53 4 1 2
-10 -4 -24z m-865 -54 c36 -33 34 -45 -5 -37 -43 9 -58 23 -58 58 0 34 4 32
63 -21z m1536 -94 c55 -63 66 -99 51 -177 -19 -98 -79 -174 -181 -226 -51 -26
-149 -44 -149 -28 0 5 18 42 40 82 22 40 40 77 40 83 0 23 -19 2 -75 -83 -83
-127 -83 -88 0 65 46 84 81 136 115 168 57 54 70 81 70 150 0 48 1 50 20 36
11 -8 42 -39 69 -70z m48 68 c31 -13 41 -13 85 0 52 15 73 12 82 -11 8 -21 26
-17 26 6 0 11 4 20 9 20 12 0 44 -96 37 -109 -3 -5 -22 -12 -42 -15 -22 -5
-34 -12 -31 -19 21 -50 21 -48 -9 -37 -51 20 -146 98 -186 153 -22 31 -20 32
29 12z m-760 -25 c7 -14 15 -38 18 -54 9 -41 61 -87 124 -110 29 -10 59 -29
67 -41 17 -27 45 -173 33 -180 -4 -3 -17 24 -29 60 -12 36 -24 65 -27 65 -3 0
-2 -39 2 -87 l7 -88 -31 35 c-33 39 -39 29 -16 -27 8 -20 13 -38 11 -40 -2 -3
-36 18 -74 46 -68 50 -92 61 -92 42 0 -5 29 -35 65 -67 36 -31 63 -59 61 -62
-3 -2 -23 3 -46 12 -59 23 -70 19 -31 -13 41 -34 30 -46 -33 -37 -66 10 -161
60 -221 117 -61 58 -81 102 -65 143 5 15 10 47 10 72 0 49 7 58 138 178 79 73
107 81 129 36z m-773 -40 c92 -29 163 -88 192 -160 12 -30 19 -58 16 -61 -4
-3 -74 -21 -155 -39 -107 -24 -144 -36 -132 -43 19 -10 143 5 217 28 45 13 48
13 58 -5 18 -33 11 -47 -46 -99 -66 -61 -112 -86 -194 -107 -108 -27 -144 -9
-236 120 -62 87 -65 93 -59 134 17 117 68 211 128 237 46 20 135 18 211 -5z
m1909 -75 c31 -22 57 -43 57 -47 0 -16 -44 -29 -75 -24 -68 13 -100 59 -75
107 12 22 10 22 93 -36z m-1499 -21 c25 -24 21 -90 -6 -108 -71 -50 -158 44
-98 104 24 24 82 27 104 4z m1227 -61 c16 -10 29 -20 29 -23 -1 -3 -21 -20
-45 -38 l-45 -33 0 40 c0 73 12 83 61 54z m185 -24 c3 -6 -2 -20 -13 -31 -19
-19 -20 -19 -44 1 -23 19 -23 19 -5 40 19 21 45 16 62 -10z m389 -21 c13 -77
48 -130 120 -183 75 -55 99 -84 89 -110 -8 -20 -101 -64 -186 -89 -76 -22 -94
-12 -194 102 -116 132 -142 167 -117 153 36 -19 47 -14 29 14 -9 13 -16 27
-16 30 0 14 52 1 151 -40 109 -45 139 -53 139 -37 0 9 -140 77 -215 105 -21 8
-46 24 -53 36 l-14 21 116 0 c117 0 143 8 84 28 l-33 10 47 1 46 1 7 -42z
m-1022 -65 c-42 -92 -53 -107 -53 -70 0 36 -12 34 -30 -6 -10 -20 -22 -32 -35
-32 -17 0 -20 8 -23 57 -4 79 8 98 61 98 23 0 53 7 67 14 47 26 49 17 13 -61z
m501 2 c-16 -24 -15 -25 5 -25 24 0 27 -20 10 -53 -17 -32 -28 -37 -83 -37
-46 0 -48 1 -42 25 4 14 5 25 2 25 -2 0 -24 -12 -50 -26 -54 -30 -59 -18 -13
32 23 26 53 43 102 60 88 29 89 29 69 -1z m-1243 -72 c30 -32 67 -72 82 -89
l27 -30 -90 -48 c-49 -26 -90 -44 -90 -39 0 4 -5 59 -11 122 -15 165 -6 175
82 84z m-112 -110 c12 -82 32 -189 43 -240 21 -90 19 -130 -5 -120 -236 102
-282 133 -280 191 1 19 17 65 37 103 40 76 149 213 169 213 9 0 20 -45 36
-147z m1495 -63 c8 -190 7 -190 -66 -8 -35 88 -38 103 -28 128 25 60 36 53 32
-21 -6 -94 13 -90 29 7 6 41 15 71 19 67 5 -4 11 -82 14 -173z m143 -7 c147
-228 146 -212 21 -335 -50 -49 -102 -94 -116 -99 -57 -22 -122 2 -122 45 0 12
18 47 40 77 70 94 73 106 65 251 -7 115 -6 131 10 148 10 11 21 20 25 20 5 0
39 -48 77 -107z m-310 74 c20 -9 40 -41 85 -135 32 -68 58 -132 58 -142 0 -28
-122 -203 -152 -218 -34 -16 -109 -1 -194 39 -89 42 -224 149 -256 204 -32 53
-35 53 81 -17 75 -46 104 -38 37 11 -25 17 -48 35 -50 40 -3 4 43 0 102 -10
61 -11 110 -15 115 -10 9 9 -21 19 -200 68 -57 15 -102 32 -100 37 2 5 39 24
83 43 121 50 127 54 72 48 -56 -5 -62 5 -15 24 17 7 48 20 67 27 41 17 224 11
267 -9z m-573 -69 c40 -56 6 -128 -59 -128 -70 0 -100 76 -50 125 32 33 87 34
109 3z m-404 -12 c30 -8 69 -20 85 -27 l30 -13 -42 -4 c-60 -5 -53 -19 12 -27
30 -4 55 -10 55 -13 0 -3 -7 -14 -17 -24 -24 -27 -9 -33 40 -14 82 31 71 15
-38 -56 -60 -39 -105 -73 -99 -75 6 -2 50 15 99 37 48 22 83 35 78 28 -5 -7
-26 -34 -47 -60 -56 -69 -26 -68 44 2 34 34 64 59 67 56 3 -3 -18 -49 -48
-101 -53 -97 -134 -186 -186 -206 -48 -18 -89 -10 -139 26 -27 20 -62 43 -78
53 -74 44 -73 43 -80 203 -6 140 -6 147 15 174 12 15 36 33 53 41 41 17 128
17 196 0z m496 -255 c102 -59 179 -163 205 -279 23 -99 -16 -150 -174 -228
-129 -63 -136 -63 -231 30 -56 54 -65 68 -71 109 -12 81 31 265 73 310 14 15
29 27 32 27 4 0 11 -17 17 -37 l10 -38 2 55 c2 78 15 54 46 -85 14 -66 28
-121 31 -124 10 -10 3 110 -11 182 -8 43 -15 85 -15 93 0 22 30 16 86 -15z"/>
</g>
</svg>
