<?xml version="1.0" encoding="utf-8"?>
<!-- Generator: Adobe Illustrator 24.1.0, SVG Export Plug-In . SVG Version: 6.00 Build 0)  -->
<svg version="1.1" baseProfile="tiny" id="图层_1"
	 xmlns="http://www.w3.org/2000/svg" xmlns:xlink="http://www.w3.org/1999/xlink" x="0px" y="0px" viewBox="0 0 1024 1024"
	 xml:space="preserve">
<g id="图层_1_x5F_复制">
	<g>
		<path d="M445,1c-2,2.6-5.8,1.6-7.9,4l0.1-0.1c-8,1.8-14.8,6.2-20.7,11.5c-15.2,13.7-31.1,26.6-46.5,40
			c-13.4,11.7-23.4,26.3-32.7,41.3c-11.1,17.8-18,37.8-20.4,58.6c-2.1,17.7-4,35.3-3.5,53.2c2.5-13.4,4.8-26.8,7.5-40.2
			c4.4-22.7,14.4-44.1,29-62c0.7-0.9,1.5-3.1,2.7-2.2c1.3,0.9-0.5,2.3-1.3,3.2c-12,14.6-20.2,31.2-25.6,49.1
			c-3.6,11.9-5.4,24.2-7.6,36.5c-1.1,6-1.4,12.3-3.1,18.1c-5,16.8,0,31.8,6.9,46.7c2.1,4.5,4.2,9,6.3,13.5c0.3,0.7,0.5,1.7,1.5,1.5
			c0.2-0.6,0.2-1.3,0.1-1.9c-1-8.9-1.4-17.9-1-26.9c0.3-10.6,2.1-21.1,3.5-31.7c0.3-2,0.5-4,0.8-5.9c0.1-0.6,0.6-1.5,1.2-1.3
			c0.6,0.1,0.6,1.1,0.5,1.7c-0.7,5.6-1.4,11.2-2.3,16.8c-2.7,16.2-2.2,32.4-1.2,48.7c0.7,11.2,3.6,21.7,6.9,32.1
			c3.6,11.2,12.1,18.9,20.9,26.1c2.9,2.4,6.1,4.6,9.1,6.9c0.5,0.4,1.2,1,1.7,0.6c0.6-0.5-0.2-1.2-0.5-1.6c-2.5-4.3-4.3-9-5.4-13.8
			c-0.2-0.8-0.7-1.8-0.4-2.4c1.7-4.4-1.1-7.2-3.3-10.2c-8.8-12-12.7-25.8-14.7-40.2c-2.5-18.3-3.4-36.8-2.9-55.3
			c0.4-19.4,2.8-38.7,7.2-57.7c2.7-11.3,4.4-22.8,7.5-33.9c2.5-9.1,6.3-17.8,10.1-26.4c0.4-0.8,0.7-2.3,1.8-1.8
			c0.9,0.5,0.1,1.8-0.2,2.7c-1.8,4.1-3.5,8.2-5.2,12.4c-5.7,13.7-8.6,28.2-11.1,42.7c-4.8,28.2-2.7,55.9,7.9,82.7
			c2.4,6.1,5.4,11.8,9,17.2c-1.8-10.1-3.7-19-4.5-28.1c-0.6-6.8-1.3-13.6-1.6-20.4c-0.7-13.9-0.4-27.9,1-41.8c1.3-13.8,5-27,9-40.2
			c0.3-0.8,0.7-1.8,1.6-1.5c0.8,0.3,0.4,1.4,0.2,2.2c-2.8,8.7-5.2,17.5-7,26.4c-1.3,7.2-2.1,14.5-2.6,21.7c-0.7,8.1,0,16.2,0.9,24.3
			c1.1,9.4,1.8,18.8,4.2,28c2.4,9.4,5.4,18.6,10.1,27.2c-3.3-12.9-4.6-26.1-6.2-39.2c-1.5-12.8-0.6-25.5,0.6-38.3
			c1.3-13.9,4-27.6,8-40.9c0.4-1.4,0.5-3.9,1.8-3.6c1.3,0.3,0.2,2.5-0.2,3.9c-4.6,15.8-7.5,32-8.6,48.4
			c-1.4,19.4,2.9,37.1,12.4,53.8c0.6,1,1.2,2,1.9,2.9c0.9,1.2,1.8,2.3,3.3,4.2c-3.7-12.9-4.1-25.5-5.1-38c-0.2-4.8,0-9.7,0.8-14.4
			c1.2-8.8,1.1-17.6,1.6-26.4c0.7-13.7,4.1-26.8,7.3-40c0.2-0.9,0.7-2.4,1.6-2.1s0.5,1.8,0.2,2.7c-2.5,8.9-5,17.9-6.1,27.1
			c-1.5,12.9-2.5,25.8-1,38.8c1.3,10.9,2.8,21.7,7.2,31.8c2.8,6.6,6.2,12.9,10.1,18.8c0.3,0.5,0.5,1.1,1.2,1.2
			c-0.2-0.6-0.3-1.2-0.5-1.8c-2.9-8.6-5.8-17.3-6.4-26.5c-0.6-7.9-1.5-15.8-0.9-23.9c0.7-8.5,0.2-17,1.3-25.4
			c1.4-11.3,4.9-21.9,8.4-32.7c0.2-0.6,0.7-1.5,1.3-1.3c0.9,0.3,0.7,1.4,0.4,2.1c-3.1,8.4-5.6,17-7.3,25.7c-4.1,22.2-2.8,44,5.7,65
			c2.2,5.4,4.6,11,9.8,14.5l0.1,0.4v-0.2c-2.6-4.8-4.5-10-5.5-15.4c-0.2-0.9-1.1-2,0.4-2.4c1.2-0.4,1.6,0.8,2,1.7
			c2.7,5.5,5.3,11.1,9,16c0.9,1.2,1.7,5.2,3.7,0.6c6.9,0.6,10.3-6.4,16.5-7.6c3.7-0.7,7.2-2.5,11-2.9c3-0.3,4-1.3,3.1-4.5
			c-2-6.7-4.1-13.3-4.9-20.2c-1.4-12.7-2.5-25.5-1.1-38.3c0.3-3.2-0.9-6.2-1.7-9.1c-4.6-18.1-3.8-36.6-3.8-55.1
			c0-0.9-0.3-2.4,0.9-2.4c1.6,0,1.1,1.7,1.2,2.7c0.1,8.5,0.3,17,0.1,25.5c-0.3,13.1,2.8,25.6,5.7,38.3c2.4,10.7,6.6,20.9,12.5,30.1
			c0.8,1.2,1.2,2.7,3,2.9l0.1,0.7c0-0.1,0.1-0.2,0.1-0.2c-0.1-0.1-0.1-0.3-0.2-0.4c-4.3-9.8-6.3-20.1-7.3-30.8
			c-1.7-18.4-2.2-36.9-3-55.3c-0.3-10.7-2.9-21.1-7.6-30.7c-1-1.9-1.8-3.9-2.7-5.9c-0.3-0.6-0.9-1.3-0.2-1.7
			c1.1-0.7,1.4,0.4,1.7,1.1c5.1,10.3,9.4,20.8,10,32.5c0.8,14.7,1.6,29.3,6.4,43.6c4.4,13.9,13.4,25.9,25.4,34.2
			c1.6,1.1,3.2,2.3,4.8,3.5c0.2,0,0.3,0.1,0.5,0.1c0.1,0,0.2-0.1,0.2-0.1l-0.8,0.1c0.3-0.6,0.2-1.3-0.2-1.8
			c-14-19.1-21.8-40.7-26.7-63.6c-2.4-11.5-4.3-23.1-7.6-34.4c-3-10.5-6.5-20.5-14.5-28.4c-0.6-0.6-1.9-1.4-0.7-2.4
			c0.7-0.5,1.4,0.6,2,1.2c6.2,6.3,10.7,14.1,13,22.6c1.3,4.6,2.8,9.2,3.9,13.8c0.4,1.8,1,2.6,2.9,2.6c9.5,0.1,18.7,2.8,28,4.3
			c10.8,1.8,20.6,7,29.6,13.4c0.6,0.4,1.7,1,1.2,1.8c-0.6,1-1.5,0-2.1-0.4c-7.8-5.3-16.4-9.5-25.4-12.3c-2.1-0.6-4.1-1.4-6.2-0.5
			v-0.3l-0.1,0.2c13.8,8.9,26.5,19.4,39.6,29.3c6.2,4.7,12.4,9.4,18.9,13.7c2.8,1.9,6.4,2.6,9.5,4c10.5,4.9,21.2,9.4,32.8,10.7
			c1,0.1,2.4,0.5,2.1,1.5c-0.2,0.9-1.7,0.6-2.7,0.4c-10.7-1.9-21.2-5.3-31-10.1c-1.6-0.8-3.1-2.1-5.1-1.6l0.1-0.1
			c9.2,9,17,19.1,25.4,28.8c11.7,13.6,17.6,29.8,21.8,46.8c0.6,2.5,0.6,5.3,2.3,7.5c0.4-2.3,0.9-4.6,1.6-6.8
			c2.8-7.2,6.5-13.8,13-18.3c3.6-2.5,5.7-6.4,7.9-10.1c2.2-3.7,5.3-7.6,5.6-11.5c0.3-4.8-5.8-5.2-8.9-7.8
			c-10.7-9.1-17.3-20-17.8-34.2c0-0.8-0.3-1.7-0.3-2.5c0.1-5.6-0.7-10.5-7.9-10.6c-10.8-7.2-13.5-19.2-2.7-28.6c2-1.7,2-2.3,0.4-4
			c-5.8-6.3-4.8-13.4-1.7-20.5c3.1-7.2,9.7-10.4,16.4-10.1c5.7,0.2,9.6,0.2,13-4.8c1.5-2.2,4.9-2.6,7.9-1.9c2.2,0.5,2.3-0.4,1.5-2.1
			c-8.1-15.7-17.8-30.1-34.1-38.6c-0.4-0.2-0.9-0.5-1.3-0.7c-0.8-0.4-2.1-0.7-1.4-1.9c0.5-0.8,1.5,0,2.2,0.3
			c8.6,3.8,15.1,10.2,21.2,17.1c6.8,7.7,11.8,16.4,16.2,25.6c0.3,0.6,0.6,1.2,0.9,1.8c3.5,7.3,3.9,7.5,11.4,4.8c2.7-1,7-0.6,7.7-3.2
			c0.5-1.8-2.6-4.6-4.2-7c-16.8-25.8-39-45.1-67.2-57.6c0,0.1-0.4-0.3-0.4-0.8h6c13.4,6.7,25.5,15.4,37.1,25
			c11.8,9.8,20.3,22.4,29.1,34.7c0.8,1.1,1.5,2.2,2.2,3.4c1,1.8,2.2,2.3,4.4,2.2c17.2-0.9,31,5.5,41.4,19.4
			c9.4,12.5,13.8,26.2,11.3,42c-0.9,5.4-1.7,10.8-2.7,16.2c-2.7,13.6-10.8,23.7-20.7,32.7c-3,2.7-3.9,11.9-1.7,15.2
			c0.5,0.6,1.3,1.1,2.1,1.2c7.7,2.4,15.4,4.1,23.4,1.2c1.2-0.4,2.5-0.8,3.8-1c0.9-0.2,2.1-0.5,2.6,0.7c0.5,1.1-0.4,1.8-1.2,2.4
			c-6.7,5-14.8,7.7-23.2,7.9c-6.8,0.3-6.9,0.2-5.5,6.5c7.5,35,14.9,69.9,24.9,104.3c20.5,70.5,48.8,137.7,85.7,201.3
			c12.8,22.1,28.5,42.1,45.1,61.4c16.5,19.2,35.5,35.6,54.5,52c38.8,33.4,65.3,74.4,77.2,124.5c2.2,9.2,3.4,18.6,3.5,28.1
			c0.2,16.8-0.3,33.6-3.1,50.2c-1.2,7-3.9,13.2-9.7,17.9c-5.9,4.9-11.9,9.6-18.2,14c-1.1,0.8-2.4,2.6-3.8,1.4
			c-1.6-1.4,0.1-3.1,0.8-4.5c3.5-6.8,6.4-13.8,8.6-21.1c1.6-5.6,2-11.4,2.2-17.2c1.4-33.8-5.8-65.6-22.2-95.2
			c-5-9-9.7-18.2-15.4-26.7c-0.7-1-1-2.6-2.7-2.4c0.1-0.9,0.3-1.8-0.7-2.3c-0.4,0-0.4-0.1-0.1-0.3l0.1,0.3c0.2,0.7,0.5,1.5,0.7,2.2
			c11.3,23.1,21.3,46.8,26,72.2c2.4,13.3,3,26.8,1.7,40.3c-1.3,13.2-2.8,26.4-6.3,39.2c-2.6,9.5-6.6,18.4-10.8,27.2
			c-0.9,1.8-1.5,4.7-4.4,1.7c-1.1-1.2-1.8,0.1-2.4,0.6c-1.9,1.6-3.7,3.4-5.5,5c-7.1,6.5-14.9,12.3-23.3,17.1
			c-9,5.1-16.8,11.9-24.9,18.3c-1,0.8-2.1,1.6-3.2,2.4c-0.5,0.5-1.2,0.5-1.8,0.1l0,0c-0.5-0.4-0.6-1.2-0.2-1.7l0,0
			c0.7-1,1.3-1.9,2-2.9c5.2-7.1,9.9-14.5,14.4-22.1c8.6-14.5,12.8-31.2,12.1-48.1c-0.8-25.4-6.8-50.4-17.7-73.4
			c-15.9-34-37.5-64.2-60.1-93.8c-0.6-0.8-1.1-2.1-2.6-1.9l-0.8-2.4c-0.4,0.1-0.4,0-0.1-0.3l0.1,0.3c0.3,0.8,0.5,1.5,0.8,2.3
			c11.1,20.6,22.3,41.2,30.8,63.1c8.5,21.8,14.8,44.4,17.2,67.7c2.1,19.6-0.3,39.4-7.1,57.9c-4.3,11.5-12.5,20.7-20.1,30.2
			c-0.9,1.2-1.8,2.4-2.8,3.5c-0.8,0.9-1.4,2.8-3,1.8c-1.7-1.1-0.2-2.3,0.5-3.3c3.8-5.2,5.9-11.1,7.6-17.2c3.4-11.9,2.6-24,1.3-36.1
			c-0.1-1.5-0.4-3-0.8-4.4c-0.5,3.7-0.1,7.3,0,11c0.4,10.2,0.1,20.3-2.4,30.2c-2.4,9.8-2.6,9.8-11.3,4.7c-7.3-4.2-14.6-3.7-21.9,0
			c-4.7,2.3-5.3,2.3-5.8-2.7c-1.9-16.7-8.1-32-14.2-47.5c-0.3-0.8-1-2.1-1.2-2c-1.1,0.3-0.6,1.5-1,2.3c-1.2,2.2-2.7,4.2-4.3,6.1
			c-4.5,4.9-4.5,4.9,1.3,7.7c1.3,0.6,2.7,1.3,3.9,2.1c7,4.2,8.1,6.9,5.8,14.8c-2.1,7.1-4.1,14.4-6.7,21.3c-1.3,3.5-0.5,5.4,2.1,7.5
			c10.5,8.8,19.1,19.4,26.7,30.9c8.2,12.4,12.7,26.1,14.7,40.8c0.2,1.3,0.9,2.7,0.7,3.9c-2.4,15.5,5.6,28.6,9.4,42.7
			c0.9,3.3,1.9,6.7,2.8,10h-3c-1.6-7.6-3.7-15.1-6.5-22.3c-9.7-25.8-25-48.2-43.2-68.8c-7.3-8.2-14.6-16.4-22.6-24
			c-1.6-1.4-2.9-3.2-3.8-5.2c-3.4-8.9-10.6-14.7-16.5-21.6c-1.2-1.4-4.1-2.5-2.9-4.4c0.6-0.9,2.8,2,4.1,3.3
			c3.3,3.3,6.3,6.8,9.4,10.3c1.3,1.4,2,1.5,2.4-0.6c0.8-4.4,0.9-9,0.3-13.4c-0.5-2.7-2-5-4.2-6.6c-2.5-1.9-5.2-3.6-8-5
			c-4.4-2.1-8.7-4.3-12.3-7.5c-1.6-1.4-3.2-1.9-5.3-0.7c-2.4,1.2-4.8,2.2-7.3,3.1c-0.6,0.2-1.1,0.6-1.6,0.9c0.5,0.4,1.1,0.7,1.7,1
			c3.6,1.3,7.2,2.5,10.7,4c1.2,0.5,3.7,0.6,3.2,2.3c-0.7,2-2.6,0.3-3.8-0.1c-4.6-1.5-9.1-3.1-13.5-4.8c-17.8-6.8-36.5-11-55.6-12.5
			c-14.1-1.2-28.3-1-42.4,0.6c-31.5,3.7-61.6,12.4-91,24.1c-8,3.2-15.6,7.5-23.2,11.5c-1.3,0.7-2.6,1.4-4,2.1
			c-1.1,0.6-2.3,1.1-3.2,0.2c-1.1-1.1,0.1-2.1,0.7-3c0.4-0.5,0.8-1,1.2-1.6c0.7-1.9-0.5-3.6-2.5-3c-3.8,1.1-7.6,2.3-10.7,5
			c-1.7,1.4-2.6,3.6-2.4,5.8c0,8.5-0.4,17,0.8,25.4c0.3,2.2,0.8,4.5-0.3,6.7c-2.3-1.7-1.5-4.2-1.6-6.4c-0.1-3.2-0.5-6.3-0.9-9.4
			c-0.2-1.3-0.5-2.2-2.1-2.2c-10.3-0.1-19.9-4-29.3-7.3c-13.2-4.7-25.2-3.7-37.3,2.9c-20,10.9-39.9,21.9-57.7,36.3
			c-7.3,5.9-15.3,10.6-23.4,15.3c-0.6,0.4-1.5,1.3-2.1,0.3c-0.5-0.9,0.6-1.3,1.3-1.7c8.6-5.3,17.3-10.5,25.3-16.8
			c2.5-2,5-3.9,7.5-5.9c0.6-0.5,1.6-1,1.4-1.9s-1.3-0.9-2.1-1c-20.5-1.6-40.1-7.3-59.3-14.2c-9.2-3.3-17.9-2.3-26.8-0.4
			c-25.7,5.2-49,16.2-71.6,29c-8.1,4.5-15.9,9.6-23.4,15.1c-2.1,1.6-2,2.5-0.1,4c2.9,2.3,6.2,2.3,9.5,1.9c8.8-1,17.7-0.2,26.4-1.6
			c1-0.1,2-0.1,3,0c0.8,0,2.1-0.2,2.2,0.6c0.1,1.3-1.3,1.4-2.2,1.4c-9-0.1-17.9,1.5-26.9,1.2c-7.8-0.2-15.7-0.3-23.1,2.5
			c-1.3,0.5-3.6,0.1-3.6,1.9c0,0.9,2.3,0.3,3.5,0.6c8.9,1.5,17.9,1.2,26.9,0.3c8.8-0.9,17.2,1.1,25.6,3.1
			c21.2,5.3,42.3,11.1,63.6,15.9c13.8,3.1,27.7,3.2,41.6,1.9c4-0.4,8-0.3,11.9-1.2c0.7-0.2,1.8-0.3,2,0.8c0.1,0.7-0.7,1.1-1.4,1.1
			c-12.8,1-25.5,3.3-38.3,1.7c-25.2-3.2-49.5-10.9-74-17c-10.6-2.7-21.3-5.7-32.4-4.4c-8.3,0.9-16.6,0.9-24.9-0.1
			c-2-0.2-3.9-0.7-5.9-1.1c-0.9-0.1-1.7-0.6-1.7-1.5c-0.1-0.9,0.7-1.5,1.5-1.8c4.3-1.9,8.7-3.2,13.3-3.9c0.7-0.1,1.8,0.4,2-0.8
			c0-0.5-0.6-1.2-1-1.6c-1.1-1-1.7-2.4-3.6-2.4c-11,0-21.9-0.5-32.9,1.4c-10.5,1.8-18.1,7.7-24.6,15.7c-4.3,5.7-8.4,11.6-12.1,17.7
			c0.3,0.2,0.1,0.4-0.1,0.2c-0.3-0.6-0.2,0.3,0.2-0.2c1.2,0.2,2.3,0,3.4-0.4c2.2-0.7,4.6-0.9,6.9-0.6c4.3,0.2,8.7-0.2,12.9-1
			c12.9-3.7,24.6-1.6,34.8,7.4c9.4,8.2,18.5,16.8,27.1,25.8h-3c-8.6-8.6-17.6-16.8-26.5-25c-7.8-7.2-25-10.4-35.5-4.3
			c-2.3,1.4-5.1,1.6-7.6,0.4c-6.3-2.7-12.1-0.6-16.5,3.7c-6.7,6.6-14,12.9-18.7,21.3c-0.2,0.4-0.5,0.8-0.9,1.2
			c-0.4,0.5-0.9,1.1-1.6,0.5s0.1-1.2,0.4-1.7c1.3-2.1,2.8-4.1,4.2-6.2c0.7-1.1,0.6-1.7-0.9-1.9c-4.1-0.5-10.7,2.4-12.2,6.2
			c-1.5,3.7-3.3,3.8-6.8,2.6c-8.5-2.9-16.9-2.7-24.4,3.2h-4c3.2-4.4,8.1-6.1,13.1-7c5.3-1,10.7-0.7,15.8,0.9c1,0.3,2.6,1.8,3.4-0.3
			c2.8-6.9,9.3-7.5,15.2-8.5c2.8-0.3,5.4-1.6,7.3-3.6c5.4-5.7,10.6-11.5,14.5-18.4c3.5-5.9,7.5-11.4,12-16.6
			c7.7-9.3,17.9-13.5,29.5-14.6c9.6-0.9,19.2-2.1,28.8-0.3c2.4,0.5,3.6-1.5,5.1-2.6c24.7-17.1,51-30.8,79.8-39.7
			c8.1-2.3,16.4-4.1,24.7-5.4c5.9-1,11.5,0.3,17.1,2.1c12.7,4.2,25.4,8.7,38.6,11.1c7.3,1.4,14.7,2.4,22.1,3.5
			c2.6,0.4,5.3-0.2,7.5-1.8c8.1-5.2,16.4-10.1,24.7-14.9c2.2-1.1,3.8-3.2,4.3-5.6c5.1-23.6,10.2-47.2,15.3-70.8
			c1.3-5.8,2.4-11.7,3.6-17.5c0.5-2.2,1-4.2-1.5-5.7c-0.9-0.5-1.4-1.4-1.6-2.4c-0.1-4.1-2-7.5-3.3-11.1c-0.5-1.7-1.3-3.3-2.2-4.9
			c-2.6-4.1-5.1-8.2-7.8-12.2c-3-4.4-2.4-8.7,0.2-13.1c2.5-4.3,5.1-8.7,8.6-12.2c2.5-2.4,1.1-6.2,3.7-8.4c0.5-0.4-0.8-1.7-1.4-2.5
			c-2.8-3.9-5.5-7.9-8.4-11.8c-4.6-6.1-4.6-12.4-0.1-18.3c3.2-4.2,3.3-7.9,1.4-12.8c-4.3-11.2-5.5-23.4-3.5-35.3
			c0.5-2.6,0.5-5.3,0.1-7.9l0.3,0.1h-0.2c-8.4,2.4-15.9,6.7-22.8,11.9c-3.8,2.9-6.1,6.9-8.2,11.2c-0.7,1.5-0.8,4.4-3.1,3.9
			c-2.2-0.5-1.8-3.3-1.8-5.2c-0.2-7.8-0.3-15.7-0.3-23.5c0.1-33.8,11.9-63.9,29-92.4c7.1-12,14.9-23.6,23.4-34.7
			c3.6-4.6,3.8-10.9,5.7-16.3c0.4-1.2-0.7-1.7-1.5-2.3c-2.2-1.5-4.3-3.2-6.5-4.6c-15.1-10.1-14-32.4,0.5-42.4
			c3.3-2.3,6.6-4.4,10.2-6.3c2.2-1.1,2.6-2.6,2.4-4.8c-1.4-17.7-4.2-35.3-8.2-52.5c-0.5-2.6-1.9-4.9-4-6.6
			c-8.5-6.8-16.2-14.3-22.1-23.6c-1.7-2.7-4.4-4.5-7.2-6.1c-4.1-2.3-7.8-5.1-11.2-8.3c-6.9-7-14.8-12.8-22.8-18.6
			c-15.1-10.9-25.4-24.9-28.7-43.8c-1.8-10.5-6.4-20.2-11.2-29.7c-3.7-7.4-7-15-8.6-23.2c-2.5-13-2.4-26.2-1.5-39.3
			c0.5-7.3,1-14.6,1.3-21.9c1.7-39.7,14.6-74.9,40.1-105.5c9.1-11.1,19.4-21.1,30.7-29.8c9.6-7.3,18.2-15.6,27.1-23.7
			c7.3-6.6,15.1-12.5,24.5-16c1-0.4,2.3-0.4,2.9-1.7h8.1V1z M431,324c0.2-0.5,0.4-1,1.1-1.1l0.9-1.1l1.2-0.7c0.6-0.6,1.1-1.5,2-1
			c1.1,0.5,0.5,1.4,0,2c-3.4,4.3-8,6.9-13.1,8.5c-1.8,0.6-4.6,2.9-5.6,0.6c-0.8-1.7,3.1-1.4,4.5-3.2c-2.1-0.4-4-0.7-5.9-1
			c-6-1-6.4-1.5-6.5-7.7c0-0.7-0.2-1.3-0.6-1.8c-1-0.9-1.4,0.3-1.8,0.8c-1.7,2.4-3.1,1.8-4.5-0.3c-3.6-5.7-7.4-11.4-9.8-17.8
			c-4-10.8-1.5-20.3,7.1-27.3c0.3,0,0.6,0.1,0.9,0c0.6-0.1,1.2-0.2,1.8-0.4c-0.6-0.8-1.4-0.5-2.1-0.3c-0.2,0.1-0.3,0.4-0.5,0.7
			c-5.6,0.5-9.2,4.3-12.8,7.9c-5.5,5.5-7.6,12.7-9,20.1c-0.4,1.8-0.3,2.9-3,2.3c-4.1-0.9-7.7,1.2-11.1,3.3c-1.9,1.2-1.9,2.2-0.6,4
			c3.9,5.4,8,10.6,12.5,15.5c9,9.4,17,19.5,22.6,31.4c2.5,5.2,5.6,10.2,9.2,14.8c8.2,10.7,18.1,19.4,30.2,25.5
			c2.6,1.3,4.1,1,5.8-1.3c3.6-4.6,7.7-8.7,12.3-12.4c2.4-2.1,5.2-3.6,8.3-4.3c11.7-2.6,22,1.1,31.3,7.9
			c12.4,9.1,25.3,17.1,39.8,22.2c1.7,0.6,3,1.1,4.7,0.1c9.1-5.3,18-10.8,24.8-19c7.5-9.1,14.5-18.7,20.7-28.7
			c11.1-17.7,18.8-36.9,26.3-56.2c1.7-4.3,4.1-6.7,8.4-8.2c6.8-2.1,13.2-5.5,18.7-10.1c9-7.6,17.2-16.2,18.6-28.5
			c1.2-10.1,0.4-20.3-2.4-30.1c-1.9-6.4-6.1-12-11.8-15.5c-7.2-4.7-13.1-3.7-18.2,3.1c-4.6,6-8.2,12.5-8.3,20.4
			c-0.1,2-0.4,4-0.7,5.9c-0.1,0.8-0.2,1.7-1.4,1.7c-0.7-0.1-1.2-0.6-1.4-1.3c-0.6-2.2-1.1-4.5-1.6-6.8
			c-4.7-21.8-11.8-42.4-27.4-59.3c-9.5-10.3-17.5-22-29-30.1c-16.9-11.9-33-24.8-49.5-37.1c-8.2-6.1-18-9.6-28.1-10
			c-2.4-0.2-3.1,0.7-2.7,2.8c0.6,3.3,1.3,6.5,1.9,9.7c3.4,18.8,8.5,37.1,17.1,54.3c5.7,11.4,12.3,21.7,23.7,28.1
			c0.8,0.4,2.2,1.1,1.7,2.1c-0.6,1.2-1.9,0.6-3.1,0.1c-6.8-2.7-13-6.6-19-10.8c-12.4-8.7-21.5-19.7-25.8-34.4
			c-0.2-1.2-0.7-2.3-1.6-3.1c-0.5,5.6,0.3,11,0.8,16.4c1.2,13.7,3.5,27,11.9,38.4c0.6,0.9,2,1.9,0.7,2.9c-1.1,0.9-2.1-0.3-3-1
			c-5.1-3.7-8.7-8.6-11.8-14c-2.9-5.2-5.4-10.7-7.4-16.3c-0.2-0.4-0.5-1.1-0.8-1.1c-0.6,0-0.4,0.7-0.3,1.1c0.5,10.5,0.2,21,2.4,31.3
			c1.4,6.3,3,12.6,4.9,18.7c0.9,2.8,0.1,3.6-2.5,3.8c-1,0.1-2,0.3-2.9,0.5c-6.2,1-12.2,3.1-17.8,6.1c-3.5,2-6.1,5.1-8.2,8.5
			c-0.4,0.7,0.4,2.3-0.7,2.7c-1.4,0.5-1.8-1.1-2.6-1.8c-0.6-0.6-0.9-1.4-1.8-1.6c-0.1-1.4-0.6-2.5-2.2-2.7c0.2-0.8-0.1-1.7-0.6-2.3
			l-0.4-0.1h0.5c0,0.8-0.2,1.7,0.6,2.3c0.5,1.1,0.8,2.4,2.1,2.8c-0.6,1.2,1.9,2.5,0.1,3.5c-1.6,0.9-2.3-0.9-3.1-1.7
			c-2.1-1.9-4.1-3.9-6-6c-6.6-7.4-10.7-16.2-13.6-26.2c-0.3,2-0.3,4,0.2,6c1.8,9.1,4.9,17.9,8.2,26.5c0.5,1.2,1,2.5,1.3,3.7
			c0.3,0.6,0,1.4-0.6,1.7c-0.3,0.1-1-0.2-1.3-0.5c-0.7-0.7-1.4-1.5-2-2.3c-10.8-13.8-18.4-29.1-21.3-46.5c-0.1-0.7,0.4-1.6-0.7-1.9
			c-0.2,0.6-0.3,1.3-0.3,1.9c0.7,15.6,0.5,31.3,8,45.7c0.5,0.9,1.6,2.2,0.2,3.1c-1.3,0.9-2.1-0.5-2.8-1.4
			c-5.9-7-11.4-14.3-15.1-22.8c-1.3-2.9-2.4-5.9-3.6-8.9c0.1,3.7,0.4,7.3,1,10.9c1.4,10,3.5,19.9,6.5,29.5c0.3,1,1.4,2.4-0.1,3.1
			c-1.4,0.6-1.8-1-2.4-1.8c-6.2-8.4-9.4-18.2-12.7-27.9c-1-2.9-0.9-6.1-3.1-8.5c0-0.6,0-1.3,0-1.9c-0.1-0.6,0.5-1.4-0.4-1.8
			c-0.1,0.6-0.1,1.2-0.1,1.8c0.1,0.6,0.3,1.2,0.6,1.8c0.3,5,0.9,9.9,1.9,14.8c1.3,7.5,2.8,15,4.3,22.5c0.2,1.1,1,2.9-0.8,3.4
			c-1.5,0.4-1.7-1.4-2.1-2.3c-2-4.6-4.3-9-6.7-13.3c-6.8-12.1-10.4-25.4-13.4-38.9c-2-9-2-18.2-2.1-28.5
			c-2.2,11.1-3.3,22.5-3.3,33.8c-0.1,20.3,0.2,40.6,3.7,60.7c1.6,9.3,4.1,18.4,8.8,26.8c1.1,2,1.8,2.4,3.2,0.2c1.8-3,4-5.7,5.7-8.7
			c3.8-6.4,7.3-13.1,12.3-18.7c13.3-15,32.6-15.8,49.4-8.7c0.6,0.3,1.2,0.7,1.2,1.4c0,0.8-0.8,1.5-1.6,1.4h-0.1
			c-1.7,0-3.3-0.2-5-0.2c-0.9,0-2.1-0.9-2.6,0.2c-0.3,0.8,0.9,1.2,1.6,1.7c3.3,2.8,6.4,5.9,9.3,9.1c0.7,0.7,2.2,1.6,1,2.8
			c-1.1,1.2-2.1-0.1-3-0.7c-2.8-1.7-4.8-4.5-8.5-4.6c0.2-0.4,0.1-0.8-0.3-1c-0.1,0-0.1-0.1-0.2-0.1c-0.5-0.2-0.9-1.1-1.7-0.5
			c0.4,0.4,0.9,0.8,1.3,1.2c0.3,0.2,0.6,0.3,0.9,0.4c7.7,6.5,13.1,15.2,15.4,24.9c1.2,4.8,0.9,9.9-0.8,14.6c-0.6,1.5-2,2.8-1.2,4.6
			c-0.5-0.2-1,0-1.2,0.5c0,0.1,0,0.1-0.1,0.2l-1,1C432,323.5,431.5,323.9,431,324c0,0.4-0.3,0.5-0.3,0.1
			C430.7,323.4,430.3,324.2,431,324z M585.3,428.7c-0.3,0.7,0.1,1.1,0.6,1.4l2,1c0.5,0.7,1.4,1,2.2,0.8c5.8,4.9,12.7,8.1,19,12.3
			c7.7,5.2,16,9.4,24.7,12.7c0.9,0.3,2.2,1.8,3,0.2c0.7-1.5,0.1-2.9-1.6-3.6c-2-0.8-4-1.6-6-2.4c-10.6-4.2-21.2-8.5-30.7-15
			c-2.6-1.7-5.2-3.5-8.4-4.2c-0.5-1.1-1.3-1.1-2.3-0.8c-0.1-1.6-1.1-1.1-2-1C586.1,429.4,585.7,429,585.3,428.7l-2.3-0.8
			c-0.5-0.6-1.2-0.9-2-1c-0.3-1.3-0.2-2.6,1.6-2c1.4,0.5,2.5,1.1,4.1-0.1c10.8-8.1,21.2-16.5,28.8-28.1
			c12.2-18.7,17.8-39.8,22.6-61.2c2.6-11.9,3.5-24,3.8-36.1c0-0.7-0.2-1.8,0.9-1.8c0.5,0,0.5,1.1,0.5,1.8c0.1,8.5,0.1,17-1.3,25.4
			c-2.6,15.4-6.4,30.5-11.3,45.3c-0.8,2-0.9,4.2-0.4,6.3c3.6,13.8,3.5,28,4.8,42c1.4,14.9,2.8,29.8,5.4,44.5
			c5.3,30.7,11.4,61.2,17.6,91.7c8.5,41.9,23.1,81.2,45.8,117.4c6.8,10.9,13.8,21.8,20.4,32.9c15.6,26.1,30,52.8,44.3,79.6
			c7.9,14.8,14.6,30.1,21.4,45.4c7.5,16.8,14.1,34,16.8,52.3c0.4,2.6,1.1,3,3.7,1.9c7.5-3.3,15.1-3.5,22.5,0.7
			c6.3,3.6,6.5,3.5,8.1-3.6c0.1-0.3,0-0.7,0.1-1c3.6-18.9,2.2-37.7-1.6-56.4c-0.4-1.3-0.5-2.6-0.4-3.9c0.2-1.4,1.1-1.5,2.1-0.7
			c0.8,0.7,0.9,1.7,1.4,2.6c5.2,11.5,7.2,23.7,7.7,36.3c0.4,9.9-0.8,19.8-3.7,29.3c4.6-4.8,8.5-10.4,11.3-16.4
			c9.3-21,11.9-43.1,8.9-65.7c-2.6-20.6-7.8-40.7-15.6-59.9c-15.5-37.8-34-74.1-58-107.5c-19.2-26.6-36.6-54.2-47.7-85.4
			c-3.1-8.6-6.3-17.1-9.4-25.7c-0.3-0.9-1.8-2.4-0.1-2.9c1.5-0.5,1.4,1.6,1.8,2.5c1.3,3.2,2.3,6.6,3.5,9.8
			c7.2,19.3,14.1,38.7,24.7,56.4c14.7,24.5,30.1,48.4,48.3,70.5c13.4,16.3,25.9,33.4,38.1,50.6c15.4,21.9,28.6,45.3,39.2,69.8
			c7.3,16.6,10.4,34.1,12.6,51.9c1.5,12.2,1,24.6-1.7,36.7c-2.8,13.2-9.7,24.6-16.7,35.9c-1,1.6-2.7,3-2.6,5.2
			c-0.2,0.3-0.3,0.2-0.3-0.1l0.2,0.1c4.9-4.5,10.2-8.5,16-11.9c12-6.7,22.5-15.3,32.5-24.6c1-0.9,1.8-2.2,3.3-1.9
			c2.5,0.5,3.1-1.2,3.9-2.8c3.1-6.8,5.9-13.7,8.1-20.8c3.2-11.3,5.3-22.9,6.2-34.7c1.6-18.1,1.5-36.1-2.8-54
			c-8.6-35.7-25.2-67.9-44.5-98.7c-7.3-11.3-15.8-21.9-25.3-31.5c-22.9-23.7-43.8-49.2-64.2-75.1c-28.6-36.5-49-77.2-64.3-120.8
			c-0.3-0.9-1.7-2.5-0.4-3.1c1.9-0.8,1.3,1.7,2.1,2.5c0.3,0.3,0.3,0.9,0.4,1.4c13.8,37.5,29.9,73.8,54.2,106
			c16.1,21.2,31.9,42.6,49.9,62.3c9.3,10.2,19,20.1,28,30.6c14.7,17.2,28.5,35.2,41.3,53.8c13.1,18.8,24.1,38.9,32.8,60.1
			c7.7,19.2,10.8,39.2,11.7,59.7c0.4,9.5,0.2,19-2,28.3c-1.6,6.4-3.9,12.7-6.8,18.6c-0.4,0.8-1.4,1.7-0.6,2.6
			c0.2,0.2,1.6-0.8,2.4-1.3c2.4-1.8,4.9-3.5,7.2-5.4c6.8-5.5,13.1-11.4,14.2-20.8c0.6-4.8,1.1-9.6,1.5-14.4
			c1.4-17.1,2.6-34.1-0.1-51.2c-3.8-23.6-11.6-46.4-23.1-67.3c-16.5-30.2-39.2-55.2-65.9-76.7c-22.5-18.2-42-39.3-59.9-62
			c-8-10.2-15.4-20.9-22.7-31.6c-7.3-10.6-12.9-22.2-21.1-32.4c-7.9-9.9-13.5-21.6-19.7-32.8c-42.9-78-67.4-161.8-79.5-249.6
			c-0.1-0.8-0.4-1.9,0.6-2.1c1-0.2,1.2,0.8,1.3,1.7c1,6.2,2,12.4,2.9,18.7c4.4,30.5,10.8,60.7,19.1,90.3
			c16.2,56.6,38.6,110.5,69,160.9c0.8,1.3,1,3.3,3.2,3.3c-0.3,0.9-0.6,1.9,0.9,2.1c-0.2,0.8,0,1.7,0.7,2.3l0.4,0.2l-0.5-0.1
			c0.1-0.8-0.1-1.7-0.7-2.3c-0.3-0.7-0.6-1.4-0.8-2.1c-4.9-9.2-9.5-18.6-13.9-28c-17.6-37.5-33.6-75.7-46.4-115.1
			c-14.5-44.6-24.6-90.3-34-136.2c-0.6-2.7-1.6-3.9-4.2-4.6c-6.9-1.8-13.3-5.3-18.8-10c-1.1-1-2.3-1.9-3.6-2.7
			c-1.8-1.3-7.1-1.4-8.5,0c-1.6,1.7-0.7,3.7-0.3,5.6c0.2,1.1,0.4,2.3,0.5,3.4c0.7,8,4.6,13.6,12.2,16.7c3.7,1.5,7.5,2.5,11.3,3.8
			c0.8,0.3,1.7,0.4,1.4,1.6c-0.2,0.8-1,0.7-1.7,0.7c-4.5,0.5-9-0.5-13.4-1.1c-11.4-1.5-20.4-6.7-25.1-17.8c-1.3-2.7-2.2-5.5-2.8-8.4
			c-0.1-0.6-0.1-1.5-0.9-1.5c-0.8-0.1-1,0.7-1.3,1.3c-2.1,4.1-4.2,8.3-7,12c-0.8,1-1.1,1.9,0.9,2.3C648.4,211,655,219,658,230.2
			c2.3,8.4,2.4,17,2.2,25.7c-0.2,7.4-2.7,14.5-7.1,20.3c-7.8,11.1-19,19.4-31.9,23.6c-3.9,1.3-5.7,3.6-7.2,7.3
			c-9.8,24.9-20.4,49.4-36.4,71.1c-8.2,11.2-16.6,22-28.9,29.2c-2.3,1.4-5.1,2.3-6.6,4.8c2.8,1,5.6,2.1,8.4,3.1
			c1.6,0.6,2.9-0.1,4.1-1.1c1.4-1.2,2.8-2.3,4.2-3.5c10.3-8.7,20.8-17.2,29-28.1c12.8-17,20.2-36.4,25.1-56.9
			c1.2-5.1,2.1-10.4,3.1-15.6c0.1-0.6,0.1-1.5,1-1.4c1.2,0.1,1,1,0.8,1.8c-1.2,6-2.2,12.1-3.7,18c-7.4,28.5-19.3,54.5-42.7,73.7
			c-5.3,4.3-10.4,8.9-15.6,13.3c-0.8,0.7-2.4,1.4,0,2.1c8.6,2.4,16.8,5.9,25.2,8.9c0.2,1.2,1.3,0.8,2,1
			C583.3,429.3,584.5,428.6,585.3,428.7z M448.2,426.8c-0.3-0.1-0.5-0.3-0.8-0.4c-0.1,0-0.2,0.1-0.3,0.2c0.4,0,0.8,0.1,1.2,0.1
			c1.4,3.3,4.9,4.1,7.4,6.1c6.3,5.2,7.3,11.6,2.2,18.1c-0.4,0.5-1.3,0.9-0.8,1.6c0.3,0.4,1.2,0.3,1.8,0.3c3.5,0,7-0.1,10.5-0.1
			c0.7,0,1.7,0,1.8,0.5c0.1,1.1-1.1,0.8-1.8,0.8c-6.7,0.1-13.4,0-19.9,1c-4.2,0.7-8.7,0.1-12.7,2.1c-4.9,2.4-9.6,5.4-13.9,8.7
			c-9,7.1-11.1,22.7-3.8,31.5c4.2,5.2,9.7,9.2,16,11.5c7,2.7,13.9,5.5,18.4,12.1c1.2,1.8,1.4,5.4,3,5.2c1.9-0.2,2.7-3.5,3.9-5.4
			c0.2-0.3,0.4-0.6,0.6-0.8c0.8-0.6,0.7-2.8,2.3-1.7c0.8,0.6-0.3,1.7-0.8,2.5c-6.3,10.6-12.4,21.2-24.4,26.6
			c-0.6,0.3-1.1,0.7-1.7,1.1c-6.4,3.4-6,11.9,0.4,15.2c5.3,2.8,10.4,5.9,15.3,9.3c5.2,3.4,5.3,5.6,1,10.4c-3.9,4.4-3.8,5.1,1.6,7.7
			c0.7,0.4,1.5,0.6,2.3,1c2.6,1.4,3.6,0.4,3.8-2.3c1-12.6,2-25.2,3-37.8c1.3-16.8,0.8-33.6,1.1-50.4c0.2-13.7,1.6-27.2,7.4-39.8
			c7.1-15.3,14.3-30.5,29.6-39.7c0.9-0.5,1.9-1.1,1.8-2.2c-0.2-3.7,1.4-7.1,0.6-10.9c-3.3-16.1-12-24.2-28.3-27.2
			c-5.3-1-10.5-1.2-14.9,1.8c-11.3,7.5-20.7,16.7-22.8,31.1c-0.7,4.6,0.4,6.5,5,8.2c7.9,2.9,15.8,5.9,23.7,8.8
			c0.8,0.3,2,0.5,1.7,1.4c-0.5,1.5-1.6,0.4-2.4,0.1C460.4,431.2,454.3,429,448.2,426.8L448.2,426.8z M503,425.1
			c-6.4,2.6-10.9,7.4-14.8,12.8c-13.6,19.4-21.3,40.6-21.1,64.6c0.1,20.1,0.1,40.3-1.9,60.4c-1.3,13.2-2.1,26.5-3.4,39.7
			c-1.4,15.4-3.6,30.6-6.6,45.8c-0.2,1.1-0.7,2.6,0.3,3.2c1.2,0.7,2-0.8,2.8-1.5c7.8-7.1,14.5-15.1,21.4-23
			c15.2-17.4,29.4-35.7,42.6-54.7c0.6-0.8,1.5-2.3,2-1.8c1.4,1-0.2,2-0.6,2.9c-0.2,0.3-0.3,0.6-0.6,0.8
			c-15.6,22.4-32.6,43.8-50.9,64.1c-4.4,5-8.8,10-14,14.3c-2.3,1.9-4.4,2.3-6.5,0c-2.6-2.9-4.3-6.3-5.8-9.8
			c-0.3-0.6-0.4-1.4,0.4-1.6c0.3-0.1,0.8,0.5,1.1,0.9c1.2,2.2,2.4,4.4,3.5,6.5c0.3,0.6,0.7,1.4,1.4,1.2c0.7-0.2,0.4-1.1,0.5-1.7
			c1.3-7.3,2.6-14.7,3.8-22c0.1-0.7,0.6-1.7-0.4-2.1c-0.4-0.1-1.1,0.6-1.6,1c-8.5,8.2-16.4,17-23.8,26.3c-3.3,4.1-4.7,9.4-3.8,14.5
			c0.3,2.6,0.7,5.3,1.3,7.9c3.1,12.3,2.8,24.7,2.4,37.2c0,1.4,0.1,3.8-1.4,3.7c-1.9-0.1-1-2.3-1-3.7c0.1-4.2,0.3-8.3,0.4-12.5
			c0-0.8,0.4-1.8-0.4-2.2c-0.9-0.5-1.4,0.6-1.9,1.2c-3.9,4.6-8.2,8.9-11.5,13.8c-7.3,10.8-6.1,11.9-0.3,21c2.3,3.6,5,7,7.5,10.5
			c0.9,1.2,2.1,2.6,0.9,4c-2.7,3.2-0.2,4.1,2,5.2c2.8,1.4,5.7,2.7,8.6,3.9c3.9,1.7,8.4,1.1,11.7-1.6c3.6-2.6,7.4-5.1,11.3-7.2
			c18.2-10.6,37.2-20,53.7-33.4c3.5-2.8,6.9-5.8,10.4-8.6c0.7-0.6,1.6-1.8,2.4-1c1,1.1-0.6,1.6-1.2,2.2c-9,7.9-18.5,15.2-28.6,21.7
			c-15.9,10-32.9,18.1-48.4,28.8c-3.5,2.4-7.5,2.3-11.5,1c-3.5-1.2-6.8-2.7-10-4.5c-1.5-0.8-2.3-0.7-3.3,0.6
			c-3.4,4.3-6.6,8.7-9.5,13.4c-2.2,3.8-2.4,7.5,0,11.2c3,4.6,5.9,9.3,8.9,13.8c1.2,1.8,0.5,5,2.3,5.7c1.9,0.7,3.5-2,5.5-2.7
			c19.7-6.2,39.4-11.7,60.4-11.2c8.2,0.2,15.8,1.7,23,5.3c1.1,0.6,2.1,1.5,3.6,0.5c3.5-2.3,7.7-3.1,11.4-4.9
			c4.1-1.9,7.2-4.7,8.2-9.4c0.9-4.1,1.4-8.2,1.5-12.3c0-0.6,0.3-1.4-0.5-1.7c-0.8-0.2-1.1,0.6-1.5,1.1c-2,2.7-4,5.3-6,7.9
			c-0.2,0.4-0.8,0.6-1.2,0.3l0,0c-0.6-0.4-0.3-0.9,0-1.3c1.6-2.2,3.1-4.3,4.7-6.4c5.2-6.5,8.7-14.2,10.5-22.3
			c2.3-11.2,0.4-22.6-0.2-33.9c-0.2-4-1-7.9-1.6-11.8c-0.1-0.5,0.4-1.3-0.5-1.4c-0.2,0-0.4,0.8-0.6,1.3c-0.3,0.8-0.5,1.6-0.7,2.4
			c-1.6,5.6-3.3,11.1-4.9,16.7c-0.2,0.7-0.4,1.3-1.3,1c-0.6-0.2-0.4-0.8-0.3-1.3c0.2-0.8,0.3-1.6,0.5-2.4
			c8.9-29.7,15.6-59.9,23.5-89.8c3.2-12.3,7.6-24.4,6.4-37.5c-0.2-2.5,0.9-5.2,1.5-7.8c1.2-5.3,0-9.9-3.9-13.7
			c-1.9-1.8-3.8-3.7-5.7-5.6c-2.1-2.2-3.5-4.9-4-7.9c-2-9.4,0.7-17.4,7.6-23.9c1.6-1.5,3.2-2.9,4.7-4.5c2.4-2.3,2.4-4.9,0.9-7.7
			c-1.5-3-4.1-5.3-7.2-6.5c-2.9-1.2-5.9-2.2-8.8-3.4c-3.6-1.5-6.5-4.3-7.9-8c-3.8-9.1-3.5-17.8,3.6-25.4c0.9-1,1.7-2,2.6-3.1
			c5.4-6.7,5.7-13.6-4.5-18.1c-6.8-3-13.9-3.1-20.9-4.1C508.8,442.6,503,436.3,503,425.1l0.2-0.3L503,425.1z M693.3,780.1
			c0.2,1.9,0.4,3.4,0.4,4.9c0.1,0.7-0.4,1.3-1.1,1.4c-0.7,0-1.1-0.7-1.2-1.3c-0.2-1.3-0.3-2.6-0.4-4c-0.3-6.9,1.1-13.6,2.2-20.3
			c4.2-23.8,9.3-47.4,14.4-71.1c0.9-3.2,0.3-6.6-1.6-9.4c-3.1-4.5-5.6-9.4-8.4-14.1c-19-31.5-31.8-65.4-39.8-101.3
			c-7.5-33.6-13.7-67.5-19.7-101.4c-0.5-2.9-1.8-3.8-4.1-4.7c-9.2-3.5-17.9-7.9-26.1-13.3c-8.2-5.3-16.6-10.4-25.2-15.2
			c-7.4-4-15.3-7.2-23.5-9.4c-0.6-0.2-1.7-0.5-1.8-0.4c-0.5,0.9,0.5,1.4,1,1.9c1.1,1.3,2.3,2.4,3.4,3.7c6.2,6.7,10.9,14.1,13.3,23
			c6.5,24,10.4,48.3,9.9,73.3c-0.4,8.5,0.5,16.9,2.6,25.2c1.8,6.5,0.3,12.6-5.4,17c-1,0.8-1.9,1.9-3,2.6c-4.8,3.2-6.8,7.8-5.9,13.3
			c1,6.2-1.3,10.8-6.3,14.1c-2.4,1.6-3.3,3.9-3.9,6.5c-6.5,25.7-13.2,51.3-19.6,76.9c-0.8,3.3-2.7,6.7-2.1,10.1
			c1.7,9.8,2.6,19.7,3.3,29.7c0.9,12.6,0.8,25-5.6,36.4c-0.8,1.5-1.1,3.1-1,4.8c0.1,4.5-0.2,9-0.8,13.4c-0.9,7-4.3,11.7-10.7,14.4
			c-2.7,1.2-5.6,2.2-8.3,3.2c-2.2,0.8-4,2.4-3.9,4.7c0.2,5.1-2.3,8.1-6.5,10.2c-2.8,1.3-1.6,4.2-2.1,6.3c-0.6,2.2,2,2.1,3.3,2.9
			c4.5,2.6,8.8,1.4,13.2-0.7c23.5-11.1,47.2-21.9,70.6-33.3c16.8-8.1,33.9-15.1,52.1-19c6.2-1.3,12.3-2.7,18.4-4
			c1-0.2,2.8-0.8,2.9,0.4c0.2,1.2-1.6,1.3-2.8,1.5c-0.2,0-0.3,0-0.5,0c-11.2,2.4-22.3,4.8-33.3,7.9c-13.3,3.8-25.7,9.7-38,15.9
			c-0.6,0.3-1.4,0.4-1.3,1.2c0.1,1,1,0.7,1.6,0.7c4.8,0,9.6,0.8,14.5,0.5c15.8-0.9,31.6-0.6,47.2,2.5c10.6,2.1,21.2,3.7,31.8,5.8
			c7.8,1.5,14.5,0.5,19.2-6.8c2.1-3.2,3.8-6.6,5-10.2c1.5-4.8,0.2-7.3-4.1-9.6c-2.4-1.5-4.4-3.6-5.7-6.1c-0.6-1.2-1.3-2.3-2.1-3.4
			c-0.5-0.7-1.3-1.2-1.5,0.4C694.9,765.4,693.6,772.9,693.3,780.1z M717.8,861c4.9-1,9.6-2.7,14-5.1c1.5-0.8,0.6-1.6,0.1-2.4
			c-6.9-11.5-10.5-24.3-14.7-36.9c-0.5-1.9-1.5-3.7-3-5c-2.5-2.1-3.7-4.6-2.6-7.9c0.8-2.4-0.2-4.2-2.2-5.6c-1.5-1.1-3.1-1.9-4.6-3
			c-1.9-1.3-3.5-1.9-5.7-0.1c-2,1.5-4.6,2.1-7.1,1.7c-10.2-1.2-20.3-3.2-30.4-5.2c-17.4-3.4-34.8-5.1-52.5-3.8c-4,0.3-8,0.7-12,0
			c-7.2-1.4-14.7-0.3-21.2,3c-16.5,8.1-33.3,15.7-49.9,23.6c-6.3,3-12.5,5.6-19.3,1.7c-0.6-0.4-1.6-1-1.8,0.4
			c-1,5.3-3.8,10.7-2.6,16c3.1,13.7,2.7,28.2,9.6,40.9c0.2,0.4,0.5,1,0,1.3c-0.8,0.5-1.2-0.2-1.5-0.7c-1.8-2.8-3.1-5.8-4-9
			c-0.2-0.6-0.2-2.2-1.8-1.4c-2.5,1.2-4.6,5.7-3.8,8.4c1.2,4.1,3.5,7.8,5.1,11.8c1.1,2.8,1.4,3.3,4.1,1.8c19.1-10.9,39.7-18,60.8-24
			c23.9-6.8,48-12,72.8-12.2c21.1-0.2,42,2.1,62.4,8.3C710,858.7,713.9,859.8,717.8,861z M721.9,118.5c-0.4-2.5,0.2-6.2-0.6-9.9
			c-2.3-10-7.6-18.3-14.3-25.9c-8.8-10.1-20.2-13.9-33.4-13.8c-3,0-3.3,1.2-2.6,3.4c2.9,9.1,3.1,18.3,1.9,27.6
			c-1.5,11.8-6.9,20.9-17.7,26.6c-8.4,4.4-17.2,5.8-26.5,5.4c-0.8,0-2.3,0.5-2.4-0.8c0-1.3,1.5-1,2.4-1.1c5.3-0.3,10.7,0.2,15.9-1.3
			c10.6-3.1,19.9-8.2,23.9-19.1c4.7-12.7,4.2-25.7,0.3-38.7c-0.5-1.7-1.1-1.9-2.8-1.4c-4.3,1.3-8.6,2.6-12.8,4.1
			c-1.5,0.3-2.5,1.7-2.4,3.2c-0.1,4.5-2.9,8.4-7,10.1c-3.8,1.6-4.3,4.1-4.7,7.2c-0.5,5.7-4.5,10.4-10,11.9c-4.1,1.3-3.3,2.7-2.2,5.5
			c3.1,8,1.6,15.4-5.1,19.9c-4.6,3.1-5.6,6.4-4.3,11.2c0.2,1.1,0.3,2.3,0.3,3.5c0.4,22.1,19.7,38.9,35.6,41.3
			c4.4,0.7,8.6-0.3,12.9-0.6c9.8-0.8,19.4-3.5,27.2-8.6c10.3-6.6,19-15.8,23-28C720.4,140.1,722.1,129.4,721.9,118.5z M477,796.1
			c-15.1-0.3-28.4,3.8-41.8,7.7c-4.5,1.3-6.8,2.9-7.6,8.4c-2.6,16.3-6.4,32.4-9.9,48.6c-3,14.1-6.2,28.1-9.3,42.1
			c-0.2,0.8-0.5,1.9,0.2,2.3c0.4,0.3,1.5-0.4,2.2-0.8c4.9-2.7,10-5.1,15.3-7c5.9-2.1,11.7-3.2,18-1.8c9.4,2.1,18.4,5.4,27.6,7.9
			c4.2,1.1,4.3,1.3,5.7-3.1c3.7-11.5,7.7-22.9,11-34.5c5.9-20.6,14.2-40.7,15.7-62.4c0.3-4.4,0.4-4.8-4.3-5.4
			C491.9,797.1,484,795.8,477,796.1z M375.1,661.3c0.1,3.6-0.2,8.2,0.5,12.9c0.2,0.6,0.4,1.2,0.7,1.8c0.4-0.5,0.9-0.9,1.3-1.4
			c2-2.5,2.3-5.4,2.3-8.4c0.2-10.3,1.3-20.6,3.4-30.7c5.9-28.7,18.7-55.6,37.2-78.3c0.6-0.8,1.4-2.2,2.1-1.7c1.4,1-0.3,2-0.7,2.9
			c-0.3,0.6-0.7,1.1-1.2,1.6c-10.4,13-18.9,27.4-25.3,42.7c-7.5,17.7-12,36.6-13.3,55.8c-0.2,3.1-0.3,6.3-0.4,9.4
			c3.2-0.8,5-3.6,7.8-5c0.7-0.4,1.4-0.9,2.2-1.3c1.5-0.7,2.4-2.2,2.4-3.9c0.5-5.9,1.2-11.9,2.3-17.8c2.3-12.5,7.5-24,12.3-35.6
			c0.2-0.6,0.5-1.2,0.9-1.8c0.3-0.4,0.7-0.7,1.2-0.3c0.2,0.2,0.3,0.6,0.3,0.9c-0.4,1.1-0.9,2.1-1.3,3.2c-3.6,8.7-7.4,17.4-9.9,26.5
			c-2,7.7-3.3,15.6-3.7,23.5c-0.1,1.8,0.3,2.5,2.2,1.5c1.9-1,3.9-1.9,5.9-2.6c2.4-0.8,5.4-3.4,7.2-1.7c1.9,1.8,0.6,5.3,0.2,8.1
			c-1.9,13.9-1.1,27.4,4.2,40.6c1.1,2.6,1.6,1.8,2.8,0.4c2.9-3.4,5.8-6.9,8.9-10.1c1.2-1.2,1.6-3,1.1-4.6c-1-4.7-1.4-9.5-2.5-14.2
			c-2.4-10.5-2.1-20.5,6.6-28.5c1.6-1.5,1-3.3,0.7-5.1c-1.3-7.5-2.6-15.2-2.2-22.8c0.9-15.5,4.4-30.3,14.3-42.8
			c1.7-2.2,0.9-2.9-1.1-4c-3.5-1.9-6.8-4.1-10.2-6.2c-3.7-2.3-4.8-5.6-4.6-9.8c0.2-3.8,2.4-6.1,5.2-8c4.4-3,9-5.7,13.2-8.8
			c6.8-5.1,7.2-11.6,1.5-17.9c-3.1-3.4-7.1-5.4-11.2-7.2c-4.7-2.1-4.7-2.1-6.1,2.8c-1,3.3-2.1,6.6-3,10c-0.5,1.6-1.3,3.1-2.3,4.4
			c-10.3,13.4-19.7,27.6-27.9,42.4C383.9,599.8,374.7,628.7,375.1,661.3z M752.5,827.9c5.2,0,10.3,0,15.5,0c1.8,0,3.7,0.3,5.4,0.8
			c3.2,1,3.8,2.4,1.5,4.9c-1.8,1.8-3.6,3.4-5.7,4.9c-0.4,0.3-0.8,0.4-1.3,0.3c-0.9-0.6-0.1-1.2,0.3-1.5c1.6-1.5,3.3-2.7,4.9-4.3
			c1.6-1.6,1.1-2.6-1.2-2.8s-4.7-0.3-7-0.5c-12-1.2-23.9,0-35.9,0.9c-4.4,0.4-4.4,0.7-3,4.8c1.5,4.6,4.1,8.7,5.9,13.1
			c3,7.1,8.6,11.1,15.1,14.5c2.9,1.5,5.9,3,8.7,4.7c5.9,3.5,9.3,8.4,8.6,15.6c-0.3,3-0.3,6-0.4,9c-0.2,6.9,2.7,12.5,7.5,17.3
			c1.9,1.9,2.5,1.4,2.7-1.1c0.1-1.9,0.9-3.6,2.3-4.9c5.2-4.3,7.7-10.1,9.4-16.4c2-7.3,4.4-14.6,6.7-21.8c0.8-2.5,1-5.1-1.3-6.9
			c-5.2-4.1-11.2-7.2-17.6-9c-10.2-2.7-20.7-2.9-31.2-2.4c-2.2,0.1-4.3,0.2-6.5,0.1c-0.7,0-1.9,0.4-1.8-0.9c0.1-0.8,0.9-0.9,1.5-1
			c0.8-0.1,1.7-0.2,2.5-0.2c10.5-0.1,21-0.8,31.3,1.9c4.9,1.3,7.8-0.5,11-3.9c5.7-6.1,6.8-12.4,3.5-20
			c-6.5-14.9-13.3-29.7-21.1-43.9c-1-1.9-2.8-3.3-4.9-3.7c-10.1-2.3-20.3-1.7-30.1,0.3c-8.5,1.7-16.5,5.7-22,13.4
			c-1.8,2.6-1.5,3.4,1,4.7c1.9,0.9,3.7,2.2,5.3,3.7c1.4,1.3,2.4,2.8,2.1,4.8c-0.7,3.9,0,7.1,3.3,9.7c1,0.8,1.4,2.2,1.8,3.5
			c1,3.3,2.4,6.5,3.2,9.9c0.8,3.3,2.6,4.3,5.7,3.8C736.2,827.9,744.3,827.6,752.5,827.9z M582.7,508.9c-0.8-15.8-3.6-31.1-6.4-46.5
			c-3-16.5-10.1-30.4-22.5-41.6c-1.7-1.6-3.6-2.9-5.8-3.7c-15-5-29.5-10.9-42.7-19.8c-0.6-0.4-1.9-1.1-2.1-0.9
			c-0.7,0.7,0.1,1.5,0.4,2.2c2.1,5.1,4.4,10.3,3.3,15.8c-0.9,4.4-0.2,9-1.5,13.4c-0.5,1.8,0.3,3.7,1.1,5.3c2.7,4.9,6.8,8.2,12.5,8.8
			c3.8,0.4,7.6,0.8,11.4,1.3c7.2,0.6,13.9,3.6,19.2,8.5c8.2,7.8,13.4,17.7,19.1,27.3c0.5,0.8,1.3,1.9,0.1,2.5
			c-0.8,0.4-1.2-1-1.6-1.6c-4-6.7-7.6-13.6-12.4-19.9c-0.8-1-1.5-2.8-2.7-2.6c-1.5,0.2-0.6,2.2-1,3.3c-0.5,2.3-1.6,4.4-3,6.2
			c-1.8,2-3.4,4.1-5.1,6.1c-7.2,8.6-3.7,26.9,8.2,29.1c2.5,0.5,5,1.8,7.3,3c5.5,2.4,8.6,8.2,7.6,14.1c-0.2,1.7,0,1.6,1.4,1
			c4.1-2.1,8.2-4.3,12.4-6.2C582.2,512.7,583.3,511.3,582.7,508.9z M591.1,428.8c13.8,9.6,28,16.2,42.7,21.7c3.1,1.1,2.1-1.8,1.9-3
			c-2.4-17.4-3.8-35-5-52.5c-0.3-4.5-1.2-8.9-1.9-13.3c-0.1-0.8-0.1-1.9-1.1-2c-0.8,0-1,1.1-1.4,1.8c-0.7,1.1-1.2,2.4-1.8,3.6
			c-6.5,13.3-15,25.1-26.9,34.1c-2.4,1.8-4.6,3.8-6.9,5.7c-0.5,0.4-1.3,0.7-1,1.5c0.3,0.7,1.1,0.5,1.7,0.6c4.5,1,9,2,13.6,3
			c7.9,1.7,15.6,4.5,23.2,7.1c0.7,0.2,1.7,0.7,1.3,1.7c-0.3,0.6-1.2,0.4-1.8,0.1c-2-0.7-4.1-1.4-6.1-2.1
			C611.7,433.2,601.5,430.6,591.1,428.8L591.1,428.8z M829.2,975.3c-1-12.5-3.8-25.1-9.7-36.8c-7-13.6-16.4-25.9-27.8-36.2
			c-2.1-1.9-4-5.2-6.2-5.5c-2.5-0.3-3.7,3.7-5.6,5.6c-0.7,0.7-1.5,1.3-2.2,2.1c-3,3.3-2.9,8.3,0.2,11.5c4.7,5.1,9.5,10.3,14.2,15.4
			c12.8,13.9,23.4,29.3,33.1,45.4c1.1,1.8,1.2,5.2,3.7,5C830,981.7,829.1,977.9,829.2,975.3L829.2,975.3z M564.6,589.4
			c0.5-1.5,1-2.5,1.3-3.6c2.1-7.3,3.5-14.8,4.1-22.4c0.1-0.8,0.2-1.9,1.2-1.8c1.1,0.1,0.9,1.2,0.8,2c-0.4,3.1-0.9,6.2-1.4,9.3
			c-0.8,5.7-2.2,11.4-4.1,16.8c-0.3,0.6-0.3,1.3,0,1.9c0.6-0.3,1.1-0.6,1.7-1c3-2.4,3.1-5.7,2.8-9.1c-0.4-5.1,0-10,4.1-13.8
			c1.7-1.6,3.5-3.1,5.3-4.6c5.2-4,6.8-9.3,5-15.5c-2.1-7.5-3-15.3-2.6-23.1c0.1-2.5,0-5,0.1-7.5c0.1-2.2-0.6-2.7-2.6-1.7
			c-4.9,2.5-9.7,5-14.6,7.5c-2.5,1.3-5.1,2.3-7.3,4.2c-7.5,6.3-10.5,22.8,0,30.8c7,5.3,9.3,12,6.9,20.6
			C564.4,581.9,563.3,585.3,564.6,589.4z M718.9,728.8c0-5.5-0.4-11,0.1-16.5c0.6-7.5-1-14.1-5.7-19.9c-0.9-1.1-1.4-3.6-2.5-3.3
			c-1.4,0.3-1.3,2.6-1.6,4.1c-3.3,15.7-6.5,31.4-9.8,47.1c-0.8,3.9-2.9,8.3-1.7,11.6c1.9,5.2,4.2,11,10.2,13.5
			c3.2,1.3,4.5,3.7,4.3,7.1c-0.1,2.1,0.2,4.3-0.8,6.4c-0.2,0.4-0.6,1.3,0.4,1.5c1.8,0.4,7.3-4.3,7.2-6.3c-0.3-6.8-0.1-13.5-0.8-20.4
			C717.2,745.5,717.9,737.1,718.9,728.8z M435,307.4c-0.3-5-2.2-10.3-4.9-15.3c-3-5.7-6.8-10.6-12.4-14c-0.8-0.5-1.9-1.5-2.6-1
			c-1,0.7,0.3,1.7,0.6,2.5c2.2,6.4,1.4,9.2-3.9,13.4c-5.5,4.4-9.5,4.2-16.1-0.8c-0.5-0.4-1.2-1.1-1.6-1c-1.1,0.4-0.4,1.3-0.3,2.1
			c0.7,8.7,6,15.3,10.2,22.4c1.1,1.8,1.8,0.2,2.7-0.4c2.9-2.1,3.6-1.8,4.9,1.5c0.6,1.4,0.6,2.9,0.1,4.4c-0.4,0.9,0,2,0.9,2.5
			c0,0,0,0,0.1,0c5.2,3.4,14.8,1.7,18.5-3.5C433.6,316.5,435,312,435,307.4z M754.3,772c1.6-0.4,2.8,0.9,4.1,0.2
			c-0.2-0.8-0.5-1.5-0.8-2.2c-11-20.1-22-40.1-33.5-59.9c-0.5-0.8-0.7-2-1.9-1.8c-0.3,0.1-0.3,1.5-0.4,2.3
			c-1.3,13.3-0.4,26.6-0.9,39.9c-0.2,3.6,0.8,5.8,4.3,7.1c2,0.9,3.8,2,5.4,3.5c2.4,1.9,3.8,4.4,2.9,7.4c-1.1,3.6,0.9,3.6,3.3,3.2
			C742.8,770.8,748.7,770.4,754.3,772z M433,619.9c-0.2,6.5,1.1,12.9,2.1,19.3c0.1,0.6,0.1,1.6,0.4,1.8c0.9,0.4,1.5-0.5,2-1.1
			c5.6-6.4,11.4-12.5,17.5-18.4c1.8-1.6,2.9-3.9,3.1-6.4c0.4-3.6,0.6-7.3,1.1-10.9c1.1-7.6,1.2-7.6-5.6-10.9
			c-6.8-3.4-7.3-5.6-2.3-11.1c0.5-0.6,1.1-1.2,1.7-1.9c1.2-1.4,1-2.5-0.3-3.9c-2.9-2.9-4-2.8-6.5,0.6
			C436.7,589.7,433.6,604.4,433,619.9z M603.5,90.4c-0.2,4.6,2.7,7.6,5.2,11c1.8,2.4,3.9,0.9,5.9,1c2.2,0,4.3,0.5,6.2,1.5
			c3.3,2,6.3,1.2,9.4-0.5c5-2.7,6.8-7.1,7.6-12.6c1.1-8.3-8.4-20.3-19.4-18.1C608.6,74.6,604,80.2,603.5,90.4z M512,794.4
			c0.9-2.4-0.9-3.4-3.2-4.5c-7.9-3.6-16.2-4.8-24.7-4.6c-19.1,0.5-37.4,5.2-55.3,11.2c-5.6,1.9-5.4,3.6-4.7,7.3
			c0.2,1.2-0.5,3.1,1,3.5c1.2,0.3,1.1-1.7,2-2.5c1-0.8,2.2-1.5,3.5-1.9c2.7-0.9,5.3-1.8,8-2.6c14.4-4.4,28.9-7.7,44.1-6.4
			c9,0.8,18.3,0.6,26.7,5.1c1.5,0.8,2.2,0.3,2.5-1C511.9,796.8,512,795.6,512,794.4z M441.8,454c3.5-0.8,7.2-0.8,10.6-2.2
			c7.8-3.3,8.9-11.9,2-16.9c-4.6-3.3-9.3-6.4-14-9.5c-3.8-2.5-4.9-6.1-4.4-10.4c0.4-2.3,0.9-4.5,1.6-6.7c2.1-7.1,2.1-7.1-4.9-10.4
			c-0.7-0.4-1.9-1.1-2.2-0.8c-0.8,0.7-0.4,1.8-0.1,2.8c4.3,16.7,6.8,33.8,7.6,51C438.2,453.4,439.3,454.3,441.8,454z M613.8,104.9
			c-8.1,0.2-13.8,6-13.6,13.9c0.2,6.7,7.9,14.1,14.4,13.9c5.6-0.2,12.7-8.3,11.9-14.5C625.4,110.5,622.9,104.6,613.8,104.9z
			 M504.1,857.8c-1-5.5-2-11.1-3.1-16.6c-0.2-1,0.7-2.8-0.8-2.8c-1.3,0-1,1.8-1.3,2.9c-3.3,10.6-6.4,21.2-9.7,31.8
			c-3,9.6-6,19.2-9.3,28.8c-0.9,2.6-0.3,3.1,2.1,3.3c2.7,0.2,3.1-1,3-3.2c-0.1-1.7,0-3.3,0-5c-0.3-7,2.9-11.7,9.5-14.1
			c1.1-0.5,2.1-0.9,3.2-1.2c2.9-0.7,3.7-2,2.1-4.8c-3.1-5.4-2.7-10.5,2.4-14.6C503.5,861,504.4,859.7,504.1,857.8z M414.9,284.7
			c0-5.5-4-10.3-8.6-10.3c-6.7,0-12.4,5.5-12.4,11.8c0,3.6,5.9,8.2,10.5,8.3C408.8,294.5,414.9,288.8,414.9,284.7z M674.7,218.7
			c-0.9-1.3-2.4-1.7-3.7-2.4c-5.2-2.7-8.4-6.7-9.4-12.6c-0.2-1.8-0.5-3.6-1-5.4c-0.7-2.4,0-5.3-1.2-7.3c-1.5-2.2-4.6-0.7-7-1.2
			c-6.8-1.6-7.1-1.4-5.2,5.3C651.2,209.1,658.1,217.2,674.7,218.7z M396.7,359.2c-0.5-0.9-1-1.7-1.4-2.6
			c-6.3-13.9-17.4-24.1-26.9-35.5c-0.5-0.6-1.2-1.6-1.9-1c-0.6,0.4-0.2,1.5,0,2.3c3.2,13.9,11.3,24.5,22.3,33.1
			c2.1,1.6,4.4,3,6.6,4.4c0.3,0.2,0.8,0.7,1.2,0.3C396.8,359.9,396.7,359.5,396.7,359.2z M700.7,202c5.2-1.3,10.5-0.5,15.5-2.1
			c1-0.3,2.5-0.7,2.4-1.3c-0.2-1.1-1.6-0.3-2.4-0.4c-10-0.5-19.7-1.9-26.6-10c-2.5-3-4.8-3.9-8.4-2.2c-2.4,1-4.8,1.8-7.3,2.5
			c1.7,2.4,4.2,3.6,6.5,5.3C686.4,198.5,693.4,200.8,700.7,202L700.7,202z M648.9,75.8c-0.4-3.2-2.2-6.2-4.8-8.1
			c-3.4-2.8-8.5-2.4-11.4,1.1c-0.3,0.3-0.5,0.6-0.7,1c-1.2,1.9-1.4,3.5,0.6,5.2c3,2.4,5.5,5.3,6.5,9.2c0.5,2,1.9,2.4,3.4,1.5
			C646,83.4,648.5,80.4,648.9,75.8z M730.9,767.8c0-3-5.4-8.3-8.6-8.5c-1.6-0.1-1.4,1.1-1.4,2c0,4,0.1,8,0.2,12c0,0.7-0.3,1.6,1,1.8
			C725.9,775.7,730.9,771.6,730.9,767.8z M695.9,187.4c-0.3-1.1-0.5-2.3-0.6-3.5c-0.1-2.6-1.2-2.8-3.4-1.8c-3.5,1.5-3.6,1.4-0.9,4.4
			c0.7,0.9,1.5,1.7,2.4,2.4c0.6,0.5,1.2,1.5,2,1.1C696.2,189.6,695.8,188.5,695.9,187.4z M844.7,837.1l-0.2-0.4
			c-0.1,0.2-0.2,0.5-0.3,0.7c0,0.1,0.1,0.3,0.2,0.4C844.5,837.6,844.6,837.4,844.7,837.1z M407.6,210c-0.1,0.1-0.2,0.2-0.2,0.3
			c-0.1,0.1-0.1,0.3,0,0.4c0.2,0.3,0.3,0.2,0.4-0.3C407.7,210.2,407.6,210.1,407.6,210z M416.5,274.7l0.2-0.3h-0.3L416.5,274.7z
			 M795.5,493.3l-0.2,0.2h0.2V493.3z"/>
		<path d="M720,1025c-8-20.8-16.7-41.2-31-58.7c-7.8-9.6-17.1-17.7-26.3-25.9c-0.7-0.7-1.5-1.3-2.2-2c-0.5-0.4-1.2-1-0.8-1.6
			c0.8-1,1.5-0.1,2.1,0.4c1.7,1.4,3.1,3,4.8,4.4c22.8,18.2,38.5,41.5,49.5,68.3c0.8,2,1.6,4,2.5,5.9c0.2,0.4,0.7,0.7,1,1
			c0.1-0.4,0.3-0.9,0.4-1.3c0.8-3.6,1.4-7.2,2.3-10.7c4.7-18.9,15.9-34.1,28.6-48.3c0.5-0.6,1.2-2.2,2.2-1c0.7,0.9-0.6,1.7-1.2,2.4
			c-7.1,7.9-13.4,16.5-19,25.6c-6.7,11-9.4,23.3-11.7,35.7c-0.4,2.1,0.3,3.9,0.9,5.8L720,1025L720,1025z"/>
		<path d="M443,1025c-4.4-6.7-10-12.4-14.6-18.8c-10.1-14-19.3-28.7-28.6-43.2c-0.4-0.6-0.7-1.1-1-1.7c-0.2-0.4-0.4-0.9,0.2-1.2
			c0.5-0.2,1,0,1.3,0.5c0.8,1.1,1.5,2.2,2.2,3.3c9.5,14.4,18.4,29.2,28.8,43c3.5,4.6,7.3,9,10.9,13.6c1.1,1.4,2.7,2.5,2.9,4.5H443z"
			/>
		<path d="M402,1025c-10-18.5-18.9-37.6-26.6-57.2c-0.6-1.6-2.6-4.3-1.1-4.8c1.8-0.6,2,2.7,2.7,4.4c7.7,18.7,15.7,37.3,25.8,54.9
			c0.4,0.9,0.8,1.8,1.1,2.7H402z"/>
		<path d="M134,1025c3.5-5,6.9-10.1,10.4-15.1c0.5-0.8,0.8-2.7,2.3-1.7c0.9,0.6-0.3,1.8-0.8,2.5c-3.3,4.8-6.6,9.5-9.9,14.3H134z"/>
		<path d="M448.5,936.1c-7.2,0-14.3,0-21.5,0c-0.7,0-1.9,0.2-1.8-1c0-1.1,1.1-1,1.9-1.1c2.2-0.1,4.3-0.1,6.5-0.1
			c16.5,0.2,32.9-0.5,49.3-2.1c7.1-0.6,13.5-3.4,19.5-7.1c8.9-5.5,17.7-11.2,26.6-16.7c0.6-0.4,1.4-1.5,2.1-0.6
			c0.9,1.2-0.5,1.7-1.2,2.2c-10.3,6.4-20.5,13-30.9,19.1c-6.4,3.8-13.6,4.7-21,5.4C468.1,935.1,458.3,934.9,448.5,936.1z"/>
		<path d="M717.9,979.2c-5-0.5-8.9-3.3-12.7-6.3c-1.4-1.1-4.5-2.5-3.5-3.9c0.9-1.2,3,1.5,4.6,2.6c12.9,8.8,13.3,7.8,21.9-2.3
			c6.4-7.5,12-15.5,17.8-23.4c0.7-0.9,1.3-1.9,2.1-2.8c0.4-0.4,0.8-1.2,1.5-0.5c0.3,0.4,0.3,1-0.1,1.3c-0.5,0.6-1,1.3-1.5,2
			c-6.2,9.1-12.8,17.8-19.9,26.2c-1.6,1.9-3.4,3.6-5.3,5.3C721.7,978.8,719.8,979.5,717.9,979.2z"/>
		<path d="M683.1,926c0.4,0.2,0.8,0.4,1.2,0.6c9.6,7.1,20.4,11.5,31.6,15.2c0.5,0.1,0.9,0.3,1.4,0.6c0.4,0.2,0.6,0.6,0.5,1.1
			c0,0,0,0.1-0.1,0.1c-0.2,0.2-0.5,0.4-0.8,0.4s-0.6-0.1-0.9-0.2c-11.2-3.7-22-8.1-31.7-15c-0.7-0.5-1.3-1.1-1.8-1.7
			C681.9,926.4,682.6,926.2,683.1,926z"/>
		<path d="M599.1,88.6c-0.2,0.5-0.2,0.8-0.4,1c-0.3,0.1-0.6,0.1-0.8-0.1c-0.5-0.5-0.8-1-1.2-1.6c-12-19.8-29.3-34.3-47.7-47.6
			c-8.9-6.5-18.5-11.7-28.1-17c-1-0.5-3.1-0.7-2.3-2.3c0.5-1,2,0.2,3,0.7c13.6,7,26.5,15.2,38.6,24.7c11.2,9,22,18.4,30.7,29.9
			c2.4,3.2,4.6,6.5,6.8,9.8C598.3,86.9,598.7,87.8,599.1,88.6z"/>
		<path d="M400.9,84.3c1.1-14.8,5.9-29,13.8-41.5c9.5-15.3,22.3-27.1,37.4-36.7c0.9-0.6,2.1-2.1,2.9-0.7c0.7,1.1-1.2,1.7-2.1,2.3
			c-10.1,6.6-19.5,13.9-27.2,23.2C413,46,404.4,62.8,403,82.8c0,0.7-0.1,1.3-0.3,2c-0.5,1.2-0.1,3.6-1.1,3.4
			C400.1,87.9,401.2,85.7,400.9,84.3z"/>
		<path d="M569,78c-8-5.7-17.2-9.2-26.1-13.1c-9.1-4-18.3-7.8-28.2-9.3c-10.6-1.6-21.2-2.7-31.1,2.8c-0.3,0.2-0.6,0.4-0.9,0.5
			c-0.6,0.2-1.5,0.5-1.8-0.2c-0.4-0.8,0.5-1.1,0.9-1.4c4.5-2.2,8.9-4.2,14.1-4.5c17.4-1.2,33.4,3.9,49,10.9
			c11.5,5.2,23,10.4,33.4,17.7c0.8,0.6,1.7,1.1,2.5,1.7c0.5,0.4,1.3,1,1,1.5c-0.6,0.9-1.4,0.2-2.1-0.2c-3.6-2.1-6.7-4.9-10.6-6.4
			L569,78z"/>
		<path d="M568.9,78c0.5,1,1.6,2.4-0.8,2c-2.6-0.5-5.1-1.6-7.6-2.3c-12.7-3.8-25.2-8.4-38.5-9.8c-14.9-1.6-29.9-2.1-44.4,2.9
			c-1.1,0.4-2.2,0.8-3.3,1.1c-0.7,0.2-1.6,0.2-1.8-0.4c-0.2-0.5,0.5-1.2,1.2-1.4c5.5-1.9,11.1-3.3,16.8-4.3
			c21.5-3.1,42,1.1,62.3,7.5C558.2,75,563.5,77,568.9,78L568.9,78z"/>
		<path d="M558.8,8.1c0.8,0.3,1.6,0.5,2.3,0.9c27.8,12,50.4,30,65.4,56.7c0.7,1.2,2.5,2.7,1,3.8c-1,0.7-1.7-1.6-2.3-2.6
			c-14.5-26-36.4-43.6-63.2-55.6c-1.2-0.5-2.4-1.1-3.6-1.7c-0.2-0.2-0.4-0.5-0.3-0.8C558.1,8.5,558.5,8.3,558.8,8.1z"/>
		<path d="M446.7,161.5c0.1,19.6,4.4,39,12.8,56.7c0.4,0.8,1.3,1.9,0,2.4c-0.6,0.3-1.2-0.9-1.6-1.6c-4.7-9-7.4-18.7-9.7-28.6
			c-3.3-13.8-3.6-27.9-3.2-42c0-0.6-0.5-1.9,0.7-1.8c1,0,0.9,1.2,0.9,2C446.7,152.9,446.7,157.2,446.7,161.5z"/>
		<path d="M437.1,5c0.8,0.1,2,0.5,1.2,1.4c-1.1,1.1-2.3,1.9-3.7,2.5c-20.3,10.4-34.5,26-42.4,47.5c-1,2.6-2.1,5.2-3.1,7.8
			c-0.3,0.8-0.9,1.8-1.6,1.4c-0.8-0.4-0.3-1.4-0.1-2.2c8.4-24,21.8-43.9,45.3-55.6C434.3,7,436.1,6.4,437.1,5L437.1,5z"/>
		<path d="M859.1,837.1c0.4,8.8-1,17.9-2,26.9c-0.1,0.9,0.1,2.4-1.2,2.3c-1.4-0.1-0.8-1.5-0.7-2.4c1.9-13.2,2.9-26.5,1.6-39.8
			c-1.4-14.1-5.5-27.6-10.5-40.8c-10.5-27.7-25.9-52.8-42.7-76.9c-23.1-33.2-44.9-67.1-63.9-102.8c-10.2-19.1-15.6-40.1-21.6-60.7
			c-0.3-1.1-0.8-3,0.1-3.2c1-0.3,1.4,1.5,1.7,2.6c3.6,13.6,7.8,27,12.5,40.3c6.8,19.3,17.3,36.6,27.8,53.9
			c14.9,24.6,30.6,48.7,47,72.3c17.5,25.3,33.3,51.6,43.2,81C855.7,805.1,859.6,820.5,859.1,837.1z"/>
		<path d="M672.1,262.3c-0.8-8.6-1.2-17.3-1-26c0-1.2,0-2.3,0.1-3.5c0-0.6,0.1-1.4,1-1.5c1-0.1,0.8,0.8,0.9,1.4c0.1,0.5,0.1,1,0,1.5
			c-0.2,17.7,0.3,35.3,1,52.9c0.6,16,1.6,31.9,2.8,47.8c1,13.8,2.4,27.5,4.5,41.1c2.8,17.5,6.5,34.8,11.2,51.9
			c9.4,35.5,20.3,70.6,32.3,105.3c0.5,1.4,2.3,3.8,0.6,4.4c-1.8,0.6-1.8-2.4-2.3-3.8c-14.3-42.2-27.8-84.6-37.8-128
			c-3.9-17.1-6.7-34.5-8.5-52c-2.4-21.7-3.4-43.4-4.6-65.2C671.7,279.9,672.1,271.1,672.1,262.3z"/>
		<path d="M808.2,815.8l-0.5,1c-0.3-0.2-0.7-0.2-0.8-0.5c-0.6-1-1.2-2-1.8-3c-29-59.2-61.8-116.4-94.8-173.4
			c-1.1-1.9-2.9-3.6-2.6-6.1c2.9,0.7,3.1,3.5,4.3,5.5c21.3,37.1,43,74.1,63.2,111.9c11,20.5,21.4,41.3,31.9,62
			C807.4,814.1,807.8,815,808.2,815.8z"/>
		<path d="M507,222c-6.3,3-10.3,8.2-13.7,14c-3.2,5.7-6.9,11-11.2,15.8c-0.7,0.8-1.2,2.6-2.5,1.8c-1.6-1-0.1-2.3,0.4-3.5
			c1.5-3.3,3.1-6.6,4.5-9.9c0.2-0.4,0.2-0.9,0-1.4c-0.4-0.5-0.8,0.1-1.2,0.2c-2.1,1-4.2,2-6.3,3c-0.7,0.3-1.4,1.1-2.2,0.2
			c-0.9-1.1,0-1.8,0.7-2.5c1.2-1.2,2.4-2.3,3.6-3.5c3.8-3.3,6.4-7.7,7.7-12.5c0.3-1.7,1.2-3.1,2.7-4c9.8-5.6,19.4-11.5,30.6-14
			c14.5-3.3,29.7-2.2,43.5,3.2c7.4,2.8,13.9,1.6,20.6-1.4c2-0.9,3.8-2,5.7-3c0.8-0.4,1.5-0.8,2.2,0.1c0.7,0.9,0.2,1.6-0.4,2.1
			c-5.9,6-12.2,11-21,12.4c-5.7,1.1-11.5,0.3-16.7-2.2c-5.2-2.6-11-3.4-17.2-3c12.6,6.5,20.6,16.3,23.6,29.9
			c1.5,6.6,0.8,13.2-0.9,19.7c-0.4,1.1-0.5,2.3-0.4,3.4l-0.2,0.2l-0.1-0.2l0.2,0.1c1.7-0.7,2.5-4.4,4.4-2.6c1.3,1.2-1.7,3-2.9,4.5
			c-7.2,8.4-17.4,11.1-27.5,13.9c-0.8,0.2-1.7,0.3-2-0.8c-0.2-0.8,0.5-1.1,1.1-1.3c1.2-0.4,2.3-0.9,3.3-1.5c-2.8,0-5.6-0.5-8.2-1.5
			c-3.3-1.2-3.9-3-2.3-6.2c0.8-1.5,1.8-2.8,2.5-4.3c0.9-1.7,0.3-3.8-1.3-4.7c-0.2-0.1-0.3-0.2-0.5-0.2c-2.5-0.9-3.3,1-3.7,3.3
			c-0.4,2.2,0.5,5.3-2.2,6.1c-2.5,0.7-3.9-2.2-5.4-3.8c-8.5-9.5-12.7-20.4-11.4-33.3C503.3,230.1,505.7,226.2,507,222
			c0-0.4,0.3-0.5,0.3-0.1C507.4,222.6,507.7,221.8,507,222z M505,239.5c0.1,9.7,3.8,19.1,10.4,26.2c1,1.1,1.6,3,3.3,2.6
			c0.6-0.1,0.6-2.4,0.9-3.7c0.9-3.6,3.8-5.6,6.8-4.6c2.6,0.8,4.4,5.1,3.3,8c-0.7,1.5-1.5,2.9-2.5,4.3c-1.1,1.8-0.9,2.9,1.4,3.6
			c3.3,1.1,6.9,1.4,10.3,0.9c11.3-1.6,16.2-4.4,18.8-14.6c3.8-15.2-0.5-28.1-11.4-39.1c-5.1-5.2-11.3-7.3-18.4-7.2
			c-0.6,0-1.7,0-1.8,0.3c-0.4,0.9,0.6,1.3,1.2,1.9c5.7,6,5.5,15.5-0.5,21.2c-1.7,1.6-3.8,2.9-6.1,3.5c-6,1.9-12.2-0.8-13.6-5.8
			c-0.3-1.2,0.1-3.4-1.3-3.3c-1.1,0-0.4,2.2-0.7,3.4C504.9,237.9,504.9,238.7,505,239.5z M508.1,232.4c0,5.5,3.7,9.4,8.8,9.3
			c6.6-0.2,14.1-9.1,13-15.7c-0.8-4.7-4.2-7.4-8-9.6c-0.9-0.6-1.8-0.1-2.8,0.3C512.6,219.2,508.2,225.4,508.1,232.4z"/>
		<path d="M653.9,248.2c0,17-12.3,34.4-26.5,38.2c-0.8,0.3-1.6,0.5-2.4,0.6c-2.8-0.3-5.9-0.7-7-3.7c-1.1-2.8,0.2-5.1,2.7-6.8
			c2-1.5,4.2-2.7,6.6-3.5c6.3-1.9,9.2-7.9,6.8-14c-1.5-3.9-4.3-7.2-7.9-9.4c-1.6-0.9-2.6-2.6-2.4-4.4c0-9.2,3.7-16.7,10.4-22.9
			c3.3-3.1,5.2-3,8.9-0.3c1.5,1.1,2.7,2.5,3.7,4C650.9,232.6,653.4,240.3,653.9,248.2z M652,249.4c0.2-3.2-0.2-6.4-1.2-9.4
			c-1.5-5.3-3.1-10.5-6.8-14.8c-3.5-4.1-6.3-4.2-9.9-0.3c-5.2,5.2-8.2,12.3-8.3,19.7c-0.1,1.5,0.6,2.9,1.9,3.6
			c3.1,2.3,5.6,5.2,7.6,8.5c3.6,6.3,0.7,17-7.5,18.3c-2.6,0.4-4.6,1.9-6.5,3.5c-1.1,1-2.3,2.1-1.8,3.8c0.6,1.4,1.9,2.4,3.4,2.6
			c3,0.5,6-0.1,8.6-1.8C644.2,275.4,651.3,264.3,652,249.4z"/>
		<path d="M477.3,370.9c-0.5,0.1-1.5,0.1-1.7-0.8c-0.5-1.6,1.1-1.4,1.8-1.5c5-1,10.1-1.6,15.2-2.3c10.1-1.3,18.5-5.9,26.3-12
			c0.7-0.5,1.3-1.1,1.9-1.6c0.8-0.6,1.8-1.5,2.6-0.6c1,1.1-0.4,1.7-1,2.2c-7.7,6.4-16,11.8-26.1,13.6
			C490.1,369.1,483.9,369.9,477.3,370.9z"/>
		<path d="M442,341c2.2,0.2,7.2,5.4,7.2,7.6c0,0.3-0.1,0.6-0.3,0.9c-0.3,0.3-0.8,0.3-1.1,0c-0.1-0.1-0.1-0.1-0.2-0.2
			c-1.5-2.9-4.1-4.7-6.5-6.7c-0.4-0.3-0.4-0.8-0.1-1.2l0.1-0.1C441.4,341.2,441.7,341.1,442,341z"/>
		<path d="M588.6,686.2c-1.2-0.9-0.2-1.7,0.3-2.4c3.5-4.6,7-9.3,10.6-13.8c14.1-17.5,25.5-36.9,33.8-57.7c0.5-1.3,0.8-4.2,2.4-3.5
			c1.6,0.7-0.3,2.9-0.9,4.4c-9.3,24.1-23.5,45.2-39.5,65.2c-1.8,2.2-3.5,4.4-5.2,6.7C589.8,685.5,589.4,686.1,588.6,686.2z"/>
		<path d="M699,148c-4.3,7.3-9.1,14.3-16.8,18.6c-1,0.6-2,1.1-3,1.7c-0.4,0.3-1,0.5-1.3,0c-0.6-0.8,0.1-1.2,0.6-1.5
			c1.7-1.1,3.4-2.1,5-3.2c11.2-8.3,17.3-19.6,18.1-33.4c0.7-13.2-0.3-26.3-8-37.8c-0.6-0.8-0.5-2.6-2.1-2.2
			c-0.3,0.1-0.3,1.8-0.3,2.7c0.2,9.2-1.8,18.2-5.9,26.4c-0.2,0.5-0.4,0.9-0.6,1.3c-0.6,0.9-1,2.9-2.1,2.4c-1.4-0.6,0-2,0.4-3
			c2.2-4.3,3.8-8.8,5-13.5c2.3-9.9,1.7-19.7-0.6-29.6c-0.4-1.6-0.8-3.2-0.2-4.8c1.9,1,1.7,2.9,2,4.6c0.9,4.8,1.8,9.3,5.1,13.5
			c6.6,8.5,8.9,18.6,9,29.4C703.2,129.4,703.5,139,699,148L699,148z"/>
		<path d="M681.1,112.4c-0.3,15.9-6.7,28.7-19.3,38.4c-3.7,2.8-7.6,5.3-11.8,7.4c-0.5,0.3-1.2,1-1.7,0.3c-0.7-1,0.3-1.3,1-1.8
			c3.4-2.1,6.9-4,10.1-6.4c12.9-9.4,19.9-21.9,19.8-38c0.1-5.8-0.6-11.6-2.1-17.2c-0.2-0.7-0.5-1.7,0.7-1.9c0.8-0.1,1.1,0.7,1.2,1.4
			C680,100.5,681.7,106.3,681.1,112.4z"/>
		<path d="M718.1,125.8c1.5,17-8.5,28.7-22.5,38.1c-0.7,0.5-1.8,1.7-2.5,0.5c-0.6-1,0.9-1.5,1.7-2.1c2.6-2.1,5.3-4.1,7.9-6.1
			c12.1-9.6,14.9-22.7,13.7-37.1c-0.5-6.1-1.6-12.2-3.3-18.1c-0.2-0.8-0.7-2.1,0.5-2.4c0.7-0.2,1.2,1,1.3,1.9
			C716.5,108.4,718.7,116.3,718.1,125.8z"/>
		<path d="M699,148c12-13.8,14.1-29.8,10.5-47c-0.5-2.6-1.1-5.2-1.5-7.8c0-0.6,0.2-1.2,0.4-1.8c0.6,0.2,1.1,0.8,1.2,1.5
			c0.7,3.4,1.3,6.8,2.1,10.2c3.4,16,0.6,30.6-9.3,43.7C701,148.6,701.1,148.6,699,148L699,148z"/>
	</g>
</g>
<g id="图层_1_1_">
	<g>
		<path d="M193,1025h3c-0.3-0.3-0.7-0.7-1-1h-3C192.3,1024.3,192.7,1024.7,193,1025z"/>
		<path d="M841,1025h3c-0.1-0.3-0.2-0.7-0.3-1h-2.9C840.9,1024.3,840.9,1024.7,841,1025z"/>
		<path d="M42,1025h4c0.5-0.4,0.9-0.7,1.4-1h-4.6C42.5,1024.3,42.3,1024.6,42,1025z"/>
		<path d="M720,1025h2c-0.1-0.3-0.2-0.7-0.3-1h-2.1C719.7,1024.3,719.9,1024.7,720,1025z"/>
		<path d="M443,1025h2c0-0.4-0.1-0.7-0.3-1h-2.4C442.5,1024.3,442.8,1024.7,443,1025z"/>
		<path d="M402,1025h2c-0.1-0.3-0.2-0.7-0.4-1h-2.1C401.6,1024.3,401.8,1024.7,402,1025z"/>
		<path d="M134,1025h2c0.2-0.3,0.5-0.7,0.7-1h-2C134.5,1024.3,134.2,1024.7,134,1025z"/>
		<path fill="#91CBEF" d="M548,466.8c-1.8,2-3.4,4.1-5.1,6.1c-7.2,8.6-3.7,26.9,8.2,29.1c2.5,0.5,5,1.8,7.3,3
			c5.5,2.4,8.6,8.2,7.6,14.1c-0.2,1.7,0,1.6,1.4,1c4.1-2.1,8.2-4.3,12.4-6.2c2.3-1.1,3.4-2.5,2.8-4.9c-0.8-15.8-3.6-31.1-6.4-46.5
			c-3-16.5-10.1-30.4-22.5-41.6c-1.7-1.6-3.6-2.9-5.8-3.7c-15-5-29.5-10.9-42.7-19.8c-0.6-0.4-1.9-1.1-2.1-0.9
			c-0.7,0.7,0.1,1.5,0.4,2.2c2.1,5.1,4.4,10.3,3.3,15.8c-0.9,4.4-0.2,9-1.5,13.4c-0.5,1.8,0.3,3.7,1.1,5.3c2.7,4.9,6.8,8.2,12.5,8.8
			c3.8,0.4,7.6,0.8,11.4,1.3c7.2,0.6,13.9,3.6,19.2,8.5c8.2,7.8,13.4,17.7,19.1,27.3c0.5,0.8,1.3,1.9,0.1,2.5
			c-0.8,0.4-1.2-1-1.6-1.6c-4-6.7-7.6-13.6-12.4-19.9c-0.8-1-1.5-2.8-2.7-2.6c-1.5,0.2-0.6,2.2-1,3.3
			C550.5,462.9,549.5,465,548,466.8z"/>
		<path fill="#F0A491" d="M630.8,395c-0.3-4.5-1.2-8.9-1.9-13.3c-0.1-0.8-0.1-1.9-1.1-2c-0.8,0-1,1.1-1.4,1.8
			c-0.7,1.1-1.2,2.4-1.8,3.6c-6.5,13.3-15,25.1-26.9,34.1c-2.4,1.8-4.6,3.8-6.9,5.7c-0.5,0.4-1.3,0.7-1,1.5c0.3,0.7,1.1,0.5,1.7,0.6
			c4.5,1,9,2,13.6,3c7.9,1.7,15.6,4.5,23.2,7.1c0.7,0.2,1.7,0.7,1.3,1.7c-0.3,0.6-1.2,0.4-1.8,0.1c-2-0.7-4.1-1.4-6.1-2.1
			c-9.9-3.5-20.2-6.1-30.5-7.8c13.8,9.6,28,16.2,42.7,21.7c3.1,1.1,2.1-1.8,1.9-3C633.3,430.1,631.9,412.6,630.8,395z"/>
		<path fill="#A3AACE" d="M629.1,451.1c-10.6-4.2-21.2-8.5-30.7-15c-2.5-1.7-5.1-3.4-8.1-4.1c5.8,4.8,12.6,8,18.8,12.2
			c7.7,5.2,16,9.4,24.7,12.7c0.9,0.3,2.2,1.8,3,0.2c0.7-1.5,0.1-2.9-1.6-3.6C633.1,452.7,631.1,451.9,629.1,451.1z"/>
		<path fill="#5571BD" d="M564.6,589.4c0.5-1.5,1-2.5,1.3-3.6c2.1-7.3,3.5-14.8,4.1-22.4c0.1-0.8,0.2-1.9,1.2-1.8
			c1.1,0.1,0.9,1.2,0.8,2c-0.4,3.1-0.9,6.2-1.4,9.3c-0.8,5.7-2.2,11.4-4.1,16.8c-0.3,0.6-0.3,1.3,0,1.9c0.6-0.3,1.1-0.6,1.7-1
			c3-2.4,3.1-5.7,2.8-9.1c-0.4-5.1,0-10,4.1-13.8c1.7-1.6,3.5-3.1,5.3-4.6c5.2-4,6.8-9.3,5-15.5c-2.1-7.5-3-15.3-2.6-23.1
			c0.1-2.5,0-5,0.1-7.5c0.1-2.2-0.6-2.7-2.6-1.7c-4.9,2.5-9.7,5-14.6,7.5c-2.5,1.3-5.1,2.3-7.3,4.2c-7.5,6.3-10.5,22.8,0,30.8
			c7,5.3,9.3,12,6.9,20.6C564.4,581.9,563.3,585.3,564.6,589.4z"/>
		<path fill="#5695FF" d="M736.8,771.8c6-1.1,11.9-1.4,17.5,0.2c1.6-0.4,2.8,0.9,4.1,0.2c-0.2-0.8-0.5-1.5-0.8-2.2
			c-11-20.1-22-40.1-33.5-59.9c-0.5-0.8-0.7-2-1.9-1.8c-0.3,0.1-0.3,1.5-0.4,2.3c-1.3,13.3-0.4,26.6-0.9,39.9
			c-0.2,3.6,0.8,5.8,4.3,7.1c2,0.9,3.8,2,5.4,3.5c2.4,1.9,3.8,4.4,2.9,7.4C732.4,772.2,734.5,772.2,736.8,771.8z"/>
		<path fill="#9FA4C7" d="M663.6,759.1c-0.2,0-0.3,0-0.5,0c-11.2,2.4-22.3,4.8-33.3,7.9c-13.3,3.8-25.7,9.7-38,15.9
			c-0.6,0.3-1.4,0.4-1.3,1.2c0.1,1,1,0.7,1.6,0.7c4.8,0,9.6,0.8,14.5,0.5c15.8-0.9,31.6-0.6,47.2,2.5c10.6,2.1,21.2,3.7,31.8,5.8
			c7.8,1.5,14.5,0.5,19.2-6.8c2.1-3.2,3.8-6.6,5-10.2c1.5-4.8,0.2-7.3-4.1-9.6c-2.4-1.5-4.4-3.6-5.7-6.1c-0.6-1.2-1.3-2.3-2.1-3.4
			c-0.5-0.7-1.3-1.2-1.5,0.4c-1.2,7.5-2.5,15.1-2.9,22.3c0.2,1.9,0.4,3.4,0.4,4.9c0.1,0.7-0.4,1.3-1.1,1.4c-0.7,0-1.1-0.7-1.2-1.3
			c-0.2-1.3-0.3-2.6-0.4-4c-0.3-6.9,1.1-13.6,2.2-20.3c4.2-23.8,9.3-47.4,14.4-71.1c0.9-3.2,0.3-6.6-1.6-9.4
			c-3.1-4.5-5.6-9.4-8.4-14.1c-19-31.5-31.8-65.4-39.8-101.3c-7.5-33.6-13.7-67.5-19.7-101.4c-0.5-2.9-1.8-3.8-4.1-4.7
			c-9.2-3.5-17.9-7.9-26.1-13.3c-8.2-5.3-16.6-10.4-25.2-15.2c-7.4-4-15.3-7.2-23.5-9.4c-0.6-0.2-1.7-0.5-1.8-0.4
			c-0.5,0.9,0.5,1.4,1,1.9c1.1,1.3,2.3,2.4,3.4,3.7c6.2,6.7,10.9,14.1,13.3,23c6.5,24,10.4,48.3,9.9,73.3
			c-0.4,8.5,0.5,16.9,2.6,25.2c1.8,6.5,0.3,12.6-5.4,17c-1,0.8-1.9,1.9-3,2.6c-4.8,3.2-6.8,7.8-5.9,13.3c1,6.2-1.3,10.8-6.3,14.1
			c-2.4,1.6-3.3,3.9-3.9,6.5c-6.5,25.7-13.2,51.3-19.6,76.9c-0.8,3.3-2.7,6.7-2.1,10.1c1.7,9.8,2.6,19.7,3.3,29.7
			c0.9,12.6,0.8,25-5.6,36.4c-0.8,1.5-1.1,3.1-1,4.8c0.1,4.5-0.2,9-0.8,13.4c-0.9,7-4.3,11.7-10.7,14.4c-2.7,1.2-5.6,2.2-8.3,3.2
			c-2.2,0.8-4,2.4-3.9,4.7c0.2,5.1-2.3,8.1-6.5,10.2c-2.8,1.3-1.6,4.2-2.1,6.3c-0.6,2.2,2,2.1,3.3,2.9c4.5,2.6,8.8,1.4,13.2-0.7
			c23.5-11.1,47.2-21.9,70.6-33.3c16.8-8.1,33.9-15.1,52.1-19c6.2-1.3,12.3-2.7,18.4-4c1-0.2,2.8-0.8,2.9,0.4
			C666.5,758.8,664.7,758.9,663.6,759.1z M634.8,613.1c-9.3,24.1-23.5,45.2-39.5,65.2c-1.8,2.2-3.5,4.4-5.2,6.7
			c-0.4,0.5-0.8,1.1-1.6,1.1c-1.2-0.9-0.2-1.7,0.3-2.4c3.5-4.6,7-9.3,10.6-13.8c14.1-17.5,25.5-36.9,33.8-57.7
			c0.5-1.3,0.8-4.2,2.4-3.5C637.3,609.4,635.4,611.7,634.8,613.1z"/>
		<path fill="#9FA4C7" d="M722.1,775c3.8,0.6,8.8-3.4,8.8-7.2c0-3-5.4-8.3-8.6-8.5c-1.6-0.1-1.4,1.1-1.4,2c0,4,0.1,8,0.2,12
			C721.1,773.9,720.8,774.8,722.1,775z"/>
		<path fill="#9FA4C7" d="M713.3,692.4c-0.9-1.1-1.4-3.6-2.5-3.3c-1.4,0.3-1.3,2.6-1.6,4.1c-3.3,15.7-6.5,31.4-9.8,47.1
			c-0.8,3.9-2.9,8.3-1.7,11.6c1.9,5.2,4.2,11,10.2,13.5c3.2,1.3,4.5,3.7,4.3,7.1c-0.1,2.1,0.2,4.3-0.8,6.4c-0.2,0.4-0.6,1.3,0.4,1.5
			c1.8,0.4,7.3-4.3,7.2-6.3c-0.3-6.8-0.1-13.5-0.8-20.4c-0.9-8.2-0.2-16.6,0.8-24.9c0-5.5-0.4-11,0.1-16.5
			C719.7,704.8,718,698.2,713.3,692.4z"/>
		<path d="M500.8,104l-0.1,0.2c0,0,0,0,0.1,0V104z"/>
		<path d="M821,676C821,676,821.1,676,821,676L821,676C821,675.9,821,675.9,821,676L821,676z"/>
		<polygon points="795.5,493.3 795.4,493.5 795.6,493.5 		"/>
		<path d="M928.1,696c0.2,0.7,0.4,1.4,0.7,2.1C928.8,697.3,928.9,696.5,928.1,696z"/>
		<path d="M793.8,490.9c0.1-0.7-0.1-1.4-0.6-2C793.1,489.6,793.3,490.4,793.8,490.9z"/>
		<path d="M844.3,837.5c0,0.1,0.1,0.3,0.2,0.4c0.1-0.2,0.2-0.5,0.3-0.7l-0.2-0.4C844.4,837,844.4,837.2,844.3,837.5z"/>
		<path d="M793.1,488.7c-0.3-0.6-0.5-1.3-0.8-1.9C792,487.6,791.8,488.5,793.1,488.7z"/>
		<path fill="#91CBEF" d="M131,995.7c-2.3,1.4-5.1,1.6-7.6,0.4c-6.3-2.7-12.1-0.6-16.5,3.7c-6.7,6.6-14,12.9-18.7,21.3
			c-0.2,0.4-0.5,0.8-0.9,1.2c-0.4,0.5-0.9,1.1-1.6,0.5s0.1-1.2,0.4-1.7c1.3-2.1,2.8-4.1,4.2-6.2c0.7-1.1,0.6-1.7-0.9-1.9
			c-4.1-0.5-10.7,2.4-12.2,6.2c-1.5,3.7-3.3,3.8-6.8,2.6c-8-2.7-15.9-2.7-23.1,2.2h87.3c3.2-4.7,6.4-9.5,9.7-14.1
			c0.5-0.8,0.8-2.7,2.3-1.7c0.9,0.6-0.3,1.8-0.8,2.5c-3,4.5-6.1,8.9-9.2,13.3H192c-8.3-8.2-16.9-16.1-25.5-24
			C158.6,992.8,141.5,989.6,131,995.7z"/>
		<path d="M110.6,994C110.4,993.7,110.5,994.1,110.6,994L110.6,994z"/>
		<path fill="#ABB3DC" d="M791.2,933.9c-7.3-8.2-14.6-16.4-22.6-24c-1.6-1.4-2.9-3.2-3.8-5.2c-3.4-8.9-10.6-14.7-16.5-21.6
			c-1.2-1.4-4.1-2.5-2.9-4.4c0.6-0.9,2.8,2,4.1,3.3c3.3,3.3,6.3,6.8,9.4,10.3c1.3,1.4,2,1.5,2.4-0.6c0.8-4.4,0.9-9,0.3-13.4
			c-0.5-2.7-2-5-4.2-6.6c-2.5-1.9-5.2-3.6-8-5c-4.4-2.1-8.7-4.3-12.3-7.5c-1.6-1.4-3.2-1.9-5.3-0.7c-2.4,1.2-4.8,2.2-7.3,3.1
			c-0.6,0.2-1.1,0.6-1.6,0.9c0.5,0.4,1.1,0.7,1.7,1c3.6,1.3,7.2,2.5,10.7,4c1.2,0.5,3.7,0.6,3.2,2.3c-0.7,2-2.6,0.3-3.8-0.1
			c-4.6-1.5-9.1-3.1-13.5-4.8c-17.8-6.8-36.5-11-55.6-12.5c-14.1-1.2-28.3-1-42.4,0.6c-31.5,3.7-61.6,12.4-91,24.1
			c-8,3.2-15.6,7.5-23.2,11.5c-1.3,0.7-2.6,1.4-4,2.1c-1.1,0.6-2.3,1.1-3.2,0.2c-1.1-1.1,0.1-2.1,0.7-3c0.4-0.5,0.8-1,1.2-1.6
			c0.7-1.9-0.5-3.6-2.5-3c-3.8,1.1-7.6,2.3-10.7,5c-1.7,1.4-2.6,3.6-2.4,5.8c0,8.5-0.4,17,0.8,25.4c0.3,2.2,0.8,4.5-0.3,6.7
			c-2.3-1.7-1.5-4.2-1.6-6.4c-0.1-3.2-0.5-6.3-0.9-9.4c-0.2-1.3-0.5-2.2-2.1-2.2c-10.3-0.1-19.9-4-29.3-7.3
			c-13.2-4.7-25.2-3.7-37.3,2.9c-20,10.9-39.9,21.9-57.7,36.3c-7.3,5.9-15.3,10.6-23.4,15.3c-0.6,0.4-1.5,1.3-2.1,0.3
			c-0.5-0.9,0.6-1.3,1.3-1.7c8.6-5.3,17.3-10.5,25.3-16.8c2.5-2,5-3.9,7.5-5.9c0.6-0.5,1.6-1,1.4-1.9s-1.3-0.9-2.1-1
			c-20.5-1.6-40.1-7.3-59.3-14.2c-9.2-3.3-17.9-2.3-26.8-0.4c-25.7,5.2-49,16.2-71.6,29c-8.1,4.5-15.9,9.6-23.4,15.1
			c-2.1,1.6-2,2.5-0.1,4c2.9,2.3,6.2,2.3,9.5,1.9c8.8-1,17.7-0.2,26.4-1.6c1-0.1,2-0.1,3,0c0.8,0,2.1-0.2,2.2,0.6
			c0.1,1.3-1.3,1.4-2.2,1.4c-9-0.1-17.9,1.5-26.9,1.2c-7.8-0.2-15.7-0.3-23.1,2.5c-1.3,0.5-3.6,0.1-3.6,1.9c0,0.9,2.3,0.3,3.5,0.6
			c8.9,1.5,17.9,1.2,26.9,0.3c8.8-0.9,17.2,1.1,25.6,3.1c21.2,5.3,42.3,11.1,63.6,15.9c13.8,3.1,27.7,3.2,41.6,1.9
			c4-0.4,8-0.3,11.9-1.2c0.7-0.2,1.8-0.3,2,0.8c0.1,0.7-0.7,1.1-1.4,1.1c-12.8,1-25.5,3.3-38.3,1.7c-25.2-3.2-49.5-10.9-74-17
			c-10.6-2.7-21.3-5.7-32.4-4.4c-8.3,0.9-16.6,0.9-24.9-0.1c-2-0.2-3.9-0.7-5.9-1.1c-0.9-0.1-1.7-0.6-1.7-1.5
			c-0.1-0.9,0.7-1.5,1.5-1.8c4.3-1.9,8.7-3.2,13.3-3.9c0.7-0.1,1.8,0.4,2-0.8c0-0.5-0.6-1.2-1-1.6c-1.1-1-1.7-2.4-3.6-2.4
			c-11,0-21.9-0.5-32.9,1.4c-10.5,1.8-18.1,7.7-24.6,15.7c-4.3,5.7-8.4,11.6-12.1,17.7l0,0c0,0,0.1,0,0.1-0.1c1.2,0.2,2.3,0,3.4-0.4
			c2.2-0.7,4.6-0.9,6.9-0.6c4.3,0.2,8.7-0.2,12.9-1c12.9-3.7,24.6-1.6,34.8,7.4c9,7.9,17.8,16.2,26.1,24.8h206.4
			c-9.8-18.2-18.5-37-26-56.2c-0.6-1.6-2.6-4.3-1.1-4.8c1.8-0.6,2,2.7,2.7,4.4c7.7,18.7,15.7,37.3,25.8,54.9
			c0.3,0.6,0.5,1.1,0.8,1.7h38.7c-4.3-6.2-9.6-11.7-14-17.8c-10.1-14-19.3-28.7-28.6-43.2c-0.4-0.6-0.7-1.1-1-1.7
			c-0.2-0.4-0.4-0.9,0.2-1.2c0.5-0.2,1,0,1.3,0.5c0.8,1.1,1.5,2.2,2.2,3.3c9.5,14.4,18.4,29.2,28.8,43c3.5,4.6,7.3,9,10.9,13.6
			c0.9,1.1,2.1,2.1,2.6,3.5h274.9c-7.9-20.5-16.6-40.5-30.6-57.7c-7.8-9.6-17.1-17.7-26.3-25.9c-0.7-0.7-1.5-1.3-2.2-2
			c-0.5-0.4-1.2-1-0.8-1.6c0.8-1,1.5-0.1,2.1,0.4c1.7,1.4,3.1,3,4.8,4.4c22.8,18.2,38.5,41.5,49.5,68.3c0.8,2,1.6,4,2.5,5.9
			c0.2,0.4,0.7,0.7,1,1c0.1-0.4,0.3-0.9,0.4-1.3c0.8-3.6,1.4-7.2,2.3-10.7c4.7-18.9,15.9-34.1,28.6-48.3c0.5-0.6,1.2-2.2,2.2-1
			c0.7,0.9-0.6,1.7-1.2,2.4c-7.1,7.9-13.4,16.5-19,25.6c-6.7,11-9.4,23.3-11.7,35.7c-0.3,1.7,0.1,3.3,0.6,4.8h119.1
			c-1.5-7.3-3.7-14.4-6.3-21.3C824.7,976.8,809.5,954.4,791.2,933.9z M529.8,909.6c-10.3,6.4-20.5,13-30.9,19.1
			c-6.4,3.8-13.6,4.7-21,5.4c-9.8,0.9-19.6,0.7-29.4,1.9c-7.2,0-14.3,0-21.5,0c-0.7,0-1.9,0.2-1.8-1c0-1.1,1.1-1,1.9-1.1
			c2.2-0.1,4.3-0.1,6.5-0.1c16.5,0.2,32.9-0.5,49.3-2.1c7.1-0.6,13.5-3.4,19.5-7.1c8.9-5.5,17.7-11.2,26.6-16.7
			c0.6-0.4,1.4-1.5,2.1-0.6C532,908.6,530.5,909.2,529.8,909.6z M682.4,927c-0.5-0.6,0.2-0.8,0.7-1c0.4,0.2,0.8,0.4,1.2,0.6
			c9.6,7.1,20.4,11.5,31.6,15.2c0.5,0.1,0.9,0.3,1.4,0.6c0.4,0.2,0.6,0.6,0.5,1.1c0,0,0,0.1-0.1,0.1c-0.2,0.2-0.5,0.4-0.8,0.4
			s-0.6-0.1-0.9-0.2c-11.2-3.7-22-8.1-31.7-15C683.5,928.2,682.9,927.6,682.4,927z M749.6,943.9c-0.5,0.6-1,1.3-1.5,2
			c-6.2,9.1-12.8,17.8-19.9,26.2c-1.6,1.9-3.4,3.6-5.3,5.3c-1.3,1.4-3.2,2-5.1,1.7c-5-0.5-8.9-3.3-12.7-6.3
			c-1.4-1.1-4.5-2.5-3.5-3.9c0.9-1.2,3,1.5,4.6,2.6c12.9,8.8,13.3,7.8,21.9-2.3c6.4-7.5,12-15.5,17.8-23.4c0.7-0.9,1.3-1.9,2.1-2.8
			c0.4-0.4,0.8-1.2,1.5-0.5C750,943,750,943.6,749.6,943.9z"/>
		<path fill="#31FAFF" d="M614.5,102.4c2.2,0,4.3,0.5,6.2,1.5c3.3,2,6.3,1.2,9.4-0.5c5-2.7,6.8-7.1,7.6-12.6
			c1.1-8.3-8.4-20.3-19.4-18.1c-9.8,1.9-14.3,7.5-14.9,17.7c-0.2,4.6,2.7,7.6,5.2,11C610.5,103.8,612.5,102.3,614.5,102.4z"/>
		<path fill="#0D1635" d="M666.6,187c9.8-0.8,19.4-3.5,27.2-8.6c10.3-6.6,19-15.8,23-28c3.5-10.2,5.3-21,5.1-31.8
			c-0.4-2.5,0.2-6.2-0.6-9.9c-2.3-10-7.6-18.3-14.3-25.9c-8.8-10.1-20.2-13.9-33.4-13.8c-3,0-3.3,1.2-2.6,3.4
			c2.9,9.1,3.1,18.3,1.9,27.6c-1.5,11.8-6.9,20.9-17.7,26.6c-8.4,4.4-17.2,5.8-26.5,5.4c-0.8,0-2.3,0.5-2.4-0.8c0-1.3,1.5-1,2.4-1.1
			c5.3-0.3,10.7,0.2,15.9-1.3c10.6-3.1,19.9-8.2,23.9-19.1c4.7-12.7,4.2-25.7,0.3-38.7c-0.5-1.7-1.1-1.9-2.8-1.4
			c-4.3,1.3-8.6,2.6-12.8,4.1c-1.5,0.3-2.5,1.7-2.4,3.2c-0.1,4.5-2.9,8.4-7,10.1c-3.8,1.6-4.3,4.1-4.7,7.2
			c-0.5,5.7-4.5,10.4-10,11.9c-4.1,1.3-3.3,2.7-2.2,5.5c3.1,8,1.6,15.4-5.1,19.9c-4.6,3.1-5.6,6.4-4.3,11.2c0.2,1.1,0.3,2.3,0.3,3.5
			c0.4,22.1,19.7,38.9,35.6,41.3C658.1,188.3,662.3,187.3,666.6,187z M713.6,98.6c0.7-0.2,1.2,1,1.3,1.9c1.5,8,3.7,15.9,3.2,25.4
			c1.5,17-8.5,28.7-22.5,38.1c-0.7,0.5-1.8,1.7-2.5,0.5c-0.6-1,0.9-1.5,1.7-2.1c2.6-2.1,5.3-4.1,7.9-6.1
			c12.1-9.6,14.9-22.7,13.7-37.1c-0.5-6.1-1.6-12.2-3.3-18.1C712.9,100.2,712.4,98.9,713.6,98.6z M682.9,120.1
			c2.2-4.3,3.8-8.8,5-13.5c2.3-9.9,1.7-19.7-0.6-29.6c-0.4-1.6-0.8-3.2-0.2-4.8c1.9,1,1.7,2.9,2,4.6c0.9,4.8,1.8,9.3,5.1,13.5
			c6.6,8.5,8.9,18.6,9,29.4c0,9.7,0.3,19.3-4.2,28.2l0,0l0,0l0,0c12-13.8,14.1-29.7,10.5-47c-0.5-2.6-1.1-5.2-1.5-7.8
			c0-0.6,0.2-1.2,0.4-1.8c0.6,0.2,1.1,0.8,1.2,1.5c0.7,3.4,1.3,6.8,2.1,10.2c3.4,16,0.6,30.6-9.3,43.7c-1.3,1.8-1.3,1.8-3.4,1.2l0,0
			c-4.3,7.3-9.1,14.3-16.8,18.6c-1,0.6-2,1.1-3,1.7c-0.4,0.3-1,0.5-1.3,0c-0.6-0.8,0.1-1.2,0.6-1.5c1.7-1.1,3.4-2.1,5-3.2
			c11.2-8.3,17.3-19.6,18.1-33.4c0.7-13.2-0.3-26.3-8-37.8c-0.6-0.8-0.5-2.6-2.1-2.2c-0.3,0.1-0.3,1.8-0.3,2.7
			c0.2,9.2-1.8,18.2-5.9,26.4c-0.2,0.5-0.4,0.9-0.6,1.3c-0.6,0.9-1,2.9-2.1,2.4C681.1,122.4,682.5,121.1,682.9,120.1z M648.4,158.5
			c-0.7-1,0.3-1.3,1-1.8c3.4-2.1,6.9-4,10.1-6.4c12.9-9.4,19.9-21.9,19.8-38c0.1-5.8-0.6-11.6-2.1-17.2c-0.2-0.7-0.5-1.7,0.7-1.9
			c0.8-0.1,1.1,0.7,1.2,1.4c1,5.9,2.7,11.6,2.1,17.8c-0.3,15.9-6.7,28.7-19.3,38.4c-3.7,2.8-7.6,5.3-11.8,7.4
			C649.5,158.5,648.9,159.3,648.4,158.5z"/>
		<path fill="#4C6C99" d="M652.4,189.8c-6.8-1.6-7.1-1.4-5.2,5.3c4,14,10.9,22.1,27.5,23.6c-0.9-1.3-2.4-1.7-3.7-2.4
			c-5.2-2.7-8.4-6.7-9.4-12.6c-0.2-1.8-0.5-3.6-1-5.4c-0.7-2.4,0-5.3-1.2-7.3C658,188.8,654.8,190.4,652.4,189.8z"/>
		<path fill="#31FAFF" d="M626.5,118.3c-1.1-7.8-3.6-13.7-12.7-13.3c-8.1,0.2-13.8,6-13.6,13.9c0.2,6.7,7.9,14.1,14.4,13.9
			C620.3,132.6,627.4,124.4,626.5,118.3z"/>
		<path fill="#31FAFF" d="M632.6,74.9c3,2.4,5.5,5.3,6.5,9.2c0.5,2,1.9,2.4,3.4,1.5c3.5-2.2,6-5.2,6.4-9.8c-0.4-3.2-2.2-6.2-4.8-8.1
			c-3.4-2.8-8.5-2.4-11.4,1.1c-0.3,0.3-0.5,0.6-0.7,1C630.8,71.7,630.6,73.3,632.6,74.9z"/>
		<path fill="#1A2958" d="M695.3,183.9c-0.1-2.6-1.2-2.8-3.4-1.8c-3.5,1.5-3.6,1.4-0.9,4.4c0.7,0.9,1.5,1.7,2.4,2.4
			c0.6,0.5,1.2,1.5,2,1.1s0.4-1.4,0.5-2.6C695.6,186.2,695.4,185.1,695.3,183.9z"/>
		<path fill="#4C6C99" d="M689.5,188.2c-2.5-3-4.8-3.9-8.4-2.2c-2.4,1-4.8,1.8-7.3,2.5c1.7,2.4,4.2,3.6,6.5,5.3
			c6.1,4.6,13.1,6.9,20.4,8.1c5.2-1.3,10.5-0.5,15.5-2.1c1-0.3,2.5-0.7,2.4-1.3c-0.2-1.1-1.6-0.3-2.4-0.4
			C706.2,197.7,696.4,196.3,689.5,188.2z"/>
		<path fill="#1A2958" d="M636.5,208.9c11.9,2.4,18.5,10.4,21.5,21.6c2.3,8.4,2.4,17,2.2,25.7c-0.2,7.4-2.7,14.5-7.1,20.3
			c-7.8,11.1-19,19.4-31.9,23.6c-3.9,1.3-5.7,3.6-7.2,7.3c-9.8,24.9-20.4,49.4-36.4,71.1c-8.2,11.2-16.6,22-28.9,29.2
			c-2.3,1.4-5.1,2.3-6.6,4.8c2.8,1,5.6,2.1,8.4,3.1c1.6,0.6,2.9-0.1,4.1-1.1c1.4-1.2,2.8-2.3,4.2-3.5c10.3-8.7,20.8-17.2,29-28.1
			c12.8-17,20.2-36.4,25.1-56.9c1.2-5.1,2.1-10.4,3.1-15.6c0.1-0.6,0.1-1.5,1-1.4c1.2,0.1,1,1,0.8,1.8c-1.2,6-2.2,12.1-3.7,18
			c-7.4,28.5-19.3,54.5-42.7,73.7c-5.3,4.3-10.4,8.9-15.6,13.3c-0.8,0.7-2.4,1.4,0,2.1c8.5,2.4,16.7,5.8,25.1,8.9
			c-0.3-1.3-0.1-2.4,1.6-1.8c1.4,0.5,2.5,1.1,4.1-0.1c10.8-8.1,21.2-16.5,28.8-28.1c12.2-18.7,17.8-39.8,22.6-61.2
			c2.6-11.9,3.5-24,3.8-36.1c0-0.7-0.2-1.8,0.9-1.8c0.5,0,0.5,1.1,0.5,1.8c0.1,8.5,0.1,17-1.3,25.4c-2.6,15.4-6.4,30.5-11.3,45.3
			c-0.8,2-0.9,4.2-0.4,6.3c3.6,13.8,3.5,28,4.8,42c1.4,14.9,2.8,29.8,5.4,44.5c5.3,30.7,11.4,61.2,17.6,91.7
			c8.5,41.9,23.1,81.2,45.8,117.4c6.8,10.9,13.8,21.8,20.4,32.9c15.6,26.1,30,52.8,44.3,79.6c7.9,14.8,14.6,30.1,21.4,45.4
			c7.5,16.8,14.1,34,16.8,52.3c0.4,2.6,1.1,3,3.7,1.9c7.5-3.3,15.1-3.5,22.5,0.7c6.3,3.6,6.5,3.5,8.1-3.6c0.1-0.3,0-0.7,0.1-1
			c3.6-18.9,2.2-37.7-1.6-56.4c-0.4-1.3-0.5-2.6-0.4-3.9c0.2-1.4,1.1-1.5,2.1-0.7c0.8,0.7,0.9,1.7,1.4,2.6
			c5.2,11.5,7.2,23.7,7.7,36.3c0.4,9.9-0.8,19.8-3.7,29.3c4.6-4.8,8.5-10.4,11.3-16.4c9.3-21,11.9-43.1,8.9-65.7
			c-2.6-20.6-7.8-40.7-15.6-59.9c-15.5-37.8-34-74.1-58-107.5c-19.2-26.6-36.6-54.2-47.7-85.4c-3.1-8.6-6.3-17.1-9.4-25.7
			c-0.3-0.9-1.8-2.4-0.1-2.9c1.5-0.5,1.4,1.6,1.8,2.5c1.3,3.2,2.3,6.6,3.5,9.8c7.2,19.3,14.1,38.7,24.7,56.4
			c14.7,24.5,30.1,48.4,48.3,70.5c13.4,16.3,25.9,33.4,38.1,50.6c15.4,21.9,28.6,45.3,39.2,69.8c7.3,16.6,10.4,34.1,12.6,51.9
			c1.5,12.2,1,24.6-1.7,36.7c-2.8,13.2-9.7,24.6-16.7,35.9c-1,1.6-2.7,3-2.6,5.2l0,0c4.9-4.5,10.2-8.4,15.9-11.8
			c12-6.7,22.5-15.3,32.5-24.6c1-0.9,1.8-2.2,3.3-1.9c2.5,0.5,3.1-1.2,3.9-2.8c3.1-6.8,5.9-13.7,8.1-20.8
			c3.2-11.3,5.3-22.9,6.2-34.7c1.6-18.1,1.5-36.1-2.8-54c-8.6-35.7-25.2-67.9-44.5-98.7c-7.3-11.3-15.8-21.9-25.3-31.5
			c-22.9-23.7-43.8-49.2-64.2-75.1c-28.6-36.5-49-77.2-64.3-120.8c-0.3-0.9-1.7-2.5-0.4-3.1c1.9-0.8,1.3,1.7,2.1,2.5
			c0.3,0.3,0.3,0.9,0.4,1.4c13.8,37.5,29.9,73.8,54.2,106c16.1,21.2,31.9,42.6,49.9,62.3c9.3,10.2,19,20.1,28,30.6
			c14.7,17.2,28.5,35.2,41.3,53.8c13.1,18.8,24.1,38.9,32.8,60.1c7.7,19.2,10.8,39.2,11.7,59.7c0.4,9.5,0.2,19-2,28.3
			c-1.6,6.4-3.9,12.7-6.8,18.6c-0.4,0.8-1.4,1.7-0.6,2.6c0.2,0.2,1.6-0.8,2.4-1.3c2.4-1.8,4.9-3.5,7.2-5.4
			c6.8-5.5,13.1-11.4,14.2-20.8c0.6-4.8,1.1-9.6,1.5-14.4c1.4-17.1,2.6-34.1-0.1-51.2c-3.8-23.6-11.6-46.4-23.1-67.3
			c-16.5-30.2-39.2-55.2-65.9-76.7c-22.5-18.2-42-39.3-59.9-62c-8-10.2-15.4-20.9-22.7-31.6c-7.3-10.6-12.9-22.2-21.1-32.4
			c-7.9-9.9-13.5-21.6-19.7-32.8c-42.9-78-67.4-161.8-79.5-249.6c-0.1-0.8-0.4-1.9,0.6-2.1c1-0.2,1.2,0.8,1.3,1.7
			c1,6.2,2,12.4,2.9,18.7c4.4,30.5,10.8,60.7,19.1,90.3c16.2,56.6,38.6,110.5,69,160.9c0.7,1.2,1,3.2,3.1,3.3
			c-4.9-9.2-9.5-18.5-13.9-27.9c-17.6-37.5-33.6-75.7-46.4-115.1c-14.5-44.6-24.6-90.3-34-136.2c-0.6-2.7-1.6-3.9-4.2-4.6
			c-6.9-1.8-13.3-5.3-18.8-10c-1.1-1-2.3-1.9-3.6-2.7c-1.8-1.3-7.1-1.4-8.5,0c-1.6,1.7-0.7,3.7-0.3,5.6c0.2,1.1,0.4,2.3,0.5,3.4
			c0.7,8,4.6,13.6,12.2,16.7c3.7,1.5,7.5,2.5,11.3,3.8c0.8,0.3,1.7,0.4,1.4,1.6c-0.2,0.8-1,0.7-1.7,0.7c-4.5,0.5-9-0.5-13.4-1.1
			c-11.4-1.5-20.4-6.7-25.1-17.8c-1.3-2.7-2.2-5.5-2.8-8.4c-0.1-0.6-0.1-1.5-0.9-1.5c-0.8-0.1-1,0.7-1.3,1.3c-2.1,4.1-4.2,8.3-7,12
			C634.8,207.5,634.5,208.4,636.5,208.9z M807.7,816.8c-0.3-0.2-0.7-0.2-0.8-0.5c-0.6-1-1.2-2-1.8-3c-29-59.2-61.8-116.4-94.8-173.4
			c-1.1-1.9-2.9-3.6-2.6-6.1c2.9,0.7,3.1,3.5,4.3,5.5c21.3,37.1,43,74.1,63.2,111.9c11,20.5,21.4,41.3,31.9,62
			c0.4,0.9,0.8,1.8,1.2,2.6L807.7,816.8z M760.4,636.6c14.9,24.6,30.6,48.7,47,72.3c17.5,25.3,33.3,51.6,43.2,81
			c5.1,15.2,9.1,30.5,8.5,47.1c0.4,8.8-1,17.9-2,26.9c-0.1,0.9,0.1,2.4-1.2,2.3c-1.4-0.1-0.8-1.5-0.7-2.4
			c1.9-13.2,2.9-26.5,1.6-39.8c-1.4-14.1-5.5-27.6-10.5-40.8c-10.5-27.7-25.9-52.8-42.7-76.9c-23.1-33.2-44.9-67.1-63.9-102.8
			c-10.2-19.1-15.6-40.1-21.6-60.7c-0.3-1.1-0.8-3,0.1-3.2c1-0.3,1.4,1.5,1.7,2.6c3.6,13.6,7.8,27,12.5,40.3
			C739.4,602,749.9,619.3,760.4,636.6z M671.1,236.3c0-1.2,0-2.3,0.1-3.5c0-0.6,0.1-1.4,1-1.5c1-0.1,0.8,0.8,0.9,1.4
			c0.1,0.5,0.1,1,0,1.5c-0.2,17.7,0.3,35.3,1,52.9c0.6,16,1.6,31.9,2.8,47.8c1,13.8,2.4,27.5,4.5,41.1c2.8,17.5,6.5,34.8,11.2,51.9
			c9.4,35.5,20.3,70.6,32.3,105.3c0.5,1.4,2.3,3.8,0.6,4.4c-1.8,0.6-1.8-2.4-2.3-3.8c-14.3-42.2-27.8-84.6-37.8-128
			c-3.9-17.1-6.7-34.5-8.5-52c-2.4-21.7-3.4-43.4-4.6-65.2c-0.5-8.8-0.1-17.6-0.1-26.5C671.3,253.6,670.9,245,671.1,236.3z"/>
		<path fill="#FFFFFF" d="M406.3,274.4c-6.7,0-12.4,5.5-12.4,11.8c0,3.6,5.9,8.2,10.5,8.3c4.4,0,10.5-5.7,10.4-9.8
			C414.9,279.2,410.9,274.4,406.3,274.4z"/>
		<path fill="#5671BD" d="M453.5,521.1c1.2,1.8,1.4,5.4,3,5.2c1.9-0.2,2.7-3.5,3.9-5.4c0.2-0.3,0.4-0.6,0.6-0.8
			c0.8-0.6,0.7-2.8,2.3-1.7c0.8,0.6-0.3,1.7-0.8,2.5c-6.3,10.6-12.4,21.2-24.4,26.6c-0.6,0.3-1.1,0.7-1.7,1.1
			c-6.4,3.4-6,11.9,0.4,15.2c5.3,2.8,10.4,5.9,15.3,9.3c5.2,3.4,5.3,5.6,1,10.4c-3.9,4.4-3.8,5.1,1.6,7.7c0.7,0.4,1.5,0.6,2.3,1
			c2.6,1.4,3.6,0.4,3.8-2.3c1-12.6,2-25.2,3-37.8c1.3-16.8,0.8-33.6,1.1-50.4c0.2-13.7,1.6-27.2,7.4-39.8
			c7.1-15.3,14.3-30.5,29.6-39.7c0.9-0.5,1.9-1.1,1.8-2.2c-0.2-3.7,1.4-7.1,0.6-10.9c-3.3-16.1-12-24.2-28.3-27.2
			c-5.3-1-10.5-1.2-14.9,1.8c-11.3,7.5-20.7,16.7-22.8,31.1c-0.7,4.6,0.4,6.5,5,8.2c7.9,2.9,15.8,5.9,23.7,8.8
			c0.8,0.3,2,0.5,1.7,1.4c-0.5,1.5-1.6,0.4-2.4,0.1c-6-2.1-12-4.3-18-6.5c1.5,3.1,4.9,4,7.3,5.9c6.3,5.2,7.3,11.6,2.2,18.1
			c-0.4,0.5-1.3,0.9-0.8,1.6c0.3,0.4,1.2,0.3,1.8,0.3c3.5,0,7-0.1,10.5-0.1c0.7,0,1.7,0,1.8,0.5c0.1,1.1-1.1,0.8-1.8,0.8
			c-6.7,0.1-13.4,0-19.9,1c-4.2,0.7-8.7,0.1-12.7,2.1c-4.9,2.4-9.6,5.4-13.9,8.7c-9,7.1-11.1,22.7-3.8,31.5c4.2,5.2,9.7,9.2,16,11.5
			C442,511.7,449,514.5,453.5,521.1z"/>
		<path d="M447.1,426.6c0.3,0,0.6,0.1,0.8,0.1c-0.2-0.1-0.4-0.2-0.6-0.3C447.4,426.4,447.2,426.5,447.1,426.6z"/>
		<path fill="#1A2958" d="M453,580.2c1.2-1.4,1-2.5-0.3-3.9c-2.9-2.9-4-2.8-6.5,0.6c-9.4,12.8-12.5,27.5-13.1,43
			c-0.2,6.5,1.1,12.9,2.1,19.3c0.1,0.6,0.1,1.6,0.4,1.8c0.9,0.4,1.5-0.5,2-1.1c5.6-6.4,11.4-12.5,17.5-18.4c1.8-1.6,2.9-3.9,3.1-6.4
			c0.4-3.6,0.6-7.3,1.1-10.9c1.1-7.6,1.2-7.6-5.6-10.9c-6.8-3.4-7.3-5.6-2.3-11.1C451.9,581.4,452.4,580.8,453,580.2z"/>
		<path fill="#4D79BD" d="M418.7,702.9c2.9-3.4,5.8-6.9,8.9-10.1c1.2-1.2,1.6-3,1.1-4.6c-1-4.7-1.4-9.5-2.5-14.2
			c-2.4-10.5-2.1-20.5,6.6-28.5c1.6-1.5,1-3.3,0.7-5.1c-1.3-7.5-2.6-15.2-2.2-22.8c0.9-15.5,4.4-30.3,14.3-42.8
			c1.7-2.2,0.9-2.9-1.1-4c-3.5-1.9-6.8-4.1-10.2-6.2c-3.7-2.3-4.8-5.6-4.6-9.8c0.2-3.8,2.4-6.1,5.2-8c4.4-3,9-5.7,13.2-8.8
			c6.8-5.1,7.2-11.6,1.5-17.9c-3.1-3.4-7.1-5.4-11.2-7.2c-4.7-2.1-4.7-2.1-6.1,2.8c-1,3.3-2.1,6.6-3,10c-0.5,1.6-1.3,3.1-2.3,4.4
			c-10.3,13.4-19.7,27.6-27.9,42.4c-15.2,27.2-24.5,56.2-24,88.8c0.1,3.6-0.2,8.2,0.5,12.9c0.2,0.6,0.4,1.2,0.7,1.8
			c0.4-0.5,0.9-0.9,1.3-1.4c2-2.5,2.3-5.4,2.3-8.4c0.2-10.3,1.3-20.6,3.4-30.7c5.9-28.7,18.7-55.6,37.2-78.3
			c0.6-0.8,1.4-2.2,2.1-1.7c1.4,1-0.3,2-0.7,2.9c-0.3,0.6-0.7,1.1-1.2,1.6c-10.4,13-18.9,27.4-25.3,42.7
			c-7.5,17.7-12,36.6-13.3,55.8c-0.2,3.1-0.3,6.3-0.4,9.4c3.2-0.8,5-3.6,7.8-5c0.7-0.4,1.4-0.9,2.2-1.3c1.5-0.7,2.4-2.2,2.4-3.9
			c0.5-5.9,1.2-11.9,2.3-17.8c2.3-12.5,7.5-24,12.3-35.6c0.2-0.6,0.5-1.2,0.9-1.8c0.3-0.4,0.7-0.7,1.2-0.3c0.2,0.2,0.3,0.6,0.3,0.9
			c-0.4,1.1-0.9,2.1-1.3,3.2c-3.6,8.7-7.4,17.4-9.9,26.5c-2,7.7-3.3,15.6-3.7,23.5c-0.1,1.8,0.3,2.5,2.2,1.5c1.9-1,3.9-1.9,5.9-2.6
			c2.4-0.8,5.4-3.4,7.2-1.7c1.9,1.8,0.6,5.3,0.2,8.1c-1.9,13.9-1.1,27.4,4.2,40.6C416.9,705.1,417.5,704.3,418.7,702.9z"/>
		<path d="M476.3,198.1v0.4c0-0.1,0.1-0.2,0.1-0.2C476.3,198.2,476.3,198.1,476.3,198.1z"/>
		<path d="M503.9,188.3c0.1,0,0.2,0,0.3,0c0.1,0,0.2-0.1,0.2-0.1L503.9,188.3z"/>
		<path fill="#1A2958" d="M441.8,454c3.5-0.8,7.2-0.8,10.6-2.2c7.8-3.3,8.9-11.9,2-16.9c-4.6-3.3-9.3-6.4-14-9.5
			c-3.8-2.5-4.9-6.1-4.4-10.4c0.4-2.3,0.9-4.5,1.6-6.7c2.1-7.1,2.1-7.1-4.9-10.4c-0.7-0.4-1.9-1.1-2.2-0.8c-0.8,0.7-0.4,1.8-0.1,2.8
			c4.3,16.7,6.8,33.8,7.6,51C438.2,453.4,439.3,454.3,441.8,454z"/>
		<path fill="#DEA4DD" d="M829.2,975.3L829.2,975.3c-1-12.5-3.8-25.1-9.7-36.8c-7-13.6-16.4-25.9-27.8-36.2c-2.1-1.9-4-5.2-6.2-5.5
			c-2.5-0.3-3.7,3.7-5.6,5.6c-0.7,0.7-1.5,1.3-2.2,2.1c-3,3.3-2.9,8.3,0.2,11.5c4.7,5.1,9.5,10.3,14.2,15.4
			c12.8,13.9,23.4,29.3,33.1,45.4c1.1,1.8,1.2,5.2,3.7,5C830,981.7,829.1,977.9,829.2,975.3z"/>
		<path fill="#7D53A0" d="M717.3,816.7c-0.5-1.9-1.5-3.7-3-5c-2.5-2.1-3.7-4.6-2.6-7.9c0.8-2.4-0.2-4.2-2.2-5.6
			c-1.5-1.1-3.1-1.9-4.6-3c-1.9-1.3-3.5-1.9-5.7-0.1c-2,1.5-4.6,2.1-7.1,1.7c-10.2-1.2-20.3-3.2-30.4-5.2
			c-17.4-3.4-34.8-5.1-52.5-3.8c-4,0.3-8,0.7-12,0c-7.2-1.4-14.7-0.3-21.2,3c-16.5,8.1-33.3,15.7-49.9,23.6
			c-6.3,3-12.5,5.6-19.3,1.7c-0.6-0.4-1.6-1-1.8,0.4c-1,5.3-3.8,10.7-2.6,16c3.1,13.7,2.7,28.2,9.6,40.9c0.2,0.4,0.5,1,0,1.3
			c-0.8,0.5-1.2-0.2-1.5-0.7c-1.8-2.8-3.1-5.8-4-9c-0.2-0.6-0.2-2.2-1.8-1.4c-2.5,1.2-4.6,5.7-3.8,8.4c1.2,4.1,3.5,7.8,5.1,11.8
			c1.1,2.8,1.4,3.3,4.1,1.8c19.1-10.9,39.7-18,60.8-24c23.9-6.8,48-12,72.8-12.2c21.1-0.2,42,2.1,62.4,8.3c3.9,1.2,7.9,2.4,11.8,3.6
			c4.9-1,9.6-2.7,14-5.1c1.5-0.8,0.6-1.6,0.1-2.4C725,842.1,721.5,829.2,717.3,816.7z"/>
		<path fill="#8258A2" d="M785.8,887c2-7.3,4.4-14.6,6.7-21.8c0.8-2.5,1-5.1-1.3-6.9c-5.2-4.1-11.2-7.2-17.6-9
			c-10.2-2.7-20.7-2.9-31.2-2.4c-2.2,0.1-4.3,0.2-6.5,0.1c-0.7,0-1.9,0.4-1.8-0.9c0.1-0.8,0.9-0.9,1.5-1c0.8-0.1,1.7-0.2,2.5-0.2
			c10.5-0.1,21-0.8,31.3,1.9c4.9,1.3,7.8-0.5,11-3.9c5.7-6.1,6.8-12.4,3.5-20c-6.5-14.9-13.3-29.7-21.1-43.9c-1-1.9-2.8-3.3-4.9-3.7
			c-10.1-2.3-20.3-1.7-30.1,0.3c-8.5,1.7-16.5,5.7-22,13.4c-1.8,2.6-1.5,3.4,1,4.7c1.9,0.9,3.7,2.2,5.3,3.7c1.4,1.3,2.4,2.8,2.1,4.8
			c-0.7,3.9,0,7.1,3.3,9.7c1,0.8,1.4,2.2,1.8,3.5c1,3.3,2.4,6.5,3.2,9.9c0.8,3.3,2.6,4.3,5.7,3.8c8.1-1,16.3-1.3,24.4-1
			c5.2,0,10.3,0,15.5,0c1.8,0,3.7,0.3,5.4,0.8c3.2,1,3.8,2.4,1.5,4.9c-1.8,1.8-3.6,3.4-5.7,4.9c-0.4,0.3-0.8,0.4-1.3,0.3
			c-0.9-0.6-0.1-1.2,0.3-1.5c1.6-1.5,3.3-2.7,4.9-4.3c1.6-1.6,1.1-2.6-1.2-2.8s-4.7-0.3-7-0.5c-12-1.2-23.9,0-35.9,0.9
			c-4.4,0.4-4.4,0.7-3,4.8c1.5,4.6,4.1,8.7,5.9,13.1c3,7.1,8.6,11.1,15.1,14.5c2.9,1.5,5.9,3,8.7,4.7c5.9,3.5,9.3,8.4,8.6,15.6
			c-0.3,3-0.3,6-0.4,9c-0.2,6.9,2.7,12.5,7.5,17.3c1.9,1.9,2.5,1.4,2.7-1.1c0.1-1.9,0.9-3.6,2.3-4.9
			C781.5,899.1,784,893.3,785.8,887z"/>
		<path fill="#92BBFF" d="M427.4,398.5c-0.5-2.6-1.9-4.9-4-6.6c-8.5-6.8-16.2-14.3-22.1-23.6c-1.7-2.7-4.4-4.5-7.2-6.1
			c-4.1-2.3-7.8-5.1-11.2-8.3c-6.9-7-14.8-12.8-22.8-18.6c-15.1-10.9-25.4-24.9-28.7-43.8c-1.8-10.5-6.4-20.2-11.2-29.7
			c-3.7-7.4-7-15-8.6-23.2c-2.5-13-2.4-26.2-1.5-39.3c0.5-7.3,1-14.6,1.3-21.9c1.7-39.7,14.6-74.9,40.1-105.5
			c9.1-11.1,19.4-21.1,30.7-29.8c9.6-7.3,18.2-15.6,27.1-23.7c7.3-6.6,15.1-12.5,24.5-16c1-0.4,2.3-0.4,2.9-1.7h1
			c0.2-0.2,0.3-0.5,0.5-0.7H0v1024h42.8c3.2-3.7,7.7-5.2,12.3-6c5.3-1,10.7-0.7,15.8,0.9c1,0.3,2.6,1.8,3.4-0.3
			c2.8-6.9,9.3-7.5,15.2-8.5c2.8-0.3,5.4-1.6,7.3-3.6c5.4-5.7,10.6-11.5,14.5-18.4c3.5-5.9,7.5-11.4,12-16.6
			c7.7-9.3,17.9-13.5,29.5-14.6c9.6-0.9,19.2-2.1,28.8-0.3c2.4,0.5,3.6-1.5,5.1-2.6c24.7-17.1,51-30.8,79.8-39.7
			c8.1-2.3,16.4-4.1,24.7-5.4c5.9-1,11.5,0.3,17.1,2.1c12.7,4.2,25.4,8.7,38.6,11.1c7.3,1.4,14.7,2.4,22.1,3.5
			c2.6,0.4,5.3-0.2,7.5-1.8c8.1-5.2,16.4-10.1,24.7-14.9c2.2-1.1,3.8-3.2,4.3-5.6c5.1-23.6,10.2-47.2,15.3-70.8
			c1.3-5.8,2.4-11.7,3.6-17.5c0.5-2.2,1-4.2-1.5-5.7c-0.9-0.5-1.4-1.4-1.6-2.4c-0.1-4.1-2-7.5-3.3-11.1c-0.5-1.7-1.3-3.3-2.2-4.9
			c-2.6-4.1-5.1-8.2-7.8-12.2c-3-4.4-2.4-8.7,0.2-13.1c2.5-4.3,5.1-8.7,8.6-12.2c2.5-2.4,1.1-6.2,3.7-8.4c0.5-0.4-0.8-1.7-1.4-2.5
			c-2.8-3.9-5.5-7.9-8.4-11.8c-4.6-6.1-4.6-12.4-0.1-18.3c3.2-4.2,3.3-7.9,1.4-12.8c-4.3-11.2-5.5-23.4-3.5-35.3
			c0.5-2.6,0.5-5.2,0.1-7.8c-8.4,2.4-15.8,6.7-22.8,11.9c-3.8,2.9-6.1,6.9-8.2,11.2c-0.7,1.5-0.8,4.4-3.1,3.9
			c-2.2-0.5-1.8-3.3-1.8-5.2c-0.2-7.8-0.3-15.7-0.3-23.5c0.1-33.8,11.9-63.9,29-92.4c7.1-12,14.9-23.6,23.4-34.7
			c3.6-4.6,3.8-10.9,5.7-16.3c0.4-1.2-0.7-1.7-1.5-2.3c-2.2-1.5-4.3-3.2-6.5-4.6c-15.1-10.1-14-32.4,0.5-42.4
			c3.3-2.3,6.6-4.4,10.2-6.3c2.2-1.1,2.6-2.6,2.4-4.8C434.2,433.3,431.4,415.7,427.4,398.5z"/>
		<path fill="#4C6C99" d="M593.3,2c0.1-0.1-0.1-0.3-0.2-0.7c-0.9-0.4-1.7-0.9-2.6-1.3h-149c-0.1,0.2-0.3,0.5-0.4,0.7h3.7
			c-2,2.5-5.7,1.6-7.8,3.9l-0.1,0.1c0.8,0.1,1.9,0.5,1.1,1.4c-1.1,1.1-2.3,1.9-3.7,2.5c-20.3,10.4-34.5,26-42.4,47.5
			c-1,2.6-2.1,5.2-3.1,7.8c-0.3,0.8-0.9,1.8-1.6,1.4c-0.8-0.4-0.3-1.4-0.1-2.2c8.4-24,21.8-43.9,45.3-55.6c1.6-0.8,3.3-1.4,4.4-2.8
			l0.1-0.1c-8,1.8-14.7,6.2-20.6,11.5c-14.9,14-30.8,26.9-46.2,40.3c-13.4,11.7-23.4,26.3-32.7,41.3c-11.1,17.8-18,37.8-20.4,58.6
			c-2.1,17.7-4,35.3-3.5,53.2c2.5-13.4,4.8-26.8,7.5-40.2c4.4-22.7,14.4-44.1,29-62c0.7-0.9,1.5-3.1,2.7-2.2
			c1.3,0.9-0.5,2.3-1.3,3.2c-12,14.6-20.2,31.2-25.6,49.1c-3.6,11.9-5.4,24.2-7.6,36.5c-1.1,6-1.4,12.3-3.1,18.1
			c-5,16.8,0,31.8,6.9,46.7c2.1,4.5,4.2,9,6.3,13.5c0.3,0.7,0.5,1.7,1.5,1.5c0.2-0.6,0.2-1.3,0.1-1.9c-1-8.9-1.4-17.9-1-26.9
			c0.3-10.6,2.1-21.1,3.5-31.7c0.3-2,0.5-4,0.8-5.9c0.1-0.6,0.6-1.5,1.2-1.3c0.6,0.1,0.6,1.1,0.5,1.7c-0.7,5.6-1.4,11.2-2.3,16.8
			c-2.7,16.2-2.2,32.4-1.2,48.7c0.7,11.2,3.6,21.7,6.9,32.1c3.6,11.2,12.1,18.9,20.9,26.1c2.9,2.4,6.1,4.6,9.1,6.9
			c0.5,0.4,1.2,1,1.7,0.6c0.6-0.5-0.2-1.2-0.5-1.6c-2.5-4.3-4.3-9-5.4-13.8c-0.2-0.8-0.7-1.8-0.4-2.4c1.7-4.4-1.1-7.2-3.3-10.2
			c-8.8-12-12.7-25.8-14.7-40.2c-2.5-18.3-3.4-36.8-2.9-55.3c0.4-19.4,2.8-38.7,7.2-57.7c2.7-11.3,4.4-22.8,7.5-33.9
			c2.5-9.1,6.3-17.8,10.1-26.4c0.4-0.8,0.7-2.3,1.8-1.8c0.9,0.5,0.1,1.8-0.2,2.7c-1.8,4.1-3.5,8.2-5.2,12.4
			c-5.7,13.7-8.6,28.2-11.1,42.7c-4.8,28.2-2.7,55.9,7.9,82.7c2.4,6.1,5.4,11.8,9,17.2c-1.8-10.1-3.7-19-4.5-28.1
			c-0.6-6.8-1.3-13.6-1.6-20.4c-0.7-13.9-0.4-27.9,1-41.8c1.3-13.8,5-27,9-40.2c0.3-0.8,0.7-1.8,1.6-1.5c0.8,0.3,0.4,1.4,0.2,2.2
			c-2.8,8.7-5.2,17.5-7,26.4c-1.3,7.2-2.1,14.5-2.6,21.7c-0.7,8.1,0,16.2,0.9,24.3c1.1,9.4,1.8,18.8,4.2,28
			c2.4,9.4,5.4,18.6,10.1,27.2c-3.3-12.9-4.6-26.1-6.2-39.2c-1.5-12.8-0.6-25.5,0.6-38.3c1.3-13.9,4-27.6,8-40.9
			c0.4-1.4,0.5-3.9,1.8-3.6c1.3,0.3,0.2,2.5-0.2,3.9c-4.6,15.8-7.5,32-8.6,48.4c-1.4,19.4,2.9,37.1,12.4,53.8c0.6,1,1.2,2,1.9,2.9
			c0.9,1.2,1.8,2.3,3.3,4.2c-3.7-12.9-4.1-25.5-5.1-38c-0.2-4.8,0-9.7,0.8-14.4c1.2-8.8,1.1-17.6,1.6-26.4c0.7-13.7,4.1-26.8,7.3-40
			c0.2-0.9,0.7-2.4,1.6-2.1s0.5,1.8,0.2,2.7c-2.5,8.9-5,17.9-6.1,27.1c-1.5,12.9-2.5,25.8-1,38.8c1.3,10.9,2.8,21.7,7.2,31.8
			c2.8,6.6,6.2,12.9,10.1,18.8c0.3,0.5,0.5,1.1,1.2,1.2c-0.2-0.6-0.3-1.2-0.5-1.8c-2.9-8.6-5.8-17.3-6.4-26.5
			c-0.6-7.9-1.5-15.8-0.9-23.9c0.7-8.5,0.2-17,1.3-25.4c1.4-11.3,4.9-21.9,8.4-32.7c0.2-0.6,0.7-1.5,1.3-1.3
			c0.9,0.3,0.7,1.4,0.4,2.1c-3.1,8.4-5.6,17-7.3,25.7c-4.1,22.2-2.8,44,5.7,65c2.2,5.4,4.6,11,9.8,14.5c-2.5-4.7-4.4-9.9-5.4-15.2
			c-0.2-0.9-1.1-2,0.4-2.4c1.2-0.4,1.6,0.8,2,1.7c2.7,5.5,5.3,11.1,9,16c0.9,1.2,1.7,5.2,3.7,0.6c6.9,0.6,10.3-6.4,16.5-7.6
			c3.7-0.7,7.2-2.5,11-2.9c3-0.3,4-1.3,3.1-4.5c-2-6.7-4.1-13.3-4.9-20.2c-1.4-12.7-2.5-25.5-1.1-38.3c0.3-3.2-0.9-6.2-1.7-9.1
			c-4.6-18.1-3.8-36.6-3.8-55.1c0-0.9-0.3-2.4,0.9-2.4c1.6,0,1.1,1.7,1.2,2.7c0.1,8.5,0.3,17,0.1,25.5c-0.3,13.1,2.8,25.6,5.7,38.3
			c2.4,10.7,6.6,20.9,12.5,30.1c0.7,1.1,1.2,2.6,2.9,2.9c-4.3-9.8-6.3-20-7.3-30.6c-1.7-18.4-2.2-36.9-3-55.3
			c-0.3-10.7-2.9-21.1-7.6-30.7c-1-1.9-1.8-3.9-2.7-5.9c-0.3-0.6-0.9-1.3-0.2-1.7c1.1-0.7,1.4,0.4,1.7,1.1
			c5.1,10.3,9.4,20.8,10,32.5c0.8,14.7,1.6,29.3,6.4,43.6c4.4,13.9,13.4,25.9,25.4,34.2c1.6,1.1,3.2,2.3,4.8,3.5
			c0.3-0.6,0.2-1.3-0.3-1.7c-14-19.1-21.8-40.7-26.7-63.6c-2.4-11.5-4.3-23.1-7.6-34.4c-3-10.5-6.5-20.5-14.5-28.4
			c-0.6-0.6-1.9-1.4-0.7-2.4c0.7-0.5,1.4,0.6,2,1.2c6.2,6.3,10.7,14.1,13,22.6c1.3,4.6,2.8,9.2,3.9,13.8c0.4,1.8,1,2.6,2.9,2.6
			c9.5,0.1,18.7,2.8,28,4.3c10.8,1.8,20.6,7,29.6,13.4c0.6,0.4,1.7,1,1.2,1.8c-0.6,1-1.5,0-2.1-0.4c-7.8-5.3-16.4-9.5-25.4-12.3
			c-2.1-0.6-4-1.4-6.2-0.5c13.8,8.9,26.4,19.4,39.5,29.2c6.2,4.7,12.4,9.4,18.9,13.7c2.8,1.9,6.4,2.6,9.5,4
			c10.5,4.9,21.2,9.4,32.8,10.7c1,0.1,2.4,0.5,2.1,1.5c-0.2,0.9-1.7,0.6-2.7,0.4c-10.7-1.9-21.2-5.3-31-10.1c-1.5-0.7-3-2-4.9-1.6
			c9.1,9,17,19.1,25.3,28.8c11.7,13.6,17.6,29.8,21.8,46.8c0.6,2.5,0.6,5.3,2.3,7.5c0.4-2.3,0.9-4.6,1.6-6.8
			c2.8-7.2,6.5-13.8,13-18.3c3.6-2.5,5.7-6.4,7.9-10.1s5.3-7.6,5.6-11.5c0.3-4.8-5.8-5.2-8.9-7.8c-10.7-9.1-17.3-20-17.8-34.2
			c0-0.8-0.3-1.7-0.3-2.5c0.1-5.6-0.7-10.5-7.9-10.6c-10.8-7.2-13.5-19.2-2.7-28.6c2-1.7,2-2.3,0.4-4c-5.8-6.3-4.8-13.4-1.7-20.5
			c3.1-7.2,9.7-10.4,16.4-10.1c5.7,0.2,9.6,0.2,13-4.8c1.5-2.2,4.9-2.6,7.9-1.9c2.2,0.5,2.3-0.4,1.5-2.1
			c-8.1-15.7-17.8-30.1-34.1-38.6c-0.4-0.2-0.9-0.5-1.3-0.7c-0.8-0.4-2.1-0.7-1.4-1.9c0.5-0.8,1.5,0,2.2,0.3
			c8.6,3.8,15.1,10.2,21.2,17.1c6.8,7.7,11.8,16.4,16.2,25.6c0.3,0.6,0.6,1.2,0.9,1.8c3.5,7.3,3.9,7.5,11.4,4.8c2.7-1,7-0.6,7.7-3.2
			c0.5-1.8-2.6-4.6-4.2-7C643.7,33.8,621.5,14.5,593.3,2z M459.4,218.2c0.4,0.8,1.3,1.9,0,2.4c-0.6,0.3-1.2-0.9-1.6-1.6
			c-4.7-9-7.4-18.7-9.7-28.6c-3.3-13.8-3.6-27.9-3.2-42c0-0.6-0.5-1.9,0.7-1.8c1,0,0.9,1.2,0.9,2v13
			C446.7,181.1,451.1,200.5,459.4,218.2z M452.9,7.7c-10.1,6.6-19.5,13.9-27.2,23.2C413,46,404.4,62.8,403,82.8c0,0.7-0.1,1.3-0.3,2
			c-0.5,1.2-0.1,3.6-1.1,3.4c-1.5-0.3-0.4-2.5-0.7-3.9c1.1-14.8,5.9-29,13.8-41.5c9.5-15.3,22.3-27.1,37.4-36.7
			c0.9-0.6,2.1-2.1,2.9-0.7C455.7,6.5,453.8,7.1,452.9,7.7z M581.7,84.6c-0.6,0.9-1.4,0.2-2.1-0.2c-3.6-2.1-6.7-4.9-10.5-6.4
			c0,0,0,0,0,0.1c0,0,0,0-0.1,0c0.5,1,1.5,2.3-0.8,1.9c-2.6-0.5-5.1-1.6-7.6-2.3c-12.7-3.8-25.2-8.4-38.5-9.8
			c-14.9-1.6-29.9-2.1-44.4,2.9c-1.1,0.4-2.2,0.8-3.3,1.1c-0.7,0.2-1.6,0.2-1.8-0.4c-0.2-0.5,0.5-1.2,1.2-1.4
			c5.5-1.9,11.1-3.3,16.8-4.3c21.5-3.1,42,1.1,62.3,7.5C558.2,75,563.4,77,569,78c-8-5.7-17.1-9.1-26-13.1c-9.1-4-18.3-7.8-28.2-9.3
			c-10.6-1.6-21.2-2.7-31.1,2.8c-0.3,0.2-0.6,0.4-0.9,0.5c-0.6,0.2-1.5,0.5-1.8-0.2c-0.4-0.8,0.5-1.1,0.9-1.4
			c4.5-2.2,8.9-4.2,14.1-4.5c17.4-1.2,33.4,3.9,49,10.9c11.5,5.2,23,10.4,33.4,17.7c0.8,0.6,1.7,1.1,2.5,1.7
			C581.3,83.5,582,84.1,581.7,84.6z M598.7,89.6c-0.3,0.1-0.6,0.1-0.8-0.1c-0.5-0.5-0.8-1-1.2-1.6c-12-19.8-29.3-34.3-47.7-47.6
			c-8.9-6.5-18.5-11.7-28.1-17c-1-0.5-3.1-0.7-2.3-2.3c0.5-1,2,0.2,3,0.7c13.6,7,26.5,15.2,38.6,24.7c11.2,9,22,18.4,30.7,29.9
			c2.4,3.2,4.6,6.5,6.8,9.8c0.6,0.8,1,1.7,1.4,2.5C599,89,598.9,89.4,598.7,89.6z M626.5,65.7c0.7,1.2,2.5,2.7,1,3.8
			c-1,0.7-1.7-1.6-2.3-2.6c-14.5-26-36.4-43.6-63.2-55.6c-1.2-0.5-2.4-1.1-3.6-1.7c-0.2-0.2-0.4-0.5-0.3-0.8
			c0.1-0.2,0.4-0.4,0.7-0.6c0.8,0.3,1.6,0.5,2.3,0.9C588.9,21,611.5,39,626.5,65.7z"/>
		<path fill="#5695FF" d="M596.7,0c0.4,0.2,0.8,0.4,1.2,0.6c0.2,0.1,0.4,0.2,0.5,0.4h0.6c13.4,6.7,25.5,15.4,37.1,25
			c11.8,9.8,20.3,22.4,29.1,34.7c0.8,1.1,1.5,2.2,2.2,3.4c1,1.8,2.2,2.3,4.4,2.2c17.2-0.9,31,5.5,41.4,19.4
			c9.4,12.5,13.8,26.2,11.3,42c-0.9,5.4-1.7,10.8-2.7,16.2c-2.7,13.6-10.8,23.7-20.7,32.7c-3,2.7-3.9,11.9-1.7,15.2
			c0.5,0.6,1.3,1.1,2.1,1.2c7.7,2.4,15.4,4.1,23.4,1.2c1.2-0.4,2.5-0.8,3.8-1c0.9-0.2,2.1-0.5,2.6,0.7c0.5,1.1-0.4,1.8-1.2,2.4
			c-6.7,5-14.8,7.7-23.2,7.9c-6.8,0.3-6.9,0.2-5.5,6.5c7.5,35,14.9,69.9,24.9,104.3c20.5,70.5,48.8,137.7,85.7,201.3
			c12.8,22.1,28.5,42.1,45.1,61.4c16.5,19.2,35.5,35.6,54.5,52c38.8,33.4,65.3,74.4,77.2,124.5c2.2,9.2,3.4,18.6,3.5,28.1
			c0.2,16.8-0.3,33.6-3.1,50.2c-1.2,7-3.9,13.2-9.7,17.9c-5.9,4.9-11.9,9.6-18.2,14c-1.1,0.8-2.4,2.6-3.8,1.4
			c-1.6-1.4,0.1-3.1,0.8-4.5c3.5-6.8,6.4-13.8,8.6-21.1c1.6-5.6,2-11.4,2.2-17.2c1.4-33.8-5.8-65.6-22.2-95.2
			c-5-9-9.7-18.2-15.4-26.7c-0.7-1-1-2.5-2.6-2.4c11.3,23.1,21.2,46.7,25.9,72.1c2.4,13.3,3,26.8,1.7,40.3
			c-1.3,13.2-2.8,26.4-6.3,39.2c-2.6,9.5-6.6,18.4-10.8,27.2c-0.9,1.8-1.5,4.7-4.4,1.7c-1.1-1.2-1.8,0.1-2.4,0.6
			c-1.9,1.6-3.7,3.4-5.5,5c-7.1,6.5-14.9,12.3-23.3,17.1c-9,5.1-16.8,11.9-24.9,18.3c-1,0.8-2.1,1.6-3.2,2.4
			c-0.5,0.5-1.2,0.5-1.8,0.1c-0.5-0.4-0.6-1.2-0.2-1.7c0.7-1,1.3-1.9,2-2.9c5.2-7.1,9.9-14.5,14.4-22.1
			c8.6-14.5,12.8-31.2,12.1-48.1c-0.8-25.4-6.8-50.4-17.7-73.4c-15.9-34-37.5-64.2-60.1-93.8c-0.6-0.8-1.1-2-2.5-1.9
			c11,20.6,22.2,41.2,30.7,63s14.8,44.4,17.2,67.7c2.1,19.6-0.3,39.4-7.1,57.9c-4.3,11.5-12.5,20.7-20.1,30.2
			c-0.9,1.2-1.8,2.4-2.8,3.5c-0.8,0.9-1.4,2.8-3,1.8c-1.7-1.1-0.2-2.3,0.5-3.3c3.8-5.2,5.9-11.1,7.6-17.2c3.4-11.9,2.6-24,1.3-36.1
			c-0.1-1.5-0.4-3-0.8-4.4c-0.5,3.7-0.1,7.3,0,11c0.4,10.2,0.1,20.3-2.4,30.2c-2.4,9.8-2.6,9.8-11.3,4.7c-7.3-4.2-14.6-3.7-21.9,0
			c-4.7,2.3-5.3,2.3-5.8-2.7c-1.9-16.7-8.1-32-14.2-47.5c-0.3-0.8-1-2.1-1.2-2c-1.1,0.3-0.6,1.5-1,2.3c-1.2,2.2-2.7,4.2-4.3,6.1
			c-4.5,4.9-4.5,4.9,1.3,7.7c1.3,0.6,2.7,1.3,3.9,2.1c7,4.2,8.1,6.9,5.8,14.8c-2.1,7.1-4.1,14.4-6.7,21.3c-1.3,3.5-0.5,5.4,2.1,7.5
			c10.5,8.8,19.1,19.4,26.7,30.9c8.2,12.4,12.7,26.1,14.7,40.8c0.2,1.3,0.9,2.7,0.7,3.9c-2.4,15.5,5.6,28.6,9.4,42.7
			c0.8,3,1.7,6,2.5,9H1024V0H596.7z"/>
		<path fill="#92BBFF" d="M502.1,862.1c1.4-1.1,2.3-2.4,2-4.3c-1-5.5-2-11.1-3.1-16.6c-0.2-1,0.7-2.8-0.8-2.8c-1.3,0-1,1.8-1.3,2.9
			c-3.3,10.6-6.4,21.2-9.7,31.8c-3,9.6-6,19.2-9.3,28.8c-0.9,2.6-0.3,3.1,2.1,3.3c2.7,0.2,3.1-1,3-3.2c-0.1-1.7,0-3.3,0-5
			c-0.3-7,2.9-11.7,9.5-14.1c1.1-0.5,2.1-0.9,3.2-1.2c2.9-0.7,3.7-2,2.1-4.8C496.6,871.3,497,866.3,502.1,862.1z"/>
		<path fill="#AFBAE0" d="M427,804.9c1-0.8,2.2-1.5,3.5-1.9c2.7-0.9,5.3-1.8,8-2.6c14.4-4.4,28.9-7.7,44.1-6.4
			c9,0.8,18.3,0.6,26.7,5.1c1.5,0.8,2.2,0.3,2.5-1c0.2-1.2,0.3-2.4,0.4-3.6c0.9-2.4-0.9-3.4-3.2-4.5c-7.9-3.6-16.2-4.8-24.7-4.6
			c-19.1,0.5-37.4,5.2-55.3,11.2c-5.6,1.9-5.4,3.6-4.7,7.3c0.2,1.2-0.5,3.1,1,3.5C426.3,807.6,426.1,805.6,427,804.9z"/>
		<path fill="#FEE0D0" d="M504.1,803.6c0.3-4.4,0.4-4.8-4.3-5.4c-7.9-1.1-15.8-2.4-22.8-2.1c-15.1-0.3-28.4,3.8-41.8,7.7
			c-4.5,1.3-6.8,2.9-7.6,8.4c-2.6,16.3-6.4,32.4-9.9,48.6c-3,14.1-6.2,28.1-9.3,42.1c-0.2,0.8-0.5,1.9,0.2,2.3
			c0.4,0.3,1.5-0.4,2.2-0.8c4.9-2.7,10-5.1,15.3-7c5.9-2.1,11.7-3.2,18-1.8c9.4,2.1,18.4,5.4,27.6,7.9c4.2,1.1,4.3,1.3,5.7-3.1
			c3.7-11.5,7.7-22.9,11-34.5C494.3,845.4,502.6,825.3,504.1,803.6z"/>
		<path fill="#BFB9DC" d="M488,783.7c8.2,0.2,15.8,1.7,23,5.3c1.1,0.6,2.1,1.5,3.6,0.5c3.5-2.3,7.7-3.1,11.4-4.9
			c4.1-1.9,7.2-4.7,8.2-9.4c0.9-4.1,1.4-8.2,1.5-12.3c0-0.6,0.3-1.4-0.5-1.7c-0.8-0.2-1.1,0.6-1.5,1.1c-2,2.7-4,5.3-6,7.9
			c-0.2,0.4-0.8,0.6-1.2,0.3l0,0c-0.6-0.4-0.3-0.9,0-1.3c1.6-2.2,3.1-4.3,4.7-6.4c5.2-6.5,8.7-14.2,10.5-22.3
			c2.3-11.2,0.4-22.6-0.2-33.9c-0.2-4-1-7.9-1.6-11.8c-0.1-0.5,0.4-1.3-0.5-1.4c-0.2,0-0.4,0.8-0.6,1.3c-0.3,0.8-0.5,1.6-0.7,2.4
			c-1.6,5.6-3.3,11.1-4.9,16.7c-0.2,0.7-0.4,1.3-1.3,1c-0.6-0.2-0.4-0.8-0.3-1.3c0.2-0.8,0.3-1.6,0.5-2.4
			c8.9-29.7,15.6-59.9,23.5-89.8c3.2-12.3,7.6-24.4,6.4-37.5c-0.2-2.5,0.9-5.2,1.5-7.8c1.2-5.3,0-9.9-3.9-13.7
			c-1.9-1.8-3.8-3.7-5.7-5.6c-2.1-2.2-3.5-4.9-4-7.9c-2-9.4,0.7-17.4,7.6-23.9c1.6-1.5,3.2-2.9,4.7-4.5c2.4-2.3,2.4-4.9,0.9-7.7
			c-1.5-3-4.1-5.3-7.2-6.5c-2.9-1.2-5.9-2.2-8.8-3.4c-3.6-1.5-6.5-4.3-7.9-8c-3.8-9.1-3.5-17.8,3.6-25.4c0.9-1,1.7-2,2.6-3.1
			c5.4-6.7,5.7-13.6-4.5-18.1c-6.8-3-13.9-3.1-20.9-4.1c-11.2-1.6-17-7.9-17.1-19.1c-6.3,2.6-10.9,7.3-14.7,12.8
			c-13.6,19.4-21.3,40.6-21.1,64.6c0.1,20.1,0.1,40.3-1.9,60.4c-1.3,13.2-2.1,26.5-3.4,39.7c-1.4,15.4-3.6,30.6-6.6,45.8
			c-0.2,1.1-0.7,2.6,0.3,3.2c1.2,0.7,2-0.8,2.8-1.5c7.8-7.1,14.5-15.1,21.4-23c15.2-17.4,29.4-35.7,42.6-54.7c0.6-0.8,1.5-2.3,2-1.8
			c1.4,1-0.2,2-0.6,2.9c-0.2,0.3-0.3,0.6-0.6,0.8c-15.6,22.4-32.6,43.8-50.9,64.1c-4.4,5-8.8,10-14,14.3c-2.3,1.9-4.4,2.3-6.5,0
			c-2.6-2.9-4.3-6.3-5.8-9.8c-0.3-0.6-0.4-1.4,0.4-1.6c0.3-0.1,0.8,0.5,1.1,0.9c1.2,2.2,2.4,4.4,3.5,6.5c0.3,0.6,0.7,1.4,1.4,1.2
			c0.7-0.2,0.4-1.1,0.5-1.7c1.3-7.3,2.6-14.7,3.8-22c0.1-0.7,0.6-1.7-0.4-2.1c-0.4-0.1-1.1,0.6-1.6,1c-8.5,8.2-16.4,17-23.8,26.3
			c-3.3,4.1-4.7,9.4-3.8,14.5c0.3,2.6,0.7,5.3,1.3,7.9c3.1,12.3,2.8,24.7,2.4,37.2c0,1.4,0.1,3.8-1.4,3.7c-1.9-0.1-1-2.3-1-3.7
			c0.1-4.2,0.3-8.3,0.4-12.5c0-0.8,0.4-1.8-0.4-2.2c-0.9-0.5-1.4,0.6-1.9,1.2c-3.9,4.6-8.2,8.9-11.5,13.8c-7.3,10.8-6.1,11.9-0.3,21
			c2.3,3.6,5,7,7.5,10.5c0.9,1.2,2.1,2.6,0.9,4c-2.7,3.2-0.2,4.1,2,5.2c2.8,1.4,5.7,2.7,8.6,3.9c3.9,1.7,8.4,1.1,11.7-1.6
			c3.6-2.6,7.4-5.1,11.3-7.2c18.2-10.6,37.2-20,53.7-33.4c3.5-2.8,6.9-5.8,10.4-8.6c0.7-0.6,1.6-1.8,2.4-1c1,1.1-0.6,1.6-1.2,2.2
			c-9,7.9-18.5,15.2-28.6,21.7c-15.9,10-32.9,18.1-48.4,28.8c-3.5,2.4-7.5,2.3-11.5,1c-3.5-1.2-6.8-2.7-10-4.5
			c-1.5-0.8-2.3-0.7-3.3,0.6c-3.4,4.3-6.6,8.7-9.5,13.4c-2.2,3.8-2.4,7.5,0,11.2c3,4.6,5.9,9.3,8.9,13.8c1.2,1.8,0.5,5,2.3,5.7
			c1.9,0.7,3.5-2,5.5-2.7C447.3,788.7,467,783.2,488,783.7z"/>
		<path d="M507.3,222C507.4,222.3,507.5,222.1,507.3,222L507.3,222z"/>
		<path fill="#222F76" d="M415,277.2c-1,0.7,0.3,1.7,0.6,2.5c2.2,6.4,1.4,9.2-3.9,13.4c-5.5,4.4-9.5,4.2-16.1-0.8
			c-0.5-0.4-1.2-1.1-1.6-1c-1.1,0.4-0.4,1.3-0.3,2.1c0.7,8.7,6,15.3,10.2,22.4c1.1,1.8,1.8,0.2,2.7-0.4c2.9-2.1,3.6-1.8,4.9,1.5
			c0.6,1.4,0.6,2.9,0.1,4.4c-0.4,0.9,0,2,0.9,2.5c0,0,0,0,0.1,0c5.2,3.4,14.8,1.7,18.5-3.5c2.7-3.7,4.1-8.2,4-12.8
			c-0.3-5-2.2-10.3-4.9-15.3c-3-5.7-6.8-10.6-12.4-14C416.8,277.6,415.8,276.6,415,277.2z"/>
		<path fill="#FFE7D8" d="M443.8,396.6c3.6-4.6,7.7-8.7,12.3-12.4c2.4-2.1,5.2-3.6,8.3-4.3c11.7-2.6,22,1.1,31.3,7.9
			c12.4,9.1,25.3,17.1,39.8,22.2c1.7,0.6,3,1.1,4.7,0.1c9.1-5.3,18-10.8,24.8-19c7.5-9.1,14.5-18.7,20.7-28.7
			c11.1-17.7,18.8-36.9,26.3-56.2c1.7-4.3,4.1-6.7,8.4-8.2c6.8-2.1,13.2-5.5,18.7-10.1c9-7.6,17.2-16.2,18.6-28.5
			c1.2-10.1,0.4-20.3-2.4-30.1c-1.9-6.4-6.1-12-11.8-15.5c-7.2-4.7-13.1-3.7-18.2,3.1c-4.6,6-8.2,12.5-8.3,20.4
			c-0.1,2-0.4,4-0.7,5.9c-0.1,0.8-0.2,1.7-1.4,1.7c-0.7-0.1-1.2-0.6-1.4-1.3c-0.6-2.2-1.1-4.5-1.6-6.8
			c-4.7-21.8-11.8-42.4-27.4-59.3c-9.5-10.3-17.5-22-29-30.1c-16.9-11.9-33-24.8-49.5-37.1c-8.2-6.1-18-9.6-28.1-10
			c-2.4-0.2-3.1,0.7-2.7,2.8c0.6,3.3,1.3,6.5,1.9,9.7c3.4,18.8,8.5,37.1,17.1,54.3c5.7,11.4,12.3,21.7,23.7,28.1
			c0.8,0.4,2.2,1.1,1.7,2.1c-0.6,1.2-1.9,0.6-3.1,0.1c-6.8-2.7-13-6.6-19-10.8c-12.4-8.7-21.5-19.7-25.8-34.4
			c-0.2-1.2-0.7-2.3-1.6-3.1c-0.5,5.6,0.3,11,0.8,16.4c1.2,13.7,3.5,27,11.9,38.4c0.6,0.9,2,1.9,0.7,2.9c-1.1,0.9-2.1-0.3-3-1
			c-5.1-3.7-8.7-8.6-11.8-14c-2.9-5.2-5.4-10.7-7.4-16.3c-0.2-0.4-0.5-1.1-0.8-1.1c-0.6,0-0.4,0.7-0.3,1.1c0.5,10.5,0.2,21,2.4,31.3
			c1.4,6.3,3,12.6,4.9,18.7c0.9,2.8,0.1,3.6-2.5,3.8c-1,0.1-2,0.3-2.9,0.5c-6.2,1-12.2,3.1-17.8,6.1c-3.5,2-6.1,5.1-8.2,8.5
			c-0.4,0.7,0.4,2.3-0.7,2.7c-1.4,0.5-1.8-1.1-2.6-1.8c-0.6-0.6-0.9-1.4-1.8-1.6c-0.6,1.2,1.9,2.5,0.2,3.5c-1.6,0.9-2.3-0.9-3.1-1.7
			c-2.1-1.9-4.1-3.9-6-6c-6.6-7.4-10.7-16.2-13.6-26.2c-0.3,2-0.3,4,0.2,6c1.8,9.1,4.9,17.9,8.2,26.5c0.5,1.2,1,2.5,1.3,3.7
			c0.3,0.6,0,1.4-0.6,1.7c-0.3,0.1-1-0.2-1.3-0.5c-0.7-0.7-1.4-1.5-2-2.3c-10.8-13.8-18.4-29.1-21.3-46.5c-0.1-0.7,0.4-1.6-0.7-1.9
			c-0.2,0.6-0.3,1.3-0.3,1.9c0.7,15.6,0.5,31.3,8,45.7c0.5,0.9,1.6,2.2,0.2,3.1c-1.3,0.9-2.1-0.5-2.8-1.4
			c-5.9-7-11.4-14.3-15.1-22.8c-1.3-2.9-2.4-5.9-3.6-8.9c0.1,3.7,0.4,7.3,1,10.9c1.4,10,3.5,19.9,6.5,29.5c0.3,1,1.4,2.4-0.1,3.1
			c-1.4,0.6-1.8-1-2.4-1.8c-6.2-8.4-9.4-18.2-12.7-27.9c-0.9-2.8-0.9-6-3-8.4c0.3,4.9,0.9,9.8,1.8,14.6c1.3,7.5,2.8,15,4.3,22.5
			c0.2,1.1,1,2.9-0.8,3.4c-1.5,0.4-1.7-1.4-2.1-2.3c-2-4.6-4.3-9-6.7-13.3c-6.8-12.1-10.4-25.4-13.4-38.9c-2-9-2-18.2-2.1-28.5
			c-2.2,11.1-3.3,22.5-3.3,33.8c-0.1,20.3,0.2,40.6,3.7,60.7c1.6,9.3,4.1,18.4,8.8,26.8c1.1,2,1.8,2.4,3.2,0.2c1.8-3,4-5.7,5.7-8.7
			c3.8-6.4,7.3-13.1,12.3-18.7c13.3-15,32.6-15.8,49.4-8.7c0.6,0.3,1.2,0.7,1.2,1.4c0,0.8-0.8,1.5-1.6,1.4h-0.1
			c-1.7,0-3.3-0.2-5-0.2c-0.9,0-2.1-0.9-2.6,0.2c-0.3,0.8,0.9,1.2,1.6,1.7c3.3,2.8,6.4,5.9,9.3,9.1c0.7,0.7,2.2,1.6,1,2.8
			c-1.1,1.2-2.1-0.1-3-0.7c-2.7-1.6-4.7-4.4-8.2-4.6c7.6,6.5,12.9,15.1,15.3,24.8c1.2,4.8,0.9,9.9-0.8,14.6
			c-0.5,1.4-1.9,2.7-1.2,4.5c0.5-0.6,1.1-1.4,2-1c1.1,0.5,0.5,1.4,0,2c-3.4,4.3-8,6.9-13.1,8.5c-1.8,0.6-4.6,2.9-5.6,0.6
			c-0.8-1.7,3.1-1.4,4.5-3.2c-2.1-0.4-4-0.7-5.9-1c-6-1-6.4-1.5-6.5-7.7c0-0.7-0.2-1.3-0.6-1.8c-1-0.9-1.4,0.3-1.8,0.8
			c-1.7,2.4-3.1,1.8-4.5-0.3c-3.6-5.7-7.4-11.4-9.8-17.8c-4-10.7-1.5-20.2,7-27.2c-5.5,0.6-9,4.3-12.6,7.9c-5.5,5.5-7.6,12.7-9,20.1
			c-0.4,1.8-0.3,2.9-3,2.3c-4.1-0.9-7.7,1.2-11.1,3.3c-1.9,1.2-1.9,2.2-0.6,4c3.9,5.4,8,10.6,12.5,15.5c9,9.4,17,19.5,22.6,31.4
			c2.5,5.2,5.6,10.2,9.2,14.8c8.2,10.7,18.1,19.4,30.2,25.5C440.5,399.2,442,398.9,443.8,396.6z M620.8,276.4c2-1.5,4.2-2.7,6.6-3.5
			c6.3-1.9,9.2-7.9,6.8-14c-1.5-3.9-4.3-7.2-7.9-9.4c-1.6-0.9-2.6-2.6-2.4-4.4c0-9.2,3.7-16.7,10.4-22.9c3.3-3.1,5.2-3,8.9-0.3
			c1.5,1.1,2.7,2.5,3.7,4c4.1,6.7,6.6,14.4,7.1,22.3c0,17-12.3,34.4-26.5,38.2c-0.8,0.3-1.6,0.5-2.4,0.6c-2.8-0.3-5.9-0.7-7-3.7
			C617,280.4,618.3,278.1,620.8,276.4z M522.4,354.4c-7.7,6.4-16,11.8-26.1,13.6c-6.2,1.1-12.4,1.9-19,2.9c-0.5,0.1-1.5,0.1-1.7-0.8
			c-0.5-1.6,1.1-1.4,1.8-1.5c5-1,10.1-1.6,15.2-2.3c10.1-1.3,18.5-5.9,26.3-12c0.7-0.5,1.3-1.1,1.9-1.6c0.8-0.6,1.8-1.5,2.6-0.6
			C524.4,353.2,523,353.8,522.4,354.4z M475.6,239.9c1.2-1.2,2.4-2.3,3.6-3.5c3.8-3.3,6.4-7.7,7.7-12.5c0.3-1.7,1.2-3.1,2.7-4
			c9.8-5.6,19.4-11.5,30.6-14c14.5-3.3,29.7-2.2,43.5,3.2c7.4,2.8,13.9,1.6,20.6-1.4c2-0.9,3.8-2,5.7-3c0.8-0.4,1.5-0.8,2.2,0.1
			c0.7,0.9,0.2,1.6-0.4,2.1c-5.9,6-12.2,11-21,12.4c-5.7,1.1-11.5,0.3-16.7-2.2c-5.2-2.6-11-3.4-17.2-3
			c12.6,6.5,20.6,16.3,23.6,29.9c1.5,6.6,0.8,13.2-0.9,19.7c-0.4,1.1-0.5,2.3-0.4,3.4l-0.1,0.1c1.7-0.7,2.5-4.4,4.4-2.6
			c1.3,1.2-1.7,3-2.9,4.5c-7.2,8.4-17.4,11.1-27.5,13.9c-0.8,0.2-1.7,0.3-2-0.8c-0.2-0.8,0.5-1.1,1.1-1.3c1.2-0.4,2.3-0.9,3.3-1.5
			c-2.8,0-5.6-0.5-8.2-1.5c-3.3-1.2-3.9-3-2.3-6.2c0.8-1.5,1.8-2.8,2.5-4.3c0.9-1.7,0.3-3.8-1.3-4.7c-0.2-0.1-0.3-0.2-0.5-0.2
			c-2.5-0.9-3.3,1-3.7,3.3c-0.4,2.2,0.5,5.3-2.2,6.1c-2.5,0.7-3.9-2.2-5.4-3.8c-8.5-9.5-12.7-20.4-11.4-33.3
			c0.5-4.6,2.8-8.4,4.3-12.6h-0.1c-6.3,3-10.3,8.2-13.7,14c-3.2,5.7-6.9,11-11.2,15.8c-0.7,0.8-1.2,2.6-2.5,1.8
			c-1.6-1-0.1-2.3,0.4-3.5c1.5-3.3,3.1-6.6,4.5-9.9c0.2-0.4,0.2-0.9,0-1.4c-0.4-0.5-0.8,0.1-1.2,0.2c-2.1,1-4.2,2-6.3,3
			c-0.7,0.3-1.4,1.1-2.2,0.2C474,241.3,474.9,240.6,475.6,239.9z M441,341.5l0.1-0.1c0.3-0.2,0.6-0.3,0.9-0.3
			c2.2,0.2,7.2,5.4,7.2,7.6c0,0.3-0.1,0.6-0.3,0.9c-0.3,0.3-0.8,0.3-1.1,0c-0.1-0.1-0.1-0.1-0.2-0.2c-1.5-2.9-4.1-4.7-6.5-6.7
			C440.8,342.4,440.7,341.8,441,341.5z"/>
		<polygon points="416.4,274.4 416.5,274.7 416.7,274.4 		"/>
		<path d="M430.7,324C430.6,323.7,430.5,323.9,430.7,324L430.7,324z"/>
		<path fill="#F0A491" d="M368.4,321.1c-0.5-0.6-1.2-1.6-1.9-1c-0.6,0.4-0.2,1.5,0,2.3c3.2,13.9,11.3,24.5,22.3,33.1
			c2.1,1.6,4.4,3,6.6,4.4c0.3,0.2,0.8,0.7,1.2,0.3c0.2-0.2,0.1-0.6,0.2-0.9c-0.5-0.9-1-1.7-1.4-2.6
			C389.1,342.7,378,332.5,368.4,321.1z"/>
		<path fill="#FFFFFF" d="M516.9,241.7c6.6-0.2,14.1-9.1,13-15.7c-0.8-4.7-4.2-7.4-8-9.6c-0.9-0.6-1.8-0.1-2.8,0.3
			c-6.5,2.5-10.8,8.7-11,15.7C508.1,237.9,511.8,241.8,516.9,241.7z"/>
		<path fill="#222F76" d="M527.1,218c5.7,6,5.5,15.5-0.5,21.2c-1.7,1.6-3.8,2.9-6.1,3.5c-6,1.9-12.2-0.8-13.6-5.8
			c-0.3-1.2,0.1-3.4-1.3-3.3c-1.1,0-0.4,2.2-0.7,3.4c-0.1,0.8-0.1,1.7,0,2.5c0.1,9.7,3.8,19.1,10.4,26.2c1,1.1,1.6,3,3.3,2.6
			c0.6-0.1,0.6-2.4,0.9-3.7c0.9-3.6,3.8-5.6,6.8-4.6c2.6,0.8,4.4,5.1,3.3,8c-0.7,1.5-1.5,2.9-2.5,4.3c-1.1,1.8-0.9,2.9,1.4,3.6
			c3.3,1.1,6.9,1.4,10.3,0.9c11.3-1.6,16.2-4.4,18.8-14.6c3.8-15.2-0.5-28.1-11.4-39.1c-5.1-5.2-11.3-7.3-18.4-7.2
			c-0.6,0-1.7,0-1.8,0.3C525.6,217,526.6,217.4,527.1,218z"/>
		<path d="M430.9,324C430.9,324,431,324,430.9,324C431,324,431,324,430.9,324C431,324,430.9,324,430.9,324L430.9,324z"/>
		<path fill="#F0A491" d="M622.9,284.8c3,0.5,6-0.1,8.6-1.8c12.8-7.6,19.8-18.7,20.5-33.6c0.2-3.2-0.2-6.4-1.2-9.4
			c-1.5-5.3-3.1-10.5-6.8-14.8c-3.5-4.1-6.3-4.2-9.9-0.3c-5.2,5.2-8.2,12.3-8.3,19.7c-0.1,1.5,0.6,2.9,1.9,3.6
			c3.1,2.3,5.6,5.2,7.6,8.5c3.6,6.3,0.7,17-7.5,18.3c-2.6,0.4-4.6,1.9-6.5,3.5c-1.1,1-2.3,2.1-1.8,3.8
			C620,283.6,621.3,284.6,622.9,284.8z"/>
		<path d="M433.2,321.8l1-0.5C433.7,321.2,433.3,321.4,433.2,321.8L433.2,321.8z"/>
		<path d="M699,148L699,148L699,148z"/>
	</g>
</g>
</svg>
