<?xml version="1.0" standalone="no"?>
<!DOCTYPE svg PUBLIC "-//W3C//DTD SVG 20010904//EN"
 "http://www.w3.org/TR/2001/REC-SVG-20010904/DTD/svg10.dtd">
<svg version="1.0" xmlns="http://www.w3.org/2000/svg"
 width="850.000000pt" height="850.000000pt" viewBox="0 0 850.000000 850.000000"
 preserveAspectRatio="xMidYMid meet">
<metadata>
Created by potrace 1.14, written by Peter Selinger 2001-2017
</metadata>
<g transform="translate(0.000000,850.000000) scale(0.100000,-0.100000)"
fill="#000000" stroke="none">
<path d="M6236 6569 c-15 -11 -44 -46 -65 -77 -21 -32 -65 -84 -98 -118 -53
-55 -64 -74 -111 -197 -29 -74 -66 -153 -81 -174 -28 -39 -30 -40 -106 -46
-61 -4 -93 -13 -153 -43 -83 -40 -155 -53 -292 -53 -95 -1 -121 4 -300 55
-187 52 -261 77 -410 134 -159 61 -243 73 -300 43 -20 -10 -36 -27 -38 -39 -4
-28 33 -109 101 -223 72 -119 77 -143 43 -217 -28 -61 -24 -80 17 -86 21 -3
22 -8 19 -75 -2 -78 5 -87 47 -61 10 6 25 9 33 5 20 -7 81 -115 75 -131 -4 -9
-51 -15 -161 -19 -130 -5 -163 -3 -199 10 -32 12 -85 17 -222 19 -99 1 -210 6
-248 11 -75 10 -92 5 -83 -25 4 -13 1 -22 -9 -26 -40 -15 -270 -48 -356 -50
-88 -3 -101 -6 -166 -40 -39 -21 -99 -61 -134 -89 -35 -29 -77 -62 -94 -73
-56 -38 -266 -115 -398 -144 -72 -17 -135 -34 -140 -39 -10 -10 80 -61 108
-61 8 0 15 -3 15 -6 0 -11 -51 -48 -109 -79 -50 -27 -121 -101 -121 -126 0 -5
11 -9 24 -9 22 0 23 -2 16 -41 -8 -43 -40 -83 -104 -130 -34 -25 -48 -29 -109
-29 -54 0 -96 -8 -181 -37 -109 -36 -114 -36 -286 -39 -326 -4 -482 -65 -573
-225 -32 -57 -75 -94 -142 -124 -50 -22 -115 -86 -115 -112 0 -7 11 -13 25
-13 30 0 30 0 4 -53 -36 -71 -64 -101 -146 -157 -81 -55 -143 -108 -143 -122
0 -4 11 -8 25 -8 13 0 47 -9 75 -20 28 -11 74 -20 103 -20 l52 0 -30 -24 c-33
-27 -32 -27 -165 -89 -66 -31 -117 -65 -166 -109 -39 -34 -99 -85 -134 -113
-56 -45 -67 -60 -106 -145 -56 -122 -59 -183 -14 -277 31 -66 39 -73 60 -48 9
11 16 13 24 5 5 -5 22 -10 38 -10 19 0 34 -9 50 -30 19 -26 28 -30 70 -30 27
0 65 -7 85 -15 46 -19 112 -19 161 0 29 12 45 13 66 5 15 -5 57 -10 92 -10 44
0 81 -7 115 -21 44 -19 51 -20 72 -6 21 13 25 13 50 -9 39 -33 67 -31 95 9 13
19 44 44 72 57 l49 23 103 -33 c57 -18 129 -44 162 -57 69 -29 110 -28 114 3
2 17 8 21 24 16 11 -2 50 1 87 8 66 12 67 12 130 -20 51 -25 71 -30 100 -25
50 8 191 58 191 67 0 4 -9 12 -21 19 -38 20 -6 29 61 17 36 -6 128 -12 205
-13 77 -1 183 -5 236 -10 85 -7 104 -5 162 14 73 25 86 35 61 49 -29 16 -1 20
66 10 45 -7 90 -7 145 1 44 6 139 16 210 22 72 6 157 20 190 30 162 51 288 60
468 34 220 -32 297 -57 381 -124 31 -24 44 -29 65 -23 54 15 137 5 187 -22 31
-16 97 -35 183 -51 75 -14 173 -41 225 -61 61 -25 115 -39 166 -43 41 -4 85
-12 98 -19 13 -8 36 -10 56 -7 22 5 44 1 63 -9 20 -10 54 -15 99 -14 44 1 80
-4 99 -14 17 -8 48 -18 70 -21 26 -3 71 -26 130 -65 93 -62 190 -102 248 -102
19 0 56 -7 83 -15 67 -20 130 -19 208 5 63 20 67 20 98 4 51 -27 177 -24 253
6 46 18 76 23 128 21 93 -3 166 31 208 97 40 63 46 115 19 181 -24 62 -19 71
40 71 56 -1 113 -17 130 -39 8 -11 33 -22 55 -26 78 -12 85 -15 85 -35 0 -14
11 -22 38 -29 53 -15 78 -14 148 10 68 23 71 23 214 -30 73 -27 126 -26 206 4
36 14 83 25 103 25 20 1 58 9 86 18 59 20 89 59 100 129 4 26 15 64 26 85 45
88 8 182 -103 264 -66 48 -229 105 -373 130 -93 17 -305 112 -305 138 0 8 14
31 30 49 32 37 37 56 19 74 -9 9 -4 21 19 47 30 34 50 91 37 104 -3 4 -21 12
-38 18 l-32 12 29 11 c19 8 39 8 63 2 l36 -10 -5 77 c-4 55 -13 93 -32 134
l-27 56 21 61 c31 92 25 183 -10 161 -33 -21 -50 -12 -50 26 0 19 -9 55 -20
80 -11 24 -25 66 -30 92 -5 27 -17 68 -26 91 -15 37 -15 49 -4 97 10 42 11 57
2 66 -18 18 -15 36 15 74 l27 36 -32 29 c-18 17 -32 35 -32 40 0 6 -14 23 -31
38 -26 24 -29 32 -20 49 15 27 14 32 -4 32 -9 0 -20 11 -27 25 -12 28 0 50 33
60 25 8 25 60 1 96 -44 67 -85 114 -117 136 -19 13 -35 25 -35 26 0 1 4 17 9
35 15 50 6 64 -38 56 l-36 -7 46 50 c80 86 85 113 21 113 -43 0 -131 22 -185
47 -33 14 -38 21 -34 42 4 17 -3 35 -19 54 -31 36 -30 54 1 79 l26 20 -77 44
c-43 24 -79 46 -81 48 -3 3 7 25 22 50 30 51 28 62 -16 71 -19 4 -34 16 -39
30 -5 12 -23 33 -40 45 -51 37 -90 106 -90 161 0 28 -10 69 -25 103 -13 30
-36 97 -51 148 -32 117 -62 173 -136 253 -42 46 -79 74 -130 100 -82 41 -132
45 -172 14z m203 -102 c59 -46 121 -119 152 -179 11 -21 26 -73 33 -116 8 -43
28 -110 45 -149 17 -39 31 -86 31 -103 0 -18 14 -59 32 -90 l32 -58 -28 -66
c-35 -82 -47 -91 -40 -29 9 86 -28 256 -79 358 -25 50 -57 128 -72 175 -32 97
-63 147 -129 208 -71 66 -109 59 -208 -36 -26 -25 -50 -43 -53 -40 -15 15 27
79 77 116 97 74 121 75 207 9z m-69 -34 c37 -24 80 -65 80 -76 0 -5 -22 10
-50 33 -54 45 -52 46 -121 -12 -64 -53 -92 -50 -49 5 16 21 92 67 110 67 3 0
17 -7 30 -17z m28 -64 c26 -26 47 -39 57 -36 19 8 50 -36 41 -58 -12 -33 -36
-27 -95 24 -32 28 -61 51 -64 51 -3 0 -34 -23 -67 -51 l-62 -51 -23 22 c-20
19 -22 25 -12 42 8 13 19 17 35 13 17 -4 37 6 80 40 31 24 59 45 63 45 3 0 24
-19 47 -41z m-264 -36 c-4 -21 -19 -63 -34 -93 -15 -30 -40 -96 -55 -145 -14
-50 -42 -140 -61 -201 -38 -126 -41 -150 -18 -175 15 -17 15 -20 -5 -45 -26
-33 -27 -56 -2 -78 26 -23 69 -6 82 34 17 49 29 24 29 -60 0 -43 5 -114 11
-157 11 -79 67 -295 92 -349 23 -52 59 -104 71 -104 26 0 209 185 280 283 59
82 92 143 163 301 48 110 94 201 101 204 9 3 11 -3 7 -21 -8 -28 24 -57 62
-57 33 0 36 -16 6 -38 l-27 -19 21 -27 c28 -35 21 -62 -62 -231 -86 -175 -195
-318 -339 -444 -61 -53 -145 -129 -189 -170 -43 -40 -80 -71 -83 -69 -2 3 -15
37 -28 76 l-25 72 25 60 c13 33 24 62 24 64 0 3 -28 8 -61 12 l-61 7 -24 51
c-67 148 -105 346 -111 586 -4 161 -2 200 17 300 20 111 68 258 112 343 24 48
76 127 84 127 3 0 2 -17 -2 -37z m261 -53 c53 -54 68 -59 96 -34 17 16 19 15
29 -10 11 -30 4 -50 -29 -80 -22 -20 -22 -20 -74 32 -29 29 -59 52 -67 52 -8
0 -38 -23 -67 -52 l-53 -52 -50 49 c-27 27 -50 55 -50 62 0 23 22 25 51 3 l30
-21 62 50 c34 28 64 51 67 51 3 0 28 -22 55 -50z m-170 -160 c6 0 34 23 63 50
29 28 57 50 62 50 4 0 33 -22 63 -50 30 -27 59 -50 65 -50 6 0 21 14 33 32
l23 31 13 -39 c13 -38 13 -38 -27 -78 l-40 -41 -63 63 -63 62 -59 -60 -59 -60
-61 60 c-33 33 -66 60 -73 60 -15 0 -15 12 0 45 l12 26 51 -51 c28 -27 55 -50
60 -50z m-53 -50 c29 -33 56 -60 60 -60 4 0 35 26 68 57 l62 57 59 -64 60 -64
37 37 c44 43 55 45 70 13 12 -28 9 -33 -61 -97 l-49 -43 -58 64 -58 65 -59
-57 c-32 -32 -62 -58 -66 -58 -4 0 -34 28 -66 63 l-59 62 -34 -32 c-19 -18
-36 -33 -40 -33 -9 0 26 116 41 134 22 26 37 19 93 -44z m-1730 -35 c43 -29
46 -30 69 -9 14 13 21 13 41 3 13 -6 25 -13 27 -16 3 -2 -15 -23 -39 -48 l-43
-44 -61 47 c-101 79 -93 70 -76 82 23 15 42 12 82 -15z m50 3 c-9 -9 -42 -1
-42 12 0 4 12 5 26 2 15 -3 22 -8 16 -14z m1742 -138 c6 0 34 23 61 50 27 28
54 50 60 50 6 0 35 -25 65 -55 30 -30 59 -55 65 -55 6 0 33 23 60 50 54 55 69
60 85 31 8 -16 41 -163 40 -181 0 -3 -18 15 -40 40 l-40 45 -51 -58 -52 -59
-63 69 -64 68 -58 -64 c-32 -35 -63 -61 -69 -58 -5 3 -32 36 -59 71 -27 36
-56 66 -64 66 -8 0 -41 -26 -74 -57 -33 -33 -56 -49 -52 -38 4 11 15 44 24 74
13 40 28 64 61 93 l45 39 54 -61 c29 -33 59 -60 66 -60z m-1781 33 c16 -13 36
-23 44 -23 9 0 36 20 61 45 24 25 46 45 48 45 2 0 49 -30 104 -67 l100 -66
-22 -24 c-27 -28 -40 -29 -64 -2 -10 12 -36 35 -57 51 l-37 30 -60 -52 -59
-52 -58 47 c-56 46 -103 106 -103 134 0 13 32 -7 103 -66z m322 20 c39 -14
103 -48 144 -75 81 -56 192 -107 232 -108 14 0 34 7 45 15 30 23 91 19 105 -6
15 -28 -4 -94 -31 -109 -39 -21 -136 -2 -209 41 -48 28 -411 279 -411 285 0 2
12 -1 28 -7 15 -6 59 -22 97 -36z m1135 -114 c-30 -242 4 -539 89 -781 17 -47
31 -89 31 -92 0 -3 -24 -6 -54 -6 l-55 0 -41 108 c-23 59 -53 161 -67 227 -23
111 -24 135 -20 320 3 110 11 221 17 248 11 44 14 47 43 47 18 0 39 4 47 10 8
5 16 7 18 6 1 -2 -2 -41 -8 -87z m-796 9 c70 -28 84 -48 33 -48 -48 0 -105 22
-171 66 -31 20 -56 38 -56 40 0 5 135 -35 194 -58z m619 35 c-14 -50 -6 -140
16 -186 13 -27 21 -62 21 -93 l-1 -49 -19 24 c-68 81 -81 330 -17 331 4 0 4
-12 0 -27z m63 -5 c-4 -18 -10 -63 -13 -100 -3 -38 -10 -68 -14 -68 -10 0 -29
66 -29 100 0 14 5 42 11 63 7 27 15 37 31 37 18 0 20 -4 14 -32z m-1104 -28
c31 -27 60 -50 64 -50 4 0 21 12 36 27 28 26 29 27 56 11 49 -30 50 -43 7 -88
-56 -58 -66 -58 -139 -6 -36 25 -69 46 -74 46 -5 0 -31 -25 -57 -56 -39 -45
-50 -53 -60 -42 -19 20 -116 178 -109 178 3 0 26 -16 51 -35 l45 -35 37 29
c20 16 45 38 55 50 11 12 22 21 26 21 3 0 31 -22 62 -50z m1477 -30 c30 -38
61 -70 70 -70 8 0 39 26 68 58 l53 57 65 -70 c40 -42 69 -66 73 -59 19 28 85
104 91 104 4 0 26 -23 49 -51 31 -38 42 -61 42 -85 0 -19 -2 -34 -5 -34 -3 0
-22 19 -42 41 l-38 42 -53 -59 -53 -59 -64 68 c-63 67 -64 68 -88 52 -13 -8
-43 -38 -66 -65 -23 -28 -45 -50 -49 -50 -4 0 -15 12 -24 28 -10 15 -35 47
-56 71 l-39 45 -47 -39 c-47 -38 -47 -38 -67 -18 -20 20 -20 20 53 91 40 39
73 72 74 72 0 0 24 -31 53 -70z m-491 -27 c0 -97 21 -171 67 -233 17 -23 25
-47 25 -74 l0 -39 -26 24 c-55 52 -124 244 -124 348 0 31 22 61 45 61 11 0 14
-20 13 -87z m-67 0 c0 -27 8 -78 18 -116 9 -37 15 -69 13 -72 -3 -3 -22 -5
-42 -5 l-37 0 -6 88 c-4 48 -9 99 -13 114 -5 20 -2 27 13 31 48 13 53 9 54
-40z m-82 -4 c14 -40 14 -150 0 -209 -14 -60 -46 -100 -109 -134 -47 -25 -60
-28 -120 -24 -94 7 -250 80 -250 118 0 39 15 40 95 5 96 -42 164 -46 226 -14
69 35 98 138 65 232 -11 28 -11 39 -3 42 7 2 19 6 27 8 39 14 58 7 69 -24z
m-115 -29 c34 -86 11 -180 -54 -212 -48 -25 -117 -22 -195 6 -81 29 -99 45
-119 103 -15 44 -15 44 7 37 12 -4 43 -17 69 -30 50 -26 118 -31 163 -14 34
13 58 69 49 116 -6 33 -6 34 29 34 31 0 36 -4 51 -40z m-374 -157 c0 -22 -3
-42 -6 -46 -3 -3 -33 26 -65 64 -33 38 -63 69 -67 69 -3 0 -31 -25 -62 -55
l-55 -55 -63 57 -63 56 -42 -47 -42 -48 -17 30 -18 29 48 56 c26 31 51 56 56
56 5 1 37 -20 72 -45 41 -29 71 -43 82 -40 10 3 38 26 62 51 l45 46 68 -69
c60 -62 67 -74 67 -109z m1123 78 c26 -35 46 -65 44 -68 -3 -2 -43 15 -91 39
l-86 42 27 28 c15 16 34 27 43 26 8 -2 37 -32 63 -67z m350 -51 c12 14 35 41
50 60 l29 34 38 -40 c30 -30 39 -47 39 -74 1 -19 -4 -42 -9 -50 -7 -12 -14
-10 -40 15 l-32 30 -46 -53 -47 -53 -69 70 -69 70 -34 -29 c-29 -26 -36 -28
-58 -18 -14 6 -25 18 -25 25 0 8 25 39 56 70 l56 56 69 -69 70 -69 22 25z
m-1905 -130 c79 -145 185 -250 253 -250 15 0 37 9 50 19 22 17 23 22 13 60
-10 37 -9 42 13 63 l25 23 23 -27 c26 -31 41 -100 31 -151 -23 -123 -188 -106
-301 30 -83 101 -93 114 -161 220 -63 99 -65 104 -58 149 l7 47 24 -39 c13
-21 49 -86 81 -144z m1407 130 c-22 -24 -43 -26 -52 -3 -4 10 2 23 17 35 21
17 25 17 39 4 13 -14 13 -18 -4 -36z m-1051 -29 c59 -72 63 -80 45 -98 -9 -9
-24 2 -60 40 l-49 52 -48 -53 c-26 -28 -52 -52 -59 -52 -6 0 -35 27 -63 60
l-52 61 -34 -26 c-32 -24 -54 -26 -54 -5 0 12 60 80 70 80 5 0 35 -22 67 -49
l58 -48 60 53 c33 30 61 54 61 54 1 0 27 -31 58 -69z m1186 14 c28 -14 50 -29
50 -34 0 -16 -49 -41 -80 -41 -29 0 -30 1 -30 50 0 28 2 50 5 50 3 0 28 -11
55 -25z m279 -72 l73 -66 47 53 47 54 29 -38 29 -38 -27 -24 c-22 -19 -40 -24
-79 -24 -44 0 -64 7 -135 50 -46 28 -88 50 -93 50 -6 0 -10 3 -10 7 0 9 31 43
39 43 4 0 40 -30 80 -67z m-1579 -28 l57 56 40 -48 c42 -50 44 -66 11 -84 -16
-9 -24 -6 -44 12 l-24 23 -45 -44 -44 -43 -50 46 c-52 48 -69 55 -88 36 -9 -9
-16 -3 -29 25 -18 36 -18 36 10 65 l27 28 61 -64 62 -64 56 56z m793 -15 c58
-82 68 -104 43 -94 -13 5 -126 155 -126 168 0 3 6 6 13 6 7 0 38 -36 70 -80z
m22 60 c4 -11 31 -51 61 -88 50 -62 65 -92 47 -92 -15 0 -30 16 -89 95 -81
107 -80 105 -50 105 16 0 27 -7 31 -20z m605 10 c13 -8 13 -14 -4 -45 -25 -46
-78 -78 -130 -79 -39 -1 -41 1 -44 29 -3 29 0 31 43 43 25 7 56 23 68 36 24
26 44 31 67 16z m-696 -48 c11 -15 31 -42 44 -59 24 -32 24 -33 4 -33 -14 0
-30 17 -51 50 -17 28 -31 55 -31 60 0 18 15 10 34 -18z m826 -27 c41 -25 81
-45 88 -45 27 0 9 -20 -28 -30 -49 -13 -94 3 -133 49 -28 34 -36 71 -14 71 6
0 46 -20 87 -45z m541 29 c29 -14 30 -16 13 -29 -18 -13 -18 -14 -1 -32 9 -11
17 -23 17 -27 0 -19 -88 -210 -129 -280 -61 -103 -137 -185 -361 -384 -210
-186 -248 -228 -297 -326 -24 -48 -37 -65 -42 -55 -4 8 -27 76 -51 151 l-43
136 32 51 c18 28 37 51 41 51 9 0 20 -32 40 -107 6 -24 15 -43 20 -43 5 0 21
16 36 35 14 19 100 101 191 181 215 191 312 310 398 489 34 72 68 147 76 168
15 42 18 43 60 21z m-1859 -52 c43 -47 103 -147 124 -203 52 -143 -12 -298
-143 -345 -87 -31 -228 -10 -292 44 l-35 29 23 36 c12 21 24 37 26 37 2 0 27
-12 56 -27 43 -23 66 -28 124 -28 63 0 76 3 108 28 53 40 71 80 72 157 0 75
-29 146 -95 228 -29 37 -35 53 -28 65 13 24 22 21 60 -21z m468 7 c12 -16 19
-33 16 -36 -10 -10 -55 38 -49 53 7 19 9 18 33 -17z m764 -26 c29 -32 29 -33
11 -53 -50 -55 -121 15 -74 74 12 15 24 24 28 19 3 -4 19 -23 35 -40z m-1567
-38 c28 -25 54 -45 58 -45 4 0 25 18 47 41 l41 41 20 -21 20 -20 -24 -21 c-35
-30 -95 -60 -119 -60 -55 0 -143 87 -118 117 15 19 18 18 75 -32z m285 8 c15
-16 43 -66 63 -112 29 -66 36 -93 33 -126 -16 -140 -130 -197 -269 -133 -30
14 -85 53 -122 88 -57 53 -67 67 -67 96 0 19 2 34 5 34 2 0 27 -23 55 -51 61
-61 101 -79 178 -79 44 0 66 5 85 20 54 43 59 141 12 231 -22 42 -23 59 -5 59
3 0 18 -12 32 -27z m453 7 c-2 -4 -32 -18 -65 -30 -44 -16 -64 -20 -72 -12 -7
7 1 14 28 21 22 7 50 18 63 25 25 14 55 11 46 -4z m-240 -16 c35 -10 84 -34
120 -59 59 -43 214 -125 234 -125 26 0 7 -22 -42 -50 -161 -90 -269 -255 -298
-455 -24 -163 53 -330 183 -396 51 -26 184 -69 216 -69 27 0 27 1 3 -83 -23
-78 -54 -266 -49 -293 3 -17 -5 -19 -57 -22 -71 -4 -130 16 -169 57 -25 27
-27 32 -17 67 6 22 11 53 11 69 0 24 7 34 38 50 32 18 37 25 40 62 2 32 -2 46
-19 62 -28 26 -36 26 -136 1 -52 -14 -105 -20 -145 -18 l-65 3 30 100 c38 131
49 302 23 369 -35 91 -138 143 -264 133 -75 -6 -99 -21 -58 -37 19 -7 34 -27
55 -73 40 -90 113 -149 200 -163 52 -8 52 -7 1 -212 -22 -88 -40 -169 -40
-180 0 -40 22 -70 64 -86 24 -9 48 -28 57 -43 8 -16 46 -46 83 -67 75 -44 89
-62 61 -82 -27 -20 -82 -17 -130 6 -40 19 -46 27 -85 110 -4 8 -15 16 -24 18
-21 5 -20 -22 3 -73 28 -62 69 -91 151 -106 61 -11 73 -17 95 -45 16 -21 54
-47 98 -69 l73 -34 117 6 117 6 0 -111 0 -112 -65 0 c-156 0 -259 -90 -272
-239 -6 -64 18 -179 47 -228 l19 -33 -27 -6 c-15 -4 -43 -19 -62 -34 -39 -30
-80 -53 -85 -48 -2 2 -10 44 -19 93 -22 119 -59 258 -85 319 -20 44 -23 48
-49 41 -113 -28 -353 -188 -501 -334 -62 -62 -159 -216 -198 -315 l-24 -64
-72 35 c-40 19 -83 40 -97 47 -34 16 -87 97 -106 164 -27 90 -5 247 45 328
l19 31 63 -9 c110 -16 277 -13 358 7 77 18 189 61 318 120 75 35 398 269 398
289 0 15 -151 107 -270 165 -164 80 -282 123 -378 137 -50 7 -92 15 -94 18 -2
2 15 26 38 52 75 87 169 246 197 334 19 59 61 295 54 301 -7 6 -115 -3 -194
-16 l-38 -7 0 39 c1 21 7 49 15 63 8 14 15 43 15 65 1 22 8 56 15 75 l13 35 1
-37 c1 -28 7 -42 26 -54 29 -19 53 -13 85 21 21 22 22 27 10 55 -21 50 -67 65
-103 33 -19 -18 -19 -17 -12 17 4 19 10 38 14 42 3 4 30 -8 60 -27 87 -55 191
-69 291 -39 110 33 176 144 167 283 -3 62 -11 87 -50 163 -41 81 -44 89 -24
84 12 -4 49 -14 82 -22z m982 -11 c23 -49 66 -56 109 -20 52 44 97 4 58 -51
-35 -51 -113 -67 -156 -32 -31 23 -61 94 -53 121 9 28 21 23 42 -18z m383 30
c0 -14 -40 -73 -49 -73 -4 0 -21 10 -36 22 l-28 22 23 18 c22 17 90 26 90 11z
m-1046 -11 c7 -11 -162 -77 -171 -67 -5 4 -3 9 2 11 6 2 37 17 70 33 62 30 90
37 99 23z m596 -29 c-1 -16 -9 -43 -19 -62 -18 -34 -19 -34 -26 -12 -4 13 -3
33 3 45 6 11 13 29 16 39 9 27 26 20 26 -10z m-525 8 c-20 -18 -187 -81 -198
-74 -15 9 140 81 178 82 17 1 25 -3 20 -8z m867 -26 c16 -14 36 -25 44 -25 18
0 17 -20 -2 -45 -14 -19 -15 -19 -49 -1 -32 18 -69 72 -59 88 9 15 36 8 66
-17z m-802 10 c0 -12 -190 -97 -205 -92 -28 11 -15 22 73 59 80 33 132 46 132
33z m60 -25 c0 -5 -3 -10 -8 -10 -4 0 -43 -20 -86 -45 -44 -25 -87 -45 -97
-45 -44 0 -23 23 58 64 85 44 133 56 133 36z m1240 -27 c0 -27 -50 -97 -81
-114 -16 -8 -12 6 21 71 40 79 60 94 60 43z m-2096 -7 c10 -40 -2 -56 -43 -56
-20 0 -44 7 -54 15 -18 13 -16 15 30 39 60 31 60 31 67 2z m886 5 c0 -28 -131
-104 -160 -93 -20 7 -20 9 -6 21 13 11 155 90 164 91 1 0 2 -8 2 -19z m410
-33 c0 -14 -52 -68 -61 -62 -16 9 -10 44 13 74 20 27 22 28 34 12 7 -9 14 -20
14 -24z m310 -37 c0 -3 -10 -15 -22 -28 -25 -27 -64 -30 -96 -7 -29 20 -28 52
4 85 l27 28 43 -37 c24 -20 44 -38 44 -41z m550 11 l23 -18 -62 -23 c-35 -12
-64 -21 -67 -19 -7 7 57 78 71 78 7 0 23 -8 35 -18z m-826 2 c33 -13 3 -99
-44 -124 -25 -13 -24 -14 -38 27 -9 28 -8 33 8 38 11 3 27 19 37 36 9 16 18
29 19 29 1 0 9 -3 18 -6z m-429 -35 c9 -27 2 -33 -65 -54 -81 -26 -120 -48
-176 -99 -78 -69 -131 -145 -171 -242 -31 -76 -36 -101 -37 -169 0 -69 4 -88
28 -135 61 -118 114 -161 222 -181 114 -21 276 28 406 122 l68 49 6 -27 c6
-22 1 -32 -27 -56 -107 -92 -240 -154 -349 -163 -99 -8 -246 37 -313 97 -60
52 -119 170 -125 251 -11 139 72 343 181 444 75 71 169 129 257 160 81 29 87
29 95 3z m545 12 c0 -16 53 -61 71 -61 39 0 12 -50 -28 -53 -54 -4 -126 65
-110 107 7 17 67 24 67 7z m-2367 -30 c7 -7 -36 -222 -50 -244 -6 -10 -50 196
-52 243 -1 12 9 14 47 12 26 -2 50 -7 55 -11z m234 9 c27 -10 53 -44 53 -71 0
-5 -25 7 -55 27 -73 49 -72 69 2 44z m2943 2 c0 -5 -21 -14 -47 -20 -27 -7
-95 -33 -153 -57 -114 -49 -129 -53 -109 -29 41 50 309 142 309 106z m-3287
-79 c31 -150 40 -204 33 -210 -19 -20 -233 67 -220 89 20 33 155 198 163 198
4 0 15 -35 24 -77z m231 61 c3 -9 9 -55 12 -102 l6 -87 -51 90 c-28 50 -50 93
-51 97 -1 20 76 22 84 2z m3146 -9 c0 -19 -23 -28 -120 -49 -42 -9 -124 -40
-187 -70 -92 -45 -114 -52 -128 -42 -14 10 2 20 102 69 112 54 262 105 311
106 13 1 22 -5 22 -14z m-3511 -72 c-48 -59 -54 -64 -57 -44 -2 13 -1 39 3 57
4 26 12 35 33 40 15 3 36 9 47 13 11 5 22 7 24 5 2 -2 -21 -34 -50 -71z m478
25 l76 -52 -53 -48 c-48 -43 -86 -66 -94 -56 -6 7 -16 208 -10 208 3 0 40 -24
81 -52z m118 12 c-19 -37 -28 -38 -43 -5 -16 35 -16 35 23 35 l36 0 -16 -30z
m1999 -81 c-22 -45 -82 -54 -108 -17 -22 32 -20 54 10 93 l25 33 43 -41 c40
-40 42 -44 30 -68z m-1924 86 c10 -12 10 -21 2 -41 -10 -21 -15 -23 -32 -14
-21 11 -25 27 -14 54 8 20 28 20 44 1z m200 -40 c0 -56 8 -67 30 -40 18 22 32
18 28 -9 -1 -13 4 -31 11 -40 12 -14 11 -23 -9 -66 -13 -28 -26 -50 -29 -50
-11 0 -151 242 -145 251 3 5 30 9 60 9 l54 0 0 -55z m-950 6 c0 -21 -3 -52 -6
-69 l-6 -31 -37 19 c-62 34 -76 47 -62 64 12 14 89 56 104 56 4 0 7 -17 7 -39z
m416 -69 c54 -105 54 -104 -29 -122 -73 -15 -99 -13 -93 8 3 9 15 58 26 107
25 112 29 121 39 109 4 -5 30 -51 57 -102z m1752 83 c2 -17 -7 -24 -45 -38
-26 -9 -87 -42 -134 -72 -179 -114 -254 -294 -189 -455 43 -108 120 -154 249
-148 93 4 173 39 273 122 l66 55 12 -32 c10 -31 9 -34 -32 -69 -141 -120 -329
-176 -456 -134 -139 46 -227 216 -192 371 20 91 88 214 160 286 109 111 279
178 288 114z m-1265 -137 c48 -80 67 -120 67 -145 0 -19 -4 -32 -9 -29 -12 8
-181 280 -181 292 0 6 6 16 13 23 14 14 13 16 110 -141z m-1093 125 c0 -5 -9
-19 -19 -33 -19 -24 -20 -24 -40 -6 -27 24 -26 34 2 39 38 7 57 7 57 0z m3680
-24 c-19 -16 -65 -38 -101 -49 -36 -11 -93 -33 -125 -50 -68 -34 -74 -35 -74
-15 0 19 121 80 230 116 107 35 113 35 70 -2z m-3766 -11 l26 -33 -23 -17
c-34 -26 -167 -101 -172 -97 -2 3 18 40 45 83 68 109 82 117 124 64z m-107 0
c-38 -54 -109 -179 -104 -184 6 -6 61 21 163 81 82 49 95 52 114 31 9 -12 4
-19 -29 -41 -39 -24 -332 -157 -337 -152 -4 5 135 243 155 265 11 12 28 22 37
22 15 0 15 -2 1 -22z m1085 5 c22 -20 23 -36 2 -54 -14 -11 -19 -10 -35 10
-15 18 -16 26 -6 42 14 23 16 23 39 2z m-847 -6 c17 -13 17 -15 -5 -45 -22
-29 -24 -30 -46 -15 -29 19 -29 17 -2 48 25 29 28 30 53 12z m2343 -35 c-2 -8
-45 -37 -97 -66 -108 -59 -192 -136 -235 -215 -24 -45 -28 -61 -24 -112 7 -99
61 -148 173 -156 59 -5 69 -3 162 41 55 25 104 46 110 46 5 0 27 11 48 25 60
41 54 19 -11 -41 -35 -33 -93 -72 -142 -97 -73 -36 -92 -41 -150 -41 -106 1
-170 42 -213 139 -50 111 -21 240 77 345 55 59 158 130 229 159 46 18 51 18
63 3 7 -9 11 -23 10 -30z m-1337 -105 c45 -73 89 -143 98 -157 l16 -25 -35 22
c-19 12 -87 51 -150 88 -63 36 -119 70 -123 75 -10 9 94 141 105 134 4 -3 44
-64 89 -137z m-1338 106 c-12 -32 -104 -198 -117 -211 -10 -10 -18 -3 -40 39
-16 28 -24 54 -20 58 87 71 166 130 176 131 4 0 4 -8 1 -17z m1137 -18 c12
-23 11 -28 -10 -50 -30 -31 -36 -31 -53 2 -13 24 -12 28 12 49 33 29 35 29 51
-1z m-742 3 c7 -9 4 -21 -13 -42 -19 -24 -25 -27 -44 -17 -26 15 -26 19 1 48
24 26 41 29 56 11z m3547 -10 c25 -11 22 -13 -65 -44 -50 -18 -111 -44 -136
-59 -36 -21 -48 -24 -60 -15 -8 7 -14 16 -14 20 0 13 90 62 160 87 76 26 81
27 115 11z m-3491 -21 c17 -12 17 -15 0 -50 -20 -43 -24 -44 -55 -18 l-23 18
25 31 c28 36 29 36 53 19z m2249 -7 c3 -10 0 -23 -7 -28 -20 -17 -90 -49 -143
-66 -99 -33 -179 -132 -198 -246 -7 -41 -8 -43 -17 -21 -33 89 88 245 257 334
50 25 93 46 96 47 4 0 9 -9 12 -20z m392 -12 c-27 -21 -45 -17 -45 11 0 14 7
16 35 13 l35 -4 -25 -20z m965 27 c0 -4 -7 -19 -15 -34 -14 -28 -36 -37 -222
-92 -32 -9 -40 -15 -34 -27 17 -30 208 -196 246 -213 22 -10 63 -19 91 -19 52
0 52 0 56 -35 5 -44 3 -45 -41 -44 -83 2 -166 57 -326 220 l-109 110 35 21
c47 29 139 67 229 94 82 25 90 27 90 19z m-414 -30 c13 -20 14 -28 4 -40 -7
-8 -18 -15 -25 -15 -13 0 -35 41 -35 65 0 24 38 17 56 -10z m-2577 -12 c11
-24 10 -29 -11 -45 -30 -23 -36 -23 -50 7 -9 21 -8 27 13 44 31 26 34 26 48
-6z m-747 -125 c-7 -62 -18 -131 -23 -154 -6 -23 -9 -54 -7 -70 3 -28 5 -27
72 51 38 44 84 104 103 133 34 52 46 59 72 43 12 -8 12 -13 -2 -35 -52 -79
-270 -316 -281 -305 -5 5 32 445 40 468 4 12 8 12 21 -2 15 -15 16 -27 5 -129z
m202 123 c6 -9 -20 -81 -30 -81 -3 0 -14 5 -24 10 -19 10 -19 11 1 45 20 34
42 44 53 26z m3066 -44 c0 -5 -7 -4 -15 3 -8 7 -15 20 -15 29 1 13 3 13 15 -3
8 -11 15 -24 15 -29z m-3320 13 c0 -12 -7 -78 -15 -148 -8 -70 -17 -162 -20
-204 -4 -43 -10 -78 -15 -78 -35 0 -316 258 -307 283 3 10 326 164 350 166 4
1 7 -8 7 -19z m320 -11 c0 -12 -29 -69 -34 -69 -3 0 -11 3 -20 6 -20 8 -20 27
-1 65 13 25 19 28 35 19 11 -6 20 -15 20 -21z m-110 -62 c0 -11 -133 -189
-155 -207 -14 -12 -16 -11 -11 11 5 22 36 254 36 270 0 5 29 -9 65 -29 36 -20
65 -41 65 -45z m515 56 c5 -20 2 -31 -12 -41 -16 -12 -19 -10 -27 18 -7 24 -6
34 5 41 22 14 26 11 34 -18z m318 -92 c115 -68 147 -98 105 -95 -25 2 -319
195 -312 205 6 11 6 11 207 -110z m2260 74 c21 -26 27 -40 21 -57 -6 -21 -9
-20 -45 22 -29 33 -35 47 -27 57 15 18 19 16 51 -22z m535 10 c11 -10 3 -13
-40 -18 -29 -3 -80 -15 -113 -28 l-59 -22 49 -44 c37 -32 161 -105 202 -118 0
0 3 -9 5 -20 3 -18 -2 -20 -37 -17 -22 2 -61 15 -88 30 -55 29 -210 169 -204
185 5 15 218 75 247 69 14 -2 31 -10 38 -17z m-3469 6 c18 -12 3 -75 -19 -78
-34 -6 -42 12 -24 50 19 40 22 41 43 28z m-829 -10 c0 -4 -19 -21 -41 -36 -33
-21 -43 -24 -50 -13 -14 21 -11 24 29 41 44 18 62 20 62 8z m1126 -15 c8 -32
-2 -46 -32 -46 -20 0 -24 5 -24 28 0 33 7 42 31 42 11 0 21 -10 25 -24z m-225
4 c6 0 9 -15 7 -32 -3 -29 -7 -33 -37 -36 -28 -3 -33 -1 -27 13 3 9 9 28 12
42 4 16 11 22 21 19 8 -3 19 -6 24 -6z m155 -15 c9 -36 -2 -57 -28 -53 -17 2
-24 11 -26 32 -6 47 43 65 54 21z m218 10 c11 -30 27 -273 24 -370 l-3 -100
-39 75 c-21 41 -70 128 -109 193 -55 92 -67 121 -58 130 16 15 26 2 96 -128
30 -55 61 -109 70 -120 14 -19 15 -14 10 60 -3 44 -10 120 -16 168 -5 48 -7
92 -4 98 9 14 22 11 29 -6z m2600 -18 c15 -24 -4 -51 -38 -55 -24 -3 -26 -1
-26 36 0 21 3 41 6 45 9 9 47 -8 58 -26z m-2890 1 c11 -42 7 -48 -29 -48 -36
0 -44 15 -29 54 10 25 51 20 58 -6z m339 10 c12 -6 78 -48 147 -94 l126 -82 2
-51 c2 -60 -28 -134 -65 -158 -57 -38 -208 -103 -210 -90 -1 6 -7 112 -13 234
-5 122 -13 229 -16 237 -7 19 0 20 29 4z m2443 -81 c13 -42 -14 -33 -60 19
-38 44 -46 58 -35 65 16 9 85 -51 95 -84z m-1962 61 c20 -28 20 -33 0 -52 -20
-21 -60 -21 -68 0 -23 60 33 102 68 52z m1184 -7 c11 -73 -37 -148 -114 -177
-79 -30 -155 10 -170 91 -3 18 -3 42 0 52 6 17 63 53 85 53 5 0 14 -21 21 -47
28 -104 50 -104 50 0 l0 58 63 -3 c57 -3 62 -5 65 -27z m142 21 c0 -17 -93
-159 -128 -195 -72 -75 -157 -96 -252 -62 -23 8 -67 15 -96 15 -52 0 -54 1
-54 28 0 30 39 115 54 116 4 1 17 -23 28 -52 16 -43 27 -56 60 -73 54 -27 154
-24 195 7 52 39 82 94 89 162 l7 62 48 0 c27 0 49 -4 49 -8z m1209 -18 c20
-18 10 -25 -44 -32 -56 -6 -54 -19 8 -50 48 -23 57 -41 34 -60 -17 -15 -117
32 -172 80 l-39 35 24 14 c34 18 131 38 155 32 11 -3 26 -11 34 -19z m-4320 2
c9 -11 3 -20 -30 -46 -33 -27 -43 -30 -50 -19 -14 23 -10 33 24 57 37 26 41
26 56 8z m1221 -127 c9 -90 8 -122 -3 -108 -12 14 -108 201 -106 203 2 2 22
13 44 24 39 20 40 20 47 1 4 -10 12 -64 18 -120z m-1375 95 c-60 -48 -145
-104 -145 -96 0 8 74 73 124 108 40 28 58 18 21 -12z m3838 -29 c41 -47 46
-58 37 -75 -6 -11 -12 -20 -14 -20 -12 0 -106 131 -101 140 12 20 31 9 78 -45z
m333 -88 c158 -148 213 -181 302 -183 72 -1 105 -21 82 -48 -9 -11 -30 -16
-74 -16 -102 0 -148 29 -318 197 -90 89 -144 151 -141 159 3 8 8 14 12 14 3 0
65 -55 137 -123z m-4153 66 c-51 -39 -323 -222 -323 -217 0 14 69 88 95 102
17 8 77 48 134 89 75 52 108 70 115 62 8 -8 2 -18 -21 -36z m171 30 c5 -11 -4
-28 -28 -52 -35 -34 -36 -35 -51 -16 -14 19 -12 22 22 53 42 37 48 39 57 15z
m751 -5 c3 -13 19 -90 36 -173 35 -172 42 -191 58 -155 25 60 89 248 96 280 4
19 12 41 17 48 14 17 38 15 38 -4 0 -18 -149 -426 -160 -437 -9 -10 -23 34
-78 253 -58 229 -55 210 -32 210 12 0 22 -8 25 -22z m2859 -51 c43 -52 47 -60
34 -73 -13 -14 -21 -8 -68 51 -44 55 -50 68 -39 81 6 8 15 11 19 7 3 -4 28
-34 54 -66z m-3999 -39 c-96 -97 -235 -269 -235 -291 0 -16 108 0 201 29 113
35 204 76 306 136 75 44 87 48 100 35 13 -13 6 -20 -59 -60 -138 -86 -299
-147 -451 -172 -50 -8 -104 -17 -119 -20 -33 -5 -34 -1 -8 32 11 14 20 37 20
50 0 36 68 129 148 203 38 35 68 69 66 75 -10 24 72 80 122 84 6 1 -35 -45
-91 -101z m1276 92 c49 0 49 0 43 -27 -9 -39 -74 -234 -86 -256 -5 -10 -12
-17 -14 -14 -9 9 -63 290 -57 299 3 6 19 7 35 4 17 -3 53 -6 79 -6z m3447 -12
c4 -21 -16 -23 -53 -6 -19 8 -22 14 -13 20 21 14 63 5 66 -14z m-3582 -221
c39 -150 54 -221 46 -229 -15 -15 -170 27 -286 79 -55 24 -102 46 -104 48 -3
3 35 48 84 101 49 53 113 125 143 161 29 35 55 63 56 61 2 -2 29 -101 61 -221z
m3038 159 c-17 -45 -61 -7 -49 42 l7 27 23 -28 c14 -15 22 -34 19 -41z m174
-86 c92 -88 175 -159 200 -171 60 -28 161 -36 200 -16 17 8 33 12 36 9 12 -11
5 -40 -15 -66 -18 -23 -27 -26 -82 -26 -103 0 -168 38 -315 183 -68 67 -136
138 -152 157 -27 35 -47 80 -35 80 4 0 77 -68 163 -150z m-363 10 c-13 -21
-34 -8 -74 45 -43 57 -48 71 -29 77 16 6 112 -108 103 -122z m-3717 99 c4 -21
-452 -318 -467 -304 -3 3 5 15 16 27 33 32 427 297 438 294 6 -1 11 -9 13 -17z
m1179 -51 c144 -257 173 -308 173 -313 0 -7 -78 -26 -170 -41 -88 -14 -210
-19 -210 -7 0 15 155 433 160 433 4 0 25 -33 47 -72z m-1013 45 c5 -11 -6 -29
-31 -55 l-38 -38 -17 22 c-16 22 -16 24 14 56 35 35 62 41 72 15z m1904 -10
c6 -9 12 -28 12 -41 0 -30 18 -64 31 -57 5 4 9 17 9 31 0 33 17 30 40 -8 22
-37 27 -97 8 -99 -44 -4 -109 24 -145 63 -26 27 -53 88 -53 119 0 20 4 21 43
15 23 -4 48 -14 55 -23z m1554 -45 c35 -48 42 -77 14 -61 -29 17 -78 84 -72
98 9 24 19 18 58 -37z m-3597 22 c6 -10 -115 -92 -170 -116 -16 -7 -77 -45
-134 -83 -57 -39 -111 -71 -119 -71 -9 0 -12 3 -9 7 7 6 420 273 424 273 1 0
5 -4 8 -10z m183 -12 c7 -10 1 -24 -24 -53 -32 -38 -34 -39 -51 -23 -16 17
-15 20 17 53 37 39 43 41 58 23z m3702 -85 c171 -229 355 -355 521 -357 62 -1
65 -2 61 -24 -6 -29 -36 -36 -126 -29 -57 5 -89 15 -161 51 -49 25 -117 66
-150 93 -64 52 -171 186 -220 276 -25 47 -27 57 -16 71 7 9 15 16 16 16 1 0
35 -44 75 -97z m159 -52 c168 -171 217 -202 333 -209 54 -3 71 -9 89 -28 27
-29 23 -34 -38 -45 -117 -22 -304 75 -431 223 -61 72 -132 165 -132 175 0 10
21 33 29 33 3 0 70 -67 150 -149z m-495 103 c31 -37 30 -50 -2 -40 -24 8 -55
52 -47 66 10 16 18 11 49 -26z m-3524 12 c0 -2 -52 -40 -114 -85 -100 -70
-212 -129 -224 -117 -2 2 36 28 85 57 48 29 122 75 163 101 69 44 90 54 90 44z
m180 -71 c-60 -62 -89 -41 -33 24 32 39 37 41 51 27 15 -14 13 -19 -18 -51z
m3595 -11 c51 -87 96 -338 91 -504 -5 -148 -38 -232 -131 -326 -85 -86 -134
-106 -258 -106 -91 0 -172 23 -240 68 -39 26 -39 26 -20 46 20 19 20 19 55 -5
96 -64 262 -76 350 -24 60 35 104 87 142 167 27 56 31 78 34 160 2 52 -1 151
-6 220 -9 110 -15 138 -52 233 -35 88 -40 110 -30 122 16 19 30 8 65 -51z
m-320 26 c17 -18 17 -21 1 -45 -18 -27 -45 -32 -64 -13 -17 17 -15 38 5 60 21
23 36 23 58 -2z m-3204 -16 c17 -15 17 -18 -9 -50 -29 -37 -52 -43 -72 -19
-11 13 -8 21 20 50 39 40 38 40 61 19z m3427 -6 c4 -21 -33 -59 -51 -52 -8 3
-19 16 -26 30 -10 22 -8 26 12 34 32 13 61 8 65 -12z m-111 -13 c14 -37 -37
-71 -65 -43 -12 12 -16 50 -7 60 9 9 67 -5 72 -17z m-3467 -14 c0 -4 -16 -15
-36 -24 -26 -13 -40 -29 -52 -58 -15 -39 -17 -40 -53 -34 -62 11 -129 -41
-129 -100 0 -20 -7 -19 -37 5 -18 14 -41 20 -75 20 -43 0 -54 -4 -84 -34 -19
-19 -34 -43 -34 -55 0 -26 -7 -26 -33 -3 -13 11 -36 17 -69 17 -42 0 -53 -4
-74 -28 l-24 -28 -32 23 c-18 13 -35 24 -38 26 -16 11 48 42 98 47 220 24 424
95 602 208 50 33 70 38 70 18z m1720 -4 c0 -13 -7 -32 -15 -43 -14 -19 -14
-19 -15 1 0 30 11 65 21 65 5 0 9 -10 9 -23z m-90 -19 c-1 -51 -16 -118 -30
-131 -10 -10 -11 1 -6 48 10 86 16 115 27 115 5 0 9 -15 9 -32z m43 -15 c-3
-27 -12 -55 -20 -63 -14 -13 -15 -10 -9 34 3 27 6 55 6 62 0 8 6 14 14 14 10
0 12 -11 9 -47z m990 32 c43 -1 80 -5 83 -8 14 -14 -54 -42 -113 -45 -62 -4
-153 18 -153 37 0 16 46 30 75 24 17 -3 65 -7 108 -8z m602 -5 c3 -11 -4 -77
-16 -147 -30 -175 -30 -292 0 -360 12 -28 31 -59 41 -68 15 -14 17 -21 8 -41
-15 -33 -31 -30 -66 12 -68 83 -80 222 -36 444 28 145 38 180 53 180 5 0 12
-9 16 -20z m-3060 -1 c9 -14 -37 -80 -54 -77 -24 5 -23 24 4 57 28 33 40 38
50 20z m1377 -42 c-3 -51 -21 -135 -31 -141 -7 -5 6 159 14 183 10 25 19 1 17
-42z m2057 -52 c24 -72 32 -119 40 -240 16 -219 -8 -311 -106 -416 -60 -65
-109 -82 -215 -78 -66 3 -95 10 -140 32 -32 16 -58 33 -58 38 0 19 62 37 94
28 47 -14 116 -11 177 7 74 22 148 96 179 179 20 54 22 72 17 180 -4 83 -14
152 -32 224 -23 88 -25 107 -14 128 7 13 16 20 20 16 4 -5 21 -48 38 -98z
m-3580 51 c21 -22 21 -24 4 -31 -10 -5 -31 -9 -48 -9 -23 -1 -31 -6 -33 -22
-4 -27 -37 -58 -51 -49 -24 14 -9 76 27 118 22 25 74 22 101 -7z m190 10 c10
-11 7 -22 -11 -50 -24 -37 -45 -46 -54 -22 -5 14 34 86 47 86 4 0 12 -6 18
-14z m3130 -101 c39 -171 40 -305 4 -319 -48 -19 -78 79 -70 228 6 110 25 213
36 199 4 -4 18 -53 30 -108z m-1848 -2 c-6 -48 -16 -92 -22 -97 -15 -15 -3
150 14 182 17 36 20 11 8 -85z m228 83 c-11 -10 -49 -16 -49 -8 0 13 44 31 49
20 1 -5 1 -11 0 -12z m1417 -122 c-30 -156 -33 -245 -11 -327 15 -58 49 -121
79 -146 21 -18 11 -31 -24 -31 -19 0 -36 10 -55 31 -48 58 -65 103 -65 177 0
37 -5 73 -11 79 -12 12 10 144 40 243 16 51 59 123 69 115 2 -2 -8 -65 -22
-141z m130 99 c-3 -26 -9 -91 -13 -145 -10 -161 32 -274 96 -253 47 15 53 123
15 309 -14 70 -24 130 -21 132 2 3 14 -3 26 -13 43 -36 79 -334 51 -433 -5
-20 -23 -51 -39 -70 -24 -29 -31 -33 -44 -22 -9 7 -26 10 -40 7 -37 -10 -76
46 -89 127 -10 53 -8 90 11 223 25 180 26 185 42 185 8 0 10 -14 5 -47z m203
-70 c24 -115 28 -296 9 -370 -8 -32 -26 -61 -58 -95 -44 -45 -49 -48 -99 -48
-52 0 -52 0 -37 23 9 12 35 29 58 37 48 17 82 60 99 124 14 52 6 245 -16 345
-12 57 -13 77 -4 88 19 22 26 6 48 -104z m60 35 c25 -88 40 -196 41 -300 0
-134 -55 -235 -155 -282 -44 -21 -185 -35 -185 -19 0 20 25 30 76 30 28 0 64
8 81 17 45 23 91 83 108 140 22 72 19 249 -5 366 -24 117 -24 120 -1 120 14 0
23 -16 40 -72z m-3269 38 c0 -12 -43 -76 -50 -76 -20 0 -20 22 0 50 18 25 50
41 50 26z m1460 -11 c0 -6 -33 -19 -73 -29 -40 -9 -25 11 16 23 38 11 57 13
57 6z m-1636 -27 c24 -34 20 -75 -11 -104 -26 -24 -69 -41 -79 -31 -12 12 8
47 34 60 24 11 27 18 24 55 -3 47 9 54 32 20z m215 13 c15 -10 10 -45 -11 -74
-12 -16 -16 -16 -33 -3 -19 14 -19 14 0 50 21 39 23 40 44 27z m3521 -103 c0
-4 -13 -2 -29 3 -21 7 -34 22 -45 50 -9 22 -16 42 -16 45 0 8 89 -89 90 -98z
m-2379 -23 c-9 -40 -9 -39 -10 22 -1 34 2 70 7 80 11 29 15 -55 3 -102z
m-1590 84 c31 -31 9 -52 -47 -43 -38 5 -43 4 -49 -18 -7 -22 -22 -38 -37 -38
-5 0 -8 14 -8 31 0 69 94 115 141 68z m284 11 c3 -5 2 -17 -3 -26 -8 -14 -10
-12 -14 10 -5 26 5 35 17 16z m230 0 c9 -15 -22 -80 -39 -80 -24 0 -27 17 -9
54 16 35 36 46 48 26z m1343 -2 c-5 -13 -29 -21 -98 -32 -59 -9 -42 10 26 29
63 17 77 18 72 3z m-1788 -73 c-36 -36 -68 -65 -72 -65 -5 0 1 18 12 40 19 37
107 106 119 94 3 -2 -24 -34 -59 -69z m1430 29 c0 -35 -13 -36 -27 -2 -11 25
-11 33 -1 39 15 9 28 -8 28 -37z m-910 -1 c0 -8 -7 -27 -15 -43 -11 -21 -20
-27 -36 -23 -29 8 -32 23 -14 66 14 34 17 36 40 25 14 -6 25 -17 25 -25z
m-470 -51 c-20 -44 -41 -74 -60 -85 -36 -22 -40 -21 -40 2 0 11 12 33 26 48
15 15 42 47 62 71 19 23 37 40 39 38 3 -3 -9 -36 -27 -74z m219 69 c12 -7 10
-20 -12 -73 -39 -99 -57 -203 -56 -335 0 -131 8 -194 25 -200 31 -10 249 293
295 409 11 29 22 55 25 59 6 11 44 -2 44 -15 0 -23 -70 -157 -126 -242 -86
-128 -246 -304 -278 -304 -2 0 -14 25 -26 56 -15 42 -21 80 -21 144 0 136 40
360 83 463 22 50 25 52 47 38z m1124 -43 c14 -33 14 -37 0 -42 -19 -8 -17 -9
-36 35 -11 27 -12 40 -4 48 14 14 21 6 40 -41z m1674 20 c-3 -18 -13 -58 -22
-88 -13 -43 -15 -83 -12 -182 4 -113 3 -129 -13 -143 -17 -15 -19 -13 -36 32
-28 72 -26 240 4 307 44 96 90 139 79 74z m753 -11 c0 -18 -2 -19 -10 -7 -13
20 -13 43 0 35 6 -3 10 -16 10 -28z m-2480 -19 c10 -23 16 -46 14 -50 -13 -20
-33 -4 -47 36 -15 42 -13 49 11 55 2 1 11 -18 22 -41z m440 32 c0 -5 -1 -10
-2 -10 -2 0 -41 -7 -87 -15 -77 -13 -103 -13 -89 0 6 6 126 33 156 34 12 1 22
-3 22 -9z m-1465 -58 c-23 -78 -92 -272 -99 -279 -30 -31 52 284 85 323 21 26
28 4 14 -44z m271 43 c3 -8 1 -30 -6 -49 -11 -33 -13 -34 -41 -24 -34 12 -33
8 -12 53 17 36 49 47 59 20z m-858 -22 c13 -8 22 -22 20 -31 -4 -22 -41 -27
-58 -7 -27 32 -80 12 -80 -32 0 -19 -25 -43 -44 -43 -3 0 -6 17 -6 39 0 82 91
123 168 74z m1564 -22 c14 -44 14 -50 1 -55 -27 -11 -32 -6 -43 35 -22 80 17
98 42 20z m-1117 -55 c-36 -133 -58 -298 -52 -396 5 -95 38 -190 66 -190 9 0
60 45 113 99 103 105 210 257 279 393 38 76 39 77 68 67 27 -9 28 -13 24 -53
-4 -31 0 -51 12 -70 17 -26 17 -26 -10 -26 -18 0 -39 -12 -62 -35 -32 -32 -35
-40 -30 -75 3 -27 1 -40 -6 -40 -73 0 -133 -58 -121 -115 3 -16 10 -34 15 -39
17 -18 9 -26 -20 -20 -29 6 -83 -15 -97 -38 -4 -7 -10 -28 -13 -47 -6 -34 -7
-35 -53 -36 -59 -1 -98 -33 -98 -81 0 -32 -1 -32 -39 -27 -21 3 -47 0 -59 -6
-14 -8 -29 -8 -51 0 -35 12 -36 16 -16 43 20 26 19 61 -1 96 -16 26 -16 29 6
59 26 38 28 86 5 131 l-17 33 31 24 c38 30 42 80 10 133 -20 32 -20 35 -4 45
78 45 98 92 68 154 l-19 39 45 34 c25 19 47 34 48 34 1 -1 -9 -41 -22 -90z
m166 -8 c-13 -46 -43 -146 -68 -223 -36 -111 -47 -135 -54 -118 -9 25 -2 52
71 275 33 100 59 163 64 158 6 -6 0 -42 -13 -92z m319 81 c0 -6 -6 -25 -14
-44 -11 -27 -19 -32 -35 -28 -25 6 -26 13 -7 58 11 27 19 32 35 28 12 -3 21
-9 21 -14z m-752 -30 c-12 -22 -31 -45 -40 -50 -22 -12 -22 -7 -2 34 23 44 34
57 51 57 11 0 9 -9 -9 -41z m1323 2 c14 -47 7 -71 -20 -71 -15 0 -22 11 -29
47 -12 53 -9 63 18 63 14 0 23 -11 31 -39z m528 29 c-20 -11 -150 -40 -182
-40 -68 0 99 45 178 49 17 0 18 -1 4 -9z m1201 -11 c-12 -22 -74 -53 -93 -46
-8 2 84 63 101 66 1 1 -2 -8 -8 -20z m166 -11 c-4 -18 -13 -86 -20 -150 -18
-157 -45 -192 -61 -77 -11 76 29 295 42 237 6 -24 20 -23 28 2 10 32 18 23 11
-12z m-2770 -155 c-32 -87 -66 -194 -76 -237 -11 -44 -26 -87 -35 -95 -25 -25
-19 0 50 219 36 113 65 208 65 211 0 4 7 23 16 44 11 27 18 35 26 27 8 -8 -5
-56 -46 -169z m803 146 c15 -44 14 -76 -4 -82 -18 -8 -21 -2 -30 50 -11 66 14
89 34 32z m2817 -11 c138 -69 140 -97 4 -41 -59 24 -99 47 -109 62 -16 24 -15
24 14 17 17 -4 57 -21 91 -38z m-3262 10 c-17 -58 -24 -67 -39 -62 -18 7 -18
12 -4 53 7 20 18 31 31 31 15 0 18 -4 12 -22z m393 -41 c5 -38 3 -45 -15 -49
-15 -4 -22 0 -26 16 -10 37 -6 84 7 89 19 7 29 -8 34 -56z m-1269 12 c-22 -39
-54 -66 -65 -56 -10 11 21 76 41 86 42 20 48 13 24 -30z m939 27 c1 -1 0 -19
-4 -39 -4 -27 -11 -37 -24 -37 -25 0 -31 14 -23 55 5 31 9 35 28 29 11 -4 22
-7 23 -8z m263 -3 c0 -10 3 -35 6 -55 6 -36 5 -38 -20 -38 -24 0 -26 3 -26 48
0 27 3 52 7 55 13 13 33 7 33 -10z m720 7 c0 -16 -31 -26 -115 -39 -44 -7 -88
-14 -97 -16 -10 -2 -20 1 -23 5 -3 5 21 14 52 20 32 7 83 18 113 25 72 17 70
17 70 5z m2095 -11 c8 -24 -13 -109 -26 -109 -5 0 -9 19 -9 43 0 76 20 113 35
66z m-3411 -16 c-3 -16 -33 -104 -66 -198 -57 -161 -88 -230 -88 -195 1 43
137 420 153 420 4 0 5 -12 1 -27z m476 -23 c0 -47 -2 -50 -25 -50 -23 0 -25 4
-25 43 0 48 5 57 32 57 15 0 18 -8 18 -50z m60 0 c0 -43 -3 -50 -20 -50 -17 0
-20 7 -20 50 0 43 3 50 20 50 17 0 20 -7 20 -50z m1983 35 c-3 -9 -8 -14 -10
-11 -3 3 -2 9 2 15 9 16 15 13 8 -4z m-2514 -136 c-37 -113 -75 -196 -85 -186
-2 2 22 76 53 166 32 91 60 158 65 153 5 -5 -9 -63 -33 -133z m401 102 c0 -46
-9 -55 -42 -42 -21 8 -24 14 -20 45 4 32 7 36 33 36 27 0 29 -3 29 -39z m574
23 c3 -9 6 -25 6 -36 0 -15 5 -19 20 -15 11 3 20 4 20 3 0 -2 -9 -29 -21 -62
-28 -80 -28 -158 -2 -214 11 -25 28 -75 38 -112 l17 -68 -31 -48 c-17 -27 -40
-57 -51 -67 -19 -17 -20 -17 -20 1 0 10 7 53 14 95 8 41 13 100 11 130 -3 30
-10 116 -16 192 -6 75 -15 151 -20 169 -6 23 -5 34 4 40 18 11 24 10 31 -8z
m-1935 -9 c24 -12 41 -33 41 -51 0 -2 -11 -4 -25 -4 -14 0 -25 4 -25 10 0 5
-9 14 -20 20 -26 14 -60 -3 -60 -29 0 -17 -18 -31 -41 -31 -15 0 2 53 24 78
24 26 65 29 106 7z m267 -23 c-18 -35 -43 -62 -57 -62 -14 0 28 77 48 89 25
13 27 7 9 -27z m331 16 c59 -66 17 -158 -72 -158 -31 0 -23 33 16 61 31 22 36
39 17 68 -11 19 -5 51 10 51 5 0 18 -10 29 -22z m-798 -3 c28 -14 41 -33 41
-61 0 -22 -53 -18 -68 6 -7 11 -19 20 -27 20 -18 0 -20 21 -3 38 15 15 23 15
57 -3z m1220 -48 c-20 -51 -45 -97 -54 -97 -2 0 7 30 21 68 14 37 27 73 29 80
3 7 9 11 15 7 6 -3 1 -26 -11 -58z m874 -52 c22 -126 19 -429 -5 -513 -15 -53
-51 -102 -74 -102 -19 0 -102 117 -144 205 -43 88 -125 326 -136 393 -6 40 -6
42 20 42 28 0 26 3 46 -105 17 -93 48 -183 92 -264 46 -87 119 -201 129 -201
12 0 17 26 30 152 12 131 7 283 -15 405 -13 75 -8 97 24 91 11 -2 20 -31 33
-103z m355 93 c-3 -7 -20 -16 -39 -20 -58 -12 -184 -21 -176 -13 5 6 145 35
210 44 5 1 7 -5 5 -11z m1150 0 c-3 -7 -15 -14 -29 -16 -13 -2 -61 -12 -107
-24 -46 -11 -86 -18 -89 -14 -21 21 67 47 220 65 5 1 7 -5 5 -11z m1112 -27
c66 -28 86 -42 88 -59 2 -12 1 -22 -2 -22 -13 0 -152 65 -168 78 -18 15 -25
43 -10 41 4 0 45 -17 92 -38z m-4324 -21 c-14 -22 -31 -40 -36 -40 -14 0 26
77 42 83 23 8 21 -2 -6 -43z m3263 -56 c7 -93 3 -124 -19 -124 -4 0 -11 45
-15 100 -5 75 -4 104 5 115 7 9 14 14 16 12 2 -2 8 -48 13 -103z m-3013 74
c-29 -105 -59 -294 -64 -409 -7 -136 -7 -136 -29 -128 -22 8 -23 13 -23 116 0
59 7 160 14 223 8 63 13 117 10 119 -2 2 -48 -12 -101 -32 -162 -60 -299 -88
-460 -94 -151 -6 -151 -6 -133 41 9 26 11 26 112 26 57 0 130 5 164 10 82 13
355 91 429 122 78 33 89 34 81 6z m3964 -18 c0 -32 -46 -169 -62 -185 -17 -16
-2 85 24 158 23 67 38 78 38 27z m-4786 -5 c18 -14 18 -16 2 -60 l-18 -46 -31
21 c-18 11 -53 33 -79 48 -27 15 -48 30 -48 34 0 4 19 12 43 18 23 6 47 12 52
14 14 4 56 -12 79 -29z m46 26 c0 -19 -20 -22 -42 -7 -22 16 -22 16 10 16 17
0 32 -4 32 -9z m473 -33 c-11 -19 -29 -34 -42 -36 l-23 -4 18 32 c17 28 52 54
63 44 2 -2 -5 -18 -16 -36z m1685 -40 c14 -106 26 -255 19 -248 -6 5 -57 290
-57 315 0 8 6 15 13 15 10 0 17 -26 25 -82z m-1307 45 c-7 -28 -54 -63 -66
-51 -12 12 5 43 32 60 38 24 42 22 34 -9z m735 9 c29 -18 28 -112 -1 -112 -34
0 -59 82 -33 108 14 14 19 14 34 4z m494 -26 c0 -19 7 -70 15 -113 16 -82 55
-364 55 -392 -1 -15 -1 -15 -10 0 -5 9 -23 102 -40 205 -16 104 -35 215 -41
247 -5 33 -8 65 -5 73 10 26 26 14 26 -20z m58 -167 c18 -102 31 -208 31 -235
l-1 -49 -9 40 c-11 53 -69 419 -69 436 0 8 3 9 8 4 5 -6 23 -94 40 -196z m426
191 c-10 -10 -153 -40 -193 -40 -48 0 -3 25 67 36 88 15 139 17 126 4z m1131
-3 c-25 -17 -185 -61 -193 -53 -3 4 -1 10 4 16 11 11 150 49 184 49 24 1 24 0
5 -12z m1360 -13 c40 -11 79 -14 117 -10 l58 6 21 -42 c11 -22 27 -63 33 -89
l13 -49 -26 0 c-14 1 -55 7 -91 15 -97 21 -126 20 -134 -7 -3 -13 -6 -71 -6
-129 0 -90 5 -123 30 -209 44 -145 136 -324 208 -402 19 -20 23 -33 18 -53 -4
-16 -2 -33 5 -41 8 -10 6 -19 -10 -40 -12 -15 -21 -35 -21 -45 0 -11 -3 -19
-7 -19 -5 0 -17 -3 -29 -6 -18 -5 -23 2 -38 59 -31 115 -89 162 -231 192 -44
9 -80 17 -81 18 -2 1 4 31 11 67 8 36 17 109 21 163 l7 97 -45 0 c-46 0 -107
-9 -246 -37 -45 -9 -84 -14 -86 -12 -2 2 -6 28 -9 57 -6 50 -4 56 22 80 36 34
76 104 92 162 7 25 16 49 20 53 4 5 42 -16 85 -46 84 -58 171 -107 191 -107
17 0 26 116 19 243 -4 62 -10 123 -13 136 -5 22 -3 23 18 17 13 -3 51 -14 84
-22z m-4645 7 c0 -12 -50 -64 -56 -58 -7 7 15 49 30 59 15 10 26 10 26 -1z
m1665 -245 c20 -120 34 -221 31 -223 -7 -8 -24 59 -36 142 -7 44 -22 133 -36
199 -13 65 -21 123 -17 129 11 19 21 -22 58 -247z m1663 152 c-2 -70 -7 -103
-15 -106 -10 -3 -13 21 -13 96 0 54 3 102 7 105 19 19 23 -2 21 -95z m-3388
84 c0 -12 -58 -72 -69 -72 -18 0 -12 17 18 49 28 29 51 40 51 23z m1665 -94
c24 -133 45 -272 40 -276 -8 -8 -26 40 -41 110 -21 103 -43 252 -37 261 11 18
22 -9 38 -95z m-2214 47 c52 -24 102 -51 113 -59 20 -16 18 -46 -7 -79 -12
-18 -18 -16 -97 32 -83 51 -248 111 -304 111 -16 0 -25 4 -21 10 3 6 41 11 83
11 61 1 131 10 138 18 1 0 43 -19 95 -44z m1968 22 c13 -32 3 -72 -25 -102
-29 -31 -50 -32 -57 -3 -5 16 1 31 20 50 19 20 24 33 19 52 -5 22 -3 26 14 26
12 0 24 -9 29 -23z m96 -49 c49 -203 137 -407 225 -522 27 -37 50 -69 50 -72
0 -2 -21 -36 -47 -74 -42 -64 -48 -69 -63 -55 -9 8 -31 18 -48 21 -36 7 -37
11 -17 38 8 11 15 39 15 62 0 35 -5 47 -31 68 -17 14 -41 26 -55 26 -28 0 -29
5 -9 40 38 66 -9 160 -80 160 -19 0 -19 3 5 42 11 18 20 44 20 58 0 32 -33 85
-62 101 -13 6 -25 13 -27 15 -1 1 9 18 23 37 19 25 26 46 26 80 0 45 1 47 29
47 28 0 30 -3 46 -72z m103 -14 c15 -99 10 -123 -6 -37 -19 101 -22 123 -14
123 5 0 14 -39 20 -86z m2897 55 c69 -28 92 -49 80 -69 -11 -18 -165 67 -165
92 0 12 5 11 85 -23z m-4602 -3 c-20 -28 -60 -52 -69 -43 -13 13 37 67 62 67
25 0 25 0 7 -24z m-203 6 c0 -5 -13 -21 -30 -37 -34 -32 -37 -28 -15 15 14 27
45 42 45 22z m60 0 c0 -14 -51 -62 -65 -62 -22 0 -19 10 12 42 25 26 53 37 53
20z m55 -22 c-16 -16 -37 -30 -47 -30 -17 0 -17 2 4 30 14 19 31 30 47 30 l25
0 -29 -30z m2355 15 c-7 -8 -27 -15 -44 -15 -17 -1 -58 -7 -91 -15 -32 -8 -61
-13 -62 -11 -2 2 -1 10 2 18 6 15 92 33 174 37 29 1 32 -1 21 -14z m690 0 c17
-21 -1 -42 -51 -57 -54 -16 -67 -33 -44 -58 23 -25 13 -90 -13 -90 -30 1 -95
48 -108 79 -9 22 -23 33 -52 40 -47 13 -68 33 -50 48 7 6 54 13 103 16 50 3
108 12 130 20 52 20 70 20 85 2z m440 6 c0 -8 -65 -30 -165 -58 -18 -5 -18 -3
-5 10 8 8 47 24 85 35 83 24 85 25 85 13z m1112 -72 c-7 -27 -19 -65 -27 -86
-14 -34 -17 -35 -32 -21 -15 15 -14 22 7 80 13 35 27 74 32 88 9 24 10 24 20
6 8 -14 8 -33 0 -67z m-1088 -108 c-5 -14 -7 -13 -14 4 -13 31 -11 134 3 158
10 19 12 11 15 -62 2 -46 0 -91 -4 -100z m-2858 142 c-8 -24 -66 -48 -66 -27
0 14 60 57 68 49 2 -2 1 -12 -2 -22z m-1298 2 c117 -22 186 -49 255 -99 99
-71 103 -76 99 -129 l-4 -47 -56 51 c-133 119 -348 179 -516 144 -161 -33
-258 -81 -388 -190 -109 -91 -181 -183 -251 -322 -44 -87 -66 -122 -77 -119
-8 2 -32 7 -52 11 -21 3 -38 9 -38 13 0 4 20 17 44 30 61 33 118 95 166 182
59 106 62 116 43 135 -19 19 -21 17 51 49 46 20 78 47 145 117 94 100 123 119
237 150 152 42 222 47 342 24z m2147 -79 c13 -58 13 -58 -15 -90 -16 -17 -31
-28 -35 -24 -6 6 6 104 22 183 5 23 8 26 11 10 2 -11 9 -46 17 -79z m835 69
c0 -8 -10 -17 -22 -20 -79 -18 -163 -33 -167 -29 -15 15 80 48 182 63 4 1 7
-6 7 -14z m-1844 -22 c-10 -48 -25 -214 -27 -301 l-2 -83 -26 3 c-25 3 -26 6
-33 88 -4 47 -5 118 -2 158 4 49 3 72 -5 72 -6 0 -45 -11 -86 -25 -141 -48
-264 -67 -400 -63 -68 2 -126 6 -130 10 -4 3 -2 16 5 27 10 19 19 21 123 21
145 0 326 31 470 80 62 21 113 39 115 39 2 1 1 -11 -2 -26z m2944 13 c-22 -20
-142 -58 -137 -43 3 12 109 55 137 56 13 1 13 -1 0 -13z m1285 -23 c43 -21 55
-32 55 -50 0 -13 -3 -23 -6 -23 -11 0 -109 62 -116 74 -23 34 -4 33 67 -1z
m-1255 -58 c0 -43 -4 -75 -10 -75 -11 0 -14 133 -3 143 12 13 13 7 13 -68z
m1161 -20 c-13 -57 -26 -74 -43 -57 -7 7 -2 34 13 82 20 61 25 69 33 51 6 -14
5 -40 -3 -76z m-3917 54 c47 -55 32 -126 -31 -150 -47 -18 -58 14 -18 49 29
25 30 31 10 58 -22 29 -19 74 6 74 4 0 19 -14 33 -31z m732 -31 c-8 -63 -21
-92 -37 -82 -15 9 -10 52 13 99 12 25 24 45 26 45 3 0 1 -28 -2 -62z m-806 33
c0 -12 -11 -23 -30 -30 -35 -12 -40 1 -13 31 21 23 43 23 43 -1z m755 -11 c0
-8 -9 -16 -20 -18 -32 -6 -45 -22 -45 -58 0 -38 -14 -51 -35 -34 -26 22 -18
69 17 101 33 32 83 37 83 9z m903 4 c-27 -27 -138 -38 -138 -14 0 7 85 26 130
29 23 1 23 0 8 -15z m1098 -3 c-10 -11 -30 -22 -44 -26 -15 -3 -35 -8 -46 -12
-12 -3 -17 -1 -14 8 3 10 83 43 117 48 2 1 -4 -8 -13 -18z m34 -61 c0 -47 -3
-60 -15 -60 -11 0 -15 12 -15 48 0 40 12 72 27 72 2 0 3 -27 3 -60z m-4015 19
c105 -32 181 -76 235 -137 46 -51 49 -58 52 -119 3 -60 2 -63 -12 -43 -86 123
-186 206 -283 235 -60 18 -222 20 -299 4 -68 -14 -184 -74 -273 -141 -75 -57
-191 -193 -250 -293 -32 -56 -95 -108 -110 -93 -8 8 61 139 118 224 62 94 224
250 309 298 160 89 354 114 513 65z m5365 -41 c0 -22 -3 -22 -40 -3 -28 14
-60 51 -60 68 0 4 23 -4 50 -19 32 -17 50 -34 50 -46z m-1140 37 c27 -71 27
-70 -49 -98 -77 -29 -251 -67 -298 -66 l-28 0 35 16 c137 63 299 145 310 158
17 20 19 19 30 -10z m-3007 -2 c-6 -19 -42 -52 -55 -53 -17 0 -6 40 14 54 30
21 49 20 41 -1z m1627 3 c-19 -19 -62 -24 -67 -9 -4 10 15 16 67 22 13 1 13
-1 0 -13z m2701 4 c5 0 9 -11 9 -25 0 -32 -13 -32 -34 0 -20 31 -20 39 0 31 9
-3 20 -6 25 -6z m-4571 -145 l0 -145 -24 0 c-36 0 -40 14 -38 112 2 47 -1 89
-5 91 -4 3 -40 -3 -80 -14 -114 -29 -331 -53 -407 -44 -63 6 -66 8 -66 33 l0
27 124 -3 c141 -4 250 12 396 57 52 16 96 29 98 30 1 0 2 -64 2 -144z m1200
130 c36 -18 50 -43 50 -85 0 -31 -33 -90 -50 -90 -17 0 -20 50 -4 75 13 20 14
28 4 40 -7 8 -19 15 -26 15 -12 0 -34 37 -34 56 0 9 32 3 60 -11z m2220 6 c0
-5 20 -39 43 -74 l44 -65 -25 -12 c-22 -9 -28 -8 -51 14 -14 14 -34 40 -44 59
-18 33 -18 36 -2 61 17 26 35 34 35 17z m864 -7 c10 -26 7 -82 -5 -90 -6 -3
-18 0 -26 8 -12 13 -13 22 -2 57 13 43 23 51 33 25z m-1343 -14 c-26 -22 -37
-25 -46 -10 -6 10 28 28 55 29 10 0 8 -6 -9 -19z m57 -31 c-2 -23 -9 -35 -20
-37 -21 -4 -24 24 -6 63 15 33 30 18 26 -26z m1535 25 c22 -30 20 -35 -11 -27
-15 3 -22 13 -22 29 0 31 10 30 33 -2z m102 -6 c-11 -57 -16 -68 -26 -63 -5 4
-9 26 -9 51 0 38 3 44 21 44 18 0 20 -4 14 -32z m50 23 c9 -15 -18 -152 -30
-148 -16 5 -18 42 -5 102 11 52 22 67 35 46z m54 -10 c11 -7 11 -24 -5 -105
-18 -96 -26 -111 -42 -78 -7 13 3 124 17 190 2 5 17 1 30 -7z m-3744 -55 c0
-24 -3 -47 -7 -51 -8 -9 -21 72 -13 85 13 21 21 9 20 -34z m845 40 c0 -2 -7
-9 -15 -16 -12 -10 -15 -10 -15 4 0 9 7 16 15 16 8 0 15 -2 15 -4z m-1609 -49
c-9 -24 -46 -45 -58 -34 -10 11 8 43 34 59 32 19 38 12 24 -25z m909 10 c0
-20 -45 -77 -62 -77 -19 0 -6 56 19 82 29 30 43 29 43 -5z m-2141 4 c158 -49
307 -211 340 -369 19 -91 14 -205 -11 -254 -63 -125 -111 -163 -217 -174 -91
-10 -100 -5 -171 98 -126 181 -133 289 -24 358 56 35 93 28 142 -27 29 -33 33
-43 29 -77 -6 -40 -38 -83 -55 -72 -5 3 -13 21 -16 40 -11 58 -73 61 -96 6
-16 -38 -6 -76 30 -111 37 -37 73 -37 131 -1 69 45 82 65 87 132 5 74 -21 133
-84 189 -106 93 -269 102 -432 23 -124 -60 -269 -236 -348 -423 -59 -139 -103
-351 -104 -492 l0 -68 -30 16 c-51 26 -130 18 -130 -14 0 -41 60 -54 125 -27
33 14 35 14 40 -7 37 -167 38 -178 11 -142 -11 16 -22 17 -90 12 -73 -7 -78
-6 -100 18 -21 22 -25 23 -36 9 -9 -10 -22 -13 -38 -9 -13 3 -40 1 -59 -6 -42
-13 -45 -11 -37 29 5 27 9 30 25 22 40 -22 123 -1 117 29 -4 22 -58 26 -102 7
l-36 -15 0 50 0 50 30 -16 c53 -28 112 -10 96 30 -6 17 -76 21 -105 5 -16 -8
-19 -4 -25 37 -3 25 -4 48 -2 50 2 3 22 -1 45 -7 47 -12 84 1 79 28 -5 25 -48
36 -83 21 -16 -7 -34 -13 -39 -13 -10 -1 -47 185 -40 193 3 3 10 -1 16 -7 20
-20 96 -15 107 6 21 40 -51 58 -98 26 -19 -14 -25 -14 -32 -3 -5 8 -9 22 -9
32 0 14 6 16 38 11 29 -4 43 -1 62 14 22 17 23 22 10 37 -13 15 -12 19 5 31
11 8 26 13 34 12 17 -3 49 -111 50 -168 1 -19 6 -42 11 -50 9 -13 11 -13 20 0
5 8 10 27 10 41 0 87 129 406 211 525 107 155 213 251 358 324 119 60 276 76
390 41z m5369 3 c12 -8 22 -26 22 -40 0 -35 -13 -30 -39 16 -24 43 -19 50 17
24z m-1458 -3 c0 -6 -4 -13 -10 -16 -5 -3 -10 1 -10 9 0 9 5 16 10 16 6 0 10
-4 10 -9z m35 -20 c-3 -12 -13 -21 -21 -21 -9 0 -12 5 -8 13 23 40 41 46 29 8z
m448 -26 c42 -63 43 -67 21 -86 -17 -14 -21 -11 -80 74 -26 36 -27 38 -8 52
10 8 21 15 24 15 3 0 22 -25 43 -55z m946 9 c26 -43 21 -53 -14 -30 -26 17
-29 24 -19 50 8 22 9 21 33 -20z m239 10 c13 -9 22 -18 19 -20 -9 -9 -101 23
-105 36 -6 17 52 6 86 -16z m-3688 6 c12 -7 13 -13 3 -27 -6 -10 -16 -17 -22
-15 -7 1 -21 -3 -32 -9 -16 -8 -20 -18 -17 -40 5 -35 -15 -58 -36 -40 -21 18
-29 61 -16 92 17 40 85 62 120 39z m70 -40 c0 -21 -4 -41 -9 -44 -12 -8 -24
48 -16 74 10 31 25 13 25 -30z m3819 -36 c1 -70 -9 -114 -25 -114 -17 0 -18
49 -3 139 14 75 27 63 28 -25z m-4863 -91 c-3 -7 -16 -13 -30 -13 -21 0 -25 6
-31 51 l-7 51 -37 -5 c-20 -4 -72 -13 -116 -21 -44 -8 -135 -18 -203 -21
l-123 -8 3 34 3 34 75 -3 c102 -4 267 14 375 42 l90 22 3 -74 c2 -42 1 -81 -2
-89z m1168 40 c36 -112 199 -464 257 -554 25 -40 28 -51 19 -68 -6 -12 -14
-21 -18 -21 -27 1 -148 230 -226 430 -60 152 -88 211 -100 207 -6 -2 -46 -49
-88 -104 -43 -55 -125 -146 -184 -201 -92 -87 -108 -99 -124 -90 -17 11 -9 21
76 107 94 97 262 300 312 378 15 23 30 39 33 35 4 -4 23 -57 43 -119z m777 96
c-19 -15 -26 -17 -32 -7 -15 22 -10 28 24 28 l32 -1 -24 -20z m1473 -44 c26
-37 36 -59 29 -66 -12 -12 -109 -39 -138 -38 -11 0 -60 19 -109 42 l-89 42
114 33 c63 18 121 37 129 42 18 11 19 11 64 -55z m-2174 35 c9 -17 6 -27 -21
-61 -27 -34 -34 -38 -41 -25 -11 20 -4 46 23 80 25 31 25 31 39 6z m760 -20
c-49 -43 -65 -48 -73 -25 -9 21 51 65 88 65 l30 -1 -45 -39z m2667 8 c56 -21
84 -54 35 -42 -75 19 -127 42 -130 58 -4 20 1 19 95 -16z m-4274 -16 c23 -39
17 -73 -18 -108 -31 -31 -55 -31 -55 0 0 14 4 28 10 31 26 16 30 43 9 69 -11
14 -17 31 -14 36 13 20 49 5 68 -28z m1701 29 c5 -8 -175 -161 -189 -161 -18
0 39 70 94 116 64 53 84 63 95 45z m-1784 -31 c0 -28 -22 -50 -49 -50 -17 0
-13 47 5 64 25 26 44 20 44 -14z m690 -9 c0 -44 -8 -71 -21 -71 -10 0 -12 70
-3 94 11 29 24 17 24 -23z m1161 18 c20 -10 20 -11 -3 -28 -13 -9 -81 -62
-153 -117 -83 -65 -142 -103 -165 -108 l-35 -6 45 46 c39 40 274 224 287 224
2 0 13 -5 24 -11z m567 -28 c55 -28 93 -32 220 -23 l112 7 0 -51 0 -52 -107
-5 c-106 -5 -109 -4 -179 29 -82 39 -109 64 -99 93 8 26 7 25 53 2z m-486 -2
c19 -10 18 -12 -19 -38 -21 -15 -87 -62 -147 -105 -88 -63 -115 -77 -140 -74
-30 3 -29 4 57 73 97 77 207 154 220 155 5 0 17 -5 29 -11z m2431 -13 c43 -12
86 -31 95 -40 16 -18 15 -18 -21 -12 -62 11 -170 51 -175 64 -5 17 11 15 101
-12z m-3410 -8 c4 -15 -3 -31 -23 -54 -44 -50 -58 -16 -17 43 26 39 33 41 40
11z m-1345 -24 c3 -27 0 -32 -25 -37 -15 -3 -33 -1 -40 5 -9 7 -32 5 -74 -6
-34 -8 -108 -23 -165 -33 -121 -20 -157 -14 -162 30 l-3 27 91 0 c79 0 316 33
330 46 2 3 13 4 25 2 14 -2 21 -12 23 -34z m1027 -62 c-5 -14 -7 -14 -15 -2
-14 22 -12 74 3 89 10 10 13 4 15 -30 2 -23 0 -49 -3 -57z m1366 78 c24 -13
24 -27 2 -34 -10 -3 -63 -40 -118 -81 -88 -66 -105 -75 -143 -75 -27 0 -41 4
-37 10 6 10 264 190 272 190 3 0 13 -5 24 -10z m-2027 -47 c-23 -17 -34 -17
-34 1 0 8 10 22 23 31 20 14 22 14 26 -2 2 -9 -5 -23 -15 -30z m1083 32 c33
-23 44 -66 26 -103 -8 -17 -21 -33 -29 -36 -21 -8 -29 21 -13 50 16 31 2 59
-30 58 -11 0 -21 3 -21 7 0 4 -3 14 -6 23 -8 21 43 22 73 1z m1764 5 c19 -11
25 -36 11 -57 -5 -7 -15 2 -29 28 -22 40 -17 47 18 29z m1779 -12 c-1 -13 -7
-45 -14 -71 -11 -42 -14 -46 -25 -33 -12 15 -10 56 5 109 8 25 34 21 34 -5z
m-219 -19 c57 -16 113 -39 124 -50 28 -27 9 -25 -110 12 -99 31 -125 43 -125
60 0 12 -7 13 111 -22z m-2303 2 c10 -6 -14 -29 -85 -80 -83 -60 -104 -71
-138 -71 l-40 1 30 25 c59 48 189 134 204 134 9 0 22 -4 29 -9z m712 -12 c0
-5 -4 -9 -10 -9 -5 0 -10 7 -10 16 0 8 5 12 10 9 6 -3 10 -10 10 -16z m98 12
c17 -10 5 -61 -13 -61 -19 0 -24 11 -18 43 6 29 10 32 31 18z m-2367 -12 c26
-13 15 -29 -20 -29 -35 0 -48 -15 -53 -60 -4 -49 -22 -44 -26 7 -3 35 2 48 22
68 27 27 46 31 77 14z m79 -28 c0 -23 -8 -48 -18 -62 l-19 -22 -6 39 c-4 26
-2 46 9 61 22 34 34 28 34 -16z m265 -138 c84 -196 154 -337 202 -411 26 -39
33 -59 29 -77 -4 -14 -11 -25 -16 -25 -30 0 -209 328 -270 498 -12 34 -27 62
-32 62 -6 0 -22 -14 -36 -32 -69 -81 -100 -113 -181 -187 l-87 -79 -24 19 -25
19 105 103 c58 56 121 122 141 147 91 116 112 141 116 136 3 -3 38 -81 78
-173z m109 151 c5 -20 1 -33 -15 -50 -27 -29 -36 -30 -44 -4 -4 12 2 30 16 50
28 37 35 37 43 4z m2202 -16 c-26 -145 -13 -373 29 -504 33 -106 33 -111 -10
-106 -27 3 -39 11 -51 35 -52 100 -90 296 -81 421 7 108 21 142 66 166 49 26
54 25 47 -12z m-4407 -12 c81 -42 117 -79 131 -137 24 -98 -7 -171 -88 -206
-27 -11 -38 -11 -60 -1 -36 18 -55 58 -42 92 20 53 60 42 60 -16 0 -63 83 -36
107 35 15 44 5 78 -35 121 -77 82 -183 61 -239 -48 -20 -39 -13 -127 16 -191
12 -26 56 -100 99 -164 103 -152 164 -267 195 -366 25 -80 54 -272 44 -297 -7
-18 -12 -1 -31 107 -30 161 -123 370 -256 575 -111 170 -132 249 -89 336 28
59 77 99 138 114 95 23 49 45 -91 44 -127 -1 -190 -34 -325 -170 -81 -82 -109
-118 -136 -176 -48 -101 -82 -200 -119 -341 -28 -112 -30 -130 -25 -232 3 -60
14 -143 23 -183 17 -74 13 -101 -10 -70 -16 22 -49 243 -42 283 2 17 10 73 16
125 47 382 253 691 520 782 75 25 170 18 239 -16z m3365 28 c26 -10 19 -20
-46 -67 -58 -40 -148 -71 -148 -50 0 8 160 123 172 123 3 0 13 -3 22 -6z m816
-9 c0 -15 -26 -32 -36 -23 -2 3 -2 13 2 22 8 20 34 21 34 1z m-2960 -35 c0
-29 -5 -42 -19 -50 -26 -13 -31 -13 -31 5 0 8 7 15 15 15 20 0 19 10 -2 25
-15 11 -15 15 -4 29 24 29 41 19 41 -24z m4429 4 c64 -20 125 -45 136 -56 l20
-20 -35 7 c-43 9 -185 50 -222 64 -16 6 -28 17 -28 26 0 20 -6 21 129 -21z
m-1168 10 c25 -12 30 -20 24 -37 -15 -48 -17 -331 -3 -410 13 -72 13 -78 -4
-94 -10 -9 -20 -14 -22 -12 -13 13 -46 135 -55 202 -22 154 -10 367 20 367 5
0 24 -7 40 -16z m476 -128 c-3 -76 -12 -133 -27 -180 -25 -78 -107 -276 -120
-290 -5 -5 -14 2 -21 16 -9 22 -6 38 24 114 62 155 81 237 80 350 -1 98 0 101
26 115 39 23 44 5 38 -125z m-1538 108 c-20 -25 -102 -74 -123 -74 -18 0 -19
2 -5 15 53 54 167 106 128 59z m-2132 -6 c13 -12 23 -33 23 -48 0 -31 -25 -70
-46 -70 -16 0 -19 36 -4 45 16 10 12 43 -7 53 -10 6 -14 16 -10 26 8 21 16 20
44 -6z m473 -69 c-7 -16 -16 -29 -21 -29 -17 0 -10 83 9 103 17 19 17 19 20
-13 2 -18 -2 -45 -8 -61z m-1860 63 c-99 -68 -135 -132 -128 -227 6 -75 33
-132 123 -265 79 -116 119 -192 178 -336 41 -99 94 -301 82 -313 -10 -9 -17 9
-26 74 -21 150 -80 280 -206 455 -130 179 -154 218 -174 276 -24 67 -24 118 0
217 13 53 15 77 7 77 -22 0 -148 -115 -207 -188 -69 -85 -116 -178 -163 -323
-50 -153 -61 -232 -59 -411 0 -87 -2 -158 -7 -158 -21 0 -35 112 -34 265 1
158 2 162 43 300 23 77 58 172 77 211 48 97 161 226 257 291 89 60 119 71 202
72 59 0 60 0 35 -17z m961 -14 c6 -22 1 -32 -32 -64 -22 -21 -39 -41 -39 -45
0 -4 19 -10 43 -13 l43 -7 -7 -70 c-19 -174 -111 -350 -239 -458 -55 -46 -62
-46 -76 7 -5 19 3 34 43 75 63 65 87 106 119 199 39 115 47 193 29 301 -8 50
-15 96 -15 100 0 4 28 7 62 5 57 -3 62 -5 69 -30z m99 24 c0 -5 -15 -16 -34
-25 -31 -14 -35 -14 -40 -1 -11 29 -6 34 34 34 22 0 40 -4 40 -8z m1275 -13
c5 -14 0 -29 -17 -47 -12 -15 -24 -29 -26 -32 -4 -6 -22 22 -22 36 0 14 39 64
50 64 5 0 12 -9 15 -21z m1985 -99 c-6 -41 -14 -84 -17 -94 -5 -18 -7 -17 -19
7 -18 34 0 175 25 195 14 11 16 10 19 -10 2 -12 -1 -56 -8 -98z m58 48 c-5
-29 -6 -77 -2 -106 3 -30 3 -76 -1 -103 -7 -48 -8 -50 -26 -33 -30 27 -32 50
-14 173 22 146 22 146 39 132 10 -8 11 -23 4 -63z m-3877 14 c24 -19 43 -132
36 -215 -12 -144 -108 -283 -225 -327 l-57 -21 -18 22 -19 23 56 19 c42 14 67
31 102 70 77 86 89 122 87 262 -1 79 -7 135 -17 164 -9 24 -16 45 -16 47 0 5
49 -25 71 -44z m316 -2 c17 -66 16 -225 -2 -295 -32 -125 -99 -221 -216 -310
-31 -25 -60 -45 -64 -45 -3 0 -13 16 -21 36 l-15 37 56 57 c90 91 135 211 135
367 0 49 -6 101 -16 129 -8 25 -13 48 -11 50 7 8 91 22 117 21 21 -2 27 -10
37 -47z m2747 44 c9 -3 16 -9 16 -13 0 -14 -80 -52 -102 -49 -20 3 -18 7 22
36 24 17 45 32 46 32 1 0 9 -3 18 -6z m606 -25 c10 -18 10 -19 -7 -10 -45 26
-49 31 -26 31 12 0 27 -9 33 -21z m40 -1 c0 -19 -2 -20 -10 -8 -13 19 -13 30
0 30 6 0 10 -10 10 -22z m477 14 c8 -5 8 -31 1 -102 -7 -69 -7 -125 2 -210 22
-203 18 -224 -32 -177 -34 31 -52 128 -52 277 -1 142 16 220 47 220 12 0 27
-4 34 -8z m284 -19 c15 -39 5 -155 -21 -249 -29 -104 -92 -239 -119 -253 -29
-16 -28 6 3 67 13 26 35 84 50 130 22 70 26 102 26 202 0 123 0 122 43 129 4
0 12 -11 18 -26z m819 -20 c69 -20 132 -42 140 -49 13 -12 13 -14 0 -14 -37 1
-284 70 -291 82 -14 21 -10 31 9 23 9 -4 73 -23 142 -42z m-4606 21 c3 -9 6
-25 6 -35 0 -17 -6 -20 -32 -17 -38 4 -51 34 -22 55 24 17 41 16 48 -3z m66
-8 c0 -13 3 -31 6 -40 4 -12 0 -16 -15 -16 -14 0 -25 9 -32 27 -13 34 -5 53
21 53 15 0 20 -7 20 -24z m3020 12 c0 -34 -14 -88 -22 -88 -16 0 -28 49 -18
75 10 26 40 35 40 13z m1130 -3 c-7 -8 -16 -15 -21 -15 -5 0 -9 7 -9 15 0 9 9
15 21 15 18 0 19 -2 9 -15z m-1779 -5 c33 -18 21 -30 -28 -30 l-48 0 25 20
c30 23 26 23 51 10z m580 -53 c31 -29 17 -30 -44 -1 -42 18 -57 31 -57 45 0
20 1 20 40 -2 22 -13 50 -32 61 -42z m607 -12 c2 -38 -2 -99 -8 -133 -14 -81
-58 -222 -69 -222 -17 0 -34 173 -28 284 6 143 9 148 61 144 l41 -3 3 -70z
m79 48 c15 -54 7 -176 -16 -253 -24 -78 -76 -190 -89 -190 -30 1 -30 19 -2
108 32 102 50 211 50 303 0 56 1 59 25 59 18 0 27 -7 32 -27z m457 0 c-6 -25
-24 -47 -31 -39 -9 9 12 66 23 66 11 0 13 -7 8 -27z m-4695 0 c5 -10 14 -52
20 -94 27 -174 -59 -369 -206 -470 -51 -35 -70 -36 -85 -5 -10 23 -6 29 40 74
51 49 85 106 122 203 24 64 27 169 7 247 -8 28 -12 54 -9 57 3 3 27 5 53 5 36
0 51 -5 58 -17z m451 -8 c0 -21 -5 -25 -30 -25 -53 0 -36 29 28 49 1 1 2 -10
2 -24z m624 6 c23 -25 12 -44 -22 -37 -37 8 -57 -8 -57 -45 0 -66 -45 -33 -47
33 -2 59 86 93 126 49z m85 -67 c-19 -40 -33 -36 -37 9 -2 27 2 45 15 59 18
20 18 20 27 -10 6 -20 4 -39 -5 -58z m3486 44 c-4 -24 -14 -54 -23 -68 l-17
-25 -3 24 c-2 13 -1 44 3 68 5 34 10 43 26 43 19 0 20 -4 14 -42z m145 28 c0
-7 -11 -16 -25 -19 -25 -4 -25 -4 -9 14 20 22 34 24 34 5z m-4120 -10 c0 -8 3
-21 6 -30 5 -12 0 -16 -19 -16 -34 0 -43 17 -21 41 20 23 34 25 34 5z m1046
-12 c5 -18 0 -32 -17 -50 -26 -28 -37 -30 -45 -9 -6 16 32 85 47 85 5 0 12
-11 15 -26z m2866 -41 c-6 -77 -16 -113 -33 -113 -9 0 -10 22 -6 81 7 86 11
99 31 99 11 0 12 -15 8 -67z m-57 -45 c-7 -98 -22 -148 -45 -148 -9 0 -8 30 6
180 4 50 15 69 38 70 4 0 5 -46 1 -102z m-3035 -8 c30 -86 137 -296 204 -401
42 -66 55 -96 60 -139 l6 -55 -20 25 c-83 102 -242 376 -285 492 l-18 48 -103
-100 c-58 -55 -108 -100 -113 -100 -4 0 -16 9 -26 20 -18 20 -17 23 116 158
94 96 137 134 145 127 6 -5 21 -39 34 -75z m325 84 c8 -4 23 -20 31 -36 14
-27 14 -33 -6 -74 -12 -24 -26 -44 -30 -44 -15 0 -17 34 -3 56 18 28 7 53 -26
61 -25 6 -41 19 -41 36 0 9 52 9 75 1z m686 -17 c19 -13 66 -46 104 -74 39
-28 85 -58 103 -67 27 -14 31 -20 21 -32 -6 -8 -18 -14 -26 -14 -18 0 -323
191 -323 202 0 18 88 8 121 -15z m184 -47 c125 -78 124 -77 91 -91 -25 -12
-34 -7 -141 65 -63 43 -115 82 -115 88 0 24 71 -3 165 -62z m78 20 c75 -48 88
-62 66 -75 -10 -7 -192 96 -204 115 -4 6 8 10 27 10 23 0 58 -16 111 -50z m62
19 c62 -35 73 -47 51 -55 -16 -6 -136 63 -136 79 0 15 32 6 85 -24z m1635 -95
c0 -113 -2 -131 -22 -162 -12 -20 -24 -30 -26 -24 -5 16 16 291 23 302 18 30
25 -2 25 -116z m677 100 c59 -14 115 -32 123 -40 12 -12 12 -14 -5 -14 -25 0
-220 45 -234 54 -13 9 -15 26 -2 26 5 0 58 -11 118 -26z m-5967 -44 c-28 -146
10 -261 136 -412 52 -62 175 -267 207 -343 36 -86 64 -222 49 -237 -16 -16
-19 -11 -35 67 -32 149 -118 311 -268 500 -26 33 -64 94 -86 134 -35 68 -38
80 -41 172 -4 94 -5 98 -23 88 -50 -26 -190 -258 -234 -388 -64 -190 -72 -339
-29 -568 8 -42 -1 -42 -22 0 -40 76 -28 327 26 532 55 214 111 315 242 440 44
42 82 75 84 72 2 -2 0 -28 -6 -57z m3097 38 c62 -36 332 -222 332 -230 2 -19
-43 -16 -87 6 -87 44 -332 219 -332 237 0 17 48 9 87 -13z m231 -79 c86 -56
161 -105 166 -110 5 -4 -2 -13 -17 -20 -23 -11 -35 -4 -160 81 -75 51 -151
105 -169 121 l-33 28 28 1 c20 0 78 -32 185 -101z m404 85 c19 -10 27 -19 21
-25 -7 -7 -23 -2 -47 11 -20 12 -36 24 -36 26 0 9 33 3 62 -12z m61 5 c-8 -8
-16 -8 -30 0 -16 9 -14 10 12 11 21 0 26 -3 18 -11z m633 -74 c44 -44 25 -45
-61 -3 -70 35 -85 47 -85 65 l0 23 61 -31 c34 -17 72 -41 85 -54z m1184 70 c0
-10 -10 -15 -27 -15 -16 0 -39 -3 -52 -7 -37 -10 -16 15 22 26 47 13 57 13 57
-4z m-2522 -81 c63 -47 150 -106 193 -132 43 -26 78 -50 79 -54 0 -14 -40 -19
-62 -7 -13 6 -75 49 -138 94 -63 45 -139 97 -167 115 -29 17 -53 35 -53 39 0
7 21 31 28 31 2 0 56 -39 120 -86z m-1154 40 c7 -34 -5 -64 -25 -64 -10 0 -12
83 -2 93 13 14 21 6 27 -29z m640 4 c4 -17 -2 -31 -24 -52 l-29 -29 -7 27 c-5
21 -1 33 17 52 28 30 35 30 43 2z m3034 -23 c-5 -6 -143 -23 -147 -19 -12 11
25 28 81 39 52 9 64 9 66 -3 2 -7 2 -15 0 -17z m395 -1 c112 -28 123 -33 110
-44 -7 -8 -212 32 -234 45 -14 10 -11 25 7 25 8 0 61 -12 117 -26z m-4711 -6
c7 -47 -13 -169 -38 -239 -38 -107 -89 -193 -157 -266 -86 -92 -92 -94 -112
-33 l-17 50 48 63 c82 109 154 293 154 397 0 20 3 40 7 43 3 4 30 7 59 7 47 0
53 -2 56 -22z m132 13 c8 -13 -21 -226 -40 -291 -20 -69 -57 -142 -101 -200
-34 -44 -141 -160 -148 -160 -2 0 -11 24 -19 53 -15 50 -15 53 4 77 48 59 114
166 135 218 29 71 55 195 55 262 l0 50 54 0 c30 0 57 -4 60 -9z m123 -17 l34
-15 -7 -102 c-10 -161 -55 -277 -166 -428 -40 -56 -125 -139 -141 -139 -2 0
-10 27 -17 59 l-12 60 45 58 c95 122 150 272 163 444 l7 90 30 -7 c16 -3 45
-13 64 -20z m220 1 c23 -20 25 -24 10 -25 -18 0 -97 36 -97 45 0 16 63 1 87
-20z m108 -74 c-18 -19 -24 -12 -32 33 -4 29 -2 40 13 51 18 13 20 11 26 -28
6 -31 4 -45 -7 -56z m1175 19 c63 -44 146 -101 183 -127 53 -36 65 -49 53 -55
-19 -11 -34 -3 -196 98 -220 136 -202 122 -188 144 7 11 17 20 23 20 5 0 62
-36 125 -80z m1446 -57 c8 -14 14 -27 12 -29 -3 -2 -55 21 -116 51 -99 49
-112 58 -112 81 l0 25 100 -52 c55 -29 107 -63 116 -76z m-1892 82 c8 -21 -44
-79 -58 -65 -7 7 -5 20 8 45 20 37 40 45 50 20z m3006 -5 c0 -11 -3 -20 -7
-20 -5 -1 -52 -7 -105 -14 -79 -10 -98 -10 -98 0 0 19 18 27 90 40 101 18 120
17 120 -6z m-3930 -20 l60 -30 0 -58 c0 -155 -111 -372 -279 -544 -30 -32 -58
-58 -62 -58 -3 0 -12 27 -18 60 l-12 60 56 78 c111 152 175 325 175 473 0 27
5 49 10 49 6 0 37 -14 70 -30z m1380 -85 c159 -100 179 -115 157 -120 -27 -7
-146 53 -296 149 -65 42 -70 48 -59 66 7 11 13 20 14 20 1 0 83 -52 184 -115z
m2926 99 c36 -9 61 -21 57 -25 -12 -12 -136 14 -141 29 -5 16 6 15 84 -4z
m-6065 -160 c-12 -30 -24 -80 -28 -112 l-7 -57 -18 42 c-10 23 -21 68 -24 100
-6 54 -4 62 26 108 63 94 65 95 68 31 2 -39 -3 -74 -17 -112z m4429 116 c33
-17 60 -32 60 -35 0 -6 -113 45 -124 56 -18 16 4 10 64 -21z m-2067 -27 c34
-92 192 -368 254 -445 43 -52 66 -91 72 -120 6 -24 17 -60 26 -82 21 -49 13
-45 -56 29 -80 86 -145 188 -238 372 -44 89 -85 164 -90 167 -5 4 -33 -16 -62
-44 -28 -27 -56 -50 -62 -50 -15 0 -47 31 -47 46 0 11 168 173 180 174 3 0 14
-21 23 -47z m346 28 c8 -14 4 -24 -19 -46 -25 -24 -30 -26 -36 -12 -3 9 4 29
17 46 27 36 26 36 38 12z m1627 -2 c93 -29 157 -62 231 -120 107 -85 172 -176
151 -212 -5 -10 -7 -25 -4 -33 11 -28 -8 -13 -108 84 -133 130 -222 183 -315
190 -132 9 -201 -47 -201 -164 0 -51 6 -74 35 -130 19 -38 35 -72 35 -76 0 -5
-18 -8 -40 -8 -48 0 -65 21 -91 118 -53 191 16 327 186 365 38 9 53 7 121 -14z
m1344 4 c-1 -26 -28 -37 -131 -54 -146 -24 -142 -24 -127 1 17 26 28 30 133
45 113 16 125 17 125 8z m410 -15 c10 -6 1 -8 -29 -4 -24 2 -49 10 -55 16 -8
9 -1 10 29 4 22 -3 47 -11 55 -16z m-3058 -51 c57 -35 126 -76 155 -92 56 -30
60 -45 12 -45 -32 0 -126 51 -235 127 -52 36 -63 48 -53 59 6 8 13 14 15 14 2
0 50 -28 106 -63z m-211 34 c20 -16 21 -21 11 -34 -22 -26 -92 10 -92 47 0 14
60 4 81 -13z m-919 -20 c25 -16 48 -33 51 -38 11 -18 -22 -139 -66 -239 -53
-122 -138 -246 -213 -310 -30 -26 -56 -45 -57 -43 -4 5 -27 84 -27 91 0 2 27
40 60 84 111 145 190 330 190 445 0 22 4 39 8 39 4 0 29 -13 54 -29z m825 -52
c-27 -34 -34 -35 -42 -8 -5 14 0 28 16 45 22 23 24 24 36 8 10 -14 8 -22 -10
-45z m1903 -18 c5 -11 10 -23 10 -26 0 -7 -68 41 -115 80 -29 25 -28 25 32 -5
34 -16 67 -39 73 -49z m1490 59 l35 -20 -40 6 c-58 8 -75 14 -75 25 0 15 43 9
80 -11z m-3101 -69 c84 -56 115 -81 104 -85 -25 -10 -52 3 -150 71 -91 63
-100 72 -86 86 9 10 2 14 132 -72z m2641 70 c0 -11 -25 -21 -53 -21 -12 0 -53
-14 -92 -31 -73 -31 -165 -49 -165 -32 0 28 47 47 163 69 145 26 147 27 147
15z m-1000 -54 c0 -18 -2 -19 -10 -7 -13 20 -13 43 0 35 6 -3 10 -16 10 -28z
m636 -53 c-7 -28 -26 -32 -26 -6 0 9 6 35 12 57 l12 40 4 -34 c2 -19 1 -44 -2
-57z m863 60 c5 -5 -30 -44 -39 -44 -3 0 -17 14 -29 31 l-23 31 43 -7 c24 -4
46 -9 48 -11z m-4100 -53 l25 -19 -17 -62 c-10 -34 -46 -117 -80 -184 -53
-103 -75 -134 -149 -211 -56 -57 -91 -86 -97 -80 -5 6 -12 28 -15 50 -7 38 -4
45 43 103 28 34 66 90 85 125 41 73 101 226 111 282 12 64 9 64 94 -4z m711
37 c0 -13 -8 -35 -18 -51 l-19 -27 -11 24 c-9 20 -7 29 9 50 25 32 39 33 39 4z
m194 -35 c63 -47 73 -59 56 -61 -35 -6 -178 87 -166 107 13 20 30 12 110 -46z
m1369 43 c76 -23 167 -85 265 -181 50 -51 92 -96 92 -102 0 -6 -12 -18 -26
-28 l-26 -17 -71 69 c-124 119 -204 163 -298 163 -98 0 -137 -84 -85 -185 14
-27 23 -51 21 -53 -13 -13 -37 14 -66 73 -55 112 -39 215 38 247 75 32 91 34
156 14z m1467 -2 c87 -19 128 -47 156 -104 23 -49 38 -120 24 -120 -5 0 -15
-2 -22 -5 -9 -4 -20 9 -32 35 -74 167 -320 157 -583 -23 -45 -32 -86 -57 -90
-57 -5 0 -13 8 -20 19 -13 20 6 42 112 127 168 136 280 168 455 128z m-5774
-46 c-4 -24 -13 -70 -21 -103 l-15 -60 4 70 c5 66 21 135 33 135 3 0 3 -19 -1
-42z m-618 -56 c-13 -45 -26 -82 -29 -82 -5 0 -29 99 -29 121 0 8 72 50 78 45
1 -2 -8 -40 -20 -84z m2970 -22 c66 -145 165 -312 229 -390 50 -61 52 -65 31
-69 -44 -6 -86 29 -152 128 -35 53 -87 143 -116 201 -29 58 -54 107 -56 109
-2 3 -15 -6 -29 -19 l-24 -23 -6 26 c-4 15 -13 32 -21 38 -13 10 -8 20 33 61
26 26 51 47 55 46 5 -2 30 -50 56 -108z m1333 73 c-10 -17 -10 -16 -11 3 0 23
13 41 18 25 2 -6 -1 -18 -7 -28z m-3798 -37 c9 -36 20 -73 23 -83 3 -10 -5 0
-18 23 -30 49 -46 95 -41 112 9 25 19 10 36 -52z m2980 29 c51 -35 51 -35 21
-35 -17 0 -44 10 -60 22 -16 12 -31 23 -33 24 -4 3 9 24 15 24 3 0 28 -16 57
-35z m871 18 c5 -11 1 -22 -10 -30 -28 -20 -34 -15 -23 17 12 34 24 38 33 13z
m-86 -66 c-4 -55 -20 -51 -32 8 -8 37 -7 48 5 55 20 13 31 -12 27 -63z m1687
28 c-37 -31 -71 -34 -55 -6 11 22 25 29 60 30 l25 0 -30 -24z m-5321 -79 c-10
-36 -20 -63 -22 -61 -2 2 2 36 9 75 8 46 16 67 22 61 6 -6 3 -33 -9 -75z
m3589 24 c14 -49 15 -65 5 -83 -11 -21 -13 -19 -29 33 -10 30 -18 67 -18 83
-1 48 23 29 42 -33z m-1481 20 c20 -17 40 -39 43 -49 15 -49 -79 -214 -222
-387 -94 -114 -101 -116 -102 -27 -1 35 9 57 55 128 55 85 140 255 163 328 7
20 16 37 19 37 4 0 24 -14 44 -30z m1636 -3 c-1 -2 -24 -12 -50 -25 -36 -16
-48 -18 -48 -8 0 17 28 42 60 54 19 7 27 6 33 -5 5 -8 7 -15 5 -16z m-208 -39
c7 -35 17 -71 22 -81 7 -13 5 -29 -3 -49 -12 -30 -13 -30 -21 -8 -28 75 -47
174 -37 187 20 23 26 15 39 -49z m1665 33 c-3 -12 -10 -21 -15 -21 -5 0 -4 11
2 25 13 29 23 26 13 -4z m605 -5 c24 -16 48 -42 56 -63 14 -32 14 -37 -2 -54
-25 -28 -43 -23 -80 20 -29 33 -41 40 -86 45 -78 10 -149 -13 -314 -100 -80
-41 -152 -74 -161 -72 -35 7 -22 29 52 87 100 79 153 110 250 144 68 24 92 27
162 24 69 -3 88 -8 123 -31z m-5900 -129 c0 -5 -5 -5 -11 -1 -14 8 -69 124
-68 144 0 14 77 -126 79 -143z m4383 133 c78 -24 196 -107 275 -194 85 -94 63
-104 -49 -23 -119 86 -163 109 -206 105 -34 -3 -38 -6 -41 -34 -3 -28 -8 -32
-39 -37 -22 -4 -42 -2 -51 5 -45 38 -57 131 -19 165 12 12 31 23 42 26 11 3
21 5 21 6 1 0 31 -8 67 -19z m-4444 -80 c23 -47 34 -76 25 -65 -19 25 -59 101
-69 135 -11 37 -3 24 44 -70z m-654 70 c3 -5 -3 -10 -15 -10 -12 0 -18 5 -15
10 3 6 10 10 15 10 5 0 12 -4 15 -10z m4312 -112 c26 -101 27 -108 11 -140
l-16 -33 -11 27 c-5 15 -20 74 -32 132 -19 88 -20 108 -9 121 7 9 17 12 21 8
4 -4 20 -56 36 -115z m253 92 c0 -9 -130 -80 -145 -80 -3 0 -1 9 5 20 11 21
120 81 133 73 4 -2 7 -8 7 -13z m1227 12 c6 -4 13 -16 15 -27 3 -17 -2 -20
-32 -17 -43 5 -44 6 -30 31 11 22 27 26 47 13z m-5173 -57 c13 -30 39 -75 57
-101 17 -26 25 -45 18 -42 -28 9 -129 198 -106 198 3 0 17 -25 31 -55z m5039
3 c-35 -16 -38 -16 -42 -1 -2 10 7 25 19 35 22 18 24 18 42 1 20 -18 19 -18
-19 -35z m-4789 10 c-12 -41 -54 -118 -64 -118 -11 0 52 139 63 140 5 0 5 -10
1 -22z m3415 -296 c-6 -19 -15 -30 -20 -25 -4 4 -23 62 -42 128 -51 182 -50
171 -25 195 l22 20 38 -142 c32 -122 36 -148 27 -176z m-1168 226 c48 -95 127
-225 172 -282 l31 -39 -34 6 c-19 4 -65 7 -102 8 -38 1 -68 4 -68 8 0 4 14 24
32 45 l32 39 -35 28 c-31 26 -32 28 -11 29 12 0 22 3 22 6 0 3 -29 38 -65 76
-36 39 -65 80 -65 91 0 17 35 67 47 67 1 0 21 -37 44 -82z m-3180 -68 c25
-131 34 -409 13 -430 -9 -9 -11 19 -7 114 6 132 -5 252 -36 375 -10 39 -15 73
-12 76 10 10 20 -21 42 -135z m1292 122 c19 -21 85 -154 121 -244 24 -62 44
-169 60 -320 5 -51 4 -58 -11 -58 -41 1 -52 24 -67 138 -21 158 -51 259 -113
381 -39 78 -50 107 -41 113 20 12 34 10 51 -10z m3347 3 c0 -8 0 -18 1 -21 0
-8 -192 -96 -197 -91 -12 11 38 53 104 87 88 44 92 46 92 25z m1328 -9 c2 -10
0 -22 -5 -27 -12 -12 -58 26 -48 40 10 18 49 9 53 -13z m-5233 -142 c31 -40
26 -60 -5 -23 -32 38 -90 144 -90 165 0 10 16 -9 34 -44 19 -35 46 -79 61 -98z
m206 109 c-11 -21 -20 -35 -21 -31 0 12 33 78 38 74 2 -2 -6 -21 -17 -43z
m5692 7 c15 -17 25 -35 22 -39 -10 -18 -100 -32 -128 -22 -46 18 -133 -6 -283
-78 l-141 -68 13 36 c13 40 29 51 189 133 124 63 175 79 245 73 46 -3 59 -9
83 -35z m-6679 -47 c26 -111 36 -192 35 -293 0 -120 -10 -176 -30 -172 -8 2
-28 4 -45 4 l-31 0 -7 150 c-4 83 -14 187 -23 231 l-16 80 44 38 c24 20 47 35
50 33 4 -2 14 -34 23 -71z m5848 12 c-4 -77 -24 -178 -37 -182 -5 -1 -17 1
-24 6 -13 8 -13 23 3 108 24 131 25 135 44 131 14 -3 16 -14 14 -63z m-5692
45 c0 -5 -12 -10 -27 -10 -22 0 -25 2 -13 10 20 13 40 13 40 0z m5530 0 c12
-8 10 -14 -15 -40 -16 -16 -32 -30 -37 -30 -14 0 -29 40 -23 60 7 22 48 27 75
10z m85 -106 c-17 -93 -28 -115 -47 -96 -13 13 20 179 41 199 24 24 25 2 6
-103z m142 104 c15 -20 -18 -199 -39 -212 -30 -18 -32 2 -13 102 20 109 24
122 35 122 4 0 12 -6 17 -12z m-4877 -2 c0 -9 -73 -127 -81 -132 -16 -9 -10 6
29 71 31 55 52 79 52 61z m3249 -48 c7 -29 29 -101 48 -160 31 -100 33 -110
19 -135 l-15 -28 -15 37 c-25 58 -88 308 -82 324 12 30 33 12 45 -38z m-2771
-18 c38 -64 73 -172 103 -318 l20 -102 -25 -31 c-14 -17 -26 -36 -26 -44 0
-15 -27 -28 -41 -19 -5 3 -9 17 -9 32 0 15 -9 87 -20 160 -15 106 -29 156 -65
246 -25 61 -45 115 -45 118 0 4 8 9 18 11 40 11 57 1 90 -53z m4446 54 c19 -7
20 -40 5 -135 -12 -71 -14 -75 -38 -60 -12 8 -12 24 -1 105 7 53 14 96 15 96
2 0 10 -3 19 -6z m-1267 -40 c-19 -18 -237 -137 -242 -132 -2 2 3 19 13 37 14
27 36 42 122 82 76 35 106 45 112 36 4 -7 2 -17 -5 -23z m1020 -48 c-16 -83
-22 -95 -38 -79 -14 14 6 121 28 145 9 10 18 16 20 14 2 -2 -2 -38 -10 -80z
m-5009 22 c16 -29 46 -73 66 -96 32 -39 36 -50 36 -98 0 -39 -4 -54 -13 -54
-22 0 -90 54 -126 99 -30 37 -33 46 -27 84 8 50 25 117 30 117 2 0 17 -24 34
-52z m387 2 l37 -50 -41 -85 c-23 -47 -45 -85 -49 -85 -4 0 -22 29 -39 63
l-31 64 41 71 c23 40 43 72 44 72 1 0 18 -23 38 -50z m4254 1 c65 -45 96 -78
39 -43 -19 12 -65 28 -102 36 -76 16 -81 19 -72 42 10 26 66 12 135 -35z m749
37 c22 -22 8 -78 -20 -78 -4 0 -17 18 -28 39 -14 29 -16 41 -7 44 22 9 43 7
55 -5z m-5103 -233 c62 -126 130 -303 121 -312 -12 -12 -27 14 -51 90 -31 94
-157 358 -180 377 -8 7 -19 10 -23 6 -4 -4 -7 -93 -7 -197 0 -121 -4 -188 -10
-186 -24 8 -13 408 13 451 8 13 67 -86 137 -229z m655 172 c34 -75 76 -221 85
-292 3 -27 8 -60 11 -72 4 -21 1 -23 -38 -23 l-43 0 -29 128 c-15 70 -39 156
-53 192 -13 36 -26 72 -29 80 -4 14 38 49 59 50 5 0 21 -28 37 -63z m1490 -11
c1 -37 -178 -278 -226 -304 -30 -16 -114 -28 -114 -16 0 6 30 46 67 89 36 44
100 131 141 193 l74 114 29 -34 c15 -18 28 -37 29 -42z m1109 -26 c13 -47 36
-126 53 -177 20 -61 28 -101 24 -119 -4 -14 -8 -25 -10 -23 -9 11 -126 370
-126 387 0 20 20 35 31 23 3 -3 16 -44 28 -91z m2721 80 c13 -25 7 -36 -31
-55 l-30 -16 7 28 c15 63 35 79 54 43z m57 9 l28 -11 -24 -9 c-23 -9 -40 1
-41 24 0 9 4 9 37 -4z m-121 -15 c-3 -9 -9 -26 -12 -39 -5 -22 -9 -23 -67 -18
-34 3 -64 7 -66 9 -1 1 19 16 45 33 54 34 110 42 100 15z m-882 -12 c3 -9 1
-44 -4 -77 -5 -33 -10 -63 -10 -67 0 -5 -7 -8 -16 -8 -15 0 -16 8 -11 60 11
102 27 138 41 92z m-4231 -48 c24 -62 63 -240 72 -321 l6 -63 -45 0 c-25 0
-48 5 -52 11 -3 6 -15 59 -25 118 -10 58 -29 141 -42 183 l-24 77 36 25 c20
14 40 25 46 23 5 -2 18 -26 28 -53z m-1919 29 c25 -88 47 -393 29 -393 -6 0
-13 48 -17 107 -4 59 -14 145 -22 192 -7 48 -14 92 -14 99 0 18 18 15 24 -5z
m2064 -55 c30 -102 40 -152 47 -238 3 -41 8 -85 11 -97 4 -22 1 -23 -50 -23
l-55 0 -6 58 c-6 55 -47 261 -59 292 -3 10 10 26 37 47 23 17 45 32 48 32 3 1
16 -32 27 -71z m2278 -68 c66 -192 85 -261 78 -292 -3 -16 -9 -28 -12 -28 -7
0 -142 406 -142 426 0 10 22 36 26 31 2 -1 24 -63 50 -137z m502 113 c-3 -23
-21 -36 -153 -104 -82 -43 -151 -76 -153 -74 -2 2 3 16 11 31 10 20 54 51 143
101 71 40 135 72 142 73 9 0 12 -10 10 -27z m906 19 c7 -11 -26 -75 -40 -79
-13 -4 -44 23 -44 38 0 30 70 64 84 41z m940 0 c3 -4 -11 -16 -30 -27 -19 -10
-34 -23 -34 -29 0 -6 -15 -18 -33 -26 -19 -9 -40 -31 -53 -55 -18 -35 -27 -42
-88 -61 -66 -20 -70 -21 -114 -4 -83 32 -77 42 60 111 165 83 275 118 292 91z
m566 -12 c42 -21 45 -27 32 -48 -7 -10 -21 -7 -65 13 -57 26 -68 39 -44 48 23
10 38 7 77 -13z m-1476 -38 c-4 -19 -13 -32 -21 -32 -8 0 -13 3 -11 8 35 70
42 76 32 24z m416 -59 c6 -41 6 -43 -18 -43 -24 0 -24 2 -18 46 3 26 6 54 6
63 1 29 23 -21 30 -66z m620 68 c0 -6 -11 -22 -23 -37 l-24 -27 -7 28 c-5 19
-3 31 6 36 18 12 48 11 48 0z m274 -57 c-9 -33 -18 -61 -19 -62 -6 -7 -115 19
-115 27 0 16 138 104 148 96 2 -2 -4 -29 -14 -61z m-4900 4 c27 -94 37 -149
43 -244 7 -104 8 -103 -66 -88 -30 6 -31 8 -31 63 -1 31 -9 103 -19 161 l-18
105 31 27 c17 15 34 27 38 28 4 0 13 -24 22 -52z m1099 19 c-3 -23 0 -37 11
-46 9 -7 16 -17 16 -22 0 -14 -66 -112 -86 -130 -24 -20 -133 -64 -140 -56 -3
3 26 44 64 92 39 48 83 111 99 141 32 62 44 69 36 21z m1030 -177 c69 -208 72
-220 53 -220 -10 0 -36 55 -76 158 -96 244 -93 232 -73 254 17 18 17 18 29 -4
7 -13 37 -98 67 -188z m2879 189 c40 -20 41 -22 23 -35 -28 -21 -47 -14 -62
24 -15 38 -14 38 39 11z m-7276 -26 c-8 -15 -15 -22 -16 -15 0 17 20 55 27 49
2 -3 -2 -18 -11 -34z m5421 7 c21 -37 30 -38 45 -5 6 14 18 25 25 25 11 0 9
-10 -9 -41 -35 -63 -40 -64 -81 -10 -43 55 -44 61 -18 61 11 0 28 -13 38 -30z
m931 2 c4 -14 -36 -54 -47 -47 -13 8 -19 64 -7 68 15 6 49 -8 54 -21z m700 19
c10 -6 4 -15 -21 -34 -38 -28 -34 -29 -76 26 -12 16 -10 17 35 17 27 0 55 -4
62 -9z m-1665 -62 c27 -32 53 -59 57 -59 5 0 25 25 45 55 19 30 39 55 45 55
30 0 91 -45 129 -94 24 -31 49 -56 55 -56 7 0 22 20 34 45 12 25 29 45 37 45
8 0 15 -3 14 -7 -1 -15 -75 -127 -85 -130 -5 -2 -43 37 -84 87 -40 49 -77 90
-80 90 -4 0 -29 -34 -56 -75 -27 -41 -51 -75 -54 -74 -3 0 -34 34 -69 75 -72
85 -69 85 -128 -7 -21 -32 -41 -59 -44 -59 -10 0 -79 103 -79 118 0 25 31 11
51 -23 12 -19 26 -35 33 -35 7 0 23 18 35 40 19 33 64 67 91 69 3 0 27 -27 53
-60z m1827 -20 c-14 -10 -29 -19 -34 -19 -9 0 -3 32 15 77 l11 28 16 -33 c16
-33 16 -34 -8 -53z m-7209 -15 c-21 -44 -46 -88 -55 -99 -14 -18 -15 -19 -16
-2 0 19 100 190 107 183 2 -2 -14 -39 -36 -82z m4932 65 c5 -18 -4 -25 -61
-51 -37 -17 -118 -59 -180 -95 -62 -36 -115 -63 -117 -61 -3 2 3 20 13 39 14
28 38 45 132 94 64 33 129 68 145 77 40 23 62 22 68 -3z m2547 14 c0 -5 -16
-29 -35 -55 l-34 -46 -65 21 c-36 12 -66 25 -66 28 0 7 145 51 193 58 4 0 7
-2 7 -6z m-6382 -54 c-12 -10 -23 -17 -24 -16 -1 1 1 17 3 35 5 32 6 32 25 15
19 -17 19 -17 -4 -34z m262 44 c0 -8 -66 -123 -85 -147 -28 -37 -26 -8 2 31
16 22 37 59 47 81 17 36 36 56 36 35z m1039 -50 c7 -32 15 -115 18 -185 l6
-128 -26 0 c-14 0 -37 4 -51 10 -25 9 -26 13 -26 93 0 46 -5 109 -11 141 l-12
57 33 34 c19 19 39 35 46 35 6 0 17 -26 23 -57z m4506 1 c4 -31 5 -57 3 -59
-2 -1 -32 -5 -67 -9 l-63 -7 18 23 c50 63 90 108 95 108 4 0 10 -25 14 -56z
m53 25 l24 -29 -24 -19 c-23 -19 -23 -19 -29 7 -10 39 -10 72 -1 71 4 0 18
-13 30 -30z m-1734 -4 c-19 -29 -29 -31 -38 -9 -11 28 -7 34 24 34 30 0 30 0
14 -25z m2362 -47 c14 -27 14 -28 -14 -28 -38 0 -52 17 -52 64 l0 39 26 -24
c14 -13 32 -36 40 -51z m62 59 l33 -12 -29 -28 -30 -28 -19 28 c-35 50 -36 53
-11 52 13 0 38 -6 56 -12z m-151 -74 c-3 -2 -17 -3 -31 -1 l-26 3 27 39 28 39
3 -38 c2 -20 1 -39 -1 -42z m-7106 44 c-5 -5 -18 -7 -28 -3 -14 6 -15 9 -4 16
19 11 46 1 32 -13z m984 -30 c-25 -44 -96 -129 -103 -123 -2 3 6 20 20 38 14
18 37 57 52 87 21 40 30 51 39 42 8 -8 6 -19 -8 -44z m2956 -98 c70 -175 77
-199 56 -199 -9 0 -27 31 -48 83 -18 45 -48 115 -66 156 -32 71 -36 117 -10
108 6 -2 37 -68 68 -148z m1090 17 l26 -29 47 76 c27 43 51 77 55 77 4 0 42
-41 85 -90 42 -50 81 -88 86 -85 6 3 29 38 52 76 23 39 48 73 56 76 26 10 70
-22 148 -107 43 -47 83 -88 90 -93 9 -5 26 18 55 73 24 44 48 79 54 76 5 -2 9
-7 8 -12 -2 -12 -93 -177 -103 -187 -4 -5 -43 34 -88 85 -109 127 -128 144
-145 129 -8 -6 -38 -49 -67 -96 -29 -47 -54 -85 -55 -85 -3 0 -141 163 -161
189 -9 12 -20 -2 -59 -72 -27 -48 -51 -87 -54 -87 -3 0 -35 39 -70 86 -35 47
-69 83 -75 81 -6 -2 -31 -36 -55 -75 l-44 -73 -29 28 c-16 15 -42 47 -58 71
l-28 43 -25 -33 c-13 -18 -37 -52 -52 -76 l-28 -43 -34 33 c-32 31 -43 58 -24
58 5 0 19 -12 31 -27 24 -31 23 -31 65 47 30 56 49 80 62 80 6 0 32 -29 59
-65 26 -36 52 -64 58 -62 6 2 30 36 55 76 l44 72 46 -53 c25 -29 58 -66 72
-82z m263 103 l19 -32 18 24 c12 16 19 19 18 9 0 -15 -22 -50 -32 -50 -3 0
-20 18 -37 40 -20 25 -27 40 -18 40 8 0 22 -14 32 -31z m1124 7 c2 -3 -9 -20
-24 -40 l-28 -34 -43 29 c-43 30 -49 39 -35 53 7 8 121 0 130 -8z m892 -40
c-12 -37 -24 -43 -50 -26 -12 8 -9 14 20 39 19 16 37 28 38 26 2 -2 -1 -20 -8
-39z m-7661 7 c-17 -47 -83 -163 -91 -163 -15 0 -8 19 43 104 52 89 66 106 48
59z m2481 -14 c6 -23 12 -76 13 -118 l2 -75 -30 -6 c-34 -6 -34 -19 -2 -37 22
-11 22 -12 -6 -22 -53 -21 -54 -20 -60 116 l-6 127 32 28 c18 15 35 27 39 28
4 0 12 -19 18 -41z m2360 -3 c-46 -45 -326 -204 -338 -191 -13 13 18 42 94 86
87 50 275 149 283 149 3 0 -14 -20 -39 -44z m-3921 -73 c2 -2 0 -3 -5 -3 -14
0 -114 90 -114 103 0 6 26 -13 57 -43 32 -30 60 -56 62 -57z m6789 39 c-3 -20
-5 -21 -19 -10 -13 11 -15 20 -7 48 10 35 10 35 20 10 5 -13 8 -35 6 -48z m71
47 l35 -21 -25 -19 c-32 -25 -45 -24 -53 4 -8 31 -7 57 2 57 4 0 22 -10 41
-21z m-6696 -1 c12 11 21 -2 56 -82 41 -93 81 -201 81 -218 0 -12 -32 -9 -60
6 -17 10 -24 23 -25 42 0 22 -5 29 -20 29 -11 0 -21 -9 -25 -21 -4 -17 -9 -20
-26 -14 -18 7 -22 19 -27 101 -4 50 -7 109 -7 131 0 35 2 37 19 26 15 -9 23
-9 34 0z m297 3 c0 -15 -120 -166 -128 -161 -11 8 -5 18 56 96 54 69 72 85 72
65z m2000 -1 c0 -6 -16 -27 -36 -48 -36 -36 -35 -32 7 36 14 23 29 29 29 12z
m896 -197 c13 -35 20 -63 15 -63 -23 0 -53 43 -91 132 -36 85 -40 99 -29 120
12 22 14 20 47 -52 19 -41 45 -103 58 -137z m2794 187 l25 -6 -28 -18 c-29
-20 -47 -13 -68 26 -11 20 -11 20 71 -2z m110 -26 l0 -46 -42 7 c-24 4 -47 10
-51 12 -6 4 76 69 91 72 1 1 2 -20 2 -45z m125 27 l49 -18 -29 -10 c-17 -6
-38 -14 -47 -18 -12 -5 -21 2 -32 24 -26 49 -21 50 59 22z m-4675 -84 c6 -42
8 -82 5 -87 -3 -6 -31 -10 -61 -10 l-54 0 0 52 c0 48 4 56 42 95 23 24 46 39
50 35 4 -4 12 -42 18 -85z m2334 49 c-20 -41 -29 -44 -44 -17 -15 28 -12 35 6
20 14 -11 18 -10 30 6 8 10 14 23 14 29 0 5 2 7 5 4 3 -3 -2 -22 -11 -42z
m1986 -16 c0 -53 -8 -60 -67 -60 -20 0 -33 4 -31 11 7 20 83 107 91 102 4 -2
7 -26 7 -53z m-977 5 c22 -25 44 -45 48 -45 4 0 20 20 36 45 25 41 43 56 43
38 0 -13 -65 -133 -71 -133 -4 0 -35 32 -69 70 -44 49 -57 70 -45 70 10 0 36
-20 58 -45z m30 28 c18 -17 19 -17 32 0 16 22 29 22 16 0 -28 -49 -28 -49 -55
-23 -39 36 -32 58 7 23z m671 -6 c29 -23 29 -24 11 -51 -21 -32 -22 -31 -40
28 -16 52 -12 55 29 23z m330 -54 c-24 -18 -34 -7 -34 35 l1 37 24 -30 c23
-27 23 -31 9 -42z m221 47 c7 -21 0 -40 -16 -40 -5 0 -9 14 -9 30 0 34 15 40
25 10z m-6335 -61 c33 -23 58 -44 55 -47 -6 -6 -145 99 -145 111 0 4 7 2 15
-7 9 -8 42 -34 75 -57z m476 9 c-53 -76 -95 -123 -102 -115 -4 4 13 30 38 59
24 29 54 68 67 86 13 18 26 31 29 28 3 -3 -11 -30 -32 -58z m3911 -47 c6 -77
5 -81 -32 -156 -25 -49 -41 -72 -45 -63 -4 7 -10 50 -13 96 -6 81 -6 85 30
157 44 88 51 83 60 -34z m137 -85 c9 -58 14 -166 7 -166 -3 0 -31 44 -63 98
-42 73 -58 110 -63 152 -3 30 -9 69 -12 85 -4 25 6 16 61 -54 38 -49 68 -97
70 -115z m789 162 c4 -18 9 -65 13 -105 l6 -71 -51 -96 c-29 -52 -56 -98 -61
-101 -17 -10 -39 51 -46 127 l-7 75 57 102 c32 55 63 101 70 101 8 0 16 -15
19 -32z m347 17 c0 -20 -36 -55 -57 -55 -9 0 -25 8 -35 17 -19 17 -18 18 29
34 61 22 63 22 63 4z m70 -10 c25 -65 24 -73 -10 -80 -17 -4 -33 -5 -36 -2 -5
4 27 107 33 107 2 0 8 -11 13 -25z m-1090 -104 c9 -62 8 -65 -33 -147 -23 -46
-44 -84 -48 -84 -3 0 -9 47 -13 105 l-7 105 38 70 c36 69 38 70 45 43 5 -15
12 -57 18 -92z m109 -9 c29 -37 35 -55 42 -120 4 -42 8 -99 8 -127 0 -47 -1
-49 -15 -30 -8 11 -37 62 -65 113 -40 74 -53 110 -64 180 -8 48 -15 93 -15 99
0 13 55 -45 109 -115z m195 28 c9 -47 16 -93 16 -103 0 -17 -85 -160 -119
-201 -15 -17 -16 -15 -22 40 -4 33 -7 92 -8 132 -1 69 1 75 39 131 22 32 40
63 40 68 0 14 23 34 31 26 3 -5 14 -46 23 -93z m119 -22 c63 -73 86 -107 91
-135 7 -44 8 -103 2 -103 -2 0 -11 -3 -19 -6 -9 -3 -38 23 -82 76 -64 77 -69
86 -86 168 -10 48 -18 96 -19 107 0 23 -6 28 113 -107z m1481 110 c-4 -7 -19
-27 -33 -45 l-25 -31 -37 19 c-51 26 -55 36 -17 48 77 23 123 27 112 9z m179
-7 c5 -5 -8 -21 -27 -36 -20 -15 -38 -26 -40 -24 -20 26 -46 69 -46 74 0 10
102 -4 113 -14z m-7634 -45 c-12 -26 -23 -45 -26 -43 -2 3 6 25 18 51 13 25
24 44 26 42 2 -2 -6 -25 -18 -50z m2770 23 c6 -18 11 -49 11 -70 l0 -39 -50 0
-50 0 0 42 c0 35 5 46 33 69 17 16 35 28 39 29 3 0 11 -14 17 -31z m2305 -83
c8 -66 7 -68 -31 -126 -21 -33 -41 -60 -44 -60 -3 0 -9 41 -13 90 l-7 91 38
61 c43 69 44 68 57 -56z m1219 100 c20 -1 55 -40 122 -136 32 -46 60 -204 39
-221 -10 -8 -11 -16 -3 -31 25 -46 -2 -21 -80 73 -46 56 -89 115 -96 133 -20
46 -32 201 -15 191 7 -4 22 -8 33 -9z m567 -16 c-12 -16 -22 -30 -24 -30 -1 0
-17 11 -35 24 l-33 25 43 4 c24 2 50 4 57 5 9 1 6 -8 -8 -28z m-2661 -43 c41
-90 45 -107 28 -107 -16 0 -82 144 -72 159 11 18 15 13 44 -52z m2204 8 c31
-48 36 -52 55 -33 6 6 14 9 17 6 7 -7 -16 -58 -25 -58 -9 0 -88 103 -96 125
-12 31 22 4 49 -40z m1467 5 c-10 -39 -13 -41 -27 -27 -14 14 -13 18 7 47 28
40 34 33 20 -20z m-7490 30 c0 -5 -9 -10 -19 -10 -11 0 -23 5 -26 10 -4 6 5
10 19 10 14 0 26 -4 26 -10z m1038 -37 c-34 -51 -107 -133 -119 -133 -5 0 23
40 63 90 72 90 103 113 56 43z m3722 -3 c38 -45 43 -58 51 -123 11 -93 11
-129 1 -123 -4 2 -25 29 -46 60 -32 47 -39 67 -50 145 -7 50 -9 91 -5 91 4 0
26 -23 49 -50z m2340 20 c0 -26 -4 -30 -26 -30 l-25 0 21 30 c12 17 23 30 26
30 2 0 4 -13 4 -30z m340 10 c-6 -12 -16 -17 -27 -13 -14 6 -14 8 3 20 26 19
36 16 24 -7z m-6910 -49 c36 -24 67 -46 69 -48 2 -2 2 -5 -1 -8 -5 -5 -158
102 -158 111 0 6 9 1 90 -55z m2000 14 c0 -25 -3 -45 -7 -45 -5 -1 -27 -5 -51
-9 -27 -5 -45 -5 -49 2 -6 9 83 96 100 97 4 0 7 -20 7 -45z m1890 26 c-5 -11
-24 -28 -40 -38 -17 -9 -30 -21 -30 -24 0 -9 -232 -130 -238 -125 -18 18 25
51 161 124 83 45 153 82 155 82 1 0 -2 -9 -8 -19z m-4774 -33 c-19 -27 -21
-19 -4 18 7 14 14 21 16 15 2 -6 -4 -21 -12 -33z m6724 -14 c11 -38 11 -47 0
-54 -17 -11 -81 -23 -87 -17 -7 8 57 128 66 123 5 -3 14 -26 21 -52z m48 36
c22 -19 23 -20 6 -52 l-17 -33 -13 35 c-14 40 -17 70 -6 70 4 -1 17 -9 30 -20z
m355 11 l29 -6 -24 -22 c-25 -23 -31 -22 -62 15 -19 22 -19 22 5 21 13 -1 37
-4 52 -8z m377 -11 c9 -16 8 -20 -5 -20 -8 0 -15 9 -15 20 0 11 2 20 5 20 2 0
9 -9 15 -20z m215 6 c19 -8 35 -17 35 -20 0 -10 -61 -37 -70 -31 -10 6 -14 65
-5 65 3 0 21 -7 40 -14z m-7180 -6 c-3 -5 -19 -10 -35 -10 -16 0 -32 5 -35 10
-4 6 10 10 35 10 25 0 39 -4 35 -10z m4380 -50 c16 -18 21 -39 24 -109 3 -86
3 -86 -17 -68 -49 44 -71 91 -78 166 l-7 74 29 -20 c16 -12 38 -31 49 -43z
m2115 4 l0 -44 -45 0 c-25 0 -45 4 -45 10 0 16 71 90 81 84 5 -3 9 -25 9 -50z
m189 34 c-1 -13 -4 -33 -7 -45 -7 -20 -9 -21 -39 -8 -18 8 -33 18 -33 24 0 9
59 51 73 51 4 0 7 -10 6 -22z m394 1 c-7 -24 -30 -36 -45 -21 -6 6 -2 15 13
26 31 21 38 20 32 -5z m275 -15 c-5 -28 -28 -29 -28 -1 0 13 3 27 7 31 10 10
25 -10 21 -30z m-577 11 c16 -9 27 -20 24 -25 -10 -17 -44 -11 -55 9 -19 36
-13 38 31 16z m-6386 -94 c-7 -6 -135 80 -135 91 0 5 31 -12 69 -39 39 -26 68
-49 66 -52z m505 93 c0 -11 -114 -145 -131 -155 -29 -15 -23 4 12 37 17 16 47
50 67 77 32 42 52 58 52 41z m2705 -44 c30 -59 30 -60 6 -60 -30 0 -65 82 -44
103 10 11 11 10 38 -43z m3130 -10 c-13 -21 -25 -8 -25 28 l1 37 15 -28 c8
-15 12 -32 9 -37z m380 12 c-11 -11 -25 15 -19 33 7 17 8 16 16 -5 5 -13 6
-25 3 -28z m-568 -5 c-6 -19 -22 -6 -25 20 -2 27 -2 27 13 8 8 -10 14 -23 12
-28z m-2248 -38 c1 -26 -11 -55 -45 -107 -25 -40 -49 -72 -53 -72 -8 0 -41 54
-41 67 0 4 14 23 30 42 17 18 30 39 30 46 0 7 15 31 33 52 36 44 45 39 46 -28z
m2095 46 l-16 -25 -29 21 c-16 11 -29 22 -29 25 0 2 20 4 45 4 l45 0 -16 -25z
m-294 10 c0 -4 -7 -20 -16 -36 -15 -30 -16 -30 -35 -13 -11 10 -18 22 -16 28
4 13 67 33 67 21z m800 -5 c0 -14 -33 -80 -39 -80 -3 1 -21 14 -40 30 l-34 29
49 15 c60 18 64 18 64 6z m-887 -100 c4 -16 -51 -151 -69 -169 -9 -9 -13 7
-28 101 -15 91 -15 100 1 134 l18 36 36 -41 c20 -22 39 -50 42 -61z m347 45
c0 -6 -6 -20 -14 -31 -14 -18 -15 -18 -25 9 -6 15 -14 40 -17 54 l-7 26 32
-24 c17 -12 31 -28 31 -34z m672 47 c15 -6 14 -10 -8 -36 -28 -32 -27 -32 -42
12 -10 30 -9 32 11 31 12 0 30 -3 39 -7z m166 -17 c-11 -24 -38 -35 -38 -16 0
8 38 41 47 41 1 0 -3 -11 -9 -25z m97 -12 c8 -20 14 -37 13 -38 -10 -8 -48
-25 -57 -25 -6 0 -6 13 0 38 20 76 22 77 44 25z m-7815 6 c0 -11 -4 -18 -10
-14 -5 3 -7 12 -3 20 7 21 13 19 13 -6z m340 11 c0 -5 -12 -10 -26 -10 -14 0
-23 4 -19 10 3 6 15 10 26 10 10 0 19 -4 19 -10z m537 -57 c-7 -6 -87 48 -87
59 0 5 21 -5 46 -22 25 -18 43 -34 41 -37z m536 36 c-27 -47 -80 -105 -88 -97
-8 8 84 128 98 128 5 0 0 -14 -10 -31z m5399 -18 c18 -56 14 -61 -43 -61 -19
0 -29 5 -29 15 0 20 38 95 48 95 5 0 15 -22 24 -49z m-2733 -22 c-21 -12 -32
6 -24 38 l7 28 15 -29 c12 -24 13 -30 2 -37z m3675 34 c-8 -32 -21 -50 -30
-40 -9 8 16 67 27 67 5 0 6 -12 3 -27z m134 16 c-2 -6 -8 -10 -13 -10 -5 0
-11 4 -13 10 -2 6 4 11 13 11 9 0 15 -5 13 -11z m-3220 -36 c-41 -44 -124 -85
-165 -81 -37 3 -37 4 67 58 58 31 109 54 113 52 5 -2 -2 -15 -15 -29z m2431
-30 c1 -19 -4 -23 -26 -23 -51 0 -55 13 -21 55 32 38 32 38 39 14 4 -13 7 -34
8 -46z m66 57 c23 -9 25 -13 15 -25 -17 -21 -25 -19 -44 10 -18 27 -12 30 29
15z m275 -25 c0 -24 -5 -35 -15 -35 -18 0 -19 11 -3 45 15 33 18 32 18 -10z
m211 14 c16 -8 18 -13 8 -25 -18 -22 -39 -17 -39 11 0 28 3 29 31 14z m-381
-44 c0 -25 -3 -45 -7 -45 -5 0 -24 10 -43 21 l-34 21 27 24 c43 37 57 32 57
-21z m100 -17 c0 -16 -38 -8 -43 10 -2 9 -8 26 -12 37 -6 16 -1 14 23 -9 18
-17 32 -33 32 -38z m120 25 c0 -7 -4 -13 -10 -13 -5 0 -10 12 -10 28 0 21 2
24 10 12 5 -8 10 -21 10 -27z m-6041 -24 c1 -11 -10 -19 -31 -23 -17 -3 -33
-5 -34 -3 -2 2 8 21 23 42 24 35 27 37 34 19 4 -10 8 -26 8 -35z m5564 45 c9
-9 -4 -34 -18 -34 -6 0 -20 9 -30 20 -18 20 -17 20 12 20 16 0 32 -3 36 -6z
m550 -14 c-6 -21 -21 -35 -29 -27 -6 6 18 47 27 47 4 0 5 -9 2 -20z m-845 -15
c-13 -30 -19 -30 -61 -8 l-32 17 25 7 c14 4 37 7 52 8 26 1 27 -1 16 -24z
m422 -1 c0 -8 -4 -14 -10 -14 -5 0 -10 9 -10 21 0 11 5 17 10 14 6 -3 10 -13
10 -21z m452 -14 c-5 -13 -11 -19 -14 -14 -3 5 -1 20 4 34 13 31 22 12 10 -20z
m-2242 -75 c33 -58 64 -105 68 -105 4 0 29 44 56 97 56 114 45 118 137 -54 33
-62 65 -113 70 -113 5 0 22 21 37 46 49 83 122 193 131 198 6 4 165 -184 202
-239 11 -18 20 -65 11 -65 -4 0 -48 54 -96 120 -48 66 -92 121 -97 122 -5 0
-13 1 -19 2 -5 1 -45 -54 -89 -121 -44 -68 -83 -123 -85 -123 -3 0 -35 59 -72
131 l-67 132 -18 -24 c-10 -13 -35 -61 -55 -107 -21 -45 -42 -81 -48 -79 -6 1
-34 48 -63 102 -28 55 -57 100 -64 100 -7 0 -30 -29 -50 -65 -28 -51 -42 -66
-62 -68 -22 -3 -32 6 -69 62 -24 36 -46 66 -50 66 -5 0 -21 -19 -38 -42 -64
-93 -51 -91 -120 -18 -68 72 -62 72 -112 -1 -12 -19 -19 -21 -29 -12 -9 9 -4
25 27 72 21 34 41 61 44 60 3 0 29 -29 58 -65 62 -74 60 -74 119 17 21 32 41
59 44 59 3 0 29 -34 57 -75 29 -41 57 -77 62 -80 5 -3 30 35 55 85 25 49 49
90 54 90 5 0 37 -47 71 -105z m1570 66 c14 -42 8 -61 -18 -61 -38 0 -44 14
-26 58 9 23 19 42 23 42 5 0 14 -18 21 -39z m60 -13 c0 -31 -17 -27 -33 8 -22
46 -22 48 8 27 13 -10 25 -26 25 -35z m329 20 c10 -27 2 -46 -10 -27 -10 15
-12 49 -4 49 3 0 9 -10 14 -22z m531 4 c0 -16 -48 -54 -59 -47 -19 11 -12 31
17 42 35 14 42 15 42 5z m-1528 -114 c52 -62 102 -124 111 -138 17 -24 24 -80
10 -80 -5 0 -48 62 -98 138 -49 75 -94 140 -99 144 -16 11 -31 -7 -82 -95 -27
-44 -50 -75 -52 -69 -2 7 5 24 16 39 11 16 36 61 56 101 20 39 38 72 40 72 2
0 46 -51 98 -112z m354 84 c-7 -7 -46 9 -46 18 0 5 11 4 25 -2 14 -6 23 -13
21 -16z m1084 -22 c0 -9 -51 -32 -57 -26 -3 3 1 22 7 42 l13 38 18 -23 c11
-13 19 -26 19 -31z m-177 7 c43 -26 47 -31 47 -66 0 -23 -8 -48 -19 -62 -17
-22 -27 -24 -98 -23 -95 1 -226 39 -231 68 -5 23 68 92 111 105 56 18 139 8
190 -22z m-2953 14 c0 -16 -29 -33 -52 -29 -22 3 -22 4 7 20 34 20 45 22 45 9z
m2220 -10 c0 -5 -9 -7 -20 -4 -11 3 -20 7 -20 9 0 2 9 4 20 4 11 0 20 -4 20
-9z m258 -8 c5 -18 -23 -16 -39 3 -11 14 -10 15 11 12 13 -1 25 -9 28 -15z
m76 -14 c22 -37 18 -42 -22 -28 -36 12 -36 13 -22 40 15 26 23 24 44 -12z m76
11 c14 -10 21 -22 17 -26 -4 -4 -20 4 -35 19 -31 31 -19 36 18 7z m-230 -30
l20 -40 -29 0 c-16 0 -33 5 -36 11 -6 9 12 69 21 69 2 0 13 -18 24 -40z m809
10 c-11 -30 -29 -41 -29 -18 0 10 28 48 36 48 2 0 -2 -13 -7 -30z m-1253 -6
c14 -9 30 -26 36 -38 10 -20 10 -20 -14 2 -13 12 -30 22 -36 22 -7 0 -26 -26
-44 -57 -17 -31 -34 -51 -36 -45 -3 11 56 132 65 132 2 0 15 -7 29 -16z m497
-21 c-6 -14 -8 -14 -20 3 -19 26 -16 36 7 24 12 -6 17 -16 13 -27z m167 -5 c0
-14 -19 1 -31 25 -12 22 -12 22 10 3 11 -11 21 -23 21 -28z m-912 -109 c82
-124 102 -169 75 -169 -4 0 -39 54 -78 120 -38 66 -75 120 -82 120 -6 0 -35
-38 -63 -85 -52 -86 -70 -102 -70 -63 0 20 109 217 120 217 3 0 47 -63 98
-140z m-994 58 c20 -41 36 -80 36 -87 0 -23 -16 1 -35 52 -27 72 -42 79 -63
29 -15 -37 -42 -56 -42 -31 0 18 50 110 59 110 5 0 25 -33 45 -73z m1608 51
c-6 -6 -16 -7 -22 -3 -9 6 -9 9 1 16 17 10 34 0 21 -13z m-2072 -13 c13 -14
20 -28 17 -32 -4 -3 -14 2 -21 13 -12 15 -17 17 -27 7 -7 -7 -19 -13 -26 -13
-10 0 -10 6 3 25 20 31 25 31 54 0z m202 8 c23 -27 50 -83 39 -83 -5 0 -19 16
-31 36 l-22 35 -25 -36 c-14 -20 -27 -34 -30 -31 -7 6 39 96 48 96 3 0 13 -8
21 -17z m533 -111 c33 -67 64 -121 69 -119 5 2 46 57 90 122 45 65 86 121 93
123 16 5 204 -249 201 -272 -6 -41 -28 -23 -83 66 -32 51 -69 108 -82 126 -24
32 -26 32 -44 17 -10 -10 -52 -68 -95 -131 -42 -63 -78 -114 -80 -114 -3 0
-32 56 -66 125 -34 69 -67 125 -74 125 -6 0 -24 -34 -39 -75 -31 -83 -37 -92
-54 -71 -9 11 -2 35 36 110 26 53 52 95 58 93 5 -1 37 -58 70 -125z m2105 103
c-7 -8 -17 -12 -22 -9 -6 4 -5 10 3 15 22 14 33 10 19 -6z m-1050 -112 c-1
-13 -12 -5 -43 30 -23 26 -45 47 -49 47 -3 0 -21 -26 -39 -57 -18 -32 -34 -53
-36 -47 -2 7 13 42 33 79 l37 68 49 -51 c26 -28 48 -59 48 -69z m1133 103 c7
-18 -1 -26 -25 -26 -16 0 -17 3 -8 20 13 23 26 26 33 6z m-680 -20 c17 -26 13
-36 -13 -36 -13 0 -17 8 -16 30 1 36 9 38 29 6z m617 4 c-6 -11 -16 -20 -22
-20 -6 0 -3 9 7 20 10 11 20 20 22 20 2 0 -1 -9 -7 -20z m-570 -5 c7 -8 8 -15
2 -15 -5 0 -15 7 -22 15 -7 8 -8 15 -2 15 5 0 15 -7 22 -15z m-2086 -30 c3 -9
0 -15 -9 -15 -8 0 -15 7 -15 15 0 8 4 15 9 15 5 0 11 -7 15 -15z m246 -36 c0
-12 -6 -16 -20 -12 -21 6 -25 19 -13 49 6 16 7 16 20 -2 7 -10 13 -26 13 -35z
m1009 -96 c24 -45 40 -87 36 -93 -3 -5 -16 -10 -28 -10 -17 0 -31 14 -52 50
-16 28 -35 50 -42 50 -7 0 -25 -25 -40 -55 -23 -47 -31 -55 -55 -55 -16 0 -31
7 -34 15 -6 14 43 114 100 204 l28 43 22 -33 c13 -19 42 -71 65 -116z m-690
-91 c-19 -7 -58 8 -64 26 -3 9 -12 26 -20 36 -15 19 -15 19 -29 1 -12 -16 -16
-17 -30 -6 -22 18 -20 30 11 107 l26 67 58 -114 c31 -63 53 -116 48 -117z
m321 92 c27 -46 50 -88 50 -93 0 -9 -24 -21 -40 -21 -5 0 -28 25 -51 55 -23
30 -47 55 -54 55 -7 0 -29 -25 -49 -55 -34 -51 -39 -55 -76 -55 -22 0 -40 3
-40 6 0 8 80 131 128 198 l36 49 23 -27 c12 -15 45 -65 73 -112z m650 76 c42
-50 42 -50 25 -77 l-18 -27 -18 23 -19 23 -21 -46 c-11 -25 -23 -46 -27 -46
-4 0 -17 -3 -30 -6 -21 -6 -22 -4 -16 22 7 28 74 184 79 184 2 0 22 -23 45
-50z m-711 -145 c17 -20 31 -40 31 -45 0 -15 -21 -12 -42 7 -16 14 -20 15 -35
1 -33 -29 -45 -10 -20 33 12 21 25 39 28 39 4 0 21 -16 38 -35z m375 -6 c20
-34 12 -55 -9 -25 -15 19 -35 14 -35 -10 0 -8 -7 -14 -15 -14 -19 0 -19 2 2
45 21 43 33 44 57 4z"/>
<path d="M6756 5599 c-45 -35 -30 -89 25 -89 30 0 59 31 59 62 0 15 -35 48
-51 48 -3 0 -18 -9 -33 -21z m64 -23 c0 -14 -36 -46 -51 -46 -14 0 -19 33 -8
46 15 19 59 18 59 0z"/>
<path d="M5966 5508 c-20 -29 -20 -62 0 -82 21 -21 40 -20 64 4 25 25 26 62 2
83 -25 23 -48 21 -66 -5z m59 -18 c8 -24 -11 -60 -31 -60 -19 0 -28 24 -20 55
8 30 42 34 51 5z"/>
<path d="M6680 5432 c-25 -21 -30 -69 -9 -83 54 -34 134 37 93 82 -22 24 -55
24 -84 1z m68 -29 c4 -24 -30 -48 -54 -39 -14 6 -19 47 -7 60 16 15 58 1 61
-21z"/>
<path d="M6000 5320 c-11 -11 -20 -31 -20 -43 0 -32 33 -61 59 -52 50 16 67
67 33 98 -25 22 -48 21 -72 -3z m66 -14 c8 -21 -14 -56 -36 -56 -28 0 -34 18
-16 45 18 28 44 33 52 11z"/>
<path d="M6587 5262 c-24 -26 -21 -68 4 -86 51 -35 121 48 77 92 -18 18 -63
14 -81 -6z m70 -18 c9 -24 -10 -49 -38 -49 -27 0 -37 28 -19 50 17 20 49 19
57 -1z"/>
<path d="M6050 5111 c-21 -41 2 -91 43 -91 39 0 64 69 35 98 -19 19 -66 15
-78 -7z m65 -31 c0 -20 -6 -26 -27 -28 -24 -3 -28 0 -28 21 0 30 9 39 35 35
14 -2 20 -10 20 -28z"/>
<path d="M6472 5114 c-24 -17 -30 -62 -10 -82 31 -31 98 0 98 46 0 20 -33 52
-55 52 -6 0 -21 -7 -33 -16z m62 -26 c15 -24 -13 -53 -43 -43 -23 7 -28 34 -9
53 16 16 38 12 52 -10z"/>
<path d="M6341 4974 c-26 -33 -26 -39 -1 -64 24 -24 38 -25 68 -4 27 18 31 78
6 88 -31 12 -53 6 -73 -20z m74 -14 c10 -16 -14 -40 -41 -40 -30 0 -38 15 -18
34 18 18 50 21 59 6z"/>
<path d="M6187 4882 c-45 -49 4 -114 58 -78 27 18 34 63 13 84 -18 18 -53 15
-71 -6z m61 -29 c2 -14 -4 -26 -18 -33 -24 -13 -40 -6 -40 19 0 41 52 54 58
14z"/>
<path d="M5294 5305 c-29 -45 3 -105 56 -105 55 0 82 83 38 114 -34 24 -75 20
-94 -9z m74 -17 c28 -28 8 -58 -38 -58 -27 0 -37 40 -14 57 22 16 36 17 52 1z"/>
<path d="M3264 4860 c-51 -20 -70 -94 -34 -130 45 -45 112 -38 137 15 22 45 4
92 -43 111 -19 8 -35 14 -36 13 -2 0 -13 -4 -24 -9z m74 -30 c44 -41 17 -110
-41 -110 -65 0 -91 70 -41 109 34 26 54 26 82 1z"/>
<path d="M4379 4708 c-34 -11 -53 -56 -45 -102 7 -39 55 -86 87 -86 56 0 108
62 95 114 -14 58 -80 93 -137 74z m75 -22 c54 -22 58 -82 10 -130 -39 -40
-114 4 -114 67 0 35 15 61 40 70 23 8 28 8 64 -7z"/>
<path d="M3601 4633 c-39 -38 -46 -74 -20 -106 41 -53 133 -41 158 22 10 24
10 34 -3 60 -30 57 -88 68 -135 24z m108 -19 c27 -34 26 -46 -1 -71 -32 -29
-63 -36 -90 -22 -45 24 -50 54 -13 93 32 35 76 35 104 0z"/>
<path d="M4022 4590 c-29 -12 -55 -71 -46 -106 15 -58 93 -68 134 -17 28 36
25 69 -9 104 -31 31 -42 33 -79 19z m80 -50 c15 -29 16 -37 4 -55 -18 -27 -62
-42 -84 -29 -9 6 -19 25 -23 42 -5 25 -1 37 17 58 33 34 64 29 86 -16z"/>
<path d="M1527 3923 c-13 -12 -7 -74 9 -105 l16 -31 19 29 c21 33 25 84 7 102
-13 13 -41 16 -51 5z m38 -24 c10 -15 -4 -61 -15 -54 -13 8 -13 65 -1 65 6 0
13 -5 16 -11z"/>
<path d="M1710 3895 c-16 -19 -15 -84 1 -99 21 -21 81 76 64 103 -9 16 -51 13
-65 -4z m50 -17 c-1 -18 -29 -53 -36 -45 -11 11 6 57 21 57 8 0 15 -6 15 -12z"/>
<path d="M1377 3883 c-19 -18 14 -128 38 -128 6 0 11 22 13 49 2 35 -2 53 -14
67 -18 20 -27 23 -37 12z m33 -54 c0 -11 -4 -17 -10 -14 -5 3 -10 15 -10 26 0
11 5 17 10 14 6 -3 10 -15 10 -26z"/>
<path d="M1878 3793 c-43 -50 -49 -88 -11 -78 45 11 84 45 81 69 -4 28 -48 34
-70 9z m52 -13 c0 -12 -49 -45 -55 -38 -9 8 36 59 46 53 5 -4 9 -10 9 -15z"/>
<path d="M1214 3766 c-8 -20 11 -51 45 -75 38 -27 41 -27 41 8 0 54 -70 109
-86 67z m54 -31 c13 -29 6 -32 -20 -8 -21 19 -23 33 -5 33 8 0 19 -11 25 -25z"/>
<path d="M1096 3665 c-9 -24 3 -41 45 -69 46 -31 59 -32 59 -8 0 55 -87 120
-104 77z m60 -30 c9 -14 14 -29 10 -32 -7 -7 -56 36 -56 49 0 18 31 7 46 -17z"/>
<path d="M1943 3646 l-38 -35 42 -1 c62 0 95 15 91 43 -5 38 -50 35 -95 -7z
m77 5 c0 -10 -24 -21 -47 -21 -13 0 -13 3 -3 15 13 16 50 21 50 6z"/>
<path d="M1955 3533 l-30 -16 30 -13 c61 -27 131 -12 109 23 -15 24 -71 27
-109 6z m85 -12 c0 -15 -15 -21 -38 -14 -32 8 -27 23 8 23 17 0 30 -4 30 -9z"/>
<path d="M1007 3533 c-27 -27 13 -72 71 -80 54 -7 59 9 17 51 -33 33 -72 46
-88 29z m88 -53 c11 -17 -32 -11 -55 8 -35 28 -16 48 20 22 16 -12 32 -25 35
-30z"/>
<path d="M1920 3429 c0 -8 17 -34 38 -58 31 -36 42 -42 60 -36 34 10 26 54
-13 76 -45 26 -85 34 -85 18z m78 -35 c21 -15 31 -44 14 -44 -10 0 -34 20 -51
43 -11 14 -11 17 1 17 7 0 24 -7 36 -16z"/>
<path d="M946 3405 c-24 -24 -4 -52 45 -65 51 -14 74 -7 60 17 -25 48 -80 72
-105 48z m72 -43 c2 -8 -5 -9 -27 -1 -31 11 -37 19 -24 32 8 8 45 -15 51 -31z"/>
<path d="M1850 3342 c0 -22 5 -53 11 -71 9 -27 16 -32 38 -29 21 2 27 9 29 37
3 34 -21 71 -60 92 -16 9 -18 5 -18 -29z m52 -37 c9 -19 9 -28 0 -37 -15 -15
-20 -9 -28 30 -8 39 11 44 28 7z"/>
<path d="M1756 3294 c-7 -55 7 -86 37 -82 16 2 23 11 25 33 2 30 -29 95 -46
95 -5 0 -12 -21 -16 -46z m42 -38 c3 -20 0 -27 -10 -24 -7 3 -14 17 -16 32 -3
20 0 27 10 24 7 -3 14 -17 16 -32z"/>
<path d="M889 3284 c-27 -32 33 -70 100 -62 l26 3 -36 38 c-40 40 -69 47 -90
21z m62 -24 c26 -21 15 -26 -26 -10 -14 5 -23 14 -20 20 9 15 20 12 46 -10z"/>
<path d="M845 3154 c-24 -24 -1 -43 66 -53 83 -14 93 11 19 49 -48 24 -64 25
-85 4z m59 -10 c9 -3 16 -10 16 -16 0 -14 -43 -5 -48 10 -4 13 7 15 32 6z"/>
<path d="M621 3017 c-34 -17 -31 -30 11 -44 65 -21 131 18 79 47 -26 13 -61
13 -90 -3z m74 -17 c4 -6 -7 -10 -27 -10 -25 0 -29 3 -18 10 19 13 37 13 45 0z"/>
<path d="M813 3004 c-10 -27 21 -46 77 -48 67 -1 75 16 21 43 -48 25 -89 27
-98 5z m71 -19 c20 -15 20 -15 0 -15 -11 0 -29 7 -40 15 -19 14 -19 14 1 14
11 0 29 -6 39 -14z"/>
<path d="M799 2884 c-11 -14 -10 -19 11 -36 17 -14 36 -18 73 -16 28 2 52 8
54 15 5 15 -67 53 -100 53 -14 0 -31 -7 -38 -16z m77 -19 c18 -14 17 -15 -15
-13 -19 2 -36 9 -39 16 -5 17 30 15 54 -3z"/>
<path d="M823 2653 c-21 -8 -14 -43 10 -54 17 -8 35 -8 63 0 59 17 71 26 55
45 -13 16 -98 22 -128 9z m82 -23 c-3 -5 -19 -10 -36 -10 -16 0 -29 5 -29 10
0 6 16 10 36 10 21 0 33 -4 29 -10z"/>
<path d="M1403 2774 c-7 -19 20 -49 36 -40 6 4 11 18 11 32 0 17 -5 24 -20 24
-11 0 -23 -7 -27 -16z"/>
<path d="M1430 2700 c-12 -7 -12 -13 -4 -27 16 -26 39 -22 39 6 0 27 -13 35
-35 21z"/>
</g>
</svg>
