<?xml version="1.0" encoding="UTF-8" standalone="no"?>
<svg
   xmlns:dc="http://purl.org/dc/elements/1.1/"
   xmlns:cc="http://creativecommons.org/ns#"
   xmlns:rdf="http://www.w3.org/1999/02/22-rdf-syntax-ns#"
   xmlns:svg="http://www.w3.org/2000/svg"
   xmlns="http://www.w3.org/2000/svg"
   xmlns:sodipodi="http://sodipodi.sourceforge.net/DTD/sodipodi-0.dtd"
   xmlns:inkscape="http://www.inkscape.org/namespaces/inkscape"
   version="1.0"
   width="850.000000pt"
   height="850.000000pt"
   viewBox="0 0 850.000000 850.000000"
   preserveAspectRatio="xMidYMid meet"
   id="svg2"
   inkscape:version="0.91 r13725"
   sodipodi:docname="IMG_1516.svg">
  <defs
     id="defs850" />
  <sodipodi:namedview
     pagecolor="#ffffff"
     bordercolor="#666666"
     borderopacity="1"
     objecttolerance="10"
     gridtolerance="10"
     guidetolerance="10"
     inkscape:pageopacity="0"
     inkscape:pageshadow="2"
     inkscape:window-width="1920"
     inkscape:window-height="980"
     id="namedview848"
     showgrid="false"
     inkscape:zoom="0.88847059"
     inkscape:cx="491.9316"
     inkscape:cy="553.09978"
     inkscape:window-x="0"
     inkscape:window-y="1"
     inkscape:window-maximized="1"
     inkscape:current-layer="svg2" />
  <metadata
     id="metadata4">
Created by potrace 1.14, written by Peter Selinger 2001-2017
<rdf:RDF>
  <cc:Work
     rdf:about="">
    <dc:format>image/svg+xml</dc:format>
    <dc:type
       rdf:resource="http://purl.org/dc/dcmitype/StillImage" />
  </cc:Work>
</rdf:RDF>
</metadata>
  <g
     transform="translate(0.000000,850.000000) scale(0.100000,-0.100000)"
     fill="#000000"
     stroke="none"
     id="g6">
    <path
       d="M0 4250 l0 -4250 4250 0 4250 0 0 4250 0 4250 -4250 0 -4250 0 0 -4250z m7274 4088 c29 -41 20 -112 -34 -268 -137 -394 -190 -727 -190 -1199 -1 -469 -24 -713 -88 -901 -143 -422 -450 -630 -1002 -679 -63 -6 -176 -13 -250 -17 -74 -3 -151 -9 -170 -13 -32 -7 -26 -9 65 -30 203 -47 383 -136 422 -207 31 -57 47 -177 39 -304 -8 -128 -41 -366 -61 -444 -8 -31 -15 -77 -15 -101 0 -49 -6 -44 175 -123 121 -53 167 -84 261 -174 160 -154 162 -188 10 -187 -126 0 -150 11 -211 89 -117 152 -218 228 -347 262 -42 11 -61 9 -205 -25 -289 -66 -326 -72 -388 -58 -32 7 -73 26 -98 45 -51 38 -136 148 -180 233 -30 58 -47 78 -47 53 0 -6 -8 -23 -17 -37 -10 -15 -19 -41 -20 -58 -2 -42 -69 -207 -94 -234 -11 -11 -29 -21 -41 -21 -25 0 -179 154 -197 197 -6 15 -26 38 -45 50 l-33 21 -16 -96 c-34 -209 -79 -296 -178 -345 -53 -27 -256 -67 -462 -92 -66 -8 -129 -51 -196 -136 -52 -66 -74 -112 -111 -239 -18 -58 -41 -115 -52 -127 -29 -31 -144 -85 -193 -91 -32 -3 -43 -1 -48 12 -13 34 66 235 126 320 12 17 70 82 130 145 103 108 109 116 104 148 -3 18 -20 51 -36 72 -82 104 -244 405 -291 541 -32 93 -37 177 -14 226 27 58 215 241 312 304 45 29 81 55 79 57 -2 1 -84 -24 -183 -58 -434 -145 -671 -183 -899 -144 -324 57 -570 278 -765 687 -27 57 -92 211 -145 343 -201 503 -375 808 -638 1114 -150 175 -186 252 -137 296 51 46 573 -19 969 -121 665 -172 1314 -510 1846 -964 217 -185 479 -461 623 -659 58 -79 61 -82 68 -57 5 23 0 32 -35 62 -59 51 -56 99 10 170 l29 30 -28 21 c-58 43 -97 173 -52 173 25 0 25 6 -4 82 -78 210 -261 491 -425 656 -87 88 -201 170 -296 213 -74 33 -87 35 -145 14 -39 -14 -46 -14 -67 1 -32 20 -27 55 9 68 55 19 229 -46 358 -134 234 -159 502 -531 614 -854 6 -17 8 -17 31 8 28 31 27 30 66 11 l29 -16 -6 53 c-14 118 43 477 106 668 46 138 122 285 195 378 68 86 184 189 224 199 48 12 78 -32 45 -68 -12 -14 -30 -19 -66 -19 -44 0 -53 -4 -99 -47 -135 -126 -239 -325 -304 -582 -42 -165 -65 -335 -65 -474 0 -124 1 -127 20 -117 16 8 21 6 31 -12 20 -37 15 -121 -10 -161 l-21 -35 25 -6 c14 -4 43 -23 65 -42 48 -43 52 -76 16 -133 -24 -38 -24 -39 -6 -56 18 -16 19 -15 30 27 37 150 133 424 202 583 233 532 556 1003 973 1420 366 366 751 645 1189 861 162 81 204 90 230 52z m291 -4155 c31 -280 104 -491 276 -803 160 -289 193 -386 193 -575 1 -96 -4 -134 -21 -190 -50 -160 -158 -271 -341 -351 -86 -37 -101 -49 -52 -41 88 15 277 20 314 7 143 -47 266 -330 266 -613 0 -214 -51 -244 -297 -173 -211 61 -446 167 -558 252 -93 71 -205 140 -205 127 0 -4 21 -19 47 -33 120 -64 211 -190 220 -305 9 -108 -22 -128 -124 -81 -62 29 -133 97 -164 157 -29 57 -59 147 -59 176 0 12 -4 23 -10 23 -14 0 -15 4 34 -148 76 -236 100 -410 94 -680 -5 -208 -15 -243 -75 -268 -31 -13 -46 -14 -97 -4 -149 29 -330 127 -454 244 -154 147 -163 210 -61 440 27 61 47 111 46 112 -1 2 -28 -26 -59 -62 -120 -135 -229 -203 -362 -224 -156 -25 -351 34 -516 155 -35 27 -150 136 -255 243 -259 264 -390 365 -622 474 -57 26 -103 52 -103 58 0 30 273 135 441 169 517 105 1280 -32 1752 -312 43 -26 81 -47 83 -47 2 0 4 11 4 25 0 14 -4 25 -10 25 -17 0 -68 79 -63 98 9 35 -226 206 -410 298 -141 71 -326 133 -427 143 -90 10 -100 14 -100 46 0 38 32 40 92 7 29 -17 78 -35 108 -42 215 -49 530 -215 702 -369 37 -33 62 -49 72 -45 22 8 21 12 -18 106 -43 105 -79 225 -107 358 -18 86 -23 143 -25 310 -1 113 -7 217 -13 232 -16 43 7 76 44 62 24 -10 27 -42 10 -95 -15 -43 -17 -79 -12 -228 7 -242 38 -397 125 -620 28 -70 42 -95 57 -97 22 -3 52 -37 67 -76 6 -18 17 -28 30 -28 17 0 19 4 13 28 -38 145 -56 290 -62 488 -19 673 163 1280 488 1628 39 42 77 76 84 76 9 0 16 -20 20 -57z m-6928 -102 c355 -239 640 -537 871 -911 244 -396 410 -886 437 -1291 4 -52 8 -99 10 -106 2 -7 19 2 41 22 30 28 35 37 25 49 -22 26 -32 79 -20 113 9 30 71 95 98 104 34 12 130 648 147 969 8 147 -2 195 -51 248 -28 31 -40 37 -75 37 -36 0 -47 -6 -79 -41 -49 -52 -83 -141 -85 -221 -1 -55 2 -66 26 -89 35 -36 84 -35 116 1 40 47 20 104 -45 131 -38 16 -36 34 5 34 76 0 125 -97 87 -170 -21 -40 -53 -60 -98 -60 -93 0 -132 53 -125 171 4 65 11 92 42 154 46 92 87 125 158 125 41 0 54 -5 87 -36 67 -60 75 -96 68 -307 -8 -246 -49 -564 -107 -831 -21 -93 -20 -106 8 -106 12 0 30 31 61 108 105 260 364 745 456 858 93 113 247 112 291 -2 41 -108 -25 -312 -116 -359 -98 -51 -202 32 -171 136 17 56 53 81 114 77 34 -2 53 -9 61 -20 15 -24 4 -30 -32 -17 -61 21 -127 -39 -107 -98 14 -39 67 -65 106 -51 62 21 119 143 119 253 0 53 -4 68 -25 93 -52 62 -127 50 -202 -31 -99 -110 -312 -506 -483 -899 -33 -77 -33 -77 -17 -120 33 -86 15 -150 -52 -190 -30 -18 -38 -27 -31 -38 6 -8 10 -27 10 -42 0 -16 4 -28 9 -28 4 0 30 28 57 63 65 84 261 283 359 367 428 362 940 601 1510 706 62 11 170 18 347 21 228 5 261 3 283 -11 34 -22 33 -65 -2 -106 -14 -17 -66 -58 -114 -91 -48 -32 -95 -69 -103 -81 -13 -18 -16 -51 -16 -154 0 -197 -32 -277 -135 -330 l-52 -28 -6 -78 c-9 -136 -89 -254 -214 -314 -32 -16 -60 -33 -62 -38 -19 -46 -168 -156 -213 -156 -9 0 -20 -26 -32 -70 -24 -94 -64 -147 -141 -185 -52 -26 -72 -30 -145 -31 -73 -1 -92 -5 -133 -29 -42 -24 -56 -27 -115 -23 -93 6 -171 44 -322 156 -68 52 -147 107 -175 123 -54 31 -169 73 -185 67 -6 -2 21 -27 58 -55 97 -74 285 -272 362 -380 156 -222 245 -429 238 -555 -3 -57 -8 -72 -32 -97 -51 -53 -229 -117 -411 -146 -104 -17 -360 -20 -455 -5 -92 15 -165 53 -198 103 -23 34 -27 51 -27 106 1 36 8 104 18 151 35 178 45 397 27 595 -11 107 -34 243 -45 253 -4 4 -75 -28 -75 -35 0 -1 9 -17 19 -35 86 -148 10 -387 -148 -468 -56 -28 -82 -25 -119 13 -41 43 -62 105 -62 187 0 85 20 150 66 217 30 44 100 103 136 115 10 4 -21 78 -33 78 -13 0 -155 -156 -227 -249 -100 -130 -172 -249 -264 -439 -67 -139 -85 -167 -120 -192 -57 -42 -144 -42 -241 0 -165 70 -397 255 -528 420 -121 153 -140 209 -100 288 96 188 628 418 1014 439 59 3 107 9 107 13 0 10 -96 38 -170 49 -36 6 -162 11 -281 11 -246 0 -280 7 -352 70 -31 28 -48 53 -60 91 -10 28 -33 70 -53 92 -20 22 -50 70 -67 106 -27 58 -31 78 -32 158 -1 92 -1 92 -43 149 -74 99 -88 194 -43 293 18 41 18 47 4 85 -22 61 -27 209 -9 276 l15 55 -37 53 c-29 42 -37 64 -40 113 -6 88 13 141 97 264 52 77 75 119 75 140 0 17 -19 78 -42 137 -23 58 -42 122 -42 140 0 39 30 78 60 78 10 0 72 -36 137 -79z"
       id="path8"
       style="fill:none" />
    <path
       d="M7191 8262 c-41 -82 -64 -176 -57 -236 3 -27 9 -53 14 -58 5 -5 28 45 52 109 34 90 44 132 45 177 0 79 -17 82 -54 8z"
       id="path10"
       style="fill:#9966cc" />
    <path
       d="M6935 8142 c-77 -53 -167 -116 -199 -140 l-59 -42 32 -11 c61 -21 61 -85 0 -198 -16 -30 -28 -56 -26 -57 2 -2 59 31 127 73 118 72 150 89 243 127 l38 15 -33 30 c-31 28 -33 33 -33 98 0 57 5 78 33 132 17 35 32 66 32 68 0 10 -29 -7 -155 -95z"
       id="path12"
       style="fill:#0033ff" />
    <path
       d="M7106 8198 c-61 -104 -73 -192 -31 -233 13 -14 31 -25 38 -25 13 0 13 6 0 43 -17 49 -12 127 13 200 21 63 12 70 -20 15z"
       id="path14"
       style="fill:#cc6699" />
    <path
       d="M6739 8070 c-317 -192 -580 -399 -855 -674 -433 -433 -753 -909 -989 -1471 -68 -161 -205 -557 -205 -592 0 -54 19 -20 66 119 248 738 652 1387 1209 1943 244 245 460 424 813 674 92 66 111 81 98 81 -2 0 -64 -36 -137 -80z"
       id="path16"
       style="fill:#66ccff" />
    <path
       d="M6615 7901 c-53 -25 -204 -141 -372 -286 l-137 -119 32 -13 c17 -7 39 -24 48 -39 15 -22 16 -32 5 -76 -6 -28 -10 -53 -8 -55 2 -2 44 31 93 73 49 42 140 116 202 165 158 122 248 247 240 332 -3 27 -7 32 -33 35 -16 1 -48 -6 -70 -17z"
       id="path18"
       style="fill:#0066cc" />
    <path
       d="M6969 7822 c-41 -21 -139 -78 -219 -128 l-145 -89 49 -6 c62 -7 91 -37 82 -88 -6 -37 -68 -137 -148 -238 -27 -35 -47 -63 -44 -63 3 0 54 28 113 62 109 63 304 158 323 158 19 0 10 15 -19 32 -40 22 -66 65 -65 107 2 45 58 159 114 230 23 29 40 54 38 57 -2 2 -38 -13 -79 -34z"
       id="path20"
       style="fill:#0033ff" />
    <path
       d="M7092 7815 c-43 -54 -66 -134 -67 -227 0 -116 17 -134 35 -36 7 40 23 120 36 177 13 58 22 106 20 108 -2 2 -13 -8 -24 -22z"
       id="path22"
       style="fill:#9966cc" />
    <path
       d="M6982 7707 c-60 -101 -69 -161 -27 -202 38 -39 44 -32 38 48 -4 50 0 92 11 136 9 35 15 65 13 67 -2 2 -17 -20 -35 -49z"
       id="path24"
       style="fill:#cc6699" />
    <path
       d="M6615 7565 c-5 -2 -27 -6 -47 -10 -20 -3 -63 -25 -96 -49 -56 -41 -60 -47 -66 -96 -11 -80 -45 -146 -150 -284 -78 -102 -97 -133 -94 -156 l3 -28 110 78 c172 123 370 346 425 479 13 32 12 35 -9 52 -21 17 -51 23 -76 14z"
       id="path26"
       style="fill:#0066cc" />
    <path
       d="M6080 7449 c-14 -6 -44 -28 -67 -51 l-42 -41 29 -27 c36 -34 46 -72 32 -124 -6 -23 -9 -43 -6 -45 2 -2 20 14 40 35 39 41 88 138 97 190 10 52 -32 83 -83 63z"
       id="path28"
       style="stroke:#3366cc;fill:#3399cc" />
    <path
       d="M6275 7345 c-93 -80 -475 -460 -475 -473 0 -4 13 -14 29 -23 l29 -17 53 51 c86 80 168 137 199 137 24 0 41 17 121 123 99 131 142 211 137 253 -3 26 -6 24 -93 -51z"
       id="path30"
       style="fill:#333399" />
    <path
       d="M6835 7329 c-66 -33 -171 -91 -233 -127 l-113 -67 43 -5 c81 -11 108 -39 108 -112 0 -56 -37 -132 -97 -199 l-46 -51 39 17 c149 63 312 125 402 151 8 2 -4 17 -30 37 -63 48 -88 90 -88 149 0 60 24 110 97 201 29 37 50 67 46 67 -4 -1 -62 -28 -128 -61z"
       id="path32"
       style="fill:#0033ff" />
    <path
       d="M6994 7319 c-63 -124 -81 -237 -49 -299 16 -31 48 -54 59 -43 3 3 6 46 6 94 0 48 5 133 10 189 6 56 9 105 6 107 -2 3 -17 -19 -32 -48z"
       id="path34"
       style="fill:#9966cc" />
    <path
       d="M5922 7307 c-19 -23 -34 -70 -52 -172 -10 -55 -22 -116 -26 -135 l-7 -35 46 44 c97 93 154 259 103 297 -25 17 -50 18 -64 1z"
       id="path36"
       style="stroke:#3366cc;fill:#3399cc" />
    <path
       d="M6910 7268 c-18 -23 -39 -57 -46 -75 -26 -61 -12 -137 32 -174 15 -13 16 -12 9 11 -16 45 -7 133 19 205 14 38 23 71 21 73 -2 2 -18 -16 -35 -40z"
       id="path38"
       style="fill:#cc6699" />
    <path
       d="M5784 7161 c-48 -57 -65 -85 -78 -134 -9 -34 -36 -108 -60 -165 -24 -56 -43 -102 -41 -102 1 0 23 9 48 20 57 26 111 87 138 159 21 57 62 255 57 279 -2 8 -30 -18 -64 -57z"
       id="path40"
       style="stroke:#3366cc;fill:#3399cc" />
    <path
       d="M923 7104 c-10 -27 31 -95 118 -197 l84 -97 3 35 c5 50 -27 110 -100 189 -71 78 -95 95 -105 70z"
       id="path42"
       style="fill:#9966cc" />
    <path
       d="M4993 7113 c-18 -7 -16 -33 3 -33 21 0 54 18 54 30 0 10 -36 12 -57 3z"
       id="path44"
       style="fill:none" />
    <path
       d="M1090 7093 c0 -3 21 -24 47 -47 91 -80 129 -178 88 -232 -8 -10 -15 -22 -15 -26 0 -5 39 -8 88 -8 48 0 150 -11 227 -24 77 -13 141 -23 143 -21 1 1 -23 24 -53 50 -50 42 -95 106 -95 135 0 6 12 22 26 37 14 14 24 26 22 28 -11 9 -478 115 -478 108z"
       id="path46"
       style="fill:#0033ff" />
    <path
       d="M6475 7086 c-182 -58 -532 -343 -733 -599 -34 -43 -62 -83 -62 -88 0 -5 15 -9 34 -9 31 0 49 15 183 149 203 204 391 350 617 479 86 50 87 50 64 66 -26 19 -49 19 -103 2z"
       id="path48"
       style="fill:#0066cc" />
    <path
       d="M1323 7084 c2 -3 108 -31 233 -64 461 -118 757 -224 1109 -395 366 -178 705 -400 1035 -676 208 -173 546 -521 667 -684 l22 -30 1 26 c0 65 -479 583 -735 795 -551 455 -1177 773 -1847 938 -175 44 -499 103 -485 90z"
       id="path50"
       style="fill:#66ccff" />
    <path
       d="M1040 7072 c0 -5 8 -16 17 -23 37 -31 93 -133 104 -192 l12 -60 19 23 c48 59 3 153 -109 231 -24 17 -43 26 -43 21z"
       id="path52"
       style="fill:#cc6699" />
    <path
       d="M6480 6964 c-150 -94 -279 -188 -405 -296 -116 -100 -265 -251 -265 -268 0 -9 21 -14 56 -13 6 0 56 34 111 76 123 93 216 153 308 200 128 65 264 190 306 282 22 46 24 85 7 84 -7 0 -60 -30 -118 -65z"
       id="path54"
       style="fill:#0066cc" />
    <path
       d="M5598 6938 c-168 -216 -298 -408 -298 -440 0 -13 5 -30 10 -38 12 -18 25 -4 80 85 19 32 63 85 96 119 34 33 73 84 87 111 36 73 99 236 94 241 -3 3 -34 -32 -69 -78z"
       id="path56"
       style="fill:#666699" />
    <path
       d="M6034 6946 c-33 -24 -82 -68 -111 -97 -43 -44 -56 -68 -76 -131 l-25 -77 107 99 c58 54 123 111 143 127 54 40 77 123 34 123 -7 0 -40 -20 -72 -44z"
       id="path58"
       style="fill:#006699" />
    <path
       d="M1608 6953 c-62 -10 -61 -58 3 -122 72 -72 144 -108 327 -161 93 -27 207 -63 252 -80 46 -17 84 -29 86 -28 1 2 -10 23 -27 47 -36 55 -37 87 -2 123 14 15 25 29 22 31 -13 12 -277 102 -409 140 -164 48 -208 56 -252 50z"
       id="path60"
       style="fill:#0066cc" />
    <path
       d="M6815 6862 c-140 -49 -335 -132 -335 -143 0 -5 15 -9 33 -9 56 -1 116 -35 133 -76 14 -33 14 -41 0 -78 -17 -44 -54 -88 -126 -149 l-45 -39 45 7 c130 19 280 35 321 35 26 0 61 3 78 6 l31 7 -44 47 c-58 62 -96 138 -96 192 0 47 32 125 71 173 41 50 52 65 48 65 -2 0 -53 -17 -114 -38z"
       id="path62"
       style="fill:#0033ff" />
    <path
       d="M6972 6858 c-31 -51 -45 -121 -40 -201 6 -76 30 -162 54 -187 12 -12 14 16 14 203 0 119 -2 217 -4 217 -2 0 -13 -15 -24 -32z"
       id="path64"
       style="fill:#9966cc" />
    <path
       d="M5739 6798 c-80 -87 -373 -477 -365 -485 2 -2 20 4 42 13 21 10 77 27 124 40 l84 22 54 68 c78 100 157 280 150 341 -5 43 -49 44 -89 1z"
       id="path66"
       style="fill:#333399" />
    <path
       d="M6898 6808 c-58 -88 -70 -150 -44 -211 15 -36 75 -121 81 -115 2 2 -5 32 -15 67 -22 68 -26 184 -10 240 12 42 8 49 -12 19z"
       id="path68"
       style="fill:#cc6699" />
    <path
       d="M3401 6806 c-11 -13 -11 -17 2 -22 25 -9 62 0 62 16 0 21 -49 25 -64 6z"
       id="path70"
       style="fill:none" />
    <path
       d="M1325 6714 c121 -73 205 -164 205 -221 0 -10 -11 -38 -25 -62 -14 -23 -25 -44 -25 -46 0 -1 57 -5 128 -9 70 -4 181 -15 247 -25 66 -10 121 -17 123 -15 2 1 -27 19 -63 40 -112 62 -221 148 -233 183 -15 44 1 75 51 99 34 16 38 20 22 25 -49 15 -392 67 -438 67 l-52 0 60 -36z"
       id="path72"
       style="fill:#0033ff" />
    <path
       d="M2270 6712 c-32 -26 -21 -61 38 -124 40 -43 157 -117 168 -106 2 2 -9 21 -24 42 -32 46 -36 104 -8 135 11 12 17 23 15 25 -12 12 -114 46 -138 46 -16 0 -39 -8 -51 -18z"
       id="path74"
       style="stroke:#3366cc;fill:#3399cc" />
    <path
       d="M5570 6696 c-64 -48 -112 -101 -164 -181 -52 -78 -56 -95 -23 -95 17 0 33 14 57 48 18 26 71 95 117 155 46 59 77 107 70 107 -6 0 -32 -16 -57 -34z"
       id="path76"
       style="stroke:#3366cc;fill:#3399cc" />
    <path
       d="M1273 6613 c41 -59 86 -129 101 -155 55 -95 59 -36 6 79 -30 66 -97 141 -150 168 -29 15 -26 9 43 -92z"
       id="path78"
       style="fill:#9966cc" />
    <path
       d="M6405 6673 c-90 -22 -247 -112 -401 -229 -89 -68 -111 -89 -107 -105 3 -10 7 -19 10 -19 2 0 43 23 89 50 175 103 338 176 519 230 50 15 90 32 89 36 0 5 -16 17 -35 26 -33 17 -116 23 -164 11z"
       id="path80"
       style="fill:#0066cc" />
    <path
       d="M1358 6633 c41 -53 70 -113 83 -173 9 -41 13 -49 24 -40 8 7 19 27 25 45 16 49 -9 95 -84 156 -73 59 -88 62 -48 12z"
       id="path82"
       style="fill:#cc6699" />
    <path
       d="M2473 6648 c-34 -44 -17 -96 53 -163 44 -42 181 -121 192 -111 2 3 -7 20 -21 38 -13 18 -43 65 -66 105 -69 117 -130 167 -158 131z"
       id="path84"
       style="stroke:#3366cc;fill:#3399cc" />
    <path
       d="M1779 6641 c-106 -33 -91 -81 56 -178 151 -100 286 -159 466 -204 67 -17 123 -29 125 -26 3 2 0 15 -5 28 -6 16 -49 47 -130 94 -145 83 -212 139 -252 210 -27 49 -34 54 -87 69 -61 17 -130 20 -173 7z"
       id="path86"
       style="fill:#0066cc" />
    <path
       d="M2631 6573 c142 -236 203 -292 334 -307 l60 -8 -81 84 c-44 46 -100 107 -124 136 -32 40 -62 63 -121 93 -43 21 -81 39 -85 39 -3 0 5 -17 17 -37z"
       id="path88"
       style="stroke:#3366cc;fill:#3399cc" />
    <path
       d="M2060 6584 c0 -31 108 -121 237 -197 114 -68 134 -77 152 -67 26 14 121 -8 229 -52 l72 -30 20 24 c11 12 19 26 20 29 1 19 -406 196 -617 269 -91 32 -113 36 -113 24z"
       id="path90"
       style="fill:#333399" />
    <path
       d="M6510 6566 c-186 -58 -363 -138 -524 -238 -45 -27 -83 -51 -84 -53 -7 -6 -23 -88 -19 -92 3 -2 69 21 148 52 79 31 184 67 234 81 104 29 207 86 281 156 50 47 80 96 73 117 -2 5 -51 -5 -109 -23z"
       id="path92"
       style="fill:#0066cc" />
    <path
       d="M2909 6421 c62 -71 184 -181 201 -181 25 0 143 -63 206 -111 72 -54 84 -58 84 -28 0 37 -19 57 -115 125 -108 74 -402 254 -417 254 -5 0 13 -27 41 -59z"
       id="path94"
       style="fill:#666699" />
    <path
       d="M5222 6393 c-52 -89 -192 -351 -192 -361 0 -4 14 -15 30 -24 17 -9 30 -24 30 -33 0 -31 19 -14 59 54 22 38 81 131 131 205 49 75 90 141 90 146 0 6 -7 10 -16 10 -9 0 -32 16 -51 35 -19 19 -36 35 -38 35 -1 0 -21 -30 -43 -67z"
       id="path96"
       style="fill:#666699" />
    <path
       d="M6690 6365 c-120 -15 -240 -35 -240 -41 0 -2 18 -13 39 -24 69 -35 88 -88 56 -150 -21 -41 -67 -73 -175 -124 l-94 -44 74 -6 c118 -11 238 -34 351 -65 57 -16 105 -29 106 -28 1 1 -12 31 -29 67 -40 82 -49 179 -23 231 10 19 54 71 98 117 l81 82 -70 -1 c-38 -1 -116 -7 -174 -14z"
       id="path98"
       style="fill:#0033ff" />
    <path
       d="M5638 6343 c-16 -20 -76 -119 -102 -170 -16 -31 -16 -33 2 -33 20 0 282 196 282 211 0 5 -38 9 -83 9 -68 0 -87 -3 -99 -17z"
       id="path100"
       style="fill:#996699" />
    <path
       d="M1530 6343 c0 -4 25 -21 56 -37 87 -46 140 -91 164 -142 21 -41 22 -51 12 -95 -7 -27 -23 -66 -36 -88 l-25 -39 235 2 c128 0 234 2 234 3 0 2 -27 16 -60 33 -128 64 -193 164 -153 233 10 18 33 39 51 47 17 8 32 18 32 21 0 8 -96 26 -240 44 -157 20 -270 27 -270 18z"
       id="path102"
       style="fill:#0033ff" />
    <path
       d="M6953 6313 c-68 -85 -103 -192 -103 -309 0 -74 13 -129 29 -120 12 8 46 106 70 201 22 87 46 253 38 261 -2 3 -18 -12 -34 -33z"
       id="path104"
       style="fill:#9966cc" />
    <path
       d="M5505 6322 c-46 -16 -51 -21 -72 -74 -12 -31 -26 -76 -29 -99 l-7 -41 34 7 c19 3 40 14 47 23 15 20 112 190 112 197 0 9 -35 4 -85 -13z"
       id="path106"
       style="fill:#996699" />
    <path
       d="M5720 6227 c-103 -79 -134 -108 -132 -123 2 -10 5 -20 6 -21 1 -1 31 8 66 21 36 13 91 29 122 35 l57 12 10 49 c19 90 24 130 14 130 -5 0 -69 -46 -143 -103z"
       id="path108"
       style="fill:#996699" />
    <path
       d="M1520 6198 c31 -62 70 -143 86 -180 16 -38 32 -68 36 -68 15 0 31 46 30 86 0 23 -10 60 -22 84 -22 42 -160 190 -179 190 -5 0 17 -51 49 -112z"
       id="path110"
       style="fill:#9966cc" />
    <path
       d="M2459 6289 c-12 -7 -11 -14 5 -44 16 -29 29 -38 75 -52 44 -12 202 -74 310 -120 7 -3 -12 26 -44 64 -53 65 -64 73 -139 103 -101 39 -189 60 -207 49z"
       id="path112"
       style="fill:#006699" />
    <path
       d="M6275 6285 c-33 -7 -136 -42 -230 -78 -124 -48 -172 -71 -179 -86 -5 -12 -7 -24 -4 -27 3 -2 58 11 123 31 127 38 333 79 458 90 42 4 77 11 77 15 0 18 -53 49 -101 59 -60 13 -68 13 -144 -4z"
       id="path114"
       style="fill:#0066cc" />
    <path
       d="M6847 6252 c-65 -71 -80 -104 -75 -171 3 -31 13 -74 23 -96 l19 -40 6 90 c7 97 19 143 57 218 13 26 22 47 20 47 -3 0 -25 -22 -50 -48z"
       id="path116"
       style="fill:#cc6699" />
    <path
       d="M5365 6267 c-58 -33 -85 -78 -85 -143 0 -29 5 -56 10 -59 6 -4 25 2 43 12 25 15 33 28 39 63 4 24 15 66 24 92 9 27 14 51 12 53 -2 2 -21 -6 -43 -18z"
       id="path118"
       style="fill:#996699" />
    <path
       d="M1601 6233 c58 -62 85 -107 100 -166 13 -54 17 -54 29 -2 16 69 -18 128 -109 186 -64 41 -70 36 -20 -18z"
       id="path120"
       style="fill:#cc6699" />
    <path
       d="M2820 6261 c-45 -12 -38 -50 24 -122 66 -78 128 -130 220 -187 57 -35 75 -42 100 -36 17 4 76 10 131 13 l100 6 -90 61 c-90 61 -349 215 -421 252 -25 12 -48 16 -64 13z"
       id="path122"
       style="fill:#333399" />
    <path
       d="M2040 6239 c-27 -11 -60 -38 -60 -49 0 -4 26 -11 58 -14 241 -29 613 -138 840 -246 119 -57 126 -59 163 -48 22 6 39 14 39 18 0 8 -133 87 -217 129 -283 141 -717 252 -823 210z"
       id="path124"
       style="fill:#0066cc" />
    <path
       d="M3000 6226 c0 -3 21 -17 48 -33 26 -15 100 -60 165 -100 98 -61 121 -72 137 -63 11 6 20 14 20 18 -1 15 -154 115 -217 142 -65 27 -153 48 -153 36z"
       id="path126"
       style="stroke:#3366cc;fill:#3399cc" />
    <path
       d="M6340 6170 c-137 -21 -260 -49 -390 -88 l-95 -28 -28 -53 c-16 -29 -27 -55 -24 -58 3 -3 50 2 104 11 54 9 139 20 188 25 151 15 379 113 418 179 l19 32 -39 -1 c-21 0 -90 -9 -153 -19z"
       id="path128"
       style="fill:#0066cc" />
    <path
       d="M1980 6141 c0 -27 87 -103 154 -136 87 -42 233 -85 291 -85 66 0 208 -27 342 -65 67 -19 130 -35 140 -35 18 1 53 22 53 33 0 20 -329 152 -500 201 -204 58 -480 108 -480 87z"
       id="path130"
       style="fill:#0066cc" />
    <path
       d="M5197 6049 c-26 -42 -47 -79 -47 -82 0 -7 97 60 104 71 2 4 1 25 -3 47 l-6 40 -48 -76z"
       id="path132"
       style="fill:#996699" />
    <path
       d="M5795 6113 c-11 -3 -67 -20 -125 -39 -76 -25 -110 -42 -123 -60 -11 -14 -17 -27 -15 -29 1 -2 23 1 48 5 25 5 82 9 127 10 l83 0 13 33 c19 45 29 87 20 86 -5 -1 -17 -3 -28 -6z"
       id="path134"
       style="fill:#996699" />
    <path
       d="M3426 6080 c-3 -17 -17 -42 -32 -56 -14 -15 -22 -30 -17 -34 4 -3 53 -37 108 -75 55 -37 144 -101 197 -142 54 -40 100 -73 102 -73 2 0 1 11 -1 24 -3 16 3 32 18 47 l23 23 -65 59 c-80 74 -306 257 -318 257 -5 0 -11 -14 -15 -30z"
       id="path136"
       style="fill:#666699" />
    <path
       d="M5435 6079 c-148 -50 -278 -139 -367 -252 -34 -43 -30 -42 36 5 48 34 80 36 101 4 17 -26 11 -73 -20 -151 -14 -37 -9 -33 79 57 139 145 286 322 286 347 0 27 -7 27 -115 -10z"
       id="path138"
       style="fill:#66cccc" />
    <path
       d="M5012 5974 c-11 -7 -49 -82 -85 -167 -63 -148 -130 -327 -123 -327 6 0 121 180 144 225 11 22 41 69 66 104 40 57 46 71 46 117 0 57 -14 72 -48 48z"
       id="path140"
       style="fill:#666699" />
    <path
       d="M5553 5956 c-55 -11 -103 -37 -103 -55 0 -4 63 -6 141 -6 l140 1 19 30 c11 16 20 32 20 37 0 11 -148 7 -217 -7z"
       id="path142"
       style="fill:#996699" />
    <path
       d="M6045 5944 c-16 -2 -67 -9 -113 -15 -45 -6 -84 -14 -86 -18 -2 -3 88 -6 200 -6 112 0 204 3 204 7 0 20 -138 41 -205 32z"
       id="path144"
       style="fill:#006699" />
    <path
       d="M6270 5945 c0 -3 5 -14 11 -24 19 -30 3 -69 -39 -90 -33 -17 -109 -40 -186 -56 -28 -6 -25 -9 57 -55 92 -51 184 -114 257 -175 l45 -38 6 72 c5 64 9 75 40 107 41 42 192 119 269 135 30 7 59 16 64 20 13 11 -144 57 -269 78 -126 22 -255 35 -255 26z"
       id="path146"
       style="fill:#0033ff" />
    <path
       d="M1833 5913 c-51 -2 -93 -7 -93 -11 0 -4 21 -18 47 -32 69 -37 139 -109 153 -159 13 -49 0 -141 -31 -210 -11 -24 -18 -46 -16 -48 2 -1 37 9 78 23 41 14 140 43 222 63 81 21 150 41 153 44 3 3 -12 8 -34 12 -22 3 -72 23 -112 43 -54 28 -78 46 -94 74 -20 34 -20 39 -6 80 12 34 26 51 68 78 l54 35 -94 6 c-96 7 -139 7 -295 2z"
       id="path148"
       style="fill:#0033ff" />
    <path
       d="M3227 5891 c-21 -3 -38 -10 -38 -14 0 -4 34 -34 75 -67 41 -32 77 -63 81 -69 7 -12 105 -16 105 -4 0 10 -50 75 -94 121 -42 44 -50 46 -129 33z"
       id="path150"
       style="fill:#996699" />
    <path
       d="M3370 5893 c0 -6 10 -18 21 -29 12 -10 39 -45 61 -76 36 -54 41 -58 78 -58 22 0 40 3 40 6 0 26 -56 123 -78 136 -33 19 -122 34 -122 21z"
       id="path152"
       style="fill:#996699" />
    <path
       d="M2242 5871 c-54 -19 -112 -64 -112 -88 0 -10 10 -11 43 -6 23 5 139 8 257 7 198 0 336 -13 445 -40 24 -6 26 -4 23 17 -3 21 -16 28 -113 57 -230 68 -440 89 -543 53z"
       id="path154"
       style="fill:#0066cc" />
    <path
       d="M5835 5870 c-44 -7 -49 -4 65 -48 61 -24 69 -24 145 -14 100 13 209 51 180 63 -24 9 -334 9 -390 -1z"
       id="path156"
       style="fill:#006699" />
    <path
       d="M1673 5858 c52 -135 151 -375 158 -382 14 -16 10 133 -5 192 -8 29 -26 72 -40 96 -35 59 -131 138 -113 94z"
       id="path158"
       style="fill:#9966cc" />
    <path
       d="M3055 5851 c-78 -28 -101 -42 -84 -51 39 -21 319 -92 335 -86 17 7 14 11 -20 39 -89 73 -152 117 -166 117 -8 -1 -38 -9 -65 -19z"
       id="path160"
       style="fill:#996699" />
    <path
       d="M5485 5863 c-114 -6 -128 -39 -24 -60 133 -27 129 -27 184 14 l50 37 -30 7 c-32 7 -66 7 -180 2z"
       id="path162"
       style="fill:#996699" />
    <path
       d="M4415 5820 c-20 -38 -19 -40 8 -40 34 0 67 11 67 22 0 10 -40 47 -52 48 -4 0 -14 -13 -23 -30z"
       id="path164"
       style="fill:#330066" />
    <path
       d="M1801 5793 c40 -58 69 -149 69 -219 0 -65 14 -70 29 -10 15 63 14 142 -4 176 -15 28 -99 100 -117 100 -5 0 5 -21 23 -47z"
       id="path166"
       style="fill:#cc6699" />
    <path
       d="M5695 5815 c-35 -27 -34 -27 70 -46 39 -7 103 -22 143 -35 64 -19 73 -20 70 -6 -5 25 -65 61 -137 82 -110 31 -114 31 -146 5z"
       id="path168"
       style="fill:#006699" />
    <path
       d="M5104 5792 c-115 -91 -221 -234 -330 -446 -48 -93 -57 -117 -49 -135 9 -20 23 -8 165 150 194 215 229 261 264 338 27 61 32 121 10 128 -6 2 -33 -14 -60 -35z"
       id="path170"
       style="fill:#0000ff" />
    <path
       d="M3584 5784 c3 -9 9 -26 12 -39 5 -18 18 -26 67 -38 34 -9 63 -14 65 -12 5 5 -130 105 -142 105 -4 0 -5 -7 -2 -16z"
       id="path172"
       style="fill:#996699" />
    <path
       d="M4510 5773 c-38 -21 -55 -24 -106 -20 l-62 5 9 -31 c14 -50 60 -89 103 -89 69 0 109 44 104 116 l-3 43 -45 -24z"
       id="path174"
       style="fill:#330066" />
    <path
       d="M5332 5767 c-27 -29 -26 -30 54 -47 57 -11 64 -11 105 11 l44 23 -41 12 c-22 6 -62 15 -90 18 -44 7 -52 5 -72 -17z"
       id="path176"
       style="fill:#996699" />
    <path
       d="M6638 5757 c-94 -39 -165 -88 -178 -123 -12 -31 -13 -124 -1 -124 4 0 20 17 33 38 43 63 107 130 172 179 33 25 65 50 71 55 19 17 -22 7 -97 -25z"
       id="path178"
       style="fill:#cc6699" />
    <path
       d="M6770 5763 c-78 -46 -168 -124 -225 -195 -65 -82 -72 -107 -22 -82 96 50 197 138 263 230 61 85 59 91 -16 47z"
       id="path180"
       style="fill:#9966cc" />
    <path
       d="M2930 5764 c0 -5 48 -87 78 -132 8 -12 31 -12 141 -1 72 7 131 15 131 18 -1 23 -36 38 -171 77 -156 44 -179 49 -179 38z"
       id="path182"
       style="fill:#996699" />
    <path
       d="M2217 5750 c-43 -4 -81 -10 -84 -14 -3 -3 2 -15 13 -27 48 -53 200 -102 318 -101 129 0 506 14 506 18 0 3 -11 21 -24 42 -24 38 -24 38 -134 56 -221 35 -410 43 -595 26z"
       id="path184"
       style="fill:#0066cc" />
    <path
       d="M3820 5746 c-9 -12 -7 -24 8 -59 15 -35 35 -55 88 -90 38 -26 116 -83 174 -127 136 -105 151 -113 119 -69 -41 59 -343 359 -360 359 -9 0 -22 -6 -29 -14z"
       id="path186"
       style="fill:#666699" />
    <path
       d="M5585 5743 l-30 -16 49 -23 c68 -31 195 -49 276 -38 36 5 65 14 65 19 0 12 -194 62 -272 70 -44 4 -65 1 -88 -12z"
       id="path188"
       style="fill:#006699" />
    <path
       d="M6008 5703 c-5 -48 -61 -68 -193 -68 l-110 0 45 -60 c25 -33 56 -84 69 -113 14 -28 27 -52 30 -52 3 0 17 21 31 47 39 72 79 88 215 87 77 -1 134 -7 190 -22 43 -12 81 -19 83 -17 7 6 -167 131 -244 175 -99 57 -112 59 -116 23z"
       id="path190"
       style="fill:#0033ff" />
    <path
       d="M5269 5698 c-9 -7 -40 -39 -69 -71 l-54 -58 118 55 c65 31 121 56 125 56 17 1 -29 19 -64 24 -27 5 -45 3 -56 -6z"
       id="path192"
       style="fill:#996699" />
    <path
       d="M5465 5683 l-50 -27 45 -8 c25 -4 69 -13 98 -19 30 -6 57 -8 60 -4 8 8 -76 85 -92 85 -6 -1 -33 -13 -61 -27z"
       id="path194"
       style="fill:#006699" />
    <path
       d="M3375 5694 c-11 -3 -30 -7 -42 -10 -37 -7 -26 -32 30 -64 82 -48 430 -220 445 -220 9 0 0 16 -21 39 -99 109 -80 174 43 145 30 -7 56 -11 58 -9 9 9 -148 78 -217 96 -73 19 -255 33 -296 23z"
       id="path196"
       style="fill:#66cccc" />
    <path
       d="M5290 5601 c-39 -22 -37 -23 48 -40 100 -20 272 -8 272 19 0 13 -94 30 -195 36 -77 4 -95 2 -125 -15z"
       id="path198"
       style="fill:#006699" />
    <path
       d="M5660 5602 c0 -25 -40 -60 -81 -72 -19 -6 -72 -10 -119 -10 -75 0 -105 4 -198 25 -21 5 -21 3 12 -47 19 -29 45 -79 57 -110 l22 -58 38 35 c71 64 113 80 214 80 82 0 95 -3 153 -33 62 -32 64 -33 57 -10 -13 41 -42 92 -89 156 -47 63 -66 76 -66 44z"
       id="path200"
       style="fill:#0033ff" />
    <path
       d="M3185 5603 c-16 -1 -54 -6 -82 -9 -29 -3 -53 -10 -53 -15 0 -5 17 -28 38 -50 l37 -40 41 20 c22 11 76 29 119 40 43 12 80 23 83 25 2 3 -10 12 -27 20 -28 15 -83 18 -156 9z"
       id="path202"
       style="fill:#996699" />
    <path
       d="M4467 5596 c-45 -16 -74 -40 -93 -78 -26 -49 -18 -66 48 -109 79 -51 103 -57 130 -33 43 38 98 117 98 139 0 29 -48 71 -98 85 -44 12 -38 12 -85 -4z"
       id="path204"
       style="fill:#330066" />
    <path
       d="M2587 5579 c-81 -9 -165 -47 -202 -90 -32 -39 -33 -64 -2 -55 208 59 383 92 538 103 98 6 114 14 87 41 -14 14 -307 15 -421 1z"
       id="path206"
       style="fill:#0066cc" />
    <path
       d="M3760 5541 c0 -32 67 -108 137 -154 80 -53 500 -263 509 -255 15 16 -29 69 -121 146 -142 120 -289 214 -391 251 -100 36 -134 39 -134 12z"
       id="path208"
       style="fill:#0000ff" />
    <path
       d="M2257 5524 c-59 -14 -160 -42 -225 -63 l-117 -38 35 -14 c19 -7 75 -32 123 -57 65 -32 94 -53 112 -81 32 -47 49 -138 40 -214 l-7 -60 68 55 c94 76 212 152 314 201 l85 42 -112 6 c-127 8 -177 21 -215 57 -51 47 -46 94 15 160 38 40 33 40 -116 6z"
       id="path210"
       style="fill:#0033ff" />
    <path
       d="M3351 5535 c-80 -18 -189 -54 -196 -65 -7 -11 48 -50 70 -50 9 0 26 5 38 11 11 7 66 29 120 49 l100 38 -31 16 c-17 9 -32 16 -34 15 -2 0 -32 -7 -67 -14z"
       id="path212"
       style="fill:#996699" />
    <path
       d="M5110 5515 c-56 -29 -179 -135 -156 -135 4 0 33 7 64 16 74 22 182 15 240 -15 24 -12 46 -21 48 -19 2 2 -9 31 -25 64 -27 57 -80 125 -98 124 -4 -1 -37 -16 -73 -35z"
       id="path214"
       style="fill:#666699" />
    <path
       d="M5997 5511 c-38 -8 -97 -55 -97 -77 0 -7 15 -4 43 10 37 18 65 22 222 26 l180 5 -70 17 c-84 20 -226 30 -278 19z"
       id="path216"
       style="fill:#cc6699" />
    <path
       d="M2813 5494 c-190 -26 -443 -86 -443 -105 0 -6 21 -20 48 -32 42 -19 65 -21 212 -22 152 0 171 2 245 27 44 14 118 34 165 44 47 10 87 19 89 21 3 2 -13 21 -34 43 -39 39 -40 40 -110 39 -38 -1 -116 -7 -172 -15z"
       id="path218"
       style="fill:#0066cc" />
    <path
       d="M3405 5456 c-49 -18 -101 -39 -115 -46 l-25 -13 30 -13 c17 -6 48 -15 70 -18 36 -6 46 -3 80 24 21 17 56 41 77 52 21 12 37 27 35 32 -7 22 -64 15 -152 -18z"
       id="path220"
       style="fill:#996699" />
    <path
       d="M3523 5409 c-35 -23 -63 -45 -63 -50 0 -5 23 -9 51 -9 43 0 59 6 101 37 47 34 49 38 32 50 -28 21 -55 15 -121 -28z"
       id="path222"
       style="fill:#996699" />
    <path
       d="M6001 5429 c-24 -5 -54 -16 -68 -24 -25 -17 -50 -61 -40 -71 16 -16 332 36 442 73 49 17 50 17 20 24 -43 10 -302 8 -354 -2z"
       id="path224"
       style="fill:#9966cc" />
    <path
       d="M5513 5407 c-51 -19 -65 -39 -18 -26 21 6 84 9 141 7 57 -1 100 0 96 3 -32 28 -160 37 -219 16z"
       id="path226"
       style="fill:#cc6699" />
    <path
       d="M3665 5387 c-52 -29 -56 -47 -12 -47 18 0 76 -2 128 -5 l94 -5 -65 31 c-104 50 -103 49 -145 26z"
       id="path228"
       style="fill:#996699" />
    <path
       d="M2971 5359 c-63 -16 -136 -41 -162 -56 -47 -25 -86 -59 -78 -67 2 -2 40 13 84 34 44 22 134 57 200 79 141 48 118 53 -44 10z"
       id="path230"
       style="fill:#006699" />
    <path
       d="M4586 5361 c-18 -20 -18 -21 7 -32 14 -6 31 -25 38 -41 20 -48 -3 -256 -31 -273 -15 -9 -50 36 -96 129 -50 99 -53 122 -23 160 l20 26 -25 12 c-15 6 -29 8 -34 4 -4 -4 -9 -44 -10 -89 -3 -65 1 -94 18 -139 45 -121 129 -204 175 -175 50 33 84 165 66 263 -12 61 -58 166 -77 171 -6 2 -19 -5 -28 -16z"
       id="path232"
       style="fill:#996633" />
    <path
       d="M5030 5367 c-32 -10 -27 -11 65 -18 55 -3 120 -12 144 -18 50 -14 61 -10 29 11 -59 38 -163 49 -238 25z"
       id="path234"
       style="fill:#333399" />
    <path
       d="M1915 5303 c77 -141 230 -343 246 -326 13 13 -9 105 -41 168 -16 33 -48 81 -70 106 -39 46 -138 119 -160 119 -7 0 5 -30 25 -67z"
       id="path236"
       style="fill:#9966cc" />
    <path
       d="M1990 5355 c0 -3 20 -23 45 -46 53 -49 107 -127 134 -195 25 -63 36 -41 22 46 -12 71 -26 98 -73 134 -32 24 -128 70 -128 61z"
       id="path238"
       style="fill:#cc6699" />
    <path
       d="M3035 5326 c-55 -19 -143 -54 -195 -80 l-95 -46 95 4 c133 6 193 28 269 99 73 67 66 69 -74 23z"
       id="path240"
       style="fill:#006699" />
    <path
       d="M3184 5326 c-61 -41 -134 -122 -134 -147 0 -11 2 -19 5 -19 3 0 40 26 83 58 42 33 98 71 125 86 26 16 47 31 47 36 0 6 -47 20 -69 20 -3 0 -29 -15 -57 -34z"
       id="path242"
       style="fill:#006699" />
    <path
       d="M5466 5340 c-91 -36 -81 -42 54 -34 69 3 161 10 205 13 77 7 79 8 50 21 -17 7 -80 14 -145 17 -97 3 -123 0 -164 -17z"
       id="path244"
       style="fill:#9966cc" />
    <path
       d="M3315 5302 c-91 -50 -225 -148 -225 -163 0 -11 53 -1 120 24 63 23 139 69 194 118 34 29 36 34 20 40 -34 13 -58 9 -109 -19z"
       id="path246"
       style="fill:#006699" />
    <path
       d="M3456 5290 c-26 -31 -43 -76 -33 -86 2 -3 22 7 43 21 22 15 61 38 87 52 27 13 47 26 45 27 -1 2 -28 7 -59 10 -54 7 -57 6 -83 -24z"
       id="path248"
       style="fill:#006699" />
    <path
       d="M4938 5310 c-25 -5 -53 -12 -60 -17 -24 -14 -148 -150 -148 -162 0 -15 -4 -16 91 28 99 47 216 82 353 106 59 11 93 21 85 25 -46 26 -221 37 -321 20z"
       id="path250"
       style="fill:#3399ff" />
    <path
       d="M3637 5288 c-59 -27 -197 -111 -197 -120 0 -14 56 -9 119 11 58 18 193 91 205 110 11 18 -86 17 -127 -1z"
       id="path252"
       style="fill:#006699" />
    <path
       d="M4510 5290 c-11 -11 -20 -26 -20 -33 0 -18 76 -173 88 -181 15 -9 21 14 28 112 6 86 6 90 -17 106 -31 21 -55 20 -79 -4z"
       id="path254"
       style="fill:#996633" />
    <path
       d="M3825 5238 c-8 -28 -15 -79 -15 -112 l0 -60 36 43 c48 55 116 88 211 103 l78 11 -70 34 c-60 29 -80 33 -147 33 l-77 0 -16 -52z"
       id="path256"
       style="fill:#666699" />
    <path
       d="M3730 5229 c-72 -50 -171 -90 -242 -96 -51 -5 -59 -3 -83 21 -14 14 -28 26 -30 26 -10 0 -46 -140 -51 -204 l-7 -71 59 56 c33 31 80 67 104 79 77 39 185 37 287 -6 8 -4 12 18 12 78 0 46 5 99 11 118 5 19 10 36 10 37 0 8 -21 -3 -70 -38z"
       id="path258"
       style="fill:#0033ff" />
    <path
       d="M2604 5221 c-82 -40 -261 -156 -327 -213 l-38 -33 163 0 c154 0 166 -1 213 -25 49 -25 81 -68 98 -131 6 -21 12 -15 49 53 43 78 125 195 195 277 36 42 37 44 13 38 -14 -4 -60 -12 -103 -18 -120 -15 -187 10 -173 66 4 14 3 25 -2 25 -4 0 -44 -17 -88 -39z"
       id="path260"
       style="fill:#0033ff" />
    <path
       d="M5190 5220 c-41 -5 -86 -13 -100 -18 -24 -9 -24 -10 19 -31 23 -12 62 -40 85 -61 l42 -39 74 20 c107 28 243 42 369 37 60 -2 107 0 105 4 -8 12 -157 56 -245 72 -111 20 -256 26 -349 16z"
       id="path262"
       style="fill:#3399ff" />
    <path
       d="M3290 5164 c-58 -30 -164 -64 -202 -64 -18 0 -39 10 -55 26 -24 24 -26 25 -45 7 -54 -49 -218 -285 -218 -314 0 -5 33 15 73 44 130 94 265 142 342 123 14 -4 43 -22 64 -41 l38 -35 6 73 c4 41 15 102 26 137 11 35 19 65 18 66 -1 1 -22 -9 -47 -22z"
       id="path264"
       style="fill:#0033ff" />
    <path
       d="M4000 5171 c-50 -16 -108 -51 -134 -81 -41 -49 -31 -52 34 -8 34 22 91 53 128 69 61 26 64 28 32 28 -19 0 -46 -4 -60 -8z"
       id="path266"
       style="fill:#333399" />
    <path
       d="M4122 5151 c-70 -21 -194 -80 -232 -112 l-25 -21 35 5 c19 3 78 13 130 23 62 12 148 18 248 18 83 1 152 4 152 8 0 13 -192 98 -219 97 -14 0 -54 -9 -89 -18z"
       id="path268"
       style="fill:#3399ff" />
    <path
       d="M4863 5131 c-121 -50 -139 -63 -153 -108 -7 -21 -18 -48 -26 -59 -12 -20 -8 -25 69 -83 89 -66 148 -91 211 -91 54 1 144 38 168 70 17 24 17 29 3 84 -9 33 -26 76 -38 95 -32 53 -107 131 -126 131 -9 0 -58 -18 -108 -39z"
       id="path270"
       style="fill:#0000ff" />
    <path
       d="M5088 5109 c54 -72 84 -143 86 -205 1 -61 -10 -76 -78 -111 -36 -19 -72 -28 -125 -31 l-74 -5 39 -23 c55 -34 112 -39 206 -20 153 30 175 60 134 189 -39 126 -119 224 -205 252 -21 6 -19 1 17 -46z"
       id="path272"
       style="fill:#cc99ff" />
    <path
       d="M5465 5084 c-11 -3 -59 -12 -108 -21 -48 -8 -90 -19 -93 -24 -2 -5 2 -23 11 -40 17 -31 17 -31 79 -25 155 17 350 -50 540 -186 44 -31 81 -56 83 -54 1 1 -6 24 -16 52 -26 69 -34 141 -21 194 6 25 12 52 13 60 3 25 -156 49 -323 48 -80 0 -154 -2 -165 -4z"
       id="path274"
       style="fill:#336699" />
    <path
       d="M3513 5024 c-23 -9 -61 -33 -85 -55 l-43 -39 77 39 c42 21 104 44 137 50 34 7 61 14 61 17 0 10 -108 1 -147 -12z"
       id="path276"
       style="fill:#cc6699" />
    <path
       d="M4161 4978 c-31 -67 -44 -131 -39 -208 5 -95 23 -113 110 -114 123 -2 200 53 279 197 l37 65 -48 51 -48 51 -135 0 -135 0 -21 -42z"
       id="path278"
       style="fill:#0000ff" />
    <path
       d="M5975 5000 c-14 -45 -7 -144 15 -202 12 -32 26 -60 31 -63 13 -8 12 142 -2 203 -5 28 -16 58 -23 68 -13 17 -14 16 -21 -6z"
       id="path280"
       style="fill:#9999ff" />
    <path
       d="M3985 4990 c-177 -46 -408 -173 -510 -280 l-40 -42 63 31 c97 49 261 100 378 119 l106 17 25 50 c14 27 39 67 55 88 35 44 30 46 -77 17z"
       id="path282"
       style="fill:#3399ff" />
    <path
       d="M3602 4989 c-74 -14 -254 -110 -238 -126 4 -4 244 71 366 114 12 4 11 7 -5 13 -25 11 -67 10 -123 -1z"
       id="path284"
       style="fill:#9966cc" />
    <path
       d="M4087 4952 c-14 -15 -38 -54 -54 -87 -25 -54 -28 -71 -28 -165 0 -116 12 -150 61 -172 35 -16 174 6 241 38 42 20 103 78 103 98 0 3 -21 -4 -46 -16 -105 -46 -225 -31 -256 32 -23 46 -24 178 -2 244 9 26 14 49 12 51 -2 3 -16 -8 -31 -23z"
       id="path286"
       style="fill:#cc99ff" />
    <path
       d="M3060 4946 c-80 -30 -277 -146 -246 -146 4 0 63 22 130 49 145 57 215 75 261 67 44 -9 44 -1 3 24 -38 23 -96 25 -148 6z"
       id="path288"
       style="fill:#cc6699" />
    <path
       d="M2322 4944 c3 -3 32 -12 65 -21 70 -18 214 -84 260 -119 19 -14 36 -24 38 -22 3 2 0 22 -6 43 -16 57 -64 100 -127 114 -54 11 -240 16 -230 5z"
       id="path290"
       style="fill:#cc6699" />
    <path
       d="M5308 4934 c-3 -3 1 -26 8 -51 8 -25 14 -57 14 -70 0 -12 1 -23 3 -23 1 0 28 9 60 20 99 35 225 21 323 -36 51 -30 132 -115 164 -171 26 -48 36 -52 45 -24 3 11 22 34 43 52 l36 32 -39 35 c-105 92 -293 196 -411 226 -58 15 -234 22 -246 10z"
       id="path292"
       style="fill:#9966ff" />
    <path
       d="M2230 4912 c0 -9 81 -62 145 -95 98 -49 309 -98 290 -67 -24 39 -217 130 -315 148 -105 20 -120 21 -120 14z"
       id="path294"
       style="fill:#9966cc" />
    <path
       d="M4603 4903 c-32 -6 -59 -45 -67 -94 -9 -56 4 -69 71 -69 52 0 123 26 138 50 9 14 -40 97 -65 110 -19 10 -37 11 -77 3z"
       id="path296"
       style="fill:#333300" />
    <path
       d="M3131 4883 c-71 -14 -341 -129 -341 -144 0 -9 41 -6 165 12 127 19 325 73 325 89 0 27 -95 54 -149 43z"
       id="path298"
       style="fill:#9966cc" />
    <path
       d="M3890 4784 c-103 -18 -240 -59 -334 -100 -78 -33 -220 -116 -231 -135 -4 -5 5 -23 20 -40 40 -49 57 -97 64 -189 l6 -85 41 65 c137 217 299 357 466 401 44 12 46 15 50 52 2 21 1 40 -2 41 -3 2 -39 -3 -80 -10z"
       id="path300"
       style="fill:#336699" />
    <path
       d="M4808 4769 c18 -17 37 -50 44 -73 6 -22 18 -49 26 -58 8 -10 20 -39 27 -65 7 -26 16 -48 22 -50 5 -2 15 34 23 79 10 62 10 83 1 86 -6 2 -45 28 -87 58 -85 61 -102 68 -56 23z"
       id="path302"
       style="fill:#cc99ff" />
    <path
       d="M5413 4781 c-72 -24 -127 -65 -163 -119 -40 -60 -53 -112 -48 -192 10 -162 133 -300 317 -354 82 -24 104 -18 36 10 -123 50 -214 143 -236 239 -25 110 23 215 123 271 47 26 63 29 138 29 69 0 93 -5 127 -23 121 -64 200 -186 218 -337 11 -86 27 -115 19 -35 -26 271 -156 465 -346 516 -70 18 -122 17 -185 -5z"
       id="path304"
       style="fill:#003366" />
    <path
       d="M4710 4733 c-37 -20 -58 -23 -115 -22 -65 2 -71 1 -83 -22 -14 -27 -8 -79 10 -90 46 -29 190 -13 263 29 40 24 46 73 14 108 -27 28 -31 28 -89 -3z"
       id="path306"
       style="fill:#996600" />
    <path
       d="M4465 4693 c-16 -26 -42 -65 -58 -87 -25 -31 -28 -41 -19 -55 6 -9 25 -40 42 -69 18 -29 35 -50 39 -48 4 3 6 56 5 118 -1 78 3 124 12 147 21 51 10 48 -21 -6z"
       id="path308"
       style="fill:#cc99ff" />
    <path
       d="M5155 4686 l-50 -12 -3 -51 c-6 -108 53 -266 144 -384 41 -54 190 -199 204 -199 4 0 12 11 18 25 11 24 9 26 -38 49 -117 57 -202 144 -242 248 -35 94 -23 235 27 312 20 30 18 30 -60 12z"
       id="path310"
       style="fill:#9966ff" />
    <path
       d="M3882 4655 c-152 -59 -291 -191 -416 -396 -25 -42 -46 -79 -46 -82 0 -3 21 -15 47 -27 26 -11 54 -27 63 -35 14 -13 17 -8 28 55 34 201 183 346 368 358 64 4 74 7 68 21 -4 9 -12 42 -17 74 -6 31 -16 57 -21 57 -6 -1 -39 -12 -74 -25z"
       id="path312"
       style="fill:#9966ff" />
    <path
       d="M4996 4658 c-14 -42 -26 -128 -26 -184 0 -77 24 -151 80 -245 39 -67 40 -67 92 -74 29 -4 79 -15 111 -25 l57 -18 -30 36 c-144 172 -202 297 -212 457 -4 59 -4 60 -36 63 -20 2 -34 -2 -36 -10z"
       id="path314"
       style="fill:#336699" />
    <path
       d="M5510 4631 c-105 -34 -163 -109 -163 -211 0 -67 26 -123 86 -180 42 -41 116 -82 172 -96 l29 -7 -37 44 c-21 24 -44 66 -53 95 -13 46 -13 56 0 88 8 20 30 45 48 56 64 41 199 10 262 -59 28 -31 36 -26 24 17 -28 100 -95 189 -173 227 -57 28 -151 41 -195 26z"
       id="path316"
       style="fill:#333399" />
    <path
       d="M4821 4616 c-6 -8 -40 -24 -74 -37 -60 -23 -156 -31 -217 -19 -22 4 -25 1 -28 -30 -5 -59 15 -74 102 -78 85 -5 193 22 239 59 29 22 36 64 17 100 -13 23 -23 24 -39 5z"
       id="path318"
       style="fill:#996600" />
    <path
       d="M5987 4607 c-15 -15 -35 -43 -43 -63 -13 -32 -13 -43 7 -125 13 -51 26 -85 30 -77 10 20 41 240 37 268 l-3 25 -28 -28z"
       id="path320"
       style="fill:#9966ff" />
    <path
       d="M4317 4534 c-21 -11 -27 -20 -21 -32 55 -127 57 -325 5 -480 -17 -51 -31 -95 -31 -98 0 -2 26 16 59 39 32 24 72 49 89 56 34 14 36 20 52 139 17 128 -3 208 -82 330 -22 34 -41 62 -42 62 0 -1 -14 -8 -29 -16z"
       id="path322"
       style="fill:#336699" />
    <path
       d="M4215 4505 c-5 -2 -27 -6 -49 -10 l-38 -6 45 -44 c87 -83 129 -210 108 -327 -14 -81 -59 -173 -117 -237 -45 -50 -46 -52 -29 -71 10 -11 22 -17 27 -14 18 12 89 167 113 251 44 150 43 312 -2 424 -14 36 -28 44 -58 34z"
       id="path324"
       style="fill:#9966ff" />
    <path
       d="M4862 4485 c-19 -13 -65 -33 -103 -45 -59 -19 -85 -22 -164 -18 -94 5 -95 5 -95 -18 0 -35 16 -70 37 -79 70 -30 200 -22 287 18 90 42 116 86 83 143 l-12 22 -33 -23z"
       id="path326"
       style="fill:#996600" />
    <path
       d="M3300 4453 c0 -49 49 -207 70 -227 9 -8 11 10 8 79 -3 76 -9 98 -33 143 -15 28 -32 52 -37 52 -4 0 -8 -21 -8 -47z"
       id="path328"
       style="fill:#9999ff" />
    <path
       d="M3857 4486 c-57 -16 -142 -72 -178 -118 -60 -77 -98 -194 -99 -305 0 -55 31 -230 49 -273 13 -33 14 -5 1 40 -52 178 -18 346 91 444 58 52 121 76 201 76 70 0 121 -19 166 -63 56 -53 76 -102 77 -182 0 -93 -33 -164 -117 -252 l-63 -66 44 24 c66 36 145 122 182 197 28 56 34 81 37 152 5 101 -17 172 -73 238 -70 81 -208 119 -318 88z"
       id="path330"
       style="fill:#9966ff" />
    <path
       d="M5608 4395 c-76 -43 -33 -182 76 -250 41 -25 60 -30 111 -30 79 0 105 19 105 77 0 77 -48 151 -124 190 -52 27 -133 33 -168 13z"
       id="path332"
       style="fill:#3333ff" />
    <path
       d="M4892 4344 c-83 -57 -215 -82 -330 -61 -42 7 -43 7 -37 -15 20 -65 82 -93 194 -86 113 7 204 63 217 136 9 46 -5 54 -44 26z"
       id="path334"
       style="fill:#996600" />
    <path
       d="M3800 4289 c-105 -53 -159 -152 -160 -291 0 -83 9 -98 30 -47 20 47 91 114 143 134 59 22 104 14 142 -25 36 -38 45 -116 21 -186 -9 -26 -14 -49 -13 -51 9 -9 96 81 124 129 137 227 -55 452 -287 337z"
       id="path336"
       style="fill:#333399" />
    <path
       d="M4832 4172 c-40 -18 -73 -24 -128 -26 -43 0 -74 -5 -74 -11 0 -6 36 -46 80 -90 70 -69 82 -78 94 -65 19 19 88 188 84 204 -2 9 -18 6 -56 -12z"
       id="path338"
       style="fill:#333300" />
    <path
       d="M5894 4114 l-31 -33 51 -17 c131 -42 215 -107 319 -246 32 -42 66 -80 76 -83 32 -10 153 -22 177 -17 35 6 29 19 -6 14 -44 -6 -135 42 -197 104 -79 79 -69 102 31 68 28 -10 72 -39 109 -72 l62 -56 -65 68 c-81 83 -126 113 -288 186 -70 32 -144 72 -164 89 -20 17 -38 30 -40 30 -2 -1 -17 -17 -34 -35z"
       id="path340"
       style="fill:#3333ff" />
    <path
       d="M3441 4073 c103 -185 140 -237 126 -182 -4 14 -9 52 -13 84 -8 74 -27 107 -74 134 -67 37 -76 29 -39 -36z"
       id="path342"
       style="fill:#9966ff" />
    <path
       d="M5130 4112 c0 -16 86 -92 122 -107 39 -16 138 -19 173 -6 16 6 9 13 -45 44 -104 57 -250 98 -250 69z"
       id="path344"
       style="fill:#9999ff" />
    <path
       d="M5501 4061 c-19 -34 -14 -52 12 -46 12 3 56 14 97 24 l75 18 -60 7 c-33 4 -72 10 -87 12 -20 4 -29 0 -37 -15z"
       id="path346"
       style="fill:#9966ff" />
    <path
       d="M3838 4060 c-79 -24 -139 -90 -158 -173 -20 -90 13 -167 71 -167 67 0 144 52 179 121 44 86 31 198 -25 219 -30 11 -30 11 -67 0z"
       id="path348"
       style="fill:#3333ff" />
    <path
       d="M4363 3950 c-76 -50 -186 -170 -171 -185 3 -3 34 4 70 15 49 15 74 30 100 59 35 38 73 120 66 141 -2 7 -28 -5 -65 -30z"
       id="path350"
       style="fill:#9999ff" />
    <path
       d="M6290 3871 c0 -16 121 -101 144 -101 3 0 3 6 0 14 -11 28 -144 109 -144 87z"
       id="path352"
       style="fill:#990033" />
    <path
       d="M4000 3762 c-83 -43 -84 -44 -40 -38 126 18 170 29 170 40 0 13 -32 48 -41 44 -2 0 -42 -21 -89 -46z"
       id="path354"
       style="fill:#9966ff" />
    <path
       d="M3659 3688 c-7 -18 -61 -82 -119 -143 -59 -61 -121 -132 -138 -158 -40 -57 -122 -237 -122 -266 0 -31 22 -27 115 24 93 51 86 40 141 218 32 106 80 182 162 260 34 32 62 60 62 63 0 2 -9 4 -20 4 -12 0 -31 7 -44 15 -22 15 -24 14 -37 -17z m-176 -331 c-3 -45 -56 -139 -107 -189 -84 -83 -99 -56 -39 67 37 77 112 160 136 152 7 -2 11 -16 10 -30z"
       id="path356"
       style="fill:#3333ff" />
    <path
       d="M3408 3303 c-29 -32 -72 -112 -64 -120 12 -12 101 117 94 137 -2 6 -15 -2 -30 -17z"
       id="path358"
       style="fill:#990033" />
    <path
       d="M7503 4158 c-31 -34 -41 -59 -49 -116 -8 -64 9 -69 55 -17 25 28 31 44 30 78 0 23 -4 50 -8 60 -6 17 -8 16 -28 -5z"
       id="path360"
       style="fill:#6600cc" />
    <path
       d="M7392 4012 c-30 -69 -35 -165 -9 -170 25 -5 104 35 149 76 32 29 36 38 31 65 -3 18 -7 34 -9 36 -2 2 -22 -13 -45 -33 -24 -20 -45 -36 -48 -36 -21 1 -36 25 -40 67 l-6 48 -23 -53z"
       id="path362"
       style="fill:#6600cc" />
    <path
       d="M7272 3833 c-29 -57 -50 -103 -47 -103 3 0 23 9 45 20 22 11 44 20 49 20 5 0 22 5 37 10 l27 11 -26 27 c-18 19 -27 40 -29 72 l-3 45 -53 -102z"
       id="path364"
       style="fill:#0000ff" />
    <path
       d="M7530 3875 c-25 -19 -62 -42 -82 -51 -39 -18 -49 -40 -23 -51 23 -8 47 -62 41 -89 -5 -17 -1 -26 14 -34 12 -6 25 -10 29 -8 11 4 112 138 105 138 -3 0 -17 -9 -31 -20 -14 -11 -36 -20 -50 -20 -48 0 -43 53 12 124 19 25 34 46 32 45 -1 0 -22 -16 -47 -34z"
       id="path366"
       style="fill:#6600cc" />
    <path
       d="M7556 3834 c-41 -61 -33 -83 18 -43 27 21 32 43 17 68 -7 10 -15 4 -35 -25z"
       id="path368"
       style="fill:#6600cc" />
    <path
       d="M7309 3736 c-20 -7 -53 -23 -73 -35 -29 -18 -34 -26 -25 -37 9 -11 19 -9 60 11 54 28 79 31 97 13 17 -17 15 -43 -9 -99 -36 -84 -3 -78 43 8 36 66 44 115 23 136 -19 20 -66 21 -116 3z"
       id="path370"
       style="fill:#cc6633" />
    <path
       d="M7594 3703 c-32 -42 -73 -138 -74 -170 0 -52 73 -81 171 -68 62 9 65 35 6 47 -111 23 -134 78 -65 154 15 17 17 26 9 47 -6 15 -12 27 -15 27 -2 0 -16 -17 -32 -37z"
       id="path372"
       style="fill:#6600cc" />
    <path
       d="M7285 3653 c-16 -8 -32 -17 -34 -19 -6 -6 51 -64 61 -64 10 0 38 62 38 85 0 19 -27 19 -65 -2z"
       id="path374"
       style="fill:#6633ff" />
    <path
       d="M7636 3624 c-10 -14 -16 -33 -14 -42 3 -16 73 -50 83 -40 6 6 -37 108 -46 108 -4 0 -14 -12 -23 -26z"
       id="path376"
       style="fill:#6600cc" />
    <path
       d="M7165 3595 l-17 -45 65 -70 c134 -145 202 -350 201 -605 -1 -116 -6 -161 -28 -260 -29 -124 -85 -293 -142 -429 -19 -44 -32 -82 -29 -84 2 -2 33 36 70 84 80 107 175 297 210 417 85 299 44 592 -115 828 -42 61 -176 209 -190 209 -4 0 -15 -20 -25 -45z"
       id="path378"
       style="fill:#ff6600" />
    <path
       d="M7426 3583 c-15 -25 -25 -47 -24 -47 2 -1 16 -8 32 -14 26 -12 28 -16 22 -51 l-6 -38 58 -6 c68 -6 135 -37 159 -73 16 -24 16 -28 -2 -61 -11 -19 -35 -48 -54 -64 l-35 -28 27 -10 c27 -11 37 -44 17 -56 -17 -11 -1 -25 28 -25 21 0 32 9 50 40 12 21 22 52 22 67 0 15 14 52 30 82 17 30 30 55 30 56 0 1 -17 2 -37 1 -46 -1 -56 24 -22 60 l22 24 -64 -6 c-81 -8 -141 8 -169 44 -19 23 -21 35 -16 79 5 45 3 54 -13 63 -28 14 -27 15 -55 -37z"
       id="path380"
       style="fill:#0000ff" />
    <path
       d="M7125 3473 c-6 -33 -3 -39 37 -79 29 -28 55 -44 81 -49 l39 -6 -19 31 c-33 56 -103 140 -117 140 -8 0 -17 -16 -21 -37z"
       id="path382"
       style="fill:#ff6666" />
    <path
       d="M7386 3491 c-3 -4 1 -17 9 -27 15 -19 15 -19 30 0 17 22 11 36 -15 36 -10 0 -21 -4 -24 -9z"
       id="path384"
       style="fill:#6633ff" />
    <path
       d="M7745 3400 c-11 -13 -14 -20 -6 -20 21 0 52 21 46 31 -9 14 -20 11 -40 -11z"
       id="path386"
       style="fill:#0000ff" />
    <path
       d="M7444 3399 c-11 -19 18 -39 58 -39 81 0 102 -42 48 -100 -33 -36 -38 -50 -15 -50 21 0 115 92 115 112 0 22 -45 56 -89 67 -64 16 -110 20 -117 10z"
       id="path388"
       style="fill:#cc6633" />
    <path
       d="M7087 3329 c-10 -40 -16 -73 -15 -74 2 -1 17 -11 35 -23 17 -12 46 -22 63 -22 29 0 32 2 25 23 -4 12 -9 40 -12 62 -4 36 -53 105 -73 105 -3 0 -14 -32 -23 -71z"
       id="path390"
       style="fill:#ff6666" />
    <path
       d="M7480 3331 c0 -7 7 -26 16 -42 15 -30 16 -30 35 -13 21 19 26 54 7 54 -7 0 -23 3 -35 6 -14 4 -23 2 -23 -5z"
       id="path392"
       style="fill:#6633ff" />
    <path
       d="M7797 3322 c-24 -27 -47 -87 -47 -125 0 -53 77 -116 162 -132 37 -7 57 6 35 22 -6 5 -31 15 -54 21 -41 12 -93 60 -93 86 0 7 12 30 26 51 22 33 24 41 13 66 -13 34 -20 35 -42 11z"
       id="path394"
       style="fill:#6600cc" />
    <path
       d="M7210 3301 c0 -23 26 -91 34 -91 12 0 47 83 39 91 -5 5 -23 12 -41 15 -28 6 -32 4 -32 -15z"
       id="path396"
       style="fill:#ff00ff" />
    <path
       d="M7271 3185 c-42 -101 -79 -234 -88 -320 -17 -150 11 -341 68 -470 l21 -50 15 35 c13 31 13 40 -6 105 -62 208 -48 466 36 654 20 46 22 59 12 88 -6 18 -14 33 -18 33 -5 0 -22 -34 -40 -75z"
       id="path398"
       style="fill:#9900ff" />
    <path
       d="M7841 3224 c-15 -35 -6 -61 29 -79 28 -15 60 -20 60 -10 0 16 -56 115 -65 115 -7 0 -17 -12 -24 -26z"
       id="path400"
       style="fill:#6600cc" />
    <path
       d="M7055 3174 c-3 -26 -9 -53 -12 -60 -8 -20 40 -38 81 -30 35 7 36 8 21 29 -8 12 -15 31 -15 43 0 20 -41 64 -60 64 -4 0 -11 -21 -15 -46z"
       id="path402"
       style="fill:#ff6666" />
    <path
       d="M7160 3165 c0 -18 30 -75 40 -75 7 0 31 72 26 77 -1 1 -17 6 -34 9 -26 5 -32 3 -32 -11z"
       id="path404"
       style="fill:#ff00ff" />
    <path
       d="M7540 3158 c0 -7 4 -19 9 -26 7 -12 12 -12 30 -1 31 20 26 39 -9 39 -17 0 -30 -5 -30 -12z"
       id="path406"
       style="fill:#6633ff" />
    <path
       d="M6720 3120 c0 -30 13 -40 25 -20 8 13 -4 50 -16 50 -5 0 -9 -13 -9 -30z"
       id="path408"
       style="fill:none" />
    <path
       d="M7336 3108 c-50 -115 -75 -304 -58 -450 7 -57 17 -121 23 -142 15 -53 23 -37 56 107 22 95 26 134 26 262 -1 97 -6 169 -16 205 l-14 55 -17 -37z"
       id="path410"
       style="fill:#9900ff" />
    <path
       d="M7717 3133 c-16 -15 -5 -44 22 -57 16 -9 41 -30 55 -47 31 -36 29 -68 -5 -105 -25 -27 -24 -40 5 -59 23 -15 26 -15 71 19 26 20 52 36 58 37 7 0 2 4 -11 9 -38 16 -39 40 -4 70 l32 27 -60 16 c-43 12 -74 29 -104 57 -46 42 -49 44 -59 33z"
       id="path412"
       style="fill:#0000ff" />
    <path
       d="M7560 3073 c0 -15 12 -21 59 -31 60 -13 111 -43 111 -67 0 -21 -27 -37 -93 -55 -51 -14 -63 -21 -65 -40 -3 -20 -1 -22 23 -16 102 26 195 80 195 115 0 44 -85 94 -177 107 -48 6 -53 5 -53 -13z"
       id="path414"
       style="fill:#cc6633" />
    <path
       d="M7035 3048 c-3 -13 -6 -45 -8 -73 -2 -55 1 -57 63 -34 47 18 45 16 27 36 -8 10 -20 30 -26 45 -5 15 -19 32 -30 38 -17 9 -21 7 -26 -12z"
       id="path416"
       style="fill:#ff6666" />
    <path
       d="M7120 3036 c0 -7 10 -26 22 -41 23 -29 29 -25 42 28 6 26 4 27 -29 27 -23 0 -35 -5 -35 -14z"
       id="path418"
       style="fill:#ff00ff" />
    <path
       d="M7570 2982 c0 -23 3 -43 8 -45 11 -7 115 27 119 39 4 13 -36 32 -87 40 l-40 7 0 -41z"
       id="path420"
       style="fill:#6633ff" />
    <path
       d="M7929 2980 l-24 -19 36 -1 c40 0 50 6 42 26 -7 19 -27 17 -54 -6z"
       id="path422"
       style="fill:#0000ff" />
    <path
       d="M7086 2907 c-24 -17 -11 -45 33 -70 30 -18 31 -18 31 1 0 11 3 34 6 51 6 29 5 31 -23 31 -16 0 -37 -6 -47 -13z"
       id="path424"
       style="fill:#ff00ff" />
    <path
       d="M7959 2900 c-40 -11 -71 -30 -107 -64 -69 -64 -63 -113 20 -151 60 -27 109 -35 115 -19 2 6 -10 17 -27 24 -107 44 -104 112 6 152 25 9 34 18 34 34 0 28 -8 33 -41 24z"
       id="path426"
       style="fill:#6600cc" />
    <path
       d="M7016 2878 c-9 -28 -16 -157 -9 -161 5 -3 30 15 57 39 l49 45 -37 33 c-20 19 -36 39 -36 45 0 15 -20 14 -24 -1z"
       id="path428"
       style="fill:#ff6666" />
    <path
       d="M7675 2862 c-22 -8 -41 -17 -43 -18 -2 -1 3 -11 10 -23 10 -17 10 -25 0 -41 -16 -27 -18 -25 32 -44 57 -22 80 -11 106 47 l18 42 -26 28 c-29 31 -40 32 -97 9z"
       id="path430"
       style="fill:#cc6633" />
    <path
       d="M7566 2814 c-16 -43 3 -57 40 -29 19 15 19 15 0 30 -25 19 -32 19 -40 -1z"
       id="path432"
       style="fill:#6633ff" />
    <path
       d="M7943 2800 c-18 -11 -33 -27 -33 -35 0 -16 55 -55 78 -55 8 0 12 18 12 55 0 62 -7 66 -57 35z"
       id="path434"
       style="fill:#6600cc" />
    <path
       d="M7088 2740 l-33 -30 24 -20 c13 -11 34 -20 47 -20 22 0 24 4 24 50 0 60 -14 64 -62 20z"
       id="path436"
       style="fill:#ff00ff" />
    <path
       d="M7556 2721 c-4 -7 4 -15 21 -21 121 -42 122 -87 2 -120 -35 -9 -65 -23 -67 -30 -11 -33 176 29 213 70 23 26 12 53 -34 78 -46 26 -125 40 -135 23z"
       id="path438"
       style="fill:#cc6633" />
    <path
       d="M7754 2706 c-3 -8 0 -24 6 -36 17 -31 4 -56 -46 -90 -27 -19 -44 -39 -44 -50 0 -24 0 -24 78 0 35 11 77 20 94 20 26 0 29 2 18 15 -17 20 -6 43 27 56 l27 10 -52 24 c-28 13 -57 33 -64 44 -15 24 -36 27 -44 7z"
       id="path440"
       style="fill:#0000ff" />
    <path
       d="M7007 2683 c-11 -10 -8 -201 3 -208 6 -3 18 8 28 26 9 18 36 56 59 84 l41 53 -30 6 c-16 3 -42 15 -58 26 -31 22 -34 23 -43 13z"
       id="path442"
       style="fill:#ff6666" />
    <path
       d="M7540 2658 c0 -7 -3 -24 -7 -37 -6 -23 -5 -24 33 -17 44 9 74 23 74 35 0 12 -47 31 -75 31 -14 0 -25 -6 -25 -12z"
       id="path444"
       style="fill:#6633ff" />
    <path
       d="M7128 2582 c-36 -38 -59 -77 -51 -85 11 -11 42 -8 72 8 28 14 29 16 19 57 -5 23 -10 44 -12 45 -1 2 -14 -10 -28 -25z"
       id="path446"
       style="fill:#ff00ff" />
    <path
       d="M7890 2591 c0 -12 56 -25 70 -16 22 13 8 25 -30 25 -22 0 -40 -4 -40 -9z"
       id="path448"
       style="fill:#0000ff" />
    <path
       d="M5910 2546 c0 -15 37 -32 47 -22 9 8 -17 36 -33 36 -8 0 -14 -6 -14 -14z"
       id="path450"
       style="fill:none" />
    <path
       d="M7560 2517 c-25 -5 -47 -12 -49 -13 -2 -2 2 -24 9 -49 9 -33 17 -44 27 -41 8 4 18 6 23 6 19 0 77 73 73 91 -6 21 -16 22 -83 6z"
       id="path452"
       style="fill:#cc6633" />
    <path
       d="M7765 2506 c-100 -32 -163 -83 -149 -120 7 -19 74 -56 102 -56 31 0 33 12 7 36 -45 41 -27 80 47 103 21 7 59 14 86 15 52 3 76 12 67 27 -9 13 -113 10 -160 -5z"
       id="path454"
       style="fill:#6600cc" />
    <path
       d="M7140 2470 c-8 -6 -34 -9 -58 -8 -72 3 -78 -11 -63 -139 18 -159 20 -163 48 -163 32 0 66 75 57 128 -5 33 12 107 41 175 8 19 -2 22 -25 7z"
       id="path456"
       style="fill:#ff6666" />
    <path
       d="M7471 2442 c-9 -18 -9 -30 0 -57 11 -30 10 -37 -6 -55 -10 -11 -25 -20 -33 -20 -15 0 -72 -56 -72 -72 0 -14 77 32 116 70 37 36 41 62 20 122 -13 34 -13 35 -25 12z"
       id="path458"
       style="fill:#cc6633" />
    <path
       d="M7805 2451 c-76 -19 -96 -50 -46 -75 28 -15 30 -14 75 25 25 22 46 45 46 50 0 10 -31 10 -75 0z"
       id="path460"
       style="fill:#6600cc" />
    <path
       d="M7177 2417 c-21 -50 -33 -137 -19 -137 6 0 25 20 42 45 l31 45 -19 42 -19 43 -16 -38z"
       id="path462"
       style="fill:#ff00ff" />
    <path
       d="M7547 2383 c-2 -5 -7 -20 -10 -34 -4 -14 -29 -47 -57 -73 -27 -26 -50 -56 -50 -66 0 -16 13 -13 103 29 56 26 110 51 120 54 26 9 21 22 -17 40 -19 9 -37 25 -41 36 -6 20 -39 29 -48 14z"
       id="path464"
       style="fill:#0000ff" />
    <path
       d="M7427 2360 c-9 -13 -14 -26 -12 -29 9 -8 38 26 33 40 -3 8 -10 5 -21 -11z"
       id="path466"
       style="fill:#6633ff" />
    <path
       d="M7230 2322 c0 -5 -20 -29 -44 -54 -32 -34 -51 -67 -75 -132 -34 -95 -39 -147 -17 -165 18 -15 21 -9 106 188 33 79 59 150 56 157 -6 15 -26 19 -26 6z"
       id="path468"
       style="fill:#ff00ff" />
    <path
       d="M5308 2264 c-4 -3 7 -34 24 -68 177 -351 491 -539 903 -539 146 0 254 17 396 63 141 47 141 51 -6 43 -371 -22 -598 7 -800 102 -192 92 -310 201 -411 380 -8 14 -24 21 -55 23 -25 2 -48 0 -51 -4z"
       id="path470"
       style="fill:#ff6600" />
    <path
       d="M5440 2262 c0 -26 103 -172 121 -172 21 0 12 69 -15 123 -28 54 -31 57 -68 57 -21 0 -38 -4 -38 -8z"
       id="path472"
       style="fill:#ff6666" />
    <path
       d="M5560 2260 c0 -27 41 -90 59 -90 11 0 33 -11 49 -25 37 -31 40 -31 53 1 9 25 -2 88 -20 105 -12 13 -141 21 -141 9z"
       id="path474"
       style="fill:#ff6666" />
    <path
       d="M5115 2243 c-44 -7 -91 -17 -105 -22 -23 -8 -24 -9 -5 -15 47 -16 71 -33 84 -61 l14 -29 16 24 c9 14 31 44 49 68 18 24 32 45 30 46 -2 2 -39 -3 -83 -11z"
       id="path476"
       style="fill:#0000ff" />
    <path
       d="M5227 2229 c-68 -56 -106 -146 -75 -177 26 -26 208 -5 208 24 0 11 -13 12 -58 8 -107 -12 -130 26 -62 100 22 24 40 48 40 54 0 23 -18 20 -53 -9z"
       id="path478"
       style="fill:#cc6633" />
    <path
       d="M5744 2224 c4 -16 17 -36 29 -44 12 -8 32 -25 44 -37 l23 -22 15 29 c32 63 18 86 -59 95 l-59 8 7 -29z"
       id="path480"
       style="fill:#ff6666" />
    <path
       d="M5897 2224 c-10 -10 5 -36 43 -75 l37 -38 31 41 c18 23 29 45 25 49 -7 6 -102 29 -122 29 -4 0 -10 -3 -14 -6z"
       id="path482"
       style="fill:#ff6666" />
    <path
       d="M7343 2194 c-18 -8 -33 -18 -33 -23 0 -5 -36 -48 -81 -95 -45 -47 -79 -86 -76 -86 3 0 26 18 51 39 25 22 80 63 121 92 47 33 75 60 75 71 0 21 -13 22 -57 2z"
       id="path484"
       style="fill:#6633ff" />
    <path
       d="M7627 2190 c-65 -10 -120 -20 -124 -24 -10 -9 63 -36 99 -36 50 0 165 59 147 74 -2 2 -57 -5 -122 -14z"
       id="path486"
       style="fill:#cccc66" />
    <path
       d="M7791 2172 c-26 -52 -35 -121 -19 -152 22 -42 41 -35 67 25 13 30 41 75 63 100 22 25 39 48 36 50 -2 3 -15 6 -29 7 -20 3 -29 -6 -54 -54 -16 -32 -33 -58 -37 -58 -14 0 -8 35 12 73 25 46 25 47 0 47 -13 0 -26 -13 -39 -38z"
       id="path488"
       style="fill:#999900" />
    <path
       d="M5261 2171 c-45 -48 -41 -61 18 -61 28 0 52 3 54 8 2 4 -6 25 -19 46 l-23 40 -30 -33z"
       id="path490"
       style="fill:#6633ff" />
    <path
       d="M6067 2194 c-4 -4 5 -20 18 -36 14 -16 28 -40 31 -54 7 -29 9 -29 44 -4 15 11 39 24 54 30 14 5 26 14 26 20 0 5 -2 10 -4 10 -5 0 -119 28 -147 36 -8 2 -18 1 -22 -2z"
       id="path492"
       style="fill:#ff6666" />
    <path
       d="M4851 2171 c-10 -7 -6 -11 17 -15 36 -9 65 -37 57 -59 -4 -8 -26 -26 -51 -38 -24 -13 -44 -27 -44 -30 0 -3 15 -13 34 -22 33 -15 35 -15 78 12 51 33 121 108 115 124 -9 29 -170 51 -206 28z"
       id="path494"
       style="fill:#6600cc" />
    <path
       d="M7946 2148 c-33 -47 -14 -68 62 -68 40 0 42 17 6 59 -31 37 -47 39 -68 9z"
       id="path496"
       style="fill:#9900ff" />
    <path
       d="M7391 2126 l-54 -33 119 -5 c94 -4 135 -10 197 -31 42 -15 79 -27 81 -27 2 0 6 27 8 60 1 33 1 60 -1 60 -2 0 -18 -9 -36 -20 -65 -40 -160 -36 -227 11 -14 11 -28 19 -30 19 -1 0 -27 -16 -57 -34z"
       id="path498"
       style="fill:#cccc66" />
    <path
       d="M5746 2128 c-11 -43 -7 -48 34 -48 46 0 49 7 15 44 -30 32 -41 33 -49 4z"
       id="path500"
       style="fill:#ff00ff" />
    <path
       d="M5881 2137 c-6 -6 -11 -21 -11 -34 0 -20 5 -23 41 -23 l40 0 -17 30 c-21 34 -37 43 -53 27z"
       id="path502"
       style="fill:#ff00ff" />
    <path
       d="M6020 2118 c-11 -18 -20 -36 -20 -40 0 -8 81 -27 92 -21 8 4 -10 62 -25 81 -15 19 -26 15 -47 -20z"
       id="path504"
       style="fill:#ff00ff" />
    <path
       d="M6270 2140 c-11 -7 -11 -14 -1 -38 7 -17 11 -44 9 -61 -3 -36 -2 -36 57 -11 25 11 62 21 81 24 33 3 64 21 53 29 -16 14 -189 63 -199 57z"
       id="path506"
       style="fill:#ff6666" />
    <path
       d="M5600 2099 c0 -41 0 -41 31 -35 17 3 41 6 53 6 18 1 16 5 -16 35 -51 48 -68 46 -68 -6z"
       id="path508"
       style="fill:#ff00ff" />
    <path
       d="M4713 2118 c-13 -6 -23 -14 -23 -18 0 -4 23 -17 51 -29 l51 -22 46 23 c53 26 63 43 30 52 -36 9 -131 6 -155 -6z"
       id="path510"
       style="fill:#6600cc" />
    <path
       d="M7050 2106 c0 -14 5 -28 10 -31 6 -4 10 7 10 24 0 17 -4 31 -10 31 -5 0 -10 -11 -10 -24z"
       id="path512"
       style="fill:#ff6666" />
    <path
       d="M5040 2061 c-19 -20 -50 -49 -69 -63 l-35 -26 61 21 c51 18 65 19 87 9 34 -15 33 -38 -4 -72 -16 -15 -30 -30 -30 -33 0 -3 26 6 58 19 31 13 67 24 80 24 19 0 23 5 20 27 -2 20 -14 32 -43 47 -25 13 -45 33 -54 54 -8 17 -19 32 -25 31 -6 0 -27 -17 -46 -38z"
       id="path514"
       style="fill:#0000ff" />
    <path
       d="M6178 2079 c-39 -29 -35 -44 13 -58 50 -15 62 -6 57 40 -4 42 -30 48 -70 18z"
       id="path516"
       style="fill:#ff00ff" />
    <path
       d="M6888 2079 c-24 -13 -23 -61 0 -82 23 -21 32 -21 61 3 29 25 23 61 -14 78 -30 14 -26 14 -47 1z"
       id="path518"
       style="fill:#330099" />
    <path
       d="M7864 2035 c-39 -84 -27 -95 47 -40 34 25 65 45 71 45 5 0 6 5 3 10 -3 6 -16 10 -28 10 -13 0 -33 7 -45 16 -22 15 -23 14 -48 -41z"
       id="path520"
       style="fill:#ff9900" />
    <path
       d="M6482 2050 c-12 -12 -22 -28 -22 -38 0 -9 -9 -32 -20 -50 -11 -18 -20 -33 -20 -35 0 -1 30 0 66 1 42 3 83 -2 114 -12 27 -9 69 -16 94 -16 36 0 48 4 57 22 10 19 9 24 -11 37 -19 13 -226 111 -234 111 -1 0 -12 -9 -24 -20z"
       id="path522"
       style="fill:#ff6666" />
    <path
       d="M7338 2054 c-3 -3 1 -26 9 -52 15 -50 11 -123 -9 -167 -13 -28 -12 -30 19 -39 18 -6 25 -2 35 18 9 21 8 29 -5 44 -23 26 -21 71 5 99 19 21 20 26 9 63 -9 32 -17 40 -35 40 -12 0 -25 -2 -28 -6z"
       id="path524"
       style="fill:#990066" />
    <path
       d="M7425 2038 c11 -34 21 -41 43 -29 31 17 18 51 -20 51 -26 0 -29 -3 -23 -22z"
       id="path526"
       style="fill:#990066" />
    <path
       d="M7512 2043 c3 -19 48 -32 48 -14 0 10 -31 31 -45 31 -4 0 -5 -8 -3 -17z"
       id="path528"
       style="fill:#990066" />
    <path
       d="M5678 2041 c-60 -9 -65 -14 -31 -37 24 -15 45 -18 135 -15 220 6 419 -50 595 -166 42 -27 60 -34 92 -31 l41 3 -57 46 c-180 142 -376 210 -608 207 -66 0 -141 -4 -167 -7z"
       id="path530"
       style="fill:#9900ff" />
    <path
       d="M7272 2042 c-10 -7 -10 -15 -2 -36 12 -34 13 -126 0 -146 -9 -15 4 -40 22 -40 16 0 38 67 38 115 0 46 -22 115 -37 115 -4 0 -14 -4 -21 -8z"
       id="path532"
       style="fill:#990066" />
    <path
       d="M7997 2018 c-31 -17 -73 -45 -92 -62 -51 -45 -37 -59 59 -57 41 1 94 -3 117 -9 22 -6 43 -9 46 -6 3 2 1 17 -4 33 -9 27 -13 28 -71 28 -34 1 -64 4 -68 7 -6 7 6 11 78 26 l36 7 -13 33 c-8 17 -18 32 -22 32 -4 0 -34 -15 -66 -32z"
       id="path534"
       style="fill:#999900" />
    <path
       d="M7592 2028 c3 -7 15 -15 27 -16 16 -3 22 1 19 10 -3 7 -15 15 -27 16 -16 3 -22 -1 -19 -10z"
       id="path536"
       style="fill:#990066" />
    <path
       d="M5288 2016 c-27 -6 -48 -14 -48 -18 0 -5 0 -16 0 -27 0 -15 10 -20 45 -25 57 -9 95 -51 95 -104 -1 -32 -18 -94 -45 -156 -8 -17 -7 -17 24 -1 56 28 73 6 46 -59 -7 -17 -6 -18 11 -11 10 5 67 9 125 10 59 1 112 5 118 9 6 4 11 20 11 35 0 25 -3 28 -25 23 -22 -4 -28 1 -37 26 l-12 30 -48 -24 c-99 -50 -142 -22 -143 95 0 36 3 82 8 102 7 35 6 36 -18 31 -36 -6 -58 15 -51 50 3 15 2 27 -2 27 -4 -1 -28 -6 -54 -13z"
       id="path538"
       style="fill:#0000ff" />
    <path
       d="M5376 2014 c-10 -26 -7 -34 13 -34 26 0 36 17 21 35 -16 19 -26 19 -34 -1z"
       id="path540"
       style="fill:#6633ff" />
    <path
       d="M6351 2004 l-55 -25 40 -24 39 -25 28 30 c28 31 36 70 15 70 -7 0 -38 -12 -67 -26z"
       id="path542"
       style="fill:#ff00ff" />
    <path
       d="M7670 2006 c0 -14 49 -40 58 -32 8 8 -17 33 -38 39 -12 3 -20 0 -20 -7z"
       id="path544"
       style="fill:#990066" />
    <path
       d="M7214 1995 c-4 -8 -4 -26 0 -38 3 -13 2 -38 -3 -55 -7 -23 -6 -34 5 -43 18 -15 24 -9 34 38 15 62 -17 148 -36 98z"
       id="path546"
       style="fill:#990066" />
    <path
       d="M6951 1966 c-38 -40 -19 -46 28 -10 40 31 41 34 19 34 -13 0 -35 -11 -47 -24z"
       id="path548"
       style="fill:#9900cc" />
    <path
       d="M7452 1969 c-24 -12 -49 -33 -55 -47 -10 -22 -8 -27 20 -53 89 -79 351 -95 369 -23 9 37 -18 69 -93 106 -88 43 -177 50 -241 17z m212 -50 c38 -30 31 -61 -16 -76 -45 -15 -103 -1 -119 28 -9 17 -7 25 12 45 29 31 86 32 123 3z"
       id="path550"
       style="fill:#cc9900" />
    <path
       d="M7569 1901 l-24 -19 28 -11 c67 -26 124 9 62 37 -34 16 -39 15 -66 -7z"
       id="path552"
       style="fill:#cc9900" />
    <path
       d="M5008 1968 c-44 -12 -48 -24 -14 -39 20 -10 30 -8 55 10 53 38 37 50 -41 29z"
       id="path554"
       style="fill:#0000ff" />
    <path
       d="M7760 1964 c0 -9 14 -32 30 -51 17 -18 30 -43 30 -54 0 -26 -52 -79 -78 -79 -11 0 -25 -7 -32 -15 -20 -24 37 -19 90 8 77 38 88 97 29 156 -43 44 -69 57 -69 35z"
       id="path556"
       style="fill:#990066" />
    <path
       d="M7151 1947 c-26 -29 -26 -33 0 -48 25 -13 39 1 39 38 0 32 -14 36 -39 10z"
       id="path558"
       style="fill:#990066" />
    <path
       d="M5735 1951 c11 -19 160 -89 235 -111 99 -29 234 -50 324 -50 l81 0 -55 35 c-64 40 -183 89 -272 111 -85 20 -324 32 -313 15z"
       id="path560"
       style="fill:#9900ff" />
    <path
       d="M7015 1948 c-33 -18 -65 -50 -59 -60 7 -11 105 -61 110 -56 5 6 -19 128 -25 128 -3 0 -15 -6 -26 -12z"
       id="path562"
       style="fill:#9900cc" />
    <path
       d="M5441 1913 c-14 -48 -14 -124 -1 -157 7 -19 17 -26 35 -26 41 0 135 55 135 79 0 14 -22 15 -36 1 -17 -17 -69 -28 -87 -18 -19 10 -23 62 -8 101 8 20 6 29 -9 42 -18 16 -19 15 -29 -22z"
       id="path564"
       style="fill:#cc6633" />
    <path
       d="M6786 1933 c-12 -12 -6 -21 19 -25 14 -3 25 -2 25 3 0 12 -36 30 -44 22z"
       id="path566"
       style="fill:#ff3366" />
    <path
       d="M5205 1914 c-63 -16 -125 -38 -125 -45 0 -21 40 -29 83 -18 86 24 120 -11 115 -115 -4 -66 14 -69 41 -7 51 119 35 177 -49 185 -25 3 -54 2 -65 0z"
       id="path568"
       style="fill:#6600cc" />
    <path
       d="M7091 1890 c0 -14 4 -34 9 -45 7 -17 9 -16 9 10 0 17 -4 37 -9 45 -8 12 -10 10 -9 -10z"
       id="path570"
       style="fill:#9900cc" />
    <path
       d="M6440 1892 c0 -5 14 -18 31 -31 32 -23 51 -23 112 1 55 21 21 38 -80 38 -35 0 -63 -4 -63 -8z"
       id="path572"
       style="fill:#ff00ff" />
    <path
       d="M5496 1858 c-8 -42 5 -54 43 -38 17 7 31 16 31 19 0 7 -55 51 -63 51 -3 0 -7 -14 -11 -32z"
       id="path574"
       style="fill:#6633ff" />
    <path
       d="M6680 1871 c-19 -4 -55 -17 -80 -29 -25 -12 -52 -22 -60 -22 -12 0 -12 -3 2 -16 15 -15 30 -15 194 1 99 9 184 21 189 27 7 6 2 16 -14 29 -19 16 -38 19 -110 18 -47 -1 -102 -5 -121 -8z"
       id="path576"
       style="fill:#ff00ff" />
    <path
       d="M7175 1844 c17 -13 69 -51 118 -84 l87 -59 64 6 c85 8 150 -15 216 -74 l50 -45 0 45 c0 25 2 52 6 60 4 11 -14 15 -98 20 -129 7 -248 41 -378 107 -62 32 -85 40 -65 24z"
       id="path578"
       style="fill:#cccc66" />
    <path
       d="M7902 1848 c3 -20 16 -27 94 -52 19 -6 21 -3 16 19 -2 14 1 32 8 40 11 13 4 15 -54 15 -63 0 -67 -1 -64 -22z"
       id="path580"
       style="fill:#ff9900" />
    <path
       d="M8040 1835 c-11 -14 -6 -23 43 -70 70 -68 87 -71 80 -12 -9 73 -23 92 -69 95 -28 2 -45 -2 -54 -13z"
       id="path582"
       style="fill:#9900ff" />
    <path
       d="M6975 1831 c8 -15 65 -44 72 -37 3 2 -14 14 -37 26 -23 12 -39 17 -35 11z"
       id="path584"
       style="fill:#9900cc" />
    <path
       d="M5163 1822 c-9 -6 0 -21 32 -52 l44 -43 7 27 c10 41 -10 76 -43 76 -16 0 -34 -4 -40 -8z"
       id="path586"
       style="fill:#6600cc" />
    <path
       d="M7416 1804 c-7 -19 1 -34 19 -34 15 0 28 27 19 41 -9 14 -31 10 -38 -7z"
       id="path588"
       style="fill:#990066" />
    <path
       d="M6926 1781 c-28 -18 -28 -19 -8 -30 48 -26 78 -6 50 32 -12 16 -15 16 -42 -2z"
       id="path590"
       style="fill:#990066" />
    <path
       d="M7483 1784 c-6 -17 15 -37 29 -28 13 9 9 32 -7 38 -9 3 -18 -1 -22 -10z"
       id="path592"
       style="fill:#990066" />
    <path
       d="M7874 1789 c-4 -7 2 -16 12 -22 35 -20 136 -122 202 -205 46 -57 68 -79 74 -70 17 27 6 51 -47 107 -30 32 -55 61 -55 64 0 15 20 5 64 -34 l46 -41 0 39 c0 38 -2 40 -77 85 -77 47 -171 88 -198 88 -8 0 -17 -5 -21 -11z"
       id="path594"
       style="fill:#999900" />
    <path
       d="M6784 1752 c-43 -22 -93 -44 -110 -51 -32 -13 -78 -64 -67 -75 15 -14 42 -3 92 38 29 24 82 61 117 81 35 21 64 39 64 41 0 9 -22 1 -96 -34z"
       id="path596"
       style="fill:#6633ff" />
    <path
       d="M7102 1778 c-13 -13 -17 -98 -3 -98 4 0 29 16 55 36 45 34 46 37 28 49 -29 21 -66 27 -80 13z"
       id="path598"
       style="fill:#330033" />
    <path
       d="M5636 1758 c-3 -13 -6 -26 -6 -30 0 -15 27 -8 43 10 13 14 14 21 5 30 -18 18 -35 14 -42 -10z"
       id="path600"
       style="fill:#6633ff" />
    <path
       d="M7547 1766 c-8 -19 22 -29 40 -15 11 10 11 14 1 20 -20 13 -35 11 -41 -5z"
       id="path602"
       style="fill:#990066" />
    <path
       d="M7627 1763 c-14 -13 -6 -24 15 -21 27 4 36 28 11 28 -11 0 -23 -3 -26 -7z"
       id="path604"
       style="fill:#990066" />
    <path
       d="M7837 1753 c-12 -11 -8 -67 9 -124 17 -57 34 -85 34 -56 0 27 46 67 77 67 27 1 25 4 -36 60 -64 60 -72 65 -84 53z"
       id="path606"
       style="fill:#ff9900" />
    <path
       d="M7011 1750 c0 -3 6 -41 14 -85 27 -150 14 -345 -30 -449 -9 -21 -15 -39 -13 -40 2 -1 23 -7 48 -13 25 -6 53 -14 63 -18 13 -6 11 5 -14 51 -28 54 -30 66 -27 134 2 46 11 90 22 113 17 34 18 44 7 93 -12 50 -69 226 -70 214z"
       id="path608"
       style="fill:#cccc66" />
    <path
       d="M5714 1729 c-4 -7 -9 -47 -11 -88 -5 -93 15 -144 59 -149 33 -4 111 63 146 127 22 38 22 42 6 48 -11 4 -22 0 -31 -13 -8 -10 -27 -38 -44 -62 -36 -51 -55 -61 -77 -38 -13 13 -17 35 -17 98 0 78 -12 108 -31 77z"
       id="path610"
       style="fill:#cc6633" />
    <path
       d="M6846 1731 c-16 -25 122 -77 145 -54 18 18 -12 33 -117 60 -12 2 -25 0 -28 -6z"
       id="path612"
       style="fill:#990066" />
    <path
       d="M7162 1689 c-34 -26 -52 -47 -50 -57 6 -26 30 -19 92 28 45 34 54 45 45 56 -17 21 -29 17 -87 -27z"
       id="path614"
       style="fill:#993300" />
    <path
       d="M7756 1708 c-10 -14 -16 -42 -15 -78 1 -71 11 -104 31 -108 14 -3 15 1 6 32 -11 36 -6 66 12 66 5 0 10 -10 10 -21 0 -56 38 -125 57 -105 3 2 -9 45 -26 94 -17 49 -31 101 -31 116 0 32 -23 34 -44 4z"
       id="path616"
       style="fill:#999900" />
    <path
       d="M5775 1688 c-9 -35 -2 -113 10 -112 10 0 75 90 75 104 0 4 -11 11 -24 14 -13 3 -31 9 -40 12 -10 4 -17 -2 -21 -18z"
       id="path618"
       style="fill:#6633ff" />
    <path
       d="M6801 1697 c-6 -6 -11 -16 -11 -21 0 -13 54 -51 93 -65 30 -12 110 -15 120 -5 11 12 -6 34 -27 34 -36 0 -92 19 -129 44 -25 18 -38 21 -46 13z"
       id="path620"
       style="fill:#990066" />
    <path
       d="M7207 1630 c-60 -45 -66 -53 -57 -70 12 -23 13 -23 90 34 30 23 59 44 64 48 10 6 -9 38 -23 38 -3 0 -36 -23 -74 -50z"
       id="path622"
       style="fill:#993300" />
    <path
       d="M7446 1669 c8 -14 234 -122 241 -116 11 11 -66 82 -112 103 -53 25 -142 33 -129 13z"
       id="path624"
       style="fill:#cccc66" />
    <path
       d="M6540 1663 c-8 -3 -28 -21 -45 -39 -33 -34 -62 -37 -86 -8 -12 15 -69 20 -69 6 0 -13 76 -52 102 -52 27 0 102 45 132 78 19 22 19 22 0 21 -10 0 -26 -3 -34 -6z"
       id="path626"
       style="fill:#cc6633" />
    <path
       d="M5352 1648 c-16 -16 -15 -28 1 -28 7 0 18 9 25 20 10 16 10 20 -1 20 -7 0 -18 -5 -25 -12z"
       id="path628"
       style="fill:#0000ff" />
    <path
       d="M5960 1626 c0 -34 16 -40 40 -16 24 24 18 40 -16 40 -19 0 -24 -5 -24 -24z"
       id="path630"
       style="fill:#6633ff" />
    <path
       d="M6426 1641 c-11 -16 27 -22 43 -6 14 13 13 15 -11 15 -15 0 -29 -4 -32 -9z"
       id="path632"
       style="fill:#6633ff" />
    <path
       d="M6684 1607 l-47 -43 12 -49 c17 -69 1 -131 -50 -189 -43 -48 -44 -47 28 -61 18 -4 36 -5 39 -3 4 2 6 28 5 58 -3 73 15 179 44 263 12 37 22 67 20 67 -2 0 -24 -19 -51 -43z"
       id="path634"
       style="fill:#cccc66" />
    <path
       d="M6759 1618 c-10 -19 -8 -25 17 -45 31 -24 59 -30 69 -13 13 21 59 10 91 -21 40 -39 77 -34 72 9 -2 22 -8 26 -26 24 -39 -6 -129 18 -167 44 -44 29 -42 29 -56 2z"
       id="path636"
       style="fill:#990066" />
    <path
       d="M6047 1588 c-6 -43 3 -114 17 -136 4 -7 19 -12 33 -12 32 0 111 78 143 139 l20 41 -20 0 c-13 0 -24 -10 -31 -27 -19 -50 -59 -94 -82 -91 -30 4 -49 45 -42 91 4 31 2 37 -14 37 -14 0 -20 -10 -24 -42z"
       id="path638"
       style="fill:#cc6633" />
    <path
       d="M6117 1624 c-11 -11 -8 -82 3 -89 6 -4 18 -1 26 6 17 14 48 69 42 75 -9 9 -64 15 -71 8z"
       id="path640"
       style="fill:#6633ff" />
    <path
       d="M6257 1559 c-35 -58 -35 -59 -15 -70 26 -14 91 13 114 48 8 14 14 26 12 27 -2 1 -19 14 -39 28 l-37 27 -35 -60z"
       id="path642"
       style="fill:#cc6633" />
    <path
       d="M7255 1574 c-64 -47 -74 -64 -52 -83 12 -9 27 -2 78 35 35 26 66 48 67 50 8 6 -10 44 -21 43 -7 0 -39 -20 -72 -45z"
       id="path644"
       style="fill:#993300" />
    <path
       d="M7919 1594 c-7 -9 -13 -39 -14 -67 l0 -51 65 -18 c68 -19 151 -20 157 -2 5 14 -62 91 -110 125 -45 33 -78 37 -98 13z"
       id="path646"
       style="fill:#9900ff" />
    <path
       d="M5433 1588 c-38 -13 -40 -18 -14 -49 17 -21 22 -22 45 -11 84 38 141 -9 134 -111 -2 -41 0 -52 13 -55 35 -7 32 116 -5 186 -26 50 -93 65 -173 40z"
       id="path648"
       style="fill:#6600cc" />
    <path
       d="M5620 1593 c0 -4 10 -27 22 -52 16 -33 22 -64 22 -113 0 -38 2 -68 3 -68 2 0 17 10 33 22 24 17 32 19 45 8 8 -7 15 -21 15 -32 0 -18 3 -17 33 8 18 16 43 36 57 45 24 16 24 16 6 43 -12 19 -23 26 -34 21 -9 -4 -31 -9 -49 -12 -41 -7 -78 28 -94 91 -9 39 -15 46 -35 46 -13 0 -24 -3 -24 -7z"
       id="path650"
       style="fill:#0000ff" />
    <path
       d="M5891 1552 l-33 -45 20 -36 c19 -33 23 -35 64 -32 59 4 78 23 78 81 0 54 -6 63 -30 50 -13 -7 -24 -4 -41 9 -24 18 -24 18 -58 -27z"
       id="path652"
       style="fill:#cc6633" />
    <path
       d="M6526 1574 c-23 -16 -59 -29 -85 -32 -67 -7 -74 -16 -45 -59 13 -20 24 -46 24 -59 0 -13 3 -24 8 -24 8 0 182 185 182 194 0 15 -49 3 -84 -20z"
       id="path654"
       style="fill:#0000ff" />
    <path
       d="M6728 1536 c-8 -41 27 -61 52 -31 10 13 10 19 -5 35 -24 27 -42 25 -47 -4z"
       id="path656"
       style="fill:#990066" />
    <path
       d="M7303 1509 c-29 -22 -53 -44 -53 -50 0 -13 78 -48 108 -49 20 0 22 5 22 48 0 51 -9 92 -19 91 -3 0 -30 -18 -58 -40z"
       id="path658"
       style="fill:#330033" />
    <path
       d="M6831 1514 c-64 -53 -88 -142 -70 -251 12 -71 40 -113 73 -113 50 0 95 100 103 225 9 147 -33 201 -106 139z m59 -119 c8 -10 11 -32 7 -60 -8 -76 -58 -110 -91 -63 -20 28 -20 61 -1 98 21 41 62 53 85 25z"
       id="path660"
       style="fill:#cc9900" />
    <path
       d="M6831 1361 c-14 -26 -14 -68 0 -77 17 -10 38 18 41 56 3 40 -24 54 -41 21z"
       id="path662"
       style="fill:#cc9900" />
    <path
       d="M6556 1410 c-31 -62 -54 -115 -52 -117 8 -8 43 16 74 51 43 50 64 131 43 165 -7 11 -24 -14 -65 -99z"
       id="path664"
       style="fill:#cccc66" />
    <path
       d="M5474 1498 c-5 -7 12 -29 42 -56 l49 -45 3 36 c5 53 -12 77 -53 77 -18 0 -37 -5 -41 -12z"
       id="path666"
       style="fill:#6600cc" />
    <path
       d="M6965 1480 c-9 -15 4 -30 26 -30 12 0 19 7 19 20 0 21 -33 29 -45 10z"
       id="path668"
       style="fill:#990066" />
    <path
       d="M6162 1444 c-48 -37 -86 -43 -114 -18 -14 13 -21 14 -32 5 -12 -10 -11 -17 5 -48 11 -21 19 -47 19 -59 0 -12 3 -30 6 -39 6 -14 8 -13 21 5 18 26 43 26 50 0 8 -31 17 -24 35 28 10 26 33 66 53 89 40 47 41 49 18 61 -14 7 -29 1 -61 -24z"
       id="path670"
       style="fill:#0000ff" />
    <path
       d="M6266 1430 c-29 -27 -64 -73 -78 -102 -27 -54 -39 -107 -25 -108 4 0 11 0 15 0 5 0 14 17 20 38 15 49 65 128 91 142 29 15 56 -1 70 -41 9 -27 13 -30 26 -19 12 10 14 24 9 59 -14 99 -48 107 -128 31z"
       id="path672"
       style="fill:#6600cc" />
    <path
       d="M6710 1451 c0 -25 19 -38 31 -20 12 19 6 33 -14 37 -11 2 -17 -3 -17 -17z"
       id="path674"
       style="fill:#990066" />
    <path
       d="M7091 1411 c-30 -55 -12 -181 34 -236 15 -19 16 -16 10 55 -3 41 -12 104 -18 140 -12 62 -13 64 -26 41z"
       id="path676"
       style="fill:#cccc66" />
    <path
       d="M6970 1399 c0 -14 5 -19 17 -17 26 5 29 38 4 38 -15 0 -21 -6 -21 -21z"
       id="path678"
       style="fill:#990066" />
    <path
       d="M5874 1390 c-43 -22 -69 -46 -98 -92 -17 -26 -17 -27 4 -38 20 -10 27 -7 63 29 74 75 120 61 133 -40 8 -63 28 -59 32 7 4 66 -5 111 -29 135 -24 24 -54 24 -105 -1z"
       id="path680"
       style="fill:#6600cc" />
    <path
       d="M6702 1368 c2 -13 8 -23 13 -23 6 0 11 10 13 23 2 15 -2 22 -13 22 -11 0 -15 -7 -13 -22z"
       id="path682"
       style="fill:#990066" />
    <path
       d="M6276 1347 c-14 -18 -32 -50 -41 -70 -19 -46 -8 -48 58 -7 49 31 57 52 37 91 -15 27 -25 24 -54 -14z"
       id="path684"
       style="fill:#6600cc" />
    <path
       d="M5702 1352 c-23 -23 -25 -43 -5 -49 15 -5 35 32 31 55 -3 15 -6 14 -26 -6z"
       id="path686"
       style="fill:#0000ff" />
    <path
       d="M6966 1334 c-4 -9 -4 -19 -2 -22 10 -9 36 8 36 23 0 20 -26 19 -34 -1z"
       id="path688"
       style="fill:#990066" />
    <path
       d="M5872 1281 c-18 -16 -32 -34 -32 -39 0 -11 98 -37 107 -28 3 3 2 25 -3 48 -11 53 -31 58 -72 19z"
       id="path690"
       style="fill:#6600cc" />
    <path
       d="M6704 1284 c11 -45 28 -55 24 -15 -2 19 -9 37 -17 39 -11 4 -12 -2 -7 -24z"
       id="path692"
       style="fill:#990066" />
    <path
       d="M6073 1245 c-18 -37 -14 -51 12 -42 9 4 15 19 15 42 0 44 -6 44 -27 0z"
       id="path694"
       style="fill:#0000ff" />
    <path
       d="M6951 1261 c-6 -10 -7 -21 -4 -25 9 -8 33 14 33 30 0 20 -18 17 -29 -5z"
       id="path696"
       style="fill:#990066" />
    <path
       d="M6535 1246 c-5 -3 -22 -7 -37 -10 -19 -4 -28 -13 -28 -25 0 -17 4 -18 36 -9 39 10 84 4 84 -12 0 -6 -12 -10 -27 -10 -49 0 -102 -20 -108 -40 -11 -35 3 -38 57 -12 31 14 77 27 115 30 59 4 63 6 63 29 0 18 -9 28 -34 38 -36 15 -104 27 -121 21z"
       id="path698"
       style="fill:#999900" />
    <path
       d="M6720 1193 c0 -35 41 -101 70 -113 53 -22 105 6 150 83 21 36 21 37 1 37 -11 0 -22 -9 -26 -20 -9 -28 -53 -60 -85 -60 -27 0 -58 26 -79 68 -14 26 -31 29 -31 5z"
       id="path700"
       style="fill:#990066" />
    <path
       d="M6611 1131 c-34 -6 -34 -6 -35 -62 l-1 -56 65 50 c36 27 65 55 65 61 0 13 -46 17 -94 7z"
       id="path702"
       style="fill:#ff9900" />
    <path
       d="M6950 1125 c-15 -18 -15 -17 27 -39 17 -9 62 -38 98 -66 36 -27 68 -50 71 -50 3 0 4 10 2 22 -3 20 -21 36 -84 74 -37 23 -2 28 38 6 23 -12 43 -20 46 -17 23 22 -86 85 -149 85 -21 0 -42 -7 -49 -15z"
       id="path704"
       style="fill:#999900" />
    <path
       d="M6492 1085 l-34 -15 24 -42 c13 -24 30 -43 38 -43 20 0 44 84 29 102 -14 16 -16 16 -57 -2z"
       id="path706"
       style="fill:#9900ff" />
    <path
       d="M6679 1059 c-57 -41 -119 -100 -119 -114 0 -6 11 -22 24 -34 l23 -22 24 48 c13 26 30 49 38 51 10 4 12 0 6 -14 -4 -11 -15 -38 -24 -62 -16 -43 -16 -43 9 -62 14 -11 28 -20 31 -20 4 0 10 28 13 61 4 34 16 86 28 116 19 51 19 83 0 83 -5 0 -29 -14 -53 -31z"
       id="path708"
       style="fill:#999900" />
    <path
       d="M6905 1070 c-7 -12 17 -88 45 -140 l18 -35 10 25 c13 33 29 46 71 57 l34 9 -64 41 c-73 46 -104 59 -114 43z"
       id="path710"
       style="fill:#ff9900" />
    <path
       d="M6765 1017 c-7 -18 -17 -45 -20 -60 -7 -25 -5 -27 22 -27 16 0 34 -5 41 -12 9 -9 12 1 12 48 0 84 -29 112 -55 51z"
       id="path712"
       style="fill:#ff9900" />
    <path
       d="M6843 1034 c-8 -22 13 -183 33 -252 13 -44 22 -56 47 -67 18 -7 34 -12 36 -10 2 2 -6 24 -18 48 -21 44 -27 77 -13 77 4 0 20 -27 35 -60 29 -62 66 -97 92 -86 12 4 4 22 -37 83 -55 82 -131 222 -140 261 -7 26 -26 29 -35 6z"
       id="path714"
       style="fill:#999900" />
    <path
       d="M7016 928 c-15 -22 -15 -29 0 -78 16 -53 71 -150 86 -150 20 0 38 54 44 131 8 98 3 105 -68 115 -41 6 -48 4 -62 -18z"
       id="path716"
       style="fill:#9900ff" />
    <path
       d="M6744 875 c-25 -60 -20 -72 46 -105 55 -28 60 -29 60 -11 0 40 -59 151 -81 151 -6 0 -17 -16 -25 -35z"
       id="path718"
       style="fill:#9900ff" />
    <path
       d="M487 4113 c-16 -15 -5 -68 33 -162 22 -55 43 -113 46 -130 5 -23 23 -43 73 -79 124 -91 247 -200 391 -349 160 -165 284 -318 399 -495 42 -64 79 -116 82 -115 3 1 30 23 59 50 l52 47 -66 121 c-237 432 -564 794 -953 1053 -105 70 -106 70 -116 59z"
       id="path720"
       style="fill:#0066ff" />
    <path
       d="M491 3655 c-79 -115 -101 -165 -101 -232 0 -55 17 -88 92 -181 32 -41 64 -88 72 -105 10 -25 26 -37 72 -56 176 -71 433 -232 609 -383 218 -186 415 -430 563 -695 25 -46 48 -81 50 -78 6 6 -43 152 -100 294 -178 450 -445 858 -783 1196 -107 107 -267 247 -357 312 l-45 32 -72 -104z"
       id="path722"
       style="fill:#00ccff" />
    <path
       d="M446 3173 c-15 -80 -16 -115 -6 -178 6 -39 15 -74 20 -79 12 -12 70 110 70 147 0 36 -54 137 -73 137 -3 0 -8 -12 -11 -27z"
       id="path724"
       style="fill:#6666ff" />
    <path
       d="M567 3030 c-7 -33 -23 -67 -87 -184 -54 -98 -58 -161 -18 -241 27 -53 194 -243 216 -244 6 -1 12 0 12 2 0 1 -7 34 -15 72 -33 156 -11 338 55 471 l37 73 -84 40 c-46 23 -90 41 -97 41 -8 0 -16 -13 -19 -30z"
       id="path726"
       style="fill:#0066ff" />
    <path
       d="M762 2898 c-67 -137 -86 -277 -59 -431 9 -49 18 -91 21 -94 3 -3 30 -2 59 1 l55 7 5 122 c5 136 23 200 82 300 19 32 35 60 35 62 0 4 -155 95 -162 95 -3 0 -19 -28 -36 -62z"
       id="path728"
       style="fill:#0099ff" />
    <path
       d="M950 2784 c-50 -82 -80 -198 -80 -305 0 -48 3 -90 8 -92 4 -3 32 -6 62 -8 l55 -4 8 70 c8 78 47 170 102 245 l35 48 -70 51 c-38 28 -73 51 -78 51 -4 0 -23 -25 -42 -56z"
       id="path730"
       style="fill:#0066ff" />
    <path
       d="M1591 2814 c-17 -14 -38 -38 -45 -53 -13 -24 -10 -32 38 -117 l51 -91 43 48 43 48 -40 93 c-21 51 -43 94 -49 96 -5 1 -24 -9 -41 -24z"
       id="path732"
       style="fill:#0099ff" />
    <path
       d="M4285 2809 c-293 -22 -664 -122 -959 -258 l-88 -41 31 -35 c17 -19 38 -50 47 -68 9 -17 17 -33 19 -34 1 -2 55 15 121 37 293 99 673 170 915 170 72 0 89 3 104 19 9 11 62 50 116 86 99 67 125 94 115 121 -4 11 -35 14 -163 13 -87 -1 -203 -5 -258 -10z"
       id="path734"
       style="fill:#0066ff" />
    <path
       d="M1132 2676 c-58 -66 -107 -203 -100 -277 3 -30 7 -33 68 -50 36 -10 68 -18 72 -19 3 0 9 18 13 39 8 51 54 147 91 190 l28 34 -64 58 c-36 32 -68 59 -71 59 -4 0 -20 -15 -37 -34z"
       id="path736"
       style="fill:#0099ff" />
    <path
       d="M1696 2579 c-42 -49 -41 -66 7 -169 55 -119 87 -199 148 -370 53 -150 58 -146 29 24 -32 190 -131 546 -151 546 -4 0 -19 -14 -33 -31z"
       id="path738"
       style="fill:#0099ff" />
    <path
       d="M1286 2524 c-32 -44 -76 -153 -76 -191 0 -11 134 -83 156 -83 2 0 4 10 4 23 0 26 44 124 68 150 15 17 12 22 -50 84 l-66 66 -36 -49z"
       id="path740"
       style="fill:#0066ff" />
    <path
       d="M4200 2539 c-263 -27 -659 -121 -875 -207 -332 -133 -623 -294 -897 -500 -48 -36 -86 -67 -85 -69 2 -2 65 26 139 61 239 114 516 197 771 231 218 28 599 15 764 -27 38 -9 50 -7 105 16 35 14 100 37 146 51 149 47 182 106 182 327 l0 128 -82 -1 c-46 -1 -121 -6 -168 -10z"
       id="path742"
       style="fill:#00ccff" />
    <path
       d="M3137 2458 c-49 -27 -57 -35 -52 -52 4 -12 12 -43 18 -71 6 -27 11 -51 12 -52 2 -4 169 68 178 76 16 16 -60 131 -86 131 -7 0 -38 -15 -70 -32z"
       id="path744"
       style="fill:#0099ff" />
    <path
       d="M540 2377 c0 -69 21 -140 61 -202 28 -44 33 -48 40 -30 11 29 11 139 -1 170 -12 32 -67 102 -86 109 -11 4 -14 -7 -14 -47z"
       id="path746"
       style="fill:#6666ff" />
    <path
       d="M1446 2385 c-23 -36 -46 -102 -46 -134 0 -21 12 -34 58 -63 l57 -37 12 45 c6 24 19 56 28 70 16 25 16 27 -28 82 -24 31 -48 57 -54 59 -6 2 -18 -8 -27 -22z"
       id="path748"
       style="fill:#0099ff" />
    <path
       d="M2952 2348 l-81 -53 6 -60 c3 -33 7 -61 8 -63 7 -8 178 84 187 101 13 26 -7 127 -26 127 -7 0 -49 -24 -94 -52z"
       id="path750"
       style="fill:#0099ff" />
    <path
       d="M805 2344 c-16 -2 -48 -7 -71 -9 l-41 -6 -6 -127 c-4 -74 -3 -142 3 -162 14 -47 55 -88 125 -122 l60 -29 245 2 c150 1 262 -2 290 -9 164 -40 322 -123 427 -225 l52 -51 15 34 c17 40 16 41 -100 180 -96 115 -213 230 -308 301 -100 76 -274 161 -393 193 -90 24 -236 38 -298 30z"
       id="path752"
       style="fill:#9999ff" />
    <path
       d="M2720 2183 c-117 -90 -346 -305 -403 -377 -29 -37 -23 -34 68 35 116 88 279 198 381 257 77 45 84 54 84 110 0 71 -9 69 -130 -25z"
       id="path754"
       style="fill:#0099ff" />
    <path
       d="M1572 2235 c-7 -14 -15 -43 -18 -63 -6 -38 -5 -39 145 -190 l152 -153 -41 81 c-62 123 -204 350 -220 350 -4 0 -12 -11 -18 -25z"
       id="path756"
       style="fill:#0066ff" />
    <path
       d="M2108 2030 c-76 -41 -95 -97 -58 -170 25 -49 48 -56 99 -31 45 24 71 55 71 88 0 48 -45 134 -69 133 -3 -1 -22 -10 -43 -20z"
       id="path758"
       style="fill:#330066" />
    <path
       d="M4201 2031 c-110 -38 -137 -79 -152 -232 -6 -55 -8 -103 -6 -106 20 -19 150 93 182 157 27 53 52 177 39 190 -5 5 -33 1 -63 -9z"
       id="path760"
       style="fill:#6666ff" />
    <path
       d="M3400 1962 c0 -91 -19 -172 -57 -245 -15 -28 -29 -55 -31 -58 -4 -8 86 -59 102 -59 17 1 72 79 105 150 39 83 61 170 61 237 l0 53 -90 0 -90 0 0 -78z"
       id="path762"
       style="fill:#0066ff" />
    <path
       d="M3617 2033 c-4 -3 -7 -28 -7 -54 0 -107 -53 -254 -129 -354 l-38 -51 63 -57 63 -58 53 15 c29 8 76 18 103 21 66 8 131 32 182 67 62 42 89 107 102 247 6 62 18 127 26 144 8 17 13 33 10 35 -3 3 -69 16 -148 29 -139 22 -267 30 -280 16z"
       id="path764"
       style="fill:#0099ff" />
    <path
       d="M3270 2025 c-8 -2 -31 -6 -50 -9 l-35 -6 -1 -82 c0 -64 -6 -97 -26 -145 l-25 -61 71 -26 c46 -16 74 -22 82 -15 20 16 64 125 75 183 5 31 9 80 7 109 l-3 52 -40 2 c-22 0 -47 0 -55 -2z"
       id="path766"
       style="fill:#0099ff" />
    <path
       d="M3042 1986 c-29 -8 -55 -16 -59 -20 -3 -3 -8 -30 -9 -60 -2 -29 -11 -72 -20 -96 -20 -50 -16 -55 61 -64 29 -3 60 -9 69 -12 33 -13 85 159 70 235 -7 36 -23 38 -112 17z"
       id="path768"
       style="fill:#0066ff" />
    <path
       d="M2860 1937 c-55 -19 -65 -26 -68 -47 -1 -14 -10 -44 -18 -68 -9 -24 -15 -45 -13 -47 2 -1 35 -5 74 -6 l69 -4 18 45 c17 45 25 151 11 149 -5 0 -37 -10 -73 -22z"
       id="path770"
       style="fill:#0099ff" />
    <path
       d="M2650 1864 c-102 -40 -353 -165 -346 -171 3 -3 54 7 114 21 60 14 151 32 203 39 93 12 94 12 111 47 26 53 34 100 17 99 -8 0 -52 -16 -99 -35z"
       id="path772"
       style="fill:#0066ff" />
    <path
       d="M2022 1774 c-12 -8 -32 -34 -43 -57 l-21 -41 22 -18 c23 -19 81 -38 116 -38 42 0 48 107 9 145 -28 29 -51 31 -83 9z"
       id="path774"
       style="fill:#330033" />
    <path
       d="M1441 1752 c-10 -7 -12 -24 -9 -61 3 -28 7 -53 9 -55 2 -3 42 0 89 6 63 9 109 8 179 -1 52 -6 96 -9 98 -7 2 2 -34 29 -80 60 l-85 56 -93 6 c-53 3 -100 1 -108 -4z"
       id="path776"
       style="fill:#00ccff" />
    <path
       d="M1293 1741 c-24 -4 -46 -10 -50 -14 -8 -8 13 -127 24 -138 4 -4 39 3 76 14 59 19 67 25 63 42 -3 11 -6 39 -6 63 0 41 -1 42 -32 41 -18 -1 -52 -5 -75 -8z"
       id="path778"
       style="fill:#6699cc" />
    <path
       d="M2635 1724 c-89 -13 -283 -58 -374 -87 -101 -31 -105 -34 -113 -66 -5 -18 -8 -35 -6 -37 2 -1 24 2 48 7 26 6 101 9 175 6 230 -9 351 -55 560 -212 205 -154 312 -193 409 -145 46 22 61 39 139 159 23 36 46 70 52 77 21 29 -128 149 -260 210 -138 64 -247 86 -435 89 -91 2 -178 1 -195 -1z"
       id="path780"
       style="fill:#9999ff" />
    <path
       d="M1130 1708 c-19 -5 -52 -14 -72 -19 -31 -8 -38 -14 -38 -35 0 -33 52 -164 65 -164 25 1 150 79 146 91 -2 8 -8 42 -14 77 -12 68 -16 70 -87 50z"
       id="path782"
       style="fill:#00ccff" />
    <path
       d="M885 1631 l-70 -27 2 -43 c2 -40 44 -144 74 -184 13 -16 19 -14 84 33 39 28 71 54 73 59 2 6 -5 25 -14 43 -10 18 -25 58 -34 88 -9 31 -22 56 -31 57 -8 1 -45 -10 -84 -26z"
       id="path784"
       style="fill:#6699cc" />
    <path
       d="M1936 1614 c-14 -36 -6 -111 15 -138 25 -31 43 -33 87 -6 32 20 76 95 66 112 -3 4 -20 8 -37 8 -18 0 -52 9 -76 20 -52 24 -47 24 -55 4z"
       id="path786"
       style="fill:#330033" />
    <path
       d="M1520 1610 c-218 -27 -439 -139 -663 -334 -81 -71 -82 -73 -83 -122 -1 -27 -11 -74 -23 -104 -12 -30 -21 -58 -21 -62 0 -4 26 5 58 20 38 17 75 26 113 27 l55 1 78 87 c191 215 470 398 693 454 59 14 64 18 41 24 -47 12 -181 17 -248 9z"
       id="path788"
       style="fill:#3366cc" />
    <path
       d="M675 1534 c-44 -25 -84 -49 -89 -54 -20 -20 130 -250 164 -250 8 1 41 25 72 55 l57 54 -33 55 c-18 30 -42 85 -52 121 -10 36 -23 65 -29 65 -5 0 -46 -21 -90 -46z"
       id="path790"
       style="fill:#00ccff" />
    <path
       d="M1722 1544 c-64 -17 -189 -68 -220 -90 -21 -14 -21 -17 -7 -44 8 -16 19 -32 25 -35 5 -3 39 15 75 42 36 26 102 69 147 95 88 51 83 60 -20 32z"
       id="path792"
       style="fill:#9999cc" />
    <path
       d="M1701 1453 c-112 -70 -263 -209 -343 -317 -32 -43 -81 -124 -108 -180 l-51 -101 20 -38 c11 -22 23 -63 27 -93 9 -75 20 -63 106 115 120 251 244 439 392 599 37 39 64 72 59 72 -5 0 -51 -26 -102 -57z"
       id="path794"
       style="fill:#333399" />
    <path
       d="M2287 1467 c89 -48 138 -81 196 -136 l39 -36 39 44 c37 41 38 45 23 62 -9 10 -46 38 -82 61 l-66 43 -115 3 -116 2 82 -43z"
       id="path796"
       style="fill:#00ccff" />
    <path
       d="M2220 1454 c0 -3 14 -19 31 -37 47 -49 136 -188 179 -280 74 -161 120 -325 143 -512 11 -87 16 -101 36 -111 36 -18 78 -63 103 -110 24 -45 38 -56 38 -29 0 27 41 138 60 166 19 26 19 27 -10 135 -99 376 -265 625 -500 748 -68 36 -80 41 -80 30z"
       id="path798"
       style="fill:#3366cc" />
    <path
       d="M3655 1440 c-60 -15 -75 -24 -110 -63 -22 -24 -53 -68 -68 -96 l-28 -51 61 0 c71 0 142 31 183 80 27 32 61 126 51 141 -6 11 -3 11 -89 -11z"
       id="path800"
       style="fill:#6666ff" />
    <path
       d="M490 1404 c-66 -62 -86 -105 -71 -155 6 -21 16 -41 20 -44 5 -3 35 2 67 10 32 8 84 15 116 15 32 0 58 3 58 8 0 4 -20 35 -43 68 -24 34 -51 80 -61 103 -11 22 -23 41 -28 41 -5 0 -31 -20 -58 -46z"
       id="path802"
       style="fill:#6699cc" />
    <path
       d="M2170 1447 c0 -4 18 -43 40 -87 22 -43 51 -112 64 -152 27 -80 45 -93 86 -60 22 18 22 19 5 53 -33 62 -112 173 -154 214 -23 21 -41 36 -41 32z"
       id="path804"
       style="fill:#9999cc" />
    <path
       d="M1373 1379 c-35 -23 -63 -45 -63 -50 0 -13 70 -89 82 -89 5 0 31 24 58 52 l48 53 -22 37 c-11 21 -25 38 -31 38 -5 0 -38 -19 -72 -41z"
       id="path806"
       style="fill:#0033ff" />
    <path
       d="M1900 1391 c-19 -11 -46 -30 -59 -44 l-23 -26 53 -26 c31 -16 77 -29 110 -32 l57 -6 -7 34 c-14 64 -52 119 -80 119 -9 -1 -32 -9 -51 -19z"
       id="path808"
       style="fill:#993300" />
    <path
       d="M2150 1395 c0 -6 5 -37 10 -70 33 -198 29 -493 -10 -717 -18 -105 -26 -208 -15 -208 2 0 25 23 51 50 26 28 57 53 69 56 30 8 45 80 52 251 8 193 -24 364 -99 538 -31 71 -58 118 -58 100z"
       id="path810"
       style="fill:#333399" />
    <path
       d="M2586 1320 l-38 -50 42 -55 c23 -30 46 -55 50 -55 11 0 100 89 100 99 0 8 -105 111 -112 111 -2 0 -21 -23 -42 -50z"
       id="path812"
       style="fill:#6699cc" />
    <path
       d="M1203 1248 c-40 -35 -72 -68 -72 -73 -2 -19 109 -115 131 -115 3 0 20 20 37 44 16 25 40 58 52 75 l22 31 -41 42 c-23 23 -42 46 -42 50 0 17 -19 5 -87 -54z"
       id="path814"
       style="fill:#9999cc" />
    <path
       d="M1774 1254 c-8 -20 -14 -43 -12 -52 7 -37 243 -104 261 -75 4 6 9 28 13 50 l6 40 -67 11 c-38 6 -91 23 -120 37 -29 14 -55 25 -59 25 -4 0 -14 -16 -22 -36z"
       id="path816"
       style="fill:#993300" />
    <path
       d="M2708 1180 c-27 -26 -48 -52 -48 -57 0 -20 72 -143 84 -143 14 0 70 36 127 82 l33 27 -24 28 c-63 72 -105 113 -115 111 -5 -1 -31 -22 -57 -48z"
       id="path818"
       style="fill:#00ccff" />
    <path
       d="M560 1193 c-14 -2 -42 -9 -63 -14 l-38 -10 33 -46 c39 -53 157 -183 167 -183 18 0 81 165 81 211 0 18 -7 32 -19 39 -19 10 -111 12 -161 3z"
       id="path820"
       style="fill:#9966cc" />
    <path
       d="M1743 1144 c-17 -46 27 -193 65 -213 30 -16 115 30 157 87 19 24 35 48 35 52 0 5 -33 15 -72 24 -40 9 -97 27 -126 41 -45 21 -54 22 -59 9z"
       id="path822"
       style="fill:#993300" />
    <path
       d="M1036 1079 c-52 -56 -56 -64 -49 -93 9 -40 9 -66 0 -145 l-8 -63 31 22 c18 13 61 33 97 45 l65 21 38 81 38 81 -53 36 c-29 20 -61 46 -70 56 -10 11 -21 20 -25 20 -5 0 -33 -28 -64 -61z"
       id="path824"
       style="fill:#0033ff" />
    <path
       d="M2348 1109 c-21 -11 -38 -22 -37 -27 0 -4 6 -36 13 -72 l13 -65 34 3 c59 4 91 22 85 47 -10 38 -55 135 -63 134 -5 -1 -25 -10 -45 -20z"
       id="path826"
       style="fill:#0033ff" />
    <path
       d="M2865 1019 c-27 -22 -63 -47 -80 -56 -16 -8 -31 -17 -33 -18 -4 -4 49 -158 58 -168 18 -21 210 100 210 132 0 16 -89 151 -99 150 -3 0 -28 -18 -56 -40z"
       id="path828"
       style="fill:#6699cc" />
    <path
       d="M845 996 c-45 -14 -110 -47 -140 -71 -20 -16 -19 -17 20 -51 54 -46 181 -134 194 -134 16 0 32 67 38 156 5 77 4 82 -18 98 -27 19 -40 19 -94 2z"
       id="path830"
       style="fill:#9966cc" />
    <path
       d="M2398 922 l-58 -16 0 -93 0 -93 53 0 c88 0 127 10 127 32 0 39 -43 188 -54 187 -6 -1 -37 -9 -68 -17z"
       id="path832"
       style="fill:#9999cc" />
    <path
       d="M2995 838 c-28 -23 -78 -54 -112 -70 -35 -17 -63 -31 -63 -33 0 -12 40 -158 44 -163 19 -19 276 85 276 111 0 12 -69 159 -87 184 -6 8 -23 -1 -58 -29z"
       id="path834"
       style="fill:#00ccff" />
    <path
       d="M1064 791 c-33 -17 -71 -42 -84 -56 l-23 -25 69 -32 c51 -24 83 -33 124 -33 l55 0 3 60 c5 115 -36 139 -144 86z"
       id="path836"
       style="fill:#9966cc" />
    <path
       d="M2414 693 l-72 -4 -16 -90 -17 -90 35 -41 c19 -22 44 -60 55 -84 12 -24 23 -44 25 -44 2 0 18 29 35 64 17 36 46 76 63 91 30 26 30 26 24 98 -9 97 -13 107 -39 105 -12 -1 -54 -4 -93 -5z"
       id="path838"
       style="fill:#0033ff" />
    <path
       d="M3085 610 c-27 -16 -73 -36 -102 -45 -29 -9 -53 -20 -53 -25 0 -4 18 -20 41 -36 23 -15 63 -52 89 -82 l48 -54 39 35 c37 34 38 38 37 99 0 70 -19 139 -37 137 -7 -1 -34 -14 -62 -29z"
       id="path840"
       style="fill:#6699cc" />
    <path
       d="M2819 485 c-22 -50 -55 -193 -46 -202 14 -14 287 63 287 81 0 14 -92 104 -136 134 -16 11 -42 24 -57 27 -25 7 -29 3 -48 -40z"
       id="path842"
       style="fill:#9966cc" />
    <path
       d="M2548 479 c-24 -13 -64 -83 -88 -153 -17 -50 -17 -58 -4 -63 20 -7 262 2 271 11 20 20 -63 168 -111 197 -35 21 -44 22 -68 8z"
       id="path844"
       style="fill:#9966cc" />
    <path
       d="M2244 461 c-38 -23 -88 -96 -80 -116 14 -38 236 -101 236 -67 0 26 -43 125 -67 152 -38 46 -55 52 -89 31z"
       id="path846"
       style="fill:#9966cc" />
  </g>
</svg>
