<?xml version="1.0" encoding="UTF-8" standalone="no"?>
<svg
   xmlns:dc="http://purl.org/dc/elements/1.1/"
   xmlns:cc="http://creativecommons.org/ns#"
   xmlns:rdf="http://www.w3.org/1999/02/22-rdf-syntax-ns#"
   xmlns:svg="http://www.w3.org/2000/svg"
   xmlns="http://www.w3.org/2000/svg"
   xmlns:sodipodi="http://sodipodi.sourceforge.net/DTD/sodipodi-0.dtd"
   xmlns:inkscape="http://www.inkscape.org/namespaces/inkscape"
   version="1.0"
   width="1024.000000pt"
   height="1024.000000pt"
   viewBox="0 0 1024.000000 1024.000000"
   preserveAspectRatio="xMidYMid meet"
   id="svg2"
   inkscape:version="0.91 r13725"
   sodipodi:docname="UNADJUSTEDNONRAW_thumb_840.svg">
  <defs
     id="defs596" />
  <sodipodi:namedview
     pagecolor="#ffffff"
     bordercolor="#666666"
     borderopacity="1"
     objecttolerance="10"
     gridtolerance="10"
     guidetolerance="10"
     inkscape:pageopacity="0"
     inkscape:pageshadow="2"
     inkscape:window-width="1440"
     inkscape:window-height="816"
     id="namedview594"
     showgrid="false"
     inkscape:zoom="0.4609375"
     inkscape:cx="640"
     inkscape:cy="640"
     inkscape:window-x="0"
     inkscape:window-y="1"
     inkscape:window-maximized="1"
     inkscape:current-layer="svg2" />
  <metadata
     id="metadata4">
Created by potrace 1.14, written by Peter Selinger 2001-2017
<rdf:RDF>
  <cc:Work
     rdf:about="">
    <dc:format>image/svg+xml</dc:format>
    <dc:type
       rdf:resource="http://purl.org/dc/dcmitype/StillImage" />
  </cc:Work>
</rdf:RDF>
</metadata>
  <g
     transform="translate(0.000000,1024.000000) scale(0.100000,-0.100000)"
     fill="#000000"
     stroke="none"
     id="g6">
    <path
       d="M0 5120 l0 -5120 1791 0 c1637 0 1791 1 1785 16 -3 9 -9 143 -12 297 -7 313 12 714 43 919 16 109 16 119 1 130 -17 13 -68 183 -68 226 0 13 -6 22 -15 22 -8 0 -15 2 -15 4 0 3 -20 69 -44 148 -155 501 -247 967 -303 1533 -26 261 -26 908 0 1080 56 370 162 785 264 1028 72 171 208 372 305 449 30 24 38 36 34 53 -9 36 12 90 69 176 30 46 56 88 56 94 1 5 3 93 4 195 2 205 9 235 54 251 l30 11 -52 68 c-29 38 -65 94 -81 126 l-29 57 -14 -27 c-19 -37 -27 -26 -33 47 l-5 62 -18 -32 c-10 -18 -22 -33 -27 -33 -6 0 -10 33 -11 73 0 59 -2 68 -11 50 -6 -13 -18 -23 -26 -23 -12 0 -13 13 -8 78 4 42 9 86 11 97 3 11 -3 3 -12 -17 -8 -21 -20 -38 -24 -38 -14 0 -11 62 6 116 8 27 15 50 15 52 0 1 -14 -5 -31 -13 -17 -9 -33 -14 -36 -11 -9 9 26 59 73 101 l43 40 20 180 c11 99 28 202 37 228 18 54 13 69 -15 43 -42 -38 -38 -7 9 73 27 47 48 86 46 88 -2 2 -15 -1 -29 -6 -42 -16 -40 3 4 60 23 28 37 49 31 45 -6 -3 -13 -2 -16 3 -7 10 111 108 186 156 27 17 48 33 48 36 0 3 -18 14 -40 24 -22 10 -45 24 -51 32 -6 7 -20 13 -30 13 -10 0 -26 14 -36 30 -9 17 -24 30 -32 30 -34 0 -63 54 -86 162 -3 19 -10 26 -20 22 -12 -5 -15 3 -15 42 0 27 4 66 9 87 7 29 6 37 -5 37 -18 0 -18 1 11 82 30 83 84 171 120 194 l27 17 -23 12 c-22 12 -22 13 20 43 25 18 36 32 29 35 -29 11 194 87 254 87 10 0 18 7 18 16 0 12 5 14 18 9 9 -4 25 -7 36 -7 10 1 34 -10 53 -23 20 -13 41 -21 48 -19 17 7 75 -63 108 -128 29 -58 57 -155 58 -203 0 -16 3 -24 6 -17 9 23 23 12 23 -17 0 -17 5 -33 10 -36 12 -8 13 -77 1 -127 -5 -21 -6 -38 -3 -38 12 0 144 78 230 137 98 67 122 75 122 43 0 -19 3 -19 60 10 70 35 80 37 80 10 0 -20 1 -20 37 5 42 28 131 60 140 51 4 -3 -7 -20 -23 -38 -23 -24 -25 -29 -9 -23 92 35 132 38 121 9 -7 -18 -3 -18 42 5 20 10 49 21 65 25 30 7 33 0 18 -51 -9 -31 -9 -31 42 -48 28 -9 95 -39 150 -67 70 -35 98 -45 93 -33 -13 36 -18 122 -7 129 6 4 11 20 11 37 0 28 19 43 21 17 0 -7 7 20 14 60 22 121 123 303 160 288 7 -2 28 6 48 19 19 13 43 24 53 23 11 0 28 3 38 7 16 7 18 5 14 -13 -5 -19 -2 -22 27 -22 47 0 165 -38 172 -56 3 -8 32 -28 63 -44 38 -19 63 -40 73 -59 14 -27 13 -30 -2 -34 -10 -2 -2 -10 27 -25 45 -24 55 -42 21 -42 -16 0 -19 -4 -14 -17 45 -104 72 -301 45 -318 -6 -3 -10 -30 -10 -58 0 -57 -16 -127 -29 -127 -5 0 -14 -14 -21 -31 -8 -18 -18 -28 -26 -25 -8 3 -18 -4 -24 -14 -6 -11 -17 -20 -25 -20 -12 0 -42 -18 -124 -76 -2 -2 22 -31 54 -66 75 -82 133 -165 185 -260 39 -72 40 -78 21 -78 -12 0 -21 -2 -21 -4 0 -2 13 -32 29 -67 36 -77 47 -119 33 -119 -7 0 -6 -13 4 -35 20 -49 19 -88 -3 -81 -17 5 -17 -2 -12 -92 4 -53 7 -107 8 -118 1 -12 15 -39 32 -60 35 -44 70 -114 63 -126 -3 -4 -19 -1 -35 8 -17 8 -33 14 -35 12 -2 -2 4 -43 13 -91 8 -47 13 -94 9 -103 -6 -15 -8 -15 -26 1 -20 18 -20 17 -20 -23 0 -26 -5 -44 -15 -50 -9 -5 -18 -29 -22 -60 -6 -55 -17 -66 -29 -30 -6 19 -10 14 -36 -37 -17 -33 -48 -82 -70 -108 -22 -27 -39 -49 -37 -50 52 -28 67 -41 83 -73 17 -34 18 -43 7 -97 -12 -57 -11 -60 10 -75 76 -53 139 -141 139 -194 0 -23 -79 -215 -102 -250 -10 -14 -18 -35 -18 -45 0 -10 -9 -36 -20 -57 l-19 -39 53 -58 c204 -220 352 -597 471 -1194 98 -498 73 -1280 -66 -2015 -31 -162 -95 -442 -124 -540 -7 -25 -23 -81 -35 -125 -43 -153 -89 -287 -103 -299 -7 -6 -20 -42 -27 -81 -15 -83 -37 -146 -57 -162 -13 -10 -13 -23 -4 -80 43 -264 60 -551 61 -990 l0 -293 1845 0 1845 0 0 5120 0 5120 -5120 0 -5120 0 0 -5120z"
       id="path8"
       style="fill:none" />
    <path
       d="M4240 9233 c0 -5 -24 -8 -58 -5 -58 4 -177 -19 -196 -38 -7 -7 -6 -10 2 -10 27 0 9 -18 -30 -30 -24 -7 -52 -18 -63 -26 -18 -13 -17 -14 18 -14 20 0 37 -3 37 -8 0 -4 -21 -18 -47 -32 -51 -27 -94 -79 -129 -158 -28 -62 -28 -62 -8 -62 12 0 14 -5 9 -17 -13 -30 -35 -116 -35 -136 0 -15 3 -17 13 -8 21 17 27 3 27 -68 1 -38 7 -77 15 -91 11 -19 14 -21 15 -7 0 33 20 17 20 -17 0 -19 5 -38 10 -41 6 -3 10 -1 10 4 0 23 19 9 30 -21 10 -25 14 -28 17 -15 6 23 23 22 23 -1 0 -25 38 -59 96 -87 l48 -23 68 61 c78 70 215 170 306 223 57 33 63 41 77 87 20 67 20 98 0 91 -10 -4 -15 0 -15 15 0 12 -4 21 -10 21 -5 0 -10 17 -10 38 0 59 -19 152 -42 207 -28 68 -64 120 -71 103 -4 -9 -14 -2 -32 20 -17 21 -33 31 -43 27 -8 -3 -23 2 -33 11 -11 10 -19 13 -19 7z m-15 -103 c10 -11 16 -20 13 -20 -3 0 -13 9 -23 20 -10 11 -16 20 -13 20 3 0 13 -9 23 -20z m56 -22 c15 -28 5 -21 -21 15 -15 20 -17 27 -6 18 9 -8 22 -23 27 -33z m69 -5 c28 -31 60 -89 60 -108 0 -18 -18 0 -28 28 -7 18 -28 52 -48 75 -19 23 -31 42 -26 42 6 0 24 -17 42 -37z m29 -173 c-1 -19 -3 -15 -10 13 -5 21 -16 51 -24 67 -8 16 -15 33 -14 37 2 20 49 -95 48 -117z m-489 -134 c-12 -12 -14 84 -2 124 5 18 8 5 10 -44 2 -39 -2 -74 -8 -80z m539 36 c1 -49 -23 -131 -34 -120 -3 3 2 22 11 44 12 28 15 57 11 104 -3 38 -1 57 4 45 4 -11 8 -44 8 -73z m-460 -83 c38 -60 36 -77 -2 -22 -35 52 -47 87 -46 136 l1 42 8 -52 c4 -30 21 -74 39 -104z m418 109 c-3 -7 -5 -2 -5 12 0 14 2 19 5 13 2 -7 2 -19 0 -25z m-422 -270 c52 -37 44 -51 -9 -18 -36 22 -96 102 -96 129 0 8 13 -6 30 -32 16 -26 50 -62 75 -79z m44 17 c31 -20 40 -35 21 -35 -18 0 -88 74 -95 100 -6 21 -3 20 18 -10 14 -19 39 -44 56 -55z m111 -5 c0 -5 26 -17 58 -27 49 -15 53 -18 28 -21 -36 -4 -84 15 -97 39 -6 13 -6 19 1 19 5 0 10 -4 10 -10z m-64 -130 c13 0 24 -4 24 -9 0 -14 -73 4 -118 29 -62 35 -51 41 14 8 31 -15 67 -28 80 -28z"
       id="path10"
       style="fill:#c0ac18" />
    <path
       d="M5980 9225 c-7 -8 -21 -13 -30 -10 -12 4 -27 -5 -45 -27 -18 -22 -28 -29 -32 -20 -7 17 -43 -35 -71 -103 -23 -55 -42 -148 -42 -207 0 -21 -4 -38 -10 -38 -5 0 -10 -9 -10 -21 0 -15 -4 -19 -16 -15 -13 5 -14 1 -8 -26 15 -70 33 -92 121 -142 120 -69 230 -154 297 -230 52 -60 60 -65 79 -55 45 24 107 81 107 100 0 24 17 25 23 2 3 -13 8 -9 17 15 8 21 17 31 26 28 10 -4 14 4 14 29 0 18 5 37 10 40 6 3 10 0 10 -7 0 -9 3 -9 10 2 5 8 10 50 10 93 0 44 4 77 10 77 30 0 -18 229 -57 273 -14 16 -15 21 -5 25 9 2 -2 14 -27 28 -26 16 -38 30 -34 39 3 10 -2 15 -16 15 -32 0 -25 20 7 21 21 0 8 10 -58 42 -47 23 -90 48 -96 56 -7 9 -34 14 -85 15 -41 1 -77 5 -80 9 -3 4 -12 1 -19 -8z m-2 -105 c-22 -30 -35 -41 -22 -17 9 16 36 47 41 47 2 0 -6 -13 -19 -30z m62 27 c0 -2 -10 -12 -22 -23 l-23 -19 19 23 c18 21 26 27 26 19z m-134 -49 c-20 -23 -41 -57 -48 -75 -10 -28 -28 -46 -28 -28 0 32 79 145 102 145 5 0 -7 -19 -26 -42z m-10 -87 c-9 -17 -20 -47 -25 -68 -6 -25 -9 -30 -10 -15 -1 24 39 126 46 118 3 -2 -3 -18 -11 -35z m463 -164 c1 -36 -3 -56 -9 -52 -5 3 -10 39 -9 78 1 87 17 64 18 -26z m-536 10 c-4 -44 -1 -73 11 -101 9 -22 14 -41 11 -44 -10 -11 -35 70 -35 115 0 43 8 93 15 93 1 0 0 -28 -2 -63z m493 -42 c-6 -32 -65 -130 -73 -122 -2 3 10 28 28 57 20 33 34 71 38 104 4 37 6 43 9 22 2 -16 1 -44 -2 -61z m-459 43 c-3 -7 -5 -2 -5 12 0 14 2 19 5 13 2 -7 2 -19 0 -25z m523 -161 c0 -25 -61 -106 -96 -127 -53 -33 -61 -19 -9 18 25 18 58 52 73 77 30 49 32 51 32 32z m-79 -39 c-9 -25 -75 -88 -91 -88 -19 0 -9 15 25 39 20 13 43 37 52 52 20 33 27 32 14 -3z m-167 -63 c-8 -19 -38 -36 -81 -46 -56 -12 -46 9 12 26 30 8 55 20 55 25 0 6 4 10 10 10 5 0 7 -7 4 -15z m186 -73 c0 -5 -19 -19 -42 -32 -45 -25 -118 -43 -118 -29 0 5 10 9 23 9 18 0 73 24 135 59 1 0 2 -3 2 -7z"
       id="path12"
       style="fill:#c0ac18" />
    <path
       d="M5080 8854 c-53 -36 -59 -36 -74 1 -2 6 -30 -3 -62 -20 -33 -16 -62 -31 -67 -33 -4 -2 -11 6 -15 17 -7 18 -12 16 -82 -31 -41 -27 -133 -84 -205 -125 -212 -123 -393 -251 -474 -337 -19 -20 -39 -36 -45 -36 -5 0 -43 -21 -83 -47 -51 -34 -71 -53 -68 -64 4 -11 -13 -33 -49 -64 -69 -60 -79 -79 -29 -59 43 18 53 11 26 -19 -11 -12 -34 -48 -52 -80 -28 -52 -30 -57 -11 -47 33 17 35 6 12 -57 -27 -74 -49 -195 -58 -314 -6 -98 -20 -169 -32 -169 -4 0 -23 -14 -42 -31 -27 -24 -29 -28 -8 -15 37 21 41 9 18 -52 -20 -53 -18 -66 6 -35 20 29 25 9 14 -58 -5 -35 -10 -75 -10 -89 l1 -25 17 28 c9 15 20 27 25 27 4 0 5 -39 2 -87 l-7 -88 21 33 c12 18 26 30 31 27 6 -3 10 -32 10 -63 0 -51 1 -54 14 -36 17 23 16 25 55 -58 17 -36 55 -97 85 -135 l53 -68 144 -1 c154 0 229 -14 342 -60 33 -13 63 -24 67 -24 4 0 -2 26 -13 58 -15 46 -18 78 -15 167 l3 110 -155 0 -155 0 -75 36 c-96 46 -137 81 -162 138 -23 53 -59 195 -87 340 -22 114 -25 121 -50 121 -15 0 -20 15 -29 92 -8 66 -8 94 -1 99 27 16 256 52 381 59 274 17 519 -12 738 -87 146 -50 223 -49 375 1 61 21 155 46 210 57 209 43 549 43 775 0 150 -28 140 -20 134 -104 -7 -104 -11 -115 -36 -119 -19 -2 -25 -13 -36 -68 -38 -182 -83 -357 -104 -399 -28 -55 -92 -106 -180 -141 -57 -23 -77 -25 -209 -25 l-147 0 9 -23 c14 -38 11 -224 -6 -277 -8 -27 -13 -51 -11 -52 4 -4 205 32 296 52 36 9 92 29 125 47 39 20 76 32 108 33 45 2 49 5 90 56 37 49 85 139 101 192 3 9 10 17 16 17 5 0 11 -8 12 -17 1 -10 4 14 8 52 6 58 8 66 16 45 7 -20 10 -11 14 50 l5 75 17 -37 c9 -21 19 -38 21 -38 6 0 -10 80 -22 113 -6 16 -11 39 -11 53 0 24 1 24 30 9 53 -27 54 -16 3 51 -35 46 -38 56 -50 159 -17 160 -17 199 3 191 13 -5 15 -1 10 21 -4 16 -19 45 -32 66 -28 43 -26 54 5 37 21 -11 21 -11 4 27 -10 21 -34 63 -55 94 -39 59 -40 79 -4 54 36 -26 38 -16 6 43 -62 117 -311 412 -413 490 -129 99 -451 276 -558 308 -72 21 -70 19 -53 59 8 20 10 35 4 35 -7 0 -65 -25 -134 -58 -5 -3 -7 7 -4 22 6 32 3 32 -74 1 -34 -14 -64 -22 -67 -19 -3 3 2 19 11 35 22 38 11 37 -52 -7z m453 -123 c26 -25 42 -48 42 -65 1 -14 9 -34 19 -45 18 -19 14 -47 -5 -35 -5 3 -7 9 -4 13 6 11 -20 34 -75 65 -49 28 -39 36 12 10 31 -16 53 -9 40 13 -4 7 -28 21 -52 32 -25 12 -34 18 -21 15 16 -4 21 -3 17 5 -4 6 -18 11 -32 11 -14 0 -22 4 -19 10 12 19 36 10 78 -29z m-896 -67 c-31 -19 -57 -40 -57 -45 0 -15 16 -10 35 11 10 11 23 20 28 20 6 0 -2 -13 -17 -29 -15 -16 -26 -37 -24 -46 2 -10 -3 -20 -9 -22 -8 -3 -13 4 -13 16 0 12 -6 21 -15 21 -22 0 -18 27 6 51 20 20 94 58 114 59 5 0 -16 -16 -48 -36z m853 -67 c0 -5 5 -5 11 -1 6 3 9 18 6 32 -5 25 -4 25 9 7 18 -24 18 -30 -2 -49 -18 -19 -48 -21 -41 -3 2 6 -2 26 -10 42 l-14 30 20 -25 c11 -14 21 -29 21 -33z m-806 18 c-8 -13 -13 -29 -9 -35 3 -5 1 -10 -4 -10 -6 0 -11 7 -11 16 0 21 19 54 31 54 5 0 2 -11 -7 -25z m772 -37 c6 -21 -13 -51 -27 -42 -5 3 -9 -3 -9 -13 0 -10 -9 -26 -20 -36 -11 -9 -20 -26 -20 -37 0 -11 -4 -20 -9 -20 -15 0 -23 18 -11 25 5 3 10 30 10 58 l1 52 14 -30 c15 -30 15 -30 11 23 -4 59 0 65 15 22 6 -16 15 -30 20 -30 15 0 10 26 -11 53 -11 14 -20 29 -20 33 0 13 49 -38 56 -58z m-745 18 c-7 -8 -11 -21 -9 -28 2 -7 -1 -13 -7 -13 -5 0 -9 9 -7 19 3 22 22 49 30 41 3 -2 -1 -11 -7 -19z m32 -23 c-3 -18 -9 -33 -14 -33 -12 0 -11 14 3 45 14 32 17 29 11 -12z m29 -28 c-4 -50 -2 -65 9 -65 10 0 10 -3 1 -12 -28 -28 -43 49 -21 111 6 17 12 31 14 31 1 0 0 -29 -3 -65z m64 23 c-17 -24 -22 -78 -8 -78 5 0 14 10 19 23 9 18 10 14 9 -25 0 -27 -3 -48 -6 -48 -12 1 -49 36 -50 50 -5 35 1 59 21 84 25 32 38 27 15 -6z m122 -49 c-13 -38 -3 -128 16 -148 24 -23 46 3 46 55 0 42 16 101 25 92 3 -3 1 -28 -5 -56 -10 -54 -4 -112 11 -112 5 0 9 14 9 31 0 33 20 122 26 116 2 -2 -1 -28 -6 -58 -13 -67 -5 -109 20 -109 14 0 17 6 13 23 -4 19 -3 20 7 5 15 -25 57 -23 70 2 6 12 15 40 20 63 8 42 8 42 9 8 1 -49 19 -27 23 29 l4 45 9 -35 9 -35 7 35 c6 34 6 33 8 -12 1 -41 -3 -49 -29 -68 -16 -11 -35 -33 -42 -48 -11 -22 -22 -28 -61 -33 -32 -3 -54 -1 -65 8 -9 7 -24 13 -33 13 -9 0 -20 7 -23 16 -5 12 -9 14 -20 5 -18 -15 -41 -5 -55 25 -14 31 -14 129 -1 155 16 29 20 23 8 -12z m382 -61 c0 -47 -11 -65 -31 -53 -6 5 -4 11 7 19 14 11 16 22 11 62 -5 33 -4 44 3 34 5 -8 10 -36 10 -62z m-440 -8 c0 -27 -4 -50 -10 -50 -11 0 -13 42 -4 78 10 35 14 26 14 -28z m240 -17 c0 -42 -3 -54 -11 -46 -11 11 -5 103 7 103 2 0 4 -26 4 -57z m41 -46 c-8 -8 -11 5 -10 49 l1 59 10 -48 c8 -35 7 -52 -1 -60z m-901 -35 c0 -5 -21 -19 -47 -31 -60 -28 -113 -71 -117 -94 -1 -9 -16 -32 -32 -50 -17 -17 -37 -41 -45 -52 -14 -20 -14 -20 16 -1 17 11 1 -9 -34 -43 -35 -34 -61 -64 -57 -68 3 -3 14 1 23 9 41 35 45 28 7 -13 -22 -24 -46 -52 -53 -62 -12 -15 -12 -17 5 -11 17 6 17 5 -3 -17 -12 -13 -27 -37 -34 -54 -10 -24 -13 -26 -17 -11 -2 10 1 23 7 29 6 6 11 20 11 30 0 10 10 33 22 50 13 18 21 39 20 48 -2 9 15 38 38 63 22 26 40 51 40 56 0 5 13 24 29 42 15 18 31 43 35 55 8 26 73 81 131 111 44 23 55 26 55 14z m1910 -124 c69 -42 157 -155 105 -134 -17 6 -21 -9 -5 -19 15 -9 12 -25 -5 -25 -8 0 -15 6 -15 14 0 8 -16 24 -36 36 -43 27 -38 36 11 20 20 -7 39 -9 42 -6 11 10 -89 100 -137 124 -25 12 -38 22 -30 22 9 0 40 -15 70 -32z m87 -211 c12 -11 28 -36 34 -56 7 -20 25 -52 40 -71 29 -35 37 -64 20 -74 -5 -3 -11 8 -15 24 -6 31 -57 91 -104 122 -15 10 -22 18 -17 18 6 0 21 -7 33 -16 40 -28 25 7 -25 60 -39 40 -42 46 -18 31 17 -9 40 -27 52 -38z m-2363 -203 c-9 -21 -19 -34 -21 -27 -5 13 26 78 33 70 2 -2 -3 -21 -12 -43z m2422 -17 c9 -16 13 -31 10 -35 -3 -3 -7 -3 -8 -1 -26 42 -45 89 -32 78 8 -7 22 -26 30 -42z m-2500 -453 c-8 -21 -15 -34 -15 -28 -1 15 20 76 25 71 2 -2 -2 -21 -10 -43z m2594 -56 c22 -49 25 -105 8 -143 -13 -28 -19 -30 -36 -13 -10 10 -11 2 -6 -35 5 -35 2 -53 -10 -71 -9 -14 -16 -42 -16 -63 0 -47 -15 -75 -29 -54 -6 10 -13 -2 -25 -41 -9 -31 -25 -66 -36 -79 -25 -31 -26 -10 0 34 12 19 23 59 27 88 7 62 22 101 23 57 0 -31 15 -45 24 -22 3 9 6 39 6 67 0 39 3 48 11 37 8 -11 9 5 6 58 -4 74 3 89 24 50 12 -22 12 -22 20 -3 12 31 9 96 -5 138 -18 50 -10 47 14 -5z m-2590 -45 c23 46 29 30 13 -38 -8 -36 -12 -73 -9 -82 6 -14 8 -14 26 2 27 25 34 15 21 -32 -6 -21 -11 -51 -11 -68 l0 -30 20 25 19 25 3 -70 c2 -42 6 -63 11 -52 4 9 10 25 14 35 4 10 9 -15 13 -59 4 -56 10 -83 24 -98 16 -17 16 -21 4 -21 -23 0 -39 24 -45 68 -4 28 -10 39 -22 38 -11 -1 -17 9 -19 32 -2 18 -12 42 -23 53 -13 13 -19 33 -19 65 0 27 -4 43 -10 39 -14 -9 -32 44 -27 78 2 15 0 30 -5 33 -4 3 -7 29 -7 57 l2 52 6 -40 7 -40 14 28z m2424 -380 c-7 -65 -49 -157 -67 -150 -7 2 -22 -5 -34 -16 -33 -29 -40 -13 -10 22 13 16 27 45 31 65 4 19 12 38 18 42 8 5 9 -2 5 -24 -4 -17 -3 -34 2 -36 10 -7 39 67 48 118 9 58 15 41 7 -21z m-2221 -163 c-7 -8 -23 24 -22 45 0 15 3 13 13 -10 7 -16 11 -32 9 -35z m44 0 c6 -16 9 -30 6 -30 -9 0 -32 34 -33 48 0 23 16 12 27 -18z"
       id="path14"
       style="fill:#947428" />
    <path
       d="M4230 7764 c-19 -2 -82 -8 -140 -14 -106 -11 -179 -24 -237 -41 -28 -9 -32 -14 -28 -37 2 -15 7 -48 10 -74 5 -38 10 -47 28 -50 24 -3 23 -1 57 -173 31 -151 75 -304 98 -334 26 -36 115 -88 192 -112 164 -52 453 2 571 108 43 38 159 206 159 230 0 18 81 206 95 222 7 7 41 15 76 18 81 7 84 4 154 -165 93 -226 177 -328 307 -375 233 -85 435 -77 578 20 83 57 108 119 173 438 19 92 26 112 45 120 23 10 29 32 34 114 l3 44 -50 14 c-91 24 -308 46 -455 47 -226 1 -421 -30 -620 -99 -41 -15 -106 -29 -145 -32 -62 -4 -83 -1 -180 30 -159 52 -217 66 -339 82 -113 15 -326 26 -386 19z m420 -97 c42 -8 106 -24 143 -36 90 -30 102 -50 101 -156 -2 -198 -114 -407 -248 -465 -65 -27 -204 -44 -310 -36 -70 5 -104 13 -157 37 -84 39 -113 69 -134 140 -23 83 -46 350 -33 396 14 51 65 97 135 122 53 19 75 20 243 17 102 -2 219 -11 260 -19z m1463 -10 c62 -31 101 -74 110 -122 9 -49 -11 -274 -32 -360 -17 -70 -24 -85 -60 -116 -22 -20 -66 -46 -97 -58 -114 -43 -340 -37 -448 13 -141 64 -246 262 -246 461 0 107 11 125 90 153 117 42 267 61 455 59 164 -2 172 -3 228 -30z m-2118 -42 l0 -30 -67 -3 -68 -3 0 36 0 36 68 -3 67 -3 0 -30z m2380 0 l0 -30 -70 0 c-59 0 -70 3 -73 18 -8 41 4 48 75 45 l68 -3 0 -30z"
       id="path16"
       style="fill:#ac68c4" />
    <path
       d="M4207 7660 c-72 -9 -143 -52 -169 -101 -17 -34 -18 -46 -8 -150 12 -125 33 -249 49 -291 22 -59 136 -113 261 -125 l55 -6 -31 34 c-55 59 -69 96 -68 179 1 85 18 127 88 220 28 38 45 73 53 113 7 32 19 72 27 89 9 17 13 34 10 39 -6 11 -183 10 -267 -1z m117 -184 c-32 -28 -96 -86 -142 -130 -85 -80 -128 -99 -56 -25 78 82 237 218 247 212 6 -3 -16 -29 -49 -57z m16 -49 c0 -1 -52 -56 -116 -121 -120 -123 -165 -151 -75 -47 83 96 191 191 191 168z"
       id="path18"
       style="fill:#683c3c" />
    <path
       d="M4498 7638 c-26 -43 -38 -79 -38 -118 0 -29 -8 -48 -28 -72 -76 -88 -122 -185 -122 -257 0 -75 73 -181 133 -196 28 -7 165 21 194 40 33 22 49 60 62 145 14 89 35 128 82 154 l34 19 3 101 c1 58 -3 113 -9 128 -12 30 -25 35 -157 63 -104 21 -137 20 -154 -7z m202 -57 c44 -23 82 -93 78 -141 -2 -22 -8 -34 -16 -32 -7 1 -26 -5 -42 -13 -56 -29 -132 -13 -179 38 -13 15 -28 24 -32 21 -16 -10 -9 20 14 61 26 46 79 85 116 85 15 0 42 -8 61 -19z"
       id="path20"
       style="fill:#3c0054" />
    <path
       d="M4600 7562 c-20 -9 -44 -33 -55 -54 -19 -36 -19 -37 0 -58 44 -49 101 -61 176 -38 35 10 38 14 32 37 -24 104 -84 148 -153 113z m97 -24 c33 -30 31 -80 -3 -107 -15 -12 -34 -21 -44 -21 -10 0 -29 9 -44 21 -33 26 -35 73 -4 106 27 29 65 29 95 1z"
       id="path22"
       style="fill:#3c0050" />
    <path
       d="M4657 7533 c-12 -12 -7 -31 10 -37 25 -10 36 8 15 27 -10 9 -22 14 -25 10z"
       id="path24"
       style="fill:#cca0d8" />
    <path
       d="M4613 7519 c-19 -19 -16 -53 5 -72 23 -21 46 -22 62 -2 14 17 15 17 -22 32 -14 7 -28 21 -30 33 -2 17 -5 19 -15 9z"
       id="path26"
       style="fill:#cca0d8" />
    <path
       d="M4836 7461 l1 -128 -32 -12 c-48 -17 -61 -38 -80 -126 -9 -44 -19 -88 -22 -97 -9 -34 17 -18 58 37 63 83 99 187 106 303 5 92 -5 152 -24 152 -5 0 -8 -58 -7 -129z"
       id="path28"
       style="fill:#643440" />
    <path
       d="M5763 7664 c-8 -4 -6 -17 8 -49 10 -24 22 -65 26 -91 5 -37 17 -62 55 -108 111 -138 117 -290 16 -398 l-29 -31 58 6 c126 12 231 66 259 133 18 42 44 236 47 344 2 96 -13 122 -95 163 -52 27 -67 29 -195 33 -76 2 -143 1 -150 -2z m385 -93 c-3 -9 -227 -167 -245 -173 -4 -2 -10 0 -13 4 -5 7 238 178 253 178 5 0 7 -4 5 -9z m36 -50 c5 -8 -233 -181 -249 -181 -21 0 13 30 120 105 137 96 122 88 129 76z"
       id="path30"
       style="fill:#683c3c" />
    <path
       d="M5625 7655 c-5 -2 -46 -11 -90 -21 -121 -26 -124 -31 -117 -216 2 -64 3 -67 36 -86 45 -27 65 -67 82 -166 22 -125 41 -142 182 -166 61 -10 76 -10 95 3 101 66 132 189 79 310 -10 23 -39 67 -64 98 -35 42 -46 66 -50 102 -3 25 -16 68 -29 94 -23 46 -26 48 -69 50 -25 1 -49 0 -55 -2z m52 -87 c37 -34 83 -132 54 -114 -4 3 -19 -6 -32 -21 -47 -51 -123 -67 -179 -38 -16 8 -35 14 -42 13 -17 -4 -22 39 -9 83 12 38 52 85 86 100 33 14 95 3 122 -23z"
       id="path32"
       style="fill:#3c0054" />
    <path
       d="M5560 7562 c-34 -17 -61 -58 -74 -113 -5 -23 -2 -27 33 -37 75 -23 132 -11 175 37 18 20 19 23 3 56 -29 60 -85 84 -137 57z m77 -24 c33 -30 31 -80 -3 -107 -15 -12 -34 -21 -44 -21 -10 0 -29 9 -44 21 -33 26 -35 73 -4 106 27 29 65 29 95 1z"
       id="path34"
       style="fill:#3c0050" />
    <path
       d="M5556 7521 c-10 -11 -13 -22 -8 -25 15 -9 42 4 42 19 0 23 -16 26 -34 6z"
       id="path36"
       style="fill:#cca0d8" />
    <path
       d="M5610 7511 c0 -14 -10 -26 -27 -33 -38 -16 -37 -16 -23 -33 17 -20 43 -19 63 3 21 23 22 56 2 72 -13 10 -15 9 -15 -9z"
       id="path38"
       style="fill:#cca0d8" />
    <path
       d="M5370 7564 c-22 -57 -6 -205 32 -304 23 -58 103 -180 119 -180 5 0 9 1 9 3 0 1 -9 45 -19 97 -17 84 -23 98 -52 123 -18 15 -40 27 -49 27 -14 0 -16 17 -16 130 1 128 -5 154 -24 104z"
       id="path40"
       style="fill:#643440" />
    <path
       d="M3898 7613 c18 -2 45 -2 60 0 15 2 0 4 -33 4 -33 0 -45 -2 -27 -4z"
       id="path42" />
    <path
       d="M6283 7613 c15 -2 39 -2 55 0 15 2 2 4 -28 4 -30 0 -43 -2 -27 -4z"
       id="path44" />
    <path
       d="M5056 7475 c-17 -18 -43 -72 -88 -188 -55 -143 -168 -285 -258 -324 -19 -8 -56 -21 -82 -29 -94 -29 -108 -89 -63 -269 7 -29 7 -29 -8 -10 -16 19 -16 19 -8 -11 11 -40 36 -88 53 -101 16 -12 115 -39 178 -47 66 -10 202 -44 243 -61 45 -19 68 -19 42 -1 -11 7 -58 25 -103 40 -106 33 -118 40 -137 76 -22 43 -19 94 8 125 33 39 86 43 178 11 90 -31 139 -32 198 -6 77 35 197 21 215 -25 10 -27 7 -82 -6 -110 -14 -30 -43 -48 -108 -65 -47 -12 -170 -76 -170 -88 0 -4 17 -14 38 -23 35 -15 42 -14 137 13 127 37 335 129 357 160 26 34 41 130 36 235 -5 109 -20 133 -96 153 -104 28 -165 70 -236 161 -58 73 -89 132 -140 263 -51 129 -57 136 -116 136 -30 0 -54 -6 -64 -15z m10 -109 c-9 -60 -54 -150 -115 -229 -29 -38 -59 -84 -67 -104 -9 -19 -18 -33 -21 -30 -9 9 36 94 79 148 48 62 93 155 110 228 13 61 23 52 14 -13z m213 -222 c55 -79 43 -92 -13 -15 -42 57 -72 131 -80 197 -6 43 -4 40 18 -30 16 -52 41 -103 75 -152z m-100 91 c0 -20 0 -20 -14 -1 -8 11 -15 38 -14 60 l1 41 13 -40 c8 -22 14 -49 14 -60z m-78 -53 c-9 -15 -10 -14 -11 8 0 14 4 50 8 80 l7 55 3 -63 c2 -34 -2 -70 -7 -80z m190 15 c7 -18 21 -44 31 -59 22 -32 10 -38 -16 -9 -23 26 -63 129 -43 112 8 -6 21 -26 28 -44z m-404 -247 c-14 -16 -28 -43 -32 -60 -8 -36 -25 -40 -25 -5 0 13 14 40 31 60 38 42 61 48 26 5z m494 -62 c5 -10 7 -33 4 -52 -5 -25 -1 -45 19 -82 14 -26 23 -50 20 -53 -8 -8 -69 72 -66 86 2 7 -2 13 -8 13 -5 0 -10 5 -10 11 0 5 5 7 10 4 6 -3 10 -2 10 4 0 5 -4 13 -10 16 -18 11 -11 23 10 18 29 -8 25 14 -10 49 -16 16 -30 32 -30 34 0 10 52 -30 61 -48z m-506 -32 c-27 -46 -25 -62 2 -28 8 9 11 10 7 2 -5 -8 -11 -33 -14 -55 l-5 -40 -18 34 c-23 45 -22 51 14 100 39 55 49 46 14 -13z m-270 -41 c-20 -64 -19 -101 4 -174 21 -69 11 -74 -15 -6 -19 51 -16 173 5 213 19 36 22 21 6 -33z m1079 1 c18 -38 21 -76 6 -76 -5 0 -10 13 -10 29 0 15 -11 45 -25 65 -20 30 -22 35 -6 27 10 -6 26 -26 35 -45z m-899 -98 c0 -57 4 -113 8 -125 5 -14 4 -23 -2 -23 -27 0 -47 156 -28 223 14 52 22 26 22 -75z m702 65 c11 -44 8 -144 -6 -185 -15 -47 -33 -50 -23 -5 4 17 7 74 7 125 -1 92 8 117 22 65z m191 -100 c3 -40 1 -63 -6 -63 -5 0 -12 32 -14 73 -3 39 -8 81 -12 92 -4 11 0 7 10 -9 9 -17 19 -58 22 -93z m-1039 -45 c6 -16 7 -28 1 -28 -12 0 -30 66 -29 105 1 27 2 25 9 -10 5 -22 13 -52 19 -67z m976 -98 c-8 -16 -23 -30 -32 -30 -13 0 -12 5 7 25 17 18 25 41 29 82 l6 58 3 -52 c2 -33 -3 -63 -13 -83z"
       id="path46"
       style="fill:#b8a41c" />
    <path
       d="M4855 6665 c-28 -27 -32 -63 -11 -103 17 -33 44 -48 109 -62 27 -6 70 -21 96 -35 l48 -24 -10 50 c-14 69 4 129 38 129 14 0 29 -8 35 -19 12 -24 13 -95 1 -137 l-9 -31 65 33 c35 19 73 34 84 34 28 0 95 36 103 55 3 9 6 34 6 56 0 33 -4 41 -30 54 -40 21 -105 19 -168 -5 -69 -26 -115 -25 -204 5 -92 31 -122 32 -153 0z m116 -21 c33 -17 89 -97 89 -127 0 -18 -1 -18 -34 2 -18 12 -55 24 -80 27 -26 4 -54 13 -62 21 -21 21 -17 60 8 77 28 20 41 20 79 0z m397 -6 c36 -36 -9 -90 -102 -124 -38 -13 -71 -22 -74 -19 -9 8 31 76 69 117 38 40 82 51 107 26z"
       id="path48"
       style="fill:#e0cce8" />
    <path
       d="M4893 6614 c-8 -21 5 -31 52 -42 22 -5 48 -13 58 -17 27 -11 20 10 -14 44 -34 34 -85 42 -96 15z"
       id="path50"
       style="fill:#d0a8dc" />
    <path
       d="M5289 6611 c-33 -26 -65 -81 -47 -81 27 1 97 39 108 59 22 42 -18 56 -61 22z"
       id="path52"
       style="fill:#d0a8dc" />
    <path
       d="M6145 6628 c-33 -17 -61 -31 -62 -32 -1 -1 4 -21 12 -44 12 -34 14 -72 8 -192 l-8 -150 30 6 c53 11 153 61 164 82 6 12 11 69 11 129 0 111 -16 170 -57 215 -21 23 -27 23 -98 -14z m89 -51 c21 -56 20 -67 -6 -67 -29 1 -108 36 -108 49 0 16 71 70 85 65 7 -3 20 -24 29 -47z m-37 -82 c61 -26 67 -34 41 -62 -25 -27 -77 -57 -85 -50 -7 8 -22 78 -23 105 0 26 16 28 67 7z m63 -155 c0 -33 -4 -60 -8 -60 -16 0 -102 32 -102 38 0 15 76 82 92 82 15 0 18 -9 18 -60z"
       id="path54"
       style="fill:#f0e8f4" />
    <path
       d="M6165 6580 c-17 -19 -17 -20 16 -34 29 -12 34 -12 37 -1 4 16 -15 55 -27 55 -4 0 -16 -9 -26 -20z"
       id="path56"
       style="fill:#c08cd0" />
    <path
       d="M6154 6459 c3 -17 6 -35 6 -40 0 -15 16 -10 45 13 l27 21 -33 18 c-47 25 -52 24 -45 -12z"
       id="path58"
       style="fill:#c08cd0" />
    <path
       d="M6205 6347 l-26 -22 30 -12 c31 -11 31 -11 31 23 0 19 -2 34 -4 34 -3 0 -17 -10 -31 -23z"
       id="path60"
       style="fill:#c08cd0" />
    <path
       d="M6289 6612 c28 -56 45 -162 37 -241 -5 -42 -4 -62 3 -56 5 6 11 33 14 60 3 28 13 77 23 111 15 52 16 65 5 92 -13 32 -39 54 -79 66 l-23 8 20 -40z"
       id="path62"
       style="fill:#c088d0" />
    <path
       d="M4010 6585 c-12 -19 -30 -76 -40 -127 -19 -91 -19 -92 -15 -28 3 36 12 90 20 120 8 30 12 56 10 59 -3 2 -16 -1 -29 -7 -29 -13 -35 -37 -42 -182 l-6 -115 40 -110 c21 -60 49 -127 61 -147 20 -33 25 -36 45 -27 l22 11 -33 33 c-43 43 -46 89 -5 112 l27 16 -32 32 c-23 23 -31 39 -27 52 11 30 35 52 64 58 l27 6 -28 29 c-47 46 -35 113 21 125 26 6 30 10 24 28 -10 29 -6 67 7 83 9 11 8 14 -4 14 -21 0 -73 -61 -86 -102 -6 -18 -20 -87 -31 -153 l-20 -120 6 85 c7 115 31 218 61 258 23 30 23 32 4 32 -11 0 -28 -14 -41 -35z"
       id="path64"
       style="fill:#a04cbc" />
    <path
       d="M4147 6602 c-24 -27 -21 -65 8 -92 31 -30 24 -40 -29 -40 -23 0 -47 -5 -54 -12 -18 -18 -15 -53 6 -71 18 -16 18 -16 14 11 -7 49 49 70 129 49 41 -10 46 19 8 38 -63 33 -90 90 -57 123 7 7 8 12 2 12 -6 0 -18 -8 -27 -18z"
       id="path66"
       style="fill:#fcfcb0" />
    <path
       d="M4187 6593 c-18 -18 -5 -54 26 -73 17 -11 37 -20 43 -20 5 0 20 20 31 44 l22 44 -31 6 c-40 8 -83 8 -91 -1z"
       id="path68"
       style="fill:#fcfc18" />
    <path
       d="M4327 6568 c-34 -47 -53 -105 -82 -250 -30 -154 -32 -266 -6 -323 10 -22 23 -63 30 -92 8 -33 19 -53 29 -56 15 -4 15 -5 0 -6 -13 -1 -18 -10 -18 -28 -1 -65 -39 -176 -97 -284 -2 -4 2 -9 9 -12 7 -3 30 -12 50 -21 l38 -16 -6 30 c-8 38 1 38 77 0 48 -25 59 -35 54 -49 -4 -14 1 -20 19 -23 20 -4 28 2 44 31 58 103 70 249 34 388 -38 140 -23 370 37 576 l28 97 -21 6 c-12 3 -43 -4 -70 -15 -72 -32 -79 -29 -72 23 6 35 4 45 -9 50 -31 11 -44 6 -68 -26z m203 -70 c0 -25 -23 -143 -29 -150 -4 -4 -33 17 -66 46 l-60 54 55 25 c93 41 100 43 100 25z m-120 -114 c28 -26 50 -52 50 -58 0 -10 -105 -56 -129 -56 -14 0 -14 2 0 76 13 72 17 84 24 84 3 0 28 -21 55 -46z m48 -189 c-5 -38 -13 -74 -18 -79 -5 -5 -33 14 -64 44 -31 29 -54 56 -51 59 13 13 131 58 136 52 4 -3 3 -37 -3 -76z m-66 -87 c26 -17 48 -36 48 -42 0 -13 -116 -86 -124 -78 -3 3 -6 41 -6 85 0 90 -2 89 82 35z m62 -192 c-4 -42 -10 -76 -14 -76 -12 0 -120 81 -120 90 0 13 124 80 133 71 4 -5 5 -43 1 -85z m-33 -116 c32 -23 59 -44 59 -48 0 -4 -28 -24 -61 -45 -41 -26 -65 -35 -71 -29 -10 10 -2 162 8 162 3 0 32 -18 65 -40z m39 -137 c1 -26 -46 -143 -56 -141 -14 4 -94 96 -94 109 0 5 3 9 8 9 4 1 30 7 57 15 57 16 85 18 85 8z"
       id="path70"
       style="fill:#a04cbc" />
    <path
       d="M4458 6462 c-21 -8 -38 -18 -38 -22 0 -4 16 -20 35 -34 l34 -27 7 24 c3 14 4 35 2 49 -3 24 -4 24 -40 10z"
       id="path72"
       style="fill:#fcfc18" />
    <path
       d="M4353 6350 c-11 -57 -5 -62 49 -34 l30 16 -33 34 c-18 19 -34 34 -35 34 -1 0 -6 -22 -11 -50z"
       id="path74"
       style="fill:#fcfc18" />
    <path
       d="M4400 6232 c-19 -9 -37 -18 -39 -19 -6 -4 51 -63 60 -63 7 0 23 89 17 95 -2 1 -19 -5 -38 -13z"
       id="path76"
       style="fill:#fcfc18" />
    <path
       d="M4330 6071 c0 -28 3 -51 6 -51 4 0 22 9 41 21 37 23 35 32 -16 62 l-31 18 0 -50z"
       id="path78"
       style="fill:#fcfc18" />
    <path
       d="M4387 5951 c-15 -10 -29 -20 -32 -23 -3 -3 13 -17 35 -32 l40 -26 0 50 c0 55 -2 57 -43 31z"
       id="path80"
       style="fill:#fcfc18" />
    <path
       d="M4370 5755 c0 -25 3 -45 6 -45 8 0 74 40 74 45 0 4 -69 45 -76 45 -2 0 -4 -20 -4 -45z"
       id="path82"
       style="fill:#fcfc18" />
    <path
       d="M4388 5636 c-20 -6 -39 -14 -42 -17 -3 -3 9 -20 28 -38 l33 -32 12 47 c7 25 11 47 9 49 -2 1 -20 -3 -40 -9z"
       id="path84"
       style="fill:#fcfc18" />
    <path
       d="M5106 6578 c-9 -34 -7 -68 5 -111 13 -49 20 -42 30 31 9 64 3 102 -16 102 -7 0 -15 -10 -19 -22z"
       id="path86"
       style="fill:#d0a8dc" />
    <path
       d="M4427 6558 c-8 -30 -4 -32 39 -18 38 13 35 20 -12 34 -17 5 -23 2 -27 -16z"
       id="path88"
       style="fill:#fcfc18" />
    <path
       d="M6047 6558 c4 -13 8 -98 7 -190 0 -93 3 -168 7 -168 10 0 17 56 24 196 5 88 3 119 -9 148 -16 39 -43 52 -29 14z"
       id="path90"
       style="fill:#fcfcb0" />
    <path
       d="M5923 6557 c-93 -18 -54 -64 43 -52 60 7 66 12 57 43 -6 24 -17 25 -100 9z"
       id="path92"
       style="fill:#c08cd0" />
    <path
       d="M5810 6524 c0 -29 21 -54 45 -54 28 0 32 -12 11 -29 -36 -30 -27 -103 14 -116 23 -7 27 -25 6 -25 -21 0 -67 -60 -64 -83 5 -34 26 -31 30 5 4 47 54 78 124 78 30 0 54 5 54 10 0 6 0 13 0 16 0 4 -31 7 -68 8 -78 1 -105 16 -100 55 4 34 53 61 123 68 46 5 55 9 55 25 0 14 -5 18 -17 14 -83 -24 -160 -13 -170 24 -6 24 -43 27 -43 4z"
       id="path94"
       style="fill:#d8bce4" />
    <path
       d="M5778 6428 c3 -70 -1 -123 -11 -165 -14 -63 -14 -63 8 -63 17 0 24 7 29 32 3 18 16 42 28 55 20 21 20 24 5 41 -18 19 -21 63 -8 97 6 15 2 26 -15 42 -13 12 -24 31 -24 43 0 11 -4 20 -8 20 -5 0 -7 -46 -4 -102z"
       id="path96"
       style="fill:#f0e8f4" />
    <path
       d="M4562 6437 c-41 -151 -53 -221 -59 -357 -5 -122 -3 -142 17 -210 42 -139 26 -320 -37 -417 -14 -21 -13 -23 12 -29 32 -8 35 -4 65 66 35 85 39 209 9 346 -42 194 -28 391 43 602 23 68 23 67 -7 76 -18 5 -23 -3 -43 -77z"
       id="path98"
       style="fill:#fcfcb0" />
    <path
       d="M5704 6509 c-3 -6 -10 -59 -15 -118 -4 -58 -12 -120 -18 -138 -10 -34 -1 -43 43 -43 22 0 24 7 36 91 16 118 7 219 -20 219 -10 0 -22 -5 -26 -11z"
       id="path100"
       style="fill:#fcfcb0" />
    <path
       d="M4651 6482 c-6 -11 -24 -68 -41 -128 -51 -180 -52 -362 -4 -589 20 -96 12 -184 -28 -282 l-26 -63 65 0 c46 0 71 5 87 18 l24 17 -49 56 c-27 31 -49 61 -49 67 0 6 32 26 71 44 l71 34 -71 57 c-39 32 -71 62 -71 68 0 8 61 51 135 94 16 9 7 17 -58 55 -43 24 -77 49 -77 55 0 6 23 33 50 60 28 27 50 52 50 55 0 3 -29 28 -65 55 -36 27 -65 54 -65 61 0 15 29 38 95 77 l46 27 -46 53 c-25 28 -44 59 -43 67 2 8 18 18 36 24 32 9 44 26 18 26 -8 0 -21 3 -29 6 -9 3 -20 -2 -26 -14z m39 -127 c27 -29 23 -37 -32 -60 -35 -14 -38 -14 -38 2 0 28 23 83 35 83 6 0 22 -11 35 -25z m0 -255 c0 -7 -65 -50 -76 -50 -6 0 -5 96 2 103 7 7 74 -41 74 -53z m-9 -182 c22 -12 39 -25 39 -29 0 -10 -77 -58 -84 -52 -8 8 -8 103 0 103 4 0 24 -10 45 -22z m49 -254 c0 -4 -76 -44 -85 -44 -7 0 -6 95 1 103 6 6 84 -49 84 -59z m-50 -224 c-8 -5 -32 -10 -52 -10 -43 0 -48 12 -22 62 l16 31 36 -37 c31 -30 34 -38 22 -46z"
       id="path102"
       style="fill:#f0e8f4" />
    <path
       d="M4655 6339 c-10 -15 3 -25 16 -12 7 7 7 13 1 17 -6 3 -14 1 -17 -5z"
       id="path104"
       style="fill:none" />
    <path
       d="M4630 6106 c0 -9 5 -16 10 -16 6 0 10 4 10 9 0 6 -4 13 -10 16 -5 3 -10 -1 -10 -9z"
       id="path106"
       style="fill:none" />
    <path
       d="M4650 5889 c0 -12 5 -19 12 -17 18 6 20 25 3 31 -10 5 -15 0 -15 -14z"
       id="path108"
       style="fill:none" />
    <path
       d="M4660 5670 c0 -13 5 -18 15 -14 8 4 15 10 15 14 0 4 -7 10 -15 14 -10 4 -15 -1 -15 -14z"
       id="path110"
       style="fill:none" />
    <path
       d="M4620 5470 c0 -5 7 -10 16 -10 8 0 12 5 9 10 -3 6 -10 10 -16 10 -5 0 -9 -4 -9 -10z"
       id="path112"
       style="fill:none" />
    <path
       d="M5599 6473 l-55 -26 -12 -66 c-6 -36 -14 -80 -18 -98 -6 -30 -4 -32 32 -42 96 -25 91 -26 102 11 6 18 12 54 15 80 4 46 4 48 -19 42 -46 -12 -75 44 -34 66 15 8 24 6 40 -10 l20 -20 0 45 c0 25 -3 45 -7 44 -5 -1 -33 -12 -64 -26z m24 -164 c15 -24 1 -49 -27 -49 -34 0 -52 33 -30 55 19 19 43 16 57 -6z"
       id="path114"
       style="fill:#f0e8f4" />
    <path
       d="M5585 6300 c-4 -6 -3 -16 3 -22 6 -6 12 -6 17 2 4 6 3 16 -3 22 -6 6 -12 6 -17 -2z"
       id="path116"
       style="fill:none" />
    <path
       d="M4727 6456 c-21 -8 -41 -17 -44 -20 -4 -3 13 -28 35 -55 23 -27 42 -54 42 -60 0 -6 -32 -32 -71 -56 l-71 -46 64 -50 c35 -28 67 -55 73 -60 6 -6 -11 -29 -45 -64 -30 -30 -50 -58 -46 -62 4 -5 37 -26 74 -48 36 -22 67 -44 69 -50 1 -5 -31 -30 -72 -53 -41 -24 -75 -48 -75 -53 0 -5 34 -34 75 -65 41 -31 75 -59 75 -63 0 -3 -33 -19 -72 -36 -39 -16 -73 -34 -75 -40 -2 -5 19 -35 47 -65 49 -55 49 -55 29 -72 -21 -18 -20 -18 33 -18 30 0 61 6 70 13 30 24 53 152 53 297 -1 119 -5 150 -33 261 -35 139 -42 273 -21 396 6 35 9 66 6 69 -13 13 -85 13 -120 0z m98 -48 c-10 -63 -20 -67 -62 -25 -20 20 -34 39 -31 43 7 6 62 21 86 23 11 1 12 -9 7 -41z m-25 -198 c0 -33 -3 -60 -7 -60 -15 0 -87 45 -90 57 -4 12 63 63 84 63 9 0 13 -18 13 -60z m22 -262 c-9 -9 -92 43 -92 57 0 6 19 22 43 37 l42 27 7 -56 c4 -32 4 -61 0 -65z m28 -178 c0 -71 -8 -74 -64 -26 l-40 33 45 26 c24 15 47 27 52 27 4 0 7 -27 7 -60z m-24 -207 c-2 -10 -7 -33 -11 -50 -4 -18 -12 -33 -19 -33 -14 0 -82 67 -75 74 11 11 56 25 82 25 22 1 27 -3 23 -16z"
       id="path118"
       style="fill:#a04cbc" />
    <path
       d="M4770 6411 c0 -5 6 -14 14 -20 11 -9 15 -7 19 9 4 15 0 20 -14 20 -10 0 -19 -4 -19 -9z"
       id="path120"
       style="fill:#fcfc18" />
    <path
       d="M4745 6224 c-17 -13 -18 -16 -5 -24 26 -16 40 -11 40 15 0 29 -7 30 -35 9z"
       id="path122"
       style="fill:#fcfc18" />
    <path
       d="M4775 6016 c-18 -13 -18 -14 3 -25 28 -15 32 -14 32 8 0 27 -13 33 -35 17z"
       id="path124"
       style="fill:#fcfc18" />
    <path
       d="M4805 5787 c-19 -15 -13 -37 11 -37 8 0 14 10 14 25 0 29 0 29 -25 12z"
       id="path126"
       style="fill:#fcfc18" />
    <path
       d="M4778 5552 c-22 -4 -23 -16 -3 -32 12 -10 16 -9 21 4 8 22 2 32 -18 28z"
       id="path128"
       style="fill:#fcfc18" />
    <path
       d="M4875 6449 c-4 -5 -11 -50 -17 -101 -12 -109 -5 -250 17 -328 56 -197 58 -345 9 -561 l-6 -26 76 12 c42 7 79 15 83 19 10 10 21 103 22 182 1 53 -9 108 -36 210 -38 139 -38 140 -39 352 -1 117 -4 215 -6 218 -12 11 -99 31 -103 23z"
       id="path130"
       style="fill:#f0e8f4" />
    <path
       d="M5937 6424 c-84 -26 -69 -74 24 -74 70 0 79 6 79 51 0 36 -2 39 -27 38 -16 0 -50 -7 -76 -15z"
       id="path132"
       style="fill:#c08cd0" />
    <path
       d="M4114 6415 c-9 -22 12 -43 49 -50 18 -4 39 -9 49 -11 22 -6 37 54 17 67 -24 15 -109 11 -115 -6z"
       id="path134"
       style="fill:#fcfc18" />
    <path
       d="M5487 6423 c-24 -6 -37 -43 -37 -109 0 -47 3 -54 19 -54 20 0 22 6 36 95 3 22 8 48 11 58 5 17 3 18 -29 10z"
       id="path136"
       style="fill:#f0e8f4" />
    <path
       d="M5006 6261 c-8 -165 6 -309 38 -399 29 -80 40 -201 29 -298 -5 -49 -8 -92 -6 -96 2 -5 33 -8 68 -8 52 0 65 3 69 18 23 80 46 204 46 252 0 40 -11 93 -33 162 -54 165 -60 196 -66 337 l-6 134 -66 28 -66 27 -7 -157z m104 40 c5 -11 7 -26 4 -35 -8 -21 -42 -30 -59 -16 -15 13 -20 51 -8 63 13 14 53 6 63 -12z m-12 -179 c-2 -22 -8 -27 -32 -27 -17 0 -33 7 -40 18 -9 15 -7 22 12 37 32 26 65 11 60 -28z m27 -128 c19 -20 16 -43 -7 -58 -35 -22 -74 27 -48 59 16 19 35 19 55 -1z m49 -150 c19 -18 19 -20 6 -45 -18 -33 -70 -18 -70 21 0 19 19 40 36 40 7 0 20 -7 28 -16z m26 -159 c15 -19 4 -52 -21 -60 -11 -4 -26 -1 -34 5 -15 13 -20 51 -8 63 12 12 50 7 63 -8z m-36 -128 c11 -8 17 -23 14 -38 -2 -19 -9 -24 -32 -24 -40 0 -56 27 -32 54 22 25 26 25 50 8z"
       id="path138"
       style="fill:#a04cbc" />
    <path
       d="M5065 6290 c-11 -17 5 -32 21 -19 7 6 11 15 8 20 -7 12 -21 11 -29 -1z"
       id="path140"
       style="fill:none" />
    <path
       d="M5052 6124 c4 -21 22 -23 26 -1 2 10 -3 17 -13 17 -10 0 -15 -6 -13 -16z"
       id="path142"
       style="fill:none" />
    <path
       d="M5083 5968 c2 -7 10 -13 17 -13 7 0 15 6 18 13 2 7 -5 12 -18 12 -13 0 -20 -5 -17 -12z"
       id="path144"
       style="fill:none" />
    <path
       d="M5134 5829 c-10 -17 13 -36 27 -22 12 12 4 33 -11 33 -5 0 -12 -5 -16 -11z"
       id="path146"
       style="fill:none" />
    <path
       d="M5150 5665 c0 -8 7 -15 15 -15 8 0 15 7 15 15 0 8 -7 15 -15 15 -8 0 -15 -7 -15 -15z"
       id="path148"
       style="fill:none" />
    <path
       d="M5130 5525 c0 -8 7 -15 15 -15 8 0 15 7 15 15 0 8 -7 15 -15 15 -8 0 -15 -7 -15 -15z"
       id="path150"
       style="fill:none" />
    <path
       d="M5612 6408 c6 -18 28 -21 28 -4 0 9 -7 16 -16 16 -9 0 -14 -5 -12 -12z"
       id="path152"
       style="fill:none" />
    <path
       d="M6367 6403 c-4 -3 -7 -19 -7 -34 0 -23 3 -26 21 -22 20 5 21 3 15 -21 -9 -37 9 -64 48 -72 32 -5 34 -8 25 -31 -12 -32 -12 -90 1 -98 14 -9 40 56 40 101 0 52 -26 99 -79 144 -48 42 -53 44 -64 33z"
       id="path154"
       style="fill:#f0e8f4" />
    <path
       d="M5345 6369 c-33 -11 -67 -23 -75 -25 -13 -5 -13 -6 0 -13 32 -18 142 -53 147 -47 3 3 8 28 11 56 5 58 5 59 -83 29z"
       id="path156"
       style="fill:#c08cd0" />
    <path
       d="M4170 6332 c0 -5 -26 -12 -57 -15 -43 -4 -63 -12 -76 -28 -17 -21 -17 -23 0 -41 9 -10 32 -28 50 -39 42 -26 42 -39 -1 -39 -76 0 -72 -61 7 -118 l52 -37 -39 -5 c-22 -3 -41 -11 -44 -18 -3 -11 0 -12 16 -3 25 13 72 14 105 2 32 -12 38 -6 26 29 -9 23 -17 28 -55 33 -48 5 -84 30 -84 57 0 28 22 40 77 40 46 0 53 3 53 20 0 12 -7 20 -17 20 -30 1 -101 37 -112 58 -19 35 10 52 85 52 57 0 65 2 62 18 -3 17 -48 31 -48 14z"
       id="path158"
       style="fill:#fcfcb0" />
    <path
       d="M5170 6263 c1 -122 16 -209 57 -328 35 -101 38 -119 38 -215 -1 -77 -6 -124 -22 -178 -16 -53 -19 -74 -10 -77 7 -2 54 -6 105 -9 86 -5 93 -4 88 12 -3 9 0 28 7 42 12 23 10 28 -15 52 -31 29 -35 54 -14 83 13 18 11 21 -15 37 -31 19 -40 63 -16 87 10 10 9 14 -5 22 -31 17 -61 78 -54 110 4 20 2 29 -8 29 -17 0 -46 32 -46 52 0 8 10 27 21 42 12 15 20 28 18 30 -2 1 -16 7 -31 14 -35 15 -38 57 -6 97 l21 27 -31 25 c-34 26 -43 68 -20 91 8 8 5 14 -16 22 -15 5 -32 10 -37 10 -5 0 -9 -35 -9 -77z"
       id="path160"
       style="fill:#f0e8f4" />
    <path
       d="M5252 6298 c-7 -7 -12 -20 -12 -29 0 -19 45 -59 66 -59 23 0 16 -20 -16 -47 -18 -15 -30 -34 -30 -49 0 -20 7 -26 45 -36 50 -13 55 -22 25 -38 -11 -6 -28 -22 -37 -37 -16 -25 -16 -26 6 -44 13 -11 35 -19 49 -19 l25 0 -23 -25 -24 -26 19 -36 c11 -20 32 -41 48 -47 32 -12 33 -17 7 -41 -40 -36 -15 -75 49 -75 43 0 47 -16 7 -35 -36 -17 -49 -36 -40 -59 6 -15 47 -36 69 -36 8 0 15 -4 15 -10 0 -12 74 -12 110 0 19 6 10 8 -35 9 -71 1 -129 26 -133 57 -4 26 39 44 104 44 36 0 44 3 44 18 0 15 -8 18 -47 18 -62 -1 -99 10 -107 30 -11 29 14 53 77 74 l62 20 -66 -6 c-81 -7 -126 1 -140 27 -24 45 28 89 106 89 36 0 41 5 27 28 -6 9 -21 10 -65 1 -91 -16 -146 22 -98 70 14 14 34 21 61 21 26 0 40 5 40 13 0 9 -12 11 -39 9 -51 -5 -101 21 -101 52 0 31 20 47 69 53 50 7 45 18 -10 27 -51 8 -100 53 -92 85 6 24 2 26 -15 9z"
       id="path162"
       style="fill:#fcfcb0" />
    <path
       d="M6345 6297 c-18 -14 -18 -16 4 -69 32 -80 51 -156 51 -213 1 -50 1 -50 18 -26 9 13 24 42 33 65 16 39 15 42 -4 68 -18 25 -20 34 -11 67 10 37 9 40 -12 45 -13 4 -32 22 -42 41 -16 32 -19 34 -37 22z"
       id="path164"
       style="fill:#fcfcb0" />
    <path
       d="M5290 6275 c0 -20 58 -55 93 -55 19 0 27 5 27 18 0 12 -15 23 -49 35 -60 21 -71 21 -71 2z"
       id="path166"
       style="fill:#c088d0" />
    <path
       d="M4095 6270 c-13 -22 14 -40 83 -55 30 -6 32 -5 32 23 0 25 -5 30 -31 36 -46 9 -77 7 -84 -4z"
       id="path168"
       style="fill:#fcfc18" />
    <path
       d="M5910 6262 c-25 -12 -36 -25 -38 -44 l-3 -28 74 0 75 0 6 35 c4 20 4 40 1 45 -10 16 -77 11 -115 -8z"
       id="path170"
       style="fill:#c08cd0" />
    <path
       d="M6233 6236 c-34 -17 -63 -37 -63 -45 0 -7 19 -54 41 -105 23 -50 44 -112 47 -138 2 -27 10 -48 16 -47 6 0 31 10 56 22 45 22 45 22 48 80 2 39 -4 81 -18 125 -27 84 -51 142 -59 141 -3 -1 -34 -15 -68 -33z m77 -35 c11 -21 -9 -51 -35 -51 -14 0 -45 26 -45 39 0 32 64 41 80 12z m36 -122 c24 -27 8 -54 -32 -54 -23 0 -30 5 -32 23 -4 25 13 52 33 52 6 0 20 -9 31 -21z"
       id="path172"
       style="fill:#f0e8f4" />
    <path
       d="M6265 6200 c-4 -6 -3 -16 3 -22 6 -6 12 -6 17 2 4 6 3 16 -3 22 -6 6 -12 6 -17 -2z"
       id="path174"
       style="fill:none" />
    <path
       d="M6300 6055 c0 -10 7 -15 18 -13 21 4 19 22 -2 26 -10 2 -16 -3 -16 -13z"
       id="path176"
       style="fill:none" />
    <path
       d="M5430 6218 c0 -58 29 -151 66 -208 62 -97 104 -196 113 -265 4 -36 10 -68 14 -71 3 -4 22 -3 41 0 33 6 35 9 26 32 -6 14 -10 44 -10 68 0 57 -22 136 -62 226 -19 41 -45 108 -58 148 -23 69 -27 73 -63 83 -21 5 -45 13 -53 16 -10 4 -14 -3 -14 -29z"
       id="path178"
       style="fill:#a04cbc" />
    <path
       d="M5574 6179 c3 -18 22 -71 42 -118 70 -169 84 -214 84 -278 0 -101 13 -106 157 -56 64 22 71 28 63 44 -6 10 -10 45 -10 79 0 36 -8 83 -21 118 -11 31 -24 71 -28 87 -4 17 -17 51 -29 78 -19 43 -24 47 -56 47 -19 0 -70 7 -113 15 -101 19 -97 20 -89 -16z m189 -73 c9 -26 15 -52 12 -57 -11 -17 -135 -8 -135 11 0 15 83 101 94 97 6 -2 19 -25 29 -51z m41 -108 c7 -13 17 -36 20 -51 l7 -29 -68 7 c-37 4 -70 9 -72 11 -7 7 72 84 86 84 7 0 19 -10 27 -22z m36 -146 c5 -20 10 -48 10 -61 0 -23 -2 -24 -51 -18 -83 10 -88 22 -33 78 26 27 51 46 55 43 5 -3 13 -21 19 -42z"
       id="path180"
       style="fill:#c088d0" />
    <path
       d="M5702 6107 c-32 -34 -28 -47 14 -47 29 0 35 3 30 16 -3 9 -6 24 -6 35 0 25 -12 24 -38 -4z"
       id="path182"
       style="fill:#fcfc18" />
    <path
       d="M5750 5975 c-16 -19 -4 -35 26 -35 25 0 28 7 18 34 -8 20 -28 21 -44 1z"
       id="path184"
       style="fill:#fcfc18" />
    <path
       d="M5776 5831 l-27 -28 23 -7 c47 -12 54 -8 50 29 -2 19 -7 35 -11 35 -4 0 -20 -13 -35 -29z"
       id="path186"
       style="fill:#fcfc18" />
    <path
       d="M3921 6184 c-1 -6 -28 -52 -61 -103 -95 -149 -98 -183 -23 -271 l37 -43 12 35 c6 19 15 59 19 89 4 29 11 60 15 68 9 18 1 -83 -11 -129 -14 -54 -11 -85 11 -105 20 -18 20 -17 21 51 0 38 7 96 15 129 l14 60 -7 -55 c-12 -94 -7 -220 9 -237 13 -13 16 -11 27 16 7 16 20 32 28 35 12 5 11 10 -6 32 -30 39 -27 79 8 105 l29 21 -19 32 c-10 17 -19 45 -19 63 0 17 -4 34 -9 37 -8 5 -40 69 -79 156 -6 14 -11 20 -11 14z m19 -128 c0 -12 -5 -27 -12 -34 -15 -15 -54 -16 -63 -2 -11 17 6 51 28 59 30 11 47 3 47 -23z m-50 -111 c19 -23 4 -65 -23 -65 -13 0 -28 5 -35 12 -13 13 -16 50 -5 61 12 12 50 7 63 -8z"
       id="path188"
       style="fill:#f0e8f4" />
    <path
       d="M3886 6044 c-4 -11 -1 -14 11 -12 9 2 18 9 21 16 6 18 -25 15 -32 -4z"
       id="path190"
       style="fill:none" />
    <path
       d="M3842 5924 c2 -11 11 -20 22 -22 13 -3 17 1 14 14 -2 11 -11 20 -22 22 -13 3 -17 -1 -14 -14z"
       id="path192"
       style="fill:none" />
    <path
       d="M6087 6182 c-14 -6 -8 -12 28 -32 25 -13 45 -27 45 -30 0 -3 -18 -24 -40 -45 l-40 -39 32 -18 c18 -9 46 -28 62 -41 l29 -24 -42 -62 -42 -62 33 14 c96 41 91 36 85 94 -3 31 -22 90 -46 141 -23 49 -41 94 -41 100 0 13 -34 15 -63 4z"
       id="path194"
       style="fill:#fcfcb0" />
    <path
       d="M5850 6163 c0 -5 18 -63 40 -128 26 -79 40 -137 40 -171 0 -72 13 -104 40 -97 11 3 23 9 25 13 10 15 -16 156 -49 270 -33 113 -33 115 -65 118 -17 2 -31 -1 -31 -5z"
       id="path196"
       style="fill:#a04cbc" />
    <path
       d="M5940 6157 c0 -19 31 -121 38 -128 4 -3 24 14 45 37 l39 43 -61 31 c-42 21 -61 26 -61 17z"
       id="path198"
       style="fill:#c088d0" />
    <path
       d="M6002 6165 c3 -3 26 -16 53 -28 l47 -23 -41 -39 c-23 -22 -41 -43 -41 -47 0 -4 27 -26 60 -48 33 -22 60 -46 60 -52 0 -5 -16 -32 -35 -58 -19 -26 -35 -52 -35 -56 0 -13 45 44 76 95 30 50 30 52 -51 93 -22 11 -42 22 -44 24 -3 3 15 24 38 48 l44 44 -51 26 c-45 23 -95 36 -80 21z"
       id="path200"
       style="fill:#c088d0" />
    <path
       d="M5350 6151 c-37 -10 -33 -44 5 -51 54 -10 72 -2 67 31 -5 31 -19 35 -72 20z"
       id="path202"
       style="fill:#c088d0" />
    <path
       d="M4094 6118 c-11 -18 34 -48 72 -48 31 0 34 3 34 30 0 29 -1 30 -49 30 -28 0 -53 -5 -57 -12z"
       id="path204"
       style="fill:#fcfc18" />
    <path
       d="M5375 6023 c-22 -6 -36 -23 -29 -35 6 -10 118 -11 127 -1 4 3 0 15 -10 25 -16 17 -46 21 -88 11z"
       id="path206"
       style="fill:#c088d0" />
    <path
       d="M5985 5990 c4 -13 15 -61 24 -107 l17 -85 25 34 c14 18 35 48 48 65 l22 33 -55 35 c-79 50 -90 54 -81 25z"
       id="path208"
       style="fill:#c088d0" />
    <path
       d="M4092 5964 c4 -19 123 -94 149 -94 15 0 16 5 9 30 -5 16 -12 34 -15 41 -22 34 -150 55 -143 23z"
       id="path210"
       style="fill:#fcfc18" />
    <path
       d="M4040 5965 c0 -11 31 -67 35 -63 8 8 -11 62 -23 66 -7 2 -12 1 -12 -3z"
       id="path212"
       style="fill:none" />
    <path
       d="M4103 5916 c5 -16 125 -78 143 -74 10 2 -18 20 -65 44 -45 22 -80 36 -78 30z"
       id="path214"
       style="fill:#fcfcb0" />
    <path
       d="M6370 5920 c-8 -5 -33 -17 -56 -27 l-41 -18 10 -44 9 -44 43 43 c25 24 49 56 54 72 10 29 6 33 -19 18z"
       id="path216"
       style="fill:#f0e8f4" />
    <path
       d="M5428 5903 c-53 -8 -61 -57 -11 -69 26 -7 117 1 133 11 6 4 4 18 -5 36 -16 30 -37 34 -117 22z"
       id="path218"
       style="fill:#c088d0" />
    <path
       d="M4110 5869 c0 -5 -13 -9 -28 -9 -33 0 -62 -27 -62 -58 0 -20 35 -52 73 -65 29 -11 19 -27 -16 -27 -40 0 -57 -15 -56 -49 0 -26 0 -26 9 -3 17 42 70 46 154 13 19 -8 33 -8 39 -2 6 6 -19 24 -70 50 -44 22 -83 47 -87 56 -13 34 -6 55 20 61 22 6 48 0 158 -33 13 -4 17 -2 12 5 -4 7 -15 12 -24 12 -9 0 -41 13 -69 29 -29 16 -53 25 -53 20z"
       id="path220"
       style="fill:#fcfcb0" />
    <path
       d="M6167 5831 l-57 -27 43 -42 c23 -23 47 -42 53 -42 27 0 54 47 54 93 0 56 -8 58 -93 18z"
       id="path222"
       style="fill:#fcfcb0" />
    <path
       d="M3712 5803 c-66 -66 -130 -153 -187 -251 l-48 -83 55 -57 c31 -31 65 -72 76 -90 l20 -33 7 28 c3 15 18 43 31 61 23 29 24 36 14 68 -7 20 -10 61 -8 92 4 46 10 60 36 83 29 26 31 32 31 98 0 44 6 82 16 101 8 16 13 30 10 30 -3 0 -27 -21 -53 -47z"
       id="path224"
       style="fill:#740098" />
    <path
       d="M3769 5798 c-16 -39 -16 -131 1 -185 16 -54 42 -113 49 -113 4 0 39 33 78 73 l72 72 -91 93 c-50 50 -92 92 -93 92 -2 0 -9 -15 -16 -32z"
       id="path226"
       style="fill:#e4dc08" />
    <path
       d="M4083 5803 c-8 -20 14 -36 98 -75 l58 -26 6 29 c9 39 3 44 -61 68 -66 25 -93 26 -101 4z"
       id="path228"
       style="fill:#fcfc18" />
    <path
       d="M6360 5794 c6 -14 10 -52 10 -85 0 -42 4 -59 13 -59 8 0 24 -12 38 -26 20 -22 24 -35 24 -92 0 -60 3 -70 28 -94 18 -18 27 -37 27 -58 0 -18 3 -30 8 -28 4 2 30 28 59 58 l52 56 -36 64 c-51 93 -104 169 -163 233 -56 62 -75 72 -60 31z"
       id="path230"
       style="fill:#740098" />
    <path
       d="M5535 5783 c-42 -9 -75 -26 -75 -39 0 -18 11 -23 62 -30 56 -7 72 5 63 45 -7 31 -11 33 -50 24z"
       id="path232"
       style="fill:#c088d0" />
    <path
       d="M6060 5787 c0 -2 22 -26 49 -54 34 -35 53 -48 62 -42 11 6 3 19 -31 54 -24 25 -52 45 -62 45 -10 0 -18 -1 -18 -3z"
       id="path234"
       style="fill:#d8bce4" />
    <path
       d="M6277 5746 c-26 -23 -72 -58 -102 -77 -30 -19 -55 -37 -55 -41 0 -11 99 -83 147 -107 l42 -21 16 52 c28 94 32 239 7 238 -4 -1 -28 -20 -55 -44z"
       id="path236"
       style="fill:#e4dc08" />
    <path
       d="M6033 5691 l2 -80 47 26 c27 15 48 29 48 33 0 13 -40 59 -70 80 l-28 20 1 -79z"
       id="path238"
       style="fill:#c088d0" />
    <path
       d="M5965 5744 c-10 -10 -13 -24 -9 -38 4 -11 7 -47 7 -78 -1 -56 0 -56 22 -46 27 12 41 76 30 139 -7 42 -23 49 -50 23z"
       id="path240"
       style="fill:#a04cbc" />
    <path
       d="M5917 5733 c-4 -3 -42 -16 -84 -28 l-78 -23 -8 -82 c-10 -101 -7 -113 30 -104 45 11 147 55 155 68 11 16 10 164 -1 170 -4 3 -11 3 -14 -1z m-7 -112 l0 -48 -60 -17 c-33 -9 -65 -14 -70 -11 -9 6 107 124 123 125 4 0 7 -22 7 -49z"
       id="path242"
       style="fill:#c088d0" />
    <path
       d="M5854 5599 c-19 -21 -19 -21 6 -18 14 2 26 12 28 22 5 23 -11 22 -34 -4z"
       id="path244"
       style="fill:#fcfc18" />
    <path
       d="M4055 5659 c-15 -23 7 -61 52 -89 25 -16 50 -27 55 -24 4 3 18 24 29 46 23 46 20 50 -41 68 -46 13 -87 13 -95 -1z"
       id="path246"
       style="fill:#fcfc18" />
    <path
       d="M5670 5664 c-12 -4 -16 -26 -18 -105 -2 -92 -1 -100 15 -96 62 18 58 10 61 112 3 93 2 95 -20 94 -13 -1 -30 -3 -38 -5z"
       id="path248"
       style="fill:#a04cbc" />
    <path
       d="M5502 5631 c-74 -14 -17 -52 73 -49 57 3 60 4 60 28 0 23 -4 25 -50 26 -27 1 -65 -1 -83 -5z"
       id="path250"
       style="fill:#c088d0" />
    <path
       d="M3967 5613 c-13 -16 -14 -20 -1 -37 22 -31 17 -68 -21 -131 -32 -52 -34 -60 -20 -75 22 -24 19 -103 -6 -152 l-21 -41 21 -37 c26 -47 26 -65 0 -135 l-20 -55 20 -26 c26 -33 28 -106 5 -162 -15 -38 -14 -41 19 -123 60 -146 72 -207 72 -374 0 -153 -24 -612 -50 -946 -25 -316 -23 -343 45 -624 41 -171 77 -375 113 -649 22 -169 22 -169 50 -179 16 -5 30 -7 33 -5 2 3 -3 26 -12 52 -19 54 -14 118 10 145 14 15 14 19 0 39 -24 35 -54 132 -54 177 0 26 7 51 19 67 19 23 19 24 -5 77 -36 78 -42 159 -15 211 19 36 20 44 7 68 -22 43 -39 137 -32 175 4 19 15 46 26 60 19 23 19 28 5 67 -8 24 -15 77 -15 120 0 68 3 82 24 107 23 27 23 30 11 107 -14 90 -6 149 27 184 22 22 22 22 4 92 -21 81 -17 140 13 180 l20 27 -25 67 c-29 81 -31 140 -4 183 l19 32 -24 56 c-30 67 -34 167 -9 203 14 21 14 27 -7 85 -30 85 -31 166 -2 205 22 29 22 32 7 69 -9 21 -18 71 -21 113 -5 67 -3 79 19 110 23 34 23 35 6 85 -10 27 -17 78 -18 112 0 51 4 66 24 90 l25 29 -20 75 c-13 46 -18 90 -15 115 l5 42 -60 37 c-32 20 -80 52 -104 71 -25 19 -47 34 -49 34 -1 0 -10 -8 -19 -17z m56 -945 c48 -136 68 -238 74 -370 4 -92 2 -128 -6 -128 -7 0 -11 27 -11 78 0 129 -36 313 -85 435 -17 43 -19 57 -6 57 4 0 20 -33 34 -72z m96 -150 c23 -103 42 -308 30 -322 -4 -4 -10 18 -13 50 -7 72 -43 311 -52 342 -4 12 -2 22 4 22 6 0 20 -42 31 -92z"
       id="path252"
       style="fill:#700094" />
    <path
       d="M6365 5618 c-2 -7 -12 -40 -21 -73 -9 -33 -19 -64 -21 -68 -3 -4 -34 8 -69 28 l-65 35 -9 -26 c-15 -37 4 -70 72 -124 64 -52 105 -76 114 -68 3 3 16 37 29 74 31 88 34 193 7 217 -22 20 -31 21 -37 5z"
       id="path254"
       style="fill:#e4dc08" />
    <path
       d="M3715 5600 c-16 -18 -20 -35 -19 -89 2 -66 24 -132 71 -209 l20 -33 57 71 c76 93 117 171 108 204 -4 14 -11 26 -15 26 -5 1 -33 -21 -63 -49 -30 -28 -59 -51 -63 -51 -8 0 -51 90 -51 107 0 5 -6 17 -13 27 -12 16 -14 16 -32 -4z"
       id="path256"
       style="fill:#e4dc08" />
    <path
       d="M5980 5558 c-147 -75 -155 -88 -155 -258 0 -122 3 -134 71 -319 19 -51 44 -136 56 -190 44 -206 16 -516 -68 -743 l-14 -38 29 0 c20 0 36 -9 51 -27 25 -32 23 -72 -8 -133 -18 -38 -18 -38 5 -60 29 -28 30 -70 2 -130 -17 -37 -18 -46 -6 -55 39 -29 46 -79 18 -141 l-18 -40 23 -28 c28 -32 31 -74 9 -137 -13 -37 -14 -45 -2 -54 40 -30 47 -88 17 -153 -20 -44 -20 -44 0 -69 27 -35 25 -86 -6 -143 -25 -46 -25 -50 -10 -71 28 -41 15 -109 -32 -161 -14 -16 -13 -20 3 -38 24 -27 16 -99 -17 -142 -25 -33 -25 -33 -6 -63 24 -40 23 -61 -10 -120 -26 -48 -27 -51 -10 -67 23 -23 23 -81 -1 -134 -18 -39 -18 -41 1 -64 15 -18 19 -36 16 -72 -3 -43 -1 -48 16 -46 25 4 32 31 46 171 21 213 65 464 121 692 48 192 56 305 40 545 -36 533 -43 671 -44 915 -2 330 -3 326 177 705 l45 95 -23 30 c-32 41 -56 90 -56 112 0 10 7 31 15 47 14 27 14 31 -4 50 -39 44 -53 102 -32 136 7 10 0 25 -24 52 -41 44 -52 80 -36 114 6 14 11 26 11 28 0 1 -17 16 -37 32 l-38 30 -115 -58z m130 -646 c0 -4 -11 -46 -24 -92 -13 -47 -32 -125 -41 -175 -21 -107 -41 -139 -30 -50 11 99 71 325 86 325 5 0 9 -4 9 -8z m20 -222 c-43 -109 -70 -239 -77 -371 -4 -87 -10 -128 -17 -126 -17 6 -9 164 14 288 20 104 55 224 81 270 23 42 22 -2 -1 -61z"
       id="path258"
       style="fill:#700094" />
    <path
       d="M5462 5518 c-15 -15 -15 -55 0 -64 8 -5 9 -2 5 10 -4 10 -2 27 4 38 13 23 8 33 -9 16z"
       id="path260"
       style="fill:#fcfcb0" />
    <path
       d="M5546 5521 c-42 -6 -63 -28 -53 -55 7 -17 49 -21 106 -10 27 6 31 10 31 40 0 37 -2 38 -84 25z"
       id="path262"
       style="fill:#c088d0" />
    <path
       d="M4300 5490 c0 -11 1 -20 3 -20 1 0 17 -4 34 -9 48 -14 50 5 3 29 l-40 20 0 -20z"
       id="path264"
       style="fill:#fcfc18" />
    <path
       d="M5800 5478 c-55 -21 -200 -47 -270 -49 -41 -1 -151 2 -245 6 -137 6 -197 4 -310 -10 -77 -9 -141 -18 -142 -19 -1 0 100 -2 224 -4 302 -4 470 -27 657 -92 83 -28 86 -27 86 23 0 23 7 67 15 97 8 30 13 55 12 56 -1 1 -13 -2 -27 -8z"
       id="path266"
       style="fill:#c490d4" />
    <path
       d="M4220 5414 c0 -66 31 -169 82 -268 l25 -50 26 40 c44 70 105 199 112 237 7 35 7 36 -32 42 -21 3 -77 19 -125 34 l-88 29 0 -64z"
       id="path268"
       style="fill:#d8cc0c" />
    <path
       d="M3438 5377 c-47 -112 -116 -338 -157 -517 -12 -52 -29 -124 -37 -159 -79 -337 -101 -729 -70 -1236 24 -382 69 -703 160 -1130 35 -163 132 -517 177 -645 10 -30 19 -56 19 -57 0 -2 7 -3 16 -3 11 0 14 5 9 17 -21 53 -46 154 -70 278 -90 475 -126 693 -164 1000 -51 402 -56 491 -56 950 1 388 3 460 22 610 41 322 90 560 168 819 33 107 36 136 17 136 -4 0 -19 -28 -34 -63z"
       id="path270"
       style="fill:#fcfc0c" />
    <path
       d="M6613 5429 c-8 -8 0 -42 28 -123 74 -218 150 -568 190 -876 27 -208 41 -671 30 -1030 -12 -369 -43 -619 -126 -995 -15 -66 -30 -138 -35 -160 -9 -39 -41 -163 -81 -315 -11 -41 -27 -98 -34 -127 -7 -28 -21 -77 -31 -107 -10 -31 -15 -59 -11 -62 18 -18 36 15 70 122 155 502 244 945 300 1484 30 294 32 956 4 1145 -39 262 -105 546 -183 787 -40 122 -97 268 -107 268 -1 0 -8 -5 -14 -11z"
       id="path272"
       style="fill:#400054" />
    <path
       d="M6424 5413 c-22 -68 -48 -123 -58 -123 -7 0 -35 16 -62 35 -27 19 -52 35 -55 35 -17 0 -26 -48 -14 -76 17 -40 142 -161 153 -149 5 6 30 50 56 99 40 76 47 95 41 125 -9 47 -22 71 -41 71 -8 0 -17 -8 -20 -17z"
       id="path274"
       style="fill:#e4dc08" />
    <path
       d="M3506 5389 c-36 -109 -47 -145 -65 -209 -201 -726 -214 -1606 -40 -2665 65 -393 139 -770 165 -834 17 -43 41 -58 30 -18 -14 47 -54 238 -75 357 -13 69 -31 172 -42 230 -47 262 -59 333 -78 445 -130 772 -128 1440 6 2180 26 148 37 196 85 393 17 68 28 126 24 129 -3 3 -8 0 -10 -8z"
       id="path276"
       style="fill:#400054" />
    <path
       d="M4474 5327 c-26 -69 -27 -70 -9 -101 26 -42 22 -107 -9 -189 -22 -60 -24 -71 -11 -83 34 -34 31 -139 -5 -222 l-20 -45 22 -24 c19 -20 23 -35 22 -86 0 -34 -8 -86 -18 -114 -17 -52 -17 -53 3 -79 11 -14 24 -42 27 -62 7 -36 -11 -152 -28 -186 -8 -14 -6 -21 7 -28 9 -6 22 -23 29 -40 13 -30 13 -30 19 27 4 42 22 90 66 179 33 66 65 139 72 161 7 24 15 151 19 325 9 368 17 410 127 630 2 3 -62 5 -141 6 l-144 0 -28 -69z m131 -801 c-9 -66 -20 -125 -25 -130 -13 -13 -13 -10 5 159 8 77 15 172 15 211 0 39 3 74 8 78 14 15 12 -198 -3 -318z m-58 -75 c-5 -108 -22 -191 -39 -191 -11 0 -10 3 7 85 8 39 15 103 15 143 0 47 4 72 11 72 9 0 10 -30 6 -109z"
       id="path278"
       style="fill:#740098" />
    <path
       d="M6580 5371 c0 -13 9 -62 19 -110 161 -726 242 -1471 213 -1958 -17 -288 -28 -371 -93 -743 -54 -312 -97 -486 -183 -740 -31 -90 -56 -168 -56 -172 0 -10 40 -11 40 0 0 4 9 39 20 77 169 598 255 1027 291 1445 17 190 17 805 0 1035 -11 159 -39 353 -85 610 -35 189 -122 506 -155 563 -9 15 -10 14 -11 -7z"
       id="path280"
       style="fill:#fcfc0c" />
    <path
       d="M3674 5355 c-28 -43 -22 -112 15 -180 17 -33 47 -77 65 -99 l33 -38 47 75 c65 105 88 161 84 205 -4 55 -27 50 -78 -18 -25 -32 -48 -59 -52 -60 -4 0 -26 32 -49 70 -23 39 -43 70 -45 70 -2 0 -11 -11 -20 -25z"
       id="path282"
       style="fill:#e4dc08" />
    <path
       d="M4807 5368 c-16 -13 -67 -108 -67 -126 0 -5 24 -20 53 -32 72 -32 206 -39 567 -33 280 5 314 3 431 -23 l26 -6 -10 54 c-6 29 -12 55 -14 57 -10 15 -234 76 -351 96 -125 22 -174 25 -381 25 -174 0 -242 -3 -254 -12z m116 -89 c9 -23 14 -46 11 -50 -11 -19 -124 -6 -124 13 0 14 71 78 85 78 7 0 19 -19 28 -41z m257 19 c-1 -13 -82 -78 -98 -78 -8 0 -52 71 -52 84 0 3 34 6 75 6 54 0 75 -4 75 -12z m154 -31 c39 -51 35 -57 -44 -57 -48 0 -70 4 -70 12 0 16 61 78 76 78 7 0 24 -15 38 -33z m209 14 c16 -6 13 -12 -27 -49 -25 -23 -47 -42 -50 -42 -5 0 -56 86 -56 94 0 8 111 6 133 -3z m141 -43 c25 -36 20 -48 -21 -48 -21 0 -45 5 -53 10 -12 7 -11 13 10 34 29 32 44 33 64 4z"
       id="path284"
       style="fill:#c490d4" />
    <path
       d="M4859 5270 l-24 -19 37 -1 c31 0 35 3 31 20 -7 25 -15 25 -44 0z"
       id="path286"
       style="fill:#fcfc54" />
    <path
       d="M5070 5270 c13 -25 22 -25 51 0 l24 19 -43 1 c-40 0 -42 -1 -32 -20z"
       id="path288"
       style="fill:#fcfc54" />
    <path
       d="M5270 5255 l-23 -25 42 0 c38 0 41 2 31 19 -16 31 -25 32 -50 6z"
       id="path290"
       style="fill:#fcfc54" />
    <path
       d="M5450 5264 c0 -3 5 -14 11 -25 10 -20 11 -20 30 -3 19 17 19 19 2 25 -23 9 -43 11 -43 3z"
       id="path292"
       style="fill:#fcfc54" />
    <path
       d="M5646 5232 c-3 -6 -1 -14 5 -17 15 -10 25 3 12 16 -7 7 -13 7 -17 1z"
       id="path294"
       style="fill:none" />
    <path
       d="M3526 5318 c-86 -301 -167 -811 -186 -1163 -29 -534 1 -997 101 -1565 33 -188 60 -339 79 -445 10 -55 28 -154 40 -220 12 -66 31 -155 42 -197 18 -66 24 -78 42 -78 28 1 106 16 112 22 2 3 -5 45 -16 94 -47 196 -90 409 -135 664 -24 134 -62 413 -76 558 l-13 133 -58 42 c-54 39 -78 67 -59 67 4 0 29 -16 55 -36 25 -21 48 -35 51 -33 2 3 0 70 -5 149 -21 327 -31 634 -26 785 10 244 26 487 42 615 31 242 35 273 64 420 l30 151 -30 45 c-17 24 -33 44 -35 44 -2 0 -10 -24 -19 -52z"
       id="path296"
       style="fill:#fcfc0c" />
    <path
       d="M6509 5304 l-36 -55 13 -82 c35 -228 76 -514 109 -754 47 -350 63 -856 37 -1158 -35 -400 -107 -764 -232 -1170 -50 -162 -74 -258 -89 -351 l-8 -52 36 -10 c20 -6 54 -13 76 -17 l40 -6 62 188 c35 103 69 211 77 238 45 151 124 565 167 870 26 186 37 681 21 945 -22 353 -84 789 -182 1265 -10 50 -23 116 -30 148 -6 31 -14 57 -18 57 -4 0 -23 -25 -43 -56z"
       id="path298"
       style="fill:#6c0090" />
    <path
       d="M3602 5128 c-38 -200 -52 -289 -74 -498 -21 -186 -23 -253 -23 -715 l0 -510 27 -55 27 -55 -7 45 c-4 25 -7 248 -7 495 1 411 6 541 35 915 9 125 42 351 61 424 8 30 7 42 -3 53 -12 11 -17 -3 -36 -99z"
       id="path300"
       style="fill:#6c0090" />
    <path
       d="M4216 5208 c-20 -27 -20 -95 -2 -163 16 -61 91 -225 103 -225 12 0 89 146 118 224 28 74 33 157 11 175 -11 9 -23 -4 -61 -69 -26 -45 -52 -79 -59 -77 -6 2 -27 36 -47 75 -20 40 -39 75 -42 78 -3 3 -12 -5 -21 -18z"
       id="path302"
       style="fill:#d8cc0c" />
    <path
       d="M4721 5180 c-9 -27 -7 -36 10 -59 11 -15 23 -47 26 -69 5 -39 23 -60 23 -28 0 21 58 76 80 76 26 0 80 -48 80 -70 0 -34 16 -30 39 10 26 47 56 70 92 70 33 0 75 -32 83 -65 7 -27 26 -35 26 -11 0 22 58 66 86 66 38 0 62 -17 82 -57 l19 -36 23 37 c52 85 111 83 154 -7 20 -43 25 -47 30 -29 10 31 64 72 95 72 37 0 70 -26 91 -72 l17 -39 22 34 c12 19 28 38 36 41 12 4 13 10 3 33 -20 47 -31 53 -124 69 -72 12 -147 14 -399 8 -361 -7 -450 1 -566 50 -12 5 -19 -1 -28 -24z"
       id="path304"
       style="fill:#c490d4" />
    <path
       d="M6431 5162 l-20 -40 20 -79 c31 -117 58 -246 75 -358 8 -55 17 -106 19 -113 2 -6 14 -123 26 -260 31 -341 33 -1009 6 -1267 -20 -185 -59 -442 -83 -545 -37 -160 -78 -308 -120 -436 -45 -137 -96 -352 -87 -366 12 -21 21 -2 27 54 8 77 32 169 101 398 80 262 125 455 164 690 47 292 54 377 58 742 6 441 -7 596 -98 1213 -32 219 -61 400 -64 403 -2 2 -13 -14 -24 -36z"
       id="path306"
       style="fill:#400054" />
    <path
       d="M6270 5159 c-15 -27 -5 -64 30 -112 l29 -40 23 47 22 46 -39 40 c-45 46 -50 48 -65 19z"
       id="path308"
       style="fill:#e4dc08" />
    <path
       d="M3645 5083 c-62 -314 -99 -1185 -71 -1678 l8 -150 53 -51 c29 -29 61 -57 72 -62 18 -10 19 -8 13 39 -4 28 -15 58 -27 71 -27 30 -68 97 -77 126 -12 37 10 25 28 -16 10 -21 28 -52 42 -68 l24 -29 -5 55 c-21 244 -28 405 -27 655 0 272 20 633 42 785 5 36 14 105 19 154 l10 88 -39 84 c-22 46 -42 84 -44 84 -2 0 -11 -39 -21 -87z"
       id="path310"
       style="fill:#400054" />
    <path
       d="M3834 5077 c-22 -34 -46 -61 -52 -59 -13 2 -3 -29 35 -103 l21 -39 29 59 c42 83 56 147 41 179 -6 15 -16 26 -22 26 -6 0 -29 -28 -52 -63z"
       id="path312"
       style="fill:#e4dc08" />
    <path
       d="M4700 5083 c0 -16 7 -46 15 -68 8 -22 14 -63 15 -91 0 -47 -2 -52 -26 -58 -21 -6 -25 -11 -22 -39 4 -45 49 -64 223 -95 127 -22 176 -25 530 -32 322 -5 400 -10 449 -24 32 -9 60 -15 61 -14 5 7 -13 137 -25 178 l-13 45 -10 -37 c-7 -30 -14 -38 -32 -38 -39 0 -75 18 -75 38 0 35 32 112 54 130 24 18 24 42 1 42 -13 0 -65 -96 -65 -119 0 -6 -4 -11 -10 -11 -10 0 -15 18 -24 85 -6 43 -43 85 -76 85 -29 0 -69 -41 -84 -85 -18 -52 -33 -55 -42 -8 -9 52 -43 111 -68 119 -15 5 -28 -2 -53 -32 -19 -21 -37 -51 -41 -68 -11 -43 -29 -43 -37 1 -9 52 -22 72 -51 83 -52 20 -114 -43 -114 -115 0 -45 -18 -26 -31 33 -14 62 -45 102 -80 102 -30 0 -75 -52 -94 -110 -9 -28 -20 -50 -24 -50 -4 0 -13 23 -20 52 -14 60 -35 88 -67 88 -31 0 -60 -33 -80 -92 -8 -26 -19 -48 -24 -48 -11 0 -20 38 -20 87 0 43 -17 93 -32 93 -4 0 -8 -12 -8 -27z m196 -44 c15 -17 19 -36 19 -98 l0 -76 -53 -3 c-70 -4 -85 8 -76 62 12 78 46 135 80 136 6 0 19 -9 30 -21z m590 13 c21 -13 37 -56 44 -116 9 -74 1 -86 -54 -86 -64 0 -70 8 -63 84 7 78 29 126 57 126 3 0 10 -4 16 -8z m-381 -26 c12 -17 15 -43 13 -92 l-3 -69 -60 0 c-59 0 -60 1 -63 29 -9 72 31 156 73 156 15 0 31 -9 40 -24z m195 14 c39 -21 57 -160 23 -179 -27 -14 -124 -1 -131 17 -8 21 14 119 33 148 16 25 44 30 75 14z m404 -42 c7 -18 16 -59 19 -91 5 -52 4 -59 -18 -73 -27 -18 -82 -8 -99 18 -12 20 6 141 24 163 23 27 60 18 74 -17z"
       id="path314"
       style="fill:#c490d4" />
    <path
       d="M4831 5003 c-7 -15 -15 -49 -18 -75 l-6 -48 47 0 46 0 0 56 c0 30 -5 64 -10 75 -15 27 -45 24 -59 -8z"
       id="path316"
       style="fill:#fcfc54" />
    <path
       d="M5441 4986 c-6 -25 -11 -61 -11 -80 0 -35 1 -36 40 -36 l41 0 -7 68 c-4 37 -11 73 -17 80 -18 23 -35 12 -46 -32z"
       id="path318"
       style="fill:#fcfc54" />
    <path
       d="M5042 5018 c-12 -16 -32 -85 -32 -115 0 -21 5 -23 45 -23 l45 0 0 63 c0 61 -11 87 -36 87 -6 0 -16 -6 -22 -12z"
       id="path320"
       style="fill:#fcfc54" />
    <path
       d="M5236 4998 c-8 -18 -17 -52 -21 -74 l-6 -42 45 -6 c63 -10 70 -3 63 61 -9 88 -56 122 -81 61z"
       id="path322"
       style="fill:#fcfc54" />
    <path
       d="M5640 4990 c-6 -12 -12 -47 -13 -78 l-2 -57 38 -3 37 -3 0 55 c0 88 -33 136 -60 86z"
       id="path324"
       style="fill:#fcfc54" />
    <path
       d="M6356 5012 l-37 -78 11 -100 c6 -54 19 -182 30 -284 11 -102 28 -273 39 -380 11 -107 26 -249 33 -315 20 -183 17 -684 -5 -876 -46 -409 -127 -737 -287 -1162 -12 -32 -20 -60 -18 -62 11 -11 118 -52 122 -47 2 4 7 34 11 67 4 33 30 132 57 220 121 389 165 585 207 915 64 497 41 1387 -48 1860 -19 102 -68 310 -74 317 -2 1 -20 -32 -41 -75z"
       id="path326"
       style="fill:#fcfc0c" />
    <path
       d="M4691 4984 c0 -17 -4 -46 -7 -63 -5 -24 -3 -31 10 -31 18 0 20 22 7 85 -8 37 -9 38 -10 9z"
       id="path328"
       style="fill:#fcfc54" />
    <path
       d="M5850 4955 c-6 -8 -18 -35 -26 -61 -15 -50 -9 -64 27 -64 19 0 29 28 29 87 0 46 -11 61 -30 38z"
       id="path330"
       style="fill:#fcfc54" />
    <path
       d="M3766 4943 c-6 -21 -19 -126 -43 -358 -24 -230 -25 -1007 -1 -1218 13 -120 27 -172 42 -156 2 2 -2 60 -10 129 -33 305 -27 1109 10 1475 14 133 15 169 2 128z"
       id="path332"
       style="fill:#fcfc0c" />
    <path
       d="M4202 4915 c-27 -59 -5 -170 56 -291 57 -111 53 -111 107 -4 80 159 104 263 69 306 -8 10 -17 15 -20 9 -19 -41 -91 -150 -99 -149 -5 1 -27 36 -50 78 -22 41 -43 76 -46 76 -3 0 -11 -11 -17 -25z"
       id="path334"
       style="fill:#d8cc0c" />
    <path
       d="M3865 4887 c-17 -32 -17 -35 4 -82 26 -58 41 -51 49 23 4 47 -9 92 -27 92 -4 0 -16 -15 -26 -33z"
       id="path336"
       style="fill:#e4dc08" />
    <path
       d="M3791 4905 c-27 -316 -35 -529 -35 -910 0 -522 18 -798 55 -827 29 -24 42 -23 33 4 -11 37 -8 421 5 598 7 91 21 275 32 408 10 134 19 305 18 380 l0 137 -54 110 c-29 61 -54 105 -54 100z"
       id="path338"
       style="fill:#400054" />
    <path
       d="M6295 4810 c5 -71 18 -201 64 -635 11 -104 26 -289 32 -411 33 -597 -63 -1269 -267 -1869 -19 -54 -34 -106 -33 -115 0 -22 40 70 86 200 75 215 78 227 133 450 116 478 147 994 90 1525 -10 99 -28 270 -39 380 -44 426 -53 501 -62 525 -6 17 -7 0 -4 -50z"
       id="path340"
       style="fill:#6c0090" />
    <path
       d="M6217 4718 l-46 -103 19 -115 c19 -113 30 -213 51 -460 14 -161 14 -673 0 -814 -6 -60 -9 -112 -6 -114 7 -8 57 111 62 151 5 36 18 55 30 44 10 -10 -29 -123 -68 -195 -38 -72 -52 -146 -29 -154 5 -1 14 -37 20 -78 6 -41 18 -95 26 -119 14 -44 12 -63 -5 -45 -12 12 -51 169 -52 208 -1 26 -3 24 -11 -14 -9 -43 -5 -143 8 -220 8 -41 -6 -33 -22 13 -11 34 -9 43 -74 -308 -40 -212 -62 -334 -81 -429 -24 -125 -24 -148 1 -163 16 -11 21 -10 29 5 13 25 89 255 112 342 177 655 232 1230 174 1835 -34 360 -84 827 -89 832 -2 2 -24 -43 -49 -99z m123 -1583 c0 -14 -98 -106 -103 -98 -7 11 75 103 91 103 7 0 12 -2 12 -5z"
       id="path342"
       style="fill:#400054" />
    <path
       d="M4680 4741 c0 -27 5 -31 73 -55 91 -32 211 -46 398 -46 167 0 337 -12 559 -40 85 -11 174 -22 198 -25 l42 -5 0 34 c0 31 -3 34 -42 44 -96 25 -201 32 -480 32 -298 0 -432 10 -603 46 -44 9 -92 23 -107 30 -36 19 -38 18 -38 -15z"
       id="path344"
       style="fill:#cca0d8" />
    <path
       d="M4680 4600 l0 -89 59 30 c33 16 62 29 65 29 3 0 27 -31 52 -70 26 -38 50 -70 54 -70 4 0 29 25 55 55 25 30 52 55 58 55 6 0 44 -32 83 -71 l71 -71 68 63 c37 35 70 65 74 67 4 1 37 -29 74 -68 38 -38 71 -70 75 -70 4 0 32 30 62 65 30 35 60 65 67 65 6 0 33 -27 58 -60 25 -33 51 -60 56 -60 6 0 41 25 78 55 38 30 71 55 74 55 4 0 22 -23 41 -51 l35 -52 6 35 c4 19 5 50 3 68 -4 41 -7 42 -218 65 -80 8 -172 20 -205 26 -33 5 -195 14 -360 19 -306 8 -341 13 -457 59 l-28 11 0 -90z m312 -9 c7 -6 -81 -81 -94 -81 -8 0 -67 87 -62 92 7 7 147 -3 156 -11z m261 -20 c5 -6 -65 -65 -94 -79 -5 -2 -69 81 -69 91 0 8 154 -4 163 -12z m282 -22 c6 -6 1 -15 -13 -25 -13 -9 -35 -26 -50 -39 l-26 -23 -33 46 c-17 25 -30 49 -28 53 6 9 138 -1 150 -12z m260 -23 c0 -5 -17 -22 -38 -39 l-37 -31 -30 29 c-48 46 -41 56 38 53 37 -2 67 -7 67 -12z"
       id="path346"
       style="fill:#6c0090" />
    <path
       d="M4887 4558 c18 -18 24 -19 37 -8 25 20 19 30 -21 30 l-37 0 21 -22z"
       id="path348"
       style="fill:#fcfc4c" />
    <path
       d="M5130 4560 c0 -3 7 -13 14 -23 14 -18 16 -18 40 -2 14 10 26 19 26 20 0 2 -18 5 -40 7 -22 2 -40 1 -40 -2z"
       id="path350"
       style="fill:#fcfc4c" />
    <path
       d="M5431 4523 c7 -10 14 -19 15 -21 4 -7 44 19 44 28 0 6 -16 10 -36 10 -33 0 -35 -2 -23 -17z"
       id="path352"
       style="fill:#fcfc4c" />
    <path
       d="M5700 4505 c7 -8 18 -15 25 -15 7 0 18 7 25 15 11 13 7 15 -25 15 -32 0 -36 -2 -25 -15z"
       id="path354"
       style="fill:#fcfc4c" />
    <path
       d="M4371 4581 c-23 -44 -47 -81 -54 -81 -12 0 -49 53 -81 118 -14 27 -20 31 -31 22 -22 -18 -29 -75 -15 -128 14 -56 67 -170 109 -231 l29 -44 22 43 c78 153 116 329 78 366 -15 16 -19 11 -57 -65z"
       id="path356"
       style="fill:#d8cc0c" />
    <path
       d="M3920 4536 c0 -107 -10 -254 -41 -644 -33 -400 -16 -933 30 -961 6 -4 15 -49 21 -101 6 -52 19 -124 29 -160 50 -171 87 -418 118 -768 6 -77 13 -91 33 -67 13 16 5 112 -31 375 -27 193 -51 315 -109 555 -27 110 -54 229 -61 265 -19 102 -14 603 10 955 26 373 31 602 14 630 -10 17 -12 3 -13 -79z"
       id="path358"
       style="fill:#6c0090" />
    <path
       d="M6146 4547 c-4 -16 2 -106 13 -200 40 -342 54 -581 48 -839 -2 -133 -10 -279 -15 -323 -6 -44 -16 -132 -22 -195 -5 -63 -21 -160 -35 -215 -62 -247 -96 -437 -136 -753 -19 -150 -20 -198 -5 -181 2 2 13 58 25 124 19 112 31 175 81 445 29 153 76 437 95 575 33 237 44 672 25 1020 -9 164 -43 478 -59 540 l-7 30 -8 -28z"
       id="path360"
       style="fill:#fcfc0c" />
    <path
       d="M4722 4511 c-39 -21 -49 -31 -40 -38 19 -15 95 -42 159 -57 l55 -13 -45 68 c-25 38 -53 68 -61 68 -8 -1 -39 -13 -68 -28z m86 -31 c3 -38 1 -42 -15 -35 -10 4 -28 10 -40 12 -30 7 -29 22 5 50 36 30 46 25 50 -27z"
       id="path362"
       style="fill:#fcfc4c" />
    <path
       d="M4765 4480 c3 -5 8 -10 11 -10 2 0 4 5 4 10 0 6 -5 10 -11 10 -5 0 -7 -4 -4 -10z"
       id="path364"
       style="fill:none" />
    <path
       d="M4966 4456 c-25 -30 -42 -57 -37 -61 6 -3 81 -15 168 -27 132 -17 187 -19 333 -14 96 3 196 9 222 12 l46 6 -45 57 c-25 31 -47 58 -50 60 -2 3 -34 -26 -72 -63 l-69 -68 -71 72 -71 73 -64 -61 c-35 -34 -70 -62 -78 -62 -7 0 -43 29 -78 65 -35 36 -70 65 -76 65 -6 0 -32 -24 -58 -54z m84 -11 c15 -44 9 -52 -34 -47 -42 5 -47 24 -14 59 29 31 34 29 48 -12z m283 -22 l15 -38 -40 -3 c-22 -2 -42 -1 -45 2 -7 6 36 76 47 76 4 0 15 -17 23 -37z m284 -21 c3 -13 4 -24 2 -26 -7 -6 -79 6 -79 13 0 3 10 22 21 41 20 33 22 33 36 15 7 -11 16 -30 20 -43z"
       id="path366"
       style="fill:#fcfc4c" />
    <path
       d="M5010 4430 c0 -5 5 -10 10 -10 6 0 10 5 10 10 0 6 -4 10 -10 10 -5 0 -10 -4 -10 -10z"
       id="path368"
       style="fill:none" />
    <path
       d="M5295 4410 c-3 -5 1 -10 10 -10 9 0 13 5 10 10 -3 6 -8 10 -10 10 -2 0 -7 -4 -10 -10z"
       id="path370"
       style="fill:none" />
    <path
       d="M5575 4410 c-3 -5 -1 -10 4 -10 6 0 11 5 11 10 0 6 -2 10 -4 10 -3 0 -8 -4 -11 -10z"
       id="path372"
       style="fill:none" />
    <path
       d="M3971 4455 c-1 -22 -6 -96 -11 -165 -5 -68 -14 -210 -20 -315 -5 -104 -14 -289 -21 -410 -6 -130 -8 -271 -3 -345 l8 -125 8 70 c9 85 45 661 54 875 8 188 6 349 -5 410 l-8 45 -2 -40z"
       id="path374"
       style="fill:#6c0090" />
    <path
       d="M5786 4425 l-69 -55 46 0 c44 0 46 1 57 38 7 20 16 41 20 45 7 8 60 -51 60 -66 0 -4 -15 -8 -32 -8 -25 -1 -21 -3 17 -9 28 -4 51 -6 52 -6 4 3 -71 116 -77 116 -3 0 -36 -25 -74 -55z"
       id="path376"
       style="fill:#cca0d8" />
    <path
       d="M6117 4425 c-11 -63 -8 -258 8 -545 25 -454 37 -624 45 -639 4 -8 11 73 15 180 10 272 -10 633 -53 984 l-7 60 -8 -40z"
       id="path378"
       style="fill:#6c0090" />
    <path
       d="M4650 4403 c-7 -27 -14 -52 -14 -57 -2 -19 106 -67 205 -92 235 -58 467 -75 720 -50 92 9 188 16 214 16 46 0 47 1 32 18 -21 23 -22 56 -3 71 21 18 67 9 83 -15 12 -19 11 -25 -12 -53 l-27 -31 30 0 c27 0 31 4 41 44 20 79 18 84 -43 91 -30 4 -159 2 -288 -5 -277 -15 -448 -7 -618 26 -107 21 -238 56 -290 78 -12 5 -19 -5 -30 -41z m130 -22 c16 -31 12 -49 -15 -67 -22 -14 -30 -15 -50 -4 -27 15 -34 57 -13 78 19 19 66 15 78 -7z m218 -53 c7 -7 12 -21 12 -33 0 -44 -56 -61 -92 -28 -22 20 -23 31 -1 55 18 20 63 24 81 6z m273 -28 c12 -7 19 -21 19 -40 0 -45 -52 -66 -84 -34 -45 45 7 104 65 74z m283 -6 c9 -8 16 -20 16 -26 0 -21 -33 -48 -60 -48 -31 0 -50 17 -50 45 0 12 5 26 12 33 17 17 64 15 82 -4z"
       id="path380"
       style="fill:#cca0d8" />
    <path
       d="M4712 4367 c-10 -11 -9 -17 2 -26 21 -18 51 -9 51 14 0 24 -36 32 -53 12z"
       id="path382"
       style="fill:#fcfc4c" />
    <path
       d="M4933 4304 c-3 -8 1 -22 9 -30 12 -12 17 -12 33 -1 23 17 14 47 -15 47 -11 0 -23 -7 -27 -16z"
       id="path384"
       style="fill:#fcfc4c" />
    <path
       d="M5214 4275 c-4 -9 0 -23 8 -31 20 -20 50 -7 46 20 -4 26 -45 35 -54 11z"
       id="path386"
       style="fill:#fcfc4c" />
    <path
       d="M5484 4276 c-9 -22 4 -36 32 -36 21 0 25 4 22 23 -4 26 -45 37 -54 13z"
       id="path388"
       style="fill:#fcfc4c" />
    <path
       d="M5845 4410 c-3 -5 -1 -10 4 -10 6 0 11 5 11 10 0 6 -2 10 -4 10 -3 0 -8 -4 -11 -10z"
       id="path390"
       style="fill:none" />
    <path
       d="M4380 4295 c-21 -47 -44 -85 -50 -85 -6 0 -33 34 -59 76 -48 74 -50 75 -62 53 -19 -36 -13 -100 14 -167 30 -75 107 -212 119 -212 23 0 118 263 118 326 0 32 -23 94 -36 94 -3 0 -23 -38 -44 -85z"
       id="path392"
       style="fill:#d8cc0c" />
    <path
       d="M4612 4308 c-9 -9 -4 -16 18 -29 24 -15 30 -27 36 -68 l6 -49 36 15 c48 20 95 10 126 -28 14 -17 26 -37 26 -46 0 -11 8 -8 31 11 17 14 42 26 55 26 29 0 71 -38 79 -72 l6 -25 34 34 c22 22 42 33 63 33 34 0 78 -31 87 -61 l7 -21 22 21 c34 32 81 28 117 -11 20 -22 29 -27 29 -17 0 24 39 69 68 80 38 15 81 1 101 -32 l18 -29 33 35 c20 20 44 35 57 35 27 0 73 -41 73 -66 0 -12 11 -7 40 20 27 24 50 36 69 36 24 0 31 6 40 31 20 59 20 59 -91 59 -57 0 -187 -5 -289 -11 -338 -20 -682 26 -835 112 -38 21 -53 26 -62 17z"
       id="path394"
       style="fill:#cca0d8" />
    <path
       d="M5814 4286 c-9 -22 4 -36 32 -36 21 0 25 4 22 23 -4 26 -45 37 -54 13z"
       id="path396"
       style="fill:#fcfc4c" />
    <path
       d="M4563 4216 c-25 -52 -49 -156 -40 -178 8 -21 72 -44 307 -106 264 -69 319 -73 515 -32 144 30 252 35 370 17 62 -10 104 -12 110 -6 5 5 2 9 -11 9 -11 0 -28 6 -37 13 -14 10 -15 17 -5 49 15 49 42 78 73 78 14 0 25 5 25 10 0 15 -33 12 -58 -6 -13 -9 -34 -33 -48 -55 -31 -49 -44 -49 -44 -1 0 43 -23 82 -49 82 -18 0 -57 -37 -86 -82 -21 -33 -35 -28 -35 13 0 34 -31 69 -61 69 -24 0 -79 -51 -79 -74 0 -8 -5 -27 -11 -42 l-10 -28 -29 51 c-17 29 -38 53 -51 56 l-21 6 21 -20 c23 -22 34 -55 29 -90 -2 -20 -11 -25 -46 -30 -50 -6 -58 2 -49 56 7 43 0 45 -14 5 -16 -44 -26 -37 -31 20 -6 58 -30 90 -67 90 l-26 -1 27 -14 c28 -16 33 -25 44 -88 9 -51 -4 -63 -65 -59 l-51 4 0 37 c0 20 9 54 19 75 19 37 19 38 1 21 -11 -10 -24 -33 -30 -51 -15 -45 -26 -43 -33 6 -15 112 -104 124 -156 23 -19 -37 -29 -26 -28 28 2 44 -2 54 -26 75 -15 13 -37 24 -48 24 -32 0 -74 -26 -87 -55 -8 -17 -18 -25 -27 -21 -9 3 -15 0 -15 -9 0 -18 -7 -18 -50 -4 -31 11 -32 14 -28 54 7 58 29 99 55 103 24 4 30 -9 36 -83 4 -39 4 -39 5 7 3 64 -12 98 -41 98 -17 0 -28 -11 -44 -44z m228 -93 c11 -28 8 -118 -4 -130 -7 -7 -73 11 -96 26 -12 8 -13 16 -2 53 16 54 37 78 68 78 16 0 27 -8 34 -27z m178 -37 c7 -9 11 -38 9 -73 l-3 -58 -40 -3 c-62 -4 -72 7 -57 65 20 74 61 105 91 69z m542 -43 c5 -15 9 -41 7 -57 -3 -29 -6 -31 -43 -31 -33 0 -41 4 -43 21 -2 12 4 38 12 58 19 45 51 49 67 9z m177 -4 c7 -13 11 -40 10 -59 -3 -34 -4 -35 -51 -38 -52 -3 -64 8 -53 51 7 31 53 80 69 74 6 -2 18 -14 25 -28z"
       id="path398"
       style="fill:#6c0090" />
    <path
       d="M4733 4118 c-6 -7 -15 -28 -21 -45 -9 -29 -8 -34 8 -43 10 -5 28 -10 39 -10 18 0 21 6 21 39 0 65 -22 92 -47 59z"
       id="path400"
       style="fill:#fcfc6c" />
    <path
       d="M4921 4066 c-6 -8 -16 -29 -21 -47 -11 -37 -2 -49 38 -49 21 0 23 3 20 52 -3 53 -16 69 -37 44z"
       id="path402"
       style="fill:#fcfc6c" />
    <path
       d="M5467 4043 c-4 -3 -7 -21 -7 -40 0 -23 5 -33 15 -33 20 0 29 23 21 55 -6 25 -17 31 -29 18z"
       id="path404"
       style="fill:#fcfc6c" />
    <path
       d="M5637 4027 c-29 -44 -26 -62 11 -65 l33 -3 -7 38 c-9 51 -18 59 -37 30z"
       id="path406"
       style="fill:#fcfc6c" />
    <path
       d="M4590 4200 c-6 -11 -12 -37 -13 -57 -2 -33 1 -38 21 -41 20 -3 22 0 22 52 0 59 -12 79 -30 46z"
       id="path408"
       style="fill:#fcfc6c" />
    <path
       d="M4423 4073 c-15 -47 -67 -153 -74 -153 -10 0 -38 36 -74 98 -16 29 -33 52 -37 52 -18 0 -30 -78 -19 -129 12 -55 101 -254 119 -265 13 -8 51 55 92 154 35 83 49 188 31 233 -12 31 -29 35 -38 10z"
       id="path410"
       style="fill:#d8cc0c" />
    <path
       d="M5101 4042 c-5 -10 -12 -34 -16 -55 -7 -36 -7 -37 24 -37 17 0 34 0 39 -1 7 -1 5 52 -4 83 -7 24 -32 30 -43 10z"
       id="path412"
       style="fill:#fcfc6c" />
    <path
       d="M5818 4023 c-8 -10 -19 -31 -26 -46 -10 -23 -9 -29 3 -33 24 -10 42 2 48 33 3 15 9 36 12 46 5 11 2 17 -7 17 -8 0 -21 -8 -30 -17z"
       id="path414"
       style="fill:#fcfc6c" />
    <path
       d="M5270 4001 c-5 -11 -10 -29 -10 -40 0 -17 6 -21 30 -21 33 0 37 11 20 54 -11 31 -25 33 -40 7z"
       id="path416"
       style="fill:#fcfc6c" />
    <path
       d="M4491 3956 c-6 -28 -16 -70 -23 -93 -11 -38 -10 -44 8 -64 30 -33 26 -127 -9 -211 -28 -64 -28 -67 -11 -92 25 -39 14 -126 -25 -204 -17 -34 -27 -62 -22 -62 5 0 14 -14 21 -30 17 -41 7 -118 -23 -184 l-24 -51 21 -28 c27 -37 26 -131 -2 -204 l-19 -51 20 -21 c28 -28 34 -118 13 -199 -15 -60 -15 -63 4 -82 10 -10 24 -38 30 -60 11 -41 10 -61 -12 -152 -11 -43 -10 -50 9 -70 38 -41 46 -100 28 -189 -8 -43 -18 -85 -21 -93 -7 -17 92 -36 193 -36 57 0 73 4 88 20 17 19 17 22 -4 76 -27 72 -28 147 -2 173 20 20 20 20 -5 70 -28 60 -32 135 -8 170 16 22 15 26 -7 69 -32 65 -37 140 -11 171 19 25 19 25 -4 78 -37 83 -40 122 -12 163 l24 35 -23 55 c-28 69 -29 122 -2 170 20 36 20 38 4 70 -9 18 -19 59 -22 90 -5 50 -3 59 20 85 l25 30 -19 48 c-27 68 -25 138 5 174 19 23 22 33 14 53 -35 93 -30 167 12 205 11 10 16 23 13 29 -4 6 -14 37 -23 70 l-15 59 -96 32 -97 32 -11 -51z"
       id="path418"
       style="fill:#700094" />
    <path
       d="M5878 3980 c-10 -6 -20 -29 -24 -55 -7 -51 -9 -51 -98 -34 -31 7 -59 9 -62 6 -10 -10 32 -91 76 -146 l43 -54 23 26 c47 54 104 164 106 200 2 55 -25 79 -64 57z"
       id="path420"
       style="fill:#d0c010" />
    <path
       d="M4734 3888 c4 -24 27 -85 52 -137 l45 -94 50 69 c49 67 94 143 87 148 -4 4 -223 56 -233 56 -4 0 -5 -19 -1 -42z"
       id="path422"
       style="fill:#d0c010" />
    <path
       d="M5385 3888 c-22 -5 -57 -14 -78 -19 l-37 -10 16 -32 c9 -18 39 -65 67 -105 57 -83 51 -83 105 7 23 40 62 141 62 163 0 11 -85 9 -135 -4z"
       id="path424"
       style="fill:#d0c010" />
    <path
       d="M5540 3880 c0 -11 -7 -37 -15 -57 -14 -32 -14 -38 -1 -45 38 -21 42 -106 9 -190 -13 -33 -13 -40 1 -60 24 -34 20 -104 -9 -167 -14 -30 -22 -57 -17 -60 38 -25 41 -104 6 -173 -21 -42 -24 -55 -15 -75 19 -41 13 -97 -17 -156 -27 -53 -27 -56 -10 -77 26 -32 22 -76 -11 -146 -27 -56 -28 -63 -13 -78 24 -23 20 -102 -7 -155 l-23 -44 22 -39 c25 -44 22 -78 -10 -150 l-19 -42 25 -29 c29 -35 31 -78 5 -146 -18 -49 -18 -49 2 -70 15 -14 22 -37 25 -81 2 -33 8 -60 12 -60 16 0 165 22 168 24 1 2 -4 16 -13 32 -22 43 -20 117 5 139 19 17 19 18 0 56 -27 52 -26 116 1 145 21 22 21 24 5 70 -23 68 -21 106 10 139 22 24 24 31 15 58 -20 55 -14 118 14 147 22 23 24 30 15 60 -17 61 -12 108 14 135 l24 24 -19 52 c-22 58 -19 89 11 119 19 19 19 20 -5 66 -30 57 -31 83 -6 116 20 25 20 25 -5 73 -28 56 -31 101 -8 133 14 21 14 26 -10 74 -31 62 -33 97 -6 131 l20 25 -25 50 c-31 61 -31 91 -4 126 l21 27 -20 47 -20 47 -61 3 c-56 3 -61 1 -61 -18z"
       id="path426"
       style="fill:#700094" />
    <path
       d="M4972 3831 c-19 -36 -19 -40 -4 -55 24 -24 21 -109 -6 -170 l-22 -49 21 -43 c23 -50 21 -75 -17 -160 -13 -30 -19 -54 -13 -54 5 0 17 -16 25 -37 18 -41 13 -80 -17 -149 -19 -45 -19 -46 0 -70 32 -41 34 -76 9 -152 l-24 -70 23 -27 c29 -33 30 -95 5 -163 l-19 -49 24 -27 c28 -33 31 -109 8 -176 -14 -41 -14 -43 10 -72 30 -36 32 -96 7 -173 -17 -49 -17 -50 6 -72 28 -28 30 -98 3 -176 -16 -47 -17 -56 -5 -61 8 -3 19 -17 26 -31 11 -24 16 -25 87 -25 l76 0 -4 51 c-2 37 1 55 14 69 16 18 15 22 -9 84 -31 78 -32 101 -6 144 l21 34 -21 54 c-11 30 -20 68 -20 85 0 32 23 85 39 91 6 2 1 29 -11 63 -24 71 -20 126 12 160 22 23 22 25 6 71 -24 72 -21 114 12 154 27 31 28 36 16 69 -25 70 -10 171 28 183 9 3 8 17 -5 57 -25 78 -22 126 9 158 25 25 25 26 10 64 -9 22 -16 55 -16 75 0 40 24 104 40 104 6 0 2 17 -10 39 -31 61 -34 110 -11 154 l20 39 -20 41 -21 42 -101 0 c-56 1 -114 4 -129 8 -23 6 -28 2 -46 -32z"
       id="path428"
       style="fill:#700094" />
    <path
       d="M4399 3717 c-25 -44 -49 -82 -55 -84 -5 -2 -27 30 -48 69 -49 92 -51 95 -67 67 -21 -39 -13 -135 20 -229 33 -96 59 -160 66 -160 8 0 82 115 112 175 43 85 58 155 43 199 -6 20 -15 37 -18 40 -4 2 -27 -33 -53 -77z"
       id="path430"
       style="fill:#f4f000" />
    <path
       d="M5870 3732 c-23 -34 -46 -62 -51 -62 -4 0 -29 25 -55 55 -42 48 -50 53 -63 41 -35 -35 -2 -128 77 -216 l48 -54 31 45 c40 58 79 136 87 175 5 22 2 37 -12 54 l-19 23 -43 -61z"
       id="path432"
       style="fill:#b09820" />
    <path
       d="M4719 3753 c-33 -39 -5 -154 65 -277 l34 -59 35 49 c52 70 108 183 113 230 4 25 1 46 -9 58 -13 18 -17 15 -67 -53 -60 -83 -64 -82 -111 11 -31 62 -39 67 -60 41z"
       id="path434"
       style="fill:#b09820" />
    <path
       d="M5466 3701 c-56 -92 -58 -92 -108 -22 -24 33 -50 59 -58 58 -27 -4 -35 -62 -15 -114 20 -51 105 -203 115 -203 3 0 24 28 48 63 46 68 91 169 92 204 0 29 -17 73 -29 73 -5 0 -26 -26 -45 -59z"
       id="path436"
       style="fill:#b09820" />
    <path
       d="M5876 3530 c-21 -33 -42 -60 -46 -60 -4 0 -30 24 -58 54 -56 62 -72 60 -72 -9 0 -28 9 -56 29 -87 34 -53 99 -128 112 -128 13 0 91 139 106 189 14 48 3 101 -21 101 -6 0 -28 -27 -50 -60z"
       id="path438"
       style="fill:#b09820" />
    <path
       d="M4705 3507 c-32 -50 -8 -150 68 -274 17 -29 34 -53 38 -53 9 0 72 97 104 160 32 63 43 147 23 173 -13 17 -18 12 -62 -52 -26 -39 -52 -71 -56 -71 -7 0 -39 48 -88 130 -7 11 -12 9 -27 -13z"
       id="path440"
       style="fill:#b09820" />
    <path
       d="M5280 3490 c-7 -17 -10 -48 -7 -70 5 -41 80 -202 102 -220 27 -23 155 190 155 257 0 81 -22 81 -75 1 -22 -34 -45 -63 -51 -65 -7 -2 -30 26 -53 62 -23 36 -45 65 -50 65 -5 0 -14 -14 -21 -30z"
       id="path442"
       style="fill:#987828" />
    <path
       d="M4206 3488 c-28 -43 -28 -89 -2 -188 14 -52 37 -122 51 -155 l27 -59 45 69 c75 116 123 223 123 275 0 80 -16 78 -79 -10 -39 -55 -59 -76 -67 -69 -6 5 -24 43 -40 84 -16 41 -32 75 -36 75 -4 0 -14 -10 -22 -22z"
       id="path444"
       style="fill:#f4f000" />
    <path
       d="M5898 3342 c-46 -83 -52 -84 -110 -24 -40 42 -53 50 -64 41 -19 -15 -18 -63 2 -102 25 -49 115 -157 131 -157 14 0 81 119 100 178 12 38 14 60 7 80 -15 43 -36 37 -66 -16z"
       id="path446"
       style="fill:#d0c010" />
    <path
       d="M3527 3240 c6 -78 16 -110 35 -110 17 0 0 120 -22 155 l-19 30 6 -75z"
       id="path448"
       style="fill:#6c0090" />
    <path
       d="M5258 3265 c-8 -18 -8 -39 1 -82 11 -60 84 -223 98 -223 4 1 26 23 48 51 22 27 50 62 63 77 30 37 56 117 47 150 -14 56 -24 54 -73 -10 -26 -34 -52 -63 -59 -65 -6 -3 -29 25 -50 61 -40 71 -57 80 -75 41z"
       id="path450"
       style="fill:#b09820" />
    <path
       d="M4696 3258 c-20 -28 -20 -59 -1 -123 19 -60 105 -207 120 -202 5 2 36 54 68 115 44 87 57 122 57 156 0 97 -20 99 -78 6 -24 -39 -47 -70 -51 -70 -3 0 -26 32 -50 70 -24 39 -45 70 -47 70 -2 0 -10 -10 -18 -22z"
       id="path452"
       style="fill:#d0c010" />
    <path
       d="M4179 3209 c-41 -63 -24 -175 47 -317 l47 -94 44 79 c55 100 103 223 103 266 0 31 -23 78 -33 67 -2 -3 -25 -38 -50 -77 -26 -40 -51 -73 -55 -73 -5 0 -27 39 -49 86 -39 85 -39 86 -54 63z"
       id="path454"
       style="fill:#f4f000" />
    <path
       d="M3587 3168 c7 -54 10 -57 63 -66 24 -4 45 -13 48 -21 4 -11 -2 -12 -24 -7 -16 4 -39 10 -51 13 -20 4 -23 1 -23 -23 1 -75 39 -344 85 -589 8 -44 33 -174 54 -290 22 -115 49 -268 62 -340 28 -170 22 -156 59 -143 40 13 44 26 31 85 -6 26 -16 161 -21 298 -7 161 -17 287 -29 355 -11 58 -22 124 -26 148 -4 23 -10 42 -14 42 -4 0 -17 -20 -29 -45 -12 -25 -26 -45 -32 -45 -14 0 -14 1 20 65 33 63 34 76 17 184 l-12 74 -44 -56 c-24 -31 -50 -57 -58 -57 -10 0 -4 14 19 41 77 94 76 92 62 204 -11 84 -17 103 -36 118 -13 10 -44 36 -70 57 -26 22 -49 40 -51 40 -3 0 -3 -19 0 -42z"
       id="path456"
       style="fill:#540070" />
    <path
       d="M3743 3155 c3 -22 11 -80 18 -128 17 -120 33 -99 24 31 -6 83 -11 104 -28 119 -20 18 -20 18 -14 -22z"
       id="path458"
       style="fill:#fcfc80" />
    <path
       d="M5908 3130 c-20 -33 -43 -60 -50 -60 -7 0 -33 23 -56 50 -37 43 -46 49 -59 38 -30 -24 -11 -92 53 -185 l58 -86 33 39 c42 50 89 139 97 184 6 34 -13 80 -32 80 -4 0 -24 -27 -44 -60z"
       id="path460"
       style="fill:#b09820" />
    <path
       d="M3805 3083 c4 -32 10 -60 14 -63 3 -3 7 -35 7 -71 1 -36 6 -74 11 -84 8 -14 12 -4 20 48 12 86 0 195 -24 213 -31 23 -36 16 -28 -43z"
       id="path462"
       style="fill:#fcfc80" />
    <path
       d="M3540 3083 c0 -35 34 -306 60 -483 43 -284 101 -581 163 -832 30 -124 50 -115 27 13 -42 239 -54 306 -70 389 -77 397 -140 785 -140 867 0 45 -12 73 -32 73 -4 0 -8 -12 -8 -27z"
       id="path464"
       style="fill:#6c0090" />
    <path
       d="M5240 3036 c-21 -40 -7 -113 40 -213 24 -51 47 -93 51 -93 15 0 124 154 147 207 18 42 20 56 11 82 -6 17 -14 31 -17 31 -4 0 -29 -27 -57 -60 -27 -33 -55 -60 -61 -60 -5 0 -26 29 -45 65 -18 36 -39 65 -45 65 -6 0 -16 -11 -24 -24z"
       id="path466"
       style="fill:#987828" />
    <path
       d="M4900 3032 c0 -16 -79 -132 -90 -132 -6 0 -29 29 -52 65 -23 36 -45 65 -48 65 -11 0 -30 -49 -30 -78 1 -39 40 -128 90 -205 35 -53 47 -64 56 -55 7 7 34 56 60 108 51 101 66 178 45 219 -12 21 -31 29 -31 13z"
       id="path468"
       style="fill:#d0c010" />
    <path
       d="M5926 2941 c-15 -21 -37 -48 -50 -61 l-24 -22 -41 56 c-23 31 -48 56 -56 56 -19 0 -29 -41 -20 -87 6 -32 73 -164 94 -186 12 -12 111 102 137 158 26 55 29 77 14 106 -15 27 -24 24 -54 -20z"
       id="path470"
       style="fill:#d0c010" />
    <path
       d="M4331 2860 c-23 -44 -46 -82 -51 -85 -10 -6 -39 33 -74 103 -14 28 -28 52 -31 52 -2 0 -12 -14 -21 -32 -31 -60 6 -193 88 -320 l40 -62 25 48 c38 75 82 189 94 245 10 50 0 113 -20 125 -4 3 -27 -31 -50 -74z"
       id="path472"
       style="fill:#f4f000" />
    <path
       d="M3785 2900 c-3 -10 -1 -48 6 -82 25 -133 42 -103 24 45 -7 58 -19 73 -30 37z"
       id="path474"
       style="fill:#fcfc80" />
    <path
       d="M3863 2838 c-11 -62 -7 -110 16 -208 30 -134 53 -334 61 -545 10 -239 18 -335 29 -335 3 0 24 10 46 23 35 20 40 27 43 64 4 50 -41 453 -64 573 -40 216 -84 374 -84 304 0 -11 -7 -29 -16 -40 -14 -18 -15 -17 -7 16 11 51 10 187 -3 200 -8 8 -14 -7 -21 -52z"
       id="path476"
       style="fill:#6c0090" />
    <path
       d="M5215 2795 c-12 -28 -13 -45 -4 -87 12 -56 85 -208 100 -208 13 0 96 116 126 175 28 54 35 117 15 137 -10 10 -18 6 -40 -22 -54 -70 -79 -93 -91 -86 -6 4 -25 34 -41 67 -17 32 -35 59 -41 59 -5 0 -17 -16 -24 -35z"
       id="path478"
       style="fill:#b09820" />
    <path
       d="M4891 2764 c-44 -85 -58 -108 -69 -112 -6 -2 -30 25 -53 60 -23 35 -44 65 -46 68 -3 3 -11 -4 -20 -15 -23 -31 -11 -115 28 -183 38 -68 91 -141 102 -142 5 0 31 48 59 108 41 87 51 118 52 164 1 41 -4 62 -16 74 -15 15 -18 14 -37 -22z"
       id="path480"
       style="fill:#b09820" />
    <path
       d="M5722 2768 c-21 -27 -21 -55 2 -118 12 -36 36 -86 52 -113 l30 -48 61 63 c88 92 124 173 91 206 -10 10 -25 0 -69 -44 l-57 -56 -31 42 c-17 23 -33 51 -36 61 -7 22 -28 25 -43 7z"
       id="path482"
       style="fill:#b09820" />
    <path
       d="M3825 2698 c-4 -23 -1 -62 9 -107 30 -132 55 -356 60 -551 6 -195 20 -310 39 -310 6 0 7 29 3 78 -3 42 -11 163 -16 267 -6 105 -12 217 -15 250 -7 73 -43 292 -60 360 l-12 50 -8 -37z"
       id="path484"
       style="fill:#fcfc0c" />
    <path
       d="M4331 2565 c-22 -47 -42 -85 -46 -85 -3 0 -26 33 -52 73 -25 39 -48 74 -50 77 -3 3 -11 -4 -20 -15 -34 -46 2 -176 88 -310 l51 -80 19 38 c38 74 89 243 89 296 0 53 -13 91 -30 91 -6 0 -28 -38 -49 -85z"
       id="path486"
       style="fill:#f4f000" />
    <path
       d="M5194 2575 c-21 -32 -14 -89 17 -160 29 -65 78 -145 90 -145 15 0 115 161 134 215 13 39 15 56 6 78 -6 15 -15 27 -20 27 -5 0 -31 -29 -57 -65 -44 -60 -49 -64 -65 -49 -10 9 -30 40 -46 70 -15 30 -31 54 -35 54 -4 0 -15 -11 -24 -25z"
       id="path488"
       style="fill:#b09820" />
    <path
       d="M5690 2565 c-28 -34 16 -178 77 -254 l19 -23 50 58 c75 87 104 135 104 170 0 59 -21 59 -80 -1 -29 -30 -57 -52 -62 -49 -5 3 -23 30 -39 60 -32 56 -48 65 -69 39z"
       id="path490"
       style="fill:#987828" />
    <path
       d="M4891 2493 c-54 -106 -51 -105 -106 -32 -27 35 -50 66 -53 69 -9 11 -32 -36 -32 -65 0 -41 57 -157 110 -224 l43 -54 33 64 c63 121 88 234 64 280 -17 30 -28 23 -59 -38z"
       id="path492"
       style="fill:#d0c010" />
    <path
       d="M5661 2354 c-7 -15 -9 -41 -5 -63 12 -69 105 -219 122 -195 4 6 29 38 55 72 60 78 87 136 78 170 -4 14 -12 27 -17 29 -5 2 -31 -22 -58 -52 -26 -30 -51 -55 -56 -55 -5 0 -25 27 -46 60 -20 33 -42 60 -49 60 -6 0 -17 -12 -24 -26z"
       id="path494"
       style="fill:#d0c010" />
    <path
       d="M4380 2356 c0 -24 -63 -156 -74 -156 -7 0 -32 31 -57 69 -24 39 -47 70 -52 70 -15 2 -28 -55 -22 -99 12 -84 143 -306 167 -282 5 5 25 56 44 113 40 119 53 222 34 269 -13 30 -40 42 -40 16z"
       id="path496"
       style="fill:#f4f000" />
    <path
       d="M5355 2299 l-49 -72 -33 39 c-18 22 -38 51 -44 67 -25 60 -65 9 -53 -68 6 -44 65 -158 107 -209 l24 -29 35 59 c20 32 46 79 58 103 28 55 37 139 18 164 -13 17 -18 12 -63 -54z"
       id="path498"
       style="fill:#d0c010" />
    <path
       d="M4904 2240 c-22 -41 -44 -75 -50 -77 -6 -2 -32 26 -59 63 -45 61 -50 65 -63 47 -19 -25 -11 -99 18 -157 30 -62 99 -166 111 -166 5 0 23 28 41 63 78 148 96 233 60 277 l-19 23 -39 -73z"
       id="path500"
       style="fill:#b09820" />
    <path
       d="M5657 2163 c-22 -26 -21 -68 4 -123 21 -47 95 -150 107 -150 9 0 80 100 109 154 22 41 28 81 17 110 -11 28 -30 17 -74 -39 -23 -30 -46 -55 -51 -55 -8 0 -62 68 -84 105 -9 16 -11 16 -28 -2z"
       id="path502"
       style="fill:#b09820" />
    <path
       d="M5393 2128 c-5 -7 -25 -39 -43 -70 -19 -32 -37 -58 -40 -58 -10 0 -45 41 -75 88 -22 33 -31 40 -41 31 -22 -18 -17 -103 7 -152 22 -44 110 -166 120 -167 3 0 24 35 46 78 69 128 86 220 48 252 -9 7 -15 7 -22 -2z"
       id="path504"
       style="fill:#987828" />
    <path
       d="M4406 2058 c-9 -21 -16 -40 -16 -43 0 -15 -43 -105 -50 -105 -5 0 -31 32 -60 70 -29 39 -56 68 -60 65 -27 -17 -11 -161 22 -190 15 -14 75 -31 140 -40 l47 -7 15 53 c23 76 21 180 -3 210 l-20 24 -15 -37z"
       id="path506"
       style="fill:#987828" />
    <path
       d="M4910 1984 c-41 -74 -42 -75 -61 -58 -11 10 -34 40 -51 66 -35 53 -54 60 -64 23 -10 -42 5 -110 40 -177 l32 -63 55 0 54 0 32 65 c36 73 51 159 34 196 -6 13 -15 24 -20 24 -5 0 -28 -34 -51 -76z"
       id="path508"
       style="fill:#987828" />
    <path
       d="M5822 1920 c-24 -33 -47 -60 -52 -60 -8 0 -56 51 -83 90 -13 19 -19 21 -32 10 -20 -16 -19 -73 2 -117 l16 -35 56 7 c87 10 145 26 159 43 24 30 11 123 -17 122 -4 0 -26 -27 -49 -60z"
       id="path510"
       style="fill:#987828" />
    <path
       d="M5378 1853 c-18 -32 -35 -62 -37 -66 -1 -4 21 -7 50 -5 l54 3 3 42 c3 42 -11 83 -27 83 -5 0 -24 -26 -43 -57z"
       id="path512"
       style="fill:#987828" />
    <path
       d="M5202 1878 c-13 -13 -16 -65 -6 -92 8 -20 104 -23 104 -3 -1 6 -20 34 -43 60 -34 38 -45 45 -55 35z"
       id="path514"
       style="fill:#987828" />
    <path
       d="M4127 1824 c-18 -24 -18 -26 5 -96 22 -66 27 -73 57 -81 18 -4 35 -6 37 -4 2 2 1 45 -2 95 -7 90 -7 91 -37 102 -39 13 -39 13 -60 -16z"
       id="path516"
       style="fill:#c0ac18" />
    <path
       d="M5940 1750 c0 -49 2 -90 4 -90 3 0 15 31 27 70 22 67 22 70 4 90 -10 11 -22 20 -27 20 -4 0 -8 -40 -8 -90z"
       id="path518"
       style="fill:#c0ac18" />
    <path
       d="M5868 1823 l-28 -4 0 -101 0 -100 28 7 c15 3 32 11 37 16 6 6 12 50 13 99 3 71 1 90 -10 89 -7 -1 -25 -4 -40 -6z"
       id="path520"
       style="fill:#c0ac18" />
    <path
       d="M4244 1758 c16 -140 12 -133 68 -145 l51 -10 -7 66 c-3 36 -6 80 -6 97 0 29 -4 33 -44 43 -70 17 -69 18 -62 -51z"
       id="path522"
       style="fill:#c0ac18" />
    <path
       d="M4952 1800 c-17 -27 -15 -30 13 -30 27 0 34 20 12 38 -9 8 -16 6 -25 -8z"
       id="path524"
       style="fill:none" />
    <path
       d="M5763 1798 l-43 -9 0 -96 0 -96 42 7 c22 4 45 9 50 12 10 6 11 181 1 187 -5 2 -27 0 -50 -5z"
       id="path526"
       style="fill:#c0ac18" />
    <path
       d="M4755 1789 c-10 -15 3 -25 16 -12 7 7 7 13 1 17 -6 3 -14 1 -17 -5z"
       id="path528"
       style="fill:none" />
    <path
       d="M4075 1781 c-3 -6 6 -42 20 -79 47 -116 62 -108 21 11 -26 75 -31 83 -41 68z"
       id="path530"
       style="fill:#c0ac18" />
    <path
       d="M4378 1698 c2 -51 7 -96 11 -99 3 -4 25 -10 49 -14 l42 -7 0 96 c0 52 -3 97 -7 99 -5 3 -29 7 -54 11 l-45 7 4 -93z"
       id="path532"
       style="fill:#c0ac18" />
    <path
       d="M5987 1708 c-29 -90 -31 -83 35 -123 l27 -16 7 38 c4 21 15 57 26 81 10 24 18 45 18 48 0 4 -77 54 -83 54 -1 0 -15 -37 -30 -82z"
       id="path534"
       style="fill:#c0ac18" />
    <path
       d="M5573 1773 l-33 -4 0 -95 0 -95 38 3 37 3 3 98 c1 53 -1 96 -5 95 -4 0 -23 -3 -40 -5z"
       id="path536"
       style="fill:#c0ac18" />
    <path
       d="M5646 1758 c-3 -13 -6 -58 -6 -102 0 -67 2 -77 16 -72 9 3 22 6 30 6 11 0 14 20 14 95 0 93 0 95 -24 95 -16 0 -26 -7 -30 -22z"
       id="path538"
       style="fill:#c0ac18" />
    <path
       d="M4500 1677 l0 -96 38 -6 c94 -15 84 -24 80 80 -1 52 -5 96 -8 99 -3 2 -29 8 -58 12 l-52 7 0 -96z"
       id="path540"
       style="fill:#c0ac18" />
    <path
       d="M5468 1763 l-48 -4 0 -95 0 -94 48 0 47 0 2 100 c2 55 2 99 0 98 -1 -1 -23 -3 -49 -5z"
       id="path542"
       style="fill:#c0ac18" />
    <path
       d="M4019 1750 c-15 -9 -13 -18 13 -92 16 -45 30 -83 31 -84 1 -2 13 5 25 15 l23 17 -29 74 c-31 78 -37 85 -63 70z"
       id="path544"
       style="fill:#c0ac18" />
    <path
       d="M4635 1725 c2 -16 7 -60 10 -97 l7 -68 40 0 41 0 -7 61 c-3 34 -6 77 -6 94 0 32 -2 33 -45 37 -45 3 -45 3 -40 -27z"
       id="path546"
       style="fill:#c0ac18" />
    <path
       d="M5353 1753 l-43 -4 0 -95 0 -94 45 0 45 0 0 100 c0 55 -1 99 -2 98 -2 -1 -22 -3 -45 -5z"
       id="path548"
       style="fill:#c0ac18" />
    <path
       d="M4740 1708 c0 -24 3 -66 6 -95 l7 -51 43 -4 44 -3 0 97 0 98 -50 0 -50 0 0 -42z"
       id="path550"
       style="fill:#c0ac18" />
    <path
       d="M4860 1651 l0 -101 45 0 46 0 -3 98 -3 97 -42 3 -43 3 0 -100z"
       id="path552"
       style="fill:#c0ac18" />
    <path
       d="M4972 1650 l3 -95 53 -2 52 -1 0 93 0 93 -55 4 -56 3 3 -95z"
       id="path554"
       style="fill:#c0ac18" />
    <path
       d="M5123 1743 c-22 -4 -23 -9 -23 -99 l0 -94 40 0 41 0 -3 97 c-3 104 -4 106 -55 96z"
       id="path556"
       style="fill:#c0ac18" />
    <path
       d="M5200 1649 l0 -102 41 6 c22 3 42 7 44 9 2 1 5 45 6 96 l4 92 -47 0 -48 0 0 -101z"
       id="path558"
       style="fill:#c0ac18" />
    <path
       d="M3938 1711 c-21 -9 -38 -20 -38 -26 0 -5 13 -47 28 -92 l28 -82 39 23 c32 18 39 27 37 46 -5 33 -40 132 -49 140 -5 4 -25 0 -45 -9z"
       id="path560"
       style="fill:#c0ac18" />
    <path
       d="M6115 1718 c-59 -159 -59 -161 2 -192 l31 -16 30 91 30 91 -36 15 c-21 8 -40 17 -45 20 -4 2 -9 -2 -12 -9z"
       id="path562"
       style="fill:#c0ac18" />
    <path
       d="M3818 1667 c-31 -9 -38 -15 -38 -36 0 -45 42 -171 57 -171 7 0 33 9 57 20 l43 21 -30 89 c-16 50 -35 89 -41 89 -6 -1 -28 -6 -48 -12z"
       id="path564"
       style="fill:#c0ac18" />
    <path
       d="M6203 1612 c-38 -119 -39 -109 6 -132 62 -31 68 -28 91 51 34 112 33 119 -20 135 -25 8 -47 14 -50 14 -3 0 -15 -31 -27 -68z"
       id="path566"
       style="fill:#c0ac18" />
    <path
       d="M3703 1637 c-26 -6 -43 -16 -43 -24 0 -21 42 -187 49 -194 3 -4 27 -1 52 7 l46 14 -24 87 c-37 128 -31 120 -80 110z"
       id="path568"
       style="fill:#c0ac18" />
    <path
       d="M6345 1616 c-3 -17 -15 -62 -27 -99 -18 -58 -19 -70 -7 -78 17 -10 120 -41 124 -37 5 6 44 142 50 179 l7 35 -71 15 -70 15 -6 -30z"
       id="path570"
       style="fill:#c0ac18" />
    <path
       d="M4170 1620 c0 -14 29 -32 40 -25 17 11 11 22 -15 27 -14 3 -25 2 -25 -2z"
       id="path572"
       style="fill:none" />
    <path
       d="M3560 1605 c0 -23 20 -117 37 -169 15 -48 16 -48 50 -43 20 4 37 7 38 9 1 2 -9 51 -23 111 l-26 107 -38 0 c-27 0 -38 -4 -38 -15z"
       id="path574"
       style="fill:#c0ac18" />
    <path
       d="M5895 1609 c-11 -17 0 -20 21 -4 17 13 17 14 2 15 -9 0 -20 -5 -23 -11z"
       id="path576"
       style="fill:none" />
    <path
       d="M6510 1594 c-6 -14 -10 -35 -10 -47 -1 -12 -9 -47 -20 -77 -24 -68 -25 -82 -4 -78 30 6 84 228 55 228 -6 0 -16 -12 -21 -26z"
       id="path578"
       style="fill:#c0ac18" />
    <path
       d="M4188 1522 c-106 -164 -212 -297 -327 -412 -128 -128 -231 -205 -231 -172 0 4 17 18 37 31 l36 23 -44 28 -44 27 -7 -26 c-22 -86 -34 -641 -19 -906 5 -94 9 -110 24 -113 14 -3 17 4 17 32 0 20 5 36 10 36 6 0 10 -16 10 -35 l0 -35 693 0 694 0 11 165 c12 181 28 237 69 243 31 5 53 -35 64 -115 4 -37 15 -115 23 -173 9 -58 16 -108 16 -112 0 -5 284 -8 630 -8 617 0 630 0 630 19 0 11 4 23 10 26 6 4 10 -5 10 -19 0 -17 5 -26 16 -26 15 0 16 35 10 407 -4 225 -12 467 -19 540 l-12 132 -36 -33 c-20 -18 -42 -36 -50 -40 -9 -4 -10 -8 -3 -11 27 -14 48 -34 42 -41 -4 -4 -32 9 -63 29 -128 85 -293 272 -443 499 -74 114 -78 118 -107 112 -114 -21 -306 -46 -395 -51 l-105 -6 -1 -221 c-1 -308 -49 -652 -104 -740 -38 -62 -120 -86 -159 -47 -19 19 -19 37 -19 388 0 202 -3 422 -7 489 l-7 121 -142 6 c-77 4 -178 7 -223 7 -45 0 -148 11 -228 25 l-146 25 -20 -22 -19 -23 2 29 c5 52 -16 37 -74 -52z m1648 31 c15 -20 18 -43 6 -43 -8 0 -32 43 -32 55 0 11 14 4 26 -12z m-1642 -132 c-14 -22 -31 -38 -36 -35 -5 3 -2 16 6 30 9 13 24 36 33 51 14 21 19 23 21 11 2 -9 -9 -35 -24 -57z m1732 -21 c37 -56 24 -73 -14 -18 -34 50 -37 58 -22 58 5 0 21 -18 36 -40z m-1816 -92 c-1 -19 -66 -92 -73 -81 -6 9 52 92 66 93 4 0 7 -6 7 -12z m1933 -67 c36 -53 34 -75 -4 -31 -41 48 -53 70 -37 70 7 0 25 -18 41 -39z m-2099 -132 c-21 -22 -40 -35 -43 -28 -2 6 14 29 35 50 21 22 40 35 43 28 2 -6 -14 -29 -35 -50z m2230 -21 c21 -26 31 -45 24 -47 -11 -4 -78 66 -78 82 0 17 20 4 54 -35z m-2340 -89 c-29 -32 -74 -62 -82 -54 -8 8 68 74 87 75 10 0 9 -5 -5 -21z m2489 -54 c40 -38 44 -45 24 -45 -7 0 -31 18 -52 40 -48 50 -25 53 28 5z m-2649 -80 c-35 -26 -51 -16 -19 12 18 16 31 21 33 14 2 -7 -4 -19 -14 -26z m2791 -36 c11 -17 -2 -21 -24 -7 -28 17 -29 43 -2 28 11 -5 23 -15 26 -21z m-2817 -40 c-1 -13 -7 -23 -13 -22 -13 3 -18 30 -11 50 10 24 29 1 24 -28z m2836 -24 c7 -29 0 -48 -15 -40 -12 8 -12 65 0 65 5 0 12 -11 15 -25z m-2844 -145 c0 -33 -4 -60 -10 -60 -6 0 -10 27 -10 60 0 33 4 60 10 60 6 0 10 -27 10 -60z m2860 -35 c0 -63 -14 -73 -24 -17 -9 57 -7 72 9 72 12 0 15 -13 15 -55z m-2860 -165 c0 -33 -4 -60 -10 -60 -6 0 -10 27 -10 60 0 33 4 60 10 60 6 0 10 -27 10 -60z m2863 -32 c3 -32 2 -58 -3 -58 -11 0 -24 96 -15 110 10 16 12 11 18 -52z m-2863 -168 c0 -33 -4 -60 -10 -60 -6 0 -10 27 -10 60 0 33 4 60 10 60 6 0 10 -27 10 -60z m2870 -30 c0 -27 -4 -52 -10 -55 -6 -4 -10 17 -10 55 0 38 4 59 10 55 6 -3 10 -28 10 -55z"
       id="path580"
       style="fill:#480060" />
    <path
       d="M4080 1560 c-78 -54 -220 -123 -320 -155 -47 -16 -93 -31 -103 -34 -16 -6 -15 -12 17 -76 20 -39 59 -101 87 -139 l51 -68 40 38 c62 60 198 228 272 338 64 94 66 99 50 117 -23 25 -29 24 -94 -21z"
       id="path582"
       style="fill:#4c0064" />
    <path
       d="M5927 1582 c-16 -17 -13 -24 43 -106 80 -117 173 -236 252 -320 l65 -70 46 60 c40 50 127 200 127 218 0 3 -19 10 -42 16 -117 30 -274 101 -391 176 -37 24 -71 44 -76 44 -4 0 -15 -8 -24 -18z"
       id="path584"
       style="fill:#4c0064" />
    <path
       d="M5151 1533 l-94 -4 6 -112 c4 -62 7 -282 7 -490 l0 -377 27 -11 c35 -13 64 -5 96 26 35 36 53 93 83 274 24 140 27 184 28 426 l1 270 -30 1 c-16 0 -72 -1 -124 -3z"
       id="path586"
       style="fill:#4c0064" />
    <path
       d="M3636 1284 c-3 -11 -10 -60 -15 -109 -10 -102 -7 -110 61 -144 l41 -20 37 30 38 31 -49 65 c-28 36 -63 88 -78 115 -23 40 -30 47 -35 32z"
       id="path588"
       style="fill:#c0ac18" />
    <path
       d="M6433 1257 c-11 -24 -44 -74 -73 -111 l-51 -69 27 -28 c34 -36 48 -36 91 -3 61 46 66 61 52 156 -6 46 -14 86 -18 91 -4 4 -16 -12 -28 -36z"
       id="path590"
       style="fill:#c0ac18" />
    <path
       d="M5094 355 c-16 -38 -33 -190 -34 -292 l0 -63 66 0 66 0 -7 82 c-8 105 -35 268 -47 291 -14 26 -28 21 -44 -18z"
       id="path592"
       style="fill:none" />
  </g>
</svg>
