<?xml version="1.0" encoding="UTF-8" standalone="no"?>
<svg
   xmlns:dc="http://purl.org/dc/elements/1.1/"
   xmlns:cc="http://creativecommons.org/ns#"
   xmlns:rdf="http://www.w3.org/1999/02/22-rdf-syntax-ns#"
   xmlns:svg="http://www.w3.org/2000/svg"
   xmlns="http://www.w3.org/2000/svg"
   xmlns:sodipodi="http://sodipodi.sourceforge.net/DTD/sodipodi-0.dtd"
   xmlns:inkscape="http://www.inkscape.org/namespaces/inkscape"
   version="1.0"
   width="850.000000pt"
   height="850.000000pt"
   viewBox="0 0 850.000000 850.000000"
   preserveAspectRatio="xMidYMid meet"
   id="svg2"
   inkscape:version="0.91 r13725"
   sodipodi:docname="Basic_2018916_55.svg">
  <defs
     id="defs614" />
  <sodipodi:namedview
     pagecolor="#ffffff"
     bordercolor="#666666"
     borderopacity="1"
     objecttolerance="10"
     gridtolerance="10"
     guidetolerance="10"
     inkscape:pageopacity="0"
     inkscape:pageshadow="2"
     inkscape:window-width="1920"
     inkscape:window-height="979"
     id="namedview612"
     showgrid="false"
     inkscape:zoom="0.44423529"
     inkscape:cx="493.0161"
     inkscape:cy="553.33314"
     inkscape:window-x="0"
     inkscape:window-y="1"
     inkscape:window-maximized="1"
     inkscape:current-layer="svg2" />
  <metadata
     id="metadata4">
Created by potrace 1.14, written by Peter Selinger 2001-2017
<rdf:RDF>
  <cc:Work
     rdf:about="">
    <dc:format>image/svg+xml</dc:format>
    <dc:type
       rdf:resource="http://purl.org/dc/dcmitype/StillImage" />
  </cc:Work>
</rdf:RDF>
</metadata>
  <g
     transform="translate(0.000000,850.000000) scale(0.100000,-0.100000)"
     fill="#000000"
     stroke="none"
     id="g6">
    <path
       d="M0 4250 l0 -4250 4250 0 4250 0 0 4250 0 4250 -4250 0 -4250 0 0 -4250z m5890 2590 c19 -18 63 -40 113 -57 69 -22 101 -27 207 -28 124 -2 125 -2 138 -28 25 -51 99 -98 276 -174 44 -18 100 -38 125 -44 57 -13 71 -24 71 -61 0 -36 31 -98 121 -239 81 -128 105 -178 119 -246 13 -71 -7 -230 -45 -353 -18 -58 -36 -120 -40 -138 -7 -32 -6 -33 22 -26 15 4 116 36 222 71 289 95 447 116 538 72 113 -55 122 -196 18 -288 -62 -54 -175 -114 -268 -142 -602 -180 -705 -229 -983 -466 -189 -162 -249 -235 -330 -400 -76 -156 -238 -552 -248 -605 -13 -72 -157 -461 -203 -551 -108 -209 -232 -328 -373 -358 -27 -6 -50 -12 -50 -13 0 -1 7 -24 16 -50 40 -117 -7 -258 -128 -383 -163 -167 -405 -286 -708 -347 -347 -70 -543 -57 -823 55 -187 75 -204 84 -302 158 -44 34 -85 61 -90 61 -6 0 -19 -15 -30 -32 -33 -56 -107 -129 -159 -155 -132 -67 -256 -77 -466 -39 -259 48 -452 127 -574 235 -23 21 -30 23 -34 11 -3 -8 -24 -34 -46 -57 -98 -98 -261 -93 -626 17 -264 80 -316 90 -461 91 -77 0 -149 5 -168 12 -43 15 -75 58 -75 100 1 36 11 54 138 235 112 159 150 230 220 412 31 80 68 168 82 196 33 67 149 219 197 258 34 27 47 31 97 31 l58 -1 -5 111 c-4 77 -1 138 11 205 37 215 179 403 383 507 65 32 87 39 155 42 l78 3 0 52 c0 77 24 173 66 270 31 72 49 98 101 146 115 108 233 177 413 241 57 20 108 43 112 50 4 8 10 31 13 52 9 54 52 97 184 184 139 92 238 189 304 300 64 108 127 286 137 386 4 45 13 84 21 93 10 9 50 15 129 19 63 4 147 13 185 22 91 20 252 86 445 181 175 87 250 147 290 231 27 59 28 59 168 39 62 -8 122 -8 250 1 266 19 390 51 425 108 7 11 20 7 63 -18 l55 -31 137 4 c125 3 142 6 193 31 31 15 64 36 74 47 24 26 27 25 65 -10z"
       id="path8"
       style="fill:#330066" />
    <path
       d="M5478 6691 c-47 -3 -90 -10 -94 -14 -9 -8 -23 -196 -17 -209 7 -14 180 -9 192 5 16 20 42 145 39 186 -3 41 1 40 -120 32z"
       id="path10"
       style="fill:#cc6666" />
    <path
       d="M5632 6688 c-5 -7 -13 -38 -17 -68 -6 -53 -20 -115 -32 -146 -7 -18 56 -20 79 -1 60 48 128 176 114 213 -7 18 -129 20 -144 2z"
       id="path12"
       style="fill:#cc6666" />
    <path
       d="M5875 6692 c-5 -4 -25 -37 -43 -75 -17 -37 -51 -88 -73 -112 -23 -25 -39 -49 -35 -53 4 -4 49 -14 99 -23 l92 -17 30 32 c55 56 135 186 135 219 0 21 -180 48 -205 29z"
       id="path14"
       style="fill:#cc6666" />
    <path
       d="M5274 6653 c4 -16 10 -65 13 -111 7 -98 20 -96 29 4 5 55 3 77 -10 102 -21 40 -41 43 -32 5z"
       id="path16"
       style="fill:#ff00ff" />
    <path
       d="M5155 6648 c4 -13 9 -63 10 -111 2 -49 5 -90 8 -93 2 -2 9 2 16 10 9 10 9 36 0 107 -12 100 -14 109 -31 109 -6 0 -7 -9 -3 -22z"
       id="path18"
       style="fill:#ff3333" />
    <path
       d="M6081 6612 c-16 -32 -55 -92 -86 -133 l-56 -74 38 -12 c80 -24 99 -17 191 71 65 62 117 135 106 146 -10 10 -139 60 -154 60 -5 0 -23 -26 -39 -58z"
       id="path20"
       style="fill:#cc6666" />
    <path
       d="M5088 6648 c-6 -24 3 -208 11 -208 11 0 21 52 21 110 0 81 -19 140 -32 98z"
       id="path22"
       style="fill:#ff3333" />
    <path
       d="M5234 6652 c4 -7 11 -49 15 -95 5 -58 10 -76 16 -63 10 24 -9 144 -26 160 -9 8 -10 8 -5 -2z"
       id="path24"
       style="fill:#ff3333" />
    <path
       d="M5049 6644 c-2 -5 -3 -53 -1 -107 4 -118 22 -122 21 -4 0 77 -10 132 -20 111z"
       id="path26"
       style="fill:#ff00ff" />
    <path
       d="M5205 6605 c14 -102 25 -125 21 -47 -2 40 -9 79 -16 85 -9 9 -10 1 -5 -38z"
       id="path28"
       style="fill:#ff00ff" />
    <path
       d="M4963 6593 c3 -27 9 -74 13 -107 4 -37 10 -53 15 -45 5 8 6 30 4 49 -2 19 -7 61 -10 93 -4 31 -11 57 -17 57 -7 0 -8 -17 -5 -47z"
       id="path30"
       style="fill:#ff00ff" />
    <path
       d="M5006 6573 c10 -99 23 -122 23 -43 1 72 -6 110 -20 110 -6 0 -7 -29 -3 -67z"
       id="path32"
       style="fill:#ff3333" />
    <path
       d="M4896 6563 c8 -82 22 -127 23 -73 1 58 -11 140 -21 140 -5 0 -6 -30 -2 -67z"
       id="path34"
       style="fill:#ff00ff" />
    <path
       d="M4850 6605 c0 -48 24 -195 31 -195 11 0 11 26 -1 119 -6 41 -14 79 -20 85 -7 7 -10 4 -10 -9z"
       id="path36"
       style="fill:#ff33ff" />
    <path
       d="M4933 6528 c2 -54 6 -101 10 -105 10 -10 7 159 -4 182 -6 13 -8 -13 -6 -77z"
       id="path38"
       style="fill:#ff3333" />
    <path
       d="M4720 6588 c1 -37 26 -208 32 -213 3 -3 18 0 33 7 26 12 27 15 22 68 -8 86 -27 160 -41 160 -9 0 -8 -17 5 -67 19 -73 24 -153 10 -153 -4 0 -11 26 -15 58 -9 81 -28 162 -38 162 -4 0 -8 -10 -8 -22z"
       id="path40"
       style="fill:#ff3333" />
    <path
       d="M4803 6596 c3 -8 11 -52 18 -98 7 -45 16 -87 21 -92 11 -13 10 10 -4 115 -8 65 -15 89 -26 89 -8 0 -12 -6 -9 -14z"
       id="path42"
       style="fill:#ff00ff" />
    <path
       d="M4635 6523 c12 -131 19 -166 34 -171 12 -4 13 7 8 59 -10 100 -28 189 -39 189 -6 0 -7 -29 -3 -77z"
       id="path44"
       style="fill:#ff00ff" />
    <path
       d="M4676 6573 c2 -16 10 -68 17 -116 7 -48 17 -86 22 -85 6 2 10 12 9 23 -2 42 -24 187 -29 196 -12 19 -24 8 -19 -18z"
       id="path46"
       style="fill:#ff3333" />
    <path
       d="M5142 6554 c-1 -23 -5 -57 -8 -75 -4 -28 -3 -31 6 -16 6 9 9 43 7 75 -2 44 -4 48 -5 16z"
       id="path48"
       style="fill:#ff00ff" />
    <path
       d="M6275 6540 c-20 -27 -68 -79 -107 -115 -39 -36 -63 -65 -55 -65 22 0 217 193 217 214 0 28 -17 18 -55 -34z"
       id="path50"
       style="fill:#ff33ff" />
    <path
       d="M4601 6457 c-1 -99 2 -128 12 -124 13 4 12 138 -3 212 -6 29 -8 4 -9 -88z"
       id="path52"
       style="fill:#ff33ff" />
    <path
       d="M6260 6457 l-105 -110 83 67 c99 82 167 160 135 155 -5 -1 -55 -51 -113 -112z"
       id="path54"
       style="fill:#cc0000" />
    <path
       d="M4456 6551 c-3 -5 6 -34 20 -66 14 -31 31 -83 37 -116 12 -62 27 -79 27 -31 0 43 -20 141 -37 184 -14 36 -35 49 -47 29z"
       id="path56"
       style="fill:#ff3333" />
    <path
       d="M6335 6476 c-38 -40 -88 -86 -110 -103 -22 -17 -37 -35 -33 -39 13 -13 228 184 228 209 0 16 -18 2 -85 -67z"
       id="path58"
       style="fill:#cc3300" />
    <path
       d="M6346 6428 c-108 -107 -130 -141 -45 -71 103 86 179 167 162 175 -5 2 -57 -45 -117 -104z"
       id="path60"
       style="fill:#ff33ff" />
    <path
       d="M4415 6503 c31 -73 44 -115 50 -160 7 -52 20 -68 31 -38 15 37 -46 215 -73 215 -11 0 -13 -5 -8 -17z"
       id="path62"
       style="fill:#ff00ff" />
    <path
       d="M6444 6458 c-27 -29 -75 -75 -107 -101 -32 -27 -56 -51 -53 -54 14 -15 226 168 226 196 0 22 -18 10 -66 -41z"
       id="path64"
       style="fill:#ff33ff" />
    <path
       d="M4573 6420 c0 -47 2 -66 4 -42 2 23 2 61 0 85 -2 23 -4 4 -4 -43z"
       id="path66"
       style="fill:none" />
    <path
       d="M4360 6485 c0 -3 9 -22 20 -42 10 -20 24 -62 31 -92 16 -82 18 -86 30 -74 7 7 7 30 -1 73 -16 90 -38 140 -61 140 -10 0 -19 -2 -19 -5z"
       id="path68"
       style="fill:#ff3333" />
    <path
       d="M4326 6462 c-3 -6 2 -32 13 -59 10 -27 22 -75 26 -106 9 -69 31 -73 28 -6 -4 90 -48 202 -67 171z"
       id="path70"
       style="fill:#ff33ff" />
    <path
       d="M6455 6400 c-28 -28 -67 -63 -89 -77 -46 -33 -31 -44 19 -13 50 31 145 140 122 140 -1 0 -25 -23 -52 -50z"
       id="path72"
       style="fill:#ff33ff" />
    <path
       d="M6539 6427 c-15 -12 -42 -40 -60 -61 -46 -53 -8 -32 50 28 48 49 53 69 10 33z"
       id="path74"
       style="fill:#cc3300" />
    <path
       d="M4308 6376 c15 -36 28 -59 30 -52 4 18 -33 109 -46 114 -6 2 2 -26 16 -62z"
       id="path76"
       style="fill:#ff00ff" />
    <path
       d="M6571 6399 c-19 -22 -55 -57 -83 -76 -27 -20 -47 -38 -44 -40 15 -15 191 130 180 148 -9 16 -20 10 -53 -32z"
       id="path78"
       style="fill:#ff33ff" />
    <path
       d="M4250 6425 c0 -3 8 -22 19 -43 10 -20 24 -63 31 -94 7 -32 17 -58 22 -58 4 0 8 6 8 13 0 40 -56 187 -71 187 -5 0 -9 -2 -9 -5z"
       id="path80"
       style="fill:#ff00ff" />
    <path
       d="M5325 6403 c-64 -63 -150 -213 -325 -563 -79 -159 -111 -240 -152 -390 -19 -73 -22 -109 -23 -255 0 -218 19 -287 100 -379 36 -39 40 -28 11 25 -33 59 -56 153 -56 227 0 78 34 254 67 345 31 89 135 305 140 291 2 -5 -20 -61 -47 -123 -108 -240 -153 -439 -131 -578 10 -70 66 -203 91 -218 21 -13 23 4 4 32 -27 41 -32 206 -9 326 56 293 325 824 589 1159 42 53 76 101 76 107 0 7 -52 11 -159 11 -135 0 -162 -3 -176 -17z"
       id="path82"
       style="fill:#660066" />
    <path
       d="M4210 6403 c0 -4 11 -35 24 -68 14 -33 27 -77 31 -97 3 -21 11 -38 17 -38 26 0 -30 198 -59 208 -7 2 -13 0 -13 -5z"
       id="path84"
       style="fill:#ff33ff" />
    <path
       d="M5045 6390 c-151 -19 -175 -25 -333 -73 -70 -21 -107 -38 -114 -50 -41 -78 -58 -412 -34 -677 32 -348 82 -521 200 -684 43 -61 37 -76 -9 -23 -69 80 -146 262 -179 427 -8 41 -22 158 -32 260 -19 212 -14 507 11 624 8 38 13 71 11 74 -5 4 -175 -63 -251 -99 -61 -29 -61 -30 -70 -268 -9 -238 18 -411 96 -623 47 -129 94 -205 178 -288 67 -67 228 -176 240 -164 3 3 -6 12 -20 21 -44 29 -147 140 -183 195 -45 71 -108 220 -140 332 -24 83 -47 269 -32 255 4 -4 14 -53 23 -110 17 -119 55 -232 124 -377 39 -81 65 -118 122 -178 76 -80 184 -170 194 -161 3 4 -11 28 -31 55 -79 109 -127 243 -147 411 -15 119 -6 377 15 451 l15 55 -5 -45 c-32 -290 -6 -563 71 -735 29 -66 112 -195 126 -195 5 0 -4 18 -20 41 -35 47 -57 138 -70 278 -10 111 0 218 34 352 41 160 70 231 207 499 127 248 198 371 241 418 l20 22 -59 -1 c-32 -1 -122 -9 -199 -19z"
       id="path86"
       style="fill:#990066" />
    <path
       d="M5669 6373 c-51 -54 -177 -224 -260 -351 -75 -113 -262 -479 -318 -622 -53 -135 -82 -262 -88 -386 -5 -105 -4 -115 20 -168 14 -31 28 -56 30 -56 2 0 3 73 3 163 -1 151 1 167 26 235 32 89 136 274 149 266 5 -3 -2 -24 -17 -47 -46 -74 -122 -240 -134 -295 -19 -82 -2 -332 23 -332 1 0 2 48 3 108 0 118 17 180 88 335 20 42 36 83 36 91 0 8 6 21 13 28 7 7 36 47 63 88 216 323 473 650 624 792 63 59 112 110 109 113 -8 7 -232 61 -289 70 -43 6 -47 4 -81 -32z"
       id="path88"
       style="fill:#660066" />
    <path
       d="M4170 6385 c0 -5 9 -32 20 -60 11 -27 24 -69 30 -92 12 -47 34 -61 24 -15 -17 78 -36 132 -54 153 -10 13 -19 20 -20 14z"
       id="path90"
       style="fill:#ff00ff" />
    <path
       d="M4126 6362 c-3 -5 6 -35 19 -68 13 -32 27 -76 30 -96 7 -37 18 -48 30 -28 7 12 -20 119 -42 166 -17 34 -27 41 -37 26z"
       id="path92"
       style="fill:#ff00ff" />
    <path
       d="M6569 6333 c-13 -16 -12 -17 4 -4 9 7 17 15 17 17 0 8 -8 3 -21 -13z"
       id="path94"
       style="fill:none" />
    <path
       d="M4080 6328 c0 -7 9 -37 20 -66 11 -29 20 -70 20 -92 0 -29 4 -40 15 -40 9 0 18 6 21 14 6 16 -22 129 -42 168 -15 29 -34 38 -34 16z"
       id="path96"
       style="fill:#ff3333" />
    <path
       d="M6674 6315 c-12 -8 -53 -30 -92 -50 -87 -43 -105 -65 -25 -30 55 25 153 83 153 91 0 8 -16 3 -36 -11z"
       id="path98"
       style="fill:#cc3300" />
    <path
       d="M5954 6218 c-130 -124 -194 -201 -394 -468 -306 -409 -400 -584 -434 -815 -16 -100 -10 -129 29 -147 40 -18 51 4 64 122 7 58 21 139 32 181 20 82 70 202 88 213 16 10 14 1 -9 -44 -42 -83 -100 -334 -100 -437 0 -39 20 -44 43 -10 13 18 16 19 16 5 1 -21 34 -24 70 -5 19 9 28 28 42 90 40 170 158 377 281 493 111 104 496 369 513 352 3 -3 -36 -31 -87 -64 -243 -152 -451 -321 -518 -419 -80 -116 -200 -409 -177 -432 14 -14 87 30 99 61 27 64 67 136 109 192 77 106 207 258 251 295 158 132 571 365 731 414 100 30 98 23 46 131 -46 98 -205 254 -257 254 -23 0 -404 -272 -447 -320 -10 -11 -37 -29 -60 -40 -81 -39 -335 -299 -335 -343 0 -8 -17 -36 -38 -63 -72 -91 -140 -235 -188 -394 -13 -44 -23 -64 -23 -49 -2 54 52 205 115 331 80 158 158 265 278 383 108 106 358 303 538 422 70 46 128 86 128 88 0 2 -33 22 -72 43 -84 46 -173 82 -205 82 -13 0 -60 -37 -129 -102z"
       id="path100"
       style="fill:#660066" />
    <path
       d="M6730 6303 c-14 -10 -74 -44 -135 -75 -93 -48 -105 -57 -78 -58 18 0 71 20 130 50 113 58 138 75 128 89 -9 15 -17 14 -45 -6z"
       id="path102"
       style="fill:#ff33ff" />
    <path
       d="M4045 6293 c4 -10 16 -47 26 -82 23 -79 34 -91 26 -30 -8 56 -35 129 -49 129 -6 0 -7 -8 -3 -17z"
       id="path104"
       style="fill:#ff33ff" />
    <path
       d="M3895 6257 c-55 -22 -101 -41 -103 -42 -2 -2 21 -27 51 -57 38 -38 59 -69 71 -106 l17 -52 75 50 c44 30 74 58 74 68 0 21 -35 135 -50 162 -14 26 -17 25 -135 -23z"
       id="path106"
       style="fill:#cc6666" />
    <path
       d="M6726 6234 c-33 -20 -88 -47 -123 -62 -35 -14 -63 -29 -63 -34 0 -19 269 105 270 125 0 15 -26 5 -84 -29z"
       id="path108"
       style="fill:#cc3300" />
    <path
       d="M6750 6199 c-41 -23 -93 -48 -115 -57 -22 -8 -47 -21 -55 -28 -12 -12 -12 -14 3 -14 37 0 257 113 257 132 0 14 -13 9 -90 -33z"
       id="path110"
       style="fill:#ff33ff" />
    <path
       d="M6786 6164 c-32 -19 -84 -45 -114 -57 -60 -24 -79 -47 -40 -47 46 0 254 112 243 130 -10 17 -27 11 -89 -26z"
       id="path112"
       style="fill:#ff3333" />
    <path
       d="M3640 6163 c-25 -9 -47 -17 -49 -19 -2 -2 22 -42 53 -90 31 -48 64 -112 73 -143 9 -31 18 -58 20 -60 3 -5 123 87 141 108 15 19 16 65 0 94 -17 34 -77 101 -101 114 -29 16 -82 15 -137 -4z"
       id="path114"
       style="fill:#cc6666" />
    <path
       d="M6860 6141 c-14 -10 -62 -38 -108 -61 -93 -47 -103 -62 -21 -30 91 34 164 75 167 93 4 22 -7 21 -38 -2z"
       id="path116"
       style="fill:#cc3300" />
    <path
       d="M4117 6068 c-60 -35 -124 -76 -143 -93 l-34 -30 9 -155 c15 -244 61 -370 218 -603 113 -167 179 -239 249 -272 31 -15 59 -24 62 -21 3 4 -10 23 -29 44 -108 113 -179 245 -230 422 -19 66 -37 218 -20 170 5 -14 10 -38 10 -55 2 -49 77 -258 119 -333 43 -76 99 -152 159 -219 27 -31 55 -48 97 -63 33 -11 61 -18 63 -16 3 2 -16 18 -40 35 -129 88 -244 259 -305 451 -71 223 -77 270 -75 548 2 138 1 252 0 252 -1 0 -51 -28 -110 -62z"
       id="path118"
       style="fill:#660033" />
    <path
       d="M6890 6100 c-14 -11 -67 -36 -118 -56 -87 -34 -120 -54 -89 -54 54 0 261 93 254 114 -6 17 -21 16 -47 -4z"
       id="path120"
       style="fill:#cc3300" />
    <path
       d="M3470 6064 c0 -3 16 -12 35 -20 48 -20 108 -76 140 -130 29 -50 39 -57 24 -17 -12 31 -49 83 -82 114 -37 35 -117 71 -117 53z"
       id="path122"
       style="fill:#ff3333" />
    <path
       d="M6885 6039 c-27 -16 -81 -39 -120 -51 -83 -26 -79 -24 -71 -37 9 -13 159 28 216 59 25 14 46 33 48 43 5 23 -14 20 -73 -14z"
       id="path124"
       style="fill:#ff33ff" />
    <path
       d="M3536 5957 c38 -40 80 -96 93 -125 14 -28 28 -52 32 -52 30 0 7 68 -49 144 -32 44 -111 106 -135 106 -5 0 21 -33 59 -73z"
       id="path126"
       style="fill:#ff00ff" />
    <path
       d="M6930 5995 c-19 -13 -73 -34 -120 -46 -89 -24 -96 -26 -89 -34 3 -2 36 2 74 10 82 17 175 60 175 81 0 17 2 18 -40 -11z"
       id="path128"
       style="fill:#cc3300" />
    <path
       d="M3471 5963 c86 -91 140 -190 125 -228 -9 -26 -26 -16 -26 14 0 44 -15 76 -66 142 -54 71 -76 79 -30 11 28 -42 71 -135 90 -196 6 -18 9 -17 36 9 17 16 30 36 30 45 0 38 -63 141 -116 189 -65 59 -94 68 -43 14z"
       id="path130"
       style="fill:#ff33ff" />
    <path
       d="M6930 5945 c-25 -13 -79 -32 -120 -41 -41 -10 -67 -20 -57 -22 44 -9 227 50 227 74 0 17 4 18 -50 -11z"
       id="path132"
       style="fill:#cc3300" />
    <path
       d="M3832 5865 c-39 -31 -74 -64 -77 -74 -14 -46 32 -229 96 -373 51 -116 105 -195 175 -255 31 -26 81 -69 110 -95 30 -27 60 -48 68 -48 7 0 25 -10 40 -21 15 -12 29 -19 32 -16 3 3 -39 70 -94 149 -110 157 -179 286 -211 393 -31 99 -51 225 -51 316 0 44 -4 79 -8 79 -5 0 -41 -25 -80 -55z"
       id="path134"
       style="fill:#990066" />
    <path
       d="M6861 5879 c-74 -21 -86 -29 -44 -29 37 0 93 18 113 36 18 17 11 16 -69 -7z"
       id="path136"
       style="fill:#ff33ff" />
    <path
       d="M3435 5829 c32 -47 55 -104 55 -139 0 -8 5 -22 11 -30 8 -11 9 -2 5 34 -9 78 -66 186 -97 186 -5 0 6 -23 26 -51z"
       id="path138"
       style="fill:#ff3333" />
    <path
       d="M3380 5829 c0 -6 12 -25 27 -43 14 -17 32 -46 40 -65 23 -53 26 -29 4 29 -20 52 -46 90 -63 90 -4 0 -8 -5 -8 -11z"
       id="path140"
       style="fill:#ff00ff" />
    <path
       d="M6875 5823 c-98 -28 -121 -42 -97 -57 21 -13 212 50 212 69 0 9 -66 3 -115 -12z"
       id="path142"
       style="fill:#ff33ff" />
    <path
       d="M6934 5780 c-23 -10 -66 -24 -97 -31 -63 -14 -79 -35 -19 -26 46 8 132 34 151 46 30 19 4 27 -35 11z"
       id="path144"
       style="fill:#ff33ff" />
    <path
       d="M3357 5776 c-3 -8 4 -22 15 -33 11 -10 34 -42 50 -71 17 -29 32 -51 34 -49 7 7 -26 91 -52 130 -26 39 -39 46 -47 23z"
       id="path146"
       style="fill:#ff3333" />
    <path
       d="M6610 5774 c-125 -34 -421 -193 -607 -326 -135 -97 -200 -162 -294 -293 -86 -121 -106 -157 -115 -212 -12 -76 29 -56 130 66 110 132 265 242 457 324 118 50 217 77 114 31 -180 -81 -287 -136 -350 -179 -79 -55 -245 -218 -245 -240 0 -11 43 7 148 59 81 41 213 99 292 129 400 151 549 240 582 348 16 57 15 212 -3 264 -16 47 -29 50 -109 29z"
       id="path148"
       style="fill:#990066" />
    <path
       d="M3645 5700 c-41 -41 -75 -79 -75 -86 0 -37 178 -314 202 -314 12 0 158 -134 158 -145 0 -6 21 -22 48 -34 64 -32 112 -52 112 -47 0 2 -25 25 -57 50 -31 26 -73 70 -94 97 -83 112 -164 303 -194 460 -8 46 -17 85 -20 87 -2 3 -38 -28 -80 -68z"
       id="path150"
       style="fill:#660000" />
    <path
       d="M3340 5725 c7 -8 17 -15 22 -15 6 0 5 7 -2 15 -7 8 -17 15 -22 15 -6 0 -5 -7 2 -15z"
       id="path152"
       style="fill:none" />
    <path
       d="M6873 5716 c-73 -18 -83 -24 -83 -43 0 -20 5 -23 38 -22 43 1 104 21 109 36 2 6 -22 3 -61 -8 -36 -9 -68 -14 -71 -9 -7 12 0 15 88 36 42 10 77 21 77 26 0 9 7 11 -97 -16z"
       id="path154"
       style="fill:#ff33ff" />
    <path
       d="M3267 5643 c-53 -69 -138 -150 -189 -182 -21 -12 -38 -25 -38 -28 0 -23 335 79 350 107 13 25 13 66 -1 93 -17 32 -51 67 -65 67 -7 0 -33 -26 -57 -57z"
       id="path156"
       style="fill:#cc6666" />
    <path
       d="M6875 5638 c-22 -6 -50 -12 -63 -14 -13 -3 -20 -8 -18 -13 9 -15 136 13 136 30 0 10 0 10 -55 -3z"
       id="path158"
       style="fill:#ff33ff" />
    <path
       d="M3478 5537 l-66 -62 24 -28 c23 -27 31 -47 18 -47 -3 0 -17 14 -31 30 -13 17 -31 30 -38 30 -7 0 -43 -16 -80 -36 -37 -20 -116 -51 -176 -69 -99 -29 -167 -60 -156 -71 2 -2 37 0 78 6 138 19 315 6 499 -35 137 -31 288 -74 360 -102 8 -4 -19 21 -61 55 -111 90 -209 210 -269 330 -17 34 -32 62 -33 62 -1 -1 -32 -29 -69 -63z"
       id="path160"
       style="fill:#660000" />
    <path
       d="M6838 5588 c-21 -6 -38 -15 -38 -20 0 -6 6 -8 14 -5 8 3 31 9 50 13 38 7 60 25 29 23 -10 -1 -35 -6 -55 -11z"
       id="path162"
       style="fill:#ff33ff" />
    <path
       d="M6820 5540 c-13 -9 -13 -10 0 -10 8 0 22 5 30 10 13 9 13 10 0 10 -8 0 -22 -5 -30 -10z"
       id="path164"
       style="fill:none" />
    <path
       d="M6800 5466 c0 -2 11 -6 25 -8 13 -3 22 -1 19 3 -5 9 -44 13 -44 5z"
       id="path166"
       style="fill:none" />
    <path
       d="M7465 5454 c-76 -22 -196 -66 -192 -70 8 -8 242 57 256 71 20 19 5 19 -64 -1z"
       id="path168"
       style="fill:#990099" />
    <path
       d="M6795 5431 c-10 -17 11 -21 31 -6 18 14 18 14 -3 15 -12 0 -24 -4 -28 -9z"
       id="path170"
       style="fill:none" />
    <path
       d="M7555 5430 c-3 -5 1 -10 9 -10 9 0 16 5 16 10 0 6 -4 10 -9 10 -6 0 -13 -4 -16 -10z"
       id="path172"
       style="fill:none" />
    <path
       d="M7105 5391 c-309 -108 -399 -142 -495 -185 -204 -93 -302 -155 -460 -290 -58 -50 -129 -111 -158 -134 -28 -24 -52 -49 -52 -56 0 -7 -18 -27 -40 -45 -22 -18 -71 -78 -108 -134 -72 -107 -162 -260 -162 -274 0 -5 -15 -31 -33 -58 -55 -84 -97 -155 -92 -155 6 0 251 371 284 431 47 84 247 293 391 408 266 213 288 226 576 341 325 131 348 139 417 160 63 20 83 30 55 30 -7 0 -62 -18 -123 -39z"
       id="path174"
       style="fill:#990099" />
    <path
       d="M7170 5383 c-25 -9 -40 -18 -35 -20 6 -1 33 6 60 17 60 23 39 25 -25 3z"
       id="path176"
       style="fill:#990099" />
    <path
       d="M7220 5330 c-251 -87 -396 -172 -579 -338 l-36 -33 60 37 c33 20 104 66 157 101 54 35 121 73 150 85 29 12 62 30 74 40 11 10 96 49 189 88 92 38 171 72 173 75 13 13 -35 -1 -188 -55z"
       id="path178"
       style="fill:#9933ff" />
    <path
       d="M7458 5361 c-53 -15 -120 -40 -150 -55 -109 -57 -185 -95 -260 -130 -83 -39 -204 -109 -278 -159 -90 -62 -341 -259 -336 -264 3 -3 75 47 161 112 323 242 505 336 870 451 103 33 130 48 119 66 -7 12 -19 10 -126 -21z"
       id="path180"
       style="fill:#990099" />
    <path
       d="M7090 5350 c-8 -5 -10 -10 -5 -10 6 0 17 5 25 10 8 5 11 10 5 10 -5 0 -17 -5 -25 -10z"
       id="path182"
       style="fill:none" />
    <path
       d="M7060 5315 c-19 -7 -28 -14 -20 -14 8 0 29 6 45 14 39 17 21 18 -25 0z"
       id="path184"
       style="fill:none" />
    <path
       d="M7407 5274 c-180 -60 -316 -118 -432 -181 -119 -66 -230 -136 -240 -153 -4 -7 19 5 51 26 96 61 114 71 234 124 63 28 169 67 235 86 130 39 252 91 274 118 8 9 12 18 10 20 -2 2 -61 -16 -132 -40z"
       id="path186"
       style="fill:#ff6600" />
    <path
       d="M6952 5255 c-18 -8 -40 -11 -50 -8 -9 3 -14 3 -10 -2 9 -10 -24 -36 -88 -68 -28 -14 -114 -77 -190 -140 -77 -62 -182 -145 -234 -184 -127 -95 -330 -297 -409 -406 -35 -48 -60 -91 -57 -95 4 -3 11 0 15 7 42 68 163 218 202 251 26 22 87 77 135 121 48 44 121 103 163 131 86 58 230 170 307 239 28 26 97 72 153 103 55 32 101 59 101 62 0 5 0 5 -38 -11z"
       id="path188"
       style="fill:#9933ff" />
    <path
       d="M6762 5195 c-192 -91 -309 -170 -437 -295 -66 -64 -140 -130 -165 -147 -25 -17 -64 -51 -86 -75 -47 -49 -201 -250 -291 -378 -81 -116 -79 -114 -55 -101 31 16 143 141 227 254 108 144 287 322 440 436 72 54 166 128 209 165 90 76 148 118 221 158 77 42 41 33 -63 -17z"
       id="path190"
       style="fill:#ff6600" />
    <path
       d="M3368 5194 c-18 -18 -4 -24 51 -24 87 0 261 -32 358 -67 12 -4 15 -3 8 4 -34 35 -395 110 -417 87z"
       id="path192"
       style="fill:#ff6600" />
    <path
       d="M6563 5136 c-112 -54 -146 -77 -332 -226 -177 -141 -363 -335 -441 -459 -30 -48 -78 -121 -106 -162 -92 -133 -427 -672 -461 -742 -18 -37 -48 -91 -67 -120 -39 -62 -156 -297 -156 -315 0 -20 24 -14 40 11 8 12 60 112 115 222 83 166 144 266 359 590 350 528 509 740 621 824 33 25 114 98 180 162 93 90 143 130 225 177 131 77 137 81 125 81 -5 0 -51 -19 -102 -43z"
       id="path194"
       style="fill:#990099" />
    <path
       d="M2975 5158 c-129 -24 -166 -32 -250 -55 -88 -24 -209 -72 -202 -80 3 -2 28 6 57 17 89 35 257 79 384 100 66 11 122 23 125 25 7 7 -58 3 -114 -7z"
       id="path196"
       style="fill:#993300" />
    <path
       d="M3035 5134 c-246 -48 -323 -67 -430 -106 -113 -42 -207 -89 -260 -132 -53 -43 -22 -36 50 10 129 84 209 117 377 154 129 29 331 60 391 60 59 0 72 6 56 27 -15 17 -39 15 -184 -13z"
       id="path198"
       style="fill:#990033" />
    <path
       d="M3340 5134 c0 -13 7 -15 36 -11 21 4 81 -2 138 -13 56 -11 144 -26 196 -34 52 -9 142 -29 200 -45 58 -16 106 -28 108 -26 9 8 -46 26 -223 74 -203 54 -293 70 -392 71 -52 0 -63 -3 -63 -16z"
       id="path200"
       style="fill:#9933ff" />
    <path
       d="M3163 5093 c15 -2 37 -2 50 0 12 2 0 4 -28 4 -27 0 -38 -2 -22 -4z"
       id="path202"
       style="fill:none" />
    <path
       d="M3388 5093 c17 -2 47 -2 65 0 17 2 3 4 -33 4 -36 0 -50 -2 -32 -4z"
       id="path204"
       style="fill:none" />
    <path
       d="M3053 5083 c9 -2 23 -2 30 0 6 3 -1 5 -18 5 -16 0 -22 -2 -12 -5z"
       id="path206"
       style="fill:none" />
    <path
       d="M3498 5083 c7 -3 16 -2 19 1 4 3 -2 6 -13 5 -11 0 -14 -3 -6 -6z"
       id="path208"
       style="fill:none" />
    <path
       d="M2935 5070 c-34 -6 -36 -7 -10 -8 17 0 48 3 70 7 33 7 35 9 10 8 -16 0 -48 -3 -70 -7z"
       id="path210"
       style="fill:none" />
    <path
       d="M2940 5039 c-91 -16 -185 -36 -210 -45 -103 -39 -334 -167 -395 -220 -34 -29 -29 -27 82 39 201 121 448 205 713 242 87 12 90 13 35 13 -33 0 -134 -13 -225 -29z"
       id="path212"
       style="fill:#993300" />
    <path
       d="M3375 5061 c17 -5 102 -19 190 -31 197 -27 368 -60 544 -105 74 -19 136 -33 138 -31 2 1 -23 17 -54 34 -51 26 -98 37 -373 82 -288 48 -524 74 -445 51z"
       id="path214"
       style="fill:#ff6600" />
    <path
       d="M6204 5046 c-10 -8 -16 -17 -13 -20 3 -4 17 2 30 13 27 23 13 28 -17 7z"
       id="path216"
       style="fill:none" />
    <path
       d="M3000 5013 c-142 -30 -329 -92 -424 -140 -226 -113 -395 -240 -417 -314 -15 -47 -5 -62 18 -28 33 49 153 159 223 204 212 138 617 275 811 275 37 0 49 4 49 15 0 23 -124 18 -260 -12z"
       id="path218"
       style="fill:#cc3366" />
    <path
       d="M3332 5028 c5 -13 17 -16 199 -42 103 -15 198 -36 524 -116 465 -114 617 -142 415 -74 -326 108 -650 183 -965 223 -189 25 -178 24 -173 9z"
       id="path220"
       style="fill:#990099" />
    <path
       d="M2645 5006 c-109 -35 -209 -91 -355 -197 -56 -40 -110 -103 -98 -114 1 -1 39 26 83 62 96 77 282 190 385 234 112 47 106 54 -15 15z"
       id="path222"
       style="fill:#993300" />
    <path
       d="M3115 4983 c-75 -10 -276 -69 -391 -114 -209 -82 -333 -152 -433 -243 -47 -44 -131 -151 -131 -169 0 -5 35 26 78 70 150 153 485 332 732 389 38 9 109 15 177 15 65 -1 114 3 118 9 3 6 3 19 0 30 -5 17 -14 20 -63 19 -31 -1 -70 -4 -87 -6z"
       id="path224"
       style="fill:#cc3366" />
    <path
       d="M3350 4982 c0 -18 61 -62 87 -62 46 0 247 -39 407 -80 87 -22 206 -46 265 -54 106 -15 323 -30 286 -20 -138 37 -735 178 -815 193 -146 27 -230 35 -230 23z"
       id="path226"
       style="fill:#9900ff" />
    <path
       d="M5546 4940 c-18 -46 -20 -70 -6 -70 12 0 24 29 33 78 9 45 -8 40 -27 -8z"
       id="path228"
       style="fill:#9933ff" />
    <path
       d="M6080 4970 c-9 -6 -10 -10 -3 -10 6 0 15 5 18 10 8 12 4 12 -15 0z"
       id="path230"
       style="fill:none" />
    <path
       d="M5952 4890 c-40 -28 -72 -53 -72 -56 0 -8 63 27 105 59 22 17 42 32 44 34 2 2 2 5 -1 8 -2 3 -37 -18 -76 -45z"
       id="path232"
       style="fill:#ff33ff" />
    <path
       d="M5971 4860 c-122 -81 -154 -110 -189 -170 -14 -25 -66 -106 -116 -180 -105 -158 -146 -226 -146 -242 0 -7 13 9 29 34 17 26 50 72 76 103 25 31 76 102 112 157 50 76 100 132 207 234 77 74 138 134 136 133 -3 0 -52 -31 -109 -69z"
       id="path234"
       style="fill:#ff6600" />
    <path
       d="M6494 4878 l-19 -23 23 19 c12 11 22 21 22 23 0 8 -8 2 -26 -19z"
       id="path236"
       style="fill:none" />
    <path
       d="M3045 4869 c-38 -5 -90 -15 -115 -24 -25 -8 -32 -12 -17 -10 15 3 71 12 124 20 53 8 98 17 101 20 6 6 3 6 -93 -6z"
       id="path238"
       style="fill:#993300" />
    <path
       d="M3211 4866 c10 -9 79 -14 79 -5 0 5 -19 9 -42 9 -23 0 -39 -2 -37 -4z"
       id="path240"
       style="fill:none" />
    <path
       d="M6425 4833 c-60 -40 -126 -95 -121 -100 5 -5 166 115 166 123 0 7 -5 5 -45 -23z"
       id="path242"
       style="fill:#ff33ff" />
    <path
       d="M3035 4834 c-169 -27 -321 -87 -539 -213 -130 -75 -230 -157 -279 -226 -11 -16 7 -3 41 29 119 116 330 239 513 301 150 49 277 68 427 62 110 -4 123 -3 120 11 -8 42 -141 59 -283 36z"
       id="path244"
       style="fill:#993300" />
    <path
       d="M3413 4844 c6 -7 367 -74 532 -99 61 -9 148 -23 194 -31 51 -8 143 -13 235 -13 l151 2 -140 8 c-168 9 -253 21 -444 60 -268 55 -549 93 -528 73z"
       id="path246"
       style="fill:#9900ff" />
    <path
       d="M5794 4825 c-10 -8 -14 -15 -8 -15 6 0 17 7 24 15 16 19 9 19 -16 0z"
       id="path248"
       style="fill:none" />
    <path
       d="M3412 4783 c4 -32 1 -32 248 -68 266 -38 349 -45 550 -43 102 1 156 3 120 5 -130 6 -483 58 -797 118 -114 22 -125 21 -121 -12z"
       id="path250"
       style="fill:#ff6600" />
    <path
       d="M5749 4728 c-54 -54 -91 -103 -139 -186 -36 -62 -120 -195 -186 -296 -67 -100 -129 -197 -138 -214 -9 -18 -74 -100 -144 -183 -70 -83 -155 -188 -190 -232 -34 -45 -110 -130 -168 -188 -103 -104 -104 -105 -85 -123 11 -10 26 -16 34 -13 19 7 324 382 501 615 166 220 215 292 489 727 38 61 81 122 95 138 14 15 21 27 15 27 -6 0 -44 -33 -84 -72z"
       id="path252"
       style="fill:#990099" />
    <path
       d="M3060 4764 c-130 -15 -279 -56 -405 -111 -116 -50 -346 -193 -312 -193 3 0 26 14 51 30 98 67 299 142 471 177 70 14 135 18 288 17 191 0 198 0 195 19 -6 40 -46 56 -153 61 -55 2 -116 2 -135 0z"
       id="path254"
       style="fill:#990033" />
    <path
       d="M5459 4733 c-19 -16 -59 -47 -89 -69 -94 -67 -340 -275 -504 -425 -34 -30 -90 -78 -126 -105 -36 -27 -123 -97 -194 -157 -71 -59 -183 -149 -248 -200 -106 -82 -117 -93 -102 -104 21 -15 60 -17 69 -4 3 6 61 54 128 108 132 106 253 211 388 338 47 44 128 116 180 160 52 43 148 131 214 195 92 89 257 230 324 277 2 2 2 6 -1 9 -3 3 -21 -8 -39 -23z"
       id="path256"
       style="fill:#9900ff" />
    <path
       d="M6419 4707 c-119 -95 -219 -191 -279 -267 -32 -41 -81 -98 -109 -127 -86 -90 -204 -280 -305 -495 -55 -115 -119 -290 -176 -478 -37 -124 -85 -239 -146 -351 -49 -92 -51 -97 -28 -78 9 7 47 75 85 152 63 126 117 260 185 467 85 259 257 603 369 740 60 73 196 214 363 375 62 59 111 110 109 111 -2 2 -32 -20 -68 -49z"
       id="path258"
       style="fill:#990099" />
    <path
       d="M5430 4662 c-52 -42 -149 -129 -215 -192 -66 -64 -160 -150 -210 -191 -49 -40 -130 -112 -180 -158 -117 -109 -294 -265 -370 -325 -133 -106 -185 -150 -185 -158 0 -4 12 -8 26 -8 35 0 137 74 249 180 50 47 119 112 155 145 36 32 142 134 235 225 94 91 266 252 383 358 186 169 221 203 210 202 -2 0 -46 -35 -98 -78z"
       id="path260"
       style="fill:#ff6600" />
    <path
       d="M3426 4703 c4 -16 9 -31 13 -35 25 -28 576 -64 734 -47 50 5 93 11 95 14 3 3 -28 6 -69 6 -41 1 -85 2 -99 4 -14 1 -71 5 -128 9 -133 8 -404 45 -530 72 -20 4 -22 2 -16 -23z"
       id="path262"
       style="fill:#9933ff" />
    <path
       d="M5325 4678 c-84 -61 -315 -254 -440 -368 -49 -45 -116 -104 -148 -131 -32 -27 -54 -49 -48 -49 16 0 95 65 284 233 205 183 320 278 390 326 45 30 56 42 40 40 -5 0 -39 -23 -78 -51z"
       id="path264"
       style="fill:#ff33ff" />
    <path
       d="M4710 4671 c-109 -24 -403 -101 -410 -108 -16 -17 485 100 505 118 12 12 7 11 -95 -10z"
       id="path266"
       style="fill:#ff6600" />
    <path
       d="M5177 4632 c-94 -50 -154 -95 -472 -348 -209 -166 -297 -229 -522 -374 -126 -81 -147 -101 -110 -108 37 -7 480 304 822 578 66 53 176 138 245 190 69 51 129 97 135 102 22 20 -16 4 -98 -40z"
       id="path268"
       style="fill:#9900ff" />
    <path
       d="M3020 4664 c-14 -2 -59 -9 -99 -15 -235 -35 -443 -121 -631 -260 -60 -44 -86 -71 -100 -102 -27 -59 -13 -67 28 -16 74 92 131 136 252 198 66 34 127 61 134 61 8 0 71 16 140 35 174 47 315 67 479 67 134 0 174 9 100 22 -49 8 -270 16 -303 10z"
       id="path270"
       style="fill:#cc3366" />
    <path
       d="M4923 4644 c-100 -21 -326 -119 -483 -209 -218 -124 -353 -186 -609 -278 -61 -22 -47 -37 16 -17 155 48 235 84 798 360 124 61 245 113 278 121 50 11 77 24 66 33 -2 2 -32 -3 -66 -10z"
       id="path272"
       style="fill:#990099" />
    <path
       d="M5379 4444 c-118 -119 -228 -230 -245 -248 -17 -17 -60 -65 -94 -106 -59 -69 -336 -349 -523 -529 -42 -40 -77 -77 -77 -82 0 -5 12 -16 26 -26 32 -20 29 -22 170 93 57 47 132 117 167 157 34 39 112 125 173 191 208 227 342 385 435 513 51 70 114 154 141 186 44 54 53 67 45 67 -2 0 -100 -97 -218 -216z"
       id="path274"
       style="fill:#ff6600" />
    <path
       d="M3460 4631 c0 -6 10 -13 23 -16 88 -20 226 -36 387 -46 162 -9 199 -8 274 5 47 9 95 20 105 24 11 4 -118 7 -287 8 -275 0 -410 9 -484 30 -10 3 -18 1 -18 -5z"
       id="path276"
       style="fill:#990099" />
    <path
       d="M5452 4575 c-35 -30 -91 -88 -124 -127 l-62 -73 99 95 c127 121 165 161 154 159 -2 0 -32 -25 -67 -54z"
       id="path278"
       style="fill:#ff33ff" />
    <path
       d="M5557 4563 c-30 -37 -88 -115 -130 -173 -84 -118 -199 -254 -406 -480 -78 -85 -172 -188 -209 -229 -57 -63 -107 -107 -275 -242 -20 -16 -20 -17 7 -35 26 -17 30 -17 59 0 100 53 295 253 457 466 47 62 137 178 201 259 63 80 157 207 209 281 51 74 106 152 123 173 16 21 27 40 24 43 -3 3 -30 -25 -60 -63z"
       id="path280"
       style="fill:#9900ff" />
    <path
       d="M6194 4598 l-29 -31 32 22 c35 23 50 41 35 41 -4 0 -21 -14 -38 -32z"
       id="path282"
       style="fill:none" />
    <path
       d="M4600 4599 c-36 -11 -148 -36 -250 -56 -216 -44 -218 -56 -3 -18 152 26 307 68 318 85 3 6 5 9 3 9 -2 -1 -32 -10 -68 -20z"
       id="path284"
       style="fill:#ff33ff" />
    <path
       d="M2995 4595 c-170 -23 -399 -90 -522 -151 -102 -50 -120 -63 -198 -146 -57 -61 -85 -98 -85 -114 0 -13 2 -24 4 -24 3 0 26 29 51 64 48 68 169 163 275 216 162 82 533 148 758 134 110 -6 126 -2 100 24 -16 16 -262 14 -383 -3z"
       id="path286"
       style="fill:#993300" />
    <path
       d="M3472 4580 c6 -20 109 -39 212 -39 49 -1 87 1 85 3 -2 2 -53 11 -114 20 -60 9 -127 19 -149 23 -30 5 -38 3 -34 -7z"
       id="path288"
       style="fill:#9900ff" />
    <path
       d="M4825 4523 c-120 -73 -312 -176 -410 -220 -55 -25 -149 -68 -210 -95 -196 -88 -259 -114 -342 -142 -58 -19 -80 -31 -77 -41 3 -7 11 -15 17 -18 32 -12 496 192 652 287 44 27 121 68 170 92 129 63 223 118 254 148 36 36 17 32 -54 -11z"
       id="path290"
       style="fill:#ff6600" />
    <path
       d="M3030 4544 c-408 -70 -463 -88 -635 -209 -100 -70 -203 -193 -190 -227 4 -10 36 16 113 92 59 59 127 120 152 137 180 122 393 175 751 189 99 4 176 10 170 13 -12 8 -322 11 -361 5z"
       id="path292"
       style="fill:#cc3366" />
    <path
       d="M4775 4537 c-11 -7 -108 -54 -215 -106 -107 -51 -247 -119 -310 -151 -135 -69 -305 -139 -410 -170 -75 -22 -99 -35 -88 -45 16 -16 326 108 672 269 156 73 408 216 381 216 -6 0 -19 -6 -30 -13z"
       id="path294"
       style="fill:#9900ff" />
    <path
       d="M4390 4509 c-131 -25 -379 -57 -540 -69 -74 -5 -173 -14 -220 -20 -47 -5 -87 -10 -90 -10 -2 0 0 -4 6 -10 6 -6 31 -6 69 0 33 5 173 18 310 29 400 33 450 39 509 61 30 12 58 26 61 31 7 11 13 11 -105 -12z"
       id="path296"
       style="fill:#990099" />
    <path
       d="M2952 4480 c-165 -25 -259 -52 -372 -107 -86 -42 -107 -58 -229 -178 -109 -107 -133 -136 -127 -151 7 -17 10 -16 29 11 67 94 279 275 380 324 59 29 228 71 284 71 52 0 173 29 173 41 0 5 -3 9 -7 8 -5 0 -63 -9 -131 -19z"
       id="path298"
       style="fill:#cc3366" />
    <path
       d="M6063 4408 c-104 -106 -261 -336 -346 -509 -121 -246 -136 -281 -158 -374 -11 -49 -43 -160 -70 -246 -48 -152 -78 -213 -181 -362 -31 -44 -15 -42 26 4 54 59 130 222 182 389 77 246 115 350 175 483 105 232 216 411 347 559 74 82 109 128 100 128 -2 0 -36 -33 -75 -72z"
       id="path300"
       style="fill:#9900ff" />
    <path
       d="M3290 4459 c-346 -39 -806 -274 -934 -477 -25 -41 -61 -152 -54 -172 2 -6 27 36 56 95 73 145 154 226 313 312 153 83 209 107 347 148 116 34 350 85 391 85 11 0 21 5 21 10 0 11 -32 11 -140 -1z"
       id="path302"
       style="fill:#cc3366" />
    <path
       d="M6103 4342 c-113 -134 -130 -160 -236 -353 -97 -176 -103 -191 -197 -459 -37 -107 -78 -217 -89 -244 -24 -55 -21 -75 3 -27 25 47 153 355 197 469 41 111 89 203 180 347 31 50 66 110 79 135 13 25 37 59 54 75 32 31 112 153 104 160 -2 2 -45 -44 -95 -103z"
       id="path304"
       style="fill:#990099" />
    <path
       d="M5505 4420 c-10 -11 -16 -22 -14 -24 2 -2 12 7 22 20 22 29 17 32 -8 4z"
       id="path306"
       style="fill:none" />
    <path
       d="M3370 4423 c-87 -15 -349 -80 -420 -105 -92 -32 -300 -134 -366 -178 -104 -72 -231 -253 -249 -355 -10 -52 2 -41 56 55 51 90 130 192 194 248 103 90 400 215 688 287 92 23 170 45 174 49 7 6 -35 6 -77 -1z"
       id="path308"
       style="fill:#cc3366" />
    <path
       d="M4015 4414 c-231 -19 -457 -42 -463 -49 -3 -3 2 -13 11 -22 15 -15 26 -15 159 0 79 10 215 24 303 32 138 13 255 37 255 51 0 6 -80 3 -265 -12z"
       id="path310"
       style="fill:#ff6600" />
    <path
       d="M2737 4390 c-111 -29 -216 -99 -357 -237 -68 -67 -122 -125 -118 -128 3 -3 40 28 82 69 100 99 208 170 451 295 49 25 32 25 -58 1z"
       id="path312"
       style="fill:#cc3366" />
    <path
       d="M3365 4378 c-315 -76 -630 -200 -751 -296 -28 -22 -73 -68 -101 -103 -55 -70 -118 -168 -111 -174 2 -2 33 32 68 76 36 45 83 98 105 118 53 48 173 130 250 168 65 33 286 106 508 169 75 21 137 42 137 46 0 10 -55 8 -105 -4z"
       id="path314"
       style="fill:#993300" />
    <path
       d="M4613 4355 c-39 -19 -100 -52 -136 -75 -81 -51 -381 -195 -507 -244 -154 -59 -146 -55 -127 -73 14 -15 24 -13 109 16 95 33 312 145 448 232 42 27 97 58 122 69 25 11 68 35 96 53 27 17 58 37 68 44 36 23 -1 11 -73 -22z"
       id="path316"
       style="fill:#9933ff" />
    <path
       d="M5045 4209 c-88 -82 -218 -202 -290 -268 -152 -138 -381 -368 -374 -376 11 -10 330 268 489 426 171 170 345 357 338 364 -2 2 -75 -63 -163 -146z"
       id="path318"
       style="fill:#9933ff" />
    <path
       d="M5940 4329 c-12 -16 -21 -32 -18 -34 2 -2 13 12 26 31 28 42 21 45 -8 3z"
       id="path320"
       style="fill:none" />
    <path
       d="M3340 4316 c-216 -62 -435 -135 -505 -169 -124 -61 -239 -151 -333 -264 -48 -56 -97 -122 -110 -145 -23 -42 -22 -41 29 17 114 129 200 206 311 279 144 95 212 123 463 192 110 30 224 62 253 70 47 13 51 17 42 34 -13 25 -12 25 -150 -14z"
       id="path322"
       style="fill:#cc3366" />
    <path
       d="M3810 4329 c-96 -10 -185 -21 -197 -24 -23 -5 -31 -29 -14 -40 14 -8 363 52 403 69 30 13 31 14 8 14 -14 0 -104 -8 -200 -19z"
       id="path324"
       style="fill:#9933ff" />
    <path
       d="M5428 4313 c-14 -21 -77 -103 -139 -183 -63 -80 -153 -197 -201 -260 -153 -204 -276 -333 -458 -479 -23 -18 -24 -21 -9 -36 10 -10 24 -15 36 -11 31 10 184 165 268 272 44 56 129 159 189 230 60 71 132 165 160 209 28 44 83 128 123 188 40 59 68 107 64 107 -5 0 -20 -17 -33 -37z"
       id="path326"
       style="fill:#9900ff" />
    <path
       d="M1880 4297 c-36 -12 -86 -34 -111 -49 -57 -34 -164 -147 -208 -221 -38 -65 -37 -88 1 -30 13 21 38 58 54 82 16 24 44 57 64 72 19 16 57 47 84 68 45 36 103 62 196 89 29 8 30 10 10 10 -14 1 -54 -9 -90 -21z"
       id="path328"
       style="fill:#cc3366" />
    <path
       d="M4678 4187 c-210 -160 -421 -311 -510 -365 -43 -26 -77 -50 -78 -54 -1 -20 34 -1 145 76 66 47 181 126 255 178 131 90 285 213 324 256 11 12 17 22 15 21 -2 0 -70 -51 -151 -112z"
       id="path330"
       style="fill:#ff33ff" />
    <path
       d="M1937 4279 c-95 -22 -253 -136 -312 -225 -21 -33 -51 -78 -67 -101 -26 -38 -40 -74 -63 -163 -7 -28 1 -14 80 140 101 195 312 352 456 338 27 -3 49 -2 49 2 0 21 -74 25 -143 9z"
       id="path332"
       style="fill:#ff0000" />
    <path
       d="M3292 4229 c-345 -94 -398 -115 -567 -226 -90 -59 -244 -198 -232 -209 3 -3 38 20 77 53 250 204 395 271 770 354 102 23 188 44 193 48 4 4 -1 14 -10 23 -16 14 -38 10 -231 -43z"
       id="path334"
       style="fill:#993300" />
    <path
       d="M3780 4263 c-80 -14 -147 -27 -150 -30 -10 -9 34 -33 60 -33 31 0 250 67 265 81 13 13 -9 10 -175 -18z"
       id="path336"
       style="fill:#9900ff" />
    <path
       d="M5159 4263 l-24 -28 28 24 c15 14 27 26 27 28 0 8 -8 1 -31 -24z"
       id="path338"
       style="fill:none" />
    <path
       d="M5775 4212 c-56 -54 -82 -91 -134 -187 -35 -66 -91 -157 -123 -203 -33 -45 -73 -110 -89 -145 -16 -34 -63 -120 -104 -192 -42 -71 -98 -175 -124 -230 -27 -55 -65 -129 -85 -164 -29 -50 -34 -66 -25 -78 15 -18 19 -14 70 82 88 168 196 356 299 525 58 96 131 218 160 270 29 52 74 127 100 165 40 60 133 225 127 225 -1 0 -33 -31 -72 -68z"
       id="path340"
       style="fill:#ff6600" />
    <path
       d="M1954 4240 c-110 -35 -254 -147 -316 -245 -42 -66 -138 -261 -138 -280 0 -9 16 14 35 51 63 122 213 295 315 364 61 42 174 90 210 90 31 0 24 17 -11 29 -18 6 -32 11 -33 10 -1 0 -28 -9 -62 -19z"
       id="path342"
       style="fill:#cc0033" />
    <path
       d="M4438 4207 c-204 -128 -415 -240 -488 -257 -28 -7 -50 -16 -50 -21 0 -30 166 22 290 90 117 64 330 202 350 226 26 31 -17 15 -102 -38z"
       id="path344"
       style="fill:#9900ff" />
    <path
       d="M5439 4158 c-34 -51 -76 -111 -94 -133 -64 -79 -131 -170 -137 -185 -3 -8 -102 -131 -220 -273 -269 -327 -246 -294 -213 -309 25 -11 29 -10 54 18 93 108 161 197 253 329 57 83 132 188 166 234 35 46 81 116 103 155 23 39 60 100 83 136 24 36 51 77 60 93 10 15 16 27 13 27 -3 0 -34 -42 -68 -92z"
       id="path346"
       style="fill:#9900ff" />
    <path
       d="M5120 4220 c-8 -5 -12 -12 -9 -15 4 -3 12 1 19 10 14 17 11 19 -10 5z"
       id="path348"
       style="fill:none" />
    <path
       d="M3327 4175 c-256 -58 -424 -119 -552 -199 -55 -35 -31 -32 47 4 78 36 197 68 463 121 296 60 295 59 295 74 0 19 -28 45 -48 44 -9 0 -102 -20 -205 -44z"
       id="path350"
       style="fill:#990033" />
    <path
       d="M6055 4189 c-10 -18 -50 -84 -90 -148 -86 -138 -133 -229 -169 -331 -36 -101 -180 -438 -223 -524 -41 -82 -95 -218 -88 -224 11 -11 44 33 59 78 9 27 47 120 85 207 37 87 111 257 164 378 52 121 124 268 160 327 36 59 73 131 82 160 10 29 24 64 32 76 8 13 12 26 10 29 -3 3 -13 -10 -22 -28z"
       id="path352"
       style="fill:#9900ff" />
    <path
       d="M1931 4149 c-89 -45 -112 -63 -178 -134 -157 -172 -234 -298 -232 -378 0 -30 2 -29 18 18 47 131 123 239 256 363 86 81 152 118 237 135 43 9 63 18 63 27 0 33 -60 22 -164 -31z"
       id="path354"
       style="fill:#cc0033" />
    <path
       d="M5474 4158 c-4 -7 -14 -24 -22 -38 -14 -24 -13 -24 3 -5 20 24 37 55 31 55 -3 0 -8 -6 -12 -12z"
       id="path356"
       style="fill:none" />
    <path
       d="M4450 4129 c-25 -16 -108 -67 -185 -114 -150 -90 -204 -129 -193 -140 7 -7 411 255 423 274 9 15 6 14 -45 -20z"
       id="path358"
       style="fill:#9933ff" />
    <path
       d="M2080 4143 c-141 -19 -253 -98 -401 -285 -57 -70 -77 -106 -109 -192 -42 -111 -46 -126 -31 -126 4 0 14 21 21 48 41 150 152 294 305 394 91 60 132 76 220 87 46 6 50 8 47 31 -5 33 -21 47 -52 43z"
       id="path360"
       style="fill:#cc0033" />
    <path
       d="M5037 4132 c-10 -10 -17 -22 -17 -27 0 -4 9 2 20 15 11 13 20 25 20 27 0 7 -8 2 -23 -15z"
       id="path362"
       style="fill:none" />
    <path
       d="M4639 4101 c-13 -10 -125 -89 -249 -176 -245 -171 -266 -188 -256 -204 14 -22 40 -9 154 78 123 94 368 296 377 312 9 14 0 11 -26 -10z"
       id="path364"
       style="fill:#9933ff" />
    <path
       d="M3325 4054 c-308 -58 -495 -119 -585 -192 -14 -12 10 -3 55 19 146 71 267 103 550 145 195 28 280 47 280 60 0 19 -76 11 -300 -32z"
       id="path366"
       style="fill:#993300" />
    <path
       d="M5595 4023 c-26 -43 -61 -98 -78 -123 -184 -270 -249 -375 -332 -545 -52 -104 -107 -211 -122 -237 -21 -36 -25 -50 -16 -59 6 -6 16 -9 21 -5 6 3 40 68 77 143 37 76 91 179 120 228 29 50 78 140 110 200 32 61 86 151 120 200 67 98 160 263 152 271 -2 3 -26 -30 -52 -73z"
       id="path368"
       style="fill:#9900ff" />
    <path
       d="M4979 4063 c-13 -16 -12 -17 4 -4 9 7 17 15 17 17 0 8 -8 3 -21 -13z"
       id="path370"
       style="fill:none" />
    <path
       d="M3570 4039 c-41 -10 -142 -28 -225 -39 -184 -26 -317 -54 -410 -87 -97 -35 -216 -98 -262 -138 -37 -34 -37 -34 57 14 126 65 186 82 508 146 328 65 432 92 432 111 0 17 -6 17 -100 -7z"
       id="path372"
       style="fill:#990033" />
    <path
       d="M2019 4036 c-25 -6 -65 -24 -90 -38 -51 -30 -166 -118 -155 -118 5 0 31 18 58 40 87 69 152 94 240 95 67 0 78 2 78 18 0 14 -8 17 -42 16 -24 0 -64 -6 -89 -13z"
       id="path374"
       style="fill:#ff0000" />
    <path
       d="M5687 3963 c-29 -49 -73 -124 -97 -168 -24 -44 -72 -123 -105 -175 -69 -106 -203 -339 -296 -515 -43 -81 -58 -120 -51 -127 6 -6 15 -7 20 -4 13 8 143 232 206 356 27 52 77 140 112 195 34 56 77 137 94 180 17 44 62 132 100 195 38 63 72 123 75 133 16 39 -7 12 -58 -70z"
       id="path376"
       style="fill:#9900ff" />
    <path
       d="M3612 3989 c-35 -10 -170 -39 -300 -64 -306 -59 -415 -87 -512 -129 -140 -60 -285 -168 -320 -237 -35 -67 -22 -64 63 18 88 84 179 143 287 186 121 48 448 128 605 148 145 19 285 52 285 67 0 12 -23 32 -34 31 -6 -1 -40 -10 -74 -20z"
       id="path378"
       style="fill:#993300" />
    <path
       d="M4784 3877 c-72 -67 -163 -149 -202 -181 -39 -33 -73 -65 -76 -73 -3 -7 -11 -13 -18 -13 -7 -1 -33 -19 -58 -40 -36 -32 -42 -42 -32 -52 10 -10 17 -9 36 2 33 21 491 468 485 474 -2 3 -63 -50 -135 -117z"
       id="path380"
       style="fill:#ff6600" />
    <path
       d="M2007 3935 c-143 -36 -220 -96 -323 -251 -54 -81 -140 -261 -130 -271 2 -3 27 40 54 95 60 122 96 175 161 238 93 91 239 163 349 172 37 3 59 9 54 14 -16 16 -106 18 -165 3z"
       id="path382"
       style="fill:#cc0033" />
    <path
       d="M3640 3924 c-47 -14 -130 -29 -185 -34 -107 -10 -430 -87 -578 -139 -141 -49 -265 -127 -354 -224 -38 -41 -55 -77 -37 -77 4 0 34 24 68 53 140 122 250 189 376 230 105 34 491 115 630 133 119 15 220 39 220 52 0 14 -23 32 -39 31 -9 0 -54 -12 -101 -25z"
       id="path384"
       style="fill:#cc3366" />
    <path
       d="M5913 3838 c-23 -46 -67 -144 -98 -218 -31 -74 -74 -173 -95 -220 -61 -133 -161 -373 -156 -377 2 -2 19 14 38 36 31 37 153 311 188 426 7 22 37 96 68 165 67 153 104 250 100 262 -2 5 -22 -28 -45 -74z"
       id="path386"
       style="fill:#9900ff" />
    <path
       d="M2053 3885 c-118 -32 -239 -113 -319 -213 -44 -55 -130 -210 -121 -218 2 -2 21 23 42 57 111 180 319 328 484 346 63 6 70 10 49 31 -16 16 -70 14 -135 -3z"
       id="path388"
       style="fill:#ff0000" />
    <path
       d="M3719 3870 c-31 -10 -101 -24 -155 -30 -101 -12 -424 -75 -561 -111 -138 -35 -279 -112 -403 -218 -86 -74 -105 -97 -90 -106 6 -4 37 18 70 48 66 61 207 152 315 203 113 54 388 119 569 135 150 13 300 37 345 55 28 12 31 16 21 29 -16 19 -40 18 -111 -5z"
       id="path390"
       style="fill:#cc3366" />
    <path
       d="M2049 3816 c-118 -42 -295 -185 -363 -293 -41 -66 -31 -63 35 9 86 96 207 173 343 220 61 21 123 38 139 38 29 0 34 9 15 28 -16 16 -123 15 -169 -2z"
       id="path392"
       style="fill:#ff0000" />
    <path
       d="M5149 3668 c-128 -184 -205 -288 -273 -367 -33 -40 -43 -58 -35 -65 8 -8 19 -1 40 24 98 119 404 570 386 570 -2 0 -55 -73 -118 -162z"
       id="path394"
       style="fill:#9933ff" />
    <path
       d="M3490 3769 c-166 -16 -461 -80 -566 -124 -111 -46 -358 -217 -384 -266 -22 -41 0 -32 58 24 115 109 267 193 477 260 105 34 148 44 339 72 88 13 164 29 170 35 5 5 8 9 6 9 -3 -1 -48 -6 -100 -10z"
       id="path396"
       style="fill:#993300" />
    <path
       d="M2140 3755 c-36 -8 -111 -37 -167 -65 -162 -80 -275 -196 -382 -392 -28 -51 -41 -87 -39 -105 3 -25 7 -19 36 42 57 121 183 268 298 351 85 61 217 121 297 136 51 10 67 16 65 28 -4 20 -31 21 -108 5z"
       id="path398"
       style="fill:#cc0033" />
    <path
       d="M3830 3757 c-14 -8 -70 -43 -125 -79 -109 -71 -155 -96 -410 -218 -288 -139 -404 -190 -509 -227 -95 -33 -176 -72 -149 -73 7 0 41 11 75 24 35 13 115 43 178 66 63 24 185 78 270 120 85 43 195 94 243 114 48 20 134 59 190 87 106 53 307 178 307 192 0 12 -43 8 -70 -6z"
       id="path400"
       style="fill:#993300" />
    <path
       d="M3800 3665 c-85 -57 -177 -107 -285 -156 -88 -39 -243 -112 -344 -162 -101 -50 -257 -116 -348 -148 -91 -32 -168 -60 -171 -63 -3 -4 1 -13 9 -20 12 -12 27 -9 109 20 186 69 377 148 515 214 259 124 684 362 685 385 0 6 -10 11 -22 12 -14 1 -70 -29 -148 -82z"
       id="path402"
       style="fill:#cc3366" />
    <path
       d="M3643 3699 c-43 -23 -132 -69 -198 -104 -66 -35 -190 -93 -275 -129 -317 -133 -454 -196 -509 -232 -57 -39 -57 -61 1 -26 18 11 51 25 73 32 147 46 781 345 927 437 48 30 88 57 88 59 0 12 -39 -1 -107 -37z"
       id="path404"
       style="fill:#993300" />
    <path
       d="M5221 3625 c-40 -58 -75 -113 -78 -123 -3 -9 -18 -30 -33 -47 -27 -31 -83 -120 -119 -192 -22 -44 -28 -103 -11 -103 5 0 35 51 66 113 31 61 72 136 90 164 19 29 48 81 65 115 17 35 47 87 66 117 62 97 27 64 -46 -44z"
       id="path406"
       style="fill:#9900ff" />
    <path
       d="M2195 3705 c-141 -30 -283 -111 -397 -228 -115 -116 -174 -202 -217 -316 -29 -78 -7 -61 35 27 120 247 330 418 577 469 49 10 87 23 87 29 0 26 -25 31 -85 19z"
       id="path408"
       style="fill:#cc0033" />
    <path
       d="M3949 3686 c-68 -46 -296 -174 -489 -274 -213 -110 -395 -190 -622 -273 -82 -30 -148 -60 -148 -66 0 -16 -9 -17 80 11 188 60 534 207 805 343 127 63 246 125 265 136 74 44 189 130 184 139 -9 15 -39 9 -75 -16z"
       id="path410"
       style="fill:#993300" />
    <path
       d="M3220 3676 c-186 -43 -348 -109 -486 -201 -96 -64 -204 -165 -176 -165 5 0 15 7 22 15 17 20 190 125 290 175 71 36 324 139 435 178 l30 10 -30 0 c-16 0 -55 -6 -85 -12z"
       id="path412"
       style="fill:#cc3366" />
    <path
       d="M3445 3646 c-44 -19 -120 -52 -170 -75 -286 -129 -503 -224 -525 -229 -26 -5 -110 -70 -110 -84 0 -4 28 8 63 27 34 18 195 91 357 161 257 110 480 217 480 230 0 8 -17 3 -95 -30z"
       id="path414"
       style="fill:#cc3366" />
    <path
       d="M4005 3648 c-90 -69 -183 -122 -425 -245 -241 -121 -697 -317 -804 -344 -47 -12 -64 -23 -47 -33 30 -19 598 198 915 349 147 70 436 253 436 276 0 4 -8 13 -18 18 -13 7 -27 2 -57 -21z"
       id="path416"
       style="fill:#cc3366" />
    <path
       d="M3355 3648 c-151 -50 -344 -136 -459 -203 -69 -40 -50 -41 35 -1 41 19 157 71 259 116 188 83 255 118 165 88z"
       id="path418"
       style="fill:#993300" />
    <path
       d="M2195 3640 c-22 -5 -65 -18 -95 -30 -118 -46 -175 -85 -284 -190 -103 -100 -111 -111 -171 -231 -38 -74 -60 -131 -56 -138 5 -8 16 9 29 46 34 94 91 177 196 289 82 87 111 111 175 143 94 48 160 68 251 77 56 5 70 10 66 21 -4 8 -6 17 -6 19 0 6 -60 3 -105 -6z"
       id="path420"
       style="fill:#cc0033" />
    <path
       d="M4055 3599 c-164 -126 -398 -252 -690 -374 -199 -83 -433 -171 -534 -201 -8 -3 -12 -7 -9 -9 12 -12 467 145 683 235 122 51 522 253 593 299 l64 42 -25 19 c-32 26 -34 25 -82 -11z"
       id="path422"
       style="fill:#990033" />
    <path
       d="M4065 3503 c-154 -88 -519 -263 -678 -326 -161 -62 -195 -89 -56 -43 79 26 337 122 404 150 22 9 120 60 218 114 131 71 183 104 193 125 8 15 11 27 7 27 -5 0 -44 -21 -88 -47z"
       id="path424"
       style="fill:#990033" />
    <path
       d="M5456 3457 c-10 -17 -54 -98 -97 -178 -43 -81 -99 -182 -124 -225 -52 -87 -55 -95 -38 -101 16 -6 93 106 148 217 26 52 63 119 83 148 31 48 70 172 53 172 -3 0 -15 -15 -25 -33z"
       id="path426"
       style="fill:#9900ff" />
    <path
       d="M2092 3460 c-41 -11 -103 -34 -139 -52 -71 -35 -196 -145 -227 -199 -15 -28 -9 -23 35 22 70 74 160 131 262 166 73 25 96 28 207 28 69 0 138 -4 153 -8 42 -12 30 13 -17 37 -57 28 -183 31 -274 6z"
       id="path428"
       style="fill:#ff0000" />
    <path
       d="M1600 3388 c-20 -33 -28 -66 -9 -38 19 29 39 70 34 70 -3 0 -14 -15 -25 -32z"
       id="path430"
       style="fill:none" />
    <path
       d="M4230 3406 c-19 -7 -53 -24 -75 -38 -22 -14 -160 -84 -307 -157 -271 -133 -314 -150 -921 -354 -101 -34 -50 -40 69 -8 262 71 677 232 861 333 65 36 177 95 248 132 131 67 172 92 164 100 -2 2 -20 -1 -39 -8z"
       id="path432"
       style="fill:#ff6600" />
    <path
       d="M1279 3362 c-27 -27 -49 -55 -49 -63 0 -8 13 0 28 17 35 41 61 54 108 54 33 0 36 2 24 14 -37 34 -59 30 -111 -22z"
       id="path434"
       style="fill:#cc3300" />
    <path
       d="M2098 3395 c-79 -20 -182 -68 -244 -115 -56 -42 -150 -147 -141 -156 3 -4 37 22 76 57 88 80 176 134 266 162 60 19 93 22 228 22 86 0 157 3 157 7 0 30 -248 47 -342 23z"
       id="path436"
       style="fill:#ff0000" />
    <path
       d="M4094 3385 c-34 -13 -81 -35 -105 -50 -109 -69 -371 -170 -789 -305 -294 -95 -300 -97 -337 -120 -22 -13 -31 -25 -27 -35 8 -21 31 -16 224 52 85 31 202 70 260 89 58 18 140 45 184 60 93 32 656 310 656 324 0 6 -1 10 -2 10 -2 -1 -31 -12 -64 -25z"
       id="path438"
       style="fill:#cc3366" />
    <path
       d="M4265 3374 c-33 -20 -123 -68 -200 -106 -77 -39 -179 -92 -227 -120 -143 -82 -620 -262 -880 -333 -54 -15 -57 -17 -45 -36 14 -24 1 -27 242 44 223 66 337 106 535 190 254 107 710 343 710 367 0 4 -10 10 -22 13 -13 2 -30 7 -38 11 -9 3 -40 -9 -75 -30z"
       id="path440"
       style="fill:#993300" />
    <path
       d="M4340 3312 c-228 -139 -776 -389 -990 -452 -149 -44 -393 -120 -397 -124 -7 -7 21 -46 33 -46 28 0 340 85 449 122 145 49 531 201 598 234 54 28 421 245 452 268 l20 14 -20 16 c-32 25 -65 17 -145 -32z"
       id="path442"
       style="fill:#cc3366" />
    <path
       d="M1327 3341 c-23 -9 -107 -91 -107 -105 0 -5 15 6 33 26 49 53 91 71 151 65 48 -6 49 -5 26 8 -27 15 -73 18 -103 6z"
       id="path444"
       style="fill:#990000" />
    <path
       d="M2115 3334 c-118 -26 -198 -71 -325 -187 -113 -102 -177 -173 -167 -184 3 -3 61 39 129 94 68 54 145 113 171 132 77 53 199 109 273 127 107 26 117 33 49 33 -33 -1 -91 -7 -130 -15z"
       id="path446"
       style="fill:#cc0033" />
    <path
       d="M2358 3333 c7 -3 16 -2 19 1 4 3 -2 6 -13 5 -11 0 -14 -3 -6 -6z"
       id="path448"
       style="fill:none" />
    <path
       d="M2200 3294 c-47 -14 -119 -43 -160 -65 -70 -38 -215 -138 -208 -144 4 -3 455 219 465 228 10 11 -6 8 -97 -19z"
       id="path450"
       style="fill:#ff0000" />
    <path
       d="M2330 3298 c-95 -36 -430 -211 -554 -288 -187 -117 -112 -104 134 23 418 217 608 337 420 265z"
       id="path452"
       style="fill:#cc0033" />
    <path
       d="M1330 3295 c-60 -27 -266 -255 -231 -255 6 0 11 3 11 8 0 4 21 33 48 65 99 121 183 161 278 132 27 -8 49 -13 50 -12 1 1 -10 17 -26 35 -33 40 -79 49 -130 27z"
       id="path454"
       style="fill:#ff3300" />
    <path
       d="M2380 3270 c-73 -50 -546 -307 -620 -336 -32 -13 -70 -25 -84 -26 -25 -2 -32 -9 -20 -20 29 -30 513 207 710 347 102 73 115 104 14 35z"
       id="path456"
       style="fill:#cc0033" />
    <path
       d="M4305 3180 c-232 -142 -322 -185 -620 -300 -214 -83 -316 -116 -534 -175 -74 -19 -138 -38 -144 -42 -22 -13 24 -23 65 -14 24 6 90 19 148 30 154 30 642 199 780 271 30 16 118 59 194 95 121 57 272 148 356 214 25 20 25 20 5 35 -11 9 -24 15 -30 15 -5 -1 -104 -59 -220 -129z"
       id="path458"
       style="fill:#cc3366" />
    <path
       d="M2393 3227 c-130 -99 -540 -320 -644 -347 -75 -19 -79 -21 -73 -31 3 -5 10 -7 15 -3 6 3 39 12 75 19 100 21 231 79 417 182 242 135 264 150 293 205 28 55 18 51 -83 -25z"
       id="path460"
       style="fill:#cc0033" />
    <path
       d="M5375 3180 c-32 -63 -71 -134 -86 -157 -34 -49 -37 -63 -8 -37 34 30 87 117 125 206 53 124 34 117 -31 -12z"
       id="path462"
       style="fill:#9933ff" />
    <path
       d="M4560 3244 c-22 -26 -211 -147 -290 -186 -327 -160 -462 -217 -758 -319 -151 -52 -310 -93 -404 -104 -41 -4 -58 -11 -58 -21 0 -18 -11 -19 196 17 195 33 267 49 359 77 99 31 455 162 524 193 35 16 69 29 75 28 25 -1 -212 -101 -389 -164 -299 -107 -356 -121 -643 -166 -90 -14 -94 -35 -6 -31 83 3 342 47 514 87 261 61 569 185 779 314 89 56 252 182 259 201 2 5 -8 16 -22 25 -25 16 -27 16 -63 -12 -56 -44 -251 -176 -305 -207 -62 -36 -62 -20 0 19 36 22 237 160 316 218 13 9 -31 46 -55 47 -9 0 -22 -7 -29 -16z"
       id="path464"
       style="fill:#cc3366" />
    <path
       d="M1339 3226 c-46 -12 -94 -41 -120 -72 -8 -10 -9 -15 -4 -13 6 3 32 15 58 28 52 24 118 31 185 18 53 -11 56 4 5 26 -59 25 -75 26 -124 13z"
       id="path466"
       style="fill:#990000" />
    <path
       d="M1330 3166 c-51 -13 -107 -45 -135 -76 -25 -28 -10 -25 30 6 72 55 175 77 254 54 40 -11 55 -5 20 8 -45 17 -124 21 -169 8z"
       id="path468"
       style="fill:#990000" />
    <path
       d="M4658 3088 c-309 -259 -815 -455 -1372 -529 -149 -20 -106 -34 102 -33 206 1 282 11 489 65 265 69 443 158 669 338 46 36 110 88 143 114 50 39 61 53 61 77 0 17 -4 30 -9 30 -5 0 -42 -28 -83 -62z"
       id="path470"
       style="fill:#990033" />
    <path
       d="M1320 3121 c-53 -20 -140 -79 -192 -129 -68 -65 -40 -53 66 27 105 80 150 101 219 101 20 0 37 5 37 10 0 16 -81 11 -130 -9z"
       id="path472"
       style="fill:#ff3300" />
    <path
       d="M1495 3112 c17 -11 32 -18 34 -15 8 6 -13 20 -39 28 -23 6 -22 5 5 -13z"
       id="path474"
       style="fill:none" />
    <path
       d="M2390 3074 c-107 -52 -435 -188 -582 -241 -59 -21 -98 -41 -98 -49 0 -16 21 -19 36 -5 17 16 278 123 408 168 134 45 348 141 360 162 14 22 -31 10 -124 -35z"
       id="path476"
       style="fill:#cc0033" />
    <path
       d="M1372 3089 c-45 -9 -152 -77 -240 -155 -65 -57 -61 -70 5 -19 26 20 90 57 140 82 108 54 185 67 229 38 41 -27 42 -7 2 31 -40 36 -57 39 -136 23z"
       id="path478"
       style="fill:#ff3300" />
    <path
       d="M2500 3044 c-102 -72 -265 -145 -515 -230 -126 -42 -232 -79 -234 -81 -2 -2 -2 -6 2 -9 3 -3 54 8 114 26 276 84 575 217 658 293 28 26 48 46 45 46 -3 1 -34 -20 -70 -45z"
       id="path480"
       style="fill:#ff0000" />
    <path
       d="M4790 3044 c-208 -215 -424 -364 -667 -459 -120 -47 -90 -44 44 4 154 55 229 88 289 126 49 31 385 345 392 366 8 22 -17 6 -58 -37z"
       id="path482"
       style="fill:#990033" />
    <path
       d="M4708 2913 c-176 -170 -230 -214 -323 -260 -109 -55 -351 -134 -523 -173 -119 -26 -368 -76 -452 -90 -126 -21 -126 -21 -107 -35 14 -10 25 -10 58 1 22 8 72 19 112 25 80 12 345 75 592 139 301 79 473 163 648 315 95 83 191 215 167 230 -5 3 -82 -66 -172 -152z"
       id="path484"
       style="fill:#993300" />
    <path
       d="M2535 3019 c-94 -77 -428 -223 -669 -293 -49 -14 -91 -28 -94 -31 -10 -10 57 -5 134 10 239 46 505 172 669 318 56 50 22 47 -40 -4z"
       id="path486"
       style="fill:#cc0033" />
    <path
       d="M5448 2987 c-36 -68 -42 -104 -12 -63 15 21 57 127 52 132 -2 1 -20 -29 -40 -69z"
       id="path488"
       style="fill:#9933ff" />
    <path
       d="M4891 3022 c-11 -17 -21 -35 -21 -41 0 -13 -163 -180 -225 -231 l-40 -33 50 28 c117 65 238 180 264 250 18 50 1 67 -28 27z"
       id="path490"
       style="fill:#993300" />
    <path
       d="M2360 3003 c-41 -20 -131 -55 -200 -78 -122 -41 -382 -146 -376 -152 3 -3 280 90 402 135 93 35 239 106 249 122 8 13 12 14 -75 -27z"
       id="path492"
       style="fill:#cc0033" />
    <path
       d="M2596 3011 c-125 -131 -426 -276 -668 -322 -142 -27 -155 -33 -93 -37 228 -16 574 123 738 296 31 33 57 68 57 76 0 21 -2 21 -34 -13z"
       id="path494"
       style="fill:#cc0033" />
    <path
       d="M1369 3016 c-124 -44 -346 -200 -444 -311 -31 -36 -53 -65 -50 -65 4 0 53 44 109 98 105 100 202 166 308 209 54 22 72 25 147 20 47 -3 97 -8 111 -13 l25 -7 -25 28 c-47 52 -111 66 -181 41z"
       id="path496"
       style="fill:#ff3300" />
    <path
       d="M4934 2988 c-36 -70 -100 -139 -196 -212 -81 -62 -275 -151 -558 -256 -169 -62 -241 -82 -470 -130 -271 -57 -291 -62 -316 -75 -17 -9 -22 -15 -14 -20 7 -4 15 -3 19 3 9 16 151 49 349 83 219 37 198 31 542 146 320 106 418 150 518 228 68 53 192 195 192 220 0 7 -11 20 -25 29 -24 16 -25 15 -41 -16z"
       id="path498"
       style="fill:#993300" />
    <path
       d="M2611 2956 c-74 -96 -209 -182 -418 -266 -101 -40 -182 -56 -323 -62 -97 -5 -51 -23 55 -22 116 1 202 22 362 89 133 56 209 103 289 177 56 52 96 119 81 134 -2 2 -23 -20 -46 -50z"
       id="path500"
       style="fill:#cc0033" />
    <path
       d="M2656 2926 c-53 -90 -189 -182 -389 -261 -119 -48 -187 -66 -357 -94 l-55 -9 75 -1 c114 -2 238 17 300 45 30 14 109 55 175 92 95 52 139 84 209 152 74 72 87 89 79 104 -9 16 -13 12 -37 -28z"
       id="path502"
       style="fill:#cc0033" />
    <path
       d="M4981 2906 c-58 -75 -157 -167 -229 -214 -87 -56 -189 -97 -505 -201 -229 -76 -308 -97 -469 -126 -308 -56 -376 -74 -363 -95 7 -11 1 -12 295 45 124 24 266 51 315 61 189 35 403 111 655 232 144 69 234 131 271 188 14 21 37 56 50 77 13 20 32 40 42 43 22 7 22 21 -2 33 -16 9 -25 3 -60 -43z"
       id="path504"
       style="fill:#cc3366" />
    <path
       d="M1310 2931 c-51 -17 -130 -57 -130 -67 0 -3 19 5 41 17 62 31 202 46 290 31 67 -12 91 -10 77 4 -14 13 -117 34 -168 33 -30 0 -80 -8 -110 -18z"
       id="path506"
       style="fill:#990000" />
    <path
       d="M5041 2875 c-24 -25 -58 -66 -76 -91 -49 -68 -123 -119 -295 -202 -277 -133 -474 -200 -715 -242 -166 -30 -448 -90 -455 -97 -5 -6 134 1 315 17 113 9 141 16 475 114 318 93 517 201 681 367 66 66 124 149 117 169 -2 6 -23 -10 -47 -35z"
       id="path508"
       style="fill:#993300" />
    <path
       d="M1040 2895 c-7 -9 -11 -18 -8 -20 3 -3 11 1 18 10 7 9 11 18 8 20 -3 3 -11 -1 -18 -10z"
       id="path510"
       style="fill:none" />
    <path
       d="M1343 2889 c-34 -4 -81 -16 -105 -27 -54 -24 -183 -106 -194 -124 -5 -8 2 -6 18 4 57 37 155 87 208 104 43 15 85 19 197 18 148 0 180 10 65 21 -37 3 -80 7 -97 9 -16 2 -58 0 -92 -5z"
       id="path512"
       style="fill:#990000" />
    <path
       d="M5066 2821 c-133 -199 -390 -358 -756 -465 -85 -25 -207 -61 -270 -80 -95 -28 -145 -36 -288 -47 -122 -9 -168 -15 -156 -22 23 -13 302 8 441 33 342 62 679 216 898 409 219 194 225 202 191 230 -11 10 -23 -1 -60 -58z"
       id="path514"
       style="fill:#990033" />
    <path
       d="M2622 2825 c-59 -62 -107 -95 -269 -184 -108 -59 -162 -78 -293 -100 -52 -9 -51 -10 25 -5 193 11 392 105 524 249 44 49 79 96 69 95 -2 -1 -27 -25 -56 -55z"
       id="path516"
       style="fill:#ff0000" />
    <path
       d="M1370 2841 c-30 -4 -73 -14 -95 -21 -95 -31 -267 -131 -310 -181 -17 -19 -12 -17 25 8 82 55 189 112 260 137 97 35 234 52 307 37 31 -6 59 -9 62 -5 10 10 -24 24 -59 24 -19 0 -57 2 -85 4 -27 3 -75 1 -105 -3z"
       id="path518"
       style="fill:#ff3300" />
    <path
       d="M5020 2703 c-74 -69 -174 -151 -222 -183 -189 -127 -487 -247 -730 -295 -161 -32 -428 -53 -486 -38 -23 6 -42 9 -42 7 0 -2 18 -13 40 -24 54 -28 254 -28 433 0 154 24 204 36 373 93 156 53 252 97 364 166 105 66 162 112 270 220 187 188 187 226 0 54z"
       id="path520"
       style="fill:#cc3366" />
    <path
       d="M2729 2757 c-97 -89 -272 -180 -479 -249 l-85 -28 63 5 c175 14 399 114 561 252 30 26 32 32 22 51 -6 12 -15 22 -19 22 -4 -1 -32 -24 -63 -53z"
       id="path522"
       style="fill:#ff0000" />
    <path
       d="M1285 2771 c-49 -17 -116 -50 -104 -51 4 0 26 7 50 16 24 9 71 24 104 34 45 14 52 18 30 19 -16 0 -52 -8 -80 -18z"
       id="path524"
       style="fill:#990000" />
    <path
       d="M1530 2779 c-160 -17 -353 -80 -479 -157 -72 -44 -205 -152 -196 -160 3 -3 22 10 43 30 66 64 256 159 403 201 94 27 255 57 308 57 28 0 51 4 51 8 0 12 -23 32 -34 31 -6 -1 -49 -6 -96 -10z"
       id="path526"
       style="fill:#ff3300" />
    <path
       d="M5097 2702 c-135 -155 -299 -282 -472 -366 -102 -50 -312 -126 -430 -156 -108 -28 -378 -63 -442 -58 -61 5 -69 -5 -17 -22 40 -14 127 -6 398 36 190 30 238 45 410 131 240 120 340 189 479 332 123 127 176 191 160 191 -5 0 -44 -40 -86 -88z"
       id="path528"
       style="fill:#cc3366" />
    <path
       d="M2780 2704 c-30 -24 -89 -65 -130 -90 -197 -120 -329 -157 -568 -157 -157 -1 -177 -13 -37 -23 106 -7 298 10 375 33 107 33 324 152 415 228 26 22 28 26 15 39 -13 12 -22 8 -70 -30z"
       id="path530"
       style="fill:#cc0033" />
    <path
       d="M5140 2694 c-80 -99 -236 -241 -331 -305 -52 -34 -175 -101 -274 -149 -172 -84 -186 -89 -320 -114 -178 -33 -268 -46 -327 -46 -26 0 -49 -4 -52 -8 -6 -10 89 -36 103 -28 5 3 44 11 87 17 100 14 456 103 543 135 236 89 478 283 600 480 55 90 38 100 -29 18z"
       id="path532"
       style="fill:#cc3366" />
    <path
       d="M1490 2714 c-101 -18 -237 -58 -327 -95 -76 -32 -92 -46 -33 -29 18 5 97 19 174 30 78 12 168 28 201 36 82 19 175 54 175 65 0 13 -103 9 -190 -7z"
       id="path534"
       style="fill:#ff3300" />
    <path
       d="M2819 2656 c-81 -62 -264 -162 -357 -196 -79 -29 -193 -45 -367 -54 -38 -2 18 -2 125 -1 180 2 202 4 285 29 50 15 104 36 120 46 17 10 68 40 114 66 46 27 102 65 125 85 36 33 39 39 26 53 -13 13 -21 10 -71 -28z"
       id="path536"
       style="fill:#cc0033" />
    <path
       d="M1638 2671 c-64 -25 -161 -48 -307 -70 -68 -11 -126 -23 -130 -27 -9 -9 190 6 289 22 83 14 210 65 210 85 0 12 -7 11 -62 -10z"
       id="path538"
       style="fill:#990000" />
    <path
       d="M5159 2623 c-115 -178 -414 -398 -634 -466 -122 -38 -443 -117 -475 -117 -16 0 -32 -4 -35 -10 -18 -30 328 28 481 80 155 52 403 198 525 308 27 24 80 90 117 145 87 130 85 127 74 127 -5 0 -29 -30 -53 -67z"
       id="path540"
       style="fill:#cc3366" />
    <path
       d="M1645 2619 c-76 -36 -177 -57 -330 -68 l-120 -8 150 -2 c83 0 177 3 210 9 68 11 170 59 170 79 0 23 -17 21 -80 -10z"
       id="path542"
       style="fill:#990000" />
    <path
       d="M2855 2600 c-33 -28 -63 -50 -67 -50 -5 0 -39 -18 -75 -41 -171 -103 -280 -132 -511 -133 -151 -1 -161 -2 -130 -15 53 -23 229 -26 329 -6 188 39 357 120 494 239 28 24 37 38 29 46 -7 7 -28 -5 -69 -40z"
       id="path544"
       style="fill:#cc0033" />
    <path
       d="M5165 2560 c-52 -85 -124 -161 -229 -239 -199 -149 -399 -242 -617 -286 -46 -9 -91 -21 -99 -27 -11 -7 -8 -8 10 -3 14 3 60 10 102 15 128 15 322 81 498 170 119 60 254 184 336 309 45 69 54 85 54 104 0 32 -18 17 -55 -43z"
       id="path546"
       style="fill:#cc3366" />
    <path
       d="M1699 2574 c-65 -45 -159 -58 -402 -55 -131 1 -217 -1 -213 -7 3 -5 36 -12 73 -15 37 -4 118 -11 179 -17 138 -13 283 -1 342 29 43 22 85 68 76 82 -8 13 -15 11 -55 -17z"
       id="path548"
       style="fill:#ff3300" />
    <path
       d="M2900 2575 c-29 -31 -151 -115 -210 -145 -61 -31 -201 -79 -280 -96 -90 -19 -280 -18 -327 1 -55 23 -53 8 2 -16 45 -20 61 -21 229 -17 173 5 186 6 280 38 58 20 128 53 170 80 73 47 196 155 196 171 0 18 -37 8 -60 -16z"
       id="path550"
       style="fill:#cc0033" />
    <path
       d="M1728 2515 c-20 -18 -53 -38 -75 -44 -62 -18 -241 -24 -348 -11 -55 6 -140 13 -190 15 -49 2 -74 1 -55 -1 19 -3 89 -14 155 -24 254 -42 393 -42 479 0 60 28 86 53 86 80 0 27 -9 25 -52 -15z"
       id="path552"
       style="fill:#990000" />
    <path
       d="M2957 2490 c-18 -26 -22 -50 -9 -50 13 0 35 46 30 61 -3 8 -10 5 -21 -11z"
       id="path554"
       style="fill:#ff0000" />
    <path
       d="M5165 2462 c-16 -26 -72 -90 -125 -143 -86 -85 -110 -102 -216 -156 -65 -34 -155 -73 -198 -89 -87 -30 -88 -42 -2 -24 62 13 279 118 374 181 35 23 82 65 104 93 39 48 105 173 96 181 -2 2 -17 -17 -33 -43z"
       id="path556"
       style="fill:#cc3366" />
    <path
       d="M1765 2461 c-6 -5 -32 -21 -59 -35 -27 -14 -43 -26 -37 -26 21 0 78 30 97 51 17 19 16 27 -1 10z"
       id="path558"
       style="fill:#990000" />
    <path
       d="M1789 2429 c-26 -25 -55 -41 -99 -53 -68 -19 -245 -40 -260 -31 -6 3 -10 1 -10 -4 0 -19 181 -13 249 8 96 30 188 91 165 109 -5 4 -25 -9 -45 -29z"
       id="path560"
       style="fill:#ff3300" />
    <path
       d="M2825 2403 c-120 -99 -210 -134 -379 -148 -57 -5 -83 -11 -74 -16 18 -10 168 6 252 27 89 23 144 56 221 134 39 38 68 70 65 69 -3 0 -41 -30 -85 -66z"
       id="path562"
       style="fill:#cc0033" />
    <path
       d="M3653 2463 c9 -2 23 -2 30 0 6 3 -1 5 -18 5 -16 0 -22 -2 -12 -5z"
       id="path564"
       style="fill:none" />
    <path
       d="M920 2449 c0 -3 33 -9 73 -12 39 -3 135 -18 212 -33 151 -29 372 -38 409 -17 14 8 -5 9 -75 6 -74 -4 -129 1 -254 22 -155 27 -365 46 -365 34z"
       id="path566"
       style="fill:#ff3300" />
    <path
       d="M3525 2449 c-27 -5 -98 -12 -158 -17 -110 -9 -133 -16 -107 -33 18 -11 47 -7 235 31 127 25 150 40 30 19z"
       id="path568"
       style="fill:#cc3366" />
    <path
       d="M3055 2414 c-29 -54 -90 -103 -179 -145 -137 -64 -189 -74 -378 -74 -114 0 -160 -3 -145 -10 39 -17 324 -11 393 8 136 38 265 111 314 178 28 40 40 79 22 79 -4 0 -16 -16 -27 -36z"
       id="path570"
       style="fill:#cc0033" />
    <path
       d="M2790 2414 c-19 -14 -64 -40 -100 -58 -60 -31 -96 -42 -205 -65 l-40 -9 35 -1 c92 -2 239 56 317 125 45 39 42 43 -7 8z"
       id="path572"
       style="fill:#ff0000" />
    <path
       d="M2844 2370 c-94 -85 -129 -104 -232 -129 -42 -11 -66 -19 -52 -20 41 -1 147 27 198 53 101 51 196 136 174 158 -6 6 -36 -15 -88 -62z"
       id="path574"
       style="fill:#ff0000" />
    <path
       d="M1820 2393 c-19 -14 -62 -38 -95 -54 -39 -18 -52 -28 -38 -29 36 0 128 38 152 64 34 36 21 48 -19 19z"
       id="path576"
       style="fill:#990000" />
    <path
       d="M1063 2393 c9 -2 23 -2 30 0 6 3 -1 5 -18 5 -16 0 -22 -2 -12 -5z"
       id="path578"
       style="fill:none" />
    <path
       d="M3075 2356 c-44 -58 -117 -110 -206 -145 -118 -47 -191 -61 -324 -61 -93 -1 -114 -4 -95 -12 38 -15 223 -3 315 21 44 12 109 35 144 51 80 38 189 124 197 156 10 38 2 35 -31 -10z"
       id="path580"
       style="fill:#cc0033" />
    <path
       d="M2005 2380 c3 -5 8 -10 11 -10 2 0 4 5 4 10 0 6 -5 10 -11 10 -5 0 -7 -4 -4 -10z"
       id="path582"
       style="fill:none" />
    <path
       d="M1238 2363 c7 -3 16 -2 19 1 4 3 -2 6 -13 5 -11 0 -14 -3 -6 -6z"
       id="path584"
       style="fill:none" />
    <path
       d="M1288 2353 c7 -3 16 -2 19 1 4 3 -2 6 -13 5 -11 0 -14 -3 -6 -6z"
       id="path586"
       style="fill:none" />
    <path
       d="M1820 2329 c-52 -33 -126 -48 -240 -50 -51 0 -69 -3 -55 -9 32 -14 126 -11 190 5 69 18 165 62 165 76 0 14 -11 10 -60 -22z"
       id="path588"
       style="fill:#990000" />
    <path
       d="M1348 2343 c6 -2 18 -2 25 0 6 3 1 5 -13 5 -14 0 -19 -2 -12 -5z"
       id="path590"
       style="fill:none" />
    <path
       d="M3106 2322 l-19 -27 26 24 c28 26 32 31 20 31 -5 0 -17 -13 -27 -28z"
       id="path592"
       style="fill:none" />
    <path
       d="M1849 2294 c-12 -14 -11 -16 5 -13 11 2 21 10 24 17 5 17 -13 15 -29 -4z"
       id="path594"
       style="fill:none" />
    <path
       d="M3075 2254 c-34 -32 -94 -72 -140 -94 -44 -22 -74 -39 -67 -40 31 -1 162 71 217 120 33 29 62 57 63 61 8 21 -17 4 -73 -47z"
       id="path596"
       style="fill:#cc0033" />
    <path
       d="M1750 2259 c-30 -11 -85 -20 -123 -22 -50 -1 -62 -4 -47 -11 28 -13 144 6 200 32 56 25 42 26 -30 1z"
       id="path598"
       style="fill:#990000" />
    <path
       d="M2213 2273 c9 -2 25 -2 35 0 9 3 1 5 -18 5 -19 0 -27 -2 -17 -5z"
       id="path600"
       style="fill:none" />
    <path
       d="M2383 2273 c9 -2 23 -2 30 0 6 3 -1 5 -18 5 -16 0 -22 -2 -12 -5z"
       id="path602"
       style="fill:none" />
    <path
       d="M3124 2247 c-6 -7 -30 -30 -55 -51 l-44 -38 40 23 c45 25 85 58 85 71 0 12 -13 9 -26 -5z"
       id="path604"
       style="fill:#ff0000" />
    <path
       d="M1760 2225 c-23 -9 -28 -14 -15 -14 11 0 34 6 50 14 39 17 11 18 -35 0z"
       id="path606"
       style="fill:none" />
    <path
       d="M3110 2192 c0 -4 -30 -27 -66 -51 -68 -45 -81 -65 -22 -35 68 35 130 94 98 94 -5 0 -10 -4 -10 -8z"
       id="path608"
       style="fill:#cc0033" />
    <path
       d="M2869 2165 c-3 -2 -45 -16 -95 -29 -49 -13 -82 -25 -74 -25 20 -1 159 37 179 49 9 5 11 10 5 10 -6 0 -13 -2 -15 -5z"
       id="path610"
       style="fill:#cc0033" />
  </g>
</svg>
