<?xml version="1.0" encoding="UTF-8" standalone="no"?>
<svg
   xmlns:dc="http://purl.org/dc/elements/1.1/"
   xmlns:cc="http://creativecommons.org/ns#"
   xmlns:rdf="http://www.w3.org/1999/02/22-rdf-syntax-ns#"
   xmlns:svg="http://www.w3.org/2000/svg"
   xmlns="http://www.w3.org/2000/svg"
   xmlns:sodipodi="http://sodipodi.sourceforge.net/DTD/sodipodi-0.dtd"
   xmlns:inkscape="http://www.inkscape.org/namespaces/inkscape"
   version="1.0"
   width="850.000000pt"
   height="850.000000pt"
   viewBox="0 0 850.000000 850.000000"
   preserveAspectRatio="xMidYMid meet"
   id="svg2"
   inkscape:version="0.91 r13725"
   sodipodi:docname="Ocean_2018916_25.svg">
  <defs
     id="defs158" />
  <sodipodi:namedview
     pagecolor="#ffffff"
     bordercolor="#666666"
     borderopacity="1"
     objecttolerance="10"
     gridtolerance="10"
     guidetolerance="10"
     inkscape:pageopacity="0"
     inkscape:pageshadow="2"
     inkscape:window-width="1920"
     inkscape:window-height="979"
     id="namedview156"
     showgrid="false"
     inkscape:zoom="0.44852967"
     inkscape:cx="556.82706"
     inkscape:cy="527.04635"
     inkscape:window-x="0"
     inkscape:window-y="1"
     inkscape:window-maximized="1"
     inkscape:current-layer="svg2" />
  <metadata
     id="metadata4">
Created by potrace 1.14, written by Peter Selinger 2001-2017
<rdf:RDF>
  <cc:Work
     rdf:about="">
    <dc:format>image/svg+xml</dc:format>
    <dc:type
       rdf:resource="http://purl.org/dc/dcmitype/StillImage" />
  </cc:Work>
</rdf:RDF>
</metadata>
  <g
     transform="translate(0.000000,850.000000) scale(0.100000,-0.100000)"
     fill="#000000"
     stroke="none"
     id="g6">
    <path
       d="M0 4250 l0 -4250 4250 0 4250 0 0 4250 0 4250 -4250 0 -4250 0 0 -4250z m7206 2749 c31 -19 34 -25 34 -66 0 -56 -43 -137 -132 -250 -69 -87 -135 -152 -523 -515 -148 -139 -306 -290 -350 -337 -44 -47 -159 -165 -255 -261 -276 -276 -396 -450 -474 -690 -53 -162 -63 -238 -71 -539 -3 -123 -10 -258 -15 -300 -5 -42 -14 -128 -20 -191 -26 -289 -119 -664 -203 -825 -37 -70 -180 -223 -277 -296 -81 -61 -235 -137 -360 -177 -52 -17 -185 -52 -295 -77 -110 -26 -219 -54 -243 -62 -29 -10 -77 -47 -150 -117 -88 -83 -126 -110 -203 -149 -137 -69 -220 -87 -399 -87 -186 0 -223 -10 -320 -90 -185 -150 -473 -228 -705 -190 -52 8 -62 7 -80 -9 -47 -44 -86 -55 -180 -54 l-90 2 -230 -113 c-126 -63 -247 -119 -268 -126 -80 -25 -139 11 -139 84 0 79 27 143 119 285 48 74 55 91 58 145 4 63 44 216 71 267 8 17 24 39 35 50 19 19 19 26 10 85 -14 89 0 158 49 253 47 91 115 165 183 201 26 14 49 31 52 38 3 8 -2 42 -11 75 -30 116 -2 216 95 336 28 35 51 68 51 73 0 6 -16 32 -36 59 -58 79 -76 139 -82 266 -6 159 12 233 88 354 58 93 127 167 298 317 84 74 97 96 162 281 105 298 134 371 195 496 134 275 249 409 595 697 180 149 290 212 489 278 151 50 252 64 410 57 162 -8 247 -28 557 -132 249 -83 256 -85 351 -85 222 -1 592 115 1003 313 147 71 410 251 598 410 250 211 319 264 393 301 87 44 161 49 215 15z"
       id="path8"
       style="fill:#000066" />
    <path
       d="M6993 6825 c-78 -35 -127 -72 -253 -191 -63 -59 -157 -141 -209 -182 -52 -42 -90 -77 -84 -79 14 -5 115 37 227 95 163 84 347 238 385 323 30 66 18 72 -66 34z"
       id="path10"
       style="fill:#cc33ff" />
    <path
       d="M6805 6523 c-44 -33 -138 -82 -289 -150 -119 -53 -171 -83 -207 -116 -27 -25 -49 -48 -49 -51 0 -8 198 81 298 135 112 59 174 101 231 152 43 39 53 58 16 30z"
       id="path12"
       style="fill:#cc33ff" />
    <path
       d="M6363 6197 c-112 -56 -203 -105 -203 -108 0 -6 181 46 252 72 31 12 165 126 156 134 -2 2 -94 -43 -205 -98z"
       id="path14"
       style="fill:#cc33ff" />
    <path
       d="M5770 6104 c-238 -116 -335 -155 -465 -188 -262 -66 -385 -54 -664 64 -143 60 -227 90 -250 89 -9 0 12 -13 46 -29 72 -33 250 -137 258 -150 3 -5 40 -20 83 -34 70 -22 91 -23 242 -21 l165 2 195 66 c260 87 357 129 447 194 41 29 93 63 114 74 36 18 49 30 32 29 -5 -1 -96 -44 -203 -96z"
       id="path16"
       style="fill:#3333cc" />
    <path
       d="M4035 6093 c-11 -2 -44 -9 -72 -14 -29 -6 -53 -14 -53 -18 0 -3 45 -12 100 -19 78 -9 414 -71 523 -96 39 -9 13 13 -58 47 -126 63 -364 117 -440 100z"
       id="path18"
       style="fill:#3333cc" />
    <path
       d="M3725 6004 c-67 -25 -175 -77 -175 -84 0 -9 180 -26 224 -22 17 1 64 18 107 37 42 19 88 35 102 35 29 0 77 19 77 30 0 24 -273 27 -335 4z"
       id="path20"
       style="fill:#3333cc" />
    <path
       d="M6103 5986 c-111 -46 -286 -146 -255 -146 35 0 352 158 352 175 0 9 -15 4 -97 -29z"
       id="path22"
       style="fill:#cc33ff" />
    <path
       d="M5795 5984 c-27 -13 -88 -36 -135 -50 -202 -60 -305 -101 -460 -181 -253 -132 -512 -316 -674 -480 -130 -133 -264 -319 -243 -339 3 -4 31 3 61 16 43 17 68 38 117 93 107 124 250 244 417 351 102 65 82 42 -29 -34 -152 -104 -404 -328 -388 -345 10 -9 80 21 264 113 298 149 400 215 520 337 67 68 266 225 350 275 128 77 285 235 259 260 -5 4 -31 -3 -59 -16z"
       id="path24"
       style="fill:#9966cc" />
    <path
       d="M4083 5944 c-35 -7 -75 -20 -90 -27 -31 -16 -146 -62 -180 -72 -65 -19 -137 -289 -137 -515 0 -163 13 -223 83 -365 46 -93 112 -177 127 -162 4 3 -5 35 -19 70 -40 100 -57 175 -64 282 -6 105 4 275 16 275 4 0 3 -35 -2 -77 -10 -93 -2 -243 18 -331 22 -92 74 -212 92 -212 12 0 14 7 9 28 -13 53 -27 328 -21 411 17 231 129 472 295 636 33 33 60 63 60 67 0 12 -118 7 -187 -8z"
       id="path26"
       style="fill:#9966ff" />
    <path
       d="M4232 5883 c-119 -117 -198 -239 -255 -399 -39 -110 -50 -213 -44 -413 6 -184 14 -236 38 -236 10 0 15 17 16 70 7 180 40 310 118 464 46 92 37 50 -15 -67 -60 -133 -76 -201 -86 -344 -5 -89 -4 -108 7 -108 9 0 21 31 36 91 74 305 372 704 619 830 36 18 67 36 70 41 3 4 -8 13 -23 20 -15 7 -44 22 -63 35 -19 12 -66 27 -105 33 -38 6 -107 20 -153 30 -46 11 -85 20 -87 20 -2 0 -35 -30 -73 -67z"
       id="path28"
       style="fill:#9966cc" />
    <path
       d="M6123 5881 c-40 -21 -150 -66 -245 -101 -95 -34 -195 -73 -223 -86 -54 -26 -123 -79 -114 -88 9 -10 302 94 407 144 103 49 228 126 252 155 19 23 2 18 -77 -24z"
       id="path30"
       style="fill:#cc33ff" />
    <path
       d="M3540 5883 c-39 -6 -124 -34 -134 -44 -6 -5 11 -9 40 -9 27 0 80 -7 119 -15 91 -19 101 -19 125 5 28 28 25 36 -20 54 -39 15 -77 18 -130 9z"
       id="path32"
       style="fill:#3333cc" />
    <path
       d="M5206 5793 c-4 -5 -119 -10 -254 -13 -225 -5 -251 -8 -287 -27 -243 -127 -520 -500 -604 -813 -21 -80 -20 -90 9 -90 46 0 68 21 90 89 12 36 35 94 51 128 32 68 145 218 205 273 l38 35 -32 -40 c-124 -153 -163 -207 -187 -255 -32 -63 -76 -186 -69 -193 3 -3 22 2 43 10 32 12 43 25 67 76 16 34 48 87 72 119 57 79 203 233 282 300 123 104 356 263 478 327 67 36 122 68 122 73 0 10 -14 10 -24 1z"
       id="path34"
       style="fill:#9966cc" />
    <path
       d="M3350 5771 c-76 -25 -161 -77 -253 -156 -80 -68 -93 -89 -39 -61 51 26 170 49 222 42 62 -8 85 2 151 64 30 28 64 58 77 67 29 20 28 37 -3 51 -36 17 -91 14 -155 -7z"
       id="path36"
       style="fill:#3333cc" />
    <path
       d="M3670 5755 c-41 -18 -64 -36 -92 -73 -21 -28 -57 -67 -82 -87 -60 -49 -70 -83 -63 -214 12 -199 66 -352 170 -481 68 -83 157 -146 157 -110 0 5 -28 47 -62 92 -76 103 -138 231 -137 284 1 37 2 35 15 -20 18 -76 59 -152 142 -262 44 -58 75 -90 90 -92 29 -4 28 11 -2 51 -29 38 -96 180 -119 252 -28 87 -38 211 -26 326 11 110 38 246 63 317 17 48 19 47 -54 17z"
       id="path38"
       style="fill:#9966ff" />
    <path
       d="M5978 5695 c-62 -42 -205 -112 -331 -162 -73 -29 -113 -49 -100 -51 31 -5 133 32 270 98 134 64 178 91 193 121 14 24 12 24 -32 -6z"
       id="path40"
       style="fill:#cc33ff" />
    <path
       d="M5840 5659 c-36 -16 -130 -50 -210 -75 -162 -52 -258 -92 -307 -130 -57 -43 -37 -45 60 -5 50 22 148 60 217 86 157 60 362 161 313 154 -5 -1 -37 -14 -73 -30z"
       id="path42"
       style="fill:#cc33ff" />
    <path
       d="M5801 5539 c-117 -55 -204 -85 -359 -124 -135 -34 -237 -80 -277 -125 -19 -21 -19 -21 5 -16 14 3 84 20 155 36 190 44 246 65 384 139 110 59 212 130 186 130 -5 0 -48 -18 -94 -40z"
       id="path44"
       style="fill:#cc33ff" />
    <path
       d="M3160 5555 c-36 -7 -82 -20 -103 -28 -49 -21 -152 -95 -204 -147 -50 -51 -148 -186 -158 -218 -6 -20 3 -16 67 27 106 72 288 140 375 141 57 0 130 83 158 177 4 15 0 28 -14 42 -24 24 -31 24 -121 6z"
       id="path46"
       style="fill:#3333cc" />
    <path
       d="M3400 5490 c0 -5 5 -10 11 -10 5 0 7 5 4 10 -3 6 -8 10 -11 10 -2 0 -4 -4 -4 -10z"
       id="path48" />
    <path
       d="M5670 5404 c-103 -52 -255 -100 -440 -139 -78 -16 -200 -67 -200 -83 0 -22 159 -30 238 -12 90 21 349 124 403 161 55 37 119 101 119 119 0 15 -6 12 -120 -46z"
       id="path50"
       style="fill:#cc33ff" />
    <path
       d="M3386 5402 c-11 -24 -33 -54 -50 -67 -29 -23 -31 -29 -31 -88 0 -52 -5 -71 -27 -105 -33 -50 -34 -61 -8 -104 12 -20 20 -51 20 -78 0 -28 9 -64 25 -94 14 -27 25 -59 25 -71 0 -47 22 -59 106 -59 44 0 101 4 127 8 41 6 47 10 36 22 -7 9 -29 24 -48 34 -48 24 -134 115 -160 167 -32 65 -25 75 10 13 42 -78 113 -145 193 -185 38 -19 75 -35 82 -35 27 0 22 19 -12 41 -49 34 -128 138 -175 233 -39 80 -66 188 -86 346 l-8 65 -19 -43z"
       id="path52"
       style="fill:#9966ff" />
    <path
       d="M5605 5268 c-80 -42 -288 -114 -350 -122 -27 -4 -108 -11 -180 -15 -111 -8 -138 -13 -185 -36 -30 -15 -88 -43 -129 -61 -41 -19 -72 -36 -69 -39 2 -2 31 0 64 5 32 6 122 10 199 10 128 0 196 8 385 45 19 4 76 26 125 50 89 41 171 111 204 173 15 28 8 27 -64 -10z"
       id="path54"
       style="fill:#cc33ff" />
    <path
       d="M3100 5283 c-194 -33 -380 -138 -458 -260 -35 -56 -76 -153 -63 -153 4 0 38 22 75 50 79 58 141 83 291 117 61 13 129 31 152 39 53 19 110 81 119 130 6 33 4 40 -20 61 -26 22 -43 25 -96 16z"
       id="path56"
       style="fill:#3333cc" />
    <path
       d="M5515 5092 c-43 -26 -212 -90 -265 -101 -84 -17 -195 -21 -300 -12 -156 14 -295 -5 -437 -61 -29 -11 -53 -23 -53 -27 0 -10 368 -3 510 9 67 6 163 23 230 41 139 38 368 145 349 164 -3 2 -18 -4 -34 -13z"
       id="path58"
       style="fill:#cc33ff" />
    <path
       d="M5410 4994 c-173 -90 -289 -112 -640 -124 -282 -9 -384 -24 -576 -84 -60 -19 -128 -40 -151 -46 -24 -6 -43 -15 -43 -20 0 -17 64 -22 213 -16 337 14 364 17 672 81 281 59 375 89 508 162 65 36 122 74 128 84 5 11 6 19 2 19 -4 -1 -55 -26 -113 -56z"
       id="path60"
       style="fill:#cc33ff" />
    <path
       d="M2926 4985 c-167 -35 -259 -81 -325 -165 -34 -43 -41 -59 -41 -96 0 -52 23 -114 42 -114 7 0 42 25 78 56 36 31 79 62 95 70 94 43 227 86 297 96 97 14 120 30 122 84 1 36 -2 40 -37 58 -50 24 -145 29 -231 11z"
       id="path62"
       style="fill:#3333cc" />
    <path
       d="M5410 4919 c-61 -43 -90 -54 -237 -94 -134 -36 -304 -70 -563 -110 -136 -22 -189 -25 -430 -25 -279 0 -363 -7 -458 -35 -58 -18 -60 -29 -6 -39 241 -46 727 -289 1039 -521 134 -99 204 -163 402 -365 83 -85 155 -152 159 -147 13 13 63 438 64 543 0 160 29 552 46 638 9 43 22 97 30 119 16 44 18 67 7 67 -5 0 -28 -14 -53 -31z"
       id="path64"
       style="fill:#660099" />
    <path
       d="M2963 4770 c-166 -44 -355 -172 -315 -212 11 -11 96 7 197 42 30 10 108 31 171 45 64 14 125 31 136 38 16 10 64 85 56 88 -71 20 -169 20 -245 -1z"
       id="path66"
       style="fill:#3333cc" />
    <path
       d="M3325 4603 c-45 -11 -33 -21 32 -27 96 -10 278 -43 354 -65 379 -109 576 -192 789 -334 353 -235 587 -451 749 -689 36 -54 48 -59 57 -23 20 82 -363 473 -656 668 -41 28 -98 68 -127 89 -110 80 -291 168 -577 280 -170 66 -525 124 -621 101z"
       id="path68"
       style="fill:#0033ff" />
    <path
       d="M2980 4519 c-187 -22 -385 -71 -483 -120 l-60 -31 31 -18 c41 -25 49 -60 28 -126 -15 -48 -15 -56 -2 -83 22 -42 55 -50 79 -20 17 21 19 34 14 109 -6 72 -3 91 14 126 30 64 99 82 143 38 22 -21 20 -83 -4 -139 -25 -58 -26 -107 -2 -128 26 -23 45 -21 72 8 19 20 24 40 31 121 10 122 23 160 59 179 41 21 58 19 91 -14 25 -25 29 -37 29 -83 -1 -29 -9 -78 -20 -108 -27 -78 -26 -125 5 -155 36 -37 76 -33 114 10 31 35 41 64 60 170 18 98 59 132 144 118 80 -12 87 -101 18 -218 -48 -81 -51 -112 -15 -154 20 -24 34 -31 63 -31 80 0 124 70 122 193 -2 77 -1 79 33 113 32 32 53 39 101 34 39 -4 95 -74 95 -120 0 -30 -34 -91 -80 -145 -79 -91 -62 -154 42 -155 29 0 45 7 73 35 19 20 35 41 35 48 0 21 78 179 97 199 45 45 148 26 178 -33 35 -66 3 -138 -93 -206 -76 -54 -92 -81 -68 -118 19 -28 33 -31 79 -11 24 10 46 35 85 99 29 47 67 97 83 112 43 35 92 34 130 -4 35 -35 36 -62 7 -121 -18 -34 -39 -53 -93 -86 -80 -48 -96 -71 -71 -109 42 -65 100 -58 147 17 50 83 119 169 144 180 33 15 68 3 104 -33 24 -24 31 -39 31 -70 0 -65 -39 -117 -142 -194 -31 -22 -38 -34 -38 -60 0 -47 27 -75 78 -82 40 -5 45 -3 80 34 21 22 48 61 60 87 12 25 38 64 58 86 30 33 43 40 73 40 59 0 101 -56 101 -134 0 -38 -6 -52 -44 -96 -24 -28 -62 -67 -85 -86 -50 -44 -56 -90 -16 -129 49 -49 100 -26 222 102 79 83 82 86 118 80 48 -8 81 -30 100 -68 35 -66 -18 -157 -123 -212 -108 -57 -136 -111 -89 -171 43 -54 106 -34 158 50 11 18 34 39 53 48 18 8 38 22 45 29 19 24 51 129 58 189 5 53 3 61 -37 135 -98 183 -242 340 -474 518 -209 160 -250 186 -496 312 -173 89 -343 153 -500 189 -206 48 -598 80 -750 63z m-182 -327 c4 -25 -23 -41 -40 -24 -7 7 -6 17 2 32 14 26 34 22 38 -8z m-230 -17 c4 -20 -15 -36 -35 -28 -16 6 -17 25 -1 41 16 16 32 10 36 -13z m525 -27 c23 -35 -25 -67 -51 -35 -9 10 -7 19 4 36 17 24 32 24 47 -1z m331 -81 c22 -34 -28 -73 -59 -47 -20 17 -19 26 6 51 22 22 37 21 53 -4z m314 -69 c16 -16 15 -33 -4 -52 -19 -20 -54 -5 -54 22 0 20 18 42 35 42 6 0 16 -5 23 -12z m270 -141 c3 -12 -3 -17 -21 -17 -31 0 -40 10 -25 27 15 18 42 12 46 -10z m239 -113 c3 -8 -2 -23 -11 -32 -15 -15 -17 -15 -33 0 -13 14 -14 20 -3 32 16 20 39 20 47 0z m253 -200 c0 -18 -24 -44 -39 -44 -26 0 -33 23 -15 49 12 17 19 19 35 11 10 -6 19 -13 19 -16z m275 -229 c0 -31 -49 -28 -53 3 -3 20 0 23 25 20 20 -2 28 -8 28 -23z m223 -273 c4 -28 -24 -40 -45 -19 -14 13 -14 19 -3 32 18 22 44 15 48 -13z"
       id="path70"
       style="fill:#ff00ff" />
    <path
       d="M2925 4412 c-48 -10 -55 -29 -55 -139 0 -148 -23 -193 -100 -193 -37 0 -80 39 -80 72 0 13 9 49 20 80 32 91 35 130 12 151 -25 23 -65 14 -93 -22 -18 -22 -20 -34 -15 -86 15 -134 2 -175 -57 -189 -48 -12 -88 14 -101 68 -8 32 -6 45 13 81 35 66 10 110 -47 82 -42 -19 -54 -55 -41 -115 11 -44 10 -54 -7 -82 -27 -46 -47 -57 -78 -42 -41 18 -53 55 -34 105 25 71 2 88 -58 42 -42 -32 -49 -56 -29 -95 31 -60 -7 -126 -57 -99 -18 10 -24 8 -35 -7 -13 -18 -17 -46 -8 -56 3 -3 35 3 72 13 133 37 331 62 483 62 122 -1 174 -7 330 -36 102 -20 205 -39 229 -42 71 -12 549 -163 636 -202 369 -166 877 -606 1014 -879 17 -34 38 -65 47 -68 26 -10 77 19 137 80 57 59 127 150 127 166 0 21 -23 3 -60 -46 -44 -58 -89 -86 -139 -86 -35 0 -59 28 -68 83 -9 57 18 98 99 148 127 78 145 107 117 188 -13 37 -35 51 -80 51 -25 0 -39 -9 -68 -42 -67 -79 -142 -146 -169 -151 -15 -3 -41 1 -57 8 -36 15 -85 69 -85 94 0 26 49 95 97 135 45 39 83 107 83 148 0 32 -50 88 -79 88 -27 0 -67 -39 -86 -83 -20 -48 -80 -127 -112 -148 -61 -41 -145 -16 -173 50 -20 48 -5 76 70 137 67 54 101 95 114 140 11 35 -37 84 -81 84 -50 0 -67 -13 -103 -77 -87 -156 -152 -187 -239 -114 -32 27 -33 29 -22 63 8 26 27 47 64 72 29 20 56 36 62 36 5 0 22 12 37 27 54 52 28 143 -41 143 -44 0 -86 -42 -128 -128 -46 -95 -64 -111 -125 -112 -39 0 -50 5 -67 26 -46 59 -13 132 81 180 50 25 88 72 88 110 0 40 -80 91 -124 78 -33 -10 -62 -41 -80 -87 -60 -148 -118 -217 -180 -217 -51 0 -83 16 -101 49 -23 46 -19 61 40 135 30 38 60 86 65 107 16 58 -4 119 -38 119 -13 0 -13 -2 1 -18 32 -35 9 -80 -32 -67 -31 10 -38 45 -12 66 26 21 12 33 -22 20 -35 -13 -57 -49 -57 -91 0 -31 -5 -59 -25 -147 -3 -12 -17 -35 -31 -52 -23 -27 -32 -31 -78 -31 -58 0 -88 16 -111 60 -24 46 -18 80 30 179 25 51 45 98 45 106 0 23 -51 55 -86 55 -38 0 -71 -27 -78 -62 -36 -186 -49 -218 -101 -242 -48 -23 -97 -15 -125 22 -25 31 -24 74 4 206 16 79 11 111 -13 82 -16 -19 -41 -10 -41 15 0 17 11 24 33 20 4 0 7 3 7 8 0 12 -21 18 -45 13z m-215 -57 c10 -12 10 -18 0 -30 -24 -29 -58 -7 -44 30 4 8 12 15 19 15 7 0 18 -7 25 -15z m611 -41 c9 -11 10 -20 2 -32 -13 -22 -43 -22 -56 -1 -24 38 25 68 54 33z m-863 -31 c-2 -10 -10 -18 -18 -18 -8 0 -16 8 -18 18 -2 12 3 17 18 17 15 0 20 -5 18 -17z m-226 -95 c-15 -15 -26 -4 -18 18 5 13 9 15 18 6 9 -9 9 -15 0 -24z m1783 -88 c0 -18 -6 -26 -23 -28 -13 -2 -25 3 -28 12 -10 26 4 48 28 44 17 -2 23 -10 23 -28z m235 -144 c0 -29 -28 -42 -48 -22 -13 12 -13 18 -2 30 20 25 50 20 50 -8z m250 -141 c17 -20 5 -45 -20 -45 -11 0 -23 7 -26 15 -6 15 11 45 26 45 4 0 13 -7 20 -15z m284 -218 c-8 -22 -43 -22 -51 -1 -9 25 26 49 44 31 8 -7 11 -21 7 -30z m276 -273 c0 -19 -5 -24 -25 -24 -32 0 -45 28 -21 46 24 17 46 7 46 -22z"
       id="path72"
       style="fill:#6699ff" />
    <path
       d="M2325 4304 c-22 -13 -44 -25 -49 -27 -5 -2 -3 -13 5 -25 12 -18 11 -28 -3 -65 -17 -47 -12 -69 23 -88 16 -8 25 -7 40 7 26 23 24 36 -5 28 -14 -3 -27 -1 -31 6 -10 17 15 30 42 23 27 -6 30 14 12 66 -8 24 -8 39 1 62 7 16 11 31 9 34 -2 2 -22 -7 -44 -21z"
       id="path74"
       style="fill:#ff33ff" />
    <path
       d="M2113 4115 c-16 -34 -16 -36 4 -57 41 -41 70 5 41 67 -15 34 -25 32 -45 -10z"
       id="path76"
       style="fill:#ff33ff" />
    <path
       d="M2460 3999 c-204 -22 -366 -65 -425 -113 -29 -23 -29 -24 -12 -50 11 -16 19 -54 22 -97 7 -100 35 -136 85 -109 37 20 43 46 20 96 -24 55 -26 108 -6 156 17 39 31 53 65 61 59 15 96 -45 88 -142 -8 -103 32 -158 92 -127 36 19 44 48 30 112 -15 65 -7 94 32 133 42 42 98 44 129 4 22 -29 23 -62 4 -173 -4 -27 -1 -42 16 -63 48 -61 113 -12 125 93 9 79 35 112 89 112 86 0 122 -82 77 -171 -39 -75 -22 -111 53 -111 50 0 72 32 80 119 6 61 11 73 37 95 40 34 88 42 127 22 55 -28 65 -74 36 -171 -13 -48 -14 -57 0 -83 15 -29 34 -42 62 -42 24 0 54 38 54 68 0 42 45 125 79 145 38 22 89 22 145 -3 45 -19 46 -20 46 -67 0 -62 -27 -105 -85 -141 -50 -29 -64 -59 -49 -101 12 -34 80 -60 121 -45 34 11 69 70 83 140 14 65 44 95 104 101 42 5 48 3 80 -29 19 -19 38 -48 42 -63 10 -42 -21 -93 -80 -132 -57 -37 -66 -48 -66 -85 0 -37 25 -58 68 -58 54 0 80 24 117 105 39 84 63 105 123 105 35 0 49 -6 74 -30 25 -26 30 -37 25 -64 -9 -55 -40 -109 -77 -133 -92 -61 -111 -104 -69 -157 16 -20 29 -26 60 -26 49 0 68 18 113 107 45 91 66 108 128 108 43 0 53 -4 79 -33 24 -26 29 -41 29 -82 0 -61 -26 -94 -115 -143 -70 -38 -89 -72 -64 -115 17 -32 46 -38 95 -22 26 9 48 30 85 80 54 75 62 80 121 80 83 0 129 -99 78 -170 -21 -30 -84 -60 -126 -60 -78 0 -139 -70 -113 -131 6 -16 22 -32 34 -35 26 -7 91 23 120 56 50 55 129 67 170 25 14 -13 25 -31 25 -40 0 -30 44 -6 65 35 22 43 19 65 -20 139 -89 169 -371 459 -620 638 -123 89 -245 151 -451 232 -258 102 -395 145 -574 181 -80 17 -176 36 -215 44 -61 13 -333 38 -375 35 -8 -1 -49 -5 -90 -10z m-66 -251 c14 -22 -12 -52 -37 -42 -17 6 -23 44 -10 58 11 11 35 3 47 -16z m288 -3 c15 -34 -1 -52 -31 -36 -24 13 -27 31 -9 49 18 18 27 15 40 -13z m-554 -49 c2 -10 0 -22 -5 -27 -16 -16 -43 2 -43 28 0 20 4 24 22 21 13 -2 24 -11 26 -22z m840 0 c5 -24 -10 -38 -31 -30 -17 6 -23 35 -10 48 12 12 38 1 41 -18z m352 -47 c15 -27 6 -49 -19 -49 -27 0 -47 36 -30 56 16 20 36 17 49 -7z m260 -154 c18 -21 5 -45 -25 -45 -20 0 -25 5 -25 23 0 39 26 50 50 22z m291 -136 c8 -17 8 -24 -3 -36 -26 -25 -65 7 -52 42 9 22 42 18 55 -6z m255 -174 c7 -18 -13 -45 -33 -45 -17 0 -27 24 -19 45 7 20 45 19 52 0z m222 -213 c3 -16 -2 -22 -17 -22 -24 0 -35 15 -27 36 9 23 40 13 44 -14z m140 -229 c3 -22 -28 -40 -48 -28 -12 7 -13 38 -3 49 15 14 48 1 51 -21z"
       id="path78"
       style="fill:#3366ff" />
    <path
       d="M2482 3913 c-27 -24 -41 -77 -34 -141 6 -70 -3 -99 -38 -117 -41 -21 -73 -19 -97 8 -38 41 -45 65 -38 133 6 51 4 69 -9 89 -22 33 -59 33 -85 -1 -25 -32 -26 -66 -6 -124 28 -79 17 -128 -35 -155 -42 -22 -58 -19 -92 16 -29 28 -30 33 -25 87 4 39 2 65 -8 82 -12 22 -14 23 -20 7 -4 -9 -6 -50 -4 -90 5 -98 49 -190 111 -230 43 -28 44 -29 163 -23 477 24 605 16 840 -54 257 -77 426 -175 623 -365 133 -128 217 -232 258 -321 67 -148 175 -187 411 -149 107 17 253 68 291 100 23 20 25 25 14 49 -18 39 -56 34 -141 -20 -47 -30 -87 -48 -115 -51 -38 -5 -45 -2 -69 27 -66 78 -8 156 143 191 73 16 115 56 106 102 -3 18 -16 40 -27 50 -47 38 -111 11 -166 -72 -72 -109 -184 -116 -213 -13 -15 57 6 93 83 136 102 56 126 100 92 165 -17 33 -33 41 -84 41 -46 0 -61 -15 -96 -95 -32 -72 -66 -111 -112 -126 -68 -22 -123 31 -123 118 0 49 27 92 84 133 74 54 81 130 13 154 -39 14 -75 -15 -114 -94 -42 -86 -71 -110 -131 -110 -55 0 -84 17 -102 59 -19 47 -5 78 70 150 78 75 87 102 45 141 -30 28 -77 30 -105 5 -11 -10 -30 -50 -41 -89 -11 -39 -29 -81 -38 -93 -27 -33 -83 -63 -117 -63 -37 0 -93 35 -114 72 -23 42 2 104 57 141 87 58 104 120 42 152 -52 27 -125 -11 -144 -75 -27 -94 -57 -130 -107 -130 -79 0 -105 62 -77 190 10 48 9 53 -12 76 -31 33 -53 38 -89 19 -34 -17 -50 -49 -50 -97 0 -50 -22 -108 -48 -129 -16 -12 -40 -19 -68 -19 -36 0 -46 5 -66 30 l-24 31 -25 -38 c-38 -59 -89 -55 -92 7 -3 45 37 70 83 53 28 -11 30 -10 30 12 0 13 7 50 15 82 14 54 14 60 -3 83 -11 14 -30 26 -45 28 -36 4 -57 -30 -57 -96 0 -46 -4 -58 -29 -83 -24 -23 -38 -29 -74 -29 -31 0 -49 6 -61 19 -25 27 -31 93 -16 157 12 51 12 57 -7 82 -25 33 -53 39 -81 15z m52 -259 c9 -8 16 -31 16 -50 0 -33 -1 -34 -40 -34 -57 0 -72 37 -32 83 19 21 36 22 56 1z m-243 -40 c30 -37 -39 -94 -77 -64 -17 15 -18 52 -2 68 17 17 63 15 79 -4z m867 -67 c4 -36 -13 -57 -47 -57 -51 0 -69 46 -28 75 35 25 71 16 75 -18z m230 -74 c22 -42 -37 -93 -73 -63 -18 15 -20 51 -3 68 18 18 66 15 76 -5z m290 -145 c19 -19 14 -46 -13 -64 -21 -14 -31 -15 -50 -6 -30 14 -32 35 -5 62 23 23 50 26 68 8z m242 -146 c47 -38 -5 -102 -59 -72 -26 14 -29 65 -3 79 25 15 37 13 62 -7z m234 -195 c25 -19 17 -58 -16 -77 -35 -19 -62 -5 -66 34 -6 49 40 74 82 43z m145 -191 c37 -44 -19 -106 -59 -66 -24 24 -25 43 -4 64 19 20 48 20 63 2z"
       id="path80"
       style="fill:#ff0099" />
    <path
       d="M2482 3613 c2 -10 10 -18 18 -18 8 0 16 8 18 18 2 12 -3 17 -18 17 -15 0 -20 -5 -18 -17z"
       id="path82" />
    <path
       d="M2240 3595 c0 -8 7 -15 15 -15 8 0 15 7 15 15 0 8 -7 15 -15 15 -8 0 -15 -7 -15 -15z"
       id="path84" />
    <path
       d="M2215 3570 c3 -5 8 -10 11 -10 2 0 4 5 4 10 0 6 -5 10 -11 10 -5 0 -7 -4 -4 -10z"
       id="path86"
       style="fill:none" />
    <path
       d="M3093 3544 c-8 -21 13 -42 28 -27 13 13 5 43 -11 43 -6 0 -13 -7 -17 -16z"
       id="path88" />
    <path
       d="M3324 3455 c-9 -21 8 -37 29 -29 23 8 21 21 -3 34 -16 9 -22 8 -26 -5z"
       id="path90" />
    <path
       d="M3630 3295 c0 -8 7 -15 15 -15 8 0 15 7 15 15 0 8 -7 15 -15 15 -8 0 -15 -7 -15 -15z"
       id="path92"
       style="fill:none" />
    <path
       d="M3864 3159 c-3 -6 0 -18 9 -26 18 -18 37 -9 37 18 0 21 -34 27 -46 8z"
       id="path94" />
    <path
       d="M4099 2959 c-12 -7 -11 -11 3 -25 17 -17 38 -12 38 11 0 17 -23 25 -41 14z"
       id="path96" />
    <path
       d="M4246 2771 c-7 -11 18 -33 27 -24 4 3 7 12 7 20 0 15 -26 18 -34 4z"
       id="path98"
       style="fill:none" />
    <path
       d="M2760 3600 c0 -5 5 -10 10 -10 6 0 10 5 10 10 0 6 -4 10 -10 10 -5 0 -10 -4 -10 -10z"
       id="path100"
       style="fill:none" />
    <path
       d="M2485 3403 c-6 -4 -26 -44 -44 -88 -56 -136 -151 -301 -267 -464 l-38 -53 29 -24 c17 -13 38 -24 49 -24 24 0 156 133 229 230 54 73 183 304 208 375 7 19 10 38 6 41 -10 11 -160 16 -172 7z"
       id="path102"
       style="fill:#9900cc" />
    <path
       d="M2359 3391 c-55 -11 -91 -39 -158 -120 -72 -88 -118 -175 -157 -290 l-28 -84 48 -44 c47 -42 50 -43 68 -27 67 61 291 452 312 547 6 25 4 27 -21 26 -16 -1 -44 -4 -64 -8z"
       id="path104"
       style="fill:#9900cc" />
    <path
       d="M2714 3376 c-11 -14 -71 -116 -134 -227 -121 -212 -189 -300 -290 -374 -28 -20 -50 -40 -50 -43 0 -4 20 -22 45 -40 l44 -33 55 26 c101 48 335 273 421 406 50 77 119 214 130 261 7 26 6 26 -62 33 -37 3 -84 8 -104 11 -31 4 -40 1 -55 -20z"
       id="path106"
       style="fill:#9900cc" />
    <path
       d="M2155 3331 c-98 -47 -139 -83 -174 -152 -22 -44 -31 -76 -30 -108 1 -51 29 -143 46 -148 6 -2 13 15 17 39 10 65 80 204 144 286 90 117 86 112 71 112 -8 0 -41 -13 -74 -29z"
       id="path108"
       style="fill:#9900cc" />
    <path
       d="M2935 3249 c-87 -148 -151 -231 -266 -353 -105 -111 -216 -204 -278 -232 -22 -11 -41 -22 -41 -26 0 -3 30 -27 66 -53 l65 -47 66 16 c88 23 176 64 281 132 168 110 354 332 423 507 31 77 30 78 -78 121 -54 21 -114 41 -134 43 l-36 5 -68 -113z"
       id="path110"
       style="fill:#9900cc" />
    <path
       d="M3273 3128 c-38 -57 -86 -130 -106 -164 -46 -76 -184 -216 -280 -282 -93 -64 -209 -125 -281 -148 -31 -10 -56 -21 -56 -26 0 -5 21 -22 47 -38 39 -25 57 -30 108 -30 122 0 276 55 444 157 163 99 340 259 388 350 37 71 60 150 46 164 -18 18 -208 119 -224 119 -9 0 -46 -44 -86 -102z"
       id="path112"
       style="fill:#9900cc" />
    <path
       d="M3584 2968 c-75 -115 -211 -245 -359 -343 -184 -123 -322 -181 -477 -200 -27 -4 -48 -9 -48 -13 0 -4 23 -22 52 -41 l51 -33 91 6 c110 9 134 14 308 76 168 60 195 74 296 149 146 111 241 237 258 341 6 39 4 44 -37 86 -71 73 -68 74 -135 -28z"
       id="path114"
       style="fill:#9900cc" />
    <path
       d="M3768 2840 c-58 -107 -193 -243 -324 -331 -106 -70 -389 -166 -546 -185 -32 -3 -58 -9 -58 -13 0 -4 32 -24 71 -45 71 -38 71 -39 182 -37 122 1 180 14 319 67 166 64 225 100 324 198 77 76 98 105 134 180 43 88 43 89 26 120 -16 29 -81 106 -90 106 -2 0 -19 -27 -38 -60z"
       id="path116"
       style="fill:#9900cc" />
    <path
       d="M1798 2713 c-78 -59 -108 -113 -108 -193 0 -35 8 -71 22 -100 l21 -45 13 65 c24 124 64 208 128 269 20 19 36 39 36 43 0 22 -56 3 -112 -39z"
       id="path118"
       style="fill:#990099" />
    <path
       d="M1932 2730 c-80 -58 -172 -248 -172 -357 0 -35 3 -43 18 -43 38 0 138 76 190 146 45 59 131 207 140 240 3 10 -89 44 -120 44 -8 0 -34 -13 -56 -30z"
       id="path120"
       style="fill:#990099" />
    <path
       d="M2119 2648 c-19 -24 -59 -78 -89 -121 -30 -44 -93 -116 -142 -161 -68 -64 -85 -85 -76 -94 17 -17 33 -15 81 9 186 94 367 263 367 343 0 14 -76 66 -96 66 -5 0 -26 -19 -45 -42z"
       id="path122"
       style="fill:#990099" />
    <path
       d="M3890 2634 c-19 -31 -79 -98 -133 -150 -86 -83 -111 -101 -210 -148 -145 -70 -304 -122 -395 -132 -40 -3 -70 -9 -67 -12 11 -11 144 -31 211 -32 178 -1 458 126 547 247 53 74 96 155 98 188 4 48 0 95 -8 95 -5 -1 -24 -26 -43 -56z"
       id="path124"
       style="fill:#9900cc" />
    <path
       d="M2210 2498 c-78 -83 -202 -179 -311 -240 l-40 -22 35 -35 35 -34 108 38 c167 58 228 89 288 145 73 70 121 145 105 165 -18 22 -105 75 -121 74 -8 -1 -52 -42 -99 -91z"
       id="path126"
       style="fill:#990099" />
    <path
       d="M2435 2412 c-99 -110 -253 -205 -385 -238 -46 -12 -86 -26 -88 -32 -2 -6 8 -18 21 -27 47 -31 259 10 387 75 69 35 161 111 190 157 17 26 30 50 30 54 0 10 -86 69 -97 68 -4 -1 -30 -26 -58 -57z"
       id="path128"
       style="fill:#990099" />
    <path
       d="M2586 2324 c-104 -117 -330 -239 -464 -251 -34 -3 -65 -10 -68 -15 -22 -35 129 -93 236 -92 96 1 157 28 265 117 93 77 105 93 138 175 l25 62 -38 30 c-21 16 -39 30 -41 29 -2 0 -26 -25 -53 -55z"
       id="path130"
       style="fill:#990099" />
    <path
       d="M2726 2233 c-51 -84 -177 -207 -248 -242 -96 -48 -224 -64 -292 -36 -38 16 -10 -19 34 -42 114 -60 377 10 508 136 47 45 112 155 112 190 0 8 -63 51 -75 51 -2 0 -19 -26 -39 -57z"
       id="path132"
       style="fill:#990099" />
    <path
       d="M1589 2179 c-20 -22 -29 -41 -29 -65 0 -43 25 -104 42 -104 7 0 36 13 64 30 83 47 147 139 113 161 -8 5 -47 9 -87 9 -70 0 -76 -2 -103 -31z"
       id="path134"
       style="fill:#990066" />
    <path
       d="M2849 2168 c-9 -18 -42 -66 -74 -106 -47 -58 -71 -78 -119 -102 -77 -36 -216 -77 -296 -86 -97 -11 -48 -26 84 -27 103 0 119 2 215 36 109 38 160 71 199 127 44 66 52 129 20 173 -13 17 -15 16 -29 -15z"
       id="path136"
       style="fill:#990099" />
    <path
       d="M1763 2083 c-48 -49 -89 -83 -101 -83 -11 0 -28 -3 -37 -6 -14 -6 -14 -8 1 -25 25 -28 63 -23 144 17 56 29 78 46 100 81 31 48 30 64 -3 86 -21 12 -27 8 -104 -70z"
       id="path138"
       style="fill:#990066" />
    <path
       d="M1879 2037 c-31 -29 -86 -69 -122 -87 -71 -37 -74 -53 -11 -57 46 -3 121 34 180 89 49 45 61 72 44 93 -19 23 -31 18 -91 -38z"
       id="path140"
       style="fill:#990066" />
    <path
       d="M1974 1989 c-21 -22 -76 -59 -121 -82 -46 -23 -83 -45 -83 -50 0 -4 11 -13 25 -19 69 -31 270 98 250 161 -10 34 -31 30 -71 -10z"
       id="path142"
       style="fill:#990066" />
    <path
       d="M2006 1894 c-32 -24 -80 -52 -107 -61 -27 -10 -49 -21 -49 -25 0 -3 16 -12 35 -18 51 -17 123 9 169 61 37 41 40 47 30 73 -8 22 -11 21 -78 -30z"
       id="path144"
       style="fill:#990066" />
    <path
       d="M1543 1868 c-29 -33 -115 -158 -109 -158 6 0 176 172 176 178 0 1 -10 2 -23 2 -13 0 -33 -10 -44 -22z"
       id="path146"
       style="fill:#990066" />
    <path
       d="M1579 1818 c-89 -102 -132 -158 -126 -164 3 -3 20 9 39 27 18 17 24 25 14 18 -16 -12 -19 -12 -15 0 3 7 26 25 52 40 66 37 138 141 98 141 -4 0 -32 -28 -62 -62z"
       id="path148"
       style="fill:#990066" />
    <path
       d="M1594 1733 c-90 -88 -102 -102 -66 -83 44 25 192 163 192 180 0 22 -22 5 -126 -97z"
       id="path150"
       style="fill:#990066" />
    <path
       d="M1697 1754 c-32 -25 -56 -48 -53 -51 8 -8 141 70 139 82 -4 22 -31 13 -86 -31z"
       id="path152"
       style="fill:#990066" />
    <path
       d="M1427 1633 c-4 -3 -7 -11 -7 -17 0 -6 5 -5 12 2 6 6 9 14 7 17 -3 3 -9 2 -12 -2z"
       id="path154"
       style="fill:none" />
  </g>
</svg>
