<?xml version="1.0" encoding="UTF-8" standalone="no"?>
<svg
   xmlns:dc="http://purl.org/dc/elements/1.1/"
   xmlns:cc="http://creativecommons.org/ns#"
   xmlns:rdf="http://www.w3.org/1999/02/22-rdf-syntax-ns#"
   xmlns:svg="http://www.w3.org/2000/svg"
   xmlns="http://www.w3.org/2000/svg"
   xmlns:sodipodi="http://sodipodi.sourceforge.net/DTD/sodipodi-0.dtd"
   xmlns:inkscape="http://www.inkscape.org/namespaces/inkscape"
   version="1.0"
   width="850.000000pt"
   height="850.000000pt"
   viewBox="0 0 850.000000 850.000000"
   preserveAspectRatio="xMidYMid meet"
   id="svg2"
   inkscape:version="0.91 r13725"
   sodipodi:docname="Animal_kingdom_20170421_260.svg">
  <defs
     id="defs424" />
  <sodipodi:namedview
     pagecolor="#ffffff"
     bordercolor="#666666"
     borderopacity="1"
     objecttolerance="10"
     gridtolerance="10"
     guidetolerance="10"
     inkscape:pageopacity="0"
     inkscape:pageshadow="2"
     inkscape:window-width="1920"
     inkscape:window-height="980"
     id="namedview422"
     showgrid="false"
     inkscape:zoom="0.44423529"
     inkscape:cx="443.98812"
     inkscape:cy="174.85796"
     inkscape:window-x="0"
     inkscape:window-y="1"
     inkscape:window-maximized="1"
     inkscape:current-layer="svg2" />
  <metadata
     id="metadata4">
Created by potrace 1.14, written by Peter Selinger 2001-2017
<rdf:RDF>
  <cc:Work
     rdf:about="">
    <dc:format>image/svg+xml</dc:format>
    <dc:type
       rdf:resource="http://purl.org/dc/dcmitype/StillImage" />
  </cc:Work>
</rdf:RDF>
</metadata>
  <g
     transform="translate(0.000000,850.000000) scale(0.100000,-0.100000)"
     fill="#000000"
     stroke="none"
     id="g6">
    <path
       d="M0 4250 l0 -4250 4250 0 4250 0 0 4250 0 4250 -4250 0 -4250 0 0 -4250z m4277 3878 c11 -13 36 -51 57 -85 l36 -61 68 -11 c173 -27 189 -26 264 10 76 37 97 33 78 -16 -6 -16 -7 -31 -3 -35 4 -4 58 -20 118 -35 169 -42 413 -126 607 -208 171 -74 176 -75 224 -65 74 15 247 72 406 134 269 105 275 107 358 102 195 -12 275 -139 265 -423 -11 -309 -83 -472 -359 -810 -43 -53 -76 -98 -74 -101 4 -4 206 43 350 81 72 19 98 19 98 1 0 -24 -68 -145 -124 -220 -58 -78 -153 -172 -203 -201 -18 -11 -33 -22 -33 -25 0 -4 39 -14 88 -24 77 -15 141 -23 350 -42 64 -7 66 -19 10 -71 -103 -94 -244 -167 -380 -197 -23 -5 -28 -12 -28 -34 0 -35 19 -53 140 -127 158 -97 170 -105 170 -119 0 -23 -161 -70 -270 -78 l-34 -3 -13 -90 c-34 -240 -186 -650 -331 -890 -37 -62 -153 -221 -194 -265 -13 -14 -41 -46 -62 -70 -21 -25 -98 -106 -170 -180 -189 -194 -303 -320 -401 -443 -104 -128 -148 -168 -238 -213 -57 -29 -70 -41 -88 -79 -33 -71 -152 -175 -262 -229 -151 -74 -210 -86 -433 -86 -280 0 -388 27 -538 134 -70 50 -186 169 -186 191 0 15 -75 75 -93 75 -30 0 -142 99 -208 182 -64 83 -177 216 -219 259 -406 421 -484 508 -582 654 -160 240 -327 669 -380 975 l-13 75 -60 6 c-106 11 -245 55 -245 78 0 9 35 34 75 55 11 6 71 42 133 81 105 66 112 72 112 102 0 28 -4 34 -27 38 -136 28 -267 94 -364 184 -41 38 -71 72 -67 76 4 4 62 11 130 16 109 8 355 42 363 51 2 2 -28 28 -67 58 -144 113 -343 410 -273 410 9 0 109 -23 222 -50 113 -28 207 -49 209 -47 2 2 -37 53 -86 113 -202 245 -270 362 -317 550 -24 97 -27 127 -27 279 0 152 2 176 22 226 23 58 76 119 127 147 22 12 57 16 130 17 l100 0 148 -63 c167 -71 344 -133 459 -162 88 -23 59 -29 283 63 252 104 456 173 613 208 85 19 102 25 96 38 -4 9 -9 28 -12 44 -6 36 13 35 87 -3 l58 -31 119 11 c65 6 126 13 135 16 9 2 31 33 49 67 32 60 67 107 80 107 4 0 16 -10 27 -22z m-1957 -3691 c52 -239 63 -332 66 -567 3 -279 -1 -324 -34 -328 -12 -2 -42 8 -67 22 -24 14 -46 26 -48 26 -12 0 7 -71 40 -150 103 -251 122 -301 138 -371 9 -42 15 -92 13 -110 -3 -30 -6 -34 -28 -31 -14 1 -48 18 -76 37 -28 19 -53 35 -57 35 -9 0 28 -93 61 -154 58 -107 219 -251 380 -341 39 -22 74 -46 77 -53 7 -19 -49 -39 -166 -59 -171 -28 -308 2 -426 93 -67 52 -121 121 -165 212 -17 37 -33 68 -34 70 -1 2 -15 -11 -32 -28 -17 -16 -35 -30 -40 -30 -13 0 -35 58 -62 165 -17 67 -23 121 -24 212 -1 68 -3 123 -5 123 -2 0 -14 -12 -27 -26 -13 -14 -28 -22 -34 -19 -32 20 -40 196 -14 301 10 37 37 104 60 151 24 47 44 87 44 89 0 2 -22 0 -50 -3 -43 -5 -50 -3 -50 12 0 19 86 144 187 270 155 195 177 225 227 305 29 47 63 112 75 144 12 33 25 64 27 68 11 18 33 -15 44 -65z m3930 16 c43 -117 103 -206 324 -488 123 -156 180 -241 171 -255 -5 -9 -23 -11 -56 -7 -27 3 -49 4 -49 1 0 -3 8 -18 19 -32 31 -45 68 -125 86 -187 28 -96 20 -325 -12 -325 -4 0 -20 12 -35 27 l-28 27 0 -110 c0 -150 -35 -328 -75 -379 -15 -20 -16 -19 -45 13 -16 17 -31 32 -33 32 -2 0 -12 -19 -22 -42 -30 -69 -101 -172 -150 -217 -62 -57 -172 -108 -264 -122 -120 -18 -356 22 -356 60 0 8 38 36 84 63 213 122 346 261 416 435 13 32 22 59 20 61 -2 3 -21 -9 -42 -25 -66 -52 -122 -70 -124 -40 -6 72 16 171 64 287 118 289 145 370 120 358 -5 -2 -29 -14 -54 -27 -63 -32 -76 -25 -86 46 -16 113 -7 427 16 573 36 226 62 330 81 330 5 0 18 -26 30 -57z m-3821 -122 c83 -146 243 -326 491 -552 267 -244 410 -395 410 -434 0 -15 -22 -25 -56 -25 -13 0 -24 -4 -24 -9 0 -4 47 -50 105 -101 191 -170 314 -337 343 -466 15 -67 3 -72 -66 -30 -33 20 -62 36 -65 36 -3 0 11 -28 32 -63 100 -164 150 -302 158 -442 13 -209 -87 -390 -262 -476 -69 -34 -71 -34 -205 -34 -134 0 -135 0 -210 36 -83 40 -178 118 -166 137 4 7 34 12 77 12 82 0 122 15 177 64 49 45 83 122 90 203 6 75 -8 133 -55 233 l-36 75 -12 -41 c-27 -88 -88 -164 -131 -164 -26 0 -30 11 -39 95 -12 108 -46 238 -85 320 -55 119 -120 199 -120 150 0 -33 -33 -95 -50 -95 -22 0 -76 102 -120 225 -66 188 -96 351 -190 1010 -17 121 -38 248 -46 283 -19 85 -18 112 4 112 10 0 30 -23 51 -59z m3716 50 c3 -5 0 -31 -5 -58 -15 -67 -65 -386 -90 -578 -31 -236 -67 -445 -100 -575 -45 -177 -120 -369 -157 -403 -19 -16 -20 -16 -35 0 -9 10 -23 40 -30 67 l-14 49 -33 -44 c-45 -61 -106 -191 -126 -266 -8 -35 -22 -109 -31 -165 -17 -113 -18 -118 -41 -118 -48 0 -132 114 -133 180 -1 25 -1 25 -16 5 -9 -11 -30 -49 -46 -85 -24 -51 -32 -83 -35 -150 -6 -101 5 -151 50 -217 47 -69 117 -103 213 -103 41 0 76 -5 79 -11 10 -16 -76 -90 -157 -134 l-73 -40 -145 0 c-141 0 -147 1 -205 30 -79 39 -184 143 -217 215 -41 88 -51 151 -45 269 8 149 56 286 153 439 19 29 34 55 34 57 0 9 -64 -26 -87 -47 -35 -32 -57 -17 -49 33 8 50 54 153 96 213 43 64 187 213 281 293 44 36 79 70 79 75 0 4 -16 8 -35 8 -50 0 -54 21 -13 83 44 65 114 136 353 358 306 283 423 414 516 572 32 54 51 68 64 48z m-2450 -1334 c104 -60 188 -138 215 -200 l20 -44 50 5 50 5 0 -39 c-1 -22 -7 -57 -15 -79 -19 -52 -20 -49 20 -64 19 -7 35 -17 35 -22 0 -5 -28 -45 -63 -87 -34 -42 -84 -114 -111 -159 -26 -46 -54 -83 -61 -83 -9 0 -16 17 -20 48 -9 75 -43 201 -72 264 -32 71 -26 93 22 85 19 -3 37 -2 40 3 6 10 -39 82 -146 235 -66 95 -89 137 -89 165 0 32 27 25 125 -33z m1239 45 c8 -14 -48 -122 -100 -192 -69 -94 -144 -212 -139 -221 3 -4 22 -5 44 -2 22 3 41 1 45 -6 4 -6 -7 -42 -24 -81 -33 -76 -70 -207 -70 -250 0 -32 -21 -62 -36 -52 -5 4 -27 38 -48 75 -21 38 -69 107 -107 154 -38 48 -69 90 -69 94 0 4 16 13 35 19 36 12 42 27 26 59 -6 10 -13 42 -17 71 l-7 53 55 -6 c54 -5 56 -5 61 21 10 48 73 118 159 175 143 94 178 111 192 89z m-624 -329 c28 -59 65 -130 82 -158 35 -54 162 -251 210 -325 56 -85 138 -265 158 -344 22 -86 26 -204 10 -274 -6 -24 -25 -73 -42 -110 -18 -37 -34 -71 -36 -77 -7 -14 64 45 143 119 38 37 73 66 77 66 21 0 22 -115 2 -179 -6 -21 -5 -23 17 -16 65 19 122 57 201 133 56 54 93 82 102 79 20 -8 30 -66 23 -138 -3 -32 -2 -59 1 -59 18 1 101 76 194 174 101 108 207 196 234 196 19 0 18 -17 -6 -116 -27 -109 -70 -227 -112 -301 -36 -66 -121 -154 -167 -174 -32 -14 -41 -29 -18 -29 19 0 70 -57 62 -69 -10 -17 -65 -37 -151 -57 -59 -13 -102 -15 -181 -11 -57 3 -103 4 -103 3 0 -2 7 -20 15 -40 27 -65 8 -69 -117 -30 -46 15 -105 37 -132 50 -28 13 -51 24 -53 24 -2 0 13 -24 32 -53 74 -112 117 -293 105 -442 -4 -46 -9 -61 -22 -63 -19 -4 -176 98 -255 165 -29 24 -71 70 -95 103 -24 32 -45 59 -48 59 -3 1 -11 -32 -17 -73 -12 -71 -33 -143 -107 -351 -20 -55 -36 -101 -36 -102 0 -2 -7 -3 -15 -3 -16 0 -98 112 -150 205 -43 77 -83 197 -86 258 -2 26 -6 47 -10 47 -4 0 -19 -17 -35 -37 -50 -67 -124 -132 -231 -203 -104 -70 -126 -79 -138 -59 -15 23 -6 225 14 301 20 77 60 167 90 202 15 18 15 19 -4 12 -74 -28 -167 -56 -203 -62 -48 -8 -52 2 -27 63 8 19 15 37 15 38 0 2 -17 -1 -37 -6 -129 -30 -403 19 -403 72 0 11 15 29 35 41 19 13 35 25 35 28 0 3 -19 16 -41 30 -119 73 -209 234 -268 482 -18 76 -17 98 1 98 22 0 126 -87 233 -197 60 -61 127 -126 149 -143 39 -30 63 -39 50 -19 -10 17 -7 130 5 162 6 15 16 27 23 27 7 0 46 -33 85 -72 73 -74 155 -131 207 -144 26 -6 28 -5 20 17 -5 13 -9 56 -9 94 0 58 3 70 16 70 9 0 56 -36 104 -80 114 -104 125 -110 87 -43 -43 75 -62 156 -62 263 1 188 53 310 286 667 106 161 177 287 204 361 12 31 26 57 30 57 5 0 32 -48 60 -107z"
       id="path8"
       style="fill:none" />
    <path
       d="M4260 7940 l0 -120 25 16 c14 9 35 29 45 45 l20 28 -37 75 c-21 42 -41 76 -45 76 -4 0 -8 -54 -8 -120z"
       id="path10"
       style="fill:#66cc00" />
    <path
       d="M4187 7974 l-28 -56 27 -40 c15 -21 30 -41 34 -43 10 -6 12 147 3 173 -8 20 -11 17 -36 -34z"
       id="path12"
       style="fill:#66cc00" />
    <path
       d="M4622 7878 c-35 -27 -42 -38 -42 -66 0 -19 5 -32 10 -30 10 3 84 128 77 128 -2 0 -22 -14 -45 -32z"
       id="path14"
       style="fill:#ffcc00" />
    <path
       d="M3872 7845 c36 -67 45 -74 54 -39 6 23 1 32 -32 60 -21 18 -42 33 -46 34 -3 0 7 -25 24 -55z"
       id="path16"
       style="fill:#999900" />
    <path
       d="M3805 7846 c10 -72 20 -93 50 -98 22 -5 25 -3 19 16 -3 11 -22 46 -41 76 l-35 55 7 -49z"
       id="path18"
       style="fill:#999900" />
    <path
       d="M3962 7883 c-8 -3 0 -20 26 -51 21 -26 49 -63 62 -82 l25 -34 6 39 c4 22 10 61 13 88 l7 47 -63 -1 c-35 0 -69 -3 -76 -6z"
       id="path20"
       style="fill:#990000" />
    <path
       d="M4410 7872 c0 -10 5 -44 11 -75 11 -55 22 -70 32 -44 2 6 25 37 50 68 44 54 45 57 24 63 -12 3 -43 6 -69 6 -40 0 -48 -3 -48 -18z"
       id="path22"
       style="fill:#990000" />
    <path
       d="M4666 7829 c-43 -72 -45 -95 -6 -76 19 10 27 25 36 72 7 33 11 61 9 63 -1 1 -19 -25 -39 -59z"
       id="path24"
       style="fill:#ffcc00" />
    <path
       d="M3730 7853 c-22 -8 -79 -64 -101 -100 -29 -47 -41 -138 -29 -223 10 -70 45 -170 60 -170 4 0 13 17 20 39 7 21 23 52 36 67 23 28 24 29 39 10 8 -11 15 -27 15 -35 1 -29 56 -175 88 -230 l30 -54 7 56 c4 31 14 64 21 74 13 17 16 16 47 -19 42 -47 94 -152 108 -220 18 -84 -4 -246 -44 -327 -14 -27 -14 -31 -1 -31 22 0 71 58 102 120 42 86 37 148 -22 263 -25 51 -46 95 -46 100 0 12 37 8 80 -9 73 -29 52 -8 -41 42 -124 66 -196 138 -248 246 -33 69 -44 110 -67 246 -15 89 -30 162 -33 161 -3 0 -13 -3 -21 -6z"
       id="path26"
       style="fill:#cc6600" />
    <path
       d="M4132 7796 c-7 -35 -12 -71 -12 -81 0 -10 25 -44 55 -76 l56 -58 -2 91 c-1 87 -3 94 -36 140 -19 26 -38 48 -42 48 -4 0 -13 -29 -19 -64z"
       id="path28"
       style="fill:#66cc00" />
    <path
       d="M4745 7847 c-2 -6 -9 -50 -15 -97 -17 -126 -46 -244 -77 -307 -51 -104 -148 -190 -295 -263 -27 -13 -46 -25 -44 -28 2 -2 29 4 60 14 82 26 86 14 29 -87 -46 -80 -48 -88 -48 -159 0 -65 4 -82 29 -125 28 -47 94 -120 102 -112 2 2 -7 37 -21 78 -41 118 -50 201 -31 282 20 87 55 161 102 215 44 52 58 45 76 -39 l12 -58 38 79 c21 44 49 117 62 162 31 107 47 110 93 18 l32 -64 20 45 c51 114 54 273 8 352 -30 51 -63 82 -100 96 -21 8 -29 8 -32 -2z"
       id="path30"
       style="fill:#cc6600" />
    <path
       d="M4313 7817 c-17 -19 -36 -43 -42 -55 -12 -23 -14 -86 -4 -145 l6 -38 53 58 c29 32 56 66 60 77 9 26 -16 136 -31 136 -6 0 -25 -15 -42 -33z"
       id="path32"
       style="fill:#66cc00" />
    <path
       d="M3574 7808 c-39 -31 -61 -56 -83 -98 -58 -111 -24 -218 142 -437 199 -265 261 -394 273 -574 4 -52 8 -96 10 -98 1 -1 16 24 33 58 101 199 109 377 25 518 l-29 48 -3 -49 c-2 -26 4 -69 12 -94 20 -57 20 -72 2 -72 -15 0 -60 52 -109 125 -27 41 -87 167 -87 184 0 18 -31 83 -37 77 -4 -3 -10 -31 -14 -62 -10 -75 -24 -88 -54 -50 -31 38 -73 125 -92 189 -31 103 -11 248 45 335 18 28 3 28 -34 0z"
       id="path34"
       style="fill:#ff3366" />
    <path
       d="M4890 7824 c0 -4 9 -21 19 -38 57 -93 64 -235 17 -359 -39 -103 -95 -182 -115 -161 -9 9 -20 69 -21 112 0 37 -15 25 -34 -30 -48 -136 -169 -338 -203 -338 -17 0 -16 16 10 125 26 109 -2 108 -54 -3 -40 -84 -50 -195 -25 -292 18 -68 95 -240 108 -240 5 0 8 29 8 65 0 36 7 100 16 142 27 134 79 227 258 468 189 255 216 381 107 498 -33 37 -91 69 -91 51z"
       id="path36"
       style="fill:#ff3366" />
    <path
       d="M1935 7777 c-40 -18 -80 -66 -96 -114 -18 -53 -18 -356 0 -448 29 -151 104 -305 214 -442 37 -47 101 -129 142 -183 67 -87 82 -101 147 -135 40 -21 96 -55 124 -76 l52 -38 6 31 c3 17 6 45 6 62 0 18 6 40 13 50 12 16 13 16 28 -1 9 -10 23 -39 33 -65 33 -89 118 -175 219 -221 51 -23 60 -21 41 8 -10 15 -19 55 -22 94 -4 58 -1 76 18 115 27 52 64 91 79 82 5 -4 17 -32 26 -64 25 -86 63 -148 128 -208 52 -48 88 -71 72 -44 -11 17 -7 120 5 150 12 29 38 47 50 33 4 -4 15 -30 25 -57 16 -45 69 -119 221 -311 101 -128 142 -223 169 -395 5 -32 80 -128 91 -117 8 8 34 160 34 200 0 23 -6 76 -14 117 -22 113 -9 118 81 28 l63 -62 0 104 c0 124 -20 226 -54 285 -74 125 -259 219 -535 270 -46 8 -85 15 -87 15 -12 0 -2 42 11 46 33 13 10 21 -77 27 -242 17 -458 106 -551 225 -33 43 -32 61 8 82 17 8 32 16 34 17 2 2 -12 26 -31 55 -19 29 -48 85 -64 123 -25 60 -29 83 -29 165 0 86 3 101 31 160 36 75 105 148 183 192 63 36 69 31 -84 76 -55 17 -143 46 -195 67 -242 93 -290 107 -390 111 -68 3 -104 1 -125 -9z m310 -174 c32 -60 66 -120 77 -135 34 -50 126 -243 143 -302 24 -82 16 -215 -18 -314 -25 -73 -52 -116 -67 -107 -5 3 -15 38 -24 79 -20 89 -43 123 -179 266 -119 125 -147 177 -150 277 -2 94 18 121 47 66 17 -32 85 -107 91 -101 2 2 -3 31 -12 63 -24 86 -24 252 0 288 9 15 21 27 26 27 4 0 34 -48 66 -107z m-256 -399 c109 -60 192 -135 252 -227 50 -78 70 -149 70 -257 1 -134 -6 -137 -75 -30 -37 56 -137 180 -193 238 -73 76 -129 170 -141 242 -15 84 -9 87 87 34z"
       id="path38"
       style="fill:#cc3300" />
    <path
       d="M2180 7549 c0 -85 15 -162 46 -239 41 -101 18 -106 -86 -19 l-73 62 6 -38 c8 -50 31 -80 158 -216 103 -109 159 -187 159 -221 0 -10 4 -18 9 -18 12 0 18 19 31 105 26 162 -12 264 -231 620 l-19 30 0 -66z"
       id="path40"
       style="fill:#ff6600" />
    <path
       d="M1950 7158 c0 -18 43 -101 69 -134 10 -13 49 -57 86 -98 37 -41 89 -103 116 -136 l49 -61 0 34 c0 46 -34 140 -71 199 -60 93 -249 242 -249 196z"
       id="path42"
       style="fill:#cc6600" />
    <path
       d="M3422 7750 c-47 -44 -62 -74 -62 -128 0 -79 39 -161 127 -271 24 -30 42 -59 40 -65 -3 -7 -23 -10 -52 -8 -36 3 -45 0 -39 -10 29 -50 104 -135 178 -202 101 -91 107 -109 39 -99 l-48 6 63 -52 c76 -63 145 -154 169 -222 36 -100 40 -32 7 106 -29 120 -85 218 -257 450 -49 66 -106 154 -126 195 -33 68 -36 83 -36 160 0 75 3 91 28 133 15 26 24 47 20 47 -4 0 -27 -18 -51 -40z"
       id="path44"
       style="fill:#cc6600" />
    <path
       d="M4500 7745 l-31 -45 20 -45 c11 -25 24 -45 29 -45 5 0 19 25 31 57 18 47 20 62 10 90 -6 18 -14 33 -19 33 -5 0 -23 -20 -40 -45z"
       id="path46"
       style="fill:#ffcc00" />
    <path
       d="M6333 7775 c-28 -8 -111 -37 -183 -65 -143 -55 -326 -116 -378 -126 -48 -9 -47 -19 3 -49 72 -42 154 -130 187 -201 28 -60 30 -70 26 -166 -3 -91 -7 -111 -35 -170 -17 -37 -46 -88 -62 -112 -17 -25 -31 -47 -31 -49 0 -3 12 -8 27 -12 63 -15 67 -39 17 -94 -105 -117 -311 -200 -541 -218 -81 -6 -111 -17 -79 -29 28 -11 17 -33 -21 -43 -21 -6 -96 -24 -167 -41 -179 -42 -278 -90 -365 -177 -75 -75 -93 -114 -111 -238 -11 -78 -13 -176 -4 -199 4 -11 20 0 64 45 32 32 66 59 75 59 15 0 16 -6 9 -57 -13 -87 -10 -285 6 -322 l13 -32 43 48 c33 36 45 59 50 93 23 167 55 236 186 401 138 174 162 208 196 282 18 37 36 67 40 67 31 0 63 -85 51 -135 -13 -59 -11 -67 13 -54 70 38 150 155 185 271 11 37 18 48 29 44 9 -3 17 -6 19 -6 2 0 17 -22 35 -49 42 -66 50 -136 22 -208 -11 -29 -16 -53 -11 -53 26 0 118 58 167 103 53 51 88 106 111 180 22 65 51 38 58 -55 3 -35 7 -64 8 -66 2 -2 27 15 56 37 30 23 87 57 126 78 40 20 80 48 90 62 9 14 65 87 123 161 181 228 237 330 280 510 19 78 23 124 23 260 1 103 -4 181 -11 207 -16 53 -56 102 -99 119 -42 18 -172 17 -240 -1z m17 -87 c22 -35 25 -198 6 -281 -9 -38 -16 -71 -16 -74 0 -12 52 42 82 85 40 59 58 44 58 -47 0 -98 -30 -153 -149 -276 -54 -57 -113 -124 -131 -151 -31 -44 -65 -148 -54 -165 7 -12 -7 -39 -22 -39 -17 0 -56 75 -78 149 -20 69 -21 201 -1 290 10 41 36 104 69 162 59 105 167 299 190 342 18 33 27 34 46 5z m260 -475 c0 -87 -49 -174 -185 -328 -48 -55 -112 -134 -141 -176 -70 -99 -79 -107 -94 -78 -24 44 12 241 60 323 51 88 147 179 265 250 74 44 95 46 95 9z"
       id="path48"
       style="fill:#cc3300" />
    <path
       d="M6234 7464 c-47 -80 -96 -169 -109 -197 -55 -120 -70 -254 -39 -358 l16 -54 32 64 c22 47 63 99 147 187 111 117 139 156 153 217 9 37 -3 34 -49 -14 -51 -52 -103 -85 -116 -72 -6 6 2 44 22 103 28 88 53 270 36 270 -4 0 -45 -66 -93 -146z"
       id="path50"
       style="fill:#ff6600" />
    <path
       d="M6490 7134 c-153 -102 -236 -222 -257 -372 l-6 -47 68 85 c37 47 96 117 130 155 34 39 71 84 83 102 21 29 56 113 50 118 -2 2 -32 -17 -68 -41z"
       id="path52"
       style="fill:#cc6600" />
    <path
       d="M3949 7753 c-11 -29 -1 -81 26 -132 l13 -25 21 42 c27 52 26 58 -5 104 -32 45 -41 47 -55 11z"
       id="path54"
       style="fill:#999900" />
    <path
       d="M5063 7743 c18 -31 22 -53 22 -124 0 -80 -2 -90 -42 -170 -23 -46 -74 -127 -114 -179 -206 -273 -266 -391 -285 -562 -7 -70 3 -70 30 1 28 74 93 156 181 230 l40 33 -42 -6 c-25 -4 -44 -2 -48 5 -4 5 38 53 93 105 91 85 172 179 172 199 0 4 -18 5 -40 1 -61 -10 -60 11 1 91 129 168 147 304 52 388 -40 35 -46 31 -20 -12z"
       id="path56"
       style="fill:#cc6600" />
    <path
       d="M3320 7753 c-402 -146 -407 -148 -290 -139 96 8 174 -3 178 -26 2 -11 -18 -27 -67 -53 -39 -21 -100 -64 -135 -96 -78 -71 -102 -129 -92 -213 12 -89 96 -239 96 -170 0 30 61 135 85 146 14 6 27 9 30 7 2 -3 7 -31 10 -62 3 -32 15 -78 26 -102 21 -44 133 -175 150 -175 5 0 9 17 9 38 0 42 55 159 83 176 20 13 37 -5 37 -40 0 -39 78 -177 152 -270 40 -50 109 -136 153 -190 43 -54 80 -101 82 -103 2 -2 6 -1 10 2 13 13 -29 172 -63 239 -38 75 -119 162 -202 218 -72 49 -81 80 -21 80 16 0 29 3 29 6 0 4 -33 41 -73 84 -74 76 -134 177 -124 204 3 8 18 16 32 18 l27 3 -33 44 c-17 25 -45 73 -61 108 -38 81 -41 168 -9 231 21 42 18 48 -19 35z"
       id="path58"
       style="fill:#ff6600" />
    <path
       d="M5150 7755 c0 -3 10 -25 21 -47 41 -81 12 -205 -77 -330 l-34 -48 30 0 c26 0 30 -4 30 -28 0 -36 -58 -126 -134 -209 -31 -33 -56 -64 -56 -67 0 -3 11 -6 24 -6 13 0 30 -7 37 -16 12 -15 10 -19 -11 -33 -159 -105 -255 -219 -289 -346 -11 -41 -30 -155 -26 -155 5 0 285 347 310 383 43 64 84 153 91 197 6 34 10 41 27 38 25 -4 84 -114 95 -176 l7 -44 62 62 c76 77 106 134 111 218 3 38 9 62 16 62 38 0 99 -84 112 -154 l7 -38 27 43 c63 103 78 215 39 294 -29 58 -104 127 -179 165 -71 36 -105 64 -96 78 5 8 45 12 122 12 63 0 114 3 114 8 0 8 -240 102 -325 127 -58 17 -55 17 -55 10z"
       id="path60"
       style="fill:#ff6600" />
    <path
       d="M3831 7689 c3 -80 10 -92 64 -105 27 -7 51 -11 53 -9 2 2 -6 30 -18 63 -17 45 -28 62 -45 66 -13 3 -30 9 -39 12 -13 5 -16 -1 -15 -27z"
       id="path62"
       style="fill:#999900" />
    <path
       d="M4629 7709 c-19 -7 -33 -27 -52 -71 -15 -34 -25 -63 -24 -65 8 -7 105 28 110 41 3 7 9 34 12 60 8 50 4 53 -46 35z"
       id="path64"
       style="fill:#ffcc00" />
    <path
       d="M4436 7623 c-14 -73 -15 -107 -5 -148 6 -25 14 -45 18 -45 3 0 16 26 28 58 l23 59 -22 51 c-25 59 -34 64 -42 25z"
       id="path66"
       style="fill:#ffcc00" />
    <path
       d="M4030 7595 c-21 -48 -21 -50 -3 -99 22 -60 36 -67 53 -25 10 24 11 44 2 92 -16 84 -27 91 -52 32z"
       id="path68"
       style="fill:#999900" />
    <path
       d="M4120 7621 c0 -13 5 -53 11 -88 10 -56 18 -71 60 -116 l48 -52 0 75 0 75 -59 65 c-52 57 -59 62 -60 41z"
       id="path70"
       style="fill:#66cc00" />
    <path
       d="M4322 7587 c-50 -51 -52 -54 -51 -107 1 -30 4 -68 8 -83 l6 -28 38 38 c30 32 40 52 52 109 16 77 19 124 7 124 -4 0 -31 -24 -60 -53z"
       id="path72"
       style="fill:#66cc00" />
    <path
       d="M3012 7569 c-110 -21 -261 -140 -313 -244 -28 -57 -31 -72 -27 -133 5 -99 59 -204 148 -292 92 -91 138 -114 455 -227 222 -79 381 -154 471 -224 110 -84 87 -41 -98 183 -128 155 -223 294 -233 337 -4 17 -10 31 -15 31 -16 0 -34 -76 -31 -137 1 -56 0 -63 -18 -63 -24 0 -102 61 -161 127 -49 54 -90 128 -90 161 0 36 -20 35 -35 -2 -20 -48 -19 -85 5 -141 20 -47 19 -65 -3 -65 -16 1 -104 114 -144 187 -61 109 -72 228 -29 310 24 47 92 116 150 153 30 19 55 38 56 43 0 9 -31 8 -88 -4z"
       id="path74"
       style="fill:#993300" />
    <path
       d="M5410 7572 c0 -4 19 -19 43 -34 64 -41 137 -118 158 -166 29 -67 26 -191 -6 -261 -32 -67 -105 -178 -139 -210 -38 -36 -54 -16 -32 39 9 22 16 60 16 85 0 43 -16 95 -30 95 -3 0 -12 -23 -19 -50 -7 -28 -32 -76 -55 -108 -59 -80 -169 -169 -197 -160 -6 2 -11 37 -12 78 -2 41 -9 86 -16 99 -14 25 -14 25 -40 -30 -37 -75 -92 -155 -219 -311 -132 -163 -186 -237 -179 -245 4 -3 28 14 55 38 81 73 252 156 512 249 304 108 398 159 475 258 133 169 143 335 30 470 -62 74 -211 158 -292 166 -29 2 -53 1 -53 -2z"
       id="path76"
       style="fill:#993300" />
    <path
       d="M3860 7548 c0 -7 11 -36 24 -64 20 -42 29 -52 63 -62 62 -18 76 -16 67 11 -22 71 -43 96 -96 112 -62 18 -58 18 -58 3z"
       id="path78"
       style="fill:#999900" />
    <path
       d="M4584 7543 c-48 -14 -52 -18 -74 -69 -12 -30 -20 -57 -17 -60 10 -11 90 10 107 28 20 22 51 106 41 112 -3 2 -29 -3 -57 -11z"
       id="path80"
       style="fill:#ffcc00" />
    <path
       d="M2735 7486 c-68 -45 -122 -107 -153 -175 -22 -46 -26 -70 -25 -131 1 -96 27 -164 104 -280 75 -112 76 -125 9 -116 -27 4 -50 3 -50 -2 0 -4 12 -19 28 -33 132 -120 292 -176 568 -200 71 -6 131 -13 134 -16 3 -2 -7 -15 -22 -28 -16 -13 -28 -26 -28 -28 0 -3 44 -15 98 -27 161 -37 331 -109 377 -160 25 -27 35 -25 35 7 0 21 -16 42 -61 86 -70 66 -245 157 -434 226 -255 92 -305 111 -363 139 -89 44 -154 94 -210 165 -157 198 -159 377 -7 545 31 34 55 62 53 62 -2 0 -26 -15 -53 -34z"
       id="path82"
       style="fill:#993300" />
    <path
       d="M5772 7453 c83 -88 103 -138 103 -254 0 -90 -2 -99 -39 -174 -28 -57 -59 -99 -115 -155 -86 -88 -176 -137 -381 -208 -205 -72 -277 -100 -362 -140 -163 -76 -288 -174 -288 -225 0 -15 2 -27 5 -27 3 0 33 19 67 43 77 53 189 98 328 132 58 15 106 28 108 30 2 1 -9 15 -24 30 -37 37 -26 41 126 48 229 12 406 68 527 169 66 55 69 72 8 62 -65 -9 -66 9 -3 97 29 41 67 104 83 139 27 58 30 75 30 165 0 93 -2 104 -29 150 -34 58 -73 99 -135 143 -67 48 -70 38 -9 -25z"
       id="path84"
       style="fill:#993300" />
    <path
       d="M4092 7413 c-7 -12 -12 -28 -12 -35 0 -15 70 -131 76 -126 2 2 -9 44 -25 93 -25 81 -28 88 -39 68z"
       id="path86"
       style="fill:#999900" />
    <path
       d="M4379 7345 c-15 -47 -25 -85 -24 -85 11 0 68 106 68 126 0 58 -20 40 -44 -41z"
       id="path88"
       style="fill:#ffcc00" />
    <path
       d="M3975 7350 c29 -31 117 -100 128 -100 9 0 -41 86 -60 103 -10 8 -36 19 -58 22 l-40 8 30 -33z"
       id="path90"
       style="fill:#999900" />
    <path
       d="M4170 7376 c0 -12 61 -196 66 -196 2 0 4 29 4 63 0 58 -3 67 -35 103 -19 21 -34 35 -35 30z"
       id="path92"
       style="fill:#66cc00" />
    <path
       d="M4482 7367 c-13 -6 -38 -37 -55 -67 l-31 -55 31 20 c35 22 123 101 123 109 0 11 -45 6 -68 -7z"
       id="path94"
       style="fill:#ffcc00" />
    <path
       d="M4303 7332 c-18 -25 -37 -122 -23 -122 3 0 17 34 32 75 28 79 26 94 -9 47z"
       id="path96"
       style="fill:#66cc00" />
    <path
       d="M4305 7076 c-25 -25 -49 -46 -53 -46 -4 0 -26 18 -47 40 -58 59 -69 51 -35 -22 40 -84 42 -175 5 -248 -14 -27 -25 -51 -25 -53 0 -3 47 -4 104 -4 l105 0 -21 41 c-15 28 -23 66 -26 122 -4 73 -1 88 23 143 15 34 25 64 22 67 -3 3 -26 -15 -52 -40z"
       id="path98"
       style="fill:#990000" />
    <path
       d="M4146 6699 c-100 -25 -217 -124 -261 -222 -124 -271 72 -575 371 -577 136 0 277 82 348 203 55 93 69 232 33 337 -30 91 -118 186 -218 237 -43 21 -69 27 -143 29 -50 2 -109 -1 -130 -7z m153 -35 c25 -32 26 -47 5 -79 -33 -51 -114 -22 -114 41 0 25 43 64 71 64 9 0 27 -12 38 -26z m-246 -75 c50 -23 53 -93 5 -117 -53 -25 -100 20 -84 81 4 19 26 37 53 46 1 1 13 -4 26 -10z m476 -30 c19 -34 8 -73 -24 -87 -68 -31 -122 35 -79 96 23 33 83 27 103 -9z m-163 -55 c26 -16 61 -46 78 -67 27 -34 31 -48 34 -111 6 -110 -34 -183 -123 -225 -114 -53 -252 -8 -313 104 -22 41 -22 159 1 201 65 125 210 169 323 98z m-381 -148 c24 -35 16 -77 -17 -96 -25 -13 -31 -13 -55 0 -64 36 -48 120 22 120 26 0 39 -6 50 -24z m623 8 c15 -10 22 -25 22 -49 0 -62 -71 -87 -109 -39 -26 34 -26 54 -1 82 24 26 57 28 88 6z m-536 -231 c22 -20 24 -76 2 -97 -35 -36 -104 -7 -104 43 0 61 60 92 102 54z m448 -3 c26 -26 25 -58 -2 -87 -25 -27 -54 -29 -86 -7 -45 31 -14 114 43 114 14 0 34 -9 45 -20z m-220 -100 c42 -42 12 -100 -50 -100 -43 0 -60 18 -60 64 0 53 70 76 110 36z"
       id="path100"
       style="fill:#999933" />
    <path
       d="M4227 6644 c-14 -15 -6 -43 14 -49 25 -8 42 6 37 31 -3 19 -38 31 -51 18z"
       id="path102"
       style="fill:#cc00ff" />
    <path
       d="M4010 6545 c-17 -20 -5 -45 20 -45 11 0 23 7 26 15 6 15 -11 45 -26 45 -4 0 -13 -7 -20 -15z"
       id="path104"
       style="fill:#cc00ff" />
    <path
       d="M4450 6545 c-10 -12 -10 -18 0 -30 7 -8 18 -15 25 -15 7 0 18 7 25 15 10 12 10 18 0 30 -7 8 -18 15 -25 15 -7 0 -18 -7 -25 -15z"
       id="path106"
       style="fill:#cc00ff" />
    <path
       d="M4165 6494 c-145 -75 -159 -266 -27 -359 39 -27 52 -30 117 -30 66 0 77 3 115 31 24 17 54 50 67 75 51 94 13 222 -82 276 -49 28 -144 31 -190 7z"
       id="path108"
       style="fill:#339900" />
    <path
       d="M3923 6343 c-17 -6 -16 -38 1 -52 11 -9 18 -8 30 4 19 20 20 27 4 43 -13 13 -16 13 -35 5z"
       id="path110"
       style="fill:#cc00ff" />
    <path
       d="M4545 6334 c-8 -9 -15 -17 -15 -19 0 -2 7 -10 15 -19 20 -20 45 -10 45 19 0 29 -25 39 -45 19z"
       id="path112"
       style="fill:#cc00ff" />
    <path
       d="M4007 6104 c-14 -15 -6 -43 14 -49 25 -8 42 6 37 31 -3 19 -38 31 -51 18z"
       id="path114"
       style="fill:#cc00ff" />
    <path
       d="M4445 6100 c-9 -14 13 -50 30 -50 17 0 34 30 28 48 -5 14 -49 16 -58 2z"
       id="path116"
       style="fill:#cc00ff" />
    <path
       d="M4231 6007 c-13 -17 -6 -43 14 -51 18 -6 38 18 33 41 -4 23 -31 28 -47 10z"
       id="path118"
       style="fill:#cc00ff" />
    <path
       d="M6530 6526 c-94 -22 -95 -23 -98 -54 -2 -18 1 -32 7 -32 11 0 152 73 186 96 25 18 20 17 -95 -10z"
       id="path120"
       style="fill:#00ff00" />
    <path
       d="M1820 6533 c0 -3 20 -39 45 -79 50 -80 42 -77 155 -55 l35 8 -80 40 c-44 23 -97 53 -117 67 -21 14 -38 23 -38 19z"
       id="path122"
       style="fill:#006600" />
    <path
       d="M1908 6520 c18 -11 64 -36 104 -56 l71 -36 -7 33 c-3 18 -8 34 -10 36 -7 7 -147 43 -168 43 -21 0 -19 -2 10 -20z"
       id="path124"
       style="fill:#006600" />
    <path
       d="M6565 6467 c-104 -58 -108 -62 -80 -68 17 -4 49 -7 72 -8 39 -1 43 1 77 53 34 51 53 87 45 85 -2 0 -53 -28 -114 -62z"
       id="path126"
       style="fill:#00ff00" />
    <path
       d="M2112 6449 c10 -37 16 -43 90 -80 44 -22 82 -38 85 -36 2 3 -2 28 -9 58 l-14 53 -64 22 c-95 34 -100 33 -88 -17z"
       id="path128"
       style="fill:#006600" />
    <path
       d="M6315 6466 c-63 -20 -71 -25 -82 -56 -12 -37 -17 -80 -8 -80 12 0 122 59 141 76 23 20 40 69 27 77 -5 3 -39 -5 -78 -17z"
       id="path130"
       style="fill:#00ff00" />
    <path
       d="M2303 6414 c6 -23 13 -50 21 -85 4 -20 19 -32 65 -53 32 -14 61 -26 63 -26 3 0 2 19 -2 41 -9 47 -34 74 -104 114 -43 25 -48 26 -43 9z"
       id="path132"
       style="fill:#006600" />
    <path
       d="M2900 6399 c-7 -13 -13 -50 -13 -81 0 -45 6 -70 31 -118 18 -33 32 -65 32 -70 0 -29 -129 10 -215 65 -48 31 -112 94 -147 145 l-17 25 0 -43 c-1 -50 40 -181 71 -226 63 -92 139 -145 249 -176 l76 -20 89 21 c118 28 248 24 314 -10 53 -28 97 -65 151 -127 21 -25 39 -40 39 -34 0 33 -83 161 -190 294 -66 82 -130 169 -142 195 l-23 46 -3 -33 c-2 -22 6 -53 22 -86 41 -85 35 -92 -49 -52 -92 43 -235 199 -235 258 0 8 -6 23 -14 33 -13 18 -14 18 -26 -6z"
       id="path134"
       style="fill:#993366" />
    <path
       d="M5570 6378 c-13 -47 -73 -140 -116 -179 -69 -62 -164 -115 -191 -105 -11 4 -8 16 11 55 25 48 45 131 32 131 -3 0 -14 -17 -25 -37 -11 -21 -42 -66 -68 -99 -184 -235 -263 -349 -263 -380 0 -5 30 20 68 56 95 93 155 120 269 120 48 -1 108 -5 133 -11 108 -25 168 -23 243 6 59 23 85 42 143 99 61 61 74 82 97 146 27 74 44 180 29 180 -4 0 -22 -23 -39 -50 -18 -27 -58 -67 -88 -90 -89 -66 -225 -117 -248 -93 -4 3 7 30 24 60 35 62 48 142 29 197 -15 47 -27 46 -40 -6z"
       id="path136"
       style="fill:#993366" />
    <path
       d="M6130 6387 c-47 -28 -56 -40 -69 -80 -8 -26 -12 -49 -9 -53 12 -11 119 48 128 71 15 38 23 95 14 95 -5 -1 -34 -15 -64 -33z"
       id="path138"
       style="fill:#00ff00" />
    <path
       d="M2005 6366 l-70 -11 55 -54 c30 -29 62 -56 70 -60 16 -8 200 46 200 59 0 10 -153 80 -170 79 -8 -1 -46 -6 -85 -13z"
       id="path140"
       style="fill:#006600" />
    <path
       d="M6323 6342 c-40 -20 -73 -39 -73 -43 0 -9 152 -59 179 -59 23 0 134 97 126 110 -3 4 -31 11 -62 15 -32 3 -67 8 -78 10 -11 3 -53 -12 -92 -33z"
       id="path142"
       style="fill:#00ff00" />
    <path
       d="M2480 6299 c0 -30 22 -79 40 -89 28 -15 30 -13 19 18 -13 37 -58 92 -59 71z"
       id="path144"
       style="fill:#006600" />
    <path
       d="M5993 6278 c-27 -46 -34 -67 -24 -72 16 -10 40 20 50 62 11 50 0 54 -26 10z"
       id="path146"
       style="fill:#00ff00" />
    <path
       d="M2240 6256 c-117 -43 -124 -46 -113 -57 5 -5 36 -21 68 -34 55 -22 60 -22 109 -8 52 15 126 50 126 58 0 4 -116 65 -122 65 -2 -1 -32 -11 -68 -24z"
       id="path148"
       style="fill:#006600" />
    <path
       d="M6131 6249 c-30 -16 -57 -31 -59 -34 -6 -5 77 -42 137 -60 39 -12 49 -12 95 6 99 36 100 42 10 76 -120 46 -122 46 -183 12z"
       id="path150"
       style="fill:#00ff00" />
    <path
       d="M2408 6163 c-38 -14 -68 -30 -68 -34 0 -12 217 -11 225 1 5 9 -66 61 -82 59 -5 0 -38 -12 -75 -26z"
       id="path152"
       style="fill:#006600" />
    <path
       d="M5978 6167 c-65 -38 -51 -47 79 -47 70 0 113 4 108 9 -11 10 -130 61 -142 61 -4 -1 -25 -11 -45 -23z"
       id="path154"
       style="fill:#00ff00" />
    <path
       d="M6255 6100 c-33 -10 -91 -20 -128 -24 -37 -4 -67 -11 -67 -15 0 -5 30 -11 67 -14 61 -5 73 -2 128 25 33 17 62 32 64 34 12 11 -10 9 -64 -6z"
       id="path156"
       style="fill:#339900" />
    <path
       d="M2242 6075 c62 -32 71 -34 132 -28 36 3 66 9 66 14 0 4 -26 11 -57 14 -32 4 -85 13 -118 21 -91 21 -96 17 -23 -21z"
       id="path158"
       style="fill:#339900" />
    <path
       d="M2000 6091 l-24 -7 37 -29 c34 -27 42 -30 104 -27 38 2 81 5 96 8 27 6 25 8 -33 35 -62 29 -123 36 -180 20z"
       id="path160"
       style="fill:#339900" />
    <path
       d="M6321 6071 l-55 -28 35 -6 c19 -4 61 -7 94 -8 49 -2 68 2 98 22 20 13 37 27 37 30 0 8 -65 19 -115 18 -24 0 -62 -11 -94 -28z"
       id="path162"
       style="fill:#339900" />
    <path
       d="M2503 6073 c-31 -12 -8 -23 50 -23 59 1 61 1 37 15 -25 14 -64 18 -87 8z"
       id="path164"
       style="fill:#339900" />
    <path
       d="M5920 6067 c-23 -11 -21 -12 29 -15 30 -2 59 2 64 7 8 8 5 11 -8 11 -11 0 -29 2 -40 5 -11 2 -31 -1 -45 -8z"
       id="path166"
       style="fill:#339900" />
    <path
       d="M6555 6056 c-19 -11 -35 -23 -35 -26 0 -8 181 9 198 19 7 4 -18 11 -58 17 -63 9 -74 8 -105 -10z"
       id="path168"
       style="fill:#339900" />
    <path
       d="M1810 6061 c-64 -8 -31 -19 82 -26 l93 -7 -25 21 c-26 21 -60 24 -150 12z"
       id="path170"
       style="fill:#339900" />
    <path
       d="M1724 6021 c9 -13 98 -71 154 -100 l40 -20 36 39 c20 22 36 45 36 50 0 6 -26 10 -57 10 -57 0 -155 13 -195 26 -14 4 -18 2 -14 -5z"
       id="path172"
       style="fill:#339900" />
    <path
       d="M6745 6019 c-16 -5 -76 -12 -132 -16 -57 -3 -103 -9 -103 -13 0 -9 77 -80 86 -80 14 0 83 37 137 72 72 49 75 56 12 37z"
       id="path174"
       style="fill:#339900" />
    <path
       d="M2333 6013 c-23 -4 -64 -56 -97 -120 -16 -33 -16 -33 6 -32 13 0 52 6 88 12 l65 12 27 55 c15 30 28 61 28 68 0 12 -66 15 -117 5z"
       id="path176"
       style="fill:#339900" />
    <path
       d="M2471 5971 c-24 -57 -25 -61 -10 -61 17 0 189 82 189 90 0 14 -30 20 -95 20 l-63 0 -21 -49z"
       id="path178"
       style="fill:#339900" />
    <path
       d="M5867 6011 c-16 -6 -16 -9 -5 -18 22 -18 78 -44 135 -64 62 -21 66 -14 33 51 l-20 40 -63 -1 c-34 0 -70 -4 -80 -8z"
       id="path180"
       style="fill:#339900" />
    <path
       d="M6073 6013 l-22 -4 25 -57 c14 -31 29 -59 34 -62 15 -9 161 -32 167 -26 6 5 -38 89 -65 123 -17 23 -91 37 -139 26z"
       id="path182"
       style="fill:#339900" />
    <path
       d="M2149 6003 l-97 -4 -47 -50 c-27 -29 -44 -54 -39 -59 12 -12 145 -32 185 -28 28 3 37 12 70 71 41 72 44 78 32 75 -5 -1 -51 -4 -104 -5z"
       id="path184"
       style="fill:#339900" />
    <path
       d="M6251 5993 c0 -5 17 -35 38 -68 26 -42 45 -61 62 -64 33 -5 188 19 195 30 3 5 -18 31 -46 59 l-51 50 -99 0 c-55 0 -100 -3 -99 -7z"
       id="path186"
       style="fill:#339900" />
    <path
       d="M3931 5868 c-3 -219 -17 -243 -84 -136 -21 33 -39 59 -41 57 -2 -2 -6 -58 -9 -124 -6 -105 -30 -229 -52 -265 -14 -23 -44 -10 -55 24 -6 19 -18 40 -26 46 -12 11 -14 -4 -15 -111 -1 -68 -3 -134 -4 -147 -1 -12 -5 -73 -9 -135 -4 -62 -9 -128 -13 -147 -9 -53 1 -35 42 75 21 55 88 206 151 335 147 306 159 344 158 485 -1 105 -13 165 -33 165 -5 0 -9 -55 -10 -122z"
       id="path188"
       style="fill:#993366" />
    <path
       d="M4544 5954 c-12 -27 -17 -67 -17 -129 0 -77 5 -105 36 -196 20 -59 61 -158 93 -220 87 -174 172 -363 195 -435 11 -35 23 -64 26 -64 5 0 -6 197 -13 234 -2 10 -4 64 -5 120 0 56 -4 128 -8 161 l-6 60 -23 -47 c-35 -70 -55 -64 -87 27 -12 34 -19 94 -22 188 -3 75 -8 137 -12 137 -3 0 -24 -27 -45 -61 -66 -102 -82 -75 -85 146 -1 60 -4 111 -6 114 -3 2 -12 -13 -21 -35z"
       id="path190"
       style="fill:#993366" />
    <path
       d="M2633 5937 c-24 -11 -43 -25 -43 -29 0 -10 61 14 92 37 33 22 1 18 -49 -8z"
       id="path192"
       style="fill:#00ff00" />
    <path
       d="M5810 5956 c0 -9 94 -56 104 -53 6 2 -12 16 -41 30 -52 27 -63 31 -63 23z"
       id="path194"
       style="fill:#006600" />
    <path
       d="M2663 5897 c-51 -31 -52 -33 -53 -79 0 -27 4 -48 9 -48 10 0 90 100 110 138 17 32 -2 29 -66 -11z"
       id="path196"
       style="fill:#00ff00" />
    <path
       d="M4470 5905 c-14 -36 -38 -125 -44 -166 -6 -33 -10 -37 -46 -43 -21 -3 -42 -11 -45 -16 -7 -12 50 -121 128 -243 79 -122 107 -174 100 -181 -3 -3 -24 -6 -45 -6 l-39 0 52 -62 c29 -35 72 -93 95 -129 41 -63 193 -363 242 -478 13 -29 25 -51 28 -48 7 6 -21 173 -46 281 -25 109 -71 226 -177 451 -176 372 -187 405 -188 557 0 60 -1 108 -3 108 -1 0 -7 -11 -12 -25z"
       id="path198"
       style="fill:#990000" />
    <path
       d="M5774 5914 c3 -8 30 -46 58 -84 l53 -68 7 46 c4 25 5 49 2 53 -5 9 -109 69 -119 69 -4 0 -4 -7 -1 -16z"
       id="path200"
       style="fill:#006600" />
    <path
       d="M3154 5899 c-65 -73 -57 -144 24 -199 30 -21 47 -25 108 -25 66 0 75 3 111 31 21 17 45 48 52 69 15 38 15 38 -20 68 -51 44 -111 68 -187 74 -61 5 -69 3 -88 -18z m158 -36 c38 -34 15 -93 -37 -93 -63 0 -82 68 -27 99 25 15 43 13 64 -6z"
       id="path202"
       style="fill:#ff6600" />
    <path
       d="M3250 5850 c-11 -11 -20 -26 -20 -34 0 -22 28 -39 54 -32 28 7 40 31 26 56 -15 28 -38 32 -60 10z"
       id="path204"
       style="fill:#ff0000" />
    <path
       d="M4026 5860 c7 -69 -4 -141 -36 -240 -25 -77 -41 -112 -132 -300 -163 -335 -222 -511 -244 -720 -7 -78 0 -73 46 30 116 261 240 478 327 571 l46 49 -47 0 c-65 0 -64 2 42 165 36 55 85 137 109 181 l44 82 -32 11 c-18 6 -40 11 -50 11 -13 0 -19 7 -19 23 0 34 -38 179 -51 192 -7 7 -8 -10 -3 -55z"
       id="path206"
       style="fill:#990000" />
    <path
       d="M5175 5902 c-108 -45 -139 -84 -115 -143 21 -49 70 -80 139 -86 74 -7 101 0 142 34 64 54 71 127 19 183 -25 27 -34 30 -87 29 -32 0 -76 -8 -98 -17z m99 -44 c9 -12 16 -30 16 -40 0 -48 -78 -66 -105 -24 -39 59 49 121 89 64z"
       id="path208"
       style="fill:#ff6600" />
    <path
       d="M5206 5854 c-34 -34 -2 -84 44 -69 27 9 27 60 1 75 -25 13 -27 13 -45 -6z"
       id="path210"
       style="fill:#ff0000" />
    <path
       d="M2784 5854 c9 -69 71 -178 130 -230 110 -98 294 -161 436 -151 156 12 199 38 214 133 5 33 3 43 -10 48 -28 11 -77 6 -154 -14 -184 -48 -285 -9 -377 145 -20 33 -38 62 -39 63 -2 4 -192 52 -202 52 -3 0 -2 -21 2 -46z"
       id="path212"
       style="fill:#990000" />
    <path
       d="M5680 5891 c-8 -5 -48 -15 -89 -22 -69 -12 -74 -15 -87 -45 -8 -18 -28 -53 -45 -78 -79 -118 -193 -152 -354 -106 -74 21 -131 25 -154 11 -10 -6 -11 -20 -6 -52 13 -76 19 -83 81 -103 263 -84 613 73 682 304 22 74 23 100 4 100 -9 0 -24 -4 -32 -9z"
       id="path214"
       style="fill:#990000" />
    <path
       d="M2455 5864 c-38 -13 -99 -29 -135 -35 -36 -6 -69 -15 -73 -19 -4 -4 26 -15 67 -24 l75 -18 80 48 c74 44 92 64 65 70 -5 1 -40 -9 -79 -22z"
       id="path216"
       style="fill:#00ff00" />
    <path
       d="M4090 5888 c0 -2 9 -34 19 -72 17 -66 20 -70 57 -83 72 -25 73 -30 17 -140 -27 -54 -77 -141 -111 -193 -67 -103 -67 -108 6 -109 42 -1 53 -26 21 -48 -44 -29 -124 -117 -167 -183 -82 -124 -312 -604 -312 -650 0 -14 4 -31 9 -39 14 -22 108 131 134 218 12 40 28 76 35 79 7 2 26 -8 42 -23 17 -16 33 -25 37 -22 3 4 9 68 11 142 5 151 8 155 65 105 l34 -30 6 68 c8 80 35 163 76 236 29 50 67 94 75 85 2 -2 7 -40 11 -84 3 -44 15 -124 25 -178 11 -54 22 -125 26 -158 6 -53 9 -60 32 -66 42 -10 56 8 64 80 3 37 13 98 22 135 9 38 18 107 22 153 3 46 7 90 9 97 9 28 37 8 74 -55 46 -79 76 -165 86 -246 l7 -58 34 26 c58 45 64 38 62 -72 -2 -54 1 -119 5 -144 l8 -47 29 29 c40 41 57 37 70 -13 6 -24 14 -52 17 -63 8 -30 69 -135 98 -170 21 -25 27 -28 35 -15 15 23 13 29 -29 126 -101 235 -190 415 -259 524 -46 72 -128 171 -160 192 -30 20 -46 44 -37 58 3 6 26 10 51 10 24 0 44 4 44 10 0 5 -34 64 -76 131 -42 67 -87 145 -99 173 -40 87 -37 101 19 126 47 20 53 30 72 128 6 32 6 32 -27 25 -45 -10 -204 -10 -251 0 -21 4 -38 7 -38 5z"
       id="path218"
       style="fill:#cc3300" />
    <path
       d="M5969 5859 c13 -11 53 -36 88 -55 l64 -36 69 17 c39 9 70 21 70 25 0 4 -25 11 -55 15 -30 3 -89 17 -132 31 -43 13 -89 24 -103 24 l-25 -1 24 -20z"
       id="path220"
       style="fill:#006600" />
    <path
       d="M2500 5798 c-101 -63 -98 -60 -88 -125 5 -32 11 -59 13 -62 8 -8 51 19 104 66 51 44 51 45 51 104 0 32 -3 59 -7 59 -5 0 -37 -19 -73 -42z"
       id="path222"
       style="fill:#00ff00" />
    <path
       d="M5760 5813 c0 -34 -57 -138 -104 -190 -140 -155 -387 -227 -613 -179 -35 7 -63 10 -63 6 0 -3 13 -44 28 -90 l29 -85 41 -3 c67 -5 275 26 364 54 163 52 284 145 379 292 27 42 49 80 49 85 0 9 -90 121 -101 125 -5 2 -9 -5 -9 -15z m38 -119 c41 -29 23 -84 -28 -84 -33 0 -50 17 -50 52 0 43 39 60 78 32z m-123 -168 c20 -31 6 -63 -30 -72 -42 -10 -71 29 -54 74 12 32 63 30 84 -2z m-175 -86 c24 -24 25 -43 4 -64 -18 -19 -55 -21 -72 -4 -17 17 -15 54 4 72 21 21 40 20 64 -4z m-360 -60 c15 -28 4 -59 -26 -72 -19 -9 -28 -8 -44 7 -22 20 -26 55 -8 73 20 20 66 15 78 -8z m184 4 c21 -21 20 -36 -5 -63 -25 -27 -46 -24 -71 10 -16 22 -18 30 -9 48 14 25 62 29 85 5z"
       id="path224"
       style="fill:#cc6633" />
    <path
       d="M5744 5665 c-4 -9 -2 -21 4 -27 15 -15 44 -1 40 19 -4 23 -36 29 -44 8z"
       id="path226" />
    <path
       d="M5610 5506 c0 -28 24 -41 40 -21 16 20 5 45 -20 45 -14 0 -20 -7 -20 -24z"
       id="path228" />
    <path
       d="M5450 5425 c-10 -12 -10 -18 0 -29 13 -17 36 -12 44 10 8 21 -29 37 -44 19z"
       id="path230" />
    <path
       d="M5074 5369 c-8 -14 21 -43 35 -35 19 12 13 46 -8 46 -11 0 -23 -5 -27 -11z"
       id="path232" />
    <path
       d="M5264 5365 c-4 -9 -2 -21 4 -27 15 -15 44 -1 40 19 -4 23 -36 29 -44 8z"
       id="path234" />
    <path
       d="M5925 5780 c-5 -36 -3 -55 6 -66 23 -28 138 -106 147 -100 5 3 12 29 16 57 6 41 4 55 -10 71 -21 22 -126 88 -142 88 -6 0 -13 -23 -17 -50z"
       id="path236"
       style="fill:#006600" />
    <path
       d="M2110 5805 c-16 -19 0 -19 26 0 16 12 16 14 3 15 -9 0 -22 -7 -29 -15z"
       id="path238"
       style="fill:none" />
    <path
       d="M2704 5787 c-16 -18 -39 -44 -52 -58 l-22 -25 60 -91 c132 -201 292 -292 576 -329 66 -8 140 -14 164 -12 l43 3 28 89 27 88 -31 -6 c-85 -16 -263 -18 -328 -2 -132 31 -280 120 -347 210 -31 40 -72 121 -72 140 0 28 -17 25 -46 -7z m66 -97 c23 -23 24 -33 10 -61 -12 -22 -59 -26 -78 -7 -17 17 -15 48 5 70 21 23 38 23 63 -2z m138 -152 c28 -28 2 -88 -38 -88 -11 0 -27 11 -36 25 -24 36 -6 75 34 75 15 0 33 -5 40 -12z m162 -96 c46 -37 -9 -106 -59 -75 -22 14 -25 57 -6 77 21 21 38 20 65 -2z m188 -54 c33 -33 -17 -106 -57 -81 -25 16 -37 59 -21 77 15 19 61 21 78 4z m186 -4 c19 -19 20 -35 3 -58 -17 -23 -65 -18 -83 9 -29 45 42 88 80 49z"
       id="path240"
       style="fill:#cc6633" />
    <path
       d="M2714 5665 c-4 -9 -2 -21 4 -27 15 -15 44 -1 40 19 -4 23 -36 29 -44 8z"
       id="path242" />
    <path
       d="M2850 5515 c-15 -17 -5 -35 20 -35 19 0 30 17 23 38 -6 16 -28 15 -43 -3z"
       id="path244" />
    <path
       d="M3014 5419 c-10 -17 23 -46 37 -32 7 7 9 19 6 27 -7 18 -33 21 -43 5z"
       id="path246" />
    <path
       d="M3194 5369 c-8 -14 21 -43 35 -35 19 12 13 46 -8 46 -11 0 -23 -5 -27 -11z"
       id="path248" />
    <path
       d="M3383 5364 c-3 -8 -1 -20 4 -25 14 -14 43 0 43 22 0 24 -38 26 -47 3z"
       id="path250" />
    <path
       d="M6372 5809 c2 -7 10 -15 17 -17 8 -3 12 1 9 9 -2 7 -10 15 -17 17 -8 3 -12 -1 -9 -9z"
       id="path252"
       style="fill:none" />
    <path
       d="M2124 5745 c-29 -18 -55 -38 -58 -44 -8 -12 50 -51 77 -51 9 0 59 21 110 46 l92 47 -65 18 c-86 25 -96 24 -156 -16z"
       id="path254"
       style="fill:#00ff00" />
    <path
       d="M6228 5764 c-27 -8 -48 -19 -48 -24 0 -6 42 -30 92 -54 l93 -44 37 19 c20 10 39 23 43 28 8 14 -102 82 -139 87 -17 2 -52 -3 -78 -12z"
       id="path256"
       style="fill:#006600" />
    <path
       d="M2249 5660 c-95 -48 -96 -49 -108 -96 -7 -25 -10 -49 -7 -51 7 -8 132 22 199 47 l59 22 -7 56 c-10 89 -6 88 -136 22z"
       id="path258"
       style="fill:#00ff00" />
    <path
       d="M6125 5677 c-4 -18 -5 -49 -3 -68 3 -33 5 -35 83 -60 44 -15 100 -30 124 -34 l44 -7 -7 42 c-4 24 -9 47 -12 52 -7 10 -199 108 -213 108 -6 0 -13 -15 -16 -33z"
       id="path260"
       style="fill:#006600" />
    <path
       d="M1932 5622 c-43 -27 -67 -48 -58 -50 17 -4 182 35 205 48 11 6 7 13 -20 29 -19 11 -38 21 -44 21 -5 0 -43 -22 -83 -48z"
       id="path262"
       style="fill:#00ff00" />
    <path
       d="M2556 5639 c-44 -38 -53 -67 -31 -108 18 -35 24 -34 85 18 l34 29 -19 41 c-10 23 -22 44 -26 47 -4 2 -24 -10 -43 -27z"
       id="path264"
       style="fill:#66ffff" />
    <path
       d="M5883 5626 l-22 -44 27 -24 c71 -63 69 -62 85 -36 33 51 31 65 -15 108 -24 22 -45 40 -49 40 -3 0 -15 -20 -26 -44z"
       id="path266"
       style="fill:#66ffff" />
    <path
       d="M6448 5652 c-16 -9 -28 -20 -28 -24 0 -7 70 -29 150 -47 56 -13 73 -14 66 -2 -8 12 -140 91 -152 91 -5 0 -21 -8 -36 -18z"
       id="path268"
       style="fill:#006600" />
    <path
       d="M1986 5562 c-85 -21 -96 -26 -75 -34 13 -5 60 -12 105 -15 l81 -6 6 33 c12 59 23 57 -117 22z"
       id="path270"
       style="fill:#00ff00" />
    <path
       d="M6398 5563 c9 -51 19 -56 104 -49 43 4 88 10 100 15 19 7 14 10 -37 20 -33 7 -80 19 -104 27 -63 20 -69 18 -63 -13z"
       id="path272"
       style="fill:#006600" />
    <path
       d="M2388 5534 c-27 -13 -48 -30 -48 -37 0 -7 17 -41 37 -76 57 -95 140 -147 266 -166 26 -4 50 -12 53 -17 12 -19 -20 -70 -64 -104 l-45 -34 35 -14 c18 -8 85 -25 148 -38 74 -16 117 -30 124 -40 14 -24 -8 -62 -50 -84 -32 -18 -44 -34 -25 -34 16 0 250 -160 266 -182 15 -22 14 -24 -6 -40 -13 -12 -38 -18 -68 -18 -25 0 -56 -3 -68 -6 -22 -6 -22 -7 16 -78 90 -164 119 -348 92 -565 -18 -138 -29 -134 -122 44 -79 152 -160 296 -190 338 -28 39 -28 39 -34 14 -4 -14 -16 -34 -27 -44 -20 -18 -21 -17 -48 16 -38 45 -145 243 -173 319 -24 68 -37 79 -37 32 0 -64 -45 -19 -95 93 -14 32 -37 102 -51 155 -22 85 -25 117 -24 257 0 88 -3 181 -6 207 l-7 47 -61 -6 c-33 -3 -65 -9 -70 -14 -14 -12 17 -186 53 -299 118 -378 244 -625 427 -841 74 -88 520 -551 535 -557 5 -2 4 9 -3 25 -8 19 -12 102 -12 263 0 257 4 285 75 490 35 98 33 133 -7 220 -61 131 -143 223 -400 448 -189 165 -254 234 -286 302 -13 27 -30 49 -38 49 -8 0 -36 -11 -62 -25z"
       id="path274"
       style="fill:#993366" />
    <path
       d="M5818 5532 c-9 -15 -33 -44 -54 -65 l-37 -38 38 -39 c22 -22 44 -40 50 -40 6 0 37 27 70 61 58 58 59 61 40 75 -22 16 -51 39 -75 60 -14 12 -18 10 -32 -14z"
       id="path276"
       style="fill:#33ccff" />
    <path
       d="M6034 5533 c-21 -55 -106 -153 -216 -250 -342 -302 -416 -380 -475 -502 -53 -109 -53 -132 0 -301 25 -80 50 -179 55 -220 12 -84 7 -381 -7 -450 -5 -25 -8 -46 -7 -48 3 -3 353 353 455 463 216 233 373 510 485 860 50 156 93 363 78 376 -4 4 -36 9 -72 12 l-65 6 0 -187 c-1 -169 -3 -197 -28 -295 -40 -159 -106 -307 -137 -307 -4 0 -12 17 -17 38 l-9 37 -19 -55 c-46 -139 -188 -377 -218 -367 -7 2 -19 17 -27 33 -8 16 -16 31 -18 33 -8 13 -84 -113 -188 -315 -44 -83 -87 -162 -96 -175 -17 -23 -18 -23 -32 -6 -21 27 -29 121 -24 288 5 161 17 207 92 354 22 44 42 83 44 86 2 4 -33 8 -76 10 -48 3 -86 9 -96 18 -16 13 -15 16 11 43 31 33 145 112 220 154 53 29 66 44 39 44 -25 0 -76 56 -76 83 0 30 -2 29 140 58 58 11 120 27 139 35 l34 14 -45 30 c-45 30 -75 77 -65 103 3 7 35 19 72 26 124 22 204 81 260 190 14 28 25 53 25 56 0 5 -107 55 -119 55 -4 0 -11 -12 -17 -27z"
       id="path278"
       style="fill:#993366" />
    <path
       d="M2611 5510 l-44 -38 32 -38 c35 -39 85 -84 95 -84 11 0 76 63 76 74 0 13 -98 126 -108 126 -4 -1 -27 -18 -51 -40z"
       id="path280"
       style="fill:#33ccff" />
    <path
       d="M4914 5280 c3 -124 7 -234 9 -245 12 -51 22 -248 22 -420 0 -189 0 -190 -33 -285 -18 -52 -44 -113 -57 -136 -28 -48 -144 -163 -297 -293 -187 -160 -290 -293 -274 -356 11 -45 176 -143 311 -185 84 -27 248 -37 322 -22 177 38 329 189 397 394 37 109 52 291 38 442 -19 193 -56 317 -230 751 -106 265 -138 351 -179 480 -13 44 -26 85 -29 90 -2 6 -2 -91 0 -215z m325 -1268 c12 -23 -1 -45 -25 -40 -23 4 -31 37 -12 49 19 13 26 11 37 -9z m-181 -239 c13 -26 4 -43 -23 -43 -13 0 -25 6 -28 13 -6 17 11 47 28 47 8 0 18 -8 23 -17z m186 -40 c9 -21 -16 -46 -37 -37 -9 3 -17 17 -17 30 0 19 5 24 24 24 13 0 27 -8 30 -17z m-416 -85 c22 -22 14 -48 -13 -48 -30 0 -43 24 -25 45 15 18 22 19 38 3z m-254 -101 c16 -25 -16 -56 -38 -37 -19 15 -20 32 -4 48 15 15 28 11 42 -11z m456 -12 c17 -20 5 -45 -20 -45 -11 0 -23 7 -26 15 -6 15 11 45 26 45 4 0 13 -7 20 -15z m-292 -118 c3 -23 0 -27 -22 -27 -21 0 -26 5 -26 23 0 13 3 27 7 31 15 14 38 0 41 -27z"
       id="path282"
       style="fill:#cc6600" />
    <path
       d="M3538 5335 c-26 -80 -93 -258 -149 -397 -196 -489 -227 -598 -236 -813 -14 -354 75 -590 272 -717 96 -63 175 -82 314 -75 93 4 131 10 191 32 100 37 214 100 262 145 l39 38 -20 51 c-33 88 -91 152 -332 363 -208 182 -233 213 -287 362 -25 68 -26 81 -28 301 -1 129 4 278 11 340 10 95 21 515 13 515 -2 0 -24 -66 -50 -145z m-228 -1340 c0 -18 -5 -25 -19 -25 -11 0 -23 5 -26 10 -11 18 3 40 25 40 15 0 20 -7 20 -25z m188 -238 c3 -23 0 -27 -21 -27 -29 0 -43 26 -26 47 18 21 44 11 47 -20z m-190 -35 c3 -16 -2 -22 -17 -22 -24 0 -35 15 -27 36 9 23 40 13 44 -14z m413 -83 c9 -17 8 -25 -4 -37 -29 -28 -73 12 -47 43 17 21 37 19 51 -6z m258 -86 c11 -21 -3 -53 -24 -53 -21 0 -35 31 -24 52 12 23 35 23 48 1z m-459 -18 c17 -21 5 -45 -24 -45 -27 0 -42 26 -25 46 15 18 33 18 49 -1z m295 -105 c8 -26 -1 -40 -26 -40 -22 0 -34 22 -25 45 8 22 44 18 51 -5z"
       id="path284"
       style="fill:#cc6600" />
    <path
       d="M2314 5414 c4 -9 11 -37 18 -63 12 -48 55 -149 100 -236 14 -28 119 -190 233 -360 194 -290 289 -456 326 -570 23 -71 31 -64 24 20 -15 179 -55 288 -160 443 -14 20 -25 40 -25 44 0 5 46 5 102 1 76 -5 99 -3 94 5 -12 20 -116 87 -227 147 -57 31 -108 61 -114 66 -13 13 12 29 46 29 36 0 122 31 112 40 -4 5 -46 16 -93 25 -94 19 -195 57 -224 85 -18 17 -17 19 35 52 30 19 60 42 67 50 11 14 9 17 -20 23 -118 23 -207 80 -261 166 -30 49 -45 63 -33 33z"
       id="path286"
       style="fill:#ff3366" />
    <path
       d="M6168 5397 c-44 -81 -150 -157 -248 -176 -72 -14 -70 -22 17 -74 29 -17 53 -38 53 -45 0 -21 -126 -72 -233 -95 -53 -11 -96 -25 -94 -31 4 -13 65 -34 103 -35 16 -1 39 -7 49 -15 18 -13 17 -15 -16 -31 -202 -105 -276 -150 -310 -191 -13 -16 -7 -17 84 -10 53 4 97 3 97 -1 0 -5 -24 -49 -53 -98 -29 -50 -66 -121 -81 -159 -27 -69 -50 -206 -44 -268 3 -31 4 -29 27 32 44 123 116 246 326 560 213 318 286 448 325 579 23 74 22 102 -2 58z"
       id="path288"
       style="fill:#ff3366" />
    <path
       d="M2760 5364 c-22 -20 -40 -40 -40 -44 0 -10 134 -120 147 -120 13 0 79 65 93 90 9 17 4 23 -37 44 -27 14 -61 34 -78 45 -16 12 -33 21 -37 21 -5 0 -26 -16 -48 -36z"
       id="path290"
       style="fill:#66ccff" />
    <path
       d="M5660 5379 c-14 -12 -46 -32 -72 -45 -27 -13 -48 -28 -48 -33 0 -15 81 -101 96 -101 7 0 44 25 81 57 38 31 70 58 72 59 6 5 -82 83 -94 83 -5 0 -21 -9 -35 -20z"
       id="path292"
       style="fill:#66ccff" />
    <path
       d="M6206 5299 c-3 -18 -30 -82 -60 -144 -49 -100 -102 -184 -384 -600 -85 -126 -191 -337 -221 -439 -24 -82 -17 -77 35 24 100 196 212 360 244 360 17 0 20 -7 20 -47 0 -44 1 -45 18 -30 26 24 108 182 157 306 44 109 63 129 87 92 7 -12 16 -21 20 -21 27 0 86 239 93 375 4 61 8 120 11 133 2 12 0 22 -5 22 -4 0 -11 -14 -15 -31z"
       id="path294"
       style="fill:#ff3366" />
    <path
       d="M2293 5180 c5 -140 26 -241 69 -343 l21 -48 19 31 c10 17 24 30 31 28 7 -3 27 -42 45 -89 64 -166 165 -359 180 -344 3 3 7 22 9 42 1 19 5 38 7 41 23 22 105 -84 207 -271 45 -81 86 -150 92 -154 7 -4 8 0 2 13 -4 10 -16 44 -25 74 -41 126 -116 260 -269 485 -257 377 -295 440 -358 590 l-34 80 4 -135z"
       id="path296"
       style="fill:#ff3366" />
    <path
       d="M2950 5228 l-55 -61 81 -78 c44 -44 85 -79 91 -79 22 0 154 212 141 226 -4 4 -190 54 -198 54 -3 -1 -30 -28 -60 -62z"
       id="path298"
       style="fill:#6666ff" />
    <path
       d="M5391 5264 c-46 -12 -86 -25 -89 -29 -14 -14 110 -225 132 -225 6 1 49 36 96 79 l84 78 -52 54 c-29 29 -52 57 -52 61 0 12 -26 8 -119 -18z"
       id="path300"
       style="fill:#6666ff" />
    <path
       d="M3225 5188 c-20 -51 -68 -130 -107 -176 l-29 -34 38 -46 c21 -26 56 -84 79 -130 l41 -83 23 53 c105 247 179 441 174 450 -3 5 -49 8 -104 8 l-98 0 -17 -42z"
       id="path302"
       style="fill:#6633ff" />
    <path
       d="M5066 5221 c-8 -12 4 -45 93 -264 109 -266 98 -251 125 -186 24 60 84 155 115 183 20 18 19 19 -19 67 -22 28 -56 85 -77 129 l-38 79 -97 0 c-53 1 -99 -3 -102 -8z"
       id="path304"
       style="fill:#6633ff" />
    <path
       d="M4056 5005 c-12 -40 -20 -104 -23 -192 -4 -98 -9 -133 -18 -133 -7 0 -18 15 -25 33 -25 67 -43 107 -47 103 -4 -3 -6 -20 -18 -147 -9 -99 -28 -153 -53 -157 -16 -3 -23 3 -28 25 -11 53 -15 63 -24 63 -5 0 -12 -15 -15 -32 -10 -45 -47 -116 -89 -172 l-36 -46 42 6 c118 18 246 99 308 196 55 85 63 131 53 338 l-8 175 -19 -60z"
       id="path306"
       style="fill:#66ffff" />
    <path
       d="M4420 4856 l0 -204 36 -64 c19 -34 50 -78 67 -96 63 -66 169 -121 259 -135 l37 -6 -33 47 c-19 26 -47 78 -64 117 -17 38 -35 71 -40 73 -5 1 -14 -16 -21 -38 -29 -98 -82 6 -82 162 0 39 -4 80 -8 92 -8 19 -11 17 -29 -24 -12 -25 -23 -57 -27 -72 -3 -16 -12 -28 -20 -28 -8 0 -15 1 -16 3 0 1 -4 70 -9 152 -5 101 -13 162 -24 188 -9 20 -18 37 -21 37 -3 0 -5 -92 -5 -204z"
       id="path308"
       style="fill:#66ffff" />
    <path
       d="M4125 4890 c14 -195 10 -233 -29 -316 -57 -121 -115 -169 -306 -252 -21 -9 -16 -11 40 -11 61 -1 141 12 239 39 41 11 42 12 26 30 -9 10 -27 21 -41 24 -37 10 -29 32 24 70 73 53 135 138 143 196 4 22 0 26 -31 30 l-35 5 3 65 c3 63 -19 204 -33 218 -4 4 -4 -40 0 -98z"
       id="path310"
       style="fill:#66ffff" />
    <path
       d="M4370 4983 c0 -5 -7 -51 -15 -103 -8 -52 -12 -114 -9 -137 l6 -43 -36 0 c-44 0 -46 -11 -10 -86 18 -37 48 -75 100 -121 41 -37 74 -70 74 -74 0 -3 -18 -13 -40 -22 -22 -8 -40 -20 -40 -25 0 -23 181 -62 278 -61 l67 0 -62 23 c-130 48 -221 129 -277 246 l-31 65 3 173 c1 94 0 172 -3 172 -3 0 -5 -3 -5 -7z"
       id="path312"
       style="fill:#66ffff" />
    <path
       d="M4236 4582 c-9 -17 -41 -58 -72 -92 -49 -52 -55 -62 -42 -73 18 -14 30 -59 22 -80 -3 -8 -24 -20 -47 -26 -82 -21 -179 -41 -203 -41 -13 0 -24 -4 -24 -8 0 -16 264 -52 380 -52 110 0 365 33 383 50 4 4 -16 10 -45 13 -70 9 -207 44 -224 58 -20 16 -17 42 7 73 l21 27 -41 44 c-23 25 -55 66 -71 91 l-29 46 -15 -30z"
       id="path314"
       style="fill:#cc3300" />
    <path
       d="M3671 4238 c7 -12 44 -56 83 -98 l71 -75 66 -6 c46 -3 75 -12 98 -29 36 -25 70 -89 71 -130 0 -17 26 -57 81 -120 44 -52 87 -108 95 -123 l15 -28 39 59 c22 32 64 85 95 116 30 32 55 64 55 72 0 7 9 38 21 69 29 79 80 115 160 115 57 0 58 1 110 55 28 30 65 73 81 95 29 39 29 40 8 40 -12 0 -69 -11 -128 -25 -336 -77 -575 -74 -920 10 -57 14 -105 25 -108 25 -3 0 1 -10 7 -22z"
       id="path316"
       style="fill:#cc3300" />
    <path
       d="M3890 4021 c0 -12 110 -105 117 -98 5 5 -34 77 -42 77 -1 0 -19 7 -39 15 -20 8 -36 11 -36 6z"
       id="path318"
       style="fill:#993300" />
    <path
       d="M4555 4001 c-27 -17 -75 -81 -60 -81 7 0 125 91 125 96 0 11 -39 2 -65 -15z"
       id="path320"
       style="fill:#993300" />
    <path
       d="M4195 3434 c-64 -45 -204 -117 -283 -143 -43 -15 -87 -21 -149 -21 -95 0 -163 -8 -163 -20 0 -17 127 -133 179 -163 246 -145 731 -142 962 6 54 35 143 116 159 148 8 14 -6 17 -116 22 -175 9 -312 58 -461 163 -34 24 -65 44 -70 44 -4 0 -31 -16 -58 -36z m109 -83 c16 -24 31 -62 33 -85 l5 -43 60 24 c34 14 83 25 116 26 l57 2 3 -37 c3 -36 4 -37 35 -30 41 9 134 9 170 -1 60 -16 13 -59 -132 -121 -135 -58 -196 -69 -396 -70 -167 -1 -187 1 -277 26 -103 29 -228 86 -265 120 -41 38 -21 48 98 48 106 0 109 1 109 23 0 43 13 51 76 43 31 -4 77 -15 102 -26 55 -24 62 -25 62 -2 1 25 38 104 63 130 29 31 46 25 81 -27z"
       id="path322"
       style="fill:#cc9966" />
    <path
       d="M4230 3314 c-25 -40 -29 -73 -16 -141 11 -53 -1 -55 -57 -11 -44 35 -161 80 -184 71 -8 -3 -12 -12 -8 -22 4 -9 9 -31 12 -48 5 -28 3 -33 -13 -33 -11 0 -29 6 -40 14 -28 20 -102 38 -125 31 -18 -6 -17 -9 13 -25 106 -57 298 -100 443 -100 137 0 309 38 428 96 29 14 34 20 23 26 -18 10 -102 -9 -131 -29 -29 -19 -57 -17 -52 5 11 38 18 92 12 92 -4 0 -39 -10 -78 -21 -45 -14 -83 -34 -107 -55 -50 -45 -72 -45 -62 -1 13 60 8 121 -14 156 l-21 33 -23 -38z"
       id="path324"
       style="fill:#cc9999" />
    <path
       d="M2208 4072 c-123 -362 -145 -460 -153 -672 -7 -198 47 -475 121 -621 46 -93 145 -194 229 -236 61 -30 146 -56 220 -67 l40 -6 -25 17 c-234 165 -353 301 -411 470 -27 81 -26 103 9 103 27 0 50 -12 111 -58 l31 -23 0 30 c0 42 -42 171 -105 320 -66 156 -87 228 -83 283 3 38 6 43 26 40 13 -1 44 -16 68 -34 24 -17 47 -28 51 -24 16 16 8 437 -11 556 -31 203 -21 210 -118 -78z"
       id="path326"
       style="fill:#6699ff" />
    <path
       d="M2162 4192 c-35 -48 -90 -121 -122 -162 -145 -182 -212 -274 -202 -278 6 -2 32 6 58 17 47 21 84 27 84 13 0 -4 -25 -41 -57 -82 -102 -135 -156 -297 -139 -412 l7 -47 42 51 c81 98 99 92 68 -22 -34 -126 -37 -189 -12 -319 12 -63 28 -128 35 -144 l12 -31 22 37 c12 20 28 37 35 37 8 0 29 -34 47 -77 43 -99 89 -170 143 -221 50 -45 121 -89 169 -103 61 -18 164 -28 193 -20 29 8 28 8 -21 19 -72 16 -153 53 -216 100 -133 99 -195 208 -255 447 l-36 140 1 230 c1 220 2 235 31 350 28 113 102 346 157 494 14 35 23 65 21 67 -2 2 -31 -36 -65 -84z"
       id="path328"
       style="fill:#6699ff" />
    <path
       d="M6206 4309 c-3 -8 -12 -59 -21 -114 -29 -176 -38 -446 -19 -572 6 -37 18 -36 75 9 92 73 100 -38 18 -233 -103 -246 -151 -390 -135 -406 3 -4 27 8 53 26 49 35 106 50 117 32 8 -13 -19 -112 -47 -166 -67 -135 -192 -271 -327 -356 -38 -24 -69 -48 -70 -52 0 -9 50 -2 135 20 147 38 276 145 345 286 133 273 155 674 56 1012 -54 185 -175 530 -180 514z"
       id="path330"
       style="fill:#6699ff" />
    <path
       d="M6346 4071 c114 -327 141 -451 149 -676 7 -205 -44 -472 -120 -631 -42 -86 -140 -195 -221 -244 -32 -19 -94 -47 -137 -61 -93 -30 -79 -43 31 -28 98 14 131 25 197 64 101 60 175 160 230 308 22 58 44 61 69 11 22 -48 32 -38 59 67 31 122 31 309 -1 397 -37 103 -7 113 65 22 l48 -60 3 74 c5 140 -37 256 -143 395 -62 82 -62 105 1 73 22 -11 54 -23 73 -27 l33 -7 -57 78 c-32 44 -84 111 -115 149 -90 112 -185 237 -205 273 -11 17 -22 32 -25 32 -4 0 26 -94 66 -209z"
       id="path332"
       style="fill:#6699ff" />
    <path
       d="M2515 4085 c20 -44 41 -89 45 -101 18 -45 177 -325 258 -453 158 -251 338 -504 493 -696 134 -166 193 -262 233 -375 80 -230 47 -449 -84 -568 -73 -67 -200 -100 -310 -83 -35 6 -65 9 -67 7 -11 -11 103 -38 178 -43 182 -12 334 78 416 245 25 51 28 70 31 178 3 109 1 128 -23 200 -34 102 -92 220 -160 324 -30 46 -52 87 -49 92 9 14 42 9 100 -17 31 -14 61 -25 65 -25 15 0 -39 99 -91 170 -59 80 -235 252 -352 344 -76 60 -109 98 -96 111 2 2 33 -5 68 -16 35 -11 73 -19 84 -17 31 5 -47 90 -265 293 -217 200 -404 385 -468 460 l-42 50 36 -80z"
       id="path334"
       style="fill:#ff99ff" />
    <path
       d="M2453 4065 c4 -16 18 -113 32 -215 79 -569 122 -766 215 -974 25 -56 34 -50 45 29 3 28 10 54 14 58 10 10 79 -67 132 -148 21 -33 53 -96 70 -140 30 -76 69 -248 69 -300 0 -35 13 -31 46 13 27 35 29 42 28 130 -1 50 2 92 6 92 5 0 29 -24 56 -52 55 -62 108 -167 125 -246 15 -76 7 -196 -19 -254 -28 -64 -97 -137 -152 -160 -42 -18 -43 -20 -25 -31 12 -7 59 -12 115 -12 75 1 105 5 141 22 70 31 122 85 155 155 37 83 46 234 19 337 -28 104 -90 227 -165 326 -38 49 -108 142 -157 205 -276 359 -520 736 -670 1035 -41 83 -77 152 -80 155 -3 3 -3 -8 0 -25z"
       id="path336"
       style="fill:#ff99ff" />
    <path
       d="M5963 4093 c-88 -101 -193 -205 -383 -380 -185 -170 -340 -327 -340 -344 0 -13 19 -11 76 6 56 17 94 19 94 6 0 -6 -69 -68 -154 -140 -163 -138 -255 -232 -316 -321 -44 -64 -83 -140 -77 -147 3 -2 33 7 68 21 64 26 99 33 99 18 0 -5 -25 -49 -55 -98 -75 -120 -141 -256 -162 -334 -12 -44 -18 -101 -18 -175 0 -106 1 -113 37 -187 73 -152 196 -238 356 -246 60 -3 102 0 148 13 81 22 91 35 17 23 -125 -20 -256 23 -333 110 -72 81 -100 164 -100 296 0 199 61 346 237 572 286 367 495 670 655 950 74 128 214 414 204 414 -2 0 -26 -26 -53 -57z"
       id="path338"
       style="fill:#ff99ff" />
    <path
       d="M5969 3932 c-163 -323 -394 -682 -679 -1050 -189 -245 -212 -278 -245 -342 -59 -116 -80 -202 -79 -320 0 -84 4 -116 22 -161 30 -76 90 -142 160 -176 50 -25 68 -28 152 -28 56 0 103 5 115 12 16 10 16 12 4 13 -26 0 -123 75 -153 118 -101 147 -67 409 73 561 58 63 66 57 66 -52 0 -88 2 -96 29 -132 29 -38 30 -38 37 -14 3 13 12 60 19 104 23 155 60 253 145 380 61 91 101 133 114 119 9 -9 20 -69 21 -114 1 -97 119 220 164 440 24 121 126 800 121 807 -1 2 -39 -73 -86 -165z"
       id="path340"
       style="fill:#ff99ff" />
    <path
       d="M3647 3008 c112 -145 223 -332 223 -375 0 -26 -27 -31 -62 -12 -28 15 -31 8 -13 -34 8 -20 25 -72 38 -117 l23 -80 33 50 c18 27 53 75 78 106 l46 56 -42 -7 c-56 -9 -62 11 -22 72 29 43 41 93 24 93 -5 0 -17 -7 -27 -15 -33 -25 -44 -17 -60 38 -22 76 -63 127 -151 186 -75 50 -108 64 -88 39z"
       id="path342"
       style="fill:#6666cc" />
    <path
       d="M4778 2974 c-91 -61 -143 -122 -159 -186 -8 -28 -19 -52 -26 -55 -7 -3 -26 5 -43 17 l-30 21 0 -21 c0 -23 22 -70 53 -112 26 -35 14 -52 -34 -45 -22 3 -39 3 -39 0 0 -2 20 -29 45 -60 25 -31 57 -76 72 -100 14 -24 27 -42 29 -40 3 2 14 37 25 78 11 41 26 91 35 113 8 21 13 41 10 43 -2 2 -18 -3 -35 -12 -91 -46 -52 71 88 270 113 161 113 159 9 89z"
       id="path344"
       style="fill:#6666cc" />
    <path
       d="M4215 2717 c-21 -40 -81 -139 -133 -222 -204 -323 -249 -404 -293 -525 -20 -55 -23 -84 -24 -190 0 -124 0 -125 38 -204 49 -103 135 -189 242 -242 70 -34 87 -39 173 -42 54 -3 119 1 151 8 132 28 263 135 328 266 l38 78 0 140 c0 125 -3 148 -24 201 -56 140 -112 239 -279 495 -42 63 -99 159 -127 212 l-51 97 -39 -72z m63 -129 c67 -132 81 -262 38 -353 -13 -27 -33 -59 -46 -70 l-22 -20 -23 27 c-13 15 -33 53 -45 85 -26 69 -23 142 9 243 19 58 54 130 64 130 2 0 14 -19 25 -42z m-210 -379 c45 -15 67 -54 63 -112 -2 -34 -56 -77 -95 -77 -54 0 -101 45 -101 98 0 42 23 77 60 93 28 11 37 11 73 -2z m447 -3 c64 -27 76 -103 24 -155 -41 -41 -86 -42 -131 -2 -27 24 -33 36 -33 69 0 42 23 77 60 93 29 11 42 11 80 -5z m-160 -195 c108 -51 168 -181 136 -298 -15 -55 -74 -125 -131 -154 -56 -29 -167 -32 -216 -6 -93 49 -144 131 -144 232 1 102 52 182 145 226 54 25 156 25 210 0z m-442 -92 c14 -6 30 -22 36 -36 39 -86 -38 -170 -118 -129 -37 20 -51 44 -51 88 1 68 68 107 133 77z m763 -7 c50 -40 56 -88 17 -132 -42 -45 -83 -49 -124 -12 -28 25 -34 37 -34 72 0 34 6 47 28 66 33 28 83 31 113 6z m-626 -359 c41 -52 6 -123 -61 -123 -65 0 -101 74 -63 128 24 34 95 31 124 -5z m525 -3 c21 -41 19 -67 -10 -95 -50 -51 -135 -17 -135 54 0 49 25 71 80 71 45 0 51 -3 65 -30z m-267 -93 c6 -7 15 -25 21 -40 15 -38 -27 -87 -74 -87 -59 0 -88 77 -45 120 23 23 82 27 98 7z"
       id="path346"
       style="fill:#cc33cc" />
    <path
       d="M4238 2538 c-28 -42 -42 -103 -42 -178 -1 -63 3 -80 22 -107 13 -18 29 -33 37 -33 24 0 58 88 58 149 -1 56 -24 140 -48 174 -12 17 -13 16 -27 -5z"
       id="path348"
       style="fill:#ff9900" />
    <path
       d="M3981 2164 c-12 -15 -21 -34 -21 -44 0 -10 9 -29 21 -44 51 -65 152 0 114 73 -25 49 -82 56 -114 15z"
       id="path350"
       style="fill:#ff9900" />
    <path
       d="M4425 2165 c-46 -45 -19 -115 45 -115 17 0 39 9 50 20 41 41 12 120 -45 120 -14 0 -37 -11 -50 -25z"
       id="path352"
       style="fill:#ff9900" />
    <path
       d="M4149 1975 c-147 -77 -159 -268 -23 -372 32 -24 48 -28 113 -31 91 -4 129 13 178 77 65 84 68 173 9 258 -63 91 -178 120 -277 68z"
       id="path354"
       style="fill:#ff9900" />
    <path
       d="M3847 1899 c-9 -5 -24 -23 -32 -39 -15 -28 -14 -31 13 -61 23 -26 33 -31 55 -25 15 3 34 18 43 31 14 21 14 30 5 54 -7 16 -24 33 -37 40 -29 13 -25 13 -47 0z"
       id="path356"
       style="fill:#ff9900" />
    <path
       d="M4604 1898 c-12 -5 -28 -21 -35 -35 -11 -21 -11 -29 1 -50 24 -43 44 -50 84 -30 31 14 36 22 36 51 0 25 -7 40 -26 55 -30 24 -31 24 -60 9z"
       id="path358"
       style="fill:#ff9900" />
    <path
       d="M3958 1549 c-26 -15 -23 -64 4 -83 29 -20 34 -20 58 4 48 48 -4 113 -62 79z"
       id="path360"
       style="fill:#ff9900" />
    <path
       d="M4477 1542 c-24 -26 -21 -59 7 -77 19 -13 29 -14 45 -5 32 16 45 48 29 68 -29 38 -56 42 -81 14z"
       id="path362"
       style="fill:#ff9900" />
    <path
       d="M4232 1427 c-28 -30 -28 -43 2 -62 48 -32 94 20 55 62 -28 29 -30 29 -57 0z"
       id="path364"
       style="fill:#ff9900" />
    <path
       d="M5488 1630 c-68 -72 -145 -146 -173 -164 -51 -35 -122 -63 -132 -52 -3 3 4 36 16 74 13 38 21 82 19 98 l-3 29 -74 -68 c-77 -71 -152 -114 -234 -137 -67 -18 -76 -6 -49 62 46 116 44 119 -48 40 -45 -40 -123 -95 -173 -124 -51 -28 -102 -59 -114 -69 l-23 -17 23 -5 c74 -19 215 -29 317 -24 331 18 568 146 732 396 44 67 55 91 44 91 -3 0 -60 -59 -128 -130z"
       id="path366"
       style="fill:#66ff00" />
    <path
       d="M2893 1739 c28 -80 187 -257 292 -324 183 -116 441 -167 690 -136 145 19 147 21 75 61 -104 59 -233 147 -285 194 -27 25 -51 44 -53 42 -2 -2 10 -39 27 -82 17 -43 27 -82 22 -87 -13 -13 -129 21 -187 54 -28 15 -81 56 -117 90 l-67 61 0 -44 c1 -23 7 -61 15 -83 23 -63 20 -78 -12 -70 -59 14 -123 63 -262 199 -79 78 -141 134 -138 125z"
       id="path368"
       style="fill:#66ff00" />
    <path
       d="M5541 1547 c-67 -79 -179 -170 -250 -207 -170 -85 -343 -117 -598 -108 -73 3 -133 3 -133 2 0 -10 322 -156 383 -174 52 -16 20 28 -56 76 -39 26 -41 44 -5 44 12 0 56 -9 97 -21 64 -18 94 -21 206 -16 121 4 195 18 195 37 0 4 -24 13 -52 20 -83 19 -88 21 -88 35 0 8 18 19 42 26 104 28 173 79 232 173 34 52 89 167 83 172 -1 2 -27 -25 -56 -59z"
       id="path370"
       style="fill:#66ff00" />
    <path
       d="M2910 1598 c0 -21 65 -143 102 -194 52 -70 118 -117 194 -139 85 -25 80 -43 -18 -64 -32 -7 -60 -16 -63 -21 -3 -5 18 -16 47 -25 70 -20 265 -20 338 0 76 22 140 30 140 18 0 -5 -28 -32 -62 -59 -71 -55 -63 -67 25 -38 60 19 230 105 267 134 l25 20 -155 0 c-89 0 -195 7 -247 15 -205 33 -380 127 -522 282 -39 42 -71 74 -71 71z"
       id="path372"
       style="fill:#66ff00" />
    <path
       d="M3998 1226 c-150 -80 -161 -92 -70 -81 31 4 65 14 76 23 31 28 78 92 68 92 -6 0 -39 -15 -74 -34z"
       id="path374"
       style="fill:#669900" />
    <path
       d="M4408 1234 c48 -65 59 -74 92 -84 19 -5 51 -10 70 -10 l35 0 -25 20 c-33 26 -139 86 -169 95 l-24 7 21 -28z"
       id="path376"
       style="fill:#669900" />
    <path
       d="M4169 1225 c-24 -27 -94 -174 -86 -181 7 -7 124 92 137 115 5 11 10 36 10 55 0 29 -4 36 -20 36 -11 0 -30 -11 -41 -25z"
       id="path378"
       style="fill:#669900" />
    <path
       d="M4267 1244 c-4 -4 -7 -26 -7 -50 0 -39 5 -46 52 -88 54 -47 74 -57 65 -32 -3 8 -11 32 -16 53 -23 80 -71 140 -94 117z"
       id="path380"
       style="fill:#669900" />
    <path
       d="M4380 1208 c0 -4 6 -25 14 -45 8 -21 17 -51 21 -68 7 -29 8 -29 17 -8 6 12 8 32 4 45 -6 23 -55 90 -56 76z"
       id="path382"
       style="fill:#669900" />
    <path
       d="M4048 1165 c-23 -33 -28 -85 -8 -85 6 0 50 102 50 116 0 14 -20 -1 -42 -31z"
       id="path384"
       style="fill:#669900" />
    <path
       d="M3873 1110 c-23 -5 -51 -14 -62 -20 -20 -10 -71 -71 -71 -84 0 -11 111 4 145 20 25 12 75 71 75 89 0 7 -36 5 -87 -5z"
       id="path386"
       style="fill:#669900" />
    <path
       d="M4506 1112 c-9 -15 71 -90 101 -95 63 -12 123 -18 123 -12 0 15 -55 77 -79 89 -32 16 -138 29 -145 18z"
       id="path388"
       style="fill:#669900" />
    <path
       d="M4145 1044 c-37 -31 -71 -67 -76 -81 -11 -30 -12 -113 -1 -113 5 0 40 26 78 58 l69 58 3 67 c1 37 0 67 -2 67 -3 0 -35 -25 -71 -56z"
       id="path390"
       style="fill:#009900" />
    <path
       d="M4248 1035 c-3 -73 -10 -62 110 -170 l32 -29 -1 85 0 84 -54 43 c-82 64 -83 64 -87 -13z"
       id="path392"
       style="fill:#009900" />
    <path
       d="M3974 1068 c-55 -60 -57 -70 -29 -134 l26 -59 25 40 c31 52 34 91 10 148 l-11 29 -21 -24z"
       id="path394"
       style="fill:#669900" />
    <path
       d="M4456 1050 c-9 -22 -16 -48 -16 -58 0 -20 42 -112 51 -112 3 0 17 26 31 58 l24 57 -28 40 c-43 59 -44 60 -62 15z"
       id="path396"
       style="fill:#669900" />
    <path
       d="M3744 973 c-29 -4 -34 -10 -54 -64 -13 -33 -20 -62 -17 -65 12 -13 133 54 160 89 15 19 27 38 27 41 0 6 -63 6 -116 -1z"
       id="path398"
       style="fill:#66ff33" />
    <path
       d="M4610 973 c0 -23 68 -87 122 -114 33 -17 62 -28 65 -25 7 6 -24 99 -40 119 -13 17 -147 36 -147 20z"
       id="path400"
       style="fill:#00cc00" />
    <path
       d="M3860 915 c-29 -42 -31 -50 -25 -98 11 -80 15 -83 65 -32 l44 45 -12 46 c-7 26 -19 55 -26 66 -13 19 -16 17 -46 -27z"
       id="path402"
       style="fill:#66ff33" />
    <path
       d="M4544 905 c-13 -31 -24 -59 -24 -63 0 -4 21 -29 47 -55 52 -54 57 -52 66 32 6 49 4 57 -25 97 -17 24 -33 44 -35 44 -2 0 -15 -25 -29 -55z"
       id="path404"
       style="fill:#00cc00" />
    <path
       d="M4137 859 c-43 -39 -57 -57 -57 -78 0 -34 28 -131 38 -131 4 0 26 29 49 64 36 55 42 71 42 118 0 30 -4 59 -7 65 -5 8 -28 -6 -65 -38z"
       id="path406"
       style="fill:#009900" />
    <path
       d="M4241 847 c-2 -62 0 -66 44 -125 26 -34 50 -62 55 -62 8 0 45 138 39 144 -80 70 -124 106 -129 106 -4 0 -8 -29 -9 -63z"
       id="path408"
       style="fill:#009900" />
    <path
       d="M3712 821 c-24 -10 -48 -24 -53 -32 -5 -8 -9 -43 -9 -79 l0 -65 55 94 c31 52 54 95 53 96 -2 2 -22 -5 -46 -14z"
       id="path410"
       style="fill:#66ff33" />
    <path
       d="M4763 740 l52 -89 3 49 c2 27 -2 59 -8 70 -9 16 -77 60 -94 60 -3 0 18 -40 47 -90z"
       id="path412"
       style="fill:#00cc00" />
    <path
       d="M3742 738 c-27 -46 -54 -94 -62 -107 l-12 -24 38 23 c96 59 104 68 104 126 0 29 -4 55 -9 59 -6 3 -32 -32 -59 -77z"
       id="path414"
       style="fill:#66ff33" />
    <path
       d="M4658 768 c-2 -29 0 -59 6 -67 14 -19 116 -84 122 -78 4 4 -28 65 -85 160 -13 20 -27 37 -31 37 -4 0 -10 -24 -12 -52z"
       id="path416"
       style="fill:#00cc00" />
    <path
       d="M4245 638 c8 -117 16 -178 24 -178 7 0 51 127 51 150 0 15 -61 99 -72 100 -4 0 -5 -33 -3 -72z"
       id="path418"
       style="fill:#00cc00" />
    <path
       d="M4168 656 c-16 -24 -28 -49 -28 -56 0 -15 67 -127 81 -136 8 -5 4 88 -7 146 -1 8 -3 32 -3 53 -1 20 -4 37 -8 37 -5 0 -20 -20 -35 -44z"
       id="path420"
       style="fill:#00cc00" />
  </g>
</svg>
