<?xml version="1.0" encoding="UTF-8" standalone="no"?>
<svg
   xmlns:dc="http://purl.org/dc/elements/1.1/"
   xmlns:cc="http://creativecommons.org/ns#"
   xmlns:rdf="http://www.w3.org/1999/02/22-rdf-syntax-ns#"
   xmlns:svg="http://www.w3.org/2000/svg"
   xmlns="http://www.w3.org/2000/svg"
   xmlns:sodipodi="http://sodipodi.sourceforge.net/DTD/sodipodi-0.dtd"
   xmlns:inkscape="http://www.inkscape.org/namespaces/inkscape"
   version="1.0"
   width="850.000000pt"
   height="850.000000pt"
   viewBox="0 0 850.000000 850.000000"
   preserveAspectRatio="xMidYMid meet"
   id="svg2"
   inkscape:version="0.91 r13725"
   sodipodi:docname="Animal_kingdom518_001.svg">
  <defs
     id="defs560" />
  <sodipodi:namedview
     pagecolor="#ffffff"
     bordercolor="#666666"
     borderopacity="1"
     objecttolerance="10"
     gridtolerance="10"
     guidetolerance="10"
     inkscape:pageopacity="0"
     inkscape:pageshadow="2"
     inkscape:window-width="1921"
     inkscape:window-height="987"
     id="namedview558"
     showgrid="false"
     inkscape:zoom="0.73882353"
     inkscape:cx="585.28053"
     inkscape:cy="547.49204"
     inkscape:window-x="2"
     inkscape:window-y="0"
     inkscape:window-maximized="0"
     inkscape:current-layer="svg2" />
  <metadata
     id="metadata4">
Created by potrace 1.14, written by Peter Selinger 2001-2017
<rdf:RDF>
  <cc:Work
     rdf:about="">
    <dc:format>image/svg+xml</dc:format>
    <dc:type
       rdf:resource="http://purl.org/dc/dcmitype/StillImage" />
  </cc:Work>
</rdf:RDF>
</metadata>
  <g
     transform="translate(0.000000,850.000000) scale(0.100000,-0.100000)"
     fill="#000000"
     stroke="none"
     id="g6">
    <path
       d="M0 4250 l0 -4250 4250 0 4250 0 0 4250 0 4250 -4250 0 -4250 0 0 -4250z m4697 3673 c35 -16 72 -76 73 -116 0 -16 4 -15 35 9 89 68 246 94 332 55 51 -23 74 -57 81 -116 3 -34 8 -43 17 -35 30 25 252 93 305 93 100 2 150 -47 150 -146 l0 -44 58 20 c36 13 92 22 152 24 84 4 100 2 139 -19 64 -33 86 -68 86 -134 l0 -54 121 0 c145 0 206 -15 253 -64 37 -38 51 -102 33 -153 l-10 -29 88 4 c185 9 320 -82 320 -216 0 -29 -5 -62 -10 -73 -9 -17 -7 -19 18 -19 47 0 145 -29 184 -55 80 -53 102 -132 63 -226 -5 -13 2 -18 38 -23 63 -10 157 -57 194 -99 59 -68 67 -151 18 -197 -27 -25 -25 -40 6 -40 49 0 165 -84 195 -141 24 -47 18 -101 -16 -147 l-30 -42 50 -24 c107 -51 160 -115 160 -190 0 -27 -9 -46 -35 -75 l-35 -38 54 -36 c112 -75 149 -214 80 -297 l-26 -30 34 -38 c83 -92 107 -205 55 -260 -27 -28 -27 -29 -7 -47 26 -24 80 -165 80 -210 0 -39 -19 -83 -44 -104 -14 -12 -13 -17 10 -47 30 -39 64 -140 64 -190 0 -49 -23 -89 -64 -108 -19 -9 -39 -16 -45 -16 -16 0 -14 -7 20 -56 67 -98 85 -175 54 -234 -8 -16 -25 -34 -36 -40 -19 -11 -19 -13 -5 -29 47 -52 64 -178 32 -240 -10 -19 -30 -37 -47 -43 -22 -8 -28 -15 -24 -27 15 -38 36 -175 30 -198 -8 -34 -58 -83 -84 -83 -17 0 -20 -5 -16 -22 32 -143 33 -190 5 -218 -11 -11 -30 -20 -41 -20 -17 0 -20 -4 -15 -22 44 -155 19 -238 -71 -238 -30 0 -34 -3 -28 -21 22 -68 -8 -171 -52 -177 -18 -3 -20 -8 -15 -48 9 -86 -49 -183 -103 -170 l-27 7 7 -49 c13 -94 -23 -162 -86 -162 -27 0 -27 -1 -26 -61 2 -56 -1 -63 -27 -86 -21 -17 -38 -24 -58 -21 -27 4 -28 3 -28 -36 0 -78 -54 -142 -111 -132 -24 5 -28 1 -34 -31 -12 -65 -52 -142 -80 -155 -22 -10 -32 -9 -55 4 l-28 16 -11 -55 c-6 -30 -18 -70 -27 -90 -28 -58 -96 -88 -143 -64 -15 9 -20 3 -34 -42 -34 -105 -78 -150 -147 -149 -38 1 -40 -1 -46 -36 -4 -20 -13 -50 -21 -65 -18 -37 -93 -71 -137 -63 -29 5 -33 2 -51 -37 -23 -47 -94 -91 -130 -81 -11 3 -28 8 -37 10 -13 4 -18 0 -18 -16 0 -29 -75 -107 -111 -115 -21 -5 -40 -1 -65 14 -19 12 -37 21 -39 21 -1 0 -17 -23 -35 -50 -57 -89 -110 -112 -157 -69 l-22 22 -49 -52 c-40 -43 -54 -51 -83 -51 -37 0 -60 13 -76 43 -9 17 -12 15 -37 -18 -37 -48 -83 -75 -128 -75 -30 0 -42 6 -60 30 l-22 30 -45 -44 c-44 -43 -85 -66 -118 -66 -8 0 -31 16 -50 35 l-35 35 -32 -25 c-43 -33 -98 -55 -136 -55 -35 0 -90 46 -90 75 0 15 -6 13 -42 -8 -69 -40 -121 -50 -163 -33 -26 11 -37 23 -41 46 -4 16 -10 30 -15 30 -5 0 -38 -11 -75 -25 -86 -33 -157 -34 -178 -3 -9 12 -16 30 -16 40 0 22 -2 22 -64 3 -120 -37 -187 -5 -174 83 l4 28 -50 -13 c-81 -21 -113 -17 -148 17 -26 26 -30 36 -25 65 l6 35 -63 0 c-72 0 -121 14 -154 43 -23 22 -29 65 -12 97 8 16 4 19 -38 24 -69 10 -149 52 -168 87 -11 23 -13 38 -5 66 6 20 9 38 7 40 -2 2 -33 12 -70 22 -37 10 -78 29 -91 41 -34 31 -48 80 -35 114 15 40 14 42 -30 55 -79 23 -138 100 -125 161 3 16 13 34 21 41 12 9 5 17 -38 43 -106 63 -149 164 -97 230 l21 26 -36 42 c-67 78 -81 153 -35 199 l20 20 -35 41 c-36 42 -66 113 -66 156 0 33 27 62 58 62 20 0 23 4 18 22 -25 88 -36 135 -36 156 0 36 28 81 55 88 29 7 29 7 10 59 -18 50 -19 144 -1 168 7 9 26 22 42 27 29 10 30 11 26 78 -4 84 25 151 73 167 29 10 30 12 27 65 -3 71 21 114 75 130 38 12 38 12 35 58 -4 61 25 108 78 130 33 14 40 22 40 45 0 61 67 137 121 137 18 0 29 5 29 14 0 28 42 65 93 82 28 9 91 41 138 71 l86 54 -5 68 c-7 99 15 132 152 234 83 62 119 97 157 150 27 39 49 74 49 78 0 12 -67 -1 -165 -33 -101 -33 -153 -33 -212 2 l-33 19 -36 -24 c-93 -63 -196 -53 -281 27 l-31 30 -30 -33 c-28 -31 -35 -34 -90 -34 -50 0 -73 7 -141 41 l-81 42 0 -30 c0 -44 -25 -83 -62 -99 -37 -15 -151 -18 -215 -6 l-42 9 11 -35 c14 -45 -5 -86 -52 -110 -44 -23 -132 -18 -211 12 -69 27 -79 26 -79 -3 0 -34 -18 -77 -42 -104 -49 -52 -155 -47 -244 12 l-50 34 -22 -48 c-44 -95 -159 -107 -273 -30 -24 16 -46 30 -49 30 -4 0 -12 -15 -18 -34 -26 -72 -112 -90 -212 -44 -31 14 -72 39 -92 56 l-35 32 -7 -39 c-10 -68 -71 -97 -143 -70 -15 5 -52 33 -82 62 -38 37 -55 48 -59 38 -3 -8 -15 -25 -28 -38 -43 -43 -104 -26 -199 55 -33 28 -82 64 -110 78 -27 15 -61 36 -73 48 -76 68 -83 196 -15 268 l26 27 -60 64 c-73 78 -94 135 -72 195 9 23 26 43 45 52 l31 16 -29 34 c-90 109 -89 235 2 255 37 8 37 15 5 45 -27 25 -55 104 -55 152 0 53 35 97 78 98 l22 0 -19 38 c-27 54 -43 139 -35 191 5 35 16 55 44 84 40 39 73 47 125 27 24 -9 26 -8 20 7 -14 38 -35 140 -35 174 0 149 113 245 206 174 18 -14 35 -25 37 -25 2 0 7 23 10 50 12 104 102 238 171 256 35 9 77 -15 101 -58 l21 -37 16 27 c75 127 226 210 311 171 26 -12 57 -57 57 -83 0 -24 8 -20 72 39 33 31 77 64 98 75 77 39 152 19 180 -50 15 -37 23 -38 38 -5 18 39 99 121 137 139 54 26 102 21 134 -13 l28 -30 32 79 c40 95 70 138 119 167 43 27 89 29 120 7 22 -15 22 -15 22 29 0 25 10 76 21 113 17 54 31 79 69 117 40 40 53 47 87 47 21 0 48 -7 59 -15 23 -17 34 -19 34 -4 0 19 49 110 81 150 40 51 115 99 154 99 18 0 44 -9 58 -20 l26 -21 21 47 c76 174 266 248 313 123 14 -37 21 -36 46 5 12 18 43 54 70 79 100 94 217 126 260 71 12 -15 21 -35 21 -45 0 -28 8 -24 67 32 57 54 141 98 202 106 73 10 141 -47 141 -118 0 -21 4 -19 40 19 88 91 250 137 337 95z"
       id="path8"
       style="fill:none" />
    <path
       d="M4498 7878 c-35 -11 -77 -37 -105 -62 l-47 -43 174 -6 c96 -3 183 -8 193 -12 15 -6 17 -1 17 40 0 38 -5 52 -29 76 -26 26 -36 29 -88 28 -32 0 -84 -10 -115 -21z"
       id="path10"
       style="fill:#006400" />
    <path
       d="M4091 7859 c-54 -27 -170 -124 -160 -134 2 -2 51 3 109 10 58 7 136 16 174 20 l68 7 -5 44 c-10 91 -74 109 -186 53z"
       id="path12"
       style="fill:#006400" />
    <path
       d="M4965 7846 c-59 -14 -139 -53 -161 -77 -20 -22 -26 -20 176 -49 80 -11 157 -23 173 -26 26 -5 27 -4 27 36 0 66 -22 97 -82 115 -60 17 -66 17 -133 1z"
       id="path14"
       style="fill:#006400" />
    <path
       d="M3743 7805 c-51 -26 -162 -126 -183 -166 -11 -20 -10 -21 6 -15 21 8 243 70 287 80 22 5 27 12 27 37 0 32 -15 69 -34 81 -20 14 -51 8 -103 -17z"
       id="path16"
       style="fill:#006400" />
    <path
       d="M5411 7749 c-59 -15 -123 -35 -142 -45 l-34 -18 40 -7 c22 -5 103 -19 180 -33 77 -14 150 -29 162 -32 17 -5 22 -1 28 26 10 47 -3 98 -29 115 -38 25 -90 23 -205 -6z"
       id="path18"
       style="fill:#006400" />
    <path
       d="M4205 7704 c-390 -47 -738 -150 -979 -290 -133 -77 -235 -157 -436 -342 l-55 -51 74 31 c41 16 127 44 190 60 102 27 138 31 298 35 198 6 285 -3 444 -43 276 -69 548 -203 801 -395 45 -35 173 -136 283 -224 230 -185 338 -264 450 -331 350 -207 650 -242 908 -107 130 69 223 186 263 333 25 96 30 103 66 96 45 -9 119 -68 152 -120 16 -25 30 -46 32 -46 12 0 44 64 39 78 -7 24 -92 82 -178 123 -67 31 -69 33 -62 63 30 144 37 209 32 306 -7 130 -34 221 -82 277 -58 68 -225 168 -450 271 -229 104 -342 131 -970 233 -291 47 -337 52 -510 55 -123 2 -232 -2 -310 -12z m675 -153 c162 -24 198 -31 455 -82 481 -96 665 -160 857 -301 135 -99 229 -234 243 -352 8 -61 -12 -201 -30 -216 -10 -8 -29 4 -76 45 -169 148 -348 241 -814 419 -480 183 -681 231 -1069 256 -150 9 -199 8 -145 -4 13 -3 107 -24 209 -47 449 -101 1157 -339 1495 -504 130 -64 276 -155 349 -218 l40 -34 -49 -98 c-58 -118 -140 -208 -225 -248 -200 -93 -504 -65 -750 70 -85 46 -214 136 -375 262 -309 242 -723 494 -965 589 -229 89 -433 125 -712 126 -115 1 -208 4 -208 8 0 11 101 73 200 123 222 111 491 186 775 214 61 6 126 13 145 15 97 11 521 -4 650 -23z"
       id="path20"
       style="fill:#daa520" />
    <path
       d="M4175 7528 c-60 -4 -128 -12 -150 -16 l-40 -8 50 -18 c28 -11 86 -42 130 -69 l80 -50 173 -8 c95 -4 187 -11 204 -15 30 -6 31 -5 19 10 -28 33 -138 109 -213 147 -83 42 -78 41 -253 27z"
       id="path22"
       style="fill:#00ff00" />
    <path
       d="M4510 7502 c36 -22 94 -68 129 -102 l64 -63 126 -23 c69 -13 165 -34 214 -48 48 -13 87 -21 87 -17 0 13 -91 156 -118 185 -69 74 -127 87 -432 101 l-135 7 65 -40z"
       id="path24"
       style="fill:#00ff00" />
    <path
       d="M3775 7473 c-108 -23 -275 -79 -398 -135 -115 -51 -153 -74 -107 -64 128 28 658 86 788 86 57 0 102 4 102 9 0 16 -141 81 -220 101 -87 23 -75 23 -165 3z"
       id="path26"
       style="fill:#00ff00" />
    <path
       d="M5030 7484 c0 -4 13 -23 29 -43 44 -56 83 -122 101 -170 l17 -43 164 -59 c90 -32 167 -59 171 -59 13 0 -24 126 -57 195 -49 103 -58 109 -220 143 -180 38 -205 43 -205 36z"
       id="path28"
       style="fill:#32cd32" />
    <path
       d="M5463 7387 c3 -6 23 -50 43 -97 25 -56 39 -105 42 -143 3 -42 9 -60 21 -64 9 -3 85 -32 170 -65 84 -32 156 -57 158 -54 7 7 -15 133 -34 191 -24 75 -60 143 -86 159 -12 8 -74 28 -137 44 -160 41 -183 45 -177 29z"
       id="path30"
       style="fill:#32cd32" />
    <path
       d="M3710 7294 c-19 -2 -100 -9 -180 -15 -210 -16 -253 -26 -115 -28 140 -2 296 -23 425 -57 l102 -26 46 25 c26 14 86 37 135 53 61 20 83 31 72 37 -15 8 -424 18 -485 11z"
       id="path32"
       style="fill:#00ff00" />
    <path
       d="M5901 7173 c27 -84 38 -136 39 -179 l0 -62 42 -17 c23 -9 73 -34 111 -57 38 -22 70 -38 72 -36 6 6 -26 185 -46 253 -34 114 -41 123 -132 165 -139 63 -131 69 -86 -67z"
       id="path34"
       style="fill:#32cd32" />
    <path
       d="M4265 7249 c-77 -11 -275 -78 -275 -93 0 -2 21 -11 48 -21 26 -10 93 -40 149 -67 l103 -50 27 19 c56 39 149 86 240 123 l92 37 -37 11 c-76 23 -223 52 -254 51 -18 -1 -60 -5 -93 -10z"
       id="path36"
       style="fill:#00ff00" />
    <path
       d="M4645 7150 c-70 -23 -315 -140 -315 -152 0 -4 14 -15 30 -23 17 -9 71 -40 121 -70 91 -55 91 -55 115 -36 60 48 366 158 487 176 26 4 46 9 45 11 -4 3 -219 70 -320 98 -70 20 -88 20 -163 -4z"
       id="path38"
       style="fill:#00ff00" />
    <path
       d="M6144 7130 c29 -95 47 -186 51 -254 l4 -79 90 -68 c72 -53 91 -64 95 -51 45 156 -31 310 -228 462 -18 14 -19 13 -12 -10z"
       id="path40"
       style="fill:#32cd32" />
    <path
       d="M5045 7003 c-127 -27 -435 -148 -435 -171 0 -4 17 -17 38 -28 20 -12 91 -60 158 -107 l120 -84 145 71 c185 92 301 131 474 160 l140 23 -55 20 c-30 12 -129 46 -218 77 -182 62 -234 68 -367 39z"
       id="path42"
       style="fill:#32cd32" />
    <path
       d="M5622 6820 c-148 -23 -244 -48 -377 -101 -126 -49 -270 -122 -270 -137 0 -11 245 -207 282 -224 17 -8 27 -6 51 10 16 12 101 57 188 101 167 84 378 161 499 182 39 7 74 16 79 20 8 7 -308 170 -324 168 -3 0 -60 -9 -128 -19z"
       id="path44"
       style="fill:#32cd32" />
    <path
       d="M6074 6624 c-200 -35 -391 -104 -628 -225 -131 -67 -138 -73 -120 -86 39 -31 221 -112 287 -128 l68 -16 32 30 c46 43 278 196 358 237 38 19 104 48 146 65 43 17 79 32 81 33 1 2 -21 19 -50 38 -106 69 -96 66 -174 52z"
       id="path46"
       style="fill:#32cd32" />
    <path
       d="M6161 6429 c-120 -57 -421 -245 -421 -262 0 -5 62 -7 138 -5 123 3 143 6 192 29 72 34 125 78 173 142 35 46 87 137 87 152 0 16 -59 -3 -169 -56z"
       id="path48"
       style="fill:#32cd32" />
    <path
       d="M3365 7694 c-51 -26 -94 -76 -131 -148 -19 -38 -33 -71 -31 -73 2 -1 28 10 58 26 30 16 95 46 144 66 50 21 91 38 93 39 5 5 -22 72 -36 89 -19 21 -57 22 -97 1z"
       id="path50"
       style="fill:#006400" />
    <path
       d="M5772 7616 c-29 -8 -55 -16 -58 -19 -3 -3 27 -15 68 -27 40 -12 122 -42 182 -66 60 -25 110 -43 113 -41 2 3 6 20 9 38 7 45 -25 95 -71 115 -42 17 -170 17 -243 0z"
       id="path52"
       style="fill:#006400" />
    <path
       d="M3045 7492 c-61 -37 -139 -153 -159 -236 -6 -26 -3 -25 61 30 37 31 101 80 141 108 39 27 72 56 72 63 0 21 -38 53 -62 53 -13 0 -37 -8 -53 -18z"
       id="path54"
       style="fill:#006400" />
    <path
       d="M6235 7369 c50 -28 123 -74 163 -102 80 -55 85 -55 98 12 12 59 -35 114 -112 131 -21 5 -84 10 -139 10 l-99 0 89 -51z"
       id="path56"
       style="fill:#006400" />
    <path
       d="M2729 7268 c-20 -14 -45 -45 -62 -78 -28 -56 -61 -200 -46 -200 4 0 59 49 121 108 l112 109 -19 29 c-21 32 -44 53 -61 54 -6 0 -26 -10 -45 -22z"
       id="path58"
       style="fill:#006400" />
    <path
       d="M6543 7182 c-9 -6 13 -29 75 -79 48 -39 117 -99 155 -133 74 -69 86 -69 113 -3 43 102 -83 209 -261 220 -38 2 -76 0 -82 -5z"
       id="path60"
       style="fill:#006400" />
    <path
       d="M3175 7099 c-158 -20 -318 -64 -468 -128 -67 -29 -177 -135 -177 -171 0 -33 26 -58 44 -44 7 5 44 32 82 61 140 106 366 213 544 258 58 15 107 28 109 31 6 6 -54 3 -134 -7z"
       id="path62"
       style="fill:#006400" />
    <path
       d="M3386 7079 c-17 -85 -3 -97 67 -63 44 22 56 33 59 55 4 25 1 27 -40 33 -74 10 -79 9 -86 -25z"
       id="path64"
       style="fill:#6b8e23" />
    <path
       d="M3550 7057 c0 -57 58 -97 139 -97 45 0 56 5 92 37 29 26 37 38 27 44 -22 12 -194 49 -227 49 -28 0 -31 -3 -31 -33z"
       id="path66"
       style="fill:#6b8e23" />
    <path
       d="M6547 7053 c12 -27 18 -77 21 -180 3 -115 7 -143 19 -143 7 0 32 -9 53 -20 l40 -20 45 90 c25 49 45 96 45 103 0 13 -207 198 -230 205 -5 2 -2 -14 7 -35z"
       id="path68"
       style="fill:#daa520" />
    <path
       d="M3230 7046 c-276 -79 -516 -203 -651 -338 -68 -68 -99 -118 -99 -161 0 -85 130 -46 374 113 54 35 187 116 295 179 l196 116 5 63 c3 34 3 62 0 61 -3 0 -57 -15 -120 -33z"
       id="path70"
       style="fill:#6b8e23" />
    <path
       d="M3850 7005 c0 -8 6 -15 13 -15 7 0 29 -11 49 -25 36 -24 37 -25 48 -6 14 28 15 28 -37 45 -58 20 -73 20 -73 1z"
       id="path72"
       style="fill:#006400" />
    <path
       d="M3463 6976 c-28 -12 -55 -24 -58 -28 -8 -8 53 -68 69 -68 7 0 27 18 45 40 27 34 30 42 19 60 -15 24 -10 24 -75 -4z"
       id="path74"
       style="fill:#006400" />
    <path
       d="M2444 6958 c-37 -32 -123 -193 -110 -205 6 -6 118 78 195 146 44 39 44 40 27 65 -24 37 -66 35 -112 -6z"
       id="path76"
       style="fill:#006400" />
    <path
       d="M3817 6963 c-12 -11 -8 -27 16 -66 l24 -39 32 27 32 27 -38 29 c-39 29 -54 34 -66 22z"
       id="path78"
       style="fill:#006400" />
    <path
       d="M3550 6900 c-16 -21 -30 -40 -30 -44 0 -3 25 -13 56 -22 62 -18 72 -13 75 34 1 12 2 27 3 33 1 7 -16 18 -36 25 -37 13 -38 12 -68 -26z"
       id="path80"
       style="fill:#006400" />
    <path
       d="M3976 6911 l-27 -28 102 -94 c57 -52 149 -138 207 -192 104 -100 192 -154 226 -141 57 22 8 120 -98 198 -38 28 -131 98 -208 156 -77 58 -147 111 -157 117 -15 11 -21 9 -45 -16z"
       id="path82"
       style="fill:#006400" />
    <path
       d="M3247 6823 c-243 -234 -446 -455 -557 -604 -111 -149 -207 -376 -193 -452 14 -72 89 -70 179 5 86 72 152 152 334 408 57 80 163 222 235 315 73 94 157 204 187 245 l55 74 -61 58 c-33 32 -62 58 -64 58 -2 0 -54 -48 -115 -107z"
       id="path84"
       style="fill:#6b8e23" />
    <path
       d="M3723 6917 c-42 -10 -43 -10 -43 -53 0 -43 1 -44 33 -44 17 0 49 5 69 10 l37 11 -22 44 c-12 25 -24 44 -27 44 -3 -1 -24 -6 -47 -12z"
       id="path86"
       style="fill:#006400" />
    <path
       d="M4096 6922 c5 -5 76 -58 158 -118 82 -60 175 -133 207 -161 59 -55 87 -64 110 -37 15 19 17 17 -139 125 -107 74 -318 199 -336 199 -6 0 -6 -3 0 -8z"
       id="path88"
       style="fill:#006400" />
    <path
       d="M6997 6755 c65 -69 122 -124 127 -122 5 2 18 19 29 38 26 45 18 81 -32 130 -38 39 -99 62 -194 73 l-48 6 118 -125z"
       id="path90"
       style="fill:#006400" />
    <path
       d="M6752 6781 c-24 -47 -43 -90 -42 -96 0 -8 91 -65 104 -65 3 0 25 30 51 67 l47 66 -59 58 -58 57 -43 -87z"
       id="path92"
       style="fill:#daa520" />
    <path
       d="M3064 6752 c-71 -43 -187 -115 -257 -160 -71 -44 -154 -90 -185 -102 -31 -11 -67 -26 -80 -32 -59 -30 -171 -228 -180 -319 -7 -70 14 -99 71 -99 75 1 118 34 192 145 83 123 183 239 405 468 94 97 170 177 167 177 -2 0 -62 -35 -133 -78z"
       id="path94"
       style="fill:#006400" />
    <path
       d="M3853 6813 c-18 -9 -33 -24 -33 -33 0 -50 65 -227 142 -388 67 -140 126 -212 176 -212 55 0 84 69 62 151 -21 83 -277 500 -305 498 -5 0 -25 -8 -42 -16z"
       id="path96"
       style="fill:#6b8e23" />
    <path
       d="M3970 6817 c0 -3 28 -48 63 -99 74 -109 192 -321 202 -361 9 -35 38 -51 81 -42 39 7 62 36 70 87 5 30 2 37 -24 54 -36 23 -232 202 -324 297 -38 38 -68 67 -68 64z"
       id="path98"
       style="fill:#006400" />
    <path
       d="M3535 6772 c-4 -15 -37 -92 -74 -172 -76 -162 -96 -216 -176 -475 -94 -303 -104 -399 -49 -465 30 -36 63 -39 109 -10 84 52 138 196 165 440 6 58 24 166 40 240 36 168 74 440 63 450 -4 4 -22 10 -40 13 -28 5 -32 3 -38 -21z"
       id="path100"
       style="fill:#6b8e23" />
    <path
       d="M2408 6731 c-86 -68 -108 -108 -108 -199 0 -59 19 -102 45 -102 28 0 26 -22 -8 -68 -47 -65 -75 -122 -88 -182 -21 -99 28 -204 107 -230 l35 -12 -7 -127 c-6 -118 -5 -130 15 -169 40 -78 119 -107 196 -73 26 12 49 21 50 21 1 0 17 -29 34 -65 44 -90 84 -118 170 -123 91 -5 144 11 198 61 43 39 46 40 76 28 90 -37 114 -43 155 -37 62 8 114 39 165 97 39 45 47 50 65 40 29 -15 88 -14 120 3 15 8 43 30 62 50 32 34 37 36 82 30 26 -4 58 -4 72 0 39 10 96 65 117 113 13 32 24 43 40 43 74 0 179 71 179 122 0 26 22 53 33 42 3 -3 24 -3 47 1 74 12 123 69 144 167 5 21 13 27 46 33 51 9 77 30 93 80 9 26 26 48 48 62 55 35 76 61 83 103 4 24 12 40 20 40 7 0 18 6 24 13 9 10 -2 23 -45 57 -46 35 -59 41 -72 32 -9 -7 -26 -16 -38 -21 -18 -8 -20 -16 -16 -50 5 -35 2 -44 -26 -71 -25 -25 -37 -30 -59 -26 -25 6 -28 3 -45 -44 -23 -65 -64 -93 -123 -86 l-42 5 -7 -46 c-9 -64 -49 -103 -103 -103 -39 0 -40 -1 -47 -38 -15 -93 -84 -158 -155 -147 -34 5 -35 4 -59 -50 -13 -31 -38 -67 -54 -81 -27 -23 -38 -26 -78 -21 l-48 6 -21 -44 c-40 -83 -122 -106 -180 -50 -28 27 -32 28 -41 13 -25 -46 -78 -103 -109 -120 -67 -37 -147 3 -172 83 l-11 38 -42 -57 c-67 -92 -145 -142 -219 -142 -38 0 -52 6 -84 35 -45 40 -62 88 -62 174 l0 62 -47 -39 c-125 -104 -215 -109 -244 -13 -15 50 -6 107 30 196 16 39 28 71 27 72 0 1 -22 -3 -47 -9 -57 -13 -94 -5 -124 28 -32 34 -38 79 -20 147 20 76 57 149 115 222 l47 61 -29 26 c-46 42 -35 95 38 185 27 33 31 44 21 50 -8 4 -21 21 -29 36 l-14 28 -76 -60z"
       id="path102"
       style="fill:#daa520" />
    <path
       d="M3721 6780 c-53 -6 -45 43 -60 -412 -11 -349 -8 -407 27 -477 30 -62 102 -68 141 -12 59 83 66 254 20 524 -35 209 -68 370 -77 377 -4 3 -27 3 -51 0z"
       id="path104"
       style="fill:#6b8e23" />
    <path
       d="M2123 6751 c-48 -35 -126 -125 -113 -129 26 -9 260 78 260 96 0 5 -9 21 -21 36 -28 36 -74 35 -126 -3z"
       id="path106"
       style="fill:#006400" />
    <path
       d="M3329 6548 c-90 -117 -229 -302 -308 -413 -78 -110 -159 -219 -178 -243 -42 -51 -53 -87 -53 -172 0 -79 24 -124 76 -146 74 -31 167 24 249 146 42 62 53 89 64 150 8 40 24 106 38 144 13 39 39 128 59 198 44 162 66 219 152 401 39 81 70 147 68 147 -1 0 -76 -95 -167 -212z"
       id="path108"
       style="fill:#006400" />
    <path
       d="M6881 6665 c-24 -36 -42 -66 -40 -68 2 -2 23 -18 45 -35 23 -18 46 -32 50 -32 10 1 84 94 84 106 0 9 -81 94 -90 94 -3 0 -25 -29 -49 -65z"
       id="path110"
       style="fill:#daa520" />
    <path
       d="M6565 6683 c-4 -16 -10 -46 -15 -68 -5 -22 -6 -43 -2 -46 4 -4 30 -13 59 -22 71 -20 208 -102 263 -157 54 -53 180 -240 244 -360 208 -393 365 -999 406 -1569 10 -145 2 -621 -11 -621 -4 0 -13 26 -19 58 -49 247 -201 681 -316 901 -36 69 -104 185 -151 256 -73 111 -112 155 -258 300 -187 185 -213 218 -280 357 -47 97 -105 301 -105 368 0 51 -11 56 -46 19 -16 -17 -43 -39 -60 -50 l-31 -19 28 -107 c65 -253 125 -354 318 -533 254 -236 469 -558 609 -910 130 -329 270 -836 292 -1056 20 -204 20 -204 46 -49 13 77 38 248 56 380 28 214 32 266 32 480 0 210 -4 272 -32 495 -69 550 -139 844 -274 1160 -169 395 -371 634 -664 785 -38 19 -72 35 -76 35 -4 0 -10 -12 -13 -27z"
       id="path112"
       style="fill:#008000" />
    <path
       d="M1792 6683 c-50 -27 -156 -117 -143 -121 6 -2 74 6 151 18 115 18 140 25 140 39 0 17 -26 61 -44 73 -19 13 -70 8 -104 -9z"
       id="path114"
       style="fill:#006400" />
    <path
       d="M1425 6646 c-57 -26 -147 -112 -165 -157 -7 -16 -11 -32 -8 -34 2 -2 34 7 72 21 37 13 106 34 154 45 48 12 91 26 96 30 14 13 -12 86 -37 104 -29 21 -53 19 -112 -9z"
       id="path116"
       style="fill:#006400" />
    <path
       d="M2205 6619 c-92 -36 -206 -61 -456 -98 -324 -49 -441 -87 -602 -194 -250 -167 -414 -426 -482 -760 -47 -234 -49 -439 -7 -762 l17 -130 49 -3 c97 -6 335 58 527 143 177 77 521 327 701 508 110 111 139 126 146 79 7 -45 -260 -287 -488 -444 -190 -131 -439 -259 -566 -292 -117 -30 -276 -56 -339 -56 -56 0 -64 3 -70 21 -6 19 -9 19 -22 7 -22 -22 -33 -84 -22 -123 22 -78 86 -119 239 -152 70 -15 129 -18 335 -18 138 1 300 6 360 13 61 6 144 14 185 17 233 18 512 59 662 96 98 24 144 44 299 130 69 38 164 84 210 101 76 29 95 32 199 32 102 1 127 -3 220 -31 151 -46 209 -53 455 -53 222 0 340 11 362 33 12 13 48 207 59 319 7 73 23 99 44 73 33 -40 -27 -378 -91 -512 -37 -79 -115 -161 -234 -251 -108 -80 -132 -119 -115 -181 l11 -41 37 19 c67 34 244 101 267 101 45 0 67 -55 95 -235 22 -141 61 -215 116 -215 70 0 168 85 217 188 36 75 39 124 23 328 -11 144 4 230 96 549 136 470 153 581 106 675 -29 55 -57 75 -133 95 -76 19 -181 19 -337 -1 -345 -44 -552 -116 -748 -263 -52 -39 -98 -71 -102 -71 -22 0 1 26 89 104 136 120 279 192 496 247 80 20 84 22 157 98 113 116 385 314 703 510 65 40 115 77 110 81 -4 4 -57 46 -116 94 -108 86 -108 86 -132 69 -14 -10 -25 -26 -25 -36 0 -33 -30 -75 -72 -104 -28 -19 -51 -45 -65 -76 -24 -49 -71 -87 -109 -87 -16 0 -24 -10 -33 -42 -27 -92 -100 -158 -174 -158 -20 0 -30 -7 -37 -26 -27 -70 -97 -123 -183 -139 -24 -5 -37 -13 -37 -23 0 -25 -48 -80 -95 -108 -36 -20 -55 -25 -99 -23 -53 3 -57 1 -104 -43 -58 -54 -117 -75 -164 -59 -28 10 -33 8 -72 -32 -64 -66 -125 -92 -218 -92 -64 0 -81 4 -108 23 l-31 23 -31 -30 c-128 -125 -349 -97 -423 53 l-27 54 -33 -14 c-44 -18 -87 -18 -132 1 -52 22 -72 42 -99 100 -26 54 -32 162 -15 237 9 37 8 38 -32 60 -22 13 -54 40 -71 61 -28 35 -31 47 -34 121 -4 93 16 165 67 241 17 25 31 48 31 51 0 3 -9 17 -20 32 -26 36 -35 110 -21 168 7 25 11 47 9 48 -2 2 -34 -10 -73 -25z m-553 -400 c33 -11 84 -35 112 -53 263 -168 291 -619 52 -860 -166 -169 -439 -228 -662 -145 -43 16 -75 39 -124 88 -171 171 -209 423 -98 651 65 133 242 275 403 321 88 26 239 25 317 -2z"
       id="path118"
       style="fill:#808000" />
    <path
       d="M1370 6175 c-217 -54 -399 -228 -441 -425 -16 -76 -6 -212 21 -282 49 -130 148 -236 259 -279 59 -22 187 -26 273 -8 135 28 274 123 351 240 101 153 115 395 33 557 -84 166 -290 247 -496 197z m217 -455 c65 -39 80 -122 30 -167 -36 -33 -63 -43 -117 -43 -44 0 -56 5 -81 29 -73 73 -2 195 116 200 11 1 34 -8 52 -19z"
       id="path120"
       style="fill:#000000" />
    <path
       d="M6998 6561 c-21 -27 -38 -51 -38 -53 0 -8 89 -102 93 -97 2 2 22 25 45 50 l41 45 -45 52 c-25 29 -49 52 -52 52 -4 -1 -24 -23 -44 -49z"
       id="path122"
       style="fill:#daa520" />
    <path
       d="M7160 6583 c0 -3 27 -39 61 -80 33 -42 79 -102 102 -134 22 -33 45 -59 49 -59 5 0 20 11 33 25 60 59 8 162 -106 209 -49 20 -139 46 -139 39z"
       id="path124"
       style="fill:#00ff00" />
    <path
       d="M1089 6543 c-54 -33 -115 -153 -134 -263 l-7 -43 33 27 c45 36 182 138 203 151 15 9 15 14 1 62 -9 29 -25 59 -38 68 -26 18 -26 18 -58 -2z"
       id="path126"
       style="fill:#006400" />
    <path
       d="M7110 6435 c-47 -48 -47 -42 13 -122 l39 -52 51 29 c29 16 53 33 55 38 2 8 -90 136 -106 146 -5 3 -28 -15 -52 -39z"
       id="path128"
       style="fill:#daa520" />
    <path
       d="M3880 6458 c0 -3 9 -59 20 -125 13 -76 20 -155 19 -223 -1 -85 1 -106 14 -114 43 -27 111 39 123 119 6 41 3 48 -30 87 -20 23 -61 92 -91 153 -30 60 -55 107 -55 103z"
       id="path130"
       style="fill:#006400" />
    <path
       d="M3610 6432 c0 -5 -11 -69 -25 -143 -13 -74 -31 -181 -40 -239 -9 -58 -25 -145 -37 -194 l-22 -89 28 -23 c52 -46 120 -17 146 61 9 28 8 40 -8 72 -30 59 -34 100 -33 340 1 123 -1 223 -4 223 -3 0 -5 -4 -5 -8z"
       id="path132"
       style="fill:#006400" />
    <path
       d="M6774 6418 c11 -17 14 -35 10 -57 -6 -30 -2 -38 54 -94 96 -97 198 -291 282 -534 57 -164 182 -654 235 -922 25 -123 45 -232 45 -242 0 -36 -18 -19 -25 23 -18 102 -102 302 -180 424 -82 129 -209 286 -339 417 -146 148 -217 243 -276 371 -50 107 -74 204 -74 301 0 99 15 146 67 202 l40 44 -24 25 c-34 37 -78 59 -83 42 -35 -119 -54 -166 -79 -205 -28 -46 -29 -51 -23 -125 8 -97 45 -243 85 -337 52 -123 114 -202 301 -389 157 -157 188 -193 272 -322 53 -80 111 -176 130 -215 75 -149 207 -494 264 -689 19 -66 37 -122 40 -125 4 -4 4 122 1 279 -5 301 -22 461 -83 770 -59 296 -210 751 -316 950 -97 182 -240 374 -308 414 l-32 18 16 -24z"
       id="path134"
       style="fill:#008000" />
    <path
       d="M6585 6288 c-78 -92 -78 -244 -2 -432 51 -125 130 -237 275 -388 187 -195 307 -351 413 -538 27 -46 49 -81 49 -78 0 44 -142 613 -205 823 -70 233 -179 446 -291 571 l-62 67 -32 -36 c-18 -20 -36 -37 -40 -37 -5 0 -19 18 -31 40 -13 22 -28 40 -35 40 -7 0 -24 -14 -39 -32z m235 -253 c71 -53 127 -155 184 -338 20 -63 65 -186 100 -275 91 -227 102 -304 23 -150 -47 89 -166 260 -272 388 -150 183 -204 328 -139 379 35 28 63 26 104 -4z"
       id="path136"
       style="fill:#00ff00" />
    <path
       d="M6723 6014 c-10 -28 5 -120 27 -165 24 -47 51 -83 142 -193 32 -38 85 -108 118 -157 33 -48 64 -91 69 -94 5 -3 -6 30 -23 72 -18 43 -52 139 -76 213 -50 160 -98 257 -151 305 -43 38 -95 48 -106 19z"
       id="path138"
       style="fill:#00ff00" />
    <path
       d="M7228 6272 c-26 -15 -48 -30 -48 -33 0 -4 17 -36 38 -72 l38 -65 60 34 c32 19 58 39 56 46 -6 24 -75 118 -85 117 -7 0 -33 -12 -59 -27z"
       id="path140"
       style="fill:#daa520" />
    <path
       d="M767 6264 c-45 -44 -58 -170 -29 -278 8 -28 8 -28 46 34 22 35 59 87 83 117 48 59 49 72 6 123 -32 38 -71 40 -106 4z"
       id="path142"
       style="fill:#006400" />
    <path
       d="M4965 6232 c-289 -162 -821 -548 -794 -576 4 -4 56 -1 116 5 l110 13 64 79 c35 44 92 105 126 137 64 60 258 218 373 305 85 63 87 65 70 65 -8 0 -37 -13 -65 -28z"
       id="path144"
       style="fill:#008000" />
    <path
       d="M7410 6246 c0 -3 15 -29 33 -58 19 -29 53 -88 76 -131 l43 -78 23 21 c29 27 38 61 25 94 -14 37 -78 105 -119 125 -43 22 -81 34 -81 27z"
       id="path146"
       style="fill:#00ff00" />
    <path
       d="M4994 6173 c-154 -110 -331 -258 -444 -372 l-115 -115 90 -8 c79 -7 91 -6 100 8 92 155 206 291 371 444 51 47 92 88 93 93 2 16 -19 5 -95 -50z"
       id="path148"
       style="fill:#008000" />
    <path
       d="M5061 6136 c-41 -44 -51 -61 -51 -90 0 -61 48 -83 109 -51 27 14 121 110 121 124 -1 8 -105 71 -118 71 -5 0 -32 -24 -61 -54z"
       id="path150"
       style="fill:#00ff00" />
    <path
       d="M7337 6121 c-73 -42 -72 -41 -37 -112 18 -35 34 -65 35 -67 5 -6 135 62 135 71 0 13 -71 137 -78 137 -4 0 -29 -13 -55 -29z"
       id="path152"
       style="fill:#daa520" />
    <path
       d="M5252 6063 c-34 -50 -109 -206 -145 -303 -40 -108 -116 -397 -142 -540 -11 -61 -19 -172 -22 -312 l-5 -218 71 0 71 0 -7 43 c-12 66 -7 277 11 442 36 332 91 560 195 818 18 43 29 82 26 87 -11 18 -33 10 -53 -17z"
       id="path154"
       style="fill:#008000" />
    <path
       d="M4916 6001 c-51 -52 -59 -65 -59 -97 0 -28 6 -43 28 -62 25 -21 36 -24 96 -20 84 5 114 24 150 99 15 30 26 55 24 57 -1 1 -18 -5 -38 -13 -20 -8 -45 -15 -56 -15 -30 0 -72 41 -79 78 l-7 33 -59 -60z"
       id="path156"
       style="fill:#00ff00" />
    <path
       d="M5342 6043 c-6 -10 -33 -81 -61 -156 -53 -142 -99 -310 -125 -457 -36 -195 -66 -600 -52 -692 l7 -46 95 -17 c52 -9 97 -15 99 -13 3 2 0 19 -5 37 -27 94 -43 315 -43 586 -1 314 10 403 78 637 21 73 31 126 26 131 -5 5 -13 1 -19 -10z"
       id="path158"
       style="fill:#008000" />
    <path
       d="M5395 6018 c-20 -61 -76 -332 -85 -408 -16 -136 -13 -550 5 -731 14 -140 28 -227 37 -233 1 -1 38 -14 81 -28 67 -22 77 -24 72 -10 -53 129 -114 374 -140 562 -35 257 -11 571 62 794 13 41 13 50 2 57 -19 12 -29 11 -34 -3z"
       id="path160"
       style="fill:#008000" />
    <path
       d="M6155 5984 c-28 -13 -82 -31 -120 -41 -39 -10 -71 -18 -72 -18 -1 -1 5 -25 14 -54 20 -62 19 -63 165 6 106 50 101 43 81 116 -5 21 -6 21 -68 -9z"
       id="path162"
       style="fill:#b8860b" />
    <path
       d="M5479 5973 c-3 -46 5 -70 31 -97 35 -35 107 -47 144 -23 28 19 52 76 33 82 -7 1 -51 15 -98 29 -103 31 -109 31 -110 9z"
       id="path164"
       style="fill:#00ff00" />
    <path
       d="M7413 5951 c-29 -15 -55 -30 -59 -34 -4 -3 3 -31 16 -61 l22 -54 66 29 c37 17 70 34 74 38 13 12 -34 111 -51 110 -9 -1 -39 -14 -68 -28z"
       id="path166"
       style="fill:#daa520" />
    <path
       d="M599 5917 c-28 -21 -39 -54 -39 -114 1 -59 35 -163 56 -170 6 -2 16 20 23 49 6 29 27 90 45 136 l34 83 -29 14 c-34 18 -68 19 -90 2z"
       id="path168"
       style="fill:#006400" />
    <path
       d="M5749 5921 c-10 -67 31 -280 85 -446 35 -104 112 -282 132 -304 3 -3 54 29 103 65 1 2 -8 18 -22 36 -37 49 -130 241 -165 338 -27 78 -52 177 -67 271 -5 31 -10 37 -35 41 -17 3 -30 2 -31 -1z"
       id="path170"
       style="fill:#008000" />
    <path
       d="M5860 5896 c0 -126 107 -414 213 -574 38 -57 45 -62 71 -57 16 3 56 5 89 5 l60 0 -44 48 c-136 145 -239 322 -304 520 -25 78 -28 82 -56 82 -24 0 -29 -4 -29 -24z"
       id="path172"
       style="fill:#008000" />
    <path
       d="M5440 5857 c-11 -48 -10 -58 8 -100 35 -79 99 -104 182 -71 49 20 80 67 80 123 0 22 -1 41 -3 41 -1 0 -20 -9 -42 -20 -71 -36 -148 -17 -192 48 l-21 33 -12 -54z"
       id="path174"
       style="fill:#00ff00" />
    <path
       d="M4777 5849 c-52 -60 -66 -103 -45 -145 37 -77 152 -102 260 -57 34 14 39 23 62 90 l25 74 -22 -8 c-12 -4 -54 -8 -94 -8 -62 0 -75 3 -97 24 -15 14 -30 38 -34 54 l-8 30 -47 -54z"
       id="path176"
       style="fill:#00ff00" />
    <path
       d="M7603 5888 c3 -7 27 -62 52 -123 25 -60 48 -111 50 -114 6 -6 44 29 57 52 15 28 -7 78 -55 124 -65 62 -118 93 -104 61z"
       id="path178"
       style="fill:#00ff00" />
    <path
       d="M6153 5855 c-40 -19 -84 -37 -97 -41 -47 -12 -49 -26 -15 -108 17 -42 36 -76 41 -76 6 0 55 25 110 56 78 44 98 60 93 72 -3 10 -13 43 -22 75 -9 31 -21 57 -27 57 -6 0 -43 -16 -83 -35z"
       id="path180"
       style="fill:#b8860b" />
    <path
       d="M7468 5809 l-66 -31 20 -59 c11 -32 22 -59 25 -59 4 0 155 61 161 65 8 6 -49 115 -60 114 -7 0 -43 -14 -80 -30z"
       id="path182"
       style="fill:#daa520" />
    <path
       d="M4672 5704 c-12 -19 -22 -36 -22 -39 0 -2 15 -11 33 -19 84 -35 139 -112 153 -213 3 -29 8 -53 11 -53 16 0 64 35 99 72 31 31 45 57 54 96 7 29 10 55 8 58 -3 2 -30 -1 -62 -7 -111 -23 -211 21 -239 102 l-13 37 -22 -34z"
       id="path184"
       style="fill:#00ff00" />
    <path
       d="M5405 5688 c-8 -63 -2 -78 49 -127 31 -30 44 -35 94 -39 73 -5 131 21 168 77 20 31 24 46 19 75 -8 40 -16 44 -36 19 -20 -23 -89 -53 -126 -53 -50 0 -85 17 -125 62 l-36 41 -7 -55z"
       id="path186"
       style="fill:#00ff00" />
    <path
       d="M6200 5665 c-52 -29 -96 -58 -98 -64 -4 -11 43 -93 78 -138 l17 -22 86 71 85 71 -35 66 c-19 36 -35 67 -36 67 -1 1 -45 -22 -97 -51z"
       id="path188"
       style="fill:#b8860b" />
    <path
       d="M7535 5669 c-38 -15 -73 -30 -78 -31 -6 -3 7 -63 28 -125 3 -9 12 -10 32 -4 15 5 61 15 101 22 44 7 71 17 69 23 -47 116 -61 146 -71 145 -6 -1 -42 -14 -81 -30z"
       id="path190"
       style="fill:#daa520" />
    <path
       d="M529 5559 c-31 -31 -19 -117 27 -186 l18 -28 12 85 c6 47 13 96 15 109 6 35 -44 48 -72 20z"
       id="path192"
       style="fill:#006400" />
    <path
       d="M5703 5541 c-49 -45 -115 -66 -170 -56 -42 7 -123 51 -123 65 0 6 -4 10 -10 10 -6 0 -10 -33 -10 -79 l0 -79 48 -50 c77 -82 157 -91 250 -28 33 22 55 47 74 86 l28 55 -16 58 c-9 31 -20 57 -23 57 -3 -1 -25 -18 -48 -39z"
       id="path194"
       style="fill:#00ff00" />
    <path
       d="M7746 5523 c8 -27 26 -90 41 -140 15 -51 30 -93 35 -93 15 0 38 59 38 98 0 53 -44 136 -84 162 -19 11 -36 20 -39 20 -3 0 1 -21 9 -47z"
       id="path196"
       style="fill:#00ff00" />
    <path
       d="M6300 5495 c-41 -35 -76 -70 -78 -77 -1 -7 26 -44 61 -83 l64 -70 77 77 78 77 -58 68 c-32 37 -60 69 -63 70 -3 1 -40 -27 -81 -62z"
       id="path198"
       style="fill:#b8860b" />
    <path
       d="M7593 5501 c-45 -9 -84 -19 -88 -23 -6 -5 21 -151 31 -169 2 -3 47 4 101 16 74 16 99 26 101 39 6 27 -37 156 -51 155 -7 -1 -49 -9 -94 -18z"
       id="path200"
       style="fill:#daa520" />
    <path
       d="M4943 5398 c-7 -8 -32 -23 -55 -34 -52 -22 -58 -29 -58 -74 -1 -19 -12 -75 -24 -125 -13 -49 -22 -92 -21 -93 9 -10 78 23 104 48 22 22 30 42 35 87 4 32 14 84 22 117 18 68 16 98 -3 74z"
       id="path202"
       style="fill:#00ff00" />
    <path
       d="M5801 5402 c-1 -21 -83 -102 -123 -123 -89 -46 -184 -33 -250 33 l-41 41 7 -79 c4 -43 11 -96 16 -118 18 -80 111 -139 220 -139 101 -1 174 45 213 132 30 66 27 124 -10 201 -18 36 -32 59 -32 52z"
       id="path204"
       style="fill:#00ff00" />
    <path
       d="M6448 5330 c-60 -58 -70 -72 -58 -81 8 -5 38 -23 65 -40 28 -16 57 -34 66 -41 14 -9 27 -2 78 43 33 29 61 58 60 64 0 5 -31 36 -69 68 l-68 57 -74 -70z"
       id="path206"
       style="fill:#b8860b" />
    <path
       d="M7641 5304 c-51 -13 -95 -24 -96 -26 -4 -4 21 -138 27 -143 3 -3 205 25 215 30 2 1 -14 74 -28 128 -5 20 -13 37 -17 36 -4 -1 -49 -12 -101 -25z"
       id="path208"
       style="fill:#daa520" />
    <path
       d="M540 5282 c-61 -20 -65 -78 -12 -171 l37 -66 3 114 c1 63 -1 118 -5 121 -4 4 -15 5 -23 2z"
       id="path210"
       style="fill:#006400" />
    <path
       d="M6624 5200 c-33 -29 -59 -55 -59 -59 0 -5 28 -38 63 -75 71 -76 62 -76 147 -3 l39 34 -52 65 c-78 98 -71 96 -138 38z"
       id="path212"
       style="fill:#b8860b" />
    <path
       d="M6137 5190 c-127 -49 -244 -215 -287 -405 -5 -24 -17 -108 -25 -187 -30 -266 -66 -350 -215 -499 l-97 -96 58 -60 c31 -34 73 -89 92 -124 42 -75 43 -70 -54 -220 -83 -127 -107 -194 -87 -236 30 -63 117 -89 199 -61 114 38 222 183 336 448 44 103 127 382 177 594 26 111 36 133 55 122 29 -18 8 -165 -54 -379 -19 -67 -35 -127 -35 -134 0 -8 13 -13 35 -13 20 0 50 -7 66 -16 24 -12 37 -13 61 -5 87 31 211 4 257 -55 l20 -26 29 21 c61 43 155 188 192 295 24 71 47 195 54 296 l5 75 -90 144 c-191 307 -299 430 -439 500 -70 35 -91 41 -144 41 -35 -1 -81 -9 -109 -20z"
       id="path214"
       style="fill:#006400" />
    <path
       d="M7853 5083 c11 -65 21 -119 22 -121 2 -2 13 2 25 8 34 18 24 101 -20 174 -19 31 -37 56 -40 56 -4 0 2 -53 13 -117z"
       id="path216"
       style="fill:#00ff00" />
    <path
       d="M5886 5155 c-68 -163 -266 -221 -414 -121 l-48 32 24 -111 c14 -60 30 -116 36 -124 6 -8 34 -25 61 -37 56 -26 134 -30 199 -11 37 12 39 14 68 102 29 91 85 202 113 225 20 16 19 30 -4 59 l-19 25 -16 -39z"
       id="path218"
       style="fill:#00ff00" />
    <path
       d="M7682 5125 c-117 -22 -109 -14 -98 -100 5 -42 14 -75 20 -74 30 1 205 35 210 40 3 3 0 37 -7 75 -14 80 -13 79 -125 59z"
       id="path220"
       style="fill:#daa520" />
    <path
       d="M4855 5059 c-22 -10 -50 -19 -62 -19 -19 0 -25 -10 -39 -57 -9 -32 -22 -80 -30 -107 -8 -27 -12 -51 -9 -54 13 -14 81 15 130 54 l55 45 0 64 c0 35 3 70 6 79 8 20 -1 19 -51 -5z"
       id="path222"
       style="fill:#00ff00" />
    <path
       d="M6789 5044 c-13 -14 -36 -33 -51 -42 -16 -9 -28 -20 -28 -25 0 -7 38 -64 96 -146 4 -5 123 83 123 92 1 14 -93 146 -105 147 -6 0 -21 -12 -35 -26z"
       id="path224"
       style="fill:#b8860b" />
    <path
       d="M522 4965 c-33 -42 -11 -119 54 -192 l34 -38 -6 40 c-3 22 -11 78 -17 125 -13 95 -29 111 -65 65z"
       id="path226"
       style="fill:#006400" />
    <path
       d="M7682 4942 l-84 -15 7 -61 c4 -34 10 -64 14 -67 3 -4 54 -2 113 4 l107 10 -5 51 c-9 90 -12 96 -42 95 -15 -1 -64 -9 -110 -17z"
       id="path228"
       style="fill:#daa520" />
    <path
       d="M6888 4855 c-32 -25 -58 -49 -58 -53 0 -5 48 -107 67 -141 1 -2 34 18 72 44 l71 48 -22 36 c-45 75 -68 111 -71 111 -1 0 -28 -20 -59 -45z"
       id="path230"
       style="fill:#b8860b" />
    <path
       d="M7884 4835 c3 -38 6 -105 6 -147 0 -69 2 -78 18 -78 31 0 52 33 52 79 0 48 -29 138 -60 184 l-22 32 6 -70z"
       id="path232"
       style="fill:#00ff00" />
    <path
       d="M4882 4857 c-22 -26 -113 -67 -149 -67 -30 0 -33 -3 -48 -52 -21 -72 -20 -78 13 -73 15 3 65 10 111 15 46 5 86 12 88 14 2 2 3 43 1 91 -3 75 -5 86 -16 72z"
       id="path234"
       style="fill:#00ff00" />
    <path
       d="M7800 4783 c-14 -1 -60 -5 -103 -8 l-79 -7 7 -61 c4 -34 10 -65 14 -69 3 -3 52 -1 109 4 l103 11 -7 61 c-3 34 -9 63 -13 66 -3 3 -17 5 -31 3z"
       id="path236"
       style="fill:#daa520" />
    <path
       d="M5496 4757 c3 -12 20 -57 36 -101 24 -61 37 -82 60 -95 17 -9 57 -33 89 -53 l58 -37 5 32 c10 62 26 200 26 222 0 21 -2 22 -47 14 -56 -11 -119 -4 -186 21 l-48 18 7 -21z"
       id="path238"
       style="fill:#00ff00" />
    <path
       d="M6995 4694 c-57 -38 -85 -65 -85 -82 0 -8 14 -43 31 -77 l32 -62 71 39 c39 22 75 43 79 47 10 10 -63 161 -78 161 -6 0 -28 -12 -50 -26z"
       id="path240"
       style="fill:#b8860b" />
    <path
       d="M3013 4663 c3 -5 35 -24 71 -42 79 -41 145 -50 181 -27 61 40 9 66 -149 73 -68 4 -107 2 -103 -4z"
       id="path242"
       style="fill:#006400" />
    <path
       d="M2840 4611 c-108 -47 -159 -79 -139 -85 68 -22 196 -11 231 21 21 19 24 62 6 85 -12 15 -21 13 -98 -21z"
       id="path244"
       style="fill:#006400" />
    <path
       d="M4755 4616 l-110 -11 -17 -70 c-9 -39 -17 -114 -17 -167 l-1 -98 75 0 c254 0 533 -69 705 -175 89 -56 90 -55 191 53 65 69 139 193 139 231 0 17 -108 91 -195 135 -71 35 -266 92 -359 105 -93 13 -261 12 -411 -3z"
       id="path246"
       style="fill:#006400" />
    <path
       d="M7682 4613 l-43 -4 7 -77 c4 -42 7 -78 8 -79 1 -1 45 1 99 4 l97 6 0 78 0 79 -62 -2 c-35 -1 -82 -3 -106 -5z"
       id="path248"
       style="fill:#daa520" />
    <path
       d="M3385 4601 c24 -41 146 -64 194 -37 21 12 15 14 -70 24 -52 6 -103 14 -113 18 -14 5 -17 4 -11 -5z"
       id="path250"
       style="fill:#006400" />
    <path
       d="M3788 4568 c23 -8 39 -8 55 0 19 9 13 11 -33 10 -53 0 -54 -1 -22 -10z"
       id="path252"
       style="fill:#006400" />
    <path
       d="M7900 4411 c0 -87 4 -151 9 -151 60 0 97 63 81 136 -12 53 -51 134 -74 153 -14 12 -16 -1 -16 -138z"
       id="path254"
       style="fill:#00ff00" />
    <path
       d="M7095 4514 c-16 -9 -49 -27 -72 -40 l-42 -24 26 -63 c13 -34 28 -65 31 -69 7 -6 138 46 155 62 11 9 -42 150 -57 150 -6 -1 -24 -8 -41 -16z"
       id="path256"
       style="fill:#b8860b" />
    <path
       d="M2545 4465 c-38 -19 -85 -37 -102 -41 -51 -10 -39 -21 37 -35 90 -16 141 -5 154 32 9 27 1 80 -12 78 -4 0 -38 -16 -77 -34z"
       id="path258"
       style="fill:#006400" />
    <path
       d="M6931 4365 c-27 -198 -83 -337 -181 -452 -33 -37 -59 -70 -60 -73 0 -3 17 -7 38 -8 20 -2 55 -11 76 -22 l39 -19 33 34 c63 67 154 354 141 444 -3 20 -21 70 -40 111 l-34 75 -12 -90z"
       id="path260"
       style="fill:#7fff00" />
    <path
       d="M7752 4432 l-93 -3 3 -82 3 -82 95 0 95 0 3 50 c1 28 -1 66 -5 85 l-8 35 -93 -3z"
       id="path262"
       style="fill:#b8860b" />
    <path
       d="M2235 4374 c-33 -6 -94 -17 -135 -24 l-75 -13 35 -28 c57 -48 154 -64 197 -34 21 15 57 102 45 108 -4 2 -34 -2 -67 -9z"
       id="path264"
       style="fill:#006400" />
    <path
       d="M7131 4324 c-41 -19 -76 -36 -77 -37 -6 -5 31 -127 37 -127 11 0 169 61 169 66 0 8 -43 120 -49 125 -3 4 -40 -9 -80 -27z"
       id="path266"
       style="fill:#b8860b" />
    <path
       d="M1787 4316 l-119 -11 24 -22 c55 -51 169 -79 219 -53 21 12 49 60 49 85 0 17 -1 17 -173 1z"
       id="path268"
       style="fill:#006400" />
    <path
       d="M788 4307 c26 -31 105 -77 133 -77 29 0 59 22 59 44 0 8 -28 17 -77 24 -43 7 -89 15 -103 19 -22 6 -24 5 -12 -10z"
       id="path270"
       style="fill:#006400" />
    <path
       d="M1490 4293 c-25 -1 -70 -6 -99 -9 l-55 -6 25 -19 c44 -35 127 -69 167 -69 50 0 81 24 91 73 l9 37 -47 -2 c-25 -1 -66 -3 -91 -5z"
       id="path272"
       style="fill:#006400" />
    <path
       d="M1085 4250 c55 -58 144 -80 165 -41 5 11 10 31 10 45 l0 26 -102 0 -102 0 29 -30z"
       id="path274"
       style="fill:#006400" />
    <path
       d="M7667 4233 c-4 -3 -7 -44 -7 -90 l0 -83 100 0 100 0 0 84 c0 67 -3 85 -16 90 -21 8 -169 8 -177 -1z"
       id="path276"
       style="fill:#daa520" />
    <path
       d="M4623 4128 c1 -117 -13 -170 -68 -263 -19 -32 -35 -58 -35 -59 0 0 36 -1 80 -1 78 0 80 1 98 30 25 40 92 99 139 124 88 44 252 53 322 16 60 -30 126 -106 151 -171 32 -86 26 -198 -17 -276 l-30 -57 48 -67 c84 -115 141 -230 169 -341 l11 -43 82 0 c138 0 263 -43 353 -123 l44 -39 0 39 c0 57 -64 427 -77 442 -2 3 -18 -9 -36 -27 -93 -90 -261 -106 -340 -33 -90 83 -73 189 58 361 51 68 56 79 52 114 -7 51 -63 130 -146 208 -171 160 -396 236 -778 263 l-81 5 1 -102z"
       id="path278"
       style="fill:#006400" />
    <path
       d="M7191 4169 c-41 -15 -78 -32 -84 -38 -9 -9 8 -128 23 -151 4 -7 32 0 78 20 39 16 78 30 86 30 25 0 24 12 -3 91 l-26 75 -74 -27z"
       id="path280"
       style="fill:#b8860b" />
    <path
       d="M7035 4164 c-35 -158 -101 -318 -149 -363 l-25 -24 21 -30 c12 -16 31 -54 44 -85 l22 -54 25 43 c45 76 79 161 101 254 l23 90 -24 95 c-14 52 -26 97 -28 99 -2 2 -7 -10 -10 -25z"
       id="path282"
       style="fill:#7cfc00" />
    <path
       d="M7908 4045 c2 -69 7 -125 11 -125 21 0 51 49 51 84 0 33 -48 166 -60 166 -3 0 -4 -56 -2 -125z"
       id="path284"
       style="fill:#00ff00" />
    <path
       d="M3920 4097 c-186 -86 -329 -176 -434 -274 l-55 -52 15 -53 c38 -127 113 -255 198 -338 l46 -44 83 81 c92 91 185 161 334 252 l102 62 -23 34 c-28 41 -51 128 -66 250 -12 99 -29 135 -63 135 -12 0 -74 -24 -137 -53z"
       id="path286"
       style="fill:#006400" />
    <path
       d="M7650 3993 c0 -21 -3 -61 -6 -90 l-7 -52 104 -3 c57 -2 105 -3 106 -3 0 0 4 42 8 93 l8 92 -107 0 -106 0 0 -37z"
       id="path288"
       style="fill:#b8860b" />
    <path
       d="M7220 3977 c-84 -37 -83 -33 -60 -144 11 -49 14 -54 33 -49 12 3 58 15 103 28 l81 23 -25 88 c-18 62 -30 87 -41 87 -9 0 -50 -15 -91 -33z"
       id="path290"
       style="fill:#b8860b" />
    <path
       d="M4980 3969 c0 -8 6 -36 13 -64 12 -45 16 -50 44 -53 28 -3 33 2 61 52 34 63 34 63 -60 73 -46 5 -58 3 -58 -8z"
       id="path292"
       style="fill:#6b8e23" />
    <path
       d="M4920 3964 c-48 -16 -90 -38 -90 -48 1 -6 18 -30 39 -54 l38 -43 36 17 c35 17 37 20 31 53 -9 48 -22 81 -31 80 -5 0 -15 -3 -23 -5z"
       id="path294"
       style="fill:#9acd32" />
    <path
       d="M5144 3938 c-5 -7 -18 -31 -30 -53 l-21 -41 37 -35 37 -36 49 19 c27 11 53 23 57 27 11 11 -51 88 -90 112 -24 16 -33 17 -39 7z"
       id="path296"
       style="fill:#adff2f" />
    <path
       d="M6217 3912 c-31 -4 -57 -48 -57 -97 0 -25 1 -25 22 -11 35 25 76 20 107 -13 l27 -29 28 21 c15 11 49 22 75 25 37 3 52 0 75 -19 31 -25 56 -75 56 -113 l0 -25 48 25 c63 34 129 30 173 -12 61 -58 75 -120 40 -185 l-19 -35 52 4 c66 5 107 -14 130 -62 34 -72 13 -155 -60 -236 -33 -37 -34 -39 -14 -45 32 -10 60 -64 60 -113 0 -49 -31 -116 -60 -132 -21 -11 -21 -11 5 -41 34 -41 35 -112 2 -160 -20 -31 -71 -72 -99 -81 -8 -3 -6 -12 5 -28 48 -69 -21 -210 -102 -210 l-28 0 5 -70 c4 -54 1 -75 -12 -95 -24 -36 -72 -58 -116 -52 l-38 5 -5 -44 c-10 -95 -94 -151 -181 -121 -22 8 -48 17 -57 21 -12 5 -18 -3 -28 -34 -6 -22 -26 -56 -42 -75 -78 -88 -215 -37 -235 88 -8 44 -16 46 -38 12 -39 -59 -124 -82 -186 -50 -16 8 -31 24 -35 35 -3 11 -9 20 -13 20 -4 -1 -29 -21 -56 -46 -56 -52 -54 -59 28 -102 46 -24 61 -26 150 -25 97 1 99 1 123 -27 13 -16 49 -41 79 -56 49 -24 62 -26 120 -21 87 8 171 46 180 81 7 29 16 31 63 15 25 -9 43 -9 71 0 76 23 120 78 130 165 5 47 6 49 53 66 95 36 139 86 161 182 10 43 17 51 65 80 69 42 91 82 91 164 0 48 4 65 20 79 53 48 65 181 23 262 l-21 40 24 31 c63 80 87 216 49 280 -17 29 -17 31 6 78 59 123 3 301 -103 323 -29 6 -33 11 -39 47 -24 136 -108 213 -234 214 -56 0 -62 2 -78 29 -36 62 -167 92 -239 55 -26 -14 -35 -14 -52 -4 -28 18 -66 26 -99 22z"
       id="path298"
       style="fill:#daa520" />
    <path
       d="M7092 3867 c-13 -55 -79 -200 -112 -247 -11 -15 -20 -30 -20 -33 0 -3 18 -16 40 -28 22 -13 48 -34 56 -48 l17 -25 20 39 c29 58 57 144 57 179 0 37 -30 198 -39 208 -4 4 -12 -16 -19 -45z"
       id="path300"
       style="fill:#7fff00" />
    <path
       d="M3469 3891 c-13 -11 -21 -22 -18 -25 3 -3 16 5 29 19 28 30 22 33 -11 6z"
       id="path302"
       style="fill:#006400" />
    <path
       d="M4751 3864 c-23 -26 -41 -52 -41 -59 0 -7 30 -20 68 -30 89 -23 84 -24 95 6 8 22 4 33 -29 77 -22 28 -42 51 -46 51 -3 1 -25 -20 -47 -45z"
       id="path304"
       style="fill:#9acd32" />
    <path
       d="M7910 3830 c0 -25 -3 -82 -7 -127 -6 -78 -5 -83 14 -83 33 0 53 32 53 86 0 61 -14 111 -40 144 l-20 25 0 -45z"
       id="path306"
       style="fill:#00ff00" />
    <path
       d="M4955 3818 c-31 -17 -65 -50 -65 -64 0 -6 25 -24 57 -39 31 -16 85 -48 121 -72 77 -53 87 -49 87 42 0 54 -4 67 -25 90 -45 49 -128 70 -175 43z"
       id="path308"
       style="fill:#9acd32" />
    <path
       d="M7636 3819 c-7 -21 -27 -182 -23 -186 2 -2 53 -4 113 -6 l109 -2 8 94 c4 52 5 96 2 99 -2 3 -50 7 -105 10 -79 4 -101 2 -104 -9z"
       id="path310"
       style="fill:#b8860b" />
    <path
       d="M3360 3803 c-14 -10 -33 -27 -42 -38 -16 -19 -32 -64 -26 -71 2 -1 27 26 56 62 54 65 57 78 12 47z"
       id="path312"
       style="fill:#006400" />
    <path
       d="M7275 3784 c-44 -14 -84 -30 -89 -34 -5 -5 -3 -46 5 -95 l12 -87 31 6 c17 3 68 11 114 18 l83 12 -6 39 c-15 84 -41 162 -55 164 -8 1 -51 -9 -95 -23z"
       id="path314"
       style="fill:#b8860b" />
    <path
       d="M6198 3778 c-23 -22 -24 -27 -20 -175 2 -85 8 -153 13 -153 5 0 9 15 9 33 0 51 28 146 60 205 24 45 27 58 18 76 -22 42 -46 46 -80 14z"
       id="path316"
       style="fill:#00ff00" />
    <path
       d="M5220 3767 c-44 -21 -45 -23 -42 -64 3 -37 7 -44 30 -49 15 -3 40 -10 56 -15 15 -5 32 -6 37 -3 10 6 12 62 3 117 -8 43 -19 45 -84 14z"
       id="path318"
       style="fill:#adff2f" />
    <path
       d="M6373 3769 c-80 -40 -130 -140 -153 -304 -6 -44 -17 -116 -25 -160 -7 -44 -16 -116 -19 -160 l-6 -80 50 -27 50 -28 35 70 c19 38 46 98 59 132 13 35 49 117 81 183 73 152 85 187 85 242 0 115 -72 175 -157 132z"
       id="path320"
       style="fill:#00ff00" />
    <path
       d="M4421 3734 c-52 -30 -75 -38 -122 -39 -50 -1 -68 -8 -151 -57 -198 -119 -339 -233 -422 -342 -113 -148 -164 -293 -173 -487 l-6 -117 70 -4 c83 -4 126 -31 170 -106 24 -39 28 -58 28 -118 0 -60 -4 -76 -28 -113 -15 -23 -48 -55 -72 -70 l-45 -28 55 -88 c92 -146 190 -258 296 -338 57 -43 101 -31 137 39 38 73 18 221 -48 344 -135 256 -160 332 -163 490 -2 118 15 197 63 297 37 76 38 78 21 103 -27 39 -41 88 -41 147 0 122 93 212 218 213 63 0 83 -9 138 -62 l41 -39 64 22 c52 18 87 23 182 23 99 1 118 3 122 17 17 51 200 179 258 179 38 0 12 22 -85 70 -123 60 -231 89 -353 96 -89 5 -90 5 -154 -32z"
       id="path322"
       style="fill:#006400" />
    <path
       d="M3365 3698 c-33 -39 -36 -47 -32 -87 10 -95 147 -322 234 -388 l31 -24 36 54 c20 30 36 57 36 61 0 4 -16 21 -36 38 -72 64 -163 213 -200 331 -10 31 -21 57 -25 57 -4 0 -24 -19 -44 -42z"
       id="path324"
       style="fill:#7cfc00" />
    <path
       d="M6075 3629 c-16 -34 -54 -102 -84 -149 l-53 -85 26 -115 c44 -199 48 -231 55 -415 l6 -180 32 150 c18 83 38 179 44 215 14 86 23 475 12 569 l-8 74 -30 -64z"
       id="path326"
       style="fill:#556b2f" />
    <path
       d="M6624 3661 c-40 -24 -65 -61 -94 -136 -13 -33 -35 -82 -48 -110 -14 -27 -58 -126 -98 -219 l-72 -169 176 174 c97 96 199 190 227 209 53 37 95 99 95 140 0 32 -32 84 -63 105 -40 26 -88 29 -123 6z"
       id="path328"
       style="fill:#00ff00" />
    <path
       d="M3217 3620 c-22 -18 -53 -87 -43 -97 2 -2 20 22 40 53 21 31 36 58 33 60 -2 2 -16 -5 -30 -16z"
       id="path330"
       style="fill:#006400" />
    <path
       d="M5165 3603 c-5 -22 1 -33 38 -71 l44 -44 28 56 c15 31 26 58 24 60 -6 5 -96 26 -112 26 -8 0 -18 -12 -22 -27z"
       id="path332"
       style="fill:#adff2f" />
    <path
       d="M7126 3545 c-37 -82 -38 -85 -26 -136 15 -62 8 -141 -16 -191 -16 -33 -16 -41 -3 -64 19 -37 16 -167 -5 -219 -9 -21 -27 -53 -41 -71 l-24 -31 21 -42 c41 -84 26 -202 -35 -268 -15 -17 -18 -31 -14 -57 3 -18 1 -51 -3 -72 -8 -36 -5 -45 52 -137 55 -90 118 -237 118 -279 0 -32 19 -28 44 9 21 32 27 62 40 188 31 300 30 570 -5 975 -8 100 -57 471 -62 477 -1 1 -19 -36 -41 -82z"
       id="path334"
       style="fill:#7cfc00" />
    <path
       d="M3257 3551 l-38 -59 54 -109 c63 -124 121 -205 202 -283 l58 -54 24 62 25 62 -73 78 c-80 84 -155 208 -186 304 -10 32 -20 58 -23 58 -3 0 -22 -27 -43 -59z"
       id="path336"
       style="fill:#7cfc00" />
    <path
       d="M7592 3503 c-7 -53 -11 -97 -10 -99 2 -1 49 -4 106 -6 89 -3 103 -1 108 14 10 32 31 178 26 183 -3 3 -53 5 -112 5 l-106 0 -12 -97z"
       id="path338"
       style="fill:#daa520" />
    <path
       d="M4969 3561 c-84 -33 -189 -119 -189 -155 0 -10 112 -62 115 -53 0 1 13 18 27 38 32 44 126 95 193 105 l49 7 -44 38 c-51 44 -79 48 -151 20z"
       id="path340"
       style="fill:#556b2f" />
    <path
       d="M7390 3574 c-8 -1 -47 -8 -85 -14 -100 -16 -97 -12 -84 -106 6 -43 13 -80 14 -82 1 -1 28 4 61 13 32 8 82 15 111 15 51 0 53 1 53 27 0 14 -5 55 -11 90 -11 64 -14 67 -59 57z"
       id="path342"
       style="fill:#b8860b" />
    <path
       d="M7866 3458 c-10 -51 -21 -103 -23 -115 -7 -30 26 -31 52 -3 15 17 17 32 12 99 -8 122 -20 127 -41 19z"
       id="path344"
       style="fill:#00ff00" />
    <path
       d="M5100 3471 c-68 -21 -181 -101 -179 -127 0 -5 20 -23 44 -41 l43 -31 33 35 c46 48 103 73 167 73 60 0 60 3 4 64 -33 37 -58 43 -112 27z"
       id="path346"
       style="fill:#556b2f" />
    <path
       d="M3164 3387 l-37 -75 16 -44 c25 -65 113 -193 186 -270 58 -63 159 -146 164 -137 2 2 10 39 18 82 l15 77 -59 52 c-73 63 -137 148 -188 250 -21 43 -48 92 -58 109 l-20 32 -37 -76z"
       id="path348"
       style="fill:#7cfc00" />
    <path
       d="M3107 3439 c-25 -15 -47 -63 -47 -106 0 -46 8 -37 48 50 31 68 31 75 -1 56z"
       id="path350"
       style="fill:#006400" />
    <path
       d="M4153 3430 c-102 -24 -163 -137 -134 -247 6 -22 19 -51 29 -63 l17 -22 34 42 c29 37 32 45 22 66 -6 14 -11 43 -11 65 0 87 100 131 168 74 27 -22 34 -24 56 -14 14 7 26 15 26 19 0 9 -62 66 -87 79 -24 12 -72 13 -120 1z"
       id="path352"
       style="fill:#6b8e23" />
    <path
       d="M6795 3418 c-16 -6 -52 -25 -80 -43 -54 -34 -295 -263 -369 -350 l-45 -52 17 -36 c9 -20 22 -36 29 -37 35 -1 195 60 322 122 244 121 342 239 286 348 -29 57 -87 74 -160 48z"
       id="path354"
       style="fill:#00ff00" />
    <path
       d="M7365 3374 c-11 -2 -44 -10 -74 -16 l-53 -12 7 -75 c4 -42 8 -77 10 -79 2 -2 29 1 61 7 32 6 82 11 112 11 l55 0 -7 61 c-3 34 -6 73 -6 85 0 22 -4 24 -42 23 -24 -1 -52 -3 -63 -5z"
       id="path356"
       style="fill:#b8860b" />
    <path
       d="M7575 3369 c-4 -13 -25 -136 -25 -151 0 -11 194 3 201 15 12 18 32 127 25 134 -4 4 -49 9 -101 11 -74 3 -96 1 -100 -9z"
       id="path358"
       style="fill:#daa520" />
    <path
       d="M5141 3347 c-19 -6 -52 -28 -74 -48 l-39 -38 42 -54 42 -54 25 23 c40 37 113 66 165 66 l48 0 -23 40 c-42 76 -95 94 -186 65z"
       id="path360"
       style="fill:#556b2f" />
    <path
       d="M4174 3343 c-18 -14 -44 -57 -44 -75 0 -9 5 -29 10 -43 l10 -27 38 33 c21 19 52 44 68 56 26 19 28 23 13 37 -17 19 -79 31 -95 19z"
       id="path362"
       style="fill:#6b8e23" />
    <path
       d="M4491 3334 c-123 -33 -283 -140 -352 -235 l-18 -26 67 5 c78 5 121 -11 149 -56 9 -15 18 -28 19 -30 1 -2 22 18 46 44 48 52 126 94 176 94 25 0 42 9 71 40 47 50 86 53 131 13 23 -21 33 -40 37 -73 5 -34 15 -54 43 -82 29 -30 49 -59 77 -116 0 -2 20 9 42 24 26 17 61 29 97 33 l55 6 -41 82 c-69 139 -181 242 -300 277 -67 20 -225 20 -299 0z"
       id="path364"
       style="fill:#808000" />
    <path
       d="M3102 3250 c-6 -14 -24 -60 -41 -103 -49 -122 -99 -301 -122 -437 -38 -223 -17 -488 56 -708 66 -195 219 -437 428 -676 l19 -21 -6 25 c-33 143 -33 427 -1 550 23 85 81 209 137 291 l44 66 -31 79 c-17 44 -41 115 -53 159 -22 82 -47 294 -39 325 6 23 1 30 -50 63 -95 61 -228 216 -295 342 -35 66 -37 69 -46 45z"
       id="path366"
       style="fill:#008000" />
    <path
       d="M3005 3227 c-27 -23 -30 -30 -32 -103 l-3 -79 35 94 c20 52 34 98 32 104 -1 5 -16 -2 -32 -16z"
       id="path368"
       style="fill:#006400" />
    <path
       d="M7818 3230 c-3 -8 -14 -46 -23 -85 -10 -38 -20 -76 -23 -82 -6 -17 40 -17 56 -1 7 7 12 32 11 58 0 59 -14 129 -21 110z"
       id="path370"
       style="fill:#006400" />
    <path
       d="M5215 3197 c-27 -13 -59 -34 -69 -45 -19 -21 -18 -23 12 -90 66 -148 68 -276 6 -401 -95 -192 -335 -334 -510 -302 -83 16 -173 64 -242 132 -54 51 -67 59 -101 59 -86 0 -211 -105 -211 -177 0 -34 59 -120 125 -182 163 -154 477 -195 739 -97 281 106 496 427 496 741 0 118 -56 333 -96 366 -28 23 -96 21 -149 -4z"
       id="path372"
       style="fill:#808000" />
    <path
       d="M7336 3180 c-81 -14 -78 -10 -75 -104 2 -47 7 -87 11 -91 3 -3 43 -1 89 6 53 7 127 9 206 5 l122 -6 15 52 c24 84 36 132 36 141 0 4 -42 7 -94 7 -102 0 -106 -2 -106 -59 0 -15 -6 -35 -13 -46 -18 -24 -30 -7 -37 55 l-5 45 -50 2 c-27 0 -72 -3 -99 -7z"
       id="path374"
       style="fill:#b8860b" />
    <path
       d="M4667 3162 c-24 -26 -22 -29 19 -37 20 -3 51 -14 70 -22 19 -9 37 -14 40 -10 3 3 -2 23 -12 44 -17 34 -24 38 -60 41 -29 2 -45 -2 -57 -16z"
       id="path376"
       style="fill:#6b8e23" />
    <path
       d="M6701 3015 c-79 -40 -187 -87 -240 -105 -101 -35 -140 -55 -81 -43 50 10 420 10 452 -1 56 -17 122 86 104 159 -9 35 -41 65 -68 64 -13 -1 -88 -34 -167 -74z"
       id="path378"
       style="fill:#00ff00" />
    <path
       d="M4532 3062 c-60 -24 -120 -86 -156 -162 -43 -91 -43 -174 1 -257 23 -43 35 -57 49 -55 75 14 90 13 116 -7 31 -25 43 -67 29 -103 -9 -24 -7 -27 30 -42 23 -10 69 -16 112 -16 67 0 75 2 99 28 14 15 31 37 37 49 18 35 13 97 -9 126 -19 24 -24 25 -88 20 -80 -7 -123 10 -147 58 -27 51 -20 149 10 149 22 0 30 -21 30 -78 0 -70 19 -86 93 -79 218 22 200 283 -26 367 -64 24 -122 25 -180 2z"
       id="path380"
       style="fill:#808000" />
    <path
       d="M4134 3040 c-47 -19 -54 -26 -77 -78 -29 -65 -41 -102 -33 -102 3 0 20 9 39 20 69 41 153 46 228 16 22 -9 55 64 41 90 -37 68 -111 88 -198 54z"
       id="path382"
       style="fill:#808000" />
    <path
       d="M6162 3004 c3 -33 34 -40 52 -12 12 20 9 24 -27 33 -27 7 -28 6 -25 -21z"
       id="path384"
       style="fill:#daa520" />
    <path
       d="M2920 2997 c-16 -8 -26 -23 -28 -42 -5 -42 8 -139 17 -129 5 5 16 41 25 79 9 39 19 78 22 88 6 20 -2 21 -36 4z"
       id="path386"
       style="fill:#006400" />
    <path
       d="M5500 2983 c0 -52 14 -93 29 -93 39 0 191 -45 258 -75 43 -20 94 -54 126 -84 l54 -51 6 57 c5 51 3 62 -20 95 -67 97 -228 168 -385 168 -58 0 -68 -3 -68 -17z"
       id="path388"
       style="fill:#7fff00" />
    <path
       d="M6226 2971 c-19 -21 -19 -22 3 -45 15 -16 29 -22 46 -18 32 6 31 15 -3 53 l-27 31 -19 -21z"
       id="path390"
       style="fill:#808000" />
    <path
       d="M7723 2898 c-25 -78 -27 -94 -15 -102 21 -13 61 10 68 39 7 29 -3 123 -15 143 -5 9 -19 -20 -38 -80z"
       id="path392"
       style="fill:#00ff00" />
    <path
       d="M7415 2974 c-22 -3 -64 -9 -92 -15 l-53 -10 0 -77 0 -77 180 0 181 0 24 80 c27 88 25 95 -35 95 -19 0 -64 2 -100 4 -36 2 -83 2 -105 0z"
       id="path394"
       style="fill:#b8860b" />
    <path
       d="M6144 2933 c-12 -52 -45 -188 -50 -205 -4 -15 1 -18 28 -18 38 0 89 44 108 93 19 51 -12 120 -67 151 -8 4 -15 -3 -19 -21z"
       id="path396"
       style="fill:#808000" />
    <path
       d="M5030 2939 c-42 -17 -80 -60 -80 -90 0 -26 3 -27 45 -27 53 0 88 -20 115 -64 l19 -31 8 29 c13 49 8 153 -8 169 -19 20 -69 27 -99 14z"
       id="path398"
       style="fill:#808000" />
    <path
       d="M4095 2866 c-82 -38 -85 -44 -85 -154 l0 -96 38 36 c50 49 135 88 194 88 39 0 45 3 41 18 -2 9 0 37 5 60 10 41 9 43 -19 57 -42 22 -116 18 -174 -9z"
       id="path400"
       style="fill:#808000" />
    <path
       d="M6273 2883 c-7 -2 -13 -20 -13 -39 0 -20 -4 -44 -10 -54 -8 -15 -4 -23 20 -40 l30 -21 10 26 c11 29 13 95 4 119 -6 16 -18 19 -41 9z"
       id="path402"
       style="fill:#daa520" />
    <path
       d="M5510 2811 l0 -58 60 -7 c94 -11 209 -74 297 -163 l72 -73 11 38 c21 76 14 99 -42 155 -78 77 -194 128 -365 160 l-33 7 0 -59z"
       id="path404"
       style="fill:#7fff00" />
    <path
       d="M6530 2854 c-30 -2 -83 -6 -117 -10 l-62 -5 -11 -56 c-7 -30 -10 -56 -8 -57 1 -2 35 -13 73 -26 39 -12 116 -40 171 -61 139 -52 186 -57 244 -27 111 60 119 171 17 225 -32 17 -182 25 -307 17z"
       id="path406"
       style="fill:#00ff00" />
    <path
       d="M4945 2775 c-32 -31 -31 -43 0 -51 36 -9 74 -59 82 -107 l6 -41 29 34 c52 62 50 137 -5 170 -44 27 -83 25 -112 -5z"
       id="path408"
       style="fill:#808000" />
    <path
       d="M7350 2773 c-75 -11 -70 -5 -70 -104 0 -79 2 -90 16 -85 21 8 103 16 189 19 l70 3 27 64 c39 95 38 96 -33 104 -64 6 -156 6 -199 -1z"
       id="path410"
       style="fill:#b8860b" />
    <path
       d="M2857 2732 c-20 -22 -21 -60 -3 -127 16 -58 22 -48 30 47 4 37 9 75 12 83 9 21 -19 19 -39 -3z"
       id="path412"
       style="fill:#006400" />
    <path
       d="M6198 2717 c-29 -23 -40 -77 -16 -77 21 0 98 51 98 65 0 14 -30 35 -47 35 -4 -1 -20 -11 -35 -23z"
       id="path414"
       style="fill:#daa520" />
    <path
       d="M5492 2674 c-7 -31 -12 -61 -12 -64 0 -4 17 -10 38 -14 108 -17 272 -134 323 -231 26 -49 34 -54 42 -27 3 9 14 42 25 72 24 65 22 71 -56 152 -88 92 -188 146 -305 163 l-44 7 -11 -58z"
       id="path416"
       style="fill:#7fff00" />
    <path
       d="M4155 2696 c-27 -13 -70 -44 -94 -69 l-44 -46 28 -88 c27 -88 27 -88 44 -63 57 87 134 140 206 143 36 2 44 5 39 17 -4 8 -15 37 -26 65 -11 27 -25 53 -31 57 -22 14 -72 8 -122 -16z"
       id="path418"
       style="fill:#808000" />
    <path
       d="M7641 2659 c-25 -66 -20 -88 10 -50 12 15 19 39 19 67 0 24 -2 44 -4 44 -2 0 -13 -27 -25 -61z"
       id="path420"
       style="fill:#006400" />
    <path
       d="M4873 2689 c-18 -12 -33 -23 -33 -25 0 -2 11 -20 25 -40 31 -45 32 -97 5 -141 -23 -38 -21 -39 23 -17 94 49 129 106 103 168 -27 64 -75 85 -123 55z"
       id="path422"
       style="fill:#808000" />
    <path
       d="M6331 2682 c61 -40 258 -215 288 -256 44 -59 78 -73 121 -51 36 19 75 94 66 128 -11 44 -31 58 -101 73 -39 8 -115 32 -170 53 -100 39 -199 71 -219 71 -6 0 1 -8 15 -18z"
       id="path424"
       style="fill:#00ff00" />
    <path
       d="M6074 2667 c-3 -10 -4 -20 -2 -21 10 -9 68 -14 73 -7 10 18 -7 39 -36 43 -22 3 -30 0 -35 -15z"
       id="path426"
       style="fill:#daa520" />
    <path
       d="M6255 2648 c-22 -17 -39 -33 -38 -36 4 -18 190 -333 220 -374 42 -58 82 -87 127 -95 78 -12 134 103 91 188 -10 19 -30 49 -44 68 -30 40 -209 202 -273 247 l-43 31 -40 -29z"
       id="path428"
       style="fill:#00ff00" />
    <path
       d="M3564 2662 c-6 -4 -9 -26 -6 -49 4 -42 5 -43 42 -43 52 0 68 -8 85 -41 26 -50 19 -104 -18 -146 -33 -36 -33 -39 -20 -71 13 -32 14 -32 41 -18 47 24 99 90 107 134 14 85 -35 186 -107 221 -44 21 -103 27 -124 13z"
       id="path430"
       style="fill:#6b8e23" />
    <path
       d="M6075 2610 c-14 -26 -45 -201 -86 -488 -17 -120 16 -224 82 -261 24 -13 32 -13 73 3 36 14 52 28 74 64 25 43 27 55 26 147 -1 103 -15 202 -61 412 l-26 121 -39 4 c-22 2 -41 1 -43 -2z"
       id="path432"
       style="fill:#00ff00" />
    <path
       d="M6184 2595 c22 -59 79 -368 84 -464 l7 -114 35 -18 c56 -30 106 -25 146 15 29 29 34 41 34 81 0 42 -5 53 -47 99 -27 29 -61 77 -77 107 -48 91 -178 309 -183 309 -3 0 -3 -7 1 -15z"
       id="path434"
       style="fill:#00ff00" />
    <path
       d="M4450 2569 l-25 -11 50 -44 c27 -24 54 -43 60 -41 15 5 18 72 3 85 -21 17 -61 22 -88 11z"
       id="path436"
       style="fill:#6b8e23" />
    <path
       d="M5463 2563 c-27 -75 -49 -124 -77 -172 l-32 -56 28 -39 c31 -43 58 -122 58 -171 0 -96 -70 -208 -155 -246 -108 -50 -260 4 -315 111 l-19 37 -53 -13 c-86 -23 -228 -37 -302 -30 -63 6 -68 5 -61 -11 42 -99 42 -197 0 -292 -16 -34 -25 -65 -21 -68 4 -4 80 -7 169 -7 179 1 285 19 446 76 270 95 522 285 665 501 66 100 67 109 11 193 -52 80 -145 148 -251 184 -70 24 -83 25 -91 3z"
       id="path438"
       style="fill:#008000" />
    <path
       d="M7348 2570 c-26 -5 -52 -11 -57 -15 -7 -3 -11 -43 -11 -91 l0 -86 28 7 c16 3 56 7 90 8 l61 1 41 89 c22 48 40 90 40 92 0 8 -140 3 -192 -5z"
       id="path440"
       style="fill:#b8860b" />
    <path
       d="M3577 2543 c-10 -17 37 -163 52 -163 5 0 19 12 31 28 42 52 7 142 -56 142 -12 0 -25 -3 -27 -7z"
       id="path442"
       style="fill:#6b8e23" />
    <path
       d="M7555 2463 c-16 -36 -31 -70 -33 -75 -2 -4 6 -8 17 -8 12 0 26 11 35 28 17 33 32 122 20 122 -5 0 -22 -30 -39 -67z"
       id="path444"
       style="fill:#006400" />
    <path
       d="M2816 2474 c-9 -8 -16 -24 -16 -33 0 -26 27 -88 57 -130 l25 -36 -6 70 c-3 39 -6 87 -6 108 0 30 -4 37 -19 37 -11 0 -27 -7 -35 -16z"
       id="path446"
       style="fill:#006400" />
    <path
       d="M5986 2408 c-36 -91 -162 -283 -239 -365 -27 -29 -29 -34 -18 -61 20 -49 77 -65 130 -38 36 19 89 80 95 109 12 55 57 390 53 394 -3 2 -12 -15 -21 -39z"
       id="path448"
       style="fill:#00ff00" />
    <path
       d="M7315 2361 c-26 -5 -31 -12 -37 -46 -9 -52 -26 -239 -23 -243 5 -5 109 156 150 231 l37 67 -49 -1 c-26 -1 -61 -4 -78 -8z"
       id="path450"
       style="fill:#b8860b" />
    <path
       d="M6931 2306 c-12 -13 -39 -31 -61 -41 -34 -15 -39 -22 -42 -59 -4 -36 1 -48 41 -101 58 -75 117 -192 132 -262 7 -29 16 -53 20 -53 4 0 33 29 64 65 l57 65 -26 90 c-14 50 -35 110 -47 133 -21 42 -109 187 -113 187 -2 0 -13 -11 -25 -24z"
       id="path452"
       style="fill:#7cfc00" />
    <path
       d="M5307 2275 l-27 -34 25 -53 c29 -62 30 -76 11 -123 -22 -51 -68 -75 -144 -75 -60 0 -66 2 -100 36 -32 32 -37 34 -64 23 -15 -6 -28 -19 -28 -27 0 -9 24 -39 53 -67 78 -76 161 -94 244 -54 95 46 154 160 133 255 -14 60 -42 125 -61 141 -12 10 -20 6 -42 -22z"
       id="path454"
       style="fill:#6b8e23" />
    <path
       d="M7441 2247 c-24 -42 -30 -62 -23 -69 17 -17 40 8 53 54 19 71 6 77 -30 15z"
       id="path456"
       style="fill:#006400" />
    <path
       d="M2872 2208 c-22 -22 -14 -81 17 -130 35 -55 58 -73 47 -37 -4 13 -15 59 -24 102 -9 42 -19 77 -22 77 -3 0 -11 -5 -18 -12z"
       id="path458"
       style="fill:#006400" />
    <path
       d="M5229 2194 c-13 -14 -56 -47 -96 -74 l-71 -48 29 -28 c22 -21 41 -28 84 -32 52 -4 56 -3 90 31 28 28 35 43 35 74 0 31 -30 103 -43 103 -2 0 -14 -12 -28 -26z"
       id="path460"
       style="fill:#6b8e23" />
    <path
       d="M3572 2127 c-56 -90 -90 -167 -118 -267 -15 -52 -18 -104 -19 -255 0 -174 2 -196 24 -263 18 -56 36 -87 74 -128 27 -30 54 -54 60 -54 6 0 20 9 32 20 l21 20 -32 67 c-60 123 -89 298 -74 435 17 149 64 284 124 356 15 16 26 34 26 40 0 12 -49 100 -59 106 -4 3 -30 -32 -59 -77z"
       id="path462"
       style="fill:#7cfc00" />
    <path
       d="M4181 2099 c38 -123 18 -244 -50 -302 l-32 -26 23 -15 c13 -8 36 -20 52 -27 27 -13 30 -11 62 23 91 100 75 285 -31 372 l-43 35 19 -60z"
       id="path464"
       style="fill:#556b2f" />
    <path
       d="M6766 2084 c-21 -24 -55 -51 -77 -60 l-38 -17 47 -52 c51 -56 124 -194 144 -271 6 -27 15 -52 18 -56 3 -4 36 23 73 60 l67 67 -20 74 c-11 40 -34 100 -51 134 -34 66 -105 168 -117 166 -4 0 -24 -21 -46 -45z"
       id="path466"
       style="fill:#7cfc00" />
    <path
       d="M7326 2068 c-36 -52 -36 -53 -15 -63 30 -13 59 24 59 76 0 21 -2 39 -4 39 -2 0 -20 -24 -40 -52z"
       id="path468"
       style="fill:#006400" />
    <path
       d="M3665 2016 c-126 -198 -139 -509 -29 -741 28 -59 38 -63 93 -44 23 8 31 17 31 35 0 14 6 39 14 57 11 28 11 36 -1 53 -26 35 -54 148 -57 234 -5 111 8 187 48 280 l32 75 -39 50 c-22 28 -43 51 -48 53 -4 2 -24 -21 -44 -52z"
       id="path470"
       style="fill:#7cfc00" />
    <path
       d="M4294 2044 c46 -112 27 -242 -47 -321 l-20 -23 36 -15 c55 -23 64 -19 104 40 32 50 37 64 41 136 6 107 -13 159 -66 179 -20 8 -41 17 -46 19 -5 2 -6 -5 -2 -15z"
       id="path472"
       style="fill:#556b2f" />
    <path
       d="M4426 1964 c27 -86 -3 -231 -57 -280 -28 -25 -24 -30 29 -44 26 -7 55 -14 64 -17 21 -5 51 50 73 132 10 41 12 70 5 113 -11 67 -38 132 -55 132 -7 0 -26 3 -43 6 l-31 6 15 -48z"
       id="path474"
       style="fill:#556b2f" />
    <path
       d="M6610 1938 c-12 -56 -32 -95 -61 -116 -17 -12 -15 -17 22 -86 44 -82 98 -228 99 -264 0 -13 4 -22 9 -20 5 2 43 36 85 75 70 68 75 75 69 105 -20 108 -137 318 -193 348 -16 9 -20 4 -30 -42z"
       id="path476"
       style="fill:#7cfc00" />
    <path
       d="M2930 1946 c-30 -33 -21 -84 25 -134 37 -42 102 -84 92 -61 -34 84 -90 215 -91 216 -2 2 -13 -8 -26 -21z"
       id="path478"
       style="fill:#006400" />
    <path
       d="M7201 1904 c-31 -38 -41 -58 -34 -65 16 -16 47 -2 64 28 18 32 32 93 21 93 -4 -1 -27 -26 -51 -56z"
       id="path480"
       style="fill:#006400" />
    <path
       d="M3788 1888 c-63 -130 -66 -347 -5 -476 20 -43 20 -43 41 -24 30 28 61 42 90 42 14 0 26 2 26 4 0 2 -11 28 -25 57 -54 120 -67 224 -39 319 l16 53 -39 39 -39 39 -26 -53z"
       id="path482"
       style="fill:#7cfc00" />
    <path
       d="M5492 1811 c-227 -163 -532 -260 -820 -261 -113 -1 -116 -1 -87 -17 17 -8 38 -23 48 -32 14 -12 35 -15 81 -13 55 3 66 1 93 -22 17 -14 36 -38 42 -53 11 -26 15 -28 70 -28 48 0 64 -5 95 -28 22 -17 39 -40 43 -58 3 -16 10 -29 15 -29 40 0 235 136 336 234 107 103 212 259 212 314 0 16 -28 52 -41 52 -2 0 -41 -27 -87 -59z"
       id="path484"
       style="fill:#006400" />
    <path
       d="M3901 1808 c-28 -89 -18 -187 30 -298 l22 -51 21 24 c45 53 127 81 193 67 31 -7 41 -5 66 16 19 16 41 24 65 24 46 0 34 11 -45 39 -73 27 -167 81 -247 142 -32 24 -67 50 -76 57 -16 12 -19 9 -29 -20z"
       id="path486"
       style="fill:#006400" />
    <path
       d="M5631 1773 c-26 -75 -106 -189 -191 -274 -80 -79 -269 -218 -330 -241 l-25 -10 30 -13 c17 -7 43 -27 59 -44 17 -17 33 -31 37 -31 13 0 170 110 228 159 100 84 298 355 316 432 6 24 3 27 -42 40 -26 7 -53 15 -58 16 -6 2 -17 -13 -24 -34z"
       id="path488"
       style="fill:#7cfc00" />
    <path
       d="M5850 1782 l-55 -4 -42 -86 c-54 -111 -178 -277 -274 -367 -41 -39 -117 -99 -169 -134 l-94 -63 2 -41 c2 -23 -2 -57 -7 -75 -9 -31 -9 -33 12 -26 73 22 226 117 336 208 164 135 337 388 364 532 9 47 -8 60 -73 56z"
       id="path490"
       style="fill:#7fff00" />
    <path
       d="M6477 1779 c-10 -6 -42 -9 -70 -7 -46 3 -54 0 -75 -24 -28 -33 -93 -59 -168 -67 l-57 -6 -18 -52 c-59 -173 -274 -471 -432 -598 -81 -65 -240 -159 -302 -177 -36 -12 -46 -36 -26 -67 19 -29 327 42 554 128 203 78 377 175 527 296 71 57 233 204 238 216 2 4 -6 46 -17 93 -21 88 -107 276 -125 276 -6 0 -19 -5 -29 -11z"
       id="path492"
       style="fill:#00aa44" />
    <path
       d="M7051 1729 c-48 -54 -52 -62 -38 -76 24 -24 52 -1 77 67 12 33 21 63 18 65 -2 2 -28 -23 -57 -56z"
       id="path494"
       style="fill:#006400" />
    <path
       d="M5940 1692 c-6 -26 -32 -86 -57 -134 -123 -233 -337 -441 -570 -555 l-93 -46 40 -38 c22 -22 40 -43 40 -49 0 -5 8 -10 18 -10 24 0 173 76 253 130 167 113 412 422 483 612 l26 68 -36 15 c-19 8 -48 24 -63 35 l-29 20 -12 -48z"
       id="path496"
       style="fill:#7fff00" />
    <path
       d="M3061 1672 c-14 -26 -14 -58 0 -83 11 -22 95 -79 115 -79 10 0 -79 156 -100 178 -3 2 -9 -5 -15 -16z"
       id="path498"
       style="fill:#006400" />
    <path
       d="M6858 1536 c-51 -47 -64 -66 -56 -74 38 -38 102 18 129 110 4 15 5 28 1 28 -4 -1 -37 -29 -74 -64z"
       id="path500"
       style="fill:#006400" />
    <path
       d="M4420 1560 c14 -11 31 -17 38 -15 8 3 28 5 45 6 30 1 31 1 7 8 -14 4 -45 11 -70 14 l-45 7 25 -20z"
       id="path502" />
    <path
       d="M4249 1542 c-33 -28 -37 -30 -75 -20 -76 21 -164 -15 -190 -77 -11 -27 -20 -35 -39 -35 -41 0 -88 -24 -123 -64 -31 -35 -38 -53 -44 -105 -3 -21 -13 -28 -61 -42 -59 -18 -97 -43 -97 -63 1 -6 21 -28 45 -49 44 -37 45 -38 45 -14 0 36 36 75 81 88 36 11 39 15 39 47 0 88 103 158 187 129 19 -7 25 -4 33 17 15 40 53 59 105 54 42 -5 46 -4 64 28 36 61 142 69 172 12 9 -17 12 -17 32 -3 45 32 128 12 153 -37 l14 -28 38 20 c79 43 158 7 169 -77 5 -40 6 -41 34 -31 66 23 129 -25 129 -98 l0 -42 38 4 c45 6 93 -21 122 -68 26 -42 25 -74 -1 -123 -13 -24 -17 -41 -11 -43 54 -18 93 -97 74 -151 l-11 -30 47 6 c26 3 57 10 69 14 22 8 22 10 8 56 -14 45 -47 85 -102 123 -22 15 -22 16 -7 79 14 59 14 69 -1 106 -20 54 -51 82 -100 93 -36 7 -40 11 -46 45 -3 22 -18 51 -34 67 -26 27 -35 30 -96 30 l-67 0 -12 34 c-20 62 -74 88 -139 66 -35 -11 -39 -10 -70 19 -42 39 -95 56 -141 44 -30 -8 -41 -6 -72 15 -21 13 -57 27 -81 29 -38 5 -48 1 -78 -25z"
       id="path504"
       style="fill:#daa520" />
    <path
       d="M4285 1456 c-58 -25 -71 -64 -40 -116 28 -47 39 -77 70 -194 14 -55 28 -102 32 -105 3 -4 3 48 0 115 -5 122 0 172 25 232 12 32 12 35 -15 58 -32 28 -32 28 -72 10z"
       id="path506"
       style="fill:#00ff00" />
    <path
       d="M3211 1436 c-18 -32 -7 -72 24 -92 35 -23 118 -47 108 -31 -6 11 -94 120 -112 140 -4 4 -13 -4 -20 -17z"
       id="path508"
       style="fill:#006400" />
    <path
       d="M4422 1417 c-45 -48 -54 -104 -46 -309 l7 -188 31 -9 c17 -5 39 -12 48 -16 14 -6 21 7 43 78 45 149 77 308 72 360 -5 61 -37 96 -93 104 -32 4 -43 1 -62 -20z"
       id="path510"
       style="fill:#00ff00" />
    <path
       d="M6657 1348 c-37 -33 -67 -64 -67 -69 0 -18 57 -9 77 14 22 23 67 107 61 112 -2 2 -34 -23 -71 -57z"
       id="path512"
       style="fill:#006400" />
    <path
       d="M4666 1389 c-47 -13 -66 -37 -66 -84 0 -46 -31 -212 -54 -288 -8 -26 -13 -47 -12 -47 2 0 38 52 81 116 43 63 98 132 122 152 41 34 44 40 38 72 -13 70 -47 95 -109 79z"
       id="path514"
       style="fill:#00ff00" />
    <path
       d="M4093 1375 c-34 -24 -39 -76 -15 -148 21 -65 132 -279 167 -322 l20 -26 42 18 c24 10 43 23 43 29 0 7 -18 74 -40 150 -22 77 -47 162 -55 191 -11 36 -27 62 -55 87 -43 39 -73 45 -107 21z"
       id="path516"
       style="fill:#00ff00" />
    <path
       d="M3914 1301 c-40 -24 -64 -58 -64 -91 0 -35 6 -41 83 -79 48 -24 99 -63 173 -133 57 -55 104 -97 104 -94 0 3 -25 51 -56 107 -66 119 -99 191 -109 239 -4 19 -14 43 -23 53 -20 22 -69 22 -108 -2z"
       id="path518"
       style="fill:#00ff00" />
    <path
       d="M4784 1245 c-45 -27 -80 -70 -203 -251 -86 -127 -85 -123 -52 -173 8 -12 35 5 143 86 179 136 219 173 246 225 28 58 28 83 -3 113 -31 32 -78 32 -131 0z"
       id="path520"
       style="fill:#00ff00" />
    <path
       d="M3396 1224 c-11 -29 -6 -50 19 -74 22 -21 125 -63 133 -55 4 4 -135 145 -142 145 -2 0 -7 -7 -10 -16z"
       id="path522"
       style="fill:#006400" />
    <path
       d="M6465 1179 c-67 -55 -74 -66 -50 -75 22 -9 81 20 98 48 18 28 30 78 20 77 -5 0 -35 -22 -68 -50z"
       id="path524"
       style="fill:#006400" />
    <path
       d="M3760 1120 c-12 -12 -20 -33 -20 -55 0 -30 7 -40 48 -70 108 -81 399 -197 430 -173 14 12 16 38 3 38 -6 0 -65 52 -132 116 -79 75 -139 124 -173 140 -64 30 -128 32 -156 4z"
       id="path526"
       style="fill:#00ff00" />
    <path
       d="M4898 1064 c-35 -36 -109 -101 -167 -145 -57 -43 -100 -79 -95 -79 5 0 50 16 99 35 123 49 198 67 273 67 55 0 65 4 82 26 54 68 -1 162 -94 162 -31 0 -44 -9 -98 -66z"
       id="path528"
       style="fill:#00ff00" />
    <path
       d="M6278 1041 c-63 -40 -70 -51 -33 -51 27 0 100 60 94 76 -2 6 -30 -6 -61 -25z"
       id="path530"
       style="fill:#006400" />
    <path
       d="M3598 1015 c-9 -21 -8 -28 7 -44 16 -19 113 -47 136 -39 9 3 -114 108 -126 108 -3 0 -11 -11 -17 -25z"
       id="path532"
       style="fill:#006400" />
    <path
       d="M6068 927 c-38 -17 -68 -34 -68 -38 0 -5 9 -13 21 -19 16 -9 27 -7 51 7 30 18 76 69 67 76 -2 2 -34 -10 -71 -26z"
       id="path534"
       style="fill:#006400" />
    <path
       d="M4865 896 c-114 -35 -318 -119 -322 -133 -5 -16 19 -21 137 -32 122 -11 424 -5 451 9 33 18 42 57 22 98 -28 56 -63 76 -141 79 -49 2 -89 -4 -147 -21z"
       id="path536"
       style="fill:#00ff00" />
    <path
       d="M4323 878 c-32 -11 -91 -63 -81 -73 4 -5 119 -28 241 -49 37 -7 38 -7 31 21 -23 97 -91 133 -191 101z"
       id="path538"
       style="fill:#daa520" />
    <path
       d="M3830 856 c0 -40 40 -58 106 -46 l39 6 -69 32 c-38 18 -70 32 -72 32 -2 0 -4 -11 -4 -24z"
       id="path540"
       style="fill:#006400" />
    <path
       d="M5838 833 c-68 -26 -79 -38 -56 -61 27 -27 77 -2 111 57 10 17 17 31 15 30 -2 0 -33 -12 -70 -26z"
       id="path542"
       style="fill:#006400" />
    <path
       d="M4045 769 c-18 -56 35 -81 125 -59 43 10 77 30 53 30 -4 0 -45 11 -90 24 -80 23 -83 23 -88 5z"
       id="path544"
       style="fill:#006400" />
    <path
       d="M5637 769 c-79 -20 -85 -24 -71 -47 21 -33 60 -26 106 17 24 22 41 41 38 44 -3 2 -36 -4 -73 -14z"
       id="path546"
       style="fill:#006400" />
    <path
       d="M5391 716 c-61 -13 -71 -24 -41 -51 17 -15 24 -16 49 -6 16 7 41 26 57 42 32 34 27 35 -65 15z"
       id="path548"
       style="fill:#006400" />
    <path
       d="M4280 697 c0 -50 46 -59 135 -27 55 19 58 18 -53 40 -75 14 -82 13 -82 -13z"
       id="path550"
       style="fill:#006400" />
    <path
       d="M5153 678 c-76 -10 -88 -21 -57 -52 24 -24 67 -19 112 13 73 54 71 55 -55 39z"
       id="path552"
       style="fill:#006400" />
    <path
       d="M4560 660 c0 -9 9 -25 20 -35 21 -19 40 -17 111 14 l44 19 -35 5 c-19 4 -59 8 -87 10 -45 3 -53 1 -53 -13z"
       id="path554"
       style="fill:#006400" />
    <path
       d="M4820 641 c0 -23 25 -51 46 -51 18 0 92 29 129 52 l30 18 -102 0 c-95 0 -103 -1 -103 -19z"
       id="path556"
       style="fill:#006400" />
  </g>
</svg>
