<?xml version="1.0" encoding="utf-8"?>
<!-- Generator: Adobe Illustrator 24.1.0, SVG Export Plug-In . SVG Version: 6.00 Build 0)  -->
<svg version="1.1" baseProfile="tiny" id="图层_1"
	 xmlns="http://www.w3.org/2000/svg" xmlns:xlink="http://www.w3.org/1999/xlink" x="0px" y="0px" viewBox="0 0 800.6 1080.6"
	 xml:space="preserve">
<path fill="#D8988F" d="M446.4,710.6c0-0.5-0.1-0.8-0.2-1.1c-0.2,0.2-0.4,0.3-0.7,0.4c-1.4,0.5-2.8,1-4.2,1.5
	c-1.5,1.3-3,2.6-4.5,3.9c-0.7,0.6-1.3,1.2-2.1,0.5c-0.5-0.5-0.7-1.3-0.4-2c-1,0.3-2,0.6-3.1,0.8c3.1,3.5,5.7,7.8,7.7,12.7
	c0.5,1.3,0.5,3.4,2.5,3.3c1.7-0.1,2.3-1.8,2.8-3.2C446.3,721.9,446.7,716.2,446.4,710.6z"/>
<path fill="#90BEEF" d="M488.8,569.8c0.8-0.4,1.6-0.7,2.3-1.1c0.5-3.1,1.4-6.2,1.7-9.7C490.9,562.4,489.5,566,488.8,569.8z"/>
<path fill="#F9EBE0" d="M466.8,687.4c-0.5-0.1-1-0.2-1.6-0.3c1.4-0.5,2.7-1,3.9-1.4c2-1.5,4-3,6.2-4.3c2.9-1.9,6-3.5,9.2-4.8
	c17.1-25.7,29.2-53.4,32.8-84.5c1-8.9,3.2-17.7,4.7-26.6c0.4-2.4,1.5-3.4,3.9-3.5c10.3-0.5,17.2-5.7,20.5-15.4
	c5.5-16.2,15.4-30.2,22-45.9c3.3-8,6.3-16.2,6.8-25c0.7-13.7-6.8-24.4-13.6-35.3c-2.3-3.5-5-6.7-8.1-9.5c-1.1-1.1-2.4-2.8-3.6-1.1
	c-1.3,1.7,2.4,0.8,1.7,2.7c-6.8,0.1-12.2-3.9-18.2-6c-3.8-1.3-6.2-1.6-8.3,2.8c-2.2,4.5-5.3,8.7-10.5,10.9c-3.7,1.6-2.7,6-2.5,9
	c0.5,7.3,2.3,14.5,2.7,21.8c2,29.5,2.1,58.9-7,87.5c0,0.1-0.1,0.2-0.1,0.3c0.4-0.3,0.7-0.7,1-1.1c1.7-1.9,4.4,0.9,2.7,2.7
	c-3.2,3.6-7.6,6.2-11.8,8.4c-0.1,0.1-0.3,0.1-0.4,0.2c-1.4,3-5.3,3.8-7.9,6.3c-0.2-0.8-0.3-1.5-0.3-2.3c-0.9,0.5-1.9,0.9-2.8,1.4
	c-0.5,2-1.8,3.8-3.6,4.9c-5,3.1-9.7,6.5-14.6,9.6c-2,1.3-4.6,3.9-6.6,1.7c-0.3-0.4-0.6-0.8-0.7-1.3c-0.9,0.6-1.9,1.1-2.8,1.7
	c-0.8,3-2.4,5.1-5.6,6.4c-2.8,1.1-5.3,2.8-8.2,3.6c-0.2,0.2-0.4,0.3-0.5,0.5c-0.9,0.8-1.9,0.6-2.6,0c-2.3,0.6-2.9,3.7-5.8,4
	c3.3-18.5,9.5-36.4,9.1-55.3c-0.2-7.8-0.5-15.6-0.8-23.4c-0.4-0.2-0.7-0.4-1-0.8c-1.7-2.3-3.2-4.8-4.4-7.3c-2.3,2.2-4.7,4.4-7.4,7
	c3.5,0.1,5.3-2.9,8.8-2.9c-1.5,4.8-6.7,3.8-9.5,6.8c2.8,1.3,5.6-0.3,8.3,1.4c-2.9,2.7-6.6,2.9-9.7,2.8c-4.7-0.1-8.3,1.7-11.8,4.3
	c-2,1.5-4.1,2.9-6.3,4c-2.7,1.3-4,3.2-3.8,6.3c0.1,1-0.1,2-0.5,2.9c-0.7,1.8-0.6,5-2.6,4.8c-2.4-0.2-2.1-3.4-2.1-5.4
	c0.1-3.4-1-3.8-3.7-2.1c-1.8,1-3.6,1.8-5.4,2.5c-4.9,2.1-10.1,3.5-12.4,9.7c-1.3,3.5-5.4,5.3-8.7,7.3c-0.9,0.5-2.2,1.6-3,0.1
	c-0.6-1.1,0.6-1.7,1.4-2.2c2.3-1.4,4.2-3.3,5.5-5.7c0.5-0.8,1.3-1.8,0.6-2.7s-1.8-0.3-2.7,0.1c-6.5,2.5-13.3,4.3-20.2,5.4
	c4.1-4.5,9.6-3.3,13.8-6.5c-4.3-0.5-7.6,2.1-11.3,1.6c-0.2-2.4,1.5-2.2,2.6-2.4c16.3-3.2,30.6-11.1,45.1-18.6
	c10.8-5.6,22.1-10.2,31.8-17.8c0.9-0.7,1.9-1,3-1c-1.8-3.7-3.1-7.5-3.9-11.5c-1.4-6.8-1.7-13.8-1.7-20.8c0-0.9,0.6-1.5,1.3-1.8
	c-0.5-2.7-1.1-5.3-1.7-7.9c-5.5-6.6-7.9-14.7-10-22.9c-0.4-0.1-0.7-0.2-1.1-0.3c-3.8-0.1-7-1.7-10.1-3.8
	c-9.2-4.2-17.6-9.9-26.5-14.8c-29.3-16.3-54.7-37.7-79.9-59.7c-10.1-8.8-21.6-16.5-31.8-25.5c-2-1.8-3.8-3.6-5.8-5.5
	c-0.8-0.8-1.5-2-3-1.3c-1.4,0.7-0.8,2-0.5,3.1c4,15.3,6.4,31,6.9,46.9c0.5,16.9,3.9,33.7,3.8,50.6c2,6.9,2.2,14.1,2.2,21.2
	c13.6,38.4,30,75.4,52.1,109.8c7.5,11.6,16.2,22.5,25.8,32.4c1.7,1.8,5.1,4.2,2.9,6.4s-4-1.8-5.7-3.3
	c-26.4-24.1-44.9-53.9-60.3-85.7c-3.3-6.7-6.5-13.5-9.9-20.2c13.8,42.3,25.8,85.1,34.5,129c-1.4,0-2.1-0.3-2.5-0.8
	c-1.2,3.1-2.1,6.3-3.5,9.4c-1.8,3.9-4.6,7.3-8.5,9.3c-2.2,1.1-4.2-2.2-1.9-3.3c2-1,3.5-2.4,4.7-3.9c-7,1.2-13.4,4.7-20.3,6.4
	c-4.1,0.9-7.7,3.6-9.7,7.3c-1.2,2.3-2.5,2.5-5.1,1.1c-3.4-1.8-6.8-3.7-10.1-5.6c-1,0-2,0.1-3,0.3s-2.1-0.3-2.4-1.3
	c-0.2-0.7,0.1-1.4,0.5-1.9c-0.1-0.1-0.3-0.2-0.4-0.3c-10.6-7-19.9-15.5-29.2-25.7c-1.2,4.8-0.3,9.2,0.4,13.5c4,5.6,8,11.4,14.5,14.2
	c0.9,0.4,1.1,1.7,0.7,2.5c25.6,5.6,49.8,16,75.3,21.6c18.2,4,34.6,12.8,52.5,17.7c2.1,0.6,3.6,1.4,6.1-0.5s6.7-1.1,10.1-0.1
	c1.4,0.4,2.5,1.8,1.8,3.1c-1.8,3.6,0.9,3.7,3,4.3c6.1,1.8,12.5,1.6,18.7,2.7c7.6,1.3,13.8,4.3,18.7,8.6c0.1-0.1,0.3-0.1,0.4-0.2
	c3.5-0.7,6.9-1.8,10.2-3c0.5-0.4,0.9-0.7,1.4-1c1.3-0.9,2.7-1.8,4-2.7c0.1-0.5,0.4-0.9,0.9-1.2c4-2.2,7.7-4.8,11.3-7.6
	C459.8,693,463.3,690.2,466.8,687.4z M521.4,466.2L521.4,466.2c0.6,1.5,0.8,2.2,1.3,3.7c0.7-7.9,2.9-14.6,7.1-20.5
	c2.3-3,5.3-5.5,8.7-7.3c0.9-0.5,1.8-1.1,2.8-0.5c5.2,3.2,10.4,6.3,12.6,12.5c-3.4-2.6-7-4.9-10.1-7.8c-2.3-2.1-3.9-1.7-6,0
	c-2.8,2.3-5.9,4.2-7.4,8.4c3.3,0.2,6.3,0.1,9,1c0.3-0.5,0.6-0.7,0.6-1c0.1-1.8-2.4-4.6,0.1-5.2c2.5-0.7,2,2.8,2.5,4.5
	c0.7,2.3,1.2,4.4,3.1,6.1c9.4,8.6,11.5,19.4,9.1,31.5c-1.3,6.4-1.3,13.2-6.3,18.5c-2.4,2.5-4.6,4.8-8,5.7
	c-5.7,1.5-11.2,3.3-14.2,9.2c-0.4,0.8-1,1.5-2,1c0,0,0,0-0.1,0c-0.7-0.4-1-1.4-0.5-2.1c1.7-3.5,1.7-7.6,5.4-10.3
	c4.6-3.4,7.4-8.6,9.6-13.8c2-4.8,0.3-9.5-2.3-13.7c-3.5-5.5-8.2-10.1-13.8-13.5C520.2,470.9,519.8,469.3,521.4,466.2z M511.7,558.1
	c4.9-11.3,3.8-23.8,5.9-35.6C518.3,534.8,518.7,547.1,511.7,558.1z M359.9,544c4.2-3.8,9.3-6.3,14.8-7.4
	C370.4,540.2,365.3,542.7,359.9,544z M300.6,469.6c-1.4-1.7-0.1-2.4,0.6-3.1c2.2-2.2,4.9-4.1,6.9-6.5c6.5-7.7,15.6-9.6,24.8-10.9
	c17-2.5,34.1-2.5,51.3-3c1.5,0,3.3-0.6,5.5,2C358.1,449.8,328,454.9,300.6,469.6z M339.6,509.3c0.3,1.2,0.9,3-1,3.2
	c-1.3,0.1-1.5-1.6-1.7-2.7c-0.2-0.8-0.3-1.6-0.4-2.5c-0.1-3.8-1-6.7-6.3-5.5c19.8-11.4,41.3-16.6,63.1-20.4
	c-6.8,2.6-13.8,4.3-20.7,6.5c-8.9,2.7-17.5,6.7-26.2,9.3C338.4,499.6,338.3,503.2,339.6,509.3z M229.1,639.9
	c4.6,2.1,6.7,6.5,9.6,10.2C234.8,647.5,231.3,644.3,229.1,639.9z M316.7,663.1c-3.7-0.1-4.3-3-5.3-5.7c-0.3-1,0.3-1.9,1.2-1.5
	c2.5,1,4.6,2.8,5.9,5.2C318.6,662.8,317.9,663.2,316.7,663.1z M293.6,531.9c16.7,31.5,35.4,61.5,60.4,87.2
	C323.6,597.1,305.8,566.5,293.6,531.9z M422.9,606.7c2.1-4.4,3.3-9.3,6.1-13.5C429,598.7,426.4,602.9,422.9,606.7z M443.8,541.5
	c1.4,23.3-4.6,44.8-14.8,65.4C436.2,585.6,443.2,564.3,443.8,541.5z"/>
<path fill="#DEA9A3" d="M800.1,853.5c-0.6,3.7-1.2,7.5-1.7,11.2c-0.9,6.7-1.3,13.5-0.8,20.3c0.2,3,0.6,6,1,8.9
	c0.5,0.4,1,0.8,1.5,1.2V853.5z"/>
<path fill="#DEA9A3" d="M793.7,882.5c-0.3,1.1-0.6,2.2-1,3.3c-0.8,1.7-0.1,3.8,1.5,4.8c0.1,0,0.1,0.1,0.2,0.1"/>
<path d="M800.1,898.1c-0.4-0.3-0.7-0.6-1.1-0.9c0.4,2.5,0.7,5.1,1.1,7.6V898.1z"/>
<path d="M793,817.7c0.1,2.3,0.3,4.5,0.5,6.8"/>
<path fill="#7A739C" d="M57,305.9c-0.7,2.7-1.9,5.2-3.3,7.5c0.1,2.5,1.6,4.6,3.4,6.3c1.7-6.1,1.9-12.7,1.4-19
	c-0.2,0.4-0.4,0.7-0.6,1.1C57.6,303.1,57.4,304.5,57,305.9z"/>
<path d="M20.9,453.9c-0.9,3.7-1.5,7.4-1.5,11.2C19.9,461.3,20.4,457.6,20.9,453.9z"/>
<path fill="#CD89C2" d="M521,325.1c-2-1.3-2.8,1.1-3.8,2.2c-10.1,10.4-20.9,20.1-32.2,29.1c-2.7,2.2-5.1,4.6-7.6,7l0,0
	c1-0.2,2.1,0.3,2.4,1.3c0.3,0.9-0.3,2.2-1.3,2.4c-2.5,0.5-4.9,0.4-7.3-0.4c-0.7-0.2-1.5-0.5-2.2-0.9c-0.2,0.1-0.3,0.2-0.5,0.3
	c-1.7,0.8-2.3-0.9-2.9-2c0,0,0-0.1-0.1-0.1c-0.4-0.3-0.9-0.5-1.3-0.8c-0.9-0.5-1.2-1.7-0.7-2.6c0,0,0-0.1,0.1-0.1
	c-1.2-2.2-2.4-4.4-3.1-6.7c-4.2-13.3-9.3-26.4-7.9-40.8c0.3-3.1,1.4-3.6,3.7-4c11.8-2.2,23.2-0.3,34.8,1.5c7.8,1.3,15.6,3,23.4,6.7
	c-1.1-5.3-3.7-8.1-7.7-10c-3.7-1.6-7.4-3-11.3-4.1c-16.1-2.6-32.5-1.3-48.8-1.2c-0.6,2.9-1.2,5.7-1.8,8.6c-0.3,1.8-0.7,3.6-0.9,5.4
	c0.3,6.1,0.9,12.2,1.9,18.1h0.3c0.8,0,1.7,0.6,1.9,1.4c0.5,2.1,0.7,4.3,0.7,6.4c2.4,5.3,3.3,11.3,4.8,16.9c2.3,4.8,5.2,9.4,8.8,13.9
	c0.7,0.9,1.3,1.6,1.9,2.2c0.1,0,0.2,0.1,0.4,0.1c0.3,0.1,0.5,0.1,0.8,0.2c0,0,0.5,0,0.6,0c0.2,0,0.5,0,0.7,0c0.5,0,0.5,0,0.6-0.1
	c3.1-0.6,6-1.9,8.9-3c1.4-0.5,2.7-1.1,4.1-1.7c8-5.3,15.3-11.3,22.1-18c1.5-2.4,2.7-5,4-7.5c1.7-3.4,3.7-6.7,6.4-9.4
	c2.3-2.3,5.2-3.9,8.3-4.8c0.1-0.1,0.2-0.2,0.3-0.4C522.5,328.6,523,326.4,521,325.1z"/>
<path fill="#8AD3F4" d="M472.4,336.5c3,5.1,6,10.4,9.9,15c1.5,1.8,2.8,2.9,4.8,0.7c1.4-1.6,4.1-2.3,1.7-5.5
	c-6.7-9-13.6-17.7-20.7-26.4c-3.3-4-6.7-1.6-9.9-0.4s-3.5,4.2-2.3,7.2c3.6,9.3,7.2,18.7,10.8,28c0.9,2.2,1.8,4.4,2.6,6.5
	c0.9,0.5,1.7,0.8,2.6,1.1c0.5,0.2,0.9,0.3,1.4,0.4c0.1,0,0.3,0.1,0.4,0.1c1.4-1.6,3.4-2.8,5-4.2c2.2-2,2.4-3.6,1-6
	c-3.5-6.1-7.5-12.1-10.2-19C471.6,334,471.8,335.5,472.4,336.5z"/>
<path fill="#8AD3F4" d="M443.1,334.1c-0.2-1-0.3-2-0.5-3c0,1,0.1,2,0.1,3H443.1z"/>
<path fill="#8AD3F4" d="M351.2,283.3c-1,3.2-1.5,6.5-1.7,9.9c0.1,0,0.1-0.1,0.2-0.1c0.2-0.1,0.4-0.1,0.5-0.1
	C350.6,289.8,350.9,286.6,351.2,283.3z"/>
<path fill="#8AD3F4" d="M490.5,377.2c-2.5,3.6-4.3,6.3-7.8,7.2c-1.5,0.3-3,1.2-2,3.2c0.7,1.6,2.5,2.5,4.2,2c0.8-0.3,1.5-0.7,2-1.3
	c1.2-1.1,2.1-4.1,4-2.4s-0.7,3.5-1.9,4.9c-3.8,4.3-6.3,4.3-10.4,0.3c-1.7-1.6-3.3-3.2-4.8-5c-1-1.2-3-2.7-1.5-4.1s3.7-3,6.3-1.7
	c1.5,0.8,3.3,3,4.7,0.8c1.8-2.9,6.5-4.2,5.3-8.9c-0.1-0.5-0.2-1-0.3-1.5c-0.6,0.4-1.2,0.7-1.8,1.1c-2.6,1.5-5.4,2.7-8.1,3.8
	c-1.1,0.7-2.3,1.5-3.4,2.2c-3.3,2.1-6.1,2.6-8.7,1.4c-0.2,0-0.3,0-0.5,0c-3.2-0.3-5.7-2.1-7.7-4.5c-3.2-3.6-5.8-7.8-7.3-12.4
	c-1.3-3.7-2-7.5-3-11.3c-0.2-0.5-0.4-1-0.5-1.5c-0.1,0.2-0.1,0.3-0.2,0.5c-0.6,1.3-2.6,1.2-3.3,0c-1.9-3.1-3.1-6.6-3.7-10.2
	c-1.9-10-0.5-20.3,1.4-30.3c0-0.3,0-0.6,0-0.9c-0.1-2.7,0.6-5.3,1.8-7.6c0.1-0.5,0.2-1,0.3-1.5c0.2-0.8,1.1-1.4,1.9-1.4
	c0.6,0,1.2,0,1.8,0c-1-0.6-1.8-1.3-2.6-2.2c-28.4-27.4-60.1-50.7-92.8-72.6c-1.2-0.8-2.4-1.7-3.6-2.6c-0.2-0.2-0.2-0.6-0.2-0.9
	c1.8-0.7,2.8,0.7,3.9,1.5c34.2,22.4,67.5,46,97,74.5c1.1,1,2,2.5,3.7,2.2c7-1,13.9-0.7,21.2-0.3c0.5,0,0.9,0,1.4,0
	c-7.2-5.2-12-12.6-18.2-18.4c-7.4-6.9-7.9-13.2-1.8-21.4c6-8,12.2-15.8,20-22.2c2.5-2.1,2.9-3.2-0.5-4.6c-3.7-1.7-6.9-4.1-9.5-7.2
	c-1.5-1.6-2.3-1.9-3.5,0.4c-5.7,11-15.1,17.5-26.8,20.7c-3,0.8-6.1,1.6-9.2,2.2c-11.3,2.5-11.3,2.5-14.9-8.6
	c-2.2-6.8-3.1-14-2.7-21.1c0.1-2.7-0.9-3.3-3.3-4.3c-10.5-4.4-21.9-3.2-32.7-5.6c-10-2.1-19.4-6.1-27.8-11.9c-2.6-1.8-5.5-3.2-8-5.2
	c-4.1-3.2-7.1-3.1-11.8,0.1c-13.5,9.2-27.7,17.2-41.4,26c-12.1,7.9-23.6,16.7-34.4,26.4c-8.1,7.2-15.6,15-23.2,22.6
	c-1.3,1.3-3,3.3-5,1.3l0,0c-1.1,0.9-2.2,1.7-3.4,2.6c-0.1,0.1-0.2,0.2-0.4,0.3c1.8-0.9,2.5,0.7,3.4,2c5.2,7.9,10.2,16,15.7,23.8
	c13.5,19.2,30.8,34.9,47.6,51.1c1.5,1.4,2.7,1.4,4.5,0.6c19.2-8.9,38.5-17.6,57.7-26.4c0.9-0.4,1.6-0.9,2.2-1.4
	c-0.1-2-0.3-3.9-0.4-5.9c-0.3-0.3-0.5-0.7-0.9-1c-10.3-10.9-20.8-21.6-32.8-30.7c-1.9-1.5-3.7-3.2-6.5-5.7c3.2,0.1,4.4,1.4,5.7,2.4
	c11.9,8.8,22.9,18.7,33.8,28.7c-0.8-9.3-1.3-18.6,2.2-27.5c0.4-1,1.3-1.7,2.4-1.3c0.3,0.1,0.7,0.3,0.9,0.6c0.3-2.9,0.6-5.8,0.9-8.6
	c0.4-3.8-0.1-8.7,5.8-8.8c3.1-0.1,6.1,5.7,5.7,10.5c-1,12.5-2.2,24.9-3.2,37.3c-0.1,1.2-1.2,2.7,0.3,3.7c1.2,0.7,2.2-0.5,3.2-1
	l38.1-17.7c3-1.4,6-2.7,8.5,0.7c1.8,2.4,0.5,9-2.2,10.9c-1.4,0.9-2.9,1.6-4.5,2.2c-5,2.1-4.9,2-1.1,6.2c14.4,15.7,27.7,32.5,39.8,50
	c0.5,0.9,0.9,1.9,1.2,2.8c-3.7-2.5-5.5-5.4-7.4-8.1c-11.5-15.7-24.3-30.5-38.1-44.3c-2.3-2.2-3.7-2.8-6.7-1.1
	c-7.2,4.1-15.3,6.5-22.5,10.8c-3,1.7-2.7,3-0.6,5.2c24.2,25.5,41.2,55.5,55.3,87.4c3.3,7.5,6.1,15.2,8.3,23c1.6,5.5,0.5,6.9-5.3,6.5
	c-5-0.3-9.8-1.3-14.6-2.5c3.4,2.8,7.5,5.6,12.1,4.8c1-0.2,2.1,0.3,2.4,1.3c0.1,0.4,0.2,0.8,0.3,1.2c1.1,0.2,2.3,0.4,3.5,0.5
	c3.5,0.3,4.9,1.9,5.8,5c2.8,10.3,4,20.9,4.6,31.6c0.5,8,0.6,16,0.8,24c0,0.3,0,0.7,0,1.1c0.9,2.2,1.9,4.3,3.1,6.3
	c-0.3-8.5-0.4-16.9,0-25.4c2.2,5.9,2,12.1,2.6,18.2c2.3,22.5,2.8,44.9-1.2,67.2c-0.7,3.9-1.8,7.8-2.7,11.7c-0.3,1.2-1.6,2.6-0.4,3.7
	c1.5,1.3,2.7-0.4,3.9-1.1c0.5-0.3,1.1-0.6,1.6-0.9c3.1-2.3,6.4-4.5,9.7-6.5c1.3-0.8,2.6-1.6,3.9-2.3c0.1-0.6,0.3-1.1,0.5-1.7
	c3-7.3,4.4-15,5.7-22.7c0.8-4.9-0.5-9.8,1.1-14.7c3.1,11.3,3,22.7,0.9,34.2c0.8-0.5,1.6-1,2.5-1.5c4-2.5,7.9-4.9,12.2-7
	c0.2-0.1,0.3-0.2,0.5-0.2c0.6-1,1.1-2.1,1.6-3.5c7.1-20.2,7.9-41.1,8.1-62.1c0-6.1-0.8-12.3-1.3-18.4c-0.1-1.3-0.6-2.7,0.6-3.7
	c4.9,8.8,3.9,63.3-1.4,83.9c1.7-0.8,3.3-1.6,4.9-2.5c2-1.1,4.1-2.3,5.9-3.6C523.1,498.4,510.2,438.1,490.5,377.2z M332.9,316.1
	c-9.5-4.6-17.7-11.1-25.4-18.3C316.5,303.1,324.3,310.1,332.9,316.1z"/>
<path fill="#CD89C2" d="M357.7,264.7c-2.7,0-2.3,2.8-2.5,4.7c-1,8.8-1.9,17.5-2.8,26.3c0.6,1.9,1.1,3.7,1.7,5.6
	c0.1,0.4,0.3,0.8,0.4,1.3c0.1,0.2,0.1,0.3,0.2,0.5c0,0,0,0.1,0.1,0.2c0,0.1,0.1,0.2,0.1,0.2l0,0c0.5,0.3,0.8,0.9,0.9,1.6
	c0,1-0.9,2-1.9,1.9c-1.2-0.1-1.9-0.9-2.4-1.9l0,0c-0.1,0.9,0.1,2-1.3,2.8c0,0-0.1-0.1-0.1-0.2c0.3,3.1,0.6,6.3,0.9,9.4
	c0.3,0.1,0.6,0.2,1.1,0.2c2.2,0,3.6-1.5,3.9-3.8c0.3-2.6,0.6-5.3,0.9-7.9c1.1-10.8,2.2-21.5,3.3-32.3c0.2-1.2,0.2-2.3,0.1-3.5
	C360.1,267.7,360.8,264.7,357.7,264.7z"/>
<path fill="#8AD3F4" d="M297.4,518.8c-7.7-16.8-14.7-33.8-21-51c-1.1,0.2-2.3-0.4-2.3-1.8c0-1.6,0-3.2,0-4.7
	c-10.7-30.2-19.3-61.1-25.3-92.8c-0.3-1.4-1.1-2.9,0.2-4.3c2,0.7,1.7,2.7,2,4.1c2,11.2,4.7,22.2,8.3,32.9c2.3,6.7,5.4,13.2,7.9,19.9
	c1.4,3.7,1.2,3.7-0.6,8.2c-0.1,0.3-0.1,0.7,0.1,1c1.6,5.2,3.2,10.3,5.2,16.8c0-1.1,0-2.2,0-3.3c-0.2-0.7-0.5-1.5-0.7-2.2
	c-0.4-1,0.1-1.8,0.8-2.1c0.1-3.8,0.2-7.3-0.2-10.8c-2.8-23-5.6-46-10.2-68.7c-3-15.1-11.4-27.6-18.9-40.5
	c-8.3-14.2-17.3-28.1-26-42.1c-0.6-1-1.2-2-1.7-3c-0.6-1.3-0.7-2.5,0.1-3.4c-10.8,8.3-21.5,16.8-30.7,26.8
	c-5.1,5.5-10.2,12.1-13.1,19.3c3.6-3.1,7.3-6,11.1-8.8c2.6-1.8,5.2-3.6,7.6-5.7c0.8-5.3,3.1-10,8-14.1c3.8-3.1,5.9-8,9.8-11.3
	c1.3-1.1,2.6-2.5,4.3-1.1s0.6,3.2-0.4,4.4c-3.2,4-6.3,8.2-9.8,11.9c-1.9,4-4.2,7.7-7.2,10.9c-0.5,0.5-1,1-1.4,1.4
	c0,5.4,0.3,10.7,1,16c4.9,43,15.5,84.9,28,126.2c11,36.1,21.6,72.5,35.2,107.8c8.8,22.9,20.8,44.3,32.7,65.7
	c2.6,4.6,4.9,9.4,7.2,14.2c1.4,3,3.1,4.2,6.1,1.7c1.2-1,2.7-2.7,4.4-1.5c0.8,0.6,1.2,1.5,1.3,2.4c1.2-3.1,2.1-6.3,3.4-9.3
	c0.2-0.5,0.7-0.8,1.3-0.9c-12.5-61.7-31.5-122-56.9-179.6c-1.6-3.7-3.8-7.2-4.1-11.7c2.6,0.6,2.7,2.8,3.4,4.3
	c6.5,15.1,12.2,30.7,19.6,45.4c15.9,31.7,29.9,64.5,51.9,92.8c7.2,9.3,14.4,18.7,23.6,26.3c-3.5-4.1-7.1-8.1-10.5-12.3
	C323,569.8,309.3,544.8,297.4,518.8z"/>
<path fill="#DDAEAB" d="M187.9,634.6c-2.3-0.9-4.7-1.7-7-2.4c-3.3-0.5-6.6-0.1-10.3,0.7c-11.7,2.7-24,4.4-35.5,0.7
	c-4.8-1.5-9.7-2.4-14.7-2.5c-1.8,0.8-3.6,1.5-5.5,2c-1,0.3-2.1,0.6-3.1,0.9c-0.3,0.1-0.5,0.2-0.8,0.3c-0.1,0-0.2,0.1-0.3,0.1l0,0
	c-0.4,0.2-0.8,0.4-1.1,0.6c-0.1,0.1-0.3,0.2-0.4,0.3l0,0c-0.2,0.1-0.3,0.3-0.5,0.4c-0.4,0.4-0.5,0.6-0.7,0.9
	c-0.7,1.1-1.3,2.2-1.7,3.4c-2.5,6.9-2.6,14-2.5,21.1c3-3.1,4.1-6.7,6.8-9.1c3.5-3.2,7-5.3,12-5c15.8,0.8,31.5-1.6,47.3-2
	c2,0,4-0.5,6.1,0.7c-1.1,2.3-3.2,2.2-5,2.3c-15.4,1.1-30.9,2.2-46.4,2.2c-9.3-0.1-16.3,5.6-18.5,14.9c-0.5,2.2-0.6,4.6-2.6,6.3l0,0
	c-0.7,0.8-2.1,0.8-2.8,0.1c-0.9,0.8-1.8,1.6-2.9,2.2c-4.6,2.8-10,3.2-15.1,4.7c-2.4,0.7-4.8,1.7-6.7,3.4c-1.2,1-2.2,2.2-3,3.5
	c0.3,1.4,1.8,2,4.7,2c3.7-0.1,7.4,0.7,10.7,2.4c2,1.1,3,0.7,3.3-1.6c1-6.9,3.6-13.2,11.4-13.8c8.6-0.5,17.5-0.1,22.8,10
	c0.1-5.1,1.1-9.2,1.8-13.4c0.7-4.2,2.9-6.5,6.4-8.2s7.1-2.8,10.9-3.4c9.9-1.5,16.1,3.1,19.2,13.5c0.5,1.7-0.7,5,2.9,4.6
	c3.4-0.3,3.4-3.2,3.5-5.7c0.1-8.2,2.5-16.2,6.8-23.2c2.2-3.6,5.4-5.8,9.4-5.2c9.1,1.4,18.6,0.9,27.4,4
	C206,642,196.8,638.5,187.9,634.6z"/>
<path fill="#FAF8FB" d="M77.6,675.4c0.8-0.1,1.6-0.2,2.4-0.3c2.8-1,5.7-1.6,8.7-2.3c2.2-0.5,4.4-1.1,6.4-2.2
	c2.7-1.9,4.2-4.3,4.8-7.8c-0.1-4-0.2-8,0.1-12c0.1-1.7,0.3-3.4,0.6-5c0-0.4,0-0.7,0-1.1c0.1-3.1-0.6-6.1-2.1-8.8
	c2.2,0.9,3.4,1.5,4,2.7c0.2-0.4,0.3-0.9,0.5-1.3c0.7-1.7,1.6-3.2,2.9-4.5c-1.6,0.3-3.3,0.5-5.1,0.9c3.3-3.2,6.6-4.4,10.4-3.8
	c0.9-0.3,1.8-0.5,2.7-0.8c1.7-0.5,3.2-1.1,4.8-1.8c-3.2-1.1-6.3-2.6-9.4-3.9c-1-0.4-2-0.8-3-1.1c1.5,2.3,0.5,3.4-1.6,4.7
	c-8.2,5-14.5,12.1-20.8,19.1c-10.4,11.6-22.5,21.2-35.4,29.9c-15.2,10.6-30.3,21-46.1,30.2c-0.7,0.4-1.5,0.7-2.3,0.9v13
	c4.2-2.1,8-4.8,11.2-8.2c3.8-4.1,8.1-5.1,13.3-5c7.7,0.2,15.4-0.2,23-0.5c5-0.2,9.1-1.6,11.1-7.2c1.5-4.1,3.9-8,8.2-10.1
	c0-0.2,0-0.4,0.1-0.6c1-2.7,2.2-5.3,4-7.5C71.8,677.4,73.9,675.8,77.6,675.4z M43.5,697.3c-1.4,2.8-3.2,5.4-6.4,5.9
	c-1.6-0.2-2.1-1.1-1.6-2.1c1.3-2.8,2.5-6,6.1-6.5c0.4-0.1,0.8,0,1.2,0.2C43.7,695.3,44,696.4,43.5,697.3z M49.6,689
	c-1.2,1.2-3.2,2.8-4.7,0.8c-1.4-1.7,0.8-2.9,1.9-4c6-6,12-12,18.1-17.9c1.7-1.7,3.4-3.6,6.7-3.2C64.3,672.9,57,681,49.6,689z"/>
<path fill="#68AFE7" d="M150.7,629.1c-0.5,0.1-0.9,0.1-1.4,0.2c1.2,1,2.1,2.2,2.5,3.9c7-1,14-2.3,21-2.9c0.1,0,0.2,0,0.3,0
	C165.7,628.6,158.2,628.2,150.7,629.1z"/>
<path fill="#C68A8A" d="M167.2,598.6c3.2,9.3,6.7,18.5,12.4,26.6c0.9,1.3,2,2.5,3.3,3.5c6.4,2.1,12.6,4.7,18.8,7
	c0.9,0.4,1.9,0.7,2.9,1c-13.3-15-26.9-29.9-39.2-47.2C164.6,593.8,166.3,596.1,167.2,598.6z"/>
<path fill="#383D41" d="M88.8,627.3c-5.3,0.3-10.8,0.2-15.9,1.4c-5.6,1.4-8.9-1-12-4.8c-3.9-4.8-7-10.2-9-16
	c-0.5-1.5-0.7-4.2-3.1-3.8c-2.1,0.3-2.2,2.7-2.6,4.4c-2,9.2-7.6,16.6-11.9,24.6c-1.6,2.9-5,3.6-7.5,5.2c-1.2-1-0.7-1.8-0.1-2.3
	c10.2-8.9,14.2-21.1,17.4-33.6c0.6-2.3,1-4.7,1.5-7.1c-0.9-0.8-1.8-1.5-2.7-2.3c-2,11.9-5,23.6-11.8,34c-2.2,3.3-4.7,6.4-9.5,7.5
	c1.6-5,5.9-7.3,7.9-11.2c3.8-7.5,7.6-15.1,8.5-23.7c0.9-9.4,0.7-9.1-8.9-12.2c-9.5-2.9-19.2-5.1-29.1-6.5v120
	c6.7-2.6,12.6-6.5,18.6-10.5C29.8,682.9,41,675.7,52,668c12.7-8.9,24.8-18.4,33.4-31.6c1.2-1.8,3-2.6,4.6-3.7c1.5-1,3.6-2,2.9-4.1
	C92.5,626.8,90.4,627.2,88.8,627.3z"/>
<path fill="#68AFE7" d="M65.5,623.8c0.7,1.8,2.7,2.4,4.7,1.8c4-1,8.2-1.4,12.4-1.3c2.1,0,4.1-0.1,6.1-0.3c-2.8,0-5.6,0-8.3,0.1
	c-3.1,0.1-6.2,0-9.3-0.5c-3-0.5-5.6-1.8-7.8-3.6C64.2,621.1,64.9,622.4,65.5,623.8z"/>
<path fill="#68AFE7" d="M322.8,161.7c-2-4-3.7-0.4-4.8,1.2c-5.9,8.6-13,16-22.5,20.8c-7.8,4-16.3,4.7-24.7,5.3
	c-3.7,0.3-4.8-2.4-4.8-5.6c-0.1-7.8-1-15.6,3.3-23c-7.3,4.8-14.4,9.2-22.5,12c-17,5.8-34.3,10-52.4,6.6c-5-1-7.1-0.8-8.4,4.8
	c-1.4,6.8-5.4,12.8-11.1,16.7c-1.3,1-2.4,2.3-3.3,3.7c-3.2,4.9-5.7,5.9-11.2,4c-4.4-1.6-8-4.3-9.9-8.6c-1.5-3.2-2.5-2.6-4.5-0.4
	c-10.2,11-20.1,22.3-32.5,31c-4.8,3.3-10,6.1-15,9.1l-1-1.3c2.5-3,4.8-6.2,7.2-9.2c-1.8,1.6-3.5,3.1-5.3,4.6
	c-0.5,0.4-1.1,0.5-1.6,0.4c-1,1.2-2,2.4-3,3.6c-3.6,4.1-3.9,8.6-3.1,13.5c1.1,6.4,0.9,13-0.6,19.3c-0.8,3.8-3,6.6-7.5,5.1
	c-3.9-1.4-7-0.9-9.7,2.8c0.8-2.8,3.8-6.2-0.8-6.4c-0.8,1.1-1.5,2.3-2.2,3.5c-1,3.8-2.9,7.3-4.8,10.8c-1.7,3.2-3.3,6.4-5,9.5
	c0.4,0.4,0.7,0.9,0.7,1.5c1.1,8.8,1,18.1-2.1,26.5c-0.5,1.5-2,1.8-3.2,0.9c-2.4-1.9-4.7-4.2-5.9-7c-0.7,0.8-1.4,1.6-2.2,2.4
	c-3.8,3.9-7.9,7.6-10.8,12.3c-0.8,1.3-1.5,2.6-2.2,4c1.3-0.6,2.6-1.1,4.1-1.5c1.6-0.4,2.2,0.9,3,2.1c1.5,2.2,1.6,4.7,1.6,7.2
	c-0.9,6.1-0.6,12.4-7.7,16c-2.7,1.3-2.5,0.4-3.3-1c-0.8-1.6-1.7-3.2-2.7-4.7l-0.1-0.1c-0.8,6.5-0.8,13.3-0.4,19.9
	c0.9,15,3.1,30.1,0.6,45.1c-1.3,8-3.9,15.8-6.3,23.5c0,0.1,0,0.1-0.1,0.2c-0.9,8.6-2.2,17.1-3.6,25.6l-0.8-0.1
	c0.1,0.2,0.1,0.4,0.1,0.6c0,0.3-0.1,0.7-0.1,1c0.7,5,2.3,9.7,3.9,14.5c1.6,4.6,3,9.1,4.1,13.8c0.7,0.2,1.2,0.8,1.2,1.7v5
	c0,2.5-3.6,2.4-3.9,0c-0.2-1.8-0.5-3.6-0.9-5.3c-1.3-6.3-3.7-12.4-5.7-18.5c-1.5,14.8-4,29.6-5.5,44.4c-0.2-12.6,1.4-24.9,3.4-37.2
	c-0.1,0.5-0.2,1.1-0.3,1.6c-1.3,6.1-2.7,12.2-3.8,18.3c-0.6,3-1.2,6.2-1.4,9.2c-0.2,3.1-0.2,6.2-0.1,9.3c0.1,3.5,0.3,6.9,0.6,10.3
	c0.1-2.1,0.2-4.2-0.1-6.4H13v20.2l0,0c0.6,4.7,1.3,9.4,1.9,14.1c0,0.3,0,0.6-0.2,0.9c0.5,1.3,1,2.7,1.6,4c0,0.1,0.1,0.2,0.1,0.3
	c0.3,0.1,0.6,0.2,0.9,0.5c1.5,1.5,3,2.8,4.7,4.1c5.3,4.1,11.2,7.2,16.9,10.7c0.5,0,1,0,1.5,0c2.2-0.1,3.6,0.2,3.2,2.9
	c0,0.1,0,0.2,0,0.3c0.9,0.7,1.9,1.4,2.8,2.1c0.2-0.9,0.3-1.8,0.5-2.6c0.2-1.2-0.3-3.1,1.6-3c1.3,0,1.3,1.7,1.4,2.9
	c0.4,2.7,1,5.3,1.7,7.9c2.1,2.5,3.9,5.3,5.6,8.1c1.3,2.1,2.5,4.2,3.8,6.4c-2.5-9.4,3.1-48.5,8.2-53.1c-2.6,18.5-5.1,35.8-7.6,54
	c0,0.1,0.1,0.1,0.1,0.2c1.2,1.9,2.1,3.4,3.5,4.9c1.2,1.2,2.6,2.2,4.2,2.7c0.8,0.3,1.6,0.5,2.4,0.6c2.2-0.8,4.4-1.3,6.7-1.5
	c3.4-0.3,3.5-1.6,2.6-4.6c-5-16.4-8.2-33.2-9.5-50.3c-0.1-1.3-0.1-2.7,0-4c0-0.4,0.5-0.8,0.9-1.4c2.7,2.4,2.3,5.6,2.5,8.3
	c0.9,15,4.7,29.5,8.1,44c1.6,7,1.5,8.8-3.7,10c3.2,0,6.5-0.1,9.7-0.1h6.4c-0.7-1.1-0.2-3,1.6-3c2.9,0,5.7,0.5,8.4,1.2
	c0.2-0.1,0.3-0.2,0.5-0.3c0.6-0.3,1.2-0.6,1.8-0.7c-1-3.8-4.3-6.6-5.3-10.3c-0.8-3-1.7-6-1.8-9.4c3.8,6.5,6.8,13.7,11.2,19.7
	c3.4,0.9,5.8,3.9,8.2,6.3c0.2,0.2,0.3,0.3,0.5,0.5c1,0.3,1.9,0.6,2.9,0.8c-22.2-35.3-38.7-72.7-40.3-116.4c3.3,2.8,3.7,6.2,4,9.4
	c2,21.6,8.3,41.8,17.9,61.4c9.5,19.3,24.2,33.3,40.2,46.6c3-0.3,6.1-0.6,9.1-0.8c1.9-0.1,3.9-0.2,5.8-0.1
	c-12.2-12.9-19.6-28.6-26-45.1c7.8,15.7,16.3,30.9,26.8,45.1c4.9,0.1,9.9,0.8,14.7,1.9c-0.2-0.4-0.4-0.9-0.5-1.3
	c-4-10.6-8.4-21-12.3-31.7c-3.8-10.2-7.1-20.7-10.6-31c2.2-0.8,2.4,0.8,2.8,1.7c9.1,19.5,21.4,37.4,36.3,52.9
	c5.1,5.3,8.9,11.7,12.7,18.1c3.5,1,7,2,10.5,3.1c-22.1-24.5-36.5-53.6-47.9-84.4c-11.8-31.7-19.4-64.4-27.8-97
	c-1.1-4.6-2.5-9.2-4.2-13.7c2.4,22.7,9.2,44.3,14.5,66.3c5.3,22.2,14.6,43,22,64.6c-3.2-6.8-6.7-13.4-9.7-20.3
	c-14-31.9-21.8-65.7-29.2-99.6c-3.4-15.3-5.6-30.8-6.6-46.5c-0.2-1.9,0-3.8,0.5-5.6c-2,2.8-3.9,5.6-5.8,8.5
	c-4.2,10-8.5,19.9-12.7,29.8c-6.5,15.3-10.7,31.3-11.7,47.8c-0.7,11.3,3.3,22.3,6,33.3c7.5,30.5,18.7,59.7,32.4,88
	c1,2.2,2.3,4.4,3.5,6.6c-6.3-5-9.9-12-13.1-19c-11-23.9-19.8-48.7-26.5-74.2c-5.6-21.4-7.3-42.6-0.8-64.5c2.2-7.4,4.8-14.7,7.6-21.9
	c-0.1,0-0.3,0-0.5-0.1c-0.9-0.3-1.7-1.4-1.3-2.4c3.7-9.6,8.9-18.4,14.6-26.9c0.4-0.8,0.7-1.6,1.1-2.4c0.6-1.2,1.2-3.3,2.7-3.1
	c1.3-1.9,2.6-3.8,4-5.6c0.8-1.1,1.6-2.2,2.3-3.3c-0.1-2.2-0.4-4.4-0.5-6.6c-0.3-6,0.1-12-1.4-18l1.6-0.1c0.7,4.4,1.3,8.9,2,13.3
	c3.9-5.6,8.1-10.8,11.5-16.5c3.2-5.4,6.7-10.7,10.3-15.9c2.4-6,4.8-11.9,7.9-17.6c1.8-3.2,3.9-6.4,6.2-9.2c0.8-4.3,2.4-8.4,4.5-12.2
	c6.8-12.5,17.9-22.6,28.7-31.6c7.5-6.2,15.4-12,23.1-18c16.7-17.2,33.3-34.7,53.8-47.5c13.9-8.7,28-17.3,41.9-26.1
	c4.5-2.9,9.3-5.5,14.8-1.7c1.1,0.8,2.8,0.6,5.3,1.1C331,178.7,327.1,170.1,322.8,161.7z M35,581.9c-1,0.4-2.1,0.1-2.7-0.7
	c-0.9-1-1.6-2.1-2-3.4c-2.6-8.3-4.3-16.8-5-25.4c2.7,6.3,3.9,13.2,6.9,19.5c1.2,2.4,2.1,4.9,3.1,7.4C35.5,580.2,36.1,581.3,35,581.9
	z M46,578c-0.2,1.6-0.8,3.2-1.8,4.6c2.7-31.3-5.4-62.5-0.2-93.8c1.9,3.6,0.2,7.1,0.1,10.7c-0.3,15.8,0.3,31.5,1.8,47.2
	C46.8,557.1,47.4,567.6,46,578z M91.9,574.2c2.7,9.4,4.7,19,7.1,28.5c0.5,2.3,0,3.2-2.5,2.4c-0.8-0.3-1.6-0.5-2.4-0.8
	c-2.8-0.9-6.6,1.5-8.3-1.5c-1.3-2.3-0.9-5.5-1.2-8.3c-0.2-2.3-0.5-4.6-0.9-6.9c-0.9-3.9-1-6.6,4.5-5.8c2.4,0.4,3.8-0.4,2-3.4
	c-2-3.3-2.2-7.3-3.2-11c-0.7-2.7-0.8-5.6-3.3-9.2c-0.7,6.7,0.8,11.9,1.1,17.1c0.1,1.4,0.8,3.5-1.2,3.7c-1.7,0.1-1.3-2-1.4-3.2
	c-1.3-18.2-2.5-36.5-4.1-54.7c-0.6-7.2-0.4-14.5,0.6-21.7c2.1,1.6,1.5,3.5,1.6,5.1C80.9,528.3,85.3,551.4,91.9,574.2z"/>
<path d="M215.7,644.1c0.7,0.3,1.3,0.6,2,0.9c0.6,0.2,1.2,0.7,2,0c0,0,0,0,0-0.1C218.3,644.7,217,644.4,215.7,644.1z"/>
<path fill="#8AD3F4" d="M276.6,602.7c-6.4-14.3-14.6-27.8-19.5-42.7c-11.1-33.8-26.7-66-37.6-100c-14.6-45.8-25.3-92.5-34.8-139.6
	c-0.5-2.4-0.7-4.8-1.2-8.1c1.5,0.8,1.8,0.9,2.2,1.1c1.1,0.9,1.4,3.3,3.2,2.7c2-0.7,1.2-2.9,1.1-4.4c-0.2-1.4-0.3-2.7-0.3-4
	c-2.2,1.7-4.5,3.2-6.7,4.9c-1.2,0.9-2.5,1.8-3.7,2.8c2.5,2,0.5,5.2-1.3,7.5c-4.4,5.8-9,11.6-13.4,17.4c-4.6,6-8.7,12.2-12.7,18.6
	c-1.4,3.4-2.8,6.8-4.4,10.2c-4.7,9.7-10.8,18.6-17,27.4c0,0.7,0.1,1.4,0.2,2.1c2.7,22.4,7.9,44.3,13.1,66.2
	c6.9,29.4,19.9,56.4,32.8,83.5c3.1,6.5,5.7,13.2,7.8,20c4.7,15.5,12.8,29.6,20.7,43.8c0.7,1.2,1.8,2.2,1.8,4.2
	c-4.6-1.7-5.6-6.1-7.3-9.3c-5.7-10.9-12.8-21.2-15.9-33.2c-3.6-14-10.5-26.6-16.6-39.5c-0.6-1.2-0.4-4.1-2.8-3.2s-1.8,3.2-1.1,5.2
	c3,8.5,5.7,17.1,9.1,25.4c7.4,18.6,15.8,36.7,27,53.4c2.1,3.1,4,5.6,8.4,4.4c1.6-0.5,6.1,4.1,5.9,5.6c-0.1,1.1-1,1.1-1.8,1.2
	c-1.3,0.2-2.7-0.3-4.1,1.4l12.4,13.8c-0.3-4.9-2.2-9.6-5.4-13.3c4,0.9,6.5,3.6,6.6,7c0.4,9.7,6.5,14.2,13.3,16.7
	c-2.8-2.1-5.2-4.8-7.4-7.6c0,0.4-0.1,0.8-0.1,1.2c-0.2-0.7-0.3-1.3-0.5-2c-1.4-1.8-2.6-3.6-3.9-5.4c-0.6-0.9-0.1-2.1,0.7-2.6
	c0.4-0.2,0.9-0.3,1.3-0.2c-2.4-10.1-5.1-20.1-9.8-29.6c7.8,12.5,18.4,22.2,29.1,31.8c4.8,4.3,10.2,7.8,15.5,11.5
	c4.2-0.3,8.3,0.6,11.8,2.8c4.8-2,9.5-4,14.3-5.8c3.7-1.4,6.2-2.9,1.9-7c2.6-0.7,3.5,1,4.6,2c0.1,0.1,0.1,0.1,0.2,0.2
	c1.4,1.3,3.5,1.2,4.7-0.2c1.7-1.5,0.1-2.6-0.8-3.8C288.1,626.4,282,614.8,276.6,602.7z M216.8,624.8l-1.5,0.7l0,0
	c-9.9-18.6-19.7-37.2-29.6-55.8l1.3-0.7C198.5,586.7,208.5,605.4,216.8,624.8z"/>
<path d="M161.6,335.7c2.6-3.4,4.7-7.2,7-10.8C165.9,328.2,163.6,331.9,161.6,335.7z"/>
<path fill="#7A739C" d="M42.4,320.6c1.6-1.6,3.3-3.3,4.8-5c1-1.1,1.9-2.2,2.7-3.4c0.1-1.3,0.4-2.6,0.8-3.8
	C47.4,312.2,44.5,316.2,42.4,320.6z"/>
<path fill="#A199C0" d="M678.5,714.8c2.5-7.3,5.1-14.6,7.5-21.9c1.5-4.6,2.4-9.4,4-13.9c3.9-11,0.3-20.8-5.2-29.9
	c-12.4-20.6-30.7-33-54.2-37.9c-5.4-1.1-10.7-2.2-16.1-3.1c-13.1-2.1-25,2.9-37.3,5c-7.8,1.3-14.7,5-21.2,9.5
	c-6.1,4.4-9.9,10.9-10.9,17.9c0.5,0.3,0.9,0.8,0.9,1.6c0,0.4,0,0.7,0.1,1.1l0,0v0.1c0,0.2,0.1,0.3,0.1,0.5c0.2,0.8,0.4,1.6,0.6,2.3
	c0.5,1.8,1.2,3.5,1.9,5.2c2.8,6.9,6.6,13.9,7.4,21.4c0.2,1.5,0.1,3.1-0.1,4.5c0,0.4-0.1,0.7-0.2,1c-0.4,1.2-0.9,2.4-1.7,3.4
	c-2.4,3-6.3,3.9-9.9,4.3c-0.6,0.1-1.2-0.3-1.6-0.8c-6.1,1.5-12.5,1.1-19.3-0.9c-11.9-3.5-24.1-4.7-36.4-2.1
	c-3.4,0.7-6.6,1.7-9.9,2.8c-3.3,2.2-6.5,4.6-9.7,7.1c6.8-4.7,15.1-6.6,23.7-7.4c13.6-1.1,27.3,0.2,40.5,4.1c0.4,0.1,0.7,0.6,1.3,1
	c-6.4,2.1-11.9-1.4-17.7-1.9c-13.2-1.1-26.5-2-38.8,3.2c-8.4,3.5-14.8,10.2-19.6,18.4c-5.3,9-4.7,19.2-8,28.7c1-12.4,2-24.8,9-36
	c1.7-2.7,3.7-5,5.8-7c-2.8,2.3-5.7,4.5-8.6,6.7c-6,10.2-7.1,21.9-9.3,33.1c-1,5.1,1.4,10.1,3.9,14.6c2.8,5.1,6.3,9.8,8.8,15
	c3.2,6.6,3.6,13.5-0.1,20.1c-0.5,0.9-0.9,1.8-1.3,2.7c-5.4,12-2.3,20.5,8.2,28.6c6.2,4.6,12.7,8.9,19.5,12.7
	c1.9,1.1,1.7,1.9,0.8,3.5c-9.6,17-11.2,36.4-17.2,54.5c2.1,0.8,2.1-0.6,2.5-1.3c6.6-13.3,14.3-26,23-38c1.7-2.5,2.8-5.3,3.3-8.3
	c1.2-6.6-1-10-6.8-12.5c-5.4-2.4-11.4-3.6-16-8c5.2,1.7,10.5,3.3,15.6,5.2c2.6,1,3.9,1.2,3.8-2.4c-0.7-20.9,2.8-41.5,5.4-62.1
	c1.1-9,1.1-18.2,4.5-26.9c-9.5,14.8-21.6,28-25.7,47c-1.3-2.3-1.6-5-0.7-7.5c1.3-4.8,3.3-9.4,6-13.7c10-16.6,21.2-32.2,34.7-46.2
	c5.1-5.2,9.5-11.2,14.4-16.6c3.3-3.8,7.8-6.3,12.8-7.3c7.1-1.4,12.6-5,14.9-12.3c0.6-2,2.4-2.5,4.2-3.2c13.7-5.3,28-6,42.3-4.9
	c15.8,1.2,31.4,4.3,46.4,9.4c5.3,1.8,9.9,4.6,15.4,8.5c-3.6-11.3-7.7-21.1-11.7-30.9C667.3,673,675.2,692.8,678.5,714.8z"/>
<path fill="#898989" d="M798.1,0c-5,0.2-10,0.1-15,0.1c0,0-519.4,0-778.2-0.1C1,0,0,0.7,0,4.8c0.1,183.4,0.1,366.9,0.1,550.3
	c2-0.8,4.2-1.2,6.3-1.2c1.2,0.1,2.3,0.3,3.2,0.7c-0.5-3.7-1-7.4-1.5-11.1c-0.7-6.3-1.3-12.6-1.3-18.9c0-3.2,0-6.4,0.4-9.5
	c0.4-3,0.9-6,1.5-9c2.3-12,5.5-23.8,7.1-35.9c-0.4-3.3-0.5-6.6-0.1-9.9c0.5-4,1.6-8,2.7-11.9s2.4-7.8,3.6-11.7
	c2.4-7.5,4.6-15.2,5.3-23.1c1.5-15-1.2-30-1.6-45c-0.2-6.2,0.1-12.5,1.2-18.7c-0.8-1.5-1-3.2,0.1-5.1c0.6-1.1,1.2-2.1,1.9-3
	c1.6-5,3.9-9.7,7-14c0-0.1,0-0.1,0-0.2c0.8-4.7,2.7-9.2,5.3-13.3c4.5-7.1,10.9-12.9,15.3-20.1c4-6.6,6.9-13.8,10.7-20.5
	c-0.4-2-1.9-4.2-5.1-7.3c-6.6-6.6-9.7-16.2-11.3-25.7c-0.8-5.2,1.4-7.7,6.7-8.5c9.7-1.5,18.9-0.3,27.6,4.2c3.4,1.8,5.6,1.4,8-1.8
	c4.2-5.4,8.9-10.3,13.4-15.4c0.7-1.1,2.1-1.7,3.4-1.4c-0.6,0.8-1.2,1.6-1.8,2.3c5.7-5.4,11.2-11.1,16.4-17c-0.1-3.4,1.9-5.1,3.6-6.8
	c5.6-5.2,11.9-9.7,18.7-13.2c6.4-3.4,7.7-6.9,5.1-13.7c-5.2-13.9-6.9-28,0-42.1c1.8-3.7,4.3-4.7,8.1-3.7c14.6,4,24.9,12.2,28.3,27.6
	c0.8,3.5,2.7,4,5.9,2.2c16.7-9.6,34-18.1,51.8-25.5c11.5-4.9,23.5-8.5,35.8-10.9c4.2-0.8,6.2-2.3,7.4-7c3-12.6,10-22.3,23.2-26.4
	c2.9-0.9,4.8,0.1,6.8,1.8c5.8,4.9,9.1,11.5,11.7,18.3c1.5,3.9,3.8,5.6,7.6,6c4.1,0.4,8.3,1,12.4,1c4.3-0.1,5.9,1.8,6.2,5.9
	c0.2,4.9-1.7,8.7-5,12.9c18.2-5.5,35.7-2.9,52.6,3.6c17.9,6.9,29.1,20.3,35.3,39.3c6.1-11,13.5-19.1,23.3-25.2
	c-4.6-1.4-9.4-1.7-14.1-0.9c-5.5,0.7-10.9,1.6-16.3,2.3c-1.3,0.2-3.5,0.8-3.7-1.3c-0.2-1.8,1.8-2.2,3.3-2.3
	c10.1-0.8,20-3.1,30.3-1.9c4.1,0.5,8.4-1.6,12.8-1.2c4.9,0.5,9.2,1.3,11.9,6.5c2.9,5.6,9.5,7.1,14.3,10.5
	c13.1,9.1,28,15.4,40.5,25.4c8.3,6.6,16.6,13.3,24.1,20.8c9.8,9.9,20.3,19.2,30,29.3c15.9,16.5,27.2,35.9,38.6,55.4
	c4.9,8.4,9.8,16.9,14.2,25.6c3.4,4.3,6.4,9,8.3,14.2c1.8,5,2.4,10.4,2.4,15.7c7.5,15.5,14.2,31.5,20.2,48c-2.6-1.2-2.2-2.8-2.8-3.9
	s-0.3-2.7-2-4c4.6,20.3,8.8,40.1,2.5,60.1l-1.3-0.1c0.5-2.6,1-5.2,1.4-7.8c2.4-14.5,0.7-28.9-2.3-43.1c-3.4-15.8-9-30.7-15.7-45.1
	c0,0.5,0,1-0.1,1.5c-0.1,2.5-4,2.5-3.9,0c0.2-3.2,0.2-6.4,0-9.5c-4.4-8.8-9.2-17.5-14-26.2c-0.2-0.4-0.7-0.6-1.9-1.7
	c3.3,8.6,6.1,16.1,9.1,23.6c13,32.2,20.1,65.8,23,100.4c2.1,24.8,0.4,49.6-2.1,74.3c-0.3,2.6-1.1,5.2-1.5,7.8
	c-0.7,5.4-2.4,9.9-7.8,12.2c-2.8,1.2-3,5.2-7.3,6.3c20.5-46.8,14.2-93.2,2.1-140c-2,1.2-1.5,2.6-1.3,3.7c5.3,30.7,3.3,61.4,1,92.2
	c-0.5,6.6-2,13.5-1.4,19.7c0.8,8.3-0.8,15.8-2.1,23.5c-0.3,1.6-0.2,3.3-2.5,4.8c0.8-7.5,3.8-14.1,2.8-21.3
	c-1.7,6.4-3.4,12.7-5.2,19.1c-0.6,2.1-0.8,4.5-2.1,6.1c-8.1,9.8-16,19.8-25.4,28.5c9.9-22.8,12.1-47,14.4-71.2
	c-2.4,6.1-2.5,12.8-3.7,19.1c-3.2,17.1-7.7,33.7-15,49.6c-3.2,7.1-2.8,15-5.1,22.6c-0.9,3-1.4,4.8-2.1,5.9c7,0.1,14.1,1.6,20.7,3.7
	c7.9,2.5,15.5,6.1,22.7,10.3c5,2.4,9.8,5.4,14.4,8.9c3,2.3,5.8,4.8,8.4,7.4c4.3,3.7,8.5,7.7,12.3,11.9c-1.3-1.9-2.6-3.9-4-5.8
	c-1.8-2.5-3.8-4.9-5.8-7.4c7.4,5.7,12.1,13.3,16.4,21.1c1.9,2.4,3.6,4.9,5.3,7.5c3,4.7,5.2,9.9,5.9,15.4c0.5,4.4,0,8.8-0.4,13.2
	c-0.2,1.9-0.3,3.7-0.4,5.6c0.4,2,1.1,3.8,2.7,5.4c3.7,3.8,7.4,7.7,10.9,11.7c5,5.7,10.8,10.3,18.5,12c1.9,0.4,3.5,1.8,4.1,3.7
	c-3.5-1.8-7.1-3.4-10.8-4.7c-2.2-0.7-4.5-1.1-6.7-1.5c3.6,1.6,7.3,3.1,10.9,4.7c3.8,1.6,7.7,3.3,11.1,5.6c3.9,2.7,7.6,5.8,11.1,8.9
	c8.1,7.3,15.6,15.4,22.1,24.2c5.8,7.8,11.2,16.5,13.6,26c0.4,1.5-0.9,2.4-2.1,2.4c1,1.6,1.9,3.3,2.8,5c0-0.1,0-0.2,0-0.2l1.2-0.5
	c0.8,3,1.7,5.8,2.5,8.8c1.2,4.6,1.3,9.5,2.8,13.9c0.4-0.8,0.7-1.6,1.1-2.4c0.2-0.5,0.6-0.9,1-1.1V4.6c-0.1-0.8-0.1-1.7,0-2.5
	C800.5,0.4,799.9,0,798.1,0z M389.9,119c5.3-4.5,20-1.3,25.7,5.2L389.9,119z M626.7,603.3c13.8,1,25.9,6.4,37.2,13.8
	C651.9,611.5,639.9,605.9,626.7,603.3z M684.1,427.3c-1-6.6-1.2-13.3-1.9-19.9C684.4,414,685.9,420.5,684.1,427.3z"/>
<path fill="#AFA5C8" d="M595.5,605.9c-1.5,0.4-2.4-0.9-2.4-2.1c-1.7,0.3-3.5,0.6-5.2,1c-2.6,0.5-3.6-0.1-3.7-2.9
	c-0.1-7.5-3.3-14.2-5.4-21.2c-0.7-2.4-2.2-2.9-4.5-2.9c-6.4,0-11.3,3.4-16.3,6.8c-0.7,0.5-1.2,1.2-1.4,2c-1.5,9.2-2.9,18.6-4.4,28.2
	c6.8-3.3,7.5-4.5,6.4-11c-0.9-5.1-0.5-10.3-0.2-15.5c0-1,0.2-2.2,1.5-2.2s1.4,1.2,1.4,2.2c0,4,0.2,8,0,12c-0.1,3.4,0.5,5.6,4.7,4.9
	c1.5-0.2,3,0.4,4.5,0.4c3.6,0.1,6.9-0.6,8.5-4.6c3.6,4.7,3.6,5-1.4,6c-28.3,5.7-42.9,23.7-48.2,50.7c-1.2,6.2-3.2,12.2-5.8,18
	c-2.2,4.7-1.1,5.7,3.8,7c9.3,2.4,16.9-0.4,24.2-5.7c0.2-0.1,0.4-0.3,0.6-0.5c0-0.1,0.1-0.3,0.1-0.4c0,0,0,0,0-0.1
	c0-0.2,0-0.4,0.1-0.6c0-0.3,0-0.7,0-1c0-1.6-0.2-2.7-0.6-4.3c-0.6-2.4-1.4-4.8-2.3-7.2c-3.5-4.2-5.4-9.6-8.4-14.1l0,0
	c0.4-2.2,0.7-4.4,1.1-6.6c0-0.1,0-0.3,0-0.4c0-0.4,0.1-0.7,0.2-1c0.3-1.9,0.7-3.9,1-5.8c1.3-6.4,4.1-11.7,10.1-15.2
	c19.1-11.2,39.7-15.5,61.7-14.3c2.2,0.1,4.3,0.3,6.4,0.5C613,604.2,604.1,603.7,595.5,605.9z M530.7,665.4
	c1.6-6.5,4.3-12.5,10.2-16.3C540.2,656.2,534.9,660.4,530.7,665.4z"/>
<path d="M786.6,787.7c-0.4-1.4-0.9-2.9-1.5-4.2c-0.6-1.4-1.2-2.7-1.8-4.1c1.1,2.6,2.1,5.2,3,7.8
	C786.4,787.3,786.5,787.5,786.6,787.7z"/>
<path fill="#AFA5C8" d="M794.8,893.9c-1.9-1.5-3.7-2.9-5.6-4.3c-2-1.4-2.8-4-1.7-6.2c3.7-9,3.2-18.9,6-28.1
	c1.6-5.3,1.2-11.2,1.8-16.8c0.2-1.5-0.6-3.3,1.1-4.9c1,2.2,1.3,4.6,0.9,6.9c-0.4,3.8-0.5,7.6-0.6,11.5c1-6.1,2-12.2,2.6-18.3
	c-0.9-2.2-1.8-4.3-2.6-6.5c-1,1-2.2,1.9-3.5,2.6c-0.4,0.2-0.8,0.3-1.2,0.2c-0.5,9.1-2.2,18.1-5.8,26.7c-0.9,2-1.4,4.4-4.9,6.2
	c1.8-4.9,2.9-8.7,4.4-12.4c2.9-6.7,2.2-13.9,3.2-20.9c0.4-2.9,0.6-5.9,0.7-8.8c-0.3-4.5-0.5-9-1-13.5c-0.8-5.1-2-10.2-3.5-15.2
	c-1.6-2.4-3.3-4.7-5.3-6.6c-1.5-1.6,0.4-3.9,2.1-3.2c0-0.1-0.1-0.2-0.1-0.4c-2.7-7.8-6.5-15.1-11.1-21.8c-0.6-0.7-1.1-1.4-1.7-2.1
	c-6.7-7.9-14.1-15.3-22.2-21.8c-3.2-2.5-6.5-4.8-10.1-6.5c-4-1.9-8.1-3.6-12.2-5.3c-0.6-0.3-1.3-0.6-2-0.8c-7-0.9-8.6,0.7-7.7,8
	c0.9,6.8,0.3,13.6,0.5,20.4c0.2,1.6-0.4,3.2-1.7,4.2c-0.5-5.7-0.9-10.8-1.2-15.8c-0.2-4.3,0.8-9-0.5-12.9c-1.7-5.2,1.1-6,4.5-6.2
	c0.4,0,0.8,0,1.2,0c-3.6-1.7-7.1-3.7-10-6.3c-3.5-2.1-5.5-4.6-6.1-8.6c-1.1-3.1-1.5-6.5-1.7-9.7c-0.2-4.2,0.2-8.4,0.6-12.7
	c-0.4-4-0.9-8.1-1.5-12.1c-0.5-3.3-1.3-6.4-2.3-9.4c-1.2-2.2-2.6-4.3-4.1-6.3c-1.2-1.7-2.4-3.3-3.7-4.9c2.3,5,4.1,10.4,5.2,16.2
	c1,5.2-0.8,10.3-2.3,15.2c-3.8,12.6-7.6,25.2-13.1,37.2c-3.7,8.1-3.9,15.9,3.5,22.7c5.6,5.2,10.5,11.1,16.4,16
	c2.5,2,5.7,3.8,8.6,1.4s1.9-5.8,1-8.8s-2.5-3.3-4.6-1c-0.6,0.8-1.3,1.5-2.1,2.2c-1,0.8-2.1,2.1-3.4,0.7c-1-1.1,0.1-2.2,0.8-3.1
	c3.8-4.9,8.1-9.5,11.3-15.5c0,7.5,0.3,15-0.1,22.5c-0.2,3.6,0.5,3.7,3.9,3.2c10.9-1.6,21.8-5.3,33-1.8c0.8,0.2,1.6,0.4,2.4,0.7
	c1.8,0.7,4.4,1.3,4.6,3.3c0.3,2.4-1.6,2.5-3.3,1.2c-0.7-0.5-1.1-1.3-1.8-1.7c-4.8-2.4-10-2-15-1.8c-0.8,2,0.7,2.7,1.6,3.5
	c24.3,25.8,34.3,56.8,33.1,91.8c-0.2,5.7-2.7,9.7-9.1,11.1l1.1,1.3c5.5-0.8,11-1.5,16.5-2.4c1.8-0.3,3.7-1.1,4.2,1.6
	c-7.4,2-15.1,3-22.9,2.9c-6.5-0.1-7.9,1.8-6.5,8.4c1.6,7.6,3.8,15.1,5.7,22.7c0.8,3,2.2,3.2,4.7,1.5c5-3.6,10.2-6.8,15.2-10.4
	c1.7-1,3.4-1.9,5.3-2.7c2.4-1.2,3.3-0.5,3.6,2c2.4,19.3,4.5,38.6,3.8,58.1c-0.4,9-1.5,17.9-4.6,26.4c-0.6,1.5-0.7,3.2-0.3,4.8
	c2.1-1.6,4.3-3.1,7-2.7c0.6,0.1,1.6,0.2,1.6-0.7c0-4.8,4.3-7.1,6.2-10.8c0.1-0.9,0.1-1.7,0.2-2.6v-30.4c-0.1-0.8-0.1-1.6-0.2-2.4
	C798.6,918.7,796.3,906.3,794.8,893.9z M785.7,867.8c-8.6,4.2-16.1,9.9-24.1,15.1c-0.5,0.4-1.1,0.8-1.7,1.1
	c-1.4,0.7-2.9,1.6-4.1,0.1c-1.3-1.7-0.2-3.4,1.3-4.2c4.4-2.3,8.1-5.9,13-7.3c3.9-1.2,7.6-2.9,11-5.3l0,0c1.2-0.9,2.5-1.6,3.8-2.3
	c1.2-0.5,2.3-1.4,4-0.9C788.9,866.2,787.3,867.1,785.7,867.8z"/>
<path d="M643,313.8c4.4,7.3,8.5,14.7,12.4,22.3c-0.3-1.7-0.8-3.4-1.4-5.1C651.8,324.6,647.4,319,643,313.8z"/>
<path fill="#D28DC4" d="M589.3,403.6c0.9-1,1.7-2,2.4-3.2c6.5-11.9,11.8-24.2,14.6-37.6c1.1-4.2-0.1-8.7-3.2-11.9
	c-2.1-2.4-4.3-4.7-6.7-6.9l0,0c-1,0.6-2,0.2-2.6-0.7c-0.9-1.2-1.7-2.5-2.6-3.7c-0.4-0.3-0.9-0.7-1.3-1c-1.4-1-3.2-1.8-4.4-4.8
	c1,0.4,1.8,0.9,2.7,1.3c-0.8-1.1-1.6-2.3-2.4-3.4c-1.8,0.2-3.8-0.2-6.4-1.3c-13.3-5.7-26.4-11.7-41.3-14.2
	c1.6,4.9,5.3,8.8,10.1,10.6c6.3,2.7,12.6,5.2,19,7.8c11.6,4.7,22,12,30.5,21.2c2.5,2.7,3.4,5.6,1.5,9.6c-6-16.8-21-21.6-34.2-28.8
	c0.5,3.1,3,4.3,5,5.8c9.7,7.3,19.7,14.3,26.6,24.7c1.1,1.6,1.5,2.8,0.7,4.5c-2.5,5.8-4.7,11.8-7.4,17.5c-2.6,5.5-5,6.1-10.3,3.1
	c-6.6-3.8-11.5-9.5-16.5-15.2c-11.5-13-19.4-28.7-22.9-45.6c-4.3,5-4.4,5.1-2.6,10.5c6.7,19.3,17.4,36.9,31.3,51.9
	c3.9,4.2,8.6,7.3,13.3,10.5C584.9,406.3,587.3,406.2,589.3,403.6z"/>
<path fill="#8AD3F4" d="M619.9,279.4c8.1,10.7,15.5,21.7,22.3,33c-0.2-1.2,0.7-2.3,1.8-2.4c-9.4-17.7-19.5-35.1-31.4-51.4
	c-16.7-22.8-37.8-41.1-58.5-59.8c-16.3-14.7-35.2-25.4-53.9-36.5c1.2,5.3,0.3,11-2.5,15.7c-0.3,0.5-0.8,0.8-1.3,0.9
	c-1.6,5.6-4.1,10.9-7.1,16c-1.2,2.2-2,3.1,1,4.2c7,2.4,11.8,6.7,15.5,12.2c0.8-0.1,1.7,0.3,2,1.3c0.4,1.3,0.8,2.6,1.1,3.9
	c1.6,3,3,6.2,4.3,9.6c-2.4-0.5-2.6-2.1-3.2-3.1c0.2,1.7,0.2,3.4,0.2,5.1c6.5,9.9,11.3,20.6,13,32.4c1.3,9.2,6.7,16.2,11.3,23.6
	c1.7,2.8,2.5,0.1,3.2-1.1c4.9-8.9,10.6-17.4,16.9-25.3c2.4-2.9,5.5-5.3,9-6.9c3.8-1.9,6.8-1.4,9.1,2c12.9,19.1,24,38.8,27,62.2
	c0.5,3.7-1.3,5.2-4,6.5c-1.8,0.9-3.4,1.7-4.1,4c-0.7,2.1-1.5,3.7-2.5,4.9c2.7,3.7,5.2,7.6,7.9,11.4c0.1,0.2,0.2,0.4,0.3,0.7
	c1,0.9,2.1,1.8,3.1,2.7c9.1,7.7,9.7,17,6.1,27.5c-4.4,12.6-10.1,24.7-17,36.1c-2.4,3.9-6.1,6.5-8.5,10.4c-1.1,1.8-3.1,1.2-4.8-0.1
	c-1.5-1.1-2.3-3.3-5.2-3.7c18.1,40.8,35.4,81.4,43.1,125.4c5.9-23.7,7-48.3,3.1-72.5c-3.1,15.5-1.7,31.7-6.2,47.1
	c3.3-41.4,3.4-82.7-4.1-123.9c3,0.3,2.8,2.1,3.1,3.4c6.3,28.5,10.2,57.4,11.5,86.6c1,22.7-0.9,44.9-6.4,66.8
	c-1.4,5.3,0.8,10.6-1,16.5c12-10.9,24.9-100.2,17-117.2c-1.6,11.9-1.1,23.2-5.8,33.5c-0.5-12.5,1.4-24.6,2.4-37s2.9-24.7,0.7-38.1
	c4.7,7,8.2,46.6,7.7,80.1c-0.6,37.6-1.3,43.5-9.6,79.3c4.3-5.8,8.5-11.6,12.9-17.3c10.8-13.9,10.4-30.7,12.8-46.9
	c1.1-8.4,1.7-16.8,1.7-25.3c0.4-38-4.5-75.9-14.3-112.7c-4.2-15.5-10.6-30.5-16-45.7c-0.3-0.9-0.6-1.8-0.9-2.8c2-0.3,2,1.1,2.4,2
	c10.6,28.9,23.5,57,33.7,86.1c6.1,17.3,7.9,35.4,10.3,53.4c0.5,3.6,1.1,7.1,2,10.6C671.1,399.5,653.1,337.4,619.9,279.4z"/>
<path fill="#7A739C" d="M488.7,200.6c-5.7-2.2-11-2.2-15.9,1.9c-0.5,0.4-1.1,0.8-1.6,1.2c-2.6,2.2-8.1,3.7-7.8,6.1
	c0.7,5.5,3,10.7,6.5,14.9c2.2,2.6,5.4,3.9,8.1,5.8c1.7,1.2,2.7-0.1,3.9-1c3.4-2.4,6.7-5,10.2-7.2c5.3-3.2,10.1-3.1,14,0.4
	c-0.4-3.1-1.1-6.3-2.1-9.3c-0.1-0.4-0.1-0.7-0.1-1C500.3,207.2,495.3,203.1,488.7,200.6z"/>
<path fill="#7A739C" d="M483.5,149.2c-1-2.6-2.6-3.3-5.4-3.3c-8.4,0-14.5,3.1-18.5,10.8c-5.6,10.9-11.4,21.6-10.8,34.4
	c0.2,4.4,6.6,13.2,10.6,14.6c1.5,0.5,2.6-0.3,3.8-0.8c12.9-4.9,19.3-15.1,22.9-27.7c1-4,1.6-8.2,1.8-12.3c0.2-3.5-0.5-4.7-4.2-3.2
	c-8,3.2-16.8,4.4-23.7,11.9c1-4.1,1.7-5.4,7.1-8.6c3.5-2,4-4,2.9-7.6c-0.7-1.9-1.5-4.1,0-6.8c2.1,2.3,2,5,2.1,7.5
	c0.1,2.8,1.5,3.8,3.8,2.2c6.9-4.7,12.8-3,18.3,3.2c-4.6-0.2-4.2,2.4-4.4,5.8c-0.5,8.6-3.7,16.5-8.4,23.8c-0.7,1-2.4,2-1.2,3.3
	c1.2,1.3,2.9,0.1,4-0.7c1.2-0.9,2.3-2,3-3.3c2.6-4.9,5.2-9.8,6.9-15c-0.1-0.4-0.1-0.9,0.2-1.4c0.2-0.3,0.3-0.5,0.4-0.8
	c0.7-2.7,1.2-5.6,1.3-8.5c0-0.7-0.1-1.5,0.7-2.1c-0.2-1.6-0.7-3.2-1.4-4.7c-0.1-0.2-0.2-0.5-0.2-0.8c-2.4-1.4-4.7-2.9-7.1-4.3
	C485.9,153.6,484.3,151.6,483.5,149.2z"/>
<path fill="#7A739C" d="M143.8,193.7c2.3-1,4.3-2.7,5.5-4.9c0.5-0.9,1-1.9,0-2.7c-0.8-0.6-1.5,0.1-2.2,0.6
	c-3.8,2.5-7.7,4.9-11.4,7.6c0.3,0.7,0.1,1.5-0.4,2.1c-1.8,2.2-3.6,4.4-5.4,6.6c2-1.7,4-3.2,6.2-4.7
	C138.6,196.5,141.1,195,143.8,193.7z"/>
<path fill="#C2BFD0" d="M322.1,1080.1h-206c0-13,0.6-25.8,6.7-37.8c-2.3-0.1-1.7,2.4-3.6,2.3c0-1.1-0.1-2.3,0-3.4
	c1.9-23.9,6.3-47.1,15.4-69.4c1.6-4,3.8-8,4.2-12.2c1.3-14.4,5-28.6,10.8-41.8c5.2-12.3,7.9-25.1,9.6-38c1.8-14.3,7.7-25.8,17.6-36
	c11.1-11.5,24.3-20.2,37.3-29.1c3.7-2.5,7.3-4.9,10.6-8.5c7.9-8.5,16.1-16.8,24.3-25.1l-0.1-0.1c0.6,1.8,2.3,2.3,3.8,3.1
	c16,8.8,29.5,20.2,39.8,35.6c10.6,15.8,21.5,31.3,30.5,48c2,3.7,3.2,7.5,6.9,10.2c15.1,10.9,27.3,24.9,38.7,39.4
	c7,8.8,11.9,18.9,16.7,29.1c-7-4-13.6-8.2-21.6-12.3c0.5,1.9,1.8,3.5,3.5,4.5c14.8,9.3,29.9,18,44,28.4c19.1,14,35.9,30.1,47.2,51.4
	c3.3,6.3,6.7,12.5,12.5,17.2c16.9,14,30.8,31.3,48.4,44.5h-180c-0.7-0.4-1.5-0.7-2.3-0.8c-17.1-1.4-34.1-3.4-51.2-4
	c-22-0.7-44-1.1-65.9,1c-5.5,0.5-11.2,0.2-16.6,2.2c5.9,1.2,11.6-0.2,17.4-0.5c29.4-1.6,58.9-1.4,88.3,0.5
	C313.2,1078.7,317.9,1078.3,322.1,1080.1z M220.6,941.6l-37.9,7.8l0.3,1.5c0.6,0.1,1.2,0.1,1.9,0c10.7-2.3,21.4-4.6,32.1-7
	C218.3,943.6,219.8,943.2,220.6,941.6c4.7,1.4,9.2-0.6,13.7-1.5c7.7-1.6,15.3-3.4,23-5.1C244.7,935.6,232.7,938.9,220.6,941.6z
	 M389.3,1020c-1.6-2.5-3.5-2.2-5-2.5c-22.6-4.3-45.5-5.9-68.4-7.5c-14.1-1-28.2-0.2-42.4-0.6c-35.3-1-70.6-0.5-105.3,7.8
	c-1.9,0.5-3.7,1.2-5.6,1.8c16.5-2.3,32.7-4.7,49.1-6.1c9.2-0.8,18.3-0.1,27.5-0.9c16.3-1.4,32.6,0.2,48.8,1c9.1,0.5,18.2,2.2,27.3,2
	c17.7-0.3,35.1,2.4,52.7,3.7C375,1019.1,381.8,1019.5,389.3,1020z M273.2,903.7c-36.9,4.5-71.4,16.7-104.6,32.6
	C202.4,922.1,237,910.2,273.2,903.7z M158.8,896.8c10.1-14,22.2-25.9,35.5-36.8C178.5,868.5,167.1,881.1,158.8,896.8z M214.4,851.7
	l0.4,1.3l23.6-7.7l-0.4-1.2C229.8,845.7,222.1,848.7,214.4,851.7L214.4,851.7z M170.7,953c-5.1-0.6-9.7,0.9-14.4,2.6
	C161.4,956.3,166,954.8,170.7,953z"/>
<path fill="#DEA9A3" d="M728.4,781.6c9.5,10.9,17.3,22.9,22.5,36.3c4.3,11.2,6.2,23.2,8.1,35c0.5,2.9-0.1,5.6-1.5,8.1
	c0,0.4-0.1,0.8-0.1,1.2c-0.2,1.3-0.4,2.6-0.7,4c0.2-0.1,0.4-0.2,0.7-0.2c6.6-2.3,8.8-7,8.9-13.8c0.5-30.6-9.8-57.5-27.8-81.7
	c-6.9-9.2-11.9-10.9-21.8-8.2c-2.5,0.7-3.1,1.5-1.3,3.6C719.8,771,723.9,776.4,728.4,781.6z"/>
<path fill="#DEA9A3" d="M763.5,910.7c9.4,2.7,11.9,10.9,10.3,18c1.1,3,2,6.1,2.2,9.3c0,0.3,0,0.6,0,0.9c2.8,0.2,5.5,0.1,8.2,0.5
	c2.3,0.3,2.8-0.6,2.9-2.7c1-14.6-3.3-20.8-17.4-25.3c-2.3-0.7-4.9-1.1-6.6-3.4c1.5-1.5,2.8-0.2,4,0.2c5.2,2,10.2,4,15.4,6
	c1.2,0.5,2.6,1.5,3.7,0.4s0.2-2.5,0-3.8c-0.7-4.8-1.7-9.5-2-14.3c-0.3-4.2-1.8-4.5-4.9-2.4c-5.4,3.8-10.7,7.9-16.5,11.2
	c-1.5,0.9-4.5,0.3-4.5,2.3C758.4,910.3,761.5,910.2,763.5,910.7z"/>
<path fill="#DEA9A3" d="M772.3,990.4c0,2,0.2,4.1,0.5,6.1c0,0.3,0,0.6,0,0.8c0.5,0.6,1.2,1.1,1.9,1.5c9.6,5.2,12.5,11.7,10,22.8
	c-1.2,5.5,0.3,7.7,5.8,8.7c1,0.2,2.1,0.6,2.4-0.8c0.4-1.7-0.7-1.9-2.1-1.9s-3,0.8-4.1-0.8c0.1-0.3,0.2-0.9,0.3-0.9
	c5.9-0.3,6.2-4.1,5.6-8.6c-0.8-6.3-1.5-12.6-2.2-18.9c-0.4-3.6-2-5.5-5.8-5.2c-0.7,0-1.3,0-2,0C776.8,993.4,774,992.9,772.3,990.4z"
	/>
<path fill="#AFA5C8" d="M800.1,1070.1c-2,1.2-4,1.8-4-1.6c0-4.1-2.1-2.8-4.2-1.8c-8.1,3.8-8.2,3.7-8.8-5.4c-0.3-3.7-0.3-7.3,0.1-11
	c0.4-3.6-1.2-5.2-4-6.6c-1.9-0.9-3.9-1.4-6-1.7c-3.1-0.3-6.2-0.2-9.3,0.2c-4.5,0.7-8.8,2.4-12.7,4.6c-0.1,0.1-0.2,0.2-0.3,0.3
	c-3.3,2.3-3.8,5.2-2.3,8.7c1.7,4,3.6,7.9,5.1,12c1.5,3.9,1.7,8.2,0.5,12.2h36c3.3,0,8,1.3,9.6-0.4S800.1,1073.4,800.1,1070.1z"/>
<path fill="#FDF1E5" d="M747.5,1047.1c-0.6-0.8-0.7-2.1,0.5-2.8c4.7-2.8,9.8-4.9,15.3-5.7c5.4-0.8,10.8-0.4,16.2,0.5
	c0.2,0,0.3,0.1,0.5,0.2c0.4-0.7,0.7-1.9,0.8-3.5c1.9,2,1.3,3.6,1.2,5.1c-0.2,1.4,0.7,2.7,2.1,3c0.6,0.2,1.3,0.1,1.9-0.2
	c1.2-1.1,0.1-2.1-0.4-3.1c-3.1-6.1-4.7-12.3-3.5-19.2c0.5-2.6-0.2-5.3-0.3-8c-0.2-6.1-2.3-10.2-9-11.8c-4.2-1-5.2-3.6-4.1-8.5
	c-0.3-3.8-0.1-7.5,1-11.1c0-0.1,0-0.2-0.1-0.4c-2.7-12.8-1.7-25.9-3.2-38.8c-0.3-2.6,0.8-4.1,2.6-4.5c0.6-0.4,1.3-0.4,1.8-0.1
	c0.3,0,0.7,0.1,1,0.1c0.1,0,0.2,0,0.3,0.1c-0.1-1.4-0.3-2.8-0.6-4.2c-0.1,0.1-0.1,0.2-0.2,0.3c-0.5,0.8-1,2-2.2,1.5
	c-1.1-0.5-0.9-1.7-0.6-2.7c0.3-1.1,0.8-2.2,1.1-3.3c0.1-0.3,0.2-0.5,0.2-0.8c-0.2-0.4-0.4-0.9-0.5-1.3c-0.4-1-0.3-2.1,0.7-2.6
	c0.2-0.1,0.4-0.2,0.7-0.2c0.6-7.2-4-12.1-12.7-12.4c-3-0.1-3.8-1.1-3.8-3.8c-0.1-9.2-2-18.2-4.2-27.1c-1.6-6.5-2.2-10.4,2-13.4
	c0.8-2.3,1.2-4.7,1.5-7c0.5-4.1,0.5-8.2,0.5-12.4c0-0.1,0-0.2,0-0.4c-2.9-13.2-4.9-26.5-11-38.8c-5.1-10.2-12-19.2-19-28.1
	c-4.5-5.6-8.5-11.6-14-16.3c-3.8-3.3-5.8-3.2-8.7,1c-1.4,2-2.7,1.2-3.5,0c-4.5-6.6-12.2-10-16.2-17.5c-2-3.7-6.3-6.3-9.9-9
	c-2.5-1.9-4.3-4.5-5.1-7.6c-2-7-3.3-14.2-6.3-21c-5.1-11.5-14.9-16.9-25.6-21.7c-19-8.4-39.1-9.4-58.8-5.6
	c-15.6,3-28.2,11.8-35.6,27.4c-7.2,15.2-13.1,30.6-15.3,47.2c-1.7,12.5-2.7,25.1-1.3,37.8c0.6,6.1,1.7,12.4-0.1,18.6
	c-1.8-0.3-3-1.8-3.1-3.6c-0.5-10.9-4.3-21.7-1.7-32.9c2-8.9,0.9-18.2,2.5-27.2c2.7-17.3,9.1-33.8,18.8-48.4c2.7-4,6.8-6.3,10.2-9.5
	c0.9-0.9,2.5-1.7,1.5-3.2c-0.7-1.2-2.1-0.6-3.2-0.5c-7.1,0.7-12.4,4.5-17,9.5c-17,18.5-28.2,39.8-31.2,65.1
	c-1.8,15.5-4.2,31-4.3,46.8c-0.1,6.8-0.9,13.6,2.5,20.1c0.8,2,1,4.2,0.6,6.4c-2.2,16.2,3.8,31.2,6.8,46.6c0.3,1.8,1.6,2.9,2.9,3.9
	c8.4,6.6,17.1,12.8,23.2,21.8c1,1.5,1.7,1.6,3,0.2c2.1-2.3,4.4-4.6,6.7-6.7c3.4-3.1-2.6-0.4-0.8-2.5c6.9-4.2,9-3,20.3,12.6l2.5-11
	c-2.4,0.9-1.6,4.2-4.4,4.6c-1.1-2.1,0.3-3.8,1.3-5.3c5.6-8.1,11.2-16.2,17-24.1c3.2-4.3,5-4.3,9-0.7c10,8.8,16.4,20.1,21.1,32.3
	c1.4,3.7,2.2,5.5,5.8,1.5c5.6-6.4,13.6-8.7,21.3-11.4c2.4-0.8,4,0.1,5.6,2.1c4.4,5.5,8,11.5,10,18.3c1,3.5,2.2,4.4,5.2,1.4
	c3.7-3.6,7.9-6.7,12.5-9.1c1.5-0.9,2.7-1.6,2.7-3.7c0.3-19.6,2.5-38.8,9.9-57.2c1.8-4.5,2.6-9.5,4-14.5c5.9,7.2,10.3,20.1,0.3,27.3
	c-0.4-6.6,4-12.8,1.3-20c-0.4,0.7-0.8,1.5-1,2.3c-3.9,19.7-9.2,39.2-10.5,59.4c-0.2,2.8,0.7,3.2,3.1,2.4c3.5-1.2,7.2-1.6,10.8-0.9
	c3.7,0.7,5.5,2.6,4.5,6.7c-3.3,13.3-7.6,26.2-13,38.8c-0.7,1.7-1,2.5,0.2,4.2c1.9,2.8,2.5,6.5-1,8.7c-2.2,1.4-0.8,2.5-0.5,3.7
	c2.1,8.4,7,15.8,9.5,24.2c3.3,11.5,7.2,22.7,11.7,33.8c3.7,8.2,4.6,17.3,2.5,26c3.2-2.4,5.1-4.1,7.6-5.1c11.4-4.3,21-2.1,29.3,6.9
	c1.5,1.6,2.6,3,5,2.2c2.9-1,1.2-3,1.1-4.6c-0.2-2,0.6-4,2.1-5.4C747.4,1047.2,747.5,1047.2,747.5,1047.1z M525.2,846
	c0.1-5.6-1.6-10.8-3-16.1c-0.3-0.8-0.5-1.6-0.6-2.4c-0.2-1.5-0.1-3.3,1.7-3.6c2-0.4,2.5,1.5,2.6,2.9c0.2,3.8,1,7.5,0.9,11.4
	s0.6,7.8,1,12.3C525.2,849,525.1,847.4,525.2,846z M530.6,872.1c-3.1-3.9-2.7-8.1-3.5-11.9C529.7,863.5,531.7,867,530.6,872.1z
	 M654.3,920c3-5.2,7-9.3,12.4-11.6l0.5,1.2L654.3,920z M714.8,1041.2c-1.5-0.5-2.4-1.8-3.1-3.1c-4.9-8.7-9.8-17.4-14.7-26.1
	c-0.5-0.9-0.8-1.8-1-2.8c-0.2-0.8-0.5-1.8,0.3-2.3c1.2-0.6,1.9,0.4,2.3,1.2c4.9,10.6,12.5,19.7,17.4,30.2c0.2,0.5,0.4,0.9,0.6,1.3
	C716.7,1041.3,715.9,1041.6,714.8,1041.2z"/>
<path fill="#E7CFB3" d="M113.1,1080.1c-36.5,0-73,0-109.5,0.1c-3,0-3.6-0.6-3.6-3.6c0.1-67.5,0.1-135,0.1-202.5
	c2.7-3.3,3.2-7.7,5.5-11.2c12.3-18.8,23.7-38.2,36.6-56.5c0.9-1.2,1.5-2.6,1.7-4.1c0.6-9.1,3.7-17.5,7.1-25.9S64.8,760,73.6,760
	c10.3,0,20.6,2.2,30,6.5c3.2,1.5,5.3,1.5,8-1c13.3-12.4,29.1-20.3,46.7-24.6c11.3-2.8,23-3.5,34.4-5.9c9-1.9,17.5-1,25.5,3.9
	c1.1,0.7,2.2,2.2,3.9,1.2c0.1-1.3-1-1.7-1.6-2.5c-1.1-1.5-2.2-3.1-1-5s3.2-1.6,5-1.3c4.1,0.6,8.2,1.3,12.2,2.4
	c9.8,2.8,18.2,15.7,15.8,24.3s-4.6,17.1-11.5,23.4c-1.2,1.3-2.3,2.7-3.3,4.2l0.4,0.5l2.9-1.7c-5,5.3-10.3,10-15.4,15
	c-10.2,10.1-21.1,19.5-33.5,26.8c-10.5,6.1-20.6,12.6-30.9,18.9c-3.3,1.8-5.3,5.2-5.4,8.9c-0.5,6.5-1.9,12.8-3,19.2
	c-0.9,5.4-2.7,10.8-1.9,16.4c3.9-6.7,4.2-14.6,7.4-21.5c-2.6,16.1-6.4,31.9-11.4,47.4c-1.5-5.8,2.3-11.1,1.7-17
	c-2.2,0.7-2.2,2.4-2.6,3.8c-1.7,5.7-3.6,11.5-5.5,17.1c-5.1,14.7-7.8,29.9-11.3,45c-0.3,1.3-1.7,3.7,0.8,4.1c1.8,0.3,1.9-2,2.2-3.4
	c1.3-6.5,2.4-13.1,4-19.6c1.2-4.9,3.1-9.7,4.6-14.5l1.2,0.4c-2.5,8.1-4.8,16.3-5.7,24.8c-0.6,5.3-2,10.5-4.1,15.4
	c-3.3,8.2-6.1,16.6-8.4,25.1C116.1,1023.8,115.9,1052.1,113.1,1080.1z"/>
<path fill="#383D41" d="M526.1,1080.1c-1.8-5.3-4.4-9.1-10.5-10.7c-3.5-0.9-6.5-4.5-9.5-7.1c-3.9-3.4-7.5-7-11.5-10.4
	c-7.2-6.1-10.2-14.7-13.2-23.1c-2.9-8.2-6.9-15.8-9.4-24.2c-1.9-6.5-4.8-12.7-7.3-19.1c-0.5-1.4-1.1-3.2,0.2-4.2
	c1.5-1.2,2.7,0.5,3.8,1.3c1.3,1,2.5,2.2,3.7,3.3c2.3,1.9,4.2,1.7,7.1,0.4c7.2-3.3,12-10.1,20-12.5c4.6-1.4,8.5-5.6,12.2-9.2
	s8-5.9,11.7-9.3c2.4-2.2,4.9-1.3,7.1,0.8c2.6,2.8,4.6,6.2,5.7,9.9c2,5.5,6.9,5.7,11.2,7.2c1.3,0.4,2-0.8,2.8-1.7
	c3.6-3.5,7.3-6.8,10.9-10.2c2-1.9,3.5-2.3,5.1,0.4c4.7,7.8,11.4,13.8,17.9,20c4.4,4.2,8.5,3.9,12.4-0.9c2.8-3.3,5.3-6.8,7.7-10.5
	c2.1-3.3,4.4-3.3,6.9-1c3.4,3.1,6.7,6.5,9.8,9.9c4.5,5,7.5,5.7,13.6,2.4c4.3-2.2,8-5.4,11-9.2c2-2.6,3.5-2.3,5.4,0.2
	c7.8,10.4,16.7,19.9,26.4,28.5c12.5,11,21.2,24.3,22.8,41.3c0.8,8.7-1.6,16.8-6.5,24.1c-3,4.4-5.8,8.9-8.7,13.4H543.1
	c-1.3-4.9-4.8-8.7-7-13.2c-4.8-9.3-9.5-18.7-14.7-27.8c-7.9-13.9-18.2-26.1-27.7-38.8c-1.4-1.9-2-7-5.2-4.7
	c-2.1,1.5,1.9,4.7,3.6,6.6c20.7,23.2,34.8,50.6,49.1,77.9h-4c-0.7-5.4-3.7-9.7-6.3-14.2c0.4,2.4,1.1,4.8,2,7.1
	c0.8,2.3,1.5,4.7,2.3,7.1L526.1,1080.1z M489.6,1004.7c6.1,8.5,9.2,18.8,17.3,26.4c7.8,7.3,11.9,17.9,18.1,26.8
	c0.8,1.2,1,3.2,3.2,3.4C524.6,1051,497.1,1010.1,489.6,1004.7z M660.8,1063.9c-3.2,3-5.3,5-5.3,8.2c0,0.7,0.8,1.3,1.3,1
	C659.8,1071.4,660.4,1068.5,660.8,1063.9z"/>
<path fill="#C2BFD0" d="M0.1,723.1c6.3-1.8,12-5.1,16.6-9.7c2.9-2.8,6.8-4.2,10.8-4c7.3,0.1,14.6,0,21.9,0.8c3.2,0.3,4,1.3,2.8,4.5
	c-2.2,5.8-3.6,11.8-4.3,17.9c-0.9,9.1-5.4,16.7-9.7,24.3c-6.8,11.7-11.2,24.6-13,38c-0.3,2.1-0.9,4.5-0.3,6.4
	c3.2,9.5-1.8,16.4-7,23.4c-6,8.1-10.8,17.1-17.9,24.5v-103c6.2,0,12.1,2.1,18.2,3c3.6,0.6,4.5,2.2,3.6,5.9
	c-3.1,13.3-4.6,26.9-6.7,40.3c-0.5,3.1-0.7,6.3-1,9.4c-0.1,0.8,0,1.8,0.9,2.2c1.3,0.5,1.7-0.7,2.1-1.5c0.5-1.1,0.9-2.2,1.2-3.3
	c4-15.5,5-31.4,7.5-47.2c0.5-3.1,1.1-3.5,3.8-3c2.6,0.4,5.2,1.7,7.9,0.2c-12.4-3-24.7-6.5-37.4-8L0.1,723.1z M27.1,723.8
	c8.6,0.8,17.1-0.6,20-3.2C40.5,721.3,34.4,721.8,27.1,723.8z"/>
<path fill="#E7CFB3" d="M0.1,855.1c11.5-16.2,21.2-33.7,34.1-49c-0.4-0.2-0.7-0.5-0.9-0.4c-1.8,0.3-2.2,3.7-4.3,2.5
	c-1.8-1.1-1.3-3.6-1.4-5.6c-0.3-7.1,1.1-14,2.9-20.7c3.7-13,9.6-25.3,17.4-36.3c2.1-3,1.6-6.7,2.1-10c1.7-13.8,6.2-27,13.2-39
	c1-1.9,2.6-3.4,4.5-4.2c-5.4,6.8-4.7,13.8-5.8,20.7c-0.9,5.3,3.9,7.9,2.9,12.6c-0.4,1.9,0.2,3.9-2.5,5.2c2.9,1.2,4.8,2.7,5.9,5.2
	c2.7,5.9,8,7,13.8,6.9c5.1,0,6.8-4.2,8.9-7.7c0.6-1.2,1.1-2.4,1.5-3.7c0.4-1,1.4-1.5,2.4-1.2c1,0.1,1.7,1.1,1.6,2.1l0,0
	c-0.1,5.3-0.2,10.7-0.5,16c-0.2,3.6-2.9,2.4-4.9,2c-5.5-1.3-11-2.1-16.6-2.5c12.8,3.5,24.8,9.2,37.8,12.8c-2,3.3-4,3.9-7.5,2.4
	c-7.8-3.4-16.2-5.1-24.7-6.1c-14.9-1.7-27.1,5.8-33.4,20.1c-2.8,6.4-5.7,12.7-5.8,20c-0.1,4.2-2.7,7.9-5.3,11.1
	c-4.3,5.1-8.1,10.6-11.3,16.4c-6,11.3-13.6,21.7-21,32.1c-1,1.1-2,2.2-3.1,3.2C0.1,860,0.1,855.1,0.1,855.1z M48.9,749.2l0.4,1.5
	l16.8-3.1C59.9,745.3,54.4,747,48.9,749.2z"/>
<path fill="#AFA5C8" d="M700.1,1080.1c3.3-5.8,5.6-11.5,1.5-18.1c-1.5-2.5-0.4-5.5,2-7.5c8.5-7.2,20.8-7.8,30-1.6
	c3.1,2.1,4.5,4.4,3.5,8.3s-1,8.2-1.8,12.3c-0.5,2.7,1.8,4.2,1.9,6.5L700.1,1080.1L700.1,1080.1z"/>
<path fill="#B7AEC9" d="M800.1,1030.1c-3.8,1.2-5.2,0.1-5-4.1c0.7-12.9-1.5-25.5-3.9-38.1c-0.3-1.5-0.2-3.3-2.3-4.3
	c-1.4,2.4,1.5,5.7-0.4,6.9c-1.7,1.1-4.9-0.5-7.1,0.2c-5.3,1.7-7.2-1.8-8-5.4c-2.1-8.9-3.4-18-3.8-27.1c1.9,5,3.8,10,5.8,15
	c1,2.5,2.1,5,4.1,6.8c2.3,2,2.9,3.9,0.1,6.5c6.5-4.2,13-6.5,20.4-5.3v48.9L800.1,1030.1L800.1,1030.1z"/>
<path fill="#B7AEC9" d="M800.1,1069.1c-3.4-7.3-5-15.5-11-21.5c-1.5-1.5-0.2-3.1,1.1-4.3c2.8-2.7,5.8-5,9.9-5.2V1069.1z"/>
<path fill="#B7AEC9" d="M800.1,1035.1c-2.1,0.9-4.3,1.7-6.3,2.8c-5.6,3.2-5.6,3.2-7.8-2.9c-0.5-1.3-1.5-2.6-0.9-4.9
	c4.8,3,9.7,5.1,15.1,2L800.1,1035.1z"/>
<path fill="#2D3134" d="M740.1,1080.1c-1.5-1.6-2.3-3.1,0.9-3.6c2.9-0.5,5.9-1,8.8-1.2c4.7-0.3,1.4,3.3,2.3,4.9h-12V1080.1z"/>
<path fill="#FDF1E5" d="M413.7,823.6c4.2-4.4,5-10.4,7-15.7c3.3-9,5.8-18.2,9-28.2c-3.3,1.3-3.4,3.5-4.1,5.2
	c-6,16.5-13.4,32.3-20.5,48.3c-1.7,4.3-5.3,7.7-9.7,9.2c-6.5,2.5-12.8,5.5-19,8.8c-1.9,1-2.8,0.9-4-0.8c-2.6-3.6-5.4-7.2-8.3-10.6
	c-1.5-1.7-1-2.8,0.1-4.3c3.5-4.3,8.1-7.5,13.3-9.4c4-1.5,6.4-4.2,8-8.2c4.1-10.4,7.1-21.2,12.1-31.2c1.4-2.8,2.7-5.9,2.2-9.5
	c-2.2,0.4-2.3,2.1-2.7,3.5c-4,12.2-11,22.7-19.2,32.4c-2.6,3-6.3,2.7-9.6,1.8c-7.1-1.8-14-3.7-21.1-4.7c-4.1-0.6-4.5-4.6-6.1-7.2
	c-1.4-2.3,1.1-3.8,2.5-5.4c4.4-4.7,10.1-4.7,15.8-4.2c3.8,0.3,4.8-1.5,6.6-4.4c6.3-10.6,4.8-20.2-2.1-29.6c-0.8-1.1-2-2.2-1.8-3.9
	c1.9-0.3,2.9,0.9,3.7,2.1c6.6,9.5,10.7,19.5,6.6,31.3c-1.9,5.6-4.8,11-4.5,17.2c0,1.2-0.3,2.3,0.4,3.4s1.4,2.1,2.7,1.9
	s1.3-1.4,1.2-2.4c-0.4-6.5,2.3-12.3,4.1-18.3c1.8-6.3,1.7-13-0.4-19.2c-0.7-2.1-1.4-4.1-2.2-6.1c-4.9-12.2-8.5-14.2-22.1-12.8
	c-14.2,1.5-28.2,1.3-41.9-3.6c-3.1-1.1-5.1-2.4-6.3-5.6c-1.5-4-3.7-7.7-5.4-11.7c11.5,11.8,25,19,41.6,19c-3-3-7.2-3.6-10.9-5.1
	c-14.8-5.8-27.7-14-37.7-26.7c-5.5-7-13.4-11.3-21.2-15.5c-14.7-7.8-30.2-13.9-44.9-21.7c-5.5-2.9-12.5-4-18.8-5.9
	c-2.9-0.9-4.3-2.1-4.2-5.5c0.2-6.3-2.4-12-4.8-17.7c-0.4-1-1-2.2-2.6-2.1c-1,1.9,1,2.9,1.4,4.3c0.9,2.9,2.1,5.6,2.7,8.5
	c2.1,10-3.8,15.7-14,13.7c-7.3-1.4-7.3-1.4-7.3-8.6c-0.1-3.7,0.2-7.3,0.9-10.9c1-4.8,1.2-10.4,8.9-8.7c-0.5-2.6-2.9-0.9-4.4-3.5
	c6.4,0.2,11.6,2.8,17.3,2.6c5.8-0.2,11.7,1,17.9,1.7c-0.8-1.7-2.1-1.7-3.1-2.1c0,0-0.1,0-0.1,0.1c6.1-0.6,11.5,2.4,16.4,5.1
	c4.2,2.4,8.7,4,13.4,4.9c16.1,3,31.2,9.4,46.8,14c9.4,2.8,18.9,5.4,28.5,7.6c15.6,3.7,29.7,11.6,45.3,15.5c8.2,2,16.2,4.9,24.4,7.4
	c7.2,2.2,14.7,2.4,22,3.8c12,2.4,19.5,9.3,24.1,20.2c5.1,11.9,10.1,23.9,17.7,34.6c5.3,7.5,6.3,15.6,1.8,24.4
	c-5.5,10.8-10.3,21.9-15.8,33.9c-1.3-3-0.1-4.5,0.5-6c3.2-8.2,5.9-16.6,8.1-25.2c1.9-7.7,1.4-15.7-1.3-23.1
	c-3.7-10.3-7.5-20.5-11.4-31.2c-2.4,1.9-1.5,3.9-0.9,5.6c2.5,6.9,4.8,13.9,7.8,20.5c5.3,11.9,5.5,23.7,1.4,35.9
	c-4.6,13.9-9,27.9-16.3,40.7c-1.5,2.8-3.9,5-6.8,6.2c-10,4.3-20.4,7.3-30.6,10.8c-1.5,0.5-3.8,2-4.6-0.7c-0.7-2.3,0.9-3.8,3.1-4.3
	c13.7-2.9,20.1-13.1,24.9-24.8c0.1-0.2,0.2-0.3,0.3-0.4c1-0.4,0.5,0.4,0.7,0.8c-4.5,9.8-2.9,16.9,4.6,17.7c-3-2.6-4.7-6.4-4.7-10.4
	C413.7,828.6,413.7,826.1,413.7,823.6z M399.2,774.1c2.3-2.2,1.1-4.4,0.3-6.5c-3-8.3-6-16.5-6.1-25.5c0-1-0.1-2-0.2-3
	s-0.2-2.2-1.5-2.2c-1.2,0.1-1.4,1.3-1.5,2.3c-0.1,1.2-0.1,2.3,0,3.5C390.4,754,396.6,763.5,399.2,774.1z M418.2,738.3
	c-2.8,4.5,5.3,33.9,10.7,38.5C425.5,763.1,419.8,751.3,418.2,738.3L418.2,738.3z M381.3,829.9c0.8,3,0.7,6.4,2.9,9.1
	c1.1,1.3,2.6,2.4,4.3,1.4s0.5-2.6-0.1-3.9c-1.2-2.5-2.3-5.1-3.6-7.6c-0.5-1-0.4-2.7-1.9-2.4S381.4,828.3,381.3,829.9L381.3,829.9z"
	/>
<path fill="#AFA5C8" d="M495.3,951.6c1.9-2.9,4.2-5.6,6.7-8.1c2.4-2.5,4.5-4.6,3.1-8.6c-0.5-1.4-0.7-3.6,0.8-4.7
	c2.8-2,1.3-3.8,0.3-5.9c-5.2-11.5-10.2-23.2-13.4-35.5c-0.7-0.1-1.3-0.7-1.6-1.4c-0.3-0.9,0.2-1.7,0.9-2.2c0.1-0.9,0.4-1.8,1.3-2.7
	c0.2,0.7,0.3,1.4,0.5,2.1c0.8-0.2,1.7-0.3,2.6-0.5c0-0.1-0.1-0.3-0.1-0.5c0.7,0.1,1.3,0.2,1.8,0.2c0.1,0,0.3,0,0.4-0.1
	c0.1,0,0.1,0,0.2,0s0.2,0,0.3,0c0.5-0.1,1-0.1,1.4-0.2c0.3-0.1,0.6-0.1,1-0.2c0.4-0.8,0.1-2.4-0.5-5.5c-0.3-1.6-0.7-3.3-1-4.9
	c-1.5-7.9-3.1-15.8-4.7-24.4c-1.9,2.7-3.4,4.6-4.7,6.7c-6.7,11.1-13,22.6-20,33.5c-12.7,19.8-1.1,55.4,17.1,64.4
	C491.3,955.1,493.2,955.1,495.3,951.6z"/>
<path fill="#A199C0" d="M691.1,1009.3c-5.5-14.5-10.7-29-17.5-43c-0.8-1.6-2-2-3.4-2.6c-4.6-1.6-1.6-5-1.5-7.6
	c0-2.8,2.2-3.1,4.3-2.3c2.6,0.9,3.8,0.2,4.8-2.5c4.5-11.9,8.8-23.8,12.2-36c1.4-5.1,0.8-5.9-4.3-5.9c-1.5,0-3,0.2-4.5,0.5
	c-10.6,2.6-20.1,8.5-27.1,16.9c-0.8,0.8-1.4,2.2-2.7,2c-1.5-0.3-1-1.9-1.3-2.9c-2.5-7.6-6-14.8-10.3-21.6c-1.9-2.9-3.7-3.3-6.6-1.8
	c-8.4,4.2-14.8,10.6-20.2,18.2c-0.8,1.1-0.9,3-3.2,2.7c-0.2-0.6-0.3-1.2-0.5-1.8c-4.7-16-11.6-30.8-24-42.5
	c-2.9-2.7-4.3-2.2-6.5,0.6c-8.1,10.2-12.7,21.8-14.9,34.5c-0.6,3.2,0,6.7-1.7,10.7c-1.7-4.6-3-8.3-5-11.8
	c-7.2-12.7-11.3-13-19.9-1.1c-3.4,4.7-3.3,4.7-7,0.3c-8.2-9.8-16.6-19.3-28.3-24.8c-1.3,0.2-2.5,0.4-3.8,0.6c-0.1,0-0.1,0-0.2,0
	c0,0,0,0-0.2,0c-0.3,0-0.5,0.1-0.8,0.1c-0.4,0.1-0.9,0.1-1.3,0.2c-0.3,0.1-0.7,0.1-1,0.2c3.9,13.8,9.8,26.3,16.4,38.6
	c0.5,0.9,0.9,2.4,1.8,2.1c7.2-1.7,4.1,3.9,4.5,6.6c0.4,3-1,4.3-4.2,3.1c-2.2-1.1-4.8-0.3-6.1,1.8c-4.1,5.7-8.6,11.1-12.7,16.7
	s-6.1,12.3-9.8,18.7c3.2-0.2,4.3-2.1,6-3c13.3-7.5,25.5-16.5,35.7-27.8c2.5-2.8,3.3-0.8,4.1,1.1c2.7,6.9,6.6,13,10.2,19.5
	c1.5,2.7,2.9,3,5.5,1.7c6.9-3.5,11.8-9.2,16.8-14.7c1.7-1.9,2.3-3,3.8,0.3c4.4,9.7,11.5,17.4,18.8,25c3.5,3.7,6,3,8.8-0.6
	c5.5-7,10.9-14,13.7-23.5c4.7,9.2,9.6,16.9,16.4,23.5c3.5,3.4,6,3.4,9.3,0.2c4.3-4,8.8-7.7,13-11.7c1.8-1.7,3-1.8,4.3,0.3
	c4.7,7.3,11,13.4,16.8,19.8c7.4,8.1,16.4,14.8,22.4,24.8C690.9,1009.8,691.2,1009.4,691.1,1009.3z M541.6,910.2
	c2.4,4.7,1.1,8.3,0.4,12c0,0.1-0.1,0.3-0.1,0.4c-0.3,0.5-0.9,0.7-1.4,0.4s-0.9-0.9-1.1-1.5C538.8,917.8,539.7,914.4,541.6,910.2z
	 M539.3,957.6c-2.3-5.1-2.7-9.3-1.2-13.7c0.3-0.8,0.7-1.6,1.6-1.5s1.2,1,1.2,1.9C541.2,948.7,540.6,953.3,539.3,957.6z M563.1,931.9
	c-0.1,3.2,0,6.3,0,10.2c-4.5-3.8-9.6-3.1-14.3-3.4c-4.3-0.2-9.5-3.6-13.3,2.2c0.1-5.1,0.7-10.3,0.2-15.7c8.2,3.5,16.7,3.7,25,4.5
	C562.8,930,563.2,930,563.1,931.9z M645.5,945.3c-1.5,8.6-1.6,8.6-10.1,6.8c-4.9-1-9.7-2.4-14.7-2.6c-2.8-0.1-3.6-1.3-3.2-4.1
	c0.5-3.7,0.5-7.5,0.8-12.6c3.7,5,24.4,9.7,28.4,7.4C647.8,942.3,645.8,943.6,645.5,945.3z"/>
<path fill="#FDF1E5" d="M274.2,777.5c-6-4.1-10.4-8-12.7-13.8c-2.5-6.3-5.9-12.3-8.8-18.4c-3.4-7.3-9.8-12.9-17.6-15.2
	c-7.7-2.4-15.5-4.6-23.3-6.7c-2.5-0.7-4.4,1-6.3,2.3c-4.9,3.4-9.6,7.3-17.2,7.1c5.9-3,10.4-6.6,15.7-8.8c-5.9-0.2-11.1,1.6-16.1,4
	c-6,2.7-12.2,4.2-18.5,5.8s-12,5.3-18.5,6.4c-0.6,0.1-1.2,0.6-1.8,0.7c-2.3,0.4-4-1.2-5-2.7c-1.2-1.8,1.2-2.4,2.2-3.2
	c3.6-3,7.7-5.4,12-7.1c8.3-3.2,14.9-8.7,21.2-14.7c7.9-7.5,15.9-14.7,23.8-22.1c2.6-2.1,5.3-4,8.2-5.7c5.9-3.8,11.2-3.2,17.2,0.5
	c12.6,7.8,26.7,12.8,39.9,19.5c6.1,3.1,11.8,6.9,17.1,11.1c2.4,1.9,4.3,4.2,5.5,7c7.1,14.7,14.1,29.4,21.5,44
	c5.3,10.6,11,20.9,20,29c5,4.5,7.9,10.8,10.8,16.7c7.5,15.5,18.8,28.3,28.4,42.2c1.8,2.7,3.4,5.4,2.4,8.8c-3.7,12.8-0.5,25.2,3,37.3
	c2.3,7.5,2.1,15.6-0.6,23c-4.3-7.2-9.5-13.2-14.6-19.3c-8.9-10.6-18.9-20.2-29.9-28.6c-2.3-1.9-4.2-4.3-5.4-7
	c-7.5-14.9-15.5-29.5-25.6-42.9c-6.4-8.6-10.9-17.9-14.6-28c-5.4-14.6-13-28.4-23.8-39.9l-1.2,0.7c1.9,2.9,3.8,5.8,5.8,8.6
	S271.4,773.8,274.2,777.5z M372.5,889.4c-0.5,8.5,0.8,16.9,3.8,24.9C376.5,905.8,373.6,897.7,372.5,889.4z"/>
<path fill="#CE9F99" d="M454.8,961.8c-0.6-4.1-3-6.2-6.4-6.2c-3.2,0-4.1-1.4-5.2-4c-7.7-18.3-16.3-36.2-27.4-52.6
	c-7-10.5-14.4-20.8-25.6-27.6c-2.3-1.4-3.4-4.8-5.2-7.2c-2.2-2.8-4.2-6-7.8-7.6c-1.2-0.5-2.7-1.9-1-2.9c1.5-0.9,4-3.9,5.4-1.3
	c3,5.3,6.4,4,10.8,2.5c9.7-3.2,19.4-6.1,28.7-10.2c1.5-0.7,3.4-1.2,4.3-2.4c3.2-4.2,6-8.1,11.8-9.3c3.6-0.8,4.7-5.3,4-8.8
	c-0.8-4,0.7-7,2.5-10.3c2.3-4,4.3-8.2,6.7-13c5.1,14.2,16.7,21,28.5,27.4c2.8,1.5,2.6,2.9,1.6,5.5c-7.6,19.2-12.9,39.2-15.9,59.7
	c-1,7.2-3.4,14.1-2,21.6c3,17,9.3,31.8,23.8,42.2c1.2,0.9,3.1,1.4,2.6,3.7c-0.7,3.7-2.4,4.3-5.8,2.1c-6.9-4.4-14.4-6.7-22.7-5.5
	C458,958,455.8,958.7,454.8,961.8z M457.7,819.6l-1.1-0.6c-5.7,6.5-9.7,14-14.1,21.2l1.3,0.8C448.4,833.9,453,826.8,457.7,819.6z"/>
<path fill="#F1D3C8" d="M157.6,699.5c1.1-4.4,3.8-6.9,8-8.7c8.5-3.5,16.7-7.4,24.8-11.8c8.6-4.7,15.9-1.3,24,2.3
	c-17,8-26.5,24.8-43.3,31.9c1,2.4,2.4,0.4,3.2,1.3c-1.1,2.1-3,2.8-4.8,3.6c-2.5,1.2-5.2,2.4-7.8,3.3c-10.4,3.6-19.2,9-22.6,20.4
	c-0.9,3-3.3,4.8-6.1,6.2c-4.3,2.2-8.5,4.7-12.6,7.1c-5.3,3.2-16.1,2.6-20.8-1.2c-1.1-0.9-1-1.8-0.9-3.1c1-7.7,1.9-15.5,2.8-23.3
	c0.2-1.9,0.1-3.9,3-3.1c3.9,1,7.9,0.6,12.4-0.7c-2.8,9.2-7,17.2-9.2,26.5c2.7-1,3.5-2.9,4.2-4.8c2.1-5.8,4.4-11.5,6.1-17.4
	c0.9-3.1,1.9-6.3,4.3-8.2c7.8-6.4,15.7-13,25.8-15.2C152.1,703.9,154.7,701.4,157.6,699.5c-1.5,8.2-7.6,13.3-13.9,19.2
	C155.7,716,160.7,708.7,157.6,699.5z"/>
<path fill="#383D41" d="M407,939.7c-0.2-0.9-0.6-1.8-1-2.6c-5.7-7.8-7.4-16.9-6.6-26.1c0.7-7.7-2.1-14.8-2.2-22.2
	c0-1.7-1.3-4.1,0.9-5s3.5,1.5,4.6,3c15.1,19.6,27.3,40.9,35.7,64.2c5.8,16,11.5,31.9,17.3,47.8c0.8,2.2,1.9,4.2,2.9,6.3
	c0.5,1.2,1.8,2.6,0.5,3.6c-1.6,1.1-2.2-0.9-2.9-1.8c-4.6-6.5-8.8-13.3-13.7-19.6c-5.8-7.4-11.2-15.7-19.2-20.7
	c-6.2-3.9-12.3-7.8-18.2-12.1c-3.5-2.5-5.8-11.8-3.7-15.5C403.5,935.5,404.6,939.8,407,939.7z"/>
<path fill="#CB918F" d="M308.1,752.2c15.3,5.2,29.5,4.3,43.8,3c4.7-0.4,8.1,1.2,9.7,5.9c0.5,1.6,1.2,3.1,2.3,4.4
	c8.5,8.8,1.2,16.4-1.6,24.4c-0.6,1.8-2.4,1.5-3.9,1.3c-5.4-0.6-10.6-0.5-15.3,2.9c-2.1,1.5-4.2,0.3-6.1-0.7
	c-8.3-4.2-13-11.8-17.7-19.2C315.2,767.8,312.2,760.5,308.1,752.2z"/>
<path fill="#DEA9A3" d="M671.9,735c-1.7-5.5-3.1-9.5-3.7-13.8c-2.3-15.5-10.4-26.4-24.8-33c-11.3-5.2-22.9-9.5-35.2-10.4
	c-15.7-1.1-31.7-1.7-45.8,7.5c-1.1,0.7-2.4,1.9-3.6,0.9c-1.5-1.2-0.4-2.8,0.2-4.1c3.3-7.5,10.7-9.4,17.2-10.3
	c27.4-4.2,54.1-1.3,79.2,11.5c1,0.5,2,1.2,3,1.8c1,0.7,2.1,1.1,3.3,1.3c-2-2.9-5.2-4.2-7.7-6.5c7.7,3.5,15.5,6.3,17.8,16.4
	C674.7,709.8,675.5,721.3,671.9,735z"/>
<path fill="#FAF8FB" d="M393.5,946v-44.4c3,9.2,2.8,18.7,3.5,28.1c0.4,6.3,0.3,12.7,0.3,19c0,1.2,0.6,3-1,3.5s-2.2-1.1-3.2-1.9
	c-6.7-6-9.6-14.3-13.6-21.9c-1.8-3.5,0.6-8,2.7-11.3c1.6-2.5,1.4-4.5,0.6-6.9c-3.8-11.4-6.7-23-7.2-35.1c-0.2-4.2,0.6-8.3,1.3-12.4
	c0.2-1,0.4-2.2,1.6-2.1c0.6,0,1.4,0.8,1.8,1.5c4.1,5.7,9,11,11.8,17.2c2.1,4.7,2.1,10.6,1.7,16.2c-1.1,14.9-1.9,29.9-2.7,44.8
	C390.7,942.4,391.6,944.7,393.5,946z"/>
<path fill="#E7CFB3" d="M122.8,686.7c3.1,6.8,0.9,13.8,0.1,20.6c-1.5,14.2-10.7,19-23.9,13c-1.8-0.6-3.1-2.1-3.5-3.9
	c-2.4-11.7-2.6-23.3,1-34.9c0.8-2.5,2.4-3.7,4.8-4.5c5.6-1.8,11-0.7,16.1,1C121.1,679.3,122.8,682.8,122.8,686.7
	c-3.4,5.1-3.9,11.3-6.1,16.8c-1.5,3.7-3.3,6.2-8,5.5c-3.2-0.4-6.4,0.8-8.6,3.2c-0.8,0.7-1,1.9-0.3,2.7l0,0c0.4,0.5,1.1,0.5,1.5,0.1
	c0.1-0.1,0.2-0.1,0.2-0.2c3.2-3.6,7.4-3.6,11.5-2.9c2.4,0.4,2.8-1.8,4.1-2.5c1.2,0.7-0.2,2.2,1.9,2.8
	C119.7,703.5,122.5,695.3,122.8,686.7z"/>
<path fill="#E7CFB3" d="M78.4,735.3c7.1-8.9,8.8-19.9,11.4-30.8c4.4,10.8,2,21-1.5,31c-1,2.8-3,5.2-6.5,3.2
	c-2.7-1.6-1.6,1.6-2.7,1.9c-3.4,0.9-9.9-4.1-9.1-7.5c0.4-1.9,0.1-3.9-0.8-5.6c-3.3-8.2-4.7-17.1-4.1-25.9
	c0.5-6.4,5.8-11.4,12.3-11.5c13.8,0,15.5,2.1,10.4,14.5C83.8,714.5,82.2,725.2,78.4,735.3z"/>
<path fill="#E7CFB3" d="M142.3,703.2c-9-0.1-18.1-11.5-13.9-18.9c2.7-4.7,2-8.7,2.1-13.1c0.1-4.9,3.6-6.4,7.1-7.9
	c4.9-2.1,10-1.9,15.2-1.7c2.8,0.1,3.4,2.5,4.7,4c6.6,7.6,4.2,16.3,1.9,24.5c-2,7.3-7.2,12.3-15.4,13L142.3,703.2z M152.2,676.9
	c-0.8,4.6-3.1,4.9-6.1,4.5c-4.1-0.6-8.3-0.4-12.1,1.9c-1.1,0.6-3.1,0.8-2.5,2.5c0.8,2,2.2,0.2,3.3-0.2c7.7-2.7,10-1.5,11.7,6.4
	c0.3,1.1,0.6,2.3,1,3.4c0.7,1.9,2.1,3.5,4.1,2.4c2.3-1.2,0.4-2.8-0.3-4.2c-1.8-3.1-3.5-6,0.6-9C153.8,683,153.6,680.4,152.2,676.9z"
	/>
<path fill="#CE9F99" d="M466.4,959.5c5.7,0.5,11.2,2.4,16,5.5c4,2.7,3.8,7.6-0.2,13.4c-5.3,7.7-5.3,7.7-12.4,1.5
	c-4-3.5-8-6.9-12.1-10.3c-1.5-1.2-3-2.3-1.9-4.5c1-2,1.3-4.6,4.3-5L466.4,959.5z"/>
<path fill="#DEA9A3" d="M787.5,947.5c-0.4,9.7-1.8,19.4-4.3,28.8c-0.2,0.8,0,1.9-1.1,2c-1.6,0.2-2.3-1.2-2.9-2.3
	c-4.1-7.6-7.1-15.8-8.8-24.2c-2-10.4-1.9-10.4,8.6-9.2c2,0.2,4,0.4,6,0.6C787,943.3,788.1,944.2,787.5,947.5z"/>
<path fill="#C2BFD0" d="M249,781.1c4.2-3.8,6.8-9.1,7.2-14.8c12.4,5.3,28.3,26.9,30,41.5c-7.9-10.5-18-16.8-28.1-23.1
	C255.3,782.9,252.4,781.2,249,781.1C248.9,781,249,781.1,249,781.1z"/>
<path fill="#CB918F" d="M346.6,812.8c11.2,2.5,21,4.8,30.8,7c0.8,0.2,1.7,0.5,1.8,1.5c0.2,1.3-0.9,1.7-1.8,2
	c-6.1,1.8-11.5,5.6-15.2,10.8c-1.2,1.6-2.1,1.3-3-0.1C355.2,827.3,351.2,820.6,346.6,812.8z"/>
<path fill="#44494D" d="M447,963.7c12,24.2,20.1,50.2,33.3,74C464,1015.4,457,988.8,447,963.7z"/>
<path fill="#68AFE7" d="M151.9,633.1c-5-0.9-10.2,0.3-15.3-1.3c-4.5-1.4-8-3.8-10.4-7.9c-0.2-0.4-0.5-0.9-0.7-1.3
	c-0.8-1.8-4.5-2.1-3.3-4.1c1.3-2.2,4.6-1.1,7-1.3c3.8-0.2,5.7,2.8,7.3,5.3c1.4,2.1-2.3,2.7-3,4.7C139.3,630.1,147,627.6,151.9,633.1
	L151.9,633.1z"/>
<path fill="#F1D3C8" d="M163.1,689.1c-1.8-10.6,7.9-12,20.8-9.6C176.6,682.8,170.4,687,163.1,689.1z"/>
<path fill="#F1D3C8" d="M125.5,713.9c0.3-5.2,0.5-9.6,0.8-14c0.1-1,0.2-2.1,1.4-2.4c1-0.3,1.5,0.6,1.8,1.3c1.1,2.5,3.2,3.8,5.4,4.9
	c3.2,1.8,2.7,2.9-0.3,4.4S128.8,711.7,125.5,713.9z"/>
<path fill="#B7AEC9" d="M746.1,1059.8c2.9,0.7,4.3,5.8,3.9,7.5c-1,4.1-6.1,1.7-9.2,3c-1.1,0.5-2.2,0.3-2.2-1.6
	C738.5,1063.4,740.9,1059.9,746.1,1059.8z"/>
<path fill="#B7AEC9" d="M785.5,1048.2c4.3,2.6,5.8,6.4,8.1,9.4c0.8,1.1-0.5,1.7-1.3,2.1c-2,1-3.8,3.1-6.2,2.5
	c-1.3-0.3-0.5-2-0.5-3.1C785.4,1055.7,785.5,1052.3,785.5,1048.2z"/>
<path fill="#C2BFD0" d="M170.5,846.5c-2.9,4.3-5.7,8.7-8.6,13c-0.4,0.6-1.1,1-1.7,0.4c-0.4-0.5-0.5-1.2-0.5-1.8
	C159.4,851.9,161.4,849.5,170.5,846.5z"/>
<path fill="#68AFE7" d="M114.4,607.1c3.4-0.8,5.8,0.9,8.3,2c2.1,0.9,4.1,2.3,4.9,4.6c0.2,0.6-0.8,1-1.4,1c-2.8-0.2-6.1,1.3-8.3-1.8
	C116.6,611.1,115.7,609.2,114.4,607.1z"/>
<path fill="#CB918F" d="M377.6,816.8c3.6-3.1,5.7-7.1,9.2-10.3c-1.2,3.6-2.2,7.3-3.8,10.8S379.5,817.3,377.6,816.8z"/>
<path fill="#87CDF1" d="M156.6,510.1c2.1,5.4,4.3,10.8,6.3,16.2c0.2,0.8-0.2,1.7-1.1,2c-1.1,0.4-1.5-0.5-1.7-1.2
	c-1.6-5.5-3.1-11-4.7-16.5L156.6,510.1z"/>
<path fill="#F1D3C8" d="M98.9,730.3c-0.7-2.8-7.8-0.4-5-5.7c1.1-2.1,3.3-1.8,4.8-1C102,725.4,97.9,727.9,98.9,730.3z"/>
<path fill="#D8988F" d="M438.5,822.5c1.3,3.6,0,6.2-1.8,8.6c-0.7,1.1-2.3,1.5-3.4,0.7l-0.1-0.1c-1.1-1,0.1-2.1,0.7-3
	C435.3,826.6,436.9,824.6,438.5,822.5z"/>
<path fill="#44494D" d="M468.3,1002.4c-4.1-3.7-5.5-7-5.8-12.2C466.1,993.9,467.1,997.5,468.3,1002.4z"/>
<path fill="#44494D" d="M462.1,986.9c-2.4-2.5-4.3-5.2-4.3-9.5C461.3,980.2,462.5,983.3,462.1,986.9z"/>
<path fill="#7A739C" d="M304.7,144.1c-8-3.1-12.6-9.8-12.7-18.9c0-5.1-0.2-10.2,0.9-15.4c1.8-8.5,6.9-14.6,13-20.2
	c2-1.8,3.3-1.2,4.1,1c0.4,1.2,0.5,2.6,2.3,3.5c0.2-2.5-2-5,0.5-7.1c1-0.8,1.9-2,3.4-1.5c1.4,0.4,1.3,1.7,1.5,2.9
	c0.5,3.2,0.8,6.3-2.2,8.7c-0.7,0.5-0.9,1.4-0.4,2.1c0.1,0.1,0.2,0.2,0.3,0.3c2.4-1.1,3.2-3.5,4.6-5.4c1.6-2.3,2.9-2,3.9,0.3
	c4.6,9.6,6.7,20.2,6.4,30.8c-0.3,7.8-3.6,13.6-8.7,19c-0.9,0.9-2,2.3-3.4,1.3s0.1-2.1,0.5-3c1.5-3.6,2.8-7.1,2.1-12.4
	c-1.6,5.4-2.9,9.7-4.9,13.7c-1,1.9,0.3,3.5,1.6,4.9c2.4,2.3,2.5,4.9,1,7.7c-10.1,18.8-24.8,29.4-46.1,29.8c-3.2,0-3.9-1.4-4.1-4.2
	c-1.5-19.2,6.8-33.6,33.4-36.9C302.7,145,304,145.5,304.7,144.1z M320.6,124.7l1.6-0.3c-0.1-5.5-1.1-11-3-16.2l-1.2,0.2
	C318.8,113.9,319.7,119.3,320.6,124.7L320.6,124.7z"/>
<path fill="#87CDF1" d="M587,597.4c-5.5-13.8-8.8-28.4-9.9-43.3c-1-15.5-1.9-31.2-6.7-46.3c-1-3.1,0.3-5.9,1.3-8.7
	c2.3-6.4,4.5-12.9,5.7-19.6c2-12.6-3.1-23.2-9-33.5c-3.6-6.4-8.1-12.2-13.4-17.3c-0.9-0.9-2.1-1.5-2-3.2c1.1-11.3-1.1-22.5-1.5-34
	c4.5,9.6,8.9,19.2,13.4,28.9l-1.3,0.8c-2.6-4.4-3.4-10.2-8.4-13.6c-0.7,3.6,1,6.1,2.2,8.6c6.1,11.7,12.3,23.2,18.6,34.8
	c2.3,4.1,4.2,8.3,5.8,12.7c5.4,15.6,9.6,31.5,13.8,47.5c3.7,13.9,1.5,27.7,1.3,41.7c-0.2,12.7-5.2,24-8.2,35.8
	C587.8,591.5,587.2,594.4,587,597.4z"/>
<path fill="#D8988F" d="M527.1,615.5c3-5.6,9.3-7.4,13.6-13.2c-0.2,5.6-0.6,9.3-5,12.5c-10.5,7.5-18.2,27.7-15.6,39.5
	c2.2-14.1,4.3-28.3,18.5-37.8c-1.3,5.2-2.2,9.3-3.4,13.4c-4,13.2-8.2,26.4-12.4,39.5c-0.3,0.9-0.7,1.9-1.1,2.8
	c-3.8,8.5-3.8,8.5-13.2,6.7c-0.8-0.2-1.6-0.3-2.5-0.3c-5.7,0.1-6.5-1.2-4.2-6.3c2.2-5.1,6.2-9.2,11.2-11.7c1.6-0.8,3.3-1.7,5.2-0.9
	c1,0.4,2.3,1.5,2.5-0.6c0.1-1.3-1.1-2-2.4-2c-2.7,0-5.3,0.8-7.6,2.2c-6.1,3.3-10.6,9-12.4,15.6c-0.4,1.3-0.2,3.8-2.3,3
	c-3.8-1.5-6.3,1.5-9.4,2c-0.9-0.6-0.3-1.3,0-1.7c19.6-27.8,30.5-59,34.6-92.6c0.8-5.4,2.2-10.8,4.2-15.9c0.2-0.8,0.5-1.6,0.9-2.3
	c1.4-2.3,4.1-2.7,6.2-2.6c2.5,0.2,1.6,2.9,1.7,4.5C535.1,588.7,534.2,594.1,527.1,615.5z"/>
<path fill="#7A739C" d="M177.5,169.3c0.3,0.1,0.6,0.4,0.9,0.4c6.1-1.7,7.4-0.5,6.7,6c-1,9.3-4.5,17.3-12.2,23.1
	c-1.2,0.9-2.2,2.1-3,3.3c-3.9,5.3-6,6-11.5,2.3c-4.6-3.1-7.9-7-7.3-13.2s2.6-11.3,9.1-13.4c0.9-0.3,2.1-0.4,2.1-1.7
	c-0.2-1-1-1.8-2.1-1.9c-2.4-0.4-3.1-2.3-4-4.1c-5.7-11.4-6.6-24.7-2.4-36.8c2.7-7.9,2.7-7.9,10.8-5.2c11.1,3.7,20.8,16,21.5,27.8
	c0.3,5.1-0.6,9.7-6.4,11.5C178.7,167.7,177.6,168,177.5,169.3z M160.3,130.3c-4.3,5.1-5.9,10.8-4.2,17.4
	C157,141.8,158.9,136.2,160.3,130.3L160.3,130.3z M170.3,173.4c-8.1-1.5-7.4-9.1-11.8-13.1C159.8,169.3,163.9,174.4,170.3,173.4
	L170.3,173.4z"/>
<path fill="#403D54" d="M391.2,206c-12,0.1-23.4-2-34.3-7.4c-11.6-5.7-19-15.3-25.7-25.7c-0.8-1.3-1.4-2.9-0.2-4.2
	c1.5-1.6,3.2-0.5,4.6,0.3c8.7,4.8,17.9,5.4,27.5,4.2c4.5-0.6,8.7-2.3,12.5-4.8c4.1-2.6,6.7-1.1,9.4,2.1c3.9,4.7,6.5,10.5,11.8,14.1
	c4.7,3.2,9.4,6.2,15.2,7.2c1.5,0.2,2.9,0.7,4.2,1.4c4.1,2.2,4.1,4.2,0.3,6.6C408.5,204.9,403.6,206.1,391.2,206z"/>
<path fill="#7A739C" d="M411.2,225.5c-0.2-15.6,6.8-25.1,21.6-29.6c1.3-0.4,2.6-0.7,3.9-0.7c2.1-0.1,5-0.8,5.9,1.4s-2.2,2.8-3.5,4.1
	c-4.5,4.6-10.6,6.1-16.4,8c-1.4,0.5-2.9,0.7-4.3,1.2s-3.5,0.6-3,2.6c0.4,1.5,2.3,0.8,3.5,0.6c9.3-1.1,18-3.5,24.4-10.9
	c1.4-1.6,2.8-2,4.8-0.6c2.2,1.5,4.7,2.5,7,3.9c6.6,4.1,7.5,7.7,4.7,15c-5.9,14.7-17.8,20.9-32.2,23.7c-1.6,0.3-3.3,0.4-4.9,0.7
	c-7.2,1.6-7.2,1.6-9.6-5.5C411.8,234.8,411.2,230.1,411.2,225.5z"/>
<path fill="#87CDF1" d="M514,298.4c-0.1,4.1-5.8,6.5-8.9,4.5c-2.5-1.7-4.9-3.4-7.2-5.4c-10.7-8.5-21-17.4-30.8-26.9
	c-2.1-2-2.6-3,0-5.3c7.8-7,15.6-13.9,23.6-20.7c2.4-2,3.3-2.1,5.9,0.2c9,8.1,12.9,18,13.8,29.8C511,282.9,512.8,291.1,514,298.4z"/>
<path fill="#CD89C2" d="M525.8,333.6c7.1,10.8,10.9,21.5,14.9,32.3c6.4,17.4,9.9,35.7,10.1,54.2c0.2,7.3-1.8,8.6-8.7,7
	c-15-3.6-27.2-12.1-39-21.3c-6.6-5.1-6.5-12.5-5.4-19.7c1.7-11.4,4.4-22.5,9.6-32.9c3.9-7.8,10.5-13.5,15-21.1
	c2.1,1.9,0.5,2.9,0.2,4c-5.1,13.9-11.6,27.4-14.5,41.9c-4,19.6-3.8,16.5,11.3,28.3c5.8,4.5,12.3,8,19.3,10.2
	c3.3,1.1,4.6,0.3,4.5-3.3c-0.2-8.5-1.4-16.9-3.7-25.1c-4.2-15.8-8.1-31.6-14.6-46.6C523.8,338.9,525,337,525.8,333.6z"/>
<path fill="#CD89C2" d="M533.4,341.4c1-0.1,1.9,0.5,2.1,1.5c7,19.5,18.6,36.9,26.5,55.9c14,33.5,29.5,66.4,40,101.2
	c4.1,13.6,8,27.2,9.8,41.3c2.4,19,0.1,37.8-5.2,56.2c-0.7,2.5-7.5,4.6-9.3,2.9c-1.5-1.3-0.3-2.8,0.2-4.2c5.5-16.5,7.2-33.5,6.7-50.7
	s-5.2-33.9-9.8-50.4c-9.9-35.6-24-69.6-40-102.7c-7.9-16.4-13.3-33.8-21.3-50.1C532.9,342.2,533.2,341.8,533.4,341.4z"/>
<path fill="#CD89C2" d="M491.8,234.9c-11,8.2-21.1,17.2-28.8,28.7c-1.9,2.9-1,4.8,1,7c9.7,10.3,20.4,19.7,31.8,28.1
	c1.1,0.7,2.1,1.6,3,2.6c-6.2-1.5-12.3-2.8-17.6-6.9c-8.2-6.5-16.5-13-24-20.3c-5.4-5.2-5.6-7.6-1.3-13.7c9.3-13.5,21.1-25,34.8-34
	c7.7-5,14.3-3.4,18.8,4.5c11.4,19.9,16.8,42.7,15.4,65.6c-0.1,1.2,0.5,3.1-1.6,2.9c-1.4-0.1-3.1-0.5-3.6-2.2c-0.2-1-0.3-2-0.3-3
	c0.5-15.4-3.6-30-8.4-44.4c-1.6-4.8-4.5-7.9-9.6-9c-2.4-0.5-4.7-1.7-7.1-2.4C492.4,237.8,491.5,236.8,491.8,234.9
	c5.3-1.8,9.9-0.3,13.9,3.7C501,229.9,498.6,229.3,491.8,234.9z"/>
<path fill="#7A739C" d="M415.2,186.4c7.6,2.4,17.1-0.5,22.8-7.9c0,4.3,0,7.3,0,10.4c0.2,1.5-0.8,2.9-2.3,3.2c-0.2,0-0.5,0-0.7,0
	c-4.2,0.2-8.3,0.7-12.4-0.4c-15.8-4-28.5-12.3-36.6-26.9c-3-5.4-2-8.5,4.1-9.6c17.1-3.2,31.9,1.5,44.3,13.5
	c4.5,4.4,2.6,10.3-3.6,12.2c-4.3,1.3-8.7,2.4-13,3.6C416.9,184.8,415.7,185,415.2,186.4z"/>
<path fill="#7A739C" d="M354.4,169.9c-11.9-1.5-23.5-5.1-31.5-15.8c-2.2-3-2.9-5.1,0.8-8.2c11-8.9,23.5-9.4,36.1-6.6
	c8.9,2,17.4,5.7,21.8,15c1.2,2.5,1.6,4.4-0.8,6C373,165.7,364.7,169.6,354.4,169.9z M357,166c5.7-2.7,13.1-3.9,18.7-8.9
	c1-0.9,2.3-1.7,1.3-3.3s-2.5-1.5-4-0.7c-6,3.1-12.1,6.2-18.1,9.4c-0.9,0.5-2.4,1.1-1.7,2.6C353.8,166.2,355,165.9,357,166z"/>
<path fill="#CD89C2" d="M550.8,317.1c8.6-0.4,17-0.4,25.3-1.6c3.9-0.6,7.2-2.5,10.9-3.5c1.8-0.5,1.7-1.7,1.4-3.2
	c-2.9-16-10.5-29.7-19.9-42.6c-3.1-4.2-5-4-9-0.3c-9.5,9-14.9,20.8-21.3,31.8c-1.2,2.2-2.2,4.5-3.4,6.7c-0.7,1.1-0.8,3.6-2.8,2.6
	c-1.6-0.8-2.3-2.8-1.3-4.8c2-4.5,3.6-9.4,6.2-13.6c6.3-10.4,12.4-20.9,20.2-30.3c6.5-7.9,11.3-7.7,17.1,0.4
	c9.4,13,15.4,27.5,20.6,42.5c1.1,3.3,1.5,6.8,2.3,10.2c1.5,6.1-1.7,8.4-6.7,9.8c-9.7,2.7-19.3,5.1-29-0.3
	C558.1,319,554.3,318.3,550.8,317.1z"/>
<path fill="#403D54" d="M206.3,177c-3.8-0.2-7.7,0.5-11.4-0.6c-1.7-0.5-3.8-1-4-3.2s1.7-3.2,3.4-3.8c6.9-2.2,12.7-6.5,19.1-9.6
	c5.1-2.4,9-6.2,13.1-9.7c3.5-3,6.7-3.6,10.8-1.2c7.1,4,15.1,4.8,22.9,6.4c1.9,0.4,4.6,0,5,2.4s-2.1,3.5-3.9,4.6
	C244.4,172.2,226.1,177.6,206.3,177z"/>
<path fill="#7A739C" d="M277.5,127.4c1,0.1,3.2,0.3,5.3,0.7c6.5,0.8,11.4,6.3,11.5,12.9c0,1.8-1.3,2.2-2.5,2.7
	c-5.8,2.8-11.9,5.3-18,7.4c-8.4,2.8-16.1-0.9-23.9-2.4c-4.9-1-9.6-2.8-14.3-4.3c-2.9-0.9-4-2-1.1-4.6c7.8-7.1,17.8-11.2,28.4-11.5
	L277.5,127.4z"/>
<path fill="#87CDF1" d="M586.3,385.1c-2.1-10.3-6.9-19.6-11.2-29.3c4.5,3.2,7.5,7.7,11.2,11.6c6.2,6.5,4.6,12.9,1.5,19.9
	c-2.8,6.4-3.1,6.7-8.7,2.3c-16-12.7-27.6-28.7-33.7-48.4c-0.3-1-1.3-2.4-0.2-3.3c1.3-1.1,2.4,0.4,3.5,0.8c0.2,0.1,0.3,0.2,0.4,0.2
	c20.8,10.9,20.8,10.9,30,32.6c1.9,4.6,3.8,9.2,5.7,13.8L586.3,385.1z"/>
<path fill="#87CDF1" d="M568.2,511.1c1.8,6.3,2.8,12.9,3,19.5c0,4.8,0.5,9.6,1.5,14.3c2.2,8.7,1.5,17.5,1.5,26.3
	c0,3-1.3,4.5-4.5,4.7c-3,0.1-5.9,1.2-8.2,3.2c-0.9,0.8-2,2.3-3.4,1.5s-0.8-2.4-0.7-3.7c1.1-13.1,2.8-26.3,1.6-39.3
	c-0.9-9.5,2.5-16.8,6.7-24.3c0.3-0.6,0.7-1.1,1.1-1.6C567,511.4,567.4,511.4,568.2,511.1z"/>
<path fill="#403D54" d="M372.9,130c16.9,0.1,32,4.6,45.5,14.4c1.8,1.4,3.5,3,5,4.9c1.1,1.2,2.1,2.9,1,4.5c-1.2,1.8-3,0.9-4.5,0.3
	c-7.5-3.2-15.4-5.2-23.3-3.8c-8.8,1.5-14.8-1.4-20.5-7.6c-3.3-3.6-7.9-5.4-12.7-6.6c-1.7-0.4-4.2-0.6-4.2-2.8c0-2.7,2.9-2.4,4.7-2.6
	C366.8,130.3,369.8,130.1,372.9,130z"/>
<path fill="#87CDF1" d="M560.8,314.3c-3.2-0.5-6.9,1.3-8.5-0.9c-2.9-3.9-4.9-8.6-6.9-13.1c-0.7-1.5,0.8-2.7,1.9-3.8
	c4.5-4.4,9-8.8,13.4-13.3c1.8-1.8,3.3-1.8,5.1-0.1c1.9,1.6,3.4,3.6,4.5,5.9c2.9,6.7,6,13.3,9,20c1.2,2.6,0.8,4-2.5,4.2
	C571.3,313.4,565.8,313.9,560.8,314.3z"/>
<path fill="#CD89C2" d="M557.1,532.8c-0.5,11.9-0.9,23.9-1.5,35.8c-0.8,14.1-2.6,28.1-5.3,42c-0.8,4.2-1.9,8-5.5,10.7
	c-2.8,2.1-4.2,5.5-7.1,8.9c2-10.9,4.4-20.8,5.9-30.8c2.1-14.5,4.1-29,4.5-43.6c0.2-8.9,5.3-15.5,7.7-23.2L557.1,532.8z"/>
<path fill="#89D2F3" d="M470.3,316.7c12.4,0.9,24.9,1.7,37.3,2.5c3.7,0.2,5,3.2,6.5,5.6c1.3,2.3-1.2,3.5-2.6,4.8
	c-5,4.9-10.2,9.6-15.3,14.4c-1,1-2.1,2.6-3.6,0.5C485.8,335.1,478,326.2,470.3,316.7z"/>
<path fill="#CD89C2" d="M523.2,342.7c6.6,20,13.2,38.9,15,58.9c0.2,2.1,0.8,4.3,0.7,6.4c-0.1,1.9,2.1,5.1-0.9,5.4
	c-2.5,0.2-6.1-0.7-6.9-4.5c-0.6-2.9-1.2-5.9-1.7-8.8c-2.6-14.9-5.4-29.8-9.3-44.5C518.8,351.1,520.8,347.6,523.2,342.7z"/>
<path fill="#CD89C2" d="M516.7,304.4c0.2-4.2,2.4-4.9,5.6-3c4,2.5,4.4,0,4.8-3c0.6-5-0.1-9.9-0.3-15.1c5.7,5,6.5,7.7,3.6,14
	c-2,4.5-3,7.9,1,12.6c3.8,4.5,7.8,10.1,6.7,17.2c-0.4,3.3-1.8,6.4-4,8.9c-2.5,2.8-3.9,2.1-4.8-0.8c-3.1-9.5-9.5-17.1-15.3-24.9
	c-1.3-1.5-2.8-2.9-4.3-4.2C511.8,304.7,514.3,304.1,516.7,304.4c9.2,7,12.6,17.5,16.6,27.6c0.9-6.8-8.3-24.2-13.8-26.9
	C518.6,304.7,517.7,304.5,516.7,304.4z"/>
<path fill="#7A739C" d="M329.3,139.3c2.6-7.4,4.4-14.2,3.1-21.5c-0.4-2.3,0.9-3.3,3-3.7c5.2-1,10.6-1,15.9-0.2
	c4.3,0.7,4.4,4,3.2,6.9c-2.7,6.7-7.9,12.1-14.5,15C336.9,137.3,333.5,138,329.3,139.3z"/>
<path fill="#87CDF1" d="M533.8,604.7c2.6-8.7,2.7-17.5,3.4-26.3c0.2-1,0.2-2,0-3c-2.6-8.9-0.1-15.8,8.6-20.3
	c0.7,5.2-0.7,10.7-1,16.2c-0.5,7.6-1.7,15.2-2.7,22.8C541.3,599.1,538.2,602.3,533.8,604.7z"/>
<path fill="#403D54" d="M234.9,136.1c-8.3,11.2-18.5,17.8-28.9,23.9c-4.3,2.5-8.5,5-13.5,6.3c-1.8,0.5-3.6,2.6-5.2,0.2
	s1-3.2,2.2-4.3c8.5-8.7,19.7-12.8,30.6-17.5c2.5-1.1,4.7-1.7,6.4-4.1C228,138.4,230.7,137,234.9,136.1z"/>
<path fill="#AFD9F1" d="M509.6,385.5c0.7-9.9,4.5-18.9,8.7-29.3c3.6,18.2,6.8,35,10.2,52.2c-4-0.4-5.5-2.6-6.7-5.6
	c-3.3-8.2-4.8-16.9-7.7-26c-1.3,2.4-1.9,5-2,7.7c0,3.1-1.6,0.9-2.5,0.8L509.6,385.5z M519.8,375.1c-1,5.6-0.2,10.9,3.2,15.6
	C523.4,385.2,521.7,380.2,519.8,375.1z"/>
<path fill="#90BEEF" d="M600.6,535c2.6,17.7,0.5,35.1-3.3,52.4c-0.1,0.7-0.4,1.3-0.7,1.9c-0.7,1.3-1.6,3.1-3.2,2.7
	c-2.1-0.6-1.4-2.8-1-4.3c1.7-6.2,3.5-12.5,5.4-18.7c1-3.7,1.4-7.5,1.3-11.4c0-7.6,0-15.1,0-22.7L600.6,535z"/>
<path fill="#AFD9F1" d="M504,409.7c3.8,2.6,6.3,4.5,9,6.2c2.6,1.4,3.8,4.5,3,7.3c-0.8,4-2.4,7.7-5.9,10c-1.3,0.9-1.8-0.3-2-1.3
	C506.8,424.9,504.6,418.2,504,409.7z"/>
<path fill="#7A739C" d="M444.7,194.1c-2.4-0.6-4.1-2.6-4.3-5.1c-1.6-12.1,4.3-20.9,12.6-28.6C448,170.9,445.1,182.4,444.7,194.1z"/>
<path fill="#7A739C" d="M110.6,228.6c-0.4-0.1-1-0.1-1.2-0.4c-0.7-0.8-0.1-1.6,0.5-2.1c7.1-7.1,13.6-14.9,21.9-20.8
	c1-0.7,2.1-1.4,3.1-0.4c0.7,0.7,0.1,1.5-0.4,2.2c-6.3,8.1-13.8,15.2-22.4,20.9C111.6,228.2,111.1,228.4,110.6,228.6z"/>
<path fill="#AFD9F1" d="M494.9,314.7c-10.4-1.8-20.8,0-31.2-0.5c-1.7-0.1-2.7,1.1-4.2,1.4c-1.6,0.2-3.2,0-3.7-1.8
	c-0.6-2.2,1.3-2.4,2.8-2.5C470.8,310.7,483,311.1,494.9,314.7z"/>
<path fill="#AFD9F1" d="M523.9,425.3c-0.3,3.4-7.2,11.8-10.4,12.7c-1.2,0.3-2.5,0.5-3.2-0.6c-0.9-1.4,0.8-1.9,1.5-2.6
	c3.2-2.9,5.4-6.7,6.4-10.9c0.3-1.5-0.2-4.3,2.6-3.6C523.1,420.7,524.3,422.8,523.9,425.3z"/>
<path fill="#87CDF1" d="M550.9,280.7c2.4-5.5,6.4-9.4,10.3-13.4c1.8-1.8,3.9-1.7,5.6,0.4c2.1,2.5,4.1,5.1,5.9,7.8
	C563.6,270.4,557.3,275.4,550.9,280.7z"/>
<path fill="#87CDF1" d="M543.4,314.4c-0.2,0-0.3,0-0.5,0c-2.5-0.5-6,0.8-7.2-1.9c-1.3-3,2.3-4.7,3.7-7s2.6-2.1,4,0
	c1.2,1.8,2.5,3.5,3.7,5.3c0.7,1,2.4,1.8,1.5,3.3s-2.4,0.4-3.7,0.5C544.3,314.5,543.9,314.4,543.4,314.4z"/>
<path fill="#D28DC4" d="M563.5,336.1c-7.5,2.6-12.7-0.8-18.2-2.5c-1.8-0.4-3.2-1.9-3.6-3.7c-0.3-1.4,0.2-2.8,1.7-2.2
	C549.9,330.2,556.3,333.1,563.5,336.1z"/>
<path fill="#7A739C" d="M264.7,124.7c7.4-2.1,14.8-4.3,22.2-6.3c1.2-0.4,2.4,0.3,2.8,1.5c0.1,0.2,0.1,0.4,0.1,0.5
	c0.3,1.7-0.3,3.6-2,3.3c-7.8-1.2-15.2,1.7-22.8,2.2L264.7,124.7z"/>
<path fill="#87CDF1" d="M584.5,304.9c-1.3,0.5-2.7-0.2-3.2-1.5c-2.2-4.3-4.3-8.6-6.3-12.9c-0.6-1.2-1.2-2.7,0.3-3.6s2.7,0.4,3.3,1.5
	C581.2,293.7,584.2,298.8,584.5,304.9z"/>
<path fill="#90BEEF" d="M487.5,368.3c1.9,0.3,3.1-3.5,5.1-1.1s5.7,3.8,4.6,8.1c-0.7,2.5-0.9,5-1.4,8.4
	C491.9,378.4,492.5,371.8,487.5,368.3C487.4,368.2,487.5,368.3,487.5,368.3z"/>
<path fill="#90BEEF" d="M509.5,385.5c1.7,4.1,5,7,7.3,10.7c1.3,2,2.7,4.1,2.6,6.8c-1.9-0.1-2-1.5-2.4-2.7c-0.2-0.7-0.2-1.6-1.3-1.8
	c-7-1.5-8.7-4.3-6.8-11c0.2-0.6,0.5-1.2,0.7-1.9L509.5,385.5z"/>
<path fill="#90BEEF" d="M560.1,388.4c6.3,5.4,11.7,11.8,18.7,16.2c1.3,0.7,1.8,2.3,1.1,3.6c-0.1,0.3-0.3,0.5-0.5,0.7
	c-1.5,1.5-2.3-0.5-3-1.4C571.2,401,564.4,395.8,560.1,388.4z"/>
<path fill="#AFD9F1" d="M499.1,370.2c-6.6-5.8-6.7-6-1.4-10c2.7-2,3.9-5.4,8.4-7.6C502.6,358.5,499,363.2,499.1,370.2z"/>
<path fill="#90BEEF" d="M586.8,603.2l8.7-10.1C594.1,601.1,592.5,603,586.8,603.2z"/>
<path fill="#7A739C" d="M404.2,210c0.7-1.7,2.1-2,3.2-2.5c1.3-0.7,2.7-1.4,4.2-0.2c0.6,0.4,0.7,1.2,0.4,1.8c-0.8,1.3-2.2,2.1-3.8,2
	C407,211,405.6,211.2,404.2,210z"/>
<path fill="#89D2F3" d="M415.3,409.7c-10.7-22.8-23.7-44.5-38.7-64.8c2.5,0.3,3.3,1.6,4.2,2.8c17.2,23.2,32,47.9,41.7,75.3
	c0.5,1.4,1.8,3,0.7,4.2c-1.5,1.5-3-0.5-4.4-0.9c-22.7-6.6-43.3-17.9-64.2-28.7c-3-1.6-3.2-3-2.8-6.2c2.4-17,4.4-34,6.3-51
	c0.3-2.7-0.5-5.6-0.9-8.4c-0.4-3.1,1-4.8,4-5.1c0.6-0.1,1.5,0.1,1.8,0.5c0.8,1.2-0.8,1-1,1.4c-1.2,2.1,2.5,2.4,1.8,4.5
	c-1.7,0.9-3-1.9-4.9-0.9c0,0.2-0.1,0.5,0,0.5c16.3,9.6,23.4,26.8,33.7,41.3c7.6,10.7,13.9,22.3,20,34
	C413,408.8,413.3,409.7,415.3,409.7z"/>
<path fill="#89D2F3" d="M341,389.3c-7.8-3.1-13.8-8.8-20.2-14c13.2,15.4,27.6,29.8,42.9,43.2c-1-0.6-2-1.1-3-1.8
	c-23.5-16.7-45.1-35.8-64.6-57c-2.3-2.5-1.8-3.1,1-4.2c15-6,29.9-12.1,44.8-18.3c3.2-1.3,4-1,3.6,2.7c-1.7,16.5-3.2,33.1-4.7,49.6
	L341,389.3z"/>
<path fill="#68AFE7" d="M290.3,348.7c-0.2,0.1-0.5,0.2-0.7,0.3c-4.2,2-7.4,1.7-10.6-1.7c-8.6-8.9-18.1-16.8-25.8-26.5
	c-0.4-0.5-0.9-1-1.9-0.1c9.3,22.9,15.5,46.7,19.7,71.2c-0.5-3.2-0.8-6.5-1.4-9.7c-2.2-11.8-4.6-23.5-6.9-35.3
	c-0.5-2.4-0.6-4.9,1.8-6.2c2.4-1.3,4.1,0.2,5.7,1.7c2.7,2.4,5.5,4.9,8.2,7.3c4.2,3.8,8.4,6,13.6,4.6
	C291.5,352.5,290.9,350.6,290.3,348.7z"/>
<path fill="#CD89C2" d="M408.6,297.7c-1.2-2.7-3.7-1.6-5.7-0.8c-15.6,6.8-31.2,13.5-46.4,20.8c-20.8,10-42,19.2-62.8,29.2
	c0.6,1.9,1.3,3.9,1.8,5.9c0.2-0.1,0.4-0.2,0.6-0.3c7.2-4.2,15.1-7.1,22.6-10.5c28.8-13.1,57.6-26.2,86.4-39.4
	C407.1,301.7,409.9,300.7,408.6,297.7z"/>
<path fill="#89D2F3" d="M387.4,416.9c3.5,2.6,7.6,4.1,11.7,5.6c8.3,3,16.6,5.9,24.9,8.8c2.3,0.8,6,10,4.8,12.2c-1,1.8-2.6,1-4,0.8
	c-14.8-2.5-29.4-5.6-41.9-14.8c-11.6-8.5-23.1-16.9-33.3-27c-1-1-3.9-1.8-2.2-4.1c1.6-2.1,3.2-0.2,4.8,0.7
	c11.6,6.6,23.4,12.7,35.6,18.1c-2.3,0-4.6-0.5-6.7-1.5c-7.2-3.4-14.4-6.8-21.6-10.1c-0.9-0.4-1.8-1.7-2.9-0.4
	c3.7,3.4,24.2,13.1,28.5,13.6C386.3,418.8,387.1,418.4,387.4,416.9z M425.2,442.1c-0.4-3.5-0.7-7.1-4.8-9.6
	C421.2,436.7,421.9,440,425.2,442.1z"/>
<path fill="#CD89C2" d="M340.9,389.4c2.2-1.1,2.8-3.1,3-5.4c1.4-14.5,2.8-29.1,4.1-43.6c0.1-1.7,0-3.4-0.4-5
	c-0.4-1.7,0.1-3.4,1.3-4.6c1.1-1,2.3-2.1,4-1.4s1,2.3,0.9,3.5c-1,10.3-2.1,20.5-3.2,30.7c-1,9.4-2.1,18.8-3.1,28.2
	c-0.2,1.7-0.4,3.4-2.4,3.9s-2.8-1.5-4.1-2.3c-2-1.3,1.4-2.9,0-4.3L340.9,389.4z"/>
<path fill="#90BEEF" d="M436.2,473.2c-1.6-6-3.6-11.8-5.9-17.6C434.3,457.9,436.4,464.2,436.2,473.2z"/>
<path fill="#68AFE7" d="M298.6,367.5l-10.5-9.1c5.9,0.2,7.3,5.6,11.4,8C299.2,366.7,298.9,367.1,298.6,367.5z"/>
<path fill="#7A739C" d="M55.2,244.6c1.3-0.1,2.6-0.2,4-0.2c3.9,0,5.8-1.9,4.4-5.6c-1.3-3.6,0.3-3.9,3.2-3.9
	c6.5,0.1,12.9,1.9,18.4,5.5c4.3,2.7,4.1,4.1,0.9,8.3c-4,5.2-8.8,10-10.2,16.9l0.1-0.2c-1.9,1.9-3.4,4-4.6,6.5c0,0,0.1,0,0,0
	c-3.8-4.8-8.6-9-11-14.9c-1.7-4.1-3.5-8.2-5.2-12.2l0,0C55.2,244.8,55.2,244.6,55.2,244.6z"/>
<path fill="#7A739C" d="M75.9,265.4c4.3-5.2,7.1-11.5,12.3-16.5c1.7,1.8,1.6,4,1.6,6c-0.1,4.3-0.4,8.6-0.9,12.9
	c-0.5,5.4-1.8,6.1-6.6,4c-2.9-1.3-7.3-1.4-6.3-6.5L75.9,265.4z"/>
<path fill="#7A739C" d="M55.3,244.6c-0.3-1.4-0.7-2.8-1.2-4.2c-1-2.5-0.5-4.3,2.1-5c2.1-0.5,4.3-0.6,5.1,2.3
	c0.7,2.4,0.7,4.1-2.4,4.6C57.7,242.5,56.5,243.8,55.3,244.6L55.3,244.6z"/>
<path fill="#F9EBE0" d="M531.4,515.8c1.8-2.3,3.8-4.5,5.5-6.9c7.9-11.4,7.2-19.7-2.3-29.9c-1.3-1.3-2.6-2.6-4.1-3.7
	c-6.4-5-4.6-11.8-1.1-16.3c2.2-2.9,9.1-2.1,13.2,1.4c3.3,2.8,5.9,6.4,7.4,10.5c2.1,5.7,3.8,11.7,2.3,18.1c-1.3,5.3-1.7,10.9-3.4,16
	C546.2,512.8,538.1,513.3,531.4,515.8z"/>
<path fill="#87CDF1" d="M87.5,591.7c0-1.7,0.1-3.6,2.1-3.9c1.9-0.2,2.2,1.7,2.6,3.1c0.5,1.9,1,3.8,1.4,5.8c0.3,1.6-0.1,3.1-2,3.4
	s-2.8-0.9-3.1-2.5C88,595.6,87.8,593.6,87.5,591.7z"/>
<path fill="#F9EBE0" d="M351.9,449.3c-14.6,2.9-28.8,7.2-42.5,13C320.9,449.3,337.3,452.2,351.9,449.3z"/>
<path fill="#BDB7D1" d="M718.3,715.1c-12.4-2.8-14.6-5.4-14.1-15.5L718.3,715.1z"/>
<path fill="#7A739C" d="M33.9,342.9c1-1.1,2.2-2,3.4-2.9c3.4-1.8,5.3-0.5,4.8,3.2s-1.3,7.1-1.9,10.7c-0.2,1.2-0.4,2.4-1.9,2.5
	c-1.4,0.1-2.1-0.8-2.8-1.8c-0.8-0.7-0.9-2-0.1-2.8c0.1-0.1,0.2-0.2,0.3-0.3c4.1-3.9,2.5-6.6-1.8-8.8V342.9z"/>
<path fill="#7A739C" d="M33.8,342.8c0.2,0.8,0.5,1.5,0.9,2.3c1.1,1.8,2,3.8-0.4,5.1c-2.7,1.5-4-1.5-4.9-2.8
	c-1.5-2.3,1.6-2.4,2.8-3.5c0.5-0.4,1.1-0.7,1.7-1L33.8,342.8z"/>
<path fill="#2D3134" d="M636.1,947.9c-3.6-0.7-7-1.2-10.4-1.9c-1.3-0.3-2.8-0.7-2.5-2.5s1.8-1.7,3.1-1.4c3.4,0.7,6.8,1.3,10.2,2
	c1.3,0.3,2.8,0.7,2.4,2.5C638.5,948.1,637.1,947.7,636.1,947.9z"/>
</svg>
