<?xml version="1.0" encoding="utf-8"?>
<!-- Generator: Adobe Illustrator 24.1.0, SVG Export Plug-In . SVG Version: 6.00 Build 0)  -->
<svg version="1.1" id="图层_1" xmlns="http://www.w3.org/2000/svg" xmlns:xlink="http://www.w3.org/1999/xlink" x="0px" y="0px"
	 viewBox="0 0 744 797.5" style="enable-background:new 0 0 744 797.5;" xml:space="preserve">
<style type="text/css">
	.st0{fill:#FFFFFF;stroke:#000000;stroke-miterlimit:10;}
</style>
<path id="XFF99FFM1Color9_3_" class="st0" d="M519,719.8c-0.6-20.7-1.3-41.3-1.9-62c-0.3-11.4,2.4-14.4,13.7-15.9c2-0.3,4-0.4,6-0.5
	c1.9,0.1,3.6-1,4.2-2.8c1.9-4.9,5.7-7.2,10.8-7.4c1.8-0.1,3.7-0.3,5.4-0.7c3.5-0.8,5-4.2,2.5-6.8c-3.2-3.5-3.3-6.6-0.2-10
	c1.9-2.1,1.7-4.2-0.2-6.2c-3-3.1-2.9-6.3-0.2-9.3c2.1-2.3,2-4.3,0-6.5c-2.8-3.1-2.9-6.2,0-9.3c2.1-2.2,2.2-4.5,0-6.5
	s-3.1-5.2-1.3-7.2c3.4-3.8,2.9-7.9,2.8-12.1c-0.1-3.3,1.4-4.4,4.4-4.7c19.6-1.4,39.3-1.5,58.9-0.1c3.4,0.2,5.3,1.6,4.7,5.4
	c-0.3,1.7,0.3,3.4,1.5,4.5c3,3,3.2,6.2,0.1,9.2c-2.3,2.2-2.2,4.4-0.1,6.5c3.2,3.3,3,6.4-0.2,9.5c-2,2-1.8,4.1,0.2,6.1
	c2.9,3,3.3,6.1,0.3,9.2c-2.2,2.4-2.5,4.4,0.1,6.8c2.8,2.6,2.4,5.5,0.3,8.5c-5,7.2-2.5,12.7,6.2,13.4c5.4,0.5,9.7,2.1,11.6,7.7
	c0.8,2.4,2.8,2.4,4.9,2.6c18,1.4,19.5,3.2,19,21.5c-1.1,39-2.2,78-3.2,116.9c-0.1,1.8-0.1,3.7-0.2,5.5c-0.5,8.6-3.9,12-12.5,12.1
	c-18.5,0.1-37,0.1-55.5,0.1c-22.3,0-44.7,0-67,0c-9.7,0-13.2-3.4-13.6-13.1c-0.7-21.5-1.2-43-1.9-64.5L519,719.8z M595.4,645.3
	L595.4,645.3c-19.2,0-38.3-0.1-57.5,0c-8.4,0.1-8.5,0.3-8.1,8.8c1.2,27.5,2.9,54.9,7.2,82.1c3.4,21.7,11.4,31.3,32.8,36.2
	c16.6,3.8,33.9,3.8,50.6,0.1c22.1-5,30.4-14.6,33.4-37.2c1.1-7.9,2.2-15.8,2.8-23.8c1.3-18.8,2.3-37.6,3.4-56.4
	c0.6-9.5,0.6-9.7-9.1-9.8C632.4,645.2,613.9,645.3,595.4,645.3z"/>
<path id="XCCFFC7M2Color21_1_" class="st0" d="M742,286.1c-0.7,26.2-1.3,52.3-2,78.5c-0.3,11.5-4.8,15.8-16.4,15.8h-148
	c-11.7,0-16.3-4.5-16.7-16.1c-1.4-52-2.8-104-4.3-155.9c-0.3-11.1,4.4-16.3,15.5-17c1.5-0.1,3-0.4,4.5-0.4c5.1,0,8.9-1,11.3-6.6
	c2.1-5,7.7-5.9,12.8-6.4c3.8-0.4,7.8-0.2,9.3-5c0.5-1.6,2.3-1,3.6-1c25-0.1,50-0.1,75-0.1c1.5,0,3.6-0.4,4.1,1.2
	c1.3,4.9,5.1,4.6,8.8,4.8c7.1,0.6,13,3,15.4,10.5c0.6,2,2.3,2,4,2.2c3.8,0.3,7.6,0.6,11.4,1c9,0.9,13.9,6.2,13.7,15.2
	C743.4,233.1,742.7,259.6,742,286.1L742,286.1z M646.7,194.5c-21.9,0.6-46.7-0.8-71.5,0.6c-4.6,0.3-6.1,1.8-5.7,6.4
	c0.9,12.6,1.7,25.3,2.2,37.9c1.1,24.3,3.8,48.5,8,72.5c3.5,20.8,15.7,33.2,36.1,37.8c21,4.7,42.8,5,64,0.9
	c12.3-2.3,23.6-7,31.7-17.5c5.5-7.1,7.9-15.4,9.3-24c3.7-22.2,5.4-44.6,6.7-67.1c0.8-13.6,1-27.3,1.8-41c0.2-4.3-1.2-6.1-5.6-6
	c-3.7,0.1-7.3-0.6-11-0.7C691.6,194.4,670.6,194.4,646.7,194.5L646.7,194.5z"/>
<path id="XCCFFC7M2Color21" class="st0" d="M697.9,87.5c0,25-0.1,50,0.1,74.9c0,3.9-1,5.2-5,5.1c-29.3-0.2-58.6-0.2-87.9,0
	c-4.3,0-5.2-1.5-5.2-5.5c0.1-50,0.1-100,0-149.9c0-4,1.4-5.5,5-6.5c18.4-4.9,37.1-5.9,56-4.9c10.8,0.6,21.5,2.2,32,4.9
	c3.9,1,5.2,2.8,5.2,6.9C697.8,37.5,697.9,62.5,697.9,87.5L697.9,87.5z M674.8,86.2L674.8,86.2c0,23.3,0.2,46.7-0.1,70
	c-0.1,5.3,2,6,6.4,5.9c4.4-0.1,6.6-0.5,6.6-5.8c-0.2-44.6-0.2-89.3-0.2-133.9c0-2,0.1-4,0-6c-0.2-3-5-5.4-9.9-5.3
	c-4,0.1-2.7,3.2-2.7,5.2C674.8,39.5,674.8,62.9,674.8,86.2z"/>
<path id="XFF9900M2Color3_1_" class="st0" d="M119.6,123.6c0.9,20.5,2.3,40.9,2.3,61.4c0,4.3-0.7,6-5.6,6c-26.8-0.3-53.6-0.2-80.4,0
	c-5.2,0.1-5-2.6-5-6.3c1-44.1,3.6-88.2,7.2-132.2c1.2-14.5,2.8-28.9,3.9-43.3c0.3-4.3,2.2-6.2,6.3-6.8C66.8-0.2,85.5-0.2,104,2.4
	c4.3,0.6,6.4,2.2,6.9,7.2C115.2,47.5,117.2,85.5,119.6,123.6z M45.9,123.8h-1.4c0,17.3-0.1,34.6,0,52c0.1,12.4-2.1,10.4,10.9,10.7
	c3.3,0.1,4.3-1.1,4.3-4.3c-0.2-11.5-0.2-23-0.1-34.5c0.2-31.5,0.4-63,2.2-94.4c0.9-14.5,2.1-29,3-43.4c0.1-1.7,1.1-3.8-1.2-4.9
	c-3.8-1.9-9.5,1-10,5.2C49.3,47.9,47.3,85.8,45.9,123.8z"/>
<path id="X05E8E2M2Color11_2_" class="st0" d="M311.1,132.4c2.6-41.7,4.7-82.4,9.1-123c0.5-5,2.6-6.9,7.3-7.6
	c17.5-2.4,35.3-2.5,52.8-0.1c4.7,0.6,7.2,2.5,7.8,7.8c2.4,22.2,4.1,44.5,5.6,66.7c2.2,31.9,4.1,63.8,4.9,95.8c0.1,3.3,0,6.7,0.2,10
	c0.4,3.9-1.1,5-5,5.2c-26.3,1-52.6,0.8-79,0.1c-4.6-0.1-5.6-1.6-5.4-5.9C310.1,164.8,310.5,148.1,311.1,132.4z M322.9,126.7
	c0,17.2,0,34.3,0,51.5c0,1.6-0.7,3.9,1.2,4.4c3.8,1.2,7.9,1.4,11.8,0.3c3.2-1,1.7-4.7,1.6-7.1c-0.4-36.5,0.2-73,1.3-109.5
	c0.6-18.8,1.9-37.6,3.6-56.4c0.2-1.8,1.3-4.1-0.9-5.5c-3.3-2.1-9.6,1.1-10.1,5C327.2,48.5,325.3,87.6,322.9,126.7z"/>
<path id="XFF66FFM2Color7_2_" class="st0" d="M203.3,452.6c-0.7,1.8-1.5,4-2.4,6.1c-17.4,38.9-36.3,77.1-55.9,114.9
	c-6.4,12.4-13.3,24.6-19.7,37c-1.7,3.3-3.1,4.2-6.8,2.3c-23.4-12.4-46.3-25.6-68.7-39.8c-3.1-1.9-3.6-3.4-1.6-6.7
	c29.6-48.5,60.9-95.8,94.1-141.9c5-7,5.2-7.1,13-3.8c16,6.6,31,15.4,44.6,26.3C203,449.6,203.4,450.4,203.3,452.6z M70.1,580.9
	c2.2,0,2.9-1.2,3.6-2.4c1.9-3.3,3.7-6.7,5.6-10c22.7-39.6,45.6-79,71.2-116.8c4.2-6.2,8.5-12.3,12.7-18.5c0.8-1.3,2.4-2.5,0.7-4.3
	c-3.6-3.7-8.5-3.3-11.6,1c-10.2,14.2-20.1,28.6-29.8,43.1c-21.4,31.9-41.8,64.5-61.2,97.7c-0.7,1.1-2,2.6-0.9,3.6
	C63.5,576.7,67.1,578.8,70.1,580.9z"/>
<path id="XFF9900M1Color3_2_" class="st0" d="M357.2,528.2c0-22.8,0.1-45.6-0.1-68.5c0-4,1.2-5.9,5.2-6.9c26.3-6.5,53.8-6.5,80.1,0
	c4,1,5.1,2.9,5.1,6.9c-0.1,45.8-0.1,91.6,0,137.4c0,4-1,5.5-5.3,5.5c-26.5-0.2-53-0.2-79.4,0c-4.2,0-5.8-1-5.7-5.5
	C357.4,574.2,357.2,551.2,357.2,528.2L357.2,528.2z M378.1,527.6c0-21.6,0-43.3,0-64.9c0-1.7,0.9-3.8-1.4-4.9
	c-4-1.8-10.3,2.1-10.3,6.5c0,42.8,0.1,85.6-0.1,128.3c0,5.6,3,5,6.6,5.3c4.2,0.3,5.4-1.3,5.3-5.4C378,570.9,378.1,549.3,378.1,527.6
	L378.1,527.6z"/>
<path id="XFF3366M2Color4" class="st0" d="M52.4,265.8c-0.4-17.1-1-34.3-0.9-51.5c0-6.8,3-12.1,7-17.2c1.3-1.7,2.9-1.9,4.9-1.9
	c14.5,0,29,0,43.5,0c2.2,0,4.3,0.7,6,2c8.4,6,13,13.3,12.9,24.6c-0.5,39.2-1.5,78.3-7.1,117.1c-2.4,16.7,0.5,13.5-16.4,16
	c-12.4,1.8-25,1.2-37.5,1.2c-5.1,0-6.1-2.5-6.5-6.6c-2-17.9-3.4-35.8-4.4-53.8C53.3,285.8,52.9,275.8,52.4,265.8z"/>
<path id="XFFB6F5M2Color19" class="st0" d="M190.7,680.2c0-12,0.2-24-0.1-36c-0.1-6.7,1-12.9,5.4-18.2c0.7-0.8,1.9-1.8,1-3
	c-0.6-1-1.8-0.5-2.8-0.5c-2.2,0-4.3,0-6.5,0c-6.9,0-6.8,0-6.7-6.9c0-3.1,1-4.3,4.3-4.5c19.4-1.2,38.9-2.6,58.3-4.1
	c3.1-0.2,4.5,0.6,4,3.7c-1.5,8.7,0.8,15.7,8.6,20.6c3.2,2,4.4,5.5,4.5,9.5c0.7,39.2-0.8,78.3-6.2,117.2c-2.4,17,0.7,13.9-16.9,16.4
	c-10.8,1.5-21.6,1-32.5,0.9c-7.4-0.1-7.4-0.2-8.2-7.3c-2.4-21-3.8-42.2-4.7-63.3c-0.4-8.2-0.1-16.3-0.1-24.5L190.7,680.2z"/>
<path id="XFF99FFM1Color9_2_" class="st0" d="M675.8,419.5c3-0.9,4,1.3,4.9,3.9c12.6,34.8,25.2,69.5,37.9,104.2
	c1.3,3.6,2.5,7.3,4,10.7s0.6,5-2.9,6.2c-13.8,4.9-27.5,10-41.3,15c-8.3,3-16.7,5.8-24.9,9.1c-3.4,1.3-5,0.8-6.3-2.8
	c-11.3-31.5-22.7-63-34.2-94.4c-2.2-6.1-4.5-12.2-6.8-18.3c-2.4-6.6-2.3-7.1,3.6-10.8c14.9-9.3,31.2-16,48.2-20.1
	C664.1,421,669.9,420.1,675.8,419.5z M670,427c-6.7,0.2-7.3,1-5.2,6.9c4.1,11.6,8.4,23.1,12.6,34.7c8.7,23.9,17.5,47.8,26,71.9
	c1.7,4.8,3.8,4,7.4,2.8c4.2-1.3,3.8-3.6,2.5-6.8c-2-5-3.7-10-5.5-15c-11-30.2-22-60.4-33-90.6C674,428.5,673.2,426.1,670,427
	L670,427z"/>
<path id="XFF9900M2Color3" class="st0" d="M126.9,197c1.7,0.4,3.5,0.8,5.2,1.3c17.1,4.8,19.5,7.8,19.3,25.3
	c-0.3,44.2-5.7,88.2-15.9,131.1c-0.4,1.6-1.2,3.1-1.5,4.8c-1.7,11.1-8.9,15.3-19.3,16.5c-25.8,3.1-51.9,3-77.7-0.2
	c-0.5-0.1-1-0.3-1.5-0.3c-9.4-0.7-14.2-6-16.7-14.9C12.1,335.7,8.2,310.4,5.2,285c-2.7-23-3.9-46.2-3.7-69.3
	c0.1-6.2,2.3-9.9,7.7-12.5c4.7-2.4,9.6-4.3,14.6-5.8c-0.3,1.4-1.2,2.5-2.6,2.9c-7.1,3.8-9.6,9.4-9.6,17.5c0,35.7,3.2,71.3,9.5,106.4
	c1.3,7.2,3.2,14.3,4.5,21.5c1.2,6.9,5.6,10,12,11.5c7.2,1.6,14.4,2.5,21.8,2.7c16.5,0.8,33,0.8,49.3-1.6c3.3-0.5,6.5-1.5,9.7-2.3
	c4.9-1.2,7.6-4.4,8.9-9.1c5.1-18.5,7.9-37.5,10-56.5c2.7-24.2,4-48.5,3.8-72.8c-0.1-7.5-3-12.3-9-15.9c-2-1.2-3.8-2.5-5.7-3.8
	L126.9,197z"/>
<path id="XCD05D3M2Color8_4_" class="st0" d="M163.8,626.3c-12.4,4.8-11,15-10.9,24.7c0.3,28,2.8,55.9,7.4,83.5
	c1.7,10.4,3.8,20.6,5.9,30.9c1.2,5.8,4.5,9.1,10,10.4c3.9,1,7.8,1.8,11.7,2.3c19.5,1.7,38.9,1.9,58.3-0.8c1.5-0.2,2.9-0.7,4.4-0.9
	c7.4-1.2,11.4-5.5,13.2-13c3.4-14.4,5.9-29,7.7-43.8c3-24.5,4.6-49.1,4.6-73.8c0-8.3-2.7-14.1-9.5-18.3c-0.9-0.6-2.2-1-2.4-2.9
	c7.1,1.8,13.7,4.2,19.3,8.8c2.2,1.8,2,4.4,2.1,6.9c0.8,32.3-2.7,64.2-7.5,96c-2.1,14.7-5.2,29.2-9.3,43.4
	c-2.3,7.9-6.4,12.4-14.9,13.6c-26.4,3.8-53.2,3.7-79.7-0.1c-7.3-1.1-11.3-4.6-13.6-11.7c-5.1-15.8-7.9-32-10.4-48.3
	c-4-26-6.7-52.2-7-78.5c0-3.8,0.4-7.7,0-11.5c-0.9-7.9,3-12.1,9.9-14.6c3.1-1.1,6.1-2.4,9.2-3.6L163.8,626.3z"/>
<path id="XFF9900M1Color3_1_" class="st0" d="M410.4,647.3c0,11.7,0,23.3,0,35c0,6.4-1.6,7.8-8.1,7.8c-6.1,0-7.5-1.3-7.5-7.8
	c0-23.3,0.1-46.6-0.1-70c0-3.9,1.4-4.8,4.9-4.8c13.3,0.2,10.5-1.3,10.8,10.3C410.5,627.6,410.4,637.5,410.4,647.3z"/>
<path id="X05E8E2M2Color11_1_" class="st0" d="M359.4,224.8c0,9.5,0,19,0,28.4c0,5.8-1.6,7.1-8.1,7.2c-6.2,0.1-8.3-1.5-8.3-7.2
	c-0.1-18.9,0-37.9-0.1-56.9c0-3,1-4,4-4.1c12.5-0.2,12.5-0.3,12.5,12L359.4,224.8L359.4,224.8z"/>
<path id="XFF66FFM2Color7_1_" class="st0" d="M86.1,600.2l-2,3.4c-9.1,15.9-18.2,31.7-27.4,47.5c-4,6.9-11.1,7-15.8,0.4
	c-2.2-3-0.2-5.4,1.1-7.8c7.6-13.3,15.3-26.5,23-39.7c1.8-3.2,3.8-6.3,5.5-9.5c0.9-1.7,1.9-2.2,3.6-1.2c3.3,1.9,6.6,3.9,9.9,5.8
	C84.7,599.5,85.5,599.8,86.1,600.2z"/>
<path id="XFF99FFM1Color9_1_" class="st0" d="M718,623.9c-0.1,4.6-4,4.9-7,6s-5.1-0.2-6.2-3.2c-4.3-11.9-8.7-23.8-13.1-35.6
	c-2.9-8-5.7-16-8.8-23.9c-1.2-3.2-0.7-4.6,2.8-5.7c8.5-2.9,8.6-3.2,11.7,5.2c6.6,18,13.1,36,19.6,54
	C717.5,621.7,717.7,622.9,718,623.9z"/>
<path id="X05E8E2M2Color11" class="st0" d="M348.3,298.9c-0.5,7.5-1,14.1-1.4,20.6c-0.3,4.8-0.4,9.7-0.6,14.5
	c-0.1,1.5,0,3.3-2.2,3.2c-1.9-0.1-1.6-1.8-1.6-3.1c0.5-22,1-44,1.5-66c0-2.4,0.7-3.5,3.5-3.4c9.8,0.1,9.7,0,10,9.9
	c0.6,19.1,1.4,38.3,2.2,57.4c0.1,3,0.6,5.5-4,5.5c-3.8,0-5.3-0.8-5.3-4.9c0-9.2-0.5-18.3-0.8-27.5
	C349.6,303.4,350.1,301.5,348.3,298.9z"/>
<path id="XFF66FFM2Color7" class="st0" d="M23.3,686.6L8,710.1c-1.1,1.7-2.1,3.4-3.2,5.1c-0.9,1.3-1.7,3.5-3.7,2.4
	c-2.3-1.3-0.2-3,0.6-4.2c7-11.7,14.2-23.3,21.3-35c4.2-6.8,8.4-13.6,12.4-20.5c1.4-2.5,2.6-2.8,5-1.2c7.5,4.8,7.7,4.7,3.5,12.7
	c-9,17.3-18.1,34.5-27.1,51.7c-1.3,2.4-2.1,4.8-5.8,2.5c-2.9-1.8-4.7-2.9-2.5-6.7c5.1-8.8,9.7-17.9,14.4-26.8
	C23.6,689.1,23.8,687.8,23.3,686.6z"/>
<path id="XFF9900M1Color3" class="st0" d="M401,730.5c-2,10.2-1.6,20-2.9,29.7c-0.2,1.8-0.2,3.7-0.4,5.5c-0.2,1.4,0,3.4-2.1,3.3
	s-1.6-2.1-1.6-3.5c0.4-14.1,0.8-28.3,1.2-42.4c0.2-8,0.5-16,0.5-23.9c0-3.3,0.6-4.7,4.5-4.3c8.5,0.8,8.5,0.6,8.8,9.5
	c0.6,20,1.1,39.9,1.7,59.8c0.1,2.4,0.9,5.1-3.3,5.1c-4,0-4.1-2.3-4.2-5.2c-0.3-9.3-0.7-18.6-1.1-27.9
	C402.1,734.5,402.5,732.7,401,730.5z"/>
<path id="XFF99FFM1Color9" class="st0" d="M725.8,662.9c3.1,9.8,6,18.9,8.9,28c0.8,2.5,1.9,4.8-1.8,5.9s-3.7-1.5-4.4-3.7
	c-5.9-17.9-11.7-35.8-17.8-53.6c-1.2-3.4-1-4.8,2.8-5.9c6.4-1.8,6.4-2.1,8.8,4.1c6.8,17.2,13.7,34.4,20.5,51.6
	c0.5,1.2,1.7,2.7,0.1,3.5c-1.9,1-2.5-1-3.1-2.3c-3.5-7.7-7-15.5-10.6-23.2C728.5,665.9,728.2,664.2,725.8,662.9z"/>
<path id="XCD05D3M2Color8_3_" class="st0" d="M213.4,555.3c-9.9,0.7-19.9,1.4-29.9,2c-2.2,0.2-5.2,0.9-4.8-2.9c0.3-3-2-7.3,3.8-8
	c7.8-0.9,15.6-1.2,23.4-1.1c12.8,0,25.6-0.5,38.4,1.1c2.4,0.3,4.8,0.5,4.7,3.8s-2.8,2.8-4.7,2.9C234,554,223.8,554.6,213.4,555.3z"
	/>
<path id="XCD05D3M2Color8_2_" class="st0" d="M188.2,603.3c-1.7,0.1-3.3,0.2-5,0.3c-2.4,0.2-4.7,0.4-4.6-3.3c0.1-3,0.7-4.5,4.1-4.7
	c20.4-1.3,40.9-2.8,61.3-4.1c2.4-0.2,5.1-0.9,5.2,3.2c0.1,3.6-1.4,4.5-4.7,4.7C225.7,600.7,207,602,188.2,603.3L188.2,603.3z"/>
<path id="XCD05D3M2Color8_1_" class="st0" d="M243.7,560.8c2.5-0.1,6.1-1.3,5.5,4.2c-0.4,3.8-2.9,3.5-5.4,3.6
	c-16.9,1.2-33.9,2.3-50.9,3.5c-3.5,0.2-7,0.6-10.4,0.9c-2.2,0.2-3.9,0-3.8-3c0.1-2.6-0.1-4.7,3.7-5
	C202.6,563.8,222.9,562.3,243.7,560.8z"/>
<path id="XCD05D3M2Color8" class="st0" d="M182.3,588.3c-1.1,0-3.7,0.8-3.7-3c0-2.8,0.2-4.7,3.9-4.9c20.6-1.2,41.1-2.7,61.7-4.1
	c2.1-0.1,4.9-1,5,2.9c0.1,3.2-1,4.8-4.5,5C224.3,585.4,203.9,586.8,182.3,588.3z"/>
<path id="XFF00FFM1Color11" class="st0" d="M572.2,673.4c7.5,1.1,14.3,4.9,19.2,10.7c2.2,2.5,3.3,3.4,5.9,0.2
	c4.3-5.3,10.2-8.5,16.8-10.3c11-3,17.4,3,15.2,14.2c-2.2,12.1-9.2,22.9-19.5,29.8c-16.5,11.3-14.5,11-31.3-0.3
	c-9.6-6.4-16.2-16.3-18.5-27.5c-0.4-1.8-0.6-3.6-0.7-5.4C559.2,677.1,563.1,673.3,572.2,673.4z"/>
<path id="X99FF33M1Color21" class="st0" d="M691.8,242.9c-0.8,11.6-5.5,21.6-12.8,30.3c-7.4,8.7-16.7,15.5-27.2,19.8
	c-1.4,0.6-2.8,1.1-4.3,0.5c-17.6-6.8-37.8-23.5-41-46.5c-1.9-13.6,5-20,18.4-16.9c8.5,2,16.1,6.8,21.5,13.6c2.1,2.6,3,2.4,5,0
	c6.3-7.9,15.5-13,25.5-14.2C686.5,228.3,692,233.4,691.8,242.9z"/>
</svg>
