<?xml version="1.0" encoding="utf-8"?>
<!-- Generator: Adobe Illustrator 24.1.0, SVG Export Plug-In . SVG Version: 6.00 Build 0)  -->
<svg version="1.1" id="图层_1" xmlns="http://www.w3.org/2000/svg" xmlns:xlink="http://www.w3.org/1999/xlink" x="0px" y="0px"
	 viewBox="0 0 850 781.9" style="enable-background:new 0 0 850 781.9;" xml:space="preserve">
<style type="text/css">
	.st0{fill:#FFFFFF;stroke:#000000;stroke-miterlimit:10;}
</style>
<path id="XFF66FFM1Color10_9_" class="st0" d="M0,451.5c6.3-6.4,14-4.8,21.4-3.5c10,1.7,19.4,5,26.2,13.2c2.4,2.9,3.3,6.5,4,10.1
	c6.6,35.4,9.3,71.4,8.3,107.3c-0.2,10.3-1.6,20.6-2.8,30.8c-0.4,3.4-1.2,7.1-5.4,8.2c-4.5,1.1-7.3-1.5-9.7-4.7
	c-4-5.5-6-11.8-7.2-18.5c-2.1-12.5-2.1-25.2-1.5-37.8c0.5-9.4-1.6-18.7-6-27C17.3,510.8,7,492.1,1.5,471.3c-0.2-0.7-1-1.3-1.5-1.9
	L0,451.5z"/>
<path id="XFF66FFM1Color10_8_" class="st0" d="M850,523.5c-3.1,4.2-2.4,9.2-2.9,13.9c-0.3,3-0.4,6-0.8,8.9c-0.2,1.6-0.4,3.6-2.3,4.1
	c-2.2,0.6-3.5-1.2-4.4-2.7c-2.9-5-6.2-9.9-9.7-14.5c-5-6-10.3-11.7-16-17.2c-4.9-4.9-10.6-6.3-17.4-5c-6.8,1.3-8.7-1.3-6.2-7.6
	c1-3,2.5-5.8,4.3-8.4c5.8-7.8,10.9-9.2,20-5.4s18.3,8,27.5,11.8c3.3,1.3,4.7,4.6,7.8,6.1V523.5z"/>
<path id="XFF66FFM1Color10_7_" class="st0" d="M417.6,116.9c-0.6-1.7-0.6-3.5,0.1-5.2c6.1-20.1,9.8-40.8,15.2-61
	c4.5-16.8,12.6-32.4,23.7-45.8c4.1-5.1,9-5.7,14.7-4c8.8,2.7,16.7,7.7,23,14.5c10.2,10.7,18.1,23.1,25.6,35.7
	c26.9,45,52.3,90.9,76,137.8c22.5,44.6,44.8,89.3,67,134.1c17,34.1,33.5,68.5,50.2,102.8c13.7,28.1,27.3,56.3,41,84.5
	c5.1,10.4,4.4,17.3-6.3,26.9c-7.3,6.6-16.5,9.8-25.9,12.5c-3.7,1.1-8.9,1-10,5.4c-1.2,4.7,3.6,7.1,6.7,9.7
	c26.8,22.6,48.9,49.4,70,77.1c2.8,3.8,5.9,7.2,9.4,10.3c5.6,4.8,8.9,4,11.3-3.2c2.4-7.5,5.1-14.8,8.3-21.9
	c5.5-11.9,11.7-23.6,18.2-35c0.5-0.9,1.1-1.7,1.7-2.5c1-1.3,2-3,4-2.4s2.7,2.5,2.9,4.3c0.3,2.7,0.4,5.3,0.2,8
	c-1.6,17.7-5.6,35-13.2,51c-12.2,25.8-34,39.3-61.2,44.9c-7,1.4-13.9,3.7-21.2,3.2c-11-0.9-19.8-6.3-27.7-13.6
	c-15.6-14.5-26.8-32.2-37.1-50.6c-22-39.1-39.4-80.4-57-121.6c-11-25.9-21.4-52-35.2-76.7c-13.7-24.5-30.5-46.2-54.7-61.1
	c-16.3-10.1-33.8-18-50.9-26.5s-34.8-15.9-53.4-20.7c-9.1-2.2-18.2-3.9-27.5-5.1c-4.9-0.6-7.8-2.7-9.7-7.2
	c-7.6-17.8-8.1-36.6-7.2-55.5c1.2-26.1,6.3-51.5,11.5-77c0.2-1.2-0.1-2.9,1.5-3.3c1.1-0.3,1.7,0.9,2.3,1.6
	c13.1,17.3,31.5,27,51,34.5c7.5,2.9,14.2,6.5,19.4,12.6c0.7,0.9,1.3,2.2,2.7,1.9c1.7-0.4,1.5-2.1,1.5-3.3c-0.2-4.7,0-9.4-0.9-13.9
	c-0.9-5.2-4.1-9.7-8.7-12.2c-13.4-7.2-25.5-16.4-37.9-25c-4.1-2.8-8.2-5.7-13.1-7.1c-1.9-0.6-3.8-1.6-5.3,0.7
	c-1.3,1.8-1.3,4.3,0.1,6.1c1.5,2.2,3.2,4.2,4.9,6.4c0.6,0.8,1.5,1.6,0.8,2.6s-1.8,0.8-2.7,0.2c-4.2-2.4-8.4-4.8-12.4-7.4
	c-1.9-1.3-1.2-3.6,0.1-4.8c3-2.8,2.4-6,2.4-9.6c0.1-6.7,4.8-11.6,8.6-16.8c0.3-0.5,1-0.7,1.5-0.4c0.1,0,0.1,0.1,0.2,0.2
	c0.6,0.6,0.6,1.5,0,2.1c0,0-0.1,0.1-0.1,0.1c-2.2,2.4-3.1,5.5-4.6,8.3c-0.5,1-1.2,2.3,0.3,3c1.1,0.6,1.8-0.5,2.4-1.3
	c5.1-6.2,9-13.2,11.6-20.8c3-8.4,6.3-16.6,15.6-20.2c2.5-1,1.7-2.3,0.1-3.7c-7.1-6.3-14-6-20.5,1.1
	C420.1,115.2,419.4,116.4,417.6,116.9z M453.3,132.1c-0.5-4.5-1.6-9-6.3-11c-4.4-1.9-7.1,1.7-9.7,4.5c-5.1,5.4-8.2,12-11.6,18.5
	c-3.1,5.9-6.1,11.8-11.3,16.2c-0.9,0.7-2.3,1.3-1.8,2.7c0.6,1.6,2.3,1.1,3.5,0.9c7.8-1.1,15.2-4,21.7-8.4
	C445.9,149.9,452.4,142.9,453.3,132.1z"/>
<path id="XFF66FFM1Color10_6_" class="st0" d="M198,321.3c-5.3,0.1-10.7-0.3-15.9-1.1c-5.9-1.1-7.7-3-8-8.9
	c-0.7-15.1-1.1-30.3-2.1-45.4c-1.7-25.9-2.1-51.9-3.2-77.8c-0.1-2.8,0.2-5.6,0.1-8.5c0-1.9,0.9-3.6,2.5-4.6c4-3.1,4.3-7.6,0.2-10.7
	c-2.6-1.9-3-4-3-6.8c-0.1-25.3,0-50.6-0.4-76c-0.3-22.4-2.3-44.9-2.2-67.4c0-10.7,2.2-12.7,12.8-10.7c24.5,4.6,38.9,20.8,47.7,42.6
	c11,27.4,22.2,54.6,35.2,81.1c8,16.5,16,32.9,25.3,48.7c4.2,7.2,9,14,13.7,20.9c5.9,8.6,7.5,17.8,3.7,27.5
	c-4.8,12.3-6.1,25.2-7.2,38.2c-1.4,17.9-0.4,36,2.8,53.7c2.4,13.3,8.1,24.9,16.4,35.4c8,10.2,16.5,20,25.6,29.4
	c11.3,11.5,16,26.2,20.9,41c6.1,18.7,9.9,38,13.4,57.3c2.8,15.3,8.7,29.5,16.9,43c14,23.2,21.1,48.3,18.8,75.7
	c-0.6,7.1-0.2,14.3-0.9,21.4c-1.6,16-9.1,28.2-22.9,36c-28,16-58.3,16.8-84.8-4.8c-13-10.6-21-24.8-26.8-40.3
	c-6-15.9-8.3-32.6-8.8-49.5c-0.5-16.5-1.2-32.9-1.2-49.4c0.2-41,5.7-81.2,15.4-121.1c5.4-22.1,2.6-36.8-14.6-49.1
	c-11.9-8.5-25-14.6-39.7-16.6C217.9,323.1,208.1,321.4,198,321.3z M264.3,229.8c-0.3-3.8-0.6-7.2-0.9-10.7
	c-0.6-6.3-3.9-11.2-9.5-13.7c-15.4-6.8-29.8-15.4-44.5-23.5c-7.1-3.9-14-8.4-22.3-9.7c-2.1-0.3-4-0.7-5.2,1.6s-0.7,4.1,1,5.8
	c1.9,1.9,3.7,3.8,5.6,5.7c0.8,0.8,1.9,1.7,1.1,3s-2,0.7-3.1,0.2c-2.7-1.2-5.4-2.6-8.2-3.6c-2.4-0.9-5-5.3-7-2.6
	c-1.6,2.1,2.5,4.8,4.6,6.6c15.7,14.4,34.6,22.7,54.6,29.1c10.2,3.2,20.5,5.8,28.4,13.8c1.1,1.1,2,3.1,4,2.1
	C264.7,233.1,264.3,231.1,264.3,229.8L264.3,229.8z M232.6,135.9c0.1-4.3-2.3-8.2-6.1-10.1c-3.7-2-7.4-1-10.7,1.6
	c-6.5,5.1-11.4,11.6-15.7,18.5c-4.5,7.2-8.9,14.5-16.3,19.3c-0.9,0.6-2.6,0.8-1.8,2.4c0.6,1.3,2.1,0.8,3.2,0.7
	c14.4-1.9,28-5.9,39.1-16C228.9,147.9,232.6,142.8,232.6,135.9L232.6,135.9z M188.4,148.3c-2.8,4.5-5,7.9-6.9,11.2
	c-0.6,1-2,2.4-0.5,3.5s2.5-0.4,3.3-1.4c6.3-6.5,11.9-13.4,15.1-22s8.8-15.6,18-18.7c3-1,2.8-2.3,0.6-4c-7.7-6.1-17.2-5.9-24.6,0.7
	c-11.9,10.6-17.1,24.6-20.1,39.7c-0.3,1.4-0.9,3.3,1.1,3.8c1.8,0.5,2.5-1.3,3.3-2.5C180.2,154.9,182,150.5,188.4,148.3z"/>
<path id="XE655FFM2Gra3OT30_1_" class="st0" d="M498.4,678.1c-0.6,18.2,0,36.3-1.4,54.4c-0.7,9.4-5.5,15-14.8,17
	c-7.9,1.6-16,1.5-23.8-0.1c-6.7-1.3-9.2-5.2-8.5-11.8c1.1-9.8-0.9-19.6-1.2-29.4c-0.5-14.1-1.2-28.3-1.9-42.4
	c-1.2-23.4-2.5-46.9-4.7-70.2c-2.2-23.5-5.2-47-9.5-70.2c-3.8-20.8-11.8-40.2-21.4-58.9c-18.6-36.2-40.3-70.5-64.1-103.5
	c-1.1-1.5-2.3-2.8-3.4-4.3c-4.4-5.8-4.2-6.1,1.4-11c8.6-7.5,18.9-11,30-12.2c19.7-2,38.8,1.3,57.7,6.4c34.2,9.3,66,23.8,96,42.5
	c24.7,15.5,42.1,37.4,54.6,63.5c3.7,7.4,6.8,15.1,9.4,23c0.3,0.9,1.1,1.9,0.2,2.8s-1.9,0.2-2.8-0.1c-1.4-0.5-2.8-1.1-4.2-1.6
	c-17-6.6-32.6-2.8-44.8,10.8c-11.7,13.1-18.5,28.8-24,45.1c-11.1,32.6-16.3,66.5-18.8,100.8C497.4,645,498.4,661.6,498.4,678.1z"/>
<path id="XE655FFM2Gra3OT30" class="st0" d="M180.2,337.2c18.2-1.2,36.4,1,53.8,6.4c9.4,2.9,18.3,7.2,25.9,13.7
	c3.9,3.3,5.3,8,6.3,12.7c2.3,11.1,0.2,22-3.3,32.5c-5.2,15.8-9.5,31.9-15.9,47.3c-4.3,10.5-10.7,19.9-15.4,30.3
	c-10.4,23.2-17.6,47.5-23.4,72.1c-6.2,26.6-10.4,53.6-11.5,81c-0.9,24.7,1.1,49.3,0.4,73.9c-0.2,8.7-0.3,17.3-2,25.9
	c-2,10.2-4.9,12.7-15.3,13.1c-5.8,0.2-11.6,1.1-17.4-0.2c-6.6-1.6-9-4.3-9.7-10.9c-1.3-12.5-0.6-25-0.9-37.4
	c-0.8-32.3-1.2-64.6-4.2-96.8c-1.9-20.8-4-41.4-8.6-61.8c-3.6-15.7-10.4-30.2-16.8-44.8c-7.6-17.4-14.9-34.7-16.7-54.1
	c-1.3-13.8-6.4-26.8-14.4-38.5c-4.5-6.6-8.2-13.7-11.1-21.1c-7.1-17.7-1.7-28,16.8-32.6c20.5-5.2,41.4-8.7,62.5-10.5
	C166.2,336.7,173.2,337.2,180.2,337.2z"/>
<path id="XFF66FFM1Color10_5_" class="st0" d="M69.4,568.4c0.6-47.3-4.3-91.1-10.7-134.8c-3.9-26.4-10.2-52.2-16.6-78.1
	c-5.3-21.5-9.4-43.2-10.5-65.5c-1.4-28.6,6.1-55,18.9-80.3c9.2-18.3,17.9-36.9,27.5-54.9c8.8-16.6,17.2-33.4,24.6-50.7
	c4.9-11.5,8.6-23.5,10.8-35.7c2.6-14.3,7.4-28,12.9-41.4c4-9.8,11.1-16.8,20.9-21.2c8.3-3.8,15.3-1.8,15.4,9.6
	c0.3,42,0,83.9-0.4,125.9c0,4.8,0.1,9.7,0.1,14.5c0,3.5,0.4,6.9-2.4,9.9c-1.6,1.6-1.1,4,0.2,5.6c2.7,3.7,2.5,7.9,2.5,12
	c0.2,21.1-0.2,42.3,0.6,63.4c0.9,22.5,0.5,45,1.6,67.4c0.2,4.6-1.6,6.8-6.9,7c-14.6,0.7-29.2,2.5-43.6,5.2
	c-14.5,2.7-28.5,6.7-41.6,13.7c-13.5,7.2-19.3,20.3-15.7,35.4c2.4,9.9,6.7,19.3,12.7,27.5c13,18.2,18.2,38.9,21,60.7
	c2.6,20.5,3.1,41.2,3,61.8c-0.2,38.6-1.7,77.2-6.8,115.6c-0.6,4.8-1.7,9.5-2.5,14.3c-0.2,1.2-0.5,2.5-1.9,2.6
	c-1.4,0.1-2-1.1-2.4-2.1c-3.5-7.8-4.9-16.3-6.3-24.6c-2-10.8-3.3-21.7-4.1-32.7C69,588.4,68.9,578.4,69.4,568.4z M149.5,171.6
	c-4.3-1.5-6.8,0.1-9.2,1.2c-7.9,3.3-14.3,9.1-21,14.2c-20.9,16.2-37.3,37-56.6,54.8c-0.8,0.7-1.4,1.6-0.8,2.6c0.7,1.4,2,0.8,3.1,0.6
	c12.5-2.7,25.3-4.1,38.1-4.1c3.6,0,6.9-0.8,9.4-3.8c11.4-13.7,24-26.2,36.1-39.3c4.4-4.7,8.5-9.8,10.7-16.1c0.5-1.4,1.4-3,0-4.1
	c-1.4-1.1-2.8,0.3-3.8,1.2c-5.2,4.6-11.5,8.1-14.1,15.2c-0.4,1.1-1.2,2.2-2.6,1.6c-1.5-0.6-1.4-1.8-1.1-3s0.9-2.5,1.1-3.8
	c0.4-2.1-0.2-3.4-2.6-4c-4.4-1.1-4.6-2-1.2-5.4C138.6,175.5,143.7,174.1,149.5,171.6z M148.5,168.3c0.8,0,1.9,0.2,2.5-0.8
	c0.6-1-0.2-1.5-0.9-2c-7.8-4.8-12.2-12.5-17-19.9c-4.5-6.9-9.1-13.9-16.2-18.7c-6.6-4.4-13.4-2-15.7,5.6c-2,6.5,1.1,11.8,5.1,16.4
	C117.3,161.7,132.5,165.8,148.5,168.3z M145.2,149.2c2.5-1,3.4,0.7,4.6,1.8c2.6,2.4,4.7,5.2,6.1,8.4c0.5,1.1,1.2,2.2,2.6,1.9
	c1.4-0.3,1.6-1.6,1.4-2.9c-2.6-17.1-8.6-32.5-23.2-43.1c-6.2-4.5-16.9-3.1-22.3,2.3c-1.4,1.4-1.5,2.7,0.6,3.3
	c10.6,2.9,15.7,10.9,19.5,20.3c3.3,8.1,8.8,14.9,14.8,21.1c0.9,0.9,1.9,2.5,3.3,1.3s-0.2-2.4-0.7-3.5
	C150.4,156.1,147.3,153,145.2,149.2z"/>
<path id="X930000M2Gra3Co5_2_" class="st0" d="M742.7,711.5c-11.7,3-23.3,5.5-35.2,6c-17.2,0.7-34.4-2.5-50.2-9.3
	c-21.4-9.1-44.1-11-66.8-13.1c-18.6-1.7-37-4.7-53.5-14.6c-18.7-11.2-26.5-28.2-26.2-49.4c0.2-17.3,5.2-33.8,8.7-50.6
	c3.7-17.6,8.2-35,14.8-51.8c5.3-13.5,12.9-25.2,24.8-33.7c15.6-11.1,32.1-8.5,44.1,6.4c8.7,10.8,12.8,23.7,17.8,36.1
	c12,30.2,23.8,60.4,38.6,89.4c9.1,17.8,19.1,35.1,31.8,50.7C704.8,694.2,720.1,708.1,742.7,711.5z"/>
<path id="X930000M2Gra3Co5_1_" class="st0" d="M259.8,491.2c-1.3,25.8-2.8,51.5-3.8,77.3c-0.5,13.5-0.7,27,2.6,40.2
	c5.4,21.6,16.7,39.4,34.3,53.1c11.1,8.7,23,15.8,37,18.9c0.9,0.2,2.2,0.3,2.1,1.6c-0.1,1.2-1.2,1.6-2.1,1.8c-10.4,3-20.9,5.7-31.6,7
	c-23.3,2.8-46.6,1.9-69.8,0c-4.5-0.4-8.9-1.4-13.3-2c-3.2-0.4-4-2.7-4.5-5.2c-1.9-9.9-2-19.9-1.6-29.9c1.1-27.7,4.6-55.1,9.5-82.3
	c5.8-32.3,12.5-64.3,23.8-95.2c1.7-4.7,4-9.1,7-13.2c1.5-2,3.3-4.7,6.5-3.7s3.3,4,3.4,6.6c0.1,8.3,0,16.6,0,25L259.8,491.2z"/>
<path id="X930000M2Gra3Co5" class="st0" d="M103,580.6c1.6-27.6-1.5-55.1-2.1-82.7c0-1-0.1-2,0-3c0.1-1.3,0.3-2.8,1.9-3.2
	c1.4-0.4,2.1,0.8,2.8,1.7c10.7,16.8,21.8,33.2,24.2,54c3.2,27.3,5.5,54.7,7.1,82c1,18.1,0.8,36.2,3.2,54.3c0.8,6-1.1,8.2-7.1,7.5
	c-13.2-1.4-25-6.7-36.6-12.7c-3.1-1.6-7.3-2.6-8.6-5.6c-1.5-3.3,2.6-6,3.9-9.2c4.3-10.2,6.3-21,7.9-31.9
	C101.9,614.8,102.4,597.7,103,580.6z"/>
<path id="XFF66FFM1Color10_4_" class="st0" d="M385.9,195.2c-1.1,9-2.2,17.7-3.4,26.4c-3.3,24.9-4.7,50-5.9,75.1
	c-0.3,5.7,0.9,11.3,1.4,16.9c0.6,6.5-0.5,7.6-6.9,8c-9.5,0.6-18.8,2.6-27.6,6.1c-2.1,0.7-4,1.7-5.6,3.1c-3.7,3.5-6.4,2-9.2-1.1
	c-7.4-8.1-10.7-18-12.3-28.5c-2.9-18.9-1.1-37.9,1-56.7c0.3-2.9,1.9-4.3,4.8-4.8c8.8-1.7,17.8-2.7,26.7-3.1c3.2,0.1,6.2-1.5,7.8-4.3
	c8-12.1,17-23.4,25.8-34.9C383,196.1,384.3,195.2,385.9,195.2z"/>
<path id="XFF66FFM1Color10_3_" class="st0" d="M790.3,523.1c11.2,2.1,22.6,4.7,29,16.6c2.5,4.3,5.2,8.5,8.1,12.6
	c5.4,7.9,5.2,16,0.8,24.1c-6.6,12.3-13.3,24.6-18,37.8c-2,5.5-4,11-6,16.4c-0.8,2.2-2,4.5-4.7,4.7s-4-1.8-5.4-3.8
	c-3.9-5.8-6.2-12.5-10.2-18.3c-12.1-17.7-27.6-31.9-45.2-43.8c-3.4-2.3-8-4.4-7.2-9.3c0.8-4.6,5.7-5.3,9.4-6.2
	c15.2-3.7,26.7-12.2,35.4-25C779.5,524.1,784.5,523.7,790.3,523.1z"/>
<path id="XFF66FFM1Color10_2_" class="st0" d="M394.2,152.1c-1.8-7-2.3-13.3-4.8-19.1c-3.7-8.6-7.3-17.2-15.4-22.7
	c-1.9-1.3-1.5-2.7-0.4-4.2c18.3-24.9,29.2-53.7,43.7-80.6c4.7-8.7,9.9-17,18.9-22.1c1.3-0.7,2.6-1.8,4.1-0.7s1.1,2.7,0.9,4.2
	c-0.2,1.2-0.5,2.3-1,3.3c-9.3,19.3-14.3,40-20.4,60.4c-7.9,26.5-15.8,52.9-23.8,79.3C395.8,150.2,395.4,150.6,394.2,152.1z"/>
<path id="XFF66FFM1Color10_1_" class="st0" d="M382.2,144.5c7.3,3.9,11,13.3,10.1,20c-1.1,7.4-4.5,14.3-9.8,19.7
	c-1.3,1.3-2.2,3-2.6,4.8c-0.3,1.2-0.8,2.6-2.2,2.3c-1.8-0.4-1.4-2-1.2-3.3c0.1-1,0.3-2,0.6-2.9c0.6-2.1,0.4-3.7-2.2-3.9
	c-4.2-0.4-2.9-2.8-1.5-4.8c2-2.9,4.8-5.2,7.9-6.7c1.1-0.6,2.5-0.8,3.8-3.2c-4.6,0.9-8.9,3-12.4,6.2c-15.1,13.2-28.1,28.4-40.3,44.2
	c-3.1,4.1-6.1,8.3-9.2,12.4c-0.7,1-1.4,2.7-3,1.8c-1.2-0.7-0.5-2.1-0.3-3.2c3.5-15.6,7.6-31,13.6-45.9c4.4-11,9.1-21.8,14.4-32.4
	c1.8-3.6,2.8-4.5,5.8-1.1c8,9.2,18.7,13.6,30.5,15.6c1,0.2,2.1,0.5,2.7-0.5s0-1.9-0.9-2.5c-5.5-3.7-8.2-9.5-11.1-15.1
	c-3.3-6.4-6.6-12.7-11-18.4c-1.3-1.7-2.4-3.8-0.4-5.3c2.5-1.8,3.3,1.1,4.5,2.5c3,3.7,4.6,8.1,6.1,12.5c2.4,7.3,6.1,14.1,10.9,20.1
	c0.8,0.9,1.6,2.6,3.1,1.5c1.2-0.9,0.1-2.2-0.4-3.2C386.1,152.2,384.3,148.9,382.2,144.5z"/>
<path id="X1111D1M2Gra4Co10_1_" class="st0" d="M472.9,781.7c-7.9,0.3-14.7-0.6-21.1-3.9c-4-2.1-5.3-5.2-4.9-9.4
	c0.3-3,0.8-5.9,1-8.9c0.2-3.2,2.1-4.1,4.8-3.2c14,4.9,27.8,3.4,41.5-1.3c4-1.4,5.3,0.3,5,4c-0.3,4.3-0.7,8.6-1,12.9s-3.1,6.5-7,7.4
	C485,780.7,478.7,782.5,472.9,781.7z"/>
<path id="XFF66FFM1Color10" class="st0" d="M756.7,469.3c5.5-0.4,11.5,0.8,17.6,2c3.7,0.6,7,2.2,9.7,4.8c5.2,5.4,5,7.4-0.5,12.3
	c-7.8,6.9-11.4,16.2-14.8,25.7c-0.5,1.3-0.2,3.5-2.1,3.6s-1.8-2-2.5-3.3c-5.2-10.6-10.4-21.2-15.5-31.8c-0.1-0.3-0.3-0.6-0.4-0.9
	C741.7,466.4,744.8,469.2,756.7,469.3z"/>
<path id="X1111D1M2Gra4Co10" class="st0" d="M179.7,779.4c-7.3,0-14.6-0.7-21.7-2.1c-3.7-0.7-5.5-2.7-5.8-6.4
	c-0.3-4.3-0.9-8.6-0.8-12.9c0.2-6,3.5-7.8,8.2-4.4c3.5,2.6,8,3.5,12.2,2.5c5.4-1.1,10.7-2.1,16.3-1.8c3.5,0.2,5.3,1.5,5.2,5
	c-0.1,4.7,0,9.3-0.2,14s-2.4,6.6-7,6.2C184,779.2,181.9,779.4,179.7,779.4z"/>
</svg>
