<?xml version="1.0" encoding="utf-8"?>
<!-- Generator: Adobe Illustrator 24.1.0, SVG Export Plug-In . SVG Version: 6.00 Build 0)  -->
<svg version="1.1" id="图层_1" xmlns="http://www.w3.org/2000/svg" xmlns:xlink="http://www.w3.org/1999/xlink" x="0px" y="0px"
	 viewBox="0 0 701.6 681.2" style="enable-background:new 0 0 701.6 681.2;" xml:space="preserve">
<style type="text/css">
	.st0{fill:#FFFFFF;stroke:#000000;stroke-miterlimit:10;}
</style>
<path id="X2ABAFFM1Gra7OT30" class="st0" d="M437.6,598.5c0,24,0,48,0,72c0,5.7-3.4,9.3-9.1,9.4c-5.2,0.1-10.3-0.3-15.5,0.2
	c-4.3,0.3-5.8-0.9-5.8-5.4c-0.2-19.8-0.9-39.6-1.1-59.5c-0.4-32.7-1.5-65.3-4.8-97.8c-0.2-3-1-5.9-2.2-8.7
	c-13.2-28.7-13-57.5-0.7-86.6c3.7-9,9.3-17,16.5-23.4c3.4-3,7.5-4.1,11.5-5.7c1.7-0.7,2.4,0.8,3.2,1.7c22,26.5,45,52.3,64.4,80.9
	c9,13.3,14.8,28.3,22.3,42.4c10.5,20.1,21.8,39.7,36.9,56.8c1.8,2,3.7,3.9,5.5,5.8c17.4,19.4,39.1,18.7,61.7,12.9
	c5.1-1.3,9.4-4.7,11.7-9.5c0.7-1.4,1.3-3.2,3.7-2.1c11.1,5.4,23.4,6.4,35.1,9.5c5.5,1.5,10.9,2.7,16.1,5.2
	c12.8,6.1,15.1,18.2,14.5,28.8c-0.2,2.9-2.4,3.2-4.5,3.7c-13,3.2-26.2,5-39.4,6.9c-25.8,3.6-51.8,3.1-77.8,2.7
	c-23-0.4-40.7-11-55.5-27.5c-5.5-6.1-10.9-12.2-16.5-18.1c-6.5-6.7-10.1-15.2-14.7-23.1c-8.4-14.5-16.4-29.3-26.6-42.8
	c-3.4-4.5-7.7-8.4-12.7-11.2c-4.4-2.7-10.1-1.3-12.8,3.1c-0.8,1.3-1.3,2.9-1.4,4.4c-0.9,14.1-1.7,28.3-2.1,42.4
	c-0.3,10.8-0.1,21.7-0.1,32.5L437.6,598.5z"/>
<path id="X9933FFM1Gra3Co12" class="st0" d="M100.5,511c-6.3-10.7-14.2-19.9-22.7-28.5c-16.2-16.5-32.3-33.2-50.4-47.7
	c-3.9-3.1-8-6-12.3-8.6c-2.5-1.6-3.5-2.8-1.9-5.9c4.3-8.7,9.8-16.6,15.8-24.1c2-2.5,3.8-3,6.8-1.4c20.3,11,41.8,19.1,64.9,22
	c4.4,0.5,5.7,2.5,5.2,6.6c-0.3,2.7-0.3,5.3-0.1,8c0.2,3.7-1.4,4.5-4.9,4.1c-23.2-2.6-44.7-10.3-65.3-20.8c-1.5-0.8-3-1.4-4.5-2.1
	c-0.2-0.1-0.6,0.2-0.9,0.3c0.3,2.1,2.1,2.9,3.4,4.1c15,13.5,32.1,24.7,45.5,39.7c26.5,29.7,51.7,60.6,70,96.4
	c6.6,12.8,12.2,26.1,18.2,39.2c2.4,5.2,5.8,9.7,9.2,14.3c3.1,4.4,8.2,7.1,13.7,7c16.3,0.4,32.6-1.9,48.2-6.7
	c2.8-0.9,5.8-1.9,7.5-4.6c1.2-1.8,2.7-1.5,4.4-0.9c10.1,3.5,20.4,6.2,30.9,7.9c2.4,0.4,3.7,1,3,3.8c-1.2,4.8-0.2,9.6-0.2,14.4
	c0.1,2.9,1.4,3.6,4.1,3.4c6.1-0.3,12.3-0.3,18.4,1.3c2.8,0.8,3.8,2,3.4,5c-1.1,8.1-2.3,16.2-4.1,24.1c-0.7,2.9-2.5,4.4-5.1,5.5
	c-16.3,6.9-33.5,10.3-50.9,12c-14.9,1.5-29.9,3.2-44.9,2.1c-10.2-0.8-20.7-0.4-30.3-5.3c-6.1-3.1-9.6-8-11.5-14.4
	c-4.4-14.7-6.3-30.1-12.7-44.1c-10.1-22.3-21.2-44.2-35-64.4c-11.6-17-27.2-30.5-44.2-42.3c-3.1-2.1-3.6-0.7-3.6,2.3
	c-0.2,49.3-2.7,98.6-2.5,148c0.1,1.5,0,3-0.2,4.5c-1.1,5.3-8.5,8.5-13.1,5.8c-1.6-1-1.2-2.6-1.3-4c-0.8-17.7-1.2-35.4-2.6-53
	c-2.3-29.2-4.4-58.5-12.2-87c-3.8-14.1-9.4-27.2-20.1-37.9c-6.6-6.6-12.7-14.2-15-23.8c-1.6-6.7,0.5-9.6,7.5-9
	c6.8,0.5,13.5,2.2,19.7,5c25.7,12.2,49.9,26.8,70,47.3C98.8,509.5,99.6,510.2,100.5,511z"/>
<path id="XF37FFFM2Gra7OT19" class="st0" d="M255.7,246.9c7.4,2.9,15,4.6,22.2,7.5c9.8,3.9,19.6,7.6,27.3,15.2
	c1.8,1.7,3.3,3.8,4.3,6.1c3.1,6.9,1,11.4-6.5,12.5c-31.6,4.5-63.2,9-95.3,8.1c-14.7-0.5-29.3-1.9-43.8-4.1
	c-14.1-2.1-22.9-12.3-30.9-22.9c-14.3-18.9-25-40.1-37.6-60.1c-8.5-13.5-17.2-27-29.1-37.9c-6.6-6-13.9-10.9-22.6-13.4
	c-7.9-2.3-15,2.8-15,11c0.1,39.7,0.2,79.3,0.3,119c0,6.2-3.2,8.6-9.2,6.6c-2.9-1-2.7-3.5-2.7-5.8c-0.4-23.2-0.7-46.3-1.3-69.5
	c-0.4-19-1-37.9-2.4-56.9c-0.7-10-5.6-18.8-8.6-28.1c-7-22.4-7.2-44.2,4.6-65.3c5.4-9.7,13.3-17.7,22.9-23.2
	c7.1-4.2,10.2-3.7,15.5,2.3c24.4,27.4,44.4,58.4,59,92.1c8.6,19.6,14.3,40.5,22.7,60.2c7.1,16.4,15.1,32.3,28.2,45
	c4.5,4.4,9.5,7.4,15.6,8.3c13.2,2.2,26.8,0.6,39.2-4.6c2.4-1.1,4.7-2.5,6.7-4.3c2.4-2,2.7-3.7-0.9-5.4
	c-10.3-4.7-17.3-12.7-22.1-22.9c-1.2-2.4-3.2-5.2,2-5.8c2.3-0.2,2.4-3.4,5-5.2c0.9,7.6,6.3,12.8,8.1,19.8c1.5,5.9,6.8,9.3,10.8,13.4
	c0.4,0.5,1.1,0.7,1.7,0.3c0,0,0.1,0,0.1-0.1c0.4-0.5,0.6-1.1,0.5-1.8c-0.4-1.1-1-2.1-1.7-3c-7.9-10.1-9.5-21.4-6.5-33.5
	c1.6-6.8,5.9-10.4,10.8-9.9c6.4,0.6,10.1,5,10.7,12.3c0.9,11.4-2.2,22.1-5.5,32.8c-0.5,1.6-1.7,3.5,0.7,4.1s2.3-1.8,2.7-3.2
	c2.5-9.2,5-18.3,10.1-26.5c1.6-2.5,3.5-4.8,5.7-6.9c3.5-3.3,7.3-3.8,11.4-1.5c4.4,2.4,6.7,6,5.8,11.1c-2.4,14.1-8.4,25.3-23.9,28.5
	c-0.5,0.2-0.9,0.4-1.3,0.7c-0.1,0.1-0.1,0.3-0.3,0.9c2.7,1.3,5.2,0.9,7.9-0.1c6.8-2.6,12.3-7.3,18.5-10.9c1.4-0.8,2.6-2.1,4.7-2.3
	c0.9,2-0.6,3.2-1.7,4.4c-2.4,2.6-2.1,4.4,1.6,5.1c1.2,0.2,3,0.1,2.9,2c-0.1,1.7-1.8,1.6-3.1,2C267.9,244.9,261.8,246.1,255.7,246.9z
	 M263.5,213c0-1,0-1.6,0-2.3c0-2.7-1.8-5.2-4.4-6c-2.7-1-4.5,0.8-5.9,2.6c-5.7,7.6-8.3,16.6-11.1,25.4c-0.4,1.4-2.2,3.1-0.4,4.5
	c1.4,1.1,3.2,0.3,4.8-0.1C257.5,234.7,262.5,222.7,263.5,213z M218.3,207.9c-0.2,8,1.9,15.9,6,22.8c0.6,1,1,2.2,2.4,2.2
	c1,0,1.4-0.8,1.6-1.6c1.8-9.8,4.8-19.4,4.7-29.5c0-3.7-1.5-6.4-5.6-7c-4.3-0.6-6.5,1.6-7.9,5.2C218.6,202.5,218.2,205.2,218.3,207.9
	z"/>
<path id="X00B7FFM2Gra6Co12_6_" class="st0" d="M437.6,211.6c0,22.3,0,44.7,0,67c0,2.7,0.2,5.5-2.7,7c-4.9,2.5-8.1,0.6-8.3-5
	c-1.7-38.5-5-76.8-10.4-114.9c-4-27.9-11.5-55.1-22.4-81.1c-1.6-3.7-2.3-7.7-1.9-11.7c0.1-0.8,0.5-1.5,1.2-2c0.9-0.6,1.4,0.3,1.9,1
	c7.5,11.3,19,18,29.9,25.4c12.7,8.6,25.9,16.3,38.9,24.5c2.9,1.8,4.4,1.7,3.9-2.1c-0.4-1.5,0.4-3.1,1.8-3.8c4-2.1,7.9-4.2,12-6.1
	c2.4-1.1,2.7,0.9,3,2.6c2.9,14.5,6.9,28.8,10.9,43.1c2.4,8.5,7.9,15.3,12.1,22.9c5.2,9.3,11,18.3,17.4,26.8c1.8,2.5,3.3,2.6,5.7,0.9
	c20.3-14.2,40.6-28.5,59.9-44.1c4.4-3.6,6.5-7.6,6.6-13.2c0.1-8.8,0.3-17.6-0.2-26.5c-0.1-1.6-0.6-4,1.5-4.2c2.7-0.3,2.3,2.4,2.4,4
	c0.7,8.7,0.7,17.4-0.1,26c-0.4,2.3,0.4,4.7,2.2,6.2c3.8,3.7,7.2,7.9,11.1,11.5c3.1,2.9,3.2,4.6-0.4,7.2
	c-15.8,11.5-29.9,25-43.5,38.9c-5.2,5.4-10.1,11-15.3,16.5c-2.7,2.8-2.1,4.1,1.6,4.7c14.5,2,10.2,4,18.1-7.1
	c7.1-10.1,13.8-20.4,21.5-30c2.4-3,4.3-3.9,7.5-0.6c3.6,3.8,8.5,5.8,13.1,8.1c2.6,1.3,3.4,2.5,2.6,5.4c-2.4,8-4.2,16.1-7.6,23.8
	c-1.3,3-0.7,3.8,2.5,3.7c11.1-0.3,13.6-2.6,15.5-13.8c1.8-9.7,1.3-19.7-1.2-29.2c-1.6-5.6,3.1-6.4,5.5-8.8s4.7-0.3,6.6,1.2
	c6.9,5.5,9.7,13.3,12,21.4c2.2,7.2,3.4,14.6,3.7,22.1c0.1,3.7,2.3,3.9,5.1,3.4c12.3-2.3,24.7-4,35.9-10c2.5-1.3,3.7-0.5,4.2,2.1
	c0.7,3.6,0.2,7.4-1.2,10.7c-4.9,11.9-10,23.7-10.9,36.7c-0.2,2.4-1.6,3.3-3.6,4.2c-13.1,5.7-26.9,8.7-40.6,12.2
	c-12.6,3.2-25.5,4.7-38.3,6.9c-15.8,2.8-32,2.6-47.7-0.7c-3.5-0.8-5.7-3.4-7.9-5.8c-10.8-11.8-17-26.2-22.1-41
	c-10.7-30.8-23.4-60.5-43.9-86.3c-6.2-8-12.9-15.7-19.9-23c-3.7-3.7-7.9-6.7-13.3-7.3c-8.7-1.1-15,4.4-15,13.1
	c-0.1,22.5,0,45,0,67.5L437.6,211.6z"/>
<path id="X2ABAFFM1Gra8OT30" class="st0" d="M507.3,597c5.3,6,10.4,11.4,15.2,17.1c17.1,20.4,39.3,28.1,65.3,28.9
	c35.9,1,71.9-2.1,107.1-9.3c5.1-1,5.4-0.7,4.5,4.6c-1,6-3.3,11.5-5.2,17.2c-1.1,3.9-4.2,6.9-8.1,8c-14.4,4.6-28.9,8.9-43.7,12.3
	c-22.6,5.2-45.6,4.4-68.5,5.2c-8.4,0.3-16.9-1.4-25.4-1.9c-7.3-0.4-11.9-5.5-15.1-11.7c-5-9.5-7.4-19.9-10.5-30.1
	c-3.8-12.6-9-24.7-15.3-36.2C506.9,599.9,506.7,598.3,507.3,597z"/>
<path id="X00B7FFM2Gra6Co12_5_" class="st0" d="M524.6,74.6c-0.1,7.6-0.3,7.6-6.4,7.6c-4,0-5.2-1.6-5-5.5c0.3-4.6,0-9.3,0-14
	c-0.1-2.7,0.1-5.3,3.8-5c2.6,0.2,6.5-1.4,6.5,3.7c0,1-0.2,2.3,1.2,2.2c1-0.2,1.7-1.1,1.6-2.2c0,0,0,0,0,0c-1.1-5.7,3-5.8,6.6-6.2
	c3.8-0.4,7.6-0.3,11.5-0.4c1.8,0,4.2-0.3,5.2,1.1c3.1,4.2,6.8,2.6,10.6,1.9c4.6-0.9,9.2-1.6,13.8-2.6c2.5-0.5,5.3-0.6,6.2-4
	c0.4-1.5,2.2-2,3.8-1.9c1.9,0.1,2.3,1.7,2.5,3.2c1.7,18.3,7.4,35.7,12.1,53.4c0.1,0.5,0.2,1,0.3,1.5c0.3,2.5,1.6,6.4-1.5,6.8
	s-1.8-3.6-2.1-5.6c-2.2-11.6-4.8-23.1-9.8-34c-1.5-3.2-3.2-3.9-6.6-2.9c-5.5,1.5-11,2.7-16.6,3.5c-4,0.7-8.7-0.6-10.8,4.8
	c-0.6,1.6-3.2,1.7-5,1.7c-3.7,0.2-7.3,0.2-11,0.2c-4,0-8.8,1-8.1-5.8C527.2,75.6,526.2,74.6,524.6,74.6z"/>
<path id="X00B7FFM2Gra6Co12_4_" class="st0" d="M492,57.4c0.2,1.8-0.8,2-1.8,2.2c-3.4,0.5-6.8,1.5-10,2.9c-1.9,0.8-3.5-0.2-5-1.5
	c-14.2-12.8-27.8-26.3-37.7-42.9c-2.5-4.2-3-7.6,0.7-11c0.4-0.3,0.5-0.9,0.9-1.2c1.9-2,3.7-5.5,5.8-5.8c3.6-0.4,2.8,4.1,4,6.4
	c10.4,18.7,25.1,33.8,40.4,48.4C490.3,55.8,491.3,56.7,492,57.4z"/>
<path id="X00B7FFM2Gra6Co12_3_" class="st0" d="M437.3,102.5c6.6-1.6,13.1-2.8,19.4-4.4c11.8-2.9,22.9-8.1,32.8-15.2
	c3-2.2,6.6-3.2,10.3-2.8c5.3,0.4,5.8,1.3,3,6c-4.4,7.3-10.4,13.5-17.5,18.2c-6.4,4.4-13.3,8.2-20.5,11.3c-2.7,1.4-6,1.1-8.4-0.7
	C450.3,110.5,443.7,106.6,437.3,102.5z"/>
<path id="X00B7FFM2Gra6Co12_2_" class="st0" d="M511.8,70.2c0,1.2-0.1,2.3,0,3.5c0.3,4.2-1.2,5.7-5.6,4.8c-10.1-2-19.3-1.2-26.6,7.8
	c-3.1,3.8-8.5,5-13.1,6.8c-3.2,1.3-3.6-0.7-3.4-3.4c0.8-14,8.7-23.4,22.6-26.6C491,61.7,496.5,61,502,61
	C511.4,61.2,511.4,61.1,511.8,70.2z"/>
<path id="XCC66FFM1Gra2Co10_2_" class="st0" d="M138.8,414.9c2.3,0,4.6-0.1,7,0c1.9,0.1,3.8,0.6,4.5,2.5c0.6,1.7-0.7,2.9-1.8,3.8
	c-2.8,2.2-3,4.1,0.1,6.2c1.9,1.3,2.6,3.7,1.8,5.8c-0.6,2.2-2.5,3.7-4.8,3.8c-5.5,0.2-11,0.7-16.4,0c-3.9-0.5-7-3-6.8-7.8
	c0.1-1,0.1-2,0-3c-0.4-7.9,2.9-11.3,11-11.2c1.8,0,3.6,0.1,5.5,0.2L138.8,414.9z"/>
<path id="XFFB6F5M2Color19" class="st0" d="M139.4,441.7c-3,0.1-6,0.3-9,0.4c-2.4,0.1-4.7-0.2-6.6-1.9c-0.8-0.7-1.5-1.5-0.8-2.5
	c0.6-0.8,1.4-0.7,2.3-0.3c7.6,3.3,15.4,0.6,23.1,0.6c2.1,0.1,3.9-1.5,4-3.5c0-0.1,0-0.1,0-0.2c-0.1-2.6,1.5-5.9-1.8-7.6
	c-2.4-1.4-3.1-3-0.4-4.2c2.9-1.4,2-3.4,1.7-5.5c-0.4-2.4-1.5-5-4.2-4.9c-7.6,0.3-15.6-2.1-22.8,2.5c-0.7,0.5-1.5,0.9-2.2,0.1
	c-0.9-0.9-0.3-1.8,0.3-2.7c1.4-1.9,3.6-3.1,6-3.2c6-0.3,12-0.6,18-0.6s8.4,2.3,8.9,8.4c0.2,2.5,0.1,4.9,3.4,5.7c2,0.5,1.7,2.8,0,3.3
	c-3.2,1-2.7,3.1-2.7,5.5c0.3,9-1,10.3-10.2,10.5c-2.3,0.1-4.7,0-7,0L139.4,441.7z"/>
<path id="XCC66FFM1Gra2Co10_1_" class="st0" d="M108,426.2c0-2.1,0.1-4.3,0-6.5c-0.1-3.3,1-5.5,4.6-5.7c3.5-0.2,6.2,0.7,6.9,4.8
	c0.9,5.4,1.1,10.9,0.6,16.3c-0.2,3.1-2.1,4.8-5.3,4.6c-3.1-0.2-6.2-0.4-6.4-4.5c-0.2-3,0-6,0-8.9L108,426.2z"/>
<path id="X00B7FFM2Gra6Co12_1_" class="st0" d="M618.6,201.1c-5.9-2.2-11.1-5.7-15.5-10.2c-1-1.1-0.5-2.2,0.4-3.1
	c1.3-1.5,2.8-2.9,4.1-4.4c2-2.3,3.9-2.7,6.3-0.5c1.8,1.5,3.7,2.8,5.8,3.9c5.1,3.2,5.7,9.3,1.4,13.4
	C620.4,200.9,619.5,201.2,618.6,201.1z"/>
<path id="XCC66FFM1Gra2Co10" class="st0" d="M172.6,422.7c0,0.3,0,0.7,0,1c1.1,8.9-0.4,8.7-10.1,9.7c-1.6,0.2-3.2,0-3.7-1.8
	c-0.5-1.8,0.2-3.8,1.8-4.8c4-2.5,2.5-4.3-0.3-6.2c-1.2-0.9-2.7-1.8-2.3-3.5c0.4-2,2.3-2.2,3.9-2.4c0.5-0.1,1-0.1,1.5-0.2
	C173.4,413.4,173,411.6,172.6,422.7z"/>
<path id="X00B7FFM2Gra6Co12" class="st0" d="M632.4,180.7c0,2.2-7.3,6.2-9.3,5.2c-1.5-0.8-2.9-1.7-4.2-2.6
	c-6.1-4.1-6.1-6.1-0.3-10.8c1.1-0.9,2-1.1,3.1-0.3c3.2,2.4,6.4,4.7,9.6,7.2C631.7,179.7,632.1,180.2,632.4,180.7z"/>
</svg>
