<?xml version="1.0" encoding="utf-8"?>
<!-- Generator: Adobe Illustrator 24.1.0, SVG Export Plug-In . SVG Version: 6.00 Build 0)  -->
<svg version="1.1" id="图层_1" xmlns="http://www.w3.org/2000/svg" xmlns:xlink="http://www.w3.org/1999/xlink" x="0px" y="0px"
	 viewBox="0 0 411 753.8" style="enable-background:new 0 0 411 753.8;" xml:space="preserve">
<style type="text/css">
	.st0{fill:#FFFFFF;stroke:#000000;stroke-miterlimit:10;}
</style>
<path id="XFF99FFM2Gra6Co6" class="st0" d="M153.3,169.5c-1.1-3.8-1.2-7.8-0.3-11.6c2.3-11.5,4.8-23,12.3-32.7
	c5.9-7.8,14.8-12.8,24.5-13.8c1.8-0.2,3.7-0.2,5.4-0.9c3.9-1.6,5.5-0.1,5.4,3.6c-0.2,8.8,4.4,14.6,12.1,17.6c8,3,15.4,0.6,21.8-4.8
	c4.5-3.8,8.3-8.3,11.3-13.3c1.6-2.7,3.6-4.3,6.6-4.5c4-0.4,7.9-1.5,11.8-2.2c9.5-1.8,22.4,10,22.4,19.7c0.1,1.9-0.1,3.8-0.6,5.6
	c-0.8-2.5-1.4-5.1-2.3-7.6c-3.4-9.7-11.4-13-21.5-12.2c-7.3,0.5-6.9,4.6-7.2,8.9c-1.1,13.8-1.9,27.6,3.9,40.8
	c0.7,1.6,0.1,2.8-0.7,4.2c-2.8,4.4-5.6,8.6-9.8,11.9c-3.1,2.4-4.1,6-4.8,9.6c-0.4,2.2-0.6,4.6-2.1,6.6c-1.5-1.4-1.4-3.2-1.8-4.7
	s-0.6-3.2-2.7-2.9c-1.7,0.2-3.1,1.4-3.5,3.1c-0.1,0.2-0.1,0.3-0.1,0.5c2.8,12.9-3.4,23.7-8.2,34.7c0,0,0.2,0.2,0.5,0.5
	c5.7-5.2,7.3-13.1,12.4-18.8c-0.1,5.5-2.6,10.1-5.1,14.7c-2.8,5.1-5.7,10.1-8.7,15.1c-6.4,10.6-6.4,22.1-6,33.9
	c0.7,21-2.8,41.9-1.6,62.9c1.2,21.5,3.6,42.8,7.3,64c1.9,10.6,3.5,21.3,5.4,32c0.5,2.6,1.3,5.2,2,7.7c0.8,2.8,2.5,4.4,5.5,5.1
	c8.3,2.2,11.7,6.8,11.3,15.3c-0.1,5.2,0.3,10.3,1.1,15.4c1,6.8-0.4,7.8-7,5.8c-1.6-0.5-3.1-1.3-4.3-2.4c-2.2-1.9-2.8-3.7-0.7-6.4
	c3.1-3.5,3.7-8.5,1.5-12.7c-1.7-3.5-4.9-3.9-7-0.6c-3.2,5.3-6.8,10.1-7.2,17c-1.3,19.2-2.5,38.7-6.2,57.5
	c-2.7,13.4-1.6,26.4-1.5,39.5c0,4.5,0.7,8.9,0,13.5c-2.5-0.5-2-2.3-2.2-3.6c-1.6-16.9-3-33.8-4.7-50.8c-1.6-16.4-5.3-32.5-9-48.6
	c-0.1-1.4-1.1-2.5-2.4-2.9c-5.9-1.6-8.6-6.6-11.7-11.1c-0.6-0.9-0.9-2.5-2.3-2.2c-1.7,0.3-1.6,2-1.7,3.2c-0.4,3.5-0.6,7-2.1,10.2
	c-1.3,2.7-2.6,5-6.4,4.1c-2.9-0.8-2.8,1-2.5,3.2c4.5,24.7,13.1,48.1,21.8,71.5c7,18.9,12.8,38.2,19,57.4c3.5,10.7,6.9,21.5,7.4,33
	c-2.2,0-1.9-1.7-2.2-2.8c-6.6-31.7-19.5-61.2-32.6-90.5c-6.2-14-12.8-27.9-17.7-42.4c-3.5-10.2-3.6-20.9-4.2-31.6
	c-0.3-5.1-1.4-10.2-2.2-15.3c-0.2-1.1-0.4-2.5-1.8-2.6s-1.7,1.3-1.9,2.4c-1.2,5.7-4,11-4.6,16.8c-0.2,1.6-0.8,3.2-2.6,3.1
	c-2.9-0.1-5.7-1-7.2-3.7c-2.2-3.9-3.4-8.4-3.4-12.9c0-1.8,0.9-4.7-1.9-4.8c-2.3-0.1-1.9,2.7-2.3,4.4c-0.6,2.3,1.2,6.1-1.9,6.5
	c-3.4,0.4-6-2.9-7.4-5.7c-3-5.8-0.9-11.3,2.3-16.5c0.9-1.2,1.9-2.3,3.1-3.3c2-1.7,3.9-4.4,6.8-3.3c2.7,1,3,4.2,3.6,6.8
	c0.5,2.3,0.9,4.6,1.4,6.8c0.2,0.8,0.9,1.6,1.9,1.1c0.5-0.4,0.8-1,0.8-1.6c-0.1-2-0.5-4-0.8-5.9c-4.1-24.9-10.8-49-17.8-73.2
	c-6.1-20.9-10.5-42.3-4.2-64c4-13.8,6-27.9,8.5-42c1.7-9.8,7.4-17.7,14.5-24.6c5.9-5.7,11.8-11.2,18-16.6
	c10.5-9.1,13.8-20.4,11.3-33.7c-0.4-2.5-1.6-4.8-3.6-6.4c-2.1-1.7-3.8-3.8-5-6.2c-2.6-4.9-4.8-9.6-1.5-15.7
	c4.1-7.6,7.8-15.4,13.1-22.3c5.6-7.3,9.2-15.8,12.5-24.4c1.5-4,0.3-5.4-4.1-5.5c-12.4-0.3-23.4,8.1-26.3,20.2
	c-2.5,9.3-5.2,18.6-5.8,28.3C154.5,166.9,154.1,167.5,153.3,169.5z M214.9,451.4c-2.8,2.1-2.7,4.2-3.2,6.1c-1.4,5.3-1.4,11-4.6,15.7
	c-2,2.8-2.2,5.6-1.6,8.9c2.7,14.2,7.7,27.9,8.5,42.5c0.1,1,0,2.5,2.5,2.4C217.3,502,217.3,477.1,214.9,451.4L214.9,451.4z
	 M229.7,441.9c-0.1-1.2-1-1.6-1.8-2.3c-1.7-1.3-3.4-2.6-5-4.1c-5.8-5.7-8.3-5.8-13.8,0.4c-2.6,2.9-4.9,5.9-7.3,8.9
	c-2.2,2.8-4.6,3.9-7.4,0.7c-1.4-1.6-3-2-4.9-0.9c-0.9,0.6-1.8,1.7-0.4,2.3c6.3,2.7,6.1,8.5,7,13.9c0.3,1.5,0.1,3.8,2.3,3.9
	c1.8,0.1,2.1-1.9,2.7-3.2c3-6.1,5-12.7,8.7-18.5c5.8-9.2,8-9.4,15.2-1.3c0.7,0.7,1.5,1.3,2.4,1.7C228.7,443.7,229.4,443,229.7,441.9
	L229.7,441.9z M211.3,306.6c1.4-0.5,1.3-1.8,1.5-2.9c0.7-6.4,1.4-12.9,1.9-19.3c0.5-7.5,0.1-14.9-1.3-22.3c-0.2-1.1-0.3-2.5-1.7-2.8
	c-1.5-0.4-1.8,1-2.4,2c-1.7,2.6-2.7,5.7-2.6,8.8c-0.2,11.2,2.1,22.1,3,33.2C209.7,304.5,209.7,306,211.3,306.6L211.3,306.6z
	 M221.2,141.6c-0.2-2.7-1.3-5.5-3.7-5.2c-3.8,0.5-4.9,4-4.9,7.5c0,2.3,0.6,5.2,3.6,4.8C219.9,148,220.5,144.5,221.2,141.6
	L221.2,141.6z M230.5,133.3c-1.4,0.2-2.4,3.4-5.1,1.7c-0.9-0.5-1.9,0.3-2.3,1.4c-0.3,0.8-0.1,1.7,0.6,2.2c0.8,0.7,1.9,1.2,2.7,0.4
	c1.3-1.3,3.2-1.8,4.9-1.4c1.4,0.2,2.1-0.9,1.9-2.3S232.5,133.3,230.5,133.3L230.5,133.3z M178.7,457.1c-2.1,1.1-2.3,3.4-2.7,5.4
	c-0.3,1.4,0.7,2.6,2,2c2.1-1,2.4-3.4,2.6-5.5C180.8,457.9,180.1,457.1,178.7,457.1L178.7,457.1z M210.1,139.5
	c1.3-0.2,2.2-0.8,2.2-2.2c0.1-1.4-0.9-2.6-2.3-2.8c0,0,0,0,0,0c-1-0.2-1.9,0.5-2.1,1.5c0,0.2,0,0.4,0,0.7
	C207.7,138,208.7,139.3,210.1,139.5z"/>
<path id="XFF949DM2Gra3OT37" class="st0" d="M284.4,523.1c2.5,1.4,2.2,4.6,4.2,6.4c8.1,7.5,18,7.8,28.1,7.2c0.8,0,1.8-0.4,1.7-1.5
	c-0.1-1.5-1.5-1.7-2.6-1.8c-5.2-0.4-10.1-2.2-14.5-5c-0.8-0.5-1.8-1.3-1.3-2.4s1.7-0.9,2.6-0.5c11.1,4.4,21.6,1.3,31.9-2.9
	c10.2-4.1,19.4-9.7,26.4-18.3c8.7-10.7,9.9-24.1,3.2-34.3c-8-12.2-21.7-17.4-35.2-13.4c-19.1,5.6-19.5,5.9-28.8,23.5
	c-1,1.9-2,3.8-3.2,5.7c-3.3,5.2-2.5,10.1,0.7,15c1.8,2.7,3.6,5.4,1.2,8.7c-1.3,1.8-3.2,2.7-5.2,1.7c-3.4-1.6-5.6-4.3-5.3-8.3
	c0.5-8.6,2.3-16.8,6.5-24.4c1.1-2,2.4-3.8,2.8-7c-4.8,2-7.1,5.4-8.9,9c-1.1,2.4-2.6,4.6-4.6,6.5c-1.3,1.1-2.7,2.1-4.5,1.2
	s-2.3-2.8-2.1-4.7c0.3-3.4,2.4-5.9,4.6-8.1c5.2-5.2,10.5-10.3,17.2-13.5c2-1,3.4-2.1,2.9-4.6c-0.3-1.8,0.7-3.2,1.6-4.6
	c2.2-3.6,3.1-7.6,3.8-11.8c0.5-3.2-0.3-5.2-3.4-6.9c-5.3-2.8-7.5-7.8-7.9-13.6s-1.1-6.3-6.7-5.5c-7.8,0.9-13.3,8-12.3,15.8
	c0.2,1.8,0.8,3.5,1.6,5c0.8,1.5,1.7,2,3.2,1.1c1-0.6,1.9-1.3,2.9-2c5.7-4,8.2-3.9,12.1,0.4c3,3.3,3,7.8,0,11.3
	c-3.2,3.9-8.9,4.8-13,1.9c-8.1-5.2-12.2-17.6-9.2-28c2.1-7.2,5.6-9.7,13.2-9.4c2,0.1,4,0.2,6,0.4c2.4,0.3,3.7-0.8,4.6-2.9
	s0.8-3.6-1.1-5.2c-2.4-2.1-4.3-6.6-6.7-6.8c-2.9-0.2-2.6,4.9-4.6,7.4c-6.1,7.5-17,10.6-25.7,6.8c-2.4-1.1-3.8-2.9-3.4-5.5
	c0.8-5.6,3-10.6,7.5-14.2c1.5-1.2,3.1-2.3,4.9-0.7s3.6,3.7,2.9,6.5c-0.5,2.3-2.4,3-4.7,2.9c-1.6-0.1-3.5-0.9-4.3,1.2
	c-0.2,0.8,0,1.6,0.5,2.3c1.3,1.8,3.1,1.4,5,0.9c8.5-2.6,13.6-8.5,15.2-16.9c1.3-7-2.5-12.7-7.4-17.1s-11.5-3.6-17.1-1.3
	c-4.1,1.7-4.9,6-4,10.3c0.3,1.7,2,3.8-0.6,4.7s-4.1-1-4.7-3.3c-0.7-2-1.2-4.2-1.2-6.4c0.3-12.9,2.9-25.1,10.7-35.8
	c7.9-10.9,18.9-15.8,32-16.8c1.1-0.1,2.5,0.3,3-1.1s-0.6-2.1-1.2-3.1c-2.6-4.7-7.3-7.1-11.4-10.2c-12.2-8.9-21.3-20.6-29.2-33.2
	c-5-8-10.8-15.7-14.2-24.6c-2.8-7.2,0.8-13.9,2.8-20.7c0.5-1.8,2.8-1.2,4.4-0.5c3.9,1.6,7.5,1.1,10.5-2.1c0.8-0.9,1.6-2,2.9-1
	s0.8,2.3,0.1,3.2c-6.7,9.2-3.6,16.7,2.9,24.9c9.5,12,14.6,26.9,22.7,39.9c6.5,10.3,14.6,17.5,26.5,20.4c2.4,0.6,4.7,1.8,7.1,2.3
	c6.3,1.5,9.6,5.9,11.3,11.5c2.5,7.8,5.6,15.3,9.3,22.6c0.7,1.5,2.7,3.5,0.2,4.6c-2.1,1-3.1-1.5-4-3c-3.7-6.5-7.2-13.1-10.9-19.7
	c-2.6-4.7-7.1-6.8-11.8-8.8c-0.9-0.4-2-0.7-2.6,0.4s0.2,1.9,1.1,2.5c16.6,10.6,21.8,27.9,26.1,45.5c2.1,8.5,1.4,17.3-0.5,25.8
	c-3.9,17.9-11,34.5-19.6,50.6c-0.8,1.5-2.6,3.2-1.1,5s3-0.1,4.5-0.6c24.1-7.1,46.4,6.1,52.1,24.2c3.3,10.6,0.9,20.8-3.5,30.6
	c-1.4,3.6-3.4,6.9-5.9,9.8c-2,2.3-3.4,4.8-2.8,8.2c0.5,2.8-1.4,4.7-3.6,6.1c-1.8,1.1-3.1,2.4-3.1,4.7c0,1.4-0.1,2.7,1.2,3.6
	s2.6,0.2,3.5-0.8c1.8-1.9,3.8-2.8,6.1-0.8c1.9,1.6,3.3,3.8,1.9,6.1c-1.3,2.2-2,5.8-6.1,4c-1.5-0.6-2.9,0-4.3,0.5
	c-5.2,1.7-7.9,0.5-9.4-4.8c-1.1-4-2.6-4.4-6.4-3c-13.1,4.9-26.7,7.4-40.5,3.1c-8.4-2.6-13.8-8.4-15.9-17.1
	C283.7,525.5,283.1,524.3,284.4,523.1z M330.8,384.1c0.6-6-1-12-2.2-18c-0.4-1.7-1.3-3.6-3.4-2.1c-8,5.6-16.1,5.3-24.5,1.1
	c-2.2-1.1-3.5-0.2-3.9,2.1c-0.8,5.4-1.6,10.8-1.2,16.4c0.9,13.2,11.5,18.9,22.9,12.1c1-0.6,2.2-1,2.1-2.4s-1.5-2.1-2.7-2.6
	c-1.4-0.6-3-0.6-4.3,0.1c-4.1,2-7.4,0.4-10.3-2.5c-2-2-3.4-4.1-1.6-7s4.3-3,7-2c4.8,2,9.6,3.7,13.8,6.9c5.5,4.2,5.9,7.4,1.5,12.9
	c-1.5,1.8-4,3.3-2.5,6.4c0.7,1.2,0.3,2.7-0.9,3.4c0,0-0.1,0.1-0.1,0.1c-1.2,0.7-2.2-0.2-3.2-0.8c-5.1-2.9-9.2-1.6-11.7,3.7
	c-0.9,1.9-1.2,3.5,0.6,4.9c2,1.5,3.5,0.5,4.7-1c2.8-3.6,6.5-4.3,10.2-2.1s4.6,0.3,5.6-2.6C329.4,402.2,330.9,393.2,330.8,384.1
	L330.8,384.1z M284.6,333.5c0.3-0.8,0-1.7-0.7-2.3c-1.4-0.9-2.5,0.1-3.7,0.7c-12.5,6.3-18.7,17.6-23.8,29.7c-0.4,0.9-0.9,2,0.1,2.7
	s1.9-0.2,2.7-0.7c2.5-1.6,5-3.2,8.2-3.1c8.2,0.1,14.2,3.8,18.1,11c0.6,1.1,0.8,2.9,2.4,2.8c2.2-0.1,1.5-2.2,1.7-3.5
	c0.3-2.1,1.1-4.2,2.3-6c1.8-2.8,1.7-5.2-0.6-7.6C285.1,350.7,282.2,343.1,284.6,333.5z M290.1,335.8c-0.6,3.3-0.2,6.8,1.2,9.9
	c1.9,3.9,2.8,9.5,9.5,7.7c0.8-0.2,1.6,0.2,1.8,0.9c0,0.1,0.1,0.2,0.1,0.3c0.5,6.1,5.2,4.2,8.7,4.6c1.4,0.2,3.2,0.1,4-1.4
	c1-1.8-0.9-2.5-1.8-3.6c-2.9-3.4-2.5-6.8,0.9-8.9c5-3,5-3.6,0.7-8.2c-1.4-1.5-2.7-2.8-3.8,0.5c-0.8,2.6-2.1,1.4-3.1,0
	c-0.7-0.9-1-2.1-1.7-3c-2.6-3.7-10.1-7-13.7-5.9C288.6,330,290.8,333.8,290.1,335.8L290.1,335.8z M316.6,419.3
	c-2.2,1.4-2.6,4.1-3.8,6.4c-0.4,0.7-0.1,1.6,0.6,1.9c0.2,0.1,0.5,0.2,0.7,0.2c3.1-0.5,3.8-3.3,4.5-5.8
	C318.8,420.9,318.3,419.8,316.6,419.3L316.6,419.3z M313.5,439c0.1,1.1-0.1,3.1,1.2,2.6c2.3-0.8,2.6-3.5,3.4-5.6
	c0.3-0.7,0-1.5-0.7-1.8c-0.3-0.1-0.6-0.2-0.9-0.1C313.9,434.6,313.8,437,313.5,439L313.5,439z M320.9,347.8c-1.1,0-2,0.9-2,2
	c0,0.1,0,0.2,0,0.3c0.1,1.4,0.8,2.6,2.4,2.6c1,0.1,2-0.7,2-1.7c0-0.2,0-0.4,0-0.5C323.3,349.1,322.2,347.9,320.9,347.8L320.9,347.8z
	"/>
<path id="X0069A9M2Gra7OT12" class="st0" d="M240.4,114.1c-3.4,1.1-6.2-0.2-8.6-1.7c-10-6.4-17.1-14.7-17.8-27.2
	c-0.1-1.1,0.1-2.7-1.3-2.9c-1.9-0.2-1.8,1.6-2.2,2.8c-1.2,4.1-1.5,8.5-5.1,11.6c-1.3-1.4-0.5-2.6-0.1-3.8c2.4-7.4,2.6-15.4,6-22.5
	c1.4-3,1.4-7.1-2.7-8.4c-5.8-2-9.7,0.2-10.6,5.4c-0.4,2.1-0.4,4.3-0.2,6.5c0.3,4.2-1,7.2-4.9,9.5c-3.9,2.2-7,1.3-10.3-0.8
	c-0.8-0.5-1.7-1.1-2.5-1.7c-1.5-1-2.7-2.9-4.8-2c-2.3,0.9-1.4,3-1.5,4.8c0,1-0.2,2-0.7,2.8c-4.2,4.4-1.9,7.2,2.1,9.8
	c2.5,1.7,4.6,3.2-0.3,5.2c-2.8,1.1-5,3.8-7.1,6.1c-12.7,13.6-33.2,10.8-45.2-1.2c-2-2-3.9-4.1-5.8-6.2c-5.6-6.3-6.2-14-1.5-21.1
	c6.4-9.3,14.1-17.8,22.8-25c3.1-2.6,4.7-5.3,4.7-9.7c0-6.5,0.6-13,0.6-19.4c0-5.2,2.3-9,6.4-12.3c11-9,23.8-12.3,37.6-12.4
	c8.8-0.1,14.5,4.5,16.6,12.7c0.8,3.2,2.7,2.9,4.9,2.3c5.8-1.6,11.7-2.7,17.6-3.4c1.2-0.1,2.6-0.8,4.2,1
	c-16.8,4.7-33.4,8.7-49.7,14.3c2.2-3.8,6.5-4,9.6-6.2c1.3-0.9,3.5-1.3,3-3.4c-0.5-2.5-2.8-2.1-4.5-1.8c-12,1.7-23.6,4.5-33.6,11.6
	c-4.2,2.7-6.1,7.9-4.6,12.7c0.7,2.6,2.1,3.8,4.7,2.1c1-0.6,1.9-1.3,2.9-1.9c4.5-2.6,8.7-6.3,13.5-7.4c25.9-5.8,51.8-12.6,78.5-4.8
	c9.3,2.7,13.4,8.3,11.6,17.9c-3.1,16.6-13.6,27.4-29.2,32.3c-7,2.2-9.5,7.7-13.8,11.9c-1.9,1.9,0.1,4.5,1.3,6.4
	c4.3,6.8,10.5,11.5,17.5,15.2C238.6,112.2,239.8,112.2,240.4,114.1z M178.2,62.6c-5.5-0.1-10.9,1.3-15.7,4c-2.2,1-3.2,3.7-2.2,6
	c0.1,0.2,0.2,0.3,0.3,0.5c1.2,2.3,3.5,1.4,5.3,0.5c4.5-2.1,8.9-4.4,13.3-6.7c1.4-0.7,3.7-1.2,3.3-3.2
	C181.9,61.5,179.6,62.9,178.2,62.6z"/>
<path id="XFF949DM2Gra2OT37" class="st0" d="M48.5,404.9c-0.5,0.7-0.5,0.9-0.6,1c-2.1,1.3-6.8,0.2-6.1,3.5c0.6,2.8,4.7,0.5,7.1,0.5
	c7.5-0.3,15-1.4,22.4-1.1c5.2,0.2,6.4-1.9,6.3-6.4c-0.1-6,0.9-11.9,1.6-17.9c1.1-9.8,5.2-18.1,11.2-25.7
	c9.7-12.3,19.3-24.7,22.8-40.6c0.3-0.8,0.9-1.6,1.7-2c0.2,7.1,3.2,13.7,1.4,21.1c-1.6,6.7-5.4,11.5-10.1,16.1
	c-5.2,5-6.6,11.1-4.3,17.8c1.9,5.6,1.7,10.6-1.5,15.7c-2.4,4-3.3,8.7-3.9,13.3c-0.2,1.5-0.2,3.4-2.2,3.2c-1.9-0.1-2.2-1.9-2.1-3.4
	c0.1-3.1-0.1-6.3,1.4-9.3c0.7-1.3,1.1-2.8,1.2-4.3c0.1-2.1,0.4-5-2.1-5.6c-2.8-0.7-2.7,2.4-3.2,4.1c-1.8,6.2-2.8,12.7-5.1,18.7
	c-1.1,2.7,0.9,3.5,4.5,4.8c-7.4,0.3-8.8,4.4-9.3,9.1c-0.4,2.8-1.3,5.6-2.8,8c-0.6,1-0.9,2.5-2.4,2.1c-1.6-0.5-0.8-1.9-0.6-3
	c0.7-3.4,1.4-6.9,2.2-10.2c0.8-3,0.4-4.3-3.2-4.1c-17.7,1.3-35.5,2.3-53.2,3.4c-0.5,0-1,0-1.5,0c-2.1-0.2-4.5,0.1-5.8-2.1
	c-0.6-0.9-0.4-2,0.4-2.8c1.9-1.8,3.7,0,5.6,0.1c7.6,0.8,14.8-1.7,22.1-3.4C42.9,404.9,45.7,404.6,48.5,404.9z"/>
<path id="XFF99FFM1Gra7Co8_4_" class="st0" d="M272.5,12.6c6.1-2.3,15.2,0.2,18.8,4.7s2.1,8.6-0.4,12.9
	c-6.7,11.6-15.4,21.7-23.1,32.6c-2.4,3.2-4.4,6.7-5.9,10.4c-4,10.7,0.8,17.2,12.2,16c7.6-0.8,15.1-2.2,22.7-3.3
	c17.4-2.6,34.8-3.5,51.9,1.7c10.1,3.1,19.9,7.1,24.4,18c2.1,4.8,1.8,10.3-0.7,14.9c-0.4,0.9-1,1.9-2.3,1.5c-0.9-0.3-1.4-1.3-1.1-2.3
	c0-0.1,0.1-0.2,0.1-0.2c2.3-6.2,0.3-11.4-3.7-16.1c-4.8-5.7-10.4-10.2-17.8-12.2c-19.5-5.4-38.5-2.6-57.5,3.3
	c-5.9,1.8-11.9,3.3-17.8,4.7c-2.1,0.4-4.3,0.5-6.5,0.2c-9.7-0.7-14.2-7.3-12.3-17c1.5-7.4,5.1-13.6,9.5-19.5
	c6.5-8.8,13.8-17.1,19.9-26.3c1.3-1.9,2.4-4,3.5-6.1c3.9-7.9,2-12.3-6.5-15.2C278,14.5,275.8,13.7,272.5,12.6z"/>
<path id="X81B540M2Gra6OT4" class="st0" d="M219.3,664.5c2.1,2.4,1.4,4.9,1.4,7.4c0,4.2-0.4,8.3-0.1,12.5c0.2,3.5,1,6.9,5.6,3
	c1.7-1.5,2.2-0.2,2.5,1.4c3,19.2,5.7,38.5-0.5,57.7c-0.8,2.5,0.9,7-2.3,7.4c-3.6,0.4-2.5-4.3-3.6-6.6c-2.6-5.6-6.1-10.7-8.1-16.5
	c-1.8-5.4-2.3-11.1-1.2-16.7c2-11.1,4.4-22.1,4-33.6C216.7,675.1,219.1,669.9,219.3,664.5z"/>
<path id="XFF99FFM1Gra7Co8_3_" class="st0" d="M358.8,137.2c0.4,2.3-1.6,3.1-2.9,4.2c-5.7,4.9-12,8.9-18.2,13.2
	c-11.2,7.9-23.6,14.4-32.4,25.5c-5.7,7.2-8.8,15.2-5.9,24.6c0.7,2.2,1.9,4.3,3.6,5.9c1.9,1.9,3.4,4.1,4.5,6.6c0.4,1.1,1,2.4-0.1,3.2
	s-2.1-0.3-2.8-1.2c-1.8-2-3.9-3.7-6.2-5c-9.5-6-12.3-16.3-7.7-26.5c6.3-14.1,17.9-22.9,30.1-31.1c11.6-7.8,25.2-11.9,37-19.5
	C358,136.8,358.4,137.1,358.8,137.2z"/>
<path id="XEC2AFFM2Gra3OT32_3_" class="st0" d="M369,544.6c2-0.6,2.5,2.1,5.3,1.9c-3.3-6.4-1.3-14.5-8.8-18.7
	c-1-0.6-1.5-1.4-0.9-2.5c0.6-0.9,1.7-1.2,2.7-0.6c3,1.1,4.8,3.5,6,6.4c5.9,14.1,7.1,28.7,4.6,43.6c-2.2,13.3-5.3,26.4-7.5,39.7
	c-1.9,11.7-2.2,23.6-0.7,35.3c0.1,1,0.5,2.1-0.6,2.7c-1.4,0.6-2.3-0.4-2.8-1.4c-1.1-2.4-2-4.9-2.6-7.5c-3-12.9-2-25.7,1.3-38.5
	s8.6-25.3,7.6-39c-0.4-5.7-0.8-11.3-2.8-16.7C369.1,547.8,368,546.3,369,544.6z"/>
<path id="XEC2AFFM2Gra3OT32_2_" class="st0" d="M336.7,619.5c-0.5,11.3-3.6,28.3-9,44.8c-2.5,7.8-4.4,15.7-4,24c0,1.2,0.7,3-1.1,3.3
	s-1.9-1.6-2.2-2.8c-2.5-11.1-2.5-22.1,1.3-32.9c3.5-10,8.5-19.5,10.9-30c3.1-13.5,2-26.8-1.7-39.9c-1.8-6.4-3.6-12.8-6.6-18.8
	c-2.9-5.7-6.1-11-11.1-15c-1.3-1-2.3-2.2-1.1-3.8s2.6-0.9,4-0.2c2.8,1.5,5.1,3.8,6.5,6.6c3.4,5.9,6.1,12.3,7.8,18.9
	C333.5,586.7,337,599.8,336.7,619.5z"/>
<path id="XFF6315M2Gra8OT38" class="st0" d="M18.3,301.9c4,6.1,4,11.9,0.7,16.1c-1.8,2.3-4,4.4-6.1,6.6c-6.9,7.5-6.3,17.6,1.5,24.2
	c1.7,1.4,3.5,2.6,5.3,3.7c7.2,4.5,9.1,8.8,7.9,17.1c-0.7,4.3-2.2,8.4-4.4,12.1c-0.5,0.9-1,2.5-2.5,1.8s-0.6-2.1-0.1-3.1
	c2.9-5,2.7-10.1,0.8-15.3c-1.2-3.1-3.3-5.9-6-7.8c-3.5-2.5-7.1-4.9-10.4-7.7c-5.9-4.7-6.8-13.4-2-19.2c0.1-0.1,0.2-0.2,0.3-0.3
	c0.1-0.1,0.2-0.3,0.3-0.4C10.6,322,20.1,315.7,18.3,301.9z"/>
<path id="XEC2AFFM2Gra3OT32_1_" class="st0" d="M315.5,579.2c1-1.3,0.2-2.3,0.3-3.2c0-2.5,1.2-4.3,3.8-4.3s4.5,1.7,4.4,4.5
	c-0.2,3.5-1,7.2-4.7,8.8s-6.4-0.8-8.7-3.3c-2.2-2.1-3.5-5-3.8-8c-0.2-3-1.5-3.8-4.2-2.5c-4,2-6.8-0.5-9.1-3.2
	c-2.5-2.9-3.5-6.6-1.6-10.2c1.8-3.2,4.6-5.4,8.5-5.2c3.1,0.1,4.9,2,5.6,4.9c0.5,1.5,0,3.1-1.3,4c-1.4,1.1-2.5,0.1-3.4-0.9
	c-0.8-0.8-1.7-1.8-2.9-0.6c-1,1-0.5,2.2,0,3.3c1.8,3.7,7.2,4.3,10.8,1.2c1.3-1.2,2.4-2.8,3-4.5c0.6-1.7,1.6-3.2,3.7-2.1
	c1.7,0.6,2.6,2.6,2,4.3c-0.1,0.1-0.1,0.3-0.2,0.4c-0.7,1.5-1.6,2.9-2.5,4.3C312.2,571.5,312.3,575.1,315.5,579.2z"/>
<path id="XFF99FFM1Gra7Co8_2_" class="st0" d="M319.1,62.6c1.2-0.1,2.5-0.1,3.2,0.9c3,4.3,7.4,3.7,11.7,3.9c7.4,0.3,12.7,5.4,19,8.3
	c1.3,0.6,2,2.2,1.4,3.5c0,0.1-0.1,0.2-0.2,0.3c-1.4,2-2.9,0.6-4.2-0.5c-3.6-3-8.5-3.3-12.3-6.3c-2.8-2.2-7,0.7-10.5,1.5
	c-5.9,1.3-6,1.4-7-4.8c-0.4-2.6-2-2.7-4-2.2c-8.2,1.9-17,2.1-23.4,8.9c-0.9,1.1-2.5,1.3-3.6,0.4c-0.2-0.1-0.3-0.3-0.4-0.4
	c-1.2-1.5-0.3-3,1.2-3.7C299.2,67.6,308.5,63.1,319.1,62.6z"/>
<path id="XFF99FFM1Gra7Co8_1_" class="st0" d="M375.5,81.7c2.2-0.3,4.4,0.5,5.9,2.1c0.8,0.9,1.2,1.9,0.2,3.1c-3,3.6-1.8,6.6,3.2,7.8
	c7.1,1.6,14.3,3,20.9,6.5c1.1,0.5,2.1,1,3.1,1.7c3.4,2.7,3,6-1,7.5c-2.2,0.8-4.1,1.4-3.9,4.2c0.2,0.8-0.4,1.6-1.2,1.7
	c-0.1,0-0.1,0-0.2,0c-0.9,0-1.4-0.7-1.8-1.5c-1.1-2.6-1.7-5.1,0.8-7.3s1.4-3.5-1.2-4.6c-6.4-2.6-13.1-3.8-19.9-4.6
	c-2.6-0.3-4.5-0.9-4.4-4c0.1-2.4-2.3-3-3.6-4.4c-1.7-1.7-3.4-3.5-2.4-6.1S373.4,81.8,375.5,81.7z"/>
<path id="XEC2AFFM2Gra3OT32" class="st0" d="M270.7,540.9c4.6,0,7.3,2.5,6.8,6.5c0,0.8-0.4,1.6-1.1,2.1c-0.8,0.4-1.7,0.2-2.2-0.6
	c-0.9-1.2-1.5-2.9-3.4-1.8c-1.7,1-1.5,2.9-1.1,4.5c0.8,3.3,0.7,6.2-2.5,8.3c-3.1,2-5.2,1.5-6.9-1.6
	C255.9,550.7,261.7,541,270.7,540.9z"/>
<path id="XFF99FFM1Gra7Co8" class="st0" d="M371.3,74.9c-0.3,0.5-0.5,1.6-1.1,1.8c-3.1,1.4-4.6,4.2-6.6,6.6c-0.9,1.1-2,1.9-3.3,0.7
	s-0.8-2.5,0.2-3.6c2.4-2.6,5.6-4.4,7.8-7.4C369.3,71.4,370.8,72.9,371.3,74.9z"/>
</svg>
