<?xml version="1.0" encoding="utf-8"?>
<!-- Generator: Adobe Illustrator 21.0.0, SVG Export Plug-In . SVG Version: 6.00 Build 0)  -->
<svg version="1.1" id="图层_1" xmlns="http://www.w3.org/2000/svg" xmlns:xlink="http://www.w3.org/1999/xlink" x="0px" y="0px"
	 viewBox="0 0 775 751.7" style="enable-background:new 0 0 775 751.7;" xml:space="preserve">
<style type="text/css">
	.st0{fill:#FFFFFF;stroke:#000000;stroke-miterlimit:10;}
</style>
<title>Anime10_13_224</title>
<g>
	<path id="X00B7FFM2Gra4Co12_2_" class="st0" d="M315.9,444.9c-7.1,1.2-14.2-1.6-21.5-3c-3-0.6-3.4-2.8-3.5-5.2
		c-0.7-18.4-6.3-35.2-16.1-50.7c-6.8-10.7-15.5-20.1-25.7-27.7c-12.3-9.1-26.8-10.6-41.5-9.4c-29.1,2.3-49.7,17.8-64.6,42.1
		c-6.4,10.5-9.4,22.4-13.8,33.6c-2.6,6.6-6.2,10.1-14,10c-15.3-0.2-30.6-2.1-45.5-5.7c-11.7-2.7-12.6-6.1-8-17.9
		c9.4-24.3,23.5-45.3,40.8-64.6c13.7-15.1,28.2-29.3,41.8-44.4s26.9-35.1,38.1-54.2c2.3-3.9,4.5-4.4,8.5-3c24.3,8.6,49,8.7,73.7,1.8
		c3.8-1.1,5.1,0,6.7,3.4c9.5,20.9,19.6,41.5,31.8,61c12.2,19.5,28.6,37.7,39.5,58.8c6.6,12.7,13.7,25.2,17.5,39.1
		c2.1,7.7,2.8,15.7,3.1,23.7c0.1,2.2-1,3.2-2.8,4.2c-4.6,2.4-9.6,3.9-14.8,4.3C335.9,442.3,326.5,445.8,315.9,444.9z"/>
	<path id="X00B7FFM2Gra3Co12_1_" class="st0" d="M221.8,621c-27.2,0.6-51.4-3.2-74.9-11.3s-43.2-23.1-59-42.7
		c-18.2-22.6-27.3-48.8-33-76.7c-3.1-14.2-3.6-28.8-1.6-43.2c0.1-1,0.3-2,0.5-2.9c1.6-6.8,1.8-6.7,8.5-4.5
		c13.5,4.6,27.7,5.5,41.8,6.6c4.3,0.3,8.6,1.1,12.9,1.4s4.9,1.9,5,5.4c0.2,10.2,0.5,20.3,2,30.4c4.4,30,20.7,51.6,46.2,67.1
		c10.7,6.5,22.7,10.7,35.1,12.3c13.1,1.7,24.3-4.2,35.1-10.7c17.6-10.6,27.4-27.9,37.4-44.7c4.4-7.4,5-16.5,6.6-25
		c1.2-6.2,3.3-12.2,3.5-18.6c0.1-3.5,2.3-4.9,5.7-4.9c19.9-0.4,39.3-4.2,58.5-9.3c11.7-3.1,14.7-0.9,14.7,11.1
		c0.1,7.7-0.2,15.3-2,22.8c-0.5,2.8-2.3,5.2-4.8,6.5c-15.5,8.7-31,17.6-44.6,29.2c-19.1,16.3-34.1,35.4-41.6,59.8
		c-3.4,10.6-5.6,21.6-6.4,32.7c-0.2,3.8-1.8,5.7-5.7,6.2C247.7,619.5,233.7,622,221.8,621z"/>
	<path id="X66FF00M1Gra3Co17" class="st0" d="M686.4,691.6c-14.8,0.7-29.7-0.9-44-4.8c-8-2.2-9.6-5.1-5.5-12.1
		c12.5-21.7,16.4-45.1,14.5-69.8c-1.1-16-5.8-31.5-13.7-45.4c-2.2-3.8-4.2-7.6-6.2-11.4c-0.9-1.8-2.3-3.7-0.6-5.5s4.1-0.9,6,0.2
		c5.6,3,11.2,5.9,17.4,7.4c30.8,7.5,61.9,10.8,93.5,5.6c7.7-1.3,15.3-2.9,22.8-5c4.2-1.1,4.9-0.5,4.4,4c-2.2,21.6-11.1,41-20.9,59.9
		c-8.3,16.3-17.5,32.1-26.4,48.1c-1.9,3.4-1.9,5.9,1.2,8.7c6.1,5.6,5.2,10.2-2.4,14.2c-6.5,3.4-13.7,5.3-21,5.7
		C699,691.9,692.7,691.6,686.4,691.6z"/>
	<path id="XE79CFFM2Gra1OT17" class="st0" d="M602.3,224.7c23.9-0.3,47.6,7.4,68.9,22.4c8.8,6,15.2,14.8,18.2,25
		c1,3.7,0.8,7.6-0.6,11.2c-9.7,28-29.8,42.4-58.7,46.1c-12.2,1.5-24.2,2.4-36.2-0.1c-17.1-3.6-28.6-13.3-34.9-29.8
		c-4.9-12.9-5.6-26.2-4.3-39.3c1.3-13.1,5.4-25.8,19-31.8C581.9,224.6,591.1,224.5,602.3,224.7z"/>
	<path id="XFF99FFM1Gra2Co8_10_" class="st0" d="M555.5,628.5c-2.8,0.1-5.4-0.7-7.3,0.9c-3.8,3.3-6.9,2-10.7-0.3
		c-16.8-10.1-33.7-20-50.7-29.9c-1.1-0.7-2.4-1-3.6-1.7c-3.3-1.8-4.9-4.1-5.6-8.4c-1.2-7.2,1.5-11.6,5.9-16.7
		c13.5-15.7,29.6-28.2,46.6-39.6c11.3-7.6,22.1-16.1,35-21c6.3-2.4,12-2.3,18.2,2.1c16.9,12.1,31.9,26.1,43.9,43.1
		c2.6,3.9,4.8,8,6.8,12.2c2.3,4.5,1,7.7-3,10.1l-18.5,10.8c-16.9,9.9-32.8,21.6-47.3,34.8C562.1,627.6,559.3,629.8,555.5,628.5z"/>
	<path id="XCC66FFM1Gra4Co10" class="st0" d="M471.8,497.8c-19.7,0.5-39.6-3.4-57.6-15.1c-4.8-3.1-7.3-6.9-7.4-13
		c-0.5-21.5,0-42.9,0.7-64.4c0-1.2,0-2.4,1.2-3.1s2.2,0.1,3.1,0.8c11.9,9.2,25.8,12.9,40.3,14.2c25.7,2.4,50.8-0.8,75.3-8.8
		c3.9-1.3,6.2,0.5,6,5.2s-1.1,12.3-1.4,18.4c-0.7,13.1-1.4,26.3-0.8,39.4c0.2,2.3,0.2,4.7-0.1,7c-0.7,5-2.5,9-7.9,10.9
		C506.9,495.4,490.3,498,471.8,497.8z"/>
	<path id="XFF99FFM1Gra2Co8_9_" class="st0" d="M479.6,713.1c-2.1,0.2-4.3,0.1-6.3,0.8c-5.3,1.8-9.9,0.7-14.6-2.1
		c-14.7-8.8-30.1-16.4-43.8-26.7c-6.3-4.7-7.5-11-4.2-18.3s9-13.2,14.1-19.3c9.1-10.9,17.1-22.5,25-34.2c2-3,4.4-5.9,7-8.4
		c1.1-1.1,2.5-2.4,3.9-2c4.9,1.3,9.1-1.3,13.5-2.3s8.1,1.6,11.7,3.3c18.5,8.4,36.4,18,52.5,30.4c5,4.1,5.9,11.5,2,16.7
		c-13.9,17.5-28.6,34.1-44,50.3c-2.9,3-5.6,6.1-8.4,9.2S483.3,714.8,479.6,713.1z"/>
	<path id="X00B7FFM2Gra3Co12" class="st0" d="M228.7,216.3c-8.6,0.2-17.7-0.8-26.1-5.9c-5.2-3.2-8.7-7-8.4-13.5
		c0.2-3.1-0.2-6.3-0.3-9.5s1.6-6.3,5.8-6.5c1.1,0,2.3-0.1,3.4-0.4c2.1-0.8,4.9-1.1,4.6-4.3s-2.9-2.8-5-2.9s-4.7-1.2-5.4-4.2
		c-4.9-21.4-9.1-43-11.5-64.8c-0.7-6.2,0.3-7.1,6.7-7.3c8.9-0.4,17.5,2.3,26.4,1.6c19.3-1.3,38.6-1.9,57.9-1.8c1.5,0,3-0.3,4.3-1
		c4.8-2.3,7.4-0.9,7.6,4.7c0.1,4.7-0.5,9.3-1.9,13.8c-5.3,17.3-10.1,34.8-16.2,51.9c-1.7,4.6-2.1,10.7-9.8,8.7
		c-1.2-0.3-2.5,0.5-2.8,1.7c-0.5,1.5,0.4,2.6,1.5,3.3c0.8,0.5,1.7,0.9,2.7,1.1c7.7,1.6,8.1,2.4,8.4,10.3
		c0.6,14.2-9.6,20.3-23.7,23.7C240.9,216.3,234.8,216.7,228.7,216.3z"/>
	<path id="XFF99FFM1Gra2Co8_8_" class="st0" d="M373.6,559.5c2.2,0.7,4.1-0.7,6.2-1c7-1,13.2,1.3,19.1,4.5
		c13.6,7.4,26.8,15.5,41.9,19.6c4.1,1.1,5.1,3.6,5.6,7.6c1.1,7.9-0.2,14.5-5.4,20.9c-12.7,15.6-23.9,32.4-37.5,47.3
		c-1.9,2.1-3.8,3.6-6.8,3.5c-2.2-0.1-4.4,0.5-6.2,1.7c-6,3.8-11.2,1.8-16.7-1.4c-13.1-7.6-24.7-17.5-38-24.8
		c-4.1-2.2-6-6.1-5.8-10.9c0.1-2.5,0.3-5-0.6-7.4s0-4.3,1.5-6.3c11-14.2,22.3-28.1,32-43.3c1.3-2.1,2.6-4.3,3.7-6.5
		C367.7,560.8,369.2,559.1,373.6,559.5z"/>
	<path id="XFF99FFM1Gra2Co8_7_" class="st0" d="M465.5,574.9c-5-3.1-8.7,0.8-12.8,3.7s-10.8,1.2-15.6-1.2
		c-14.7-7.4-29.2-15.2-43.8-22.9c-2.6-1.4-4.1-3.3-4-6.3c0-1.3,0.1-2.9-0.5-3.9c-3.5-5.4,0-8.4,3.6-11.7c10.8-9.9,23-18.1,34.1-27.7
		c3.7-3.2,8-3.9,13-2.5c12.5,3.5,25.5,2,38.2,2.6c17.2,0.8,33.3-3.4,48.6-11c7.7-3.8,14.6-1.9,21.7,2.1c10,5.6,7,5.6,0.3,10.7
		c-9.8,7.5-20.1,14.2-29.8,21.8c-12.8,10.1-23.7,22.4-35.8,33.2L470,573C468.8,574.2,467.2,574.9,465.5,574.9z"/>
	<path id="X1100AAM2Gra3OT6" class="st0" d="M209.4,671.5c-23.8-1.2-43.8-3.8-63.5-9.2c-8.5-2.4-17.1-4.3-25.4-7.3
		c-8-3.1-14.8-8.7-19.4-15.9c-4.2-6.3-0.7-14.1,7.1-18s13.2-4.5,20.1-5.6c3.3-0.5,6.6-0.7,9.8-1.8c1.6-0.6,3.3-0.6,4.9,0.1
		c24.2,10.8,50.3,12,76.1,14.2c12.6,1.1,24.9-1.1,37.2-3.3c15.4-2.7,16.9-1.9,19.8,13.5c1,5.4,2.6,10.6,2.9,16.2s-1.4,6.2-5.2,7.8
		c-10.6,4.4-22.1,6.6-33.6,6.5C228.7,668.7,217.6,672.9,209.4,671.5z"/>
	<path id="X66FF00M1Gra4Co17" class="st0" d="M730.5,552.4c-20.9-1.3-41.6-3.8-62.2-7.5c-8.8-1.6-17.8-2.4-26.2-5.7
		c-4.8-1.8-9.2-4.7-12.9-8.3c-2-2.1-2.8-4.4-1-7.2c7.8-12.2,17.3-22.4,31.2-27.6c8.8-3.3,17.4-6.9,27.5-3.2
		c6.4,2.2,13.3,2.2,19.7,0.2c4.2-1.2,7.9,0.4,11.6,1.8c17.4,6.6,32.7,16.4,44.5,30.9c3.1,3.9,7.1,6.9,9.8,11.2s1.2,5.4-2.1,7.1
		c-5.6,2.9-11.7,4.9-17.9,6C745,551.4,737.3,551.7,730.5,552.4z"/>
	<path id="XFF99FFM1Gra2Co8_6_" class="st0" d="M512.9,749.9c-4.9-0.2-8.9-1.3-11.8-5.1s-5.9-7.2-9-10.7c-1.4-1.5-2-3.5-1.6-5.5
		c0.1-0.7,0.6-1.4,0.4-1.9c-2.9-7.2,2.7-10,6.8-13.7c11-10.1,21.3-21,30.8-32.6c6.5-7.8,13.1-15.5,19.6-23.3c2-2.4,4.2-2.7,7.1-2.4
		c7.6,0.9,12.8,5.6,17.1,11.2c8.7,11.3,17.9,22.3,23.1,36c1.6,4.3,1.5,7.5-1.7,10.9c-8.1,8.2-17.4,15-27.7,20.2
		c-15.9,8.2-32.6,14.2-50.4,16.8L512.9,749.9z"/>
	<path id="XFF99FFM1Gra2Co8_5_" class="st0" d="M644.9,615.2c0.3,26.9-5.8,48.6-20,67.8c-5.3,7.1-11.8,13.2-19.2,18
		c-2.6,1.7-3.8,1-5.1-1.2c-6.3-11-13.4-21.5-21.2-31.4c-3.9-4.8-7.8-9.6-11.9-14.2c-2.2-2.5-3.4-4.8-1.7-8c0.7-1.1,1-2.5,0.9-3.8
		c-1.9-8.8,4.5-13.1,9.9-17.6c16.2-13.6,33.4-25.8,51.7-36.5c10.5-6,11.7-5.3,14.2,6.5C644.1,602.6,645.3,610.4,644.9,615.2z"/>
	<path id="XFF99FFM1Gra2Co8_4_" class="st0" d="M362.6,540.9c0,2.6-0.6,4.4,0.1,5.5c3.3,5.7,0,9.6-3,13.9
		c-10.8,15.8-22.8,30.7-32.5,47.3c-2.1,3.5-4.9,6.3-9.7,5.8c-1.3-0.2-2.7,0-3.9,0.6c-5.8,3.7-10,0.3-13.6-3.4
		c-5.3-5.4-10.5-10.7-16.4-15.3s-5.6-12.6-3.3-19.5c8.7-25.5,25.3-45,47.2-60.1c1.8-1.2,3.7-2.3,5.4-3.7c3.3-2.7,6.7-2.4,8.6,0.9
		c4.5,7.9,11.9,12.9,17.6,19.6C361.6,535.4,363.2,538.2,362.6,540.9z"/>
	<path id="XFF99FFM1Color9_1_" class="st0" d="M445.5,361.5c0.2-3.6,0.6-7.3,0.7-11s1.4-7.1,5.5-9.1s3.5-5.7-0.5-6.9
		s-5.3-4.2-5.8-8.1c-2.3-19.8,0.1-39.6,0.9-59.4c0.2-3.9,9.9-12.5,13.8-12.1c6.2,0.6,12.3,0.2,18.5,0.2c3.3,0,5.8,0.9,7.8,3.6
		c4.4,5.9,7.8,11.8,6.5,20s0.5,13.9,0.7,20.9c0.2,10.3,0,20.6-2,30.9c-0.7,3.6-1.8,6.2-5.4,7.6s-4,3.6-0.4,5.5s3.2,3.6,3.3,6.2
		c0.3,7.6-1.2,15-3.1,22.2c-1.2,4.5-5.5,6.4-9.4,7.4c-8.9,2.4-18.3,1.2-26.3-3.3c-3-1.7-4.8-3.9-4.4-7.6s0-4.7,0-7H445.5z"/>
	<path id="XFF99FFM1Gra2Co8_3_" class="st0" d="M338.3,716.7c-2.3-0.8-4.5-1.7-6.7-2.7c-19.2-10.3-33.2-25.8-43.2-44.9
		c-1.6-3.1-1.9-7-2.5-10.6s1.9-4.1,3.8-5.3c4.8-3.2,9.8-7.2,14.8-8.9c6.9-2.3,14.9-1.6,22.4-2.2c3.6-0.3,7.3,3.6,10.4,6.5
		c7.1,6.5,15.3,11.1,23.9,15.2c3.5,1.8,6.9,3.9,10.2,6.2c2.5,1.6,4.2,3.8,3.9,7.1c-0.1,0.7-0.1,1.4,0.2,2c4.5,6.1,0.2,10.1-3.4,14.2
		c-8.2,9.4-17.6,17.2-28.9,22.6C341.7,716.7,340,717,338.3,716.7z"/>
	<path id="X6666FFM1Gra1Co13_2_" class="st0" d="M165.8,243c-28.5-0.1-54.4-8.6-77.7-24.8c-8.7-6-16-13.5-20.7-23.2
		c-8.2-16.7-3.3-36.6,15.8-43.1c10.3-3.6,21.3-4.4,32-2.3c23.7,4.6,42.8,16.4,57,35.7c6.2,8.5,8.9,18.5,10.5,28.8
		c0.3,1.9,0,3.8-2,4.7s-3.5-0.3-4.4-2.1c-6.3-11.6-14.8-21.6-24.4-30.6c-15.9-14.8-34.6-20-55.8-15.6c-6.6,1.4-10.1,7-8.4,13.6
		c3.5,13.7,11.3,24.5,23.7,31.4s28.2,14.3,43.8,17.7c4.9,1.1,9.8,1.8,14.7,2.7c2.2,0.4,4.7,0.6,4.6,3.5s-2.7,3-4.8,3.4
		C168.4,242.9,167.1,243,165.8,243z"/>
	<path id="XFF99FFM1Gra2Co8_2_" class="st0" d="M439.1,747.8c-22.2-0.8-43.4-6.2-63.9-14.7c-7.5-3.1-15.1-6-22.5-9.6
		c-3.4-1.7-3.5-3.8-0.7-5.4c10.9-6.1,19.5-14.9,29.3-22.3c3.7-2.8,7.8-5.1,12.9-2.3c2.2,1.2,4.5,0,6.6-1.3c3.8-2.5,7.5-2.4,11.7-0.3
		c11.5,5.8,21.9,13.4,32.5,20.5c4.2,2.8,8.2,5.7,12.5,8.3c2.5,1.5,5.5,2.5,5.9,6.7c1.1,10.4-7.3,19.9-18.9,20.5L439.1,747.8z"/>
	<path id="XA8FF00M1Gra3OT22_1_" class="st0" d="M694.1,445.9c-11.9-0.4-25.3-8-33.6-24.4c-4.4-8.6-1.9-16,3.2-22.8
		c9.9-13.1,23.6-17.9,39.5-16.6c8.7,0.6,17,3.8,23.8,9.2c10.3,8.2,14.8,21.5,7,35.1S715.4,446.2,694.1,445.9z"/>
	<path id="X9966FFM1Gra7Co11_2_" class="st0" d="M373.3,184c0.2,19.9-9.5,33.1-24.3,43.2s-32.1,13.1-50,12.1
		c-5.1-0.3-10.3-1-15.4-1.4c-2.2-0.2-4.3-0.7-6.2-1.7c-3.6-1.7-3.8-4.5-0.5-6.8c3.5-2.4,7.6-3.5,11.8-3.3c8.6,0.2,17.3,1,25.8-1.1
		c10.8-2.8,21.3-6.2,27.7-16.1c3.6-5.6,4.6-12,1.7-18.1s-8.6-7-14.4-7.4c-5.5-0.3-11.1,1-15.9,3.7c-11.6,6.5-23.5,12.6-33.5,21.6
		c-1.4,1.3-3.1,2.6-4.8,1.1c-1.7-1.5-0.3-3.4,0.6-4.9c13.6-21.7,31.3-38.5,57-44.6c8.1-1.9,16.5-2.9,24.5,0.8
		C367.5,165.8,374.4,172.8,373.3,184z"/>
	<path id="X9966FFM1Gra7Co11_1_" class="st0" d="M338.6,261c-16.6,1-33.2-1.1-49-6.1c-2.4-0.8-4.7-1.8-6.9-2.9
		c-2.3-1.1-4.9-2.3-3.8-5.5s4.1-2.7,6.4-2c10,3.4,20.4,3.2,30.6,3.1c16.4-0.1,32.5-2.5,47.7-9.1c9-3.9,16.8-9.4,22.7-17.4
		c7.3-9.9,5.8-25.2-3.4-33.2c-2.3-2-3.5-5-3.4-8c0-0.7,0.1-1.4,0.3-2c0.8-2.5-1.9-5.9,0.8-7.5c2.7-1.6,7-0.8,10.2,0.4
		c13.6,5.2,24,13.8,27.4,28.6s-0.7,29.9-13.3,40.9c-15.5,13.5-34,19-54.1,20.4C346,261.3,341.2,261,338.6,261z"/>
	<path id="X660099M1Color14" class="st0" d="M468.2,413.3c-17.1-1.2-34.4-2.7-49.2-13.3c-2.8-2-5.5-4.2-8.1-6.6
		c-2.8-2.5-2.8-5.6,0.3-7.6c10.7-6.8,22.2-11.1,34.8-6.2c10.1,3.9,19.9,7.8,30.9,4.4c2.3-0.5,4.5-1.4,6.5-2.6
		c6.8-4.6,13.6-4.6,20.8-1.2l22.1,10.5c1.5,0.8,2.9,1.7,4.1,2.8c2.8,2.4,2.7,4.6-0.4,6.9c-3.3,2.3-6.9,4-10.8,5
		C502.5,409.9,485.4,412.5,468.2,413.3z"/>
	<path id="XFF00FFM1Gra6Co9_5_" class="st0" d="M378,531.5c0.8,1.6,2,1.3,2.9,1.8c4.1,1.8,6.7,5.9,6.4,10.4
		c-0.1,4.5-5.1,9.7-9.6,10.3s-7.9-2.1-9.9-6.1s-0.6-8.8,3.1-12.1c1.1-1,3-1.7,2.7-3.3s-2.5-1.1-3.8-1.5c-5.9-1.8-9.7-6.4-13.6-10.5
		c-3.3-3.3-6.2-6.9-8.6-10.9c-1.9-3.2-1.5-5.6,1.2-7.8c6.1-5.1,13.4-8.1,20.6-10.9c9.6-3.7,19.7-6,30-6.9c3-0.3,5.5-0.2,7.9,1.9
		s6.2,3,9.5,4.2s5.4,2.4,6,5.4s-1.8,5-4,6.3C404,510.1,392.8,523.1,378,531.5z"/>
	<path id="XD40011M2Gra3OT2" class="st0" d="M181.4,384.7c0.5-9.8,2.4-18.9,11.3-24.8c4.3-2.9,8.6-3.6,13-0.4s7.5,2.6,11.8,1.4
		c9.8-2.7,15.1-0.2,19.3,8.4c1.4,2.9,1.6,5.6-1.2,7.5c-16.5,11.2-19.1,28.7-21.3,46.4c-0.6,4.6-2,5.3-6.6,5.2c-6.6,0-9.9-3.4-13-8.2
		C187.8,409.4,181.8,398.1,181.4,384.7z"/>
	<path id="XD40011M2Gra4OT2_2_" class="st0" d="M231.4,532.3c-0.1,6.7-1.2,12.8-6.1,18c-3.3,3.4-6.8,4.1-10.8,2.3
		c-6.9-3-13.7-5.1-21.6-4.1c-7.9,1-15.1-7.3-14.6-15.4c0.1-2,1.2-3.9,2.8-5.1c11.4-9.2,15.9-22.1,19.1-35.8c0.3-2,0.7-3.9,1.3-5.8
		c1.6-4,6.6-5.2,9.2-1.8C221.8,498.7,230,514.1,231.4,532.3z"/>
	<path id="X6666FFM1Gra1Co13_1_" class="st0" d="M108.4,260.9c15.5,0.7,29.8-4.3,44-9.6c2.2-0.8,4.4-1.5,6.6-2.2s2.8-0.8,3.7,0.6
		s-0.2,2.8-1.2,3.9c-3.6,4.3-8.6,7-13.5,9.4c-9.8,4.6-19.9,8.5-30.3,11.5c-4,1.2-8.2,1.6-12.4,1.3c-17.8-1.3-34.7-5.5-47.4-19.2
		c-14.8-16-11-35.5,4.8-49.1c2.1-1.8,3.8-1.5,5.5,0.6c1.7,2.1,4.3,5.1,6.3,7.8c2.2,2.8,2.8,6.5,1.5,9.8
		c-6.4,17.8,4.1,33.5,23.4,35.2C102.4,261.1,105.4,260.9,108.4,260.9z"/>
	<path id="XD40011M2Gra4OT2_1_" class="st0" d="M196.7,488.1c-0.4,17.4-13.7,36.5-27.9,40.6c-11.5,3.4-18.7-1.4-19.5-13.1
		c-0.3-5.1-3.3-8.3-6.6-11.3c-5-4.5-5.9-9.6-3.2-15.8c1.2-2.9,2.8-4.1,5.9-4.4c8.3-0.6,16.5-1.7,24.5-4.6c4.9-1.8,9.6-3.9,13.3-7.5
		s4.1-2.3,6.1,0.5C192.7,477.4,197.3,481.6,196.7,488.1z"/>
	<path id="X2800BFM2Gra3OT5" class="st0" d="M241,65.1c-3.2-0.2-6.3-0.7-9.3-1.7c-4.7-1.4-6.8-3.8-5.5-8.8c0.7-2.8-0.3-4.9-3.2-5.9
		l-2.7-1.2c-7.3-3.8-7.6-4.7-3.2-11.5c4.4-6.8,7.6-18.1,13.6-26.1c1.7-2.4,3.6-4.8,5.6-7c3.5-3.8,7.2-3.8,11.5-0.8s6.8,8.1,9.4,12.7
		c3.9,6.8,7.5,13.7,9.7,21.3s0.8,10.8-6.3,13.3c-4.5,1.5-7,3.5-7,8.7S247.7,65.2,241,65.1z"/>
	<path id="XD40011M2Gra1OT2_1_" class="st0" d="M177.2,383.4c1.1,15.5,6.7,29.3,15.4,42c3.7,5.4,3.7,5.8-1.5,9.4
		c-2.4,1.6-4.2,3.9-5.1,6.6c-1,3.4-3.1,4.2-6,3.2c-12.5-4.3-24.5-9.5-33.2-20c-7.3-8.8-6.6-18.4,2.5-25.1c4.5-3.1,7.9-7.5,10-12.5
		c1.3-3.6,3.8-6.7,7-8.8c2.8-1.7,6-3.7,9.3-2S176.8,380.9,177.2,383.4z"/>
	<path id="XD40011M2Gra2OT2_1_" class="st0" d="M218.9,421.6c-0.1-12.6,3.5-23.9,11.8-33.6c4.6-5.6,11.5-8.8,18.8-8.6
		c3.7,0,6.6,1.4,7.5,5.2c1.9,7.8,6.1,14.1,11,20.4c7.5,9.5,2.5,21.7-9.5,22.6c-8.8,0.7-17,2.4-24.7,6.8s-16.4,0.5-14.9-10.3
		C219,423.3,218.9,422.4,218.9,421.6z"/>
	<path id="X00B7FFM2Gra4Co12_1_" class="st0" d="M227.4,247c-11.4,1-22.8-1.8-33.9-6.2c-4.1-1.6-5.5-4-4-8.5s3-10.9,4.3-16.4
		c0.7-3,2-4,5-2.4c12.1,7,26.4,9.1,40,6c6.3-1.4,12.8-1.7,19-3.7c3.8-1.2,6.3-0.5,7.5,4.3s2.3,9.7,3.6,14.5c1.3,4.8,0,5.6-3.7,6.7
		C253.1,245.1,240.9,247.7,227.4,247z"/>
	<path id="X9966FFM1Gra8Co11" class="st0" d="M13.9,349.3c-2.2-0.1-3.1-2.1-2.8-4.1c0.7-6.4-2.3-9.8-7.9-12.2s-4.1-3.5-0.4-6.8
		c16.5-14.5,36.4-19.5,57.5-22.2s41.4-6.8,61-14.5c9.2-3.6,17.2-9.3,24.8-15.5c1.3-1.1,2.9-3.1,4.7-1.3c1.8,1.8,0.3,3.7-1,5.3
		c-6.6,7.9-15.4,12.4-24.6,16.6c-17.3,8-35.4,13.4-53.7,18.3c-13,3.5-23.8,10.8-34.8,18c-7.2,4.7-14.7,9.2-19.5,16.7
		C16.4,348.7,15.2,349.3,13.9,349.3z"/>
	<path id="XD40011M2Gra4OT2" class="st0" d="M268.6,505.7c0.5,4.6-2.3,7.2-5.8,9s-7.2,5.6-9.8,9.6c-1.3,2.1-3,4-4.9,5.6
		c-4.9,4.1-10.7,2.6-12.4-3.5c-4.1-14-9.4-27.3-17.5-39.4c-2.3-3.4-2.7-7.1,0.1-10.2s5-8.4,11.9-6.6c15.4,4,28.3,11,36.1,25.4
		C267.9,498.7,268.3,502.2,268.6,505.7z"/>
	<path id="X00B7FFM2Gra4Co12" class="st0" d="M240.3,92.6c-15.1,1.1-30.3,0.8-45.3-0.8c-1.6-0.2-3.7,0.2-4.4-1.7
		c-0.7-1.9,1.2-2.8,2.2-4.1c5.1-6.2,11.1-11.5,17.8-15.9c5.1-3.5,10.5-4.8,16.5-2.8c5.9,2,12.2,2.3,18.2,0.8
		c9.5-2.3,17.7,0.2,25.2,6.1c4.2,3.3,8.5,6.4,12.5,9.9s3.2,5.2-1.4,7.2c-2.3,0.9-4.8,1.4-7.3,1.3H240.3z"/>
	<path id="XD40011M2Gra2OT2" class="st0" d="M258,432.2c7.5-0.1,13.5,2.8,18.3,8.6c2.4,2.9,2.9,5.8,1.2,9.2
		c-3,6.1-4.6,12.1-2.4,19.2c1.4,4.6-2.2,7.9-5.9,10.7s-6.1,2.7-9.6,0.5c-7.3-4.5-14.5-9-23.4-10.7c-5.3-1-10.1-4.8-8.8-13
		c0.2-0.8,0.2-1.7,0.1-2.5c-1.8-9.9,3.3-15.2,12.1-18.3C245.5,433.7,251.7,432.5,258,432.2z"/>
	<path id="X9966FFM1Gra2Co11" class="st0" d="M294.4,267.8c10.3,1.3,18.3,5.8,25.5,12.1c7.2,6.3,15.4,15.2,23.3,22.6
		c10.4,9.8,21.9,17.9,36,21.5c3.4,0.8,6.9,1.3,10.4,1.3c5.6,0.2,6.6,2,4.8,7.2c-1.8,5.2-4.3,9-4.5,14.2c-0.1,3.2-2.2,2.6-4.3,2
		c-11.3-3-20.8-9.5-30-16.4c-13.4-10.1-23.4-23.6-34.9-35.6c-7.2-7.4-14.1-15-23.3-20.2c-1.5-1-3-2.1-4.3-3.4
		c-1.2-1-2.4-2.1-1.6-3.8C292.1,268.3,293.2,267.7,294.4,267.8z"/>
	<path id="XD40011M2Gra1OT2" class="st0" d="M149.9,479.3c-15.3,0.2-22-10.3-15.2-24.2c1.4-2.9,1.9-5.2,0.6-8.4
		c-2-5.2-1.1-10.4,1.7-15.3c1.6-2.7,3.4-3,5.6-0.9c10.3,9.7,22.8,15.4,36.2,19c5.7,1.5,6.9,5.6,8,10.1s-2,5.9-4.8,7.8
		C172.4,474.1,162,479.1,149.9,479.3z"/>
	<path id="XE51F1FM1Gra6OT28" class="st0" d="M657.9,491.1c-11.1,0.2-13.8-2.1-14.8-10.6c-0.3-2.8-1.9-4.9-3.6-6.9
		c-5.1-6.1-6.7-12.8-3-20.3s11.9-10.9,19.8-5.6s11.9,10,17.1,15.8c2.2,2.3,3,5.6,2.2,8.7c-0.8,3.6-1.6,7.1-0.8,10.8s-1.1,3.6-3,4.5
		C667.5,489.7,662.7,490.9,657.9,491.1z"/>
	<path id="XE51F1FM1Gra5OT28" class="st0" d="M734.5,497.9c-6.7-0.7-13.2-4.9-19.3-10c-0.4-0.3-0.7-0.7-0.9-1.2
		c-2.2-4.6,1-18.5,5.1-21.5c6.4-4.9,13.6-8.5,21.3-10.7c4.3-1.2,8.5-1.2,12.2,2.2s5.6,8.1,1.3,13.2s-7,10.9-6.9,18.1
		S742.5,498.1,734.5,497.9z"/>
	<path id="X8D05DDM2Gra8Co8" class="st0" d="M551.2,277.3c-0.2,7-0.4,14.1,2.7,20.9c0.9,2.1,1,4.7-1.3,6.4s-4.5,1-6.5-0.4
		c-1.7-1.1-3.2-2.4-4.4-4c-4.8-7-11.9-9.1-19.9-9.6l-19.4-1.2c-3.6-0.2-6.8-1.2-6.9-5.5c-0.2-7.2,1.6-10,7-10.6s9.6,0.5,14.3,1.4
		c8,1.6,14.3,0.5,18.7-7.4c2-4,6.1-6.5,10.6-6.4c2.7,0,4,1.1,4.2,3.8C550.6,268.8,550.9,272.9,551.2,277.3z"/>
	<path id="X6666FFM1Gra1Co13" class="st0" d="M113.6,189.3c23.8,0.4,41.8,11.2,54.6,31c0.8,1.3,1.7,2.7,0.4,4s-2.4,0.3-3.6-0.4
		l-12.8-7.8c-7.2-4.5-15.3-7.5-23.7-8.8c-6.4-0.9-12.8-2.2-19.1-3.4c-3.1-0.6-8.7-7.5-8.6-10.7s2.1-3.8,4.3-4
		S110.7,189.3,113.6,189.3z"/>
	<path id="XEC2AFFM2Gra1OT31" class="st0" d="M222.1,452.4c-0.3,7.4-1.6,13.9-6.4,19.1c-4.8,5.2-12.9,5.3-17.9-0.3
		s-5.9-23.9,0.5-30.8c3.9-4.3,8.5-5.2,14-3.9s7.8,5.3,9.1,10.2C221.8,448.6,222,450.5,222.1,452.4z"/>
	<path id="XFF99FFM1Gra2Co8_1_" class="st0" d="M276.2,612.4c1-3.4-1.5-8.2,1.5-9.5s5.6,3.2,8.3,5.3s4.5,5,7.2,6.8
		c6.1,4.1,7.6,10.6,9.4,16.9c0.3,1.1,0.4,2-0.6,2.7c-4.3,3.1-7.9,7.1-12.9,9.2s-6,0.9-7.5-2.9C277.8,631.6,277.4,621.8,276.2,612.4z
		"/>
	<path id="X9966FFM1Gra7Co11" class="st0" d="M329.6,189.3c3.5-0.4,5.8,2.5,7.8,5.2s-0.4,3.5-2.3,4.4l-35.8,16.3
		c-3.2,1.4-5.9,3.7-9.5,4.4c-1.8,0.3-3.4,0-4.4-1.6s0.1-2.9,1.3-3.9c9.9-7.8,18.5-17.3,30.5-22.2
		C321.2,190.4,325.4,189.5,329.6,189.3z"/>
	<path id="XFF99FFM1Color9" class="st0" d="M473.5,251.3c-3.4-0.4-7.2-0.8-10.3-3.5s-4.3-5.9-2.8-9.8c2.7-7.2,6.9-13.6,11-20
		c1.3-2.1,2.5-1.7,3.8,0c4.9,6.3,8.3,13.7,9.9,21.5C486.6,246.2,481.4,251.4,473.5,251.3z"/>
	<path id="XE51F1FM1Gra4OT28" class="st0" d="M691.4,468l10.2,1c4.7,0.6,8,2.6,8.5,8s-1.1,9.5-5.9,12c-8.5,4.6-20.9,1-24.1-7
		c-1.9-4.8-0.2-9.1,2.2-12.7S688.6,469.3,691.4,468z"/>
	<path id="XFF00FFM1Gra6Co9_4_" class="st0" d="M464.9,598.7c-8,0.3-12.1-7.9-12.3-13.1c-0.2-5.2,6.5-9.8,11.6-9.7s12,6.8,11.8,13.1
		S470.8,598.9,464.9,598.7z"/>
	<path id="XFF00FFM1Gra6Co9_3_" class="st0" d="M393.4,666.4c7.1,0.2,12,6,11.7,13.5c-0.2,4.9-4.7,9.2-9.5,9.2
		c-6.4-0.1-12.6-6.3-12.6-12.6S388.2,666.2,393.4,666.4z"/>
	<path id="XA8FF00M1Gra3OT22" class="st0" d="M694.4,464.7c-2.3-0.2-4.6-0.5-6.8-1c-5.4-1.4-8.1-8.8-5-13.4c0.9-1.5,2.8-2.1,4.4-1.4
		c5.4,1.6,10.8,1.5,16.3,1.2c2.3-0.1,4.6,0.1,5.4,2.5s2.2,6.4,0.7,9.7c-0.5,1.2-1.8,1.4-3,1.5L694.4,464.7z"/>
	<path id="XFF00FFM1Gra6Co9_2_" class="st0" d="M564.8,640.8c0,6.2-3.8,10.9-8.7,10.8s-9.7-5.7-9.6-12.4c0.1-6.7,3.6-9,8.6-9.1
		S564.9,634.1,564.8,640.8z"/>
	<path id="XFF00FFM1Gra6Co9_1_" class="st0" d="M315.9,619.9c5.7-0.1,10.2,4.6,10.1,10.8c0,4.2-4,7.9-8.6,8s-10.7-5.5-10.7-11.7
		C306.7,622.9,310.5,620,315.9,619.9z"/>
	<path id="XFF00FFM1Gra6Co9" class="st0" d="M486.9,728.2c0.1,5-2.6,7.8-7.5,7.8c-6.6,0-10.9-3.7-11.1-9.6s3.4-9.1,8.8-9.1
		C482.5,717.3,486.8,721.7,486.9,728.2z"/>
	<path id="XFF99FFM1Gra2Co8" class="st0" d="M479.9,751.3c-5.7,0.8-9.8,0.1-13.7-2.2c-1.9-1.1-2.7-2.3-0.8-4.3
		c4.1-4.3,10.1-5.5,15.2-2.9c3.2,1.7,8.9,2.5,8.1,6.6S482.1,750.5,479.9,751.3z"/>
</g>
</svg>
