<?xml version="1.0" standalone="no"?>
<!DOCTYPE svg PUBLIC "-//W3C//DTD SVG 20010904//EN"
 "http://www.w3.org/TR/2001/REC-SVG-20010904/DTD/svg10.dtd">
<svg version="1.0" xmlns="http://www.w3.org/2000/svg"
 width="1024.000000pt" height="1024.000000pt" viewBox="0 0 1024.000000 1024.000000"
 preserveAspectRatio="xMidYMid meet">
<metadata>
Created by potrace 1.14, written by Peter Selinger 2001-2017
</metadata>
<g transform="translate(0.000000,1024.000000) scale(0.100000,-0.100000)"
fill="#000000" stroke="none">
<path d="M4795 9949 c-623 -53 -1247 -270 -1765 -615 -902 -600 -1482 -1529
-1621 -2594 -88 -676 32 -1415 332 -2039 l69 -144 -15 -44 c-34 -98 -11 -254
45 -308 l30 -29 0 -572 0 -572 -34 -21 c-59 -37 -85 -131 -51 -191 9 -17 12
-43 8 -86 -6 -69 9 -110 56 -145 27 -20 28 -24 18 -52 -5 -17 -52 -92 -102
-167 -117 -173 -130 -216 -121 -386 3 -66 7 -178 9 -249 2 -129 3 -132 40
-207 26 -54 47 -83 71 -97 23 -15 36 -33 45 -63 41 -137 147 -257 391 -443
128 -98 178 -146 216 -211 11 -18 12 -18 32 -1 53 48 94 210 95 372 0 143 -23
229 -110 398 l-66 128 22 23 c70 74 67 329 -4 450 -14 24 -34 51 -45 61 -13
12 -20 31 -20 55 0 56 -35 161 -70 209 -17 23 -52 56 -77 74 -26 18 -62 45
-80 61 l-34 29 32 33 c25 25 33 44 37 82 2 28 -1 59 -8 71 -9 18 -9 26 3 39 8
9 21 36 27 59 12 38 11 46 -11 90 -20 40 -34 53 -81 77 l-58 28 0 558 c0 501
2 558 16 564 22 9 26 5 87 -82 202 -288 457 -549 740 -756 102 -75 107 -81
107 -115 0 -41 28 -109 53 -130 15 -12 17 -43 17 -262 l0 -248 -32 -17 c-97
-49 -134 -137 -89 -210 16 -26 17 -37 8 -70 -16 -61 -2 -109 45 -155 l41 -39
-25 -48 c-13 -26 -52 -85 -85 -132 -120 -169 -140 -233 -128 -400 5 -58 7
-150 6 -205 -2 -114 9 -177 45 -250 27 -54 71 -105 89 -105 6 0 19 -26 29 -57
42 -135 151 -255 403 -446 113 -86 149 -120 175 -162 18 -30 36 -55 40 -55 4
0 18 15 32 33 54 71 93 260 83 401 -9 118 -40 215 -113 355 l-64 123 25 30
c34 40 48 98 48 198 0 113 -24 201 -73 273 -22 32 -40 67 -40 77 0 36 -47 176
-73 217 -16 26 -56 62 -102 93 -42 28 -79 58 -82 66 -3 8 11 32 32 55 37 42
37 42 32 112 -3 48 0 81 10 107 27 69 -7 149 -78 186 l-29 15 0 239 c0 198 2
240 14 240 8 0 24 9 37 19 l24 19 110 -58 c109 -58 324 -153 463 -205 67 -25
72 -29 72 -56 0 -38 25 -97 52 -127 25 -25 104 -52 157 -52 19 0 54 -9 78 -21
38 -19 42 -24 37 -47 -33 -139 -235 -322 -383 -347 -34 -6 -41 -11 -41 -29 0
-31 38 -86 80 -114 112 -75 287 -66 427 24 29 19 53 31 53 27 0 -14 -65 -121
-105 -173 -62 -81 -162 -171 -228 -205 -31 -17 -57 -34 -57 -39 0 -5 16 -24
35 -42 67 -63 202 -81 340 -44 39 10 72 16 74 14 7 -7 -107 -118 -169 -165
-36 -27 -97 -65 -137 -84 -39 -19 -75 -40 -79 -46 -3 -6 8 -26 26 -44 68 -70
200 -111 310 -95 67 10 203 54 249 81 18 11 35 18 37 16 8 -8 -29 -120 -65
-193 -46 -92 -118 -171 -198 -216 -65 -37 -70 -44 -46 -70 61 -67 180 -82 270
-34 28 16 55 26 61 22 14 -9 77 12 107 36 42 33 96 58 125 58 63 0 144 42 173
89 15 25 16 25 22 6 21 -63 29 -76 53 -82 30 -7 70 12 86 42 6 11 12 22 13 24
1 2 18 -10 37 -27 33 -29 89 -52 128 -52 24 0 68 -21 101 -47 15 -12 47 -27
70 -33 23 -6 62 -20 87 -32 63 -29 117 -38 171 -27 48 10 119 61 119 85 0 7
-23 25 -51 39 -111 57 -186 155 -239 312 -35 107 -38 128 -12 118 9 -4 28 -10
42 -13 14 -3 47 -20 74 -39 104 -72 264 -84 381 -30 62 29 125 81 125 104 0 7
-25 24 -55 38 -75 36 -163 104 -219 169 -25 30 -46 57 -46 59 0 3 15 1 32 -4
51 -14 169 -11 220 7 50 17 128 77 128 100 0 7 -17 21 -37 29 -115 48 -272
237 -348 419 l-16 39 40 -35 c86 -73 246 -128 330 -113 116 20 201 77 201 134
0 26 -4 29 -53 40 -156 35 -366 237 -367 352 0 22 7 29 43 42 23 8 68 17 99
20 110 10 178 77 178 173 l0 40 148 59 c81 32 220 95 309 140 131 66 165 80
174 69 6 -7 26 -18 45 -24 l34 -12 0 -229 0 -228 -32 -17 c-102 -51 -136 -153
-78 -227 16 -20 18 -30 10 -52 -20 -51 -12 -102 20 -138 17 -19 30 -40 30 -46
0 -6 -35 -35 -78 -66 -44 -30 -91 -72 -105 -92 -31 -44 -63 -132 -73 -200 -4
-28 -20 -65 -39 -92 -55 -79 -76 -157 -77 -280 0 -104 15 -165 49 -198 l25
-26 -71 -141 c-75 -150 -96 -216 -107 -337 -13 -145 30 -345 87 -411 28 -31
30 -32 42 -14 7 10 23 36 37 56 14 21 81 82 150 136 292 226 371 313 416 457
10 31 23 57 29 57 13 0 54 43 76 80 52 85 58 138 63 530 1 144 -11 180 -119
340 -50 74 -96 148 -103 164 -12 27 -11 30 27 65 45 42 59 90 44 155 -7 34 -6
47 9 71 43 71 3 174 -79 206 l-23 9 0 257 c0 255 0 259 25 307 15 29 25 67 25
90 0 41 1 42 128 137 279 212 578 517 743 760 22 33 44 59 49 59 6 0 10 -211
10 -568 l0 -569 -41 -18 c-48 -22 -75 -54 -89 -105 -11 -40 1 -91 27 -122 11
-12 12 -21 4 -37 -14 -26 -14 -96 0 -124 6 -12 23 -31 36 -42 l25 -21 -34 -29
c-19 -17 -55 -44 -81 -62 -25 -18 -60 -51 -77 -74 -35 -48 -70 -153 -70 -209
0 -24 -7 -43 -20 -55 -11 -10 -31 -37 -45 -61 -71 -122 -74 -376 -4 -450 l23
-24 -61 -118 c-104 -199 -133 -331 -112 -504 18 -146 69 -283 107 -283 6 0 27
22 44 50 23 34 79 85 188 169 253 196 350 307 391 443 8 30 22 48 45 62 23 14
43 42 70 97 39 78 39 78 43 223 2 81 5 207 5 281 1 133 0 137 -31 200 -18 36
-60 103 -94 150 -67 93 -99 150 -99 176 0 9 11 25 25 36 43 34 58 74 52 142
-4 43 -1 68 10 90 20 38 13 114 -13 149 -10 14 -36 35 -56 47 l-38 21 0 560 0
560 30 26 c68 57 96 179 70 303 l-13 59 62 125 c399 814 479 1751 224 2631
-134 465 -387 937 -704 1316 -644 767 -1573 1246 -2582 1328 -147 13 -485 12
-632 0z m596 -39 c565 -44 1092 -202 1564 -469 1389 -786 2102 -2334 1790
-3887 -58 -287 -149 -555 -283 -837 l-56 -118 -43 50 c-29 33 -61 56 -97 72
l-55 22 43 86 c24 47 51 107 61 134 16 43 20 47 52 47 66 0 139 44 169 102 21
41 18 114 -8 159 -12 22 -24 39 -27 39 -3 1 -17 9 -29 20 l-24 20 36 150 c73
302 102 576 93 872 l-6 197 30 6 c17 4 47 23 68 43 69 66 75 160 15 232 -31
37 -52 49 -112 64 l-46 11 -22 105 c-64 309 -204 661 -374 940 -45 75 -50 87
-39 105 71 111 63 189 -24 259 -36 28 -45 31 -114 31 l-76 1 -66 79 c-205 250
-507 514 -785 689 l-88 54 -1 69 c-2 54 -7 75 -26 102 -59 82 -198 93 -276 22
-20 -18 -22 -18 -110 21 -347 154 -669 236 -1117 283 -40 5 -58 11 -58 20 0
20 -57 83 -91 101 -33 17 -106 18 -146 3 -34 -12 -80 -55 -98 -89 -13 -25 -18
-26 -172 -37 -468 -35 -903 -159 -1334 -379 l-166 -85 -37 22 c-45 27 -127 29
-173 6 -69 -36 -113 -125 -94 -191 l9 -35 -91 -70 c-258 -196 -507 -463 -715
-765 l-62 -89 -63 2 c-71 2 -108 -16 -150 -71 -48 -64 -43 -148 13 -211 l28
-32 -18 -35 c-39 -77 -130 -303 -164 -409 -68 -210 -117 -439 -151 -703 -5
-39 -10 -48 -26 -48 -33 0 -96 -38 -120 -72 -30 -42 -38 -132 -15 -176 18 -36
68 -75 111 -89 l30 -10 7 -119 c21 -343 89 -676 202 -988 l35 -99 -34 -38
c-69 -77 -68 -169 3 -240 21 -20 43 -38 50 -40 8 -3 -6 -24 -37 -57 l-51 -52
-24 49 c-50 97 -145 329 -189 462 -271 805 -257 1659 40 2439 475 1247 1614
2143 2953 2325 255 34 540 43 781 25z m-151 -145 c127 -66 85 -245 -58 -245
-58 0 -98 25 -123 77 -17 35 -18 48 -10 80 23 84 116 127 191 88z m-313 -192
c-152 -184 -327 -439 -452 -658 -38 -66 -69 -121 -71 -123 -1 -2 -65 28 -142
67 -248 124 -593 256 -800 306 -59 14 -70 20 -61 31 16 19 314 165 434 212
346 137 771 229 1108 240 l49 2 -65 -77z m640 52 c237 -31 440 -78 663 -153
122 -41 337 -129 344 -141 2 -3 -49 -30 -114 -59 -119 -53 -379 -194 -513
-278 l-71 -44 -20 33 c-116 191 -292 442 -408 585 l-59 72 30 0 c16 0 83 -7
148 -15z m-482 -120 c88 -52 212 -20 252 65 10 22 21 40 25 40 30 1 478 -631
478 -675 0 -5 -28 -28 -62 -50 -159 -102 -411 -301 -602 -473 l-88 -80 -127
96 c-134 102 -292 207 -431 287 -47 27 -87 50 -89 52 -18 14 233 420 383 618
33 44 86 113 119 152 l60 73 19 -40 c13 -26 36 -50 63 -65z m1742 -132 c70
-33 94 -119 50 -184 -32 -47 -62 -61 -126 -56 -47 3 -59 9 -88 40 -99 108 29
264 164 200z m-236 -155 c12 -45 50 -93 92 -115 46 -23 128 -21 173 6 20 12
38 21 39 19 6 -8 105 -684 105 -721 0 -26 -146 105 -154 138 -5 18 -13 25 -31
25 -28 0 -31 -10 -38 -105 -3 -33 -15 -87 -28 -120 l-24 -59 -150 -23 c-82
-12 -193 -31 -245 -42 -52 -11 -96 -19 -96 -18 -1 1 -27 65 -59 142 -50 123
-190 415 -256 532 -13 23 -22 44 -19 46 23 24 333 198 485 273 160 80 191 92
193 77 2 -10 8 -35 13 -55z m-3304 -18 c105 -64 68 -220 -56 -237 -81 -11
-151 52 -151 136 0 37 6 49 39 82 34 35 44 39 87 39 31 0 61 -7 81 -20z m408
-141 c217 -74 603 -242 669 -292 19 -14 17 -19 -42 -141 -75 -153 -100 -210
-168 -386 -33 -85 -57 -135 -66 -134 -7 1 -69 11 -137 23 -68 12 -163 24 -210
27 -125 8 -125 8 -169 74 -53 79 -81 155 -94 257 -10 77 -12 83 -34 83 -17 0
-25 -7 -30 -24 -3 -13 -44 -59 -90 -101 -65 -59 -93 -93 -118 -144 l-34 -66
-11 40 c-33 114 -53 279 -58 473 -3 111 -4 202 -1 202 3 0 22 -7 41 -15 120
-50 247 34 247 163 l0 51 93 -25 c50 -14 146 -43 212 -65z m3378 -8 c195 -133
334 -247 503 -415 177 -177 269 -288 260 -312 -5 -14 -17 -16 -74 -10 -37 3
-117 11 -178 16 -61 6 -207 12 -325 13 l-214 2 -27 200 c-15 110 -41 286 -58
391 -33 211 -32 204 -24 204 3 0 65 -40 137 -89z m-4006 -248 c1 -205 22 -383
62 -537 26 -100 26 -106 9 -106 -59 0 -477 -34 -672 -55 -127 -14 -232 -23
-234 -20 -6 5 50 88 149 220 139 186 319 378 494 526 76 63 184 149 189 149 1
0 2 -80 3 -177z m2896 -84 c67 -127 178 -369 215 -471 l21 -56 -72 -22 c-111
-34 -287 -105 -450 -183 l-148 -70 -142 139 c-78 77 -171 166 -207 197 l-65
58 60 54 c181 166 408 346 604 478 l84 57 17 -28 c10 -16 47 -85 83 -153z
m-1243 -164 c85 -56 197 -135 249 -175 l93 -72 -64 -67 c-68 -70 -212 -229
-265 -295 l-32 -39 -153 56 c-148 53 -278 95 -365 117 -24 6 -43 14 -43 18 0
42 233 580 272 629 12 15 100 -34 308 -172z m-1292 -141 c28 -134 131 -285
268 -394 141 -113 304 -198 609 -320 99 -40 209 -88 245 -106 149 -78 286
-211 349 -340 31 -62 61 -168 61 -218 0 -28 -1 -27 -47 24 -78 87 -169 148
-363 243 -279 136 -353 186 -422 281 -33 46 -36 41 -8 -15 45 -88 119 -142
389 -286 326 -174 411 -254 475 -444 36 -108 51 -241 38 -332 -12 -75 -37
-146 -66 -182 -14 -18 -14 -16 0 25 24 68 29 220 10 310 -49 233 -200 376
-552 524 -278 117 -376 174 -441 257 -37 46 -44 35 -12 -17 49 -80 144 -142
386 -253 92 -42 200 -94 239 -114 146 -78 269 -205 314 -324 44 -118 48 -276
8 -373 l-15 -35 -6 80 c-21 249 -131 398 -366 494 -137 57 -217 69 -526 81
-332 12 -459 41 -546 126 -37 36 -77 109 -67 120 15 15 96 -23 133 -62 61 -65
155 -105 258 -110 l82 -4 -49 14 c-82 24 -203 78 -233 103 l-28 24 95 -6 c135
-9 181 -21 250 -66 33 -21 63 -39 65 -39 3 0 5 8 5 18 0 25 -57 77 -111 101
-45 20 -197 51 -251 51 -59 0 -185 33 -241 63 -66 35 -124 96 -158 165 -19 38
-23 64 -23 137 -1 78 2 95 23 129 25 40 86 75 132 76 16 0 44 -16 76 -43 28
-24 105 -81 172 -126 66 -45 132 -97 147 -117 32 -41 42 -38 19 6 -26 51 -83
108 -190 191 -55 42 -110 88 -122 101 -38 40 -53 92 -53 177 0 44 -4 82 -9 85
-19 12 -34 -28 -39 -99 l-5 -75 -28 21 c-39 27 -78 96 -85 150 -7 51 14 146
47 211 18 36 132 163 149 167 3 1 11 -24 18 -55z m3562 -99 c16 -28 37 -83 46
-121 25 -107 9 -168 -63 -238 l-38 -37 -7 77 c-7 74 -21 109 -39 98 -5 -3 -9
-42 -9 -88 0 -112 -21 -151 -126 -234 -135 -107 -196 -164 -226 -211 -41 -65
-35 -73 15 -19 23 26 87 77 142 114 55 38 127 90 160 116 67 54 89 58 151 27
34 -16 49 -32 70 -75 23 -47 26 -63 22 -122 -10 -131 -80 -237 -195 -296 -54
-27 -158 -51 -268 -61 -90 -9 -187 -30 -228 -51 -45 -23 -97 -74 -97 -96 0
-24 2 -24 65 18 63 42 131 60 258 69 l92 6 -30 -25 c-33 -28 -158 -82 -239
-103 l-51 -13 87 4 c72 3 98 9 158 37 62 28 130 84 130 107 0 8 101 34 108 27
10 -10 -42 -96 -76 -126 -94 -83 -211 -108 -552 -119 -284 -9 -364 -21 -499
-76 -171 -69 -287 -169 -335 -289 -16 -40 -31 -104 -38 -166 -11 -98 -11 -100
-25 -69 -37 90 -37 230 2 340 36 103 120 207 230 285 72 51 124 78 314 161
245 109 342 172 400 263 38 58 37 80 0 27 -59 -82 -160 -145 -385 -241 -279
-118 -389 -185 -494 -302 -84 -94 -150 -256 -150 -368 0 -53 29 -169 55 -219
37 -70 23 -69 -23 3 -52 80 -67 142 -66 271 4 228 88 407 251 529 36 27 141
89 232 137 281 148 353 199 413 293 36 58 36 75 0 25 -67 -92 -129 -134 -377
-257 -264 -131 -375 -210 -449 -321 -31 -46 -33 -31 -10 63 21 85 81 214 131
282 111 150 241 234 553 359 200 80 394 175 495 241 44 29 121 94 171 143 101
102 160 201 183 313 l14 62 59 -51 c32 -28 72 -75 88 -103z m1041 -8 c45 -30
71 -82 64 -126 -13 -72 -62 -111 -137 -111 -76 0 -130 52 -132 126 -1 51 25
91 75 116 46 24 89 22 130 -5z m-371 -17 c142 -16 141 -16 130 -46 -15 -39
-12 -74 11 -122 24 -49 62 -77 127 -93 23 -6 42 -17 42 -23 0 -64 -201 -643
-243 -700 -12 -17 -21 -15 -148 32 -124 46 -246 85 -393 127 -52 14 -57 18
-52 38 31 111 10 222 -56 293 -22 24 -44 44 -49 44 -4 0 -20 5 -34 10 l-27 10
48 53 c26 28 55 70 65 92 25 54 24 163 -1 235 -11 30 -19 59 -20 64 0 11 472
1 600 -14z m-2464 -99 c54 -49 145 -136 202 -193 l103 -104 -88 -12 c-49 -7
-127 -23 -173 -37 -46 -14 -94 -25 -107 -25 -13 0 -72 15 -131 34 -59 19 -140
38 -179 42 -40 3 -73 9 -73 11 0 17 324 373 339 373 4 0 52 -40 107 -89z
m1483 27 c-24 -45 -157 -166 -248 -226 -52 -34 -97 -62 -100 -62 -3 0 -23 52
-45 116 -42 127 -42 127 23 138 20 4 97 17 171 31 74 13 152 24 173 24 36 1
37 0 26 -21z m-425 -182 c20 -60 36 -114 36 -121 0 -17 -218 -118 -255 -118
-16 0 -59 12 -95 28 -70 30 -171 51 -295 61 l-80 7 139 68 c199 97 490 207
508 190 3 -3 22 -55 42 -115z m-3057 -66 c12 -19 38 -50 57 -69 36 -35 38 -51
7 -51 -33 0 -97 -56 -120 -104 -43 -92 -35 -232 19 -324 19 -31 19 -33 2 -39
-94 -31 -382 -152 -524 -221 -98 -47 -180 -83 -181 -81 -67 87 -367 635 -367
669 0 5 14 10 32 10 85 0 168 83 168 167 0 24 -9 62 -20 83 -18 34 -18 40 -5
40 9 0 96 9 193 19 170 19 518 48 632 54 l55 2 15 -60 c9 -33 25 -76 37 -95z
m694 134 c144 -20 201 -34 196 -47 -2 -7 -14 -49 -28 -94 -13 -46 -28 -83 -34
-83 -37 1 -284 161 -341 222 l-29 30 70 -7 c39 -4 113 -13 166 -21z m-1707
-62 c33 -20 66 -75 66 -112 0 -65 -69 -130 -138 -130 -110 0 -174 128 -105
210 14 18 36 36 47 40 34 14 99 10 130 -8z m2051 -12 c89 -25 331 -107 355
-120 18 -10 14 -12 -73 -28 -75 -14 -163 -55 -203 -93 -30 -29 -33 -30 -65
-16 -104 44 -179 81 -179 90 0 17 41 160 52 180 5 10 15 16 22 14 6 -3 47 -15
91 -27z m3903 -159 c137 -238 258 -550 317 -815 14 -65 25 -127 23 -137 -3
-16 -18 -9 -110 46 -112 68 -409 219 -539 275 l-76 32 54 132 c70 168 136 361
175 506 17 63 35 118 42 122 14 10 24 -4 114 -161z m-3174 -56 c150 -51 165
-52 276 -15 126 41 221 53 350 45 133 -8 239 -30 312 -62 l58 -26 -116 -53
c-63 -29 -150 -74 -192 -100 -101 -62 -237 -199 -290 -290 -55 -95 -99 -230
-108 -329 -3 -44 -17 -111 -29 -150 -34 -101 -48 -216 -41 -312 4 -46 5 -83 2
-83 -3 0 -16 5 -30 11 -19 9 -31 8 -57 -5 -18 -9 -33 -15 -34 -14 -2 2 2 32 8
67 14 89 -4 238 -44 350 -19 55 -35 127 -43 202 -19 163 -65 266 -177 393 -80
91 -230 189 -403 262 l-88 38 30 27 c34 31 120 65 195 79 29 5 112 7 186 5
120 -5 144 -9 235 -40z m-2742 -405 c41 -74 105 -184 142 -244 36 -60 65 -110
64 -111 -2 -1 -50 -28 -108 -60 -184 -103 -393 -239 -544 -354 l-59 -45 7 79
c27 298 136 689 274 989 l46 99 52 -109 c28 -60 85 -170 126 -244z m5043 -4
c116 -33 422 -139 433 -150 14 -14 -149 -328 -280 -538 -44 -71 -81 -128 -84
-128 -2 0 -32 22 -67 48 -34 27 -90 68 -124 92 -35 23 -63 45 -63 47 0 3 19
26 43 52 23 26 49 60 57 75 13 26 13 29 -5 42 -11 8 -43 14 -74 14 -89 0 -281
48 -281 69 0 4 14 20 31 37 38 36 76 109 85 163 4 23 10 41 14 41 17 0 112 95
136 136 18 31 31 43 43 40 9 -3 70 -21 136 -40z m-4014 -91 c26 -25 52 -45 57
-45 5 0 12 -21 16 -47 7 -56 56 -146 91 -169 34 -22 32 -29 -15 -48 -60 -24
-124 -37 -223 -45 -48 -5 -93 -13 -99 -19 -17 -17 7 -56 85 -136 37 -38 67
-70 67 -71 0 -2 -31 -28 -69 -58 -37 -31 -107 -92 -154 -137 l-86 -82 -33 38
c-76 86 -216 269 -309 404 l-100 144 128 65 c181 90 546 246 587 250 5 1 31
-19 57 -44z m4784 -210 c141 -69 368 -194 388 -214 6 -6 -2 -24 -19 -46 -58
-77 -37 -197 43 -247 39 -23 46 -9 -73 -148 -90 -104 -257 -270 -372 -368
l-73 -63 -67 73 c-129 143 -353 357 -469 448 l-31 25 93 149 c52 83 137 234
190 337 l96 188 72 -31 c40 -16 140 -63 222 -103z m-5478 -234 c57 -81 151
-207 210 -280 60 -73 112 -139 118 -147 7 -9 -18 -41 -96 -121 -117 -121 -229
-253 -356 -420 -50 -66 -90 -110 -97 -106 -47 27 -227 149 -301 203 -110 82
-163 126 -237 197 l-58 55 40 29 c51 37 70 75 70 141 0 59 -23 106 -65 134
-14 9 -25 20 -25 24 0 30 641 441 685 440 5 -1 56 -67 112 -149z m992 109 c31
-12 96 -29 144 -38 l89 -17 -87 -45 -88 -45 -118 0 c-125 0 -145 -9 -73 -33
56 -20 204 -10 274 17 30 11 56 21 56 21 1 0 -9 -26 -22 -57 -13 -32 -24 -63
-24 -69 0 -18 -28 -26 -115 -31 -65 -4 -92 -1 -145 17 -90 30 -161 72 -231
138 -65 60 -65 72 2 72 53 0 170 33 220 62 55 32 51 32 118 8z m3276 -6 c50
-29 169 -64 219 -65 68 -1 70 -11 19 -61 -67 -65 -159 -121 -243 -148 -58 -19
-85 -22 -148 -17 -95 7 -111 12 -119 46 -3 14 -15 43 -25 64 -11 22 -18 40
-16 42 2 2 35 -7 73 -21 78 -26 191 -31 259 -11 73 22 51 32 -73 32 l-118 0
-89 45 -88 45 72 12 c81 13 169 38 192 53 22 15 33 13 85 -16z m-2420 -82
c182 -49 333 -153 386 -266 39 -83 52 -154 47 -267 -4 -94 -5 -100 -42 -153
-48 -69 -101 -118 -164 -150 -270 -137 -708 -10 -835 241 -42 82 -58 154 -58
260 0 54 4 120 10 146 13 55 52 136 89 186 l26 33 230 -5 c195 -3 244 -7 311
-25z m2029 -19 c91 -124 116 -338 60 -506 -39 -117 -142 -226 -277 -292 -99
-48 -174 -66 -297 -72 -222 -11 -378 65 -476 232 -27 47 -29 56 -28 155 2 210
78 337 254 429 82 43 187 77 277 90 32 5 147 9 255 10 l198 1 34 -47z m2213
-46 c99 -109 -35 -269 -166 -199 -62 34 -87 111 -56 173 26 48 71 71 134 66
47 -3 59 -9 88 -40z m-1491 -149 c124 -90 154 -114 154 -123 0 -7 -175 -241
-225 -300 l-25 -30 0 94 c0 132 -34 247 -101 342 l-19 27 48 31 c26 17 52 31
57 31 6 0 56 -33 111 -72z m-3857 23 l24 -18 -25 -34 c-38 -50 -73 -127 -88
-189 -16 -63 -16 -205 -2 -267 5 -24 9 -43 8 -43 -11 0 -266 268 -266 279 0
17 301 290 320 290 3 0 16 -8 29 -18z m161 -61 c74 -21 171 -23 213 -5 14 6
17 2 17 -18 0 -81 -53 -110 -210 -113 -116 -2 -146 -18 -54 -30 73 -9 168 0
218 21 21 9 39 15 41 13 1 -2 6 -31 10 -65 l7 -62 -34 -21 c-29 -19 -45 -21
-133 -18 -83 3 -110 9 -162 32 -33 15 -73 41 -89 57 -26 27 -27 30 -15 71 7
24 29 72 48 106 26 47 39 62 51 58 10 -2 51 -14 92 -26z m3468 -17 c17 -27 41
-74 53 -106 l22 -58 -27 -28 c-16 -16 -56 -42 -89 -57 -52 -23 -79 -29 -162
-32 -93 -4 -102 -2 -135 21 -19 13 -34 30 -32 38 2 7 6 35 9 62 5 39 9 47 22
41 70 -30 207 -43 269 -26 52 15 21 25 -78 26 -90 1 -112 5 -155 26 -47 24
-50 27 -53 68 -3 42 -3 43 25 35 50 -14 175 -6 233 15 30 11 58 20 61 21 4 0
21 -20 37 -46z m1608 -246 c13 -272 -32 -655 -109 -935 l-23 -84 -84 133 c-84
133 -250 362 -329 453 l-42 49 38 31 c138 112 336 309 459 456 82 98 81 99 90
-103z m-6795 158 c89 -47 89 -183 0 -230 -90 -46 -201 17 -201 115 0 97 112
161 201 115z m5698 -77 c97 -82 405 -387 438 -433 l21 -31 -125 -93 c-129 -97
-330 -227 -465 -300 l-77 -42 -50 106 c-28 59 -80 160 -116 225 l-65 118 24
75 c20 62 39 92 103 170 43 52 107 135 143 185 36 50 69 91 74 91 5 1 47 -32
95 -71z m-2210 -125 c38 -49 86 -101 105 -116 56 -44 46 -95 -34 -172 -50 -48
-71 -86 -99 -181 -20 -67 -44 -104 -69 -104 -23 0 -53 47 -73 115 -28 93 -41
117 -90 162 -50 47 -83 107 -75 139 4 13 22 35 41 49 19 15 60 59 92 98 103
127 108 128 202 10z m-1844 -3 c26 -11 71 -24 99 -29 l51 -8 -45 -12 c-29 -9
-68 -11 -110 -7 -40 4 -61 3 -55 -2 19 -18 78 -32 131 -32 54 0 65 -8 40 -29
-24 -20 -78 -150 -89 -216 -14 -80 -6 -91 49 -76 22 6 54 11 72 11 l34 0 -9
-42 c-11 -58 -8 -181 6 -206 10 -20 13 -20 45 -7 19 8 79 19 135 24 55 5 105
12 111 16 5 3 24 -11 42 -31 77 -88 232 -172 407 -220 46 -13 86 -26 89 -29 3
-3 -57 -5 -134 -5 -365 0 -598 90 -769 297 -139 167 -227 376 -242 570 -8 113
-4 120 50 83 24 -16 66 -39 92 -50z m3625 -75 c-21 -189 -103 -369 -244 -536
-135 -159 -313 -249 -551 -278 -103 -13 -374 -14 -335 -1 14 4 77 24 142 44
137 44 251 108 325 182 48 47 56 52 81 44 15 -4 65 -11 111 -15 46 -3 98 -12
117 -20 31 -13 35 -12 45 6 13 25 17 150 6 202 -10 48 5 55 82 39 35 -8 59 -8
65 -2 26 26 -47 252 -95 296 -30 27 -23 37 20 30 45 -7 135 9 150 27 7 10 -6
12 -59 9 -39 -2 -82 -1 -97 3 -26 7 -23 9 29 21 62 14 138 50 178 82 l25 20 6
-41 c4 -23 3 -73 -1 -112z m-3929 -20 c140 -143 160 -167 183 -227 25 -63 26
-69 12 -97 -25 -48 -106 -248 -147 -361 -34 -95 -39 -105 -61 -102 -56 7 -424
174 -601 274 l-87 49 31 45 c112 163 480 588 504 582 5 -2 80 -75 166 -163z
m679 6 c0 -4 -15 -12 -34 -19 -18 -7 -64 -40 -100 -73 -65 -60 -96 -103 -96
-134 0 -16 26 -21 32 -5 8 22 117 125 170 160 l58 39 20 -26 c21 -27 20 -43
-8 -98 -8 -16 -17 -52 -21 -79 -6 -46 -8 -51 -37 -57 -18 -3 -82 0 -143 7 -66
7 -123 9 -140 4 -16 -4 -32 -6 -34 -3 -10 9 25 108 59 169 45 83 117 160 169
183 23 10 46 24 50 31 4 7 16 -8 31 -40 13 -29 24 -55 24 -59z m2852 64 c66
-17 191 -200 221 -325 l6 -26 -62 4 c-35 2 -101 -1 -149 -6 -122 -15 -139 -9
-153 59 -7 29 -20 75 -31 101 l-18 47 23 25 23 24 63 -44 c35 -24 88 -71 118
-104 57 -61 77 -73 77 -45 0 56 -164 215 -221 215 -24 0 -24 -1 8 65 27 54 27
55 48 36 11 -11 32 -23 47 -26z m-4819 -151 c100 -92 263 -216 419 -318 l117
-76 -59 -88 c-86 -128 -207 -331 -275 -465 -33 -64 -63 -117 -66 -117 -9 0
-95 261 -123 375 -37 149 -64 295 -80 435 -19 166 -30 330 -21 330 4 0 44 -34
88 -76z m3720 -95 c202 -148 470 -157 734 -26 34 17 85 47 112 68 l49 38 21
-69 c26 -85 26 -121 1 -202 -39 -127 -134 -227 -291 -304 -147 -73 -297 -111
-529 -133 -91 -9 -175 -28 -245 -57 -12 -5 -1 15 31 52 62 72 101 133 109 171
5 22 0 17 -23 -22 -17 -27 -62 -86 -101 -130 -39 -44 -71 -83 -71 -87 0 -4
-21 -21 -46 -39 -37 -25 -53 -46 -80 -105 -19 -40 -39 -76 -45 -80 -15 -9 -33
13 -53 68 -10 27 -35 63 -58 85 -22 21 -52 50 -67 64 -45 44 -162 185 -187
226 -27 43 -31 38 -9 -13 15 -35 91 -140 119 -163 27 -23 18 -31 -19 -15 -58
24 -153 42 -280 54 -446 40 -751 239 -772 503 -6 64 17 170 39 183 5 4 19 -3
31 -14 72 -66 221 -134 344 -158 221 -42 424 9 559 142 l62 60 -20 -40 c-28
-54 -118 -140 -179 -171 -36 -19 -73 -27 -132 -32 -110 -8 -128 -19 -43 -28
143 -16 212 11 327 127 77 76 99 84 99 35 0 -34 -128 -151 -210 -192 -81 -41
-81 -57 -1 -30 69 23 132 67 195 137 l55 60 26 -28 c31 -33 47 -68 65 -142 12
-53 46 -104 81 -123 28 -14 75 14 97 59 11 20 29 69 40 107 24 81 72 140 89
110 39 -69 182 -173 261 -190 51 -11 37 8 -31 39 -44 20 -84 51 -140 107 -67
69 -76 81 -66 97 11 17 17 14 74 -43 40 -40 87 -75 135 -98 67 -34 79 -37 159
-36 99 1 149 13 91 22 -19 3 -64 8 -100 12 -80 6 -151 39 -220 102 -50 45 -90
106 -90 139 0 11 12 1 30 -24 17 -23 49 -56 73 -73z m2496 -192 c108 -136 210
-279 288 -402 l63 -100 -41 -14 c-56 -18 -104 -69 -117 -123 -13 -50 -5 -89
28 -143 l21 -34 -29 -15 c-90 -47 -658 -216 -723 -216 -13 0 -21 12 -29 43
-48 181 -123 410 -186 566 -19 46 -34 88 -34 92 0 3 56 39 125 78 191 110 509
327 530 362 12 18 23 8 104 -94z m-893 -152 l84 -170 -67 -34 c-111 -56 -329
-145 -467 -191 l-130 -43 -43 48 c-24 26 -51 61 -59 77 -15 28 -14 29 18 40
70 25 186 89 245 137 77 63 177 187 239 298 l47 85 25 -39 c13 -21 62 -114
108 -208z m-3359 185 c-6 -8 -30 -34 -54 -58 -42 -41 -53 -62 -34 -62 6 0 33
25 62 55 l53 56 22 -60 c12 -34 27 -68 34 -76 7 -9 11 -17 9 -20 -7 -6 -253
-23 -261 -18 -9 5 -11 128 -2 170 l6 30 88 -1 c78 0 87 -2 77 -16z m2914 -10
c10 -34 10 -152 1 -166 -5 -8 -43 -9 -131 -3 -68 5 -126 11 -128 13 -3 2 4 21
15 43 11 21 25 56 32 77 l13 39 60 -63 c36 -38 62 -59 65 -51 2 7 -16 34 -40
59 -76 81 -77 77 20 77 83 0 86 -1 93 -25z m-3229 -182 c91 -117 220 -211 361
-263 26 -10 47 -23 47 -29 0 -17 -86 -123 -116 -142 -25 -17 -32 -16 -177 20
-84 21 -214 58 -291 83 -137 45 -138 45 -133 72 8 40 102 290 143 379 l35 76
35 -59 c20 -32 63 -94 96 -137z m-969 -29 c157 -85 300 -152 457 -216 74 -31
138 -57 141 -59 4 -2 -6 -48 -22 -101 -41 -139 -104 -418 -126 -552 l-18 -114
-90 7 c-170 12 -685 98 -685 115 0 4 9 24 20 46 37 73 16 168 -48 214 -32 22
-107 42 -128 34 -8 -3 -14 -2 -14 1 0 12 109 223 166 322 57 99 226 364 232
364 2 0 54 -27 115 -61z m4786 -279 c56 -144 104 -287 146 -435 47 -167 46
-158 5 -166 -153 -28 -232 -40 -340 -54 -177 -21 -164 -24 -190 43 -13 31 -36
76 -52 100 -25 38 -26 43 -10 48 97 31 232 112 232 140 0 18 -40 34 -83 34
-62 0 -203 41 -294 86 -51 24 -93 48 -93 52 0 4 57 26 128 50 124 42 376 147
457 190 22 11 42 21 45 22 3 0 25 -50 49 -110z m-869 -26 c34 -66 126 -155
209 -204 77 -46 206 -93 284 -105 26 -4 47 -11 47 -15 0 -4 -28 -20 -62 -36
-53 -24 -76 -28 -148 -28 -91 -1 -136 15 -266 93 -44 26 -53 29 -63 17 -10
-12 -4 -22 31 -56 70 -67 181 -111 312 -122 25 -3 34 -13 67 -78 63 -123 82
-218 77 -379 -3 -84 -12 -162 -23 -203 -18 -69 -35 -82 -35 -27 0 17 -11 75
-25 130 -32 127 -53 183 -131 363 -27 60 -49 105 -51 99 -2 -6 21 -79 51 -162
90 -248 107 -318 113 -467 11 -259 -56 -413 -277 -635 -94 -94 -281 -261 -319
-284 -19 -11 19 43 84 120 174 205 245 340 316 597 45 164 50 316 16 448 -14
52 -37 120 -52 150 -14 30 -23 46 -20 35 54 -174 65 -371 31 -522 -18 -78 -36
-109 -36 -62 0 55 -76 366 -122 495 -28 80 -52 143 -54 141 -2 -2 12 -59 31
-128 50 -176 105 -448 112 -554 5 -80 2 -99 -21 -169 -31 -90 -78 -179 -140
-264 -46 -62 -136 -166 -136 -157 0 3 25 55 55 115 94 187 109 243 109 395 0
118 -4 149 -47 334 -64 284 -77 282 -21 -4 51 -269 54 -377 13 -513 -12 -37
-62 -150 -113 -252 -50 -102 -99 -209 -109 -238 -23 -67 -42 -60 -34 13 4 39
25 90 79 196 41 79 79 168 86 197 18 82 15 283 -7 414 -11 62 -38 185 -59 273
-53 216 -66 317 -59 473 8 188 53 386 122 534 24 51 24 52 34 25 22 -58 131
-152 167 -145 12 2 1 17 -40 51 -51 45 -86 91 -86 116 0 7 37 21 80 30 3 1 16
-20 30 -45z m-2392 21 c12 -11 -35 -80 -83 -121 -41 -35 -53 -50 -41 -52 36
-7 145 87 166 144 7 19 16 25 33 22 19 -3 28 -20 59 -113 48 -147 62 -241 62
-420 -1 -175 -8 -233 -68 -506 -63 -286 -69 -342 -63 -532 3 -89 8 -175 12
-192 6 -29 5 -29 -15 7 -11 21 -35 79 -52 130 -30 87 -32 102 -32 228 0 91 7
174 21 255 30 170 36 222 26 210 -5 -5 -25 -89 -44 -185 -28 -145 -34 -197
-33 -305 0 -163 17 -216 146 -465 75 -144 91 -184 96 -232 2 -32 1 -58 -4 -58
-5 0 -17 18 -27 40 -11 22 -58 91 -105 153 -47 61 -110 150 -139 195 -67 107
-134 278 -140 357 -5 61 10 126 132 580 19 72 34 134 32 139 -2 7 -125 -369
-183 -564 -16 -53 -17 -54 -25 -26 -4 15 -13 70 -20 121 -13 107 -1 246 31
362 10 37 17 69 16 71 -7 7 -58 -135 -76 -212 -38 -155 -20 -330 56 -571 52
-162 122 -294 231 -439 53 -70 93 -129 91 -131 -7 -8 -359 354 -405 415 -59
80 -108 174 -134 260 -18 60 -23 98 -23 195 1 144 17 214 110 484 69 197 79
238 38 151 -93 -197 -182 -467 -185 -559 -1 -20 -4 -47 -8 -61 -6 -20 -11 -11
-31 55 -22 72 -25 97 -25 245 1 150 3 172 27 242 14 42 42 106 62 142 34 61
39 66 71 66 53 0 135 20 192 47 71 33 149 104 140 127 -6 16 -13 14 -70 -19
-150 -87 -237 -110 -332 -86 -55 14 -135 50 -135 61 0 4 19 10 43 13 72 10
212 62 285 105 83 50 147 109 198 186 38 57 38 57 78 50 23 -3 42 -8 44 -9z
m-715 -60 c78 -24 195 -58 260 -74 65 -16 120 -31 123 -33 2 -3 -32 -22 -76
-42 -75 -34 -177 -62 -305 -83 -40 -6 -50 -12 -50 -27 0 -24 101 -96 171 -121
27 -10 53 -21 57 -25 4 -4 -8 -32 -26 -63 -29 -48 -50 -103 -86 -227 -8 -25
-8 -25 -127 -22 -65 1 -157 5 -202 8 l-84 7 7 46 c13 92 66 349 96 461 55 208
70 252 86 246 7 -3 78 -26 156 -51z m1283 30 c-9 -36 -74 -142 -113 -186 -58
-64 -134 -75 -207 -29 -26 15 -36 31 -45 66 -7 26 -24 70 -39 98 -15 28 -28
54 -30 58 -2 4 70 9 160 11 90 1 189 4 222 5 57 2 58 2 52 -23z m212 -6 c40
-11 97 -31 125 -45 56 -28 117 -80 117 -100 0 -22 -78 -83 -115 -90 -61 -11
-114 11 -176 75 -54 56 -100 123 -114 168 -6 22 -4 23 42 17 26 -3 81 -14 121
-25z m846 -66 c-103 -183 -210 -219 -330 -110 -41 37 -46 45 -36 63 14 26 128
87 205 109 82 24 191 34 195 18 2 -7 -14 -43 -34 -80z m556 87 c0 -3 -15 -35
-34 -70 -19 -36 -40 -85 -47 -109 -22 -76 -98 -101 -184 -62 -62 28 -168 155
-189 226 -6 20 -1 20 224 20 127 0 230 -2 230 -5z m-489 -185 c2 -55 5 -44 14
59 l7 68 43 -64 c47 -71 100 -121 151 -146 19 -8 34 -20 34 -24 0 -32 -104
-193 -150 -231 -61 -52 -143 -45 -216 17 -46 39 -106 122 -129 178 l-15 37 41
11 c51 14 120 82 169 168 l35 61 7 -42 c3 -23 7 -64 9 -92z m2761 97 c64 -37
75 -138 22 -193 -30 -32 -90 -53 -120 -43 -59 19 -76 30 -94 59 -76 123 65
253 192 177z m-3858 -120 c3 -3 6 22 6 56 0 33 4 63 8 66 4 3 29 -24 54 -59
50 -69 116 -123 161 -132 37 -7 34 -24 -14 -112 -107 -193 -214 -221 -344 -88
-62 64 -120 158 -112 181 3 7 20 16 38 20 41 8 107 76 152 154 l32 57 7 -68
c3 -38 9 -71 12 -75z m672 -1 c13 -16 46 -40 72 -52 26 -12 49 -23 50 -25 2
-1 -15 -39 -38 -83 -110 -212 -222 -245 -355 -107 -59 61 -122 167 -110 186 3
6 16 10 28 10 24 0 57 19 98 57 l26 24 18 -41 c41 -90 117 -79 160 23 8 20 18
37 21 37 3 0 16 -13 30 -29z m-978 -68 c12 -3 22 -10 22 -17 -1 -20 -57 -119
-62 -110 -3 5 -9 40 -13 78 -6 64 -6 68 12 61 10 -4 28 -10 41 -12z m1778 -10
c-3 -10 -8 -35 -12 -56 -3 -20 -10 -39 -14 -42 -7 -4 -50 71 -50 88 0 6 50 24
73 26 5 1 6 -7 3 -16z m-1605 -227 c22 -20 57 -44 77 -54 20 -9 39 -17 40 -18
12 -7 -91 -178 -133 -221 -61 -63 -102 -74 -172 -48 l-45 18 6 51 c3 28 9 112
12 186 6 121 9 140 32 180 l27 45 7 -45 c3 -25 8 -65 9 -90 2 -49 1 -55 15 87
l6 63 39 -59 c22 -32 57 -75 80 -95z m939 79 c0 -98 18 -97 22 1 l3 77 33 -52
c49 -74 128 -149 173 -163 22 -6 39 -15 39 -21 0 -5 -19 -46 -42 -90 -105
-203 -220 -238 -347 -108 -55 55 -121 163 -121 195 0 10 9 16 23 16 51 0 144
96 188 193 20 45 29 31 29 -48z m2884 53 c-4 -13 -32 -76 -62 -140 l-55 -117
-53 -16 c-83 -24 -120 -92 -96 -179 12 -45 15 -37 -82 -176 -61 -86 -180 -235
-258 -323 -60 -67 -74 -60 -83 46 -16 197 -56 467 -95 642 -5 22 -8 41 -6 42
1 2 81 23 177 47 180 46 443 129 539 170 72 32 83 32 74 4z m-6218 -7 c40 -24
68 -83 61 -127 -26 -160 -267 -145 -267 17 0 37 6 54 27 79 14 18 36 36 47 40
37 15 100 11 132 -9z m3885 -29 c0 -20 4 -55 8 -77 7 -37 8 -33 15 43 4 45 11
82 15 82 4 0 14 -12 21 -27 10 -20 14 -80 15 -213 1 -102 5 -199 9 -216 8 -30
6 -32 -22 -39 -57 -12 -111 12 -177 79 -55 57 -115 155 -115 189 0 8 13 17 30
20 41 9 98 64 145 140 21 36 43 63 47 61 4 -3 8 -22 9 -42z m-993 -59 c43 -53
114 -103 145 -103 25 0 21 -13 -25 -102 -106 -204 -218 -240 -348 -110 -54 56
-105 132 -116 178 -5 19 -1 24 23 30 62 14 111 53 160 126 l48 73 5 -67 c7
-90 20 -98 20 -11 0 79 8 95 30 62 8 -13 34 -47 58 -76z m2521 -235 c42 -203
81 -488 81 -589 l0 -46 -49 -7 c-99 -13 -167 -95 -157 -190 l5 -48 -82 7
c-179 15 -454 76 -472 105 -11 18 24 168 58 245 20 44 43 115 51 157 18 85 21
279 6 343 -6 27 -5 42 2 46 6 4 49 10 97 14 47 4 156 20 241 35 85 15 165 28
176 29 19 1 24 -9 43 -101z m-1790 -37 c1 -71 15 -57 21 22 l5 62 18 -32 c34
-64 116 -150 162 -173 38 -19 45 -26 39 -44 -9 -33 -82 -153 -115 -190 -88
-101 -200 -81 -303 53 -47 61 -88 139 -80 152 2 4 20 10 40 14 48 9 118 80
164 168 30 57 36 63 42 44 3 -12 6 -46 7 -76z m-520 63 c32 -70 150 -194 187
-194 5 0 15 -4 23 -9 11 -7 5 -25 -30 -92 -109 -206 -221 -241 -348 -110 -56
56 -127 173 -117 190 3 5 21 12 40 15 43 8 101 64 152 146 l39 64 3 -65 c5
-97 22 -98 22 -1 0 85 8 101 29 56z m-2927 1 c96 -22 346 -61 508 -80 80 -9
146 -17 147 -18 1 -1 -5 -49 -12 -107 -22 -167 -35 -372 -35 -547 0 -90 -3
-163 -6 -163 -14 0 -203 183 -287 279 -113 129 -195 235 -281 369 -59 91 -65
104 -56 128 14 36 4 81 -27 122 -13 17 -22 32 -19 32 3 0 33 -7 68 -15z m2352
-132 c3 -4 6 19 6 50 0 87 8 95 42 41 43 -68 123 -142 169 -155 46 -14 46 -19
-7 -115 -92 -166 -186 -210 -296 -139 -60 40 -178 210 -163 236 3 3 19 9 37
13 40 8 112 81 159 162 l34 59 7 -73 c3 -40 9 -76 12 -79z m-2470 123 c41 -17
66 -51 66 -89 0 -26 -3 -28 -22 -22 -78 25 -127 11 -173 -49 -61 -80 -69 -179
-21 -274 22 -43 23 -51 10 -56 -53 -20 -116 11 -146 72 -35 71 -32 195 6 278
29 65 71 112 121 138 37 20 115 21 159 2z m6142 -2 c142 -67 203 -353 98 -457
-28 -28 -79 -43 -112 -32 -20 6 -20 7 6 58 21 42 27 66 27 123 0 61 -4 77 -30
120 -17 27 -46 59 -64 71 -40 27 -97 30 -123 7 -16 -16 -18 -15 -24 0 -12 31
19 90 56 108 44 22 121 23 166 2z m-5112 -100 l186 -7 0 -117 c0 -141 22 -238
80 -357 22 -44 40 -87 40 -95 0 -53 52 -189 105 -275 l25 -42 -42 -25 c-58
-33 -164 -64 -278 -81 -129 -20 -121 -22 -114 24 15 93 -70 186 -170 186 -28
0 -63 -4 -78 -9 l-28 -8 0 120 c0 195 38 664 56 694 3 5 12 7 19 4 7 -2 96 -8
199 -12z m-1014 -37 c9 -7 59 -78 112 -158 146 -221 323 -427 520 -607 l57
-52 -15 -35 c-44 -106 25 -223 142 -241 24 -3 44 -8 44 -11 0 -2 -8 -20 -19
-41 -10 -20 -21 -49 -25 -65 l-6 -27 -78 56 c-152 113 -229 180 -382 333 -168
169 -283 310 -422 519 -74 112 -88 140 -88 173 0 100 104 201 160 156z m6040
-13 c41 -35 71 -96 73 -148 1 -35 -8 -55 -67 -141 -244 -355 -543 -666 -860
-893 -41 -30 -47 -32 -52 -15 -18 59 -54 122 -86 154 l-36 37 42 30 c23 17 80
61 125 97 l83 66 48 -20 c60 -26 103 -26 155 -2 96 44 129 133 85 230 l-20 44
40 46 c109 125 244 299 320 414 54 82 90 127 101 127 10 0 32 -12 49 -26z
m-3885 -44 c19 0 19 -5 -5 -76 -30 -86 -106 -191 -126 -172 -1 2 4 30 11 63 7
33 21 95 30 137 l17 78 28 -15 c16 -8 36 -15 45 -15z m1764 -57 c6 -32 14 -69
17 -83 l6 -25 -22 25 c-24 27 -70 113 -70 130 0 5 13 10 29 10 27 0 29 -4 40
-57z m-647 -163 c4 8 9 44 10 80 l3 65 23 -38 c57 -91 140 -168 195 -182 15
-4 27 -12 27 -19 0 -18 -78 -156 -113 -199 -38 -49 -105 -81 -150 -72 -82 17
-173 103 -223 210 -28 59 -30 75 -7 75 52 0 138 86 199 200 l19 35 5 -85 c3
-47 9 -78 12 -70z m558 10 c1 41 5 89 9 105 l7 30 13 -25 c8 -14 34 -50 58
-81 38 -49 47 -69 63 -150 28 -135 27 -149 -19 -197 -82 -84 -167 -78 -261 18
-53 54 -120 162 -120 193 0 9 13 18 31 22 42 9 108 77 156 160 l38 67 11 -109
11 -108 3 75z m-1547 10 c39 -45 96 -87 130 -95 15 -4 27 -12 27 -19 0 -19
-80 -159 -116 -203 -83 -102 -194 -89 -301 36 l-35 41 11 72 c8 48 17 76 28
83 42 26 87 73 113 118 l28 50 7 -59 c9 -83 13 -95 14 -48 0 23 4 62 7 88 l7
47 25 -38 c14 -21 39 -54 55 -73z m440 -36 c4 -4 7 27 7 69 0 43 3 77 8 77 4
0 16 -16 27 -37 33 -60 129 -150 174 -164 23 -7 41 -16 41 -21 0 -17 -53 -114
-96 -175 -52 -73 -113 -109 -166 -98 -56 12 -104 43 -147 92 -49 57 -105 159
-98 177 3 8 22 17 42 20 45 9 108 69 156 149 l34 58 5 -70 c3 -38 8 -73 13
-77z m-2903 -649 l0 -555 -25 0 -25 0 0 555 0 555 25 0 25 0 0 -555z m6340 0
l0 -555 -25 0 -25 0 0 555 0 555 25 0 25 0 0 -555z m-2602 405 c3 99 9 114 29
75 30 -57 103 -141 143 -165 79 -48 76 -39 40 -111 -44 -87 -104 -165 -143
-185 -40 -21 -105 -21 -146 0 -60 32 -165 162 -186 234 -5 18 -2 22 17 22 57
0 150 92 202 199 l21 44 10 -94 10 -94 3 75z m-440 -43 c26 -27 65 -58 87 -69
22 -11 41 -22 43 -23 6 -6 -51 -110 -91 -168 -50 -71 -95 -100 -153 -99 -83 1
-178 82 -240 204 -29 58 -30 68 -4 68 51 0 125 66 183 164 l35 58 6 -53 c3
-30 7 -67 9 -84 1 -16 6 10 11 58 l8 88 30 -48 c16 -26 51 -70 76 -96z m-664
-15 c3 -3 6 21 6 54 0 32 5 66 10 74 5 8 10 10 10 4 0 -7 24 -43 54 -81 51
-65 74 -82 174 -129 2 -1 -11 -31 -28 -65 -44 -87 -104 -165 -143 -185 -39
-21 -104 -21 -143 -1 -60 31 -168 165 -189 235 -5 18 -3 22 17 22 50 0 118 60
176 154 l37 60 7 -68 c3 -37 9 -70 12 -74z m-414 3 c24 -25 63 -52 87 -61 24
-9 43 -22 43 -28 -1 -39 -148 -251 -164 -235 -22 21 -39 369 -18 369 4 0 28
-20 52 -45z m3436 0 c58 -38 67 -127 18 -184 -68 -81 -206 -53 -233 46 -34
123 103 212 215 138z m-1457 -135 c0 -91 -10 -152 -26 -157 -20 -7 -143 170
-143 207 0 5 9 10 20 10 30 0 70 23 105 60 l30 31 7 -38 c4 -21 7 -72 7 -113z
m746 6 c99 -30 320 -66 403 -66 28 0 52 -4 52 -8 0 -12 -31 -38 -147 -126
l-101 -76 -45 10 c-123 27 -243 -47 -235 -145 l3 -40 -130 -67 c-71 -37 -199
-95 -284 -129 -136 -54 -157 -60 -175 -49 -12 8 -40 21 -63 30 l-42 16 72 54
c265 201 449 396 534 564 26 51 38 67 51 63 9 -3 58 -17 107 -31z m-1493 -166
c4 8 9 44 10 79 l3 64 39 -57 c49 -71 126 -141 172 -156 29 -10 34 -15 28 -33
-23 -75 -108 -201 -159 -236 -53 -36 -144 -24 -200 26 -57 50 -144 182 -145
219 0 6 13 14 30 17 43 9 115 80 163 161 l42 71 5 -85 c3 -47 9 -78 12 -70z
m597 108 c13 -24 46 -66 74 -95 57 -60 57 -52 -14 -195 -27 -53 -51 -115 -55
-137 -6 -39 -8 -41 -44 -41 -68 0 -170 92 -229 207 -29 57 -27 67 15 82 46 17
106 78 148 153 18 32 36 55 39 51 4 -3 8 -40 8 -82 2 -89 16 -55 18 42 0 31 4
57 9 57 4 0 18 -19 31 -42z m-1630 -27 c40 -63 121 -136 166 -151 19 -6 35
-16 35 -22 0 -18 -72 -147 -105 -189 -46 -58 -82 -79 -137 -79 -77 0 -89 10
-131 118 -67 172 -66 168 -25 202 20 17 56 60 79 97 l43 68 7 -45 c4 -25 8
-63 10 -85 2 -45 5 -31 14 68 4 37 8 67 9 67 1 0 17 -22 35 -49z m484 -107 c4
-4 7 26 7 68 0 41 3 77 6 81 4 3 25 -20 49 -51 56 -75 102 -118 148 -137 49
-20 48 -42 -4 -131 -48 -79 -91 -129 -133 -151 -40 -21 -116 -12 -161 18 -45
30 -120 125 -146 184 -21 47 -19 65 8 65 27 0 91 42 121 79 16 20 42 59 58 86
l29 50 5 -77 c3 -43 9 -80 13 -84z m-1808 100 c56 -36 74 -109 42 -170 -23
-45 -62 -66 -118 -66 -146 0 -187 189 -55 248 36 16 96 11 131 -12z m602 -126
c46 -57 292 -302 387 -386 l59 -51 -28 -11 c-15 -6 -40 -19 -55 -30 l-28 -20
-88 26 c-141 40 -251 82 -366 141 -145 74 -159 85 -146 121 15 40 3 79 -38
120 -19 19 -33 36 -32 37 2 1 41 11 87 23 47 13 110 36 140 52 31 16 58 29 61
29 3 1 24 -23 47 -51z m-338 -105 c31 -23 53 -65 46 -86 -5 -12 -12 -11 -46 6
-38 19 -41 19 -85 2 -107 -41 -155 -189 -94 -292 11 -19 20 -38 20 -44 0 -5
-21 -9 -46 -9 -149 0 -181 252 -49 384 21 21 52 45 69 52 43 20 150 12 185
-13z m3788 6 c53 -26 99 -82 124 -154 33 -96 20 -186 -36 -242 -28 -28 -40
-33 -79 -33 -51 0 -56 8 -27 49 26 36 37 119 22 164 -21 62 -66 113 -115 132
-44 17 -47 17 -85 -2 -44 -22 -58 -13 -42 30 28 72 147 100 238 56z m-1918
-63 c49 -76 133 -155 173 -163 33 -6 34 -18 12 -94 -37 -125 -125 -245 -199
-269 -99 -33 -188 51 -264 249 -35 92 -37 101 -16 101 54 0 132 70 188 168
l32 57 5 -102 c3 -56 8 -105 13 -109 4 -4 7 45 7 109 0 65 2 117 4 117 2 0 22
-29 45 -64z m555 5 c40 -66 135 -158 172 -167 30 -8 30 -11 -3 -79 -19 -37
-33 -55 -46 -55 -10 0 -32 -13 -48 -30 -24 -24 -34 -28 -49 -20 -32 17 -93 11
-150 -16 l-55 -26 -41 47 c-34 38 -94 139 -94 158 0 3 15 8 34 11 47 9 123 80
166 155 19 33 38 61 43 61 4 0 7 -19 8 -42 0 -24 4 -61 8 -83 7 -33 9 -24 10
53 0 50 3 92 5 92 2 0 20 -27 40 -59z m-1150 -109 c3 -3 6 20 6 51 0 90 7 94
54 29 63 -85 112 -125 179 -146 17 -5 17 -8 1 -38 -9 -18 -44 -75 -77 -126
l-61 -92 -35 34 c-55 53 -124 71 -173 45 -16 -9 -23 -7 -35 11 -8 12 -25 25
-37 30 -17 6 -76 102 -76 123 0 3 16 8 36 12 46 8 113 70 162 149 l37 61 7
-68 c3 -38 9 -71 12 -75z m-1283 32 c84 -89 391 -235 597 -284 28 -6 52 -15
52 -19 0 -4 -13 -32 -30 -62 -16 -30 -35 -78 -41 -106 -7 -31 -18 -53 -25 -53
-47 0 -482 196 -635 286 -66 38 -77 49 -81 76 -8 52 12 108 54 150 45 45 75
48 109 12z m3699 6 c46 -33 72 -84 72 -142 0 -62 2 -60 -176 -156 -170 -92
-470 -222 -512 -222 -7 0 -15 16 -18 35 -4 19 -24 69 -45 111 -38 74 -38 76
-17 84 11 5 71 29 131 53 190 77 425 197 466 238 25 25 64 24 99 -1z m-2732
-101 c24 -8 37 -24 57 -66 14 -31 24 -57 23 -59 -11 -9 -99 -6 -125 5 l-32 13
19 39 c11 21 20 47 20 59 0 23 -2 23 38 9z m1727 -36 c3 -16 12 -40 20 -55 13
-25 12 -28 -8 -34 -20 -7 -88 -6 -95 1 -7 7 54 115 65 115 7 0 15 -12 18 -27z
m-1143 -153 c4 14 8 41 8 60 0 32 5 26 44 -57 24 -50 64 -113 88 -139 l43 -47
-90 7 c-257 19 -243 16 -248 44 -4 20 12 50 67 131 l71 106 5 -65 c4 -49 7
-59 12 -40z m562 35 c8 60 8 60 25 35 9 -14 34 -47 56 -75 l40 -50 -17 -50
c-19 -58 -18 -58 -198 -69 l-104 -7 50 53 c43 45 85 117 120 203 6 15 10 4 14
-40 l5 -60 9 60z m-1225 9 c29 -6 30 -8 17 -23 -9 -9 -35 -57 -60 -106 -25
-50 -58 -110 -75 -135 -35 -51 -38 -81 -16 -180 7 -36 12 -66 10 -68 -9 -10
-114 30 -133 51 -52 55 -44 187 17 312 45 90 72 121 128 140 43 16 67 18 112
9z m2017 -29 c72 -55 135 -195 138 -305 1 -83 -16 -126 -63 -149 -38 -19 -95
-33 -103 -25 -3 2 1 30 8 62 23 98 19 131 -28 203 -22 35 -56 96 -74 135 -18
40 -37 75 -43 79 -6 3 -11 10 -11 15 0 30 132 19 176 -15z m-1800 -6 c20 -17
17 -36 -11 -73 -13 -18 -48 -82 -76 -142 -55 -115 -64 -173 -46 -266 l8 -38
-38 0 c-41 0 -111 28 -130 52 -7 8 -20 50 -29 92 l-16 78 33 51 c19 29 54 93
79 142 54 107 84 130 164 121 26 -3 54 -11 62 -17z m1598 -8 c13 -12 32 -41
41 -64 10 -23 43 -84 73 -135 l54 -92 -12 -68 c-7 -37 -19 -77 -26 -89 -18
-28 -59 -50 -99 -53 -65 -5 -62 -9 -61 98 l0 97 -58 114 c-32 63 -67 127 -78
142 -38 50 -1 81 90 76 37 -3 59 -10 76 -26z m-1419 -31 c43 -21 75 -63 75
-100 0 -16 -5 -21 -22 -18 -17 2 -22 9 -20 26 6 41 -27 25 -48 -24 -59 -136
-81 -260 -58 -323 16 -43 38 -53 38 -17 0 20 5 26 23 26 44 0 49 -14 14 -47
-63 -60 -100 -66 -207 -30 -63 21 -65 23 -72 62 -19 107 -11 145 51 271 34 70
73 132 92 150 53 50 74 53 134 24z m1171 1 c48 -22 83 -73 144 -210 41 -91 42
-96 38 -179 -5 -100 -8 -103 -114 -128 -70 -17 -75 -17 -113 0 -38 17 -99 72
-90 80 2 2 21 6 41 10 38 7 38 7 32 -24 -5 -23 -3 -30 10 -30 21 0 31 41 30
121 -2 92 -88 310 -115 293 -5 -3 -9 -15 -7 -27 3 -19 -3 -22 -34 -25 -43 -4
-43 -3 -24 42 15 35 52 67 101 84 42 15 55 14 101 -7z m-2672 -19 c3 -5 6
-110 6 -233 2 -220 1 -224 -19 -227 -21 -3 -21 -1 -21 232 0 199 2 236 14 236
8 0 17 -4 20 -8z m4094 -224 l-3 -233 -22 -3 -23 -3 0 229 c0 126 3 232 7 235
3 4 15 7 25 7 17 0 18 -12 16 -232z m-5174 181 c58 -16 96 -58 96 -107 0 -127
-212 -170 -281 -58 -27 45 -24 80 12 121 44 50 100 64 173 44z m6352 -21 c105
-72 42 -208 -95 -208 -161 0 -211 172 -66 225 51 19 119 12 161 -17z m-3241
-101 c219 0 342 4 417 14 l107 15 20 -46 c25 -58 41 -118 41 -151 0 -26 -3
-27 -77 -38 -203 -28 -312 -33 -601 -28 -163 4 -337 12 -387 19 l-90 13 -3 34
c-4 35 10 97 35 162 l14 35 107 -15 c74 -10 202 -14 417 -14z m-3150 -144 c33
3 70 8 82 12 18 6 23 2 29 -20 10 -40 -6 -76 -46 -103 -30 -20 -44 -23 -94
-20 -51 4 -63 9 -87 36 -28 31 -37 71 -23 105 5 14 10 14 42 0 25 -10 55 -13
97 -10z m6425 -23 c0 -58 -41 -100 -102 -107 -86 -10 -158 32 -158 91 0 50 12
61 50 47 44 -15 128 -13 165 3 39 17 45 13 45 -34z m-3640 -114 c0 -6 -7 -53
-15 -105 -49 -298 -167 -637 -272 -779 -67 -90 -310 -144 -418 -93 -35 17 -37
19 -15 20 85 3 256 73 326 134 44 39 93 121 80 134 -4 4 -16 -3 -25 -17 -68
-103 -204 -183 -346 -205 l-40 -6 25 18 c127 90 292 304 330 428 7 22 28 75
47 119 19 43 43 117 53 164 17 84 26 99 67 101 29 2 -20 -237 -68 -332 -12
-22 -46 -78 -75 -124 -30 -46 -54 -89 -54 -95 0 -7 23 10 50 37 53 52 124 178
153 270 20 62 47 206 47 248 0 22 10 42 35 67 30 31 40 35 75 32 22 -2 40 -9
40 -16z m858 -16 c29 -33 34 -49 42 -123 13 -111 52 -244 98 -331 38 -73 125
-176 138 -164 4 4 -14 39 -39 77 -93 140 -146 280 -160 424 -4 46 -3 48 17 43
11 -3 26 -6 32 -6 7 0 19 -31 27 -69 9 -38 28 -93 42 -123 15 -29 36 -80 47
-113 60 -177 195 -384 310 -475 55 -44 50 -47 -32 -25 -120 32 -227 97 -281
173 -42 59 -54 34 -15 -32 53 -90 182 -162 341 -190 l70 -13 -33 -17 c-112
-58 -307 -21 -380 72 -89 114 -170 283 -221 463 -45 159 -97 441 -85 461 12
19 51 4 82 -32z m-768 20 l38 0 -4 -77 c-16 -259 -44 -428 -89 -536 -17 -42
-19 -57 -6 -57 5 0 23 34 40 75 61 145 111 382 111 524 l0 74 31 -7 c17 -3 40
-6 51 -6 19 0 20 -5 13 -107 -35 -582 -149 -943 -361 -1144 -81 -76 -140 -108
-89 -48 52 63 105 204 105 282 0 49 -26 30 -40 -30 -8 -31 -32 -93 -55 -137
-71 -141 -179 -205 -331 -193 -98 7 -216 66 -165 82 11 3 53 27 93 54 274 178
464 506 547 941 17 88 41 270 41 311 0 6 7 8 16 5 9 -3 33 -6 54 -6z m670 -52
c0 -155 79 -489 159 -671 55 -128 209 -348 316 -453 34 -34 90 -78 123 -99 34
-21 59 -42 56 -46 -3 -5 -29 -22 -57 -36 -45 -24 -64 -27 -142 -27 -115 0
-175 24 -244 99 -51 57 -79 108 -106 196 -25 83 -34 101 -46 93 -24 -15 19
-190 66 -265 32 -50 31 -53 -6 -33 -113 58 -231 246 -323 517 -61 176 -93 346
-134 695 l-8 72 27 0 c14 0 40 3 56 6 l30 6 7 -72 c8 -81 63 -314 103 -435 29
-90 96 -232 120 -255 14 -13 15 -13 10 0 -3 8 -20 50 -37 93 -36 91 -138 511
-147 604 l-6 63 32 0 c29 0 31 -2 31 -35 0 -54 27 -221 50 -308 25 -95 89
-257 101 -257 14 0 11 13 -30 138 -22 64 -47 153 -56 197 -18 86 -36 255 -28
268 2 4 22 7 44 7 l39 0 0 -62z m-376 0 c3 -24 8 -83 11 -133 28 -415 190
-880 372 -1063 50 -50 54 -59 72 -142 40 -180 117 -314 221 -381 l52 -34 -28
-12 c-41 -17 -110 -16 -150 3 -47 22 -79 64 -105 134 -13 37 -27 60 -37 60
-12 0 -13 -9 -8 -52 4 -28 14 -64 22 -80 19 -36 12 -45 -21 -30 -73 33 -144
207 -170 415 -4 31 -11 47 -21 47 -11 0 -14 -16 -14 -73 0 -82 19 -166 56
-246 13 -30 22 -56 20 -58 -8 -9 -47 67 -66 131 -13 41 -26 66 -33 63 -19 -6
-9 -86 18 -142 13 -27 22 -51 19 -54 -3 -3 -17 2 -32 11 -40 23 -89 122 -102
203 -14 89 -19 107 -31 100 -14 -9 -11 -126 5 -177 11 -38 11 -50 -1 -81 -17
-43 -42 -55 -61 -30 -11 15 -13 53 -8 201 5 148 4 183 -6 180 -8 -3 -20 -42
-29 -94 -42 -226 -68 -279 -156 -309 -21 -7 -39 -12 -41 -11 -1 2 9 24 24 49
30 54 46 163 23 155 -8 -2 -26 -39 -40 -82 -15 -44 -38 -90 -54 -106 -16 -17
-30 -28 -32 -27 -1 2 6 32 16 68 26 93 53 249 49 289 -5 52 -26 48 -33 -7 -11
-77 -53 -273 -71 -331 -18 -56 -61 -102 -95 -102 -23 0 -23 -2 1 51 21 48 27
133 9 127 -6 -2 -20 -25 -30 -52 -25 -68 -58 -112 -100 -135 -41 -23 -111 -28
-156 -10 l-28 11 25 16 c52 35 124 109 161 165 42 64 86 187 95 263 5 41 15
58 56 104 209 231 355 662 375 1113 6 134 7 137 29 137 19 0 24 -6 28 -42z
m-3066 -15 c21 -21 61 -57 90 -81 29 -24 61 -60 71 -80 18 -35 41 -125 41
-158 0 -16 -58 26 -139 100 -85 79 -13 -7 87 -105 117 -113 146 -165 164 -287
12 -91 4 -165 -27 -237 l-17 -40 -18 36 c-35 67 -82 193 -111 299 -27 98 -29
101 -23 45 14 -147 57 -272 178 -513 59 -118 93 -199 106 -255 23 -94 26 -229
8 -309 l-12 -53 -7 105 c-8 126 -26 178 -100 285 -29 44 -75 121 -101 170 -26
50 -48 86 -48 82 -1 -21 66 -159 119 -246 33 -54 66 -120 74 -148 21 -72 30
-172 22 -248 -7 -65 -18 -82 -30 -45 -4 11 -49 62 -101 113 -113 109 -162 178
-199 281 -33 91 -45 93 -20 4 33 -121 72 -187 163 -276 46 -46 83 -85 80 -87
-2 -2 -57 39 -123 92 -227 180 -316 283 -356 412 -30 97 -52 256 -45 331 4 53
3 61 -7 45 -6 -11 -14 -78 -17 -152 l-5 -133 -23 34 c-45 66 -64 143 -60 242
4 87 6 95 66 220 34 71 64 145 68 164 5 30 2 26 -24 -25 -16 -33 -50 -95 -75
-138 -53 -92 -59 -87 -59 48 0 124 20 181 118 327 47 70 92 145 101 168 11 27
22 40 35 40 17 0 18 -5 11 -67 -14 -122 -7 -369 16 -519 23 -155 65 -335 87
-374 11 -19 13 -20 10 -5 -20 80 -67 372 -77 475 -11 118 -8 280 8 423 5 47
10 60 27 67 32 13 34 13 74 -27z m6169 23 c1 -1 7 -60 14 -131 20 -223 3 -420
-69 -798 -17 -86 7 -35 38 83 48 182 72 370 74 565 0 94 -2 196 -7 228 -7 56
-6 58 14 55 14 -2 25 -15 33 -38 7 -19 49 -89 94 -155 100 -148 123 -208 124
-330 1 -49 -2 -100 -6 -113 -7 -21 -13 -15 -53 55 -25 43 -59 105 -75 138 -26
51 -29 55 -24 25 4 -19 34 -93 69 -165 59 -124 62 -134 65 -217 4 -99 -12
-170 -55 -236 l-28 -43 -5 133 c-7 172 -25 210 -26 55 -1 -188 -52 -351 -144
-462 -52 -62 -155 -153 -285 -252 l-100 -77 88 93 c68 70 97 109 122 164 31
68 70 205 62 213 -2 3 -19 -36 -36 -86 -42 -115 -88 -184 -196 -289 -48 -47
-93 -97 -101 -113 -8 -15 -18 -28 -23 -28 -16 0 -23 133 -12 210 15 107 26
138 71 211 46 72 135 251 144 289 4 14 -16 -19 -44 -73 -27 -54 -72 -130 -99
-170 -26 -40 -57 -90 -68 -112 -24 -48 -43 -148 -44 -236 -1 -101 -19 -36 -26
94 -9 167 10 238 124 469 104 212 145 318 167 438 23 121 18 148 -9 45 -27
-106 -72 -230 -108 -300 l-25 -50 -17 38 c-40 96 -42 211 -4 332 22 69 66 128
161 215 37 34 78 76 89 93 l22 32 -39 -36 c-64 -59 -134 -112 -140 -107 -7 8
23 134 41 168 8 16 38 48 67 72 29 24 68 60 88 80 29 31 40 36 65 31 17 -3 31
-6 32 -7z m-3964 -13 c10 -18 -25 -103 -72 -173 -27 -41 -45 -77 -39 -79 23
-8 122 136 138 201 l12 45 76 -22 c88 -26 88 -23 46 -135 -59 -155 -150 -266
-261 -318 -50 -23 -71 -26 -153 -27 -80 0 -102 4 -137 23 -37 19 -83 68 -72
75 2 2 31 13 64 26 158 63 316 227 340 354 6 30 12 37 31 37 12 0 25 -3 27 -7z
m1753 -20 c14 -66 28 -96 68 -150 75 -101 200 -198 290 -223 50 -14 54 -20 30
-45 -39 -38 -78 -50 -169 -50 -83 0 -95 3 -155 35 -40 21 -95 64 -142 111 -62
62 -85 95 -122 171 -25 52 -46 101 -46 109 0 13 55 33 144 52 5 1 14 -19 21
-44 13 -53 60 -131 104 -174 48 -45 45 -24 -8 56 -27 41 -56 98 -65 127 l-15
52 29 0 c24 0 31 -5 36 -27z m-2893 3 c52 -22 82 -61 81 -107 -3 -109 -172
-157 -262 -74 -31 28 -37 40 -37 73 0 91 120 150 218 108z m4092 -6 c45 -22
75 -64 75 -105 0 -38 -65 -101 -113 -110 -109 -21 -217 62 -186 142 32 84 133
117 224 73z m-4242 -245 c20 -8 57 -15 82 -15 25 0 62 7 82 15 19 8 39 15 44
15 14 0 10 -68 -6 -99 -16 -32 -77 -61 -126 -61 -84 0 -149 76 -123 144 7 19
4 19 47 1z m4293 -10 c14 -58 -27 -119 -90 -130 -83 -16 -166 29 -166 88 0 51
12 62 50 48 44 -15 118 -13 155 4 42 19 44 18 51 -10z m-4100 -196 c16 -17 52
-49 81 -70 61 -45 98 -103 113 -176 19 -87 13 -89 -65 -27 -38 31 -74 58 -80
62 -5 3 42 -48 106 -114 146 -150 162 -184 163 -349 1 -84 -3 -121 -17 -157
-10 -27 -22 -48 -26 -48 -19 0 -106 226 -136 348 -9 40 -19 71 -22 68 -9 -9
29 -193 56 -276 16 -47 72 -172 124 -278 63 -126 101 -218 112 -265 18 -80 22
-203 10 -287 -8 -50 -9 -52 -16 -25 -3 17 -7 50 -8 75 -2 87 -29 159 -98 264
-36 56 -90 151 -119 211 -30 61 -54 107 -54 103 0 -26 82 -204 136 -295 36
-59 71 -130 80 -158 19 -65 29 -187 19 -261 l-7 -58 -21 29 c-12 17 -69 80
-128 140 -109 112 -147 172 -184 283 -25 79 -30 55 -6 -33 32 -117 65 -171
165 -274 79 -82 85 -90 42 -60 -87 61 -290 234 -334 284 -97 113 -153 290
-155 489 0 82 -3 103 -11 85 -5 -13 -10 -81 -10 -151 -1 -80 -5 -127 -11 -125
-5 1 -26 34 -45 72 -33 66 -35 74 -35 175 l0 105 68 141 c37 78 67 152 67 165
0 17 -8 7 -29 -36 -16 -33 -49 -95 -74 -139 l-45 -79 -8 48 c-3 26 -4 85 -1
130 6 102 27 152 130 302 41 61 81 127 88 147 9 24 19 36 32 36 17 0 18 -6 10
-82 -17 -172 1 -436 43 -648 16 -82 65 -252 71 -247 2 2 -8 65 -22 139 -49
269 -57 339 -57 518 0 188 13 308 34 321 24 16 44 9 74 -22z m3936 19 c13 -10
19 -47 28 -168 14 -194 3 -347 -45 -612 -19 -105 -33 -193 -31 -195 8 -9 60
190 81 312 35 207 49 408 36 534 -14 133 -14 131 7 131 12 0 23 -13 31 -35 7
-20 46 -86 88 -146 107 -158 125 -202 131 -318 4 -103 -8 -183 -24 -146 -4 11
-30 58 -57 105 -27 47 -55 101 -63 120 -11 31 -13 32 -13 10 -1 -13 29 -88 67
-165 l67 -140 0 -105 c0 -101 -2 -109 -35 -175 -19 -38 -39 -71 -45 -72 -6 -2
-9 35 -7 99 2 69 -2 118 -12 148 l-14 45 5 -65 c6 -73 -16 -223 -46 -320 -45
-143 -132 -246 -359 -423 -146 -114 -151 -115 -46 -6 110 113 150 187 183 338
13 59 -1 40 -29 -39 -41 -116 -69 -159 -184 -279 -63 -65 -117 -128 -121 -140
-11 -37 -23 -23 -31 35 -16 134 11 266 78 376 53 87 131 245 142 288 4 14 -18
-23 -48 -83 -30 -59 -75 -135 -99 -170 -81 -113 -107 -189 -107 -307 0 -32 -4
-61 -9 -65 -15 -9 -24 97 -18 213 6 132 25 187 135 407 96 192 135 298 157
434 19 113 15 148 -5 49 -16 -77 -68 -230 -109 -318 l-29 -65 -22 48 c-41 92
-36 254 11 363 13 32 58 86 139 169 117 120 164 177 75 91 -25 -23 -65 -57
-90 -75 l-45 -32 0 24 c0 14 9 55 21 93 17 54 30 75 67 110 159 146 161 147
194 122z"/>
<path d="M3256 7624 c-15 -38 41 -155 77 -162 25 -5 21 13 -13 59 -16 23 -32
57 -36 75 -7 39 -19 51 -28 28z"/>
<path d="M3401 7564 c-1 -59 38 -146 76 -171 43 -28 47 -1 7 50 -20 26 -47 75
-60 109 l-23 63 0 -51z"/>
<path d="M6987 7633 c-3 -5 -8 -22 -11 -39 -4 -16 -22 -52 -41 -79 -37 -52
-38 -61 -6 -50 40 12 100 152 73 169 -6 3 -13 3 -15 -1z"/>
<path d="M6846 7580 c-11 -44 -48 -115 -82 -157 -23 -29 -24 -34 -10 -39 41
-16 109 103 104 182 l-3 49 -9 -35z"/>
<path d="M4799 7600 c64 -80 117 -183 177 -337 25 -65 49 -122 55 -127 33 -35
14 77 -34 193 -40 97 -111 202 -188 276 l-62 60 52 -65z"/>
<path d="M5439 7593 c-74 -77 -113 -132 -157 -220 -31 -61 -72 -190 -72 -226
0 -45 26 -1 81 136 67 170 102 236 171 318 27 33 47 59 45 59 -2 0 -33 -30
-68 -67z"/>
<path d="M4989 7515 c59 -120 73 -192 80 -405 6 -170 8 -183 21 -155 10 21 14
70 14 170 0 115 -4 154 -23 220 -24 84 -65 171 -106 220 -20 24 -17 15 14 -50z"/>
<path d="M5265 7543 c-78 -108 -121 -284 -112 -458 6 -104 14 -145 27 -145 4
0 10 84 13 188 5 211 21 288 82 400 19 34 33 62 30 62 -3 0 -20 -21 -40 -47z"/>
<path d="M3983 6849 c-63 -40 -87 -116 -59 -183 15 -35 14 -41 -5 -99 -26 -76
-22 -169 9 -239 28 -65 104 -142 169 -175 72 -35 184 -43 267 -19 51 15 59 15
79 1 28 -19 100 -19 138 0 65 34 87 120 47 185 -18 29 -22 51 -22 130 -1 83
-5 102 -29 152 -40 82 -120 152 -204 178 -36 11 -89 20 -118 20 -40 0 -56 5
-71 21 -47 52 -142 66 -201 28z m157 -27 c37 -27 61 -82 54 -121 -13 -66 -93
-113 -161 -97 -14 4 -42 23 -61 42 -32 32 -34 38 -30 84 3 29 13 59 24 71 44
50 121 59 174 21z m232 -68 c56 -19 120 -67 151 -111 44 -64 57 -107 57 -188
l0 -75 -57 0 c-39 0 -68 -6 -89 -19 -39 -24 -68 -83 -60 -125 13 -72 14 -70
-39 -84 -142 -37 -308 38 -376 170 -31 60 -38 182 -15 243 l18 45 31 -17 c44
-23 122 -21 156 4 44 33 71 82 71 128 0 23 3 45 7 49 10 9 96 -3 145 -20z
m188 -409 c66 -34 82 -115 31 -165 -51 -52 -111 -52 -162 0 -49 49 -38 123 24
160 38 24 68 25 107 5z"/>
<path d="M4384 6616 c-66 -29 -84 -101 -38 -155 30 -36 81 -49 125 -31 84 35
80 157 -8 191 -31 12 -41 11 -79 -5z m95 -33 c11 -10 24 -32 27 -50 5 -26 1
-37 -19 -57 -52 -51 -137 -20 -137 50 0 61 81 96 129 57z"/>
<path d="M3965 6520 c-9 -14 13 -105 36 -152 46 -92 127 -148 213 -148 39 0
53 5 77 30 23 22 29 35 24 52 -11 37 -38 53 -123 71 -94 21 -168 65 -194 115
-21 42 -24 46 -33 32z m229 -175 c41 -9 80 -23 86 -30 18 -22 2 -53 -35 -65
-47 -16 -106 2 -156 47 -34 30 -79 98 -79 117 0 3 25 -8 55 -24 29 -16 88 -36
129 -45z"/>
<path d="M6085 6859 c-11 -6 -31 -22 -45 -34 -20 -18 -40 -24 -100 -27 -46 -3
-94 -13 -122 -26 -62 -27 -143 -104 -176 -167 -24 -44 -27 -62 -28 -150 0 -84
-4 -106 -22 -135 -40 -65 -18 -151 47 -185 38 -19 110 -19 138 0 20 14 28 14
79 -1 83 -24 195 -16 267 19 65 33 141 110 169 175 31 70 35 163 9 240 -21 61
-21 64 -4 111 16 46 16 51 -1 95 -23 61 -64 89 -135 93 -31 2 -65 -2 -76 -8z
m120 -23 c79 -33 99 -142 36 -198 -55 -50 -126 -49 -180 1 -60 56 -46 152 28
191 44 23 71 25 116 6z m-204 -120 c6 -49 12 -64 41 -93 53 -53 120 -62 190
-27 26 13 26 13 42 -33 66 -194 -61 -386 -276 -418 -47 -7 -153 9 -163 25 -3
5 0 28 6 52 10 37 9 49 -6 82 -26 54 -67 77 -135 74 l-54 -2 -8 35 c-26 114
53 266 172 330 32 17 127 38 160 36 23 -2 26 -7 31 -61z m-241 -371 c89 -46
76 -167 -20 -196 -71 -22 -140 28 -140 101 0 83 85 134 160 95z"/>
<path d="M5744 6614 c-78 -38 -75 -150 5 -184 64 -26 151 23 151 86 0 41 -29
85 -65 100 -43 17 -52 17 -91 -2z m100 -35 c53 -42 19 -129 -51 -129 -41 0
-83 38 -83 75 0 35 42 75 78 75 16 0 41 -9 56 -21z"/>
<path d="M6230 6515 c0 -56 -87 -115 -210 -144 -107 -25 -144 -64 -107 -112
55 -72 193 -43 268 54 54 72 92 204 62 214 -7 3 -13 -3 -13 -12z m-20 -103 c0
-4 -13 -29 -30 -55 -34 -55 -96 -102 -144 -111 -46 -9 -106 16 -106 43 0 24
36 51 68 51 33 0 142 39 172 61 27 20 40 24 40 11z"/>
<path d="M5017 6224 c-7 -7 9 -62 24 -80 13 -16 49 -19 49 -4 0 35 -57 100
-73 84z"/>
<path d="M5232 6213 c-17 -7 -44 -61 -37 -73 12 -20 32 -9 53 29 12 21 22 41
22 45 0 7 -19 7 -38 -1z"/>
<path d="M5849 5675 c-33 -52 -95 -96 -208 -146 -47 -21 -87 -43 -89 -49 -7
-19 20 -10 114 36 102 50 184 116 204 164 19 46 8 43 -21 -5z"/>
<path d="M4381 5707 c-2 -20 33 -69 76 -107 59 -51 251 -146 266 -131 7 7 1
14 -19 22 -169 70 -260 129 -306 199 -9 14 -17 21 -17 17z"/>
<path d="M5102 2088 c-5 -8 -12 -110 -15 -243 -5 -233 -23 -367 -62 -464 l-15
-36 20 23 c33 39 58 142 85 344 28 216 33 359 11 377 -10 8 -16 8 -24 -1z"/>
<path d="M5180 1723 c0 -154 34 -400 61 -442 8 -12 9 -7 5 19 -2 19 -10 125
-16 235 -13 233 -20 287 -37 293 -10 3 -13 -23 -13 -105z"/>
<path d="M2200 1585 c0 -5 5 -17 10 -25 5 -8 10 -10 10 -5 0 6 -5 17 -10 25
-5 8 -10 11 -10 5z"/>
</g>
</svg>
