<?xml version="1.0" standalone="no"?>
<!DOCTYPE svg PUBLIC "-//W3C//DTD SVG 20010904//EN"
 "http://www.w3.org/TR/2001/REC-SVG-20010904/DTD/svg10.dtd">
<svg version="1.0" xmlns="http://www.w3.org/2000/svg"
 width="1024.000000pt" height="1024.000000pt" viewBox="0 0 1024.000000 1024.000000"
 preserveAspectRatio="xMidYMid meet">
<metadata>
Created by potrace 1.14, written by Peter Selinger 2001-2017
</metadata>
<g transform="translate(0.000000,1024.000000) scale(0.100000,-0.100000)"
fill="#000000" stroke="none">
<path d="M3965 9966 c-319 -133 -557 -288 -780 -510 -345 -346 -547 -765 -611
-1271 -17 -131 -20 -448 -5 -555 4 -36 7 -66 6 -67 -1 -2 -26 10 -56 26 -30
16 -88 39 -129 51 -41 12 -95 33 -119 46 -47 26 -61 24 -61 -8 0 -11 -12 -64
-27 -117 -28 -102 -36 -221 -20 -313 l8 -48 -100 0 c-115 0 -178 19 -243 70
-49 40 -54 28 -38 -82 36 -246 159 -458 347 -595 56 -42 62 -48 41 -51 -12 -2
-26 -7 -30 -10 -4 -4 -8 -182 -9 -396 -2 -451 -9 -419 110 -476 40 -20 97 -57
127 -83 l54 -48 0 -322 -1 -322 -32 -20 c-17 -11 -38 -33 -45 -49 -20 -40 2
-94 45 -115 l33 -16 0 -297 0 -297 -30 -16 c-38 -20 -64 -68 -55 -104 8 -30
43 -71 62 -71 7 0 13 -3 13 -7 0 -3 -31 -89 -70 -189 -38 -101 -70 -188 -70
-194 0 -11 158 -213 169 -218 4 -1 47 47 95 108 l87 110 -83 187 -84 188 38
36 c21 20 38 45 38 57 0 38 -19 73 -50 90 l-30 17 0 302 c0 296 0 302 21 308
23 8 59 61 59 87 0 31 -24 69 -52 84 l-28 15 0 297 c1 280 2 295 17 267 9 -16
22 -48 28 -70 11 -34 16 -40 40 -40 33 -1 29 8 89 -195 25 -85 75 -240 111
-345 36 -104 70 -208 76 -230 6 -22 17 -47 26 -57 16 -18 14 -24 -29 -78 -56
-71 -84 -208 -93 -450 -1 -41 -8 -118 -15 -170 -7 -56 -9 -127 -5 -172 5 -66
3 -82 -14 -117 -48 -94 -62 -219 -37 -338 27 -126 43 -134 62 -31 14 77 55
183 98 253 56 93 116 162 277 315 l160 153 25 -25 c16 -15 28 -41 31 -66 l5
-41 -78 -50 c-44 -27 -109 -68 -146 -92 -67 -43 -175 -144 -224 -209 -72 -98
-116 -225 -113 -327 1 -54 -4 -81 -24 -129 -31 -74 -48 -214 -26 -214 8 0 26
27 42 60 37 79 122 162 287 280 76 55 162 126 201 169 l69 73 0 -34 c0 -71
-126 -213 -296 -333 -180 -128 -274 -235 -323 -368 -23 -64 -29 -204 -11 -252
7 -20 6 -49 -6 -108 -12 -59 -15 -113 -12 -198 5 -105 8 -124 37 -184 45 -96
107 -179 235 -315 164 -174 190 -210 219 -311 14 -46 28 -107 32 -134 11 -81
12 -82 53 -43 20 19 69 60 108 91 88 69 187 191 237 291 40 82 87 231 87 279
0 22 10 39 34 62 40 36 71 125 90 257 11 79 13 82 26 58 22 -39 20 -195 -4
-248 -11 -23 -16 -46 -12 -50 20 -19 113 147 141 253 9 33 19 102 21 154 2 52
8 111 14 130 17 60 12 183 -10 253 -24 78 -81 173 -140 235 -25 25 -105 91
-179 146 -222 165 -311 260 -311 335 l0 41 88 -87 c48 -48 141 -126 207 -172
153 -108 242 -196 275 -272 14 -32 31 -58 39 -58 23 0 8 135 -23 212 -21 51
-26 82 -26 147 0 139 -45 233 -183 378 -39 42 -67 74 -62 71 6 -2 42 -19 81
-37 62 -29 76 -41 104 -87 55 -91 78 -156 106 -302 8 -41 28 -18 47 54 13 48
17 97 15 162 -2 74 0 91 10 87 8 -3 38 -5 68 -5 l54 0 0 -99 0 -99 -31 -12
c-69 -29 -119 -140 -119 -265 0 -166 84 -295 184 -282 52 7 85 33 118 92 74
136 54 342 -42 429 -22 20 -49 36 -60 36 -19 0 -20 7 -20 99 l0 99 72 12 c40
7 97 21 127 31 30 11 56 17 58 15 2 -2 -2 -16 -8 -32 -7 -16 -14 -74 -16 -129
-15 -418 -19 -456 -52 -545 -30 -80 -32 -92 -28 -190 4 -104 29 -200 52 -204
6 0 13 22 16 50 14 109 86 270 173 382 44 57 337 344 344 337 8 -7 -48 -118
-80 -158 -18 -23 -84 -96 -148 -162 -193 -200 -256 -317 -248 -459 3 -57 0
-81 -18 -121 -38 -87 -58 -225 -34 -240 5 -3 23 22 41 57 43 86 119 162 294
292 146 110 227 184 266 242 l19 29 0 -46 c0 -35 -7 -56 -31 -90 -58 -82 -153
-171 -304 -284 -191 -143 -271 -240 -311 -380 -18 -65 -21 -179 -5 -234 8 -25
6 -52 -6 -105 -22 -98 -21 -255 1 -331 46 -156 180 -332 379 -497 132 -109
160 -137 204 -206 48 -75 75 -141 75 -189 1 -24 6 -43 12 -43 6 0 30 26 53 58
23 31 87 109 142 172 162 183 221 322 221 516 0 81 4 111 21 149 11 26 31 88
43 139 l23 91 13 -54 c16 -67 9 -174 -15 -223 -10 -21 -15 -41 -11 -45 20 -20
119 165 146 273 12 46 20 110 20 160 0 45 5 95 11 111 20 49 15 190 -9 268
-46 147 -122 241 -305 373 -136 97 -235 186 -296 266 -34 44 -41 60 -40 97 l0
44 17 -25 c36 -54 115 -129 194 -185 273 -194 318 -235 371 -342 17 -35 35
-63 40 -63 20 0 1 163 -26 231 -22 52 -27 82 -27 145 0 155 -41 231 -230 430
-167 175 -251 291 -249 344 0 9 3 10 5 3 3 -6 63 -63 134 -127 71 -64 159
-153 195 -199 85 -105 160 -256 180 -362 16 -81 30 -111 40 -84 26 71 35 126
35 219 0 89 -4 116 -27 175 -22 59 -28 94 -34 225 -16 304 -42 596 -59 652
-26 90 -111 184 -255 287 -37 27 -50 41 -35 36 51 -14 131 -58 167 -91 42 -40
49 -41 56 -14 7 26 -6 71 -32 114 -12 18 -21 49 -21 67 0 55 -45 136 -110 200
-33 32 -58 59 -55 59 21 0 89 -47 135 -94 67 -69 84 -72 75 -13 -12 68 -56
147 -121 217 -60 63 -62 66 -50 95 l13 30 18 -35 c54 -106 183 -242 242 -256
22 -6 23 -9 23 -120 0 -63 -4 -114 -9 -114 -5 0 -23 -12 -40 -26 -65 -54 -22
-164 64 -164 50 0 95 44 95 93 0 38 -29 82 -60 92 -18 6 -20 16 -20 116 l0
109 44 0 c36 0 129 23 192 47 11 4 14 -10 14 -66 0 -65 -2 -72 -22 -80 -34
-13 -58 -44 -64 -83 -5 -27 -1 -40 21 -66 15 -18 33 -32 41 -32 12 0 14 -123
14 -835 l0 -836 -40 -38 c-30 -28 -40 -46 -40 -69 0 -33 42 -92 66 -92 12 0
14 -67 14 -433 l0 -432 -42 -20 c-49 -23 -101 -93 -119 -157 -49 -185 51 -388
191 -388 108 0 200 127 200 278 0 153 -62 250 -182 286 -17 5 -18 34 -18 430
l0 425 30 16 c77 40 72 145 -7 176 l-23 9 0 834 0 835 30 16 c38 20 64 68 55
104 -8 30 -43 71 -62 71 -7 0 -13 3 -13 8 -1 4 -3 39 -6 79 l-5 72 63 32 c45
22 90 59 161 130 l97 99 0 -48 c0 -26 -5 -63 -11 -82 -6 -19 -15 -111 -19
-205 -7 -152 -11 -178 -36 -245 -24 -65 -28 -88 -28 -175 1 -101 27 -218 49
-217 5 1 17 36 26 80 46 214 145 354 437 624 71 65 83 73 77 50 -12 -53 -72
-136 -180 -253 -179 -194 -224 -249 -255 -313 -36 -74 -53 -155 -45 -218 5
-37 1 -60 -19 -112 -37 -93 -53 -236 -27 -236 4 0 20 28 36 63 38 81 134 176
287 285 130 92 218 168 260 226 l28 39 0 -40 c0 -81 -124 -222 -310 -353 -133
-94 -190 -147 -251 -234 -85 -120 -115 -247 -90 -375 10 -50 9 -75 -4 -142
-30 -160 -15 -300 45 -418 42 -84 103 -161 243 -310 69 -73 138 -151 153 -172
34 -50 61 -130 80 -244 9 -49 17 -92 19 -94 2 -2 18 11 36 28 17 18 66 58 108
90 161 123 277 306 325 514 9 38 16 79 16 92 0 15 10 31 26 41 14 10 33 33 43
53 16 32 48 160 66 266 l7 40 15 -40 c9 -22 16 -74 16 -115 1 -60 -3 -85 -22
-123 -13 -26 -21 -51 -17 -54 12 -13 46 32 90 120 57 115 76 187 76 297 0 47
7 107 15 134 45 149 -13 346 -144 488 -35 37 -118 107 -184 155 -134 96 -239
191 -292 263 -27 36 -35 58 -35 89 0 48 9 52 33 12 27 -46 135 -141 263 -231
150 -106 253 -207 291 -285 15 -32 33 -56 38 -54 21 8 8 132 -21 199 -23 54
-27 77 -25 134 5 149 -44 254 -193 416 -194 212 -231 257 -259 313 -15 31 -27
61 -27 68 0 19 296 -268 351 -340 72 -95 137 -233 158 -336 9 -47 21 -87 27
-88 5 -1 18 23 28 53 15 42 20 82 20 170 0 104 -3 122 -29 185 -26 63 -30 86
-37 235 -7 157 -17 299 -37 510 -16 179 -67 258 -253 394 -37 27 -66 51 -64
53 9 10 137 -58 174 -92 44 -40 62 -39 62 2 0 77 -75 159 -219 239 -128 71
-205 128 -245 183 l-36 49 0 168 0 169 39 90 c84 196 163 481 209 755 7 40 10
-28 10 -250 l1 -305 -32 -20 c-59 -38 -59 -113 1 -140 12 -5 22 -14 22 -18 0
-5 -16 -45 -36 -90 -20 -45 -51 -117 -70 -160 l-33 -78 86 -96 87 -96 88 93
c48 50 88 97 88 102 0 6 -36 81 -79 167 l-80 157 35 27 c53 43 46 111 -16 137
l-30 12 0 420 0 420 39 -50 c24 -30 71 -69 117 -98 83 -52 134 -110 134 -155
0 -48 21 -46 68 7 90 101 160 248 183 381 6 37 13 73 15 80 5 20 214 -72 214
-95 0 -4 11 -20 24 -37 l25 -30 24 55 c73 163 65 376 -17 468 -28 32 -32 41
-25 67 5 16 6 45 3 65 -5 33 -3 36 34 52 60 28 117 82 199 192 42 55 116 140
164 187 129 125 136 157 58 246 -65 74 -91 132 -129 289 -17 70 -39 142 -50
159 -25 40 -66 58 -111 50 l-34 -6 -13 53 c-6 29 -18 58 -25 66 -9 9 -46 14
-114 15 -120 2 -107 -7 -243 167 -115 147 -170 204 -210 219 -26 9 -38 6 -93
-25 -198 -110 -297 -144 -423 -144 l-79 0 -69 91 c-212 279 -498 506 -816 648
-183 82 -198 73 -78 -50 211 -214 369 -457 448 -687 33 -99 60 -210 60 -254 0
-26 -2 -27 -27 -17 -65 25 -179 29 -342 14 -181 -16 -316 -9 -445 25 -84 22
-89 18 -81 -60 4 -37 20 -81 51 -139 83 -157 158 -244 278 -324 l38 -25 -38
-20 c-56 -29 -133 -116 -174 -196 -19 -38 -52 -87 -73 -110 -21 -22 -35 -46
-33 -53 9 -23 108 -64 244 -100 109 -29 156 -37 229 -37 l92 0 -36 -46 c-452
-568 -1248 -738 -1895 -403 -429 222 -736 655 -802 1132 -72 514 114 939 589
1348 81 70 67 83 -40 39z m-113 -143 c-239 -237 -370 -453 -444 -733 -29 -108
-31 -126 -31 -300 0 -152 4 -204 22 -290 126 -599 559 -1057 1141 -1205 561
-143 1166 45 1544 480 181 209 299 447 357 725 29 140 32 404 5 525 -64 290
-209 550 -464 833 -74 81 -74 82 -36 66 226 -94 452 -245 638 -424 350 -339
575 -785 653 -1300 24 -158 24 -483 0 -635 -112 -701 -465 -1259 -1037 -1638
-124 -82 -364 -201 -506 -250 -337 -118 -722 -158 -1072 -112 l-143 18 -32 61
c-41 78 -41 80 -30 73 5 -3 65 -16 134 -28 169 -31 547 -34 709 -6 491 86 894
292 1230 627 288 288 488 640 588 1035 49 193 57 268 57 540 0 230 -3 274 -23
380 -87 451 -277 829 -574 1141 -52 55 -111 118 -133 142 -32 36 -65 54 -65
37 0 -3 22 -47 49 -99 55 -104 99 -236 132 -396 31 -151 31 -439 0 -590 -48
-234 -147 -467 -273 -645 -82 -118 -268 -303 -388 -388 -177 -125 -393 -218
-625 -269 -135 -29 -473 -32 -605 -5 -184 38 -391 115 -530 198 -280 166 -496
399 -635 684 -102 207 -149 377 -165 596 -24 307 33 600 168 862 2 4 -4 7 -14
7 -27 0 -209 -192 -307 -322 -219 -292 -356 -609 -424 -983 -25 -143 -26 -566
0 -710 29 -158 73 -319 126 -452 l20 -52 -55 -11 c-31 -7 -58 -9 -61 -7 -11
12 -86 248 -108 342 -45 194 -59 326 -59 545 0 221 14 347 60 543 152 648 586
1168 1221 1462 54 24 99 45 101 45 2 0 -50 -53 -116 -117z m2804 -601 c14 -29
18 -63 18 -157 1 -134 -9 -177 -56 -250 l-32 -50 -8 75 c-26 262 -58 413 -117
560 l-30 75 104 -108 c56 -59 111 -124 121 -145z m-3283 171 c-56 -149 -102
-365 -104 -487 0 -33 -3 -79 -8 -101 l-7 -40 -32 50 c-18 28 -38 68 -44 90
-14 44 -17 243 -5 288 8 29 85 126 171 215 27 28 51 52 53 52 1 0 -9 -30 -24
-67z m4121 -73 c35 -21 74 -65 186 -210 40 -52 77 -101 83 -108 8 -10 4 -10
-19 -2 -44 17 -161 40 -203 40 -21 0 -85 -15 -143 -34 -170 -56 -329 -81 -364
-58 -6 4 -22 27 -34 52 -13 25 -38 69 -56 98 -19 29 -34 55 -34 57 0 3 26 5
58 5 112 0 271 55 417 143 33 21 64 37 69 37 5 0 23 -9 40 -20z m-765 -194
c37 -59 26 -239 -20 -334 -21 -43 -111 -142 -129 -142 -6 0 -10 18 -10 39 0
32 5 43 30 61 67 48 118 216 104 348 -3 34 -4 62 -1 62 3 0 15 -15 26 -34z
m-3594 -33 c-14 -125 39 -296 105 -343 25 -18 30 -29 30 -61 0 -21 -4 -39 -10
-39 -18 0 -108 99 -129 142 -45 93 -56 268 -21 326 11 17 22 32 26 32 3 0 3
-26 -1 -57z m3718 -168 c45 -84 128 -268 123 -272 -1 -2 -20 7 -42 18 -49 26
-131 21 -192 -10 -181 -92 -214 -287 -85 -508 15 -27 67 -105 115 -174 75
-107 198 -333 198 -363 0 -6 -15 4 -32 21 -91 87 -215 135 -348 135 -180 1
-301 -82 -336 -229 -16 -67 -5 -147 28 -200 47 -77 156 -143 237 -143 85 0
168 60 192 139 37 125 -75 241 -181 186 -50 -26 -66 -88 -34 -133 15 -21 14
-22 -18 -22 -117 0 -156 148 -62 237 45 42 92 56 178 51 134 -6 242 -80 298
-204 32 -73 37 -202 9 -291 -57 -187 -200 -257 -413 -204 -110 28 -169 52
-392 158 -98 47 -210 96 -250 109 -69 24 -245 47 -276 36 -34 -12 2 9 105 62
380 196 673 535 811 938 33 96 74 277 74 324 0 15 9 28 28 38 38 20 109 93
138 141 29 50 54 152 54 225 1 51 2 54 16 35 8 -11 34 -56 57 -100z m-3773
-75 c7 -25 19 -58 27 -74 20 -38 100 -124 138 -147 27 -17 31 -26 48 -126 83
-490 407 -932 862 -1174 l106 -56 -76 -6 c-113 -10 -267 -66 -506 -183 -116
-57 -215 -104 -220 -104 -4 0 -28 28 -53 63 -86 120 -105 125 -253 55 -54 -26
-112 -49 -129 -53 -30 -6 -32 -3 -65 62 -33 65 -34 71 -34 182 0 99 3 123 23
165 38 83 85 132 166 172 71 34 78 36 158 33 73 -3 91 -8 127 -32 53 -35 86
-102 77 -153 -12 -61 -89 -126 -131 -110 -15 5 -15 8 -1 28 37 53 5 132 -59
144 -74 13 -136 -30 -157 -108 -29 -113 67 -228 193 -228 81 0 190 66 237 143
69 112 34 280 -75 363 -148 113 -424 80 -581 -69 l-32 -31 19 55 c34 101 92
204 193 345 54 76 116 172 136 212 31 64 36 85 40 163 4 81 2 94 -22 144 -63
127 -226 202 -327 149 -17 -8 -33 -13 -36 -11 -7 8 88 214 137 297 l45 75 6
-70 c4 -38 12 -90 19 -115z m4364 104 c-106 -75 -286 -164 -330 -164 -9 0 -64
105 -64 121 0 2 30 5 66 6 79 2 169 22 284 62 125 43 134 38 44 -25z m287 20
c62 -19 111 -27 186 -29 57 -2 107 -6 112 -9 22 -14 32 -113 23 -220 -11 -125
0 -276 29 -390 26 -107 25 -175 -3 -211 -12 -15 -50 -41 -83 -56 -85 -38 -300
-92 -264 -66 28 20 127 106 136 117 27 32 35 78 21 108 -10 20 -12 36 -5 56 6
18 5 48 -3 89 -7 34 -16 129 -19 210 -7 176 -8 177 -121 196 -72 11 -115 30
-179 76 -58 42 -117 27 -199 -49 -27 -25 -68 -54 -93 -65 -54 -25 -138 -28
-140 -6 -1 8 -2 20 -3 26 -1 6 26 21 59 34 93 35 179 81 281 151 111 76 133
79 265 38z m-2033 -59 c89 -18 268 -19 414 -3 73 8 111 9 118 2 28 -28 61
-356 38 -379 -16 -16 -277 74 -419 145 -101 51 -185 116 -229 177 -46 65 -51
89 -17 79 12 -4 55 -13 95 -21z m697 -19 l40 -12 -2 -145 c-1 -79 -6 -164 -10
-189 -9 -43 -10 -45 -44 -44 -86 2 -84 0 -81 124 3 101 -11 215 -34 273 -6 17
-3 18 42 11 27 -4 67 -12 89 -18z m-745 -114 c52 -50 110 -88 200 -131 44 -22
77 -42 73 -44 -18 -11 -117 -18 -161 -12 -47 6 -49 8 -99 88 -59 95 -93 161
-93 179 0 7 10 0 22 -17 13 -16 38 -45 58 -63z m1911 32 c51 -39 114 -65 182
-74 39 -6 66 -15 74 -26 8 -11 13 -50 13 -103 0 -47 7 -141 17 -208 9 -68 14
-126 10 -130 -18 -18 -153 153 -163 207 -12 64 -39 87 -177 155 -72 36 -140
65 -151 65 -13 0 -50 -30 -97 -80 l-76 -79 -22 65 c-26 79 -26 74 2 74 46 0
127 31 169 65 135 109 157 116 219 69z m626 -9 c24 -17 49 -87 78 -220 24
-109 53 -170 113 -239 34 -39 52 -68 52 -85 0 -37 -30 -82 -89 -131 -28 -24
-88 -91 -134 -149 -169 -216 -222 -257 -326 -249 -50 3 -74 13 -165 68 l-107
64 39 39 c35 34 51 42 153 67 305 76 362 133 315 319 -33 128 -48 272 -41 398
6 101 10 123 23 126 36 10 68 6 89 -8z m-682 -194 c66 -32 129 -69 139 -80 26
-28 26 -104 1 -151 l-19 -35 -13 64 c-7 35 -19 71 -25 79 -24 28 -83 44 -183
49 l-100 5 -47 -36 c-39 -30 -47 -33 -52 -19 -7 17 4 32 93 126 31 31 62 57
71 57 9 0 70 -27 135 -59z m-4419 29 c64 -31 120 -98 140 -167 14 -48 15 -68
6 -122 -15 -88 -53 -161 -175 -333 -162 -228 -219 -363 -263 -623 l-7 -40 -13
60 c-7 33 -13 94 -13 135 0 175 65 316 261 562 95 119 128 178 136 243 7 66
-5 111 -41 149 -86 91 -225 56 -257 -64 -6 -22 -8 -51 -4 -65 8 -33 -10 -33
-32 0 -13 20 -16 40 -12 90 7 76 43 146 91 176 43 26 127 25 183 -1z m3847 1
c78 -51 125 -206 81 -269 -23 -34 -30 -27 -30 33 -1 46 -6 62 -31 92 -60 74
-163 77 -230 7 -36 -38 -48 -83 -41 -149 8 -65 41 -124 136 -243 196 -246 261
-387 261 -562 0 -41 -6 -102 -13 -135 l-13 -60 -7 55 c-27 197 -105 375 -259
595 -50 72 -109 166 -131 210 -35 71 -40 90 -44 167 -4 74 -1 93 17 132 56
115 219 183 304 127z m-828 -94 c55 -19 135 -42 178 -52 42 -10 77 -22 77 -26
0 -14 -95 -89 -144 -114 -32 -16 -67 -25 -96 -25 -41 0 -59 9 -185 94 -77 52
-151 106 -164 120 l-24 26 79 1 c43 1 93 5 109 9 39 11 51 8 170 -33z m-3034
-40 c43 -29 63 -69 61 -128 -1 -65 -37 -132 -143 -265 -129 -164 -201 -284
-230 -384 -7 -25 -15 -49 -19 -53 -13 -15 -19 212 -10 350 10 131 19 197 42
305 l10 48 25 -31 c20 -24 32 -29 57 -27 22 2 30 8 27 18 -15 61 -12 96 11
130 43 63 109 78 169 37z m3851 -16 c35 -39 44 -75 31 -123 -6 -21 -8 -40 -5
-43 14 -14 57 -2 82 24 34 34 32 37 54 -89 24 -132 37 -351 30 -477 -4 -63
-10 -110 -14 -106 -4 4 -12 28 -19 53 -29 100 -101 220 -230 384 -49 61 -100
135 -115 164 -31 61 -37 132 -15 177 38 79 145 98 201 36z m568 9 c75 -14 88
-29 96 -114 5 -39 7 -77 6 -83 -5 -21 25 -14 41 10 15 20 16 14 16 -100 1
-128 -7 -166 -36 -181 -10 -5 -86 -7 -174 -4 l-156 5 -11 90 c-12 94 -9 117
11 82 6 -11 24 -33 39 -49 23 -23 35 -27 59 -22 47 9 139 58 160 84 37 47 21
123 -39 185 -61 63 -132 69 -177 15 -58 -69 2 -189 72 -143 28 18 37 49 23 75
-16 29 -34 25 -26 -6 7 -25 -7 -54 -25 -54 -29 0 -52 75 -31 106 14 21 53 35
81 29 36 -8 99 -72 111 -115 17 -60 -29 -110 -132 -142 -32 -9 -41 -9 -57 6
-37 33 -93 138 -108 199 l-14 62 43 37 c40 36 47 38 109 38 37 0 90 -5 119
-10z m-1114 -145 c-41 -132 -80 -149 -200 -88 l-49 25 51 17 c62 21 117 57
174 113 27 27 44 38 46 30 2 -8 -8 -51 -22 -97z m1429 -82 c30 -30 57 -63 60
-74 11 -34 -14 -76 -69 -117 -28 -22 -105 -94 -170 -160 -66 -67 -135 -129
-155 -138 l-36 -17 -72 39 c-67 35 -73 42 -73 70 0 17 -3 52 -6 77 l-7 47 178
2 178 3 19 26 c17 23 20 48 25 190 2 90 7 170 9 178 3 9 16 -2 35 -29 17 -23
55 -67 84 -97z m-1764 46 c59 -39 132 -81 163 -93 43 -18 53 -26 44 -34 -21
-17 -161 -82 -177 -82 -38 0 -97 28 -153 74 -35 28 -83 60 -107 72 l-43 21 37
38 c31 30 103 74 125 75 2 0 52 -32 111 -71z m-221 -97 c14 -8 47 -33 73 -55
26 -22 64 -48 84 -58 l36 -18 -27 -10 c-47 -18 -148 -31 -248 -31 -54 0 -98 3
-98 6 0 3 8 18 18 32 10 15 35 58 56 95 40 73 47 76 106 39z m480 -68 c-12
-27 -41 -83 -66 -125 -45 -78 -62 -91 -129 -104 l-30 -6 23 17 c33 25 76 90
99 152 15 42 29 59 69 86 27 18 50 32 52 31 1 -1 -7 -24 -18 -51z m-132 -65
c-21 -61 -72 -123 -119 -147 l-47 -23 -138 34 c-77 19 -155 41 -174 49 -34 14
-31 15 90 21 131 6 273 37 348 76 50 27 53 26 40 -10z m1489 -284 c35 -21 43
-31 43 -55 0 -41 -9 -59 -39 -74 -31 -16 -224 -62 -296 -71 -27 -3 -60 -8 -72
-11 l-23 -4 6 107 c4 60 8 110 10 112 2 2 35 -13 74 -33 64 -34 74 -36 104
-26 18 6 51 26 72 45 47 41 64 43 121 10z m-4262 -83 c143 -49 213 -219 146
-351 -28 -53 -102 -116 -156 -131 -90 -25 -164 -1 -212 70 -55 80 -5 200 83
200 68 0 98 -62 55 -116 -29 -37 -13 -54 49 -54 119 0 181 141 111 252 -43 67
-102 93 -211 93 -75 0 -93 -4 -152 -32 -82 -39 -138 -96 -180 -182 -31 -63
-33 -72 -33 -182 0 -112 1 -117 35 -186 l36 -71 -29 -5 c-25 -3 -31 1 -53 46
-76 149 -84 359 -18 474 48 84 176 169 289 192 65 13 177 5 240 -17z m3281 17
c114 -21 243 -101 294 -183 50 -82 65 -233 35 -351 -61 -236 -225 -375 -443
-375 -125 0 -186 23 -404 152 -255 150 -412 203 -665 224 -72 6 -82 9 -58 16
62 17 193 21 276 8 104 -16 156 -35 339 -122 278 -134 399 -178 526 -193 226
-25 389 157 371 415 -11 148 -87 263 -216 324 -59 28 -76 31 -156 31 -80 0
-95 -3 -137 -28 -67 -39 -91 -78 -96 -154 -4 -50 0 -68 17 -96 26 -42 74 -67
129 -67 54 0 68 19 41 54 -43 54 -13 116 55 116 88 0 138 -120 84 -200 -33
-48 -70 -72 -122 -77 -65 -8 -129 13 -182 60 -83 73 -110 163 -79 261 46 146
201 220 391 185z m1116 -14 c29 -14 69 -25 89 -25 24 0 39 -5 43 -16 12 -30 6
-79 -13 -111 -17 -26 -28 -33 -68 -38 -85 -12 -165 -35 -247 -72 l-80 -36 -70
17 c-39 9 -99 16 -134 16 l-63 0 7 48 c3 26 9 50 13 53 3 3 47 11 96 17 94 12
271 54 304 72 27 14 61 59 61 81 0 24 -2 24 62 -6z m-5432 -105 c24 -7 68 -21
96 -31 l52 -20 -24 -75 c-14 -44 -24 -99 -24 -134 0 -33 -4 -60 -8 -60 -24 0
-192 301 -192 345 0 14 3 14 28 1 15 -8 47 -19 72 -26z m-11 -223 c17 -25 31
-49 31 -53 0 -14 -68 5 -134 37 l-67 33 6 35 c5 30 24 100 42 161 3 8 24 -26
48 -77 23 -50 57 -112 74 -136z m215 134 c10 -11 30 -75 46 -148 16 -70 38
-157 49 -193 11 -36 21 -68 21 -71 0 -4 -29 5 -64 20 -46 18 -74 38 -96 66
l-32 40 4 110 c4 73 11 124 23 153 19 47 25 50 49 23z m5394 -13 c23 -25 38
-60 51 -120 9 -38 8 -40 -12 -33 -12 4 -38 10 -58 13 -28 6 -46 20 -82 64
l-47 58 40 6 c22 4 48 13 57 20 24 18 26 18 51 -8z m-151 -61 l36 -33 -17 -52
c-10 -28 -21 -79 -26 -113 -5 -34 -11 -63 -13 -65 -3 -3 -23 2 -45 11 l-40 16
-4 83 c-3 61 -10 93 -26 120 -12 20 -20 36 -19 36 1 0 20 7 42 15 58 21 71 19
112 -18z m-452 -43 c14 -15 25 -32 25 -38 0 -7 -18 -30 -41 -51 -52 -51 -114
-140 -146 -213 -23 -51 -26 -55 -34 -35 -5 15 -2 41 12 80 11 32 31 105 45
163 14 57 30 108 37 112 27 17 78 8 102 -18z m291 1 c9 -14 19 -46 22 -71 l5
-46 -32 17 c-18 9 -69 19 -117 22 l-85 6 -30 44 -30 44 28 -7 c15 -3 44 -10
64 -15 35 -9 80 -1 116 20 28 16 41 13 59 -14z m-5404 -63 c26 -13 76 -30 110
-38 58 -15 66 -20 105 -72 23 -32 38 -58 33 -60 -5 -2 -35 2 -66 7 -32 6 -95
11 -140 11 l-82 0 -11 50 c-13 58 -15 133 -3 128 4 -2 28 -14 54 -26z m5672
-57 c14 -36 29 -97 33 -137 l6 -73 -35 30 c-19 17 -49 38 -67 47 -25 14 -31
23 -31 50 0 33 25 141 36 160 10 17 32 -12 58 -77z m78 39 c30 -15 30 -17 24
-67 -3 -29 -12 -72 -19 -97 l-14 -45 -8 50 c-4 28 -18 78 -30 113 -22 60 -22
62 -3 62 10 0 33 -7 50 -16z m-550 -70 c14 -38 32 -106 39 -151 13 -89 7 -253
-11 -317 l-12 -38 -23 35 c-13 19 -62 60 -109 90 -46 31 -97 72 -112 92 l-28
37 20 56 c10 31 36 83 57 117 44 69 126 157 142 152 5 -2 22 -35 37 -73z m197
21 c18 -9 35 -23 38 -31 5 -14 -16 -204 -23 -204 -1 0 -27 14 -56 32 -29 17
-61 37 -72 43 -11 6 -26 37 -36 75 -10 36 -21 76 -25 89 l-8 24 75 -6 c42 -3
90 -13 107 -22z m-3245 -61 l41 -13 -56 0 c-70 -1 -224 -27 -310 -52 -111 -32
-204 -75 -369 -169 -86 -49 -162 -90 -167 -90 -12 0 -58 48 -52 54 12 12 423
208 484 231 164 61 314 75 429 39z m-2508 -21 c50 -23 76 -28 172 -31 l113 -5
20 -39 c39 -75 66 -278 38 -278 -13 0 -85 41 -160 91 -65 44 -148 125 -188
183 -31 45 -64 106 -57 106 2 0 30 -12 62 -27z m520 -39 c42 -11 86 -191 82
-335 l-1 -77 -51 15 c-28 8 -76 25 -106 37 l-55 22 -11 116 c-9 86 -18 131
-38 173 -14 32 -26 60 -26 63 0 6 175 -6 206 -14z m2180 -5 c103 -27 180 -69
257 -139 54 -50 60 -59 48 -74 -12 -14 -18 -12 -60 22 -25 22 -66 51 -91 65
-158 91 -437 90 -680 -3 -76 -29 -237 -111 -335 -170 -46 -28 -86 -50 -90 -50
-12 0 -75 50 -75 60 0 10 296 178 375 212 218 93 473 124 651 77z m1112 -8
c122 -27 282 -95 429 -183 137 -82 259 -141 325 -157 137 -33 302 5 406 95 47
40 50 39 23 -14 -55 -107 -208 -192 -347 -192 -109 0 -268 62 -446 173 -160
100 -243 143 -358 181 -423 141 -806 -11 -870 -344 -23 -120 -11 -287 30 -406
19 -53 19 -58 3 -85 -10 -16 -20 -29 -24 -29 -10 0 -45 86 -65 160 -25 91 -25
272 0 360 33 113 83 198 166 280 85 84 155 129 257 166 64 24 76 25 223 20
102 -3 187 -12 248 -25z m-3850 -25 c15 -34 126 -150 182 -191 26 -19 82 -55
125 -79 l77 -44 -33 -18 c-21 -11 -65 -19 -116 -22 -78 -4 -83 -3 -107 22 -37
41 -104 177 -132 268 -28 93 -27 88 -16 88 5 0 14 -11 20 -24z m761 -15 c70
-25 78 -30 98 -71 l23 -44 -30 -27 c-31 -29 -38 -48 -42 -119 l-3 -45 -65 4
c-36 2 -66 4 -68 6 -1 1 -7 52 -13 114 -5 61 -19 136 -29 167 l-20 56 37 -7
c20 -3 70 -19 112 -34z m2459 -3 c-32 -21 -78 -56 -103 -79 l-45 -41 -55 50
c-30 27 -77 63 -104 79 l-49 28 207 0 206 0 -57 -37z m-1736 -15 c14 -16 45
-55 69 -88 48 -66 136 -157 247 -253 91 -80 126 -143 120 -214 -5 -50 -20 -75
-107 -185 -27 -33 -51 -67 -54 -75 -4 -9 -11 -6 -26 12 -50 61 -87 176 -115
364 -9 61 -21 105 -32 117 -32 36 -77 39 -422 32 l-333 -6 7 59 c10 99 19 106
164 130 173 29 207 38 310 85 58 26 114 48 126 49 11 0 32 -12 46 -27z m4295
-69 c12 -19 11 -28 -6 -71 -23 -59 -74 -147 -109 -188 l-25 -30 6 30 c19 100
29 206 25 266 l-5 69 50 -27 c27 -15 56 -37 64 -49z m-3023 30 c102 -25 246
-113 246 -150 0 -8 -12 -37 -26 -65 -86 -170 -88 -423 -4 -621 l29 -70 -54
-57 c-66 -70 -154 -123 -260 -158 -65 -21 -99 -26 -180 -26 -106 0 -116 2
-276 70 l-86 36 19 61 c25 79 20 134 -20 216 -29 58 -32 74 -32 155 l0 91 43
41 c72 70 117 87 227 87 111 0 152 -16 214 -84 105 -117 84 -255 -40 -267 -39
-4 -54 -1 -74 15 -24 20 -25 20 -7 56 25 53 22 92 -8 112 -32 21 -87 12 -116
-19 -32 -34 -23 -132 16 -189 57 -80 190 -117 271 -75 80 41 130 145 122 251
-11 126 -86 228 -216 289 -62 30 -74 32 -172 31 -85 0 -116 -4 -162 -23 -82
-32 -174 -96 -211 -147 -18 -24 -35 -43 -39 -44 -3 0 -12 17 -19 38 -15 46
-40 85 -91 138 l-40 41 59 37 c105 67 356 185 448 211 161 45 307 52 439 19z
m962 15 c151 -26 319 -99 509 -219 188 -119 328 -172 460 -172 82 -1 139 13
217 53 l57 28 -36 -57 c-177 -278 -445 -537 -736 -710 -137 -82 -151 -86 -96
-27 247 258 197 622 -105 770 -125 62 -258 70 -381 24 -82 -31 -173 -121 -203
-202 -51 -136 -10 -287 91 -339 126 -64 292 16 317 152 15 85 -23 140 -98 140
-63 0 -81 -46 -46 -122 l18 -40 -23 -19 c-48 -39 -149 -11 -172 49 -16 40 -4
118 26 168 72 123 240 158 392 84 196 -96 241 -351 95 -541 -107 -140 -309
-200 -523 -155 -120 26 -258 110 -319 195 l-20 29 30 66 c81 179 81 416 -1
612 -31 73 -31 75 -13 96 51 56 157 109 269 133 74 16 211 19 291 4z m1539
-156 c-24 -247 -96 -566 -180 -797 -66 -183 -64 -186 -65 131 l0 282 60 93
c59 90 180 324 180 347 0 6 3 11 6 11 3 0 3 -30 -1 -67z m-2111 -85 c88 -202
80 -446 -22 -643 -52 -101 -181 -228 -287 -282 -99 -51 -196 -81 -286 -89
l-69 -7 -42 39 -43 39 96 -3 c314 -11 584 208 648 526 24 118 7 318 -35 405
-14 30 -15 39 -4 52 7 8 14 15 17 15 2 0 14 -24 27 -52z m-27 -176 c18 -106
11 -203 -23 -312 l-17 -55 -13 32 c-26 62 -47 214 -40 294 6 68 28 168 44 194
10 16 32 -51 49 -153z m-2594 108 c43 -15 80 -30 83 -33 8 -8 -99 -66 -162
-87 -31 -11 -79 -20 -106 -20 -47 0 -53 3 -110 58 l-60 57 70 6 c43 4 91 17
124 32 29 14 60 23 68 20 8 -3 50 -18 93 -33z m1031 -3 c17 -17 26 -48 41
-137 10 -63 21 -127 25 -141 6 -21 -3 -15 -49 33 -50 50 -62 58 -95 58 -20 0
-45 -4 -55 -10 -13 -6 -29 -4 -57 10 -33 16 -74 19 -271 25 l-231 7 -15 -23
c-8 -13 -17 -43 -21 -66 -9 -64 -42 -143 -86 -212 -22 -34 -40 -72 -40 -85 0
-13 20 -51 45 -83 24 -33 49 -72 54 -87 10 -26 33 -227 27 -234 -6 -5 -73 131
-105 212 -18 44 -57 124 -88 178 -75 133 -77 160 -25 280 42 97 68 217 58 265
l-6 28 436 2 436 2 22 -22z m989 -35 c121 -60 187 -161 187 -286 -1 -124 -79
-216 -183 -216 -45 0 -130 42 -154 76 -26 36 -46 109 -38 134 10 31 34 50 64
50 44 0 55 -20 36 -68 -22 -54 -16 -90 18 -116 85 -63 217 18 217 133 -1 92
-77 199 -173 242 -78 36 -200 34 -282 -4 -33 -16 -76 -44 -96 -63 -33 -33 -40
-35 -90 -32 l-54 3 37 40 c42 47 128 101 201 126 39 14 75 18 148 16 85 -2
103 -6 162 -35z m1358 18 c210 -64 331 -233 316 -440 -9 -126 -63 -236 -168
-339 -105 -104 -204 -141 -373 -141 -127 0 -245 26 -359 78 -73 34 -176 103
-215 145 l-24 25 23 31 23 31 43 -49 c158 -181 476 -243 698 -136 130 62 221
182 245 323 28 158 -56 326 -196 392 -211 99 -441 -8 -460 -213 -12 -125 111
-210 214 -147 37 23 42 54 16 115 -20 49 -13 65 31 65 54 0 79 -31 71 -86 -11
-87 -61 -142 -147 -165 -85 -23 -164 12 -206 90 -30 58 -32 168 -4 234 23 53
81 121 132 153 88 55 227 69 340 34z m-3265 -73 c-5 -29 -14 -37 -64 -60 -31
-14 -82 -34 -112 -43 -54 -16 -57 -16 -89 4 l-33 20 44 7 c62 11 136 40 198
79 30 19 56 33 59 31 2 -2 1 -19 -3 -38z m-16 -82 c0 -3 -18 -47 -40 -99 -46
-107 -47 -124 -21 -203 32 -95 44 -208 43 -395 -1 -164 1 -179 18 -191 11 -7
109 -38 219 -68 192 -52 201 -55 206 -81 4 -15 15 -39 27 -53 l20 -25 -24 -20
c-53 -45 -172 -77 -297 -81 -83 -3 -85 -3 -91 21 -31 112 -133 227 -250 282
-41 20 -84 46 -95 58 -23 25 -21 -7 -17 477 l2 301 48 7 c26 4 90 21 142 40
104 36 110 37 110 30z m542 -21 c219 -8 239 -16 150 -64 -33 -18 -73 -45 -89
-61 -24 -24 -36 -28 -80 -29 -46 0 -58 -5 -91 -34 -20 -19 -62 -79 -91 -133
-30 -54 -65 -112 -78 -129 -27 -36 -29 -66 -8 -88 9 -8 62 -51 120 -96 57 -44
106 -84 109 -88 4 -8 -194 -72 -221 -72 -20 0 -25 18 -34 127 -10 130 -28 185
-79 247 -22 26 -40 57 -40 69 0 11 13 41 29 66 46 71 80 152 92 217 15 79 21
85 83 79 28 -3 131 -8 228 -11z m377 -58 c18 -17 64 -76 101 -131 37 -55 96
-141 130 -192 l63 -92 -119 -147 c-65 -81 -137 -160 -159 -176 -45 -32 -96
-44 -148 -34 -31 6 -77 38 -77 54 1 17 107 89 158 107 70 25 96 61 111 153 13
75 2 232 -18 256 -16 19 -64 27 -208 35 -98 5 -126 10 -142 25 -28 25 -15 46
56 89 117 70 176 97 197 91 12 -3 36 -20 55 -38z m547 -68 c-1 -98 1 -106 32
-165 41 -79 41 -122 3 -236 -38 -111 -46 -198 -28 -305 19 -113 8 -134 -117
-230 -133 -101 -205 -198 -206 -274 0 -37 -25 -42 -159 -35 -95 5 -202 19
-461 62 -130 22 -162 61 -111 134 37 51 69 57 158 28 43 -14 122 -36 176 -48
86 -19 105 -20 152 -10 29 7 73 26 97 43 74 54 355 328 369 359 14 35 7 260
-15 442 -14 122 -23 138 -87 146 l-41 6 36 45 c20 25 43 66 52 93 l16 47 68 0
67 0 -1 -102z m2864 -145 c-31 -209 -65 -393 -99 -536 l-30 -122 -67 -63
c-129 -121 -324 -188 -519 -179 -55 2 -112 9 -128 16 l-27 11 2 162 3 163 100
53 c122 65 209 121 340 221 109 84 312 283 390 383 28 36 51 59 53 51 2 -7 -6
-79 -18 -160z m-3760 83 c0 -2 3 -11 6 -20 5 -12 0 -16 -19 -16 -75 0 -110
-55 -130 -205 -20 -145 -10 -168 98 -230 43 -25 63 -30 142 -33 l93 -4 -36
-29 c-72 -57 -145 -33 -319 102 -71 55 -131 107 -133 115 -2 8 12 38 31 67 19
29 49 80 66 115 17 34 48 80 67 102 33 36 41 40 85 40 27 0 49 -2 49 -4z m267
-72 c60 -4 96 -11 104 -20 7 -8 12 -62 13 -141 1 -112 -2 -132 -19 -162 -34
-58 -83 -75 -215 -79 l-115 -3 57 24 c139 59 187 109 175 184 -13 79 -64 113
-167 113 -108 0 -160 -38 -160 -116 0 -35 5 -47 30 -67 40 -34 66 -41 101 -27
69 29 34 133 -36 106 -25 -9 -17 -26 14 -26 34 0 47 -23 25 -45 -48 -48 -133
28 -102 91 19 40 53 54 135 54 89 0 121 -21 130 -87 8 -60 -14 -88 -103 -130
-119 -56 -204 -49 -250 22 -14 22 -15 35 -5 108 15 101 37 183 54 194 16 11
140 21 197 17 25 -2 86 -6 137 -10z m471 3 c16 -19 42 -286 42 -426 l0 -119
-166 -158 c-91 -88 -186 -172 -211 -188 -65 -43 -121 -44 -270 -7 -139 34
-189 57 -227 101 -40 48 -35 58 22 47 26 -6 64 -7 85 -3 44 8 111 57 152 111
29 39 31 40 90 40 92 0 139 36 282 211 65 79 121 152 125 163 5 14 -6 39 -38
90 -50 77 -49 90 2 130 30 24 95 28 112 8z m3021 -481 c-18 -34 -43 -77 -56
-96 -22 -31 -25 -32 -20 -10 2 14 21 104 40 201 20 97 42 218 49 270 l13 94 3
-199 2 -199 -31 -61z m-4264 212 c102 -246 146 -302 265 -339 87 -28 244 -36
328 -16 34 8 62 11 62 8 0 -11 -82 -87 -107 -100 -41 -21 -109 -11 -323 48
-118 32 -230 62 -247 66 -18 3 -33 10 -33 13 -5 98 -3 439 1 436 4 -2 28 -55
54 -116z m4649 89 c11 -8 19 -26 19 -42 0 -34 -26 -55 -67 -55 -56 0 -85 53
-49 92 19 21 71 24 97 5z m-2206 -143 c127 -106 311 -177 497 -192 l90 -8 -60
-18 c-33 -10 -116 -30 -185 -44 -116 -24 -145 -26 -395 -26 -245 -1 -281 1
-390 23 -66 13 -130 28 -142 32 -28 10 -30 29 -5 29 32 0 173 39 242 66 79 31
181 98 235 153 21 23 41 41 42 41 2 0 34 -25 71 -56z m-912 -31 c119 -53 212
-123 287 -212 41 -51 47 -67 18 -51 -24 12 -181 13 -233 1 -30 -7 -43 -5 -60
8 -13 10 -45 30 -72 45 l-49 28 6 87 c5 94 13 121 32 121 7 0 39 -12 71 -27z
m3069 -210 c4 -116 3 -203 -2 -203 -5 0 -36 30 -70 68 l-60 67 60 138 c33 75
61 136 63 134 1 -1 5 -93 9 -204z m154 -65 c1 -4 -25 -35 -56 -69 -55 -59 -58
-61 -64 -38 -4 13 -7 101 -7 194 l-1 170 64 -125 c35 -69 64 -128 64 -132z
m-4230 116 c24 -8 54 -14 66 -14 12 0 32 -11 45 -25 l23 -24 -29 -12 c-51 -21
-248 -24 -320 -4 -36 10 -67 21 -69 26 -7 10 205 79 225 72 8 -3 35 -12 59
-19z m3733 -313 c-35 -41 -154 -131 -173 -131 -5 0 1 25 11 55 11 31 29 90 41
133 14 51 34 94 59 128 21 28 51 74 67 102 l28 51 3 -146 3 -146 -39 -46z
m-896 -48 c-9 -9 -91 41 -135 82 -26 24 -56 61 -69 83 l-22 40 28 10 c15 5 65
25 112 44 l85 33 3 -144 c1 -79 1 -146 -2 -148z m-1883 275 c14 -11 18 -38 23
-158 4 -80 12 -173 19 -207 7 -35 9 -63 5 -63 -13 0 -117 38 -149 54 -42 22
-111 85 -111 101 0 7 25 32 55 55 30 23 70 60 90 81 31 35 35 45 35 94 0 57 5
63 33 43z m375 -57 c43 -22 62 -57 87 -165 24 -100 15 -317 -14 -348 -4 -5
-17 27 -30 69 -42 146 -110 260 -224 380 -46 48 -65 74 -56 77 60 21 185 14
237 -13z m-233 -52 c54 -51 77 -82 84 -108 11 -43 21 -271 12 -271 -3 1 -37
12 -76 25 -65 22 -71 27 -83 62 -27 76 -44 363 -22 363 5 0 44 -32 85 -71z
m1461 5 c-3 -9 -15 -64 -25 -122 -24 -131 -54 -268 -86 -387 -50 -187 -152
-495 -165 -495 -10 0 -109 228 -154 355 -50 143 -73 218 -121 401 l-41 161
125 12 c126 13 316 48 401 75 61 19 73 19 66 0z m138 -122 c21 -18 62 -45 92
-60 45 -22 54 -31 54 -53 0 -14 3 -67 6 -117 6 -78 5 -92 -8 -92 -22 0 -66
-44 -74 -74 -9 -38 13 -82 52 -105 47 -28 47 -66 -1 -104 -56 -45 -48 -100 21
-144 19 -13 19 -13 0 -25 -90 -58 -98 -141 -20 -187 l34 -20 0 -94 c0 -64 -4
-98 -12 -104 -29 -22 -106 -45 -170 -50 l-68 -6 0 72 c0 54 3 71 14 71 21 0
66 58 66 85 0 38 -21 75 -52 91 -36 18 -35 29 2 61 24 20 30 33 30 64 0 31 -6
43 -30 61 -24 17 -30 29 -30 60 0 26 4 38 14 38 23 0 66 59 66 90 0 31 -43 90
-66 90 -12 0 -14 46 -14 282 l0 281 28 -39 c16 -21 46 -54 66 -72z m859 -36
l-37 -117 -80 -53 c-133 -89 -216 -180 -216 -238 0 -40 12 -40 49 -3 30 31
103 65 139 65 8 0 -19 -33 -60 -72 -50 -48 -86 -94 -106 -134 -36 -71 -57
-175 -49 -242 5 -43 2 -50 -38 -102 -82 -106 -229 -230 -275 -230 -6 0 -10 35
-10 93 l1 92 32 20 c78 49 70 129 -19 182 -18 11 -17 13 19 43 50 42 51 80 2
126 -30 28 -34 37 -29 64 4 20 16 36 34 45 39 20 55 64 40 109 -6 20 -20 41
-30 46 -43 23 -47 36 -49 141 l-2 102 41 -7 c101 -16 164 -18 241 -7 152 22
299 82 389 160 25 21 46 38 47 37 2 -1 -14 -55 -34 -120z m-1791 78 l166 -7
-15 -51 c-28 -97 -93 -251 -140 -335 -126 -222 -340 -362 -536 -349 -40 3 -87
12 -104 22 l-33 17 0 200 0 200 23 -6 c100 -30 187 -89 224 -152 32 -56 42
-48 78 62 35 105 43 240 21 345 -9 41 -16 77 -16 80 0 3 37 0 83 -7 45 -7 157
-16 249 -19z m808 -249 c0 -214 -2 -245 -15 -245 -32 0 -65 -47 -65 -90 0 -43
33 -90 65 -90 11 0 15 -10 15 -38 0 -31 -6 -43 -30 -60 -16 -12 -32 -33 -35
-45 -9 -33 11 -75 40 -89 30 -13 33 -34 5 -43 -59 -19 -80 -115 -35 -160 13
-14 31 -25 40 -25 12 0 15 -13 15 -65 0 -76 -7 -80 -68 -35 -50 36 -120 123
-167 205 l-34 61 59 172 c76 221 132 425 173 629 18 90 33 163 35 163 1 0 2
-110 2 -245z m1190 139 c-7 -24 -30 -64 -51 -88 -43 -49 -194 -166 -214 -166
-9 0 -5 20 14 72 26 71 28 73 96 112 39 22 90 61 115 86 25 25 47 41 49 37 2
-5 -2 -28 -9 -53z m260 -94 c144 -82 183 -111 220 -162 44 -60 38 -72 -19 -34
-26 18 -91 50 -142 70 -166 66 -211 104 -250 207 -30 78 -24 85 30 32 27 -27
100 -77 161 -113z m-2736 30 c33 -65 69 -165 82 -230 l7 -35 -50 45 c-28 25
-62 55 -77 67 -25 21 -26 24 -26 140 1 134 3 135 64 13z m-539 31 c44 -48 126
-91 238 -125 l87 -27 0 -195 0 -195 -31 16 c-54 28 -189 166 -246 253 -31 46
-74 124 -95 174 l-39 91 22 23 c12 13 24 24 26 24 2 0 19 -17 38 -39z m1185
-258 l-5 -281 -30 -43 c-16 -23 -70 -77 -120 -119 -51 -42 -108 -102 -130
-136 -47 -69 -75 -169 -75 -267 0 -42 -7 -80 -19 -108 -11 -24 -23 -69 -27
-99 -4 -36 -14 -64 -29 -80 -34 -38 -55 -85 -55 -125 0 -44 17 -45 56 -4 26
29 170 106 180 97 2 -3 -26 -26 -63 -53 -155 -114 -222 -211 -231 -336 -5 -69
-5 -70 -41 -85 -43 -18 -187 -54 -218 -54 l-23 0 0 194 c0 178 2 196 18 208
48 34 52 95 7 124 -39 25 -34 72 10 107 46 36 49 90 9 131 -15 14 -31 26 -35
26 -18 0 -8 23 22 51 27 25 31 34 25 62 -3 17 -17 41 -31 52 l-25 21 0 191 0
192 34 -14 c136 -57 354 3 499 136 107 97 223 289 274 451 10 31 20 54 23 50
3 -4 3 -134 0 -289z m-2148 217 c-3 -29 1 -47 14 -61 22 -24 127 -56 214 -64
36 -3 102 -13 148 -22 l82 -16 0 -94 0 -94 -55 -58 c-38 -40 -91 -78 -176
-126 -115 -66 -210 -141 -221 -175 -3 -8 -8 -12 -12 -8 -18 16 -226 665 -226
705 0 9 16 13 48 14 26 0 76 8 112 18 36 10 67 19 70 20 3 0 4 -17 2 -39z
m2208 -35 c49 -195 174 -543 245 -685 31 -61 32 -68 20 -98 -8 -18 -17 -32
-20 -32 -14 0 -125 92 -167 138 -24 28 -58 77 -76 110 l-32 60 0 293 c0 162 4
287 9 279 4 -8 14 -37 21 -65z m1846 19 c21 -33 76 -81 199 -174 247 -186 297
-247 320 -390 l7 -45 -54 51 c-29 28 -91 75 -138 104 -124 78 -195 133 -287
224 l-83 81 0 97 c0 54 2 98 4 98 2 0 16 -21 32 -46z m-103 -196 c-21 -22 -72
-66 -113 -98 -222 -173 -272 -210 -267 -198 3 7 26 66 52 131 l47 117 97 72
c53 40 123 99 156 133 l60 60 3 -89 3 -89 -38 -39z m-3060 144 c66 -161 210
-344 336 -427 l60 -40 1 -201 0 -200 -30 -22 c-23 -18 -30 -30 -30 -57 0 -27
7 -39 30 -57 38 -27 38 -39 0 -60 -61 -35 -62 -116 -3 -153 44 -28 45 -72 3
-103 -22 -17 -30 -31 -30 -53 0 -21 9 -40 30 -59 l30 -28 0 -191 0 -192 -71 3
-71 3 -24 60 c-21 51 -25 80 -29 200 -3 129 -9 216 -34 490 -16 180 -65 265
-221 381 -49 37 -88 69 -86 71 10 10 126 -53 164 -90 36 -35 44 -39 53 -27 15
23 2 81 -29 125 -35 50 -96 96 -218 166 -108 61 -164 105 -205 162 -26 36 -29
48 -29 118 l0 78 128 -2 c162 -3 178 2 187 50 8 46 41 123 52 123 4 0 21 -31
36 -68z m2798 -65 l-22 -65 -62 -17 c-34 -9 -77 -25 -94 -36 -18 -10 -33 -14
-33 -10 0 25 215 208 229 196 1 -2 -7 -33 -18 -68z m-581 -82 c52 -27 49 -107
-4 -121 -40 -10 -70 0 -85 28 -19 34 -6 77 29 95 31 16 26 16 60 -2z m1115
-177 c33 -24 101 -70 152 -102 113 -71 175 -135 196 -202 15 -49 30 -134 24
-134 -3 0 -20 24 -39 53 -64 94 -197 215 -348 317 -155 104 -190 144 -190 217
l0 37 73 -70 c39 -39 99 -91 132 -116z m-239 108 c-9 -47 -55 -96 -149 -159
-160 -106 -312 -242 -371 -331 -29 -43 -34 -30 -12 31 38 107 123 200 321 350
66 50 140 108 165 131 48 43 57 39 46 -22z m-416 -159 c-29 -69 -69 -153 -91
-188 l-39 -64 0 50 c0 61 19 135 50 194 25 50 123 158 128 143 2 -6 -20 -66
-48 -135z m-722 93 c43 -40 15 -120 -41 -120 -41 0 -67 27 -67 70 0 64 62 92
108 50z m1121 -234 c-32 -88 -103 -174 -309 -376 -103 -102 -201 -205 -216
-229 l-29 -45 -3 100 c-6 202 30 304 154 434 73 76 171 155 327 264 37 26 73
56 80 67 10 16 12 5 15 -69 2 -72 -2 -101 -19 -146z m219 105 c241 -162 364
-297 404 -443 21 -79 37 -308 22 -308 -5 0 -18 15 -28 33 -11 17 -114 127
-230 242 -298 296 -336 355 -336 516 l0 91 39 -35 c21 -19 79 -62 129 -96z
m-3746 -4 c-24 -53 -75 -113 -116 -134 -17 -9 -77 -36 -134 -59 -57 -24 -119
-55 -138 -69 -37 -28 -43 -21 -19 24 22 44 82 91 205 160 61 35 134 85 163
111 43 40 53 45 55 29 2 -10 -5 -38 -16 -62z m276 -75 c124 -70 205 -137 221
-182 5 -17 8 -30 6 -30 -1 0 -25 15 -53 33 -27 19 -93 51 -146 71 -53 21 -116
52 -139 70 -43 33 -107 139 -107 178 0 16 9 12 53 -28 30 -27 103 -77 165
-112z m2405 57 c16 -25 0 -68 -27 -75 -51 -12 -88 35 -59 76 18 25 70 24 86
-1z m-3473 -9 c51 -51 -7 -136 -74 -110 -70 26 -50 130 25 130 16 0 38 -9 49
-20z m878 -40 c16 -28 72 -77 196 -170 96 -72 191 -149 211 -172 46 -50 81
-126 90 -193 l7 -50 -48 46 c-27 26 -110 86 -184 135 -84 56 -167 121 -222
175 l-88 85 0 92 c0 51 3 92 8 92 4 0 17 -18 30 -40z m-68 -62 l0 -91 -82 -81
c-74 -73 -253 -206 -261 -195 -12 14 -57 103 -57 112 0 5 6 15 13 21 13 10
201 153 294 224 23 17 53 48 65 67 13 19 24 35 26 35 1 0 2 -41 2 -92z m1687
-13 c-8 -106 -37 -153 -196 -318 l-134 -139 5 74 c9 120 38 181 131 268 44 41
105 100 136 132 31 31 58 56 60 57 2 1 1 -33 -2 -74z m699 0 c25 -38 3 -75
-42 -75 -49 0 -72 51 -38 84 24 24 61 20 80 -9z m-631 -36 c41 -63 102 -125
171 -176 l63 -46 -20 -51 c-35 -87 -30 -87 -101 -15 -78 78 -136 186 -145 272
-3 31 -4 57 -1 57 3 0 18 -19 33 -41z m1756 -184 c-32 -72 -106 -159 -229
-267 -122 -108 -191 -185 -259 -290 -49 -76 -98 -184 -108 -240 -4 -21 -11
-38 -15 -38 -10 0 -20 64 -20 135 0 107 46 232 122 335 22 30 129 143 237 250
128 127 212 219 241 265 l45 70 3 -88 c2 -70 -1 -96 -17 -132z m345 -107 c242
-239 313 -335 350 -473 14 -52 17 -192 5 -235 -6 -22 -10 -16 -30 45 -58 176
-157 315 -347 490 -143 132 -210 207 -246 277 -24 46 -28 65 -28 142 l0 89 50
-71 c27 -39 138 -158 246 -264z m-1183 260 c22 -27 22 -49 -4 -82 -52 -66
-148 1 -108 75 22 42 79 45 112 7z m-2923 -12 c0 -2 -24 -21 -52 -42 -29 -21
-65 -49 -81 -63 -21 -19 -30 -22 -39 -13 -17 17 24 57 97 92 58 29 75 34 75
26z m250 -83 c-13 -73 -34 -95 -189 -203 -97 -68 -105 -72 -118 -54 -7 10 -13
23 -13 29 0 6 38 37 84 69 46 31 117 89 158 129 40 40 76 71 79 70 4 -2 3 -20
-1 -40z m205 -106 c27 -22 106 -77 175 -123 69 -46 135 -97 148 -114 30 -39
62 -129 62 -177 l0 -37 -30 48 c-62 98 -193 216 -369 336 -124 84 -161 129
-161 197 0 24 4 21 62 -32 34 -32 85 -76 113 -98z m1454 -161 c-39 -50 -105
-103 -184 -146 -33 -18 -82 -46 -108 -63 -26 -16 -50 -27 -54 -24 -12 13 21
110 57 164 20 32 91 112 156 179 66 66 128 137 139 158 l20 37 3 -132 3 -131
-32 -42z m731 244 c62 -62 -30 -154 -97 -98 -18 15 -16 78 4 100 21 24 68 23
93 -2z m-630 -47 c18 -32 62 -86 97 -120 l63 -62 -27 -55 c-15 -31 -30 -56
-34 -56 -13 0 -99 82 -118 114 -18 28 -21 50 -21 135 0 55 2 101 4 101 2 0 19
-26 36 -57z m-1753 -107 c-2 -75 -6 -90 -45 -167 -23 -46 -57 -101 -76 -123
l-33 -39 -66 99 c-49 75 -62 102 -54 112 6 8 57 45 114 84 57 38 113 83 126
98 12 15 25 26 29 23 4 -2 6 -41 5 -87z m59 63 c10 -12 58 -48 106 -80 110
-74 186 -135 266 -213 125 -121 161 -208 169 -411 3 -80 2 -126 -4 -120 -5 6
-34 42 -65 80 -31 39 -116 126 -189 195 -154 145 -251 255 -286 324 -20 39
-26 70 -30 148 -6 103 -1 115 33 77z m3437 -347 c-15 -26 -70 -87 -122 -137
-197 -187 -297 -292 -336 -352 -22 -34 -44 -62 -49 -63 -16 0 4 130 28 183 34
75 74 126 231 295 153 164 201 234 226 326 8 34 22 74 30 91 13 27 14 15 17
-133 2 -161 2 -163 -25 -210z m117 287 c0 -36 38 -128 75 -183 21 -32 92 -115
158 -184 198 -209 246 -287 255 -416 l4 -71 -53 77 c-68 97 -124 157 -274 289
-126 112 -169 160 -204 225 -19 35 -21 55 -21 194 l1 155 29 -35 c16 -19 30
-42 30 -51z m-4015 19 l28 -52 -34 -25 c-19 -14 -56 -46 -83 -71 l-49 -45 8
45 c11 68 74 200 96 200 3 0 19 -23 34 -52z m2484 -42 c46 -59 81 -122 81
-144 0 -8 -24 8 -54 36 -34 31 -72 54 -100 63 -25 7 -46 18 -46 24 0 5 9 29
20 53 24 53 37 49 99 -32z m-1208 -7 c16 -30 -3 -69 -34 -69 -29 0 -47 17 -47
45 0 45 60 63 81 24z m-1212 -65 c11 -24 7 -30 -72 -107 -46 -45 -96 -103
-112 -129 -15 -27 -29 -48 -32 -48 -11 0 8 101 28 147 23 53 55 91 113 134 48
36 60 36 75 3z m2337 -48 c62 -55 101 -110 119 -170 8 -25 12 -46 10 -46 -3 0
-26 15 -52 34 -27 18 -78 50 -115 70 -37 21 -70 42 -73 46 -7 11 42 110 53
110 4 0 30 -20 58 -44z m-322 -3 c-22 -100 -91 -177 -192 -218 -124 -51 -196
-86 -229 -111 -36 -27 -41 -19 -19 25 21 40 83 92 167 141 130 76 194 119 229
155 41 42 52 44 44 8z m143 -111 l-21 -35 -23 29 c-22 28 -53 104 -53 131 0 8
27 -9 59 -38 l59 -52 -21 -35z m-2061 7 l67 -102 -165 -161 c-91 -89 -178
-181 -193 -204 -15 -23 -32 -42 -38 -42 -7 0 -8 40 -4 118 11 202 58 307 193
431 37 33 68 61 70 61 2 0 33 -46 70 -101z m241 -8 c-5 -86 -37 -191 -58 -191
-16 0 -79 93 -71 104 67 86 90 118 104 145 9 17 20 31 24 31 4 0 4 -40 1 -89z
m67 21 c16 -26 118 -135 227 -242 108 -107 219 -225 247 -261 46 -62 102 -165
102 -188 0 -6 -28 -2 -67 9 -52 14 -71 25 -91 52 -14 18 -109 116 -212 218
-103 102 -199 205 -213 230 -20 35 -27 65 -33 138 -4 52 -3 92 2 92 5 0 22
-21 38 -48z m811 34 c11 -8 18 -26 18 -46 0 -38 -23 -60 -64 -60 -29 0 -59 31
-59 60 0 49 63 77 105 46z m763 -298 c-61 -73 -205 -198 -301 -261 -75 -50
-159 -97 -172 -97 -11 0 -4 88 10 131 25 70 77 133 177 209 224 172 282 221
306 262 17 29 17 28 20 -82 l3 -111 -43 -51z m114 221 l26 -35 -26 -42 c-15
-23 -30 -42 -34 -42 -5 0 -8 39 -8 87 0 48 4 83 8 78 4 -6 20 -26 34 -46z
m186 4 c144 -79 207 -133 232 -199 11 -28 7 -27 -46 13 -18 13 -71 40 -120 59
-107 43 -184 82 -184 92 0 11 39 72 46 72 3 0 36 -16 72 -37z m721 -29 c12
-15 21 -35 21 -46 0 -25 -44 -68 -70 -68 -26 0 -70 43 -70 68 0 33 38 72 70
72 19 0 36 -9 49 -26z m831 -265 c-43 -66 -135 -150 -280 -254 -131 -94 -225
-179 -259 -235 -17 -28 -21 -31 -21 -14 0 33 36 128 74 196 72 129 148 216
331 379 61 54 126 120 145 147 l35 48 3 -109 c3 -107 2 -110 -28 -158z m108
218 c21 -29 100 -106 174 -170 174 -152 262 -260 334 -411 19 -40 38 -90 41
-112 l6 -39 -40 50 c-54 68 -115 121 -253 219 -141 100 -243 194 -281 261 -27
46 -29 58 -29 153 0 56 2 102 4 102 2 0 22 -24 44 -53z m-4423 8 c31 -30 32
-62 3 -92 -29 -31 -71 -30 -97 3 -27 35 -26 59 4 89 31 32 59 32 90 0z m2656
-13 c87 -57 304 -230 335 -265 46 -53 84 -136 91 -201 l6 -50 -32 37 c-18 20
-104 84 -191 141 -99 67 -185 133 -234 181 l-76 75 33 50 c17 27 34 50 37 50
3 0 17 -8 31 -18z m-1947 -73 l37 -50 -41 -45 c-23 -25 -90 -90 -149 -144
-191 -176 -293 -324 -341 -500 l-13 -45 -9 35 c-6 19 -8 76 -6 125 9 176 77
288 312 517 88 87 163 158 166 158 3 0 23 -23 44 -51z m2499 3 c21 -19 22 -60
1 -90 -28 -41 -105 -22 -115 28 -14 70 59 110 114 62z m-2385 -42 c1 -42 -8
-50 -28 -25 -11 13 -11 20 0 40 19 36 28 31 28 -15z m56 8 c10 -18 102 -115
205 -215 102 -100 182 -185 178 -189 -9 -9 -153 78 -230 141 -34 27 -90 77
-124 111 l-63 61 0 61 c0 34 4 62 8 62 4 0 16 -15 26 -32z m816 7 c31 -38 -27
-96 -65 -65 -18 15 -20 51 -3 68 17 17 53 15 68 -3z m1030 -178 c25 -19 92
-64 150 -102 58 -37 120 -81 138 -99 48 -45 81 -116 88 -188 l6 -63 -40 60
c-63 95 -194 214 -347 315 -151 101 -185 139 -185 209 l0 45 73 -72 c39 -39
92 -86 117 -105z m-220 113 c0 -22 -29 -76 -51 -96 -13 -12 -62 -47 -109 -79
-176 -119 -326 -255 -376 -341 -14 -24 -28 -44 -31 -44 -11 0 6 109 22 143 11
24 32 43 72 63 136 70 364 247 428 330 26 34 45 44 45 24z m-2552 -364 l-3
-149 -64 82 -63 82 58 159 59 159 8 -92 c4 -51 6 -159 5 -241z m96 164 c53
-117 62 -147 53 -160 -7 -9 -34 -45 -62 -80 l-50 -63 -6 104 c-8 126 -11 354
-5 348 3 -3 34 -69 70 -149z m899 29 c109 -95 310 -305 356 -372 42 -61 60
-107 71 -175 13 -79 0 -94 -35 -40 -62 94 -136 175 -262 284 -182 158 -233
231 -233 334 0 27 2 50 5 50 3 0 47 -36 98 -81z m1555 -29 c-9 -143 -81 -248
-346 -505 -83 -80 -168 -169 -188 -196 -19 -27 -40 -49 -45 -49 -24 0 -1 258
32 346 44 116 178 252 400 404 63 43 122 87 130 96 13 16 14 16 18 -2 2 -10 1
-52 -1 -94z m72 85 c12 -13 55 -45 94 -71 178 -118 335 -261 389 -355 45 -77
68 -189 65 -314 l-3 -109 -29 45 c-16 24 -115 130 -221 234 -212 210 -264 271
-306 360 -25 52 -29 72 -29 148 0 48 4 87 8 87 5 0 19 -11 32 -25z m-1756 -82
c-9 -50 -58 -116 -148 -202 -201 -192 -294 -289 -335 -351 l-43 -65 5 73 c4
60 12 88 45 155 48 96 128 196 204 254 66 52 261 171 270 166 4 -2 4 -15 2
-30z m3511 -90 c-38 -134 -106 -221 -294 -378 -75 -62 -153 -134 -174 -160
-49 -58 -114 -169 -122 -207 -12 -51 -25 -18 -25 62 0 93 26 176 82 260 52 77
108 129 276 255 101 76 165 132 207 183 66 80 76 77 50 -15z m330 -168 c83
-62 171 -134 198 -160 104 -104 160 -243 155 -381 -2 -55 -6 -73 -12 -59 -59
137 -90 187 -158 257 -40 41 -120 114 -178 162 -159 133 -217 210 -260 349
-11 34 -20 66 -20 70 0 4 28 -22 63 -59 34 -37 130 -117 212 -179z m-228 34
c38 -71 115 -152 254 -270 64 -54 135 -119 159 -146 82 -93 130 -203 145 -329
8 -77 -16 -222 -49 -296 l-24 -53 -1 50 c-2 86 -47 216 -76 219 -5 1 -13 -35
-17 -79 -9 -105 -45 -256 -72 -297 l-21 -33 -8 110 c-4 61 -8 115 -8 120 0 6
9 37 21 70 60 169 22 373 -104 549 -94 132 -202 206 -301 206 -70 0 -96 -14
-166 -86 -173 -183 -257 -434 -204 -609 9 -32 11 -54 5 -65 -5 -10 -15 -50
-21 -90 -20 -129 23 -311 111 -477 22 -40 36 -73 32 -72 -17 2 -238 250 -282
316 -87 130 -118 255 -99 403 31 248 113 400 303 558 230 191 273 240 327 372
l33 79 17 -49 c9 -27 30 -72 46 -101z m-3641 -113 c-37 -64 -117 -138 -256
-238 -131 -95 -223 -176 -271 -242 l-29 -39 6 34 c25 130 139 309 283 444 189
178 254 242 269 268 17 28 17 26 20 -78 2 -99 1 -110 -22 -149z m154 144 c19
-19 81 -74 136 -123 141 -121 230 -230 299 -367 24 -47 55 -138 55 -163 0 -5
-21 20 -48 55 -35 47 -89 94 -214 188 -194 145 -269 215 -303 284 -21 43 -25
64 -25 145 l1 96 32 -40 c17 -22 48 -56 67 -75z m1558 -60 c-7 -139 -27 -170
-254 -395 -233 -232 -305 -333 -360 -510 l-21 -70 -8 48 c-13 86 -1 216 28
285 53 128 116 205 371 452 123 120 191 202 223 269 23 48 27 34 21 -79z m97
15 c27 -39 137 -158 245 -265 250 -247 314 -340 341 -496 11 -61 6 -184 -7
-206 -4 -5 -19 28 -34 75 -59 176 -154 306 -349 481 -129 117 -210 209 -241
277 -15 33 -20 66 -20 134 0 49 4 85 8 80 5 -6 30 -41 57 -80z m-1174 -1 c21
-4 44 -13 50 -21 14 -16 15 -172 2 -217 -9 -28 -9 -28 -21 25 -7 30 -32 94
-55 142 -25 51 -37 85 -29 82 7 -3 31 -8 53 -11z m1059 -535 c-30 -57 -86
-115 -222 -231 -114 -97 -191 -181 -262 -287 l-36 -53 0 56 c0 123 53 214 241
412 71 74 143 156 161 182 38 55 77 147 78 181 0 13 12 43 28 67 l27 44 3
-165 c2 -151 1 -168 -18 -206z m100 279 c0 -35 51 -144 94 -201 24 -32 97
-115 162 -184 130 -137 195 -224 219 -293 16 -45 32 -170 23 -170 -3 0 -25 30
-49 68 -50 76 -191 222 -325 334 -55 46 -107 101 -133 138 l-41 62 0 172 1
171 24 -40 c14 -22 25 -48 25 -57z m1853 35 c58 -32 159 -138 206 -216 77
-130 111 -307 82 -424 -32 -126 -125 -249 -232 -308 -44 -23 -60 -27 -114 -23
-137 9 -299 125 -365 263 -30 61 -35 82 -38 167 -4 80 0 110 18 170 38 127
110 247 200 337 78 78 145 87 243 34z m-3644 -137 c-45 -125 -108 -203 -274
-340 -146 -121 -216 -200 -267 -302 l-43 -87 -8 39 c-13 61 8 167 51 248 50
95 130 178 270 279 118 86 239 198 270 250 l17 29 3 -28 c2 -15 -6 -54 -19
-88z m1002 -21 c55 -157 -18 -375 -126 -375 -57 0 -118 68 -139 154 -22 91 2
244 46 299 l23 28 0 -54 c0 -62 22 -97 61 -97 50 0 83 94 53 153 -8 15 0 11
25 -13 22 -22 44 -58 57 -95z m-660 -132 c167 -119 229 -184 281 -291 39 -81
42 -91 45 -191 l3 -106 -25 55 c-60 130 -108 194 -219 288 -253 214 -288 255
-338 395 -16 43 -28 82 -28 87 0 5 36 -27 79 -70 44 -43 135 -118 202 -167z
m547 235 c18 -18 15 -93 -4 -109 -24 -19 -48 1 -52 44 -5 60 25 96 56 65z
m-744 -252 c32 -45 95 -106 194 -189 196 -165 263 -255 297 -399 27 -113 11
-277 -35 -367 l-17 -34 -6 61 c-13 124 -87 245 -87 143 0 -97 -58 -326 -87
-344 -6 -4 -13 38 -16 106 -6 101 -5 119 15 173 31 84 31 251 -1 344 -48 140
-176 307 -279 363 -105 57 -185 43 -275 -49 -166 -168 -254 -427 -204 -595 9
-29 11 -54 5 -68 -4 -13 -13 -54 -19 -92 -19 -121 15 -268 102 -441 22 -43 39
-81 39 -84 0 -11 -200 203 -248 264 -127 163 -157 328 -102 553 48 197 121
298 355 491 131 108 207 203 241 301 8 23 17 49 20 57 3 9 17 -14 33 -57 16
-40 50 -101 75 -137z m1564 -171 c-3 -78 -5 -83 -50 -147 -49 -68 -129 -138
-278 -243 -99 -69 -211 -173 -241 -222 -12 -19 -23 -32 -26 -29 -11 11 45 155
88 228 69 115 151 211 254 297 125 105 199 177 227 217 l23 34 3 -28 c2 -15 2
-63 0 -107z m73 89 c19 -26 84 -88 144 -139 148 -124 231 -213 300 -319 60
-92 114 -213 115 -256 0 -24 -1 -23 -21 9 -36 59 -120 134 -264 236 -168 119
-226 171 -277 249 -38 59 -38 59 -38 163 0 56 1 103 3 103 2 0 19 -21 38 -46z
m-1693 -74 c49 -22 151 -115 194 -178 128 -186 153 -392 67 -569 -30 -60 -130
-163 -188 -193 -135 -68 -375 56 -464 240 -27 57 -32 78 -35 165 -4 88 -1 110
23 180 30 92 83 186 151 268 84 103 160 129 252 87z m3138 -377 c3 -83 25
-153 91 -292 104 -219 164 -429 148 -521 -7 -39 -25 -47 -25 -11 0 50 -59 212
-127 351 -112 229 -135 301 -137 430 0 58 3 119 7 135 l9 30 16 -30 c9 -16 17
-58 18 -92z m-1526 33 c-27 -132 -117 -256 -284 -393 -171 -140 -249 -231
-304 -354 l-29 -64 -8 49 c-10 65 9 168 45 239 62 123 128 190 329 333 82 58
251 224 251 246 0 6 3 9 6 5 3 -3 1 -31 -6 -61z m355 -228 c67 -47 145 -112
175 -145 90 -97 150 -241 150 -359 0 -87 -10 -93 -38 -22 -51 129 -124 213
-332 385 -52 43 -116 105 -143 138 -59 73 -116 187 -124 245 l-6 42 99 -98
c54 -55 153 -138 219 -186z m1845 112 c0 -219 -58 -396 -186 -565 -57 -77
-107 -126 -189 -184 -37 -27 -46 -30 -41 -15 3 10 14 48 25 84 14 44 39 89 77
140 151 198 207 317 239 502 15 83 44 148 67 148 4 0 8 -50 8 -110z m-489 -20
c51 -27 59 -36 73 -78 34 -105 45 -341 22 -467 -12 -63 -14 -67 -21 -40 -36
142 -48 183 -70 241 -14 37 -43 102 -64 143 -50 98 -86 202 -95 270 l-7 53 52
-45 c29 -26 79 -60 110 -77z m-1562 -116 c27 -34 111 -112 187 -175 75 -62
157 -138 182 -169 136 -166 170 -388 90 -595 -18 -48 -23 -55 -25 -35 -14 114
-53 230 -78 230 -8 0 -14 -32 -18 -89 -6 -78 -41 -210 -53 -198 -2 2 -11 41
-20 88 -13 72 -14 92 -2 144 44 201 -33 428 -201 595 -111 110 -218 141 -311
90 -54 -30 -148 -140 -201 -235 -82 -146 -114 -320 -80 -437 10 -37 11 -54 2
-80 -25 -69 -25 -199 -2 -301 21 -91 79 -228 122 -288 42 -60 -5 -25 -109 78
-210 210 -285 372 -268 577 11 138 56 279 122 384 47 74 105 134 230 237 150
125 217 201 266 303 l41 87 38 -75 c21 -41 61 -103 88 -136z m1954 119 c-12
-77 -55 -209 -94 -286 -39 -78 -55 -101 -129 -198 l-36 -46 -2 166 c-1 124 -7
185 -20 239 -10 40 -17 74 -15 76 2 2 24 -1 48 -7 65 -15 138 4 200 52 28 22
51 40 52 40 1 1 -1 -16 -4 -36z m-1118 -58 c14 -13 25 -33 25 -45 0 -27 -43
-70 -70 -70 -26 0 -70 43 -70 68 0 30 38 72 66 72 14 0 36 -11 49 -25z m-888
-211 c130 -76 240 -233 284 -402 46 -183 -5 -360 -141 -485 -76 -70 -127 -91
-205 -84 -132 10 -299 132 -359 261 -91 193 -28 446 162 658 83 92 164 108
259 52z m-2084 -104 c6 -90 38 -182 117 -340 89 -179 110 -245 109 -348 0 -48
-4 -96 -8 -107 l-8 -20 -6 20 c-3 11 -9 38 -13 60 -11 64 -58 183 -127 321
-93 186 -120 276 -121 394 0 52 3 108 7 125 l8 29 18 -29 c12 -19 21 -58 24
-105z m637 -218 c-34 -216 -152 -417 -320 -546 -82 -63 -80 -63 -63 1 18 71
47 122 130 231 35 46 84 125 108 176 43 88 95 260 95 314 0 14 12 41 28 61
l27 36 3 -100 c2 -55 -2 -133 -8 -173z m-438 123 c40 -19 78 -35 85 -35 22 0
17 -42 -38 -339 l-12 -64 -22 54 c-12 30 -47 104 -77 164 -65 130 -108 251
-108 308 l0 40 50 -47 c27 -26 82 -62 122 -81z m352 3 c-20 -133 -93 -297
-188 -423 -29 -38 -61 -82 -71 -97 -9 -16 -22 -28 -27 -28 -13 0 -1 131 22
245 11 50 22 113 25 140 14 119 12 115 53 115 39 0 120 35 162 69 14 11 26 21
28 21 1 0 -1 -19 -4 -42z m1119 -582 c34 -54 99 -115 166 -157 l50 -30 0 -72
c0 -91 10 -137 73 -322 41 -119 52 -167 55 -230 l4 -80 -42 75 c-23 41 -74
113 -114 160 -39 47 -85 105 -102 130 -78 116 -130 257 -140 381 -6 77 3 189
15 189 4 0 19 -20 35 -44z m723 -137 c15 -104 16 -134 5 -207 -15 -103 -58
-219 -110 -298 -50 -75 -178 -212 -158 -169 8 17 24 68 37 115 21 79 22 100
18 300 l-5 215 51 40 c27 22 68 67 90 100 49 72 48 73 72 -96z m667 21 c36
-55 47 -96 47 -184 0 -64 -5 -92 -24 -131 -58 -125 -169 -152 -252 -62 -86 95
-96 263 -21 374 43 63 53 64 49 3 -3 -42 0 -53 22 -75 31 -31 66 -32 94 -2 30
32 36 68 18 111 l-15 37 30 -18 c16 -10 40 -33 52 -53z m-99 38 c9 -12 16 -32
16 -43 0 -29 -28 -65 -50 -65 -11 0 -27 11 -36 25 -39 60 29 141 70 83z m-899
-145 c28 3 57 8 66 12 22 8 29 -52 30 -255 1 -181 -15 -259 -79 -386 l-39 -79
5 54 c7 77 -13 172 -73 348 -52 150 -74 258 -61 307 6 24 6 24 53 9 29 -8 68
-12 98 -10z"/>
<path d="M6733 2969 c-115 -57 -189 -235 -154 -367 14 -50 68 -114 113 -133
28 -11 35 -10 69 9 47 27 69 28 119 2 86 -44 165 -15 213 79 34 67 35 132 6
227 -17 56 -31 77 -77 124 -37 36 -71 60 -98 68 -64 19 -143 15 -191 -9z m205
-28 c53 -27 113 -97 135 -157 23 -66 22 -164 -2 -212 -38 -75 -89 -100 -154
-76 -101 38 -112 39 -151 16 -49 -29 -59 -28 -102 10 -47 42 -64 83 -64 157 0
117 61 223 154 268 60 28 121 26 184 -6z"/>
<path d="M3265 2520 c-117 -27 -204 -141 -213 -278 -6 -91 14 -147 69 -196 43
-39 82 -46 115 -21 26 20 64 19 115 -5 72 -32 125 -23 176 32 56 59 70 182 33
282 -48 128 -183 213 -295 186z m130 -44 c83 -38 135 -109 154 -209 15 -85 -1
-151 -49 -199 -44 -45 -80 -49 -149 -18 -54 25 -77 25 -122 1 -33 -18 -38 -18
-68 -4 -18 9 -43 36 -59 62 -68 115 -6 302 121 366 63 31 107 32 172 1z"/>
<path d="M4889 1760 c-53 -28 -115 -103 -140 -169 -29 -77 -24 -199 11 -252
46 -70 119 -98 164 -64 27 20 55 19 107 -5 116 -52 211 3 240 139 28 132 -45
286 -163 345 -66 33 -164 35 -219 6z m221 -38 c84 -52 140 -156 140 -262 0
-67 -44 -148 -93 -173 l-39 -20 -64 27 c-78 32 -85 32 -140 5 -42 -22 -43 -22
-76 -2 -111 65 -112 263 0 383 27 30 64 57 87 66 55 19 129 10 185 -24z"/>
</g>
</svg>
