<?xml version="1.0" encoding="UTF-8" standalone="no"?>
<svg
   xmlns:dc="http://purl.org/dc/elements/1.1/"
   xmlns:cc="http://creativecommons.org/ns#"
   xmlns:rdf="http://www.w3.org/1999/02/22-rdf-syntax-ns#"
   xmlns:svg="http://www.w3.org/2000/svg"
   xmlns="http://www.w3.org/2000/svg"
   xmlns:sodipodi="http://sodipodi.sourceforge.net/DTD/sodipodi-0.dtd"
   xmlns:inkscape="http://www.inkscape.org/namespaces/inkscape"
   version="1.0"
   width="788.000000pt"
   height="1024.000000pt"
   viewBox="0 0 788.000000 1024.000000"
   preserveAspectRatio="xMidYMid meet"
   id="svg2"
   inkscape:version="0.91 r13725"
   sodipodi:docname="Basic_77b.svg">
  <defs
     id="defs494" />
  <sodipodi:namedview
     pagecolor="#ffffff"
     bordercolor="#666666"
     borderopacity="1"
     objecttolerance="10"
     gridtolerance="10"
     guidetolerance="10"
     inkscape:pageopacity="0"
     inkscape:pageshadow="2"
     inkscape:window-width="1920"
     inkscape:window-height="974"
     id="namedview492"
     showgrid="false"
     inkscape:zoom="1.0429825"
     inkscape:cx="376.89172"
     inkscape:cy="313.66288"
     inkscape:window-x="0"
     inkscape:window-y="1"
     inkscape:window-maximized="1"
     inkscape:current-layer="svg2" />
  <metadata
     id="metadata4">
Created by potrace 1.14, written by Peter Selinger 2001-2017
<rdf:RDF>
  <cc:Work
     rdf:about="">
    <dc:format>image/svg+xml</dc:format>
    <dc:type
       rdf:resource="http://purl.org/dc/dcmitype/StillImage" />
  </cc:Work>
</rdf:RDF>
</metadata>
  <g
     transform="translate(0.000000,1024.000000) scale(0.100000,-0.100000)"
     fill="#000000"
     stroke="none"
     id="g6">
    <path
       d="M93 10144 c-10 -4 -13 -75 -13 -305 0 -164 2 -299 5 -299 3 0 63 12 133 26 149 31 366 38 492 15 271 -49 558 -212 627 -356 12 -26 23 -35 41 -35 23 0 24 1 17 63 -14 127 -58 326 -101 457 -45 138 -156 378 -193 417 l-21 22 -487 0 c-269 0 -494 -3 -500 -5z"
       id="path8"
       style="fill:#0033cc" />
    <path
       d="M1130 10143 c0 -1 27 -55 59 -120 99 -198 161 -388 200 -608 l19 -110 1 75 c2 181 -27 480 -61 640 -29 135 -22 129 -128 127 -49 -1 -90 -2 -90 -4z"
       id="path10"
       style="fill:#006666" />
    <path
       d="M1358 10145 c-2 -3 3 -42 13 -88 32 -147 50 -347 56 -609 3 -142 10 -258 14 -258 5 0 9 19 9 43 0 71 29 216 66 325 58 177 157 354 283 512 28 34 48 67 45 71 -5 9 -477 13 -486 4z"
       id="path12"
       style="fill:#006666" />
    <path
       d="M1883 10084 c-208 -236 -335 -498 -397 -821 l-14 -73 227 4 c219 4 221 4 56 -4 -93 -4 -195 -8 -226 -9 l-56 -1 -6 -37 c-10 -58 1 -86 29 -79 91 23 416 -151 667 -357 26 -21 47 -36 47 -32 0 4 -20 39 -44 79 -112 178 -154 312 -163 507 -12 268 50 590 156 808 17 36 31 68 31 73 0 4 -56 8 -124 8 l-125 0 -58 -66z"
       id="path14"
       style="fill:#006699" />
    <path
       d="M2294 10143 c-16 -3 -33 -30 -67 -101 -102 -220 -156 -467 -157 -711 l0 -113 68 7 c83 8 202 33 216 44 6 5 25 9 42 9 17 0 57 7 90 16 107 28 421 70 811 109 73 8 135 16 138 19 3 3 9 106 12 229 l6 224 -51 -47 c-196 -182 -424 -196 -585 -34 -63 62 -102 140 -130 255 -11 47 -26 89 -31 93 -11 8 -324 9 -362 1z"
       id="path16"
       style="fill:#cc33ff" />
    <path
       d="M2710 10118 c0 -81 60 -209 128 -277 74 -74 129 -96 237 -96 82 0 96 3 160 34 49 24 94 58 148 111 l78 76 -3 90 c-3 80 -5 89 -22 89 -13 0 -37 -26 -74 -80 -71 -107 -125 -160 -196 -195 -128 -65 -268 -24 -353 104 -18 26 -40 73 -50 104 -24 77 -53 99 -53 40z"
       id="path18"
       style="fill:#669933" />
    <path
       d="M2785 10141 c-3 -5 4 -34 15 -64 42 -111 140 -187 242 -187 66 0 123 26 182 81 52 47 129 156 120 170 -7 12 -551 12 -559 0z"
       id="path20"
       style="fill:#669933" />
    <path
       d="M3476 10143 c-8 -8 -6 -81 3 -113 7 -24 9 -22 44 31 49 77 49 82 1 85 -23 2 -44 1 -48 -3z"
       id="path22"
       style="fill:#333333" />
    <path
       d="M3650 10143 c-8 -2 -30 -30 -48 -62 -18 -31 -52 -82 -75 -112 -37 -48 -42 -62 -48 -129 -4 -41 -8 -153 -8 -248 l-1 -173 118 6 c64 4 127 11 139 17 16 8 26 8 35 1 7 -6 32 -14 56 -18 54 -9 50 -29 -6 -33 -39 -3 -43 -6 -98 -90 -34 -51 -100 -129 -161 -190 l-104 -103 -14 -187 c-8 -103 -17 -207 -21 -232 -7 -54 -8 -55 54 40 167 256 516 590 840 805 59 39 72 53 72 74 0 15 4 31 8 37 5 5 14 44 21 86 20 124 97 335 167 456 14 23 23 46 20 51 -7 11 -254 15 -280 5 -25 -10 -164 -299 -215 -445 -45 -134 -77 -270 -88 -384 l-7 -80 -7 65 c-20 182 42 422 190 730 50 103 50 105 28 112 -24 7 -543 8 -567 1z"
       id="path24"
       style="fill:#cc33ff" />
    <path
       d="M4652 10123 c-31 -44 -91 -168 -138 -285 -40 -100 -101 -314 -92 -324 3 -2 54 24 114 57 251 140 581 299 969 466 121 52 224 98 230 104 5 5 -193 9 -527 9 l-537 0 -19 -27z"
       id="path26"
       style="fill:#669999" />
    <path
       d="M5898 10126 c-92 -38 -181 -122 -320 -303 -110 -143 -203 -331 -248 -498 -47 -181 -68 -443 -51 -659 6 -76 13 -141 15 -144 3 -2 47 29 99 68 l94 73 12 81 c70 463 261 834 516 1005 217 145 445 142 666 -9 34 -23 65 -38 69 -33 11 13 82 421 75 433 -4 7 -150 10 -438 10 -430 0 -432 -1 -489 -24z"
       id="path28"
       style="fill:#66ccff" />
    <path
       d="M6867 10136 c-8 -8 -28 -95 -46 -203 -18 -103 -37 -204 -41 -225 -7 -34 -5 -39 41 -84 41 -41 52 -47 67 -38 90 57 309 166 447 225 94 39 229 97 300 128 l130 57 3 69 c2 48 -1 71 -10 76 -7 5 -207 9 -445 9 -357 0 -434 -2 -446 -14z"
       id="path30"
       style="fill:#66ccff" />
    <path
       d="M5580 9999 c-227 -96 -541 -235 -622 -275 -45 -23 -68 -40 -68 -52 0 -13 -2 -14 -9 -4 -6 11 -17 9 -54 -9 -25 -13 -48 -28 -51 -36 -9 -24 -26 -177 -36 -338 -8 -129 -51 -515 -75 -685 -6 -38 54 -266 66 -252 8 8 52 411 74 672 25 298 70 675 74 614 0 -11 -8 -101 -19 -200 -11 -98 -26 -267 -34 -374 -9 -107 -30 -328 -48 -491 l-32 -295 20 -70 c11 -38 25 -69 31 -69 6 0 104 72 218 160 l206 160 -5 40 c-23 175 -14 490 19 676 49 282 174 544 348 727 25 27 77 77 114 111 37 33 63 61 58 60 -6 -1 -84 -32 -175 -70z"
       id="path32"
       style="fill:#669999" />
    <path
       d="M7698 9939 c-32 -16 -152 -69 -266 -118 -270 -115 -542 -251 -542 -271 0 -4 21 -38 46 -76 96 -143 160 -303 189 -469 30 -176 21 -504 -21 -780 -9 -55 -18 -116 -21 -136 l-5 -36 63 -6 c165 -17 414 -36 514 -39 l110 -3 3 983 c1 540 -1 982 -5 982 -5 -1 -34 -14 -65 -31z"
       id="path34"
       style="fill:#66ccff" />
    <path
       d="M6211 9814 c-103 -27 -190 -82 -292 -184 -53 -52 -115 -123 -137 -157 -87 -129 -166 -313 -213 -496 -24 -93 -59 -280 -54 -285 2 -2 19 8 38 22 30 23 38 39 67 143 141 498 395 795 699 820 122 10 249 -30 354 -111 27 -21 50 -36 52 -34 2 2 7 31 10 64 l7 62 -53 40 c-153 114 -328 156 -478 116z"
       id="path36"
       style="fill:#669999" />
    <path
       d="M4665 9577 c-155 -82 -246 -137 -252 -153 -9 -23 50 -240 137 -509 43 -132 81 -255 85 -272 12 -59 22 -44 29 45 4 48 16 148 26 222 18 132 29 238 50 510 6 74 15 152 19 173 5 20 8 37 7 37 0 0 -46 -24 -101 -53z"
       id="path38"
       style="fill:#669999" />
    <path
       d="M6767 9614 c-10 -36 -18 -94 -13 -94 13 0 76 35 76 42 0 4 -13 22 -29 40 -26 29 -29 30 -34 12z"
       id="path40"
       style="fill:#669999" />
    <path
       d="M6288 9590 c-182 -31 -362 -206 -488 -473 -43 -91 -115 -286 -108 -293 2 -1 51 33 111 77 289 213 663 462 810 539 26 14 47 28 47 31 0 4 -23 21 -51 39 -106 69 -221 97 -321 80z"
       id="path42"
       style="fill:#6699ff" />
    <path
       d="M334 9558 c-40 -5 -112 -19 -160 -31 l-89 -22 -3 -192 -2 -193 49 0 c122 0 937 51 977 61 28 7 81 10 134 6 48 -3 91 -3 94 0 7 8 -46 82 -86 119 -52 49 -119 90 -230 144 -214 103 -441 139 -684 108z"
       id="path44"
       style="fill:#0033cc" />
    <path
       d="M6807 9509 c-42 -22 -43 -19 22 -99 24 -30 69 -105 98 -166 85 -176 123 -362 123 -594 0 -155 -31 -465 -57 -568 -5 -21 -2 -23 23 -20 28 3 29 5 46 98 36 202 50 405 45 625 -5 233 -17 302 -81 461 -38 94 -152 284 -170 284 -6 -1 -28 -10 -49 -21z"
       id="path46"
       style="fill:#669999" />
    <path
       d="M6575 9388 c-148 -83 -384 -239 -647 -426 -196 -140 -250 -183 -258 -207 -5 -16 -41 -165 -79 -330 -38 -165 -72 -313 -76 -329 l-8 -28 384 7 c211 4 387 9 392 12 4 2 -8 22 -26 43 -45 53 -67 128 -67 228 0 137 58 261 170 366 64 59 162 113 223 123 27 4 41 12 47 27 7 19 72 493 74 541 2 34 -34 27 -129 -27z"
       id="path48"
       style="fill:#6699ff" />
    <path
       d="M4313 9372 c-18 -14 -25 -36 -37 -127 -8 -61 -18 -173 -22 -249 l-7 -139 24 6 c13 4 27 7 30 7 3 0 9 35 13 78 3 42 17 146 31 230 31 197 24 239 -32 194z"
       id="path50"
       style="fill:#9900ff" />
    <path
       d="M6726 9358 c-3 -18 -17 -118 -31 -223 -13 -104 -27 -209 -30 -231 l-6 -42 58 -7 c90 -11 154 -40 207 -93 l48 -47 -7 80 c-13 146 -54 313 -100 407 -23 46 -118 188 -126 188 -4 0 -9 -15 -13 -32z"
       id="path52"
       style="fill:#6699ff" />
    <path
       d="M3605 9298 c-55 -44 -103 -88 -107 -99 -4 -10 -14 -19 -22 -19 -14 0 -26 -29 -26 -68 l0 -24 33 27 c58 49 248 266 230 264 -4 0 -53 -37 -108 -81z"
       id="path54"
       style="fill:#993399" />
    <path
       d="M3473 9363 c-13 -5 -19 -123 -7 -123 6 0 124 91 159 122 9 8 -131 10 -152 1z"
       id="path56"
       style="fill:#330099" />
    <path
       d="M3235 9344 c-435 -47 -835 -101 -835 -113 0 -19 46 -75 82 -102 43 -31 43 -31 138 -25 52 3 165 15 250 25 85 11 233 27 328 36 177 16 219 25 227 47 2 7 5 43 7 81 l4 67 -36 -1 c-19 -1 -93 -7 -165 -15z"
       id="path58"
       style="fill:#003366" />
    <path
       d="M4132 9246 c-178 -128 -241 -179 -241 -194 -1 -7 -5 -11 -9 -8 -5 3 -26 -10 -47 -29 l-37 -35 4 -139 c2 -77 6 -143 10 -146 3 -4 16 -2 27 5 20 10 21 20 22 148 1 75 5 148 10 162 6 19 8 12 4 -25 -3 -43 12 -245 20 -253 1 -1 24 7 51 19 27 12 101 40 164 63 l115 41 7 140 c3 77 13 185 22 239 9 54 15 101 13 103 -2 2 -63 -39 -135 -91z"
       id="path60"
       style="fill:#0000cc" />
    <path
       d="M4377 9240 c-5 -13 -22 -140 -42 -307 l-6 -53 60 0 c33 0 71 -4 85 -10 14 -5 26 -7 26 -3 0 3 -20 67 -45 142 -24 75 -50 161 -58 191 -8 32 -17 49 -20 40z"
       id="path62"
       style="fill:#9900ff" />
    <path
       d="M2340 9218 c0 -6 21 -48 47 -92 109 -187 247 -267 463 -268 164 0 356 62 513 166 51 34 55 40 59 81 2 25 0 45 -4 45 -4 0 -30 -13 -56 -30 -81 -49 -215 -109 -283 -125 -90 -21 -263 -19 -376 4 -159 33 -294 115 -330 199 -13 31 -33 44 -33 20z"
       id="path64"
       style="fill:#330099" />
    <path
       d="M2158 9213 c-61 -3 -88 -8 -88 -16 0 -39 24 -153 46 -222 14 -44 57 -144 96 -223 l71 -142 205 -193 c113 -105 210 -190 216 -189 6 2 54 6 106 9 162 9 318 -42 450 -148 33 -27 60 -43 60 -36 0 6 9 84 20 172 27 209 70 656 70 716 l0 48 -67 -41 c-87 -53 -214 -104 -306 -124 -98 -20 -251 -20 -324 1 -148 43 -270 150 -353 308 -44 85 -46 87 -80 85 -19 -1 -74 -4 -122 -5z"
       id="path66"
       style="fill:#cc33ff" />
    <path
       d="M1335 9160 c3 -5 8 -10 11 -10 2 0 4 5 4 10 0 6 -5 10 -11 10 -5 0 -7 -4 -4 -10z"
       id="path68"
       style="fill:none" />
    <path
       d="M1367 9151 c7 -26 43 -60 43 -40 0 33 -14 59 -30 59 -13 0 -17 -6 -13 -19z"
       id="path70"
       style="fill:none" />
    <path
       d="M1430 9153 c0 -10 -3 -36 -5 -58 -4 -28 -3 -34 3 -20 14 32 22 95 11 95 -5 0 -9 -8 -9 -17z"
       id="path72"
       style="fill:none" />
    <path
       d="M660 9125 c-173 -12 -375 -26 -448 -30 l-132 -7 0 -381 c0 -315 2 -379 13 -367 7 8 53 62 103 120 233 273 547 553 728 649 62 33 76 42 60 40 -5 -1 -151 -12 -324 -24z"
       id="path74"
       style="fill:#0033cc" />
    <path
       d="M3120 9139 c-69 -4 -194 -16 -279 -28 -84 -12 -178 -21 -209 -21 -67 0 -59 -11 23 -33 151 -40 313 -45 440 -12 67 18 194 69 221 90 22 17 13 17 -196 4z"
       id="path76"
       style="fill:#003366" />
    <path
       d="M1174 9088 c15 -73 18 -250 7 -373 -21 -232 -75 -633 -97 -721 -5 -19 0 -21 69 -27 41 -4 81 -9 89 -12 13 -5 20 19 42 130 14 75 24 140 22 144 -5 8 11 168 49 477 27 221 29 268 12 333 -15 57 -57 81 -141 81 l-58 0 6 -32z"
       id="path78"
       style="fill:#990033" />
    <path
       d="M1045 9079 c-115 -49 -113 -47 -145 -205 -34 -166 -168 -569 -293 -881 -47 -116 -93 -225 -101 -242 -25 -48 -19 -47 38 7 113 107 268 183 416 204 l78 12 26 160 c56 354 92 714 81 821 -12 122 -17 155 -23 155 -4 0 -38 -14 -77 -31z"
       id="path80"
       style="fill:#990033" />
    <path
       d="M1510 8967 c0 -54 79 -358 126 -484 47 -128 199 -441 259 -534 85 -133 207 -299 216 -293 17 10 8 35 -44 116 -82 128 -143 238 -227 410 -73 148 -175 387 -168 393 2 2 35 -67 73 -152 97 -216 329 -638 380 -691 10 -11 18 -3 45 45 18 32 47 79 66 105 l33 47 -66 118 c-128 228 -308 625 -354 781 -23 80 -141 147 -306 176 -33 5 -33 5 -33 -37z m160 -372 c0 -5 -5 -3 -10 5 -5 8 -10 20 -10 25 0 6 5 3 10 -5 5 -8 10 -19 10 -25z"
       id="path82"
       style="fill:#006699" />
    <path
       d="M853 8969 c-35 -22 -31 -10 -73 -238 -31 -166 -183 -592 -311 -871 -88 -193 -225 -434 -336 -593 l-54 -78 3 -72 3 -72 63 103 c243 401 446 864 651 1482 44 134 97 347 88 356 -1 2 -17 -6 -34 -17z"
       id="path84"
       style="fill:#990066" />
    <path
       d="M1435 8958 c-2 -7 -14 -89 -25 -183 -11 -93 -41 -303 -66 -465 -25 -162 -48 -311 -51 -331 l-5 -36 63 -23 c86 -33 197 -109 259 -178 95 -106 170 -299 170 -437 0 -45 1 -46 28 -41 15 3 63 10 107 16 145 20 131 9 139 105 4 47 14 110 21 140 l15 56 -72 97 c-39 53 -81 111 -93 127 -102 139 -259 460 -337 685 -16 47 -47 159 -68 250 -21 91 -43 177 -48 192 -13 31 -30 44 -37 26z"
       id="path86"
       style="fill:#99cccc" />
    <path
       d="M3677 8861 c-100 -103 -106 -111 -97 -136 5 -14 10 -38 11 -53 0 -15 6 -44 12 -64 l12 -37 80 49 c44 27 84 51 88 52 4 2 3 27 -4 57 -8 41 -8 76 0 144 7 49 10 91 8 93 -2 2 -52 -45 -110 -105z"
       id="path88"
       style="fill:#0000cc" />
    <path
       d="M690 8837 c-152 -134 -185 -173 -224 -270 -65 -159 -130 -279 -293 -542 l-93 -150 0 -310 c0 -360 -15 -346 125 -122 189 302 325 603 481 1059 48 139 101 372 92 400 -2 5 -42 -24 -88 -65z"
       id="path90"
       style="fill:#990033" />
    <path
       d="M1879 8818 c37 -95 119 -287 175 -408 71 -155 226 -440 239 -441 4 0 44 34 88 75 l79 75 -67 83 c-73 90 -148 204 -209 313 -80 146 -122 193 -250 288 -60 43 -67 45 -55 15z"
       id="path92"
       style="fill:#006699" />
    <path
       d="M4267 8804 c-148 -32 -563 -205 -622 -260 -15 -13 -32 -24 -38 -24 -14 0 -147 -87 -188 -122 -24 -22 -27 -35 -48 -209 l-23 -186 36 -50 c115 -161 168 -412 134 -635 l-14 -87 34 -45 c19 -25 38 -46 42 -46 5 0 57 30 117 66 59 36 149 86 198 111 50 25 92 47 94 49 2 2 -18 27 -44 56 -57 64 -149 248 -169 338 -9 36 -18 98 -22 137 l-7 71 -56 21 c-31 12 -67 30 -81 40 l-24 19 37 7 c42 8 176 -2 192 -14 14 -12 797 -23 814 -12 8 5 -31 7 -95 4 -62 -3 -196 1 -309 11 -110 9 -236 18 -280 21 -44 4 -134 13 -200 21 -66 8 -135 12 -155 8 -30 -4 -32 -4 -15 7 11 6 45 37 75 67 82 82 145 126 250 176 148 70 242 98 345 104 178 9 318 -47 402 -163 l22 -30 -8 31 c-63 227 -346 317 -673 213 -146 -46 -351 -172 -419 -257 l-21 -27 17 30 c61 104 171 198 310 265 148 71 205 84 365 85 169 0 247 -23 344 -102 16 -13 30 -22 33 -19 2 2 -16 72 -41 155 -25 83 -46 153 -46 155 0 2 -18 11 -40 20 -49 19 -132 19 -223 0z"
       id="path94"
       style="fill:#66ccff" />
    <path
       d="M6650 8774 c0 -5 -9 -88 -20 -184 -11 -96 -20 -188 -20 -203 l0 -28 29 22 c81 60 237 19 289 -76 6 -11 13 -18 15 -15 3 3 10 62 16 131 10 121 10 129 -11 175 -53 122 -119 172 -234 182 -35 2 -64 1 -64 -4z"
       id="path96"
       style="fill:#0066ff" />
    <path
       d="M6513 8741 c-109 -52 -202 -158 -244 -279 -29 -82 -23 -208 14 -283 37 -76 63 -89 177 -89 90 0 91 0 83 23 -13 37 -8 130 10 164 11 21 26 108 42 253 14 121 25 225 25 230 0 18 -45 10 -107 -19z"
       id="path98"
       style="fill:#0066ff" />
    <path
       d="M3515 8675 c-83 -116 -106 -160 -112 -220 l-6 -58 64 54 c36 30 79 65 96 79 31 24 32 27 23 70 -5 25 -9 64 -10 88 0 23 -3 42 -7 42 -5 0 -26 -25 -48 -55z"
       id="path100"
       style="fill:#0000cc" />
    <path
       d="M5534 8672 c-34 -31 -33 -27 -75 -412 -23 -214 -23 -200 0 -200 16 0 20 9 24 58 8 98 74 497 93 565 8 25 -7 21 -42 -11z"
       id="path102"
       style="fill:#669999" />
    <path
       d="M5383 8554 c-75 -59 -83 -69 -83 -99 0 -28 17 -138 57 -362 5 -28 10 -33 34 -33 32 0 26 -31 59 295 12 116 24 222 27 238 3 15 2 27 -3 27 -5 -1 -46 -30 -91 -66z"
       id="path104"
       style="fill:#66ccff" />
    <path
       d="M351 8503 c-49 -54 -130 -148 -180 -210 l-91 -112 0 -112 c0 -96 2 -111 14 -99 57 62 375 630 352 630 -3 0 -45 -44 -95 -97z"
       id="path106"
       style="fill:#990066" />
    <path
       d="M2205 8535 c50 -89 192 -299 238 -350 l45 -50 46 22 c25 13 46 26 46 30 0 8 -273 280 -359 358 l-44 40 28 -50z"
       id="path108"
       style="fill:#006699" />
    <path
       d="M5019 8269 c-107 -83 -200 -156 -207 -163 -10 -10 -1 -48 43 -196 31 -102 58 -190 60 -197 3 -9 19 -8 65 3 51 12 202 39 326 59 l31 5 -38 188 c-21 103 -46 243 -55 312 -10 69 -20 128 -24 133 -3 4 -94 -61 -201 -144z"
       id="path110"
       style="fill:#669999" />
    <path
       d="M4141 8371 c-18 -5 -43 -18 -55 -30 -28 -29 -28 -118 1 -183 21 -46 22 -46 77 -52 185 -19 169 -20 157 3 -33 61 6 167 77 212 l45 28 -29 12 c-35 15 -226 21 -273 10z"
       id="path112"
       style="fill:#0066ff" />
    <path
       d="M6715 8350 c-81 -18 -125 -82 -125 -179 0 -81 10 -87 166 -95 l121 -7 16 43 c10 24 17 58 17 75 0 101 -100 185 -195 163z"
       id="path114"
       style="fill:#66ff00" />
    <path
       d="M3960 8316 c-91 -38 -198 -95 -271 -143 -38 -25 -69 -47 -69 -49 0 -1 40 -2 89 -2 49 0 150 -3 225 -7 l136 -7 -28 48 c-22 41 -27 61 -26 117 0 37 0 67 0 67 -1 -1 -26 -11 -56 -24z"
       id="path116"
       style="fill:#6699ff" />
    <path
       d="M4445 8291 c-44 -19 -78 -68 -82 -118 -7 -76 1 -80 146 -85 l123 -4 -7 50 c-7 55 -24 99 -53 135 -21 25 -91 38 -127 22z"
       id="path118"
       style="fill:#00ff99" />
    <path
       d="M2767 8211 c-20 -4 -40 -10 -42 -13 -3 -3 32 -45 77 -94 104 -111 246 -276 350 -408 45 -56 84 -102 88 -104 4 -2 22 90 40 203 l33 206 -29 30 c-50 53 -163 121 -248 150 -87 30 -206 43 -269 30z"
       id="path120"
       style="fill:#99cccc" />
    <path
       d="M2553 8137 l-41 -22 21 -26 c53 -63 615 -589 657 -614 17 -10 -9 24 -159 210 -172 214 -406 475 -425 475 -6 -1 -30 -11 -53 -23z"
       id="path122"
       style="fill:#6699ff" />
    <path
       d="M2388 8012 l-81 -78 28 -45 c136 -217 303 -445 458 -625 99 -114 316 -338 323 -332 2 2 24 109 49 238 l47 234 -54 51 c-29 27 -107 99 -173 159 -66 60 -206 192 -312 293 -105 100 -194 183 -197 183 -4 0 -43 -35 -88 -78z"
       id="path124"
       style="fill:#006699" />
    <path
       d="M4650 8050 c0 -5 7 -7 15 -4 8 4 15 8 15 10 0 2 -7 4 -15 4 -8 0 -15 -4 -15 -10z"
       id="path126"
       style="fill:none" />
    <path
       d="M4734 8042 c-9 -6 -49 -391 -41 -398 6 -6 157 42 157 50 0 10 -100 349 -103 353 -2 1 -7 -1 -13 -5z"
       id="path128"
       style="fill:#00ff99" />
    <path
       d="M5682 8033 l-312 -3 5 -23 c3 -12 14 -65 25 -117 12 -52 22 -96 24 -97 2 -2 36 1 77 7 162 21 389 31 699 29 l325 -1 9 92 c7 75 6 94 -5 101 -8 5 -68 9 -134 9 -66 0 -183 2 -260 3 -77 2 -281 2 -453 0z"
       id="path130"
       style="fill:#669999" />
    <path
       d="M4666 7998 c-23 -21 -29 -40 -55 -203 -16 -99 -27 -182 -26 -183 2 -2 20 1 39 8 24 7 38 19 40 33 7 33 35 361 31 365 -1 2 -14 -7 -29 -20z"
       id="path132"
       style="fill:#669999" />
    <path
       d="M6570 7988 c0 -18 -3 -62 -6 -99 l-7 -65 219 -18 c252 -20 545 -55 787 -95 115 -19 170 -24 172 -17 4 12 24 250 22 252 -1 1 -105 6 -232 13 -126 6 -374 23 -550 36 -176 14 -339 25 -362 25 -42 0 -43 -1 -43 -32z"
       id="path134"
       style="fill:#006666" />
    <path
       d="M3830 7984 c0 -34 20 -135 41 -207 25 -83 10 -84 224 12 387 173 434 196 416 202 -9 4 -167 9 -349 10 -330 4 -332 4 -332 -17z"
       id="path136"
       style="fill:#006666" />
    <path
       d="M4590 7983 c-21 -8 -674 -304 -678 -308 -6 -5 45 -98 78 -144 l32 -43 36 34 c21 19 82 70 137 113 55 43 168 137 250 209 83 71 154 133 160 138 10 9 7 9 -15 1z"
       id="path138"
       style="fill:#00ff99" />
    <path
       d="M3336 7930 c-3 -19 -19 -114 -35 -210 l-29 -175 101 -134 c95 -127 101 -133 110 -110 18 45 14 296 -7 379 -20 82 -81 220 -114 260 l-20 25 -6 -35z"
       id="path140"
       style="fill:#99cccc" />
    <path
       d="M4565 7917 c-28 -23 -104 -89 -170 -147 -66 -58 -163 -137 -215 -177 -52 -39 -105 -82 -117 -95 l-23 -24 29 -28 30 -29 113 48 c62 26 165 67 228 90 63 24 118 49 122 57 8 15 60 339 55 344 -1 2 -25 -16 -52 -39z"
       id="path142"
       style="fill:#006666" />
    <path
       d="M1051 7844 c-82 -343 -267 -798 -530 -1302 l-53 -103 28 -41 c28 -40 149 -148 166 -148 11 0 167 314 239 481 77 181 136 355 205 599 47 167 117 450 139 556 7 36 2 39 -105 50 l-66 6 -23 -98z"
       id="path144"
       style="fill:#333366" />
    <path
       d="M896 7914 c-82 -20 -209 -82 -285 -139 -133 -101 -236 -266 -287 -461 -23 -85 -27 -121 -28 -254 -1 -162 11 -246 55 -381 25 -76 77 -189 87 -189 11 0 179 329 262 513 141 313 232 557 290 780 l38 147 -36 -1 c-20 0 -63 -7 -96 -15z"
       id="path146"
       style="fill:#99cccc" />
    <path
       d="M1276 7893 c-3 -10 -10 -47 -16 -83 -17 -97 -97 -452 -125 -554 -14 -50 -23 -91 -22 -93 2 -2 28 1 58 6 30 5 101 17 159 25 301 45 387 58 408 63 27 6 27 20 7 138 -38 214 -175 393 -366 479 -83 37 -97 40 -103 19z"
       id="path148"
       style="fill:#99cccc" />
    <path
       d="M2253 7859 c-17 -24 -45 -73 -63 -108 -25 -50 -30 -69 -22 -85 16 -34 187 -262 290 -386 105 -127 385 -412 501 -509 l74 -63 26 26 c16 17 29 45 36 81 l11 54 -121 123 c-221 225 -407 457 -584 728 -53 82 -101 156 -107 166 -9 16 -14 13 -41 -27z"
       id="path150"
       style="fill:#006699" />
    <path
       d="M5752 7790 c-145 -10 -312 -27 -319 -33 -7 -8 87 -439 156 -716 38 -152 77 -317 86 -367 l17 -92 61 5 c52 4 561 105 680 134 l37 10 0 103 c0 114 11 330 36 704 9 134 13 246 10 250 -10 10 -614 11 -764 2z"
       id="path152"
       style="fill:#669999" />
    <path
       d="M6556 7778 c-3 -7 -7 -53 -10 -103 -24 -364 -36 -567 -42 -739 l-7 -199 29 5 c127 23 222 42 299 59 50 11 153 33 231 49 164 34 356 90 424 125 127 64 239 266 240 430 0 152 -103 269 -255 289 -27 3 -131 17 -230 31 -157 21 -340 39 -603 59 -54 5 -74 3 -76 -6z"
       id="path154"
       style="fill:#006666" />
    <path
       d="M7763 7725 c0 -27 2 -38 4 -22 2 15 2 37 0 50 -2 12 -4 0 -4 -28z"
       id="path156"
       style="fill:none" />
    <path
       d="M5260 7739 c-158 -25 -330 -62 -330 -71 0 -18 151 -511 225 -738 41 -124 81 -256 90 -295 9 -38 23 -91 31 -117 l15 -46 62 14 c34 8 89 23 122 34 33 10 79 24 103 30 36 9 41 14 37 33 -2 12 -40 168 -84 347 -43 179 -103 436 -132 573 -42 193 -57 247 -69 246 -8 -1 -40 -5 -70 -10z"
       id="path158"
       style="fill:#669999" />
    <path
       d="M7633 7640 c20 -17 49 -51 63 -76 14 -24 28 -44 30 -44 2 0 4 29 4 64 0 72 7 65 -95 82 l-40 6 38 -32z"
       id="path160"
       style="fill:#cccc66" />
    <path
       d="M4775 7638 c-38 -11 -74 -24 -79 -28 -4 -5 -19 -113 -32 -242 -13 -128 -25 -245 -27 -259 -2 -20 10 -44 45 -90 110 -146 204 -381 233 -581 4 -27 9 -48 12 -48 6 0 220 49 264 60 l35 10 -31 122 c-18 68 -71 240 -118 383 -47 143 -108 339 -137 435 -71 241 -75 253 -86 256 -5 1 -40 -7 -79 -18z"
       id="path162"
       style="fill:#669999" />
    <path
       d="M2136 7634 c-6 -16 25 -61 189 -271 34 -44 65 -67 65 -48 0 3 -26 38 -58 78 -32 40 -84 111 -117 158 -74 106 -71 104 -79 83z"
       id="path164"
       style="fill:#333366" />
    <path
       d="M7746 7458 c-3 -101 -9 -252 -12 -336 -6 -147 -6 -154 12 -150 18 3 19 20 22 336 2 357 -11 453 -22 150z"
       id="path166"
       style="fill:#000066" />
    <path
       d="M4605 7586 l-31 -13 -28 -198 c-15 -108 -26 -198 -24 -199 2 -1 22 -17 45 -34 l41 -32 6 37 c3 21 13 110 21 198 8 88 18 181 21 208 7 52 1 56 -51 33z"
       id="path168"
       style="fill:#00ff99" />
    <path
       d="M4415 7521 c-71 -26 -168 -64 -215 -83 l-84 -35 74 -43 c184 -104 311 -168 315 -157 2 7 13 82 25 167 12 85 24 165 27 178 3 12 1 22 -3 22 -5 -1 -67 -22 -139 -49z"
       id="path170"
       style="fill:#006666" />
    <path
       d="M2101 7513 c-6 -21 -14 -77 -18 -124 l-6 -87 69 5 c38 3 84 8 102 12 l33 6 -85 113 -85 114 -10 -39z"
       id="path172"
       style="fill:#6699ff" />
    <path
       d="M3235 7358 c-16 -73 -85 -435 -85 -450 0 -22 45 -52 62 -42 7 5 52 39 99 76 75 59 89 75 108 124 11 31 21 62 21 70 0 20 -109 164 -157 208 -42 37 -42 37 -48 14z"
       id="path174"
       style="fill:#6699ff" />
    <path
       d="M3890 7294 c-131 -70 -287 -161 -294 -172 -3 -5 57 -98 134 -208 164 -235 235 -347 346 -548 46 -82 85 -151 88 -153 6 -6 228 46 237 56 4 3 16 116 28 251 21 230 45 462 55 521 4 22 -3 30 -62 66 -37 22 -122 69 -189 103 -68 35 -145 81 -173 102 -28 21 -54 38 -58 38 -4 0 -54 -25 -112 -56z"
       id="path176"
       style="fill:#669999" />
    <path
       d="M182 7135 l-102 -172 2 -529 3 -529 96 145 c53 80 129 202 168 271 l72 126 -39 76 c-101 196 -144 472 -109 692 8 50 14 91 13 91 0 1 -47 -76 -104 -171z"
       id="path178"
       style="fill:#990033" />
    <path
       d="M2400 7285 c0 -26 256 -329 429 -507 l134 -139 21 21 21 21 -90 81 c-117 105 -294 287 -403 413 -123 143 -112 133 -112 110z"
       id="path180"
       style="fill:#66cc66" />
    <path
       d="M2190 7241 c-16 -31 -12 -63 16 -119 43 -87 123 -136 202 -124 43 6 78 52 62 83 -6 11 -18 18 -25 15 -119 -45 -217 38 -170 147 11 26 -70 25 -85 -2z"
       id="path182"
       style="fill:#993399" />
    <path
       d="M2300 7234 c-20 -51 -7 -85 39 -104 30 -12 81 -7 81 8 0 13 -90 122 -100 122 -6 0 -15 -12 -20 -26z"
       id="path184"
       style="fill:#000099" />
    <path
       d="M2080 7216 c0 -37 35 -131 59 -160 21 -24 88 -63 125 -72 29 -7 28 -6 -13 31 -63 57 -95 118 -96 182 l0 53 -37 0 c-36 0 -38 -1 -38 -34z"
       id="path186"
       style="fill:#ff6699" />
    <path
       d="M1890 7221 l-105 -16 -7 -152 c-4 -84 -18 -230 -32 -325 -14 -95 -30 -225 -36 -288 -6 -63 -22 -212 -35 -330 -26 -233 -45 -456 -45 -532 l0 -48 28 11 c15 6 44 13 66 15 21 3 68 16 105 30 76 29 332 113 438 143 39 12 74 27 76 34 4 8 6 8 6 1 1 -10 111 15 178 40 8 3 -3 35 -31 93 -52 105 -90 198 -158 382 -79 212 -216 609 -273 790 -28 91 -56 166 -61 167 -5 1 -56 -6 -114 -15z"
       id="path188"
       style="fill:#336699" />
    <path
       d="M7694 7205 c-58 -141 -155 -233 -299 -287 -27 -10 -39 -16 -25 -14 14 2 95 17 181 32 l156 27 7 135 c4 74 5 137 2 140 -3 3 -13 -12 -22 -33z"
       id="path190"
       style="fill:#cccc66" />
    <path
       d="M1665 7185 c-5 -2 -27 -6 -47 -10 -29 -4 -38 -11 -38 -26 0 -65 76 -117 125 -85 22 14 25 24 25 71 0 54 -1 55 -27 54 -16 0 -32 -2 -38 -4z"
       id="path192"
       style="fill:#000099" />
    <path
       d="M1442 7153 c-40 -5 -47 -19 -32 -71 22 -84 100 -142 191 -142 44 0 55 4 80 31 35 38 37 51 5 43 -57 -14 -136 54 -136 119 0 25 -3 27 -37 25 -21 0 -53 -3 -71 -5z"
       id="path194"
       style="fill:#993399" />
    <path
       d="M1110 7089 c0 -111 114 -198 270 -207 43 -2 100 -1 126 3 l48 7 -48 23 c-26 13 -58 33 -72 46 -34 31 -64 99 -64 142 l0 36 -130 -2 -130 -2 0 -46z"
       id="path196"
       style="fill:#ff6699" />
    <path
       d="M3457 7078 c-8 -28 -5 -31 18 -14 10 7 15 18 11 24 -11 18 -23 14 -29 -10z"
       id="path198"
       style="fill:none" />
    <path
       d="M3463 7037 c-18 -12 -42 -44 -55 -72 -13 -27 -44 -82 -70 -122 l-47 -72 93 -70 c158 -119 271 -190 427 -267 83 -42 153 -73 156 -71 12 12 -448 698 -467 696 -3 0 -19 -10 -37 -22z"
       id="path200"
       style="fill:#006699" />
    <path
       d="M4500 7043 c0 -4 -9 -82 -20 -173 -17 -147 -41 -398 -53 -548 -4 -53 -4 -53 21 -47 13 3 37 8 52 11 32 7 25 -34 66 390 26 264 27 283 11 307 -18 27 -77 73 -77 60z"
       id="path202"
       style="fill:#006666" />
    <path
       d="M1021 6897 c-41 -115 -43 -125 -32 -167 42 -159 206 -298 355 -302 89 -2 113 8 158 69 73 100 204 380 186 399 -4 3 -17 -1 -30 -10 -107 -70 -298 -79 -430 -19 -59 26 -148 110 -148 139 0 38 -19 3 -59 -109z"
       id="path204"
       style="fill:#ff6699" />
    <path
       d="M2491 6988 c-60 -75 -171 -86 -277 -29 -43 23 -54 26 -49 13 4 -9 21 -55 38 -102 29 -79 37 -91 122 -175 143 -143 258 -191 435 -182 92 4 95 5 122 37 l27 33 -106 111 c-59 61 -147 159 -196 219 -50 59 -91 107 -91 106 -1 0 -12 -14 -25 -31z"
       id="path206"
       style="fill:#ff6699" />
    <path
       d="M3283 6902 l-71 -57 21 -22 c11 -13 24 -23 28 -23 8 0 75 94 98 138 18 34 3 27 -76 -36z"
       id="path208"
       style="fill:#006699" />
    <path
       d="M7735 6928 c-10 -33 -11 -138 0 -138 24 0 35 26 35 87 0 50 -3 63 -15 63 -9 0 -17 -6 -20 -12z"
       id="path210"
       style="fill:#000066" />
    <path
       d="M7475 6889 c-162 -30 -699 -134 -957 -185 l-28 -6 0 -99 c0 -54 4 -99 9 -99 21 0 340 68 1001 213 l195 43 7 40 c12 66 9 134 -4 133 -7 -1 -107 -19 -223 -40z"
       id="path212"
       style="fill:#669999" />
    <path
       d="M4616 6889 c-11 -64 -57 -552 -54 -569 3 -15 14 -14 127 13 l124 29 -6 67 c-3 36 -18 107 -32 156 -25 84 -105 268 -139 316 -14 21 -15 21 -20 -12z"
       id="path214"
       style="fill:#006666" />
    <path
       d="M3130 6819 c0 -18 2 -19 15 -9 15 12 12 30 -6 30 -5 0 -9 -10 -9 -21z"
       id="path216"
       style="fill:none" />
    <path
       d="M3147 6790 c-14 -11 -28 -34 -31 -50 -3 -17 -9 -43 -12 -60 -9 -45 14 -38 76 25 l54 55 -24 25 c-28 30 -30 30 -63 5z"
       id="path218"
       style="fill:#3300cc" />
    <path
       d="M1657 6700 c-38 -92 -130 -231 -206 -313 -105 -111 -256 -199 -393 -227 -34 -7 -58 -17 -58 -24 0 -20 141 -293 203 -393 54 -87 186 -265 205 -277 5 -3 37 4 70 15 51 17 62 25 66 47 13 72 25 177 31 272 7 128 79 751 101 873 9 48 15 90 12 92 -2 2 -16 -27 -31 -65z"
       id="path220"
       style="fill:#336699" />
    <path
       d="M7739 6743 c-13 -3 -17 -31 -22 -176 -11 -271 -8 -589 8 -886 7 -150 16 -275 19 -278 23 -24 26 44 26 678 0 368 -3 668 -7 668 -5 -1 -15 -3 -24 -6z"
       id="path222"
       style="fill:#cccc66" />
    <path
       d="M921 6644 c-24 -55 -79 -171 -123 -258 -86 -172 -85 -166 -18 -186 35 -11 190 -26 190 -19 0 2 -9 33 -20 69 -11 36 -20 72 -19 80 0 8 11 -20 24 -63 12 -43 25 -81 28 -84 12 -11 172 39 247 77 92 49 227 166 175 153 -169 -42 -344 82 -432 306 -8 21 -13 14 -52 -75z m-4 -236 c-3 -7 -5 -2 -5 12 0 14 2 19 5 13 2 -7 2 -19 0 -25z m10 -50 c-3 -8 -6 -5 -6 6 -1 11 2 17 5 13 3 -3 4 -12 1 -19z"
       id="path224"
       style="fill:#99cccc" />
    <path
       d="M3203 6679 l-62 -58 91 -67 c229 -168 431 -286 623 -363 l96 -39 57 15 c31 8 59 16 61 18 1 2 -7 22 -20 45 -22 38 -39 49 -213 138 -191 96 -371 209 -501 313 l-71 56 -61 -58z"
       id="path226"
       style="fill:#006699" />
    <path
       d="M7225 6631 c-214 -48 -444 -98 -509 -112 l-119 -24 6 -215 c4 -118 12 -314 18 -435 l11 -220 33 -33 32 -34 28 49 c167 287 445 635 753 941 102 101 165 172 155 171 -10 0 -193 -40 -408 -88z"
       id="path228"
       style="fill:#006666" />
    <path
       d="M7486 6528 c-329 -330 -523 -570 -718 -887 -45 -74 -55 -98 -46 -108 23 -28 181 -126 248 -154 155 -65 360 -93 510 -70 83 13 207 53 225 73 9 10 8 77 -2 278 -9 177 -13 397 -9 663 2 253 1 397 -6 397 -5 0 -96 -87 -202 -192z"
       id="path230"
       style="fill:#006666" />
    <path
       d="M3050 6700 c0 -5 5 -10 10 -10 6 0 10 5 10 10 0 6 -4 10 -10 10 -5 0 -10 -4 -10 -10z"
       id="path232"
       style="fill:none" />
    <path
       d="M2324 6611 c74 -110 285 -381 296 -381 4 0 36 37 69 82 l62 83 -65 12 c-77 14 -183 67 -246 124 l-45 40 51 -35 c75 -53 175 -96 249 -109 l65 -11 33 33 32 33 -50 -5 c-65 -7 -185 9 -247 34 -68 27 -154 82 -212 138 l-49 46 57 -84z"
       id="path234"
       style="fill:#6699ff" />
    <path
       d="M6200 6639 c-129 -27 -242 -52 -250 -55 -8 -3 14 -14 50 -23 76 -21 171 -59 218 -88 31 -19 38 -20 100 -8 37 7 84 15 105 19 l37 7 0 99 c0 74 -3 100 -12 99 -7 0 -119 -23 -248 -50z"
       id="path236"
       style="fill:#006666" />
    <path
       d="M2995 6650 c-18 -20 -18 -21 2 -42 37 -37 83 4 48 42 -23 25 -28 25 -50 0z"
       id="path238"
       style="fill:#996633" />
    <path
       d="M3093 6587 c-32 -40 -25 -54 95 -167 106 -99 343 -299 400 -337 20 -14 33 -13 152 17 72 18 129 34 128 36 -2 1 -41 19 -88 39 -152 65 -390 210 -572 348 -105 80 -104 79 -115 64z"
       id="path240"
       style="fill:#66cc66" />
    <path
       d="M2310 6575 c0 -5 131 -357 172 -463 7 -18 16 -31 19 -30 4 2 28 30 53 62 l46 59 -52 66 c-29 36 -94 121 -145 189 -51 68 -93 121 -93 117z"
       id="path242"
       style="fill:#99cccc" />
    <path
       d="M2905 6550 c-3 -5 1 -10 9 -10 9 0 16 5 16 10 0 6 -4 10 -9 10 -6 0 -13 -4 -16 -10z"
       id="path244"
       style="fill:none" />
    <path
       d="M2902 6502 c-50 -16 -106 -62 -84 -70 14 -4 92 34 127 63 35 28 29 29 -43 7z"
       id="path246"
       style="fill:#3333cc" />
    <path
       d="M5533 6490 c-81 -21 -243 -99 -348 -168 -38 -25 -115 -91 -170 -146 -113 -114 -177 -216 -222 -352 l-26 -81 21 -30 c26 -36 99 -76 172 -94 32 -8 109 -13 185 -12 150 1 289 28 483 94 288 99 615 298 676 411 19 35 19 35 -7 92 -51 111 -198 236 -326 277 -95 31 -335 36 -438 9z"
       id="path248"
       style="fill:#ff0000" />
    <path
       d="M2944 6465 c-23 -18 -69 -40 -103 -50 -58 -18 -63 -22 -135 -115 l-74 -97 105 -144 c58 -79 107 -150 110 -156 6 -16 35 -16 86 -2 l37 10 0 82 c1 155 26 402 45 431 19 29 15 50 -12 64 -14 7 -28 1 -59 -23z"
       id="path250"
       style="fill:#6699ff" />
    <path
       d="M6525 6481 l-30 -6 -3 -298 -2 -298 34 -73 c18 -40 46 -91 61 -112 l27 -39 -6 170 c-3 94 -9 281 -12 418 -8 271 -3 252 -69 238z"
       id="path252"
       style="fill:#cccc66" />
    <path
       d="M6365 6452 c-44 -8 -82 -16 -83 -17 -2 -2 15 -27 38 -56 49 -62 84 -129 116 -219 l23 -65 0 182 c1 100 -2 183 -6 186 -5 2 -44 -3 -88 -11z"
       id="path254"
       style="fill:#cccc66" />
    <path
       d="M3050 6416 c0 -7 26 -30 58 -51 l57 -37 -50 51 c-51 53 -65 61 -65 37z"
       id="path256"
       style="fill:none" />
    <path
       d="M5150 6410 c-41 -10 -110 -26 -152 -35 l-78 -17 0 -74 c0 -41 2 -74 4 -74 3 0 37 24 77 54 39 30 114 76 165 103 129 66 126 77 -16 43z"
       id="path258"
       style="fill:#006666" />
    <path
       d="M395 6314 c-62 -111 -178 -293 -255 -399 l-60 -84 2 -263 3 -263 142 213 c137 204 295 463 382 624 l42 76 -44 30 c-24 17 -69 58 -100 91 -31 34 -58 61 -60 61 -2 0 -25 -39 -52 -86z"
       id="path260"
       style="fill:#990033" />
    <path
       d="M3045 6308 c16 -140 25 -256 25 -308 0 -64 1 -65 59 -54 l31 6 -7 74 c-5 63 6 163 23 208 4 10 -115 116 -130 116 -3 0 -3 -19 -1 -42z"
       id="path262"
       style="fill:#993300" />
    <path
       d="M4672 6300 c-62 -15 -115 -30 -116 -31 -2 -2 -11 -86 -20 -186 -9 -101 -24 -227 -32 -280 -53 -345 -55 -331 -14 87 16 168 31 320 33 338 3 36 3 36 -58 21 l-43 -11 -7 -81 c-11 -143 -26 -279 -40 -367 l-13 -85 39 -77 c23 -46 51 -86 71 -101 33 -24 152 -97 159 -97 2 0 2 37 0 82 -6 139 42 350 105 458 34 58 72 196 81 288 7 86 18 82 -145 42z"
       id="path264"
       style="fill:#006666" />
    <path
       d="M3194 6219 c-10 -16 -18 -201 -10 -232 5 -22 10 -24 32 -18 l27 7 1 113 c1 106 -1 115 -21 128 -16 11 -23 11 -29 2z"
       id="path266"
       style="fill:#993300" />
    <path
       d="M4278 6206 c-48 -12 -90 -25 -93 -28 -4 -4 14 -52 40 -108 25 -56 62 -150 81 -208 19 -59 37 -113 40 -121 2 -8 7 -12 9 -9 5 5 45 416 45 465 0 39 -1 39 -122 9z"
       id="path268"
       style="fill:#006666" />
    <path
       d="M622 6057 c-40 -73 -116 -202 -169 -287 -53 -85 -102 -171 -109 -190 -7 -19 -13 -75 -14 -124 0 -88 25 -284 39 -298 9 -10 613 169 622 184 4 6 13 40 19 75 7 35 14 62 17 59 2 -2 -1 -32 -8 -65 -6 -34 -9 -64 -7 -67 5 -5 341 91 364 104 9 5 -2 27 -38 72 -60 77 -182 261 -229 345 -18 33 -54 110 -81 170 l-48 110 -92 6 c-51 4 -113 14 -137 23 -24 9 -46 16 -50 16 -3 0 -39 -60 -79 -133z m445 -419 c-3 -8 -6 -5 -6 6 -1 11 2 17 5 13 3 -3 4 -12 1 -19z m-10 -50 c-3 -8 -6 -5 -6 6 -1 11 2 17 5 13 3 -3 4 -12 1 -19z m-10 -50 c-3 -7 -5 -2 -5 12 0 14 2 19 5 13 2 -7 2 -19 0 -25z m-10 -40 c-3 -8 -6 -5 -6 6 -1 11 2 17 5 13 3 -3 4 -12 1 -19z"
       id="path270"
       style="fill:#99cccc" />
    <path
       d="M2557 6119 c-26 -34 -47 -67 -47 -73 1 -20 85 -218 93 -218 24 -2 217 47 217 54 0 11 -202 298 -210 298 -3 0 -27 -28 -53 -61z"
       id="path272"
       style="fill:#99cccc" />
    <path
       d="M3276 6172 c-3 -3 -6 -45 -6 -94 0 -72 3 -88 15 -88 9 0 63 12 121 26 l105 27 -43 25 c-24 13 -75 44 -115 67 -39 24 -74 40 -77 37z"
       id="path274"
       style="fill:#993300" />
    <path
       d="M4035 6146 l-40 -12 45 -16 c25 -9 53 -19 63 -23 17 -7 17 -6 1 29 -10 20 -20 36 -23 35 -3 0 -24 -6 -46 -13z"
       id="path276"
       style="fill:#333366" />
    <path
       d="M3782 6086 c-73 -18 -135 -35 -138 -38 -7 -8 119 -91 195 -128 34 -17 96 -40 138 -51 78 -19 217 -26 241 -10 10 6 5 25 -25 86 l-38 79 -120 48 c-65 26 -119 48 -119 47 -1 -1 -61 -16 -134 -33z"
       id="path278"
       style="fill:#006699" />
    <path
       d="M6270 6023 c-86 -85 -182 -149 -365 -238 -295 -145 -544 -215 -763 -215 -149 0 -284 36 -347 91 -32 28 -34 29 -40 9 -8 -26 12 -53 74 -100 82 -61 135 -75 291 -75 115 0 151 4 245 29 286 73 693 279 894 451 60 51 93 97 80 109 -2 2 -33 -26 -69 -61z"
       id="path280"
       style="fill:#ff0000" />
    <path
       d="M3430 5999 c-41 -11 -92 -24 -112 -30 l-37 -9 20 -72 c24 -87 75 -200 120 -264 115 -167 347 -320 577 -381 75 -20 131 -27 243 -30 160 -6 244 8 363 61 l60 27 -35 23 c-19 13 -92 58 -163 101 -138 82 -499 317 -754 491 -106 72 -162 104 -180 103 -15 0 -61 -10 -102 -20z"
       id="path282"
       style="fill:#cc3300" />
    <path
       d="M6295 5984 c-129 -113 -260 -197 -485 -309 -469 -235 -831 -267 -1022 -92 l-38 35 0 -73 c0 -86 29 -208 67 -278 36 -66 120 -157 182 -196 27 -17 86 -46 132 -63 73 -27 100 -32 209 -36 140 -4 206 7 337 58 205 78 457 303 575 510 36 64 67 153 84 238 15 78 19 242 7 242 -5 -1 -26 -17 -48 -36z"
       id="path284"
       style="fill:#ff0000" />
    <path
       d="M3207 5943 c-20 -5 -18 -18 19 -131 91 -276 293 -491 559 -593 173 -67 254 -82 440 -83 158 0 177 2 260 28 111 34 195 71 195 87 0 13 -1 13 -121 -30 -153 -55 -303 -62 -500 -25 -193 36 -381 131 -542 274 -103 92 -188 234 -239 402 -23 78 -27 82 -71 71z"
       id="path286"
       style="fill:#cc3300" />
    <path
       d="M3112 5923 c-33 -6 -37 -24 -23 -129 17 -127 55 -267 91 -328 133 -233 525 -487 890 -577 83 -20 120 -23 295 -24 160 0 216 4 280 18 79 19 195 68 215 92 7 8 -6 28 -45 68 -30 30 -68 81 -85 111 -18 31 -35 56 -38 56 -4 0 -16 -7 -27 -16 -32 -24 -232 -84 -319 -95 -226 -29 -545 48 -753 184 -198 128 -352 349 -414 595 -13 53 -15 55 -67 45z"
       id="path288"
       style="fill:#cc3300" />
    <path
       d="M2925 5877 c-22 -5 -42 -11 -44 -13 -1 -1 20 -42 49 -89 29 -47 53 -85 55 -83 3 3 -14 191 -18 194 -1 0 -20 -4 -42 -9z"
       id="path290"
       style="fill:#3366cc" />
    <path
       d="M2723 5833 c-63 -15 -113 -31 -113 -37 0 -7 81 -214 180 -461 188 -468 303 -774 315 -838 4 -20 11 -37 15 -37 9 0 94 218 114 295 9 33 21 106 28 162 l12 102 -46 68 c-100 151 -169 301 -208 452 -17 66 -34 101 -100 201 -44 66 -81 120 -82 119 -2 0 -54 -12 -115 -26z"
       id="path292"
       style="fill:#99cccc" />
    <path
       d="M4035 5795 c9 -5 76 -48 148 -94 73 -46 137 -86 144 -88 10 -4 -21 103 -51 178 -6 13 -26 16 -132 15 -88 -1 -121 -4 -109 -11z"
       id="path294"
       style="fill:#66cc66" />
    <path
       d="M6495 5575 c3 -132 8 -270 11 -306 l6 -67 58 117 57 116 -6 85 c-6 78 -10 89 -44 136 -20 28 -48 76 -62 105 l-26 54 6 -240z"
       id="path296"
       style="fill:#666633" />
    <path
       d="M2556 5725 c-21 -39 -233 -249 -308 -305 -44 -33 -48 -40 -72 -127 -31 -111 -84 -370 -88 -433 l-3 -45 170 -96 c94 -53 242 -135 330 -184 156 -85 365 -220 365 -234 0 -11 88 -70 94 -64 3 4 6 16 6 27 0 12 14 52 30 91 l30 69 -25 66 c-13 36 -54 146 -90 245 -88 243 -400 1018 -411 1022 -5 2 -18 -13 -28 -32z"
       id="path298"
       style="fill:#99cccc" />
    <path
       d="M6431 5657 c-55 -220 -186 -415 -390 -579 l-76 -61 40 6 c22 3 137 18 255 33 118 14 217 28 219 29 3 4 -18 657 -22 661 -1 2 -13 -38 -26 -89z"
       id="path300"
       style="fill:#669999" />
    <path
       d="M2392 5711 c-40 -10 -75 -20 -77 -23 -5 -5 -70 -174 -80 -208 -5 -18 22 4 95 75 116 114 168 175 148 174 -7 0 -46 -9 -86 -18z"
       id="path302"
       style="fill:#66cc66" />
    <path
       d="M2130 5636 c-74 -23 -141 -45 -148 -50 -7 -4 -26 -35 -43 -69 -18 -34 -40 -75 -51 -90 -11 -16 -18 -30 -16 -33 6 -6 99 -22 185 -32 l72 -8 40 40 c26 27 48 65 64 111 14 39 34 94 46 123 26 65 31 64 -149 8z"
       id="path304"
       style="fill:#66cc66" />
    <path
       d="M1923 5569 c-43 -16 -111 -169 -75 -169 9 0 106 169 100 175 -1 1 -13 -1 -25 -6z"
       id="path306"
       style="fill:#336666" />
    <path
       d="M6640 5524 l1 -49 19 24 c25 29 25 34 0 56 -20 18 -20 17 -20 -31z"
       id="path308"
       style="fill:#006666" />
    <path
       d="M289 5507 c-37 -59 -59 -166 -59 -291 0 -59 3 -106 8 -106 4 0 27 6 52 14 52 16 51 9 30 175 -7 61 -10 134 -6 178 4 40 6 73 4 73 -2 0 -15 -19 -29 -43z"
       id="path310"
       style="fill:#339966" />
    <path
       d="M1733 5516 c-62 -17 -115 -34 -118 -38 -4 -3 35 -20 87 -36 l93 -31 32 62 c34 65 38 78 26 76 -5 -1 -58 -16 -120 -33z"
       id="path312"
       style="fill:#336666" />
    <path
       d="M6670 5478 c-15 -24 -20 -50 -19 -98 0 -78 14 -258 20 -264 2 -2 29 0 59 5 30 5 217 22 415 39 339 28 483 43 548 56 26 5 27 8 27 65 0 32 -2 59 -4 59 -2 0 -32 -11 -67 -24 -102 -38 -191 -49 -340 -43 -105 4 -154 11 -224 31 -112 33 -232 93 -316 156 -35 27 -67 49 -72 50 -4 0 -16 -15 -27 -32z"
       id="path314"
       style="fill:#669999" />
    <path
       d="M1473 5457 c-18 -7 -33 -16 -34 -20 -2 -11 62 -97 71 -97 4 0 10 21 14 46 12 91 10 93 -51 71z"
       id="path316"
       style="fill:#336666" />
    <path
       d="M1551 5374 l-11 -76 54 -67 c108 -131 345 -340 354 -312 4 13 -39 176 -86 318 l-36 113 -66 21 c-36 12 -94 35 -129 50 -35 16 -65 29 -66 29 -1 0 -8 -34 -14 -76z"
       id="path318"
       style="fill:#99cccc" />
    <path
       d="M1360 5416 c-20 -8 -109 -35 -198 -62 -134 -40 -163 -51 -167 -68 -3 -12 -43 -214 -90 -451 -135 -680 -136 -683 -79 -752 20 -24 90 -82 157 -130 67 -47 140 -101 163 -119 l41 -33 45 62 c44 61 45 65 81 262 21 110 53 281 71 380 19 99 53 304 75 455 23 151 44 291 47 311 5 33 0 43 -46 98 -28 33 -54 61 -58 60 -4 0 -23 -6 -42 -13z"
       id="path320"
       style="fill:#336699" />
    <path
       d="M6581 5305 c-40 -83 -71 -170 -71 -203 0 -13 23 -13 110 4 l25 5 -7 112 c-13 191 -8 184 -57 82z"
       id="path322"
       style="fill:#666633" />
    <path
       d="M7753 5363 c-16 -6 -18 -129 -3 -138 16 -10 21 16 18 82 -2 42 -7 59 -15 56z"
       id="path324"
       style="fill:#000066" />
    <path
       d="M2163 5353 c-7 -3 -13 -11 -13 -18 0 -28 -88 -33 -207 -10 -43 8 -81 15 -84 15 -4 0 12 -60 36 -132 23 -73 53 -177 66 -230 22 -92 25 -99 61 -123 46 -31 48 -31 48 -2 0 35 58 310 86 410 14 49 24 90 22 92 -2 1 -9 0 -15 -2z"
       id="path326"
       style="fill:#99cccc" />
    <path
       d="M121 5261 c-39 -56 -41 -64 -41 -132 0 -61 2 -70 16 -65 9 3 26 9 39 12 21 5 23 11 28 122 2 64 3 118 2 120 -2 2 -22 -24 -44 -57z"
       id="path328"
       style="fill:#3399ff" />
    <path
       d="M720 5224 c-135 -40 -268 -80 -297 -89 l-52 -15 30 -112 c45 -165 94 -307 156 -448 72 -163 195 -385 203 -368 4 7 12 54 19 103 7 50 34 194 61 320 70 329 140 665 140 676 0 12 16 16 -260 -67z"
       id="path330"
       style="fill:#99cccc" />
    <path
       d="M1512 5098 c-42 -292 -162 -957 -199 -1098 -4 -18 24 5 103 83 60 59 150 137 199 172 98 71 256 153 348 181 34 10 63 26 69 37 7 14 0 69 -28 208 l-37 189 -66 48 c-106 77 -211 174 -285 261 -37 45 -71 81 -75 81 -3 0 -17 -73 -29 -162z"
       id="path332"
       style="fill:#336699" />
    <path
       d="M3290 5243 c0 -31 185 -259 281 -346 59 -54 83 -68 171 -101 303 -113 409 -141 575 -152 159 -10 366 23 508 83 65 27 180 99 209 132 18 20 17 21 -36 47 l-55 27 -47 -32 c-193 -133 -587 -148 -931 -36 -205 66 -494 224 -623 340 -29 26 -52 43 -52 38z"
       id="path334"
       style="fill:#cc3300" />
    <path
       d="M7630 5115 c-94 -13 -251 -25 -630 -45 -176 -10 -317 -24 -325 -32 -5 -5 36 -472 41 -478 11 -11 158 -11 239 -1 210 28 407 123 590 285 97 85 225 235 225 263 0 27 -1 27 -140 8z"
       id="path336"
       style="fill:#cc3300" />
    <path
       d="M281 5093 l-43 -15 6 -54 c24 -201 204 -552 400 -776 79 -91 114 -122 82 -74 -79 121 -195 358 -255 521 -35 96 -98 307 -116 388 -6 31 -13 32 -74 10z"
       id="path338"
       style="fill:#339966" />
    <path
       d="M108 5038 l-28 -10 0 -732 0 -732 79 -32 c274 -113 572 -410 718 -718 l48 -101 76 30 76 30 -28 71 c-35 90 -59 208 -59 285 0 72 -14 112 -130 371 -85 189 -108 254 -166 465 -27 97 -29 101 -111 195 -224 254 -378 568 -409 833 -7 61 -13 65 -66 45z"
       id="path340"
       style="fill:#3399ff" />
    <path
       d="M6577 5030 c-27 -5 -51 -11 -54 -14 -8 -7 17 -420 25 -427 7 -7 134 -31 137 -26 1 1 -6 101 -16 222 -10 121 -18 228 -19 238 0 18 -1 19 -73 7z"
       id="path342"
       style="fill:#cccc66" />
    <path
       d="M7710 4963 c-62 -75 -196 -196 -282 -254 -185 -126 -411 -195 -616 -187 l-92 3 0 -26 c0 -25 3 -27 63 -33 77 -8 234 8 335 34 226 58 407 164 570 334 l82 86 0 55 c0 30 -1 55 -2 55 -2 0 -28 -30 -58 -67z"
       id="path344"
       style="fill:#cccc66" />
    <path
       d="M6265 4989 c-311 -40 -306 -39 -299 -63 12 -42 55 -105 91 -136 69 -58 376 -190 441 -190 13 0 14 14 9 83 -4 45 -9 137 -13 205 l-7 122 -41 -1 c-23 -1 -104 -10 -181 -20z"
       id="path346"
       style="fill:#cc3300" />
    <path
       d="M5893 4933 c-48 -9 -9 -100 80 -187 71 -69 176 -128 307 -174 102 -35 229 -67 237 -59 3 3 3 17 0 29 -5 20 -21 28 -102 51 -182 51 -319 121 -399 203 -40 41 -76 102 -76 129 0 15 -6 16 -47 8z"
       id="path348"
       style="fill:#cc3300" />
    <path
       d="M3347 4910 c-3 -8 -11 -40 -18 -70 -26 -122 -171 -481 -233 -579 -14 -22 -26 -44 -26 -48 0 -5 25 -30 55 -56 63 -55 111 -121 135 -186 l18 -45 32 99 c73 227 97 428 81 667 -10 138 -32 250 -44 218z"
       id="path350"
       style="fill:#66cc66" />
    <path
       d="M5742 4896 c-29 -12 -57 -27 -63 -33 -7 -7 -10 -41 -7 -90 3 -62 10 -91 34 -143 60 -125 218 -282 353 -350 81 -40 240 -87 356 -105 55 -8 106 -15 114 -15 11 0 12 23 6 125 -10 177 -13 188 -55 198 -112 29 -275 84 -337 115 -151 74 -259 180 -286 279 -9 37 -15 43 -37 43 -14 -1 -49 -11 -78 -24z"
       id="path352"
       style="fill:#cc3300" />
    <path
       d="M5054 4829 c-46 -48 -168 -119 -257 -150 -149 -51 -236 -64 -417 -64 -192 1 -244 11 -490 99 -165 59 -171 51 -20 -28 175 -90 319 -126 510 -126 252 0 464 65 718 218 l93 57 -33 12 c-52 18 -72 15 -104 -18z"
       id="path354"
       style="fill:#cc3300" />
    <path
       d="M7710 4805 c-93 -96 -193 -170 -306 -227 -199 -101 -350 -140 -550 -142 l-132 -1 4 -30 c7 -51 24 -223 24 -241 0 -14 10 -15 93 -9 196 15 395 68 491 131 142 94 293 253 389 412 41 67 48 87 45 121 l-3 42 -55 -56z"
       id="path356"
       style="fill:#cc3300" />
    <path
       d="M1994 4835 c3 -8 13 -55 23 -105 10 -49 21 -90 24 -90 3 0 9 37 13 83 7 81 7 82 -21 104 -32 26 -48 29 -39 8z"
       id="path358"
       style="fill:#336666" />
    <path
       d="M5550 4836 l-55 -12 0 -75 c2 -257 208 -522 527 -677 175 -85 252 -106 400 -106 69 -1 129 2 133 6 4 4 4 31 1 60 l-7 54 -104 12 c-268 32 -457 113 -625 269 -74 68 -139 157 -182 248 -27 59 -32 80 -32 152 -1 46 -1 82 -1 82 0 -1 -25 -7 -55 -13z"
       id="path360"
       style="fill:#cc3300" />
    <path
       d="M3444 4779 c18 -112 24 -266 15 -381 -8 -107 -43 -293 -65 -353 -4 -11 37 43 90 119 53 76 142 197 197 269 55 71 99 130 97 131 -59 33 -198 134 -260 188 l-81 72 7 -45z"
       id="path362"
       style="fill:#66cc66" />
    <path
       d="M5384 4808 c-16 -25 -16 -154 0 -221 54 -230 249 -427 531 -536 156 -61 187 -61 77 -2 -230 124 -380 268 -462 442 -40 87 -73 219 -68 280 l3 49 -37 0 c-20 0 -40 -5 -44 -12z"
       id="path364"
       style="fill:#cc3300" />
    <path
       d="M2076 4774 c-11 -29 -19 -291 -9 -297 5 -3 52 1 104 10 156 25 353 9 504 -42 39 -13 -108 77 -287 176 -101 56 -208 116 -239 135 -65 39 -65 39 -73 18z"
       id="path366"
       style="fill:#66cc66" />
    <path
       d="M5249 4724 c-107 -112 -315 -217 -549 -276 -63 -16 -117 -32 -121 -36 -27 -33 -301 -506 -354 -612 -170 -340 -346 -755 -545 -1285 -45 -121 -127 -325 -181 -453 l-99 -233 26 -52 c111 -218 321 -425 550 -540 65 -33 274 -111 280 -105 1 2 19 73 39 158 100 431 263 1034 376 1395 143 458 399 1165 551 1519 l90 210 -16 56 c-23 81 -30 167 -18 230 6 30 9 56 8 57 -1 2 -18 -13 -37 -33z"
       id="path368"
       style="fill:#6633ff" />
    <path
       d="M6550 4531 c0 -27 4 -30 50 -40 77 -17 90 -15 90 13 0 22 -6 26 -57 36 -32 6 -64 13 -70 15 -9 3 -13 -6 -13 -24z"
       id="path370"
       style="fill:#666600" />
    <path
       d="M3762 4408 c-242 -335 -450 -686 -486 -821 -8 -28 -21 -71 -29 -93 -30 -81 -158 -683 -157 -737 0 -6 27 39 61 102 40 76 65 138 75 185 83 399 343 1016 580 1378 35 54 59 100 54 103 -5 3 -49 -50 -98 -117z"
       id="path372"
       style="fill:#cc3366" />
    <path
       d="M3778 4322 c-190 -318 -302 -556 -392 -841 -34 -106 -86 -303 -86 -326 0 -5 32 51 71 125 138 263 243 457 319 590 83 145 282 468 331 538 22 30 27 43 17 47 -7 2 -43 15 -80 29 l-68 25 -112 -187z"
       id="path374"
       style="fill:#6633ff" />
    <path
       d="M7729 4458 c-18 -24 -63 -74 -100 -113 -82 -84 -121 -157 -155 -290 -80 -319 -258 -787 -445 -1174 l-89 -183 45 -267 c134 -790 295 -1504 487 -2163 l52 -178 123 0 123 0 0 2205 c0 1213 -2 2205 -4 2205 -2 0 -19 -19 -37 -42z"
       id="path376"
       style="fill:#00cccc" />
    <path
       d="M6553 4429 c3 -19 9 -86 13 -150 l7 -117 36 -6 c20 -3 54 -6 75 -6 l39 0 -7 93 c-11 153 -18 196 -32 201 -7 3 -41 8 -75 12 l-62 7 6 -34z"
       id="path378"
       style="fill:#cccc66" />
    <path
       d="M2187 4425 c-103 -21 -108 -23 -102 -48 10 -47 159 -662 161 -665 1 -2 35 13 75 34 205 103 390 149 562 141 59 -3 107 -4 107 -2 0 13 -66 167 -101 238 -48 94 -130 226 -156 249 -10 9 -56 26 -103 38 -109 29 -340 36 -443 15z"
       id="path380"
       style="fill:#996699" />
    <path
       d="M4053 4403 c-38 -47 -118 -171 -240 -370 -130 -214 -198 -336 -376 -674 l-155 -296 -18 -114 c-27 -173 -25 -534 4 -689 32 -176 99 -390 122 -390 4 0 10 8 13 17 3 10 46 115 95 233 49 118 151 375 226 570 264 683 479 1161 645 1435 37 60 90 149 118 196 l51 87 -141 -1 c-122 0 -204 8 -293 29 -16 4 -29 -4 -51 -33z"
       id="path382"
       style="fill:#6633ff" />
    <path
       d="M1976 4362 c-53 -20 -74 -35 -88 -59 -28 -47 -65 -204 -77 -327 -12 -115 -15 -546 -5 -546 3 0 23 13 43 29 20 16 68 49 107 74 l72 47 -15 42 c-21 60 -11 282 21 503 26 171 32 265 19 265 -5 -1 -39 -13 -77 -28z"
       id="path384"
       style="fill:#996699" />
    <path
       d="M5306 4349 c-8 -19 -46 -107 -84 -195 -69 -158 -125 -306 -337 -894 -191 -530 -308 -916 -449 -1475 -83 -334 -159 -656 -154 -660 12 -12 207 -37 323 -42 182 -7 338 10 516 57 35 10 37 13 43 63 13 93 86 445 162 777 91 395 112 477 174 695 27 94 78 285 114 425 36 140 89 327 117 415 53 168 99 345 99 381 0 16 -14 28 -53 48 -183 89 -321 214 -421 380 l-36 59 -14 -34z"
       id="path386"
       style="fill:#6633ff" />
    <path
       d="M2817 4293 c52 -78 124 -219 174 -342 32 -79 36 -85 78 -103 24 -10 66 -35 93 -54 l48 -36 0 29 c-1 56 -30 165 -60 221 -17 32 -56 87 -86 122 -31 35 -74 88 -96 116 -33 44 -51 58 -113 83 -40 17 -76 31 -78 31 -3 0 15 -30 40 -67z"
       id="path388"
       style="fill:#996699" />
    <path
       d="M1830 4293 c-14 -9 -60 -39 -102 -66 l-77 -51 -65 -135 c-74 -156 -129 -292 -180 -444 -45 -135 -91 -438 -81 -533 l6 -62 122 123 c67 67 170 160 229 207 59 47 105 88 102 91 -11 11 -13 224 -4 404 10 191 35 347 70 428 11 26 20 49 20 51 0 8 -15 3 -40 -13z"
       id="path390"
       style="fill:#996699" />
    <path
       d="M2046 4081 c-29 -231 -32 -384 -9 -463 l8 -27 88 51 88 50 -6 37 c-3 20 -36 159 -73 310 l-68 274 -28 -232z"
       id="path392"
       style="fill:#99cccc" />
    <path
       d="M1584 4118 c-26 -23 -57 -74 -105 -172 -77 -157 -128 -308 -164 -481 -22 -106 -25 -143 -23 -315 l1 -195 8 145 c13 273 46 426 139 660 49 121 108 248 153 328 20 34 34 62 32 62 -2 0 -21 -15 -41 -32z"
       id="path394"
       style="fill:#99cccc" />
    <path
       d="M6945 4095 c-5 -2 -50 -7 -99 -10 l-88 -7 6 -31 c3 -17 8 -32 10 -34 5 -5 137 39 196 66 42 18 43 20 15 20 -16 -1 -34 -2 -40 -4z"
       id="path396"
       style="fill:#cc3300" />
    <path
       d="M7235 4039 c-90 -55 -251 -126 -367 -161 -70 -21 -78 -25 -78 -48 0 -22 25 -221 85 -685 10 -71 19 -136 22 -144 5 -18 91 166 190 404 57 137 243 659 243 681 0 9 -20 -1 -95 -47z"
       id="path398"
       style="fill:#6633ff" />
    <path
       d="M6584 4058 c3 -13 6 -35 6 -50 0 -32 16 -35 100 -17 51 11 51 11 48 47 l-3 37 -79 3 c-78 3 -78 3 -72 -20z"
       id="path400"
       style="fill:#cc3300" />
    <path
       d="M1450 3987 c-70 -77 -154 -190 -205 -277 -178 -304 -208 -595 -88 -863 l26 -58 41 62 41 63 0 220 c0 208 2 228 28 341 40 169 100 344 157 460 27 55 48 100 47 100 -1 1 -22 -21 -47 -48z"
       id="path402"
       style="fill:#996699" />
    <path
       d="M760 3931 c63 -171 80 -213 150 -361 40 -85 77 -166 82 -180 9 -22 13 -15 37 67 16 51 49 136 74 188 41 84 44 96 29 101 -54 16 -153 76 -269 162 l-131 99 28 -76z"
       id="path404"
       style="fill:#99cccc" />
    <path
       d="M5837 3823 c-10 -47 -40 -158 -68 -247 -27 -88 -83 -291 -124 -451 -42 -159 -89 -332 -105 -385 -91 -296 -325 -1326 -346 -1519 l-7 -63 24 7 c50 16 69 25 69 33 0 4 13 89 30 188 65 395 229 1145 420 1920 71 291 134 543 139 561 7 23 6 33 -3 36 -8 3 -18 -23 -29 -80z"
       id="path406"
       style="fill:#6633ff" />
    <path
       d="M5871 3783 c-12 -60 -63 -274 -112 -478 -229 -939 -360 -1550 -445 -2062 -3 -24 -1 -33 9 -33 17 0 167 73 239 116 67 41 55 -11 98 439 60 631 113 942 301 1762 38 166 69 307 69 312 0 8 -110 51 -130 51 -4 0 -17 -48 -29 -107z"
       id="path408"
       style="fill:#6633ff" />
    <path
       d="M2670 3825 c-92 -18 -209 -59 -323 -112 -96 -46 -97 -46 -92 -77 3 -17 11 -66 18 -108 l12 -77 75 36 c258 120 405 126 554 23 27 -18 62 -52 79 -76 l31 -44 69 133 c38 72 75 142 82 154 13 19 12 24 -18 53 -18 17 -49 40 -69 51 -32 16 -38 17 -38 4 0 -23 -15 -18 -27 8 -21 45 -206 61 -353 32z"
       id="path410"
       style="fill:#996666" />
    <path
       d="M6051 3803 c-22 -86 -136 -594 -181 -813 -88 -422 -123 -651 -170 -1090 -34 -322 -50 -503 -45 -508 8 -8 133 95 244 203 116 112 364 401 438 510 l41 60 6 195 c13 420 93 1286 133 1433 4 16 -7 17 -129 17 -73 0 -173 7 -223 15 -49 8 -93 15 -97 15 -4 0 -12 -17 -17 -37z"
       id="path412"
       style="fill:#6633ff" />
    <path
       d="M6661 3829 c-24 -5 -46 -11 -49 -14 -10 -10 110 -1090 122 -1103 5 -4 83 109 119 170 l28 48 -35 247 c-28 195 -86 642 -86 660 0 5 -53 1 -99 -8z"
       id="path414"
       style="fill:#6633ff" />
    <path
       d="M6536 3778 c-3 -18 -12 -73 -20 -123 -9 -49 -20 -151 -26 -225 -6 -74 -22 -261 -35 -415 -30 -353 -48 -650 -43 -740 l3 -70 71 105 c39 58 105 161 147 230 l75 125 -24 165 c-27 188 -77 626 -95 838 -11 125 -14 142 -30 142 -13 0 -20 -10 -23 -32z"
       id="path416"
       style="fill:#6633ff" />
    <path
       d="M2118 3591 c-265 -161 -456 -308 -638 -491 -118 -119 -253 -289 -266 -337 -11 -42 102 -178 228 -273 67 -51 285 -170 310 -170 4 0 19 23 33 51 51 100 263 404 296 425 6 3 -14 -28 -45 -69 -110 -149 -252 -388 -243 -411 5 -11 72 -31 173 -51 17 -4 23 5 43 68 42 132 177 444 188 434 2 -2 -25 -78 -61 -168 -79 -204 -120 -328 -111 -337 9 -9 208 -8 268 2 78 12 79 15 51 326 -13 146 -24 278 -24 293 0 15 -6 29 -12 31 -7 2 -44 11 -81 20 -37 8 -91 27 -120 41 -56 28 -129 93 -121 107 3 4 0 8 -6 8 -21 0 -245 -59 -319 -85 -85 -29 -81 -28 -81 -17 0 5 19 18 42 28 24 10 74 47 113 82 103 92 202 160 373 257 144 82 153 89 148 114 -3 14 -7 49 -11 76 -9 74 -16 105 -24 105 -4 0 -50 -26 -103 -59z"
       id="path418"
       style="fill:#996666" />
    <path
       d="M2565 3494 c-33 -8 -107 -36 -165 -62 l-105 -48 3 -54 c4 -96 5 -99 54 -90 24 5 147 25 273 44 127 20 254 41 282 47 l53 10 -14 27 c-20 38 -74 86 -126 113 -58 29 -170 35 -255 13z"
       id="path420"
       style="fill:#993366" />
    <path
       d="M80 3288 l0 -213 43 46 c76 81 145 120 257 142 l64 14 -81 64 c-76 60 -208 138 -260 154 l-23 6 0 -213z"
       id="path422"
       style="fill:#66ffff" />
    <path
       d="M3172 3403 c-109 -236 -188 -456 -241 -676 -44 -177 -74 -363 -69 -423 3 -38 3 -37 38 42 18 43 59 133 91 199 31 66 59 143 63 170 15 102 106 544 135 655 16 63 28 116 27 118 -2 1 -21 -37 -44 -85z"
       id="path424"
       style="fill:#cc3366" />
    <path
       d="M2110 3289 c-154 -80 -282 -155 -330 -192 -19 -15 -20 -18 -5 -12 93 37 232 80 345 106 74 17 141 33 148 35 13 4 14 35 4 101 l-7 42 -155 -80z"
       id="path426"
       style="fill:#993366" />
    <path
       d="M2685 3220 c-268 -42 -356 -58 -363 -64 -2 -3 0 -47 4 -98 l9 -93 34 -3 c80 -8 235 34 368 99 79 39 200 137 224 180 13 25 18 25 -276 -21z"
       id="path428"
       style="fill:#993366" />
    <path
       d="M328 3221 c-74 -24 -115 -50 -170 -109 -78 -84 -78 -82 -78 -339 0 -251 2 -260 69 -351 44 -59 88 -79 141 -63 26 8 46 9 57 2 13 -7 28 -1 63 28 25 20 75 59 112 85 l66 49 -52 51 c-60 58 -86 120 -86 200 0 94 74 204 163 241 20 8 37 18 37 22 0 11 -53 77 -114 141 -56 59 -62 62 -105 61 -25 0 -71 -8 -103 -18z"
       id="path430"
       style="fill:#3399ff" />
    <path
       d="M2122 3123 c-67 -14 -121 -30 -119 -36 1 -5 30 -26 64 -47 61 -37 133 -63 207 -76 l39 -7 -7 59 c-14 128 -16 134 -39 133 -12 -1 -77 -13 -145 -26z"
       id="path432"
       style="fill:#993366" />
    <path
       d="M2864 3045 c-51 -35 -170 -87 -242 -106 -42 -11 -123 -22 -180 -26 l-102 -6 5 -31 c2 -17 12 -112 20 -211 8 -99 18 -202 21 -229 l6 -48 115 223 c63 123 119 228 124 234 23 24 1 -29 -111 -258 -103 -211 -136 -297 -115 -297 3 0 34 12 70 26 54 22 69 33 84 63 29 57 81 226 106 346 16 74 24 97 24 72 1 -56 -34 -217 -69 -321 -16 -49 -28 -91 -27 -93 2 -2 35 19 74 46 67 47 71 52 77 98 12 80 73 321 110 431 19 56 34 102 33 102 -2 0 -12 -7 -23 -15z"
       id="path434"
       style="fill:#996666" />
    <path
       d="M599 2977 c-140 -74 -165 -270 -48 -386 52 -53 57 -53 133 -8 l69 41 -30 13 c-46 19 -83 68 -83 111 0 46 41 109 81 126 l29 12 -36 57 c-21 34 -43 57 -53 57 -10 0 -38 -10 -62 -23z"
       id="path436"
       style="fill:#330066" />
    <path
       d="M3128 2773 c-54 -103 -58 -116 -79 -253 -27 -175 -33 -551 -11 -685 21 -125 58 -262 97 -360 66 -164 57 -169 136 69 l69 206 -19 38 c-54 107 -111 308 -136 483 -17 122 -19 377 -4 502 6 48 9 92 7 98 -2 6 -29 -38 -60 -98z"
       id="path438"
       style="fill:#cc3366" />
    <path
       d="M714 2842 c-6 -4 -21 -26 -33 -49 -19 -39 -20 -46 -8 -75 17 -39 35 -56 74 -67 32 -9 93 10 93 29 0 6 -16 47 -36 90 -29 63 -41 80 -58 80 -12 0 -26 -4 -32 -8z"
       id="path440"
       style="fill:#330066" />
    <path
       d="M1022 2687 c-83 -36 -80 -21 -39 -157 47 -159 69 -318 74 -547 15 -583 -111 -990 -516 -1666 -72 -120 -131 -220 -131 -223 0 -2 67 -4 150 -4 l149 0 21 73 c147 507 323 831 649 1197 27 31 67 65 88 75 21 11 52 29 68 39 l30 19 -27 -29 c-16 -17 -28 -34 -28 -40 0 -5 -16 -20 -35 -33 -42 -28 -113 -132 -148 -217 -68 -162 -96 -386 -63 -506 25 -91 71 -149 148 -187 73 -35 165 -51 172 -30 2 8 10 51 18 97 14 77 14 82 -3 82 -28 0 -57 47 -64 104 -9 71 14 152 66 232 52 80 218 241 345 335 182 133 205 149 198 137 -4 -7 -16 -19 -25 -26 -59 -42 -310 -441 -382 -606 -33 -77 -72 -215 -91 -323 -5 -29 -3 -33 18 -33 75 0 252 90 328 168 53 54 58 63 83 157 36 135 130 415 167 495 16 36 63 126 103 201 63 113 75 143 74 180 -1 85 -8 88 -75 28 -100 -89 -111 -96 -49 -29 33 36 73 79 88 96 l27 30 -15 194 c-8 106 -17 195 -19 198 -3 2 -33 -5 -68 -17 -35 -11 -92 -25 -128 -30 -36 -5 -108 -19 -160 -31 -281 -62 -464 -26 -610 119 -36 36 -50 52 -31 35 88 -76 167 -111 280 -124 80 -9 228 2 321 24 l55 13 -50 7 c-183 28 -375 97 -520 186 -105 65 -262 216 -320 307 -22 35 -42 62 -45 62 -3 -1 -38 -15 -78 -32z"
       id="path442"
       style="fill:#0099cc" />
    <path
       d="M6846 2530 l-67 -121 42 -242 c22 -133 48 -285 56 -337 85 -524 271 -1507 324 -1702 l10 -38 140 0 c112 0 140 3 136 13 -37 98 -240 873 -311 1192 -80 357 -246 1240 -246 1309 -1 59 -19 43 -84 -74z"
       id="path444"
       style="fill:#00cccc" />
    <path
       d="M791 2574 c-172 -95 -375 -248 -576 -432 l-130 -118 -3 -967 -2 -967 113 0 114 0 101 168 c330 552 474 905 539 1322 22 142 25 549 5 675 -24 144 -77 355 -90 355 -4 0 -36 -16 -71 -36z"
       id="path446"
       style="fill:#3399ff" />
    <path
       d="M2967 2453 c-103 -216 -117 -257 -117 -342 0 -173 39 -401 101 -589 34 -102 122 -283 165 -340 l28 -36 22 75 23 74 -23 40 c-60 104 -128 318 -158 500 -18 113 -15 469 5 614 9 63 15 116 13 118 -1 2 -28 -50 -59 -114z"
       id="path448"
       style="fill:#cc3366" />
    <path
       d="M80 2286 l0 -188 98 90 c190 175 181 164 150 158 -16 -3 -39 -9 -53 -12 -52 -13 -110 22 -166 100 l-29 39 0 -187z"
       id="path450"
       style="fill:#66ffff" />
    <path
       d="M2649 2317 l-66 -43 33 -22 c63 -41 91 -132 74 -238 -16 -100 -51 -192 -142 -375 l-88 -176 11 -139 c6 -77 13 -385 16 -686 l5 -548 74 0 c41 0 74 3 74 8 0 13 118 219 176 309 73 110 189 255 288 360 l78 83 -56 62 c-164 181 -299 446 -365 716 -42 171 -54 298 -50 530 2 111 4 202 4 202 0 0 -30 -20 -66 -43z"
       id="path452"
       style="fill:#009999" />
    <path
       d="M6653 2217 c-118 -182 -354 -507 -480 -660 -54 -66 -102 -125 -107 -132 -6 -8 5 -31 36 -71 191 -249 403 -763 478 -1159 6 -33 13 -70 16 -82 l4 -23 285 0 c247 0 285 2 285 15 0 8 -13 75 -29 148 -64 288 -184 919 -235 1232 -9 55 -43 255 -75 445 -33 190 -62 364 -66 388 -4 23 -10 42 -13 42 -4 -1 -48 -65 -99 -143z"
       id="path454"
       style="fill:#00ff99" />
    <path
       d="M2452 2191 c-18 -5 -35 -11 -38 -14 -6 -6 15 -331 22 -356 6 -20 91 91 127 167 41 88 46 140 16 176 -27 30 -74 40 -127 27z"
       id="path456"
       style="fill:#ccff00" />
    <path
       d="M2498 1835 c-45 -56 -58 -81 -58 -107 0 -70 16 -61 62 39 43 93 63 144 56 142 -2 0 -29 -33 -60 -74z"
       id="path458"
       style="fill:#ccff00" />
    <path
       d="M3308 1589 c-25 -68 -55 -160 -68 -205 l-23 -81 33 -49 c154 -227 372 -397 612 -477 77 -26 284 -65 293 -55 6 6 75 284 75 301 0 7 -40 25 -88 40 -332 106 -588 315 -778 633 -9 15 -18 -3 -56 -107z"
       id="path460"
       style="fill:#cc3366" />
    <path
       d="M2424 1399 c-33 -42 -107 -200 -147 -314 -121 -342 -194 -652 -213 -907 l-7 -88 203 0 202 0 -6 577 c-7 615 -13 756 -32 732z"
       id="path462"
       style="fill:#009999" />
    <path
       d="M5976 1332 c-2 -4 16 -39 41 -77 165 -256 306 -671 364 -1078 l13 -87 53 0 54 0 -7 38 c-69 401 -260 884 -452 1150 -45 61 -56 70 -66 54z"
       id="path464"
       style="fill:#00ff99" />
    <path
       d="M1955 1279 c-157 -133 -255 -247 -311 -363 -42 -86 -50 -139 -32 -202 l14 -49 28 80 c59 166 143 309 288 488 43 53 78 97 76 97 -2 -1 -30 -24 -63 -51z"
       id="path466"
       style="fill:#ccff00" />
    <path
       d="M5678 1283 c-38 -26 -54 -52 -20 -34 16 9 70 62 61 60 -2 0 -21 -12 -41 -26z"
       id="path468"
       style="fill:none" />
    <path
       d="M5820 1168 c-311 -300 -639 -508 -980 -622 -171 -57 -307 -84 -487 -98 -131 -10 -143 -13 -149 -32 -4 -12 -24 -88 -45 -171 l-37 -150 1095 -3 c603 -1 1098 0 1100 2 8 8 -48 315 -82 453 -38 152 -83 292 -139 426 -47 114 -144 307 -154 307 -4 -1 -59 -51 -122 -112z"
       id="path470"
       style="fill:#00ff99" />
    <path
       d="M3179 1190 l-21 -70 42 -50 c162 -193 378 -334 622 -404 96 -28 299 -59 310 -48 4 4 8 20 10 37 l3 30 -75 7 c-298 30 -639 241 -821 510 -22 32 -42 58 -44 58 -2 0 -14 -31 -26 -70z"
       id="path472"
       style="fill:#cc3366" />
    <path
       d="M5525 1194 c-44 -24 -109 -56 -145 -71 -36 -14 -68 -29 -72 -32 -3 -3 -10 -28 -14 -55 l-7 -50 49 29 c27 15 83 52 124 81 165 115 202 171 65 98z"
       id="path474"
       style="fill:#cc3366" />
    <path
       d="M1212 1128 c-170 -223 -332 -550 -425 -858 -19 -63 -38 -130 -42 -147 l-7 -33 416 0 416 0 0 124 c0 139 6 129 -81 140 -75 11 -158 57 -216 119 -60 66 -92 142 -100 237 -7 85 20 269 57 382 15 48 27 88 25 88 -1 0 -21 -24 -43 -52z"
       id="path476"
       style="fill:#0099cc" />
    <path
       d="M5204 1059 c-29 -8 -32 -13 -39 -65 -4 -31 -4 -58 -1 -62 4 -3 27 4 51 16 37 18 45 27 45 49 0 16 3 38 6 51 7 25 -7 27 -62 11z"
       id="path478"
       style="fill:#6633ff" />
    <path
       d="M5095 1029 c-109 -33 -216 -44 -435 -43 -184 1 -241 5 -313 21 -60 13 -90 16 -93 9 -5 -18 -64 -279 -64 -288 0 -13 165 -9 280 6 157 21 326 61 497 118 165 54 155 46 168 141 8 50 7 50 -40 36z"
       id="path480"
       style="fill:#cc3366" />
    <path
       d="M5177 894 c-16 -9 -26 -18 -23 -21 3 -3 20 4 38 16 38 24 27 28 -15 5z"
       id="path482"
       style="fill:none" />
    <path
       d="M5015 828 c-188 -70 -488 -131 -715 -145 l-124 -8 -7 -32 -6 -33 91 0 c181 1 420 46 596 115 129 50 260 112 260 124 0 15 -3 14 -95 -21z"
       id="path484"
       style="fill:#cc3366" />
    <path
       d="M3142 720 c-139 -138 -308 -367 -416 -563 l-37 -67 38 0 c38 0 40 2 72 67 108 221 286 456 434 574 l47 38 -22 15 c-12 9 -25 16 -29 16 -3 0 -42 -36 -87 -80z"
       id="path486"
       style="fill:#66ff33" />
    <path
       d="M3263 682 c-143 -113 -277 -286 -410 -529 l-35 -63 624 0 624 0 41 162 c22 90 43 170 44 178 3 11 -13 16 -76 22 -240 22 -497 109 -674 227 -34 22 -68 41 -76 41 -7 0 -35 -17 -62 -38z"
       id="path488"
       style="fill:#009999" />
    <path
       d="M1964 484 c-72 -53 -203 -114 -271 -127 l-60 -11 -7 -75 c-3 -41 -6 -98 -6 -128 l0 -53 185 0 185 0 0 108 c1 59 7 154 14 212 7 58 12 106 12 107 -1 1 -24 -14 -52 -33z"
       id="path490"
       style="fill:#0099cc" />
  </g>
</svg>
