<?xml version="1.0" standalone="no"?>
<!DOCTYPE svg PUBLIC "-//W3C//DTD SVG 20010904//EN"
 "http://www.w3.org/TR/2001/REC-SVG-20010904/DTD/svg10.dtd">
<svg version="1.0" xmlns="http://www.w3.org/2000/svg"
 width="1024.000000pt" height="1024.000000pt" viewBox="0 0 1024.000000 1024.000000"
 preserveAspectRatio="xMidYMid meet">
<metadata>
Created by potrace 1.14, written by Peter Selinger 2001-2017
</metadata>
<g transform="translate(0.000000,1024.000000) scale(0.100000,-0.100000)"
fill="#000000" stroke="none">
<path d="M50 10193 c-45 -42 -51 -52 -48 -81 l3 -33 80 81 c79 80 79 80 48 80
-24 0 -44 -12 -83 -47z"/>
<path d="M157 10082 c-138 -138 -157 -161 -157 -189 0 -18 3 -33 8 -33 4 1 23
21 42 46 19 25 101 110 182 190 142 139 147 144 115 144 -28 0 -51 -20 -190
-158z"/>
<path d="M475 10174 c-104 -86 -263 -242 -381 -376 -83 -94 -95 -112 -92 -139
3 -31 5 -29 93 77 115 139 283 307 413 414 56 45 102 84 102 86 0 2 -13 4 -28
4 -19 0 -51 -20 -107 -66z"/>
<path d="M704 10187 c-194 -143 -416 -361 -597 -586 -90 -113 -107 -140 -107
-169 l0 -35 42 54 c281 362 386 469 682 697 112 87 117 92 85 92 -25 -1 -53
-15 -105 -53z"/>
<path d="M945 10209 c-22 -16 -96 -71 -165 -122 -153 -112 -370 -326 -502
-492 -240 -305 -280 -361 -276 -393 3 -28 11 -19 101 109 254 357 497 602 822
829 151 105 146 100 100 99 -28 0 -52 -9 -80 -30z"/>
<path d="M1080 10153 c-395 -270 -646 -526 -981 -1000 -84 -120 -100 -148 -97
-175 3 -30 7 -27 77 78 205 301 370 502 587 714 182 178 335 295 584 448 l35
22 -40 -1 c-33 0 -61 -14 -165 -86z"/>
<path d="M1365 10199 c-242 -139 -444 -297 -671 -523 -203 -204 -375 -415
-561 -692 -116 -174 -134 -205 -131 -234 3 -33 4 -32 62 60 403 643 867 1111
1380 1391 l71 39 -40 -1 c-28 0 -61 -12 -110 -40z"/>
<path d="M1555 10184 c-560 -312 -1025 -781 -1458 -1470 -83 -132 -98 -162
-95 -191 3 -34 4 -33 57 59 314 543 756 1046 1206 1375 88 64 236 157 340 213
44 24 89 49 100 57 18 12 17 13 -15 13 -23 -1 -69 -20 -135 -56z"/>
<path d="M1750 10172 c-336 -184 -610 -391 -893 -675 -236 -238 -417 -462
-612 -757 -167 -254 -245 -390 -245 -431 0 -43 6 -36 80 94 430 761 1068 1413
1705 1743 72 37 139 73 150 81 18 12 16 13 -20 13 -30 0 -70 -17 -165 -68z"/>
<path d="M2020 10179 c-408 -215 -718 -446 -1071 -798 -338 -338 -593 -667
-831 -1076 -39 -66 -81 -137 -95 -158 -17 -27 -23 -49 -21 -75 l3 -37 29 50
c16 28 56 97 89 155 465 808 1114 1461 1852 1866 88 48 178 98 200 111 l40 23
-40 0 c-30 0 -70 -16 -155 -61z"/>
<path d="M2189 10136 c-321 -178 -594 -363 -824 -560 -137 -117 -480 -451
-647 -630 -290 -309 -432 -509 -606 -854 -86 -168 -112 -229 -112 -259 1 -33
14 -11 118 192 232 452 300 548 638 900 628 653 925 891 1514 1209 188 102
193 106 150 105 -38 -1 -76 -18 -231 -103z"/>
<path d="M2370 10112 c-395 -197 -563 -307 -796 -523 -412 -382 -790 -737
-844 -795 -89 -95 -175 -201 -252 -314 -87 -126 -108 -163 -298 -525 -89 -170
-167 -315 -172 -322 -5 -6 -8 -31 -6 -55 3 -42 9 -32 169 283 242 473 382 687
594 908 100 104 791 750 957 894 185 161 275 217 673 419 272 138 305 157 270
157 -31 0 -97 -29 -295 -127z"/>
<path d="M2855 10221 c-16 -9 -145 -76 -285 -148 -340 -173 -530 -289 -710
-433 -120 -96 -814 -714 -944 -840 -136 -133 -244 -260 -320 -377 -25 -39
-151 -264 -279 -500 -129 -235 -253 -461 -275 -501 -28 -49 -42 -86 -42 -110
0 -22 4 -32 9 -26 9 8 233 419 366 669 247 467 382 651 649 893 226 205 803
709 901 787 171 137 300 216 668 407 149 78 295 154 322 169 l50 29 -40 -1
c-22 0 -53 -8 -70 -18z"/>
<path d="M3115 10224 c-18 -14 -187 -105 -450 -244 -257 -136 -469 -269 -625
-391 -125 -99 -671 -556 -831 -697 -208 -183 -376 -375 -521 -596 -43 -65
-146 -252 -229 -415 -154 -299 -234 -444 -379 -683 -59 -96 -80 -140 -80 -165
0 -19 4 -32 8 -29 5 3 34 43 66 90 57 85 170 294 408 752 219 420 349 612 567
838 114 117 272 255 681 597 476 397 535 437 1069 724 232 125 393 215 410
231 13 12 -77 1 -94 -12z"/>
<path d="M3310 10189 c-47 -28 -219 -125 -383 -215 -382 -212 -567 -324 -702
-428 -368 -282 -874 -694 -984 -801 -291 -283 -446 -517 -756 -1140 -208 -420
-291 -562 -425 -728 -47 -59 -60 -82 -60 -108 l1 -34 55 60 c120 130 212 286
494 840 95 187 195 381 223 430 137 246 341 513 529 689 57 54 195 168 308
254 113 86 266 206 341 268 337 277 551 423 909 616 107 58 211 114 230 125
19 11 82 46 140 78 58 32 134 78 170 102 l65 43 -35 0 c-24 0 -61 -16 -120
-51z"/>
<path d="M3635 10231 c-20 -19 -339 -203 -563 -325 -364 -198 -592 -342 -802
-508 -305 -239 -409 -319 -555 -423 -405 -291 -603 -535 -867 -1075 -320 -654
-384 -777 -458 -895 -106 -169 -173 -257 -293 -382 -82 -85 -98 -106 -95 -129
3 -25 11 -18 123 97 221 229 303 356 542 839 392 794 431 865 554 1033 137
186 260 298 559 510 74 52 194 141 265 197 485 378 653 491 1085 725 241 131
492 276 539 311 l44 34 -35 0 c-19 0 -38 -4 -43 -9z"/>
<path d="M3810 10184 c-173 -110 -311 -191 -570 -332 -466 -254 -527 -293
-1016 -658 -177 -131 -382 -282 -455 -334 -242 -172 -467 -417 -620 -674 -33
-56 -195 -371 -359 -701 -301 -604 -377 -744 -486 -895 -68 -95 -203 -241
-263 -285 -33 -24 -41 -36 -41 -63 0 -31 1 -32 23 -21 12 7 76 66 142 133 188
188 286 339 482 736 595 1208 606 1226 782 1427 107 122 194 195 441 371 113
80 302 218 420 306 434 323 575 414 970 626 337 182 509 282 614 356 85 61 88
64 55 63 -23 -1 -62 -18 -119 -55z"/>
<path d="M4055 10183 c-155 -105 -358 -225 -603 -354 -368 -196 -496 -272
-752 -447 -254 -174 -792 -573 -979 -728 -158 -130 -301 -314 -446 -573 -82
-147 -152 -299 -315 -676 -190 -443 -307 -679 -430 -862 -148 -222 -283 -364
-452 -476 -61 -40 -78 -57 -78 -75 0 -31 13 -26 114 46 104 73 262 231 353
352 156 207 260 404 498 940 300 680 428 916 607 1120 121 138 168 176 718
584 531 394 763 546 1141 747 299 158 631 350 703 406 68 53 68 53 35 52 -23
-1 -60 -19 -114 -56z"/>
<path d="M4305 10189 c-103 -75 -247 -159 -560 -329 -681 -372 -819 -463
-1525 -1014 -380 -296 -472 -376 -572 -496 -183 -219 -296 -422 -551 -990
-255 -568 -333 -720 -468 -922 -140 -207 -356 -440 -530 -570 -84 -62 -98 -77
-99 -102 l0 -28 27 17 c126 81 316 253 442 400 244 283 380 523 676 1190 389
876 443 948 1078 1448 784 615 905 697 1541 1036 343 184 516 287 635 377 l44
34 -34 -1 c-24 0 -54 -15 -104 -50z"/>
<path d="M4595 10230 c-3 -5 -43 -31 -88 -58 -45 -27 -145 -86 -222 -132 -77
-45 -250 -141 -385 -213 -385 -204 -633 -358 -856 -527 -56 -43 -247 -199
-425 -346 -178 -148 -389 -322 -469 -386 -246 -197 -435 -406 -586 -650 -75
-122 -171 -322 -339 -708 -268 -615 -417 -874 -663 -1154 -108 -123 -224 -228
-420 -381 -119 -93 -141 -114 -142 -137 0 -16 4 -28 9 -28 5 0 56 34 113 76
335 249 596 539 807 897 81 138 128 238 317 665 259 587 339 739 500 952 136
179 210 247 894 819 576 481 737 592 1266 872 454 239 567 305 728 421 l39 28
-36 0 c-20 0 -38 -4 -42 -10z"/>
<path d="M4781 10184 c-161 -119 -340 -217 -706 -389 -339 -160 -648 -354
-896 -564 -134 -114 -1127 -999 -1213 -1081 -169 -162 -302 -339 -396 -529
-27 -53 -116 -267 -199 -476 -244 -616 -381 -870 -629 -1165 -154 -184 -435
-438 -668 -603 -62 -44 -74 -57 -74 -81 l0 -28 28 18 c15 9 90 65 166 122 342
257 589 512 789 813 140 211 233 411 438 937 168 436 297 666 468 840 42 42
166 158 276 257 110 99 355 322 545 495 190 173 381 347 425 386 271 240 567
441 855 581 505 244 654 325 814 438 110 79 116 85 85 84 -25 -1 -55 -16 -108
-55z"/>
<path d="M5045 10202 c-136 -103 -355 -221 -690 -372 -606 -273 -722 -359
-1400 -1031 -236 -234 -531 -515 -655 -625 -327 -289 -432 -401 -552 -589 -82
-127 -106 -183 -385 -905 -93 -238 -275 -557 -433 -755 -175 -219 -460 -481
-822 -755 -94 -71 -108 -85 -108 -111 0 -28 4 -26 153 92 352 278 460 371 607
518 311 312 473 573 675 1086 48 121 111 283 142 360 88 226 191 428 276 540
96 130 215 249 522 525 309 279 416 382 825 791 179 180 363 356 410 393 203
161 400 275 725 421 395 177 658 318 789 424 l39 31 -34 0 c-24 0 -49 -12 -84
-38z"/>
<path d="M5240 10174 c-108 -76 -276 -160 -670 -334 -151 -67 -320 -145 -375
-173 -350 -178 -570 -379 -860 -785 -187 -264 -289 -367 -650 -663 -537 -439
-692 -593 -842 -834 -77 -123 -120 -219 -278 -617 -209 -525 -305 -707 -512
-963 -188 -235 -329 -366 -781 -729 -245 -196 -272 -221 -272 -248 0 -36 -11
-42 174 101 387 300 734 623 920 856 218 273 316 461 501 960 127 343 208 509
334 685 136 190 262 313 646 633 494 409 650 568 852 859 316 457 562 644
1198 908 364 151 614 282 745 389 l25 21 -30 0 c-21 0 -59 -20 -125 -66z"/>
<path d="M5491 10179 c-122 -86 -258 -152 -606 -293 -339 -138 -598 -262 -745
-357 -112 -72 -279 -236 -356 -349 -28 -41 -84 -133 -123 -204 -136 -244 -229
-366 -430 -566 -108 -108 -213 -199 -341 -297 -640 -490 -893 -756 -1080
-1138 -32 -66 -98 -219 -145 -340 -189 -477 -311 -688 -588 -1012 -254 -296
-555 -578 -984 -922 -78 -63 -93 -79 -93 -103 0 -38 1 -37 195 123 462 383
833 754 1084 1087 164 218 264 407 416 792 136 343 207 478 358 680 152 203
310 347 862 785 456 361 544 459 780 870 137 238 185 305 305 425 187 188 290
244 910 495 118 48 283 120 365 160 140 68 316 174 345 210 11 13 8 15 -16 14
-18 0 -60 -22 -113 -60z"/>
<path d="M5735 10179 c-120 -88 -359 -202 -752 -359 -519 -206 -645 -271 -787
-401 -104 -95 -151 -169 -297 -467 -148 -301 -183 -361 -290 -487 -130 -154
-239 -249 -634 -550 -399 -304 -539 -419 -670 -550 -231 -231 -369 -453 -574
-920 -137 -311 -215 -457 -369 -689 -137 -208 -270 -365 -521 -617 -219 -219
-392 -374 -713 -639 -108 -89 -128 -109 -128 -133 0 -16 4 -27 9 -25 14 5 558
476 726 629 489 443 694 731 1000 1404 169 372 296 596 432 765 80 99 322 334
453 440 58 47 218 171 355 275 367 277 489 376 600 490 165 167 234 277 379
609 81 183 119 253 192 345 143 183 340 295 914 519 195 77 390 155 432 175
104 48 249 135 327 196 l65 51 -35 -1 c-25 -1 -55 -16 -114 -60z"/>
<path d="M5955 10164 c-139 -105 -372 -217 -723 -349 -440 -165 -624 -254
-778 -376 -150 -120 -244 -272 -339 -549 -65 -190 -149 -357 -233 -465 -122
-157 -379 -377 -783 -670 -483 -349 -644 -482 -810 -667 -219 -245 -366 -489
-544 -908 -173 -409 -333 -677 -564 -949 -160 -188 -327 -343 -931 -855 -257
-219 -252 -213 -248 -243 3 -23 35 2 368 287 732 627 867 762 1063 1060 76
116 239 440 372 740 194 437 334 652 599 915 176 175 329 300 661 537 436 312
590 435 736 585 176 180 261 323 354 593 122 352 218 497 418 627 113 74 362
187 807 365 179 72 362 148 408 170 88 42 232 136 296 193 l39 35 -34 0 c-27
0 -55 -16 -134 -76z"/>
<path d="M6175 10154 c-216 -155 -275 -184 -715 -354 -792 -305 -960 -434
-1098 -845 -22 -66 -56 -170 -75 -230 -62 -199 -155 -362 -276 -488 -137 -143
-406 -363 -696 -569 -104 -74 -284 -202 -400 -284 -257 -182 -406 -305 -552
-458 -261 -271 -411 -521 -550 -915 -177 -500 -409 -858 -763 -1174 -69 -62
-210 -184 -315 -272 -104 -87 -313 -264 -463 -392 -248 -213 -272 -237 -272
-265 l0 -31 22 19 c13 10 66 58 118 105 52 47 271 231 485 409 526 436 728
639 911 915 120 180 198 346 299 635 127 367 258 600 478 850 195 222 449 425
1027 820 534 365 758 576 904 850 28 53 77 183 131 347 69 208 96 278 138 348
73 122 180 222 337 315 155 91 189 107 610 275 490 195 637 268 812 401 99 76
97 74 57 74 -27 0 -59 -18 -154 -86z"/>
<path d="M6431 10169 c-172 -128 -346 -216 -726 -369 -516 -208 -738 -331
-895 -497 -126 -133 -194 -267 -306 -602 -67 -202 -115 -306 -199 -430 -172
-256 -313 -373 -1039 -859 -380 -255 -460 -312 -626 -446 -265 -215 -451 -431
-560 -651 -55 -112 -85 -195 -203 -560 -85 -263 -189 -467 -331 -649 -110
-141 -281 -304 -616 -586 -473 -397 -787 -670 -863 -748 -56 -56 -68 -74 -65
-96 3 -26 9 -21 118 84 296 288 482 451 803 707 387 308 578 490 710 673 96
136 204 355 262 535 179 557 194 599 275 730 168 275 468 540 998 885 736 479
831 548 1019 743 187 195 256 315 378 662 43 121 93 255 111 299 80 191 184
316 354 429 141 93 254 149 645 316 543 233 674 304 898 483 22 17 22 18 -13
17 -28 0 -55 -15 -129 -70z"/>
<path d="M6720 10198 c-152 -138 -341 -271 -506 -355 -119 -61 -127 -65 -474
-198 -316 -122 -431 -174 -532 -242 -99 -66 -223 -191 -291 -295 -57 -86 -208
-386 -287 -574 -116 -273 -247 -471 -435 -659 -159 -159 -278 -243 -1180 -837
-425 -279 -627 -466 -774 -714 -64 -110 -107 -220 -167 -433 -103 -364 -115
-406 -155 -506 -79 -203 -183 -357 -361 -532 -134 -133 -233 -214 -428 -353
-332 -236 -551 -429 -887 -779 -211 -221 -243 -259 -243 -285 1 -29 11 -20
157 134 250 263 529 538 643 631 58 48 193 150 300 229 430 313 583 452 709
640 117 174 157 276 270 683 106 379 147 479 265 652 79 115 213 251 346 350
58 43 305 211 550 373 797 528 952 650 1144 901 110 145 167 246 344 601 215
434 262 512 376 626 50 49 125 111 167 137 97 60 318 157 589 258 418 157 636
284 895 523 68 64 69 65 40 65 -21 0 -43 -12 -75 -41z"/>
<path d="M6925 10174 c-116 -108 -266 -229 -371 -299 -127 -85 -365 -202 -519
-255 -187 -65 -429 -165 -504 -209 -195 -114 -312 -244 -444 -494 -190 -362
-499 -812 -733 -1069 -234 -257 -420 -400 -1122 -864 -228 -151 -442 -296
-475 -322 -208 -159 -373 -380 -463 -618 -13 -36 -63 -205 -109 -374 -117
-425 -149 -507 -258 -669 -113 -168 -251 -286 -635 -544 -368 -248 -470 -340
-928 -840 -305 -334 -364 -403 -364 -428 0 -16 2 -29 4 -29 3 0 150 161 327
358 516 571 607 654 1013 924 314 210 407 280 501 380 193 205 255 345 409
925 57 215 85 292 149 418 68 132 174 271 294 385 83 79 174 144 583 415 267
177 530 356 586 397 279 208 564 491 770 763 169 224 402 581 524 805 89 164
141 238 213 307 119 114 250 182 672 344 404 156 489 207 819 486 222 188 208
173 166 173 -29 -1 -47 -12 -105 -66z"/>
<path d="M7105 10119 c-399 -370 -568 -474 -1045 -641 -201 -70 -367 -169
-505 -299 -96 -91 -161 -175 -260 -334 -180 -291 -530 -733 -861 -1090 -275
-295 -555 -517 -1199 -950 -359 -242 -472 -342 -602 -532 -107 -157 -167 -293
-228 -523 -221 -827 -341 -1007 -860 -1296 -161 -89 -242 -142 -375 -245 -120
-92 -324 -296 -466 -464 -256 -305 -436 -509 -567 -641 -122 -125 -138 -145
-135 -170 3 -28 12 -20 179 146 98 98 295 315 449 495 295 345 491 550 610
637 41 31 170 111 285 178 116 68 248 149 295 181 187 128 301 260 400 464 67
137 90 203 190 545 102 349 127 423 180 530 64 126 137 227 234 325 94 94 155
140 436 330 567 383 815 578 1090 855 388 392 701 771 988 1196 265 393 390
490 872 674 101 39 227 91 280 116 120 57 285 167 418 279 103 87 382 343 382
351 0 2 -12 4 -27 4 -21 -1 -59 -30 -158 -121z"/>
<path d="M7310 10098 c-512 -463 -585 -515 -950 -668 -314 -132 -431 -197
-544 -301 -66 -60 -520 -567 -751 -839 -595 -700 -948 -1026 -1705 -1577 -333
-242 -427 -331 -542 -513 -76 -121 -106 -197 -205 -515 -170 -547 -229 -694
-350 -863 -121 -170 -261 -283 -504 -407 -372 -189 -439 -250 -879 -795 -341
-423 -548 -642 -772 -820 -99 -78 -108 -88 -108 -119 0 -25 3 -31 12 -24 412
316 556 466 1000 1043 295 384 435 505 828 714 192 103 265 152 355 242 183
183 260 352 465 1023 45 145 100 307 124 361 59 134 140 255 235 348 79 79
135 122 441 343 253 183 457 348 705 568 295 264 511 488 900 936 588 677 766
867 880 942 89 59 279 154 465 233 233 99 410 203 558 328 101 84 493 436 526
471 l30 31 -30 -1 c-23 0 -61 -29 -184 -141z"/>
<path d="M7588 10137 c-167 -149 -512 -447 -593 -512 -120 -96 -243 -173 -438
-271 -224 -113 -362 -191 -436 -247 -64 -48 -457 -399 -685 -612 -89 -82 -442
-429 -786 -770 -743 -736 -899 -881 -1235 -1141 -147 -114 -290 -258 -357
-360 -103 -156 -162 -305 -293 -750 -89 -300 -129 -412 -195 -546 -71 -142
-142 -242 -244 -344 -110 -110 -195 -162 -390 -239 -170 -68 -243 -108 -338
-184 -127 -101 -186 -175 -481 -596 -207 -297 -336 -455 -526 -646 -179 -179
-281 -262 -470 -384 -108 -70 -121 -81 -121 -107 0 -15 3 -28 6 -28 24 0 253
154 384 259 284 227 515 495 835 971 218 325 289 413 411 510 88 70 217 137
364 189 154 54 254 117 365 226 204 202 299 399 460 955 122 422 170 545 270
695 77 115 153 196 290 304 324 256 586 497 1275 1171 381 372 964 929 1190
1135 218 199 453 360 742 506 210 106 332 182 438 269 93 77 730 640 730 646
0 2 -13 4 -29 4 -22 0 -54 -23 -143 -103z"/>
<path d="M7850 10163 c-845 -753 -882 -783 -1260 -1008 -289 -172 -514 -336
-846 -616 -208 -175 -768 -683 -2080 -1885 -335 -307 -418 -394 -466 -488 -39
-77 -70 -209 -93 -404 -61 -504 -252 -919 -570 -1238 -151 -151 -269 -225
-508 -315 -142 -53 -193 -80 -279 -146 -103 -78 -165 -165 -398 -558 -147
-246 -209 -338 -333 -493 -249 -310 -568 -574 -896 -741 -114 -58 -121 -64
-121 -91 0 -17 2 -30 5 -30 12 0 194 95 288 151 375 223 711 548 949 919 30
47 112 186 183 310 157 276 191 326 274 414 110 115 214 180 379 237 123 43
236 99 315 157 368 268 637 697 721 1150 9 46 25 163 36 260 25 213 48 313 96
412 33 68 59 97 258 296 122 121 345 330 496 465 354 314 607 541 900 809 975
893 1239 1104 1800 1440 288 172 370 237 821 646 134 121 296 264 359 318 63
54 117 100 119 102 2 2 -11 4 -30 4 -28 -1 -49 -14 -119 -77z"/>
<path d="M8019 10109 c-85 -73 -314 -269 -510 -436 -551 -470 -733 -611 -1049
-813 -96 -62 -242 -156 -325 -209 -520 -334 -1087 -821 -2030 -1741 -132 -129
-322 -308 -421 -396 -220 -197 -285 -268 -330 -359 -59 -121 -67 -182 -59
-485 6 -220 4 -281 -9 -356 -46 -269 -210 -548 -467 -799 -205 -200 -352 -298
-652 -437 -181 -83 -265 -137 -337 -214 -74 -80 -106 -133 -233 -392 -141
-289 -199 -395 -278 -512 -287 -420 -678 -722 -1271 -978 -42 -18 -48 -25 -48
-51 l0 -30 153 73 c250 120 389 192 488 252 305 184 579 452 758 742 28 44
129 241 226 438 l176 357 92 92 c99 99 76 85 402 239 438 208 769 523 955 911
108 225 128 375 95 727 -17 181 -10 277 28 380 49 135 106 197 517 564 124
110 293 266 375 345 1017 975 1465 1343 2100 1724 381 229 574 370 940 685
301 259 847 731 892 772 l43 38 -33 0 c-28 0 -58 -20 -188 -131z"/>
<path d="M8270 10108 c-80 -72 -311 -285 -515 -474 -704 -652 -790 -716 -1280
-959 -349 -173 -537 -285 -815 -485 -476 -343 -894 -721 -1617 -1465 -521
-537 -544 -564 -585 -698 -29 -97 -21 -198 37 -482 43 -211 47 -239 42 -335
-4 -86 -10 -121 -36 -192 -60 -163 -175 -333 -313 -464 -141 -133 -244 -199
-663 -427 -132 -71 -275 -150 -318 -176 -92 -54 -196 -151 -252 -236 -50 -77
-143 -288 -235 -535 -117 -313 -206 -474 -365 -660 -239 -279 -546 -466 -1192
-725 -154 -61 -158 -64 -161 -94 l-3 -32 38 16 c21 9 139 59 263 110 421 175
565 247 757 377 215 146 383 318 503 513 79 128 119 223 260 625 96 272 176
410 305 528 84 77 118 98 345 214 221 113 473 257 610 347 100 66 279 240 339
329 101 151 168 320 178 453 7 89 -2 144 -64 394 -69 280 -68 382 2 523 40 79
91 137 491 559 488 515 843 857 1196 1150 461 384 729 560 1215 798 369 182
493 256 724 431 184 141 290 236 799 720 222 211 476 446 519 481 2 1 -11 3
-30 3 -29 -1 -54 -18 -179 -132z"/>
<path d="M8589 10182 c-36 -31 -153 -131 -260 -222 -120 -102 -347 -316 -594
-560 -241 -238 -443 -428 -507 -478 -201 -156 -398 -266 -663 -372 -159 -64
-488 -223 -650 -314 -265 -150 -567 -367 -845 -604 -174 -149 -676 -652 -851
-852 -219 -250 -417 -490 -466 -564 -66 -101 -111 -202 -130 -292 -25 -124
-11 -206 80 -449 41 -110 80 -224 86 -253 33 -158 -15 -352 -129 -523 -62 -92
-210 -234 -320 -307 -52 -35 -296 -164 -541 -288 -274 -137 -469 -241 -505
-269 -141 -110 -187 -202 -277 -555 -81 -316 -120 -437 -192 -587 -87 -183
-189 -328 -329 -469 -201 -200 -391 -311 -776 -454 -168 -63 -650 -244 -702
-265 -12 -5 -18 -18 -18 -37 0 -20 4 -28 13 -25 6 3 57 24 111 47 55 23 223
86 375 140 152 54 321 114 376 135 572 212 931 587 1101 1148 23 74 88 338
130 522 8 39 35 111 59 160 96 198 196 268 750 526 448 209 540 265 686 416
238 246 312 516 214 778 -12 33 -46 118 -74 189 -68 169 -84 240 -78 341 13
216 144 416 645 985 173 196 610 634 767 769 453 388 931 679 1505 916 512
211 638 300 1145 810 347 348 501 494 706 665 68 57 161 137 207 177 81 72 82
73 50 72 -25 0 -49 -14 -99 -57z"/>
<path d="M8533 9913 c-211 -187 -443 -404 -543 -507 -470 -485 -574 -578 -802
-714 -211 -127 -380 -195 -709 -286 -181 -50 -302 -96 -484 -186 -179 -88
-255 -136 -500 -320 -396 -298 -803 -670 -1131 -1036 -241 -269 -408 -535
-488 -776 -85 -256 -72 -456 47 -715 82 -178 119 -294 125 -388 9 -167 -63
-321 -222 -481 -145 -144 -289 -224 -681 -379 -467 -184 -644 -289 -771 -458
-104 -139 -136 -236 -164 -499 -31 -289 -53 -400 -111 -565 -79 -223 -190
-394 -374 -578 -265 -266 -458 -362 -1150 -570 -270 -82 -342 -105 -472 -156
-98 -39 -103 -42 -103 -70 l0 -29 38 16 c163 69 356 134 668 223 466 134 675
225 904 394 298 220 498 524 585 889 27 116 38 193 60 422 22 241 56 350 149
480 119 168 302 282 706 446 538 218 625 264 770 409 153 154 223 296 224 456
0 101 -14 153 -94 340 -156 367 -174 537 -83 805 151 446 544 922 1293 1566
380 327 699 532 994 639 53 19 204 66 334 104 648 190 849 322 1454 957 259
272 386 393 698 660 101 88 203 176 225 196 l40 37 -32 1 c-27 0 -79 -42 -400
-327z"/>
<path d="M9040 10143 c-58 -53 -233 -214 -390 -357 -157 -143 -431 -407 -610
-587 -409 -411 -540 -515 -826 -660 -167 -84 -341 -141 -676 -224 -515 -126
-724 -222 -1048 -479 -281 -223 -526 -454 -741 -697 -257 -290 -386 -472 -504
-714 -131 -265 -185 -469 -185 -694 0 -190 24 -293 118 -506 22 -49 55 -135
73 -190 31 -90 34 -111 34 -210 0 -105 -2 -114 -34 -180 -67 -136 -248 -286
-486 -400 -60 -29 -220 -96 -355 -150 -426 -168 -581 -254 -736 -410 -155
-155 -234 -318 -263 -543 -6 -42 -15 -167 -21 -277 -24 -465 -141 -746 -430
-1036 -126 -126 -241 -209 -402 -290 -195 -98 -312 -136 -808 -264 -348 -90
-501 -138 -654 -205 -83 -36 -96 -45 -96 -66 0 -13 5 -24 11 -24 5 0 63 23
127 51 134 58 217 83 717 215 404 107 554 154 700 223 198 94 342 198 496 358
181 189 292 398 348 656 19 90 30 193 51 509 13 189 42 317 100 434 80 160
239 324 406 417 87 49 247 120 534 237 391 160 568 259 707 396 55 54 81 89
110 150 36 75 38 84 37 174 -1 107 -30 215 -104 395 -106 259 -123 330 -124
525 0 170 16 263 76 447 137 419 478 895 963 1343 353 327 549 471 790 586
161 76 270 109 640 198 127 30 274 68 329 85 429 134 711 321 1130 751 347
356 548 551 841 815 160 144 296 269 304 278 12 15 10 17 -15 17 -22 -1 -53
-23 -134 -97z"/>
<path d="M8995 9867 c-214 -204 -514 -497 -665 -650 -410 -416 -537 -525 -776
-667 -254 -151 -434 -211 -1097 -364 -568 -132 -815 -261 -1200 -626 -420
-399 -729 -880 -862 -1340 -57 -199 -79 -350 -79 -555 -1 -219 8 -264 103
-540 86 -251 104 -330 99 -438 -6 -147 -72 -245 -242 -359 -123 -82 -260 -146
-606 -283 -450 -179 -584 -248 -722 -374 -117 -107 -223 -275 -273 -432 -43
-136 -56 -239 -85 -672 -21 -307 -78 -492 -215 -698 -130 -195 -331 -365 -570
-484 -207 -102 -381 -156 -830 -259 -416 -96 -566 -139 -765 -223 -164 -68
-204 -93 -208 -127 -2 -15 0 -26 5 -24 4 2 69 33 143 70 165 81 312 131 575
193 526 125 770 187 880 225 533 184 884 532 994 985 26 111 29 130 46 400 19
304 31 407 60 521 47 184 141 353 269 480 170 169 305 241 795 429 387 148
564 239 677 347 71 68 107 130 124 212 21 104 3 196 -105 526 -100 308 -115
408 -96 635 49 565 300 1106 738 1590 302 332 558 525 860 644 108 43 230 76
636 170 526 123 774 213 1032 376 234 148 331 233 960 850 920 901 854 835
820 834 -26 0 -88 -55 -420 -372z"/>
<path d="M9274 9853 c-860 -934 -1242 -1261 -1734 -1483 -224 -101 -353 -137
-765 -219 -709 -140 -913 -205 -1160 -368 -121 -81 -364 -318 -471 -463 -375
-502 -566 -1089 -566 -1740 0 -247 8 -308 97 -665 35 -143 69 -287 74 -320 16
-103 -7 -174 -78 -238 -57 -51 -88 -66 -541 -247 -223 -89 -460 -188 -527
-220 -374 -177 -594 -436 -709 -829 -35 -120 -58 -240 -110 -581 -57 -371 -76
-467 -118 -585 -97 -271 -267 -456 -551 -597 -162 -81 -247 -108 -755 -238
-665 -170 -747 -193 -919 -260 -108 -42 -245 -109 -363 -177 -70 -40 -78 -48
-78 -75 l0 -30 72 40 c40 23 118 66 173 96 241 135 442 199 1145 365 807 192
1126 388 1303 801 55 130 91 290 157 697 32 204 68 407 80 452 100 391 299
663 625 854 105 61 243 120 625 267 524 201 560 221 600 326 38 102 29 192
-55 549 -84 358 -89 393 -89 620 -1 504 123 1004 352 1420 218 395 500 693
798 844 204 102 331 137 949 260 465 93 612 131 800 207 282 116 599 329 921
621 127 116 374 373 814 848 173 187 339 366 369 398 l54 57 -31 0 c-28 0 -65
-37 -388 -387z"/>
<path d="M9494 9818 c-589 -662 -770 -850 -1033 -1077 -387 -332 -751 -525
-1216 -644 -184 -47 -333 -75 -725 -137 -674 -106 -786 -143 -984 -330 -223
-212 -412 -539 -531 -917 -107 -344 -157 -714 -158 -1168 -1 -261 11 -404 50
-583 59 -279 78 -504 51 -594 -16 -54 -79 -122 -141 -153 -29 -14 -118 -41
-197 -61 -525 -128 -820 -272 -1070 -524 -113 -114 -198 -237 -275 -395 -95
-196 -136 -331 -220 -725 -102 -479 -152 -662 -215 -795 -110 -230 -292 -406
-544 -526 -177 -83 -261 -109 -929 -284 -730 -190 -905 -258 -1254 -484 -96
-62 -103 -68 -103 -99 l0 -34 43 32 c109 83 235 159 382 230 261 128 453 191
1070 349 363 93 576 157 730 218 365 144 600 393 722 762 41 125 114 419 173
690 70 326 117 475 213 666 231 464 621 740 1237 875 289 63 353 94 407 197
59 115 56 244 -17 617 -48 247 -66 493 -56 771 25 688 170 1238 432 1638 150
229 297 369 457 434 164 67 316 100 802 173 619 92 808 135 1077 245 499 205
904 532 1529 1235 777 874 731 820 699 820 -26 0 -71 -46 -406 -422z"/>
<path d="M9789 9897 c-326 -352 -422 -459 -739 -827 -404 -471 -675 -702
-1030 -880 -403 -202 -793 -293 -1520 -355 -493 -41 -656 -84 -820 -213 -177
-140 -300 -378 -394 -762 -112 -453 -167 -934 -169 -1455 -1 -296 10 -444 51
-690 23 -140 23 -353 -1 -422 -23 -66 -65 -124 -110 -152 -53 -32 -165 -57
-342 -75 -243 -25 -355 -55 -515 -137 -261 -134 -479 -378 -642 -719 -93 -196
-148 -356 -259 -765 -109 -398 -170 -605 -210 -705 -102 -256 -298 -464 -564
-597 -204 -103 -361 -156 -1028 -347 -480 -138 -597 -175 -762 -242 -235 -96
-431 -206 -637 -358 -82 -59 -97 -75 -98 -98 0 -16 3 -28 8 -28 4 0 39 26 77
57 167 134 421 282 658 382 157 67 419 152 803 261 197 56 411 117 474 136
497 151 776 312 961 556 144 192 223 388 354 878 129 480 186 651 296 880 92
190 196 345 311 463 217 221 417 314 727 337 180 14 351 45 409 74 160 82 190
222 137 651 -46 373 -46 931 1 1355 56 515 168 1008 276 1224 73 145 192 269
327 339 90 47 175 73 311 96 112 19 169 24 570 57 789 63 1288 229 1760 585
218 165 352 299 616 621 344 418 538 637 897 1011 194 201 198 207 165 207
-31 0 -56 -25 -349 -343z"/>
<path d="M10075 9959 c-192 -197 -400 -426 -567 -627 -119 -142 -196 -239
-439 -557 -466 -608 -1104 -951 -1929 -1035 -58 -6 -265 -15 -460 -20 -475
-12 -624 -32 -779 -106 -164 -77 -278 -247 -346 -518 -116 -465 -196 -1518
-166 -2201 23 -506 24 -571 11 -642 -30 -173 -110 -253 -280 -281 -36 -6 -155
-14 -265 -17 -309 -11 -390 -33 -552 -154 -167 -124 -305 -301 -423 -546 -88
-181 -116 -255 -254 -663 -135 -398 -175 -502 -261 -677 -230 -468 -575 -794
-1047 -989 -46 -19 -310 -104 -588 -189 -571 -176 -687 -215 -885 -299 -242
-103 -442 -220 -634 -372 -80 -63 -83 -66 -53 -66 24 0 57 19 136 79 229 175
527 323 887 444 94 32 466 148 824 258 299 92 450 153 615 251 286 169 541
428 721 732 127 215 201 388 349 821 51 149 115 331 142 405 164 446 390 747
653 871 119 56 201 69 427 69 106 0 222 5 257 10 123 20 210 87 249 191 40
110 46 207 32 554 -14 340 -9 936 9 1210 30 429 80 901 112 1058 62 298 167
501 311 601 132 90 282 114 758 121 173 3 387 12 475 20 639 60 1128 242 1550
575 152 120 320 301 497 536 319 424 659 825 981 1161 82 84 98 106 95 129 -3
24 -16 13 -163 -137z"/>
<path d="M10077 9708 c-296 -333 -538 -636 -755 -948 -242 -346 -372 -497
-557 -647 -266 -215 -607 -381 -950 -463 -299 -71 -480 -85 -975 -74 -636 13
-680 9 -810 -78 -180 -120 -300 -440 -330 -882 -31 -456 -60 -1336 -60 -1841
0 -405 -12 -606 -40 -698 -38 -124 -113 -199 -230 -234 -45 -13 -107 -17 -340
-17 l-285 -1 -69 -28 c-188 -75 -357 -259 -499 -542 -70 -141 -127 -287 -217
-555 -90 -271 -141 -394 -243 -595 -221 -433 -549 -809 -922 -1055 -211 -139
-318 -183 -973 -400 -329 -109 -663 -224 -742 -255 -244 -96 -443 -205 -655
-359 l-50 -36 32 0 c22 0 53 16 106 53 101 73 248 159 359 211 118 56 330 132
932 336 263 89 523 179 578 201 650 259 1190 802 1494 1504 62 143 60 137 169
450 94 271 133 371 197 500 146 293 324 468 529 521 54 14 98 16 284 11 129
-4 248 -3 288 3 225 33 332 192 343 515 2 72 9 371 14 665 22 1125 52 1758 95
1958 50 238 150 440 256 517 140 104 296 124 674 90 402 -36 835 -6 1175 81
336 87 658 249 905 456 174 145 297 286 475 543 270 391 586 791 894 1134 49
55 66 81 66 102 0 16 -2 29 -5 29 -2 0 -73 -78 -158 -172z"/>
<path d="M10114 9498 c-247 -295 -461 -586 -675 -913 -210 -320 -283 -418
-414 -550 -190 -193 -346 -304 -590 -421 -280 -134 -553 -201 -922 -225 -197
-12 -427 -2 -739 32 -116 13 -230 19 -294 17 -93 -3 -113 -7 -173 -35 -148
-70 -261 -250 -328 -521 -59 -240 -63 -329 -89 -1727 -12 -633 -31 -1024 -56
-1123 -35 -140 -87 -222 -176 -282 -93 -62 -158 -72 -443 -68 -264 3 -302 -2
-414 -55 -70 -34 -173 -123 -231 -202 -107 -146 -178 -307 -305 -690 -139
-419 -170 -490 -302 -690 -259 -390 -698 -800 -1161 -1082 -232 -141 -442
-231 -992 -425 -401 -141 -535 -192 -690 -260 -150 -66 -358 -179 -435 -236
l-50 -37 33 -3 c19 -2 41 3 50 11 25 21 212 127 329 186 120 60 413 175 738
290 127 45 275 98 330 118 513 184 1035 507 1424 878 311 297 480 504 589 720
55 110 71 150 177 465 111 329 147 425 210 550 92 184 200 303 330 365 116 55
156 60 395 57 153 -2 238 1 296 11 243 44 349 201 374 557 19 274 30 621 40
1255 10 689 15 861 31 1045 30 339 83 530 197 697 43 64 114 133 158 156 90
45 231 46 549 5 231 -30 727 -33 905 -5 512 79 917 273 1236 592 136 135 197
215 391 509 289 438 506 737 717 986 88 103 106 130 106 157 0 18 -2 33 -4 33
-2 0 -57 -64 -122 -142z"/>
<path d="M10214 9364 c-11 -16 -177 -263 -369 -549 -364 -543 -436 -646 -568
-808 -327 -405 -686 -653 -1097 -757 -306 -77 -617 -83 -1100 -19 -339 45
-443 43 -556 -10 -127 -59 -210 -178 -288 -415 -112 -335 -147 -746 -128
-1470 15 -531 15 -814 2 -1001 -27 -370 -70 -539 -168 -647 -97 -107 -176
-129 -537 -148 -306 -15 -420 -55 -561 -196 -70 -69 -89 -96 -132 -185 -28
-57 -98 -243 -156 -414 -139 -405 -161 -464 -209 -565 -130 -269 -471 -582
-1052 -969 -472 -314 -814 -497 -1241 -666 -549 -217 -875 -361 -1032 -456
-143 -86 -146 -89 -100 -89 20 0 39 4 42 9 9 14 196 121 315 181 149 74 247
116 591 255 680 273 927 401 1485 771 552 365 778 556 960 809 96 133 153 268
255 600 105 344 154 469 234 589 91 136 186 208 325 245 56 15 145 24 336 35
334 20 408 41 506 143 76 78 113 168 149 358 51 276 62 659 39 1383 -23 749
41 1241 206 1569 72 144 143 212 266 253 57 20 78 22 199 17 74 -3 252 -20
395 -38 233 -30 286 -33 515 -33 240 0 263 1 381 27 394 84 680 247 990 564
199 204 335 384 594 785 152 236 341 521 467 704 57 83 69 107 66 133 l-3 33
-21 -28z"/>
<path d="M10134 8987 c-56 -84 -204 -318 -330 -522 -379 -617 -480 -759 -679
-960 -179 -180 -341 -297 -539 -390 -228 -108 -368 -138 -631 -139 -158 -1
-219 4 -365 26 -211 33 -516 68 -585 68 -196 -1 -384 -112 -477 -280 -59 -107
-113 -299 -148 -530 -38 -248 -42 -389 -35 -1170 7 -780 4 -877 -36 -1105 -39
-226 -84 -340 -169 -423 -96 -95 -194 -129 -465 -161 -218 -27 -284 -39 -369
-67 -107 -37 -194 -91 -271 -168 -117 -119 -150 -189 -245 -526 -114 -410
-157 -515 -261 -654 -92 -121 -190 -195 -558 -424 -101 -62 -279 -176 -395
-251 -615 -402 -949 -584 -1511 -826 -277 -120 -691 -326 -833 -415 -95 -60
-101 -65 -74 -68 23 -2 59 14 149 68 171 103 454 243 898 445 585 265 547 243
1755 990 421 260 464 290 561 391 139 146 193 258 284 594 108 400 130 458
219 577 80 106 224 198 371 237 33 9 161 30 285 46 242 33 306 47 385 87 71
36 108 66 155 128 82 107 130 276 167 590 15 132 17 258 18 1035 0 873 0 887
23 1029 77 481 188 683 420 763 60 21 85 23 237 23 148 -1 207 -7 455 -44 233
-35 310 -43 425 -43 445 0 844 184 1196 549 203 210 349 421 734 1058 137 226
270 440 297 477 40 55 49 73 46 102 -3 33 -7 29 -104 -117z"/>
<path d="M10214 8855 c-12 -16 -130 -221 -264 -454 -287 -504 -386 -668 -476
-798 -243 -349 -506 -593 -782 -724 -284 -136 -577 -167 -963 -101 -498 84
-678 83 -818 -7 -136 -88 -226 -254 -280 -516 -56 -274 -56 -271 -56 -1225 0
-803 -2 -895 -18 -995 -72 -445 -145 -607 -318 -708 -78 -46 -156 -67 -399
-108 -263 -44 -342 -64 -448 -117 -136 -66 -261 -207 -317 -356 -12 -33 -48
-164 -80 -291 -116 -469 -178 -580 -410 -730 -44 -29 -228 -129 -410 -222
-181 -94 -442 -233 -580 -310 -499 -279 -725 -397 -1335 -697 -380 -187 -659
-338 -811 -440 -80 -53 -82 -56 -50 -56 18 0 45 8 59 18 46 32 489 282 647
364 83 44 304 155 492 248 390 193 651 329 903 470 339 190 607 333 859 456
139 69 274 139 300 156 72 49 176 155 221 222 62 96 87 169 156 458 35 148 77
301 94 341 63 152 196 284 348 348 84 34 171 55 427 99 217 37 321 71 407 133
149 106 219 258 277 602 49 289 56 486 41 1128 -10 424 -10 582 -1 727 38 586
138 859 354 965 40 19 99 40 132 46 87 16 271 5 481 -30 272 -45 404 -61 516
-61 420 0 828 199 1142 556 204 232 330 422 626 949 89 160 207 366 262 459
77 132 98 177 96 200 l-3 31 -21 -30z"/>
<path d="M10221 8619 c-16 -27 -169 -303 -329 -594 -361 -659 -472 -826 -686
-1041 -218 -218 -440 -351 -705 -422 -87 -23 -114 -25 -291 -26 -213 0 -179
-6 -590 94 -221 54 -350 51 -470 -10 -185 -94 -272 -270 -329 -666 -29 -203
-39 -417 -51 -1099 -12 -686 -24 -975 -46 -1103 -62 -359 -181 -535 -425 -626
-35 -13 -156 -45 -269 -71 -113 -26 -241 -58 -285 -72 -208 -65 -357 -187
-448 -368 -38 -76 -54 -132 -107 -356 -75 -321 -126 -428 -256 -548 -76 -70
-179 -125 -331 -180 -167 -60 -350 -136 -533 -221 -220 -103 -1814 -910 -1960
-992 -154 -88 -338 -198 -432 -261 -71 -48 -75 -52 -50 -55 21 -2 82 30 250
133 322 196 406 240 1372 724 915 457 1016 504 1282 597 302 105 386 150 489
261 98 106 137 199 214 513 65 262 89 328 165 440 71 105 192 197 329 249 42
16 187 56 322 90 136 34 274 72 307 85 232 91 362 294 417 651 19 122 32 447
40 985 18 1210 67 1551 253 1752 64 69 148 114 242 129 88 14 199 -1 445 -61
233 -57 320 -70 455 -70 439 0 813 197 1156 610 164 198 278 386 649 1075 93
173 160 294 192 346 26 43 34 65 31 93 -3 35 -3 36 -17 15z"/>
<path d="M10179 8280 c-31 -58 -85 -159 -119 -225 -434 -830 -538 -992 -795
-1251 -227 -229 -416 -342 -684 -410 -221 -56 -413 -52 -756 16 -245 49 -303
55 -380 41 -234 -43 -359 -227 -419 -616 -31 -204 -45 -492 -66 -1390 -16
-661 -37 -884 -100 -1056 -64 -176 -180 -308 -341 -390 -32 -15 -158 -60 -281
-98 -345 -108 -390 -125 -500 -196 -127 -83 -223 -202 -292 -362 -18 -43 -65
-177 -104 -298 -93 -289 -132 -367 -225 -460 -95 -95 -170 -130 -402 -188 -99
-24 -224 -61 -277 -81 -127 -48 -492 -206 -888 -386 -790 -358 -1134 -538
-1540 -804 -173 -113 -182 -121 -151 -124 22 -2 40 3 55 16 32 30 295 200 436
282 159 93 441 234 890 445 960 452 1207 554 1505 619 252 55 309 80 405 176
91 91 141 193 244 498 113 333 162 427 278 538 114 109 197 150 546 268 137
47 278 97 313 111 227 96 367 293 424 598 19 103 41 508 55 1012 21 783 40
1108 76 1324 42 246 141 414 282 478 47 22 75 27 162 31 108 4 159 -2 445 -54
513 -91 913 31 1289 395 248 241 456 559 763 1166 47 94 114 223 150 287 52
96 64 125 61 155 -3 38 -4 37 -59 -67z"/>
<path d="M10024 7699 c-116 -235 -237 -471 -269 -525 -233 -398 -488 -671
-765 -818 -111 -59 -274 -113 -397 -131 -128 -19 -375 -19 -538 1 -158 19
-309 21 -390 4 -189 -38 -335 -177 -399 -380 -71 -223 -75 -275 -116 -1445
-21 -586 -30 -731 -56 -895 -52 -330 -184 -534 -424 -655 -36 -18 -157 -67
-270 -110 -113 -42 -241 -92 -285 -112 -179 -78 -330 -209 -427 -370 -26 -43
-92 -173 -146 -288 -176 -375 -196 -410 -286 -501 -115 -116 -196 -154 -416
-194 -411 -77 -1639 -583 -2275 -940 -142 -79 -383 -235 -465 -299 l-52 -41
31 0 c23 0 58 19 126 68 354 251 704 427 1695 850 469 200 665 267 921 317 74
14 155 31 180 39 72 22 179 80 243 133 117 95 167 179 409 683 101 210 279
396 472 492 28 14 102 44 165 67 187 69 380 151 455 194 42 24 105 76 157 127
72 73 93 102 132 181 43 89 82 223 105 354 22 128 54 694 76 1340 18 544 22
624 42 750 64 417 243 606 574 605 52 0 166 -7 254 -15 284 -26 450 -18 651
30 294 70 550 247 788 545 170 213 331 492 563 975 123 255 153 327 151 355
-3 30 -32 -23 -214 -391z"/>
<path d="M10116 7620 c-306 -660 -461 -908 -726 -1170 -185 -183 -382 -302
-585 -357 -88 -23 -119 -26 -255 -26 -85 0 -177 5 -205 12 -76 18 -441 26
-517 12 -200 -39 -343 -187 -412 -426 -45 -154 -76 -687 -76 -1306 0 -492 -16
-682 -80 -941 -71 -284 -177 -464 -364 -615 -65 -52 -138 -93 -373 -209 -469
-231 -551 -305 -828 -741 -225 -354 -287 -431 -442 -545 -153 -113 -338 -182
-888 -334 -343 -95 -414 -118 -665 -221 -599 -246 -929 -416 -1272 -653 -122
-85 -133 -95 -107 -98 22 -3 50 13 126 67 294 212 732 434 1313 668 243 98
359 136 695 228 486 133 644 193 810 305 153 104 258 222 415 465 210 327 233
359 350 475 139 139 225 198 470 320 102 51 224 115 273 142 294 166 453 401
541 803 54 244 63 396 86 1465 6 256 15 494 20 530 51 331 182 510 420 576 84
24 323 24 500 0 174 -23 353 -21 459 4 228 55 428 176 641 390 239 239 438
560 684 1102 40 90 83 184 95 210 14 29 21 60 19 85 -3 35 -13 16 -122 -217z"/>
<path d="M10092 7305 c-78 -171 -173 -364 -210 -430 -242 -431 -551 -733 -877
-859 -184 -70 -319 -84 -600 -62 -247 20 -330 20 -420 1 -242 -51 -385 -232
-438 -556 -21 -125 -24 -177 -47 -774 -11 -280 -25 -589 -31 -685 -27 -448
-138 -815 -324 -1076 -105 -147 -216 -242 -445 -384 -74 -46 -175 -108 -223
-138 -232 -144 -361 -271 -596 -587 -249 -334 -407 -479 -659 -605 -115 -57
-388 -152 -722 -250 -772 -227 -1483 -543 -1895 -842 -76 -56 -78 -58 -46 -58
24 0 65 22 159 84 165 109 287 179 502 286 398 200 701 313 1580 591 354 112
503 173 644 267 131 86 233 196 523 557 89 111 208 246 267 303 105 101 221
183 568 402 133 84 318 265 403 394 122 188 212 432 266 724 28 158 42 357 79
1187 11 242 24 477 30 522 42 329 167 525 379 589 79 24 193 27 459 14 230
-11 269 -11 368 4 182 27 330 84 483 186 295 198 560 537 774 990 152 323 198
434 195 474 -3 37 -15 14 -146 -269z"/>
<path d="M10141 7160 c-219 -478 -308 -631 -486 -838 -189 -220 -368 -342
-600 -411 -119 -35 -230 -49 -490 -61 -377 -16 -484 -26 -541 -48 -186 -70
-291 -243 -339 -557 -9 -58 -21 -273 -30 -510 -20 -568 -41 -803 -96 -1079
-73 -365 -196 -685 -353 -916 -75 -110 -250 -280 -411 -400 -294 -217 -457
-366 -636 -580 -135 -162 -325 -366 -394 -425 -96 -81 -209 -151 -390 -240
-307 -150 -507 -228 -1140 -440 -743 -249 -995 -360 -1396 -614 l-64 -41 42 0
c23 0 45 5 48 10 10 16 278 171 402 234 244 122 491 218 1003 391 1173 395
1482 561 1834 984 255 308 421 467 730 700 197 149 302 255 409 414 146 217
282 572 347 908 69 359 96 649 110 1184 9 360 20 456 71 610 72 216 168 314
337 344 31 6 203 20 382 31 459 29 569 48 745 129 129 60 222 127 346 251 226
224 360 436 576 910 68 150 83 192 81 225 -3 37 -9 26 -97 -165z"/>
<path d="M10176 6989 c-78 -176 -196 -413 -253 -508 -145 -239 -362 -463 -553
-569 -109 -61 -194 -81 -469 -112 -647 -74 -776 -107 -902 -227 -141 -134
-188 -352 -209 -958 -11 -316 -23 -443 -70 -695 -85 -461 -188 -790 -343
-1095 -130 -255 -257 -415 -503 -631 -200 -176 -417 -391 -568 -564 -389 -445
-628 -571 -1931 -1020 -590 -203 -873 -326 -1215 -530 -119 -70 -131 -80 -102
-80 23 0 67 20 145 66 361 215 665 344 1455 620 1078 377 1344 519 1665 889
129 149 336 359 620 629 285 271 385 412 522 734 230 540 365 1176 365 1721 0
383 51 663 145 805 46 69 91 108 173 147 135 65 196 77 732 144 333 42 477 88
629 202 258 193 442 449 646 899 69 151 85 196 83 227 -3 37 -6 32 -62 -94z"/>
<path d="M10226 6870 c-23 -65 -171 -360 -230 -458 -212 -352 -461 -565 -775
-662 -53 -16 -184 -48 -291 -70 -321 -67 -493 -116 -600 -170 -117 -59 -233
-166 -279 -259 -64 -127 -115 -416 -141 -796 -12 -177 -15 -204 -41 -355 -97
-561 -322 -1224 -540 -1586 -96 -161 -204 -284 -758 -868 -370 -390 -444 -442
-896 -624 -110 -44 -369 -151 -575 -237 -206 -86 -584 -241 -840 -344 -558
-226 -610 -249 -814 -354 -134 -69 -154 -82 -129 -85 22 -2 83 23 214 87 101
49 348 158 549 241 201 83 471 198 600 255 129 56 267 116 305 133 140 61 495
202 710 282 342 128 507 220 672 374 132 123 758 795 850 912 75 96 162 232
214 337 158 314 316 778 423 1238 50 220 75 369 92 569 21 248 52 491 75 590
28 121 95 254 163 322 125 127 272 183 849 323 326 79 507 169 686 340 169
162 272 310 422 607 87 172 100 205 97 241 -3 38 -4 40 -12 17z"/>
<path d="M10181 6563 c-176 -357 -387 -600 -676 -780 -120 -75 -238 -129 -420
-193 -503 -175 -686 -267 -814 -406 -117 -128 -164 -258 -206 -569 -31 -239
-49 -330 -121 -625 -150 -617 -306 -1098 -459 -1416 -151 -316 -341 -602 -578
-871 -185 -210 -343 -347 -540 -468 -184 -112 -269 -150 -657 -295 -774 -289
-1357 -535 -1904 -803 -244 -119 -266 -132 -233 -135 25 -2 46 3 65 16 52 37
308 161 622 300 570 253 745 325 1345 550 482 182 501 190 638 258 197 98 381
238 597 454 446 446 739 981 959 1755 134 472 245 936 291 1215 40 246 69 358
113 446 47 93 102 161 184 227 127 102 219 146 663 312 577 217 850 444 1119
933 59 106 72 137 69 167 -3 35 -5 32 -57 -72z"/>
<path d="M10216 6420 c-144 -270 -328 -490 -545 -651 -137 -102 -251 -169
-576 -337 -432 -224 -544 -293 -651 -404 -73 -76 -120 -140 -164 -227 -69
-139 -55 -90 -379 -1297 -61 -227 -129 -472 -152 -545 -277 -907 -803 -1576
-1492 -1899 -56 -26 -255 -105 -442 -175 -729 -272 -1272 -503 -1735 -735
-107 -53 -215 -109 -240 -124 l-45 -26 32 0 c20 0 118 42 275 119 501 246 926
426 1798 763 598 231 779 338 1073 635 227 230 400 477 563 803 151 304 210
481 443 1337 99 362 200 729 225 816 73 255 153 398 298 533 152 142 205 175
698 434 118 62 254 137 302 167 258 159 470 360 625 593 87 131 115 187 111
222 l-3 33 -19 -35z"/>
<path d="M10207 6198 c-152 -259 -458 -552 -792 -758 -209 -129 -387 -241
-480 -303 -317 -212 -526 -448 -679 -767 -90 -190 -145 -356 -227 -693 -39
-160 -102 -418 -140 -572 -126 -516 -252 -838 -467 -1185 -188 -305 -404 -541
-641 -701 -134 -91 -214 -130 -485 -241 -923 -376 -1682 -705 -2106 -912 -127
-62 -132 -66 -94 -66 28 0 68 13 125 41 334 164 1143 517 1804 789 426 175
490 202 576 245 356 179 626 441 866 840 218 363 348 710 499 1340 90 377 181
714 229 855 114 329 303 611 548 818 110 93 203 158 527 367 334 216 465 312
611 453 197 188 363 404 357 465 l-3 32 -28 -47z"/>
<path d="M10155 5928 c-155 -197 -252 -283 -995 -874 -450 -358 -599 -508
-742 -744 -148 -245 -200 -398 -383 -1131 -109 -435 -164 -620 -245 -824 -101
-251 -185 -412 -336 -640 -201 -305 -345 -444 -594 -578 -47 -25 -420 -190
-830 -366 -918 -394 -1123 -484 -1461 -642 -246 -114 -264 -124 -227 -127 22
-2 45 1 51 6 13 11 394 190 652 307 147 66 1038 448 1505 645 304 128 421 192
572 311 218 172 418 447 603 832 132 273 192 462 395 1237 158 602 185 686
270 848 143 271 279 405 995 979 455 364 629 524 782 716 32 40 62 75 66 78 5
3 7 20 5 38 -3 30 -5 28 -83 -71z"/>
<path d="M10125 5689 c-262 -293 -360 -384 -880 -819 -154 -128 -329 -277
-389 -329 -179 -157 -309 -326 -419 -546 -105 -212 -154 -369 -318 -1020 -144
-570 -280 -931 -480 -1268 -169 -285 -349 -451 -650 -599 -63 -31 -395 -179
-739 -328 -1121 -487 -1342 -586 -1535 -683 -154 -78 -184 -96 -157 -96 21 -1
83 25 180 73 259 130 544 257 1307 586 798 344 1091 478 1206 555 232 155 404
382 579 765 140 306 210 524 365 1140 156 614 230 817 383 1045 112 167 221
271 717 685 433 361 624 540 864 807 71 79 82 96 79 123 -3 30 -6 28 -113 -91z"/>
<path d="M10000 5340 c-143 -144 -313 -303 -435 -406 -680 -573 -790 -677
-917 -869 -149 -225 -221 -429 -393 -1115 -137 -549 -208 -769 -342 -1070
-119 -265 -235 -433 -389 -560 -154 -126 -202 -150 -1199 -580 -892 -384
-1070 -465 -1350 -610 -214 -111 -245 -130 -213 -130 23 0 58 12 100 36 102
58 438 225 633 314 99 45 547 239 995 432 448 192 847 368 885 390 113 66 195
131 291 230 165 171 245 314 386 697 68 185 134 407 218 736 166 647 206 777
310 991 81 167 185 318 304 442 56 58 241 225 411 371 420 360 556 482 715
641 182 182 232 243 228 273 -3 20 -36 -10 -238 -213z"/>
<path d="M10135 5249 c-55 -55 -280 -261 -500 -457 -536 -476 -624 -568 -786
-811 -178 -269 -295 -563 -455 -1151 -220 -808 -328 -1103 -472 -1295 -117
-156 -278 -292 -443 -373 -101 -49 -434 -191 -924 -392 -792 -325 -1122 -480
-1490 -698 -105 -63 -116 -72 -88 -72 23 0 91 33 235 116 379 216 631 331
1528 697 589 240 876 374 996 465 191 144 292 290 410 593 66 170 105 295 249
813 179 636 231 788 351 1028 166 331 344 537 824 957 508 444 674 607 668
656 -3 24 -11 17 -103 -76z"/>
<path d="M10125 5012 c-61 -59 -204 -192 -320 -297 -358 -325 -387 -353 -484
-458 -251 -274 -414 -542 -570 -933 -92 -232 -151 -414 -296 -909 -78 -266
-154 -516 -182 -595 -36 -105 -114 -253 -174 -333 -85 -113 -242 -238 -394
-315 -88 -44 -551 -242 -965 -412 -898 -370 -1122 -475 -1450 -681 -115 -73
-122 -79 -89 -79 19 0 39 4 45 9 15 15 377 218 509 285 130 67 392 181 885
384 747 308 1126 480 1264 573 190 129 331 316 404 534 29 85 169 532 269 855
166 540 247 762 358 979 127 249 335 533 521 711 44 41 192 177 330 302 139
125 298 271 354 325 92 89 102 101 98 130 l-3 31 -110 -106z"/>
<path d="M9875 4533 c-392 -380 -515 -514 -637 -698 -93 -138 -239 -429 -329
-655 -69 -175 -197 -559 -354 -1070 -145 -472 -201 -581 -376 -744 -182 -168
-474 -318 -1116 -571 -175 -69 -448 -177 -608 -240 -417 -166 -670 -293 -970
-489 -92 -60 -97 -66 -68 -66 22 0 48 11 79 35 83 64 315 197 499 286 99 48
333 148 520 222 187 74 471 187 630 250 625 248 894 387 1082 562 183 168 237
284 423 895 144 471 272 846 363 1055 179 415 415 746 749 1052 73 67 211 200
306 296 151 152 173 177 170 202 -3 25 -31 0 -363 -322z"/>
<path d="M9929 4333 c-167 -170 -342 -353 -388 -408 -163 -196 -308 -444 -406
-695 -52 -132 -226 -652 -330 -986 -154 -492 -244 -661 -464 -880 -288 -287
-611 -453 -1520 -780 -616 -221 -811 -311 -1126 -523 -90 -61 -90 -61 -53 -61
20 0 40 5 44 11 13 22 251 171 364 228 129 66 312 140 735 296 738 272 810
302 1047 421 342 173 583 375 751 629 105 160 149 258 227 512 77 253 255 798
317 972 117 330 245 567 429 796 40 50 210 231 378 404 257 264 306 318 306
342 0 16 -2 29 -3 29 -2 0 -141 -138 -308 -307z"/>
<path d="M10190 4344 c-25 -27 -140 -153 -257 -280 -374 -407 -445 -500 -552
-725 -98 -207 -148 -356 -351 -1043 -119 -403 -154 -505 -218 -632 -147 -290
-424 -534 -822 -722 -191 -91 -368 -158 -841 -317 -461 -156 -588 -203 -789
-294 -190 -87 -395 -209 -500 -300 -35 -30 -35 -30 -10 -31 16 0 85 40 184
105 328 217 447 269 1186 514 467 156 642 222 845 321 403 196 650 422 810
740 57 114 88 205 185 540 209 730 267 904 367 1104 116 232 194 337 463 626
374 401 352 375 348 411 l-3 32 -45 -49z"/>
<path d="M10073 3984 c-242 -269 -307 -348 -398 -484 -189 -284 -286 -522
-365 -895 -54 -255 -148 -641 -179 -735 -78 -233 -200 -412 -385 -567 -143
-120 -279 -204 -576 -352 -319 -159 -572 -268 -1120 -486 -786 -311 -868 -348
-965 -430 l-40 -35 28 0 c17 0 57 19 100 48 131 87 123 83 847 367 733 287
1268 531 1548 706 274 170 468 379 565 609 44 104 95 297 186 710 104 468 152
623 258 820 104 195 236 369 502 664 129 143 161 184 161 207 0 16 -2 29 -4
29 -2 0 -76 -79 -163 -176z"/>
<path d="M10068 3742 c-254 -302 -337 -423 -447 -654 -114 -238 -156 -394
-201 -753 -58 -454 -91 -601 -168 -750 -40 -76 -65 -108 -167 -210 -170 -171
-283 -244 -680 -443 -364 -182 -519 -249 -1286 -557 -474 -190 -596 -243 -693
-300 -103 -62 -114 -70 -88 -73 20 -2 66 17 158 67 140 76 152 81 549 236 667
262 1369 568 1625 709 406 223 632 461 710 748 21 77 59 329 85 563 32 291 74
465 160 670 103 247 273 500 529 787 60 68 86 105 86 123 0 14 -3 25 -7 25 -5
0 -79 -85 -165 -188z"/>
<path d="M10147 3601 c-321 -365 -510 -723 -572 -1085 -8 -48 -22 -231 -30
-405 -9 -174 -22 -356 -31 -405 -31 -186 -113 -319 -280 -449 -166 -130 -268
-192 -534 -325 -370 -185 -649 -301 -1140 -472 -446 -156 -679 -259 -884 -390
-105 -67 -108 -70 -74 -70 26 0 55 13 105 45 97 65 364 194 523 254 74 28 243
90 375 137 453 162 856 329 1180 490 446 221 673 420 746 654 22 71 35 214 49
540 6 135 17 293 25 352 49 346 253 742 553 1075 71 79 83 97 80 123 -3 30 -5
29 -91 -69z"/>
<path d="M10225 3452 c-6 -4 -38 -39 -71 -78 -232 -271 -397 -581 -476 -893
-39 -156 -47 -269 -37 -543 12 -322 0 -409 -74 -553 -72 -139 -252 -296 -477
-418 -106 -58 -822 -366 -1410 -607 -124 -51 -313 -128 -420 -172 -107 -44
-240 -103 -294 -131 -93 -48 -98 -52 -67 -55 23 -2 61 10 129 44 225 109 240
115 1327 559 292 119 593 247 670 285 305 150 506 319 589 494 59 124 60 139
61 551 0 362 2 385 24 480 78 333 222 614 462 900 60 72 80 101 77 120 -2 15
-7 22 -13 17z"/>
<path d="M10179 3160 c-198 -230 -356 -533 -418 -800 -35 -151 -45 -270 -35
-424 13 -208 9 -399 -10 -476 -50 -202 -191 -373 -436 -532 -173 -113 -228
-137 -1330 -581 -267 -108 -560 -230 -650 -271 -150 -69 -161 -76 -124 -76 28
0 76 16 150 49 108 48 195 84 684 281 263 106 451 182 795 323 362 148 548
255 707 406 138 131 209 252 243 416 14 69 16 122 10 395 -6 275 -5 327 10
405 51 268 186 542 395 798 60 74 71 93 68 119 l-3 32 -56 -64z"/>
<path d="M10192 2925 c-194 -227 -341 -530 -387 -800 -15 -85 -16 -138 -11
-350 8 -279 -2 -369 -50 -491 -89 -221 -326 -444 -628 -589 -61 -29 -469 -196
-906 -371 -695 -279 -790 -319 -754 -322 32 -2 70 9 160 46 66 27 200 81 299
120 1196 470 1234 486 1415 607 227 151 378 326 449 521 46 125 53 198 45 469
-5 171 -3 265 5 324 35 240 147 483 333 729 60 79 78 110 76 130 -3 26 -4 25
-46 -23z"/>
<path d="M10167 2648 c-135 -173 -225 -353 -279 -558 -29 -111 -31 -126 -38
-410 -9 -328 -17 -375 -86 -514 -139 -277 -387 -500 -774 -695 -222 -112 -411
-186 -865 -336 -330 -110 -392 -133 -354 -134 51 -1 739 225 984 324 539 216
902 522 1052 885 52 125 73 252 73 447 1 297 32 465 119 648 49 103 160 277
213 331 23 25 29 39 26 65 l-3 34 -68 -87z"/>
<path d="M10165 2405 c-116 -164 -182 -307 -209 -455 -9 -47 -27 -187 -41
-312 -27 -251 -34 -286 -72 -403 -78 -241 -258 -471 -517 -663 -154 -113 -431
-256 -671 -347 -55 -21 -224 -80 -375 -131 -233 -78 -268 -93 -230 -93 57 -1
541 160 752 250 434 184 734 408 919 683 143 212 197 383 219 696 13 173 29
267 67 385 34 107 124 280 184 355 34 42 49 69 49 90 0 17 -3 30 -7 30 -5 0
-35 -38 -68 -85z"/>
<path d="M10203 2212 c-41 -55 -114 -198 -147 -286 -34 -89 -56 -178 -100
-396 -60 -302 -111 -452 -203 -598 -174 -277 -474 -517 -873 -697 -115 -52
-368 -149 -535 -206 l-70 -24 43 -3 c77 -6 550 180 776 305 355 196 625 462
756 747 50 108 86 235 140 492 61 293 118 450 214 593 27 39 36 63 34 85 l-3
31 -32 -43z"/>
<path d="M10188 1920 c-36 -63 -76 -170 -163 -435 -85 -259 -131 -381 -175
-470 -209 -416 -582 -716 -1185 -955 -133 -52 -145 -59 -109 -59 28 -1 88 18
190 60 570 232 944 549 1144 971 26 57 94 239 149 406 102 305 142 407 181
462 15 21 20 41 18 67 l-3 37 -47 -84z"/>
<path d="M10218 1723 c-26 -44 -140 -303 -208 -473 -144 -356 -232 -507 -402
-685 -183 -193 -415 -345 -765 -501 -124 -55 -130 -59 -95 -62 31 -2 74 15
247 102 301 150 481 277 646 455 172 185 265 348 419 726 44 110 103 244 131
299 37 73 49 107 47 133 l-3 35 -17 -29z"/>
<path d="M10131 1295 c-56 -115 -125 -255 -152 -310 -146 -298 -377 -562 -664
-756 -44 -29 -156 -93 -250 -141 -153 -79 -166 -87 -132 -88 69 0 394 188 568
328 117 94 262 253 344 376 41 61 126 212 190 336 64 124 137 262 161 307 36
65 45 90 42 120 -3 35 -11 23 -107 -172z"/>
<path d="M10151 1129 c-46 -85 -109 -199 -140 -254 -201 -365 -446 -605 -835
-821 -80 -44 -86 -49 -59 -52 21 -2 55 12 118 48 217 125 411 279 540 428 92
105 235 319 368 551 87 152 98 175 95 213 -3 41 -3 41 -87 -113z"/>
<path d="M10125 898 c-313 -443 -439 -580 -729 -797 -122 -90 -127 -96 -98
-99 35 -4 120 54 277 189 182 155 283 274 610 719 35 48 55 85 55 102 0 16 -3
28 -7 28 -5 0 -53 -64 -108 -142z"/>
<path d="M10150 700 c-189 -253 -383 -461 -570 -609 -58 -46 -107 -85 -109
-87 -2 -2 10 -4 27 -4 24 0 54 19 139 89 146 119 300 281 466 489 120 150 138
177 135 204 -3 30 -7 27 -88 -82z"/>
<path d="M10139 469 c-107 -128 -276 -302 -389 -402 -73 -65 -74 -67 -44 -67
24 0 49 18 130 91 106 98 260 261 350 371 43 51 55 73 52 94 -3 26 -11 19 -99
-87z"/>
<path d="M10062 179 c-172 -177 -173 -179 -139 -179 31 0 47 13 176 150 125
131 142 153 139 179 -3 28 -11 21 -176 -150z"/>
<path d="M10172 65 l-62 -65 33 0 c47 0 100 55 95 99 l-3 31 -63 -65z"/>
</g>
</svg>
