<?xml version="1.0" standalone="no"?>
<!DOCTYPE svg PUBLIC "-//W3C//DTD SVG 20010904//EN"
 "http://www.w3.org/TR/2001/REC-SVG-20010904/DTD/svg10.dtd">
<svg version="1.0" xmlns="http://www.w3.org/2000/svg"
 width="850.000000pt" height="850.000000pt" viewBox="0 0 850.000000 850.000000"
 preserveAspectRatio="xMidYMid meet">
<metadata>
Created by potrace 1.14, written by Peter Selinger 2001-2017
</metadata>
<g transform="translate(0.000000,850.000000) scale(0.100000,-0.100000)"
fill="#000000" stroke="none">
<path d="M170 8493 c0 -5 7 -46 15 -93 34 -204 42 -450 20 -665 -2 -22 -7 -74
-10 -115 -12 -152 -70 -579 -81 -589 -2 -2 -4 70 -5 160 0 90 -2 171 -3 179
-2 8 -6 56 -10 105 -9 112 -61 426 -81 486 -15 44 -15 44 -10 -49 3 -51 11
-133 20 -181 45 -263 63 -536 50 -756 -9 -144 -7 -150 -41 97 -9 70 -20 125
-25 123 -4 -3 -8 -481 -8 -1063 l-2 -1057 39 -115 c21 -63 36 -124 34 -135 -2
-11 -17 -80 -33 -153 -17 -77 -31 -177 -34 -235 l-4 -102 23 95 c13 52 36 153
52 223 32 145 31 145 92 22 43 -86 56 -189 49 -403 -7 -245 -45 -405 -164
-686 -50 -118 -54 -133 -51 -195 l3 -66 48 90 c105 198 182 407 212 584 9 47
18 87 21 90 10 10 2 -274 -11 -384 -24 -204 -89 -439 -212 -765 -37 -97 -56
-165 -59 -205 -4 -50 -3 -56 7 -35 34 77 191 521 228 645 33 112 71 290 71
331 0 40 7 26 13 -26 9 -81 -13 -344 -49 -572 -102 -650 -105 -678 -109 -928
-4 -248 6 -380 45 -612 47 -275 99 -443 285 -913 24 -60 60 -155 80 -210 77
-210 159 -407 172 -412 8 -3 17 -3 20 1 3 3 -32 106 -80 228 -191 498 -222
578 -264 688 -66 172 -129 381 -158 526 -51 253 -54 293 -51 689 2 349 4 379
30 530 65 385 97 603 111 763 13 143 5 674 -11 752 -4 16 -2 21 4 15 10 -10
73 -208 112 -350 90 -325 113 -480 113 -770 1 -126 -2 -250 -6 -275 -3 -25
-13 -112 -22 -195 -9 -82 -22 -202 -30 -265 -32 -244 -38 -579 -15 -755 17
-124 81 -393 120 -505 5 -14 38 -119 75 -235 36 -116 78 -244 92 -285 49 -147
143 -504 143 -545 0 -11 11 -15 39 -15 l40 0 -10 32 c-12 45 -2 48 16 5 15
-36 17 -37 65 -37 28 0 50 1 50 3 0 1 -16 41 -36 87 -173 409 -304 766 -358
975 -28 112 -75 342 -81 406 -4 35 -9 75 -11 88 -2 14 -7 74 -11 135 -39 554
101 1172 427 1876 87 188 187 381 408 785 115 211 332 646 418 837 25 57 51
108 56 113 13 11 15 20 -52 -155 -95 -245 -179 -448 -387 -940 -347 -818 -527
-1382 -590 -1850 -25 -187 -25 -579 0 -775 18 -140 58 -356 82 -450 69 -264
232 -758 347 -1048 28 -72 49 -99 65 -84 3 4 -17 68 -45 144 -350 954 -432
1300 -432 1818 0 627 141 1127 675 2390 98 231 200 479 228 550 27 72 54 134
58 139 10 11 12 18 -76 -269 -37 -121 -72 -236 -77 -255 -5 -19 -38 -129 -73
-245 -238 -790 -391 -1391 -429 -1695 -10 -79 -16 -202 -16 -330 0 -382 56
-617 318 -1330 159 -433 248 -706 273 -840 12 -68 21 -86 37 -76 27 17 -74
392 -193 716 -76 209 -130 353 -152 410 -112 288 -205 635 -238 888 -25 188
-15 464 24 670 54 290 109 518 223 922 33 118 62 224 65 235 12 44 166 565
193 650 15 50 30 99 33 110 2 11 27 94 55 185 59 194 145 498 197 695 21 77
41 147 47 155 9 15 4 -291 -8 -417 -21 -242 -88 -566 -191 -928 -25 -88 -49
-173 -53 -190 -5 -16 -38 -138 -74 -270 -140 -504 -194 -771 -237 -1155 -17
-153 -17 -693 0 -820 37 -276 98 -564 176 -835 12 -44 39 -138 60 -210 20 -71
45 -157 55 -190 16 -55 47 -165 99 -350 11 -38 27 -101 36 -140 29 -131 32
-135 74 -135 l38 0 -8 43 c-20 112 -108 431 -230 842 -186 627 -228 860 -235
1310 -9 472 49 899 197 1465 22 85 50 191 61 235 11 44 25 85 30 90 7 7 8 3 4
-10 -10 -34 -35 -202 -61 -410 -14 -110 -27 -216 -30 -235 -10 -67 -13 -545
-4 -662 8 -111 30 -293 83 -693 34 -251 46 -366 91 -845 17 -174 24 -246 80
-750 47 -427 34 -380 104 -380 l59 0 6 48 c4 26 25 137 46 247 46 241 60 331
99 630 17 127 40 304 52 395 18 135 23 232 26 536 6 478 7 473 -157 1024 -165
557 -246 1015 -234 1325 5 132 20 251 23 190 7 -116 47 -353 86 -505 44 -176
89 -324 220 -720 109 -333 153 -474 199 -640 94 -343 133 -747 100 -1035 -30
-252 -83 -455 -240 -914 -111 -320 -194 -569 -194 -577 0 -3 17 -4 37 -2 l37
3 39 115 c21 63 74 216 117 340 176 509 225 697 274 1070 4 25 7 133 7 240 0
204 -1 209 -32 410 -41 273 -133 609 -304 1115 -66 196 -152 478 -190 630 -62
244 -78 363 -79 600 -1 277 12 400 67 630 27 111 75 276 82 284 3 2 5 -79 6
-180 1 -321 17 -510 65 -764 46 -238 81 -363 219 -775 319 -951 348 -1074 349
-1510 0 -327 -16 -476 -85 -795 -56 -254 -93 -380 -285 -970 -78 -242 -141
-441 -139 -443 19 -19 46 47 160 395 70 213 135 411 145 438 102 284 209 776
235 1080 9 111 6 483 -4 565 -44 336 -76 457 -306 1150 -84 256 -165 506 -179
555 -52 185 -105 470 -131 700 -10 92 -14 440 -6 480 7 30 9 34 10 14 2 -57
44 -281 77 -412 53 -213 169 -549 314 -912 238 -597 306 -782 365 -989 102
-365 130 -557 130 -896 0 -411 -54 -722 -202 -1155 -86 -252 -184 -485 -377
-899 -25 -54 -46 -102 -46 -107 0 -5 18 -9 40 -9 l40 0 61 127 c157 329 235
515 325 768 29 83 53 144 53 137 2 -47 -140 -492 -263 -821 -42 -112 -76 -206
-76 -207 0 -2 6 -4 14 -4 12 0 46 72 91 190 70 184 174 490 210 615 24 83 44
142 44 131 1 -31 -130 -543 -203 -794 -20 -68 -36 -128 -36 -133 0 -5 16 -9
35 -9 32 0 35 3 46 43 6 23 33 119 59 212 154 541 226 871 269 1243 27 226 27
737 0 942 -28 212 -62 376 -134 645 -71 261 -68 253 -177 630 -85 293 -158
591 -188 770 -61 369 -48 729 39 1066 51 193 148 445 230 594 20 38 21 38 16
10 -53 -310 -62 -411 -63 -685 0 -249 9 -359 48 -600 37 -230 65 -351 226
-960 180 -683 239 -1077 229 -1540 -3 -124 -7 -241 -9 -260 -3 -19 -7 -69 -10
-110 -5 -71 -23 -234 -46 -415 -49 -383 -191 -995 -332 -1423 -27 -84 -48
-156 -44 -159 19 -19 40 24 94 194 166 519 286 1079 347 1618 9 77 18 158 21
180 9 61 9 701 0 780 -48 456 -108 767 -246 1275 -236 866 -284 1263 -220
1825 11 97 49 317 56 324 2 2 4 -88 5 -200 0 -226 2 -262 25 -499 17 -179 68
-460 114 -635 43 -165 145 -487 284 -900 194 -577 255 -793 298 -1065 20 -129
23 -179 22 -450 0 -279 -2 -320 -27 -481 -83 -545 -205 -947 -534 -1752 -47
-114 -83 -210 -80 -213 11 -12 30 10 52 60 92 209 292 727 365 946 184 554
265 998 265 1455 0 195 -7 287 -34 476 -35 239 -68 355 -270 964 -268 811
-338 1057 -390 1390 -42 261 -50 371 -49 675 0 288 5 297 22 39 24 -369 124
-806 276 -1204 45 -116 138 -344 203 -495 329 -770 435 -1081 496 -1462 32
-194 36 -247 36 -468 0 -229 -6 -308 -35 -490 -59 -363 -185 -760 -365 -1160
-39 -86 -271 -546 -285 -565 -4 -5 -26 -45 -49 -87 l-42 -78 48 0 48 0 108
216 c60 118 111 214 113 212 2 -2 -27 -85 -65 -184 -79 -208 -89 -244 -68
-244 20 0 25 14 172 420 37 102 82 226 100 275 27 75 71 193 117 314 50 135
-47 -388 -166 -892 -14 -60 -26 -111 -26 -113 0 -2 9 -4 19 -4 20 0 41 77 125
460 47 212 46 179 -4 -251 -5 -47 -10 -113 -10 -147 0 -62 0 -62 29 -62 17 0
31 6 35 16 6 16 29 238 41 399 4 44 20 184 36 310 43 329 59 464 59 515 1 80
17 21 23 -85 8 -129 48 -333 93 -462 l34 -102 -15 -63 c-29 -122 -105 -490
-105 -509 0 -24 27 -25 34 -1 2 9 16 73 31 142 43 204 75 344 83 357 10 17 77
-116 97 -193 10 -38 15 -104 15 -191 l0 -133 95 0 c52 0 95 4 95 9 0 5 -13 48
-30 94 -16 47 -30 88 -30 92 0 3 33 -20 73 -53 39 -32 100 -78 134 -101 56
-37 68 -41 124 -41 l62 0 -45 48 c-40 43 -47 57 -57 118 -43 257 -40 534 8
859 23 157 96 482 166 740 63 234 156 617 186 770 108 551 113 1125 13 1675
-8 47 -17 94 -21 105 -3 13 -2 17 5 10 19 -19 112 -305 152 -468 73 -299 82
-381 86 -752 3 -303 1 -345 -21 -514 -38 -287 -75 -484 -171 -916 -112 -499
-167 -754 -200 -930 -26 -135 -28 -170 -28 -355 1 -184 3 -214 25 -295 18 -69
28 -91 43 -93 16 -3 18 0 11 25 -38 149 -55 296 -49 418 9 196 49 404 264
1355 62 275 118 592 150 842 10 80 15 756 6 803 -2 11 -7 47 -11 80 -10 84
-62 336 -86 418 -11 38 -19 71 -16 73 6 6 146 -358 203 -526 159 -478 223
-844 220 -1255 -1 -219 -3 -235 -29 -327 -44 -152 -135 -400 -232 -628 -261
-614 -337 -867 -359 -1197 l-6 -83 35 0 c31 0 35 3 36 28 0 15 2 50 5 77 30
338 84 516 346 1140 58 138 129 313 158 390 83 226 126 323 207 471 125 228
217 425 286 614 22 62 -13 -227 -49 -400 -60 -286 -159 -544 -454 -1185 -161
-350 -180 -394 -254 -590 -82 -216 -169 -525 -153 -542 18 -17 35 17 60 118
76 305 157 514 397 1034 88 190 156 344 255 575 126 295 204 601 240 947 8 74
17 138 21 142 3 3 3 -28 -1 -69 -23 -230 -26 -908 -5 -1073 7 -61 7 -99 0
-126 -22 -83 -382 -824 -645 -1328 l-116 -223 48 0 48 0 59 108 c32 59 127
244 210 412 132 266 171 348 244 508 8 18 17 31 19 28 6 -6 -184 -485 -346
-870 -39 -93 -71 -173 -71 -178 0 -4 6 -8 14 -8 14 0 44 56 106 205 118 281
145 346 186 453 44 112 82 185 49 92 -9 -25 -25 -76 -36 -115 -10 -38 -35
-122 -54 -185 -69 -227 -125 -422 -125 -436 0 -20 17 -17 29 3 5 10 39 117 75
238 37 121 77 256 91 300 41 137 131 453 170 600 44 166 65 235 72 235 5 0 -5
-362 -12 -430 -17 -148 -29 -229 -51 -345 -25 -127 -109 -474 -137 -568 l-15
-47 84 0 84 0 1 30 c1 17 3 35 4 40 1 6 3 29 4 52 1 55 10 44 16 -23 10 -96
11 -99 51 -99 35 0 36 1 30 33 -3 17 -8 109 -11 202 -6 196 11 391 51 585 26
130 81 328 96 344 4 6 8 -57 9 -140 0 -197 9 -359 29 -547 9 -92 58 -354 81
-439 9 -34 26 -48 41 -33 3 3 -8 61 -23 128 -28 119 -72 396 -84 527 -10 111
-15 362 -7 425 l7 60 24 -140 c53 -316 139 -612 286 -987 6 -16 21 -18 107
-18 l101 0 -6 32 c-3 18 -20 114 -38 213 -30 167 -32 197 -33 415 0 237 2 271
30 435 41 240 159 588 268 790 26 48 27 49 21 15 -56 -343 -59 -377 -59 -690
0 -282 2 -319 27 -485 45 -289 140 -713 164 -722 27 -10 27 9 -1 120 -75 303
-119 528 -140 722 -15 145 -18 550 -5 690 12 128 50 358 60 370 5 5 9 -60 10
-155 1 -91 3 -190 5 -220 11 -176 15 -228 29 -350 31 -286 112 -625 248 -1040
31 -95 49 -136 60 -138 23 -5 22 6 -14 117 -168 522 -238 832 -278 1236 -13
129 -14 725 -1 725 6 0 10 -56 11 -152 0 -84 2 -160 3 -168 2 -8 6 -52 10 -97
35 -441 186 -958 459 -1578 36 -80 36 -80 76 -83 47 -4 49 -18 -14 128 -277
643 -404 1086 -454 1590 -15 153 -13 452 3 524 11 45 73 180 195 423 98 197
200 405 226 463 168 374 261 695 300 1035 9 71 17 146 20 165 9 74 24 229 31
315 3 50 24 227 45 395 22 168 42 346 46 395 7 116 22 145 23 45 0 -77 33
-337 44 -347 3 -4 5 272 5 613 -1 340 -5 601 -9 579 -5 -22 -18 -101 -29 -176
-76 -502 -292 -1081 -647 -1725 -254 -462 -487 -927 -679 -1354 -61 -134 -71
-152 -59 -105 12 50 149 463 189 570 69 186 293 741 385 955 74 172 112 270
233 600 150 406 248 795 299 1180 29 221 31 617 5 825 -37 292 -65 401 -252
960 -139 418 -149 445 -171 445 -9 0 -13 -6 -11 -12 9 -23 204 -609 247 -743
54 -168 103 -367 136 -552 24 -133 27 -177 30 -438 4 -336 -16 -542 -77 -825
-12 -52 -27 -122 -34 -156 -34 -157 -152 -532 -249 -794 -73 -197 -174 -450
-301 -750 -169 -399 -250 -608 -351 -899 -35 -102 -66 -187 -69 -189 -12 -12
-3 55 20 168 46 215 84 340 299 970 222 651 374 1367 424 2000 15 196 7 719
-13 888 -46 372 -107 665 -239 1155 -26 92 -46 169 -46 172 0 3 -9 5 -20 5
-11 0 -20 -2 -20 -5 0 -3 18 -70 39 -148 161 -587 245 -1001 268 -1332 15
-204 8 -644 -12 -820 -56 -480 -101 -750 -187 -1110 -68 -290 -129 -491 -308
-1025 -186 -557 -219 -681 -256 -970 l-13 -105 4 135 c6 156 9 189 36 365 20
130 71 367 110 513 44 165 93 344 139 507 185 650 247 957 287 1420 14 162 8
548 -11 710 -31 267 -90 548 -178 850 -22 77 -44 154 -48 170 -4 17 -21 77
-38 135 -73 246 -169 599 -187 683 l-5 27 -95 0 c-51 0 -96 -4 -99 -8 -3 -5
53 -154 124 -333 287 -725 352 -932 411 -1315 24 -157 35 -580 19 -714 -41
-331 -78 -496 -182 -820 -97 -301 -205 -559 -460 -1090 -146 -304 -245 -515
-300 -640 -33 -74 -64 -139 -69 -145 -7 -7 -8 -5 -5 5 3 8 35 119 71 245 72
251 139 472 185 605 87 256 306 937 344 1073 70 246 120 494 146 732 12 107
15 547 5 630 -18 142 -78 442 -111 550 -8 28 -91 282 -184 565 -93 283 -179
548 -190 588 -17 58 -25 72 -41 72 -16 0 -18 -5 -13 -27 14 -60 117 -380 194
-603 181 -524 246 -754 295 -1050 20 -119 28 -482 15 -645 -28 -333 -124 -753
-284 -1235 -256 -775 -346 -1059 -456 -1440 l-30 -105 5 105 c14 258 83 558
226 980 44 129 116 339 159 467 196 577 246 998 174 1473 -41 273 -96 475
-334 1210 -141 438 -193 628 -225 833 -5 33 -9 37 -36 37 -17 0 -32 -6 -35
-15 -7 -18 18 -160 57 -322 39 -162 108 -386 237 -778 133 -402 189 -592 231
-790 50 -233 67 -403 64 -640 -3 -319 -57 -575 -219 -1040 -80 -229 -237 -703
-254 -763 -6 -24 -13 -42 -15 -40 -7 6 32 257 64 424 55 276 98 574 150 1034
11 96 23 195 26 220 10 83 13 564 5 667 -12 140 -53 327 -111 518 -83 271
-124 422 -179 653 -69 297 -107 579 -104 785 l2 88 -82 -3 -81 -3 -22 -65
c-64 -192 -212 -766 -257 -995 -40 -206 -72 -443 -83 -608 -12 -172 -8 -600 6
-702 51 -366 99 -584 208 -955 25 -85 49 -168 53 -185 4 -16 31 -109 58 -205
183 -634 243 -974 228 -1300 -10 -202 -14 -235 -48 -404 -51 -252 -125 -462
-260 -731 -63 -128 -103 -193 -84 -140 54 149 93 271 117 370 31 126 73 409
84 560 4 50 8 101 11 115 5 33 5 618 0 650 -3 14 -7 61 -11 105 -20 248 -120
657 -229 941 -8 21 -31 82 -50 134 -19 52 -58 158 -86 235 -218 587 -277 855
-274 1235 2 248 30 423 134 845 79 320 175 671 275 1003 16 51 25 95 22 99
-14 13 -38 -22 -53 -76 -8 -31 -24 -83 -34 -116 -10 -33 -30 -103 -45 -155
-15 -52 -40 -138 -55 -190 -15 -52 -39 -140 -54 -195 -14 -55 -39 -149 -55
-210 -37 -139 -114 -487 -143 -642 -17 -96 -21 -165 -24 -373 -2 -229 0 -268
20 -385 46 -262 128 -542 256 -875 89 -231 209 -577 264 -760 31 -102 71 -294
93 -445 18 -124 26 -609 13 -760 -4 -49 -11 -130 -14 -180 -18 -241 -88 -613
-140 -750 -14 -38 -15 -34 -8 85 9 161 8 407 -1 540 -24 347 -80 605 -222
1033 -83 251 -100 301 -170 492 -73 199 -192 553 -232 690 -106 362 -143 598
-148 950 -6 381 27 612 152 1055 59 213 220 665 321 905 135 320 148 352 139
362 -20 20 -54 -52 -204 -427 -242 -610 -363 -1021 -425 -1437 -16 -114 -21
-198 -22 -368 -2 -543 67 -869 356 -1674 138 -386 160 -448 209 -596 97 -293
142 -469 178 -700 12 -71 23 -142 26 -157 27 -156 24 -668 -5 -788 -7 -30 -8
-26 -10 35 -1 39 -3 81 -5 95 -2 14 -9 77 -15 140 -37 394 -153 811 -375 1345
-20 50 -47 115 -60 145 -13 30 -37 89 -55 130 -18 41 -42 100 -55 130 -13 30
-48 116 -80 190 -199 474 -319 889 -359 1242 -25 221 -14 605 23 818 66 375
186 748 368 1150 62 135 189 390 253 505 61 110 110 206 110 215 0 6 -16 10
-34 10 -46 0 -63 -23 -165 -227 -45 -90 -84 -163 -86 -163 -6 0 9 233 21 334
6 47 4 56 -9 56 -10 0 -20 -14 -26 -37 -9 -38 -21 -172 -21 -246 0 -45 -15
-42 -24 5 -6 30 -36 253 -36 271 0 4 -16 7 -35 7 l-35 0 6 -57 c3 -32 7 -68
10 -80 8 -43 -12 -23 -25 25 -20 68 -43 112 -58 112 -20 0 -15 -27 17 -109 16
-41 28 -76 26 -78 -2 -2 -42 40 -91 92 l-87 95 -59 0 -60 0 38 -32 c20 -18 50
-46 66 -63 l28 -30 -5 -130 c-3 -71 -8 -143 -10 -160 -3 -16 -10 -82 -16 -145
-6 -63 -13 -131 -15 -150 -2 -19 -7 -84 -10 -145 -3 -60 -8 -121 -10 -135 -2
-14 -7 -61 -10 -105 -3 -44 -8 -100 -10 -125 -3 -25 -12 -117 -20 -205 -18
-179 -26 -238 -32 -231 -2 2 1 48 7 102 6 54 11 226 11 382 0 260 -2 295 -26
430 -26 150 -71 339 -104 447 -11 33 -34 107 -52 165 -18 58 -37 111 -42 118
-6 8 -39 12 -99 12 -62 0 -90 -4 -92 -12 -2 -7 -9 -56 -15 -108 -28 -248 -133
-531 -323 -874 -332 -598 -429 -882 -429 -1265 -1 -220 24 -385 92 -604 38
-124 86 -230 303 -657 234 -465 284 -587 331 -823 25 -122 26 -142 24 -430 -1
-248 -6 -334 -24 -482 -37 -292 -58 -436 -61 -432 -2 2 -6 59 -9 127 -21 471
-86 823 -240 1285 -52 157 -67 200 -140 400 -20 55 -47 129 -60 165 -13 36
-40 110 -60 165 -122 332 -199 614 -244 890 -6 33 -9 186 -7 340 3 235 7 299
25 400 50 275 159 617 321 1015 101 246 162 428 226 675 29 116 54 213 54 218
0 4 -8 7 -18 7 -15 0 -25 -26 -57 -162 -56 -237 -105 -380 -290 -853 -140
-358 -233 -668 -281 -940 -24 -132 -27 -177 -27 -375 -1 -187 3 -248 21 -359
28 -163 66 -319 126 -511 44 -144 61 -193 211 -610 293 -816 390 -1233 401
-1715 4 -178 -2 -403 -11 -393 -2 2 -6 44 -10 93 -19 248 -132 700 -250 1000
-71 179 -150 373 -210 515 -196 457 -259 618 -337 855 -97 296 -160 575 -193
855 -3 25 -8 146 -11 270 -10 338 -22 296 225 789 324 649 435 959 496 1386
22 151 21 155 -18 155 l-32 0 -28 -177 c-58 -360 -133 -606 -292 -948 -119
-256 -372 -746 -523 -1010 -186 -327 -297 -604 -362 -910 -36 -165 -38 -128
-4 59 46 252 123 521 211 736 75 183 148 350 198 455 395 825 515 1120 664
1629 46 156 48 169 24 164 -13 -2 -26 -34 -51 -118 -144 -502 -266 -808 -622
-1555 -294 -618 -418 -990 -481 -1450 -46 -338 -21 -901 48 -1082 4 -11 2 -14
-5 -9 -6 4 -18 28 -26 54 -8 26 -33 101 -56 167 -104 300 -124 432 -117 755 5
212 8 249 36 385 41 196 70 304 138 505 76 228 222 592 363 910 16 36 52 121
80 190 29 69 72 172 97 230 133 312 406 1011 397 1019 -15 15 -41 -26 -81
-129 -25 -63 -70 -178 -100 -255 -88 -225 -188 -472 -236 -585 -25 -58 -89
-208 -142 -335 -54 -126 -118 -277 -142 -335 -235 -549 -347 -885 -423 -1275
-27 -136 -39 -479 -21 -594 13 -80 8 -107 -7 -45 -56 228 -81 394 -89 584 l-6
156 42 89 c113 239 206 547 261 864 41 233 69 309 260 706 91 190 323 653 461
921 l120 234 -48 0 -48 0 -142 -272 c-171 -328 -460 -934 -497 -1042 -4 -10
-9 -17 -11 -14 -7 6 89 309 169 533 36 103 135 358 206 530 87 213 103 256 96
262 -10 10 -32 -15 -49 -54 -110 -253 -285 -706 -362 -941 -26 -78 -49 -141
-52 -139 -7 7 26 182 63 337 27 110 199 652 250 783 4 12 1 17 -10 17 -22 0
-39 -42 -140 -343 -120 -358 -180 -599 -206 -822 -8 -71 -8 -63 -5 60 8 254
88 686 195 1045 15 53 13 60 -20 60 -38 0 -37 2 -106 -270 -100 -397 -139
-668 -143 -993 -4 -302 -14 -400 -71 -692 -57 -287 -132 -515 -270 -810 -45
-97 -126 -283 -134 -309 -4 -10 -8 -17 -10 -15 -7 7 14 166 126 944 27 193 54
382 59 420 36 276 144 826 204 1040 40 141 170 538 203 622 14 35 18 54 11 59
-6 3 -15 2 -19 -2 -19 -20 -122 -314 -193 -550 -128 -425 -184 -723 -322
-1719 -84 -603 -103 -724 -105 -680 -2 22 -4 49 -5 60 -1 11 -6 72 -10 135 -4
63 -8 117 -10 120 -2 3 -7 64 -11 135 -16 241 -10 827 11 1030 2 22 7 81 10
130 14 219 37 293 203 655 77 169 101 221 208 441 63 129 114 239 114 243 0 4
-19 6 -41 4 l-42 -3 -81 -170 c-121 -254 -187 -396 -246 -532 -30 -67 -56
-120 -58 -118 -6 5 93 342 224 765 17 56 17 60 0 60 -14 0 -27 -25 -50 -100
-7 -25 -45 -146 -84 -270 -38 -124 -84 -279 -102 -345 -31 -114 -56 -175 -45
-110 2 17 9 85 15 152 14 152 83 490 134 651 7 22 5 23 -30 20 l-38 -3 -21
-72 c-11 -39 -24 -75 -29 -80 -5 -4 -6 1 -3 12 3 11 9 48 12 83 l7 62 -56 0
-56 0 -1 -42 -1 -43 -10 43 c-9 41 -10 42 -50 42 -37 0 -40 -2 -34 -22 4 -13
13 -61 21 -108 9 -47 22 -119 30 -161 8 -42 17 -123 20 -180 3 -57 8 -132 10
-166 9 -107 -14 -368 -46 -525 -54 -267 -130 -481 -265 -748 -73 -145 -106
-194 -73 -110 58 147 121 380 149 545 48 292 55 407 54 870 -1 293 -4 358 -22
468 -11 71 -23 131 -25 134 -20 19 -20 -24 -4 -149 21 -155 29 -590 15 -783
-29 -384 -57 -580 -113 -785 -18 -69 -37 -135 -42 -147 -4 -12 -8 142 -9 345
-1 385 -7 469 -50 697 -33 172 -72 320 -144 547 -72 224 -94 278 -115 278 -8
0 -15 -3 -15 -7 0 -3 29 -94 64 -202 113 -343 161 -529 200 -779 31 -195 50
-441 42 -547 -3 -44 -9 -136 -13 -205 -7 -139 -20 -210 -23 -125 -1 28 -3 61
-5 75 -2 14 -9 77 -15 140 -31 333 -121 707 -255 1065 -37 100 -129 326 -195
483 l-44 102 -52 0 c-50 0 -52 -1 -45 -22 4 -13 25 -81 48 -153 55 -170 96
-346 125 -525 21 -131 23 -178 23 -485 0 -301 -3 -359 -23 -505 -42 -295 -87
-523 -227 -1145 -155 -685 -170 -776 -169 -1025 0 -186 1 -201 31 -320 28
-108 48 -172 78 -255 4 -11 -16 7 -46 40 -29 33 -92 101 -140 150 l-87 90 -23
140 c-20 127 -21 163 -16 380 7 263 26 414 91 705 32 142 114 471 166 665 120
446 176 755 205 1130 7 90 8 566 1 605 -2 14 -7 61 -11 105 -8 100 -21 203
-42 328 l-16 97 -34 0 c-39 0 -39 7 -14 -152 38 -242 46 -367 45 -683 0 -547
-43 -812 -272 -1705 -115 -448 -160 -668 -178 -869 -4 -47 -8 -94 -9 -105 -1
-12 -3 -115 -4 -231 -2 -233 -2 -233 -57 -77 -51 142 -95 313 -110 427 -12 93
-12 410 0 475 2 14 7 54 11 90 19 185 106 568 270 1185 80 303 148 618 165
769 6 50 13 107 16 126 3 19 5 126 5 236 0 279 -39 514 -86 514 -11 0 -15 -6
-11 -17 3 -10 17 -67 32 -128 23 -97 26 -135 29 -330 6 -361 -38 -622 -215
-1275 -127 -472 -181 -701 -224 -955 -36 -220 -37 -224 -37 -421 0 -312 59
-579 195 -888 14 -33 25 -61 22 -63 -14 -15 -166 337 -229 532 -89 277 -115
430 -115 680 0 288 27 456 153 970 61 247 118 528 129 640 3 28 8 75 11 105 7
71 7 433 0 569 -11 204 -15 287 -21 426 -6 138 -12 164 -33 151 -10 -6 -7
-170 5 -321 3 -33 7 -238 10 -455 6 -511 4 -528 -147 -1145 -87 -357 -105
-452 -139 -700 -5 -38 -8 -160 -6 -270 2 -181 6 -215 35 -355 39 -187 116
-421 209 -638 64 -150 67 -160 42 -142 -41 29 -148 152 -203 233 -101 148
-172 324 -209 520 -33 173 -32 583 3 857 14 114 82 534 119 745 46 254 97 589
105 680 4 44 9 91 12 105 3 14 6 142 8 285 4 238 -7 425 -29 528 -3 15 -8 38
-11 52 -5 21 -11 25 -40 25 -19 0 -35 -3 -35 -7z m4474 -168 c64 -197 137
-489 162 -655 19 -123 26 -504 12 -632 -5 -36 -14 -124 -22 -195 -8 -70 -24
-202 -36 -293 -19 -146 -21 -198 -17 -445 7 -397 4 -384 283 -1257 113 -354
170 -607 211 -933 14 -111 18 -214 17 -495 0 -376 -7 -467 -60 -790 -40 -247
-54 -312 -220 -959 -147 -573 -183 -808 -181 -1163 1 -124 1 -225 0 -224 -1 1
-23 55 -48 119 -199 517 -178 936 100 1962 113 416 203 818 230 1025 20 149
19 538 -1 663 -14 85 -54 219 -107 357 -44 115 -209 543 -227 590 -9 25 -41
108 -69 185 -29 77 -58 156 -65 175 -22 56 -74 256 -95 365 -39 203 -51 318
-56 575 -6 265 13 455 100 980 22 138 38 250 50 370 14 129 5 703 -11 780 -12
58 16 -2 50 -105z m-100 -155 c-21 -364 -58 -508 -312 -1207 -96 -265 -133
-392 -167 -578 -22 -121 -26 -166 -25 -330 2 -199 11 -273 56 -444 52 -199
134 -380 377 -833 152 -282 198 -383 232 -509 42 -154 54 -271 53 -539 -1
-327 -26 -555 -113 -1000 -32 -166 -46 -230 -129 -585 -156 -675 -140 -1042
70 -1600 29 -77 72 -186 97 -242 45 -102 45 -103 17 -83 -15 11 -53 48 -85 82
-170 187 -274 403 -327 677 -19 98 -22 151 -23 346 0 358 21 535 150 1270 100
564 122 759 123 1095 1 541 -65 765 -420 1435 -154 291 -222 442 -265 590 -72
250 -90 509 -53 765 40 278 120 486 342 885 257 463 347 682 384 930 l8 50 7
-45 c5 -25 6 -83 3 -130z m613 31 c49 -64 133 -211 133 -232 0 -8 -31 -82 -69
-164 -93 -205 -177 -423 -237 -620 -16 -49 -32 -94 -37 -100 -6 -6 -7 -2 -4
10 3 11 9 56 12 100 10 140 20 254 30 365 2 25 7 81 10 125 3 44 8 96 10 115
2 19 7 80 11 135 3 55 8 102 9 105 2 3 6 46 10 95 4 50 9 97 11 105 1 8 3 33
3 55 l1 40 33 -39 c17 -22 51 -64 74 -95z m1028 -47 c-8 -87 -12 -221 -10
-359 3 -267 17 -360 115 -801 128 -570 143 -725 114 -1164 -2 -41 -7 -93 -9
-115 -2 -22 -7 -80 -11 -130 -3 -49 -8 -97 -9 -105 -11 -60 -20 -345 -19 -608
1 -172 0 -311 -2 -309 -4 4 -78 671 -89 797 -5 71 -9 103 -20 203 -2 23 -11
114 -20 202 -8 88 -17 185 -20 215 -8 77 -63 467 -81 572 -54 318 -58 855 -9
1218 46 338 76 533 81 528 2 -2 -3 -67 -11 -144z m101 -12 c29 -283 75 -491
214 -981 124 -436 148 -542 168 -751 9 -98 9 -380 0 -495 -23 -273 -27 -305
-104 -880 -14 -104 -46 -302 -72 -440 -42 -225 -48 -245 -53 -200 -20 163 -16
958 5 1070 2 11 7 72 11 135 4 63 9 126 11 140 10 57 12 622 4 706 -13 120
-40 255 -90 444 -99 376 -130 582 -135 920 -3 191 11 478 23 466 2 -3 10 -63
18 -134z m-5043 -92 c143 -363 248 -736 293 -1035 45 -305 57 -615 29 -762
-30 -157 -125 -423 -294 -823 -172 -405 -263 -682 -297 -905 -7 -49 -14 -169
-15 -265 l-1 -175 -38 119 c-21 66 -46 160 -56 210 -21 110 -24 344 -5 461 23
144 101 520 171 825 126 542 194 903 225 1185 22 195 22 731 0 876 -24 162
-71 389 -101 486 -17 56 33 -55 89 -197z m4887 75 c-11 -66 -33 -221 -49 -345
-28 -219 -29 -236 -27 -605 2 -332 5 -400 25 -535 50 -347 81 -583 96 -735 9
-88 18 -171 20 -185 2 -14 9 -83 15 -155 5 -71 12 -146 15 -165 2 -19 7 -66
10 -105 3 -38 8 -88 10 -110 12 -107 27 -246 46 -410 11 -99 25 -220 30 -269
5 -49 16 -146 24 -215 8 -69 15 -132 15 -140 0 -33 -11 2 -30 94 -26 128 -65
289 -96 395 -65 229 -134 466 -188 647 -145 491 -191 788 -191 1233 0 151 10
382 20 455 2 17 6 59 10 95 17 169 79 494 147 760 90 357 108 423 113 418 2
-2 -5 -58 -15 -123z m-1554 -297 c-4 -95 -9 -193 -12 -218 -11 -93 -36 -270
-60 -420 -85 -534 -83 -514 -80 -880 3 -313 5 -345 30 -485 50 -274 110 -483
221 -763 30 -76 95 -245 145 -377 51 -132 110 -287 132 -345 90 -235 113 -380
105 -680 -7 -301 -46 -521 -182 -1035 -70 -262 -95 -361 -149 -565 -47 -182
-101 -452 -127 -640 -30 -222 -24 -499 15 -685 30 -141 106 -379 155 -489 17
-38 29 -71 27 -73 -5 -5 -74 136 -118 241 -170 410 -226 654 -226 976 0 256
22 405 123 835 80 340 101 437 129 575 29 143 72 416 80 505 3 33 8 88 12 123
11 118 10 396 -2 537 -14 162 -49 324 -97 445 -34 85 -141 302 -221 448 -121
219 -239 465 -299 622 -117 307 -134 651 -51 1014 40 176 68 261 239 731 110
302 181 555 200 718 13 107 18 57 11 -115z m-2497 -878 c-11 -127 -15 -899 -5
-990 4 -36 9 -78 12 -94 7 -40 -18 -107 -103 -284 -40 -85 -73 -156 -73 -158
0 -6 -369 -745 -435 -869 -56 -108 -220 -426 -304 -592 -29 -57 -54 -103 -56
-103 -4 0 -2 55 11 235 7 103 28 226 60 345 70 262 154 474 424 1060 324 705
403 951 450 1405 13 118 19 160 24 154 2 -2 0 -51 -5 -109z m-54 -37 c-10
-104 -42 -299 -65 -399 -62 -265 -145 -478 -430 -1099 -78 -170 -148 -326
-157 -345 -8 -19 -21 -50 -29 -68 -147 -342 -232 -646 -264 -956 -6 -55 -12
-101 -14 -103 -5 -5 -24 100 -36 202 -23 186 17 486 96 730 33 101 158 417
234 595 79 184 171 415 210 530 40 117 97 237 197 417 106 192 217 434 248
541 12 42 17 22 10 -45z m6270 -1730 c-68 -391 -150 -773 -209 -978 -13 -44
-38 -132 -56 -195 -101 -354 -254 -733 -540 -1335 -292 -616 -394 -885 -479
-1265 -56 -250 -76 -433 -76 -695 0 -245 23 -482 60 -625 8 -30 12 -56 10 -59
-3 -2 -7 2 -9 10 -3 8 -19 52 -37 99 -50 138 -108 328 -130 430 -17 77 -22
139 -24 330 -4 263 3 345 46 540 56 256 128 486 244 779 53 136 227 548 370
881 20 47 43 101 50 120 7 19 34 85 60 145 93 222 279 697 384 980 58 160 135
370 191 525 27 74 63 173 80 220 18 47 41 111 52 143 11 32 23 56 25 53 3 -3
-2 -49 -12 -103z m-920 25 c-78 -271 -126 -417 -240 -723 -253 -680 -309 -857
-394 -1245 -49 -225 -115 -624 -176 -1060 -14 -102 -39 -279 -55 -395 -17
-115 -39 -275 -49 -354 -11 -79 -22 -146 -25 -149 -4 -3 -6 28 -7 69 0 41 -2
81 -3 89 -2 8 -6 53 -10 100 -4 47 -9 99 -12 115 -17 112 -23 293 -19 570 2
176 6 336 9 355 2 19 7 87 11 150 3 63 8 129 10 145 2 17 7 66 10 110 13 152
51 260 218 625 47 102 140 298 207 435 283 579 413 874 496 1123 39 118 60
147 29 40z m-30 -304 c-36 -143 -72 -279 -79 -304 -97 -322 -200 -723 -247
-963 -49 -252 -65 -410 -68 -655 -1 -95 -4 -207 -7 -250 -9 -165 -52 -416
-110 -644 -62 -242 -105 -353 -308 -791 -20 -43 -39 -89 -42 -103 -9 -36 -27
-43 -20 -8 3 16 8 49 11 74 23 186 167 1204 206 1450 81 514 191 967 319 1310
15 41 53 143 83 225 30 83 79 213 107 290 64 171 160 460 192 575 12 46 24 77
26 68 2 -8 -27 -132 -63 -274z m936 -95 c-10 -75 -31 -277 -46 -429 -53 -530
-119 -789 -310 -1215 -80 -179 -353 -715 -465 -915 -163 -291 -200 -361 -252
-474 -72 -159 -154 -415 -184 -574 -26 -136 -48 -217 -37 -137 39 306 112 595
224 885 48 126 58 151 131 315 68 153 78 174 181 390 158 332 313 684 379 860
135 358 283 880 354 1242 15 79 29 141 31 139 2 -2 -1 -41 -6 -87z m-281 -240
c-21 -57 -57 -153 -78 -214 -144 -394 -357 -926 -554 -1385 -84 -195 -210
-493 -223 -530 -8 -19 -23 -57 -35 -85 -42 -96 -133 -341 -181 -486 -72 -219
-118 -411 -154 -649 -15 -98 -19 -387 -7 -473 14 -92 -4 -52 -32 75 -33 150
-56 306 -63 438 -6 124 6 181 72 335 103 243 174 497 241 864 25 142 62 245
174 487 99 211 415 846 541 1084 33 63 121 236 196 383 74 148 137 267 139
265 2 -2 -14 -51 -36 -109z m-5256 -9 c17 -113 19 -126 11 -118 -3 2 -12 52
-20 109 -16 115 -17 124 -11 118 3 -3 12 -51 20 -109z m-2168 -283 c45 -31
105 -78 134 -104 l53 -47 -7 -125 c-4 -69 -9 -141 -11 -161 -24 -205 -30 -271
-40 -425 -3 -49 -8 -110 -10 -135 -3 -25 -16 -170 -30 -323 -27 -294 -42 -417
-52 -426 -3 -3 -3 14 0 39 19 139 29 321 29 525 1 204 -2 248 -26 390 -41 244
-95 447 -206 772 -33 98 -60 181 -60 186 0 5 33 -18 73 -51 39 -32 108 -84
153 -115z m363 -377 c31 -47 67 -109 80 -137 l24 -52 -86 -188 c-89 -196 -158
-375 -222 -576 -21 -64 -40 -115 -42 -113 -2 2 0 39 6 82 6 44 13 124 16 179
4 55 8 107 10 115 2 8 7 62 10 120 4 58 8 112 10 120 2 8 6 58 9 110 4 52 11
131 16 175 5 44 12 134 15 200 4 66 8 126 11 133 5 18 74 -62 143 -168z m1086
65 c12 -124 17 -163 35 -275 35 -215 83 -418 177 -740 161 -552 186 -689 186
-1015 0 -237 -14 -417 -58 -760 -76 -580 -79 -596 -153 -980 -16 -83 -17 -87
-22 -50 -21 157 -18 975 4 1091 2 11 7 66 11 124 4 58 9 119 11 135 9 64 12
594 4 675 -15 143 -39 266 -95 485 -113 447 -136 619 -130 995 2 146 6 274 9
285 2 11 5 38 5 59 1 55 8 42 16 -29z m-94 -81 c-5 -49 -8 -199 -6 -334 2
-208 7 -267 28 -390 26 -144 59 -305 96 -463 118 -496 138 -762 96 -1232 -17
-185 -25 -284 -31 -380 -4 -60 -8 -121 -9 -135 -1 -14 -3 -155 -5 -315 l-2
-290 -23 195 c-22 185 -49 439 -60 560 -5 55 -31 324 -41 410 -41 389 -64 572
-94 750 -61 358 -70 708 -30 1135 8 81 70 543 81 604 1 3 3 -1 6 -10 2 -8 -1
-55 -6 -105z m5066 -3621 c-3 -10 -5 -2 -5 17 0 19 2 27 5 18 2 -10 2 -26 0
-35z"/>
<path d="M8000 8489 c0 -6 11 -37 25 -68 38 -88 134 -320 162 -391 62 -159 78
-205 129 -359 65 -198 116 -402 143 -571 40 -251 39 -251 37 0 -2 207 -5 245
-25 320 -54 206 -167 523 -303 855 -96 232 -92 225 -133 225 -19 0 -35 -5 -35
-11z"/>
<path d="M8340 8482 c0 -10 8 -43 19 -73 17 -50 49 -163 115 -404 l25 -90 0
67 c1 106 -110 510 -142 516 -11 2 -17 -3 -17 -16z"/>
<path d="M8490 4426 c0 -2 -12 -59 -26 -127 -70 -338 -133 -544 -294 -954
-127 -325 -171 -449 -230 -647 -164 -553 -165 -1011 -4 -1558 44 -147 124
-379 294 -850 23 -63 51 -142 62 -175 28 -82 46 -115 62 -115 17 0 6 38 -94
310 -259 706 -321 907 -374 1206 -23 129 -25 158 -22 409 3 221 7 292 25 394
51 294 130 544 346 1091 111 281 164 443 226 696 29 119 51 324 35 324 -3 0
-6 -2 -6 -4z"/>
<path d="M8458 3380 c-123 -220 -311 -588 -360 -710 -67 -164 -112 -324 -128
-460 -4 -41 -7 -165 -5 -275 2 -172 6 -217 29 -320 64 -294 115 -415 437
-1032 l64 -122 3 85 c2 70 -1 91 -16 117 -64 108 -276 526 -323 640 -85 204
-130 456 -125 697 6 273 58 496 173 754 47 106 66 142 205 392 l89 162 -3 68
-3 69 -37 -65z"/>
<path d="M8473 2685 c-77 -209 -128 -390 -159 -560 -28 -156 -26 -503 5 -645
34 -160 107 -376 161 -479 l19 -36 1 41 c0 27 -17 85 -50 167 -55 141 -97 291
-110 399 -5 40 -7 168 -5 283 3 186 7 226 34 350 16 77 53 212 81 299 35 110
50 173 48 200 l-3 41 -22 -60z"/>
<path d="M0 993 c0 -45 46 -144 186 -398 161 -293 224 -435 239 -538 8 -49 20
-66 37 -49 14 14 -23 160 -67 262 -34 79 -106 220 -185 365 -19 33 -73 136
-122 230 -83 160 -88 168 -88 128z"/>
<path d="M0 525 c0 -66 5 -87 47 -187 26 -62 63 -162 84 -223 36 -106 38 -110
68 -113 38 -4 39 4 10 107 -37 132 -186 491 -203 491 -3 0 -6 -34 -6 -75z"/>
</g>
</svg>
