<?xml version="1.0" encoding="UTF-8" standalone="no"?>
<svg
   xmlns:dc="http://purl.org/dc/elements/1.1/"
   xmlns:cc="http://creativecommons.org/ns#"
   xmlns:rdf="http://www.w3.org/1999/02/22-rdf-syntax-ns#"
   xmlns:svg="http://www.w3.org/2000/svg"
   xmlns="http://www.w3.org/2000/svg"
   xmlns:sodipodi="http://sodipodi.sourceforge.net/DTD/sodipodi-0.dtd"
   xmlns:inkscape="http://www.inkscape.org/namespaces/inkscape"
   version="1.0"
   width="1024.000000pt"
   height="1024.000000pt"
   viewBox="0 0 1024.000000 1024.000000"
   preserveAspectRatio="xMidYMid meet"
   id="svg2"
   inkscape:version="0.91 r13725"
   sodipodi:docname="UNADJUSTEDNONRAW_thumb_97d.svg">
  <defs
     id="defs326" />
  <sodipodi:namedview
     pagecolor="#ffffff"
     bordercolor="#666666"
     borderopacity="1"
     objecttolerance="10"
     gridtolerance="10"
     guidetolerance="10"
     inkscape:pageopacity="0"
     inkscape:pageshadow="2"
     inkscape:window-width="1440"
     inkscape:window-height="816"
     id="namedview324"
     showgrid="false"
     inkscape:zoom="0.4609375"
     inkscape:cx="901.32378"
     inkscape:cy="640"
     inkscape:window-x="0"
     inkscape:window-y="1"
     inkscape:window-maximized="1"
     inkscape:current-layer="svg2" />
  <metadata
     id="metadata4">
Created by potrace 1.14, written by Peter Selinger 2001-2017
<rdf:RDF>
  <cc:Work
     rdf:about="">
    <dc:format>image/svg+xml</dc:format>
    <dc:type
       rdf:resource="http://purl.org/dc/dcmitype/StillImage" />
  </cc:Work>
</rdf:RDF>
</metadata>
  <g
     transform="translate(0.000000,1024.000000) scale(0.100000,-0.100000)"
     fill="#000000"
     stroke="none"
     id="g6">
    <path
       d="M0 5120 l0 -5120 5120 0 5120 0 0 5120 0 5120 -5120 0 -5120 0 0 -5120z m5427 4829 c1009 -82 1938 -561 2582 -1328 317 -379 570 -851 704 -1316 255 -880 175 -1817 -224 -2631 l-62 -125 13 -59 c26 -124 -2 -246 -70 -303 l-30 -26 0 -560 0 -560 38 -21 c20 -12 46 -33 56 -47 26 -35 33 -111 13 -149 -11 -22 -14 -47 -10 -90 6 -68 -9 -108 -52 -142 -14 -11 -25 -27 -25 -36 0 -26 32 -83 99 -176 34 -47 76 -114 94 -150 31 -63 32 -67 31 -200 0 -74 -3 -200 -5 -281 -4 -145 -4 -145 -43 -223 -27 -55 -47 -83 -70 -97 -23 -14 -37 -32 -45 -62 -41 -136 -138 -247 -391 -443 -109 -84 -165 -135 -188 -169 -17 -28 -38 -50 -44 -50 -38 0 -89 137 -107 283 -21 173 8 305 112 504 l61 118 -23 24 c-70 74 -67 328 4 450 14 24 34 51 45 61 13 12 20 31 20 55 0 56 35 161 70 209 17 23 52 56 77 74 26 18 62 45 81 62 l34 29 -25 21 c-13 11 -30 30 -36 42 -14 28 -14 98 0 124 8 16 7 25 -4 37 -26 31 -38 82 -27 122 14 51 41 83 89 105 l41 18 0 569 c0 357 -4 568 -10 568 -5 0 -27 -26 -49 -59 -165 -243 -464 -548 -743 -760 -127 -95 -128 -96 -128 -137 0 -23 -10 -61 -25 -90 -25 -48 -25 -52 -25 -307 l0 -257 23 -9 c82 -32 122 -135 79 -206 -15 -24 -16 -37 -9 -71 15 -65 1 -113 -44 -155 -38 -35 -39 -38 -27 -65 7 -16 53 -90 103 -164 108 -160 120 -196 119 -340 -5 -392 -11 -445 -63 -530 -22 -37 -63 -80 -76 -80 -6 0 -19 -26 -29 -57 -45 -144 -124 -231 -416 -457 -69 -54 -136 -115 -150 -136 -14 -20 -30 -46 -37 -56 -12 -18 -14 -17 -42 14 -57 66 -100 266 -87 411 11 121 32 187 107 337 l71 141 -25 26 c-34 33 -49 94 -49 198 1 123 22 201 77 280 19 27 35 64 39 92 10 68 42 156 73 200 14 20 61 62 105 92 43 31 78 60 78 66 0 6 -13 27 -30 46 -32 36 -40 87 -20 138 8 22 6 32 -10 52 -58 74 -24 176 78 227 l32 17 0 228 0 229 -34 12 c-19 6 -39 17 -45 24 -9 11 -43 -3 -174 -69 -89 -45 -228 -108 -309 -140 l-148 -59 0 -40 c0 -96 -68 -163 -178 -173 -31 -3 -76 -12 -99 -20 -36 -13 -43 -20 -43 -42 1 -115 211 -317 367 -352 49 -11 53 -14 53 -40 0 -57 -85 -114 -201 -134 -84 -15 -244 40 -330 113 l-40 35 16 -39 c76 -182 233 -371 348 -419 20 -8 37 -22 37 -29 0 -23 -78 -83 -128 -100 -51 -18 -169 -21 -220 -7 -17 5 -32 7 -32 4 0 -2 21 -29 46 -59 56 -65 144 -133 219 -169 30 -14 55 -31 55 -38 0 -23 -63 -75 -125 -104 -117 -54 -277 -42 -381 30 -27 19 -60 36 -74 39 -14 3 -33 9 -42 13 -26 10 -23 -11 12 -118 53 -157 128 -255 239 -312 28 -14 51 -32 51 -39 0 -24 -71 -75 -119 -85 -54 -11 -108 -2 -171 27 -25 12 -64 26 -87 32 -23 6 -55 21 -70 33 -33 26 -77 47 -101 47 -39 0 -95 23 -128 52 -19 17 -36 29 -37 27 -1 -2 -7 -13 -13 -24 -16 -30 -56 -49 -86 -42 -24 6 -32 19 -53 82 -6 19 -7 19 -22 -6 -29 -47 -110 -89 -173 -89 -29 0 -83 -25 -125 -58 -30 -24 -93 -45 -107 -36 -6 4 -33 -6 -61 -22 -90 -48 -209 -33 -270 34 -24 26 -19 33 46 70 80 45 152 124 198 216 36 73 73 185 65 193 -2 2 -19 -5 -37 -16 -46 -27 -182 -71 -249 -81 -110 -16 -242 25 -310 95 -18 18 -29 38 -26 44 4 6 40 27 79 46 40 19 101 57 137 84 62 47 176 158 169 165 -2 2 -35 -4 -74 -14 -138 -37 -273 -19 -340 44 -19 18 -35 37 -35 42 0 5 26 22 57 39 66 34 166 124 228 205 40 52 105 159 105 173 0 4 -24 -8 -53 -27 -140 -90 -315 -99 -427 -24 -42 28 -80 83 -80 114 0 18 7 23 41 29 148 25 350 208 383 347 5 23 1 28 -37 47 -24 12 -59 21 -78 21 -53 0 -132 27 -157 52 -27 30 -52 89 -52 127 0 27 -5 31 -72 56 -139 52 -354 147 -463 205 l-110 58 -24 -19 c-13 -10 -29 -19 -37 -19 -12 0 -14 -42 -14 -240 l0 -239 29 -15 c71 -37 105 -117 78 -186 -10 -26 -13 -59 -10 -107 5 -70 5 -70 -32 -112 -21 -23 -35 -47 -32 -55 3 -8 40 -38 82 -66 46 -31 86 -67 102 -93 26 -41 73 -181 73 -217 0 -10 18 -45 40 -77 49 -72 73 -160 73 -273 0 -100 -14 -158 -48 -198 l-25 -30 64 -123 c73 -140 104 -237 113 -355 10 -141 -29 -330 -83 -401 -14 -18 -28 -33 -32 -33 -4 0 -22 25 -40 55 -26 42 -62 76 -175 162 -252 191 -361 311 -403 446 -10 31 -23 57 -29 57 -18 0 -62 51 -89 105 -36 73 -47 136 -45 250 1 55 -1 147 -6 205 -12 167 8 231 128 400 33 47 72 106 85 132 l25 48 -41 39 c-47 46 -61 94 -45 155 9 33 8 44 -8 70 -45 73 -8 161 89 210 l32 17 0 248 c0 219 -2 250 -17 262 -25 21 -53 89 -53 130 0 34 -5 40 -107 115 -283 207 -538 468 -740 756 -61 87 -65 91 -87 82 -14 -6 -16 -63 -16 -564 l0 -558 58 -28 c47 -24 61 -37 81 -77 22 -44 23 -52 11 -90 -6 -23 -19 -50 -27 -59 -12 -13 -12 -21 -3 -39 7 -12 10 -43 8 -71 -4 -38 -12 -57 -37 -82 l-32 -33 34 -29 c18 -16 54 -43 80 -61 25 -18 60 -51 77 -74 35 -48 70 -153 70 -209 0 -24 7 -43 20 -55 11 -10 31 -37 45 -61 71 -121 74 -376 4 -450 l-22 -23 66 -128 c87 -169 110 -255 110 -398 -1 -162 -42 -324 -95 -372 -20 -17 -21 -17 -32 1 -38 65 -88 113 -216 211 -244 186 -350 306 -391 443 -9 30 -22 48 -45 63 -24 14 -45 43 -71 97 -37 75 -38 78 -40 207 -2 71 -6 183 -9 249 -9 170 4 213 121 386 50 75 97 150 102 167 10 28 9 32 -18 52 -47 35 -62 76 -56 145 4 43 1 69 -8 86 -34 60 -8 154 51 191 l34 21 0 572 0 572 -30 29 c-56 54 -79 210 -45 308 l15 44 -69 144 c-248 517 -375 1112 -358 1684 35 1197 639 2278 1647 2949 518 345 1142 562 1765 615 147 12 485 13 632 0z"
       id="path8"
       style="fill:none" />
    <path
       d="M4830 9909 c-900 -73 -1727 -453 -2352 -1082 -1049 -1054 -1343 -2605 -756 -3981 32 -76 70 -161 84 -187 l24 -49 51 52 c31 33 45 54 37 57 -7 2 -29 20 -50 40 -71 71 -72 163 -3 240 l34 38 -35 99 c-113 312 -181 645 -202 988 l-7 119 -30 10 c-43 14 -93 53 -111 89 -23 44 -15 134 15 176 24 34 87 72 120 72 16 0 21 9 26 48 34 264 83 493 151 703 34 106 125 332 164 409 l18 35 -28 32 c-56 63 -61 147 -13 211 42 55 79 73 150 71 l63 -2 62 89 c208 302 457 569 715 765 l91 70 -9 35 c-19 66 25 155 94 191 46 23 128 21 173 -6 l37 -22 166 85 c431 220 866 344 1334 379 154 11 159 12 172 37 18 34 64 77 98 89 40 15 113 14 146 -3 34 -18 91 -81 91 -101 0 -9 18 -15 58 -20 448 -47 770 -129 1117 -283 88 -39 90 -39 110 -21 78 71 217 60 276 -22 19 -27 24 -48 26 -102 l1 -69 88 -54 c278 -175 580 -439 785 -689 l66 -79 76 -1 c69 0 78 -3 114 -31 87 -70 95 -148 24 -259 -11 -18 -6 -30 39 -105 170 -279 310 -631 374 -940 l22 -105 46 -11 c60 -15 81 -27 112 -64 60 -72 54 -166 -15 -232 -21 -20 -51 -39 -68 -43 l-30 -6 6 -197 c9 -296 -20 -570 -93 -872 l-36 -150 24 -20 c12 -11 26 -19 29 -20 3 0 15 -17 27 -39 26 -45 29 -118 8 -159 -30 -58 -103 -102 -169 -102 -32 0 -36 -4 -52 -47 -10 -27 -37 -87 -61 -134 l-43 -86 55 -22 c36 -16 68 -39 97 -72 l43 -50 56 118 c372 783 455 1651 237 2483 -369 1405 -1574 2470 -3034 2679 -277 40 -579 50 -835 30z"
       id="path10"
       style="fill:#6a5acd" />
    <path
       d="M5125 9768 c-40 -22 -65 -52 -76 -91 -8 -32 -7 -45 10 -80 25 -52 65 -77 123 -77 112 0 174 119 107 204 -40 51 -116 71 -164 44z"
       id="path12"
       style="fill:#9400d3" />
    <path
       d="M4855 9643 c-364 -31 -699 -108 -1020 -235 -120 -47 -418 -193 -434 -212 -9 -11 2 -17 61 -31 207 -50 552 -182 800 -306 77 -39 141 -69 142 -67 2 2 33 57 71 123 125 219 300 474 452 658 l65 77 -49 -2 c-26 -1 -66 -3 -88 -5z"
       id="path14"
       style="fill:#9370db" />
    <path
       d="M5448 9568 c116 -143 292 -394 408 -585 l20 -33 71 44 c134 84 394 225 513 278 65 29 116 56 114 59 -15 25 -377 158 -569 209 -174 47 -487 100 -586 100 l-30 0 59 -72z"
       id="path16"
       style="fill:#9370db" />
    <path
       d="M4943 9537 c-33 -39 -86 -108 -119 -152 -150 -198 -401 -604 -383 -618 2 -2 42 -25 89 -52 139 -80 297 -185 431 -287 l127 -96 88 80 c191 172 443 371 602 473 34 22 62 45 62 50 0 44 -448 676 -478 675 -4 0 -15 -18 -25 -40 -55 -120 -255 -120 -315 0 l-19 40 -60 -73z"
       id="path18"
       style="fill:#1e90ff" />
    <path
       d="M6703 9375 c-43 -18 -73 -69 -73 -123 0 -34 6 -49 33 -79 29 -31 41 -37 88 -40 64 -5 94 9 126 56 75 111 -47 241 -174 186z"
       id="path20"
       style="fill:#9400d3" />
    <path
       d="M6385 9196 c-152 -75 -462 -249 -485 -273 -3 -2 6 -23 19 -46 66 -117 206 -409 256 -532 32 -77 58 -141 59 -142 0 -1 44 7 96 18 52 11 163 30 245 42 l150 23 24 59 c13 33 25 87 28 120 7 95 10 105 38 105 18 0 26 -7 31 -25 8 -33 154 -164 154 -138 0 37 -99 713 -105 721 -1 2 -19 -7 -39 -19 -26 -15 -54 -22 -89 -22 -105 0 -166 59 -189 186 -2 15 -33 3 -193 -77z"
       id="path22"
       style="fill:#1e90ff" />
    <path
       d="M3119 9181 c-33 -33 -39 -45 -39 -82 0 -144 192 -191 255 -62 44 91 -20 183 -129 183 -43 0 -53 -4 -87 -39z"
       id="path24"
       style="fill:#9400d3" />
    <path
       d="M3390 9098 c0 -129 -127 -213 -247 -163 -19 8 -38 15 -41 15 -3 0 -2 -91 1 -202 5 -194 25 -359 58 -473 l11 -40 34 66 c25 51 53 85 118 144 46 42 87 88 90 101 5 17 13 24 30 24 22 0 24 -6 34 -83 13 -102 41 -178 94 -257 44 -66 44 -66 169 -74 47 -3 142 -15 210 -27 68 -12 130 -22 137 -23 9 -1 33 49 66 134 68 176 93 233 168 386 59 122 61 127 42 141 -32 24 -291 147 -424 201 -151 61 -332 123 -457 156 l-93 25 0 -51z"
       id="path26"
       style="fill:#1e90ff" />
    <path
       d="M6930 9134 c0 -4 14 -93 30 -198 17 -105 43 -281 58 -391 l27 -200 214 -2 c118 -1 264 -7 325 -13 61 -5 141 -13 178 -16 94 -9 97 5 22 99 -87 108 -345 362 -469 461 -100 79 -366 266 -379 266 -3 0 -6 -3 -6 -6z"
       id="path28"
       style="fill:#9370db" />
    <path
       d="M3014 8943 c-162 -122 -352 -301 -488 -458 -116 -133 -304 -390 -294 -400 2 -3 107 6 234 20 195 21 613 55 672 55 17 0 17 6 -9 106 -40 154 -61 332 -62 537 -1 97 -2 177 -3 177 -1 0 -23 -17 -50 -37z"
       id="path30"
       style="fill:#9370db" />
    <path
       d="M5779 8843 c-196 -132 -423 -312 -604 -478 l-60 -54 65 -58 c36 -31 129 -120 207 -197 l142 -139 148 70 c163 78 339 149 450 183 l72 22 -21 56 c-54 148 -223 501 -298 624 l-17 28 -84 -57z"
       id="path32"
       style="fill:#0000ff" />
    <path
       d="M4412 8727 c-39 -49 -272 -587 -272 -629 0 -4 19 -12 43 -18 87 -22 217 -64 365 -117 l153 -56 32 39 c53 66 197 225 265 295 l64 67 -93 72 c-107 83 -369 258 -476 318 -53 30 -74 37 -81 29z"
       id="path34"
       style="fill:#0000ff" />
    <path
       d="M3344 8406 c-34 -33 -71 -80 -83 -104 -33 -65 -54 -160 -47 -211 7 -54 46 -123 85 -150 l28 -21 5 75 c5 71 20 111 39 99 5 -3 9 -41 9 -85 0 -85 15 -137 53 -177 12 -13 67 -59 122 -101 107 -83 164 -140 190 -191 23 -44 13 -47 -19 -6 -15 20 -81 72 -147 117 -67 45 -144 102 -172 126 -32 27 -60 43 -76 43 -46 -1 -107 -36 -132 -76 -21 -34 -24 -51 -23 -129 0 -73 4 -99 23 -137 34 -69 92 -130 158 -165 56 -30 182 -63 241 -63 54 0 206 -31 251 -51 54 -24 111 -76 111 -101 0 -10 -2 -18 -5 -18 -2 0 -32 18 -65 39 -69 45 -115 57 -250 66 l-95 6 28 -24 c30 -25 151 -79 233 -103 l49 -14 -82 4 c-103 5 -197 45 -258 110 -37 39 -118 77 -133 62 -10 -11 30 -84 67 -120 87 -85 214 -114 546 -126 309 -12 389 -24 526 -81 235 -96 345 -245 366 -494 l6 -80 15 35 c40 97 36 255 -8 373 -45 119 -168 246 -314 324 -39 20 -147 72 -239 114 -242 111 -337 173 -386 253 -32 52 -25 63 12 17 65 -83 163 -140 441 -257 352 -148 503 -291 552 -524 19 -90 14 -242 -10 -310 -14 -41 -14 -43 0 -25 29 36 54 107 66 182 13 91 -2 224 -38 332 -64 190 -149 270 -475 444 -270 144 -344 198 -389 286 -28 56 -25 61 8 15 69 -95 143 -145 422 -281 194 -95 285 -156 363 -243 46 -51 47 -52 47 -24 0 50 -30 156 -61 218 -63 129 -200 262 -349 340 -36 18 -146 66 -245 106 -305 122 -468 207 -609 320 -137 109 -240 260 -268 394 -7 31 -15 56 -18 55 -3 -1 -33 -29 -66 -63z m-60 -810 c4 -18 20 -52 36 -75 34 -46 38 -64 13 -59 -36 7 -92 124 -77 162 9 23 21 11 28 -28z m200 -153 c40 -51 36 -78 -7 -50 -38 25 -77 112 -76 171 l0 51 23 -63 c13 -34 40 -83 60 -109z"
       id="path36"
       style="fill:#dda0dd" />
    <path
       d="M6829 8407 c-23 -112 -82 -211 -183 -313 -50 -49 -127 -114 -171 -143 -101 -66 -295 -161 -495 -241 -312 -125 -442 -209 -553 -359 -50 -68 -110 -197 -131 -282 -23 -94 -21 -109 10 -63 74 111 185 190 449 321 248 123 310 165 377 257 36 50 36 33 0 -25 -60 -94 -132 -145 -413 -293 -91 -48 -196 -110 -232 -137 -163 -122 -247 -301 -251 -529 -1 -129 14 -191 66 -271 46 -72 60 -73 23 -3 -26 50 -55 166 -55 219 0 112 66 274 150 368 105 117 215 184 494 302 225 96 326 159 385 241 37 53 38 31 0 -27 -58 -91 -155 -154 -400 -263 -190 -83 -242 -110 -314 -161 -110 -78 -194 -182 -230 -285 -39 -110 -39 -250 -2 -340 14 -31 14 -29 25 69 7 62 22 126 38 166 48 120 164 220 335 289 135 55 215 67 499 76 341 11 458 36 552 119 34 30 86 116 76 126 -7 7 -108 -19 -108 -27 0 -23 -68 -79 -130 -107 -60 -28 -86 -34 -158 -37 l-87 -4 51 13 c81 21 206 75 239 103 l30 25 -92 -6 c-127 -9 -195 -27 -258 -69 -63 -42 -65 -42 -65 -18 0 22 52 73 97 96 41 21 138 42 228 51 110 10 214 34 268 61 115 59 185 165 195 296 4 59 1 75 -22 122 -21 43 -36 59 -70 75 -62 31 -84 27 -151 -27 -33 -26 -105 -78 -160 -116 -55 -37 -119 -88 -142 -114 -50 -54 -56 -46 -15 19 30 47 91 104 226 211 105 83 126 122 126 234 0 46 4 85 9 88 18 11 32 -24 39 -98 l7 -77 38 37 c72 70 88 131 63 238 -22 93 -63 162 -134 224 l-59 51 -14 -62z m176 -816 c-9 -49 -50 -118 -76 -126 -32 -11 -31 -2 6 50 19 27 37 63 41 79 8 40 13 48 26 40 6 -4 7 -21 3 -43z m-169 -126 c-31 -62 -59 -90 -82 -81 -14 5 -13 10 10 39 34 42 71 113 82 157 l9 35 3 -49 c2 -36 -3 -62 -22 -101z"
       id="path38"
       style="fill:#dda0dd" />
    <path
       d="M7901 8312 c-50 -25 -76 -65 -75 -116 2 -74 56 -126 132 -126 140 0 189 160 73 237 -41 27 -84 29 -130 5z"
       id="path40"
       style="fill:#9400d3" />
    <path
       d="M7060 8304 c1 -5 9 -34 20 -64 25 -72 26 -181 1 -235 -10 -22 -39 -64 -65 -92 l-48 -53 27 -10 c14 -5 30 -10 34 -10 5 0 27 -20 49 -44 66 -71 87 -182 56 -293 -5 -20 0 -24 52 -38 147 -42 269 -81 393 -127 127 -47 136 -49 148 -32 42 57 243 636 243 700 0 6 -19 17 -42 23 -65 16 -103 44 -127 93 -23 48 -26 83 -11 122 11 30 12 30 -130 46 -128 15 -600 25 -600 14z"
       id="path42"
       style="fill:#1e90ff" />
    <path
       d="M4967 8158 c-112 -119 -217 -241 -217 -251 0 -2 33 -8 73 -11 39 -4 120 -23 179 -42 59 -19 118 -34 131 -34 13 0 61 11 107 25 46 14 124 30 173 37 l88 12 -103 104 c-111 112 -297 282 -309 282 -4 0 -59 -55 -122 -122z"
       id="path44"
       style="fill:#0000ff" />
    <path
       d="M6480 8215 c-74 -14 -151 -27 -171 -31 -65 -11 -65 -11 -23 -138 22 -64 42 -116 45 -116 3 0 48 28 100 62 91 60 224 181 248 226 11 21 10 22 -26 21 -21 0 -99 -11 -173 -24z"
       id="path46"
       style="fill:#0000ff" />
    <path
       d="M6120 8131 c-135 -43 -267 -97 -416 -170 l-139 -68 80 -7 c124 -10 225 -31 295 -61 36 -16 79 -28 95 -28 37 0 255 101 255 118 0 17 -70 229 -78 236 -4 4 -45 -5 -92 -20z"
       id="path48"
       style="fill:#0000ff" />
    <path
       d="M3090 8123 c-114 -6 -462 -35 -632 -54 -97 -10 -184 -19 -193 -19 -13 0 -13 -6 5 -40 11 -21 20 -59 20 -83 0 -84 -83 -167 -168 -167 -18 0 -32 -5 -32 -10 0 -34 300 -582 367 -669 1 -2 83 34 181 81 142 69 430 190 524 221 17 6 17 8 -2 39 -54 92 -62 232 -19 324 23 48 87 104 120 104 31 0 29 16 -7 51 -50 48 -76 94 -94 164 l-15 60 -55 -2z"
       id="path50"
       style="fill:#1e90ff" />
    <path
       d="M3684 8102 c57 -61 304 -221 341 -222 6 0 21 37 34 83 14 45 26 87 28 94 6 16 -165 49 -362 68 l-70 7 29 -30z"
       id="path52"
       style="fill:#0000ff" />
    <path
       d="M2054 8050 c-11 -4 -33 -22 -47 -40 -69 -82 -5 -210 105 -210 69 0 138 65 138 130 0 37 -33 92 -66 112 -31 18 -96 22 -130 8z"
       id="path54"
       style="fill:#9400d3" />
    <path
       d="M4122 8043 c-11 -20 -52 -163 -52 -180 0 -9 75 -46 179 -90 32 -14 35 -13 65 16 40 38 128 79 203 93 87 16 91 18 73 28 -24 13 -266 95 -355 120 -44 12 -85 24 -91 27 -7 2 -17 -4 -22 -14z"
       id="path56"
       style="fill:#0000ff" />
    <path
       d="M8024 8032 c-7 -4 -25 -59 -42 -122 -39 -145 -105 -338 -175 -506 l-54 -132 76 -32 c130 -56 427 -207 539 -275 92 -55 107 -62 110 -46 2 10 -9 72 -23 137 -59 265 -180 577 -317 815 -90 157 -100 171 -114 161z"
       id="path58"
       style="fill:#9370db" />
    <path
       d="M4543 7850 c-75 -14 -161 -48 -195 -79 l-30 -27 88 -38 c173 -73 323 -171 403 -262 112 -127 158 -230 177 -393 8 -75 24 -147 43 -202 40 -112 58 -261 44 -350 -6 -35 -10 -65 -8 -67 1 -1 16 5 34 14 26 13 38 14 57 5 14 -6 27 -11 30 -11 3 0 2 37 -2 83 -7 96 7 211 41 312 12 39 26 106 29 150 9 99 53 234 108 329 53 91 189 228 290 290 42 26 129 71 192 100 l116 53 -58 26 c-73 32 -179 54 -312 62 -129 8 -224 -4 -350 -45 -111 -37 -126 -36 -276 15 -91 31 -115 35 -235 40 -74 2 -157 0 -186 -5z m376 -376 c26 -39 62 -104 78 -145 48 -116 67 -228 34 -193 -6 5 -30 62 -55 127 -60 154 -113 257 -177 337 l-52 65 62 -60 c34 -33 84 -92 110 -131z m543 127 c-69 -82 -104 -148 -171 -318 -55 -137 -81 -181 -81 -136 0 67 68 237 133 333 28 40 155 180 164 180 2 0 -18 -26 -45 -59z m-433 -121 c55 -103 75 -198 75 -355 0 -100 -4 -149 -14 -170 -13 -28 -15 -15 -21 155 -7 213 -21 285 -80 405 -31 65 -34 74 -14 50 14 -16 38 -55 54 -85z m246 48 c-61 -112 -77 -189 -82 -400 -3 -104 -9 -188 -13 -188 -13 0 -21 41 -27 145 -9 174 34 350 112 458 20 26 37 47 40 47 3 0 -11 -28 -30 -62z"
       id="path60"
       style="fill:#ee82ee" />
    <path
       d="M1998 7664 c-138 -300 -247 -691 -274 -989 l-7 -79 59 45 c151 115 360 251 544 354 58 32 106 59 108 60 1 1 -28 51 -64 111 -96 157 -209 362 -268 488 l-52 109 -46 -99z"
       id="path62"
       style="fill:#9370db" />
    <path
       d="M7086 7406 c-24 -41 -119 -136 -136 -136 -4 0 -10 -18 -14 -41 -9 -54 -47 -127 -85 -163 -17 -17 -31 -33 -31 -37 0 -21 192 -69 281 -69 31 0 63 -6 74 -14 18 -13 18 -16 5 -42 -8 -15 -34 -49 -57 -75 -24 -26 -43 -49 -43 -52 0 -2 28 -24 63 -47 34 -24 90 -65 124 -92 35 -26 65 -48 67 -48 3 0 40 57 84 128 131 210 294 524 280 538 -11 11 -317 117 -433 150 -66 19 -127 37 -136 40 -12 3 -25 -9 -43 -40z"
       id="path64"
       style="fill:#0000ff" />
    <path
       d="M3075 7316 c-157 -61 -320 -133 -468 -207 l-128 -65 100 -144 c93 -135 233 -318 309 -404 l33 -38 86 82 c47 45 117 106 154 137 38 30 69 56 69 58 0 1 -30 33 -67 71 -78 80 -102 119 -85 136 6 6 51 14 99 19 99 8 163 21 223 45 47 19 49 26 15 48 -35 23 -84 113 -91 169 -4 26 -11 47 -16 47 -5 0 -31 20 -57 45 -26 25 -52 45 -57 44 -5 0 -59 -20 -119 -43z"
       id="path66"
       style="fill:#0000ff" />
    <path
       d="M7645 7051 c-53 -103 -138 -254 -190 -337 l-93 -149 31 -25 c116 -91 340 -305 469 -448 l67 -73 73 63 c115 98 282 264 372 368 119 139 112 125 73 148 -80 50 -101 170 -43 247 17 22 25 40 19 46 -36 36 -438 245 -610 317 l-72 31 -96 -188z"
       id="path68"
       style="fill:#1e90ff" />
    <path
       d="M2315 6952 c-197 -111 -555 -351 -555 -372 0 -4 11 -15 25 -24 42 -28 65 -75 65 -134 0 -66 -19 -104 -70 -141 l-40 -29 58 -55 c74 -71 127 -115 237 -197 74 -54 254 -176 301 -203 7 -4 47 40 97 106 127 167 239 299 356 420 78 80 103 112 96 121 -6 8 -58 74 -118 147 -59 73 -153 199 -210 280 -56 82 -107 148 -112 149 -6 0 -64 -30 -130 -68z"
       id="path70"
       style="fill:#1e90ff" />
    <path
       d="M3431 6972 c-50 -29 -167 -62 -220 -62 -67 0 -67 -12 -2 -72 70 -66 141 -108 231 -138 53 -18 80 -21 145 -17 87 5 115 13 115 31 0 6 11 37 24 69 13 31 23 57 22 57 0 0 -26 -10 -56 -21 -70 -27 -218 -37 -274 -17 -72 24 -52 33 73 33 l118 0 88 45 87 45 -89 17 c-48 9 -113 26 -144 38 -67 24 -63 24 -118 -8z"
       id="path72"
       style="fill:#8b008b" />
    <path
       d="M6740 6990 c-23 -15 -111 -40 -192 -53 l-72 -12 88 -45 89 -45 118 0 c124 0 146 -10 73 -32 -68 -20 -181 -15 -259 11 -38 14 -71 23 -73 21 -2 -2 5 -20 16 -42 10 -21 22 -50 25 -64 8 -34 24 -39 119 -46 63 -5 90 -2 148 17 84 27 176 83 243 148 51 50 49 60 -19 61 -50 1 -169 36 -219 65 -52 29 -63 31 -85 16z"
       id="path74"
       style="fill:#8b008b" />
    <path
       d="M3838 6889 c-37 -50 -76 -131 -89 -186 -6 -26 -10 -92 -10 -146 0 -106 16 -178 58 -260 127 -251 565 -378 835 -241 63 32 116 81 164 150 37 53 38 59 42 153 10 232 -71 373 -271 471 -143 70 -209 82 -473 87 l-230 5 -26 -33z m300 -33 c15 -8 36 -23 46 -35 15 -16 31 -21 71 -21 29 0 82 -9 118 -20 84 -26 164 -96 204 -178 24 -50 28 -69 29 -152 0 -79 4 -101 22 -130 40 -65 18 -151 -47 -185 -38 -19 -110 -19 -138 0 -20 14 -28 14 -79 -1 -83 -24 -195 -16 -267 19 -65 33 -141 110 -169 175 -31 70 -35 163 -9 239 19 58 20 64 5 99 -28 67 -4 143 59 183 38 24 115 28 155 7z"
       id="path76"
       style="fill:#800000" />
    <path
       d="M4015 6836 c-47 -21 -67 -51 -73 -106 -4 -46 -2 -52 30 -84 58 -58 132 -60 186 -6 39 38 47 83 25 128 -33 66 -107 96 -168 68z"
       id="path78"
       style="fill:#1e90ff" />
    <path
       d="M4227 6774 c-4 -4 -7 -26 -7 -49 0 -46 -27 -95 -71 -128 -34 -25 -112 -27 -156 -4 l-31 17 -18 -45 c-23 -61 -16 -183 15 -243 68 -132 234 -207 376 -170 53 14 52 12 39 84 -8 42 21 101 60 125 21 13 50 19 89 19 l57 0 0 75 c0 174 -111 294 -295 319 -28 4 -54 4 -58 0z m236 -153 c61 -24 89 -106 52 -157 -37 -54 -125 -55 -169 -3 -46 54 -28 126 38 155 38 16 48 17 79 5z m-465 -133 c26 -50 100 -94 194 -115 85 -18 112 -34 123 -71 5 -17 -1 -30 -24 -52 -73 -74 -224 -13 -290 118 -23 47 -45 138 -36 152 9 14 12 10 33 -32z"
       id="path80"
       style="fill:#191970" />
    <path
       d="M4376 6579 c-34 -27 -36 -77 -3 -107 53 -50 146 -6 133 61 -12 63 -78 87 -130 46z"
       id="path82"
       style="fill:#1e90ff" />
    <path
       d="M4010 6414 c0 -19 45 -87 79 -117 50 -45 109 -63 156 -47 37 12 53 43 35 65 -6 7 -45 21 -86 30 -41 9 -100 29 -129 45 -30 16 -55 27 -55 24z"
       id="path84"
       style="fill:#1e90ff" />
    <path
       d="M4453 6340 c-62 -37 -73 -111 -24 -160 51 -52 111 -52 162 0 51 50 35 131 -31 165 -39 20 -69 19 -107 -5z"
       id="path86"
       style="fill:#1e90ff" />
    <path
       d="M5947 6909 c-90 -13 -195 -47 -277 -90 -176 -92 -252 -219 -254 -429 -1 -99 1 -108 28 -155 98 -167 254 -243 476 -232 123 6 198 24 297 72 135 66 238 175 277 292 56 168 31 382 -60 506 l-34 47 -198 -1 c-108 -1 -223 -5 -255 -10z m300 -67 c19 -13 39 -41 49 -68 17 -44 17 -49 1 -95 -17 -47 -17 -50 4 -111 26 -77 22 -170 -9 -240 -28 -65 -104 -142 -169 -175 -72 -35 -184 -43 -267 -19 -51 15 -59 15 -79 1 -28 -19 -100 -19 -138 0 -65 34 -87 120 -47 185 18 29 22 51 22 135 1 88 4 106 28 150 33 63 114 140 176 167 28 13 76 23 122 26 60 3 80 9 100 27 43 38 63 46 121 42 37 -2 66 -10 86 -25z"
       id="path88"
       style="fill:#800000" />
    <path
       d="M6089 6830 c-74 -39 -88 -135 -28 -191 54 -50 125 -51 180 -1 63 56 43 165 -36 198 -45 19 -72 17 -116 -6z"
       id="path90"
       style="fill:#1e90ff" />
    <path
       d="M5890 6766 c-65 -14 -90 -27 -147 -73 -74 -59 -125 -196 -105 -282 l8 -35 54 2 c68 3 109 -20 135 -74 15 -33 16 -45 6 -82 -6 -24 -9 -47 -6 -52 10 -16 116 -32 163 -25 175 26 292 152 292 314 0 31 -7 78 -16 104 -16 46 -16 46 -42 33 -70 -35 -137 -26 -190 27 -29 29 -35 44 -41 93 -5 54 -8 59 -31 61 -14 1 -50 -4 -80 -11z m-55 -150 c36 -15 65 -59 65 -100 0 -63 -87 -112 -151 -86 -80 34 -83 146 -5 184 39 19 48 19 91 2z m417 -127 c-8 -96 -76 -206 -151 -246 -111 -58 -248 6 -183 87 12 15 43 28 102 41 123 29 210 88 210 144 0 9 6 15 13 12 7 -2 11 -17 9 -38z"
       id="path92"
       style="fill:#191970" />
    <path
       d="M5735 6575 c-14 -13 -25 -36 -25 -50 0 -65 93 -100 138 -52 69 74 -42 174 -113 102z"
       id="path94"
       style="fill:#1e90ff" />
    <path
       d="M6170 6401 c-30 -22 -139 -61 -172 -61 -32 0 -68 -27 -68 -51 0 -27 60 -52 106 -43 48 9 110 56 144 111 42 66 39 80 -10 44z"
       id="path96"
       style="fill:#1e90ff" />
    <path
       d="M5664 6350 c-35 -14 -64 -59 -64 -100 0 -104 139 -146 199 -61 64 89 -32 203 -135 161z"
       id="path98"
       style="fill:#1e90ff" />
    <path
       d="M8473 6851 c-85 -53 -81 -175 8 -223 93 -50 199 14 199 120 0 34 -6 49 -33 79 -29 31 -41 37 -88 40 -42 3 -61 0 -86 -16z"
       id="path100"
       style="fill:#9400d3" />
    <path
       d="M6988 6719 l-48 -31 19 -27 c67 -95 101 -210 101 -342 l0 -94 25 30 c50 59 225 293 225 300 0 13 -247 195 -265 195 -5 0 -31 -14 -57 -31z"
       id="path102"
       style="fill:#0000ff" />
    <path
       d="M3175 6644 c-105 -88 -225 -203 -225 -215 0 -11 255 -279 266 -279 1 0 -3 19 -8 43 -14 62 -14 204 2 267 15 62 50 139 88 189 l25 34 -24 18 c-13 10 -26 18 -29 18 -3 0 -45 -34 -95 -75z"
       id="path104"
       style="fill:#0000ff" />
    <path
       d="M3317 6608 c-19 -34 -41 -82 -48 -106 -12 -41 -11 -44 15 -71 16 -16 56 -42 89 -57 52 -23 79 -29 162 -32 88 -3 104 -1 133 18 l34 21 -7 62 c-4 34 -9 63 -10 65 -2 2 -20 -4 -41 -13 -50 -21 -145 -30 -218 -21 -92 12 -62 28 54 30 157 3 210 32 210 113 0 20 -3 24 -17 18 -58 -25 -165 -14 -305 31 -12 4 -25 -11 -51 -58z"
       id="path106"
       style="fill:#8b008b" />
    <path
       d="M6830 6648 c-58 -21 -183 -29 -233 -15 -28 8 -28 7 -25 -35 3 -41 6 -44 53 -68 43 -21 65 -25 155 -26 99 -1 130 -11 78 -26 -62 -17 -199 -4 -269 26 -13 6 -17 -2 -22 -41 -3 -27 -7 -55 -9 -62 -2 -8 13 -25 32 -38 33 -23 42 -25 135 -21 83 3 110 9 162 32 33 15 73 41 89 57 l27 28 -22 58 c-23 60 -78 154 -90 152 -3 -1 -31 -10 -61 -21z"
       id="path108"
       style="fill:#8b008b" />
    <path
       d="M8446 6480 c-123 -147 -321 -344 -459 -456 l-38 -31 42 -49 c79 -91 245 -320 329 -453 l84 -133 23 84 c77 280 122 663 109 935 -9 202 -8 201 -90 103z"
       id="path110"
       style="fill:#9370db" />
    <path
       d="M1613 6535 c-66 -28 -92 -118 -53 -182 51 -84 179 -84 230 0 69 113 -51 237 -177 182z"
       id="path112"
       style="fill:#9400d3" />
    <path
       d="M7270 6438 c-36 -50 -100 -133 -143 -185 -64 -78 -83 -108 -103 -170 l-24 -75 65 -118 c36 -65 88 -166 116 -225 l50 -106 77 42 c135 73 336 203 465 300 l125 93 -21 31 c-58 82 -506 506 -533 504 -5 0 -38 -41 -74 -91z"
       id="path114"
       style="fill:#0000ff" />
    <path
       d="M5100 6407 c-8 -7 -41 -44 -73 -84 -32 -39 -73 -83 -92 -98 -19 -14 -37 -36 -41 -49 -8 -32 25 -92 75 -139 49 -45 62 -69 90 -162 43 -147 100 -152 142 -11 28 95 49 133 99 181 80 77 90 128 34 172 -19 15 -67 67 -105 116 -71 89 -94 102 -129 74z m-25 -227 c8 -16 15 -34 15 -40 0 -15 -36 -12 -49 4 -15 18 -31 73 -24 80 10 10 43 -15 58 -44z m195 34 c0 -4 -10 -24 -22 -45 -21 -38 -41 -49 -53 -29 -7 12 20 66 37 73 19 8 38 8 38 1z"
       id="path116"
       style="fill:#ffdab9" />
    <path
       d="M3243 6394 c-9 -25 5 -172 23 -244 38 -145 119 -303 219 -423 171 -207 404 -297 769 -297 77 0 137 2 134 5 -3 3 -43 16 -89 29 -175 48 -330 132 -407 220 -18 20 -37 34 -42 31 -6 -4 -56 -11 -111 -16 -56 -5 -116 -16 -135 -24 -32 -13 -35 -13 -45 7 -14 25 -17 148 -6 206 l9 42 -34 0 c-18 0 -50 -5 -72 -11 -55 -15 -63 -4 -49 76 11 66 65 196 89 216 25 21 14 29 -40 29 -53 0 -112 14 -131 32 -6 5 15 6 55 2 42 -4 81 -2 110 7 l45 12 -51 8 c-61 10 -131 39 -191 79 -37 25 -45 27 -50 14z"
       id="path118"
       style="fill:#0000cd" />
    <path
       d="M6980 6388 c-40 -32 -116 -68 -178 -82 -52 -12 -55 -14 -29 -21 15 -4 58 -5 97 -3 53 3 66 1 59 -9 -15 -18 -105 -34 -150 -27 -43 7 -50 -3 -20 -30 48 -44 121 -270 95 -296 -6 -6 -30 -6 -65 2 -77 16 -92 9 -82 -39 11 -52 7 -177 -6 -202 -10 -18 -14 -19 -45 -6 -19 8 -71 17 -117 20 -46 4 -96 11 -111 15 -25 8 -33 3 -81 -44 -74 -74 -188 -138 -325 -182 -65 -20 -128 -40 -142 -44 -15 -5 28 -9 110 -9 430 -3 660 105 862 402 109 161 180 398 159 534 l-6 41 -25 -20z"
       id="path120"
       style="fill:#0000cd" />
    <path
       d="M2819 6308 c-159 -172 -332 -381 -408 -492 l-31 -45 87 -49 c177 -100 545 -267 601 -274 22 -3 27 7 61 102 41 113 122 313 147 361 14 28 13 34 -12 97 -23 60 -43 84 -183 227 -86 88 -161 161 -166 163 -6 1 -49 -39 -96 -90z"
       id="path122"
       style="fill:#0000ff" />
    <path
       d="M3705 6340 c-4 -7 -27 -21 -50 -31 -52 -23 -124 -100 -169 -183 -34 -61 -69 -160 -59 -169 2 -3 18 -1 34 3 17 5 74 3 140 -4 61 -7 125 -10 143 -7 29 6 31 11 37 57 4 27 13 63 21 79 28 55 29 71 8 98 l-20 26 -58 -39 c-53 -35 -162 -138 -170 -160 -6 -16 -32 -11 -32 5 0 31 31 74 96 134 36 33 82 66 100 73 19 7 34 15 34 19 0 4 -11 30 -24 59 -15 32 -27 47 -31 40z"
       id="path124"
       style="fill:#8b008b" />
    <path
       d="M6517 6295 c-32 -66 -32 -65 -8 -65 57 0 221 -159 221 -215 0 -28 -20 -16 -77 45 -30 33 -83 80 -118 104 l-63 44 -23 -24 -23 -25 18 -47 c11 -26 24 -72 31 -101 14 -68 31 -74 153 -59 48 5 114 8 149 6 l62 -4 -6 26 c-30 125 -155 308 -221 325 -15 3 -36 15 -47 26 -21 19 -21 18 -48 -36z"
       id="path126"
       style="fill:#8b008b" />
    <path
       d="M1705 6128 c15 -236 48 -449 101 -663 28 -114 114 -375 123 -375 3 0 33 53 66 117 68 134 189 337 275 465 l59 88 -117 76 c-156 102 -319 226 -419 318 -44 42 -84 76 -88 76 -4 0 -4 -46 0 -102z"
       id="path128"
       style="fill:#9370db" />
    <path
       d="M5410 6156 c0 -33 40 -94 90 -139 69 -63 140 -96 220 -102 36 -4 81 -9 100 -12 58 -9 8 -21 -91 -22 -80 -1 -92 2 -159 36 -48 23 -95 58 -135 98 -57 57 -63 60 -74 43 -10 -16 -1 -28 66 -97 56 -56 96 -87 140 -107 68 -31 82 -50 31 -39 -79 17 -222 121 -261 190 -17 30 -65 -29 -89 -110 -11 -38 -29 -87 -40 -107 -22 -45 -69 -73 -97 -59 -35 19 -69 70 -81 123 -18 74 -34 109 -65 142 l-26 28 -55 -60 c-63 -70 -126 -114 -195 -137 -80 -27 -80 -11 1 30 82 41 210 158 210 192 0 49 -22 41 -99 -35 -115 -116 -184 -143 -327 -127 -85 9 -67 20 43 28 59 5 96 13 132 32 61 31 151 117 179 171 l20 40 -62 -60 c-135 -133 -338 -184 -559 -142 -123 24 -272 92 -344 158 -12 11 -26 18 -31 14 -22 -13 -45 -119 -39 -183 21 -264 326 -463 772 -503 127 -12 222 -30 280 -54 37 -16 46 -8 19 15 -28 23 -104 128 -119 163 -22 51 -18 56 9 13 25 -41 142 -182 187 -226 15 -14 45 -43 67 -64 23 -22 48 -58 58 -85 20 -55 38 -77 53 -68 6 4 26 40 45 80 27 59 43 80 80 105 25 18 46 35 46 39 0 4 32 43 71 87 39 44 84 103 101 130 23 39 28 44 23 22 -8 -38 -47 -99 -109 -171 -32 -37 -43 -57 -31 -52 70 29 154 48 245 57 232 22 382 60 529 133 157 77 252 177 291 304 25 81 25 117 -1 202 l-21 69 -49 -38 c-131 -99 -319 -161 -490 -161 -162 0 -352 85 -429 192 -18 25 -30 35 -30 24z m460 -476 c-20 -48 -102 -114 -204 -164 -94 -46 -121 -55 -114 -36 2 6 42 28 89 49 113 50 175 94 208 146 29 48 40 51 21 5z m-1418 -52 c33 -32 143 -92 252 -137 20 -8 26 -15 19 -22 -15 -15 -207 80 -266 131 -43 38 -78 87 -76 107 0 4 8 -3 17 -17 9 -14 33 -42 54 -62z"
       id="path130"
       style="fill:#dda0dd" />
    <path
       d="M7905 5961 c-21 -35 -339 -252 -530 -362 -69 -39 -125 -75 -125 -78 0 -4 15 -46 34 -92 63 -156 138 -385 186 -566 8 -31 16 -43 29 -43 65 0 633 169 723 216 l29 15 -21 34 c-33 54 -41 93 -28 143 13 54 61 105 117 123 l41 14 -63 100 c-107 170 -358 505 -378 505 -4 0 -10 -4 -14 -9z"
       id="path132"
       style="fill:#1e90ff" />
    <path
       d="M6936 5877 c-62 -111 -162 -235 -239 -298 -59 -48 -175 -112 -245 -137 -32 -11 -33 -12 -18 -40 8 -16 35 -51 59 -77 l43 -48 130 43 c138 46 356 135 467 191 l67 34 -84 170 c-46 94 -95 187 -108 208 l-25 39 -47 -85z"
       id="path134"
       style="fill:#0000ff" />
    <path
       d="M3586 5887 c-9 -42 -7 -165 2 -170 8 -5 254 12 261 18 2 3 -2 11 -9 20 -7 8 -22 42 -34 76 l-22 60 -53 -56 c-29 -30 -56 -55 -62 -55 -19 0 -8 21 34 62 76 76 77 74 -23 74 l-88 1 -6 -30z"
       id="path136"
       style="fill:#8b008b" />
    <path
       d="M6503 5900 c6 -8 31 -36 55 -62 24 -25 42 -52 40 -59 -3 -8 -29 13 -65 51 l-60 63 -13 -39 c-7 -21 -21 -56 -32 -77 -11 -22 -18 -41 -15 -43 2 -2 60 -8 128 -13 88 -6 126 -5 131 3 9 14 9 132 -1 166 -7 24 -10 25 -93 25 -75 0 -85 -2 -75 -15z"
       id="path138"
       style="fill:#8b008b" />
    <path
       d="M3276 5828 c-41 -89 -135 -339 -143 -379 -5 -27 -4 -27 133 -72 77 -25 207 -62 291 -83 145 -36 152 -37 177 -20 30 19 116 125 116 142 0 6 -21 19 -47 29 -186 68 -336 200 -457 400 l-35 59 -35 -76z"
       id="path140"
       style="fill:#0000ff" />
    <path
       d="M2269 5607 c-47 -72 -112 -177 -143 -231 -57 -99 -166 -310 -166 -322 0 -3 6 -4 14 -1 21 8 96 -12 128 -34 64 -46 85 -141 48 -214 -11 -22 -20 -42 -20 -46 0 -17 515 -103 685 -115 l90 -7 18 114 c22 134 85 413 126 552 16 53 26 99 22 101 -3 2 -67 28 -141 59 -157 64 -300 131 -457 216 -61 34 -113 61 -115 61 -1 0 -42 -60 -89 -133z"
       id="path142"
       style="fill:#1e90ff" />
    <path
       d="M7165 5488 c-81 -43 -333 -148 -457 -190 -71 -24 -128 -46 -128 -50 0 -4 42 -28 93 -52 91 -45 232 -86 294 -86 43 0 83 -16 83 -34 0 -28 -135 -109 -232 -140 -16 -5 -15 -10 10 -48 16 -24 39 -69 52 -100 26 -67 13 -64 190 -43 108 14 187 26 340 54 41 8 42 -1 -5 166 -55 197 -180 546 -195 545 -3 -1 -23 -11 -45 -22z"
       id="path144"
       style="fill:#0000ff" />
    <path
       d="M6318 5408 c-21 -6 -38 -14 -38 -19 0 -25 35 -71 86 -116 41 -34 52 -49 40 -51 -36 -7 -145 87 -167 145 -10 27 -10 26 -34 -25 -69 -148 -114 -346 -122 -534 -7 -156 6 -257 59 -473 21 -88 48 -211 59 -273 22 -131 25 -332 7 -414 -7 -29 -45 -118 -86 -197 -54 -106 -75 -157 -79 -196 -8 -73 11 -80 34 -13 10 29 59 136 109 238 161 326 171 396 100 765 -56 286 -43 288 21 4 43 -185 47 -216 47 -334 0 -152 -15 -208 -109 -395 -30 -60 -55 -112 -55 -115 0 -9 90 95 136 157 62 85 109 174 140 264 23 70 26 89 21 169 -7 106 -62 378 -112 554 -19 69 -33 126 -31 128 2 2 26 -61 54 -141 46 -129 122 -440 122 -495 0 -47 18 -16 36 62 34 151 23 348 -31 522 -3 11 6 -5 20 -35 15 -30 38 -98 52 -150 34 -132 29 -284 -16 -448 -71 -257 -142 -392 -316 -597 -65 -77 -103 -131 -84 -120 38 23 225 190 319 284 221 222 288 376 277 635 -6 149 -23 219 -113 467 -30 83 -53 156 -51 162 2 6 24 -39 51 -99 78 -180 99 -236 131 -363 14 -55 25 -113 25 -130 0 -55 17 -42 35 27 11 41 20 119 23 203 5 161 -14 256 -77 379 -33 65 -42 75 -67 78 -131 11 -242 55 -312 122 -35 34 -41 44 -31 56 10 12 19 9 63 -17 130 -78 175 -94 266 -93 72 0 95 4 148 28 34 16 62 32 62 36 0 4 -21 11 -47 15 -78 12 -207 59 -284 105 -83 49 -175 138 -209 204 -14 25 -27 46 -30 45 -3 -1 -22 -6 -42 -11z"
       id="path146"
       style="fill:#ba55d3" />
    <path
       d="M3876 5354 c-51 -77 -115 -136 -198 -186 -73 -43 -213 -95 -285 -105 -24 -3 -43 -9 -43 -13 0 -11 80 -47 135 -61 95 -24 182 -1 332 86 57 33 64 35 70 19 9 -23 -69 -94 -140 -127 -57 -27 -139 -47 -192 -47 -32 0 -37 -5 -71 -66 -20 -36 -48 -100 -62 -142 -24 -70 -26 -92 -27 -242 0 -148 3 -173 25 -245 20 -66 25 -75 31 -55 4 14 7 41 8 61 3 92 92 362 185 559 41 87 31 46 -38 -151 -93 -270 -109 -340 -110 -484 0 -97 5 -135 23 -195 26 -86 75 -180 134 -260 46 -61 398 -423 405 -415 2 2 -38 61 -91 131 -109 145 -179 277 -231 439 -76 241 -94 416 -56 571 18 77 69 219 76 212 1 -2 -6 -34 -16 -71 -32 -116 -44 -255 -31 -362 7 -51 16 -106 20 -121 8 -28 9 -27 25 26 58 195 181 571 183 564 2 -5 -13 -67 -32 -139 -122 -454 -137 -519 -132 -580 6 -79 73 -250 140 -357 29 -45 92 -134 139 -195 47 -62 94 -131 105 -153 10 -22 22 -40 27 -40 5 0 6 26 4 58 -5 48 -21 88 -96 232 -129 249 -146 302 -146 465 -1 108 5 160 33 305 19 96 39 180 44 185 10 12 4 -40 -26 -210 -14 -81 -21 -164 -21 -255 0 -126 2 -141 32 -228 17 -51 41 -109 52 -130 20 -36 21 -36 15 -7 -4 17 -9 103 -12 192 -6 190 0 246 63 532 60 273 67 331 68 506 0 179 -14 273 -62 420 -31 93 -40 110 -59 113 -17 3 -26 -3 -33 -22 -21 -57 -130 -151 -166 -144 -12 2 0 17 41 52 48 41 95 110 83 121 -2 1 -21 6 -44 9 -40 7 -40 7 -78 -50z"
       id="path148"
       style="fill:#ba55d3" />
    <path
       d="M3092 5323 c-56 -185 -125 -489 -147 -644 l-7 -46 84 -7 c45 -3 137 -7 202 -8 119 -3 119 -3 127 22 36 124 57 179 86 227 18 31 30 59 26 63 -4 4 -30 15 -57 25 -70 25 -171 97 -171 121 0 15 10 21 50 27 128 21 230 49 305 83 44 20 78 39 76 42 -3 2 -58 17 -123 33 -96 24 -356 102 -416 125 -11 4 -20 -13 -35 -63z"
       id="path150"
       style="fill:#0000ff" />
    <path
       d="M4292 5383 c-90 -2 -162 -7 -160 -11 2 -4 15 -30 30 -58 15 -28 32 -72 39 -98 9 -35 19 -51 45 -66 73 -46 149 -35 207 29 39 44 104 150 113 186 6 25 5 25 -52 23 -33 -1 -132 -4 -222 -5z"
       id="path152"
       style="fill:#8b008b" />
    <path
       d="M4615 5367 c14 -45 60 -112 114 -168 62 -64 115 -86 176 -75 37 7 115 68 115 90 0 20 -61 72 -117 100 -57 28 -171 61 -246 70 -46 6 -48 5 -42 -17z"
       id="path154"
       style="fill:#8b008b" />
    <path
       d="M5588 5378 c-37 -3 -93 -14 -125 -23 -77 -22 -191 -83 -205 -109 -10 -18 -5 -26 36 -63 90 -81 171 -83 246 -4 48 49 124 173 118 194 -2 9 -21 10 -70 5z"
       id="path156"
       style="fill:#8b008b" />
    <path
       d="M5726 5365 c21 -71 127 -198 189 -226 86 -39 162 -14 184 62 7 24 28 73 47 109 19 35 34 67 34 70 0 3 -103 5 -230 5 -225 0 -230 0 -224 -20z"
       id="path158"
       style="fill:#8b008b" />
    <path
       d="M5640 5268 c-49 -86 -118 -154 -169 -168 l-41 -11 15 -37 c23 -56 83 -139 129 -178 73 -62 155 -69 216 -17 46 38 150 199 150 231 0 4 -15 16 -34 24 -51 25 -104 75 -151 146 l-43 64 -7 -68 c-9 -103 -12 -114 -14 -59 -2 28 -6 69 -9 92 l-7 42 -35 -61z"
       id="path160"
       style="fill:#8b008b" />
    <path
       d="M8313 5301 c-70 -33 -95 -118 -53 -186 18 -29 35 -40 94 -59 58 -19 144 44 153 111 14 106 -94 180 -194 134z"
       id="path162"
       style="fill:#9400d3" />
    <path
       d="M4543 5258 c-45 -78 -111 -146 -152 -154 -18 -4 -35 -13 -38 -20 -8 -23 50 -117 112 -181 130 -133 237 -105 344 88 48 88 51 105 14 112 -45 9 -111 63 -161 132 -25 35 -50 62 -54 59 -4 -3 -8 -33 -8 -66 0 -79 -10 -69 -18 19 l-7 68 -32 -57z"
       id="path164"
       style="fill:#8b008b" />
    <path
       d="M5215 5163 c-43 -102 -119 -113 -160 -23 l-18 41 -26 -24 c-41 -38 -74 -57 -98 -57 -12 0 -25 -4 -28 -10 -12 -19 51 -125 110 -186 133 -138 245 -105 355 107 23 44 40 82 38 83 -1 2 -24 13 -50 25 -26 12 -59 36 -72 52 -14 16 -27 29 -30 29 -3 0 -13 -17 -21 -37z"
       id="path166"
       style="fill:#8b008b" />
    <path
       d="M4235 5054 c4 -38 10 -73 13 -78 5 -9 61 90 62 110 0 7 -10 14 -22 17 -13 2 -31 8 -41 12 -18 7 -18 3 -12 -61z"
       id="path168"
       style="fill:#800080" />
    <path
       d="M6023 5099 c-18 -5 -33 -13 -33 -16 0 -17 43 -92 50 -88 4 3 11 22 14 42 4 21 9 46 12 56 6 19 3 19 -43 6z"
       id="path170"
       style="fill:#800080" />
    <path
       d="M4336 4957 c-14 -142 -13 -136 -15 -87 -1 25 -6 65 -9 90 l-7 45 -27 -45 c-23 -40 -26 -59 -32 -180 -3 -74 -9 -158 -12 -186 l-6 -51 45 -18 c70 -26 111 -15 172 48 42 43 145 214 133 221 -1 1 -20 9 -40 18 -52 24 -111 80 -157 149 l-39 59 -6 -63z"
       id="path172"
       style="fill:#8b008b" />
    <path
       d="M5371 4993 c-44 -97 -137 -193 -188 -193 -32 0 -30 -20 10 -93 45 -86 131 -172 187 -187 66 -18 105 -6 159 48 40 41 131 192 131 219 0 6 -17 15 -39 21 -45 14 -124 89 -173 163 l-33 52 -3 -77 c-4 -98 -22 -99 -22 -1 0 79 -9 93 -29 48z"
       id="path174"
       style="fill:#8b008b" />
    <path
       d="M8210 4994 c-96 -41 -359 -124 -539 -170 -96 -24 -176 -45 -177 -47 -2 -1 1 -20 6 -42 39 -175 79 -445 95 -642 9 -106 23 -113 83 -46 78 88 197 237 258 323 97 139 94 131 82 176 -24 87 13 155 96 179 l53 16 55 117 c67 142 74 162 56 161 -7 0 -38 -11 -68 -25z"
       id="path176"
       style="fill:#9370db" />
    <path
       d="M1934 5000 c-11 -4 -33 -22 -47 -40 -21 -25 -27 -42 -27 -79 0 -162 241 -177 267 -17 7 44 -21 103 -61 127 -32 20 -95 24 -132 9z"
       id="path178"
       style="fill:#9400d3" />
    <path
       d="M5895 4943 c-47 -76 -104 -131 -145 -140 -17 -3 -30 -12 -30 -20 0 -34 60 -132 115 -189 66 -67 120 -91 177 -79 28 7 30 9 22 39 -4 17 -8 114 -9 216 -1 133 -5 193 -15 213 -7 15 -17 27 -21 27 -4 0 -11 -37 -15 -82 -7 -76 -8 -80 -15 -43 -4 22 -8 57 -8 77 -1 20 -5 39 -9 42 -4 2 -26 -25 -47 -61z"
       id="path180"
       style="fill:#8b008b" />
    <path
       d="M4877 4994 c-4 -4 -7 -39 -7 -77 0 -87 -13 -79 -20 11 l-5 67 -48 -73 c-49 -73 -98 -112 -160 -126 -24 -6 -28 -11 -23 -30 21 -84 143 -225 213 -246 65 -20 108 -6 163 50 42 43 130 191 130 219 0 6 -7 11 -17 11 -46 0 -140 83 -203 179 -8 12 -18 19 -23 15z"
       id="path182"
       style="fill:#8b008b" />
    <path
       d="M7260 4740 c-85 -15 -194 -31 -241 -35 -48 -4 -91 -10 -97 -14 -7 -4 -8 -19 -2 -46 15 -64 12 -258 -6 -343 -8 -42 -31 -113 -51 -157 -34 -77 -69 -227 -58 -245 18 -29 293 -90 472 -105 l82 -7 -5 48 c-10 95 58 177 157 190 l49 7 0 46 c0 101 -39 386 -81 589 -19 92 -24 102 -43 101 -11 -1 -91 -14 -176 -29z"
       id="path184"
       style="fill:#1e90ff" />
    <path
       d="M5640 4663 c-46 -88 -116 -159 -164 -168 -20 -4 -38 -10 -40 -14 -8 -13 33 -91 80 -152 103 -134 215 -154 303 -53 33 37 106 157 115 190 6 18 -1 25 -39 44 -46 23 -128 109 -162 173 l-18 32 -5 -62 c-6 -79 -20 -93 -21 -22 -1 30 -4 64 -7 76 -6 19 -12 13 -42 -44z"
       id="path186"
       style="fill:#8b008b" />
    <path
       d="M5140 4638 c0 -97 -17 -96 -22 1 l-3 65 -39 -64 c-51 -82 -109 -138 -152 -146 -19 -3 -37 -10 -40 -15 -10 -17 61 -134 117 -190 94 -97 177 -103 258 -20 60 62 140 209 120 222 -8 5 -18 9 -23 9 -37 0 -155 124 -187 194 -21 45 -29 29 -29 -56z"
       id="path188"
       style="fill:#8b008b" />
    <path
       d="M2193 4678 c31 -41 41 -86 27 -122 -9 -24 -3 -37 56 -128 86 -134 168 -240 281 -369 84 -96 273 -279 287 -279 3 0 6 73 6 163 0 175 13 380 35 547 7 58 13 106 12 107 -1 1 -67 9 -147 18 -162 19 -412 58 -508 80 -35 8 -65 15 -68 15 -3 0 6 -15 19 -32z"
       id="path190"
       style="fill:#9370db" />
    <path
       d="M4541 4656 c-47 -81 -119 -154 -159 -162 -18 -4 -34 -10 -37 -13 -15 -26 103 -196 163 -236 110 -71 204 -27 296 139 53 96 53 101 7 115 -46 13 -126 87 -169 155 -34 54 -42 46 -42 -41 0 -77 -11 -60 -18 29 l-7 73 -34 -59z"
       id="path192"
       style="fill:#8b008b" />
    <path
       d="M1965 4684 c-50 -26 -92 -73 -121 -138 -38 -83 -41 -207 -6 -278 30 -61 93 -92 146 -72 13 5 12 13 -10 56 -48 95 -40 194 21 274 46 60 95 74 173 49 19 -6 22 -4 22 22 0 61 -59 103 -147 103 -26 0 -61 -7 -78 -16z"
       id="path194"
       style="fill:#2e8b57" />
    <path
       d="M8100 4682 c-37 -18 -68 -77 -56 -108 6 -15 8 -16 24 0 26 23 83 20 123 -7 18 -12 47 -44 64 -71 26 -43 30 -59 30 -120 0 -57 -6 -81 -27 -123 -26 -51 -26 -52 -6 -58 33 -11 84 4 112 32 105 104 44 390 -98 457 -45 21 -122 20 -166 -2z"
       id="path196"
       style="fill:#2e8b57" />
    <path
       d="M2936 4592 c-18 -30 -56 -499 -56 -694 l0 -120 28 8 c15 5 50 9 78 9 100 0 185 -93 170 -186 -7 -46 -15 -44 114 -24 114 17 220 48 278 81 l42 25 -25 42 c-53 86 -105 222 -105 275 0 8 -18 51 -40 95 -58 119 -80 216 -80 357 l0 117 -186 7 c-103 4 -192 10 -199 12 -7 3 -16 1 -19 -4z"
       id="path198"
       style="fill:#1e90ff" />
    <path
       d="M2050 4534 c-41 -35 -70 -94 -70 -143 0 -33 14 -61 88 -173 228 -343 491 -621 804 -852 l78 -56 6 27 c4 16 15 45 25 65 11 21 19 39 19 41 0 3 -20 8 -44 11 -117 18 -186 135 -142 241 l15 35 -57 52 c-197 180 -374 386 -520 607 -53 80 -103 151 -112 158 -24 20 -56 15 -90 -13z"
       id="path200"
       style="fill:#6a5acd" />
    <path
       d="M8030 4433 c-76 -115 -211 -289 -320 -414 l-40 -46 20 -44 c44 -97 11 -186 -85 -230 -52 -24 -95 -24 -155 2 l-48 20 -83 -66 c-45 -36 -102 -80 -125 -97 l-42 -30 36 -37 c32 -32 68 -95 86 -154 5 -17 11 -15 52 15 317 227 616 538 860 893 59 86 68 106 67 141 -2 73 -73 174 -122 174 -11 0 -47 -45 -101 -127z"
       id="path202"
       style="fill:#6a5acd" />
    <path
       d="M4205 4442 c-9 -42 -23 -104 -30 -137 -7 -33 -12 -61 -11 -63 20 -19 96 86 126 172 24 71 24 76 5 76 -9 0 -29 7 -45 15 l-28 15 -17 -78z"
       id="path204"
       style="fill:#8b008b" />
    <path
       d="M5990 4480 c0 -17 46 -103 70 -130 l22 -25 -6 25 c-3 14 -11 51 -17 83 -11 53 -13 57 -40 57 -16 0 -29 -5 -29 -10z"
       id="path206"
       style="fill:#800080" />
    <path
       d="M5376 4390 c-61 -114 -147 -200 -199 -200 -23 0 -21 -16 7 -75 50 -107 141 -193 223 -210 45 -9 112 23 150 72 35 43 113 181 113 199 0 7 -12 15 -27 19 -55 14 -138 91 -195 182 l-23 38 -3 -65 c-4 -99 -16 -105 -22 -10 l-5 85 -19 -35z"
       id="path208"
       style="fill:#8b008b" />
    <path
       d="M5907 4355 c-48 -83 -114 -151 -156 -160 -18 -4 -31 -13 -31 -22 0 -31 67 -139 120 -193 94 -96 179 -102 261 -18 46 48 47 62 19 197 -16 81 -25 101 -63 150 -24 31 -50 67 -58 81 l-13 25 -7 -30 c-4 -16 -8 -64 -9 -105 l-3 -75 -11 108 -11 109 -38 -67z"
       id="path210"
       style="fill:#8b008b" />
    <path
       d="M4336 4354 c-3 -26 -7 -65 -7 -88 -1 -47 -5 -35 -14 48 l-7 59 -28 -50 c-26 -45 -71 -92 -113 -118 -11 -7 -20 -35 -28 -83 l-11 -72 35 -41 c107 -125 218 -138 301 -36 36 44 116 184 116 203 0 7 -12 15 -27 19 -53 13 -126 79 -185 168 l-25 38 -7 -47z"
       id="path212"
       style="fill:#8b008b" />
    <path
       d="M4811 4343 c-48 -80 -111 -140 -156 -149 -20 -3 -39 -12 -42 -20 -7 -18 49 -120 98 -177 43 -49 91 -80 147 -92 53 -11 114 25 166 98 43 61 96 158 96 175 0 5 -18 14 -41 21 -45 14 -141 104 -174 164 -11 21 -23 37 -27 37 -5 0 -8 -34 -8 -77 0 -93 -13 -88 -20 8 l-5 70 -34 -58z"
       id="path214"
       style="fill:#8b008b" />
    <path
       d="M1910 3605 l0 -555 25 0 25 0 0 555 0 555 -25 0 -25 0 0 -555z"
       id="path216"
       style="fill:#7fffd4" />
    <path
       d="M8250 3605 l0 -555 25 0 25 0 0 555 0 555 -25 0 -25 0 0 -555z"
       id="path218"
       style="fill:#7fffd4" />
    <path
       d="M5654 4079 c-52 -107 -145 -199 -202 -199 -19 0 -22 -4 -17 -22 21 -72 126 -202 186 -234 41 -21 106 -21 146 0 39 20 99 98 143 185 36 72 39 63 -40 111 -40 24 -113 108 -143 165 -20 39 -26 24 -29 -75 l-3 -75 -10 94 -10 94 -21 -44z"
       id="path220"
       style="fill:#8b008b" />
    <path
       d="M5144 4023 c-5 -48 -10 -74 -11 -58 -2 17 -6 54 -9 84 l-6 53 -35 -58 c-58 -98 -132 -164 -183 -164 -26 0 -25 -10 4 -68 62 -122 157 -203 240 -204 58 -1 103 28 153 99 40 58 97 162 91 168 -2 1 -21 12 -43 23 -48 25 -122 99 -163 165 l-30 48 -8 -88z"
       id="path222"
       style="fill:#8b008b" />
    <path
       d="M4538 4034 c-58 -94 -126 -154 -176 -154 -20 0 -22 -4 -17 -22 21 -70 129 -204 189 -235 39 -20 104 -20 143 1 39 20 99 98 143 185 17 34 30 64 28 65 -100 47 -123 64 -174 129 -30 38 -54 74 -54 81 0 6 -5 4 -10 -4 -5 -8 -10 -42 -10 -74 0 -77 -10 -66 -18 20 l-7 68 -37 -60z"
       id="path224"
       style="fill:#8b008b" />
    <path
       d="M4120 3871 c0 -118 12 -226 26 -240 16 -16 163 196 164 235 0 6 -19 19 -43 28 -24 9 -63 36 -87 61 -24 25 -48 45 -52 45 -4 0 -8 -58 -8 -129z"
       id="path226"
       style="fill:#8b008b" />
    <path
       d="M7484 3974 c-96 -33 -120 -153 -43 -218 106 -90 269 20 216 147 -27 63 -104 95 -173 71z"
       id="path228"
       style="fill:#9400d3" />
    <path
       d="M6115 3940 c-35 -37 -75 -60 -105 -60 -11 0 -20 -5 -20 -10 0 -37 123 -214 143 -207 23 7 35 181 19 270 l-7 38 -30 -31z"
       id="path230"
       style="fill:#9400d3" />
    <path
       d="M6747 3794 c-85 -168 -269 -363 -534 -564 l-72 -54 42 -16 c23 -9 51 -22 63 -30 18 -11 39 -5 175 49 85 34 213 92 284 129 l130 67 -3 40 c-8 98 112 172 235 145 l45 -10 101 76 c116 88 147 114 147 126 0 4 -24 8 -52 8 -83 0 -304 36 -403 66 -49 14 -98 28 -107 31 -13 4 -25 -12 -51 -63z"
       id="path232"
       style="fill:#9370db" />
    <path
       d="M5353 3744 c-48 -81 -120 -152 -163 -161 -17 -3 -30 -11 -30 -17 1 -37 88 -169 145 -219 56 -50 147 -62 200 -26 51 35 136 161 159 236 6 18 1 23 -28 33 -46 15 -123 85 -172 156 l-39 57 -3 -64 c-4 -99 -16 -103 -22 -9 l-5 85 -42 -71z"
       id="path234"
       style="fill:#8b008b" />
    <path
       d="M5969 3753 c-2 -97 -16 -131 -18 -42 0 42 -4 79 -8 82 -3 4 -21 -19 -39 -51 -42 -75 -102 -136 -148 -153 -42 -15 -44 -25 -15 -82 59 -115 161 -207 229 -207 36 0 38 2 44 41 4 22 28 84 55 137 71 143 71 135 14 195 -28 29 -61 71 -74 95 -13 23 -27 42 -31 42 -5 0 -9 -26 -9 -57z"
       id="path236"
       style="fill:#8b008b" />
    <path
       d="M4335 3723 c-9 -99 -12 -113 -14 -68 -2 22 -6 60 -10 85 l-7 45 -43 -68 c-23 -37 -59 -80 -79 -97 -41 -34 -42 -30 25 -202 42 -108 54 -118 131 -118 55 0 91 21 137 79 33 42 105 171 105 189 0 6 -16 16 -35 22 -45 15 -126 88 -166 151 -18 27 -34 49 -35 49 -1 0 -5 -30 -9 -67z"
       id="path238"
       style="fill:#8b008b" />
    <path
       d="M4816 3745 c-16 -27 -42 -66 -58 -86 -30 -37 -94 -79 -121 -79 -27 0 -29 -18 -8 -65 26 -59 101 -154 146 -184 45 -30 121 -39 161 -18 42 22 85 72 133 151 52 89 53 111 4 131 -46 19 -92 62 -148 137 -24 31 -45 54 -49 51 -3 -4 -6 -40 -6 -81 0 -96 -12 -85 -20 16 l-5 77 -29 -50z"
       id="path240"
       style="fill:#8b008b" />
    <path
       d="M2924 3746 c-132 -59 -91 -248 55 -248 80 0 134 53 134 132 0 89 -105 154 -189 116z"
       id="path242"
       style="fill:#9400d3" />
    <path
       d="M3549 3630 c-30 -16 -93 -39 -140 -52 -46 -12 -85 -22 -87 -23 -1 -1 13 -18 32 -37 41 -41 53 -80 38 -120 -13 -36 1 -47 146 -121 115 -59 225 -101 366 -141 l88 -26 28 20 c15 11 40 24 55 30 l28 11 -59 51 c-95 84 -341 329 -387 386 -23 28 -44 52 -47 51 -3 0 -30 -13 -61 -29z"
       id="path244"
       style="fill:#9370db" />
    <path
       d="M3134 3516 c-145 -66 -203 -299 -99 -403 28 -28 40 -33 79 -33 25 0 46 4 46 9 0 6 -9 25 -20 44 -61 103 -13 251 94 292 44 17 47 17 85 -2 34 -17 41 -18 46 -6 7 21 -15 63 -46 86 -35 25 -142 33 -185 13z"
       id="path246"
       style="fill:#2e8b57" />
    <path
       d="M6940 3519 c-49 -20 -86 -71 -74 -102 4 -11 13 -10 45 6 38 19 41 19 85 2 49 -19 94 -70 115 -132 15 -45 4 -128 -22 -164 -29 -41 -24 -49 27 -49 39 0 51 5 79 33 76 76 70 230 -15 336 -54 69 -162 101 -240 70z"
       id="path248"
       style="fill:#2e8b57" />
    <path
       d="M5140 3393 c0 -64 -3 -113 -7 -109 -5 4 -10 53 -13 109 l-5 102 -32 -57 c-56 -98 -134 -168 -188 -168 -21 0 -19 -9 16 -101 76 -198 165 -282 264 -249 74 24 162 144 199 269 22 76 21 88 -12 94 -40 8 -124 87 -173 163 -23 35 -43 64 -45 64 -2 0 -4 -52 -4 -117z"
       id="path250"
       style="fill:#8b008b" />
    <path
       d="M5699 3418 c-1 -77 -3 -86 -10 -53 -4 22 -8 59 -8 83 -1 23 -4 42 -8 42 -5 0 -24 -28 -43 -61 -43 -75 -119 -146 -166 -155 -19 -3 -34 -8 -34 -11 0 -19 60 -120 94 -158 l41 -47 55 26 c57 27 118 33 150 16 15 -8 25 -4 49 20 16 17 38 30 48 30 13 0 27 18 46 55 33 68 33 71 3 79 -37 9 -132 101 -172 167 -20 32 -38 59 -40 59 -2 0 -5 -42 -5 -92z"
       id="path252"
       style="fill:#8b008b" />
    <path
       d="M4538 3424 c-49 -79 -116 -141 -162 -149 -20 -4 -36 -9 -36 -12 0 -21 59 -117 76 -123 12 -5 29 -18 37 -30 12 -18 19 -20 35 -11 49 26 118 8 173 -45 l35 -34 61 92 c33 51 68 108 77 126 16 30 16 33 -1 38 -67 21 -116 61 -179 146 -47 65 -54 61 -54 -29 0 -75 -10 -62 -18 24 l-7 68 -37 -61z"
       id="path254"
       style="fill:#8b008b" />
    <path
       d="M3202 3362 c-42 -42 -62 -98 -54 -150 4 -27 15 -38 81 -76 153 -90 588 -286 635 -286 7 0 18 22 25 53 6 28 25 76 41 106 17 30 30 58 30 62 0 4 -24 13 -52 19 -206 49 -513 195 -597 284 -34 36 -64 33 -109 -12z"
       id="path256"
       style="fill:#6a5acd" />
    <path
       d="M6911 3381 c-41 -41 -276 -161 -466 -238 -60 -24 -120 -48 -131 -53 -21 -8 -21 -10 17 -84 21 -42 41 -92 45 -111 3 -19 11 -35 18 -35 42 0 342 130 512 222 178 96 176 94 176 156 0 110 -111 203 -171 143z"
       id="path258"
       style="fill:#6a5acd" />
    <path
       d="M4240 3270 c0 -12 -9 -38 -20 -59 l-19 -39 32 -13 c26 -11 114 -14 125 -5 1 2 -9 28 -23 59 -20 42 -33 58 -57 66 -40 14 -38 14 -38 -9z"
       id="path260"
       style="fill:#9400d3" />
    <path
       d="M5947 3214 c-16 -31 -27 -58 -25 -59 7 -7 75 -8 95 -1 20 6 21 9 8 34 -8 15 -17 39 -20 55 -8 42 -28 32 -58 -29z"
       id="path262"
       style="fill:#9400d3" />
    <path
       d="M4774 3089 c-55 -81 -71 -111 -67 -131 5 -28 -9 -25 248 -44 l90 -7 -43 47 c-24 26 -64 89 -88 139 -39 83 -44 89 -44 57 0 -19 -4 -46 -8 -60 -5 -19 -8 -9 -12 40 l-5 65 -71 -106z"
       id="path264"
       style="fill:#8b008b" />
    <path
       d="M5396 3165 c-35 -86 -77 -158 -120 -203 l-50 -53 104 7 c180 11 179 11 198 69 l17 50 -40 50 c-22 28 -47 61 -56 75 -17 25 -17 25 -25 -35 l-9 -60 -5 60 c-4 44 -8 55 -14 40z"
       id="path266"
       style="fill:#8b008b" />
    <path
       d="M4087 3125 c-56 -19 -83 -50 -128 -140 -61 -125 -69 -257 -17 -312 19 -21 124 -61 133 -51 2 2 -3 32 -10 68 -22 99 -19 129 16 180 17 25 50 85 75 135 25 49 51 97 60 106 13 15 12 17 -17 23 -45 9 -69 7 -112 -9z"
       id="path268"
       style="fill:#d2691e" />
    <path
       d="M6058 3134 c-20 -6 -23 -20 -7 -29 6 -4 25 -39 43 -79 18 -39 52 -100 74 -135 47 -72 51 -105 28 -203 -7 -32 -11 -60 -8 -62 8 -8 65 6 103 25 47 23 64 66 63 149 -3 110 -66 250 -138 305 -32 24 -120 40 -158 29z"
       id="path270"
       style="fill:#d2691e" />
    <path
       d="M4270 3103 c-28 -14 -44 -37 -80 -108 -25 -49 -60 -113 -79 -142 l-33 -51 16 -78 c9 -42 22 -84 29 -92 19 -24 89 -52 130 -52 l38 0 -8 38 c-18 93 -9 151 46 266 28 60 63 124 76 142 43 56 29 81 -51 90 -36 4 -58 0 -84 -13z"
       id="path272"
       style="fill:#d2691e" />
    <path
       d="M5862 3110 c-33 -14 -38 -37 -14 -69 11 -15 46 -79 78 -142 l58 -114 0 -97 c-1 -107 -4 -103 61 -98 40 3 81 25 99 53 7 12 19 52 26 89 l12 68 -54 92 c-30 51 -63 112 -73 135 -27 64 -56 86 -117 90 -29 1 -63 -2 -76 -7z"
       id="path274"
       style="fill:#d2691e" />
    <path
       d="M4510 3073 c-40 -14 -87 -77 -141 -187 -62 -126 -70 -164 -51 -271 7 -39 9 -41 72 -62 107 -36 144 -30 207 30 35 33 30 47 -14 47 -18 0 -23 -6 -23 -26 0 -36 -22 -26 -38 17 -23 63 -1 187 58 323 21 49 54 65 48 24 -2 -17 3 -24 20 -26 17 -3 22 2 22 18 0 37 -32 79 -75 100 -42 20 -58 23 -85 13z"
       id="path276"
       style="fill:#d2691e" />
    <path
       d="M5665 3068 c-49 -17 -86 -49 -101 -84 -19 -45 -19 -46 24 -42 31 3 37 6 34 25 -4 31 15 38 32 11 7 -13 31 -65 51 -117 29 -72 38 -110 39 -160 1 -80 -9 -121 -30 -121 -13 0 -15 7 -10 30 6 31 6 31 -32 24 -20 -4 -39 -8 -41 -10 -9 -8 52 -63 90 -80 38 -17 43 -17 113 0 106 25 109 28 114 128 4 83 3 88 -38 179 -61 137 -96 188 -144 210 -46 21 -59 22 -101 7z"
       id="path278"
       style="fill:#d2691e" />
    <path
       d="M3060 2814 c0 -233 0 -235 21 -232 20 3 21 7 19 227 0 123 -3 228 -6 233 -3 4 -12 8 -20 8 -12 0 -14 -37 -14 -236z"
       id="path280"
       style="fill:#7fffd4" />
    <path
       d="M7147 3043 c-4 -3 -7 -109 -7 -235 l0 -229 23 3 22 3 3 233 c2 220 1 232 -16 232 -10 0 -22 -3 -25 -7z"
       id="path282"
       style="fill:#7fffd4" />
    <path
       d="M1904 2999 c-42 -12 -94 -72 -94 -107 0 -120 199 -168 278 -67 77 98 -46 214 -184 174z"
       id="path284"
       style="fill:#6b8e23" />
    <path
       d="M8205 2995 c-55 -20 -85 -57 -85 -104 0 -124 204 -168 280 -61 71 99 -64 213 -195 165z"
       id="path286"
       style="fill:#6b8e23" />
    <path
       d="M4587 2871 c-25 -65 -39 -127 -35 -162 l3 -34 90 -13 c50 -7 224 -15 387 -19 289 -5 398 0 601 28 74 11 77 12 77 38 0 33 -16 93 -41 151 l-20 46 -107 -15 c-147 -20 -685 -20 -834 0 l-107 15 -14 -35z"
       id="path288"
       style="fill:#6a5acd" />
    <path
       d="M1836 2743 c-14 -34 -5 -74 23 -105 24 -27 36 -32 87 -36 50 -3 64 0 94 20 40 27 56 63 46 103 -6 22 -11 26 -29 20 -50 -16 -143 -17 -179 -2 -32 14 -37 14 -42 0z"
       id="path290"
       style="fill:#6b8e23" />
    <path
       d="M8355 2744 c-37 -16 -121 -18 -165 -3 -38 14 -50 3 -50 -47 0 -59 72 -101 158 -91 61 7 102 49 102 107 0 47 -6 51 -45 34z"
       id="path292"
       style="fill:#6b8e23" />
    <path
       d="M4645 2580 c-25 -25 -35 -45 -35 -67 0 -42 -27 -186 -47 -248 -29 -92 -100 -218 -153 -270 -27 -27 -50 -44 -50 -37 0 6 24 49 54 95 29 46 63 102 75 124 48 95 97 334 68 332 -41 -2 -50 -17 -67 -101 -10 -47 -34 -121 -53 -164 -19 -44 -40 -97 -47 -119 -38 -124 -203 -338 -330 -428 l-25 -18 40 6 c142 22 278 102 346 205 9 14 21 21 25 17 13 -13 -36 -95 -80 -134 -70 -61 -241 -131 -326 -134 -22 -1 -20 -3 15 -20 108 -51 351 3 418 93 105 142 223 481 272 779 8 52 15 99 15 105 0 7 -18 14 -40 16 -35 3 -45 -1 -75 -32z"
       id="path294"
       style="fill:#dda0dd" />
    <path
       d="M5536 2612 c-12 -20 40 -302 85 -461 51 -180 132 -349 221 -463 73 -93 268 -130 380 -72 l33 17 -70 13 c-159 28 -288 100 -341 190 -39 66 -27 91 15 32 54 -76 161 -141 281 -173 82 -22 87 -19 32 25 -115 91 -250 298 -310 475 -11 33 -32 84 -47 113 -14 30 -33 85 -42 123 -8 38 -20 69 -27 69 -6 0 -21 3 -32 6 -20 5 -21 3 -17 -43 14 -144 67 -284 160 -424 25 -38 43 -73 39 -77 -13 -12 -100 91 -138 164 -46 87 -85 220 -98 331 -8 74 -13 90 -42 123 -31 36 -70 51 -82 32z"
       id="path296"
       style="fill:#dda0dd" />
    <path
       d="M4780 2601 c0 -41 -24 -223 -41 -311 -83 -435 -273 -763 -547 -941 -40 -27 -82 -51 -93 -54 -51 -16 67 -75 165 -82 152 -12 260 52 331 193 23 44 47 106 55 137 14 60 40 79 40 30 0 -78 -53 -219 -105 -282 -51 -60 8 -28 89 48 72 69 123 142 177 255 105 222 159 482 184 889 7 102 6 107 -13 107 -11 0 -34 3 -51 6 l-31 7 0 -74 c0 -142 -50 -379 -111 -524 -17 -41 -35 -75 -40 -75 -13 0 -11 15 6 57 45 108 73 277 89 536 l4 77 -38 0 c-21 0 -45 3 -54 6 -9 3 -16 1 -16 -5z"
       id="path298"
       style="fill:#dda0dd" />
    <path
       d="M5437 2603 c-8 -13 10 -182 28 -268 9 -44 34 -133 56 -197 41 -125 44 -138 30 -138 -12 0 -76 162 -101 257 -23 87 -50 254 -50 308 0 33 -2 35 -31 35 l-32 0 6 -63 c9 -93 111 -513 147 -604 17 -43 34 -85 37 -93 5 -13 4 -13 -10 0 -24 23 -91 165 -120 255 -40 121 -95 354 -103 435 l-7 72 -30 -6 c-16 -3 -42 -6 -56 -6 l-27 0 8 -72 c41 -349 73 -519 134 -695 92 -271 210 -459 323 -517 37 -20 38 -17 6 33 -47 75 -90 250 -66 265 12 8 21 -10 46 -93 27 -88 55 -139 106 -196 69 -75 129 -99 244 -99 78 0 97 3 142 27 28 14 54 31 57 36 3 4 -22 25 -56 46 -33 21 -89 65 -123 99 -107 105 -261 325 -316 453 -80 182 -159 516 -159 671 l0 62 -39 0 c-22 0 -42 -3 -44 -7z"
       id="path300"
       style="fill:#dda0dd" />
    <path
       d="M5087 2453 c-20 -451 -166 -882 -375 -1113 -41 -46 -51 -63 -56 -104 -9 -76 -53 -199 -95 -263 -37 -56 -109 -130 -161 -165 l-25 -16 28 -11 c45 -18 115 -13 156 10 42 23 75 67 100 135 10 27 24 50 30 52 18 6 12 -79 -9 -127 -24 -53 -24 -51 -1 -51 34 0 77 46 95 102 18 58 60 254 71 331 7 55 28 59 33 7 4 -40 -23 -196 -49 -289 -10 -36 -17 -66 -16 -68 2 -1 16 10 32 27 16 16 39 62 54 106 14 43 32 80 40 82 23 8 7 -101 -23 -155 -15 -25 -25 -47 -24 -49 2 -1 20 4 41 11 88 30 114 83 156 309 9 52 21 91 29 94 10 3 11 -32 6 -180 -5 -148 -3 -186 8 -201 19 -25 44 -13 61 30 12 31 12 43 1 81 -16 51 -19 168 -5 177 12 7 17 -11 31 -100 13 -81 62 -180 102 -203 15 -9 29 -14 32 -11 3 3 -6 27 -19 54 -27 56 -37 136 -18 142 7 3 20 -22 33 -63 19 -64 58 -140 66 -131 2 2 -7 28 -20 58 -37 80 -56 164 -56 246 0 57 3 73 14 73 10 0 17 -16 21 -47 26 -208 97 -382 170 -415 33 -15 40 -6 21 30 -8 16 -18 52 -22 80 -5 43 -4 52 8 52 10 0 24 -23 37 -60 26 -70 58 -112 105 -134 40 -19 109 -20 150 -3 l28 12 -52 34 c-104 67 -181 201 -221 381 -18 83 -22 92 -72 142 -182 183 -344 648 -372 1063 -11 163 -13 175 -39 175 -22 0 -23 -3 -29 -137z m53 -463 c0 -112 -45 -451 -70 -534 -11 -35 -29 -75 -40 -88 l-20 -23 15 36 c39 97 57 231 62 464 5 230 11 267 39 244 10 -8 14 -37 14 -99z m72 -211 c3 -24 12 -134 18 -244 6 -110 14 -216 16 -235 7 -50 -12 -17 -26 46 -36 160 -55 491 -27 482 6 -3 15 -25 19 -49z"
       id="path302"
       style="fill:#dda0dd" />
    <path
       d="M2004 2560 c-17 -7 -22 -20 -27 -67 -16 -143 -19 -305 -8 -423 10 -103 57 -395 77 -475 3 -15 1 -14 -10 5 -22 39 -64 219 -87 374 -23 150 -30 397 -16 519 7 62 6 67 -11 67 -13 0 -24 -13 -35 -40 -9 -23 -54 -98 -101 -168 -98 -146 -118 -203 -118 -327 0 -135 6 -140 59 -48 25 43 59 105 75 138 26 51 29 55 24 25 -4 -19 -34 -93 -68 -164 -60 -125 -62 -133 -66 -220 -4 -99 15 -176 60 -242 l23 -34 5 133 c3 74 11 141 17 152 10 16 11 8 7 -45 -7 -75 15 -234 45 -331 40 -129 129 -232 356 -412 66 -53 121 -94 123 -92 3 2 -34 41 -80 87 -91 89 -130 155 -163 276 -25 89 -13 87 20 -4 37 -103 86 -172 199 -281 52 -51 97 -102 101 -113 12 -37 23 -20 30 45 8 76 -1 176 -22 248 -8 28 -41 94 -74 148 -53 87 -120 225 -119 246 0 4 22 -32 48 -82 26 -49 72 -126 101 -170 74 -107 92 -159 100 -285 l7 -105 12 53 c18 80 15 215 -8 309 -13 56 -47 137 -106 255 -121 241 -164 366 -178 513 -6 56 -4 53 23 -45 29 -106 76 -232 111 -299 l18 -36 17 40 c31 72 39 146 27 237 -18 122 -47 174 -164 287 -100 98 -172 184 -87 105 81 -74 139 -116 139 -100 0 33 -23 123 -41 158 -10 20 -42 56 -71 80 -29 24 -69 60 -90 81 -40 40 -42 40 -74 27z m216 -1005 c0 -5 -5 -3 -10 5 -5 8 -10 20 -10 25 0 6 5 3 10 -5 5 -8 10 -19 10 -25z"
       id="path304"
       style="fill:#7fffd4" />
    <path
       d="M8150 2532 c-20 -20 -59 -56 -88 -80 -29 -24 -59 -56 -67 -72 -18 -34 -48 -160 -41 -168 6 -5 76 48 140 107 l39 36 -22 -32 c-11 -17 -52 -59 -89 -93 -95 -87 -139 -146 -161 -215 -38 -121 -36 -236 4 -332 l17 -38 25 50 c36 70 81 194 108 300 27 103 32 76 9 -45 -22 -120 -63 -226 -167 -438 -114 -231 -133 -302 -124 -469 7 -130 25 -195 26 -94 1 88 20 188 44 236 11 22 42 72 68 112 27 40 72 116 99 170 28 54 48 87 44 73 -9 -38 -98 -217 -144 -289 -45 -73 -56 -104 -71 -211 -11 -77 -4 -210 12 -210 5 0 15 13 23 28 8 16 53 66 101 113 108 105 154 174 196 289 17 50 34 89 36 86 8 -8 -31 -145 -62 -213 -25 -55 -54 -94 -122 -164 l-88 -93 100 77 c130 99 233 190 285 252 92 111 143 274 144 462 1 155 19 117 26 -55 l5 -133 28 43 c43 66 59 137 55 236 -3 83 -6 93 -65 217 -35 72 -65 146 -69 165 -5 30 -2 26 24 -25 16 -33 50 -95 75 -138 40 -70 46 -76 53 -55 4 13 7 64 6 113 -1 122 -24 182 -124 330 -45 66 -87 136 -94 155 -8 23 -19 36 -33 38 -20 3 -21 1 -14 -55 5 -32 7 -134 7 -228 -2 -195 -26 -383 -74 -565 -31 -118 -55 -169 -38 -83 72 378 89 575 69 798 -7 71 -13 130 -14 131 -1 1 -15 4 -32 7 -25 5 -36 0 -65 -31z"
       id="path306"
       style="fill:#7fffd4" />
    <path
       d="M4225 2513 c-24 -127 -182 -291 -340 -354 -33 -13 -62 -24 -64 -26 -11 -7 35 -56 72 -75 35 -19 57 -23 137 -23 82 1 103 4 153 27 111 52 202 163 261 318 42 112 42 109 -46 135 l-76 22 -12 -45 c-16 -65 -115 -209 -138 -201 -6 2 12 38 39 79 47 70 82 155 72 173 -2 4 -15 7 -27 7 -19 0 -25 -7 -31 -37z"
       id="path308"
       style="fill:#dda0dd" />
    <path
       d="M5986 2498 c9 -29 38 -86 65 -127 53 -80 56 -101 8 -56 -44 43 -91 121 -104 174 -7 25 -16 45 -21 44 -89 -19 -144 -39 -144 -52 0 -8 21 -57 46 -109 37 -76 60 -109 122 -171 47 -47 102 -90 142 -111 60 -32 72 -35 155 -35 91 0 130 12 169 50 24 25 20 31 -30 45 -90 25 -215 122 -290 223 -40 54 -54 84 -68 150 -5 22 -12 27 -36 27 l-29 0 15 -52z"
       id="path310"
       style="fill:#dda0dd" />
    <path
       d="M3005 2526 c-50 -23 -80 -62 -80 -108 0 -33 6 -45 37 -73 90 -83 259 -35 262 74 2 89 -122 150 -219 107z"
       id="path312"
       style="fill:#6b8e23" />
    <path
       d="M7085 2526 c-36 -16 -60 -41 -74 -79 -31 -80 77 -163 186 -142 48 9 113 72 113 110 0 90 -129 153 -225 111z"
       id="path314"
       style="fill:#6b8e23" />
    <path
       d="M2946 2274 c-26 -68 39 -144 123 -144 49 0 110 29 126 61 16 31 20 99 6 99 -5 0 -25 -7 -44 -15 -20 -8 -57 -15 -82 -15 -25 0 -62 7 -82 15 -43 18 -40 18 -47 -1z"
       id="path316"
       style="fill:#6b8e23" />
    <path
       d="M7235 2275 c-37 -17 -111 -19 -155 -4 -38 14 -50 3 -50 -48 0 -59 83 -104 166 -88 63 11 104 72 90 130 -7 28 -9 29 -51 10z"
       id="path318"
       style="fill:#6b8e23" />
    <path
       d="M3112 2091 c-21 -13 -34 -133 -34 -321 0 -179 8 -249 57 -518 14 -74 24 -137 22 -139 -6 -5 -55 165 -71 247 -42 212 -60 476 -43 648 8 76 7 82 -10 82 -13 0 -23 -12 -32 -36 -7 -20 -47 -86 -88 -147 -103 -150 -124 -200 -130 -302 -3 -45 -2 -104 1 -130 l8 -48 45 79 c25 44 58 106 74 139 21 43 29 53 29 36 0 -13 -30 -87 -67 -165 l-68 -141 0 -105 c0 -101 2 -109 35 -175 19 -38 40 -71 45 -72 6 -2 10 45 11 125 0 70 5 138 10 151 8 18 11 -3 11 -85 2 -199 58 -376 155 -489 44 -50 247 -223 334 -284 43 -30 37 -22 -42 60 -100 103 -133 157 -165 274 -24 88 -19 112 6 33 37 -111 75 -171 184 -283 59 -60 116 -123 128 -140 l21 -29 7 58 c10 74 0 196 -19 261 -9 28 -44 99 -80 158 -54 91 -136 269 -136 295 0 4 24 -42 54 -103 29 -60 83 -155 119 -211 69 -105 96 -177 98 -264 1 -25 5 -58 8 -75 7 -27 8 -25 16 25 12 84 8 207 -10 287 -11 47 -49 139 -112 265 -52 106 -108 231 -124 278 -27 83 -65 267 -56 276 3 3 13 -28 22 -68 30 -122 117 -348 136 -348 4 0 16 21 26 48 14 36 18 73 17 157 -1 165 -17 199 -163 349 -64 66 -111 117 -106 114 6 -4 42 -31 80 -62 78 -62 84 -60 65 27 -15 73 -52 131 -113 176 -29 21 -65 53 -81 70 -30 31 -50 38 -74 22z"
       id="path320"
       style="fill:#7fffd4" />
    <path
       d="M7025 2054 c-146 -132 -142 -128 -164 -198 -12 -38 -21 -79 -21 -93 l0 -24 45 32 c25 18 65 52 90 75 89 86 42 29 -75 -91 -81 -83 -126 -137 -139 -169 -47 -109 -52 -271 -11 -363 l22 -48 29 65 c41 88 93 241 109 318 20 99 24 64 5 -49 -22 -136 -61 -242 -157 -434 -110 -220 -129 -275 -135 -407 -6 -116 3 -222 18 -213 5 4 9 33 9 65 0 118 26 194 107 307 24 35 69 111 99 170 30 60 52 97 48 83 -11 -43 -89 -201 -142 -288 -67 -110 -94 -242 -78 -376 8 -58 20 -72 31 -35 4 12 58 75 121 140 115 120 143 163 184 279 28 79 42 98 29 39 -33 -151 -73 -225 -183 -338 -105 -109 -100 -108 46 6 227 177 314 280 359 423 30 97 52 247 46 320 l-5 65 14 -45 c10 -30 14 -79 12 -148 -2 -64 1 -101 7 -99 6 1 26 34 45 72 33 66 35 74 35 175 l0 105 -67 140 c-38 77 -68 152 -67 165 0 22 2 21 13 -10 8 -19 36 -73 63 -120 27 -47 53 -94 57 -105 16 -37 28 43 24 146 -6 116 -24 160 -131 318 -42 60 -81 126 -88 146 -8 22 -19 35 -31 35 -21 0 -21 2 -7 -131 13 -126 -1 -327 -36 -534 -21 -122 -73 -321 -81 -312 -2 2 12 90 31 195 48 265 59 418 45 612 -9 121 -15 158 -28 168 -26 20 -44 14 -97 -34z"
       id="path322"
       style="fill:#7fffd4" />
  </g>
</svg>
