<?xml version="1.0" standalone="no"?>
<!DOCTYPE svg PUBLIC "-//W3C//DTD SVG 20010904//EN"
 "http://www.w3.org/TR/2001/REC-SVG-20010904/DTD/svg10.dtd">
<svg version="1.0" xmlns="http://www.w3.org/2000/svg"
 width="1024.000000pt" height="1024.000000pt" viewBox="0 0 1024.000000 1024.000000"
 preserveAspectRatio="xMidYMid meet">
<metadata>
Created by potrace 1.14, written by Peter Selinger 2001-2017
</metadata>
<g transform="translate(0.000000,1024.000000) scale(0.100000,-0.100000)"
fill="#000000" stroke="none">
<path d="M4973 9865 c-12 -8 -24 -28 -28 -44 -6 -27 -8 -28 -55 -23 -52 5
-217 -12 -282 -29 -30 -8 -45 -6 -69 7 -37 19 -139 13 -174 -10 -11 -8 -35
-17 -54 -21 -25 -5 -37 -15 -45 -36 -8 -23 -20 -32 -51 -40 -150 -38 -393
-150 -577 -266 -94 -59 -260 -181 -305 -222 -12 -12 -31 -21 -43 -21 -43 0
-145 -63 -167 -103 -7 -12 -12 -30 -13 -40 0 -11 -28 -49 -61 -85 -87 -94
-190 -229 -253 -330 -144 -235 -267 -519 -292 -681 -6 -35 -13 -47 -41 -63
-44 -27 -55 -50 -48 -101 5 -33 3 -46 -9 -56 -25 -21 -20 -51 12 -62 28 -10
29 -10 21 -68 -50 -361 -49 -854 1 -986 10 -25 8 -31 -15 -52 -28 -26 -33 -70
-10 -79 18 -7 19 -46 3 -90 -16 -46 2 -66 54 -62 l40 3 22 -70 c12 -38 32 -89
44 -112 15 -29 20 -51 16 -73 -4 -19 -1 -45 9 -68 16 -38 53 -494 41 -513 -3
-5 -11 -9 -18 -9 -14 0 -59 -45 -75 -77 -16 -31 -14 -90 6 -130 10 -22 12 -37
6 -41 -5 -4 -58 -38 -116 -75 -59 -38 -107 -73 -107 -77 0 -20 20 -60 31 -60
6 0 24 9 41 21 16 12 31 20 33 18 2 -2 -30 -54 -72 -115 -68 -101 -74 -113
-62 -132 11 -17 11 -24 1 -34 -25 -25 -9 -120 17 -104 7 5 11 -8 11 -39 0 -39
-6 -54 -34 -87 l-34 -40 19 -56 c10 -30 25 -63 33 -71 7 -9 16 -43 19 -76 4
-49 1 -65 -13 -83 -21 -26 -14 -68 20 -114 15 -20 20 -43 20 -90 0 -94 21
-157 53 -162 10 -1 23 -11 31 -21 12 -16 11 -23 -5 -49 -11 -17 -19 -38 -19
-47 0 -24 37 -67 81 -95 l39 -24 0 -68 c0 -77 24 -172 44 -172 22 0 46 -34 36
-50 -17 -26 -11 -50 17 -75 24 -21 39 -24 97 -25 58 0 67 2 62 16 -4 10 6 31
25 55 24 31 29 45 24 68 -5 24 1 40 29 83 20 29 36 57 36 61 0 5 11 23 25 39
l25 30 -20 28 c-18 25 -19 34 -9 79 12 56 12 56 39 41 21 -11 18 -18 54 122 8
31 20 66 26 78 7 12 13 73 15 135 4 109 3 113 -21 136 l-25 24 26 21 c27 21
27 22 16 92 -15 96 -14 143 4 213 14 54 14 62 0 82 -12 17 -14 36 -9 78 l6 55
-83 78 c-89 83 -89 84 9 23 62 -39 87 -42 99 -11 4 11 -16 37 -63 85 -62 62
-66 69 -43 69 17 0 30 9 43 31 10 17 16 32 14 33 -1 2 -39 25 -83 51 -44 26
-101 61 -127 77 l-47 30 22 30 c33 44 30 124 -6 171 -15 20 -36 39 -47 42 -19
6 -20 15 -20 166 0 104 3 158 10 154 6 -3 10 -10 10 -15 0 -14 108 -199 143
-245 17 -22 49 -60 73 -85 23 -25 44 -54 46 -65 2 -11 14 -25 27 -32 14 -6 28
-19 33 -27 5 -9 18 -16 28 -16 13 0 20 -7 20 -19 0 -27 25 -44 59 -39 26 4 37
-4 97 -70 37 -41 100 -99 141 -129 40 -29 73 -60 73 -67 0 -8 7 -19 15 -26 8
-6 26 -32 40 -57 24 -43 25 -54 25 -194 l0 -149 -35 0 c-21 0 -43 -8 -54 -19
-46 -46 -55 -200 -14 -243 19 -20 20 -27 11 -63 -6 -23 -8 -57 -4 -77 7 -41
41 -88 62 -88 11 0 14 -22 14 -118 l0 -119 -139 -136 c-77 -75 -142 -141 -146
-147 -3 -5 1 -22 9 -37 12 -24 12 -31 0 -48 -8 -10 -14 -34 -14 -52 0 -21 -10
-43 -29 -65 -15 -18 -36 -60 -46 -93 -9 -33 -28 -74 -41 -92 -20 -26 -24 -43
-24 -98 0 -62 1 -67 20 -62 18 5 20 0 20 -41 0 -37 -7 -54 -40 -98 -45 -60
-50 -92 -19 -135 17 -24 19 -33 9 -45 -9 -10 -10 -30 -5 -67 4 -28 7 -65 6
-82 0 -16 -2 -42 -2 -58 -2 -39 30 -108 50 -105 11 2 19 -12 30 -50 13 -48 13
-57 -3 -89 -14 -29 -16 -51 -10 -119 4 -47 11 -87 17 -91 5 -3 20 7 33 23 l23
29 2 -50 c1 -27 1 -76 0 -107 -3 -53 -1 -59 21 -67 45 -17 50 -34 28 -82 -33
-73 -27 -101 31 -160 28 -28 48 -56 46 -62 -3 -7 -12 -28 -20 -48 -13 -28 -13
-40 -4 -60 16 -32 53 -37 62 -9 13 40 30 15 30 -43 1 -47 5 -61 27 -84 14 -16
28 -40 32 -55 9 -38 48 -62 98 -60 26 1 48 -4 59 -14 13 -12 28 -15 51 -10 66
13 67 18 32 153 -5 17 0 22 25 28 17 3 40 18 50 31 16 20 18 30 9 54 -8 25 -6
35 12 60 19 26 27 30 51 25 24 -6 31 -2 40 19 9 20 8 35 -4 72 -17 52 -8 99
25 122 22 16 23 50 2 80 -13 19 -13 28 -4 58 8 24 17 34 26 30 23 -9 34 37 34
144 0 112 15 199 36 207 11 4 14 31 14 120 0 100 3 118 20 140 26 33 25 45 -5
81 -31 37 -33 98 -5 144 26 42 26 98 0 131 -25 32 -25 53 0 95 17 27 21 55 24
166 3 93 0 141 -8 157 -9 16 -9 31 -3 46 13 31 4 48 -41 77 -38 24 -39 26 -46
98 -4 40 -12 79 -18 86 -6 7 -8 27 -5 46 6 40 2 45 -92 102 l-65 39 37 3 c35
3 37 5 37 37 0 38 -1 39 -105 55 -127 20 -115 8 -115 109 0 88 0 89 29 100 44
19 55 49 48 135 -4 58 -2 78 9 87 22 18 36 87 29 140 -9 63 -42 113 -78 117
l-27 3 0 160 c0 117 3 158 11 153 7 -4 41 -29 76 -56 76 -57 124 -83 213 -114
56 -20 66 -27 76 -56 6 -19 25 -42 45 -55 19 -12 45 -30 59 -40 42 -31 57 -32
115 -12 l57 20 62 -20 c94 -31 228 -51 345 -51 l106 0 20 -52 c13 -36 30 -59
52 -73 35 -22 38 -34 49 -191 l6 -91 -28 -7 c-68 -17 -74 -27 -74 -132 0 -95
16 -154 41 -154 8 0 7 -5 -1 -15 -15 -18 -14 -128 0 -156 5 -9 21 -20 35 -23
24 -6 25 -9 25 -84 l0 -78 -120 -99 c-67 -54 -128 -103 -136 -109 -10 -8 -13
-21 -8 -44 8 -38 13 -39 62 -9 83 53 83 46 -4 -54 -146 -168 -149 -174 -136
-217 9 -29 9 -39 -3 -52 -33 -36 -48 -99 -69 -285 -2 -22 -12 -55 -22 -74 -9
-18 -17 -52 -16 -75 0 -22 -6 -51 -14 -63 -17 -27 -18 -54 -2 -105 9 -29 9
-41 0 -50 -13 -13 -16 -109 -5 -171 4 -28 10 -37 20 -32 12 4 14 -4 9 -47 -3
-29 -9 -82 -12 -118 -3 -36 -11 -71 -16 -77 -7 -9 -4 -26 10 -55 22 -44 28
-114 16 -180 -4 -28 -2 -40 13 -55 14 -15 18 -34 18 -98 0 -45 -6 -90 -13
-102 -6 -12 -12 -32 -11 -45 1 -39 23 -93 39 -93 25 0 39 -28 34 -66 -5 -30
-1 -40 25 -67 24 -23 30 -37 26 -54 -7 -27 18 -104 42 -130 9 -10 24 -18 33
-18 33 0 40 -21 19 -61 -10 -21 -19 -52 -19 -69 0 -38 24 -86 49 -99 12 -7 21
-27 26 -57 4 -31 16 -56 33 -74 15 -15 43 -51 64 -82 21 -32 48 -60 67 -67 27
-12 30 -18 33 -60 l3 -46 80 2 c50 1 108 11 153 25 64 20 81 31 129 81 52 54
55 60 49 96 -5 33 -1 44 34 90 37 50 38 56 32 105 -7 55 -7 64 -4 145 2 44 5
52 18 47 27 -11 33 3 20 47 -10 34 -10 52 -1 83 7 24 10 74 7 122 -4 73 -3 82
12 76 14 -5 16 6 18 97 3 147 3 159 -7 203 -8 38 -7 39 18 33 29 -8 32 -2 42
74 5 44 4 58 -9 68 -10 8 -16 29 -16 54 0 32 3 38 12 29 7 -7 18 -12 26 -12
21 0 10 150 -12 166 -20 14 -22 56 -2 48 9 -3 15 5 20 27 11 57 6 78 -26 114
-23 27 -32 48 -36 86 -4 43 -2 49 12 43 11 -4 16 -1 16 12 -1 40 -28 175 -39
187 -6 8 -18 44 -26 82 -12 52 -13 70 -4 75 15 10 3 134 -15 150 -8 6 -16 47
-21 101 -5 75 -11 96 -29 114 -12 12 -20 27 -18 34 10 29 -30 100 -76 136 -26
21 -38 35 -27 31 11 -4 32 -10 48 -13 25 -5 27 -3 27 30 0 32 -4 37 -35 47
-32 10 -35 15 -35 49 0 35 -4 40 -40 56 -23 10 -48 32 -59 51 -14 24 -40 43
-88 66 -37 18 -71 38 -75 43 -4 6 -8 56 -8 111 l0 101 40 7 c22 3 43 14 49 24
15 28 22 105 13 137 -7 23 -4 36 11 57 15 20 21 48 25 120 l5 94 -31 26 c-17
14 -49 29 -72 33 l-40 7 0 72 c0 40 3 101 6 135 6 54 10 64 34 76 17 9 35 33
48 63 l21 49 128 6 c221 11 452 55 553 107 24 12 41 15 51 9 23 -15 128 -8
152 11 12 9 34 20 49 24 15 3 39 22 54 41 19 26 34 35 55 35 51 0 214 59 277
100 l62 40 0 -150 0 -150 -33 0 c-46 0 -73 -32 -87 -106 -14 -69 -2 -130 29
-158 17 -15 17 -20 4 -58 -22 -65 1 -136 53 -167 l34 -20 0 -85 c0 -96 14 -83
-120 -106 -92 -16 -110 -25 -110 -54 0 -30 16 -41 55 -38 25 2 16 -6 -53 -50
l-83 -53 6 -39 c3 -24 2 -42 -5 -46 -6 -4 -14 -41 -17 -83 l-6 -75 -45 -32
c-42 -30 -44 -33 -38 -70 3 -22 2 -41 -4 -45 -6 -4 -10 -64 -10 -149 0 -124 2
-146 19 -167 30 -40 32 -77 4 -118 -28 -41 -26 -78 7 -123 30 -40 27 -108 -5
-138 -30 -28 -32 -61 -5 -85 18 -16 20 -31 20 -137 0 -65 4 -118 9 -118 19 0
33 -73 36 -188 5 -128 16 -178 40 -169 9 4 17 -5 25 -28 9 -28 9 -39 -4 -57
-20 -29 -21 -74 -1 -82 9 -3 23 -22 31 -42 14 -33 14 -40 0 -69 -31 -65 -12
-114 39 -101 21 5 28 1 45 -26 14 -24 18 -42 14 -66 -8 -39 13 -68 57 -77 34
-8 35 -14 10 -95 l-19 -62 33 -14 c43 -18 65 -17 89 1 13 10 32 13 56 9 30 -5
42 -1 68 21 18 15 32 36 32 49 0 12 11 32 25 44 30 27 40 63 27 101 -7 20 -7
32 1 40 16 16 25 14 32 -9 9 -27 41 -25 61 4 14 23 14 28 -5 71 -24 54 -21 65
26 101 19 15 41 41 49 60 12 30 11 37 -12 89 -27 63 -23 78 24 96 23 9 24 13
19 58 -3 27 -3 75 0 107 l6 57 23 -29 c16 -19 27 -25 34 -18 5 5 12 64 14 129
3 117 12 159 54 258 8 21 14 51 13 67 -4 59 -4 86 4 137 5 36 4 57 -4 67 -9
11 -7 21 9 48 28 47 25 72 -15 125 -29 38 -35 54 -35 94 0 37 4 49 15 49 12 0
15 14 15 67 0 57 -4 71 -24 92 -13 15 -33 58 -44 96 -13 43 -31 80 -47 95 -17
16 -25 34 -25 59 0 20 -7 44 -14 54 -12 16 -12 24 -1 51 l14 32 -145 181 -144
182 0 84 c0 81 1 84 30 105 35 27 47 76 32 140 -9 40 -8 49 11 73 39 54 32
194 -14 240 -10 10 -32 19 -49 19 l-30 0 0 163 0 164 25 11 c26 12 85 105 85
135 0 10 8 20 18 24 82 30 233 162 293 259 29 47 38 54 66 54 43 0 106 71 100
112 -3 21 6 39 36 75 22 27 59 74 82 105 l42 56 7 -75 c3 -42 6 -97 6 -122 0
-42 -3 -47 -33 -62 -36 -17 -77 -86 -77 -129 0 -15 11 -49 25 -75 13 -27 23
-50 22 -51 -1 -1 -51 -32 -112 -69 -152 -94 -149 -91 -128 -126 12 -20 25 -29
42 -29 24 0 24 -1 -15 -42 -96 -104 -98 -106 -84 -123 19 -23 35 -19 115 35
41 28 76 50 79 50 3 0 -35 -39 -84 -88 l-89 -87 9 -50 c6 -37 5 -56 -5 -71
-12 -18 -11 -32 5 -94 16 -61 17 -86 9 -154 -14 -122 -13 -131 16 -144 l26
-12 -24 -33 c-22 -30 -24 -39 -21 -136 3 -69 9 -112 18 -126 8 -12 25 -62 37
-111 25 -99 33 -114 51 -96 19 19 25 15 38 -34 12 -41 11 -50 -5 -80 -18 -34
-18 -35 3 -57 12 -13 22 -27 22 -31 0 -4 18 -34 41 -67 32 -47 39 -66 34 -88
-4 -21 1 -36 25 -66 17 -21 28 -45 26 -52 -15 -38 120 -25 166 16 30 27 30 28
14 59 -16 31 -16 31 14 54 43 31 64 107 55 193 l-7 65 35 15 c39 16 87 68 87
93 0 9 -9 32 -20 50 -16 27 -18 36 -8 52 7 10 21 20 33 22 30 4 57 88 49 155
-4 44 -1 59 20 96 30 50 34 108 10 128 -13 11 -15 25 -9 72 3 33 13 70 21 83
9 13 22 44 30 70 l14 47 -35 38 c-23 26 -35 49 -35 68 0 16 -3 37 -7 46 -5 14
-2 16 14 11 18 -6 21 -1 27 39 5 33 3 51 -8 67 -14 19 -14 24 -1 38 13 14 6
28 -64 126 -44 60 -77 111 -76 113 2 2 20 -7 40 -19 39 -24 50 -20 60 22 7 28
13 24 -174 140 l-59 37 19 38 c36 71 16 155 -47 196 -29 19 -33 26 -29 57 2
19 7 107 10 195 5 140 8 162 26 181 21 22 25 55 9 84 -8 15 -4 31 19 72 16 29
34 70 41 91 8 25 17 37 30 37 10 0 28 12 39 27 18 21 20 34 15 73 -6 42 -4 48
15 53 22 5 28 36 11 53 -7 7 -3 30 11 70 63 179 101 574 82 859 -8 134 -7 152
8 172 19 27 31 122 21 178 -5 30 -16 45 -42 63 -33 22 -35 27 -66 170 -47 217
-108 385 -205 572 -106 201 -232 379 -380 534 -38 40 -69 79 -69 86 0 15 -40
83 -52 88 -4 2 -8 9 -8 16 0 8 -10 26 -22 41 -18 24 -26 26 -59 21 -34 -5 -46
0 -134 59 -53 35 -150 94 -215 130 -118 65 -466 237 -505 249 -11 3 -29 21
-39 40 -18 34 -52 56 -86 56 -10 0 -22 5 -25 10 -3 6 -17 10 -31 10 -14 0 -34
9 -46 20 -29 26 -63 25 -90 -2 -13 -13 -26 -22 -29 -21 -63 21 -234 43 -368
48 -145 5 -166 8 -177 24 -21 29 -61 35 -104 13 -36 -18 -38 -18 -60 0 -27 22
-49 23 -77 3z m62 -17 c72 -33 87 -346 19 -406 -42 -37 -49 -25 -51 87 -1 56
-9 136 -17 177 -19 91 -20 126 -4 142 15 15 21 15 53 0z m140 6 c27 -11 44
-59 57 -158 22 -178 -12 -276 -98 -276 -39 0 -38 -4 -23 107 11 77 3 205 -17
280 -5 16 1 25 23 37 32 18 36 18 58 10z m380 -64 c19 -7 25 -21 36 -80 10
-60 10 -84 -2 -144 l-14 -71 -80 3 c-44 1 -116 5 -160 8 l-80 5 0 97 c0 53 -4
121 -9 151 l-8 54 147 -7 c81 -4 157 -11 170 -16z m305 0 c27 -15 40 -64 40
-156 0 -116 -45 -235 -101 -264 -43 -24 -82 39 -43 70 42 35 63 184 41 292 -6
27 -4 40 8 52 19 19 29 20 55 6z m-135 -29 l50 -16 3 -95 c4 -111 -2 -151 -26
-179 -16 -20 -19 -20 -77 -5 -33 8 -65 17 -72 19 -8 3 -8 16 3 51 18 59 18
135 0 202 l-13 52 41 -6 c23 -4 64 -14 91 -23z m-782 4 c20 -19 40 -136 35
-205 l-3 -55 -90 -6 c-49 -4 -120 -10 -157 -14 l-68 -8 0 33 c0 46 -28 149
-51 189 -11 19 -16 38 -11 43 12 12 176 36 259 37 51 1 76 -3 86 -14z m-406
-15 c76 -46 134 -269 83 -320 -11 -11 -23 -20 -27 -20 -5 0 -8 33 -9 73 -1 79
-23 143 -81 235 -27 43 -30 52 -15 52 9 0 31 -9 49 -20z m-47 -51 c72 -111 98
-251 56 -298 -25 -27 -36 -27 -36 2 0 67 -65 237 -116 304 -30 40 -25 53 22
53 31 0 38 -6 74 -61z m1472 21 c29 -56 25 -210 -6 -276 -27 -59 -57 -84 -100
-84 -27 0 -28 1 -14 18 54 60 82 166 76 287 -3 82 -2 95 12 93 8 -2 23 -19 32
-38z m57 10 c68 -36 57 -263 -16 -350 -24 -29 -56 -39 -67 -21 -3 5 1 14 9 21
8 6 24 37 36 68 24 64 30 206 11 253 -15 37 -5 47 27 29z m-1644 -34 c58 -76
124 -253 110 -297 -4 -10 -15 -24 -25 -29 -15 -8 -21 -6 -30 9 -5 11 -10 28
-10 39 0 20 -72 170 -114 239 -24 38 -25 43 -10 57 24 25 51 19 79 -18z m-77
-68 c38 -63 102 -193 102 -209 0 -11 -31 -27 -99 -52 -55 -20 -103 -37 -108
-37 -5 0 -16 13 -26 29 -33 57 -145 126 -234 146 -18 3 -33 10 -33 14 0 18
314 140 362 141 9 0 25 -15 36 -32z m2014 -83 c20 -10 39 -27 42 -39 19 -70
-6 -180 -54 -238 l-31 -37 -72 33 c-204 95 -190 86 -172 106 28 31 56 120 62
200 l6 78 91 -43 c50 -23 108 -50 128 -60z m356 -219 c5 -59 -23 -138 -69
-189 -22 -26 -45 -47 -51 -47 -6 0 -66 30 -135 66 l-124 66 19 22 c43 45 65
107 70 188 l5 78 141 -73 c140 -74 141 -75 144 -111z m-2693 143 c73 -27 144
-76 172 -118 l23 -34 -97 -52 c-54 -28 -126 -68 -161 -88 -35 -20 -69 -37 -76
-37 -6 0 -27 15 -45 34 -40 41 -137 92 -208 108 -29 7 -53 16 -53 19 0 8 160
112 250 163 73 41 97 42 195 5z m1005 -14 c0 -47 49 -67 84 -34 5 5 15 1 21
-8 16 -22 77 -21 110 1 14 9 32 30 40 47 l16 30 107 -6 c119 -7 230 -20 310
-37 47 -10 52 -14 52 -38 0 -14 6 -35 14 -45 12 -16 8 -24 -41 -73 -180 -183
-385 -633 -544 -1197 l-34 -120 -8 55 c-40 279 -194 756 -381 1180 -97 219
-90 197 -73 223 14 22 27 25 149 36 73 7 140 14 148 15 23 4 30 -3 30 -29z
m-426 -149 c-60 -147 -117 -455 -145 -783 l-12 -143 -35 0 -35 0 6 228 c7 312
43 517 119 685 27 59 34 67 58 67 15 0 33 7 40 15 7 8 18 15 25 15 8 0 1 -29
-21 -84z m142 -81 c144 -325 255 -632 329 -910 28 -105 67 -303 63 -316 -2 -5
-29 20 -61 56 -56 63 -60 70 -87 178 -44 173 -55 212 -103 352 -50 145 -174
461 -235 602 l-40 91 26 56 c14 31 29 53 33 49 4 -4 38 -75 75 -158z m-274
132 l24 -24 -24 -54 c-64 -145 -107 -413 -117 -719 -3 -102 -9 -186 -14 -188
-5 -2 -27 15 -50 37 -149 143 -362 286 -616 413 -55 28 -101 51 -103 53 -16
14 83 86 328 241 64 40 174 101 260 144 80 40 267 119 282 120 4 0 18 -10 30
-23z m1418 -26 c0 -4 -21 -27 -46 -51 -88 -87 -207 -290 -299 -515 -44 -107
-130 -365 -175 -525 l-33 -115 -65 -60 c-36 -33 -68 -61 -72 -63 -16 -6 115
408 200 635 122 320 318 646 421 695 29 15 69 14 69 -1z m136 1 c50 1 510
-229 675 -338 64 -42 67 -46 72 -91 6 -56 27 -76 64 -62 32 12 33 12 33 -8 0
-13 -29 -33 -95 -65 -181 -91 -427 -258 -587 -400 l-68 -59 6 44 c9 64 -13
302 -42 445 -28 144 -80 332 -124 451 -33 89 -29 108 16 91 12 -5 35 -8 50 -8z
m825 -57 c55 -35 99 -68 99 -73 0 -5 -12 -19 -26 -33 -19 -18 -105 -139 -141
-198 -1 -2 -39 20 -83 49 l-80 53 39 42 c42 46 81 137 81 190 0 19 3 35 6 35
4 0 51 -29 105 -65z m-888 -102 c54 -161 98 -342 122 -503 18 -116 26 -352 13
-365 -4 -4 -23 -4 -43 -1 l-35 7 0 111 c0 124 -19 269 -56 433 -25 107 -83
314 -104 369 -5 15 -10 29 -10 31 0 7 54 55 61 55 4 0 27 -62 52 -137z m-2238
53 c64 -33 136 -87 135 -104 -1 -5 -253 -176 -281 -190 -3 -1 -11 16 -18 40
-14 46 -127 168 -156 168 -28 0 -12 22 56 78 l64 53 65 -5 c47 -4 85 -15 135
-40z m968 -191 c84 -203 197 -511 197 -536 0 -4 -15 5 -32 22 -87 78 -221 77
-341 -4 -16 -11 -31 -16 -34 -13 -17 16 58 525 97 661 11 38 20 72 20 75 1 12
23 -37 93 -205z m1175 93 c71 -230 116 -440 127 -593 l6 -90 -25 31 c-66 81
-216 135 -312 114 -57 -13 -119 -54 -173 -116 -23 -26 -41 -44 -41 -41 0 3 21
65 46 139 53 152 139 353 191 448 44 79 133 210 143 210 4 0 21 -46 38 -102z
m1189 55 c13 -20 12 -22 -17 -39 -36 -22 -99 -109 -139 -193 -36 -77 -48 -91
-77 -91 -30 0 -40 36 -24 85 16 50 110 184 160 229 46 41 74 44 97 9z m-3673
-57 c46 -19 112 -80 142 -132 19 -33 24 -54 22 -91 -4 -65 -24 -66 -67 -3 -39
59 -126 141 -182 173 -21 12 -39 25 -39 29 0 10 52 37 73 38 10 0 33 -6 51
-14z m3714 -23 c4 -40 -16 -87 -73 -172 -85 -127 -135 -159 -135 -86 0 46 81
203 131 254 47 49 73 51 77 4z m-3825 -39 c47 -24 134 -100 179 -157 21 -27
37 -51 35 -54 -2 -2 -42 19 -89 46 -46 28 -113 62 -149 77 -35 15 -66 29 -67
30 -7 5 10 44 24 59 19 19 28 19 67 -1z m3857 -65 c-20 -69 -128 -229 -155
-229 -30 0 -18 30 46 120 38 52 76 115 86 139 14 38 18 41 24 23 4 -12 4 -35
-1 -53z m81 -46 c25 -27 60 -66 78 -87 l34 -40 -6 -88 c-5 -73 -11 -98 -37
-146 -28 -54 -84 -111 -96 -99 -3 3 -43 63 -90 133 -51 78 -82 133 -77 140 40
55 97 148 116 186 12 26 24 47 27 48 3 0 26 -21 51 -47z m-3958 -51 c40 -37
90 -82 112 -100 l40 -32 -56 -56 -56 -56 -44 23 c-36 18 -67 23 -172 28 l-129
6 51 66 c61 81 160 189 173 189 5 0 41 -30 81 -68z m209 -64 c33 -23 36 -43 7
-58 -27 -15 -69 12 -174 115 l-80 77 110 -57 c60 -31 122 -66 137 -77z m256
-61 c193 -99 397 -237 537 -361 54 -48 53 -55 -4 -75 -33 -11 -36 -9 -85 37
-105 98 -252 200 -458 317 l-138 78 0 38 0 38 38 -17 c20 -10 70 -35 110 -55z
m-165 -42 c19 -283 103 -565 214 -718 l35 -48 -17 -46 -18 -46 -34 54 c-79
123 -164 329 -205 494 -27 110 -33 360 -9 388 7 10 17 17 21 17 4 0 10 -43 13
-95z m3356 49 c36 -7 42 -33 10 -41 -122 -32 -491 -279 -666 -446 -42 -40 -64
-44 -103 -17 -41 29 356 326 618 462 100 52 96 51 141 42z m497 -67 c28 -39
75 -111 104 -160 l53 -87 -17 -61 c-24 -88 -60 -152 -106 -192 -66 -56 -72
-54 -115 27 -21 39 -58 104 -82 145 l-44 75 40 37 c55 49 93 134 99 221 2 37
7 68 11 68 3 0 29 -33 57 -73z m-3932 -59 c19 -248 107 -517 241 -738 36 -60
44 -90 23 -90 -7 0 -62 7 -123 16 -188 28 -432 14 -688 -39 -4 -1 -15 10 -23
24 -16 24 -15 30 21 120 61 155 199 427 273 540 90 137 204 259 242 259 27 0
27 0 34 -92z m231 14 c142 -80 302 -186 365 -241 l45 -40 -50 6 c-68 7 -153
-12 -208 -47 -59 -37 -96 -108 -106 -199 l-6 -66 -29 60 c-43 88 -83 213 -106
328 -22 111 -40 267 -30 267 3 0 59 -31 125 -68z m3269 41 c-51 -229 -156
-551 -221 -678 l-21 -39 -7 54 c-24 181 -125 279 -305 298 l-71 7 98 76 c173
135 347 242 465 288 69 26 69 26 62 -6z m56 -65 c0 -48 -41 -240 -81 -377 -34
-120 -104 -294 -150 -378 -36 -63 -107 -173 -114 -173 -2 0 -9 25 -15 56 -10
46 -9 58 3 72 28 31 106 186 151 300 51 126 101 283 141 442 38 147 34 138 51
116 8 -11 14 -37 14 -58z m-3797 19 c20 -9 37 -21 37 -27 0 -6 -18 -34 -39
-63 -22 -29 -57 -81 -79 -117 -43 -71 -34 -68 -147 -55 -55 7 -199 -12 -252
-32 -11 -5 -6 11 19 58 47 86 94 164 130 217 l31 44 131 -4 c91 -3 143 -9 169
-21z m3910 -155 c157 -247 277 -490 335 -673 46 -145 47 -154 11 -180 -25 -18
-30 -27 -27 -51 3 -18 1 -27 -6 -24 -214 95 -459 145 -658 134 -63 -4 -86 -2
-80 6 4 6 25 38 46 71 114 173 228 492 277 772 6 40 16 70 20 67 4 -2 41 -57
82 -122z m-1318 41 c98 -34 175 -120 175 -195 0 -38 0 -38 -39 -38 -33 0 -44
6 -68 34 -97 117 -218 116 -332 -4 -25 -26 -59 -71 -76 -98 -25 -42 -102 -108
-113 -98 -2 2 9 46 23 97 29 102 53 147 124 222 94 101 182 124 306 80z
m-1027 -17 c40 -21 88 -71 113 -119 21 -40 82 -257 72 -257 -3 0 -25 15 -47
34 -28 22 -55 60 -79 109 -78 158 -173 192 -290 103 -20 -16 -47 -26 -66 -26
-32 0 -32 1 -29 43 3 38 8 45 52 75 92 61 200 76 274 38z m-37 -133 c35 -30
89 -109 89 -130 0 -8 -22 0 -62 21 -35 19 -97 44 -138 57 -41 13 -77 25 -79
26 -5 4 35 34 59 45 8 4 34 7 57 7 31 1 49 -6 74 -26z m2864 -65 c24 -51 59
-137 79 -191 41 -110 42 -104 -26 -195 -43 -57 -118 -112 -154 -112 -18 0 -26
10 -40 52 -9 29 -37 96 -60 150 -24 54 -44 102 -44 107 0 5 13 14 29 20 59 25
141 144 157 226 3 19 8 35 11 35 2 0 24 -42 48 -92z m-1810 57 c23 -13 50 -36
59 -50 l16 -25 -49 0 c-70 0 -181 -25 -264 -60 -39 -16 -73 -28 -75 -25 -9 9
78 112 120 142 53 37 63 41 112 42 25 1 55 -8 81 -24z m-2777 -14 c23 -5 45
-11 48 -14 5 -4 -48 -119 -120 -264 -1 -1 -28 6 -61 14 -49 13 -76 14 -150 5
-49 -6 -98 -13 -107 -17 -27 -11 -23 6 28 126 l46 109 56 16 c103 30 189 38
260 25z m1131 -36 c14 -13 21 -28 17 -32 -4 -4 -52 -10 -106 -13 -91 -5 -102
-8 -137 -36 -50 -40 -73 -87 -73 -149 0 -37 -7 -60 -26 -88 -14 -21 -30 -35
-36 -31 -18 11 -38 72 -38 116 1 109 42 193 113 229 63 33 94 39 182 33 68 -4
84 -9 104 -29z m271 -15 c0 -17 7 -65 16 -106 8 -42 14 -78 12 -79 -2 -2 -21
-5 -42 -7 -39 -3 -39 -3 -73 64 -19 36 -37 82 -40 101 -5 35 -5 36 38 45 79
18 89 16 89 -18z m162 14 c4 -2 0 -20 -8 -40 -8 -20 -18 -64 -21 -100 l-6 -64
-34 0 c-40 0 -48 16 -63 121 -14 97 -10 103 64 94 33 -3 64 -8 68 -11z m122
-45 c6 -5 3 -24 -7 -46 -9 -21 -22 -58 -28 -83 -7 -25 -14 -46 -15 -48 -1 -2
-21 2 -44 8 l-43 11 6 57 c3 31 13 76 22 99 l17 42 41 -16 c23 -9 46 -20 51
-24z m-425 -20 c7 -27 26 -74 42 -104 l28 -53 -40 -16 c-21 -9 -46 -16 -53
-16 -25 0 -126 137 -126 171 0 14 95 65 126 68 5 1 16 -22 23 -50z m2202 31
c35 -11 81 -33 102 -51 95 -79 135 -270 75 -366 -11 -18 -23 -33 -27 -33 -4 0
-18 22 -31 49 -19 41 -22 59 -16 106 14 119 -36 201 -142 231 -54 16 -86 14
-177 -11 -11 -3 -27 -1 -35 5 -12 8 -8 17 27 50 40 37 46 40 102 40 32 0 87
-9 122 -20z m-657 -19 c8 -12 30 -161 25 -165 -2 -2 -23 -6 -47 -9 -47 -6 -41
-16 -61 103 -8 49 -8 66 2 72 17 11 75 10 81 -1z m141 -78 c-1 -46 -6 -88 -12
-94 -6 -6 -25 -8 -46 -4 -33 7 -35 9 -41 58 -4 29 -10 69 -13 90 l-6 38 59 -3
59 -3 0 -82z m103 62 c29 -9 52 -19 52 -23 0 -6 -8 -42 -35 -159 l-5 -22 -53
18 c-34 12 -51 23 -48 32 2 8 6 49 9 92 3 50 9 77 16 77 7 0 36 -7 64 -15z
m-1978 1 c0 -2 -24 -19 -52 -38 -29 -19 -79 -59 -110 -89 -56 -53 -58 -54 -58
-28 0 60 39 120 95 145 26 12 125 20 125 10z m697 -17 c23 -14 33 -27 30 -38
-6 -19 -58 -145 -62 -149 -1 -1 -18 5 -36 15 -19 10 -36 19 -37 20 -6 3 17
101 32 138 17 41 27 42 73 14z m932 -23 c13 -51 15 -123 4 -129 -5 -3 -22 -8
-38 -11 -30 -7 -31 -6 -64 74 -18 45 -31 83 -30 84 9 6 76 24 95 25 17 1 24
-8 33 -43z m-1597 -18 c8 -18 37 -59 63 -91 26 -32 46 -59 44 -60 -2 -1 -18
-12 -36 -25 -43 -29 -53 -28 -90 11 -34 36 -93 121 -93 134 1 10 71 62 86 63
6 0 17 -15 26 -32z m2088 5 c70 -30 71 -34 23 -131 -37 -74 -44 -77 -93 -52
-35 18 -41 25 -36 43 6 22 24 100 32 145 2 12 6 22 9 22 2 0 31 -12 65 -27z
m-623 -30 c27 -63 43 -103 43 -109 0 -3 -19 -13 -42 -23 l-43 -18 -34 71 c-19
39 -37 74 -39 79 -3 6 72 46 89 47 3 0 15 -21 26 -47z m889 16 c67 -32 103
-107 89 -183 l-7 -35 -51 55 c-27 30 -90 81 -139 114 -97 64 -97 67 6 69 42 1
73 -5 102 -20z m-1572 -32 l30 -24 -26 -59 c-14 -33 -29 -69 -32 -81 -7 -22
-7 -22 -51 9 -25 18 -45 35 -45 38 0 11 38 117 50 139 12 24 22 20 74 -22z
m583 -63 c18 -32 33 -66 33 -74 0 -19 -82 -68 -88 -52 -2 6 -21 38 -42 71
l-39 60 42 31 c23 16 46 29 52 27 5 -2 24 -30 42 -63z m862 35 c28 -18 51 -39
51 -46 0 -19 -80 -173 -89 -173 -12 0 -102 73 -98 79 2 3 21 43 43 88 21 46
40 83 41 83 1 0 24 -14 52 -31z m-2335 -14 c10 -19 40 -58 65 -86 l47 -53 -37
-33 c-31 -28 -41 -32 -57 -24 -28 15 -91 87 -110 127 l-17 36 38 34 c20 19 40
34 45 34 4 0 16 -16 26 -35z m990 -163 l-29 -81 -42 41 c-24 23 -43 48 -43 55
0 8 14 44 30 80 l31 67 40 -41 41 -41 -28 -80z m-389 132 c160 -41 338 -193
474 -403 23 -36 43 -66 45 -68 2 -2 22 22 46 53 61 81 175 199 242 250 73 57
187 117 263 140 95 28 239 25 341 -9 94 -31 214 -106 278 -172 238 -249 143
-752 -252 -1330 -117 -172 -214 -288 -366 -441 -208 -209 -372 -321 -485 -332
-137 -13 -351 119 -612 378 -349 346 -597 761 -664 1114 -18 96 -19 260 -1
343 39 180 175 351 351 441 104 53 227 66 340 36z m-1707 -10 c12 -4 22 -11
22 -18 0 -10 -78 -207 -84 -214 -2 -1 -18 4 -37 12 -48 20 -145 28 -207 18
l-53 -9 7 41 c3 23 14 66 23 96 16 53 19 56 61 67 48 12 230 17 268 7z m2465
-46 c51 -81 51 -82 4 -121 l-43 -35 -39 75 -40 75 33 29 c18 16 37 29 42 29 6
0 25 -24 43 -52z m1105 -1 c23 -23 42 -48 42 -54 0 -12 -128 -153 -139 -153
-4 0 -18 14 -30 31 l-23 31 48 94 c26 52 51 94 54 94 3 0 25 -19 48 -43z
m-2554 -21 c14 -25 46 -62 69 -82 l44 -38 -31 -43 c-16 -24 -33 -43 -38 -43
-28 0 -138 133 -138 169 0 17 47 81 60 81 4 0 20 -20 34 -44z m1161 -35 l27
-40 -27 -80 c-15 -45 -28 -81 -29 -81 -2 0 -17 18 -34 39 l-32 39 21 64 c21
62 36 98 43 98 2 0 16 -18 31 -39z m195 -41 c17 -33 30 -65 30 -73 0 -7 -18
-30 -39 -51 -39 -38 -39 -38 -46 -15 -4 13 -19 50 -33 82 l-25 58 33 34 c18
19 37 32 42 29 5 -3 22 -32 38 -64z m2460 23 c15 -55 52 -244 48 -248 -5 -5
-260 -36 -264 -32 -10 9 -32 113 -26 118 4 4 23 12 43 18 48 15 111 70 150
131 18 28 34 50 35 50 2 0 8 -17 14 -37z m-1165 -58 c22 -45 25 -58 15 -70
-15 -18 -159 -109 -164 -104 -2 2 -10 19 -19 38 l-17 33 73 79 c39 43 75 78
78 78 3 1 18 -24 34 -54z m-2732 0 c28 -44 83 -99 108 -107 11 -4 10 -13 -5
-46 -17 -37 -22 -41 -45 -36 -53 12 -141 90 -141 124 0 17 41 110 49 110 3 0
19 -20 34 -45z m1364 -121 c4 -24 -2 -41 -28 -77 -19 -25 -37 -46 -41 -46 -9
-1 -58 85 -58 102 0 39 41 146 58 149 19 4 59 -71 69 -128z m-2376 50 c30 -18
60 -66 48 -78 -2 -2 -27 0 -54 6 -60 12 -298 16 -338 5 -25 -7 -28 -5 -25 14
4 27 44 58 89 70 19 4 82 7 140 5 84 -2 113 -6 140 -22z m811 -24 c77 -12 78
-13 72 -39 -4 -14 -9 -29 -13 -33 -3 -4 -38 -2 -76 3 -157 24 -531 7 -672 -31
-25 -6 -35 -4 -48 10 -34 37 -6 55 130 80 173 31 445 36 607 10z m2987 -46
c15 -59 10 -65 -91 -104 -81 -32 -97 -30 -98 7 0 6 -3 18 -6 27 -4 10 8 22 43
39 26 14 66 38 88 55 22 16 43 28 46 26 4 -2 12 -24 18 -50z m-2756 -59 c23
-11 43 -19 44 -20 1 -1 -2 -18 -8 -38 -12 -46 -33 -48 -106 -12 -79 40 -87 53
-73 120 l12 57 44 -44 c24 -25 63 -53 87 -63z m-1064 37 c19 -4 36 -13 39 -20
3 -9 -33 -12 -150 -12 -84 0 -170 -3 -190 -6 -34 -6 -38 -4 -38 14 0 17 8 22
38 27 20 4 44 8 52 10 21 6 208 -4 249 -13z m701 -18 c0 -3 -11 -20 -24 -37
-94 -123 -87 -269 19 -386 21 -23 32 -41 25 -41 -27 0 -211 105 -302 173 -100
75 -278 232 -278 247 0 7 56 19 180 39 62 10 380 14 380 5z m162 -10 l28 -6
-57 -51 c-31 -29 -62 -66 -70 -84 -35 -85 1 -190 93 -271 36 -31 54 -55 54
-70 0 -21 -3 -23 -32 -17 -71 14 -96 27 -145 78 -29 29 -64 78 -79 111 -22 49
-26 68 -22 120 6 71 24 110 75 167 39 43 46 44 155 23z m-499 -266 c182 -139
329 -214 474 -244 79 -17 93 -25 93 -56 0 -24 -44 -23 -151 3 -108 26 -279
109 -393 191 -121 85 -336 293 -336 323 0 61 10 57 122 -50 61 -58 147 -134
191 -167z m-343 232 c32 -20 -11 -28 -170 -31 -91 -1 -178 -1 -193 -1 -39 3
-29 25 14 33 55 10 333 10 349 -1z m4250 -15 c175 -34 370 -105 370 -135 0
-10 7 -23 15 -30 35 -29 10 -25 -62 11 -136 67 -339 108 -616 125 -103 6 -117
9 -117 25 0 11 10 19 28 23 53 9 298 -3 382 -19z m770 0 c36 -32 24 -40 -63
-41 -45 0 -127 -8 -182 -18 -139 -24 -140 -24 -140 -1 0 30 55 52 170 69 122
18 188 15 215 -9z m-1200 -55 c0 -81 0 -81 -123 -84 l-72 -1 -3 41 c-3 39 -2
41 35 52 21 7 61 23 88 36 74 36 75 36 75 -44z m-2962 -62 c-1 -68 2 -152 7
-188 l7 -65 -32 30 c-87 82 -113 188 -64 261 20 30 69 81 81 84 1 0 1 -55 1
-122z m126 58 c21 -9 47 -16 57 -16 16 0 19 -8 19 -41 l0 -42 -48 5 c-27 3
-66 13 -88 24 -38 19 -39 20 -42 78 l-3 59 34 -25 c18 -15 50 -33 71 -42z
m-607 -296 c153 -103 261 -153 398 -185 27 -7 22 -10 -60 -36 -176 -57 -466
-216 -646 -355 -61 -47 -94 -55 -103 -26 -29 91 -34 392 -11 632 23 254 28
285 38 292 6 3 71 -52 144 -123 85 -82 173 -154 240 -199z m-417 303 c0 -10
-3 -41 -6 -69 l-6 -52 -48 -5 c-63 -8 -154 -41 -213 -77 l-48 -30 6 48 c4 26
10 79 13 117 l7 70 60 6 c33 3 99 6 148 7 77 2 87 0 87 -15z m4000 -18 c12
-11 37 -53 58 -94 32 -65 37 -84 37 -145 -1 -53 -6 -81 -22 -112 -25 -46 -95
-120 -132 -138 -33 -16 -141 -40 -148 -32 -3 3 1 23 8 43 11 28 27 45 62 64
57 31 106 75 119 109 26 67 -1 165 -67 246 -19 23 -35 52 -35 64 0 21 4 22 50
18 29 -3 59 -13 70 -23z m310 -15 c109 -18 230 -53 280 -80 l23 -12 -29 -24
c-75 -63 -324 -220 -435 -274 -68 -32 -125 -58 -127 -55 -2 2 8 16 22 32 101
108 98 255 -9 417 l-19 29 89 -6 c50 -4 142 -16 205 -27z m768 18 c22 -22 13
-48 -21 -63 -78 -32 -342 -44 -370 -16 -22 22 21 48 101 60 42 7 93 16 112 20
54 14 164 13 178 -1z m-1127 -157 c27 -59 28 -124 2 -159 -24 -33 -100 -92
-118 -92 -11 0 -11 8 1 46 17 58 44 221 44 271 l1 38 24 -30 c14 -16 34 -50
46 -74z m-2988 73 c17 -9 54 -19 82 -23 49 -6 50 -6 50 -41 0 -31 -3 -35 -30
-38 -32 -4 -132 15 -139 26 -2 4 -7 26 -11 50 -8 48 -1 51 48 26z m2897 -28
c0 -19 -4 -46 -10 -60 -9 -24 -14 -26 -67 -25 -32 1 -71 4 -88 8 -27 6 -30 10
-30 46 l0 40 84 7 c46 4 86 9 89 12 14 14 22 3 22 -28z m1201 -27 c-47 -38
-305 -53 -344 -20 -36 30 -7 40 128 46 72 2 153 10 180 17 47 12 50 12 53 -7
2 -11 -5 -27 -17 -36z m-384 -16 c4 -12 -124 -121 -213 -181 -156 -105 -392
-209 -596 -262 -62 -16 -113 -28 -115 -26 -2 1 3 19 11 38 13 31 20 36 59 41
180 25 544 209 764 387 42 34 50 37 67 26 11 -7 21 -17 23 -23z m-4698 -25
c-1 -29 -4 -86 -8 -127 l-6 -73 -57 -18 c-64 -20 -123 -52 -193 -106 -26 -19
-49 -33 -53 -30 -3 3 -1 66 4 140 8 105 14 139 28 154 27 30 127 80 192 96 95
23 94 24 93 -36z m4764 -18 c12 -11 -10 -429 -33 -627 -11 -92 -28 -199 -37
-237 -16 -62 -21 -71 -47 -77 -27 -7 -34 -2 -98 66 -121 129 -287 252 -520
385 -71 40 -116 71 -107 74 8 3 56 19 108 37 123 40 247 95 362 160 92 52 267
178 303 218 19 21 48 21 69 1z m310 -105 c9 -136 7 -139 -78 -183 -40 -20 -65
-25 -127 -26 -42 -1 -79 2 -83 5 -3 4 -3 75 1 158 l7 151 81 1 c45 0 101 4
126 8 25 5 50 7 55 6 6 -1 14 -55 18 -120z m-4016 98 l61 -5 4 -42 c3 -22 3
-43 1 -45 -2 -3 -25 -4 -52 -3 -62 1 -121 25 -121 49 0 10 -3 29 -7 42 -6 22
-4 23 23 17 16 -4 57 -10 91 -13z m2804 -16 c3 -1 1 -22 -5 -47 l-11 -45 -60
3 c-33 1 -73 6 -90 10 -27 8 -30 12 -27 43 2 19 6 37 8 40 3 6 164 2 185 -4z
m-2764 -99 c29 1 33 -2 43 -36 17 -62 17 -62 -62 -62 -40 0 -78 4 -84 8 -10 6
-34 73 -34 95 0 5 24 6 53 2 28 -5 66 -7 84 -7z m2711 -18 c36 0 36 1 20 -51
-10 -34 -15 -39 -41 -39 -17 0 -57 7 -90 17 l-59 16 7 36 c4 20 9 39 11 42 2
4 30 0 61 -7 32 -8 73 -14 91 -14z m-3828 -204 l0 -134 -49 -17 c-61 -20 -129
-63 -190 -120 l-48 -45 -7 31 c-3 17 -6 82 -6 144 l0 113 68 50 c71 52 112 76
171 97 63 24 61 27 61 -119z m3758 102 c67 -14 71 -19 51 -77 -7 -20 -18 -31
-30 -31 -23 0 -140 38 -152 49 -4 4 0 24 8 45 13 32 20 37 38 32 12 -3 50 -12
85 -18z m-2568 -34 c6 -18 9 -38 5 -44 -3 -5 -40 -10 -81 -10 -81 0 -80 0 -97
70 l-6 25 84 -3 84 -3 11 -35z m3906 -141 c-8 -176 -22 -281 -39 -301 -35 -44
-166 -66 -267 -46 -32 7 -32 8 -27 53 4 25 11 111 17 191 16 205 5 185 103
185 74 0 90 3 143 32 32 17 63 32 68 32 5 1 6 -61 2 -146z m-4083 105 c8 -27
1 -38 -24 -38 -27 0 -171 -51 -261 -93 -139 -64 -356 -198 -539 -333 -48 -35
-89 -64 -93 -64 -13 0 -5 48 10 61 9 8 13 21 10 35 -5 19 8 32 82 87 216 161
476 294 677 347 97 26 131 26 138 -2z m2641 -23 c20 -9 59 -21 86 -28 l49 -13
-20 -43 c-17 -39 -21 -43 -46 -36 -30 7 -143 56 -143 61 0 5 33 74 36 74 1 0
18 -7 38 -15z m-2429 -41 c8 -20 15 -40 15 -45 0 -5 -36 -9 -81 -9 l-80 0 -15
35 c-7 19 -14 37 -14 39 0 3 35 7 78 9 42 1 78 4 79 5 2 1 10 -14 18 -34z
m-195 -2 c0 -9 -11 -33 -24 -53 -37 -54 -48 -105 -31 -145 17 -41 43 -55 117
-61 45 -5 61 -10 69 -26 8 -15 8 -22 -2 -28 -19 -12 -80 -29 -105 -29 -46 0
-129 35 -167 72 -39 36 -39 39 -35 95 3 47 12 70 41 114 36 55 55 66 130 78 4
0 7 -7 7 -17z m-166 -67 c-39 -67 -48 -117 -29 -162 23 -54 43 -73 110 -104
54 -24 57 -28 35 -33 -141 -32 -381 -49 -577 -40 -90 4 -163 10 -163 14 0 12
241 171 356 235 92 51 267 133 287 134 4 1 -4 -19 -19 -44z m237 -92 l38 -83
-35 0 c-50 0 -103 25 -114 54 -11 30 0 72 31 123 l23 36 10 -24 c5 -13 26 -61
47 -106z m2531 92 c29 -14 60 -25 68 -25 37 -1 43 -16 20 -59 -18 -35 -24 -41
-43 -35 -39 11 -107 47 -123 65 -14 16 -14 20 1 48 8 17 17 31 19 31 2 0 28
-11 58 -25z m316 -14 c139 -70 345 -202 457 -292 100 -81 225 -215 225 -242 0
-12 -9 -33 -19 -46 l-19 -24 -17 34 c-25 48 -136 161 -225 229 -110 84 -255
177 -419 268 l-144 81 34 9 c53 16 66 14 127 -17z m-2677 -22 c26 -53 18 -59
-77 -59 l-70 0 -17 35 c-9 20 -17 40 -17 45 0 5 35 11 78 13 42 1 78 4 79 5 2
1 12 -17 24 -39z m2666 -107 c5 -21 8 -71 8 -112 0 -61 -5 -85 -26 -125 -31
-61 -92 -110 -163 -130 -46 -14 -63 -14 -140 -2 -48 8 -89 17 -92 20 -4 3 4
20 16 36 16 24 29 31 54 31 78 0 165 49 196 110 25 49 25 100 -1 170 -31 84
-32 89 -25 105 5 14 19 9 86 -25 72 -38 80 -45 87 -78z m-3927 -9 c6 -53 14
-101 16 -108 3 -7 -25 -23 -68 -40 -40 -15 -101 -43 -135 -61 -34 -19 -65 -34
-70 -34 -11 0 -33 88 -33 129 0 21 14 41 53 78 67 63 127 99 223 133 1 0 7
-43 14 -97z m3646 17 l34 -11 -20 -40 c-12 -23 -28 -39 -38 -39 -19 0 -142 75
-142 87 0 5 9 23 20 40 l20 33 46 -30 c26 -16 62 -34 80 -40z m128 -101 c1
-63 -18 -99 -66 -129 -34 -21 -126 -46 -135 -37 -3 3 15 41 40 84 24 43 61
112 82 153 l38 75 21 -45 c12 -27 20 -67 20 -101z m-2457 85 l22 -39 -23 -12
c-13 -7 -48 -15 -78 -19 l-55 -6 -26 45 c-15 25 -27 50 -27 56 0 8 117 20 155
16 6 -1 20 -19 32 -41z m2798 -74 c193 -122 418 -311 396 -333 -19 -19 -320
-20 -522 -2 -107 10 -202 20 -212 24 -14 5 -7 12 32 30 107 48 158 152 148
297 l-6 83 47 -28 c26 -15 79 -47 117 -71z m-578 20 c37 -22 70 -40 75 -40 13
0 9 -23 -10 -52 l-18 -28 -50 25 c-27 14 -62 35 -77 47 -28 23 -28 24 -12 56
9 17 19 32 21 32 3 0 35 -18 71 -40z m-2167 -42 c11 -18 20 -37 20 -41 0 -9
-70 -40 -113 -51 -24 -6 -30 -2 -57 41 l-30 48 66 12 c37 7 69 15 72 18 11 11
23 4 42 -27z m2112 -48 c35 -22 69 -40 76 -40 6 0 12 -5 12 -10 0 -18 -44 -80
-57 -80 -16 0 -133 98 -133 111 0 10 30 59 36 59 2 0 32 -18 66 -40z m-2284
-9 l22 -39 -52 -20 c-145 -54 -353 -82 -602 -82 -164 0 -456 19 -456 30 0 4
19 20 43 37 l43 31 154 -10 c263 -17 592 15 752 72 72 25 71 25 96 -19z
m-1108 0 c0 -13 -21 -26 -75 -45 -27 -10 -110 -47 -183 -83 -74 -36 -136 -62
-139 -60 -9 10 6 42 25 54 58 36 198 107 244 123 55 20 128 26 128 11z m4935
-142 c-15 -56 -31 -111 -36 -121 -9 -17 -11 -17 -48 1 -21 11 -80 32 -132 47
-52 14 -95 27 -96 28 -2 1 4 34 12 72 8 38 15 72 15 75 0 3 51 4 113 2 94 -3
119 -1 152 15 37 17 40 17 43 2 2 -10 -9 -64 -23 -121z m-3594 100 c25 -35 26
-33 -53 -74 -59 -31 -62 -31 -87 3 -32 46 -30 51 39 76 83 31 75 31 101 -5z
m2067 -113 c1 -6 -10 -26 -25 -44 l-28 -33 -67 61 -68 61 26 39 26 39 67 -56
c36 -31 67 -61 69 -67z m-3438 82 c0 -7 -4 -18 -8 -24 -7 -11 -310 -154 -326
-154 -4 0 -6 10 -4 23 3 25 51 53 208 124 98 44 130 52 130 31z m1189 -14 c6
-15 10 -27 9 -28 -213 -136 -444 -463 -587 -831 -24 -61 -47 -114 -51 -119 -5
-4 -15 5 -24 22 -8 16 -22 32 -30 35 -12 5 -8 23 23 104 99 260 201 445 330
603 109 132 236 231 307 239 6 0 16 -11 23 -25z m240 -38 c12 -18 21 -36 21
-39 0 -10 -103 -67 -122 -67 -19 0 -67 62 -52 67 5 2 36 19 69 37 33 19 61 35
62 35 1 1 11 -14 22 -33z m-1392 -30 c-5 -14 -292 -163 -341 -177 -46 -12 -65
-1 -50 31 6 13 57 42 149 83 77 35 158 73 180 84 37 20 41 20 53 5 7 -9 11
-21 9 -26z m918 -14 c-132 -126 -230 -262 -324 -449 -49 -99 -131 -292 -131
-310 0 -4 -9 -23 -21 -42 l-20 -33 -26 23 c-45 41 -137 172 -181 256 -36 70
-40 82 -27 93 27 22 15 110 -18 132 -6 3 -11 19 -13 35 -4 33 -36 63 -69 63
-32 0 -41 15 -65 112 -20 77 -21 91 -9 118 l14 31 90 -8 c50 -4 216 -8 370 -7
241 1 294 4 380 22 55 11 102 20 105 21 3 0 -22 -25 -55 -57z m259 -44 c-44
-146 -13 -262 83 -309 39 -18 65 -23 145 -23 93 -1 128 -11 115 -33 -4 -6 -24
-22 -47 -38 -37 -26 -47 -28 -138 -28 -80 0 -106 4 -150 23 -107 47 -161 156
-149 306 6 85 14 97 92 150 64 44 74 34 49 -48z m2096 23 l68 -58 -20 -32
c-11 -17 -24 -31 -29 -31 -14 0 -117 93 -124 112 -5 15 19 68 32 68 3 0 36
-26 73 -59z m-2002 -73 c33 -46 92 -121 131 -168 l71 -85 -82 -3 c-144 -5
-208 49 -208 175 0 56 16 163 25 163 2 0 31 -37 63 -82z m209 7 c-4 -12 -106
-75 -122 -75 -7 0 -24 17 -38 37 l-26 37 57 28 c31 16 62 34 67 39 11 12 67
-48 62 -66z m-1488 3 c6 -29 19 -75 28 -103 15 -46 15 -50 -2 -60 -10 -5 -64
-42 -121 -82 l-104 -72 -16 24 c-17 26 -60 147 -66 183 -3 20 13 31 127 92 72
38 133 69 137 70 3 0 11 -24 17 -52z m3224 -25 l66 -61 -33 -38 -33 -38 -66
63 -66 64 27 38 c15 21 30 38 33 36 4 -1 36 -30 72 -64z m260 14 c129 -86 277
-250 387 -427 53 -86 170 -314 170 -332 0 -5 -18 -8 -39 -8 l-39 0 -60 114
c-89 169 -207 341 -318 465 -49 55 -168 161 -200 179 -17 9 -17 11 0 36 10 16
22 24 29 20 7 -4 38 -25 70 -47z m1218 32 c120 -31 209 -73 209 -100 0 -23
-166 1 -271 41 -72 26 -94 43 -86 64 9 22 50 21 148 -5z m-1041 -19 c221 -31
425 -43 621 -36 160 6 177 5 183 -11 10 -24 -1 -30 -93 -48 -111 -23 -402 -16
-626 14 -166 23 -176 26 -255 92 l-25 21 25 -6 c14 -3 91 -15 170 -26z m-2634
-108 c0 -79 4 -107 23 -150 44 -98 129 -148 270 -159 86 -7 86 -7 -46 -79
-146 -80 -374 -172 -576 -234 -60 -17 -110 -30 -112 -28 -17 17 159 376 253
518 54 81 174 230 185 230 1 0 2 -44 3 -98z m520 42 c31 -40 34 -37 -58 -84
l-56 -29 -27 35 c-15 19 -25 38 -22 40 13 13 113 72 124 73 7 1 24 -15 39 -35z
m1867 -5 c47 -40 47 -41 47 -102 0 -136 -45 -221 -141 -270 -87 -44 -227 -47
-288 -8 -27 17 6 38 80 50 80 13 131 36 173 77 51 51 61 81 62 184 1 52 2 98
3 103 2 14 17 6 64 -34z m1193 22 c46 -22 196 -61 235 -61 35 0 44 -14 22 -35
-21 -22 -76 -15 -204 25 -107 33 -135 50 -126 74 8 21 24 20 73 -3z m-1456
-75 l62 -59 -19 -25 c-44 -58 -55 -55 -135 41 l-41 48 29 30 c15 16 31 28 35
27 4 -2 35 -30 69 -62z m180 -21 c0 -125 -83 -214 -224 -239 l-39 -7 19 24
c11 13 53 64 94 113 41 49 89 108 105 131 34 46 45 41 45 -22z m440 40 c278
-35 575 -30 691 10 l37 13 7 -36 c6 -31 0 -50 -40 -129 -42 -82 -50 -92 -69
-87 -27 7 -50 -18 -43 -46 3 -10 -1 -24 -9 -31 -8 -6 -14 -28 -14 -48 0 -77
-111 -233 -193 -269 -23 -10 -48 -26 -56 -35 -12 -15 -18 -6 -56 77 -96 214
-215 393 -364 550 -35 37 -49 56 -36 52 11 -3 76 -13 145 -21z m789 -1 c57
-28 235 -75 275 -72 46 3 57 -13 30 -44 -41 -45 -220 -1 -311 76 -18 15 -33
34 -33 42 0 17 0 17 39 -2z m-2935 -48 l26 -35 -57 -40 c-31 -23 -62 -41 -69
-41 -6 0 -26 16 -44 36 l-32 37 54 29 c29 16 57 33 62 38 17 17 33 11 60 -24z
m1506 -127 c0 -3 -16 -20 -35 -39 l-35 -34 -25 24 c-39 37 -88 118 -79 132 4
7 16 23 27 36 l21 22 62 -67 c35 -38 63 -70 64 -74z m439 64 c39 -43 105 -125
145 -183 82 -117 216 -346 216 -371 0 -13 -10 -14 -67 -8 -162 18 -336 76
-573 192 l-165 80 73 8 c86 8 167 44 210 94 42 47 72 133 72 205 0 33 4 60 9
60 5 0 41 -35 80 -77z m1019 23 c32 -19 84 -42 117 -51 107 -31 102 -21 58
-105 -24 -46 -44 -74 -53 -73 -8 1 -55 16 -105 33 -49 17 -107 33 -127 36 -21
4 -38 8 -38 10 0 1 18 36 40 76 22 40 40 81 40 91 0 23 3 22 68 -17z m-4457 3
c20 -20 20 -21 3 -47 -38 -58 -178 -249 -202 -274 -43 -46 -92 -32 -92 25 0
49 213 317 251 317 10 0 28 -9 40 -21z m1562 -107 c-21 -18 -51 -40 -68 -49
-29 -15 -30 -15 -57 18 -15 18 -26 34 -24 36 2 2 30 23 62 48 l59 44 33 -32
33 -32 -38 -33z m-1700 76 c-5 -7 -45 -60 -88 -117 l-79 -103 -18 22 c-36 45
-19 70 111 159 78 53 90 59 74 39z m2974 -55 c17 -27 43 -59 57 -72 l26 -25
-27 -28 c-15 -15 -32 -28 -39 -28 -14 0 -75 80 -95 123 -11 24 -10 30 11 52
13 14 26 25 30 25 4 0 21 -21 37 -47z m-2793 1 c24 -23 20 -77 -6 -101 -26
-24 -179 -123 -190 -123 -9 0 164 239 174 240 4 0 14 -7 22 -16z m1582 -123
l-55 -55 -38 30 c-20 17 -38 34 -39 40 -1 5 25 30 59 55 l62 47 33 -31 32 -31
-54 -55z m1157 17 l55 -76 -30 -29 -30 -28 -21 27 c-12 15 -35 53 -51 83 l-29
56 23 24 c13 14 24 24 26 22 1 -1 27 -36 57 -79z m-1363 -70 c-118 -107 -318
-226 -512 -302 -110 -44 -333 -107 -425 -120 -38 -6 -42 -4 -50 22 -17 51 -10
56 150 106 200 63 351 122 500 197 113 56 309 178 323 201 4 6 21 -4 38 -22
l31 -32 -55 -50z m2878 83 c76 -39 252 -181 252 -203 0 -15 -46 -1 -115 34
-110 55 -204 141 -191 174 7 18 9 18 54 -5z m-2566 -18 c15 -15 28 -32 28 -38
0 -6 -22 -33 -49 -59 l-50 -49 -35 27 c-20 15 -36 30 -36 34 0 7 102 112 109
112 3 0 18 -12 33 -27z m943 -2 c3 -10 23 -46 44 -79 l39 -60 -27 -26 c-15
-14 -30 -26 -34 -26 -3 0 -27 35 -52 77 l-45 77 27 28 c32 33 40 35 48 9z
m1801 -22 c128 -41 163 -79 114 -124 -19 -17 -21 -17 -67 26 -27 24 -72 61
-100 83 -79 56 -77 57 53 15z m-4316 -214 c18 -27 50 -67 69 -88 l36 -40 -25
-16 c-47 -29 -91 -83 -127 -155 -19 -39 -37 -73 -39 -75 -20 -21 -262 349
-276 421 -2 12 30 37 117 91 l119 75 46 -82 c25 -44 61 -103 80 -131z m1348
196 c11 -6 7 -19 -17 -57 -101 -158 -161 -486 -148 -806 2 -71 3 -128 0 -128
-2 0 -17 7 -32 15 -37 19 -41 42 -41 231 0 308 73 610 173 712 44 45 45 46 65
33z m2742 0 c0 -17 125 -104 203 -141 42 -20 74 -40 70 -43 -15 -15 -67 -5
-124 23 -114 56 -188 122 -175 156 6 15 26 19 26 5z m-2431 -30 l25 -19 -42
-56 c-47 -61 -64 -67 -99 -34 l-23 21 48 53 c26 28 52 52 57 53 6 0 21 -8 34
-18z m813 -59 l47 -77 -31 -27 c-20 -18 -36 -24 -43 -18 -6 5 -26 40 -45 79
l-34 71 24 25 c13 14 26 25 29 25 3 -1 27 -35 53 -78z m-1068 39 c10 -10 21
-45 26 -77 14 -100 42 -149 102 -180 37 -19 68 -18 130 6 l52 19 35 -21 c20
-12 38 -23 40 -24 2 -2 -2 -16 -8 -32 -11 -25 -24 -33 -88 -52 -103 -31 -203
-26 -260 12 -51 34 -91 111 -105 206 -11 67 -10 71 16 116 30 52 36 54 60 27z
m1392 -27 c97 -57 291 -150 409 -197 188 -73 387 -112 503 -97 28 3 52 3 52 0
0 -4 -14 -19 -32 -34 -30 -24 -39 -26 -128 -26 -237 0 -502 83 -810 253 -58
32 -114 64 -124 72 -19 15 -19 16 9 45 16 16 32 30 36 30 4 0 42 -21 85 -46z
m-1028 -30 c2 -1 -15 -32 -38 -68 -40 -63 -43 -66 -64 -53 -11 8 -30 20 -42
27 -21 13 -20 14 29 76 l50 63 31 -21 c17 -12 32 -23 34 -24z m2395 -35 c32
-21 78 -45 103 -55 24 -9 44 -22 44 -29 0 -17 -59 -103 -128 -187 l-55 -67
-56 48 c-31 26 -81 65 -111 86 -30 21 -57 40 -59 42 -2 1 19 27 46 57 27 30
65 83 83 119 l34 64 20 -20 c12 -11 47 -37 79 -58z m-1774 -13 c38 -74 40 -80
23 -93 -50 -39 -51 -39 -87 41 -19 41 -35 79 -35 85 0 9 51 54 56 49 1 -2 20
-39 43 -82z m-1204 -5 c-65 -159 -99 -393 -94 -638 l4 -163 -27 -6 c-15 -3
-30 -10 -33 -15 -12 -18 -51 -8 -128 30 -98 49 -203 128 -218 163 -13 33 -50
58 -82 58 -18 0 -28 8 -37 30 -16 40 -41 53 -74 40 -24 -9 -34 -2 -121 81 -52
50 -95 94 -95 98 0 3 59 19 132 34 174 37 314 85 474 161 121 58 295 163 310
187 3 6 8 9 10 6 2 -2 -7 -32 -21 -66z m324 21 c25 -21 74 -58 108 -82 34 -24
60 -47 58 -51 -10 -15 -101 -30 -126 -20 -35 13 -76 64 -89 109 -11 41 -13 82
-4 82 3 0 27 -17 53 -38z m-1899 -184 l0 -188 -24 0 c-22 0 -24 5 -30 63 -3
34 -8 123 -12 198 l-6 137 36 -12 36 -11 0 -187z m3094 168 c182 -110 404
-207 596 -258 100 -26 136 -31 269 -34 85 -2 156 -6 158 -8 16 -15 -71 -120
-162 -196 -64 -52 -73 -57 -90 -44 -31 23 -62 17 -85 -16 -12 -17 -35 -37 -51
-46 -20 -10 -32 -25 -36 -45 -3 -17 -19 -40 -37 -54 -47 -36 -161 -89 -264
-124 -83 -29 -96 -31 -127 -20 -25 9 -37 10 -47 1 -8 -6 -27 -10 -43 -8 l-30
3 -6 129 c-12 223 -54 470 -114 656 -27 85 -30 108 -14 108 6 0 43 -20 83 -44z
m-860 2 c18 -14 17 -16 -9 -69 -42 -82 -42 -82 -86 -57 -22 12 -39 26 -39 30
0 5 18 36 40 69 43 62 45 63 94 27z m460 -59 c21 -44 36 -82 34 -83 -1 -2 -18
-11 -36 -20 l-33 -17 -28 63 c-44 98 -45 101 -13 120 15 10 30 18 33 18 3 0
22 -36 43 -81z m331 -80 c14 -48 34 -134 45 -191 40 -200 64 -538 39 -538 -28
0 -49 22 -49 51 0 92 -81 538 -125 690 l-24 83 32 27 32 27 13 -32 c7 -17 24
-70 37 -117z m-711 106 l36 -15 -24 -66 c-14 -37 -28 -70 -33 -74 -4 -4 -27 0
-49 10 l-41 18 35 71 c19 39 36 71 37 71 2 0 19 -7 39 -15z m2479 -77 c-2 -51
-6 -130 -9 -175 -5 -78 -7 -83 -28 -83 -23 0 -23 3 -29 141 -6 150 -3 169 19
169 8 0 19 9 26 20 7 11 15 20 18 20 4 0 5 -42 3 -92z m-3093 52 c0 -16 9 -54
21 -84 23 -64 99 -140 150 -150 54 -10 142 -7 202 9 32 8 60 15 63 15 3 0 -14
-28 -37 -62 -55 -80 -176 -207 -257 -267 -68 -52 -192 -124 -231 -136 l-24 -7
6 168 c9 224 28 356 73 497 18 53 34 62 34 17z m905 -53 l33 -78 -23 -9 c-55
-21 -57 -20 -84 64 -23 77 -24 79 -5 93 31 23 43 12 79 -70z m-185 -34 c0 -76
-2 -84 -17 -79 -10 2 -33 7 -50 11 -18 4 -33 10 -33 15 0 5 12 40 26 78 23 63
27 69 50 64 23 -4 24 -7 24 -89z m75 60 c4 -16 14 -51 24 -80 21 -58 17 -63
-45 -63 l-34 0 0 85 c0 84 0 85 25 85 19 0 26 -6 30 -27z m414 -22 c18 -54 13
-83 -21 -141 -40 -65 -98 -100 -167 -100 -76 0 -118 17 -146 58 -14 20 -25 40
-25 43 0 14 42 17 68 4 15 -8 43 -16 62 -20 68 -11 139 49 155 131 6 36 44 79
56 66 4 -4 11 -22 18 -41z m-104 -48 c-33 -79 -81 -104 -150 -80 l-40 14 45
20 c25 11 68 34 95 51 28 17 53 32 58 32 4 0 0 -17 -8 -37z m1542 -62 c38 -27
93 -71 123 -98 44 -40 51 -53 45 -71 -3 -13 -12 -22 -18 -20 -28 7 -327 170
-327 178 0 16 62 60 84 60 13 0 54 -22 93 -49z m-3783 23 c23 -9 20 -40 -6
-58 -13 -9 -55 -57 -94 -108 -74 -98 -115 -131 -135 -111 -29 29 66 205 138
256 37 27 66 33 97 21z m1690 -9 l37 -16 -32 -57 c-131 -234 -333 -430 -542
-527 -107 -50 -117 -51 -117 -21 0 13 -3 31 -6 40 -4 11 16 26 78 57 211 106
425 315 515 504 19 40 18 40 67 20z m700 -87 c41 -188 92 -525 81 -536 -11
-11 -229 222 -318 339 -48 63 -87 117 -87 120 0 2 38 4 83 4 75 0 88 3 123 27
22 16 53 48 68 73 16 25 30 45 31 45 2 0 10 -33 19 -72z m-572 45 c4 -2 53
-65 109 -141 210 -281 380 -473 477 -537 52 -34 49 -36 -69 -65 -88 -21 -335
-38 -382 -26 -15 3 -27 13 -27 22 0 8 -11 26 -25 39 -30 31 -73 32 -108 5 -35
-28 -103 -27 -134 2 -23 21 -26 21 -66 8 -34 -12 -43 -20 -45 -42 l-3 -28 -87
0 c-87 0 -246 31 -322 63 -40 17 -85 61 -76 75 3 5 31 19 63 30 198 73 434
288 575 525 50 85 53 88 82 81 17 -3 34 -8 38 -11z m-1747 -19 c31 -31 -4 -95
-92 -166 -71 -58 -121 -88 -148 -88 -22 0 -19 24 6 46 12 10 48 56 80 101 57
79 101 122 126 123 6 0 19 -7 28 -16z m1912 -24 c69 -100 189 -259 247 -329
74 -88 210 -222 244 -240 19 -10 22 -18 17 -39 -3 -15 -10 -31 -14 -35 -15
-15 -132 76 -220 171 -134 146 -391 475 -391 501 0 6 19 11 44 11 41 0 47 -3
73 -40z m1871 -103 c62 -31 69 -42 40 -61 -22 -14 -86 13 -209 87 -108 65
-135 91 -110 106 9 6 46 -8 115 -46 56 -29 129 -68 164 -86z m-184 9 c50 -30
103 -60 119 -67 15 -7 27 -18 27 -25 0 -26 -95 -139 -119 -142 -45 -7 -108 27
-166 90 -31 33 -55 63 -53 67 6 13 93 130 97 130 2 1 45 -23 95 -53z m-3603
-53 c-42 -81 -143 -156 -186 -139 -30 11 -13 34 75 100 49 37 98 78 107 91 16
21 18 21 21 5 2 -10 -6 -36 -17 -57z m206 -88 c2 -1 -6 -21 -18 -44 -23 -47
-49 -158 -49 -208 0 -18 -3 -33 -6 -33 -17 0 -111 79 -174 147 -66 71 -70 78
-53 90 63 44 133 140 133 182 0 22 9 16 83 -54 45 -44 83 -80 84 -80z m-799
125 c18 -11 40 -37 48 -57 41 -96 -49 -200 -150 -172 -99 27 -128 150 -50 218
42 38 101 42 152 11z m4791 -18 c14 -10 33 -38 41 -60 53 -151 -166 -242 -234
-98 -21 44 -20 73 2 115 37 69 129 89 191 43z m-708 -166 c24 -20 63 -42 86
-49 l43 -11 -28 -29 c-27 -29 -160 -113 -166 -106 -2 2 -16 24 -31 49 -15 25
-49 70 -76 101 l-48 57 60 51 61 51 28 -38 c15 -21 47 -55 71 -76z m-3187 36
c3 -9 -9 -52 -27 -94 -19 -42 -45 -113 -58 -157 -13 -45 -27 -81 -32 -81 -4 0
-12 12 -18 28 -25 62 19 276 64 307 29 20 64 19 71 -3z m2968 -59 c62 -66 114
-140 129 -182 8 -22 7 -36 -4 -56 l-14 -27 -33 58 c-18 33 -64 105 -101 162
-55 81 -66 102 -51 102 11 0 44 -26 74 -57z m-32 -68 c122 -188 150 -252 100
-225 -18 10 -130 154 -184 238 -26 42 -27 45 -10 63 9 10 20 19 25 19 4 0 35
-43 69 -95z m-2913 -62 c-6 -162 -16 -205 -51 -221 -62 -28 -73 46 -27 185 33
99 69 183 78 183 3 0 3 -66 0 -147z m73 127 c11 -6 25 -28 31 -49 11 -36 9
-45 -18 -103 -17 -34 -39 -73 -49 -86 -19 -23 -19 -22 -16 100 2 68 5 129 7
136 5 15 20 15 45 2z m-1137 -40 c-18 -17 -226 -150 -234 -150 -5 0 -9 7 -9
15 0 8 50 48 112 90 87 58 115 72 125 63 8 -6 10 -14 6 -18z m3920 -87 c41
-60 93 -127 115 -151 47 -51 36 -64 -27 -32 -61 31 -119 96 -157 175 -34 69
-40 95 -27 108 14 14 24 4 96 -100z m-3600 7 c48 -28 87 -55 87 -60 0 -4 -6
-13 -14 -19 -27 -23 -70 3 -151 88 -62 66 -72 80 -45 64 19 -11 74 -44 123
-73z m-229 -55 c29 -681 33 -1502 7 -1528 -12 -12 -11 -36 -17 413 -1 157 -8
364 -14 460 -19 318 -20 343 -21 560 0 118 0 218 0 222 1 4 10 6 20 5 18 -1
20 -12 25 -132z m215 -34 c89 -93 158 -172 153 -175 -5 -3 -70 33 -143 80
-223 143 -199 119 -199 197 0 50 3 67 14 67 7 0 86 -76 175 -169z m4763 102
c70 -44 108 -74 108 -85 0 -10 -3 -18 -6 -18 -14 0 -252 156 -247 163 10 17
42 3 145 -60z m-252 -20 l-1 -78 -162 -107 c-89 -60 -166 -108 -170 -108 -18
0 -1 24 74 106 98 107 250 264 255 264 2 0 4 -35 4 -77z m-4921 -95 c-67 -78
-131 -155 -142 -170 -21 -29 -37 -36 -37 -18 0 6 40 70 89 143 77 115 96 137
147 169 32 20 60 33 62 28 2 -5 -52 -73 -119 -152z m4785 71 c-43 -44 -89 -82
-102 -85 -23 -6 -55 12 -50 28 4 12 221 148 227 142 3 -2 -31 -41 -75 -85z
m203 -546 c-4 -351 -7 -748 -7 -883 -1 -177 -4 -240 -11 -227 -19 32 -29 452
-28 1110 l2 637 25 0 25 0 -6 -637z m-3581 539 c12 -7 10 -18 -17 -76 -22 -48
-33 -89 -38 -142 l-6 -74 -50 34 c-27 19 -65 47 -84 63 l-34 29 56 93 c30 51
59 105 62 121 l6 29 45 -34 c25 -19 52 -38 60 -43z m3700 26 c41 -24 230 -286
217 -299 -6 -6 -21 5 -40 28 -17 21 -83 97 -147 168 -114 128 -145 176 -89
140 14 -10 41 -26 59 -37z m-1167 -22 c18 -36 55 -87 86 -118 l56 -55 -40 -36
c-22 -20 -58 -45 -81 -57 -40 -20 -40 -20 -79 -1 -64 33 -117 111 -134 198 -6
32 -5 34 51 62 31 16 68 38 82 50 14 11 26 20 26 21 1 0 15 -29 33 -64z
m-3846 -70 c-83 -100 -269 -306 -275 -306 -5 0 -8 10 -8 23 0 21 107 160 255
331 l50 58 3 -37 c3 -28 -3 -44 -25 -69z m5132 -143 c105 -120 121 -144 111
-169 -5 -14 -18 -5 -64 47 -31 35 -101 111 -154 169 -89 95 -98 109 -98 144
l0 39 56 -61 c30 -34 97 -110 149 -169z m-3630 117 c7 0 -1 -26 -16 -58 -29
-60 -51 -166 -42 -201 7 -26 -2 -26 -73 0 -77 29 -94 48 -94 107 0 57 24 144
51 189 l20 32 72 -35 c39 -19 76 -34 82 -34z m2135 8 c20 -70 56 -133 95 -166
20 -18 40 -32 45 -32 6 0 10 -4 10 -10 0 -10 -75 -34 -152 -49 -46 -8 -47 -8
-53 20 -7 31 -75 128 -118 169 -15 14 -27 30 -27 35 0 8 137 63 181 74 3 0 12
-18 19 -41z m-2055 -25 c-35 -74 -49 -149 -49 -265 -1 -98 -2 -105 -19 -97
-28 16 -49 79 -49 149 1 120 69 253 133 259 3 1 -4 -20 -16 -46z m-1545 -1 c0
-36 -4 -41 -86 -102 -47 -36 -98 -74 -113 -85 l-26 -20 20 26 c45 57 191 219
198 219 4 0 7 -17 7 -38z m161 -39 c35 -43 110 -133 165 -201 l101 -123 -15
-60 -15 -60 -86 83 c-47 46 -116 111 -153 145 l-68 62 0 116 c0 63 2 115 4
115 2 0 32 -35 67 -77z m1434 -90 c0 -126 5 -183 17 -226 14 -48 14 -59 3 -63
-26 -11 -58 1 -79 29 -42 56 -20 306 35 396 10 17 20 31 21 31 2 0 3 -75 3
-167z m104 94 c31 -38 42 -103 30 -192 -22 -175 -71 -230 -100 -113 -14 57
-19 321 -7 351 7 17 9 17 30 1 13 -10 34 -31 47 -47z m-1414 -66 c122 -109
126 -114 123 -150 -2 -20 -7 -34 -13 -31 -14 7 -259 303 -247 299 6 -2 67 -55
137 -118z m3071 97 c43 -32 132 -136 155 -180 25 -49 24 -74 -6 -103 -33 -34
-51 -31 -59 6 -8 42 -90 215 -121 255 -14 18 -25 35 -25 38 0 13 28 5 56 -16z
m1433 -100 l-1 -123 -144 -139 c-79 -76 -146 -137 -148 -135 -2 2 -11 27 -19
55 l-15 51 162 206 c88 113 162 206 164 207 1 0 2 -55 1 -122z m302 -93 c19
-21 25 -33 14 -25 -11 8 -64 48 -118 88 -95 71 -97 73 -97 113 l0 41 83 -88
c46 -49 99 -107 118 -129z m-1788 166 c13 -16 42 -66 64 -112 68 -140 78 -199
34 -199 -70 0 -198 231 -176 317 8 33 47 30 78 -6z m-103 -23 c33 -136 60
-196 117 -258 33 -37 34 -40 13 -40 -61 0 -128 68 -161 163 -18 51 -25 157
-12 170 17 17 33 3 43 -35z m1438 -85 c-52 -65 -104 -131 -115 -146 -28 -36
-37 -35 -44 3 -6 29 0 37 120 150 69 65 127 117 129 115 3 -2 -38 -57 -90
-122z m-4769 -79 c-74 -74 -138 -134 -143 -134 -5 0 -6 17 -3 38 7 41 22 55
182 180 50 38 92 65 94 59 2 -5 -57 -70 -130 -143z m4141 -29 l0 -165 -30 0
-30 0 0 163 c0 172 6 195 42 176 16 -9 18 -24 18 -174z m-1726 169 c13 -5 16
-23 16 -93 0 -47 12 -159 27 -248 22 -130 25 -165 15 -175 -17 -17 -62 8 -79
43 -24 49 -42 164 -49 310 l-7 146 29 11 c16 6 30 11 31 11 1 1 8 -2 17 -5z
m236 -4 c27 -14 40 -64 40 -149 0 -101 -24 -230 -54 -298 -23 -49 -28 -54 -53
-51 -32 3 -29 -27 -25 298 2 155 4 172 22 190 22 22 42 25 70 10z m-677 -28
c54 -16 58 -19 52 -42 -13 -55 -17 -206 -6 -244 6 -22 9 -42 7 -44 -2 -2 -44
7 -92 20 -63 17 -88 28 -86 38 2 7 10 39 18 69 8 31 15 96 15 144 0 78 2 88
17 82 9 -3 43 -14 75 -23z m1322 -133 c10 -19 31 -48 47 -66 l30 -31 -22 -12
c-12 -6 -47 -20 -78 -31 -50 -17 -58 -18 -79 -4 -12 8 -32 33 -43 55 -25 48
-48 176 -35 189 6 5 39 21 75 34 l65 24 12 -62 c6 -35 19 -78 28 -96z m-2140
29 c4 -68 5 -139 3 -158 -3 -31 -6 -35 -33 -35 l-30 0 -3 146 c-2 143 -2 146
20 157 13 6 26 11 29 11 4 1 10 -54 14 -121z m4015 15 c92 -71 116 -95 123
-121 4 -19 6 -39 4 -45 -4 -12 -277 250 -277 265 0 13 25 -4 150 -99z m-2632
-139 c-3 -124 -9 -228 -12 -232 -4 -3 -10 -1 -15 4 -14 14 -52 246 -58 357
l-6 97 49 0 49 0 -7 -226z m-2408 149 l-1 -68 -148 -152 c-81 -84 -151 -153
-155 -153 -7 0 -22 35 -32 76 -6 22 13 45 162 195 92 93 170 169 171 169 2 0
3 -30 3 -67z m2050 36 c49 -6 100 -9 112 -7 22 3 23 -1 29 -77 3 -44 10 -113
14 -152 l7 -73 -98 1 c-55 0 -119 4 -144 7 -41 6 -46 10 -58 47 -9 26 -12 71
-9 130 5 102 19 150 43 141 8 -3 55 -11 104 -17z m910 -11 c0 -64 25 -153 55
-198 l32 -48 -81 -15 c-45 -9 -102 -19 -128 -23 l-47 -6 -22 43 c-24 47 -36
152 -25 211 l6 35 83 10 c130 15 127 16 127 -9z m2234 -276 l40 -43 -13 -47
c-7 -25 -14 -49 -17 -51 -3 -3 -76 66 -163 153 -151 151 -159 161 -157 195 2
20 3 49 4 66 2 28 8 23 135 -100 72 -72 150 -149 171 -173z m-2469 175 c1 -74
6 -113 18 -141 10 -22 16 -41 13 -43 -2 -2 -48 -6 -103 -10 l-100 -6 13 69 c7
38 13 106 14 152 l0 82 73 0 72 0 0 -103z m-2370 -207 c37 -37 41 -47 50 -120
6 -44 8 -80 5 -79 -7 1 -148 162 -235 269 -66 80 -75 97 -75 132 l0 40 108
-100 c59 -55 125 -119 147 -142z m4362 45 c-92 -117 -228 -278 -232 -273 -1 2
2 39 7 83 l9 80 142 140 142 140 3 -38 c3 -34 -4 -48 -71 -132z m-4707 46 l0
-90 -112 -93 c-61 -51 -123 -103 -138 -115 l-28 -23 -6 23 c-3 12 -6 40 -6 62
0 39 7 48 136 183 75 78 140 142 145 142 5 0 9 -40 9 -89z m5027 -73 c150
-150 150 -149 137 -229 l-6 -36 -144 115 -144 114 0 89 c0 49 3 89 7 89 4 0
72 -64 150 -142z m-4827 -23 c46 -55 108 -126 137 -157 57 -60 61 -69 39 -87
-11 -9 -31 8 -98 81 -171 186 -188 209 -188 253 0 46 -11 54 110 -90z m4570
14 c-7 -11 -66 -84 -132 -160 -105 -122 -122 -138 -137 -127 -9 7 -18 13 -19
14 -2 2 29 41 70 87 40 46 107 127 148 179 75 95 75 95 78 62 2 -18 -2 -43 -8
-55z m-3677 14 c22 -25 40 -106 33 -147 -4 -19 -15 -45 -25 -58 -18 -22 -26
-23 -130 -23 -90 0 -114 4 -127 17 -36 36 -25 195 15 218 9 5 61 10 117 10 84
0 104 -3 117 -17z m2987 7 c38 -20 53 -146 25 -200 -13 -25 -22 -29 -71 -36
-56 -7 -155 -1 -187 12 -22 8 -40 78 -32 123 11 64 26 100 43 104 34 9 204 7
222 -3z m-3942 -73 c19 -23 88 -99 153 -169 115 -122 119 -127 118 -170 -2
-107 -1 -107 -162 75 l-148 167 -6 70 c-3 39 -2 70 3 69 5 0 24 -19 42 -42z
m4642 -47 l0 -70 -131 -158 c-188 -224 -169 -211 -169 -120 l0 77 96 108 c53
59 120 136 148 170 28 35 52 63 54 63 1 0 2 -32 2 -70z m-4770 6 l0 -53 -150
-116 c-136 -105 -151 -114 -160 -97 -25 47 -11 66 184 229 60 50 113 91 118
91 4 0 8 -24 8 -54z m5058 -118 c102 -83 122 -103 122 -126 0 -15 -4 -34 -10
-42 -10 -16 7 -26 -193 120 l-116 85 0 59 -1 58 38 -28 c20 -15 92 -72 160
-126z m-2657 -73 l-6 -140 -26 -3 -25 -3 -12 132 c-13 141 -10 152 33 169 38
15 43 -6 36 -155z m-2397 83 c3 -13 6 -26 6 -30 0 -8 -270 -242 -274 -237 -2
2 -6 20 -10 41 l-7 36 133 105 c73 58 136 106 139 106 4 1 9 -9 13 -21z m197
-105 c135 -155 138 -159 119 -148 -8 5 -63 42 -122 83 l-108 74 0 54 c0 30 2
54 4 54 2 0 50 -53 107 -117z m4804 2 c77 -57 134 -106 134 -115 -1 -8 -4 -27
-8 -43 -6 -27 -7 -27 -141 86 -118 98 -135 117 -138 146 -2 20 1 32 7 30 6 -2
71 -49 146 -104z m-240 33 c-4 -29 -9 -56 -11 -60 -4 -6 -187 -138 -214 -154
-8 -4 9 21 39 56 30 36 81 98 115 138 33 39 64 72 69 72 5 0 6 -24 2 -52z
m-3694 15 c4 -10 8 -41 8 -69 1 -62 -21 -89 -78 -99 -108 -18 -166 25 -158
117 6 70 11 73 123 71 85 -1 99 -3 105 -20z m2999 -13 c13 -46 13 -87 -1 -112
-20 -38 -111 -59 -177 -42 -43 12 -67 103 -43 166 8 22 13 23 110 23 l101 0
10 -35z m-4060 -50 c0 -46 -4 -54 -62 -122 -77 -92 -170 -188 -181 -188 -11 0
-37 65 -37 94 0 20 30 51 137 146 75 66 138 120 140 120 2 0 3 -22 3 -50z
m5006 -108 l121 -101 -8 -52 c-13 -84 -21 -84 -107 6 -148 156 -172 191 -172
242 l0 46 23 -20 c12 -11 76 -65 143 -121z m-4638 -147 l-21 -39 -123 127
c-68 70 -124 132 -124 138 0 5 65 -34 144 -88 l144 -98 -20 -40z m-35 -120
c-8 -27 -17 -52 -19 -54 -6 -7 -33 19 -136 131 l-98 107 0 71 0 71 134 -138
133 -138 -14 -50z m4397 304 c-14 -26 -220 -239 -231 -239 -13 0 -42 61 -32
70 13 13 265 190 269 190 3 0 0 -9 -6 -21z m-4747 -63 c-111 -143 -166 -211
-173 -214 -4 -2 -10 4 -14 13 -4 11 27 53 97 131 56 63 103 110 105 104 2 -5
-5 -21 -15 -34z m4768 -93 c-3 -6 -53 -64 -110 -129 l-105 -117 -11 34 c-31
90 -36 78 97 218 l123 129 6 -62 c4 -33 4 -66 0 -73z m230 -24 c66 -73 76 -89
66 -102 -10 -14 -26 1 -109 103 -54 65 -98 127 -98 137 1 14 8 10 32 -17 17
-19 66 -74 109 -121z m-2481 103 c21 -16 25 -28 28 -78 1 -32 -3 -79 -11 -104
-15 -54 -26 -58 -159 -59 -124 -1 -128 3 -128 136 0 108 3 112 110 124 84 9
129 4 160 -19z m-1510 -24 c0 -24 -7 -198 -16 -388 -8 -190 -17 -642 -20
-1005 -3 -363 -7 -664 -8 -670 -4 -15 -25 317 -43 680 -14 294 -15 385 -5 670
7 182 12 426 12 543 l0 212 40 0 40 0 0 -42z m3006 -196 c1 -130 7 -374 14
-542 13 -309 12 -325 -20 -1041 -13 -282 -33 -570 -39 -563 -3 3 -7 414 -7
912 -1 608 -6 1000 -15 1190 l-14 282 40 0 40 0 1 -238z m-4000 72 c-10 -37
-147 -215 -164 -212 -8 2 -24 15 -34 29 -19 25 -19 28 -4 60 9 19 58 86 109
149 l92 115 3 -60 c2 -32 1 -69 -2 -81z m4916 46 c80 -95 158 -201 158 -216 0
-7 -11 -26 -25 -41 l-25 -28 -41 45 c-23 25 -64 76 -90 114 -47 67 -49 71 -49
140 0 38 4 66 8 61 5 -6 33 -39 64 -75z m-4733 -80 l93 -100 -12 -37 c-7 -21
-15 -41 -19 -45 -4 -5 -42 39 -84 96 -67 90 -77 109 -77 145 0 22 2 41 4 41 2
0 45 -45 95 -100z m4581 28 c0 -37 -10 -57 -71 -143 -39 -55 -74 -99 -77 -98
-4 1 -12 20 -19 43 l-12 42 85 99 c48 54 88 99 90 99 2 0 4 -19 4 -42z m-3550
-72 c0 -17 -5 -18 -55 -12 -35 4 -71 16 -95 32 -22 15 -40 27 -40 28 0 1 43
-5 95 -13 81 -14 95 -19 95 -35z m2944 -119 c69 -87 126 -163 126 -170 0 -7
-4 -18 -8 -24 -11 -17 -240 256 -253 300 -12 41 -11 60 0 55 5 -1 66 -74 135
-161z m-4190 48 c-55 -107 -64 -117 -88 -99 -20 14 -20 14 2 42 12 15 44 57
70 93 26 36 48 60 50 53 2 -8 -14 -48 -34 -89z m3881 81 c-22 -13 -64 -27 -92
-31 -48 -6 -53 -5 -53 13 0 16 11 21 63 29 34 6 76 11 92 12 l30 1 -40 -24z
m-2677 -129 c142 -129 142 -130 142 -174 l0 -44 -77 63 c-43 35 -113 88 -155
118 l-78 55 0 63 c0 48 3 61 13 56 6 -4 76 -66 155 -137z m3800 -20 c25 -26
25 -27 6 -42 -10 -8 -21 -14 -24 -14 -9 0 -110 189 -110 205 0 8 23 -15 51
-53 29 -37 63 -80 77 -96z m-4794 38 c48 -64 89 -122 92 -129 3 -7 -4 -20 -14
-29 -18 -16 -22 -13 -95 79 -72 91 -77 100 -77 145 0 27 2 49 4 49 2 0 43 -52
90 -115z m3736 47 l-1 -57 -71 -50 c-40 -27 -109 -80 -155 -117 -46 -38 -85
-68 -88 -68 -7 0 -6 40 1 68 7 26 294 293 306 286 5 -3 8 -31 8 -62z m-3020
15 c0 -25 -236 -281 -251 -271 -24 15 1 50 119 167 70 70 128 127 130 127 1 0
2 -10 2 -23z m3879 -48 c1 -16 -136 -209 -149 -209 -4 0 -14 8 -23 18 -15 16
-10 26 71 141 83 117 87 122 93 95 4 -16 7 -36 8 -45z m-2293 43 c29 -19 28
-117 -3 -147 -21 -22 -176 -21 -197 1 -19 19 -22 124 -4 142 13 13 185 17 204
4z m-1244 -68 c54 -35 65 -47 61 -63 -5 -20 -6 -20 -37 5 -143 121 -151 139
-24 58z m-1274 -115 l-53 -78 -3 34 c-2 26 9 57 45 125 l48 90 8 -47 c8 -45 6
-49 -45 -124z m3747 96 c-73 -68 -94 -77 -95 -42 0 7 159 116 170 116 3 0 -31
-33 -75 -74z m1248 -147 c3 -21 2 -38 -2 -38 -4 0 -31 33 -59 74 -48 69 -52
79 -52 133 l0 58 54 -95 c29 -52 56 -112 59 -132z m-801 55 c119 -143 147
-183 128 -183 -5 0 -64 61 -132 136 -88 97 -124 144 -126 165 -2 16 -1 29 1
29 3 0 61 -66 129 -147z m-3262 117 c0 -9 -259 -300 -266 -300 -2 0 -4 7 -4
15 0 12 257 295 268 295 1 0 2 -4 2 -10z m-733 -106 c37 -48 67 -91 65 -96 -4
-16 -55 -88 -61 -88 -4 0 -26 38 -49 85 -32 66 -42 97 -42 135 0 28 4 50 9 50
5 0 40 -39 78 -86z m1041 -61 c50 -40 92 -75 92 -78 0 -2 -42 20 -93 49 -51
30 -118 67 -150 82 -38 19 -56 33 -52 42 3 8 5 23 5 34 0 17 6 15 53 -18 28
-21 94 -71 145 -111z m2712 102 c0 -32 -4 -37 -57 -64 -32 -16 -98 -52 -148
-81 -57 -33 -83 -44 -70 -30 17 19 265 210 272 210 2 0 3 -16 3 -35z m823
-180 l-39 -76 -32 45 c-18 24 -32 47 -32 50 0 4 30 47 68 97 l67 90 3 -65 c3
-58 -1 -72 -35 -141z m-3843 167 c0 -23 -33 -64 -167 -211 -154 -166 -188
-194 -166 -133 8 20 319 372 329 372 2 0 4 -13 4 -28z m3295 -158 c140 -155
189 -223 172 -240 -2 -2 -48 44 -103 103 -54 59 -129 139 -166 178 -55 57 -68
76 -68 103 0 17 1 32 3 32 2 0 75 -79 162 -176z m-4176 26 c-4 -8 -25 -32 -48
-54 l-40 -39 -6 37 c-6 32 -2 44 41 107 l49 71 6 -53 c3 -30 2 -61 -2 -69z
m1186 -10 c142 -81 215 -128 215 -138 0 -4 -6 -15 -12 -24 -12 -14 -29 -8
-158 63 -80 43 -169 89 -197 101 -50 21 -53 24 -53 58 0 20 3 40 6 43 4 3 25
-4 48 -17 22 -13 91 -52 151 -86z m3705 39 c45 -63 51 -76 45 -105 -3 -19 -9
-34 -14 -34 -4 0 -27 22 -49 49 -38 45 -42 55 -42 105 0 31 2 56 4 56 2 0 27
-32 56 -71z m-2506 -346 c3 -225 8 -550 11 -723 3 -173 7 -596 10 -940 5 -681
-4 -774 -30 -285 -27 524 -35 839 -42 1598 l-6 757 25 0 26 0 6 -407z m1516
363 l0 -44 -77 -37 c-43 -20 -131 -66 -197 -102 -93 -51 -120 -62 -127 -52
-15 24 -10 37 21 59 28 20 371 220 377 220 2 0 3 -20 3 -44z m-3067 -104 c-41
-52 -245 -288 -317 -367 l-45 -50 -1 53 0 53 198 212 c193 207 197 211 200
179 3 -26 -5 -43 -35 -80z m3445 -172 c137 -148 142 -156 142 -197 0 -24 -4
-43 -8 -43 -5 0 -56 53 -113 118 -250 282 -289 332 -289 375 l1 32 62 -65 c34
-36 126 -135 205 -220z m-4148 140 l30 -60 -22 -30 c-12 -17 -24 -30 -27 -30
-3 0 -18 29 -33 65 -28 63 -34 108 -22 153 6 23 7 23 25 -8 10 -16 32 -57 49
-90z m4629 -89 c-13 -34 -26 -61 -29 -61 -3 0 -15 15 -28 34 l-23 34 43 87 43
87 9 -60 c7 -52 5 -68 -15 -121z m-3511 36 c117 -62 154 -87 158 -104 4 -13 2
-57 -2 -97 l-9 -74 -89 79 c-48 43 -142 120 -207 171 -99 76 -119 96 -119 118
0 51 -8 54 268 -93z m2662 85 c0 -22 -17 -40 -98 -102 -129 -99 -302 -249
-310 -268 -11 -29 -21 19 -21 105 l-1 82 57 32 c117 67 358 187 365 183 4 -3
8 -17 8 -32z m-3913 -60 l-21 -22 -20 20 -20 20 34 35 35 36 7 -33 c5 -26 2
-38 -15 -56z m797 -65 c-184 -242 -268 -353 -276 -361 -4 -6 -8 10 -8 35 0 43
5 49 175 244 96 110 175 205 176 210 1 6 3 2 6 -8 3 -11 -24 -55 -73 -120z
m4089 41 c-16 -18 -17 -18 -41 5 -20 20 -23 30 -17 58 l8 34 33 -39 c32 -37
33 -40 17 -58z m-630 -191 c119 -136 138 -163 142 -197 2 -22 0 -40 -5 -40
-13 0 -362 461 -367 485 -5 21 -3 20 230 -248z m-1953 194 c0 -38 0 -39 -112
-107 -133 -82 -128 -80 -128 -60 0 14 215 204 233 205 4 1 7 -16 7 -38z
m-1153 -93 c111 -88 140 -115 86 -80 -207 132 -253 166 -253 184 0 20 1 20 27
3 14 -10 77 -58 140 -107z m2763 94 c0 -13 -44 -47 -142 -111 -95 -60 -127
-78 -97 -51 68 59 223 179 232 180 4 0 7 -8 7 -18z m-3900 -47 c-9 -33 -17
-44 -27 -41 -8 4 -17 6 -19 6 -2 0 -4 6 -4 14 0 17 50 79 58 72 2 -3 -1 -26
-8 -51z m54 -63 c-20 -2 -39 -1 -42 2 -3 3 1 31 8 63 l14 57 28 -60 28 -59
-36 -3z m804 96 c-3 -13 -94 -160 -203 -327 l-199 -304 -18 23 c-10 12 -18 31
-18 43 0 22 420 587 437 587 3 0 3 -10 1 -22z m3386 -285 c113 -150 206 -280
206 -290 0 -10 -9 -29 -19 -42 l-18 -23 -84 123 c-270 399 -319 477 -319 505
0 37 -12 51 234 -273z m-1774 247 c55 -28 77 -46 68 -55 -2 -3 -34 8 -71 23
-46 19 -67 32 -67 45 0 22 0 22 70 -13z m2346 -77 c-1 0 -19 -2 -41 -4 -45 -3
-45 -3 -14 66 l22 50 17 -55 c9 -30 16 -56 16 -57z m33 81 c25 -32 26 -47 6
-64 -12 -10 -16 -8 -25 14 -29 77 -20 100 19 50z m-3680 -118 c102 -69 197
-136 210 -150 23 -24 23 -26 7 -51 l-17 -26 -37 28 c-263 197 -362 279 -362
300 0 13 3 23 7 23 3 0 90 -56 192 -124z m2731 92 c-1 -18 -46 -58 -195 -173
-108 -82 -200 -151 -205 -153 -5 -2 -15 9 -22 24 -12 25 -10 29 27 61 43 38
375 263 388 263 4 0 7 -10 7 -22z m-1620 -2 c0 -2 -61 -82 -136 -177 -75 -96
-142 -182 -148 -191 -14 -22 -22 -23 -30 -2 -8 20 42 88 162 224 108 121 152
164 152 146z m-1430 -68 l-1 -63 -77 -85 c-168 -186 -204 -224 -186 -194 41
67 259 404 262 404 1 0 2 -28 2 -62z m1687 9 c89 -36 103 -45 103 -66 0 -27 8
-29 -137 37 -78 35 -103 51 -103 65 0 22 -9 24 137 -36z m1623 -182 c139 -211
139 -212 -11 -45 -138 153 -139 155 -139 213 0 30 4 47 9 42 5 -6 68 -100 141
-210z m-1916 -12 c-32 -43 -123 -165 -201 -271 -156 -211 -154 -210 -128 -56
18 101 14 94 229 369 l141 180 9 -72 9 -73 -59 -77z m-1073 61 c132 -102 189
-151 185 -161 -3 -8 -6 -19 -6 -24 0 -6 -37 21 -82 58 -46 38 -134 109 -195
157 -102 80 -133 116 -102 116 5 0 96 -66 200 -146z m2729 124 c0 -17 -21 -39
-76 -82 -42 -32 -127 -100 -189 -151 -102 -84 -115 -92 -120 -73 -4 11 -2 25
4 32 11 10 373 293 379 295 1 1 2 -9 2 -21z m-1344 -67 c163 -76 206 -114 87
-78 -68 20 -275 147 -240 147 2 0 71 -31 153 -69z m-1458 -73 c70 -56 165
-133 211 -171 l83 -70 -5 -43 c-10 -90 -13 -89 -196 85 -91 87 -181 171 -198
186 -28 23 -33 33 -33 71 0 24 2 44 5 44 4 0 63 -46 133 -102z m1436 18 c156
-110 196 -148 196 -186 0 -17 -2 -30 -4 -30 -2 0 -40 20 -84 45 -44 24 -117
62 -161 85 l-81 40 0 65 c0 36 3 65 8 65 4 0 61 -38 126 -84z m1376 31 c0 -35
-5 -48 -27 -67 -41 -34 -153 -140 -270 -253 l-101 -99 -18 27 c-33 51 -24 83
41 139 87 77 359 294 368 295 4 1 7 -18 7 -42z m-3197 -270 c-76 -89 -163
-192 -193 -229 -29 -38 -57 -68 -61 -68 -4 0 -10 23 -14 51 -6 42 -4 54 12 72
11 12 102 116 204 231 l184 208 3 -51 3 -51 -138 -163z m3418 133 c52 -58 141
-158 198 -223 l103 -117 -6 -45 c-4 -24 -11 -47 -16 -50 -4 -3 -42 37 -83 88
-41 50 -127 153 -191 227 l-116 135 0 55 c0 30 4 50 8 45 5 -6 51 -57 103
-115z m-2942 -137 c121 -117 153 -153 150 -170 -3 -18 -33 7 -192 160 -113
109 -188 189 -187 200 0 16 5 14 38 -12 20 -16 106 -96 191 -178z m1111 147
c0 -47 -3 -54 -84 -150 -46 -55 -143 -176 -217 -270 -73 -93 -137 -170 -141
-170 -15 0 4 54 36 105 29 46 209 294 336 463 30 39 58 72 62 72 5 0 8 -22 8
-50z m1424 -167 c-104 -100 -192 -182 -196 -183 -41 -2 55 105 302 335 63 60
75 67 78 50 3 -15 -41 -63 -184 -202z m-1024 -100 c0 -6 -14 3 -162 110 l-138
98 0 40 0 41 150 -143 c83 -78 150 -144 150 -146z m-1349 -125 c53 -61 56 -69
34 -88 -12 -10 -48 22 -220 191 -197 195 -205 204 -205 241 l0 40 171 -164
c93 -90 192 -189 220 -220z m1331 270 c94 -53 88 -42 103 -157 l6 -43 -161
153 c-88 85 -160 155 -160 156 0 5 118 -56 212 -109z m1023 -176 c-167 -164
-210 -200 -221 -191 -8 6 -14 19 -14 28 0 8 98 112 218 230 l217 214 3 -39 c4
-39 2 -40 -203 -242z m-2855 220 c0 -48 -3 -52 -187 -285 -178 -226 -188 -236
-200 -215 -7 13 -12 37 -13 53 0 35 28 73 224 303 72 85 137 162 145 173 22
31 31 22 31 -29z m3334 -142 c214 -252 236 -281 236 -315 -1 -16 -6 -40 -14
-53 -12 -22 -20 -14 -199 212 l-187 236 0 51 c0 65 -5 69 164 -131z m-1921
-40 c-173 -218 -409 -497 -416 -491 -4 4 -10 23 -13 43 -6 32 2 45 122 198 70
91 175 223 233 295 l106 130 3 -64 c3 -60 1 -65 -35 -111z m282 72 c66 -47
154 -111 196 -144 72 -55 77 -61 83 -105 3 -25 5 -48 3 -49 -1 -2 -97 65 -212
147 l-210 151 -3 50 c-2 39 0 48 10 42 7 -4 67 -46 133 -92z m-1186 -365 c1
-27 -3 -47 -8 -45 -5 2 -95 74 -200 161 l-191 159 0 80 0 80 199 -193 200
-194 0 -48z m2551 344 l0 -79 -197 -165 -198 -164 -3 49 -3 49 198 194 c109
107 199 194 201 195 1 0 2 -36 2 -79z m-3207 -286 c-86 -113 -159 -205 -163
-205 -3 0 -11 24 -18 54 l-13 55 168 211 168 212 7 -61 7 -62 -156 -204z
m3506 83 l180 -227 -11 -38 c-22 -83 -22 -83 -107 29 -43 57 -119 156 -169
221 l-92 119 0 65 c0 36 4 63 9 61 6 -1 91 -105 190 -230z m-1600 52 l197
-141 11 -66 c7 -37 11 -68 10 -69 -1 -2 -97 66 -212 150 l-210 152 -3 57 c-2
31 0 57 4 57 4 0 95 -63 203 -140z m-336 -45 c-94 -112 -195 -241 -305 -388
-134 -178 -138 -181 -138 -83 0 58 -6 49 329 456 l136 165 3 -58 c3 -51 0 -62
-25 -92z m-1089 -85 c169 -140 175 -146 176 -182 0 -21 -3 -38 -7 -38 -5 1
-93 76 -198 168 -168 148 -190 171 -193 201 l-3 34 25 -19 c14 -11 104 -84
200 -164z m2670 67 c-31 -28 -121 -109 -198 -178 l-141 -126 -3 39 c-3 32 2
42 25 62 347 292 368 308 371 281 3 -20 -8 -36 -54 -78z m-3156 -261 c-90
-135 -166 -246 -169 -246 -3 0 -9 28 -12 63 -4 44 -2 70 9 92 8 17 86 124 172
238 l157 208 3 -55 3 -55 -163 -245z m3490 110 c79 -103 150 -199 157 -214 10
-19 12 -46 7 -96 l-7 -70 -167 250 c-167 248 -168 250 -168 304 0 54 1 55 18
34 9 -12 82 -106 160 -208z m-1642 111 c272 -195 314 -229 319 -250 17 -82 23
-122 19 -126 -2 -2 -12 3 -21 11 -10 8 -110 93 -223 188 -113 95 -210 178
-217 184 -14 13 -26 86 -14 86 5 0 66 -42 137 -93z m-1368 -126 c111 -98 161
-148 158 -158 -3 -8 -9 -32 -12 -54 -4 -21 -11 -39 -16 -39 -20 0 -76 55 -210
209 -127 144 -138 159 -138 195 l0 40 28 -25 c15 -14 100 -90 190 -168z m910
-190 c-198 -233 -213 -248 -220 -224 -4 15 -4 31 -1 37 20 33 221 300 317 420
l111 139 3 -61 3 -61 -213 -250z m1822 332 c0 -34 -14 -53 -133 -190 -145
-166 -214 -233 -222 -211 -2 7 -9 33 -15 57 -11 41 -10 46 12 67 51 52 343
313 351 313 4 1 7 -16 7 -36z m-3116 -235 c-42 -68 -104 -166 -138 -218 l-61
-94 -7 48 -7 49 120 179 c65 99 129 194 142 211 l22 32 3 -42 c3 -37 -5 -55
-74 -165z m1834 26 c114 -97 213 -183 220 -192 6 -9 12 -35 12 -59 l0 -44 -98
88 c-54 48 -155 138 -225 198 -118 103 -126 112 -126 148 -1 20 1 37 4 37 3 0
98 -79 213 -176z m1526 -49 l136 -205 -8 -48 -8 -47 -39 60 c-202 312 -235
368 -235 406 0 22 4 39 8 39 5 0 70 -92 146 -205z m-3105 98 c40 -46 70 -83
66 -83 -3 0 -40 26 -81 57 -67 52 -74 61 -74 92 0 19 4 31 8 26 4 -6 41 -47
81 -92z m2851 48 c0 -24 -11 -38 -62 -78 -96 -75 -98 -73 -17 20 41 47 75 86
77 87 1 0 2 -13 2 -29z m-1591 -93 c1 -46 -2 -51 -96 -157 -54 -60 -154 -172
-223 -249 -69 -77 -128 -141 -132 -141 -15 -2 -7 74 11 114 10 22 65 94 122
161 57 66 149 173 204 238 108 128 113 129 114 34z m534 -311 c76 -70 87 -84
87 -113 0 -18 -3 -35 -7 -37 -5 -3 -120 77 -258 177 l-250 183 -3 87 -3 87
173 -152 c95 -84 212 -189 261 -232z m-1963 328 c0 -7 -22 -49 -49 -92 -27
-43 -88 -144 -136 -226 -48 -81 -92 -150 -97 -153 -7 -4 -8 9 -3 37 5 32 40
96 124 229 65 102 123 195 130 208 12 23 31 22 31 -3z m178 -41 c48 -37 124
-97 169 -133 l83 -66 0 -85 c0 -47 -4 -91 -9 -98 -8 -13 -45 25 -264 269 -72
82 -77 90 -77 133 0 25 3 46 6 46 3 0 45 -30 92 -66z m2842 8 c0 -47 -1 -49
-162 -234 -101 -115 -166 -181 -170 -174 -4 6 -8 49 -8 96 l0 86 38 36 c33 32
292 238 299 238 2 0 3 -21 3 -48z m307 -272 c39 -61 64 -111 68 -139 5 -31 4
-42 -4 -37 -6 4 -57 85 -112 179 -56 95 -114 193 -130 218 -16 25 -29 58 -29
74 0 22 14 6 73 -86 40 -63 100 -157 134 -209z m-3410 37 c-47 -84 -94 -170
-105 -192 -37 -71 -38 -72 -61 -51 l-20 18 28 42 c15 22 75 120 132 216 88
148 104 171 107 147 2 -20 -20 -70 -81 -180z m3274 73 c35 -61 92 -155 125
-210 l62 -99 -24 -22 c-13 -12 -24 -18 -24 -12 0 6 -49 100 -110 209 -99 178
-126 244 -102 244 5 0 37 -50 73 -110z m-2953 -79 l152 -170 -14 -31 -13 -31
-94 113 c-52 62 -115 137 -141 167 -37 41 -48 62 -48 88 0 18 2 33 4 33 2 0
71 -76 154 -169z m965 -168 c-199 -194 -230 -221 -240 -206 -14 19 -39 -12
256 317 l206 229 3 -59 4 -59 -229 -222z m1800 234 c-10 -12 -72 -87 -138
-166 l-119 -144 -13 32 -13 31 147 168 c145 165 148 168 151 135 2 -21 -3 -42
-15 -56z m-1210 -125 c180 -131 228 -174 213 -189 -3 -3 -111 70 -241 162
-195 140 -235 172 -235 192 l0 24 33 -22 c17 -12 121 -87 230 -167z m-1864
-85 c-124 -289 -139 -319 -152 -314 -6 2 -20 18 -30 35 l-18 31 75 145 c73
141 152 285 185 336 l16 25 3 -33 c3 -24 -19 -86 -79 -225z m3279 68 c120
-214 162 -300 162 -329 0 -31 -35 -75 -49 -61 -9 10 -127 273 -187 420 -18 43
-28 83 -26 103 2 19 5 32 7 30 1 -1 43 -75 93 -163z m-2971 -38 c129 -154 165
-209 147 -227 -10 -10 -85 67 -210 215 -76 91 -94 120 -94 155 0 29 2 31 16
19 9 -8 73 -81 141 -162z m1557 -17 c242 -173 245 -176 252 -216 12 -83 10
-83 -158 33 -87 59 -203 139 -258 176 l-100 68 0 60 c0 33 4 59 9 57 5 -1 120
-82 255 -178z m1189 52 c-76 -95 -245 -282 -254 -282 -18 0 -9 38 20 81 17 24
83 108 148 187 l118 142 3 -41 c3 -34 -2 -47 -35 -87z m-1553 70 c0 -23 -41
-73 -211 -258 -116 -126 -214 -230 -219 -232 -4 -1 -10 17 -13 40 l-7 43 223
217 c122 119 223 217 225 218 1 0 2 -13 2 -28z m-1410 -92 c0 -38 -14 -73 -92
-227 -51 -101 -96 -183 -100 -183 -4 0 -10 10 -13 23 -4 15 24 87 83 222 49
110 93 211 97 225 8 24 8 24 16 5 4 -11 8 -40 9 -65z m3190 -173 c60 -136 89
-215 85 -227 -4 -11 -9 -20 -13 -20 -4 0 -48 81 -99 178 l-91 178 5 63 c4 37
9 58 14 50 4 -8 48 -108 99 -222z m-2961 30 c99 -113 103 -119 95 -150 l-9
-31 -128 162 c-93 119 -127 170 -127 190 1 27 1 27 33 -13 18 -21 79 -93 136
-158z m1181 155 c0 -22 -424 -522 -442 -522 -5 0 -8 12 -8 28 1 20 29 57 118
154 64 70 164 179 222 242 58 64 106 116 108 116 1 0 2 -8 2 -18z m1475 -182
c-64 -82 -120 -152 -125 -155 -4 -3 -11 8 -15 25 -6 27 3 40 98 148 57 65 115
133 128 151 l24 33 3 -26 c3 -20 -22 -58 -113 -176z m-1118 -60 l238 -215 -3
-40 c-2 -22 -7 -43 -10 -46 -4 -4 -114 81 -244 188 l-238 195 0 70 c0 40 4 68
9 66 6 -1 117 -100 248 -218z m-1568 20 c118 -151 149 -205 137 -236 -12 -32
-63 25 -195 223 -60 90 -81 131 -81 155 0 39 -10 49 139 -142z m1221 107 l0
-63 -209 -252 c-212 -254 -221 -262 -221 -190 0 70 23 107 164 271 78 90 166
193 196 230 30 36 58 66 63 66 4 1 7 -27 7 -62z m1548 -73 c-43 -70 -149 -220
-187 -264 -22 -26 -32 -32 -41 -24 -24 24 9 85 132 242 114 146 123 156 126
129 2 -20 -7 -47 -30 -83z m-988 -178 l0 -40 -32 30 c-18 17 -82 75 -143 129
-171 153 -171 155 8 34 l167 -113 0 -40z m-1970 232 c0 -28 -191 -430 -205
-432 -5 0 -11 10 -13 24 -2 17 30 89 89 205 51 99 98 190 103 202 14 29 26 29
26 1z m3175 -210 c93 -183 106 -220 85 -233 -15 -10 -200 377 -200 418 0 42 1
41 115 -185z m-3055 87 c29 -44 73 -106 97 -137 24 -31 43 -60 43 -65 -1 -10
-40 -57 -44 -52 -6 8 -166 342 -166 347 0 10 16 -11 70 -93z m2794 -100 c-43
-91 -82 -165 -85 -165 -4 0 -14 12 -24 26 -17 26 -16 27 14 68 17 22 61 87 98
142 37 56 70 100 72 98 2 -2 -31 -78 -75 -169z m-2954 13 c-23 -50 -51 -116
-62 -145 -19 -52 -31 -63 -43 -43 -3 6 27 79 67 164 77 163 110 184 38 24z
m1984 -352 l-9 -36 -217 224 c-207 213 -218 226 -218 263 l0 38 226 -226 227
-227 -9 -36z m-559 363 c-33 -51 -278 -376 -342 -453 -26 -33 -52 -60 -58 -60
-16 -1 -26 73 -14 97 14 25 26 41 260 322 l174 210 3 -39 c2 -28 -4 -48 -23
-77z m-1173 -233 c11 -36 10 -40 -11 -57 -37 -30 -59 -24 -70 19 -6 20 -19 73
-31 117 -12 44 -28 102 -36 129 -7 27 -14 68 -13 90 0 39 5 32 75 -109 41 -82
80 -167 86 -189z m2922 172 c36 -79 66 -146 66 -150 0 -5 -6 -8 -14 -8 -7 0
-21 21 -31 48 -10 26 -38 89 -62 141 -44 97 -49 111 -35 111 5 0 39 -64 76
-142z m-164 -31 c-12 -45 -29 -109 -37 -142 -20 -78 -30 -89 -71 -74 -49 17
-46 30 61 253 62 128 62 129 65 87 2 -23 -7 -79 -18 -124z m-1177 -2 c125
-102 147 -124 147 -147 0 -16 -3 -28 -8 -28 -4 0 -77 70 -162 156 -85 86 -148
152 -139 148 9 -5 82 -63 162 -129z m-1811 -21 c-16 -54 -37 -134 -47 -177
-16 -76 -17 -78 -36 -61 -10 9 -21 25 -24 35 -7 22 34 143 89 264 33 72 42 85
44 64 2 -14 -10 -71 -26 -125z m1438 58 l0 -58 -95 -110 c-53 -60 -137 -159
-188 -221 -51 -61 -96 -110 -102 -109 -28 7 -6 49 102 188 65 84 154 201 197
261 43 59 80 107 82 107 2 0 4 -26 4 -58z m309 -159 l211 -218 0 -52 c0 -29
-2 -53 -4 -53 -2 0 -99 99 -215 219 -209 217 -212 220 -218 270 -4 33 -2 51 5
51 6 0 105 -98 221 -217z m1422 -5 c28 -77 30 -92 19 -117 -23 -58 -37 -45
-60 57 -12 53 -33 132 -45 176 -32 108 -20 131 21 41 18 -39 47 -109 65 -157z
m-2997 -221 c5 -23 3 -29 -20 -38 -15 -5 -33 -8 -40 -5 -21 8 -35 104 -40 266
l-4 155 48 -175 c27 -96 52 -187 56 -203z m2836 84 c-7 -52 -16 -105 -21 -118
-9 -25 -36 -30 -62 -10 -15 11 -12 28 36 210 l52 198 3 -93 c2 -51 -2 -135 -8
-187z m-2989 38 c-11 -72 -22 -134 -25 -137 -14 -13 -36 24 -36 60 0 38 38
205 63 278 l12 35 3 -52 c2 -29 -6 -112 -17 -184z m3103 -37 c12 -67 12 -75
-4 -95 -10 -12 -22 -19 -26 -15 -9 9 -43 247 -44 304 0 22 3 44 7 48 8 8 49
-137 67 -242z m-1204 -241 l0 -63 -195 187 -195 187 0 77 1 76 194 -200 194
-200 1 -64z m-502 345 c-242 -334 -312 -426 -323 -426 -15 0 -45 38 -45 57 0
15 120 165 271 338 114 130 114 130 117 96 2 -23 -4 -43 -20 -65z m32 -80 c0
-42 -55 -145 -212 -399 -89 -143 -96 -146 -123 -54 l-15 51 37 56 c20 30 95
135 166 233 135 183 147 192 147 113z m-1382 -68 c9 -58 9 -58 -17 -58 l-26 0
10 87 c10 94 14 90 33 -29z m1804 -245 l67 -68 -12 -45 c-6 -25 -13 -47 -14
-50 -2 -2 -89 81 -193 185 l-190 190 0 59 0 58 138 -130 c75 -72 167 -161 204
-199z m1192 205 c5 -25 2 -28 -20 -28 -25 0 -25 1 -19 58 10 91 18 104 26 47
4 -27 10 -62 13 -77z m-1686 -209 c-47 -63 -102 -140 -124 -171 -21 -32 -43
-58 -47 -58 -26 0 -11 41 46 132 35 57 93 153 128 214 l64 111 8 -57 8 -58
-83 -113z m356 -18 c108 -107 196 -198 196 -203 0 -4 -89 57 -197 136 l-198
143 -3 64 c-2 35 -1 61 2 59 3 -3 93 -92 200 -199z m-289 -69 c-32 -60 -203
-353 -211 -361 -12 -12 -54 51 -54 80 0 50 61 152 212 353 l63 84 9 -51 c9
-46 7 -55 -19 -105z m261 -5 c82 -59 157 -114 167 -121 14 -11 17 -25 15 -66
l-3 -52 -177 148 c-162 136 -177 152 -177 182 -1 40 -16 47 175 -91z m146
-239 c17 -17 29 -41 33 -71 14 -89 7 -87 -110 34 -60 62 -141 145 -180 184
-57 57 -69 75 -67 97 3 27 9 23 150 -96 81 -68 159 -135 174 -148z m-467 -16
c-54 -125 -99 -229 -101 -231 -6 -7 -34 67 -34 90 0 19 60 128 189 344 68 114
45 29 -54 -203z m280 61 c71 -76 149 -157 174 -179 l44 -41 -29 -41 c-16 -23
-32 -41 -35 -39 -4 1 -72 81 -153 177 -138 165 -146 177 -146 217 0 24 4 43 9
43 4 0 66 -62 136 -137z m-226 -99 c-28 -87 -59 -183 -67 -211 -9 -29 -20 -53
-24 -53 -5 0 -16 15 -25 34 l-16 34 68 159 c109 254 108 252 112 222 2 -14
-19 -97 -48 -185z m26 -132 c-14 -103 -28 -193 -30 -200 -6 -18 -65 13 -65 34
0 24 114 375 118 364 2 -6 -8 -94 -23 -198z m240 29 c134 -161 139 -171 100
-211 -15 -16 -32 -27 -36 -24 -10 6 -209 388 -209 400 0 5 8 -1 18 -12 9 -12
67 -81 127 -153z m-146 29 c11 -41 32 -120 47 -175 45 -167 44 -164 24 -175
-23 -12 -57 -13 -64 -2 -8 13 -38 437 -30 430 1 -2 12 -37 23 -78z m-39 -45
c0 -56 5 -149 10 -205 6 -56 9 -104 6 -107 -2 -3 -23 -7 -45 -10 -40 -5 -41
-5 -41 23 0 58 54 413 62 408 4 -3 8 -52 8 -109z m150 -83 c74 -145 82 -164
69 -178 -9 -8 -28 -16 -44 -17 -27 -2 -29 1 -46 63 -56 215 -81 306 -86 315
-3 5 1 3 9 -5 9 -8 53 -88 98 -178z"/>
<path d="M4576 7663 c-108 -33 -227 -138 -272 -240 -41 -91 -51 -193 -31 -297
22 -112 39 -161 92 -271 119 -247 359 -527 568 -663 69 -44 159 -82 197 -82
36 0 119 37 182 83 257 183 522 545 630 857 29 86 32 106 33 215 0 113 -2 124
-29 178 -36 72 -100 129 -196 176 -72 34 -80 36 -180 36 -100 0 -109 -2 -180
-36 -89 -43 -172 -108 -239 -189 l-49 -59 -51 69 c-144 193 -313 273 -475 223z
m241 -43 c76 -38 180 -135 238 -222 21 -32 41 -58 46 -58 4 0 23 21 42 48 113
152 281 252 426 252 151 0 309 -95 363 -218 94 -213 -65 -618 -384 -982 -165
-187 -323 -302 -418 -303 -183 -3 -565 364 -737 708 -143 284 -141 520 4 676
128 138 272 171 420 99z"/>
</g>
</svg>
