<?xml version="1.0" standalone="no"?>
<!DOCTYPE svg PUBLIC "-//W3C//DTD SVG 20010904//EN"
 "http://www.w3.org/TR/2001/REC-SVG-20010904/DTD/svg10.dtd">
<svg version="1.0" xmlns="http://www.w3.org/2000/svg"
 width="1024.000000pt" height="1024.000000pt" viewBox="0 0 1024.000000 1024.000000"
 preserveAspectRatio="xMidYMid meet">
<metadata>
Created by potrace 1.14, written by Peter Selinger 2001-2017
</metadata>
<g transform="translate(0.000000,1024.000000) scale(0.100000,-0.100000)"
fill="#000000" stroke="none">
<path d="M6019 9971 c-26 -27 -30 -37 -25 -63 3 -18 23 -46 45 -67 68 -63 76
-142 27 -259 -16 -38 -30 -91 -33 -132 -5 -64 -7 -68 -24 -59 -13 6 -19 21
-19 42 0 45 -41 217 -52 217 -5 0 -11 -7 -14 -15 -9 -21 -32 -19 -110 12 -57
22 -86 27 -164 27 -82 1 -102 -3 -150 -25 -58 -27 -111 -73 -141 -123 -13 -21
-19 -25 -22 -15 -36 117 -84 192 -150 233 -40 25 -63 31 -150 38 -94 9 -199
27 -238 43 -12 4 -28 -21 -74 -116 -49 -102 -58 -132 -59 -178 -1 -64 31 -130
84 -174 16 -14 30 -28 30 -30 0 -2 -37 -7 -81 -10 -66 -5 -131 -23 -333 -92
-206 -69 -275 -88 -386 -105 -365 -54 -442 -76 -555 -151 -69 -46 -131 -108
-348 -342 -77 -83 -151 -149 -250 -224 -166 -125 -301 -256 -345 -333 -46 -82
-76 -183 -121 -408 -30 -147 -55 -241 -92 -340 -28 -75 -66 -179 -85 -231 -92
-249 -80 -400 56 -736 60 -149 80 -220 121 -424 79 -398 131 -482 435 -711
156 -118 236 -193 312 -294 42 -56 52 -77 52 -108 0 -21 7 -52 15 -68 15 -28
14 -32 -17 -87 -18 -32 -49 -80 -69 -107 -21 -27 -77 -126 -126 -220 l-88
-171 -126 -125 c-112 -111 -131 -135 -167 -210 -64 -133 -85 -236 -80 -405 4
-156 17 -200 77 -264 17 -18 34 -44 37 -57 3 -13 20 -35 36 -49 l30 -26 -45
-48 c-48 -52 -97 -137 -97 -171 0 -21 14 -27 25 -10 3 5 15 14 25 20 16 9 15
1 -11 -50 -67 -136 -92 -314 -65 -470 24 -136 80 -242 106 -200 6 9 16 -2 33
-36 14 -27 44 -72 66 -101 49 -61 160 -148 173 -135 5 5 0 28 -11 55 -26 61
-51 182 -51 249 0 83 44 164 141 261 l80 81 19 -31 c10 -17 39 -59 65 -94 l47
-64 -4 -71 c-6 -93 -43 -176 -93 -205 -59 -35 -80 -96 -51 -150 11 -22 11 -29
-1 -45 -7 -10 -13 -39 -12 -64 1 -25 -8 -71 -21 -105 -18 -48 -21 -74 -18
-130 6 -90 38 -153 123 -246 95 -104 143 -198 185 -366 6 -24 15 -43 20 -43 4
0 14 17 21 38 17 54 45 89 92 116 68 38 106 40 205 11 39 -12 26 21 -23 58
-24 19 -94 65 -156 103 -206 128 -288 229 -324 399 -20 94 -19 104 9 117 26
11 51 58 44 79 -2 7 10 26 29 42 37 33 52 85 34 124 -10 21 -8 29 17 61 16 21
35 48 42 62 13 25 14 24 28 -25 8 -29 14 -104 15 -180 2 -117 0 -135 -22 -182
-13 -29 -41 -69 -62 -88 -22 -19 -39 -37 -39 -40 0 -3 19 -5 43 -5 51 0 135
45 171 92 47 62 96 152 102 187 4 20 21 70 39 111 18 42 41 112 51 155 24 105
24 300 0 405 -31 130 -31 130 1 83 15 -24 33 -43 39 -43 15 0 24 71 24 179 0
102 -13 189 -42 290 -17 58 -19 76 -10 90 7 9 21 33 30 53 10 21 31 47 47 60
57 44 105 191 105 318 0 57 -6 85 -36 156 -19 47 -33 88 -31 90 2 3 16 0 31
-6 36 -13 105 -13 145 1 42 15 40 29 -3 22 -54 -9 -124 6 -154 32 -26 22 -26
24 -9 42 10 12 17 36 17 61 0 36 3 42 21 42 12 0 36 15 55 34 36 36 45 86 24
127 -8 14 -6 25 6 44 26 40 15 121 -24 176 -42 59 -102 96 -247 154 -66 26
-133 54 -150 62 -40 20 -97 64 -92 70 3 2 49 -16 104 -41 105 -48 215 -78 353
-96 246 -31 324 -51 561 -138 137 -51 248 -82 297 -82 15 0 36 -7 46 -15 11
-8 30 -15 43 -15 21 0 22 -4 22 -66 -1 -43 7 -87 22 -128 l22 -64 -22 -23
c-26 -28 -28 -80 -4 -120 17 -28 17 -30 -2 -49 -11 -10 -51 -41 -90 -67 -62
-43 -74 -57 -111 -128 -36 -69 -45 -80 -70 -83 -60 -5 -75 -13 -91 -47 -21
-45 -6 -103 37 -139 l31 -25 -26 -17 c-13 -9 -34 -31 -45 -49 -11 -18 -31 -36
-44 -39 -40 -10 -87 -57 -112 -111 -13 -27 -24 -57 -24 -66 0 -9 -16 -29 -35
-43 -29 -23 -35 -33 -35 -65 0 -22 6 -44 15 -51 20 -17 19 -24 -7 -35 -32 -14
-68 -72 -68 -109 0 -43 31 -97 67 -115 27 -15 30 -19 25 -57 -4 -38 -1 -44 32
-70 21 -16 53 -59 73 -96 68 -130 191 -221 358 -266 86 -23 90 -35 40 -117
-40 -67 -55 -113 -55 -167 0 -21 -4 -38 -9 -38 -17 0 -41 -31 -41 -54 0 -19
-8 -24 -58 -34 -32 -7 -85 -12 -118 -12 -48 -1 -55 -3 -40 -12 12 -7 50 -9
103 -5 l85 5 -34 -20 c-44 -27 -98 -79 -98 -95 0 -7 -12 -32 -26 -55 -41 -64
-64 -145 -71 -243 -5 -73 -3 -94 9 -106 8 -8 17 -34 21 -59 3 -25 9 -59 13
-76 5 -28 3 -32 -19 -38 -14 -3 -28 -15 -32 -25 -3 -11 -19 -22 -35 -26 -45
-10 -73 -52 -66 -96 4 -24 1 -47 -9 -65 -21 -40 -19 -118 6 -227 14 -64 19
-108 14 -144 -7 -59 -1 -64 40 -31 33 26 55 75 55 124 0 27 7 43 30 64 l29 27
-33 44 c-19 24 -40 64 -46 89 -11 39 -10 46 5 55 47 28 65 48 65 73 1 17 10
34 26 45 14 11 26 17 28 15 1 -1 15 -23 30 -47 65 -102 226 -240 304 -260 23
-7 84 -10 136 -9 52 2 98 0 102 -5 18 -18 -74 -68 -141 -76 -45 -6 -50 -9 -47
-30 2 -19 -1 -22 -15 -16 -10 4 -62 11 -116 15 -70 6 -104 13 -117 25 -27 24
-42 10 -34 -33 10 -63 42 -118 93 -160 73 -62 113 -82 183 -93 53 -8 73 -7
125 9 129 40 283 152 338 246 13 23 41 57 61 76 45 42 78 111 100 209 13 60
16 108 11 255 -6 199 -10 220 -68 352 l-41 90 36 60 c20 32 43 80 50 106 8 25
24 56 35 67 12 12 21 34 21 51 0 16 4 30 8 30 14 0 42 58 42 88 0 16 -9 41
-20 55 -18 23 -19 27 -5 53 19 38 11 59 -44 116 -117 119 -273 199 -417 214
-53 6 -64 10 -64 25 0 10 -13 33 -29 52 -27 30 -29 37 -21 72 5 21 12 41 17
44 5 3 36 25 69 47 72 50 77 56 118 136 28 53 38 63 62 66 58 5 74 13 89 42
22 42 19 82 -10 124 l-24 36 29 15 c65 34 99 128 80 222 -9 42 -21 64 -53 96
l-42 42 34 33 c32 31 33 36 29 89 -4 46 0 68 20 112 50 109 37 264 -30 366
-17 26 -82 86 -151 142 -67 54 -131 107 -142 118 -32 32 -67 85 -56 85 5 0 22
11 38 24 30 25 258 122 353 150 30 9 134 28 230 42 96 14 215 34 264 46 115
26 245 92 323 162 64 59 77 65 86 42 14 -37 -70 -215 -126 -268 -22 -21 -28
-35 -26 -61 2 -22 -4 -44 -19 -64 -15 -21 -22 -46 -22 -77 0 -38 6 -52 35 -85
19 -21 35 -44 35 -50 0 -6 9 -20 21 -32 28 -28 17 -37 -62 -51 -87 -15 -102
-32 -21 -24 l63 6 -31 -45 c-30 -43 -64 -124 -56 -132 2 -2 8 9 14 26 6 17 23
47 37 68 l27 38 -6 -104 c-7 -120 -18 -150 -64 -172 -40 -18 -52 -35 -52 -71
0 -25 -4 -28 -35 -28 -24 0 -45 -9 -67 -29 -30 -27 -33 -35 -33 -88 -1 -53 -4
-61 -38 -98 -56 -60 -106 -139 -142 -224 -36 -84 -69 -216 -59 -232 4 -6 17 0
34 16 56 54 141 40 190 -32 19 -28 26 -52 28 -110 5 -81 17 -93 50 -45 47 67
54 155 22 292 -11 47 -20 108 -20 136 0 67 35 184 56 184 29 0 74 31 90 62 11
21 15 46 11 74 -4 38 -1 45 24 63 16 12 29 30 29 41 0 10 4 21 9 24 4 3 10
-27 13 -67 5 -78 38 -159 84 -207 13 -14 32 -50 43 -81 10 -30 28 -74 40 -98
l22 -42 -30 -92 c-39 -119 -51 -185 -52 -277 -1 -74 -2 -76 -45 -122 -24 -25
-60 -72 -80 -104 -39 -61 -127 -233 -139 -272 -3 -12 -19 -29 -35 -37 -34 -17
-50 -43 -50 -78 0 -13 -9 -32 -20 -42 -33 -30 -45 -85 -27 -126 12 -29 12 -38
2 -53 -10 -13 -13 -53 -11 -141 2 -120 3 -125 39 -198 58 -117 154 -189 289
-217 46 -9 64 -19 92 -50 90 -100 121 -248 82 -385 -10 -31 -15 -60 -12 -63 4
-3 16 4 29 15 52 48 133 61 182 29 32 -21 65 -73 65 -103 0 -13 6 -23 13 -23
16 0 90 224 108 324 30 176 -29 295 -188 379 -43 22 -121 49 -213 72 -80 20
-164 43 -187 52 -84 31 -191 179 -155 215 7 7 12 26 12 44 0 23 7 36 25 48 36
23 49 54 47 113 -1 29 3 55 8 58 6 3 10 21 10 40 0 30 7 39 59 75 33 23 63 42
68 41 4 0 11 -33 15 -73 20 -214 133 -442 285 -577 91 -81 98 -73 49 64 -49
139 -56 296 -19 458 15 67 15 68 34 51 19 -17 21 -16 62 24 52 51 102 132 131
212 25 68 55 105 64 80 4 -14 27 -37 173 -175 31 -29 70 -56 86 -59 27 -6 37
-19 73 -94 24 -48 55 -118 71 -157 15 -38 31 -71 36 -72 13 -5 60 93 78 164 9
32 18 101 21 153 2 52 11 124 19 160 17 77 20 271 4 355 -8 44 -7 74 2 123 11
55 11 75 -3 141 -9 42 -19 83 -22 91 -5 12 5 21 34 34 68 30 90 108 50 174
-19 30 -19 35 -5 55 19 27 19 68 0 93 -8 10 -15 26 -15 35 0 37 -63 139 -118
191 -61 58 -109 87 -178 108 -38 11 -42 16 -59 69 -50 160 -146 267 -290 323
l-40 16 3 54 c3 46 0 59 -21 84 -14 16 -30 54 -37 88 -25 121 -86 220 -176
285 -27 20 -71 54 -96 76 l-46 41 24 27 c13 15 26 44 30 65 14 73 47 108 263
270 163 122 257 219 308 318 49 94 70 166 118 403 39 196 50 234 108 379 l41
103 19 -38 c35 -67 123 -141 232 -193 118 -57 243 -95 279 -86 17 4 33 21 47
49 12 23 35 61 51 85 60 87 82 151 83 232 0 66 -5 85 -34 145 -38 77 -150 198
-238 256 l-52 35 91 17 c189 36 364 162 512 370 51 71 57 104 25 133 -12 10
-39 45 -61 77 -46 67 -105 114 -157 123 -46 8 -75 23 -45 24 21 0 165 67 198
92 17 14 16 17 -25 64 -23 27 -74 92 -112 144 -135 182 -258 281 -419 334 -42
14 -84 26 -92 26 -9 0 -16 4 -16 9 0 11 63 94 113 150 l39 43 -57 58 c-32 32
-73 66 -91 76 -19 10 -34 21 -34 24 0 3 21 19 46 35 76 51 265 288 246 307 -6
6 -34 -3 -72 -22 -113 -57 -116 -56 -55 17 30 37 55 70 55 74 0 4 13 10 30 14
39 8 70 49 70 90 0 37 -46 85 -81 85 -54 0 -90 -40 -87 -97 2 -39 -1 -45 -37
-73 -49 -36 -69 -39 -62 -7 29 111 33 516 7 601 l-12 39 -64 -6 c-35 -4 -105
-20 -156 -37 -266 -89 -460 -259 -561 -492 -33 -75 -34 -75 -58 -62 -34 19
-79 17 -115 -5 l-32 -19 -6 56 c-8 73 -56 182 -133 302 -33 52 -84 142 -113
200 -54 109 -84 150 -108 150 -11 0 -13 -12 -8 -57 3 -32 2 -76 -2 -98 l-8
-40 -16 35 c-8 19 -38 75 -67 124 -33 57 -51 100 -51 121 0 42 -26 73 -67 81
-27 5 -37 1 -64 -25z m89 -13 c21 -21 14 -66 -13 -84 -23 -15 -27 -15 -50 0
-26 17 -32 45 -15 77 12 22 59 26 78 7z m89 -210 c34 -62 64 -127 67 -144 4
-19 -1 -59 -14 -106 -11 -41 -24 -100 -28 -130 l-7 -55 -77 29 -78 30 0 57 c0
32 8 82 17 112 l17 54 8 -82 c9 -91 23 -137 39 -128 6 4 7 14 4 24 -4 9 -11
90 -15 181 -6 116 -13 178 -24 205 -16 37 -16 40 0 52 10 7 21 13 24 13 4 0
34 -51 67 -112z m-1354 -45 c32 -35 39 -16 10 28 -14 22 -24 41 -22 44 6 5
213 -14 276 -26 97 -19 175 -118 205 -263 10 -45 9 -75 -6 -169 -18 -116 -31
-155 -40 -127 -42 136 -88 200 -142 200 -61 0 -72 -54 -24 -116 88 -115 101
-148 38 -101 -46 35 -192 112 -259 137 -68 25 -142 87 -171 143 -30 59 -21
116 36 234 l48 98 15 -30 c9 -16 25 -40 36 -52z m1538 -25 c28 -56 78 -145
111 -196 74 -119 101 -173 122 -241 23 -78 21 -143 -5 -167 -20 -18 -21 -18
-32 1 -21 38 -101 117 -144 142 -48 28 -63 50 -87 133 -28 93 -37 189 -30 313
4 64 8 117 10 117 2 0 27 -46 55 -102z m1257 -4 c10 -29 13 -77 9 -184 -8
-214 -40 -310 -140 -420 -28 -32 -77 -100 -107 -151 -63 -105 -107 -143 -177
-154 -27 -3 -57 -9 -68 -11 -17 -4 -23 2 -33 38 -7 24 -15 48 -18 54 -2 6 23
31 56 57 126 99 254 328 195 351 -13 5 -13 11 4 48 10 24 24 55 30 71 6 16 18
27 30 27 25 0 61 45 61 76 0 37 -41 77 -80 77 -44 0 -81 -41 -78 -88 1 -23 -6
-42 -26 -66 -39 -46 -56 -55 -56 -29 0 29 -13 26 -102 -27 -94 -56 -181 -139
-214 -205 -26 -51 -35 -56 -53 -34 -14 17 5 73 55 166 97 177 275 323 484 396
76 26 188 53 205 50 6 -2 16 -20 23 -42z m-1837 -50 c44 -15 78 -32 76 -38 -2
-6 -24 -24 -50 -41 -25 -16 -46 -35 -46 -42 -1 -21 54 5 104 49 25 22 47 39
49 37 2 -2 10 -40 19 -85 22 -112 14 -139 -64 -212 -42 -38 -188 -94 -324
-122 -49 -11 -101 -22 -115 -26 -24 -6 -23 -5 9 27 61 61 79 141 41 179 -11
11 -29 20 -40 20 -34 0 -98 -38 -114 -68 -19 -35 -19 -24 -1 84 24 135 67 194
175 243 67 31 178 28 281 -5z m1630 -104 c35 -19 16 -100 -24 -100 -24 0 -57
32 -57 55 0 44 40 67 81 45z m-1106 -194 c9 -26 14 -50 11 -53 -2 -3 -21 1
-41 8 -23 9 -38 21 -42 37 -7 29 2 107 19 164 l12 42 13 -74 c7 -41 20 -97 28
-124z m1032 48 c-10 -58 -41 -107 -83 -131 -21 -13 -43 -23 -47 -23 -5 0 -6
19 -2 41 6 34 19 53 64 95 31 29 60 53 65 54 5 0 6 -16 3 -36z m-1197 -69 c94
-35 198 -79 231 -97 68 -36 139 -99 163 -146 15 -29 15 -32 -19 -88 -19 -32
-35 -63 -35 -68 0 -6 -4 -17 -9 -25 -7 -11 -15 -9 -42 11 -19 14 -52 31 -74
38 -52 16 -157 75 -180 100 -10 11 -22 17 -26 14 -5 -3 -9 -62 -9 -132 0 -183
28 -283 100 -366 17 -18 30 -36 30 -39 0 -3 -17 -1 -37 4 -21 5 -66 13 -101
19 -77 13 -136 40 -191 86 -42 36 -51 54 -28 54 7 0 30 9 51 20 21 10 59 22
83 26 55 8 63 25 29 61 -15 15 -34 48 -43 73 -83 228 -99 251 -202 291 -79 31
-82 54 -11 88 48 23 140 109 140 131 0 5 2 10 4 10 3 0 82 -29 176 -65z m-982
21 c17 -19 38 -61 47 -93 9 -32 18 -65 21 -74 2 -9 -2 -19 -11 -23 -10 -4 -19
5 -30 29 -8 20 -35 60 -60 91 -51 64 -60 104 -21 104 15 0 35 -13 54 -34z
m2032 6 c0 -72 -69 -256 -132 -355 l-31 -48 -64 68 -63 68 17 40 c31 68 89
131 175 189 46 30 86 56 91 56 4 0 7 -8 7 -18z m-1722 -34 c5 -54 -19 -90 -97
-147 -54 -39 -72 -47 -80 -37 -7 9 -6 18 4 32 7 11 23 51 35 88 24 74 61 109
110 104 21 -3 25 -9 28 -40z m-601 -20 l58 -23 -75 -7 c-223 -21 -302 -49
-379 -134 -38 -42 -60 -56 -126 -81 -151 -57 -223 -73 -455 -103 -302 -38
-402 -89 -583 -298 -165 -191 -220 -243 -377 -361 -85 -63 -178 -139 -207
-167 -101 -100 -154 -212 -188 -399 -50 -274 -64 -326 -138 -512 -142 -358
-142 -436 2 -794 81 -203 80 -202 121 -423 38 -208 68 -300 126 -388 54 -81
108 -131 282 -260 146 -108 207 -161 253 -220 l30 -38 -24 -32 c-14 -18 -31
-55 -39 -81 l-14 -48 -67 84 c-69 85 -106 118 -302 267 -197 150 -283 254
-336 407 -11 32 -37 147 -59 256 -49 243 -50 247 -122 430 -78 198 -108 304
-115 407 -8 121 14 218 103 448 84 219 90 241 138 484 72 359 124 442 419 666
180 136 208 163 348 320 147 167 193 211 285 271 87 58 172 86 334 112 395 64
358 55 649 158 229 82 355 98 458 59z m2979 -36 c6 -4 16 -17 23 -30 10 -19
10 -28 -4 -48 -20 -30 -37 -38 -68 -30 -41 10 -54 65 -24 104 10 13 55 16 73
4z m-526 -33 c0 -12 -16 -51 -35 -88 -61 -116 -201 -255 -232 -230 -11 10 -11
16 4 38 49 75 86 142 104 191 21 59 39 76 104 96 54 17 55 17 55 -7z m285
-115 c-26 -140 -59 -208 -133 -281 -62 -61 -66 -63 -106 -57 -68 9 -70 11 -39
42 15 16 52 69 82 117 30 49 71 107 91 129 57 63 98 124 107 159 l7 32 4 -27
c2 -15 -4 -67 -13 -114z m-2532 77 c37 -24 67 -46 67 -48 0 -3 -27 -2 -60 2
-95 11 -160 -22 -160 -82 0 -54 53 -66 147 -33 76 27 85 25 43 -7 -19 -15 -76
-66 -125 -114 -98 -96 -161 -131 -261 -150 -113 -21 -236 16 -283 86 -13 19
-22 37 -20 38 2 2 21 10 43 18 21 8 36 19 35 24 -2 6 -8 8 -14 6 -24 -9 -107
-13 -104 -5 62 141 140 239 217 271 62 26 181 42 297 40 l111 -2 67 -44z m667
9 c0 -5 -7 -10 -15 -10 -8 0 -15 5 -15 10 0 6 7 10 15 10 8 0 15 -4 15 -10z
m41 -50 c77 -24 133 -60 154 -100 8 -16 31 -72 50 -125 19 -53 44 -109 55
-125 27 -38 26 -40 -17 -40 -38 0 -97 24 -142 57 -22 16 -23 16 -20 -2 4 -17
25 -35 85 -71 17 -10 15 -13 -21 -24 -22 -7 -89 -15 -148 -17 -162 -8 -279 20
-338 81 l-27 27 29 29 c50 50 32 108 -62 194 l-58 54 46 22 c127 59 299 76
414 40z m1083 -76 c77 -65 171 -174 200 -231 30 -60 23 -77 -48 -112 -46 -22
-84 -53 -133 -105 l-69 -73 -42 29 c-76 53 -92 116 -42 166 51 52 31 86 -49
85 -49 -1 -128 -34 -188 -81 -24 -18 -33 -20 -33 -10 0 33 40 169 64 216 33
65 116 155 167 180 54 27 77 18 173 -64z m-1589 36 c9 -15 -14 -50 -33 -50
-39 0 -57 51 -25 69 18 9 46 0 58 -19z m2499 21 c11 -17 -108 -151 -156 -177
-33 -17 -33 -17 -11 53 14 43 23 57 48 68 16 7 44 25 60 39 31 27 50 32 59 17z
m-2656 -17 c34 -5 52 -11 52 -20 0 -8 -8 -14 -17 -14 -10 0 -53 -11 -95 -25
-85 -27 -108 -25 -108 11 0 47 50 62 168 48z m260 -118 c47 -48 62 -71 62 -93
0 -39 -13 -55 -41 -51 -19 2 -30 18 -54 74 -16 39 -38 83 -47 97 -17 25 -15
37 7 37 7 0 40 -29 73 -64z m-988 5 c-11 -23 -32 -46 -45 -51 -35 -13 -31 -25
15 -44 28 -11 40 -22 40 -36 0 -27 55 -87 104 -112 31 -16 68 -23 146 -28 96
-5 180 -27 180 -46 0 -3 -44 -52 -97 -109 -159 -166 -305 -384 -349 -520 l-27
-82 -119 59 c-130 64 -314 130 -420 149 -47 9 -68 17 -68 27 0 31 -33 80 -66
98 -39 21 -39 26 3 173 49 173 132 329 220 413 35 35 45 38 143 53 58 9 162
36 230 59 69 23 126 41 128 40 2 -1 -6 -21 -18 -43z m825 -42 c-26 -98 -53
-139 -95 -139 -29 0 17 131 65 188 39 47 50 29 30 -49z m100 -29 c15 -38 34
-79 44 -92 26 -35 66 -186 65 -245 -3 -100 -71 -198 -168 -238 -60 -25 -61
-24 -58 66 3 64 1 80 -10 77 -9 -3 -13 -26 -14 -74 -1 -89 -42 -161 -61 -106
-3 9 -36 49 -73 87 -79 83 -114 139 -135 220 -28 110 -2 168 135 298 96 92
125 109 92 55 -26 -43 -56 -142 -49 -161 8 -21 40 -26 75 -11 36 15 63 63 82
144 7 30 15 59 17 63 10 16 33 -17 58 -83z m921 46 c31 -19 77 -41 102 -48 24
-7 60 -26 79 -43 l35 -30 -11 -76 c-8 -60 -18 -87 -46 -129 -20 -30 -41 -73
-47 -96 -11 -41 -12 -42 -35 -27 -40 26 -102 123 -123 191 -29 94 -40 292 -16
292 3 0 31 -15 62 -34z m1538 -48 c-64 -84 -163 -181 -200 -196 -26 -11 -38
-10 -76 5 -26 10 -48 21 -50 24 -1 3 27 38 64 78 58 63 73 73 122 86 30 8 83
27 118 43 35 16 65 28 67 26 2 -1 -19 -31 -45 -66z m-3922 -55 c-57 -70 -99
-141 -138 -235 -34 -81 -84 -252 -84 -289 0 -12 -15 -25 -44 -38 -33 -14 -50
-30 -65 -59 l-20 -39 -98 -6 c-196 -12 -535 -97 -681 -171 -30 -15 -52 -22
-52 -15 0 21 145 155 245 226 162 116 226 174 353 321 149 171 217 233 307
278 72 35 210 72 278 73 l38 1 -39 -47z m2873 -83 c0 -8 -47 -50 -105 -93
-168 -125 -185 -146 -206 -252 l-11 -60 -23 49 c-25 54 -22 93 12 160 53 104
216 221 298 214 23 -2 35 -8 35 -18z m-1851 -47 c-4 -21 -7 -39 -8 -40 -1 -1
-22 7 -45 19 l-43 21 43 18 c61 24 61 24 53 -18z m666 -43 c51 -18 94 -23 194
-26 102 -3 133 -7 145 -19 15 -15 10 -16 -54 -10 -107 10 -239 -12 -357 -60
-15 -6 -18 -1 -18 33 0 22 -7 59 -15 82 -21 59 -19 64 13 41 15 -10 57 -29 92
-41z m1864 40 c43 -11 103 -33 135 -50 69 -37 181 -126 181 -144 0 -7 -9 -21
-20 -31 -12 -11 -52 -62 -89 -114 -139 -194 -269 -284 -448 -311 -38 -5 -92
-6 -122 -2 l-54 7 75 38 c161 82 196 137 208 322 4 66 11 127 14 135 6 14 -10
15 -126 12 -73 -2 -149 -8 -168 -13 -43 -10 -84 -51 -119 -117 -17 -30 -34
-48 -48 -50 -21 -3 -21 -1 -11 35 33 125 167 249 309 287 78 21 192 19 283 -4z
m-671 -155 c23 -22 50 -44 58 -50 14 -9 14 -16 -3 -70 l-20 -60 -114 -56 -113
-56 -52 29 -51 30 4 66 c6 100 27 134 132 212 l91 67 12 -36 c7 -20 32 -54 56
-76z m-1848 13 c23 -73 56 -128 120 -196 l54 -58 -70 -99 c-38 -55 -68 -103
-66 -109 2 -5 22 -15 45 -21 23 -7 79 -38 126 -69 46 -31 91 -58 99 -62 12 -4
-3 -21 -56 -63 -130 -104 -258 -254 -317 -370 l-21 -43 -40 67 c-78 135 -211
274 -335 352 -50 32 -50 30 -2 155 31 82 141 256 236 372 75 91 191 208 201
201 5 -2 16 -28 26 -57z m1073 -9 c23 -13 42 -27 42 -30 0 -4 -17 -9 -38 -13
-22 -3 -56 -17 -77 -32 -38 -25 -40 -26 -73 -9 -83 39 -215 27 -341 -31 -30
-13 -55 -23 -56 -22 -2 2 7 23 19 48 38 82 161 121 361 116 106 -2 126 -6 163
-27z m1216 -41 c-15 -18 -49 -80 -76 -138 -55 -116 -73 -140 -137 -178 -56
-33 -175 -43 -206 -17 -13 11 -16 18 -8 21 69 29 243 180 243 211 0 16 -28 17
-66 3 -15 -6 -29 -8 -31 -6 -9 9 41 86 65 102 29 19 95 31 180 33 l64 1 -28
-32z m68 -85 c-6 -174 -44 -233 -195 -308 -85 -42 -138 -45 -191 -9 l-29 18
59 13 c71 16 135 53 168 96 13 17 44 75 69 127 39 85 97 170 116 170 3 0 5
-48 3 -107z m-1069 53 c148 -29 154 -32 177 -84 25 -57 60 -95 118 -129 l43
-25 -41 -35 c-44 -38 -52 -73 -21 -95 12 -8 22 -32 26 -60 l7 -46 -51 -40
c-78 -62 -149 -85 -246 -80 -107 6 -166 33 -284 131 -53 43 -108 85 -123 93
-31 16 -32 18 -19 42 5 10 16 56 24 104 17 97 41 145 93 184 71 55 158 66 297
40z m-388 -30 c19 -8 35 -18 35 -21 0 -17 -55 -85 -70 -85 -9 0 -38 -11 -65
-24 -48 -25 -48 -25 -84 -6 -41 21 -131 47 -176 52 -29 3 -28 4 25 32 119 63
257 84 335 52z m1139 -87 c-66 -74 -227 -168 -366 -215 -62 -20 -82 -23 -93
-14 -11 9 -12 17 -5 30 11 20 146 100 251 150 64 30 220 80 228 73 2 -1 -4
-12 -15 -24z m-1468 -30 c32 -6 80 -20 107 -31 54 -23 52 -35 -14 -69 -60 -30
-114 -25 -203 19 l-77 39 38 26 c43 29 64 32 149 16z m299 -84 c-3 -29 -15
-70 -26 -91 -24 -48 -24 -50 3 -58 71 -18 -104 -48 -212 -36 -70 8 -136 24
-160 39 -18 12 -20 11 65 40 40 13 112 51 168 88 109 72 160 97 166 82 2 -6 0
-34 -4 -64z m-663 13 c4 -30 32 -34 64 -9 37 29 82 26 150 -11 32 -17 81 -39
108 -48 l49 -16 -77 -23 c-58 -17 -76 -27 -74 -39 4 -23 83 -60 153 -73 70
-13 219 -7 286 12 44 12 47 11 84 -17 l39 -29 -125 -6 c-68 -3 -180 -16 -249
-29 -205 -37 -269 -25 -412 71 -31 22 -70 44 -85 50 l-28 12 25 7 c14 5 75 9
135 10 146 2 107 22 -47 24 -72 1 -104 4 -100 12 26 41 88 124 94 124 4 0 8
-10 10 -22z m2631 -13 c152 -52 249 -133 404 -337 57 -76 109 -140 114 -143
19 -12 7 -23 -68 -58 -104 -48 -178 -67 -299 -74 -299 -18 -636 116 -888 352
-27 25 -47 47 -45 50 3 2 22 0 44 -5 22 -5 67 -10 99 -10 l59 0 83 -79 c140
-135 211 -160 468 -167 l179 -5 27 -29 c52 -56 130 -29 130 44 0 45 -41 80
-83 72 -29 -6 -123 30 -144 55 -6 8 -22 41 -34 74 -36 97 -109 164 -222 205
l-28 10 33 40 c38 47 50 47 171 5z m-4053 0 c36 -19 50 -43 50 -88 0 -46 -46
-87 -96 -87 -97 0 -120 143 -29 181 30 12 43 11 75 -6z m3078 -94 l32 -28 -25
-46 c-17 -29 -29 -71 -34 -119 -11 -93 -13 -97 -66 -141 -49 -41 -55 -44 -55
-22 0 9 -21 61 -46 117 -26 56 -49 120 -51 142 l-5 41 68 24 c38 13 85 32 104
42 44 23 39 23 78 -10z m865 -19 c44 -23 117 -101 117 -123 0 -4 -26 4 -57 19
-50 23 -72 27 -168 29 -60 1 -121 6 -135 11 l-25 9 30 16 c17 8 48 29 70 47
35 28 45 31 79 25 22 -3 62 -18 89 -33z m-4092 -14 c8 -18 28 -42 46 -53 31
-20 31 -21 38 -125 9 -154 33 -331 50 -380 8 -23 15 -46 15 -50 0 -4 -21 -11
-47 -15 -121 -18 -402 -150 -612 -288 l-135 -89 -16 23 c-30 39 -117 221 -148
310 -40 114 -71 262 -79 375 l-6 92 84 42 c184 93 548 184 755 189 36 1 42 -2
55 -31z m410 -34 c132 -37 327 -121 417 -179 1 -1 -4 -33 -12 -71 -21 -99 -29
-256 -18 -349 5 -44 8 -82 6 -84 -2 -2 -34 10 -72 27 -121 56 -209 74 -389 79
l-162 5 -15 39 c-22 54 -44 209 -52 360 l-7 125 42 16 c25 10 48 28 58 46 21
36 31 35 204 -14z m2895 -30 c14 -93 -18 -209 -74 -267 -15 -16 -53 -42 -84
-58 -49 -25 -58 -27 -58 -13 0 9 23 40 51 68 70 69 76 81 84 156 9 85 40 160
66 160 4 0 11 -20 15 -46z m603 -44 c36 -20 101 -71 154 -121 l92 -88 -55 0
c-142 -1 -270 52 -379 157 l-66 65 65 16 c77 20 106 15 189 -29z m-448 -136
c45 -93 69 -190 69 -285 0 -136 -46 -214 -182 -304 -40 -26 -92 -64 -116 -83
-24 -19 -44 -33 -46 -31 -2 2 -11 21 -21 42 -25 54 -64 90 -148 136 -127 70
-190 153 -217 286 -12 57 -9 181 6 218 3 9 29 29 57 46 29 16 65 41 80 56 16
15 30 25 31 24 2 -2 19 -40 39 -84 40 -90 61 -169 52 -202 -3 -12 -1 -24 4
-27 15 -10 154 72 188 111 46 50 73 130 73 211 l1 67 45 -50 c25 -27 63 -87
85 -131z m656 140 c63 -21 99 -48 128 -94 16 -26 42 -47 79 -65 50 -24 54 -29
45 -47 -10 -18 -18 -20 -63 -14 -91 10 -146 35 -205 94 -31 29 -76 70 -101 90
-25 20 -49 40 -54 44 -18 15 123 8 171 -8z m-1770 -44 c27 -6 68 -24 92 -40
l44 -28 -54 -17 c-168 -50 -425 -42 -594 18 l-40 14 60 8 c33 4 121 18 195 31
152 25 227 29 297 14z m1280 -149 c53 -33 64 -53 75 -129 5 -41 23 -18 20 26
-2 23 0 42 3 42 3 0 36 -15 73 -34 63 -32 218 -85 290 -101 l34 -7 -4 -101
c-3 -89 -7 -110 -34 -167 -34 -72 -98 -144 -165 -185 -24 -15 -49 -34 -56 -42
-10 -12 -12 11 -10 113 2 137 -6 167 -56 222 -28 30 -80 30 -101 0 -23 -32
-20 -54 19 -164 23 -62 35 -111 33 -133 l-4 -36 -76 77 c-93 94 -124 159 -118
253 14 234 2 293 -98 499 -3 5 24 -16 59 -45 35 -30 88 -69 116 -88z m-1885
87 c39 -30 70 -308 48 -436 l-12 -72 -34 0 c-53 0 -94 -43 -102 -106 -7 -50
-9 -53 -88 -112 -45 -34 -106 -88 -136 -121 l-55 -59 -6 116 c-6 106 -26 210
-56 285 -9 24 -7 36 18 85 67 132 202 288 334 388 65 49 66 49 89 32z m153
-48 c185 -51 403 -44 597 17 16 5 17 0 12 -43 -13 -108 -46 -248 -81 -345
l-36 -102 -79 7 c-93 8 -273 -9 -372 -34 l-70 -17 -26 26 -27 26 5 155 c3 117
0 176 -12 241 -20 105 -20 103 2 94 9 -3 49 -15 87 -25z m-950 -35 c119 -90
232 -222 294 -343 l22 -43 -26 -80 c-31 -93 -54 -213 -55 -286 0 -29 -4 -53
-8 -53 -5 0 -19 18 -31 41 -44 78 -143 191 -221 252 l-79 62 -12 70 c-21 123
3 435 33 435 5 0 42 -25 83 -55z m1675 33 c30 -5 72 -8 93 -5 20 3 37 3 37 0
0 -3 -16 -30 -35 -59 -81 -121 -133 -260 -150 -397 -4 -31 -11 -47 -18 -43 -7
2 -38 10 -69 17 -32 7 -58 18 -58 24 0 6 14 49 30 95 38 103 66 222 76 318 6
62 9 72 23 67 9 -4 41 -11 71 -17z m1854 -44 c9 -8 16 -22 16 -30 0 -15 -35
-54 -48 -54 -18 0 -52 33 -52 50 0 24 26 50 50 50 10 0 26 -7 34 -16z m-5384
-30 c0 -123 80 -378 176 -563 l65 -125 -63 -55 c-153 -132 -282 -287 -373
-446 l-43 -75 -15 38 c-28 70 -40 159 -34 260 5 101 25 169 104 362 61 146 82
219 114 390 37 201 49 250 60 250 5 0 9 -16 9 -36z m3676 -10 c-3 -25 0 -77 6
-117 7 -42 11 -144 9 -242 -2 -130 1 -186 13 -239 9 -38 14 -78 10 -88 -9 -28
13 -74 42 -87 36 -16 58 -14 88 10 23 18 27 28 24 62 -2 34 -9 45 -35 62 -25
16 -33 29 -39 63 -7 47 4 195 15 190 3 -2 51 -29 105 -62 l98 -58 -5 -38 c-10
-74 -114 -256 -186 -324 l-30 -29 -35 27 c-86 65 -188 202 -226 302 -58 156
-28 326 95 537 25 42 48 77 52 77 3 0 3 -21 -1 -46z m1464 -172 c0 -7 -62 -42
-74 -42 -2 0 -6 11 -8 25 -5 24 -3 25 38 25 24 0 44 -4 44 -8z m373 -13 c47
-13 91 -51 143 -126 l41 -58 -91 -1 c-68 -1 -105 -6 -146 -22 -53 -21 -120
-73 -120 -93 0 -14 7 -11 56 26 62 48 137 68 234 63 43 -1 82 -6 86 -10 26
-26 -215 -288 -322 -350 -175 -102 -354 -114 -520 -37 l-46 22 71 18 c106 27
157 53 176 88 34 66 -13 118 -97 108 l-49 -6 32 36 c41 47 77 126 91 200 6 32
12 64 14 71 5 17 100 60 156 71 62 13 247 13 291 0z m-1761 -126 c24 -37 24
-41 19 -177 -8 -191 -38 -194 -57 -5 -6 57 2 219 11 219 1 0 13 -17 27 -37z
m-2303 1 c78 -16 140 -38 226 -81 51 -24 53 -27 70 -90 22 -81 97 -230 153
-306 24 -32 41 -61 38 -64 -3 -3 -45 3 -93 13 -55 11 -134 18 -210 18 l-122 1
-51 39 c-72 55 -172 166 -235 260 -53 81 -115 197 -115 215 0 24 211 20 339
-5z m-325 -90 c82 -160 198 -305 319 -401 l38 -30 -67 -17 c-138 -35 -293
-122 -416 -236 -58 -52 -70 -60 -87 -51 -31 17 -83 13 -120 -10 l-33 -20 -41
28 c-159 110 -452 427 -425 460 18 23 183 130 293 191 185 102 432 199 479
188 5 -1 32 -47 60 -102z m3564 63 c35 -37 52 -92 52 -164 0 -111 -8 -143 -36
-143 -22 0 -24 4 -24 50 0 32 -11 77 -30 125 -32 81 -37 124 -18 143 18 18 32
15 56 -11z m-2464 -179 c21 -100 22 -252 2 -245 -7 3 -34 9 -60 12 l-46 7 0
62 c0 66 20 170 47 251 l16 50 13 -30 c7 -17 19 -65 28 -107z m514 87 c67 -78
-28 -191 -117 -139 -88 52 -42 183 59 169 21 -2 44 -15 58 -30z m1720 -28 c18
-35 51 -85 74 -112 41 -46 41 -47 11 -32 -56 30 -118 40 -157 27 -63 -21 -87
-88 -45 -126 17 -15 43 -20 145 -24 70 -4 129 -11 135 -17 15 -15 -89 -84
-164 -110 -74 -26 -280 -25 -357 0 -75 25 -171 69 -168 76 2 3 25 48 51 98 26
51 47 99 47 108 0 8 4 15 8 15 11 0 32 -45 32 -69 0 -31 12 -31 45 -2 18 16
80 60 137 99 56 39 116 84 132 101 17 17 33 31 36 31 4 0 21 -29 38 -63z
m-1183 41 c9 -9 -67 -154 -123 -233 -64 -91 -160 -185 -243 -241 l-66 -43 -84
15 c-62 12 -122 15 -231 12 l-148 -5 88 91 c48 50 105 119 126 154 36 57 42
62 73 62 66 0 123 57 123 124 0 20 7 27 38 36 38 10 130 27 192 34 52 6 248 2
255 -6z m151 -24 l51 -14 7 -50 c19 -141 224 -410 312 -410 10 0 42 26 71 57
40 44 55 55 64 46 9 -9 2 -24 -29 -61 -57 -68 -161 -164 -246 -226 -67 -50
-245 -156 -261 -156 -4 0 -44 31 -89 69 -118 100 -265 187 -371 221 -22 7 -44
15 -48 17 -4 3 23 26 60 53 127 89 244 231 324 392 48 98 39 94 155 62z
m-1545 -103 c99 -100 189 -231 159 -231 -7 0 -28 -11 -45 -25 l-32 -24 -20 22
c-64 71 -137 209 -173 329 -8 26 -7 27 13 16 12 -6 56 -45 98 -87z m700 -94
c-37 -64 -115 -160 -166 -202 l-46 -37 -34 38 c-19 22 -34 44 -35 49 0 17 139
149 204 194 l60 41 20 -20 21 -21 -24 -42z m2467 41 c50 -50 -51 -119 -210
-143 -45 -7 -45 -7 -50 25 -4 26 0 35 26 55 80 61 203 94 234 63z m-481 -45
c71 -34 81 -42 70 -54 -10 -13 -32 -14 -134 -9 -75 4 -128 12 -138 20 -22 18
-18 56 8 75 33 24 99 14 194 -32z m-735 -30 c22 -20 23 -41 1 -65 -35 -39 -93
-14 -93 39 0 42 57 58 92 26z m906 -9 c28 -19 28 -55 1 -80 -19 -17 -23 -17
-47 -3 -34 19 -39 52 -13 78 25 25 30 26 59 5z m-4418 -102 c69 -96 229 -258
341 -344 82 -64 85 -68 81 -102 -3 -24 3 -47 17 -71 l20 -35 -46 -71 c-54 -84
-143 -270 -169 -351 -10 -32 -21 -58 -24 -58 -14 0 -118 39 -191 70 -204 89
-399 235 -522 389 l-51 64 38 73 c44 85 126 202 204 292 58 67 226 222 239
221 5 0 33 -35 63 -77z m1915 -11 c86 -39 129 -106 130 -201 0 -54 -5 -73 -28
-113 -15 -26 -47 -60 -69 -75 -37 -24 -51 -27 -123 -27 -74 0 -86 3 -124 29
-144 100 -122 321 39 390 48 21 127 19 175 -3z m2445 1 c0 -12 -85 -138 -113
-169 -39 -42 -78 -58 -106 -43 -20 10 -20 12 -5 42 36 70 179 193 211 181 7
-3 13 -8 13 -11z m162 -101 c17 -36 33 -84 36 -107 4 -36 0 -47 -21 -68 -56
-56 -82 -25 -91 107 -4 55 -13 113 -20 131 -12 29 -12 34 3 44 21 14 51 -20
93 -107z m88 53 c36 -13 73 -24 84 -24 62 -1 302 -212 351 -310 36 -72 44
-159 20 -232 -14 -45 -97 -188 -109 -188 -2 0 -11 23 -21 52 -16 49 -76 151
-96 164 -5 3 -13 3 -19 -1 -5 -3 9 -29 30 -58 45 -59 70 -123 70 -179 0 -33
-3 -38 -23 -38 -36 0 -189 55 -267 95 -139 74 -200 150 -225 280 -22 116 -17
495 6 415 4 -14 7 -59 8 -100 1 -99 22 -144 69 -148 70 -7 113 59 92 140 -7
24 -25 69 -41 101 -34 67 -35 72 -11 61 9 -4 46 -18 82 -30z m-886 -19 c37
-14 101 -30 142 -36 l75 -12 -63 -34 c-207 -115 -300 -267 -323 -529 -9 -101
-2 -108 120 -125 89 -11 280 -8 320 7 57 20 -138 -148 -253 -219 -80 -50 -241
-123 -290 -133 -27 -6 -31 -3 -37 25 -26 120 -208 495 -281 581 l-45 52 101
58 c167 97 315 217 406 329 27 33 52 61 55 61 4 0 37 -11 73 -25z m641 -142
c-7 -192 -16 -244 -56 -329 -77 -165 -242 -245 -498 -243 -69 1 -136 4 -149 8
-22 6 -18 10 41 53 83 61 147 131 147 160 -1 21 -3 20 -28 -12 -39 -51 -89
-97 -154 -141 -95 -65 -92 -66 -85 37 14 211 84 351 224 451 68 48 225 123
259 123 12 0 40 7 63 15 l41 14 -35 -52 c-39 -58 -44 -91 -16 -107 61 -32 126
4 196 112 28 42 51 77 53 77 2 1 0 -74 -3 -166z m-2832 134 c32 -8 59 -16 61
-18 2 -2 -1 -25 -7 -51 -13 -53 -9 -52 -112 -21 -69 21 -225 94 -225 106 0 14
209 1 283 -16z m-229 -46 c67 -33 153 -67 191 -77 39 -9 74 -20 78 -24 5 -4
-26 -24 -68 -45 -95 -47 -194 -120 -263 -193 l-53 -57 -137 -3 c-95 -3 -166 1
-227 12 -140 24 -165 33 -165 59 0 12 -6 34 -14 49 -14 26 -13 28 47 85 113
108 256 190 403 232 38 11 73 20 78 20 5 1 63 -26 130 -58z m1129 -28 c20 -3
37 -9 37 -14 0 -27 -359 -103 -391 -84 -5 4 -9 26 -9 50 0 48 -2 47 100 59 41
5 208 -2 263 -11z m158 -42 c126 -43 291 -142 399 -239 l55 -49 -40 -20 c-125
-63 -327 -107 -472 -101 l-93 3 -70 77 c-70 76 -177 164 -257 209 -24 13 -43
27 -43 32 0 4 26 7 58 7 99 0 238 32 342 78 57 26 56 26 121 3z m-1001 -83 c0
-7 6 -25 14 -40 17 -32 19 -30 -84 -86 -78 -42 -258 -108 -268 -98 -16 16 117
124 234 191 82 47 104 54 104 33z m566 -97 c88 -59 234 -195 221 -207 -9 -9
-143 33 -212 68 -63 32 -175 105 -175 114 0 8 64 84 71 84 3 0 46 -27 95 -59z
m-1548 -17 c32 -37 30 -88 -7 -125 -83 -83 -209 35 -132 125 37 43 101 43 139
0z m1022 11 c0 -3 -13 -31 -29 -63 -49 -100 -91 -253 -91 -338 0 -29 -9 -39
-78 -91 -42 -32 -118 -79 -167 -105 -83 -42 -223 -98 -246 -98 -6 0 -7 15 -4
38 33 202 70 310 144 425 47 72 50 74 102 85 84 16 218 68 289 111 65 39 80
46 80 36z m78 -43 l50 -27 -35 -70 c-43 -86 -90 -157 -143 -215 l-41 -45 6 62
c8 81 28 150 72 246 20 42 37 77 38 77 1 0 25 -12 53 -28z m467 -124 c38 -17
107 -42 155 -54 77 -20 88 -25 112 -60 67 -96 141 -281 167 -419 7 -33 14 -70
17 -82 6 -32 -17 -30 -143 12 -169 57 -297 130 -405 233 -37 35 -38 39 -38
103 0 88 -24 220 -55 307 -14 38 -25 75 -25 81 0 6 33 -11 73 -39 41 -27 105
-64 142 -82z m-217 39 c26 -78 48 -186 56 -277 l6 -65 -30 35 c-43 50 -114
193 -140 278 -12 40 -21 74 -19 76 8 6 85 23 94 21 5 -1 20 -32 33 -68z m-154
41 c40 -151 95 -273 166 -366 31 -40 40 -61 40 -92 0 -49 -24 -165 -51 -250
-23 -69 -116 -258 -148 -299 l-19 -24 -50 68 c-110 150 -182 327 -202 498
l-11 98 54 62 c74 85 126 161 166 245 34 70 48 85 55 60z m2576 -39 c0 -17
-22 -86 -49 -152 -62 -155 -75 -201 -117 -416 -76 -390 -124 -466 -434 -700
-69 -52 -146 -114 -171 -139 l-47 -44 -7 33 c-10 44 -43 109 -55 109 -27 0 3
27 159 144 186 139 252 205 305 305 44 85 60 141 97 341 43 240 51 262 94 283
75 36 165 141 196 230 16 45 29 48 29 6z m-3496 -40 c50 -6 134 -9 188 -6 l96
5 -39 -61 c-69 -110 -138 -324 -139 -434 l0 -41 -52 -14 c-72 -18 -316 -15
-443 6 -117 19 -227 45 -238 56 -17 16 92 266 176 402 l41 67 51 -1 c56 -2 88
12 110 46 l15 22 72 -18 c39 -10 113 -23 162 -29z m2231 -16 c85 -107 303
-579 278 -604 -18 -17 -227 -51 -350 -56 -127 -6 -320 9 -369 27 -16 7 -23 20
-28 60 -15 115 -58 247 -119 370 -34 69 -63 129 -66 133 -2 5 21 6 51 2 115
-14 344 30 480 94 35 16 66 30 70 30 3 1 27 -25 53 -56z m-3405 -235 c130 -97
285 -180 439 -234 36 -13 65 -29 63 -35 -61 -240 -59 -508 4 -729 7 -24 7 -24
-32 8 -21 18 -105 82 -186 143 -284 213 -322 278 -393 673 -22 125 -56 243
-100 350 -5 11 23 -12 61 -51 38 -38 103 -95 144 -125z m4344 -124 c-72 -375
-95 -439 -200 -553 -34 -37 -108 -101 -164 -141 -56 -41 -129 -96 -163 -123
-33 -26 -61 -46 -62 -45 -2 2 4 39 12 83 19 102 12 265 -17 404 -11 57 -17
107 -13 111 4 4 37 17 73 30 159 56 331 164 468 296 48 46 88 81 90 80 2 -2
-9 -66 -24 -142z m-2541 -7 c14 -160 93 -357 207 -515 l60 -83 -43 -42 c-169
-169 -523 -405 -548 -366 -18 28 -88 216 -114 304 -38 132 -56 244 -62 391
l-6 131 94 32 c119 42 245 107 329 170 36 27 68 50 71 50 3 1 9 -32 12 -72z
m652 -94 c83 -64 242 -138 363 -169 l102 -27 0 -49 c0 -44 -2 -48 -25 -48 -14
0 -39 -12 -55 -27 -58 -52 -48 -150 20 -191 l28 -18 -28 -109 c-16 -61 -41
-146 -57 -190 -24 -67 -32 -79 -48 -77 -11 2 -83 34 -160 72 -153 74 -347 199
-437 280 l-58 52 29 41 c44 64 115 213 145 302 21 61 56 221 56 252 0 2 15 -7
33 -22 17 -15 59 -47 92 -72z m-1837 -62 c192 -49 449 -70 566 -47 44 9 80 15
81 13 1 -1 7 -72 13 -157 17 -218 65 -415 148 -604 20 -46 31 -82 25 -85 -5
-3 -42 -17 -81 -31 -67 -23 -72 -24 -81 -7 -32 57 -99 80 -155 53 -38 -17 -74
-69 -74 -103 0 -22 -3 -23 -87 -23 -54 1 -103 7 -128 16 -22 9 -50 18 -61 21
-12 3 -27 16 -33 29 -6 13 -16 24 -23 24 -7 0 -25 14 -39 31 -17 21 -35 32
-58 34 -44 3 -65 28 -89 105 -71 222 -78 524 -16 733 6 21 0 21 92 -2z m3091
-148 c43 -165 53 -369 25 -496 -20 -88 -37 -117 -69 -117 -24 0 -65 -41 -65
-66 0 -8 -5 -14 -10 -14 -15 0 -50 -61 -50 -86 0 -28 -31 -34 -181 -34 -174 0
-376 34 -517 87 -32 12 -41 20 -37 32 20 50 60 180 84 270 l27 103 39 14 c71
24 101 93 70 158 -10 20 -31 44 -46 52 -26 13 -29 20 -29 61 l0 46 42 -7 c108
-18 262 -27 348 -21 103 7 257 29 305 44 49 15 54 13 64 -26z m-721 -138 c69
-80 -38 -200 -121 -135 -39 31 -50 65 -36 107 21 65 110 81 157 28z m-756
-298 c147 -108 353 -224 481 -272 26 -10 47 -21 47 -24 0 -4 -19 -45 -42 -91
-83 -164 -195 -310 -285 -369 -25 -17 -50 -31 -54 -31 -4 0 -12 13 -17 29 -26
73 -94 93 -151 45 -17 -14 -31 -31 -31 -38 0 -8 -10 -11 -29 -8 -40 6 -87 -22
-109 -63 l-18 -35 -79 52 c-121 80 -289 251 -374 382 -39 61 -71 113 -71 116
0 3 30 21 68 39 135 66 363 233 477 348 l40 41 37 -34 c21 -18 70 -57 110 -87z
m1533 -163 c39 -15 72 -143 53 -211 -21 -77 -31 -71 -45 23 -7 48 -22 106 -33
128 -14 29 -16 43 -8 53 12 15 11 15 33 7z m-61 -53 c24 -27 46 -115 46 -188
0 -74 -6 -93 -31 -93 -27 0 -46 35 -69 125 -24 95 -25 133 -3 157 21 23 36 23
57 -1z m-3044 -76 c11 -13 9 -19 -7 -38 -12 -12 -28 -36 -37 -54 -18 -36 -40
-165 -33 -199 5 -30 -13 -31 -38 -4 -24 26 -31 109 -15 184 19 95 92 157 130
111z m2964 -85 c9 -42 25 -90 36 -107 16 -28 17 -33 4 -52 -32 -45 -66 -15
-90 79 -17 67 -14 130 7 156 17 21 23 10 43 -76z m-2387 65 c34 -24 47 -77 28
-114 -19 -37 -43 -51 -90 -51 -77 0 -115 95 -60 154 28 30 87 36 122 11z
m1661 -24 c155 -46 280 -64 449 -65 l152 -1 -47 -48 c-26 -26 -71 -64 -101
-84 -97 -64 -169 -83 -496 -128 -66 -9 -173 -31 -237 -49 l-117 -33 57 66 c69
82 140 191 189 293 21 43 42 78 46 78 4 0 51 -13 105 -29z m-1395 -28 c75
-138 223 -309 352 -408 41 -32 75 -59 75 -61 0 -6 -60 15 -180 63 -186 75
-243 90 -448 118 -222 29 -286 44 -372 88 l-65 32 -3 50 -3 51 107 -4 c103 -4
107 -5 133 -34 33 -37 86 -46 133 -24 36 17 68 61 68 94 0 15 18 26 83 50 45
17 85 31 88 31 3 1 17 -20 32 -46z m-773 8 c24 -45 -4 -210 -41 -250 -23 -25
-52 -27 -69 -6 -17 20 -8 147 14 200 31 72 73 97 96 56z m87 -53 c35 -45 17
-142 -36 -199 -46 -48 -110 -57 -66 -9 16 18 55 157 55 197 0 26 30 32 47 11z
m2759 -136 c15 -23 14 -26 -18 -59 -40 -42 -126 -102 -190 -131 -71 -33 -185
-59 -383 -87 -200 -28 -270 -46 -428 -111 -59 -24 -111 -44 -116 -44 -4 0 -6
24 -3 53 3 37 -1 63 -12 85 l-16 32 32 13 c117 49 328 98 523 122 143 17 229
35 296 61 64 25 167 95 224 153 l49 51 14 -57 c7 -32 20 -68 28 -81z m258 -3
c26 -29 62 -84 80 -123 33 -70 71 -184 63 -192 -9 -9 -170 152 -189 189 -11
22 -24 66 -28 96 -13 98 6 106 74 30z m-101 -20 c14 -52 -6 -119 -58 -194 -25
-36 -45 -70 -45 -76 0 -11 -20 -12 -38 0 -10 6 -3 25 29 81 32 55 44 87 47
129 5 58 27 104 45 98 6 -2 15 -19 20 -38z m-2810 -23 c83 -40 163 -59 332
-81 256 -33 280 -39 495 -125 80 -32 173 -64 206 -71 l62 -12 5 -61 c3 -34 8
-69 12 -79 6 -15 4 -17 -16 -13 -109 24 -182 46 -305 92 -199 73 -261 89 -489
123 -224 34 -295 52 -408 106 l-78 37 39 28 c22 16 46 42 53 59 8 17 15 31 17
31 2 0 36 -15 75 -34z m3050 -65 c50 -55 84 -117 101 -186 9 -32 16 -63 16
-67 0 -4 -17 -8 -38 -8 l-38 0 -11 63 c-6 35 -26 103 -45 150 -20 48 -32 87
-28 87 4 0 23 -17 43 -39z m-3357 11 c6 -4 14 -51 18 -105 6 -79 4 -108 -10
-149 -11 -35 -15 -69 -11 -110 l5 -59 -46 3 -47 3 -24 60 c-41 104 -29 236 30
331 21 34 57 45 85 26z m90 -85 c39 -40 101 -74 191 -108 83 -31 143 -80 182
-150 12 -21 20 -39 18 -39 -21 0 -285 98 -332 124 -77 41 -105 91 -104 181 0
41 3 54 8 40 5 -11 21 -33 37 -48z m3092 -141 c15 -21 54 -55 88 -75 60 -35
61 -37 60 -78 -1 -46 -7 -48 -67 -17 -94 48 -149 152 -149 283 0 62 14 57 27
-11 8 -36 25 -80 41 -102z m180 -72 c-14 -14 -19 -14 -55 5 -88 45 -124 91
-142 184 l-8 42 110 -108 c101 -97 109 -109 95 -123z m-1652 201 c11 -17 16
-46 16 -88 -1 -117 -63 -227 -129 -227 -26 0 -26 0 -19 61 3 34 6 102 6 150 0
78 3 91 22 109 31 29 83 27 104 -5z m1387 -89 c12 -121 80 -208 193 -250 27
-10 53 -22 57 -26 4 -4 -12 -24 -37 -44 -25 -20 -59 -56 -76 -80 l-31 -43 -53
21 -53 21 34 49 c18 26 33 58 33 69 0 16 -7 10 -28 -24 -16 -24 -36 -50 -44
-57 -14 -11 -17 -8 -21 25 -10 61 -17 154 -17 208 0 28 -5 62 -11 76 -9 22 -7
34 10 68 12 23 25 41 30 41 4 0 11 -24 14 -54z m-1544 -58 c-1 -57 -4 -116 -8
-133 -5 -26 -10 -30 -41 -30 -31 0 -37 5 -54 39 -47 95 -6 226 71 226 l33 0
-1 -102z m-1725 -163 c-21 -81 -76 -183 -127 -237 -24 -24 -81 -73 -127 -108
-142 -108 -197 -173 -284 -340 l-39 -75 7 62 c9 79 38 169 84 256 27 53 59 90
134 160 121 114 137 136 241 334 121 231 111 221 119 106 6 -75 4 -112 -8
-158z m1956 206 c15 -29 12 -108 -5 -141 -17 -33 -52 -60 -77 -60 -15 0 -13 7
12 55 16 30 32 79 35 110 8 58 17 68 35 36z m-1707 -42 c35 -33 113 -69 251
-115 155 -52 176 -65 176 -103 0 -25 -6 -31 -34 -41 -66 -21 -96 -86 -70 -149
11 -27 12 -37 3 -40 -26 -8 -59 -51 -59 -76 0 -32 -5 -32 -66 5 l-49 31 48
-46 49 -45 -64 0 -64 0 -60 66 c-84 95 -84 94 -26 87 58 -6 110 9 152 44 41
34 38 48 -4 19 -38 -26 -103 -40 -141 -30 -25 6 -25 7 15 35 42 31 74 83 84
139 l6 35 -19 -40 c-21 -45 -75 -99 -108 -110 -21 -6 -23 -3 -23 33 0 22 -12
65 -26 97 -29 63 -35 129 -15 188 7 20 15 37 17 37 3 0 15 -9 27 -21z m2929 4
c26 -23 24 -78 -4 -97 -30 -21 -54 -20 -78 4 -27 27 -26 75 2 94 29 21 57 20
80 -1z m-2498 -61 c60 -46 86 -92 86 -154 0 -51 -9 -63 -40 -53 -15 5 -20 15
-20 43 0 35 -41 131 -76 180 -24 33 -6 27 50 -16z m3002 -35 c69 -82 -50 -186
-130 -112 -45 42 -32 115 26 139 41 18 74 9 104 -27z m-590 -28 c4 -7 25 -9
55 -7 45 5 49 3 59 -23 37 -87 -85 -163 -151 -93 -38 41 -27 134 17 134 7 0
16 -5 20 -11z m-3046 -101 c-24 -39 -26 -100 -5 -132 15 -23 14 -25 -37 -70
-28 -25 -80 -59 -114 -75 -34 -16 -65 -34 -68 -40 -9 -13 128 33 171 59 18 10
33 16 33 12 0 -10 -76 -82 -170 -162 -41 -34 -87 -78 -102 -97 -33 -42 -64
-134 -78 -228 -11 -77 -13 -225 -4 -225 3 0 29 20 56 45 28 25 53 45 57 45 4
0 -5 -37 -20 -82 -15 -45 -31 -114 -34 -155 -7 -67 -9 -72 -26 -62 -15 8 -17
14 -9 29 30 56 -17 131 -85 135 -52 3 -58 22 -59 205 0 120 4 158 21 220 41
143 54 163 150 237 199 155 241 209 309 402 4 11 8 10 20 -7 13 -19 12 -24 -6
-54z m1799 -44 c11 -62 10 -77 -6 -125 -15 -45 -22 -54 -44 -57 -23 -3 -29 3
-48 50 -25 58 -37 142 -27 182 5 22 10 25 35 20 16 -4 37 -1 48 4 24 14 28 8
42 -74z m31 67 c0 -20 93 -111 202 -198 132 -104 171 -151 194 -231 22 -76 15
-202 -14 -259 -33 -64 -53 -58 -46 15 8 73 -9 158 -48 242 -25 53 -54 87 -154
185 -125 123 -124 120 -150 228 -4 17 -2 27 5 27 6 0 11 -4 11 -9z m-1699 -16
c74 -39 56 -145 -27 -161 -92 -17 -140 108 -61 157 39 23 49 23 88 4z m3607
-52 c73 -34 143 -92 180 -149 31 -49 75 -167 87 -237 l7 -37 -65 65 c-36 36
-72 65 -81 65 -9 0 -16 -2 -16 -3 0 -2 35 -40 78 -83 89 -91 134 -173 153
-278 14 -85 7 -198 -16 -251 l-18 -40 -14 75 c-14 72 -26 100 -38 88 -4 -3 1
-40 9 -82 9 -41 16 -98 16 -125 0 -57 -18 -148 -30 -156 -5 -3 -16 18 -25 45
-20 60 -104 190 -122 190 -18 0 -17 -5 11 -48 35 -53 51 -197 36 -318 -18
-141 -76 -281 -141 -340 -21 -19 -22 -19 -16 1 36 125 60 345 38 345 -5 0 -12
-34 -16 -76 -13 -139 -71 -371 -114 -459 -36 -72 -101 -155 -121 -155 -4 0
-13 7 -20 15 -21 26 -29 17 -52 -57 -20 -63 -23 -94 -23 -233 0 -139 3 -170
23 -234 13 -40 21 -75 19 -77 -2 -2 -27 20 -56 49 -145 145 -241 400 -241 641
0 53 -2 96 -5 96 -3 0 -26 -16 -52 -36 -26 -20 -49 -31 -51 -25 -7 20 28 132
64 203 20 39 72 125 115 190 43 64 79 122 79 128 0 24 -21 5 -65 -60 -26 -39
-52 -73 -58 -77 -15 -9 0 131 23 219 10 40 45 143 76 228 51 141 104 322 104
356 0 8 -6 14 -13 14 -7 0 -17 -25 -24 -62 -14 -72 -43 -172 -48 -166 -2 1
-16 50 -32 108 -24 92 -28 122 -28 245 1 126 4 148 28 218 34 99 94 194 159
252 49 44 71 53 94 37 13 -9 30 -209 46 -545 18 -396 1 -518 -110 -787 -33
-80 -63 -163 -67 -185 -5 -36 -3 -34 13 15 10 30 44 114 75 185 107 249 125
382 108 780 -7 143 -16 310 -22 371 -12 149 -12 164 6 164 12 0 15 -14 15 -67
1 -38 7 -104 15 -148 39 -210 44 -622 10 -795 -25 -128 -67 -269 -130 -430
-72 -186 -121 -326 -129 -370 -3 -19 7 3 23 50 15 47 55 153 88 235 73 179
136 373 166 504 20 86 22 123 21 356 0 210 -5 290 -22 414 -33 233 -28 290 23
275 11 -4 44 -17 73 -31z m-584 -64 c-23 -25 -59 -24 -86 3 l-23 23 37 6 c20
3 47 13 60 21 22 15 23 15 26 -9 2 -14 -4 -33 -14 -44z m-2471 31 c53 -42 40
-124 -23 -150 -27 -11 -37 -11 -66 3 -59 29 -71 92 -25 138 35 35 77 38 114 9z
m1336 -249 c33 -87 39 -157 16 -201 l-15 -29 -61 47 c-34 26 -80 63 -102 83
-39 35 -40 37 -28 67 15 35 8 77 -16 104 -13 15 -13 22 2 67 l17 51 88 -82
c49 -45 94 -93 99 -107z m1258 158 c32 -12 34 -23 14 -65 -52 -109 -77 -250
-66 -374 4 -41 20 -127 36 -193 32 -130 35 -167 15 -212 l-13 -30 -15 30 c-37
70 -60 163 -65 263 -4 68 -10 101 -17 99 -7 -3 -10 -36 -9 -93 l1 -88 -19 24
c-31 41 -53 121 -53 190 0 56 4 72 32 114 62 97 70 148 46 305 -7 43 -7 43 17
31 13 -7 34 -22 47 -33 28 -26 29 -8 0 28 l-21 27 24 -7 c13 -4 34 -11 46 -16z
m-140 -1 c1 -7 4 -56 8 -109 7 -91 6 -99 -19 -155 -15 -32 -41 -73 -58 -91
-28 -29 -31 -30 -47 -15 -15 15 -15 20 -4 38 8 13 18 75 24 144 5 69 16 135
24 151 21 40 71 66 72 37z m-3067 -40 c-1 -46 -24 -232 -55 -438 -24 -152 -26
-195 -21 -325 3 -82 12 -184 21 -225 18 -81 74 -264 80 -258 2 2 -12 65 -30
140 -65 263 -67 385 -15 758 16 113 32 245 36 293 5 74 9 87 23 85 29 -6 26
-136 -10 -346 -40 -235 -50 -479 -25 -640 9 -57 20 -111 26 -120 7 -13 9 -10
5 13 -11 72 -25 256 -25 334 0 107 12 213 51 456 17 105 29 209 27 233 -2 23
0 42 4 42 5 0 8 -4 8 -9 0 -5 32 -44 71 -87 127 -139 174 -231 185 -357 5 -61
5 -62 -13 -38 -9 13 -48 61 -84 107 -37 46 -70 92 -74 104 -5 17 -35 30 -35
15 0 -16 35 -70 90 -136 77 -94 110 -160 121 -246 11 -86 11 -183 1 -183 -4 0
-18 20 -30 45 -34 70 -72 126 -81 121 -5 -3 24 -70 63 -148 42 -83 82 -179 95
-228 25 -90 39 -251 31 -334 l-5 -50 -44 53 c-38 45 -108 101 -126 101 -15 0
-1 -24 28 -49 105 -93 140 -471 64 -686 l-14 -39 -7 92 c-7 96 -47 274 -67
298 -25 30 -27 0 -4 -65 35 -104 49 -207 42 -329 -6 -129 -29 -197 -95 -285
-39 -52 -108 -106 -134 -107 -3 0 9 25 27 56 40 66 50 117 49 234 -2 107 -17
180 -61 300 -35 93 -36 97 -30 208 4 93 3 112 -9 112 -10 0 -14 -16 -15 -62
-1 -35 -4 -92 -8 -126 l-6 -64 -76 109 c-42 59 -81 118 -87 130 -20 36 -35
215 -23 259 14 49 14 84 1 84 -5 0 -12 -12 -16 -27 -3 -16 -18 -66 -34 -113
l-28 -85 -17 40 c-28 65 -96 344 -102 421 -7 87 15 193 57 283 47 99 39 104
-56 35 l-64 -45 0 73 c0 92 22 197 56 265 20 42 51 74 148 157 113 96 186 180
186 213 0 7 7 13 15 13 10 0 15 -10 15 -32z m520 -58 c24 -24 25 -47 3 -72
-20 -22 -51 -23 -75 -1 -22 20 -23 51 -1 75 21 24 48 23 73 -2z m1194 -1 c48
-38 22 -119 -39 -119 -31 0 -75 41 -75 70 0 26 43 70 68 70 11 0 31 -9 46 -21z
m-1305 -136 c-5 -13 -9 -41 -8 -61 l1 -37 16 52 c18 54 52 104 37 53 -30 -103
-35 -131 -34 -180 l1 -55 10 50 c23 128 58 227 58 168 0 -10 16 -56 36 -103
19 -47 39 -104 44 -127 19 -83 -22 -269 -71 -325 l-20 -23 6 44 c7 55 -5 193
-17 189 -5 -2 -10 -57 -11 -123 -2 -99 -6 -128 -24 -167 -12 -27 -26 -48 -31
-48 -5 0 -12 109 -16 248 -8 269 -17 317 -76 414 -16 25 -26 48 -24 51 3 2 34
5 69 5 63 0 64 -1 54 -25z m1641 -81 c20 -63 26 -155 14 -200 -10 -37 -36 -22
-70 42 l-32 59 22 36 c16 28 21 51 20 101 -2 58 0 62 12 45 8 -11 24 -48 34
-83z m-414 19 c-9 -17 -33 -43 -53 -58 -85 -65 -123 -106 -133 -144 -13 -48 5
-96 46 -126 l29 -21 -21 -24 c-12 -13 -26 -32 -32 -43 -9 -18 -17 -20 -87 -15
-71 5 -79 7 -106 38 -38 42 -40 94 -5 118 22 13 29 14 53 2 16 -7 29 -23 31
-36 3 -18 -1 -22 -23 -22 -17 0 -25 -5 -23 -12 7 -20 38 -21 59 -2 22 20 24
43 5 69 -11 16 -10 23 8 51 12 17 33 55 48 83 21 38 46 63 105 105 43 30 85
65 93 78 12 19 15 20 18 6 2 -9 -4 -30 -12 -47z m132 19 c26 -22 72 -59 102
-83 68 -53 147 -187 128 -216 -17 -27 -2 -70 27 -77 27 -7 48 2 40 17 -4 5
-15 9 -26 9 -30 0 -21 42 13 58 55 26 96 -35 64 -96 -17 -32 -48 -47 -116 -56
-25 -3 -52 -7 -62 -9 -10 -1 -28 16 -47 43 l-30 45 24 20 c74 64 57 160 -42
228 -64 43 -108 89 -121 126 -6 17 -9 31 -6 31 3 0 27 -18 52 -40z m-19 -76
c14 -13 46 -39 70 -56 61 -45 85 -81 84 -124 -2 -74 -40 -87 -145 -49 -39 14
-48 22 -48 40 0 32 26 55 61 55 22 0 29 -5 29 -20 0 -14 -7 -20 -21 -20 -24 0
-21 -23 5 -28 41 -8 61 45 29 80 -23 25 -66 23 -100 -6 -28 -24 -30 -24 -41
-6 -15 24 -73 36 -101 21 -40 -22 -17 -103 24 -87 22 8 19 23 -6 29 -30 8 -18
31 18 35 23 2 35 -3 47 -20 28 -40 20 -54 -43 -77 -76 -27 -95 -27 -120 5 -44
56 -18 113 88 189 49 36 68 58 84 95 l20 48 20 -40 c11 -22 32 -50 46 -64z
m2296 78 c33 -16 81 -49 107 -74 43 -42 108 -140 108 -163 0 -5 -17 -11 -39
-12 -29 -2 -43 3 -61 22 -12 13 -48 34 -79 46 -31 12 -61 26 -67 31 -11 8 -37
85 -49 146 -8 40 1 41 80 4z m-4621 -163 c-20 -90 -22 -272 -5 -352 11 -53 11
-59 -8 -82 l-19 -26 -26 34 c-31 40 -51 95 -60 162 -5 40 -1 66 22 131 28 78
100 220 108 212 2 -3 -4 -38 -12 -79z m3516 41 c22 -41 -13 -80 -59 -65 -48
15 -31 85 19 85 19 0 33 -7 40 -20z m-73 -103 c54 -55 16 -147 -62 -147 -98 0
-118 138 -25 173 24 9 63 -3 87 -26z m1236 6 c15 -8 37 -23 47 -33 16 -16 17
-23 7 -49 -9 -23 -9 -39 0 -61 10 -28 9 -32 -12 -46 -23 -15 -26 -14 -50 13
-40 44 -52 73 -59 141 -6 62 -5 63 17 56 12 -3 35 -13 50 -21z m169 -70 c20
-18 24 -63 6 -81 -7 -7 -26 -12 -43 -12 -37 0 -55 16 -55 49 0 52 54 78 92 44z
m-2495 -54 c183 -89 212 -433 48 -577 -88 -77 -182 -77 -270 0 -162 143 -134
487 48 577 54 27 119 27 174 0z m991 -55 c2 -1 -6 -37 -18 -80 -25 -98 -25
-106 5 -257 20 -103 23 -135 15 -177 -5 -28 -14 -59 -20 -68 -8 -14 -9 -11
-10 13 0 53 -21 106 -55 144 -36 39 -101 66 -135 57 -11 -4 -29 -9 -41 -12
-19 -5 -20 -3 -14 28 23 108 102 260 180 347 36 40 37 40 63 24 15 -9 28 -18
30 -19z m1336 -101 c1 -26 4 -55 6 -63 5 -15 -52 -49 -107 -65 -31 -9 -31 20
2 80 13 26 27 63 30 83 15 91 13 89 42 49 18 -25 26 -50 27 -84z m162 72 c12
-8 27 -28 34 -45 23 -56 -22 -120 -85 -120 -39 0 -69 21 -85 60 -23 56 22 120
85 120 17 0 40 -7 51 -15z m-2835 -53 c12 -5 14 -14 8 -37 -8 -28 -11 -30 -47
-27 -30 3 -45 -2 -66 -20 -32 -27 -45 -92 -26 -127 15 -29 68 -61 101 -61 34
0 47 -29 22 -48 -24 -18 -88 -9 -122 16 -86 64 -98 198 -23 265 39 35 116 55
153 39z m649 -10 c44 -24 73 -81 78 -151 6 -101 -55 -171 -147 -171 -57 0 -75
11 -66 39 5 15 15 21 37 21 18 0 45 11 64 25 81 62 37 195 -61 183 -31 -4 -35
-1 -41 25 -4 20 -2 32 7 38 24 15 93 10 129 -9z m-676 -78 c13 -5 16 -22 16
-80 0 -74 0 -74 -27 -74 -83 0 -101 124 -23 153 8 3 16 6 17 6 1 1 8 -2 17 -5z
m641 -27 c35 -51 1 -127 -57 -127 l-28 0 0 74 c0 63 3 75 18 78 27 6 51 -3 67
-25z m-2505 -7 c11 -11 20 -33 20 -50 0 -17 -9 -39 -20 -50 -42 -42 -120 -12
-120 47 0 61 78 95 120 53z m4634 -34 c-38 -124 -121 -193 -296 -246 l-27 -8
-3 114 c-2 94 -1 111 10 97 6 -9 17 -43 24 -75 7 -32 17 -58 24 -58 14 0 51
72 60 117 6 28 13 34 58 47 28 9 64 24 80 35 23 15 33 17 53 8 17 -8 22 -15
17 -31z m-2972 -23 c4 -38 1 -59 -6 -62 -6 -2 -28 -21 -49 -42 -32 -32 -42
-37 -58 -28 -21 11 -19 39 9 94 18 37 72 95 88 95 7 0 13 -23 16 -57z m3017
-57 c6 -25 11 -71 10 -103 l0 -58 -19 43 c-20 44 -48 60 -35 20 44 -137 57
-209 58 -333 1 -71 -2 -148 -7 -170 -8 -40 -8 -40 -27 50 -22 109 -43 171 -55
167 -5 -2 -8 -7 -7 -10 77 -324 81 -488 15 -634 -17 -37 -21 -40 -27 -23 -4
11 -36 81 -71 157 -83 176 -96 219 -95 334 0 75 -3 94 -15 94 -20 0 -19 -156
1 -233 8 -32 15 -60 15 -62 0 -13 -23 -2 -55 27 -45 39 -73 93 -83 159 -4 30
-13 54 -21 57 -11 4 -13 -5 -7 -47 4 -28 10 -58 13 -67 5 -15 4 -15 -19 0 -29
19 -78 85 -78 106 0 7 17 38 37 68 20 31 49 92 64 136 16 45 32 82 37 84 13 4
64 -63 97 -128 15 -30 43 -98 61 -150 42 -121 44 -101 3 27 -41 128 -61 166
-121 229 l-49 52 37 12 c33 11 39 11 52 -6 32 -42 83 -165 107 -254 17 -66 24
-84 24 -60 1 58 -36 181 -78 263 -46 88 -46 87 -28 87 6 0 36 11 64 25 62 28
132 96 157 154 10 22 22 38 26 36 4 -3 13 -25 19 -49z m-4621 -38 c7 -7 12
-24 12 -38 0 -14 -5 -31 -12 -38 -7 -7 -24 -12 -38 -12 -32 0 -50 17 -50 46 0
44 58 72 88 42z m1707 -66 c17 -9 17 -11 -3 -37 -17 -21 -22 -41 -22 -85 0
-67 16 -87 74 -92 37 -3 41 -7 72 -67 41 -79 52 -91 129 -141 61 -39 63 -43
67 -88 3 -30 0 -53 -9 -63 -7 -8 -18 -29 -24 -46 -10 -29 -13 -31 -47 -26
-106 15 -281 90 -352 150 -26 22 -29 29 -24 62 5 31 1 43 -21 69 -21 25 -25
35 -16 46 19 22 31 75 24 107 -3 16 -19 44 -35 61 -26 28 -28 33 -14 43 21 16
36 58 29 84 -4 15 5 32 36 62 l41 41 39 -35 c21 -19 46 -39 56 -45z m-1821 13
c15 -59 76 -83 124 -49 40 28 37 5 -5 -39 -51 -54 -77 -98 -97 -166 -23 -79
-19 -120 4 -46 19 59 104 195 127 202 18 6 28 -58 10 -69 -24 -13 -75 -101
-97 -169 -12 -34 -20 -63 -18 -65 2 -1 23 34 46 79 23 45 53 95 66 110 l23 29
27 -86 c34 -109 63 -176 75 -176 6 0 13 17 17 38 12 69 22 68 29 -3 l8 -68
-67 -60 c-37 -33 -83 -83 -102 -111 -43 -64 -44 -42 -3 76 17 49 28 92 25 95
-12 12 -26 -12 -50 -85 -51 -153 -56 -299 -17 -454 11 -40 17 -75 15 -78 -3
-2 -34 26 -69 63 -45 47 -77 93 -104 150 l-40 82 15 75 c7 41 14 76 14 78 0 1
-6 2 -14 2 -9 0 -18 -22 -25 -67 -25 -147 -29 -150 -61 -45 -60 192 -25 452
84 614 19 29 32 56 29 61 -2 4 -21 -1 -40 -13 -20 -11 -38 -18 -41 -16 -10 11
81 136 99 136 4 0 10 -11 13 -25z m1610 -21 c33 -32 9 -86 -39 -86 -48 0 -70
48 -38 84 20 22 56 23 77 2z m366 -5 c0 -7 16 -34 36 -61 35 -49 35 -50 15
-64 -30 -21 -45 -77 -32 -117 13 -37 43 -69 113 -116 40 -27 68 -64 56 -76 -5
-5 -139 89 -159 111 -9 11 -31 47 -48 81 -25 46 -30 65 -23 80 19 36 -17 81
-53 67 -22 -9 -18 -22 8 -26 30 -4 28 -29 -5 -47 -24 -14 -28 -14 -47 3 -40
37 -16 140 36 152 15 3 39 10 53 14 36 12 50 12 50 -1z m546 -9 c15 0 38 -12
55 -29 36 -36 40 -90 9 -121 -25 -25 -41 -25 -70 -2 -26 21 -20 42 11 42 10 0
19 4 19 9 0 15 -31 21 -52 10 -17 -9 -19 -18 -15 -50 7 -55 -50 -160 -113
-206 -25 -19 -61 -47 -81 -63 -20 -16 -39 -27 -42 -24 -13 14 20 56 74 94 69
49 96 81 105 125 7 37 -7 71 -40 97 l-21 17 21 23 c11 13 31 40 43 60 20 33
25 36 47 28 14 -6 37 -10 50 -10z m-913 -140 c52 -41 44 -136 -15 -166 -92
-47 -171 73 -102 155 31 37 78 42 117 11z m520 -7 c52 -16 57 -21 55 -43 -5
-40 -78 -63 -78 -24 0 8 9 14 20 14 11 0 20 5 20 10 0 6 -2 10 -4 10 -2 0 -11
3 -19 6 -8 3 -22 -2 -31 -11 -48 -49 32 -101 92 -59 20 14 24 14 44 0 33 -23
85 -21 98 4 21 40 -12 82 -48 60 -15 -9 -14 -10 6 -16 23 -7 30 -28 12 -39
-19 -12 -65 19 -65 44 0 18 10 27 50 42 64 24 80 24 99 -3 36 -52 13 -100 -81
-170 -31 -22 -62 -53 -71 -68 l-16 -28 -53 52 c-29 28 -73 70 -98 92 -49 46
-58 81 -29 122 18 27 24 27 97 5z m-491 -210 c43 -39 -4 -109 -57 -85 -47 22
-28 102 24 102 8 0 23 -7 33 -17z m1902 -25 c-32 -63 -54 -142 -54 -200 0 -32
3 -58 6 -58 3 0 26 16 50 36 43 36 44 36 44 12 0 -26 -28 -56 -99 -107 l-44
-31 -22 20 c-12 11 -27 20 -33 20 -7 0 -12 7 -12 16 0 23 82 189 129 262 43
66 62 83 35 30z m-1314 -72 c19 -23 8 -61 -18 -64 -44 -7 -67 32 -36 62 19 20
38 20 54 2z m-537 -40 c141 -113 324 -166 580 -167 120 0 164 -4 207 -19 l55
-18 -60 5 c-41 4 -95 -2 -169 -17 -231 -48 -456 1 -598 129 -51 46 -83 95 -73
111 9 15 13 13 58 -24z m580 -79 c30 -48 29 -57 -7 -57 -31 0 -34 3 -39 37 -4
20 -4 40 -1 44 7 12 31 0 47 -24z m-79 7 c3 -9 6 -27 6 -40 0 -21 -5 -24 -35
-24 -41 0 -45 15 -14 54 24 30 34 33 43 10z m-388 -113 c155 -76 314 -97 478
-62 124 26 196 27 280 1 75 -24 93 -40 43 -40 -19 0 -92 -9 -163 -20 -162 -25
-283 -25 -401 -1 -100 21 -216 72 -273 121 -44 37 -37 37 36 1z m-1246 -91 c6
0 10 6 10 13 0 26 20 -19 20 -46 0 -33 -30 -95 -59 -121 -18 -16 -24 -17 -51
-6 -23 9 -29 17 -24 29 28 66 42 113 49 156 l7 50 19 -37 c11 -21 24 -38 29
-38z m2850 40 c12 -12 20 -33 20 -55 0 -40 -2 -41 -36 -19 -13 9 -43 17 -64
17 -47 0 -52 16 -15 52 29 30 68 32 95 5z m-683 -87 c46 -22 51 -39 18 -65
-23 -18 -26 -27 -22 -58 4 -31 1 -38 -24 -52 -39 -23 -54 -79 -32 -127 9 -20
18 -49 19 -66 1 -16 5 -40 9 -52 6 -18 -2 -31 -39 -67 -55 -53 -81 -64 -104
-43 -9 8 -62 38 -117 65 -147 74 -149 76 -84 91 30 6 64 17 76 24 19 10 10 12
-53 9 l-76 -4 7 30 c12 56 -32 112 -89 112 -41 0 -31 16 32 50 75 41 85 48
116 95 l27 40 107 16 c140 22 187 22 229 2z m664 -22 c20 -20 29 -39 29 -61 0
-43 -47 -90 -90 -90 -43 0 -90 47 -90 90 0 43 47 90 90 90 22 0 41 -9 61 -29z
m-1205 -14 c2 -2 -3 -20 -11 -40 -8 -20 -15 -59 -15 -87 0 -27 -4 -50 -8 -50
-22 0 -70 169 -53 186 6 6 79 -1 87 -9z m164 5 c0 -21 -37 -55 -96 -88 -36
-20 -67 -34 -70 -31 -3 2 3 29 14 58 18 53 19 54 63 60 69 9 89 10 89 1z m468
-54 c30 -30 0 -75 -42 -64 -29 7 -40 31 -26 57 12 21 50 25 68 7z m-728 -73
c11 -39 11 -48 -3 -63 -8 -9 -23 -36 -32 -59 -29 -72 -60 -52 -45 29 9 47 49
138 61 138 3 0 12 -20 19 -45z m-1595 0 c34 -33 34 -84 -1 -119 -55 -55 -144
-18 -144 59 0 49 36 85 85 85 25 0 44 -8 60 -25z m2325 -45 c24 -24 26 -76 5
-107 -31 -44 -111 -37 -134 13 -16 36 -14 58 10 88 26 33 88 37 119 6z m485 6
c47 -16 54 -37 26 -65 -39 -39 -91 -17 -91 38 0 45 6 47 65 27z m-1050 -51
c41 -40 29 -95 -25 -114 -52 -18 -100 13 -100 63 0 36 7 48 35 64 32 18 64 14
90 -13z m-145 -4 c-16 -31 -12 -76 9 -103 20 -25 20 -25 -6 -88 -14 -35 -28
-81 -31 -102 -6 -45 -13 -47 -42 -10 -18 21 -21 37 -18 74 3 25 12 54 21 63
10 9 17 29 17 44 0 46 38 141 57 141 2 0 -1 -9 -7 -19z m1229 -97 c26 -58 93
-128 146 -153 24 -11 108 -36 187 -56 224 -56 328 -114 378 -211 22 -42 25
-62 25 -144 0 -79 -6 -114 -34 -207 -18 -62 -37 -113 -40 -113 -4 0 -17 13
-29 30 -34 45 -76 63 -136 57 -28 -2 -58 -8 -68 -11 -15 -7 -16 1 -11 73 7
102 -14 188 -67 270 l-38 59 36 -10 c62 -17 108 -45 145 -88 37 -43 62 -39 33
5 -40 62 -111 96 -270 131 -61 13 -134 36 -163 50 -110 56 -183 167 -191 291
l-5 73 42 -2 c39 -1 43 -4 60 -44z m-2916 19 c46 -9 28 -73 -21 -73 -35 0 -52
16 -52 50 0 32 9 43 29 35 9 -4 28 -9 44 -12z m1600 -34 c15 -24 1 -49 -26
-49 -35 0 -52 23 -37 50 13 24 47 24 63 -1z m770 -5 c3 -4 2 -15 -4 -25 -17
-33 -79 -19 -79 18 0 13 71 19 83 7z m-599 -67 c9 -24 51 -83 94 -132 265
-305 284 -341 302 -572 7 -101 8 -96 6 72 -1 174 -2 182 -28 235 -47 94 -107
178 -202 280 -95 102 -137 160 -115 160 7 0 27 -11 45 -25 19 -14 64 -39 100
-56 37 -16 98 -50 135 -75 88 -58 183 -184 110 -144 -17 9 -21 8 -21 -5 0 -8
4 -15 10 -15 5 0 25 -16 44 -36 40 -42 70 -114 81 -194 6 -49 5 -53 -8 -36
-25 33 -27 2 -5 -60 28 -77 30 -228 4 -330 -15 -62 -72 -182 -81 -172 -2 2 1
25 7 51 10 49 5 83 -11 73 -4 -3 -11 -29 -14 -58 -17 -142 -151 -294 -322
-364 l-40 -16 26 29 c15 15 34 42 42 58 8 17 34 48 56 70 23 21 41 43 41 47 0
16 -30 8 -40 -11 -5 -11 -23 -29 -39 -40 l-29 -21 19 61 c10 33 19 85 19 115
0 30 9 80 19 112 23 68 30 134 15 139 -6 2 -16 -25 -23 -64 -19 -107 -27 -106
-41 7 -10 78 -10 123 -1 189 13 100 11 226 -4 226 -5 0 -11 -13 -13 -30 -5
-45 -22 -105 -30 -105 -4 0 -29 60 -55 133 -47 128 -50 147 -31 206 5 18 4 23
-7 19 -8 -2 -24 -33 -35 -68 l-22 -63 -15 29 c-34 67 -46 197 -26 283 12 54
49 141 59 141 4 0 15 -19 24 -43z m46 2 c12 -22 57 -79 102 -127 94 -101 160
-187 194 -254 32 -64 30 -72 -4 -17 -37 56 -132 176 -208 259 -75 82 -110 129
-119 158 -11 37 13 25 35 -19z m-1875 -163 c0 -165 -1 -173 -17 -149 -28 44
-41 109 -36 186 4 66 28 137 46 137 4 0 7 -78 7 -174z m2380 132 c-11 -36 -51
-121 -68 -143 -15 -20 -16 -20 -45 8 l-30 29 66 64 c72 68 87 76 77 42z m-837
-15 c-30 -34 -66 -119 -83 -197 -24 -108 -17 -223 19 -301 14 -32 26 -61 26
-66 0 -5 -25 -21 -55 -36 -42 -21 -58 -24 -67 -15 -16 16 -23 163 -10 189 15
27 3 37 -20 16 -17 -15 -18 -14 -18 38 1 107 41 213 111 290 21 23 36 46 33
50 -5 9 53 49 70 49 5 0 2 -8 -6 -17z m86 -12 c-7 -33 12 -75 50 -110 17 -16
27 -39 31 -70 4 -25 11 -69 17 -98 11 -51 10 -52 -26 -101 -43 -59 -113 -125
-125 -117 -5 2 -17 34 -26 69 -33 122 -7 320 57 424 24 39 29 40 22 3z m-85
-72 c-45 -143 -44 -321 1 -410 20 -37 20 -38 1 -48 -17 -9 -21 -4 -39 47 -32
89 -34 98 -33 192 0 61 6 106 20 148 18 53 57 132 66 132 2 0 -6 -27 -16 -61z
m-1451 -145 c47 -91 104 -140 347 -295 l69 -44 -59 -6 c-85 -8 -134 -38 -189
-114 -12 -16 -15 -17 -19 -5 -35 112 -69 185 -125 268 -36 53 -71 113 -78 132
-8 20 -13 79 -13 140 l0 105 23 -70 c12 -38 32 -88 44 -111z m1690 -180 c23
-35 42 -38 42 -6 0 15 2 15 10 2 5 -8 10 -18 10 -22 0 -17 -156 -130 -223
-162 -76 -37 -186 -70 -214 -64 -9 2 17 20 59 41 89 45 188 126 242 196 21 28
41 51 45 51 3 0 16 -16 29 -36z m108 -151 c16 -49 32 -92 35 -97 4 -4 14 5 23
20 16 28 16 27 9 -41 -4 -38 -6 -98 -5 -132 2 -35 0 -63 -4 -63 -4 0 -30 18
-59 39 -59 45 -92 105 -119 215 -9 38 -15 70 -14 70 2 1 22 18 46 39 23 20 46
37 51 37 4 0 21 -39 37 -87z m-145 -50 c6 -20 13 -64 14 -97 2 -43 6 -61 16
-61 7 0 31 -19 52 -42 21 -23 61 -56 88 -74 49 -31 50 -32 47 -78 l-3 -46
-116 0 c-111 0 -117 1 -157 29 -41 28 -92 110 -92 147 0 19 -17 35 -27 25 -4
-3 -1 -23 5 -43 6 -20 9 -39 7 -41 -7 -8 -84 78 -122 136 -19 30 -32 57 -28
60 3 4 33 14 66 23 l59 16 27 -36 c36 -48 73 -82 136 -126 42 -30 34 -19 -46
57 -89 85 -113 118 -87 118 5 0 42 -33 81 -72 78 -81 82 -74 7 13 -26 30 -48
60 -48 65 0 8 86 62 102 63 3 1 12 -15 19 -36z m-372 -71 c12 -23 -1 -45 -25
-40 -23 4 -31 37 -12 49 19 13 26 11 37 -9z m-59 -62 c26 -26 25 -36 -4 -65
-34 -34 -86 -16 -86 31 0 50 54 70 90 34z m-58 -155 c4 -26 20 -69 36 -94 28
-46 28 -47 10 -72 -10 -13 -21 -48 -25 -77 -3 -30 -14 -63 -24 -75 -18 -22
-18 -22 -19 32 0 29 -7 81 -16 115 -29 106 -18 236 19 223 7 -2 15 -25 19 -52z
m713 -285 c-9 -27 -21 -52 -26 -55 -15 -10 -10 -33 8 -37 14 -3 10 -11 -20
-45 -51 -56 -97 -76 -150 -68 -66 11 -80 24 -26 25 28 0 51 6 58 14 10 12 1
14 -56 13 -80 -1 -137 24 -177 75 -23 31 -50 88 -44 93 8 8 201 -16 251 -31
31 -10 60 -14 63 -11 4 4 0 17 -9 31 -16 24 -16 24 31 36 27 6 61 20 78 30 29
20 29 20 32 0 2 -11 -4 -43 -13 -70z"/>
<path d="M4867 3390 c-119 -37 -186 -204 -143 -354 22 -74 93 -151 149 -161
64 -12 107 2 158 53 59 60 84 133 77 232 -11 151 -130 265 -241 230z m109 -39
c69 -42 106 -121 105 -226 -1 -130 -73 -225 -171 -225 -52 0 -89 21 -125 70
-33 45 -45 90 -45 170 0 163 128 277 236 211z"/>
</g>
</svg>
