<?xml version="1.0" encoding="UTF-8" standalone="no"?>
<svg
   xmlns:dc="http://purl.org/dc/elements/1.1/"
   xmlns:cc="http://creativecommons.org/ns#"
   xmlns:rdf="http://www.w3.org/1999/02/22-rdf-syntax-ns#"
   xmlns:svg="http://www.w3.org/2000/svg"
   xmlns="http://www.w3.org/2000/svg"
   xmlns:sodipodi="http://sodipodi.sourceforge.net/DTD/sodipodi-0.dtd"
   xmlns:inkscape="http://www.inkscape.org/namespaces/inkscape"
   version="1.0"
   width="1024.000000pt"
   height="1024.000000pt"
   viewBox="0 0 1024.000000 1024.000000"
   preserveAspectRatio="xMidYMid meet"
   id="svg2"
   inkscape:version="0.91 r13725"
   sodipodi:docname="UNADJUSTEDNONRAW_thumb_9e2.svg">
  <defs
     id="defs426" />
  <sodipodi:namedview
     pagecolor="#ffffff"
     bordercolor="#666666"
     borderopacity="1"
     objecttolerance="10"
     gridtolerance="10"
     guidetolerance="10"
     inkscape:pageopacity="0"
     inkscape:pageshadow="2"
     inkscape:window-width="1440"
     inkscape:window-height="817"
     id="namedview424"
     showgrid="false"
     inkscape:zoom="0.32648446"
     inkscape:cx="606.25894"
     inkscape:cy="823.17526"
     inkscape:window-x="0"
     inkscape:window-y="1"
     inkscape:window-maximized="1"
     inkscape:current-layer="svg2" />
  <metadata
     id="metadata4">
Created by potrace 1.14, written by Peter Selinger 2001-2017
<rdf:RDF>
  <cc:Work
     rdf:about="">
    <dc:format>image/svg+xml</dc:format>
    <dc:type
       rdf:resource="http://purl.org/dc/dcmitype/StillImage" />
  </cc:Work>
</rdf:RDF>
</metadata>
  <g
     transform="translate(0.000000,1024.000000) scale(0.100000,-0.100000)"
     fill="#000000"
     stroke="none"
     id="g6">
    <path
       d="M0 5120 l0 -5120 5120 0 5120 0 0 5120 0 5120 -5120 0 -5120 0 0 -5120z m5651 4765 c126 -83 139 -316 26 -433 -32 -33 -32 -34 -35 -153 -3 -101 -1 -120 12 -125 24 -9 110 50 162 112 74 86 111 70 73 -32 -31 -82 -118 -168 -220 -217 -94 -45 -122 -47 -159 -7 -38 40 -60 108 -67 203 -3 42 -7 77 -9 77 -1 0 -27 -9 -57 -21 -47 -18 -56 -25 -61 -53 -10 -51 -58 -129 -96 -154 -30 -21 -44 -23 -97 -19 -106 8 -165 64 -180 172 -8 59 -31 57 -49 -5 -32 -105 -94 -170 -163 -170 -137 0 -226 108 -205 247 l6 43 -82 0 -83 0 6 -122 c3 -83 11 -138 23 -170 21 -54 15 -67 -47 -99 -136 -69 -210 44 -225 346 -8 156 11 451 31 482 38 58 126 77 322 68 l153 -7 6 -35 c8 -44 -13 -120 -40 -138 -15 -11 -49 -15 -123 -15 l-103 0 0 -99 0 -98 93 -7 c62 -4 96 -11 103 -21 9 -12 14 -10 33 11 29 34 97 64 144 64 73 0 138 -49 156 -118 9 -32 43 -41 63 -16 7 9 33 38 58 64 100 106 247 83 296 -46 11 -28 22 -43 30 -40 7 3 31 10 53 16 l41 11 0 52 c0 56 34 343 49 408 14 61 38 82 84 76 21 -3 56 -17 78 -32z m-2058 -112 c65 -45 101 -125 105 -232 3 -73 0 -92 -19 -126 -54 -101 -52 -87 -34 -182 25 -140 26 -143 41 -143 22 0 96 78 138 148 36 58 65 77 80 54 16 -26 -95 -202 -176 -278 -99 -94 -150 -106 -204 -48 -19 19 -34 40 -34 47 0 6 -20 -10 -44 -36 -56 -58 -98 -80 -159 -82 -48 -2 -48 -2 -72 -52 -65 -142 -204 -214 -283 -149 -41 35 -62 110 -72 256 -5 69 -9 133 -10 143 0 15 -7 16 -52 12 -86 -10 -151 37 -164 117 -6 31 -3 38 20 53 14 10 46 20 71 23 51 5 71 -6 91 -53 12 -30 13 -30 92 -30 75 0 83 -2 111 -29 33 -32 34 -37 50 -202 10 -106 25 -164 43 -164 12 0 46 58 59 101 9 28 8 45 -6 84 -9 29 -19 99 -22 168 -7 137 -8 137 78 137 42 0 60 -5 77 -20 26 -25 30 -39 35 -154 5 -99 19 -126 55 -107 11 6 30 24 42 41 20 29 21 31 6 102 -9 41 -21 183 -27 324 -13 275 -9 302 41 314 40 10 99 -5 143 -37z m2446 21 c26 -22 31 -33 31 -71 0 -37 -5 -50 -31 -74 -31 -29 -74 -47 -86 -35 -4 3 1 12 9 19 9 6 19 22 23 34 5 19 0 25 -34 39 -55 22 -65 58 -27 91 36 30 77 29 115 -3z m1046 -73 c59 -26 95 -73 95 -122 0 -38 1 -39 28 -32 101 28 166 -31 165 -152 -2 -134 -94 -314 -233 -457 -120 -122 -203 -155 -265 -106 -42 33 -55 76 -55 183 0 109 18 202 91 469 27 98 49 192 49 207 0 27 2 29 43 29 23 0 60 -9 82 -19z m-3822 -193 c56 -29 64 -93 18 -139 -74 -73 -199 -1 -160 93 20 50 92 73 142 46z m2993 -60 c0 -41 6 -74 17 -95 16 -29 18 -31 54 -22 52 12 100 11 148 -2 50 -14 115 -77 115 -112 l0 -26 -67 31 c-69 33 -165 49 -177 30 -4 -6 12 -41 35 -79 110 -179 115 -288 17 -333 -87 -40 -193 -18 -255 53 -52 59 -58 164 -15 246 l22 42 -30 57 c-42 82 -47 126 -18 182 25 49 84 90 129 90 25 0 25 -2 25 -62z m-4246 -57 c40 -27 68 -98 91 -231 12 -69 32 -168 45 -220 24 -97 79 -220 102 -228 7 -2 10 2 7 10 -2 7 -16 90 -29 183 -14 94 -30 185 -35 203 -8 28 -7 34 11 43 32 17 120 22 148 7 14 -8 34 -28 45 -45 11 -18 23 -32 26 -33 3 0 12 15 21 33 19 39 78 72 113 63 12 -3 33 -14 46 -25 22 -18 24 -26 23 -103 0 -68 -6 -97 -32 -164 -18 -44 -50 -110 -71 -145 l-39 -65 13 -60 c14 -64 25 -97 57 -161 18 -36 19 -46 9 -72 -17 -40 -42 -61 -82 -67 -75 -12 -147 81 -191 248 l-22 88 -36 -34 c-53 -50 -75 -59 -115 -46 -68 23 -112 91 -145 225 -11 47 -22 70 -31 69 -31 -3 -144 -28 -151 -33 -3 -3 2 -46 13 -96 11 -49 22 -136 26 -193 l6 -102 -42 -40 c-72 -68 -74 -65 -102 133 -34 242 -35 548 -2 652 42 132 109 206 204 224 53 10 85 5 119 -18z m5687 -198 c48 -23 77 -65 76 -106 0 -18 -15 -72 -32 -121 -44 -126 -41 -150 17 -118 18 9 65 45 105 78 63 53 77 71 97 123 25 69 37 73 106 42 44 -20 74 -54 74 -84 0 -9 -16 -52 -36 -94 -42 -88 -49 -135 -20 -141 48 -10 111 66 141 171 14 47 20 57 39 57 37 0 109 -43 133 -79 29 -42 29 -67 1 -153 -12 -37 -19 -71 -15 -74 3 -4 61 25 128 64 l121 71 29 -21 c16 -12 29 -27 29 -34 0 -19 -74 -80 -178 -148 l-97 -63 -12 -80 c-31 -210 -115 -327 -236 -328 -47 0 -53 3 -75 35 -22 32 -23 43 -19 115 4 76 47 226 100 347 l17 36 -60 -30 c-146 -76 -270 -17 -255 120 5 50 4 52 -14 42 -11 -5 -23 -15 -27 -21 -3 -6 -38 -26 -77 -45 -53 -25 -85 -34 -124 -34 -104 0 -138 34 -135 136 1 35 -1 64 -4 64 -3 0 -24 -5 -48 -11 -93 -23 -183 36 -173 113 14 105 132 163 282 138 28 -5 30 -3 33 29 3 32 5 33 38 28 20 -3 52 -14 71 -24z m-2860 -404 c54 -26 93 -76 100 -128 7 -55 -2 -84 -40 -127 -58 -67 -155 -92 -230 -60 -42 17 -93 76 -108 124 -21 71 25 167 96 198 47 21 132 17 182 -7z m665 11 c47 -13 92 -51 108 -89 17 -42 -2 -120 -38 -153 -51 -47 -115 -59 -182 -32 -58 23 -84 70 -78 140 4 45 10 61 39 90 29 30 68 50 104 53 6 1 27 -4 47 -9z m613 -84 c71 -33 105 -76 105 -132 0 -75 -37 -126 -120 -163 -118 -54 -227 8 -238 134 -6 67 9 106 54 140 67 51 122 57 199 21z m-2109 -116 c46 -20 106 -76 129 -120 28 -54 29 -110 3 -159 -46 -85 -195 -160 -290 -144 -107 17 -173 123 -153 246 16 92 82 171 162 193 53 14 88 11 149 -16z m2608 -334 c88 -27 144 -89 160 -178 15 -83 -42 -186 -127 -229 -51 -27 -142 -35 -191 -19 -121 40 -191 202 -136 315 51 105 167 149 294 111z m-5955 -322 c80 -171 204 -435 276 -587 87 -185 134 -276 143 -272 7 2 187 124 401 270 214 146 397 268 407 272 14 5 16 2 10 -18 -99 -351 -175 -756 -208 -1109 -16 -183 -16 -644 0 -815 53 -548 187 -1028 417 -1500 282 -579 691 -1069 1200 -1440 174 -126 450 -288 597 -350 l36 -14 -14 52 c-20 74 -50 229 -77 392 -31 199 -31 544 1 720 12 67 29 142 38 168 20 60 95 128 172 158 75 28 262 75 335 84 l57 7 -1 42 c0 22 -4 63 -7 89 l-7 48 -82 28 c-153 53 -301 157 -458 323 -350 368 -545 920 -521 1473 16 373 33 540 61 607 9 22 32 30 55 18 13 -7 21 -7 25 0 10 16 53 12 63 -6 8 -14 10 -14 21 0 18 21 44 20 65 -3 11 -12 25 -16 41 -13 19 3 27 -1 34 -19 8 -23 1 -102 -15 -163 l-7 -30 34 23 c86 57 129 64 129 21 0 -12 -6 -33 -14 -49 -18 -34 -142 -151 -160 -151 -21 0 -26 -40 -33 -235 -7 -238 13 -398 79 -605 28 -89 125 -306 133 -299 2 2 -1 24 -5 49 -15 77 -11 192 9 273 22 86 41 125 83 180 29 36 31 37 96 37 37 0 157 7 267 15 110 8 203 15 207 15 9 0 -2 242 -12 253 -3 4 -26 -1 -51 -12 -61 -28 -105 -26 -151 5 -128 89 -89 344 54 344 49 0 95 -19 141 -59 l36 -32 5 33 c3 18 8 62 11 98 3 36 8 83 11 106 l6 41 -46 12 c-32 8 -54 22 -78 50 -32 38 -33 39 -61 24 -45 -23 -116 -22 -133 1 -20 28 -17 80 6 126 25 49 25 50 -2 50 -33 0 -58 29 -58 66 0 34 45 91 99 125 22 14 23 17 11 51 -18 49 -4 79 52 112 106 62 306 73 466 26 41 -12 76 -19 79 -17 8 9 -28 68 -70 115 -113 122 -299 125 -442 8 -55 -46 -103 -130 -115 -201 -5 -32 -14 -63 -19 -68 -6 -6 -27 0 -57 18 l-48 28 48 42 49 42 -23 64 c-34 97 -39 255 -11 347 54 180 210 309 388 320 l73 5 0 46 c0 58 27 118 75 166 100 99 322 143 479 95 119 -37 220 -158 272 -322 10 -32 21 -58 24 -58 4 0 19 9 33 20 43 34 149 79 212 91 146 27 290 -41 353 -167 49 -97 55 -329 12 -468 l-22 -68 21 -77 c29 -108 29 -113 -15 -109 -28 2 -39 -3 -54 -22 -26 -33 -25 -40 5 -40 95 0 152 -131 77 -177 -15 -9 -38 -23 -51 -31 l-23 -14 31 -19 c83 -50 32 -141 -92 -164 -35 -7 -38 -9 -32 -36 5 -20 1 -33 -14 -48 -25 -25 -48 -26 -124 -6 -32 8 -60 15 -62 15 -3 0 -8 -28 -20 -122 l-6 -48 33 0 c39 0 106 -29 130 -56 25 -29 48 -89 48 -126 -1 -52 -33 -112 -75 -138 -39 -24 -99 -31 -175 -20 -34 5 -35 4 -38 -30 -2 -19 -12 -73 -23 -119 -23 -91 -20 -101 31 -101 14 0 61 -7 105 -15 44 -9 145 -25 225 -36 107 -14 149 -24 163 -37 30 -30 42 -141 27 -257 -7 -55 -18 -119 -25 -142 -7 -24 -11 -43 -9 -43 9 0 94 140 136 225 118 238 163 446 163 750 0 252 -2 263 -58 293 -50 27 -145 117 -158 150 -10 25 4 62 23 62 6 0 40 -16 76 -36 51 -27 63 -31 58 -17 -18 46 -37 149 -31 171 5 20 11 23 35 20 22 -3 31 0 35 13 3 9 13 20 22 23 20 8 53 -2 53 -17 0 -6 9 -1 20 11 22 23 45 28 55 13 3 -5 21 -7 40 -4 32 5 36 3 49 -29 24 -57 45 -161 56 -280 6 -62 15 -153 20 -203 20 -193 3 -454 -44 -661 -70 -313 -215 -616 -406 -849 -112 -138 -299 -292 -422 -351 -26 -12 -38 -24 -38 -38 0 -22 26 -229 35 -283 7 -40 9 -40 200 -13 249 35 345 21 419 -60 42 -47 57 -94 90 -290 59 -343 93 -788 82 -1088 -7 -203 -23 -190 140 -104 825 439 1458 1218 1779 2188 150 455 218 898 219 1419 1 457 -43 828 -154 1313 -22 97 -43 185 -46 195 -3 9 -1 17 4 17 6 0 183 -118 394 -261 210 -144 388 -263 394 -266 5 -2 99 187 208 419 110 233 200 425 202 427 8 9 16 -11 49 -140 76 -296 144 -698 181 -1069 22 -218 30 -870 14 -1098 -16 -232 -36 -418 -66 -617 -189 -1255 -710 -2404 -1489 -3283 -1268 -1432 -3064 -1963 -4745 -1402 -1802 600 -3184 2387 -3544 4580 -74 451 -90 667 -90 1170 0 423 11 611 55 944 49 370 134 766 234 1091 21 66 40 128 42 138 3 10 10 16 16 14 6 -2 76 -143 156 -313z m2905 -220 c56 -29 96 -65 119 -107 18 -35 22 -57 21 -127 -2 -111 -28 -183 -88 -238 -51 -47 -89 -57 -181 -50 -191 16 -298 195 -215 358 91 178 206 233 344 164z m3382 -265 c64 -31 120 -88 152 -158 38 -81 38 -192 -1 -275 -62 -133 -136 -188 -255 -187 -155 0 -310 102 -343 225 -40 146 77 365 220 411 63 20 164 13 227 -16z m-3630 -490 c57 -27 84 -72 84 -137 0 -59 -32 -105 -87 -128 -137 -58 -254 75 -187 212 34 70 111 92 190 53z"
       id="path8"
       style="fill:#cccccc" />
    <path
       d="M5520 9881 c-23 -44 -60 -369 -60 -532 0 -171 13 -239 56 -296 32 -43 56 -42 149 3 111 54 187 138 219 242 6 16 3 22 -8 22 -9 0 -16 -4 -16 -8 0 -17 -114 -121 -160 -146 -71 -39 -80 -26 -80 114 0 123 7 148 55 201 119 133 55 395 -103 416 -34 5 -42 2 -52 -16z m154 -133 c38 -57 28 -135 -25 -209 -27 -38 -43 -27 -59 40 -13 56 0 126 32 166 24 31 33 31 52 3z"
       id="path10"
       style="fill:#cc6600" />
    <path
       d="M5624 9705 c-16 -39 -19 -122 -4 -145 10 -17 12 -16 34 27 9 18 16 52 16 77 0 81 -21 100 -46 41z"
       id="path12"
       style="fill:#cccccc" />
    <path
       d="M4290 9834 c-116 -22 -129 -41 -140 -195 -32 -433 16 -679 133 -679 43 0 103 39 100 66 -1 10 -9 44 -17 74 -10 34 -16 94 -16 162 l0 108 100 0 100 0 0 29 0 28 -82 7 c-128 11 -118 0 -118 133 l0 116 98 -5 c112 -6 135 0 157 41 16 31 21 96 8 104 -12 7 -294 16 -323 11z"
       id="path14"
       style="fill:#cc6600" />
    <path
       d="M4655 9466 c-46 -28 -74 -63 -98 -124 -44 -110 9 -227 113 -252 117 -28 160 10 225 198 2 6 11 12 20 12 18 0 208 90 202 96 -2 2 -32 -8 -68 -22 -35 -14 -85 -28 -111 -31 -41 -5 -48 -3 -48 11 0 32 -41 97 -73 116 -45 28 -112 26 -162 -4z m162 -58 c13 -12 23 -32 23 -46 0 -23 -3 -24 -37 -17 -43 8 -88 29 -99 46 -10 17 24 39 60 39 17 0 40 -9 53 -22z m-47 -108 c19 -5 42 -7 52 -4 27 8 30 -13 8 -63 -60 -136 -163 -138 -162 -4 1 65 16 95 45 86 12 -3 38 -10 57 -15z"
       id="path16"
       style="fill:#cc6600" />
    <path
       d="M4736 9401 c-7 -10 37 -31 66 -31 20 0 21 1 3 20 -18 20 -59 27 -69 11z"
       id="path18"
       style="fill:#cccccc" />
    <path
       d="M4696 9275 c-9 -26 -7 -84 4 -106 6 -10 19 -19 28 -19 28 0 92 76 92 108 0 5 -17 12 -37 15 -21 3 -48 9 -59 12 -15 5 -23 1 -28 -10z"
       id="path20"
       style="fill:#cccccc" />
    <path
       d="M5098 9476 c-45 -24 -69 -43 -85 -66 -21 -30 -12 -33 38 -12 24 11 70 22 101 26 53 7 60 5 83 -18 14 -14 25 -34 25 -46 0 -27 -42 -27 -94 0 -39 19 -39 19 -67 -1 -15 -11 -54 -31 -85 -46 l-56 -26 5 -49 c12 -99 78 -157 179 -158 74 0 128 57 157 167 8 29 18 44 34 48 50 14 97 39 97 51 0 10 -6 11 -22 5 -13 -4 -39 -11 -59 -15 -36 -6 -37 -6 -47 36 -16 64 -68 110 -129 115 -31 3 -58 -1 -75 -11z m57 -171 c22 -8 55 -14 73 -15 25 0 32 -4 32 -20 0 -30 -47 -118 -69 -130 -58 -31 -101 4 -101 82 0 40 13 98 22 98 2 0 21 -7 43 -15z"
       id="path22"
       style="fill:#cc6600" />
    <path
       d="M5115 9280 c-14 -23 -8 -100 9 -119 15 -16 22 -18 42 -9 25 12 56 55 68 94 6 19 2 22 -36 27 -24 2 -50 8 -59 12 -10 3 -20 1 -24 -5z"
       id="path24"
       style="fill:#cccccc" />
    <path
       d="M5156 9401 c-7 -11 15 -25 58 -35 29 -7 29 -7 14 16 -16 24 -62 36 -72 19z"
       id="path26"
       style="fill:#cccccc" />
    <path
       d="M3429 9769 c-16 -30 -5 -379 17 -529 28 -192 96 -314 162 -289 77 29 174 132 244 259 41 74 30 84 -14 13 -43 -70 -129 -153 -157 -153 -15 0 -23 10 -30 38 -42 157 -42 219 0 298 29 55 31 65 27 141 -7 142 -75 232 -182 241 -49 4 -55 2 -67 -19z m211 -131 c30 -54 34 -166 7 -216 -22 -40 -39 -32 -58 26 -23 69 -13 232 15 232 7 0 23 -19 36 -42z"
       id="path28"
       style="fill:#00cc00" />
    <path
       d="M3605 9630 c-13 -21 -10 -140 5 -175 l12 -30 15 35 c17 39 13 96 -9 150 -11 27 -16 31 -23 20z"
       id="path30"
       style="fill:#cccccc" />
    <path
       d="M3188 9293 c-27 -4 -28 -7 -28 -61 0 -99 20 -224 42 -264 25 -43 64 -63 112 -54 65 12 166 107 152 143 -5 13 -13 9 -42 -21 -70 -72 -102 -39 -113 119 -5 70 -12 111 -22 119 -17 16 -63 25 -101 19z"
       id="path32"
       style="fill:#00cc00" />
    <path
       d="M2678 9267 c-32 -12 -35 -34 -13 -82 25 -52 78 -69 170 -55 29 5 30 4 32 -40 6 -107 24 -268 33 -302 17 -60 55 -98 98 -98 79 0 158 64 203 165 16 37 18 49 8 61 -10 12 -17 5 -41 -45 -28 -59 -46 -75 -72 -65 -23 9 -35 59 -47 188 -6 67 -15 134 -21 149 -16 43 -58 59 -141 55 l-70 -3 -21 40 c-18 34 -26 40 -56 42 -19 1 -47 -4 -62 -10z"
       id="path34"
       style="fill:#00cc00" />
    <path
       d="M5935 9784 c-23 -24 -15 -46 23 -58 40 -14 56 -38 47 -69 -7 -21 -5 -20 21 5 55 53 26 138 -46 138 -16 0 -36 -7 -45 -16z"
       id="path36"
       style="fill:#cc9933" />
    <path
       d="M6957 9607 c-15 -61 -43 -170 -62 -242 -79 -295 -79 -449 0 -501 53 -35 133 5 241 117 193 204 276 467 172 554 -35 30 -50 31 -107 5 -24 -11 -45 -20 -47 -20 -2 0 0 22 3 48 4 34 1 58 -11 79 -18 35 -87 73 -132 73 -29 0 -29 -1 -57 -113z m263 -216 c0 -90 -88 -298 -162 -385 -50 -58 -68 -60 -68 -7 0 61 57 267 92 333 39 74 103 135 124 117 8 -7 14 -30 14 -58z"
       id="path38"
       style="fill:#0099ff" />
    <path
       d="M7151 9395 c-42 -48 -79 -123 -102 -209 -23 -82 -39 -186 -28 -186 27 0 138 208 163 306 18 69 21 124 7 124 -5 0 -23 -16 -40 -35z"
       id="path40"
       style="fill:#cccccc" />
    <path
       d="M3162 9503 c-32 -27 -37 -64 -12 -96 45 -57 140 -22 140 51 0 56 -82 84 -128 45z"
       id="path42"
       style="fill:#00cc00" />
    <path
       d="M6181 9492 c-45 -22 -71 -59 -78 -108 -4 -32 2 -52 31 -109 l37 -69 -26 -57 c-47 -106 -25 -209 57 -262 70 -45 192 -33 232 24 34 50 11 139 -75 280 -48 79 -50 84 -32 97 28 21 128 10 191 -22 28 -14 52 -22 52 -17 0 19 -81 80 -115 87 -38 7 -127 1 -157 -11 -25 -10 -61 66 -62 132 -1 29 -5 53 -11 53 -5 0 -25 -8 -44 -18z m102 -389 c73 -87 87 -170 32 -195 -19 -8 -31 -7 -61 9 -57 29 -76 60 -76 125 -1 56 25 119 47 117 5 0 31 -26 58 -56z"
       id="path44"
       style="fill:#cc6633" />
    <path
       d="M6212 9114 c-20 -38 -23 -82 -9 -115 18 -43 37 -59 81 -66 32 -5 36 -3 42 23 9 34 -22 97 -71 144 -31 30 -34 31 -43 14z"
       id="path46"
       style="fill:#cccccc" />
    <path
       d="M1883 9409 c-57 -13 -125 -75 -153 -141 -62 -144 -67 -403 -14 -760 9 -60 20 -108 23 -108 10 0 57 51 70 77 12 24 3 114 -29 282 -11 58 -19 105 -17 106 3 3 131 32 173 40 l32 6 16 -75 c25 -111 72 -196 120 -220 38 -19 40 -19 73 -1 19 11 43 31 54 47 l20 28 -24 32 c-61 81 -100 202 -143 443 -30 170 -54 226 -105 244 -36 12 -38 12 -96 0z m-38 -95 c19 -8 42 -50 62 -116 15 -54 54 -250 50 -254 -1 -2 -45 -12 -96 -24 -63 -14 -98 -17 -104 -11 -14 14 -13 234 2 303 11 54 42 108 61 108 5 0 16 -3 25 -6z"
       id="path48"
       style="fill:#00cc00" />
    <path
       d="M1803 9274 c-22 -34 -31 -103 -32 -236 -1 -80 2 -108 12 -108 20 0 140 21 147 25 4 2 -4 57 -17 122 -24 118 -63 223 -82 223 -6 0 -18 -12 -28 -26z"
       id="path50"
       style="fill:#cccccc" />
    <path
       d="M2494 9161 c-33 -20 -48 -53 -60 -128 -4 -24 -10 -41 -14 -38 -4 2 -13 31 -19 64 -9 47 -19 66 -43 87 -28 22 -39 26 -81 21 -26 -2 -52 -8 -57 -13 -10 -10 22 -235 65 -462 50 -266 139 -392 228 -322 35 28 41 62 17 102 -10 18 -28 62 -39 98 -36 121 -36 121 8 190 59 91 103 211 109 297 4 67 3 73 -21 97 -31 31 -51 32 -93 7z m56 -123 c0 -58 -17 -115 -48 -165 -40 -64 -48 -56 -41 45 9 117 29 162 71 162 15 0 18 -8 18 -42z"
       id="path52"
       style="fill:#00cc00" />
    <path
       d="M2513 9048 c-16 -19 -35 -109 -31 -145 3 -24 6 -20 26 33 25 65 28 141 5 112z"
       id="path54"
       style="fill:#cccccc" />
    <path
       d="M7606 9184 c-7 -35 -8 -36 -39 -28 -18 5 -61 9 -97 9 -76 -1 -122 -22 -157 -75 -31 -45 -30 -85 3 -115 39 -37 88 -42 157 -18 l58 21 -8 -42 c-16 -83 -10 -126 22 -153 26 -23 35 -25 94 -21 79 6 147 38 214 100 26 24 49 56 53 72 7 27 5 27 -56 -22 -81 -65 -118 -84 -143 -70 -16 8 -18 17 -12 55 3 24 17 73 31 109 23 63 30 117 18 148 -8 20 -60 52 -100 60 -30 7 -32 5 -38 -30z m-30 -79 c3 -8 -2 -29 -13 -47 -21 -37 -103 -71 -137 -58 -40 14 -32 81 12 104 37 20 131 21 138 1z"
       id="path56"
       style="fill:#0099ff" />
    <path
       d="M7442 9084 c-12 -8 -22 -26 -22 -40 0 -20 5 -24 30 -24 53 0 100 33 100 71 0 15 -84 10 -108 -7z"
       id="path58"
       style="fill:#cccccc" />
    <path
       d="M7952 8994 c-71 -194 -76 -266 -18 -308 57 -43 175 -17 252 56 18 16 34 26 37 21 2 -4 -19 -69 -49 -143 -92 -232 -108 -367 -50 -417 32 -27 60 -24 118 13 74 47 128 163 143 307 l7 67 112 74 c61 41 124 88 140 105 l29 30 -24 11 c-21 10 -39 2 -149 -61 -69 -39 -131 -74 -137 -76 -20 -8 -16 24 13 110 30 92 27 131 -14 170 -30 29 -91 52 -103 39 -4 -4 -12 -25 -19 -47 -32 -101 -95 -175 -150 -175 -60 0 -60 62 1 182 16 32 29 66 29 77 0 20 -52 71 -73 71 -7 0 -21 3 -32 6 -18 4 -25 -9 -63 -112z m398 -403 c28 -53 -8 -166 -79 -243 -54 -59 -71 -57 -71 5 0 80 44 183 99 235 29 27 37 28 51 3z"
       id="path60"
       style="fill:#0099ff" />
    <path
       d="M8289 8549 c-34 -49 -68 -139 -69 -183 l0 -40 31 30 c16 16 44 56 60 90 47 94 30 175 -22 103z"
       id="path62"
       style="fill:#cccccc" />
    <path
       d="M4665 8799 c-106 -61 -121 -175 -35 -253 46 -41 74 -50 136 -43 55 6 106 40 133 88 38 68 22 134 -45 186 -30 22 -49 28 -103 31 -38 1 -75 -2 -86 -9z"
       id="path64"
       style="fill:#009900" />
    <path
       d="M5403 8791 c-89 -41 -102 -172 -21 -221 40 -24 84 -25 138 -4 64 26 97 113 65 174 -17 32 -81 70 -120 70 -11 0 -39 -9 -62 -19z"
       id="path66"
       style="fill:#009900" />
    <path
       d="M5941 8710 c-47 -34 -61 -63 -61 -122 0 -82 62 -148 137 -148 78 1 173 70 188 139 16 74 -82 161 -183 161 -28 0 -51 -9 -81 -30z"
       id="path68"
       style="fill:#00cc00" />
    <path
       d="M3808 8591 c-111 -70 -131 -251 -37 -336 40 -36 59 -40 144 -36 57 4 153 59 194 111 29 40 33 50 28 93 -5 59 -46 119 -112 165 -41 28 -56 32 -109 32 -51 0 -70 -5 -108 -29z"
       id="path70"
       style="fill:#00cc00" />
    <path
       d="M6446 8266 c-114 -43 -156 -168 -96 -291 44 -90 161 -130 265 -91 56 22 120 91 135 146 23 86 -20 179 -102 221 -51 26 -151 34 -202 15z"
       id="path72"
       style="fill:#66ff00" />
    <path
       d="M475 8158 c-179 -568 -286 -1235 -302 -1880 l-6 -278 741 0 742 0 0 88 c1 428 65 915 184 1382 19 74 33 136 31 138 -2 2 -182 -118 -401 -267 -219 -149 -401 -268 -406 -263 -4 4 -129 266 -277 581 -148 315 -272 575 -274 578 -3 3 -17 -33 -32 -79z"
       id="path74"
       style="fill:#990099" />
    <path
       d="M4990 8069 c-156 -27 -270 -133 -270 -249 0 -34 22 -100 33 -100 2 0 1 27 -1 59 -7 97 27 165 108 216 52 33 111 47 194 46 117 -1 213 -40 298 -119 106 -99 140 -195 139 -402 0 -185 -32 -379 -86 -513 -7 -16 -3 -18 20 -15 25 3 29 9 46 73 10 39 30 130 45 204 23 116 26 151 22 270 -6 168 -33 262 -108 374 -78 117 -152 158 -295 163 -49 2 -115 -1 -145 -7z"
       id="path76"
       style="fill:#330066" />
    <path
       d="M4905 7997 c-56 -28 -108 -78 -124 -120 -12 -31 -13 -108 -2 -147 7 -23 8 -24 17 -7 6 11 9 41 6 67 -3 38 0 56 17 83 67 109 248 155 372 94 62 -30 146 -112 177 -173 47 -92 57 -149 56 -334 0 -155 -3 -187 -27 -283 -15 -59 -34 -121 -42 -137 -20 -39 -19 -50 5 -50 15 0 24 16 45 83 46 145 56 207 62 392 4 149 3 191 -11 245 -33 127 -113 222 -236 278 -45 21 -74 26 -160 29 -95 4 -110 2 -155 -20z"
       id="path78"
       style="fill:#330066" />
    <path
       d="M4971 7961 c-98 -37 -155 -95 -149 -153 l4 -33 19 35 c55 96 140 140 232 120 201 -45 273 -257 194 -575 -33 -133 -79 -269 -111 -322 -11 -19 -20 -36 -20 -39 0 -2 38 -4 85 -4 97 0 91 -5 130 111 59 173 72 466 26 608 -63 199 -247 312 -410 252z"
       id="path80"
       style="fill:#330066" />
    <path
       d="M4945 7892 c-16 -10 -36 -26 -44 -35 -12 -15 -10 -16 19 -6 44 16 152 6 192 -18 71 -41 101 -119 99 -258 -1 -160 -52 -357 -130 -501 -22 -40 -37 -75 -33 -78 3 -3 20 -6 37 -6 31 0 34 4 73 88 60 129 113 323 128 467 8 78 -17 195 -54 254 -15 25 -46 59 -69 75 -35 24 -54 30 -115 33 -59 3 -79 1 -103 -15z"
       id="path82"
       style="fill:#330066" />
    <path
       d="M9655 7498 c-104 -222 -194 -409 -200 -416 -9 -10 -22 -4 -66 26 -184 129 -711 484 -714 481 -2 -2 5 -40 16 -84 60 -251 109 -523 139 -770 25 -211 44 -586 37 -721 -3 -56 -4 -104 -1 -107 3 -2 67 20 142 50 271 107 950 365 1035 392 44 15 41 -10 22 261 -22 303 -64 613 -120 889 -34 168 -86 385 -94 394 -4 4 -92 -174 -196 -395z"
       id="path84"
       style="fill:#990099" />
    <path
       d="M4932 7830 c-34 -8 -76 -41 -93 -72 -8 -14 -1 -22 38 -42 97 -49 193 -154 256 -280 41 -82 44 -77 53 89 12 202 -25 285 -135 305 -60 11 -72 11 -119 0z"
       id="path86"
       style="fill:#330066" />
    <path
       d="M5773 7785 c-69 -15 -146 -53 -191 -94 l-29 -26 5 -132 c3 -102 7 -133 17 -133 18 0 55 -48 55 -71 0 -25 -47 -77 -72 -81 -19 -3 -26 -18 -50 -113 -15 -60 -27 -115 -27 -122 -1 -6 25 14 57 46 66 66 140 104 242 126 121 26 226 14 303 -34 19 -12 37 -21 40 -21 3 0 15 43 28 95 18 79 21 115 17 212 -5 125 -31 221 -58 215 -7 -2 -25 0 -41 3 -30 7 -63 62 -53 88 14 37 -144 65 -243 42z m106 -41 c27 -35 26 -59 -4 -89 -47 -48 -135 -22 -135 40 0 67 98 101 139 49z m-181 -96 c17 -17 15 -58 -5 -80 -45 -50 -125 11 -88 68 17 27 72 33 93 12z m342 -48 c23 -23 24 -33 10 -60 -30 -56 -109 -38 -110 24 0 50 63 73 100 36z m-251 -122 c14 -25 14 -29 -5 -55 -28 -37 -70 -38 -96 -2 -17 23 -18 30 -8 50 18 33 30 40 65 37 20 -2 34 -12 44 -30z m205 -57 c56 -57 -16 -168 -97 -147 -36 9 -65 83 -48 125 7 16 22 34 34 40 30 15 87 6 111 -18z m154 -43 c21 -21 14 -66 -13 -84 -23 -15 -27 -15 -50 0 -17 11 -25 26 -25 44 0 35 16 52 50 52 14 0 31 -5 38 -12z m-430 -104 c24 -17 30 -62 10 -82 -7 -7 -24 -12 -38 -12 -33 0 -50 17 -50 51 0 24 30 59 50 59 3 0 16 -7 28 -16z"
       id="path88"
       style="fill:#99cc99" />
    <path
       d="M5777 7732 c-34 -38 -15 -82 35 -82 30 0 68 31 68 54 0 42 -73 62 -103 28z"
       id="path90"
       style="fill:#993366" />
    <path
       d="M5626 7634 c-19 -19 -20 -25 -3 -49 20 -26 67 -13 67 18 0 43 -35 60 -64 31z"
       id="path92"
       style="fill:#993366" />
    <path
       d="M5970 7585 c-20 -24 -8 -50 26 -53 36 -4 50 18 34 49 -13 23 -43 25 -60 4z"
       id="path94"
       style="fill:#993366" />
    <path
       d="M5704 7476 c-9 -23 -1 -48 18 -60 26 -16 68 26 52 52 -14 22 -62 28 -70 8z"
       id="path96"
       style="fill:#993366" />
    <path
       d="M5880 7410 c-24 -24 -25 -51 -5 -90 30 -58 115 -23 115 48 0 55 -70 82 -110 42z"
       id="path98"
       style="fill:#993366" />
    <path
       d="M6087 7364 c-12 -12 -8 -41 8 -54 20 -17 47 5 43 34 -3 21 -37 34 -51 20z"
       id="path100"
       style="fill:#993366" />
    <path
       d="M5673 7263 c-34 -13 0 -78 35 -66 15 6 16 45 0 61 -13 13 -16 13 -35 5z"
       id="path102"
       style="fill:#993366" />
    <path
       d="M4548 7736 c-101 -27 -213 -118 -261 -211 -59 -117 -63 -309 -8 -449 20 -51 24 -19 6 54 -12 51 -16 97 -13 163 6 120 36 186 127 278 86 86 160 123 259 128 39 2 72 5 72 8 0 2 -5 13 -10 24 -9 15 -21 19 -68 18 -31 0 -78 -6 -104 -13z"
       id="path104"
       style="fill:#996666" />
    <path
       d="M6030 7725 c0 -8 9 -24 20 -35 20 -20 50 -27 50 -12 0 10 -53 62 -63 62 -4 0 -7 -7 -7 -15z"
       id="path106"
       style="fill:#993366" />
    <path
       d="M4813 7705 c-7 -19 -10 -17 55 -49 109 -55 197 -162 242 -294 26 -75 40 -91 40 -44 0 42 -71 180 -128 248 -50 61 -123 120 -175 142 -23 10 -29 9 -34 -3z"
       id="path108"
       style="fill:#996666" />
    <path
       d="M4578 7666 c-99 -35 -203 -128 -254 -227 -26 -49 -28 -63 -29 -164 0 -113 10 -189 24 -181 4 3 6 41 3 85 -12 214 94 364 295 416 31 8 72 15 90 15 26 0 36 6 47 29 9 16 12 31 9 35 -11 11 -147 5 -185 -8z"
       id="path110"
       style="fill:#996666" />
    <path
       d="M4800 7651 c0 -32 24 -61 67 -82 60 -29 139 -102 165 -152 25 -50 58 -178 59 -231 l0 -41 20 44 c19 43 19 44 -2 115 -44 150 -124 262 -235 327 -51 30 -74 36 -74 20z"
       id="path112"
       style="fill:#996666" />
    <path
       d="M4753 7590 c-11 -27 -19 -51 -15 -54 3 -3 23 -6 45 -6 33 0 38 3 32 18 -4 9 -12 31 -17 47 -17 47 -22 47 -45 -5z"
       id="path114"
       style="fill:#993300" />
    <path
       d="M4635 7581 c-105 -18 -215 -102 -262 -200 -21 -45 -28 -74 -31 -150 -5 -106 12 -122 21 -19 15 183 145 328 293 328 42 0 55 4 63 19 17 32 0 36 -84 22z"
       id="path116"
       style="fill:#996666" />
    <path
       d="M4837 7543 c4 -10 24 -33 45 -52 48 -42 91 -124 112 -218 21 -93 20 -128 -3 -203 -16 -52 -17 -62 -5 -67 36 -14 84 77 84 159 0 175 -71 317 -189 377 -49 25 -52 26 -44 4z"
       id="path118"
       style="fill:#996666" />
    <path
       d="M4630 7519 c-71 -14 -132 -51 -172 -104 -40 -53 -78 -156 -78 -211 0 -31 2 -35 15 -24 8 7 15 18 15 24 0 28 53 120 94 164 63 67 124 96 207 96 56 1 73 -3 114 -29 32 -20 57 -45 73 -75 21 -41 23 -54 19 -134 -4 -78 -2 -95 18 -139 20 -42 25 -47 33 -31 48 92 3 312 -84 403 -39 42 -47 46 -106 52 -34 4 -72 9 -83 12 -11 3 -40 1 -65 -4z"
       id="path120"
       style="fill:#993300" />
    <path
       d="M4650 7441 c-85 -26 -178 -117 -204 -198 -7 -22 -7 -22 38 3 25 14 48 34 51 44 18 56 114 120 183 120 90 0 142 -57 142 -155 0 -57 11 -85 33 -85 5 0 7 37 6 83 -4 74 -7 88 -33 121 -47 63 -138 90 -216 67z"
       id="path122"
       style="fill:#993300" />
    <path
       d="M4655 7376 c-38 -14 -105 -75 -105 -95 0 -17 43 2 69 31 18 20 39 31 68 35 56 7 88 -14 104 -68 7 -22 21 -45 32 -51 19 -10 19 -7 15 47 -4 42 -11 62 -29 81 -31 31 -99 40 -154 20z"
       id="path124"
       style="fill:#993300" />
    <path
       d="M5557 7373 c-3 -5 -8 -32 -12 -61 l-7 -54 30 16 c43 22 55 62 26 90 -17 17 -30 20 -37 9z"
       id="path126"
       style="fill:#993366" />
    <path
       d="M4652 7314 c-31 -22 -28 -30 16 -32 20 -2 52 -7 70 -13 18 -6 35 -9 37 -7 2 2 -5 18 -15 36 -16 26 -26 32 -53 32 -18 0 -43 -7 -55 -16z"
       id="path128"
       style="fill:#993300" />
    <path
       d="M5760 7160 c-41 -11 -99 -35 -128 -53 -50 -30 -122 -98 -122 -115 0 -7 82 -62 94 -62 4 0 34 19 68 41 140 96 308 158 391 145 20 -4 37 -4 37 -1 0 4 -26 18 -57 32 -78 36 -180 41 -283 13z"
       id="path130"
       style="fill:#cccccc" />
    <path
       d="M5950 7084 c-78 -21 -148 -55 -246 -119 l-86 -56 39 -39 c21 -22 39 -40 40 -40 2 0 10 17 18 37 9 21 26 48 37 60 76 81 216 14 187 -89 -6 -22 -3 -30 18 -43 22 -15 25 -22 20 -56 -4 -32 -1 -41 14 -49 25 -14 24 -48 -2 -76 -18 -19 -19 -25 -7 -43 27 -43 -34 -93 -122 -99 l-60 -4 0 -33 c0 -28 4 -33 38 -43 76 -23 118 -25 135 -8 12 13 14 23 7 42 -15 38 -12 44 19 44 36 0 110 26 133 47 10 9 18 26 18 39 0 25 -43 64 -71 64 -39 0 -27 21 30 50 70 35 85 56 73 102 -11 45 -53 73 -108 72 -24 0 -44 1 -44 3 0 2 11 19 25 37 30 39 32 56 6 56 -33 0 -33 17 -1 81 25 49 29 64 18 70 -19 12 -65 10 -128 -7z"
       id="path132"
       style="fill:#cc6600" />
    <path
       d="M4473 7061 c-76 -22 -133 -63 -133 -95 0 -13 9 -35 20 -49 l20 -25 -44 -26 c-54 -32 -96 -80 -96 -111 0 -29 34 -55 72 -55 l28 0 -26 -40 c-15 -22 -29 -60 -31 -84 -5 -38 -2 -46 16 -55 29 -16 86 -4 122 26 27 23 29 23 35 6 15 -47 32 -68 69 -84 63 -29 70 -26 82 36 9 51 8 55 -9 55 -28 0 -90 28 -115 52 -24 22 -31 72 -13 83 6 4 4 15 -6 30 -20 31 -15 67 12 80 17 8 19 14 11 32 -12 27 14 73 41 73 14 0 17 8 14 43 -5 61 26 97 89 104 41 5 50 2 82 -27 23 -20 41 -48 49 -73 6 -23 13 -44 15 -46 2 -3 16 7 31 22 15 14 52 40 82 56 l54 30 -29 11 c-126 49 -331 63 -442 31z"
       id="path134"
       style="fill:#cc6600" />
    <path
       d="M6114 7069 c-12 -15 -54 -95 -54 -103 0 -6 69 -26 88 -26 14 0 12 22 -12 104 -9 31 -13 36 -22 25z"
       id="path136"
       style="fill:#00cc99" />
    <path
       d="M4579 7011 c-34 -35 -36 -50 -9 -84 29 -36 25 -43 -19 -39 -32 3 -40 0 -45 -16 -8 -25 2 -50 25 -63 30 -16 22 -28 -14 -22 -23 3 -37 0 -46 -11 -11 -14 -9 -20 18 -45 34 -32 38 -41 17 -41 -7 0 -19 -6 -25 -14 -23 -28 57 -96 113 -96 21 0 27 7 36 40 18 68 65 174 97 221 27 39 30 51 24 80 -27 112 -107 154 -172 90z"
       id="path138"
       style="fill:#660000" />
    <path
       d="M4240 6984 l-31 -27 27 -18 c16 -10 29 -17 31 -16 7 8 19 87 13 87 -5 0 -23 -12 -40 -26z"
       id="path140"
       style="fill:#00cc99" />
    <path
       d="M4885 6961 c-107 -61 -191 -188 -234 -356 -28 -104 -59 -296 -67 -413 l-7 -93 -46 44 c-67 65 -90 77 -141 77 -57 0 -94 -34 -116 -106 -31 -105 39 -224 132 -224 17 0 53 11 80 25 27 14 52 25 56 25 3 0 9 -35 13 -77 17 -214 36 -363 50 -413 32 -106 91 -183 219 -285 50 -40 99 -81 108 -92 33 -36 48 -90 48 -173 0 -91 17 -120 70 -120 40 0 46 17 53 135 3 55 11 112 17 127 8 18 48 48 119 90 150 90 264 203 320 319 55 114 94 232 116 352 l19 98 40 -8 c139 -28 223 17 234 125 8 90 -52 158 -149 169 -30 3 -56 9 -59 14 -9 13 -70 -19 -70 -38 0 -10 -11 -41 -24 -69 -39 -83 -111 -119 -180 -90 -49 21 -70 70 -63 148 4 46 2 58 -9 58 -20 0 -17 17 11 77 31 68 70 93 146 93 47 0 60 -4 83 -26 14 -15 26 -33 26 -40 0 -21 27 -17 44 7 19 28 39 15 34 -22 -3 -16 -1 -29 3 -29 14 0 22 109 16 223 -8 167 -46 266 -141 365 -36 39 -146 122 -160 122 -10 0 -36 -71 -36 -96 0 -13 13 -53 30 -89 47 -102 54 -144 40 -220 -7 -35 -12 -68 -11 -72 0 -4 35 -13 77 -20 90 -14 108 -29 80 -68 -13 -18 -19 -19 -124 -7 -83 9 -117 9 -135 1 l-25 -11 5 -127 c5 -110 3 -136 -16 -205 -30 -110 -93 -228 -148 -276 -72 -63 -189 -87 -276 -56 -51 19 -75 42 -89 87 -9 32 -8 46 6 83 21 55 55 78 149 102 37 9 82 26 99 38 74 50 121 146 134 270 l7 66 -55 0 c-37 0 -69 7 -99 23 -41 21 -53 22 -179 17 -109 -5 -137 -3 -147 9 -31 36 16 55 194 77 l51 6 7 46 c9 59 37 99 78 110 45 12 83 -3 98 -40 17 -41 2 -64 -40 -62 -34 2 -35 1 -21 -25 24 -45 104 -50 180 -11 60 31 75 55 74 118 -1 63 -18 104 -59 142 -25 23 -36 25 -153 31 -171 7 -218 33 -232 130 l-5 39 -50 -29z m149 -604 c42 -24 73 -73 83 -131 5 -31 3 -36 -14 -36 -15 0 -22 -12 -33 -52 -8 -34 -25 -65 -46 -85 -28 -29 -39 -33 -83 -33 -94 0 -131 37 -131 131 0 42 -3 51 -24 60 -40 19 -60 87 -21 72 11 -3 13 -1 9 10 -3 9 0 25 6 38 l12 22 25 -29 c19 -23 26 -26 30 -14 4 8 19 27 34 42 35 36 96 38 153 5z m-566 -237 c23 -14 32 -27 32 -46 0 -24 -3 -26 -30 -21 -26 6 -31 3 -36 -18 -3 -14 -3 -41 0 -60 8 -42 -5 -45 -41 -9 -21 21 -25 32 -20 64 4 35 3 39 -15 37 -29 -3 -32 15 -8 46 26 33 71 36 118 7z m1422 -25 c42 -22 54 -95 15 -95 -7 0 -15 5 -17 11 -2 6 -15 -7 -28 -28 -21 -31 -32 -39 -63 -41 -43 -4 -46 6 -12 38 30 29 33 66 5 75 -23 7 -26 25 -8 43 17 17 73 15 108 -3z m-1165 -79 c45 -19 68 -64 60 -119 -7 -51 32 -196 71 -263 73 -124 217 -157 350 -79 96 56 211 223 199 288 -26 135 172 194 214 64 13 -39 0 -95 -27 -117 -12 -9 -25 -45 -36 -96 -40 -193 -142 -351 -292 -455 -71 -49 -121 -61 -227 -57 -76 2 -102 8 -148 31 -115 56 -210 168 -250 296 -15 49 -22 105 -26 214 -3 81 -10 150 -14 153 -5 3 -9 24 -9 48 0 33 6 48 28 68 43 40 59 44 107 24z"
       id="path142"
       style="fill:#cc6600" />
    <path
       d="M4883 6324 c-38 -40 -59 -44 -80 -16 -12 15 -13 15 -13 0 0 -9 7 -23 15 -32 22 -21 18 -29 -10 -24 -31 6 -32 -3 -2 -22 16 -11 60 -16 165 -18 159 -4 155 -6 123 65 -23 51 -57 74 -116 81 -42 4 -48 2 -82 -34z"
       id="path144"
       style="fill:#66cc66" />
    <path
       d="M4830 6142 c0 -26 7 -57 15 -69 32 -45 126 -49 168 -7 29 28 53 102 39 116 -16 16 -29 2 -36 -36 -12 -65 -85 -97 -126 -56 -26 26 -26 60 -1 60 31 0 35 19 6 30 -54 21 -65 15 -65 -38z"
       id="path146"
       style="fill:#6633ff" />
    <path
       d="M4934 6181 c10 -15 -4 -39 -25 -44 -17 -5 -19 -9 -9 -26 24 -46 100 -4 100 55 0 21 -5 24 -36 24 -19 0 -33 -4 -30 -9z"
       id="path148"
       style="fill:#6699ff" />
    <path
       d="M4371 6107 c-8 -11 -5 -13 18 -9 16 2 42 -3 60 -12 35 -19 42 -5 9 18 -27 19 -72 21 -87 3z"
       id="path150"
       style="fill:#cc9999" />
    <path
       d="M4396 6064 c-9 -23 -7 -72 3 -78 5 -3 11 9 14 27 3 17 8 40 12 50 5 11 2 17 -8 17 -8 0 -18 -7 -21 -16z"
       id="path152"
       style="fill:#cc9999" />
    <path
       d="M5796 6081 c-3 -5 13 -11 35 -14 22 -3 49 -13 60 -23 19 -17 20 -17 13 2 -4 10 -14 25 -22 32 -18 14 -78 16 -86 3z"
       id="path154"
       style="fill:#cc9999" />
    <path
       d="M5830 6027 c0 -12 -7 -33 -16 -45 -13 -20 -13 -22 0 -22 19 0 50 56 42 76 -9 22 -26 16 -26 -9z"
       id="path156"
       style="fill:#cc9999" />
    <path
       d="M4655 5998 c-49 -26 -61 -92 -25 -128 31 -31 93 -27 119 6 29 37 26 70 -8 105 -31 31 -53 35 -86 17z"
       id="path158"
       style="fill:#ffcc66" />
    <path
       d="M5455 5938 c-15 -14 -28 -38 -32 -60 -5 -32 -1 -41 25 -68 34 -34 67 -38 113 -15 53 28 63 87 23 134 -33 39 -89 43 -129 9z"
       id="path160"
       style="fill:#ffcc66" />
    <path
       d="M4741 5841 c-25 -16 -8 -148 28 -224 116 -242 365 -293 547 -112 80 80 160 268 119 281 -5 2 -30 -31 -55 -72 -86 -144 -191 -215 -320 -215 -83 0 -144 24 -186 74 -37 44 -80 140 -95 215 -14 65 -15 67 -38 53z"
       id="path162"
       style="fill:#ff3300" />
    <path
       d="M4630 5740 c0 -185 40 -306 136 -409 127 -138 306 -175 457 -94 69 37 183 153 230 233 38 66 79 181 92 258 10 64 -20 45 -40 -26 -29 -100 -74 -173 -150 -248 -95 -94 -152 -118 -285 -119 -90 0 -99 2 -158 34 -143 78 -251 255 -252 412 0 32 -5 49 -15 53 -13 4 -15 -10 -15 -94z"
       id="path164"
       style="fill:#cc0033" />
    <path
       d="M4686 5823 c-10 -11 -6 -85 8 -138 34 -128 119 -241 227 -300 49 -27 62 -30 149 -30 88 0 101 3 163 33 113 56 190 147 242 287 29 76 30 85 10 85 -8 0 -19 -17 -26 -42 -18 -70 -80 -178 -131 -229 -71 -71 -145 -103 -246 -108 -74 -3 -89 0 -138 24 -122 60 -222 209 -232 347 -5 65 -12 85 -26 71z"
       id="path166"
       style="fill:#ff3300" />
    <path
       d="M4960 6951 c0 -43 41 -86 94 -100 25 -6 87 -11 139 -11 111 0 146 -17 186 -89 31 -56 34 -144 8 -185 -40 -60 -157 -99 -219 -73 -70 30 -89 87 -29 87 38 0 48 16 20 31 -18 9 -26 8 -48 -8 -50 -37 -34 -105 31 -139 41 -21 164 -14 210 13 60 35 73 64 73 166 0 151 -41 192 -204 209 -193 20 -241 40 -241 100 0 15 -4 28 -10 28 -5 0 -10 -13 -10 -29z"
       id="path168"
       style="fill:#663399" />
    <path
       d="M4995 6970 c-11 -19 6 -50 37 -66 16 -8 71 -20 121 -25 136 -13 168 -19 209 -40 54 -28 80 -84 86 -186 4 -71 2 -86 -19 -123 -34 -61 -93 -92 -183 -98 -86 -5 -138 14 -167 62 -39 63 -13 123 57 136 l39 7 -26 12 c-84 41 -154 -104 -91 -188 37 -49 79 -66 167 -65 173 1 256 66 271 211 5 45 1 70 -15 115 -50 130 -84 153 -261 173 -123 13 -159 26 -180 65 -11 21 -35 27 -45 10z"
       id="path170"
       style="fill:#cc99cc" />
    <path
       d="M5077 6949 c17 -17 44 -24 144 -35 68 -8 139 -21 158 -30 18 -8 36 -12 40 -9 11 12 -31 34 -76 41 -24 3 -60 17 -79 30 -30 21 -47 24 -122 24 l-86 0 21 -21z"
       id="path172"
       style="fill:#663399" />
    <path
       d="M5277 6959 c10 -10 142 -44 147 -37 2 1 7 13 10 26 7 22 6 22 -80 22 -63 0 -85 -3 -77 -11z"
       id="path174"
       style="fill:#663399" />
    <path
       d="M5769 6914 c-13 -14 -31 -44 -40 -67 -16 -40 -16 -42 17 -111 20 -43 38 -105 46 -156 14 -82 15 -85 43 -88 44 -5 89 6 113 29 27 25 28 49 2 56 -27 7 -25 21 5 35 26 12 41 41 30 58 -3 5 -23 10 -43 10 l-37 1 28 20 c18 14 27 30 27 49 0 31 -19 43 -56 34 -31 -8 -30 1 2 39 46 55 9 117 -70 117 -33 0 -48 -6 -67 -26z"
       id="path176"
       style="fill:#660000" />
    <path
       d="M6579 6710 c-13 -37 -22 -38 -38 -4 -15 34 -43 28 -55 -14 -10 -35 -20 -41 -30 -17 -8 23 -36 18 -36 -6 0 -12 12 -64 26 -116 14 -52 23 -97 20 -100 -3 -3 -22 9 -43 27 -39 34 -112 72 -125 64 -11 -7 10 -55 35 -82 33 -36 113 -92 130 -92 8 0 17 5 19 11 5 16 81 28 182 29 l89 0 -7 77 c-8 82 -41 219 -59 242 -9 11 -15 9 -29 -10 l-19 -22 -15 21 c-21 30 -33 28 -45 -8z"
       id="path178"
       style="fill:#ff0000" />
    <path
       d="M3520 6585 l-10 -27 -18 23 c-11 12 -24 19 -30 15 -17 -11 -43 -144 -45 -238 l-2 -88 117 -5 c64 -3 129 -10 144 -15 23 -9 33 -6 66 16 74 52 146 164 105 164 -16 0 -84 -45 -124 -83 -18 -17 -33 -27 -33 -21 0 5 10 58 21 117 17 85 19 111 10 120 -10 9 -15 8 -25 -5 -18 -25 -25 -23 -38 13 -13 37 -37 35 -57 -5 l-14 -30 -16 34 c-21 43 -38 48 -51 15z"
       id="path180"
       style="fill:#ff0000" />
    <path
       d="M4935 6485 c-5 -1 -43 -8 -82 -15 -49 -8 -73 -16 -73 -25 0 -11 19 -13 93 -9 134 7 160 12 153 30 -3 9 -6 18 -6 20 0 5 -70 4 -85 -1z"
       id="path182"
       style="fill:#006666" />
    <path
       d="M5465 6460 c-16 -17 -16 -20 -2 -26 9 -3 53 -6 99 -7 68 -2 83 1 83 13 0 11 -17 17 -60 22 -33 4 -69 10 -81 13 -13 3 -28 -3 -39 -15z"
       id="path184"
       style="fill:#006666" />
    <path
       d="M5300 6381 c-28 -5 -36 -11 -38 -31 -7 -69 -26 -148 -46 -194 -44 -100 -95 -140 -216 -171 -76 -20 -113 -44 -130 -85 -27 -66 19 -141 96 -156 53 -10 136 1 181 24 85 44 167 174 199 320 17 79 16 275 -2 290 -5 5 -25 6 -44 3z"
       id="path186"
       style="fill:#ffcc66" />
    <path
       d="M6551 6383 l-53 -4 6 -52 c3 -29 9 -117 12 -197 16 -370 -84 -736 -275 -1010 -33 -47 -85 -133 -117 -192 -60 -113 -151 -235 -229 -307 l-48 -44 11 -95 c6 -52 13 -97 16 -100 19 -18 207 110 323 222 289 276 476 646 555 1101 19 111 22 163 22 355 -1 124 -5 248 -10 275 l-9 50 -75 1 c-41 0 -99 -1 -129 -3z"
       id="path188"
       style="fill:#ff0000" />
    <path
       d="M5532 6360 c-43 -10 -71 -35 -93 -85 -14 -30 -15 -41 -6 -47 7 -3 71 -10 143 -14 109 -5 135 -4 160 9 l29 16 -34 1 -34 0 21 23 c23 24 32 51 10 29 -24 -24 -58 -14 -70 19 -7 21 -22 36 -44 45 -37 15 -35 15 -82 4z"
       id="path190"
       style="fill:#66cc66" />
    <path
       d="M9780 6234 c-232 -88 -416 -159 -857 -331 l-61 -24 -4 -71 c-2 -38 0 -72 4 -74 3 -2 93 30 200 72 272 107 675 261 861 330 l157 58 0 73 c0 52 -4 73 -12 72 -7 -1 -137 -48 -288 -105z"
       id="path192"
       style="fill:#ff6600" />
    <path
       d="M3417 6243 c-16 -26 -29 -250 -24 -407 8 -225 34 -381 99 -586 140 -445 425 -820 755 -993 59 -31 173 -77 190 -77 1 0 3 56 3 125 l0 124 -32 17 c-66 34 -179 116 -243 176 -89 83 -156 174 -219 298 -29 58 -79 152 -109 210 -64 120 -126 296 -158 450 -19 89 -22 138 -23 325 -1 121 2 243 7 271 7 48 6 52 -15 58 -44 12 -225 19 -231 9z"
       id="path194"
       style="fill:#ff0000" />
    <path
       d="M5444 6174 c-11 -43 2 -115 25 -137 28 -28 90 -29 128 -1 50 36 96 154 60 154 -7 0 -19 -22 -26 -49 -7 -26 -19 -58 -27 -70 -20 -28 -65 -28 -91 2 -35 38 -36 46 -8 57 26 10 26 30 -1 30 -8 0 -14 9 -14 20 0 31 -38 26 -46 -6z"
       id="path196"
       style="fill:#6633ff" />
    <path
       d="M5510 6192 c0 -6 9 -16 20 -22 26 -14 25 -34 -2 -52 -20 -13 -21 -17 -9 -32 34 -41 83 -8 96 67 7 35 6 37 -18 37 -13 0 -39 3 -56 6 -19 4 -31 2 -31 -4z"
       id="path198"
       style="fill:#6699ff" />
    <path
       d="M9740 6047 c-304 -116 -617 -237 -804 -312 l-81 -32 -17 -124 c-9 -68 -15 -125 -14 -126 3 -3 72 14 586 146 544 140 663 171 666 174 2 2 6 292 5 360 -1 20 -4 37 -8 37 -5 0 -154 -56 -333 -123z"
       id="path200"
       style="fill:#990099" />
    <path
       d="M170 5910 l0 -70 745 0 745 0 0 54 c0 30 -3 61 -6 70 -6 14 -80 16 -745 16 l-739 0 0 -70z"
       id="path202"
       style="fill:#ff6600" />
    <path
       d="M179 5816 c-7 -7 9 -285 26 -447 30 -295 78 -586 141 -859 33 -144 49 -205 90 -351 l16 -57 427 427 c234 234 519 512 633 616 135 124 206 195 203 205 -6 20 -42 305 -50 398 l-7 72 -737 0 c-406 0 -740 -2 -742 -4z"
       id="path204"
       style="fill:#990099" />
    <path
       d="M10035 5740 c-16 -4 -147 -37 -290 -74 -143 -37 -357 -92 -475 -122 -118 -31 -265 -69 -327 -85 -61 -16 -113 -29 -116 -29 -7 0 -30 -140 -24 -146 4 -4 207 46 532 131 50 13 234 60 410 105 176 45 321 83 321 83 5 7 10 147 5 146 -3 -1 -19 -4 -36 -9z"
       id="path206"
       style="fill:#ff6600" />
    <path
       d="M4480 5625 c-8 -2 -115 -9 -237 -16 -188 -10 -223 -14 -228 -28 -11 -27 -18 -176 -11 -214 l7 -36 62 45 c34 26 96 63 138 84 71 36 245 99 317 115 24 5 32 11 28 22 -3 8 -6 19 -6 24 0 8 -37 10 -70 4z"
       id="path208"
       style="fill:#ffff00" />
    <path
       d="M5643 5595 c-7 -20 -13 -16 83 -54 131 -52 231 -116 321 -206 l83 -82 10 36 c19 67 31 157 28 201 -3 45 -3 45 -43 48 -22 1 -135 18 -252 37 -117 19 -215 35 -218 35 -3 0 -8 -7 -12 -15z"
       id="path210"
       style="fill:#ffff00" />
    <path
       d="M9890 5539 c-142 -38 -213 -57 -690 -179 -129 -33 -273 -70 -319 -82 -95 -25 -89 -15 -121 -168 -12 -58 -31 -138 -42 -178 -12 -40 -18 -75 -15 -78 3 -4 118 28 254 69 423 129 770 231 948 279 61 16 115 35 121 41 13 13 34 186 34 277 0 42 -4 60 -12 59 -7 -1 -78 -19 -158 -40z"
       id="path212"
       style="fill:#990099" />
    <path
       d="M3952 5517 c-23 -46 -52 -123 -52 -138 0 -7 73 -59 82 -59 2 0 3 54 3 120 0 66 -3 120 -6 120 -3 0 -15 -19 -27 -43z"
       id="path214"
       style="fill:#6633ff" />
    <path
       d="M4405 5516 c-72 -24 -155 -56 -185 -71 -76 -38 -164 -99 -151 -103 6 -2 39 5 73 17 85 27 212 56 336 77 56 10 102 21 102 26 0 28 -24 98 -34 98 -6 -1 -70 -20 -141 -44z"
       id="path216"
       style="fill:#ff9900" />
    <path
       d="M5612 5518 c-17 -48 -15 -58 11 -58 41 0 261 -81 355 -130 78 -41 90 -45 75 -25 -53 71 -304 223 -398 241 -28 5 -32 2 -43 -28z"
       id="path218"
       style="fill:#ff9900" />
    <path
       d="M6187 5444 c-3 -38 -3 -71 -1 -73 2 -2 11 2 20 10 12 10 14 23 9 58 -11 76 -22 78 -28 5z"
       id="path220"
       style="fill:#6633ff" />
    <path
       d="M5619 5422 c115 -150 174 -253 221 -379 15 -43 36 -95 45 -117 l16 -38 31 28 c43 41 125 165 160 242 16 35 28 65 26 67 -2 1 -30 20 -62 40 -105 67 -232 120 -404 169 l-53 15 20 -27z"
       id="path222"
       style="fill:#ffff00" />
    <path
       d="M4455 5414 c-108 -19 -306 -70 -377 -96 -69 -25 -71 -32 -32 -134 25 -67 83 -174 94 -174 3 0 23 20 43 45 61 72 225 214 317 273 105 68 102 65 94 85 -7 20 -30 20 -139 1z"
       id="path224"
       style="fill:#ffff00" />
    <path
       d="M5543 5377 c-17 -29 -41 -61 -52 -71 -12 -11 -21 -22 -21 -26 0 -4 39 -36 88 -72 48 -35 133 -106 189 -156 l102 -92 -19 56 c-34 97 -108 236 -175 327 -36 48 -68 87 -73 87 -4 0 -22 -24 -39 -53z"
       id="path226"
       style="fill:#ff9900" />
    <path
       d="M4544 5334 c-32 -19 -84 -54 -114 -77 -58 -44 -253 -228 -247 -234 2 -2 78 32 168 76 90 43 202 93 249 112 47 18 86 34 88 35 2 1 -13 26 -32 54 -20 29 -36 56 -36 61 0 15 -14 10 -76 -27z"
       id="path228"
       style="fill:#ff9900" />
    <path
       d="M6193 5348 c-19 -24 -20 -43 -5 -73 l16 -30 7 30 c16 70 7 104 -18 73z"
       id="path230"
       style="fill:#6633ff" />
    <path
       d="M3895 5288 c-3 -29 -2 -73 2 -97 l8 -45 43 68 c23 37 42 69 42 71 0 5 -77 55 -84 55 -3 0 -7 -24 -11 -52z"
       id="path232"
       style="fill:#6633ff" />
    <path
       d="M1515 5122 c-234 -218 -729 -706 -916 -903 l-138 -146 22 -69 c11 -38 23 -71 24 -73 2 -2 155 151 341 340 309 313 602 600 820 801 l84 76 -13 76 c-6 42 -17 76 -23 76 -6 -1 -96 -80 -201 -178z"
       id="path234"
       style="fill:#ff6600" />
    <path
       d="M6146 5243 c-4 -16 -9 -36 -12 -46 -6 -18 -4 -18 28 -1 18 9 34 18 36 19 6 5 -30 55 -38 55 -4 0 -11 -12 -14 -27z"
       id="path236"
       style="fill:#6633ff" />
    <path
       d="M3947 5177 c-58 -95 -54 -105 52 -140 91 -30 119 -34 103 -14 -19 23 -79 151 -87 184 -3 18 -10 35 -15 38 -5 3 -28 -28 -53 -68z"
       id="path238"
       style="fill:#6633ff" />
    <path
       d="M5391 5210 l-44 -38 30 -41 c82 -111 254 -291 313 -326 12 -7 12 -4 -2 17 -33 50 -168 289 -203 358 -19 39 -39 70 -43 70 -4 -1 -27 -18 -51 -40z"
       id="path240"
       style="fill:#ff9900" />
    <path
       d="M5480 5234 c0 -19 253 -458 271 -469 7 -5 94 60 117 88 20 24 -10 68 -111 163 -111 105 -277 235 -277 218z"
       id="path242"
       style="fill:#ffff00" />
    <path
       d="M4580 5182 c-142 -60 -420 -193 -420 -202 0 -17 163 -162 229 -204 40 -26 74 -46 76 -44 2 2 42 82 88 178 47 96 104 208 126 248 23 40 35 72 28 72 -7 0 -64 -22 -127 -48z"
       id="path244"
       style="fill:#ffff00" />
    <path
       d="M9995 5208 c-16 -5 -52 -15 -80 -22 -27 -8 -153 -44 -278 -80 -206 -60 -368 -108 -797 -237 -74 -22 -140 -46 -147 -52 -10 -11 -55 -148 -50 -153 1 -2 68 17 147 42 180 56 816 245 1045 310 94 27 173 52 176 57 6 9 21 139 16 142 -1 1 -15 -2 -32 -7z"
       id="path246"
       style="fill:#ff6600" />
    <path
       d="M4717 5187 c-20 -30 -197 -385 -197 -394 0 -7 309 293 322 313 5 7 -16 30 -51 58 l-59 46 -15 -23z"
       id="path248"
       style="fill:#ff9900" />
    <path
       d="M6142 5160 c-23 -17 -42 -33 -42 -35 0 -17 42 -85 49 -80 11 6 46 133 39 140 -3 3 -24 -8 -46 -25z"
       id="path250"
       style="fill:#6633ff" />
    <path
       d="M5320 5156 c0 -2 20 -55 44 -118 45 -117 86 -250 107 -351 7 -32 15 -60 19 -62 7 -4 196 86 223 106 16 13 14 17 -32 52 -66 51 -246 238 -301 314 -39 54 -60 75 -60 59z"
       id="path252"
       style="fill:#ffff00" />
    <path
       d="M5265 5124 c-11 -8 -26 -19 -34 -23 -11 -7 -5 -21 27 -68 22 -33 73 -116 111 -183 39 -68 71 -121 71 -118 0 34 -77 268 -119 364 -22 48 -26 51 -56 28z"
       id="path254"
       style="fill:#ff9900" />
    <path
       d="M1505 4892 c-264 -250 -659 -644 -859 -856 l-130 -137 23 -69 c12 -38 25 -71 29 -74 4 -2 59 16 122 40 63 25 133 51 155 59 22 7 220 82 440 165 220 83 472 178 560 211 88 33 166 63 173 67 9 6 -4 49 -53 173 -63 157 -136 377 -170 511 -32 127 -36 138 -43 138 -4 0 -115 -103 -247 -228z"
       id="path256"
       style="fill:#990099" />
    <path
       d="M4677 4912 c-103 -103 -187 -190 -187 -194 0 -17 285 -138 325 -138 8 0 14 37 18 114 4 63 17 167 28 232 25 140 27 166 14 171 -6 1 -94 -81 -198 -185z"
       id="path258"
       style="fill:#ffff00" />
    <path
       d="M6061 5054 c-12 -20 -20 -38 -19 -40 2 -1 22 0 45 3 l42 5 -17 34 c-8 19 -19 34 -23 34 -4 0 -17 -16 -28 -36z"
       id="path260"
       style="fill:#6633ff" />
    <path
       d="M5177 5072 c-4 -5 -2 -34 3 -63 13 -69 -1 -186 -29 -239 l-21 -41 20 -56 c33 -95 36 -92 50 67 14 167 0 371 -23 332z"
       id="path262"
       style="fill:#cc6666" />
    <path
       d="M4887 4968 c-18 -94 -36 -251 -37 -321 0 -50 13 -41 51 35 30 59 30 61 14 95 -20 41 -23 182 -5 227 12 32 13 56 2 56 -4 0 -15 -42 -25 -92z"
       id="path264"
       style="fill:#cc6666" />
    <path
       d="M5220 4880 c0 -96 -5 -206 -10 -244 -6 -38 -8 -71 -6 -74 13 -12 256 45 256 60 0 26 -144 291 -216 398 l-24 35 0 -175z"
       id="path266"
       style="fill:#ffff00" />
    <path
       d="M3934 5003 c28 -79 109 -223 126 -223 8 0 59 130 67 172 3 19 1 29 -8 32 -8 2 -48 13 -89 24 -41 11 -83 24 -92 27 -17 7 -17 4 -4 -32z"
       id="path268"
       style="fill:#6633ff" />
    <path
       d="M5136 5023 c-2 -10 -8 -65 -11 -122 -6 -82 -11 -107 -26 -122 -35 -35 -110 -17 -128 30 -5 14 -12 61 -14 103 -6 86 -20 128 -30 87 -27 -113 -15 -203 33 -251 23 -22 37 -28 73 -28 79 0 117 52 132 177 7 65 -1 143 -15 143 -5 0 -11 -8 -14 -17z"
       id="path270"
       style="fill:#cc6666" />
    <path
       d="M9950 5030 c-14 -5 -122 -36 -240 -70 -238 -68 -291 -84 -757 -226 l-322 -98 -45 -120 c-25 -67 -67 -170 -95 -231 -57 -127 -63 -116 79 -134 52 -7 158 -21 235 -31 77 -10 212 -28 300 -40 88 -12 207 -28 265 -36 58 -7 159 -21 225 -29 66 -8 132 -18 146 -21 26 -5 27 -3 63 122 73 248 144 559 186 814 6 36 13 75 15 88 6 24 -9 28 -55 12z"
       id="path272"
       style="fill:#990099" />
    <path
       d="M6052 4989 c-25 -9 -25 -9 3 -89 l12 -35 31 61 c17 34 28 64 25 68 -9 9 -44 6 -71 -5z"
       id="path274"
       style="fill:#6633ff" />
    <path
       d="M5968 4925 c-21 -24 -38 -46 -38 -49 0 -3 25 -6 56 -6 54 0 56 1 50 23 -4 12 -9 34 -12 50 -4 15 -9 27 -13 27 -3 -1 -23 -20 -43 -45z"
       id="path276"
       style="fill:#6633ff" />
    <path
       d="M4135 4908 c-9 -24 -26 -67 -36 -97 l-19 -54 113 7 c153 10 157 11 110 45 -21 16 -63 54 -94 85 l-56 57 -18 -43z"
       id="path278"
       style="fill:#6633ff" />
    <path
       d="M5914 4813 c3 -21 11 -55 16 -75 l11 -38 28 33 c39 46 81 103 81 110 0 4 -32 7 -71 7 l-72 0 7 -37z"
       id="path280"
       style="fill:#6633ff" />
    <path
       d="M5845 4802 c-17 -15 -46 -38 -64 -52 l-34 -26 84 -16 c46 -9 85 -15 87 -13 2 2 -1 20 -6 41 -6 22 -13 51 -16 67 -8 33 -13 33 -51 -1z"
       id="path282"
       style="fill:#6633ff" />
    <path
       d="M4210 4745 l-125 -10 75 -76 c42 -41 96 -89 122 -107 41 -28 47 -30 52 -15 6 23 11 211 5 215 -2 2 -60 -1 -129 -7z"
       id="path284"
       style="fill:#6633ff" />
    <path
       d="M4366 4718 c-3 -24 -8 -83 -11 -132 l-6 -88 120 63 c67 35 121 66 121 71 0 4 -30 23 -67 42 -38 19 -87 47 -110 61 l-42 25 -5 -42z"
       id="path286"
       style="fill:#6633ff" />
    <path
       d="M4904 4650 c-50 -94 -58 -89 134 -97 109 -5 132 -3 131 8 -1 33 -58 154 -71 150 -38 -13 -98 -11 -124 2 l-29 15 -41 -78z"
       id="path288"
       style="fill:#ffff00" />
    <path
       d="M5704 4689 c-11 -19 -19 -189 -8 -189 12 0 174 122 197 148 19 20 18 21 -20 32 -68 19 -159 24 -169 9z"
       id="path290"
       style="fill:#6633ff" />
    <path
       d="M5620 4655 c-25 -13 -62 -29 -82 -35 -21 -6 -38 -14 -38 -18 0 -4 38 -27 85 -50 l85 -42 0 69 c0 38 3 76 6 85 8 21 -3 20 -56 -9z"
       id="path292"
       style="fill:#6633ff" />
    <path
       d="M4581 4601 c-13 -10 -64 -38 -113 -62 -48 -24 -88 -46 -88 -49 0 -18 255 -128 268 -115 2 2 -3 55 -12 117 -9 62 -16 116 -16 121 0 12 -13 8 -39 -12z"
       id="path294"
       style="fill:#6633ff" />
    <path
       d="M4644 4583 c3 -15 10 -68 16 -118 6 -49 12 -91 14 -92 1 -1 41 37 90 86 l87 88 -93 29 c-51 16 -99 30 -106 32 -10 3 -12 -4 -8 -25z"
       id="path296"
       style="fill:#6633ff" />
    <path
       d="M5446 4578 c-3 -7 -18 -55 -34 -105 -22 -68 -27 -93 -18 -93 23 0 160 47 220 76 l57 27 -101 53 c-107 57 -118 61 -124 42z"
       id="path298"
       style="fill:#6633ff" />
    <path
       d="M5315 4557 c-49 -11 -91 -21 -92 -22 -1 0 29 -34 68 -74 38 -41 71 -72 73 -70 6 7 56 164 56 177 0 6 -3 11 -7 11 -5 -1 -48 -11 -98 -22z"
       id="path300"
       style="fill:#6633ff" />
    <path
       d="M5765 4518 c-22 -16 -71 -46 -110 -65 -38 -19 -71 -37 -73 -38 -2 -2 6 -52 17 -111 10 -60 29 -165 41 -234 68 -397 106 -600 114 -608 6 -5 196 25 204 33 4 3 -6 92 -38 350 -70 560 -91 697 -105 701 -6 1 -28 -11 -50 -28z"
       id="path302"
       style="fill:#990000" />
    <path
       d="M4785 4450 c-49 -49 -86 -92 -83 -96 15 -15 288 -33 288 -19 0 13 -90 182 -102 193 -11 9 -32 -6 -103 -78z"
       id="path304"
       style="fill:#6633ff" />
    <path
       d="M4961 4439 c27 -54 53 -99 57 -99 10 1 122 185 114 187 -4 1 -55 3 -114 6 l-107 5 50 -99z"
       id="path306"
       style="fill:#6633ff" />
    <path
       d="M5158 4513 c-13 -15 -77 -112 -112 -172 -7 -11 6 -12 75 -7 102 9 201 26 213 37 10 9 -132 159 -151 159 -5 0 -17 -8 -25 -17z"
       id="path308"
       style="fill:#6633ff" />
    <path
       d="M4465 3953 c3 -252 9 -470 11 -485 5 -27 8 -28 65 -28 32 0 62 0 67 0 4 0 10 46 14 102 9 130 34 370 58 558 30 231 30 240 -13 240 -12 0 -60 16 -107 35 -47 19 -89 35 -94 35 -4 0 -5 -205 -1 -457z"
       id="path310"
       style="fill:#990000" />
    <path
       d="M5521 4393 c-33 -14 -33 -15 -27 -61 3 -26 24 -130 46 -232 21 -102 58 -279 80 -395 23 -115 50 -244 61 -287 26 -105 25 -145 -5 -169 -71 -56 -75 -203 -6 -264 30 -27 149 -28 197 -2 117 63 83 255 -54 302 -30 10 -41 20 -50 50 -25 72 -114 543 -180 955 -8 52 -18 100 -22 106 -4 8 -16 7 -40 -3z m341 -1182 c23 -26 28 -41 28 -82 0 -116 -81 -168 -187 -120 -94 43 -94 163 2 223 47 30 120 20 157 -21z"
       id="path312"
       style="fill:#cc3300" />
    <path
       d="M5696 3197 c-83 -79 -42 -180 73 -181 60 -1 89 21 98 77 9 60 -4 105 -37 122 -49 25 -94 19 -134 -18z m135 -49 c14 -23 -18 -41 -81 -46 -49 -4 -61 -1 -66 12 -8 20 10 43 39 50 36 7 99 -2 108 -16z"
       id="path314"
       style="fill:#3300ff" />
    <path
       d="M5740 3143 c-41 -8 -48 -23 -9 -23 45 0 80 10 73 21 -5 9 -20 10 -64 2z"
       id="path316"
       style="fill:#cc3300" />
    <path
       d="M5411 4359 c-13 -5 -74 -17 -135 -26 -108 -17 -110 -18 -72 -28 88 -25 124 -120 71 -184 -86 -101 -272 -31 -236 89 12 39 55 86 85 92 11 1 -52 2 -140 2 l-159 -2 -17 -128 c-16 -120 -23 -182 -63 -534 -8 -74 -17 -152 -20 -172 l-5 -38 247 0 c211 0 673 16 681 24 1 2 -11 65 -27 142 -16 76 -41 204 -55 284 -15 80 -35 179 -46 220 -10 41 -27 119 -36 173 -19 103 -22 106 -73 86z m-180 -355 c17 -8 37 -30 45 -50 12 -29 12 -39 0 -68 -36 -87 -162 -97 -209 -17 -26 45 -22 78 17 117 28 28 42 34 75 34 23 0 56 -7 72 -16z m44 -384 c35 -33 35 -106 1 -143 -85 -92 -253 6 -195 114 32 61 143 77 194 29z"
       id="path318"
       style="fill:#990000" />
    <path
       d="M5096 3975 c-79 -73 32 -185 124 -123 29 20 36 31 38 65 3 34 -1 44 -24 62 -38 30 -103 29 -138 -4z m126 -2 c22 -20 23 -61 2 -91 -33 -47 -124 -16 -124 43 0 55 80 87 122 48z"
       id="path320"
       style="fill:#990000" />
    <path
       d="M5140 3960 c-23 -23 -25 -40 -7 -62 19 -24 43 -28 66 -12 27 20 27 59 -1 78 -29 20 -34 20 -58 -4z"
       id="path322"
       style="fill:#3300ff" />
    <path
       d="M5119 3601 c-40 -40 -39 -81 2 -115 33 -28 85 -34 121 -15 31 17 52 76 38 109 -24 57 -113 68 -161 21z m121 -16 c21 -22 22 -27 10 -55 -21 -52 -74 -66 -110 -30 -24 24 -26 72 -4 94 24 25 77 20 104 -9z"
       id="path324"
       style="fill:#3300ff" />
    <path
       d="M5144 3563 c-9 -34 6 -57 39 -61 23 -3 57 27 57 50 0 16 -34 38 -61 38 -23 0 -30 -5 -35 -27z"
       id="path326"
       style="fill:#3300ff" />
    <path
       d="M4726 4309 c-2 -8 -9 -57 -15 -109 -6 -52 -18 -150 -26 -216 -9 -67 -26 -248 -39 -404 -14 -155 -26 -283 -28 -284 -2 -1 -16 -6 -33 -12 -64 -20 -100 -117 -69 -185 56 -125 217 -141 275 -27 42 82 6 190 -68 204 l-36 7 7 76 c4 42 16 153 27 246 11 94 29 249 40 345 11 96 26 216 33 265 8 50 12 91 11 93 -1 2 -19 5 -39 9 -25 4 -37 2 -40 -8z m0 -1068 c77 -47 63 -173 -22 -201 -104 -35 -204 68 -159 164 9 18 26 38 38 44 36 18 109 14 143 -7z"
       id="path328"
       style="fill:#cc3300" />
    <path
       d="M4575 3215 c-69 -68 24 -189 121 -158 43 14 69 72 54 118 -15 47 -44 65 -103 65 -38 0 -53 -5 -72 -25z m148 -54 c22 -22 -6 -46 -56 -49 -71 -5 -107 23 -74 57 15 16 112 10 130 -8z"
       id="path330"
       style="fill:#3300ff" />
    <path
       d="M4607 3154 c-4 -4 -4 -11 -1 -15 7 -12 91 -12 98 0 9 14 -83 28 -97 15z"
       id="path332"
       style="fill:#cc3300" />
    <path
       d="M5104 4271 c-38 -23 -59 -76 -45 -112 40 -105 221 -80 221 31 0 81 -101 127 -176 81z m129 -23 c42 -51 -8 -138 -78 -138 -69 0 -101 95 -49 147 22 22 32 25 67 20 27 -4 49 -14 60 -29z"
       id="path334"
       style="fill:#3300ff" />
    <path
       d="M5117 4242 c-38 -42 -9 -112 46 -112 30 0 67 41 67 76 0 47 -80 72 -113 36z"
       id="path336"
       style="fill:#3300ff" />
    <path
       d="M1660 4141 c-201 -76 -525 -198 -720 -271 -195 -73 -357 -135 -359 -137 -5 -4 26 -102 38 -122 4 -6 145 42 391 135 212 80 401 151 420 158 100 36 666 250 669 253 8 6 -52 123 -63 123 -6 -1 -175 -63 -376 -139z"
       id="path338"
       style="fill:#ff6600" />
    <path
       d="M8400 4089 c-18 -34 -28 -65 -23 -69 4 -4 103 -19 218 -34 201 -26 314 -41 650 -86 83 -11 218 -29 300 -40 83 -11 155 -20 162 -20 9 0 53 113 53 136 0 2 -14 4 -30 4 -17 0 -96 9 -178 20 -81 11 -217 29 -302 41 -85 11 -218 29 -295 39 -77 10 -212 28 -300 40 -88 11 -174 23 -192 26 -31 5 -34 2 -63 -57z"
       id="path340"
       style="fill:#ff6600" />
    <path
       d="M2040 4113 c-36 -14 -92 -35 -125 -48 -156 -58 -1139 -428 -1205 -454 -58 -22 -74 -33 -72 -46 19 -102 429 -936 460 -935 4 0 27 30 52 67 214 317 567 795 829 1123 90 113 168 210 173 216 8 12 -29 105 -41 103 -4 0 -35 -12 -71 -26z"
       id="path342"
       style="fill:#990099" />
    <path
       d="M6082 4017 c-137 -17 -162 -23 -158 -36 3 -9 7 -38 10 -66 10 -97 50 -410 52 -414 13 -18 319 125 442 206 59 39 116 102 130 142 22 65 -40 149 -130 176 -66 19 -143 18 -346 -8z"
       id="path344"
       style="fill:#669999" />
    <path
       d="M2034 3858 c-307 -383 -558 -722 -863 -1164 l-63 -92 39 -61 c21 -33 41 -61 44 -61 3 0 37 46 75 102 227 337 558 786 821 1116 84 105 153 197 153 203 0 13 -62 119 -70 119 -4 0 -65 -73 -136 -162z"
       id="path346"
       style="fill:#ff6600" />
    <path
       d="M8304 3914 c-27 -48 -86 -144 -131 -213 l-82 -126 761 -3 c603 -2 763 0 770 10 4 7 24 58 44 113 20 55 39 105 41 111 2 7 -15 14 -44 18 -26 3 -165 22 -308 41 -315 42 -522 70 -715 96 -80 10 -165 22 -190 24 -25 3 -57 8 -71 11 -24 5 -30 -2 -75 -82z"
       id="path348"
       style="fill:#990099" />
    <path
       d="M4350 3949 c-229 -47 -368 -102 -414 -162 -26 -33 -26 -34 -10 -87 40 -135 206 -227 444 -246 l93 -7 -6 39 c-4 21 -7 137 -7 257 l0 217 -27 -1 c-16 -1 -48 -5 -73 -10z"
       id="path350"
       style="fill:#669999" />
    <path
       d="M2184 3792 c-389 -494 -669 -873 -931 -1263 l-51 -75 50 -74 c27 -41 50 -76 52 -77 1 -1 88 68 192 155 338 280 926 755 1094 883 l34 25 -97 125 c-53 68 -134 181 -179 251 -46 70 -87 127 -93 127 -5 0 -37 -35 -71 -77z"
       id="path352"
       style="fill:#990099" />
    <path
       d="M6542 3785 c-17 -25 -52 -60 -77 -77 -51 -36 -52 -39 -30 -152 29 -151 56 -442 65 -711 23 -636 23 -669 10 -790 -22 -205 -66 -326 -227 -615 -84 -151 -133 -245 -133 -255 0 -19 25 16 67 93 26 48 85 150 131 227 202 339 284 558 324 865 17 134 17 593 0 790 -21 233 -80 652 -95 667 -2 1 -18 -18 -35 -42z"
       id="path354"
       style="fill:#009999" />
    <path
       d="M3880 3638 c-21 -99 -40 -304 -40 -431 0 -148 11 -263 46 -472 56 -332 116 -510 247 -725 287 -470 344 -576 433 -795 30 -71 54 -119 54 -106 0 39 -85 355 -131 487 -23 65 -86 214 -140 329 -142 307 -189 431 -229 620 -33 154 -65 289 -99 415 -58 214 -72 377 -46 524 l14 80 -29 33 c-16 18 -37 47 -45 63 -9 17 -17 30 -19 30 -3 0 -9 -23 -16 -52z"
       id="path356"
       style="fill:#009999" />
    <path
       d="M6339 3629 l-55 -30 18 -102 c17 -101 24 -172 53 -502 29 -339 38 -541 32 -770 -8 -322 -31 -422 -182 -804 -97 -244 -101 -274 -17 -116 37 72 94 177 126 234 128 232 172 377 183 599 7 151 -11 709 -33 1002 -11 158 -56 506 -67 516 -1 2 -27 -11 -58 -27z"
       id="path358"
       style="fill:#009966" />
    <path
       d="M6185 3550 c-33 -16 -82 -37 -110 -46 -27 -9 -51 -18 -53 -19 -1 -1 4 -31 12 -66 16 -70 38 -268 61 -564 8 -104 23 -264 32 -355 12 -120 17 -260 17 -515 0 -351 -5 -432 -47 -717 -14 -94 -8 -115 13 -46 6 24 39 111 72 193 139 348 166 453 189 730 11 146 8 260 -17 600 -40 551 -73 836 -98 834 -6 0 -38 -14 -71 -29z"
       id="path360"
       style="fill:#009999" />
    <path
       d="M8027 3493 c-24 -32 -47 -64 -51 -70 -6 -10 154 -13 786 -13 l793 0 25 62 c14 35 27 66 28 70 2 5 -343 8 -767 8 l-770 0 -44 -57z"
       id="path362"
       style="fill:#ff6600" />
    <path
       d="M4006 3532 c-16 -27 -28 -146 -23 -240 6 -120 22 -204 77 -407 21 -77 52 -209 69 -293 48 -229 82 -324 249 -682 110 -238 215 -548 254 -753 21 -112 31 -78 25 86 -11 304 -70 509 -277 972 -91 204 -140 325 -180 450 -72 228 -127 516 -137 732 -6 114 -7 122 -29 132 -13 5 -25 7 -28 3z"
       id="path364"
       style="fill:#009966" />
    <path
       d="M4080 3439 c0 -91 26 -303 55 -444 46 -230 118 -451 222 -678 246 -543 304 -740 323 -1092 l7 -140 1 162 c4 327 -32 492 -204 955 -156 419 -247 755 -320 1180 -12 71 -20 97 -33 101 -9 3 -24 8 -33 12 -16 6 -18 0 -18 -56z"
       id="path366"
       style="fill:#009966" />
    <path
       d="M5979 3475 c-3 -2 -53 -12 -112 -21 -63 -10 -107 -21 -107 -28 0 -6 6 -33 13 -61 11 -42 18 -52 45 -60 77 -26 128 -94 138 -183 5 -37 1 -56 -18 -91 -31 -58 -82 -84 -168 -89 -55 -3 -70 0 -100 20 -43 29 -62 67 -68 134 -6 67 12 117 54 160 l35 34 -17 70 -17 70 -45 0 -45 0 6 -197 c10 -284 25 -345 207 -812 195 -504 260 -778 260 -1103 0 -79 4 -138 9 -138 5 0 12 8 15 18 8 28 34 218 48 347 17 154 17 729 1 890 -7 66 -22 235 -33 375 -24 295 -56 578 -71 633 -9 34 -19 44 -30 32z"
       id="path368"
       style="fill:#009999" />
    <path
       d="M4178 3428 c4 -38 54 -299 77 -408 33 -153 96 -383 151 -548 24 -71 163 -448 184 -499 43 -104 96 -348 111 -508 5 -60 12 -114 14 -120 11 -30 3 301 -10 397 -19 140 -36 203 -119 443 -146 424 -181 581 -218 995 -12 135 -22 246 -23 247 -1 3 -148 33 -161 33 -6 0 -9 -13 -6 -32z"
       id="path370"
       style="fill:#009999" />
    <path
       d="M4370 3403 c0 -62 21 -294 40 -446 35 -273 67 -393 230 -872 80 -234 93 -311 94 -565 1 -118 -3 -261 -7 -318 -11 -128 3 -134 32 -15 36 155 45 243 46 453 0 347 -42 651 -160 1150 -33 139 -51 197 -63 204 -36 20 -82 79 -93 119 -13 49 0 105 37 154 19 25 24 44 24 92 l0 61 -59 0 c-32 0 -73 3 -90 6 -29 6 -31 5 -31 -23z"
       id="path372"
       style="fill:#009966" />
    <path
       d="M4577 3413 c-9 -8 -9 -97 -1 -106 3 -3 12 -3 20 0 19 7 20 113 1 113 -8 0 -17 -3 -20 -7z"
       id="path374"
       style="fill:#009999" />
    <path
       d="M5212 3413 l-93 -4 6 -52 c7 -62 21 -287 36 -557 29 -537 -59 -1038 -269 -1532 -27 -65 -46 -115 -41 -112 35 21 254 356 294 449 108 251 124 373 125 937 0 198 4 299 11 303 19 12 67 -16 79 -46 10 -22 10 -59 0 -164 -7 -76 -9 -169 -5 -213 35 -397 164 -701 425 -1002 56 -65 103 -131 123 -172 21 -44 38 -68 49 -68 16 0 15 4 -3 57 -26 75 -63 141 -174 303 -154 224 -228 399 -280 652 -42 213 -49 315 -50 783 l0 440 -70 1 c-38 0 -112 -1 -163 -3z"
       id="path376"
       style="fill:#009999" />
    <path
       d="M5460 3033 c0 -496 17 -705 76 -937 53 -209 111 -332 260 -551 107 -158 169 -272 180 -332 4 -24 12 -33 25 -33 18 0 19 10 19 153 0 328 -69 602 -303 1197 -131 334 -156 441 -164 708 l-6 182 -43 0 -44 0 0 -387z"
       id="path378"
       style="fill:#009999" />
    <path
       d="M4716 3388 c-3 -13 -6 -36 -6 -53 0 -25 7 -33 40 -48 28 -13 45 -30 61 -63 55 -115 -20 -244 -142 -244 -27 0 -49 -2 -49 -4 0 -3 25 -105 55 -228 115 -472 170 -953 146 -1266 -10 -125 -29 -251 -56 -362 -5 -18 -4 -21 3 -10 16 25 81 301 107 453 46 270 57 448 57 902 1 371 -6 570 -28 863 l-7 82 -87 0 c-82 0 -88 -1 -94 -22z"
       id="path380"
       style="fill:#009966" />
    <path
       d="M4924 3337 c26 -284 35 -1132 16 -1407 -17 -227 -63 -502 -124 -735 -13 -49 -23 -91 -21 -93 5 -5 96 208 142 333 86 233 145 467 183 730 36 244 29 704 -16 1183 l-6 62 -90 0 -91 0 7 -73z"
       id="path382"
       style="fill:#009999" />
    <path
       d="M7867 3293 c-92 -106 -292 -305 -398 -396 l-67 -58 105 -202 c148 -287 623 -1244 623 -1257 0 -25 29 -1 170 140 470 471 868 1047 1162 1682 43 93 78 173 78 178 0 6 -297 10 -794 10 l-794 0 -85 -97z"
       id="path384"
       style="fill:#990099" />
    <path
       d="M2410 3174 c-314 -248 -1007 -813 -1074 -874 -18 -17 -17 -19 15 -66 19 -26 37 -52 40 -57 4 -6 60 35 125 90 272 228 746 612 1137 921 l79 61 -49 52 -49 51 -224 -178z"
       id="path386"
       style="fill:#ff6600" />
    <path
       d="M2550 3082 c-228 -181 -636 -510 -710 -572 -30 -26 -122 -102 -205 -170 -82 -68 -167 -138 -187 -156 l-37 -33 60 -80 c119 -157 277 -339 439 -505 151 -154 397 -382 405 -374 2 2 29 104 60 228 123 490 322 1253 416 1595 36 131 36 132 -7 176 -21 21 -41 39 -44 39 -3 -1 -88 -67 -190 -148z"
       id="path388"
       style="fill:#990099" />
    <path
       d="M2831 3094 c-5 -21 -55 -208 -110 -414 -110 -414 -138 -522 -278 -1070 -53 -206 -98 -391 -100 -410 -3 -32 2 -39 51 -78 30 -23 57 -42 59 -42 3 0 7 12 9 28 6 30 147 587 237 932 89 345 148 568 206 785 15 55 33 121 39 147 l13 47 -58 57 -57 57 -11 -39z"
       id="path390"
       style="fill:#ff6600" />
    <path
       d="M2970 2996 c0 -2 -42 -163 -94 -357 -52 -195 -115 -435 -141 -534 -25 -99 -64 -247 -85 -330 -21 -82 -69 -269 -105 -415 -36 -146 -68 -272 -71 -281 -3 -11 31 -41 117 -103 67 -48 125 -83 129 -79 4 4 83 109 175 233 301 403 562 730 823 1033 75 88 150 174 165 192 l28 34 -149 75 c-248 126 -468 272 -686 455 -89 75 -106 87 -106 77z"
       id="path392"
       style="fill:#990099" />
    <path
       d="M5292 2465 l-3 -355 45 0 c25 0 46 4 46 8 0 4 -10 50 -21 102 -19 83 -22 124 -21 335 0 155 -3 244 -10 252 -30 37 -33 12 -36 -342z"
       id="path394"
       style="fill:#cccccc" />
    <path
       d="M7324 2780 l-51 -39 72 -138 c39 -76 206 -409 371 -740 164 -332 301 -602 304 -602 3 0 27 19 54 43 l50 44 -34 73 c-129 284 -690 1391 -706 1396 -5 1 -32 -15 -60 -37z"
       id="path396"
       style="fill:#ff6600" />
    <path
       d="M7130 2645 c-69 -46 -188 -117 -265 -158 -77 -42 -146 -80 -153 -84 -10 -6 56 -101 243 -352 309 -414 717 -949 775 -1014 7 -8 62 31 187 135 l82 68 -52 113 c-58 125 -618 1243 -663 1323 l-29 51 -125 -82z"
       id="path398"
       style="fill:#990099" />
    <path
       d="M3834 2268 c-220 -248 -498 -591 -775 -953 -208 -273 -319 -424 -319 -434 0 -12 97 -74 109 -69 5 1 101 125 213 273 324 430 566 733 807 1010 53 61 102 117 108 126 10 13 9 28 -8 80 -12 35 -25 67 -29 72 -3 4 -51 -43 -106 -105z"
       id="path400"
       style="fill:#ff6600" />
    <path
       d="M6677 2263 c-10 -54 -17 -103 -17 -110 0 -22 928 -1213 946 -1213 3 0 26 15 52 32 25 18 50 36 55 39 6 4 -17 40 -50 80 -157 194 -804 1049 -928 1226 -17 24 -33 43 -36 43 -3 0 -13 -44 -22 -97z"
       id="path402"
       style="fill:#ff6600" />
    <path
       d="M3859 2053 c-183 -214 -298 -354 -470 -573 -221 -281 -519 -681 -514 -689 2 -5 39 -28 82 -53 532 -309 1086 -497 1678 -569 158 -20 705 -40 705 -26 0 2 -42 110 -94 239 -51 129 -144 367 -206 529 -62 161 -114 295 -115 297 -2 2 -23 -22 -47 -54 -63 -84 -80 -162 -85 -390 l-4 -180 -97 -19 c-259 -49 -433 -8 -499 119 -23 44 -23 170 0 213 32 61 133 91 195 59 33 -18 104 -91 164 -171 25 -33 58 -71 72 -84 24 -23 26 -23 26 -5 -1 10 -7 48 -15 84 -8 36 -14 80 -15 98 0 17 -4 32 -9 32 -18 0 -33 72 -29 134 4 50 0 73 -22 131 -85 215 -165 367 -377 712 -71 117 -141 237 -154 267 -13 31 -27 56 -30 56 -3 0 -66 -71 -140 -157z"
       id="path404"
       style="fill:#990099" />
    <path
       d="M6646 2109 c-64 -211 -121 -341 -239 -544 -192 -332 -230 -401 -248 -443 -11 -26 -27 -62 -36 -80 -11 -24 -14 -53 -11 -111 6 -98 24 -131 71 -131 65 0 93 38 134 178 32 110 63 171 108 210 45 40 83 41 155 4 81 -41 95 -66 95 -170 0 -75 -4 -95 -29 -145 -52 -107 -120 -155 -280 -196 -44 -12 -127 -24 -185 -27 -90 -5 -114 -3 -156 13 l-50 19 -17 124 c-9 69 -17 142 -17 163 -1 21 -10 50 -21 65 -15 21 -20 46 -23 112 -3 99 -13 116 -147 272 -152 175 -262 363 -330 566 l-35 102 -52 0 -53 0 0 -35 c0 -66 -29 -230 -56 -309 -27 -84 -84 -203 -140 -298 l-35 -56 25 -64 c13 -35 52 -137 86 -228 126 -336 357 -920 369 -933 9 -9 210 15 364 44 555 104 1063 309 1580 637 l118 75 -19 21 c-59 66 -568 716 -777 991 -154 205 -143 192 -149 174z"
       id="path406"
       style="fill:#990099" />
    <path
       d="M5013 1338 c-12 -18 -33 -49 -48 -69 l-27 -37 126 -328 c68 -181 163 -423 209 -539 l85 -210 53 -3 c29 -2 63 -1 76 3 23 5 23 6 7 43 -75 177 -264 658 -379 967 -37 99 -71 186 -75 193 -5 10 -13 5 -27 -20z"
       id="path408"
       style="fill:#ff6600" />
    <path
       d="M6438 1171 c-41 -36 -84 -119 -100 -194 -28 -134 -83 -201 -159 -195 -61 4 -78 32 -86 141 -3 47 -10 84 -14 81 -4 -2 -33 0 -65 4 l-56 9 6 -46 c3 -25 10 -92 16 -149 5 -57 12 -108 16 -113 3 -5 22 -16 42 -25 86 -37 366 10 487 80 112 66 174 264 112 357 -24 37 -76 67 -130 76 -28 4 -40 0 -69 -26z"
       id="path410"
       style="fill:#009999" />
    <path
       d="M5920 1105 c4 -26 12 -51 18 -57 17 -17 132 -30 149 -17 13 12 53 94 53 110 0 5 -51 9 -113 9 l-114 0 7 -45z"
       id="path412"
       style="fill:#009966" />
    <path
       d="M4622 1063 c-21 -4 -22 -8 -16 -61 4 -31 11 -63 17 -69 11 -15 114 -18 135 -4 8 5 22 38 32 75 l19 66 -82 -1 c-45 -1 -92 -4 -105 -6z"
       id="path414"
       style="fill:#009999" />
    <path
       d="M4280 940 c-41 -10 -66 -37 -80 -88 -14 -51 -13 -81 6 -135 18 -52 51 -90 109 -121 37 -19 54 -21 205 -19 156 1 253 15 251 36 -1 4 -1 70 -1 147 l0 140 -66 0 -66 0 6 -32 c3 -18 11 -69 17 -113 6 -44 13 -83 15 -87 3 -5 -6 -8 -19 -8 -29 0 -60 30 -137 130 -73 96 -107 129 -147 146 -36 15 -42 16 -93 4z"
       id="path416"
       style="fill:#009999" />
    <path
       d="M3375 7735 c-65 -33 -152 -163 -161 -241 -9 -72 10 -129 60 -178 104 -105 294 -103 361 4 51 81 69 216 39 288 -45 109 -202 176 -299 127z"
       id="path418"
       style="fill:#66ff00" />
    <path
       d="M6705 7467 c-28 -13 -71 -47 -97 -76 -64 -71 -92 -145 -93 -243 0 -69 3 -80 30 -119 89 -127 288 -191 402 -131 49 26 104 90 135 158 26 58 31 176 10 237 -54 152 -249 240 -387 174z"
       id="path420"
       style="fill:#ccff99" />
    <path
       d="M3193 6980 c-37 -15 -63 -68 -63 -128 0 -48 4 -58 34 -88 27 -27 42 -34 74 -34 53 0 87 14 117 46 32 35 35 112 5 154 -36 50 -111 72 -167 50z"
       id="path422"
       style="fill:#ccff99" />
  </g>
</svg>
