<?xml version="1.0" encoding="utf-8"?>
<!-- Generator: Adobe Illustrator 24.1.0, SVG Export Plug-In . SVG Version: 6.00 Build 0)  -->
<svg version="1.1" baseProfile="tiny" id="图层_1"
	 xmlns="http://www.w3.org/2000/svg" xmlns:xlink="http://www.w3.org/1999/xlink" x="0px" y="0px" viewBox="0 0 843.2 1080.2"
	 xml:space="preserve">
<g id="图层_1_1_">
	<g>
		<path d="M843.1,540.4c0,178.3,0,356.7,0.1,535c0,4-0.8,4.9-4.9,4.9c-277.8-0.1-555.7-0.1-833.5,0c-4,0-4.9-0.8-4.9-4.9
			C0.1,718.5,0.1,361.7,0,4.9C0,0.8,0.8,0,4.9,0c277.8,0.1,555.7,0.1,833.5,0c4,0,4.9,0.8,4.9,4.9
			C843.1,183.4,843.1,361.9,843.1,540.4z M353.5,721.3c-1-4.9-2.1-9.8-3.1-14.6c-0.9-4.3-2.6-8.4-2.4-13.1
			c0.2-5.4-1.4-10.8-2.2-16.3c-1.2-8-1-16.6-3.9-24c-6.5-16.4-13.8-32.4-19.6-49.1c-0.8-2.3-1.9-3.1-4.4-2.7
			c-12.2,1.8-24.3,0.5-36.1-2.6c-3.7-1-4.5-0.2-4.8,3.4c-1.8,20.3,0.6,40.2,5.8,59.8c2.9,10.9,6.9,21.5,12,31.7
			c0.4,0.7,0.9,1.9,1.4,1.9c1.4,0,0.8-1.5,1.2-2.3c0.2-0.6,0.4-1.3,0.4-1.9c0.9-17.9,2.6-35.8-4-53.2c-0.7-1.8-2.5-4.7,0.5-5.5
			c2.6-0.8,2.5,2.5,3,4.2c4.8,15.8,12.1,30.7,21.5,44.3c1.9,2.7,6.6,5,3,9.6c-0.2,0.2,0.7,1.4,1.2,2c8.1,9.9,16.4,19.7,26,28.3
			C350.5,721.2,351.8,725.1,353.5,721.3z M581.1,330.8c3.6-8,7.3-16,10.7-24c1.9-4.6,6.5-7.7,6.9-13c0.1-1.2-0.1-3.1,1.8-3
			c2.2,0,2.1,1.9,1.8,3.4c-0.7,3.7,1.4,4.6,4.4,4.9c2.5,0.4,5,0.4,7.4,0.1c5.3-0.8,5.2-0.3,9.8,0.7c3,0.6,5.4-2.1,7.9-3.7
			c2-1.2,1.1-2.9,0.6-4.4c-1.9-5.2-4-10.2-5.8-15.4c-2.8-7.8-6.9-13.8-14.7-18.3c-12.3-7-22.3-17.4-33.1-26.5
			c-7.5-6.3-14.9-12.8-22.5-19.1c-1.1-0.9-1.9-2.4-3.7-2.1c0.4,1.4,0.7,2.8,1.1,4.2c0,0.2,0.1,0.3,0.2,0.5
			c12.2,35.6,21.8,71.6,20.1,109.7c-1,22.4-0.8,45.3-9.4,66.4c-5.5,13.7-9,27.7-12.8,41.7c-2.7,9.9-6.9,19.1-14.1,26.7
			c-1.8,1.8-2.9,3-3.9-0.6c-5.1-18.4-13.1-35.6-22.1-52.3c-20.6-38.1-44.1-74.5-66-111.9c-0.3-0.5-0.6-1.2-1.6-0.6
			c0.1,0.9,0.3,1.9,0.4,2.9c3.8,24.3,7.5,48.7,9.7,73.2c0.6,6.3,0.4,6.3,6.7,5.6c1-0.1,2-0.1,3-0.1c0.9,0,2.5-0.2,2.6,0.8
			c0.2,1.8-1.6,1.2-2.6,1.3c-8.7,1.1-9.2,1.7-9.5,9.4c-0.1,2.1,0.4,3.2,2.8,2.7c9.8-1.8,20-1.3,29.1-6.4c1.2-0.7,2.7-1.5,3.5,0.1
			c0.9,1.7-0.6,2.7-1.9,3.5c-3.7,2-7.6,3.4-11.7,4.1c-6.6,1.3-13.5,1.1-19.9,3.4c1.8,0.1,3.6,0,5.5-0.1c8.1-0.5,16.3-1.1,24.4-1.5
			c1.3-0.1,3-0.3,3.3,1.4c0.3,2-1.4,2.4-3,2.5c-2.2,0.2-4.3,0.2-6.5,0.3c-0.9,0.1-2.3-0.5-2.6,0.7c-0.3,1.5,1.2,1.6,2.3,2.1
			c4,1.6,8,3.2,12,4.9c1.2,0.5,2.8,1,2.1,2.8c-0.8,1.9-2.3,1.3-3.8,0.7c-4.5-1.8-8.9-3.7-13.5-5.2c-7.3-2.5-14.7-4-22.3-0.7
			c-0.9,0.4-2.1,0.6-2,1.8c0.1,0.4,1.3,0.7,2,1c9.4,3,15.3,9.5,19.5,18.1c3.3,6.8,3.7,14.1,4.1,21.4c0.5,9.8-0.8,19.7-3.8,29
			c-4.6,14.2-30,25.3-43.7,12.1c-4.5-4.4-9.8-7.9-13.7-13c0.4,4.9,3.3,7.9,7,10.4c2.1,1.4,4.3,2.7,5.6,4.9c0.5,0.9,0.9,1.9-0.1,2.7
			c-0.7,0.7-1.9,0.6-2.5-0.1c0-0.1-0.1-0.1-0.1-0.2c-2.1-2.5-5.1-3.7-7.4-5.9c-2.5-2.4-3.2-1-3.7,1.3c-0.3,1.4,0.3,3.4-2.1,3.1
			c-1.7-0.2-1.9-1.8-1.9-3.1c-0.1-13.8-4.4-27.6-0.9-41.6c-4,7.6-5.7,15.8-6.8,24.1c-0.3,2,1.2,5.9-1.3,5.8c-2.1-0.1-1-4.3-0.8-6.6
			c1.1-12.8,6.3-24.3,11.7-35.8c6.5-13.8,18-23.8,26.1-36.2c0.5-1.1,1.7-1.6,2.9-1.2c3.4,0.7,6.6-0.8,7.7-3.7
			c1.1-2.7,1.5-7.4-0.7-8.9c-2.6-1.8-5.7,1.4-8.3,3.1c-1.5,1.1-2.9,2.2-4.3,3.5c-10,9.1-18.2,20-24.2,32.1c-0.6,1.1-0.9,3.2-2.4,2.6
			c-2.2-1-0.2-2.7,0.4-3.7c6.3-12.7,15-24.1,25.5-33.6c3.1-2.8,6.5-5.4,10.6-6.4c3-0.7,3.5-1.9,3.3-4.8c-1.3-15.8-3.6-31.4-7-46.9
			c-3.9-17-8.6-33.8-15.9-49.8c-0.5-1.1-0.6-2.8-2.3-2.9c-0.4,1-0.6,2.1-0.6,3.2c-2.7,23.3-6.6,46.5-11.6,69.4
			c-7.2,32.7-17.6,64.2-35.1,92.9c-1.1,1.7-0.6,3.1-0.3,4.7c7.1,35.4,15.8,70.4,25.6,105.2c3.7,13.2,4.4,13.6,18.1,13.3
			c0.7,0,1.3,0,2,0c8-1.2,15.6,0.2,23,3.1c23.4,9.2,48,12.4,72.7,14c30.4,2,60.4-3.3,90.1-9.8c8.6-1.9,14.8-6.7,18.5-14.9
			c3.3-7.4,6.9-14.5,10.4-21.8c6.7-14.1,13.6-28.2,19.2-42.8c7.9-20.5,10.7-41.5,6.3-63.2c-2.8-13.7-7.9-26.8-12.6-39.9
			c-6.2-17.3-11.6-35-9-53.6c1.2-8.5-0.6-16.1-2.7-24c-0.5-1.9-7.7-5.3-9.4-4.6c-1,0.5-0.3,1-0.1,1.6c2.2,6.5,1.9,13.1,0.7,19.7
			c-0.3,1.8,0.7,5.2-1.2,5.1c-2.3-0.1-1.1-3.9-2.4-5.8c-0.3-0.5,0.3-1.6,0.4-2.4c0.9-7.2-4.1-13.7-11.3-14.7
			c-0.9-0.1-1.9-0.1-2.8-0.1c-1,0.2-1.9,0.5-2.8,0.9c0.5,0.6,1,1.2,1.5,1.8c5.6,5.4,8.4,12.2,10.2,19.6c1.5,6.1,0.2,12.3,1.1,18.4
			c1.5,10.8-2.5,20.3-6.3,29.8c-2.3,6-8,10-14.4,10c-6.9,0.2-11.4-4.1-14.4-9.9c-1.3-2.9-2.5-5.8-3.4-8.8
			c-4.5-13.3-5.9-26.9-2.8-40.7L581.1,330.8z M697.7,423c0,3.9-0.1,7.8,0,11.8c0.6,26.7,1.4,53.3-4.1,79.6
			c-8.2,39.6-16.7,79.1-25,118.7c-2.5,11.9-5.3,23.7-11.6,34.3c-0.6,1-1.1,3-2.6,2.4c-1.7-0.7-0.4-2.4-0.2-3.5
			c2.9-12.9,3.9-26,4.5-39.1c0.8-20.7-1.2-41.3-4-61.7c-1.9-14.1-4.4-28.2-6.6-42.2c-1,15.2-2,30.3-1.3,45.4c0.3,10.3,2,20.5,5,30.4
			c0.4,1.1,0.8,2.1,0.3,3.4c-2.5,6.2-1.3,11.2,3.5,15c0.7,0.6,2.2,0.8,1.3,2.1c-0.7,1-1.8,0.3-2.7-0.2c-3.4-1.9-5-5.2-6.3-8.7
			c-6.9-19.2-10.8-39.1-12.8-59.4c-0.1-1.2,0.7-3.2-0.8-3.4c-1.2-0.2-1.5,1.9-2,3.1c-2.1,4.2-4,8.4-6.8,12.2
			c-3,4.1-6.7,7.7-11.7,8.9c-17.2,4.1-34.5,7.8-52.1,8.9c-10.1,0.6-15.5,5.2-18.5,14.1c-1.2,3.1-2.1,6.3-2.9,9.5
			c-3.8,18.9-6.2,38.1-8.8,57.2c-2.4,17.4,0.6,34.1,8.5,49.9c2.3,4.7,4.8,5.9,9.9,4.9c17.8-3.2,35.4-2.7,52.8,3.1
			c7,2.1,12.5,7.3,15.2,14.1c4,9.5,6.5,19.6,7.5,29.9c0.1,1.5-0.3,3.6,1.4,3.9c8.1,1.8,9.9,8.8,12.8,14.8
			c6.8,14.6,13.2,29.4,22.2,42.9c2.8,4.3,5.2,9,9.4,12.2c11.1,8.4,16.5,19.8,18.3,33.2c0.2,1.8,0.4,3.7,2.4,4.6
			c6.1,2.8,7.9,8.3,8.6,14.3c1.8,15.4,0.7,31,1,46.4c0,2.8,0.6,5.6,1.7,8.2c10.8,24.9,15.3,50.9,12.5,78
			c-1.7,16.7-4.8,33.3-4.3,50.2c0.1,4.5,1.4,5.4,5.6,5.4c39.2-0.2,78.3-0.1,117.5-0.1c7.5,0,6.6,0.9,6.6-6.7
			c0-354.2,0-708.3,0-1062.5c0-7.2,0.9-6.4-6.3-6.4c-117.7,0-235.3,0-353,0c-0.7,0-1.3,0.1-2,0c-2.8-0.3-4.1,0.3-2.7,3.5
			c1.1,2.9,2,6,2.5,9.1c3.3,17.7,6.6,35.3,9.6,53c0.5,3.1,1.9,4.3,4.6,4.8c1.5,0.3,2.9,0.5,4.4,0.9c16,3.9,30.2,12.1,44.8,19.3
			c7.9,3.9,15.4,8.8,23.4,12.2c8.2,3.5,16.1,7.3,22.8,13.2c30,26.2,58.5,53.9,84.1,84.6c37.3,44.7,53.3,97.2,58,154
			c1.8,21.6-3.8,42.3-9.8,62.8c-0.6,2.1-0.6,6.2-2.6,5.6c-2.4-0.7-0.1-4.1,0.4-6.1c5.2-19.3,10.3-38.6,9.8-58.9
			c-0.3-13.1-2.9-25.8-5.1-38.6c-7.3-43.8-24.5-83-52.8-117.5c-20.3-24.7-43.1-46.8-66.2-68.7c-7.2-6.8-14.3-13.6-22.8-18.8
			c6.4,5.8,11.8,12.5,17.9,18.4c10.7,10.4,20.6,21.3,28.8,33.8c22,33.2,36.4,69.8,49.4,107.1c11.4,32.7,18.7,66.5,26.2,100.3
			c6.7,29.6,10.1,59.8,10.1,90.1c-0.2,25.4-1.7,50.9-4.6,76.1c-1.6,13.9-3.3,27.8-5,41.6c-0.2,1.2,0.3,3.7-1.9,3.3
			c-1.6-0.3-0.5-2.3-0.4-3.5c1.3-10.7,2.9-21.5,3.9-32.2c1.4-14.7,4-29.4,3.1-44.3c-1.1-17.1-2.3-34.2-4.9-51.2
			C703,445.3,701.2,434,697.7,423z M136.5,537.4c-1.4,8.9-1.2,17.9-1.3,26.8c-0.2,13.3-1.5,26.6,0.1,39.9c1.1,9.3,2,18.5,3,27.8
			c2,17.2,3.1,34.5,7,51.4c5.2,22.5,14.5,42.5,35.1,55.4c1.2,0.7,2.5,1.6,1.6,3.1c-1.1,1.8-2.7,0.7-3.9,0
			c-8.2-4.9-15.2-11.5-20.5-19.4c-12.4-17.8-17.1-38.1-19.5-59.1c-3.3-28.9-6.3-57.9-9.3-86.9c-3.1-30-5.2-60-4.5-90.2
			c0.2-7.3,1.8-14.7,0.4-21.9c-3.1-16.7-5-33.6-5.9-50.5c-1.3-25.4-1.2-50.9,0.5-76.3c1-16.7,4.5-33.3,6.7-50
			c5-38.7,18.4-74.1,41.4-105.8c2.3-3,3.6-6.7,3.7-10.5c0.3-7,1.7-13.9,4.3-20.4c1-2.6,1.9-3.7,5.4-3.1c6.9,1.2,13.1,0.6,18.7-5.6
			c14-15.5,30.1-28.7,47-41c9.2-6.7,18.8-12.7,30.7-13.3c1.4-0.1,2.8-1,4.1-1.8c21.8-12.3,45.4-21.1,69.9-26
			c2.6-0.4,4.9-2.1,5.9-4.6c6.8-13.9,15.2-27,25-39.1c2.8-3.5,5.8-6.9,8.7-10.3c0.8-1,2.7-1.7,1.9-3.1c-0.4-0.7-2.4-0.4-3.7-0.5
			c-0.3,0-0.7,0-1,0c-126.5,0-253,0-379.5-0.1c-4.7,0-6.1,1-6.1,5.9c0.1,354.7,0.1,709.3,0,1064c0,5,1.5,5.9,6.1,5.9
			c66.7-0.2,133.3-0.2,200-0.1c1.2,0,2.3,0,3.5,0c2.6,0,3.9-1.3,4.1-3.9c1.2-11.4,2.8-22.8,3.9-34.2c2.6-29,3.6-58.2,5-87.3
			c1.4-30.8,3.4-61.5,8.3-92c0.9-4.2-0.3-8.6-3.2-11.8c-6.5-8-12.1-16.8-16.6-26.1c-11.1-22.4-13.6-45.6-6.9-69.9
			c4.3-15.9,9.5-31.5,15.8-46.8c1.7-4,0.8-6.1-2.2-8.7c-13.6-12.1-24.5-26.3-31.7-43.1c-0.4-0.9-0.4-2.3-2.2-2.6
			c3.2,10.7,4.1,21.7,8.8,31.8c3.1,6.7,7.3,12.7,10.8,19.1c0.9,1.6,3.2,3.7,0.8,5.1c-2.5,1.5-2.9-1.8-4.1-3.1
			c-0.5-0.7-0.9-1.4-1.3-2.1C170,651.1,146,597.1,136.5,537.4L136.5,537.4z M243.4,871.1c1.2,14.1,4,27.9,7,41.7
			c12.4,56.2,36,108.5,57.2,161.6c0.9,2.3,2.4,2.8,4.6,2.8c16.5-0.1,32.9,0.1,49.4,0.5c45,0.9,89.9-0.5,134.9-1.4
			c54-1,108-0.1,161.9,0.8c15.4,0.3,30.7,2.3,46.1-0.1c3.6-0.6,3.1-2.2,3-4.2c-0.4-11.1,0.2-22.3,2-33.3c3.1-19.7,4.1-39.4,0.4-59.1
			c-1.7-9.4-4-18.6-8.2-27.3c-0.6,4.6-1,9.2-1.2,13.9c-0.6,21.8-2.5,43.5-4.5,65.3c-0.5,5.5-1.2,10.9-1.9,16.4
			c-0.2,1.6-0.1,3.9-2.3,3.7c-2.9-0.3-1.6-2.7-1.4-4.3c0.2-2.5,0.4-5,0.7-7.5c4.7-40.1,6.5-80.3,6.5-120.6c0-1.3,0.2-2.9-0.4-3.9
			c-6.6-10.9-9-23.1-10.3-35.5c-1.7-16-6.5-30-19.4-41.2c-7.6-6.6-14.4-15-18.2-25c-0.9-2.2-2.3-4-4.2-5.4c-1.1-0.8-2.4-1.9-1.3-3.3
			c1.7-2.1,0.3-3.8-0.5-5.5c-3.1-6.8-6.2-13.6-9.4-20.4c-1-2.1-2.3-4.1-3.8-5.8c-1.4-1.6-3.3-2.5-4.6,0.4c-0.7,1.5-1.8,2.7-3.5,1.7
			c-1.6-1-2.7-2.8-1.5-4.7c1.1-1.5,1.6-3.3,1.4-5.1c-1.1-10.6-3.7-21-7.8-30.9c-2.2-5.7-6.9-10-12.7-11.8
			c-9.5-3.1-19.5-4.7-29.5-4.8c-16.8-0.1-33.1,3.2-48.9,8.7c-21.7,7.5-43.3,15.4-60.9,31.2c-4.6,4.1-10.3,6.7-16.1,8.9
			c-5.3,2-10.7,3.8-15.9,6c-6,2.5-12.4,4.3-17.3,8.6c-6.8,5.8-14.9,9.8-22.5,13.7c-17.4,9-36,15.5-54.4,22.3
			c-11.2,4.1-21.5,3.4-31.8-1.8c-1.1-0.6-3.6-0.7-2.6-2.7c0.7-1.4,2.4,0.1,3.5,0.6c7.6,3.3,15.3,6.4,23.6,3.6
			c19.3-6.4,38.3-13.3,56.6-22.4c1-0.5,2.7-1,2.4-2.2c-0.4-1.5-1.9-0.4-2.9-0.3c-2.5,0.1-5,0.5-7.5,0.4c-12.8-0.2-25.5-2.3-38.2-3.9
			c-12.7-1.6-23.7-8.1-36-10.9c-7.6-1.8-12.3-8.3-15.7-15.2c-7.3-14.4-12.8-29.7-16.4-45.4c-0.4-1.8-2-4.7,0.1-5.1
			c2.1-0.4,1.8,3.1,2.2,4.8c3.8,16,9.6,31.6,17.2,46.2c2.8,5.7,7.6,10.3,13.5,12.8c0.9,0.4,2,1,2.7,0c0.2-0.3-0.4-1.5-0.8-2.1
			c-3.2-5-3.5-10.6-3-16.3c1-10.9,4-21.2,7-31.6c3.1-11,6.4-22.1,6.1-33.8c-0.1-4,0.4-8.3-1.9-12.1c-3.1-5.1-6.1-10.3-9.2-15.4
			c-0.5-0.8-0.5-2.3-1.8-1.9c-0.4,0.1-0.5,1.7-0.4,2.7c0.2,11.5,0,22.9-1.9,34.4c-0.9,5.6-4.5,10.6-3.4,16.8
			c0.4,2.1-3.2,2.2-4.9,3.3c-1,0.6-2.9-0.1-2.8-1.3c0.3-3.8-2.8-4.1-4.9-5.3c-5.3-3.2-10.3-6.8-14.9-10.9
			c-6.8-5.9-12.2-13-17.8-20.1c2.8,11.3,5.9,22.5,8.9,33.7c1.5,5.7,3.7,10.5,9.6,13c1.6,0.7,2.8,2.2,1.3,4c-1.2,1.6-2.7,1.5-4.3,0.1
			c-11.6-10.5-25.7-17.7-37.5-27.9c-1.7-1.5-2.8-1.3-3.6,0.9c-1.6,4.4-3.4,8.7-5,13.1c-0.3,0.7-1.5,2,0.1,2.3c4.6,1,2.1,3.6,1.2,5.6
			c-7.8,17.9-9.3,36.6-6.7,55.8c3.3,24.9,13.1,47.7,23.7,70.2c1.2,2.2,2.7,4.2,4.5,6c13.7,15.3,29.2,28.7,43.5,43.4
			c2.6,2.6,5.2,5.2,7.6,8c1,1.1,2.9,2.5,1,4.2c-1.6,1.3-2.7-0.3-3.7-1.4c-0.6-0.6-1.1-1.2-1.7-1.8c-13.4-13.2-26.8-26.4-40.2-39.6
			c-0.7-0.6-1.5-1.2-2.3-1.8c-0.9,1.2,0.2,2.1,0.7,3c9,19.1,18.1,38.2,27,57.4c2.5,5.9,7.9,10.2,14.2,11.2
			c17.1,3.5,34.3,6.6,51.2,11.1c13.4,3.6,24.2,0.8,35.4-7.3c25.2-18.5,51-36.3,76.2-55c1.3-1,3-3.2,4.6-0.9c1.3,1.8-0.9,2.9-2.2,3.8
			c-28,20.9-56.4,41.4-85.4,61c-5.5,3.9-12.4,5.4-19,3.9c-19.5-4.1-39-8.6-58.6-12.2c-10.6-1.9-17-7.2-21.4-17
			C262.1,909.7,252.6,890.4,243.4,871.1z M448.9,344c0-0.8,0-1.6,0-2.3c-2.8-22.1-6.6-44-10.3-65.9c-3.5-20.7-10.6-40.5-15.2-60.9
			c-5.2-23-15.3-44.6-29.6-63.4c-0.7-0.9-2.4-2.2-1-3.2c1.5-1.1,2.2,1,2.9,1.9c3.3,4.6,6.6,9.2,9.5,14.1
			c12.7,21.2,19.7,44.6,26.1,68.3c0.5,1.9,0.7,4.6,2,5.5c7.9,5.4,11.2,13.8,15.1,21.8c15.4,31.9,30.7,63.9,46,95.9
			c1.6,3.3,3.2,6.6,4.8,9.9c0.4,0.8,1.2,2.1,0.1,2.7c-1.6,0.8-1.7-0.9-2.3-1.8c-0.3-0.4-0.4-0.9-0.7-1.3
			c-16.7-34.8-33.3-69.6-50-104.5c-2.5-5.6-5.6-11-9.2-16c-0.6-0.8-1.2-2.1-2.2-1.5c-0.9,0.5-0.3,1.8-0.1,2.7
			c1.8,8.3,3.4,16.6,5.3,24.8c1.3,5.8,1.4,11.9,4.7,17.2c10.8,17.8,21.6,35.6,32.2,53.5c21.6,36.5,45.1,72,58.4,112.8
			c1.1,3.2,2.3,2,3.6,0.3c5.2-6.7,9-14.5,11-22.8c2.6-10,4.6-20,7-30.1c4.7-19.8,9.2-39.5,9.9-60c1.5-39.2-5.5-78.3-20.5-114.6
			c-0.5-1.3-2.6-3.1-0.3-4.2c1.5-0.7,1.8,1.6,2.2,2.7c18.6,44.5,25.1,93.1,18.7,140.9c-1,7.7-3.7,15.1-4.6,23.5
			c0.5-0.5,0.9-1.1,1.3-1.7c0.5-1.6,1-3.2,1.4-4.8c6.1-26.8,8.2-54.3,6.3-81.7c-2.1-32.2-10.5-62.9-21.9-92.8
			c-1.8-4.8-7.3-8.2-6-14.3c-11.1-25.2-25.1-48.9-41.9-70.7c-2.3-3.3-5.5-5.9-9.2-7.5c-1.1-0.4-3.3-0.2-2.7-2
			c0.5-1.3,2.4-0.6,3.6-0.1c5.7,2.2,9.5,6.7,12.8,11.5c3.6,5.3,8.2,9.7,13.6,13.2c38.4,25.2,68.7,58.3,91.9,97.9
			c23.7,40.4,37.6,84,40.8,130.8c0.9,13.4,2.1,26.4,7,39.3c8.9,23.4,11.7,47.6,3.8,71.9c-3.4,10.4-3.5,20.1-2,30.9
			c5.4,38.1,6.5,76.3,0.3,114.5c-1.8,10.9-1.4,22.2-2.7,33.3c2.9-4.5,4.2-9.7,5.3-14.8c8.1-37,15.7-74.2,24.2-111.2
			c6.9-30.3,8.6-61,7.5-91.8c-0.6-16.4,1.4-33.1-5.3-48.8c-0.4-0.9-1.2-2.7,0.3-3c2-0.5,1.5,1.7,2,2.7c1,1.7,0.4,4.3,2.2,5.4
			c2.4,1.3,2.7,1.1,2.5,2.9c-0.5,6.4,1,12.5,2.4,18.7c1.7,7.3,3.2,14.6,4.6,22c3.4,17.5,5.3,35.2,7,52.9c0.1,0.7,0.3,1.4,0.4,2
			c0-0.5,0.1-1,0.1-1.5c0.5-22.7,0.8-45.3-1.2-67.9c-1.8-20.4-7.1-40.1-11-60c-9-46.4-22.9-91.8-41.5-135.3
			c-8.3-19.5-18-38.3-29-56.3c-11.2-18.2-27.2-32-41.3-47.5c-9.2-10.2-21.3-17-33.1-23.8c-14.4-8.4-29.3-15.8-44.7-22.1
			c-5.4-2.2-10.8-6.1-17.3-3.1c-0.5,0.2-1.6-0.3-2.3-0.8c-3.3-2.4-6.9-1.9-10.6-1.8c-1.7,0-4.3,2-4.8-0.3c-0.4-2.1,2.8-1.3,4.2-2.2
			c0.2-0.1,0.2-0.5,0.3-0.8c-0.6-0.3-1.2-0.6-1.8-0.8c-12.4-5-24.9-3-37.4-0.5c-7.4,1.4-14.8,3.6-22.2,3.7
			c-5.8,0.1-11.2,0.1-16.5,2.6c-44.8,21.3-78.9,53.8-103,97.1c-0.5,0.8-1.3,2.2-1,2.6c2.1,3.1-0.4,5-1.8,7.1
			c-17.5,27.2-27.1,58.7-27.7,91c-0.5,23.3,1.1,46.6,1.8,69.9c0.2,8-0.3,16.1,0.9,23.9c5.6,39.2,12.9,78.1,21.3,116.8
			c12.1,56.1,28.5,110.8,51.8,163.3c4.4,9.9,9.4,19.5,14.7,28.9c0.3,0.7,0.9,1.4,1.6,1.8c0.7,0.3,0.7-0.5,0.7-0.9
			c-1-4.8,0.1-10.4-2.9-14.4c-7.3-9.6-13-20.1-18.1-30.9c-16.8-35.8-24-74.2-31-112.7c-1.1-6,1.4-11.9-0.7-18.1
			c-2.2-6.7-2.4-14.1-2.4-21.3c0-0.9-0.4-2.3,0.9-2.4s1.2,1.3,1.3,2.2c0.1,0.7,0.2,1.3,0.2,2c0.2,11.5,2.2,22.9,5.7,33.8
			c12.6,39.3,27.9,77.7,45.6,115c5.2,11.1,8.9,23.6,19.7,31.3c0.6,0.5,1.4,1.8,0.5,2c-5.1,1.2-1,3.6-0.3,4.7
			c5.7,10,12.3,19.4,19.7,28.3c10.5,12.5,22.6,23.1,37.1,30.7c0.8,0.4,1.9,1.6,2.6,0.7c0.7-0.9-0.5-1.7-1-2.5
			c-2.9-4.3-6.1-8.3-8.8-12.7c-17-27.9-25.1-58.2-23.4-90.9c0.3-6,0.3-11.8-2-17.6c-6.9-17.9-12.7-36.1-17.4-54.7
			c-4.9-18.3-8.8-36.9-11.6-55.7c-0.2-1.6-1-3.8,1.3-4.2c2.4-0.4,2.1,2,2.4,3.5c0.7,3.6,1.3,7.2,1.9,10.8
			c7.5,41.8,19.6,82.6,36,121.7c2.8,6.9,6.6,13.5,11.2,19.4c0.4,0.5,0.8,1.6,1.8,1c0.2-0.1-0.1-1.2-0.3-1.8
			c-0.2-0.8-0.6-1.6-0.8-2.3c-10-28.4-19.3-57-27.8-85.9c-10.8-36.7-19.6-73.9-27.8-111.3c-10.9-49.6-20.3-99.4-23-150.3
			c-1.9-35.9-0.1-71.6,7.5-106.8c2.2-10.2,5-20.4,8.3-30.3c0.4-1.3,0.9-3.3,2.9-2.7c2.1,0.6,1.2,2.5,0.8,3.8c-0.9,3-1.9,6-2.8,9
			c-10.8,36.9-14.5,74.7-13.4,113c0.7,23,2.7,45.9,6,68.6c3.9,27.7,8.9,55.1,15.4,82.2c0.2,0.9,0.5,2.5,1.1,2.6
			c1.4,0.4,1.7-1.3,2.2-2.2c7.8-14,14.3-28.6,19.4-43.8c10.4-30.2,16.1-61.4,20.9-92.8c3.5-22.6,3.9-44.9-3.5-67
			c-4.1-12.2-8.9-24-14-35.8c-0.6-1.5-1.7-3.4,0.5-4.3c2-0.8,2.4,1.3,2.9,2.6c2,4.4,3.9,8.8,5.7,13.3c8.3,19.9,15.1,40.2,14.7,62.2
			c0,1.5,0.5,3,1.4,4.1c3.1,4.2,5,9,6.8,13.8C439.7,304.1,444.8,323.9,448.9,344L448.9,344z M184.4,663.9
			c-2.1-15.5-6.4-30.5-10.6-45.5c-5.2-18.2-12.5-35.8-18-53.9c-0.3-0.9-0.7-1.7-1.2-2.5c-4.9,2-3.3-2.5-3.6-4
			c-10.7-50.2-15.1-101.5-13.4-152.8c0.7-23.1,2.7-46.2,6.1-69.1c0.3-2-0.4-5.8,1.7-5.4c2.3,0.4,0.7,4,0.5,6
			c-9.9,70.2-8,141.6,5.4,211.2c0.5,2.6-0.6,6.8,4.6,6.3c0.9-0.1,1.2,1.4,1.5,2.4c7,20.2,12.5,40.8,21.2,60.5
			c3.8,8.7,6.6,18.3,10,27.5c5.1,14.1,12.8,27.2,22.7,38.5c12.5,14,27.4,25.2,42.8,35.6c0.7,0.5,1.7,1.7,2.5,0.7
			c0.8-0.9,0.1-2.2-0.2-3.3c-4-14.6-8.3-29.1-12.1-43.8c-3.8-14.6-9.4-28.9-9.9-44.2c-0.1-1.8-0.6-4.3,1.7-4.5
			c2.8-0.2,1.9,2.6,2,4.2c0.3,6.4,1.4,12.7,3.2,18.8c1.8-1.5,1.4-5.1,4.3-3.8c2.4,1,0.5,3.2,0.1,4.8c-1.9,6.6-0.8,13,2,19
			c8.7,19.2,21.8,34.5,40.5,44.8c1.2,0.7,2.7,2.4,4,1.1c1.5-1.4,2.1-3.5,1.6-5.5c-0.4-1.1-0.9-2.1-1.5-3.1
			c-5.6-11.2-11.3-22.3-16.1-33.8c-9.9-24-16.3-48.6-13-74.8c0.4-2.8-1.2-3.4-3-4.3c-8.4-4.4-16.2-10-23.1-16.6
			c-8.1-7.8-14.2-16.7-15.9-28.2c-1.7-10.9-2.7-21.8-3.1-32.8c-0.3-16.4,2.2-32.3,12.2-46c1.5-2,0.8-3-0.4-4.6
			c-8.8-11.4-9.6-23.7-3.3-36.5c1-2,1.6-3.8,0.7-6.1c-11.8-29.8-15.1-61.2-17.6-92.8c-0.3-4.4-1.3-8.4-4.1-12
			c-4.8-6.6-8.8-13.8-11.9-21.3c-14.5-33.8-18.9-69.8-23.1-105.9c-0.1-1,0.8-2.6-0.8-2.9c-0.5-0.1-1.4,1.3-1.9,2.1
			c-8.6,12.3-15.9,25.4-21.9,39.2c-16.5,38.4-20.8,79.5-23.4,120.4c-2.8,44.3-2.4,88.7,9.1,132.2c0.4,1.6,0.9,4-1.6,3.8
			c-3.3-0.3-2.1,1.9-2.1,3.1c0,12.8-0.2,25.7,0.2,38.5c0.3,10.4,1.3,20.7,2,31.1c0.7-0.3,1.1-1,1.2-1.7c-0.3-19.7,3.2-39.2,2.1-58.9
			c-0.1-1.7-1.1-4.9,1.8-4.8c2.8,0.1,1.7,3.2,1.7,4.9c-0.3,8.5,0.5,17,1.3,25.4c2.8,29.3,9.7,57.7,19.6,85.4
			C165.4,625.7,174.2,645.2,184.4,663.9z M375.4,789.3c8.4-0.5,17,0.1,24.6-4.9c11.4-7.5,23.8-13.5,36.8-17.7
			c10.7-3.5,20.6-8.5,29-16.2c5.3-4.6,11.2-8.4,17.6-11.3c16.9-8,34.1-15.2,52.3-19.6c4.3-1,4.8-2.1,2.7-6
			c-7.8-14.3-11.1-30.5-9.7-46.7c1.5-16.8,4.7-33.3,6.9-49.9c1.4-10.1,3.2-20.1,8.4-29.1c0.8-1.4,2.9-2.6,1.7-4.3
			c-0.5-0.8-2.8-0.4-4.3-0.4c-33.6,0.7-66.4-3.3-98.1-14.9c-6.4-2.4-13.3-3.3-20.1-2.5c-3.8,0.6-7.7,0.4-11.4-0.4
			c-4.2-1.1-4.7,0.2-3.5,4.1c8.3,27.4,17.4,54.5,27.2,81.4c0.7,1.9,1.4,3.7,3.3,4.8c1.3,0.8,3.6,1.6,1.9,3.7
			c-1.4,1.8-3.1,0.2-4.4-0.6c-7.2-4.5-12.5-10.9-16.9-18.1c-3.6-6.2-6.7-12.6-9.4-19.3c-0.2-0.5-0.8-1.4-1.2-1.4
			c-0.8,0-0.6,1-0.7,1.5c-0.2,3.3-0.6,6.7-0.5,10c1.1,36.3,12.4,68.9,35.5,97.1c1,1.2,3.1,2.4,1.7,4.1c-1.2,1.4-3.1,0.3-4.6-0.4
			c-8.3-3.4-15.5-8.4-22.4-13.9c-18.6-14.7-32.1-33.7-43.6-54.1c-2.8-5.1-6.2-9.9-10.2-14.1c-0.6-0.7-1-2.2-2.1-1.8
			s-0.5,1.7-0.4,2.6c1,8.1,1.6,16.2,3.1,24.2c2.5,13.4,3.5,27.6,14.9,37.6c0.8,0.6,1,1.7,0.4,2.6l-0.1,0.1c-1,1.2-2,0.6-3.1-0.1
			c-6.6-4.6-10.1-11.8-12.5-18.7c-1.6-4.6-4.1-8.5-6-12.8c-0.3-0.6-0.6-1.4-1.4-1.1c-0.3,0.1-0.5,0.8-0.6,1.2
			c-2.1,8.5-6.2,16.4-3.2,25.9c2.6,8.1,4.6,16.3,9.3,23.5c1,1.5,4.5,2.7,3,4.2c-1.7,1.6-3.5-1.5-5-2.8
			c-13.9-11.9-26.7-25.1-38.3-39.4c-0.6-0.8-1.3-1.9-2.1-2c-1.1-0.1-0.7,1.2-0.7,2c-0.2,11.5-3.5,22.3-6.6,33.2s-6.3,21.8-6.6,33.2
			c-0.2,7.5,3,12.8,9.7,16c3.3,1.6,6.7,2.9,10.2,4C342.2,786.8,358.8,788.4,375.4,789.3z M174.3,181.6c0.2,7.6,1.5,17.5,3,27.4
			c3.5,23.7,7.1,47.4,15,70.1c12.4,35.6,34.8,62.1,69.8,77.3c3,1.3,4.9,1.9,4.6-2.6c-0.7-13.6-1.3-27.3-1.6-40.9
			c-0.4-18.1-1.7-36.3,0.3-54.4c2.8-26.8,11.7-52.5,25.9-75.4c1.8-2.9,1.2-4.2-1.6-5.7c-33-18.2-68.3-26.4-105.9-26
			c-4,0-5.6,1.5-6.5,5C175.2,164.7,174.2,173.1,174.3,181.6z M310.8,570.2c-2.4,13.2-8,16.9-20.6,14c-1.4-0.5-2.9-0.8-4.4-1
			c-11.4-0.3-19.1-6.8-24.7-15.6c-10.1-16-13.2-34-13.1-52.5c0-6,3.6-10.3,9.7-12.5c10.8-3.8,20.2-1.6,29,5.3c2.5,2,4.3,4.8,7.6,5.8
			c-0.6-3.2-1.2-6.5-1.9-9.7c-2.7-11.8-11.3-18.8-23.5-18.7c-14.7,0.2-30.9,10.4-29.5,30.7c0.9,12.4,1.3,24.6,9.2,35.1
			c1.1,1.4,4.5,3.3,1.8,5.1c-2.1,1.4-3.3-2.1-4.5-3.7c-9.5-12.9-9.5-28-9.3-43c-0.1-3.8,0.9-7.6,2.7-11c9.2-15.7,30.9-21,46.2-11.3
			c0.9,0.6,1.9,2.1,2.9,1.5s0.2-2.1,0-3.3c-8.4-39.5-15.8-79.3-21.7-119.3c-0.2-2.5-1.8-4.7-4.2-5.5c-18.2-7.2-34.4-18.6-47.3-33.3
			c-0.7-0.8-1.2-2.5-2.5-1.8c-0.6,0.3-0.5,2.1-0.4,3.2c0.9,9.8,1.8,19.6,3,29.3c2.5,20.3,6.4,40.4,13.8,59.6c0.8,2,1.1,4.4,3.8,4.8
			c5,0.9,7.8,4.2,9.2,8.8c1.1,3.5,3.4,4.5,6.9,4c5.9-0.9,11.9-1.5,17.8-2.3c1.5-0.2,3-0.6,3.5,1.5c2.1,9.4,5.8,18.4,10.8,26.7
			c0.8,1.3,0.8,3-1.4,2.6c-7.5-1.3-14.9,0-22.4-0.3c-2.2-0.1-4.4-0.3-5.8-2.2c-3.7-4.8-7.6-10-7.4-16c0.2-6.3-3.4-10.7-5.4-15.9
			c-1-2.6-3.5-4.3-6.3-4.3c-2.9,0-3.8,2.5-4.8,4.5c-4.6,9.2-2.7,23.6,4,31.1c0.8,0.8,1.4,2.6,3.1,1.4c1.8-1.3,0.8-2.5-0.1-3.8
			c-2.7-3.6-5.4-7.2-6.9-11.5c-2.2-6.2-2.2-12.1,2.3-17.4c0.7-0.8,1.7-2.2,2.8-0.9c0.9,0.9-0.3,1.7-0.9,2.5
			c-4.9,5.7-3.7,11.8-0.7,17.7c2.8,5.5,6.6,10.5,11.1,14.6c0.8,0.7,2.6,1.2,1.5,2.5c-1,1.2-2.3,0-3-0.8c-2.9-3.3-4.6-1.2-6.5,1.2
			c-5.2,6.5-9,14.1-11,22.2c-4.3,16.7-2.1,33.3-0.5,50.1c1.2,12.5,5.4,23.2,14.2,32.1c4.5,4.5,9.4,8.5,14.6,12.1
			c1,0.7,2.6,2.3,3.3,1.5c1.1-1.1-0.8-2.2-1.5-3.2c-9.4-12.2-18-24.8-23.8-39.1c-9.7-24.3-8.4-47.8,5.8-70.2c1-1.5,2.1-3,3.2-4.4
			c0.4-0.6,1-0.9,1.7-0.4s0.5,1.2,0.1,1.7c-0.6,1-1.3,1.9-2,2.9c-12.1,18-15.7,37.5-10.2,58.5c4.6,17.8,14.8,32.6,25.2,47.3
			c7.2,10.1,16.5,16.5,28.5,19.2c11.4,2.6,22.9,4.3,34.6,2.7c1.4-0.2,4,0.3,3.1-2.5C316.8,588.1,313.9,579.5,310.8,570.2z
			 M284.7,1077.9c5.2-1.4,10.5,0.1,15.8-1.5c3-0.9,3-1.9,2-4.4c-4.1-10-8-20.1-12.2-30.1c-20-48.3-38.9-97-47.9-148.8
			c-1.7-9.7-6-19.4-3.1-29.7c0.2-0.8-0.9-2.7-1.6-2.8c-1.6-0.2-1.3,1.6-1.5,2.6c-1.1,7.7-2.3,15.5-3.1,23.3
			c-4.1,37.3-5.1,74.7-7,112.1c-1.3,24.8-3,49.5-6.5,74.1c-0.7,5.1,0.8,5.3,4.9,5.3C244.8,1077.8,264.8,1077.9,284.7,1077.9z
			 M411.1,68.2c-0.3-0.3-0.6-0.7-0.9-1.1c-3.9-4.7-8.6-7.7-14.9-7.9c-13.8-0.5-27.1,1.1-40.2,5.9c-45.5,17-82.3,45.1-110.5,84.7
			c-1.2,1.7-4.2,3.8,0.7,5.1c15,4.1,29.1,10.5,42.8,17.6c3.8,2,5.6,1.8,7.9-2.3c16.9-31.2,40.9-57.9,70.1-78.1
			c13.4-9.3,26.9-18.5,43.1-22.5C410,69.5,410.9,69.4,411.1,68.2z M446.5,2.3c-15.3-0.2-15.4-0.2-20.7,12.3
			c-6.3,14.7-9.3,30.7-8.8,46.7c0.2,6.2,1.8,7.8,7.9,7.2c4-0.4,7.9-1.1,11.8-1.9c15.3-3.4,30.5-5.6,45.5,1.2
			c2.3,1.1,2.9,0.1,2.5-2.2c-1.3-6.9-2.4-13.8-3.8-20.6c-2.4-12.1-3.6-24.3-7-36.2c-1.1-3.7-3.1-5.4-7.1-5.5
			C459.5,3.1,452.2,2.6,446.5,2.3z M265.9,95.1c-3.6,0-6.4,1.7-9.1,3.5c-20.3,13.3-38.4,29.2-55.4,46.5c-0.7,0.7-2,1.5-1.3,2.4
			c0.6,0.7,2,1,3.1,1.1c10,0.3,19.9,1.5,29.7,3.5c3.6,0.8,5.5,0.1,7.7-3.1c17.5-25.5,39.9-47.2,65.9-63.9
			c10.6-6.9,21.7-12.7,33-18.4c-6.5,1.6-12.8,3.5-19,5.6c-11,3.8-21.7,8.5-32,14c-7.9,4.2-15.6,8.9-23.1,14c-1.2,0.9-2.7,2-4,0.4
			c-1.3-1.7,0.5-2.6,1.6-3.5C264,96.5,265,95.8,265.9,95.1z M519.2,143.3c0,2.6,1.4,3.7,2.2,5.1c6.4,10.1,13,20.3,17.4,31.4
			c5.9,15.2,15.4,27,28.3,36.8c15.8,11.9,29.8,26.1,45.8,37.7c1.2,0.8,2.8,2.6,3.7,1.8c1.2-1-0.5-2.7-1.2-3.9
			c-8.4-16.2-18.3-31.7-29.5-46.2C567.1,181.7,544.6,160.5,519.2,143.3z M413,3.2L413,3.2c-1.7,0.1-3.3,0.1-5,0.1
			c-4.1,0-8.8-0.8-11.8,2.4c-14,14.7-25.8,31.4-35,49.5c-1.3,2.5-0.3,3,2,2.4c6.6-1.8,13.5-1.7,20.3-2.2c9.9-0.8,19.7-1,27.6,6.6
			c2.1,2,1.9-0.3,1.9-1.4c-0.1-6.7,0.4-13.3,1.5-19.9c1.7-10.3,4.6-20.4,8.8-30c3.1-7.3,2.7-7.7-4.7-7.6
			C416.7,3.2,414.9,3.2,413,3.2z M259.6,529.6c0.1-2.3,0.1-4.1,0.3-5.9c1-10.5,9.3-14.7,18.5-9.2c2.3,1.4,4.3,3.3,5.8,5.5
			c4.5,6.6,8.6,13.6,10.9,21.2c2.3,7,2.6,14.4,1.1,21.6c-1,4.4-2,8.9-6,12.2c-1.6,1.4-4.4,5-0.5,6.5c9.8,3.7,18,0.1,18.2-10.3
			c0-2.3-0.2-4.6-0.4-7c-0.9-11.7-6-22.5-8.2-33.9c-2.3-11.9-10.3-18.5-19.6-24.2c-5.5-3.3-12.2-5.3-17.5-1.7
			c-6.9,4.5-10.9,12.2-10.7,20.4c0.1,4,0.8,8,1.3,11.9c1.3,11.1,4.4,21.9,11.4,31c4.1,5.4,8.9,9.8,15.4,12.2
			c4.4,1.7,5.4-1.4,7.1-4.1c2-3.2-1-3.6-2.5-4.6C269.2,561.2,260,547.7,259.6,529.6z M294.3,551.5c-0.8-12.8-6.8-23.4-14.8-33
			c-1.7-1.9-4-3.1-6.5-3.5c-5.1-1.1-7.3,0.4-7.7,5.6c-0.4,5.6-0.6,11.3-0.8,17c-0.2,5.3,1.7,10.3,4,14.6c3.8,7.3,10.2,12.6,17,17.3
			c2.8,1.9,4.1,0.9,5.2-1.8C292.7,562.4,294.3,557.2,294.3,551.5z M311.1,518.1c1.4,7.5,2.7,15,4.1,22.5c5.8,30.4,12.9,60.5,26,88.9
			c4.2,9.1,9,17.9,14.3,26.3c0.4,0.7,1,1.3,1.7,1.7c0.6,0.3,0.7-0.6,0.7-1c-0.2-6.1,0.6-12.6-2.1-18.1
			c-14.2-28.7-25.4-58.6-34.6-89.2C318,538.7,315.2,528.3,311.1,518.1L311.1,518.1z M440.3,478c12.2,0,23-8.7,24.2-19.9
			c0.3-2.9,1.6-6.4-2.7-8c-5-1.9-10-1.3-12.7,1.8c-2.8,3.1-5.7,5.4-10.4,5.5c-7.5,0.1-12.6,6.5-11.4,13
			C427.9,474.8,433.5,478,440.3,478z M661.4,612.7c1.6-29.6,2.6-59.2-0.5-88.8c-0.8-7.4-1.6-14.9-3.6-22.1c-0.1-0.4-0.5-3.6-1.5-1.2
			c-2.4,5.9-7.5,11.2-6.3,18C655.1,549.7,660,580.9,661.4,612.7z M264.6,607.7c0.4,34.9,14.2,64.2,29,93.2c0.3,0.6,0.7,1.9,1.7,1.5
			c0.8-0.4,0.5-1.4,0.1-2.2c-0.6-1-1.1-2.1-1.6-3.1c-14-27.4-20.7-57.9-19.6-88.6c0.1-3,0.6-6,0.6-8.9c0-4.6-4.3-4.1-6.9-4.9
			c-3.1-0.9-2.5,2.3-2.6,4C264.9,602.1,264.8,605.6,264.6,607.7L264.6,607.7z M266.1,461c2,0,4.8-0.1,7.7,0c2.9,0.1,3-1,1.8-3.2
			c-3.3-6-5.7-12.3-7.3-19c-0.7-2.9-2-3.3-4.6-2.9c-3.4,0.6-6.9,0.9-10.4,1.2c-7.5,0.7-8.7,2.5-6.8,9.8
			C249.5,458.5,253.4,461.4,266.1,461L266.1,461z M584.2,349.7c0.8,8.9,1.4,18,7.8,25.4c4.5,5.3,8.9,5.2,12.6-0.7
			c1.4-2.1,2.2-4.5,2.3-7c0.1-5.6,0.4-11.3-0.6-16.9c-0.2-1,0.6-2.7-1-2.8c-0.8,0-1.8,1.3-2.4,2.3c-0.4,1.1-0.7,2.2-0.9,3.3
			c-0.7,3.1-1.5,6.2-3.7,8.6c-2.8,3-5.7,3-7.7-0.5C588.5,357.4,587.6,352.9,584.2,349.7L584.2,349.7z M227.8,837.7
			c-0.7-1.9-1.5-3.9-2.3-5.8c-10.3-25.5-17.4-51.6-13.8-79.6c0-0.6,0-1.3-0.1-1.9c-0.5,0.6-0.9,1.3-1.2,2.1
			c-3.8,14.6-5.6,29.3-2.2,44.3C211.7,811.7,218.4,825.7,227.8,837.7L227.8,837.7z M647.4,602.2c0.9-2.6,1-5.5,0.4-8.2
			c-4.3-18.2-3.8-36.6-3.3-55c0.1-3.3,0.1-6.6,0.1-10c-0.1-0.6-0.3-1.2-0.6-1.8c-0.3,0.3-0.9,0.5-1,0.8c-2.1,5-6,9.5-5.9,15.1
			C637.5,562.8,641.4,582,647.4,602.2z M443,429.5c0.2-3.4-1-6.7-3.3-9.2c-2.1-2.4-4.2-3.2-6.3,0.1c-2.4,3.8-5.2,7.3-7.4,11.2
			c-3.2,5.7-1.7,13.4,3.2,17.7c0.6,0.5,1.1,1.5,2,1.1c1-0.4,0.6-1.5,0.3-2.1c-1-2.2-0.5-4.6-0.7-6.9c-0.5-5.7,2.1-8.7,7.3-7.4
			C443.3,435.4,442.9,432.6,443,429.5z M452.3,422.8c0.9,5.2,4.3,8.6,8.6,11.3c3,1.9,6,0.5,8.2-0.8c2.1-1.3,0.5-3.9-0.2-5.9
			c-1.1-3.3-2.7-6.4-4.9-9.1c-1.8-2.2-4.1-3.7-6.9-2.6C454.2,416.8,452.7,419.4,452.3,422.8z M445.3,436.3c-0.1,4.3,4.8,8.9,9.1,8.9
			c2,0,3.9,0.7,5.9,0.6c1.7,0,3.7,2.4,4.8,0.4c0.8-1.6-0.7-3.8-1.5-5.6c-0.6-1.3-1.9-1.8-3.1-2.3c-2.9-1.4-5.2-3.5-7.5-5.6
			c-2-1.8-2-6.6-4.9-5.8c-3.4,1-1.1,5.7-2.5,8.4C445.3,435.6,445.3,435.9,445.3,436.3L445.3,436.3z M606.5,323.1
			c-2.4,0.7-6.5-0.7-6.5,4.4c0,5,5.5,12.3,9.2,11.6c3.1-0.6,4.2-3.8,4.4-6.4C614,326.8,611.1,323.1,606.5,323.1z M354.4,680.6
			c0-6.3-4.5-10.9-6.8-16.3c-0.1-0.3-0.8-0.3-1.1-0.5c-0.1,0.6-0.2,1.3-0.1,2c1.3,8.2,2.6,16.4,3.9,24.6c0.1,0.5-0.2,1.6,0.9,1.4
			c0.5-0.1,0.9-0.9,1.1-1.5C353.5,687.3,354.2,684,354.4,680.6z M649,375c-1.2-14.2-2-27.1-5.2-39.7
			C642.2,348.1,644.3,364.3,649,375z M338,588.2c5.1,16,11,31.6,18.7,46.4c0.3,0.6,0.8,1.8,1.7,1.1c0.9-0.6-0.1-1.5-0.4-2.2
			c-4.4-9.9-8.9-19.7-13.2-29.6C342.5,598.8,340.3,593.5,338,588.2z M697,898.4c0.1-6-0.2-11-2.8-15.5c-0.5-0.9-1-2.5-2.4-2
			c-1,0.4-0.6,1.8-0.5,2.7c0.8,4.7,1.7,9.5,2.7,14.2c0.5,2.2,0.6,4.6,2.6,6.2C697.9,901.9,696.9,899.7,697,898.4z M607.1,318.7
			c-0.3-2.1-1.8-3-3.1-3.9c-2.5-1.8-3.5,0.8-4.6,2.2c-0.8,1.1-2.1,2.2-1.7,3.8C600.8,320.2,603.9,319.4,607.1,318.7z M422.7,446.3
			c-0.2,0.5-0.3,1-0.4,1.6c0.5,3.3,1.4,6.5,3.8,8.9c1.4,1.4,2.8,0.2,3.9-0.7c1.6-1.5-0.4-1.9-1.1-2.4c-1.9-1.6-3.6-3.4-4.9-5.5
			C423.7,447.5,423.3,447.1,422.7,446.3z M442.7,484.5c7.9,2.8,11.7,1.5,14.5-4.8C452.9,482.3,447.9,484,442.7,484.5z M602.6,302.3
			c-3.5-0.4-4.4,2.4-5.7,4.6c-0.1,0.3,0,0.6,0.2,0.7s0.4,0.1,0.6-0.1c2.5-1.2,4.9-2.7,7.1-4.4C605.4,302.8,603.4,302.5,602.6,302.3z
			 M421.1,455.8c0.2,2.6-0.1,5.2,1.7,7.2c0.5,0.5,1.2-0.2,1.5-0.8C425.6,459,422.3,457.8,421.1,455.8z M596.8,347.1
			c0.2-1.6,0.3-3.2-1.3-3.5c-1.1-0.1-2,0.8-2,1.8c0,0.1,0,0.3,0,0.4c0.7,1.7,1.1,3.6,1.1,5.4C596.6,350.4,596,348.3,596.8,347.1z
			 M596.3,331.3c0.8,4.9,2.7,7.8,5.7,10.2c0.5,0.4,1,1.1,1.6,0.6c1-0.9-0.1-1.4-0.7-1.8C600,338.2,598.5,335.1,596.3,331.3z"/>
		<path d="M349,721.1c-6.8-12.2-14.2-24-19.8-36.8c-7.6-17.4-13.8-35.3-17.4-54c-0.3-1.4-2.1-3.7,0.4-4.1c1.8-0.3,1.6,2.5,1.9,4
			c5.2,24.9,14.1,49,26.4,71.2c3.8,6.9,7.2,14.2,13,19.9C351.8,725.1,350.5,721.2,349,721.1z"/>
		<path d="M507.1,865.2c-1.2-0.2-2.8,0.6-3.4-1.2c-0.4-1.3,0.5-2.2,1.3-3c4.2-4.3,8.5-8.5,12.7-12.7c3.1-2.8,5.8-6,8.1-9.4
			c3.2-5.1,9.1-7,13.3-11c16.9-16.1,35-30.8,55-42.9c4.8-2.9,9.6-6,15.2-7.4c6.4-1.6,12.6-1.3,17.6,4c1,1.1,2.3,2.5,1,3.9
			c-1.6,1.7-2.6-0.1-3.6-1.1c-5.5-5.6-11.8-4.6-18-1.6c-9.5,4.6-18.1,10.5-26.7,16.6c-18.2,13-34.7,28.1-50.8,43.5
			c-2.2,2.3-3.8,5.1-4.6,8.2c-2.7,8.3-8.1,14.2-15.7,18.6c-21.3,12.2-40.7,27.1-59.4,43c-16.9,14.4-33.2,29.7-51.8,42.2
			c-5,3.3-10,6.7-16.3,6.9c-2.2,0.2-4.3-0.2-6.3-1.1c-1.1-0.6-2.1-1.2-1.6-2.7s1.8-1.3,2.9-0.9c5.9,2.5,10.8-0.1,15.4-3.1
			c15.8-10.6,30.7-22.4,44.5-35.4c22.2-20.7,41.4-44.3,62-66.4c29-31.1,58.7-61.4,88.8-91.3c1-1,2.2-3.4,4-1.7
			c2,1.8-0.3,3.4-1.4,4.5c-15,15.3-30.2,30.6-45.3,45.9c-25,25.4-49.3,51.5-72.9,78.2c-0.8,0.8-1.3,1.8-1.7,2.8
			C481.5,881,494.7,873.7,507.1,865.2c4.3-1.4,7.2-4.4,9.7-8c0.4-0.6,1.3-1.3,0.5-2.1c-0.2-0.2-1.2,0.3-1.6,0.7
			C512.9,858.9,509.3,861.4,507.1,865.2z"/>
		<path d="M322.9,885.2c-5.1-0.3-9.6-2.2-13.9-4.8c-5.2-3.2-10.1-7.1-16.3-8.5c-0.7-0.2-1.8-0.4-1.5-1.6c0.3-1.1,1.3-0.7,2.1-0.6
			c2.8,0.5,5.4,1.6,7.8,3.1c3.9,2.3,7.7,4.7,11.6,6.9c8,4.6,15.6,3.7,22.8-1.8c4.8-3.6,8.9-8.1,13.1-12.3
			c33.6-34.2,70.3-65.3,109.5-92.9c1.6-1.2,4.2-4.1,5.2-2.4c1.4,2.4-2.4,3.2-4.1,4.4c-39.4,28.1-76.3,59.2-110,93.9
			c-3.6,3.7-7.4,7.2-11.3,10.6C333.7,882.7,328.5,884.9,322.9,885.2z"/>
		<path d="M242.2,723c0.3,0.1,1.4,0.2,1.7,0.7c0.7,1.5-0.8,1.3-1.6,1.7c-1.7,0.9-0.5,2-0.1,2.9c5.9,14.1,11.2,28.4,18.8,41.7
			c5,8.9,11.2,16.9,19.3,23.2c0.9,0.7,2.5,1.5,1.7,2.6c-1.1,1.5-2.3-0.1-3.2-0.8c-9.4-7.3-16.2-16.7-21.6-27
			c-7-13.2-12.4-27.2-18.1-41C237.6,723.6,238.2,722.7,242.2,723z"/>
		<path d="M615.9,198.9c-1.7-8-5.5-14.9-10-21.4c-22.2-32-50.2-57.6-83.6-77.4c-1.4-0.9-4.6-1.7-3.7-3.2c1.4-2.2,3.5,0.4,5,1.3
			c33.4,19.5,61.1,45.4,83.8,76.7c4.3,6,8.3,12.3,10.1,19.4c4,15.5,12.2,29,19,43.2c18.4,38.6,31.1,79.8,37.6,122.1
			c0.3,2,2,5.4-0.5,6c-1.7,0.4-1.4-3.5-1.7-5.5c-7.8-48.7-22.6-95.1-46.3-138.4c-6-11-11-22.7-18.8-32.8c-0.8-1-2.8-2.6-1-3.7
			c1.5-0.9,2.2,1.4,3,2.6C611.2,191.5,613.5,195.2,615.9,198.9z"/>
		<path d="M292.7,328.2c-0.2-49.9,8.3-99.4,24.9-146.4c0.6-1.8,0.5-5.4,3.1-4.7c1.8,0.5-0.2,3.5-0.8,5.3
			c-19.2,54-27,109.8-24.4,166.9c2.2,48.1,12.4,95.6,30.2,140.3c0.7,1.8,3.1,4.7,1,5.6c-2.1,0.8-2.4-2.9-3.1-4.8
			c-15.3-38.2-25-78.4-28.8-119.4C293.4,356.8,292.8,342.5,292.7,328.2z"/>
		<path d="M524.2,333.6c0,2.3,0,4.7,0,7c0,0.8-0.2,1.8-1.3,1.7c-1.1-0.1-0.9-1.2-0.9-2c-1.1-35.6-13.6-69-20.6-103.5
			c-4.1-20.2-8.4-40.4-14.4-60.1c-3.4-11.1-8-21.5-15.2-30.7c-0.7-0.9-2.7-2.1-1.2-3.2c1.7-1.2,2.4,1.1,3.2,2.1
			c8.9,11.3,14.2,24.5,17.5,38.3c9.2,38.5,18.1,77.1,27,115.6C520.9,310.2,524.3,321.6,524.2,333.6z"/>
		<path d="M556.2,340.6c-0.2,22.1-3.7,51.1-11,79.6c-0.2,1-0.5,1.9-0.8,2.9c-0.4,1.2-0.2,3.2-2.1,2.6c-1.1-0.4-0.5-2.1-0.2-3.2
			c2.9-10.9,5.3-22,7.1-33.1c8.5-51.4,5.3-102.1-8.9-152.2c-0.6-2-3-5.2-0.4-6c1.9-0.6,2.1,3.5,2.7,5.6
			C551.6,267.9,556.2,300.8,556.2,340.6z"/>
		<path d="M687.4,470c-0.9,10.6-1.9,23.4-3.2,36.2c-1.6,15.9-2.4,31.8-5,47.6c-0.8,4.8-2.2,9.4-4.1,13.8c-0.3,0.8-0.8,1.7-1.8,1.3
			s-0.7-1.4-0.4-2.1c9.1-28.9,8-59.2,11-88.9c2.3-22.6-1.9-45.1-2.5-67.7c-0.2-7.6-1-15.3-1.4-22.9c-0.2-4-0.6-7.9-2.3-11.6
			c-0.4-0.8-1.4-2-0.3-2.6c1.5-0.8,1.9,0.9,2.4,1.8c1.4,2.7,2.2,5.6,2.3,8.6C683.9,411.5,685.6,439.6,687.4,470z"/>
		<path d="M371.1,511.6c0.1-0.9-0.4-2.3,0.9-2.4c1.7,0,1.3,1.7,1.4,2.7c2,13.8,3.8,27.7,5.9,41.5c5.1,33.4,12,66.4,24.7,97.9
			c0.2,0.5,0.4,0.9,0.5,1.4c0.3,1,1.5,2.4-0.2,2.9c-1.5,0.5-1.7-1.4-2.1-2.3c-1.2-2.7-2.2-5.6-3.3-8.4c-11.8-31.7-18.1-64.6-23-97.9
			C374.2,535.4,372.7,523.5,371.1,511.6z"/>
		<path d="M581.2,330.6c-1.1,0.9-0.4,3.7-2.3,3.2c-1.8-0.5-0.6-2.5-0.4-3.9c2.2-14.9,8.8-28.1,16.4-40.9c0.5-0.9,1-2.6,2.4-1.8
			c1.4,0.8,0.1,2.1-0.4,3c-6.3,11.3-13.1,22.5-15.1,35.6c-0.2,1.6-0.5,3.3-0.7,4.9C581.1,330.8,581.2,330.6,581.2,330.6z"/>
		<path d="M502.1,467.2c-0.6,2.2-1.8,4.1-3.5,5.6c-7.1,5.8-14.3,11.4-21.5,17.1c-0.8,0.6-1.8,1.4-2.5,0.3s0.6-1.7,1.3-2.3
			c4.8-3.8,9.7-7.6,14.6-11.4c3.4-2.6,7.1-5,9.1-9.1c0.4-0.7,0.8-1.6,1.8-1.2C501.8,466.3,502,466.9,502.1,467.2z"/>
		<path d="M610,503.8c1.2,0.2,1.2,1,0.9,1.8c-1.4,3.7-3.9,7-7.1,9.4c-0.5,0.4-1.3,0.7-1.8,0c-0.2-0.3-0.3-1.1-0.1-1.3
			c3-2.6,5.5-5.9,7.2-9.4C609.3,504,609.7,503.9,610,503.8z"/>
		<path d="M609.5,428.5c0.2,2.8-0.4,4.6-1.6,6c-1.2,1.5-2.8,4.4-4.3,3.2c-2-1.5,1.3-2.7,2.1-4.1c1.1-1.6,1.6-3.7,1.3-5.7
			c-0.2-1-2-2.7,0.3-3c1.4-0.2,1.8,1.6,2.1,3C609.5,428.4,609.5,428.9,609.5,428.5z"/>
		<path d="M228,659.3c-8.8-26-17-52.1-23.5-78.8c-9.5-39-16.1-78.6-19.8-118.5c-2.4-26.1-3.6-52.2-3.5-78.3
			c0.1-24.6,1.4-49.2,3.8-73.8c0-0.7,0.1-1.3,0.3-2c0.4-0.9-0.1-2.8,1.7-2.4c1.1,0.2,0.7,1.6,0.6,2.6c-0.9,12.6-1.9,25.2-2.8,37.8
			c-1.7,27.2-1.8,54.6-0.3,81.8c1.2,25.4,3.8,50.8,7.4,76c7.4,50.7,19.6,100.6,36.4,149c0.7,2,3.1,4.5-0.5,6.3L228,659.3z"/>
		<path d="M227.9,659.2c0.4,0.4,0.7,0.7,0.9,1.2c0.5,1,2.5,2,0.9,3.3c-1,0.8-2-0.8-2.7-1.6c-8.6-9.5-16.4-19.8-23.1-30.7
			c-20.3-32.4-32.5-68-40.9-105c-6.6-29.2-10.6-58.9-14.8-88.5c-0.1-0.7-0.2-1.3-0.2-2c0.1-0.9-0.5-2.3,1-2.3c1.3,0,1.2,1.4,1.3,2.3
			c1.3,9.4,2.6,18.8,4,28.2c6.3,43.9,14.4,87.3,32,128.3c10.5,24.5,23.7,47.3,41.8,67.1L227.9,659.2z"/>
		<path d="M190.1,205.8c-0.6-7.4,0.6-14.7,1.1-21.9c0.1-1.1-0.1-3.2,1.8-2.8c1.4,0.3,0.5,2,0.5,3.1c-0.2,6.6-1.1,13.2-0.5,19.9
			c2.1,22.5,15.3,38.2,31.6,51.7c9.9,8.1,21.6,4.7,28.9-5.4c6-8.3,11.1-17,11.5-27.7c0.6-16.5-7.6-28.9-18.5-40
			c-5.7-5.9-12.6-10.5-20.2-13.6c-7.7-3-15.4-3.9-23.3-0.7c-1,0.4-2.4,1.7-3,0.2c-0.8-1.8,1.3-2,2.4-2.4c7.7-3,16.3-2.9,23.9,0.4
			c20.2,8.4,33.9,23.2,40,44.3c3.1,10.9,0.8,21.4-4.6,31.3c-3.2,5.9-7,11.3-11.5,16.3c-4.9,5.4-11.7,4.9-18.2,3.3
			c-6.2-1.4-11.1-5.1-15.6-9.4c-6.8-6.5-11.9-14.3-18.1-21.5c1.5,3.9,3,7.8,4.6,11.7c11.4,27.1,26.5,52.4,44.9,75.2
			c0.5,0.5,0.9,1,1.3,1.5c0.6,0.9,2.1,1.9,0.7,2.9c-1.2,0.8-1.9-0.8-2.7-1.6c-0.3-0.4-0.7-0.7-1-1.1c-35.1-44-57.3-93.7-66.2-149.3
			c-0.4-2.3-0.8-4.6-1-6.9c-0.1-1-1-2.7,0.7-2.9c1.5-0.2,1.4,1.6,1.5,2.6c1.4,11.1,3.5,22,6.2,32.8
			C188.1,199.2,189.1,202.5,190.1,205.8z"/>
		<path d="M198.7,155c15.1,0,28.3,3.6,41,8.9c14,5.7,27.9,11.8,41.8,17.7c1.2,0.5,3.7,0.8,3,2.4c-0.7,1.8-2.6,0.2-3.8-0.3
			c-15.4-6.4-30.6-13.1-46-19.3c-15.6-6.2-31.7-8.8-48.5-6.1c-1.1,0.2-3.1,1.3-3.3-0.7c-0.2-1.5,1.9-1.5,3.1-1.6
			C190.7,155.6,195.3,154.6,198.7,155z"/>
		<path d="M258.3,372.1c0.4,18.4,3,36.4,10.2,53.5c1.1,2.7-0.3,2.5-1.8,2.5c-9.7,0.3-19.3-1.7-28-5.8c-2.9-1.5-4.9-4.1-5.7-7.3
			c-7.4-24.3-14.4-48.8-18.7-73.9c-0.2-1.3-1.2-3.4,0.8-3.7c1.7-0.2,1.2,2,1.4,3.2c4.2,24,11,47.2,17.7,70.6
			c1.7,5.9,4.8,9.5,10.7,11.2c4.8,1.3,9.7,2.4,14.6,3.2c3.9,0.7,5.4,0.3,3.8-4.4c-5.9-17.7-8.6-36.3-8.1-55c0-0.3,0-0.7,0-1
			c0.1-1.8-0.3-4.6,1.7-4.6c2.6,0,1.2,2.9,1.3,4.5C258.5,367.5,258.3,369.8,258.3,372.1z"/>
		<path d="M226.1,512.1c1.4-5.9,2.6-11.2,4.6-16.3c4-10,11.4-16.2,21.4-19.4c7.5-2.4,15.2-3.3,23-4.1c2.5-0.3,5,0.1,7.3,1.1
			c0.5,0.2,1.2,1,1.1,1.4c-0.1,1.1-1.1,0.9-1.9,0.7c-8.8-2.1-17.2,0.4-25.6,2.2c-16.3,3.5-23.9,15.1-26.8,30.5
			c-0.2,1.3-0.5,2.6-0.8,3.9c-0.2,0.9-0.3,2.2-1.7,1.9C225.5,513.6,226.1,512.4,226.1,512.1z"/>
		<path d="M454,19.9c-1.6,9.9-2.3,21.7-7,32.5c-4.3,10-15.1,11.9-21.8,4.3c-0.7-0.7-1.3-1.6-1.7-2.5c-0.6-1.4-2.3-3.4-0.4-4.3
			c1.6-0.7,1.6,1.9,2.3,3.1c4.2,7.6,13.7,7.9,18.2,0.5c4.1-6.7,4.7-14.5,6.1-22s3.5-15-0.1-22.5c-0.3-0.5-0.2-1.2,0.3-1.6
			c0,0,0.1-0.1,0.2-0.1c0.8-0.4,1.3,0.3,1.6,0.8C453.6,11.4,454,14.8,454,19.9z"/>
		<path d="M435.6,23.1c-0.4,7.8-3.8,13.5-10.2,17.5c-1.4,0.9-2.9,1.9-4.5,0.5c-0.5-0.4-1.1-0.9-0.7-1.7c0.2-0.3,0.7-0.5,1.1-0.7
			c7.7-2.3,11.7-7.8,12-16c0.1-1.9-1.6-5.5,0.6-5.5C436.5,17.5,435,21.2,435.6,23.1z"/>
	</g>
</g>
<g id="图层_1_x5F_复制">
	<g>
		<path fill="#796EA5" d="M290.8,567.6c1.9-5.2,3.6-10.4,3.5-16c-0.8-12.8-6.8-23.4-14.8-33c-1.7-1.9-4-3.1-6.5-3.5
			c-5.1-1.1-7.3,0.4-7.7,5.6c-0.4,5.6-0.6,11.3-0.8,17c-0.2,5.3,1.7,10.3,4,14.6c3.8,7.3,10.2,12.6,17,17.3
			C288.4,571.3,289.7,570.3,290.8,567.6z"/>
		<path fill="#796EA5" d="M273.8,461c2.9,0.1,3-1,1.8-3.2c-3.3-6-5.7-12.3-7.3-19c-0.7-2.9-2-3.3-4.6-2.9c-3.4,0.6-6.9,0.9-10.4,1.2
			c-7.5,0.7-8.7,2.5-6.8,9.8c3,11.5,6.8,14.4,19.6,14l0,0C268.1,461,270.9,460.9,273.8,461z"/>
		<path fill="#D3F3FD" d="M289.7,581.5c9.8,3.7,18,0.1,18.2-10.3c0-2.3-0.2-4.6-0.4-7c-0.9-11.7-6-22.5-8.2-33.9
			c-2.3-11.9-10.3-18.5-19.6-24.2c-5.5-3.3-12.2-5.3-17.5-1.7c-6.9,4.5-10.9,12.2-10.7,20.4c0.1,4,0.8,8,1.3,11.9
			c1.3,11.1,4.4,21.9,11.4,31c4.1,5.4,8.9,9.8,15.4,12.2c4.4,1.7,5.4-1.4,7.1-4.1c2-3.2-1-3.6-2.5-4.6
			c-14.9-10.1-24.1-23.6-24.6-41.8c0.1-2.3,0.1-4.1,0.3-5.9c1-10.5,9.3-14.7,18.5-9.2c2.3,1.4,4.3,3.3,5.8,5.5
			c4.5,6.6,8.6,13.6,10.9,21.2c2.3,7,2.6,14.4,1.1,21.6c-1,4.4-2,8.9-6,12.2C288.5,576.4,285.7,580,289.7,581.5z"/>
		<path fill="#766EAE" d="M239.3,498.5c9.2-15.7,30.9-21,46.2-11.3c0.9,0.6,1.9,2.1,2.9,1.5s0.2-2.1,0-3.3
			c-8.4-39.5-15.8-79.3-21.7-119.3c-0.2-2.5-1.8-4.7-4.2-5.5c-18.2-7.2-34.4-18.6-47.3-33.3c-0.7-0.8-1.2-2.5-2.5-1.8
			c-0.6,0.3-0.5,2.1-0.4,3.2c0.9,9.8,1.8,19.6,3,29.3c2.5,20.3,6.4,40.4,13.8,59.6c0.8,2,1.1,4.4,3.8,4.8c5,0.9,7.8,4.2,9.2,8.8
			c1.1,3.5,3.4,4.5,6.9,4c5.9-0.9,11.9-1.5,17.8-2.3c1.5-0.2,3-0.6,3.5,1.5c2.1,9.4,5.8,18.4,10.8,26.7c0.8,1.3,0.8,3-1.4,2.6
			c-7.5-1.3-14.9,0-22.4-0.3c-2.2-0.1-4.4-0.3-5.8-2.2c-3.7-4.8-7.6-10-7.4-16c0.2-6.3-3.4-10.7-5.4-15.9c-1-2.6-3.5-4.3-6.3-4.3
			c-2.9,0-3.8,2.5-4.8,4.5c-4.6,9.2-2.7,23.6,4,31.1c0.8,0.8,1.4,2.6,3.1,1.4c1.8-1.3,0.8-2.5-0.1-3.8c-2.7-3.6-5.4-7.2-6.9-11.5
			c-2.2-6.2-2.2-12.1,2.3-17.4c0.7-0.8,1.7-2.2,2.8-0.9c0.9,0.9-0.3,1.7-0.9,2.5c-4.9,5.7-3.7,11.8-0.7,17.7
			c2.8,5.5,6.6,10.5,11.1,14.6c0.8,0.7,2.6,1.2,1.5,2.5c-1,1.2-2.3,0-3-0.8c-2.9-3.3-4.6-1.2-6.5,1.2c-5.2,6.5-9,14.1-11,22.2
			c-4.3,16.7-2.1,33.3-0.5,50.1c1.2,12.5,5.4,23.2,14.2,32.1c4.5,4.5,9.4,8.5,14.6,12.1c1,0.7,2.6,2.3,3.3,1.5
			c1.1-1.1-0.8-2.2-1.5-3.2c-9.4-12.2-18-24.8-23.8-39.1c-9.7-24.3-8.4-47.8,5.8-70.2c1-1.5,2.1-3,3.2-4.4c0.4-0.6,1-0.9,1.7-0.4
			s0.5,1.2,0.1,1.7c-0.6,1-1.3,1.9-2,2.9c-12.1,18-15.7,37.5-10.2,58.5c4.6,17.8,14.8,32.6,25.2,47.3c7.2,10.1,16.5,16.5,28.5,19.2
			c11.4,2.6,22.9,4.3,34.6,2.7c1.4-0.2,4,0.3,3.1-2.5c-2.8-8.7-5.7-17.3-8.8-26.6c-2.4,13.2-8,16.9-20.6,14c-1.4-0.5-2.9-0.8-4.4-1
			c-11.4-0.3-19.1-6.8-24.7-15.6c-10.1-16-13.2-34-13.1-52.5c0-6,3.6-10.3,9.7-12.5c10.8-3.8,20.2-1.6,29,5.3c2.5,2,4.3,4.8,7.6,5.8
			c-0.6-3.2-1.2-6.5-1.9-9.7c-2.7-11.8-11.3-18.8-23.5-18.7c-14.7,0.2-30.9,10.4-29.5,30.7c0.9,12.4,1.3,24.6,9.2,35.1
			c1.1,1.4,4.5,3.3,1.8,5.1c-2.1,1.4-3.3-2.1-4.5-3.7c-9.5-12.9-9.5-28-9.3-43C236.5,505.7,237.5,501.9,239.3,498.5z M266.7,428.2
			c-9.7,0.3-19.3-1.7-28-5.8c-2.9-1.5-4.9-4.1-5.7-7.3c-7.4-24.3-14.4-48.8-18.7-73.9c-0.2-1.3-1.2-3.4,0.8-3.7
			c1.7-0.2,1.2,2,1.4,3.2c4.2,24,11,47.2,17.7,70.6c1.7,5.9,4.8,9.5,10.7,11.2c4.8,1.3,9.7,2.4,14.6,3.2c3.9,0.7,5.4,0.3,3.8-4.4
			c-5.9-17.7-8.6-36.3-8.1-55c0-0.3,0-0.7,0-1c0.1-1.8-0.3-4.6,1.7-4.6c2.6,0,1.2,2.9,1.3,4.5c0.2,2.3,0.1,4.7,0.1,7
			c0.4,18.4,3,36.4,10.2,53.5C269.6,428.4,268.2,428.2,266.7,428.2z M229.4,508.2c-0.2,1.3-0.5,2.6-0.8,3.9
			c-0.2,0.9-0.3,2.2-1.7,1.9s-0.7-1.6-0.8-1.9c1.4-5.9,2.6-11.2,4.6-16.3c4-10,11.4-16.2,21.4-19.4c7.5-2.4,15.2-3.3,23-4.1
			c2.5-0.3,5,0.1,7.3,1.1c0.5,0.2,1.2,1,1.1,1.4c-0.1,1.1-1.1,0.9-1.9,0.7c-8.8-2.1-17.2,0.4-25.6,2.2
			C239.8,481.2,232.3,492.7,229.4,508.2z"/>
		<path fill="#766EAE" d="M244.7,149.8c-1.2,1.7-4.2,3.8,0.7,5.1c15,4.1,29.1,10.5,42.8,17.6c3.8,2,5.6,1.8,7.9-2.3
			C313,139,337,112.3,366.2,92.1c13.4-9.3,26.9-18.5,43.1-22.5c0.7-0.2,1.7-0.2,1.8-1.4c-0.3-0.3-0.6-0.7-0.9-1.1
			c-3.9-4.7-8.6-7.7-14.9-7.9c-13.8-0.5-27.1,1.1-40.2,5.9C309.7,82.2,272.8,110.3,244.7,149.8z"/>
		<path fill="#6E647D" d="M295.3,702.3c0.8-0.4,0.5-1.4,0.1-2.2c-0.6-1-1.1-2.1-1.6-3.1c-14-27.4-20.7-57.9-19.6-88.6
			c0.1-3,0.6-6,0.6-8.9c0-4.6-4.3-4.1-6.9-4.9c-3.1-0.9-2.5,2.3-2.6,4c-0.4,3.5-0.5,7-0.7,9.1c0.4,34.9,14.2,64.2,29,93.2
			C294,701.5,294.4,702.8,295.3,702.3z"/>
		<path fill="#D3F3FD" d="M183.8,151.4c-4,0-5.6,1.5-6.5,5c-2.1,8.2-3.2,16.6-3,25.1c0.2,7.6,1.5,17.5,3,27.4
			c3.5,23.7,7.1,47.4,15,70.1c12.4,35.6,34.8,62.1,69.8,77.3c3,1.3,4.9,1.9,4.6-2.6c-0.7-13.6-1.3-27.3-1.6-40.9
			c-0.4-18.1-1.7-36.3,0.3-54.4c2.8-26.8,11.7-52.5,25.9-75.4c1.8-2.9,1.2-4.2-1.6-5.7C256.7,159.2,221.3,151,183.8,151.4z
			 M261.6,242.1c-3.2,5.9-7,11.3-11.5,16.3c-4.9,5.4-11.7,4.9-18.2,3.3c-6.2-1.4-11.1-5.1-15.6-9.4c-6.8-6.5-11.9-14.3-18.1-21.5
			c1.5,3.9,3,7.8,4.6,11.7c11.4,27.1,26.5,52.4,44.9,75.2c0.5,0.5,0.9,1,1.3,1.5c0.6,0.9,2.1,1.9,0.7,2.9c-1.2,0.8-1.9-0.8-2.7-1.6
			c-0.3-0.4-0.7-0.7-1-1.1c-35.1-44-57.3-93.7-66.2-149.3c-0.4-2.3-0.8-4.6-1-6.9c-0.1-1-1-2.7,0.7-2.9c1.5-0.2,1.4,1.6,1.5,2.6
			c1.4,11.1,3.5,22,6.2,32.8c0.8,3.4,1.8,6.7,2.7,10c-0.6-7.4,0.6-14.7,1.1-21.9c0.1-1.1-0.1-3.2,1.8-2.8c1.4,0.3,0.5,2,0.5,3.1
			c-0.2,6.6-1.1,13.2-0.5,19.9c2.1,22.5,15.3,38.2,31.6,51.7c9.9,8.1,21.6,4.7,28.9-5.4c6-8.3,11.1-17,11.5-27.7
			c0.6-16.5-7.6-28.9-18.5-40c-5.7-5.9-12.6-10.5-20.2-13.6c-7.7-3-15.4-3.9-23.3-0.7c-1,0.4-2.4,1.7-3,0.2c-0.8-1.8,1.3-2,2.4-2.4
			c7.7-3,16.3-2.9,23.9,0.4c20.2,8.4,33.9,23.2,40,44.3C269.3,221.7,267,232.2,261.6,242.1z M198.7,155c15.1,0,28.3,3.6,41,8.9
			c14,5.7,27.9,11.8,41.8,17.7c1.2,0.5,3.7,0.8,3,2.4c-0.7,1.8-2.6,0.2-3.8-0.3c-15.4-6.4-30.6-13.1-46-19.3
			c-15.6-6.2-31.7-8.8-48.5-6.1c-1.1,0.2-3.1,1.3-3.3-0.7c-0.2-1.5,1.9-1.5,3.1-1.6C190.7,155.6,195.3,154.6,198.7,155z"/>
		<path fill="#6E647D" d="M351.1,691.8c0.5-0.1,0.9-0.9,1.1-1.5c1.3-3.1,2-6.4,2.2-9.8c0-6.3-4.5-10.9-6.8-16.3
			c-0.1-0.3-0.8-0.3-1.1-0.5c-0.1,0.6-0.2,1.3-0.1,2c1.3,8.2,2.6,16.4,3.9,24.6C350.3,691,350.1,692,351.1,691.8z"/>
		<path fill="#283F7C" d="M457.3,479.7c-4.4,2.7-9.4,4.3-14.5,4.8C450.6,487.3,454.5,486,457.3,479.7z"/>
		<path fill="#283F7C" d="M464.4,458.1c0.3-2.9,1.6-6.4-2.7-8c-5-1.9-10-1.3-12.7,1.8c-2.8,3.1-5.7,5.4-10.4,5.5
			c-7.5,0.1-12.6,6.5-11.4,13c0.8,4.3,6.4,7.5,13.2,7.6C452.4,478.1,463.2,469.3,464.4,458.1z"/>
		<path fill="#F4FCF0" d="M460.9,434.1c3,1.9,6,0.5,8.2-0.8c2.1-1.3,0.5-3.9-0.2-5.9c-1.1-3.3-2.7-6.4-4.9-9.1
			c-1.8-2.2-4.1-3.7-6.9-2.6c-3,1.2-4.5,3.7-4.9,7.1C453.1,428,456.5,431.4,460.9,434.1z"/>
		<path fill="#283F7C" d="M447.9,426.8c-3.4,1-1.1,5.7-2.5,8.4c-0.1,0.3-0.1,0.7-0.1,1l0,0c-0.1,4.3,4.8,8.9,9.1,8.9
			c2,0,3.9,0.7,5.9,0.6c1.7,0,3.7,2.4,4.8,0.4c0.8-1.6-0.7-3.8-1.5-5.6c-0.6-1.3-1.9-1.8-3.1-2.3c-2.9-1.4-5.2-3.5-7.5-5.6
			C450.8,430.8,450.8,426,447.9,426.8z"/>
		<path fill="#FDE9DE" d="M662.9,428.2c-2.8-13.7-7.9-26.8-12.6-39.9c-6.2-17.3-11.6-35-9-53.6c1.2-8.5-0.6-16.1-2.7-24
			c-0.5-1.9-7.7-5.3-9.4-4.6c-1,0.5-0.3,1-0.1,1.6c2.2,6.5,1.9,13.1,0.7,19.7c-0.3,1.8,0.7,5.2-1.2,5.1c-2.3-0.1-1.1-3.9-2.4-5.8
			c-0.3-0.5,0.3-1.6,0.4-2.4c0.9-7.2-4.1-13.7-11.3-14.7c-0.9-0.1-1.9-0.1-2.8-0.1c-1,0.2-1.9,0.5-2.8,0.9c0.5,0.6,1,1.2,1.5,1.8
			c5.6,5.4,8.4,12.2,10.2,19.6c1.5,6.1,0.2,12.3,1.1,18.4c1.5,10.8-2.5,20.3-6.3,29.8c-2.3,6-8,10-14.4,10
			c-6.9,0.2-11.4-4.1-14.4-9.9c-1.3-2.9-2.5-5.8-3.4-8.8c-4.5-13.3-5.9-26.9-2.8-40.7c0,0-0.1,0.1-0.1,0.2v-0.1
			c-1,0.9-0.4,3.6-2.3,3.1c-1.8-0.5-0.6-2.5-0.4-3.9c2.2-14.9,8.8-28.1,16.4-40.9c0.5-0.9,1-2.6,2.4-1.8c1.4,0.8,0.1,2.1-0.4,3
			c-6.3,11.3-13.1,22.5-15.1,35.6c-0.2,1.6-0.5,3.2-0.7,4.8l0,0c3.6-8,7.3-15.9,10.7-23.9c1.9-4.6,6.5-7.7,6.9-13
			c0.1-1.2-0.1-3.1,1.8-3c2.2,0,2.1,1.9,1.8,3.4c-0.7,3.7,1.4,4.6,4.4,4.9c2.5,0.4,5,0.4,7.4,0.1c5.3-0.8,5.2-0.3,9.8,0.7
			c3,0.6,5.4-2.1,7.9-3.7c2-1.2,1.1-2.9,0.6-4.4c-1.9-5.2-4-10.2-5.8-15.4c-2.8-7.8-6.9-13.8-14.7-18.3c-12.3-7-22.3-17.4-33.1-26.5
			c-7.5-6.3-14.9-12.8-22.5-19.1c-1.1-0.9-1.9-2.4-3.7-2.1c0.4,1.4,0.7,2.8,1.1,4.2c0,0.2,0.1,0.3,0.2,0.5
			c12.2,35.6,21.8,71.6,20.1,109.7c-1,22.4-0.8,45.3-9.4,66.4c-5.5,13.7-9,27.7-12.8,41.7c-2.7,9.9-6.9,19.1-14.1,26.7
			c-1.8,1.8-2.9,3-3.9-0.6c-5.1-18.4-13.1-35.6-22.1-52.3c-20.6-38.1-44.1-74.5-66-111.9c-0.3-0.5-0.6-1.2-1.6-0.6
			c0.1,0.9,0.3,1.9,0.4,2.9c3.8,24.3,7.5,48.7,9.7,73.2c0.6,6.3,0.4,6.3,6.7,5.6c1-0.1,2-0.1,3-0.1c0.9,0,2.5-0.2,2.6,0.8
			c0.2,1.8-1.6,1.2-2.6,1.3c-8.7,1.1-9.2,1.7-9.5,9.4c-0.1,2.1,0.4,3.2,2.8,2.7c9.8-1.8,20-1.3,29.1-6.4c1.2-0.7,2.7-1.5,3.5,0.1
			c0.9,1.7-0.6,2.7-1.9,3.5c-3.7,2-7.6,3.4-11.7,4.1c-6.6,1.3-13.5,1.1-19.9,3.4c1.8,0.1,3.6,0,5.5-0.1c8.1-0.5,16.3-1.1,24.4-1.5
			c1.3-0.1,3-0.3,3.3,1.4c0.3,2-1.4,2.4-3,2.5c-2.2,0.2-4.3,0.2-6.5,0.3c-0.9,0.1-2.3-0.5-2.6,0.7c-0.3,1.5,1.2,1.6,2.3,2.1
			c4,1.6,8,3.2,12,4.9c1.2,0.5,2.8,1,2.1,2.8c-0.8,1.9-2.3,1.3-3.8,0.7c-4.5-1.8-8.9-3.7-13.5-5.2c-7.3-2.5-14.7-4-22.3-0.7
			c-0.9,0.4-2.1,0.6-2,1.8c0.1,0.4,1.3,0.7,2,1c9.4,3,15.3,9.5,19.5,18.1c3.3,6.8,3.7,14.1,4.1,21.4c0.5,9.8-0.8,19.7-3.8,29
			c-4.6,14.2-30,25.3-43.7,12.1c-4.5-4.4-9.8-7.9-13.7-13c0.4,4.9,3.3,7.9,7,10.4c2.1,1.4,4.3,2.7,5.6,4.9c0.5,0.9,0.9,1.9-0.1,2.7
			c-0.7,0.7-1.9,0.6-2.5-0.1c0-0.1-0.1-0.1-0.1-0.2c-2.1-2.5-5.1-3.7-7.4-5.9c-2.5-2.4-3.2-1-3.7,1.3c-0.3,1.4,0.3,3.4-2.1,3.1
			c-1.7-0.2-1.9-1.8-1.9-3.1c-0.1-13.8-4.4-27.6-0.9-41.6c-4,7.6-5.7,15.8-6.8,24.1c-0.3,2,1.2,5.9-1.3,5.8c-2.1-0.1-1-4.3-0.8-6.6
			c1.1-12.8,6.3-24.3,11.7-35.8c6.5-13.8,18-23.8,26.1-36.2c0.5-1.1,1.7-1.6,2.9-1.2c3.4,0.7,6.6-0.8,7.7-3.7
			c1.1-2.7,1.5-7.4-0.7-8.9c-2.6-1.8-5.7,1.4-8.3,3.1c-1.5,1.1-2.9,2.2-4.3,3.5c-10,9.1-18.2,20-24.2,32.1c-0.6,1.1-0.9,3.2-2.4,2.6
			c-2.2-1-0.2-2.7,0.4-3.7c6.3-12.7,15-24.1,25.5-33.6c3.1-2.8,6.5-5.4,10.6-6.4c3-0.7,3.5-1.9,3.3-4.8c-1.3-15.8-3.6-31.4-7-46.9
			c-3.9-17-8.6-33.8-15.9-49.8c-0.5-1.1-0.6-2.8-2.3-2.9c-0.4,1-0.6,2.1-0.6,3.2c-2.7,23.3-6.6,46.5-11.6,69.4
			c-7.2,32.7-17.6,64.2-35.1,92.9c-1.1,1.7-0.6,3.1-0.3,4.7c7.1,35.4,15.8,70.4,25.6,105.2c3.7,13.2,4.4,13.6,18.1,13.3
			c0.7,0,1.3,0,2,0c8-1.2,15.6,0.2,23,3.1c23.4,9.2,48,12.4,72.7,14c30.4,2,60.4-3.3,90.1-9.8c8.6-1.9,14.8-6.7,18.5-14.9
			c3.3-7.4,6.9-14.5,10.4-21.8c6.7-14.1,13.6-28.2,19.2-42.8C664.5,470.9,667.3,449.9,662.9,428.2z M498.6,472.7
			c-7.1,5.8-14.3,11.4-21.5,17.1c-0.8,0.6-1.8,1.4-2.5,0.3s0.6-1.7,1.3-2.3c4.8-3.8,9.7-7.6,14.6-11.4c3.4-2.6,7.1-5,9.1-9.1
			c0.4-0.7,0.8-1.6,1.8-1.2c0.3,0.1,0.5,0.7,0.7,1C501.6,469.3,500.4,471.3,498.6,472.7z M605.7,433.6c1.1-1.6,1.6-3.7,1.3-5.7
			c-0.2-1-2-2.7,0.3-3c1.4-0.2,1.8,1.6,2.1,3c0.1,0.5,0.1,1,0.1,0.6c0.2,2.8-0.4,4.6-1.6,6c-1.2,1.5-2.8,4.4-4.3,3.2
			C601.6,436.1,604.9,434.9,605.7,433.6z M610.9,505.6c-1.4,3.7-3.9,7-7.1,9.4c-0.5,0.4-1.3,0.7-1.8,0c-0.2-0.3-0.3-1.1-0.1-1.3
			c3-2.6,5.5-5.9,7.2-9.4c0.1-0.2,0.5-0.3,0.8-0.5C611.2,503.9,611.2,504.8,610.9,505.6z"/>
		<path fill="#D3F3FD" d="M417,61.4c0.2,6.2,1.8,7.8,7.9,7.2c4-0.4,7.9-1.1,11.8-1.9c15.3-3.4,30.5-5.6,45.5,1.2
			c2.3,1.1,2.9,0.1,2.5-2.2c-1.3-6.9-2.4-13.8-3.8-20.6c-2.4-12.1-3.6-24.3-7-36.2c-1.1-3.7-3.1-5.4-7.1-5.5
			c-7.3-0.1-14.6-0.7-20.3-1c-15.3-0.2-15.4-0.2-20.7,12.3C419.5,29.4,416.5,45.4,417,61.4z M443.7,53.6c4.1-6.7,4.7-14.5,6.1-22
			s3.5-15-0.1-22.5c-0.3-0.5-0.2-1.2,0.3-1.6c0,0,0.1-0.1,0.2-0.1c0.8-0.4,1.3,0.3,1.6,0.8c1.8,3.1,2.3,6.6,2.3,11.7
			c-1.6,9.9-2.3,21.7-7,32.5c-4.3,10-15.1,11.9-21.8,4.3c-0.7-0.7-1.3-1.6-1.7-2.5c-0.6-1.4-2.3-3.4-0.4-4.3
			c1.6-0.7,1.6,1.9,2.3,3.1C429.7,60.7,439.2,61,443.7,53.6z M420.2,39.6c0.2-0.3,0.7-0.5,1.1-0.7c7.7-2.3,11.7-7.8,12-16
			c0.1-1.9-1.6-5.5,0.6-5.5c2.6,0,1.1,3.8,1.7,5.7c-0.4,7.8-3.8,13.5-10.2,17.5c-1.4,0.9-2.9,1.9-4.5,0.5
			C420.4,40.8,419.8,40.3,420.2,39.6z"/>
		<path fill="#6E647D" d="M699.7,417.6c1.7,7.3,3.2,14.6,4.6,22c3.4,17.5,5.3,35.2,7,52.9c0.1,0.7,0.3,1.4,0.4,2
			c0-0.5,0.1-1,0.1-1.5c0.5-22.7,0.8-45.3-1.2-67.9c-1.8-20.4-7.1-40.1-11-60c-9-46.4-22.9-91.8-41.5-135.3
			c-8.3-19.5-18-38.3-29-56.3c-11.2-18.2-27.2-32-41.3-47.5c-9.2-10.2-21.3-17-33.1-23.8c-14.4-8.4-29.3-15.8-44.7-22.1
			c-5.4-2.2-10.8-6.1-17.3-3.1c-0.5,0.2-1.6-0.3-2.3-0.8c-3.3-2.4-6.9-1.9-10.6-1.8c-1.7,0-4.3,2-4.8-0.3c-0.4-2.1,2.8-1.3,4.2-2.2
			c0.2-0.1,0.2-0.5,0.3-0.8c-0.6-0.3-1.2-0.6-1.8-0.8c-12.4-5-24.9-3-37.4-0.5c-7.4,1.4-14.8,3.6-22.2,3.7
			c-5.8,0.1-11.2,0.1-16.5,2.6c-44.8,21.3-78.9,53.8-103,97.1c-0.5,0.8-1.3,2.2-1,2.6c2.1,3.1-0.4,5-1.8,7.1
			c-17.5,27.2-27.1,58.7-27.7,91c-0.5,23.3,1.1,46.6,1.8,69.9c0.2,8-0.3,16.1,0.9,23.9c5.6,39.2,12.9,78.1,21.3,116.8
			c12.1,56.1,28.5,110.8,51.8,163.3c4.4,9.9,9.4,19.5,14.7,28.9c0.3,0.7,0.9,1.4,1.6,1.8c0.7,0.3,0.7-0.5,0.7-0.9
			c-1-4.8,0.1-10.4-2.9-14.4c-7.3-9.6-13-20.1-18.1-30.9c-16.8-35.8-24-74.2-31-112.7c-1.1-6,1.4-11.9-0.7-18.1
			c-2.2-6.7-2.4-14.1-2.4-21.3c0-0.9-0.4-2.3,0.9-2.4s1.2,1.3,1.3,2.2c0.1,0.7,0.2,1.3,0.2,2c0.2,11.5,2.2,22.9,5.7,33.8
			c12.6,39.3,27.9,77.7,45.6,115c5.2,11.1,8.9,23.6,19.7,31.3c0.6,0.5,1.4,1.8,0.5,2c-5.1,1.2-1,3.6-0.3,4.7
			c5.7,10,12.3,19.4,19.7,28.3c10.5,12.5,22.6,23.1,37.1,30.7c0.8,0.4,1.9,1.6,2.6,0.7c0.7-0.9-0.5-1.7-1-2.5
			c-2.9-4.3-6.1-8.3-8.8-12.7c-17-27.9-25.1-58.2-23.4-90.9c0.3-6,0.3-11.8-2-17.6c-6.9-17.9-12.7-36.1-17.4-54.7
			c-4.9-18.3-8.8-36.9-11.6-55.7c-0.2-1.6-1-3.8,1.3-4.2c2.4-0.4,2.1,2,2.4,3.5c0.7,3.6,1.3,7.2,1.9,10.8
			c7.5,41.8,19.6,82.6,36,121.7c2.8,6.9,6.6,13.5,11.2,19.4c0.4,0.5,0.8,1.6,1.8,1c0.2-0.1-0.1-1.2-0.3-1.8
			c-0.2-0.8-0.6-1.6-0.8-2.3c-10-28.4-19.3-57-27.8-85.9c-10.8-36.7-19.6-73.9-27.8-111.3c-10.9-49.6-20.3-99.4-23-150.3
			c-1.9-35.9-0.1-71.6,7.5-106.8c2.2-10.2,5-20.4,8.3-30.3c0.4-1.3,0.9-3.3,2.9-2.7c2.1,0.6,1.2,2.5,0.8,3.8c-0.9,3-1.9,6-2.8,9
			c-10.8,36.9-14.5,74.7-13.4,113c0.7,23,2.7,45.9,6,68.6c3.9,27.7,8.9,55.1,15.4,82.2c0.2,0.9,0.5,2.5,1.1,2.6
			c1.4,0.4,1.7-1.3,2.2-2.2c7.8-14,14.3-28.6,19.4-43.8c10.4-30.2,16.1-61.4,20.9-92.8c3.5-22.6,3.9-44.9-3.5-67
			c-4.1-12.2-8.9-24-14-35.8c-0.6-1.5-1.7-3.4,0.5-4.3c2-0.8,2.4,1.3,2.9,2.6c2,4.4,3.9,8.8,5.7,13.3c8.3,19.9,15.1,40.2,14.7,62.2
			c0,1.5,0.5,3,1.4,4.1c3.1,4.2,5,9,6.8,13.8c7.2,19.2,12.3,39,16.4,59.1l0,0c0-0.8,0-1.6,0-2.3c-2.8-22.1-6.6-44-10.3-65.9
			c-3.5-20.7-10.6-40.5-15.2-60.9c-5.2-23-15.3-44.6-29.6-63.4c-0.7-0.9-2.4-2.2-1-3.2c1.5-1.1,2.2,1,2.9,1.9
			c3.3,4.6,6.6,9.2,9.5,14.1c12.7,21.2,19.7,44.6,26.1,68.3c0.5,1.9,0.7,4.6,2,5.5c7.9,5.4,11.2,13.8,15.1,21.8
			c15.4,31.9,30.7,63.9,46,95.9c1.6,3.3,3.2,6.6,4.8,9.9c0.4,0.8,1.2,2.1,0.1,2.7c-1.6,0.8-1.7-0.9-2.3-1.8
			c-0.3-0.4-0.4-0.9-0.7-1.3c-16.7-34.8-33.3-69.6-50-104.5c-2.5-5.6-5.6-11-9.2-16c-0.6-0.8-1.2-2.1-2.2-1.5
			c-0.9,0.5-0.3,1.8-0.1,2.7c1.8,8.3,3.4,16.6,5.3,24.8c1.3,5.8,1.4,11.9,4.7,17.2c10.8,17.8,21.6,35.6,32.2,53.5
			c21.6,36.5,45.1,72,58.4,112.8c1.1,3.2,2.3,2,3.6,0.3c5.2-6.7,9-14.5,11-22.8c2.6-10,4.6-20,7-30.1c4.7-19.8,9.2-39.5,9.9-60
			c1.5-39.2-5.5-78.3-20.5-114.6c-0.5-1.3-2.6-3.1-0.3-4.2c1.5-0.7,1.8,1.6,2.2,2.7c18.6,44.5,25.1,93.1,18.7,140.9
			c-1,7.7-3.7,15.1-4.6,23.5c0.5-0.5,0.9-1.1,1.3-1.7c0.5-1.6,1-3.2,1.4-4.8c6.1-26.8,8.2-54.3,6.3-81.7
			c-2.1-32.2-10.5-62.9-21.9-92.8c-1.8-4.8-7.3-8.2-6-14.3c-11.1-25.2-25.1-48.9-41.9-70.7c-2.3-3.3-5.5-5.9-9.2-7.5
			c-1.1-0.5-3.3-0.2-2.7-2c0.5-1.3,2.4-0.6,3.6-0.1c5.7,2.2,9.5,6.7,12.8,11.5c3.6,5.3,8.2,9.7,13.6,13.2
			c38.4,25.2,68.7,58.3,91.9,97.9c23.7,40.4,37.6,84,40.8,130.8c0.9,13.4,2.1,26.4,7,39.3c8.9,23.4,11.7,47.6,3.8,71.9
			c-3.4,10.4-3.5,20.1-2,30.9c5.4,38.1,6.5,76.3,0.3,114.5c-1.8,10.9-1.4,22.2-2.7,33.3c2.9-4.5,4.2-9.7,5.3-14.8
			c8.1-37,15.7-74.2,24.2-111.2c6.9-30.3,8.6-61,7.5-91.8c-0.6-16.4,1.4-33.1-5.3-48.8c-0.4-0.9-1.2-2.7,0.3-3c2-0.5,1.5,1.7,2,2.7
			c1,1.7,0.4,4.3,2.2,5.4c2.4,1.3,2.7,1.1,2.5,2.9C696.8,405.3,698.3,411.5,699.7,417.6z M326.7,495.2c-2.1,0.8-2.4-2.9-3.1-4.8
			c-15.3-38.2-25-78.4-28.8-119.4c-1.4-14.3-1.9-28.6-2.1-42.9c-0.2-49.9,8.3-99.4,24.9-146.4c0.6-1.8,0.5-5.4,3.1-4.7
			c1.8,0.5-0.2,3.5-0.8,5.3c-19.2,54-27,109.8-24.4,166.9c2.2,48.1,12.4,95.6,30.2,140.3C326.4,491.5,328.8,494.4,326.7,495.2z
			 M372,509.3c1.7,0,1.3,1.7,1.4,2.7c2,13.8,3.8,27.7,5.9,41.5c5.1,33.4,12,66.4,24.7,97.9c0.2,0.5,0.4,0.9,0.5,1.4
			c0.3,1,1.5,2.4-0.2,2.9c-1.5,0.5-1.7-1.4-2.1-2.3c-1.2-2.7-2.2-5.6-3.3-8.4c-11.8-31.7-18.1-64.6-23-97.9
			c-1.7-11.8-3.3-23.7-4.9-35.6C371.2,510.7,370.7,509.3,372,509.3z M539.9,231.2c1.9-0.6,2.1,3.5,2.7,5.6
			c9,31.1,13.7,64,13.7,103.8c-0.2,22.1-3.7,51.1-11,79.6c-0.2,1-0.5,1.9-0.8,2.9c-0.4,1.2-0.2,3.2-2.1,2.6
			c-1.1-0.4-0.5-2.1-0.2-3.2c2.9-10.9,5.3-22,7.1-33.1c8.5-51.4,5.3-102.1-8.9-152.2C539.8,235.2,537.3,232,539.9,231.2z
			 M491.3,183.2c9.2,38.5,18.1,77.1,27,115.6c2.7,11.5,6,22.9,6,34.8c0,2.3,0,4.7,0,7c0,0.8-0.2,1.8-1.3,1.7c-1.1-0.1-0.9-1.2-0.9-2
			c-1.1-35.6-13.6-69-20.6-103.5c-4.1-20.2-8.4-40.4-14.4-60.1c-3.4-11.1-8-21.5-15.2-30.7c-0.7-0.9-2.7-2.1-1.2-3.2
			c1.7-1.2,2.4,1.1,3.2,2.1C482.8,156.2,488,169.3,491.3,183.2z M625.5,221.6c-6-11-11-22.7-18.8-32.8c-0.8-1-2.8-2.6-1-3.7
			c1.5-0.9,2.2,1.4,3,2.6c2.4,3.7,4.8,7.4,7.2,11.1c-1.7-8-5.5-14.9-10-21.4c-22.2-32-50.2-57.6-83.6-77.4c-1.4-0.9-4.6-1.7-3.7-3.2
			c1.4-2.2,3.5,0.4,5,1.3c33.4,19.5,61.1,45.4,83.8,76.7c4.3,6,8.3,12.3,10.1,19.4c4,15.5,12.2,29,19,43.2
			c18.4,38.6,31.1,79.8,37.6,122.1c0.3,2,2,5.4-0.5,6c-1.7,0.4-1.4-3.5-1.7-5.5C664.1,311.3,649.3,264.9,625.5,221.6z M684.2,506.1
			c-1.6,15.9-2.4,31.8-5,47.6c-0.8,4.8-2.2,9.4-4.1,13.8c-0.3,0.8-0.8,1.7-1.8,1.3s-0.7-1.4-0.4-2.1c9.1-28.9,8-59.2,11-88.9
			c2.3-22.6-1.9-45.1-2.5-67.7c-0.2-7.6-1-15.3-1.4-22.9c-0.2-4-0.6-7.9-2.3-11.6c-0.4-0.8-1.4-2-0.3-2.6c1.5-0.8,1.9,0.9,2.4,1.8
			c1.4,2.7,2.2,5.6,2.3,8.6c1.7,28.1,3.4,56.1,5.2,86.5C686.5,480.5,685.5,493.3,684.2,506.1z"/>
		<path fill="#6E647D" d="M644.6,529c-0.1-0.6-0.3-1.2-0.6-1.8c-0.3,0.3-0.9,0.5-1,0.8c-2.1,5-6,9.5-5.9,15.1
			c0.4,19.7,4.3,38.9,10.3,59c0.9-2.6,1-5.5,0.4-8.2c-4.3-18.2-3.8-36.6-3.3-55C644.6,535.6,644.6,532.3,644.6,529z"/>
		<path d="M843.1,540.4c0,178.3,0,356.7,0.1,535c0,4-0.8,4.9-4.9,4.9c-277.8-0.1-555.7-0.1-833.5,0c-4,0-4.9-0.8-4.9-4.9v4.9h843.2
			V4.9C843.1,183.4,843.1,361.9,843.1,540.4z"/>
		<path d="M581.2,330.6L581.2,330.6L581.2,330.6z"/>
		<path d="M0,4.9C0,0.8,0.8,0,4.9,0H0v1075.4C0.1,718.5,0.1,361.7,0,4.9z"/>
		<path fill="#283F7C" d="M430.1,456c1.6-1.5-0.4-1.9-1.1-2.4c-1.9-1.6-3.6-3.4-4.9-5.5c-0.3-0.5-0.8-1-1.4-1.8
			c-0.2,0.5-0.3,1-0.4,1.6c0.5,3.3,1.4,6.5,3.8,8.9C427.6,458.1,429,456.9,430.1,456z"/>
		<path fill="#6E647D" d="M294.3,632.7c2.6-0.8,2.5,2.5,3,4.2c4.8,15.8,12.1,30.7,21.5,44.3c1.9,2.7,6.6,5,3,9.6
			c-0.2,0.2,0.7,1.4,1.2,2c8.1,9.9,16.4,19.7,26,28.3c-6.8-12.2-14.2-24-19.8-36.8c-7.6-17.4-13.8-35.3-17.4-54
			c-0.3-1.4-2.1-3.7,0.4-4.1c1.8-0.3,1.6,2.5,1.9,4c5.2,24.9,14.1,49,26.4,71.2c3.8,6.9,7.2,14.2,13,19.9c-0.1,0.2-0.2,0.4-0.3,0.6
			c0.1-0.2,0.2-0.4,0.3-0.6c-1-4.9-2.1-9.8-3.1-14.6c-0.9-4.3-2.6-8.4-2.4-13.1c0.2-5.4-1.4-10.8-2.2-16.3c-1.2-8-1-16.6-3.9-24
			c-6.5-16.4-13.8-32.4-19.6-49.1c-0.8-2.3-1.9-3.1-4.4-2.7c-12.2,1.8-24.3,0.5-36.1-2.6c-3.7-1-4.5-0.2-4.8,3.4
			c-1.8,20.3,0.6,40.2,5.8,59.8c2.9,10.9,6.9,21.5,12,31.7c0.4,0.7,0.9,1.9,1.4,1.9c1.4,0,0.8-1.5,1.2-2.3c0.2-0.6,0.4-1.3,0.4-1.9
			c0.9-17.9,2.6-35.8-4-53.2C293.1,636.4,291.3,633.6,294.3,632.7z"/>
		<path fill="#6E647D" d="M247.9,666.5c8.7,19.2,21.8,34.5,40.5,44.8c1.2,0.7,2.7,2.4,4,1.1c1.5-1.4,2.1-3.5,1.6-5.5
			c-0.4-1.1-0.9-2.1-1.5-3.1c-5.6-11.2-11.3-22.3-16.1-33.8c-9.9-24-16.3-48.6-13-74.8c0.4-2.8-1.2-3.4-3-4.3
			c-8.4-4.4-16.2-10-23.1-16.6c-8.1-7.8-14.2-16.7-15.9-28.2c-1.7-10.9-2.7-21.8-3.1-32.8c-0.3-16.4,2.2-32.3,12.2-46
			c1.5-2,0.8-3-0.4-4.6c-8.8-11.4-9.6-23.7-3.3-36.5c1-2,1.6-3.8,0.7-6.1c-11.8-29.8-15.1-61.2-17.6-92.8c-0.3-4.4-1.3-8.4-4.1-12
			c-4.8-6.6-8.8-13.8-11.9-21.3c-14.5-33.8-18.9-69.8-23.1-105.9c-0.1-1,0.8-2.6-0.8-2.9c-0.5-0.1-1.4,1.3-1.9,2.1
			c-8.6,12.3-15.9,25.4-21.9,39.2c-16.5,38.4-20.8,79.5-23.4,120.4c-2.8,44.3-2.4,88.7,9.1,132.2c0.4,1.6,0.9,4-1.6,3.8
			c-3.3-0.3-2.1,1.9-2.1,3.1c0,12.8-0.2,25.7,0.2,38.5c0.3,10.4,1.3,20.7,2,31.1c0.7-0.3,1.1-1,1.2-1.7c-0.3-19.7,3.2-39.2,2.1-58.9
			c-0.1-1.7-1.1-4.9,1.8-4.8c2.8,0.1,1.7,3.2,1.7,4.9c-0.3,8.5,0.5,17,1.3,25.4c2.8,29.3,9.7,57.7,19.6,85.4
			c7.2,20.1,15.9,39.6,26.2,58.2c-2.1-15.5-6.4-30.5-10.6-45.5c-5.2-18.2-12.5-35.8-18-53.9c-0.3-0.9-0.7-1.7-1.2-2.5
			c-4.9,2-3.3-2.5-3.6-4c-10.7-50.2-15.1-101.5-13.4-152.8c0.7-23.1,2.7-46.2,6.1-69.1c0.3-2-0.4-5.8,1.7-5.4c2.3,0.4,0.7,4,0.5,6
			c-9.9,70.2-8,141.6,5.4,211.2c0.5,2.6-0.6,6.8,4.6,6.3c0.9-0.1,1.2,1.4,1.5,2.4c7,20.2,12.5,40.8,21.2,60.5
			c3.8,8.7,6.6,18.3,10,27.5c5.1,14.1,12.8,27.2,22.7,38.5c12.5,14,27.4,25.2,42.8,35.6c0.7,0.5,1.7,1.7,2.5,0.7
			c0.8-0.9,0.1-2.2-0.2-3.3c-4-14.6-8.3-29.1-12.1-43.8c-3.8-14.6-9.4-28.9-9.9-44.2c-0.1-1.8-0.6-4.3,1.7-4.5
			c2.8-0.2,1.9,2.6,2,4.2c0.3,6.4,1.4,12.7,3.2,18.8c1.8-1.5,1.4-5.1,4.3-3.8c2.4,1,0.5,3.2,0.1,4.8
			C244,654.1,245.1,660.4,247.9,666.5z M229.8,663.6c-1,0.8-2-0.8-2.7-1.6c-8.6-9.5-16.4-19.8-23.1-30.7
			c-20.3-32.4-32.5-68-40.9-105c-6.6-29.2-10.6-58.9-14.8-88.5c-0.1-0.7-0.2-1.3-0.2-2c0.1-0.9-0.5-2.3,1-2.3c1.3,0,1.2,1.4,1.3,2.3
			c1.3,9.4,2.6,18.8,4,28.2c6.3,43.9,14.4,87.3,32,128.3c10.5,24.4,23.7,47.2,41.7,66.9c0,0,0,0,0.1,0c-8.8-25.9-17-52-23.4-78.6
			c-9.5-39-16.1-78.6-19.8-118.5c-2.4-26.1-3.6-52.2-3.5-78.3c0.1-24.6,1.4-49.2,3.8-73.8c0-0.7,0.1-1.3,0.3-2
			c0.4-0.9-0.1-2.8,1.7-2.4c1.1,0.2,0.7,1.6,0.6,2.6c-0.9,12.6-1.9,25.2-2.8,37.8c-1.7,27.2-1.8,54.6-0.3,81.8
			c1.2,25.4,3.8,50.8,7.4,76c7.4,50.7,19.6,100.6,36.4,149c0.7,2,3.1,4.5-0.5,6.3c0,0.1,0,0.1,0.1,0.2l0,0l0,0l0,0l-0.1-0.1l0,0
			c0.4,0.4,0.7,0.7,0.9,1.2C229.4,661.4,231.4,662.4,229.8,663.6z"/>
		<path fill="#6E647D" d="M263.1,97.2c0.9-0.7,1.8-1.4,2.8-2c-3.6,0-6.4,1.7-9.1,3.5c-20.3,13.3-38.4,29.2-55.4,46.5
			c-0.7,0.7-2,1.5-1.3,2.4c0.6,0.7,2,1,3.1,1.1c10,0.3,19.9,1.5,29.7,3.5c3.6,0.8,5.5,0.1,7.7-3.1c17.5-25.5,39.9-47.2,65.9-63.9
			c10.6-6.9,21.7-12.7,33-18.4c-6.5,1.6-12.8,3.5-19,5.6c-11,3.8-21.7,8.5-32,14c-7.9,4.2-15.6,8.9-23.1,14c-1.2,0.9-2.7,2-4,0.4
			C260.2,99,262,98.1,263.1,97.2z"/>
		<path fill="#FDE9DE" d="M535.6,616.9c1.4-10.1,3.2-20.1,8.4-29.1c0.8-1.4,2.9-2.6,1.7-4.3c-0.5-0.8-2.8-0.4-4.3-0.4
			c-33.6,0.7-66.4-3.3-98.1-14.9c-6.4-2.4-13.3-3.3-20.1-2.5c-3.8,0.6-7.7,0.4-11.4-0.4c-4.2-1.1-4.7,0.2-3.5,4.1
			c8.3,27.4,17.4,54.5,27.2,81.4c0.7,1.9,1.4,3.7,3.3,4.8c1.3,0.8,3.6,1.6,1.9,3.7c-1.4,1.8-3.1,0.2-4.4-0.6
			c-7.2-4.5-12.5-10.9-16.9-18.1c-3.6-6.2-6.7-12.6-9.4-19.3c-0.2-0.5-0.8-1.4-1.2-1.4c-0.8,0-0.6,1-0.7,1.5
			c-0.2,3.3-0.6,6.7-0.5,10c1.1,36.3,12.4,68.9,35.5,97.1c1,1.2,3.1,2.4,1.7,4.1c-1.2,1.4-3.1,0.3-4.6-0.4
			c-8.3-3.4-15.5-8.4-22.4-13.9c-18.6-14.7-32.1-33.7-43.6-54.1c-2.8-5.1-6.2-9.9-10.2-14.1c-0.6-0.7-1-2.2-2.1-1.8
			s-0.5,1.7-0.4,2.6c1,8.1,1.6,16.2,3.1,24.2c2.5,13.4,3.5,27.6,14.9,37.6c0.8,0.6,1,1.7,0.4,2.6l-0.1,0.1c-1,1.2-2,0.6-3.1-0.1
			c-6.6-4.6-10.1-11.8-12.5-18.7c-1.6-4.6-4.1-8.5-6-12.8c-0.3-0.6-0.6-1.4-1.4-1.1c-0.3,0.1-0.5,0.8-0.6,1.2
			c-2.1,8.5-6.2,16.4-3.2,25.9c2.6,8.1,4.6,16.3,9.3,23.5c1,1.5,4.5,2.7,3,4.2c-1.7,1.6-3.5-1.5-5-2.8
			c-13.9-11.9-26.7-25.1-38.3-39.4c-0.6-0.8-1.3-1.9-2.1-2c-1.1-0.1-0.7,1.2-0.7,2c-0.2,11.5-3.5,22.3-6.6,33.2s-6.3,21.8-6.6,33.2
			c-0.2,7.5,3,12.8,9.7,16c3.3,1.6,6.7,2.9,10.2,4c16.1,4.8,32.6,6.4,49.3,7.3c8.4-0.5,17,0.1,24.6-4.9
			c11.4-7.5,23.8-13.5,36.8-17.7c10.7-3.5,20.6-8.5,29-16.2c5.3-4.6,11.2-8.4,17.6-11.3c16.9-8,34.1-15.2,52.3-19.6
			c4.3-1,4.8-2.1,2.7-6c-7.8-14.3-11.1-30.5-9.7-46.7C530.1,650.1,533.3,633.6,535.6,616.9z"/>
		<path d="M353.2,722c-0.2,0.4-0.4,0.6-0.6,0.8C352.8,722.5,353,722.3,353.2,722z"/>
		<path d="M4.9,0c277.8,0.1,555.7,0.1,833.5,0c4,0,4.9,0.8,4.9,4.9V0H4.9z"/>
		<path fill="#D9E2E4" d="M224.8,952.5c1.4-30.8,3.4-61.5,8.3-92c0.9-4.2-0.3-8.6-3.2-11.8c-6.5-8-12.1-16.8-16.6-26.1
			c-11.1-22.4-13.6-45.6-6.9-69.9c4.3-15.9,9.5-31.5,15.8-46.8c1.7-4,0.8-6.1-2.2-8.7c-13.6-12.1-24.5-26.3-31.7-43.1
			c-0.4-0.9-0.4-2.3-2.2-2.6c3.2,10.7,4.1,21.7,8.8,31.8c3.1,6.7,7.3,12.7,10.8,19.1c0.9,1.6,3.2,3.7,0.8,5.1
			c-2.5,1.5-2.9-1.8-4.1-3.1c-0.5-0.7-0.9-1.4-1.3-2.1C170,651.1,146,597.1,136.5,537.4c-1.4,8.9-1.2,17.9-1.3,26.8
			c-0.2,13.3-1.5,26.6,0.1,39.9c1.1,9.3,2,18.5,3,27.8c2,17.2,3.1,34.5,7,51.4c5.2,22.5,14.5,42.5,35.1,55.4
			c1.2,0.7,2.5,1.6,1.6,3.1c-1.1,1.8-2.7,0.7-3.9,0c-8.2-4.9-15.2-11.5-20.5-19.4c-12.4-17.8-17.1-38.1-19.5-59.1
			c-3.3-28.9-6.3-57.9-9.3-86.9c-3.1-30-5.2-60-4.5-90.2c0.2-7.3,1.8-14.7,0.4-21.9c-3.1-16.7-5-33.6-5.9-50.5
			c-1.3-25.4-1.2-50.9,0.5-76.3c1-16.7,4.5-33.3,6.7-50c5-38.7,18.4-74.1,41.4-105.8c2.3-3,3.6-6.7,3.7-10.5
			c0.3-7,1.7-13.9,4.3-20.4c1-2.6,1.9-3.7,5.4-3.1c6.9,1.2,13.1,0.6,18.7-5.6c14-15.5,30.1-28.7,47-41c9.2-6.7,18.8-12.7,30.7-13.3
			c1.4-0.1,2.8-1,4.1-1.8c21.8-12.3,45.4-21.1,69.9-26c2.6-0.4,4.9-2.1,5.9-4.6c6.8-13.9,15.2-27,25-39.1c2.8-3.5,5.8-6.9,8.7-10.3
			c0.8-1,2.7-1.7,1.9-3.1c-0.4-0.7-2.4-0.4-3.7-0.5c-0.3,0-0.7,0-1,0c-126.5,0-253,0-379.5-0.1c-4.7,0-6.1,1-6.1,5.9
			c0.1,354.7,0.1,709.3,0,1064c0,5,1.5,5.9,6.1,5.9c66.7-0.2,133.3-0.2,200-0.1c1.2,0,2.3,0,3.5,0c2.6,0,3.9-1.3,4.1-3.9
			c1.2-11.4,2.8-22.8,3.9-34.2C222.4,1010.7,223.4,981.6,224.8,952.5z"/>
		<path fill="#6E647D" d="M358,633.6c-4.4-9.9-8.9-19.7-13.2-29.6c-2.3-5.2-4.5-10.5-6.8-15.8c5.1,16,11,31.6,18.7,46.4
			c0.3,0.6,0.8,1.8,1.7,1.1C359.3,635.2,358.3,634.3,358,633.6z"/>
		<path fill="#766EAE" d="M363.2,57.7c6.6-1.8,13.5-1.7,20.3-2.2c9.9-0.8,19.7-1,27.6,6.6c2.1,2,1.9-0.3,1.9-1.4
			c-0.1-6.7,0.4-13.3,1.5-19.9c1.7-10.3,4.6-20.4,8.8-30c3.1-7.3,2.7-7.7-4.7-7.6c-1.8,0-3.7,0-5.5,0v0.1c-1.7,0-3.3,0-5,0
			c-4.1,0-8.8-0.8-11.8,2.4c-14,14.7-25.8,31.4-35,49.5C360,57.7,361,58.3,363.2,57.7z"/>
		<path fill="#4E494F" d="M694.2,882.9c-0.5-0.9-1-2.5-2.4-2c-1,0.4-0.6,1.8-0.5,2.7c0.8,4.7,1.7,9.5,2.7,14.2
			c0.5,2.2,0.6,4.6,2.6,6.2c1.3-2.1,0.3-4.4,0.4-5.7C697.1,892.4,696.7,887.4,694.2,882.9z"/>
		<path fill="#6E647D" d="M355.8,638.3c-14.2-28.7-25.4-58.6-34.6-89.2c-3.1-10.4-5.9-20.8-10-31c1.4,7.5,2.7,15,4.1,22.5
			c5.8,30.4,12.9,60.5,26,88.9c4.2,9.1,9,17.9,14.3,26.3c0.4,0.7,1,1.3,1.7,1.7c0.6,0.3,0.7-0.6,0.7-1
			C357.7,650.4,358.5,643.8,355.8,638.3z"/>
		<path fill="#4E494F" d="M211.7,750.4c-0.5,0.6-0.9,1.3-1.2,2.1c-3.8,14.6-5.6,29.3-2.2,44.3c3.4,14.9,10,28.9,19.5,40.9
			c-0.7-1.9-1.5-3.9-2.3-5.8c-10.3-25.5-17.4-51.6-13.8-79.6C211.8,751.6,211.8,751,211.7,750.4z"/>
		<path fill="#283F7C" d="M421.1,455.8c0.2,2.6-0.1,5.2,1.7,7.2c0.5,0.5,1.2-0.2,1.5-0.8C425.6,459,422.3,457.8,421.1,455.8z"/>
		<path fill="#4E494F" d="M290.4,1042c-20-48.3-38.9-97-47.9-148.8c-1.7-9.7-6-19.4-3.1-29.7c0.2-0.8-0.9-2.7-1.6-2.8
			c-1.6-0.2-1.3,1.6-1.5,2.6c-1.1,7.7-2.3,15.5-3.1,23.3c-4.1,37.3-5.1,74.7-7,112.1c-1.3,24.8-3,49.5-6.5,74.1
			c-0.7,5.1,0.8,5.3,4.9,5.3c20-0.2,40-0.1,60-0.1c5.2-1.4,10.5,0.1,15.8-1.5c3-0.9,3-1.9,2-4.4C298.5,1062,294.6,1051.9,290.4,1042
			z"/>
		<path fill="#786D75" d="M709.9,980.3c-1.7-9.4-4-18.6-8.2-27.3c-0.6,4.6-1,9.2-1.2,13.9c-0.6,21.8-2.5,43.5-4.5,65.3
			c-0.5,5.5-1.2,10.9-1.9,16.4c-0.2,1.6-0.1,3.9-2.3,3.7c-2.9-0.3-1.6-2.7-1.4-4.3c0.2-2.5,0.4-5,0.7-7.5
			c4.7-40.1,6.5-80.3,6.5-120.6c0-1.3,0.2-2.9-0.4-3.9c-6.6-10.9-9-23.1-10.3-35.5c-1.7-16-6.5-30-19.4-41.2
			c-7.6-6.6-14.4-15-18.2-25c-0.9-2.2-2.3-4-4.2-5.4c-1.1-0.8-2.4-1.9-1.3-3.3c1.7-2.1,0.3-3.8-0.5-5.5c-3.1-6.8-6.2-13.6-9.4-20.4
			c-1-2.1-2.3-4.1-3.8-5.8c-1.4-1.6-3.3-2.5-4.6,0.4c-0.7,1.5-1.8,2.7-3.5,1.7c-1.6-1-2.7-2.8-1.5-4.7c1.1-1.5,1.6-3.3,1.4-5.1
			c-1.1-10.6-3.7-21-7.8-30.9c-2.2-5.7-6.9-10-12.7-11.8c-9.5-3.1-19.5-4.7-29.5-4.8c-16.8-0.1-33.1,3.2-48.9,8.7
			c-21.7,7.5-43.3,15.4-60.9,31.2c-4.6,4.1-10.3,6.7-16.1,8.9c-5.3,2-10.7,3.8-15.9,6c-6,2.5-12.4,4.3-17.3,8.6
			c-6.8,5.8-14.9,9.8-22.5,13.7c-17.4,9-36,15.5-54.4,22.3c-11.2,4.1-21.5,3.4-31.8-1.8c-1.1-0.6-3.6-0.7-2.6-2.7
			c0.7-1.4,2.4,0.1,3.5,0.6c7.6,3.3,15.3,6.4,23.6,3.6c19.3-6.4,38.3-13.3,56.6-22.4c1-0.5,2.7-1,2.4-2.2c-0.4-1.5-1.9-0.4-2.9-0.3
			c-2.5,0.1-5,0.5-7.5,0.4c-12.8-0.2-25.5-2.3-38.2-3.9c-12.7-1.6-23.7-8.1-36-10.9c-7.6-1.8-12.3-8.3-15.7-15.2
			c-7.3-14.4-12.8-29.7-16.4-45.4c-0.4-1.8-2-4.7,0.1-5.1c2.1-0.4,1.8,3.1,2.2,4.8c3.8,16,9.6,31.6,17.2,46.2
			c2.8,5.7,7.6,10.3,13.5,12.8c0.9,0.4,2,1,2.7,0c0.2-0.3-0.4-1.5-0.8-2.1c-3.2-5-3.5-10.6-3-16.3c1-10.9,4-21.2,7-31.6
			c3.1-11,6.4-22.1,6.1-33.8c-0.1-4,0.4-8.3-1.9-12.1c-3.1-5.1-6.1-10.3-9.2-15.4c-0.5-0.8-0.5-2.3-1.8-1.9
			c-0.4,0.1-0.5,1.7-0.4,2.7c0.2,11.5,0,22.9-1.9,34.4c-0.9,5.6-4.5,10.6-3.4,16.8c0.4,2.1-3.2,2.2-4.9,3.3c-1,0.6-2.9-0.1-2.8-1.3
			c0.3-3.8-2.8-4.1-4.9-5.3c-5.3-3.2-10.3-6.8-14.9-10.9c-6.8-5.9-12.2-13-17.8-20.1c2.8,11.3,5.9,22.5,8.9,33.7
			c1.5,5.7,3.7,10.5,9.6,13c1.6,0.7,2.8,2.2,1.3,4c-1.2,1.6-2.7,1.5-4.3,0.1c-11.6-10.5-25.7-17.7-37.5-27.9
			c-1.7-1.5-2.8-1.3-3.6,0.9c-1.6,4.4-3.4,8.7-5,13.1c-0.3,0.7-1.5,2,0.1,2.3c4.6,1,2.1,3.6,1.2,5.6c-7.8,17.9-9.3,36.6-6.7,55.8
			c3.3,24.9,13.1,47.7,23.7,70.2c1.2,2.2,2.7,4.2,4.5,6c13.7,15.3,29.2,28.7,43.5,43.4c2.6,2.6,5.2,5.2,7.6,8c1,1.1,2.9,2.5,1,4.2
			c-1.6,1.3-2.7-0.3-3.7-1.4c-0.6-0.6-1.1-1.2-1.7-1.8c-13.4-13.2-26.8-26.4-40.2-39.6c-0.7-0.6-1.5-1.2-2.3-1.8
			c-0.9,1.2,0.2,2.1,0.7,3c9,19.1,18.1,38.2,27,57.4c2.5,5.9,7.9,10.2,14.2,11.2c17.1,3.5,34.3,6.6,51.2,11.1
			c13.4,3.6,24.2,0.8,35.4-7.3c25.2-18.5,51-36.3,76.2-55c1.3-1,3-3.2,4.6-0.9c1.3,1.8-0.9,2.9-2.2,3.8c-28,20.9-56.4,41.4-85.4,61
			c-5.5,3.9-12.4,5.4-19,3.9c-19.5-4.1-39-8.6-58.6-12.2c-10.6-1.9-17-7.2-21.4-17c-8.7-19.6-18.2-38.8-27.4-58.2
			c1.2,14.1,4,27.9,7,41.7c12.4,56.2,36,108.5,57.2,161.6c0.9,2.3,2.4,2.8,4.6,2.8c16.5-0.1,32.9,0.1,49.4,0.5
			c45,0.9,89.9-0.5,134.9-1.4c54-1,108-0.1,161.9,0.8c15.4,0.3,30.7,2.3,46.1-0.1c3.6-0.6,3.1-2.2,3-4.2c-0.4-11.1,0.2-22.3,2-33.3
			C712.6,1019.7,713.6,1000,709.9,980.3z M282,795.9c-1.1,1.5-2.3-0.1-3.2-0.8c-9.4-7.3-16.2-16.7-21.6-27
			c-7-13.2-12.4-27.2-18.1-41c-1.5-3.5-0.8-4.4,3.1-4.1c0.3,0.1,1.4,0.2,1.7,0.7c0.7,1.5-0.8,1.3-1.6,1.7c-1.7,0.9-0.5,2-0.1,2.9
			c5.9,14.1,11.2,28.4,18.8,41.7c5,8.9,11.2,16.9,19.3,23.2C281.2,794,282.9,794.8,282,795.9z M349.2,868.5
			c-3.6,3.7-7.4,7.2-11.3,10.6c-4.2,3.7-9.5,5.8-15,6.2c-5.1-0.3-9.6-2.2-13.9-4.8c-5.2-3.2-10.1-7.1-16.3-8.5
			c-0.7-0.2-1.8-0.4-1.5-1.6c0.3-1.1,1.3-0.7,2.1-0.6c2.8,0.5,5.4,1.6,7.8,3.1c3.9,2.3,7.7,4.7,11.6,6.9c8,4.6,15.6,3.7,22.8-1.8
			c4.8-3.6,8.9-8.1,13.1-12.3c33.6-34.2,70.3-65.3,109.5-92.9c1.6-1.2,4.2-4.1,5.2-2.4c1.4,2.4-2.4,3.2-4.1,4.4
			C419.9,802.7,383,833.7,349.2,868.5z M627.9,785.3c-1.6,1.7-2.6-0.1-3.6-1.1c-5.5-5.6-11.8-4.6-18-1.6
			c-9.5,4.6-18.1,10.5-26.7,16.6c-18.2,13-34.7,28.1-50.8,43.5c-2.2,2.3-3.8,5.1-4.6,8.2c-2.7,8.3-8.1,14.2-15.7,18.6
			c-21.3,12.2-40.7,27.1-59.4,43c-16.9,14.4-33.2,29.7-51.8,42.2c-5,3.3-10,6.7-16.3,6.9c-2.2,0.2-4.3-0.2-6.3-1.1
			c-1.1-0.6-2.1-1.2-1.6-2.7s1.8-1.3,2.9-0.9c5.9,2.5,10.8-0.1,15.4-3.1c15.8-10.6,30.7-22.4,44.5-35.4c22.2-20.7,41.4-44.3,62-66.4
			c29-31.1,58.7-61.4,88.8-91.3c1-1,2.2-3.4,4-1.7c2,1.8-0.3,3.4-1.4,4.5c-15,15.3-30.2,30.6-45.3,45.9
			c-25,25.4-49.3,51.5-72.9,78.2c-0.8,0.8-1.3,1.8-1.7,2.8c12-9.2,25.2-16.5,37.5-25.1c-1.2-0.1-2.7,0.5-3.2-1.2
			c-0.4-1.3,0.5-2.2,1.3-3c4.2-4.3,8.5-8.5,12.7-12.7c3.1-2.8,5.8-6,8.1-9.4c3.2-5.1,9.1-7,13.3-11c16.9-16.1,35-30.8,55-42.9
			c4.8-2.9,9.6-6,15.2-7.4c6.4-1.6,12.6-1.3,17.6,4C627.9,782.5,629.2,783.9,627.9,785.3z"/>
		<path fill="#D9E2E4" d="M840.9,8.8c0-7.2,0.9-6.4-6.3-6.4c-117.7,0-235.3,0-353,0c-0.7,0-1.3,0.1-2,0c-2.8-0.3-4.1,0.3-2.7,3.5
			c1.1,2.9,2,6,2.5,9.1c3.3,17.7,6.6,35.3,9.6,53c0.5,3.1,1.9,4.3,4.6,4.8c1.5,0.3,2.9,0.5,4.4,0.9c16,3.9,30.2,12.1,44.8,19.3
			c7.9,3.9,15.4,8.8,23.4,12.2c8.2,3.5,16.1,7.3,22.8,13.2c30,26.2,58.5,53.9,84.1,84.6c37.3,44.7,53.3,97.2,58,154
			c1.8,21.6-3.8,42.3-9.8,62.8c-0.6,2.1-0.6,6.2-2.6,5.6c-2.4-0.7-0.1-4.1,0.4-6.1c5.2-19.3,10.3-38.6,9.8-58.9
			c-0.3-13.1-2.9-25.8-5.1-38.6c-7.3-43.8-24.5-83-52.8-117.5c-20.3-24.7-43.1-46.8-66.2-68.7c-7.2-6.8-14.3-13.6-22.8-18.8
			c6.4,5.8,11.8,12.5,17.9,18.4c10.7,10.4,20.6,21.3,28.8,33.8c22,33.2,36.4,69.8,49.4,107.1c11.4,32.7,18.7,66.5,26.2,100.3
			c6.7,29.6,10.1,59.8,10.1,90.1c-0.2,25.4-1.7,50.9-4.6,76.1c-1.6,13.9-3.3,27.8-5,41.6c-0.2,1.2,0.3,3.7-1.9,3.3
			c-1.6-0.3-0.5-2.3-0.4-3.5c1.3-10.7,2.9-21.5,3.9-32.2c1.4-14.7,4-29.4,3.1-44.3c-1.1-17.1-2.3-34.2-4.9-51.2
			c-1.7-11.3-3.5-22.5-7.1-33.5c0,3.9-0.1,7.8,0,11.8c0.6,26.7,1.4,53.3-4.1,79.6c-8.2,39.6-16.7,79.1-25,118.7
			c-2.5,11.9-5.3,23.7-11.6,34.3c-0.6,1-1.1,3-2.6,2.4c-1.7-0.7-0.4-2.4-0.2-3.5c2.9-12.9,3.9-26,4.5-39.1c0.8-20.7-1.2-41.3-4-61.7
			c-1.9-14.1-4.4-28.2-6.6-42.2c-1,15.2-2,30.3-1.3,45.4c0.3,10.3,2,20.5,5,30.4c0.4,1.1,0.8,2.1,0.3,3.4c-2.5,6.2-1.3,11.2,3.5,15
			c0.7,0.6,2.2,0.8,1.3,2.1c-0.7,1-1.8,0.3-2.7-0.2c-3.4-1.9-5-5.2-6.3-8.7c-6.9-19.2-10.8-39.1-12.8-59.4c-0.1-1.2,0.7-3.2-0.8-3.4
			c-1.2-0.2-1.5,1.9-2,3.1c-2.1,4.2-4,8.4-6.8,12.2c-3,4.1-6.7,7.7-11.7,8.9c-17.2,4.1-34.5,7.8-52.1,8.9
			c-10.1,0.6-15.5,5.2-18.5,14.1c-1.2,3.1-2.1,6.3-2.9,9.5c-3.8,18.9-6.2,38.1-8.8,57.2c-2.4,17.4,0.6,34.1,8.5,49.9
			c2.3,4.7,4.8,5.9,9.9,4.9c17.8-3.2,35.4-2.7,52.8,3.1c7,2.1,12.5,7.3,15.2,14.1c4,9.5,6.5,19.6,7.5,29.9c0.1,1.5-0.3,3.6,1.4,3.9
			c8.1,1.8,9.9,8.8,12.8,14.8c6.8,14.6,13.2,29.4,22.2,42.9c2.8,4.3,5.2,9,9.4,12.2c11.1,8.4,16.5,19.8,18.3,33.2
			c0.2,1.8,0.4,3.7,2.4,4.6c6.1,2.8,7.9,8.3,8.6,14.3c1.8,15.4,0.7,31,1,46.4c0,2.8,0.6,5.6,1.7,8.2c10.8,24.9,15.3,50.9,12.5,78
			c-1.7,16.7-4.8,33.3-4.3,50.2c0.1,4.5,1.4,5.4,5.6,5.4c39.2-0.2,78.3-0.1,117.5-0.1c7.5,0,6.6,0.9,6.6-6.7
			C840.9,717.1,840.9,362.9,840.9,8.8z"/>
		<path d="M515.8,855.8c-2.8,3.1-6.4,5.5-8.5,9.2c4.2-1.3,7.1-4.3,9.6-7.8c0.4-0.6,1.3-1.3,0.5-2.1
			C517.2,854.9,516.1,855.4,515.8,855.8z"/>
		<path fill="#283F7C" d="M597.7,307.6c2.5-1.2,4.9-2.7,7.1-4.4c0.5-0.4-1.4-0.7-2.3-0.9c-3.5-0.4-4.4,2.4-5.7,4.6
			c-0.1,0.3,0,0.6,0.2,0.7C597.3,307.7,597.6,307.7,597.7,307.6z"/>
		<path fill="#283F7C" d="M590.6,361.3c-2.1-3.9-3-8.4-6.5-11.6l0,0c0.8,8.9,1.4,18,7.8,25.4c4.5,5.3,8.9,5.2,12.6-0.7
			c1.4-2.1,2.2-4.5,2.3-7c0.1-5.6,0.4-11.3-0.6-16.9c-0.2-1,0.6-2.7-1-2.8c-0.8,0-1.8,1.3-2.4,2.3c-0.4,1.1-0.7,2.2-0.9,3.3
			c-0.7,3.1-1.5,6.2-3.7,8.6C595.5,364.9,592.6,364.9,590.6,361.3z"/>
		<path fill="#283F7C" d="M593.5,345.5c0,0.1,0,0.3,0,0.4c0.7,1.7,1.1,3.6,1.1,5.4c1.9-0.9,1.4-3,2.2-4.2c0.2-1.6,0.3-3.2-1.3-3.5
			C594.4,343.6,593.5,344.4,593.5,345.5z"/>
		<path fill="#283F7C" d="M438.2,434.1c5.1,1.3,4.8-1.5,4.8-4.6c0.2-3.4-1-6.7-3.3-9.2c-2.1-2.4-4.2-3.2-6.3,0.1
			c-2.4,3.8-5.2,7.3-7.4,11.2c-3.2,5.7-1.7,13.4,3.2,17.7c0.6,0.5,1.1,1.5,2,1.1c1-0.4,0.6-1.5,0.3-2.1c-1-2.2-0.5-4.6-0.7-6.9
			C430.4,435.9,432.9,432.8,438.2,434.1z"/>
		<path fill="#283F7C" d="M601.9,341.5c0.5,0.4,1,1.1,1.6,0.6c1-0.9-0.1-1.4-0.7-1.8c-2.9-2.1-4.4-5.2-6.6-8.9
			C597,336.3,599,339.2,601.9,341.5z"/>
		<path fill="#6E647D" d="M567,216.5c15.8,11.9,29.8,26.1,45.8,37.7c1.2,0.8,2.8,2.6,3.7,1.8c1.2-1-0.5-2.7-1.2-3.9
			c-8.4-16.2-18.3-31.7-29.5-46.2c-18.8-24.3-41.3-45.5-66.7-62.7c0,2.6,1.4,3.7,2.2,5.1c6.4,10.1,13,20.3,17.4,31.4
			C544.7,194.9,554.1,206.7,567,216.5z"/>
		<path fill="#283F7C" d="M603.9,314.8c-2.5-1.8-3.5,0.8-4.6,2.2c-0.8,1.1-2.1,2.2-1.7,3.8c3.1-0.7,6.3-1.4,9.4-2.2
			C606.8,316.6,605.2,315.7,603.9,314.8z"/>
		<path fill="#F4FCF0" d="M609.3,339c3.1-0.6,4.2-3.8,4.4-6.4c0.3-5.8-2.6-9.5-7.1-9.5c-2.4,0.7-6.5-0.7-6.5,4.4
			C600.1,332.4,605.6,339.7,609.3,339z"/>
		<path fill="#6E647D" d="M661.4,612.7c1.6-29.6,2.6-59.2-0.5-88.8c-0.8-7.4-1.6-14.9-3.6-22.1c-0.1-0.4-0.5-3.6-1.5-1.2
			c-2.4,5.9-7.5,11.2-6.3,18C655.1,549.7,660,580.9,661.4,612.7z"/>
		<path fill="#6E647D" d="M649,375c-1.2-14.2-2-27.1-5.2-39.7C642.2,348.1,644.3,364.3,649,375z"/>
		<path d="M581.2,330.6C581.2,330.7,581.2,330.7,581.2,330.6c-0.1,0.1-0.1,0.1-0.1,0.1L581.2,330.6z"/>
		<path d="M581.2,330.6L581.2,330.6L581.2,330.6z"/>
		<path d="M227.9,659.2l0.1,0.1l0,0C228,659.3,228,659.2,227.9,659.2L227.9,659.2L227.9,659.2z"/>
	</g>
</g>
</svg>
