<?xml version="1.0" encoding="UTF-8" standalone="no"?>
<svg
   xmlns:dc="http://purl.org/dc/elements/1.1/"
   xmlns:cc="http://creativecommons.org/ns#"
   xmlns:rdf="http://www.w3.org/1999/02/22-rdf-syntax-ns#"
   xmlns:svg="http://www.w3.org/2000/svg"
   xmlns="http://www.w3.org/2000/svg"
   xmlns:sodipodi="http://sodipodi.sourceforge.net/DTD/sodipodi-0.dtd"
   xmlns:inkscape="http://www.inkscape.org/namespaces/inkscape"
   version="1.0"
   width="1024.000000pt"
   height="1024.000000pt"
   viewBox="0 0 1024.000000 1024.000000"
   preserveAspectRatio="xMidYMid meet"
   id="svg2"
   inkscape:version="0.91 r13725"
   sodipodi:docname="people_930.svg">
  <defs
     id="defs508" />
  <sodipodi:namedview
     pagecolor="#ffffff"
     bordercolor="#666666"
     borderopacity="1"
     objecttolerance="10"
     gridtolerance="10"
     guidetolerance="10"
     inkscape:pageopacity="0"
     inkscape:pageshadow="2"
     inkscape:window-width="1920"
     inkscape:window-height="974"
     id="namedview506"
     showgrid="false"
     inkscape:zoom="0.7375"
     inkscape:cx="553.31435"
     inkscape:cy="326.79609"
     inkscape:window-x="0"
     inkscape:window-y="1"
     inkscape:window-maximized="1"
     inkscape:current-layer="svg2" />
  <metadata
     id="metadata4">
Created by potrace 1.14, written by Peter Selinger 2001-2017
<rdf:RDF>
  <cc:Work
     rdf:about="">
    <dc:format>image/svg+xml</dc:format>
    <dc:type
       rdf:resource="http://purl.org/dc/dcmitype/StillImage" />
  </cc:Work>
</rdf:RDF>
</metadata>
  <g
     transform="translate(0.000000,1024.000000) scale(0.100000,-0.100000)"
     fill="#000000"
     stroke="none"
     id="g6">
    <path
       d="M0 5120 l0 -5120 409 0 409 0 7 47 c9 61 59 200 102 288 73 145 169 266 238 297 19 8 30 27 44 72 l19 61 -42 3 c-155 10 -255 40 -356 107 -195 129 -277 362 -201 566 28 73 107 185 166 236 92 79 191 125 224 104 25 -16 -1 -54 -108 -161 -119 -118 -149 -167 -158 -264 -8 -93 16 -166 75 -225 26 -26 57 -50 69 -53 l21 -6 -21 47 c-33 71 -30 199 5 267 15 28 50 72 79 98 82 74 92 61 42 -54 -27 -64 -36 -96 -36 -144 -1 -159 133 -250 331 -226 63 8 64 9 140 88 42 43 91 89 107 100 l30 21 -38 73 c-296 566 -385 780 -448 1083 -49 236 -45 386 20 842 58 404 65 489 55 693 -18 382 -13 434 72 705 76 239 84 279 94 455 11 189 28 264 94 405 55 116 84 159 198 288 126 142 190 207 204 207 7 0 22 -12 33 -26 31 -40 29 -126 -5 -190 -15 -27 -40 -76 -57 -109 -16 -33 -43 -79 -58 -103 -51 -76 -71 -123 -76 -181 l-5 -56 37 60 c77 127 157 184 431 313 104 48 211 102 237 119 47 29 49 31 53 85 2 41 0 59 -11 68 -9 7 -15 29 -15 50 0 35 -4 40 -43 59 -40 20 -57 39 -70 83 -3 9 -28 23 -59 32 -29 9 -93 33 -143 55 -89 39 -90 39 -114 20 -54 -43 -131 -11 -131 54 0 31 -6 37 -73 79 l-73 44 -27 -20 c-15 -11 -43 -20 -62 -20 -66 0 -121 82 -96 145 8 23 5 31 -30 65 -33 32 -43 37 -57 28 -60 -38 -143 -18 -167 39 -17 41 -6 94 25 122 19 17 19 18 -8 71 -21 41 -32 54 -50 54 -37 0 -87 25 -110 55 -17 21 -22 41 -22 83 0 50 3 57 40 94 l40 40 0 130 c0 126 0 129 -26 151 -35 30 -45 106 -20 152 17 31 52 55 80 55 7 0 22 29 35 64 38 107 148 274 258 391 15 17 39 57 52 90 13 33 35 78 48 101 12 22 23 48 23 56 0 9 21 38 48 65 175 183 232 252 232 282 0 77 54 126 128 117 32 -4 58 0 102 19 95 40 225 74 287 75 32 1 96 2 143 2 47 1 124 2 172 2 l86 1 -34 40 c-46 54 -212 286 -257 360 -20 33 -38 71 -39 85 l-3 25 165 0 c221 0 247 14 168 87 -70 65 -181 134 -247 153 -33 11 -61 24 -61 31 0 18 86 67 355 202 260 130 315 155 324 147 3 -3 -1 -20 -8 -38 -34 -84 -43 -131 -39 -212 2 -64 7 -88 22 -104 63 -70 189 41 237 209 16 57 24 67 43 51 25 -21 153 -214 225 -339 37 -64 73 -127 81 -139 8 -12 11 -25 8 -28 -3 -4 -34 -1 -67 6 -34 6 -64 9 -67 6 -6 -6 177 -336 187 -336 4 -1 33 41 66 92 150 233 292 367 502 471 115 58 241 100 346 116 121 18 125 19 125 35 0 29 24 66 57 86 27 17 43 20 86 14 84 -10 117 -9 212 9 276 51 628 41 835 -23 55 -17 66 -18 80 -6 26 24 66 28 103 10 38 -18 57 -50 57 -95 0 -17 4 -30 8 -30 5 0 36 -25 69 -55 51 -46 67 -55 98 -55 67 0 117 -81 85 -139 -7 -14 0 -38 25 -97 32 -74 37 -79 70 -85 53 -9 77 -38 83 -98 4 -49 3 -53 -34 -89 l-39 -37 3 -91 3 -92 30 -6 c39 -7 63 -60 53 -114 -9 -44 -53 -92 -87 -92 -21 0 -26 -6 -31 -37 -20 -112 -107 -357 -176 -494 l-30 -58 35 -7 c81 -15 124 -99 90 -175 -14 -30 -16 -42 -7 -51 14 -14 16 -67 3 -101 -9 -24 -8 -25 36 -32 69 -10 103 -48 103 -114 0 -44 3 -51 19 -51 11 0 36 -15 55 -34 41 -38 45 -64 20 -126 -13 -31 -14 -47 -6 -63 6 -12 67 -85 137 -162 244 -269 323 -382 460 -660 107 -218 281 -640 353 -860 49 -148 102 -359 102 -407 0 -46 29 -67 305 -217 277 -151 372 -218 496 -348 213 -223 313 -480 295 -761 -6 -99 -19 -143 -37 -125 -4 4 -3 42 3 83 52 369 -171 766 -562 1003 -86 52 -370 207 -370 202 0 -2 19 -25 42 -52 62 -71 123 -170 183 -296 102 -211 145 -390 145 -598 0 -142 -19 -241 -64 -331 l-33 -67 51 -21 c116 -49 222 -84 455 -151 279 -80 397 -122 526 -187 295 -147 478 -358 526 -602 16 -81 15 -303 -1 -390 -14 -78 -41 -142 -79 -190 -15 -19 -33 -57 -40 -85 -21 -85 -70 -191 -121 -262 -27 -37 -117 -138 -200 -223 -84 -85 -179 -190 -210 -232 -126 -168 -142 -324 -48 -464 25 -37 48 -56 98 -81 114 -58 234 -54 341 10 101 60 143 158 122 282 -15 83 -2 92 51 34 65 -72 80 -149 52 -257 -19 -72 -71 -155 -126 -204 l-45 -41 39 7 c135 25 235 133 302 324 33 93 59 58 53 -71 -8 -152 -115 -294 -283 -378 l-89 -44 -111 0 c-99 0 -117 3 -167 26 -31 15 -76 48 -100 73 -65 69 -80 61 -30 -15 42 -63 106 -108 301 -210 95 -49 194 -105 219 -123 122 -90 210 -219 234 -344 l12 -62 142 0 143 0 0 5120 0 5120 -5120 0 -5120 0 0 -5120z"
       id="path8"
       style="fill:none" />
    <path
       d="M2865 9927 c-143 -73 -266 -136 -274 -141 -10 -7 3 -17 49 -38 110 -50 260 -173 260 -214 0 -54 -81 -78 -245 -73 -63 2 -115 1 -115 -4 0 -41 282 -437 311 -437 5 0 9 11 9 23 0 48 60 144 135 219 l75 73 -35 18 c-64 32 -105 118 -91 192 14 71 108 145 186 145 46 0 114 -32 135 -63 10 -16 29 -27 54 -31 37 -6 65 -29 96 -80 9 -14 15 -13 65 12 47 23 67 27 142 27 49 0 88 1 88 2 0 23 -245 413 -259 413 -3 0 -14 -21 -23 -47 -31 -86 -74 -149 -124 -182 -76 -50 -143 -40 -170 24 -18 44 -18 188 0 248 10 34 11 47 3 47 -7 -1 -129 -60 -272 -133z"
       id="path10"
       style="fill:#3366ff" />
    <path
       d="M5442 10009 c-157 -10 -342 -42 -342 -58 0 -5 44 -15 97 -24 96 -16 98 -16 119 4 31 29 149 42 319 35 300 -12 457 -64 603 -200 230 -215 312 -547 237 -953 -35 -191 -108 -440 -175 -604 -17 -39 -30 -73 -30 -75 0 -2 11 -4 25 -4 14 0 25 6 25 14 0 7 15 29 33 49 40 41 128 232 186 400 96 278 114 551 52 787 -84 318 -324 542 -650 606 -64 12 -344 36 -376 32 -5 0 -61 -4 -123 -9z"
       id="path12"
       style="fill:#cc6600" />
    <path
       d="M4918 9950 c-17 -17 -28 -33 -25 -37 3 -3 27 2 53 11 26 9 63 16 81 16 37 0 43 14 14 30 -39 20 -91 12 -123 -20z"
       id="path14"
       style="fill:#9999ff" />
    <path
       d="M6166 9968 c-17 -9 -14 -13 28 -34 68 -34 86 -29 49 14 -23 26 -53 34 -77 20z"
       id="path16"
       style="fill:#9933ff" />
    <path
       d="M5491 9924 c8 -10 19 -28 24 -41 12 -29 126 -82 189 -89 49 -5 86 -28 99 -63 5 -15 28 -40 49 -56 106 -79 246 -261 307 -397 57 -127 111 -330 111 -418 0 -19 18 -52 55 -102 31 -40 58 -83 61 -95 4 -13 10 -23 14 -23 4 0 20 64 36 143 25 125 29 163 29 317 0 152 -3 185 -23 255 -66 231 -199 404 -380 494 -106 53 -314 91 -503 91 -74 0 -80 -1 -68 -16z"
       id="path18"
       style="fill:#ff9900" />
    <path
       d="M5363 9920 c-12 -5 -27 -18 -32 -29 -9 -16 -7 -24 11 -40 47 -44 138 -36 138 12 0 45 -67 78 -117 57z"
       id="path20"
       style="fill:#9999ff" />
    <path
       d="M4988 9903 c-38 -6 -35 -23 3 -23 36 0 169 -33 225 -56 306 -125 497 -336 638 -701 90 -233 108 -374 110 -852 1 -246 5 -376 11 -378 6 -2 17 16 25 39 19 53 67 88 122 88 33 0 40 4 49 28 6 15 21 38 34 52 22 23 25 38 34 170 14 186 14 454 1 578 -13 122 -52 282 -92 375 -26 62 -104 207 -111 207 -1 0 -1 -17 1 -38 7 -73 -63 -119 -142 -92 -50 16 -76 53 -76 107 0 80 67 123 146 93 25 -10 24 -7 -14 35 -55 59 -131 129 -136 124 -2 -2 -9 -14 -15 -26 -19 -38 -68 -57 -111 -44 -76 23 -112 109 -66 160 11 12 17 23 15 25 -2 2 -32 16 -67 30 l-63 27 -26 -21 c-48 -37 -145 -18 -179 37 -10 15 -19 29 -20 31 -1 2 -42 10 -90 18 -86 13 -149 16 -206 7z m1133 -749 c24 -22 42 -87 34 -125 -9 -40 -58 -79 -102 -79 -51 0 -93 45 -93 100 0 42 30 114 52 124 23 10 89 -2 109 -20z m58 -422 c28 -23 34 -36 39 -80 4 -49 2 -54 -31 -87 -39 -39 -73 -45 -117 -19 -67 40 -76 129 -20 186 38 38 84 38 129 0z m15 -383 c49 -58 22 -141 -51 -155 -28 -6 -38 -1 -68 29 -45 45 -47 86 -6 128 41 41 90 40 125 -2z"
       id="path22"
       style="fill:#cc6600" />
    <path
       d="M6028 9140 c-23 -14 -41 -74 -33 -109 14 -63 109 -61 126 3 10 35 -11 90 -39 105 -25 13 -32 13 -54 1z"
       id="path24"
       style="fill:#9999ff" />
    <path
       d="M6070 8708 c-30 -33 -30 -91 0 -122 26 -27 78 -25 102 3 27 35 23 77 -11 112 -35 35 -63 37 -91 7z"
       id="path26"
       style="fill:#9999ff" />
    <path
       d="M6090 8330 c-24 -24 -25 -43 -4 -75 20 -30 39 -37 68 -23 29 13 41 50 25 81 -23 42 -57 49 -89 17z"
       id="path28"
       style="fill:#9999ff" />
    <path
       d="M4710 9834 c-352 -76 -602 -259 -814 -598 l-55 -88 19 -38 c11 -21 24 -41 29 -44 5 -3 34 32 65 78 68 102 196 248 301 342 160 144 317 239 535 325 l95 38 -55 0 c-30 0 -84 -7 -120 -15z"
       id="path30"
       style="fill:#cc6600" />
    <path
       d="M4932 9828 c-35 -11 -62 -21 -60 -23 2 -2 50 -8 106 -14 128 -14 230 -47 347 -113 155 -88 260 -178 335 -288 38 -56 70 -90 70 -74 0 29 -115 181 -199 264 -101 99 -189 157 -319 210 -55 22 -202 63 -214 59 -2 -1 -31 -10 -66 -21z"
       id="path32"
       style="fill:#990000" />
    <path
       d="M4763 9760 c-100 -21 -340 -165 -468 -282 l-50 -46 55 9 c30 6 109 11 175 11 106 2 128 -1 195 -24 94 -33 161 -71 211 -118 l39 -37 174 -6 c291 -11 488 -47 634 -117 46 -22 86 -40 88 -40 9 0 2 24 -27 89 -26 58 -35 70 -60 75 -22 4 -41 23 -77 73 -26 36 -65 87 -87 111 -100 113 -348 257 -490 286 -92 18 -259 27 -312 16z"
       id="path34"
       style="fill:#ff9900" />
    <path
       d="M5672 9753 c-23 -9 -44 -61 -32 -83 39 -73 140 -62 140 16 0 54 -55 88 -108 67z"
       id="path36"
       style="fill:#9999ff" />
    <path
       d="M6460 9725 c0 -11 53 -85 61 -85 16 0 9 37 -12 64 -18 23 -49 36 -49 21z"
       id="path38"
       style="fill:#9933ff" />
    <path
       d="M3075 9649 c-42 -12 -85 -59 -95 -103 -24 -107 75 -204 179 -176 47 12 46 10 26 67 -19 55 -10 97 27 128 37 32 32 50 -24 75 -47 21 -67 23 -113 9z"
       id="path40"
       style="fill:#ff3300" />
    <path
       d="M3239 9541 c-44 -44 -38 -115 12 -141 16 -9 25 -6 50 14 17 15 41 29 54 32 67 17 10 124 -65 124 -12 0 -35 -13 -51 -29z"
       id="path42"
       style="fill:#330033" />
    <path
       d="M3526 9514 c-21 -7 -54 -23 -73 -35 l-36 -22 36 -18 c54 -28 82 -74 82 -134 0 -42 4 -54 26 -72 47 -40 59 -103 34 -179 -6 -19 -2 -22 28 -28 44 -8 93 -62 103 -111 5 -31 1 -52 -21 -107 -5 -14 -2 -18 14 -18 55 0 125 -65 137 -125 4 -21 0 -52 -9 -79 l-16 -46 38 -11 c44 -13 98 -60 112 -96 15 -40 10 -106 -11 -146 -19 -35 -19 -38 -3 -43 80 -26 115 -58 133 -124 8 -30 7 -48 -4 -81 -16 -46 -10 -59 26 -59 28 0 96 -68 103 -102 7 -30 8 -30 52 -24 25 3 66 6 90 6 43 0 45 1 39 25 -16 64 -186 441 -322 715 -234 471 -486 930 -509 929 -5 0 -27 -7 -49 -15z"
       id="path44"
       style="fill:#cc6600" />
    <path
       d="M5870 9460 c-67 -67 38 -179 113 -120 37 30 35 64 -7 106 -39 39 -76 44 -106 14z"
       id="path46"
       style="fill:#9999ff" />
    <path
       d="M3333 9396 c-44 -37 -58 -84 -39 -129 18 -44 49 -63 67 -41 19 23 47 35 98 43 46 7 46 7 45 45 -2 51 -45 95 -100 103 -33 4 -45 1 -71 -21z"
       id="path48"
       style="fill:#330033" />
    <path
       d="M4281 9405 c-59 -11 -80 -20 -105 -44 l-31 -31 98 0 c108 0 179 -18 270 -70 l52 -29 100 14 c55 8 124 15 153 15 28 0 52 4 52 9 0 28 -132 106 -229 135 -67 20 -253 20 -360 1z"
       id="path50"
       style="fill:#cc6600" />
    <path
       d="M6620 9407 c0 -11 30 -140 33 -144 8 -8 47 49 47 69 0 22 -18 60 -34 70 -10 7 -46 11 -46 5z"
       id="path52"
       style="fill:#9933ff" />
    <path
       d="M3195 9349 c-22 -10 -51 -19 -64 -19 -17 0 -22 -4 -17 -16 3 -9 17 -61 31 -115 67 -261 144 -482 287 -819 162 -381 322 -697 367 -725 6 -3 35 15 64 41 53 47 54 47 43 86 -8 31 -7 49 7 87 21 61 22 58 -10 66 -38 9 -81 42 -98 75 -21 40 -19 108 4 151 l19 35 -42 12 c-104 28 -153 128 -111 229 8 19 15 37 15 38 0 1 -14 5 -31 9 -93 18 -150 136 -104 216 19 33 19 50 -1 50 -28 0 -80 38 -99 73 -17 32 -17 81 0 133 5 17 0 22 -34 32 -68 21 -109 87 -98 156 4 28 0 39 -24 62 -33 32 -51 77 -47 124 4 40 -6 44 -57 19z"
       id="path54"
       style="fill:#cc6600" />
    <path
       d="M4131 9289 c-18 -6 -45 -24 -60 -41 -34 -41 -112 -151 -108 -154 2 -2 45 11 97 27 52 17 169 46 260 65 91 19 170 36 175 38 6 2 -21 18 -59 37 -62 29 -80 33 -170 35 -56 2 -116 -1 -135 -7z"
       id="path56"
       style="fill:#ff9900" />
    <path
       d="M2996 9220 c-31 -34 -65 -78 -75 -98 -19 -38 -45 -132 -38 -138 5 -5 169 -36 172 -32 1 2 -2 44 -7 93 -5 59 -4 113 3 158 6 38 9 70 6 73 -2 3 -30 -23 -61 -56z"
       id="path58"
       style="fill:#993300" />
    <path
       d="M3084 9216 c-3 -14 -5 -80 -3 -146 3 -91 8 -123 18 -130 16 -9 81 -23 86 -18 5 4 -81 307 -88 315 -3 3 -9 -6 -13 -21z"
       id="path60"
       style="fill:#993300" />
    <path
       d="M3409 9217 c-49 -33 -64 -70 -50 -118 14 -47 62 -89 102 -89 120 0 162 153 59 214 -38 22 -71 20 -111 -7z"
       id="path62"
       style="fill:#330033" />
    <path
       d="M4810 9230 c-135 -11 -338 -43 -515 -81 -151 -33 -385 -106 -385 -120 0 -5 64 -136 143 -292 155 -306 289 -598 357 -773 42 -111 43 -112 79 -118 164 -27 332 -235 367 -455 4 -22 12 -41 18 -41 6 0 24 -7 40 -15 16 -9 30 -14 30 -13 1 2 9 20 19 41 24 53 69 79 132 74 28 -2 57 -6 65 -10 12 -6 20 5 33 43 25 70 62 93 138 87 56 -5 56 -5 68 29 22 62 98 98 159 76 28 -10 30 -9 41 29 7 24 25 49 47 65 31 24 41 26 93 21 l59 -5 6 33 c7 36 52 81 91 91 13 3 26 15 29 27 10 37 6 686 -4 785 -11 102 -29 196 -55 284 -16 55 -19 59 -80 93 -131 74 -227 102 -435 130 -137 19 -407 26 -540 15z"
       id="path64"
       style="fill:#ffcc99" />
    <path
       d="M3519 8977 c-65 -43 -62 -137 5 -178 91 -55 199 27 166 126 -23 71 -106 96 -171 52z"
       id="path66"
       style="fill:#330033" />
    <path
       d="M6656 8968 c-18 -121 -15 -131 28 -97 21 16 26 29 26 63 0 66 -45 94 -54 34z"
       id="path68"
       style="fill:#9933ff" />
    <path
       d="M2626 8949 c-210 -22 -408 -134 -563 -319 -142 -169 -203 -361 -203 -635 0 -143 18 -268 51 -368 28 -82 84 -202 97 -211 10 -6 -5 55 -62 247 -42 142 -49 206 -43 376 9 272 67 431 207 571 172 171 355 228 705 217 182 -5 275 -23 382 -71 29 -14 53 -22 53 -17 0 25 -45 133 -58 140 -49 26 -400 85 -471 80 -9 -1 -52 -5 -95 -10z"
       id="path70"
       style="fill:#993300" />
    <path
       d="M2315 8930 c-38 -10 -97 -29 -130 -42 -60 -24 -60 -25 -57 -62 3 -26 -2 -44 -15 -58 -30 -33 -89 -58 -140 -59 -48 -1 -49 -2 -141 -101 l-93 -101 38 -17 c101 -46 106 -126 13 -195 -49 -36 -103 -34 -140 5 l-28 30 -31 -74 c-106 -256 -107 -536 -1 -790 70 -166 287 -449 492 -640 138 -127 341 -293 459 -372 72 -49 106 -66 139 -69 24 -3 48 -9 54 -15 15 -15 26 -12 26 6 0 9 16 32 35 51 33 33 38 35 87 30 29 -2 63 -8 76 -12 49 -16 19 23 -55 73 -284 189 -700 567 -852 771 -207 280 -277 649 -191 1011 63 263 276 513 530 622 61 26 63 27 30 27 -19 0 -66 -8 -105 -19z m-584 -901 c24 -26 29 -40 29 -81 0 -44 -4 -54 -34 -84 -29 -29 -41 -34 -79 -34 -63 0 -102 33 -101 86 1 117 116 187 185 113z m51 -430 c82 -38 90 -188 12 -229 -52 -29 -124 -9 -150 41 -30 60 -12 162 33 188 24 14 76 14 105 0z m273 -411 c73 -58 65 -152 -18 -195 -52 -26 -118 11 -147 84 -15 40 -7 77 25 109 32 32 100 33 140 2z m239 -267 c17 -18 30 -44 33 -69 5 -34 1 -44 -20 -66 -45 -45 -123 -33 -152 24 -23 44 -19 78 14 111 40 40 87 40 125 0z m265 -236 c63 -32 73 -123 16 -145 -79 -30 -150 8 -150 80 0 70 65 101 134 65z"
       id="path72"
       style="fill:#cc6600" />
    <path
       d="M1631 8016 c-50 -28 -71 -125 -32 -146 44 -23 95 -10 116 31 22 41 18 77 -10 104 -27 28 -40 30 -74 11z"
       id="path74"
       style="fill:#9999ff" />
    <path
       d="M1681 7554 c-48 -62 -14 -164 55 -164 70 0 105 71 69 140 -29 56 -90 67 -124 24z"
       id="path76"
       style="fill:#9999ff" />
    <path
       d="M1937 7163 c-29 -33 -26 -71 9 -112 47 -56 124 -30 124 42 0 66 -92 115 -133 70z"
       id="path78"
       style="fill:#9999ff" />
    <path
       d="M2195 6906 c-24 -17 -24 -69 0 -96 34 -37 105 -17 105 30 0 25 -48 80 -69 80 -9 0 -26 -6 -36 -14z"
       id="path80"
       style="fill:#9999ff" />
    <path
       d="M2471 6657 c-7 -9 -11 -31 -9 -49 2 -25 9 -35 31 -42 62 -22 115 36 69 77 -27 25 -75 32 -91 14z"
       id="path82"
       style="fill:#9999ff" />
    <path
       d="M1993 8850 c-29 -12 -55 -53 -51 -82 4 -30 37 -35 94 -13 71 27 81 73 22 94 -36 13 -36 13 -65 1z"
       id="path84"
       style="fill:#9999ff" />
    <path
       d="M2547 8789 c-85 -11 -204 -51 -277 -92 -30 -17 -91 -67 -136 -111 -97 -97 -141 -179 -175 -323 -37 -155 -32 -486 9 -557 2 -4 19 19 37 52 41 78 80 127 184 235 l85 87 12 120 c7 66 22 151 34 188 49 149 145 271 286 361 76 49 78 51 44 50 -19 -1 -66 -5 -103 -10z"
       id="path86"
       style="fill:#ff9900" />
    <path
       d="M2681 8754 c-176 -86 -306 -251 -345 -436 -18 -89 -27 -188 -17 -188 4 0 18 12 32 26 13 15 71 64 129 109 l106 84 11 68 c24 137 136 307 238 361 l40 21 -50 1 c-40 0 -70 -10 -144 -46z"
       id="path88"
       style="fill:#993300" />
    <path
       d="M2909 8777 c-116 -43 -224 -168 -265 -305 -24 -79 -17 -90 31 -52 79 64 308 210 400 256 52 26 95 51 95 54 0 9 -132 48 -185 55 -22 3 -56 -1 -76 -8z"
       id="path90"
       style="fill:#993300" />
    <path
       d="M3629 8737 c-57 -38 -74 -98 -44 -157 51 -98 182 -94 227 7 19 43 19 47 3 90 -30 79 -116 107 -186 60z"
       id="path92"
       style="fill:#330033" />
    <path
       d="M6280 8564 c0 -111 -3 -230 -6 -265 -4 -47 -3 -60 5 -49 18 25 101 286 101 318 0 30 -46 129 -80 172 l-20 25 0 -201z"
       id="path94"
       style="fill:#990000" />
    <path
       d="M3096 8650 c-236 -119 -607 -398 -837 -630 -142 -143 -226 -255 -254 -339 -16 -49 -16 -51 11 -138 15 -48 28 -112 29 -142 2 -48 7 -60 56 -124 94 -124 354 -372 581 -556 101 -81 297 -221 310 -221 5 0 23 9 39 21 35 25 109 28 142 6 21 -14 23 -12 42 21 11 19 32 44 46 54 33 25 108 27 142 5 23 -15 24 -14 36 18 14 39 60 82 99 92 23 6 71 -3 113 -21 12 -5 18 -1 23 17 3 14 22 39 41 56 31 27 43 31 90 31 54 0 54 0 45 26 -6 14 -10 54 -10 90 0 58 -3 68 -37 111 -71 93 -123 237 -123 340 0 60 26 138 70 206 l29 47 -54 81 c-30 45 -79 129 -109 188 -50 98 -261 584 -317 728 -15 41 -32 66 -50 77 -15 9 -29 16 -31 16 -1 0 -57 -27 -122 -60z"
       id="path96"
       style="fill:#ffcc99" />
    <path
       d="M3749 8477 c-42 -28 -64 -83 -54 -133 8 -44 59 -100 99 -110 74 -18 166 53 166 127 0 48 -20 90 -56 118 -37 29 -110 28 -155 -2z"
       id="path98"
       style="fill:#330033" />
    <path
       d="M1685 8445 c-34 -33 -37 -95 -8 -127 25 -28 68 -22 108 13 46 40 47 77 4 113 -38 33 -73 33 -104 1z"
       id="path100"
       style="fill:#9999ff" />
    <path
       d="M3859 8171 c-44 -43 -51 -88 -24 -141 61 -118 235 -78 235 55 0 76 -51 125 -131 125 -35 0 -48 -6 -80 -39z"
       id="path102"
       style="fill:#330033" />
    <path
       d="M6375 8165 c-29 -28 -31 -47 -8 -66 9 -8 22 -29 30 -47 7 -18 20 -35 28 -39 25 -9 75 18 91 49 45 87 -72 173 -141 103z"
       id="path104"
       style="fill:#330033" />
    <path
       d="M1463 8073 c-191 -233 -263 -456 -250 -768 8 -191 53 -332 150 -475 61 -89 216 -228 365 -329 62 -42 209 -121 224 -121 21 0 -68 111 -112 139 -149 97 -308 277 -402 456 -113 217 -148 559 -83 810 20 78 72 189 111 240 27 36 52 95 40 95 -2 0 -22 -21 -43 -47z"
       id="path106"
       style="fill:#cc6600" />
    <path
       d="M6236 8079 c-46 -36 -47 -56 -7 -111 42 -56 73 -62 117 -24 41 35 39 89 -4 127 -38 34 -70 37 -106 8z"
       id="path108"
       style="fill:#330033" />
    <path
       d="M1466 7968 c-29 -41 -74 -162 -91 -243 -21 -98 -24 -316 -6 -430 34 -209 133 -406 296 -583 59 -64 174 -162 189 -162 4 0 -2 17 -12 38 -57 112 -84 252 -81 424 1 106 -1 122 -19 141 -10 12 -42 56 -69 97 -139 208 -199 407 -191 638 2 56 2 102 1 102 -1 0 -9 -10 -17 -22z"
       id="path110"
       style="fill:#ff9900" />
    <path
       d="M6071 7974 c-13 -9 -29 -32 -37 -50 -12 -29 -12 -39 0 -69 42 -99 186 -72 186 35 0 79 -86 128 -149 84z"
       id="path112"
       style="fill:#330033" />
    <path
       d="M6440 7983 c-29 -3 -38 -10 -47 -34 -8 -21 -25 -35 -58 -50 -26 -11 -53 -18 -60 -15 -9 3 -18 -7 -25 -28 -6 -18 -24 -46 -41 -62 -27 -25 -38 -29 -89 -29 -58 1 -59 0 -65 -31 -3 -20 -20 -45 -42 -64 -33 -29 -40 -31 -96 -28 -59 3 -61 2 -68 -26 -17 -64 -79 -101 -151 -92 -42 6 -48 4 -48 -11 0 -10 -9 -31 -20 -48 -22 -34 -25 -45 -10 -45 5 0 50 -18 100 -40 l89 -41 63 32 c142 71 298 187 535 395 68 60 117 143 111 191 -3 30 -13 33 -78 26z"
       id="path114"
       style="fill:#3300ff" />
    <path
       d="M4036 7950 c-64 -20 -114 -99 -101 -160 4 -17 8 -30 10 -30 2 0 27 11 56 25 30 13 86 32 126 42 40 9 73 21 73 25 0 19 -30 66 -52 80 -32 21 -77 28 -112 18z"
       id="path116"
       style="fill:#330033" />
    <path
       d="M5894 7861 c-65 -28 -84 -113 -35 -162 63 -63 171 -16 171 75 0 56 -83 109 -136 87z"
       id="path118"
       style="fill:#330033" />
    <path
       d="M4253 7819 c-169 -22 -296 -77 -391 -169 -83 -81 -120 -138 -139 -215 -15 -60 -15 -72 0 -146 17 -89 59 -187 102 -237 l28 -34 14 26 c17 32 69 61 79 44 4 -6 -5 -20 -21 -31 -51 -38 -69 -129 -44 -222 25 -92 88 -135 209 -144 58 -5 75 -9 75 -21 0 -12 -12 -15 -57 -13 -54 2 -58 0 -58 -21 0 -51 40 -57 160 -26 41 11 89 20 107 20 34 0 83 -18 83 -31 0 -15 -22 -21 -33 -10 -23 23 -137 2 -137 -25 0 -17 44 -64 60 -64 5 0 10 11 10 25 0 32 27 34 32 3 2 -16 11 -24 30 -26 22 -3 27 1 30 24 3 31 28 46 28 17 0 -29 14 -43 38 -36 17 4 21 10 16 29 -5 18 -2 24 11 24 9 0 19 -9 22 -20 3 -11 10 -20 17 -20 21 0 37 17 31 32 -4 9 -1 19 5 23 11 7 24 -5 33 -28 1 -5 10 -5 18 -2 11 4 14 14 11 31 -3 17 0 24 12 24 9 0 16 -3 16 -7 1 -19 18 -33 34 -27 13 5 15 14 10 40 -7 41 11 47 28 9 10 -23 12 -23 39 -9 33 17 33 17 17 44 -16 25 -3 38 22 22 11 -7 22 -12 24 -12 8 0 26 63 26 92 l0 29 -32 -17 c-18 -8 -43 -28 -55 -42 -25 -30 -38 -25 -29 11 4 17 26 35 76 61 38 20 76 47 85 59 20 29 29 81 17 103 -8 15 -13 12 -35 -22 -33 -52 -73 -88 -87 -79 -8 5 -2 17 19 39 64 67 90 182 57 260 -13 32 -83 109 -135 149 -16 13 -20 22 -13 29 8 8 25 1 59 -26 l48 -37 3 44 c7 111 -62 283 -154 386 -99 109 -226 146 -421 120z m497 -597 c46 -37 70 -86 70 -142 0 -92 -71 -151 -184 -154 -109 -2 -166 55 -166 167 0 84 36 128 130 158 44 14 112 1 150 -29z m-477 -159 c17 -11 40 -33 50 -51 24 -41 26 -136 3 -181 -37 -70 -165 -116 -256 -91 -133 36 -171 221 -61 299 69 50 200 61 264 24z m278 -254 c57 -57 59 -137 3 -126 -15 2 -30 -3 -40 -14 -23 -25 -66 -24 -90 2 -16 18 -19 35 -18 105 2 109 12 122 67 91 23 -12 58 -38 78 -58z"
       id="path120"
       style="fill:#003300" />
    <path
       d="M4574 7206 c-17 -8 -40 -26 -52 -41 -40 -51 -24 -152 30 -189 54 -38 201 -6 226 50 27 58 2 142 -52 175 -36 22 -107 24 -152 5z"
       id="path122"
       style="fill:#330033" />
    <path
       d="M4075 7038 c-42 -15 -84 -56 -94 -95 -19 -67 29 -154 96 -172 63 -18 165 11 208 59 16 18 20 36 20 92 0 66 -2 71 -33 99 -29 26 -39 29 -100 28 -37 0 -80 -5 -97 -11z"
       id="path124"
       style="fill:#330033" />
    <path
       d="M4437 6796 c-8 -59 8 -116 33 -116 11 0 24 9 31 21 8 15 18 20 35 16 27 -5 31 11 13 44 -10 19 -85 79 -99 79 -4 0 -10 -20 -13 -44z"
       id="path126"
       style="fill:#330033" />
    <path
       d="M6493 7805 c-18 -26 -268 -241 -365 -314 -29 -22 -102 -69 -162 -105 l-108 -65 45 -21 c66 -31 71 -40 64 -115 -4 -36 -4 -65 -1 -65 9 0 221 145 314 215 93 70 257 218 312 281 62 70 76 158 32 193 -40 31 -107 29 -131 -4z"
       id="path128"
       style="fill:#cc3300" />
    <path
       d="M5660 7723 c-42 -38 -48 -79 -18 -122 13 -19 36 -39 51 -44 97 -32 171 91 98 164 -39 39 -89 40 -131 2z"
       id="path130"
       style="fill:#330033" />
    <path
       d="M1166 7658 c-20 -28 -21 -78 -2 -104 8 -10 16 -17 19 -14 2 3 11 35 19 73 14 63 14 67 -3 67 -10 0 -25 -10 -33 -22z"
       id="path132"
       style="fill:#9933ff" />
    <path
       d="M6650 7641 c-15 -37 -174 -191 -302 -294 -53 -43 -163 -122 -244 -176 l-148 -99 -32 -131 c-17 -72 -28 -131 -24 -131 21 0 286 179 400 270 124 99 322 285 367 345 59 78 97 158 89 190 -6 24 -51 55 -79 55 -8 0 -20 -13 -27 -29z"
       id="path134"
       style="fill:#cc6600" />
    <path
       d="M5469 7617 c-58 -39 -64 -103 -13 -154 22 -22 32 -25 70 -20 54 6 81 28 90 74 8 44 -7 78 -48 103 -42 26 -57 25 -99 -3z"
       id="path136"
       style="fill:#330033" />
    <path
       d="M5249 7501 c-78 -79 8 -205 107 -157 48 22 72 74 54 116 -30 73 -109 93 -161 41z"
       id="path138"
       style="fill:#330033" />
    <path
       d="M6711 7427 c-12 -20 -74 -85 -137 -147 -64 -61 -115 -112 -113 -113 2 -1 31 -16 64 -33 67 -34 168 -142 256 -274 55 -83 151 -267 224 -430 66 -147 186 -385 236 -467 48 -78 179 -256 185 -250 5 5 -27 251 -63 474 -25 161 -26 200 -4 177 11 -10 50 -245 81 -484 11 -91 23 -179 26 -197 3 -23 28 -53 98 -121 98 -93 214 -187 222 -180 8 8 -26 166 -61 287 -66 224 -260 711 -390 976 -119 243 -213 380 -402 590 -59 66 -129 144 -154 174 l-46 53 -22 -35z"
       id="path140"
       style="fill:#663300" />
    <path
       d="M5442 7393 c-27 -77 -115 -115 -183 -79 l-27 14 -5 -45 c-10 -93 -115 -150 -198 -109 -18 9 -33 15 -34 14 -1 -2 -7 -18 -15 -36 -7 -18 -23 -41 -36 -51 -32 -25 -43 -88 -18 -106 14 -10 19 -26 19 -64 0 -28 2 -51 5 -51 5 1 140 71 370 194 69 36 135 76 147 89 16 16 28 50 43 127 11 58 20 106 20 106 0 1 -11 5 -24 8 -13 3 -31 8 -39 12 -10 3 -18 -4 -25 -23z"
       id="path142"
       style="fill:#3300ff" />
    <path
       d="M5014 7376 c-56 -56 -44 -135 26 -171 39 -20 69 -19 106 4 93 57 52 201 -58 201 -32 0 -47 -7 -74 -34z"
       id="path144"
       style="fill:#330033" />
    <path
       d="M5545 7303 c-10 -54 -28 -143 -41 -198 -13 -55 -24 -107 -24 -116 0 -11 30 -29 93 -54 50 -21 134 -58 186 -82 52 -24 95 -42 97 -40 8 8 64 253 73 320 15 111 15 111 -26 131 -90 43 -313 136 -327 136 -10 0 -19 -26 -31 -97z m263 -57 c15 -8 38 -26 52 -41 21 -22 25 -36 25 -89 0 -54 -4 -68 -29 -100 -37 -49 -105 -80 -158 -73 -104 14 -150 104 -113 222 15 46 24 59 54 75 43 23 130 26 169 6z"
       id="path146"
       style="fill:#3300ff" />
    <path
       d="M5658 7214 c-39 -21 -65 -111 -49 -166 15 -48 47 -70 107 -70 100 0 173 107 129 191 -27 54 -127 78 -187 45z"
       id="path148"
       style="fill:#9999ff" />
    <path
       d="M4867 7278 c-5 -35 0 -55 22 -101 l28 -59 22 28 c39 49 22 123 -35 156 l-31 18 -6 -42z"
       id="path150"
       style="fill:#330033" />
    <path
       d="M1172 7182 c-7 -2 -19 -17 -27 -32 -30 -58 -12 -119 40 -145 38 -17 59 -20 50 -5 -3 6 -16 50 -29 98 -14 59 -26 87 -34 84z"
       id="path152"
       style="fill:#9933ff" />
    <path
       d="M6399 7119 l-24 -19 73 -66 c197 -179 346 -432 417 -704 9 -35 30 -80 50 -106 208 -272 278 -620 230 -1144 -26 -277 -77 -560 -101 -560 -18 0 -18 0 10 143 73 366 94 787 51 1031 -19 103 -56 226 -95 311 -29 66 -99 179 -106 173 -2 -3 3 -51 11 -108 16 -101 14 -143 -5 -124 -5 5 -16 56 -25 113 -46 306 -121 516 -258 721 -55 83 -256 290 -281 290 -25 0 -19 -24 15 -56 93 -88 227 -340 325 -612 40 -112 52 -136 75 -148 40 -20 51 -45 34 -77 -12 -23 -12 -33 0 -67 19 -54 35 -144 49 -270 l12 -105 19 28 c10 16 21 44 24 63 6 36 24 47 29 19 8 -36 -10 -86 -42 -120 -38 -40 -23 -47 30 -14 43 26 64 56 64 91 0 34 16 44 29 19 15 -26 -1 -66 -42 -110 -35 -37 -39 -36 41 -15 32 9 29 -27 -5 -66 -20 -23 -40 -33 -71 -37 -33 -4 -41 -9 -38 -22 43 -137 56 -247 63 -498 8 -319 -16 -565 -83 -843 -80 -336 -197 -610 -471 -1108 -47 -85 -124 -176 -183 -215 -29 -19 -52 -42 -55 -56 -12 -46 -47 -86 -285 -321 -240 -238 -330 -343 -415 -483 -136 -225 -201 -494 -176 -734 34 -324 117 -457 404 -651 109 -73 142 -109 167 -183 15 -43 18 -47 24 -27 16 61 7 84 -75 200 -45 62 -96 131 -114 153 -73 92 -152 256 -191 400 -15 55 -19 102 -18 215 0 128 4 156 28 235 47 157 150 351 262 497 26 33 119 135 207 227 88 91 211 229 272 306 61 77 171 207 244 289 221 248 400 472 462 577 80 134 158 363 184 539 19 125 20 226 5 329 -26 171 -1 431 59 641 44 148 53 631 16 800 -11 53 -46 137 -119 285 -57 116 -119 244 -137 285 -56 127 -164 335 -213 408 -61 93 -172 220 -222 255 -57 40 -105 49 -135 26z m-279 -4520 c0 -5 -98 -108 -219 -228 -334 -334 -400 -430 -463 -669 -20 -75 -23 -111 -22 -267 0 -190 16 -295 63 -401 14 -30 16 -46 9 -50 -25 -16 -64 85 -94 244 -25 131 -15 373 20 506 31 118 86 235 158 331 62 84 527 557 539 549 5 -3 9 -10 9 -15z"
       id="path154"
       style="fill:#663300" />
    <path
       d="M5420 7092 c-25 -13 -121 -66 -215 -117 -93 -51 -195 -105 -225 -119 -30 -13 -66 -34 -79 -46 -22 -19 -23 -25 -16 -83 5 -34 8 -88 7 -119 -1 -32 1 -58 4 -58 21 0 636 329 660 353 3 3 -18 13 -46 23 -28 10 -55 23 -60 29 -5 7 -3 40 6 84 8 40 14 74 12 75 -2 2 -23 -8 -48 -22z"
       id="path156"
       style="fill:#cc3300" />
    <path
       d="M1793 6954 c9 -204 55 -344 173 -522 53 -79 62 -87 123 -115 105 -48 205 -79 210 -66 11 35 58 71 101 76 25 3 54 12 65 19 23 16 87 18 101 4 8 -8 15 -6 24 6 12 13 12 17 -1 25 -9 4 -51 34 -95 65 -175 125 -328 257 -513 442 l-194 194 6 -128z"
       id="path158"
       style="fill:#ff9900" />
    <path
       d="M6229 6987 l-56 -42 0 -255 c0 -282 -13 -388 -72 -585 -16 -55 -29 -101 -28 -102 1 -1 47 34 102 79 190 152 325 214 451 206 35 -2 64 -1 64 3 0 11 -78 217 -117 308 -20 47 -57 124 -82 170 -54 98 -171 255 -192 258 -7 1 -39 -17 -70 -40z"
       id="path160"
       style="fill:#ffcc99" />
    <path
       d="M6068 6875 c-56 -35 -57 -36 -63 -93 -28 -257 -92 -482 -204 -717 -195 -409 -492 -760 -951 -1125 -147 -117 -144 -113 -59 -89 187 53 368 143 629 315 93 61 150 107 223 182 117 122 192 235 297 447 131 267 186 469 198 725 8 167 4 390 -6 390 -4 0 -33 -16 -64 -35z"
       id="path162"
       style="fill:#663300" />
    <path
       d="M5574 6873 c-16 -9 -94 -53 -174 -98 -80 -45 -235 -128 -345 -183 -193 -98 -201 -103 -237 -155 -20 -30 -40 -66 -44 -81 -8 -33 -58 -76 -88 -76 -12 0 -56 11 -96 25 -40 14 -82 25 -92 25 -10 0 -78 -27 -152 -60 -151 -68 -516 -196 -652 -229 l-91 -22 -44 -102 c-25 -58 -51 -103 -60 -105 -8 -1 -57 22 -107 53 l-93 56 -92 -21 c-51 -11 -125 -29 -166 -40 -41 -11 -82 -20 -91 -20 -9 0 -38 -23 -65 -51 -28 -28 -122 -100 -210 -159 -88 -59 -171 -121 -185 -136 l-25 -27 40 23 c22 13 64 39 94 58 162 102 434 246 523 278 45 16 53 8 69 -64 6 -29 13 -52 15 -52 46 0 766 205 900 255 38 15 88 33 111 41 23 8 129 52 235 98 106 46 279 121 383 166 227 98 497 228 718 346 258 138 289 156 280 165 -4 4 -58 30 -119 57 -106 47 -112 49 -140 35z"
       id="path164"
       style="fill:#cc6600" />
    <path
       d="M1302 6800 c-18 -29 -15 -74 7 -94 23 -21 74 -24 96 -6 13 11 10 18 -25 58 -22 24 -40 49 -40 53 0 17 -25 9 -38 -11z"
       id="path166"
       style="fill:#9933ff" />
    <path
       d="M5924 6784 c-41 -24 -42 -26 -49 -96 -29 -297 -216 -715 -453 -1017 -75 -94 -314 -329 -394 -386 -31 -22 -64 -52 -73 -68 -27 -46 -126 -147 -210 -215 -44 -36 -172 -125 -285 -200 -245 -161 -327 -224 -485 -371 -136 -127 -238 -239 -296 -325 -36 -54 -39 -64 -39 -127 0 -38 4 -69 9 -69 5 0 34 34 66 76 194 258 382 433 765 714 239 175 489 376 632 507 430 393 724 874 827 1356 20 92 39 247 30 247 -2 -1 -23 -12 -45 -26z"
       id="path168"
       style="fill:#990066" />
    <path
       d="M3744 6752 c-50 -40 -58 -104 -18 -151 67 -80 199 -18 180 85 -14 69 -110 109 -162 66z"
       id="path170"
       style="fill:#330033" />
    <path
       d="M5794 6710 c-50 -29 -52 -33 -89 -132 -177 -481 -388 -837 -628 -1064 -187 -177 -337 -260 -657 -369 -361 -122 -533 -215 -671 -363 -280 -300 -364 -789 -180 -1055 48 -70 122 -136 191 -170 59 -29 73 -32 155 -32 75 1 98 5 140 25 l50 25 -120 6 c-103 5 -129 10 -183 34 -125 56 -181 156 -190 336 -9 214 63 418 217 612 127 159 271 257 666 452 393 193 526 283 745 504 281 283 490 653 575 1016 23 98 40 205 33 205 -1 0 -26 -14 -54 -30z"
       id="path172"
       style="fill:#663300" />
    <path
       d="M3523 6676 c-17 -8 -39 -29 -48 -46 -53 -103 84 -202 166 -121 80 81 -14 213 -118 167z"
       id="path174"
       style="fill:#330033" />
    <path
       d="M3940 6662 c0 -65 -67 -132 -133 -132 -15 0 -44 7 -64 15 -20 8 -37 14 -37 13 -35 -96 -122 -136 -205 -95 -29 14 -31 14 -31 -1 0 -9 -9 -31 -19 -49 l-20 -31 86 -52 85 -53 56 13 c76 16 273 82 369 124 132 57 193 87 193 94 -1 4 -7 18 -15 32 -12 23 -18 25 -78 22 -76 -4 -101 12 -112 72 -6 27 -14 37 -37 45 -40 14 -38 15 -38 -17z"
       id="path176"
       style="fill:#3300ff" />
    <path
       d="M4845 6633 c-5 -10 -13 -36 -19 -57 -13 -47 -36 -60 -36 -21 0 22 -3 24 -19 15 -11 -5 -21 -22 -23 -37 -2 -18 -10 -29 -21 -31 -15 -3 -18 0 -12 17 3 12 2 21 -4 21 -23 0 -41 -14 -41 -31 0 -22 -18 -25 -26 -5 -8 20 -34 8 -34 -15 0 -22 -25 -26 -33 -5 -3 8 -14 12 -25 9 -14 -3 -18 -11 -14 -29 5 -29 -12 -32 -31 -4 -9 13 -20 17 -35 13 -22 -5 -31 -23 -12 -23 6 0 10 -7 10 -15 0 -21 -24 -19 -45 5 -22 25 -65 29 -45 5 9 -11 10 -19 3 -26 -7 -7 -22 -1 -47 22 -39 34 -55 34 -37 0 16 -30 54 -46 149 -66 46 -9 109 -25 139 -36 104 -35 125 -28 175 61 13 25 39 68 57 96 36 56 57 132 43 146 -6 6 -13 2 -17 -9z"
       id="path178"
       style="fill:#003300" />
    <path
       d="M5585 6596 c-135 -73 -165 -100 -210 -192 -54 -112 -81 -194 -126 -388 -22 -94 -55 -214 -73 -266 -19 -52 -37 -104 -41 -115 -9 -28 54 42 127 140 137 182 270 442 393 763 24 61 40 112 37 112 -4 0 -52 -24 -107 -54z"
       id="path180"
       style="fill:#663300" />
    <path
       d="M3264 6556 c-23 -23 -34 -43 -34 -62 0 -65 68 -124 126 -110 41 11 84 59 84 96 0 103 -104 148 -176 76z"
       id="path182"
       style="fill:#330033" />
    <path
       d="M1550 6545 c0 -22 8 -43 20 -55 23 -23 72 -26 89 -6 10 12 2 22 -42 55 -30 23 -57 41 -60 41 -4 0 -7 -16 -7 -35z"
       id="path184"
       style="fill:#9933ff" />
    <path
       d="M3041 6484 c-58 -48 -47 -135 20 -170 44 -22 91 -11 124 28 23 27 26 39 22 77 -10 86 -99 122 -166 65z"
       id="path186"
       style="fill:#330033" />
    <path
       d="M4117 6418 c-122 -55 -408 -158 -441 -158 -9 0 -16 -4 -16 -10 0 -5 5 -10 11 -10 14 0 3 -51 -27 -119 -14 -30 -22 -56 -19 -59 22 -22 733 228 788 278 5 4 -12 12 -36 19 -52 12 -104 53 -121 91 l-11 26 -128 -58z"
       id="path188"
       style="fill:#cc3300" />
    <path
       d="M5213 6407 c-157 -80 -143 -67 -349 -317 -264 -319 -544 -685 -631 -826 -63 -101 -106 -184 -95 -184 21 0 111 43 116 55 11 29 112 163 165 219 31 32 119 109 196 171 286 229 456 436 556 680 37 88 55 107 53 52 -3 -44 -118 -264 -190 -361 -92 -124 -228 -262 -364 -369 -185 -145 -234 -191 -305 -287 -37 -50 -65 -93 -63 -95 8 -9 299 94 385 135 99 48 238 140 314 209 47 42 63 65 93 137 48 114 96 274 140 464 24 104 53 193 86 270 27 63 50 116 50 118 0 7 -28 -6 -157 -71z"
       id="path190"
       style="fill:#cc3333" />
    <path
       d="M2816 6405 c-21 -19 -26 -33 -26 -69 0 -37 5 -48 31 -70 50 -42 113 -30 145 29 49 91 -73 182 -150 110z"
       id="path192"
       style="fill:#330033" />
    <path
       d="M3227 6345 c-32 -67 -118 -94 -181 -57 l-36 21 -14 -27 c-22 -43 -52 -64 -99 -69 -30 -4 -54 0 -76 12 -18 9 -34 15 -36 13 -1 -2 -8 -13 -14 -25 -18 -36 -67 -56 -118 -49 -32 4 -51 1 -69 -11 -14 -9 -40 -17 -58 -18 -18 -1 -44 -10 -59 -20 -22 -14 -27 -25 -27 -56 0 -53 22 -63 113 -54 124 13 209 38 277 83 69 46 109 53 137 22 18 -18 22 -18 75 -4 127 33 134 38 184 149 41 91 48 125 26 125 -4 0 -16 -16 -25 -35z"
       id="path194"
       style="fill:#3300ff" />
    <path
       d="M1880 6353 c0 -39 54 -59 79 -29 9 11 6 16 -16 24 -15 5 -36 13 -45 17 -14 5 -18 2 -18 -12z"
       id="path196"
       style="fill:#9933ff" />
    <path
       d="M3339 6353 c-36 -4 -36 -4 -97 -144 -34 -76 -62 -143 -62 -148 0 -17 277 -209 305 -210 6 -1 28 41 49 92 21 50 54 127 72 170 19 43 34 84 34 91 0 16 -229 157 -250 154 -8 -1 -31 -3 -51 -5z m125 -98 c95 -45 102 -221 12 -270 -49 -27 -128 -17 -167 21 -79 76 -57 199 45 245 50 23 69 23 110 4z"
       id="path198"
       style="fill:#3300ff" />
    <path
       d="M3364 6220 c-115 -58 -79 -220 49 -220 19 0 46 9 60 20 46 36 48 135 4 185 -31 35 -65 39 -113 15z"
       id="path200"
       style="fill:#9999ff" />
    <path
       d="M2615 6325 c-33 -33 -32 -70 4 -106 33 -32 65 -37 99 -13 32 22 43 57 31 94 -20 55 -91 69 -134 25z"
       id="path202"
       style="fill:#330033" />
    <path
       d="M2465 6305 c-53 -52 -18 -135 57 -135 46 0 65 21 49 56 -6 14 -11 40 -11 58 0 52 -53 64 -95 21z"
       id="path204"
       style="fill:#cc3300" />
    <path
       d="M2375 6288 c-31 -17 -45 -39 -45 -73 0 -43 24 -73 66 -81 49 -9 63 7 35 42 -15 19 -21 41 -21 75 0 52 -3 55 -35 37z"
       id="path206"
       style="fill:#330033" />
    <path
       d="M4930 6278 c-25 -11 -142 -63 -260 -115 -204 -89 -218 -96 -268 -151 -82 -88 -185 -250 -276 -432 -95 -191 -143 -330 -200 -583 l-7 -28 79 42 79 43 54 100 c67 124 133 222 268 401 134 177 455 579 532 666 78 88 77 93 -1 57z"
       id="path208"
       style="fill:#cc3399" />
    <path
       d="M6490 6238 c-78 -28 -188 -95 -290 -178 -41 -34 -94 -76 -116 -93 -44 -34 -101 -143 -90 -172 15 -41 60 -11 236 160 209 202 315 263 440 250 36 -3 73 -9 83 -11 37 -11 15 24 -25 41 -70 28 -162 30 -238 3z"
       id="path210"
       style="fill:#333333" />
    <path
       d="M6530 6149 c-70 -32 -182 -121 -298 -238 -136 -137 -178 -166 -231 -157 l-39 6 -47 -88 c-109 -202 -233 -355 -378 -465 -150 -115 -464 -292 -612 -345 -33 -12 -112 -37 -175 -55 -113 -33 -118 -35 -270 -147 -217 -159 -338 -258 -464 -380 l-108 -106 31 -73 c103 -242 315 -484 584 -665 121 -82 249 -146 433 -220 78 -30 227 -95 330 -142 388 -178 523 -219 689 -212 83 4 111 9 158 32 80 37 173 128 228 222 78 132 285 542 332 659 173 425 248 845 234 1305 -7 213 -16 290 -48 422 l-21 87 -40 6 c-42 7 -63 0 -32 -12 33 -12 64 -35 59 -44 -3 -4 -24 1 -47 11 -30 13 -46 16 -55 8 -10 -8 -5 -15 19 -32 36 -24 47 -46 24 -46 -9 0 -16 4 -16 9 0 16 -60 35 -72 23 -8 -8 -2 -18 18 -35 38 -33 26 -44 -18 -18 -32 19 -36 19 -57 5 l-22 -16 20 -15 c21 -14 29 -43 13 -43 -5 0 -17 9 -27 20 -20 22 -41 25 -65 10 -12 -7 -12 -12 5 -29 26 -29 12 -38 -21 -12 -39 31 -55 28 -47 -9 7 -37 -3 -38 -29 -5 -22 28 -44 25 -28 -5 15 -28 -5 -34 -23 -6 -12 18 -28 25 -69 29 -30 4 -81 16 -113 27 -50 17 -67 19 -112 10 -29 -5 -60 -7 -68 -4 -22 9 -27 38 -15 83 20 76 174 186 312 222 42 11 67 33 54 46 -9 9 -123 -30 -189 -64 -46 -25 -88 -58 -132 -105 -65 -71 -101 -84 -68 -26 50 85 212 192 335 219 46 11 57 17 55 33 -3 26 23 33 30 7 3 -14 13 -21 29 -21 20 0 24 5 24 31 0 38 24 35 28 -4 3 -21 9 -27 27 -27 18 0 25 7 30 30 4 17 13 30 21 30 9 0 14 -11 14 -30 0 -25 4 -30 24 -30 18 0 25 6 28 23 5 33 34 29 30 -5 -3 -26 0 -28 33 -28 32 0 35 2 35 30 0 20 5 30 15 30 10 0 15 -11 15 -35 0 -24 5 -35 15 -35 12 0 13 10 9 48 -18 154 -56 309 -78 324 -24 17 -160 8 -206 -13z m-311 -1435 c35 -44 54 -119 49 -196 -4 -66 -6 -72 -41 -104 -20 -19 -45 -34 -55 -34 -10 0 -33 -16 -52 -35 -19 -19 -49 -39 -68 -44 -46 -13 -113 9 -162 53 -44 39 -83 46 -116 21 -25 -19 -44 -19 -44 0 0 21 52 45 98 45 29 0 48 -8 78 -33 52 -45 76 -57 114 -57 47 0 67 15 95 70 26 51 66 87 85 75 17 -11 11 -25 -15 -35 -14 -5 -25 -14 -25 -20 0 -25 46 3 65 40 29 56 12 174 -34 238 -25 35 -26 42 -7 42 8 0 24 -12 35 -26z m-599 -4 c0 -6 -9 -40 -21 -76 -16 -50 -20 -84 -17 -144 3 -74 5 -82 36 -112 29 -29 39 -33 86 -32 33 0 63 7 80 17 33 22 54 12 30 -14 -39 -44 -150 -50 -203 -12 -44 33 -66 89 -65 169 1 84 37 214 59 214 8 0 15 -5 15 -10z m692 -624 c59 -28 118 -84 118 -114 1 -16 2 -16 14 1 7 9 18 17 25 17 22 0 10 -28 -29 -69 -32 -33 -40 -48 -40 -79 -1 -83 -87 -205 -175 -247 -119 -56 -344 -73 -466 -35 -69 21 -118 49 -248 143 -59 43 -95 63 -125 66 -56 8 -52 25 7 29 43 3 60 12 140 75 51 39 123 97 161 129 115 97 164 112 287 86 51 -10 63 -9 115 9 100 36 119 35 216 -11z"
       id="path212"
       style="fill:#ffcc99" />
    <path
       d="M6099 4067 c-53 -19 -62 -20 -141 -7 -103 16 -131 8 -208 -55 -30 -25 -102 -82 -160 -127 l-105 -83 47 -3 c50 -3 95 15 175 70 66 45 144 78 186 78 21 0 60 -11 87 -25 27 -14 54 -25 61 -25 6 0 28 14 49 30 53 42 86 46 164 20 82 -27 140 -24 144 7 5 36 -25 69 -97 107 -80 42 -117 44 -202 13z"
       id="path214"
       style="fill:#ff0000" />
    <path
       d="M6145 3918 c-11 -6 -33 -22 -48 -35 -36 -29 -66 -29 -127 2 -80 41 -121 31 -262 -61 -44 -30 -97 -55 -136 -64 l-62 -16 91 -64 c137 -94 168 -104 324 -105 139 0 209 12 286 51 78 39 146 131 156 212 l5 49 -33 1 c-19 1 -61 10 -93 22 -68 23 -74 23 -101 8z"
       id="path216"
       style="fill:#ff3300" />
    <path
       d="M3080 6084 c-69 -20 -75 -23 -78 -50 -4 -37 -32 -125 -45 -142 -5 -7 -8 -14 -6 -17 3 -2 65 12 138 30 73 19 143 35 155 35 17 0 8 12 -43 58 -59 54 -63 59 -52 81 7 12 11 24 9 25 -2 1 -37 -8 -78 -20z"
       id="path218"
       style="fill:#cc3300" />
    <path
       d="M2922 6054 c-9 -33 -27 -61 -65 -98 -78 -78 -101 -91 -136 -76 -16 6 -33 21 -38 32 -8 19 -12 18 -73 -29 -36 -27 -127 -91 -202 -141 -167 -112 -246 -185 -349 -322 l-80 -105 6 -80 c6 -71 4 -85 -17 -125 -26 -51 -63 -75 -145 -97 -65 -17 -57 -9 -163 -166 -128 -189 -189 -337 -190 -455 0 -55 -24 -53 -28 3 -11 128 79 324 266 579 36 50 124 176 195 280 202 297 271 371 469 504 76 51 96 68 87 78 -9 11 -19 8 -52 -13 -23 -15 -137 -72 -254 -129 -116 -56 -231 -116 -255 -132 -58 -40 -124 -108 -154 -159 -24 -42 -25 -44 -8 -90 9 -27 19 -82 21 -123 6 -79 -2 -98 -43 -104 -9 -1 -22 -18 -28 -37 -11 -32 -14 -34 -54 -32 l-42 2 -46 -92 c-26 -50 -74 -136 -107 -191 -73 -120 -93 -170 -102 -258 -6 -51 -11 -68 -23 -68 -12 0 -14 11 -8 70 8 90 32 152 107 275 79 131 149 274 199 409 35 96 40 119 40 196 0 99 14 148 62 217 18 26 61 103 95 170 62 120 71 156 57 211 -10 34 -21 26 -28 -19 -8 -51 -36 -107 -70 -138 -21 -20 -32 -23 -66 -18 -40 5 -41 4 -100 -66 -91 -109 -192 -328 -207 -449 -6 -46 -5 -48 19 -48 30 0 48 -17 48 -47 0 -19 5 -23 30 -23 38 0 55 -33 46 -84 -6 -33 -10 -36 -41 -36 -33 0 -35 -2 -35 -35 0 -35 0 -35 -44 -35 l-45 0 -11 -57 c-7 -32 -35 -127 -62 -213 -94 -294 -106 -376 -88 -585 l13 -145 42 39 c80 74 162 66 252 -25 65 -65 111 -157 125 -251 9 -58 7 -76 -8 -122 -44 -127 -184 -161 -286 -71 l-45 39 -33 -34 c-18 -18 -42 -36 -55 -39 -19 -5 -24 -16 -32 -78 -15 -102 -4 -112 42 -40 21 33 49 66 63 73 22 12 26 11 44 -10 16 -21 18 -34 13 -95 -6 -65 -5 -69 9 -52 9 11 16 27 16 36 0 25 30 60 52 60 11 0 33 -14 50 -32 29 -31 30 -31 58 -15 15 9 52 23 81 31 49 12 57 18 82 62 60 102 159 178 251 190 132 19 240 -110 159 -189 -56 -52 -117 -71 -248 -74 -160 -5 -163 -6 -185 -56 -39 -92 -41 -91 47 -51 206 94 290 72 230 -60 -39 -85 -142 -146 -248 -146 -46 0 -55 -11 -29 -35 54 -49 61 -149 17 -228 -33 -59 -88 -87 -174 -87 -83 0 -203 33 -203 55 0 19 2 19 78 -5 106 -33 199 -25 249 22 35 33 58 113 44 157 -11 40 -49 81 -94 104 -28 15 -29 14 -91 -49 -53 -55 -67 -64 -97 -64 -48 0 -83 33 -74 69 17 69 67 101 159 101 55 0 56 1 76 40 l20 40 -58 0 c-32 0 -63 5 -70 12 -16 16 -15 60 3 84 20 26 19 37 -6 68 -25 32 -38 24 -54 -32 -8 -27 -18 -39 -39 -47 -40 -14 -60 14 -50 70 21 112 0 120 -61 26 -29 -46 -51 -71 -63 -71 -15 0 -21 -13 -30 -77 -66 -434 -55 -662 43 -983 50 -162 169 -453 179 -438 1 1 -1 73 -5 158 -5 89 -4 159 1 164 12 12 64 -28 177 -137 115 -111 129 -141 120 -263 -3 -46 -4 -91 0 -99 7 -21 23 -8 23 19 0 12 12 45 26 74 88 177 301 185 401 15 35 -60 43 -171 16 -222 -29 -55 -63 -74 -131 -74 -60 0 -127 26 -127 50 0 7 19 25 43 42 24 18 42 39 42 50 0 59 -93 89 -131 42 -31 -39 -52 -127 -46 -195 5 -54 10 -65 41 -93 60 -55 116 -40 116 31 0 35 22 33 54 -4 63 -75 49 -162 -31 -190 -33 -11 -51 -12 -83 -4 l-40 11 0 -42 c0 -50 -18 -69 -60 -63 -16 3 -30 2 -30 0 0 -6 73 -141 142 -265 l50 -88 23 49 c23 50 66 92 94 92 29 0 76 -36 96 -74 l20 -38 75 7 c140 12 198 44 219 121 23 81 6 132 -24 74 -29 -55 -115 -91 -129 -54 -3 9 1 30 9 47 19 38 20 34 -15 52 -56 29 -62 23 -54 -58 5 -61 4 -75 -9 -80 -11 -4 -16 4 -19 37 -3 28 -18 61 -39 91 -82 113 -89 128 -89 178 0 114 86 194 176 165 44 -15 55 -45 14 -40 -14 2 -43 6 -65 8 -52 7 -85 -25 -92 -89 -7 -56 8 -102 50 -151 l32 -38 38 22 c32 19 37 27 37 59 0 66 41 79 110 36 22 -14 43 -25 47 -25 5 0 17 20 29 45 l21 46 -37 47 c-101 127 -105 206 -11 232 76 20 131 -24 131 -105 0 -42 -24 -105 -41 -105 -7 0 -8 7 -4 17 4 10 10 38 12 63 7 62 -22 100 -77 100 -55 0 -66 -19 -42 -72 22 -50 101 -158 115 -158 5 0 23 11 39 26 44 36 105 31 128 -11 9 -16 24 -31 33 -33 19 -4 49 39 47 65 -4 33 0 43 16 43 14 0 15 -7 10 -40 -8 -50 -23 -75 -53 -89 -40 -19 -60 -13 -82 24 -14 24 -28 35 -43 35 -48 0 -50 -15 -9 -58 59 -61 67 -145 18 -176 -33 -21 -69 12 -98 93 -15 40 -30 75 -33 78 -7 8 -25 -42 -37 -100 -7 -42 -6 -50 12 -68 18 -18 21 -30 17 -75 -10 -121 -96 -195 -243 -209 -72 -6 -76 -8 -72 -28 24 -101 15 -147 -34 -172 -80 -42 -148 21 -119 109 11 33 62 88 91 98 19 6 -25 64 -63 84 -36 19 -53 8 -79 -51 -34 -79 -34 -79 129 -369 l55 -98 25 48 c14 28 61 85 110 133 48 47 96 104 109 132 30 60 89 114 161 147 48 21 76 26 196 32 146 8 185 17 224 52 65 62 -17 250 -124 282 -29 9 -71 -9 -79 -33 -15 -48 56 -119 90 -91 8 7 19 10 23 6 8 -9 -35 -46 -53 -46 -54 0 -99 57 -88 112 11 57 73 98 128 84 40 -10 106 -76 131 -131 48 -103 23 -188 -69 -234 -41 -20 -72 -25 -194 -32 -189 -11 -237 -31 -304 -123 -16 -21 -29 -43 -29 -47 0 -5 39 11 88 35 107 53 165 72 262 86 126 18 232 -4 265 -54 33 -50 5 -108 -82 -172 -79 -58 -93 -75 -93 -117 0 -21 -4 -47 -10 -57 -11 -21 -87 -77 -165 -121 -115 -65 -229 -30 -288 87 -21 42 -37 142 -30 193 3 24 2 41 -4 41 -5 0 -38 -29 -72 -64 -62 -65 -100 -131 -101 -174 0 -13 30 -74 67 -137 l67 -115 436 0 435 0 17 29 c9 16 49 56 89 88 40 32 95 79 122 104 48 44 50 47 49 101 -1 124 -117 261 -207 244 -66 -13 -93 -84 -61 -161 18 -43 55 -67 98 -63 29 3 33 6 30 28 -1 13 -16 39 -33 56 -30 31 -32 54 -4 54 18 0 63 -55 71 -87 16 -62 -59 -109 -128 -80 -45 19 -69 54 -75 111 -10 86 56 176 129 176 93 0 198 -116 213 -236 9 -68 -21 -123 -105 -192 -133 -110 -170 -144 -170 -158 0 -12 50 -14 331 -14 208 0 329 4 327 10 -7 20 -1584 2012 -1734 2190 -79 94 -98 138 -102 240 -3 72 0 99 23 165 44 132 99 200 282 347 74 60 159 152 210 228 52 78 89 161 132 295 60 193 141 349 280 536 11 16 10 23 -14 51 -23 28 -27 39 -23 80 3 30 15 62 31 84 34 48 131 120 190 142 26 9 47 20 47 25 0 18 -51 57 -73 57 -47 0 -152 -40 -214 -80 -130 -86 -215 -203 -303 -422 -42 -102 -79 -151 -142 -188 -88 -50 -180 -36 -235 36 -46 61 -63 142 -74 357 -16 301 4 404 123 640 130 257 207 365 311 436 40 27 122 84 183 128 61 44 144 98 185 120 116 65 179 139 179 214 l0 30 -45 -31 c-87 -60 -164 -75 -209 -39 l-26 21 -68 -38 c-101 -56 -459 -272 -522 -314 -65 -44 -170 -152 -170 -174 0 -9 12 -46 26 -83 14 -38 26 -91 27 -118 3 -134 -121 -186 -163 -67 -21 62 -46 57 -108 -20 -155 -198 -224 -348 -226 -491 0 -55 -3 -67 -16 -65 -12 3 -15 18 -13 79 3 147 70 289 234 501 48 62 125 166 170 231 93 134 157 197 274 268 59 36 86 60 98 84 19 41 77 87 251 203 154 102 209 154 255 240 38 73 47 150 21 177 -14 14 -17 11 -28 -31z"
       id="path220"
       style="fill:#cc9966" />
    <path
       d="M2796 6023 c-66 -51 -86 -72 -84 -87 2 -13 12 -22 27 -24 32 -5 151 115 151 152 0 15 -2 26 -4 26 -1 0 -42 -30 -90 -67z"
       id="path222"
       style="fill:#336600" />
    <path
       d="M4267 5992 c-81 -34 -92 -42 -144 -107 -31 -38 -86 -115 -122 -170 -119 -184 -182 -321 -341 -755 -84 -228 -151 -362 -335 -670 -264 -441 -375 -687 -405 -895 -11 -72 -10 -85 8 -135 23 -63 25 -59 41 65 31 240 171 535 412 872 48 67 90 136 94 152 11 51 65 183 101 250 57 104 143 210 230 283 l81 69 12 67 c17 94 74 291 112 392 65 169 210 430 310 558 27 34 46 62 42 61 -5 0 -48 -17 -96 -37z"
       id="path224"
       style="fill:#663300" />
    <path
       d="M2561 5976 c-72 -9 -85 -14 -92 -33 -11 -29 8 -93 27 -93 12 0 145 93 189 132 11 10 -12 9 -124 -6z"
       id="path226"
       style="fill:#cc3300" />
    <path
       d="M1747 5880 c-50 -55 -56 -70 -32 -70 19 0 49 30 70 70 28 54 11 54 -38 0z"
       id="path228"
       style="fill:#336600" />
    <path
       d="M4018 5902 c-68 -24 -87 -36 -154 -102 -99 -98 -240 -285 -343 -457 -172 -286 -345 -673 -366 -821 -6 -36 -4 -38 37 -57 35 -16 45 -27 52 -58 19 -77 -19 -158 -147 -315 -95 -117 -185 -239 -208 -283 -16 -32 -19 -59 -18 -171 0 -131 11 -228 21 -198 3 8 16 53 28 100 51 188 140 369 369 752 227 381 249 428 417 883 118 321 190 455 393 736 17 24 13 23 -81 -9z"
       id="path230"
       style="fill:#cc3399" />
    <path
       d="M7264 5830 c14 -89 26 -276 21 -345 -2 -38 -7 -108 -10 -155 l-5 -85 55 120 c57 124 76 152 94 141 7 -4 -5 -38 -33 -94 -91 -180 -146 -335 -187 -532 -19 -87 -23 -136 -23 -290 1 -169 3 -194 27 -285 29 -106 85 -235 138 -313 51 -74 168 -190 244 -242 150 -102 285 -154 649 -251 756 -202 1057 -366 1200 -651 62 -125 81 -200 79 -323 -1 -109 -20 -195 -72 -331 -45 -116 -113 -213 -261 -370 -139 -147 -237 -269 -260 -323 -12 -30 -10 -47 23 -184 19 -84 48 -208 63 -276 l28 -124 59 -38 c98 -64 159 -83 262 -84 82 0 96 3 157 33 83 41 158 120 189 200 30 75 31 171 4 227 l-20 40 -6 -80 c-7 -92 -28 -142 -86 -197 -92 -89 -238 -120 -374 -78 -61 18 -81 30 -129 78 -95 95 -123 225 -80 365 32 104 104 201 295 397 224 230 283 320 331 505 27 105 25 269 -5 365 -63 205 -206 399 -380 514 -175 116 -411 228 -655 312 -206 71 -325 128 -463 220 -130 86 -321 264 -391 364 -25 36 -47 67 -49 69 -2 3 -19 -10 -37 -28 -50 -48 -68 -30 -20 20 l37 38 -31 59 c-47 87 -99 254 -121 383 -11 63 -25 213 -31 334 -12 242 -24 420 -41 595 -12 114 -12 115 -54 165 -23 28 -64 79 -90 115 l-48 65 7 -45z m30 -1035 c7 -210 93 -467 223 -669 53 -81 212 -249 303 -317 74 -56 210 -128 287 -154 55 -17 70 -29 53 -40 -27 -16 -229 74 -340 153 -90 63 -266 243 -322 328 -109 166 -179 341 -218 539 -19 103 -27 245 -13 259 18 17 24 -7 27 -99z m-10 -461 c80 -250 257 -450 557 -627 81 -48 110 -77 76 -77 -19 0 -170 93 -266 164 -107 78 -235 212 -296 310 -53 86 -114 234 -115 279 0 49 21 25 44 -49z"
       id="path232"
       style="fill:#990066" />
    <path
       d="M3757 5822 l-88 -27 -59 -80 c-33 -44 -99 -156 -146 -249 -64 -124 -89 -165 -97 -157 -18 18 139 326 216 424 16 21 28 40 25 42 -2 2 -33 -4 -68 -14 -36 -10 -84 -24 -108 -30 -36 -10 -49 -22 -92 -84 -57 -80 -165 -289 -233 -449 -106 -248 -185 -533 -203 -732 l-7 -78 47 27 c26 15 75 37 108 49 l60 21 23 90 c34 134 88 271 177 450 171 342 305 551 480 748 38 42 66 77 61 76 -4 0 -47 -12 -96 -27z"
       id="path234"
       style="fill:#cc3399" />
    <path
       d="M3020 5744 c-107 -51 -114 -56 -96 -70 11 -8 29 -14 40 -14 31 0 127 47 159 78 25 24 37 62 20 62 -5 0 -60 -25 -123 -56z"
       id="path236"
       style="fill:#336600" />
    <path
       d="M6443 5765 c-3 -9 -3 -19 1 -22 7 -7 36 16 36 28 0 15 -30 10 -37 -6z"
       id="path238"
       style="fill:#000066" />
    <path
       d="M6517 5773 c-14 -13 -6 -24 15 -21 27 4 36 28 11 28 -11 0 -23 -3 -26 -7z"
       id="path240"
       style="fill:#000033" />
    <path
       d="M6593 5765 c-3 -9 -2 -19 1 -23 8 -8 38 10 44 26 6 18 -38 14 -45 -3z"
       id="path242"
       style="fill:#000066" />
    <path
       d="M6677 5763 c-14 -13 -7 -33 11 -33 19 0 42 18 42 32 0 10 -44 11 -53 1z"
       id="path244"
       style="fill:#000033" />
    <path
       d="M6763 5740 c-18 -28 -17 -30 23 -30 31 0 35 3 32 23 -4 29 -39 34 -55 7z"
       id="path246"
       style="fill:#000066" />
    <path
       d="M6445 5709 c-76 -11 -114 -24 -200 -67 -71 -35 -155 -96 -155 -112 0 -5 21 5 46 22 160 107 415 146 618 93 108 -28 169 -31 206 -10 24 14 23 14 -32 15 -31 0 -112 13 -180 29 -143 34 -220 41 -303 30z"
       id="path248"
       style="fill:#330033" />
    <path
       d="M3239 5684 c-41 -12 -47 -18 -58 -56 -16 -51 -107 -144 -168 -172 -54 -24 -103 -98 -236 -351 -175 -333 -244 -510 -287 -734 -39 -198 -35 -341 11 -516 l11 -40 27 31 c15 17 42 66 60 110 18 43 48 113 66 154 24 53 36 97 40 150 14 158 88 482 152 660 60 168 120 277 194 350 36 36 71 70 77 75 6 6 39 64 73 130 34 66 74 138 89 160 43 65 43 65 18 64 -13 0 -44 -7 -69 -15z"
       id="path250"
       style="fill:#cc3333" />
    <path
       d="M6514 5587 c1 -64 -33 -124 -85 -151 l-34 -17 52 4 c74 6 173 57 239 124 30 30 54 59 54 63 0 11 -106 30 -170 30 l-56 0 0 -53z"
       id="path252"
       style="fill:#ccffff" />
    <path
       d="M6420 5582 c0 -54 -23 -85 -72 -97 -34 -9 -91 18 -108 50 -14 26 -34 32 -45 15 -10 -16 21 -58 58 -80 39 -24 116 -26 157 -5 77 40 104 165 35 165 -23 0 -25 -3 -25 -48z"
       id="path254"
       style="fill:#003300" />
    <path
       d="M6316 5601 c-56 -20 -66 -34 -40 -62 21 -24 76 -25 99 -3 17 18 17 76 0 80 -5 1 -32 -5 -59 -15z"
       id="path256"
       style="fill:#003300" />
    <path
       d="M7476 5582 c7 -33 34 -400 44 -607 6 -115 15 -246 20 -290 12 -98 41 -235 49 -235 10 0 58 154 70 222 18 103 34 361 28 463 -4 55 -16 136 -27 179 -24 94 -23 86 -5 86 9 0 20 -20 29 -52 32 -112 39 -190 33 -363 -7 -200 -20 -314 -47 -409 -21 -74 -18 -94 7 -61 39 51 64 129 92 290 36 205 46 324 36 436 l-7 84 -66 50 c-36 28 -110 89 -163 137 -53 48 -95 79 -93 70z"
       id="path258"
       style="fill:#cc3399" />
    <path
       d="M6102 5484 l-37 -36 49 6 c27 3 57 6 68 6 19 0 19 1 -2 30 -12 17 -26 30 -31 30 -5 0 -26 -16 -47 -36z"
       id="path260"
       style="fill:#ccffff" />
    <path
       d="M2786 5310 c-53 -38 -120 -85 -149 -103 -99 -64 -167 -159 -296 -414 -131 -260 -148 -341 -131 -641 12 -224 30 -298 84 -351 42 -41 106 -52 154 -27 18 9 32 19 32 21 0 3 -10 47 -22 98 -31 130 -31 349 1 496 41 191 106 371 209 576 60 122 187 357 210 393 8 12 12 22 9 22 -2 0 -48 -31 -101 -70z"
       id="path262"
       style="fill:#993366" />
    <path
       d="M1650 5179 c-35 -99 -40 -123 -29 -130 21 -13 33 -5 40 28 9 44 16 51 44 45 24 -4 25 -2 25 42 0 53 -18 136 -30 136 -4 0 -26 -54 -50 -121z"
       id="path264"
       style="fill:#ff00ff" />
    <path
       d="M3050 5229 c-47 -60 -107 -173 -151 -288 -62 -161 -159 -563 -159 -661 l0 -41 59 61 60 61 16 132 c26 214 73 392 172 641 30 76 52 140 50 143 -3 2 -24 -19 -47 -48z"
       id="path266"
       style="fill:#663366" />
    <path
       d="M7840 5244 c0 -18 16 -48 44 -83 176 -226 271 -504 283 -836 7 -198 -15 -383 -61 -510 -17 -45 88 85 120 150 45 91 64 185 64 316 0 206 -46 383 -160 614 -72 147 -165 276 -247 343 l-43 35 0 -29z"
       id="path268"
       style="fill:#993399" />
    <path
       d="M1873 5152 c-40 -58 -71 -107 -69 -109 1 -2 24 4 49 13 78 26 122 103 101 174 -9 28 -11 26 -81 -78z"
       id="path270"
       style="fill:#ff00ff" />
    <path
       d="M1387 5184 c-4 -4 -7 -49 -7 -101 0 -93 0 -93 25 -93 22 0 25 4 23 33 -3 30 -1 32 35 35 33 3 37 6 37 32 0 25 -4 29 -32 32 -28 2 -34 8 -38 33 -5 28 -28 44 -43 29z"
       id="path272"
       style="fill:#ff00ff" />
    <path
       d="M4790 5128 c-47 -28 -183 -97 -302 -154 -120 -56 -256 -126 -303 -154 -211 -127 -361 -281 -452 -465 -33 -66 -78 -194 -70 -201 2 -2 30 27 62 66 70 85 290 299 400 388 44 36 172 126 285 200 229 151 339 233 420 316 30 31 52 56 50 55 -3 0 -43 -24 -90 -51z"
       id="path274"
       style="fill:#cc3399" />
    <path
       d="M7837 5069 c-7 -114 -50 -375 -76 -459 -11 -33 -31 -77 -46 -96 -26 -34 -27 -38 -15 -77 7 -23 26 -70 42 -105 35 -74 42 -72 89 19 59 117 74 195 74 389 0 202 -18 365 -44 399 -18 23 -18 22 -24 -70z"
       id="path276"
       style="fill:#993399" />
    <path
       d="M2044 5044 c-68 -94 -67 -92 -40 -87 21 4 24 0 30 -38 7 -45 30 -79 52 -79 7 0 22 12 33 26 28 36 27 105 -2 184 l-24 62 -49 -68z"
       id="path278"
       style="fill:#ff00ff" />
    <path
       d="M7924 5020 c14 -88 18 -369 7 -448 -16 -107 -53 -214 -97 -281 -44 -66 -43 -71 71 -185 94 -95 193 -165 205 -146 17 27 33 247 27 370 -7 145 -26 258 -62 385 -26 90 -91 238 -134 305 l-23 35 6 -35z"
       id="path280"
       style="fill:#993399" />
    <path
       d="M7638 4449 c-33 -19 -32 -70 2 -150 17 -41 38 -83 46 -94 14 -19 15 -19 41 7 l27 27 -26 48 c-14 26 -36 76 -48 111 -13 34 -23 62 -24 62 0 0 -9 -5 -18 -11z"
       id="path282"
       style="fill:#cc3399" />
    <path
       d="M3165 4331 c-98 -44 -185 -141 -185 -205 0 -26 37 -69 51 -60 18 11 138 171 158 212 32 63 26 76 -24 53z"
       id="path284"
       style="fill:#336600" />
    <path
       d="M3378 4138 c-202 -287 -325 -544 -373 -780 -20 -100 -20 -302 0 -388 25 -106 89 -222 164 -299 62 -63 159 -136 169 -127 2 3 -11 25 -30 51 -104 145 -116 166 -141 245 -66 215 -62 389 14 608 43 122 101 227 194 351 80 107 80 107 72 151 -4 25 -7 98 -5 163 2 64 3 117 2 117 0 0 -30 -42 -66 -92z"
       id="path286"
       style="fill:#cc3333" />
    <path
       d="M7186 4145 c-24 -227 -127 -518 -240 -680 -64 -92 -282 -356 -438 -531 -179 -200 -188 -213 -188 -260 -1 -74 -45 -151 -235 -402 -316 -419 -372 -530 -382 -763 -6 -124 4 -204 37 -310 38 -120 189 -400 190 -353 0 5 9 72 19 149 16 115 17 143 6 155 -24 28 -44 77 -62 151 -22 89 -24 312 -4 404 54 255 193 532 329 656 54 49 64 65 116 189 116 271 212 396 456 595 123 101 176 157 266 281 143 200 199 400 174 623 -7 59 -18 120 -25 136 -11 29 -12 28 -19 -40z"
       id="path288"
       style="fill:#cc3333" />
    <path
       d="M7744 4179 l-28 -29 34 -47 c76 -108 270 -303 301 -303 9 0 49 81 49 100 0 5 -28 28 -62 52 -75 50 -153 122 -218 200 l-48 56 -28 -29z"
       id="path290"
       style="fill:#cc3399" />
    <path
       d="M3838 4088 c-25 -29 -76 -94 -115 -143 l-70 -91 12 -40 c6 -22 20 -52 30 -67 l18 -28 37 70 c42 79 74 124 138 193 l44 48 -22 55 c-12 30 -24 55 -25 55 -1 0 -23 -24 -47 -52z"
       id="path292"
       style="fill:#993399" />
    <path
       d="M7268 3991 c6 -85 -15 -222 -50 -330 -33 -99 -101 -216 -186 -322 -28 -35 -50 -64 -49 -66 2 -1 34 10 72 25 48 19 83 41 115 74 124 127 198 338 171 489 -9 53 -62 189 -74 189 -2 0 -1 -26 1 -59z"
       id="path294"
       style="fill:#993399" />
    <path
       d="M1322 4003 c-18 -10 -48 -40 -67 -67 -33 -47 -35 -53 -35 -135 0 -47 -5 -126 -10 -175 -6 -49 -8 -91 -6 -94 11 -10 53 27 66 57 15 38 20 38 51 5 66 -73 149 -100 207 -70 94 49 112 166 47 312 -40 90 -143 184 -202 184 -10 0 -33 -8 -51 -17z m51 -136 c26 -51 27 -129 2 -157 -28 -31 -84 -24 -104 12 -13 23 -14 34 -3 75 17 62 50 115 70 111 8 -2 24 -20 35 -41z"
       id="path296"
       style="fill:#ff6666" />
    <path
       d="M1310 3817 c-28 -63 -21 -100 18 -95 25 3 27 7 30 53 2 32 -2 57 -12 70 -14 19 -16 18 -36 -28z"
       id="path298"
       style="fill:#9900ff" />
    <path
       d="M3892 3935 c-52 -57 -111 -147 -137 -208 -16 -39 -10 -50 53 -81 25 -13 33 -14 36 -4 3 7 14 46 25 86 12 39 39 107 61 149 37 70 44 113 20 113 -4 0 -31 -25 -58 -55z"
       id="path300"
       style="fill:#993300" />
    <path
       d="M3967 3878 c-33 -59 -75 -166 -83 -215 l-6 -41 47 -8 c27 -4 95 -4 152 0 123 8 132 -2 51 -58 -71 -48 -127 -66 -206 -66 l-65 0 6 -102 c9 -172 53 -340 118 -457 27 -48 127 -181 136 -181 1 0 14 23 29 51 43 86 55 172 61 440 5 209 3 261 -12 345 -17 94 -20 101 -72 161 -29 35 -69 88 -89 118 -20 30 -38 55 -39 55 -2 0 -14 -19 -28 -42z"
       id="path302"
       style="fill:#993300" />
    <path
       d="M7378 3822 c9 -128 -47 -297 -139 -419 l-39 -53 47 6 c52 7 90 35 128 94 36 58 65 147 65 204 0 62 -34 205 -54 224 -11 12 -13 3 -8 -56z"
       id="path304"
       style="fill:#993399" />
    <path
       d="M3404 3783 c-114 -150 -168 -256 -220 -429 -23 -75 -27 -108 -28 -214 0 -128 10 -199 47 -305 23 -68 33 -86 97 -170 24 -33 56 -82 70 -109 21 -40 34 -52 75 -68 152 -61 340 -83 475 -54 167 35 324 150 369 270 11 31 21 60 21 65 0 4 -46 -15 -102 -43 -138 -69 -231 -91 -383 -91 -139 1 -221 21 -320 80 -83 50 -121 90 -155 160 -57 120 -65 286 -20 445 23 83 108 266 162 351 l34 54 -31 69 -31 69 -60 -80z"
       id="path306"
       style="fill:#990066" />
    <path
       d="M8154 3809 l-49 -50 30 -25 c36 -29 179 -112 250 -144 28 -12 120 -46 205 -76 268 -95 506 -208 677 -321 136 -90 261 -234 337 -388 59 -120 79 -197 80 -322 1 -57 4 -103 7 -103 12 0 47 94 58 154 17 91 14 315 -5 399 -32 142 -99 253 -221 368 -175 165 -343 243 -813 380 -240 69 -399 123 -471 160 l-36 18 -49 -50z"
       id="path308"
       style="fill:#663300" />
    <path
       d="M7457 3773 c4 -21 8 -78 7 -128 0 -97 -16 -145 -73 -231 l-29 -43 66 -6 c182 -17 398 -77 546 -152 205 -103 384 -281 484 -479 42 -84 229 -554 277 -696 22 -65 42 -118 46 -118 12 0 39 111 49 200 19 189 -17 383 -105 565 -65 134 -125 209 -252 316 -129 108 -249 188 -543 359 -261 152 -380 228 -380 241 0 23 27 15 92 -29 40 -27 172 -107 293 -177 369 -215 478 -290 628 -434 204 -196 302 -440 301 -751 0 -135 -14 -216 -49 -296 -29 -66 -17 -94 21 -49 90 108 178 449 159 619 -11 99 -33 182 -65 245 -21 42 -26 62 -18 67 25 15 76 -87 100 -200 6 -28 14 -53 18 -56 17 -11 52 -96 71 -167 12 -48 19 -110 19 -167 0 -213 -76 -335 -232 -370 -70 -15 -76 -29 -52 -112 16 -57 24 -70 46 -78 57 -20 94 4 238 160 74 80 138 152 143 160 12 22 -9 246 -32 339 -24 95 -154 360 -244 498 -139 210 -384 408 -679 547 -65 30 -118 61 -118 69 0 19 34 9 147 -44 81 -38 101 -44 137 -39 58 8 135 -15 266 -81 252 -126 452 -357 529 -608 34 -112 64 -287 65 -379 1 -74 -2 -91 -21 -116 -18 -25 -20 -36 -14 -83 l7 -54 37 57 c21 32 42 70 48 85 18 47 -6 357 -37 478 -28 110 -121 263 -259 430 -134 161 -129 157 -271 212 -199 78 -321 117 -586 187 -396 106 -560 172 -716 291 l-73 56 8 -38z"
       id="path310"
       style="fill:#cc3333" />
    <path
       d="M2793 3619 c-18 -41 -42 -110 -53 -153 -21 -76 -37 -118 -67 -183 -14 -30 -13 -38 7 -100 41 -125 75 -176 187 -279 87 -81 109 -108 138 -168 39 -83 59 -186 49 -265 -15 -127 -95 -320 -174 -420 -26 -32 -39 -60 -43 -94 -4 -27 -18 -75 -32 -108 -14 -32 -36 -86 -51 -119 -14 -33 -28 -83 -31 -110 -5 -43 -2 -55 21 -90 30 -46 46 -51 46 -14 0 46 69 236 122 333 27 51 81 145 120 209 121 201 182 340 194 448 l7 54 -79 83 c-50 52 -93 109 -117 154 -39 75 -77 202 -77 259 0 17 -18 76 -39 130 -48 122 -68 211 -84 379 l-12 130 -32 -76z"
       id="path312"
       style="fill:#cc3333" />
    <path
       d="M3499 3619 c-49 -83 -58 -122 -58 -279 -1 -191 32 -389 84 -505 l23 -50 -6 180 c-6 210 9 398 44 552 l24 106 -28 33 c-15 18 -30 33 -34 33 -4 1 -26 -31 -49 -70z"
       id="path314"
       style="fill:#993399" />
    <path
       d="M4225 3603 c3 -16 10 -93 14 -173 6 -137 9 -150 44 -232 133 -315 142 -344 134 -473 -3 -53 -14 -114 -26 -149 -12 -33 -19 -61 -17 -63 11 -12 76 83 95 139 88 264 2 686 -190 928 -44 56 -65 65 -54 23z"
       id="path316"
       style="fill:#993300" />
    <path
       d="M1899 3581 c-62 -24 -122 -74 -159 -131 -17 -26 -30 -50 -30 -54 0 -5 57 -6 128 -4 103 3 136 8 173 25 91 41 112 88 62 135 -53 50 -100 58 -174 29z"
       id="path318"
       style="fill:#cc9966" />
    <path
       d="M3617 3513 c-9 -43 -22 -109 -29 -148 -15 -88 -15 -598 1 -637 12 -31 43 -42 163 -60 72 -10 213 -1 262 18 10 4 -12 30 -65 81 -137 131 -209 245 -258 408 -27 94 -42 234 -32 320 8 65 2 95 -19 95 -4 0 -14 -35 -23 -77z"
       id="path320"
       style="fill:#cc3333" />
    <path
       d="M3696 3533 c-11 -28 -6 -202 8 -275 21 -107 69 -225 125 -304 66 -94 233 -256 255 -248 23 9 20 16 -15 50 -70 65 -140 190 -182 319 -35 110 -48 180 -56 308 l-6 109 -62 28 c-51 24 -63 26 -67 13z"
       id="path322"
       style="fill:#993300" />
    <path
       d="M4415 3417 c167 -361 162 -780 -10 -924 l-45 -37 165 -159 c320 -308 468 -521 600 -864 22 -57 42 -103 45 -102 3 0 21 26 42 59 29 46 38 73 43 127 35 342 184 621 498 934 l94 94 -5 61 c-3 52 0 71 23 123 15 33 34 66 41 72 24 20 15 26 -49 32 -113 11 -257 63 -602 220 -116 53 -262 116 -325 140 -198 76 -359 162 -487 258 -29 21 -54 39 -57 39 -3 0 11 -33 29 -73z"
       id="path324"
       style="fill:#cc9966" />
    <path
       d="M3371 3335 c-30 -89 -34 -112 -35 -215 -1 -89 3 -128 18 -170 34 -101 80 -159 152 -198 19 -10 18 -5 -12 71 -49 122 -75 266 -83 452 l-6 160 -34 -100z"
       id="path326"
       style="fill:#663366" />
    <path
       d="M1596 3338 c-47 -13 -129 -88 -124 -115 2 -13 14 -19 42 -21 68 -6 83 3 104 61 11 28 23 60 27 70 8 19 6 19 -49 5z"
       id="path328"
       style="fill:#cc9966" />
    <path
       d="M7273 3330 c-74 -11 -83 -16 -83 -47 0 -42 -38 -109 -83 -149 -23 -20 -91 -61 -152 -91 -60 -31 -121 -64 -135 -75 -63 -50 -78 -120 -35 -163 24 -25 65 -34 65 -15 0 6 -5 10 -10 10 -19 0 -33 46 -21 69 15 26 41 27 41 1 0 -10 9 -24 19 -30 32 -16 44 -12 37 13 -3 15 3 41 17 68 29 58 98 101 172 107 47 4 57 1 79 -21 66 -66 3 -145 -158 -201 -17 -6 -10 -16 52 -79 70 -71 102 -124 102 -169 0 -85 -65 -170 -165 -218 -35 -17 -70 -30 -79 -30 -8 0 -50 -31 -91 -69 -72 -65 -120 -96 -286 -183 -58 -31 -83 -38 -127 -38 -99 0 -160 64 -149 157 5 49 49 123 73 123 12 0 10 -7 -10 -31 -32 -38 -40 -68 -31 -115 10 -58 44 -84 109 -84 30 0 58 5 61 10 3 6 1 10 -5 10 -6 0 -22 11 -35 25 -39 38 -35 110 8 166 33 44 57 60 57 39 0 -7 -11 -25 -25 -42 -69 -82 9 -177 120 -147 51 14 186 94 222 131 l27 28 -65 0 c-199 0 -292 113 -210 256 57 99 161 164 265 164 54 0 61 -3 96 -38 64 -64 75 -161 30 -267 -23 -53 -15 -57 53 -25 97 46 139 128 102 201 -9 19 -56 73 -103 122 -94 94 -113 102 -173 71 -36 -18 -62 -12 -89 23 -26 33 -25 79 1 122 30 49 50 64 182 132 169 87 227 145 227 229 l0 30 -67 -26 c-140 -52 -286 -149 -422 -280 -154 -148 -210 -228 -304 -437 -169 -376 -285 -813 -372 -1410 -26 -177 -26 -185 17 -223 50 -46 189 -93 275 -94 l42 0 -24 24 c-45 45 -45 101 0 155 74 88 227 58 385 -74 36 -30 70 -57 77 -61 6 -3 38 12 70 32 l58 38 -69 7 c-125 13 -209 94 -237 228 -16 76 -6 229 20 312 l21 66 -26 47 c-23 41 -26 56 -22 119 5 101 40 171 125 256 124 123 321 196 467 173 51 -8 91 -8 147 1 60 8 86 8 120 -2 57 -17 97 -59 105 -109 7 -46 19 -52 99 -52 131 0 175 110 81 204 -47 48 -86 62 -214 78 -100 13 -118 31 -35 36 60 4 183 -21 231 -46 89 -46 128 -152 80 -221 -43 -63 -70 -76 -159 -76 l-79 0 -11 -35 c-7 -19 -14 -39 -18 -45 -3 -5 -6 -64 -6 -130 -1 -180 -37 -284 -162 -474 -110 -164 -235 -274 -355 -309 -56 -17 -58 -18 -58 -52 1 -152 227 -300 378 -247 49 17 57 6 10 -14 -88 -37 -229 -3 -316 75 -48 44 -92 126 -92 173 l0 34 -57 -43 c-32 -23 -60 -43 -62 -45 -2 -1 19 -31 47 -66 104 -130 264 -262 404 -333 37 -19 69 -34 71 -34 2 0 2 22 -1 49 -15 158 135 265 303 217 68 -20 138 -84 173 -159 19 -40 25 -46 40 -38 34 18 113 112 133 156 11 25 24 45 29 45 33 0 -22 -94 -101 -173 l-67 -67 11 -70 c28 -181 -55 -337 -201 -376 -40 -11 23 -13 415 -13 l462 -1 25 33 c38 49 58 114 60 187 1 74 -20 120 -54 120 -24 0 -57 -50 -66 -100 -9 -47 -22 -70 -40 -70 -27 0 5 104 51 164 l33 44 -33 31 c-18 17 -38 31 -45 31 -25 0 -71 32 -85 60 -9 17 -15 55 -15 92 0 79 26 137 103 233 99 122 117 185 62 221 -29 19 -53 9 -62 -25 -3 -14 -17 -51 -31 -81 -14 -30 -35 -82 -47 -115 -12 -32 -28 -61 -35 -63 -18 -6 -7 33 34 129 19 42 39 100 46 128 10 44 10 55 -4 76 -20 31 -52 32 -77 2 -18 -22 -18 -22 -19 -1 0 40 63 74 100 54 12 -6 26 -25 32 -42 7 -21 14 -26 21 -19 21 21 74 13 96 -15 41 -52 19 -119 -82 -243 -38 -47 -78 -106 -89 -131 -37 -84 -24 -180 29 -209 16 -8 18 -3 18 54 0 52 6 75 35 131 59 116 139 147 206 80 41 -41 45 -85 13 -148 -26 -50 -106 -130 -148 -148 -17 -7 -31 -17 -31 -22 0 -14 81 -48 116 -48 93 0 191 60 220 135 18 49 40 62 29 18 -21 -87 -142 -183 -230 -183 -21 0 -21 -2 -11 -50 13 -66 -4 -153 -49 -243 l-33 -67 310 0 311 0 -7 68 c-10 94 -66 369 -126 612 -28 113 -80 331 -115 485 -119 516 -208 803 -390 1255 -99 248 -159 377 -190 409 -27 27 -62 5 -100 -64 -20 -36 -41 -67 -46 -71 -5 -3 -25 28 -43 69 -37 79 -36 79 -129 93 -28 4 -51 13 -54 21 -4 9 16 33 51 65 53 47 56 52 51 87 -15 92 -14 89 -79 126 -35 19 -65 35 -68 35 -3 0 -9 -23 -12 -52 -7 -50 -6 -52 36 -95 49 -50 45 -57 -32 -67 -44 -6 -48 -9 -70 -56 -13 -28 -29 -50 -37 -50 -7 0 -24 23 -38 50 -22 44 -29 50 -58 50 -44 0 -77 10 -77 23 0 6 16 28 36 48 l37 38 -11 53 c-6 29 -7 57 -2 61 4 5 30 -3 56 -16 l49 -25 49 25 50 25 -60 25 c-192 78 -454 124 -591 103z m273 -365 c26 -40 28 -95 5 -133 -24 -37 -76 -72 -109 -72 -37 0 -101 38 -122 73 -30 49 -22 137 12 137 9 0 9 -3 0 -12 -7 -7 -12 -29 -12 -50 0 -31 8 -47 39 -81 35 -37 45 -42 84 -42 34 0 52 6 71 24 44 41 43 86 -2 174 -10 19 19 4 34 -18z m-38 -305 c17 -18 20 -19 32 -5 7 8 16 15 21 15 15 0 10 -28 -6 -34 -26 -10 -48 -75 -41 -123 12 -90 52 -129 101 -97 31 20 32 6 4 -30 -46 -58 -105 -52 -136 14 l-18 36 -47 -29 c-65 -41 -121 -42 -154 -4 -28 33 -29 49 -9 108 44 124 194 213 253 149z m240 -2 c18 -18 15 -48 -13 -116 -32 -78 -31 -84 6 -121 22 -22 40 -31 64 -31 40 0 48 11 69 95 16 60 10 98 -21 120 -17 13 -10 35 11 35 28 0 49 -39 48 -88 -2 -114 -75 -222 -148 -222 -112 0 -148 107 -69 208 36 46 40 58 29 86 -9 23 -56 21 -53 -1 3 -33 -1 -43 -16 -43 -22 0 -18 40 7 67 23 25 67 30 86 11z m376 -91 c24 -17 24 -62 0 -88 -25 -28 -73 -52 -90 -45 -20 8 -5 39 17 33 24 -6 59 19 59 43 0 26 -34 43 -70 35 -38 -8 -54 -49 -48 -122 4 -46 10 -61 32 -80 39 -34 83 -31 104 7 19 34 43 41 35 10 -9 -35 -61 -70 -102 -70 -131 0 -169 214 -48 274 39 19 87 20 111 3z m303 -422 c31 -36 29 -81 -6 -137 -37 -59 -99 -89 -249 -122 -114 -26 -143 -36 -174 -64 -31 -27 -19 -33 22 -12 44 23 90 26 108 8 20 -20 14 -53 -19 -98 -49 -68 -62 -106 -47 -137 32 -65 70 -50 81 31 12 85 76 156 140 156 31 0 57 -33 57 -72 0 -32 -57 -94 -95 -104 -32 -8 -32 -25 1 -63 36 -43 69 -41 95 4 19 32 39 46 39 28 0 -13 -36 -63 -56 -78 -10 -8 -38 -15 -62 -15 -36 0 -48 5 -79 39 l-37 38 -27 -19 c-35 -26 -67 -16 -85 28 -17 40 -6 81 44 158 39 61 40 74 6 82 -19 5 -43 -1 -79 -19 -50 -24 -54 -29 -84 -105 -31 -76 -73 -133 -88 -119 -3 4 3 17 15 30 11 12 41 74 67 137 110 275 178 380 278 431 85 44 194 41 234 -6z m-521 -107 c-4 -24 -9 -52 -12 -63 -4 -16 2 -23 27 -32 18 -7 29 -17 26 -25 -5 -14 -19 -15 -54 -4 -21 7 -27 -3 -79 -110 -63 -131 -76 -182 -49 -204 16 -13 19 -13 29 4 24 40 45 62 46 46 0 -28 -39 -79 -66 -86 -40 -10 -57 18 -49 81 l6 50 -23 -22 c-31 -29 -77 -45 -106 -38 -18 4 -23 11 -20 32 4 33 24 41 31 13 15 -59 109 16 180 145 26 47 47 88 47 92 0 3 -24 3 -54 1 -94 -8 -46 31 54 44 22 3 27 11 37 58 6 30 12 56 12 58 1 1 6 2 12 2 8 0 9 -14 5 -42z m708 -489 c37 -29 66 -91 66 -141 0 -106 -72 -160 -212 -159 -106 0 -182 21 -288 77 -236 124 -260 134 -348 141 -98 7 -107 27 -13 31 87 4 155 -18 303 -99 70 -38 153 -79 185 -90 74 -27 239 -37 283 -19 58 24 76 99 41 176 -34 74 -99 97 -146 49 -33 -32 -34 -87 -3 -109 27 -19 78 -21 78 -3 0 19 -21 37 -43 37 -25 0 -16 24 11 28 54 8 83 -49 45 -90 -23 -26 -96 -25 -123 2 -25 25 -27 96 -4 129 41 58 121 77 168 40z m-1049 -222 c26 -37 17 -84 -35 -196 -47 -102 -63 -171 -39 -171 26 0 53 26 120 116 98 133 109 153 109 200 0 46 14 64 47 64 50 0 39 -51 -36 -160 -49 -71 -101 -176 -101 -202 0 -55 35 -63 74 -17 14 17 26 34 26 37 0 4 10 18 23 32 12 14 28 48 35 75 22 83 95 157 170 171 51 10 84 -5 105 -49 18 -36 18 -38 0 -74 -22 -46 -81 -79 -159 -89 l-54 -6 0 -44 c0 -61 23 -112 54 -120 41 -10 59 -1 90 45 33 50 46 41 20 -14 -20 -43 -59 -65 -112 -65 -33 0 -45 6 -70 34 -16 19 -35 50 -42 70 -6 20 -15 36 -19 36 -4 0 -20 -21 -36 -46 -33 -52 -69 -84 -96 -84 -22 0 -79 47 -79 66 0 19 -14 18 -31 -2 -17 -21 -64 -44 -89 -44 -11 0 -32 11 -45 25 -45 44 -29 119 49 233 71 104 93 172 53 172 -6 0 -23 -12 -39 -27 -38 -36 -49 -20 -12 18 48 52 90 57 119 16z m699 -148 c31 -14 50 -60 41 -96 -15 -62 -102 -113 -192 -113 -38 0 -43 -18 -19 -73 15 -37 41 -62 74 -72 20 -6 31 1 68 41 47 52 57 47 23 -11 -39 -66 -106 -83 -158 -39 -77 64 -63 242 26 326 47 45 92 57 137 37z"
       id="path330"
       style="fill:#cc9966" />
    <path
       d="M7383 2628 c-31 -35 -42 -61 -49 -121 -6 -47 -4 -57 14 -75 13 -13 28 -19 42 -15 33 9 80 58 80 86 0 13 7 43 15 66 13 39 13 43 -5 61 -27 27 -72 25 -97 -2z"
       id="path332"
       style="fill:#cc9966" />
    <path
       d="M8217 2134 c-66 -20 -124 -81 -176 -184 -23 -46 -39 -85 -37 -87 2 -3 18 3 35 11 16 9 87 30 156 46 147 35 179 49 205 93 28 44 25 74 -9 108 -25 24 -37 29 -78 28 -26 0 -70 -7 -96 -15z"
       id="path334"
       style="fill:#cc9966" />
    <path
       d="M8226 1708 c-9 -12 -16 -37 -16 -55 0 -28 4 -33 24 -33 32 0 76 37 76 64 0 47 -57 63 -84 24z"
       id="path336"
       style="fill:#cc9966" />
    <path
       d="M7526 1240 c-10 -19 -34 -57 -54 -84 -65 -93 -86 -161 -62 -207 19 -34 40 -23 40 21 0 27 17 77 51 151 27 61 49 121 47 132 -3 19 -6 18 -22 -13z"
       id="path338"
       style="fill:#cc9966" />
    <path
       d="M7945 1221 c-40 -24 -61 -49 -80 -94 l-15 -37 33 0 c56 0 136 29 153 55 14 21 14 26 0 53 -14 26 -34 42 -54 42 -4 0 -20 -8 -37 -19z"
       id="path340"
       style="fill:#cc9966" />
    <path
       d="M8175 1150 c-31 -12 -65 -54 -80 -97 -12 -36 -12 -38 8 -46 11 -4 44 -3 73 3 94 20 131 72 82 117 -29 26 -57 34 -83 23z"
       id="path342"
       style="fill:#cc9966" />
    <path
       d="M8490 3301 c0 -6 14 -18 31 -26 101 -53 301 -218 397 -329 152 -175 336 -534 358 -701 11 -77 24 -61 24 31 0 93 -35 287 -70 388 -62 180 -232 397 -390 498 -137 88 -350 172 -350 139z"
       id="path344"
       style="fill:#cc3399" />
    <path
       d="M1740 3231 c-102 -44 -117 -53 -137 -88 -34 -60 -31 -63 44 -63 90 0 173 25 221 66 39 33 78 106 67 125 -14 21 -85 6 -195 -40z"
       id="path346"
       style="fill:#cc9966" />
    <path
       d="M2612 3174 l-23 -35 47 -77 c27 -42 87 -128 134 -192 131 -176 152 -208 172 -272 47 -154 -4 -342 -126 -462 -45 -44 -69 -79 -92 -133 -18 -40 -28 -73 -24 -73 20 0 115 87 157 143 98 134 153 279 161 423 7 160 -29 249 -149 359 -139 128 -180 186 -215 306 -8 27 -16 49 -17 49 -1 0 -12 -16 -25 -36z"
       id="path348"
       style="fill:#993366" />
    <path
       d="M4237 3093 c-8 -133 -29 -240 -62 -305 -14 -27 -25 -52 -25 -54 0 -7 90 41 133 70 21 14 42 26 47 26 15 0 12 -72 -5 -121 -9 -24 -32 -68 -52 -97 l-37 -54 40 -33 c47 -40 51 -37 86 64 30 87 32 239 4 321 -15 45 -113 279 -121 288 -1 1 -5 -46 -8 -105z"
       id="path350"
       style="fill:#cc9966" />
    <path
       d="M9098 3113 c74 -87 175 -227 221 -308 53 -93 87 -224 100 -395 6 -73 13 -135 15 -137 6 -7 36 114 45 185 24 187 -55 406 -197 551 -53 54 -202 161 -224 161 -6 0 12 -26 40 -57z"
       id="path352"
       style="fill:#cc3399" />
    <path
       d="M7755 3124 c4 -16 8 -35 10 -41 2 -7 -7 -26 -20 -42 -14 -16 -25 -32 -25 -35 0 -3 16 -6 35 -6 31 0 37 -5 56 -42 l22 -43 18 41 c17 37 23 42 60 48 l42 7 -29 30 c-23 24 -28 37 -25 69 3 45 0 47 -35 23 -26 -17 -28 -17 -97 12 -16 7 -17 4 -12 -21z"
       id="path354"
       style="fill:#669900" />
    <path
       d="M2537 3074 l-29 -34 62 -62 c68 -69 138 -169 170 -243 72 -168 88 -375 43 -565 -11 -49 62 36 97 112 46 99 58 195 37 282 -17 70 -43 112 -182 301 -45 61 -101 140 -124 178 -24 37 -44 67 -44 66 -1 0 -15 -16 -30 -35z"
       id="path356"
       style="fill:#993366" />
    <path
       d="M8126 3028 l7 -52 -49 -42 -48 -42 63 -13 c62 -12 63 -12 89 -65 14 -30 29 -54 32 -54 3 0 17 22 32 49 18 32 37 51 53 55 14 4 25 11 25 17 0 13 -187 199 -201 199 -6 0 -7 -19 -3 -52z"
       id="path358"
       style="fill:#669900" />
    <path
       d="M1391 3034 c-40 -33 -42 -71 -5 -80 21 -6 34 1 75 42 27 26 49 52 49 56 0 4 -20 8 -44 8 -33 0 -52 -7 -75 -26z"
       id="path360"
       style="fill:#cc9966" />
    <path
       d="M2525 2941 c152 -235 200 -608 107 -839 -31 -78 -92 -157 -138 -179 -19 -9 -34 -21 -34 -27 0 -6 21 -37 46 -69 39 -48 49 -56 60 -45 27 28 134 237 158 309 30 90 56 231 56 304 0 79 -27 217 -57 293 -32 82 -93 179 -158 250 -74 82 -92 84 -40 3z"
       id="path362"
       style="fill:#993366" />
    <path
       d="M7053 2980 c-71 -16 -103 -59 -89 -115 4 -16 13 -25 26 -25 36 0 134 40 158 64 20 20 22 27 12 45 -6 12 -22 26 -36 31 -28 11 -26 11 -71 0z"
       id="path364"
       style="fill:#cc9966" />
    <path
       d="M2410 2947 c-20 -17 -55 -48 -78 -67 l-43 -35 35 -68 c19 -38 43 -79 55 -90 11 -12 32 -49 47 -82 24 -50 28 -74 28 -145 0 -144 -42 -235 -145 -309 -36 -27 -37 -28 -20 -50 l18 -23 44 19 c57 25 101 76 130 150 19 48 23 78 23 176 1 80 5 117 12 117 17 0 24 -35 24 -117 0 -89 -15 -162 -47 -230 -27 -58 -93 -121 -135 -130 -34 -7 -34 -10 -2 -47 23 -27 27 -28 51 -15 39 21 109 104 140 166 18 38 29 79 32 127 5 54 10 71 21 71 35 0 18 -126 -31 -223 -18 -36 -54 -83 -95 -122 -38 -37 -63 -68 -60 -76 19 -49 137 49 181 150 40 93 50 153 49 306 -2 170 -26 282 -92 424 -38 81 -87 156 -101 156 -3 0 -22 -15 -41 -33z"
       id="path366"
       style="fill:#cc3399" />
    <path
       d="M6080 2840 c-14 -4 -44 -8 -67 -9 -48 -1 -80 -33 -119 -116 -24 -50 -33 -135 -15 -135 16 0 214 202 234 238 19 34 15 37 -33 22z"
       id="path368"
       style="fill:#663366" />
    <path
       d="M2246 2810 c-2 -8 -6 -70 -8 -136 -4 -112 -6 -126 -35 -185 -18 -35 -48 -79 -67 -98 l-35 -34 26 -51 26 -51 35 40 c129 147 173 291 129 420 -21 61 -63 118 -71 95z"
       id="path370"
       style="fill:#663366" />
    <path
       d="M2174 2720 c-46 -67 -75 -154 -81 -245 l-6 -80 33 30 c61 58 94 159 88 275 l-3 65 -31 -45z"
       id="path372"
       style="fill:#663366" />
    <path
       d="M6240 2613 c-24 -31 -123 -140 -220 -241 -240 -252 -336 -384 -422 -585 -68 -156 -82 -224 -82 -377 0 -117 4 -147 27 -225 43 -143 114 -274 239 -442 127 -171 119 -169 133 -30 7 76 6 78 -23 111 -31 36 -128 218 -161 306 -103 269 -83 532 61 783 28 49 135 201 238 339 173 229 268 379 259 407 -2 6 -24 -14 -49 -46z"
       id="path374"
       style="fill:#cc3399" />
    <path
       d="M6741 2653 c-52 -19 -137 -97 -146 -135 -14 -55 24 -127 82 -157 36 -18 106 -27 185 -23 33 2 40 7 57 40 37 72 44 118 27 175 -29 100 -105 137 -205 100z"
       id="path376"
       style="fill:#cc9966" />
    <path
       d="M2371 2610 c-3 -93 -59 -218 -142 -316 -27 -32 -49 -61 -49 -64 0 -3 17 -22 38 -43 l37 -36 49 37 c115 87 154 270 88 414 l-20 43 -1 -35z"
       id="path378"
       style="fill:#663366" />
    <path
       d="M3256 2489 c-10 -73 -56 -194 -122 -318 l-56 -106 68 -60 c313 -273 504 -505 629 -767 101 -210 145 -380 145 -554 0 -174 -32 -266 -128 -367 -54 -55 -55 -58 -27 -51 57 13 123 53 154 92 83 106 117 238 108 417 -14 253 -113 502 -286 718 -39 48 -71 92 -71 97 0 39 84 -47 172 -177 50 -73 130 -237 158 -323 83 -260 80 -528 -10 -685 -38 -67 -113 -135 -171 -156 -24 -9 -42 -20 -39 -25 3 -5 34 -9 70 -8 159 1 293 139 334 346 47 230 -12 455 -188 720 -21 31 -35 62 -31 68 3 5 11 8 16 5 18 -12 90 -126 138 -220 27 -52 68 -116 90 -142 47 -53 95 -133 127 -211 24 -60 33 -56 41 22 18 175 -129 387 -504 724 -51 45 -115 113 -143 151 -28 38 -75 85 -106 106 -214 148 -302 319 -320 626 -6 102 -13 128 -35 129 -4 0 -9 -23 -13 -51z"
       id="path380"
       style="fill:#cc3399" />
    <path
       d="M4185 2519 c-25 -27 -160 -93 -224 -110 -28 -7 -51 -15 -51 -18 0 -9 73 -53 244 -146 87 -47 186 -104 220 -127 81 -54 367 -343 435 -440 30 -43 57 -76 59 -74 7 8 -69 182 -115 261 -67 117 -143 214 -235 300 -58 55 -78 79 -70 87 25 25 189 -145 289 -299 99 -152 215 -431 191 -460 -17 -21 -25 -15 -63 47 -100 164 -366 452 -505 546 -41 28 -145 89 -231 136 -85 47 -168 93 -182 103 -43 28 -34 0 32 -100 129 -199 252 -314 621 -584 99 -72 250 -224 283 -285 40 -72 93 -209 118 -306 17 -64 23 -118 24 -220 1 -74 7 -156 13 -182 39 -157 55 -451 32 -558 -6 -25 -12 -55 -15 -67 l-5 -23 161 0 161 0 -56 60 c-114 123 -187 286 -233 515 -13 67 -17 136 -17 270 0 194 12 273 57 384 l24 60 -57 144 c-127 319 -255 511 -509 766 -103 103 -337 316 -367 334 -6 4 -19 -2 -29 -14z"
       id="path382"
       style="fill:#cc3333" />
    <path
       d="M3343 2372 c8 -192 56 -325 159 -437 68 -75 132 -121 334 -243 261 -157 373 -239 510 -376 152 -152 249 -288 278 -392 29 -102 29 -168 0 -379 l-7 -50 21 19 c12 10 32 44 44 75 32 81 32 307 0 431 -41 157 -69 216 -147 309 -98 115 -132 145 -185 162 -71 21 -232 107 -388 204 -377 238 -521 425 -522 681 l0 79 -52 22 -51 23 6 -128z"
       id="path384"
       style="fill:#663366" />
    <path
       d="M9026 2377 c-11 -160 -64 -362 -121 -464 -21 -38 -21 -43 -7 -43 32 0 96 45 129 91 18 25 39 72 48 104 27 104 14 273 -27 375 -14 35 -15 34 -22 -63z"
       id="path386"
       style="fill:#cc3399" />
    <path
       d="M3472 2349 c13 -236 155 -407 533 -642 126 -78 304 -172 312 -164 2 3 -78 76 -179 163 -101 87 -217 192 -258 234 -97 98 -190 236 -229 341 -17 46 -36 93 -40 105 -6 13 -25 24 -57 31 -27 7 -58 15 -68 19 -18 7 -19 2 -14 -87z"
       id="path388"
       style="fill:#993399" />
    <path
       d="M3650 2386 c0 -36 65 -181 113 -252 74 -110 160 -198 357 -368 370 -318 537 -503 644 -712 74 -146 108 -269 121 -434 6 -79 -8 -280 -22 -317 -4 -11 -3 -14 5 -9 6 4 23 44 38 89 32 98 43 275 25 382 -29 166 -110 352 -232 534 -44 66 -66 108 -60 114 22 22 189 -240 252 -398 17 -44 43 -126 57 -183 26 -106 35 -111 46 -30 16 108 -34 320 -114 485 -66 135 -138 208 -392 396 -314 233 -496 424 -591 619 l-42 88 -87 0 c-47 0 -93 3 -102 6 -11 4 -16 1 -16 -10z"
       id="path390"
       style="fill:#cc3333" />
    <path
       d="M6192 2293 c-162 -195 -292 -546 -292 -790 0 -97 48 -313 69 -313 4 0 15 51 25 113 47 304 126 641 209 900 25 75 41 137 37 137 -5 0 -26 -21 -48 -47z"
       id="path392"
       style="fill:#993399" />
    <path
       d="M7065 2133 c-181 -24 -374 -154 -423 -286 -26 -68 -29 -155 -7 -197 9 -17 19 -30 23 -30 4 0 19 24 35 53 86 163 307 375 457 437 29 12 31 15 14 21 -20 8 -50 9 -99 2z"
       id="path394"
       style="fill:#cc9966" />
    <path
       d="M7360 2115 c0 -5 135 -75 145 -75 14 0 2 24 -24 51 -24 24 -38 29 -75 29 -25 0 -46 -2 -46 -5z"
       id="path396"
       style="fill:#cc9966" />
    <path
       d="M7205 2047 c-198 -104 -327 -230 -414 -404 -40 -81 -39 -90 7 -100 97 -21 226 -1 327 50 131 66 355 240 355 276 0 23 -48 68 -81 76 -31 8 -52 -13 -47 -47 2 -17 9 -22 26 -20 27 2 26 -15 -1 -32 -21 -13 -50 2 -55 28 -10 48 32 106 75 106 31 0 79 -25 92 -47 12 -22 19 -15 27 25 l7 32 -106 50 c-58 28 -112 50 -119 50 -7 0 -49 -20 -93 -43z"
       id="path398"
       style="fill:#cc9966" />
    <path
       d="M1400 1960 c0 -131 18 -278 40 -320 12 -24 42 -52 85 -80 36 -24 88 -68 115 -99 l50 -56 -7 64 c-4 44 -14 76 -30 100 -23 34 -24 42 -18 126 9 121 -2 145 -113 252 -127 122 -122 122 -122 13z"
       id="path400"
       style="fill:#9900ff" />
    <path
       d="M3035 2000 c-9 -17 -12 -36 -8 -43 28 -45 83 -108 113 -128 62 -43 220 -201 280 -281 116 -153 196 -321 241 -503 19 -75 23 -118 23 -265 1 -173 0 -176 -32 -268 l-33 -93 42 -52 c24 -29 46 -56 51 -62 10 -12 92 67 123 120 53 89 70 266 39 425 -46 247 -181 521 -368 749 -104 128 -419 431 -448 431 -4 0 -15 -14 -23 -30z"
       id="path402"
       style="fill:#993399" />
    <path
       d="M2775 1941 c-11 -11 -42 -30 -68 -44 -39 -19 -55 -36 -88 -92 l-39 -68 41 -53 c61 -79 65 -81 73 -34 3 21 25 81 47 132 47 104 72 178 61 178 -4 0 -16 -9 -27 -19z"
       id="path404"
       style="fill:#663366" />
    <path
       d="M2982 1914 c-6 -11 4 -48 34 -123 76 -188 109 -359 121 -616 l6 -150 101 -127 c77 -97 103 -124 109 -112 14 25 9 231 -8 344 -31 211 -83 372 -176 550 -53 102 -154 250 -169 250 -5 0 -13 -7 -18 -16z"
       id="path406"
       style="fill:#663366" />
    <path
       d="M2941 1832 c-10 -19 -9 -42 9 -133 27 -143 43 -317 37 -404 l-5 -69 62 -75 c43 -53 62 -70 64 -58 6 29 -16 287 -32 377 -20 110 -58 244 -94 322 -27 60 -29 62 -41 40z"
       id="path408"
       style="fill:#663366" />
    <path
       d="M7440 1785 c-54 -57 -306 -221 -384 -250 -80 -30 -207 -42 -273 -27 l-43 10 -12 -42 c-8 -25 -13 -97 -13 -181 0 -125 3 -146 23 -191 29 -64 71 -87 152 -82 51 3 55 5 58 30 6 47 -13 67 -66 70 -45 3 -47 5 -56 39 -12 47 8 88 54 113 33 17 38 17 72 3 40 -17 78 -67 78 -105 0 -12 -9 -48 -20 -79 -11 -31 -18 -58 -16 -61 9 -8 102 40 154 79 94 71 216 254 272 407 32 87 63 237 58 278 l-3 25 -35 -36z"
       id="path410"
       style="fill:#cc9966" />
    <path
       d="M1882 1800 c-123 -29 -190 -167 -166 -344 9 -65 27 -53 37 25 14 110 62 179 125 179 39 0 83 -23 97 -51 25 -46 19 -78 -21 -114 -34 -32 -35 -33 -12 -39 40 -10 98 -7 127 8 34 18 51 54 51 110 0 143 -118 255 -238 226z"
       id="path412"
       style="fill:#9900ff" />
    <path
       d="M3211 1668 c41 -81 58 -106 83 -118 93 -45 205 -317 246 -597 16 -106 8 -272 -15 -340 l-18 -52 43 -51 c49 -59 49 -59 83 45 19 60 22 92 22 220 -1 213 -34 352 -128 540 -75 150 -204 319 -316 413 l-51 43 51 -103z"
       id="path414"
       style="fill:#663366" />
    <path
       d="M920 1727 c-25 -12 -81 -58 -126 -102 -169 -168 -205 -347 -110 -541 83 -167 291 -284 507 -284 49 0 50 1 69 43 l19 42 -72 6 c-87 8 -150 35 -217 96 -27 24 -65 49 -85 54 -57 16 -117 69 -150 134 -27 53 -30 68 -30 154 0 133 16 165 157 308 62 62 105 113 97 113 -7 0 -34 -10 -59 -23z"
       id="path416"
       style="fill:#993366" />
    <path
       d="M2882 1708 c-35 -79 -62 -178 -62 -228 0 -43 6 -55 60 -124 33 -42 65 -76 72 -76 19 0 -6 293 -36 420 l-13 55 -21 -47z"
       id="path418"
       style="fill:#663366" />
    <path
       d="M3860 1589 c58 -55 165 -160 239 -232 101 -98 142 -131 164 -134 36 -4 76 -32 112 -78 49 -65 163 -265 195 -343 18 -42 35 -79 37 -82 3 -3 3 38 1 91 -6 118 -32 177 -148 331 -133 177 -293 311 -575 482 -59 36 -113 66 -119 66 -6 0 36 -46 94 -101z"
       id="path420"
       style="fill:#993399" />
    <path
       d="M8876 1583 c13 -54 19 -56 47 -14 l27 41 -40 0 c-39 0 -40 -1 -34 -27z"
       id="path422"
       style="fill:#993399" />
    <path
       d="M1500 1526 c0 -2 21 -44 48 -94 l47 -90 28 20 c15 11 27 26 27 33 0 14 -125 135 -140 135 -6 0 -10 -2 -10 -4z"
       id="path424"
       style="fill:#9900ff" />
    <path
       d="M3285 1503 c46 -115 87 -302 105 -485 10 -91 9 -136 0 -203 l-12 -85 42 -55 c64 -84 65 -84 84 -17 53 190 -49 655 -182 830 -26 34 -49 43 -37 15z"
       id="path426"
       style="fill:#663366" />
    <path
       d="M951 1405 c-43 -67 -58 -141 -42 -208 37 -160 153 -265 306 -275 77 -5 80 -3 125 71 l23 38 -70 -6 c-127 -13 -241 33 -298 120 -49 76 -55 155 -20 256 21 58 11 60 -24 4z"
       id="path428"
       style="fill:#993366" />
    <path
       d="M1668 1351 c-53 -34 -65 -49 -44 -57 20 -8 78 12 111 38 20 16 23 23 14 34 -16 20 -29 18 -81 -15z"
       id="path430"
       style="fill:#993333" />
    <path
       d="M5222 1350 c-92 -144 -125 -275 -125 -500 -1 -181 14 -289 59 -431 48 -152 142 -311 230 -388 32 -28 41 -31 104 -31 l69 0 -61 57 c-109 105 -205 271 -273 476 -49 145 -65 238 -65 367 0 125 17 226 61 358 35 107 35 147 1 92z"
       id="path432"
       style="fill:#993399" />
    <path
       d="M1760 1301 c0 -16 82 -102 113 -117 34 -18 81 -13 109 13 22 19 24 71 4 99 -14 18 -15 18 -25 -7 -19 -52 -91 -54 -156 -5 -36 28 -45 31 -45 17z"
       id="path434"
       style="fill:#9900ff" />
    <path
       d="M1700 1275 c-14 -8 -33 -14 -42 -15 -23 0 -23 -1 14 -70 31 -59 89 -110 124 -110 35 0 3 119 -49 182 -20 25 -24 26 -47 13z"
       id="path436"
       style="fill:#9900ff" />
    <path
       d="M5232 1184 c-36 -134 -45 -211 -39 -328 14 -299 177 -654 372 -815 l50 -41 106 0 107 0 6 31 c3 17 6 46 6 63 0 28 -5 34 -37 45 -118 41 -309 200 -383 318 -104 165 -173 447 -140 581 9 41 9 67 -1 124 -18 107 -24 110 -47 22z"
       id="path438"
       style="fill:#993399" />
    <path
       d="M1525 1169 c-86 -81 -142 -157 -202 -276 -90 -175 -134 -345 -135 -513 -1 -124 19 -218 65 -310 l32 -65 88 -3 88 -3 -19 38 c-59 114 -67 250 -27 408 42 168 96 263 248 438 l85 97 -67 125 c-36 69 -71 125 -78 125 -7 0 -42 -28 -78 -61z"
       id="path440"
       style="fill:#cc3399" />
    <path
       d="M4260 1185 c0 -3 15 -27 34 -53 48 -66 93 -165 106 -231 6 -31 22 -94 36 -141 32 -116 42 -162 50 -251 11 -125 -27 -338 -80 -456 l-25 -53 174 0 174 0 6 54 c11 83 -23 293 -64 398 l-10 28 -35 -21 c-23 -14 -36 -16 -41 -9 -4 6 -1 49 6 95 l12 84 -38 101 c-57 151 -191 380 -255 434 -29 24 -50 33 -50 21z"
       id="path442"
       style="fill:#663366" />
    <path
       d="M2565 1138 c26 -85 64 -142 83 -124 12 12 -12 80 -40 111 -35 40 -52 45 -43 13z"
       id="path444"
       style="fill:#cc9966" />
    <path
       d="M2320 1096 c0 -7 -3 -27 -6 -43 -5 -26 -2 -33 29 -52 34 -21 36 -21 71 -4 26 12 36 23 36 40 0 15 -6 23 -17 23 -10 0 -31 8 -48 18 -46 28 -65 33 -65 18z"
       id="path446"
       style="fill:#cc9966" />
    <path
       d="M4712 1033 c40 -162 34 -393 -12 -482 -17 -34 -17 -37 2 -91 42 -122 61 -223 62 -342 l1 -118 126 0 126 0 13 53 c22 87 24 298 5 427 -21 148 -36 213 -47 202 -5 -5 -11 -48 -13 -96 -3 -49 -12 -118 -21 -155 -30 -119 -120 -291 -145 -275 -6 3 -7 13 -4 23 4 9 16 66 26 126 37 206 22 446 -35 599 -23 61 -93 206 -100 206 -2 0 5 -35 16 -77z"
       id="path448"
       style="fill:#993399" />
    <path
       d="M9901 1027 c-45 -96 -134 -186 -213 -215 -68 -26 -220 -46 -346 -47 l-93 0 28 -23 c99 -79 273 -82 414 -6 67 37 162 124 195 179 32 56 56 128 52 159 -2 20 -9 11 -37 -47z"
       id="path450"
       style="fill:#cc3399" />
    <path
       d="M6360 1027 c-77 -27 -59 -119 32 -165 34 -18 70 -26 132 -29 83 -6 201 10 211 28 8 12 -105 97 -180 134 -80 40 -144 51 -195 32z"
       id="path452"
       style="fill:#cc9966" />
    <path
       d="M5304 1005 c-19 -76 33 -309 101 -451 55 -113 123 -196 227 -274 75 -57 184 -120 208 -120 5 0 10 17 10 38 0 30 -16 61 -79 157 -83 127 -119 166 -216 235 -134 95 -185 169 -185 267 0 36 -9 70 -29 113 -28 60 -30 61 -37 35z"
       id="path454"
       style="fill:#993399" />
    <path
       d="M2379 947 c-37 -25 -44 -50 -17 -55 20 -4 68 40 68 63 0 21 -11 19 -51 -8z"
       id="path456"
       style="fill:#cc9966" />
    <path
       d="M1688 863 c-41 -49 -96 -118 -122 -155 -44 -64 -47 -71 -53 -150 -6 -92 9 -162 53 -249 38 -76 43 -69 37 44 -11 198 38 350 171 532 12 16 12 24 2 43 -11 22 -14 19 -88 -65z"
       id="path458"
       style="fill:#663366" />
    <path
       d="M4204 930 c22 -93 28 -165 23 -259 -9 -180 -47 -282 -138 -374 -68 -68 -163 -117 -226 -117 -24 0 -43 -3 -43 -7 0 -5 27 -42 60 -83 33 -41 60 -78 60 -82 0 -5 38 -8 84 -8 l85 0 36 59 c84 139 139 294 171 481 22 131 16 182 -34 282 -23 46 -51 94 -63 108 l-21 25 6 -25z"
       id="path460"
       style="fill:#663366" />
    <path
       d="M5970 918 c0 -50 135 -145 275 -193 189 -64 389 -60 511 11 54 30 61 51 31 82 l-24 23 -54 -18 c-40 -13 -82 -18 -164 -17 -288 2 -474 41 -539 113 -24 27 -36 27 -36 -1z"
       id="path462"
       style="fill:#cc9966" />
    <path
       d="M1771 828 c-106 -143 -156 -339 -132 -520 15 -110 42 -189 87 -255 l36 -53 64 0 64 0 -37 47 c-78 103 -114 233 -115 413 0 142 17 239 58 331 35 78 21 99 -25 37z"
       id="path464"
       style="fill:#993366" />
    <path
       d="M5400 843 c0 -67 47 -131 160 -215 133 -99 152 -119 226 -235 36 -57 70 -103 75 -103 16 0 -20 169 -46 220 -17 32 -76 87 -130 120 -69 41 -158 111 -222 174 -52 50 -63 57 -63 39z"
       id="path466"
       style="fill:#993399" />
    <path
       d="M5948 733 l-14 -128 103 -99 c192 -183 263 -304 263 -453 l0 -53 603 1 c504 1 594 3 552 13 -114 29 -206 88 -313 201 -107 112 -222 298 -257 415 -4 14 -18 50 -32 81 l-25 57 -50 -34 c-27 -19 -82 -44 -120 -55 -61 -19 -86 -21 -187 -16 -74 3 -143 13 -191 27 -102 29 -229 93 -270 135 -19 19 -37 35 -40 35 -4 0 -13 -57 -22 -127z"
       id="path468"
       style="fill:#cc9966" />
    <path
       d="M9053 844 c3 -11 15 -61 27 -112 20 -82 27 -96 57 -120 42 -34 149 -160 191 -228 61 -96 112 -257 112 -350 l0 -34 96 0 96 0 -7 53 c-10 76 -52 202 -92 278 -49 95 -118 177 -198 234 -112 80 -180 152 -201 212 -17 48 -26 57 -78 81 -4 3 -6 -4 -3 -14z"
       id="path470"
       style="fill:#cc3399" />
    <path
       d="M1821 773 c-33 -82 -43 -137 -48 -268 -4 -106 -1 -158 11 -215 19 -91 72 -202 119 -252 33 -36 38 -38 95 -38 l61 0 -39 73 c-78 144 -125 336 -136 547 -6 117 -21 180 -43 180 -5 0 -14 -12 -20 -27z"
       id="path472"
       style="fill:#993366" />
    <path
       d="M8570 742 c-63 -31 -105 -152 -81 -233 10 -34 15 -39 34 -34 49 15 114 63 145 109 50 74 41 135 -23 162 -42 17 -33 17 -75 -4z"
       id="path474"
       style="fill:#cc9966" />
    <path
       d="M4383 698 c-12 -29 -28 -100 -37 -158 -22 -154 -59 -269 -129 -412 l-63 -128 93 0 94 0 34 73 c76 159 99 402 55 585 -12 50 -23 92 -24 92 -1 0 -12 -24 -23 -52z"
       id="path476"
       style="fill:#663366" />
    <path
       d="M2112 670 c-56 -35 -65 -87 -22 -130 27 -27 56 -25 76 6 15 22 15 32 5 79 -7 30 -16 57 -20 59 -4 3 -21 -4 -39 -14z"
       id="path478"
       style="fill:#cc9966" />
    <path
       d="M1910 653 c0 -64 31 -260 54 -348 26 -97 68 -197 110 -263 l26 -42 95 0 c52 0 95 3 95 6 0 3 -26 49 -57 102 -31 54 -117 205 -190 337 -106 191 -133 233 -133 208z"
       id="path480"
       style="fill:#993366" />
    <path
       d="M7481 670 c-46 -11 -82 -40 -103 -81 -36 -69 -12 -173 40 -183 119 -23 238 -13 330 29 28 13 52 27 52 30 0 20 -48 93 -88 135 -65 66 -144 91 -231 70z"
       id="path482"
       style="fill:#cc9966" />
    <path
       d="M6925 630 c24 -68 101 -207 157 -282 27 -38 89 -104 136 -148 140 -132 281 -187 414 -162 81 15 127 47 163 113 25 47 29 65 30 134 0 44 -4 97 -8 117 l-8 38 -48 -25 c-64 -34 -181 -58 -259 -53 -57 4 -62 2 -45 -10 50 -39 124 -64 176 -60 29 2 60 8 70 12 31 15 18 -13 -15 -30 -22 -11 -50 -15 -97 -12 -76 4 -135 30 -196 87 -22 21 -62 46 -90 56 -103 37 -258 138 -358 234 l-38 36 16 -45z"
       id="path484"
       style="fill:#cc9966" />
    <path
       d="M2672 640 c-41 -11 -115 -41 -165 -68 l-92 -48 -3 -82 c-5 -131 26 -206 103 -249 77 -44 154 -26 278 64 43 32 47 38 47 77 0 53 13 71 104 140 46 36 77 67 81 83 8 33 -17 71 -60 89 -50 21 -203 17 -293 -6z"
       id="path486"
       style="fill:#cc9966" />
    <path
       d="M1108 542 c-93 -97 -167 -227 -217 -380 -16 -48 -32 -104 -35 -124 l-7 -38 50 0 50 0 6 58 c19 166 94 357 169 427 30 28 45 51 50 78 4 20 3 37 -2 37 -5 0 -34 -26 -64 -58z"
       id="path488"
       style="fill:#663366" />
    <path
       d="M9125 550 c4 -21 28 -57 56 -88 89 -98 139 -235 142 -388 l2 -74 43 0 c38 0 42 2 42 25 0 126 -87 332 -192 455 -36 41 -73 82 -83 90 -17 14 -17 12 -10 -20z"
       id="path490"
       style="fill:#993399" />
    <path
       d="M5926 528 c-3 -18 -17 -134 -31 -258 -14 -124 -28 -235 -30 -247 l-5 -23 211 0 212 0 -6 77 c-7 96 -50 188 -135 288 -54 63 -192 195 -206 195 -3 0 -8 -15 -10 -32z"
       id="path492"
       style="fill:#cc9966" />
    <path
       d="M1458 480 c-9 -30 -18 -64 -19 -75 -11 -77 73 -251 179 -372 22 -26 36 -33 65 -33 l37 0 -29 45 c-15 24 -36 66 -46 92 -10 26 -29 56 -42 67 -54 41 -111 170 -122 271 l-7 60 -16 -55z"
       id="path494"
       style="fill:#663366" />
    <path
       d="M9460 501 c0 -6 46 -45 103 -88 186 -140 286 -264 303 -375 6 -32 10 -38 32 -38 23 0 24 2 18 43 -18 116 -120 264 -236 344 -72 49 -220 126 -220 114z"
       id="path496"
       style="fill:#993399" />
    <path
       d="M1124 438 c-60 -71 -123 -252 -137 -390 l-5 -48 134 0 133 0 -29 63 c-46 101 -63 181 -64 299 -1 60 -2 108 -3 108 0 0 -14 -15 -29 -32z"
       id="path498"
       style="fill:#993366" />
    <path
       d="M9154 418 c14 -52 57 -288 64 -348 7 -64 7 -65 40 -68 l32 -3 0 78 c0 43 -7 104 -15 136 -14 55 -70 174 -98 210 -20 24 -31 21 -23 -5z"
       id="path500"
       style="fill:#993399" />
    <path
       d="M9585 298 c34 -76 75 -222 75 -270 l0 -28 91 0 92 0 -7 33 c-12 59 -58 138 -118 203 -53 57 -146 134 -161 134 -3 0 9 -33 28 -72z"
       id="path502"
       style="fill:#993399" />
    <path
       d="M1420 237 c0 -55 25 -140 56 -194 24 -41 27 -43 74 -43 l49 0 -49 64 c-26 36 -65 99 -86 140 -20 42 -39 76 -41 76 -1 0 -3 -19 -3 -43z"
       id="path504"
       style="fill:#663366" />
  </g>
</svg>
