<?xml version="1.0" standalone="no"?>
<!DOCTYPE svg PUBLIC "-//W3C//DTD SVG 20010904//EN"
 "http://www.w3.org/TR/2001/REC-SVG-20010904/DTD/svg10.dtd">
<svg version="1.0" xmlns="http://www.w3.org/2000/svg"
 width="850.000000pt" height="850.000000pt" viewBox="0 0 850.000000 850.000000"
 preserveAspectRatio="xMidYMid meet">
<metadata>
Created by potrace 1.14, written by Peter Selinger 2001-2017
</metadata>
<g transform="translate(0.000000,850.000000) scale(0.100000,-0.100000)"
fill="#000000" stroke="none">
<path d="M4165 8175 c-519 -55 -993 -286 -1193 -582 -24 -35 -73 -86 -111
-117 -147 -117 -258 -267 -307 -414 -30 -89 -29 -162 4 -214 l20 -31 -33 -46
c-41 -59 -54 -98 -62 -188 -6 -70 -7 -72 -30 -67 -35 9 -80 -14 -105 -54 -22
-36 -29 -122 -14 -169 7 -21 7 -21 -42 -6 -115 37 -232 -32 -232 -137 0 -67
72 -130 149 -130 18 0 31 -3 29 -7 -43 -84 -50 -109 -46 -164 10 -136 126
-157 213 -39 19 26 35 50 35 53 0 3 4 17 10 31 9 24 11 25 37 11 15 -8 46 -15
68 -15 39 0 41 -3 90 -77 62 -96 163 -204 262 -280 85 -65 216 -215 273 -313
77 -133 110 -264 110 -433 -1 -107 -1 -111 -16 -86 -9 14 -32 36 -52 50 -29
20 -48 24 -105 24 -63 0 -71 -2 -93 -28 -59 -68 4 -207 94 -207 l22 0 -20 -37
c-25 -48 -25 -78 0 -103 24 -24 74 -26 110 -5 14 8 28 14 33 15 4 0 5 -35 1
-77 -5 -64 -15 -100 -59 -198 -64 -147 -81 -204 -95 -321 -23 -193 31 -372
143 -476 17 -15 26 -31 22 -38 -4 -6 -40 -35 -80 -65 -92 -68 -125 -121 -166
-260 -49 -172 -71 -207 -206 -331 -198 -183 -440 -431 -468 -478 -16 -27 -43
-55 -70 -70 -62 -37 -148 -136 -195 -227 -84 -161 -182 -484 -215 -708 -9 -56
-22 -204 -30 -329 -8 -125 -22 -333 -30 -462 l-16 -235 -72 -67 c-40 -37 -66
-67 -59 -68 30 0 224 174 308 277 63 77 136 183 169 245 34 62 34 63 44 35 34
-89 38 -363 6 -477 -18 -68 -19 -80 -1 -80 35 0 63 265 43 415 l-8 59 42 -59
c41 -58 42 -62 40 -130 -2 -82 -12 -129 -45 -219 -21 -60 -22 -66 -6 -66 25 0
72 159 74 250 0 39 3 70 6 70 3 0 23 -18 44 -39 37 -38 38 -40 26 -78 -19 -56
-38 -92 -81 -150 -35 -47 -37 -53 -19 -53 25 0 91 98 115 171 11 33 21 47 28
42 7 -5 37 -24 67 -44 118 -78 268 -137 312 -123 23 7 51 48 74 109 l19 50 7
-55 c4 -30 5 -76 2 -103 l-6 -47 43 0 42 0 -6 114 -6 114 57 -21 c43 -16 81
-21 157 -22 55 0 111 2 124 5 30 6 42 -19 12 -27 -26 -7 -28 -23 -2 -23 20 0
25 -12 36 -92 5 -33 12 -48 22 -48 12 0 14 8 9 40 -11 71 -19 190 -12 190 3 0
37 -16 75 -35 84 -43 130 -45 205 -8 l54 26 56 -23 c82 -33 118 -29 209 19 43
22 85 41 93 41 9 0 30 -15 47 -33 77 -78 122 -84 285 -38 l102 28 0 -23 c0
-14 -8 -25 -20 -29 -11 -4 -18 -11 -14 -16 3 -5 10 -6 16 -3 8 5 9 -14 5 -64
l-6 -72 58 0 58 0 6 128 c20 408 138 701 589 1457 99 166 344 518 389 559 21
19 -37 -77 -165 -272 -255 -389 -361 -599 -464 -924 -83 -258 -119 -504 -108
-738 8 -187 13 -210 38 -210 16 0 19 4 13 22 -13 45 -18 364 -6 464 34 291
126 594 269 883 59 121 183 330 326 551 48 74 114 190 147 257 33 68 64 125
68 128 17 10 -82 -281 -105 -310 -265 -333 -372 -514 -454 -765 -56 -174 -73
-283 -73 -495 0 -216 15 -359 54 -520 42 -170 58 -215 76 -215 11 0 14 6 9 23
-79 263 -101 420 -100 702 0 198 3 244 22 331 97 449 347 813 1003 1459 134
132 266 258 293 280 106 85 298 295 384 419 122 174 225 419 272 641 27 129
37 370 21 486 -36 255 -146 518 -323 776 -234 340 -734 822 -1118 1078 -403
267 -949 518 -1277 585 -281 58 -618 50 -883 -21 -82 -22 -213 -69 -208 -75 2
-2 28 3 57 11 67 18 56 5 -29 -31 -52 -22 -84 -28 -160 -31 -144 -6 -150 10
-42 102 167 144 408 208 777 208 297 -1 576 -41 960 -139 277 -70 281 -71 130
-20 -256 87 -605 161 -879 187 -157 14 -425 7 -551 -16 -49 -9 -134 -31 -187
-48 -53 -18 -94 -29 -91 -24 23 38 277 171 408 215 241 80 543 101 825 55 290
-47 744 -227 1047 -415 56 -35 148 -91 205 -126 233 -143 493 -371 773 -675
257 -281 362 -408 503 -609 323 -462 392 -601 485 -968 29 -116 32 -137 32
-300 0 -152 -3 -187 -24 -265 -37 -143 -86 -251 -176 -385 -169 -253 -384
-476 -720 -746 -190 -153 -340 -275 -450 -367 -27 -23 -111 -103 -185 -177
-529 -528 -738 -1041 -676 -1657 27 -268 67 -463 95 -463 16 0 16 7 -6 103
-50 223 -76 538 -57 712 l8 80 7 -117 c14 -210 64 -458 136 -670 29 -87 40
-108 55 -108 12 0 18 5 14 13 -24 58 -90 277 -110 371 -49 217 -60 308 -60
526 0 195 1 209 28 295 39 128 110 272 203 410 76 114 185 259 252 335 l30 35
-34 -97 c-85 -241 -110 -391 -109 -653 1 -358 59 -652 183 -928 l31 -68 -26
-50 c-14 -28 -43 -79 -64 -115 -22 -35 -40 -67 -40 -69 0 -3 9 -5 20 -5 25 0
75 75 141 214 80 167 132 355 171 611 21 142 18 563 -6 695 -26 148 -62 305
-102 447 -19 68 -34 129 -34 137 0 19 162 168 172 158 35 -36 243 -544 316
-773 79 -248 108 -437 99 -652 -6 -157 -21 -238 -74 -402 -35 -110 -114 -284
-173 -382 l-32 -53 24 0 c59 0 219 361 274 620 14 65 19 128 19 270 0 203 -8
263 -61 470 -53 202 -242 696 -328 851 -20 36 -36 70 -36 76 0 6 21 27 46 48
l46 38 50 -49 c310 -301 522 -739 579 -1198 17 -138 6 -472 -21 -649 -23 -153
-67 -336 -99 -410 -12 -27 -21 -53 -21 -58 0 -5 18 -9 40 -9 39 0 40 1 76 73
109 216 189 475 231 747 27 176 24 485 -6 655 -27 156 -75 324 -130 460 -22
54 -39 101 -37 102 1 2 30 -45 64 -105 102 -179 171 -369 221 -602 35 -166 44
-291 38 -515 -8 -309 -49 -517 -143 -714 -24 -51 -44 -95 -44 -97 0 -2 9 -4
20 -4 25 0 64 76 114 218 71 204 102 455 93 746 -12 386 -110 726 -297 1036
-72 119 -348 535 -393 593 l-30 39 34 26 c19 15 77 64 129 109 52 45 98 79
102 75 3 -4 40 -69 82 -145 42 -76 135 -233 207 -350 478 -778 608 -1316 478
-1976 -17 -84 -78 -292 -106 -359 -4 -10 2 -13 18 -10 20 2 29 16 52 83 99
279 144 635 118 915 -41 430 -198 838 -524 1359 -68 108 -154 250 -191 316
-37 66 -79 137 -93 157 l-26 38 149 153 149 153 6 -106 c17 -276 201 -666 655
-1390 144 -229 260 -458 313 -617 92 -278 51 -650 -107 -966 -47 -92 -48 -97
-27 -97 18 0 30 17 67 97 85 184 130 353 144 541 4 51 8 91 10 89 2 -2 11 -52
20 -113 19 -119 25 -418 11 -541 -8 -69 -7 -73 12 -73 17 0 21 10 28 68 14
118 8 416 -11 547 -54 364 -162 648 -386 1016 -44 72 -80 133 -80 134 0 1 25
5 55 8 92 9 177 72 213 157 10 24 13 57 10 106 -5 80 -35 143 -88 188 -35 29
-101 52 -124 43 -26 -10 -18 -34 13 -40 63 -13 63 -119 0 -172 -91 -76 -250
24 -352 222 -82 161 -125 308 -151 518 -43 353 -25 602 61 834 59 160 77 257
77 421 0 174 -17 264 -98 515 -30 94 -73 239 -96 323 -22 84 -56 199 -75 255
-19 56 -35 105 -35 109 0 4 12 3 26 -2 37 -14 109 -12 149 4 65 27 93 112 60
177 -20 38 -87 87 -131 95 -19 3 -34 8 -34 11 0 2 12 20 27 40 21 28 28 49 31
99 4 63 4 64 -36 104 -35 35 -45 40 -86 40 -65 0 -121 -31 -157 -87 -16 -26
-29 -55 -29 -64 0 -29 -16 -30 -29 -3 -6 15 -11 79 -11 157 0 233 -24 358 -95
503 -30 62 -65 113 -108 160 -35 38 -77 94 -92 124 -72 143 -219 319 -350 418
-98 74 -164 143 -202 212 -153 274 -355 476 -591 586 -42 19 -162 78 -267 129
-264 130 -418 179 -665 210 -179 22 -411 27 -565 10z m350 -22 c11 -3 -29 -16
-96 -29 -160 -33 -268 -68 -379 -124 -255 -129 -429 -304 -550 -554 -65 -134
-136 -344 -146 -429 -4 -30 -9 -59 -13 -63 -3 -5 -53 -52 -110 -104 -102 -93
-104 -94 -97 -60 14 68 36 225 35 250 0 14 -16 -42 -34 -123 -42 -186 -52
-215 -76 -227 -16 -9 -21 -6 -30 17 -26 65 -41 189 -35 289 9 165 41 289 117
453 60 130 38 107 -30 -31 -67 -136 -97 -236 -111 -376 -10 -96 0 -244 20
-298 10 -24 9 -26 -5 -14 -26 22 -74 124 -92 197 -25 101 -22 305 5 404 78
289 323 521 707 672 147 58 161 57 75 -3 -156 -110 -295 -280 -379 -461 -56
-123 -59 -147 -6 -49 160 294 303 444 531 558 93 46 157 66 268 82 149 22 400
35 431 23z m369 -37 c42 -8 129 -33 193 -55 116 -38 279 -108 272 -115 -2 -2
-33 3 -69 11 -104 24 -367 29 -475 8 -177 -32 -344 -102 -515 -213 -172 -111
-345 -259 -635 -543 -104 -102 -214 -200 -242 -217 l-53 -32 0 24 c0 37 78
273 118 356 107 222 512 497 914 620 144 44 361 77 528 81 l55 1 -60 10 c-81
13 -244 3 -368 -23 -328 -66 -699 -251 -918 -457 -46 -42 -79 -70 -74 -62 97
168 270 335 453 438 255 144 628 215 876 168z m386 -191 c365 -80 649 -254
831 -511 113 -159 113 -162 -6 -60 -260 222 -545 323 -950 333 -288 8 -524
-28 -795 -122 -252 -87 -540 -265 -670 -412 -34 -39 -116 -91 -126 -80 -9 8
461 436 596 543 206 163 444 278 660 319 97 19 355 13 460 -10z m-15 -275
c393 -36 631 -145 934 -425 34 -32 60 -59 58 -61 -2 -2 -41 12 -88 32 -299
126 -621 145 -1219 69 -363 -46 -464 -55 -659 -55 -210 0 -336 -14 -486 -54
-49 -13 -91 -23 -93 -21 -2 1 22 25 53 51 225 194 540 348 857 418 229 50 436
65 643 46z m-2376 -236 c-62 -177 -64 -397 -5 -563 9 -24 14 -46 12 -48 -5 -5
-69 83 -91 127 -10 19 -29 67 -41 105 -12 39 -23 61 -23 49 -2 -46 22 -142 47
-189 l27 -50 -85 -1 c-47 0 -94 -3 -105 -5 -15 -3 -24 5 -37 31 -49 96 10 267
153 444 57 71 158 171 165 163 2 -2 -6 -30 -17 -63z m2811 -144 c266 -23 487
-97 686 -230 103 -69 265 -233 336 -340 31 -47 55 -86 54 -87 -2 -2 -34 17
-72 42 -146 96 -363 195 -579 264 -237 76 -474 119 -1065 191 -184 23 -369 50
-410 59 l-75 18 65 7 c36 4 175 21 310 38 381 46 554 55 750 38z m-469 -215
c688 -92 993 -174 1334 -360 277 -151 415 -309 475 -541 18 -70 47 -400 36
-411 -2 -2 -28 28 -59 66 -123 151 -305 313 -492 438 -120 80 -221 138 -460
268 -110 59 -275 153 -368 207 -190 113 -477 256 -647 322 -63 25 -108 46 -99
46 9 0 135 -16 280 -35z m-2395 -260 c28 -14 77 -50 110 -80 l59 -56 -40 4
c-64 7 -138 -11 -240 -58 -61 -28 -114 -62 -146 -92 -40 -38 -52 -44 -60 -32
-11 18 -11 36 2 122 19 122 66 192 146 217 41 14 111 3 169 -25z m1364 -16
c240 -22 492 -94 792 -226 135 -59 160 -73 209 -123 148 -150 201 -300 217
-605 l8 -140 17 55 c10 30 25 106 34 168 9 61 20 112 25 112 20 0 30 -60 25
-155 l-5 -100 19 55 c26 80 24 136 -8 199 -24 49 -25 57 -14 90 18 50 59 111
74 111 8 0 38 -17 67 -38 97 -67 136 -189 94 -290 -29 -70 -87 -148 -126 -170
-58 -34 -72 -63 -79 -166 -19 -247 -113 -517 -269 -766 -143 -229 -336 -464
-400 -488 -28 -10 -16 -13 -397 86 -370 97 -495 146 -630 248 -88 67 -131 119
-188 226 -51 96 -85 210 -85 284 l0 52 53 -28 c75 -41 139 -47 227 -21 42 13
84 34 106 53 29 26 37 29 45 17 18 -30 30 -120 27 -220 -3 -90 0 -109 17 -139
40 -68 138 -88 197 -40 23 18 22 18 -39 13 -128 -12 -143 9 -143 194 0 94 -5
143 -17 179 -55 163 -228 315 -529 461 -128 62 -144 68 -204 68 -72 0 -150
-31 -204 -82 l-29 -27 -43 49 c-139 161 -193 346 -146 501 17 53 84 184 95
184 1 0 2 -26 3 -57 0 -116 39 -172 204 -298 52 -40 111 -89 129 -109 50 -52
58 -44 21 21 -66 116 -100 264 -100 434 0 94 -23 162 -70 208 l-40 38 78 5
c62 4 93 12 156 42 44 20 94 48 112 61 82 63 440 100 714 74z m-1203 -160 c37
-14 73 -48 73 -70 0 -9 -36 -72 -80 -138 -92 -140 -119 -191 -148 -281 -32
-99 -35 -129 -18 -210 13 -64 82 -228 91 -218 2 2 -10 43 -27 92 -16 49 -32
115 -34 145 l-4 56 13 -50 c32 -121 87 -212 209 -340 94 -99 169 -160 248
-200 44 -22 51 -29 36 -35 -14 -5 -10 -9 21 -18 22 -7 53 -12 69 -13 26 0 27
-1 8 -9 -52 -21 -268 60 -419 158 -189 122 -307 246 -380 397 -70 144 -77 259
-24 413 24 69 24 74 -1 37 -41 -61 -63 -158 -58 -262 l4 -95 -28 34 c-51 61
-81 134 -81 199 0 120 114 294 234 355 114 58 229 79 296 53z m144 -66 c60
-54 69 -80 80 -221 10 -143 21 -209 42 -267 8 -22 18 -49 21 -60 5 -11 -10 -1
-34 24 -56 60 -116 188 -135 287 -13 67 -26 274 -18 274 2 0 21 -17 44 -37z
m-670 -73 c26 -15 25 -59 -5 -134 -13 -34 -27 -78 -31 -98 -4 -21 -13 -38 -19
-38 -7 0 -25 -13 -41 -30 -53 -55 -44 -166 16 -185 12 -4 40 0 66 10 24 9 45
16 47 14 1 -2 19 -25 39 -50 20 -25 37 -49 37 -53 0 -15 -50 -4 -84 19 -42 28
-56 26 -56 -11 0 -37 -34 -97 -75 -132 -52 -46 -104 -43 -130 9 -30 57 -11
146 42 201 32 33 25 43 -27 39 -80 -5 -160 47 -160 105 0 94 109 156 210 119
85 -31 84 -31 76 -4 -12 41 -19 126 -13 151 10 37 46 78 68 78 11 0 29 -5 40
-10z m3834 -138 c490 -282 766 -574 948 -1002 59 -140 160 -448 138 -425 -4 6
-73 107 -152 225 -223 332 -290 419 -575 741 -183 207 -400 425 -526 528 -43
35 -78 66 -78 68 0 5 47 -21 245 -135z m-3201 -106 c10 -33 31 -87 48 -120 33
-66 29 -65 -45 3 -62 58 -82 104 -81 191 0 50 7 88 19 115 l18 40 12 -85 c7
-47 20 -112 29 -144z m2308 63 c43 -86 58 -235 39 -389 -7 -55 -7 -54 -14 40
-16 193 -63 325 -155 430 l-47 54 75 -40 c67 -36 78 -47 102 -95z m129 -40
c22 -16 23 -18 8 -35 -9 -11 -27 -39 -40 -64 l-23 -45 -8 64 c-5 35 -15 79
-23 98 -8 20 -15 37 -15 40 0 4 57 -28 101 -58z m-3088 -146 c24 -63 25 -69
10 -80 -9 -7 -32 -13 -50 -13 -27 0 -35 5 -43 26 -6 14 -10 35 -10 47 0 28 36
87 53 87 7 0 25 -30 40 -67z m3463 -116 c205 -164 289 -268 407 -503 115 -231
191 -535 204 -824 7 -154 -6 -285 -42 -441 -13 -57 -49 -212 -79 -344 -68
-293 -84 -426 -68 -562 15 -129 52 -257 108 -371 l46 -92 -79 -72 c-43 -40
-122 -115 -176 -167 -90 -88 -98 -93 -111 -76 -54 74 -83 287 -52 381 85 258
106 646 46 879 -10 41 -36 109 -56 152 -37 77 -38 81 -42 218 -3 111 3 199 28
425 40 356 49 626 27 755 -29 162 -83 305 -195 510 -67 123 -116 235 -103 235
4 0 65 -46 137 -103z m-17 -235 c174 -348 190 -505 115 -1151 -13 -117 -27
-269 -31 -338 -3 -68 -9 -120 -13 -116 -14 15 -143 298 -172 378 -39 105 -52
238 -38 400 9 109 27 209 90 500 14 64 22 136 22 200 0 88 -3 110 -31 185 -60
161 -43 143 58 -58z m-74 2 c30 -114 22 -182 -59 -554 -25 -115 -45 -276 -47
-374 l-1 -51 -23 90 c-46 175 -98 547 -82 588 4 10 17 17 33 17 38 0 91 28
115 61 44 62 30 146 -31 182 l-29 17 42 66 c41 64 41 64 54 40 7 -13 20 -51
28 -82z m1582 2 c50 -59 42 -129 -23 -194 -24 -25 -44 -49 -44 -53 0 -5 17 -9
38 -9 70 -1 159 -60 177 -118 9 -31 -11 -87 -39 -105 -36 -24 -89 -30 -148
-17 -54 12 -55 13 -77 69 -22 55 -22 58 -5 87 31 55 -10 132 -66 121 -24 -5
-29 -2 -45 34 -15 33 -16 45 -6 79 13 45 52 95 96 122 43 27 111 19 142 -16z
m-766 -471 c82 -100 150 -226 175 -325 20 -77 22 -260 5 -365 -13 -77 -76
-337 -145 -599 -64 -238 -79 -340 -74 -488 5 -144 21 -198 93 -309 42 -64 45
-75 34 -95 -18 -35 -206 -230 -214 -222 -3 3 -25 48 -47 100 -82 189 -113 390
-89 573 12 89 70 362 116 545 96 383 93 670 -11 1049 -55 199 -105 316 -223
516 -30 52 276 -255 380 -380z m-911 385 c45 -45 9 -136 -65 -160 -47 -16 -71
-1 -80 50 -15 90 87 168 145 110z m-2280 -22 c19 -6 64 -25 100 -41 l65 -30
-73 -18 c-75 -19 -125 -46 -142 -79 -20 -37 -9 -44 19 -13 37 41 89 62 176 73
67 7 72 6 117 -22 47 -29 54 -48 19 -48 -10 0 -59 -20 -111 -45 -87 -43 -204
-72 -215 -55 -3 4 -46 32 -97 63 -100 60 -182 132 -175 151 8 21 103 66 158
75 57 9 102 6 159 -11z m3796 -136 c31 -20 41 -92 14 -92 -10 0 -50 72 -50 90
0 12 20 13 36 2z m-3347 -147 c79 -83 93 -109 69 -133 -9 -9 -16 1 -32 41 -17
41 -32 59 -70 84 -26 18 -67 38 -89 44 -72 19 -74 21 -27 34 25 7 50 13 56 14
6 1 48 -37 93 -84z m-565 -61 l29 -7 -29 -12 -29 -12 45 -8 44 -7 -44 -24
c-38 -20 -41 -23 -20 -23 14 -1 49 10 79 24 59 28 76 26 115 -10 21 -19 26
-34 27 -72 0 -26 8 -90 18 -141 l18 -93 -46 -39 -46 -40 -7 103 c-3 56 -11
116 -17 132 -9 24 -10 10 -6 -70 8 -152 -1 -189 -66 -267 l-54 -67 -6 132 c-8
175 -35 280 -101 396 -33 60 -106 158 -132 180 -38 32 -9 26 92 -19 59 -27
121 -52 136 -56z m372 70 c-3 -9 -6 -20 -6 -25 0 -5 -13 -9 -28 -9 -84 0 -60
-105 31 -139 71 -27 135 4 124 59 -4 20 0 33 14 46 18 17 20 16 44 -6 13 -13
30 -39 36 -58 14 -43 2 -55 -80 -79 -109 -31 -199 1 -261 95 -43 64 -40 78 23
107 61 29 112 34 103 9z m1894 -329 c46 -282 95 -453 199 -688 34 -76 61 -139
61 -141 0 -1 -53 13 -117 31 -75 21 -151 36 -208 40 -162 10 -348 -29 -456
-96 l-47 -29 -4 101 -3 102 52 62 c109 131 253 353 333 512 54 108 112 267
129 356 21 104 25 103 33 -11 4 -62 16 -169 28 -239z m-1805 318 c42 -20 44
-29 10 -45 -32 -14 -75 3 -75 30 0 36 14 39 65 15z m-75 -58 c7 -8 28 -17 47
-21 30 -6 34 -10 31 -33 -3 -24 -6 -26 -51 -25 -40 0 -53 6 -79 32 -27 26 -29
33 -18 46 16 20 54 21 70 1z m-187 -17 c8 -29 3 -32 -23 -18 -17 9 -19 14 -9
26 16 20 26 18 32 -8z m3355 -346 c98 -170 179 -389 208 -556 24 -138 14 -413
-20 -561 -49 -211 -131 -405 -245 -583 -29 -46 -59 -81 -65 -79 -18 6 -91 131
-110 189 -24 75 -31 199 -17 314 7 55 50 248 97 429 99 392 109 439 124 573
12 113 2 256 -25 331 -21 62 -3 42 53 -57z m-3239 -119 c36 -76 100 -152 180
-215 137 -110 287 -170 649 -263 119 -31 252 -67 294 -81 44 -14 86 -23 98
-19 11 3 42 24 70 46 27 21 52 39 55 39 10 0 5 -121 -7 -168 -8 -34 -26 -64
-64 -105 -66 -71 -109 -133 -136 -195 -11 -26 -33 -63 -48 -82 -60 -77 -72
-122 -46 -173 15 -26 14 -28 -22 -47 -34 -18 -35 -19 -12 -20 14 0 35 6 46 14
20 14 104 12 104 -3 0 -3 -16 -17 -35 -30 -48 -33 -129 -53 -161 -41 -34 13
-44 12 -38 -3 6 -17 -50 -102 -101 -151 -171 -166 -501 -245 -784 -187 -173
36 -267 84 -393 200 -145 134 -192 341 -132 575 16 64 108 291 127 314 5 7 12
46 15 87 4 72 6 75 30 75 51 0 106 -25 158 -73 42 -38 54 -45 54 -30 0 29 -55
89 -102 111 -24 12 -64 24 -90 27 l-46 7 5 37 c14 107 41 164 115 250 68 79
155 151 182 151 7 0 22 -21 35 -47z m-442 -94 c57 -27 71 -52 38 -67 -16 -7
-26 -23 -30 -45 -9 -49 8 -77 47 -77 30 0 31 0 25 -45 -2 -25 -12 -54 -22 -64
-40 -45 -117 -51 -130 -12 -7 25 16 80 44 105 31 28 26 37 -17 30 -51 -8 -94
15 -116 60 -51 107 41 173 161 115z m81 -121 c-3 -38 -6 -43 -28 -43 -18 0
-26 6 -28 22 -5 31 15 63 39 63 18 0 20 -5 17 -42z m2406 -382 c104 -27 190
-68 212 -102 34 -51 125 -300 150 -409 35 -157 44 -377 20 -517 -24 -140 -51
-238 -102 -367 -56 -140 -93 -209 -197 -364 -76 -115 -132 -190 -343 -459
-112 -143 -214 -305 -329 -518 -43 -80 -125 -228 -183 -330 -182 -320 -263
-493 -328 -705 l-25 -80 6 89 c14 236 119 578 274 901 99 204 213 393 465 769
193 289 296 468 347 604 13 35 42 85 65 112 150 177 226 341 258 561 42 281
-8 521 -130 628 -97 85 -227 125 -404 124 -103 -1 -126 -4 -210 -33 -157 -54
-192 -75 -367 -225 -24 -20 -43 -34 -43 -30 0 31 173 225 246 276 97 67 219
97 395 98 103 1 144 -4 223 -23z m-49 -116 c203 -52 289 -165 315 -417 19
-179 -22 -419 -99 -578 -51 -105 -138 -222 -229 -307 -81 -77 -168 -138 -195
-138 -31 0 -71 26 -120 78 -25 28 -64 61 -87 74 l-40 24 54 17 c31 10 73 34
100 58 68 60 79 90 15 39 -66 -52 -116 -78 -166 -85 -60 -9 -69 3 -56 74 6 33
9 68 7 78 -5 17 3 21 56 31 34 6 90 27 126 47 69 39 83 60 17 27 -53 -27 -140
-52 -182 -52 -39 0 -128 37 -148 62 -9 10 -11 38 -7 94 l7 79 70 17 c75 19
148 58 212 115 40 35 40 35 5 14 -75 -48 -199 -102 -248 -110 -41 -6 -57 -5
-74 8 -13 9 -50 30 -83 46 l-60 31 3 44 c4 56 33 89 111 125 61 29 199 119
246 161 l30 26 -30 -18 c-250 -150 -310 -173 -442 -166 -31 2 -33 5 -33 36 0
19 4 46 10 60 17 46 284 259 402 321 188 99 352 126 513 85z m-884 -696 c8 -9
51 -35 98 -57 l83 -40 -5 -41 c-17 -120 -21 -133 -64 -196 -24 -36 -55 -80
-70 -97 -14 -18 -23 -33 -20 -33 5 0 108 119 131 152 15 21 15 21 45 -8 36
-33 37 -45 15 -122 -32 -112 -98 -210 -251 -374 -56 -59 -60 -66 -26 -40 90
70 222 225 300 350 42 69 79 119 81 113 2 -6 -1 -34 -7 -61 -15 -69 -14 -100
4 -134 15 -29 15 -31 -19 -65 -83 -87 -137 -202 -167 -352 -38 -196 -182 -377
-373 -470 -105 -51 -178 -54 -247 -11 -69 44 -72 51 -64 135 l7 73 29 -27 c65
-61 149 -60 258 2 66 38 173 143 229 226 40 59 36 56 -76 -56 -95 -95 -131
-125 -191 -154 -40 -21 -87 -37 -103 -37 -73 0 -139 62 -153 145 -10 57 -47
101 -116 136 -65 32 -86 61 -75 105 11 40 152 176 291 279 136 100 157 118
100 85 -115 -68 -230 -154 -312 -235 l-93 -92 -14 52 c-27 89 -77 127 -216
159 -53 12 -57 22 -23 58 18 18 39 50 48 71 15 37 16 37 43 23 53 -28 66 -44
86 -107 28 -85 49 -86 56 -4 l5 60 18 -50 c35 -97 38 -100 82 -97 27 3 48 13
69 34 28 28 30 37 29 90 -1 39 -8 70 -22 94 -12 19 -21 36 -21 37 0 1 18 2 40
2 50 1 91 35 74 62 -5 9 -58 32 -117 53 -59 20 -110 39 -113 42 -3 4 21 9 53
13 90 10 229 43 271 64 21 10 84 60 141 110 106 94 138 115 206 137 52 17 50
17 66 -2z m2699 -35 c-18 -70 -24 -360 -11 -494 19 -194 35 -274 95 -480 4
-11 -23 39 -59 110 -73 146 -128 282 -157 388 -24 88 -35 253 -20 296 11 31
153 233 160 227 1 -2 -2 -23 -8 -47z m-4121 -118 c16 -10 9 -20 -139 -201 -77
-95 -121 -175 -128 -235 -4 -36 -8 -42 -38 -51 -19 -6 -34 -10 -34 -9 0 1 11
27 25 58 13 30 34 96 45 145 28 118 60 167 147 225 39 26 76 54 83 62 14 17
20 18 39 6z m117 -73 c73 -39 76 -42 53 -51 -106 -43 -256 -123 -246 -133 2
-2 54 19 116 47 150 67 198 77 298 60 122 -19 118 -17 84 -56 -49 -57 -50
-154 -2 -170 12 -3 21 -10 21 -15 0 -19 -105 -122 -154 -150 -90 -51 -130 -61
-256 -61 -139 -1 -192 11 -238 57 -33 33 -34 36 -30 98 3 52 11 75 39 121 39
63 220 294 231 295 3 0 41 -19 84 -42z m615 -143 c68 -25 129 -45 136 -45 19
0 27 -21 12 -31 -19 -12 -106 -11 -114 1 -3 5 -15 15 -27 21 -25 13 -20 4 27
-56 48 -60 55 -78 54 -142 l-1 -58 -9 42 c-4 24 -15 58 -24 76 -17 37 -85 108
-85 90 0 -7 4 -15 10 -18 20 -12 64 -99 76 -151 10 -44 10 -55 -2 -65 -11 -9
-15 -8 -18 2 -2 8 -12 38 -21 67 -18 55 -69 132 -94 140 -10 3 -8 -6 8 -29 28
-43 68 -126 76 -161 6 -22 4 -28 -9 -28 -10 0 -19 15 -27 43 -13 50 -68 157
-80 157 -5 0 -7 -33 -4 -72 l5 -73 -17 49 c-16 43 -26 54 -75 83 -31 18 -66
45 -77 60 -26 32 -35 27 -16 -10 10 -21 11 -27 1 -27 -18 0 -36 21 -36 42 0
29 36 92 61 107 70 42 124 39 270 -14z m1974 -393 c8 -34 26 -84 39 -111 l25
-48 -57 -56 c-32 -32 -61 -57 -64 -57 -14 0 -38 106 -38 169 0 55 6 81 37 151
36 80 38 83 41 50 2 -19 10 -63 17 -98z m-744 63 c32 -31 74 -62 94 -71 33
-13 39 -13 83 6 26 12 73 41 105 66 31 25 57 42 57 37 0 -4 -30 -68 -66 -142
-46 -92 -134 -235 -281 -455 -257 -384 -352 -541 -449 -741 -190 -395 -290
-739 -301 -1032 l-6 -153 -66 -19 c-177 -52 -219 -54 -258 -15 -37 37 -28 92
35 213 43 84 103 229 102 249 -1 12 -48 -68 -108 -182 -31 -60 -75 -127 -97
-150 -53 -55 -201 -136 -249 -136 -34 0 -116 26 -116 37 0 3 18 25 39 48 22
24 46 57 55 73 12 23 -4 12 -56 -41 -79 -78 -163 -127 -217 -127 -20 0 -69 17
-119 42 l-84 42 7 131 c9 159 29 294 48 312 8 8 59 26 113 39 54 14 129 36
166 50 65 24 68 28 129 116 34 50 81 113 105 140 68 75 77 105 80 246 l3 123
35 48 c42 57 58 95 49 117 -5 13 -16 15 -59 11 l-52 -5 34 61 c66 119 153 171
313 187 71 8 93 15 152 50 154 91 279 219 353 359 19 37 57 124 85 195 63 159
92 213 143 266 77 79 120 81 199 5z m-2197 -9 c43 -56 97 -71 264 -71 l144 0
-39 -34 c-138 -121 -225 -171 -382 -218 -72 -21 -111 -26 -241 -30 -85 -2
-166 -7 -180 -10 -25 -6 -25 -6 5 -13 17 -4 83 -8 148 -9 124 -1 231 15 321
50 27 10 51 17 53 15 6 -6 -144 -119 -190 -142 -31 -16 -79 -28 -135 -35 -120
-14 -125 -20 -12 -15 78 2 104 8 146 29 54 28 348 244 499 368 50 41 112 85
137 99 l47 24 23 -21 c13 -12 54 -32 91 -44 85 -28 123 -67 131 -136 6 -43 21
-101 40 -144 5 -12 -12 -31 -66 -74 -119 -95 -108 -94 31 2 88 61 101 44 30
-38 -105 -122 -230 -209 -377 -265 -97 -37 -91 -46 9 -13 128 42 229 109 366
242 81 79 82 80 113 67 41 -17 70 -56 70 -95 0 -61 -56 -195 -129 -305 -43
-67 -191 -222 -238 -251 -19 -12 -32 -23 -29 -26 7 -8 115 65 166 113 70 66
127 143 182 248 54 102 53 83 -3 -83 -58 -169 -143 -305 -263 -418 -126 -120
-220 -171 -365 -199 -61 -12 -141 -11 -141 1 0 2 31 33 69 70 121 116 198 305
135 329 -12 4 -34 -10 -73 -47 -62 -59 -147 -125 -233 -182 -54 -35 -64 -38
-146 -42 -76 -4 -97 -1 -162 22 -139 50 -201 89 -304 193 -185 188 -262 366
-211 488 19 46 192 239 305 340 19 17 69 69 111 115 58 65 96 95 160 132 46
26 87 47 90 47 4 0 18 -15 33 -34z m3578 -141 c385 -529 557 -1073 509 -1610
-24 -263 -108 -590 -202 -780 -22 -44 -37 -71 -33 -60 61 212 94 437 101 690
6 224 -4 346 -43 523 -83 375 -248 685 -503 945 -104 106 -105 107 -86 127 44
43 221 189 230 189 6 0 18 -10 27 -24z m-762 -62 c1 -27 9 -73 20 -103 10 -30
15 -60 12 -66 -4 -6 -60 -67 -125 -135 l-117 -124 15 50 c47 160 99 294 137
355 24 38 46 69 51 70 4 0 7 -21 7 -47z m2235 -427 c18 -60 18 -77 4 -127 -26
-86 -113 -149 -205 -149 -62 0 -68 6 -159 154 -81 131 -89 151 -44 110 112
-104 262 -105 314 -4 8 16 15 53 15 82 l1 53 30 -35 c16 -19 36 -57 44 -84z
m-5812 -73 c3 -43 8 -88 12 -100 6 -18 -4 -32 -50 -75 -118 -109 -186 -223
-254 -423 -49 -147 -68 -253 -81 -455 -6 -85 -15 -225 -20 -310 -6 -85 -16
-215 -22 -288 l-12 -132 -38 -37 -38 -37 0 29 c0 63 60 874 71 950 13 97 62
333 83 395 26 79 113 286 147 352 32 60 164 208 186 208 6 0 13 -35 16 -77z
m3832 -411 c53 -281 54 -538 4 -844 -30 -186 -107 -458 -129 -458 -24 0 -116
266 -149 430 -57 281 -66 649 -22 865 38 183 125 429 168 477 16 18 19 9 60
-159 24 -98 54 -238 68 -311z m-3689 67 c24 -31 91 -102 150 -158 135 -128
216 -172 328 -179 l74 -5 -13 -30 c-7 -17 -25 -45 -39 -64 -26 -32 -28 -33
-105 -33 -43 0 -100 -7 -127 -15 -74 -22 -110 -19 -158 14 -41 29 -128 126
-231 259 -54 70 -67 80 -34 25 109 -180 223 -311 294 -339 l42 -16 -31 -49
c-22 -35 -38 -49 -54 -49 -32 0 -89 31 -154 84 -39 32 -55 40 -51 27 6 -24 68
-84 134 -130 40 -28 62 -53 90 -106 46 -85 120 -171 165 -193 19 -8 34 -19 34
-23 0 -16 -106 -39 -184 -40 -106 -1 -63 -17 50 -18 68 -1 88 3 128 24 26 14
63 25 82 25 33 0 34 -1 34 -40 0 -48 -39 -98 -103 -129 -23 -12 -34 -21 -24
-21 29 0 93 37 120 70 15 17 29 46 33 66 l6 35 57 -6 c31 -4 78 -2 106 5 48
11 51 10 72 -15 13 -15 23 -39 23 -56 0 -19 4 -28 11 -23 11 7 8 66 -5 96 -8
17 5 21 126 31 l47 4 -24 -54 c-57 -127 -129 -192 -243 -218 -39 -9 -88 -27
-107 -41 -65 -44 -113 -64 -182 -75 -88 -15 -154 3 -250 67 -93 62 -93 63 -48
15 57 -60 105 -90 172 -108 56 -15 143 -13 201 3 17 5 22 2 22 -12 0 -27 -44
-148 -64 -179 -16 -24 -22 -26 -54 -20 -106 19 -267 112 -378 217 -99 94 -191
235 -209 318 -4 19 -11 40 -15 45 -14 20 -50 122 -65 185 -22 93 -30 288 -16
393 27 199 115 413 218 526 l57 63 24 -48 c14 -27 44 -74 68 -105z m-221 40
c-194 -306 -236 -666 -119 -1017 l24 -73 -36 -72 c-19 -40 -62 -109 -95 -154
-32 -45 -62 -88 -65 -96 -8 -23 -37 -31 -30 -9 6 20 42 496 51 682 14 277 107
577 227 734 44 58 91 107 96 101 3 -2 -21 -46 -53 -96z m1226 -182 c-32 -67
-55 -98 -115 -155 -42 -40 -81 -72 -86 -72 -6 0 -10 -7 -10 -15 0 -9 -7 -29
-15 -45 l-15 -29 37 -8 c21 -4 76 -7 123 -7 71 -1 95 4 145 27 59 27 58 24
-11 -31 -28 -22 -27 -22 22 2 93 45 263 165 301 214 81 101 147 160 192 172
23 6 45 9 48 6 12 -12 -17 -58 -144 -229 l-134 -182 -100 -55 c-99 -55 -174
-108 -166 -116 3 -3 22 7 43 21 22 15 83 49 136 76 94 47 99 51 167 144 39 52
73 95 75 95 7 0 -54 -183 -66 -198 -7 -8 -37 -33 -66 -54 -79 -59 -192 -168
-192 -186 0 -10 22 5 58 40 31 31 95 87 142 125 l85 69 33 104 c48 153 51 156
51 72 1 -105 -13 -151 -69 -219 -27 -32 -77 -98 -110 -146 -34 -49 -76 -97
-94 -108 -50 -31 -121 -46 -276 -59 -186 -15 -318 -36 -402 -64 -58 -19 -78
-21 -148 -14 -134 13 -208 57 -257 152 -38 75 -41 139 -8 208 14 32 32 61 38
65 38 24 120 42 190 43 89 0 96 5 157 113 32 56 44 66 114 104 83 45 228 150
311 225 48 45 50 45 53 22 2 -14 -14 -61 -37 -107z m-97 -934 c-8 -38 -17
-134 -20 -216 l-7 -147 -26 -8 c-51 -14 -204 -6 -260 14 -30 10 -56 24 -58 30
-2 6 16 31 40 56 31 33 56 48 92 57 61 15 97 41 126 89 13 20 33 50 46 66 13
16 35 51 49 77 13 27 26 49 28 49 1 0 -3 -30 -10 -67z"/>
<path d="M4548 6384 c-129 -20 -256 -52 -317 -79 -106 -49 -250 -172 -315
-269 -31 -47 -32 -56 -5 -56 13 0 59 35 117 90 103 98 233 190 303 216 58 20
280 68 394 84 50 7 94 17 100 21 14 14 -179 9 -277 -7z"/>
<path d="M4425 6071 c-99 -29 -120 -44 -154 -113 -17 -35 -32 -80 -33 -100 -2
-43 -6 -44 -51 -22 -27 13 -24 8 21 -35 30 -28 51 -55 47 -61 -3 -5 -23 -10
-43 -10 -28 0 -33 -3 -22 -10 21 -13 114 -12 127 1 9 9 18 -2 37 -39 29 -58
83 -114 126 -132 17 -7 30 -19 30 -26 0 -8 4 -14 10 -14 5 0 7 -7 3 -16 -3 -9
-2 -15 3 -13 5 3 23 11 39 18 250 111 325 195 360 396 17 103 18 118 7 111 -5
-3 -53 -12 -107 -21 -134 -21 -288 -61 -356 -92 -53 -23 -61 -24 -114 -13 -31
6 -59 9 -62 6 -6 -6 58 -36 77 -36 17 0 11 -15 -14 -39 -19 -18 -31 -21 -55
-16 -27 6 -31 11 -31 38 0 53 19 106 52 143 60 69 144 93 321 95 72 1 103 4
87 9 -48 15 -241 10 -305 -9z m489 -138 c-11 -87 -55 -205 -87 -231 -12 -10
-16 -8 -22 15 -17 68 -96 124 -207 147 l-62 13 69 26 c39 15 102 33 140 41 39
8 90 19 115 24 25 5 48 10 52 11 4 0 5 -20 2 -46z m-364 -121 c0 -23 -6 -30
-33 -40 -85 -31 -66 -135 29 -161 72 -20 149 40 127 99 -9 23 -7 30 7 43 10 8
20 21 23 28 6 19 71 -43 88 -84 12 -28 11 -32 -17 -54 -45 -37 -158 -103 -177
-103 -27 0 -113 36 -144 60 -38 29 -83 98 -83 125 0 51 80 115 143 115 34 0
37 -2 37 -28z m135 -12 c7 -12 -35 -40 -59 -40 -22 0 -56 27 -56 45 0 27 22
33 66 18 24 -8 46 -19 49 -23z m-381 -39 c3 -5 -1 -11 -9 -15 -9 -3 -15 0 -15
9 0 16 16 20 24 6z m314 -28 c73 -12 39 -103 -38 -103 -49 0 -90 32 -90 70 0
35 24 52 65 45 17 -3 45 -8 63 -12z"/>
<path d="M4433 5042 c21 -23 21 -48 2 -86 -20 -39 -18 -46 5 -17 32 38 23 121
-14 121 -5 0 -2 -8 7 -18z"/>
<path d="M4345 4942 c-29 -6 -55 -32 -55 -55 0 -20 0 -20 23 1 12 11 37 27 56
35 26 11 29 15 15 19 -11 2 -28 2 -39 0z"/>
<path d="M4826 4889 c-54 -91 -250 -247 -363 -288 -95 -35 -105 -42 -50 -36
62 6 155 51 237 113 67 51 220 211 220 231 0 22 -26 10 -44 -20z"/>
<path d="M4762 4661 c-13 -18 -40 -35 -69 -45 -26 -9 -61 -27 -78 -41 l-30
-24 72 28 c73 28 107 50 125 84 16 31 3 29 -20 -2z"/>
<path d="M3508 4156 c3 -48 1 -56 -18 -66 -39 -21 -108 -4 -185 45 -28 18 -29
18 -15 1 13 -16 12 -20 -5 -33 -19 -14 -18 -15 13 -8 36 7 41 -1 15 -22 -16
-12 -13 -13 26 -7 39 6 43 4 37 -11 -5 -14 -2 -16 11 -10 43 17 53 17 53 0 0
-17 1 -17 19 -1 13 11 21 14 26 7 11 -18 55 44 55 77 0 31 -18 82 -29 82 -3 0
-4 -24 -3 -54z"/>
<path d="M3983 4191 c-24 -11 -43 -21 -43 -23 0 -2 48 -3 107 -3 97 0 114 -3
164 -27 30 -15 84 -54 119 -85 l64 -58 -25 44 c-28 50 -96 114 -154 144 -59
30 -176 34 -232 8z"/>
<path d="M3990 4020 c-20 -10 -42 -31 -50 -47 -8 -15 -24 -36 -35 -46 -20 -18
-19 -18 15 -13 27 5 32 4 22 -6 -19 -19 -14 -29 13 -22 27 7 32 -4 13 -25 -11
-11 -7 -12 19 -6 25 5 34 2 46 -15 11 -15 16 -18 19 -8 4 9 19 3 54 -21 27
-19 43 -27 35 -18 -17 21 -4 21 42 2 32 -13 36 -13 31 0 -4 10 0 15 12 15 11
1 33 7 49 14 28 12 24 13 -55 13 -67 0 -96 4 -134 22 -135 59 -151 112 -51
164 24 13 26 16 10 16 -11 0 -36 -8 -55 -19z"/>
<path d="M3566 3936 c-10 -31 0 -56 25 -65 11 -3 12 -1 2 10 -6 8 -13 30 -15
49 l-4 35 -8 -29z"/>
<path d="M3692 3861 c-10 -6 -7 -10 13 -15 32 -8 46 1 25 14 -18 12 -22 12
-38 1z"/>
<path d="M3514 3771 c-39 -18 -73 -54 -87 -93 -4 -10 -16 -18 -27 -18 -32 0
-60 -35 -60 -76 0 -28 8 -44 36 -72 19 -19 44 -52 55 -73 32 -63 110 -91 175
-64 148 62 188 265 72 372 -48 45 -100 53 -164 24z m127 -27 c59 -30 96 -157
68 -231 -14 -38 -67 -92 -107 -110 -42 -17 -93 -9 -127 23 -34 31 -32 44 8 44
53 0 105 19 127 47 44 56 12 113 -65 113 -50 0 -95 17 -95 36 0 18 50 74 74
84 34 14 85 11 117 -6z m-188 -126 c12 -7 49 -15 82 -18 59 -5 60 -6 60 -35 0
-43 -50 -68 -124 -62 -44 3 -59 9 -78 31 -52 61 -8 122 60 84z"/>
<path d="M5990 3738 c0 -29 15 -54 24 -40 6 11 -9 62 -19 62 -3 0 -5 -10 -5
-22z"/>
<path d="M6010 3625 c0 -15 4 -24 10 -20 6 3 10 12 10 20 0 8 -4 17 -10 20 -6
4 -10 -5 -10 -20z"/>
<path d="M6000 3520 c0 -11 5 -20 10 -20 6 0 10 9 10 20 0 11 -4 20 -10 20 -5
0 -10 -9 -10 -20z"/>
<path d="M5997 3428 c-8 -30 9 -47 18 -18 4 12 3 26 -3 32 -6 6 -11 1 -15 -14z"/>
<path d="M5986 3331 c-4 -7 -5 -15 -2 -18 9 -9 19 4 14 18 -4 11 -6 11 -12 0z"/>
<path d="M5961 3236 c-6 -16 -10 -34 -8 -40 6 -17 29 33 24 52 -3 13 -7 10
-16 -12z"/>
<path d="M5920 3121 c-17 -33 -11 -48 10 -22 11 13 20 27 20 32 0 16 -19 9
-30 -10z"/>
<path d="M5871 3022 c-7 -13 -11 -26 -8 -28 8 -8 29 25 25 38 -3 8 -9 4 -17
-10z"/>
<path d="M5820 2955 c-18 -21 -3 -32 16 -13 10 9 12 18 6 22 -5 3 -15 -1 -22
-9z"/>
<path d="M5756 2874 c-11 -30 -6 -37 14 -19 11 10 20 22 20 27 0 15 -28 9 -34
-8z"/>
<path d="M5700 2789 c-7 -11 -9 -24 -5 -27 7 -7 35 25 35 40 0 16 -19 8 -30
-13z"/>
<path d="M5673 2699 c-7 -7 -13 -22 -13 -33 0 -19 1 -19 16 -4 9 8 14 23 12
32 -2 14 -5 15 -15 5z"/>
<path d="M5617 2603 c-4 -3 -7 -15 -7 -26 0 -16 3 -17 15 -7 8 7 15 19 15 26
0 15 -12 19 -23 7z"/>
<path d="M5573 2523 c-7 -3 -13 -12 -13 -21 0 -15 2 -15 17 1 18 18 16 27 -4
20z"/>
<path d="M5526 2445 c-20 -20 -21 -36 -2 -29 15 6 30 34 22 41 -2 2 -11 -3
-20 -12z"/>
<path d="M5476 2364 c-4 -10 -1 -14 6 -12 15 5 23 28 10 28 -5 0 -13 -7 -16
-16z"/>
<path d="M5431 2296 c-8 -9 -11 -19 -7 -23 9 -9 29 13 24 27 -2 8 -8 7 -17 -4z"/>
<path d="M5372 2218 c-7 -7 -12 -19 -12 -27 0 -11 4 -10 20 4 21 19 26 35 12
35 -4 0 -13 -5 -20 -12z"/>
<path d="M5312 2128 c-7 -7 -12 -19 -12 -27 0 -11 4 -10 20 4 21 19 26 35 12
35 -4 0 -13 -5 -20 -12z"/>
<path d="M5236 2018 c-9 -12 -13 -24 -11 -27 6 -5 45 29 45 41 0 15 -19 8 -34
-14z"/>
<path d="M5180 1920 c-7 -13 -7 -20 -1 -20 6 0 15 9 21 20 7 13 7 20 1 20 -6
0 -15 -9 -21 -20z"/>
<path d="M5126 1844 c-9 -24 -7 -28 9 -14 17 14 20 30 6 30 -5 0 -12 -7 -15
-16z"/>
<path d="M5069 1758 c-12 -23 -12 -23 10 -4 23 21 26 26 11 26 -5 0 -15 -10
-21 -22z"/>
<path d="M5022 1688 c-13 -13 -16 -38 -6 -38 8 0 33 32 34 43 0 11 -15 8 -28
-5z"/>
<path d="M4970 1578 c-12 -22 -12 -22 6 -6 10 10 15 20 12 24 -4 3 -12 -5 -18
-18z"/>
<path d="M4926 1504 c-10 -25 1 -29 14 -5 6 12 7 21 1 21 -5 0 -12 -7 -15 -16z"/>
<path d="M4882 1418 c-14 -14 -16 -38 -3 -38 10 0 26 39 19 46 -2 2 -10 -2
-16 -8z"/>
<path d="M4830 1309 c-6 -11 -9 -25 -7 -32 2 -7 11 3 21 21 9 17 12 32 7 32
-6 0 -15 -9 -21 -21z"/>
<path d="M4783 1205 c-9 -25 4 -29 17 -6 7 15 7 21 0 21 -6 0 -13 -7 -17 -15z"/>
<path d="M4751 1112 c-7 -13 -11 -28 -8 -35 2 -7 9 -2 16 11 7 13 11 28 8 35
-2 7 -9 2 -16 -11z"/>
<path d="M4718 1024 c-5 -4 -8 -19 -8 -33 1 -23 2 -24 11 -8 11 19 9 53 -3 41z"/>
<path d="M4681 917 c-7 -9 -11 -24 -9 -34 3 -16 5 -15 17 5 15 29 10 50 -8 29z"/>
<path d="M4641 803 c-16 -39 -10 -68 8 -35 7 13 11 33 9 45 -3 19 -5 18 -17
-10z"/>
<path d="M1825 8118 c-110 -61 -144 -229 -64 -314 l21 -22 -36 -12 c-44 -14
-93 -69 -101 -112 -17 -90 84 -186 182 -175 24 2 52 12 62 21 16 15 20 13 59
-23 67 -64 138 -66 191 -5 38 43 47 77 34 126 -10 36 -9 38 12 38 42 0 115 32
140 62 19 22 25 41 25 75 0 40 -5 51 -42 88 -33 33 -53 44 -88 49 -41 6 -110
-6 -162 -29 -15 -6 -18 -2 -18 19 0 37 -28 116 -57 158 -39 58 -110 83 -158
56z m101 -29 c42 -26 83 -108 91 -183 3 -31 9 -56 13 -56 4 0 27 9 51 19 44
19 74 24 138 22 50 -2 111 -65 111 -116 0 -71 -89 -124 -186 -109 -24 3 -44 3
-44 0 0 -4 12 -18 28 -31 22 -19 27 -32 27 -68 0 -37 -6 -52 -29 -76 -40 -42
-76 -48 -126 -20 -49 28 -80 74 -80 119 0 48 -24 32 -28 -19 -3 -38 -7 -44
-38 -57 -48 -20 -108 -3 -151 43 -27 28 -33 43 -33 78 0 78 61 124 165 125
l40 1 -53 25 c-55 27 -75 53 -86 114 -9 52 17 129 56 167 52 49 83 54 134 22z"/>
<path d="M1947 7782 c-52 -58 32 -151 98 -108 59 39 33 118 -42 124 -28 2 -44
-2 -56 -16z m98 -26 c30 -46 -15 -86 -67 -60 -30 16 -38 50 -16 72 21 21 66
14 83 -12z"/>
<path d="M7408 7359 c-86 -45 -98 -176 -25 -273 l25 -32 -44 -12 c-63 -17 -94
-51 -94 -102 0 -148 156 -258 270 -189 l34 21 15 -23 c66 -104 182 -155 262
-114 71 37 93 157 45 242 l-24 42 35 12 c48 16 109 73 123 115 46 137 -135
253 -286 185 l-42 -19 -10 23 c-19 41 -86 107 -127 126 -52 24 -110 23 -157
-2z m124 -9 c49 -14 93 -52 135 -117 l33 -52 37 22 c78 46 213 21 254 -47 26
-42 25 -106 -3 -141 -23 -30 -110 -75 -145 -75 -34 0 -35 -15 -2 -39 81 -60
77 -206 -7 -246 -71 -34 -171 16 -219 108 -33 62 -45 69 -60 35 -13 -29 -76
-51 -122 -42 -19 4 -48 18 -65 32 -35 30 -78 114 -78 154 0 54 100 103 164 79
35 -14 36 -14 36 3 0 8 -13 17 -30 21 -16 4 -41 20 -55 36 -30 36 -59 130 -50
161 18 64 30 81 69 99 48 22 58 22 108 9z"/>
<path d="M7567 7062 c-59 -65 55 -176 129 -127 27 17 33 68 11 95 -38 49 -110
65 -140 32z m102 -28 c59 -49 28 -108 -45 -84 -35 12 -54 35 -54 67 0 48 52
57 99 17z"/>
<path d="M842 6740 c-18 -11 -42 -36 -53 -55 -17 -29 -24 -33 -39 -25 -11 6
-22 15 -25 20 -9 15 -72 12 -105 -5 -43 -22 -70 -63 -70 -104 0 -39 29 -96 62
-122 20 -16 20 -17 -23 -40 -78 -43 -78 -105 1 -181 81 -78 162 -74 218 14
l24 36 35 -24 c67 -46 151 -40 193 13 48 61 7 166 -77 198 -1 1 9 23 22 50 44
86 26 176 -44 222 -42 28 -76 29 -119 3z m91 -14 c85 -35 98 -158 27 -240 -32
-36 -30 -46 10 -46 73 0 116 -133 57 -175 -54 -38 -168 -5 -189 56 -14 39 -32
32 -33 -13 -2 -48 -28 -86 -71 -104 -32 -13 -39 -13 -78 5 -43 19 -88 67 -100
108 -9 29 28 70 79 87 47 16 55 33 23 45 -51 20 -94 92 -83 142 19 85 148 98
193 19 23 -41 32 -38 32 11 0 35 6 48 39 80 43 43 48 45 94 25z"/>
<path d="M760 6520 c-45 -45 -29 -115 27 -122 72 -9 118 62 77 120 -20 29 -76
30 -104 2z m84 -16 c20 -19 20 -34 0 -62 -18 -26 -56 -29 -78 -6 -21 20 -20
26 5 58 23 29 50 33 73 10z"/>
<path d="M2324 5495 c-113 -34 -196 -66 -290 -113 -92 -46 -108 -62 -102 -97
5 -22 3 -24 -21 -18 -14 4 -62 7 -107 7 -65 -1 -92 -6 -135 -26 -115 -54 -184
-141 -195 -246 -6 -54 -4 -66 19 -104 41 -71 87 -87 272 -98 77 -4 148 -11
158 -15 48 -20 24 -110 -39 -140 -90 -43 -155 -28 -207 46 l-27 39 -38 -19
c-49 -25 -65 -45 -57 -71 4 -14 2 -20 -9 -20 -8 0 -79 -24 -157 -54 -79 -30
-146 -53 -151 -50 -13 8 -9 61 5 71 6 5 65 31 130 58 66 26 121 54 124 61 5
13 -25 144 -36 156 -3 4 -64 -17 -134 -47 -176 -75 -173 -75 -181 -29 -4 20
-4 40 1 44 4 4 66 29 138 56 71 26 137 56 147 66 10 10 18 33 18 53 0 47 -28
113 -51 120 -28 9 -361 -127 -433 -178 -34 -24 -33 -34 24 -240 22 -78 40
-145 40 -149 0 -5 -85 26 -97 36 -1 1 5 25 14 54 40 124 -51 226 -202 226
-136 0 -307 -76 -313 -139 -3 -31 41 -247 105 -513 47 -193 45 -191 183 -156
179 47 281 112 343 223 l30 54 23 -52 c28 -63 38 -64 166 -17 104 39 296 117
316 129 7 5 12 30 12 64 l0 55 33 -29 c73 -64 208 -70 320 -15 112 56 165 126
174 231 8 83 -10 135 -65 190 -57 57 -91 68 -266 87 -142 16 -166 26 -146 63
30 57 123 76 222 46 42 -12 49 -12 63 1 8 9 15 30 15 47 l1 32 18 -35 c19 -39
22 -39 99 -8 31 12 57 17 61 12 9 -10 51 -168 101 -386 27 -116 35 -138 50
-138 10 0 55 14 100 32 76 30 81 34 77 57 -7 37 -106 470 -116 508 -9 31 -8
32 48 54 31 12 59 25 63 28 11 9 -18 189 -32 206 -15 18 -8 19 -106 -10z m95
-76 c14 -62 14 -99 1 -99 -5 0 -35 -9 -66 -21 -49 -18 -55 -24 -50 -43 9 -31
118 -518 120 -535 1 -15 -109 -69 -120 -58 -3 3 -27 97 -54 209 -51 214 -84
316 -105 324 -6 3 -38 -6 -70 -20 -32 -15 -59 -26 -60 -26 -2 0 -13 30 -25 68
-11 37 -23 72 -26 78 -12 28 403 196 438 177 3 -2 11 -26 17 -54z m-501 -243
c3 -47 2 -48 -20 -41 -13 4 -54 9 -93 12 -60 4 -76 1 -114 -19 -56 -30 -89
-87 -72 -124 14 -32 40 -41 163 -54 211 -22 270 -48 303 -134 24 -63 16 -153
-19 -206 -51 -78 -156 -130 -260 -130 -106 1 -166 42 -196 134 -11 35 -11 41
6 53 23 17 34 17 34 -1 0 -19 64 -74 96 -82 38 -10 118 2 161 24 68 35 103
129 67 181 -27 38 -74 51 -188 51 -142 0 -202 14 -244 56 -33 33 -34 37 -30
98 9 146 135 238 318 233 l85 -2 3 -49z m-511 -136 c11 -37 11 -47 -1 -58 -7
-7 -71 -35 -142 -63 -71 -27 -137 -58 -148 -69 -19 -19 -19 -23 -6 -77 13 -51
18 -58 42 -61 14 -2 59 11 100 28 40 18 97 40 126 51 l53 18 9 -25 c23 -58 11
-69 -135 -121 -104 -38 -115 -47 -115 -98 0 -63 15 -95 43 -95 13 0 88 24 168
54 79 30 148 50 153 46 4 -5 10 -37 13 -72 l5 -63 -140 -58 c-139 -57 -247
-97 -263 -97 -10 0 -57 150 -128 400 -68 245 -66 227 -37 253 26 23 351 156
376 153 8 0 20 -21 27 -46z m-572 -231 c43 -20 75 -62 75 -100 0 -12 -8 -46
-17 -76 -20 -63 -18 -65 62 -96 74 -29 100 -62 99 -125 -1 -87 -80 -195 -181
-245 -43 -22 -221 -77 -249 -77 -19 0 -31 43 -100 350 l-65 295 28 23 c15 12
53 32 83 43 105 40 191 43 265 8z"/>
<path d="M623 4740 c-87 -44 -88 -45 -68 -137 10 -43 21 -83 26 -89 14 -18
112 1 171 33 41 22 58 38 76 75 21 41 22 52 12 83 -16 47 -44 65 -106 65 -37
0 -68 -8 -111 -30z m165 -22 c24 -24 14 -78 -19 -109 -33 -30 -127 -66 -151
-56 -15 5 -40 105 -31 121 3 4 29 19 57 32 55 26 125 31 144 12z"/>
<path d="M783 4479 c-62 -12 -136 -52 -150 -80 -8 -18 -8 -45 2 -111 7 -48 16
-92 20 -99 10 -16 107 -4 159 20 97 44 167 184 122 243 -26 35 -73 43 -153 27z
m108 -39 c23 -13 25 -50 3 -93 -36 -71 -104 -117 -172 -117 -44 0 -41 -5 -57
112 -8 53 -3 58 95 89 64 21 103 23 131 9z"/>
<path d="M6783 5420 c318 -379 458 -692 498 -1110 28 -301 -17 -554 -157 -865
-63 -139 -39 -118 40 36 64 126 120 292 141 421 19 119 19 361 0 497 -54 376
-224 720 -500 1006 -73 76 -74 76 -22 15z"/>
<path d="M2365 4591 c-77 -32 -176 -73 -220 -92 l-80 -35 1 -80 c0 -43 4 -175
9 -291 7 -185 10 -213 24 -213 9 0 63 18 121 40 58 21 177 66 264 99 87 33
163 66 167 73 10 15 1 109 -12 123 -6 6 -27 3 -57 -9 -129 -49 -317 -115 -320
-111 -2 2 -6 21 -9 42 l-5 38 138 44 c199 63 184 53 184 127 0 35 -4 65 -9 68
-5 3 -78 -19 -162 -49 -85 -30 -157 -55 -160 -55 -12 0 -15 81 -4 89 5 5 73
32 150 61 77 28 146 57 153 62 8 8 12 30 10 67 -3 47 -6 56 -23 58 -11 2 -83
-24 -160 -56z m143 -17 l-3 -36 -125 -47 c-69 -27 -140 -56 -158 -65 l-33 -17
3 -72 c2 -57 6 -72 18 -71 8 1 84 26 167 55 84 29 154 51 157 48 2 -2 1 -18
-1 -36 -5 -31 -8 -32 -162 -85 -134 -46 -156 -56 -154 -73 1 -11 3 -42 4 -68
1 -26 5 -50 9 -52 4 -2 85 23 181 56 96 33 181 61 189 62 10 1 16 -9 18 -33
l3 -35 -233 -83 c-128 -46 -241 -86 -250 -89 -16 -5 -18 4 -18 83 -1 80 -7
164 -26 364 l-6 65 44 17 c23 9 115 46 203 82 88 36 164 65 168 66 5 0 7 -16
5 -36z"/>
<path d="M1903 4413 l-63 -25 -2 -156 -3 -157 -44 75 c-61 104 -110 170 -127
170 -24 0 -154 -62 -154 -74 0 -6 6 -20 14 -31 7 -11 46 -81 85 -155 99 -184
162 -288 178 -295 8 -3 24 0 35 6 11 6 52 22 91 35 39 13 82 31 95 40 l25 16
-7 242 c-4 132 -10 261 -14 286 -9 55 -22 58 -109 23z m82 -125 c3 -62 5 -182
3 -267 l-3 -153 -93 -34 -93 -33 -33 52 c-18 29 -68 117 -111 197 -43 80 -84
154 -91 165 -13 20 -10 23 41 48 l54 26 25 -32 c13 -17 47 -73 75 -123 55 -97
83 -130 100 -119 7 4 11 68 11 180 l0 173 43 15 c23 9 47 16 54 16 7 1 13 -36
18 -111z"/>
<path d="M1270 4166 c-102 -23 -203 -92 -240 -165 -66 -131 2 -331 135 -392
78 -36 217 -20 305 37 94 59 160 190 145 287 -8 46 -62 153 -92 179 -60 53
-163 75 -253 54z m143 -37 c49 -13 115 -73 138 -124 30 -64 25 -149 -11 -222
-18 -35 -46 -73 -66 -88 -89 -68 -222 -89 -301 -47 -97 51 -158 201 -123 306
41 124 226 213 363 175z"/>
<path d="M1261 4003 c-64 -32 -91 -124 -56 -193 46 -88 160 -77 210 21 30 57
11 154 -34 179 -29 15 -81 12 -120 -7z m102 -26 c24 -17 35 -65 26 -107 -10
-46 -50 -80 -95 -80 -28 0 -38 6 -54 33 -38 61 -19 125 44 153 39 17 58 17 79
1z"/>
<path d="M2710 4059 c-57 -36 -1604 -609 -1645 -609 -7 0 -16 16 -19 38 -11
65 -128 529 -137 543 -11 18 -66 3 -173 -46 -73 -34 -78 -38 -73 -63 25 -116
180 -739 185 -744 4 -4 149 44 322 107 173 62 459 165 635 228 443 159 957
355 970 369 5 6 -15 143 -25 166 -10 24 -17 26 -40 11z m18 -91 c6 -36 5 -57
-2 -64 -19 -20 -406 -167 -1056 -403 -483 -175 -665 -241 -738 -270 -29 -12
-54 -21 -57 -21 -2 0 -29 107 -60 238 -31 130 -70 287 -86 348 -16 61 -29 118
-29 126 0 9 27 27 73 45 126 53 110 62 146 -89 18 -73 48 -205 68 -293 19 -88
39 -164 44 -169 5 -6 33 -3 71 8 117 33 1092 391 1453 535 83 33 153 60 157
60 3 1 11 -23 16 -51z"/>
<path d="M8035 3396 c-41 -18 -79 -64 -101 -123 -10 -26 -18 -49 -19 -51 -1
-1 -29 12 -61 29 -48 25 -67 30 -104 26 -121 -14 -136 -170 -26 -281 20 -20
43 -36 51 -36 19 0 19 2 -5 -45 -24 -47 -26 -124 -5 -169 38 -80 148 -110 235
-64 50 27 90 78 90 116 0 19 3 23 18 16 9 -4 42 -9 72 -11 95 -6 150 49 150
149 -1 85 -56 160 -129 174 l-30 6 31 39 c98 122 -25 287 -167 225z m108 -20
c58 -24 87 -93 64 -149 -8 -18 -30 -47 -51 -64 -44 -40 -46 -53 -4 -53 46 0
111 -35 132 -71 23 -39 26 -126 6 -163 -35 -67 -143 -75 -198 -16 -24 26 -47
19 -32 -10 26 -49 -2 -107 -71 -144 -58 -32 -106 -33 -150 -3 -73 49 -89 148
-35 225 30 44 32 54 11 46 -48 -19 -144 104 -145 184 0 46 16 71 56 88 45 19
101 5 148 -36 18 -17 38 -30 44 -30 6 0 17 24 26 53 18 63 56 116 99 140 38
21 57 21 100 3z"/>
<path d="M7942 3094 c-40 -27 -28 -95 20 -120 82 -42 172 60 102 115 -32 25
-90 28 -122 5z m106 -20 c28 -19 28 -38 0 -64 -41 -38 -108 -14 -108 40 0 40
65 54 108 24z"/>
<path d="M1720 3158 c-108 -55 -126 -242 -36 -379 l24 -35 -49 -17 c-57 -21
-114 -82 -130 -141 -31 -114 60 -238 175 -238 49 0 78 12 118 49 l26 25 16
-30 c22 -43 93 -101 140 -113 118 -32 226 55 226 181 0 55 -28 119 -65 148
-16 12 -26 23 -24 25 2 1 20 10 40 19 47 21 106 73 125 109 22 43 17 75 -16
113 -54 61 -160 68 -274 17 l-43 -19 -6 63 c-10 108 -60 194 -132 226 -52 24
-62 24 -115 -3z m128 -27 c31 -17 80 -97 91 -153 6 -28 8 -73 5 -101 -4 -29
-3 -48 2 -46 5 2 36 17 69 34 69 34 181 46 224 23 40 -22 65 -62 56 -95 -14
-59 -109 -127 -207 -147 -39 -9 -35 -23 9 -31 97 -18 142 -155 83 -253 -57
-93 -206 -83 -280 20 -26 36 -30 49 -30 110 0 83 -21 91 -31 11 -8 -63 -22
-89 -62 -113 -96 -59 -227 23 -227 142 0 101 68 174 174 185 60 6 88 23 38 23
-47 0 -93 72 -111 176 -20 119 23 213 109 237 17 4 57 -5 88 -22z"/>
<path d="M1880 2772 c-45 -13 -52 -74 -15 -115 42 -45 115 -30 115 24 0 52
-57 104 -100 91z m54 -37 c52 -52 8 -111 -52 -69 -21 15 -31 62 -15 77 12 12
51 7 67 -8z"/>
<path d="M4044 176 c-10 -8 -16 -17 -13 -20 3 -3 14 1 25 8 10 8 16 17 13 20
-3 3 -14 -1 -25 -8z"/>
<path d="M3040 172 c0 -15 24 -32 45 -32 19 1 19 1 -4 20 -24 21 -41 26 -41
12z"/>
<path d="M3452 158 c3 -7 15 -14 29 -16 23 -2 23 -2 5 13 -24 18 -39 20 -34 3z"/>
<path d="M4130 162 c0 -14 23 -32 42 -32 26 0 22 15 -7 28 -31 14 -35 15 -35
4z"/>
<path d="M3130 140 c0 -5 14 -10 30 -10 17 0 30 5 30 10 0 6 -13 10 -30 10
-16 0 -30 -4 -30 -10z"/>
<path d="M3235 140 c-3 -6 5 -10 19 -10 14 0 28 5 31 10 3 6 -5 10 -19 10 -14
0 -28 -4 -31 -10z"/>
<path d="M3662 141 c-11 -6 -10 -9 5 -13 24 -5 53 1 53 13 0 11 -40 12 -58 0z"/>
<path d="M3794 135 c10 -8 23 -12 28 -9 14 9 -2 24 -25 24 -21 -1 -21 -1 -3
-15z"/>
<path d="M3913 143 c-7 -2 -13 -9 -13 -14 0 -14 34 -11 56 6 18 14 18 14 -6
14 -14 0 -31 -3 -37 -6z"/>
<path d="M4395 130 c-4 -6 7 -10 24 -10 17 0 31 5 31 10 0 6 -11 10 -24 10
-14 0 -28 -4 -31 -10z"/>
<path d="M3560 120 c0 -5 6 -10 14 -10 8 0 18 5 21 10 3 6 -3 10 -14 10 -12 0
-21 -4 -21 -10z"/>
<path d="M4285 120 c-4 -6 6 -10 22 -10 22 0 25 2 13 10 -19 12 -27 12 -35 0z"/>
</g>
</svg>
