<?xml version="1.0" encoding="UTF-8" standalone="no"?>
<svg
   xmlns:dc="http://purl.org/dc/elements/1.1/"
   xmlns:cc="http://creativecommons.org/ns#"
   xmlns:rdf="http://www.w3.org/1999/02/22-rdf-syntax-ns#"
   xmlns:svg="http://www.w3.org/2000/svg"
   xmlns="http://www.w3.org/2000/svg"
   xmlns:sodipodi="http://sodipodi.sourceforge.net/DTD/sodipodi-0.dtd"
   xmlns:inkscape="http://www.inkscape.org/namespaces/inkscape"
   version="1.0"
   width="850.000000pt"
   height="850.000000pt"
   viewBox="0 0 850.000000 850.000000"
   preserveAspectRatio="xMidYMid meet"
   id="svg2"
   inkscape:version="0.91 r13725"
   sodipodi:docname="People_2018916_14.svg">
  <defs
     id="defs190" />
  <sodipodi:namedview
     pagecolor="#ffffff"
     bordercolor="#666666"
     borderopacity="1"
     objecttolerance="10"
     gridtolerance="10"
     guidetolerance="10"
     inkscape:pageopacity="0"
     inkscape:pageshadow="2"
     inkscape:window-width="1920"
     inkscape:window-height="979"
     id="namedview188"
     showgrid="false"
     inkscape:zoom="0.44423529"
     inkscape:cx="683.13523"
     inkscape:cy="703.06407"
     inkscape:window-x="0"
     inkscape:window-y="1"
     inkscape:window-maximized="1"
     inkscape:current-layer="svg2" />
  <metadata
     id="metadata4">
Created by potrace 1.14, written by Peter Selinger 2001-2017
<rdf:RDF>
  <cc:Work
     rdf:about="">
    <dc:format>image/svg+xml</dc:format>
    <dc:type
       rdf:resource="http://purl.org/dc/dcmitype/StillImage" />
  </cc:Work>
</rdf:RDF>
</metadata>
  <g
     transform="translate(0.000000,850.000000) scale(0.100000,-0.100000)"
     fill="#000000"
     stroke="none"
     id="g6">
    <path
       d="M0 4250 l0 -4250 4250 0 4250 0 0 4250 0 4250 -4250 0 -4250 0 0 -4250z m4481 3939 c20 -10 49 -33 66 -52 16 -18 68 -53 116 -77 139 -71 166 -111 167 -249 0 -63 -1 -65 -48 -111 l-47 -48 -3 -102 c-3 -105 -16 -152 -47 -164 -9 -3 -36 -6 -60 -6 -26 0 -51 -7 -64 -17 l-21 -18 21 -55 c12 -30 69 -194 128 -365 59 -170 188 -537 286 -815 l179 -505 281 0 280 0 65 -32 c36 -18 96 -51 134 -72 43 -24 114 -52 185 -71 177 -48 250 -88 348 -187 94 -96 138 -159 183 -263 46 -104 88 -167 151 -225 86 -78 151 -109 229 -110 80 0 81 -10 5 -81 -47 -46 -90 -71 -185 -112 -22 -9 -19 -11 27 -11 66 -1 147 16 197 41 26 13 42 16 48 10 15 -15 -39 -126 -96 -195 -48 -59 -41 -63 27 -15 15 11 35 17 43 14 14 -5 12 -12 -10 -50 -43 -74 -74 -185 -95 -346 -22 -163 -38 -229 -76 -317 -13 -29 -22 -53 -19 -53 3 0 32 20 64 45 88 68 98 61 51 -33 -37 -75 -62 -154 -110 -347 -21 -88 -42 -168 -46 -178 -7 -17 -4 -18 38 -12 54 8 97 0 97 -18 0 -6 -18 -22 -39 -34 -67 -38 -101 -73 -201 -207 -57 -76 -118 -147 -147 -168 -60 -45 -165 -96 -215 -104 -42 -7 -45 -11 -23 -40 21 -27 19 -57 -2 -50 -38 10 -103 17 -103 11 0 -4 19 -45 42 -91 35 -72 42 -96 46 -162 3 -67 -1 -91 -32 -190 -41 -131 -43 -162 -16 -292 12 -56 17 -110 13 -133 -8 -54 -48 -108 -123 -167 -141 -113 -158 -136 -205 -280 -42 -134 -63 -158 -190 -223 -31 -15 -76 -54 -118 -100 -80 -89 -123 -113 -287 -157 -155 -41 -204 -62 -313 -132 -138 -90 -168 -101 -262 -101 -68 0 -101 7 -223 46 -81 27 -161 47 -186 47 -24 0 -87 -13 -141 -30 -54 -16 -109 -30 -124 -30 -45 0 -126 26 -223 71 l-93 44 -160 0 c-140 0 -164 2 -187 19 -27 17 -32 34 -28 83 1 15 -8 27 -31 39 -18 9 -63 38 -100 65 -100 73 -124 81 -228 73 -75 -6 -94 -4 -132 13 -36 16 -48 29 -63 64 -54 127 -57 130 -110 154 -28 13 -69 42 -91 65 -22 23 -55 49 -74 57 -29 12 -33 18 -29 45 5 34 -58 221 -90 265 -38 52 -99 104 -138 118 -81 27 -66 64 41 104 30 11 94 43 142 70 49 27 150 80 226 117 75 37 135 69 132 72 -2 2 -39 -9 -82 -26 -43 -18 -136 -52 -208 -78 -71 -25 -152 -54 -180 -65 -27 -10 -62 -18 -77 -19 -24 0 -28 5 -33 38 -17 110 -31 164 -62 234 -18 42 -33 84 -33 93 0 44 64 116 138 154 49 25 68 48 76 92 6 34 4 38 -27 52 -58 28 -128 39 -201 32 l-69 -7 21 36 c12 21 22 39 22 40 0 2 -16 6 -36 9 -64 11 -198 84 -256 141 -30 30 -85 96 -121 148 -70 101 -121 153 -186 190 -62 35 -51 53 32 52 58 -1 67 2 61 15 -4 9 -28 103 -55 210 -27 106 -65 230 -85 275 -60 137 -57 143 36 71 32 -25 61 -45 64 -45 4 0 -3 18 -14 40 -33 65 -68 207 -85 345 -19 154 -35 215 -81 307 -40 80 -31 95 33 56 21 -14 44 -28 52 -33 7 -4 -7 18 -33 49 -66 82 -126 206 -99 206 3 0 35 -11 70 -25 42 -17 90 -27 145 -31 90 -5 92 -8 -22 45 -60 28 -176 133 -166 150 4 5 33 9 66 9 81 -1 152 35 240 122 60 59 77 85 131 197 65 136 120 213 216 304 74 71 148 109 304 155 73 21 159 55 209 82 47 25 107 57 135 71 l50 26 285 0 285 0 70 -29 c55 -23 70 -26 74 -15 32 97 131 377 174 495 31 83 104 305 162 493 104 339 210 637 246 697 16 26 17 35 6 63 -7 18 -21 34 -34 37 -12 3 -49 34 -82 69 -54 56 -61 68 -61 103 0 34 -5 44 -30 62 -34 24 -75 90 -85 137 -6 32 3 58 33 94 9 11 26 47 37 82 18 55 26 66 75 100 60 41 79 68 80 109 0 17 10 34 27 48 27 21 33 21 218 14 154 -5 197 -10 226 -25z"
       id="path8"
       style="fill:none" />
    <path
       d="M4047 8183 c-4 -3 -7 -22 -7 -42 0 -45 -23 -80 -82 -126 -41 -30 -50 -45 -68 -103 -11 -37 -33 -79 -47 -94 l-27 -28 21 -43 c12 -24 39 -65 62 -91 30 -35 41 -56 41 -81 0 -29 8 -40 61 -82 34 -26 79 -65 100 -86 28 -29 43 -37 58 -32 12 4 42 -5 82 -25 69 -35 93 -34 135 5 32 29 55 29 68 -1 9 -19 12 -17 57 29 l48 50 60 -6 c74 -8 76 -4 83 106 4 55 1 82 -8 95 -21 27 -16 50 14 66 40 20 56 43 82 114 33 91 23 123 -55 179 -33 23 -86 50 -119 60 -49 15 -61 23 -72 50 -15 35 -56 70 -92 80 -13 3 -49 0 -79 -7 -48 -12 -63 -11 -118 3 -63 17 -186 23 -198 10z m143 -27 c0 -7 -16 -21 -35 -30 -19 -9 -35 -23 -35 -31 0 -21 -16 -19 -25 3 -4 12 3 25 26 45 36 29 69 36 69 13z m182 -88 c27 -18 48 -36 48 -40 0 -14 -38 -8 -91 12 -40 16 -58 19 -80 11 -15 -5 -37 -7 -49 -4 -13 4 -25 0 -30 -8 -14 -22 -23 -3 -10 21 7 13 17 19 29 15 9 -3 26 2 37 10 34 26 93 19 146 -17z m-315 -106 c-50 -51 -63 -91 -43 -131 22 -42 20 -98 -4 -128 -25 -32 -25 -48 -1 -82 11 -15 23 -42 28 -61 9 -33 24 -46 78 -66 18 -7 17 -8 -7 -12 -46 -6 -80 19 -120 88 -44 75 -45 82 -18 135 25 48 25 49 -1 102 -27 55 -17 84 52 148 58 54 88 61 36 7z m541 22 c47 -33 65 -101 36 -142 -22 -31 -35 -27 -32 11 1 18 -7 47 -18 65 -17 29 -23 33 -58 30 -24 -2 -41 2 -43 10 -3 7 4 12 19 12 13 0 32 7 42 15 25 19 26 19 54 -1z m-280 -86 c-3 -7 -13 -15 -24 -16 -32 -6 -74 -53 -74 -83 0 -14 -6 -31 -13 -38 -21 -17 -37 7 -37 56 0 62 34 93 102 93 35 0 48 -4 46 -12z m120 -48 c35 -52 26 -127 -20 -177 -17 -18 -33 -23 -70 -23 -54 0 -62 12 -20 32 19 9 28 22 30 43 5 54 12 74 34 95 20 18 20 21 5 38 -17 19 -13 35 7 29 6 -2 21 -18 34 -37z m232 -72 c-1 -2 -7 -28 -14 -58 -11 -47 -16 -55 -37 -58 -18 -2 -29 -12 -37 -37 -15 -39 -40 -57 -117 -83 -63 -22 -85 -20 -111 9 -20 22 -12 38 10 20 22 -18 80 -3 124 31 32 26 37 36 37 72 l0 41 46 -1 c44 0 47 2 58 33 7 18 19 33 27 33 8 0 14 -1 14 -2z m-533 -138 c-4 -14 4 -31 23 -52 28 -30 30 -58 5 -58 -21 0 -67 61 -59 79 3 9 9 24 11 34 7 24 26 21 20 -3z m443 -116 c0 -9 -20 -36 -44 -60 -31 -32 -51 -44 -73 -44 -16 0 -46 -9 -68 -20 -74 -38 -139 -23 -175 42 -26 47 -17 64 13 27 27 -33 94 -46 123 -24 14 10 34 12 72 8 l53 -6 42 47 c45 49 57 56 57 30z"
       id="path10"
       style="fill:#ff9900" />
    <path
       d="M4110 7221 c-11 -28 -10 -32 24 -62 20 -17 47 -40 60 -50 l23 -18 57 75 c60 79 73 114 17 44 -17 -22 -40 -40 -49 -40 -19 0 -90 44 -108 66 -9 12 -14 9 -24 -15z"
       id="path12"
       style="fill:#66ccff" />
    <path
       d="M4321 7161 c-39 -49 -71 -91 -71 -94 0 -8 161 -147 169 -147 6 0 117 130 134 157 5 8 -8 39 -35 83 -35 57 -50 72 -78 80 -19 5 -38 10 -42 10 -3 0 -38 -40 -77 -89z m159 -6 l43 -44 -27 -38 c-55 -79 -54 -77 -80 -65 -33 15 -96 72 -96 87 0 20 80 105 99 105 9 0 37 -20 61 -45z"
       id="path14"
       style="fill:#66ccff" />
    <path
       d="M4059 7109 c-12 -30 -11 -33 14 -53 15 -12 27 -26 27 -32 0 -5 -16 -33 -36 -63 -30 -44 -39 -52 -59 -47 -19 5 -25 1 -34 -26 -15 -42 -14 -43 13 -61 24 -16 24 -15 114 103 l91 120 -52 45 c-28 25 -55 45 -58 45 -4 0 -12 -14 -20 -31z"
       id="path16"
       style="fill:#66ccff" />
    <path
       d="M4517 6965 l-67 -85 92 -80 92 -80 28 27 c24 23 27 33 22 58 -8 40 -11 41 -32 22 -10 -10 -22 -17 -26 -17 -14 0 -96 83 -96 98 0 9 18 34 39 57 36 36 39 42 27 63 -11 22 -14 19 -79 -63z"
       id="path18"
       style="fill:#66ccff" />
    <path
       d="M4193 7002 c-11 -15 -52 -68 -92 -119 l-71 -92 89 -75 90 -76 80 100 c44 55 85 108 90 118 11 20 -2 34 -136 146 l-30 25 -20 -27z m74 -89 c29 -20 53 -42 53 -48 0 -13 -57 -96 -74 -107 -16 -11 -19 -11 -69 23 -70 46 -71 70 -4 142 14 15 29 27 33 27 4 0 31 -16 61 -37z"
       id="path20"
       style="fill:#66ccff" />
    <path
       d="M4383 6807 c-21 -23 -64 -74 -96 -113 l-57 -71 86 -84 c47 -46 89 -85 94 -87 8 -3 200 226 200 238 0 6 -154 140 -176 153 -7 4 -29 -12 -51 -36z m86 -77 c23 -17 44 -37 48 -45 10 -27 -6 -60 -47 -93 l-41 -34 -54 42 c-30 23 -55 46 -55 50 0 16 81 110 94 110 7 0 32 -14 55 -30z"
       id="path22"
       style="fill:#66ccff" />
    <path
       d="M3925 6750 c-9 -28 -15 -53 -13 -56 3 -2 18 14 33 36 26 37 27 42 13 56 -14 15 -17 11 -33 -36z"
       id="path24"
       style="fill:#66ccff" />
    <path
       d="M3936 6668 c-32 -45 -67 -106 -77 -137 l-19 -55 57 -58 c32 -32 61 -58 65 -58 9 0 208 231 208 241 0 7 -166 150 -172 148 -2 0 -29 -37 -62 -81z m128 -48 c20 -22 36 -45 36 -51 0 -13 -82 -109 -93 -109 -11 0 -107 91 -107 102 0 4 19 29 41 53 52 57 75 57 123 5z"
       id="path26"
       style="fill:#66ccff" />
    <path
       d="M4686 6711 c-17 -19 -17 -21 16 -50 18 -17 36 -31 40 -31 6 0 -23 85 -33 95 -3 3 -14 -4 -23 -14z"
       id="path28"
       style="fill:#66ccff" />
    <path
       d="M4546 6538 l-98 -121 28 -23 c16 -13 62 -49 101 -80 l73 -57 19 24 c10 13 46 58 79 99 l60 74 -21 56 c-16 44 -32 65 -77 103 -32 26 -60 47 -62 47 -1 0 -47 -55 -102 -122z m178 -18 c20 -22 36 -46 36 -54 0 -16 -77 -106 -91 -106 -13 0 -109 90 -109 102 0 4 19 29 41 53 52 57 75 57 123 5z"
       id="path30"
       style="fill:#6699ff" />
    <path
       d="M4091 6458 l-102 -123 93 -87 c51 -48 95 -88 98 -88 8 0 223 270 219 274 -15 15 -194 146 -200 146 -3 0 -52 -55 -108 -122z m170 -29 c27 -22 49 -45 49 -49 0 -17 -81 -110 -95 -110 -23 0 -105 80 -105 102 0 22 70 98 90 98 7 0 34 -18 61 -41z"
       id="path32"
       style="fill:#6699ff" />
    <path
       d="M3810 6386 c-9 -24 -7 -32 15 -58 14 -16 25 -35 25 -43 0 -7 -25 -36 -55 -64 -36 -32 -61 -65 -70 -92 -9 -23 -14 -43 -13 -45 2 -1 50 50 107 113 l103 115 -50 51 -51 51 -11 -28z"
       id="path34"
       style="fill:#6699ff" />
    <path
       d="M4322 6264 l-113 -137 68 -62 c38 -34 82 -74 98 -88 l31 -25 109 135 c61 75 111 139 113 143 3 7 -170 162 -186 167 -4 2 -58 -59 -120 -133z m154 -11 c62 -44 66 -60 27 -112 -33 -44 -42 -51 -68 -51 -22 0 -95 64 -95 83 0 12 69 117 77 117 3 0 29 -17 59 -37z"
       id="path36"
       style="fill:#6699ff" />
    <path
       d="M4770 6329 c-25 -34 -51 -69 -58 -78 -11 -16 -2 -26 82 -93 88 -70 96 -75 110 -59 20 22 10 61 -15 61 -20 0 -109 80 -109 98 0 6 14 27 31 47 24 27 30 41 25 60 -4 14 -10 25 -14 25 -4 0 -27 -28 -52 -61z"
       id="path38"
       style="fill:#6699ff" />
    <path
       d="M3917 6242 c-15 -20 -59 -72 -98 -114 l-69 -77 52 -49 c29 -27 75 -68 102 -93 l48 -44 24 30 c14 17 56 71 95 122 l71 92 -64 59 c-70 66 -124 112 -129 112 -2 -1 -17 -17 -32 -38z m89 -106 c24 -24 44 -49 44 -55 0 -7 -22 -35 -49 -63 l-48 -51 -52 48 c-28 26 -51 54 -51 63 0 18 82 102 100 102 7 0 32 -20 56 -44z"
       id="path40"
       style="fill:#6699ff" />
    <path
       d="M4554 6053 l-108 -136 85 -78 c46 -43 89 -78 94 -78 11 0 210 251 210 265 0 5 -39 44 -86 86 l-87 77 -108 -136z m145 -25 c28 -23 51 -44 51 -48 0 -3 -22 -31 -49 -60 l-48 -55 -42 30 c-41 28 -71 61 -71 77 0 14 82 98 95 98 7 0 35 -19 64 -42z"
       id="path42"
       style="fill:#3366ff" />
    <path
       d="M4076 5967 c-53 -63 -96 -117 -96 -120 0 -3 44 -46 99 -96 l98 -91 97 123 97 122 -63 58 c-35 32 -80 72 -100 88 l-37 30 -95 -114z m168 -24 c25 -21 46 -44 46 -52 0 -26 -70 -101 -94 -101 -27 0 -106 70 -106 93 0 18 78 97 96 97 6 0 32 -17 58 -37z"
       id="path44"
       style="fill:#6699ff" />
    <path
       d="M4920 6052 c0 -5 7 -16 16 -23 14 -12 16 -11 13 5 -4 20 -29 35 -29 18z"
       id="path46"
       style="fill:none" />
    <path
       d="M3689 5983 c-25 -27 -47 -73 -77 -158 l-42 -120 65 -70 65 -70 32 40 c18 22 61 70 95 108 34 37 71 80 82 96 l20 28 -82 74 c-138 124 -119 115 -158 72z m101 -141 c55 -53 54 -81 -6 -126 -53 -40 -58 -39 -118 23 l-39 40 42 50 c24 28 51 51 62 51 10 0 36 -17 59 -38z"
       id="path48"
       style="fill:#3366ff" />
    <path
       d="M4780 5863 c-58 -75 -106 -139 -108 -144 -2 -4 42 -43 96 -88 l100 -80 87 110 86 110 -28 79 c-24 68 -35 84 -75 114 -26 20 -48 36 -50 36 -2 0 -50 -62 -108 -137z m148 -14 c58 -43 64 -71 21 -116 -56 -57 -61 -58 -118 -11 -28 23 -51 46 -51 52 0 16 80 106 94 106 7 0 31 -14 54 -31z"
       id="path50"
       style="fill:#3366ff" />
    <path
       d="M4306 5755 c-53 -64 -96 -117 -96 -119 0 -7 182 -166 190 -166 4 0 26 24 47 53 22 28 65 84 96 123 l56 71 -94 76 c-52 43 -96 77 -98 77 -3 0 -48 -52 -101 -115z m159 -16 c25 -23 45 -48 45 -55 0 -21 -75 -94 -96 -94 -11 0 -41 19 -67 43 l-47 42 40 53 c25 31 49 52 61 52 11 0 40 -19 64 -41z"
       id="path52"
       style="fill:#6699ff" />
    <path
       d="M3896 5753 c-25 -32 -73 -95 -106 -141 l-61 -84 88 -95 87 -96 44 49 c82 92 202 237 202 245 0 11 -188 179 -200 179 -5 0 -30 -26 -54 -57z m109 -106 l48 -43 -16 -31 c-19 -35 -72 -83 -93 -83 -19 0 -94 80 -94 100 0 17 79 100 96 100 7 0 33 -19 59 -43z"
       id="path54"
       style="fill:#3366ff" />
    <path
       d="M4976 5626 c-47 -57 -75 -100 -70 -106 27 -25 169 -140 174 -140 4 0 19 13 34 29 33 35 32 68 -2 63 -22 -3 -122 62 -122 80 0 4 20 31 44 61 40 49 43 56 32 82 l-12 28 -78 -97z"
       id="path56"
       style="fill:#3366ff" />
    <path
       d="M4542 5564 c-51 -63 -95 -120 -97 -127 -3 -6 10 -22 28 -33 18 -12 63 -47 101 -79 37 -31 68 -56 70 -54 95 117 186 234 186 239 0 7 -184 170 -191 170 -2 0 -46 -52 -97 -116z m163 -40 c19 -26 35 -50 35 -53 0 -4 -22 -29 -49 -55 l-50 -49 -45 37 c-65 53 -67 69 -15 122 56 57 78 57 124 -2z"
       id="path58"
       style="fill:#3366ff" />
    <path
       d="M3542 5612 c-9 -26 -7 -33 14 -53 39 -36 32 -72 -20 -111 -37 -27 -46 -40 -52 -76 -5 -37 -1 -65 9 -51 2 2 40 48 86 102 l83 98 -48 52 c-26 29 -51 56 -54 60 -4 5 -12 -5 -18 -21z"
       id="path60"
       style="fill:#3366ff" />
    <path
       d="M2749 5591 c-25 -10 -67 -32 -93 -50 -66 -46 -133 -73 -280 -115 -162 -46 -231 -82 -305 -162 -79 -84 -108 -127 -182 -274 -47 -93 -77 -140 -121 -184 -32 -33 -58 -61 -58 -62 0 -2 20 8 44 22 24 13 85 69 136 124 50 55 96 100 102 100 6 0 -5 -17 -23 -39 -37 -42 -101 -141 -92 -141 12 0 142 112 266 228 146 137 198 174 297 209 188 65 397 45 670 -64 132 -53 249 -93 264 -92 6 0 -7 9 -29 18 -22 10 -86 53 -143 94 -57 42 -129 86 -160 98 -67 26 -201 36 -282 21 -30 -6 -57 -9 -58 -7 -10 10 84 27 169 32 148 8 219 -16 372 -131 49 -36 93 -66 98 -66 11 0 -59 87 -106 131 -16 16 -51 36 -78 45 -32 11 -45 20 -39 26 18 18 71 -3 150 -60 113 -82 173 -122 182 -122 9 0 -19 77 -53 148 -17 36 -26 44 -64 53 -24 7 -46 15 -49 20 -8 13 73 11 97 -2 18 -9 20 -8 17 13 -3 21 -9 24 -83 30 -44 3 -100 11 -125 17 -83 19 -179 13 -245 -15 -178 -77 -176 -76 -305 -86 -241 -18 -301 -39 -477 -168 -101 -74 -148 -99 -161 -85 -3 3 5 13 18 22 13 9 62 50 109 91 148 127 262 177 480 213 124 20 152 29 291 90 103 45 186 46 323 1 105 -35 216 -47 224 -24 3 8 -9 12 -41 12 -27 0 -91 15 -153 37 -142 48 -240 51 -351 9 -84 -32 -108 -29 -33 3 134 57 231 63 404 22 91 -22 199 -29 181 -12 -5 5 -45 19 -88 30 -71 19 -108 21 -325 21 -212 -1 -252 -3 -292 -19z"
       id="path62"
       style="fill:#990066" />
    <path
       d="M4064 5464 c-65 -80 -120 -149 -122 -153 -1 -3 40 -48 92 -100 l94 -94 126 159 127 159 -40 35 c-22 19 -66 59 -99 87 l-59 53 -119 -146z m151 -55 c25 -23 45 -46 45 -52 0 -13 -90 -107 -102 -107 -20 0 -98 84 -98 105 0 25 72 95 97 95 7 0 34 -19 58 -41z"
       id="path64"
       style="fill:#3366ff" />
    <path
       d="M5203 5553 c-24 -5 -29 -19 -14 -42 8 -13 18 -13 63 -2 79 19 283 26 348 12 65 -14 150 -48 215 -85 66 -39 51 -42 -29 -6 -73 33 -213 70 -261 69 -22 -1 -12 -6 35 -18 72 -20 119 -42 226 -107 40 -23 94 -50 120 -58 45 -13 282 -31 271 -20 -2 2 -42 12 -88 20 -77 15 -159 48 -159 64 0 4 24 -1 54 -10 30 -10 94 -23 144 -29 96 -12 156 -29 211 -62 18 -11 36 -18 38 -15 3 2 -16 16 -40 30 -44 26 -107 49 -282 101 -85 25 -125 44 -270 126 l-60 34 -250 2 c-137 0 -260 -1 -272 -4z"
       id="path66"
       style="fill:#990066" />
    <path
       d="M4819 5432 c-25 -31 -69 -87 -97 -124 l-52 -66 91 -77 c76 -65 93 -75 104 -64 31 33 185 231 185 237 -1 4 -20 21 -43 38 -23 17 -65 50 -92 72 l-51 40 -45 -56z m93 -99 c26 -21 47 -45 48 -53 0 -9 -20 -38 -44 -65 l-44 -50 -43 30 c-24 17 -50 43 -59 58 -14 26 -14 28 30 72 24 25 49 45 55 45 5 0 31 -17 57 -37z"
       id="path68"
       style="fill:#6699ff" />
    <path
       d="M3596 5359 l-97 -121 25 -43 c24 -40 89 -105 127 -125 13 -7 38 16 119 111 l102 120 -83 88 c-46 49 -87 89 -91 90 -3 0 -49 -53 -102 -120z m152 -17 c23 -22 42 -48 42 -59 0 -27 -86 -106 -104 -96 -27 16 -96 80 -96 89 0 18 82 104 99 104 10 0 36 -17 59 -38z"
       id="path70"
       style="fill:#3366ff" />
    <path
       d="M5380 5434 c-8 -1 -48 -8 -88 -14 -68 -11 -72 -13 -66 -33 4 -12 7 -23 9 -25 1 -1 28 10 60 24 49 23 66 26 114 21 98 -11 117 -25 31 -24 -66 1 -82 -3 -137 -32 -65 -34 -68 -37 -54 -59 6 -11 16 -8 45 12 98 66 211 63 431 -12 161 -55 145 -69 -20 -17 -74 23 -109 28 -200 29 -101 1 -114 -1 -160 -26 -60 -32 -92 -55 -85 -61 3 -3 39 4 80 15 63 16 96 19 215 14 158 -5 285 -29 444 -82 195 -65 344 -156 518 -318 44 -42 84 -76 88 -76 3 0 -21 40 -55 89 -62 91 -125 149 -208 191 -69 34 -42 34 34 0 57 -26 84 -47 154 -122 177 -189 235 -243 298 -276 35 -19 65 -32 68 -29 2 2 -22 20 -54 40 -71 44 -161 138 -240 250 -82 117 -117 148 -237 203 -58 26 -105 52 -105 56 0 10 59 1 114 -19 54 -18 55 -10 4 19 -66 38 -207 69 -350 77 -138 8 -139 9 -366 130 -90 48 -209 71 -282 55z"
       id="path72"
       style="fill:#660000" />
    <path
       d="M4285 5252 c-66 -81 -120 -152 -120 -158 0 -19 180 -174 189 -163 1 2 49 60 107 128 57 68 112 133 121 145 16 22 15 24 -77 109 -51 48 -95 87 -97 86 -2 0 -57 -66 -123 -147z m147 -40 c48 -45 47 -65 -5 -126 -33 -38 -33 -38 -62 -23 -61 33 -88 62 -82 88 8 32 70 99 91 99 9 0 35 -17 58 -38z"
       id="path74"
       style="fill:#3366ff" />
    <path
       d="M5132 5369 c-12 -18 -11 -24 9 -45 32 -34 38 -30 26 21 -12 51 -17 54 -35 24z"
       id="path76"
       style="fill:#3366ff" />
    <path
       d="M4990 5195 c-50 -63 -93 -121 -96 -128 -2 -7 9 -25 25 -41 24 -23 34 -26 65 -21 39 8 44 16 21 35 -24 20 -18 39 24 81 45 45 69 49 101 14 31 -33 37 -32 49 13 20 69 15 85 -39 125 -27 20 -52 37 -54 37 -2 0 -45 -52 -96 -115z"
       id="path78"
       style="fill:#3366ff" />
    <path
       d="M3887 5247 c-8 -12 -51 -65 -96 -117 l-82 -95 78 -37 c43 -20 103 -43 134 -51 l56 -14 29 36 c17 20 45 55 64 79 l34 43 -64 60 c-36 32 -81 73 -101 89 l-37 30 -15 -23z m81 -107 c29 -26 41 -44 36 -52 -19 -31 -76 -108 -81 -108 -8 0 -89 58 -102 74 -7 8 -10 24 -6 36 11 35 65 90 89 90 11 0 41 -18 64 -40z"
       id="path80"
       style="fill:#6699ff" />
    <path
       d="M2574 5190 c-105 -19 -101 -28 12 -22 138 6 217 -7 344 -58 110 -44 204 -63 264 -53 l40 6 -113 44 c-62 24 -147 53 -189 64 -88 23 -279 33 -358 19z"
       id="path82"
       style="fill:#990066" />
    <path
       d="M4528 5048 c-59 -78 -106 -143 -104 -146 2 -2 29 4 60 14 41 13 56 22 56 36 0 25 78 108 102 108 10 0 38 -21 62 -47 48 -51 63 -52 93 -7 l17 27 -84 78 c-47 43 -87 79 -90 79 -3 0 -53 -64 -112 -142z"
       id="path84"
       style="fill:#6699ff" />
    <path
       d="M5483 5155 c-69 -12 -183 -57 -183 -71 0 -14 118 6 200 35 102 35 163 46 186 33 13 -7 7 -11 -26 -16 -49 -8 -178 -59 -206 -82 -17 -14 -10 -15 81 -11 81 4 116 11 180 36 44 17 104 37 133 43 28 7 52 15 52 18 0 3 -32 11 -70 18 -90 15 -254 14 -347 -3z"
       id="path86"
       style="fill:#990066" />
    <path
       d="M2540 5128 c-87 -9 -205 -42 -271 -74 -25 -12 -86 -58 -135 -101 -213 -187 -273 -229 -385 -273 -41 -16 -100 -32 -129 -36 -70 -9 -42 -22 50 -23 88 -1 129 12 203 64 127 91 137 98 142 94 9 -9 -163 -141 -220 -170 -37 -18 -85 -32 -125 -36 l-65 -7 54 -8 c59 -9 139 8 190 40 26 16 26 16 8 -5 -16 -18 -53 -38 -112 -58 -12 -5 -15 -9 -8 -12 14 -5 223 66 280 96 43 22 91 70 152 153 44 59 83 93 139 122 39 20 43 7 3 -15 -15 -9 -66 -69 -112 -134 -98 -138 -146 -183 -228 -216 -34 -13 -61 -26 -61 -29 0 -4 31 -3 69 1 81 9 130 32 227 105 39 30 74 54 77 54 3 0 -28 -32 -69 -71 -48 -45 -97 -81 -140 -101 -36 -17 -63 -32 -61 -34 2 -2 30 3 63 12 59 15 99 35 208 106 99 64 248 105 286 78 23 -16 -5 -30 -61 -30 -78 0 -150 -34 -244 -116 l-30 -26 55 6 c69 8 135 -11 210 -59 30 -20 79 -43 108 -51 88 -26 202 -20 202 10 0 8 -18 11 -63 8 -81 -5 -129 9 -206 58 -34 22 -73 40 -86 40 -13 0 -27 5 -30 10 -14 22 68 9 126 -21 43 -21 80 -32 128 -35 82 -6 106 6 70 35 -42 36 -103 54 -164 49 -63 -5 -70 9 -14 29 43 15 101 16 170 3 35 -7 56 -7 63 0 7 7 4 10 -7 10 -26 0 -73 26 -116 66 -21 18 -55 41 -74 49 -42 17 -145 20 -200 4 -22 -6 -41 -8 -44 -6 -12 13 49 31 118 35 65 4 86 0 160 -26 46 -16 108 -40 136 -53 29 -12 56 -20 59 -16 11 11 -17 66 -48 92 -43 36 -96 46 -226 43 -83 -2 -126 1 -150 11 -42 18 -33 25 26 22 26 -1 89 5 141 14 105 18 159 14 214 -15 46 -25 126 -26 170 -4 29 16 30 18 13 28 -10 6 -40 26 -65 43 -88 62 -129 76 -226 80 -59 3 -109 -1 -145 -11 -57 -15 -66 -14 -56 3 12 19 109 42 201 47 82 6 97 4 160 -21 153 -59 138 -56 200 -40 31 8 68 21 83 29 24 12 18 14 -64 13 -71 0 -124 9 -260 42 -93 22 -195 41 -225 41 -82 0 -162 -25 -277 -85 -57 -30 -113 -55 -125 -55 -15 1 -7 7 23 19 25 10 72 35 104 55 113 69 156 81 296 81 102 0 147 -5 242 -28 65 -15 123 -27 130 -27 26 1 -149 91 -212 109 -84 25 -128 29 -220 19z"
       id="path88"
       style="fill:#660000" />
    <path
       d="M5830 5070 c-82 -22 -171 -62 -191 -86 -21 -26 5 -39 79 -38 53 0 87 9 162 38 99 40 174 53 234 42 49 -9 46 -22 -4 -18 -23 2 -62 -1 -88 -7 -51 -13 -185 -71 -178 -78 2 -2 30 3 62 13 80 23 201 21 284 -5 75 -24 132 -58 239 -144 42 -34 88 -70 101 -79 14 -9 20 -17 15 -17 -11 -1 -54 27 -191 122 -95 66 -163 95 -242 102 l-57 5 41 -13 c65 -22 155 -75 209 -123 27 -24 43 -44 35 -44 -8 0 -56 21 -107 46 -73 36 -109 48 -170 55 -125 15 -210 -8 -238 -62 -29 -55 -21 -59 53 -33 79 28 119 30 193 8 53 -16 139 -62 139 -76 0 -4 -19 2 -43 12 -52 23 -158 41 -200 34 -54 -10 -159 -46 -152 -53 4 -3 75 -6 158 -6 149 0 154 -1 240 -34 48 -19 87 -40 87 -48 0 -19 -21 -16 -97 13 -94 36 -157 35 -231 -2 -33 -17 -66 -44 -80 -64 -21 -31 -22 -42 -16 -100 3 -36 8 -67 11 -70 2 -2 41 34 86 82 56 58 94 89 120 97 53 18 69 8 24 -14 -23 -11 -60 -45 -92 -85 -30 -37 -71 -82 -92 -100 l-38 -32 40 17 c22 9 49 20 60 24 11 5 61 11 110 15 98 8 107 -4 17 -23 -97 -20 -178 -74 -213 -142 -11 -22 -16 -39 -13 -39 4 0 24 16 45 35 122 110 287 132 492 65 55 -17 101 -29 104 -27 2 3 -28 24 -68 48 -73 42 -130 63 -202 74 -57 9 -41 31 19 27 76 -4 151 -29 247 -84 104 -61 216 -92 281 -79 40 8 96 28 96 34 0 1 -31 1 -70 -1 -91 -5 -93 13 -3 23 62 7 133 31 133 45 0 4 -24 -1 -52 -11 -103 -36 -186 -20 -378 71 -147 69 -223 89 -340 91 -57 0 -78 3 -65 9 11 5 63 9 115 9 99 1 179 -14 257 -49 24 -10 43 -15 43 -11 0 14 -114 118 -150 136 -19 10 -30 20 -23 22 23 8 96 -39 173 -111 100 -94 152 -120 252 -124 42 -2 83 0 92 5 10 5 -10 9 -57 9 -43 1 -88 8 -111 18 -54 23 -41 28 23 9 56 -16 163 -15 181 3 6 6 -20 8 -69 6 -69 -4 -84 -1 -131 23 -30 15 -81 56 -119 96 -39 40 -85 77 -111 88 -33 15 -40 22 -28 26 22 9 97 -25 160 -71 27 -20 66 -43 86 -50 44 -16 148 -18 157 -4 4 6 -12 10 -42 10 -51 0 -156 42 -182 73 -17 21 -17 21 54 -4 33 -12 87 -23 120 -25 l60 -5 -67 24 c-88 32 -180 95 -308 212 -143 130 -246 207 -338 252 -70 34 -86 37 -172 40 -71 2 -114 -2 -170 -17z"
       id="path90"
       style="fill:#990033" />
    <path
       d="M3435 5035 c-123 -36 -164 -53 -232 -91 -69 -38 -78 -48 -35 -38 31 7 29 5 -41 -50 -28 -22 -44 -42 -38 -45 7 -4 -3 -27 -25 -60 -23 -34 -39 -49 -44 -42 -5 8 -12 4 -23 -13 -10 -14 -17 -30 -17 -36 0 -14 17 -13 23 3 2 6 8 9 12 5 10 -9 -24 -108 -37 -108 -6 0 -8 13 -4 33 6 31 6 31 -18 -10 -32 -55 -43 -88 -26 -78 10 6 12 -1 7 -31 -4 -21 -7 -48 -7 -60 0 -12 -9 -31 -20 -44 -13 -16 -20 -36 -19 -64 l1 -41 9 33 c13 43 29 41 29 -5 0 -54 -10 -85 -25 -79 -9 3 -14 -9 -17 -41 -2 -24 0 -47 4 -49 5 -3 8 -49 8 -102 1 -69 5 -103 15 -116 8 -11 15 -30 15 -42 0 -13 7 -29 15 -38 29 -28 51 -127 25 -111 -5 3 -10 5 -10 3 0 -13 45 -116 56 -129 7 -8 18 -39 24 -69 5 -29 17 -58 25 -64 18 -13 47 -94 39 -108 -10 -16 5 -58 19 -52 17 6 41 -42 26 -52 -6 -4 -16 0 -21 7 -8 11 -8 10 -4 -4 3 -10 6 -25 6 -32 0 -8 9 -22 20 -32 13 -13 20 -34 21 -63 1 -25 17 -112 35 -195 18 -82 42 -222 53 -310 11 -88 29 -187 39 -220 l19 -60 -4 85 c-2 58 0 79 6 65 5 -11 10 -38 10 -61 2 -73 30 -132 96 -203 64 -68 128 -151 121 -158 -4 -4 -126 120 -151 153 -8 11 -15 14 -15 7 0 -6 45 -58 100 -115 l99 -103 1 42 c0 41 -5 48 -89 136 -101 107 -141 175 -148 257 -10 101 42 227 119 289 84 68 265 101 369 67 29 -10 73 -31 97 -48 24 -16 44 -28 46 -26 1 1 8 17 16 33 8 17 41 57 73 89 l58 59 1 117 c0 91 -4 125 -17 154 -10 20 -21 39 -26 41 -4 3 -33 -9 -64 -26 -31 -17 -58 -29 -61 -26 -3 3 5 11 18 17 12 7 38 24 57 38 29 22 46 26 103 26 37 1 68 0 68 -2 0 -2 -16 -10 -36 -18 -28 -12 -34 -19 -29 -32 13 -30 17 -175 7 -232 -6 -30 -9 -56 -8 -58 2 -1 16 2 31 8 15 6 61 15 102 21 175 24 347 -44 423 -166 l21 -34 56 25 c80 36 146 46 211 34 124 -23 230 -98 279 -199 25 -50 28 -67 28 -161 0 -91 -3 -111 -24 -150 -36 -68 -88 -125 -173 -191 -108 -84 -145 -130 -169 -214 -32 -107 -32 -108 -21 -101 5 3 15 27 21 52 20 78 39 103 178 242 74 73 129 124 123 112 -6 -11 -55 -65 -108 -118 -54 -53 -106 -108 -116 -122 -11 -14 44 38 120 115 117 117 146 153 181 220 50 97 54 113 92 335 17 96 43 223 59 282 16 59 25 113 21 121 -4 7 -3 33 2 58 11 48 29 76 29 44 0 -27 8 -14 24 39 12 41 12 45 0 35 -11 -9 -14 -7 -14 9 0 32 32 93 46 88 7 -3 15 6 18 19 3 13 9 31 13 41 4 12 3 15 -5 10 -8 -5 -12 0 -12 14 0 31 19 62 35 56 15 -5 28 34 19 57 -7 18 20 72 39 80 17 6 71 143 64 161 -7 16 15 95 29 104 20 15 37 91 45 197 12 165 11 175 -6 169 -9 -4 -15 0 -16 7 0 8 -3 35 -5 62 -6 50 5 61 25 25 10 -20 11 -18 5 16 -3 21 -11 45 -18 52 -16 16 -31 127 -17 132 12 4 5 22 -26 77 l-23 40 6 -32 c10 -50 -12 -40 -30 14 -9 26 -16 50 -16 55 0 16 17 7 27 -14 l10 -22 5 22 c4 12 -1 29 -11 41 -9 11 -21 28 -28 38 -10 16 -11 16 -6 -4 8 -36 -3 -27 -41 29 -40 60 -38 79 4 30 l27 -33 -10 34 c-6 19 -16 33 -22 31 -5 -2 -35 19 -65 47 -30 28 -47 48 -37 45 27 -9 11 12 -23 29 -27 14 -29 14 -23 -1 3 -9 2 -15 -3 -13 -54 25 -84 45 -80 55 4 11 -161 74 -195 74 -9 0 -35 -18 -59 -40 -24 -22 -49 -40 -57 -40 -23 0 -14 -18 12 -24 43 -11 27 -23 -24 -18 -39 3 -61 -1 -104 -21 -66 -32 -196 -70 -331 -98 -202 -42 -439 -16 -737 81 -67 22 -141 40 -165 40 -24 0 -46 5 -49 10 -3 6 3 10 14 10 12 0 21 4 21 9 0 16 -63 35 -107 32 -26 -1 -43 2 -43 8 0 6 11 11 25 11 14 0 25 4 25 9 0 11 -25 21 -55 21 -13 0 -27 5 -30 10 -3 6 1 10 9 10 9 0 16 5 16 10 0 16 -49 11 -135 -15z m75 -3 c0 -11 -80 -36 -88 -28 -9 9 4 18 40 26 46 11 48 11 48 2z m1733 -23 c20 -5 37 -15 37 -21 0 -6 -8 -7 -17 -3 -10 3 -30 9 -45 12 -16 3 -28 9 -28 14 0 11 7 11 53 -2z m-1683 -18 c0 -10 -69 -25 -77 -17 -3 2 -2 9 2 15 8 13 75 15 75 2z m-260 -21 c0 -8 -70 -50 -85 -50 -18 0 1 22 33 39 42 23 52 25 52 11z m120 2 c0 -5 -18 -18 -40 -31 -45 -25 -54 -13 -14 18 27 21 54 28 54 13z m1798 -11 c3 -10 -3 -12 -29 -6 -51 11 -61 27 -15 23 22 -2 41 -9 44 -17z m142 -47 c0 -16 -6 -14 -52 18 -42 29 -33 41 12 18 22 -11 40 -27 40 -36z m-1825 37 c-15 -14 -94 -30 -100 -20 -6 9 46 27 85 28 15 1 20 -3 15 -8z m135 -1 c20 -13 13 -16 -47 -23 -55 -6 -74 8 -25 19 15 3 32 7 37 9 16 6 19 5 35 -5z m1595 -31 c7 -8 -3 -10 -38 -6 -27 2 -54 10 -60 17 -10 10 -2 11 38 6 27 -3 54 -11 60 -17z m-1865 -4 c0 -8 -64 -45 -77 -45 -24 0 -13 17 20 34 32 16 57 20 57 11z m-159 -46 c-35 -28 -51 -22 -17 7 15 14 31 22 35 19 3 -4 -5 -15 -18 -26z m2119 16 c31 -16 40 -35 18 -35 -14 0 -78 37 -78 45 0 10 32 5 60 -10z m-2184 -30 c-34 -31 -66 -45 -66 -30 0 8 82 65 94 65 6 -1 -7 -16 -28 -35z m284 30 c0 -5 -86 -45 -96 -45 -14 0 0 22 24 34 26 15 72 21 72 11z m2032 -20 c16 6 103 -53 94 -63 -4 -3 -26 8 -51 26 -24 17 -41 24 -38 16 7 -18 -2 -18 -32 2 -29 19 -34 39 -6 24 11 -5 26 -8 33 -5z m-2202 -4 c0 -14 -80 -74 -88 -66 -4 3 10 22 30 41 37 34 58 43 58 25z m1955 -39 c3 -8 3 -17 1 -19 -8 -8 -76 49 -70 58 7 12 61 -20 69 -39z m68 31 c21 -11 27 -18 17 -20 -16 -4 -90 23 -90 32 0 11 43 4 73 -12z m155 -37 c20 -19 34 -37 30 -41 -7 -7 -88 55 -88 68 0 16 22 5 58 -27z m-2151 -11 c-29 -26 -47 -32 -47 -16 0 12 42 40 60 40 10 0 5 -8 -13 -24z m2111 -34 c2 -6 -1 -11 -6 -11 -14 0 -62 40 -62 52 0 12 63 -26 68 -41z m-2305 -1 c-27 -38 -43 -50 -43 -31 0 14 50 71 62 71 5 0 -3 -18 -19 -40z m2471 -9 c16 -16 26 -35 24 -42 -2 -7 -18 6 -37 30 -37 47 -29 55 13 12z m-2423 -9 c-21 -37 -60 -77 -61 -62 0 22 49 92 61 85 6 -4 6 -12 0 -23z m2176 -14 c18 -18 33 -39 33 -47 0 -9 -15 0 -40 24 -38 37 -49 55 -33 55 4 0 22 -14 40 -32z m-2107 16 c0 -12 -56 -74 -67 -74 -20 0 -15 12 19 47 29 30 48 41 48 27z m2326 -34 c37 -56 24 -73 -14 -18 -34 50 -37 58 -22 58 5 0 21 -18 36 -40z m-2276 24 c0 -12 -34 -64 -42 -64 -13 0 -9 19 8 45 15 23 34 33 34 19z m2219 -35 c32 -31 39 -49 21 -49 -11 0 -69 60 -70 73 0 15 20 6 49 -24z m-65 -1 c17 -24 21 -48 8 -48 -8 0 -42 52 -42 64 0 14 20 4 34 -16z m-2388 -62 c-17 -42 -41 -51 -26 -10 17 44 33 69 37 57 2 -6 -3 -27 -11 -47z m2610 -21 c8 -20 10 -35 4 -35 -11 0 -40 64 -40 89 1 14 2 14 11 -2 5 -9 17 -33 25 -52z m-2566 28 c0 -18 -34 -93 -41 -93 -13 0 -11 26 5 65 13 31 36 48 36 28z m70 -20 c0 -18 -34 -93 -41 -93 -14 0 -11 29 7 66 15 30 34 46 34 27z m2466 -28 c17 -41 18 -55 4 -55 -10 0 -19 17 -34 68 -12 36 13 26 30 -13z m-72 -19 c18 -37 21 -66 7 -66 -7 0 -41 75 -41 93 0 19 19 3 34 -27z m-43 -49 c13 -30 8 -44 -11 -32 -17 10 -50 87 -43 98 7 11 37 -26 54 -66z m-2495 -9 c-8 -46 -13 -58 -27 -58 -12 0 -11 16 2 63 14 52 33 49 25 -5z m2673 -9 c14 -39 14 -69 1 -69 -9 0 -30 61 -30 88 0 24 18 12 29 -19z m-2724 -26 c-8 -59 -25 -81 -25 -32 0 45 10 79 22 79 7 0 8 -18 3 -47z m125 35 c0 -27 -21 -88 -30 -88 -13 0 -13 30 1 69 11 31 29 43 29 19z m2529 -39 c13 -39 14 -69 2 -69 -10 0 -15 13 -26 68 -9 42 9 42 24 1z m115 9 c9 -35 7 -93 -3 -82 -13 13 -24 104 -13 104 5 0 12 -10 16 -22z m-165 -39 c13 -38 14 -59 3 -59 -8 0 -32 65 -32 84 0 19 20 2 29 -25z m-2574 -76 c-8 -58 -25 -81 -25 -36 0 34 15 83 26 83 3 0 3 -21 -1 -47z m55 -2 c0 -39 -13 -61 -25 -41 -8 13 5 80 16 80 5 0 9 -18 9 -39z m2605 -11 c7 -41 0 -64 -16 -55 -12 8 -12 95 0 95 5 0 12 -18 16 -40z m52 -27 c7 -64 -12 -45 -22 22 -5 39 -4 47 5 38 7 -6 15 -33 17 -60z m-2757 -38 c0 -25 -4 -45 -10 -45 -11 0 -14 73 -3 83 11 12 13 8 13 -38z m2800 -20 c0 -25 -4 -45 -10 -45 -5 0 -10 20 -10 45 0 25 5 45 10 45 6 0 10 -20 10 -45z m-122 3 c5 -18 5 -37 1 -42 -12 -13 -16 -7 -24 37 -9 47 11 51 23 5z m-2623 -20 c-9 -61 -15 -78 -26 -78 -12 0 -12 62 1 94 16 43 33 32 25 -16z m2705 -60 c0 -41 -17 -52 -24 -15 -13 60 -16 94 -9 101 12 11 32 -44 33 -86z m-2672 -35 c-3 -50 -21 -66 -26 -24 -5 31 6 71 19 71 6 0 9 -19 7 -47z m2627 -21 c0 -59 -19 -57 -23 2 -2 36 0 47 10 44 8 -3 13 -21 13 -46z m-2735 -22 c0 -27 -4 -50 -10 -50 -11 0 -14 83 -3 93 12 12 13 8 13 -43z m2840 -26 c0 -24 -4 -44 -10 -44 -5 0 -10 23 -10 51 0 31 4 48 10 44 6 -3 10 -26 10 -51z m-2776 -5 c3 -17 6 -41 6 -53 -1 -21 -1 -21 -15 -2 -16 21 -21 86 -6 86 5 0 11 -14 15 -31z m511 -4 c78 -35 129 -87 204 -208 38 -62 85 -131 103 -155 49 -62 179 -156 276 -199 45 -20 81 -42 79 -48 -7 -17 -77 -5 -151 26 -147 62 -265 175 -359 343 -56 101 -109 156 -191 196 -105 53 -179 33 -192 -52 -5 -27 -1 -40 21 -66 27 -32 21 -41 -15 -22 -46 25 -43 120 6 171 51 53 123 58 219 14z m2205 -17 c0 -34 -15 -67 -25 -57 -8 9 6 89 16 89 5 0 9 -15 9 -32z m-353 -13 c61 -31 84 -62 85 -117 1 -55 -28 -92 -75 -96 -44 -4 -50 13 -8 21 44 9 56 39 34 85 -34 69 -134 93 -220 51 -57 -28 -110 -91 -180 -218 -80 -145 -149 -212 -290 -284 -107 -54 -173 -77 -173 -60 0 5 48 33 107 63 146 72 198 125 283 288 106 204 206 292 330 292 40 0 71 -7 107 -25z m-2399 -32 c12 -38 9 -54 -7 -37 -13 14 -24 74 -13 74 5 0 14 -17 20 -37z m86 -4 c7 -45 1 -62 -14 -39 -12 19 -13 80 -1 80 5 0 11 -19 15 -41z m2611 -46 c-3 -14 -9 -22 -13 -19 -8 8 -3 77 6 91 10 14 15 -42 7 -72z m95 52 c0 -24 -20 -66 -29 -61 -4 3 -4 23 2 45 10 37 27 47 27 16z m-2814 -111 c5 -37 4 -38 -10 -20 -18 22 -23 87 -6 70 6 -6 13 -28 16 -50z m52 21 c15 -32 15 -65 2 -65 -5 0 -12 12 -16 28 -3 15 -8 35 -11 45 -7 26 12 20 25 -8z m2771 -51 c-11 -25 -13 -26 -16 -8 -2 11 2 34 8 50 11 25 13 26 16 8 2 -11 -2 -34 -8 -50z m-42 39 c-3 -10 -8 -30 -11 -45 -4 -16 -11 -28 -16 -28 -13 0 -13 33 2 65 13 28 32 34 25 8z m-2733 -100 c19 -54 20 -77 5 -68 -12 8 -23 36 -34 83 -10 49 11 39 29 -15z m2746 20 c-1 -24 -29 -98 -38 -101 -16 -5 -15 6 4 61 9 26 20 47 25 47 5 0 9 -3 9 -7z m-2300 -104 c72 -58 152 -98 255 -129 77 -24 150 -67 238 -144 61 -52 147 -159 147 -181 0 -8 -15 -12 -42 -12 -35 0 -47 -6 -68 -31 -14 -17 -49 -42 -77 -55 -29 -13 -70 -40 -93 -60 -71 -65 -111 -53 -268 83 -71 61 -94 96 -156 242 -29 69 -78 162 -109 207 -31 46 -54 87 -51 93 8 13 28 -6 80 -74 84 -109 191 -156 399 -178 66 -6 138 -18 160 -26 21 -7 41 -11 43 -9 10 9 -85 59 -165 86 -126 43 -239 100 -308 156 -54 44 -81 83 -57 83 5 0 37 -23 72 -51z m990 -15 c-6 -81 -5 -109 3 -184 6 -49 5 -61 -3 -47 -14 21 -36 257 -27 281 4 10 13 16 20 13 8 -3 11 -21 7 -63z m-194 -50 c-36 -172 -33 -163 -35 -125 -1 31 12 126 25 190 3 15 9 20 15 14 6 -6 4 -34 -5 -79z m-1181 -17 c9 -23 11 -37 5 -37 -13 0 -40 61 -33 73 7 11 10 7 28 -36z m2205 35 c0 -5 -49 -41 -110 -81 -116 -78 -198 -113 -320 -138 -41 -8 -86 -21 -100 -28 -31 -16 -88 -75 -72 -75 6 0 14 5 17 10 10 16 93 56 155 74 30 10 94 21 143 27 48 5 126 13 175 18 68 8 106 18 173 49 47 22 100 52 117 67 23 19 32 23 32 12 0 -19 -54 -65 -95 -83 -50 -20 -82 -60 -134 -168 -73 -148 -103 -190 -163 -230 -29 -19 -72 -50 -96 -68 -59 -44 -100 -43 -150 3 -20 19 -54 42 -74 52 -20 9 -47 30 -60 48 -31 41 -72 62 -109 54 -16 -4 -29 -2 -29 3 0 19 82 158 112 189 18 18 50 39 72 48 23 8 97 35 164 59 72 26 166 70 225 106 96 57 127 70 127 52z m-2242 -42 c11 -45 -3 -56 -18 -14 -12 32 -13 54 -1 54 5 0 13 -18 19 -40z m173 -6 c7 -15 38 -49 68 -75 67 -59 46 -66 -24 -8 -53 44 -87 87 -79 101 9 14 20 9 35 -18z m2483 -36 c-14 -26 -19 -29 -22 -15 -4 20 29 78 35 60 2 -6 -4 -27 -13 -45z m-1186 -15 c14 -26 26 -110 15 -98 -10 10 -33 83 -33 104 0 16 8 14 18 -6z m-1412 -58 c16 -40 19 -84 4 -69 -15 15 -39 104 -29 104 6 0 17 -16 25 -35z m2554 21 c0 -1 -5 -17 -11 -35 -10 -29 -29 -43 -29 -22 0 20 20 61 30 61 5 0 10 -2 10 -4z m-166 -15 c8 -13 -49 -97 -83 -122 -18 -13 -30 -28 -27 -34 2 -6 -7 -24 -20 -40 -16 -20 -24 -25 -24 -14 0 8 5 20 12 27 9 9 9 12 -1 12 -8 0 -10 7 -6 20 5 15 3 18 -9 14 -32 -12 -14 12 28 39 24 15 59 45 77 66 36 41 44 47 53 32z m-2174 -96 c12 -13 12 -15 0 -15 -8 0 0 -9 18 -20 17 -11 32 -23 31 -27 -4 -27 3 -43 20 -43 19 0 75 -39 67 -47 -2 -2 -18 3 -35 11 -16 9 -48 16 -71 16 -22 0 -40 5 -40 10 0 6 5 10 10 10 18 0 11 20 -7 20 -17 1 -17 1 -1 14 16 11 13 16 -27 44 -25 17 -45 37 -45 43 0 16 60 3 80 -16z m-141 -64 c13 -41 14 -71 2 -71 -9 0 -31 75 -31 106 0 25 15 7 29 -35z m1226 -11 c14 -6 0 -9 -47 -9 -46 -1 -89 -9 -134 -26 -73 -28 -84 -30 -84 -15 0 38 204 76 265 50z m0 -30 c4 -6 -11 -10 -37 -10 -24 0 -58 -4 -75 -9 -39 -11 -56 4 -21 18 31 13 125 13 133 1z m1149 -32 c-16 -54 -25 -69 -34 -63 -6 4 -4 19 5 42 8 19 15 37 15 39 0 2 5 4 11 4 6 0 8 -9 3 -22z m-234 -49 c-75 -66 -89 -61 -16 6 33 30 62 52 65 49 3 -3 -19 -28 -49 -55z m-2090 -70 c0 -4 -5 -11 -10 -14 -11 -7 -31 35 -22 49 5 9 32 -21 32 -35z m1375 -34 c-3 -30 -7 -89 -7 -132 0 -50 -3 -71 -9 -58 -9 24 -12 206 -3 229 3 9 11 16 16 16 7 0 8 -20 3 -55z m-514 17 c-12 -23 -130 -92 -156 -92 -13 0 -7 7 20 19 22 10 60 35 85 55 49 39 66 45 51 18z m617 -16 c20 -19 34 -37 31 -40 -3 -4 -26 12 -50 33 -24 22 -38 40 -31 41 7 0 29 -15 50 -34z m25 -70 c43 -32 44 -47 0 -20 -37 23 -103 86 -103 98 0 5 15 -4 33 -20 17 -17 49 -43 70 -58z m-1490 -18 c1 -18 -2 -35 -8 -38 -6 -3 -11 17 -13 50 -1 41 0 51 8 38 6 -9 12 -32 13 -50z m27 -103 c0 -37 -14 -54 -24 -29 -8 21 -8 59 0 67 13 13 24 -5 24 -38z"
       id="path92"
       style="fill:#ff6600" />
    <path
       d="M3480 3498 c0 -13 7 -50 15 -83 36 -137 87 -170 262 -170 130 0 151 10 192 90 l25 48 -24 19 -23 19 -13 -38 c-28 -82 -135 -138 -221 -115 -63 17 -91 38 -124 96 -21 37 -29 64 -29 99 0 34 -4 47 -14 47 -8 0 -21 3 -30 6 -12 5 -16 0 -16 -18z"
       id="path94"
       style="fill:#0066ff" />
    <path
       d="M3600 3443 c0 -85 56 -143 137 -143 52 0 85 19 105 60 20 40 24 90 6 90 -6 0 -9 -3 -5 -6 6 -7 -29 -103 -43 -118 -6 -6 -14 -5 -22 1 -7 6 -31 16 -53 23 -45 14 -75 37 -75 57 0 7 -6 12 -12 11 -9 -2 -13 9 -12 35 1 25 -3 37 -12 37 -10 0 -14 -14 -14 -47z"
       id="path96"
       style="fill:#993300" />
    <path
       d="M3712 3448 c-8 -23 -9 -35 -1 -45 29 -35 77 4 65 53 -10 37 -48 32 -64 -8z"
       id="path98"
       style="fill:#0033ff" />
    <path
       d="M3804 3454 c3 -8 6 -18 6 -20 0 -2 5 -4 10 -4 16 0 11 27 -6 34 -12 5 -15 2 -10 -10z"
       id="path100"
       style="fill:none" />
    <path
       d="M3605 3330 c3 -5 11 -10 16 -10 6 0 7 5 4 10 -3 6 -11 10 -16 10 -6 0 -7 -4 -4 -10z"
       id="path102"
       style="fill:none" />
    <path
       d="M5098 3473 c-26 -4 -28 -8 -28 -53 0 -111 -67 -182 -171 -182 -77 0 -179 72 -179 126 0 19 -11 21 -28 4 -16 -16 -15 -43 3 -78 16 -30 121 -90 159 -90 37 0 212 59 239 80 47 37 84 204 43 199 -6 -1 -23 -4 -38 -6z"
       id="path104"
       style="fill:#0066ff" />
    <path
       d="M4969 3446 c8 -9 20 -16 28 -16 12 0 13 -9 8 -42 -9 -60 -35 -80 -93 -71 -26 4 -61 6 -79 6 -28 -1 -33 3 -43 31 -6 18 -8 40 -4 50 5 12 2 15 -11 10 -12 -5 -15 -14 -10 -33 13 -60 28 -81 69 -101 53 -25 92 -25 133 0 44 26 65 70 61 128 -3 46 -4 47 -37 50 -31 3 -33 2 -22 -12z"
       id="path106"
       style="fill:#993300" />
    <path
       d="M4869 3448 c0 -2 -1 -21 -2 -43 -2 -37 0 -40 26 -43 25 -3 27 0 27 30 0 35 -15 58 -37 58 -7 0 -13 -1 -14 -2z"
       id="path108"
       style="fill:#0033ff" />
    <path
       d="M4817 3433 c-10 -10 -8 -41 3 -48 5 -3 8 7 7 25 -1 16 -2 30 -3 30 0 0 -4 -3 -7 -7z"
       id="path110"
       style="fill:none" />
    <path
       d="M5030 3328 c-12 -22 -12 -22 6 -6 10 10 15 20 12 24 -4 3 -12 -5 -18 -18z"
       id="path112"
       style="fill:none" />
    <path
       d="M4073 4996 c-29 -36 -53 -67 -53 -70 0 -3 13 -6 29 -6 21 0 38 10 60 35 17 19 37 35 46 35 9 0 37 -20 63 -44 26 -24 61 -46 77 -50 l30 -7 -25 24 c-52 51 -162 147 -169 147 -3 0 -30 -29 -58 -64z"
       id="path114"
       style="fill:#3366ff" />
    <path
       d="M4836 4995 c-4 -10 1 -15 16 -15 17 0 18 2 8 15 -7 8 -14 15 -15 15 -2 0 -5 -7 -9 -15z"
       id="path116"
       style="fill:none" />
    <path
       d="M3054 4813 c-3 -10 -10 -29 -15 -43 -9 -23 -8 -23 15 5 13 17 20 32 15 33 -5 2 -7 8 -3 13 3 5 3 9 -1 9 -3 0 -8 -8 -11 -17z"
       id="path118"
       style="fill:none" />
    <path
       d="M1576 4448 c2 -3 47 -16 99 -28 117 -27 127 -46 18 -36 -89 7 -90 -1 -1 -20 83 -18 194 -17 298 1 47 8 123 15 170 15 157 0 258 -41 399 -162 95 -82 93 -62 -4 37 -42 42 -86 76 -121 92 -63 28 -64 38 -4 28 61 -10 151 -76 224 -164 59 -72 166 -156 166 -130 0 22 -74 122 -119 160 -82 70 -260 177 -315 190 -53 11 -70 10 -236 -26 -107 -24 -235 -16 -320 18 -51 20 -86 27 -162 29 -53 2 -94 0 -92 -4z"
       id="path120"
       style="fill:#660000" />
    <path
       d="M1543 4372 c24 -27 123 -70 187 -82 29 -6 85 -10 124 -11 65 -1 68 -2 36 -11 -43 -12 -214 5 -267 27 -46 19 -53 13 -15 -14 62 -44 196 -50 362 -16 204 42 300 40 440 -11 35 -13 66 -21 69 -19 2 3 -25 18 -61 35 -93 43 -211 64 -328 57 -52 -4 -142 -9 -200 -13 -131 -8 -232 7 -308 48 -43 22 -52 25 -39 10z"
       id="path122"
       style="fill:#660000" />
    <path
       d="M6157 4260 c-26 -5 -75 -22 -110 -39 -34 -17 -51 -28 -37 -25 14 4 70 9 126 11 89 4 116 1 250 -31 83 -20 158 -36 167 -36 10 0 17 -4 17 -10 0 -15 -43 -12 -194 15 -222 40 -346 31 -454 -32 -53 -30 -49 -42 5 -14 113 57 293 63 488 16 138 -33 243 -32 320 4 l50 24 -40 7 c-22 4 -71 13 -110 19 -38 7 -118 27 -177 46 -59 18 -129 36 -155 40 -26 3 -59 8 -73 10 -14 1 -46 -1 -73 -5z"
       id="path124"
       style="fill:#660000" />
    <path
       d="M2030 4239 c-52 -11 -142 -25 -199 -32 l-104 -12 75 -38 c60 -29 92 -55 152 -118 42 -45 74 -84 71 -87 -3 -3 -34 21 -68 54 -89 85 -94 89 -182 129 l-80 36 70 -65 c39 -36 89 -78 112 -93 63 -41 52 -47 -17 -10 -33 17 -100 67 -147 110 -48 42 -90 77 -95 77 -4 0 6 -19 21 -42 16 -24 55 -90 86 -148 65 -120 128 -211 177 -256 18 -18 72 -56 119 -87 84 -53 124 -89 84 -73 -43 16 -187 110 -234 152 -55 49 -146 181 -230 330 -60 107 -99 149 -48 51 34 -65 36 -85 5 -49 -9 9 -25 36 -37 59 -32 63 -39 59 -21 -13 10 -37 27 -76 42 -92 44 -48 117 -158 142 -215 26 -57 152 -250 214 -326 34 -41 157 -141 175 -141 5 0 -12 23 -38 52 -25 28 -64 82 -86 119 -21 37 -55 84 -74 105 -19 20 -33 40 -30 43 3 3 34 -26 68 -64 149 -165 253 -260 322 -297 69 -36 173 -70 250 -83 22 -3 49 -9 60 -12 13 -3 17 -2 10 5 -5 5 -48 22 -95 37 -169 55 -264 118 -323 214 -44 73 -32 81 18 12 32 -44 95 -95 161 -129 12 -6 69 -23 128 -36 137 -33 195 -63 284 -149 39 -39 72 -67 72 -63 0 13 -185 221 -305 342 l-120 121 -185 90 c-218 107 -286 150 -366 229 -58 58 -132 164 -114 164 5 0 27 -27 49 -59 61 -89 192 -177 407 -274 125 -56 201 -102 428 -260 76 -53 144 -97 150 -97 23 1 -142 147 -219 194 -288 176 -372 250 -447 391 -67 125 -50 131 23 8 83 -143 180 -226 369 -315 189 -90 289 -169 354 -281 18 -30 35 -47 47 -47 10 0 19 3 19 6 0 4 -21 37 -46 75 -55 83 -136 158 -224 206 -119 66 -294 187 -345 238 -27 28 -79 93 -114 145 -35 52 -84 116 -109 142 -25 26 -43 51 -39 55 12 12 60 -31 110 -98 110 -149 136 -177 219 -239 47 -36 117 -82 155 -102 68 -37 259 -95 271 -84 9 9 -68 85 -113 111 -22 13 -78 33 -125 45 -88 22 -151 48 -184 74 -33 27 -12 27 55 2 35 -13 105 -31 154 -41 95 -17 174 -53 205 -92 25 -32 34 -29 14 5 -50 81 -75 109 -167 188 -100 86 -235 164 -283 164 -13 0 -26 5 -30 12 -16 26 154 -20 216 -59 176 -109 283 -202 314 -271 11 -23 23 -42 28 -42 12 0 11 5 -20 57 -16 26 -40 73 -54 103 -32 72 -69 114 -127 147 -25 14 -85 50 -132 79 -109 68 -186 102 -269 120 -85 18 -145 16 -260 -7z"
       id="path126"
       style="fill:#990033" />
    <path
       d="M6955 4197 c-11 -6 -26 -17 -34 -24 -30 -31 -211 -113 -269 -122 -63 -10 -160 -2 -284 24 -148 32 -318 13 -429 -46 -69 -37 -96 -65 -114 -116 -16 -46 -13 -51 13 -25 40 40 117 86 174 104 75 23 169 23 315 1 106 -16 117 -16 194 1 92 20 114 16 42 -8 -95 -31 -150 -36 -278 -25 -145 13 -234 -1 -320 -50 -70 -40 -89 -67 -22 -30 58 31 223 72 266 66 29 -4 33 -2 -89 -41 -47 -15 -106 -41 -131 -57 -52 -33 -116 -105 -147 -164 -16 -32 -42 -133 -42 -164 0 -13 54 49 82 93 82 130 103 158 148 191 52 38 120 70 120 57 0 -5 -27 -30 -60 -55 -52 -41 -129 -129 -130 -149 0 -3 42 16 94 43 139 73 192 88 346 100 138 10 315 45 373 75 39 21 114 83 121 101 3 7 -11 2 -32 -11 -53 -35 -141 -62 -278 -86 -66 -12 -128 -23 -139 -26 -19 -5 -19 -4 -2 10 10 8 60 22 110 31 90 17 160 41 87 30 -19 -3 -73 -10 -120 -16 -46 -6 -102 -17 -124 -24 -22 -8 -42 -13 -43 -11 -12 12 90 41 227 67 232 42 304 73 359 153 38 55 40 68 4 34 -36 -33 -125 -78 -155 -78 -16 0 -3 11 42 35 66 36 159 109 150 118 -3 3 -14 1 -25 -6z"
       id="path128"
       style="fill:#990033" />
    <path
       d="M1560 3992 c0 -10 15 -36 34 -58 42 -49 57 -79 90 -182 16 -48 57 -130 97 -196 67 -111 96 -179 43 -100 -15 21 -37 52 -50 67 -38 45 -93 149 -119 226 -25 76 -64 151 -76 151 -21 0 37 -212 82 -303 17 -34 48 -84 68 -111 75 -100 466 -387 611 -447 36 -15 112 -37 169 -49 96 -21 110 -22 175 -9 l71 13 -58 18 c-32 10 -112 25 -178 33 -66 9 -146 25 -177 37 -66 24 -165 78 -158 85 3 3 45 -9 93 -27 68 -24 120 -35 228 -45 77 -8 156 -16 175 -20 35 -5 35 -5 -8 15 -24 11 -92 29 -150 41 -119 23 -316 97 -432 161 -149 82 -279 247 -384 486 -36 82 -128 232 -142 232 -2 0 -4 -8 -4 -18z"
       id="path130"
       style="fill:#660000" />
    <path
       d="M6862 3859 c-76 -49 -242 -91 -429 -109 -163 -15 -295 -68 -430 -171 -76 -59 -218 -210 -243 -260 -30 -58 -70 -166 -70 -187 1 -9 13 15 29 54 51 130 147 246 257 310 60 35 204 95 204 85 0 -5 -46 -32 -102 -62 -84 -43 -119 -69 -189 -139 -47 -47 -94 -100 -103 -117 -23 -46 -15 -41 24 13 33 46 200 178 271 214 20 11 66 30 101 43 89 34 189 86 288 150 46 31 88 53 92 51 12 -8 -67 -94 -115 -127 -23 -16 -118 -67 -212 -113 -173 -85 -240 -133 -332 -234 -34 -38 -93 -136 -93 -155 0 -9 44 -5 93 10 113 34 166 73 332 243 175 179 195 195 337 271 113 61 144 52 36 -9 -140 -80 -210 -133 -286 -219 -141 -158 -207 -223 -254 -254 -27 -17 -46 -32 -44 -34 9 -10 106 50 166 102 67 58 157 111 168 100 4 -4 0 -10 -8 -15 -41 -23 -195 -159 -188 -166 7 -7 123 68 162 104 21 21 64 71 96 112 77 102 176 192 245 225 31 14 59 24 62 22 2 -3 -15 -19 -39 -35 -51 -35 -147 -136 -197 -207 l-35 -48 91 71 c108 85 161 143 237 255 53 77 134 247 118 247 -4 0 -22 -10 -40 -21z"
       id="path132"
       style="fill:#990033" />
    <path
       d="M2930 3791 c0 -6 5 -13 10 -16 6 -3 10 1 10 9 0 9 -4 16 -10 16 -5 0 -10 -4 -10 -9z"
       id="path134"
       style="fill:none" />
    <path
       d="M6891 3738 c-31 -93 -159 -247 -270 -326 -138 -96 -183 -137 -235 -211 -116 -166 -201 -223 -425 -287 l-86 -24 77 5 c82 6 183 34 234 66 17 10 40 19 50 19 15 0 13 -5 -11 -30 -34 -35 -99 -67 -155 -76 -38 -6 -67 -24 -38 -24 58 1 158 25 206 49 124 63 310 214 374 304 15 21 -6 10 -88 -46 -116 -79 -170 -110 -184 -105 -5 2 31 31 79 65 154 108 276 211 320 271 74 99 181 337 168 375 -2 6 -9 -5 -16 -25z"
       id="path136"
       style="fill:#990033" />
    <path
       d="M2918 3615 c-2 -157 2 -196 28 -255 13 -31 28 -92 33 -140 11 -91 38 -181 71 -235 22 -36 126 -135 141 -135 18 0 8 20 -22 42 -17 13 -43 43 -57 68 -14 25 -31 52 -38 60 -23 29 -53 93 -47 102 3 6 18 -12 33 -39 30 -52 97 -133 109 -133 4 0 -2 37 -14 83 -17 66 -29 89 -58 117 -44 43 -72 104 -92 201 -8 41 -22 91 -30 112 -17 42 -20 87 -6 87 5 0 14 -21 20 -47 6 -27 24 -86 41 -133 l30 -85 -3 55 c-4 53 -104 341 -127 364 -7 7 -11 -23 -12 -89z"
       id="path138"
       style="fill:#666600" />
    <path
       d="M5729 3625 c-4 -5 -25 -53 -46 -105 -33 -79 -41 -111 -47 -194 -8 -110 -16 -136 -52 -179 -13 -16 -31 -43 -40 -61 -8 -17 -21 -42 -28 -56 -8 -14 -17 -36 -21 -50 -7 -23 -4 -22 32 13 22 21 51 61 63 88 13 27 27 49 31 49 9 0 -2 -33 -27 -82 -9 -18 -17 -44 -16 -58 1 -32 -12 -49 -70 -89 -27 -17 -48 -36 -48 -41 0 -4 -3 -15 -6 -24 -5 -13 -1 -13 37 2 62 24 107 75 124 141 9 31 20 70 26 86 5 17 14 83 20 147 5 65 20 155 33 200 43 151 48 175 44 199 -1 13 -6 20 -9 14z"
       id="path140"
       style="fill:#666600" />
    <path
       d="M6884 3409 c-27 -51 -56 -95 -64 -97 -12 -4 -13 -2 -4 9 14 17 75 161 70 166 -6 6 -50 -58 -96 -137 -105 -182 -272 -364 -447 -489 -104 -74 -148 -113 -77 -68 22 13 77 43 123 67 97 51 165 110 304 268 54 62 101 111 104 108 7 -6 -130 -191 -180 -243 -73 -76 -21 -46 60 35 98 96 175 208 198 287 9 33 28 87 41 119 13 33 22 61 20 63 -2 2 -26 -37 -52 -88z"
       id="path142"
       style="fill:#990033" />
    <path
       d="M1611 3403 c15 -49 46 -147 68 -220 47 -149 71 -187 173 -273 86 -73 153 -105 318 -152 80 -23 168 -57 217 -83 l82 -43 6 30 c5 21 3 33 -6 39 -38 25 -134 51 -259 73 -190 33 -312 90 -361 170 -31 52 -22 53 29 4 53 -53 127 -89 222 -111 l65 -14 -89 89 c-48 49 -86 91 -83 94 3 3 32 -16 64 -43 109 -91 162 -115 289 -133 47 -6 95 -20 122 -35 25 -14 46 -25 48 -25 2 0 -2 13 -7 29 -8 22 -21 33 -47 42 -85 28 -211 83 -267 117 -173 103 -341 255 -424 385 -24 37 -45 67 -47 67 -5 0 59 -134 82 -170 12 -19 40 -55 63 -79 22 -24 39 -46 37 -48 -10 -11 -115 89 -143 137 -18 30 -33 49 -33 42 0 -25 73 -158 112 -205 22 -27 38 -51 35 -53 -7 -7 -112 120 -144 174 -14 24 -42 82 -62 130 -37 88 -71 152 -81 152 -3 0 6 -39 21 -87z"
       id="path144"
       style="fill:#990033" />
    <path
       d="M5596 3294 c-10 -33 -21 -65 -23 -72 -3 -8 0 -10 10 -6 9 3 21 28 28 59 17 75 7 88 -15 19z"
       id="path146"
       style="fill:#666600" />
    <path
       d="M6795 3118 c-16 -27 -67 -85 -112 -128 -69 -66 -104 -89 -230 -154 -140 -71 -220 -119 -168 -100 11 4 72 22 135 41 241 71 323 133 379 290 18 47 30 89 29 94 -2 4 -16 -15 -33 -43z"
       id="path148"
       style="fill:#660000" />
    <path
       d="M1686 2958 c28 -29 79 -92 112 -140 109 -152 216 -226 364 -252 103 -18 108 -23 67 -57 l-34 -28 66 -1 c37 0 81 -3 98 -6 86 -18 -28 74 -134 107 -168 51 -195 61 -239 89 -52 34 -64 60 -12 29 18 -11 95 -35 169 -54 148 -37 205 -61 254 -108 29 -27 33 -29 39 -12 9 22 -29 55 -90 80 -92 38 -106 45 -106 54 0 13 140 -31 185 -57 19 -12 35 -17 35 -12 0 10 -57 48 -101 67 -30 13 -142 43 -273 73 -49 11 -109 29 -134 40 -70 31 -169 107 -213 163 -39 49 -72 76 -94 77 -5 0 13 -24 41 -52z"
       id="path150"
       style="fill:#990033" />
    <path
       d="M6825 2947 c-12 -7 -43 -36 -69 -65 -57 -61 -128 -98 -266 -136 -96 -27 -172 -69 -221 -122 l-24 -27 30 16 c17 8 71 27 120 42 92 28 196 75 228 103 9 8 17 10 17 5 0 -23 -138 -104 -233 -138 -94 -34 -157 -61 -157 -69 0 -6 171 50 228 74 29 12 55 20 58 17 13 -12 -95 -69 -188 -99 -54 -17 -106 -40 -117 -52 -19 -20 -19 -24 -5 -44 10 -15 25 -22 47 -22 l32 0 -30 20 c-55 36 -45 44 87 70 133 26 238 105 347 259 38 53 89 115 114 139 44 40 45 55 2 29z"
       id="path152"
       style="fill:#990033" />
    <path
       d="M2697 2903 c-35 -4 -38 -7 -32 -26 14 -47 17 -104 7 -140 -14 -49 -2 -55 126 -67 101 -9 180 -34 236 -72 67 -46 155 -142 125 -137 -8 1 -21 -1 -30 -5 -20 -9 -171 43 -234 80 -45 26 -51 27 -146 21 -88 -6 -104 -9 -131 -32 -17 -14 -43 -32 -59 -41 -42 -21 -39 -54 4 -54 97 0 219 -11 267 -24 46 -13 49 -14 15 -11 -22 3 -104 8 -182 11 -140 7 -143 6 -143 -14 0 -11 -4 -24 -10 -27 -6 -4 -10 14 -10 46 0 48 3 55 45 97 25 25 43 47 41 49 -3 3 -24 -10 -48 -28 -24 -19 -45 -35 -48 -37 -2 -1 -7 -31 -11 -65 -3 -34 -9 -71 -13 -83 -6 -21 -4 -21 176 -21 l183 0 -85 13 c-47 7 -113 13 -147 13 -35 1 -63 5 -63 10 0 18 79 18 250 0 309 -33 302 -33 342 -16 63 26 72 51 65 177 -9 159 -21 195 -82 256 -104 105 -234 145 -408 127z m261 -103 c99 -43 181 -92 164 -98 -6 -2 -21 3 -34 12 -13 8 -63 27 -113 41 -108 33 -145 51 -145 70 0 23 28 18 128 -25z"
       id="path154"
       style="fill:#990000" />
    <path
       d="M4280 2899 c-57 -11 -180 -71 -206 -100 l-19 -23 32 22 c17 13 62 37 100 55 61 28 78 32 158 32 106 0 123 -7 222 -95 37 -33 71 -60 76 -60 14 0 -26 60 -64 95 -66 60 -202 94 -299 74z"
       id="path156"
       style="fill:#990033" />
    <path
       d="M2592 2872 c-10 -7 -7 -19 13 -58 25 -48 25 -50 11 -126 l-13 -78 140 0 c172 0 217 -12 316 -86 40 -30 75 -54 78 -54 12 0 -71 81 -112 109 -63 43 -123 62 -227 72 -97 9 -147 22 -158 40 -3 5 -2 36 4 69 14 88 -9 139 -52 112z"
       id="path158"
       style="fill:#990000" />
    <path
       d="M5690 2771 c-70 -22 -108 -42 -142 -75 -43 -39 -33 -45 35 -21 72 26 127 38 127 27 0 -4 -33 -17 -73 -29 -70 -21 -157 -73 -157 -93 0 -5 12 -3 28 5 15 7 101 23 192 34 134 16 176 17 223 9 92 -18 74 -32 -53 -42 -93 -7 -214 -40 -296 -81 -70 -34 -164 -107 -164 -127 0 -7 5 -7 13 1 20 16 97 42 97 32 0 -5 -20 -16 -44 -25 -49 -19 -96 -52 -96 -67 0 -5 13 -3 30 6 16 8 48 15 72 15 24 0 88 7 142 15 117 18 123 18 111 6 -12 -11 -114 -28 -223 -37 -106 -9 -134 -27 -189 -124 -102 -178 -97 -288 18 -428 73 -89 222 -187 467 -308 39 -19 72 -42 72 -50 0 -21 -13 -18 -109 30 -48 25 -134 61 -191 81 l-104 36 -116 112 -115 113 -83 13 c-87 13 -115 9 -68 -9 57 -21 228 -151 215 -164 -3 -3 -32 17 -65 45 -72 61 -150 107 -195 115 l-34 5 39 -20 c21 -11 59 -37 85 -57 65 -53 67 -54 54 -54 -6 0 -35 19 -64 42 -29 23 -69 48 -89 55 -35 12 -35 12 -77 -32 -54 -59 -61 -98 -33 -188 16 -52 34 -82 73 -126 168 -188 185 -210 206 -273 12 -35 55 -118 96 -183 73 -115 88 -151 63 -143 -14 5 -144 185 -200 277 -101 163 -276 408 -304 424 -29 16 -75 10 -100 -14 -55 -52 -50 -141 17 -286 17 -37 46 -106 64 -153 18 -47 46 -112 63 -145 17 -33 43 -94 58 -135 14 -41 40 -99 55 -129 16 -30 27 -56 24 -59 -3 -3 -6 -3 -8 -1 -52 69 -81 122 -112 199 -21 52 -53 127 -73 165 -19 39 -50 106 -69 150 -59 139 -146 265 -183 265 -4 0 5 -24 20 -52 24 -45 60 -155 60 -184 0 -21 -20 17 -39 76 -34 99 -74 174 -95 178 -15 3 -17 0 -12 -14 5 -11 19 -71 32 -134 14 -63 32 -144 41 -180 24 -102 25 -119 3 -60 -12 30 -34 121 -50 202 -31 159 -40 183 -70 193 -37 12 -122 -54 -139 -109 -16 -50 -31 -193 -25 -239 4 -27 -2 -71 -15 -124 -19 -75 -37 -211 -43 -338 -2 -38 -7 -51 -20 -53 -12 -2 -19 5 -24 24 -6 25 4 224 27 521 11 139 6 181 -31 253 -21 41 -48 67 -74 72 -30 5 -46 -63 -57 -257 -15 -233 -27 -276 -22 -75 4 148 12 243 29 321 5 25 3 26 -41 31 -26 3 -79 22 -118 41 -39 20 -74 34 -78 31 -4 -2 -28 -59 -54 -126 -45 -118 -65 -157 -65 -130 0 18 79 224 97 251 15 23 14 26 -18 53 -36 31 -66 32 -150 8 -90 -25 -157 -107 -236 -283 -46 -104 -63 -127 -63 -89 0 27 93 268 148 387 42 90 47 107 45 165 -1 36 -7 79 -13 95 l-12 30 -30 -35 c-17 -19 -48 -57 -69 -83 -22 -27 -39 -42 -39 -33 0 9 30 47 66 86 l66 70 -26 34 c-25 33 -27 34 -63 24 -55 -15 -110 -45 -171 -91 -69 -53 -79 -41 -10 14 56 45 161 99 191 99 10 0 15 5 12 10 -8 13 -48 3 -108 -27 -27 -13 -51 -22 -54 -20 -6 6 57 44 103 62 l39 15 -50 -5 c-74 -9 -105 -21 -270 -102 -82 -41 -143 -68 -135 -60 34 33 308 166 368 177 l61 12 -41 54 c-54 71 -65 74 -298 61 -72 -4 -114 -3 -100 2 41 13 257 34 285 27 50 -13 23 12 -53 48 -93 43 -137 52 -342 67 -85 6 -182 17 -214 25 -88 19 -209 8 -255 -24 l-36 -25 115 7 c70 3 131 2 155 -5 22 -6 79 -16 127 -23 48 -6 89 -14 93 -17 3 -4 -81 -9 -187 -12 -162 -4 -343 -21 -356 -33 -2 -1 10 -23 27 -47 31 -46 50 -107 51 -165 0 -19 3 -32 8 -30 96 50 181 84 246 99 100 22 320 59 325 53 11 -10 -19 -18 -166 -40 -87 -14 -180 -32 -208 -41 -50 -16 -165 -70 -165 -77 0 -2 26 4 58 14 32 10 80 21 107 24 55 7 43 1 -60 -29 -33 -9 -80 -28 -104 -41 -47 -26 -61 -24 -61 8 0 38 -32 151 -62 217 -15 35 -26 66 -23 69 3 3 92 16 198 28 l192 23 -130 -6 c-71 -4 -153 -7 -182 -7 -55 -1 -84 -19 -108 -66 -14 -27 -15 -23 44 -184 12 -32 25 -84 29 -115 7 -54 8 -56 36 -53 15 2 69 21 120 44 291 129 443 180 553 186 45 2 94 1 109 -2 25 -7 26 -8 9 -26 -10 -11 -30 -20 -45 -20 -36 0 -78 -15 -235 -85 -158 -70 -228 -105 -222 -111 2 -2 34 10 71 27 115 54 85 23 -35 -36 -62 -31 -135 -69 -161 -86 l-48 -31 41 -30 c22 -16 49 -45 61 -64 11 -18 22 -34 25 -34 3 0 23 16 44 35 38 34 117 80 125 72 2 -2 -26 -25 -64 -50 -112 -79 -104 -66 -83 -122 l18 -48 17 25 c32 49 342 298 371 298 15 0 -12 -23 -103 -88 -105 -76 -255 -222 -272 -267 -8 -22 -13 -25 -25 -15 -8 6 -19 28 -26 48 -24 75 -69 148 -121 199 l-53 52 -26 -23 -27 -23 41 -31 c65 -51 113 -124 144 -220 15 -48 28 -88 29 -90 1 -3 91 79 243 224 118 112 289 244 314 244 30 0 18 -19 -47 -71 -39 -31 -62 -57 -59 -65 3 -8 -30 -50 -79 -101 -75 -78 -109 -123 -172 -226 -9 -15 -21 -25 -26 -22 -15 9 36 102 108 195 75 97 69 93 -80 -45 -117 -109 -190 -210 -159 -220 9 -3 34 -28 55 -56 25 -33 53 -58 81 -70 53 -23 87 -63 110 -126 10 -26 29 -59 43 -72 25 -23 30 -23 132 -17 97 6 109 4 155 -17 28 -13 73 -44 100 -69 60 -53 95 -78 111 -78 18 0 54 170 54 253 0 70 2 76 92 264 51 106 96 192 101 193 15 0 6 -34 -33 -127 -22 -52 -42 -111 -46 -131 -4 -21 -15 -58 -25 -83 -10 -26 -21 -75 -24 -110 -4 -35 -23 -111 -42 -169 -19 -58 -36 -125 -36 -149 -3 -64 15 -71 187 -71 l138 0 148 -50 c81 -27 159 -50 173 -50 14 0 63 9 109 20 133 32 226 27 361 -17 94 -31 126 -38 197 -38 97 0 116 8 261 106 109 74 134 84 277 114 196 40 221 54 337 181 42 46 91 92 107 100 l30 16 -38 30 c-83 66 -244 238 -326 348 -47 63 -95 124 -107 134 -11 11 -21 26 -21 35 0 24 92 -71 175 -180 42 -55 101 -118 139 -147 36 -29 100 -85 141 -125 l76 -73 32 35 c23 25 41 63 60 127 33 112 68 165 152 233 143 117 171 170 160 308 -6 69 -10 82 -21 72 -19 -15 -42 -9 -162 46 -56 26 -120 49 -142 52 -66 9 -60 26 6 18 74 -8 157 -31 208 -57 34 -17 38 -18 32 -3 -22 59 -18 92 23 183 22 50 46 117 54 150 l14 60 -56 7 c-93 10 -121 17 -115 26 6 10 137 1 172 -12 17 -7 22 -16 22 -46 0 -47 -34 -171 -60 -224 -23 -44 -25 -98 -5 -149 l13 -35 1 41 c1 22 17 96 36 164 39 137 43 193 19 264 -13 37 -20 46 -33 41 -9 -4 -64 -12 -123 -18 -90 -9 -120 -8 -195 6 -48 10 -104 17 -123 17 -60 0 -227 -29 -301 -51 -51 -15 -74 -18 -81 -11 -8 8 -3 14 18 22 16 6 40 15 54 20 103 38 231 53 480 54 124 1 232 6 241 12 15 8 13 14 -12 54 l-28 44 6 -43 c8 -55 -8 -49 -41 17 -12 26 -37 70 -55 97 -21 34 -35 73 -42 115 -21 137 -29 173 -40 186 -18 22 -238 18 -309 -5z m305 -281 l30 -7 -28 -8 c-15 -4 -55 -4 -90 -1 -49 5 -82 2 -155 -18 -50 -13 -94 -20 -97 -16 -5 7 69 43 110 53 31 7 196 6 230 -3z m-57 -356 c83 -13 40 -21 -115 -21 -117 0 -188 -6 -273 -22 -143 -26 -150 -26 -150 -2 0 23 16 29 129 47 85 13 319 12 409 -2z m-361 -178 c37 -8 100 -17 138 -20 99 -10 182 -24 238 -42 67 -22 53 -28 -19 -9 -32 9 -117 22 -189 30 -140 16 -206 28 -245 44 -37 15 -3 13 77 -3z m-53 -62 c61 -14 145 -37 186 -51 76 -25 474 -216 484 -231 9 -14 -37 -69 -90 -109 -107 -79 -135 -122 -182 -279 -20 -64 -54 -116 -68 -102 -8 8 54 204 82 260 23 45 67 88 163 160 25 18 46 38 48 45 3 7 -60 45 -157 93 -198 99 -278 131 -399 159 -109 26 -201 58 -201 72 0 13 11 12 134 -17z m149 -105 c12 -11 42 -35 67 -52 100 -68 290 -210 286 -214 -8 -9 -86 38 -158 96 -41 32 -93 70 -116 85 -50 32 -112 85 -112 97 0 14 9 11 33 -12z m182 -94 c73 -46 161 -90 212 -105 23 -7 40 -16 38 -21 -7 -11 -71 9 -140 43 -55 28 -175 106 -175 114 0 9 14 2 65 -31z m-2540 -115 c8 -13 -18 -60 -49 -89 -41 -39 -132 -207 -176 -327 -55 -148 -91 -237 -102 -248 -20 -24 -5 52 32 155 22 62 39 114 37 116 -2 1 -18 -31 -36 -71 -29 -65 -71 -125 -71 -100 0 10 62 158 101 240 16 33 29 65 29 70 0 5 5 27 11 49 9 30 33 61 103 127 89 85 109 98 121 78z m2065 -275 c61 -67 205 -263 198 -270 -3 -3 -43 48 -90 113 -48 64 -101 131 -118 147 -34 33 -130 158 -130 170 0 4 19 -17 42 -46 23 -30 67 -81 98 -114z m-1950 150 c0 -3 -26 -58 -59 -123 -32 -64 -67 -144 -77 -177 -15 -49 -19 -55 -22 -33 -4 33 35 132 94 238 24 44 44 85 44 90 0 6 5 10 10 10 6 0 10 -2 10 -5z m574 -90 c3 -9 -4 -39 -15 -67 -11 -28 -27 -97 -35 -152 -13 -84 -53 -263 -93 -413 -10 -36 -6 -43 21 -43 30 0 128 -38 169 -64 l37 -25 11 62 c6 34 14 97 18 140 10 124 27 108 19 -19 -12 -189 -17 -224 -34 -224 -8 0 -56 19 -106 42 l-91 43 -160 1 c-204 1 -199 1 -225 22 l-22 18 38 102 c21 56 42 102 47 102 5 0 6 -8 2 -17 -28 -73 -59 -173 -54 -177 8 -9 68 -9 190 -1 l116 8 6 86 c3 47 15 127 26 178 11 50 28 136 36 189 17 100 61 224 81 224 7 0 14 -7 18 -15z m-467 -172 c-32 -63 -117 -331 -117 -367 0 -27 -25 -18 -91 35 -80 64 -98 71 -184 70 -88 0 -105 5 -105 32 0 26 90 227 101 227 5 0 -12 -48 -36 -107 -25 -60 -45 -110 -45 -113 0 -3 44 -5 98 -5 91 0 102 -2 143 -29 24 -16 56 -40 70 -53 15 -14 29 -21 32 -16 2 4 19 58 36 118 48 164 49 166 83 223 46 74 55 65 15 -15z m-799 38 c104 -53 202 -139 202 -177 0 -23 -18 -16 -42 16 -12 17 -41 42 -65 55 -23 14 -63 43 -88 65 -26 22 -51 40 -56 40 -6 0 -7 5 -4 10 8 13 10 13 53 -9z m3122 -228 c0 -22 -54 14 -111 74 -74 78 -59 81 31 6 44 -36 80 -73 80 -80z m-925 -43 c26 -69 67 -164 91 -212 24 -48 44 -96 43 -105 -1 -48 -176 348 -193 437 -10 54 6 20 59 -120z m-471 56 c9 -36 25 -125 36 -198 11 -73 23 -146 27 -162 4 -19 2 -27 -5 -22 -13 8 -28 76 -47 216 -9 58 -22 130 -30 160 -17 65 -18 70 -6 70 5 0 16 -29 25 -64z m1121 -172 c-88 -82 -151 -114 -225 -114 -51 1 -53 2 -36 15 11 8 29 15 40 15 35 1 102 36 148 78 49 45 94 71 123 72 15 0 2 -17 -50 -66z m-479 -81 c15 -27 40 -67 55 -90 36 -51 37 -64 3 -32 -22 20 -94 146 -94 164 0 14 12 0 36 -42z m-136 -168 c18 -21 -31 -62 -98 -81 -71 -21 -143 -14 -210 20 -28 14 -62 26 -75 26 -37 0 -87 12 -87 20 0 4 20 11 44 14 33 5 62 1 122 -19 95 -32 157 -29 230 9 58 30 58 30 74 11z"
       id="path160"
       style="fill:#990000" />
    <path
       d="M6044 2745 c12 -45 26 -70 26 -44 0 25 -21 89 -29 89 -4 0 -3 -20 3 -45z"
       id="path162"
       style="fill:none" />
    <path
       d="M3662 2749 c-164 -27 -262 -136 -262 -289 0 -67 38 -134 135 -240 93 -100 108 -134 99 -215 -6 -47 -2 -57 52 -158 103 -193 294 -356 418 -357 17 0 70 10 118 22 l86 22 81 -23 c92 -27 153 -29 207 -6 48 20 149 93 197 142 36 38 39 46 58 159 26 151 45 190 126 262 140 123 196 179 222 222 23 39 26 56 26 130 -1 142 -54 225 -181 282 -75 33 -156 35 -239 6 l-70 -25 3 -37 c7 -79 -33 -121 -140 -149 -36 -9 -73 -28 -98 -50 -46 -39 -75 -47 -164 -47 -65 0 -116 19 -175 64 -19 14 -57 32 -86 40 -72 21 -115 74 -115 141 0 18 -14 32 -57 58 -92 55 -135 63 -241 46z m164 -25 c19 -15 19 -16 -1 -8 -11 4 -46 9 -77 12 -107 8 -217 -44 -266 -127 -23 -38 -27 -58 -27 -116 1 -87 24 -135 105 -220 58 -61 100 -130 100 -162 0 -10 -11 4 -24 30 -13 26 -51 77 -85 112 -129 134 -151 284 -59 395 25 30 83 68 128 84 61 21 180 21 206 0z m1185 -55 c71 -35 153 -113 175 -164 7 -19 14 -56 14 -83 0 -77 -37 -138 -144 -237 -51 -47 -106 -103 -121 -125 -15 -22 -30 -38 -32 -36 -11 11 61 97 139 168 174 158 187 278 46 402 -73 64 -140 96 -202 96 -38 0 -47 3 -36 11 24 16 94 2 161 -32z m-1298 -303 c55 -72 137 -84 248 -36 127 54 224 60 331 20 44 -17 49 -17 100 1 93 32 186 21 320 -37 116 -51 188 -43 249 29 17 20 32 28 43 24 28 -11 18 -36 -26 -65 -69 -44 -173 -156 -220 -234 -59 -100 -113 -152 -211 -199 l-82 -40 -140 3 c-129 3 -144 6 -198 31 -99 49 -151 98 -212 201 -67 114 -142 206 -201 247 -46 31 -69 63 -59 79 12 19 33 10 58 -24z"
       id="path164"
       style="fill:#006600" />
    <path
       d="M4275 2320 c28 -16 53 -30 57 -30 11 0 79 42 75 46 -2 2 -18 -1 -35 -7 -23 -8 -41 -7 -77 5 -69 24 -76 19 -20 -14z"
       id="path166"
       style="fill:#990033" />
    <path
       d="M4085 2278 c-11 -7 -31 -13 -45 -15 -14 -1 -45 -9 -70 -18 -27 -10 -62 -15 -87 -12 -24 2 -43 3 -43 1 0 -4 54 -79 85 -119 11 -14 18 -16 21 -7 10 22 24 13 24 -15 0 -16 7 -36 14 -45 14 -18 32 -25 21 -9 -3 5 -1 12 4 15 11 7 35 -20 27 -32 -9 -16 18 -32 34 -21 11 7 24 -1 50 -31 l35 -40 22 40 21 40 -34 0 c-25 0 -43 8 -62 27 -15 15 -32 28 -37 28 -14 0 -50 36 -58 56 -3 9 -28 31 -56 49 -71 46 -70 60 1 38 29 -9 41 -9 50 0 7 7 27 12 46 12 37 0 71 15 88 39 10 13 16 11 43 -18 24 -26 37 -32 57 -28 15 2 38 -2 53 -9 37 -20 125 -18 142 2 10 12 24 15 56 10 35 -5 43 -3 43 10 0 13 3 14 14 4 8 -6 25 -10 38 -9 13 2 40 -3 60 -10 21 -7 56 -11 78 -10 22 2 41 -1 42 -6 2 -6 -21 -23 -49 -38 -35 -19 -55 -36 -59 -53 -3 -13 -12 -24 -20 -24 -8 0 -14 -5 -14 -10 0 -15 -90 -70 -114 -70 -12 0 -33 -6 -48 -14 -18 -10 -29 -11 -37 -3 -7 7 -15 6 -26 -3 -12 -10 -21 -10 -38 -2 -12 6 -50 13 -84 15 l-63 5 0 -39 c0 -52 25 -63 54 -26 27 34 34 34 47 0 8 -22 12 -24 19 -13 5 8 12 11 16 7 4 -4 13 1 21 11 10 12 16 14 19 5 9 -21 27 -15 21 7 -3 11 -2 20 2 20 5 0 16 -9 26 -20 24 -27 43 -25 51 5 7 29 13 31 29 9 10 -15 15 -14 51 4 52 28 94 68 94 92 0 11 6 20 13 20 7 0 28 16 47 35 19 19 39 35 44 35 6 0 26 18 44 40 l34 40 -39 -6 c-39 -6 -152 14 -211 37 -26 11 -36 11 -52 1 -11 -6 -31 -12 -46 -12 -14 0 -48 -10 -75 -21 -58 -25 -99 -22 -155 13 -41 25 -108 48 -140 48 -11 0 -28 -6 -39 -12z"
       id="path168"
       style="fill:#ff3300" />
    <path
       d="M4097 2183 c-14 -4 -17 -11 -13 -26 3 -12 6 -29 6 -37 0 -8 9 -30 21 -49 25 -41 39 -29 39 34 0 22 4 47 10 55 15 24 -15 35 -63 23z"
       id="path170"
       style="fill:#66ffff" />
    <path
       d="M4200 2157 c0 -12 4 -28 9 -35 12 -20 94 -42 114 -30 25 13 21 45 -5 52 -13 3 -44 12 -70 20 -47 15 -48 15 -48 -7z"
       id="path172"
       style="fill:#66ffff" />
    <path
       d="M4533 2173 c-9 -3 -13 -28 -13 -74 l0 -69 23 15 c26 17 45 51 57 103 8 31 7 32 -24 31 -17 0 -37 -3 -43 -6z"
       id="path174"
       style="fill:#66ffff" />
    <path
       d="M4455 2155 c-5 -2 -27 -6 -48 -10 -32 -5 -38 -10 -35 -28 2 -17 11 -23 40 -25 49 -4 78 12 78 43 0 23 -10 29 -35 20z"
       id="path176"
       style="fill:#66ffff" />
    <path
       d="M4684 2009 c-42 -45 -131 -103 -194 -127 -30 -12 -47 -21 -38 -21 27 -1 119 36 169 67 43 28 120 112 102 112 -5 0 -22 -14 -39 -31z"
       id="path178"
       style="fill:#990000" />
    <path
       d="M3992 1980 c8 -26 101 -89 153 -104 77 -22 142 -30 149 -17 5 7 -9 11 -41 11 -37 0 -70 10 -134 41 -46 22 -95 50 -108 62 -16 15 -22 17 -19 7z"
       id="path180"
       style="fill:#990000" />
    <path
       d="M4022 2753 c-21 -8 -45 -64 -33 -76 12 -12 11 -14 34 37 19 41 19 46 -1 39z"
       id="path182"
       style="fill:#990033" />
    <path
       d="M4126 2614 c-7 -18 26 -98 52 -127 17 -19 84 -57 99 -57 4 0 -10 10 -32 23 -54 31 -85 79 -85 133 0 31 -4 44 -14 44 -8 0 -17 -7 -20 -16z"
       id="path184"
       style="fill:#990033" />
    <path
       d="M2484 1684 c-18 -14 -18 -15 4 -4 12 6 22 13 22 15 0 8 -5 6 -26 -11z"
       id="path186" />
  </g>
</svg>
