<?xml version="1.0" encoding="UTF-8" standalone="no"?>
<svg
   xmlns:dc="http://purl.org/dc/elements/1.1/"
   xmlns:cc="http://creativecommons.org/ns#"
   xmlns:rdf="http://www.w3.org/1999/02/22-rdf-syntax-ns#"
   xmlns:svg="http://www.w3.org/2000/svg"
   xmlns="http://www.w3.org/2000/svg"
   xmlns:sodipodi="http://sodipodi.sourceforge.net/DTD/sodipodi-0.dtd"
   xmlns:inkscape="http://www.inkscape.org/namespaces/inkscape"
   version="1.0"
   width="1024.000000pt"
   height="1024.000000pt"
   viewBox="0 0 1024.000000 1024.000000"
   preserveAspectRatio="xMidYMid meet"
   id="svg550"
   sodipodi:docname="UNADJUSTEDNONRAW_thumb_9d3.svg"
   inkscape:version="0.92.2 5c3e80d, 2017-08-06">
  <defs
     id="defs554" />
  <sodipodi:namedview
     pagecolor="#ffffff"
     bordercolor="#666666"
     borderopacity="1"
     objecttolerance="10"
     gridtolerance="10"
     guidetolerance="10"
     inkscape:pageopacity="0"
     inkscape:pageshadow="2"
     inkscape:window-width="1920"
     inkscape:window-height="973"
     id="namedview552"
     showgrid="false"
     inkscape:zoom="0.90114683"
     inkscape:cx="803.02812"
     inkscape:cy="909.46643"
     inkscape:window-x="0"
     inkscape:window-y="1"
     inkscape:window-maximized="1"
     inkscape:current-layer="svg550" />
  <metadata
     id="metadata2">
Created by potrace 1.14, written by Peter Selinger 2001-2017
<rdf:RDF>
  <cc:Work
     rdf:about="">
    <dc:format>image/svg+xml</dc:format>
    <dc:type
       rdf:resource="http://purl.org/dc/dcmitype/StillImage" />
  </cc:Work>
</rdf:RDF>
</metadata>
  <g
     transform="translate(0.000000,1024.000000) scale(0.100000,-0.100000)"
     fill="#000000"
     stroke="none"
     id="g548">
    <path
       d="M0 5120 l0 -5120 5120 0 5120 0 0 5120 0 5120 -5120 0 -5120 0 0 -5120z m4750 4774 c30 -31 96 -83 145 -117 153 -103 200 -143 226 -191 13 -25 26 -46 29 -45 3 0 26 27 52 59 89 111 243 208 403 255 109 32 273 43 384 26 106 -17 248 -66 335 -117 119 -70 226 -178 226 -229 0 -8 16 -39 35 -67 20 -28 43 -77 53 -109 11 -37 23 -60 34 -63 10 -2 18 -13 18 -25 0 -12 5 -21 10 -21 18 0 30 48 30 117 0 76 -27 144 -66 170 -34 22 -31 43 6 43 65 0 150 -114 185 -246 27 -106 15 -190 -36 -248 -30 -34 -37 -60 -19 -71 18 -11 10 -35 -15 -45 -30 -11 -30 -16 -5 -108 11 -39 20 -82 20 -95 0 -35 -39 -65 -100 -78 -30 -6 -57 -13 -58 -14 -2 -2 28 -51 67 -108 98 -145 124 -204 129 -299 4 -65 1 -84 -18 -123 -21 -44 -79 -95 -108 -95 -8 0 -37 -16 -66 -35 -44 -29 -62 -35 -107 -35 -57 0 -106 22 -144 65 -11 12 -40 28 -65 34 -25 7 -67 25 -93 39 -41 22 -50 24 -62 11 -36 -37 -70 -512 -45 -644 11 -56 20 -75 55 -115 96 -108 154 -220 155 -297 0 -23 7 -54 16 -70 15 -26 15 -32 -6 -87 -28 -75 -89 -137 -155 -159 -27 -10 -57 -17 -68 -17 -12 0 -17 -5 -14 -12 63 -146 81 -185 88 -194 5 -5 40 -28 80 -49 39 -22 79 -49 88 -60 15 -19 27 -20 176 -19 194 1 205 5 205 73 0 67 39 122 158 219 89 73 143 126 214 210 31 37 48 40 74 11 14 -16 19 -35 18 -78 -1 -76 -24 -120 -79 -153 -42 -26 -58 -48 -35 -48 6 0 85 41 176 92 155 86 168 95 208 152 57 80 74 115 82 166 13 80 57 98 139 58 35 -17 50 -20 63 -11 10 6 31 13 47 17 30 6 30 7 27 64 -3 47 1 63 20 91 13 19 113 100 223 181 137 101 200 153 200 166 0 12 -13 25 -33 34 -30 14 -33 18 -28 49 14 90 109 109 172 34 l21 -25 56 57 c79 79 147 108 262 113 114 5 186 -19 257 -86 72 -67 111 -153 116 -256 10 -186 -77 -309 -259 -368 -67 -21 -67 -21 -57 -50 12 -33 3 -107 -16 -133 -11 -15 -20 -17 -72 -9 -60 10 -66 16 -49 56 5 13 0 21 -17 29 -21 9 -52 -3 -257 -105 -203 -101 -239 -116 -282 -116 -38 0 -58 6 -83 25 -18 14 -36 25 -39 25 -15 0 -60 -83 -62 -114 -3 -51 -25 -96 -50 -102 -12 -3 -45 1 -73 9 -101 31 -155 32 -214 5 -49 -23 -57 -32 -101 -110 -26 -47 -56 -93 -67 -103 -10 -9 -22 -30 -25 -47 -5 -21 -22 -39 -61 -65 -30 -20 -54 -41 -54 -46 0 -6 -39 -48 -87 -94 l-86 -83 23 -25 c17 -18 21 -31 17 -55 -5 -22 -3 -30 8 -30 25 0 37 -37 22 -67 -13 -24 -12 -31 9 -70 16 -28 22 -51 18 -67 -4 -19 -1 -25 19 -30 31 -7 41 -33 24 -60 -12 -17 -11 -25 6 -54 15 -26 17 -38 9 -55 -6 -12 -13 -34 -16 -49 -5 -23 -3 -28 12 -28 60 0 84 -76 37 -120 -22 -21 -23 -25 -10 -43 13 -18 13 -24 0 -43 -10 -16 -11 -25 -4 -29 6 -4 9 -22 8 -40 -2 -23 4 -41 24 -64 32 -39 34 -65 6 -85 -16 -11 -21 -26 -23 -63 -1 -27 -6 -55 -10 -62 -5 -8 0 -18 13 -27 32 -23 28 -69 -11 -107 -20 -20 -31 -40 -30 -53 4 -26 -22 -54 -49 -54 -10 0 -19 -7 -19 -15 0 -8 -9 -20 -20 -27 -11 -7 -20 -23 -20 -35 0 -61 -45 -97 -92 -72 -12 7 -41 13 -63 14 -84 4 -203 84 -257 174 -53 87 -174 224 -283 321 -257 228 -328 315 -423 512 -26 54 -49 97 -52 97 -3 0 -19 -23 -37 -50 -21 -32 -28 -51 -20 -54 40 -11 48 -17 56 -37 10 -27 -2 -74 -25 -99 -9 -11 -41 -26 -70 -36 l-53 -16 40 -45 c58 -66 166 -229 254 -382 42 -74 108 -178 146 -232 163 -229 454 -686 604 -948 104 -180 376 -718 430 -850 86 -208 151 -468 176 -697 25 -241 -8 -706 -56 -780 -29 -44 -40 -28 -53 75 -33 257 -164 704 -383 1307 -91 253 -120 307 -212 397 -144 141 -260 218 -356 239 -43 9 -59 7 -115 -11 -151 -51 -278 24 -433 258 -79 118 -113 152 -196 197 -40 22 -62 28 -107 26 -64 -2 -162 26 -229 64 -24 14 -46 24 -48 22 -2 -2 13 -26 34 -52 34 -45 37 -54 39 -125 2 -44 10 -89 19 -106 38 -74 6 -143 -89 -191 -41 -21 -69 -27 -148 -31 -54 -3 -98 -8 -98 -12 0 -19 76 -275 123 -415 30 -88 71 -214 92 -281 l37 -120 117 -29 c521 -126 976 -365 1393 -733 377 -331 693 -803 723 -1077 14 -129 -40 -273 -146 -388 -225 -247 -691 -397 -1387 -448 -215 -15 -809 -7 -1032 15 -331 33 -580 76 -864 148 -583 148 -1083 396 -1367 678 -128 127 -192 229 -245 390 -25 77 -28 99 -28 235 -1 144 1 154 32 245 36 101 73 175 131 255 23 31 35 58 33 73 -2 13 -30 44 -71 76 -72 58 -106 97 -140 163 -29 57 -27 76 14 150 l35 64 -25 82 c-109 344 -101 492 46 794 33 66 93 171 133 232 72 107 77 123 35 100 -27 -14 -54 -4 -67 27 -11 23 -8 28 36 69 26 24 96 84 156 134 82 68 113 88 122 80 8 -6 19 -7 28 -2 19 11 280 383 311 443 12 25 55 149 95 275 72 233 161 485 244 694 l45 115 -50 53 c-144 153 -150 385 -18 697 21 50 37 91 35 93 -2 2 -19 -20 -39 -49 -41 -59 -80 -150 -97 -224 -18 -78 -19 -78 -34 -65 -25 21 -50 132 -49 226 0 175 71 344 227 540 46 58 45 57 -31 -20 -43 -44 -93 -98 -110 -120 -17 -22 -35 -37 -39 -32 -13 13 14 126 46 195 44 94 132 175 350 322 262 175 361 253 471 367 185 193 361 502 477 838 31 91 74 238 69 240 -1 0 -28 9 -59 18 -32 10 -60 22 -63 27 -3 5 -21 4 -41 -1 -89 -25 -138 32 -137 161 1 112 58 286 102 309 39 21 119 31 172 21 49 -10 79 -2 79 19 0 4 -35 30 -77 56 -262 165 -394 258 -385 267 17 17 143 22 217 9 37 -7 97 -25 133 -42 36 -16 66 -29 67 -29 2 0 -12 28 -30 63 -39 74 -142 329 -151 375 -4 18 -2 32 3 32 5 0 33 -25 63 -56z m-2726 -484 l261 -325 65 3 c36 2 233 14 438 28 453 29 436 29 430 7 -3 -10 -126 -188 -274 -397 -148 -208 -268 -384 -266 -390 2 -6 71 -192 155 -413 83 -222 148 -405 145 -408 -3 -3 -194 51 -424 120 -347 105 -422 125 -438 115 -10 -7 -164 -128 -342 -271 -178 -142 -328 -259 -333 -259 -15 0 -20 98 -26 500 -5 268 -10 378 -18 386 -7 6 -173 116 -369 245 -197 129 -357 238 -355 243 2 5 186 72 410 150 223 78 411 146 416 151 5 6 60 192 121 415 128 467 117 433 131 428 6 -2 129 -150 273 -328z m6709 -3037 c-4 -87 -8 -178 -8 -202 l0 -44 150 -115 c83 -62 151 -120 153 -127 2 -9 -13 -18 -40 -25 -269 -72 -333 -92 -339 -102 -5 -7 -36 -93 -70 -191 -35 -97 -67 -176 -73 -174 -5 2 -56 75 -113 163 -68 105 -111 161 -126 166 -12 3 -102 6 -199 7 -107 1 -179 5 -183 11 -3 6 50 80 118 165 l125 154 -44 148 c-57 190 -68 233 -61 239 2 3 88 -27 191 -66 l186 -70 157 110 c87 60 164 109 171 110 11 0 12 -30 5 -157z m-6168 -331 c40 -95 76 -177 81 -182 5 -5 93 -27 194 -48 132 -27 186 -43 187 -53 1 -8 -63 -69 -142 -137 -121 -102 -145 -128 -145 -150 0 -15 9 -103 20 -197 11 -93 16 -173 12 -177 -4 -4 -81 38 -171 93 -90 54 -169 99 -177 99 -8 0 -89 -34 -181 -75 -149 -67 -193 -83 -193 -71 0 2 20 90 45 196 l45 192 -130 143 c-71 78 -130 148 -130 153 0 13 38 18 220 32 74 6 145 13 157 15 16 4 48 50 119 175 53 94 101 169 106 168 6 -2 43 -81 83 -176z m-898 -2121 c28 -68 54 -125 56 -127 2 -2 63 -16 135 -31 80 -16 132 -31 132 -38 0 -6 -45 -51 -100 -99 -71 -61 -100 -93 -100 -109 0 -24 18 -185 25 -229 3 -20 0 -28 -10 -28 -8 0 -65 31 -127 68 l-113 69 -119 -54 c-133 -60 -151 -64 -142 -30 3 12 17 73 32 134 l26 113 -34 39 c-18 22 -59 69 -91 105 -32 36 -56 69 -53 74 3 5 59 13 123 17 65 4 127 11 138 15 11 4 48 57 85 124 36 63 69 114 75 113 5 -2 33 -59 62 -126z m7257 -117 c-1 -16 -4 -106 -8 -199 l-8 -171 156 -119 c86 -65 155 -123 153 -129 -2 -6 -88 -33 -192 -61 l-188 -51 -66 -184 c-36 -101 -71 -185 -77 -187 -6 -2 -58 70 -117 161 l-107 164 -200 7 c-121 4 -200 11 -200 17 0 6 54 77 120 159 66 82 120 153 120 158 0 5 -24 91 -54 192 -30 100 -53 186 -50 190 2 4 85 -24 185 -62 99 -38 186 -69 192 -69 7 1 82 50 167 110 85 59 160 107 165 106 6 -2 10 -16 9 -32z"
       id="path4"
       style="fill:none" />
    <path
       d="M4730 9863 c0 -22 102 -260 148 -345 28 -51 65 -129 82 -173 31 -79 50 -112 50 -86 0 7 9 25 19 40 11 15 21 42 23 61 3 34 4 35 52 38 l48 3 -6 42 c-9 52 -50 144 -79 176 -12 13 -75 59 -140 103 -65 44 -136 95 -158 115 -21 19 -39 31 -39 26z"
       id="path6"
       style="fill:#9932cc" />
    <path
       d="M5725 9855 c-5 -2 -44 -11 -85 -20 -173 -39 -344 -149 -448 -289 -17 -22 -19 -33 -11 -47 14 -28 28 -24 65 20 47 55 167 144 249 184 249 123 495 128 720 15 88 -45 141 -83 222 -161 67 -64 72 -67 82 -49 17 33 14 40 -46 104 -155 162 -375 249 -625 247 -62 0 -117 -2 -123 -4z"
       id="path8"
       style="fill:#4169e1" />
    <path
       d="M5785 9769 c-94 -13 -244 -66 -333 -118 -72 -42 -194 -147 -214 -184 -9 -17 -1 -28 52 -82 l63 -63 71 53 c111 83 240 139 367 159 32 6 35 9 31 34 -2 18 2 33 13 42 15 13 20 10 47 -20 22 -26 25 -28 13 -8 -16 26 -16 29 2 60 25 43 54 47 82 12 11 -15 21 -33 21 -40 0 -8 8 -14 18 -14 25 0 42 -20 42 -50 0 -23 7 -28 88 -52 79 -24 153 -65 233 -127 l26 -20 37 52 c20 30 36 57 36 61 0 18 -71 92 -135 141 -170 129 -374 189 -560 164z"
       id="path10"
       style="fill:#0000cd" />
    <path
       d="M5922 9630 c-10 -16 -9 -23 5 -39 17 -20 17 -20 30 -1 10 15 11 25 3 40 -13 25 -22 25 -38 0z"
       id="path12"
       style="fill:#ff8c00" />
    <path
       d="M5850 9569 c0 -26 38 -67 69 -74 36 -8 95 16 111 44 12 24 -1 28 -20 6 -16 -19 -34 -19 -51 1 -11 14 -13 14 -21 0 -15 -26 -55 -19 -72 12 -10 17 -15 21 -16 11z"
       id="path14"
       style="fill:#ff8c00" />
    <path
       d="M5980 9569 c0 -5 5 -7 10 -4 6 3 10 8 10 11 0 2 -4 4 -10 4 -5 0 -10 -5 -10 -11z"
       id="path16"
       style="fill:none" />
    <path
       d="M6719 9514 c41 -53 49 -163 19 -283 -10 -41 -44 -82 -117 -143 -37 -31 -26 -41 39 -35 75 6 139 41 163 87 29 57 20 177 -22 265 -35 75 -76 135 -92 135 -6 0 -1 -12 10 -26z"
       id="path18"
       style="fill:#9400d3" />
    <path
       d="M4505 9522 c11 -12 272 -181 383 -249 40 -25 76 -42 79 -39 4 3 -9 45 -28 94 -31 78 -40 90 -82 119 -80 54 -151 76 -262 81 -69 3 -97 1 -90 -6z"
       id="path20"
       style="fill:#9932cc" />
    <path
       d="M5726 9494 c-32 -8 -95 -31 -140 -53 -83 -39 -206 -123 -206 -141 0 -5 9 -19 21 -31 l21 -21 26 36 c34 49 126 109 206 136 36 12 111 27 168 35 57 7 96 13 87 14 -9 0 -28 10 -42 21 -29 23 -59 24 -141 4z"
       id="path22"
       style="fill:#4169e1" />
    <path
       d="M6027 9494 c-3 -3 -23 -12 -44 -19 l-38 -13 40 -6 c131 -21 259 -80 338 -154 l29 -27 20 25 20 25 -43 37 c-60 52 -140 93 -229 117 -83 23 -84 23 -93 15z"
       id="path24"
       style="fill:#4169e1" />
    <path
       d="M6496 9432 c-20 -28 -36 -54 -36 -60 0 -5 11 -34 25 -65 22 -47 36 -100 61 -235 6 -31 19 -20 52 41 23 45 27 64 27 138 0 79 -3 92 -35 154 -19 38 -40 70 -46 72 -7 2 -28 -18 -48 -45z"
       id="path26"
       style="fill:#4169e1" />
    <path
       d="M5170 9450 c0 -39 14 -54 30 -35 11 14 10 19 -8 38 l-22 21 0 -24z"
       id="path28"
       style="fill:none" />
    <path
       d="M5744 9415 c-124 -22 -224 -77 -275 -152 -17 -24 -35 -43 -42 -43 -7 0 -44 31 -81 69 l-69 70 -15 -27 c-12 -24 -12 -33 3 -75 12 -33 16 -64 12 -97 l-6 -48 37 -7 c63 -11 82 -38 82 -114 -1 -115 -43 -248 -112 -352 l-40 -59 12 -68 c15 -86 43 -150 79 -182 26 -22 30 -34 36 -97 5 -51 4 -73 -4 -73 -6 0 -11 -17 -11 -37 0 -85 -37 -161 -93 -190 -35 -18 -146 -21 -187 -5 -18 8 -6 9 48 5 39 -3 72 -4 72 -1 0 3 -22 19 -49 35 -26 17 -63 51 -80 77 -34 49 -67 133 -57 143 3 4 6 1 6 -6 0 -20 49 -113 73 -140 28 -30 97 -81 110 -81 6 0 -6 12 -26 28 -107 79 -159 225 -170 474 -4 80 -16 118 -37 118 -21 0 -54 -189 -58 -331 -4 -130 -2 -151 15 -191 58 -129 184 -197 369 -199 131 -1 175 29 241 166 26 54 32 62 27 35 -3 -19 -17 -59 -30 -89 -13 -30 -22 -56 -20 -59 3 -2 19 6 37 18 43 32 69 92 69 165 0 89 -15 130 -69 186 -58 61 -52 63 14 6 28 -24 57 -46 66 -49 9 -4 27 -28 39 -54 29 -59 31 -144 5 -194 l-18 -35 26 24 c36 33 55 116 38 172 -14 47 -64 100 -143 153 -77 50 -186 169 -225 242 -41 78 -43 97 -3 26 29 -49 159 -197 167 -189 2 2 -8 33 -21 68 -45 121 -69 253 -68 389 0 114 21 273 38 289 4 3 4 -7 1 -24 -14 -71 -28 -214 -25 -260 l3 -50 45 74 c24 41 47 91 50 113 7 50 26 45 23 -7 l-2 -40 16 30 c28 50 43 135 44 245 l2 105 8 -95 c5 -52 13 -103 19 -112 5 -10 10 -32 10 -50 0 -18 5 -51 11 -72 9 -34 13 -37 21 -22 7 13 13 14 23 6 9 -8 17 -4 29 14 9 14 16 32 16 41 0 8 9 15 19 15 20 0 24 11 36 100 5 34 1 60 -14 100 -11 29 -19 55 -17 57 8 8 56 -102 72 -167 12 -45 24 -70 35 -73 9 -3 19 -19 23 -41 9 -46 22 -46 35 2 15 50 13 87 -4 152 -17 65 -18 67 -6 55 5 -6 16 -33 25 -61 12 -35 22 -51 33 -50 11 1 20 -15 31 -51 17 -61 42 -72 42 -19 0 50 -45 196 -86 279 -21 43 -27 62 -15 47 11 -14 34 -54 51 -90 17 -36 35 -72 41 -80 5 -8 22 -37 38 -65 48 -81 51 -83 35 -26 -34 119 32 54 85 -84 37 -97 35 -93 39 -57 4 37 18 42 32 10 8 -18 9 -12 5 25 -7 54 6 62 30 20 l16 -28 -5 39 c-3 21 -21 70 -40 108 -27 53 -30 66 -15 52 31 -28 85 -150 105 -236 14 -61 21 -75 31 -66 10 8 13 6 13 -10 0 -12 4 -23 9 -26 14 -9 23 47 15 88 -7 41 10 50 26 14 8 -19 9 -16 4 12 -7 40 -43 129 -75 186 l-21 39 21 -25 c26 -30 67 -107 88 -164 8 -23 19 -95 24 -161 4 -66 17 -156 28 -200 11 -44 18 -81 16 -83 -8 -8 -44 130 -56 209 -15 106 -22 121 -39 80 -7 -18 -22 -37 -33 -42 -43 -24 2 -191 103 -384 99 -188 120 -276 84 -351 -18 -37 -40 -53 -89 -65 -29 -7 -29 -7 9 -8 74 -2 131 57 143 149 7 50 -20 151 -62 235 -23 44 -28 61 -15 45 32 -38 69 -114 85 -173 7 -28 14 -43 15 -32 l1 20 9 -20 c5 -11 9 -33 10 -50 l1 -30 20 37 c10 21 26 61 34 90 9 34 14 44 14 27 1 -40 -26 -121 -54 -159 -47 -63 -24 -83 30 -26 89 95 67 229 -73 431 -57 84 -152 234 -152 241 0 11 24 2 36 -13 12 -16 13 -14 8 17 -30 184 -53 262 -114 377 -53 102 -67 120 -81 106 -8 -8 -7 -17 5 -34 19 -27 21 -52 3 -29 -24 31 -183 142 -242 170 -33 15 -84 33 -113 39 -69 14 -208 13 -298 -4z m-277 -267 c-3 -8 -6 -5 -6 6 -1 11 2 17 5 13 3 -3 4 -12 1 -19z"
       id="path30"
       style="fill:#8b008b" />
    <path
       d="M5210 9385 c-11 -13 -8 -15 20 -15 28 0 31 2 20 15 -7 8 -16 15 -20 15 -4 0 -13 -7 -20 -15z"
       id="path32"
       style="fill:none" />
    <path
       d="M5080 9341 c0 -16 -7 -35 -17 -42 -9 -8 -22 -29 -30 -47 -13 -31 -12 -35 4 -47 20 -15 33 -11 33 10 0 8 13 30 30 48 26 30 28 36 15 47 -8 7 -15 23 -15 36 0 13 -4 24 -10 24 -5 0 -10 -13 -10 -29z"
       id="path34"
       style="fill:#8a2be2" />
    <path
       d="M5131 9344 c0 -11 3 -14 6 -6 3 7 2 16 -1 19 -3 4 -6 -2 -5 -13z"
       id="path36"
       style="fill:none" />
    <path
       d="M5208 9340 c-9 -6 -26 -26 -38 -45 -12 -19 -28 -35 -35 -35 -30 0 -59 -87 -43 -130 8 -25 15 -30 43 -30 70 0 97 11 111 47 15 35 12 57 -17 131 -11 26 -11 36 -1 52 13 22 7 25 -20 10z"
       id="path38"
       style="fill:#8a2be2" />
    <path
       d="M6424 9326 c-6 -16 12 -56 25 -56 17 0 19 14 5 41 -16 33 -22 35 -30 15z"
       id="path40"
       style="fill:#0000cd" />
    <path
       d="M6474 9221 c9 -17 18 -31 20 -31 10 0 -12 54 -23 58 -9 3 -8 -4 3 -27z"
       id="path42"
       style="fill:none" />
    <path
       d="M6656 9211 c-2 -9 -7 -29 -11 -46 l-7 -30 31 29 c36 34 39 52 11 59 -12 3 -21 -1 -24 -12z"
       id="path44"
       style="fill:#da70d6" />
    <path
       d="M4974 9183 c-3 -10 -11 -28 -17 -40 -6 -13 -8 -24 -6 -26 22 -15 79 -32 97 -29 27 4 29 28 5 62 -34 50 -69 64 -79 33z"
       id="path46"
       style="fill:#4169e1" />
    <path
       d="M4920 9180 c0 -8 -3 -26 -6 -40 -5 -24 -4 -24 11 4 12 20 14 31 6 39 -8 8 -11 7 -11 -3z"
       id="path48"
       style="fill:none" />
    <path
       d="M4792 9150 c21 -28 68 -43 68 -21 0 15 -51 51 -72 51 -18 0 -17 -2 4 -30z"
       id="path50"
       style="fill:#9932cc" />
    <path
       d="M4680 9160 c-8 -5 -12 -10 -10 -12 3 -2 22 -17 43 -32 35 -25 41 -27 63 -16 31 17 30 24 -5 49 -31 22 -67 27 -91 11z"
       id="path52"
       style="fill:#9932cc" />
    <path
       d="M4881 9144 c0 -11 3 -14 6 -6 3 7 2 16 -1 19 -3 4 -6 -2 -5 -13z"
       id="path54"
       style="fill:none" />
    <path
       d="M4635 9094 c-20 -48 -20 -50 15 -64 16 -7 35 -18 41 -26 18 -22 25 -17 39 26 15 45 7 61 -41 86 -37 19 -37 19 -54 -22z"
       id="path56"
       style="fill:#9932cc" />
    <path
       d="M5821 9094 c-1 -11 -8 -44 -16 -73 -12 -37 -20 -51 -32 -49 -9 2 -18 -3 -20 -10 -4 -9 2 -11 19 -7 29 7 100 -15 106 -34 4 -11 0 -12 -14 -6 -54 22 -142 16 -261 -21 -10 -3 -4 2 12 12 17 9 31 18 33 19 7 6 -11 54 -19 49 -5 -3 -9 3 -9 13 0 10 -14 -6 -30 -36 -34 -61 -58 -91 -74 -92 -6 0 -26 -23 -45 -51 -28 -44 -33 -57 -28 -95 6 -54 14 -64 33 -39 18 26 18 34 -3 39 -14 4 -13 5 4 6 12 0 37 14 55 29 40 35 87 52 141 52 47 0 118 -20 112 -31 -3 -4 3 -10 14 -14 19 -6 30 -32 37 -89 3 -24 2 -26 -11 -16 -8 6 -19 9 -25 5 -5 -3 -10 -1 -10 6 0 15 -49 69 -62 69 -5 0 -1 -14 8 -32 11 -22 15 -48 12 -90 -5 -67 -27 -103 -80 -132 -32 -18 -40 -19 -79 -7 -49 15 -98 62 -106 103 -3 16 -9 31 -13 33 -5 3 -2 -16 5 -42 36 -132 83 -224 129 -253 90 -55 155 -165 140 -237 -5 -28 -3 -31 66 -62 45 -21 79 -31 93 -27 12 3 83 48 157 99 161 111 182 139 205 268 8 48 28 116 44 153 17 36 26 66 21 66 -5 0 -12 -5 -16 -11 -4 -7 -11 1 -18 21 -6 18 -21 39 -33 47 -22 15 -22 14 -12 -23 27 -94 -47 -239 -111 -219 -34 11 -60 63 -60 120 1 103 61 176 145 174 35 0 96 -16 71 -18 -5 -1 -2 -9 6 -18 9 -10 18 -27 19 -37 13 -66 52 15 64 132 9 78 -10 152 -35 145 -12 -3 -19 3 -23 19 -6 22 -7 22 -22 3 -14 -19 -16 -19 -26 -2 -8 13 -14 15 -28 7 -24 -12 -32 -2 -56 75 l-18 60 -11 -43 c-6 -24 -15 -44 -20 -45 -5 -1 -20 29 -33 68 -28 82 -44 104 -32 43 4 -24 8 -60 9 -80 0 -36 -1 -36 -35 -34 -20 2 -38 -1 -41 -6 -8 -13 -24 1 -35 30 l-11 27 -19 -37 c-23 -44 -35 -47 -50 -14 -7 14 -17 22 -25 19 -12 -4 -17 7 -43 107 -6 21 -10 27 -10 14z m456 -235 c30 -11 93 -67 93 -82 0 -5 -16 5 -35 21 -34 31 -89 52 -132 52 -13 0 -23 5 -23 10 0 13 61 13 97 -1z m-512 -30 c40 -10 74 -33 64 -44 -2 -2 -31 6 -64 17 -43 14 -73 18 -105 14 -46 -6 -46 8 0 17 45 8 60 7 105 -4z m519 -108 c6 -9 -84 -24 -93 -15 -10 9 23 24 56 24 17 0 34 -4 37 -9z m-259 -381 c0 -7 -6 -15 -12 -17 -8 -3 -13 4 -13 17 0 13 5 20 13 18 6 -3 12 -11 12 -18z m-190 -100 c44 -22 124 -27 143 -8 14 14 27 4 19 -16 -8 -19 -59 -29 -111 -22 -45 7 -106 39 -106 56 0 14 11 13 55 -10z"
       id="path58"
       style="fill:#fff5ee" />
    <path
       d="M4803 9088 c-51 -25 -80 -146 -67 -277 7 -65 28 -101 59 -101 12 0 15 13 15 63 -1 34 6 87 14 117 l15 55 -4 -45 c-12 -119 -9 -200 5 -200 6 0 10 12 10 27 0 46 51 225 83 291 16 34 28 64 26 66 -2 2 -25 6 -51 9 l-48 7 -16 -56 c-9 -31 -25 -95 -35 -143 -17 -80 -18 -82 -13 -26 3 33 14 95 25 139 10 43 19 80 19 82 0 6 -14 3 -37 -8z"
       id="path60"
       style="fill:#9400d3" />
    <path
       d="M5123 9071 c-129 -17 -163 -29 -163 -57 0 -10 14 -14 43 -15 l42 -1 -55 -13 c-36 -8 -46 -14 -30 -15 l25 -2 -27 -11 c-34 -13 -45 -37 -17 -37 29 0 171 -49 187 -64 7 -7 -17 -3 -57 11 -39 13 -90 26 -113 29 l-43 6 -18 -65 c-30 -113 -27 -124 56 -204 94 -91 162 -126 182 -93 10 17 -38 90 -126 191 -45 52 -69 82 -53 68 16 -14 52 -42 80 -62 51 -37 121 -106 143 -143 11 -18 13 -17 45 19 18 20 48 64 65 96 l31 59 -41 36 c-23 19 -73 47 -110 62 -38 15 -67 29 -65 32 10 9 114 -29 168 -62 l57 -34 11 34 c7 22 8 39 2 51 -12 22 -129 93 -154 93 -9 0 -20 5 -23 10 -4 7 2 9 17 6 12 -3 45 -8 73 -11 27 -4 62 -13 77 -21 15 -8 29 -14 33 -14 9 0 5 81 -5 100 -9 17 -69 41 -95 39 -5 -1 -69 -9 -142 -18z"
       id="path62"
       style="fill:#9400d3" />
    <path
       d="M4610 9020 c0 -6 7 -10 15 -10 8 0 15 2 15 4 0 2 -7 6 -15 10 -8 3 -15 1 -15 -4z"
       id="path64"
       style="fill:none" />
    <path
       d="M6575 9020 c-4 -6 -1 -35 6 -65 10 -46 16 -55 33 -55 31 0 94 34 117 64 11 14 27 26 35 26 8 0 13 4 9 9 -3 5 -36 12 -73 16 -37 3 -79 8 -94 10 -15 2 -30 0 -33 -5z"
       id="path66"
       style="fill:#9400d3" />
    <path
       d="M4597 8983 c-22 -79 -23 -77 46 -87 32 -4 39 -2 46 17 22 59 22 66 0 77 -17 9 -20 9 -14 0 5 -9 1 -10 -16 -5 -13 3 -32 9 -41 11 -10 3 -18 -2 -21 -13z"
       id="path68"
       style="fill:#9932cc" />
    <path
       d="M5321 8937 c2 -1 13 -9 24 -17 19 -14 19 -14 6 3 -7 9 -18 17 -24 17 -6 0 -8 -1 -6 -3z"
       id="path70"
       style="fill:none" />
    <path
       d="M4711 8893 c-13 -46 -14 -103 -2 -122 6 -10 11 15 13 70 2 46 2 86 1 87 -1 2 -6 -13 -12 -35z"
       id="path72"
       style="fill:#9400d3" />
    <path
       d="M6695 8899 c-16 -10 -45 -19 -62 -19 -28 0 -33 -4 -33 -25 0 -22 3 -24 33 -20 l32 5 -28 -11 c-28 -11 -29 -13 -22 -58 4 -25 9 -50 12 -55 9 -14 104 2 125 21 16 14 19 27 15 61 -6 53 -7 54 -60 63 l-42 6 44 2 c35 1 42 4 37 17 -3 9 -6 20 -6 25 0 13 -11 10 -45 -12z"
       id="path74"
       style="fill:#da70d6" />
    <path
       d="M4585 8879 c-5 -7 5 -8 32 -4 l38 7 -35 -19 c-31 -16 -35 -22 -32 -53 5 -55 27 -80 68 -80 33 0 36 2 28 23 -4 12 -8 45 -8 72 0 28 -5 53 -11 57 -15 12 -73 9 -80 -3z"
       id="path76"
       style="fill:#9932cc" />
    <path
       d="M5587 8736 c-20 -8 -44 -19 -52 -26 -14 -11 -12 -15 15 -31 16 -10 30 -26 30 -35 0 -13 3 -14 14 -5 30 25 65 -14 45 -50 -13 -25 -40 -21 -54 8 -8 16 -15 19 -28 12 -11 -7 -24 -6 -38 1 -19 11 -20 10 -14 -12 32 -103 107 -139 173 -83 58 48 60 172 4 215 -29 23 -43 24 -95 6z"
       id="path78"
       style="fill:#191970" />
    <path
       d="M5097 8655 c18 -22 39 -53 47 -70 9 -16 16 -23 16 -14 0 18 -47 86 -75 109 -11 8 -5 -3 12 -25z"
       id="path80"
       style="fill:none" />
    <path
       d="M5522 8648 c6 -18 28 -21 28 -4 0 9 -7 16 -16 16 -9 0 -14 -5 -12 -12z"
       id="path82"
       style="fill:none" />
    <path
       d="M4841 8513 c-133 -422 -305 -737 -525 -958 -121 -121 -182 -169 -414 -324 -296 -198 -379 -283 -422 -432 -6 -19 29 10 119 100 121 122 258 228 274 212 4 -4 -41 -57 -101 -117 -204 -205 -324 -405 -347 -581 l-6 -48 35 70 c66 133 194 269 376 402 56 40 122 78 90 51 -9 -7 -45 -35 -80 -63 -180 -137 -298 -267 -357 -391 -42 -87 -60 -179 -46 -226 9 -29 11 -30 17 -13 41 115 64 164 106 224 50 71 112 127 128 117 5 -3 -13 -48 -39 -99 -56 -108 -113 -272 -128 -367 -11 -67 -15 -187 -6 -178 3 2 12 43 20 89 26 152 94 302 224 495 102 153 224 304 345 430 95 98 95 97 -39 -60 -362 -427 -528 -747 -512 -988 6 -90 41 -177 81 -204 15 -9 28 -15 29 -13 2 2 8 17 15 32 11 26 10 32 -19 65 -40 46 -68 109 -75 170 -6 47 -5 48 101 197 141 199 141 199 213 201 91 1 112 12 182 87 75 81 159 139 224 156 48 12 54 21 59 85 2 26 -6 34 -111 96 -63 38 -116 71 -119 74 -10 10 18 70 57 122 36 48 139 144 200 187 l24 17 -26 27 c-50 54 -78 105 -78 144 0 35 8 46 115 151 64 62 129 117 146 123 20 6 31 18 35 35 3 14 17 62 31 108 20 64 33 89 61 113 43 38 113 72 198 95 l63 17 -25 33 c-36 47 -65 127 -78 217 l-11 78 -44 -113 c-80 -208 -229 -474 -331 -588 -17 -19 6 21 51 90 159 244 308 591 329 770 7 50 20 120 29 156 33 117 6 66 -38 -73z"
       id="path84"
       style="fill:#8b008b" />
    <path
       d="M6394 8636 c-10 -27 23 -123 54 -155 15 -15 21 -20 15 -11 -7 9 -13 23 -13 31 -1 8 -12 45 -25 84 -18 52 -26 65 -31 51z"
       id="path86"
       style="fill:#ba55d3" />
    <path
       d="M6156 8627 c-18 -13 -18 -15 -1 -40 9 -15 21 -27 26 -27 13 0 11 -48 -2 -56 -6 -3 -16 -1 -22 5 -6 6 -22 11 -35 11 -21 0 -23 -3 -17 -32 10 -46 33 -80 53 -76 25 5 60 64 68 114 13 87 -22 136 -70 101z"
       id="path88"
       style="fill:#191970" />
    <path
       d="M4902 8568 c-25 -112 -43 -312 -28 -297 3 3 10 45 16 94 6 50 20 123 31 163 10 40 17 78 14 83 -13 20 -22 7 -33 -43z"
       id="path90"
       style="fill:#8a2be2" />
    <path
       d="M6120 8559 c0 -5 5 -7 10 -4 6 3 10 8 10 11 0 2 -4 4 -10 4 -5 0 -10 -5 -10 -11z"
       id="path92"
       style="fill:none" />
    <path
       d="M5188 8539 c-27 -20 -27 -22 -13 -50 15 -27 39 -38 48 -21 3 4 2 26 -2 49 l-6 42 -27 -20z"
       id="path94"
       style="fill:#8a2be2" />
    <path
       d="M6333 8487 c-17 -39 -35 -95 -41 -124 l-9 -51 51 5 c50 4 52 4 103 -46 48 -47 83 -64 83 -42 0 5 -11 48 -25 96 -18 62 -36 99 -60 128 -19 22 -40 56 -47 74 -7 18 -15 33 -18 33 -3 0 -20 -33 -37 -73z"
       id="path96"
       style="fill:#ba55d3" />
    <path
       d="M5021 8472 c1 -66 17 -121 18 -62 1 19 4 51 7 71 5 28 2 37 -10 42 -14 5 -16 -2 -15 -51z"
       id="path98"
       style="fill:#8a2be2" />
    <path
       d="M5125 8500 c-7 -12 12 -45 59 -102 22 -27 39 -38 59 -38 25 0 27 2 17 20 -6 11 -26 26 -44 34 -36 15 -66 50 -66 78 0 20 -15 24 -25 8z"
       id="path100"
       style="fill:#8a2be2" />
    <path
       d="M5065 8422 c-3 -16 -6 -75 -7 -131 0 -90 2 -107 26 -153 14 -29 37 -66 51 -83 23 -28 25 -29 25 -8 0 32 -31 237 -37 243 -2 3 -2 -36 1 -85 8 -124 0 -97 -24 85 -12 85 -23 156 -25 158 -2 2 -6 -10 -10 -26z"
       id="path102"
       style="fill:#8a2be2" />
    <path
       d="M5134 8384 c3 -9 6 -20 6 -25 0 -5 9 -9 20 -9 25 0 26 12 2 33 -23 21 -36 22 -28 1z"
       id="path104"
       style="fill:none" />
    <path
       d="M6521 8333 c22 -78 26 -84 34 -50 4 16 -1 39 -14 65 -32 63 -40 58 -20 -15z"
       id="path106"
       style="fill:#ba55d3" />
    <path
       d="M5201 8331 c-20 -6 -22 -8 -9 -19 11 -8 27 -10 54 -4 l39 8 -30 10 c-16 6 -41 8 -54 5z"
       id="path108"
       style="fill:none" />
    <path
       d="M5160 8277 c0 -31 13 -77 22 -77 14 0 5 83 -9 88 -7 2 -13 -3 -13 -11z"
       id="path110"
       style="fill:none" />
    <path
       d="M5248 8283 c-26 -4 -28 -8 -28 -54 l0 -49 44 0 c64 0 76 7 76 45 0 65 -9 70 -92 58z"
       id="path112"
       style="fill:#8a2be2" />
    <path
       d="M6287 8260 c-15 -24 -15 -30 -4 -30 13 0 36 21 51 48 5 8 1 12 -11 12 -10 0 -27 -13 -36 -30z"
       id="path114"
       style="fill:#ba55d3" />
    <path
       d="M6350 8249 l-22 -30 23 -25 c30 -32 41 -30 69 8 l23 31 -29 24 c-16 12 -32 23 -36 23 -4 0 -16 -14 -28 -31z"
       id="path116"
       style="fill:#ba55d3" />
    <path
       d="M6565 8248 c-10 -38 -67 -86 -112 -94 -21 -4 -44 -12 -52 -18 -7 -6 -28 -10 -45 -9 -59 4 83 -56 150 -63 80 -9 94 5 94 89 -1 34 -7 76 -14 92 l-13 30 -8 -27z"
       id="path118"
       style="fill:#ba55d3" />
    <path
       d="M4881 8214 c0 -11 3 -14 6 -6 3 7 2 16 -1 19 -3 4 -6 -2 -5 -13z"
       id="path120"
       style="fill:none" />
    <path
       d="M6240 8196 c0 -2 8 -10 18 -17 15 -13 16 -12 3 4 -13 16 -21 21 -21 13z"
       id="path122"
       style="fill:none" />
    <path
       d="M6305 8180 c10 -11 23 -20 28 -20 6 0 2 9 -8 20 -10 11 -23 20 -28 20 -6 0 -2 -9 8 -20z"
       id="path124"
       style="fill:none" />
    <path
       d="M6445 8190 c-3 -5 3 -10 14 -10 11 0 23 5 26 10 3 6 -3 10 -14 10 -11 0 -23 -4 -26 -10z"
       id="path126"
       style="fill:none" />
    <path
       d="M6220 8162 c0 -5 19 -19 43 -31 l42 -24 -35 31 c-36 32 -50 38 -50 24z"
       id="path128"
       style="fill:none" />
    <path
       d="M5178 8125 c5 -43 12 -44 35 -6 16 28 16 29 -6 35 -33 9 -33 9 -29 -29z"
       id="path130"
       style="fill:#8a2be2" />
    <path
       d="M5244 8121 c-30 -46 -28 -70 11 -116 24 -29 25 -29 40 -11 16 21 38 117 33 144 -2 10 -14 18 -30 20 -22 3 -32 -4 -54 -37z"
       id="path132"
       style="fill:#8a2be2" />
    <path
       d="M5641 8094 c-1 -23 -8 -61 -16 -84 -18 -51 -14 -61 10 -24 22 34 30 92 16 124 -9 23 -10 22 -10 -16z"
       id="path134"
       style="fill:#4b0082" />
    <path
       d="M6079 8065 c-35 -23 -36 -26 -43 -103 -11 -128 -26 -155 -22 -39 2 53 0 97 -3 97 -3 0 -24 -14 -45 -30 -40 -30 -110 -41 -131 -21 -6 5 -31 18 -58 29 l-47 21 -15 -30 c-14 -26 -14 -31 -1 -44 8 -8 16 -20 18 -26 2 -6 38 -15 80 -19 87 -10 109 -19 156 -64 39 -36 57 -94 72 -220 7 -64 16 -98 32 -122 13 -19 26 -34 29 -34 3 0 2 28 -3 63 -11 75 -3 286 17 439 8 61 15 115 15 120 0 13 -12 9 -51 -17z"
       id="path136"
       style="fill:#4b0082" />
    <path
       d="M6420 8056 c0 -2 8 -10 18 -17 15 -13 16 -12 3 4 -13 16 -21 21 -21 13z"
       id="path138"
       style="fill:none" />
    <path
       d="M5190 8022 c0 -12 7 -25 15 -29 25 -9 27 2 6 28 l-20 24 -1 -23z"
       id="path140"
       style="fill:none" />
    <path
       d="M5565 7924 c-16 -13 -50 -31 -75 -39 -25 -9 -53 -22 -63 -29 -17 -13 -16 -15 16 -35 45 -27 113 -51 147 -51 23 0 29 5 34 31 3 17 6 45 6 62 0 29 -1 30 -14 11 -19 -26 -32 -10 -18 22 7 14 9 31 5 39 -6 10 -14 8 -38 -11z"
       id="path142"
       style="fill:#9370db" />
    <path
       d="M5657 7868 c-7 -96 -22 -128 -59 -128 -41 0 -129 33 -180 68 -30 20 -49 27 -63 22 -16 -6 -5 -14 55 -43 42 -20 108 -44 149 -54 87 -21 87 -20 121 83 24 71 23 117 -1 122 -13 2 -17 -10 -22 -70z"
       id="path144"
       style="fill:#9370db" />
    <path
       d="M4890 7896 c-96 -29 -151 -57 -183 -96 -27 -31 -77 -173 -77 -213 1 -36 114 -109 205 -133 59 -16 163 -18 199 -4 25 9 25 10 11 44 -18 44 -18 46 -1 46 8 0 20 -17 27 -37 6 -21 25 -57 40 -80 16 -23 29 -44 29 -46 0 -3 7 -21 16 -42 l15 -37 35 48 c42 60 44 46 4 -38 -16 -34 -30 -80 -30 -100 0 -20 -5 -59 -11 -87 -11 -52 -2 -110 23 -144 12 -16 15 -16 54 3 56 28 110 36 130 19 8 -7 27 -36 41 -63 14 -28 27 -52 28 -54 2 -2 20 6 41 17 55 30 90 27 124 -9 15 -16 33 -43 40 -60 14 -35 16 -35 63 -15 54 22 73 19 112 -20 30 -31 37 -34 54 -23 69 43 83 177 36 328 -15 47 -34 98 -42 113 -8 16 -12 31 -9 35 9 8 72 -136 91 -207 10 -39 15 -91 13 -132 l-3 -67 32 13 c30 13 32 12 62 -23 l31 -37 33 37 c32 35 34 36 51 20 16 -16 19 -15 42 13 14 17 43 64 65 105 47 87 47 118 0 216 -32 67 -76 125 -179 236 -39 42 -85 105 -102 138 -31 61 -33 94 -3 55 14 -18 15 -15 10 45 -3 36 -13 81 -21 101 -21 51 -76 96 -125 103 -23 3 -59 9 -81 12 -22 3 -42 6 -46 7 -3 1 -16 -31 -29 -72 -22 -70 -23 -75 -7 -87 9 -8 26 -14 37 -14 32 0 90 -45 123 -95 53 -79 62 -175 26 -247 -8 -15 -14 -36 -14 -48 0 -20 -32 -60 -49 -60 -5 0 -16 7 -25 15 -8 8 -23 15 -33 15 -56 0 -123 32 -162 76 -65 74 -76 197 -26 295 9 17 15 32 13 33 -2 1 -42 15 -90 30 -48 15 -115 45 -151 65 -46 27 -80 40 -123 44 -70 7 -163 38 -203 67 -35 24 -38 24 -131 -4z"
       id="path146"
       style="fill:#8b0000" />
    <path
       d="M8641 7844 c-145 -52 -241 -184 -241 -328 0 -49 16 -126 26 -126 2 0 29 16 59 36 32 22 61 34 70 30 13 -5 15 -2 8 17 -39 107 55 188 127 109 76 -83 130 -38 121 101 -4 56 21 47 57 -20 74 -141 59 -254 -41 -302 -74 -36 -153 -24 -214 31 -20 19 -21 19 -17 2 4 -15 -8 -27 -51 -53 -68 -41 -72 -47 -48 -73 29 -33 92 -60 173 -76 95 -18 126 -17 192 8 117 45 187 121 214 234 15 57 15 77 5 133 -33 177 -149 282 -321 290 -51 2 -89 -2 -119 -13z"
       id="path148"
       style="fill:#ff0000" />
    <path
       d="M8290 7755 c0 -2 18 -14 39 -25 22 -11 47 -30 55 -42 21 -30 21 -14 0 18 -22 32 -94 70 -94 49z"
       id="path150"
       style="fill:none" />
    <path
       d="M8250 7704 c0 -11 13 -27 30 -36 16 -9 32 -29 36 -44 9 -34 -2 -43 -221 -200 -88 -63 -175 -130 -192 -149 -30 -31 -33 -41 -33 -96 0 -52 2 -60 16 -55 9 3 18 6 20 6 2 0 4 24 4 54 0 65 -10 56 258 246 175 124 195 143 207 191 9 38 -37 88 -87 96 -33 5 -38 3 -38 -13z"
       id="path152"
       style="fill:#4169e1" />
    <path
       d="M5671 7705 c1 -22 16 -48 22 -38 3 5 0 19 -8 29 -8 10 -14 15 -14 9z"
       id="path154"
       style="fill:none" />
    <path
       d="M5616 7671 c-40 -44 -57 -162 -33 -229 16 -42 63 -91 105 -109 45 -19 157 -16 141 4 -7 7 -31 13 -58 13 -83 0 -139 53 -160 151 -12 55 -2 101 31 136 19 21 20 25 7 39 -14 13 -17 13 -33 -5z"
       id="path156"
       style="fill:#9370db" />
    <path
       d="M5720 7684 c0 -2 27 -31 59 -62 64 -63 88 -119 77 -177 -3 -16 -9 -43 -12 -60 -6 -28 -5 -29 11 -13 46 43 24 181 -40 256 -29 33 -95 73 -95 56z"
       id="path158"
       style="fill:#483d8b" />
    <path
       d="M8841 7617 c-3 -110 -83 -139 -167 -61 -43 39 -54 41 -77 16 -24 -26 -21 -83 6 -123 36 -53 82 -79 141 -79 127 0 179 108 117 243 l-19 42 -1 -38z"
       id="path160"
       style="fill:#ffff00" />
    <path
       d="M5680 7627 c-52 -26 -64 -93 -29 -164 29 -59 62 -83 116 -83 38 0 45 3 53 26 13 34 13 100 -1 127 -15 29 -90 107 -104 107 -5 0 -21 -6 -35 -13z"
       id="path162"
       style="fill:#ffa500" />
    <path
       d="M4567 7543 c-14 -13 -6 -23 36 -48 77 -45 110 -21 39 29 -38 26 -62 32 -75 19z"
       id="path164"
       style="fill:#800080" />
    <path
       d="M4429 7417 c-52 -53 -95 -98 -96 -100 -11 -14 27 -87 69 -132 28 -31 47 -59 42 -64 -5 -4 -38 -30 -74 -58 -71 -56 -166 -150 -159 -157 2 -2 24 0 49 4 71 14 212 11 266 -5 110 -32 362 -178 457 -264 l40 -36 -7 65 c-13 129 -34 201 -75 259 -42 61 -71 114 -71 131 0 22 21 8 39 -27 36 -67 33 -66 87 -48 123 41 161 103 151 244 -5 85 -32 155 -57 148 -8 -3 -24 -8 -35 -12 -15 -5 -13 -1 7 15 38 29 27 52 -21 45 -96 -16 -93 -14 -89 -48 3 -36 5 -36 -91 -12 -61 15 -166 63 -157 72 2 3 21 -4 43 -15 37 -20 86 -34 151 -46 27 -5 32 -3 32 14 0 11 -3 20 -7 20 -33 1 -149 33 -183 50 -40 20 -43 21 -61 4 -18 -16 -22 -16 -87 17 l-69 34 -94 -98z m175 -217 c106 -41 175 -89 201 -139 23 -45 8 -53 -96 -52 -91 1 -199 14 -219 26 -20 12 -9 24 28 30 61 11 69 14 52 25 -9 6 -10 10 -3 10 18 0 24 -16 10 -27 -6 -6 -25 -14 -42 -18 l-30 -8 35 -8 c66 -14 227 -22 246 -11 17 9 14 15 -31 59 -39 38 -73 59 -153 92 -56 24 -105 47 -108 52 -8 14 1 11 110 -31z"
       id="path166"
       style="fill:#8b0000" />
    <path
       d="M8150 7384 c-96 -69 -184 -132 -194 -140 -11 -7 -18 -16 -15 -18 4 -4 357 248 381 272 27 27 -5 5 -172 -114z"
       id="path168"
       style="fill:#0000cd" />
    <path
       d="M8202 7377 c-89 -66 -161 -122 -159 -124 6 -6 110 33 165 62 50 26 53 26 77 11 24 -16 27 -16 71 15 33 22 44 36 39 47 -3 10 -11 38 -16 64 -6 27 -11 48 -12 47 -1 0 -75 -55 -165 -122z"
       id="path170"
       style="fill:#0000cd" />
    <path
       d="M8424 7354 c-60 -41 -188 -120 -284 -175 -97 -56 -186 -108 -198 -117 -20 -16 -21 -18 -4 -40 l18 -23 204 129 c394 247 412 259 400 282 -6 11 -14 20 -19 20 -4 0 -57 -34 -117 -76z"
       id="path172"
       style="fill:#000080" />
    <path
       d="M8220 7290 c-19 -11 -64 -29 -100 -41 -82 -27 -96 -39 -80 -68 11 -22 12 -22 88 20 116 64 153 89 147 99 -8 13 -14 12 -55 -10z"
       id="path174"
       style="fill:#0000cd" />
    <path
       d="M8403 7252 c-29 -18 -43 -34 -43 -49 0 -14 -15 -32 -42 -52 -45 -31 -158 -141 -145 -141 5 0 61 29 125 65 98 54 181 91 251 111 9 3 -4 16 -33 34 -26 17 -49 37 -52 45 -8 19 -11 19 -61 -13z"
       id="path176"
       style="fill:#0000cd" />
    <path
       d="M7982 7218 c-13 -13 -16 -48 -4 -48 16 0 28 16 28 38 0 25 -6 28 -24 10z"
       id="path178"
       style="fill:none" />
    <path
       d="M8229 7140 c-91 -59 -112 -81 -89 -95 6 -4 36 17 68 47 31 29 73 66 92 81 57 44 30 31 -71 -33z"
       id="path180"
       style="fill:#0000cd" />
    <path
       d="M8593 7163 c9 -2 23 -2 30 0 6 3 -1 5 -18 5 -16 0 -22 -2 -12 -5z"
       id="path182"
       style="fill:none" />
    <path
       d="M8668 7163 c7 -3 16 -2 19 1 4 3 -2 6 -13 5 -11 0 -14 -3 -6 -6z"
       id="path184"
       style="fill:none" />
    <path
       d="M7996 7145 c-21 -16 -84 -40 -128 -49 -23 -5 -28 -12 -28 -38 0 -36 28 -98 64 -143 l24 -30 49 46 c27 25 68 59 91 74 41 27 53 45 30 45 -6 0 -40 -18 -74 -41 -71 -46 -91 -44 -120 12 -19 37 -14 43 65 89 33 19 61 38 61 43 0 11 -13 8 -34 -8z"
       id="path186"
       style="fill:#4169e1" />
    <path
       d="M8548 7153 c7 -3 16 -2 19 1 4 3 -2 6 -13 5 -11 0 -14 -3 -6 -6z"
       id="path188"
       style="fill:none" />
    <path
       d="M8729 7135 c16 -14 32 -36 34 -48 4 -22 4 -22 6 1 1 23 -39 72 -59 72 -6 0 2 -11 19 -25z"
       id="path190"
       style="fill:none" />
    <path
       d="M8490 7140 c-18 -12 -2 -12 25 0 13 6 15 9 5 9 -8 0 -22 -4 -30 -9z"
       id="path192"
       style="fill:none" />
    <path
       d="M8585 7130 c-62 -13 -126 -41 -314 -139 l-173 -91 -30 25 c-29 24 -32 25 -49 9 -15 -13 -16 -20 -7 -31 17 -21 64 -43 92 -43 13 0 128 52 256 115 275 137 312 144 322 60 2 -24 8 -30 28 -30 52 0 33 105 -22 124 -35 12 -46 12 -103 1z"
       id="path194"
       style="fill:#4169e1" />
    <path
       d="M8434 7115 c-10 -8 -14 -14 -9 -14 6 0 19 6 29 14 11 8 15 15 10 15 -6 0 -19 -7 -30 -15z"
       id="path196"
       style="fill:none" />
    <path
       d="M7604 7087 c-7 -20 40 -152 78 -214 32 -53 149 -173 168 -173 17 0 37 44 39 83 1 31 -5 46 -34 79 -41 49 -85 133 -85 164 0 40 -152 96 -166 61z m226 -255 c59 -73 52 -82 -12 -14 -50 54 -112 151 -132 210 -27 74 -3 53 46 -40 26 -52 70 -122 98 -156z"
       id="path198"
       style="fill:#4169e1" />
    <path
       d="M8338 7066 c-84 -46 -84 -54 0 -12 39 20 72 38 72 41 0 9 -14 3 -72 -29z"
       id="path200"
       style="fill:none" />
    <path
       d="M7794 7039 c4 -22 15 -58 26 -80 26 -50 79 -111 91 -103 6 3 -6 23 -25 44 -44 49 -64 87 -72 139 -4 23 -11 41 -17 41 -6 0 -7 -16 -3 -41z"
       id="path202"
       style="fill:#4169e1" />
    <path
       d="M5120 6983 c0 -109 43 -204 124 -281 92 -87 221 -130 355 -119 76 6 122 23 193 69 61 38 64 69 13 123 -19 20 -38 34 -43 32 -4 -3 -31 -15 -59 -26 l-52 -20 -24 54 c-14 29 -37 61 -51 70 -25 17 -27 16 -81 -14 -52 -30 -75 -33 -75 -11 0 5 -12 34 -26 65 -24 50 -29 55 -58 55 -34 0 -109 -31 -120 -49 -13 -21 -25 -11 -51 44 -15 30 -31 55 -36 55 -5 0 -9 -21 -9 -47z"
       id="path204"
       style="fill:#800080" />
    <path
       d="M8235 7010 c-3 -6 1 -7 9 -4 18 7 21 14 7 14 -6 0 -13 -4 -16 -10z"
       id="path206"
       style="fill:none" />
    <path
       d="M7577 6988 c-9 -34 -83 -147 -119 -180 -28 -26 -29 -31 -19 -56 12 -29 24 -32 116 -31 17 0 71 1 122 2 l92 1 -44 49 c-46 50 -92 126 -115 187 -18 49 -26 55 -33 28z"
       id="path208"
       style="fill:#2f4f4f" />
    <path
       d="M8105 6999 c-10 -15 1 -22 24 -14 12 3 19 11 16 16 -8 12 -32 11 -40 -2z"
       id="path210"
       style="fill:none" />
    <path
       d="M5067 6988 c-16 -8 -17 -18 -11 -66 4 -32 11 -60 17 -64 7 -4 1 -21 -16 -45 -25 -36 -26 -44 -20 -106 3 -37 9 -67 12 -67 3 0 27 29 53 64 l48 64 -21 48 c-12 26 -27 78 -33 115 -10 61 -13 66 -29 57z"
       id="path212"
       style="fill:#00008b" />
    <path
       d="M6297 6945 c-36 -75 -95 -138 -120 -131 -13 3 -31 -4 -49 -20 -38 -31 -45 -30 -85 8 -31 30 -35 31 -57 18 -32 -20 -119 -101 -113 -106 2 -2 30 5 62 16 31 11 96 24 143 30 97 12 133 25 181 66 33 28 81 113 81 146 0 36 -17 25 -43 -27z"
       id="path214"
       style="fill:#800080" />
    <path
       d="M8060 6966 c0 -2 12 -12 28 -21 l27 -18 -19 21 c-17 20 -36 29 -36 18z"
       id="path216"
       style="fill:none" />
    <path
       d="M8140 6960 c-9 -6 -10 -10 -3 -10 6 0 15 5 18 10 8 12 4 12 -15 0z"
       id="path218"
       style="fill:none" />
    <path
       d="M4982 6952 c-11 -7 -10 -17 6 -48 10 -21 24 -50 30 -64 9 -21 11 -14 9 45 -2 71 -13 87 -45 67z"
       id="path220"
       style="fill:#00008b" />
    <path
       d="M4274 6886 c-45 -7 -86 -16 -93 -20 -20 -13 -12 -29 12 -22 132 36 268 26 383 -28 75 -35 319 -194 378 -247 32 -28 56 -32 56 -8 0 35 -147 148 -311 237 -166 91 -273 113 -425 88z"
       id="path222"
       style="fill:#800080" />
    <path
       d="M7140 6891 c0 -18 -106 -125 -201 -202 -53 -43 -111 -95 -128 -116 -28 -34 -31 -44 -31 -106 l0 -68 68 48 c153 108 223 166 218 179 -10 26 13 63 51 83 45 23 60 46 69 100 9 55 -2 91 -26 91 -11 0 -20 -4 -20 -9z"
       id="path224"
       style="fill:#f4a460" />
    <path
       d="M4233 6827 c-23 -7 -44 -14 -47 -17 -4 -4 151 -103 184 -118 7 -3 40 107 40 133 0 12 -13 15 -67 14 -38 -1 -87 -6 -110 -12z"
       id="path226"
       style="fill:#a0522d" />
    <path
       d="M4427 6773 c-30 -107 -57 -247 -64 -328 -6 -80 -5 -81 26 -115 l31 -34 0 37 c0 24 5 37 14 37 10 0 14 -53 20 -267 3 -148 9 -311 13 -364 l6 -97 156 161 c268 276 392 370 520 398 l52 11 -43 32 c-55 40 -253 168 -294 189 -35 18 -44 34 -44 80 0 27 -7 37 -44 60 -73 46 -101 46 -190 -3 -42 -23 -74 -45 -71 -49 2 -5 43 -11 91 -15 48 -3 98 -9 111 -12 23 -6 23 -7 6 -26 -26 -29 -153 -95 -153 -79 0 4 27 22 60 41 33 19 60 37 60 41 0 4 -47 13 -105 19 -58 7 -105 16 -105 20 0 29 145 110 198 110 34 0 84 -21 115 -48 20 -18 22 -17 30 26 7 32 6 34 -95 99 -107 69 -202 117 -254 128 -31 6 -31 5 -47 -52z"
       id="path228"
       style="fill:#1e90ff" />
    <path
       d="M7250 6686 c-80 -45 -214 -133 -299 -194 -84 -62 -194 -136 -245 -166 -96 -56 -720 -417 -771 -446 -16 -9 -30 -21 -30 -26 0 -5 14 -26 30 -46 l30 -37 562 339 c406 245 575 352 606 385 24 25 51 45 59 45 9 0 34 18 56 40 31 31 47 40 74 40 28 0 40 8 71 45 37 44 37 45 22 75 -8 16 -17 30 -18 29 -1 0 -67 -38 -147 -83z"
       id="path230"
       style="fill:#2f4f4f" />
    <path
       d="M5102 6671 c-34 -38 -62 -76 -62 -85 0 -8 -5 -27 -12 -41 -12 -27 -45 -39 -130 -50 -27 -4 -48 -9 -48 -13 0 -4 60 -44 133 -89 111 -69 133 -79 138 -65 4 10 20 19 43 22 46 6 51 21 10 32 -40 10 -56 29 -43 48 8 13 11 13 19 -1 14 -25 54 -31 86 -14 16 8 34 15 40 15 38 0 146 137 116 147 -7 3 -38 17 -68 33 l-54 27 -21 -33 c-27 -45 -84 -88 -164 -125 -85 -40 -96 -31 -13 12 58 31 178 136 178 156 0 5 -19 28 -43 51 l-43 42 -62 -69z"
       id="path232"
       style="fill:#00008b" />
    <path
       d="M5992 6708 c-50 -64 -128 -138 -181 -173 -72 -48 -76 -59 -76 -220 0 -139 13 -168 131 -289 67 -67 84 -90 73 -97 -8 -5 -9 -9 -3 -9 6 0 79 38 161 86 l151 85 6 51 c8 58 30 117 64 171 13 22 22 41 20 43 -6 6 -130 -55 -165 -82 -38 -29 -60 -12 -22 18 32 25 124 72 172 88 37 11 38 13 21 31 -9 10 -51 37 -92 60 -62 34 -77 47 -90 80 l-15 39 -61 0 c-34 -1 -74 -6 -90 -13 -28 -12 -27 -13 25 -13 50 0 119 -26 119 -45 0 -4 -22 -12 -48 -19 -77 -18 -144 -63 -203 -135 -55 -68 -81 -73 -35 -7 55 80 168 162 222 162 14 0 15 3 6 12 -14 14 -118 13 -157 -2 l-30 -11 25 27 c36 38 80 54 155 54 36 0 65 2 65 5 0 3 -14 32 -30 65 -28 56 -33 60 -65 60 -24 0 -41 -7 -53 -22z"
       id="path234"
       style="fill:#1e90ff" />
    <path
       d="M5901 6691 c-33 -12 -71 -43 -142 -116 -54 -54 -96 -101 -94 -103 2 -2 43 23 92 56 82 57 203 166 192 175 -2 3 -24 -3 -48 -12z"
       id="path236"
       style="fill:#00008b" />
    <path
       d="M7424 6656 c-40 -40 -43 -46 -34 -71 5 -14 10 -38 10 -53 l0 -27 20 25 c11 14 20 28 20 32 0 4 16 34 35 67 19 32 35 62 35 65 0 3 -10 6 -21 6 -12 0 -41 -19 -65 -44z"
       id="path238"
       style="fill:#f4a460" />
    <path
       d="M4850 6561 l0 -48 52 10 52 10 -45 39 c-24 21 -47 38 -51 38 -5 0 -8 -22 -8 -49z"
       id="path240"
       style="fill:#00008b" />
    <path
       d="M7281 6574 c-23 -19 -31 -34 -31 -57 0 -27 -22 -92 -82 -246 -6 -16 -12 -21 -19 -14 -9 9 7 59 66 213 17 44 5 59 -30 36 -30 -20 -85 -102 -85 -127 0 -10 -21 -34 -46 -54 -58 -43 -95 -48 -44 -5 19 17 37 30 41 30 7 0 20 42 15 48 -2 2 -28 -11 -57 -29 -29 -18 -47 -35 -41 -37 19 -6 14 -22 -8 -22 -62 0 -130 -53 -145 -113 -4 -15 -12 -30 -17 -33 -6 -4 -8 1 -5 12 3 11 8 31 11 46 l6 27 -36 -21 c-32 -19 -35 -24 -30 -53 5 -26 1 -39 -17 -61 -31 -38 -25 -51 20 -46 20 3 73 -1 118 -8 65 -10 86 -10 105 0 32 17 240 224 240 238 0 19 55 124 106 204 25 38 43 76 40 84 -8 22 -41 17 -75 -12z"
       id="path242"
       style="fill:#f4a460" />
    <path
       d="M5670 6570 c-19 -5 -51 -11 -71 -15 -28 -4 -43 -15 -68 -51 -18 -25 -58 -72 -89 -106 -54 -58 -55 -61 -37 -75 19 -13 18 -14 -8 -8 -16 5 -43 1 -67 -9 -22 -9 -57 -16 -78 -15 l-37 1 42 8 c23 5 52 14 65 21 22 12 20 14 -32 29 -53 16 -56 16 -77 -2 -13 -12 -32 -18 -50 -16 -22 2 -28 -1 -30 -17 -2 -14 16 -33 64 -67 l66 -47 39 42 38 42 -25 -45 c-14 -25 -25 -51 -25 -57 0 -18 54 -16 89 1 33 18 91 81 91 100 0 7 11 30 25 50 27 41 26 42 -15 21 -50 -26 -33 -10 37 36 78 51 149 110 188 157 28 34 25 36 -35 22z"
       id="path244"
       style="fill:#00008b" />
    <path
       d="M5420 6556 c0 -49 -88 -136 -153 -152 -35 -8 -26 -17 41 -39 51 -16 54 -16 74 1 30 27 148 174 148 185 0 5 -15 9 -32 9 -18 0 -43 3 -55 6 -17 5 -23 2 -23 -10z"
       id="path246"
       style="fill:#00008b" />
    <path
       d="M7327 6467 c-26 -41 -50 -82 -53 -92 -7 -17 -6 -17 25 1 49 29 61 47 70 105 5 30 8 55 6 57 -1 1 -23 -30 -48 -71z"
       id="path248"
       style="fill:#f4a460" />
    <path
       d="M4290 6516 c-69 -24 -153 -91 -222 -176 -56 -69 -178 -252 -178 -267 0 -30 87 -66 187 -77 l53 -5 27 47 c14 26 64 102 110 170 67 98 82 126 73 137 -8 10 -10 40 -5 100 4 47 3 85 -1 85 -5 -1 -25 -7 -44 -14z"
       id="path250"
       style="fill:#8b0000" />
    <path
       d="M5650 6429 c-89 -56 -128 -95 -154 -154 -25 -54 -81 -111 -121 -121 -14 -3 -25 -10 -25 -15 0 -4 51 -38 113 -75 61 -36 119 -73 128 -80 13 -12 20 -12 47 1 37 19 63 10 160 -60 66 -47 77 -51 101 -36 21 14 -19 86 -95 171 -86 95 -97 129 -93 284 2 69 4 126 4 126 0 0 -29 -19 -65 -41z"
       id="path252"
       style="fill:#00008b" />
    <path
       d="M6726 6384 c-11 -7 -17 -16 -15 -19 3 -3 14 2 25 9 10 8 17 17 14 19 -3 3 -14 -1 -24 -9z"
       id="path254"
       style="fill:none" />
    <path
       d="M6431 6345 c-44 -51 -103 -177 -88 -191 2 -2 37 14 77 37 57 33 69 44 56 51 -9 5 -16 14 -16 19 0 6 -10 19 -22 29 -19 15 -21 22 -12 37 6 10 25 19 42 21 37 4 53 32 18 32 -15 0 -36 -14 -55 -35z"
       id="path256"
       style="fill:#008000" />
    <path
       d="M6585 6358 c0 -13 5 -31 11 -41 10 -18 12 -17 47 3 22 13 37 30 37 41 0 16 -7 19 -48 19 -43 0 -48 -2 -47 -22z"
       id="path258"
       style="fill:#008000" />
    <path
       d="M6355 6323 c-36 -50 -75 -149 -75 -191 0 -21 2 -22 15 -12 8 7 15 18 15 24 0 31 33 116 64 169 42 69 30 76 -19 10z"
       id="path260"
       style="fill:#008b8b" />
    <path
       d="M6518 6336 c-9 -21 -16 -24 -39 -19 -18 3 -29 1 -29 -6 0 -6 9 -11 20 -11 12 0 20 -7 20 -17 1 -17 1 -17 14 0 10 13 21 16 40 11 16 -4 26 -2 26 5 0 6 -7 11 -15 11 -17 0 -20 16 -5 25 15 9 12 25 -5 25 -9 0 -20 -11 -27 -24z"
       id="path262"
       style="fill:#7fffd4" />
    <path
       d="M4265 6156 c-52 -78 -95 -148 -95 -155 0 -27 31 -8 51 32 41 80 117 202 143 226 24 23 26 41 5 41 -5 0 -52 -65 -104 -144z"
       id="path264"
       style="fill:#f08080" />
    <path
       d="M3913 6283 c-56 -4 -65 -7 -92 -39 -81 -92 -3 -252 146 -299 80 -26 351 -16 420 15 58 26 51 34 -17 19 -32 -7 -115 -10 -214 -7 -140 4 -168 7 -211 27 -61 27 -93 56 -111 98 -32 74 -7 146 54 162 20 5 50 8 66 7 16 0 31 5 33 12 3 6 1 11 -4 10 -4 -1 -36 -3 -70 -5z"
       id="path266"
       style="fill:#0000ff" />
    <path
       d="M4373 6228 c-28 -30 -84 -120 -128 -207 l-17 -34 58 5 c33 3 79 12 103 19 l43 13 -4 108 c-2 59 -8 112 -14 118 -7 7 -20 0 -41 -22z"
       id="path268"
       style="fill:#40e0d0" />
    <path
       d="M3870 6220 c-21 -21 -29 -103 -11 -115 8 -4 59 62 95 123 13 21 -61 15 -84 -8z"
       id="path270"
       style="fill:#40e0d0" />
    <path
       d="M5180 6180 c-128 -22 -204 -74 -429 -295 -210 -207 -285 -290 -276 -305 4 -7 60 40 139 117 72 71 205 197 295 280 162 151 164 152 232 168 37 8 80 15 95 15 22 0 25 2 14 15 -7 8 -15 14 -19 14 -3 -1 -26 -5 -51 -9z"
       id="path272"
       style="fill:#008b8b" />
    <path
       d="M6660 6159 c-45 -28 -56 -49 -59 -112 -1 -25 1 -27 27 -21 42 10 54 25 48 55 -4 22 -1 29 14 34 22 7 38 51 24 65 -5 4 -29 -5 -54 -21z"
       id="path274"
       style="fill:#3cb371" />
    <path
       d="M3681 6052 c-72 -101 -74 -104 -68 -152 13 -110 71 -171 218 -233 l36 -15 -5 72 c-3 62 -1 75 20 106 13 19 41 46 62 60 36 23 37 25 14 31 -103 28 -183 113 -200 214 -3 15 -22 -6 -77 -83z"
       id="path276"
       style="fill:#0000ff" />
    <path
       d="M5138 6118 c-32 -7 -62 -23 -93 -50 -47 -41 -50 -64 -8 -53 24 6 53 -8 53 -26 0 -5 -9 -18 -21 -30 -24 -24 -17 -40 9 -21 38 28 145 74 182 79 23 3 39 10 38 15 -4 11 -8 11 -43 2 -15 -4 -32 -1 -40 6 -19 16 -19 49 -1 56 8 3 17 12 20 20 6 16 -23 17 -96 2z"
       id="path278"
       style="fill:#008000" />
    <path
       d="M5272 6101 c2 -10 -5 -17 -19 -19 -13 -2 -23 -8 -23 -13 0 -15 22 -10 42 8 19 17 20 16 40 -7 11 -14 18 -18 15 -9 -3 9 -1 21 3 25 6 6 -5 14 -25 20 -30 10 -35 9 -33 -5z"
       id="path280"
       style="fill:none" />
    <path
       d="M6559 6098 c-35 -28 -58 -322 -39 -503 13 -132 71 -379 126 -538 42 -119 106 -261 124 -272 19 -12 6 24 -60 165 -91 193 -134 344 -161 564 -14 118 -7 340 16 475 18 111 18 128 -6 109z"
       id="path282"
       style="fill:#008b8b" />
    <path
       d="M7028 6071 l-37 -37 34 -84 c19 -47 39 -86 45 -88 6 -2 24 1 41 8 31 13 39 37 14 46 -13 5 -12 11 5 39 26 42 26 45 -10 45 -34 0 -34 1 -18 46 9 26 9 36 -1 48 -19 22 -31 18 -73 -23z"
       id="path284"
       style="fill:#3cb371" />
    <path
       d="M5370 6071 c0 -5 -3 -16 -6 -25 -5 -13 3 -16 47 -16 l54 1 -40 24 c-43 27 -55 30 -55 16z"
       id="path286"
       style="fill:#008000" />
    <path
       d="M6481 6051 c-20 -15 -22 -22 -14 -46 15 -45 30 -40 38 10 3 26 5 48 3 50 -2 2 -14 -4 -27 -14z"
       id="path288"
       style="fill:#2e8b57" />
    <path
       d="M6703 6030 c-9 -10 -8 -18 2 -34 8 -12 14 -42 13 -66 -1 -25 1 -52 5 -61 5 -11 0 -26 -16 -45 -29 -34 -37 -85 -18 -108 9 -10 12 -29 8 -51 -3 -19 -1 -37 4 -40 5 -4 16 -20 24 -36 18 -34 8 -64 -24 -74 -26 -8 -17 -32 23 -66 29 -25 30 -29 19 -60 -12 -31 -11 -34 18 -59 36 -30 34 -58 -6 -84 -30 -20 -32 -45 -5 -79 12 -14 25 -39 31 -55 6 -19 21 -32 44 -41 44 -15 56 -52 32 -94 -20 -35 -13 -73 15 -80 20 -6 21 -12 7 -67 -3 -10 5 -16 23 -18 15 -2 36 -15 47 -29 17 -20 26 -24 51 -18 82 18 133 161 147 410 10 189 -27 418 -106 656 -57 169 -71 193 -112 196 -19 0 -74 4 -124 8 -66 5 -93 4 -102 -5z"
       id="path290"
       style="fill:#4169e1" />
    <path
       d="M5243 5985 c-29 -8 -72 -24 -95 -36 -63 -32 -162 -132 -236 -239 -119 -171 -323 -453 -402 -555 -67 -87 -120 -171 -120 -190 0 -3 13 1 28 10 18 11 34 34 45 63 10 28 54 94 109 161 178 218 267 335 355 465 97 144 177 232 241 265 97 50 244 65 352 37 30 -8 56 -13 58 -12 1 2 -7 11 -19 21 -17 16 -40 20 -142 22 -85 2 -138 -2 -174 -12z"
       id="path292"
       style="fill:#008b8b" />
    <path
       d="M6380 5990 c-13 -8 -12 -10 3 -10 9 0 17 5 17 10 0 12 -1 12 -20 0z"
       id="path294"
       style="fill:none" />
    <path
       d="M6587 5958 c-3 -24 -9 -85 -13 -136 l-7 -93 39 3 c37 3 39 5 42 42 2 27 11 45 28 58 27 22 30 40 10 57 -11 9 -12 18 -3 42 16 42 0 63 -50 67 l-40 3 -6 -43z"
       id="path296"
       style="fill:#3cb371" />
    <path
       d="M4989 5971 c6 -10 8 -21 4 -24 -9 -9 18 -38 29 -31 5 3 4 11 -2 19 -9 10 -6 16 9 25 12 6 21 15 21 20 0 6 -9 5 -21 -2 -17 -10 -23 -10 -26 0 -3 6 -9 12 -14 12 -6 0 -6 -7 0 -19z"
       id="path298"
       style="fill:#7fffd4" />
    <path
       d="M6424 5975 c-3 -8 -14 -17 -25 -20 -18 -6 -18 -8 -4 -28 8 -12 15 -29 15 -39 0 -27 19 -22 26 7 3 14 15 32 26 39 16 12 17 14 3 19 -8 4 -15 13 -15 22 0 19 -19 20 -26 0z"
       id="path300"
       style="fill:#7fffd4" />
    <path
       d="M4850 5885 c-58 -54 -105 -103 -105 -109 0 -7 14 -10 37 -8 29 3 37 -1 42 -16 4 -11 2 -30 -4 -44 -7 -14 -8 -32 -2 -47 8 -22 12 -19 68 60 32 46 74 101 93 122 18 20 29 38 25 38 -5 1 -25 2 -44 3 -42 1 -51 25 -19 54 11 11 19 26 17 33 -2 6 -50 -32 -108 -86z"
       id="path302"
       style="fill:#008000" />
    <path
       d="M5630 5950 c-14 -11 -30 -20 -35 -20 -6 0 -26 -8 -45 -19 -19 -10 -52 -21 -72 -25 -21 -4 -38 -11 -38 -15 0 -5 -18 -16 -40 -25 -22 -9 -40 -20 -40 -26 0 -19 -41 -33 -65 -22 -35 16 -65 4 -65 -25 0 -16 -13 -37 -34 -57 -18 -17 -37 -41 -40 -53 -8 -24 -11 -26 -65 -27 -19 -1 -36 -6 -38 -12 -6 -17 68 -95 104 -110 39 -17 116 -18 144 -3 14 7 18 16 14 30 -8 25 1 24 68 -6 50 -23 56 -29 66 -70 14 -56 14 -68 -1 -62 -16 5 -48 -10 -48 -23 0 -14 55 -40 86 -40 36 0 94 37 94 60 0 47 -42 130 -86 169 -27 24 -41 42 -34 46 17 10 58 -22 93 -73 18 -26 49 -64 70 -85 l37 -38 33 22 c17 12 34 24 36 25 6 5 -59 115 -90 155 -33 42 -35 49 -14 49 14 0 115 -142 115 -161 0 -15 20 -10 51 12 18 13 29 29 29 44 0 28 -94 227 -115 245 -15 13 -121 15 -157 4 -12 -3 -18 0 -18 9 0 17 42 27 117 27 68 0 82 -14 147 -147 l48 -98 32 38 c18 21 40 54 50 72 l18 33 -33 47 c-19 26 -53 58 -77 72 -23 14 -64 43 -90 64 -52 44 -75 48 -112 19z"
       id="path304"
       style="fill:#f4a460" />
    <path
       d="M6333 5963 c-20 -7 -11 -209 13 -325 7 -37 24 -36 24 1 0 44 10 61 36 61 25 0 44 -26 44 -59 0 -14 6 -21 20 -21 19 0 20 7 20 145 0 85 -4 145 -10 145 -5 0 -16 -15 -25 -34 -9 -19 -23 -37 -30 -40 -16 -6 -45 29 -45 54 0 9 -9 24 -21 33 -11 10 -18 25 -15 33 3 8 4 14 3 13 -1 0 -8 -3 -14 -6z"
       id="path306"
       style="fill:#008000" />
    <path
       d="M4392 5933 c-28 -12 -218 -32 -304 -33 -20 0 -26 -4 -22 -15 8 -20 -12 -43 -53 -60 -22 -9 -33 -21 -33 -34 0 -28 18 -26 46 4 30 32 48 31 107 -5 62 -40 61 -60 -5 -105 -61 -41 -72 -42 -92 -14 -9 13 -21 19 -30 16 -21 -8 -20 -36 2 -43 9 -3 27 -11 40 -18 18 -10 45 -10 130 0 59 6 142 15 185 19 l77 7 -1 96 c-1 54 -4 120 -7 148 l-7 51 -33 -14z m-48 -149 c23 -23 20 -51 -8 -69 -45 -30 -91 16 -61 61 18 28 47 31 69 8z"
       id="path308"
       style="fill:#0000ff" />
    <path
       d="M4294 5759 c-8 -14 11 -33 25 -25 16 10 13 36 -3 36 -8 0 -18 -5 -22 -11z"
       id="path310"
       style="fill:none" />
    <path
       d="M5253 5935 c-69 -21 -128 -61 -187 -127 -62 -68 -74 -95 -57 -127 10 -17 20 -20 59 -18 56 3 72 12 72 37 0 11 12 25 28 32 38 18 41 59 8 99 -15 17 -23 36 -19 42 4 6 15 -1 29 -18 20 -25 26 -27 62 -21 24 3 43 2 47 -4 10 -17 37 -11 42 9 3 12 17 21 39 25 48 10 50 22 4 47 -22 13 -40 26 -40 31 0 12 -38 9 -87 -7z"
       id="path312"
       style="fill:#3cb371" />
    <path
       d="M5405 5929 c47 -22 78 -24 108 -7 l22 12 -25 7 c-14 4 -52 7 -85 7 l-60 0 40 -19z"
       id="path314"
       style="fill:#3cb371" />
    <path
       d="M4955 5920 c-3 -5 -2 -10 4 -10 5 0 13 5 16 10 3 6 2 10 -4 10 -5 0 -13 -4 -16 -10z"
       id="path316"
       style="fill:none" />
    <path
       d="M6263 5914 c-8 -21 14 -261 32 -359 33 -170 89 -338 125 -370 19 -17 19 -17 1 33 -52 141 -108 410 -117 557 -3 50 -7 105 -10 123 -5 34 -21 42 -31 16z"
       id="path318"
       style="fill:#008b8b" />
    <path
       d="M6115 5831 c-60 -37 -111 -74 -113 -82 -4 -19 95 -211 155 -301 47 -71 180 -214 190 -204 3 2 -5 33 -17 67 -49 143 -89 374 -90 517 0 39 -3 72 -7 71 -5 0 -57 -31 -118 -68z"
       id="path320"
       style="fill:#1e90ff" />
    <path
       d="M3985 5883 c-47 -11 -105 -89 -105 -140 1 -67 68 -163 114 -163 35 0 38 23 4 37 -23 10 -28 18 -28 48 0 28 5 38 25 47 22 10 29 8 50 -12 l25 -23 40 28 c22 15 40 32 40 37 0 12 -61 48 -82 48 -10 0 -18 -7 -18 -15 0 -38 -83 -43 -95 -5 -11 33 4 59 47 81 31 16 38 23 27 30 -8 5 -16 8 -19 8 -3 -1 -14 -3 -25 -6z"
       id="path322"
       style="fill:#9400d3" />
    <path
       d="M7115 5842 c-22 -8 -41 -16 -42 -17 -1 0 6 -28 16 -60 11 -33 24 -79 30 -102 11 -39 15 -43 42 -43 35 0 69 16 69 32 0 7 -9 22 -21 34 -20 21 -20 24 -5 46 23 32 20 38 -18 38 -42 0 -50 10 -31 36 15 20 20 55 8 53 -5 -1 -26 -8 -48 -17z"
       id="path324"
       style="fill:#3cb371" />
    <path
       d="M4600 5645 c-52 -53 -105 -98 -117 -101 -12 -3 -24 -15 -27 -27 -12 -52 -27 -249 -24 -327 l3 -85 68 85 c37 46 67 87 67 90 0 3 -12 13 -26 23 -20 15 -28 16 -39 7 -34 -28 -60 35 -31 75 10 14 11 25 4 41 -6 13 -8 30 -5 38 7 18 52 22 62 6 4 -7 17 -4 35 7 24 14 31 14 44 4 22 -18 20 -32 -8 -73 -20 -30 -22 -38 -11 -58 12 -22 17 -16 110 114 54 75 96 138 94 139 -2 1 -14 8 -26 14 -14 8 -24 9 -28 3 -9 -15 -41 -12 -55 5 -9 11 -9 21 4 45 9 18 12 39 8 50 -6 17 -20 7 -102 -75z"
       id="path326"
       style="fill:#008000" />
    <path
       d="M4730 5736 c0 -4 4 -15 10 -25 7 -14 5 -23 -10 -36 -24 -22 -26 -35 -5 -35 8 0 15 9 15 20 0 11 5 20 11 20 6 0 13 -9 16 -20 6 -21 23 -28 23 -9 0 6 -5 19 -11 30 -8 17 -7 23 8 34 10 7 14 17 10 22 -5 4 -15 -1 -23 -12 -15 -20 -15 -20 -30 -1 -8 11 -14 16 -14 12z"
       id="path328"
       style="fill:#7fffd4" />
    <path
       d="M6608 5703 l-38 -4 0 -57 c0 -31 3 -80 6 -108 6 -46 10 -53 41 -68 42 -20 55 -14 43 20 -14 36 -13 38 20 51 17 6 30 18 30 26 0 8 -13 27 -30 40 -34 29 -37 39 -15 57 11 9 12 17 4 31 -5 10 -13 18 -17 17 -4 -1 -24 -3 -44 -5z"
       id="path330"
       style="fill:#3cb371" />
    <path
       d="M3650 5533 c-109 -277 -197 -522 -265 -748 -37 -121 -78 -242 -92 -270 -13 -27 -76 -123 -139 -213 -63 -90 -114 -166 -112 -168 2 -1 53 28 113 65 61 38 184 114 275 169 91 56 173 107 183 114 13 10 37 91 86 288 62 249 111 404 218 692 l36 97 -29 29 c-16 16 -47 35 -69 42 -22 7 -61 23 -87 36 -26 13 -49 24 -51 24 -2 0 -32 -71 -67 -157z"
       id="path332"
       style="fill:#8b0000" />
    <path
       d="M4970 5670 c0 -5 5 -10 11 -10 5 0 7 5 4 10 -3 6 -8 10 -11 10 -2 0 -4 -4 -4 -10z"
       id="path334"
       style="fill:none" />
    <path
       d="M6400 5641 c0 -28 -5 -43 -17 -50 -16 -8 -15 -11 10 -20 17 -7 27 -18 27 -31 0 -11 5 -20 10 -20 6 0 10 9 10 19 0 11 7 27 16 36 15 15 15 17 -4 22 -15 3 -24 16 -28 39 -9 49 -24 52 -24 5z"
       id="path336"
       style="fill:#7fffd4" />
    <path
       d="M4880 5547 c-36 -50 -66 -97 -68 -103 -2 -6 5 -17 14 -25 15 -12 20 -10 45 21 27 32 29 33 48 16 29 -26 56 -17 55 19 0 17 -4 37 -8 46 -5 13 0 18 24 22 46 10 50 35 10 69 -19 15 -39 28 -45 28 -5 0 -39 -42 -75 -93z"
       id="path338"
       style="fill:#3cb371" />
    <path
       d="M4352 5607 c-10 -12 -52 -112 -52 -124 0 -3 6 0 14 6 12 10 66 113 66 126 0 10 -18 5 -28 -8z"
       id="path340"
       style="fill:#4682b4" />
    <path
       d="M4396 5572 c-37 -74 -93 -241 -137 -412 -22 -85 -51 -193 -65 -239 -13 -47 -22 -86 -20 -89 2 -2 13 1 24 7 15 8 23 29 31 78 30 173 135 512 197 636 23 45 24 67 4 67 -6 0 -21 -22 -34 -48z"
       id="path342"
       style="fill:#f08080" />
    <path
       d="M4260 5568 c0 -24 5 -50 10 -58 5 -8 10 -12 10 -8 0 4 9 30 20 58 l20 50 -30 0 c-29 0 -30 -2 -30 -42z"
       id="path344"
       style="fill:#40e0d0" />
    <path
       d="M4204 5587 c-51 -30 -96 -74 -138 -135 -85 -124 -130 -276 -144 -478 -8 -118 -9 -119 -53 -189 -47 -73 -96 -181 -87 -190 11 -12 39 9 45 34 14 58 97 181 123 181 4 0 15 -20 24 -45 19 -47 22 -50 46 -36 12 8 11 17 -9 59 l-24 50 21 29 c32 44 119 126 125 116 2 -4 -4 -48 -14 -98 -10 -49 -16 -91 -14 -93 9 -10 25 11 25 34 0 13 11 72 25 130 14 58 25 108 25 110 0 25 -100 -48 -144 -105 -21 -28 -42 -51 -46 -51 -11 0 -30 91 -30 144 0 118 92 345 175 430 51 53 72 58 81 19 12 -59 37 -133 42 -128 3 3 11 21 18 40 9 28 9 37 -1 43 -19 11 -36 50 -44 97 -6 40 -7 43 -27 32z"
       id="path346"
       style="fill:#40e0d0" />
    <path
       d="M5862 5588 c-7 -7 -12 -21 -12 -31 0 -22 -55 -77 -78 -77 -11 0 -13 -3 -5 -11 16 -16 98 -1 136 25 39 26 56 68 37 90 -15 19 -61 21 -78 4z"
       id="path348"
       style="fill:#00008b" />
    <path
       d="M7143 5568 c2 -18 10 -77 18 -130 13 -95 14 -98 39 -98 14 0 34 6 44 13 18 13 18 15 -5 36 l-23 21 37 31 c20 17 37 37 37 44 0 20 -43 46 -71 43 -25 -3 -27 5 -13 50 6 20 3 22 -31 22 -36 0 -37 -1 -32 -32z"
       id="path350"
       style="fill:#3cb371" />
    <path
       d="M4021 5564 c-45 -24 -45 -24 -103 -181 -33 -87 -75 -203 -94 -258 -38 -107 -158 -594 -149 -603 3 -3 14 3 24 14 13 12 30 70 51 164 54 248 88 374 139 519 60 171 110 268 167 327 49 50 37 56 -35 18z"
       id="path352"
       style="fill:#f08080" />
    <path
       d="M5050 5551 c0 -6 -11 -17 -25 -23 -22 -10 -25 -16 -20 -40 9 -41 -17 -78 -55 -78 -16 0 -32 5 -35 10 -12 19 -26 0 -15 -20 16 -29 12 -58 -10 -80 -19 -19 -28 -60 -13 -60 7 0 311 187 327 201 5 4 -10 13 -33 20 -23 7 -59 28 -81 46 -22 19 -40 30 -40 24z"
       id="path354"
       style="fill:#4169e1" />
    <path
       d="M6465 5528 c-14 -63 -51 -80 -61 -28 -6 28 -30 58 -39 49 -5 -6 28 -155 52 -233 19 -62 43 -86 43 -44 1 54 52 68 58 15 2 -18 9 -27 21 -27 17 0 17 6 -5 98 -14 53 -27 121 -30 150 -8 59 -29 70 -39 20z"
       id="path356"
       style="fill:#008000" />
    <path
       d="M4052 5502 c-48 -60 -100 -172 -147 -315 -43 -132 -125 -449 -125 -484 0 -15 38 43 95 147 7 14 18 84 24 155 17 206 69 367 155 478 21 27 35 51 33 53 -3 3 -18 -12 -35 -34z"
       id="path358"
       style="fill:#4682b4" />
    <path
       d="M5315 5491 c-16 -9 -57 -33 -90 -52 -67 -40 -1088 -667 -1285 -789 -69 -43 -296 -182 -505 -310 -209 -129 -397 -244 -418 -257 -34 -21 -36 -26 -26 -46 6 -12 18 -30 27 -39 19 -22 3 -31 492 268 206 126 720 441 1143 699 706 431 767 471 767 495 0 19 -7 30 -25 38 -32 15 -42 14 -80 -7z"
       id="path360"
       style="fill:#2f4f4f" />
    <path
       d="M4137 5448 c-81 -100 -147 -281 -147 -404 0 -39 2 -73 6 -76 3 -3 28 18 55 47 61 64 114 93 141 76 15 -9 19 -7 24 17 4 15 19 71 34 124 25 90 26 98 10 103 -19 6 -48 64 -59 116 -3 18 -12 34 -18 36 -6 2 -27 -15 -46 -39z"
       id="path362"
       style="fill:#0000cd" />
    <path
       d="M4377 5358 c-62 -176 -136 -463 -123 -475 3 -3 26 8 51 23 37 23 51 41 72 89 25 56 27 74 33 260 4 110 6 201 5 203 -1 1 -18 -44 -38 -100z"
       id="path364"
       style="fill:#4682b4" />
    <path
       d="M4564 5435 c-20 -30 -34 -32 -41 -5 -3 11 -9 20 -14 20 -12 0 -11 -7 3 -29 9 -15 7 -24 -10 -46 -12 -16 -20 -31 -16 -34 3 -3 14 5 24 19 l19 25 12 -33 c7 -22 15 -30 21 -24 6 6 6 18 -2 32 -10 19 -8 26 14 49 26 28 34 51 16 51 -5 0 -17 -11 -26 -25z"
       id="path366"
       style="fill:#7fffd4" />
    <path
       d="M6590 5436 c0 -21 28 -150 47 -218 11 -42 20 -58 33 -58 29 0 45 27 32 55 -10 21 -8 26 24 44 18 11 34 25 34 31 0 6 -16 20 -35 31 -39 24 -40 26 -20 53 8 11 15 28 15 38 0 15 -8 18 -46 18 -25 0 -54 5 -65 10 -15 8 -19 7 -19 -4z"
       id="path368"
       style="fill:#3cb371" />
    <path
       d="M5740 5431 c0 -4 49 -82 108 -172 238 -359 441 -715 656 -1148 194 -391 424 -976 636 -1611 158 -472 226 -723 246 -897 10 -96 28 -67 21 36 -12 183 -230 917 -429 1445 -142 376 -515 1210 -715 1596 -223 432 -438 758 -500 759 -13 1 -23 -3 -23 -8z"
       id="path370"
       style="fill:#00008b" />
    <path
       d="M5610 5420 c0 -5 5 -10 11 -10 5 0 7 5 4 10 -3 6 -8 10 -11 10 -2 0 -4 -4 -4 -10z"
       id="path372"
       style="fill:none" />
    <path
       d="M5670 5399 c-19 -10 -43 -18 -52 -19 -22 0 -58 -47 -58 -75 0 -12 -7 -28 -15 -35 -8 -7 -15 -26 -15 -42 0 -21 -7 -33 -29 -46 -33 -19 -47 -68 -29 -107 8 -19 7 -29 -5 -48 -13 -20 -13 -27 -1 -48 29 -52 4 -94 -52 -87 -30 3 -34 0 -53 -38 -12 -23 -21 -47 -21 -54 0 -24 175 -266 246 -340 69 -72 94 -107 94 -129 0 -21 -20 -11 -34 18 -9 16 -46 60 -83 98 -37 38 -86 94 -107 126 -38 55 -41 57 -75 51 -83 -15 -151 -70 -171 -140 -10 -34 -10 -50 4 -96 l16 -55 142 -79 c323 -178 385 -201 513 -191 140 11 247 60 292 135 28 45 30 131 8 247 -18 97 -40 155 -111 297 -82 166 -358 678 -364 677 -3 -1 -21 -9 -40 -20z"
       id="path374"
       style="fill:#20b2aa" />
    <path
       d="M4731 5349 c-28 -33 -51 -64 -51 -69 0 -15 30 -32 46 -26 10 4 25 -1 36 -11 18 -16 22 -16 46 -2 19 10 28 24 30 47 2 19 11 36 23 42 11 6 19 21 19 35 0 22 -5 25 -34 25 -19 0 -38 5 -41 10 -11 18 -23 10 -74 -51z"
       id="path376"
       style="fill:#3cb371" />
    <path
       d="M5005 5150 c-325 -200 -340 -210 -340 -239 -1 -18 -8 -36 -20 -45 -15 -11 -19 -24 -16 -59 3 -50 -13 -67 -62 -67 -29 0 -46 -43 -26 -66 10 -12 8 -19 -10 -37 -13 -15 -21 -36 -21 -59 l0 -36 75 15 c158 29 361 103 477 172 53 32 73 53 123 128 76 112 123 228 146 363 10 58 21 113 24 123 4 9 3 17 -1 16 -5 0 -162 -94 -349 -209z"
       id="path378"
       style="fill:#4169e1" />
    <path
       d="M5407 5312 c-15 -16 -61 -133 -55 -136 97 -45 100 -45 96 -9 -2 21 2 28 17 31 38 8 46 21 30 51 -13 26 -12 28 16 38 43 17 36 33 -15 33 -24 0 -51 2 -58 5 -8 3 -22 -3 -31 -13z"
       id="path380"
       style="fill:#3cb371" />
    <path
       d="M7199 5313 c-13 -3 -17 -24 -22 -111 -3 -59 -4 -108 -3 -110 2 -1 20 -3 42 -5 35 -2 39 0 37 21 -2 16 4 25 22 32 37 14 32 47 -10 67 -39 19 -42 27 -20 50 9 8 14 20 12 26 -5 16 -40 34 -58 30z"
       id="path382"
       style="fill:#3cb371" />
    <path
       d="M4602 5196 c-62 -77 -66 -85 -47 -110 14 -18 16 -17 65 14 50 32 60 45 38 52 -21 7 2 28 31 28 29 0 51 16 51 37 0 10 -5 11 -19 3 -30 -15 -38 -12 -45 15 -4 14 -10 25 -14 25 -4 0 -31 -29 -60 -64z"
       id="path384"
       style="fill:#3cb371" />
    <path
       d="M6494 5221 c5 -8 56 -3 56 5 0 2 -14 4 -31 4 -16 0 -28 -4 -25 -9z"
       id="path386"
       style="fill:none" />
    <path
       d="M6500 5186 c0 -9 5 -16 10 -16 6 0 10 4 10 9 0 6 -4 13 -10 16 -5 3 -10 -1 -10 -9z"
       id="path388"
       style="fill:none" />
    <path
       d="M6552 5193 c-6 -2 -10 -8 -7 -13 6 -9 -21 -40 -35 -40 -5 0 -18 12 -29 26 -23 29 -28 22 -8 -12 11 -20 177 -200 177 -192 0 2 -16 50 -35 107 -19 57 -35 110 -35 117 0 14 -6 16 -28 7z"
       id="path390"
       style="fill:#008000" />
    <path
       d="M5336 5120 c-3 -17 -19 -65 -36 -106 -16 -42 -30 -79 -30 -82 0 -7 65 -52 75 -52 3 0 5 11 5 23 0 34 9 38 41 22 55 -29 78 8 38 59 l-22 27 22 15 c11 8 21 21 21 29 0 23 -78 95 -103 95 -3 0 -7 -14 -11 -30z"
       id="path392"
       style="fill:#3cb371" />
    <path
       d="M6692 5128 c-21 -21 -14 -49 35 -145 40 -79 51 -93 71 -93 22 0 24 3 18 33 -3 20 0 39 9 51 26 35 19 62 -22 78 -27 11 -39 24 -47 49 -12 36 -42 49 -64 27z"
       id="path394"
       style="fill:#3cb371" />
    <path
       d="M6062 4823 c137 -274 158 -340 161 -505 2 -103 1 -107 -28 -150 -77 -109 -329 -168 -486 -112 -23 7 -45 14 -49 14 -7 0 -33 -51 -28 -55 2 -1 19 -10 38 -20 83 -41 132 -90 208 -205 87 -132 158 -206 233 -244 60 -30 138 -35 179 -11 36 20 111 18 178 -5 79 -28 174 -94 281 -195 50 -48 91 -85 91 -82 0 15 -182 473 -250 627 -53 121 -224 452 -353 685 -99 178 -286 495 -292 495 -2 0 51 -107 117 -237z"
       id="path396"
       style="fill:#a52a2a" />
    <path
       d="M7167 5053 c-4 -3 -7 -18 -7 -31 0 -14 -10 -61 -21 -105 l-22 -79 29 -24 c16 -13 40 -23 53 -24 21 0 23 3 18 33 -4 28 -1 35 23 49 16 9 33 26 40 37 9 18 7 25 -13 45 -13 12 -30 26 -38 29 -11 4 -8 10 11 26 16 13 22 23 15 29 -13 13 -80 24 -88 15z"
       id="path398"
       style="fill:#3cb371" />
    <path
       d="M4056 4880 c-20 -22 -36 -42 -36 -45 0 -23 47 -90 51 -72 5 24 25 157 23 157 -1 0 -18 -18 -38 -40z"
       id="path400"
       style="fill:#0000cd" />
    <path
       d="M4520 4852 c-74 -45 -95 -64 -102 -87 -10 -39 15 -67 56 -63 27 3 32 8 36 38 5 34 6 35 46 32 48 -4 60 12 43 55 -9 24 -7 30 15 48 14 12 26 24 26 28 0 17 -32 3 -120 -51z"
       id="path402"
       style="fill:#3cb371" />
    <path
       d="M5229 4868 c-7 -17 -39 -60 -72 -95 -33 -35 -55 -63 -50 -63 5 0 19 -10 32 -21 23 -21 23 -21 49 -2 22 16 32 17 55 9 24 -9 31 -7 42 7 15 20 10 51 -11 68 -21 17 -17 26 16 38 38 13 39 42 4 70 -36 29 -49 26 -65 -11z"
       id="path404"
       style="fill:#3cb371" />
    <path
       d="M6825 4866 c-16 -6 -32 -11 -34 -12 -5 -4 31 -108 47 -132 8 -13 32 -32 54 -43 l38 -19 0 34 c0 19 3 41 6 49 9 24 -24 47 -67 47 -43 0 -46 5 -23 38 24 34 15 50 -21 38z"
       id="path406"
       style="fill:#3cb371" />
    <path
       d="M7083 4790 c-14 -21 -83 -60 -108 -60 -24 0 -29 -27 -10 -56 12 -19 23 -24 38 -20 12 2 31 -2 41 -10 41 -30 66 -13 66 46 0 17 8 33 23 43 21 14 21 16 5 43 -21 36 -39 41 -55 14z"
       id="path408"
       style="fill:#3cb371" />
    <path
       d="M5310 4761 c29 -55 -5 -108 -64 -98 -34 5 -59 -6 -98 -45 -10 -10 -27 -18 -38 -18 -14 0 -20 -7 -20 -23 0 -48 -64 -75 -101 -42 -15 14 -18 14 -34 -2 -38 -38 8 -235 69 -292 11 -11 61 -34 111 -51 49 -18 108 -45 130 -60 48 -33 150 -85 185 -94 14 -4 2 5 -27 19 -158 79 -289 346 -228 466 34 67 92 110 169 127 l35 7 -42 62 c-39 58 -70 87 -47 44z"
       id="path410"
       style="fill:#7b68ee" />
    <path
       d="M4377 4763 c-4 -3 -7 -25 -6 -47 l1 -41 9 44 c9 45 8 56 -4 44z"
       id="path412"
       style="fill:none" />
    <path
       d="M3907 4728 c-31 -42 -50 -78 -44 -85 6 -5 94 44 102 57 6 10 -15 60 -26 60 -4 0 -19 -15 -32 -32z"
       id="path414"
       style="fill:#0000cd" />
    <path
       d="M4292 4714 c-30 -18 -41 -31 -38 -42 39 -126 127 -470 135 -528 6 -41 11 -136 11 -211 0 -290 39 -544 110 -710 48 -113 112 -241 183 -368 59 -106 262 -413 310 -470 l34 -39 44 13 c62 18 212 97 238 125 l22 24 -110 343 c-61 189 -127 391 -146 449 -43 123 -72 244 -114 465 -34 179 -47 317 -57 577 -6 170 -7 177 -25 167 -10 -5 -19 -18 -19 -28 0 -38 -61 -66 -87 -40 -8 8 -21 8 -46 -2 -30 -11 -39 -10 -61 4 -31 21 -70 22 -85 3 -20 -23 -69 -30 -95 -13 -12 9 -35 17 -51 19 -16 2 -36 14 -46 28 -20 27 -56 160 -61 222 l-3 38 -43 -26z"
       id="path416"
       style="fill:#20b2aa" />
    <path
       d="M4979 4657 c-82 -40 -86 -43 -76 -66 10 -20 16 -22 51 -18 31 4 42 2 56 -15 26 -33 50 -17 50 32 0 36 3 40 24 40 31 0 56 10 56 21 0 9 -60 50 -70 48 -3 0 -44 -19 -91 -42z"
       id="path418"
       style="fill:#3cb371" />
    <path
       d="M4395 4626 c-6 -53 -4 -72 11 -102 22 -44 48 -64 64 -48 8 8 8 18 -1 37 -10 21 -9 29 5 42 16 16 15 28 -1 71 -2 6 5 14 16 17 33 8 24 25 -16 29 -21 3 -45 8 -55 12 -14 6 -17 -2 -23 -58z"
       id="path420"
       style="fill:#3cb371" />
    <path
       d="M4202 4584 c-11 -44 -26 -106 -32 -139 -6 -33 -13 -70 -15 -82 -5 -21 -3 -21 26 -11 17 6 53 8 80 5 32 -4 49 -2 49 5 0 15 -71 270 -80 287 -4 8 -15 -17 -28 -65z"
       id="path422"
       style="fill:#8b0000" />
    <path
       d="M4157 4628 c-22 -21 -28 -47 -67 -283 -23 -143 -64 -379 -92 -525 -27 -146 -58 -314 -69 -375 -84 -482 -200 -1764 -203 -2245 l-1 -235 23 -3 c21 -3 22 -1 22 75 0 43 -5 119 -10 168 -8 76 -2 183 35 675 67 870 131 1407 215 1810 16 74 47 243 69 375 64 384 81 477 96 530 8 27 13 51 11 53 -2 2 -15 -7 -29 -20z"
       id="path424"
       style="fill:#f08080" />
    <path
       d="M6401 4467 c98 -205 260 -561 329 -725 24 -56 45 -100 47 -98 2 1 -17 52 -42 111 -25 60 -42 112 -37 117 5 5 44 -18 88 -51 43 -33 80 -58 82 -56 4 4 -217 379 -242 410 -16 19 -16 19 -10 -10 3 -16 12 -51 19 -77 14 -48 7 -69 -14 -44 -12 15 -165 331 -226 468 -22 48 -49 100 -62 115 -12 16 18 -57 68 -160z"
       id="path426"
       style="fill:#0000cd" />
    <path
       d="M4758 4573 c-78 -24 -92 -35 -62 -47 13 -5 14 -9 4 -21 -15 -18 -6 -45 14 -45 9 0 20 9 27 21 l11 21 22 -21 c12 -12 30 -21 39 -21 21 0 40 35 32 60 -5 16 -2 20 19 20 28 0 36 26 14 48 -16 16 -29 14 -120 -15z"
       id="path428"
       style="fill:#3cb371" />
    <path
       d="M4085 4542 c-4 -30 -14 -56 -22 -59 -16 -6 -42 14 -52 39 -5 15 -20 8 -104 -44 -66 -41 -102 -70 -109 -87 -16 -43 -29 -192 -22 -250 l7 -55 24 30 c61 73 168 174 185 174 23 0 24 -38 4 -165 -8 -49 -19 -133 -26 -185 -6 -52 -22 -150 -36 -217 -14 -67 -24 -139 -22 -160 2 -24 24 73 60 267 76 401 130 727 125 748 -2 9 -8 -7 -12 -36z"
       id="path430"
       style="fill:#0000cd" />
    <path
       d="M4041 4561 c-8 -5 -11 -16 -8 -25 10 -25 27 -19 27 9 0 28 0 28 -19 16z"
       id="path432"
       style="fill:none" />
    <path
       d="M4600 4530 c-14 -4 -42 -8 -62 -9 -36 -1 -38 -2 -35 -33 3 -43 36 -49 81 -15 21 17 37 22 46 17 20 -12 30 -3 30 26 0 26 -14 29 -60 14z"
       id="path434"
       style="fill:#3cb371" />
    <path
       d="M6516 4313 c25 -54 48 -104 51 -110 11 -28 20 -11 13 25 -6 31 -93 182 -105 182 -2 0 16 -44 41 -97z"
       id="path436"
       style="fill:#40e0d0" />
    <path
       d="M3747 4377 c-9 -6 -21 -32 -26 -57 -14 -61 -14 -228 0 -304 12 -61 11 -62 -29 -146 -48 -100 -85 -219 -108 -345 -20 -112 -29 -395 -16 -495 10 -75 10 -75 -29 -161 -86 -190 -120 -343 -120 -549 -1 -152 4 -198 33 -321 l21 -87 -26 -53 c-60 -129 -86 -268 -94 -505 l-6 -181 30 -21 30 -21 -5 95 c-5 106 8 223 44 394 32 148 45 190 58 190 7 0 24 -29 40 -65 16 -36 48 -87 71 -113 l42 -47 6 50 c4 28 9 95 12 150 7 118 31 329 45 403 5 28 6 61 2 72 -7 19 -8 18 -39 -6 -18 -14 -65 -65 -104 -114 -39 -50 -75 -88 -79 -85 -5 3 -16 48 -26 101 -30 170 -6 386 64 580 15 43 33 79 39 81 6 2 18 -18 26 -44 19 -57 90 -211 109 -236 12 -17 17 3 41 170 15 103 34 240 42 303 8 63 19 132 24 154 21 86 -3 81 -115 -27 -61 -57 -77 -68 -85 -56 -18 25 -4 361 20 469 33 157 81 289 107 297 7 2 14 -15 19 -44 10 -69 72 -257 94 -284 18 -22 18 -22 25 57 3 43 13 106 21 139 8 33 26 146 40 250 15 105 30 210 35 235 5 25 7 47 4 49 -9 10 -83 -60 -142 -136 -46 -58 -69 -80 -76 -73 -15 15 -20 223 -8 290 6 30 9 56 8 57 -1 2 -10 -3 -19 -10z m169 -346 c-6 -70 -42 -292 -52 -324 -16 -50 -47 18 -63 138 -11 74 -10 77 18 134 32 63 77 121 93 121 7 0 9 -23 4 -69z m-156 -953 c0 -13 -9 -77 -20 -143 -31 -184 -45 -222 -67 -192 -12 16 -53 156 -53 182 0 36 100 175 127 175 7 0 13 -10 13 -22z m-94 -980 c-3 -29 -10 -111 -16 -183 -14 -180 -20 -225 -32 -225 -12 0 -63 113 -84 187 -16 58 -16 60 6 104 43 83 102 169 117 169 12 0 13 -10 9 -52z"
       id="path438"
       style="fill:#40e0d0" />
    <path
       d="M3851 3980 c-31 -57 -33 -67 -27 -122 4 -33 11 -69 15 -81 8 -20 8 -20 14 4 12 51 39 239 35 250 -2 6 -19 -17 -37 -51z"
       id="path440"
       style="fill:#0000cd" />
    <path
       d="M3683 2989 l-41 -61 15 -56 c13 -49 33 -91 33 -69 0 5 9 60 21 123 11 64 18 118 16 120 -2 3 -22 -23 -44 -57z"
       id="path442"
       style="fill:#0000cd" />
    <path
       d="M3590 2018 c-31 -56 -40 -81 -36 -105 6 -40 47 -155 54 -149 5 6 32 320 27 324 -2 2 -22 -29 -45 -70z"
       id="path444"
       style="fill:#87cefa" />
    <path
       d="M3657 4325 c-14 -10 -32 -91 -87 -388 -134 -729 -177 -1013 -205 -1332 -9 -99 -24 -270 -35 -380 -35 -366 -43 -498 -44 -751 -1 -199 2 -254 13 -267 7 -10 17 -17 21 -17 4 0 10 159 13 353 10 521 13 563 113 1362 97 778 119 921 208 1314 14 63 25 115 24 117 -2 1 -11 -4 -21 -11z"
       id="path446"
       style="fill:#f08080" />
    <path
       d="M4173 4319 c-12 -7 -24 -18 -27 -25 -3 -8 -22 -112 -41 -232 -20 -119 -56 -316 -80 -437 -24 -121 -55 -308 -69 -415 -48 -362 -64 -495 -61 -498 1 -1 31 4 66 12 156 36 502 76 657 76 39 0 72 2 72 4 0 2 -16 33 -36 68 -74 128 -173 342 -203 436 -17 53 -38 140 -46 192 -17 110 -35 370 -35 515 0 101 -30 279 -49 298 -15 15 -122 19 -148 6z"
       id="path448"
       style="fill:#8b0000" />
    <path
       d="M4944 4287 c3 -10 6 -61 6 -112 l0 -93 37 19 c39 20 107 24 178 10 33 -6 24 -8 -57 -12 -85 -4 -101 -8 -123 -29 -19 -18 -25 -33 -25 -64 0 -63 9 -70 87 -71 37 0 82 4 98 9 l30 8 -25 -18 c-19 -15 -43 -19 -102 -19 l-78 0 6 -35 c13 -73 34 -173 39 -180 13 -21 84 -19 180 4 132 32 138 39 133 166 -3 92 -5 97 -46 159 -23 35 -42 69 -42 76 0 14 -68 47 -144 69 -58 17 -97 46 -139 106 -12 17 -16 19 -13 7z"
       id="path450"
       style="fill:#4169e1" />
    <path
       d="M3575 4276 c-11 -7 -69 -43 -129 -80 l-110 -66 -44 -103 c-257 -596 -486 -1246 -558 -1576 -10 -47 -19 -80 -21 -74 -4 12 55 263 88 378 96 331 304 900 457 1253 22 50 38 92 35 92 -3 0 -36 -19 -73 -41 l-66 -41 -58 -207 c-64 -226 -226 -725 -233 -717 -3 2 18 73 46 158 96 293 218 724 207 735 -9 9 -91 -51 -91 -67 0 -9 -42 -31 -120 -61 -134 -52 -137 -55 -240 -209 -168 -251 -247 -461 -246 -650 0 -78 6 -118 37 -225 20 -71 39 -140 41 -153 3 -13 9 -22 13 -20 4 2 53 72 109 156 92 138 121 171 121 142 0 -6 -44 -77 -98 -158 -123 -184 -192 -302 -192 -331 0 -52 70 -147 159 -216 57 -43 59 -47 91 -145 77 -241 239 -510 409 -681 159 -159 146 -167 148 90 3 427 76 1211 164 1771 39 246 174 1007 185 1043 6 21 -5 22 -31 3z"
       id="path452"
       style="fill:#8b0000" />
    <path
       d="M5250 4285 c0 -4 12 -26 26 -51 36 -62 110 -131 167 -157 35 -16 47 -27 44 -39 -4 -13 4 -18 34 -23 50 -9 93 11 97 46 3 24 -10 33 -160 116 -200 111 -208 115 -208 108z"
       id="path454"
       style="fill:#483d8b" />
    <path
       d="M3632 3990 c-47 -229 -75 -397 -69 -414 2 -6 8 9 12 34 12 68 69 231 103 294 25 47 29 62 21 89 -5 18 -12 70 -16 117 l-8 85 -43 -205z"
       id="path456"
       style="fill:#4682b4" />
    <path
       d="M2810 3966 c-53 -44 -116 -98 -140 -118 -34 -28 -42 -40 -33 -49 8 -8 51 4 175 51 89 34 167 64 171 67 4 3 -8 22 -28 44 -19 21 -35 48 -35 58 0 11 -3 22 -7 24 -5 3 -51 -32 -103 -77z"
       id="path458"
       style="fill:#2f4f4f" />
    <path
       d="M2947 4023 c12 -34 35 -63 49 -63 10 0 7 12 -12 40 -27 41 -48 54 -37 23z"
       id="path460" />
    <path
       d="M6740 3816 c0 -4 47 -116 104 -249 57 -133 107 -253 111 -266 12 -38 24 -5 32 83 3 42 9 76 13 76 4 0 15 -9 25 -20 31 -35 28 -15 -12 61 l-38 74 -3 -92 c-1 -51 -7 -93 -12 -93 -5 0 -17 11 -26 25 -21 32 -124 266 -124 283 0 19 18 14 63 -16 70 -48 71 -48 55 -19 -7 14 -47 51 -88 82 -41 32 -81 62 -87 68 -7 5 -13 6 -13 3z"
       id="path462"
       style="fill:#40e0d0" />
    <path
       d="M3707 3705 c-49 -147 -82 -392 -70 -527 l5 -58 67 59 c83 73 107 87 127 70 18 -15 18 -31 -1 -154 -34 -221 -75 -527 -75 -558 0 -17 -4 -38 -9 -46 -22 -35 -62 16 -130 169 -24 52 -45 97 -46 99 -7 7 -55 -168 -71 -259 -12 -70 -15 -129 -11 -225 8 -192 6 -190 88 -90 149 181 192 161 154 -71 -16 -97 -45 -432 -45 -515 0 -37 -4 -49 -15 -49 -26 0 -89 66 -130 135 -46 79 -42 84 -80 -105 -31 -151 -42 -284 -34 -389 7 -87 7 -87 154 -161 l100 -51 7 203 c17 530 108 1564 182 2075 l32 222 -22 -5 c-32 -8 -66 47 -104 170 -18 55 -35 110 -39 121 -6 15 -14 1 -34 -60z"
       id="path464"
       style="fill:#0000ff" />
    <path
       d="M5338 3741 c-21 -38 -120 -71 -236 -78 -79 -5 -83 -7 -78 -27 3 -11 6 -25 6 -30 0 -4 46 -7 103 -4 86 3 111 8 152 29 59 30 91 77 78 114 l-8 25 -17 -29z"
       id="path466"
       style="fill:#4169e1" />
    <path
       d="M6866 3628 c4 -13 23 -57 42 -98 33 -68 36 -72 40 -46 8 62 -7 115 -42 141 -41 31 -49 31 -40 3z"
       id="path468"
       style="fill:#0000cd" />
    <path
       d="M6790 3605 c0 -5 5 -17 10 -25 5 -8 10 -10 10 -5 0 6 -5 17 -10 25 -5 8 -10 11 -10 5z"
       id="path470"
       style="fill:none" />
    <path
       d="M3551 3534 c0 -11 3 -14 6 -6 3 7 2 16 -1 19 -3 4 -6 -2 -5 -13z"
       id="path472"
       style="fill:none" />
    <path
       d="M6871 3420 c14 -31 19 -36 19 -24 0 6 -7 19 -16 30 -14 18 -14 18 -3 -6z"
       id="path474"
       style="fill:none" />
    <path
       d="M3530 3388 c0 -7 -18 -150 -40 -317 -22 -166 -40 -313 -40 -325 1 -11 11 6 24 39 13 33 35 83 49 111 25 49 25 52 16 169 -6 66 -7 168 -4 228 4 59 4 107 1 107 -3 0 -6 -6 -6 -12z"
       id="path476"
       style="fill:#4682b4" />
    <path
       d="M7010 3362 c0 -41 -27 -132 -39 -132 -4 0 -12 5 -19 12 -6 6 12 -50 41 -124 44 -118 54 -135 73 -135 24 0 57 -21 142 -90 29 -24 55 -43 58 -43 3 0 2 35 -2 78 -5 64 -15 95 -55 180 -74 157 -162 292 -190 292 -5 0 -9 -17 -9 -38z"
       id="path478"
       style="fill:#4169e1" />
    <path
       d="M7102 2924 c3 -10 39 -107 80 -214 41 -107 92 -248 113 -313 50 -153 60 -140 59 75 -1 132 1 156 12 147 11 -9 14 -7 14 8 0 22 -68 244 -78 255 -4 4 -5 -13 -4 -37 3 -28 0 -45 -7 -45 -6 0 -46 28 -89 63 -100 81 -107 85 -100 61z m137 -139 l68 -55 7 -97 c4 -54 9 -115 13 -135 4 -31 2 -38 -11 -38 -9 0 -16 4 -16 10 0 5 -31 83 -70 174 -65 153 -79 196 -64 196 3 0 36 -25 73 -55z"
       id="path480"
       style="fill:#0000cd" />
    <path
       d="M7215 2751 c4 -12 22 -55 41 -94 l35 -72 -6 49 c-3 27 -5 57 -5 66 0 10 -16 30 -36 45 -34 26 -36 27 -29 6z"
       id="path482"
       style="fill:#0000cd" />
    <path
       d="M7074 2900 c2 -8 41 -125 86 -258 120 -362 260 -846 260 -901 0 -11 4 -21 9 -21 15 0 26 144 25 335 -1 193 -24 393 -52 455 -16 35 -16 34 -22 -95 -6 -127 -25 -205 -49 -205 -6 0 -15 19 -21 43 -31 121 -204 603 -231 646 -8 13 -9 13 -5 1z"
       id="path484"
       style="fill:#40e0d0" />
    <path
       d="M4420 2764 c-213 -22 -507 -69 -523 -84 -12 -11 -22 -106 -57 -570 -17 -223 -37 -481 -45 -574 -11 -124 -13 -229 -9 -393 6 -172 4 -223 -5 -223 -45 0 -283 118 -411 203 -233 156 -379 305 -511 523 -55 93 -149 286 -169 349 -7 22 -16 44 -20 48 -10 11 -83 -96 -121 -176 -97 -209 -93 -457 11 -675 68 -142 154 -247 299 -364 436 -352 1152 -610 1946 -702 459 -53 1106 -53 1500 0 398 53 740 163 929 298 80 57 179 163 211 226 54 107 68 224 40 335 -34 136 -197 419 -350 610 -373 467 -915 838 -1500 1029 -94 30 -305 86 -327 86 -4 0 -2 -13 3 -30 10 -29 14 -30 67 -30 32 0 63 -4 71 -9 9 -6 16 -41 21 -112 5 -86 16 -133 60 -271 48 -152 56 -168 76 -168 40 0 53 -11 69 -61 14 -41 29 -59 86 -105 122 -99 209 -259 209 -386 0 -76 -15 -76 -77 2 -44 55 -48 58 -56 37 -12 -32 -2 -59 39 -108 30 -36 35 -48 29 -73 -10 -51 -8 -71 13 -119 14 -32 27 -47 40 -47 10 0 29 -11 41 -24 18 -19 22 -33 19 -61 -4 -35 -1 -40 61 -90 36 -28 88 -67 115 -85 27 -18 68 -52 90 -74 39 -39 44 -41 102 -41 50 -1 70 -6 109 -30 60 -37 111 -124 127 -216 5 -35 19 -73 29 -85 29 -31 23 -58 -28 -130 -61 -84 -135 -134 -242 -163 -44 -12 -105 -30 -137 -41 -88 -31 -292 -71 -365 -72 -103 -2 -183 48 -266 170 -29 41 -42 52 -63 52 -47 0 -150 89 -150 129 0 17 -49 150 -99 270 -34 81 -39 127 -16 171 25 48 38 161 26 226 -17 90 -53 160 -87 168 -51 12 -210 94 -243 125 -36 34 -36 15 1 284 16 115 18 154 9 173 -15 33 -14 97 1 112 7 7 20 12 30 12 19 0 34 40 24 66 -3 9 -15 18 -27 21 -102 27 -419 238 -419 279 0 28 88 102 167 141 l79 38 -67 105 -66 105 -129 1 c-71 1 -145 0 -164 -2z"
       id="path486"
       style="fill:#bdb76b" />
    <path
       d="M5340 2606 c0 -7 5 -28 11 -46 l12 -33 23 38 c12 21 28 42 36 46 8 6 -5 9 -34 9 -34 0 -48 -4 -48 -14z"
       id="path488"
       style="fill:#9370db" />
    <path
       d="M5417 2567 c-10 -19 -43 -59 -72 -89 -43 -44 -75 -65 -162 -104 -99 -45 -115 -49 -198 -52 -81 -3 -286 26 -303 42 -2 3 -2 17 2 31 10 38 116 109 116 77 0 -4 -12 -15 -28 -24 -33 -20 -67 -56 -60 -64 12 -11 179 -35 228 -32 l50 3 -61 85 c-33 47 -62 86 -64 88 -10 10 -157 -71 -195 -107 l-44 -42 25 -23 c33 -33 170 -130 249 -177 43 -25 100 -47 164 -63 71 -18 106 -32 125 -50 32 -32 21 -45 -16 -19 -15 11 -43 25 -60 31 -31 10 -33 9 -33 -11 0 -12 -3 -32 -6 -44 -5 -18 0 -25 32 -38 80 -33 226 -65 301 -65 41 0 82 -4 92 -9 10 -6 26 -28 36 -50 19 -43 22 -46 43 -33 10 7 9 16 -3 45 -20 49 -19 73 5 97 24 24 25 34 5 64 -9 13 -37 88 -64 167 l-48 144 -8 -60 c-4 -33 -16 -87 -26 -120 -10 -33 -19 -69 -20 -80 0 -11 -3 -15 -5 -8 -3 7 4 57 15 112 21 101 26 247 13 359 l-7 53 -18 -34z m-157 -522 c24 -25 40 -45 36 -45 -13 0 -96 70 -96 81 0 18 17 8 60 -36z"
       id="path490"
       style="fill:#6a5acd" />
    <path
       d="M3377 2083 c-4 -54 -9 -163 -12 -243 l-6 -145 29 80 c16 44 35 94 42 112 12 27 11 41 -3 101 -10 39 -20 98 -23 131 -4 34 -10 61 -14 61 -4 0 -10 -44 -13 -97z"
       id="path492"
       style="fill:#87cefa" />
    <path
       d="M5605 2060 c-3 -5 2 -13 11 -18 12 -7 15 -20 12 -50 -3 -35 0 -43 19 -53 27 -14 158 -164 227 -259 27 -36 49 -66 51 -68 1 -1 -1 14 -5 36 -15 83 -85 178 -212 287 -33 28 -49 52 -57 81 -11 40 -34 63 -46 44z"
       id="path494"
       style="fill:#6a5acd" />
    <path
       d="M5005 1970 c-15 -24 8 -70 51 -105 50 -41 53 -60 4 -25 -30 21 -32 21 -28 4 2 -10 20 -30 41 -44 44 -28 34 -39 -13 -15 -18 9 -34 14 -36 12 -3 -2 -14 -68 -25 -146 -24 -166 -34 -145 102 -215 68 -34 111 -48 208 -66 67 -13 124 -20 128 -17 3 4 0 100 -7 214 -7 115 -11 234 -8 265 l4 56 -60 7 c-72 7 -198 38 -270 66 -57 21 -82 24 -91 9z"
       id="path496"
       style="fill:#6a5acd" />
    <path
       d="M5590 1911 c0 -26 35 -68 44 -53 4 7 0 15 -8 18 -24 9 -19 24 7 24 21 1 22 1 3 15 -27 20 -46 19 -46 -4z"
       id="path498"
       style="fill:#483d8b" />
    <path
       d="M5454 1878 c-10 -16 -6 -210 6 -372 15 -192 19 -176 -42 -176 -101 0 -236 36 -342 89 -55 28 -91 42 -80 31 26 -25 164 -93 244 -120 41 -14 101 -24 164 -27 l98 -6 -8 109 c-5 60 -9 193 -9 297 0 138 -3 187 -12 187 -6 0 -15 -6 -19 -12z"
       id="path500"
       style="fill:#483d8b" />
    <path
       d="M5505 1830 c3 -5 8 -10 11 -10 2 0 4 5 4 10 0 6 -5 10 -11 10 -5 0 -7 -4 -4 -10z"
       id="path502"
       style="fill:none" />
    <path
       d="M5636 1825 c-11 -8 -46 -20 -78 -26 l-59 -12 3 -56 c3 -55 4 -56 31 -54 35 2 139 42 169 64 l22 17 -27 41 c-30 45 -34 47 -61 26z"
       id="path504"
       style="fill:#4169e1" />
    <path
       d="M5717 1818 c10 -14 45 -61 78 -105 32 -43 77 -102 98 -130 38 -50 57 -65 57 -43 0 6 -6 10 -12 11 -7 0 -37 37 -66 82 -29 45 -80 111 -113 147 -34 36 -52 53 -42 38z"
       id="path506"
       style="fill:#483d8b" />
    <path
       d="M5662 1693 c-40 -20 -93 -38 -118 -41 -41 -4 -45 -7 -40 -26 3 -12 6 -52 6 -89 0 -53 4 -69 16 -74 37 -14 268 83 279 118 3 10 -1 32 -9 48 -9 17 -16 39 -16 49 0 17 -29 53 -41 51 -2 0 -37 -17 -77 -36z"
       id="path508"
       style="fill:#4169e1" />
    <path
       d="M5720 1495 c-36 -18 -95 -41 -132 -50 -54 -14 -68 -21 -68 -36 0 -14 7 -19 29 -19 58 0 95 -95 53 -133 -23 -21 -71 -22 -100 -1 -13 9 -25 14 -27 12 -5 -4 41 -222 50 -240 4 -7 0 -5 -8 5 -16 19 -57 159 -57 193 0 33 -13 40 -93 50 -68 9 -77 8 -71 -6 45 -102 56 -207 32 -321 -9 -45 -9 -66 1 -96 20 -61 75 -128 140 -172 72 -49 91 -74 131 -177 65 -165 143 -276 202 -289 44 -10 107 27 206 120 67 62 103 88 148 104 102 39 220 70 334 88 108 18 110 18 110 45 0 44 -36 146 -65 184 -40 52 -104 78 -174 71 -166 -18 -319 -83 -438 -185 -104 -90 -122 -99 -51 -26 l58 59 -69 -3 c-48 -3 -78 1 -97 12 -33 17 -157 136 -150 143 3 3 41 -27 85 -65 66 -58 87 -72 125 -77 64 -10 114 1 164 36 52 38 172 93 232 109 77 19 76 18 45 50 -16 17 -63 54 -104 82 -42 29 -97 69 -122 90 -25 21 -55 38 -68 38 -32 0 -71 43 -71 79 0 16 4 32 9 35 14 9 -41 136 -59 136 -51 0 -80 89 -41 124 16 15 18 22 9 42 -14 30 -19 30 -98 -11z m-32 -373 c48 -65 -4 -148 -81 -128 -27 6 -57 50 -57 81 0 9 14 30 30 47 26 25 36 29 63 24 18 -3 38 -14 45 -24z m-130 -224 c6 -21 8 -38 6 -38 -9 0 -32 65 -27 73 7 12 9 7 21 -35z"
       id="path510"
       style="fill:#4b0082" />
    <path
       d="M5596 1104 c-19 -18 -21 -55 -4 -72 15 -15 61 -15 76 0 28 28 2 88 -38 88 -10 0 -26 -7 -34 -16z"
       id="path512"
       style="fill:#808000" />
    <path
       d="M5815 1430 c-8 -26 11 -60 36 -60 24 0 33 21 25 55 -8 32 -51 35 -61 5z"
       id="path514"
       style="fill:#808000" />
    <path
       d="M5529 1368 c0 -2 -1 -24 -2 -51 -2 -38 2 -48 16 -53 26 -8 59 24 51 50 -8 28 -34 56 -51 56 -7 0 -13 -1 -14 -2z"
       id="path516"
       style="fill:#808000" />
    <path
       d="M5937 1193 c-11 -11 -8 -48 5 -61 32 -32 71 6 48 48 -10 19 -40 27 -53 13z"
       id="path518"
       style="fill:#808000" />
    <path
       d="M5296 828 c21 -71 78 -149 125 -173 51 -27 65 -16 17 14 -49 31 -84 72 -117 139 -23 45 -37 56 -25 20z"
       id="path520"
       style="fill:#808000" />
    <path
       d="M5360 658 c0 -2 16 -43 35 -91 19 -48 35 -93 35 -101 0 -18 85 -96 105 -96 12 0 15 16 15 93 0 119 -16 150 -78 153 -23 1 -57 12 -77 24 -19 12 -35 20 -35 18z"
       id="path522"
       style="fill:#4b0082" />
    <path
       d="M6535 509 c-182 -33 -338 -75 -405 -110 -19 -9 -57 -41 -85 -69 -72 -75 -159 -132 -210 -138 -78 -8 -125 33 -204 178 -51 95 -51 95 -51 54 0 -71 115 -217 205 -260 86 -41 111 -35 215 56 146 127 223 166 375 191 60 10 131 27 158 36 40 14 51 15 68 4 23 -14 22 -14 37 15 9 17 8 25 -7 38 -19 18 -24 18 -96 5z"
       id="path524"
       style="fill:#4b0082" />
    <path
       d="M6530 418 c-14 -5 -74 -18 -135 -29 -138 -23 -240 -71 -342 -161 -39 -35 -72 -66 -72 -70 -1 -9 157 27 269 61 52 16 120 36 150 45 66 18 141 66 176 112 37 48 16 68 -46 42z"
       id="path526"
       style="fill:#4b0082" />
    <path
       d="M1647 9303 c-60 -219 -112 -408 -117 -419 -5 -12 -21 -25 -36 -28 -37 -10 -745 -256 -763 -265 -9 -6 -2 -15 25 -32 111 -68 642 -419 662 -437 22 -21 22 -26 23 -264 1 -134 4 -323 8 -422 l6 -178 334 267 334 268 51 -16 c385 -118 759 -227 763 -224 2 3 -61 179 -141 392 -80 212 -146 393 -146 401 0 13 83 132 452 649 l79 110 -30 3 c-16 2 -201 -8 -411 -22 -210 -15 -402 -26 -428 -25 l-47 1 -235 294 c-129 162 -244 306 -255 320 l-21 26 -107 -399z m358 -228 c81 -107 154 -200 161 -206 10 -8 73 -8 241 0 281 14 303 14 303 0 0 -6 -64 -104 -143 -218 -79 -113 -146 -211 -150 -217 -4 -7 36 -125 88 -264 53 -139 93 -255 91 -258 -3 -3 -123 30 -265 73 l-260 78 -205 -164 c-113 -90 -211 -164 -218 -164 -10 0 -14 58 -19 261 -3 143 -9 267 -14 274 -4 7 -107 78 -228 157 -127 84 -216 148 -211 153 8 8 146 58 411 150 54 19 94 39 98 49 3 9 35 122 71 251 79 287 71 265 88 251 8 -7 80 -99 161 -206z"
       id="path528"
       style="fill:#adff2f" />
    <path
       d="M1836 9223 c-3 -10 -33 -119 -66 -243 -34 -124 -66 -229 -70 -234 -4 -4 -86 -35 -182 -68 -95 -33 -202 -70 -238 -83 l-65 -22 218 -143 217 -143 1 -141 c1 -78 4 -193 8 -258 l6 -116 200 160 c146 117 205 158 220 155 11 -3 122 -36 248 -75 125 -38 227 -67 227 -65 0 2 -41 111 -90 242 l-91 239 146 210 c80 115 145 211 145 213 0 2 -111 -1 -247 -8 -137 -7 -255 -10 -263 -7 -8 3 -80 93 -160 200 -80 107 -148 197 -152 200 -4 2 -9 -4 -12 -13z"
       id="path530"
       style="fill:#7fff00" />
    <path
       d="M8553 6384 l-152 -104 -167 65 c-93 36 -171 65 -175 65 -3 0 16 -75 42 -166 27 -92 49 -175 49 -184 0 -9 -51 -80 -114 -157 l-114 -141 189 -7 188 -7 101 -155 c56 -85 103 -153 104 -151 2 1 29 77 61 168 32 91 63 170 69 176 6 6 85 30 176 54 91 23 168 45 173 47 4 2 -59 55 -140 117 -121 93 -148 117 -147 137 9 176 15 349 13 349 -2 -1 -72 -48 -156 -106z m84 -161 l-2 -127 92 -70 c51 -39 91 -75 89 -81 -1 -5 -53 -24 -114 -40 -61 -17 -113 -33 -117 -37 -4 -3 -24 -55 -45 -114 -20 -60 -42 -110 -47 -111 -6 -2 -39 41 -74 96 -37 59 -72 102 -84 105 -11 3 -66 6 -122 6 -56 0 -104 4 -107 9 -3 5 28 51 69 102 41 51 75 96 75 100 0 4 -15 57 -34 118 -18 61 -30 114 -25 116 4 3 55 -13 113 -35 59 -22 112 -40 119 -40 6 1 53 29 102 65 50 35 96 64 102 64 9 1 12 -31 10 -126z"
       id="path532"
       style="fill:#ffc0cb" />
    <path
       d="M8521 6250 c-46 -33 -90 -60 -97 -60 -6 0 -53 16 -104 36 -51 19 -94 33 -96 31 -2 -2 10 -49 28 -105 l31 -101 -68 -83 c-65 -80 -67 -83 -44 -89 13 -4 62 -7 110 -8 l85 -1 58 -91 c42 -64 61 -87 67 -77 5 7 21 49 35 93 15 44 31 85 35 91 5 6 48 21 96 34 49 12 94 26 101 30 9 4 -14 27 -72 71 l-86 64 6 113 c4 61 5 112 3 112 -2 -1 -42 -28 -88 -60z"
       id="path534"
       style="fill:#ff0000" />
    <path
       d="M2386 6015 c-48 -85 -91 -157 -96 -160 -4 -3 -88 -12 -186 -21 -98 -8 -180 -16 -181 -18 -2 -1 51 -62 118 -134 66 -73 121 -140 121 -150 1 -9 -16 -90 -36 -180 -21 -90 -36 -165 -33 -168 2 -3 75 27 162 66 86 38 163 70 170 70 8 0 82 -41 165 -91 83 -50 153 -89 155 -87 2 1 -5 80 -16 173 -10 94 -19 175 -19 182 0 6 61 63 135 127 74 64 135 121 135 125 0 5 -51 18 -112 31 -62 12 -143 28 -179 37 l-66 14 -68 165 c-38 91 -72 167 -76 169 -3 2 -45 -65 -93 -150z m134 -107 c24 -57 47 -108 52 -114 5 -6 60 -22 123 -34 68 -13 115 -27 115 -34 0 -7 -40 -47 -90 -89 -49 -43 -90 -83 -90 -90 1 -7 7 -59 14 -117 7 -58 10 -109 6 -114 -5 -4 -53 19 -107 53 -55 34 -105 61 -111 61 -6 0 -54 -20 -108 -45 -97 -45 -124 -53 -124 -36 0 6 11 56 25 113 14 57 25 108 25 114 0 5 -36 50 -80 99 -43 48 -77 91 -75 95 3 4 35 11 72 14 38 4 92 9 120 12 l53 6 51 92 c57 100 68 116 79 116 4 0 26 -46 50 -102z"
       id="path536"
       style="fill:#ffe4c4" />
    <path
       d="M2409 5868 l-54 -93 -105 -9 c-58 -4 -107 -10 -109 -12 -2 -2 29 -39 69 -83 l72 -80 -24 -106 c-14 -58 -22 -105 -17 -105 4 0 46 18 94 40 48 22 92 40 97 40 6 0 47 -22 93 -50 46 -27 87 -50 92 -50 6 0 4 41 -3 103 l-13 102 37 35 c20 19 59 54 86 76 l48 41 -110 23 -110 23 -38 91 c-20 50 -40 95 -44 99 -4 5 -32 -34 -61 -85z"
       id="path538"
       style="fill:#ff4500" />
    <path
       d="M1583 3973 c-10 -17 -38 -66 -63 -110 l-45 -81 -117 -9 c-65 -5 -121 -12 -124 -16 -4 -3 30 -47 76 -96 l82 -90 -28 -116 c-15 -63 -24 -118 -21 -121 3 -3 51 15 107 40 56 25 108 46 115 46 8 0 59 -27 113 -60 55 -33 102 -60 104 -60 2 0 -2 57 -10 126 -8 69 -12 126 -10 128 30 20 187 161 181 163 -4 2 -59 14 -121 27 -63 13 -117 28 -121 32 -4 5 -27 56 -51 114 -23 58 -44 107 -46 109 -1 2 -11 -10 -21 -26z m46 -130 c39 -97 42 -100 120 -113 105 -19 106 -21 28 -91 -44 -40 -66 -67 -63 -78 13 -46 17 -151 6 -151 -6 0 -42 18 -80 41 l-68 40 -70 -30 c-39 -17 -75 -31 -81 -31 -15 0 -14 19 5 101 l16 69 -56 61 c-31 33 -56 64 -56 68 0 10 60 21 117 21 49 0 61 10 105 90 18 33 37 60 43 60 6 0 22 -26 34 -57z"
       id="path540"
       style="fill:#dda0dd" />
    <path
       d="M1560 3799 c-31 -66 -51 -79 -122 -79 -32 0 -58 -3 -58 -7 0 -4 21 -29 47 -55 l47 -48 -17 -64 c-9 -35 -17 -69 -17 -75 0 -6 27 2 60 19 33 16 65 30 72 30 7 0 37 -16 66 -36 30 -20 56 -33 59 -30 3 3 0 33 -6 67 -6 34 -7 67 -3 75 4 7 28 29 55 49 26 20 45 40 42 45 -3 4 -29 11 -58 15 -73 10 -81 16 -106 85 -12 33 -26 60 -30 60 -4 0 -18 -23 -31 -51z"
       id="path542"
       style="fill:#9932cc" />
    <path
       d="M8740 3690 c-79 -55 -148 -100 -155 -100 -6 0 -85 29 -175 64 -91 35 -166 62 -168 61 -2 -2 19 -80 47 -174 28 -94 51 -174 51 -179 0 -5 -51 -72 -114 -150 -63 -77 -112 -143 -109 -146 4 -3 84 -6 180 -6 152 0 175 -2 191 -18 9 -9 57 -79 106 -155 49 -76 91 -135 95 -132 3 3 33 81 66 173 l60 167 174 47 c95 26 176 49 178 52 3 2 -61 55 -142 118 l-146 113 6 110 c3 60 8 143 11 183 3 40 2 72 -3 72 -5 0 -74 -45 -153 -100z m79 -157 l-4 -127 92 -71 c51 -38 92 -75 93 -82 0 -6 -26 -19 -57 -28 -190 -53 -175 -45 -194 -100 -10 -28 -28 -78 -39 -112 -12 -35 -27 -63 -33 -63 -7 0 -41 45 -76 100 l-64 100 -77 0 c-90 0 -170 9 -170 20 0 4 33 49 74 100 41 51 73 98 71 104 -17 53 -65 215 -65 220 0 13 33 5 135 -34 l105 -40 102 70 c55 39 103 70 106 70 2 0 2 -57 1 -127z"
       id="path544"
       style="fill:#00ffff" />
    <path
       d="M8759 3592 c-13 -10 -51 -37 -85 -61 l-61 -42 -101 40 c-62 24 -102 35 -102 28 0 -7 13 -54 29 -105 l29 -93 -64 -81 c-35 -45 -64 -85 -64 -90 0 -4 47 -8 105 -8 l104 0 58 -90 c32 -49 61 -90 64 -90 4 0 22 43 40 95 18 53 37 99 43 104 6 4 53 18 104 31 50 12 92 26 92 30 0 4 -37 36 -81 70 l-81 63 4 109 c2 59 1 108 -2 108 -4 0 -18 -8 -31 -18z"
       id="path546"
       style="fill:#0000ff" />
  </g>
</svg>
