<?xml version="1.0" standalone="no"?>
<!DOCTYPE svg PUBLIC "-//W3C//DTD SVG 20010904//EN"
 "http://www.w3.org/TR/2001/REC-SVG-20010904/DTD/svg10.dtd">
<svg version="1.0" xmlns="http://www.w3.org/2000/svg"
 width="1024.000000pt" height="1024.000000pt" viewBox="0 0 1024.000000 1024.000000"
 preserveAspectRatio="xMidYMid meet">
<metadata>
Created by potrace 1.14, written by Peter Selinger 2001-2017
</metadata>
<g transform="translate(0.000000,1024.000000) scale(0.100000,-0.100000)"
fill="#000000" stroke="none">
<path d="M6170 10063 c-141 -10 -394 -67 -566 -127 -568 -198 -901 -493 -1195
-1061 -126 -244 -153 -356 -194 -825 -20 -220 -26 -257 -80 -443 -75 -264 -80
-297 -80 -532 0 -186 3 -221 24 -305 31 -127 90 -276 150 -382 108 -188 174
-521 175 -893 1 -259 -23 -432 -89 -648 -29 -96 -57 -143 -102 -172 -17 -11
-70 -45 -118 -75 -225 -142 -399 -367 -471 -607 -37 -121 -39 -299 -5 -417 30
-108 84 -213 154 -299 65 -82 75 -107 58 -153 -40 -110 -44 -167 -50 -734 l-7
-555 -47 -165 c-74 -261 -89 -340 -92 -485 l-3 -130 -35 -53 c-69 -102 -105
-246 -93 -377 4 -38 20 -124 36 -190 l30 -120 -28 -155 -28 -155 34 -3 c19 -2
35 -2 37 0 3 2 107 626 121 724 l4 31 81 -53 c87 -57 163 -87 395 -158 387
-117 519 -139 1014 -172 135 -8 246 -17 247 -18 2 -1 -31 -81 -72 -176 -41
-96 -75 -175 -75 -177 0 -2 15 -3 33 -3 32 0 33 2 77 112 l45 112 3 -112 3
-112 34 0 34 0 -6 179 -6 180 34 5 c19 2 108 10 199 15 526 34 1102 146 1542
301 78 28 143 48 146 45 8 -8 -69 -218 -113 -308 -69 -137 -131 -224 -233
-324 l-94 -93 42 0 c37 0 48 6 102 57 112 107 202 246 269 417 l28 71 1 -47
c0 -70 -36 -242 -79 -378 -39 -120 -39 -120 -16 -120 19 0 29 15 63 98 172
416 147 756 -98 1371 -104 263 -157 459 -180 668 -13 119 -1 256 31 381 86
325 103 420 115 617 11 192 -29 487 -89 645 -65 172 -189 457 -227 525 -24 41
-90 137 -147 213 -103 138 -172 255 -191 324 -13 46 -17 45 140 19 205 -36
375 -107 526 -220 85 -65 213 -195 238 -243 9 -16 20 -83 27 -149 13 -139 3
-272 -39 -524 -22 -138 -25 -181 -21 -310 4 -140 6 -157 40 -256 20 -58 39
-125 43 -150 10 -75 23 -108 114 -294 110 -223 115 -249 105 -524 -7 -204 -2
-226 31 -128 12 34 20 96 24 182 l5 130 27 -52 c15 -28 40 -87 54 -130 24 -68
27 -93 26 -192 -1 -140 -15 -264 -49 -446 -36 -190 -37 -388 -3 -635 16 -118
24 -226 24 -330 1 -182 0 -187 -110 -424 -41 -88 -74 -161 -74 -163 0 -2 19
-3 43 -3 41 0 44 2 74 53 60 98 76 143 200 552 65 216 89 440 79 741 -11 352
-50 582 -171 1003 -96 337 -109 402 -109 576 1 172 21 286 99 546 106 353 119
415 119 579 1 159 -10 212 -67 325 -60 121 -118 192 -246 298 -102 86 -157
159 -227 302 -158 328 -202 658 -135 1017 16 85 35 165 42 177 13 20 101 71
124 71 6 0 17 -61 28 -156 42 -376 121 -600 270 -772 80 -92 177 -174 415
-354 299 -224 371 -303 413 -456 44 -156 16 -306 -108 -592 -30 -69 -81 -190
-113 -270 -55 -139 -58 -150 -65 -262 -10 -177 -8 -395 5 -482 22 -146 82
-318 310 -891 192 -481 218 -564 259 -832 70 -449 67 -753 -9 -1048 -17 -64
-30 -119 -30 -121 0 -3 27 -4 61 -2 l61 3 30 70 c17 39 45 110 63 160 19 51
36 84 39 75 3 -8 20 -80 39 -160 l33 -145 33 -3 c31 -3 33 -2 27 20 -83 286
-93 449 -51 829 34 306 40 457 26 622 -28 312 -100 544 -256 817 -68 119 -91
204 -105 390 -8 106 -7 188 2 328 18 267 16 554 -6 670 -21 116 -73 276 -122
379 l-38 78 -1 185 c-1 235 -6 251 -141 429 -26 34 -33 54 -39 114 -34 347
-134 540 -393 755 -57 47 -110 121 -219 307 -81 138 -162 253 -239 341 -51 58
-54 64 -54 115 -1 61 -12 82 -58 101 l-31 13 59 92 c157 240 250 506 250 716
0 69 17 106 66 143 38 29 128 195 166 304 81 234 117 679 74 909 -51 279 -171
520 -354 713 -208 218 -417 342 -852 505 -154 58 -186 66 -265 71 -77 4 -94 9
-128 33 -58 42 -138 68 -240 79 -90 9 -125 10 -217 3z m369 -70 c29 -14 56
-34 58 -44 3 -11 17 -21 37 -24 17 -3 75 -12 128 -20 112 -17 266 -78 553
-220 190 -93 283 -152 398 -249 384 -329 557 -910 441 -1486 -17 -85 -75 -270
-84 -270 -4 0 -52 49 -107 108 -105 112 -204 197 -224 190 -6 -2 63 -75 154
-162 165 -157 166 -158 150 -182 l-16 -24 -66 36 c-106 58 -257 161 -284 193
l-25 30 34 98 c44 130 64 233 71 367 20 378 -112 758 -342 991 -176 179 -401
275 -775 331 -207 32 -555 23 -678 -17 -64 -21 -17 -26 108 -12 452 51 1015
-76 1217 -274 53 -50 73 -81 117 -175 30 -62 70 -165 90 -228 36 -114 76 -293
76 -334 0 -11 -34 43 -75 121 -112 214 -181 311 -319 448 -125 124 -261 226
-361 271 -99 43 -89 25 30 -54 289 -194 509 -473 651 -827 88 -217 106 -290
111 -445 2 -74 0 -155 -4 -180 l-9 -45 -97 94 c-53 52 -100 92 -103 88 -9 -9
25 -67 78 -134 119 -151 315 -307 448 -359 60 -23 63 -27 49 -57 -10 -22 -19
-27 -46 -27 -67 0 -328 122 -493 230 -177 117 -469 433 -1041 1129 -52 63
-105 121 -119 130 -24 15 -25 15 -9 -4 8 -11 38 -47 66 -80 27 -33 114 -148
193 -255 369 -504 620 -799 783 -920 52 -39 63 -65 98 -233 58 -284 48 -514
-38 -837 l-18 -65 -7 45 c-3 25 -7 98 -7 162 -1 109 1 120 24 154 35 52 46 95
52 210 6 112 -8 214 -37 282 -42 94 -129 175 -201 187 -23 4 -43 14 -49 25 -5
10 -32 81 -59 157 -27 76 -54 150 -61 165 -16 33 -33 27 -20 -6 44 -116 168
-597 214 -827 43 -214 51 -310 37 -416 -34 -241 -143 -404 -386 -575 -55 -39
-175 -102 -181 -95 -3 2 51 60 119 128 138 138 211 240 257 361 50 129 62 187
67 325 3 73 10 130 14 127 17 -10 9 35 -20 113 -46 123 -91 217 -199 409 -169
304 -279 542 -326 709 -47 165 -58 197 -66 189 -10 -10 10 -131 40 -246 32
-125 68 -223 132 -363 110 -239 103 -208 102 -475 -1 -194 -5 -256 -23 -355
-40 -221 -42 -227 -138 -307 -46 -39 -86 -68 -89 -65 -4 3 -8 73 -11 154 -8
223 44 657 94 790 6 16 5 16 -11 4 -9 -8 -23 -26 -31 -41 -19 -37 -81 -332
-101 -480 -21 -158 -14 -383 15 -515 17 -80 18 -92 5 -113 -35 -55 -346 -264
-352 -237 -4 17 84 358 144 559 129 432 143 790 49 1276 -50 255 -55 293 -65
493 -7 149 -13 198 -35 271 -70 239 -188 392 -353 457 -88 36 -216 33 -299 -5
-60 -28 -91 -51 -81 -61 3 -3 32 7 64 22 51 24 72 28 150 28 84 0 95 -2 166
-38 55 -26 92 -54 132 -98 31 -33 56 -64 56 -69 0 -6 -24 8 -52 30 -100 76
-231 105 -362 80 -64 -12 -118 -41 -104 -55 4 -4 26 0 50 8 146 53 320 9 425
-107 134 -148 197 -337 223 -671 6 -77 20 -189 30 -250 56 -320 74 -556 59
-747 -17 -217 -24 -195 -25 79 0 147 -5 320 -11 383 -12 129 -126 741 -145
780 l-12 25 -3 -30 c-2 -16 14 -151 36 -300 21 -148 37 -271 36 -273 -2 -2
-28 13 -58 33 -64 42 -58 26 -92 257 -39 264 -75 382 -158 515 -42 68 -129
154 -186 182 -59 31 -141 51 -203 51 -57 0 -58 1 -77 38 -57 110 -202 175
-335 151 -75 -13 -125 -39 -183 -92 -52 -48 -453 -641 -490 -726 -46 -103 -53
-158 -53 -433 0 -243 -10 -358 -32 -358 -15 0 -9 510 8 631 46 332 194 678
372 871 134 144 331 239 467 225 44 -4 101 -23 193 -64 23 -10 12 25 -14 46
-35 28 -145 61 -200 61 -169 0 -350 -92 -503 -256 -142 -152 -249 -358 -310
-602 -53 -210 -87 -712 -61 -912 12 -93 12 -95 -103 -325 l-89 -180 6 108 c8
133 32 254 84 428 55 181 59 208 77 479 19 288 29 368 61 490 74 280 336 657
591 849 139 104 288 156 425 149 81 -4 113 -24 147 -92 29 -58 51 -50 33 13
-44 144 -227 161 -507 47 l-40 -17 30 26 c49 43 198 140 258 170 51 24 67 27
164 27 69 0 131 -6 171 -16 79 -21 97 -17 51 12 -39 24 -138 52 -183 52 -44 0
-24 13 90 59 125 50 231 76 269 67 35 -9 92 -67 97 -98 6 -36 -9 -79 -43 -121
-17 -21 -28 -41 -25 -44 12 -13 77 27 96 59 46 76 35 135 -38 197 -51 44 -56
40 74 66 133 26 232 34 364 29 109 -4 132 -8 179 -31z m-1264 -857 c28 -13 59
-34 70 -46 l20 -23 -25 7 c-14 3 -61 9 -105 12 -86 7 -166 -8 -254 -47 l-46
-20 45 46 c91 93 195 118 295 71z m2270 -106 c54 -107 99 -243 128 -384 19
-95 22 -142 22 -326 -1 -176 -4 -222 -17 -255 -16 -40 -17 -38 -17 121 -2 339
-48 603 -151 869 -44 112 -30 102 35 -25z m-2243 11 c32 -6 70 -19 85 -30 17
-13 64 -27 117 -36 124 -22 200 -60 272 -138 104 -110 169 -265 238 -568 34
-146 42 -199 31 -199 -2 0 -26 9 -53 19 -61 24 -173 47 -273 56 -105 9 -318
-11 -342 -33 -37 -33 -107 -134 -107 -154 0 -19 5 -20 53 -15 200 21 504 46
568 47 44 0 95 -7 122 -16 l47 -16 0 -94 c0 -52 -3 -94 -6 -94 -4 0 -45 22
-93 49 -158 92 -314 127 -401 92 -46 -19 -120 -69 -120 -82 0 -6 12 -1 28 9
15 11 51 28 81 37 46 16 62 16 120 6 37 -7 89 -23 117 -36 l49 -24 -65 6 c-36
3 -99 0 -140 -6 -75 -12 -168 -46 -157 -57 4 -4 44 1 91 11 116 24 290 17 395
-17 67 -21 105 -48 90 -63 -3 -3 -51 7 -105 21 -117 32 -254 36 -373 10 -78
-16 -105 -31 -97 -52 5 -14 -6 -19 -67 -30 -52 -9 -33 -27 28 -26 l46 0 46
-69 c45 -68 47 -69 116 -90 99 -29 197 -35 280 -15 106 25 100 29 93 -66 -3
-46 -13 -297 -22 -558 -10 -316 -20 -498 -29 -545 -32 -154 -124 -279 -254
-345 -31 -15 -157 -61 -281 -101 -257 -83 -328 -93 -439 -64 -159 41 -212 102
-286 330 -18 55 -44 165 -59 245 -38 208 -56 277 -73 292 -14 11 -15 9 -10
-17 11 -54 27 -188 23 -192 -6 -7 -113 221 -134 287 -49 153 -112 442 -112
513 0 29 16 117 35 197 20 80 41 200 47 267 l11 122 51 -44 c82 -70 149 -99
226 -98 37 0 81 7 102 16 36 16 36 17 26 59 -13 60 -57 135 -98 169 -36 30
-126 69 -159 69 -10 0 -29 9 -42 20 l-24 19 41 1 c51 0 114 -21 174 -60 55
-35 60 -36 53 -10 -8 31 -89 99 -156 131 -54 25 -157 53 -157 43 0 -2 26 -17
58 -33 l57 -30 -52 -1 c-41 0 -58 -5 -84 -27 l-32 -27 6 94 c3 52 11 123 17
157 l12 61 40 -14 c121 -42 322 -172 379 -244 34 -42 59 -133 59 -210 0 -83
-34 -228 -68 -295 -17 -33 -59 -92 -94 -130 -35 -39 -84 -97 -109 -130 -90
-118 -91 -138 -11 -213 77 -73 170 -142 192 -142 24 0 66 35 73 61 4 16 2 19
-11 13 -9 -4 -33 -9 -53 -11 -29 -4 -43 2 -85 34 -27 22 -62 58 -77 81 -18 25
-34 39 -43 35 -14 -5 -19 7 -14 37 2 16 109 157 183 240 74 85 125 196 137
303 10 96 0 225 -26 317 -16 55 -84 202 -107 230 -42 53 -191 135 -264 146
-24 3 -43 10 -43 14 0 15 157 274 205 337 152 203 367 300 587 264z m-662
-692 c129 -65 168 -96 187 -148 13 -35 14 -36 -58 16 -57 41 -174 95 -251 118
-32 9 -58 20 -58 23 0 16 32 52 45 52 8 0 69 -28 135 -61z m1190 -255 c75 -14
226 -71 216 -81 -2 -2 -39 3 -83 11 -183 35 -366 30 -550 -14 -43 -10 -79 -17
-80 -16 -1 1 13 25 32 53 41 60 35 59 241 61 93 1 170 -3 224 -14z m-1352 -96
c19 -19 14 -26 -13 -20 -25 4 -31 13 -18 25 9 10 17 9 31 -5z m1755 -162 c33
-238 32 -585 -3 -901 -25 -222 -37 -289 -106 -580 -64 -273 -80 -307 -233
-525 -152 -217 -239 -396 -287 -595 -14 -56 -16 2 -4 93 22 172 122 402 266
614 149 219 174 303 174 581 1 172 13 570 26 830 4 83 12 144 19 154 9 12 24
16 51 15 37 -3 37 -2 21 16 -17 19 -16 20 35 43 l53 23 -55 6 c-30 3 -61 9
-67 13 -24 15 -13 27 22 27 19 0 35 4 35 9 0 23 -14 41 -31 41 -35 0 -49 38
-49 136 0 50 3 93 6 97 4 3 32 -7 64 -23 54 -27 57 -31 63 -74z m-1611 69 c3
-3 -2 -25 -10 -49 -14 -38 -14 -47 1 -91 8 -27 15 -51 13 -52 -1 -2 -34 19
-72 45 -79 55 -85 78 -34 125 28 25 86 38 102 22z m73 -38 c17 -13 17 -15 -3
-35 -12 -12 -22 -32 -22 -44 0 -55 80 -81 102 -33 8 19 14 22 20 13 24 -39 -7
-81 -51 -68 -82 23 -124 98 -91 161 13 23 20 24 45 6z m53 -78 c4 -19 -19 -31
-38 -19 -18 11 -4 42 17 38 10 -2 19 -10 21 -19z m932 -136 c0 -52 21 -104 58
-145 l37 -41 -40 7 c-132 23 -145 27 -169 59 -31 42 -40 72 -27 95 14 25 68
51 109 52 28 0 32 -3 32 -27z m178 12 c2 -2 -6 -17 -18 -33 -27 -37 -16 -64
31 -81 41 -14 79 7 79 44 0 28 8 31 34 12 23 -17 12 -42 -35 -81 -24 -21 -41
-26 -82 -26 -88 0 -136 46 -163 157 l-7 26 79 -8 c43 -4 81 -8 82 -10z m1927
-190 l100 -42 -2 -77 c-5 -219 -106 -488 -280 -746 l-78 -115 -94 -37 c-52
-21 -95 -37 -96 -35 -1 1 15 47 36 102 78 206 109 378 109 600 0 186 -23 342
-76 518 -4 13 31 0 138 -54 79 -40 188 -91 243 -114z m-1867 143 c13 -13 -2
-38 -23 -38 -21 0 -36 25 -23 38 7 7 17 12 23 12 6 0 16 -5 23 -12z m1347 -80
c16 -18 40 -58 54 -88 25 -52 26 -63 26 -215 -1 -154 -2 -162 -29 -222 -16
-35 -33 -63 -39 -63 -6 0 -7 23 -3 63 25 244 16 318 -52 416 -65 94 -71 105
-78 149 l-7 44 50 -26 c28 -14 63 -40 78 -58z m-405 -59 c0 -16 -17 -36 -25
-28 -1 2 -6 24 -9 49 l-7 45 21 -24 c11 -13 20 -31 20 -42z m44 -67 c14 -27
13 -31 -16 -75 -17 -26 -34 -44 -39 -41 -17 10 -10 85 12 115 11 16 22 29 24
29 3 0 11 -13 19 -28z m332 -152 c4 -54 3 -53 -15 25 -24 96 -25 112 -4 65 8
-19 17 -59 19 -90z m-2938 -182 c-3 -277 -2 -298 20 -383 30 -120 65 -224 124
-375 77 -195 130 -332 139 -365 14 -47 -8 -17 -123 170 -215 349 -263 442
-299 583 -23 92 -25 244 -4 326 20 78 128 336 140 336 4 0 5 -132 3 -292z
m2682 205 c17 -26 30 -52 30 -58 0 -6 -20 -42 -45 -79 -25 -38 -55 -96 -67
-128 -14 -40 -29 -63 -45 -71 -13 -5 -26 -8 -29 -5 -10 11 16 198 35 248 24
63 69 140 82 140 5 0 23 -21 39 -47z m75 -225 c8 -104 0 -113 -78 -95 -45 10
-48 12 -42 36 9 38 95 165 105 155 4 -5 11 -48 15 -96z m-2580 -529 c37 -79
86 -196 110 -259 52 -142 123 -302 173 -395 54 -99 95 -123 244 -143 62 -8
119 -16 127 -18 8 -3 -16 -26 -55 -55 -95 -70 -226 -201 -284 -282 -65 -91
-94 -179 -93 -282 0 -115 28 -259 64 -333 30 -62 113 -155 194 -219 l40 -31
-235 -115 c-129 -63 -264 -128 -300 -145 -241 -114 -411 -304 -497 -557 -13
-38 -39 -146 -59 -239 -19 -94 -37 -172 -39 -174 -7 -7 -25 46 -48 143 -16 70
-21 121 -20 230 0 163 19 248 82 380 58 119 153 246 460 616 155 187 241 332
304 512 l32 92 -3 265 c-1 146 -7 297 -13 335 -16 100 -52 210 -121 365 -122
273 -196 512 -203 654 l-5 91 39 -146 c27 -102 59 -190 106 -290z m2466 375
c-46 -21 -33 -27 38 -19 34 4 64 6 68 5 9 -1 7 -23 -8 -98 -11 -53 -12 -54
-135 -153 -95 -75 -132 -99 -154 -99 -36 0 -37 8 -10 86 12 32 30 95 41 139
12 44 28 90 36 103 19 31 68 51 118 51 l40 -1 -34 -14z m346 -191 c-7 -171
-19 -213 -98 -328 -82 -122 -125 -170 -329 -378 -195 -199 -187 -196 -189 -70
l-1 61 85 48 c203 114 370 275 445 428 49 100 69 175 77 289 9 136 16 102 10
-50z m-657 -169 c-22 -54 -43 -100 -45 -103 -3 -2 -5 25 -5 60 0 61 2 67 42
113 23 27 44 44 45 39 2 -6 -14 -55 -37 -109z m341 33 c-17 -37 -34 -67 -39
-67 -20 0 -73 23 -70 31 6 16 133 120 136 111 1 -5 -11 -39 -27 -75z m-65
-110 c16 -15 -234 -297 -263 -297 -5 0 -17 33 -25 72 l-16 73 40 80 c22 44 41
81 43 83 1 1 33 9 71 16 61 11 73 10 107 -4 20 -9 40 -20 43 -23z m749 -47 c8
-26 -23 -88 -56 -111 -18 -13 -50 -18 -121 -21 -54 -2 -98 -1 -98 2 2 13 102
84 164 115 79 40 102 43 111 15z m-279 -70 c-36 -38 -79 -93 -95 -122 -23 -40
-32 -48 -37 -35 -10 28 43 123 89 161 36 28 93 64 106 66 2 0 -26 -31 -63 -70z
m-842 -12 c-13 -45 -64 -136 -125 -229 -46 -68 -123 -154 -279 -314 -119 -121
-242 -250 -274 -287 -32 -38 -64 -68 -70 -68 -7 0 -22 10 -34 23 l-22 23 44
77 c25 43 80 126 124 185 97 131 150 212 193 298 30 60 39 69 94 96 101 51
189 105 266 163 40 30 77 55 81 55 5 0 6 -10 2 -22z m617 -114 c-53 -98 -78
-134 -325 -464 -231 -308 -290 -446 -290 -680 0 -191 48 -339 171 -523 39 -59
66 -104 60 -100 -36 20 -220 179 -252 215 -50 59 -90 132 -110 202 -14 48 -16
84 -12 180 7 169 22 210 109 304 83 89 126 172 161 309 27 103 -2 65 297 384
74 79 157 172 184 207 27 34 51 62 53 62 3 0 -18 -43 -46 -96z m585 -31 c87
-100 130 -164 199 -293 106 -198 166 -282 258 -358 182 -151 282 -327 327
-575 11 -61 19 -111 17 -113 -11 -11 -378 284 -531 426 -87 81 -151 171 -211
295 -59 123 -76 182 -135 468 -30 149 -37 203 -30 218 10 17 13 18 33 4 12 -8
45 -40 73 -72z m-1161 -34 l7 -46 -89 -63 c-48 -35 -94 -68 -102 -74 -20 -15
-15 -7 82 137 85 127 90 129 102 46z m825 40 c-64 -56 -100 -82 -107 -76 -10
11 -6 56 7 72 15 18 62 33 105 34 l30 0 -35 -30z m-2936 -179 c51 -99 108
-257 130 -364 48 -228 -20 -537 -171 -789 -19 -32 -37 -57 -39 -54 -2 2 10 56
26 121 86 341 80 700 -21 1110 -16 65 -29 122 -29 125 1 17 64 -74 104 -149z
m2780 100 c14 -22 26 -43 26 -47 0 -13 -122 -314 -126 -311 -2 2 8 78 21 168
34 224 35 230 44 230 5 0 20 -18 35 -40z m117 -96 c-33 -133 -44 -233 -44
-389 0 -225 38 -401 131 -620 26 -60 49 -114 51 -120 2 -5 -20 13 -49 40 -143
138 -241 365 -256 595 -13 196 61 484 144 558 20 18 38 29 40 24 2 -6 -6 -45
-17 -88z m-238 -64 c-70 -324 -2 -698 172 -953 56 -82 85 -130 85 -144 0 -7
-63 20 -142 60 -214 109 -325 137 -550 137 l-110 0 7 52 c18 132 46 234 84
311 26 52 120 188 257 370 118 159 217 287 219 285 2 -1 -8 -55 -22 -118z
m-515 -95 l3 -108 -70 -106 c-122 -185 -188 -353 -214 -550 -8 -63 -17 -97
-27 -102 -8 -4 -51 -24 -95 -44 -44 -20 -95 -48 -113 -61 -23 -18 -33 -22 -37
-12 -2 7 -11 70 -20 140 l-15 127 25 66 c60 161 174 352 310 522 96 120 220
246 236 241 11 -3 15 -31 17 -113z m-198 -12 c-321 -343 -508 -731 -487 -1013
l6 -75 -20 43 c-49 104 -47 232 7 420 67 236 261 524 446 659 60 45 73 51 106
52 20 1 11 -13 -58 -86z m-705 -14 c-33 -34 -98 -90 -145 -126 -301 -229 -501
-462 -561 -655 -24 -75 -25 -204 -3 -279 22 -76 75 -168 135 -233 28 -31 49
-56 45 -56 -3 0 -47 20 -99 45 -137 65 -202 139 -242 280 -65 223 97 482 475
758 91 66 192 141 225 167 79 62 215 160 223 160 4 0 -20 -27 -53 -61z m-100
-7 c-6 -5 -57 -42 -115 -82 -163 -115 -378 -277 -448 -339 -117 -103 -213
-250 -252 -384 l-18 -62 -12 30 c-7 19 -10 64 -8 122 4 83 8 99 46 176 74 149
274 339 457 434 111 57 392 142 350 105z m54 -144 c-23 -46 -43 -85 -46 -88
-5 -5 -53 50 -53 62 0 8 122 107 133 108 4 0 -11 -37 -34 -82z m-103 -105 l31
-41 -25 -84 c-24 -76 -26 -98 -26 -273 0 -175 2 -197 26 -285 15 -53 40 -130
56 -172 27 -68 28 -77 13 -83 -9 -4 -101 -11 -206 -16 -104 -4 -206 -13 -224
-18 -50 -15 -72 4 -123 106 l-43 86 0 116 c0 113 1 118 37 194 21 43 61 113
90 155 58 85 332 365 351 359 7 -2 26 -22 43 -44z m498 20 c-217 -331 -283
-639 -184 -851 38 -80 77 -131 152 -193 33 -27 54 -49 47 -49 -7 0 -46 17 -88
38 -109 53 -208 153 -245 246 -87 221 -1 487 244 749 85 90 105 107 74 60z
m486 -94 c-21 -58 -89 -172 -90 -152 0 18 104 226 108 215 1 -5 -6 -34 -18
-63z m-807 -103 c9 -7 17 -17 17 -22 0 -13 -102 -255 -107 -251 -5 6 60 287
66 287 3 0 14 -7 24 -14z m1186 -431 c178 -43 372 -144 475 -248 48 -48 105
-141 93 -153 -3 -3 -33 20 -68 52 -182 162 -381 259 -613 299 -49 8 -112 15
-141 15 -56 0 -82 17 -71 46 6 15 21 16 134 11 70 -4 156 -13 191 -22z m-609
-45 c-8 -5 -24 -9 -35 -9 l-20 0 20 9 c11 5 27 9 35 9 13 1 13 0 0 -9z m26
-77 c24 -70 74 -155 155 -263 129 -171 192 -317 213 -490 l7 -55 -38 70 c-49
90 -146 188 -248 250 -291 176 -336 212 -385 308 -47 89 -40 108 49 141 69 27
176 54 219 55 13 1 25 -6 28 -16z m1236 -210 c179 -271 248 -473 248 -733 0
-181 -29 -306 -112 -480 -28 -58 -61 -133 -75 -168 -14 -34 -29 -64 -33 -67
-5 -3 -16 29 -26 71 -21 98 -15 301 16 489 27 164 37 441 21 556 -17 119 -68
302 -107 386 -34 72 -38 83 -29 83 3 0 46 -62 97 -137z m155 -35 c108 -86 217
-228 254 -333 24 -68 35 -155 20 -155 -6 0 -11 6 -11 14 0 8 -22 58 -49 113
-48 95 -89 150 -253 343 -43 50 -78 93 -78 97 0 8 46 -23 117 -79z m-1795 -94
c33 -20 133 -66 223 -104 178 -73 220 -95 313 -165 123 -93 192 -212 200 -346
7 -121 -14 -188 -101 -317 -27 -41 -47 -76 -44 -78 8 -8 57 38 101 95 62 80
112 175 131 246 21 82 19 250 -5 340 -10 39 -16 72 -15 74 2 1 19 -28 39 -66
250 -498 309 -1073 172 -1682 -36 -161 -75 -281 -92 -288 -17 -6 -383 13 -524
28 -663 69 -1248 239 -1835 529 -264 131 -537 300 -569 352 -11 19 -3 77 45
323 51 257 89 356 185 484 89 118 170 171 560 366 l354 177 236 -87 c129 -48
238 -85 240 -82 3 3 -47 34 -111 69 -109 59 -238 158 -224 172 3 3 77 9 165
12 139 5 230 17 285 39 12 4 35 -18 87 -83 72 -89 210 -228 219 -219 2 3 -18
36 -46 75 -48 65 -140 227 -141 245 0 5 21 -10 47 -33 26 -22 73 -57 105 -76z
m-1804 -3 c-335 -391 -450 -683 -394 -999 14 -80 7 -82 -23 -6 -52 135 -66
332 -32 465 41 160 135 316 275 455 78 78 233 194 258 194 5 0 -33 -49 -84
-109z m2606 -120 c181 -125 330 -429 301 -616 -3 -26 -10 -43 -14 -39 -5 5
-18 43 -31 84 -57 191 -156 394 -259 533 -28 37 -48 67 -45 67 3 0 25 -13 48
-29z m1145 -173 c39 -86 81 -222 81 -261 0 -18 -17 -68 -37 -111 l-38 -77 0
168 c-1 158 -8 219 -41 326 -12 40 9 12 35 -45z m922 -260 c85 -256 110 -469
88 -760 -8 -106 -14 -287 -14 -401 l0 -208 -22 28 c-29 35 -252 410 -288 483
-70 140 -92 288 -61 409 24 93 248 575 258 556 5 -8 22 -56 39 -107z m-1660
-208 c16 -62 37 -161 46 -220 21 -130 23 -418 4 -545 -18 -125 -66 -320 -106
-431 -39 -108 -116 -286 -122 -281 -2 2 12 64 31 138 102 400 123 794 60 1137
-16 88 -14 101 28 312 13 66 14 63 59 -110z m864 58 c-4 -18 -45 -150 -92
-293 -53 -164 -91 -301 -104 -373 -20 -117 -24 -287 -10 -374 4 -27 5 -48 1
-48 -16 0 -90 91 -116 142 -36 70 -44 179 -19 264 25 87 143 345 248 542 50
94 93 172 95 172 2 0 0 -15 -3 -32z m584 -908 c35 -58 106 -165 159 -238 142
-195 149 -207 178 -296 36 -110 85 -204 140 -271 104 -129 175 -465 175 -830
0 -353 -65 -813 -135 -965 l-16 -35 5 35 c3 19 8 125 11 236 16 523 -70 945
-311 1514 -168 398 -265 640 -290 724 -22 79 -45 217 -59 356 l-6 55 43 -90
c24 -49 72 -137 106 -195z m-4658 163 c22 -26 200 -156 296 -216 274 -169 702
-356 1073 -468 449 -137 830 -197 1403 -225 75 -3 137 -9 137 -13 0 -3 -34
-91 -75 -195 -42 -104 -74 -190 -72 -193 8 -7 129 144 207 259 77 114 108 142
147 132 17 -5 22 -16 27 -67 23 -212 66 -374 170 -639 118 -303 201 -593 177
-622 -15 -18 -220 -94 -376 -139 -310 -90 -763 -175 -1160 -219 -162 -18 -779
-18 -940 0 -406 45 -770 141 -1052 277 -94 45 -136 71 -142 87 -16 38 -43 267
-43 365 0 90 43 399 50 357 2 -12 -4 -93 -12 -181 -15 -153 -13 -203 5 -203
64 0 108 470 109 1165 0 226 21 658 36 728 6 31 16 34 35 10z m3894 -440 c10
-36 -9 -27 -28 12 -9 20 -17 39 -17 43 0 13 38 -34 45 -55z m-759 -389 c-3 -8
-12 -14 -21 -14 -14 0 -13 4 2 33 13 25 18 28 21 14 2 -10 1 -25 -2 -33z m978
-544 c29 -226 38 -445 27 -610 -13 -173 -39 -360 -52 -360 -5 0 -9 4 -9 8 0 5
-13 115 -30 245 -36 281 -36 302 -9 477 11 74 24 173 30 220 12 108 19 153 24
149 2 -2 10 -60 19 -129z m-4277 -112 c-3 -8 -6 -5 -6 6 -1 11 2 17 5 13 3 -3
4 -12 1 -19z m-97 -673 c13 -53 12 -62 -25 -220 -22 -91 -42 -165 -46 -165
-27 0 -30 206 -5 312 19 83 43 141 54 134 5 -3 15 -30 22 -61z"/>
<path d="M4992 7021 c-17 -10 42 -21 108 -20 l45 1 -30 13 c-34 16 -103 19
-123 6z"/>
<path d="M4596 6875 c4 -17 13 -44 21 -62 7 -18 13 -47 13 -65 1 -87 52 -225
122 -329 38 -57 59 -70 123 -82 153 -26 182 -20 405 89 74 37 144 67 155 69
11 1 28 3 37 4 19 1 142 100 134 108 -3 3 -58 6 -123 7 l-118 2 -210 71 c-291
99 -375 123 -431 123 -44 0 -51 4 -92 47 -42 45 -43 46 -36 18z m247 -115 c56
-12 131 -30 167 -42 59 -19 62 -22 40 -30 -38 -15 -126 -2 -184 25 -28 14 -68
30 -88 37 -21 6 -40 16 -43 21 -8 12 -8 12 108 -11z m22 -78 c41 -21 71 -26
165 -32 92 -6 133 -14 205 -40 50 -17 94 -36 99 -40 4 -4 -2 -15 -15 -23 -18
-12 -68 -18 -190 -23 -192 -8 -237 1 -309 63 -40 35 -95 128 -84 144 5 8 51
-9 129 -49z m-160 -28 c27 -51 88 -102 164 -138 l66 -31 189 2 c110 1 186 -1
180 -6 -5 -5 -65 -33 -134 -62 -148 -62 -210 -71 -302 -43 -56 17 -63 22 -109
87 -46 65 -70 123 -83 195 -7 42 5 41 29 -4z"/>
<path d="M2743 9536 c-37 -17 -65 -58 -89 -128 -8 -27 -19 -48 -24 -48 -4 0
-31 16 -60 35 -90 61 -192 46 -253 -37 -25 -34 -34 -125 -18 -184 32 -118 198
-213 404 -230 136 -11 177 11 227 121 69 150 65 300 -10 403 -52 72 -115 96
-177 68z m98 -63 c91 -77 99 -252 18 -403 -52 -97 -50 -97 -179 -71 -120 23
-196 53 -265 102 -59 42 -78 85 -73 161 4 50 9 64 36 91 28 27 40 32 80 32 58
0 123 -38 154 -91 11 -19 24 -34 28 -34 5 0 22 42 40 94 47 142 93 176 161
119z"/>
<path d="M786 8458 c-28 -39 -20 -181 29 -526 73 -513 99 -645 166 -866 49
-160 128 -224 203 -165 35 28 34 69 -5 255 -17 80 -29 147 -27 149 2 2 84 -10
183 -26 99 -16 202 -29 228 -29 55 0 101 20 118 52 11 20 13 17 42 -36 36 -68
73 -97 131 -103 47 -6 105 18 143 59 19 20 65 112 87 171 5 15 17 4 62 -59 65
-91 79 -103 116 -104 40 0 57 9 74 42 22 42 11 75 -57 179 -79 120 -113 182
-138 250 -24 64 -43 83 -126 130 -75 42 -139 45 -202 9 -87 -48 -133 -153
-141 -313 -4 -95 -7 -107 -21 -102 -77 32 -144 46 -290 64 -93 12 -176 23
-184 27 -12 4 -1 46 64 237 94 274 101 327 48 371 -17 14 -35 26 -40 26 -24 0
-62 -57 -129 -194 -39 -81 -74 -146 -76 -143 -2 2 -24 100 -49 218 -51 247
-88 383 -114 419 -25 35 -74 39 -95 8z m76 -15 c26 -31 36 -72 99 -393 l61
-315 -37 -117 c-55 -174 -42 -227 67 -280 31 -15 59 -35 62 -45 3 -10 21 -90
41 -178 39 -174 38 -199 -10 -211 -39 -10 -66 15 -107 97 -32 64 -45 116 -97
379 -124 624 -173 990 -145 1064 8 21 47 20 66 -1z m422 -335 c33 -47 28 -70
-123 -498 -22 -63 -39 -115 -38 -116 1 -1 85 -14 187 -29 307 -43 360 -61 360
-119 0 -15 -11 -33 -27 -46 -25 -20 -36 -22 -108 -17 -119 9 -432 65 -481 86
-47 21 -74 61 -74 109 0 28 66 233 108 337 29 72 120 266 138 293 18 28 39 28
58 0z m691 -288 c22 -11 49 -25 60 -31 11 -7 27 -15 35 -19 8 -4 23 -24 34
-46 10 -21 63 -118 117 -215 54 -97 99 -188 99 -201 0 -32 -32 -61 -62 -56
-17 2 -43 33 -97 115 l-75 113 -43 -107 c-47 -116 -86 -167 -140 -182 -75 -21
-134 22 -173 125 -48 129 -51 247 -11 356 57 149 147 201 256 148z"/>
<path d="M1877 7719 c-62 -36 -87 -215 -47 -339 36 -111 59 -91 116 101 45
154 46 184 5 221 -34 30 -46 33 -74 17z m63 -39 c26 -26 25 -37 -10 -166 -35
-124 -49 -164 -60 -164 -13 0 -40 114 -40 168 0 63 25 141 52 165 26 22 34 21
58 -3z"/>
<path d="M2304 8219 c-16 -18 -19 -34 -16 -119 l3 -97 -45 -13 c-54 -15 -86
-43 -86 -75 0 -30 43 -65 81 -65 69 0 73 -7 92 -143 23 -169 75 -424 94 -465
30 -62 109 -81 161 -37 39 33 44 68 26 173 -12 71 -86 386 -110 469 -5 19 3
26 72 58 94 43 114 60 114 95 0 52 -30 65 -141 62 -75 -2 -100 0 -104 10 -46
134 -68 168 -103 168 -11 0 -27 -10 -38 -21z m94 -89 c47 -146 194 -775 196
-836 1 -53 -24 -84 -69 -84 -80 0 -89 37 -200 773 -30 203 -30 202 -4 228 21
21 22 21 39 3 10 -11 27 -48 38 -84z m262 -109 c20 -39 -2 -59 -110 -100 -62
-23 -63 -23 -81 53 -15 62 -9 66 98 66 71 0 84 -3 93 -19z m-356 -78 c13 -80
12 -81 -46 -72 -94 15 -105 67 -20 93 26 8 50 15 53 15 4 1 9 -16 13 -36z"/>
<path d="M2825 8180 c-28 -31 -24 -79 9 -107 15 -12 36 -23 47 -23 23 0 61 18
71 34 14 21 8 63 -13 90 -26 33 -86 37 -114 6z m93 -16 c14 -10 22 -25 22 -45
0 -63 -101 -58 -108 6 -6 49 41 71 86 39z"/>
<path d="M3306 8014 c-69 -22 -155 -109 -187 -189 -20 -52 -24 -77 -24 -185 0
-108 3 -134 24 -188 87 -230 333 -274 456 -81 25 38 55 129 55 164 0 12 -6 29
-13 39 -13 18 -15 18 -47 1 -18 -10 -56 -35 -83 -57 -80 -62 -102 -71 -134
-54 -25 13 -72 81 -62 90 2 2 35 18 74 36 124 59 225 187 225 286 0 45 -28 94
-72 127 -36 27 -145 32 -212 11z m195 -29 c16 -9 35 -29 44 -45 55 -106 -41
-257 -215 -338 -41 -19 -77 -36 -79 -38 -6 -5 48 -93 71 -114 12 -11 35 -20
52 -20 36 0 126 40 174 77 67 50 69 -25 4 -118 -77 -110 -184 -141 -280 -82
-90 55 -162 199 -162 322 0 109 42 234 99 294 70 76 208 105 292 62z"/>
<path d="M3350 7879 c-54 -22 -92 -73 -104 -141 -8 -47 5 -49 60 -12 53 36 91
73 116 113 17 27 19 35 7 42 -18 11 -47 10 -79 -2z m6 -74 c-65 -61 -77 -66
-69 -32 13 50 56 86 103 86 23 0 19 -5 -34 -54z"/>
<path d="M2852 7832 c-61 -10 -76 -126 -43 -322 24 -136 48 -202 79 -219 34
-18 79 -13 109 13 27 24 28 26 26 123 -2 105 -33 247 -73 341 -23 53 -51 72
-98 64z m63 -46 c22 -33 52 -143 70 -251 29 -174 16 -229 -53 -223 -31 2 -40
9 -54 38 -37 76 -74 414 -48 445 20 24 67 19 85 -9z"/>
<path d="M8809 6677 c-65 -35 -104 -102 -104 -181 0 -80 45 -176 117 -252 66
-70 219 -174 256 -174 37 0 179 96 252 171 133 135 169 329 77 419 -59 57
-133 52 -232 -15 -36 -25 -68 -45 -71 -45 -3 0 -25 14 -50 31 -105 72 -171 85
-245 46z m177 -51 c28 -13 64 -40 82 -61 l31 -38 37 33 c42 36 148 90 179 90
55 0 92 -68 81 -148 -11 -73 -62 -168 -125 -231 -68 -67 -185 -146 -206 -137
-35 13 -166 108 -210 153 -55 55 -105 152 -105 203 1 47 31 111 65 138 38 30
105 29 171 -2z"/>
<path d="M2557 6379 c-18 -14 -27 -30 -27 -49 0 -66 91 -94 147 -46 24 21 26
26 16 49 -12 25 -44 47 -89 61 -14 4 -30 -1 -47 -15z m81 -25 c29 -20 28 -40
-2 -59 -22 -15 -27 -15 -55 0 -35 17 -41 48 -13 64 24 15 44 13 70 -5z"/>
<path d="M3652 6354 c-129 -64 -216 -238 -229 -459 -8 -139 21 -214 91 -234
50 -13 85 -2 127 40 45 45 49 46 49 20 0 -12 -18 -33 -43 -51 -92 -66 -151
-176 -177 -329 -29 -174 41 -365 164 -448 41 -28 57 -33 108 -33 32 0 71 6 86
14 95 49 137 192 112 376 -6 47 -36 222 -66 390 -29 168 -54 320 -54 338 0 19
10 65 21 104 56 182 -53 338 -189 272z m138 -45 c53 -54 59 -156 15 -284 -14
-42 -12 -58 46 -387 68 -390 80 -524 55 -611 -31 -108 -112 -162 -204 -138
-54 15 -136 94 -167 164 -87 189 -44 440 99 575 28 27 58 52 67 58 15 8 16 17
7 67 -10 58 -22 72 -33 38 -3 -10 -25 -40 -49 -65 -52 -57 -89 -61 -138 -17
l-33 29 0 139 c0 117 3 148 22 203 76 220 218 323 313 229z"/>
<path d="M3667 6193 c-49 -52 -107 -222 -107 -314 0 -81 79 103 99 233 8 48
17 68 36 86 15 13 20 22 12 22 -7 0 -25 -12 -40 -27z"/>
<path d="M3700 5551 c-11 -17 -33 -56 -48 -88 -25 -53 -27 -68 -27 -183 0
-137 8 -164 68 -227 51 -54 82 -41 93 40 9 66 -36 487 -52 487 -7 0 -22 -13
-34 -29z m45 -166 c22 -131 25 -309 6 -327 -18 -18 -75 49 -92 110 -28 95 -12
249 33 322 26 43 30 35 53 -105z"/>
<path d="M1576 6167 c-22 -16 -23 -36 -13 -173 6 -78 5 -103 -5 -111 -7 -6
-59 -31 -116 -56 -85 -38 -107 -45 -128 -37 -36 14 -91 12 -123 -4 -36 -19
-105 -95 -129 -143 -38 -74 -52 -143 -52 -255 0 -69 5 -121 14 -141 15 -38 61
-79 119 -109 53 -27 152 -22 219 10 118 58 197 189 158 263 -15 27 -25 25 -98
-27 -66 -48 -145 -84 -183 -84 -19 0 -18 2 9 43 71 105 118 198 136 267 l12
45 88 28 c48 16 93 27 100 24 7 -3 18 -36 25 -73 29 -162 92 -324 148 -376 84
-79 190 -59 260 50 21 31 38 58 39 60 0 1 14 -4 30 -13 46 -24 93 -18 229 30
153 54 201 75 251 109 29 19 41 23 56 15 32 -17 79 -6 101 23 22 30 24 77 11
343 -7 138 -7 140 -36 167 -17 16 -40 28 -53 28 -53 0 -69 -57 -80 -296 l-7
-141 -43 5 c-35 3 -63 -3 -133 -32 -50 -20 -92 -36 -95 -36 -3 0 19 52 49 116
97 203 105 245 53 296 -28 29 -33 30 -87 25 -81 -9 -243 -47 -269 -63 -33 -21
-32 -78 2 -100 21 -13 41 -16 101 -11 l74 5 -57 -110 c-45 -85 -67 -116 -98
-138 -23 -15 -72 -63 -109 -105 -44 -49 -72 -73 -78 -67 -12 12 -108 327 -108
353 0 10 20 32 46 49 50 35 68 68 55 103 -15 40 -37 50 -91 44 l-49 -6 -11 42
c-22 84 -43 142 -58 160 -18 20 -51 22 -76 4z m65 -26 c11 -11 37 -111 64
-251 50 -253 108 -449 150 -505 15 -18 19 -16 106 70 69 68 90 84 85 65 -3
-14 -6 -48 -6 -75 0 -62 -46 -147 -99 -182 -48 -33 -110 -31 -151 3 -89 75
-161 316 -199 669 -22 194 -18 231 23 219 12 -3 24 -9 27 -13z m1045 -112 c17
-19 20 -46 28 -235 8 -192 7 -216 -8 -238 -31 -48 -97 -29 -113 31 -3 15 -3
114 0 222 7 181 9 196 29 218 27 28 40 29 64 2z m-332 -50 c13 -7 30 -25 37
-41 17 -41 3 -82 -91 -265 -42 -84 -75 -153 -71 -153 3 0 64 23 134 50 71 28
135 50 143 50 44 0 71 -81 36 -113 -31 -28 -313 -128 -378 -134 -54 -5 -64 -3
-83 16 -40 40 -29 86 58 254 43 84 87 166 97 184 10 17 16 34 14 36 -3 2 -41
-1 -85 -6 -97 -11 -135 -1 -135 37 0 34 17 41 156 70 142 29 137 29 168 15z
m-525 -43 c22 -26 9 -69 -28 -93 -19 -13 -39 -23 -46 -23 -6 0 -16 22 -21 50
-10 45 -9 51 10 64 27 19 70 20 85 2z m-251 -137 c2 -29 -2 -50 -10 -57 -24
-19 -169 -63 -189 -57 -25 8 -38 35 -29 60 7 21 182 105 210 102 10 -2 16 -16
18 -48z m-276 -36 c10 -9 18 -26 18 -38 0 -12 11 -34 25 -49 19 -20 24 -34 19
-49 -24 -78 -53 -138 -114 -236 -39 -61 -70 -114 -70 -118 0 -3 24 -3 53 0 59
6 145 41 210 86 25 17 47 27 51 24 3 -4 6 -21 6 -39 0 -71 -113 -173 -215
-194 -68 -14 -139 3 -201 50 l-42 30 -6 108 c-8 121 2 189 39 270 34 75 78
126 128 151 51 25 74 26 99 4z"/>
<path d="M1206 5603 c-29 -45 -49 -106 -44 -130 3 -11 20 16 46 71 47 99 46
96 32 96 -5 0 -21 -17 -34 -37z"/>
<path d="M3030 6127 c-39 -20 -70 -43 -77 -58 -13 -26 -33 -257 -33 -377 0
-107 29 -152 97 -152 15 0 35 6 44 13 38 29 41 54 35 236 -5 135 -4 182 6 200
19 36 35 36 54 -1 13 -25 20 -79 29 -220 11 -182 16 -205 50 -230 22 -17 76
-8 100 17 24 23 25 30 25 137 -1 189 -24 302 -79 384 -63 91 -139 107 -251 51z
m181 -9 c77 -51 129 -225 129 -431 0 -80 -2 -90 -25 -112 -28 -29 -42 -31 -71
-10 -19 13 -22 27 -27 152 -4 127 -26 263 -49 306 -13 26 -53 21 -77 -9 -20
-25 -21 -40 -21 -218 0 -207 -3 -220 -52 -231 -42 -11 -65 21 -74 101 -8 82 1
266 19 349 12 59 13 60 72 92 73 40 127 43 176 11z"/>
<path d="M263 6125 c-63 -44 -49 -296 57 -1005 38 -258 68 -341 126 -360 46
-16 101 9 116 50 7 22 23 37 55 52 25 12 83 57 128 100 126 119 194 238 230
401 41 187 -18 273 -183 270 -71 -1 -74 0 -68 20 4 12 14 65 23 117 13 75 14
103 5 135 -17 60 -46 101 -93 132 -40 26 -50 28 -171 32 -71 1 -128 7 -128 12
0 15 -47 59 -62 59 -8 0 -23 -7 -35 -15z m59 -22 c25 -23 22 -39 -9 -51 -16
-5 -36 -13 -45 -17 -14 -6 -18 -2 -18 17 0 27 26 68 42 68 6 0 20 -7 30 -17z
m325 -85 c85 -56 101 -147 58 -320 -14 -55 -24 -102 -22 -105 2 -2 24 1 48 6
142 33 229 -19 229 -135 0 -75 -34 -194 -81 -284 -69 -134 -217 -276 -313
-302 -41 -11 -48 -10 -73 8 -33 25 -48 62 -39 97 5 21 13 26 56 32 77 11 170
95 248 225 26 44 72 180 72 214 0 23 -4 26 -32 26 -49 -1 -163 -50 -252 -108
-43 -29 -83 -52 -88 -52 -5 0 -20 11 -33 25 -31 30 -33 75 -4 101 88 79 189
299 189 410 0 84 -29 94 -229 74 -102 -9 -125 -4 -136 31 -17 53 92 90 256 86
96 -2 110 -5 146 -29z m-94 -107 c34 -13 41 -40 27 -104 -14 -64 -102 -263
-115 -259 -11 2 -75 359 -67 367 9 9 130 5 155 -4z m-153 -206 l33 -206 -26
-27 c-14 -15 -30 -38 -35 -52 -18 -51 22 -120 70 -120 24 0 26 -6 48 -122 l19
-103 -35 -31 c-71 -65 -63 -146 20 -186 25 -12 46 -26 46 -30 0 -4 -9 -17 -20
-28 -23 -23 -59 -26 -82 -7 -16 12 -49 106 -68 190 -11 50 -120 866 -120 897
0 20 19 26 81 29 l37 1 32 -205z m385 -328 c-10 -28 -33 -81 -52 -116 -38 -68
-172 -217 -183 -204 -9 9 -55 242 -49 246 2 2 22 17 44 34 48 36 131 79 200
103 60 21 64 14 40 -63z"/>
<path d="M2470 4578 c-42 -33 -62 -60 -79 -110 l-10 -26 -68 24 c-101 35 -158
30 -212 -19 -57 -53 -81 -191 -46 -274 53 -126 203 -220 380 -238 39 -4 80
-12 93 -16 104 -39 241 276 211 489 -19 134 -78 202 -175 202 -44 0 -59 -5
-94 -32z m150 -35 c32 -30 60 -116 60 -186 0 -108 -74 -321 -129 -371 -19 -17
-23 -17 -128 9 -173 42 -249 86 -298 170 -49 83 -40 210 18 248 54 35 147 27
208 -18 38 -29 54 -21 64 28 11 51 50 102 97 126 56 27 72 27 108 -6z"/>
<path d="M1011 3523 c-6 -21 -22 -107 -35 -191 -14 -84 -28 -157 -31 -161 -3
-5 -63 -41 -134 -80 -70 -39 -134 -77 -140 -85 -28 -33 0 -49 214 -123 l80
-28 50 -125 c59 -146 78 -178 113 -187 37 -9 61 24 112 153 24 60 44 110 45
111 1 2 60 -24 132 -57 153 -70 190 -80 199 -56 4 9 -8 77 -25 150 -17 74 -31
148 -31 164 0 17 23 92 51 167 27 76 49 150 47 164 -3 22 -8 26 -41 29 -21 2
-83 -8 -138 -22 -55 -14 -111 -26 -126 -26 -19 0 -48 23 -117 94 -81 84 -169
146 -205 146 -6 0 -15 -17 -20 -37z m130 -84 c166 -180 164 -179 199 -179 17
0 79 12 135 27 57 15 107 24 111 20 8 -8 -39 -143 -73 -206 -28 -54 -29 -72
-3 -147 25 -71 53 -190 48 -203 -2 -6 -65 20 -141 57 -106 50 -142 64 -155 56
-8 -6 -34 -55 -57 -110 -23 -54 -48 -112 -57 -128 l-15 -29 -27 59 c-15 32
-38 91 -52 130 -36 100 -59 118 -200 163 l-118 38 44 28 c25 16 72 41 105 56
101 46 117 68 130 189 11 100 39 260 46 260 3 0 40 -36 80 -81z"/>
<path d="M8293 1903 c2 -10 17 -58 31 -108 50 -167 60 -258 60 -535 1 -203 -3
-277 -17 -365 -38 -226 -115 -481 -231 -764 l-53 -131 28 0 c25 0 33 8 63 68
134 266 238 630 267 932 20 212 -5 544 -55 727 -18 67 -76 193 -89 193 -5 0
-7 -8 -4 -17z"/>
</g>
</svg>
