<?xml version="1.0" standalone="no"?>
<!DOCTYPE svg PUBLIC "-//W3C//DTD SVG 20010904//EN"
 "http://www.w3.org/TR/2001/REC-SVG-20010904/DTD/svg10.dtd">
<svg version="1.0" xmlns="http://www.w3.org/2000/svg"
 width="1024.000000pt" height="1024.000000pt" viewBox="0 0 1024.000000 1024.000000"
 preserveAspectRatio="xMidYMid meet">
<metadata>
Created by potrace 1.14, written by Peter Selinger 2001-2017
</metadata>
<g transform="translate(0.000000,1024.000000) scale(0.100000,-0.100000)"
fill="#000000" stroke="none">
<path d="M5950 10180 c-1 -3 -2 -50 -3 -105 -2 -85 -6 -109 -29 -158 -15 -31
-34 -60 -42 -63 -9 -3 -64 12 -123 34 -286 107 -754 153 -1038 104 -633 -111
-1107 -423 -1454 -957 -126 -194 -226 -420 -281 -640 -47 -186 -62 -311 -65
-547 l-3 -218 -52 -92 c-148 -267 -251 -574 -253 -753 0 -55 6 -114 16 -151
19 -70 21 -130 7 -183 -5 -20 -31 -126 -56 -236 -59 -255 -98 -384 -189 -620
-186 -486 -287 -851 -342 -1240 -26 -184 -25 -531 1 -670 58 -306 161 -484
342 -586 28 -16 58 -37 66 -47 8 -9 30 -62 49 -117 48 -143 165 -374 261 -515
46 -67 90 -134 98 -149 21 -36 20 -267 -2 -531 -9 -113 -20 -248 -24 -301 -10
-150 3 -164 191 -214 168 -45 169 -46 176 -87 6 -38 41 -88 108 -153 57 -55
55 -78 -19 -195 -97 -153 -96 -162 32 -245 110 -71 114 -81 72 -190 -14 -39
-50 -134 -79 -212 l-53 -143 27 0 c25 0 29 9 100 208 41 114 74 219 74 235 0
47 -24 76 -115 133 -48 31 -88 62 -88 70 0 8 30 69 66 135 61 109 66 124 61
164 -4 36 -14 55 -49 93 -51 54 -93 120 -84 130 6 5 419 -70 471 -86 11 -3
-42 -13 -118 -23 -128 -15 -157 -22 -146 -34 3 -2 113 5 245 16 164 13 250 25
274 36 28 13 56 15 165 10 71 -4 168 -13 215 -21 126 -23 324 -67 333 -76 9
-8 -37 -113 -56 -129 -7 -5 -113 -25 -237 -44 -355 -56 -395 -60 -503 -48
-187 21 -209 5 -36 -25 129 -22 391 -14 584 20 77 13 142 22 144 20 2 -2 -17
-77 -42 -166 -25 -90 -52 -189 -58 -222 -7 -32 -20 -67 -28 -77 -13 -15 -67
-27 -269 -60 -140 -22 -256 -38 -260 -35 -10 11 38 52 108 92 38 21 70 42 70
47 0 13 -74 7 -104 -8 -92 -48 -256 -217 -307 -316 l-19 -39 22 0 c16 1 42 25
88 81 36 44 70 85 76 90 9 7 547 89 587 89 5 0 6 -19 3 -42 -3 -24 -8 -82 -12
-130 l-6 -88 25 0 c24 0 24 2 36 137 28 310 82 524 176 700 108 204 294 373
411 373 30 0 74 -16 165 -61 l124 -61 -40 -19 c-48 -23 -80 -53 -108 -99 -11
-19 -60 -98 -107 -175 -130 -210 -148 -247 -201 -430 -32 -110 -37 -165 -15
-165 22 0 42 55 75 210 37 171 65 236 152 350 36 47 77 106 92 131 35 61 114
131 183 164 73 35 195 65 260 65 45 0 59 -5 89 -31 47 -42 70 -86 55 -104 -6
-7 -86 -71 -178 -142 -243 -187 -279 -229 -307 -359 -18 -85 -30 -301 -21
-374 7 -56 20 -89 31 -78 3 3 12 106 19 229 l13 224 2 -175 c1 -220 9 -310 27
-310 11 0 12 40 7 205 l-6 205 34 14 c68 27 181 50 188 37 4 -6 13 -49 20 -94
12 -80 57 -314 67 -349 7 -22 34 -24 34 -2 0 8 -18 117 -40 241 -22 124 -39
227 -38 228 5 3 291 45 309 45 14 0 17 -22 22 -162 5 -158 21 -258 38 -241 4
4 4 93 -2 197 -9 181 -5 224 18 194 5 -7 41 -114 78 -238 68 -227 85 -274 92
-254 3 8 -78 315 -133 506 -4 14 10 17 102 23 100 7 109 6 124 -12 9 -11 62
-138 120 -281 82 -208 107 -262 122 -262 17 0 17 2 -1 48 -10 26 -53 137 -96
247 -43 110 -84 213 -92 228 -7 15 -11 32 -8 37 3 6 33 10 65 10 l58 0 16 -42
c15 -40 38 -113 131 -410 30 -98 39 -118 56 -118 10 0 19 4 19 9 0 4 -42 132
-93 284 l-93 276 31 5 c44 7 273 -8 285 -20 5 -5 61 -130 124 -279 93 -219
118 -271 135 -273 12 -2 21 -1 21 2 0 3 -50 118 -110 257 -61 138 -110 252
-108 254 2 1 77 -114 168 -256 l165 -258 58 0 57 -1 -14 35 c-19 45 -119 194
-204 305 -112 146 -178 215 -234 246 -53 29 -54 29 -243 32 -301 6 -643 -25
-920 -83 -108 -22 -262 -63 -310 -81 -17 -7 -18 -2 -12 49 10 98 24 115 205
249 397 293 696 569 785 726 36 64 38 63 91 -61 27 -60 51 -98 77 -122 43 -38
66 -46 54 -17 -21 51 -20 53 21 36 126 -53 135 -67 86 -145 -15 -24 -32 -50
-36 -58 -7 -11 -1 -12 31 -7 l39 7 94 -152 c69 -112 98 -171 112 -223 29 -108
64 -171 222 -411 80 -121 160 -244 177 -272 27 -48 34 -53 65 -53 l35 0 -17
33 c-9 17 -91 138 -182 267 -180 255 -230 343 -256 447 -25 101 -55 158 -137
262 -111 140 -103 123 -80 170 45 86 21 125 -98 161 -80 23 -161 74 -161 100
0 10 22 36 49 58 67 53 92 84 135 171 46 93 58 110 163 230 102 116 164 213
233 369 29 64 57 122 62 127 14 14 1 -129 -23 -250 -11 -55 -38 -154 -59 -220
-22 -65 -37 -121 -35 -123 2 -2 16 4 32 13 77 46 230 318 277 495 36 133 56
277 56 400 0 130 12 174 60 226 21 23 41 55 45 72 3 17 -1 87 -9 154 -8 68
-20 179 -26 248 -13 150 -34 249 -66 312 -13 26 -24 54 -24 63 0 21 28 75 39
75 9 0 66 -144 104 -266 120 -381 148 -795 77 -1124 -39 -181 -105 -305 -220
-414 -38 -36 -65 -68 -61 -71 20 -12 64 18 143 97 83 84 128 149 269 393 192
334 282 677 265 1020 l-6 130 25 -45 c40 -73 102 -239 130 -344 42 -162 58
-319 52 -496 -10 -265 -51 -399 -154 -510 l-55 -60 43 0 c38 0 47 5 87 47 108
116 166 227 216 413 40 153 50 242 50 455 0 282 -31 491 -111 755 -92 304
-206 526 -530 1028 -79 123 -149 236 -154 250 -6 16 -8 58 -4 102 8 88 1 108
-54 175 -26 32 -50 76 -66 125 -28 85 -30 100 -12 100 6 0 91 -48 187 -106 96
-58 222 -131 280 -162 276 -150 440 -426 440 -739 0 -151 -37 -279 -115 -399
-68 -106 -57 -127 23 -46 82 81 165 265 197 435 19 102 19 275 0 352 -59 234
-269 462 -757 823 -190 141 -294 230 -428 368 -178 183 -318 374 -429 587 -60
114 -61 127 -32 329 38 265 44 350 38 615 -14 691 -162 1273 -424 1667 -75
113 -224 272 -314 337 -123 88 -114 72 -115 201 -1 142 -18 235 -49 274 -14
16 -25 27 -25 24z m50 -240 c0 -108 -27 -160 -177 -345 -41 -49 -69 -91 -64
-93 19 -6 93 40 134 83 23 24 56 66 72 94 17 28 33 50 36 48 4 -1 51 -38 104
-82 239 -197 421 -476 535 -822 119 -362 182 -790 183 -1233 0 -210 -22 -513
-43 -588 l-7 -27 -17 40 c-46 106 -122 358 -185 616 -39 158 -71 294 -71 303
0 9 -5 16 -11 16 -6 0 -8 -11 -5 -27 3 -16 13 -73 22 -128 98 -607 234 -995
474 -1354 186 -278 341 -428 790 -766 282 -212 426 -342 521 -468 117 -156
159 -276 159 -459 0 -123 -14 -138 -23 -25 -7 94 -64 269 -118 360 -46 77
-148 190 -218 241 -25 19 -98 62 -161 96 -277 150 -457 255 -487 283 -18 17
-44 59 -58 96 -52 129 -139 214 -254 247 -188 54 -291 89 -295 100 -3 8 0 50
6 93 11 73 10 82 -7 101 -16 18 -30 20 -134 20 -76 1 -124 5 -139 14 -63 34
-302 397 -401 608 -82 173 -171 418 -152 418 4 0 25 -18 46 -41 88 -90 225
-179 336 -218 73 -25 139 -36 139 -23 0 6 -39 52 -86 103 -47 52 -108 127
-136 169 -71 107 -160 292 -218 455 -50 142 -62 151 -36 28 46 -216 186 -514
301 -642 21 -23 33 -41 29 -41 -16 0 -128 71 -189 120 -316 252 -552 686 -743
1367 l-20 73 21 -5 c116 -24 158 -29 262 -28 102 0 132 4 200 26 70 23 201 95
191 104 -2 2 -48 -1 -102 -6 -204 -21 -471 32 -580 115 -44 34 -45 34 -69 17
-14 -10 -27 -27 -29 -38 -54 -249 -119 -400 -243 -565 -82 -110 -228 -246
-338 -316 -24 -15 -18 -5 25 44 130 149 197 235 281 360 49 73 89 136 89 140
0 4 -5 14 -10 22 -8 13 -12 11 -27 -10 -163 -231 -449 -494 -756 -694 -95 -63
-275 -152 -285 -142 -7 7 9 55 49 144 28 61 29 62 69 62 47 0 51 11 13 38
l-27 19 44 74 c24 41 103 162 175 269 145 214 148 220 141 220 -3 0 -41 -44
-85 -99 -88 -109 -329 -383 -368 -418 -21 -21 -35 -23 -119 -23 -74 0 -94 3
-94 14 0 18 79 216 114 285 58 114 161 275 306 481 152 215 175 250 151 236
-14 -9 -358 -469 -591 -790 -139 -190 -197 -262 -207 -253 -2 3 59 127 136
276 78 149 141 275 141 281 0 25 -37 5 -89 -48 -203 -208 -386 -499 -539 -857
-144 -337 -201 -587 -203 -890 l-1 -160 -19 60 c-47 152 -65 384 -40 525 17
95 50 206 167 571 57 180 104 333 104 340 -1 8 -10 -2 -20 -23 -24 -45 -65
-78 -97 -78 -32 0 -29 7 58 182 188 376 431 714 695 968 179 172 334 270 517
328 123 38 149 56 70 46 -254 -32 -627 -290 -874 -604 -237 -301 -480 -739
-578 -1044 -23 -71 -97 -226 -108 -226 -8 0 5 216 23 368 40 347 142 643 322
936 206 337 476 588 812 756 505 253 1026 300 1555 140 71 -21 175 -68 175
-78 0 -16 -43 -75 -85 -117 -48 -48 -170 -131 -272 -185 -35 -18 -63 -37 -63
-43 0 -18 95 4 170 41 60 29 95 56 170 132 110 111 168 203 202 327 13 45 26
76 30 70 4 -7 8 -46 8 -87z m-385 -1111 c47 -12 130 -23 203 -26 67 -3 122 -9
122 -12 0 -4 -54 -15 -121 -25 -101 -16 -132 -17 -189 -7 -140 23 -232 76
-258 148 l-10 29 87 -43 c47 -24 122 -53 166 -64z m-200 -154 c107 -406 226
-714 385 -1002 l51 -93 -63 44 c-87 60 -191 111 -313 152 -114 38 -301 70
-343 59 -21 -6 11 -18 159 -60 271 -77 375 -123 518 -228 38 -28 56 -36 61
-27 8 13 56 -95 89 -202 l20 -67 -76 -253 c-42 -143 -90 -282 -110 -320 -36
-68 -168 -224 -189 -222 -6 1 -56 33 -111 72 -206 147 -330 183 -377 110 -17
-27 -76 -412 -76 -496 0 -31 7 -88 15 -127 8 -38 15 -73 15 -77 0 -13 -137
-77 -232 -109 -105 -35 -248 -65 -363 -74 -98 -9 -186 11 -260 57 -27 17 -87
53 -133 79 -123 72 -168 105 -265 193 -183 167 -297 321 -348 469 -39 113 -55
215 -79 503 -11 137 -27 322 -36 411 -20 218 -14 253 80 437 40 78 92 173 116
211 58 93 199 292 218 307 8 7 -31 -78 -86 -189 -94 -187 -104 -202 -146 -229
-54 -34 -57 -44 -16 -44 l30 0 -29 -59 c-17 -32 -27 -61 -24 -64 10 -10 90 51
128 97 20 24 44 47 53 51 35 15 82 23 87 15 3 -5 -10 -72 -27 -149 -26 -110
-37 -141 -49 -141 -26 0 -153 -67 -179 -95 -31 -33 -20 -32 78 10 90 38 97 33
24 -16 -106 -72 -142 -125 -142 -212 0 -69 32 -131 89 -174 23 -18 47 -33 52
-33 5 0 -8 27 -30 59 -66 97 -64 163 7 223 30 25 89 54 96 47 3 -2 0 -27 -5
-54 -33 -169 88 -358 227 -358 80 0 178 80 204 166 10 33 14 38 19 23 6 -17 9
-16 26 10 20 30 24 81 15 194 -4 54 -4 55 28 64 18 5 32 15 32 23 0 48 -73
133 -114 133 -13 0 -6 -13 28 -52 25 -28 42 -56 39 -61 -7 -12 -51 0 -86 25
-25 18 -28 25 -22 54 7 37 3 39 -43 23 -23 -8 -47 -7 -89 1 -32 7 -93 13 -135
13 -43 0 -78 1 -78 3 0 2 14 11 31 19 16 9 83 62 147 119 118 103 160 136 174
136 4 0 -13 -57 -37 -127 -25 -70 -45 -129 -45 -130 0 -9 84 -1 131 13 131 39
238 107 494 313 120 97 171 133 155 110 -45 -64 -216 -225 -294 -277 -87 -58
-77 -67 31 -27 77 29 180 87 273 153 82 58 254 225 331 320 103 127 198 305
229 430 8 29 17 49 21 45 4 -5 24 -71 44 -148z m-1551 -471 c-47 -107 -65
-135 -91 -145 -14 -5 -30 -8 -35 -7 -8 3 136 208 146 208 3 0 -6 -25 -20 -56z
m113 -202 c12 -8 3 -18 -154 -166 -29 -28 -55 -47 -58 -45 -6 6 54 189 68 207
11 13 124 17 144 4z m-777 -11 c0 -11 -152 -499 -168 -541 l-10 -25 -11 28
c-22 57 -14 97 75 386 22 72 44 122 59 137 24 24 55 32 55 15z m-243 -454 c0
-34 8 -87 17 -117 l17 -55 -150 -348 c-83 -192 -154 -353 -158 -360 -11 -18
-21 29 -22 103 -1 108 55 324 135 518 33 81 151 322 157 322 2 0 4 -28 4 -63z
m347 -49 c3 -40 9 -95 13 -121 l6 -49 -52 26 c-28 15 -51 30 -51 34 0 21 63
191 69 187 5 -2 11 -37 15 -77z m579 65 c4 -4 -4 -18 -17 -32 -35 -39 -40 -64
-15 -94 17 -22 29 -27 67 -27 89 0 28 -18 -85 -25 l-112 -8 -7 27 c-7 29 3
112 17 138 5 9 19 19 31 21 38 7 114 7 121 0z m54 -55 c21 -20 22 -23 6 -40
-22 -24 -50 -23 -63 3 -9 16 -8 25 6 40 21 24 23 24 51 -3z m143 -31 c31 -50
24 -107 -12 -107 -70 0 -111 96 -62 144 20 21 48 7 74 -37z m-70 -143 c48 -17
55 -22 52 -43 -4 -39 -51 -92 -100 -113 -39 -17 -50 -19 -84 -9 -21 7 -54 25
-72 42 -39 34 -83 116 -70 129 26 25 192 21 274 -6z m-743 -31 c36 -24 53 -59
53 -113 0 -55 -11 -67 -55 -56 -57 15 -93 89 -75 156 10 36 14 40 33 34 12 -4
32 -13 44 -21z m-12 -213 c16 -6 39 -9 51 -6 18 5 22 0 28 -32 3 -20 6 -60 6
-88 0 -76 28 -227 62 -334 53 -165 149 -333 258 -454 29 -31 51 -58 49 -60 -2
-2 -57 14 -122 35 -122 39 -284 112 -338 149 -35 26 -83 116 -104 197 -20 77
-20 420 0 558 8 55 15 105 15 110 0 6 15 -7 33 -27 17 -21 45 -42 62 -48z
m-270 -328 c21 -110 67 -240 116 -330 22 -40 37 -77 34 -82 -10 -16 -87 -11
-131 9 -79 36 -134 137 -155 284 -18 133 5 268 79 449 l27 68 7 -158 c3 -86
14 -194 23 -240z m3084 291 l20 -51 -47 -5 c-26 -3 -49 -3 -51 -1 -4 4 13 66
31 113 11 30 15 26 47 -56z m51 -112 c21 -40 12 -68 -36 -110 -71 -63 -204
-121 -204 -90 0 25 51 167 63 177 14 12 112 40 144 41 13 1 27 -8 33 -18z m86
-362 c64 -274 63 -269 75 -269 19 0 7 123 -35 339 -11 57 -11 70 -1 60 15 -17
235 -345 235 -352 0 -2 -13 -7 -29 -10 -15 -3 -70 -24 -122 -46 -52 -23 -104
-41 -116 -41 -46 0 -85 68 -150 259 -49 144 -59 182 -50 195 13 18 130 105
135 101 2 -2 28 -108 58 -236z m-3395 -49 c16 -61 35 -97 78 -150 l36 -45 -30
19 c-62 39 -113 86 -148 138 l-37 54 29 87 c16 48 33 92 38 99 5 8 11 -22 15
-72 4 -47 12 -105 19 -130z m3199 7 c23 -88 40 -161 37 -163 -17 -17 -144 228
-149 287 -3 30 0 34 27 39 17 4 33 4 37 1 3 -3 25 -77 48 -164z m-770 100 c24
-10 24 -11 -15 -16 -34 -5 -43 -12 -59 -45 -16 -34 -19 -64 -20 -250 -1 -231
7 -277 59 -326 39 -37 41 -16 4 57 l-34 67 1 216 c0 238 5 260 53 260 32 0
131 -69 260 -180 81 -69 110 -120 111 -187 0 -57 8 -77 26 -62 18 15 17 82 -1
132 -18 51 -6 38 25 -26 14 -29 32 -53 41 -55 14 -3 15 3 8 40 -4 24 -8 48 -9
55 0 6 25 17 56 23 121 25 345 -29 408 -99 19 -21 19 -22 -9 -51 -16 -16 -26
-32 -24 -35 3 -3 44 20 92 50 102 65 166 92 263 111 71 13 320 21 331 10 3 -3
0 -39 -6 -81 -6 -42 -11 -97 -11 -123 -1 -128 -57 -271 -141 -360 -43 -46 -49
-58 -44 -82 8 -35 -83 -340 -123 -414 -60 -111 -172 -202 -298 -245 -124 -41
-457 -113 -498 -106 -55 8 -223 97 -318 167 -123 91 -244 212 -274 275 -37 76
-42 159 -16 309 41 230 44 275 27 345 -21 91 -18 217 10 424 14 99 25 183 25
187 0 4 7 14 16 23 16 16 30 14 84 -8z m668 -130 c29 -64 52 -119 52 -121 0
-1 -66 -6 -147 -9 -127 -5 -150 -4 -165 10 -10 9 -18 22 -18 29 0 14 120 147
127 140 2 -2 -3 -31 -11 -64 -18 -69 -19 -72 -8 -72 5 0 30 50 57 110 26 61
51 107 55 103 4 -4 30 -61 58 -126z m-326 -112 c25 -35 18 -29 -48 45 -39 44
-41 48 -10 20 21 -19 47 -48 58 -65z m-2825 6 c41 -46 83 -80 119 -97 l56 -27
-70 -32 c-120 -56 -165 -116 -258 -348 -52 -128 -88 -257 -109 -387 -23 -143
-20 -225 12 -317 l26 -78 7 -530 c9 -644 30 -898 106 -1305 34 -181 97 -440
102 -414 1 11 -20 189 -47 395 -93 695 -109 878 -118 1309 -4 222 -2 302 6
295 6 -6 26 -123 46 -260 20 -138 59 -383 87 -545 l51 -295 3 -310 c4 -344 18
-485 79 -817 33 -178 44 -308 27 -308 -33 0 -260 439 -320 620 -138 418 -190
881 -179 1618 3 215 2 392 -2 392 -12 0 -87 -232 -120 -370 -79 -326 -96 -680
-47 -980 30 -182 66 -284 139 -384 20 -28 34 -52 32 -54 -11 -12 -90 54 -130
109 -111 151 -175 421 -175 739 0 366 60 665 267 1330 20 63 57 163 84 222 68
151 110 289 169 553 54 246 80 345 87 345 3 0 34 -31 70 -69z m486 -146 c62
-18 59 -35 -6 -35 -63 0 -188 -22 -260 -46 -56 -19 -57 -30 -1 -15 22 6 81 15
132 21 174 19 358 -18 557 -114 133 -65 296 -170 250 -162 -149 26 -213 30
-410 29 -324 -1 -375 -18 -80 -26 235 -6 360 -20 520 -58 85 -20 129 -39 93
-39 -24 0 -172 -77 -193 -100 -19 -21 -19 -21 5 -11 14 5 59 24 100 41 57 25
94 33 155 37 l80 4 -65 -42 c-36 -23 -112 -69 -170 -102 -58 -33 -129 -83
-158 -111 -93 -89 -158 -219 -181 -361 -6 -38 -23 -144 -38 -235 -37 -223 -35
-342 6 -625 38 -265 51 -320 95 -407 19 -38 30 -68 25 -68 -19 0 -105 49 -126
72 -32 34 -59 101 -90 224 -25 100 -28 124 -27 299 0 161 5 222 33 404 17 118
30 221 28 230 -4 19 -59 -205 -82 -334 -9 -49 -19 -165 -22 -258 -6 -184 4
-294 42 -433 l22 -84 -21 5 c-94 27 -264 137 -390 255 -217 204 -421 527 -460
730 l-7 35 22 -35 c157 -249 284 -401 393 -472 94 -61 97 -45 7 44 -129 128
-227 254 -370 481 -98 155 -115 207 -114 357 0 181 46 383 144 636 54 139 108
191 261 253 100 40 201 46 301 16z m3766 -196 c251 -70 274 -94 387 -401 62
-167 82 -211 126 -276 51 -74 54 -103 22 -199 -15 -45 -30 -83 -33 -83 -3 0
-17 26 -30 56 -37 85 -91 162 -164 235 -40 40 -67 75 -67 87 0 12 9 44 20 73
36 89 0 48 -49 -57 -104 -226 -240 -447 -414 -679 -238 -315 -453 -553 -652
-720 -33 -27 -96 -81 -139 -119 -134 -116 -224 -142 -391 -112 -336 62 -846
235 -1385 468 -424 184 -614 273 -643 303 -29 29 -30 30 -24 115 8 105 41 292
68 384 46 154 147 336 228 409 53 47 295 177 330 177 20 0 481 -225 481 -234
0 -3 -22 -17 -50 -32 -45 -24 -52 -33 -81 -103 -19 -46 -34 -101 -37 -139 -4
-55 -1 -69 27 -126 27 -55 37 -66 74 -81 23 -9 78 -19 122 -22 74 -5 83 -3
115 21 19 14 45 33 57 42 42 31 195 77 258 78 69 1 104 -16 305 -149 131 -86
197 -111 274 -101 28 3 141 28 250 55 250 62 322 96 423 196 96 95 132 172
185 391 39 160 43 169 86 217 58 66 97 150 124 270 16 69 26 97 37 97 8 0 80
-18 160 -41z m-1939 -188 c0 -19 -42 -296 -45 -299 -2 -2 -15 19 -29 47 -31
59 -81 91 -148 92 -24 0 -61 6 -83 13 -47 15 -63 5 150 95 151 64 155 66 155
52z m-356 -166 c38 -22 67 -30 120 -35 l71 -5 -44 -24 c-38 -20 -55 -23 -112
-19 -73 6 -99 -3 -99 -32 0 -10 -4 -22 -10 -25 -14 -8 -321 155 -314 167 4 6
68 9 173 6 163 -3 167 -4 215 -33z m95 -136 c167 -44 209 -58 215 -75 7 -19 1
-18 -50 12 -46 27 -75 28 -196 8 -51 -8 -87 2 -97 28 -8 22 -4 58 7 58 3 0 57
-14 121 -31z m149 -93 c39 -20 72 -61 122 -145 24 -41 61 -94 82 -117 41 -44
38 -54 -19 -54 -41 0 -249 -76 -296 -109 -61 -42 -87 -47 -119 -21 -22 17 -28
30 -30 73 l-3 52 -14 -59 c-8 -32 -21 -60 -28 -63 -25 -10 -64 16 -78 50 -12
29 -12 42 0 88 19 69 19 69 -10 34 -32 -39 -32 -23 1 90 29 102 46 125 119
160 92 45 210 54 273 21z m2336 -113 c151 -178 202 -335 213 -653 3 -92 1
-205 -6 -275 -20 -194 -103 -574 -126 -578 -6 0 -47 70 -92 156 -45 87 -106
199 -136 250 -108 182 -267 518 -267 564 0 15 31 71 78 142 100 147 168 263
223 374 24 48 46 87 50 87 3 0 32 -30 63 -67z m358 -388 c36 -60 129 -216 208
-345 220 -363 327 -602 406 -905 71 -277 101 -604 75 -821 -12 -98 -57 -318
-69 -341 -4 -6 -7 84 -7 200 0 221 -7 283 -52 462 -44 178 -151 421 -211 478
l-28 27 4 -158 c8 -332 -64 -638 -224 -952 l-64 -125 7 85 c5 47 8 191 7 320
0 196 -4 254 -22 350 -31 167 -84 353 -146 509 -29 75 -57 154 -60 177 -5 29
2 87 23 195 44 226 54 349 47 571 -3 106 -8 225 -11 263 -5 60 -3 75 15 104
12 18 25 30 29 25 4 -5 37 -58 73 -119z m-723 -354 c43 -86 85 -177 92 -201 7
-25 25 -56 39 -70 37 -35 314 -581 351 -690 32 -97 40 -150 64 -419 18 -212
19 -209 -115 -361 -323 -367 -490 -630 -591 -930 -81 -242 -142 -353 -222
-409 -44 -30 -47 -31 -56 -12 -18 33 -41 51 -66 51 -20 0 -27 9 -42 57 -23 75
-60 110 -121 118 -103 13 -142 56 -150 165 -4 62 6 92 87 262 74 153 93 169
318 268 104 45 218 99 254 121 126 73 226 183 300 331 37 74 60 95 90 83 15
-5 47 11 38 19 -3 3 -40 15 -82 25 -166 43 -221 90 -375 318 -65 98 -131 201
-145 230 -33 65 -50 77 -167 114 -135 43 -202 57 -326 68 -172 16 -209 37
-156 91 34 33 95 53 217 70 l90 12 156 -41 c86 -23 161 -41 167 -41 11 0 98
109 90 113 -195 99 -305 150 -352 160 l-58 13 53 48 c30 27 63 53 74 58 25 11
57 -1 259 -96 77 -36 143 -63 148 -60 5 4 -1 17 -13 31 -19 20 -21 26 -9 33
12 7 12 13 1 37 -27 60 -104 164 -156 211 l-54 49 61 72 c33 39 64 71 68 71 5
0 60 -70 122 -155 103 -140 128 -169 128 -147 0 4 -47 83 -105 177 -58 93
-103 175 -101 181 11 29 100 143 108 138 5 -3 44 -76 87 -163z m-4594 -308 c0
-414 7 -527 50 -868 13 -104 22 -191 21 -193 -7 -6 -64 101 -85 158 -90 242
-105 705 -36 1080 24 130 44 220 48 220 1 0 2 -179 2 -397z m410 209 c130
-246 231 -343 551 -528 82 -48 181 -113 221 -145 55 -46 78 -59 101 -57 16 1
68 -11 115 -27 118 -40 129 -36 187 80 33 67 253 429 275 453 5 5 485 -192
485 -199 0 -8 -124 -31 -350 -65 -96 -15 -180 -31 -187 -36 -9 -7 -41 -119
-47 -163 -1 -12 43 -9 182 16 200 35 420 95 505 140 75 38 80 40 103 24 30
-19 30 -24 -2 -86 -30 -61 -76 -108 -206 -212 -130 -104 -234 -174 -343 -232
-49 -27 -91 -49 -93 -51 -2 -1 6 -20 18 -43 26 -52 43 -52 140 0 177 97 492
324 540 391 16 21 41 70 56 109 15 38 31 69 36 69 19 0 292 -72 323 -84 67
-28 110 -118 140 -290 18 -109 14 -154 -31 -373 -22 -102 -27 -157 -28 -268
-1 -214 18 -434 43 -491 12 -25 21 -51 21 -56 0 -6 -24 -36 -52 -67 -54 -59
-344 -463 -410 -572 -67 -110 -71 -234 -10 -291 48 -45 200 -77 273 -58 60 16
90 40 115 92 12 23 47 95 77 158 50 103 182 300 207 308 15 5 12 -64 -3 -101
-8 -18 -40 -56 -71 -85 -32 -28 -54 -52 -51 -52 4 0 54 25 110 55 57 30 108
55 113 55 6 0 21 -21 33 -47 33 -67 34 -202 3 -233 -11 -12 -95 -48 -185 -81
-153 -56 -202 -79 -170 -79 7 0 74 19 149 42 144 44 159 44 176 -4 13 -37 -1
-96 -27 -109 -12 -7 -138 -27 -282 -46 -212 -27 -269 -31 -308 -23 -88 18
-128 13 -213 -30 -93 -46 -163 -65 -296 -80 -149 -16 -254 -12 -318 10 -71 25
-109 25 -195 -1 -110 -33 -277 -36 -455 -10 -320 48 -671 112 -726 132 -89 32
-109 57 -108 127 5 176 28 542 35 535 4 -4 38 -80 74 -168 36 -88 71 -164 77
-170 22 -21 -4 101 -57 265 -29 91 -60 192 -69 225 -21 83 -23 215 -4 246 14
22 12 44 -28 268 -24 135 -50 299 -59 365 -20 151 -32 515 -17 501 6 -5 29
-71 52 -145 93 -299 112 -358 148 -442 21 -49 43 -88 51 -88 7 0 11 6 8 13
-66 176 -349 1218 -334 1233 2 2 17 -26 32 -63 118 -282 300 -576 523 -841 53
-65 121 -148 149 -187 82 -112 293 -307 346 -320 49 -13 31 19 -40 68 -38 25
-94 72 -125 104 -79 81 -384 438 -473 554 -184 239 -291 465 -381 804 -104
392 -124 482 -105 471 5 -4 35 -55 66 -114z m1028 -26 c97 -45 372 -177 375
-181 12 -12 -254 -474 -295 -512 -20 -19 -27 -21 -47 -11 -25 11 -71 69 -98
123 -30 59 -119 485 -111 529 7 35 57 76 94 76 17 0 54 -11 82 -24z m2843
-154 c106 -132 127 -178 77 -166 -33 8 -262 99 -270 108 -7 7 108 134 122 135
6 0 38 -35 71 -77z m-185 -311 c108 -37 175 -65 177 -74 4 -18 -53 -67 -77
-67 -10 0 -55 12 -102 27 -76 25 -97 27 -226 26 -79 0 -143 2 -143 6 0 4 27
30 60 59 59 53 105 82 126 82 6 0 89 -27 185 -59z m-1652 28 c27 -10 30 -13
19 -27 -15 -18 -79 -47 -127 -57 l-35 -7 43 51 c46 55 51 57 100 40z m-129
-17 c0 -13 -52 -58 -88 -77 -39 -19 -371 -105 -407 -105 -24 0 -25 2 -19 43 4
23 12 47 18 54 6 7 115 30 241 52 264 45 255 44 255 33z m341 -62 c5 0 9 -4 9
-9 0 -13 -91 -173 -96 -168 -2 2 2 26 10 53 8 27 20 69 26 92 8 33 15 42 26
38 9 -3 20 -6 25 -6z m-127 -182 c-29 -56 -55 -86 -133 -152 -91 -76 -226
-167 -338 -227 -75 -40 -83 -43 -98 -28 -14 14 -2 24 132 114 155 103 300 210
392 288 30 26 56 45 59 43 2 -2 -4 -19 -14 -38z m714 26 c68 -14 82 -20 77
-33 -4 -9 -30 -78 -58 -154 l-52 -139 -6 95 c-7 97 -18 145 -51 210 -22 44
-24 43 90 21z m312 -41 c14 -9 31 -23 38 -30 31 -31 55 -35 144 -28 l90 7 -7
-24 c-4 -13 -57 -126 -118 -253 -162 -339 -176 -372 -203 -465 -20 -67 -24
-97 -19 -142 8 -65 -18 -138 -55 -158 -31 -17 -48 -6 -71 45 -11 25 -23 45
-26 45 -3 0 -3 -27 0 -59 6 -55 5 -60 -18 -75 -34 -22 -59 -20 -92 8 -26 23
-28 29 -26 95 2 75 -6 89 -24 44 l-10 -28 -13 30 c-29 69 -8 317 46 528 21 82
144 443 160 469 3 4 44 8 92 8 66 0 94 -4 112 -17z m464 -98 c121 -39 146 -51
176 -83 20 -20 93 -128 164 -239 143 -225 204 -294 300 -334 31 -12 56 -27 56
-31 0 -14 -57 -125 -82 -161 -113 -162 -235 -251 -523 -377 -398 -175 -593
-289 -739 -434 -105 -104 -165 -193 -253 -376 -66 -136 -103 -188 -145 -203
-28 -10 -66 30 -84 88 -10 30 -21 55 -25 55 -15 0 -21 -67 -10 -106 15 -54 14
-56 -16 -40 -59 30 -77 61 -83 144 -5 73 -6 76 -18 47 -7 -16 -16 -50 -20 -75
l-8 -45 -13 38 c-15 44 -5 101 30 168 42 84 151 244 173 256 12 6 39 44 59 86
23 46 67 108 114 162 119 134 162 193 204 279 46 95 61 112 108 127 20 6 51
22 69 36 53 40 64 74 72 218 8 175 16 188 183 319 48 38 85 71 83 74 -6 5
-101 -40 -143 -68 -18 -12 -33 -18 -33 -13 0 4 45 93 99 198 89 170 101 187
109 165 45 -124 60 -159 92 -208 33 -51 90 -114 90 -100 0 3 -34 76 -75 163
-74 155 -92 208 -42 123 31 -53 95 -128 109 -128 5 0 -16 47 -47 105 -63 117
-100 215 -83 215 6 0 75 -20 152 -45z m1029 -890 c14 -88 -27 -318 -94 -519
-35 -108 -107 -267 -108 -241 -1 6 8 57 20 115 22 112 31 314 16 385 l-9 39
-97 -189 c-53 -105 -118 -224 -145 -265 -54 -84 -126 -173 -133 -166 -17 17
95 264 182 406 79 126 339 470 356 470 4 0 9 -16 12 -35z m-1838 -175 c30 -22
55 -45 55 -51 0 -13 -59 -129 -66 -129 -3 0 -14 19 -24 43 -19 43 -39 177 -26
177 4 0 31 -18 61 -40z m610 -365 c-49 -44 -54 -56 -13 -34 11 6 22 8 24 6 9
-9 -64 -142 -93 -168 -15 -15 -61 -43 -102 -64 -40 -20 -109 -56 -153 -81 -44
-24 -82 -44 -84 -44 -6 0 -4 61 2 103 8 44 39 77 143 150 63 43 305 176 321
176 3 0 -17 -20 -45 -44z m-81 -324 c-9 -83 -2 -103 66 -176 63 -68 68 -77 48
-92 -12 -9 -203 -79 -268 -99 -14 -4 -26 -7 -28 -8 -1 -1 -4 44 -5 99 -3 86
-7 108 -30 154 -15 30 -25 56 -23 58 11 11 222 121 234 122 10 1 11 -13 6 -58z
m234 -236 c24 -30 38 -139 23 -177 -6 -15 -21 -34 -35 -43 -24 -16 -428 -145
-453 -145 -9 0 -13 18 -13 58 0 31 -7 70 -15 85 -11 21 -11 29 -2 32 7 2 68
18 137 35 161 41 267 90 276 128 10 48 13 52 38 52 14 0 33 -10 44 -25z m-38
-310 c-21 -25 -401 -358 -404 -354 -1 2 -13 25 -25 52 -28 59 -87 97 -150 97
-24 0 -89 -12 -146 -27 l-103 -27 -49 22 c-26 13 -59 31 -72 41 -23 18 -22 18
85 30 238 28 571 95 784 160 84 25 97 26 80 6z m-1460 -295 c-25 -21 -53 -42
-63 -45 -20 -7 -251 44 -242 54 5 5 172 20 325 29 23 2 21 -1 -20 -38z m2194
-654 c50 -61 249 -356 242 -356 -7 0 -306 417 -306 426 0 10 5 5 64 -70z"/>
<path d="M4466 7630 c30 -74 54 -191 54 -261 0 -60 16 -57 25 4 13 83 -37 259
-86 303 -16 15 -15 8 7 -46z"/>
<path d="M5093 7528 c-27 -13 -31 -32 -5 -25 9 3 40 8 67 12 39 6 46 9 30 16
-28 11 -66 10 -92 -3z"/>
<path d="M5195 7473 c-76 -16 -154 -46 -171 -64 -19 -21 -19 -22 1 -16 67 21
196 47 228 47 41 0 125 -18 131 -29 2 -3 -46 -6 -107 -6 -125 0 -152 -9 -220
-74 -39 -36 -73 -89 -64 -98 3 -2 17 3 31 12 30 20 30 20 11 -35 -52 -148 27
-314 168 -355 65 -19 118 -10 176 28 68 45 141 180 141 261 0 18 3 36 7 39 3
4 28 -21 54 -56 67 -85 67 -119 2 -189 -27 -28 -72 -64 -101 -80 -29 -17 -51
-33 -48 -35 2 -3 29 2 58 11 133 38 232 167 214 279 -4 21 -18 62 -32 90 -20
39 -25 61 -21 94 l5 43 -39 0 c-45 0 -69 27 -69 77 l0 32 -29 -17 c-28 -16
-32 -15 -68 2 -79 39 -186 55 -258 39z m-25 -229 c15 -54 43 -72 87 -56 27 9
30 7 51 -29 13 -22 21 -43 18 -48 -3 -5 -29 -11 -57 -15 -58 -8 -121 -31 -160
-58 l-27 -18 -13 33 c-33 78 -5 195 52 224 35 18 35 18 49 -33z m99 22 c10
-11 7 -17 -10 -29 -36 -25 -67 1 -37 31 16 16 33 15 47 -2z m170 -22 c25 -32
26 -52 5 -82 -22 -31 -57 -28 -88 9 -24 29 -34 77 -19 92 3 4 23 7 44 7 29 0
42 -6 58 -26z m-13 -216 c-22 -112 -169 -167 -264 -98 -57 41 -69 66 -40 81
56 31 137 48 222 48 l89 1 -7 -32z"/>
<path d="M3520 7021 c0 -13 -1 -13 279 -71 225 -47 279 -53 241 -30 -29 18
-197 69 -275 84 -105 19 -245 29 -245 17z"/>
<path d="M3543 6889 c-18 -5 -33 -12 -33 -14 0 -3 82 -5 183 -4 165 1 178 2
142 14 -46 16 -244 18 -292 4z"/>
<path d="M4400 6871 c-14 -27 -13 -54 5 -77 13 -17 14 -14 15 39 0 61 -3 68
-20 38z"/>
<path d="M5127 6730 c-66 -12 -66 -28 -1 -35 230 -25 348 -51 412 -93 34 -22
37 -7 3 17 -109 78 -309 132 -414 111z"/>
<path d="M4090 6500 c0 -23 77 -83 162 -125 97 -47 199 -75 281 -75 97 0 287
52 287 79 0 15 -24 14 -117 -4 -99 -19 -222 -19 -298 0 -33 8 -114 42 -180 75
-124 63 -135 67 -135 50z"/>
<path d="M5468 6329 c46 -56 72 -112 72 -153 0 -10 5 -14 10 -11 25 15 -1 118
-42 165 -19 22 -69 60 -80 60 -5 0 13 -27 40 -61z"/>
<path d="M6540 6290 c-131 -16 -242 -79 -307 -174 -44 -65 -42 -100 6 -104 48
-5 63 15 17 23 l-36 7 22 40 c65 115 222 187 409 188 100 0 103 -4 97 -121 -5
-81 -10 -100 -47 -174 -58 -118 -132 -177 -160 -128 -14 26 -24 9 -16 -27 6
-28 10 -31 33 -25 68 16 159 124 192 226 27 84 33 231 10 253 -19 18 -135 27
-220 16z"/>
<path d="M6401 6156 c-41 -13 -77 -29 -79 -36 -3 -9 1 -11 12 -7 10 4 51 17
92 28 41 12 74 26 74 31 0 11 -14 9 -99 -16z"/>
<path d="M5484 6122 c-13 -8 -34 -46 -34 -61 0 -6 22 1 50 17 44 24 48 28 33
40 -19 14 -33 15 -49 4z"/>
<path d="M5289 5777 c-66 -35 -104 -102 -103 -181 1 -96 46 -167 128 -201 44
-19 167 -22 210 -5 26 10 28 13 22 58 -3 26 -8 92 -12 147 -3 55 -12 115 -19
132 -30 72 -139 96 -226 50z m124 -23 c3 -3 -4 -21 -15 -40 -36 -62 -10 -123
61 -141 l33 -9 -34 -44 c-43 -57 -71 -62 -97 -18 -11 18 -23 51 -27 73 -6 46
10 151 27 171 12 14 41 19 52 8z m-99 -76 c-3 -35 -8 -69 -10 -77 -9 -28 19
-122 44 -146 38 -38 77 -33 122 15 l37 40 7 -41 c4 -26 3 -46 -4 -53 -6 -6
-43 -11 -83 -11 -84 1 -141 25 -181 77 -50 67 -42 164 19 225 48 48 56 43 49
-29z m161 12 c21 -41 19 -67 -7 -81 -18 -10 -24 -8 -40 11 -30 38 -19 100 19
100 7 0 19 -13 28 -30z"/>
<path d="M6145 5626 c-35 -15 -66 -59 -125 -176 -52 -103 -49 -112 51 -163 87
-44 155 -50 218 -17 96 48 123 190 57 291 -39 59 -140 91 -201 65z m18 -85
c-32 -64 -25 -87 35 -113 26 -11 49 -22 51 -24 2 -2 -11 -24 -30 -49 -39 -52
-61 -55 -93 -12 -16 22 -22 47 -25 107 -3 77 -2 80 27 110 48 48 64 39 35 -19z
m87 4 c6 -8 13 -29 13 -47 2 -29 -1 -33 -26 -36 -30 -4 -57 12 -57 33 0 15 38
65 50 65 4 0 13 -7 20 -15z m94 -89 c10 -21 14 -45 10 -60 -8 -32 -57 -82 -94
-95 l-30 -10 24 42 c23 40 37 80 50 140 8 33 18 29 40 -17z m-269 -62 c9 -41
15 -78 12 -81 -3 -2 -23 7 -46 21 l-41 26 27 55 c15 30 28 55 29 55 1 0 10
-34 19 -76z"/>
<path d="M5665 5251 c-34 -7 -57 -44 -49 -81 3 -14 19 -47 35 -73 16 -27 29
-57 29 -68 0 -23 -35 -39 -85 -39 -19 0 -36 -4 -39 -9 -7 -11 38 -18 159 -26
l90 -6 -44 23 c-25 13 -47 28 -48 34 -2 6 26 41 62 76 89 88 86 129 -12 164
-41 14 -53 15 -98 5z m113 -47 c30 -20 28 -37 -9 -79 -48 -54 -80 -43 -114 37
-13 34 -13 38 2 53 19 20 83 14 121 -11z"/>
<path d="M2676 5773 c-26 -77 -18 -249 13 -285 3 -4 6 69 6 163 0 93 -1 169
-2 169 0 0 -8 -21 -17 -47z"/>
<path d="M2774 5570 c9 -171 69 -380 158 -550 46 -91 119 -190 138 -190 5 0
-20 55 -55 123 -105 201 -174 389 -227 622 l-18 80 4 -85z"/>
<path d="M3643 5502 c-61 -89 -123 -264 -123 -342 1 -50 13 -24 44 94 14 54
48 143 76 197 27 55 46 99 42 99 -4 0 -21 -21 -39 -48z"/>
<path d="M5563 4289 c-18 -5 -33 -12 -33 -14 0 -3 35 -5 78 -5 48 0 71 4 62 9
-27 15 -74 20 -107 10z"/>
<path d="M5687 3987 c-72 -33 -77 -47 -20 -47 45 0 86 22 101 54 15 34 5 33
-81 -7z"/>
<path d="M5347 3620 c-4 -8 -35 -131 -71 -273 -63 -256 -69 -330 -13 -171 30
84 100 417 94 443 -3 14 -5 14 -10 1z"/>
<path d="M4960 2577 c-167 -212 -331 -407 -503 -594 -92 -100 -167 -185 -167
-188 0 -15 140 119 256 246 251 275 533 635 512 654 -2 2 -46 -52 -98 -118z"/>
<path d="M3068 1978 c39 -57 266 -278 366 -357 132 -104 318 -222 331 -209 2
2 -55 48 -128 103 -181 138 -279 220 -444 373 -77 73 -144 132 -147 132 -4 0
6 -19 22 -42z"/>
<path d="M8405 7389 c-55 -29 -74 -47 -98 -94 -30 -59 -29 -136 2 -169 65 -70
180 -36 212 62 17 51 7 156 -17 189 -27 36 -49 39 -99 12z m70 -23 c27 -20 33
-121 10 -167 -41 -81 -87 -100 -130 -53 -60 65 -36 176 47 217 41 20 49 21 73
3z"/>
<path d="M8094 7366 c-71 -31 -97 -116 -44 -143 14 -7 53 -13 87 -13 56 0 64
3 79 25 21 33 14 113 -12 132 -23 17 -70 16 -110 -1z m94 -28 c7 -7 12 -27 12
-45 0 -26 -5 -36 -24 -43 -13 -5 -32 -7 -42 -5 -11 2 -36 7 -57 10 l-37 6 15
29 c8 16 25 36 37 44 27 19 79 21 96 4z"/>
<path d="M7838 7263 c-43 -46 -78 -104 -78 -130 0 -27 31 -43 86 -43 77 0 122
50 109 120 -15 82 -67 105 -117 53z m92 -63 c0 -15 -8 -34 -17 -43 -22 -19
-83 -30 -102 -18 -18 12 11 72 52 107 l31 26 18 -22 c10 -12 18 -35 18 -50z"/>
<path d="M8095 7139 c-17 -4 -87 -37 -155 -71 -146 -74 -181 -109 -182 -181
-1 -57 26 -103 89 -147 26 -18 78 -58 115 -88 37 -29 90 -62 118 -73 110 -42
254 -10 297 66 70 123 -29 421 -160 484 -46 22 -73 25 -122 10z m98 -33 c92
-38 191 -259 172 -380 -14 -88 -60 -120 -175 -120 -65 -1 -82 3 -123 27 -26
16 -53 37 -60 48 -7 12 -47 41 -89 66 -43 24 -88 59 -100 76 -27 38 -29 92 -4
129 25 37 278 166 329 168 10 0 32 -6 50 -14z"/>
<path d="M1304 7112 c-53 -42 -56 -85 -12 -189 25 -60 38 -78 62 -88 52 -22
118 11 152 77 30 58 13 109 -60 176 -37 34 -53 42 -83 42 -21 0 -48 -8 -59
-18z m112 -42 c18 -12 42 -40 54 -65 20 -42 21 -46 5 -79 -20 -41 -57 -69 -87
-64 -28 4 -88 106 -96 161 -4 31 -1 43 13 54 27 19 73 16 111 -7z"/>
<path d="M1591 7112 c-17 -32 2 -192 25 -209 47 -34 147 0 159 56 13 60 -64
151 -142 167 -25 5 -33 2 -42 -14z m68 -27 c33 -17 77 -65 87 -97 14 -44 -84
-92 -114 -55 -13 16 -35 144 -27 158 8 13 21 11 54 -6z"/>
<path d="M1886 7054 c-9 -8 -16 -32 -16 -52 0 -115 30 -154 100 -133 48 14 73
48 68 93 -2 26 -13 39 -57 70 -61 42 -73 45 -95 22z m73 -40 c51 -42 56 -60
27 -89 -30 -30 -50 -31 -76 -5 -22 22 -26 70 -10 101 14 25 22 24 59 -7z"/>
<path d="M8511 7053 c-115 -57 -122 -233 -9 -233 48 0 74 23 97 85 49 130 9
196 -88 148z m73 -32 c16 -17 16 -21 0 -62 -20 -52 -56 -89 -88 -89 -16 0 -26
7 -30 23 -13 50 -6 79 28 113 38 38 65 43 90 15z"/>
<path d="M1515 6829 c-41 -49 -51 -79 -74 -225 -28 -176 -28 -207 4 -233 47
-36 160 -51 223 -28 45 16 282 183 307 216 14 18 21 46 23 91 4 60 2 68 -22
92 -46 45 -219 98 -375 114 -56 6 -58 6 -86 -27z m250 -40 c61 -17 126 -39
146 -49 56 -29 77 -100 43 -148 -34 -49 -254 -198 -321 -218 -54 -16 -138 -3
-167 26 -19 18 -19 22 -2 152 26 200 33 224 69 254 38 32 66 30 232 -17z"/>
<path d="M1167 6790 c-23 -27 -27 -41 -27 -92 0 -154 79 -235 179 -183 76 39
106 116 72 184 -25 48 -109 109 -163 117 -30 5 -38 2 -61 -26z m106 -31 c86
-56 111 -102 86 -152 -23 -45 -52 -67 -87 -67 -86 0 -139 141 -86 228 19 29
32 28 87 -9z"/>
<path d="M6535 1074 c-89 -48 -144 -69 -492 -190 -133 -46 -284 -102 -335
-125 -94 -41 -252 -131 -264 -150 -14 -24 9 -17 91 26 53 28 204 86 393 150
328 110 606 214 646 240 21 14 56 70 56 89 0 10 -12 5 -95 -40z"/>
</g>
</svg>
