<?xml version="1.0" standalone="no"?>
<!DOCTYPE svg PUBLIC "-//W3C//DTD SVG 20010904//EN"
 "http://www.w3.org/TR/2001/REC-SVG-20010904/DTD/svg10.dtd">
<svg version="1.0" xmlns="http://www.w3.org/2000/svg"
 width="1024.000000pt" height="1024.000000pt" viewBox="0 0 1024.000000 1024.000000"
 preserveAspectRatio="xMidYMid meet">
<metadata>
Created by potrace 1.14, written by Peter Selinger 2001-2017
</metadata>
<g transform="translate(0.000000,1024.000000) scale(0.100000,-0.100000)"
fill="#000000" stroke="none">
<path d="M1665 10168 c12 -132 35 -299 75 -543 65 -402 65 -405 65 -755 0
-329 -6 -416 -53 -775 l-17 -130 -35 3 c-33 3 -115 24 -474 117 -486 125 -870
134 -1159 25 -51 -19 -78 -42 -65 -55 2 -2 45 12 95 30 128 48 249 68 423 68
227 0 448 -33 780 -119 316 -82 365 -94 392 -94 15 0 29 -4 32 -8 3 -5 -3 -80
-14 -166 -44 -356 -53 -508 -53 -921 0 -513 22 -951 74 -1479 11 -114 19 -210
17 -211 -9 -10 -261 53 -421 105 -367 118 -508 144 -787 145 -224 0 -286 -8
-438 -58 -83 -26 -115 -47 -100 -63 3 -2 36 7 74 22 116 44 229 64 384 71 162
6 288 -5 475 -43 111 -22 178 -41 483 -137 62 -19 163 -45 225 -57 l112 -22
28 -237 c37 -313 88 -682 143 -1031 95 -603 161 -1100 150 -1119 -10 -16 -171
-36 -286 -35 -119 1 -201 13 -570 84 -528 101 -713 124 -945 117 -182 -5 -275
-23 -275 -53 0 -11 5 -14 18 -9 114 46 401 44 737 -5 72 -11 254 -42 405 -70
585 -109 653 -116 825 -85 44 8 85 15 91 15 26 0 47 -539 34 -855 -12 -269
-24 -393 -80 -805 -21 -157 -42 -316 -46 -353 -8 -79 6 -70 -179 -122 -170
-48 -282 -66 -420 -66 -163 0 -223 9 -542 80 -377 84 -566 94 -796 40 -35 -8
-47 -16 -47 -30 0 -15 4 -17 23 -10 70 27 234 44 366 38 149 -7 208 -16 478
-76 100 -23 226 -48 280 -57 134 -23 354 -23 461 0 80 17 309 78 345 92 18 6
18 -1 12 -153 -4 -88 -4 -216 0 -286 6 -117 9 -127 27 -127 16 0 18 4 12 23
-10 29 -10 435 0 507 l7 56 132 37 c236 65 282 71 537 61 124 -4 260 -8 303
-8 42 -1 77 -4 77 -8 0 -4 -32 -63 -71 -130 -123 -215 -190 -374 -205 -488 -5
-41 -4 -50 8 -50 11 0 19 19 28 62 26 136 84 262 249 547 55 96 146 276 202
400 213 472 378 781 574 1077 139 209 158 229 231 244 31 7 58 9 61 7 3 -3
-35 -51 -85 -106 -111 -124 -167 -207 -192 -290 -24 -75 -25 -91 -6 -91 8 0
20 26 31 65 23 88 80 172 210 316 100 109 112 119 144 119 20 0 54 3 75 7 l40
6 -110 -109 c-237 -235 -384 -485 -401 -680 -5 -65 -4 -74 11 -74 11 0 16 9
16 33 1 95 56 249 133 372 127 203 369 455 436 455 20 0 11 -13 -53 -81 -142
-151 -234 -310 -351 -604 -86 -218 -155 -350 -290 -555 -251 -382 -286 -459
-290 -645 -3 -91 -8 -122 -30 -180 -46 -120 -44 -295 4 -295 17 0 17 3 2 58
-13 53 -13 67 2 142 34 175 132 337 426 708 l106 134 7 -49 c13 -83 39 -174
83 -288 54 -142 98 -228 189 -373 80 -127 151 -261 161 -304 4 -16 14 -28 22
-28 36 0 -21 133 -135 317 -162 260 -240 437 -278 631 -24 125 -23 129 66 249
66 88 90 113 133 135 54 28 77 34 77 19 0 -4 -23 -65 -50 -135 -66 -166 -84
-236 -77 -309 5 -61 37 -120 77 -145 36 -22 44 -2 11 32 -40 41 -51 75 -51
149 0 62 6 81 102 344 l33 92 63 7 c121 13 251 -13 458 -90 81 -30 154 -49
227 -60 80 -11 134 -26 203 -56 144 -62 165 -64 371 -44 336 33 482 21 663
-53 106 -44 189 -92 310 -182 58 -43 166 -107 275 -163 216 -110 320 -173 474
-288 189 -141 305 -287 326 -409 4 -27 12 -41 22 -41 25 0 8 82 -34 169 -85
173 -385 408 -748 585 -82 41 -186 99 -230 129 -44 31 -118 81 -164 113 -228
154 -469 213 -751 184 -63 -6 -174 -14 -245 -17 -126 -5 -133 -4 -195 22 -138
58 -188 73 -280 85 -67 8 -135 27 -229 62 -202 74 -284 91 -416 85 -64 -2
-129 -11 -155 -20 -24 -9 -47 -14 -49 -11 -3 3 71 80 166 172 178 174 245 258
314 394 60 120 90 219 96 324 l6 91 76 6 c42 4 114 19 161 35 159 54 158 57
28 -75 -133 -137 -216 -256 -259 -374 -30 -83 -42 -162 -24 -167 6 -2 14 11
18 30 52 212 124 329 326 526 l116 114 59 -7 c79 -9 152 -37 219 -85 79 -57
98 -62 172 -48 88 16 130 -2 242 -102 62 -56 121 -98 203 -142 63 -34 149 -85
191 -113 41 -28 113 -71 158 -96 46 -24 112 -70 146 -101 56 -52 70 -59 134
-73 39 -8 82 -22 96 -31 35 -23 72 -76 105 -147 37 -82 102 -169 208 -279 95
-99 116 -112 242 -153 131 -43 168 -66 265 -166 62 -63 106 -100 141 -116 36
-16 54 -31 58 -48 3 -13 45 -109 92 -212 99 -216 149 -357 165 -466 8 -56 15
-77 26 -77 12 0 14 10 8 53 -11 86 -44 203 -86 309 -22 55 -39 101 -37 102 2
1 48 35 102 76 187 138 340 303 444 477 l52 87 0 -450 c0 -404 -7 -578 -26
-636 -5 -15 -2 -19 12 -16 30 5 36 58 41 396 l5 322 45 0 c80 0 251 -30 432
-76 97 -24 217 -50 267 -56 l92 -12 6 -93 c7 -87 5 -162 -10 -396 -5 -72 -3
-87 9 -87 23 0 26 35 33 317 l7 263 51 0 c88 0 226 35 366 93 74 30 161 63
193 72 37 11 57 22 57 32 0 21 -38 11 -231 -62 -196 -75 -263 -94 -369 -102
l-80 -6 0 66 c0 152 -40 550 -120 1187 -43 340 -61 497 -96 824 l-6 59 88 -7
c367 -29 562 -26 728 10 66 15 100 34 85 48 -2 2 -42 -5 -89 -16 -115 -26
-396 -35 -612 -18 -90 7 -172 16 -184 20 -19 8 -21 21 -33 197 -21 322 -30
858 -20 1323 9 452 36 1180 44 1188 7 7 158 40 282 62 233 40 447 42 566 6 44
-13 47 -13 47 4 0 21 -34 34 -130 50 -132 20 -327 4 -602 -50 -84 -16 -157
-30 -161 -30 -5 0 -6 44 -2 98 11 183 35 966 51 1702 9 404 18 737 20 739 4 4
81 -10 235 -43 317 -69 589 -98 589 -62 0 10 -26 15 -112 18 -84 3 -191 20
-410 64 l-298 59 0 75 c0 188 43 787 81 1140 32 296 110 815 135 903 4 12 0
17 -14 17 -16 0 -23 -24 -55 -217 -95 -562 -145 -1050 -177 -1712 -5 -106 -11
-195 -13 -197 -2 -3 -38 1 -78 8 -113 20 -658 17 -889 -5 -199 -19 -515 -55
-540 -62 -13 -4 -15 80 -16 708 -2 817 -7 883 -95 1337 -26 135 -28 140 -45
140 -17 0 -19 17 16 -159 76 -385 82 -445 90 -1031 7 -515 3 -980 -9 -997 -5
-8 -160 -43 -187 -43 -8 0 -5 14 7 37 26 51 24 118 -7 264 -34 161 -74 279
-143 418 -56 115 -130 211 -184 240 -14 7 -27 25 -30 40 -12 59 -295 367 -417
455 -133 96 -316 176 -403 176 -14 0 -38 11 -54 24 -33 27 -86 56 -105 56 -7
0 -22 13 -33 30 -50 75 -191 114 -413 115 l-154 0 -19 36 c-20 41 -39 169 -39
271 0 54 -3 68 -15 68 -32 0 -13 -277 24 -352 l18 -37 -83 -26 c-95 -29 -290
-124 -381 -185 -74 -49 -157 -137 -174 -185 -11 -29 -20 -37 -54 -45 -254 -64
-465 -166 -465 -226 0 -7 -10 -16 -22 -18 -214 -44 -452 -132 -676 -251 -46
-25 -86 -45 -88 -45 -2 0 -4 26 -4 58 0 74 -20 211 -64 442 -76 405 -73 587
14 792 17 39 28 73 26 76 -25 24 -84 -107 -110 -247 -30 -158 -18 -336 43
-657 39 -203 61 -353 61 -426 l0 -57 -67 -68 c-38 -38 -89 -83 -114 -101 -52
-35 -129 -118 -129 -138 0 -7 -25 -30 -56 -50 -60 -40 -87 -75 -106 -139 -7
-22 -33 -67 -59 -99 -26 -32 -60 -87 -76 -122 l-28 -62 -85 -7 c-133 -9 -304
-31 -570 -71 -208 -31 -272 -37 -427 -38 -100 0 -184 2 -188 6 -4 4 5 109 19
235 40 353 49 530 43 807 -6 263 -11 308 -81 733 -19 117 -40 263 -46 325 -16
166 -19 178 -36 178 -14 0 -15 -11 -9 -72z m4332 -343 c100 -16 194 -47 213
-70 11 -13 -1 -15 -91 -15 -186 0 -339 -52 -496 -169 -77 -56 -123 -111 -123
-144 0 -14 -8 -15 -52 -9 -29 4 -131 7 -225 7 -194 0 -192 -1 -144 69 52 74
184 162 376 249 124 56 159 67 260 83 110 17 174 16 282 -1z m295 -140 c27 -9
50 -21 53 -25 3 -5 -21 -11 -52 -15 -264 -28 -491 -128 -575 -252 l-15 -22
-86 16 c-104 20 -108 30 -46 98 74 80 258 181 369 204 30 6 64 13 75 15 45 11
231 -2 277 -19z m227 -91 c176 -43 397 -196 546 -378 41 -50 95 -115 121 -144
26 -29 45 -55 42 -58 -3 -3 -37 4 -74 15 -103 31 -177 40 -414 51 -297 15
-327 20 -442 77 -54 26 -98 51 -98 54 0 3 18 12 40 19 50 17 122 9 225 -24 44
-14 99 -26 123 -26 50 0 142 36 142 56 0 18 -4 17 -70 -6 -74 -26 -92 -25
-198 10 -111 36 -188 39 -263 10 l-52 -21 -76 29 c-42 16 -125 44 -186 61
-166 49 -155 40 -108 92 109 117 336 197 567 198 69 1 134 -5 175 -15z m-935
-233 c529 -107 911 -299 1204 -606 122 -128 142 -170 158 -339 7 -72 11 -133
9 -134 -2 -2 -21 34 -43 80 -64 133 -267 345 -571 597 -206 170 -231 209 -46
71 138 -103 174 -125 186 -113 8 8 1 18 -23 35 -250 185 -282 204 -319 193
-40 -13 -15 -54 77 -126 118 -91 359 -307 464 -415 139 -142 173 -188 217
-284 16 -36 37 -71 46 -79 13 -10 17 -30 17 -87 0 -41 -4 -74 -10 -74 -12 0
-54 62 -130 195 -147 258 -253 373 -573 619 -376 289 -594 401 -802 413 -116
7 -162 -1 -171 -29 -5 -16 0 -27 16 -40 28 -22 90 -25 90 -3 0 8 -9 15 -19 15
-28 0 -52 11 -45 21 8 14 113 11 196 -5 199 -38 372 -136 738 -415 284 -217
394 -338 550 -606 45 -77 97 -158 114 -180 30 -38 32 -44 27 -100 l-6 -60 -48
85 c-27 47 -86 150 -130 230 -45 80 -109 181 -141 225 -66 88 -296 322 -339
344 -60 32 -34 -5 92 -126 197 -188 265 -280 423 -571 50 -92 104 -186 119
-209 23 -33 29 -52 29 -95 -1 -49 -2 -51 -15 -34 -8 11 -35 58 -59 105 -25 47
-71 118 -103 156 -88 104 -166 210 -299 405 -176 258 -311 387 -564 538 -79
47 -114 62 -142 62 -34 0 -38 -3 -38 -25 0 -49 123 -146 203 -160 30 -6 37 -4
37 9 0 9 -6 16 -13 16 -27 0 -133 60 -167 95 -18 19 -28 35 -21 35 30 0 184
-91 291 -171 63 -48 151 -124 195 -170 76 -80 210 -257 201 -266 -12 -12 -72
36 -161 129 -54 57 -123 125 -154 151 -54 46 -196 122 -341 181 -36 14 -130
62 -209 105 -148 82 -244 118 -441 165 -200 49 -340 67 -475 64 -138 -3 -149
2 -92 46 64 49 258 120 426 157 137 30 378 22 585 -20z m-803 -238 c13 -36 28
-44 62 -37 24 5 29 2 42 -31 18 -40 35 -49 119 -59 33 -4 87 -19 120 -34 73
-32 324 -218 362 -267 22 -29 33 -35 64 -35 50 0 70 -8 70 -30 0 -27 31 -48
88 -61 73 -15 82 -33 81 -148 -1 -104 5 -118 76 -177 36 -31 45 -45 45 -70 0
-47 -39 -87 -109 -114 -66 -24 -96 -51 -107 -93 l-7 -28 -29 36 c-17 20 -80
74 -142 120 -61 46 -163 129 -226 186 -63 56 -146 123 -183 150 -172 121 -438
217 -752 269 -114 20 -514 45 -670 44 l-69 -1 51 47 c60 55 188 123 393 208
267 111 417 147 618 151 92 1 93 1 103 -26z m160 1 c117 -21 339 -78 429 -109
40 -14 133 -59 205 -100 72 -41 183 -97 248 -125 224 -94 250 -111 389 -253
144 -146 177 -173 230 -188 28 -7 46 -22 70 -57 50 -74 177 -241 233 -307 28
-33 74 -104 103 -157 28 -53 62 -109 76 -125 20 -24 25 -45 35 -158 14 -149
31 -316 37 -360 4 -29 4 -29 -9 5 -8 19 -31 69 -52 110 -21 41 -66 136 -100
211 -93 205 -147 274 -257 330 -31 15 -82 52 -115 80 -53 48 -141 99 -170 99
-36 0 -12 -67 34 -97 24 -16 103 -163 103 -192 0 -21 -37 6 -60 44 -28 45 -67
65 -128 65 -43 0 -54 5 -102 46 -118 101 -240 131 -240 59 0 -28 32 -55 95
-79 39 -15 54 -30 97 -94 62 -92 139 -171 190 -195 20 -10 69 -21 108 -26 84
-11 102 -21 172 -102 29 -34 79 -91 111 -128 31 -36 76 -101 98 -146 23 -44
62 -111 87 -150 90 -140 130 -238 177 -440 32 -135 35 -224 9 -263 l-19 -27
-3 35 c-4 63 -22 119 -68 221 -24 55 -65 171 -90 257 -52 177 -86 256 -148
340 -48 65 -68 82 -236 207 -116 86 -146 98 -175 69 -22 -22 -41 -12 -66 38
-37 73 -56 94 -119 127 -41 22 -73 49 -98 82 -20 28 -47 52 -58 55 -25 6 -70
-15 -98 -45 -16 -18 -27 -20 -95 -16 -43 2 -84 5 -92 7 -9 2 -14 -6 -14 -24 1
-16 -1 -28 -2 -28 -2 0 -18 16 -35 35 -51 58 -170 102 -203 75 -8 -7 -15 -27
-15 -46 0 -40 34 -82 113 -139 55 -39 63 -50 130 -156 34 -54 41 -60 154 -114
105 -52 127 -67 203 -144 100 -100 168 -191 145 -191 -23 0 -59 39 -95 104
-41 72 -63 89 -163 121 -45 15 -92 34 -105 42 -34 21 -52 10 -52 -31 0 -43 28
-77 112 -139 61 -45 95 -83 84 -94 -3 -3 -21 5 -40 17 -40 24 -71 20 -81 -11
-11 -34 6 -63 94 -154 100 -103 142 -180 87 -159 -9 4 -34 32 -56 64 -47 69
-89 106 -131 115 -62 14 -62 -39 2 -121 21 -28 39 -54 39 -57 0 -19 -33 -2
-79 39 -34 30 -62 47 -80 48 -22 1 -51 23 -116 85 -67 64 -89 80 -98 71 -9 -9
22 -45 138 -157 181 -174 240 -223 410 -339 145 -100 276 -219 331 -302 47
-70 105 -207 107 -250 1 -23 -7 -40 -25 -58 l-25 -26 -5 65 c-4 51 -14 81 -46
139 -121 218 -250 337 -369 338 -59 0 -73 -8 -73 -40 0 -40 21 -57 80 -65 27
-4 52 -11 56 -16 9 -14 34 -10 34 6 0 19 -33 36 -89 44 -32 4 -47 11 -49 24
-5 26 52 22 115 -8 97 -45 191 -153 274 -315 27 -54 33 -76 34 -132 0 -87 -17
-110 -59 -77 -15 11 -42 51 -60 88 -36 71 -157 217 -228 273 -24 19 -77 56
-118 83 -119 75 -144 99 -274 254 -79 94 -208 226 -362 373 -315 298 -330 311
-704 580 -118 85 -268 193 -334 241 -301 221 -509 309 -731 310 -195 0 -346
-45 -432 -128 l-54 -52 -19 25 c-28 35 -26 95 5 148 28 47 84 79 190 109 81
22 291 31 397 16 167 -24 409 -97 692 -210 83 -34 165 -40 174 -13 2 7 -21 37
-52 67 -72 70 -72 93 -2 111 19 4 31 16 38 35 5 16 14 29 19 29 5 0 38 -12 72
-26 34 -15 85 -33 112 -41 93 -27 229 -102 335 -183 58 -45 125 -94 150 -111
52 -34 147 -72 161 -63 6 3 8 27 4 60 -6 45 -4 59 16 91 19 30 23 51 24 115 0
43 2 78 5 78 3 0 28 -22 54 -49 52 -53 119 -88 176 -92 97 -6 120 9 145 96 19
63 38 85 92 104 54 19 108 57 122 87 6 14 11 42 11 62 0 32 -7 44 -60 93 -47
43 -60 62 -60 85 -1 26 17 12 198 -166 139 -136 213 -217 245 -267 44 -69 60
-83 71 -65 10 16 -98 166 -167 230 -138 130 -310 307 -329 337 -10 17 -18 49
-18 73 0 53 -31 88 -86 97 -47 9 -84 30 -84 50 0 27 -31 45 -79 45 -40 0 -49
4 -58 23 -6 12 -57 59 -114 103 -200 156 -275 197 -381 209 -88 10 -95 13
-103 42 -10 42 -24 53 -66 53 -22 0 -39 5 -39 10 0 14 34 13 131 -6z m1918
-80 c193 -9 333 -45 429 -110 63 -44 123 -130 191 -276 61 -131 85 -202 116
-357 28 -138 31 -208 12 -235 -12 -16 -17 -12 -53 49 -51 88 -121 163 -160
171 -19 3 -39 18 -54 41 -28 40 -74 77 -110 88 -14 4 -46 27 -72 51 -26 24
-59 49 -72 56 -14 6 -33 22 -41 34 -8 13 -37 36 -64 52 -27 15 -65 50 -86 77
-74 99 -229 243 -360 334 l-60 42 135 -6 c74 -3 186 -8 249 -11z m-2859 -343
c348 -16 619 -72 870 -180 155 -67 261 -141 466 -325 54 -49 138 -115 186
-147 95 -64 138 -112 138 -152 0 -20 -6 -28 -26 -33 -66 -17 -182 26 -218 81
-21 33 -74 65 -105 65 -22 0 -23 -2 -15 -37 14 -60 7 -152 -13 -182 -10 -14
-20 -49 -23 -78 l-5 -52 -45 20 c-25 11 -103 64 -175 119 -136 103 -288 190
-365 210 -25 6 -77 24 -117 41 -39 16 -88 29 -107 29 -33 0 -36 -3 -36 -28 0
-23 -7 -31 -42 -47 -37 -17 -43 -25 -46 -54 -3 -29 3 -39 49 -82 50 -46 52
-49 27 -49 -15 0 -84 23 -154 51 -173 69 -399 142 -516 168 -221 48 -432 45
-586 -8 l-84 -29 6 26 c26 109 144 266 246 325 94 54 247 71 427 46 112 -15
421 -95 533 -136 129 -48 356 -163 520 -263 74 -46 178 -107 230 -137 52 -30
107 -66 121 -80 19 -17 29 -21 34 -13 11 18 -49 74 -119 111 -33 18 -133 76
-221 129 -355 215 -530 291 -850 370 -184 45 -284 60 -409 60 -124 0 -206 -17
-283 -61 -29 -16 -53 -26 -53 -21 0 4 11 24 24 43 31 45 105 93 176 113 228
65 685 20 1062 -105 144 -48 213 -82 293 -144 68 -54 151 -99 165 -90 19 12 9
24 -33 43 -24 11 -81 47 -127 82 -118 88 -218 129 -462 191 -356 89 -720 111
-910 53 -59 -18 31 82 113 126 86 45 105 50 184 45 39 -3 162 -9 275 -14z
m3020 -168 c148 -168 203 -408 235 -1018 16 -300 29 -463 70 -890 42 -434 55
-610 65 -909 14 -388 32 -537 125 -988 19 -92 53 -267 75 -390 22 -123 67
-324 100 -448 68 -256 76 -310 85 -540 3 -91 12 -196 20 -235 8 -38 11 -72 7
-76 -4 -4 -37 -9 -73 -11 -60 -3 -72 -8 -143 -57 -87 -59 -150 -90 -182 -91
-21 0 -21 5 -27 258 -8 303 -22 457 -82 882 -70 493 -76 555 -85 895 -6 223
-15 368 -29 480 -12 91 -26 275 -31 425 -6 165 -16 291 -26 335 -10 48 -18
167 -24 375 -5 201 -14 336 -24 395 -9 50 -25 140 -36 200 -23 129 -70 624
-70 740 0 45 7 135 16 200 13 97 14 140 5 225 -6 58 -13 134 -17 170 -3 36 -8
77 -11 93 -8 40 10 34 57 -20z m199 -202 c41 -78 96 -249 124 -381 9 -41 37
-169 62 -284 55 -254 92 -468 140 -811 61 -439 117 -709 220 -1054 93 -313
105 -376 130 -731 26 -368 45 -438 249 -940 41 -102 93 -248 116 -325 40 -138
40 -140 22 -165 -13 -18 -33 -27 -68 -33 -97 -16 -127 -29 -174 -73 l-47 -44
-12 42 c-66 247 -93 423 -116 733 -19 273 -37 404 -81 615 -105 499 -164 815
-204 1095 -21 148 -60 355 -119 633 -68 317 -74 368 -75 642 -1 244 -2 257
-24 297 -12 24 -36 50 -52 58 -26 14 -30 21 -30 59 0 83 -31 341 -56 466 -28
142 -47 205 -80 272 -31 62 -30 68 6 33 16 -15 47 -62 69 -104z m74 0 c70 -77
168 -286 250 -531 74 -221 93 -311 172 -805 67 -414 118 -663 306 -1490 193
-847 230 -992 354 -1400 19 -64 35 -126 35 -138 0 -46 -113 -149 -125 -115
-48 136 -86 235 -150 388 -150 360 -185 499 -210 841 -26 354 -43 457 -114
679 -64 203 -145 528 -181 730 -11 63 -38 248 -61 410 -54 401 -79 545 -149
857 -82 366 -95 411 -177 601 -11 25 16 11 50 -27z m149 -118 c56 -60 96 -125
173 -287 94 -195 193 -443 290 -726 42 -124 105 -304 140 -400 80 -220 111
-331 180 -650 72 -334 101 -438 186 -682 179 -512 210 -607 269 -815 l63 -223
-32 -64 c-19 -39 -49 -80 -74 -101 -78 -68 -62 -89 -195 248 -159 401 -180
472 -287 957 -63 284 -157 663 -239 961 -32 115 -59 238 -65 295 -6 55 -18
160 -26 234 -8 74 -19 151 -25 171 -13 48 -46 89 -71 89 -10 0 -19 4 -19 8 0
25 -54 295 -76 379 -43 167 -147 450 -213 581 -17 34 -28 62 -23 62 4 0 24
-17 44 -37z m1857 -122 c41 -6 76 -13 78 -15 4 -3 -2 -300 -27 -1386 -11 -459
-27 -921 -38 -1080 l-7 -94 -220 -53 c-274 -66 -469 -103 -545 -103 l-58 0
-27 78 c-90 263 -144 461 -205 747 -59 276 -102 432 -169 611 -32 88 -102 286
-156 442 -53 156 -109 314 -124 350 l-28 67 23 50 c16 36 27 87 36 179 11 116
14 129 34 136 27 11 431 56 624 70 80 5 165 12 190 14 84 7 545 -3 619 -13z
m-6273 -87 c-4 -15 -20 -43 -36 -63 -60 -76 -60 -156 2 -227 l31 -35 -14 -62
c-8 -38 -42 -118 -88 -207 -89 -173 -92 -192 -41 -349 25 -76 31 -108 23 -120
-5 -9 -35 -23 -66 -31 -60 -15 -78 -40 -29 -40 19 1 107 25 107 30 0 0 0 -26
-1 -58 0 -31 -11 -88 -23 -124 -46 -137 -62 -245 -68 -438 -5 -158 -2 -208 17
-339 42 -291 86 -445 196 -686 3 -7 -34 -11 -103 -12 -85 -1 -156 -10 -338
-47 -126 -26 -273 -51 -325 -58 -94 -11 -439 -6 -471 6 -16 7 -22 57 -54 421
-49 565 -69 1308 -46 1705 10 181 42 523 57 620 l6 35 201 1 c176 1 230 5 417
34 349 53 470 68 564 69 l88 1 -6 -26z m4779 -71 c-8 -90 -31 -213 -42 -224
-6 -6 -62 105 -129 257 -5 10 102 40 155 43 23 1 23 1 16 -76z m-1348 -46 c33
-30 90 -70 126 -90 75 -42 112 -81 160 -169 45 -81 213 -446 222 -481 4 -15
16 -34 28 -42 15 -11 24 -38 38 -118 28 -162 48 -379 34 -365 -3 3 -17 48 -31
99 -33 119 -68 197 -139 305 -30 47 -73 120 -95 163 -21 43 -61 102 -87 132
-27 30 -70 81 -95 114 -86 112 -124 137 -232 150 -33 4 -70 11 -83 16 -36 13
-111 88 -161 159 -66 94 -101 129 -144 140 -40 11 -72 36 -63 51 9 14 85 -21
153 -70 93 -67 122 -81 173 -81 44 0 49 -3 94 -55 49 -58 85 -71 103 -38 18
32 -42 170 -101 232 l-42 43 40 -20 c22 -12 68 -45 102 -75z m-2734 -37 c101
-30 275 -118 389 -198 93 -64 408 -294 697 -508 75 -55 165 -127 201 -159 169
-151 512 -491 591 -585 48 -58 120 -137 161 -175 115 -110 138 -180 73 -229
-40 -31 -45 -57 -13 -78 22 -14 22 -15 4 -77 -16 -59 -15 -92 6 -118 12 -14
54 4 79 33 8 9 44 41 80 70 42 34 73 68 86 95 l20 42 46 -57 c54 -66 53 -71
-17 -133 -64 -56 -164 -104 -232 -112 -56 -6 -82 -25 -50 -37 53 -20 243 62
319 138 27 27 50 48 52 46 1 -2 10 -17 19 -35 27 -54 -1 -96 -99 -152 -27 -16
-91 -58 -142 -95 -91 -66 -112 -77 -165 -90 -26 -6 -28 -4 -28 28 0 24 7 38
23 49 20 14 21 16 4 22 -29 12 -57 -22 -57 -68 l0 -39 -37 7 c-41 7 -51 13
-99 58 -22 20 -34 25 -39 17 -19 -31 86 -110 146 -110 19 0 30 -6 34 -21 7
-20 -7 -55 -86 -209 -111 -220 7 -550 198 -550 l37 0 -54 -33 c-30 -17 -59
-42 -65 -55 -6 -14 -21 -24 -40 -26 -16 -3 -84 -12 -150 -21 -237 -32 -376
-70 -576 -160 -174 -77 -259 -134 -386 -259 l-113 -109 0 55 c0 115 -60 247
-158 347 -34 35 -61 65 -60 66 2 1 100 34 218 75 444 150 754 294 878 405 53
48 132 167 132 198 0 35 -27 15 -53 -39 -73 -147 -256 -266 -647 -419 -193
-75 -730 -250 -830 -270 -108 -22 -259 -16 -343 14 -148 52 -295 156 -360 254
-38 56 -51 88 -152 372 -32 88 -86 223 -120 300 -78 172 -96 227 -129 383 -79
373 -85 640 -20 912 32 136 33 138 73 109 28 -20 43 -23 109 -22 42 1 106 9
142 17 97 23 110 22 110 -13 0 -69 -137 -104 -263 -67 -67 20 -77 20 -77 2 0
-37 222 -61 294 -31 44 19 45 17 16 -105 -27 -112 -69 -225 -146 -390 -81
-176 -91 -209 -75 -259 14 -48 66 -96 122 -112 22 -7 54 -25 71 -41 34 -32 48
-35 48 -12 0 18 -56 74 -74 74 -6 0 -35 11 -63 25 -39 18 -57 33 -70 59 -21
45 -15 68 76 264 80 174 123 296 152 436 17 84 20 126 17 256 -4 136 -8 165
-32 234 -62 182 -169 269 -333 270 -46 1 -83 5 -83 10 0 4 25 54 55 110 54
101 85 193 85 252 0 50 38 95 110 131 159 80 382 97 563 43z m1827 -176 c25
-13 60 -41 78 -63 26 -32 40 -41 64 -41 23 0 29 4 24 15 -3 8 -9 22 -12 30 -7
16 17 20 107 16 39 -2 51 2 88 33 24 20 47 36 52 36 5 0 25 -22 46 -50 24 -32
56 -60 93 -79 63 -34 75 -46 113 -113 15 -25 39 -56 53 -67 l27 -21 32 20 33
20 45 -32 c24 -18 82 -60 128 -93 180 -129 238 -223 320 -518 22 -76 52 -163
67 -195 61 -123 77 -174 77 -247 -1 -81 -26 -138 -101 -223 -39 -45 -180 -150
-188 -141 -2 2 -11 27 -20 55 -21 65 -125 247 -202 355 -32 46 -116 139 -185
209 -153 151 -179 195 -149 251 29 53 101 -9 220 -187 60 -89 96 -155 107
-194 21 -71 50 -85 39 -19 -9 55 -51 134 -134 254 -87 125 -159 195 -202 195
-46 0 -70 -30 -70 -89 0 -61 19 -88 191 -261 159 -161 300 -371 350 -522 21
-66 21 -67 2 -100 -16 -28 -112 -98 -134 -98 -3 0 -9 17 -13 38 -9 57 -79 204
-130 276 -59 83 -150 165 -288 261 -150 104 -218 156 -306 233 -84 75 -90 98
-7 27 56 -49 99 -61 116 -34 15 24 11 35 -36 95 -47 61 -53 74 -32 74 16 0 73
-60 117 -122 33 -47 78 -75 105 -64 45 17 -10 146 -91 213 -46 37 -104 107
-104 125 0 13 33 9 54 -7 25 -19 75 -19 82 -1 9 23 -23 73 -73 113 -67 54
-137 122 -131 128 5 6 174 -46 202 -62 9 -5 39 -44 68 -88 57 -86 102 -121
143 -111 14 4 25 13 25 22 0 25 -135 198 -202 259 -40 36 -103 77 -180 115
-64 33 -125 70 -133 83 -9 12 -35 51 -58 87 -29 45 -62 78 -107 110 -69 49
-97 86 -87 114 8 20 40 14 107 -20z m1792 -163 c9 -26 12 -92 11 -231 -3 -249
5 -328 73 -656 74 -360 87 -432 139 -764 25 -157 87 -496 139 -755 103 -512
108 -549 131 -860 32 -424 80 -645 271 -1230 88 -267 139 -373 204 -423 27
-20 49 -40 49 -43 1 -8 -72 -29 -103 -29 -35 0 -95 25 -123 52 -17 16 -23 33
-23 62 0 63 -36 288 -64 410 -30 126 -63 242 -151 526 -161 521 -183 639 -220
1140 -18 234 -42 424 -81 624 -61 319 -114 524 -158 620 -20 41 -27 80 -36
196 -6 80 -26 307 -45 506 -43 444 -65 732 -65 843 0 83 0 84 20 66 10 -9 25
-34 32 -54z m-4307 -242 c81 -15 124 -39 180 -101 54 -61 46 -73 -20 -28 -106
73 -207 100 -288 77 -27 -7 -28 -6 -25 20 3 27 14 33 84 42 6 0 37 -4 69 -10z
m2 -84 c28 -8 79 -34 113 -57 34 -22 78 -47 98 -53 27 -10 39 -22 48 -46 23
-63 14 -65 -46 -8 -122 114 -227 146 -305 94 -20 -15 -38 -25 -40 -23 -1 2 -7
17 -13 35 -14 42 4 57 89 72 3 1 28 -6 56 -14z m4725 -45 c16 -43 27 -114 43
-287 19 -203 25 -235 80 -433 65 -232 198 -766 250 -1010 91 -422 125 -537
257 -865 45 -110 100 -249 124 -310 l42 -110 -26 -11 c-15 -6 -44 -29 -64 -52
-30 -33 -38 -38 -42 -24 -90 301 -181 642 -240 892 -238 1022 -358 1579 -432
2019 -40 239 -41 249 -18 230 9 -7 20 -25 26 -39z m-4647 -56 c45 -21 147
-113 187 -168 16 -22 28 -52 28 -69 l0 -30 -28 39 c-62 86 -171 154 -245 154
-21 0 -54 -7 -74 -15 -41 -17 -41 -18 -52 23 -8 26 -5 34 17 55 15 13 34 27
42 30 24 10 84 1 125 -19z m-67 -170 c-26 -59 -21 -124 13 -160 l22 -24 -37 0
c-69 0 -123 85 -99 157 11 33 66 73 99 73 l23 0 -21 -46z m96 20 c22 -8 20
-24 -2 -24 -26 0 -42 -20 -42 -51 0 -32 16 -47 58 -55 38 -8 82 17 82 46 0 11
3 20 8 20 11 0 64 -89 58 -98 -8 -14 -151 -35 -181 -28 -58 15 -81 110 -41
171 17 25 32 30 60 19z m66 -69 c0 -20 -37 -37 -61 -30 -29 10 -19 39 16 46
35 6 45 3 45 -16z m3870 -613 c0 -15 9 -90 20 -167 13 -91 20 -195 20 -295 0
-141 11 -318 26 -411 4 -26 1 -38 -8 -42 -26 -9 -184 12 -324 44 -95 22 -175
33 -254 36 -114 5 -151 -1 -241 -41 -13 -6 -22 6 -43 58 -14 36 -31 97 -37
134 -11 66 -10 71 11 100 l23 31 25 -19 c37 -30 58 -25 120 29 31 26 94 67
138 90 52 27 93 56 113 81 17 21 71 66 119 99 90 62 158 134 194 206 24 47 77
106 90 99 4 -3 8 -17 8 -32z m-1154 -194 c12 -23 15 -46 11 -85 -5 -47 -3 -54
11 -51 14 3 17 15 17 68 -1 36 -5 74 -10 85 -14 31 77 -47 94 -80 18 -37 -2
-80 -60 -126 -23 -19 -64 -54 -92 -79 l-50 -45 7 50 c3 28 9 68 12 89 6 33 3
42 -16 56 l-22 17 36 21 c33 20 36 25 36 67 0 25 2 45 5 45 2 0 12 -14 21 -32z
m1568 -413 c89 -362 118 -545 151 -971 39 -491 58 -588 225 -1134 54 -179 102
-337 105 -351 5 -22 0 -30 -34 -54 -23 -15 -41 -31 -41 -34 0 -4 -13 -17 -29
-29 l-29 -21 -12 52 c-6 28 -15 140 -20 247 -11 235 -24 308 -95 572 -30 112
-66 268 -80 348 -14 80 -53 280 -85 445 -100 505 -115 623 -124 990 l-6 200
20 -60 c11 -33 35 -123 54 -200z m-1246 -230 c11 -27 74 -161 140 -297 92
-188 131 -258 166 -295 l45 -49 -117 -12 c-122 -12 -305 -53 -431 -96 -41 -15
-76 -26 -79 -26 -2 0 10 16 27 35 43 49 60 86 76 164 28 131 -21 276 -134 400
-17 19 -31 38 -31 42 0 4 -22 24 -50 44 -67 49 -66 69 4 89 29 9 82 37 117 63
35 26 98 69 139 95 l74 49 17 -78 c9 -43 26 -100 37 -128z m3057 -22 c-10
-162 -25 -574 -36 -1044 -12 -478 -3 -989 23 -1386 6 -96 9 -175 7 -177 -2 -2
-83 5 -179 15 -96 10 -178 18 -181 19 -4 0 2 27 12 61 10 33 19 78 19 98 0 76
22 157 63 231 63 115 59 158 -63 540 -81 255 -98 315 -184 636 -81 304 -169
593 -241 798 -31 89 -42 132 -34 136 6 4 45 10 87 13 89 6 253 39 502 101 96
24 183 44 193 45 16 1 17 -7 12 -86z m-2505 -43 c107 -22 231 -43 276 -46 l81
-7 12 -99 c6 -54 11 -188 11 -298 l0 -199 -52 52 c-79 78 -313 254 -393 295
-66 34 -77 36 -183 40 l-113 4 -59 121 c-33 67 -60 122 -60 124 0 7 63 34 97
42 82 19 184 12 383 -29z m-948 -59 c18 -16 30 -32 26 -36 -10 -10 -118 -23
-118 -14 0 14 42 79 51 79 5 0 23 -13 41 -29z m80 -88 c25 -22 23 -33 -7 -33
-14 0 -25 4 -25 9 0 5 -3 16 -6 25 -8 21 14 21 38 -1z m-2892 -8 c35 -18 40
-28 125 -272 79 -223 112 -290 178 -360 66 -70 126 -114 224 -163 99 -49 184
-70 294 -70 l86 0 31 -63 c45 -92 64 -177 63 -283 0 -96 -4 -125 -52 -367 -43
-219 -54 -361 -39 -509 6 -68 12 -134 13 -148 2 -21 -6 -28 -57 -48 -153 -61
-304 -65 -611 -16 -273 43 -464 36 -700 -26 -38 -10 -156 -43 -261 -74 -106
-31 -198 -56 -206 -56 -12 0 -17 20 -22 83 -9 108 -47 378 -101 717 -80 501
-157 1054 -210 1515 l-6 50 268 0 268 0 225 47 c288 59 260 55 368 57 66 1
102 -3 122 -14z m2828 -18 c7 -14 15 -61 18 -104 6 -69 4 -81 -14 -103 -20
-24 -22 -24 -49 -10 -49 27 -62 110 -32 207 15 49 55 54 77 10z m-110 -8 c-10
-29 -33 -48 -44 -36 -9 9 29 67 43 67 9 0 9 -7 1 -31z m233 -50 c11 -22 0 -38
-28 -39 -6 0 -18 -3 -27 -6 -12 -5 -16 1 -16 23 0 16 3 33 7 36 14 15 53 6 64
-14z m-251 -47 c0 -22 -7 -30 -30 -39 -28 -11 -30 -10 -30 12 0 26 24 55 46
55 9 0 14 -10 14 -28z m981 -54 c70 -35 233 -156 361 -268 65 -57 98 -118 98
-179 0 -36 -6 -49 -34 -77 -31 -31 -39 -34 -98 -34 -34 0 -124 5 -198 12 -118
10 -147 9 -227 -5 -117 -22 -264 -70 -473 -157 -215 -89 -258 -102 -476 -150
-397 -85 -535 -151 -1003 -474 -274 -189 -395 -287 -476 -385 -32 -40 -59 -70
-61 -68 -13 13 25 128 80 240 35 73 76 163 91 200 34 84 95 153 189 213 39 25
123 97 186 158 156 153 224 196 449 285 203 82 352 113 740 156 141 16 282 38
354 55 65 16 176 34 246 40 234 20 289 41 279 110 -4 28 -2 30 31 36 45 7 108
33 122 51 21 25 -1 27 -46 5 -89 -43 -194 -24 -265 48 -41 41 -130 191 -130
220 0 9 26 11 93 8 84 -3 101 -7 168 -40z m-684 -8 c7 -19 12 -66 12 -105 l0
-70 -19 36 c-21 40 -74 89 -96 89 -9 0 -14 11 -14 35 0 41 20 56 70 52 30 -2
37 -7 47 -37z m-280 -26 c10 -22 8 -30 -12 -60 -13 -19 -27 -48 -30 -65 -10
-44 -25 -23 -32 45 -5 50 -3 60 17 81 30 32 42 31 57 -1z m191 -76 c4 -18 -35
-68 -53 -68 -17 0 -35 31 -35 58 0 38 80 48 88 10z m-132 14 c6 -4 13 -24 16
-44 5 -45 -19 -59 -57 -34 -30 20 -31 26 -4 60 22 28 27 30 45 18z m191 -93
c17 -55 10 -89 -25 -122 l-27 -26 3 43 c2 24 -2 54 -8 66 -10 18 -9 28 6 56
10 19 23 33 29 31 5 -2 15 -23 22 -48z m-238 -19 c16 -8 17 -14 8 -49 -9 -31
-14 -38 -24 -29 -12 10 -19 88 -7 88 3 0 13 -4 23 -10z m147 -25 c20 -30 14
-99 -10 -123 -13 -13 -21 -14 -56 -3 -40 12 -40 12 -40 63 0 60 19 88 61 88
19 0 34 -8 45 -25z m747 -61 c49 -16 71 -49 46 -65 -34 -22 -124 -40 -251 -48
-83 -6 -175 -20 -238 -36 -56 -14 -149 -32 -208 -40 -59 -8 -125 -17 -147 -20
l-39 -6 23 25 c49 52 318 145 521 180 171 29 231 31 293 10z m551 -357 c12
-89 14 -133 6 -146 -15 -30 -56 -58 -114 -80 -75 -28 -332 -69 -536 -86 -96
-8 -260 -22 -363 -30 -195 -16 -352 -41 -470 -76 -216 -64 -521 -236 -794
-450 -64 -49 -143 -104 -177 -122 -54 -28 -70 -32 -148 -32 -48 0 -90 -4 -94
-8 -12 -12 46 -27 106 -27 105 0 163 31 419 227 206 157 483 311 669 372 162
53 279 70 692 101 268 20 541 55 669 87 34 9 85 31 112 50 27 18 49 31 49 29
0 -2 11 -82 25 -178 89 -610 108 -1122 55 -1528 -26 -193 -23 -297 7 -338 51
-69 191 -104 336 -85 45 6 132 29 192 51 61 22 130 46 154 53 24 8 52 25 62
39 21 28 39 154 39 267 0 78 5 84 46 57 14 -10 53 -19 92 -21 57 -4 74 -1 115
20 42 22 53 23 94 15 31 -7 63 -7 101 1 31 6 59 8 63 4 4 -5 22 -93 40 -198
42 -244 46 -453 12 -605 -90 -403 -382 -865 -622 -984 -40 -20 -80 -36 -88
-36 -31 0 -96 195 -158 474 -26 115 -58 241 -72 280 -74 205 -183 363 -423
610 -451 464 -970 736 -1545 811 -171 22 -539 34 -733 24 -484 -26 -743 -170
-1061 -589 -48 -63 -116 -158 -151 -210 -34 -52 -67 -99 -73 -105 -6 -7 -8 34
-4 120 9 206 46 326 162 534 25 44 75 147 111 228 125 280 159 343 229 421 81
88 162 154 366 300 454 324 688 440 1031 512 211 45 299 72 550 171 241 94
395 142 495 153 36 4 126 0 218 -9 176 -17 220 -12 264 34 14 14 27 26 27 26
1 0 9 -57 18 -128z m-2839 -49 c92 -99 144 -235 129 -341 -5 -44 -11 -52 -53
-80 -95 -65 -134 -115 -185 -238 -26 -63 -68 -150 -92 -195 -52 -96 -74 -175
-74 -261 0 -55 -6 -75 -46 -156 -44 -87 -47 -91 -57 -67 -7 15 -11 111 -11
245 -1 215 0 224 36 400 47 228 61 343 53 425 -8 75 -46 200 -75 248 -15 24
-17 34 -8 36 7 3 46 12 85 21 40 10 99 25 130 35 54 17 60 17 87 1 15 -9 52
-42 81 -73z m4401 -14 c7 -51 -9 -80 -69 -120 -23 -15 -56 -41 -73 -57 l-32
-29 -11 33 c-16 46 -16 44 42 88 28 22 68 64 87 94 38 58 46 57 56 -9z m78
-273 c26 -90 67 -229 92 -310 107 -344 115 -404 62 -487 -40 -63 -68 -152 -68
-218 0 -115 -45 -220 -134 -315 l-51 -53 -60 7 c-78 8 -117 28 -161 79 -88
102 -120 212 -134 457 -9 169 -24 280 -55 410 -20 86 -20 86 22 100 21 7 50
25 64 40 l26 28 26 -93 c37 -133 63 -198 97 -245 70 -96 123 -14 123 189 0
115 -9 172 -55 331 -29 102 -29 108 -13 133 9 14 40 41 68 60 29 18 61 43 71
55 25 28 23 32 80 -168z m-281 52 c2 -5 7 -20 11 -35 5 -24 3 -28 -15 -28 -12
0 -41 -20 -67 -45 -24 -25 -46 -45 -48 -45 -11 0 -2 45 16 79 28 57 89 99 103
74z m61 -199 c36 -142 47 -240 35 -343 -11 -99 -23 -128 -45 -110 -42 34 -77
122 -124 306 -24 93 -27 118 -18 149 13 47 68 104 100 104 22 0 26 -8 52 -106z
m-200 -6 c17 -63 -11 -120 -72 -145 -40 -17 -48 -11 -57 39 -7 35 -5 38 27 51
19 8 45 28 59 45 29 37 35 39 43 10z m-119 -325 c-11 -45 -56 -81 -111 -88
-66 -9 -101 -23 -141 -58 -19 -16 -36 -27 -39 -25 -3 3 -7 21 -10 39 -11 66
76 133 193 150 37 5 74 16 83 24 12 13 15 13 23 -1 5 -8 6 -27 2 -41z m39
-170 c9 -61 16 -142 16 -180 1 -194 34 -339 101 -441 51 -78 103 -117 176
-132 63 -13 60 -18 -27 -51 -76 -28 -175 -28 -235 1 -74 36 -118 96 -174 238
-60 156 -163 469 -163 498 -1 48 82 114 143 114 51 0 101 21 117 50 9 16 20
26 23 22 4 -4 14 -57 23 -119z m-354 -292 c5 -17 5 -31 1 -31 -5 0 -39 -22
-76 -50 -37 -27 -93 -59 -124 -71 -31 -11 -77 -35 -102 -52 -26 -18 -71 -49
-101 -70 -64 -44 -148 -65 -191 -48 -24 9 -28 16 -25 43 3 28 8 33 41 40 47
10 108 40 168 84 63 46 109 64 164 64 63 0 109 22 172 81 30 28 56 49 59 46 2
-2 9 -18 14 -36z m38 -168 c34 -173 44 -269 44 -418 -1 -133 -21 -288 -40
-307 -5 -5 -40 -17 -80 -28 -39 -11 -106 -34 -148 -50 -142 -57 -323 -60 -416
-8 -73 41 -82 115 -43 378 8 52 17 130 21 172 l7 78 38 -6 c66 -11 133 13 228
81 77 56 148 95 171 95 10 0 25 -239 25 -405 0 -120 -3 -146 -20 -179 -30 -60
-65 -80 -136 -81 -47 0 -59 -3 -56 -15 5 -25 116 -19 162 10 71 44 100 168 84
367 -19 252 -22 323 -12 323 5 0 38 22 74 50 35 27 67 50 70 50 3 0 16 -48 27
-107z m-4062 -45 c-32 -75 -44 -99 -113 -228 -75 -140 -103 -210 -129 -319
-15 -68 -34 -256 -34 -353 0 -49 -6 -67 -39 -121 -109 -178 -267 -497 -468
-942 -20 -44 -52 -108 -70 -142 -35 -63 -35 -63 -81 -64 -83 -2 -193 2 -350
12 -187 12 -281 2 -487 -52 -82 -21 -160 -41 -172 -45 -22 -6 -23 -4 -18 37
13 106 67 530 75 592 51 353 68 746 49 1107 -7 140 -13 275 -13 299 l-1 44
115 33 c450 131 564 154 758 154 89 0 175 -8 287 -26 304 -49 508 -43 640 20
66 32 68 32 51 -6z m1764 -23 c173 -23 420 -78 420 -93 0 -4 -34 -26 -75 -50
-85 -49 -169 -121 -190 -163 -19 -35 -19 -99 -2 -124 20 -27 39 -11 26 23 -18
46 -2 90 50 141 45 45 237 168 247 159 2 -3 -12 -31 -31 -64 -44 -72 -55 -110
-62 -199 -6 -80 19 -162 64 -216 40 -47 49 -20 13 37 -42 69 -58 148 -42 221
12 60 48 140 81 183 l20 25 57 -20 c32 -11 112 -46 179 -78 111 -55 118 -60
95 -69 -94 -39 -152 -73 -189 -113 -38 -42 -53 -75 -32 -75 5 0 20 13 33 29
14 16 45 44 70 63 54 41 178 85 203 71 14 -8 8 -13 -28 -27 -65 -25 -167 -135
-167 -181 0 -22 28 -18 35 5 13 40 84 118 127 139 42 20 108 29 108 15 0 -4
-25 -43 -55 -88 -54 -80 -76 -138 -57 -150 5 -3 26 27 46 67 19 39 49 88 65
107 l30 35 10 -28 c18 -47 13 -72 -31 -154 -83 -156 -100 -195 -105 -247 -6
-54 9 -102 28 -91 5 4 7 21 3 39 -9 49 12 110 79 229 48 87 61 120 66 168 l6
59 88 -66 c72 -54 87 -70 87 -93 0 -15 12 -72 26 -126 29 -109 34 -197 15
-234 -9 -15 -10 -26 -3 -33 17 -17 30 0 43 57 12 56 7 97 -35 268 -8 31 -11
57 -6 57 4 0 39 -29 77 -65 l70 -64 6 -83 c3 -46 21 -144 40 -218 19 -74 38
-156 42 -182 3 -26 10 -50 16 -53 31 -19 16 93 -40 300 -17 61 -30 130 -31
155 l0 45 78 -78 78 -78 1 -62 c0 -34 14 -119 32 -190 45 -186 40 -257 -21
-257 -26 0 -18 -24 9 -28 11 -2 34 8 49 22 27 22 29 29 28 88 -1 35 -18 128
-38 207 -38 154 -42 175 -27 169 20 -7 133 -157 189 -253 81 -135 106 -205
158 -429 24 -105 56 -233 70 -284 15 -51 24 -95 21 -98 -13 -13 -71 32 -142
110 -87 96 -140 128 -286 175 -62 21 -113 44 -143 68 -81 63 -224 239 -273
337 -25 49 -55 103 -66 119 -29 39 -92 74 -147 83 -58 9 -73 17 -140 74 -30
26 -102 74 -160 107 -58 33 -142 85 -188 116 -45 30 -123 76 -172 102 -57 29
-120 72 -168 116 -42 38 -101 81 -130 95 -48 24 -58 26 -135 19 l-82 -6 -82
54 c-98 65 -156 82 -278 82 -77 -1 -107 -6 -205 -39 -131 -43 -126 -43 -575
-56 -189 -6 -345 -15 -382 -23 -59 -13 -61 -13 -52 5 20 37 214 230 283 281
86 64 141 96 223 131 64 27 262 81 269 73 2 -2 -24 -21 -58 -42 -161 -99 -270
-197 -281 -251 -6 -34 32 -80 58 -70 17 6 17 8 -4 29 -31 34 -26 52 24 102 78
79 354 250 372 231 12 -12 -28 -93 -62 -126 -19 -18 -63 -50 -97 -69 -34 -20
-63 -42 -66 -49 -8 -25 35 -10 111 38 83 53 131 113 143 179 4 20 12 40 18 44
20 15 620 1 756 -18z m3419 -91 c80 -8 145 -15 146 -17 1 -1 10 -85 19 -187
18 -186 36 -336 100 -840 76 -595 122 -1110 98 -1110 -44 0 -193 28 -325 61
-211 53 -293 68 -410 76 l-98 6 3 221 c3 207 5 226 30 308 36 114 55 210 69
344 13 132 2 212 -37 251 -22 22 -24 32 -24 113 0 100 -23 290 -51 429 -26
130 -26 132 24 160 65 37 125 89 172 151 49 64 23 61 284 34z m-4379 -452 c0
-198 -148 -487 -347 -676 -194 -185 -238 -233 -364 -401 -75 -100 -187 -246
-251 -325 -141 -178 -242 -316 -288 -398 -19 -34 -38 -62 -42 -62 -14 0 -8 65
12 146 28 111 96 239 262 491 165 253 211 340 312 596 112 281 195 421 354
597 68 74 76 80 113 80 21 0 39 -4 39 -8 0 -15 -57 -98 -142 -208 -155 -199
-234 -335 -252 -437 -6 -34 -5 -38 11 -35 12 2 20 16 25 46 15 89 90 213 273
448 38 50 84 114 100 142 32 55 39 58 133 61 l52 1 0 -58z m3969 -493 c15 -44
14 -185 -3 -294 -51 -330 -154 -532 -401 -781 -116 -116 -277 -248 -297 -242
-5 2 -26 42 -47 89 l-38 85 51 18 c181 65 381 291 536 608 78 159 143 347 162
466 7 45 15 82 19 82 4 0 12 -14 18 -31z"/>
<path d="M5020 7625 c0 -8 173 -175 182 -175 4 0 8 7 8 15 0 24 -145 165 -170
165 -11 0 -20 -2 -20 -5z"/>
<path d="M4657 7517 c-32 -23 -18 -58 38 -94 27 -18 55 -33 62 -33 27 0 11 30
-25 49 -21 11 -44 27 -51 35 -12 14 -10 16 13 16 75 0 132 -54 167 -157 16
-50 35 -81 72 -120 27 -29 54 -53 58 -53 18 0 7 24 -32 72 -84 99 -6 64 97
-45 82 -87 115 -106 249 -142 107 -29 167 -55 203 -88 18 -17 25 -18 35 -8 10
10 5 18 -22 41 -36 31 -86 51 -250 100 l-105 32 -90 93 c-83 86 -102 98 -160
107 -11 2 -25 20 -36 50 -9 25 -27 60 -40 77 -39 56 -147 96 -183 68z"/>
<path d="M7133 7635 c-8 -23 4 -261 23 -425 15 -140 26 -216 93 -660 78 -515
87 -735 41 -1005 -32 -190 -25 -352 24 -580 38 -171 57 -234 139 -465 60 -169
68 -228 70 -512 2 -199 -1 -248 -13 -272 -20 -40 -35 -42 -65 -10 -42 46 -52
109 -64 414 -11 292 -26 408 -61 502 -28 76 -59 123 -71 111 -7 -7 -3 -26 14
-59 60 -120 76 -222 87 -574 9 -295 15 -335 53 -390 71 -105 122 -85 148 57
15 78 5 441 -16 556 -14 81 -28 125 -118 382 -20 55 -53 177 -73 270 -35 156
-38 183 -38 330 -1 120 4 186 19 265 16 86 20 145 19 325 0 237 -12 348 -80
779 -67 423 -88 600 -100 834 -7 125 -16 164 -31 127z"/>
<path d="M3910 7194 c-116 -16 -169 -37 -188 -77 -16 -34 -4 -60 37 -77 35
-14 50 -12 236 32 283 66 567 26 684 -96 39 -41 61 -46 61 -15 0 34 -116 141
-191 177 -112 54 -212 72 -384 71 -82 -1 -197 -7 -255 -15z m510 -42 c127 -39
169 -67 57 -38 -137 36 -318 29 -526 -20 -128 -30 -196 -30 -196 0 0 55 164
86 425 82 141 -3 187 -7 240 -24z"/>
<path d="M4006 6920 c-27 -11 -62 -31 -77 -46 -32 -31 -53 -80 -38 -90 13 -7
16 -4 38 38 38 69 175 106 292 78 74 -17 172 -68 260 -134 46 -35 77 -52 83
-46 13 13 -4 31 -87 88 -139 96 -237 132 -351 132 -45 -1 -89 -8 -120 -20z"/>
<path d="M4040 6790 c-64 -11 -93 -24 -133 -60 -41 -36 -40 -45 10 -107 98
-122 350 -163 562 -91 36 12 71 21 78 20 47 -9 3 74 -64 119 -115 79 -341 138
-453 119z m130 -37 c0 -5 -7 -26 -15 -48 -20 -56 -18 -104 5 -143 l20 -33 -37
7 c-93 16 -243 119 -230 157 2 7 27 24 56 39 44 23 66 28 127 28 41 0 74 -3
74 -7z m103 -19 c15 -3 27 -13 27 -20 0 -10 -7 -13 -24 -8 -28 7 -51 -24 -41
-56 9 -29 54 -60 87 -60 29 0 79 39 90 70 10 29 17 3 8 -30 -21 -75 -94 -114
-169 -91 -53 15 -76 44 -75 95 0 58 28 119 51 112 10 -3 30 -8 46 -12z m107
-56 c0 -18 -41 -58 -59 -58 -20 1 -51 24 -51 39 0 6 3 10 8 9 15 -4 50 13 56
28 4 12 10 13 26 4 11 -6 20 -16 20 -22z m147 -85 c3 -9 -75 -43 -98 -43 -4 0
2 22 14 50 l21 50 30 -24 c16 -12 31 -27 33 -33z"/>
<path d="M4500 6477 c-73 -27 -99 -31 -187 -32 -109 -1 -133 -8 -89 -25 34
-13 137 -13 196 1 75 16 191 61 187 72 -6 18 -20 16 -107 -16z"/>
<path d="M3760 5726 c-14 -37 -52 -43 -129 -20 -37 10 -91 18 -121 19 -51 0
-55 -2 -55 -24 0 -29 25 -47 51 -37 19 7 19 8 0 22 -19 13 -19 14 6 14 15 0
55 -9 90 -20 88 -27 152 -27 172 2 18 26 21 54 6 63 -6 3 -14 -5 -20 -19z"/>
<path d="M3196 5459 c-51 -12 -95 -45 -111 -83 -18 -41 2 -79 54 -105 35 -18
39 -24 44 -72 17 -143 130 -256 290 -290 110 -24 297 10 387 70 23 16 72 62
108 102 58 66 63 74 47 84 -10 5 -54 34 -97 62 -112 75 -142 89 -237 107 -57
10 -97 24 -124 43 -79 56 -113 72 -177 82 -76 13 -130 13 -184 0z m234 -43
c19 -7 65 -33 102 -58 48 -33 81 -49 115 -53 86 -12 142 -32 210 -76 l67 -44
-112 -3 -113 -3 -97 42 c-95 41 -100 42 -247 49 -82 4 -163 13 -180 19 -39 16
-65 40 -65 61 0 20 36 55 70 69 36 14 209 12 250 -3z m-119 -193 c18 -21 91
-53 197 -87 94 -29 205 -35 250 -12 35 18 137 28 182 18 l35 -8 -71 -71 c-81
-81 -140 -109 -267 -125 -219 -29 -391 77 -422 260 l-7 42 45 0 c29 0 49 -6
58 -17z m275 -31 c54 -22 106 -42 114 -46 8 -3 -17 -4 -57 -2 -75 3 -283 69
-283 89 0 21 127 -2 226 -41z"/>
</g>
</svg>
