<?xml version="1.0" encoding="UTF-8" standalone="no"?>
<svg
   xmlns:dc="http://purl.org/dc/elements/1.1/"
   xmlns:cc="http://creativecommons.org/ns#"
   xmlns:rdf="http://www.w3.org/1999/02/22-rdf-syntax-ns#"
   xmlns:svg="http://www.w3.org/2000/svg"
   xmlns="http://www.w3.org/2000/svg"
   xmlns:sodipodi="http://sodipodi.sourceforge.net/DTD/sodipodi-0.dtd"
   xmlns:inkscape="http://www.inkscape.org/namespaces/inkscape"
   version="1.0"
   width="1024.000000pt"
   height="1024.000000pt"
   viewBox="0 0 1024.000000 1024.000000"
   preserveAspectRatio="xMidYMid meet"
   id="svg2"
   inkscape:version="0.91 r13725"
   sodipodi:docname="UNADJUSTEDNONRAW_thumb_94b.svg">
  <defs
     id="defs226" />
  <sodipodi:namedview
     pagecolor="#ffffff"
     bordercolor="#666666"
     borderopacity="1"
     objecttolerance="10"
     gridtolerance="10"
     guidetolerance="10"
     inkscape:pageopacity="0"
     inkscape:pageshadow="2"
     inkscape:window-width="1440"
     inkscape:window-height="816"
     id="namedview224"
     showgrid="false"
     inkscape:zoom="0.52149125"
     inkscape:cx="785.15607"
     inkscape:cy="1093.6603"
     inkscape:window-x="0"
     inkscape:window-y="1"
     inkscape:window-maximized="1"
     inkscape:current-layer="svg2" />
  <metadata
     id="metadata4">
Created by potrace 1.14, written by Peter Selinger 2001-2017
<rdf:RDF>
  <cc:Work
     rdf:about="">
    <dc:format>image/svg+xml</dc:format>
    <dc:type
       rdf:resource="http://purl.org/dc/dcmitype/StillImage" />
  </cc:Work>
</rdf:RDF>
</metadata>
  <g
     transform="translate(0.000000,1024.000000) scale(0.100000,-0.100000)"
     fill="#000000"
     stroke="none"
     id="g6">
    <path
       d="M0 5120 l0 -5120 1757 2 1757 3 28 155 28 155 -30 120 c-16 66 -32 152 -36 190 -12 131 24 275 93 377 l35 53 3 130 c3 145 18 224 92 485 l47 165 7 555 c6 567 10 624 50 734 17 46 7 71 -58 153 -70 86 -124 191 -154 299 -34 118 -32 296 5 417 72 240 246 465 471 607 48 30 101 64 118 75 45 29 73 76 102 172 66 216 90 389 89 648 -1 372 -67 705 -175 893 -60 106 -119 255 -150 382 -21 84 -24 119 -24 305 0 235 5 268 80 532 54 186 60 223 80 443 41 469 68 581 194 825 294 568 627 863 1195 1061 441 154 848 172 1023 45 34 -24 51 -29 128 -33 79 -5 111 -13 265 -71 435 -163 644 -287 852 -505 183 -193 303 -434 354 -713 43 -230 7 -675 -74 -909 -38 -109 -128 -275 -166 -304 -49 -37 -66 -74 -66 -143 0 -210 -93 -476 -250 -716 l-59 -92 31 -13 c46 -19 57 -40 58 -101 0 -51 3 -57 54 -115 77 -88 158 -203 239 -341 109 -186 162 -260 219 -307 259 -215 359 -408 393 -755 6 -60 13 -80 39 -114 135 -178 140 -194 141 -429 l1 -185 38 -78 c49 -103 101 -263 122 -379 22 -116 24 -403 6 -670 -9 -140 -10 -222 -2 -328 14 -186 37 -271 105 -390 156 -273 228 -505 256 -817 14 -166 8 -316 -27 -628 -39 -349 -27 -570 43 -792 l17 -53 448 0 448 0 0 5120 0 5120 -5120 0 -5120 0 0 -5120z m2866 4405 c37 -24 82 -92 99 -148 28 -93 15 -203 -35 -312 -50 -110 -91 -132 -227 -121 -206 17 -372 112 -404 230 -16 59 -7 150 18 184 37 50 80 72 143 72 50 0 66 -5 110 -35 29 -19 56 -35 60 -35 5 0 16 21 24 48 24 70 52 111 89 128 37 16 88 12 123 -11z m-1985 -1075 c26 -36 63 -172 114 -419 25 -118 47 -216 49 -218 2 -3 37 62 76 143 67 137 105 194 129 194 5 0 23 -12 40 -26 53 -44 46 -97 -48 -371 -65 -191 -76 -233 -64 -237 8 -4 91 -15 184 -27 146 -18 213 -32 290 -64 14 -5 17 7 21 102 8 160 54 265 141 313 63 36 127 33 202 -9 83 -47 102 -66 126 -130 25 -68 59 -130 138 -250 68 -104 79 -137 57 -179 -17 -33 -34 -42 -74 -42 -37 1 -51 13 -116 104 -45 63 -57 74 -62 59 -22 -59 -68 -151 -87 -171 -38 -41 -96 -65 -143 -59 -58 6 -95 35 -131 103 -29 53 -31 56 -42 36 -17 -32 -63 -52 -118 -52 -26 0 -129 13 -228 29 -99 16 -181 28 -183 26 -2 -2 10 -69 27 -149 39 -186 40 -227 5 -255 -44 -35 -85 -28 -132 23 -32 35 -47 64 -71 142 -67 221 -93 353 -166 866 -64 452 -61 554 17 546 19 -2 38 -13 49 -28z m1498 -229 c16 -16 35 -58 66 -149 4 -10 29 -12 104 -10 111 3 141 -10 141 -62 0 -35 -20 -52 -114 -95 -69 -32 -77 -39 -72 -58 24 -83 98 -398 110 -469 18 -105 13 -140 -26 -173 -52 -44 -131 -25 -161 37 -19 41 -71 296 -94 465 -19 136 -23 143 -92 143 -38 0 -81 35 -81 65 0 32 32 60 86 75 l45 13 -3 97 c-3 85 0 101 16 119 24 26 50 27 75 2z m560 -47 c21 -27 27 -69 13 -90 -10 -16 -48 -34 -71 -34 -34 0 -74 43 -74 78 0 45 28 72 74 72 29 0 42 -6 58 -26z m579 -171 c44 -33 72 -82 72 -127 0 -99 -101 -227 -225 -286 -39 -18 -72 -34 -74 -36 -10 -9 37 -77 62 -90 32 -17 54 -8 134 54 27 22 65 47 83 57 32 17 34 17 47 -1 17 -23 16 -49 -3 -114 -39 -131 -129 -210 -238 -210 -77 0 -132 26 -189 90 -70 78 -92 149 -92 300 0 108 4 133 24 185 32 80 118 167 187 189 67 21 176 16 212 -11z m-568 -235 c40 -94 71 -236 73 -341 2 -97 1 -99 -26 -123 -30 -26 -75 -31 -109 -13 -31 17 -55 83 -79 219 -33 196 -18 312 43 322 47 8 75 -11 98 -64z m6017 -1088 c24 -10 63 -33 87 -49 25 -17 47 -31 50 -31 3 0 35 20 71 45 99 67 173 72 232 15 92 -90 56 -284 -77 -419 -73 -75 -215 -171 -252 -171 -37 0 -190 104 -256 174 -72 76 -117 172 -117 252 0 50 5 69 30 109 53 86 144 115 232 75z m-6314 -307 c15 -8 33 -26 40 -40 10 -23 8 -28 -16 -49 -56 -48 -147 -20 -147 46 0 19 9 35 27 49 27 22 43 21 96 -6z m1124 -23 c72 -43 99 -155 64 -268 -11 -39 -21 -85 -21 -104 0 -18 25 -170 54 -338 30 -168 60 -343 66 -390 25 -184 -17 -327 -112 -376 -15 -8 -54 -14 -86 -14 -51 0 -67 5 -108 33 -123 83 -193 274 -164 448 26 153 85 263 177 329 25 18 43 39 43 51 0 26 -4 25 -49 -20 -42 -42 -77 -53 -127 -40 -70 20 -99 95 -91 234 10 172 71 331 154 404 81 72 141 87 200 51z m-2125 -187 c15 -18 36 -76 58 -160 l11 -42 49 6 c54 6 76 -4 91 -44 13 -35 -5 -68 -55 -103 -26 -17 -46 -39 -46 -49 0 -26 96 -341 108 -353 6 -6 34 18 78 67 37 42 86 90 109 105 31 22 53 53 98 138 l57 110 -74 -5 c-60 -5 -80 -2 -101 11 -34 22 -35 79 -2 100 26 16 188 54 269 63 54 5 59 4 87 -25 52 -51 44 -93 -53 -296 -30 -64 -52 -116 -49 -116 3 0 45 16 95 36 70 29 98 35 133 32 l43 -5 7 141 c11 239 27 296 80 296 13 0 36 -12 53 -28 29 -27 29 -29 36 -167 13 -266 11 -313 -11 -343 -22 -29 -69 -40 -101 -23 -15 8 -27 4 -56 -15 -50 -34 -98 -55 -251 -109 -136 -48 -183 -54 -229 -30 -16 9 -30 14 -30 13 -1 -2 -18 -29 -39 -60 -70 -109 -176 -129 -260 -50 -56 52 -119 214 -148 376 -7 37 -18 70 -25 73 -7 3 -52 -8 -100 -24 l-88 -28 -12 -45 c-18 -69 -65 -162 -136 -267 -27 -41 -28 -43 -9 -43 38 0 117 36 183 84 73 52 83 54 98 27 39 -74 -40 -205 -158 -263 -67 -32 -166 -37 -219 -10 -58 30 -104 71 -119 109 -9 20 -14 72 -14 141 0 112 14 181 52 255 24 48 93 124 129 143 32 16 87 18 123 4 21 -8 43 -1 128 37 57 25 109 50 116 56 10 8 11 33 5 111 -4 56 -7 114 -7 130 2 50 64 75 96 39z m1569 -26 c95 -64 138 -203 139 -445 0 -107 -1 -114 -25 -137 -24 -25 -78 -34 -100 -17 -34 25 -39 48 -50 230 -9 141 -16 195 -29 220 -19 37 -35 37 -54 1 -10 -18 -11 -65 -6 -200 6 -182 3 -207 -35 -236 -9 -7 -29 -13 -44 -13 -68 0 -97 45 -97 152 0 120 20 351 33 377 7 15 38 38 77 58 81 40 141 44 191 10z m-2886 -22 c14 -13 25 -28 25 -34 0 -5 57 -11 128 -12 121 -4 131 -6 171 -32 47 -31 76 -72 93 -132 9 -32 8 -60 -5 -135 -9 -52 -19 -105 -23 -117 -6 -20 -3 -21 68 -20 165 3 224 -83 183 -270 -36 -163 -104 -282 -230 -401 -45 -43 -103 -88 -128 -100 -32 -15 -48 -30 -55 -52 -15 -41 -70 -66 -116 -50 -33 11 -52 39 -83 125 -29 82 -121 755 -133 970 -10 179 -1 246 33 270 30 21 44 19 72 -10z m2315 -1527 c44 -30 78 -97 89 -180 30 -213 -107 -528 -211 -489 -13 4 -54 12 -93 16 -177 18 -327 112 -380 238 -35 83 -11 221 46 274 54 49 111 54 212 19 l68 -24 10 26 c17 50 37 77 79 110 35 27 50 32 94 32 38 0 62 -6 86 -22z m-1557 -1054 c33 -17 85 -60 143 -120 69 -71 98 -94 117 -94 15 0 71 12 126 26 55 14 117 24 138 22 33 -3 38 -7 41 -29 2 -14 -20 -88 -47 -164 -28 -75 -51 -150 -51 -167 0 -16 14 -90 31 -164 17 -73 29 -141 25 -150 -9 -24 -46 -14 -199 56 -72 33 -131 59 -132 57 -1 -1 -21 -51 -45 -111 -51 -129 -75 -162 -112 -153 -35 9 -54 41 -113 187 l-50 125 -80 28 c-214 74 -242 90 -214 123 6 8 70 46 140 85 71 39 131 75 134 80 3 4 17 77 31 161 29 177 41 228 55 228 5 0 33 -12 62 -26z"
       id="path8"
       style="fill:none" />
    <path
       d="M2737 9474 c-16 -15 -38 -63 -57 -120 -18 -52 -35 -94 -40 -94 -4 0 -17 15 -28 34 -31 53 -96 91 -154 91 -40 0 -52 -5 -80 -32 -27 -27 -32 -41 -36 -91 -5 -76 14 -119 73 -161 69 -49 145 -79 265 -102 129 -26 127 -26 179 71 81 151 73 326 -18 403 -41 34 -71 34 -104 1z"
       id="path10"
       style="fill:#ff00ff" />
    <path
       d="M796 8444 c-28 -74 21 -440 145 -1064 52 -263 65 -315 97 -379 41 -82 68 -107 107 -97 48 12 49 37 10 211 -20 88 -38 168 -41 178 -3 10 -31 30 -62 45 -109 53 -122 106 -67 280 l37 117 -61 315 c-63 321 -73 362 -99 393 -19 21 -58 22 -66 1z"
       id="path12"
       style="fill:#00fa9a" />
    <path
       d="M1226 8108 c-18 -27 -109 -221 -138 -293 -42 -104 -108 -309 -108 -337 0 -48 27 -88 74 -109 49 -21 362 -77 481 -86 72 -5 83 -3 108 17 16 13 27 31 27 46 0 58 -53 76 -360 119 -102 15 -186 28 -187 29 -1 1 16 53 38 116 151 428 156 451 123 498 -19 28 -40 28 -58 0z"
       id="path14"
       style="fill:#00fa9a" />
    <path
       d="M1819 7817 c-92 -62 -151 -253 -121 -393 29 -134 78 -216 138 -233 86 -24 145 28 207 182 l43 107 75 -113 c54 -82 80 -113 97 -115 30 -5 62 24 62 56 0 13 -45 104 -99 201 -54 97 -107 194 -117 215 -11 22 -26 42 -34 46 -8 4 -24 12 -35 19 -97 57 -161 65 -216 28z m132 -115 c41 -37 40 -67 -5 -221 -57 -192 -80 -212 -116 -101 -48 149 -4 348 77 350 7 0 27 -13 44 -28z"
       id="path16"
       style="fill:#00fa9a" />
    <path
       d="M1882 7683 c-27 -24 -52 -102 -52 -165 0 -54 27 -168 40 -168 11 0 25 40 60 164 35 129 36 140 10 166 -24 24 -32 25 -58 3z"
       id="path18"
       style="fill:none" />
    <path
       d="M2321 8211 c-26 -26 -26 -25 4 -228 111 -736 120 -773 200 -773 45 0 70 31 69 84 -2 61 -149 690 -196 836 -11 36 -28 73 -38 84 -17 18 -18 18 -39 -3z"
       id="path20"
       style="fill:#00fa9a" />
    <path
       d="M2471 8031 c-11 -7 -11 -18 -2 -57 18 -76 19 -76 81 -53 108 41 130 61 110 100 -9 16 -22 19 -93 19 -45 0 -88 -4 -96 -9z"
       id="path22"
       style="fill:#00fa9a" />
    <path
       d="M2238 7964 c-85 -26 -74 -78 20 -93 49 -8 52 -7 52 13 0 35 -12 96 -19 95 -3 0 -27 -7 -53 -15z"
       id="path24"
       style="fill:#00fa9a" />
    <path
       d="M2846 8167 c-12 -9 -17 -23 -14 -42 7 -64 108 -69 108 -6 0 49 -55 77 -94 48z"
       id="path26"
       style="fill:#66cdaa" />
    <path
       d="M3353 8000 c-121 -25 -193 -104 -228 -252 -31 -131 -9 -256 62 -358 105 -149 261 -150 365 -1 65 93 63 168 -4 118 -48 -37 -138 -77 -174 -77 -17 0 -40 9 -52 20 -23 21 -77 109 -71 114 2 2 38 19 79 38 174 81 270 232 215 338 -27 52 -108 77 -192 60z m76 -119 c26 -17 -38 -98 -123 -155 -55 -37 -68 -35 -60 12 4 20 12 48 19 62 34 65 121 108 164 81z"
       id="path28"
       style="fill:#00fa9a" />
    <path
       d="M3342 7847 c-26 -15 -47 -43 -55 -74 -8 -34 4 -29 69 32 53 49 57 54 34 54 -14 0 -35 -5 -48 -12z"
       id="path30"
       style="fill:none" />
    <path
       d="M2830 7795 c-26 -31 11 -369 48 -445 14 -29 23 -36 54 -38 69 -6 82 49 53 223 -18 108 -48 218 -70 251 -18 28 -65 33 -85 9z"
       id="path32"
       style="fill:#00fa9a" />
    <path
       d="M8815 6628 c-34 -27 -64 -91 -65 -138 0 -51 50 -148 105 -203 44 -45 175 -140 210 -153 21 -9 138 70 206 137 63 63 114 158 125 231 11 80 -26 148 -81 148 -31 0 -137 -54 -179 -90 l-37 -33 -31 38 c-64 76 -194 109 -253 63z"
       id="path34"
       style="fill:#ff1493" />
    <path
       d="M2568 6359 c-28 -16 -22 -47 13 -64 28 -15 33 -15 55 0 30 19 31 39 2 59 -26 18 -46 20 -70 5z"
       id="path36"
       style="fill:#228b22" />
    <path
       d="M3682 6339 c-74 -15 -156 -119 -205 -259 -19 -55 -22 -86 -22 -203 l0 -139 33 -29 c49 -44 86 -40 138 17 24 25 46 55 49 65 11 34 23 20 33 -38 9 -50 8 -59 -7 -67 -9 -6 -39 -31 -67 -58 -143 -135 -186 -386 -99 -575 31 -70 113 -149 167 -164 92 -24 173 30 204 138 25 87 13 221 -55 611 -58 329 -60 345 -46 387 44 128 38 230 -15 284 -33 32 -60 40 -108 30z m13 -141 c-19 -18 -28 -38 -36 -86 -20 -130 -99 -314 -99 -233 0 47 32 178 55 229 28 61 70 112 92 112 8 0 3 -9 -12 -22z m74 -839 c28 -268 22 -339 -28 -339 -21 0 -72 53 -97 100 -16 29 -19 57 -19 160 0 115 2 130 27 183 34 72 65 117 82 117 9 0 19 -64 35 -221z"
       id="path38"
       style="fill:#adff2f" />
    <path
       d="M3692 5490 c-45 -73 -61 -227 -33 -322 17 -61 74 -128 92 -110 19 18 16 196 -6 327 -23 140 -27 148 -53 105z"
       id="path40"
       style="fill:none" />
    <path
       d="M1582 6136 c-13 -29 16 -319 49 -479 38 -187 101 -341 159 -391 41 -34 103 -36 151 -3 53 35 99 120 99 182 0 27 3 61 6 75 5 19 -16 3 -85 -65 -87 -86 -91 -88 -106 -70 -42 56 -100 252 -150 505 -27 140 -53 240 -64 251 -3 4 -15 10 -27 13 -16 5 -23 0 -32 -18z"
       id="path42"
       style="fill:#adff2f" />
    <path
       d="M2622 6027 c-20 -22 -22 -37 -29 -218 -3 -108 -3 -207 0 -222 16 -60 82 -79 113 -31 15 22 16 46 8 238 -8 189 -11 216 -28 235 -24 27 -37 26 -64 -2z"
       id="path44"
       style="fill:#adff2f" />
    <path
       d="M2186 5964 c-139 -29 -156 -36 -156 -70 0 -38 38 -48 135 -37 44 5 82 8 85 6 2 -2 -4 -19 -14 -36 -10 -18 -54 -100 -97 -184 -87 -168 -98 -214 -58 -254 19 -19 29 -21 83 -16 65 6 347 106 378 134 35 32 8 113 -36 113 -8 0 -72 -22 -143 -50 -70 -27 -131 -50 -134 -50 -4 0 29 69 71 153 94 183 108 224 91 265 -12 28 -48 53 -74 51 -7 0 -65 -11 -131 -25z"
       id="path46"
       style="fill:#adff2f" />
    <path
       d="M1744 5934 c-19 -13 -20 -19 -10 -64 5 -28 15 -50 21 -50 7 0 27 10 46 23 56 37 50 108 -10 106 -14 0 -35 -7 -47 -15z"
       id="path48"
       style="fill:#adff2f" />
    <path
       d="M1451 5807 c-96 -43 -118 -64 -100 -99 5 -9 18 -19 28 -23 20 -6 165 38 189 57 18 16 12 102 -8 105 -8 1 -57 -17 -109 -40z"
       id="path50"
       style="fill:#adff2f" />
    <path
       d="M1203 5759 c-50 -25 -94 -76 -128 -151 -37 -81 -47 -149 -39 -270 l6 -108 42 -30 c62 -47 133 -64 201 -50 102 21 215 123 215 194 0 18 -3 35 -6 39 -4 3 -26 -7 -51 -24 -65 -45 -151 -80 -210 -86 -29 -3 -53 -3 -53 0 0 4 31 57 70 118 61 98 90 158 114 236 5 15 0 29 -19 49 -14 15 -25 37 -25 49 0 26 -29 55 -56 55 -10 0 -38 -9 -61 -21z m47 -123 c0 -2 -19 -43 -42 -92 -26 -55 -43 -82 -46 -71 -8 36 53 167 78 167 6 0 10 -2 10 -4z"
       id="path52"
       style="fill:#adff2f" />
    <path
       d="M3035 6107 c-59 -32 -60 -33 -72 -92 -18 -83 -27 -267 -19 -349 9 -80 32 -112 74 -101 49 11 52 24 52 231 0 178 1 193 21 218 24 30 64 35 77 9 23 -43 45 -179 49 -306 5 -125 8 -139 27 -152 29 -21 43 -19 71 10 23 22 25 32 25 112 0 138 -23 264 -62 342 -58 116 -130 139 -243 78z"
       id="path54"
       style="fill:#adff2f" />
    <path
       d="M266 6098 c-9 -12 -16 -33 -16 -46 0 -19 4 -23 18 -17 9 4 29 12 45 17 31 12 34 28 9 51 -25 23 -38 21 -56 -5z"
       id="path56"
       style="fill:#adff2f" />
    <path
       d="M335 6034 c-71 -19 -100 -42 -90 -73 11 -35 34 -40 136 -31 200 20 229 10 229 -74 0 -111 -101 -331 -189 -410 -29 -26 -27 -71 4 -101 13 -14 28 -25 33 -25 5 0 45 23 88 52 89 58 203 107 252 108 28 0 32 -3 32 -26 0 -34 -46 -170 -72 -214 -78 -130 -171 -214 -248 -225 -43 -6 -51 -11 -56 -32 -9 -35 6 -72 39 -97 25 -18 32 -19 73 -8 96 26 244 168 313 302 47 90 81 209 81 284 0 116 -87 168 -229 135 -24 -5 -46 -8 -48 -6 -2 3 8 50 22 105 43 173 27 264 -58 320 -36 24 -50 27 -146 29 -72 2 -125 -3 -166 -13z"
       id="path58"
       style="fill:#adff2f" />
    <path
       d="M398 5915 c-8 -8 56 -365 67 -367 13 -4 101 195 115 259 14 64 7 91 -27 104 -25 9 -146 13 -155 4z"
       id="path60"
       style="fill:none" />
    <path
       d="M273 5903 c-14 -3 -23 -12 -23 -23 0 -31 109 -847 120 -897 19 -84 52 -178 68 -190 23 -19 59 -16 82 7 11 11 20 24 20 28 0 4 -21 18 -46 30 -83 40 -91 121 -20 186 l35 31 -19 103 c-22 116 -24 122 -48 122 -48 0 -88 69 -70 120 5 14 21 37 35 52 l26 27 -33 206 -32 205 -37 -1 c-20 -1 -46 -4 -58 -6z"
       id="path62"
       style="fill:#adff2f" />
    <path
       d="M745 5440 c-69 -24 -152 -67 -200 -103 -22 -17 -42 -32 -44 -34 -6 -4 40 -237 49 -246 11 -13 145 136 183 204 38 69 70 160 65 182 -2 12 -12 11 -53 -3z"
       id="path64"
       style="fill:none" />
    <path
       d="M2512 4549 c-47 -24 -86 -75 -97 -126 -10 -49 -26 -57 -64 -28 -61 45 -154 53 -208 18 -58 -38 -67 -165 -18 -248 49 -84 125 -128 298 -170 105 -26 109 -26 128 -9 55 50 129 263 129 371 0 70 -28 156 -60 186 -36 33 -52 33 -108 6z"
       id="path66"
       style="fill:#ff00ff" />
    <path
       d="M1037 3418 c-9 -57 -19 -128 -22 -158 -13 -121 -29 -143 -130 -189 -33 -15 -80 -40 -105 -56 l-44 -28 118 -38 c141 -45 164 -63 200 -163 14 -39 37 -98 52 -130 l27 -59 15 29 c9 16 34 74 57 128 23 55 49 104 57 110 13 8 49 -6 155 -56 76 -37 139 -63 141 -57 5 13 -23 132 -48 203 -26 75 -25 93 3 147 34 63 81 198 73 206 -4 4 -54 -5 -111 -20 -56 -15 -118 -27 -135 -27 -35 0 -33 -1 -199 179 -40 45 -77 81 -80 81 -4 0 -14 -46 -24 -102z"
       id="path68"
       style="fill:#adff2f" />
    <path
       d="M6156 10020 c-74 -9 -217 -34 -260 -47 -16 -4 -12 -11 26 -44 73 -62 84 -121 38 -197 -19 -32 -84 -72 -96 -59 -3 3 8 23 25 44 34 42 49 85 43 121 -5 31 -62 89 -97 98 -38 9 -144 -17 -269 -67 -114 -46 -134 -59 -90 -59 45 0 144 -28 183 -52 46 -29 28 -33 -51 -12 -40 10 -102 16 -171 16 -97 0 -113 -3 -164 -27 -60 -30 -209 -127 -258 -170 l-30 -26 40 17 c119 48 186 66 265 71 143 9 214 -26 242 -118 18 -63 -4 -71 -33 -13 -34 68 -66 88 -147 92 -137 7 -286 -45 -425 -149 -255 -192 -517 -569 -591 -849 -32 -122 -42 -202 -61 -490 -18 -271 -22 -298 -77 -479 -52 -174 -76 -295 -84 -428 l-6 -108 89 180 c115 230 115 232 103 325 -26 200 8 702 61 912 61 244 168 450 310 602 153 164 334 256 503 256 55 0 165 -33 200 -61 26 -21 37 -56 14 -46 -92 41 -149 60 -193 64 -136 14 -333 -81 -467 -225 -178 -193 -326 -539 -372 -871 -17 -121 -23 -631 -8 -631 22 0 32 115 32 358 0 275 7 330 53 433 37 85 438 678 490 726 58 53 108 79 183 92 133 24 278 -41 335 -151 19 -37 20 -38 77 -38 62 0 144 -20 203 -51 57 -28 144 -114 186 -182 83 -133 119 -251 158 -515 34 -231 28 -215 92 -257 30 -20 56 -35 58 -33 1 2 -15 125 -36 273 -22 149 -38 284 -36 300 l3 30 12 -25 c19 -39 133 -651 145 -780 6 -63 11 -236 11 -383 1 -274 8 -296 25 -79 15 191 -3 427 -59 747 -10 61 -24 173 -30 250 -26 334 -89 523 -223 671 -105 116 -279 160 -425 107 -24 -8 -46 -12 -50 -8 -14 14 40 43 104 55 131 25 262 -4 362 -80 28 -22 52 -36 52 -30 0 5 -25 36 -56 69 -40 44 -77 72 -132 98 -71 36 -82 38 -166 38 -78 0 -99 -4 -150 -28 -32 -15 -61 -25 -64 -22 -10 10 21 33 81 61 83 38 211 41 299 5 165 -65 283 -218 353 -457 22 -73 28 -122 35 -271 10 -200 15 -238 65 -493 94 -486 80 -844 -49 -1276 -60 -201 -148 -542 -144 -559 6 -27 317 182 352 237 13 21 12 33 -5 113 -29 132 -36 357 -15 515 20 148 82 443 101 480 8 15 22 33 31 41 16 12 17 12 11 -4 -50 -133 -102 -567 -94 -790 3 -81 7 -151 11 -154 3 -3 43 26 89 65 96 80 98 86 138 307 18 99 22 161 23 355 1 267 8 236 -102 475 -64 140 -100 238 -132 363 -30 115 -50 236 -40 246 8 8 19 -24 66 -189 47 -167 157 -405 326 -709 108 -192 153 -286 199 -409 29 -78 37 -123 20 -113 -4 3 -11 -54 -14 -127 -5 -138 -17 -196 -67 -325 -46 -121 -119 -223 -257 -361 -68 -68 -122 -126 -119 -128 6 -7 126 56 181 95 243 171 352 334 386 575 14 106 6 202 -37 416 -46 230 -170 711 -214 827 -13 33 4 39 20 6 7 -15 34 -89 61 -165 27 -76 54 -147 59 -157 6 -11 26 -21 49 -25 72 -12 159 -93 201 -187 29 -68 43 -170 37 -282 -6 -115 -17 -158 -52 -210 -23 -34 -25 -45 -24 -154 0 -64 4 -137 7 -162 l7 -45 18 65 c68 256 86 417 69 613 -12 134 -37 271 -66 369 -13 43 -25 59 -63 88 -163 121 -414 416 -783 920 -79 107 -166 222 -193 255 -28 33 -58 69 -66 80 -16 19 -15 19 9 4 14 -9 67 -67 119 -130 572 -696 864 -1012 1041 -1129 165 -108 426 -230 493 -230 27 0 36 5 46 27 14 30 11 34 -49 57 -133 52 -329 208 -448 359 -53 67 -87 125 -78 134 3 4 50 -36 103 -88 l97 -94 9 45 c4 25 6 106 4 180 -5 155 -23 228 -111 445 -142 354 -362 633 -651 827 -119 79 -129 97 -30 54 100 -45 236 -147 361 -271 138 -137 207 -234 319 -448 41 -78 75 -132 75 -121 0 41 -40 220 -76 334 -20 63 -60 166 -90 228 -44 94 -64 125 -117 175 -202 198 -765 325 -1217 274 -125 -14 -172 -9 -108 12 123 40 471 49 678 17 524 -79 791 -249 977 -621 101 -202 152 -459 140 -701 -7 -134 -27 -237 -71 -367 l-34 -98 25 -30 c27 -32 178 -135 284 -193 l66 -36 16 24 c16 24 15 25 -150 182 -91 87 -160 160 -154 162 20 7 119 -78 224 -190 55 -59 103 -108 107 -108 9 0 67 185 84 270 44 218 46 494 6 685 -86 405 -283 706 -600 917 -88 59 -356 192 -558 277 -110 47 -164 64 -240 76 -53 8 -111 17 -128 20 -20 3 -34 13 -37 24 -2 10 -29 30 -58 44 -47 23 -70 27 -179 31 -69 3 -161 1 -204 -4z"
       id="path70"
       style="fill:#ff8c00" />
    <path
       d="M5074 9135 c-27 -13 -69 -45 -94 -70 l-45 -46 46 20 c88 39 168 54 254 47 44 -3 91 -9 105 -12 l25 -7 -20 23 c-11 12 -42 33 -70 46 -67 32 -136 32 -201 -1z"
       id="path72"
       style="fill:#ffa500" />
    <path
       d="M7510 9055 c103 -266 149 -530 151 -869 0 -159 1 -161 17 -121 13 33 16 79 17 255 0 184 -3 231 -22 326 -29 141 -74 277 -128 384 -65 127 -79 137 -35 25z"
       id="path74"
       style="fill:#cd853f" />
    <path
       d="M5090 9034 c-137 -29 -275 -124 -375 -257 -48 -63 -205 -322 -205 -337 0 -4 19 -11 43 -14 73 -11 222 -93 264 -146 23 -28 91 -175 107 -230 26 -92 36 -221 26 -317 -12 -107 -63 -218 -137 -303 -74 -83 -181 -224 -183 -240 -5 -30 0 -42 14 -37 9 4 25 -10 43 -35 15 -23 50 -59 77 -81 42 -32 56 -38 85 -34 20 2 44 7 53 11 13 6 15 3 11 -13 -7 -26 -49 -61 -73 -61 -22 0 -115 69 -192 142 -80 75 -79 95 11 213 25 33 74 91 109 130 35 38 77 97 94 130 34 67 68 212 68 295 0 77 -25 168 -59 210 -57 72 -258 202 -379 244 l-40 14 -12 -61 c-6 -34 -14 -105 -17 -157 l-6 -94 32 27 c26 22 43 27 84 27 l52 1 -57 30 c-32 16 -58 31 -58 33 0 10 103 -18 157 -43 67 -32 148 -100 156 -131 7 -26 2 -25 -53 10 -60 39 -123 60 -174 60 l-41 -1 24 -19 c13 -11 32 -20 42 -20 33 0 123 -39 159 -69 41 -34 85 -109 98 -169 10 -42 10 -43 -26 -59 -21 -9 -65 -16 -102 -16 -77 -1 -144 28 -226 98 l-51 44 -11 -122 c-6 -67 -27 -187 -47 -267 -19 -80 -35 -168 -35 -197 0 -71 63 -360 112 -513 21 -66 128 -294 134 -287 4 4 -12 138 -23 192 -5 26 -4 28 10 17 17 -15 35 -84 73 -292 42 -230 103 -400 171 -479 41 -49 85 -73 174 -96 111 -29 182 -19 439 64 124 40 250 86 281 101 130 66 222 191 254 345 9 47 19 229 29 545 9 261 19 512 22 558 7 95 13 91 -93 66 -83 -20 -181 -14 -280 15 -69 21 -71 22 -116 90 l-46 69 -46 0 c-61 -1 -80 17 -28 26 61 11 72 16 67 30 -8 21 19 36 97 52 119 26 256 22 373 -10 54 -14 102 -24 105 -21 15 15 -23 42 -90 63 -105 34 -279 41 -395 17 -47 -10 -87 -15 -91 -11 -11 11 82 45 157 57 41 6 104 9 140 6 l65 -6 -49 24 c-28 13 -80 29 -117 36 -58 10 -74 10 -120 -6 -30 -9 -66 -26 -81 -37 -16 -10 -28 -15 -28 -9 0 13 74 63 120 82 87 35 243 0 401 -92 48 -27 89 -49 93 -49 3 0 6 42 6 94 l0 94 -47 16 c-27 9 -78 16 -122 16 -64 -1 -368 -26 -568 -47 -48 -5 -53 -4 -53 15 0 20 70 121 107 154 24 22 237 42 342 33 100 -9 212 -32 273 -56 27 -10 51 -19 53 -19 11 0 3 53 -31 199 -69 303 -134 458 -238 568 -72 78 -148 116 -272 138 -53 9 -100 23 -117 36 -52 38 -182 48 -297 23z m25 -2019 l30 -13 -45 -1 c-66 -1 -125 10 -108 20 20 13 89 10 123 -6z m-391 -205 c56 0 140 -24 431 -123 l210 -71 118 -2 c65 -1 120 -4 123 -7 8 -8 -115 -107 -134 -108 -9 -1 -26 -3 -37 -4 -11 -2 -81 -32 -155 -69 -223 -109 -252 -115 -405 -89 -64 12 -85 25 -123 82 -70 104 -121 242 -122 329 0 18 -6 47 -13 65 -8 18 -17 45 -21 62 -7 28 -6 27 36 -18 41 -43 48 -47 92 -47z"
       id="path76"
       style="fill:#ffebcd" />
    <path
       d="M4735 6771 c3 -5 22 -15 43 -21 20 -7 60 -23 88 -37 58 -27 146 -40 184 -25 22 8 19 11 -40 30 -53 17 -251 62 -275 62 -3 0 -4 -4 0 -9z"
       id="path78"
       style="fill:#ff6347" />
    <path
       d="M4736 6731 c-11 -16 44 -109 84 -144 72 -62 117 -71 309 -63 122 5 172 11 190 23 13 8 19 19 15 23 -5 4 -49 23 -99 40 -72 26 -113 34 -205 40 -94 6 -124 11 -165 32 -78 40 -124 57 -129 49z"
       id="path80"
       style="fill:#ffe4e1" />
    <path
       d="M4676 6658 c13 -72 37 -130 83 -195 46 -65 53 -70 109 -87 92 -28 154 -19 302 43 69 29 129 57 134 62 6 5 -70 7 -180 6 l-189 -2 -66 31 c-76 36 -137 87 -164 138 -24 45 -36 46 -29 4z"
       id="path82"
       style="fill:#ff6347" />
    <path
       d="M4476 8388 c-9 -12 -16 -26 -16 -30 0 -3 26 -14 58 -23 77 -23 194 -77 251 -118 72 -52 71 -51 58 -16 -7 18 -24 44 -39 59 -28 28 -258 150 -283 150 -8 0 -21 -10 -29 -22z"
       id="path84"
       style="fill:#4b0082" />
    <path
       d="M5432 8103 c-26 -3 -39 -14 -67 -56 -19 -28 -33 -52 -32 -53 1 -1 37 6 80 16 184 44 367 49 550 14 44 -8 81 -13 83 -11 10 10 -141 67 -216 81 -77 15 -308 20 -398 9z"
       id="path86"
       style="fill:#4b0082" />
    <path
       d="M4447 8003 c-13 -12 -7 -21 18 -25 27 -6 32 1 13 20 -14 14 -22 15 -31 5z"
       id="path88"
       style="fill:none" />
    <path
       d="M6106 7933 c-3 -4 -6 -47 -6 -97 0 -98 14 -136 49 -136 17 0 31 -18 31 -41 0 -5 -16 -9 -35 -9 -35 0 -46 -12 -22 -27 6 -4 37 -10 67 -13 l55 -6 -53 -23 c-51 -23 -52 -24 -35 -43 16 -18 16 -19 -21 -16 -27 1 -42 -3 -51 -15 -7 -10 -15 -71 -19 -154 -13 -260 -25 -658 -26 -830 0 -278 -25 -362 -174 -581 -144 -212 -244 -442 -266 -614 -12 -91 -10 -149 4 -93 48 199 135 378 287 595 153 218 169 252 233 525 69 291 81 358 106 580 27 248 35 497 21 693 -19 264 -14 248 -81 282 -32 16 -60 26 -64 23z"
       id="path90"
       style="fill:#ff8c00" />
    <path
       d="M4520 7883 c-51 -47 -45 -70 34 -125 38 -26 71 -47 72 -45 2 1 -5 25 -13 52 -15 44 -15 53 -1 91 8 24 13 46 10 49 -16 16 -74 3 -102 -22z"
       id="path92"
       style="fill:#b0e0e6" />
    <path
       d="M4650 7861 c-33 -63 9 -138 91 -161 44 -13 75 29 51 68 -6 9 -12 6 -20 -13 -22 -48 -102 -22 -102 33 0 12 10 32 22 44 20 20 20 22 3 35 -25 18 -32 17 -45 -6z"
       id="path94"
       style="fill:#191970" />
    <path
       d="M4704 7795 c-8 -19 12 -36 33 -28 19 7 12 37 -10 41 -9 2 -20 -4 -23 -13z"
       id="path96"
       style="fill:#0000ff" />
    <path
       d="M5582 7663 c-59 -29 -64 -66 -16 -130 24 -32 37 -36 169 -59 l40 -7 -37 41 c-37 41 -58 93 -58 145 0 24 -4 27 -32 27 -18 0 -48 -8 -66 -17z"
       id="path98"
       style="fill:#b0e0e6" />
    <path
       d="M5704 7657 c27 -111 75 -157 163 -157 41 0 58 5 82 26 47 39 58 64 35 81 -26 19 -34 16 -34 -12 0 -37 -38 -58 -79 -44 -47 17 -58 44 -31 81 12 16 20 31 18 33 -1 2 -39 6 -82 10 l-79 8 7 -26z"
       id="path100"
       style="fill:#191970" />
    <path
       d="M7404 7643 c53 -176 76 -332 76 -518 0 -222 -31 -394 -109 -600 -21 -55 -37 -101 -36 -102 1 -2 44 14 96 35 l94 37 78 115 c174 258 275 527 280 746 l2 77 -100 42 c-55 23 -164 74 -243 114 -107 54 -142 67 -138 54z"
       id="path102"
       style="fill:#ffa500" />
    <path
       d="M5872 7618 c-13 -13 2 -38 23 -38 21 0 36 25 23 38 -7 7 -17 12 -23 12 -6 0 -16 -5 -23 -12z"
       id="path104"
       style="fill:#0000ff" />
    <path
       d="M7144 7578 c7 -44 13 -55 78 -149 68 -98 77 -172 52 -416 -4 -40 -3 -63 3 -63 6 0 23 28 39 63 27 60 28 68 29 222 0 152 -1 163 -26 215 -35 75 -72 116 -132 146 l-50 26 7 -44z"
       id="path106"
       style="fill:#cd853f" />
    <path
       d="M6826 7500 c7 -51 9 -54 23 -45 17 10 13 41 -9 66 l-21 24 7 -45z"
       id="path108"
       style="fill:none" />
    <path
       d="M6861 7411 c-22 -30 -29 -105 -12 -115 5 -3 22 15 39 41 29 44 30 48 16 75 -8 15 -16 28 -19 28 -2 0 -13 -13 -24 -29z"
       id="path110"
       style="fill:#f4a460" />
    <path
       d="M7201 7375 c0 -5 9 -46 20 -90 18 -78 19 -79 15 -25 -3 46 -34 147 -35 115z"
       id="path112"
       style="fill:none" />
    <path
       d="M4264 7313 c-105 -235 -124 -302 -124 -434 0 -204 46 -312 318 -754 115 -187 137 -217 123 -170 -9 33 -62 170 -139 365 -59 151 -94 255 -124 375 -22 85 -23 106 -20 383 2 160 1 292 -3 292 -3 0 -17 -26 -31 -57z"
       id="path114"
       style="fill:#cd853f" />
    <path
       d="M6904 7285 c-14 -25 -34 -68 -45 -95 -19 -50 -45 -237 -35 -248 3 -3 16 0 29 5 16 8 31 31 45 71 12 32 42 90 67 128 25 37 45 73 45 79 0 17 -58 105 -69 105 -6 0 -22 -20 -37 -45z"
       id="path116"
       style="fill:#cd853f" />
    <path
       d="M6986 7094 c-25 -38 -48 -81 -51 -95 -6 -24 -3 -26 42 -36 78 -18 86 -9 78 95 -4 48 -11 91 -15 96 -5 4 -29 -23 -54 -60z"
       id="path118"
       style="fill:#f4a460" />
    <path
       d="M4335 6874 c7 -142 81 -381 203 -654 69 -155 105 -265 121 -365 6 -38 12 -189 13 -335 l3 -265 -32 -92 c-63 -180 -149 -325 -304 -512 -307 -370 -402 -497 -460 -616 -63 -132 -82 -217 -82 -380 -1 -109 4 -160 20 -230 23 -97 41 -150 48 -143 2 2 20 80 39 174 20 93 46 201 59 239 86 253 256 443 497 557 36 17 171 82 300 145 l235 115 -40 31 c-81 64 -164 157 -194 219 -36 74 -64 218 -64 333 -1 103 28 191 93 282 58 81 189 212 284 282 39 29 63 52 55 55 -8 2 -65 10 -127 18 -149 20 -190 44 -244 143 -50 93 -121 253 -173 395 -24 63 -73 180 -110 259 -47 100 -79 188 -106 290 l-39 146 5 -91z"
       id="path120"
       style="fill:#ff8c00" />
    <path
       d="M6863 6905 c-42 -18 -57 -44 -82 -140 -11 -44 -29 -107 -41 -139 -27 -78 -26 -86 10 -86 22 0 59 24 154 99 123 99 124 100 135 153 15 75 17 97 8 98 -4 1 -34 -1 -68 -5 -71 -8 -84 -2 -38 19 l34 14 -40 1 c-22 0 -54 -6 -72 -14z"
       id="path122"
       style="fill:#cd853f" />
    <path
       d="M7277 6763 c-8 -114 -28 -189 -77 -289 -75 -153 -242 -314 -445 -428 l-85 -48 1 -61 c2 -126 -6 -129 189 70 204 208 247 256 329 378 79 115 91 157 98 328 6 152 -1 186 -10 50z"
       id="path124"
       style="fill:#ffa500" />
    <path
       d="M6622 6614 c-40 -46 -42 -52 -42 -113 0 -35 2 -62 5 -60 11 11 86 202 82 212 -1 5 -22 -12 -45 -39z"
       id="path126"
       style="fill:#f4a460" />
    <path
       d="M6930 6605 c-36 -31 -66 -60 -68 -64 -3 -8 50 -31 70 -31 10 0 70 129 66 142 -2 5 -33 -16 -68 -47z"
       id="path128"
       style="fill:#f4a460" />
    <path
       d="M6756 6494 c-38 -7 -70 -15 -71 -16 -2 -2 -21 -39 -43 -83 l-40 -80 16 -73 c8 -39 20 -72 25 -72 29 0 279 282 263 297 -3 3 -23 14 -43 23 -34 14 -46 15 -107 4z"
       id="path130"
       style="fill:#cd853f" />
    <path
       d="M7544 6405 c-62 -31 -162 -102 -164 -115 0 -3 44 -4 98 -2 110 4 134 15 165 75 21 41 15 77 -12 77 -10 0 -49 -16 -87 -35z"
       id="path132"
       style="fill:#cd853f" />
    <path
       d="M7405 6403 c-61 -32 -114 -84 -140 -138 -38 -77 -25 -108 16 -37 16 29 59 84 95 122 37 39 65 70 63 70 -2 -1 -17 -8 -34 -17z"
       id="path134"
       style="fill:#f4a460" />
    <path
       d="M6451 6305 c-77 -58 -165 -112 -266 -163 -55 -27 -64 -36 -94 -96 -43 -86 -96 -167 -193 -298 -44 -59 -99 -142 -124 -185 l-44 -77 22 -23 c12 -13 27 -23 34 -23 6 0 38 30 70 68 32 37 155 166 274 287 156 160 233 246 279 314 86 130 146 251 123 251 -4 0 -41 -25 -81 -55z"
       id="path136"
       style="fill:#cd853f" />
    <path
       d="M7144 6258 c-27 -35 -110 -128 -184 -207 -299 -319 -270 -281 -297 -384 -35 -137 -78 -220 -161 -309 -87 -94 -102 -135 -109 -304 -10 -224 45 -331 261 -508 55 -45 106 -86 113 -89 6 -4 -21 41 -60 100 -123 184 -171 332 -171 523 0 234 59 372 290 680 247 330 272 366 325 464 28 53 49 96 46 96 -2 0 -26 -28 -53 -62z"
       id="path138"
       style="fill:#cd853f" />
    <path
       d="M7630 6261 c-7 -15 0 -69 30 -218 59 -286 76 -345 135 -468 60 -124 124 -214 211 -295 153 -142 520 -437 531 -426 2 2 -6 52 -17 113 -45 248 -145 424 -327 575 -92 76 -152 160 -258 358 -37 69 -85 150 -108 180 -58 78 -138 168 -164 185 -20 14 -23 13 -33 -4z"
       id="path140"
       style="fill:#ffa500" />
    <path
       d="M7514 6215 c-27 -13 -55 -34 -63 -46 -7 -12 -26 -92 -42 -177 -67 -359 -23 -689 135 -1017 70 -143 125 -216 227 -302 128 -106 186 -177 246 -298 57 -113 68 -166 67 -325 0 -164 -13 -226 -119 -579 -78 -260 -98 -374 -99 -546 0 -174 13 -239 109 -576 121 -421 160 -651 171 -1003 10 -301 -14 -525 -79 -741 -121 -399 -154 -491 -206 -564 -12 -16 -21 -32 -21 -35 0 -4 55 -5 122 -4 l123 3 53 130 c115 283 191 535 229 760 14 88 18 162 17 365 0 277 -10 368 -60 535 -14 50 -29 98 -31 107 -3 10 -1 18 4 18 13 0 71 -126 89 -193 50 -183 75 -515 55 -727 -29 -302 -133 -666 -267 -932 l-34 -68 403 0 404 0 26 97 c81 304 87 591 22 1038 -44 300 -67 375 -265 870 -228 573 -288 745 -310 891 -13 87 -15 305 -5 482 7 112 10 123 65 262 32 80 83 201 113 270 124 286 152 436 108 592 -42 153 -114 232 -413 456 -238 180 -335 262 -415 354 -149 172 -228 396 -270 772 -11 95 -22 156 -28 156 -6 0 -33 -11 -61 -25z"
       id="path142"
       style="fill:#ff8c00" />
    <path
       d="M6473 6113 c-97 -144 -102 -152 -82 -137 8 6 54 39 102 74 l89 63 -7 46 c-12 83 -17 81 -102 -46z"
       id="path144"
       style="fill:#f4a460" />
    <path
       d="M7344 6219 c-17 -5 -37 -16 -44 -24 -13 -16 -17 -61 -7 -72 7 -6 43 20 107 76 l35 30 -30 0 c-16 -1 -44 -5 -61 -10z"
       id="path146"
       style="fill:#deb887" />
    <path
       d="M4360 6169 c0 -3 13 -60 29 -125 101 -410 107 -769 21 -1110 -16 -65 -28 -119 -26 -121 2 -3 20 22 39 54 151 252 219 561 171 789 -33 163 -133 398 -204 484 -16 19 -30 32 -30 29z"
       id="path148"
       style="fill:#cd853f" />
    <path
       d="M7195 6128 c-17 -104 -54 -363 -51 -366 4 -3 126 298 126 311 0 12 -52 87 -61 87 -4 0 -11 -15 -14 -32z"
       id="path150"
       style="fill:#deb887" />
    <path
       d="M7338 6088 c-83 -74 -157 -362 -144 -558 15 -230 113 -457 256 -595 29 -27 51 -45 49 -40 -2 6 -25 60 -51 120 -93 219 -131 395 -131 620 0 156 11 256 44 389 11 43 19 82 17 88 -2 5 -20 -6 -40 -24z"
       id="path152"
       style="fill:#f4a460" />
    <path
       d="M6926 5793 c-137 -182 -231 -318 -257 -370 -38 -77 -66 -179 -84 -311 l-7 -52 110 0 c225 0 336 -28 550 -137 79 -40 142 -67 142 -60 0 14 -29 62 -85 144 -174 255 -242 629 -172 953 14 63 24 117 22 118 -2 2 -101 -126 -219 -285z"
       id="path154"
       style="fill:#ffa500" />
    <path
       d="M6499 5900 c-204 -213 -372 -465 -454 -685 l-25 -66 15 -127 c9 -70 18 -133 20 -140 4 -10 14 -6 37 12 18 13 69 41 113 61 44 20 87 40 95 44 10 5 19 39 27 102 26 197 92 365 214 550 l70 106 -3 108 c-2 82 -6 110 -17 113 -8 3 -47 -30 -92 -78z"
       id="path156"
       style="fill:#ffa500" />
    <path
       d="M6430 5933 c-31 -12 -124 -87 -182 -146 -194 -199 -333 -473 -369 -730 -13 -96 -3 -178 30 -249 l20 -43 -6 75 c-21 282 166 670 487 1013 69 73 78 87 58 86 -12 0 -30 -3 -38 -6z"
       id="path158"
       style="fill:#ffa500" />
    <path
       d="M5674 5844 c-44 -31 -106 -78 -139 -104 -33 -26 -134 -101 -225 -167 -378 -276 -540 -535 -475 -758 40 -141 105 -215 242 -280 52 -25 96 -45 99 -45 4 0 -17 25 -45 56 -60 65 -113 157 -135 233 -22 75 -21 204 3 279 60 193 260 426 561 655 77 59 213 187 198 187 -3 0 -41 -25 -84 -56z"
       id="path160"
       style="fill:#ff8c00" />
    <path
       d="M5540 5829 c-276 -74 -425 -161 -609 -355 -70 -74 -101 -117 -133 -181 -38 -77 -42 -93 -46 -176 -2 -58 1 -103 8 -122 l12 -30 18 62 c39 134 135 281 252 384 70 62 285 224 448 339 58 40 109 77 115 82 12 10 -20 9 -65 -3z"
       id="path162"
       style="fill:#ff8c00" />
    <path
       d="M5623 5719 c-35 -28 -63 -54 -63 -57 0 -12 48 -67 53 -62 13 14 86 170 80 170 -5 -1 -36 -23 -70 -51z"
       id="path164"
       style="fill:#f4a460" />
    <path
       d="M5358 5488 c-152 -151 -225 -247 -286 -375 -36 -76 -37 -81 -37 -194 l0 -116 43 -86 c51 -102 73 -121 123 -106 18 5 120 14 224 18 105 5 197 12 206 16 15 6 14 15 -13 83 -16 42 -41 119 -56 172 -24 88 -26 110 -26 285 0 175 2 197 26 273 l25 84 -31 41 c-17 22 -36 42 -43 44 -6 2 -76 -60 -155 -139z"
       id="path166"
       style="fill:#ffebcd" />
    <path
       d="M5980 5543 c-151 -162 -243 -327 -271 -488 -15 -89 -6 -176 27 -261 37 -93 136 -193 245 -246 42 -21 81 -38 88 -38 7 0 -14 22 -47 49 -75 62 -114 113 -152 193 -99 212 -33 520 184 851 31 47 11 30 -74 -60z"
       id="path168"
       style="fill:#cd853f" />
    <path
       d="M6502 5475 c-28 -58 -52 -111 -52 -118 1 -20 69 94 90 152 35 92 17 76 -38 -34z"
       id="path170"
       style="fill:none" />
    <path
       d="M5672 5278 c-18 -78 -30 -143 -29 -145 5 -4 107 238 107 251 0 9 -30 35 -41 36 -3 0 -20 -64 -37 -142z"
       id="path172"
       style="fill:#f4a460" />
    <path
       d="M6594 4986 c-11 -29 15 -46 71 -46 29 0 92 -7 141 -15 232 -40 431 -137 613 -299 35 -32 65 -55 68 -52 3 3 -5 27 -18 53 -50 104 -205 223 -383 292 -143 56 -210 71 -358 78 -113 5 -128 4 -134 -11z"
       id="path174"
       style="fill:#f4a460" />
    <path
       d="M6275 4930 l-20 -9 20 0 c11 0 27 4 35 9 13 9 13 10 0 9 -8 0 -24 -4 -35 -9z"
       id="path176"
       style="fill:none" />
    <path
       d="M6622 4843 c19 -70 88 -187 191 -325 57 -76 123 -172 147 -213 38 -68 162 -353 227 -525 60 -158 100 -453 89 -645 -12 -197 -29 -292 -115 -617 -32 -125 -44 -262 -31 -380 23 -210 76 -406 180 -669 114 -284 168 -474 195 -677 34 -253 4 -458 -100 -702 -19 -45 -35 -84 -35 -86 0 -2 85 -4 189 -4 l188 0 73 158 c118 254 115 243 114 427 0 111 -8 214 -24 335 -34 247 -33 445 3 635 34 182 48 306 49 446 1 99 -2 124 -26 192 -14 43 -39 102 -54 130 l-27 52 -5 -130 c-4 -86 -12 -148 -24 -182 -33 -98 -38 -76 -31 128 10 275 5 301 -105 524 -91 186 -104 219 -114 294 -4 25 -23 92 -43 150 -34 99 -36 116 -40 256 -4 129 -1 172 21 310 42 252 52 385 39 524 -7 66 -18 133 -27 149 -25 48 -153 178 -238 243 -151 113 -321 184 -526 220 -157 26 -153 27 -140 -18z"
       id="path178"
       style="fill:#ffa500" />
    <path
       d="M6221 4855 c-35 -8 -95 -26 -132 -41 -89 -33 -96 -52 -49 -141 49 -96 94 -132 385 -308 102 -62 199 -160 248 -250 l38 -70 -7 55 c-21 173 -84 319 -213 490 -81 108 -131 193 -155 263 -6 20 -27 21 -115 2z"
       id="path180"
       style="fill:#ffa500" />
    <path
       d="M7470 4774 c0 -3 15 -38 34 -77 39 -84 90 -267 107 -386 16 -115 6 -392 -21 -556 -31 -188 -37 -391 -16 -489 10 -42 21 -74 26 -71 4 3 19 33 33 67 14 35 47 110 75 168 83 174 112 299 112 480 0 260 -69 462 -248 733 -83 124 -102 149 -102 131z"
       id="path182"
       style="fill:#ffa500" />
    <path
       d="M7610 4687 c0 -4 35 -47 78 -97 164 -193 205 -248 253 -343 27 -55 49 -105 49 -113 0 -8 5 -14 11 -14 15 0 4 87 -20 155 -37 105 -146 247 -254 333 -71 56 -117 87 -117 79z"
       id="path184"
       style="fill:#f4a460" />
    <path
       d="M5780 4623 c1 -18 93 -180 141 -245 28 -39 48 -72 46 -75 -9 -9 -147 130 -219 219 -52 65 -75 87 -87 83 -55 -22 -146 -34 -285 -39 -88 -3 -162 -9 -165 -12 -14 -14 115 -113 224 -172 64 -35 114 -66 111 -69 -2 -3 -111 34 -240 82 l-236 87 -354 -177 c-390 -195 -471 -248 -560 -366 -96 -128 -134 -227 -185 -484 -48 -246 -56 -304 -45 -323 32 -52 305 -221 569 -352 587 -290 1172 -460 1835 -529 141 -15 507 -34 524 -28 17 7 56 127 92 288 137 609 78 1184 -172 1682 -20 38 -37 67 -39 66 -1 -2 5 -35 15 -74 24 -90 26 -258 5 -340 -19 -71 -69 -166 -131 -246 -44 -57 -93 -103 -101 -95 -3 2 17 37 44 78 87 129 108 196 101 317 -8 134 -77 253 -200 346 -93 70 -135 92 -313 165 -177 73 -255 116 -328 180 -26 23 -47 38 -47 33z"
       id="path186"
       style="fill:#deb887" />
    <path
       d="M4125 4568 c-156 -101 -329 -302 -401 -465 -80 -180 -85 -412 -13 -597 30 -76 37 -74 23 6 -56 316 59 608 394 999 51 60 89 109 84 109 -4 0 -44 -23 -87 -52z"
       id="path188"
       style="fill:#ff8c00" />
    <path
       d="M6731 4353 c103 -139 202 -342 259 -533 13 -41 26 -79 31 -84 4 -4 11 13 14 39 23 148 -66 379 -202 525 -49 53 -131 120 -147 120 -3 0 17 -30 45 -67z"
       id="path190"
       style="fill:#cd853f" />
    <path
       d="M7844 4263 c33 -107 40 -168 41 -326 l0 -168 38 77 c20 43 37 93 37 111 0 57 -95 323 -115 323 -4 0 -4 -8 -1 -17z"
       id="path192"
       style="fill:#f4a460" />
    <path
       d="M8637 3826 c-137 -298 -152 -345 -144 -471 6 -93 25 -162 72 -255 36 -73 259 -448 288 -483 l22 -28 0 208 c0 114 6 295 14 401 17 224 7 386 -33 562 -23 101 -76 274 -94 305 -6 11 -43 -60 -125 -239z"
       id="path194"
       style="fill:#ffa500" />
    <path
       d="M7082 3860 c-42 -211 -44 -224 -28 -312 63 -343 42 -737 -60 -1137 -19 -74 -33 -136 -31 -138 6 -5 83 173 122 281 40 111 88 306 106 431 19 127 17 415 -4 545 -15 99 -64 303 -85 360 -9 23 -10 20 -20 -30z"
       id="path196"
       style="fill:#cd853f" />
    <path
       d="M7913 3668 c-105 -197 -223 -455 -248 -542 -25 -85 -17 -194 19 -264 26 -51 100 -142 116 -142 4 0 3 21 -1 48 -14 87 -10 257 10 374 13 72 51 209 104 373 80 246 103 325 95 325 -2 0 -45 -78 -95 -172z"
       id="path198"
       style="fill:#cd853f" />
    <path
       d="M8446 3130 c14 -139 37 -277 59 -356 25 -84 122 -326 290 -724 241 -569 327 -991 311 -1514 -3 -111 -8 -217 -11 -236 l-5 -35 16 35 c70 152 135 612 135 965 0 365 -71 701 -175 830 -55 67 -104 161 -140 271 -29 89 -36 101 -178 296 -109 151 -201 302 -265 433 l-43 90 6 -55z"
       id="path200"
       style="fill:#ff8c00" />
    <path
       d="M3896 3053 c-15 -70 -36 -502 -36 -728 -1 -602 -35 -1063 -86 -1142 -39 -61 -46 -12 -28 180 8 88 14 169 12 181 -7 42 -50 -267 -50 -357 0 -98 27 -327 43 -365 6 -16 48 -42 142 -87 282 -136 646 -232 1052 -277 161 -18 778 -18 940 0 397 44 850 129 1160 219 156 45 361 121 376 139 24 29 -59 319 -177 622 -104 265 -147 427 -170 639 -5 51 -10 62 -27 67 -39 10 -70 -18 -147 -132 -78 -115 -199 -266 -207 -259 -2 3 30 89 72 193 41 104 75 192 75 195 0 4 -62 10 -137 13 -573 28 -954 88 -1403 225 -371 112 -799 299 -1073 468 -96 60 -274 190 -296 216 -19 24 -29 21 -35 -10z"
       id="path202"
       style="fill:#7b68ee" />
    <path
       d="M7780 2678 c0 -4 8 -23 17 -43 19 -39 38 -48 28 -12 -7 21 -45 68 -45 55z"
       id="path204"
       style="fill:none" />
    <path
       d="M7047 2253 c-15 -29 -16 -33 -2 -33 18 0 28 21 23 47 -3 14 -8 11 -21 -14z"
       id="path206"
       style="fill:none" />
    <path
       d="M8016 1789 c-3 -19 -10 -72 -15 -119 -6 -47 -19 -146 -30 -220 -27 -175 -27 -196 9 -477 17 -130 30 -240 30 -245 0 -4 4 -8 9 -8 13 0 39 187 52 360 7 108 7 200 0 318 -10 155 -38 412 -46 421 -2 1 -6 -12 -9 -30z"
       id="path208"
       style="fill:#cd853f" />
    <path
       d="M3761 1584 c0 -11 3 -14 6 -6 3 7 2 16 -1 19 -3 4 -6 -2 -5 -13z"
       id="path210" />
    <path
       d="M3625 936 c-50 -119 -69 -416 -26 -416 4 0 24 74 46 165 37 158 38 167 25 220 -7 31 -17 58 -22 61 -5 3 -15 -11 -23 -30z"
       id="path212"
       style="fill:#9400d3" />
    <path
       d="M3706 726 c-3 -17 -30 -184 -60 -371 -31 -187 -56 -343 -56 -347 0 -5 384 -8 854 -8 l854 0 76 177 c42 97 75 178 73 179 -1 1 -112 10 -247 18 -495 33 -627 55 -1014 172 -232 71 -308 101 -395 158 l-81 53 -4 -31z"
       id="path214"
       style="fill:#deb887" />
    <path
       d="M7287 679 c-426 -152 -1011 -266 -1537 -300 -91 -5 -180 -12 -197 -15 l-33 -5 0 -97 c0 -53 3 -134 7 -179 l6 -83 732 0 733 0 94 92 c102 101 165 188 232 325 39 78 116 280 116 304 0 13 -1 13 -153 -42z"
       id="path216"
       style="fill:#7b68ee" />
    <path
       d="M7422 503 c-22 -72 -118 -254 -170 -323 -27 -36 -77 -91 -110 -123 l-61 -58 122 3 121 3 38 119 c45 140 80 317 76 378 l-3 43 -13 -42z"
       id="path218"
       style="fill:#9400d3" />
    <path
       d="M9176 264 c-10 -31 -37 -102 -61 -157 l-44 -102 49 -3 c27 -2 73 -2 103 0 l53 3 -35 152 c-20 83 -39 154 -42 157 -3 3 -13 -19 -23 -50z"
       id="path220"
       style="fill:#cd853f" />
    <path
       d="M5412 118 c-23 -57 -42 -106 -42 -110 0 -5 20 -8 45 -8 l45 0 0 110 c0 61 -1 110 -3 110 -2 0 -22 -46 -45 -102z"
       id="path222"
       style="fill:#9400d3" />
  </g>
</svg>
