<?xml version="1.0" standalone="no"?>
<!DOCTYPE svg PUBLIC "-//W3C//DTD SVG 20010904//EN"
 "http://www.w3.org/TR/2001/REC-SVG-20010904/DTD/svg10.dtd">
<svg version="1.0" xmlns="http://www.w3.org/2000/svg"
 width="1024.000000pt" height="1024.000000pt" viewBox="0 0 1024.000000 1024.000000"
 preserveAspectRatio="xMidYMid meet">
<metadata>
Created by potrace 1.14, written by Peter Selinger 2001-2017
</metadata>
<g transform="translate(0.000000,1024.000000) scale(0.100000,-0.100000)"
fill="#000000" stroke="none">
<path d="M5229 9660 c-248 -31 -525 -165 -794 -385 -134 -109 -132 -109 -233
-102 -192 12 -381 -49 -580 -186 -101 -70 -245 -224 -314 -338 -93 -153 -65
-137 -231 -131 -157 5 -251 -5 -413 -43 -481 -114 -1049 -419 -1499 -805 -114
-98 -320 -309 -408 -420 -170 -211 -321 -478 -391 -690 -102 -307 -114 -651
-32 -892 54 -160 143 -282 270 -373 165 -118 279 -144 476 -110 103 17 299 35
397 35 88 0 108 -15 118 -87 46 -327 84 -412 212 -480 62 -34 258 -97 334
-108 66 -10 145 9 276 66 61 27 114 49 116 49 2 0 7 -44 11 -97 11 -158 68
-391 107 -435 l20 -23 -5 65 c-18 201 -18 236 3 379 12 79 29 160 37 180 13
32 80 111 94 111 3 0 6 -136 7 -303 1 -208 6 -344 17 -437 9 -74 23 -200 32
-280 36 -347 89 -574 189 -814 6 -14 5 -17 -4 -12 -13 8 -513 590 -567 661
-44 56 -88 148 -109 228 -10 37 -25 73 -33 80 -10 7 -45 12 -97 11 -69 0 -91
-5 -146 -31 -71 -33 -149 -104 -179 -164 -53 -103 6 -170 178 -203 45 -9 97
-23 115 -32 30 -15 877 -851 877 -865 0 -4 -15 -10 -32 -13 -18 -3 -107 -46
-198 -95 -183 -98 -194 -111 -147 -167 22 -25 31 -28 110 -32 80 -4 112 1 188
32 13 6 21 -10 43 -81 37 -119 46 -135 89 -156 l37 -17 0 -89 c0 -136 30 -144
130 -34 44 49 80 122 80 164 0 24 38 49 73 49 24 0 70 -41 278 -243 294 -285
425 -407 439 -407 18 0 50 40 50 62 0 15 -77 99 -254 276 l-255 254 27 25 27
25 135 -8 c165 -11 267 -9 304 6 16 6 31 8 34 5 3 -3 15 -114 28 -248 12 -133
27 -289 34 -347 24 -202 -7 -349 -107 -506 -31 -49 -87 -141 -126 -204 -121
-202 -248 -376 -407 -560 -31 -36 -67 -81 -81 -100 -33 -45 -169 -259 -169
-265 0 -3 9 -5 19 -5 13 0 48 40 107 121 48 67 141 189 206 271 145 183 245
327 421 608 74 118 141 219 149 224 10 6 75 -9 204 -49 267 -81 1012 -349
1182 -424 108 -48 199 -75 327 -97 65 -11 103 -24 138 -46 45 -29 48 -29 71
-14 l25 16 5 -58 c19 -185 53 -324 117 -477 27 -65 35 -75 56 -75 20 0 24 4
18 17 -114 284 -147 413 -149 593 0 77 4 132 11 144 10 18 13 15 36 -30 34
-68 100 -239 193 -501 70 -201 81 -223 101 -223 21 0 22 1 9 43 -55 178 -122
350 -273 696 -14 33 -14 34 9 27 13 -4 55 -9 94 -13 71 -6 71 -6 93 26 14 19
31 31 46 31 44 0 152 40 212 79 34 22 93 69 133 105 39 36 75 66 79 66 17 0
46 -78 160 -424 116 -353 161 -521 161 -600 0 -35 1 -36 39 -36 l38 0 -38 157
c-22 86 -37 158 -34 161 2 3 21 -10 41 -28 56 -48 98 -64 132 -48 54 26 131
182 174 352 34 134 10 235 -74 316 -48 47 -289 171 -417 213 -72 25 -73 25
-50 40 199 128 1049 637 1094 655 56 23 66 24 180 18 109 -7 123 -5 142 11 30
26 43 75 43 159 0 103 -16 169 -51 209 -34 38 -107 70 -138 60 -22 -7 -87 -92
-145 -191 -19 -34 -60 -83 -89 -110 -62 -57 -782 -512 -792 -502 -5 5 570 570
816 803 87 83 174 171 194 196 l36 47 43 -13 c48 -15 100 -8 139 18 52 34 135
118 190 192 58 78 187 325 187 358 0 27 -14 28 -96 7 -209 -53 -361 -169 -493
-375 -41 -64 -104 -132 -320 -340 -148 -143 -457 -444 -687 -669 l-417 -409
-14 27 c-35 66 -45 124 -50 279 -4 102 -2 157 5 157 5 0 46 -7 91 -15 140 -27
203 3 258 124 68 148 143 557 233 1266 36 283 69 531 141 1045 11 80 28 177
38 215 59 220 52 420 -22 621 -48 131 -124 226 -214 270 -72 36 -167 41 -498
30 -310 -11 -340 -7 -568 70 -171 58 -306 123 -372 179 l-40 33 -3 197 -3 196
31 -23 c18 -13 56 -55 86 -95 58 -76 74 -92 74 -71 -1 32 -42 97 -94 148 -31
30 -56 58 -56 62 0 8 50 2 122 -14 42 -9 102 -43 186 -104 21 -16 22 -15 22 6
0 13 -16 39 -37 60 -36 35 -88 57 -202 87 l-34 8 135 126 134 126 65 7 c36 4
82 17 104 29 43 25 134 126 255 284 64 84 84 119 101 177 34 113 72 203 138
320 75 135 99 204 112 326 5 52 19 147 30 210 30 169 34 328 15 499 -51 436
-150 669 -390 918 -275 286 -586 461 -902 508 -170 25 -203 31 -304 58 -107
28 -260 40 -361 27z m231 -40 c47 -6 121 -20 165 -32 l80 -22 -35 -15 c-34
-15 -30 -16 130 -22 204 -8 281 -27 440 -111 523 -275 801 -644 874 -1158 21
-146 30 -340 21 -445 l-8 -90 -27 100 c-15 55 -37 127 -49 160 -36 101 -146
314 -218 422 -75 113 -214 292 -225 293 -16 0 -7 -19 37 -81 232 -330 365
-606 420 -874 26 -125 31 -314 11 -414 -21 -105 -44 -154 -150 -333 -90 -152
-119 -211 -109 -222 11 -11 23 -6 23 9 0 8 5 15 10 15 6 0 2 -17 -9 -38 -21
-41 -214 -297 -264 -349 -35 -37 -102 -66 -140 -61 l-25 3 55 93 c51 84 61 95
108 118 71 33 138 107 185 206 37 76 40 88 40 169 0 77 7 111 71 330 l71 244
4 155 3 155 -14 -115 c-21 -162 -57 -298 -109 -404 -47 -97 -122 -194 -112
-146 3 14 13 66 23 115 27 137 25 472 -5 615 -22 105 -72 283 -78 277 -2 -2 7
-57 21 -123 29 -146 45 -284 45 -403 0 -98 -18 -288 -29 -308 -4 -7 -13 30
-20 83 -37 279 -153 544 -357 814 -108 143 -131 182 -159 270 -33 103 -110
238 -175 310 l-31 35 26 -45 c132 -228 188 -399 202 -614 4 -77 3 -105 -7
-111 -25 -15 -43 26 -87 201 -49 198 -91 299 -178 429 -89 134 -111 140 -72
18 49 -151 62 -228 62 -388 0 -144 -18 -264 -46 -315 -5 -9 -9 51 -9 140 0
103 -7 198 -20 284 -11 71 -20 131 -20 133 0 2 -4 2 -9 -1 -4 -3 -12 -61 -15
-128 -15 -265 -54 -437 -136 -603 -43 -87 -135 -223 -145 -213 -2 2 10 57 26
123 26 105 57 370 46 382 -2 2 -18 -41 -36 -95 -44 -141 -183 -466 -192 -450
-14 26 -31 146 -39 281 -13 229 7 446 70 754 11 53 19 98 17 100 -10 9 -150
-309 -258 -584 -42 -106 -53 -123 -71 -105 -28 28 44 281 142 501 27 63 48
117 44 120 -11 11 -45 -42 -106 -163 -66 -134 -119 -217 -218 -352 -75 -101
-107 -125 -195 -147 -80 -21 -115 -34 -115 -46 0 -5 31 -1 70 10 109 30 111
26 32 -47 -40 -36 -77 -74 -82 -85 -6 -10 -17 -54 -25 -98 -9 -43 -21 -96 -28
-117 l-13 -37 -23 61 c-13 34 -27 62 -31 62 -10 0 -36 -72 -56 -155 -23 -94
-23 -286 0 -380 19 -79 47 -157 77 -216 l20 -40 -23 12 c-34 18 -112 102 -142
153 -41 69 -75 168 -102 291 l-24 110 6 -74 c17 -219 115 -447 266 -616 l53
-59 -70 38 c-153 83 -280 203 -386 363 -73 112 -85 147 -74 220 11 78 72 251
125 357 27 55 48 102 45 104 -6 7 -62 -84 -99 -163 -19 -38 -49 -115 -67 -170
-32 -98 -33 -99 -45 -70 -7 17 -13 35 -14 41 0 5 31 118 70 250 38 131 70 248
70 258 0 43 -22 -7 -85 -194 -37 -107 -70 -199 -74 -203 -20 -21 -43 234 -36
388 13 248 49 472 120 727 72 263 157 392 379 570 171 138 331 235 500 303
188 75 337 97 516 75z m-1410 -495 c0 -2 -24 -17 -52 -32 -44 -23 -49 -28 -30
-31 12 -2 54 1 92 7 101 16 103 16 96 -15 -21 -82 -174 -440 -221 -514 -78
-125 -89 -150 -143 -331 -67 -221 -121 -442 -138 -569 -32 -246 -4 -898 52
-1175 20 -98 33 -126 34 -70 0 22 -11 202 -25 400 -33 475 -33 480 9 244 38
-214 75 -330 177 -552 64 -137 99 -249 99 -310 l0 -38 -92 -45 c-85 -41 -99
-45 -157 -42 l-64 3 -2 95 c-3 120 -12 152 -100 385 -108 284 -158 459 -195
672 -63 362 -17 705 139 1049 66 148 43 136 -34 -16 -145 -286 -201 -630 -161
-970 26 -208 63 -345 219 -805 74 -218 105 -353 92 -403 -7 -26 -9 -24 -37 33
-22 43 -60 88 -135 160 -111 106 -127 129 -163 240 -12 39 -43 120 -67 180
-76 184 -95 273 -100 473 -4 121 -9 172 -17 169 -6 -2 -21 -50 -33 -107 -13
-57 -25 -105 -27 -107 -11 -11 -16 143 -7 218 26 207 138 536 259 759 101 189
173 292 351 510 117 143 139 188 39 80 -195 -211 -370 -465 -499 -726 -49
-101 -91 -184 -93 -184 -4 0 21 231 34 320 68 458 309 811 665 976 85 39 235
83 235 69z m1889 -552 c54 -108 154 -474 135 -493 -5 -5 -45 -12 -88 -16 -75
-7 -79 -6 -71 12 14 34 18 357 6 444 -7 45 -15 88 -18 96 -3 8 -2 14 1 14 3 0
19 -26 35 -57z m-2810 -83 c35 -5 65 -11 68 -13 2 -3 -18 -92 -46 -198 -60
-234 -71 -308 -71 -493 0 -129 -3 -150 -29 -236 -120 -387 -137 -708 -49 -949
17 -48 38 -74 143 -176 67 -66 128 -130 134 -142 26 -52 5 -197 -43 -291 -41
-80 -89 -127 -148 -146 -140 -46 -183 -111 -233 -361 -14 -68 -28 -132 -32
-142 -3 -10 -35 -57 -70 -104 -74 -101 -143 -242 -173 -354 -14 -51 -32 -90
-48 -107 -34 -37 -190 -112 -277 -134 -145 -36 -350 -16 -439 43 -102 67 -135
138 -175 376 -31 185 -48 232 -92 255 -39 21 -139 11 -606 -60 -226 -34 -412
80 -533 326 -28 55 -57 128 -65 161 -75 298 -21 679 144 1020 226 467 636 894
1196 1247 449 282 837 430 1260 481 59 7 121 6 184 -3z m828 -102 c-52 -308
-65 -637 -31 -783 20 -83 20 -105 14 -510 -2 -172 0 -213 18 -295 41 -192 46
-183 54 100 3 140 11 271 16 290 l9 35 38 -79 38 -78 -2 -252 c-3 -365 17
-501 95 -643 l34 -63 -40 -20 c-47 -24 -62 -25 -99 -5 -34 17 -48 50 -55 130
-7 79 -34 159 -108 318 -151 326 -206 603 -195 972 14 426 93 807 199 958 11
16 22 26 25 23 3 -3 -2 -47 -10 -98z m1311 -50 c-21 -131 -18 -540 5 -652 21
-104 65 -246 75 -246 15 0 123 98 178 161 149 171 229 363 269 639 l15 105 -5
-135 c-2 -75 -16 -202 -30 -288 -29 -176 -28 -162 -16 -162 5 0 37 55 72 123
34 67 69 127 77 133 17 13 156 26 179 17 8 -3 38 -54 68 -114 30 -59 60 -111
66 -115 9 -5 10 18 5 92 -4 54 -10 107 -12 117 -3 9 0 17 6 17 11 0 150 -34
187 -46 12 -4 9 2 -10 20 -15 14 -53 33 -85 41 -31 9 -64 20 -72 24 -16 9 -32
124 -28 199 l3 43 51 -68 c200 -266 311 -516 359 -808 21 -129 19 -303 -6
-390 -35 -123 -35 -122 -16 -106 10 7 17 9 17 4 0 -6 -23 -77 -51 -159 -61
-182 -121 -309 -190 -409 -91 -132 -273 -284 -399 -333 -30 -12 -91 -36 -135
-53 -241 -94 -238 -94 -554 10 -132 44 -259 90 -283 102 -126 63 -239 171
-296 281 -38 74 -122 271 -117 276 2 2 35 -3 74 -12 74 -17 143 -20 176 -7 16
6 12 9 -20 15 -64 12 -156 61 -217 116 -60 53 -79 86 -30 52 40 -28 129 -72
147 -72 9 0 -10 29 -50 78 -88 104 -175 276 -175 344 0 17 5 16 44 -12 25 -16
46 -30 48 -30 2 0 1 24 0 54 -4 63 17 113 72 165 41 40 42 39 20 -37 -28 -96
1 -228 62 -281 61 -54 143 -65 214 -28 84 42 134 154 146 326 l7 102 28 -6
c40 -9 36 4 -13 52 -55 54 -112 78 -216 94 -92 13 -92 24 -3 33 40 5 87 -1
164 -18 116 -25 122 -23 40 19 -37 18 -55 34 -59 51 -8 31 23 257 41 301 11
25 20 32 47 35 l33 4 -27 13 c-16 8 -28 19 -28 25 0 14 154 395 158 391 2 -2
-3 -41 -10 -87z m-244 -178 c-20 -91 -32 -117 -57 -124 -30 -8 -77 -8 -77 1 0
10 141 195 145 191 2 -2 -2 -33 -11 -68z m-40 -182 c3 -13 7 -93 9 -179 l4
-157 -56 -5 c-31 -2 -90 -16 -132 -31 -85 -29 -136 -33 -165 -12 -16 12 -19
25 -17 86 3 96 29 149 100 201 30 22 57 47 60 55 3 8 22 26 42 39 28 19 49 25
93 25 52 0 58 -2 62 -22z m86 15 c0 -5 -7 -30 -14 -58 l-14 -50 -1 51 c-1 28
2 54 6 57 9 9 23 9 23 0z m395 -277 c-28 -86 -84 -200 -85 -175 0 33 97 265
107 255 2 -2 -7 -38 -22 -80z m-925 -178 c13 -35 25 -69 27 -75 8 -19 -43 -16
-62 4 -12 11 -15 25 -11 46 3 16 6 42 6 58 0 47 16 33 40 -33z m475 -95 c20
-19 35 -56 35 -85 0 -59 -90 -81 -129 -32 -28 36 -26 66 5 103 29 35 63 40 89
14z m-511 -52 c3 -5 -3 -20 -14 -32 l-19 -24 -1 26 c0 35 20 53 34 30z m349
-39 c20 -22 6 -42 -29 -42 -27 0 -44 38 -23 51 21 13 34 11 52 -9z m-849 -18
c7 -26 -24 -388 -32 -380 -7 8 10 406 18 406 4 0 11 -12 14 -26z m922 -49 c34
-18 62 -19 100 -5 15 6 28 9 30 7 2 -2 1 -26 -3 -54 l-6 -51 -96 -4 c-81 -3
-106 -8 -155 -32 -67 -33 -76 -28 -76 40 0 55 24 76 95 82 30 2 60 11 66 18
14 17 11 17 45 -1z m1863 -171 c-16 -43 -22 -85 -24 -159 -1 -92 -4 -105 -34
-164 -18 -36 -50 -84 -69 -108 -38 -45 -109 -100 -118 -91 -9 10 122 392 154
449 32 56 101 143 108 136 2 -2 -6 -30 -17 -63z m-1795 26 c34 -13 33 -32 -5
-75 -55 -62 -148 -71 -204 -19 -27 25 -27 25 -9 46 44 48 154 73 218 48z
m-1969 -152 c30 -175 107 -373 213 -543 28 -44 48 -82 45 -85 -6 -6 -185 183
-222 235 -50 72 -54 94 -57 330 -1 121 0 204 2 185 3 -19 11 -74 19 -122z
m1165 -15 c36 -56 37 -85 15 -358 -8 -99 -15 -189 -15 -200 -1 -18 -2 -18 -10
-4 -16 27 -30 230 -30 427 0 100 2 182 5 182 3 0 19 -21 35 -47z m-1017 -245
c19 -54 33 -98 30 -98 -9 0 -72 147 -87 206 -9 34 -16 81 -15 105 1 40 2 36
19 -36 10 -44 34 -124 53 -177z m1184 61 c19 -37 24 -71 33 -223 20 -357 57
-482 220 -736 15 -25 31 -56 35 -70 7 -25 7 -25 -25 5 -82 77 -177 244 -228
405 -51 160 -71 288 -97 609 l-7 85 24 -15 c12 -9 33 -35 45 -60z m135 -66
c16 -10 39 -34 51 -53 20 -33 22 -52 28 -280 4 -135 9 -285 13 -335 l6 -90
-26 54 c-77 158 -123 356 -131 569 -5 140 -5 152 12 152 9 0 30 -8 47 -17z
m-186 -381 c20 -117 34 -216 30 -219 -13 -13 -61 13 -75 42 -8 16 -16 75 -19
140 -6 131 6 301 19 270 4 -11 25 -116 45 -233z m411 -5 c108 -166 142 -196
331 -291 61 -31 112 -60 112 -64 -1 -4 -23 -17 -50 -30 -59 -28 -120 -85 -144
-136 -27 -56 -11 -56 39 1 40 46 129 114 168 129 22 8 37 -74 37 -198 l0 -102
-51 -48 c-68 -63 -210 -134 -313 -154 -72 -15 -95 -15 -280 0 -215 17 -191 11
-346 92 -40 21 -65 27 -118 27 -141 1 -259 -49 -349 -147 l-55 -61 36 65 c53
98 81 128 128 140 79 22 121 59 238 210 l26 33 44 -61 c62 -85 118 -105 139
-50 10 29 -4 100 -31 154 -12 24 -18 47 -14 51 3 4 37 -23 74 -59 99 -97 130
-107 151 -46 l10 29 75 -89 c116 -140 192 -192 291 -200 40 -3 55 0 70 14 20
20 25 17 -67 38 -94 21 -186 199 -228 442 -11 63 -22 188 -25 295 l-7 184 23
-35 c12 -19 50 -79 86 -133z m-1315 -106 c55 -35 106 -85 148 -146 l31 -46
-68 -31 c-226 -103 -278 -126 -281 -123 -2 1 6 18 18 36 32 52 70 184 77 265
4 46 10 74 18 74 6 0 32 -13 57 -29z m635 -153 c18 -13 33 -26 33 -29 0 -4
-15 -14 -34 -23 -51 -24 -166 -21 -166 5 0 9 107 68 124 69 6 0 25 -10 43 -22z
m358 -124 c89 -187 87 -202 -15 -107 -54 50 -60 59 -55 85 4 16 2 28 -4 28 -5
0 -46 -16 -90 -35 -91 -40 -115 -43 -156 -15 -16 11 -45 30 -63 41 -18 12 -31
23 -28 26 12 12 295 112 319 112 25 1 32 -8 92 -135z m-512 2 c176 -77 197
-89 197 -119 0 -12 -32 -61 -73 -112 l-73 -90 -225 -82 c-123 -46 -228 -83
-234 -83 -5 0 -4 5 3 12 20 20 14 40 -10 36 -17 -2 -32 -22 -60 -78 -51 -101
-68 -175 -68 -292 0 -115 26 -223 146 -613 150 -489 199 -692 230 -965 23
-207 9 -384 -47 -588 -11 -41 -18 -76 -15 -79 8 -9 46 59 61 112 29 99 55 287
55 398 0 141 -14 230 -97 600 -36 163 -64 300 -61 302 8 8 200 -56 261 -86 70
-36 136 -93 153 -135 11 -26 9 -46 -12 -145 -69 -314 -76 -366 -69 -505 l7
-132 -51 -178 c-28 -99 -66 -239 -86 -313 -56 -213 -128 -325 -225 -351 -48
-13 -91 -6 -137 21 -140 86 -396 543 -474 849 -43 171 -106 659 -130 1005 -10
149 1 486 32 959 16 250 59 393 135 451 43 33 570 246 590 238 8 -3 14 -19 14
-38 0 -52 17 -51 44 4 24 46 36 58 61 60 6 1 77 -28 158 -63z m2083 7 c-23
-140 -10 -473 20 -521 21 -32 34 -18 34 35 l0 47 28 -26 c66 -62 184 -123 347
-178 49 -16 81 -33 83 -42 6 -31 -47 -69 -233 -164 -194 -99 -250 -132 -241
-141 3 -3 102 36 221 87 119 50 219 89 222 87 13 -13 -11 -69 -35 -84 -43 -26
-52 -44 -52 -94 0 -27 -5 -59 -11 -72 -11 -24 -23 -32 -82 -56 -29 -11 -67
-64 -67 -93 0 -9 -16 -30 -37 -45 -33 -25 -43 -28 -104 -25 -66 3 -70 1 -107
-33 -22 -19 -49 -35 -62 -35 -12 0 -50 16 -84 35 -39 22 -76 35 -98 35 -24 0
-53 -11 -88 -35 -78 -52 -107 -49 -175 21 -60 62 -50 60 -188 38 -45 -7 -58 2
-93 65 -28 53 -67 81 -112 81 -22 0 -39 10 -65 39 -37 41 -67 91 -67 112 0 6
-16 29 -35 50 -19 21 -37 50 -41 64 -7 29 3 92 16 100 5 3 84 -24 176 -60 91
-37 169 -64 172 -60 9 9 -45 50 -108 81 -30 15 -100 42 -155 59 -110 34 -125
48 -125 117 l0 36 83 28 c78 25 165 66 251 116 28 17 40 20 43 11 16 -46 53
46 60 149 4 50 0 108 -12 173 -9 53 -15 98 -13 101 3 2 18 0 34 -5 224 -71
279 -83 354 -78 62 4 97 14 205 60 72 30 134 55 139 56 5 0 6 -16 2 -36z
m-1711 -150 c10 -32 19 -73 22 -92 5 -28 3 -33 -13 -29 -18 3 -134 133 -134
149 0 9 54 27 87 28 18 1 24 -9 38 -56z m-566 -387 c-58 -110 -91 -200 -114
-311 -9 -44 -18 -81 -21 -84 -2 -2 -4 61 -4 141 0 117 -3 148 -15 158 -19 16
-16 28 -66 -230 -41 -204 -43 -213 -56 -182 -23 56 -45 214 -40 278 7 75 44
188 68 210 18 16 261 113 286 114 6 0 -11 -42 -38 -94z m502 60 c72 -29 119
-63 119 -85 0 -9 -11 -32 -24 -49 -13 -18 -31 -58 -40 -90 -15 -55 -31 -83
-112 -197 -33 -47 -35 -53 -29 -105 13 -112 9 -146 -21 -206 -32 -63 -36 -119
-11 -157 14 -22 14 -26 -6 -46 -14 -13 -23 -36 -24 -59 -1 -20 -10 -62 -21
-92 -15 -43 -25 -57 -51 -67 -40 -17 -76 -3 -154 61 -62 51 -91 57 -139 29
-29 -18 -30 -17 -75 8 -75 41 -86 71 -79 214 9 198 63 393 162 586 105 206
200 278 369 278 61 0 93 -5 136 -23z m541 -105 c3 -3 8 -94 10 -201 3 -192 3
-196 32 -255 35 -71 193 -231 300 -302 87 -59 154 -83 337 -122 337 -71 566
-58 775 44 74 36 102 57 160 117 122 130 183 267 219 491 l18 107 168 0 167 0
6 -92 c18 -281 26 -529 17 -545 -6 -12 -58 -34 -143 -62 -356 -116 -1015 -373
-1268 -495 -105 -51 -122 -49 -223 28 -139 107 -233 164 -412 251 -184 91
-338 149 -565 215 -80 24 -147 44 -149 46 -18 16 207 759 237 782 13 10 49 12
162 6 80 -3 148 -9 152 -13z m-392 -60 c0 -29 -154 -421 -166 -421 -18 0 -44
40 -44 68 0 42 27 89 69 118 28 20 40 35 37 47 -2 10 7 31 21 48 17 20 27 44
28 70 1 22 10 48 20 59 19 21 35 26 35 11z m469 -102 c1 -9 -8 -27 -19 -40
l-19 -24 0 85 0 85 19 -45 c10 -25 19 -52 19 -61z m-3274 57 c16 -9 -9 -12
-120 -17 -77 -4 -194 -17 -260 -29 -117 -22 -306 -38 -294 -26 7 7 350 71 459
85 75 10 186 4 215 -13z m5012 -28 c-3 -13 -13 -58 -23 -101 -10 -43 -22 -76
-28 -74 -18 6 -19 38 -1 57 14 15 16 29 11 63 -5 34 -3 48 9 61 23 23 38 20
32 -6z m898 -7 c97 -43 194 -181 246 -351 34 -107 33 -291 0 -445 -27 -125
-38 -148 -83 -171 -28 -14 -41 -15 -94 -5 -90 16 -105 14 -200 -25 -47 -19
-107 -38 -134 -41 -46 -5 -49 -4 -64 25 -20 38 -7 122 30 196 34 71 32 122
-11 217 l-36 78 23 75 c20 68 21 81 10 124 -7 26 -27 65 -45 87 -30 37 -32 47
-38 135 -3 52 -9 103 -14 114 -8 18 -1 18 176 14 163 -4 190 -7 234 -27z
m-4624 -116 c-8 -65 -19 -97 -65 -185 -64 -123 -98 -234 -121 -387 -9 -59 -18
-109 -20 -111 -2 -2 -9 23 -15 55 -8 37 -11 99 -7 173 11 214 84 422 194 550
l38 44 3 -30 c2 -17 -1 -66 -7 -109z m4174 105 c19 -37 19 -53 -1 -92 -21 -41
-32 -27 -40 55 -6 58 -5 67 9 67 9 0 23 -13 32 -30z m-2192 -159 c4 -18 18
-36 41 -50 43 -27 49 -42 40 -108 l-6 -53 30 0 c30 0 42 -14 42 -51 0 -22 6
-23 49 -8 39 14 76 5 107 -26 19 -19 24 -34 24 -76 l0 -52 35 6 c28 5 37 2 45
-14 15 -26 27 -24 68 12 29 26 41 30 70 25 43 -6 69 -29 77 -66 9 -42 28 -54
65 -42 23 9 33 8 45 -4 8 -9 15 -21 15 -28 0 -10 -27 -7 -112 11 -240 50 -319
86 -465 214 -121 105 -180 197 -196 302 -7 45 17 53 26 8z m-1276 -130 c-3
-36 -11 -84 -18 -106 l-12 -40 -9 40 c-10 40 -3 199 9 218 3 5 13 -3 21 -18
10 -21 13 -47 9 -94z m2963 89 c0 -6 -15 -48 -33 -95 -84 -209 -205 -334 -382
-392 -72 -23 -98 -26 -270 -30 -106 -2 -196 0 -203 5 -12 8 -11 15 2 40 24 46
63 72 109 72 35 0 46 -6 83 -47 42 -45 44 -46 63 -29 18 16 21 16 50 1 34 -17
30 -21 56 53 2 7 16 17 30 24 21 9 34 8 78 -10 66 -28 71 -27 85 2 8 19 20 25
49 28 l38 3 -3 67 c-4 60 -2 67 18 78 13 7 38 10 61 6 38 -6 38 -6 41 31 2 30
8 38 28 43 28 7 27 5 16 73 -11 63 2 78 72 86 6 0 12 -4 12 -9z m510 -5 c0 -8
-4 -15 -10 -15 -5 0 -7 7 -4 15 4 8 8 15 10 15 2 0 4 -7 4 -15z m65 -75 c10
-12 17 -37 18 -66 0 -43 -3 -51 -38 -81 -21 -18 -42 -33 -47 -33 -4 0 -8 46
-8 103 l0 104 29 -5 c17 -2 37 -12 46 -22z m-4255 -19 c0 -19 -39 -75 -47 -67
-5 5 35 86 42 86 3 0 5 -8 5 -19z m1366 -108 c-7 -22 -46 -200 -46 -210 -1 -5
-10 3 -20 16 -29 34 -25 74 11 115 22 25 29 41 24 56 -8 24 1 40 21 40 10 0
13 -6 10 -17z m2868 -99 c23 -9 20 -21 -6 -28 -23 -6 -23 -7 8 -34 65 -56 90
-131 63 -185 -6 -12 -28 -36 -48 -54 l-36 -31 23 -24 c26 -28 28 -50 7 -68
-20 -16 -19 -28 5 -75 32 -63 22 -112 -34 -164 l-26 -24 0 346 c0 367 -1 358
44 341z m-4664 -88 c0 -13 -152 -57 -186 -54 -35 3 -28 6 61 30 102 27 125 31
125 24z m1890 -97 c122 -33 393 -145 571 -235 168 -85 259 -140 404 -244 86
-63 143 -84 196 -74 19 4 167 58 329 119 594 227 1148 435 1159 435 7 0 11
-23 11 -60 0 -51 -3 -62 -23 -74 -12 -9 -119 -43 -237 -76 -520 -148 -764
-247 -1020 -414 -52 -34 -122 -87 -155 -117 -33 -31 -71 -63 -85 -72 -50 -34
-65 -26 -224 131 -83 82 -182 173 -221 203 -189 150 -409 283 -653 394 -111
51 -152 75 -152 88 0 22 9 21 100 -4z m-8 -94 c297 -125 624 -356 985 -697
124 -117 142 -116 282 14 218 204 632 397 1151 537 189 51 250 64 257 58 7 -7
-14 -632 -28 -807 -13 -174 -42 -354 -81 -505 -33 -129 -71 -216 -123 -280
-17 -22 -37 -51 -44 -64 -13 -23 -12 -23 28 -16 45 7 45 7 34 -59 l-6 -38 -76
6 c-42 3 -200 10 -351 16 -709 26 -792 32 -1150 86 -423 64 -551 94 -603 142
-25 23 -38 27 -135 32 -59 4 -117 12 -129 18 -43 24 -190 295 -239 442 -25 76
-28 99 -27 210 0 113 7 157 67 455 36 181 69 354 72 385 7 76 13 100 23 100 5
0 47 -16 93 -35z m-166 -42 c-3 -21 -6 -49 -6 -63 l-1 -25 -19 24 c-24 28 -25
49 -4 79 24 34 38 27 30 -15z m-330 -38 c11 -27 20 -35 39 -35 14 0 25 -5 25
-11 0 -6 -7 -8 -16 -5 -9 4 -48 14 -87 22 l-71 17 28 23 c39 34 64 31 82 -11z
m262 -124 l3 -43 -31 22 c-17 12 -34 29 -37 37 -7 18 15 34 42 31 16 -2 21
-12 23 -47z m3412 -25 c15 -19 34 -20 60 -4 16 10 24 10 41 0 17 -11 25 -10
55 9 19 12 37 19 39 17 3 -2 2 -21 -2 -42 -6 -36 -7 -38 -37 -32 -128 26 -228
12 -382 -54 -53 -23 -98 -39 -100 -37 -6 6 16 76 27 83 5 3 21 -1 34 -10 33
-22 52 -20 60 5 5 16 12 19 35 14 23 -5 32 -2 45 19 9 14 31 34 48 45 32 20
51 17 77 -13z m172 -124 c34 -35 -234 -1886 -307 -2117 -47 -148 -92 -201
-168 -198 -153 5 -519 45 -720 79 -251 42 -396 77 -832 202 -115 33 -295 83
-400 111 -104 27 -287 75 -405 107 -164 43 -237 57 -310 61 -92 5 -100 3 -219
-37 -122 -42 -126 -42 -205 -34 -174 18 -363 6 -352 -23 4 -10 1 -13 -11 -11
-17 3 -95 110 -112 153 -13 31 -3 43 52 61 88 29 134 86 193 239 42 107 55
131 75 136 40 11 357 10 454 -2 50 -6 140 -24 200 -40 61 -16 171 -45 245 -65
300 -78 525 -105 1150 -134 769 -36 777 -36 933 -77 75 -20 140 -33 144 -29
16 16 -18 43 -86 67 -79 27 -94 41 -86 79 3 14 41 275 85 580 44 305 88 581
97 613 39 140 143 243 285 282 67 18 281 16 300 -3z m-5328 -174 c25 -38 57
-130 54 -152 -2 -15 -18 6 -55 73 -29 52 -53 95 -53 97 0 14 42 0 54 -18z
m-39 -78 c25 -49 44 -90 41 -90 -2 0 -32 34 -67 77 -34 42 -65 71 -66 66 -2
-6 21 -50 52 -97 31 -48 55 -92 52 -99 -2 -6 -39 26 -82 72 -44 45 -81 78 -83
72 -5 -15 32 -66 91 -128 28 -29 48 -56 44 -60 -4 -3 -55 26 -113 65 -58 40
-110 72 -115 72 -17 0 -9 -13 29 -47 36 -34 36 -34 4 -13 -48 32 -52 16 -6
-31 l39 -41 -53 26 c-29 15 -55 33 -58 41 -9 22 25 82 68 121 42 37 130 84
160 84 12 0 32 -28 63 -90z m66 -185 c-17 -20 -31 -43 -31 -52 0 -18 10 -11
83 56 l38 36 24 -30 c29 -36 61 -93 55 -97 -3 -2 -33 -23 -68 -47 l-62 -43
-60 52 c-33 29 -60 55 -60 60 0 9 96 100 106 100 3 0 -8 -16 -25 -35z m241
-157 c98 -105 648 -788 648 -805 0 -7 -10 -13 -23 -13 -16 0 -128 104 -410
383 -213 210 -387 386 -387 391 0 9 41 44 74 63 36 21 66 15 98 -19z m1479
-315 c58 -130 75 -241 41 -283 -13 -16 -35 -24 -95 -32 -43 -5 -81 -8 -83 -5
-8 7 89 387 98 387 4 0 22 -30 39 -67z m4884 -152 c-3 -5 -64 -51 -135 -102
-119 -84 -146 -109 -121 -109 5 0 56 31 113 68 137 90 133 88 123 71 -5 -8
-36 -49 -69 -92 -32 -42 -56 -80 -52 -85 4 -4 13 0 19 9 27 36 140 169 143
169 8 0 -71 -148 -109 -205 -51 -76 -154 -178 -206 -205 -84 -42 -161 -14
-161 59 0 53 52 154 112 218 64 67 175 144 266 183 72 31 86 35 77 21z m-2106
-332 c-6 -63 -13 -116 -14 -118 -2 -1 -9 0 -16 4 -17 11 -7 162 15 203 10 19
19 32 22 30 2 -3 -1 -56 -7 -119z m-3546 -76 c9 -9 17 -19 17 -23 0 -3 -26
-14 -57 -24 -78 -25 -126 -49 -203 -106 -74 -54 -115 -70 -177 -70 -48 0 -118
24 -109 38 6 10 216 137 272 166 40 20 181 46 214 39 14 -2 33 -12 43 -20z
m5177 -60 c20 -26 20 -27 3 -43 -170 -158 -163 -153 -184 -134 -10 9 -19 24
-19 31 0 14 158 172 172 173 4 0 16 -12 28 -27z m-5083 -57 c27 -25 76 -57
108 -73 51 -25 60 -34 76 -75 10 -26 15 -49 11 -51 -4 -3 -41 -12 -83 -22 -86
-19 -111 -38 -127 -98 -21 -75 -97 -178 -121 -162 -17 10 -14 216 4 241 8 12
48 43 90 70 41 26 75 52 75 56 0 18 -46 6 -110 -28 -85 -44 -101 -62 -107
-117 -5 -38 -8 -44 -25 -39 -31 8 -46 42 -53 119 -7 65 -6 72 13 82 11 6 56
11 99 11 90 0 124 13 80 29 -40 15 -115 14 -173 -4 -27 -8 -50 -15 -51 -15
-10 0 0 40 12 50 18 15 182 69 211 70 12 0 44 -20 71 -44z m4881 -163 c-4 -20
-1180 -1153 -1189 -1147 -5 3 -9 17 -9 32 0 22 103 129 578 602 l577 575 23
-25 c12 -14 21 -31 20 -37z m-3458 -117 c428 -107 683 -175 980 -261 224 -65
435 -119 550 -140 77 -14 546 -75 578 -75 21 0 4 -19 -37 -39 -70 -36 -999
-291 -1086 -298 -45 -4 -105 4 -237 31 -321 65 -1023 214 -1063 225 -60 16
-105 48 -120 84 -7 17 -25 127 -39 242 -15 116 -29 217 -31 225 -13 46 58 72
185 67 73 -3 147 -17 320 -61z m-895 -276 c195 -196 303 -310 291 -310 -19 0
-29 9 -401 365 -132 127 -241 236 -243 243 -2 7 6 12 20 12 17 0 104 -81 333
-310z m4609 287 c17 -12 10 -21 -80 -105 -53 -51 -95 -94 -92 -97 3 -3 54 36
113 86 l108 92 22 -27 c31 -39 45 -92 45 -169 0 -80 -11 -113 -42 -120 -51
-12 -218 -20 -218 -9 0 10 17 14 148 33 111 15 108 33 -5 26 l-88 -6 78 26
c115 40 99 57 -20 22 -54 -15 -99 -27 -101 -25 -2 2 40 30 92 62 88 54 111 74
87 74 -5 0 -56 -27 -112 -60 -56 -32 -106 -57 -111 -54 -4 3 -8 18 -8 33 0 40
132 231 160 231 3 0 14 -6 24 -13z m-193 -306 c6 -29 3 -34 -30 -55 -20 -13
-51 -30 -68 -40 -32 -16 -33 -16 -39 8 -3 14 -3 30 1 36 11 18 109 89 120 86
5 -1 12 -17 16 -35z m-176 -101 c3 -10 1 -28 -4 -39 -6 -10 -84 -64 -173 -119
-90 -54 -304 -186 -477 -292 -337 -206 -377 -228 -388 -216 -9 9 67 80 137
129 67 47 884 557 892 557 4 0 9 -9 13 -20z m-3630 -214 c115 -35 505 -124
870 -198 173 -35 218 -41 330 -41 151 0 202 9 425 68 242 65 678 171 733 178
l47 7 0 -59 c0 -45 -4 -62 -20 -76 -19 -17 -24 -17 -111 1 -21 5 -31 0 -48
-24 -34 -48 -85 -59 -163 -36 -15 4 -15 1 -1 -44 14 -42 14 -53 2 -78 -22 -45
-72 -66 -150 -62 -60 3 -75 9 -150 55 l-84 51 -42 -45 c-42 -45 -42 -45 -95
-39 -61 7 -64 6 -101 -51 -15 -23 -41 -50 -59 -59 -64 -33 -178 4 -254 83 -23
24 -46 43 -51 43 -4 0 -19 -9 -33 -20 -15 -12 -41 -20 -64 -20 -33 0 -45 6
-76 40 l-36 40 -32 -45 c-39 -55 -71 -76 -126 -82 -65 -8 -128 24 -165 82 -17
26 -33 60 -36 75 -10 47 -29 56 -75 35 -50 -22 -79 -14 -108 30 -12 19 -26 35
-30 34 -4 0 -20 -21 -37 -47 -48 -75 -105 -81 -169 -17 -22 22 -40 54 -50 89
l-16 56 -44 -22 c-79 -38 -126 1 -126 103 0 33 3 40 16 35 9 -3 67 -21 129
-40z m0 -172 c9 -4 25 -24 36 -45 26 -53 90 -94 145 -94 33 0 51 7 84 34 41
33 43 34 70 17 16 -9 39 -16 52 -16 43 -1 78 -25 111 -75 19 -29 52 -62 81
-80 43 -26 59 -30 120 -30 60 0 79 4 118 28 26 15 51 35 56 44 9 15 13 15 47
-2 29 -13 53 -16 99 -12 58 5 63 4 131 -38 89 -56 135 -75 180 -75 54 0 98 23
140 73 32 39 43 45 86 50 27 3 71 18 97 33 l48 27 106 -42 c116 -45 169 -51
223 -25 40 19 62 49 84 118 14 46 19 51 51 56 40 7 71 22 89 44 11 13 18 12
55 -5 28 -12 55 -17 74 -13 29 6 30 5 55 -70 l25 -75 -51 -83 c-48 -76 -60
-88 -167 -161 -63 -43 -127 -85 -142 -93 -27 -14 -28 -14 -54 38 -36 73 -52
88 -89 88 -35 0 -78 -39 -123 -111 -19 -31 -29 -38 -63 -41 -23 -2 -57 2 -78
10 -86 31 -91 32 -112 11 -10 -10 -19 -30 -19 -43 0 -42 -17 -46 -125 -32
-105 14 -149 28 -750 241 -356 126 -654 221 -722 230 -96 12 -93 10 -93 64 0
26 3 51 7 54 8 9 96 9 118 1z m50 -169 c55 -13 242 -74 415 -135 885 -314 865
-307 1021 -325 34 -4 63 -13 72 -23 17 -19 49 -104 41 -111 -8 -9 -187 39
-279 75 -436 170 -1340 483 -1442 499 -44 7 -53 21 -30 44 14 15 59 10 202
-24z m2440 -136 c15 -48 -4 -87 -68 -141 -154 -128 -332 -199 -332 -133 0 20
19 34 161 120 37 22 100 70 141 108 41 37 79 67 83 67 5 0 12 -9 15 -21z m236
-54 c97 -33 301 -135 364 -183 27 -20 63 -59 80 -86 25 -42 31 -62 33 -126 3
-65 0 -87 -23 -146 -43 -108 -112 -241 -129 -247 -27 -11 -105 24 -149 66 -45
44 -61 78 -129 277 -50 146 -54 180 -34 268 18 80 20 112 7 112 -5 0 -17 -34
-26 -76 -9 -42 -20 -72 -24 -68 -6 8 -78 169 -97 217 -9 25 38 22 127 -8z
m-738 -75 c8 -11 27 -58 43 -105 27 -79 27 -86 12 -101 -15 -15 -22 -15 -90 1
-97 24 -108 30 -108 65 0 42 15 74 56 119 40 45 66 51 87 21z m-295 -129 c36
-19 52 -52 52 -106 -1 -54 -14 -132 -24 -142 -11 -11 -62 46 -90 101 -31 62
-46 154 -26 166 13 8 53 0 88 -19z"/>
<path d="M4780 9128 c-33 -18 -112 -88 -196 -172 -203 -204 -302 -361 -386
-610 -34 -98 -42 -138 -45 -211 l-3 -90 35 115 c120 384 318 692 595 924 96
80 96 99 0 44z"/>
<path d="M5389 9027 c-224 -92 -550 -441 -715 -765 -38 -73 -95 -226 -94 -250
0 -4 36 65 79 153 125 256 234 408 422 590 110 106 218 192 318 251 86 51 83
59 -10 21z"/>
<path d="M2404 7942 c-24 -15 -34 -33 -47 -78 -28 -101 -31 -156 -12 -220 39
-135 85 -177 167 -152 94 28 201 170 214 284 9 72 -4 89 -100 135 -103 50
-176 60 -222 31z m168 -43 c105 -41 132 -67 125 -119 -13 -97 -108 -230 -175
-245 -41 -9 -93 16 -117 58 -15 25 -20 56 -23 140 -5 116 5 157 42 182 30 22
57 19 148 -16z"/>
<path d="M2128 7331 c-14 -11 -43 -63 -67 -120 -24 -56 -44 -101 -46 -101 -1
0 -25 38 -54 85 -62 101 -85 120 -142 112 -76 -10 -126 -76 -210 -274 -57
-135 -73 -163 -95 -163 -19 0 -46 60 -75 170 -36 136 -62 159 -136 121 -53
-27 -144 -146 -183 -241 -84 -204 -114 -364 -107 -575 5 -171 22 -236 85 -327
50 -72 112 -104 172 -88 82 22 126 82 394 535 105 179 110 180 190 66 31 -44
71 -90 87 -102 82 -58 200 -20 314 103 118 128 170 272 163 458 -5 135 -33
203 -118 285 -82 77 -126 92 -172 56z m80 -35 c42 -22 120 -110 144 -163 30
-67 36 -223 13 -313 -63 -242 -267 -431 -394 -365 -16 8 -53 49 -83 92 -94
134 -131 136 -212 10 -29 -45 -99 -164 -155 -263 -150 -264 -210 -334 -290
-334 -28 0 -43 9 -76 43 -83 87 -117 201 -116 389 1 284 66 492 209 668 101
126 124 120 162 -45 35 -148 73 -204 127 -184 24 9 60 74 134 242 51 117 115
197 158 197 32 0 60 -27 89 -86 12 -22 37 -55 57 -73 53 -46 77 -28 130 100
27 64 51 99 67 99 5 0 21 -6 36 -14z"/>
<path d="M2053 5726 c-88 -28 -161 -93 -208 -187 -54 -106 -25 -215 78 -285
90 -62 259 -72 369 -22 157 72 241 249 173 364 -33 56 -86 87 -205 119 -105
28 -145 30 -207 11z m267 -63 l45 -22 -80 6 c-146 10 -272 -30 -357 -115 -48
-47 -62 -48 -31 -2 45 69 105 116 184 144 62 22 180 17 239 -11z m10 -64 c107
-29 120 -40 120 -95 0 -238 -364 -365 -547 -191 -44 41 -43 77 2 144 36 54 75
88 135 119 95 48 176 55 290 23z"/>
<path d="M6296 7722 c-5 -8 -51 -12 -154 -12 -148 0 -192 -5 -192 -21 0 -5 61
-9 135 -9 74 0 135 -4 135 -8 0 -4 -38 -13 -84 -19 -95 -13 -159 -38 -217 -84
-34 -26 -79 -89 -65 -89 2 0 43 22 90 50 47 27 86 45 86 39 0 -5 -17 -45 -37
-87 -35 -71 -38 -84 -38 -162 0 -97 20 -146 79 -197 46 -42 96 -56 172 -51 84
5 137 41 175 118 37 75 44 131 24 215 -8 37 -14 70 -11 72 9 9 50 -44 73 -95
34 -72 40 -125 19 -157 -19 -29 -16 -30 23 -10 86 44 107 140 51 228 -16 26
-30 51 -30 56 0 4 11 18 25 31 32 30 34 55 3 46 -13 -4 -40 -10 -60 -13 -44
-7 -47 1 -18 57 27 53 25 65 -6 41 -15 -12 -35 -21 -45 -21 -26 0 -106 51
-117 74 -6 14 -11 16 -16 8z m8 -227 c47 -44 26 -114 -39 -131 -31 -8 -72 17
-85 52 -30 79 61 138 124 79z m-168 -36 c10 -16 -18 -40 -35 -29 -12 7 -12 11
-2 24 16 19 27 20 37 5z m-33 -59 c7 0 35 -14 62 -31 36 -23 60 -31 94 -31 63
1 91 -19 91 -64 0 -30 -3 -35 -17 -29 -42 16 -133 27 -175 21 -26 -4 -67 -18
-93 -30 l-46 -24 -11 27 c-11 29 -5 109 13 159 11 31 11 31 39 17 16 -8 35
-15 43 -15z m195 -185 c17 -8 32 -18 32 -23 0 -20 -46 -66 -84 -83 -69 -31
-141 -20 -193 30 -27 25 -22 41 16 64 63 37 155 42 229 12z"/>
<path d="M5860 7327 c0 -25 32 -107 41 -107 10 0 3 38 -18 88 -14 34 -23 41
-23 19z"/>
<path d="M5500 6851 c0 -14 29 -41 44 -41 7 0 21 7 32 15 18 14 18 14 -9 15
-16 0 -37 5 -48 10 -12 7 -19 7 -19 1z"/>
<path d="M6150 6825 c-100 -20 -232 -76 -217 -91 3 -3 92 16 198 42 138 33
188 49 174 55 -29 11 -80 9 -155 -6z"/>
<path d="M6245 6700 c-54 -11 -125 -43 -152 -69 -13 -12 -23 -24 -23 -26 0 -2
61 17 135 43 74 26 135 50 135 55 0 9 -42 8 -95 -3z"/>
<path d="M5665 6603 c-60 -7 -159 -12 -218 -10 -81 3 -104 1 -90 -7 28 -17
396 -14 456 3 111 32 43 39 -148 14z"/>
<path d="M7336 786 c-39 -125 -42 -140 -23 -134 14 5 89 227 81 240 -13 21
-26 0 -58 -106z"/>
<path d="M7502 828 c-7 -8 -28 -64 -46 -124 -61 -193 -66 -216 -53 -212 15 5
119 305 115 332 -3 17 -4 17 -16 4z"/>
<path d="M7543 7408 c-40 -20 -25 -28 54 -28 70 0 76 1 62 16 -21 20 -87 27
-116 12z"/>
<path d="M7480 7245 c0 -21 43 -46 90 -52 54 -8 55 19 0 47 -47 24 -90 26 -90
5z"/>
<path d="M7440 7077 c0 -21 44 -57 68 -57 30 0 28 24 -4 49 -30 24 -64 28 -64
8z"/>
<path d="M9254 7060 c-30 -12 -38 -27 -44 -84 l-5 -49 -60 -19 c-187 -59 -422
-128 -440 -128 -11 0 -103 36 -203 79 -101 44 -190 77 -197 75 -8 -3 -18 -18
-23 -32 -6 -15 -64 -151 -130 -302 -400 -920 -404 -932 -390 -945 7 -8 279
-127 603 -265 325 -139 673 -288 775 -331 105 -45 196 -78 210 -77 23 3 43 47
272 618 137 337 248 624 248 636 0 18 -20 30 -117 74 -65 29 -145 65 -178 80
-33 15 -70 38 -82 51 -12 13 -60 119 -107 234 l-85 210 34 32 c50 46 44 117
-12 142 -28 13 -40 13 -69 1z m61 -36 c24 -24 16 -78 -12 -82 -56 -8 -86 51
-41 82 28 20 33 20 53 0z m27 -344 c48 -118 85 -216 83 -218 -3 -3 -64 21
-137 53 -386 168 -518 228 -513 234 9 9 458 149 470 147 6 -2 49 -99 97 -216z
m-257 -120 c407 -177 742 -324 744 -326 3 -3 -54 -152 -127 -332 -374 -932
-354 -884 -373 -879 -39 10 -1529 651 -1529 658 0 4 90 215 201 470 207 478
281 650 306 707 8 19 19 32 26 29 7 -3 345 -150 752 -327z"/>
<path d="M8345 6755 c-29 -28 -31 -51 -9 -83 19 -28 67 -29 94 -2 22 22 27 79
8 98 -20 20 -67 14 -93 -13z"/>
<path d="M8654 6334 c-34 -7 -87 -25 -118 -40 -71 -35 -249 -176 -300 -238
-57 -70 -106 -156 -106 -187 0 -90 408 -294 809 -405 156 -43 184 -43 221 -4
57 61 107 239 94 332 -11 77 -33 134 -57 145 -32 15 -62 0 -178 -84 -122 -88
-154 -102 -177 -79 -14 14 -16 44 -17 214 -1 181 -3 202 -24 257 -39 100 -53
109 -147 89z m67 -34 c34 -18 62 -89 63 -157 1 -55 -2 -66 -26 -90 l-27 -27
-9 25 c-44 113 -54 120 -106 64 -48 -51 -72 -47 -101 18 -35 73 -32 92 13 121
75 47 155 66 193 46z m-246 -173 c19 -39 40 -68 58 -77 25 -14 31 -13 77 11
l50 27 19 -44 c19 -42 22 -44 60 -44 l41 0 0 -109 c0 -94 3 -112 21 -135 40
-51 94 -32 273 97 43 31 87 57 98 57 54 0 65 -161 19 -293 -42 -123 -57 -147
-88 -147 -42 0 -328 87 -467 142 -70 28 -205 90 -300 137 -155 78 -171 89
-174 114 -4 32 33 100 87 160 38 43 180 167 190 167 3 0 20 -28 36 -63z"/>
<path d="M9685 6220 c-46 -17 -60 -80 -23 -104 42 -26 117 44 87 80 -20 24
-42 32 -64 24z"/>
<path d="M1695 3524 c-82 -20 -337 -147 -465 -231 -354 -234 -625 -538 -685
-768 -50 -196 15 -308 195 -336 88 -14 332 -7 580 16 321 29 446 18 511 -47
51 -52 37 -139 -42 -255 -18 -27 -175 -192 -349 -368 -285 -288 -320 -327
-353 -393 -62 -125 -59 -213 12 -283 48 -49 118 -69 235 -69 177 1 245 22 741
238 455 197 440 191 537 199 126 10 148 -20 148 -195 0 -108 9 -114 52 -36 59
107 73 278 32 398 -25 71 -86 130 -154 146 -66 16 -179 7 -257 -19 -32 -11
-216 -97 -410 -191 -316 -155 -358 -173 -415 -177 -85 -7 -96 5 -68 76 25 64
29 70 166 262 309 433 364 537 364 695 0 135 -52 220 -173 279 -134 65 -310
79 -820 65 -168 -5 -179 -4 -193 14 -21 29 -18 112 6 162 31 63 207 225 385
355 88 64 224 162 302 219 79 56 158 120 178 141 44 49 55 87 30 106 -11 7
-21 13 -24 12 -3 0 -33 -7 -66 -15z m72 -31 c8 -24 -73 -96 -231 -205 -272
-189 -368 -259 -436 -317 -213 -185 -262 -250 -262 -351 0 -130 -2 -130 357
-118 421 13 609 -10 725 -90 104 -71 138 -177 101 -321 -28 -114 -82 -210
-223 -401 -66 -91 -143 -195 -170 -231 -70 -97 -140 -233 -141 -276 -1 -50 29
-73 99 -73 81 0 193 41 369 136 374 201 481 247 613 260 78 9 124 -1 162 -33
63 -52 96 -169 83 -293 l-6 -64 -13 35 c-35 101 -68 129 -156 129 -80 0 -144
-20 -348 -110 -665 -294 -758 -328 -922 -337 -166 -9 -250 27 -277 117 -15 51
4 129 52 205 17 28 139 160 272 295 385 392 412 422 450 502 27 56 35 85 35
128 0 75 -23 110 -97 146 l-58 29 -215 -1 c-134 -1 -306 -9 -455 -23 -132 -12
-262 -19 -290 -16 -201 25 -263 125 -200 322 47 149 133 271 321 453 222 216
531 418 756 495 77 26 99 28 105 8z"/>
<path d="M4205 589 c-33 -41 -129 -146 -215 -234 -167 -173 -320 -339 -320
-349 0 -23 48 20 209 190 101 107 186 192 188 190 3 -2 -54 -88 -126 -190 -72
-103 -131 -188 -131 -191 0 -3 8 -5 18 -5 11 0 83 97 212 286 107 157 203 301
213 321 34 65 11 57 -48 -18z"/>
<path d="M4606 452 c-36 -70 -105 -188 -153 -262 -99 -151 -119 -190 -100
-190 6 1 59 77 117 170 58 93 108 169 112 170 4 0 -2 -24 -13 -52 -11 -29 -38
-98 -59 -153 -21 -55 -41 -108 -45 -117 -5 -14 -2 -18 13 -18 17 0 26 18 55
103 19 56 60 172 90 257 30 86 58 170 62 188 14 65 -15 30 -79 -96z"/>
<path d="M5324 459 c-6 -8 -32 -61 -59 -119 -45 -100 -115 -237 -157 -308 -19
-31 -19 -32 -1 -32 14 0 38 36 92 137 68 128 100 181 87 143 -3 -8 -26 -75
-50 -147 -45 -132 -45 -133 -22 -133 20 0 26 11 54 108 55 186 73 269 70 318
-2 37 -5 44 -14 33z"/>
<path d="M6776 343 c5 -33 65 -275 80 -325 3 -10 15 -18 26 -18 22 0 22 0 -6
93 -8 26 -13 47 -11 47 3 0 21 -31 40 -70 26 -52 40 -70 56 -70 11 0 18 3 16
8 -2 4 -48 89 -101 190 -54 100 -100 182 -102 182 -3 0 -2 -17 2 -37z"/>
</g>
</svg>
