<?xml version="1.0" encoding="utf-8"?>
<!-- Generator: Adobe Illustrator 25.4.0, SVG Export Plug-In . SVG Version: 6.00 Build 0)  -->
<svg version="1.1" baseProfile="tiny" id="图层_1"
	 xmlns="http://www.w3.org/2000/svg" xmlns:xlink="http://www.w3.org/1999/xlink" x="0px" y="0px" viewBox="0 0 768 1024"
	 overflow="visible" xml:space="preserve">
<g>
	<path d="M768,994v3V994L768,994z"/>
	<g id="live172m1">
		<path fill="#F967AA" d="M120.9,303.8c-0.7-1.9-2.5-1.6-4.6-1.6c1.3,1.7,1.8,3.4,3.6,3.6C120.7,305.8,121.1,304.6,120.9,303.8z"/>
		<path fill="#FFFFFF" d="M118.4,561.5c-0.3-1.4-0.3-3.1-2.4-3.3c-7.1-0.6-13.4-3.7-20.4-7.5c1.9,8.8,3.6,16.9,5.3,24.9
			c2,9.4,12.9,17.8,22.5,17.5c2.1-0.1,2.5-0.5,2-2.6C123.1,580.9,120.8,571.2,118.4,561.5z"/>
		<path fill="#F967AA" d="M114.9,604.9c5.6,0.7,9.7-2.3,11.5-8.7c-8.2-0.5-15.6-3-22.3-9C105.2,599,108.5,604.1,114.9,604.9z"/>
		<path fill="#FFFFFF" d="M86.4,462.3c3.8,4.9,8.7,8.8,14.2,11.5c3.2,1.5,4.9,1.6,4.4-2.7c-0.5-4.8-0.9-9.6-1-14.4
			c0.1-2.2-0.9-4.2-2.6-5.6c-5.1-4.3-8.9-10-11-16.3c-1-3.2-3.3-5.6-6.2-8.6v31.3C84.3,459.3,85.1,461,86.4,462.3z"/>
		<path fill="#FEFE9E" d="M53.2,184.1c-5.7,6.3-6.1,20.3-0.4,26.4c14.7,15.8,31.1,29.6,50.6,39.3c27.3,13.6,56.7,19.6,86.8,22
			c5.2,0.4,9.5-2,12.7-5.8c3.8-4.5,4.9-10.1,5.2-15.8c0.3-5,0.3-5-4.7-5.4c-3-0.2-6-0.6-9-0.8c-22.9-1.6-45-6.3-66-15.6
			c-24.4-10.8-45.2-26.7-64.6-44.7C60,180.2,56.6,180.3,53.2,184.1z"/>
		<path fill="#FFFFFF" d="M96,176.6c6.5-1.1,13-2.6,19.4-4.4c5.7-1.6,7.2-6.2,4.2-11.3c-2.7-4.6-9-6.8-14.9-5.5
			c-5.8,1.3-10.6,4.7-15.7,7.5c0.5,1.3-0.6,2.2-1,3.2C85.4,173,88.9,177.8,96,176.6z"/>
		<path fill="#FFFFC0" d="M64.6,175.9c-1.8,2.5-1.5,3.8,0.6,5.7c11.7,10.9,24.2,20.9,37.5,29.8c30.5,20.3,64.4,29.3,100.7,30.6
			c3.2,0.1,4.5-0.7,4.6-4c0.1-4.1,0.5-8.3,0.9-12.8c-0.5-8.6-0.6-17.7-3.5-26.3c-10.8-32.1-33.4-51.6-66.7-56.1
			C108,138.7,83.1,150.9,64.6,175.9z M140.2,154.5c5.8,0.1,10.2,4.2,10.1,9.4c-0.1,5-5,9.2-10.5,9.1c-5-0.1-9.9-5.2-9.7-10.1
			C130.3,158.3,135,154.5,140.2,154.5z M89,163c-0.1,0-0.1,0.1-0.2,0.1c4.5-6.4,17.2-11.1,24.3-8.8c3.2,1,6,3.1,7.7,6
			c3.4,5.7,1.2,11.7-5,13.5c-6.1,1.6-12.3,2.6-18.4,4.3c-4.5,1.2-9.9-0.8-10.9-4C85.2,170.1,85,166,89,163z"/>
		<path fill="#F967AA" d="M88,488.2c4.8,4.3,10.6,7.5,16.8,9.2c2,0.5,2.8,0.4,2.5-1.9c-0.6-4.9-1-9.9-1.4-14.8
			c0-1.2-0.8-2.2-1.9-2.6c-7.2-2.6-13.7-6.9-18.8-12.7c-0.7,7.4,1,13.9,1.2,20.4C86.6,486.8,87.2,487.6,88,488.2z"/>
		<path fill="#F967AA" d="M90.5,354.7c3.7,6.5,8.7,12.3,14.5,17.1c1.7,1.4,2.6,1,2.9-1.1c0.8-5.8,1.5-11.5,2.4-17.3
			c0.2-1.3-0.1-2.7-1-3.7c-5.4-6.8-9.8-14.2-15-21.7c-1.1,6.8-2.3,13.6-3.3,20.4C90.7,350.5,89.3,352.6,90.5,354.7z"/>
		<path fill="#F967AA" d="M97,548.3c4.5,2.9,9.3,5.1,14.4,6.5c5.6,1.5,5.6,1.4,4.5-4.4c-0.5-2.6-0.9-5.2-1.5-7.8
			c-0.3-1.4-0.4-2.8-2.3-3.5c-6.9-2.5-13.2-6.1-20.3-10.6c1.1,6.1,2.1,11.2,2.9,16.2C94.9,546.2,95.8,547.5,97,548.3z"/>
		<path fill="#F967AA" d="M84,417.3c-0.4,4,1.4,6.4,5,9.2c-0.5-6.2,0.7-12.4,3.5-18c0.7-1.4,0-2.1-0.7-3.1c-2-2.4-4-4.8-6.6-8
			C84.8,404.8,84.6,411.1,84,417.3z"/>
		<path fill="#FFFFFF" d="M86.1,384.4c-1.1,6.7,1.4,11.9,5.3,16.9c1.9,2.4,3.3,4,5.7,0.4c1.3-1.8,3.4-3.1,5.4-4.4
			c1.5-0.7,2.4-2.2,2.5-3.8c0.4-4.8,1.1-9.5,1.7-14.3c0.4-1.5-0.2-3-1.4-3.9c-6.2-4.8-11.6-10.7-15.9-17.3
			C88.2,367.7,87.5,376.1,86.1,384.4z"/>
		<path fill="#FFFFFF" d="M96.2,323.2c3.9,8.7,8.9,16.9,14.8,24.4c2.5-11.3,4.6-21.5,6.9-31.6c1.3-6.1-3-13.8-9-15.9
			c-8.3-2.9-8.3-2.9-10.1,5.5c-0.9,4-1.8,8.1-2.6,12.2C95.9,319.5,95.4,321.5,96.2,323.2z"/>
		<path fill="#F2C57A" d="M51.6,212.8c-3.3,31.7,12.2,62.6,44.7,79.3c32,16.5,65,9,93.7-17.7C136.2,270.3,88.5,254.4,51.6,212.8z
			 M162.2,281.4c2.5-0.2,4.9,0.9,4.5,4s-2.5,4.8-6.1,4.9c-2.7,0-4.6-1.5-4.5-4.5C156.2,282.1,159.4,281.6,162.2,281.4z M147.1,284.9
			c3.1-0.1,5.8,0.4,6,4.2c0.2,3.8-5.1,7.6-10.6,7.7c-2.4-0.3-5.1-0.8-5.4-4.2C136.7,288.8,141.6,285.1,147.1,284.9z"/>
		<path fill="#FFFFFF" d="M142.8,295.1c4.1,0.1,9-2.9,8.9-5.7c-0.1-2.5-2-3.2-4.2-3.2c-4.5,0-8.6,2.8-8.7,5.8
			C138.7,295.1,140.8,295,142.8,295.1z"/>
		<path fill="#FFFFFF" d="M160.3,289c0.2,0,0.5,0,0.7-0.1c2.2-0.2,3.8-1.1,4-3.5s-1.5-2.4-2.7-2.4l0,0c-2.6,0-4.6,0.5-4.6,3.1
			C157.6,287.6,158.8,288.9,160.3,289z"/>
		<path fill="#FFFFFF" d="M105.6,500.2c-6.7-1.1-12.3-4.6-18.9-9.2c1.5,11.6,3,22.1,4.3,32.5c0.1,1,0.7,1.9,1.6,2.4
			c5.7,3.8,11.6,7.1,17.8,9.8c2.1,0.9,2.7,0.1,2.4-2c-1.6-10.2-3.2-20.3-4.7-30.5C107.9,501.6,107.4,500.4,105.6,500.2z"/>
	</g>
	<path fill="#FA9DAF" d="M295.8,537.6c0.2,2.1,2.3,2.1,3.9,2.8l0,0c-0.9-1.3-0.4-3.8-2.9-3.6C296.5,536.8,295.8,537.3,295.8,537.6z"
		/>
	<path fill="#FFDCCD" d="M286.8,522c-2.8,0.1-4.7,3.8-4.1,6.5c1.1,5.1,5.1,6.5,9.1,8.1c1.7,0.7,2.9-0.2,4-1.2
		c1.5-1.4-0.1-2.4-0.7-3.3c-1.6-2.7-3.4-5.3-5.2-7.9C289.1,523,288.4,522,286.8,522z"/>
	<path fill="#FA9DAF" d="M274.8,528.9c-1.2,0.6-2.3,1.2-3.5,1.8c3.9-0.5,7.5,1.9,11.5,1.9C280.3,526.3,280.3,526.2,274.8,528.9z"/>
	<path fill="#FFDCCD" d="M320.6,542.2c-1-0.6-2.4-0.4-3.2,0.5c-1,0.9-0.3,1.8,0,2.7c0.6,1.5,1.4,3,2,4.6c3.7,9,4.5,9.3,12.8,4
		c0.8-0.4,1.5-0.7,1.6-1.9c-0.2-0.5-0.6-1-1-1.4C328.8,547.8,324.7,544.9,320.6,542.2z"/>
	<path fill="#FA9DAF" d="M326.2,558.1c-4.3,1.7-3.3,4.9-1.7,6.4c2.7,2.5,6.7,3.5,9,5.6c6-0.3,7.3-2.4,5.3-7.1
		C335.2,554.1,335.4,554.4,326.2,558.1z"/>
	<path fill="#FA9DAF" d="M283,546.1c3.5,3.3,3.5,3.4,8.4,2.2c-5.7-7.9-15.4-14.2-22.4-14.4c3.4,3.9,8.7,5.4,11,10.2
		C281.6,543.9,282.1,545.3,283,546.1z"/>
	<path fill="#FA9DAF" d="M281.8,519.1c-1.8-0.7-3.3-2.2-5.8-1.8c1.1,1.7,2,3.2,3.1,4.5c0.6,0.8,0.8,2.5,2.5,1.6
		c1.1-0.7,2.7-1.2,2.8-2.6C284.4,519.5,282.8,519.5,281.8,519.1z"/>
	<path fill="#95D8EE" d="M294.5,489.1c-8.3-0.1-15,3.1-20.9,9c-4.2,4.2-10.1,6.1-15.8,9.2c5.1,1.8,9.6,3.1,14,4.9
		c2.1,0.9,4.6,0.8,6.6-0.4c5.2-2.4,9.2-6.4,13.6-9.8c-0.1,0-0.1,0.1-0.1,0.1c1.5-4.6,5.6-8.1,6.2-13.5
		C296.8,488.9,295.6,489,294.5,489.1z"/>
	<path fill="#FA9DAF" d="M297.4,532.7c1.8,2.1,3.2-0.4,4.3-1.2c1.7-1.3-0.2-1.8-1-2.2c-2.3-1.5-4.7-2.8-7.1-4.2l0,0l-0.7,0.7
		C294.2,528.2,295.7,530.5,297.4,532.7z"/>
	<path fill="#221456" d="M290.6,458.1L290.6,458.1c-3.2,2-3.9,4.2-2.8,7.4c1.9,5.6,3.6,11.4,5.3,17.1c0.6,2,1,4.5,4.2,3.2
		c2.9-1.2,1.6-3.2,0.8-4.9C294.9,473.6,291.8,466.4,290.6,458.1z"/>
	<path fill="#221456" d="M237.9,489.1c8.2-0.8,16.4-2.5,24.8-2.1c2.8,0,5.7,0,8.5,0c1.3,0,2.8,0.3,2.9-1.8
		c0.2-5.6,0.7-11.3,0.7-16.9c0-3.3-1.8-4.8-5.3-3.8c-2.5,0.7-5.2,1.2-7.8,1.4c-2.4,0.2-3,0.6-2.2,3.2c2,6.8,0.4,9.7-6.3,12.2
		c-5,1.9-10.4,2.2-15.7,2.5c-2.8,0.2-2.6,1.9-2.7,3.7C234.7,490.2,236.6,489.2,237.9,489.1z"/>
	<path fill="#95D8EE" d="M305.5,520.3c-1.9,1.7-3.7,3.4-5.6,5.2c2.6,1.6,5,3.1,7.4,4.6c0.8,0.5,1.7,1.4,2.7,0.6
		c1-0.8,0.4-1.9,0.2-2.8C309.4,524.9,307.5,522.6,305.5,520.3z"/>
	<path fill="#FA9DAF" d="M300.5,551.3c2.4,0.5,5.7,1.9,6.9,0s-2.3-2.9-3.6-4.5c-0.3-0.4-0.6-0.8-0.9-1.2
		c-7.7-7.1-17.1-10.5-27.2-12.4c5.8,3.4,11.8,6.8,15.6,12.5C293.7,549.2,296.7,550.6,300.5,551.3z"/>
	<path fill="#FFDCCD" d="M268.4,527.3c0.1,2,1.6,2.6,2.9,3.5l0,0c0.9-2.4,3-3.2,5.1-4.2c1-0.5,2.7-0.6,2.3-2.6
		c-0.7-3.2-8.4-10.3-11.6-10.8c-2.3-0.3-2.1,0.8-1.5,2.3C267,519.2,268,523.2,268.4,527.3z"/>
	<path fill="#FA9DAF" d="M293.9,558.8c2.9,8.5,2.9,8.6,11.2,5.7c1.4-0.5,4.6-0.1,3.7-2.9c-1-2.8-0.1-6.7-4-7.8
		c-3.5-1-7.1-1.8-10.6-2.6c-2.7-0.8-2.9,0.4-2.1,2.5C292.7,555.4,293.3,557.1,293.9,558.8z"/>
	<path fill="#FFDCCD" d="M307,533c-2.8-2.3-4.5-0.1-6.5,1.2c-2.6,1.8-0.1,3.1,0.6,4.5c0.9,1.8,1.9,3.5,3,5.1c0.5,1.3,2,2,3.3,1.7
		l0,0c1.6-0.8,4.5-1.3,5.9-3s-1.2-3.7-2.1-5.5C310.4,535.2,308.5,534.2,307,533z"/>
	<path fill="#0092D1" d="M197.4,395.2c7.4-2.4,15.1-3.5,22.5-0.9c3.5,1.2,5.4,0.5,8.1-1.7c2.7-2.1,2.2-4.6,2.8-7
		c1.5-5.8,2.7-11.6,3.9-17.5c1-4.7,2.6-9.1,0.7-14.4c-1.2-3.3-2.1-4-5.1-3.8c-16,0.8-32-3-45.9-10.9c-6.9-3.9-7.7-3.4-8.4,4.7
		c-0.1,0.1-0.1,0.3-0.1,1c0.1,0.8,0.3,1.6,0.6,2.4c6.8,14.6,11,30.2,16,45.5C193.4,395.3,194.2,396.3,197.4,395.2z"/>
	<path fill="#FFAFD4" d="M237.8,353.6c0.6,4.2,3.5,6.3,9.5,6.4c0.6-0.1,2.1-0.3,3.5-0.6c9.1-1.9,16.8-7,24.8-11.4
		c23.4-13.1,46.2-27,66.2-45.1c2.8-2.6,5.8-5.1,7.7-8.4c2.4-4.3,0.5-11-3.7-12.9c-1-0.5-3-1.4-2.3,1.2c1.1,3.8-0.9,6.5-2.8,9.1
		c-5.5,8-13,13.9-21.3,18.5c-23.9,13.3-47.5,27.3-74.7,33.4C239.7,344.9,237.1,348.9,237.8,353.6z"/>
	<path fill="#95D8EE" d="M263.5,502.8c5.9-3.5,11.9-6.8,16.9-12.9c-5.1,0.6-9.5-2.1-13.5,0.7c-7.4,5.1-15.3,9.4-23.7,12.8
		C250.5,506.8,257,506.7,263.5,502.8z"/>
	<path fill="#00D5FF" d="M190.4,397.8c1.2-0.5,1.8-1.8,1.4-3c0-0.1-0.1-0.2-0.1-0.3c-5.2-15.2-9.1-30.8-16.5-46.6l0,0
		c-1.3,4.7-2,8.5-3.2,12c-5.7,16.2-8.2,34.3-26.9,42.2C161.2,409.8,176,405.3,190.4,397.8z"/>
	<path fill="#5623A9" d="M247.3,340.3c1.7-0.4,2.9-0.5,4-0.9c26.9-8.6,51.8-21.4,75.2-37c5.4-3.6,10-8.4,13.4-14
		c1.9-3.1,1.7-5.5-1.8-7.4c-6.5-3.4-13-6.8-20-8.7c-18.5-5.1-35-1.9-48.3,12.6c-13.8,15-18.8,34-23.7,53
		C245.8,339.3,245.5,340.9,247.3,340.3z"/>
	<path fill="#34346E" d="M211.4,478.6c-8.8-4.9-9.6-8.8-3.1-17.8c-7,2.7-12.9,4.8-18.7,7.2c-10.9,4.7-13.4,11-8.6,21.8
		c0.8,1.8,1.9,3.5,2.8,5.3c1.2,2.5,2.8,3,5.6,2.5c10.4-2.1,20.9-3.9,31.3-5.6c2.4-0.4,4-0.9,4.2-3.8c0.2-2.6-0.1-4.3-3.1-5.2
		C218.2,481.9,214.7,480.4,211.4,478.6z"/>
	<path fill="#2B1C6E" d="M241.6,391.1c6.5,0.3,13.6-1.7,20.3-4.5c31.8-13.4,61.6-30.6,91.5-47.4c4.8-2.5,8.7-6.3,11.3-11
		c1.7-3.2,3.4-6.8,1.4-10.4c-3.7-7-7.7-14-11.6-20.9c-1.1-2-2.1-2.4-3.4-0.2c-1.7,2.9-4.2,5.1-6.7,7.3c-25.4,22.9-54.7,39.9-85,55.4
		c-5.3,2.7-11.1,4-16.9,2.5c-3.4-0.8-3.9,0.8-4.5,3.1c-1.4,6.1-2.9,12.3-4.2,18.4C232.4,391.3,232.5,391.3,241.6,391.1z"/>
	<path fill="#664E81" d="M138.4,360c-2.3,12.1,3.2,21.5,14.7,26.1c4.2,1.7,6.4,0.8,7.9-3.3c0.9-2.5,2.1-4.9,3.1-7.3
		c7.3-19,11-38.9,15-58.7c2.3-11.4,4.7-22.7,7-34c-1.4-0.2-2.1,0.6-2.8,1.2c-16.8,12.6-35.2,20.7-56.7,19.2
		c-2.1-0.1-2.9,0.6-3.4,2.6c-1.3,6.3-2.7,12.7-4.5,18.9c-0.8,2.7,0.1,3.6,2.4,4.2c4,1.2,7.7,3,11.2,5.3c5.6,3.7,8.8,8.6,7.9,15.5
		C139.6,353.2,139,356.6,138.4,360z"/>
	<path fill="#221456" d="M361.6,408.4c8.7-5.9,17.2-12,23.6-20.5c4.5-6,9.1-11.9,13.9-17.6c1.9-2.3,1.6-3.3-0.8-4.8
		c-8.7-5.4-15.7-13.1-20.1-22.4c-1.8-3.5-2.9-3.1-5.6-1c-19.7,15.5-39.6,30.9-61.4,43.5c-10.6,6.1-21.5,11.9-32.6,18.1
		c6.5,2.2,12.5,4.2,18.6,6.3c6.8,2.4,13.3,5.2,18.5,10.4c5.7,5.7,6,11.3,1.2,17.8c-3.2,4.2-7.5,7.1-11.7,10.3
		c4.1,3.8,8.3,7.3,12,11.3c2.7,2.9,5.5,3.5,9.2,3.4c9.6-0.2,19.1-3.1,28.8-0.3c1.3,0.4,2.8,0,3.7-1c4.1-5.1,9.1-9.1,14.3-13.2
		c-4.4-0.4-8.8-1.3-13-2.6c-8.7-2.9-12.6-9.4-11.5-18.5C349.6,418.9,354.8,413,361.6,408.4z"/>
	<path fill="#FFDCCD" d="M344.9,567.6c-1.4,0.7-2.1,1.3-1.4,3c1.3,3.4,2.3,6.9,3.4,10.3c0.3,1,0.3,2,2.6,1.7l0,0
		c1.9-1,5-1.9,7.1-3.8c1.9-1.7-0.1-4.3-0.5-6.4C354.1,561,351.8,564.4,344.9,567.6z"/>
	<path fill="#FFAFD4" d="M228.2,398.3l0.1,0.1c5,3.9,8,9.3,11.1,15.3c8.3-12,19.6-14.4,32.5-11.5c2,0.5,3.4-0.2,5.1-1
		c30.5-15,59.2-33.3,85.7-54.5c4.3-3.4,9.1-6.2,12.5-10.6c3.9-5.1,2.7-14-2.4-17.8c-0.8-0.6-1.6-1.3-2.7-1c-1.6,0.5-0.8,2-0.8,3
		c0.2,5.7-2.2,10.3-6,14.3c-3.4,3.6-7.4,6.7-11.9,9.1c-26.7,14.5-53.1,29.7-80.8,42.3c-8,3.6-16.3,6.8-25.1,7.7
		c-4.5,0.5-9,0.3-13.5,0.5c-1.7-0.1-3.3,0.8-4.2,2.2C227.4,396.9,227.5,397.8,228.2,398.3z"/>
	<path fill="#FA9DAF" d="M337.4,585.7c1.4-0.3,4-0.8,6.5-1.5c4.3-1.2,1.2-4.4,0.6-5.5c-1.6-2.9,0.3-8.5-5-8.5
		c-2.6,0-5.9,0.9-4.5,5.5c0.7,2.6,0.5,5.4-0.6,7.8C333.7,585.1,334.2,586.1,337.4,585.7z"/>
	<path fill="#FA9DAF" d="M308.1,547c-1.3,1.2,1.3,2.2,1.4,3.7c0.1,0.6,0,1.3-0.2,1.9c-2.1,3.4-0.1,6.7,1.5,9.1
		c1.2,1.8,4.1-0.8,6.2-1.2c3.7-0.7,4.5-2.7,2.8-6c-1.3-2.7-2.4-5.5-3.5-8.2c-0.5-1-0.7-2.2-2.3-1.9l0,0
		C311.9,545.2,309.6,545.7,308.1,547z"/>
	<path fill="#FA9DAF" d="M349.7,592.5c0.1,0.5,0.2,1,0.3,1.5c0.3,2.1,0.3,5,3.5,3.8c2.8-0.9,7.2,0.1,7.3-5.5l0,0
		c-0.6-3-1.3-6.4-2-9.8c-0.5-2.2-1.7-1.9-3.3-1.2C347.9,584.4,347.9,584.4,349.7,592.5z"/>
	<path fill="#FFDCCD" d="M347.8,561.1c-3.4-2.2-6.7-4.8-10-7.2l0,0l-0.9,0.6c1.1,2.7,2.6,5.3,3.3,8.1c1.2,4.8,3.7,4.3,7,2.4
		C349.3,563.8,350.8,563.1,347.8,561.1z"/>
	<path fill="#95D8EE" d="M291.9,502c-2.3,6.6-9.3,8.1-14,12.2c6,3,11.7,5.7,17.2,8.8c3.1,1.8,4.9,0.3,7-1.5c2.4-1.9,1.7-3.8,0.4-6.1
		c-1.3-2.5-2.2-5.2-2.8-7.9c-1.3-5.3-0.6-10.6,0-16.5C296.4,494.8,296.1,499.8,291.9,502z"/>
	<path fill="#3CC8CE" d="M224.2,448.1c-0.3,1.9-0.2,3.4,2.5,2.1c9.2-4.2,17.5-1.6,23.2,5.8c5.5,7.1,11.3,8,19.3,6.1
		c6.2-1.5,7.8,0.4,8,6.7c0,2.3,0,4.6,0,7c-0.4,12.4-0.1,12.7,11.2,11.5c2.7-0.3,3.4-1.1,2.5-3.6c-1.8-5.5-3.5-11.1-5.3-16.6
		c-1.4-4.2-1.3-8,2.5-10.8c2-1.5,1.9-3.3,1.9-5.3c0-7.7,2.5-9.2,9.5-5.8c1.7,0.8,3,1.9,5,0.5c4.1-2.9,8.1-5.9,11-10
		c3.3-4.7,3-8.2-0.8-12.5c-2.5-2.9-5.7-5.2-9.2-6.8c-11.7-5.3-23.7-9.6-36.3-12c-11.1-2.1-20.7,0.7-27.5,10.6
		c-4.8,7-9.4,14.1-13.8,21.3C225.6,439.9,224.9,444,224.2,448.1z"/>
	<path fill="#FBE9EC" d="M308.7,618.6c0.8-0.3,1.6-0.6,2.3-1.1c3-1.8,5.6-4.2,7.5-7.2c5.4-8.3,9.8-17.3,13-26.8c1-2.8,2.4-6,0-9.1
		c-1.5,1.7-2.1,4.1-5.1,5.9l0,0c1.4-3.4,3.4-5.1,3.8-7.7c0.2-1.2-0.1-2.1-1.2-2.4s-1.2,0.9-1.5,1.6c-1.1,2.6-1.8,5.4-4.6,6.9
		c0.6-1.6,1.3-3.2,2.1-4.8c0.7-1.6,2.5-3.7,0.8-4.8c-2.3-1.5-3.3,1.1-4.4,2.7c-1.3,1.8-2,4-4.2,5.7c-0.2-3.1,3-4.5,2.7-7.5
		c-3.7,3-5.2,6.9-6.7,10.8c-1.9,4.6-4.1,9.1-6.6,13.3c-2.3,4-5.1,5.4-9.3,3.4c-3.6-1.7-4.6,0-4.9,3.2c-0.4,3.5,0,7,1.2,10.3
		C295.6,617.3,302.4,620.7,308.7,618.6z"/>
	<path fill="#FA9DAF" d="M398.8,597.4L398.8,597.4c-3.8-3.3-8-6.3-12.4-8.9c1.3,2.8,2,4.4,2.7,6C392.1,601,392.1,601,398.8,597.4z"
		/>
	<path fill="#CCEDFD" d="M415,452.1c-5.7-0.1-5.5-0.1-4.6,5.5c3.5,20.7,4.5,41.3-1.3,61.8c-6.5,23.1-11,46.5-10.2,70.8
		c0.1,2.8,0.8,4.5,3.1,6.2c11.1,7.9,22.1,16,33.1,24.1c2.5,1.9,5.6,2.9,8.7,2.8c15-0.3,30,0.6,44.7,3.8c4.2,0.9,9.5,1.6,11.3,5.5
		c2.6,5.3,6.6,4.4,10.7,4.5c4.5,0,9-0.2,13.5,0.1c2.7,0.1,4.2-0.7,5.3-3.3c4-8.6,8.3-17,12.2-25.7c5.4-12.2,8.5-24.8,7-38.3l0,0
		c-1,0.3-1.2,1.2-1.4,2c-5.7,29.7-34.3,51.3-65.6,50.3c-37.5-1.2-57.7-30.7-60.7-57.8c-1.1-9.8,1.7-19.1,2.7-28.6
		c2.5-25,2.7-50.3,0.5-75.3C423.5,452.2,423.4,452.2,415,452.1z"/>
	<path fill="#FA9DAF" d="M403.8,601c1.4,3.6,2.4,6.1,3.4,8.6c0.4,1.2,1.3,1.6,2.3,1.1c1.3-0.6,3.3-0.4,3.9-1.9
		c0.5-1.3-1.2-1.7-2-2.3C409.2,604.8,406.9,603.2,403.8,601z"/>
	<path fill="#CCEDFD" d="M513.9,452.8c0-3.8-2.1-5.4-7-5.2c-3.6,0.1-1.7,3.1-1.7,4.5c0,13,0.3,25.9,0.5,38.9c0,2,0,4,0.2,6
		c0.3,3.7,3.7,3.9,5.9,4.1c2.4,0.2,1.1-2.5,1.1-3.9c0.1-7.3,0.1-14.6,0.1-21.9h0.9C513.9,467.7,513.9,460.2,513.9,452.8z"/>
	<path fill="#CCEDFD" d="M428.1,451.1c-3.5,0.6-2.9,2.8-2.7,5.1c1.8,20.4,2.2,40.8,1.1,61.2c-0.2,4,0,8.1,0,12.6
		c2.7-3.9,5.3-7.5,7.7-11.2c0.5-0.9,0.8-1.8,0.8-2.8c1.6-20.4,0.8-40.9-2.1-61.1C432.4,452.3,431.6,450.5,428.1,451.1z"/>
	<path fill="#6CB3D0" d="M541.4,456.6c-7.4-1.7-14.8-3.7-22-6.2c-3-1-4.3-0.6-4.3,3.2c0,15-0.3,30-0.8,45c-0.1,3.1,1.1,4.7,3.6,6.3
		c11.7,6.9,21,17.3,26.2,29.9c0.3,0.8,0.8,1.6,1.4,3.1l0,0c0.2-0.7,0.4-1.3,0.5-2c-0.1-25.3-3.2-50.5-2-75.9
		C544.1,457.7,543.2,457,541.4,456.6z"/>
	<path fill="#CCEDFD" d="M545.1,473.8c0.8,19,1.6,37.9,2.5,56.9c0.5,10.3,0.7,20.6,1.9,30.8c2,16.9,0.5,33.1-7.1,48.6
		c-3.8,7.7-7.5,15.5-11.2,23.3c-0.4,0.9-2.1,2.2-0.1,3.2c1.7,0.9,9.5-1.2,10.5-2.8c12-19.7,20-40.6,17.2-64.2
		c-2.9-24.1-4.2-48.4-3.7-72.7c0-11.7-0.1-23.3,0.1-35c0-3-0.8-3.7-3.8-4.2c-4.8-0.7-6.1,1.2-6,5.5
		C545.4,466.8,545,470.3,545.1,473.8z"/>
	<path fill="#FFFFFF" d="M400.5,451.1c-3.1,0.2-1.1,3.1-0.9,4.7c2.6,17.4,3.7,34.7-0.4,52c-5.4,23.2-10.9,46.2-11.7,70.2
		c-0.2,5.7,0.6,9.6,5.9,12c1.2,0.5,2.1,2.3,3.4,1.5c1.1-0.7,0.6-2.5,0.6-3.8c-0.1-22,3.1-43.8,9.4-64.8c3.6-12.2,5.3-24.9,5.1-37.6
		l0,0c-0.4-10.4-1.5-20.8-3.5-31C407.4,449.1,403.2,450.9,400.5,451.1z"/>
	<path fill="#FA9DAF" d="M385.2,589.9L385.2,589.9l-1,0.3c0,2.6,0,5.2,0,7.8c0,1-0.7,2.6,0.7,3c1.4,0.4,3,0.2,4.3-0.4
		c1.2-0.7,0-2.1-0.4-3.1C387.8,594.9,386.4,592.4,385.2,589.9z"/>
	<path fill="#3E1FAB" d="M711.6,422c7.7,30,28,50.5,52.2,69.7c-1-11.6-1.7-22-3.9-32.3c-4.6-21.8-15.3-39.1-36.4-48.6
		c-3.3-1.5-7-5.3-10.3-3c-4.1,2.9-2.4,8.2-1.9,12.6C711.3,421,711.4,421.5,711.6,422z"/>
	<path fill="#CE68B5" d="M443.5,652.7c3.6,4.4,7.4,8.6,11.5,12.5c1.8,1.8,3.7,3.3,5.8,4.7c2.9,2,6.1,2.8,9.2,0.2s3.8-6.1,2.6-9.9
		c-0.5-1.5-1.6-2.9-2.2-4.4c-1.3-2.7-5.1-5.1-2.9-8.3c2.1-3.1,5.8-1,8.9-0.8c5.8,0.4,11.7,1.2,17.2-1.6c3.3-1.7,5.8-4,5.8-8
		s-3.5-4.8-6.3-6.1c-0.7-0.4-1.5-0.6-2.3-0.8c-15.8-4-31.9-4.4-48-4.2c-2,0-2.3,1-2.7,2.7c-0.7,3.4-2,6.6-6.8,8.4
		c1.9-2.3,3.3-3.6,4.1-5.1c1.1-2,2.5-4.5,0.5-6.4c-2.8-2.3-5.8-4.5-9-6.3c-1.2-0.7-2.7-0.6-3.8,0.3c-1.3,0.8-0.3,2-0.1,3.1
		c0.5,2.9,2.2,5.7,0.9,9.4c-0.6-1.9-1.1-3.8-1.5-5.7c-0.5-4.4-1.8-7.3-7.1-5.5c-1.4,0.6-3,0.3-4-0.8c2.1-1.3,4.2-0.8,6.2-1
		c1.4-0.1,2.2-0.3,1.8-2c-0.6-3.4-4-7.1-6.3-6.7c-5.5,0.8-6.6,2.5-5.4,8.1c0.4,1.7,1,3.3-0.1,6c-0.9-3.9-1.1-7.2-2.4-9.9
		c-1.7-3.6-5.8,0.4-8.3-1.8c8.3-1.9,8.3-1.9,4-10.2c-0.2-0.4-0.4-0.9-0.7-1.3c-2.5-4.3-5.1-0.1-7.7,0c-3,0.1-1.3,2.2-1.1,3.7
		c0.5,3.7,2.7,7.1,1.6,11c-1.2-3.5-1.9-7-3-10.5c-0.4-1.2-0.2-3.5-2.4-3.2c-2.2,0.4-5.1-0.3-6.1,2.3c-1.6,4.1-4.1,7.5-6.8,11.3
		c5.6,1.3,10.9,2.6,16.2,4C413.1,625.3,430.3,635.6,443.5,652.7z M455.7,654.3l0.6-0.5c4.4,3.8,8.2,8.2,11.4,13.1
		C463.4,662.9,459.1,659.1,455.7,654.3z M484.9,637.6c-13.6-5.5-28.2-8.2-42.9-7.9C456.8,627.8,471.8,630.6,484.9,637.6z M477,640.6
		c-11.3-5.1-23.8-4.8-35.4-8.4C453.6,634,466.1,634.1,477,640.6z M460.7,646.1c-3.2-2.3-5.5-4-8-5.6s-4.6-3-7.8-2.8l23.2,18.7
		c-2,1.1-2.7-0.5-3.7-1.2c-6.6-5.1-13.1-10.2-19.6-15.3c-0.1-0.1-0.3-0.1-0.5-0.1l-0.2,1l-0.3,0.3l0.4-0.3c4.4,3.9,8.4,8.3,12,13
		l-0.6,0.5c-4.4-3.9-8.4-8.3-12-13l0,0c-2-1.5-3.7-3.3-5-5.4C444.7,633.6,455.2,638.3,460.7,646.1z M455.5,658.7
		c-8.1-4.3-14.3-11.3-17.7-19.8C442.4,646.5,448.4,653.3,455.5,658.7z"/>
	<path fill="#639397" d="M414.5,647.8c5.3,2.1,9.9,5.6,13.5,10c4.2,4.9,8.3,10,12.2,15.2c8.1,10.7,18.7,17.6,32,19.5
		c15.8,2.4,29.6-1.1,33.6-20.9c0.2-1.1,0.5-2.3,0.8-3.4c1.8-6.9,6.3-10.6,13.3-11.7c4.8-0.8,9.3,0.4,13.7,1.6
		c17.8,4.7,34,0.9,48.9-9c11.4-7.6,14.8-18.9,13.4-33.3c-12.5,12.4-27.1,18.1-42.8,20.9c-15.1,2.6-30.5,3.4-45.8,2.5
		c-3.2-0.2-5.5,0-7.4,3.3c-2.2,4-6.2,5.6-10.7,6.5c-5.7,1.1-11.3-0.1-16.9-0.2c-2.5,0-3,0.6-1.7,2.8c1.6,2.3,3,4.8,4.2,7.4
		c2.1,4.5,0.8,9.9-3.1,13c-3.5,2.9-7.7,2.9-12.5,0c-3.5-2.3-6.6-5.1-9.3-8.2c-5.3-5.8-10.7-11.5-15.7-17.4
		c-11.4-13.5-26.9-19.5-43.6-24.1c1.2,9.9,2.5,19.5,3.7,29.2C405.1,646,408.3,645.5,414.5,647.8z"/>
	<path fill="#221456" d="M387.5,459.9c-1.5,8.8-4.5,17-8,25c-1.3,2.9-2.8,6.3-1,9.1c4.6,6.9,8.3,14.3,10.9,22.2
		c7-22.8,5.8-44.4-0.8-65.8C387.9,453.6,388.1,456.7,387.5,459.9z"/>
	<path fill="#346ABD" d="M377.4,563.8c1.6-8,3-15.1,4.5-22.8c-3.3,3-6.8,5.7-10.5,8.2c-0.8,0.5-2.2,1-1.2,2.2
		C373.2,554.9,374.9,559.2,377.4,563.8z"/>
	<path fill="#CCEDFD" d="M380.1,513.9c4.2-6,4.1-7.4-1.8-14.1c0.8,10.1-4.9,17.4-8.7,25.4C373.6,522,377.2,518.2,380.1,513.9z"/>
	<path fill="#CCEDFD" d="M393.2,449.9c-2.6,0.8-0.7,3-0.3,4.5c4.2,18,5.7,36.1,1.2,54.3c-3.9,15.9-10,31.3-12.7,47.6
		c-1.3,8.2-3.3,16.3,0.7,24.3c0.7,1.4,1.5,3.1,3,3c1.7-0.2,0.8-2.2,0.9-3.3c1.2-17.1,2.7-34.1,6.9-50.8c3.7-15.5,8.1-30.9,7.6-47.1
		l0,0c-0.2-9.5-1.1-18.9-2.6-28.3C397.5,451.1,396.2,449,393.2,449.9z"/>
	<path fill="#60B5EE" d="M366.9,547.1c0.7,1.1,1.2,2.1,3.1,1.2c12-5.5,22.4-24.7,14.3-37.5c-2.3,3-4.5,6.2-7,9
		c-2.5,3.1-5.3,5.9-8.4,8.5C362.2,533.3,363.4,541.5,366.9,547.1z"/>
	<path fill="#CCEDFD" d="M461.6,443.6c-3.2,0.2-3.9,1.4-3.6,4.3c0.9,9.7,1.4,19.5,1.3,29.3l0,0c0,3.2,0,6.3,0,9.5
		c0,3.3-0.2,6.7-0.2,10c0,1-0.6,2.4,0.8,3c1.8,0.8,8-2.9,8.1-4.8c1.1-15.9,0.5-31.9-1.6-47.7C465.8,443.8,464.5,443.5,461.6,443.6z"
		/>
	<path fill="#73B5CF" d="M499.2,446.2c-9.4-0.8-18.9-1.7-28.3-2.6c-2.8-0.3-3.7,0.2-3.2,3.4c2.1,15.5,3.1,31.1,1.8,46.8
		c-0.2,2.7,0.5,2.8,3,2.4c9.4-1.4,18.9-1.5,28.2,1.2c3.6,1.1,3.4-0.5,3.4-3c-0.1-7.2-0.1-14.3-0.1-21.5h-0.2
		c0-7.1-0.2-14.3,0.1-21.5C504.1,447.6,502.4,446.4,499.2,446.2z"/>
	<path fill="#6CB3D0" d="M457.8,464.1c-0.1-5.3-0.7-10.6-1.1-15.9c-0.2-2.8-0.8-4.5-4.6-3.4c-4.5,1.3-8.8,3-13.4,3.8
		c-4.5,0.8-5.3,3.1-4.6,7.2c3.5,19.6,3.5,39.4,2.4,60.3c5.9-5.4,11.3-10.1,17.8-13.1c2.6-1.2,3.6-3,3.6-5.8
		C457.8,486.1,457.9,475.1,457.8,464.1z"/>
	<path fill="#00B084" d="M237.6,480.9c5.3,0.4,10.7-0.5,15.6-2.5c4.5-1.8,5.6-4.3,3.7-8.6c-3.3-7.5-9.1-13.7-16.3-17.7
		c-2.4-1.3-5.1-1.7-7.8-1c-9.3,2.4-17.7,6.8-24.4,13.9c-3.4,3.6-3,6.1,1,9.2c4.2,3.3,9.2,5.3,14.3,6.8c2.9,0.9,4.9,2.2,3.5,5.9l0,0
		c0.5,1.1-1.1,3,0.9,3.7c1.3,0.4,2.7-0.1,3.5-1.2c0.4-0.9,0.5-1.9,0.3-2.9C231.7,482.4,233.4,480.6,237.6,480.9z"/>
	<path fill="#B75CB3" d="M326.1,604.9c4.7,1.5,9.4,4.5,14.2,3.3c4-1,7.9-2.4,11.7-4.1c2.8-1.3,5.6-2.6,7.8-6.6c-6,2-11,4-16.7,3
		c1.3-1.5,2.7-1.5,3.9-1.5c1.8,0,2.4-1,2.1-2.5c-0.6-3.2-1.4-6.5-2.1-9.7c-0.4-1.7-1.5-1.1-2.7-1c-10.7,1.4-10.7,1.3-15.4,11.3
		c-0.9,2-1.9,3.9-2.8,5.8C325.8,603.5,324.9,604.5,326.1,604.9z"/>
	<path fill="#FFDCCD" d="M250.4,508.7c-2.6-0.5-5-2.4-8.1-1.4C244.5,510.4,247.2,510.8,250.4,508.7z"/>
	<path fill="#346ABD" d="M316.7,493c4.5,0.7,6.4,4.1,9.8,6.1C324.8,492.7,322.9,491.5,316.7,493z"/>
	<path fill="#97E1CA" d="M66,600.6c0.7-0.7,2.1-0.9,1.8-2.1s-1.7-1.3-2.9-1.3H53v-1.3h11.8c-5.2-6.5-10.4-10.9-18.6-9.9
		c-3.1,0.2-6.3-0.3-9.2-1.5c5.4-1.2,10.1,0.6,15.3,0.4c-8-8.6-16.9-13.8-29.1-11.8l0.5-1.6h10.9l-10.8-7l0.7-1.1L41.9,574
		c-1-5.8-4.4-9.5-7.5-13.5c4.7,2.5,6.9,6.8,8.7,11.5c0.7,1.8,0.9,3.8,2.7,5.2c4.6,3.4,9,7,13.9,10.9c-1-6.1-4.1-10.5-6.4-15.6
		c3.5,3.5,6,7.8,7.2,12.7c1,4.2,3.4,7.9,6.9,10.5c1,0.8,1.7,2.7,3.1,1.7c1.1-0.7,0.4-2.5,0.1-3.8c-0.8-3.7-3.6-6.4-5.1-11
		c3.1,2.9,5.3,6.5,6.5,10.6c0.4,1.4,0.4,3.3,2.7,1.9c1.6-1,3.5-1.6,1.6-4c-8.8-11.8-17.8-23.4-30.3-31.4c-7.7-4.9-16.2-6.9-25.3-4.5
		c-6.8,1.8-9.6,6.7-7.9,13.7c2,8.5,7.4,14.4,14.7,18.6c8.5,5,17.4,9.1,25.6,14.4C58.2,605,62,604.6,66,600.6z"/>
	<path fill="#E196BF" d="M119.9,662.2c0.5-6.4-3.7-9.9-7.5-13.5C113.6,653.7,114.6,659,119.9,662.2z"/>
	<path fill="#C0A9E6" d="M104.7,682.1c-8.1,9.4-4.1,21.5,7.6,25.4c4.6,1.6,9.5,1.6,13.5,1.9c9.7-0.2,18.3-1.8,26.4-5.6
		c5.3-2.5,10.2-5.6,13.3-10.9c3.3-5.7,2.2-11.5-3-15.5c-3.5-2.6-7.4-4.5-11.7-5.5c-6.8-1.7-13.8-1.2-20.8-1.3
		C119.5,670.5,111.1,674.6,104.7,682.1z M118.6,702.3c1.2,0.6,3.3,0.7,3.1,2.6c-0.3,1.4-1.6,2.3-3,2.1c-1.5-0.1-2.6-0.8-2.7-2.3
		C115.9,703.1,117.1,702.4,118.6,702.3z M110.9,699.3c1.5,0.7,4.1,0.5,4.1,2.8c0,2.1-2.2,2.1-3.9,1.9c-1.9-0.1-3.4-1.6-3.6-3.5
		C107.4,699.4,109.5,699.2,110.9,699.3z"/>
	<path fill="#7A429A" d="M90.6,766c-5.8,22.9,1.4,37.5,23.4,45.9c23.9,9.1,47.8,9.1,71.1-2.3c8.8-4.3,17.5-8.9,26.3-13.1
		c6.9-3.3,14.4-5.3,22-6.1c13.4-1.5,22.4,5.6,29.9,15.5c6.5,8.6,12,18,19,26.3c14.7,17.2,32.9,26.6,55.9,25.9
		c15.9-0.5,29.1-7.3,41.1-17.1c10.9-8.8,21.4-18,33.3-25.5c9.8-6.1,20.4-10.5,32-11.6c15-1.4,28.1,3.8,40.6,11.2
		c11,6.6,21.2,14.5,30.5,23.4c20.9,19.7,46.3,26,74,25.2c22.6-0.6,36.9-11.5,44.4-33c1.5-4.6,2.8-9.2,3.8-13.9
		c2.4-10,4.5-20.2,11.4-28.4c6.7-8,15-11.3,25.3-8.9c4,0.9,8.1,1.9,12,3.1c17.5,5.2,34.5,4.3,51-3.8c10.4-5.2,17.1-13.5,19.5-25.1
		c1.7-8.5,0.9-16.9-0.8-25.3c-2.3-11.1-6.3-21.7-10.2-32.2c-4-10.8-3.7-21.1,2.6-31c1.9-3.1,3.5-6.4,4.8-9.8
		c3-7.9,2.3-15.2-3.4-21.9c-7-8.4-15.5-15-24.2-21.6c-2.1-1.6-2.9-1.2-3.6,1.1c-1.1,3.5-4,5-7.4,6.1c-13.9,4.3-32.7-5.6-37.1-19.7
		c-1-3-1.4-5.9,0.4-8.6c1.2-1.8,0.7-2.5-1.1-3.3c-4.9-2-9.7-4.2-15-6.5c0.2,9.2-5.5,14.5-11.4,19.4c-6.8,5.7-14.7,9.7-22.6,13.7
		c-1.3,0.7-3.2,0.8-2.7,3.4c1.6,9.3,3.7,18.2,13.5,22.7c2.1,1.1,4,2.5,5.7,4c2.8,2.1,6,4.3,7.2,7.5c2,6,6.5,10.9,12.4,13.3
		c5,2.3,7.4,7.7,10.7,12.7c1.2-4.6,1.5-8.8,3.5-12.5s4.3-7.1,8.9-7.1c4.7,0,8.1,2.8,10.1,7c2.5,5.5,3.3,11.6,2.4,17.5
		c-1.6,10.7-4.7,21.1-9.3,30.9c-2.3,5-4.2,9.1,2,13.1c3.3,2.1,4,6.4,3.6,10.4c-0.4,3.6-2.1,6.8-5.7,7.5c-10.5,2.2-20.7,1-29.3-5.8
		c-6.6-5.1-6.6-11.8-0.5-17.5c2.3-2.2,2.4-4,1.8-7c-2.4-12.5-9.5-22.9-15-34.1c-1-2-1.8-0.7-2.6-0.1c-3.4,2.7-7.3,4.7-11.4,6
		c-2.3,0.7-2.9,2.3-3.1,4.5c-1.4,18.1-5.3,35.8-10.1,53.3c-1.3,4.7-4.8,6.2-9.1,4s-4.6-5.5-3.4-9.7c4.3-15.3,7.4-31,9.1-46.9
		c0.2-2.1,0.1-3.6-2.2-4.1c-12.2-2.8-24.3-5.6-36.9-5.8c-16.6-0.3-27.7,7.5-33.9,22.8c-3.1,7.6-4.8,15.5-6.6,23.5
		c-2.6,11.4-9.3,18.9-20.7,22c-6.4,1.7-12.9,1.2-19.3-0.2c-12.7-2.9-24.6-8.1-36.6-12.9c-15.6-6.2-30.7-13.6-46.7-18.8
		c-8.1-2.7-16.8-2.5-24.7,0.5c1.1,1,1.8,1.7,2.6,2.3c27.2,21.1,59.2,29.4,92.3,34.3c7.9,1.2,16,1.1,23.2,5c6.5,3.5,10.4,9,10.2,16.5
		s-5.8,10.8-12,13c-9.1,3.3-18.6,3.3-28.1,2.2c-16-2-30.1-9.3-44-16.8c-17.3-9.5-33.8-20.3-49.4-32.3c-3.6-2.8-4.3-1.2-4.8,1.9
		c-0.7,3.8-1.1,7.6-1.2,11.4c0,14.1,1.6,16.2,15.3,19.2c7.2,1.6,14.2,3.4,20.4,7.5c2.8,1.9,5.7,4.1,4.9,8s-3.6,5.8-7.2,6.9
		c-2.2,0.7-4.6,0.7-6.9,0.1c-12.5-3.4-24.6-8-36.8-12.3c-6.1-2.2-9.1-6.8-9.1-13.5c0.1-11.3-4-21.5-8.6-31.5
		c-1.5-3.2-3.4-6.2-7.7-6.2s-6.7,2.6-8,5.8c-4.3,10.1-8.6,20.3-7.4,31.6c0.6,5.2-1,9.1-5.1,12.2c-7.8,5.8-16.1,10.6-25.6,13
		c-6.7,1.7-13.5,2.5-20-0.6c-5.2-2.5-6.2-7.6-2.4-11.9c2.9-3.3,6.7-5,10.8-6c3.9-1,7.8-1.5,11.8-2.1c7.8-1.1,9.4-3.2,6.9-10.6
		c-2.1-6.3-4.8-12.4-7-18.6c-0.9-2.6-2.5-3.4-5.1-3.8c-8.6-0.9-17.1-2.8-25.2-5.6c-15.9-5.8-21.8-16.5-18.4-33.2
		c1.5-7.3,4-14.4,4.8-21.9c1.4-12.6-3-27.5-22.1-27.7c-14.1-0.1-28.3,0.3-42.4,1.1c-12.7,0.8-25.1,0.8-35.3-8.4
		c-1.9-1.7-2.7-0.9-3.6,0.9c-2.5,5.4-4.8,11-6.7,16.6c-0.9,2.6,0.1,3,2.4,3.3c5.6,0.8,11.1,2.1,16.1,5c10.8,6.4,12.1,16.8,3.2,25.8
		c-11.8,11.9-39.5,17-54.8,10.2c-10.5-4.7-14.2-15-9-25.2c2.9-5.8,7.9-9.4,13.6-12c3-1.3,3.5-2.6,2.1-5.6
		c-4.2-8.9-7.4-18.2-9.6-27.7c-1.7-7.6-2-15.2,2.3-22.2c2.6-4.2,6.2-7,11.5-6.5c4.8,0.5,6.8,4.2,8.7,8.1c1.5,3.1,1.2,6.7,2,10.8
		c2.8-5.1,5-9.9,9-13.2c2.1-1.7,1.7-3,0.4-4.9c-3.2-5.3-5.4-11.1-6.4-17.2c-1-6.1-2.1-12.1-3.4-18.1c-0.2-1.1,0.6-4.1-2.5-2.8
		c-1.8,0.7-4.5,0.5-3.3,4.2c1.6,4.9,2.5,10,3.8,14.9c2,7.3-2.1,14.1-9.5,15.5c-7.7,1.5-13.9-2.6-15.9-10.4c-1-4-0.5-10.1-3.5-11.3
		c-3.3-1.3-7.6,2.9-11.4,4.9c-28.7,15.5-53.4,35.4-71.3,63.2c-9.2,14.2-9.9,29.3-7.5,45c1.4,8.9,6.8,14.5,16.2,15.7
		c8.2,1.1,16.3,0.8,24.4,0.2c9.8-0.9,19.7-0.7,29.4,0.5c16.2,2.2,21.9,10.3,18.7,26.3C96.5,749.8,92.7,757.6,90.6,766z M558.9,778.7
		c3.2-5.7,7.8-7.7,13.8-4.9c13.5,6.3,23.7,16,27,31.2c1.7,7.8-0.9,14.5-7.3,19.4c-5.9,4.5-12.3,3.5-18.3,0.3
		c-13.2-7-17.8-19-18.3-33.1C555.5,787.1,556.6,782.6,558.9,778.7z M222.4,685c7.7,0.1,13.4,5.7,13.4,13.1c-0.1,8-5.3,13-13.3,13
		s-13.1-4.7-13-11.9C209.7,691,215.2,684.9,222.4,685z M145.3,768.8c4.8-4.6,10.4-7.8,18.5-7.5c-0.2,0,0.8,0,1.8,0.2
		c5.2,0.6,10.5,1.5,12.6,7.2c2.3,6,0.5,11.4-3.4,16.2c-6.2,7.9-17.1,10.3-26.1,5.8C139.8,786.1,138.1,775.9,145.3,768.8z
		 M90.5,661.1c-5.1,7.6-16.5,13.1-27.2,13.2c-6.7,0-12.6-1.5-15.5-8.4c-2.3-5.5-0.6-12.7,5-17.5c9-7.8,19.8-10.4,31.2-7.3
		C93.7,643.7,96.3,652.5,90.5,661.1z"/>
	<path fill="#E196BF" d="M121.1,669.5c0.7-3.2-1.1-4.2-2.8-5.6C118.3,666.1,119.3,668.1,121.1,669.5z"/>
	<g id="live172m2">
		<path fill="#BA67D0" d="M624.4,711.7c-2.3,1.4-4.7,2.6-7.2,3.5c-3.2,1.2-2.8,4.6-2.4,6.8c0.3,1.3,3.2-0.1,4.8-0.7
			C623.9,719.8,624.2,716.1,624.4,711.7z"/>
		<path fill="#BA67D0" d="M614.6,742.1c-1.6-0.1-3.3-0.1-4.9-0.1c0.3,3.1,2.2,3.9,4.4,4.2c2.8,0.4,3.6-2,3.5-3.7
			C617.5,740.1,615.7,742.2,614.6,742.1z"/>
		<path fill="#F9F9FB" d="M626.9,696.7c-8.2,0.4-10,5.5-9.9,12c0,0.2-0.1,0.3-0.1,0.5c0,0.9-1.1,2.1,0,2.7s2.2-0.2,3.2-0.7
			C626.7,708.3,626.3,702.3,626.9,696.7L626.9,696.7z"/>
		<path fill="#F9F9FB" d="M619.5,735.6c1.2-3.6,2.5-7.6,2.5-12c-2.3,0.6-4.2,1.2-6.2,1.5c-1.5,0.2-2.4,0.7-2.8,2.3
			c-0.7,3.2-1.5,6.4-2.4,9.6c-0.3,1-0.6,2,0.9,2.2C614.9,739.4,618.3,739.1,619.5,735.6z"/>
		<path fill="#F9F9FB" d="M614.8,609.3c-1.3-0.2-3.1,0.3-2.6,2.6c1.3,5.8,2.6,11.5,4,17.5l0,0c6.5-5.9,7.9-12.4,4.6-19.4
			C619.2,606.3,616.8,609.6,614.8,609.3z"/>
		<path fill="#D562A8" d="M641.6,571.8c-15.8,15.8-35,22.8-56.3,25.9c2.1,0.1,2.2,4.6,5,2c1-0.9,1.8-2.4,3.2-1.3
			c1.3,0.8,1.9,2.4,1.5,3.9c-0.3,0.8-0.7,1.5,0.6,1.8s0.8-0.6,1-1.1c1.4-3.3,3.2-2.3,5.3-0.7c-0.8,1.7-2.5-1-3.3,1.1
			c1.1,1.3,5.7-1.3,4.3,3.2l1.5,0.3C623.6,610.5,643.1,592.7,641.6,571.8z"/>
		<path fill="#F9F9FB" d="M619.4,643.5c-0.9,0.8-1.3,2-1,3.1c0.3,2.6,0.5,5.3,0.8,7.9c0.1,1.1-0.3,2.7,1.2,2.9
			c0.7,0.1,1.7-1,2.3-1.7c5.3-5.6,6.1-12.2,3.6-20C623.9,638.7,622,641.4,619.4,643.5z"/>
		<path fill="#BA67D0" d="M623.5,658.6c-3.9,2.2-3.5,5.6-3.5,9c0,2.6,0.9,3.1,2.8,1.4c3.7-3.2,8-8.1,5.3-15.5
			C626.3,655.5,625.2,657.6,623.5,658.6z"/>
		<path fill="#BA67D0" d="M618.3,640.4c6.3-5,7.9-9,5.4-16.6C621.2,629.8,613.5,633,618.3,640.4z"/>
		<path fill="#BA67D0" d="M627.4,686.3c-2.3,1.3-4.5,2.6-6.8,3.8s-1.4,3.1-1.5,4.8c-0.1,1.2,0.9,1,1.8,0.9
			C625.5,695.1,628.2,691.4,627.4,686.3z"/>
		<path fill="#F9F9FB" d="M628.8,668.1c-7.4,3-10.2,8.3-9,15.7c0.2,0.9-0.1,2.3,0.5,2.8c1.1,0.9,2.1-0.4,3-1
			C630.7,681.4,628.7,674.4,628.8,668.1z"/>
		<path fill="#D79BE2" d="M598.6,537.6c-15.9,4.1-24.1,15.5-24.6,34.2l0,0c0,1.7,0.1,3.3,0,5c-0.2,2.5,0.6,3.5,3.4,3.3
			c22.3-1.2,40.9-10.7,57.2-25.4c1.5-1.4,1-2.3,0.1-3.7C626.6,539.4,612.2,534,598.6,537.6z M602.5,551.1c-3.5-0.4-5.6-1.9-5.5-5.4
			s2.1-5,5.5-5s5.6,1.2,5.6,4.8S605.4,550.5,602.5,551.1z M627.8,550.8c-0.5,1.9-2.2,2.2-4,2.2c-3.5,0.1-6.9-0.7-10.1-2.1
			c-2-0.7-3.1-2.7-2.8-4.8c0.2-2.1,1.9-3.7,4-3.8c3.9,0,8.1-0.2,10.9,3.5C628.5,546.8,628.3,548.9,627.8,550.8z"/>
		<path fill="#CE68B5" d="M641.1,556.7c-1.7-1.8-3-2-4.9-0.2c-16.8,15.9-36.7,24.9-59.9,26.5c-1,0.1-2.3-0.3-2.5,1.5
			c-0.5,4.1,4.9,10.3,8.7,10.2l6.4-0.8c20.1-2.6,37.7-10.5,52.1-25C645,564.9,645,560.8,641.1,556.7z M639.1,566.2
			c-2,0-2.9-1.5-3-3.2s0.6-3.8,2.3-3.8c2,0,2.7,2.1,3,4C641.3,564.7,641.1,566.2,639.1,566.2z"/>
		<path fill="#F9F9FB" d="M615.6,543.9c-1.4-0.1-2.6,0.8-3,2.2c-0.5,1.5,0.4,2.6,1.5,3.3c2,1.3,4.3,1.5,6.6,1.9
			c5.8,0.9,6.5,0.2,5.3-5.3C622.6,545.2,619.3,543.6,615.6,543.9z"/>
		<path fill="#F9F9FB" d="M602.7,542c-2.6-0.2-4.1,1.2-4.3,3.6s1.3,3.7,3.5,3.8c2.6,0.1,4.3-1.3,4.9-4.3
			C606.3,543.3,604.6,542,602.7,542z"/>
	</g>
	<path fill="#35A8AD" d="M269.4,735.8c6.8,2,13.8,3.5,20.9,4.5c3.6,0.5,3.1-0.6,2.1-3c-2.4-5.7-4.6-11.4-7-17
		c-5.8-13.9-9-28.3-7.3-43.3c2.2-19.3,4.4-38.6,8.5-57.7c0.8-3.7,0-4.9-3.7-4.2c-0.8,0.2-1.7,0.1-2.5,0.2
		c-16.5,2.5-33.1,3.4-49.8,2.6c-9.6-0.5-19.4-1.3-26.7-9c-1.4-1.5-3-0.7-4.7-0.3c-11.1,2.7-22.2,5.5-33.4,8c-3.9,0.9-8,1.1-6,7
		c0.2,0.7-0.3,1.6-0.5,2.4c-1,5.1-3.6,9.6-6,14.1c-0.9,1.7-1.7,3.1,0.3,4.7c5.5,4.2,11.2,7.6,18.4,8.2c9.9,0.8,19.9-0.6,29.9-1.1
		c10,0,20-0.2,30,0c13.4,0.3,22.5,9.8,23.2,23.2c0.5,9.5-2.3,18.4-4.5,27.4C246.5,720.2,252.2,730.5,269.4,735.8z"/>
	<path fill="#E196BF" d="M127.8,630.4c0.5-3.1,0.3-6.4-0.7-9.4c-1.3-4.1-2.9-8.5-7.7-8.7s-7.8,3.3-9.6,7.5c-0.3,0.6-0.5,1.2-0.7,1.8
		c-1.6,5.4-0.8,10.8-0.2,16.3c0.7,6.1,4.6,9.4,8.8,13.1c1.6-6.7-3.1-10.4-7.7-15c3.7,0.5,4.2,3.6,6.4,3.8c2-6.5-4.9-9.3-6.7-15
		c2.8,1.6,3.3,4.6,6,5.2c0.8-3.8-1.2-7.6,0.4-12.2c1.6,3.3,0.2,6.1,1.3,8.1c2.4,0.3,3-2.5,6.3-1.5c-7.1,2.8-7.2,7.6-5.1,13.2
		c2.6-1,4.2-3.9,8.5-4.8c-4.7,4.7-11.8,6.9-7.4,14.4c1.7-0.1,2.2-2.7,5.6-2.5c-6.3,4-6.3,8.6-3.7,13.7c2.8-1.2,3.8-3.5,3.9-6.4
		C125.9,644.9,126.8,637.7,127.8,630.4z"/>
	<path fill="#E196BF" d="M125.1,658.6c-2.9,1.2-3.5,2.9-3,5c0.4,1.5,0.3,4.1,1.9,4c2.4-0.1,0.9-2.6,1.1-4
		C125.2,661.9,125.2,660.2,125.1,658.6z"/>
	<path fill="#EFDEE5" d="M391.1,683.7c1.8-17.6,0.3-34.9-2.1-52.2c-1.5-11-1.4-11.1-12.5-12.7c-0.5-0.1-1-0.3-1.5-0.3
		c-2.9-0.3-5.5,1.8-5.8,4.7c-0.1,0.8,0,1.5,0.2,2.3c3.8,12.2,6.5,24.7,8.1,37.4c3.4,27.9-13.2,47.2-40.6,46.1
		c-7.3-0.3-14.6-1.9-20-7.9c-3.7-1.3-6.6-4.2-8-7.9c-2.1-0.5-2.5-2.5-3.4-4c-5.4-9.4-6.5-19.7-6.1-30.4c0.5-12.6,3.7-24.6,8.1-36.6
		c-3.6-0.2-6.8-0.5-9.8-2.2s-4.8-4.3-7-7.3c-0.3,0.7-0.5,1.3-0.8,2c-3.7,16.4-5.7,33.1-7.9,49.7c-1.2,9-2.5,18.1-1.6,27.3
		c1.1,11.1,4.9,21.3,8.9,31.5c5.4,13.9,12.2,27.3,16.6,41.6c2.7,8.6,0.7,11.5-8,13.3c-5.5,1.1-11.3,1.2-16.5,3.7
		c-3.5,1.7-7.7,3.5-7,7.9s5.3,5,9.2,5.2c15.1,0.8,27.2-6.2,38.4-15.2c2.1-1.7,3.1-4.5,2.6-7.2c-1.9-13,2.5-24.7,8.5-35.6
		c4.6-8.4,13.7-8.1,18.2,0.3c5.2,9.7,9.4,19.8,9.6,31.1c0.2,9.8,2,12.4,11.3,15.8c9.2,3.3,18.5,6.4,27.8,9.6
		c3.3,1.2,6.8,1.6,10.3,1.1c2.6-0.4,4.8-1.8,5.4-4.5c0.6-2.5-1.2-4-3-5.3c-2.5-1.7-5.2-3.1-8-4.1c-6-2.4-12.5-3.3-18.7-5.1
		c-7.1-2.1-9.9-5.6-10.4-12.9c-0.8-9.6,0.5-19.3,3.7-28.4C385.4,718.2,389.3,701.1,391.1,683.7z"/>
	<path fill="#E49ED2" d="M94.3,583.7c4.4-0.7,5.7-3,4.2-7c-0.2-0.8-0.4-1.6-0.5-2.4c-2.7-13.3-6.5-26.1-15-37
		c-4.6-5.9-10.6-9.6-18.2-10.2c-9.3-0.7-14.4,4.9-13.3,14.1c0.9,7.7,4.4,14.2,8.8,20.3c5.5,7.5,11.5,14.6,16.5,22.5
		c4.6,7.4,4.5,7.3,11.8,3.1c2.5-1.4,2.6-2.6,1.8-5.2c-0.9-3.2-3.2-3.6-5.7-3.8c-3.4-0.3-6.7-0.5-10.3-1.8c2-0.9,3.7-0.4,5.3-0.3
		c2.6,0.2,6.3,2.2,7.6,0.4c1.4-2.1-1.7-4.9-2.5-7.5c-1.7-5.4-5.4-7.4-11-7c-3.3,0.2-6.6-0.4-10.7-1.6c5.5-1,9.9,0.5,14.3,0.6
		c0.8,0,2.1,0.6,2.3-1c0.2-2.7-8.1-11.4-11.1-11.7c-3.4-0.2-6.8-0.3-10.5-0.5c0.6-0.8,0.7-1.3,0.9-1.2c2.2,0.1,4.3,0.3,6.5,0.3
		c4.3,0.2,4.3,0.2,3.3-3.9l5.9,6.3l3.8-13.6l1.1,0.3c-1.2,4.9-3.8,10-3.1,14.7s4.7,8.7,7.6,13.5c1.9-4.5,1.8-8.7,4.4-12.1
		c-4.4,10.6-2.7,20.2,4,29.5l2.2-11C96.2,575.6,93.3,579.6,94.3,583.7z"/>
	<path fill="#6DC98C" d="M135.9,662.5c5.4-1,6.9-5.2,8.1-10.4C139.1,654.5,134.4,656.2,135.9,662.5z"/>
	<path fill="#6DC98C" d="M139.9,664.2c0.1-0.7-0.2-1.2-1.2-1.1c-1.4,1.1-3.8,1.2-4.3,3.5c-0.3,1.6,1.1,1.2,2,1.3
		C139.3,668.3,139.4,666.1,139.9,664.2z"/>
	<path fill="#2B1C6F" d="M118.6,539.6c-1.1,0.8-1.6,2.1-1.4,3.5c1.9,8.6,3.9,17.1,5.7,25.7c0.5,2.5,1.6,2.5,3.5,1.6
		c1.4-0.7,3.3-0.6,3.1-3.1c-1.3-13.3-0.6-26.7,2.2-39.8C126.5,532.2,122.6,535.9,118.6,539.6z"/>
	<path fill="#6DC98C" d="M146.3,647.9c2.9-5.2,5.7-10.5,8.3-15.9c1.5-3,2.6-6.1,2.4-9.6c-0.5-6.7-7.5-10.3-13.1-6.7
		c-5,3.2-7.8,8.2-10,13.4c-4.8,11.2-6,23.1-5.8,35.2c0,1.3-0.5,3.2,1.6,3.6c0.6,0.1,1.6,0,1.8-0.4c0.8-1.3-0.7-2.4-0.7-3.7
		s-1.6-2.2-0.4-3.5c1.7,0.4,0.9,2.8,3.2,3.4c0-6.6-3.2-12.3-3.8-19.5c3,4.4,2.7,8.8,4.4,12.4c5.2-7.4-1.2-14.9,0.2-22.4
		c0.9,3.6,1.8,7.2,2.7,11c5.4-6.7,1.6-13.9,1.7-21.8c2.1,3.5,1.8,6.5,2.4,10.1c3.3-5.7,4.3-11.7,8.2-17.1c0.1,3.1-1.1,4.8-2,6.4
		c-1.3,2.6-1.4,4,2.8,3.6c-7.4,2.4-7.2,8.7-9.4,13.7c2.3,0.4,3.5-1.8,6.8-0.5c-8.5,1.7-9.6,7.6-10.4,14.6
		C140.7,651.6,144.5,651.2,146.3,647.9z"/>
	<path fill="#9379B7" d="M620.9,94.7c-4.8-13.4-8-27.4-14.7-40.1c-14.6-27.5-54.6-31.2-72-4.3c-1.4,2.1-2.9,4.1-4.4,6.1
		c-9.2,12.2-20.9,12.7-30.8,1c-2.6-3.3-4.9-6.7-7.1-10.2c-1.4-2.1-2.5-4.3-3.9-6.4c-6.3-9.2-14.7-11.9-25.2-8.2
		c-4.4,1.5-8.4,3.9-12.5,6.2c-6.9,3.9-14.9,5.2-22.7,3.7c-5.2-1-10.5-1.6-15.8-2c-10.7-0.7-20.6,1.3-28.2,9.7
		c-5.9,6.5-6,13.5-0.3,20.2c4.3,5.1,10,8.2,16.2,10.3c11.9,4,22.7,9.9,31.2,19c5.6,5.9,9.6,6.6,17.3,2.8c19-9.5,39.6-10.3,60.4-6.6
		c22.5,4,40.7,14.8,54.4,33.1c9.1,11.9,15.9,25.5,20,39.9c2.9,10.4,7.4,18.4,17.4,23.5c4.1,2.1,7.4,3.2,11.9,2.4
		c13.7-2.6,23.9,3.4,28.2,16.1c3.8,11.3,2.4,25.7-11.8,30.7c-2.5,0.9-1.9,1.9-1.4,4c1,4.1,5.7,3.9,7.1,7.1c1.2,2.9,3.7,3.6,6.3,4.1
		c8.3,1.7,16.8,3.1,25.2,3c17.8-0.2,34.1,4.8,49.6,13.1c2.3,1.2,4.6,2.3,7.6,3.9c-7.4-14.3-5.1-26.5,4.2-37.8
		c4-4.7,7.4-9.8,10.3-15.3c3.4-6.9,3.1-13.5-0.8-19.9c-6.5-10.5-16.2-17.3-27-23.6c-0.4,3.8-0.2,7.1-1.2,10.3
		c-4.3,13.5-18.1,20.6-33.4,17.3c-10.1-2.1-17.8-8-24.8-15s-12.9-15.3-19.9-22.4c-5.9-6-6.7-11.8-3-18.9c2.7-5.2,2.3-10.2-0.8-15.1
		c-1.4-2.3-2.7-4.6-3.9-7c-2.2-4.6-2.8-9.7-0.1-13.9c3.1-4.9,2.5-9.2,0.6-14C622.1,99.2,621.7,96.9,620.9,94.7z"/>
	<path fill="#A6DFFF" d="M712.2,164.2c12.1-3.3,15.3-11.9,8.1-22.2c-4.7-6.8-11.7-9.8-19.2-11.5c-13.4-3-25.5-8-35.9-17.3
		c-5.1-4.6-11.6-6.3-19.2-6.2c-3.5-0.2-7.5,0.8-11.5,2c-10.3,3-14.4,11.6-8.7,20.6c5.6,8.9,7.7,17.1,2.5,26.9
		c-2.8,5.3,0.4,10,6.3,11.7c6.2,1.8,12.2,0.5,17.3-2.5c12.9-7.5,25.9-8,39.7-3.2C698.2,164.7,705,166.1,712.2,164.2z M672.9,126.5
		c-0.6,2.4-2.7,2.7-4.8,2.6c-3.9,0.2-6.6-2.1-8.9-4.7c-4.3-4.9-9.4-7.2-15.9-5.8c-2,0.4-4.5,0.4-4.8-2.1c-0.3-2.2,1.4-4.1,3.7-4.6
		c6.2-1.5,12.4-0.8,17.4,3.2c3.2,2.5,6,5,10,6.1C672,121.9,673.6,123.8,672.9,126.5z"/>
	<path fill="#B4B1EC" d="M376.5,669c-0.4-14.8-4.2-29.2-8.4-43.4c-0.8-2.8-1.9-2.5-3.8-1.3c-3.6,2.1-7.5,3.6-11.6,4.4
		c-9.2,2-16.8-3.2-15.9-11.9c0.6-5.7-1.9-6.8-6-7.6c-1.1-0.3-2.3-0.6-3.3-1c-2.4-0.8-4.2-0.8-5.7,1.9c-2.3,4.3-5.9,7.8-10.2,10
		c-1.1,0.5-1.9,1.3-2.4,2.4c-6.2,16-9.6,32.4-7.7,49.7c0.7,6.1,3.2,11.5,5.7,16.9c0.1,0.1,0.2,0.2,0.3,0.3c1.8,2.9,4,5.6,6.6,7.8
		s5.5,4,8.5,5.6c0.4,0.2,0.5,0.5,0.4,0.9c12.6,5.9,25.2,5.2,37.3-1.9C372.6,694.6,377,682.6,376.5,669z"/>
	<path fill="#D08BD8" d="M682.2,162.9c-7.8-2.2-16.1-1.3-23.2,2.4c-7.3,3.8-14.7,6.9-23.3,5.8l0,0c3.2,6.3,17.8,21.9,25.1,27.3
		c5.5,4.1,12,6.6,18.8,7.3c12.8,1.5,23.8-5.9,26.8-17.9c1.6-6.3-0.8-11.7-3.5-17.1c-2.1-4.3-6.1-4-9.7-4.9S685.9,163.9,682.2,162.9z
		"/>
	<path fill="#FFFFFF" d="M250.1,235.7c-1.3,3.6-3.2,6.9-3.1,10.9c0.1,4.8,3.4,7.3,8,5.8c4.4-1.4,7.8-4.8,9.1-9.2
		c1-2.6,1.6-5.4,2.8-8c5-10.8,15.2-12.1,22.4-2.8c1.5,2,3.4,3.6,5.8,3.2c6.3-1.1,9.9-6.1,13.2-10.8c2.2-3-1.1-6.3-2.5-9.7
		c-2.2,3.9-3.6,7.7-6.1,10.8c-3.3,4.1-5.7,4.3-9.6,0.9c-0.8-0.6-1.5-1.3-2.2-2c-7.4-6.4-13.8-5.7-19.2,2.4c-1.5,2.2-2.6,4.7-4.1,6.8
		c-1.5,2.2-1.8,5-4.6,6c0.1,0,0.1,0,0.2-0.1c-1.4,3.9-4.8,5.2-7.8,3.8c-3.5-1.6-0.6-4.6,0.4-6.7c2.1-4.8,3.5-9.7,3.3-14.9
		c-0.5-9.6-7-15.6-16.3-14.9c-4.2,0.4-8.2,1.8-11.6,4.3c-8.2,5.7-12.6,13.9-15.8,23c-1.3,3.6-2.2,7.3-0.7,11.3
		c2.4-5.1,4.7-10.1,7.1-15c5.7-11.7,17-13.9,26.9-12.6c7.4,0.9,9.4,4.9,6.8,12C251.6,232,250.8,233.8,250.1,235.7z"/>
	<path fill="#5A4684" d="M392.9,121.7c-0.9-12.4-7.7-20.3-19-22.4c-6-1.1-11.5,0.8-16.8,3.3c-7.5,3.5-14.4,8.4-22.2,11.4
		c-13.9,5.3-26,0.7-32.7-12.4c-3-6.1-5.4-12.5-7.1-19.1c-2.5-8.6-5.3-17.1-10.3-24.8c-7.8-11.9-18.6-17.5-32.9-17
		c-22.3,0.8-38.8,13-45.7,34.2c-1.3,4.1-2.8,8.2-4.6,12.1c-7.4,16.5-20.1,26.3-37.8,30.1c-10.7,2.3-21.5,1.7-32.3,1.9
		c-7.7,0.2-15.4,0.3-22.7,2.9c-9.3,3.3-14.1,10.1-13.7,19.1c0.2,5.1,0.6,5.4,5.5,3.6c20.2-7.4,40.4-7.3,60.2,1.3
		c2.5,1,5.2,1.2,7.7,0.4c11.4-2.8,21.7-8,31.8-14c13.7-8,28.3-13.2,44.6-11.5c7.2,0.6,13.9,3.9,18.8,9.2c1.8,2,4.1,4.5,3,7.5
		c-1.3,3.3-4.7,2.5-7.4,2.7c-1.3,0-2.7-0.1-4-0.2c-9.1-0.7-18.1-2.8-27.3-2.5c-16.9,0.6-31.3,7.9-45.3,16.5c-3.3,2-2.9,3.3-0.2,5.5
		c11,9.1,19.3,20.9,24.2,34.3c0.9,2.6,1.7,5.3,2.7,8.7c3-7.9,8-13.4,13.7-18.3c8.4-7.2,16.9-14.2,28.5-15.4
		c21.7-2.2,39.3,7.4,49.6,27c3.7,7.1,6.1,14.7,8.9,22.2c2.9,7.8,6.3,15.4,12.4,21.4c11,10.9,24.2,11.6,36.3,2
		c6.8-5.4,11.5-12.4,15-20.2c7.7-17.1,13-35.2,20-52.6c0.4-1.1,0.5-2.2,0.1-3.3c-2.1-8.2-2.6-16.8-1.5-25.2
		C393.1,134,393.3,127.9,392.9,121.7z"/>
	<path fill="#2B1F73" d="M634.2,337c-10.5,0.9-20.5-1.4-30.2-5.1c-1.1-0.4-2.7-1.7-2.9,0.8c-0.9,11.2-5.2,22.1-2.1,33.5
		c0.5,1.8,0.8,3.8-0.2,5.4s-0.3,2.9,0.4,4.1c3.9,7.6,8.6,14.6,15.1,20.3c9.4,8.3,18.9,16.3,28.9,23.9c5.3,4.1,9,8.9,8.8,17.5
		c0,9.8-7.9,17-20.1,17c-6.4,0-12.5-1.4-18.8-2.4c-2.7-0.4-4.7-0.1-5,3.5c-2.7,25.1-3.1,50.2,0.9,75.2c0.3,2.2,0.9,3.1,3.2,3.4
		c10.3,1.4,18.1,7,24.4,15.1c0.6,1,1.4,1.8,2.3,2.5c6.6,3.9,9.2,9.2,6.4,16.8c-0.9,2.4-0.4,4.4,2.7,5.2c10.8,2.8,21,7.4,31.2,11.8
		c6.7,2.9,10.7,0.4,10.8-6.5c0-1.8,0.2-3.7,0.4-5.5c1.8-17.5,8.3-33.4,15.4-49.2c1.4-2.8,1.3-6.1-0.3-8.8
		c-14.1-27.2-26.6-55-35-84.6c-2.7-9.4-4.5-18.9,0-28.3c1.2-2.5-0.5-2.9-2-3.5c-11.8-5.1-18.8-14.4-23.3-26
		c-4-10.7-6.8-21.9-8.2-33.3C636.7,337.9,636.5,336.8,634.2,337z"/>
	<path fill="#6127AC" d="M35.9,528c4.4-2.1,8.4-4.7,12.2-7.7c12.2-10.3,22.3-22.8,34.3-33.5c0.9-0.7,1.5-1.8,1.3-3
		c-1.3-10.6-1.7-21.2-2.1-31.8c-0.1-2.6-1.2-2.7-3.5-2.3c-10.6,1.8-20.1,7.6-26.7,16.1c-12.3,16-17.4,34.4-18.6,55.1
		c0,1.1,0.1,3.1,0,5.1C32.6,528.9,33.7,529,35.9,528z"/>
	<path fill="#BD94E8" d="M27.7,538.9c-2,5.3,1.8,10,7.4,8.9c3.7-0.9,7.3-2.3,10.6-4.2c2.2-0.9,3.5-3.1,3.3-5.4
		c0.1-8.1,3.8-13,11.7-13.3c6.1-0.3,9.8-3.3,13.5-7.2s6.7-7.8,10.1-11.7c0.7-0.9,1.8-1.8,1.5-3c-1-4.4-0.2-9-2.2-13.6l0,0
		c-1.4,1.3-2.6,2.3-3.8,3.5c-7.5,7.5-15,15.1-22.5,22.6c-6.6,6.7-13.9,12.3-22.7,15.9C31.3,532.8,28.8,535.5,27.7,538.9z"/>
	<path fill="#FFFFFF" d="M668.7,122.4c-2.5-0.9-5.4-1.3-7-3.5c-3.8-4.9-9-5.8-15.7-5.9c-0.6,0-1.3,0-1.9,0c-2,0.1-4,0.9-3.8,3
		s2.5,1.1,3.8,0.9c6.7-0.8,12,1.5,16.3,6.6c1.7,2.1,4,3.6,6.6,4.2c1.8,0.4,3.9,0.5,4.5-1.8C672,123.9,670.3,122.9,668.7,122.4z"/>
	<path fill="#7FFBFE" d="M682.6,399.8c-5.3-1.2-7.4-0.3-9.6,3.9c-3.4,6.6-2.8,13.6-1.4,20.5c2.9,14.2,8.2,27.7,13.5,41.1
		c7,17.6,15,34.8,23.9,51.5c3-4.3,5.4-8.4,8.4-11.9c2.1-2.5,2.2-4.1,0.5-6.8c-11.5-18.5-22-37.6-31.6-57.1
		c-3.3-6.7-6.6-13.5-7.9-20.9C677.2,413,675.8,405.5,682.6,399.8z"/>
	<path fill="#92FBFE" d="M662.8,392.6c-3.1-12-5.8-22.9-6.8-34.1s-0.8-11.3-11.6-14.2c-0.5-0.1-1-0.2-1.5-0.3
		c-1.7-0.5-2.8-0.8-2.3,1.9c2.2,12.6,5.3,25,11.9,36.2C655,386.4,658.5,390.1,662.8,392.6z"/>
	<path fill="#ACBFD1" d="M655.3,578.7c-2.4-0.6-4.8-1.4-7.1-2.3c-2.4-0.8-3.8-0.7-4.3,2.5c-2.2,11.8-7.5,21.6-18.9,27
		c-3.1,1.5-1.7,3.4-1,5.4c1,3.2,2.7,0.6,3.7,0.2c4.6-2.3,9.1-4.8,13.5-7.4c6-3.6,11.6-7.8,15.7-13.6c1.3-1.9,2.5-3.9,2.2-6.6
		C659.5,581.1,658.3,579.3,655.3,578.7z"/>
	<path fill="#FB9392" d="M503.9,202.2c-0.5,5.7,2.9,8.9,7,11.7c19.2,13.2,39,25.6,60,35.7c16.6,8,33.6,15.1,51.6,19.7
		c2.5,0.6,4.9,1.2,7.4-0.8c-8.5-3.7-16.7-7.9-24-13.3c-1.7-1.5-4.2-1.9-6.3-1c-9.8,3.3-19.6-1.7-22.5-11.5c-0.5-1.9-1.9-3.5-3.7-4.1
		c-8.3-3.8-16.6-7.6-24.8-11.6c-10.6-5.2-21.1-10.6-30.9-17.2c-6.6-4.4-8.3-8.7-6.1-16C506.4,194.8,504.3,197.6,503.9,202.2z"/>
	<path fill="#95D8EE" d="M236,562.4c-18.4,5.6-37.4,9.2-56.7,10.7c-3,0.2-4.6,1.2-5.1,4.2c-0.3,1.1-0.6,2.2-1.1,3.3
		c-0.3,1-0.7,2.2-1.7,2.2s-1.3-1.3-1.5-2.3c-0.5-2.1-0.9-4.1-1.5-6.2l-0.9,0.1c-0.8,4.3-1.4,8.7-2.3,13c-0.6,2.8-0.3,3.9,3.1,3.2
		c13.8-2.9,27.6-6,41.1-9.9c11.8-3.4,23.4-7.4,34.9-11.8c0.9-0.3,3.6,0,2.3-2.4C244.8,562.5,240.4,561,236,562.4z"/>
	<path fill="#FFFFFF" d="M159.3,514.2c-0.6-1.1-1.9-1.5-3-1c-1.4,0.8-0.6,2.2-0.2,3.1c1.4,3.1,3.7,5.7,6.5,7.5
		C163.7,519.6,161.3,516.9,159.3,514.2z"/>
	<path fill="#6CB3D0" d="M596.1,607.3c-7.5-2.6-13.4-7.9-19.7-12.5c-3.7-2.7-5.4-6.7-5.5-11.3c-0.1-4-0.2-8,0.1-12
		c0.6-9.1,2.1-18,8.3-25.1c2.3-2.6,2.2-4.7,1.4-7.6c-3.4-12-5.3-24.4-5.9-36.8c-0.6-14.7,1.2-29.2,4.4-43.5c0.6-2.8,0.6-3.5-2.6-2.9
		c-5.2,1-10.4,2.6-15.7,2.4c-3.3-0.1-4.2,1.2-4.4,4.3c-0.8,11.8-0.4,23.7-0.6,35.5c-0.2,19.6,0.7,39.3,2.8,58.8
		c1,9.4,2.5,18.8,1.7,28.3c-1.4,16.4-7.3,31.2-15.2,45.5c-0.9,1.6-2.3,2.9-2.3,5.2c1.8-0.2,3.6-0.4,5.4-0.7
		c18.6-2.7,35.3-9.4,48.4-23.4C598.6,609.6,599.5,608.5,596.1,607.3z"/>
	<path fill="#95D8EE" d="M159.1,532.8c0.2,0.5,0.4,0.9,0.6,1.4c0.5,1.4,0.8,2.9,2.9,2.7s1.1-2,1.6-3c0.7-1.2,0.2-3.4,1.9-3.7
		c1.5-0.2,3,1.2,3.4,2.5c1.3,3.8,4.2,3.5,7.2,3.3c10.7-0.7,21.4-2.7,31.6-6c1-0.3,2.6-0.1,1.8-2c-1-2.8-5.9-5.6-8.9-5
		c-12.9,2.5-25.9,4.1-38.9,5C157.1,528.3,157.1,528.2,159.1,532.8z"/>
	<path fill="#FFFFFF" d="M173.9,570.5c0-1.3-0.2-2.9-1.9-2.9c-1.3,0-1.8,1.4-1.9,2.6c-0.3,3.3,0.2,6.5,1.5,9.5l0,0
		C173.1,576.9,173.9,573.7,173.9,570.5z"/>
	<path fill="#EA74AF" d="M340.9,505.5c0-2.5-2.6-1.1-3.9-1.5c-1.8,0.1-4.3-0.5-4.5,1.9c-0.2,2.1,2.1,2.1,3.8,2.1
		C338.3,508,340.9,508.2,340.9,505.5z"/>
	<path fill="#346ABD" d="M348.5,496.2c-0.7,0.7-1.2,1.8-0.1,2.6c0.8,0.6,1.5-0.2,2-0.8c1.4-1.4,2.7-2.9,4.5-4.7
		C351.8,493,350.1,494.5,348.5,496.2z"/>
	<path fill="#F5F5F9" d="M345.7,625.5L345.7,625.5c3,1,3,1.1,5.2,0.8c10-1.6,18-6.5,24.6-14c5-5.6,7.5-12.5,6.2-19.8
		c-2.7-14.7-5.7-29.3-15.4-41.5c-5.8-7.4-6.5-15.4-1.7-23.7c2.5-4.3,5.1-8.6,7.5-12.9c3.2-5.9,4.7-12,3.1-18.7
		c-0.8-3.7,0-7.2,1.4-10.7c1.7-4,3.3-8,4.8-12c2.4-6.9,4.2-14,3.9-21.4c-0.2-4.6-1.8-5.5-5.6-3.1c-6.5,4-13.1,7.9-17.9,14.2
		c-1.8,2.7-5.3,3.9-8.4,2.8c-4.8-1.2-9.9-1.4-14.8-0.4c-4.7,0.8-9.6,0.7-14.4,1.2c-3.3,0.3-5.6-0.9-7.9-3.2
		c-5.8-5.8-11.3-11.8-18.8-15.5c-4.2-2.1-5.5-1.3-5.2,3.3c0.5,8.5,2.1,16.8,6,24.5c3.1,5.7,4.4,12.3,3.6,18.8
		c-1.2,10.1,0.4,19.5,7.5,27.5c2.2,2.5,3.9,5.6,3.4,9.1c-0.4,2.8,1.1,4.1,3.2,5.5c9,6,17.5,12.8,26.8,18.2
		c10.7,6.2,16,14.8,18.3,26.9c3.5,18.5,2.2,22-15.6,27.8c-2.3,0.8-4.8,1.4-5.6,4.2c2.2,1.6,4.6-1,6.9,0.9c-1.6,1.5-3.5,0.8-5.2,1
		c-1.3,0.2-2.8,0-2.7,2c0.1,1.6,0.4,2.6,2.4,3c3,0.7,5.8,0,9.4,0c-3.5,2.9-6.9,1.7-10.7,1.4c3.7,4.3,7.8,1.7,11.7,1.9
		C350.3,626.1,347.5,624.4,345.7,625.5z M366.6,466.7c4-4.2,8.3-8,14.3-10.5c0.5,8.1-2,15-5.8,21.6c-1,1.7-1.9,1.6-3,0.1
		c-1.4-1.9-2.8-3.9-4.1-5.8C364.2,471.2,364.1,469.4,366.6,466.7z M302,476.1c-3.2-6.4-5-13.5-5-20.6c0-2.2,0.5-3.4,2.8-1.8
		c1.8,1.3,4.3,1.7,5.2,4.1c2,0.2,3,1.8,4.3,3c5.6,5.4,5.5,5.4,0.1,10.5c-1.5,1.5-2.9,3.2-4,5C303.9,478.7,303,478.2,302,476.1z
		 M327.5,500.6c-1.5,1.3-3.1-1.2-4.4-2.3c-4.6-3.8-4.6-3.9-14-4.3c3.2-2.2,7-3.3,10.9-3.4c2.9-0.1,5.6,1.5,6.8,4.1
		C327.9,496.6,329.3,499.1,327.5,500.6z M341.3,515.9c-3.7-3.7-7.8-0.1-11.5-0.8c-0.1-1.3,0.7-1,1.2-1.1c0.7,0,1.3-0.1,2-0.2
		c1.3-0.4,2.3-1.5,2.5-2.8c0.3-1.7-1.2-1.6-2.2-2c-1.5-0.3-2.6-1.7-2.4-3.3c0.1-1.8,1.3-2.5,2.9-3c1.9-0.7,3.9-0.9,5.9-0.4
		c1.4,0.5,3,0.9,3.2,2.7c0.2,1.8-1,2.7-2.2,3.6c-1.3,0.9-4.5,0-2.6,3.2c1.3,2.2,3,3.7,5.6,1.8c0.7-0.3,1.4-0.6,2.2-0.9
		C344.3,515.2,342.2,516.8,341.3,515.9z M351.1,499.3c-0.8,1.2-2,2.4-3.7,1c-1.9-1.5-1.6-3.1-0.4-4.8c3.5-5.1,12.3-5.7,18.1-0.7
		C358.9,493.1,354.4,494.3,351.1,499.3z"/>
	<path fill="#95D8EE" d="M189,587.3c-7.3,1.6-14.5,3.4-21.9,4.7c-4.2,0.8-3.7,4.2-4.5,6.8c-0.3,1.1,0.1,1.2,4.9,0.3
		c18.3-3.3,36.3-7.7,54-13.3c11.4-3.5,22.7-7.3,33.7-11.9l0,0c-3.3-4.8-6.9-5.2-12.1-3.1C225.6,577.7,207.5,583.2,189,587.3z"/>
	<path fill="#95D8EE" d="M245.4,599l43.8-4c-3.1-1.8-5.1-2.7-6.7-4.1c-6.5-6-12.8-6.3-20-0.7C257.5,594.1,251,595.7,245.4,599z"/>
	<path fill="#479499" d="M219.7,613.9c20.8,3.8,41.4,0.9,62.1-1.4c7-0.8,7.7-1.9,8-9.1c0.3-5.6,0.3-5.9-5.5-5.4
		c-15.1,1.3-30.1,2.6-45.2,4.3c-10.8,1.2-21.7,2.4-32.8,4.9C210.1,611.8,214.8,613.1,219.7,613.9z"/>
	<path fill="#6EC3EE" d="M219.7,542.3c-17.2,3.8-34.5,7.3-52.2,6.8c-0.7,0-1.8-0.4-2.1,0.7c-0.2,0.9,0.6,1.5,1.2,2
		c3.2,2.2,6.4,0.8,9.6,0c2.2-0.5,4.8-2.2,5.9,1.1c1.1,3.3-1.7,4.2-4.1,5.1c-0.8,0.3-1.6,0.5-2.4,0.6c-10.1,1.7-7.9,2.2-8.1,10.2
		c-0.1,0.8-0.1,1.6-0.1,2.4l1.1,0.1c0.1-0.9,0.2-1.9,0.5-2.8c0.5-1.4,1.2-3,3-2.9c1.6,0,2.9,1.3,2.9,2.9l0,0c-0.1,4.1,2.6,3.5,5,3.2
		c12.7-1.5,25.4-3.1,37.9-6.1c7.1-1.7,14.3-3.1,21.3-6.2c-5.1-5.5-10-10.6-14.6-15.8C223.4,542.3,221.4,541.7,219.7,542.3z"/>
	<path fill="#346ABD" d="M165.7,614.1c18.3-4.6,36.5-9.7,55.3-12c16.6-2,31.8-7.6,46.2-16c2.6-1.5,3.8-2.6,0.2-4.4
		c-2.5-1.3-4.8-2.9-7-4.7s-4.2-1.9-6.8-0.8c-28.7,11.2-58.5,19.6-88.8,25c-1.9,0.3-3.4,0.9-4,3c-1.2,4.3-4.2,7-8.3,8.5
		C156.6,616.3,160.9,615.3,165.7,614.1z"/>
	<path fill="#95D8EE" d="M207.5,531.8c-9.3,3.1-19,4.9-28.8,5.4c-2.3,0.1-5-0.2-6.9,0.9c-2.7,1.5-4.8,2.4-7.5,0.3
		c-0.7-0.6-1.8-0.6-2.4,0.1c-0.2,0.2-0.3,0.5-0.4,0.8c-0.9,3.7,3,8.5,6.9,8.5c17.7-0.1,34.9-3.4,52.9-7.4c-1.9-2-3.7-4.1-5.4-6.3
		C213.8,531,211.3,530.6,207.5,531.8z"/>
	<path fill="#FFFFFF" d="M168.3,538.2c1.2-0.1,1.6-1.6,1.2-2.8c-0.5-1.3-1-2.7-3.1-3.2c-0.3,1-0.4,2-0.5,3
		C166,536.7,166.4,538.4,168.3,538.2z"/>
	<path fill="#2C3076" d="M141,521.6c-1,2.1-1.7,4.3-1.9,6.7c-1.7,17.2-2.8,34.5,0,51.7c1.3,8,2.4,16.2,7.1,23.1
		c1.8,2.7,3.9,6.1,7.6,5.7c3.7-0.4,4.2-4.4,5.1-7.3c4-12,6.6-24.4,6-37.1c-0.2-4.5,1.6-6.7,6-7.6c2.5-0.5,5.4-0.2,8.4-3l-3.2,0.8
		c-9.3,2.3-12.8,0.3-15.5-8.8c-0.3-1-0.5-1.9-0.8-2.9c-2.1-7.9-5.6-15.3-10.1-22.1C146.4,516.1,143.5,516.5,141,521.6z"/>
	<path fill="#FFFFFF" d="M609.6,202.5c2.5,0.5,4.3,0.8,6,1.3s3.3,1.5,5,2c0.7,0.2,1.9,0.1,2.2-0.3c0.5-0.7-0.3-1.5-0.8-2.1
		C619,199.6,615,199.1,609.6,202.5z"/>
	<path fill="#3C1B98" d="M620.7,244.4c-2.1,0.9-4.5,1-6.7,3c3,1.1,5.2,3.5,8.2,1.9c1-0.5,3.7,0.7,2.8-2.1
		C624.4,245.4,623.3,243.4,620.7,244.4z"/>
	<path fill="#F27FAE" d="M304.5,592.3c2.6-4.4,4.8-9.1,6.7-13.9c2.2-5.1,4.5-10.2,10.2-12.3c2.5-0.9,0.9-2.3,0.7-3.6
		c-0.3-1.9-1.4-2-2.8-1.5c-1.9,0.7-3.7,1.5-5.6,2.1c-2.1,0.7-3,1.7-1.9,4c0.7,1,0.4,2.4-0.6,3.1c-0.4-6.2-3.9-5.3-7.8-3.7
		c-1.2,0.5-2.5,0.9-3.8,1.1c-2.1,0.4-2.6,1.2-1.8,3.3c0.8,2.4,2.2,4.8,1.7,7.5c-1.3-2.5-2.4-5.1-3.3-7.7c-1.9-4.4-5.4,1.2-7.6-1.2
		c7-3.2,7-3.2,2.8-12.1c-2.5,4.3-3.5,4.3-12.3,0.1c0.2,3.6-1.2,4.8-4.2,2.4c-3.2-2.6-6.7-5-8.1-9.1c3.9,1.8,5.5,6.6,10.5,8.2
		c-2.4-6.4-6.8-10.6-9.9-15.7c3,1.7,4.9,4.4,6.7,7.1c2.5,3.8,6.1,6,10,7.8c1.5,0.7,3.5,1.5,4.7,0.2c1.4-1.4-0.1-3.1-1-4.4
		c-2.5-3.5-5.2-6.8-7.9-10.1c0,0,0,0,0.1,0c-4.3-1.8-6.9-6.2-12.2-7l14.5,17.2l-1,0.8c-3.9-4.5-7.8-8.9-11.7-13.4
		c-1.4-1.7-2-1.7-3.4,0.3c-2.5,3.5,0,6.1,0.7,9.1c-2.5-2.8-4.7-3.3-6.5,0.8c-0.6,1.5-1.8,2.7-3.4,3.1c-0.1-0.5-0.2-0.7-0.1-0.8
		c0.3-0.6,0.7-1.1,1.1-1.6c10-11.1,11.5-23.5,6-37c-2-4.8-7.5-7-12.3-5c-0.3,0.1-0.5,0.2-0.8,0.4c-2.9,1.7-6,1.5-7.8-0.7
		c-4.1-5-9.8-5.2-15.3-5.7c-5.7-0.5-11.6-1.3-17.7,1c11.1,1.9,33.6,14.9,37.3,25.4c-1.1,0.4-1.4-0.6-1.8-1.2
		c-7.4-10.2-17.9-16.2-29.2-21c-3.8-1.6-8.8-4-12,0.1c-3.4,4.4,0.2,8.6,3,12c4.5,5.4,9.4,10.3,13.9,15.7c18.4,22.1,40,40.4,65.4,54
		c3.4,1.7,6.9,3.2,10.5,4.5C300.6,596.3,302.7,595.4,304.5,592.3z"/>
	<path fill="#4821AE" d="M547.2,178.9c-12.5,1.9-22.4,8.7-32.2,15.9c-2.3,1.7-2.5,4.2-1.4,6.7c1.1,2.4,3,4.5,5.3,5.8
		c17.2,11.1,35.8,19.7,54.3,28.3c2.1,1,3,0.7,2.9-1.8c-0.2-3.7,0.7-7.2,1.6-10.8c3.3-12.9,11.8-21.2,24.6-26.3
		c-5-4-10.3-7.5-16-10.3C573.9,180.4,561.2,176.8,547.2,178.9z"/>
	<path fill="#B2E5FF" d="M638.9,215.7c-1.8-11.8-9.7-18.7-21.4-18.8c-24.2-0.1-41.3,18.4-38.6,41.8c1.3,11.3,12.5,17.6,22.4,11.8
		c7.4-4.3,15.2-7.3,23.2-10.2C637.2,235.7,640.9,229.1,638.9,215.7z M624.7,206.7c-0.8,1.1-2.1,1.3-3.5,0.8c-3.3-1-6.4-2.6-9.8-3.1
		c-1.2-0.2-2.9-0.5-3-2.1s1.3-2.1,2.5-2.8c1.1-0.5,2.3-0.8,3.5-0.7c4.8-0.3,7.5,1.8,9.6,4.6C624.6,204.4,625.5,205.5,624.7,206.7z"
		/>
	<path fill="#346ABD" d="M311,464.7c-1.8-2.4-4.9-3.8-6.1-6.7c-1.3,0.5-2.1-0.6-2.9-1.2c-2.2-1.5-3.5-1.8-3.3,1.7
		c0.2,6.1,1.9,12.1,4.9,17.3c2.5-2.8,4.2-5.7,7.2-7.4C312.8,467.2,312,466.1,311,464.7z"/>
	<path fill="#00F9FF" d="M565.4,137.3c-1.3,3.7-2.2,6.7-3.4,9.6c-4.8,11.7-13,19.5-25.7,22c-10.1,2-20.5,0.3-29.4-4.8
		c-7.3-4-14.3-8.3-21.5-12.5c-8.5-5-17.5-8.7-27.4-10.2c-11.3-1.7-27.8,5.4-29.2,21.4c-0.4,4.9-0.8,10.4-4.2,14.1
		c-4.2,4.6-3,8.3-0.1,12.6c0.8,1.1,1.3,2.3,2,3.5c10.5,18.7,25.8,33.3,40.9,48.1c2.4,2.4,4.4,4.8,7.4,0.4c1.3-1.9,3.9-2.5,6.2-3
		c1.8-0.3,3.3-1.5,3.9-3.3c3.8-9.2,8.8-18,14.7-26c1.1-1.6,1.7-3.6,1.5-5.5c-0.2-7.5,3.7-11.9,11.1-12.8c3.1-0.4,6.1-1.5,8.6-3.4
		c7-4.9,14.5-8.8,22.9-10.6c12.8-2.7,25.1-0.6,37.1,4.1c0.9,0.3,1.8,1.3,2.7,0.6c0.8-0.5,0.4-1.5,0.2-2.3
		C579.3,164.9,574.1,150.8,565.4,137.3z"/>
	<path fill="#B1FDFE" d="M297.8,195.1c-10.5-18.3-29.4-27.9-48.7-23c-16.2,4.1-28.1,14.6-36.2,29.2c-1.3,2.4-2.6,5.4-2.4,8
		c0.6,7,0.5,14.1,0.8,22.4c1.8-3.5,2.8-5.9,4.1-8.2c4.6-8,10.6-14.5,19.9-17.2c10.8-3.1,20.9,3.1,21.8,13.4c0.5,5.8-0.4,11.7-2.8,17
		c-0.8,1.7-3.2,3.8-1.6,5.3c2,1.9,4.2-0.6,6.1-1.8c0.4-0.1,0.8-0.3,1.2-0.4c2.3-5.7,5.5-11,9.2-15.8c5.3-6.5,11.9-7,18.3-1.7
		c1.4,1.2,2.8,2.4,4.1,3.6c2.3,2.2,4.5,2.1,6.3-0.4c4.8-6.5,9.6-13,4.3-21.6C300.4,201.3,299.4,198.1,297.8,195.1z"/>
	<path fill="#0096D7" d="M337.2,277.9c2.2,1.2,4.1,0.6,5.9,0.3c4.4,0,8.6,3.7,9.8,8.9c0.5,2.1,1.3,4.1,2.4,6
		c3.6,6.2,7.2,12.4,10.7,18.5c0.7,1.2,1.1,2.5,3,3c8.8,2,13.6,11.3,10.4,19.9c-0.5,1.3-1.5,2.4-0.7,4.1c4.5,9.3,10.3,17.4,18.9,23.4
		c1.2,0.8,2.3,1.6,2.9-0.5c1-3.5,3.4-6.1,5.6-8.8c1.4-1.9,1.6-3.2,0.3-5.2c-20.4-30.8-35.5-64.8-44.7-100.5c-0.8-3.1-2-2.8-4.2-1.2
		c-6.2,4.2-13.1,6.6-20.7,4.9c-2.9-0.7-2.5,1-2.5,2.7c0,5-0.1,10-1.3,14.9C331.2,274.7,331.3,274.6,337.2,277.9z"/>
	<path fill="#00E9F9" d="M196.7,273.4c-3.4,1.4-6.8,3.7-7.7,7.9c-3.3,16.1-6.6,32.2-10,48.2c-0.7,3.3,0.2,5,3.1,6.7
		c13.3,8,28.5,12.3,44.1,12.5c9.7,0.2,15.4-4.4,17.8-13.7c4.3-16.4,9-32.7,19.3-46.6c9.7-13.1,22.3-20.6,38.9-20.9
		c8.2-0.1,16.3,1.6,23.8,4.9c3,1.3,4.2,0.6,4.8-2.3c1-4.7,2.2-9.4,2.2-14.6c-0.7-2,1.5-5.1-1.9-6.8c-9.1-4.4-15.3-11.6-19.5-20.6
		c-1-2.1-1.8-2.5-3.4-0.6c-1.9,2.1-3.9,4.1-6,6c-5.7,5.1-10.1,4.6-14.6-1.4c-4.6-6.2-10.3-6.6-16-1.2c-3.2,3-4.3,7-5.5,11
		c-1.5,5.2-4.4,9.3-9.7,11.3c-2.9,1.1-5.9,1.3-8.5-0.8s-3-4.9-2.3-8.2c0.7-3.1,1.7-6.1,3-8.9c1.1-2.6,2.3-5.2,3.1-7.9
		c1.1-3.4-0.1-5.8-3.5-7.2c-8.2-3.3-21.2,0.1-26.1,7.4c-5.6,8.5-9.7,17.9-12,27.8C208.2,263.7,204.8,270,196.7,273.4z"/>
	<path fill="#346ABD" d="M373.8,476.7c3-4.6,4.8-9.8,5.4-15.2c0.1-0.8,0.6-1.7-0.2-2.3c-0.8-0.5-1.5,0.2-2.2,0.7
		c-3,1.8-5.4,4.4-8.1,6.6c-2.2,1.9-1.8,3.5-0.8,5.5C370.9,472.2,371.2,475.7,373.8,476.7z"/>
	<path fill="#FB9392" d="M567.5,313.4l-0.5-11.9c-0.1-1.4,0.2-2.9-1.6-3.7c-7.2-3.2-14.3-6.6-21.4-9.9
		C551.9,296,559.5,304.2,567.5,313.4L567.5,313.4z"/>
	<path fill="#FFFFFF" d="M506.4,272.9c-14.7,0.5-27.4,6.5-38.6,15.5c-24.9,20-43.8,45.5-63,70.6c-2.9,3.8-1.5,6.7,3.2,8
		c5.3,1.4,9.8-0.5,13.9-3.7c5.6-4.3,10-9.8,14.1-15.4c4.1-5.7,8.4-11.7,13.9-16.3c8.2-6.8,15-4.3,17.2,6.2
		c1.4,6.4,0.2,12.6-0.5,18.9c-0.8,7.1-1.7,14.2-0.5,21.4c0.9,5.3,3.9,9,8,9.8c4.5,0.9,8-1.1,10.8-6.2c1.2-2.3,2.3-4.8,3.3-7.2
		c4.4-11.2,6.7-22.9,9.8-34.5c2-7.4,4.7-14.5,9.6-20.7c1.5-1.8,3-3.8,5.7-3.3s3.4,3,3.8,5.3c0.5,2.8,0.8,5.6,1.1,8.4
		c0.8,7.1,0.7,14.4,5.2,20.5c1.9,2.5,4,5.4,7.7,4.1s4.6-4.6,4.7-8.1c-0.1-1.3-0.3-2.6-0.5-4c-0.5-5.6-2.2-11.2-0.1-16.8
		c2-5.3,6-6.7,10.6-3.5c3.6,2.5,6.3,5.9,9,9.4c6,7.6,10.3,16.3,15.5,24.4c4.3,6.6,9.6,12,17.2,14.5c2.8,0.9,6.3,2.3,8.6,0
		s0-5.4-1-7.8c-14.8-33-37.9-61.5-67.1-82.8C521.8,275,514.2,272.6,506.4,272.9z"/>
	<path fill="#CC95EA" d="M598.4,332.7c1.6-11.5,4.5-22.8,7.1-34.1c1.8-7.7-0.3-10.7-7.8-12.7c-5.3-1.4-10.6-0.9-15.9-0.9
		c-9.2,0-11.7,2-12.1,11.2c-0.5,11-0.5,21.8,7.9,30.9c4.1,4.4,7,10.1,10.2,15.3c2.4,3.9,4.6,7.9,7.4,12.9l0,0
		C596.4,347,597.4,339.8,598.4,332.7z"/>
	<path fill="#6CB3D0" d="M598.1,452.3c-0.6,0.2-1.3,0.4-2,0.4c-4.3-0.4-5.5,2.2-6.1,5.9c-1.9,11-3.4,22-3.2,33l0,0
		c-0.5,14.2,2.6,27.9,4.7,41.7c0.4,2.7,1.4,3.5,4.1,2.5c2.5-1,5.1-1.5,7.7-1.7c3-0.1,3.4-0.9,2.9-3.8c-3.5-23.6-3.9-47.5-1.2-71.1
		C606,451.3,605.8,451.1,598.1,452.3z"/>
	<path fill="#3C1B98" d="M630.6,275.7c-0.4-2.9-1.5-4-4.5-3.5c-2.6,0.4-5.3-0.3-7.8-1.1c-26.8-8.1-52.4-19.5-76.3-34
		c-13.6-8.3-27.5-16.2-39.8-26.9c-7.1,9.7-12.9,20.3-17.2,31.6c-2.5,6.5-2,9.8,3.1,14.6c5.5,5.2,12.3,8.5,19.1,11.6
		c5.7,2.7,12.2,3.5,17.6,6.9c12,7.6,25.3,12.5,37.9,18.8c3,1.5,4.6,1.5,5.1-2.3c0.6-4.4,3.2-7.4,7.5-8.3c7.7-1.6,15.6-1.5,23.3,0.3
		c8.4,1.9,10.9,5.9,9.7,14.4c-0.2,2-0.6,3.9-1.2,5.8c-1.5,3.9,0.6,4.8,3.7,5.2c6.3,0.6,12.6,1.1,18.9,1.9c3.5,0.4,4.7-0.7,4.5-4.3
		C633.3,296.1,632,285.9,630.6,275.7z"/>
	<path fill="#FFFFFF" d="M392.9,178.4c-0.6,1.7-0.9,2.7,0.9,3.7c5.2,2.8,10.6,4.8,16.7,3.4c10-2.4,15.3-9,16.5-20.4
		c1.7-15.7,12.3-25.3,28-25c11.5,0.2,21.5,5,31.3,10.5c7.4,4.2,14.5,8.7,22,12.8c8.5,4.7,18.5,6.2,28,4.1
		c15.4-3.1,22.9-14,26.8-28.3c0.9-3.5,0.5-5.8-2.7-8c-0.6,1.8-1,3.2-1.5,4.6c-5.1,15.5-20.6,25-36.7,22.5
		c-15.9-2.1-30.9-8.3-43.8-17.9c-13.8-10.3-28.6-10.3-43.9-4.1c-7.4,3.1-13.6,9.3-11,20.2c2.5,10.7-4.1,19.5-14.8,21.4
		c-4.3,0.7-8.7,0.2-12.8-1.2C394.1,175.9,393.5,176.7,392.9,178.4z"/>
	<path fill="#0094D8" d="M395.2,172c-0.7,1.7-0.4,2.7,1.6,3.3c5.2,1.5,10.4,2,15.6-0.1c2.6-1,3.3-2.3,2.4-4.9
		c-2.9-8.5-4.2-17.3-5.3-27.5C403.2,152.7,399.2,162.3,395.2,172z"/>
	<path fill="#7285CF" d="M189.2,147.2c16.2-8.9,33.1-14.7,52-11.3c5.9,1,11.9,1.5,17.8,2c1.6,0.1,3.7,0.6,4.6-1.1
		c1.1-2-0.7-3.5-1.9-4.8c-5.6-6.1-12.9-8.7-21-8.9c-11.7-0.3-22.8,2.9-33,8.3C194.9,138,183,146.3,168,149c8,6.3,8,6.3,15.6,1.5
		C185.5,149.4,187.3,148.2,189.2,147.2z"/>
	<path fill="#7486CD" d="M686.9,274.8c12.6,3.7,23.5,10,32,20.1c3.3,3.9,6.6,8,12.5,8c3,0,4.7-1.1,4.6-4.5l0,0
		c-1-6.3-4.5-11.9-9.6-15.7c-7.7-6-16.5-9.9-25.4-13.6c-8.7-3.7-18-5.9-27.5-6.3c-15.2-0.7-30.6-1.4-45.1-6.8
		c-5.4-2-10.9-4-16.1-6.5c-2.8-1.3-4.9-0.2-6,1.5c-1.1,1.8,1.6,2.4,2.8,3.2c15.5,10.8,32.5,16.8,51.7,16.9
		C669.7,271.1,678.5,272.4,686.9,274.8z"/>
	<path fill="#BEFEFF" d="M412.4,138.2c-0.7,1.1-1.5,2.2-1.4,3.6c0.6,9.6,2.4,19.1,5.1,28.3c0.5,1.8,1.4,2,2.7,0.6
		c3.3-3.4,4.6-8.3,3.6-12.9c-2.3-11.4-0.4-18.3,13.3-23.6c15-5.8,30-5.4,43.5,4.9c12,9.2,25.7,14.3,40.3,17.4
		c16.3,3.6,32.7-5.7,38.1-21.4c1.6-4.4,0.9-7.6-2.4-11.1C537,104.3,514,97,488,96.7C455.1,96,430.1,110.4,412.4,138.2z"/>
	<path fill="#FFFFFF" d="M139.7,171.7c4.5,0.2,9.3-3.9,9.3-7.9c0-4.2-3.7-7.5-8.8-7.6c-4.7-0.1-8.1,2.7-8.3,6.7
		C131.8,167.4,135.2,171.2,139.7,171.7z"/>
	<path fill="#8C5BA0" d="M342.2,62.7L342.2,62.7c-8,0.1-13.2,5-13.2,12.5c-0.1,7,5.5,12.7,12.4,12.8l0,0c7.1-0.1,13.7-6.6,13.5-13.3
		C354.8,67.8,349,62.5,342.2,62.7z"/>
	<path fill="#8696CE" d="M42.2,236c-2.8,0.3-4.9,2.6-5.1,5.3c-0.2,1.6,0.3,3.3,1.4,4.5c3.9,4.3,9.1,5.8,14.5,7
		c1.8,0.4,1.7-0.6,1.2-2c-1.2-3.6-2.3-7.2-3.3-10.9C49.8,236.4,47.4,235.2,42.2,236z"/>
	<path fill="#807CA8" d="M43,275.8c-2.9,15.3,3.7,30.8,16.7,39.3c8.5,5.5,18.1,7.9,28.9,9.2c2.9,1.1,4-0.4,4.6-4.1
		c1.1-7.2,2.8-14.3,4.4-21.4c0.4-2,0.2-3-1.7-3.9c-16.1-8.2-29-19.9-37.8-35.8c-1-1.9-1.9-1.8-3.4-0.6C49,263,44.5,268.3,43,275.8z"
		/>
	<path fill="#423269" d="M136.3,71.6c-5.4,1.5-11,2.5-16.6,3.1c-1.6,0-3.2,0.9-4,2.3c-7.1,11.6-14.5,23.1-21.8,34.7
		c-3.7,5.9-7.6,11.8-12.6,16.7c-9.2,8.9-19.6,10.7-31.1,5.2c-1.6-0.8-3.1-1.6-5.2-2.7c1.2,7.6,5.2,13.1,9.3,18.4
		c4.1,5.3,8.2,10.5,10.4,16.9c1.2,3.6,2.2,2.6,4,0.5c6-7.2,13.4-13.1,21.7-17.3c2.8-1.4,2.8-3.2,2.4-5.6
		c-1.6-10.3,2.5-18.3,11.9-22.9c5.4-2.5,11.4-3.9,17.4-3.9c10.8-0.3,21.7,0,32.5-1c20.2-1.8,35.9-10.5,44.5-29.7
		c2-4.2,3.6-8.6,4.9-13c4.7-16.2,15.5-26.4,31-32c25.3-9.2,46.5,0.1,57.2,24.8c1.6,3.6,2.8,7.5,4,11.2c2.6,8.2,4.8,16.6,9,24.3
		c3.8,7.2,9.7,11.3,17.8,12c5.7,0.5,10.8-1.6,15.7-4.1c7.4-3.7,14.3-8.5,22.2-11.3c16.7-6,31.7,3.5,34.5,21.1
		c1.4,8.8-0.2,17.3-0.5,25.9c-0.3,7.4,0.2,13.4,1.8,16.2c0.3-0.4,0.5-0.8,0.8-1.3c9-19.2,20.1-36.8,37.1-50c2.2-1.7,1-2.5-0.2-3.8
		c-10.1-10.2-21.4-18.4-35.1-23.1c-12-4.1-21.9-10.4-23.2-25c-5.6,3.4-10.6,6.6-15.8,9.5c-2.4,1.3-3.1,2.7-2.7,5.5
		c1,6.8-3.1,13.2-10,16.1c-6.2,2.7-13.9,1.8-16.8-4.2c-3.8-7.9-10.2-12.4-16.3-17.6c-2.1-1.8-3.6-4.4-5.1-6.7
		c-5.1-7.8-7.7-16.5-10.2-25.3c-3.3-12.1-4.3-25-11.9-35.6h-96c-7.4,16.6-12.7,34.3-23.8,49.1C159.3,59.7,149.2,67.7,136.3,71.6z"/>
	<path fill="#2E1279" d="M32.1,595.1c-0.4,1.7-1,4.2,2,4.7l12.1,2.2l0.3-0.9c-3.7-2-7.4-4.2-11.2-6.1
		C34.5,594.7,32.8,592.1,32.1,595.1z"/>
	<path fill="#FB9392" d="M644.8,325.9c-0.3-5-6.2-12.7-10.4-12.7c-8.6,0-17.2-0.7-25.8-2.2c-2.3-0.4-3.7,0.1-4,2.8
		c-0.5,3.8-1.5,7.5-2.4,11.2c-0.6,2.4,0.3,3.5,2.6,4.4c7.7,3,15.8,4.8,24.1,5.4c2.3,0.1,4.7-0.1,6.9-0.7
		C642.2,332.9,645,330.3,644.8,325.9z"/>
	<path fill="#91D4F1" d="M140.8,605.9c1.8,3.7,3.4,7.2,8.7,5.8c0.6-0.2,1.2-0.2,1.7,0c-7.1-5.3-11-12.6-12.8-21.2
		c-4.6-21.4-4.3-42.9-1.3-64.5c0.6-4.5,1.9-9.7,6.5-10.8c5.6-1.4,8.5,3.6,10.7,8c1.8,3.8,4.1,4.6,8.1,2.7c-2.7-2.7-5.6-4.8-7-8.1
		c-0.8-1.9-2.6-4.3,0.2-5.6c2.3-1.2,5.2-0.3,6.5,2c1.6,2.2,2.4,4.8,2.5,7.5c-0.1,4.3,2.2,4.7,5.6,4.3c10.3-1,20.4-2.5,30.6-4.3
		c2.1-0.4,3.3-0.8,1.9-3.7c-4-8.1-0.6-14.4,8.6-15.9c4.4-0.7,9-1.5,13.4-0.4c14.2,3.7,25.9-2.1,37.3-9.4c0.3-0.2,0.7-0.3,0.8-0.5
		c0.6-0.8,2.3-0.7,1.8-2.6c-5.3,0.4-10.6,0.5-15.9,1.2c-32.9,4.6-65.5,10.9-98.1,17.3c-8.2,1.6-12.3,5.9-14.4,13.6
		c-5.2,18-6,36.9-2.6,55.3C135.3,586.5,136.1,596.7,140.8,605.9z"/>
	<path fill="#E6DEF3" d="M384.6,739.9c20.9,15.5,42.6,29.7,66.1,40.8c11.5,5.5,23.6,9,38,9c5.8-0.5,13.2-0.7,19.8-4.5
		s8.2-9.2,4.6-16c-2.7-5.1-7.2-7.7-12.5-9.1c-8.4-2.2-17.2-1.8-25.7-3.5c-30.5-6.4-60.6-14-85.5-34.4c-1.8-1.5-2.7-1.3-3.4,1.1
		c-0.8,3.6-1.9,7.1-3.3,10.4C381.4,736.5,382.3,738.1,384.6,739.9z"/>
	<path fill="#BD94E8" d="M135.1,515.5c0.9-2.7,2.7-5,5-6.7c10.3-7,15.5-17.4,19.4-28.7c0.6-1.4,0.5-3-0.4-4.2
		c-2.7-3.8-5.8-7.1-11.4-9.1c5.2,8.8,1.6,15.7-2.9,22.3c-6.6,9.8-14.3,18.8-23,26.8c-6.9,6.3-9.6,12.6-4.8,21.6
		C124.1,531,131.5,524.9,135.1,515.5z"/>
	<path fill="#2B1C6F" d="M166.1,500.3c-0.2-6.6-1.6-13-4.2-19.1c-2.8,8.9-7.4,17.1-13.4,24.2l15.7-3.2
		C165.3,502,166.1,501.5,166.1,500.3z"/>
	<path fill="#2E1279" d="M84.2,510.3c-3.7,4.7-7.8,9.1-12.3,13.1c-1.6,1.3-1.1,2,0.7,2.7c7.1,2.8,12,8.1,16,14.5
		c0.4,0.7,0.7,1.8,1.7,1.5c1.6-0.3,0.7-1.5,0.8-2.1c-1.4-9.8-2.8-19.4-4.2-28.9c0-0.6-0.3-1.3-0.8-1.7
		C85,508.7,84.6,509.8,84.2,510.3z"/>
	<path fill="#40B8C1" d="M392.4,714.7c8.8-2.6,17.5-1.3,25.9,1.9c9.2,3.5,18.2,7.3,27.3,11c16.4,6.8,32.5,14.4,49.8,18.9
		s36.2,1.9,40.5-24.8c1.3-8.2,4-16.2,7.9-23.5c6.7-12.7,17.2-18.8,31.5-19.1c13-0.3,25.5,2.4,37.9,5.5c3.4,0.8,4.1,0,4-3
		c-0.2-4.5,0-8.8,0-13.1l0,0c-0.1-18.5-2.9-36.7-7.2-54.8c-0.4-1.8-0.6-3.3-3.1-3.7c-5.6-0.8-8.1,1.1-7.8,6.9
		c0.6,13.5-2.3,25.7-14,33.9c-14.5,10.1-30.5,14.5-48.2,11.2c-2.9-0.6-5.8-1.5-8.7-2.2c-10.8-2.5-17.3,1.5-20,12.2
		c-0.5,1.9-0.8,3.9-1.4,5.8c-3.2,9.7-9.8,15.8-19.9,17.4c-17.8,2.7-32.9-3-44.9-16.2c-5.9-6.4-10.9-13.4-16.6-20
		c-3.7-4.3-8.2-7.8-13.9-9.4c-6-1.6-10.6,1.3-15.3,4.3c-3.6,2.4-1.4,5.8-1.6,8.7s0.1,5.7,0,8.5c-0.3,13.5-2.1,26.9-5.4,40
		C388.5,713.9,388.3,715.9,392.4,714.7z"/>
	<path fill="#533874" d="M690.5,348.4c7.5-10.6,18.8-17.8,31.6-20.4c4.1-0.8,8.1-1.9,11.9-3.5c7.8-3.5,15.2-8.2,15.7-17.7
		s-6.2-14.9-13.4-19.5c-0.7-0.3-1.5-0.5-2.2-0.6l0,0c2.2,3.7,3.8,6.8,4.5,10.2c1.1,5.6-2.5,9.5-8.2,8.8c-4.9-0.6-8.7-3.3-11.7-7
		c-13.9-17.2-32.7-23.6-54-24.7c-9.5-0.5-19-0.7-28.1-3.5c-3.2-1-4.2-0.2-3.7,3.3c1.4,10,3.1,20,3.5,30.2c0.2,4.4,1.4,8,5.2,10.5
		c1.4,1.1,2.6,2.6,3.5,4.2c4.1,6.5,2.8,12.3-3.6,16.5c-1.2,0.8-2.2,1.4-1.8,3.1c0.3,1.4,0.9,2.4,2.5,2.7c1.1,0.3,2.2,0.6,3.3,1
		c12.7,3.9,26,5.1,38.9,8.5C687.2,351.2,688.7,350.8,690.5,348.4z"/>
	<path fill="#78CC91" d="M659.6,665.3c-6-3.2-11.5,0.6-11.4,7.5c0.2,8.6,10.5,25,18.3,29.2c-0.4-6.7-2.5-12.5-10-15.7
		c3.2-0.9,4.2,2.1,6.3,1.5c-0.2-6.2-4.2-9.8-8.9-13.2c2.3-1,2.8,1.5,4.5,1c0.1-1.9-2-3.4-1.3-5.9c2.8,3.1,3.1,7.2,5.4,10.2
		c0.9-1.9-0.2-4.2,2.5-6.2c-0.8,6.5-2.5,12.4,1.4,17.6c1.7-2.4,1.5-5.7,4.6-9.1c-1.8,7.8-6.3,14.2-1.9,21.3c1.8-2.8,1.1-6.4,3.8-10
		c-0.5,7.5-4.3,13.3-2.8,20.1c1.9-1.8,1.5-4.4,3.8-5.9l0,0c0.1,3.2-1.8,5.5-2.6,8.1c-0.3,0.8-0.5,1.7,0.6,2c0.8,0.2,1.8,0.2,2.1-0.8
		c0.4-1.1,0.6-2.2,0.6-3.4c0.1-8,0.7-16,0-24C674,679.1,669.2,670.5,659.6,665.3z"/>
	<path fill="#C8AFED" d="M149.7,788.2c10.7,5.8,24.6-0.8,26.8-12.7c0.9-5-1.3-8.8-6.2-10.5c-2.3-0.8-4.8-1.2-7.2-1l0,0
		c-6.7-0.5-11.8,2.5-16.2,6.8C141.2,776.5,142.5,784.4,149.7,788.2z"/>
	<path fill="#2E217F" d="M756,534.4c2.8-8.1,4.7-16.6,5.7-25.2c0.2-2.5,0.2-2.6-1.6-2.5c-1.1,0.1-3-0.4-2.6,1.9
		c1.4,8.9-2.4,16.5-5.8,24.3c-0.5,1.1-2.5,2.5-0.2,3.6C753.6,537.5,755.1,536.9,756,534.4z"/>
	<path fill="#78CC91" d="M660.5,699.8c1.9,5,1.6,10.1,7.2,11.4C669.1,705.5,664.8,703.3,660.5,699.8z"/>
	<path fill="#78CC91" d="M668.3,717.7c1.1-0.7,0.6-1.7,0-2.5c-1-1.3-2.1-2.5-3.2-3.7l-0.7,0.6c0.3,1.6,0.6,3.2,1,4.8
		S667.2,718.3,668.3,717.7z"/>
	<path fill="#BA67D0" d="M659,728c-1.1,4.9,2.5,9.8,9.3,12.4c4.5,1.7,9.3,2.6,14.2,2.6c9.5,0.1,13-4,10-11.4c-0.7-1.9-2-3.5-3.6-4.7
		c-4.6-3.6-10.1-5.8-15.9-6.5C666.2,719.6,660.1,723.1,659,728z"/>
	<path fill="#2ED1F0" d="M676.9,354.1c-0.3-1.8-0.9-3-3-3.3c-4.9-0.8-9.8-1.8-14.7-2.8c-2-0.4-2.9,0.1-2.7,2.6
		c1.2,13.9,3.7,27.6,7.5,41c1,3.4,7.1,7.4,10.1,6.2c3.7-1.6,7.2-1.5,11.6-0.2h-0.1c2.8,0.3,1.1-2,0.7-3.4
		C682.7,381,679.4,367.7,676.9,354.1z"/>
	<path fill="#44BBC5" d="M580.5,824.3c4.1,1.2,8.5,0.1,11.5-3c3.9-3.6,5.5-8.2,5.2-13.5c-0.6-12.2-14.8-29.1-26.8-32
		c-4-1-7.1,0-9.2,3.9c-2.2,4-3.3,8.5-3.2,13.1c0.2,1.6,0.4,4.4,1,7.2C561.9,811.9,567.9,820.9,580.5,824.3z"/>
	<path fill="#FFB4D7" d="M712.8,594.1c-7.8-6.1-16.7-7.1-25.9-5.6c-6.8,1.2-8.6,5.3-5.9,11.8c4,9.7,15.7,17.2,27.1,17.3
		c11.5,0.1,15.6-6.9,10.1-17C716.8,598.1,715,595.9,712.8,594.1z M706.4,612c-1.1,0.1-2.1-0.7-2.2-1.8c0-0.1,0-0.2,0-0.2
		c-0.2-1.5,0.9-2.8,2.4-3c0.1,0,0.1,0,0.2,0c1.4-0.2,2.1,0.6,2.2,2.1C708.7,610.5,708.2,611.9,706.4,612z M719.1,607.8
		c0,0.2-0.1,0.3-0.2,0.4c-1.3,2.8-3.2,1.8-5.1,0.6l0,0l0,0h-0.1c0.1,0.3,0.2,0.5,0.3,0.8c0.1,1.6-0.1,3.1-2.1,3.2
		c-1,0.1-1.4-0.7-1.4-1.7c0.2-2,1.1-3,3.2-2.4v-0.1l0,0l0,0l0,0l0,0c0.1,0,0.1,0.1,0.2,0.1c0-0.1,0.1-0.3,0.2-0.4
		c1-1.4,0.4-4.4,3.5-3.4C718.8,605.4,719.5,606.6,719.1,607.8z"/>
	<g id="live172m3">
		<path fill="#F89AB2" d="M513.8,566.8c4.7,0.1,9-3.7,9.2-8c0.2-5.3-4-9.7-9.2-9.8c-0.1,0-0.3,0-0.4,0c-5-0.1-8.5,3.5-8.7,8.7
			C504.4,562.5,508.6,566.7,513.8,566.8z"/>
		<path fill="#484572" d="M508.5,567.8c-2.2-0.3-3-0.5-3,1.9c0,3.6,0,7.3,0,10.9h-0.2c0,4,0,8,0,11.9c0,1.9,0.3,2.8,2.5,1.9
			c5.3-2.2,7.5-5.3,7.4-11.1c-0.2-2-0.2-4,0-6C516.1,572,514.6,568.6,508.5,567.8z"/>
		<path fill="#484572" d="M521.9,550.1c5.5,4.5,4.4,12.8-1.4,17.2c-1.1,0.9-2.6,1.3-2.6,3.2c0,4.7,0,9.4,0,14.7
			c14.7-13.9,12.5-40.6-0.2-53.7c0,2.9,0.1,5.4,0,7.8C517.5,543.6,518.1,547,521.9,550.1z"/>
		<path fill="#484572" d="M507.4,547.6c6.2-0.5,7.6-2,7.6-8.3c-0.1-1.7-0.1-3.3,0-5c1.3-6.9-2.6-10.6-9.1-13.9c0,8.8,0,16.9,0,25
			C505.9,546.3,505.2,547.8,507.4,547.6z"/>
		<path fill="#484572" d="M458.9,587.2c0,4.5,1.9,6.5,5.5,8.2c2.8,1.3,3.7,1.1,3.7-2.2c-0.1-11.8-0.1-23.7-0.1-35.5h0.4
			c0-11.8,0-23.7-0.1-35.5c0-1.1,1.1-3.3-1.6-3.2c-3.9,0.1-8.3,4.8-8.3,8.8C458.7,547.5,459,567.3,458.9,587.2z"/>
		<path fill="#484572" d="M456.2,589v-63.2c-5.7,4.6-8.8,8.8-8.6,15.5c0.3,11.4-0.4,22.9-0.6,34.4
			C447.1,581.6,450.7,586.8,456.2,589z"/>
		<path fill="#7E3E94" d="M423,556.8c0,35,27.2,63.2,60.7,63c34.8-0.2,62.2-27.3,62.2-61.5c0-33.6-27.5-60.3-62.1-60.3
			C450.8,498,423.1,524.8,423,556.8z M485.4,511.9c24.5,0,45.5,21.8,45.6,47.4c0.1,24-20.4,43.7-45.2,43.7
			c-26,0-47.6-19.8-47.8-43.8C437.9,533.4,459.4,512,485.4,511.9z"/>
		<path fill="#484572" d="M444.4,572.4v-30.9C440.3,552.4,439.4,562.4,444.4,572.4z"/>
		<path fill="#484572" d="M478,599.5c3,0.7,1.8-2.5,1.8-3.9c0.1-12.7,0.1-25.3,0.1-37.9l0,0h-0.2c0-4,0-8,0-12
			c-0.1-9-0.2-18-0.2-26.9c0-3-0.5-4.2-4-3.3c-3.3,0.8-4.6,1.9-4.5,5.5c0.2,24.3,0,48.6,0,72.9c0,0.5,0,1,0,1.5
			C471.1,600.4,475.5,599,478,599.5z"/>
		<path fill="#484572" d="M500.4,597.9c2.2-0.9,2.5-2.4,2.4-4.3c-0.4-11.4,0.2-22.9-0.5-34.3c-0.5-7.5,0.6-15.2,0.9-22.8
			c0-4.2-0.5-8.4,0.1-12.5c0.7-5.1-2-6.7-6-7.8c-2.8-0.7-3.8-0.2-3.7,3c0.4,25,0.6,49.9,0.9,74.9C494.5,599.6,495.4,600,500.4,597.9
			z"/>
		<path fill="#484572" d="M486.8,600.3c3.4-0.2,5.4-0.3,5.3-4.8c-0.3-12.6-0.1-25.3-0.1-37.9l0,0h-1c0-13-0.2-25.9,0.1-38.9
			c0.1-4.5-2.5-4.2-5.3-4.4c-3.2-0.2-3.8,1.4-3.7,4.2c0.1,25.8,0.2,51.6,0.2,77.3C482.2,599.4,483.3,600.5,486.8,600.3z"/>
	</g>
	<path fill="#2B1F73" d="M747.6,542.3c1.2-0.9,2.7-1.4,3.5-3c-2.8-0.9-3.5,0.7-4.1,2.5C747,542.4,747.2,542.6,747.6,542.3z"/>
	<path fill="#7FFBFE" d="M709.1,404.7c-2.4-1-3.5,0.1-4.1,2.1c-0.5,2.3-0.7,4.6-1,6.3h-0.1c0.5,6,1.7,11.9,3.6,17.7
		c7.1,20.1,18.8,37.8,30.4,55.4c3,4.5,5.6,9.4,11.4,11.3c1.9,0.6,3.3,2.7,4.8,4.2c2.6,2.8,6.4,3.2,8.5,0.8c2.2-2.8,1.7-6.8-1.1-9
		l0,0c-6-4.5-11.7-9.4-17.2-14.5c-16-15.3-29.2-32.4-35-54.2c-1.4-5.5-3.1-11-0.2-16.5C709.9,407,711.7,405.8,709.1,404.7z"/>
	<path fill="#C0A9E6" d="M218.5,707.5L218.5,707.5c-0.1-0.1-0.1-0.1-0.1-0.1c-0.6-0.7-1.2-1.4-1.8-2.1c-1-1.1-2.3-2.3-1.3-3.8
		c0.7-1,2.1-0.5,3.2-0.1c1.9,0.7,1.6,2.2,1.5,3.7c0,1.2-1.2,1.5-1.6,2.3C218.4,707.4,218.5,707.4,218.5,707.5L218.5,707.5l-0.1-0.1
		c1.8,1.1,3.8,1,5.8,0.8c5.7-0.6,8.8-4,8.8-10s-3.2-9.7-9.1-10.5c-5.6-0.8-9.9,2.4-11.5,8.6C211,701.7,213,705.4,218.5,707.5z"/>
	<path fill="#2E217F" d="M701.2,405.1c-2.5-2-6.5-2.2-9.9-3c-6.9-1.6-11,1.4-11.2,8.5c-0.2,6,1,12,3.4,17.5
		c10.3,24.2,23.4,46.9,36.9,69.4c1.1,1.9,2,2,3.8,0.7c4.4-3.1,9.6-4.4,15.8-4.3c-1.7-2.6-3-4.5-4.3-6.5
		c-9.7-14.5-19.2-29.2-26.4-45.1c-4-8.8-7.3-17.8-7.7-27.6C701.6,411.4,704,407.3,701.2,405.1z"/>
	<path fill="#ACBFD1" d="M630,640.3c1.3,11.6,1.7,23.2,1.3,34.9c-0.1,2.8-1.7,7.1,0.7,8.2s5.7-1.8,8.4-3.3c3.6-2.1,6.4-4.4,5.7-9.4
		c-0.4-2.6,0.8-5.1,3.1-6.5c5.4-2.8,3.1-6.2,1.4-9.7c-1.3-2.7-3.3-5.1-5.7-6.8c-4.8-3.6-9.6-7-14.5-10.4
		C629.4,638.3,630,639.4,630,640.3z"/>
	<path fill="#2E1279" d="M49.9,546.9c-0.5-1.8-1.2-2.1-2.8-1.2c-4.5,2.7-9.4,4.5-14.5,5.6c10.9,2.2,19.3,8.5,27.5,15.6
		C56.2,560.3,51.7,554.3,49.9,546.9z"/>
	<path fill="#D562A8" d="M685.6,716.6c-1.2,1-2.7,1.7-2,5.1l0,0C684.7,719.5,686.2,718.7,685.6,716.6z"/>
	<path fill="#D562A8" d="M692,701.5c-3.8,3.9-7,7-6.9,12.9v0.1C689.5,711,690.8,706.8,692,701.5z"/>
	<path fill="#4C3E7A" d="M766.6,91.4c-3.5-1.8-6.7-4-9.6-6.7c-2-1.9-3.8-1.9-6.3-1.1c-21.5,7-33.6,22.2-39,43.6
		c-0.7,2.9,0,4.4,2.6,5.9c5.1,2.9,9,7.6,10.9,13.2c2.9,8.2,0.1,14.8-7.7,18.6c-3.4,1.7-7,2.1-10.6,2.6c-1,0.1-3,0-1.9,1.8
		c1.8,3.1,2.4,6.8,6.4,9c9.2,4.8,17.5,11,23.9,19.3c8.3,10.6,8.8,19.6,1.9,31.3c-3.3,5.6-7.8,10.4-11.4,15.8
		c-9.3,13.8-5.9,29.5,8.2,38.4c3.2,1.8,6.2,3.9,9.1,6.1c12.6,10.5,11.8,24.9-1.8,34.2c-6.2,4.2-13.2,6.1-20.4,7.6
		c-11.7,2.6-21,8.9-28.3,18.3c-1.5,2.3-1.4,3.2,1.5,3.9c2.9,0.8,5.7,1.9,8.4,3.1c20.5,8.6,35.2,23.6,46.8,42.1
		c6.3,10.1,12.5,20.4,18.7,30.6V92.8C767.3,92.6,766.8,92.1,766.6,91.4z M753,252.3c-6.8,0-12-4.8-12-10.8
		c-0.1-6.5,5.3-11.6,12.2-11.5c7.6,0.1,12.2,3.8,12.3,10.1C765.6,246.7,759.8,252.3,753,252.3z"/>
	<path fill="#A6DEFE" d="M708.3,84.4c8.5-1.5,15.7-5.9,22.5-11s10.8-4.9,17.5,0.2c1.5,1.1,2.8,2.3,4.2,3.5c4.9,4,9.1,9,14.9,11.7
		c0.2-0.1,0.4-0.2,0.6-0.3V17c-11.8,5.4-23.2,5.8-34.4-2.2c-7.6-5.5-16.5-5.6-25.4-4.3c-4.5,0.7-8.8,2-12.2,5.3
		c-3.7,3.5-4.1,6.9-1.2,11c1.7,2.4,3.8,4.6,5.7,6.9c4.4,5.4,4,8.3-1.7,12.2c-3.6,2.4-7.4,4.5-10.7,7.3c-5.2,4.4-8.3,10.2-6.8,17.2
		s6.4,11.4,13.2,13.6C699.1,85.5,703.7,85.2,708.3,84.4z M692.2,70c1.1-2.3,3.1-0.9,4.7-0.2c4,1.8,8.1,1.3,12.2,0.4
		c1.3-0.3,3.3-1.1,4,0.7c0.8,1.8-0.7,3-2.1,4.1c-2.7,2-5.8,2.3-9,2.1c-2.7,0.1-5.3,0-7.7-1.5C692.2,74.3,691.2,72.1,692.2,70z"/>
	<path fill="#FFFFFF" d="M696.5,71.2c-1-0.4-2.1-1.9-3-0.4c-0.8,1.2,0.4,2.5,1.5,3.4c4,3.2,13.1,1.9,16.7-2.5
		C706.5,71.8,701.4,73.1,696.5,71.2z"/>
	<path fill="#D562A8" d="M677.8,716.4c0,1.2,0.2,2.3,1.7,2.5c1.8,0.3,2.2-0.6,2.7-2c1.5-4.4-0.3-7.6-4.4-10.3
		C677.8,709.9,677.8,713.2,677.8,716.4z"/>
	<path fill="#D562A8" d="M695.2,667.1c-1.3-3.4-3.7-6-7.8-6.1s-5.5,3.2-7,6.1c-0.6,1.5-1.2,3.1-1.5,4.7c-1.9,6.7-0.8,13.6-0.9,20.4
		c-0.1,6.5-1.5,13.4,5.8,17.3c4.5-5.9-1.3-10.8-2-16.4l3.8,6.3c1.3-9.2,6.1-18.6-3.1-26.7c2.5,0.5,2.8,3,4.9,3.3
		c0.8-2.2-1.2-4.5,0.3-6.9c2.6,3.1,0.4,7.1,2,10.3c2.1-1,2-3.7,4.9-4.6c-2.6,5.6-7.6,10-4.8,16.5c2-1.7,2.6-4.3,5.5-6
		c-2.3,6.3-8.7,10.2-7.3,17.8l0,0c2.1-2,4.8-3.3,5.5-5.4C696.7,687.8,699.3,677.5,695.2,667.1z M686.8,689.3c-3-2.1-4.7-5.2-6.2-8.4
		C683.6,683,685.1,686.2,686.8,689.3z"/>
	<path fill="#291C44" d="M312.2,60.9c2.9,4.5,6.9,8.2,11.6,10.8c1.5,0.8,2.3,1,3.3-1.1c5.5-12,17.4-14.2,27-5.1c1,1,1.7,2.1,3.3,0.9
		c7.9-5.9,17.9-8.5,23.9-17.4c3.7-5.5,9.7-8.5,16.2-10c6.8-1.6,13.6-1.3,20.4-0.6c3.8,0.4,7.6,1.1,11.4,1.6c7.8,1.1,15.8-0.7,22.4-5
		c2.7-1.6,5.6-3,8.5-4.2c13-5.3,23.4-2.1,30.9,9.8c3.7,5.8,6.7,11.9,11.5,16.9c7.6,7.9,16.8,7.5,23.7-0.9c2.7-3.3,5-7,7.7-10.4
		c11.5-14.5,26.6-19.5,44.4-15.7c16.8,3.6,27.6,14.6,33.8,30.3c5.5,13.9,9.8,28.2,14.1,42.5c1.1,3.7,2.3,5,6.4,3.5
		c14.2-5,27.2-2.9,38.5,7.3c6.1,5.4,13.5,9.3,21.5,11.1c3.9,0.8,7.7,1.9,11.5,3.3c4.1,1.8,5.1,0.2,6-3.6c5.3-21,17.5-35.9,38.2-43.2
		c0.5-0.2,0.9-0.4,1.4-0.6c1.8-0.5,2.6-1,0.8-2.9c-6.7-7.2-11.7-7.8-19.4-1.9s-16.4,10-26.3,11c-11.2,1.2-21.6-4.4-25.2-13.9
		c-3.3-8.7,0.5-18.4,9.9-24.9c2.7-1.9,5.5-3.7,8.4-5.4c3.7-2.2,3.7-4.7,1-7.7c-1.9-2.1-3.8-4.2-5.5-6.5c-4.8-6.3-4.2-11.3,2-16.4
		c1.9-1.6,4.2-2.8,6.6-3.6c11.6-3.3,23.2-3.6,33.5,3.5c10.7,7.4,21.5,6.5,32.5,1.1V0H290c5.3,7.5,7,16.4,9.1,25.1
		C302,37.5,304.8,50.1,312.2,60.9z"/>
	<path fill="#9379B7" d="M763,240.5c0.1-4.7-3.4-7.7-9.5-8l0,0c-5-0.4-9.4,3.4-9.8,8.4c-0.2,4.5,3.8,8.6,8.9,8.9
		C757.4,250.2,762.8,245.4,763,240.5z"/>
	<path fill="#FFFFFF" d="M444,419.4c-2.7,0.4-5.9,1-5.5,4.9c0.2,2.2,1.4,4,4.1,4.1l0,0c2.7-0.8,4.6-2.4,4.5-5.6
		C447,421,446.2,419.1,444,419.4z"/>
	<path fill="#00B1FF" d="M0,635v44c7.4-14.3,14.8-28.6,25.8-42.2C17.1,637.5,8.5,636.9,0,635z"/>
	<path fill="#DC71DF" d="M472.6,886.9c5.8,0,9.9-3.3,12.5-8.4c2-3.8,2.1-8,2.2-11.6l0,0c-0.5-15-7.7-29-19.6-38.3
		c-2-1.6-3-2.1-4,1.1c-2.7,8.2-4.8,16.5-6.5,25c-1.5,8.3-1.8,16.5,2.4,24.3C462.5,884.1,466.8,886.9,472.6,886.9z"/>
	<path fill="#FFFFFF" d="M443,376.4c1.9,0.1,2.3-1.5,2.7-2.9c-0.2-1.7-1.5-3-3.3-3.2c-1.5-0.2-2.2,1.3-2.2,2.7
		C440.2,374.7,441.2,376.3,443,376.4z"/>
	<path fill="#FFFFFF" d="M388.4,409.5c-1.6-0.4-2.5,0.7-2.5,2.1c-0.1,1.1,0.6,2.1,1.7,2.3c0.2,0,0.3,0,0.5,0l0,0
		c1.4-0.2,2.8-0.8,2.8-2.6C390.9,409.8,389.4,409.8,388.4,409.5z"/>
	<path fill="#FFFFFF" d="M397.7,392.7c-2.5,0-4.5,2-4.5,4.4c0.9,2.6,2.1,5,5.3,4.8c2.7-0.2,4.8-1.6,4.6-4.7
		C402.9,393.9,400.4,392.5,397.7,392.7z"/>
	<path fill="#E7B1A7" d="M743.9,541.5c4.6-7.5,8.7-15.3,10.7-24c2.7-11.6-4.1-20.1-15.9-20.6c-9-0.4-15.6,4-20.1,10.8
		c-14.7,22.4-24.4,46.7-26,73.8c-0.2,4,2,4,4.5,4c3.4,0,1.8-2.6,1.7-4c-0.4-4.2-1.2-8.5-1.9-12.7c3.3,4.5,1.9,10.1,4.5,15.6
		c1.4-5,2.9-9.1,3.5-13.3s-0.2-8.6-0.6-12.9c-0.3-4.1-0.1-8.2-0.1-12.3h0.6c0.5,6.3,1,12.6,1.5,19c9.2-11.7,6-25.7,7.1-38.9l1.7,0.2
		v19.7c3-5,5.3-9.1,7.9-12.9c1.4-2,1.9-4.5,1.3-6.9c-0.8-5-2.4-9.9-1.3-15.2l3.2,16.7l6.5-7.8l0.6,0.5l-3.3,5.6
		c4.4-0.6,7.8-2.7,12-2.1c-10.2,2-18.6,6-21.6,17.3l20.5-6.1c-0.4,2-1.5,1.8-2.4,2.1c-5.6,1.7-11.1,3.3-16.6,5.2
		c-1.5,0.5-3.3,0.5-4.2,2.3c-3.3,6.2-6.1,12.6-8.3,19.2c6.2-0.9,11.4-3.7,17.3-3.6c-5,1.9-10.2,3.4-15.4,4.8
		c-1.4,0.4-2.9,0.5-3.4,2.4c-0.8,3-1.9,6-2.9,9c-0.8,2.5,0.3,2.8,2.5,2.3c2.6-0.6,5.1-2,8.3-1.3c-2.6,1.9-5.3,1.9-7.8,2.6
		s-4.9,1-5,4.4c-0.1,3.7,3.3,2.6,5,3.7c3.2,2.1,3.5-1.4,4.5-2.8c5.1-8,10.6-15.7,16.6-23.1C734.5,555.6,739.4,548.7,743.9,541.5z
		 M733.3,520.3l-0.6-0.5c1-2.3,2.7-4.1,5.7-6.5C737.3,516,735.5,518.4,733.3,520.3z"/>
	<path fill="#FFFFFF" d="M499.6,406.2c-1.5,0.6-3.6,0.7-3.4,3c0,1.5,1.3,2.8,2.8,2.8c0.1,0,0.1,0,0.2,0c1.8,0,3.6-0.4,3.6-2.5
		C502.9,407.6,501.3,406.7,499.6,406.2z"/>
	<path fill="#FFFFFF" d="M553.1,361c2,0.2,2-1.4,1.9-2.7c0-1.6-1.2-2.9-2.7-3c-1.4-0.2-2.1,0.7-2.1,2.3
		C550.9,358.8,551.1,360.8,553.1,361z"/>
	<path fill="#FFFFFF" d="M467.2,393.2c-5.5-0.2-10.1,4.8-10.2,11.2c-0.1,5.3,1.9,7.7,6.7,7.7c5.7,0.1,10.5-4.7,10.8-10.7
		C474.7,396.3,472,393.3,467.2,393.2z"/>
	<path fill="#92FBFE" d="M760.9,452.2c3.2,11.4,4.3,23.2,5.1,34.9c0.3,4.3,2.4,8.8,0.7,12.8c-2,4.9-2.5,9.9-3.1,15
		c-0.8,6.5-2.9,12.7-4.5,19.5c3.3-1.4,5.5-3.6,8.4-4.3c0.1-0.2,0.3-0.4,0.4-0.5V434c-1.7-0.7-2-2.5-2.7-3.9
		c-6.6-11.9-13.7-23.6-21.2-34.9c-15-22.5-35.5-36.9-62-42.7c-2.8-0.6-4.3-1-3.5,3c2.8,13.3,6.1,26.5,9.6,39.6c0.8,2.9,2.5,4,5.3,5
		c8.4,2.9,17.3,2.1,25.8,5.6C740.7,414.8,754.6,429.9,760.9,452.2z"/>
	<path fill="#967CB9" d="M767.9,565.1v-8c-3.2,2.2-6.7,3.9-9.7,6.8C761.4,565.5,764.7,564.9,767.9,565.1z"/>
	<path fill="#967CB9" d="M767.8,533c-6.7,2.8-12.6,6.9-18.3,11.3c-15.2,11.9-25.2,28.1-35.7,43.8c-0.2,0.3-0.4,0.5-0.5,0.9
		c-0.8,3.2,2.2,4,3.8,5.1c2.4,1.5,1.6-1.5,2.2-2.5c1.3-2.4,1-5.5,3.4-8.2c0,5.3-3.1,9.3-2.8,14.3c2.8-1.8,3.5-5,6.3-6c0,0,0,0,0,0.1
		c5.7-7.6,7.9-16.9,11.8-25.4c-0.2,4.4-2.4,8-3.4,11.9c-0.3,1.2-2.1,2.7,0.3,3.7c0.1-0.4,0.1-1,0.4-1.2c8.7-6.5,12.7-16.4,17.5-25.6
		c0.5-1,0.6-2.5,3.1-3l-8.1,15.7c6.3-3.5,12.5-7,16.3-13.4c1-1.6,1.9-3.5,3.8-4.4L767.8,533C767.9,533.1,767.8,533.1,767.8,533z"/>
	<polygon fill="#967CB9" points="767.9,556.1 767.9,552.1 763.9,557.2 	"/>
	<path fill="#967CB9" d="M738.8,598.4c8.4-7.7,17.4-14.6,28-19c0.2-0.5,0.6-0.9,1.1-1.1v-11.4c-10.4-3.7-18.1,1-24.9,8.3
		c-2.1,2.3,0.1,2.3,1.4,2.5c4,0.6,8.2-0.2,12.1,1.6c-3.1,1-6.2,0-9.3-0.2c-4.4-0.3-8.7-0.6-12.2,2.9c-2.2,4-5.3,7.4-9,10
		c0.7,2.3,2.7,1.9,4.4,1.9c2.4,0.1,4.9,0,7.7,1.6c-3.9,1-7.1-0.5-10.3-0.5c-2.1,0-3.8,0.1-5.2,2c-2.3,3.1-0.9,8.9,2.7,11.5
		c1.7,1.2,2.7,1.1,4.1-0.5C732.4,604.6,735.5,601.4,738.8,598.4z"/>
	<path fill="#00B0FF" d="M767.2,581.9c-1.3,0.1-2.3,1-3.4,1.6c-11.7,6.3-21.7,14.7-30.8,24.2c-3,3.1-2.7,4.5,0.7,7
		c8.3,6.2,16.5,12.7,21.4,21.9c3.9,7.3,8.9,13.9,12.8,21.2v-75.4C767.6,582.3,767.4,582.1,767.2,581.9z"/>
	<path fill="#F6E196" d="M374.8,965.9c3.8-6.5,5.7-14,5.3-21.5l0,0c0.1-8-0.8-15.4-4-22.3c-3.2-6.9-11.3-8-16.5-2.6
		c-1.4,1.4-2.5,3.1-3.4,4.9c-4.2,8.9-6.3,18.6-6.1,28.4c0,5.7,2.2,11.2,6.3,15.3C363.4,974.9,370,974.1,374.8,965.9z"/>
	<path fill="#98BCED" d="M721.5,993.3c-4.9,4.5-9.3,9.5-14,14.2c-13.7,13.8-23.8,15.3-41.1,6.2c-8.7-4.6-16.5-10.6-24.7-16.1
		c-6.2-4.2-12.6-8-20.3-8.9c-5.8-0.7-10.1,1.1-13,6.2c-0.1,0.1-0.2,0.3-0.2,0.4c-4,8.4-8.5,16.2-18.1,19.5
		c-11.4,4-23.7,4.3-35.3,0.8c-9.8-2.8-17.9-8.5-25.8-14.8c-8.3-6.7-17.2-12.4-27.9-14.9c-8.9-2.1-16.9,0.1-24.3,4.7
		c-13.3,8.3-22.9,20.2-30.9,33.3h322v-27c-2.1-1.8-4.2-3.6-6.4-5.4C749.3,982,733.3,982.5,721.5,993.3z"/>
	<path fill="#FFAB8A" d="M49.9,841.7c-0.1-1.7-0.5-2.9-2.2-1.3c-9,7.9-18.4,20.9-14.7,35.8c1.8,6.9,7.1,8.8,12.7,4.3
		c2-1.7,3.5-4,4.2-6.6c1.3-3.9,0.9-7.9,1-11.8C50.6,855.3,50.3,848.5,49.9,841.7z"/>
	<path fill="#5F92D5" d="M324.2,1010c-13.4-1.5-26.1,2.2-38.8,5.6c-15.8,4.2-31.5,6.5-47.6,1.6c-13.2-4-23.6-11.2-30.9-23
		c-4.5-7.2-8.8-14.5-14.1-21.2c-13.5-17-24.4-18.4-41.6-5.1c-5.6,4.3-10.3,9.4-15.3,14.3c-12.7,12.5-27.2,21.9-44.8,25.9
		c-25.3,5.8-45.9-1.7-61.7-22.3c-4.6-5.9-8.8-12.2-14.9-16.7c-4.4-3.2-9-6.3-14.6-7v62h349C342.8,1015.7,334.5,1011.2,324.2,1010z"
		/>
	<path fill="#EECE8A" d="M686.7,827.2c-5.3-3.2-9-2.2-11.8,3.3c-1.8,3.4-2.1,7-1.9,10.7c0.3,15.1,6,28,15.5,39.5
		c8.5,10.3,16.5,20.9,18,34.8c0.4,2.8,1.7,5.5,3.6,7.5c2.9,3.2,6.4,5.5,11,4.4c4.8-1.2,6.9-4.9,7.7-9.5c0.2-1.3,0.2-2.7,0.1-4
		c-0.5-12.5-4.6-24.6-11.7-34.9c-8.9-13.2-17.7-26.5-22.5-42C693.3,832.9,690.5,829.4,686.7,827.2z"/>
	<path fill="#3F295A" d="M751.2,874.9c-1.3-5.3-2.1-10.8-3.2-16.1c-1.4-6.8-4.3-12.9-9.5-17.8c-6.6-6.2-14.8-5.8-20.6,1.1
		c-4.2,5-6.7,11.3-6.9,17.8c-0.2,3.2,0.7,6.3,2.6,8.8c6.6,9.6,13.8,19.1,15.7,30.9c3,18.4,10.8,36.1,8.8,55.4
		c-0.5,6.3-2.1,12.5-4.7,18.2c-4.4,9.3-12.3,13.7-21.9,15.5c-10.2,1.9-20.7,1.5-30.6-1.3c-24.8-6.7-35-27-37.8-46.5
		c-1.1-7.4-1.1-14.9-2.6-22.3c-4.6-22.1-23.8-30.3-43.3-25.4c-4.7,1.2-9.1,3.2-13.1,6c-8.7,6.1-12.8,13.7-10.3,24.8
		c3.5,15.6-1.2,25.6-13.7,31.7c-13.5,6.5-31.8,3.5-40.6-6.7c-5.7-6.6-4.8-14.1-3.1-21.8c1.6-7.3,2.8-14.8,0.6-22.2
		c-2.2-7-6.4-12.4-13.8-14.6c-9.3-2.7-16.7,2.7-17,12.2c-0.5,12.4-11.1,20.7-23.2,18.3c-7.1-1.4-11-6-10.9-13.2
		c0.1-3.7-0.3-7.3-1.1-10.9c-1.9-8.6-5.4-16-15.2-17.5c-9.8-1.5-18.3,1.3-24.3,9.4c-6.4,8.6-7.9,18.4-6.9,28.9
		c1.6,16.4,6,32.3,8,48.7c1.4,11.3,1,22.5-3,33.5c-6.8,18.9-25.4,23.5-38,21.7c-21.4-3.1-32.3-15.7-34.7-38
		c-1.8-16.2,1.1-31.8,3.6-47.6c1.4-9,3.4-18,3.6-27.2c0.2-6.8-1.8-13-6.5-17.8c-13.8-14.2-30.2-21.9-50.3-18
		c-19,3.7-31.4,17.7-34.2,36.9c-1.5,10.5-0.9,21-1.2,31.4c-0.2,6.3-0.3,12.7-1.7,18.8c-0.7,3.2-2,6.3-3.8,9.2
		c-4.7,7.6-12.4,11.3-20.3,9.6c-6-1.3-11.2-8.4-12.1-16.8c-1.2-10.6,0.8-20.9,2.6-31.2c3.8-21.8,1.1-42.4-11-61.3
		c-3.3-5.2-7.6-8.6-13.7-10c-6.1-1.4-9.3,0.2-10.6,6.3c-1,5-1.4,10.2-2.1,15.3c-0.4,3-0.6,6-1.2,8.9c-2.4,10.6-11.6,15.9-23.6,13.6
		c-4.8-0.9-9.2-2.9-13-6c-6.6-5.4-8.6-10.5-4.6-17.9c7.5-13.7-5.9-31.5-18.5-33.8c-2.3-0.4-4.6-0.8-6.9-1.1
		c-11-1.5-18.9,3-24.8,12.1c-7,10.8-9.9,22.7-11.4,35.2c-1.4,11.6-0.4,23.3-2.9,34.8c-2.3,10.5-8.2,18.1-18.1,22.2
		c-9.4,4-17.8,1.7-23.9-6.5c-8-10.9-8.9-23.4-7.7-36.2c0.9-9.9,3.3-19.7,7.1-29c0.8-2,0.5-4,0.4-5.9c-0.4-5.9,0-12,3.3-16.9
		c6.6-9.7,8.6-20.7,11.2-31.7c3.3-14.1,5.6-28.4,4.6-43c-0.5-7.6-2.3-14.8-7.2-20.9c-6.1-7.5-12.9-9.7-22.1-6.7
		C13,754.9,6.5,757.5,0,760v199c9.9,2.4,17.7,8,24.2,15.8c2.5,2.9,4.8,6,7.1,9c17.7,22.5,40.5,29,67.5,19.4
		c12.9-4.7,24.6-12.1,34.2-21.8c7.1-7,13.9-14.4,22.5-19.7c6.2-3.8,12.6-6.7,20.2-4.8c4,1.1,7.7,3.1,10.8,5.9
		c5.8,4.9,10.3,10.8,14.5,17.1c2.1,3.2,4.2,6.4,6.1,9.7c13.9,25.5,41.1,30,62.2,26.7c13.8-2.1,27-7.2,40.8-9
		c13.6-1.7,26.2,0.4,36.7,10.1c2,1.9,4.5,3.5,5.1,6.5h-3h94c7.7-13.4,17.5-25.1,30.2-34.1c12.2-8.6,25.1-9.3,38.7-3.2
		c8.4,3.8,15.6,9.5,22.8,15.2c15.3,12.1,32.3,16.3,51.5,11.3c7.7-2,13.4-6.4,16.8-13.7c0.2-0.3,0.3-0.6,0.5-0.9
		c7.1-13.6,13.7-15.9,28-10c6.5,2.7,12.1,6.9,17.8,10.9c7.9,5.5,15.8,10.9,24.8,14.8c10.6,4.5,19.8,2.8,27.9-5.1
		c4.8-4.6,9.3-9.5,13.9-14.3c5.7-5.9,12.1-10.2,20.3-12c13-2.9,23,2.2,31.8,11.1V885C758.6,886.9,753.4,883.9,751.2,874.9z"/>
	<path fill="#FF95AB" d="M229.5,858.8c3.2,0.5,5.4-1.4,6.8-4c4.5-8.3,7.2-17.6,7.6-27.1l0,0c-0.3-2.2-0.7-5-1.2-7.8
		c-0.3-1.7-1-2.9-2.9-1.1c-7,6.7-13.3,13.9-16.3,23.4c-1.1,3.5-1.2,7.3-0.2,10.8C224,856.1,226.5,858.4,229.5,858.8z"/>
	<path fill="#9CD7DE" d="M82,643.2c-10.2-2-19.9,0.1-27.7,7.3c-4,3.7-6.4,8.6-4.1,14.3s7.7,6.7,13.3,7.2c9.4-0.9,18.1-3.8,24.3-11.6
		C93.9,652.6,91.5,645.1,82,643.2z"/>
	<path fill="#D562A8" d="M47.6,763.8c4.5,10,5,20.6,4,31.3c-1.5,14.7-4.3,29.3-8.4,43.5c-0.1,0.7-0.1,1.3,0,2c2-1.7,3.7-3.2,5.5-4.5
		s3.2-1,3.3,1.5c0.6,11.3,2.2,22.5,1.1,33.9c-0.3,3.7-1.9,7.1-4.5,9.8c-5.3,5.4-11.9,5.2-17.5-1c-5.9,17-9.2,34-3.9,51.4
		c4.3,14.3,14.8,20,26.3,14.9c6.7-2.8,11.9-8.3,14.4-15.1c2.1-5.6,2.8-11.6,3-17.6c0.6-13.6,1-27.3,5-40.5
		c1.6-5.3,3.8-10.3,6.5-15.1c10.1-17.3,22.7-20.3,42.2-12.5c9.6,3.9,15,12.3,16.6,22.8c0.7,4.5-1,8.5-2.5,12.5
		c-2.4,6.3-1.3,10.2,3.9,14.4c4.6,3.7,10.2,5.8,16.1,6c9.7,0.5,16-5.2,17.2-15.6c0.7-6,1.2-11.9,2-17.8c1.5-10.6,7-13.9,17.2-10.3
		c4.5,1.4,8.3,4.3,11,8.2c12.8,18.8,17,39.5,13.4,61.8c-1.5,9.5-3.4,19-3.6,28.7c0,3.3,0.5,6.6,1.6,9.8c1.7,5.1,4.5,9.5,10.4,10.3
		c5.7,0.7,10.4-1.7,14.1-6c5.1-6.2,6.6-13.7,6.8-21.5c0.4-11.8-0.1-23.6,0.9-35.5c2.1-25.1,19.2-43.4,44.2-44.4
		c19.4-0.8,35.7,7.3,47.6,22.8c6.5,8.5,5.1,18.5,3.8,28.4c-2.4,18.3-7.2,36.2-6.6,54.9c0.2,6.7,1.2,13.3,3.1,19.6
		c5,16.4,17.5,24.6,36.4,24c15.7-0.5,26.5-9.8,30.5-25.9c3.5-14,1.1-27.7-1.5-41.5c-2.7-14.7-6.4-29.3-5.5-44.4
		c0.4-7.4,3-14.4,7.5-20.3c6.9-8.8,18.3-12.5,29.1-9.5c11.1,3.2,13.7,12.5,15.5,22.3c0.3,2.1,0.4,4.3,0.4,6.5
		c0.2,9.6,7.6,14.9,16.9,12.2c7.4-2.2,11.8-7.8,12.5-15.7c1.2-13.7,13.6-19.9,25.3-12.3c9.2,5.9,12.2,15.1,11.5,25.5
		c-0.4,4.8-1.1,9.6-2.2,14.3c-2.3,11.7,1.6,19.3,12.6,23.9c8.2,3.6,17.5,3.7,25.7,0.3c12.1-4.9,17.4-13.7,15-26.4
		c-1.5-8-3-15.8,2.5-22.9c6.5-8.4,15.4-13.2,25.7-15c24.2-4.2,42.2,10.2,44.1,34.8c0.9,10.9,1.5,21.9,5.9,32.2
		c8.3,19.2,23.3,28.3,43.5,29.9c5.1,0.5,10.3,0.4,15.5-0.5c15.8-3,22.4-9.3,25.6-25.1c2.8-13.3,0.6-26.3-3.1-39.2
		c-1.8,0.2-1.8,1.7-2.5,2.5c-4.8,6.5-12.4,7.4-18.7,2.3c-3.2-2.6-5.7-6.1-6.1-10c-1.6-13.6-9-24.1-17.4-34.1
		c-9.3-10.8-15.1-24.2-16.5-38.3c-0.6-4.6,0-9.4,1.6-13.7c3.4-8.5,10.2-10.3,17.5-4.8c4.3,3.2,6.8,7.6,8.6,12.6c2.6,7,5,14,9.3,20.3
		c1.8-0.7,1.3-2.2,1.5-3.4c1-5.9,3.7-11.5,7.9-15.8c6.6-6.9,15-7.5,22.3-1.4c7,5.8,10.3,13.7,11.9,22.4c0.6,3.4,1.2,6.9,1.9,10.3
		c2.4,10.9,3.9,12.1,15.1,12.2V664c-3.3-5.1-5.2-11-9.9-16.2c-1.2,8.8-5.5,15.7-9.2,22.9s-3.6,14.3-1.2,21.8
		c4.2,12.9,9.4,25.5,11.9,39c4.2,22-2.8,40.2-19.6,49.2c-10.9,5.8-22.7,8.2-35.1,7.8c-8.4-0.2-16.4-2.5-24.4-4.8
		c-4.3-1.2-8.7-2.4-13.2-2.2c-8.2,0.3-13.8,5.2-18.2,11.7c-5.5,8.1-7,17.5-9.1,26.7c-2,8.8-4.8,17.2-9.7,24.9
		c-8.2,12.8-20,19.8-35,21.1c-13.8,1.2-27.7,0.2-41.1-3.2c-16.6-4.2-30.4-13-42.8-24.5c-9.4-8.7-19.8-16.4-30.9-22.8
		c-21.8-12.6-43.3-11.8-64.7,1.2c-13,7.9-24.3,18-36.2,27.4c-10.8,8.5-22.6,14.5-36.4,16.2c-20.4,2.5-38-3.9-53.6-16.8
		c-8.4-7-14.5-16-20.7-24.9c-2.9-4.1-5.8-8.2-8.7-12.2c-9-12.5-21-15.9-35.6-11.8c-10.7,3-20.4,8-30.1,13.2
		c-11.8,6.3-24,11.6-37.5,12.8c-20.3,1.8-39.5-1.7-56.8-12.7c-12-7.7-15.2-19.6-14-33.1c0.7-7.8,3.2-15.3,5.9-22.6
		c2.1-5.4,3.5-11.1,4.2-16.9c0.8-7.5-2.1-12.4-9.2-15.3c-4.3-1.7-8.9-2.7-13.6-2.9c-11.2-0.5-22.3-0.3-33.5,0.5
		c-5.2,0.3-10.3,0.1-15.5-0.7C13.5,715.3,6.7,707.1,6,694c-0.3-6.2,0-12.5,0-20l-6,11v72c5.6-2.1,11.2-4.2,16.8-6.2
		C30.6,746.1,41.5,750.6,47.6,763.8z M453.9,863.9c0.4-13.4,4.8-26,8.6-38.7c0.5-1.5,0.9-2.7,3.1-1.6c15.5,7.5,27.8,34.1,23.5,51.4
		c-2.1,8.4-7.7,13.7-15.2,14.2c-8.2,0.5-14.5-3.6-17.8-11.7C454.3,873.3,453.6,868.6,453.9,863.9z M354.1,923.1
		c2-4.1,4.8-7.7,9.5-8.9c7.3-1.9,12.6,0.9,15.5,8s3.5,14.5,4,21.8c-0.6,9-2,17.7-7.3,25.1c-5.2,7.2-11.7,8.2-18.9,2.9
		c-5-3.5-8.2-9-8.9-15C346.8,945.3,348.9,933.6,354.1,923.1z M221.9,839c3.8-9.8,10.7-17.1,18.3-23.9c2.3-2.1,3.5-0.9,4.2,1.5
		c1.2,3.5,1.8,7.3,1.7,11c0,11-3.1,19.8-7.4,28.3c-1.9,3.7-4.9,5.7-9.3,5.3c-4.5-0.4-7.1-3.1-8.6-7.2C219,848.9,220,843.9,221.9,839
		z"/>
	<path fill="#CCEDFD" d="M588.8,458.2c0.9-3.8-0.5-4.8-4-4c-2.2,0.5-3.4,1.2-3.9,3.7c-2.8,12.6-4.4,25.3-4.9,38.2
		c0.4,14.4,2.5,28.7,6.1,42.7c0.6,2.2,0.9,3.3,3.8,1.7c3.8-2.1,5.2-4.4,4-8.6c-0.6-2.7-1.1-5.5-1.5-8.3c-2.4-14.3-4.5-28.6-2.8-43.2
		C586.5,473,587.1,465.5,588.8,458.2z"/>
	<path fill="#FFFFFF" d="M542.5,383c-3.5-0.2-6.2,2.5-6.4,6.6c-0.3,4.1,2.7,7.6,6.8,8c0.1,0,0.2,0,0.3,0c4,0.1,6.9-2.4,7.1-6
		C550.5,387.1,547,383.3,542.5,383z"/>
	<path fill="#FFFFFF" d="M117.3,410.7c0.4,0,0.7,0,1.1,0c2-1.6,7.5,0.4,7.4-3.7c0-5.1-5.5-2.2-8.4-3.4c-0.1,0-0.3,0-0.5,0.1
		c-2.5,0.5-5.8,0.8-5.7,3.8C111.4,410.4,115,410.1,117.3,410.7z"/>
	<path fill="#38295A" d="M112.3,394.8c7.7-1.1,15.3,0.7,22.4,3.5c7.7,3.1,13.5,0.1,19-4.6c2.7-2.3,3.2-3.6-1-5
		c-10.2-3.4-16.4-10.5-17.4-21.5c-0.5-5,1.2-9.8,1.9-14.8c1.1-9-0.6-12.8-8.3-17.2c-2.3-1.3-4.9-2.1-7.2-3.3c-2.9-1.5-4.3-1.2-5,2.4
		c-3.9,18.5-6.3,37.2-8.7,57.2C107.1,394.1,108.2,395.3,112.3,394.8z"/>
	<path fill="#42396C" d="M83.1,365.4c1.6,1.3,2.6,1.9,3-1.1c1.5-11.2,3.2-22.4,5.2-33.5c0.6-3.4-0.4-3.6-3.2-4
		c-8.8-0.8-17.4-3.2-25.3-7C45.3,311,36,290.8,41,273c1.8-6.2,5.5-10.9,10.2-15c1.8-1.6,1.9-2.5-0.7-3c-3.4-0.7-6.7-2-9.7-3.8
		c-5.4-3.2-7.2-7.2-5.8-12c1.4-4.6,5.3-6.6,11.7-5.9c1,0.1,2.5,1.1,2.4-1c-0.1-2.3,0.3-5.4-1-6.7c-1.7-1.6-3.7,1.1-5.5,2
		c-1.2,0.6-2.3,1.4-3.3,2.2c-5.5,4.1-10.9,8.2-17.9,9.5c-7.2,1.5-14.5,2.8-21.5,5.6v97c12.6,3.1,25.1,6.4,38,7.9
		C54.2,351.8,69.8,355.1,83.1,365.4z"/>
	<path fill="#291B42" d="M2,436.6c4.8-14.5,10.9-28.3,20.5-40.2c8.5-10.7,18.1-20.2,32.3-22.8c8.5-1.6,16.9-0.4,25.3,1.3
		c1.4,0.3,3.6,2.6,4.7-0.2c0.8-2.1,0.8-4.4-1.7-6.1c-7.7-5.4-15.6-10.2-24.8-12.5c-8.9-2.3-18.1-2.7-27-4.6
		c-10.5-2.1-20.9-4.3-31.3-6.4v96C1.5,439.9,1.5,438.1,2,436.6z"/>
	<path fill="#2B1C6F" d="M113.1,521c7.1-6.6,13.8-13.7,20-21.2c5.1-5.9,10.3-11.8,13.4-19.1c3.5-8.4-0.3-15.2-9.3-16.8
		c-2.3-0.4-4.8-0.3-6.9-1.2c-8.6-3.6-14.3-0.4-18.9,7c-1.8,2.8-3.9,5.1-3.4,8.9C109.9,492.3,111.4,506.2,113.1,521z"/>
	<path fill="#291C43" d="M40.5,225.8c2.5-2.3,7.6-1.7,7.6-6.8c0-3.8-0.1-7.6-0.4-11.5c-0.3-1.6-0.6-3.3-1.1-4.8
		c-2.3-11.4,1.8-19.5,12.2-24.2c3.4-1.5,5.3-6.2,4-9.9c-2.4-6.2-5.8-12-10.2-17.1c-5.2-6.4-9.3-13.3-11-21.5
		c-0.4-1.8-1.3-3.4-2.6-4.7C25.9,109.8,20.3,84.9,37.6,63C57,38.6,80.2,33.6,108.3,43c10.6,3.5,14,10.6,11.9,21.5
		c-0.2,1.5-0.6,2.9-1.1,4.3c-1.2,2.9,0.1,3.4,2.6,3c10.3-1.3,20.2-3.8,28.8-10.1c11.1-8,18.8-18.7,24.5-31c4.7-10.2,8.2-21,14-30.8
		H0v242c3.2-1,6.2-2.4,9.5-2.8C21.2,237.9,31.7,233.7,40.5,225.8z"/>
	<path fill="#EA74AF" d="M92,430.4c3.4,13.6,12,22.2,25,26.7c6.3,2.2,12.9,3,19.5,3.9c17.2,2.5,26,10,30.1,26
		c0.6,2.6,1.1,5.2,1.4,7.8c0.9,6.4,0.8,6.5,7,5.3l7.6-1.4c-0.7-1.3-1.2-2.4-1.8-3.4c-8.9-15.8-5.7-25,11.3-31.2
		c8.9-3.3,17.7-6.7,26-11.3c2.1-1.2,3.8-2.4,3.8-5.3c0-5.7,2.3-10.6,5.2-15.3c2.8-4.4,5.5-8.7,8.4-13c0.9-1.4,1.8-2.7,1.2-4.6
		c-2.6-9.8-12.8-17.8-23-18.6c-11-0.9-20.7,3-30,7.8c-15.3,7.9-30.1,6-45-1c-6.2-2.9-12.8-4.8-19.6-5.5
		C100.8,395.2,87.4,411.7,92,430.4z M113.6,402.9c2.2-0.9,4.7-1.2,7-0.9c1.1-0.1,2.1-0.1,3.2,0c2.7,0.5,3.6,2.7,4,5
		c0.5,2.6-1.7,3-3.3,3.5c-3.3,1.2-6.7,2-10.2,1.1c-2.2-0.6-4.8-1.3-4.8-4.2C109.6,405,111.6,403.8,113.6,402.9z M107,415.2
		c0.1,3.1-2.4,5.6-5.5,5.7c-0.1,0-0.1,0-0.2,0c-2.4,0.1-4.3-1.8-4.4-4.2c0-0.1,0-0.2,0-0.3c-0.3-4.1,2.6-4.9,5.7-5.6
		C105.3,410.9,106.7,412.6,107,415.2z"/>
	<path fill="#6127AC" d="M109.1,456.5c-1.8-0.6-2.4-0.3-2.3,1.5c0.2,3.6,0.3,7.2,0.5,11.4c2.5-1.1,3.3-2.7,4.4-4.1
		C116.8,459.3,116.6,459.1,109.1,456.5z"/>
	<path fill="#73579B" d="M80.9,124.9c2.6-2.8,5-5.8,7.1-9c7.7-11.8,15.4-23.7,22.9-35.7c2.9-4.4,5.2-9.3,6.5-14.5
		c2.6-10.3-0.6-16.8-10.5-20.6c-7.5-2.9-15.5-3.5-22.5-4c-4.8-0.1-9.6,0.5-14.3,1.7c-15.3,4.3-26,14.4-34.2,27.5
		c-11.2,18-7.6,42.1,8.2,56.2C55.9,137,70.3,136.4,80.9,124.9z"/>
	<path fill="#FFFFFF" d="M100.7,419.2c0.2,0,0.4,0,0.6,0c2.3,0,3.7-1.1,4.1-3.4c0.1-2.1-1.1-3-3-2.9c-2.2,0-4.1,0.5-4.1,3.2
		C98.1,417.6,99.2,419,100.7,419.2z"/>
	<path fill="#0094D8" d="M417.2,184.5c-5.5,3.3-12.2,3.8-18.2,1.5c-4.4-1.7-4.4,0.3-3.8,3.4c1.6,9.3,3.1,18.7,4.9,27.9
		c6.6,34.1,19.7,65.7,38.4,95.6c4.5-4.8,8.3-10.2,13.3-13.9c11.2-8.1,16.7-19.2,19.6-32.2c0.7-3.2,1.5-5.9-0.3-8.9
		c-1.4-2.3-1.8-5.1-1-7.8c1-3.3-0.5-5.1-2.6-7.1c-17.9-17.2-35.7-34.5-46.5-57.5C420,183.6,419.1,183.4,417.2,184.5z"/>
	<path fill="#FFFFFF" d="M607.9,414.1c-2.8-3.9-6.2-7.3-9.9-10.3c-1.5-1.2-3.1-0.8-4.6,0.2c-1.3,0.9-1.9,2.4-1.5,3.9
		c0.6,4.4,8.1,11.2,12.7,11.3l0,0C608,419.1,609.8,416.7,607.9,414.1z"/>
	<path fill="#36FDFF" d="M12.3,579.5c1.2-1.7,0.5-3.1-0.2-4.6c-5.9-13-0.8-23,14.4-23.1c0.2,0,0.3,0,0.5,0c0.8-0.1,1.8,0.2,2.3-0.6
		c0.6-1.2-0.6-1.7-1.2-2.4c-4.2-4.8-4.7-9.3-0.9-14.3c2.3-3,2.8-6.1,2.9-9.7c0.4-17.9,3.9-34.9,12.7-50.7
		c7.9-14.2,18.9-24.5,35.5-27c2.9-0.4,2.9-2,2.9-4.1c-0.2-9.5,0.1-19,0.5-28.5c0.5-10.3,1-20.6,2.1-30.9c0.2-1.9,1.4-4.7-1.8-5.5
		c-14.7-3.6-29.2-5.1-42.4,4.8c-14.5,11-23.5,25.7-30.6,41.9c-3.6,8.5-5.6,17.6-9,26.2v142C5.4,589.7,8.6,584.4,12.3,579.5z"/>
	<path fill="#FFFFFF" d="M550.3,409.6L550.3,409.6c-3,0.5-4.3,2.8-4.2,6c0.1,3,1.7,5,4.9,5.3c2.7,0.2,5.7-2.9,5.7-5.8
		S553.8,409.5,550.3,409.6z"/>
	<path fill="#0068BB" d="M24,598.8c5.6,0.3,6.2-0.7,5-6.1c-0.3-1.6-1.5-2.1-2.5-2.8c-3.3-2.2-6.8-4.3-9.3-7.5
		c-1.7-2.1-2.7-1.7-4,0.3C9.6,588.2,5.1,593,0,597v7C7.7,600.7,15.5,598.4,24,598.8z"/>
	<path fill="#C378D3" d="M617.4,450c5,1.3,10.1,1.9,15.3,1.9c8.1-0.2,13.1-3.4,15.6-10.2c2.6-7,0.8-13.6-5.4-18.7
		c-5-4.1-10.3-8-15.2-12.2c-11-9.3-22.9-18-29.4-31.5c-1.7-3.4-3.2-5.8-7.8-5.7c-3.9,0.1-7.6-2.2-10.9-4.4
		c-6.6-4.4-10.8-10.8-14.7-17.4c-4.7-8-9.3-16.2-15.6-23.1c-2.4-2.6-4.8-6.9-8.8-5.3s-3.3,6.4-3.3,10.2c-0.1,4.8,1.6,9.5,1.2,14.4
		c-0.3,4-2.2,7.1-5.8,8.6c-3.9,1.6-7.1-0.2-9.7-3.2c-3-3.4-5-7.5-5.7-12c-0.9-6.2-1.4-12.5-2.2-18.8c-0.2-1.4-0.3-3.3-2-3.8
		s-2.6,1.3-3.5,2.4c-3.3,4.4-5.8,9.3-7.3,14.6c-2.4,8.6-4.6,17.3-7,26c-2.3,8.1-4.5,16.3-9.3,23.5c-2.3,3.6-6.4,5.6-10.7,5.1
		c-4.6-0.2-8.7-3.3-10.1-7.7c-1.1-3.1-1.8-6.4-1.9-9.7c-0.6-9.4,1.7-18.5,2-27.8c0.3-3.2-0.1-6.3-1.2-9.3c-2.3-6.2-5.7-7.2-11-3.3
		c-4.7,3.4-8.1,7.8-11.5,12.4c-5.5,7.3-10.6,14.9-18.1,20.5c-4.6,3.5-9.7,5.7-15.3,4.1c-3.7-1-5.4,0.2-7.4,2.8
		c-11.2,15.2-22.9,29.8-39.6,39.7c-4.8,2.8-7.8,7.6-9.3,13.2c-2.4,8.7,1.2,16,9.8,18.3c6.6,1.8,13.5,3.9,20.5,0.8
		c0.9-0.5,2-0.4,2.9,0.1c3.7,2.2,7.9,2.4,12,3c15.4,2.3,30.8,3.1,45.8-2.8c7.5-2.8,15.5-4.1,23.5-3.8c22.2,0.5,44,3.4,65.3,10.2
		c9.8,3.1,19.9,5.6,30.3,4.3c8.4-1,16.7-2.9,25.1-4.1C596.9,450,607,447.7,617.4,450z M392.2,411.5c-0.2,2.6-1.9,3.7-4.4,3.6
		c-2.5,0-3.9-1.4-3.6-3.7c0.2-2.3,2-3.7,4.6-3.5C391.2,407.8,392.4,409,392.2,411.5z M398.2,403.2c-3.5,0-6.3-2.8-6.3-6.3
		c0,0,0,0,0-0.1c0-3,2.9-5.9,6.2-5.9c3,0,6.6,3.4,6.8,6.3C405,400.5,401.9,403.3,398.2,403.2z M442.7,368.9c2.3-0.1,4.3,1.8,4.3,4.1
		c0,0.1,0,0.3,0,0.4c0,2.4-1,4.5-3.6,4.5c-3,0.1-4.3-2-4.5-4.6C439,370.6,439.9,368.8,442.7,368.9z M442,430c-3.5-0.5-5-3-5-6.3
		c0-3.5,3.2-5.9,8-5.7c2.6,0.3,3.7,2.7,3.8,5.5C448.9,426.7,445,430.4,442,430z M463.7,413.8c-5-0.1-8.3-3.5-8.4-8.7
		c0-7.6,5.1-13.3,11.9-13.2c5.8,0.1,8.8,3.3,8.8,9.1C475.9,407.6,469.9,413.9,463.7,413.8z M499.8,413.5c-2.9,0.3-4.7-1.3-4.9-4.3
		c-0.2-3,1.8-4,4.4-4.2c3-0.2,4.4,1.7,5.2,4.2C504.3,412.2,502.2,413.2,499.8,413.5z M552.9,353.8c3.1,0.2,3.1,2.8,3.8,4.7
		c-0.6,2.1-1.2,4.5-3.5,4.2c-2.9-0.4-4.1-3-4.2-5.8C548.8,354.1,550.7,353.8,552.9,353.8z M534.9,390.2c0-5,2.9-8.8,6.9-8.7
		c5.4,0,10.1,4.5,10.2,9.7c0,4.5-3.5,7.8-8.5,7.9C538.3,399.1,535,395.7,534.9,390.2z M551.2,422.1c-4,0.1-6.5-2.7-6.4-7.1
		c0.1-4,2.8-7.1,6.2-7c3.8,0.1,6.9,3.2,7,7C558,418.8,555,422,551.2,422.1z M602.5,420.3c-5.3-2.1-9.4-5.5-11.6-10.8
		c-1.7-4.1,0.9-7.8,5.5-7.7c1.4,0,2.8,0.5,3.8,1.6c2.8,2.8,5.7,5.6,8.3,8.6c1.7,1.9,2.8,4.3,0.8,6.7
		C607.6,420.7,604.8,421.4,602.5,420.3z"/>
	<path fill="#3C1B98" d="M474,266.9c-1.7,5.5-3.4,10.9-5.5,17.4c5.5-3.7,11.2-6.9,17.2-9.7c-3.3-2.9-6.4-5.6-9.4-8.4
		C475.1,265,474.5,265.3,474,266.9z"/>
	<path fill="#F6F3D7" d="M26.2,634.2c1.2,0,2.2-0.6,3-1.4c4.1-4.5,8.3-9,12.4-13.5c-8.4-0.2-12.9,7.5-20.5,9.2l13.6-9.6
		c-9.9,0.2-20.4-4.6-28.1,5.8c-0.2-3,2.3-3.5,2.4-5.5c-2.4-0.9-4.8,1.3-8.3,0c8.3-2.7,16.1-2,24-3.1c-2.3-2.5-4.9-3.3-7.1-4.7
		c-2-1.3-4.1-2.5-6.2-3.8c0.2-0.3,0.4-0.7,0.5-1c9.5,4.8,18.1,12.9,30.3,9.7c-3.1-4.3-7.9-6.4-11.4-10c4.7,1.4,8,4.8,11.6,7.8
		c1,0.9,1.9,2.8,3.7,1.3c3-2.7,6.6-4.8,9.3-8.1c-18.6-4.9-37-10.2-55.4-0.3v25C8.5,634.4,17.4,635.2,26.2,634.2z"/>
	<path fill="#00D7FF" d="M380.1,213.2c-3.8,10-8.4,20-16.5,27.6c-1.5,1.4-1.4,2.6-1,4.4c9.2,35.6,24.1,69.4,44.1,100.3
		c2,3.1,2.9,2.5,4.8,0.1c7.3-9.1,14.6-18.1,22.3-26.9c2.7-3.1,3.3-5.2,1-8.9c-20.4-33.2-33.2-69.2-39.1-107.8
		c-1-6.3-1.1-12.8-4.4-18.9C387.6,193.1,383.9,203.1,380.1,213.2z"/>
	<path fill="#FB9392" d="M481.1,241.5c-7.6,2.2-10.6,8.5-7.5,15.9c2.9,6.9,8.6,11.2,14.7,15c0.7,0.4,1.5,0.6,2.4,0.5
		c4.3-0.9,8.6-1.9,13.1-3C493.2,262.6,478.3,259.1,481.1,241.5z"/>
	<path d="M725.9,592.1L725.9,592.1c0.1-0.1,0.1-0.1,0.1-0.2C726,592,726,592,725.9,592.1z"/>
	<path d="M734.9,582.1L734.9,582.1L734.9,582.1L734.9,582.1z"/>
	<path d="M317,701C317,701,317.1,701.1,317,701c0,0,0-0.1-0.1-0.1c0,0,0,0-0.1,0C316.9,700.9,317,701,317,701z"/>
	<path d="M309,693C309,692.9,309,692.9,309,693L309,693c0,0.1,0,0.1,0.1,0.1C309,693.1,309,693,309,693z"/>
	<path d="M443.7,641.2l0.2-0.1L443.7,641.2z"/>
	<polygon points="713.7,608.8 713.7,608.8 713.7,608.8 713.9,608.9 713.9,608.9 	"/>
</g>
</svg>
