<?xml version="1.0" encoding="utf-8"?>
<!-- Generator: Adobe Illustrator 25.4.0, SVG Export Plug-In . SVG Version: 6.00 Build 0)  -->
<svg version="1.1" baseProfile="tiny" id="图层_1"
	 xmlns="http://www.w3.org/2000/svg" xmlns:xlink="http://www.w3.org/1999/xlink" x="0px" y="0px" viewBox="0 0 768.4 1024.1"
	 overflow="visible" xml:space="preserve">
<g id="line">
	<path fill="#1B382A" d="M661.2,972.9c-11.4,5.1-21.5,12-29.2,21.9c-6.8,8.7-12.1,18.2-13.8,29.3h-2c0.2-5.6,2.6-10.6,4.9-15.5
		c1-2.1,1-3.4-0.7-5.2c-5.5-6.1-10.4-12.6-14.8-19.5c-0.8-1.3-1.9-2.3-3.2-3c-28.2-12.9-56.2-26.4-86.2-35.1
		c-2.5-0.8-5.1-1.3-7.8-1.6c-3.6-0.4-4.9,1.4-3.8,4.9c1.7,5.1,4.6,9.7,8.6,13.3c14,13.3,27.7,27,43.5,38.2
		c9.4,6.8,19.3,12.8,29.8,17.9c-2.8,2.4-4.8-0.6-7.1-0.5c-13.2,0.6-26.3-0.7-39.4-1.6c-17.3-1.3-34.6,1.3-50.7,7.7h-6
		c18.7-8.1,39.1-11.3,59.4-9.6c10.9,0.9,21.8,1.9,33.1,1.5c-0.7-1.7-2.3-2-3.4-2.7c-17.2-10.6-33.1-23-47.5-37.2
		c-3.7-3.6-7.5-7.1-11.2-10.7c-4.8-4.5-8.9-9.5-10.8-15.9c-1.5-5.1,0.6-7.8,5.9-7.5c2.6,0.2,5.3,0.8,7.8,1.6
		c27.6,7.8,53.3,20.3,79.4,31.9c1.8,0.8,3.6,1.6,6.3,2.9c-1.6-3.2-2.8-5.5-3.9-7.9c-9-19.2-18.1-38.5-27-57.8
		c-2.9-6.2-4.9-12.7-5-19.7c0-3.1,0.4-6.2,3.8-7.5c3.3-1.3,6.1-0.4,8.8,2.5c6,6.3,12.2,12.3,18.7,18.1
		c14.2,12.8,28.2,25.8,39.2,41.8c-4.4-27.9-8.7-55.7-7.2-84c1-1.3,1.1-2.6-0.2-3.9l0,0l1.8-1.9c6.8,12,13.6,24,20.5,35.9
		c7.9,13.9,14.8,28.2,18,44.1h-2c-5.8-27.4-22.2-49.5-36-74.6c-0.7,14.9-0.1,29.8,1.7,44.6c2.5,19.8,4.6,39.6,12,58.4
		c1.3,3.2,2.8,6.3,4.2,9.5c2.8-1.3,5.6-2.6,8.4-3.9c0.5-0.2,0.9-0.3,1.4-0.5L661.2,972.9z M568.3,894.1c0.1,0.8,0.3,2.3,0.5,3.8
		c1.4,10.1,7,18.6,11,27.6c6.7,14.8,13,29.8,20.4,44.3c5.6,11.2,12.6,21.6,20.8,31c1.2,1.4,2.2,3.8,4.2,0.5
		c5.3-8.9,12.5-16.5,21.1-22.3c1.2-0.8,1.6-1.3,1-3c-5.2-15.8-13.6-30.4-24.7-42.8c-14.3-15.9-31.3-28.9-45.9-44.4
		c-1.3-1.6-3.6-2.1-5.5-1.3C568.4,888.6,568.4,891.1,568.3,894.1z"/>
	<path fill="#6D8B3B" d="M631.1,858.2l-1.8,1.9c-54,13.3-106.8,30.3-157.9,52.4c-50.3,21.7-99,46.8-145.8,75.2
		c-1.4,0.9-2.9,1.6-4.3,2.5c-1-0.4-1.7-1.3-1.8-2.3c49.8-30.5,101.8-57.3,155.5-80c0.8-0.3,1.5-0.6,2.3-0.9l5.9-2.6
		c44.7-18.7,90.7-33.2,137.6-45.2c4.7-1.2,8.3-2.6,9-8.1c0.2-2.4,2.1-4.4,4.5-4.8c2.7-0.4,4.7,1.3,5.6,3.4c1.8,3.9,5.1,4.3,8.6,4.5
		c10,0.8,19.4-2,28.7-5.3c8.6-3.1,16.9-7,25.9-8.8l5.3-1h1.9c0.6,0.3,1.3,0.1,1.8-0.4c16.9-2.5,33.9-4.3,50.9-5.5
		c1.8-0.1,3.7,0.1,5.3-0.9v3c-9.2,1-18.5,2-27.7,2.9c-21.4,2.1-42.6,4.5-62.6,13.5c-8.9,4.2-18.8,6.1-28.6,5.6
		c-2-0.1-3.9-0.6-5.9-0.9l-2.5-0.1c-2.5-1.9-3-7.2-6.3-6.5C631.5,850.4,631.6,855,631.1,858.2z"/>
	<path fill="#C2B0A3" d="M0.3,696.1c6.3-2.6,13.1-2,19.7-2.8c6.4-0.8,12.6-2,18-5.2c13.5-7.9,28.1-12.9,42.7-17.9
		c13.1-4.5,24.2-12.5,35.2-20.5c6.8-4.9,9.6-12.7,9-20.7c-0.9-12.2,4.6-21,12.3-29.3c6.8-7.2,7.3-14.5,1.3-22.5
		c-4-5.3-8.6-10.1-13-15.1c-11.6-13.1-13.6-34.9-4.8-50c2.8-4.9,7.5-7.6,12.1-10c6.9-3.7,14-7.1,21.2-10.2
		c13.5-5.8,19.4-16.2,20.3-30.5c0.7-10,3.2-19.7,7.5-28.8c4.9-10.7,13.3-15.2,24.6-15.5c30.3-1,51.6,15.2,58.8,44.7
		c2.1,8.5,3.7,17.2,8.3,24.9c3.6,6,9.2,10,13.5,15.3c6.3,7.8,11.4,16.4,15.2,25.7c0.9,2.1,1.9,4.2,2.8,6.4
		c4.2,9.7,11.7,14.2,22.1,13.8c10.8-0.4,21.3,0.6,30.9,6.1c0.3,1.1,0.6,2.1,1,3.2c-6.1-4.4-13.1-6.4-20.5-7.1c-3-0.3-6-0.2-9-0.2
		c-15.5,0-22.4-4.5-28.2-18.8c-4.1-10.1-9-19.7-16.1-28c-0.1-0.1-0.1-0.3-0.3-0.4c-13.9-11.1-18.7-26.7-22.8-43.1
		c-5.9-24.1-22.2-38.1-46.9-40.2c-21.8-1.9-27.7,2.5-35.2,22.7c-3.1,8.3-3.6,17.2-4.8,25.9c-1.5,11.1-7.4,19-17.2,24.1
		c-7.8,4-16,7.4-23.9,11.3c-15.3,7.6-17.9,21.3-16.5,35.2c1.2,11.2,6.5,20,14.2,27.8c3.1,3,5.9,6.3,8.5,9.8c5.9,8,5.2,17.2-1.5,24.6
		c-1.7,1.9-3.2,3.8-4.9,5.7c-4.9,5.1-7.4,12-7.1,19.1c0.3,7.6-0.9,15-5.8,21.2c-1.4,1.9-3,3.6-4.8,5c-13.2,9.3-26.6,18.3-42.4,22.8
		c-11.4,3.3-22.3,7.9-32.5,13.9c-8.8,5.1-18.3,6.9-28.1,7.5c-4.5,0.3-8.9,1-13.2,2.1v-2L0.3,696.1L0.3,696.1z"/>
	<path fill="#C2B0A3" d="M255.5,245c-26.7-18-60.6-5.2-77.5,9.7c-17.4,15.4-24.3,35.4-25.6,57.6c-0.6,11-0.2,22,0.1,33
		c0.3,12.5-5.6,22.2-13.3,31.3c-6.3,7.4-9.8,16.8-9.8,26.6c-0.3,16.6-0.7,33.2-5,49.5c-1.5,5.6-3.5,11.1-6,16.4
		c-3.4,7.9-9.8,14.2-17.7,17.6c-13.5,5.9-19.8,17-22,30.6c-3.1,18.8-1.2,38.1,5.5,55.9c3.1,8.3,8.1,14.4,16.7,17.9
		c13,5.2,13.2,8.6,2.5,17.4c-4.5,3.7-9.3,6.9-13.1,11.5c-5.4,6.6-5.1,14.6-5.8,22.3c-1.1,13.2-8.1,20.2-21.4,20.8
		c-15.1,0.7-29.8,2.6-43.1,10.6c-7,4.2-13.1,9.6-19.7,14.4v-3c6.9-4.3,12.8-9.9,20-13.8c10.1-5.4,20.7-8.9,32.2-9.4
		c5.1-0.2,10.3-0.8,15.3-1.8c9.7-2,14.4-7.7,14.4-17.5c-0.1-15,5.4-26.8,18.4-34.8c1.7-1.1,3.3-2.3,4.8-3.6c5-4.1,5-7.5-1.1-9.3
		c-18.2-5.6-23.4-20.4-26.6-36.5c-2.9-14.9-3.9-30-0.4-45c2.6-11.1,7.5-21.4,18.3-26c16.1-6.9,22.7-19.9,26.8-35.5
		c3.6-13.6,4.7-27.6,4.5-41.5c-0.2-15.4,4.1-28.7,14.6-40.1c5.9-6.5,9.1-15,8.9-23.8c-0.1-11.7-0.7-23.4,0-35
		c2.1-32.8,17.2-60.2,50.8-72.7c18.9-7,37.4-6.9,55,4.2C256.4,243.8,256.1,244.6,255.5,245z"/>
	<path fill="#BBCE52" d="M323.3,838c-18.9-5.8-37.7-12-56.9-16.9c-32.1-8.1-64.7-13.8-97.6-17.2c-43.4-4.7-87-6.5-130.6-5.5
		c-12.6,0.3-25.3,0.3-37.9,1.8v-3c39.4-2.8,78.8-2.5,118.2-0.3c25.9,1.5,51.7,3.8,77.4,7.3c43.1,5.9,85.5,16.3,126.5,31
		C322.7,836.1,323,837.1,323.3,838z"/>
	<path fill="#9E6433" d="M732.4,942.2l14.9,27.5c-0.1,1,0.3,2,1.1,2.6c0.4,1.2,0.8,2.5,1.2,3.8c5.2,15.6,9.3,31.5,9.7,48h-2
		c-1.1-18.6-4.4-36.7-12.5-53.6c-9.6-20.3-21.2-39.7-34.6-57.7c-1.7-2.2-1.2-3.2,0.4-4.9c1.7-1.8,3.3-3.7,4.7-5.7
		c3.9-5.7,5.3-11.7,2.2-18.4c-2-4.4-3.6-9.1-5.3-13.7c-0.4-1.3-1.6-2.2-3-2c-2.7,0.2-4.8,1.3-5.8,4c-2.3,6.2-2.6,6.3-8.7,3.8
		c-7.7-3.2-8.7-2.8-11.2,5c-0.9,2.8-2.7,2.8-4.6,2c-4.8-2-4.6,1-4.5,4.1c0.8,12.7,10.3,22.4,23.3,22.9c5,0.2,7.7,1.9,10.8,5.7
		c19.7,24,31.3,52,41.9,80.6c3.3,8.9,4.1,18.5,4.9,28h-2c-1.3-19.2-6.7-37.9-16-54.8c-0.6-1.1-1.2-2.1-1.8-3.2
		c-1.9-5.5-3.5-11.1-7.9-15.3c0.5-1,0.6-1.9-0.9-2c0.7-1.3,0.2-2.9-1.1-3.6l0,0c-0.2-1.5-0.9-2.9-2-3.9c-4.6-10.7-12.5-19-19.5-28
		c-0.5-0.7-1.3-1.1-2.1-1c-4.9,0.6-9.4-1.5-14.2-2c-0.5-1.1-1.2-0.7-1.9-0.4c-0.3-1.8-1.9-2.1-3.1-3c-7-5.3-10-12.7-10.3-21.2
		c-0.2-4.8,1.4-5.9,6-4.8c1.6,0.4,2.5,0.8,3.3-1.4c2.9-7.9,4.1-8.4,12-6c1.1,0.3,2.2,0.5,3.3,0.8c0.5,1,1.2,0.6,1.9,0.2
		c1.3,1.7,2,0.6,2.2-0.7c0.9-5.9,4.8-7.6,10.1-7.5l2.6,1c1.5,4.5,2.6,9.2,4.7,13.5c3.1,6.5,3.7,12.9,0.8,19.6
		c-1.2,0.7-0.9,1.9-1.2,3c-1.9,2-3.8,4-5.8,6c-1.1,1.1-0.7,1.9,0.1,3c3,3.9,5.9,7.9,8.8,11.8c0.4,1.4,0.7,2.9,2.5,3.2
		c1.8,4.7,4.4,9.2,7.7,13C731.4,941.1,731.5,941.8,732.4,942.2z"/>
	<path fill="#365B45" d="M214.2,942c-2.2,1.7-3.1,0.6-3.8-1.6c-1.9-6-4.3-11.9-7.2-17.5c-4.4-9.2-10.3-17.5-17.5-24.7
		c-10-10-20-20-30.1-29.9c-9.4-9.2-20.4-15.3-33.5-17.4c-18.7-2.9-37-8.2-55.9-10.2c-13-1.4-25.9-1.4-37.4,6.5
		c-3.9,2.7-8.2,4.2-12.3-1.1C15.3,856.4,6,858,0.2,863v-4c2.4-1.4,4.8-2.9,7.3-4.3c3.8-2.1,5.6-5.5,6.3-9.7c0.2-1.4,0.2-3.3,2-3.7
		s2.7,1.2,3.3,2.5c1.4,3.2,3.9,3.2,6.2,1.7c17.8-12.1,37.1-9.2,56.4-5.7c14.2,2.6,28.4,5.3,42.6,8.2c12.8,2.6,24.6,9,33.7,18.3
		c8.6,8.6,17.1,17.3,26,25.7C198.8,906,208.2,923,214.2,942z"/>
	<path fill="#36592E" d="M319.5,987.8c0.1,1.1,0.8,2,1.8,2.3c6.1,10.5,10.7,21.5,10,34h-3c0.4-11.4-3.1-21.6-9.1-31.1
		c-27.4-42.8-74.1-52.7-106.5-46c-1.5,0.3-2.9,0.7-4.3,1.3c-30.2,14-51.8,35-56.1,69.9c-0.2,2-0.6,3.9-1,5.9h-3
		c2.3-16.4,6.9-32,16-46.1c5.7-8.8,12.9-15.9,22.6-20.3c4.1-1.8,8-4.1,11.5-6.9c4.8-3.8,10.2-5.9,15.9-7.7
		c14.6-1.8,29.3-1.1,43.6,2.3c23.9,5.8,43,18.8,58.2,38C317.2,985,318.3,986.4,319.5,987.8z"/>
	<path fill="#9E6433" d="M53.3,1024.1c3-30.6,10.6-60.6,22.6-89c0.2-0.6,0.5-1.3,0.8-1.9c3.6-6.3,5.4-11.3-2.2-17.3
		c-6.1-4.8-7.4-13.1-5.3-21.2c0.9-3.2,1.4-6.5,2.1-9.8s1.7-6.7,6-6.8c3.8-0.1,6,2.3,7.2,5.8c0.3,0.9,0.7,1.9,1.2,3.1
		c2.5-0.8,3.9-3,5.7-4.5s3.5-4.1,6.3-3.1s3.9,3.9,4.6,6.7c0.2,1.3,0.3,2.5,0.3,3.8c2.9-1.6,5.5-4.4,9-1.4c3.1,2.7,3.1,6.1,2.6,9.6
		c-1.4,8.2-4.7,15.5-11.1,21.2c-3,2.7-6.4,4.6-10.3,4.5s-5.5,1.7-7,4.5s-3.2,5.1-4.3,7.9c-11.2,28.2-20.4,57-20.2,87.9h-2
		c0.1-11.4,1.6-22.6,3.1-33.9c0.9-4.1,1.8-8.2,2.7-12.2c3.5-14.2,9.3-27.7,14.2-41.4c1.4-3.9,4-7.2,5.9-10.9
		c1.3-2.5,3.2-3.3,5.9-3.6c11.9-1.4,23.3-16.7,21.1-28.4c-0.8-4.2-3.8-5.4-7-2.8c-1.1,0.9-1.9,2.8-3.6,1.8c-1.3-0.7-1.2-2.3-1.2-3.6
		c0.1-3-0.3-6.3-3-7.4c-2.9-1.2-4.4,2.3-6.2,4c-5.3,4.9-5.9,4.8-8.7-1.4c-1-2.3-2.6-4-5.2-4c-2.8,0-3.4,2.4-3.9,4.5
		c-0.8,3.4-1.4,6.8-2.2,10.2c-2.4,9.6,0.6,17.7,8.3,23.4c3.9,2.9,3.8,5,2.1,8.9c-6.9,16.2-14.1,32.3-17.4,49.7
		c-1.6,3.6-2,7.4-2.7,11.2c-2.8,11.8-5.6,23.7-6.1,35.9H53.3z"/>
	<path fill="#9F6635" d="M723.3,1024.1c-11.7-13.8-19.5-30-28.6-45.4c-2.3-3.9-2.4-7.2,1.4-10c1.8-1.3,2.3-3.2,2.8-5.1
		c2.4-10-2.2-20.3-11.1-25.3c-0.2-0.1-0.3-0.2-0.5-0.2c-6-3.6-6.1-3.6-7.6,3.4c-0.6,2.7-1,3.6-3.6,1.3c-2.6-2.2-6.3-2.6-9.3-0.9
		c-2.6,1.5-1.8,5-1,7.8c0.5,1.8,1.4,3.9-0.1,5.2s-3-0.6-4.5-1.1c-2.5-0.9-5-1-7,1.1s-0.8,4.3,0.3,6c6.4,9.5,13.2,18.6,26.4,18.4
		c2.3,0,4.6-0.5,6.7-1.5c1.8-1,2.9-0.8,2.6,1.6c-11,4-20.7,2-29.1-6.3l-1.9-1.1c-0.5-3.4-4-4.7-5.3-7.5c-1.6-3.4-4.5-6.8-1.6-10.5
		s7-3,10.9-1.4c0.2,0.1,0.5-0.3,0.7-0.4c-1.7-8.1-1.3-9.8,3.4-13.7h2c7.3,2.6,7.3,2.6,8.1-2.9c0.6-0.7,1.1-1.5,1.7-2.2l1.6-1.8
		c0.6,0.9,1.3,0.5,2,0.1c1.4,2.2,3.5,3.9,5.9,5c7.4,3.3,10.5,9.4,12,16.9c0.4,2-0.3,4.3,1.2,6.1l-0.7,2c-0.5,3.6-1.2,7.1-4.6,9.5
		c-2.6,1.9-1.8,4.2-0.4,6.6c9.4,15.9,17.2,32.9,29.9,46.7h-2.7L723.3,1024.1L723.3,1024.1z"/>
	<path fill="#688AAB" d="M568.3,713.2c15.6,1.7,31.3,1.4,46.8,0.6c36.4-1.9,72.8-1.6,109.2-1.5c14.6,0,29.3-0.1,43.9-0.1v2
		c-25.6,0-51.3,0.4-76.9,0c-36.6-0.6-73.2,2.8-109.8,2c-10.1-0.2-20.3-0.7-30.4-1.1l-1.4-2l0.5-0.8l2.1-0.1c4.5,1.2,9.2,1,13.8,0.9
		L568.3,713.2z"/>
	<path fill="#6E8EAF" d="M0.3,733.1c24.9-3.3,49.9-5.5,74.9-7.2l2.2,1.2l4.1,0.1c-9.7,0.9-19.5,1.9-29.2,2.6
		c-17.4,1.3-34.7,3.2-52,5.2L0.3,733.1z"/>
	<path fill="#C3B2A5" d="M768.3,561.1c-15.9,7.2-29.3,17.5-39.2,32.1c-4.9,7.3-9,15.2-15.7,21.1l-1-2.3c5.7-4.3,8.9-10.6,12.6-16.4
		c10.7-16.7,24.8-29.1,43.3-36.5L768.3,561.1z"/>
	<path fill="#254033" d="M732.4,942.2c-0.9-0.4-1-1.2-1.1-2c9.3-15.4,20.1-29.9,32.2-43.3c1.5-1.7,3.3-3.2,4.9-4.8v3
		c-12.8,12.6-23.1,27.1-32.7,42.2C734.6,939,733.4,940.6,732.4,942.2z"/>
	<path fill="#233F32" d="M768.3,946.1c-4.8,7.8-7.6,16.6-11.7,24.8c-0.9,1.8-0.2,2.6,1.5,3.3c3.5,1.5,6.8,3.2,10.2,4.9v2l-19.9-8.8
		c-0.8-0.6-1.2-1.6-1.1-2.6c6.5,2.2,6.4,2.2,9.5-4.2c3.9-8.1,6.7-16.7,11.5-24.4V946.1z"/>
	<path fill="#9F6635" d="M690.3,979.1c2.9-1.7,2.9,1.2,3.6,2.4c5.8,10.6,11.3,21.4,18.3,31.3c2.7,3.8,5.4,7.5,8.2,11.3h-3
		C707.2,1009.8,698.2,994.8,690.3,979.1z"/>
	<path fill="#D9BF6F" d="M255.5,245c0.6-0.5,0.9-1.3,0.7-2c6.9-33.8,22.2-63.6,42.9-90.8c2.8-3.7,2.3-5.6-0.7-8.7
		c-12.1-12.7-20.6-27.2-18.9-45.5c1.9-20.6,12-36.9,28-49.3c23.1-18,48.7-23.1,76.3-11.4c12,5.1,21,14,27.4,25.3
		c1.3,2.4,2.4,3.4,5.4,2.5c27.8-8.9,56.2-11.4,85.2-9.1c31.1,2.5,61.6,8,91.2,17.7c4.3,1.3,8.5,2.9,12.6,4.8
		c2.9,1.3,4.7,0.8,7.1-1.1c22.3-17.8,47.9-23.5,75.6-18.5c17.7,3.2,30.8,14.4,39.2,30c16.7,30.9,16.6,61.7-2.8,91.7
		c-1.8,2.8-1.7,5-0.4,7.8c12.6,27.9,18.5,57.4,21.2,87.7c3.6,39.8-4.8,77.2-20.8,113.5c-11.1,25-23,49.5-40.4,70.9
		C673,474.3,661,487.4,647,498.6c-6,5-13.3,8.5-21,10c-1.8,0.2-3.5,1.1-4.5,2.7c-0.1-0.8-0.2-1.5-0.2-2.3l-1.7,1.4
		c-0.8-1.3-2.1-0.9-3.3-1c-1.6-1.5-1.9,0.5-2.7,1c-0.2-2.3-2.4-2.1-3.8-2.6c-4.8-1.6-9.4-3.7-12.9-7.3c-9.3-9.7-21.2-14.6-33.6-18.5
		c-15.3-4.8-30.8-9.4-46.8-11.5h-2.2c-0.7-0.4-1.4-0.7-2.2-0.9c-15.1-2.3-30.3-2.7-45.4-3.8c-1.9-0.1-4-0.9-5.7,0.8l-1.6-1
		l-27.2-0.1c-1-0.4-2.1-1.5-3,0.1c-15.7-0.5-30.9,1.1-45.1,8.9c-8.8,4.9-18.4,7.3-28.7,5h-1.9l-2.9-1c-0.4-1.1-1.3-1.1-2.3-1
		c-11-2.8-19.5-9.8-27.5-17.3c-22.8-21.4-37.6-48.1-48.8-76.9c-13.6-35.4-20.8-71.8-19.5-109.8C252.9,263.8,253.9,254.4,255.5,245z
		 M598.3,80.2c-2.3-1.9-5-3.3-7.8-4.2C551.2,63.5,511,57.1,469.7,58.4c-8.5,0.3-17.3,0.4-25.5,3.6c-2.1-1.6-3.3,1-5,1.1
		c-10.2,0-20.2,2.7-29,6.5c-51.6,22.4-93.8,56-123.2,105.1c-24.8,41.3-35.7,85.3-30.5,133.2c3,27.6,10,54.7,20.8,80.4
		c11.6,27.6,26.5,53,49.4,72.9c17.6,15.3,36.6,21.6,58.5,9.2c10.5-5.9,21.9-7.8,33.6-8.1c23.8-0.5,47.6-0.1,71.4,1.6
		c26.6,1.9,52.2,7.7,77.4,16.1c11.3,3.8,21.9,8.6,30.5,17.3c3.9,3.9,8.8,6.7,14.2,7.9c12.1,2.9,22.4-1.3,31.7-8.4
		c14.1-10.8,26-23.8,37.2-37.5c23.9-29.2,38.7-63.2,51.1-98.3c10.7-30.3,12.8-61.5,9.3-93.5c-3.3-31-11.7-61.2-24.9-89.4
		c-23.4-50.3-65.8-78.3-115.3-97.9C600.3,80.2,599.3,78.2,598.3,80.2z M282.2,102.4c0.2,1.9,0.3,4.4,0.7,6.8
		c1.9,12.6,9,22.3,16.9,31.6c2.8,3.3,4.4,3.2,7.1-0.1c10.1-12.4,21.6-23.6,34.2-33.4c19.8-15.8,41.5-29,64.6-39.3
		c3.2-1.4,3.8-2.6,1.8-5.8c-6.5-10.5-15.2-18.6-26.7-23c-26.5-10.4-50.8-5-72.4,12.5C292.7,64.5,283,80.9,282.2,102.4z M720.8,179.6
		c1.7-0.6,2.1-1.8,2.7-2.7c14.7-23.5,16.6-48.4,7.2-74.1c-8.8-23.8-24.6-39.8-51-42.3c-23.6-2.2-45.2,3.7-64.2,18.1
		c-2.8,2.2-1.9,3.1,0.7,4.3c5.7,2.6,11.5,5.3,17.1,8.3C671.8,111.2,702.8,138.9,720.8,179.6z"/>
	<path fill="#784610" d="M619.5,510.1l1.7-1.4c0.1,0.8,0.2,1.5,0.2,2.3c-10.1,26.6-20.7,52.9-31.6,79.2c-0.5,1.3-0.9,2.6-1.4,3.9
		c-4.3,9.9-8.5,19.8-13,29.6c-1.4,3-1.1,4.6,2.1,6.1c4.5,2.1,6,6.6,4.2,11.1l-29.3,71.2l-2.1,0.1l29.6-73.7
		c-5.9,3.9-12.5,6.6-19.4,7.7l-1.2-1.2c1.1-1.9,3.2-1.4,4.8-1.8c4.5-1,8.9-2.8,12.8-5.3c1.2-0.8,4.2-1.5,1.8-3.8
		c-1.1-1.1-2.5-3.1-5.2-0.5c-4.5,4.6-10.6,7.2-17,7.3c-2.9,0.1-6.2-0.5-6.7-3.8c-0.4-2.4-0.9-4.8-1.4-7.5c2,0.2,3.4,2,3.2,4
		c0,0.1,0,0.2,0,0.2c-0.6,5.4,2.9,5.2,6.3,5c3.1-0.1,6-1.3,8.4-3.2c-6.2-3.6-12.6-5.6-19-7.7c0.3-0.6,0.7-1.3,1-1.9l1.2,0.5l0.1,0.2
		l0.2-0.1c5.8,1.5,11.2,4,16.7,6.5c2.5,1.2,6.2-0.8,5.4-2.9c-0.9-2.5,0.3-4.1,1.1-6C589.3,586.6,605.1,548.7,619.5,510.1z"/>
	<path fill="#DBC173" d="M588.4,594.2c0.5-1.3,0.9-2.6,1.4-3.9c7.9-2.5,15-6.9,23.1-9c24.3-6.4,48.3-5.8,71.9,2.9
		c13.4,4.9,23.5,13.6,27.7,27.9l1,2.3l-0.9,0.9l-1.4-1.2c-4.1-13.1-12.7-21.9-25.2-27.2c-11.7-5-23.9-6.9-36.4-7.6
		C628.1,578,606.8,583.2,588.4,594.2z"/>
	<path fill="#764410" d="M348.3,477.2c0.9-0.1,1.9-0.1,2.3,1c0,22.4,4,44.3,8.2,66.1c4.3,22.2,8.9,44.3,12.2,66.6
		c0.2,1.5,1.4,3.4-0.8,4.4c-2.4,1.1-1.5,2-0.2,3.1c1.5,1.3,2.9,2.7,5.6,3.2c-1.6-3.5-1.3-7-1.1-10.5h1.6c0.2,5.4,0.7,10.9,6.4,13.4
		c8,3.7,16.3,6.6,24.9,8.6c0.4,1.1,1.3,0.9,2.1,0.8c18.9,5.1,38.3,6.9,57.6,9.2c3.2,0.4,6.6-0.1,9.4,2c-0.1,0.2-0.2,0.5-0.2,0.8
		c-11.7-1.3-23.5-2.2-35.2-3.9c-25.7-3.8-51.2-8.7-73.6-23.2c-2.3-1.5-2.6,0.7-3,1.7c-0.3,0.8-2.3,1.8,0.5,3.1
		c8.8,4,17.3,8.5,26.4,11.7l-1.2,1.9c-9.1-3.5-18-7.5-26.6-12c-0.5,3.9,2.2,6.2,3,9.2c7.1,26,14.6,51.8,21.8,77.7
		c0.9,3.4,3,6.3,5.9,8.2c16.6,11.6,36,14.5,55.3,16.7c15.4,1.7,30.9,2.2,46.3,3c13.6,0.7,26.9-0.9,39.7-5.7c4.6-1.7,8-4.2,9.4-9.3
		c1.2-4.1,3.2-8,4.8-12l1.4,2c-1.3,3.1-3,6-3.7,9.2c-1.8,7.6-7.2,11.1-14.1,13.2c-12.4,3.8-25.1,5.7-37.9,4.5
		c-17.7-1.6-35.6-0.8-53.3-3.7c-18.6-3-37.1-6.4-52.5-18.6c-0.4-0.2-0.9-0.4-1.4-0.5l-1-2c0.3-2.6-0.8-4.9-1.8-7.2
		c-0.2-1.4,0.4-2.9-0.9-4c-6.7-24-13.5-48-20.3-72c-0.9-3-3.1-5.5-3-8.9c0.2-4.3,1.7-7.9,5.4-10.1c2.1-1.3,2.4-2.4,2.1-4.8
		c-2.6-17.8-6.1-35.4-9.6-53c-0.3-1.1-0.6-2.1-1-3.2c-2-11.9-4.1-23.8-6.1-35.8C349.8,504.7,348.6,491,348.3,477.2z"/>
	<path fill="#ABA12E" d="M323.3,838c-0.3-1-0.7-1.9-1-2.9c23.2-9.2,46.7-17.3,71-23.4c103.4-26,212.4-17.3,310.3,24.6
		c1.7,0.7,3.5,1.1,4.8,2.6l-5.3,1c-1.2-0.8-2.5-1.5-3.8-2.1c-75.3-31.3-153.6-43.1-234.9-35.4c-46.7,4.6-92.6,15.9-136,33.7
		c-1.8-0.1-2.8,1.5-4.2,2.1C323.9,838.3,323.6,838.3,323.3,838z"/>
	<path fill="#6789AB" d="M387.3,717.2l1.1,1.8c-13.2,2.1-26.5,2.7-39.8,1.9c-22.1-1.2-44.2-0.7-66.4,0.4c-18.6,1-37.3,0.7-55.9,0.7
		c-44,0.2-87.9,2.2-131.8,4.8c-4.3,0.2-8.6,0.2-13,0.3l-4.1-0.1c1.5-2.2,4.2-0.1,5.9-1.8c41.4-2.5,82.8-4.5,124.3-5.2
		c27.6-0.5,55.3,0.4,82.9-1.2c19.8-1,39.6-1,59.4,0C362.4,719.6,374.9,719,387.3,717.2z"/>
	<path fill="#ABA12E" d="M712.1,838.5c-0.4,0.5-1.1,0.7-1.8,0.4L712.1,838.5z"/>
	<path fill="#C2B0A3" d="M83.3,725.4c-1.6,1.6-4.4-0.4-5.9,1.8l-2.2-1.2c2.3-4.7,4.3-9.7,7.1-14.2c6.3-10.1,16.4-14.6,27.4-17.6
		c5.3-1.4,10.6-2.6,15.9-4.1c5.6-1.6,8.8-5.1,10.2-11c3.5-14.6,12.4-23.9,27.7-26.1c1.3-0.2,2.6-0.6,3.9-0.9c5.5-1.3,6.6-3,5.6-8.5
		c-3.1-18.2,15.4-36.2,33.6-33.2c17.2,2.8,30.7,11,40.4,25.6c2.4,3.7,5.5,7.2,9.9,7.9c10.7,1.9,14.4,9.7,17.1,18.6
		c3.6,12.1,5.5,12.2,17.4,15c12.5,3,25.4,2.7,37.9,5.4c4.9,1.1,10,0.3,15,0c9.6-0.6,16.6,2.4,20.5,12.1c3.2,7.9,11.3,9.6,18.6,11.9
		c0.2,0.1,0.7-0.6,1.1-0.9c1.3,1.1,0.7,2.7,0.9,4c-4-1.5-8.1-3-12.1-4.6c-5-2-9-5.3-10.9-10.4c-2.9-7.7-8.5-10.5-16.4-10.2
		c-5.8,0.2-11.7,1.1-17.5,0c-13.2-2.5-26.6-2.7-39.8-5.7c-7.9-1.8-13.7-4.7-15.7-13c-0.8-3.1-1.8-6.1-3-9c-1.9-5.3-5.1-9.1-11-10.4
		c-5.7-1.3-9.9-4.9-13.6-9.5c-6-7.7-11.5-16-21.3-19.7c-5.9-2.3-11.9-4.1-18.1-5.3c-16.9-2.8-33.8,14.3-30.9,31.1
		c1,6-0.6,8.7-6.4,10.4c-1.4,0.4-2.9,0.8-4.4,1c-15.2,2-23.4,11.4-26.9,25.6c-1.4,5.8-4.7,9.5-10.2,11.1c-5.7,1.7-11.5,3.1-17.3,4.6
		c-13.5,3.5-24.3,10.4-29.9,24C78.4,724.3,78.7,725.7,83.3,725.4z"/>
	<path fill="#BBCE52" d="M324.1,838.2c1.4-0.6,2.4-2.2,4.2-2.1c0.5,1.3,1.8,1.4,2.9,1.8C382,855.7,430.8,878,478.4,903
		c1.4,0.9,3.1,1.3,4.7,1.3l-5.9,2.6c-0.4-2.3-2.5-2.5-4.1-3.2c-47.2-24.6-95.7-46.4-146-64C326.2,839.2,325.1,838.8,324.1,838.2z"/>
	<path fill="#6D8B3B" d="M629.4,860.1c1.3,1.2,1.1,2.5,0.2,3.9C629.5,862.7,629.4,861.4,629.4,860.1z"/>
	<path fill="#C2B1A4" d="M711.2,614l1.4,1.2c-4,5-9.3,8.5-14.6,12c-7.7,5.1-15,10.6-20.5,18.1s-12.9,13-20,18.6
		c-4.8,3.8-8.6,8.1-9.7,14.5c-1,5.7-4,7.8-9.8,7.8c-20.3-0.3-38.8,6.5-56.9,14.6c-5.5,2.5-10.1,6.8-12.8,12.2l-2.1-0.1
		c2.4-5.7,6.9-10.4,12.5-13c18.5-9,37.6-15.9,58.6-15.7c5.2,0.1,7.8-2.1,8.7-6.9c1.1-6.3,4.7-10.8,9.6-14.6
		c8.1-6.1,15.8-12.7,22.1-20.8c2.5-3.1,5.2-6,8.3-8.5C694.2,626.8,703.9,622,711.2,614z"/>
	<path fill="#213D30" d="M679.4,933c-0.6,0.7-1.1,1.5-1.7,2.2c-4.8-14.5-11.5-28.2-18.8-41.5c-6.7-12.2-13.4-24.4-17.9-37.6l2.5,0.1
		c0,0.6,0.1,1.2,0.1,1.8c0.2,0.3,0.3,0.6,0.5,0.9c4.4,10.9,9.6,21.5,15.5,31.7C667.2,904.3,673.8,918.5,679.4,933z"/>
	<path fill="#314B3E" d="M723.6,927.2c-1.8-0.4-2.1-1.8-2.5-3.2c-1-6.9-2.1-13.9-3.1-20.8c0.3-1,0-2.3,1.2-3
		C721.2,909.2,722.5,918.2,723.6,927.2z"/>
	<path fill="#274336" d="M713.8,867.2l-2.6-1c-1.2-3.7-3.5-3.6-6.1-1.7c-3.4,2.4-5,6.1-6.2,9.9c-0.7,0.4-1.4,0.8-1.9-0.2
		c0.7-3.6,2.4-6.9,4.9-9.5C707.1,859.2,711.3,860.1,713.8,867.2z"/>
	<path fill="#2B4639" d="M682.9,931.3c-0.7,0.4-1.3,0.8-2-0.1c1.6-7.1,3.2-14.3,4.8-21.4c0.7-0.3,1.5-0.7,1.9,0.4
		C686.1,917.3,684.5,924.3,682.9,931.3z"/>
	<path fill="#6D8B3B" d="M644.1,859c-0.2-0.3-0.3-0.6-0.5-0.9C643.7,858.4,643.9,858.7,644.1,859z"/>
	<path fill="#1F3C2E" d="M701.4,961.4l0.7-2c4.6-0.4,9.2-0.7,13.8,0.5c2.6,0.6,3.7-0.5,5.2-2.4c3.9-5,1.4-10.9,2.4-16.2
		c1.1,1,1.8,2.4,2,3.9c0.3,1.3-1.3,3.1,1.2,3.6c1.5,0.1,1.4,1,0.9,2l-6,9.9c4.8,1.4,9.4,3.2,13.9,5.4c0.6,1.1,1.2,2.1,1.8,3.2
		C726.1,963.2,714.2,960.1,701.4,961.4z"/>
	<path fill="#65390B" d="M355.4,479.2l0.2,5c-0.5,2.3-0.3,4.7,0.6,6.9c0.4,20,5.6,39.3,8.8,59c0.6,4.1,0.7,8.3,2.4,12.1l0.1,3
		c1.7,12.4,4.2,24.7,7.4,36.9c0.7-9.2,3.3-17.9,4.6-26.9c0.7-0.5,1-1.3,0.9-2.1c6.2-20,14.5-39.2,24.9-57.4c1-1.8,1.2-3.1,0-4.9
		c-2.5-3.6-3.3-8.1-2.5-12.4c1.7-9.3,7.5-13,16.6-10.5c5,1.4,9.9,2.8,15.1,1.1l9.1-1l18.3,2.8c-1.6-3.4-4.4-6.7-3.2-10.2
		c1.8-4.9,2.1-10.3,1-15.4l1.6,1c0.9,2.8,1.4,6.2,5.3,6.3c7.8,0.3,15.5,2.4,23.2,1.3c4.1-0.7,8.2-0.7,12.3-0.1
		c4.5,0.9,9.1-0.4,12.5-3.6h2.2c-0.3,1.1-1.2,2.4-0.9,3.3c3.3,8.9-3.3,14.2-7.3,20.4c-2.2,3.4-6.1,4.3-10.1,4.3c-3.1,0-6.3,0-10.2,0
		c2.4,5.3,1.1,10.2-0.5,15c-0.8,0.3-1.3,1-1.2,1.8c-0.3,0.1-0.6,0.1-0.9,0.2l-1.1-1.2c3.2-5.7,5-11.6,0.1-17.1
		c-4.6-5-10.5-6.2-16.8-3.2c-1.6,0.7-2.8,0.3-4.3-0.1c-8.1-2.2-16.4-3.9-24.6-3c-7.4,0.8-14.3,1.1-21.5-1c-6.4-1.9-10.1,1-12.1,7.8
		c-1.4,4.8-0.8,9.5,2.4,13.2c1.9,2.1,1.1,3.3,0.1,5c-16.7,29.8-29.4,61-31.4,95.7h-1.6c-0.4-1.3-0.8-2.5-1.1-3.8
		c-5.5-23.6-8.5-47.7-13.1-71.4c-3.6-18.8-6.5-37.6-6.8-56.7L355.4,479.2z M492.8,496.2c11.5,0,19.3-6,21.5-16.2
		c0.4-1.9,0.9-5.5-2-4.9c-6.4,1.4-12.7-1.1-18.8,0.2c-8.8,1.9-17.2-1.1-25.8-0.3c-1.9,0.2-4.5-3.5-5.9,1c-0.7,2.4-2.1,4.6-1.4,7.2
		c0.7,2.9,2.2,5.6,4.4,7.7c2.1,2,4-0.5,5.9-0.7c4.3-0.5,8.6-0.1,11.9,2.6S489.4,496.8,492.8,496.2L492.8,496.2z"/>
	<path fill="#BB8A22" d="M444.2,62c-15,10.2-23,24.1-22.8,42.4c0,1.7,0.2,3.3,0.5,4.9c2.2,11.5,6.9,15.6,18.7,15.8
		c14.8,0.2,27.6-4.8,38.5-15c1.1-1.1,2-3.3,3.8-2.6c2,0.9,0.5,3,0.4,4.5c-0.6,11.5,4.2,19.1,14.9,23.3c15.1,6,32.4,2.9,42.1-7.7
		c3.8-4.1,6.8-8.7,7.2-14.4c0.2-3,1.4-1.9,2.8-1.4c5.8,2.1,9.8,6.2,13.2,11c3.9,5.3,8.5,9.2,15.1,10.6c11,2.4,21.1-2,26.5-12
		c7.2-13.6,4.9-27.5-7-41.3c1-1.9,2.1,0,3.1,0c1.6,2.3,3.3,4.6,4.7,7c6.2,10.7,6.9,21.7,2,33c-7.7,18.1-30.4,21.7-43.5,6.9
		c-3.5-4-6.3-8.6-11-11.5c-2.1-1.3-3.2-2-4.6,1.3c-9,22.8-39.1,31-58.9,16.3c-7.1-5.3-8.9-12.9-8.9-21.3c-1.8-0.2-2.5,1.4-3.6,2.2
		c-10,8.5-22.8,13.1-35.9,13c-14.9,0-21.7-6.6-22.4-21.5c-0.7-17.6,6.1-31.7,19.9-42.6C440.9,62.9,442.1,60.4,444.2,62z"/>
	<path fill="#7A4814" d="M616.3,509.1c-0.1,0.3-0.2,0.6-0.3,0.9l-0.5,1c-12.6,35.5-28.8,69.5-42.6,104.4c-1.5,3.8-2.3,9.2-5.2,10.9
		s-7.6-1.7-11.6-2.6c-1.9-0.4-3.8-1.2-5.7-1.8l0.8-1.8l1.5,0.5l0.1,0.2l0.2-0.1l2,0.4c4,0.9,8.6,4.4,11.7,2.5
		c2.9-1.8,3.6-7.1,5.2-10.9c13.4-33.5,28.8-66.3,41.1-100.3c0.3-0.8,0.5-1.6,0.8-2.4C614.4,509.6,614.7,507.6,616.3,509.1z"/>
	<path fill="#C2B0A2" d="M432.2,465.1c-5.1,12.8,1.3,18.7,11.1,22.9l-9.1,1c1.5-1,1.2-1.6-0.2-2.8c-6.8-5.7-8.7-12.7-4.9-21
		C430.1,463.6,431.2,464.7,432.2,465.1z"/>
	<path fill="#E7A927" d="M547.4,628.1c-2.7,4.5-6.4,8.2-10.1,11.8l-1.9,1.3c-5.4,3-11.2,5.3-17.2,6.9l-1.4,0.1
		c-6.1,1-12.2,0.8-18.4,0.9l-2-0.2c-5.7-1.5-11.5-2.8-16.7-5.7l-1.8-1.1c-4.3-3.6-9-6.7-10.7-12.6c-3.6-11.9-4-23.7,0.4-35.5l1.9-4
		c2.4-2.2,3.6-5.6,7-6.8l0.8,0.7c-8.6,8.7-11.6,19.4-10.7,31.3c0.8,10.1,2.5,19.9,12.9,25.1c0.6,1.1,1.8,1.7,3,1.7
		c2.4,1.6,5.1,2.7,7.9,3c0.9,0.7,2,1,3.1,1c4.9,1.1,9.9,1.4,14.9,1c2.1-0.1,4.2,0.6,6.1-0.7c5.2-0.5,10.2-1.9,14.9-4.2l5-2.9
		c2.4-1.7,4.8-3.3,6.1-6l0.9-0.9c0.7-0.6,1.4-1.3,2.1-2.1c12.8-15.6,3-43-12-50.2c0.2-0.9,0.8-1.6,1.6-1.9
		c14.9,10.2,19.3,25,18.2,42.1l-0.8,1.8c-0.7,1.4-1.3,2.8-2,4.2C548.1,626.8,547.7,627.5,547.4,628.1z"/>
	<path fill="#E7AB2A" d="M540.3,648c7.4,1.6,15.1,2.5,21.3,7.7c1.3,1.1,2.4,2.5,4.3,1.4c1.5-0.9,1.6-2.4,1.4-4
		c-0.4-2.2-1.7-2.8-3.9-2.8c-3.1-0.1-5.3-1.5-4-5.2l1.2,1.1c0.7,1.9,2.2,2.1,4,2.1c3.1-0.1,4.4,2,4.7,4.7c0.4,2.8-0.4,6.2-3.3,6.4
		c-4.3,0.3-2.7,2.6-2.5,4.6c0.7,7-1.1,10.4-7,12.5c-4.4,1.6-7.5,0.1-8.9-4.3c-1.4-4.6-1.3-9.6,0.2-14.2c1.7-5.4-0.8-8.1-6.4-7.3
		c0,0.5,0.1,1,0.1,1.6c-0.2,0.7,0,1.7-1.1,1.9C540.3,652.1,540.3,650.1,540.3,648z M561.6,666.7c0-8.1-2.6-12.3-8.2-13.2
		c-1-0.2-2.7-0.9-2.9,0.8c-0.7,5.7-3.5,11.2-1.1,17.1c0.9,2.1,1.8,3.9,4.6,3.7C558.3,674.6,561.6,671,561.6,666.7L561.6,666.7z"/>
	<path fill="#E7A927" d="M549.6,626.8l0.2-0.1c0,0.1,0,0.2,0.1,0.2l-0.2,0.1L549.6,626.8z"/>
	<path fill="#D5BF6E" d="M467.5,594.1c-1.4-15.9-15.7-26.3-32.4-23.6c-1.8,0.2-3.6,0.6-5.4,1.1c-3.9,1.2-6.1,3.3-5.2,8.1
		c1.3,6.5,1.3,13.3-0.1,19.8c-1.4,6.4-5.2,10.7-11.5,12.5c-1.9,0.5-2.8,1.1-2.8,3.2c-0.2,6.3-0.5,12.6-0.8,18.9
		c-0.9,0.1-1.7,0.3-2.1-0.8c0.3-5.8,0.5-11.6,1-17.4c0.2-2.3-0.3-3.9-2.7-4.5c-0.5-0.1-0.9-0.4-1.4-0.6c-7.2-4.3-11.8-23.5-7.5-31
		c0.6,0,1,0.4,1.1,0.9c0,0.2,0,0.3-0.1,0.5c-3.7,9.2,0.9,16.9,4.6,24.6c2.5,5.3,8.7,6,14.2,2.4c4.3-2.8,6.1-7.1,6.6-11.8
		c0.7-5.5,0.5-11-0.3-16.4c-1-5.7,0.2-8.4,5.8-10c16.9-4.9,31.5-1.2,39.1,16.5c0.5,1.2,1.1,2.4,1.7,3.6L467.5,594.1z"/>
	<path fill="#E7AB2B" d="M391.3,635.4l2,0.9l-0.9,1.9c-2.7,4-4.8,8.4-6,13c-1.5,5.1-1.7,10.2,1,15c2.9,5,5.6,5.3,8.8,0.3
		c5.8-9,5.1-18.2,0-27.3l0.3-1.9c0.7-0.2,1.4,0.1,1.8,0.7c-0.1,1,0.4,1.9,1.2,2.5c3.5,8.6,4.1,17.1-0.5,25.5
		c-1.6,2.9-3.4,6.2-7.3,6.1c-4.1-0.1-5.6-3.7-7-6.9c-2.7-6.1-1.3-12.1,0.8-18c1.2-3.4,3.1-6.6,4.7-9.9
		C390.5,636.6,390.9,636,391.3,635.4z"/>
	<path fill="#296FAB" d="M475.2,650.2c0.3-1.4,0.7-2.8,1-4.2c0-0.3,0-0.6,0.2-0.8c0.5-1,0.9-1.9,1.4-2.9l1.8,1.1
		c-0.7,2.7-1.5,5.4-2.1,8.1c-0.4,1.8-0.6,3.9,1.2,5c4.5,2.7,9.8,2.5,14.4,1.2c2.9-0.8,3.3-5.2,3.3-8.6l2,0.2c0.5,4.1-2,7.3-3.1,10.9
		l-1.9,0.2h-13.9l-1.4-1.2c-1.7-2-3.1-4.2-2.9-7C475.2,651.5,475.2,650.8,475.2,650.2z"/>
	<path fill="#E6AA2C" d="M419.5,643.4c0.8-0.2,1.5-0.2,1.9,0.6l1.1,2.3c2.9,8.3,2.1,16.4-1.4,24.2c-1.2,2.6-2.7,5.4-6,5.3
		s-4.8-2.8-6-5.3c-4.5-9.2-3.7-18.3,1-27.2c0.4-0.6,0.9-1.2,1.3-1.8c0.3-0.1,0.6,0,0.7,0.3c0,0,0,0,0,0.1l1,2.1
		c-6.1,7.5-6.5,20-1,27.5c2.1,2.9,4.3,3.3,6,0c4.5-8.5,6.1-17.2,1.2-26.1C419.5,644.8,419.5,644.1,419.5,643.4z"/>
	<path fill="#E7AB2C" d="M439.3,647.2c0.3-0.1,0.6-0.1,0.9,0.1c0.1,0.6,0.1,1.3,0.2,1.9c-5.1,6-8.1,12.9-6.8,21
		c0.5,2.9,0.4,7.1,4.3,7.6c3.5,0.5,6-2.5,8-5.2c0.9-1.4,1.7-2.9,2.2-4.4c2.4-6.5,0.6-12.4-2.7-18.1c1-0.8,1.9-0.4,2.8,0.2
		c2.5,5.9,4.2,11.9,2,18.3c-1.2,3.7-3.4,6.9-6.5,9.2c-5.3,3.8-9.5,2.4-11.4-3.8c-2.1-6.9-1.1-13.5,2.1-19.8c0.9-1.8,2-3.5,2.9-5.2
		L439.3,647.2z"/>
	<path fill="#3675A7" d="M540.3,648c0,2,0,4.1,0,6.1h0.1l-1.9,0.5l-2,0.6c-4.2,1-8.5,1.6-12.4,3.8l-1.7,0.3c-7.2-1-4.5-7-5.6-11
		l1.4-0.1c0.4,1.4,1.2,2.9,1.1,4.3c-0.3,3.8,1.9,4,4.7,3.6c1.1-0.2,2.3-0.4,3.4-0.7c11.6-2.7,11.6-2.7,8-14.1l2-1.4
		C538.2,642.7,538.5,645.6,540.3,648z"/>
	<path fill="#E5CCAD" d="M522.3,659.3l1.7-0.3c0.8,4-0.4,8.2,1.3,12.3c1.9,4.4,3.3,4.9,6.7,1.7c5.3-5,6.2-11,4.4-17.8l2-0.6
		c-0.1,0.7,0.3,1.4,0.9,1.7c0.3,7-0.7,13.6-6.3,18.6c-4,3.6-7,3-9.3-1.9C521.7,668.6,522.4,663.9,522.3,659.3z"/>
	<path fill="#E5CBAD" d="M478.1,659.2l1.4,1.2c-0.2,4.3-0.5,8.6,1.3,12.7c1,2.2,2.2,4.1,5,4.1s4.3-1.7,5.3-3.8c1.9-4,2.7-8.5,2.3-13
		l1.9-0.2c0.5,5,0,9.9-2.5,14.4c-1.6,2.8-3.7,4.7-7,4.6c-3.5-0.1-5.8-2.1-7-5.4C476.9,669.1,476.7,664,478.1,659.2z"/>
	<path fill="#80501D" d="M448.3,650.3c-0.9-0.6-1.8-1-2.8-0.2l-1.6-0.4l-1.2-0.2l-2.2-0.3c-0.1-0.6-0.1-1.3-0.2-1.9
		c11.6,1.3,23.3,2.7,35,2.9c0,0.7-0.1,1.3-0.1,2C466.2,652.2,457.2,651.2,448.3,650.3z"/>
	<path fill="#855624" d="M439.3,647.2l-2,1.9l-0.2-0.1c-0.3-0.5-1-0.8-1.5-0.5l-10.8-1.8l-0.1-0.2l-0.2,0.1l-2-0.2l-1.1-2.3
		L439.3,647.2z"/>
	<path fill="#885B29" d="M411.5,641.6c-0.4,0.6-0.9,1.2-1.3,1.8l-10.7-2.9c-0.8-0.6-1.3-1.5-1.2-2.5L411.5,641.6z"/>
	<path fill="#E7AB2A" d="M539.4,656.3c-0.7-0.3-1-1-0.9-1.7l1.9-0.5C540.6,655,540.2,655.9,539.4,656.3z"/>
	<path fill="#E7AB2C" d="M435.7,648.5c0.6-0.3,1.2,0,1.5,0.5L435.7,648.5z"/>
	<path fill="#E6AA2C" d="M424.5,646.6l0.2-0.1l0.1,0.2l-0.3,0.1L424.5,646.6z"/>
	<path fill="#3675A7" d="M541.4,652.2c0-0.5-0.1-1-0.1-1.6C541.8,651.2,542.4,651.7,541.4,652.2z"/>
	<path fill="#92500A" d="M587.5,322.2c-9,13.1-19.3,25.1-30.9,35.9c-14.4,13.3-31.1,22.5-50.1,26.6c-20.1,4.3-38.8-0.8-55.4-12.5
		c-25.1-17.7-40.9-42.4-51.7-70.7c-0.6-1.5-1.3-3-1.9-4.6c0.1-1.1-0.2-2.2-0.9-3c-3.4-11.8-6-23.7-6.3-36.1
		c-0.2-10.8,3.6-19.3,12.1-25.9l4-2.9l0.8-1l1.2-1.1l20-8c0.8,0.1,1.6-0.3,2-1c14.7-1.6,29.5-1.4,44.2-1.9
		c35.2-1.1,69.6,3.2,102.8,15c1.6,0.6,3.1,1.3,4.8,0.9c0.4,0.7,1.1,1.1,1.9,1c7.1,2.5,13.5,6.3,20,9.9l1.1,1.2
		c0.1,0.8,0.4,1.5,0.8,2.2c5.9,7.7,6.4,16.2,3.5,25.1c-5.5,16.8-11.9,33.1-20.4,48.6L587.5,322.2z M472,219.5c-6.3,0-12.6,0-19,0
		c-16.4-0.1-31.6,3.8-45.5,12.7c-5.4,3.5-10.1,7.7-12.5,13.8c-2.6,6.7-2,13.8-1.2,20.7c2.9,25.3,12.7,48.1,26.5,69.2
		c10.7,16.3,24.1,30.3,41.7,39.3c24,12.3,47.7,9.5,70.4-3.8c40.9-24,63.6-61.3,75.5-106c2.2-8.1-1.2-15.4-7.8-20.9
		c-3.9-3.1-8.3-5.5-13.1-7.1c-15.1-5.2-30.3-10.2-45.9-13.5C518.3,219.4,495.2,218.6,472,219.5z"/>
	<path fill="#6A3F12" d="M408.4,227.1l-1.2,1.1c-1.9-2.1-3.8-4.1-5.6-6.2c-7.4-8.5-7.4-8.5-16.2-1.7c-0.9,0.2-1.7,0.9-2.1,1.8
		c-0.7,0.4-1.4,0.8-2.1,1.2c-8.4,6.1-8.4,6.1-15-2.2c0-1.1-0.8-1.9-1.9-2.1c-5-7.5-5-7.4,2.1-13.9c4.2-3.9,11.7-7.1,11.9-11.8
		c0.2-4.2-6.4-8.7-10-13.1c-5.5-6.7-5.6-6.6,1.1-11.9c2.8-2.2,5.6-4.2,8.2-6.5c2.5-2.1,4.4-2,6.5,0.6c4,4.9,8.5,9.4,12.5,14.2
		c2,2.4,3.4,2.8,6,0.7c4.5-3.7,9.3-7,13.9-10.5c2.5-2,4.4-2.2,6.5,0.7c3.2,4.4,9.5,8.9,9.1,13s-7,7.7-11,11.4c-7.5,7-7.5,7-0.6,14.8
		c3.3,3.7,6.5,7.5,9.8,11.2c-0.4,0.7-1.2,1.1-2,1c-2.9-3.4-5.8-6.8-8.7-10.2s-7.9-6.2-7.7-9.9s5.6-6.1,8.6-9.1s8.9-5.8,8.8-9.4
		c-0.1-3.7-4.9-7.1-7.5-10.8c-1.4-2.1-2.5-2.3-4.6-0.7c-5.5,4.3-11.1,8.4-16.8,12.6c-1,0.7-1.9,2-3.1,0.1c-4-6.4-9.8-11.2-14.4-17.1
		c-1.5-1.8-2.6-2.4-4.6-0.6c-3.2,2.9-6.7,5.5-10.2,8c-2.3,1.6-2.2,2.7-0.5,4.7c4.1,4.6,7.7,9.6,12,14c2.5,2.7,1.9,4-0.6,6.1
		c-5.1,4.2-10,8.8-15,13.2c-1,0.9-2.9,1.7-1.3,3.6c3,3.6,5.4,7.5,8.8,10.8c1.9,1.9,3.1,1.4,4.9,0c5.1-4,10.4-7.7,15.5-11.7
		c1.9-1.5,3-1.4,4.5,0.4C400.4,217.8,404.4,222.4,408.4,227.1z"/>
	<path fill="#6A3F12" d="M605.3,244.2l-1.1-1.2c2.6-2.4,5.2-4.6,7.6-7.1c2.1-2.2,3.4-1.7,5.1,0.5c3.8,4.8,8.1,9.3,11.8,14.2
		c2.5,3.3,4.4,4.2,7.6,0.8c2.7-2.9,7.8-4.9,8.5-8c0.8-3.6-4.1-6.7-6.4-10c-2.9-4-8.5-8.2-8.2-11.8s6.5-6.9,10.1-10.3
		c9.7-9.1,9.6-9,0.1-18.5c-1.6-1.6-2.7-1.9-4.5-0.4c-4.5,3.5-9.2,6.5-13.6,10.1c-3.5,2.9-6.2,3.1-8.8-0.9c-0.6-0.8-1.2-1.6-2-2.3
		c-4.2-3.8-6.8-11.7-12-11.3c-4.9,0.4-9.4,6.3-14.2,9.9l16,20c-3.7,1.7-6.2,4.7-9,7.2s-5.4,5.3-8.2,8c-0.8,0.1-1.5-0.3-1.9-1
		c4-3.9,8-8,12.2-11.7c2.7-2.4,3.5-4.1,0.7-7.1c-3.8-4.1-7-8.8-10.7-13.1c-1.8-2-2.1-3.3,0.4-5c4.5-3.1,9-6.3,13.3-9.7
		c1.9-1.5,3-1.2,4.5,0.5c4.3,5.1,8.9,9.9,13.2,15c1.5,1.8,2.5,1.9,4.3,0.4c5.2-4.1,10.7-7.8,16-11.9c1.9-1.4,3.2-1.5,4.5,0.4
		c0.1,0.1,0.2,0.3,0.3,0.4c3.7,4.1,10.1,8,10.3,12.2s-7,7.6-10.8,11.4c-2.6,2.6-7,5-7.3,7.7s3.7,5.9,5.9,8.8c2,3,4.3,5.9,6.7,8.7
		c2.9,3,2.3,5.3-0.5,7.7c-1.3-0.1-2.5,0.9-2.8,2.2c-2.5,1.9-4.9,3.9-7.2,6c-2.5,2.6-3.9,1.7-5.8-0.6c-2.9-3.6-6-6.9-9.1-10.3
		c-5.2-8.3-5.2-8.3-12.1-2.1c-0.3,0.3-0.7,0.7-1,1.1L605.3,244.2z"/>
	<path fill="#E4A8A5" d="M364.3,219.1c1,0.1,1.8,1,1.9,2.1c-4.5-0.3-8.9,0.5-13.4,0.9c-16.6,1.5-32.3,5.9-46.7,14.4
		c-6.2,3.7-11.5,8.5-13.7,15.8C288.8,264,295,280.5,306,289c15.3,11.7,32.8,18.1,51.8,20c15.2,1.5,28.6-2.8,38.8-14.9
		c0.7,0.8,1,1.9,0.9,3c-7,5.9-14.4,11.4-23.7,13.1c-15.2,2.9-29.7-0.5-43.9-5.8C318.8,300.3,308,295,300,286
		c-8.5-9.4-12.6-20.7-9.7-33.6c2.1-9.5,9.2-14.8,17-19.1c13.8-7.5,28.9-12,44.6-13.3C356,219.7,360.1,218.9,364.3,219.1z"/>
	<path fill="#E4A7A4" d="M642.3,249.1c0.3-1.3,1.5-2.2,2.8-2.2c5.2,2.5,11,3.2,16.2,6c14.7,7.8,26.8,17.8,31.4,34.7
		c4.6,17.4-0.8,31.3-16.2,40.4c-13.3,7.9-27.6,10.5-43.1,8.6c-12.9-1.6-25.7-3.1-37.3-9.4c-2.9-1.6-5.2-4.1-8.6-4.9l1.7-2.1
		c3.1,2,6,4.2,9.2,5.9c9.5,5.2,20,7,30.6,8c8.9,0.8,17.8,2.2,26.8,0c10.8-2.7,21-6.6,28.8-15c13.3-14.4,7.7-35.7-2.3-47.5
		C672.1,259.5,657.9,251.5,642.3,249.1z"/>
	<path fill="#7C130F" d="M533,578.2c-0.8,0.3-1.5,1-1.6,1.9c-1.5,1.4-2.9,2.7-4.4,4.1c-5.5,5-12.5,3.7-15.4-3.2
		c-0.9-2.1-1-4.5-1.5-6.8c-1.2-4.5-1.1-8.8,1.4-12.8l3.9-2.1c4-0.7,5.7,1.8,6.9,4.9c0.6,1.6,1.3,2.8,3.1,1.1
		c3.2-3.1,6.9-4.5,10.4-0.8s1.4,7.4-0.9,10.8C534.2,576.2,533.6,577.2,533,578.2z M520.6,585.2c0.8-0.1,1.6-0.3,2.3-0.6
		c5.2-3.5,9.4-8.4,12.1-14.1c1-1.9,0.3-4.2-1.5-5.2c-2.2-1.4-4-0.6-5.9,0.8c-4.5,3.4-5.1,3.3-7.5-1.8c-1.7-3.5-3.7-4-6.4-1.3
		c-4.7,4.5-1.3,9.7-1,14.6c0.2,3.4,2.5,6.4,5.8,7.4C519.2,585.1,519.9,585.2,520.6,585.2z"/>
	<path fill="#C1AFA2" d="M515.4,559.2l-3.9,2.1c-0.2-2-0.4-4-0.6-5.9c-2.4-17-11-30.2-24.6-40.5c-0.1-0.8,0.4-1.5,1.2-1.8
		c12.4,7,19.1,18.2,23.9,31C513.2,549.1,512.7,554.6,515.4,559.2z"/>
	<polygon fill="#E7A927" points="552.9,620.8 552.7,621 552.6,620.7 552.8,620.6 	"/>
	<path fill="#C5B5A8" d="M367.4,565.2l-0.1-3l12.9,10.9c0.1,0.8-0.2,1.6-0.9,2.1C375,572.2,371.9,567.8,367.4,565.2z"/>
	<path fill="#D9BF6F" d="M356.1,491.1c-0.9-2.2-1.1-4.6-0.6-6.9C356.6,486.4,356.4,488.8,356.1,491.1z"/>
	<path fill="#754615" d="M485.4,515.2c-1,1.3-1.6,2.6-1,4.5c5.8,17.5,11.4,35,17.1,52.5c0,0.7,0,1.4,0,2.1
		c-0.3,6.7-3.2,11.6-9.8,13.9c-5.3,1.9-10,1.3-13.7-3.5v-0.3l-0.3-0.1c-0.2-0.1-0.5-0.2-0.6-0.4l-0.8-0.7c-1.7-5.1-1.6-9.8,2.6-13.7
		c5.3-4.9,11.3-5.7,18.7-2c-3.4-10.8-6.5-20.8-9.7-30.8c-1.7-5.4-3.5-10.7-5.4-16c-1-2.8-1-5.1,1.8-6.8L485.4,515.2z M489.5,567.2
		c-6-0.2-11.9,4.7-12.1,10.1c-0.1,5.2,4,9.6,9.2,9.8c6.6,0.2,12.6-5.2,12.8-11.5C499.4,570.9,495.3,567.4,489.5,567.2L489.5,567.2z"
		/>
	<path fill="#D9BF6F" d="M615.4,511.1l0.5-1L615.4,511.1z"/>
	<path fill="#E4CAAB" d="M529.3,642.1c-2.4-2.6-6-4.5-5.3-9c0.1-0.9-1.6-0.8-2.6-0.9c-4.5-0.6-6.1-3.5-6.1-7.7
		c0-2.8-4.9-6.5-7.5-5.8c-8.3,2.2-15.2-0.5-21.4-6c-1-0.9-1.1-2.5-3.1-3c0.3,8.1-8.6,14.7-2.9,23.8l5.5-3.8
		c-0.7-0.8-1.3-1.5-1.9-2.3s-1.9-1.6-1.1-3c0.6-0.9,1.7-1.1,2.6-0.6c1.9,0.8,2.7-0.5,3.6-1.8c2.2-3.1,5.2-3.9,8.2-1.8
		s6.8,5.6,4.4,9.4c-3.4,5.3-3.6,12.1-8.4,16.5c-1.1,0.1-2.2-0.2-3.1-1c0.4-0.5,0.8-1.2,1.3-1.5c2.3-1.3,4.1-3.3,4.3-5.8
		c0.2-2.9-3.3-1.2-4.6-2.7c-0.6-0.7-1.6-1.1-2.3-1.8c-1.4-1.6-2.9-1.2-4.5-0.3c-1.8,1.1-3.1,2.6-2.7,4.8c0.3,1.4,1.6,2.6,0.5,4.2
		c-1.3,0.1-2.4-0.5-3-1.7c-0.1-1.3,0.1-2.8-0.5-3.9c-3.1-7-3.6-13.6,0.8-20.4c1.3-2,1-5.1,1.5-7.7c0.2-1,0.1-2.2,1.2-2.6
		c1.4-0.5,2.2,0.8,2.7,1.7c4,8,12,8.6,19.8,10.8c-1.8-4-5.9-5.7-7.6-10.1c2.5,0.9,4.9,2.3,6.8,4.2c3.1,2.8,6.7,5,10.6,6.3
		c2.1,0.7,4.7,1.3,4.1-2.6c-0.3-1.9,0.9-2.2,2-1.6c4.7,2.6,9.8,1.6,14.7,1.5c4.2-0.1,5.6,2.2,5.8,5.8s0,7,0.1,10.5l-0.9,0.9
		c-1.8-0.6-2.7-2.4-4-3.5c-2.4-2.3-6.2-2.2-8.5,0.2c-0.3,0.3-0.6,0.7-0.8,1.1c-2.9,4.7-0.1,7.9,7.2,8.2L529.3,642.1z M494.3,621.2
		c-1.7,0.1-7.5,5.1-7.4,6.2c0.1,1.8,5.5,6.8,7.4,6.8c2.5,0,6.2-4.1,5.6-6.5C499.2,624.4,497.8,621.5,494.3,621.2L494.3,621.2z
		 M528.3,624.5c0.3-3.9-2.3-5.2-5.2-5.2c-3,0-5.6,1.7-5.7,5.1c-0.1,3,0.9,5.7,4.7,5.7S527.9,628.1,528.3,624.5z M527.8,618.8
		c3.4,1.5,1.3,5.8,3.5,6.8c2.4,1.1,5.2,1.5,7.7,2.9C539.8,617.9,539.5,617.6,527.8,618.8L527.8,618.8z"/>
	<path fill="#E5CCAC" d="M508.2,647c-1.4-2.5-2.9-4.8-4.1-7.4s-1.6-5.2,0.7-7.4c2.3-2.3,5.8-2.9,8.8-1.4c3,1.4,3.7,4,3.7,7
		c0,3.2-2.8,5.3-3,8.4C512.4,647.6,510.3,646.9,508.2,647z M515.3,637.9c-0.2-3.4-1.6-5.7-5.1-5.7c-2.4,0-5,1-4.8,3.9
		c0.3,3.4,1.1,7.9,4.7,8.4C513.5,645,514.5,640.8,515.3,637.9L515.3,637.9z"/>
	<path fill="#D5BF6E" d="M442.6,520.1c5.6,0.1,10.8,1.2,15.4,4.1c5.7,3.6,7.8,8.9,5.6,15.4c-2.7,8.3-8.3,15.3-15.8,19.8
		c-5.6,3.5-11.1,1.9-15.8-1.5c-7.7-5.5-12.4-14.3-12.7-23.7c-0.2-4.3,1.7-7.3,5.4-9.3C430.2,521.9,436.4,520.2,442.6,520.1z
		 M434.4,523.5c-2.8,0.5-5.4,1.4-7.9,2.6c-3.9,1.8-5.7,4.9-5.2,9.2c1.1,8.7,5,15.9,12,21c5.3,3.8,9.8,3.7,15.2,0
		c5.5-3.8,9.8-9.1,12.4-15.3c3.5-8.1,0.4-14.5-8-17.2c-1.8-0.6-2.5-0.7-2.8,1.6c-0.6,4.7-4.9,7.3-9.9,6.5
		C435.7,531.4,434.1,529,434.4,523.5L434.4,523.5z M441.7,530.2c2.7-0.5,5.9-0.8,6.4-4.3c0.4-2.9-1.7-3.8-4.5-3.8
		c-3.5,0-6.7,0.6-7,4.5C436.3,529.4,439.3,529.8,441.7,530.2L441.7,530.2z"/>
	<path fill="#71481E" d="M411,507.2c-3.2-3.9-3.6-7.5-1.2-11c2.1-3.1,5.8-4.7,9.5-4c1.1,0.2,2.4,0.4,2.8,1.7s-0.8,1.7-1.5,2.4
		C417.5,499.8,413.5,502.5,411,507.2z M418.4,494.4c-6.1,0.5-7.9,2.4-7.7,8.7L418.4,494.4z"/>
	<path fill="#6B4115" d="M478.1,511.2c-1.1-5.9-5.7-8.4-8.5-12.3c-0.6-0.9-2.1-1.4-1.7-2.7c0.5-1.6,2-0.5,3-0.8
		c3.9-1,7.4-0.2,9.3,3.6C482.3,503.2,481.7,507.2,478.1,511.2z M479.1,506.4c0.2-7.5-1.5-9.4-7.9-8.9L479.1,506.4z"/>
	<path fill="#865827" d="M419.5,643.4c0,0.7-0.1,1.3-0.1,2l-6.2-1.4l-1-2.1L419.5,643.4z"/>
	<path fill="#90622C" d="M392.4,638.1l0.9-1.9l3.2,1l-0.3,1.9L392.4,638.1z"/>
	<path fill="#E7AB2C" d="M443.9,649.8l-1.2-0.2L443.9,649.8z"/>
	<path fill="#E4ACA8" d="M385.4,220.3c6.7,3.5,13.7,6.5,20.9,8.9l-4,2.9c-0.7-3.8-4.3-3.7-6.8-4.9c-3.9-2-8.7-2.1-12.3-5
		C383.6,221.2,384.4,220.5,385.4,220.3z"/>
	<path fill="#EAB544" d="M509.6,574.1c-2.7,2.3-5.4-0.2-8.2,0.1c0-0.7,0-1.4,0-2.1C504.3,572.4,507.2,572,509.6,574.1z"/>
	<path fill="#E7A927" d="M478,584.7l-0.4-0.1v-0.3l0.3,0.1L478,584.7z"/>
	<path fill="#673C0F" d="M499.8,223.2c7.2-0.3,14.3,0.1,21.1,2.8c4.4,1.6,8.4,4.2,11.6,7.6c8.2,9,5.7,22.2-5.8,26
		c-18,6.1-36.1,5.2-53.2-3.8c-9.7-5.1-11-15.1-3.6-23.4c5.7-6.4,13.2-8.7,21.4-9.2C494.1,223.1,496.9,223.2,499.8,223.2z
		 M499.6,225.2c-2.8,0-5.7-0.2-8.5,0c-7.1,0.5-13.7,2.4-18.9,7.7c-7.4,7.5-6.6,16.4,2.7,21.3c16.3,8.5,33.5,9.1,50.7,3.6
		c10.4-3.4,12.7-14.8,5.3-22.9c-2.9-3-6.4-5.4-10.3-6.8C513.9,225.4,506.8,225,499.6,225.2L499.6,225.2z"/>
</g>
<g>
	<path d="M768.2,561.1v-2c-0.1,0-0.2,0-0.2,0v2.1C768.1,561.1,768.2,561.1,768.2,561.1z"/>
	<path d="M768.2,714.1v-2c-0.1,0-0.1,0-0.2,0v2C768.1,714.1,768.1,714.1,768.2,714.1z"/>
	<path d="M723.2,1024.1h3l-0.1-0.1L723.2,1024.1C723.2,1024,723.2,1024.1,723.2,1024.1z"/>
	<path d="M483.2,1024.1h6c0.1,0,0.2-0.1,0.4-0.1h-6C483.4,1024,483.3,1024.1,483.2,1024.1z"/>
	<path d="M616.2,1024.1h2v-0.1L616.2,1024.1C616.3,1024,616.3,1024.1,616.2,1024.1z"/>
	<path d="M328.2,1024.1h3v-0.1L328.2,1024.1C328.2,1024,328.2,1024.1,328.2,1024.1z"/>
	<path d="M148.2,1024.1h3v-0.1L148.2,1024.1C148.2,1024,148.2,1024.1,148.2,1024.1z"/>
	<path d="M768.2,835.2v-3c-0.1,0-0.1,0.1-0.2,0.1v2.9C768.1,835.2,768.1,835.2,768.2,835.2z"/>
	<path d="M768.2,895.3v-3c-0.1,0.1-0.1,0.1-0.2,0.2v3C768.1,895.4,768.1,895.3,768.2,895.3z"/>
	<path d="M768.1,981.3v-2H768L768.1,981.3C768,981.2,768.1,981.3,768.1,981.3z"/>
	<path d="M768.1,946.3v-5c0,0.1-0.1,0.1-0.1,0.2v5C768,946.4,768.1,946.3,768.1,946.3z"/>
	<path d="M753.2,1024.1h2v-0.1L753.2,1024.1C753.2,1024,753.2,1024.1,753.2,1024.1z"/>
	<path d="M757.1,1024.3h2c0-0.1,0-0.2,0-0.3h-2C757.1,1024.1,757.1,1024.2,757.1,1024.3z"/>
	<path d="M53.2,1024.1h2v-0.1L53.2,1024.1C53.2,1024,53.2,1024.1,53.2,1024.1z"/>
	<path d="M59.2,1024.1h2v-0.1L59.2,1024.1C59.2,1024,59.2,1024.1,59.2,1024.1z"/>
	<path d="M717.2,1024.1h3c0,0,0-0.1-0.1-0.1L717.2,1024.1C717.2,1024,717.2,1024.1,717.2,1024.1z"/>
	<path fill="#C7BC24" d="M327.4,836.2c1.6,0.8,2.1,1,2.5,1.2c51.2,18.1,100.6,40.4,148.6,65.7c2.7,1.4,5,1,7.5-0.1
		c43.7-18.1,88.7-32.2,134.5-43.9c4.7-1.2,8.4-2.5,9.1-8.1c0.2-2.4,2-4.4,4.5-4.8c2.4-0.3,4.8,1.1,5.6,3.3c1.7,3.7,4.8,4.3,8.2,4.5
		c4.3,0.3,8.7,0.1,12.9-0.6c14.5-2.6,27.3-10,41.4-14.1C578.1,788.1,453.5,787.1,327.4,836.2z"/>
	<path fill="#D3C2BC" d="M353.5,529.4c-3-15.9-4.9-31.9-5.6-48.1c-0.1-1.9,0.3-3.7-2.3-4.7c-14.4-5.6-25.4-15.8-35.3-27.2
		c-24.1-27.7-38.5-60.5-48.3-95.4c-8.5-30.4-12.1-61.4-9-93c0.3-3.5,0.4-7.1,1.4-10.4c1.4-4.5-0.5-6.6-4.2-8.5
		c-13.4-7.2-27.4-7.4-41.7-3.6c-30.8,8.1-51.1,31.9-55.6,64.2c-1.5,11.9-1.7,24-0.7,35.9c1,14.1-2.8,26.2-12.4,36.7
		c-7.3,7.9-10.6,17.7-10.9,28.3c-0.5,16.5-0.4,33-4.9,49.1c-1.6,6.1-3.9,12.1-6.7,17.7c-3.4,6.4-7.8,12-14.5,14.8
		c-16.8,7.1-23.9,20.5-25.4,37.6c-1.6,18,0.2,35.6,7.2,52.4c3.1,7.6,8.2,12.9,16.1,15.9c12.5,4.8,12.9,8.9,2.4,17.2
		c-2.9,2.3-5.8,4.5-8.6,6.8c-6.1,5.2-9.6,11.8-9.8,20c-0.1,2.3-0.4,4.7-0.5,7c-1.1,13.2-7.7,19.8-20.9,21
		c-5.8,0.5-11.7,0.7-17.4,1.5c-14.8,2-27.4,8.8-38.9,18c-2.3,1.9-4.7,3.7-7,5.5v-0.4l0,0v8.1c0.2,0.1,0.4,0.2,0.6,0.3
		c6.2-2.1,12.7-1.9,19-2.6c6.3-0.5,12.5-2.3,18.1-5.3c12.7-7,26.1-12.7,39.9-16.9c13.9-4.4,25.6-12.6,37.2-21c7-5,10.1-12.6,9.6-21
		c-0.6-11.6,4-20.5,11.6-28.7c8.4-9,8.3-16.1,0.5-25.7c-3.5-4.2-7.4-8.2-10.9-12.4c-10.1-12-12.6-25.8-9.3-40.8
		c1.5-7.5,6.1-13.9,12.7-17.7c7.1-4.3,14.6-8,22.4-11c14.5-5.6,21.8-16.1,22.6-31.6c0.5-9.5,3.1-18.6,6.9-27.5
		c4.8-11.3,13.3-16.3,25.3-16.8c29.7-1.2,51.2,15,58.6,44.4c1.3,5.3,2.6,10.7,4.2,15.9c1.9,6.6,5.6,12.6,10.6,17.2
		c10.7,9.8,17.7,21.9,23.2,35.1c6.1,14.8,11.2,18.2,26.9,17.9c9.8-0.3,19.5,1.8,28.3,6.3C356.4,545.2,355.1,537.3,353.5,529.4z"/>
	<path fill="#A9D6D1" d="M0,0v685.1l0,0l0,0c0.8-0.2,1.5-0.6,2.2-1C19,668.9,38.5,661.4,61,661.2c2.8-0.1,5.6-0.5,8.4-1.3
		c7.6-2,12.1-7.5,12.9-15.4V644c-1-17.1,6.8-29.4,20.9-38.2c1.3-0.8,2.4-1.8,3.5-2.9c3.2-3.2,3.2-6.1-0.8-7.3
		c-21.4-6.6-26.2-24.2-29-43c-2.2-14.1-2.6-28.2,1.4-42.1c3.2-11.4,9.6-20.1,20.5-25c10.4-4.7,16.6-12.9,20.5-23.3
		c6-16,8-32.7,7.6-49.6c-0.3-16,3.5-30.2,14.6-42.2c7.5-8.1,9.7-18.4,9.1-29.3c-0.7-14.8-1.2-29.6,1.8-44.3
		c7.5-37.3,38.3-63,75.2-62.8c5,0.1,10,0.9,14.7,2.4c4.8,1.4,9.1,4,13.8,6.5c4.7-21.2,12.5-41.6,23.1-60.5
		c5.9-10.7,12.5-20.8,20-30.4c2.7-3.4,2.4-5.4-0.6-8.3c-5.3-5.3-9.8-11.3-13.3-18c-6.8-12.8-7.5-26.1-3.6-39.8
		c10.7-37.5,53-62.1,90.8-52.8c17.1,4.2,30,14,38.6,29.3c1.6,2.8,3,3.2,5.8,2.3C453.1,53,490,53.1,527.1,58.5
		c27.3,3.9,54,9.8,79.6,20.3c2,0.8,3.4,0.4,5-0.9c21.1-17.2,45.3-23.1,72-20c18.1,2.1,31.5,12.2,41.4,26.9
		c18.9,27.8,19,66.4,0.3,94.4c-2.3,3.5-2.6,6.2-0.9,9.9c13.7,30,19.6,61.8,21.4,94.4c1.9,34.5-5.4,67.3-18.5,99.3
		c-15.8,38.3-35.7,73.7-66,102.5c-5.1,4.8-10.3,9.4-15.7,13.9c-4.7,3.8-9.9,7.3-15.9,8c-6.8,0.9-9,4.9-11.1,10.6
		c-8.7,22.5-17.8,44.8-26.8,67.2c-0.6,1.5-1.2,3-2.2,5.7c3-1.4,5-2.4,7-3.3c27.6-12.8,56-13.5,84.7-4.5
		c14.8,4.6,26.2,13.5,31.3,29.3c5.3-5,8.7-10.8,12.2-16.4c9.6-15.5,22.8-26.8,38.8-35c1.4-0.7,2.7-1.7,4.4-1.8V0H0z"/>
	<path fill="#C7B5AE" d="M0.5,733.1c23.4-3.1,46.8-5.2,70.3-6.8c3.6-0.2,5.4-1.4,6.5-4.7c5.3-15.5,17-23.7,32.3-27.5
		c5.5-1.4,11-2.6,16.4-4.2c5.4-1.6,8.4-5.2,9.7-10.9c3.5-14.4,12.3-23.6,27.4-26.1c1.3-0.2,2.6-0.5,3.9-0.8c6.1-1.4,7.4-3,5.7-9.1
		c-1.3-4.4-0.7-9,1.5-13c10.2-18.4,21.3-22.9,38.9-18.2c12.3,3.3,22.9,8.8,30.2,19.7c4.8,7.1,10.6,12.8,19.4,14.6
		c3.6,0.8,5.9,3.5,7.5,6.9c2,4.6,3.7,9.3,5,14.1c1.7,5.4,5.4,8.3,11,9.6c15.1,3.5,30.6,4.2,45.9,6.6c3.5,0.6,7.3-0.2,10.9-0.5
		c11.1-0.9,16.2,1.9,21.1,11.8c3.2,6.4,9.9,10.6,20.5,12.6c-3-10.8-5.9-21.3-8.9-31.8c-3.6-12.8-7.2-25.6-10.9-38.4
		c-0.4-1.5-0.8-2.9-1.3-4.3c-4-9.5-3.6-11.7,4.1-18.4c1.3-1.2,1.1-2.2,0.9-3.5c-2.5-17-5.7-33.8-9-50.6c-0.3-2.3-1.8-4.3-4-5.1
		c-7.9-3.7-16.5-5.5-25.2-5.2c-17,0.3-22.8-3.5-29.3-19.2c-5.3-12.9-12.2-24.7-22.7-34.3c-7.4-6.8-11-15.7-13.3-25.2
		c-2-8.6-4-17.2-8.3-25c-11.1-20.5-37.4-31.5-59.9-25.2c-5.4,1.5-8.9,5.1-11.6,9.6c-5.5,9.4-8.7,20-9.1,30.8
		c-0.9,16.9-8.9,28-24.6,34.1c-6,2.3-11.7,5.5-17.6,8.3c-15.6,7.5-17.6,20.8-16.6,33.8c0.8,10.2,5.2,19.9,12.5,27.1
		c3.4,3.4,6.6,7,9.6,10.8c6.8,8.9,6.4,17.3-0.9,25.8c-1.8,2.2-3.8,4.2-5.6,6.4c-4.1,4.9-6.6,10.5-6.2,16.9
		c1,14.9-5.5,25.2-18.2,32.9c-12,7.3-24,14.2-37.5,18.3c-9.5,2.7-18.5,6.6-27,11.5c-9.8,5.9-20.5,8.6-31.8,9
		c-4,0.1-7.9,0.7-11.7,1.8c-0.1,0.1-0.3,0.2-0.5,0.3v34.3C0.2,732.8,0.3,732.9,0.5,733.1z"/>
	<path fill="#82AED5" d="M704.7,714.2c-39.2-0.8-78.3,2.1-117.4,1.9c-10.7-0.1-21.3-0.6-32-1.2c-3.3-0.2-5,0.7-5.8,3.8
		c-0.4,1.6-1.5,3-1.8,4.6c-1.8,9.1-8.6,12.6-16.4,14.7c-9.8,2.7-19.9,4.7-30.1,4c-19.9-1.2-40-0.8-59.8-3.9
		c-17.8-2.8-35.6-6-50.3-17.5c-1.3-1-3-1.4-4.7-1.1c-13.2,1.7-26.6,2.2-39.9,1.5c-18.5-0.9-37-0.9-55.5,0.1
		c-39.1,2-78.3,0.4-117.4,2c-57.9,2.3-115.7,4.8-173.3,12c-0.1,0.1-0.2,0.1-0.3,0.2v61.9c0.1,0,0.2,0,0.3,0v-0.1
		c29.9-2.1,59.9-2.7,89.9-1.6c39.1,1,78.2,4.5,116.9,10.3c37.9,5.8,74.9,15.5,111.3,27.7c2.9,1.1,6.1,1.1,9-0.2
		c121.8-49.8,258.6-48.3,379.2,4.3c1.2,0.5,2.2,1.3,3.7,1.1c18.9-2.8,38-4.6,57.1-6.2c0.3-0.1,0.5-0.2,0.7-0.3V714.1
		C746.9,714.2,725.8,714.6,704.7,714.2z"/>
	<path fill="#3A6551" d="M211,942.4c-0.6-0.7-0.5-2.2-0.8-3c-6.2-17.9-15.9-33.6-29.9-46.6C173,886,165.9,879,159,871.7
		c-11.9-12.7-26.5-19.7-43.7-22c-16.3-2.1-32.2-7.2-48.6-8.8c-13.5-1.3-26.6-1.4-38.5,6.9c-3.6,2.5-7.7,3.6-11.6-1.2
		c-1.4,9.6-9.7,11.6-15.6,16c-0.2,0.4-0.6,0.7-1,0.8V1024h52.9c0.1-0.3,0.2-0.7,0.4-0.9c3.4-32.8,11.9-64.9,25.5-94.9
		c1.8-3.9,2.2-6-1.8-9.3c-7.5-6-10.2-14.5-7.9-24.2c0.8-3.2,1.4-6.5,2.1-9.8s1.7-6.4,5.5-6.7c4.1-0.3,6.4,2.2,7.7,5.8
		c0.3,0.9,0.7,1.9,1.1,2.9c2.7-0.7,4-3,5.9-4.5s3.5-4,6.4-2.9s3.7,3.7,4.4,6.3c0.2,1.2,0.4,2.4,0.4,3.7c0.5-0.1,1,0,1.3-0.2
		c2.1-1.5,4.1-3,6.8-1.3s3.7,4.1,3.7,7.1c0.3,14.3-9.9,26.6-24,29c-1.3,0.2-2.4,1-3,2.2c-2,3.4-4.4,6.7-5.9,10.4
		c-11.5,27.9-20.4,56.4-20.3,87c0,0.1,0,0.2,0,0.3h86.7c0-0.5,0.2-0.9,0.5-1.2c2.8-18,8.1-35,19.4-49.9c0.8-1.1,1.6-2.1,2.6-3.1
		c12.8-11.3,26.3-20.1,41.2-24.7C211.4,944.2,211.1,943.3,211,942.4z"/>
	<path fill="#3A6551" d="M474.8,904.3c-70.9-36.8-144.1-68-222.1-86.7c-33.1-7.9-66.8-12.5-100.6-15.5c-45.5-4.1-91.2-5.1-136.8-3
		c-5,0.2-10,0.6-15,1v-0.2c-0.1,0-0.2,0-0.3,0v59.3c0.1,0,0.1,0,0.2,0.1v-0.2c3.1-1.9,6.3-3.7,9.3-5.7s3.6-5.5,4.3-8.7
		c0.3-1.3,0.4-2.9,2-3.2s2.5,0.9,3,2.2c1.4,3.3,4,3.7,6.5,2c16.1-11.1,33.8-9.5,51.6-6.5c16.4,2.8,32.7,6.2,49,9.5
		c12.4,2.5,22.9,8.8,31.9,17.7c9.6,9.5,19.1,19.1,28.8,28.5c12.5,12.2,20.6,27.1,26.3,43.4c0.6,0.2,1,0.9,1,1.5c0,0.4,0,0.8,0.1,1.2
		c0,0.1,0,0.1,0,0.2c0.2,1,0.4,2,0.7,3.1c12-3.1,24.8-3.5,39-0.1c25.9,6.3,47,19.1,63,40.2c1.8,2.3,2.9,3.3,5.9,1.5
		c48.9-29.9,99.9-56.1,152.7-78.4c0.6-0.3,1.2-0.6,1.8-0.9C477.2,905,475.7,904.8,474.8,904.3z"/>
	<path fill="#281604" d="M618.2,509.2c-2.2-0.9-2.7,1.2-3.2,2.8c-0.2,0.6-0.5,1.2-0.7,1.9c-13.5,37.4-30.7,73.2-45,110.3
		c-1.1,2.7-2.3,2.9-4.8,2.1c-4.2-1.5-8.6-2.5-12.9-3.8l0,0c-1.9-0.6-2.1,0.9-2.7,2.1c-0.8,1.7,0.5,2,1.6,2.3
		c5.5,1.8,10.9,4,16.2,6.5c3.1,1.5,5.5-0.9,5.1-3c-0.6-3.1,0.8-5.2,1.8-7.5c15.7-36.3,30.7-72.9,44.8-109.8
		C618.8,511.9,620.7,510.2,618.2,509.2z"/>
	<path fill="#315C47" d="M628.8,940.9c-15.5-19.4-35.5-34.2-52.4-52.1c-1.3-1.6-3.6-2.1-5.5-1.3c-2.7,1.2-2.6,3.6-2.7,6.7
		c0.1,0.9,0.4,2.6,0.6,4.2c1.4,9.8,6.8,18,10.7,26.8c6.7,14.9,13.1,29.9,20.4,44.5c5.6,11.2,12.6,21.6,20.8,31
		c1.2,1.3,2.2,3.9,4.2,0.5c5.3-8.9,12.5-16.5,21.1-22.3c1-0.7,1.6-1.2,1-2.8C641.9,963.9,637.3,951.5,628.8,940.9z"/>
	<path fill="#F69447" d="M563.7,643.4c4.6-0.9,9-2.7,12.9-5.2c1.3-0.8,4.3-1.4,2.4-3.8c-1.2-1.5-2.8-3.1-5.6-0.4
		c-4.4,4.4-10.4,6.9-16.6,7c-3.9,0-7.4-0.9-7-6.2c0.2-2.2-1-4.2-2.9-5.3c-2.6,2.9-5,5.9-7.8,8.5c-2.5,2.2-1,4.3-0.5,6.4
		c0.5,1.9,1.6,2.9,3.8,3.8c6.6,2.7,14.5,2.2,19.7,8.1c0.8,1.1,2.3,1.5,3.6,0.9c1.5-0.8,1.7-2.4,1.5-3.9c-0.2-1.8-1.1-3.1-3.3-2.9
		c-3,0.3-5.2-1.2-5.2-4C558.6,643.4,561.7,643.8,563.7,643.4z"/>
	<path fill="#315C47" d="M632.4,865.5c-0.1-0.2-0.5-0.1-1.2-0.3c0,1.7,0,3.3,0,4.9c-0.5,15.8,1.1,31.6,3.1,47.3
		c2.3,18.7,5.6,37.1,13,54.6c1.4,3.3,2.4,4.8,6.2,2.4c5.7-3.5,5.7-3.1,2-8.2c-2.6-3.6-6.2-7.4-3.4-12.1c2.7-4.5,7.4-3.2,12.1-1.7
		l0,0c-1-4-2.6-8.2,0.1-10.9c3.7-3.7,2.3-6.9,1.2-10.8C658.7,906.8,644.3,886.8,632.4,865.5z"/>
	<path fill="#315C47" d="M636.9,850.7c-1.5-2.2-2.7-1.9-4,0.3c-2.6,4.4-1.3,8.4,0.9,12.5c13,23.8,29.3,46.1,35.5,73.3
		c0.8,3.6,4.4,2.5,6.8,2.8c1.8,0.3,0.8-2.4,1.5-3.8l0,0c-0.4-1.4-0.8-3-1.4-4.5c-4-11.1-8.9-21.8-14.6-32.2
		c-7.4-13.6-14.9-27.1-20.5-41.5C640.2,855,638.3,852.9,636.9,850.7z"/>
	<path fill="#82AED5" d="M535,641.3c-4,2.2-7.8,4.5-12.1,5.2c-4.9,0.8-3.8,4-3.6,7.1c0.3,4,3.3,2.2,5.3,2.2c1.5-0.1,3-0.4,4.4-0.9
		C539.3,652.2,539.3,652.2,535,641.3z"/>
	<path fill="#FEDFCA" d="M524.2,633.7c0.3-1.8-1.2-1.5-2.4-1.5c-4.9-0.3-6.4-3.6-6.5-7.8c-0.2-3-2.8-5.4-5.8-5.2
		c-0.9,0-1.7,0.3-2.4,0.7c-1.2,0.6-2.6,0.7-3.8,0.2c-7.1-2.3-15.4-2.5-19.6-12c-1.2,4.8-1,8.5-3,11.4c-3.2,4.6-2.6,9.3-0.2,14.1
		l5.4-3.8c-1.6-2.7-7.4-6.6,1.7-6.2c0.6,0,1.2-1.4,1.9-2.2c1.4-1.8,3.6-2.6,5.8-2.2c3.9,0.5,5.5,3.7,6.8,6.6
		c1.1,2.4,0.1,4.9-1.9,6.8c-0.8,0.8-2.2,1.4-2,2.7c0.5,4.5-1.9,7.5-5.3,10.5c4.9,1.3,10.1,1.7,15.2,1c-2.3-4.9-7.2-9-3-14.3
		c2.1-2.9,6.1-3.5,9-1.4c0,0,0,0,0.1,0.1c6.2,4.5,2.7,9.8-0.2,15.3c5.9-0.6,11.6-2.4,16.8-5.1C526.1,639.9,523.4,638.2,524.2,633.7z
		"/>
	<path fill="#FBB92C" d="M553.6,653.5c-1.2-0.2-3-1.2-3.2,0.9c-0.7,5.5-3.4,10.9-1.1,16.6c0.9,2.3,1.9,4.3,4.9,3.9
		c4.3-0.5,7.5-4.1,7.4-8.5l0,0C561.3,658.1,559.2,654.6,553.6,653.5z"/>
	<path fill="#FEDFCA" d="M479.1,665.3c0.5,7.3,2.5,11.7,6.6,11.7s7.2-6,7.5-13c0.3-6.3-4.3-3.1-6.3-3.9l0,0
		C482.7,660.1,478.7,659,479.1,665.3z"/>
	<path fill="#F2766D" d="M510.4,632.2c-2.6,0-5.3,0.9-5.1,4.1c0.3,3.5,1.4,7.9,5,8.3c3.6,0.4,4-4.1,4.9-7.1
		C514.8,634.6,513.8,632.2,510.4,632.2z"/>
	<path fill="#FFBFBC" d="M479,504.9c0-6-1.3-7.4-7.3-7.5C474.9,502.3,475.9,503.4,479,504.9z"/>
	<path fill="#FEDFCA" d="M525.5,671.7c1.2,3.6,3.1,4.4,6.2,1.8c4.2-3.5,6.8-11.7,5.2-16.7c-0.2-0.6-0.2-1.7-0.9-1.5
		c-3.6,0.7-7.1,1.6-10.5,2.8c-2.5,1-0.4,3.6-1,4.8C524.1,665.9,524.4,668.9,525.5,671.7z"/>
	<path fill="#315C47" d="M690.1,937c4.6,2.4,7.2,6.1,9.2,10.7c1.6,3.7,0,9.1,3.1,11s7.8,0.4,11.7,0.8c5.2,0.5,8.7-2.1,9.1-7.3
		c0.2-1.6,0.1-3.3,0.1-6.1l0,0c1.2-3.9-1.1-7.8-3.6-12c-4.3-7.4-10.2-13.5-15.3-20.3c-0.7-1-1.4-1.9-2.8-1.7c-4.6,0.5-9.8-3-13-1.4
		c-3.6,1.9-2.5,8.3-4,12.7c-0.1,0.3-0.2,0.7-0.2,1C682.4,932.9,682.3,933,690.1,937z"/>
	<path fill="#82AED5" d="M496.1,651.4c0.8-2.9-1.6-2.9-3.6-3.3c-3.6-0.8-7-2-10.3-3.5c-1.1-0.5-2.1-1.4-3.2,0.5
		c-4.4,7.5-1.8,12.8,6.7,13.1c0.6,0,1.3,0,1.9,0l0,0c1.3,0.1,2.7,0.1,4,0C495.8,657.6,495.4,654,496.1,651.4z"/>
	<path fill="#426D38" d="M665.3,976.2c-3.6-3-6.1-2.7-9.4-0.7c-1,0.6-2.1,1.1-3.1,1.7c-18.1,10.8-30.3,25.9-34.6,46.9h98.9
		c-10-14.3-19-29.2-26.9-44.8C681.4,982.3,672.6,982.3,665.3,976.2z"/>
	<path fill="#426D38" d="M720.3,962.6c-3.7-0.8-7.5-1.3-11.3-1.5c-4.5-0.2-8.7-0.5-9,5.8c-0.1,1.5-1.5,2.5-2.7,3.4
		c-2.7,2-2.6,4.2-1,6.9c9.4,16,17.2,32.9,29.9,46.7h27.1c-1.1-14.6-5-28.5-9.8-42.4C739.4,969.9,731.3,964.9,720.3,962.6z"/>
	<polygon fill="#315C47" points="735.8,965.9 728.2,949.8 721.4,960.4 	"/>
	<path fill="#B77136" d="M695.8,968.9c3-2.3,3.2-5.6,3.4-9c0.9-12.4-6-19.8-16-25.1c-2.1-1.1-2.7,0-3,1.8c-0.4,2.5-0.8,5-1.2,7.6
		c-1-0.3-1.5-0.2-1.7-0.5c-2.6-3-6.9-3.9-10.5-2c-3.1,1.7-1.8,5.6-1,8.7c0.4,1.4,1,3.2-0.2,4.3s-2.8-0.2-4.1-0.8
		c-2.7-1.2-5.3-1.4-7.4,0.8c-2.2,2.3-0.4,4.7,0.7,6.9c1.8,3.9,5.2,6.5,8,9.5c6.8,7.7,15.1,9.8,24.8,6.5c1.8-0.6,2.8-0.7,2.6,1.4
		c2.7-1.4,2.8,1.3,3.5,2.6c7.8,14.8,16,29.3,26.4,42.5h3c-11.7-13.8-19.5-30-28.5-45.4C692.5,974.9,692.2,971.7,695.8,968.9z"/>
	<path fill="#B57137" d="M84.4,926.5c1.9-2.8,4-4.4,7.4-4.6c4.2-0.2,8.2-2.1,11-5.3c5.8-5.9,9.1-13.8,9.4-22c0.2-2-0.9-4-2.6-5
		c-2.1-1.2-3.4,0.3-4.8,1.5c-0.9,0.8-1.8,2.4-3.3,1.5c-1.3-0.7-1.2-2.3-1.2-3.6c0-1,0-2-0.2-3c-0.4-1.8-1-3.8-2.8-4.5
		c-2.1-1-3.2,1.2-4.5,2.3c-1,0.8-1.9,1.9-2.9,2.8c-4.1,3.7-5.4,3.5-7.2-1.6c-1-2.7-2.5-4.9-5.6-4.8c-3.1,0.1-3.4,2.8-3.9,5
		c-0.9,3.9-2,7.7-2.6,11.7c-1.3,9.2,2,16.8,9.6,22.1c2.8,1.9,3.3,3.5,2,6.5c-12,24.9-19,51.3-24.3,78.3c-1.3,6.7-2.2,13.4-2.7,20.2
		h4c0.7-23.4,4.1-46.2,13-68.1C76.2,946.1,78.4,935.5,84.4,926.5z"/>
	<path fill="#6F9F54" d="M542.7,1014.6c10.8,0.9,21.5,1.9,32.7,1.5c-0.3-0.6-0.4-1.1-0.7-1.3c-23.5-13.7-43.4-31.9-62.7-50.8
		c-3.7-3.4-6.5-7.6-8.5-12.2c-1-2.5-2.2-5.1-0.3-7.6c2-2.7,5.1-2.4,7.8-1.7c11.6,3,23.1,6.1,34.1,11.1c18.6,8.4,37.8,15.2,56.6,23.9
		c-1.1-2.2-2.3-4.3-3.3-6.5c-9.1-19.4-18.2-38.8-27.2-58.3c-2.9-6.2-4.9-12.8-4.9-19.7c0-3.2,0.6-6.2,4-7.3c3.4-1.2,5.8-0.3,8.4,2.4
		c6.1,6.4,12.5,12.5,19,18.4c14.1,12.7,27.9,25.7,39.2,41.2c-1.3-8.7-2.6-17.5-3.9-26.2c-2.9-18.8-4.4-37.7-3.5-56.8
		c0.2-3.9-0.5-4.7-4.5-3.7c-107.1,26.4-206.6,70.4-300.8,127.4c-2.7,1.7-2.7,2.8-1.1,5.3c5.8,9,8.6,19.6,8.3,30.3h152.3
		C502.2,1016.1,522.5,1012.8,542.7,1014.6z"/>
	<path fill="#426D38" d="M319.1,993c-27.5-43-74.2-52.5-106-46.1c-1.6,0.3-3.2,0.7-4.8,1.4c-30,13.9-51.7,34.7-56.1,69.4
		c-0.3,2.1-0.7,4.2-1,6.3h177C328.5,1012.7,325.1,1002.5,319.1,993z"/>
	<path fill="#315C47" d="M621.7,1004.9c-6.5-7.2-11.9-15.2-17.6-23c-0.5-0.5-1.1-0.8-1.7-1c-28.2-12.9-56.2-26.5-86.2-35.2
		c-2.2-0.7-4.5-1.3-6.8-1.6c-4.7-0.5-5.8,1.1-4.4,5.5c1.4,4.2,3.7,7.9,6.8,11c4.6,4.8,9.6,9.2,14.3,13.9
		c17.2,16.7,35.7,31.4,57.2,42.3c1,0.5,2.5,0.7,2.5,3.4c-3.6-2.7-7.2-2-10.8-2c-11.2,0-22.3-0.9-33.4-1.8
		c-17.9-1.4-35.2,0.9-51.9,7.5h126.7c0.2-5.6,2.8-10.4,4.8-15.5C621.5,1007.4,622.9,1006.2,621.7,1004.9z"/>
	<path fill="#6F9F54" d="M683.9,849.4c-12.7,5.6-25.9,9.5-40.8,7.3c10,26.9,27.3,49.6,36.5,76.3c2.4-7.6,4.1-15,5.7-22.4
		c0.5-2.3-1.5-2.7-2.7-3.6c-7.1-5.3-10.1-12.6-10.4-21.2c-0.2-4.8,1.4-6,6-4.9c1.6,0.4,2.5,0.8,3.3-1.4c3-8.1,3.8-8.5,12-5.9
		c2.7,0.8,3.5,0.2,4.3-2.1c0.9-2.9,2.6-5.5,4.8-7.5c4.8-4.4,8.8-3.4,10.9,2.8c1.1,3.3,1.9,6.7,3.2,10c3,7.4,6.6,14.7,2.7,23
		c-0.3,0.7,0.1,1.6,0.2,2.5c1.1,6.9,2.7,13.8,3.2,20.7s4.3,12,7.8,17.4c1.9-1.1,2.4-3,3.4-4.5c9.9-15.5,20.7-30.3,33.9-43.3v-57.3
		c-9.5,1-19.1,1.9-28.6,3C720.6,840.4,701.7,841.6,683.9,849.4z"/>
	<path fill="#315C47" d="M712.2,909c-1,1-1,1.8-0.1,3c2.8,3.6,5.5,7.3,9,12.1c-1.3-7.8-2.3-14.1-3.4-21.2
		C715.5,905.4,713.9,907.3,712.2,909z"/>
	<path fill="#315C47" d="M710.9,865.7c-0.9-2.3-2.3-3.2-4.1-2.3c-4.6,2.3-6.8,6.3-7.1,11.6C701,869.1,704.8,866,710.9,865.7z"/>
	<path fill="#426D38" d="M759.1,1024h8.9v-42.8c-6.6-2.2-12.4-6.4-19.5-8.4C753.8,989.7,758.7,1006.4,759.1,1024z"/>
	<path fill="#B77136" d="M711.4,915c-2.5-3.5-2.8-5.3,0.3-8.4c7.3-7.3,9.7-15.8,4.4-25.4c-1.5-2.7-1.9-5.9-3.7-8.7
		c-1.1-1.7-0.6-4.5-3.7-4.1s-5.3,1.8-5.7,5.2c-0.5,4.2-3.2,4.6-6.5,3.4c-1.2-0.4-2.4-1.2-3.7-1.6c-6.4-2.2-7.8-1.6-9.5,5
		c-0.5,2.2-1.3,3.2-3.7,3c-5.9-0.5-6.3,0.1-5.2,6.1c2.4,13,11.4,20.3,24.9,20.8c1.9,0.1,4-0.9,5.8,1.4
		c10.1,12.3,19.1,25.2,25.8,39.7c4,8.8,8.1,17.5,12.3,26.2c6.9,14.6,10.9,30.3,11.9,46.4h1.9c-0.4-16.3-3.8-32.3-10-47.4
		C737.9,954.6,725.4,934.2,711.4,915z"/>
	<path fill="#315C47" d="M733.3,945.2c4,7.4,8,14.9,12,22.4c1.6,3.1,4.8,3.8,7.5,4.2c2,0.3,2.2-2.8,3-4.5
		c4.2-8.5,7.3-17.6,12.2-25.8v-46c-13.7,13.6-24.7,29.2-34.8,45.6C732.2,942.6,732.6,943.8,733.3,945.2z"/>
	<path fill="#1F4634" d="M764.5,977.6c1.1,0.6,2.3,1.1,3.5,1.6v-32.8c-3.5,5.4-5.5,11.4-8.2,17.2C755.4,973,755.5,973.1,764.5,977.6
		z"/>
	<path fill="#853D12" d="M401.4,604.5c2.4,5.5,7.4,7.1,12.9,4.7c4.1-1.7,7-5.3,7.9-9.7c1.6-6.7,1.6-13.6,0.1-20.3
		c-1-4.7,0.8-7.4,4.4-8.6c13.2-4.6,28.4-4.2,37.4,9.6c2,3,3.5,6.3,5.3,9.8c3-4.2,7.7-7,5.9-13.2c-0.7-2.7,1.3-5.4,3.5-7.4
		c5.3-4.7,11.2-5.5,18.8-1.9c-5.2-16-9.9-30.9-14.9-45.7c-1-3.1-1.2-5.3,1.1-8.1c4.2-5.3,4.3-11.6,0.9-16.2s-10.3-6.6-16.2-4.3
		c-2,0.8-4.2,0.8-6.2,0.2c-8.2-2.3-16.8-3.6-25.1-2.7c-6.6,0.7-12.7,1.1-19.1-0.9c-7.4-2.3-11.8,0.8-13.5,8.3
		c-1.1,4.5-0.4,8.8,2.5,12.3c1.7,2,1.3,3.2,0.2,5.1c-6.2,11-11.8,22.4-16.7,34c-8.2,19.2-13.1,39.6-14.5,60.4
		c-0.5,7.7,1.9,14.4,10.5,16.6c4.2,1.1,8.1,3,12.2,4.4c8.1,2.7,8.1,2.6,8.7-6.1c0.1-1.7,0.2-3.3,0.4-5c0.4-4.1,1.2-8.3-4.6-9.7
		c-1.2-0.3-2.3-2-2.9-3.2c-2.8-5.1-4.8-10.6-6-16.3c-0.7-3.8-0.3-7.7,2.9-10.8C394,588.7,397.9,596.6,401.4,604.5z M479.7,498.5
		c2.5,4,2.1,8.2-1.7,12.5c-0.5-3.6-2.6-5.5-4.5-7.6s-4-4.4-6.5-7.2C472.2,494.9,476.8,493.8,479.7,498.5z M442.3,520
		c5.7,0.1,10.5,1.1,15,3.6c6.3,3.6,8.6,9.2,6.2,16.1c-2.8,8.1-8.3,15-15.7,19.4c-5.6,3.5-11.1,2.1-15.9-1.4
		c-7.7-5.5-12.4-14.3-12.7-23.8c-0.4-4,1.8-7.7,5.5-9.3C430.1,521.8,436.1,520.2,442.3,520z M409.5,496.7c1.8-3.1,5.2-4.9,8.8-4.5
		c1.4,0.1,2.9,0.2,3.5,1.4c0.8,1.5-0.9,2.2-1.8,3.2c-3.1,3.3-6.7,6.2-9.2,10.2C407.8,503.5,407.4,500.1,409.5,496.7z"/>
	<path fill="#75410A" d="M474.5,254.2c6.7,4.1,14.2,5.7,21.8,6.4c9.8,0.9,19.7,1,29.1-2.6c10.3-4,12.8-14.8,5.4-23.1
		c-2.5-2.7-5.6-4.8-9-6.2c-7.2-3.3-14.8-3.7-22.5-3.4l0,0c-2.8,0-5.7-0.2-8.5,0c-7.3,0.5-14.1,2.6-19.3,8.1
		C464.8,240.8,465.9,249,474.5,254.2z"/>
	<path fill="#B5751B" d="M554.8,638.9c4.1,0.7,7.8-0.5,11.6-3.1l0,0c-5.4-2.8-10.4-5.1-16-6.2C553.2,632.2,549.2,637.9,554.8,638.9z
		"/>
	<path fill="#E2C26C" d="M617,83.3c22.1,10,43,22,61.2,38.2c18.3,16.2,32.9,36.1,42.7,58.6c0.6-0.7,1.2-1.3,1.8-2.1
		c18.5-27.1,17.9-67-1.6-93.6c-8.5-11.7-19.6-20.5-34-22.8c-25.5-4.2-49.3,0.6-70.5,16.3C613.3,80.2,612.4,81.2,617,83.3z"/>
	<path fill="#E2C26C" d="M309.5,137.3c26.7-30.2,59.2-52.4,95.6-69.1c4.1-1.9,4.2-3.3,2-6.7c-12.3-18.8-30-27-54.1-27.5
		c-25.9,1.3-47.4,14.1-62,37.9c-13.7,22.4-11.5,45,5.5,65.1C303,144.6,303,144.7,309.5,137.3z"/>
	<path fill="#D59C21" d="M421.5,106.9c0.9,12.9,6.8,18,19.7,18.1c15.1,0.1,27.9-5.3,38.7-15.8c0.9-0.9,1.6-2.6,3.2-1.7
		c1.2,0.7,0.3,2.1,0.3,3.2c-0.9,14,4.8,21.9,18.4,25.6c7.3,2,14.9,2.2,22.2,0.5c11.4-2.6,22.2-12.7,23.4-22.8c0.5-4,1.8-2.9,3.9-2
		c5.6,2.3,9.4,6.7,12.9,11.4c3.7,5,8.3,8.5,14.5,9.8c11,2.4,20.7-2.1,26.3-11.7c9.8-16.6,0.5-42.3-18.6-47.4
		c-32.7-8.7-65.5-14.9-99.3-16.2c-9.7-0.3-19.3,0-28.9,1.1c-4.9,0.6-10.2,0.1-14.5,3.1C428,73,420.1,87.8,421.5,106.9z"/>
	<path fill="#B5751B" d="M578.9,639.2c-5.5,3.8-11.8,5.6-18.2,7.1c1.1,2.5,2.5,2,3.8,2c3.2,0.1,4.3,2.2,4.6,4.9s-0.3,5.7-3.1,6.1
		c-3.5,0.5-3.2,2.1-2.8,4.6c0.3,1.8,0.3,3.6,0.1,5.5c-0.6,4-5.6,7.8-9.9,7.7c-4.5,0-5.6-3.4-6.5-6.9c-1.1-4.2-0.5-8.2,0.8-12.3
		c1.1-3.3,0.4-6-3-7.4c-1.7-0.7-2.5-0.6-3.3,1.7c-1.2,3.5-2.3,6.7-2.4,10.5c-0.1,5.3-2.8,10.2-7.1,13.2c-3.5,2.5-6.1,1.6-7.9-2.3
		c-1.5-3.4-2-7.1-1.7-10.7c0.1-1.3,0.8-3.1-1.3-3.7c-3.2-0.9-3.5-3.4-3.9-6.2c-0.3-1.6,0.5-5-3.2-4.3c-4.3,0.6-8.7,0.8-13,0.6
		c-1.4,0-2.4-0.1-2.8,1.9c-1,5.3-3.8,10.2-3.2,15.9c0.3,2.6-1,5.2-2.3,7.5c-1.6,3-3.9,5-7.6,4.6s-5.6-2.6-6.7-5.9
		c-1.3-4-1.2-8.2-1-12.4c0.2-3.4-1.4-8-3.8-8.4c-8.2-1.4-16.6-1.3-25.2-1.8c0.9,2.3,1.7,4.6,2.3,7c1.6,7.8-0.3,14.6-6.5,19.8
		c-5.7,4.8-10.2,3.1-12.1-4.1c-2-7.2-0.7-14.9,3.5-21c2-3.2,1.1-3.8-2-4.2c-3.4-0.4-6.8-1.1-11-1.7c2.3,7,2.2,14.6-0.4,21.5
		c-1.3,3.6-2.6,8.1-7.1,8s-5.7-4.5-7.1-8.1c-0.4-0.9-0.6-1.9-0.9-2.9c-2-7.5-0.7-14.5,3.2-21.4l-10.8-2.9c0.6,2,1.1,3.3,1.5,4.5
		c2.4,7.6,1.3,15.9-3.1,22.5c-4,6.2-9,5.9-12.5-0.7c-2.2-4.2-2.8-9-1.7-13.6c1.1-5.6,3.6-10.7,6.4-16c-9.3-3.7-18.4-7.9-27.3-12.7
		c1.7,4.7,3.2,8.5,4.3,12.4c7.2,25.1,14.3,50.2,21.3,75.4c0.8,3.2,2.9,6,5.6,7.8c16.6,11.6,36,14.5,55.3,16.7
		c15.5,1.8,31.2,2.3,46.9,3c14.2,0.6,28.3-0.9,41.5-6.7c3.1-1.3,5.5-3.8,6.5-6.9c11.1-27.6,22.4-55.2,33.6-82.8
		C578.4,642.3,579.6,641.1,578.9,639.2z"/>
	<path fill="#FAEEB7" d="M381.7,708.8c-7.5-3.1-15.5-5.1-19.4-13.6c-4-8.9-8.7-11.2-18.7-10.5c-4,0.3-7.9,1.3-11.9,0.6
		c-15-2.7-30.4-3.2-45.3-6.6c-6.7-1.5-11.1-5-13-11.5c-1.3-4.7-2.9-9.2-4.9-13.6c-1.4-2.9-3.4-5.1-6.5-5.8c-9-1.9-15-7.7-19.8-14.9
		c-7.1-10.6-17.3-16.1-29.4-19.2c-16.4-4.3-26.3-0.6-36.2,16.5c-2.3,3.8-2.8,8.3-1.6,12.5c1.9,6.9-0.2,9.7-7.3,11.4
		c-1.6,0.4-3.3,0.7-4.9,0.9c-11.2,1.7-22.2,11-24.3,22.3c-1.8,9.6-7.3,13.9-16.1,15.9c-7.1,1.6-14.3,3.2-21.1,5.9
		c-12.1,4.8-19.1,13.8-22.8,25.9c1.4,1,2.8,0.4,4,0.3c13.8-0.7,27.6-1.5,41.4-2.2c47.6-2.6,95.3-2.9,142.9-3.4
		c30.1-0.3,60.3-2.2,90.4-0.6c8.7,0.5,17.3-0.8,26-1.1c4-0.2,4.6-1.7,3.4-5.3C385.6,710,383.6,709.7,381.7,708.8z"/>
	<path fill="#FFE6AE" d="M580.2,699.1c18.3-8.1,36.9-15.3,57.5-14.6c4.2,0.1,7.3-1.4,7.9-5.9c1.1-7.3,5.5-12.3,11-16.6
		c5.3-4.2,11.2-8,15.4-13.5c7.8-10,17.3-18.5,28.1-25.3c2.7-1.7,5-3.9,7.6-5.7c2.9-2,3.3-4.2,2-7.6c-4.3-10.9-12.3-18-22.7-22.7
		c-13.7-6.1-28.2-7.8-41.7-8.1c-19.7,0-37.2,4.1-53.5,13.1c-2.5,1.3-4.5,3.4-5.5,6.1c-3.5,8.6-7.2,17.2-11,25.7
		c-1.3,2.9-0.9,4.3,2,5.8c5.4,2.7,6.2,6.7,3.8,12.5c-9.3,22.4-18.5,44.9-27.6,67.4c-0.3,0.8-1.2,1.7-0.2,2.7
		c1.7,1.7,12.6,0.8,13.9-1.3C570.1,705.8,574.7,701.6,580.2,699.1z"/>
	<path fill="#FBB92C" d="M390.5,641c-2.5,4.3-4.2,9.1-5,14c-0.7,3.8-0.1,7.7,1.8,11.1c2.9,5.1,5.6,5.3,8.8,0.5
		c2.6-4,4.1-8.6,4.1-13.4c0-4.3-1.1-8.5-3.2-12.2C395.1,637.4,392.4,637.5,390.5,641z"/>
	<path fill="#281604" d="M499,630.5c2.3-3.4,0.1-6.1-2.1-8.2c-2.1-2-4.8-1.8-6.3,0.9c-1,1.8-2.6,2.4-4.5,3.3l0,0
		c1.2,1.5,2.2,3,3.4,4.4C493.1,635.1,495.9,635,499,630.5z"/>
	<path fill="#AC887B" d="M727.7,595.4c-8.7,14.2-19.5,26-33.8,34.7c-4.3,2.5-8.2,5.8-11.5,9.6c-7.9,9.7-17,18.4-26.9,25.9
		c-4.1,3-6.8,7.4-7.8,12.4c-1.3,6.8-4.3,8.9-11.3,8.4c-4.2-0.3-8.3-0.1-12.4,0.7c-14.4,2.5-28.5,7-41.8,13.1
		c-6.3,2.7-11.4,7.6-14.4,13.8c5.4,0,9.7-0.1,14,0c36.3,0.7,72.6-2.5,108.9-1.9c25.7,0.4,51.5,0.1,77.2,0.1v-151
		C751.2,568.6,737.3,579.6,727.7,595.4z"/>
	<path fill="#281604" d="M375.7,621.5L375.7,621.5c-2.3-4.1-1.1-7.8-1.8-11.4c-8.3-42.6-17.8-85.1-20.6-128.6c-0.1-1.4,0-3.1-1.8-3
		c-2,0.1-1.2,2-1.1,3.1c0.3,11.8,1.5,23.6,3.4,35.3c5.2,28.8,10.7,57.6,15.6,86.5c0.7,4.1,4.7,9.1-0.8,13.1c0.2,0.6,0.6,1.1,1,1.6
		C371.3,619.8,373.4,621,375.7,621.5z"/>
	<path fill="#FBB92C" d="M414.4,644.4c-1.6-0.6-2.3,0.5-3.1,1.7c-4.4,6.6-3.9,19.1,0.8,25.5c2.2,3,4.2,2.9,6.1-0.1
		c2.8-4.5,3.7-9.5,4-14.7c0-3-0.4-6-1.3-8.8C420,644.6,416.7,645.3,414.4,644.4z"/>
	<path fill="#CD8824" d="M366.2,624.1c32,17.3,66.8,23.6,103.3,25.9h0.1c0.5,0,1.9-0.1,3.2,0c1.7,0.1,3-0.3,3.2-2.2
		c0.4-2.8-1.9-1.7-3.1-1.9c-2.1-0.4-4.3-0.6-6.4-0.8c-23.6-2.7-47.4-4.8-70-13c-9.5-3.5-19.8-5.3-28-12.1c-0.8-0.7-1.4-2.2-2.8-1.4
		c-1.3,0.9-2,2.3-2.1,3.8C363.5,624.2,365.3,623.7,366.2,624.1z"/>
	<path fill="#FBB92C" d="M438.8,651.1c-3.5,4.6-5.5,10.3-5.6,16.1l0,0c0.2,1.3,0.5,3.7,1.1,5.9c1.5,5.5,4,6.3,8.6,2.8
		c7-5.4,8.7-18.2,3.1-24.7C443.9,648.9,441.1,648,438.8,651.1z"/>
	<path fill="#FEDFCA" d="M528,618.6c2.5,2,1.1,5.8,3,7c2.2,1.3,5.4,1.2,7.8,2.9C539.7,617.6,539.4,617.2,528,618.6z"/>
	<path fill="#FFBFBC" d="M418.8,494.4c-6.3,0.3-8,2-8.3,8.6C413.9,500.1,416.6,497.7,418.8,494.4z"/>
	<path fill="#F2766D" d="M539.5,633.9c0.7-2-4.8-5.8-7.7-5.8c-3.4,0.1-5.8,3-5.6,6.8c0.3,4.5,4.1,3.4,6.9,4.4
		C535.9,638.4,538.5,636.8,539.5,633.9z"/>
	<path fill="#FAEEB7" d="M421.5,537.4c1.2,6.6,4.5,12.6,9.5,17.2c6.2,5.7,12.3,5.9,18.8,0.8c3.9-3.1,7.2-7,9.6-11.4
		c5.8-10.4,2.9-17.3-9-20.8l0,0c-0.5,6.2-3.7,9.1-9.3,8.8c-5-0.3-7-2.7-6.9-8.9c-2.1,0.7-4.2,1.3-6.2,2.1
		C421.8,527.9,420.2,530.7,421.5,537.4z"/>
	<path fill="#BCD4CA" d="M387.6,472.5c-8.2,4.5-17,8.1-26.6,7.3c-5.1-0.5-5.9,0.6-5.7,5.5c1,25.1,7.3,49.4,10.9,74
		c0.2,1.2,0.7,2.2,1.6,3c3.9,3.6,7.8,7.2,11.9,11.1c0.6-1.3,1-2.2,1.3-3.1c5.7-18.3,13.4-35.9,22.8-52.5c1.7-3,2.1-5.2,0.3-8.5
		c-3.5-6.4-2.7-13,2-18.7c4.3-5.2,9.9-3.5,15.3-2.1c1.1,0.3,2.2,0.7,3.3,1c3.8,1,7.4,0.5,11.3-1.4c-8.1-6-10.9-13.3-7.2-23
		C414.3,465.4,400.4,465.4,387.6,472.5z"/>
	<path fill="#BCD4CA" d="M492.1,498.1c-1.2,0-2.4,0.1-4,0.2c1.2,4.1,1.8,7.8,0.2,11.3c-1.1,2.5,0.2,3.5,1.9,4.8
		c13,9.7,21.4,24.3,23.5,40.4c0.3,2.4,0.2,4.9,4.1,4.5c2.1-0.2,3.4,2.1,4,4c1,3,2.1,3.3,4.5,1.1c2.8-2.6,6-3,9-0.4
		c2.8,2.5,2.4,5.6,0.9,8.7c-0.5,1-1.1,2.1-1.8,3c-1.2,1.8-1.2,2.9,0.9,4.4c10.4,7.2,14.5,17.8,16,29.8c0.4,3.4-1.5,7.8,1,10
		s6.9,2.1,10.2,3.6c3.8,1.6,5.1,0,6.5-3.3c6.1-15.3,12.4-30.5,18.8-45.7c8.8-20.5,17.3-41.1,25.1-62c1-2.6,1.1-4-2.2-4.8
		c-7.1-1.8-12.9-6.1-18-11.2c-4-4-8.8-7.1-14.1-9.2c-18.8-7.8-38.5-12.8-58.4-16.9c-3.8-0.8-5,0.9-4.1,4.4c0.8,2.4,0.7,5-0.2,7.3
		C510.4,495,506.1,497.9,492.1,498.1z"/>
	<path fill="#F2766D" d="M482.8,634.5c-2.5,2.6-0.5,5.7,0.5,7.8c1.5,2.3,4.4,3.2,6.9,2.2c2.6-1.3,5.1-3.3,5.5-6.7
		c0.1-1.4-0.8-1.6-1.9-1.7c-1.8-0.2-3.5-1.1-4.8-2.5C486.5,630.8,484.6,632.6,482.8,634.5z"/>
	<path fill="#853D12" d="M463.9,490c2.2,3.4,4.4,0.7,6.6,0.3c4.5-0.7,8.9-0.2,12.3,2.7c2.7,2.5,6.4,3.6,10,3.1h0.1
		c11.4,0,18.8-5.7,21.3-15.9c0.5-2.1,1.2-5.7-2.4-5c-6.2,1.2-12.4-1.1-18.3,0.1c-8.9,1.9-17.6,0-26.2-0.8c-4.9-0.4-5.6,1.3-6.6,4.5
		C459.4,483.3,461.7,486.6,463.9,490z"/>
	<path fill="#F2DFA2" d="M498.5,563.7c1.5,5.4,3.4,9.5,9.5,9.5c0.4-0.3,0.9-0.6,1.4-0.9l0,0c-0.5-3.1-0.4-6.3,1.3-9.5
		c0.8-1.6,0.6-3.3,0.4-4.9c-1.8-16.3-8.7-29.9-21.6-40.2c-1.2-1-2.4-3.3-4.5-1.8s-0.7,3.3-0.1,5
		C489.4,535.1,494.3,549.3,498.5,563.7z"/>
	<path fill="#F69447" d="M536.5,583.4c-3.5-2.8-5.7-3.8-9.3,0.2c-5.5,6.1-13.5,4.1-15.9-3.8c-0.5-1.9-1.1-3.8-1.6-5.7
		c-0.3,0.2-0.6,0.4-0.9,0.6c-0.2,0.1-0.4,0.3-0.5,0.5c-0.3,0.3-0.9,0.3-1.2,0c-0.1-0.1-0.2-0.3-0.2-0.4c-0.1,0-0.2-0.1-0.2-0.1
		c-4.1-1.6-5,0.3-6,4.1c-2.4,9.1-13.8,13.4-20.6,7.7c-2.9-2.5-3.9-1.3-5.7,0.7c-11.2,12.4-9.1,34.9-3.7,45.3
		c1.8,3.3,4.8,5.9,8.3,7.3c0.8-2.6-0.5-4.5-1.2-6.5c-1.3-4-2.6-8.1-0.4-12.1c2.3-3.9,3.5-8.3,3.6-12.8c0-1.1,0.1-2.5,1.4-2.9
		s2.2,0.8,2.7,1.8c3.9,8,11.8,8.8,19.6,10.8c-1.6-4-5.7-5.7-7.5-10.3c3.6,1.4,5.5,3.4,7.7,5.1c3,2.4,6,4.7,9.9,5.7
		c2.2,0.5,4.3,0.9,4-2.6c-0.2-2.2,1.4-1.7,2.6-1.2c4.1,1.8,8.5,1.7,12.8,1.1c4.8-0.6,6.8,1.7,7,6.1c0.1,3,0,6.2,0,10.4
		C555.9,617.1,547.3,592.1,536.5,583.4z"/>
	<path fill="#2E1B05" d="M441.6,530c2.8-0.1,6.1-0.5,6.4-4.1c0.3-3.3-2.1-4.1-4.8-3.8c-3.5-0.2-6.5,0.6-6.7,4.3
		C436.3,529.3,439.2,530.1,441.6,530z"/>
	<path fill="#BCD4CA" d="M468.5,472.8c8.5-0.3,16.8,2.6,25.3,0.2c2.1-0.4,4.3-0.3,6.4,0.3c4.1,1.1,7.9,0,11.7-1.2c1-0.3,2-0.6,2-1.8
		c0-1.4-1.4-1.1-2.3-1.3c-16.7-2.4-33.5-3.2-50.5-3.9C461.5,470.5,464.1,473,468.5,472.8z"/>
	<path fill="#C7B5AE" d="M374.8,602.4c0.8-8,2.1-15.9,3.9-23.6c0.4-1.7,0.7-3.2-0.8-4.5c-3.3-2.9-6.6-6-11-10.1
		c1.3,7.6,2.2,13.6,3.5,19.6C371.8,589.8,372.2,595.8,374.8,602.4z"/>
	<path fill="#BCD4CA" d="M454.9,465c-6.3,0.3-12.6,0.1-19-0.2c-2.9-0.1-4.1,1.2-4.9,3.7c-2.5,7.8,1.9,15.4,10.7,18.5
		c6.1,2.1,12.7,2.1,20.1,3.9c-3.7-5.7-4.8-10.8-1.9-16.3c0.9-1.7,0.4-3.9-0.1-5.9C459.2,466.3,458,464.9,454.9,465z"/>
	<path fill="#FFF2BC" d="M415.9,635.7c19.4,4.1,39.1,5.8,58.8,8.2c0.8,0.1,2,1,2.5-0.5c0.7-1.8-0.7-2.4-1.8-3.1
		c-5.9-3.8-8.6-9.5-10-16.1c-1.9-9.6-1.9-19.2,1.2-28.6c0.7-1.5,0.8-3.2,0.4-4.9c-6.7-19.8-20.8-24-38.7-18.8
		c-3.3,1-4.6,3.3-3.9,6.9c1,5.2,0.9,10.6,0.6,15.9c-0.4,6.4-2.2,13.3-8.6,15.1c-6.9,2-6.6,6.4-6.7,11.4c0,0.7-0.1,1.3-0.1,2l0,0
		c0,1.2-0.1,2.3-0.2,3.5C408.2,632.4,410.3,634.5,415.9,635.7z"/>
	<path fill="#281604" d="M522.8,619.2c-2.8-0.2-5.2,1.9-5.4,4.7c0,0.2,0,0.4,0,0.6c0,3,1.1,5.7,4.9,5.5c3.5-0.2,5.9-1.8,6-5.6
		C528.4,620.4,525.7,619.3,522.8,619.2z"/>
	<path fill="#8E0A06" d="M523.3,584.2c4.8-3.3,8.7-7.8,11.3-13c1.1-2.1,1.1-4.3-1-5.9s-3.9-1-5.9,0.5c-4.9,3.6-5,3.5-7.9-2
		c-1.7-3.3-3.4-3.4-6.1-1c-1.9,1.7-2.3,3.5-2.5,6.5c0.6,3,1,6.8,2.2,10.4C515,584.5,519.7,586.6,523.3,584.2z"/>
	<path fill="#B15925" d="M489.6,567.2L489.6,567.2c-6-0.3-12,4.5-12.4,9.9c-0.2,5.2,3.8,9.6,9,9.9c6.5,0.3,12.7-5,13-11.2
		C499.4,571.1,495.4,567.5,489.6,567.2z"/>
	<path d="M690.3,979c-0.1,0-0.1,0-0.2,0.1c0,0.1,0.1,0.1,0.1,0.2l0,0C690.3,979.1,690.3,979.1,690.3,979z"/>
	<g id="live27m1">
		<path fill="#F8DF9C" d="M610,241.1l8,0.9C614.4,235.9,614.3,235.9,610,241.1z"/>
		<path fill="#F8DF9C" d="M385.5,220.4c-0.1,0-0.1,0.2-0.3,0.8c7.1,2.3,14.2,5.1,21.3,8c-1.6-3-3.6-5.7-5.9-8.2
			C393.5,212.8,393.5,212.8,385.5,220.4z"/>
		<g>
			<path fill="#75410A" d="M593.6,237.2c2.9,1.6,5.8,3.3,8.5,5.3c1.7,1.2,2.4-0.2,3.4-0.9c3.2-2.2,5.7-7.5,9.2-6.6
				c3.2,0.8,5.4,5.5,8.1,8.5c0.2,0.2,0.4,0.5,0.6,0.8c3.1,3.2,5.2,9.1,9,9.3s6.8-5.2,10.5-7.7c3-2,2.3-3.7,0.4-6
				c-4.3-5.3-8.2-10.9-12.5-16.2c-1.3-1.7-1.5-2.5,0.2-3.9c3.3-2.8,6.4-5.9,9.5-8.8c8.8-8.3,8.7-8.2,0.7-17.2
				c-2.5-2.8-4.2-2.8-6.9-0.5s-5.6,4.2-8.4,6.3c-10.2,7.5-7.9,7-15.8-1.7c-3.3-3.6-6-10.1-10.3-10.1c-4.1,0-8.1,5.2-12.3,7.9
				c-2.3,1.4-2.3,2.6-0.6,4.6c4.2,5,8.1,10.1,12.2,15.2c1.2,1.5,2,2.1-0.5,3.9c-5.1,3.8-9.6,8.6-15,13.6l0,0
				C587.5,234.6,590.6,235.7,593.6,237.2z"/>
			<path fill="#D47E23" d="M393,259c5,44.2,22.6,81.9,58.5,109.8c11.8,9.2,26.4,14.1,41.4,14c22,0.1,40.6-9.8,57.1-23.3
				c28.8-23.5,46.7-54.2,56.9-89.6c3.8-13.3-0.5-23.9-13.7-29.5c-20.4-8.7-41.7-14.9-63.6-18.4c-25.8-4.1-51.8-2.8-77.8-2.7
				c-15.7,0.1-30.3,3.9-43.7,12.2C398,237.9,392.1,246.4,393,259z M469.2,233.3c5.5-6.8,13.1-9.4,21.5-10c3-0.2,6,0,9,0
				c7.2-0.3,14.3,0.1,21.1,2.8c4.4,1.6,8.4,4.2,11.6,7.5c8.2,9.1,5.8,22.1-5.8,26c-18.2,6.1-36.5,5.3-53.6-4
				C463.9,250.6,462.6,241.4,469.2,233.3z"/>
			<path fill="#FFBFBC" d="M395.6,290.6c-1.7-5.4-3-10.8-3.9-16.4c-2.3-15.8-4.6-31.6,11.8-43c-4.9-3.1-9.5-4.5-13.9-6.4
				c-5.1-2.2-9.3-2.3-13.2,2c-2.4,2.6-4.9,2-6.4-0.8c-2.5-4.9-6.5-5.4-11.3-4.7c-2.8,0.4-5.6,0.5-8.5,0.9c-16,2-31.3,6.2-45.2,14.8
				c-9.5,5.9-15.3,14-13.7,25.7c1.4,10.4,5.6,19.4,14.2,26c15.8,12.1,33.7,18.6,53.3,20.3c12.8,1.4,25.5-2.9,34.8-11.8
				C395.8,295.2,396.5,293.5,395.6,290.6z"/>
			<path fill="#FFBFBC" d="M635.7,254.4c-2.5,3.2-4.8,2.9-6.8-0.5c-4.4-7.3-10.5-11.6-19.5-10.8c-1.3,0.1-2.5-0.3-3.5,0.9
				c-1.3,1.6,0.2,2.4,0.9,3.4c4.3,6.1,5.7,13.8,3.6,20.9c-4.1,15.3-10.3,29.8-17.1,44.1c-4.2,8.6-4.3,8.6,4.3,13.2
				c14.3,7.8,30.2,8.4,43.8,9.5c12.3,0.5,24.4-2.8,34.7-9.3c14.2-8.7,19.2-21.7,14.5-37.7c-5.8-19.8-20.7-30.1-39-36.8
				C645.5,249,640.1,248.7,635.7,254.4z"/>
			<path fill="#F8DF9C" d="M386.8,469.6c6.4-3.6,13.5-5.8,20.8-6.4c7.3-0.8,14.6-1.2,22-1.2c37.5,0,75,0.3,111.6,10.2
				c21.3,5.8,42.8,10.9,59.7,27.1c8.5,8.2,19.8,8.6,31,4.3c6.5-2.5,12-6.5,17.2-10.9c46-39.5,72.5-90.9,87.8-148.1
				c13.3-49.8,5.7-99-11.9-147c-14.8-40.3-39.7-72-76.6-94.2c-15.1-9.2-30.9-17.1-47.4-23.5c5.2,6.8,8.6,13.1,9.9,20.5
				c2.8,16.1-6.9,32.4-21.4,35.2c-9.9,1.9-18.5-0.8-25.2-8.6c-3.5-4-6.3-8.6-11-11.5c-1.8-1.1-3-1.9-4.3,1.2
				c-9.1,21.8-33.4,30.1-55,19c-8-4.1-11.9-10.8-12.8-19.5c-0.1-1.4,0.5-2.9-0.7-4.5c-1.3,1.1-2.6,2.1-3.8,3.1
				c-11,8.7-23.5,13-37.6,12.2c-11.9-0.6-17.3-5.2-19.2-17c-2.7-16.6,2.6-30.8,14.3-42.8c1.5-1.5,3.1-2.9,5.6-5.4
				c-10.9,2.7-21.1,3.7-30,7.7c-47.3,21.1-87.7,50.8-116.6,95.1c-25.7,39.4-40.6,81.5-37.9,128.9c2.2,42.1,13.9,83.1,34,120.1
				c10.1,18.6,22.6,35.3,38.9,49C346.4,477.6,365.6,481.7,386.8,469.6z M304,290c-9.1-7.1-13.4-16.9-14.6-28
				c-1.2-10.6,3.4-18.8,12-24.8c14.7-10.3,31.5-14.8,49-17c4.2-0.6,8.5-0.9,13.3-1.3c-4.4-7.5-4.4-7.5,2.2-13.3
				c3.6-3.2,7.1-6.5,10.9-9.6c2.2-1.8,2.4-3,0.5-5.1c-4.1-4.6-7.9-9.5-12-14.1c-2-2.2-1.5-3.9,0.4-5.4c4.3-3.5,8.6-6.8,13-10.1
				c2.2-1.7,3.9-0.6,5.4,1.3c4.1,4.8,8.5,9.4,12.5,14.3c2,2.4,3.5,2.9,6.1,0.7c4.5-3.7,9.3-7,13.9-10.5c2.6-2,4.6-2,6.5,0.9
				s3.6,5.7,6.1,7.9c4.7,4.1,2.9,6.7-1,9.9c-4.2,3.5-8,7.5-12.1,11.2c-2,1.8-1.9,3-0.2,4.8c4.7,5,8.5,11.1,13.9,15
				c5.7,4.1,12.7-0.2,19.2-0.2c29.3-0.2,58.7-1.5,87.7,3.7c13.5,2.4,26.5,6.5,39.4,10.9c4,1.4,6.8,0.9,9.6-2.3
				c2.8-3.1,5.8-6,9.1-8.5c3.1-2.4,2.6-4.2,0.3-6.8c-3.9-4.4-7.2-9.2-11-13.6c-1.7-1.9-1.3-3,0.6-4.3c4.5-3.2,9-6.3,13.3-9.7
				c2.1-1.7,3.3-1.3,4.9,0.6c4.1,4.8,8.5,9.4,12.5,14.3c1.7,2.1,3,2.4,5.2,0.6c5-3.9,10.2-7.4,15.2-11.4c2.3-1.8,3.6-1.5,5.3,0.6
				c2.9,3.4,5.9,6.8,9.1,10c1.8,1.8,1.8,2.9-0.2,4.7c-5.1,4.5-9.9,9.5-15,13.9c-2.5,2.2-2.3,3.6-0.4,6c3.8,4.6,7.3,9.5,10.9,14.3
				c2.7,3.6,2.7,3.6-0.1,7.7c1.6,1.7,4,1.4,5.9,2.1c19.5,6.7,35.2,17.6,41.3,38.5c5,16.8-0.5,30.8-15.3,40
				c-10.4,6.4-21.7,10.2-34.1,9.6c-16-0.8-31.9-1.9-46.5-9.6c-3-1.6-6-5.6-8.8-4.7c-2.9,1-4.3,5.2-6.5,7.9
				c-15.9,20.7-33.9,38.8-58.8,49c-28,11.6-53.4,7-76.7-11.4c-22.3-17.5-36.5-40.7-46.5-66.8c-1.3-3.4-1.9-5.1-5.6-1.7
				c-9.7,9-21.5,12.4-34.6,11.3C338.8,309.3,320.2,302.6,304,290z"/>
			<path fill="#75410A" d="M376.4,224.4c4.8-3.9,9.9-7.3,14.7-11.2c2.7-2.3,4.3-1.9,6.3,0.8c3,4,6.5,7.6,9.7,11.4
				c1.2,1.4,2.3,2.1,4.2,1c5.5-3,11.3-5.4,17.3-7.3c-3.3-3.8-6.2-7-9-10.3s-7.9-6.2-7.7-9.9c0.2-3.7,5.6-6.1,8.6-9.1
				s8.3-5.8,8.7-9.1c0.5-3.8-4.9-7-7.2-10.8c-1.8-2.9-3.2-2.2-5.4-0.6c-5.2,4.1-10.6,8-16,12c-1.1,0.8-2.1,2.2-3.4-0.1
				c-3-5.2-7.7-9.1-11.5-13.7c-4.8-5.6-4.8-5.6-10.5-1.2c-2.2,1.8-4.4,3.6-6.7,5.2c-2.8,1.8-2.5,3.2-0.5,5.4
				c4.1,4.6,7.8,9.5,12,14.1c1.9,2.1,1.8,3.3-0.4,5.1c-5.2,4.4-10.3,9-15.3,13.6c-1.1,1-3.1,1.9-1.4,4c2.9,3.5,5.6,7,8.5,10.4
				C373,225.9,374.4,226,376.4,224.4z"/>
		</g>
	</g>
</g>
</svg>
