<?xml version="1.0" encoding="utf-8"?>
<!-- Generator: Adobe Illustrator 25.4.0, SVG Export Plug-In . SVG Version: 6.00 Build 0)  -->
<svg version="1.1" baseProfile="tiny" id="图层_1"
	 xmlns="http://www.w3.org/2000/svg" xmlns:xlink="http://www.w3.org/1999/xlink" x="0px" y="0px" viewBox="0 0 768 1024"
	 overflow="visible" xml:space="preserve">
<g>
	<path d="M768.1,671v-2c0,0-0.1,0-0.1,0.1L768.1,671C768,671,768.1,671,768.1,671z"/>
	<path d="M768.1,604.1C768.1,604,768,604.1,768.1,604.1l-0.1,2h0.1V604.1z"/>
	<path fill="#BB9FE2" d="M460.6,614.1c-2.9,1.3-5.7,2.7-8.6,4c-13.3,5.9-26.9,10.4-41.5,12.2c8.7,5.9,18.2,8.6,28.4,7.4
		c14-1.7,22.9-9,25.3-20.4c0.3-1.3,1.1-2.7,0-3.8S461.7,613.6,460.6,614.1z"/>
	<path fill="#00798C" d="M444.5,66.7c-1.2,1.9-2.3,3.1-3,4.5c-5.2,9.5-10.5,18.9-15.3,28.6c-7.7,15.2-17.7,29.1-29.7,41.1
		c-10.2,10.3-21.6,19.2-32.5,28.9c-12.1,10.8-22,23.2-26.2,39.3c-1.9,7.2-2.7,14.4-0.1,22.6c13.4-13.6,27.1-25.6,43.8-33.8
		c16.5-8.1,30-21.9,50.1-24.7c-3.8-3-7.2-3.8-10.5-3.1c-8.7,1.8-18,1.3-26.1,5.9c-3,1.7-6.5,2.7-9.3-0.2c-3.1-3.1-2.8-7-0.9-10.6
		c1.6-2.9,3.4-5.7,5.5-8.2c15.6-18.1,35.7-29,58.2-36c3.4-1,4.9-1.8,3.3-5.9c-2.8-7-2.5-14.3-0.1-21.5c0.5-1.5,1.5-2.8,0.6-4.7
		C448.8,82.1,446.7,74.8,444.5,66.7z"/>
	<path fill="#211E38" d="M534.3,292.3c-3.5-2.5-5.2-6.4-7-10.2c-7-14.8-9.4-30.8-12.4-46.6c-1.7-9.1-2.1-18.3-2.3-27.7
		c-3.3,4.8-7.9,9.5-8.8,14.7c-2.6,14.2-11.4,23.7-21.7,32.4c-9.8,8.1-20.4,15.1-31.8,20.8c6.8,1.8,12.9,4.3,18.1,8.7
		c14.4,12,31,14.3,48.8,11.2c2.8-0.5,5.7-0.8,7.7,1c3.7,3.3,6.3,0.8,9.2-0.9C535.9,294.8,536.4,293.8,534.3,292.3z"/>
	<path fill="#FFE1F2" d="M480.9,570.5c19.3-3,38.6-5.7,57.4,2.7c2.9,1.3,5.6,1,7.7-1.5c2.2-2.5,2.6-6,0.9-8.9
		c-3.5-7.1-9.5-10.6-17.3-10.7c-8.8-0.1-17.6,0.1-26.4,0.3c-22.4,0.4-44.6-2.5-66.6-6.8c-11.7-2.3-23.4-4.7-35.5-2.7
		c-14,2.4-26.9,8.6-40.6,12c-3.4,0.8-1.2,2.7-0.7,4.1c4.6,12.4,1.7,22.9-8.6,31.2c-17.2,13.8-45.1,11-59-6.3c-2.2-2.8-3.9-3.1-7-2
		c-17.6,6.4-32.7,17-47.6,27.9c-1.1,0.8-2,1.7-2.9,2.8c-3.3,4.2-3.1,9.6,0.7,12.9c4.2,3.6,7.1,0.2,9.9-2.2c4.6-3.9,8.6-8.4,14-11.3
		c6.4-3.4,12.8-7,19.2-10.5c4-2.1,8.1-3.8,12.8-3.9c4.1-0.1,7.8,1.2,9.4,5.2c1.5,3.8-1.3,6.2-3.9,8.4c-6.3,5.4-12.5,11-19.3,15.8
		c-4.5,3.2-8.4,7.1-10.7,12.3c-1.5,3.5-2.6,7.2,0.8,10.1s7.2,3.2,11.2,1.2c3.8-1.9,6.7-4.9,9.5-8c5-5.6,9.7-11.4,15-16.7
		c7.8-7.7,17-12.6,28.1-13.4c11.5-0.8,22.2,2.7,32.1,7.8c10.7,5.6,22.7,8.3,34.7,7.9l0,0c4.5-0.3,9-0.4,13.5-0.8
		c19.4-1.9,37-9.4,54-18.4c9.8-5.4,20.3-9.2,31.3-11.5c16.1-3,31.7-2.5,46,7c3.8,2.6,9.9,1.6,12.9-1.7c3.7-3.9,1.9-7.8-0.5-11.4
		c-4.9-7.3-12.5-9-20.5-9.4c-9-0.5-18-0.3-27-0.7c-14.8-0.6-29.5-2.6-44.3-0.6c-6.2,0.9-11.9-1.8-15.8-6.9c-2.5-3.3-5.2-6-9.1-7.6
		c-3.2-1.3-3.6-3.3-1.2-5.7c5.4-5.5,13.1-7.9,20.6-6.3c7.9,1.4,14.9,4.7,17.2,13.2C476.3,571.3,477.9,571,480.9,570.5z"/>
	<path fill="#FFFEFF" d="M438.1,563.7c5.3,2,8.9,5.9,12.4,10.1c3.6,4.2,8.6,5.7,14,4.9c8.5-1.1,11.7-7.8,7.1-14.6
		C465.8,555.4,446.6,551.8,438.1,563.7z"/>
	<path fill="#0088B4" d="M528,600.2c-21-5.3-40.1,0.4-58.8,9.5c-3.6,1.8-2.2,3.3,0,5c12.2,9,25,17.1,37.7,25.3
		c5.1,3.1,10.8,4,16.8,3.9c1.5,0.1,3,0.1,4.5,0c8.6-1.2,15.7-4.6,19.1-13.1c3.2-7.9,1.6-15.2-3.6-21.5
		C539.8,604.3,534.1,601.7,528,600.2z"/>
	<path fill="#868DE2" d="M597.1,561.9L597.1,561.9c5.1,0,8.8-2.3,8.9-5.4c0.1-4.6-5.3-9.5-10.4-9.5s-10.4,3.2-10.4,6
		C585.2,556.9,591.9,561.9,597.1,561.9z"/>
	<path fill="#102640" d="M664.3,114.9c-0.7-2.5-1.3-3.5-3.9-1.8c-8.5,5.6-17.6,10.2-27.1,13.6c-1.7,0.6-2.8,1.4-3.2,3.3
		c-4.3,23.3-15,45.1-30.8,62.8c-1.4,1.6-1.5,2.6,0.2,4c6.6,5.5,14.8,8.7,23.3,9.2c1.3-0.2,3.1-0.5,4.8-1c8-2.1,13.5-7.6,18.7-13.6
		c12.7-14.8,21.4-32,29.4-49.6c0.5-1.2,1.1-2.3-0.2-3.6C669,131.9,666.6,123.4,664.3,114.9z"/>
	<path fill="#37335F" d="M360.5,346c9.8,6.6,18.6,14.5,30.3,19.8c0.6-12.5-2.8-23-12.7-30.5c-5.1-3.8-11.2-4.9-17.5-3.9
		c-1.2,0.2-2.8,0.1-3.4,1.6S359.3,345.2,360.5,346z"/>
	<path fill="#211E38" d="M376.1,203.2c-3.2,1.6-3.1,3-0.8,5.3c14.1,14.4,31.1,19.3,50.6,14.7c13.7-3.2,24.1-11.1,31.8-23
		c-0.7-0.3-0.8-0.4-1-0.4c-0.7,0-1.3,0.1-2,0.3c-8.4,2.3-15.1-0.2-20.1-7.1c-3.7-4.9-6.6-10.3-8.7-16c-6.4,0.1-11.6,3.4-16.8,6.5
		C398.2,190.3,387.5,197.3,376.1,203.2z"/>
	<path fill="#4B3B6F" d="M590.7,181.1c0.7-0.9,1.6-2,2.8-1.8c1.6,0.2,1.7,1.9,2.1,3.1c0.9,3-0.1,6.3,1.7,9.7
		c15.8-17.5,25.5-37.8,30.5-60.4c0.6-2.6-0.7-2.8-2.8-2.1c-19.6,6.3-39.9,7.2-60.2,6.4c-4.3-0.2-4.4,1.4-3.8,4.8
		c3.3,18.4,14.4,32.4,25.8,46.5C588.3,184.9,589.4,183,590.7,181.1z"/>
	<path fill="#6BBA51" d="M364.2,210.6c-2.7,1.8-3,3.2-1,5.8c11.8,15.7,27.5,24.7,47.1,25.4c25.5,0.9,43.5-12.6,58.2-32.1
		c5.6-7.4,6.9-15,3.6-24.2c-3.7,7.6-10.2,12.3-14.8,18.8c-19.1,27.3-59.4,30.6-82.1,7.1C370.2,206.3,370.3,206.4,364.2,210.6z"/>
	<path fill="#F1F9FC" d="M517.8,297.7c-19,3.4-36.6,0.6-51.9-12.3c-4.9-4.2-10.8-6.3-17.4-7c0.4,2.1,2.2,2.9,3.3,4.3
		c2.5,3.3,4,7.3,4.4,11.5c1,12.9,10.2,18.2,21.5,12.8c5.9-2.8,14.5-0.3,17.6,6.1c2.2,4.6,4.1,3.9,7.4,1.5c6.8-5,13.3-10.9,22.9-7.7
		c1.5,0.4,3.1-0.4,3.8-1.8c0.8-1.7-0.8-2.7-1.8-3.7C524.9,298.6,521.9,297,517.8,297.7z"/>
	<path fill="#211E38" d="M356,217.2c-7.2,6.8-14.6,13.3-21.6,20.2c-9.1,8.9-6.6,22.1,4.7,24.9c12.7,3.2,25.4,6.1,38.6,7.3
		c27.6,2.6,52.4-4.3,75.9-17.8c11.9-6.9,22.8-15,31.4-25.9c0.9-1.1,3.1-2.2,1.1-4.1c-5.4-4.9-8.8-11.1-11.1-19.1h-0.1
		c-5,9.6-11.9,18.1-20.2,25c-30,25.2-70,20.9-93.1-10.2C359.4,214.5,358.2,215.1,356,217.2z"/>
	<path fill="#211E38" d="M403.3,146.7c-6.5,5.5-12.4,11.6-16.5,19.1c-1.5,2.8-2.1,5.9,0.3,8.3c2.4,2.5,5,0.9,7.4-0.2
		c3.7-1.9,7.6-3.3,11.7-3.9c5.8-0.7,11.7-1.6,17.8-2.5c-3.7-9.7-5.8-19.9-6.2-30.3C412.7,139.9,407.8,143.1,403.3,146.7z"/>
	<path fill="#6BBA51" d="M581.6,184c-11.1-13.5-20.7-27.8-23-45.7c-0.3-2.5-2-2.8-4-2.6c-2.9,0.3-1.7,2.5-1.4,3.8
		c3.3,15.6,8.4,30.5,17.2,43.8c4.1,6.2,9.1,11.8,14.8,16.5C587.3,193.2,585.4,188.6,581.6,184z"/>
	<path fill="#4B3B6F" d="M551.2,139.8c-0.8-3.8-2.4-4.6-5.9-4.8c-16.8-0.9-33.5-2.1-49.7-7.3c-3.4-1.1-7-1.7-11.5-2.8
		c6.4,17.7,10.3,35.3,19.5,50.9c7,11.8,16,21.8,27.9,28.6c17.7,10.1,35.3,8.3,53.4-1.8C565,185.6,556.2,163.6,551.2,139.8z"/>
	<path fill="#0088B4" d="M319.7,316.9c-2.6-3.5-3.8-7.7-6.9-10.9c-7.9-8.1-13.5-17.6-17.8-28.1c-5.8-14.1-11.9-28.1-16.6-43.5
		c-6.1,7-7.1,14.4-5.9,22.2c1.5,9.4,4.8,18.4,9.7,26.5c3.7,6.1,7,12.4,9.8,19c7.3,17.7,18.7,32.5,32.2,45.9
		c20.8,20.6,46.4,33.1,73.5,43c2.1,0.8,2.8,0.5,3.4-1.8c0.8-2.5,0.7-5.3-0.4-7.7c-2-4.8-5.3-8.9-9.5-12c-10.9-7.6-21.7-15.5-33-22.3
		C344,338.7,329.8,330.5,319.7,316.9z"/>
	<path fill="#322A58" d="M201.5,387c6,6.3,8.4,13.5,11.1,20.7c4.4,12,14.8,19.3,27.6,19.2c17.7-0.1,33.8-5.9,50.4-13.6
		c-6.1-3.1-12.7-5.2-19.5-6.2c-20.5-3.1-40.4-8.1-59.2-16.9C208.6,388.5,205.1,387.4,201.5,387z"/>
	<path fill="#57E3DC" d="M388.9,479.8c0.8,7.8-2.5,14.2-6.9,20.3c-8.9,12.4-17.8,24.9-27.7,36.6c-5.3,6.2-5.1,6.4-0.3,12.5
		c1.5,1.9,2.4,4.7,6.1,3.7c3.5-0.9,4.9-2.7,5.8-6.2c3.1-12.4,10.3-21.9,23-25.2c19.3-5,23.3-17.4,24.8-30.4
		c1.2-10,2.7-19.7,8.1-28.8l0,0c-4.6-0.8-7.2-3.6-9.1-7.3c-2.6-5.1-7.3-7.5-12.7-8.7c-2.8-0.6-4.3-0.2-4.1,3.3
		c0.4,9.2-1.6,18.3-6,26.4C389.2,477.2,388.9,478.5,388.9,479.8z"/>
	<path fill="#0088B4" d="M460.7,544c0.9,1.7,1.5,3.7,4,4c11.2,1.3,22.3,2.5,35.3,1.8c-19-15.7-26.9-35.9-31.3-57.9
		c-3-15-5.9-30-10.9-44.5c-1.8-5.1-5-4.5-8.7-3.5s-7.3,1.7-6.7,7c1.5,12.2,1.9,24.6,2.6,36.9C446.2,507.6,451,526.5,460.7,544z"/>
	<path fill="#584D7E" d="M159.3,396.6c-1.7,4.3-2.4,9.1-4.5,13.2c-3.2,6.3-2.2,10.9,3.8,15c0.7-2.3,1.2-4.4,2-6.4
		c4.1-10.1,13.6-12.3,21.7-5.1c4.2,3.8,7,9,7.8,14.7c2.4,13.7,0,27.2-1.5,40.8c-0.3,2.6,0,4.2,2.6,5.6c15.1,8.1,16.9,26.8,5.8,36.5
		c-0.6,0.6-2,1.3-0.9,2.3c5.1,4.6,10.4,9.2,15.6,13.7c0.4,0.3,1.3,0.1,2,0.1c31.7,0,63.2-4.7,93.4-14.2c2.4-0.8,3.3-2,3.2-4.6
		c-0.3-6-0.5-12-0.2-18c0.5-10.1,1.3-20.8,9.2-27.8c8.5-7.5,7.3-14.4,2.6-22.7c-1.2-2.2-1.9-3.9-5-3.7c-3.8,0.2-6.8-2.1-7.1-5.7
		c-0.7-7.9-6.1-11-12.2-14c-2.6-1.5-5.7-1.6-8.3-0.1c-12.9,6.3-26.7,10.5-40.9,12.5c-17.4,2.5-31.4-4.6-37.4-19
		c-1.1-2.6-1.9-5.3-2.9-8c-3.8-9.7-9.4-17.1-20.7-19.3C175,379.8,164,384.6,159.3,396.6z"/>
	<path fill="#0088B4" d="M440.6,451.9c-2.7,1.9-3.8,3.7-4.2,5.9c-1.2,6-3.5,11.8-6.6,17.2c-6,10.6-8,21.2-2.5,32.8
		c4,8.5,2.1,16.2-4.4,22.9c-2.8,2.9-5.5,5.9-8.8,9.4c15.7,1.5,30.2,5.3,45.7,7.2c-4.9-9.2-8.8-18.8-11.8-28.8
		c-4.6-15.8-5.1-32.1-6-48.4C441.7,464.1,441.1,458.2,440.6,451.9z"/>
	<path fill="#0088B4" d="M420.1,470.4c-2,6.7-3.4,13.5-4.1,20.5c-1.7,14.7-6.6,28-26.4,32.5c-0.8,0.2-1.6,0.5-2.4,0.8
		c-10.5,3.9-19.5,16.2-19.1,26.3l6.7-2.1c8.7-2.7,17.1-7,26.3-7.4c8.1-0.3,13.7-4,18.4-9.9c0.5-0.6,1.1-1.3,1.7-1.8
		c6.1-6,7.9-13.2,4.1-21c-5.8-12-3.7-23.2,2.6-34.2c2.9-4.8,4.9-10,6.1-15.5C427.2,460.4,422.3,463.5,420.1,470.4z"/>
	<path fill="#00B5DB" d="M210.4,602.4c-1.1,6.3-0.1,12,5.2,16.2c4.6,3.6,11.8,3.1,14-1.7c3.3-7.2,9.4-11.1,15.4-15.1
		c13-8.6,25.9-17.6,41-22.3c1.5-0.5,2.7-1,1.9-3.1c-2.5-6.5-2.5-13.2-0.5-21.4c-10.1,4-19.3,7.4-28.2,11.4
		c-10.4,4.6-20.6,9.8-30.9,14.7C219,585.5,212.2,591.9,210.4,602.4z"/>
	<path fill="#FEFFFF" d="M299.4,588c7.8,5.9,16.8,8.5,26,9c11.2-0.1,20.4-3.8,27.9-11.4c5.4-5.6,7.9-12.3,6.3-20.1
		c-5-24.6-34.9-37.1-57.5-25.2C284.1,549.8,283.2,575.8,299.4,588z M342.2,570.3c-3.6,5.6-11.5,6.2-17.4,1.3
		C330.7,573.7,336.5,573.9,342.2,570.3z M293.9,556.9c2.5,5.6,5.9,9.5,14,7.3c-4.2,3.2-6.6,3.4-9.7,1.5S293,561.2,293.9,556.9z"/>
	<path fill="#83C748" d="M212.3,561c-3.5,1-1.3,2.9-0.5,4.1c4.9,6.6,11.8,9.9,19.7,11.5c2.3,0,4.2-1.1,6.1-2
		c15-7.6,30.2-14.8,46.1-20.2c3-0.8,5.4-2.8,6.9-5.5c3.7-6.8,9.6-11.3,16.8-14.3c1.8-0.7,4-0.6,3.5-3.6s-2.8-1.8-4.3-1.8
		c-19.9-0.5-39.5,2-59,5.6c-12.2,2.2-23.3,7-32,16.1c-1.9,2-8,4.2-2.8,9C212.9,560,212.5,560.9,212.3,561z"/>
	<path fill="#322A58" d="M180.7,341.2c1.2-8.1-0.6-15.4-7.2-21.5c-6.5,9.6-14.6,17.9-23.9,24.8c2.4-0.4,4.8-0.7,7.2-1.1
		c5.2-0.9,10.2-0.8,15,1.9C176.5,348,179.9,346.6,180.7,341.2z"/>
	<path fill="#1E9AB0" d="M162.2,359.4c-1.7,3.3-3.9,6.3-6.4,9c18.4,10.8,39.5,12.4,59.5,20.8c-3.1-9.6-7.7-16.8-14.7-22.6
		c-6.7-5.5-13.6-10.6-19.6-17c-0.6-0.7-1.2-1.9-2.4-1.2C172.8,351.6,165.8,353.1,162.2,359.4z"/>
	<path fill="#76D1EA" d="M367.9,656c4.5,0.2,7.3-1.7,8.9-5.6c2.5-6.1,2.9-12.6,3.1-19.1c0-1.6-0.5-2.5-2.1-2.8
		c-7.7-1.7-14.3-6.2-21.6-9c-8.8-3.4-17.8-5.9-27.3-4.3c-5.6,0.9-12,1.3-15,7.3c-5.2,10.4-10.1,21-14.7,31.7
		c-3.6,8.3-5.3,17.2-5.2,26.2c-0.1,1.7-0.1,3.3,0,5c1.3,12.2,3.9,23.8,14.9,31.3c11.5,7.9,21.2,4.9,27-7.8
		c3.6-7.9,2.9-16.3,2.9-24.5C338.9,668.9,352.5,655.5,367.9,656z"/>
	<path fill="#37348C" d="M191.4,659.5c-6.1,20,6.9,30.8,19,35.3c6.5,2.3,13.4,2.9,20.2,1.6c11.8-1.9,22.8-6,33.5-11.2
		c7.4-3.5,15-6.8,23.3-6.3c3.9,0.2,4.8-1.1,4.8-4.7c0.2-3,0.7-5.9,1.4-8.8c2.8-13.3,9.5-25.1,15.1-37.3c0.7-1.5,2-2.9,1.6-5
		c-3,1.8-5.6,4-7.9,6.6c-4.6,5-9,10.3-13.6,15.3c-3.1,3.5-6.5,6.7-11.1,8.3c-4.2,1.6-8.9,0.7-12.1-2.5c-3.5-3.2-3-7.2-1.5-11.1
		c1.7-4.4,4.5-8.2,8.1-11.2c1.8-1.6,3.7-3.2,5.6-4.9c-6.4-4.3-6.4-4.3-10.5-13.1c-8.6,3-14.9,9-21.5,15c-6.5,6-10.9,5-15-2.7
		c-1-1.8-1.3-2.4-3.5-1.4c-8.1,3.6-15.7,0-18.6-8.4c-3-8.4,0.6-20.3,8.3-27.2c3.3-3,7.1-5,11.4-7.4l0,0c-8.1-2.9-15.3-6.2-19.3-13.5
		c-1.5-2.7-2.8-3-5.4-2.4c-12.2,2.9-23.6,8.7-33,17c-8.8,7.7-16.2,16.2-19.2,27.9c-1.5,5.7-4,11-7.4,15.7c-1.7,2.5-0.9,3.2,1.5,4.1
		c5.6,2.1,11.1,1.6,16.7,0.3c5.9-1.5,11.9-2,17.9-1.5c12.2,0.9,18.7,10.6,14.9,22.1C194,651.9,192.6,655.7,191.4,659.5z
		 M200.5,654.1c2.2-7.8,12.2-14.1,23-14.1c3.4,0.3,7.8,0.7,9.8,5.2c2,4.7,0.2,9.1-3.3,12.2c-4.5,3.9-9.4,7.5-14.5,10.6
		c-4,2.5-8.1,1.1-11.5-1.7C200.2,663.1,199.1,658.9,200.5,654.1z"/>
	<path fill="#79CDD5" d="M206.2,665.2c3.2,2.2,6.5,2.5,9.7,0.1c3.8-2.7,7.5-5.4,11.3-8.2c2.6-1.9,4.3-4.9,4.7-8.1
		c0.1-3.1-1.1-4.6-3-5.6c-8.5-4.7-24.9,2.8-26.7,12.3C201.3,659.5,203,663.3,206.2,665.2z"/>
	<path fill="#00798C" d="M301,233.9c-1.6-19.4-10.7-35-24.6-48.2c-1.2-1.2-2.3-1.5-3.9-0.6c-15.6,8.5-32.4,13.7-49.3,18.6
		c-1.7,0.5-3,1-3.5,3c-1,3.6-2.2,7.2-3.4,11.4c8.1-0.8,15.1-2.7,20.5-8.6c3.2-3.4,6.6-6.6,10-9.8c0.9-0.9,1.7-1.9,3.1-0.2
		c8.8,10.8,18.1,21.1,29,29.9c0.9,0.8,1.5,1.8,1.8,3c3.5,16.7,11.2,31.9,17.5,47.5c2.7,6.8,6.5,13.1,11.2,18.7
		c0.8-1.3-0.1-2.1-0.4-3c-3.6-9.3-6-19-7.3-28.9C300.1,255.8,301.9,244.8,301,233.9z"/>
	<path fill="#1E9AB0" d="M235.9,386.4c17.6,11.1,37,17.8,56.2,25.1c1.6,0.6,3.4-1.8,4.4,0.5c1.5,3.4,5.1,3.6,8.4,5.8
		c-3.1-10.3-9-17-17.7-21.9c-12.5-7.1-25.1-14.4-32.4-27.4c-3.2-5.8-7.6-8.8-12.9-11.4c-1.3-0.7-2.7-1.3-4.1-1.8
		c-12.6-4.6-22.3-12.8-30.3-23.5c-7.5-10-15.7-19.5-24.5-28.3c-1.1-1.1-1.9-2.7-3.9-3c-0.1,0.7-0.1,1.3,0,2
		C186.7,338,204.5,366.6,235.9,386.4z"/>
	<path fill="#57E3DC" d="M261.6,351c3.8,3.7,8,7,12.1,10.4c15.9,13.2,34.8,21.4,52.3,32.1c7.9,4.9,16.2,9.3,24.8,12.9
		c12.7,5.3,26.1,8.6,39.7,9.8c-4.4-7.5-10.2-12.3-16.7-16.4c-6-3.8-12.9-5.5-18.9-9.1c-31.5-19.5-62.3-39.9-86.2-68.9
		c-6.5-7.6-11.6-16.3-15.2-25.6c-0.5-1.3-0.4-3-2-3.8C241.3,313.3,245,335,261.6,351z"/>
	<path fill="#322A58" d="M252,262.6c-6.6-3.1-13.4-5.4-20.7-4.2c-14.1,2.1-27.1,8.6-37.3,18.7c-6,5.9-9,13-9.9,21.3
		c-0.3,1.8,0.3,3.6,1.6,4.8c9.6,10,18.6,20.5,27,31.5c4.2,5.4,9.1,10.3,15.2,13.5c7.1,3.8,14.5,7.1,22.2,10.8c0-2.7-0.2-4.9,0-7
		s0.7-4.3,1.3-6.3c0.5-1.2,0.3-2.6-0.4-3.7c-10-16.8-8.7-33.9-1.2-51.2c0.6-1.4,1.2-2.6,0.8-4.3c-1.6-6.7-0.6-13.8,2.7-19.8
		C254.4,264.4,253.8,263.4,252,262.6z"/>
	<path fill="#201D38" d="M213.9,224.8c-4.3,10.6-9.7,20.8-16.1,30.4c-7,10.6-16,12.6-27.1,6.4c-2.9-1.6-5.5-3.7-8.6-5.9
		c-2.2,6.3-4.4,12.4-6.6,18.4c-0.7,2,0,3,1.5,4.1c8.7,6.2,16.9,13,24.6,20.4l0,0c3.4-15.8,7.5-22.5,19.7-30.5
		c16.2-10.6,33.2-17.3,52.4-7.1c2.2,1.2,2.9-0.2,3.8-1.5c6.1-8.4,13.8-15.6,18.3-25.3c1-2.2,0.9-3-0.6-4.5
		c-8.4-8.6-16.7-17.2-24.9-25.9c-2-2.2-3.4-2.1-5.2-0.1c-1.5,1.6-3.2,2.9-4.5,4.6c-5.3,6.9-12.5,10.4-20.9,11.5
		C216.3,220.3,215.1,221.9,213.9,224.8z"/>
	<path fill="#00BC95" d="M583.4,554.5c-0.8-2.3-2.1-3-4.1-3.5c-9-2.3-17.8-5.5-26.2-9.6c-37.3-18.4-62.4-48.1-78.8-85.6
		c-3.2-7.2-8.4-9.4-15.7-11.9v0.1c6.5,16.7,9.2,33.1,12.5,49.4c4.2,20.5,11.8,39.2,28.1,53.3c2.5,2.2,4.9,3.4,8.4,3.3
		c7.7-0.2,15.3-0.2,23,0.1c10.4,0.5,17.7,6.8,19.3,16.8c0.4,2.4,1.7,2.6,3.3,2.9c15.1,3,29.3,9.1,41.9,18c1.2,0.9,2.7,1.3,4.2,1
		c6.4-1.1,12.9-1.8,19.2-3.1c7.9-1.6,10-7.8,4.9-14.1c-3.4-4.2-8-7-12.4-10c-2-1.3-3.4-1.4-5.6,0c-6.7,4.5-15.8,2.7-20.3-4.1
		C584.3,556.6,583.8,555.6,583.4,554.5z"/>
	<path fill="#725755" d="M627.3,781.9c2.1-5.5,4.6-10.8,7.5-15.9c3.3-6.6,5.4-13.6,6.4-20.9c0.2-1.5,0.9-3.1-1.1-3.8
		c-3.7-1.3-5.8-4.2-7.1-9.2c-4.2,8.9-7.7,16.4-11.3,23.9c-1,1.8-1.2,3.9-0.4,5.8C624.3,767.8,625.9,774.3,627.3,781.9z"/>
	<path fill="#1F1D37" d="M45.9,652.5c-1.9,2.9-1.3,4.3,1.8,6c24.4,13.6,45.1,33.1,59.9,56.8c12.2,19,23.1,38.9,32.5,59.5
		c13.9,30.9,27,62.2,40.5,93.4c0.7,1.7,1.1,3.5,2.8,4.7c11.9,8.3,21.5,19.1,30.2,30.8c2.6-1.8,4-4.3,5.8-6.5
		c5.4-6.5,7.6-14.9,12.3-21.6c3.1-4.5,4.5-7.8,1.4-12.8c-1.3-2-2.2-2.7-4.4-2.8c-6.5-0.3-11.8,2.5-17,6c-14.8,10-32.5,1.4-33.3-16.4
		c-0.5-11.1-4.6-20.6-11-28.9c-8.2-10.6-15.4-21.3-17.3-34.8c-0.2-0.8-0.6-1.6-1-2.2c-3.7-7.2-4.5-14.7-3.2-22.8
		c1.5-9.5,5.2-19,1.5-28.9c-0.5-1.6-0.4-3.4,0.3-4.9c1.7-3.8,0.9-7.4,0-11.1c-1.6-5.9-3.9-11.7-7-17c-5-9-10.1-18-13.3-27.9
		c-0.7-2.1-2-2.7-3.9-3.2c-7.6-1.9-14.7-5.7-20.5-11c-7.9-7.3-11.5-15.7-6.7-26.4c2.1-4.6,2.6-9.7,1.6-14.7
		c-2.8-14.3-13-23-28.1-24.8c-10.1-1.3-20.4,0.5-30.3-2.1c-3.3-0.8-4.5,0.2-5.6,2.8c-4.5,10.4-9.8,20.4-15.7,30.1
		c-5.2,8.5-8.4,18.1-11.7,27.5c-0.5,1.3-1.6,3.1-0.2,4.2c1.7,1.3,3.1-0.5,4.3-1.5c5.9-4.5,10.5-10.4,13.4-17.1
		c4.9-10.5,14.1-18,19.4-28.3c0.7-1.4,2.3-2.4,3.6-3.4c6-4.3,9.9-2.8,11.5,4.4c2.5,11.8-0.1,22.8-5.6,33.2
		C50.6,644.8,48.3,648.7,45.9,652.5z"/>
	<path fill="#725755" d="M596.5,819.9c-13.7-0.6-24-8-32.3-18.8c8.3,20.8,11.4,40.6-9.1,56.8c4.4-1.8,8.5-3.3,12.6-4.9
		c11.6-4.5,23.5-8.2,35.4-12.1c18.4-6.1,26.3-28.6,22-43.3C619.6,810.1,612,820.5,596.5,819.9z"/>
	<path fill="#EBBE7A" d="M602.7,727.9c-1.7-7.9-5.5-14.9-8.6-22.3c-1.1-2.5-2.7-4.9-5.8-4.6c-3,0.3-5,2.4-6.3,5.1
		c-0.8,1.9-1.1,3.9-1,6l0,0c1.1,9.3,2,19,8.4,26.2c6.9,7.6,11.5,15.7,12.2,26c0.3,4.2,2.4,7.3,7.1,7.5c4,0.2,8.6-2.8,9-7.1
		c0.6-5.4,2-11.1-2-16.2c-2.9-3.7-4.6-8.3-7.7-11.6C605.3,734.5,603.5,731.4,602.7,727.9z"/>
	<path fill="#7980D6" d="M493.1,723.5c-9.1-4.4-17-10.5-24.4-17.2c-6.8-6.4-14.8-11.5-23.5-14.9c-11.5-4.3-22.5-4.4-33.8,1.3
		c-9.5,4.9-18.2,11-26.1,18.3c-14.7,13.4-31.6,16-50.2,10c-2.6-0.8-4.8-1.3-7.5,0.3c-3.4,2.1-7.3,2.1-11.1,1
		c-8.2-2.2-15-7.8-18.8-15.3c-3.6-7-5.5-14.7-5.7-22.6c-0.1-2.8-1-3.7-3.8-3.7c-7,0.1-13.9,1.7-20.2,4.9c-7.9,3.9-16.1,7.2-24.5,9.9
		c-9.7,2.9-19.4,4.5-29.5,2.5c-18.8-3.8-29.2-19.4-25-38c1-4.2,2.6-8.2,4-12.3c3.6-10.6-2.2-19.1-13.4-19.8
		c-5.7-0.4-11.3,0.2-16.8,1.5c-6.1,1.5-12.2,2-18.1-0.6c-2.7-1.2-4.4-0.9-6.5,1.2c-4.2,4.2-9.1,6.9-16.2,5.5c1.1,2.3,1.7,4,2.6,5.6
		c4.4,7.7,6.7,8.3,14.1,3.5c5.9-3.8,10.3-3.7,16.1,0.5c9.9,7.2,11.3,17.5,9.9,28.6c-1.3,10.4-3,20.8-4.5,31.1
		c-0.3,2.2-1.1,4.3,2.5,5.5c3.4,1.2,5,5,4.3,8.8s-0.6,7.6-1,11.4c-0.9,8.2-5.2,11.9-12.8,10.8c-2.3-0.3-2,0.8-2.2,2
		c-1.2,7-2.6,14.1-3.6,21.2c-0.7,5.3,0.2,10.7,2.4,15.6c4.6,10.6,14.8,11.8,21.8,2.6c1.6-2.1,2.8-4.6,3.5-7.2
		c1.9-6.7,2.9-13.7,3.1-20.7c0.3-11.7,2.8-23.2,7.3-34c4.6-10.7,15.7-14.8,26.7-10.4c11,4.5,15.1,13.8,11.4,25
		c-0.5,1.3-0.8,2.6-1,3.9c-1,7.5,4.6,15.1,11.5,15.6c8.1,0.6,13.9-4.8,14-13.2c0.1-4.3,0-8.7,1.1-12.9c1.8-7,4.9-8.5,11.3-5.2
		c9.4,4.9,15.1,12.8,17.7,23c2.9,11.7,0.6,23.1-1.5,34.6c-1.1,6-2.9,12-1.6,18.3c0.8,3.8,2.9,6.9,6.8,7.9c3.5,0.9,6-1.3,8.2-3.7
		c5.8-6.2,8-13.6,7.4-22c-0.5-6.5-1.8-12.9-1.5-19.4c1-22.4,22.5-38,43.5-31.4c15.2,4.7,25,22.3,22.3,40.2c-1.2,8.2-3,16.4-4.1,24.6
		c-1.4,10.1-2.2,20.3,1.5,30.1c3.6,9.6,10.7,15.8,21.1,16.8c10,0.9,16.5-5.2,21.3-13.1c2.6-4.2,3.3-9,3.5-13.9
		c0.6-11.7-2.3-22.8-5.5-33.9c-1.9-6.6-3.4-13.2-2.6-20.2c1.5-13,10-22.9,21.3-24.5c9.1-1.3,14,2.6,14.8,11.7
		c0.3,3.3,0.6,6.6,1.2,9.9c0.7,4,2.9,6.9,7.2,6.9c4.1,0.1,7-1.9,8.3-5.9c0.5-1.7,0.8-3.6,1.3-5.3c2.1-7.8,7.2-11.3,15.2-10.6
		c7.8,0.7,13.2,5.8,13.9,13.2c0.4,5.2-0.2,10.3-1.7,15.3c-0.8,2.8-1.6,5.7-0.9,8.8c2.5,11.4,14.1,15.9,25.8,10
		c3.6-1.8,4.3-3.3,2.1-7.2c-10.1-17.3-14-35.8-9.8-55.7C496.1,725.8,495.5,724.6,493.1,723.5z"/>
	<path fill="#725755" d="M620.7,753c3.1-6.6,5.6-13.3,9.3-19.3c4.9-8,2.2-15-1.6-21.9c-3-5.7-9.4-8.1-14.3-6.4
		c-8.3,2.9-13.8,16.9-8.7,24C610.9,737,615.4,745.1,620.7,753L620.7,753z"/>
	<path fill="#725755" d="M417.6,837.6c3.6,0.5,7.3,0.4,11-0.1c12.1-2.2,24.3-4.2,36.3-6.7c9.2-1.9,18.8-2.8,27.5-6.8
		c12.8-6,19.3-19.8,15.2-32.4c-1.2,0.7-2.1,1.1-3,1.5c-7.6,3.6-15.4,5-22.6-0.7s-8.2-13.2-5.2-21.7c1.2-3.8,1.7-7.8,1.4-11.8
		c-0.3-7.4-4.6-12-12-12.8c-7.2-0.7-11.2,2.3-13.2,9.9c-0.2,1-0.5,1.9-0.8,2.9c-1.7,6.1-5.5,9.3-10.9,9c-5.3-0.3-8.4-3.5-9.3-9.9
		c-0.4-3-0.7-6-1-8.9c-0.8-7.8-4.6-10.8-12.4-9.8s-12.9,5.6-16.4,12.4c-4.9,9.6-3.8,19.3-0.8,29.2c3.6,11.8,6.4,23.8,5.7,36.3
		c-0.8,13.4-9.8,25-21.5,27.5c-10.7,2.3-22.2-4.6-28.2-16.9c-0.2-0.4-0.1-1.4-1.2-0.9c0,8.8-0.1,17.6,0,26.5
		c0.1,2.7,0.4,5.3,0.9,7.9c1.1,5.9,2.3,11.9,3.5,17.8c1.4,7,5,11,10.9,13.6c5.5,2.4,11.5,3.5,17.5,3.3c3.4,0,4.5-1.4,5.2-4.5
		c1.8-8.8,0.2-17.2-1.6-25.7C389,848.5,400.1,836,417.6,837.6z"/>
	<path fill="#725755" d="M543.1,748.8c-1.6-0.4-3.5-1.5-4.7-0.3s0.3,3.1,0.9,4.5c5.5,13.6,15.5,24.8,21.3,38.3
		c-0.5-6.8-1-13.6-1.7-20.4C557.9,759.9,551.6,751.2,543.1,748.8z"/>
	<path fill="#868DE2" d="M652.1,622.5c-0.1-1.1-0.2-2.7-0.9-3.2c-6.3-5.2-7.2-12.9-9.2-20c-1.4-4.8-2.8-9.7-6.3-14.1
		c-5.1,8.9-7.6,17.6-5.9,27.3c1.3,6.4,2.9,12.6,4.8,18.8c2.3,8,3.3,15.9,1.4,24.2c-2.3,10.2-7.9,17-18.7,18.9
		c-4.9,0.8-9.9,1.8-14.9,1.5c-4.6-0.3-7.2,0.6-7.8,6c-0.6,5.1-3.5,9.6-7.2,13.4c-6.4,6.6-14.5,11.4-23.4,13.8
		c-6.9,2-13.7,4.2-19.6,8.5c-8.3,5.9-11.8,16.5-8.4,26.2c0.6,1.8,1.6,2.2,3.3,2.3c10.2,0.8,16.1,7.1,19.6,16.1
		c2.5,6.5,2.5,13.4,2.9,20.2c1,17.5,12,30.7,29.1,34.7c5.7,1.4,11.2,1.2,16.6-1.4c16.1-7.8,22.9-34.9,12.4-49.8
		c-0.8,1.4-1.7,2.8-2.7,4.2c-2.5,3.3-6.7,4.8-10.7,3.8c-4-0.9-6.2-3.7-6.8-7.7c-0.3-1.8-0.5-3.6-0.8-5.4c-0.9-5.8-2.4-11.6-6.9-15.7
		c-7.5-7-10.5-16-12.3-25.6c-0.8-4.5-1.4-8.9,0.1-13.3c1.4-3.9,4.2-6.5,8.4-6.9c3.9-0.5,6.1,2.3,7.6,5.4c2,4.1,3.7,8.4,6,13.6
		c0.8-2.3,1.1-3.4,1.5-4.4c2.8-5.9,6.7-10.6,13.8-10.8s11.4,4.1,14.3,9.9c1.2,2.5,2.1,5.2,2.6,8c0.7,3.7,1,7.6,1.5,11.4
		c0.5,4.1,2.8,6.7,6.9,7.5c3.8,0.7,6.4-1.4,8.3-4.4c3.4-5.4,4.7-11.9,3.7-18.2c-1.5-9.6-1.7-19.3-0.7-28.9
		C656.1,666.3,654.6,644.4,652.1,622.5z"/>
	<path fill="#36327E" d="M609,909.9c6.6-16.3,13.7-32.5,22.4-47.9c23.1-40.8,48.4-79.8,89.6-105.2c1.6-1,1.4-1.8,0.4-3.1
		c-2.5-3.1-5.1-6-7.9-8.8C699.9,730,682.8,722.8,663,721c-4.5-0.4-6.4,0.7-6.9,5.5c-0.8,6.8-3.2,13-10.7,15.4
		c-2.2,0.7-1.8,2.6-2,4.1c-1.3,8.9-4.3,17.5-8.8,25.3c-4.8,7.9-7,17.1-6.4,26.3c0.3,3.8,0.4,7.7,0.1,11.5c-1.8,15.9-9,28-24.7,33.9
		c-5.3,2-10.8,3.3-16.1,5.2c-7.2,2.5-14.3,5.3-22.4,8.3c16.2,6.4,25.5,17.8,31.1,32.6c3.2,8.7,6.8,17.3,10.5,26.8
		C607.6,913.3,608.3,911.6,609,909.9z"/>
	<path fill="#060D17" d="M756.4,479.4c-0.5-1-1.1-2-1.8-3c-7.3-10.8-16.5-20.2-27-27.8c-6.8-4.9-11.7-2.3-12.4,6.1
		c-0.6,6.7,2,12.6,6,17.5c7.8,9.7,13.3,20.6,18.3,32c6.9,15.7,17,29.2,28.6,41.7v-60C761.9,487.8,758.9,484,756.4,479.4z"/>
	<path fill="#060D17" d="M765,248.8c-6.2-8-12.4-16-18.6-24.1c-3.9-5-7.3-4.7-10,1c-2,4.4-1.9,9.1-0.7,13.7
		c7.1,27.1,11,55.1,22.3,81.1c1.1,2.8,2,5.6,2.7,8.6c1.2,4.8,2.5,9.7,1.9,14.8c-0.2,1.8,0.1,4.5-2.4,5c-2,0.4-3.1-1.6-4.2-3.1
		c-4.6-6.3-8-13.4-12-20.1c-4.7-7.9-8.6-16.2-14.4-23.4c-3.6-4.4-7.5-4-10.3,0.8c-1.2,2.2-1.6,4.8-1,7.3c2,9.7,5.1,19,10.8,27.2
		c4.9,7.3,9.2,15.1,12.7,23.2c6,13.4,12.1,26.7,18.9,39.6c1.8,3.4,2,6.8-0.9,9s-5-0.9-7.2-2.6c-6.9-5.5-13.6-11.2-20.6-16.6
		c-3.1-2.4-6.7-3.1-10.2-0.6s-3.2,5.9-2.1,9.5c1,3.3,2.5,6.5,4.3,9.5c14,24,28.1,47.9,42.3,71.8c0.5,0.6,1,1.2,1.7,1.7V252
		C766.4,251.5,765.9,250,765,248.8z"/>
	<path fill="#2A896E" d="M537.3,970.8c2.5-2.8,3.5-6.3,4.7-9.8c4.5-13.3,10.7-25.7,21.9-34.5c11.9-9.4,24.9-15.6,41.5-7.5
		c-4.4-11-8.4-21.1-12.4-31.3c-5.3-13.7-14.5-23.6-28.3-29.2c-1.7-0.9-3.7-0.8-5.4,0.1c-8.2,4-13.3,10.8-17.2,18.8
		c-4.1,8.4-7.7,17-12.7,24.9c-3.7,5.8-7.6,11.7-14.1,14.4c-4.9,2.1-6.5,5.5-7.5,10.1c-0.9,4.2-1.1,8.6-0.7,12.9c0,2,0.9,3.9,2.5,5.2
		c9.3,7.1,17.2,15.8,23.2,25.8C534.7,973.5,535.8,972.5,537.3,970.8z"/>
	<path fill="#00798C" d="M532.2,0H528c-3,10-8.4,18.8-15.1,26.7c-14.4,16.9-26.9,35.6-43.5,50.7c-1.6,1.4-2.9,3.2-4.3,4.8
		c-1.2,1.2-1.5,2.4-0.4,3.9c9.1,12,20.2,20.5,36.2,20.2c-3.3-2.2-6.8-3.8-10.2-5.8c-9.6-5.3-11.4-14.3-4.8-23
		c2.1-2.9,4.9-5.1,8.1-6.5c9.3-3.9,16.2-10.7,21.7-18.6c10.8-15.4,20.4-31.5,17.5-51.5C532.7,0.7,532.4,0.4,532.2,0z"/>
	<path fill="#1A7B6B" d="M768.1,247.8v-44.5c0,0,0,0-0.1,0s-0.2-0.1-0.2-0.2c-1.7,1.8-3.4,3.6-5.2,5.3c-6.6,6.2-12.1,5.7-17.5-1.6
		c-0.7-0.9-1.3-1.9-2-2.9c-16.9-22.7-20.6-49.7-25-76.5c-0.8-5.1-1.2-10.2-2-16.7c-2.9,9.1-5,16.8-7.9,24.2
		c-3.4,8.6-10.3,12.4-18.7,10.3c-3.8-1-4.9,0.5-6.1,3.5c-6.5,15.4-14.5,30-25.1,43c-6.9,8.5-15,15.6-24.9,20.5
		c-7.2,3.7-15.5,4.5-23.3,2.3c-1.2-0.3-2.4-1.2-3.9-0.4c2.6,9.7,7.6,18.4,11,27.8c7.8,21.7,21.8,38.7,40.5,51.9
		c2.6,1.9,4.3,2,6.8-0.3c7.9-7.2,15-15.1,21.5-23.7c2.3-3,4.6-5.5,8.7-3.5c4.1,2.1,5.2,5.4,4,9.7c-1,3.6-3.1,6.6-5.2,9.6
		c-5,6.9-10.5,13.5-16.5,19.6c1.2,0.6,2.1,1,3,1.4c11,4.2,22.3,2.9,33.6,1.7c2.7-0.3,2.3-2.3,2.8-4c2.3-7.5,7.8-9.5,13.8-5
		c1.1,0.8,1.6,1.1,3,0.4c9.6-5,12.4-10.8,9.9-21.2c-3.1-13.1-6.4-26.2-9.5-39.3c-1.2-4.4-1.1-9,0.3-13.3c1.2-3.4,3-6.6,6.9-7.3
		c3.9-0.6,5.8,2.5,7.9,5.1c6.3,8.1,12.6,16.2,19,24.3C767.8,247.9,767.9,247.8,768.1,247.8z"/>
	<path fill="#181330" d="M768.1,54.1V0H535.4c-0.1,0.1-0.1,0.2-0.2,0.3c1.7,8.4,3.5,16.7,9.4,23.2c14.4,16,30.2,30.2,49.7,39.6
		c17.4,8.2,36.1,13.5,55.2,15.5c8.6,1,17.3,2.8,26,3c31.7,0.8,60.7-8.2,87.8-24.4c1.3-0.8,2.5-2.1,4.2-2.3
		C767.6,54.6,767.8,54.3,768.1,54.1z"/>
	<path fill="#003845" d="M767.1,199.8c0-0.2,0-0.3,0.1-0.5c0.1-0.3,0.3-0.6,0.5-0.8c0.1-0.1,0.3-0.2,0.4-0.3c0,0,0,0,0.1,0V57.3
		c-0.1-0.1-0.3-0.2-0.4-0.3c-32.3,19.8-67,30.1-105.2,25.8c-3.6-0.4-4,0.8-3.4,4c1.8,9.6,5.7,18.5,7.7,28.1c1.9,9,5.2,17.2,13,23.8
		c9.4,8,22.1,6.5,26.7-4.8c3.8-9.3,6-19,8.6-28.7c0.6-2.4-0.9-5.1,1.6-7.8c0.6,2.1,1.3,3.7,1.3,5.2c0.7,19,4.5,37.6,8,56.3
		c3.3,17.1,10.8,32.1,20.4,46.2c4.9,7.2,9.3,7.5,15.4,1.2c1.9-1.9,3.6-4.1,5.3-6.3C767.1,199.9,767.1,199.9,767.1,199.8z"/>
	<path fill="#211E38" d="M759.6,346.7c2.2-9-0.1-17.5-14.3-54c-3.7,3.1-7.3,6.2-11.1,9.1c-1.7,1.4-0.5,2.2,0.2,3.3
		c6.2,10.8,12.4,21.6,18.7,32.3C754.9,340.5,756.5,343.8,759.6,346.7z"/>
	<path fill="#1C1932" d="M492.3,908.6c-1.4-6.6-2.7-13.2-4.5-19.7c-0.2-0.2-0.3-0.5-0.3-0.8c-0.2-1.3-0.6-2.5-1-3.7
		c-3.7,2.4-7.3,5.1-10.6,8.1c-2.4,2.2-3.5,4.3-3.2,7.8c0.8,7.3,0.7,14.7-0.4,21.9c-1.3,7.9-1.2,7.9,7,8.9c0.5,0.1,1,0.2,1.5,0.2
		c8.8,0.8,16.4,4.9,24.5,9.9c-0.8-7.8,0.4-14.5,2.2-21.1C497.2,919.8,494.2,917.6,492.3,908.6z"/>
	<path fill="#725755" d="M544.2,863.2c-11.7,3.7-23.4,7.3-35.1,10.9c-7.3,2.2-14.2,5.2-20.7,9.1c0.1,0.1,0.1,0.2,0.2,0.3
		c0.3,0.7,0.5,1.4,0.7,2.1c0.2,0.8,0.4,1.6,0.5,2.5c0,0.1,0,0.3-0.1,0.4c0.1,0.5,0.2,0.9,0.3,1.4c1.6,6.8,3,13.6,4.8,20.4
		c1.7,6.4,5.6,8.6,12,7.3c6.1-1.2,11.6-4.5,15.5-9.3c5.7-6.8,9.6-14.8,13.4-22.7c4.4-9,8.1-18.3,15.5-25.6
		C549,861.2,546.6,862.3,544.2,863.2z"/>
	<path fill="#C778A9" d="M461.2,963c3.4,11.9,7.6,23.5,14.5,35c3.4-9.8,11.5-14.4,18-20.5c7.8-7.4,16.1-9.1,26.1-5.7
		c3.8,1.2,7.7,2.8,12.6,1.9c-7.2-11.6-15.6-21.2-26.2-28.9c-8.7-6.2-17.8-10.9-28.7-11.6c-7.4-0.5-7.5-0.5-7.4,6.8
		c0,4-0.4,7.7-4.8,9.4c-6.7,2.6-6.7,2.6-5,9.7C460.5,960.4,460.8,961.7,461.2,963z"/>
	<path fill="#725755" d="M470.5,899.6c-0.8,0.2-1.1,0.1-1.3,0.3c-0.4,0.3-0.7,0.7-1,1.1c-9.9,13.5-11.8,28.6-9,44.6
		c0.5,2.6,2.2,2.6,4.1,2.2c3.3-0.7,4.7-3,4.6-6.2c-0.2-4.3,0.1-8.7,1-12.9C471.3,919.1,471.4,909.4,470.5,899.6z"/>
	<path fill="#00798C" d="M438.4,52.4c-11.1,26.4-24.6,51.4-44.2,72.5c-15,16.2-30.9,31.4-53.3,37.2c-1.6,0.4-2.5,1.6-3.4,2.8
		c-8.8,10.5-18.2,20.4-28.2,29.7c-1.9,1.8-4.8,3.4-5.5,5.6c-0.9,2.5,2.5,4.2,3.7,6.4c3.1,6,3.2,12.5,4,18.9
		c3.3,28.8,16.1,53.5,34.5,75.5c3.9-5.2,9.5-7.8,16.1-8.1c8.8-0.3,17.7,0.2,26.4,1.5c12.1,1.8,23.1,7.3,35,10c4.7,1,9.4,2.4,14,3.6
		c-0.7-1.6-1.9-3.1-3.3-4.1c-13.6-11.2-28.4-21-44.1-29.1c-2.2-1.1-3.8-3.2-6.6-3.2c-14.5,0.2-28.3-3.2-42.2-6.7
		c-13.5-3.3-18.6-13.8-10.8-25.4c3.4-5.1,4.4-9.5,3.9-15.4c-1.3-16.4,5.7-30,15.4-42.6c7.9-10.3,18.1-18.1,28-26.3
		c21-17.5,38.3-37.8,49.8-62.8c3.3-7.2,6.8-14.7,11.6-20.9c6.1-8,3.3-15.8,2.1-24.2C439.2,48.9,439.1,50.8,438.4,52.4z"/>
	<path fill="#005B63" d="M584.8,205.7c-0.4,0-0.6-0.1-0.7-0.1c-1.4,0.6-2.7,1.3-4.1,1.9c-19.1,8.4-37.5,7.8-54.8-4.8
		c-13.8-10.1-24.4-24-30.3-40.1c-4.3-11.5-8-23.3-12-34.9c-0.6-1.7-0.8-3.3-3.2-3.8c-11.3-2.4-23-2.4-34.2,0.2
		c-8,1.8-15.2,5.8-22.3,9.8c-2.3,1.3-3.3,2.7-3.2,5.5c0.5,9,2.4,17.8,5.5,26.3c0.4,1.5,1.4,2.7,2.8,3.3c2.1,0.9,5.2,1.3,5,4
		s-3.5,2.5-5.6,3.2c-0.6,0.3-1.1,0.6-1.6,0.9c2.3-0.1,2.6,1.9,3.4,3.4c2.1,4.5,4.7,8.8,7.8,12.7c4.2,5.1,9.6,6.9,16.1,5.3
		c10.4-2.5,15.8-9.8,18.5-19.6c0.5-1.7,0.8-3.3,2.4-4.7c0.1,3.6,0.1,7.1,0.5,10.6c0.5,4.4,2.1,8.6,2.2,12.8c0.3,9,4.1,15.9,10.1,22
		c1.2,1.2,2,1.2,3.2-0.1c3.6-3.8,7.3-7.3,8.4-12.7c0.4-1.8,1.2-3.5,2.2-5c0.8-1.3,1.9-3.2,3.8-2.6c1.6,0.6,1.4,2.5,1.3,4
		c-0.2,3.5-0.5,7.1-0.9,11.6c3.9-4.7,5-10,8.6-13.8c0.5,0.6,1,0.9,1.1,1.3c0.2,2.8,0.2,5.6,0.3,8.5c0.5,24.9,4.9,48.9,14.8,71.8
		c1.2,2.8,2.9,5.3,5,7.4c2.3,2.3,4.3,2.4,6.8,0.1c10.3-9.6,19-19.9,21.5-34.4c1.6-9.2,2.9-18.4,2.7-27.8c0-1.6-0.7-3.5,1.6-5.7
		c1.3,12.7-0.4,24.2-2.2,35.8C575.1,241.8,584.7,225.5,584.8,205.7z"/>
	<path fill="#00636B" d="M263.7,115c6.2,4.3,9.8,4,14.6-1.8c8.1-9.8,12-21.6,15.1-35.2c-13.1,9.8-26.4,15.6-41.3,17.3
		c-2.8,0.3-2.1,1.9-1.3,3.5C253.8,105.2,257.8,110.9,263.7,115z"/>
	<path fill="#9C8B70" d="M138.8,137.2c-3.2,1.3-3.3,3.2-2.8,6.2c1.6,10.5,3.1,21.1,4.1,31.7c1.7,17.9,4.2,35.7,10.1,52.8
		c3.3,9.8,6.9,19.7,14.8,26.8c14.9,13.3,25.6,10,33.3-4.3c5.4-10,11.3-19.7,14.6-31c2.8-9.5,6.8-18.9,9-28.7
		c8.3-36.4,13.9-73.2,17.9-110.3c2.5-23.4,4.5-46.8,6.7-70.1c-3.9,2.9-8.8,4.4-9.3,10c-0.6,7.3-1.6,14.6-2.2,21.9
		c-1.7,20.4-1.9,40.9-5.7,61.2c-4.5,24.7-8.1,49.5-14.1,74C211,194.9,206,212.1,200,229c-2.8,7.8-7.5,13.7-16,15.6
		c-6.8,1.6-13.8-1.3-17.5-7.1c-4.7-7.1-5.9-15.5-7.9-23.5c-4.6-19.2-9.9-38.4-11.3-58.2c-0.5-7.6-1.3-15.2-2-23.3
		C142.8,134.4,141,136.3,138.8,137.2z"/>
	<path fill="#139B7F" d="M244.6,95.9c-5.8-0.6-4.9,3.7-5.3,6.7c-4.1,33.3-10,66.4-17.7,99.1c19.1-3.6,48.5-15.8,63.5-26.4
		c7-4.8,13-11.1,17.5-18.3c11.3-18.6,6.3-40.4-12.1-52.4c-2.1-1.4-3.2-1.5-4.4,1c-1.8,3.8-4.2,7.2-7.1,10.2
		c-4.9,4.9-8.8,5.6-14.7,1.9c-7.2-4.4-12-10.9-15.3-18.6C247.9,97.2,247.1,96.1,244.6,95.9z"/>
	<path fill="#121128" d="M588.3,62.6c-20.4-12.6-39.1-27-52.6-48.2c-0.6,2.3-1,4.2-1.7,6.1c-7.3,22.5-18.1,42.2-40.5,53.2
		c-2.5,1.3-4.7,3.2-6.3,5.5c-4.2,6-4.7,12.9,0.2,16.3c8.6,6,17.3,12.8,28.9,11.3c8.3-1,16.6-0.4,25-0.8c5.4-0.2,10.3,1,13.9,5.3
		c0.7,0.9,1.7,1.5,2.8,1.7c15.7,2.2,31.7,0.8,46.9-4c1.5-0.5,2.5-0.9,1.2-2.7C598,95.2,595.6,82,592.9,69
		C592.4,66.3,590.7,63.9,588.3,62.6z"/>
	<path fill="#6BBA51" d="M630.4,211.5c10.7-4.7,19.1-12.1,26.3-21c10.7-13.2,18.6-28,25.3-43.4c1.1-2.5,0.8-3.9-1.7-5
		c-3.1-1.4-2.8,1.5-3.4,2.7c-5.8,12.5-12.1,24.9-19.9,36.3c-4.8,7-10,13.7-16.5,19.4c-9.2,8-19.4,9.6-30.7,4.9
		c-4.2-1.7-7.9-4.2-12.1-6.5c1.1,3.2-0.6,7.3,3.2,9.5C610.2,213.8,619.9,216.1,630.4,211.5z"/>
	<path fill="#322A58" d="M38.8,582.7c-1.7,2.7-2,3.7,1.7,4.4c5.3,1.1,10.6,0.8,15.9,0.9c6.5,0,13,0.7,19.3,2
		c16.7,3.8,27.2,20.4,23.4,37.1c-0.2,1-0.5,2-0.9,3c-1.8,5.2-4.1,10.5-1.2,15.9c5.9,11.2,15.7,17,28.3,20.2
		c-0.7-6.2-1.6-11.8-1.4-17.4c0.2-6.5-2.7-12.2-6.4-16.7c-13.1-15.6-15.3-30.7-5.9-48.9c2.2-4.3,4.8-8.3,7.5-12.9
		c-3.3-0.8-6.1-1.2-8.8-2c-15.9-4.7-19.5-16.1-9.3-29.1c4.2-5.4,9.5-9.8,14.7-14.2c6.8-5.7,8.5-12.7,6.3-21.1
		c-1.7-6.2-5.5-10.9-9.4-15.7c-9.1-11-9.1-24.6-0.1-35.6c4-4.9,9.1-8.9,14.8-11.7c1.8-0.9,2.6-1.6,2.2-4.1
		c-1.9-11.9,5.7-20.3,17.6-19.6c2.6,0.2,3.5-0.5,4.2-2.8c1.8-5.9,3.7-11.7,5.8-17.5c2.4-7.4,8.1-13.3,15.5-15.9
		c0.9-0.4,1.8-0.9,2.8-1.4c-4.5-1.9-8.6-3.7-12.7-5.5c-3.9-1.8-7.8-2.9-12.4-2.5c-8.4,0.8-15.8-1.7-20.9-9.1c-2.1-3.1-5-3.1-7.9-1.8
		c-1.9,0.8-3.5,2.5-5.4,3.6c-2.4,1.4-2.5,2.6-1,4.9c5,7.6,5.1,15.5,1.4,23.8c-3.4,7.5-9,13.7-16.1,17.9c-5.8,3.6-11.7,7-17.7,10.3
		c-3.1,1.7-4.2,3.1-2.2,6.9c4.2,7.5,5.7,16.2,4.1,24.7c-3.9,22.1-22.2,38.1-44.7,39.4c-1.8,0.1-4.1-1-5,2
		c-5.2,17.1-14.2,32.6-19.8,49.5c-0.9,3.4-1.2,6.9-1,10.3c0,1-0.2,2.1,0.9,2.7c1.3,0.7,2.1-0.5,3-1.2c0.8-0.7,1.4-1.4,2.1-2.2
		c6.8-8.8,15-16,23.1-23.4c5-4.6,10.1-3.2,12.2,3.3c0.9,3.2,1,6.6,0.2,9.9C52.8,557.4,46.7,570.4,38.8,582.7z"/>
	<path fill="#005B63" d="M603.5,213.9c-0.7-1.8-1.5-2.9-3.8-2.9c0.5,9.3,0.7,18.6-0.7,27.8c-2,13.7-9,25.2-16.8,36.2
		c-2,2.8-1.7,4.4,0.5,6.7c8,8.4,15.8,6.8,19.4-4.1c0.6-1.7,1.1-3.5,1.4-5.3c2-10.1,5-20,8.9-29.5c0.9-2,0.9-4.2,0.1-6.2
		C609.4,229,606.4,221.5,603.5,213.9z"/>
	<path fill="#00798C" d="M513.2,122.6c-22.7,2.4-42-3.2-54.9-23.6c-1.2-1.8-2.4-3.6-3.9-5.8c-3.2,8.1-3,16.8,0,23.5
		c1.2,2.6,2.6,4.2,6.1,3.7c6.1-1.1,12.3-0.1,18.3,1.2c19.7,4.1,38.9,10.2,59.3,11c31.1,1.1,62.1,4.1,92.3-7.3
		c10.4-3.9,20.5-8.7,30-14.5c1.9-1.2,2.2-2.5,1.7-4.6c-1.9-7.1-3.7-14.2-5.4-21.3c-0.5-2.1-1.7-2.9-3.8-3c-2.4-0.2-3.1,1-3.8,2.9
		c-2.3,6.1-4.5,12.2-7.2,18.1c-6.6,14-16.6,16.9-29.6,8.7c-1.9-1.3-4.3-1.5-6.4-0.7c-13.3,4.3-27,5.6-40.9,5
		c-7.4-0.3-14.9-0.1-22.3,0.6C532.6,117.6,523.2,121.5,513.2,122.6z"/>
	<path fill="#003845" d="M615.6,111.2c9.5,5.2,17.4,3.1,22.8-6.3c4.1-7.2,6.7-15.1,9.7-23.6c-18.4-3.1-36-7.6-53.6-15.3
		c2.8,13.3,5.1,25.7,11.7,36.7C608.4,106.3,611.7,109.3,615.6,111.2z"/>
	<path fill="#9C8B70" d="M174.2,38.4c6.1,12.3,12.1,24.5,21.4,34.7c8.1,8.8,18.2,14.3,29.4,18.2c1.3,0.5,3.4,2.7,4.2-0.7
		c0.6-2.4,1.7-4.6-2.3-5.6c-11.4-3-20-10.2-27.3-19.1c-5.2-6.3-10.1-13-13.2-20.5C184,39.6,180.2,37.8,174.2,38.4z"/>
	<path fill="#201D38" d="M38.6,367.9c-3.8-0.5-4.8,1.4-5.4,4.5c-2.9,14.7-5.7,29.4-9.1,44c-3.6,15.7-4,32-10.1,47.2
		c-1.5,3.8-1.2,7.9,1.5,12c1.1-1.9,2-3.2,2.8-4.7c8-16.8,13.1-34.9,22.4-51.1c0.6-1.1,0.2-2.2,0-3.4c-3.3-17.3-2.4-33.7,10.4-48.4
		C46.2,368,42.3,368.3,38.6,367.9z"/>
	<path fill="#00636B" d="M157.5,82.9c-0.6,6.2,2.4,9.4,8.5,7.7c8.3-2.4,15.1-6.9,19-15c1.3-2.6,2.1-5.3,2.4-8.1
		c0.1-0.9-0.8-1.9-1.5-3.1c-2.4-4.2-4.9-8.3-7.2-12.6c-2.3-4.2-4.4-8.6-6.8-12.8c-1.9-3.4-5.4-5.6-9.3-5.5c-2.3,0.1-1.4,4.6-1.7,7.1
		C158.9,54.6,158.8,68.8,157.5,82.9z"/>
	<path fill="#67558A" d="M55.9,431.8c-0.8,2.3,0,3,2.2,3.1c5.2,0.4,9.6-1.4,12.6-5.7c4.1-5.8,9.6-9.4,15.7-12.7
		c5.1-2.8,10.1-5.8,15-9c6.6-4.3,11.7-10.7,14.3-18.1c2.8-7.8,1.5-15-3.6-21.1c-3.4-3.8-6.5-8-9-12.5c-1.7-3.3-3.7-3.3-6.8-1.6
		c-10.2,5.7-21.3,9.9-32.8,11.2c-8.5,1-13.1,5.7-16.8,12.2c-6.5,11.7-6.3,24.2-4.1,37.9c2.9-2.6,4.7-6,8.4-4.3
		c4.2,1.9,5.9,5.6,6.2,10.1c0.1,1.3,0.1,2.7,0,4C56.9,427.6,56.5,429.8,55.9,431.8z"/>
	<path fill="#00636B" d="M208,71.8c5,4.8,10.9,8,17.3,10.6c4.5,1.8,5.4,0.3,5.6-3.8c0.6-12.6,1.2-25.3,2.1-37.9
		c0.5-7.1,1.4-14.1,2.2-21.8c-1.4,0.7-2.1,1-2.8,1.5c-13.7,8.5-28,15.3-44.1,17.8c-3.5,0.5-2.4,2.3-1.4,4.1
		C192.5,53.1,199.1,63.2,208,71.8z"/>
	<path fill="#139B7F" d="M147.1,128.8c-0.1,0.5-0.1,1,0,1.5c1.1,12.3,1.8,24.6,3.5,36.8c2.8,20,8.2,39.4,13.1,58.9
		c0.9,3.4,2.2,6.6,4,9.6c1.2,2.1,2.4,3.1,4.4,0.8c2.8-3.3,5.9-6.4,8.6-9.8c2.9-3.6,3.2-7.3,0.5-11.5c-3.8-5.7-2.3-8.3,4.6-8.9
		c5.5-0.4,11,0,16.4-1.2c3-0.6,4.4-2,5.4-4.9c3.1-9.9,4-20.2,6.9-30.1c6.5-21.6,9.2-43.9,12.1-66.2c-14.2,6.1-23.8,2.5-30.4-11.6
		c-2.8-6.1-4.6-12.5-5.2-19.2c-0.1-1.1,0.1-2.4-1.5-2.7c-8.5,18.4-19.7,25.5-33.2,20.8C153,103.7,152.2,116.8,147.1,128.8z"/>
	<path fill="#003F49" d="M202.8,207c-5.6,1.3-11.2,0.9-16.9,1.3c-4.9,0.3-5.7,1.7-2.9,5.7c3.3,4.9,2.8,9.4-0.6,13.8
		c-2.3,3-4.9,5.9-7.5,8.7c-3.6,3.8-3.3,4.8,1.9,6.1c1.1,0.2,2.1,0.4,3.2,0.5c6.9-0.4,12.1-3.3,15.3-9.2c4.2-7.8,6.3-16.4,9.3-24.6
		C205.3,207.4,204.5,206.6,202.8,207z"/>
	<path fill="#00636B" d="M225.8,94C214,89.8,203.2,84,194,74.7c0,8.5,4.6,19.9,10,25.2c6.3,6.2,16.3,6.7,22,1
		C228.9,98.1,228.9,95.1,225.8,94z"/>
	<path fill="#211E38" d="M601.8,283.4c-3.2,5.4-7.9,6.9-13.7,4.5c-3.9-1.6-6.9-4.4-9.8-7.9c-8.5,10.6-18.5,19.1-29.6,26.8
		c16.6,11.5,49.9,17.2,72.3,12.4c13.3-2.9,24-11,35-18.6c3.2-2.3,2.8-3.3-0.2-5.4c-17.6-12.3-30.9-28.2-39.1-48.1
		c-0.5-1.2-1.1-2.3-2.2-4.4c-3.7,9.1-6.6,18.4-8.7,28C605.1,275.1,604.1,279.5,601.8,283.4z"/>
	<path fill="#FFFEFF" d="M554.5,437.1c-2.4-1.7-4.7-1.2-7,0.3c-5.6,3.6-10.3,8.5-13.6,14.3c-2,3.5-2.7,6.1,1.6,8.5
		c2.2,1.2,3.4,3.6,4.5,5.8c0.6,1.2,0.9,2.7,2.8,1.9c6.8-2.9,14.7-3.2,20.8-8c2.2-1.7,5.2-3.3,4-6.7s-4.3-3.7-7.2-3.2
		c-6.6,0.5-7.6-0.8-5.4-6.6C555.8,441.2,557.1,439,554.5,437.1z"/>
	<path fill="#F87AB3" d="M575,526.2c3.1,2,4.1,0.2,5.2-1.6c2.4-4,5.3-7.6,8.6-10.9c3.8-3.7,8.2-5.5,13.2-3.6
		c8.9,3.2,14.2-1.4,18.9-7.8c6.7-9.1,4.2-14.7-7.1-16c-1-0.1-2-0.1-3,0c-10.9,1.6-20.6-2-30-7.1c-3.4-1.8-6.6-3.8-10.3-4.9
		c-2.7-0.8-5-0.3-6.5,2.1c-3.2,4.9-4.6,10.5-1.3,15.5c4.1,6.2,9.2,11.8,16.4,14.7c5.3,2.1,6.3,4.6,3.6,9.6
		C580.8,520,577.8,522.9,575,526.2z"/>
	<path fill="#9A45B4" d="M36.7,805c6.6,13.7,13.1,27.3,19.5,41c6.7,14.5,11.7,29.7,14.9,45.4c1.7,8.1,3.2,16.2,4.8,24.4
		c0.6-0.3,0.9-0.4,1.1-0.6c0.9-1.4,1.7-2.8,2.6-4.3c8.8-14.8,19.7-27.6,34-37.5c13.1-9.1,27.6-11.7,43.2-9.9
		c7.4,0.9,14.3,3.5,22,6.5c-5.8-13.5-11.5-26.1-16.7-38.9c-15.2-37.5-31.7-74.4-52.8-109.1c-15.6-25.7-35.9-46.5-62.1-61.6
		c-3.3-1.9-4.6-1.6-6.2,2c-5.8,13.6-12,27.1-17.9,40.7C16.2,718.9,9.6,734.7,0,749v17C16.5,775,28.6,788.2,36.7,805z"/>
	<path fill="#FFFEFF" d="M513,459.1c-4.9,2.6-5.8,7.7-2.2,11.8c4.3,4.8,9,9.4,12.9,14.6c3,3.9,5.8,3.6,9.4,1.5
		c3.2-1.9,5.5-4.4,6.3-8c2.1-10.6-4.4-21.4-17.2-21.8C519,457,515.8,457.7,513,459.1z"/>
	<path fill="#211E38" d="M444.6,366.1c3.4,2.1,6.7,4.8,5,9.6c-1.2,3.4,0.3,4.3,3.3,4.1c3.8-0.1,7.6,0.6,11.1,2.1
		c5.8,2.3,11.4,0.4,17-1l0,0c-3.6-3.3-8.3-2.8-12.6-4c-4.2-1.2-6.4-3.9-6.5-8.3c-0.1-5.6,2.5-11.3,6.2-11.4c6.8,0,13.4-2.9,20.3-1.5
		c2.5,0.5,3.8,0.2,4.7-2.5c2.5-6.9,5.2-13.7,8.2-20.4c1.5-3.4,0.2-4.1-2.7-4.9c-10.4-2.9-20.8-6-31.1-9c-21.1-6-42.3-11.6-63.2-18.3
		c-13.8-4.3-28.3-6.2-42.8-5.6c-4.6,0.1-8.9,1.9-12.1,5.2c-2.1,2.1-2.9,4-1.3,7c3.2,6,5.6,12.4,7.2,19.1c0.7,2.8,1.6,3.5,4.7,3
		c9.9-1.6,18.5,1.4,24.9,9.4c5.8,7,8.6,16,7.9,25.1c-0.3,2.4,0.5,4.9,2.3,6.6c5.6,5.7,10.5,11.8,7.7,20.7c-0.2,1.1-0.2,2.3,0.2,3.4
		c0.4,1.5,2,2.4,3.5,2c1.9-0.4,0.5-1.9,0.5-2.9c-1.5-17.3,12-29.4,28.9-25.9C438.3,364.8,441.2,364,444.6,366.1z"/>
	<path fill="#544D7C" d="M557.2,340.1c-16.5-3.3-33.1-5.6-49.4-9.7c-1.9-0.5-3.1-0.5-3.9,1.7c-3.1,8.1-6.5,16.2-10,25
		c1.2-0.2,2.4-0.6,3.6-1c2.1-1,4.1-2.1,6.1-3.3c8.8-5.7,13.6-4.9,20,3.3c0.8,1,1.5,2.2,2.3,3.3c7.4,11.3,14.2,11.7,21.9,0.6
		c4.4-6.4,10-8.9,17.4-8.3c1.1,0,2.1,0,3.1,0C566.3,342.3,565.8,341.9,557.2,340.1z"/>
	<path fill="#544D7C" d="M709.1,522.6c-3.8-15.4-14.6-23.2-29.8-25.5c-8.8-1.4-17-4.9-24.1-10.3c-15.8-11.9-18.1-30.6-5.8-45.9
		c4-4.9,8.5-9.5,11.3-15.2c5.4-10.7,6.3-21.5-1.1-31.6c-7.1-9.7-16.8-12.4-28.4-9.3c-8.5,2.5-17.5,2.9-26.2,1.1
		c-2.5-0.6-5-1.2-7.9-2c1,5.8,2.8,11.4,5.2,16.7c4.2,9.1,10.6,14.6,21.2,14.4c5.8,0,11.3,2.2,15.4,6.2c8.9,8.3,6,20.3-5.5,23.9
		c-3.2,1-6.6,1.1-9.8,0.2c-7.4-1.9-12.3-6.7-16.3-13.1c-6.7-10.8-16.2-16.3-29.3-15.3c-7.3,0.7-14.4,2.5-21.2,5.5
		c-7.8,3.3-15.9,3.6-24,2c-15.4-3-26.5-11.7-34-25.4c-4.2-7.7-9.3-14.5-17.8-18.1c-0.2,1.8-1.4,2.5-2.9,2.9c-4.6,1.2-9.2,2-13.8,0.4
		c-4-1.5-8.3-2.3-12.7-2.3c-3.4,0.1-5.3-1.6-4.6-5.4c1.2-7.2-2.3-10.2-9.4-7.9c-0.2,0-0.3,0-0.5-0.1c0,0.1-0.1,0.2-0.2,0.3
		c-0.1,0.1-0.2,0.2-0.3,0.3c-0.4,0.2-0.9,0.4-1.3,0.6c-0.2,0.1-0.4,0.1-0.6,0c-0.1,0-0.1-0.1-0.2-0.1c-0.7,0-1.6-0.4-2.4-0.6
		c-14.8-2.4-24.7,13.6-23.1,23.8c0.4,2.6,1.3,3.7,4.3,4.2c13.7,2.4,26.7,7.1,35,19.1c3.7,5.4,7.9,6.7,13.6,6.7c7,0,14,0.3,20.7,2.6
		c10.5,3.6,13.8,11.3,9.1,21.2c-0.6,1.2-1.4,2.2-0.2,3.5c4.7,4.8,9.2,9.8,14,14.8c4.4-8.3,10.8-11.7,19.6-9.7
		c3.8,0.8,4.9-0.5,6.2-3.4c3.3-7,8.6-12.2,15-16.4c3.3-2.1,6.6-2.3,9.7,0.2s2,5.4,0.7,8.2c-1.6,3.3-1,4.7,2.9,4
		c1.1-0.2,2.3-0.3,3.5-0.2c3,0.1,4.9,1.9,6.2,4.4s0.2,4.9-1.6,6.8c-2.8,2.9-6.2,5.1-10,6.4c-4.2,1.5-8.6,2.6-12.9,4
		c-1.5,0.5-3.2,0.9-3,3.3c0.8,9.5-4,15.4-13,18.5c11.6,13,23.7,24.6,38.8,32.6c1.8,0.9,3.8,2.7,5.9,0.6c3.1-3.1,6-6.3,7.8-10.3
		c1-2.2,0.6-4.2-1.8-4.8c-7-1.9-11.4-7.4-16.1-12.2c-5.5-5.7-6.1-13.9-2-20.7c2.3-3.9,5.5-5.1,9.7-3.8c3.7,1.1,7,3,10.4,4.9
		c9,5,18.5,8.3,29.1,6.9c4.4-0.5,8.7,0.7,12.3,3.2c2.1,1.4,3.8,3.2,3.9,6c0.3,9.8-13.6,21.7-22.9,19.1c-6.9-2-12-0.2-16.3,5.3
		c-1.7,2.2-3.3,4.6-5.1,6.8c-2.4,3-1.5,3.9,2,4.6c25.3,4.8,47.8,15,66.2,33.5c1.4,1.4,2.9,1.4,4.5,1.2c8.7-0.8,17-1.3,25.3-2.2
		C700.2,559.6,713.7,541.4,709.1,522.6z"/>
	<path fill="#A88FC9" d="M591.2,371.2c-4-11.1-13-15.3-23.6-17.3c-9.7-1.8-16,2.6-20.4,10.7c-0.2,0.3-0.4,0.6-0.6,0.8
		c-3.9,5-8.3,6-14.1,3.3c-4.1-2-6.5-5.4-9-9.1c-6.4-9.8-10-10.6-20-4.3c-3.1,2-6.5,4.7-10.1,3.5c-7.8-2.6-15.2,0.5-22.7,0.2
		c-2.7-0.1-4.3,1.3-5.4,3.6c-3.4,7-1.2,11.7,6.5,13c6.3,1,12.2,3.6,17,7.7c5.4,4.6,9.2,10.4,12.8,16.5c9.5,16,23.6,23.7,42.3,23.4
		c6.5-0.1,12.2-3,18.2-5c15.3-5,30.2-6.2,42.5,7.1c2.2,2.7,4.3,5.5,6.1,8.5c4.3,6.2,10.1,9.6,16.5,10.2c7.3,0,13.1-3.7,14.5-8.6
		s-1.4-11.1-6.6-14.5c-4.1-2.6-8.9-3.9-13.7-3.9c-8-0.1-14-3.7-18.1-10.5c-3.3-5.4-5.7-11.3-7.1-17.5
		C594.7,383,593.1,377,591.2,371.2z"/>
	<path fill="#BB9FE2" d="M498.1,655.2c-6-6.5-14.2-10.5-23-11.2l0,0c-1.6,0.1-2.4,0.1-3.2,0.2c-6.6,1-11.4,5.5-11.8,11
		c-0.4,5.8,2.9,9.6,10.3,11.4c5.6,1.5,11.2,3.3,16.6,5.4c4.9,1.8,8.8,0.8,11.8-3.5C501.9,663.9,501.8,659.4,498.1,655.2z"/>
	<path fill="#312322" d="M321.5,959.4c5.3-7.1,11.8-13.1,18.7-18.7c10.7-9,22.2-17,34.4-24c7.5-4.3,13.6-9.9,17.4-18.5
		c-12-0.1-23.1-1.5-32.1-12.2l0,0c0,4.3,0.1,7.3,0,10.3c-0.4,7.9-2.5,15.1-7.9,21.1c-5,5.5-9.9,4.7-12.5-2.2
		c-2.5-6.5-4.7-13.2-4.6-20.3c0.2-3.3-0.5-6.7-2-9.7c-2.6-5-5.5-5.6-9.1-1.4c-5.3,6.1-8.8,13.8-10.8,21c-3.6,12.6-3.5,26-2.5,39.2
		c0.4,5.5,2.4,10.8,5.8,15.2C318,961.8,319.2,962.5,321.5,959.4z"/>
	<path fill="#AB51C5" d="M316.5,966c1.4-2,0-3-1-4.2c-4.3-4.9-6.9-11.2-7.2-17.7c-0.6-8-0.5-16,0.2-24c0.5-4.8,1-9.7,1.5-14.8
		c-2.7,0.8-4.7,2.2-6.9,1.7c-2.3-0.7-4.6-1.5-6.8-2.4c-0.4,4.5-0.4,9.1,0.1,13.6c1.7,14.8-6.6,27.1-21,31.2
		c-8.8,2.5-16.8-2.4-17.5-11.1c-1.1-14.3-3.5-28.4-3.9-42.7c-0.2-9-4.4-16.6-9.7-23.6c-2.4-3.1-5-2.8-7.5-0.2
		c-2.4,2.5-4.4,5.5-5.7,8.7c-3.5,8.5-8.4,16.3-14.5,23.2c-1.4,1.5-1.5,2.6-0.4,4.3c9.7,14.9,16.2,31.2,20.6,48.4
		c0.6,2.4,1.3,3,3.7,2c3.8-1.6,8-2.5,12.1-2.4c17.8,0.3,31.2,9.2,42.4,22.2c3,3.5,5.4,7.5,8.4,11.6C307,981.4,311.4,973.5,316.5,966
		z"/>
	<path fill="#006171" d="M660.7,615.9c4.9-6.1,6.1-13.2,4.9-20.7c-2-12.4-7.9-22.9-16.8-31.7c-16.7-16.6-37.1-26.2-59.8-31.2
		c-9.3-2-18.5-3.9-26.8-9c-15.4-9.5-27.7-22.3-39.5-35.7c-10.5-11.9-21.3-23.4-32-35.1c-0.9-1-1.9-1.9-3.4-0.9
		c-3.7,2.5-7.8,1.8-12.3,1v0.1c3.3,8.3,7.3,16.3,12,23.9c21.4,35.4,50.8,60.8,91.3,72.2c3.1,0.9,5.6,1.1,8.7-1
		c8.9-5.9,17.7-2.3,20.9,8.2c0.4,1.2,0.7,2.2,1.8,2.7c9.3,4.4,15.3,12.6,22.7,19.2c8,7.2,10.7,17,13.1,26.9c1,4.2,2.3,8.3,5.5,11.5
		C654.8,620,657.4,619.9,660.7,615.9z"/>
	<path fill="#268D73" d="M0.2,992.8c0.2,0.1,0.4,0.3,0.5,0.5c0,0,0,0,0,0.1c1-0.9,1.9-1.8,3-2.7c6-5.2,12.7-8.6,20.9-7.5
		c6.8,0.9,13.6,2.1,19.6,5.4c4.1,2.2,4.8,0.5,5.8-2.9c6.2-21.4,13.2-42.5,23.1-62.6c0.8-1.8,1-3.8,0.6-5.8
		c-4.7-43.6-23.7-82-43.7-120c-1.4-2.5-3-4.8-4.8-7C18.3,781.4,10.4,773.7,0,769v223.6C0.1,992.7,0.1,992.7,0.2,992.8z"/>
	<path fill="#81ABE9" d="M321.3,1023.3c0-0.1,0-0.3,0-0.4c-5.3-8.4-11.2-16.3-18.5-23.1c-17-15.9-33.7-17.6-53.5-5.2
		c-5.2,3.3-10,7.2-15,10.7c-10.5,7.7-22.9,12.4-35.9,13.7c-17.8,1.7-30.6-5.4-38.9-21.2c-4.6-8.9-7.5-9.2-17-6.2
		c-13.6,4.3-24.7,12.9-36.2,20.8c-5.7,3.9-11.6,7.2-18.7,7.6c-13.5,0.8-23.3-5.4-30.7-16.2c-3-4.4-5.5-9.5-10.5-11.8
		c-18.4-8.7-32.1-11-45,3.9c0,0.3-0.1,0.6-0.2,0.9c-0.1,0.1-0.2,0.3-0.3,0.4c-0.2,0.2-0.5,0.4-0.8,0.5v26.4h321.3
		C321.4,1023.8,321.4,1023.5,321.3,1023.3z"/>
	<path fill="#37348C" d="M498.5,720.2c6.9-13.5,17.9-22.5,31.8-28.2c5.8-2.4,11.8-4.5,17.2-7.9c16.4-10.6,18.1-34.6,3.5-47.5
		c-2.2-2-3.3-1.6-5,0.6c-3.2,4.3-7.8,6.7-13,7.8c-11.1,2.5-21.5,0.7-31-5.8c-10.6-7.2-21.3-14.3-31.8-21.6c-2.5-1.7-3.4-1.9-4.1,1.4
		c-1.9,8.2-7.1,13.7-14.7,17.2c-11.1,5.2-22.9,5.8-33.3,0.2c-9.4-5-20-7.3-30.7-6.7c-0.7,0-1.4,0-2-0.2c-2.9-0.9-3.3,0.5-3.4,3
		c-0.2,6.2-0.7,12.3-3,18.1c-2,5-5.4,7.9-11.1,7.2c-2-0.3-4-0.1-5.9,0.5c-14.5,4.6-20.9,13.2-20.9,28.2c0,2.8,0,5.7,0,8.5
		c0.1,6.9-1.9,13.6-5.9,19.3c-2.3,3.3-1.3,4.3,1.9,5.2c16.8,4.6,32.3,2.7,45.8-9.2c7.6-6.8,15.4-13.3,24.6-17.9
		c6.6-3.3,13.2-6.4,21.3-6.7c1.6,0.2,3.8,0.3,5.9,0.7c14,2.2,25.6,9.1,35.8,18.5c6.9,6.5,14.7,12,23.1,16.5
		C495.9,722.7,497,723,498.5,720.2z M486.6,674.1c-5.7-1.7-11.3-3.8-17-5.4c-8.2-2.4-11.9-6.5-11.6-13.3c0.3-6.4,5.5-11.8,13-13.1
		c1.3-0.2,2.6-0.2,4.2-0.4c9.5,1.1,18,4.7,24.6,12.2c4.2,4.7,4.2,10.2,0.7,15.6C497.2,674.6,493,676,486.6,674.1z"/>
	<path fill="#4148A1" d="M596,671.9c0,2.4,1.8,2,3.2,2c6.5,0.1,13-0.5,19.3-1.9c6.5-1.2,11.9-5.9,14-12.2c2.5-6.2,3.1-13,1.8-19.6
		c-1.4-6.5-3.2-12.9-5-19.3c-3.2-11.1-3.1-22,2.2-32.5c3.3-6.5,3.2-6.5-3-10.9c-1.8,7.3-3.9,9.3-11.6,10.5
		c-5.5,0.9-11.1,1.8-16.7,2.7c0.4,2.1,1.9,2.7,2.9,3.7c7.9,7.5,14.2,16.5,18.5,26.4c2.5,5.6,4.6,11.4,4.3,17.8
		c-0.7,16.5-12.1,23-26.4,15.1c-4.7-2.6-9.2-5.7-14.9-7.6c0.3,0.7,0.6,1.3,0.9,1.9C590.8,655.3,595.9,662.5,596,671.9z"/>
	<path fill="#0088B4" d="M589,645.5c5.5,2.2,10.4,5.8,15.8,8.6c6.5,3.4,11.3,2,15.4-4.2c4.4-6.8,4.9-13.9,2.3-21.5
		c-11.9-35.7-43.4-51.4-71.3-57c-1.1-0.4-2.4,0.1-3,1.1c-3.3,4.5-7.6,4.1-12.1,2.3c-3.7-1.5-7.2-3.3-11.3-3.8
		c-15.5-2.1-30.9-0.8-46.2,2.1c-2.5,0.4-4.5,2.1-5.4,4.5c0.4,0.2,0.6,0.5,0.9,0.5c19.7-0.1,39.2,2.4,58.9,2.1
		c7.3-0.1,14.4,1.1,20.2,5.9c4.5,3.7,8.1,8.5,6.5,14.7s-7.3,7.1-13.6,7.6c1.6,2.4,2.4,4.9,4.1,6.2
		C563.6,624.1,572.9,638.9,589,645.5z"/>
	<path fill="#003F49" d="M28.2,314.8c3-3.5,5.7-3.7,8.7-0.2c3.1,3.7,4.2,8.6,2.8,13.2c-2.9,11-3.4,22.3-4.5,33.6
		c-0.3,3.3-0.1,4.8,3.8,4.7c19-0.3,37.2-4,54.3-12.5c1.2-0.6,2.7-1,3.5-2.7c-2.7-0.8-5.2-1.2-7.5-2.1c-2.6-1-5.5-2.4-6.6-5
		c-0.4-0.9,2.2-3,3.3-4.6c2.4-3.5,6.5-5.5,10.7-5.2c4.3,0.2,8.6,1.4,12.4,3.3c2.4,1.2,3.9,1.1,6-0.9c11.2-10.9,20.8-23.5,28.3-37.2
		c1.7-3,1.1-4.5-1.7-6.3c-13.7-8.6-28.7-13.9-44.5-17c-5.9-1.1-11.9-2.8-17.8-1.1c-9.6,2.7-18.1,0.9-25.9-4.9
		c-3.2-2.4-7.2-3.5-11.2-3c-14.1,1.3-28.3,1-42.5,1v100c3.6-5.2,6.2-11,7.8-17.1C11.8,337.2,19,325.4,28.2,314.8z"/>
	<path fill="#00636B" d="M298.5,59.3c15.3-17.1,25-36.7,28.5-59.3h-28C301.1,19.8,299.9,39.5,298.5,59.3z"/>
	<path fill="#00636B" d="M241.9,80.2c-0.6,6.7-0.6,6.7,6.2,6.8c17.6,0.4,30.9-8.5,43.3-19.7c2.6-2.3,4.2-5.5,4.5-9
		C298,38.9,298.8,19.5,297,0h-43c-3,4.1-5.5,8.2-5.9,13.7C246.3,35.9,244,58,241.9,80.2z"/>
	<path fill="#9C8B70" d="M328.9,3c-5.9,28.1-19.2,52-41.4,70.5c-12.4,10.4-26.3,16.9-43,15.4c-2.4-0.2-3.8,0.2-3.8,3
		c0,3.3,2.5,2.1,3.9,2c22.8-1.4,42.5-9.6,57.1-27.6C317.4,47,328.5,24.3,334,0h-5C329.1,1,329,2,328.9,3z"/>
	<path fill="#092C38" d="M340.5,56.5c-5.8,9.1-12.6,10.9-22.1,5.6c-2.5-1.3-4.7-3.1-7-4.7c-7.7,10.1-17.8,18.8-19,32.8
		c-0.3,2-0.9,3.9-2,5.6c-2,3.6-1,5.5,2.2,8.1c19.1,15.3,25.4,36.2,8.7,58.5c-1.7,2.3-3.5,4.4-5.5,6.5c-1.7,1.8-3.2,3.2-1.7,6
		s3.6,4.4,6.8,4.1c3.5-0.4,6.7-2.1,9-4.8c2.7-3,4.7-6.5,5.8-10.4c6.1-21.8,12.3-43.6,11.7-66.5c0-2.7,0.3-5.4,0.7-8
		c0.1-1.1,0.7-2.5,2.2-2.2c1.2,0.4,1.9,1.6,1.7,2.8c-0.1,1.2-0.3,2.3-0.6,3.4c-2.1,8.5-1.2,17.4,2.7,25.3
		c5.9,12.7,14.7,14.7,25.3,5.8c4.1-3.5,7.9-12.9,6-16.6c-3.3-6.3-2.4-12.6-0.7-19c1.9-6.9,4.9-13.5,8.8-19.5c4.9-8,7-16.8,7.8-26
		c1.3-14.4,2.1-28.9,4.9-43.1h-30c-3.2,9.5-4.2,19.5-6,29.3C348.3,38.8,345.7,48.1,340.5,56.5z"/>
	<path fill="#00636B" d="M314.7,51.7c-0.9,1.4-2.5,2.6-0.7,4.8c7.2,8.8,18.7,8.4,24.7-1.2c4.2-6.7,6.5-14.1,8.3-21.8
		c2.6-11.1,2.8-22.8,7-33.6h-18c-0.2,1-0.2,2-0.5,2.9C331.2,20.2,324.2,36.7,314.7,51.7z"/>
	<path fill="#00798C" d="M593.1,341.1c-3.4-0.7-6.8-1.3-10.2-2c-19.7-4.1-38.7-9.7-55.1-22c-3.8-2.9-6.5-8.6-11.7-8.1
		c-4.9,0.4-8.7,4.7-12.8,7.5c-5.4,3.8-6.3,3.6-9.5-2c-3.7-6.5-10.9-8.5-17-4.5c-3.5,2.4-8,2.7-11.9,0.8c-6.4-2.5-10.6-8.7-10.8-15.5
		c-0.4-6.3-3.1-11-7.8-15c-4.4-3.7-4.3-3.7,0.9-6c16.8-7.4,32-18.1,44.5-31.5c10.5-11.4,10.3-25.8,12.4-40.3
		c-25.6,44.2-63.7,66.3-113,70.5c0.2,0.3,0.5,0.5,0.9,0.8c18,9.5,34.8,21.1,50.1,34.4c1.2,1.1,2.7,2,4.2,2.5
		c21.4,6,42.4,13.4,64.1,18.3c13.6,3.1,27.4,5.4,41.1,8.1S579,343,593.1,341.1z"/>
	<path fill="#139B7F" d="M139,184.2c-1.4-13.8-2.9-27.5-5.1-41.1c-0.3-1.8-0.3-3.6-3.1-3.5c-8.5,0.2-13.3-5-16.8-12
		c-0.7-1.3-0.4-3.3-2.6-3.9c-0.8,3.8-1.6,7.3-2.4,10.9c-1.4,6.1-1.9,12.5-4.2,18.5c-3.5,9.1-10.2,11.3-18.7,6.5
		c-4.3-2.5-6.9-6.4-9.8-11.8c-1.5,16.6-2.9,31.8-4.2,47c-0.8,11.5-4.3,22.6-10.3,32.5c-4.4,7.2-10.5,7.7-16.6,1.9
		c-3.4-3.1-5.7-7.1-6.7-11.5c-2.9-13-6.6-25.8-8.3-39c-0.4-3.1-0.5-6.3-0.7-9.4c-2,9-1.2,18-2.3,26.8c-1.2,9.4-2.7,18.8-7.3,27.3
		c-3.8,7.1-8.9,7.5-14.2,1.6c-1.8-2-3.4-4.1-5-6.1c-0.1,0.1-0.3,0.2-0.5,0.2c-0.1,0-0.1,0-0.2,0V266c0.8,0,1.7-0.1,2.5-0.1
		c28.5,0.5,57-1.2,85.2-4.9c16.3-2.1,32.5-5.5,48.9-7.2c5.5-0.6,10.6-2.8,15.4-5.5c2.6-1.5,3.4-2.8,1.9-5.9
		C145,224,141,204.3,139,184.2z"/>
	<path fill="#00636B" d="M158.8,33.7c-2.3,5.1-5.6,9.6-9.7,13.3c-24.8,21.9-53.4,34.8-86.7,36C39.8,83.8,19.2,77.3,0,66v148.2l0,0
		h0.1v-0.1c0.1,0.1,0.1,0.1,0.1,0.2c0.1,0.1,0.3,0.2,0.4,0.3c0.2,0.2,0.3,0.4,0.4,0.6c0,0.1,0.1,0.2,0.1,0.3
		c1.8,2.5,3.6,5.1,5.6,7.4c4.9,5.9,8.5,5.5,11.9-1.4c4.1-8.2,5.5-17,6.5-26c1.5-13.7,0.2-27.7,3.3-41.3c0.2-1.1-0.2-2.6,1.6-2.4
		c1.4,0.2,1,1.4,1,2.4c-0.1,20.8,4.1,41,9.1,61c1.2,5,3.2,9.5,7.1,12.9c4.9,4.2,8.9,3.8,12.6-1.5c3.3-5,5.8-10.5,7.2-16.4
		c4.5-15.8,4.2-32.3,5.9-48.4c1-9.2,2.6-18.5,2-27.8c-0.1-1.1-0.4-3,1.7-2.9s2.1,1.6,1.7,3.2c-0.2,0.8-0.1,1.7-0.4,2.5
		C76,143,78.4,148.3,82,153c3.3,4.4,7.9,7.7,13.7,6.6c5.5-1.1,7.1-6.2,8.2-10.9c2.6-11.3,4.9-22.7,7.2-34.1c0.2-1,0.1-2.2,1.5-2.1
		c1.5,0.1,1.6,1.2,1.4,2.6c-0.9,5.8,1.1,10.8,4.2,15.4c5.8,8.8,16.8,9.5,23.9,1.7c2.6-2.8,4.4-6.3,5.4-10c4-16.3,7.8-32.7,8.8-49.6
		c0.4-7,1.2-13.9,1.5-20.9C158.1,45.7,159.6,39.8,158.8,33.7z"/>
	<path fill="#0F0C23" d="M57.7,80.8c34.4,0.1,63.8-12.9,89.5-35.2c3-2.6,5.9-5.6,7.4-9.3c2.5-6.5,5.6-7.8,12.3-3.8
		c5.9,3.7,12.9,5,19.7,3.7c26-4.5,48-16.3,65.4-36.3H0v64c2,0.1,3.3,1.5,4.9,2.3C21.3,75.5,38.9,80.8,57.7,80.8z"/>
	<path fill="#268D73" d="M211.2,1014.6c8.7-2.8,16.9-7.1,24.2-12.6c5-3.9,10-7.8,15.6-10.8c16.3-8.5,32.3-10.1,47.6,2.2
		c0.8,0.6,1.6,2.1,2.9,1c1-0.9,0.5-2.1-0.1-3.2c-2.3-4.5-5.1-8.6-8.4-12.4c-10.4-11.8-23-19.5-37.2-20.8c-10.9,0.2-19,2.8-25.2,9.6
		c-11.3,12.4-19.3,27.3-23.4,43.5C206.2,1015.2,207.6,1015.7,211.2,1014.6z"/>
	<path fill="#6BBA51" d="M372.7,74.5c-3.1,4.6-5.2,9.7-6.3,15.1c-1.1,5.3-2.7,10.3,1.3,15.9c4.2,6,7.5,7.2,12.2,1.6
		s7.7-12.5,10-19.3c9.6-28.5,11.2-58,9.1-87.8h-11c-2,11.2-3.3,22.4-4,33.7C383.1,48.2,381.2,62.2,372.7,74.5z"/>
	<path fill="#00798C" d="M471.3,4.8c-3.9,13.9-9,27.4-15.5,40.4c-0.8,1.6-2,3.2-1.9,5.1c0.4,11,3.2,21.8,8.2,31.7l1.8-1.7
		c17.1-16.2,31-35.1,46-53.1c7-8.1,12.4-17.3,16.2-27.3h-22c-3.9,12.5-11.6,22.1-22,29.7c-1.4,1-3.2,2.1-5,0.5s-0.9-3.3-0.1-5
		c3.5-8.2,8.1-16.1,10-25.1h-15C472.5,1.7,471.7,3.2,471.3,4.8z"/>
	<path fill="#0088B4" d="M453.7,5.9c-0.2,11.1-0.5,22.2-0.6,33.3c0,1.5-0.5,3.1,0.9,5.1c6.7-14.7,13-28.9,16-44.3h-17
		C453.8,1.9,453.7,3.9,453.7,5.9z"/>
	<path fill="#00798C" d="M641,328.2c10.3-5.5,19.4-12.9,28.8-19.8c9.9-7.4,17.4-16.9,24.2-27c1.2-1.8,2.1-3.8,2.7-5.9
		c1-2.8-0.4-5.9-3.2-7c0,0,0,0-0.1,0c-2.8-1.3-4.1,0.9-5.6,2.8c-9.1,12-19.3,23-31.5,31.8c-10.3,7.4-20.6,15.5-33.2,17.8
		c-24.3,4.3-48.1,2.1-70.5-9.1c-2.8-1.4-7.8-2.8-7.8-4.2c0-3.4,4.7-3.6,7.2-5.5c10.1-7.7,19.2-16.1,26.8-26.3
		c8.6-11.6,15.9-23.7,18.3-38.2c3.1-18.5-2.1-36.4-3.6-54.6c0-0.2-0.5-0.3-1-0.6c-2,2-3.2,4.6-3.5,7.5c-1.1,9.5-1.9,19-3.5,28.3
		c-2.7,15.9-11.3,29.3-18.9,43.2c-2.2,4.1-3.9,8.6-6.9,12.1c-5.5,6.4-10.3,13.5-16.9,18.9c-1.5,1.5-3.2,2.8-5,3.9
		c-2.9,1.6-9.3,1.9-6,8.5c0.6,1.2-1.3,2.5-2.6,3.3c-2.1,1.3-4.6,1.1-7.2,0.5l0,0c0.3,0.7,0.3,1.1,0.5,1.3c1,0.9,2,1.7,3,2.6
		c17.1,14.5,37.9,19.7,59,25.1C605.1,342.7,623.2,337.7,641,328.2z"/>
	<path fill="#0088B4" d="M478.5,28.4C490.1,22,497.4,12.2,502,0h-13c-1.2,7.3-4.6,13.8-7.7,20.4C480,23,479.1,25.7,478.5,28.4z"/>
	<path fill="#00798C" d="M391.2,92.2c2.6-2.8,4.8-4.9,6.7-7.2c10.1-11.9,17.2-25.5,23-40c5.7-14.4,8.3-29.7,10.2-45h-30
		C403.9,31.1,400.5,62.5,391.2,92.2z"/>
	<path fill="#6BBA51" d="M446.1,63.3c3.5,15.6,9.2,29.6,19.6,41.9c6.4,7.6,15.2,12.7,24.9,14.5c7.7,1.5,15.6,1.8,23.3,0.7
		c9.7-1.3,19-5,28.8-5.9c3.5-0.3,7-0.6,11.3-1c-2.8-3.5-7.2-5.5-11.7-5.3c-10.8,0.1-21.6,0.7-32.4,1c-10.8,0.4-21.6-0.1-31.1-6.6
		C468,95.3,460,85.9,455.9,73.3c-5.4-16.6-5.6-33.7-4.7-50.9c0.4-7.5,0.8-15-0.3-22.4h-8C444.1,21.1,441.5,42.2,446.1,63.3z"/>
	<path fill="#00798C" d="M380.4,109.6c-1.7,2.3-4.6,4.4-7.4,3.2c-4.9-2.1-6,0.2-6.8,4.2c-0.3,1.8-1.1,3.5-2.4,4.9
		c-6.9,6.3-9,15.4-13.4,23.1c-2.6,4.6-5.3,9.2-8.4,14.6c2.2-0.6,3.4-1,4.7-1.4c12.2-4.1,22.3-11.8,31.8-20.3
		c27.7-24.8,45.8-55.9,59.6-89.9c2.1-5.1,3.1-10.5,3-16c-0.2-10.7,0-21.3,0-32h-8c-1.6,14.7-4.7,29.2-9.2,43.3
		C415.6,69.6,396.2,88.4,380.4,109.6z"/>
	<path fill="#201D38" d="M113.4,339.2c9.5,3.5,17.4,4.5,25.3,5.2c2.7,0.3,5.3-0.3,7.6-1.7c9.7-5.6,17.4-13.3,23.9-22.3
		c1.6-2.2,1.1-3.4-0.9-4.8c-6.9-5-13.3-10.5-19.2-16.6c-2.4-2.4-3.5-1.9-4.9,1c-5.5,10.7-12.4,20.6-20.5,29.3
		C121.7,332.8,117.8,335.5,113.4,339.2z"/>
	<path fill="#FFDFFD" d="M143.2,419.1c-6.9,0.9-12.1,6.9-12.2,14.7l0,0c-0.1,2,0.4,4,1.4,5.8c6.1,9.7,10.8,20.3,18.5,28.9
		c7.3,8.2,7.3,8.1,17,3.1c1.8-0.9,2.4-1.9,2-3.8c-2-10.8-4.2-21.5-8.2-31.8c-0.9-2.3-3.6-2.5-3.9-5.3
		C157.3,423.3,149.1,418.3,143.2,419.1z"/>
	<path fill="#C1A712" d="M490.4,445.3c3.3-6,1.3-12.8-4.8-16.2c-3.2-1.8-6.8-2.8-10.4-3.1c-6.6-0.5-13.3-0.9-19.9-1.5
		c-17.2-1.5-34.4-3.9-51.7-4.7c-19-0.9-37.8-3.8-55-12.2c-25-12.2-49.3-25.6-72.1-41.6c-8.4-5.9-16-12.7-22.8-20.3
		c-3.4,10.9,0.3,19.2,6.5,26.7c7.7,9.2,17.6,15.8,28,21.5c8.1,4.5,14.1,10.4,17.5,19c2.1,5.2,4.9,10.2,6,15.8
		c0.6,3.2,2.6,5.9,6.2,5.1c4.5-0.8,8.7-3,12-6.2c8.6-8.6,14.6-8.4,23.7-0.2c5.8,5.3,9.8,12.3,11.6,19.9c1.5,5.7,5.7,8.9,11.5,9.4
		c5.3,0.4,8.3-2.4,10.1-7.1c1.3-3.5,4.3-5,7.7-5.6c7.6-1.2,15.9,2.8,20,9.5c4.3,7,8,8.1,15.3,4.4c3.7-1.9,6.9-4.8,9-8.3
		c4.4-7.1,10-9.5,18.2-8.2c6.6,1.1,12.1,4.4,17.7,7.7C480.9,452.9,487.1,451.3,490.4,445.3z"/>
	<path fill="#FFE5EB" d="M152.1,484.5c-5.7,5.9-5.5,14.4-0.9,21.3c5.4,8.2,13.2,11.9,22.6,12.2c8.8,0,16.2-2.9,22.2-9.1
		c8.8-9.1,7.8-22.4-2.2-30.2C179.2,467.3,164.7,471.5,152.1,484.5z M196.7,492.5c-3,0.8-6,0.6-7.6,3.7
		C189.7,491.2,192,490.1,196.7,492.5z M169.8,494.3c2.4,0.9,3.3,2.9,2.9,6.9c-2.1-4.1-4.3-6.1-9-3.9
		C165.8,493.9,167.7,493.5,169.8,494.3z"/>
	<path fill="#C1669D" d="M690.6,783.2c-23.1,24.7-43,51.7-58.5,81.8c-8.7,16.7-16.5,33.8-23.3,51.3c-0.7,1.7-2.3,3.7,0.1,5.3
		c9.5,6.1,14.5,15.3,18.5,25.4c0.5,1.1,0.9,2.9,2.5,2.8s1.8-1.8,2.1-3c1.6-7.2,6.1-12.1,12.2-15.7c23.2-13.5,38.8-8.7,46.9,18.2
		c0.8,2.6,0.8,5.5,3,7.9c2.4-3.8,3-7.8,3.8-11.6c5.1-22.7,18.5-39.9,36.2-54.1c10.3-8.2,21.7-9.6,33.8-4.3V745
		C737.3,747.9,711.6,760.7,690.6,783.2z"/>
	<path fill="#9778A8" d="M275.8,619.5c2.9,2.3,5.5,3,8.6-0.2c3.3-3.5,7.3-6.2,10.9-9.5c1.9-1.7,4.8-3.4,3.2-6.5
		c-1.4-2.8-4.2-3.5-7.2-3.5c-6.6,0.3-11.8,3.9-17.4,6.9c-4.1,2.2-4.1,4.5-2.3,7.9C272.7,616.5,274.1,618.2,275.8,619.5z"/>
	<path fill="#12AA7E" d="M720.4,732.8c-3.7,7.3-4.8,13.1,2,19.1c2,1.8,3,2.6,5.7,1.4c12.6-5.8,26-9.2,39.8-10.3v-72
		C746,686.9,732.4,709.1,720.4,732.8z"/>
	<path fill="#77D8C3" d="M116.4,627.3c6.6,8.2,12.2,8.7,20.2,1.6c7-6.2,10.4-14.5,13.5-23c1.6-4.4,2.7-8.9,5.5-12.8
		c10.9-15,24.8-26,42.7-31.2c5.7-1.7,11-2.9,13-9.4c0.4-1.5,2-2.6,3.2-3.8c8.4-8.4,18.8-13.3,30.2-15.6c19.3-3.9,38.8-6.4,58.5-6.2
		c8,0.1,7.7,0,7.9-7.8c0.1-4.4-1-5.3-5.3-3.9c-27.4,8.9-55.6,13.1-84.4,13.9c-2.8,0.1-6.2-0.9-8.4,0.4c-2.8,1.7,0,5.4-0.9,8.2
		c-0.2,0.8-0.2,1.7-0.4,2.5c-2,8.6-6.7,10.1-13.1,4.2c-1.8,9.4-8.1,11.9-15.1,5.4c-5.2-4.9-10.6-7.1-17.6-5.4
		c-3.8,0.9-7.4,0.1-9.8-3.3c-1.2-1.7-2.2-1.5-3.6-0.4c-1.7,1.2-1.5,2.1-0.2,3.5c2.3,2.8,2.9,6.2,0.7,9.2c-3.5,4.7-7.8,8.7-13.7,10.4
		c-2.8,0.8-5.8,1.2-8.1-1c-1.9-1.8-2.5-0.5-3.9,0.5c-2.4,1.8-2.5,4.9-4.2,6.8c-5.4,5.9-9.5,12.8-12.2,20.3
		C106,603.5,107.2,616,116.4,627.3z"/>
	<path fill="#F0AABC" d="M144.2,543.1c-5.9,0.9-10.9,4.7-13.4,10.1c-1.5,3.2,0,7.4,2.9,8.5c5.3,2,18-6.7,18.2-12.4h0.1
		C152.1,545.2,148.7,542.4,144.2,543.1z"/>
	<path fill="#584D7E" d="M128.7,442.3c-11.7,4-21.5,18.2-20.7,30.1c0.5,7.1,4.3,12.3,8.7,17.5c12.2,14.5,11.1,27.4-3.3,39.6
		c-5.3,4.5-10.4,9.3-14,15.5c-4,7-2.4,13.6,4.4,18.1c4.3,2.8,9.1,3.9,14.1,4.6c2.7,0.2,9.5-7.1,10-10.7c1.1-9.1,8.7-15.9,17.9-16.1
		c3.9,0.1,7.1-3,7.2-6.8c0-0.3,0-0.6,0-0.9c-0.2-5,0.8-10,2.7-14.6c1.1-2.7,0.6-4.2-1.6-6.3c-11.1-10.3-11-23.2,0.2-33.3
		c2-1.8,1.8-2.6,0-4.1c-6.7-5.9-11.5-13.3-15.8-21c-1.9-3.5-4.3-6.7-6.3-10.2C131.4,442.3,130.5,441.7,128.7,442.3z"/>
	<path fill="#1D1B32" d="M762.6,606.1c-16.2,0.5-28.8,7.3-37.2,21.4c-5.9,9.8-9,20.9-9.1,32.3c-0.1,14.2-6,25.3-16.5,34.4
		c-9.1,7.8-19.2,14.4-29.1,21c-1.6,1-3.5,1.7-4.7,3.8c1.5,0.3,2.6,0.6,3.7,0.7c15.3,2,29.6,8.7,40.9,19.2c3.6,3.3,4.3,1.7,5.8-1.6
		c6.9-16.4,16-31.9,27.1-45.9c7-8.7,14.8-16.5,24.5-22.4v-63C766.2,606.1,764.4,606.1,762.6,606.1z"/>
	<path fill="#FFDFFD" d="M187.9,427.6c-1.2-6.1-4.1-11.2-9.5-14.6c-2.7-1.8-5.6-2.7-8.9-1.2c-6.6,2.9-10.7,12.9-7.7,19.5
		c4.5,10,7.6,20.6,9.2,31.4c0.8,4.9,1.9,8.6,8.1,7.5c1.2,0,2.3,0.2,3.4,0.7c2.5,0.9,3.9,0.6,4.1-2.5c0.5-8.9,2.5-17.7,2.3-26.7l0,0
		C189.1,436.9,188.8,432.2,187.9,427.6z"/>
	<path fill="#211E38" d="M739.7,509.5c-6.3-13-12-26.3-21.3-37.7c-1.7-2.3-3-4.8-3.8-7.5c-1.9-4.3-2.1-9.2-0.7-13.7
		c2.1-6.4,6.3-8.3,12.4-5.3c3.7,2,7.1,4.5,10,7.4c9.2,8.5,17.7,17.6,24,28.6c0.8,1.5,2.2,3.8,4.2,2.4s-0.4-3-1.2-4.2
		c-12.3-19.4-22.2-40.2-35.1-59.3c-3.3-4.9-5.9-10.4-8.5-15.8c-3.9-8-3.5-13.2,0.6-16.5c4.7-3.7,10-2.5,16.9,3.4
		c6.1,5.2,12.3,10.2,18.5,15.2c0.8,0.6,1.6,1.6,2.6,1s1.3-1.9,1.5-3c0.2-1.6-0.9-2.8-1.5-4.2c-5.2-11-10.5-21.9-15.7-32.9
		c-4.8-10.2-9.4-20.6-15.9-29.9c-4.6-6.7-7.8-14.4-9.3-22.4c-0.9-4.4-2.7-4.8-6.3-4.3c-11,1.5-22,2-32.5-2.3
		c-3.2-1.3-5.1-0.7-7.6,1.2c-7.9,6.4-16.1,12.4-24.8,17.7c-14,8.4-29.6,13.7-45.8,15.5c-9.8,1.1-19.6,1-29.4-0.3
		c-0.9-0.1-2.3-1.2-2.8,0.7c-0.4,1.7,3.6,8.8,5.5,9.4c12,3.6,19.1,11.7,21.5,23.9c0.7,3.6,2.9,5.1,6.2,6.1c10.4,3,20.7,2.3,31-0.4
		c11.7-3,21.4,0.7,28.8,10.1c7.4,9.4,7.8,24.4,0.5,35.7c-3.2,5-7.2,9.6-10.9,14.3c-11.3,14.5-8.9,31.7,5.9,42.8
		c8.1,6.1,17.4,8.8,27.1,10.6c16,3.1,27.9,16.9,28.3,32.4c0.5,19-13.7,34.2-33.1,35.6c-8,0.6-16,1.3-24.6,2c1.9,2.7,3.3,4.6,4.6,6.5
		c5.7,9,9.7,18.7,9,29.6c-0.5,7.7-2.8,15.1-10.5,18.5c-3,1.3-3,2.2-2.8,4.8c1.5,18.4,3.5,36.8,1.6,55.3c-1.1,11.4-2.2,22.9,0,34.4
		c0.8,4.2,2.7,5.3,6.3,3c10.2-6.7,20.3-13.4,30-20.6c13.7-10.1,21.2-22.6,21.9-40.3c1.4-34.1,21.6-53.2,53.4-53v-55
		C756.4,537.5,746.9,524.2,739.7,509.5z"/>
	<path fill="#FFE5EB" d="M200.6,542.8c1,1.5,2.2,3.2,4.2,3s3.2-1.8,3.8-3.6c1.4-4.5,1.9-8.8-0.2-13.5c-2.6-6-8.8-7.9-12.5-12.5
		c-1.7-2.1-3.2-1.8-5.4-0.5c-7.3,4.3-15.2,5.2-23.6,3.5c-2.9-0.5-6-4.2-8.4-1.5c-1.9,2.1-1.9,5.9-2.8,8.9c-0.1,0.5-0.3,1-0.3,1.5
		c-1.7,10.1,2.9,15,12.9,13.5c5.8-0.9,10.5,0.5,14.5,4.6c1.5,1.6,3.2,2.9,5.2,3.9c2.4,1.1,4.5,1.2,6.4-0.8c2-1.8,2.2-4.7,0.6-6.8
		c-2-2.9-4.5-5.4-7.3-7.4c-3.4-2.6-7.5-3.7-11.1-6c4.4-0.7,7.7,1.6,11.1,3.6s6,5.3,9.6,8.3c-0.4-5,3.7-10-2.8-13.4
		c4.7-0.2,6,2.1,5.7,6C199.9,536.6,198.6,539.8,200.6,542.8z"/>
	<path fill="#1E9AB0" d="M329.2,430.8c-1.7,2.5-6.2,2.5-6.1,5.7c0,2.8,2,5.5,3.1,8.3c0.6,1.5,1.4,3,1.9,4.6c0.7,2.2,1.8,2.9,4.3,2.7
		c8.4-0.6,14.2,3.7,16.8,11.8c1.3,4.4,2,9,2,13.6c0.8-0.7,1.3-0.9,1.3-1.1c1.9-17.7-3-33.1-15.9-45.7
		C333.8,427.9,331.6,427.3,329.2,430.8z"/>
	<path fill="#57E3DC" d="M392.9,447.1c-2.2-0.6-3.4,1.5-4.4,3.3c-0.3,0.6-0.5,1.2-0.8,1.8c-2.7,5.5-7.2,7.6-13.1,6.3
		c-6.8-1.4-10.7-5.5-12.2-12.2c-2.2-9.6-8-16.7-16.4-21.5c-3.9-2.2-7.5-2-11,1.6c14.6,12.3,21.1,28.2,20.1,47.9
		c3.5-2.7,6.3-4.8,9-6.9c6.1-4.6,11.1-4.5,17.2,0.1c2.6,2.1,4.7,4.6,6.4,7.5c4.2-6.3,6.5-14.8,6.3-23.5
		C393.9,450,394.9,447.6,392.9,447.1z"/>
	<path fill="#312322" d="M293.1,899.9c-4.6-6.3-6.6-13.6-8.2-21.2c-1.9-9.4-2.7-19.1-5.8-28.3c-0.6-1.7-0.5-4-3.3-3.1
		c-6.3,2-11.8-0.3-17.6-3.1c-1.8,5.5-3.5,10.5-5.2,15.6c-1,2.8-2,5.9-4.7,7.5c-3.4,2-2.3,3.5-0.6,5.9c4.5,6.1,7.9,13,8.2,20.6
		c0.7,14.6,2.7,29.1,4,43.7c0.6,6.8,4.6,10.5,11.5,10.5c10.4-0.1,23.6-13.1,23.4-23.5c-0.1-7.1-1.3-14.2-0.3-21.4
		C294.6,901.8,293.8,900.8,293.1,899.9z"/>
	<path fill="#725755" d="M222.7,724.4c-2.1-7-9.9-12.8-17.8-13.3c-7.9-0.5-14.2,3.2-17.5,10.7c-2.4,5.8-4.2,11.9-5.4,18.1
		c-2.3,10.8-0.9,22.1-4.1,32.6c-1.8,6,2.4,7.2,5.8,9.1c3.8,2.1,7.2,1.2,9.3-2.7c4.1-7.5,10.8-11,18.7-12.9
		c14.9-3.5,23,1.4,26.4,16.3c2.8,12.3,4.5,24.9,7.7,37.1c2.3,8.7,4.9,16.9,13.2,22.3c8,5.2,16.7,6.5,23.8-2
		c7.8-9.5,10.1-20.7,8.9-33.9c-4.5,3.5-8.4,5.7-13,2.7c-5-3.3-6.3-8.4-6.1-13.9c0.2-2.8,0.6-5.6,1.1-8.4c1.8-11,4.7-21.9,3.5-33.2
		c-1.4-12.2-7-21.8-18-27.7c-4.5-2.4-6.2-1.4-7.7,3.4c-1.4,4.5-1.2,9.2-1.3,13.9c-0.1,7.5-4.9,13.1-12,14.4s-13-2-16.1-8.9
		c-2.1-4.4-2.2-9.5-0.1-14C223.3,731.1,223.6,727.6,222.7,724.4z"/>
	<path fill="#725755" d="M280.4,847.4c4.2,12,4.9,24.8,8,37c1.6,6.5,4.4,12.5,9.3,17.3c4.1,4,9.1,3.8,12.7,0
		c3.5-3.8,6.2-8.4,7.6-13.3c0.9-2.5,2.5-4.8,4.5-6.5c4.6-4.5,8.5-4,11.7,1.5c1.8,2.9,2.7,6.2,2.6,9.5c-0.1,6.3,1.4,12.2,3.3,18.1
		c1,3,1.3,7.3,5.3,7.7c3.7,0.3,5.6-3.2,7.3-6c6.7-10.9,6.5-23.2,4.5-34.9c-4.8-28-3.9-56-1.5-84c0.8-9.6,3.9-19,4.2-28.7
		c0-1,0-2,0-3c-0.8-14.9-12.6-28.7-26-30.1c-16.8-1.8-30.6,7.5-34.8,23.4c-1.4,5.3-1.7,10.9-0.8,16.4c1.6,10.7,2.6,21.3-4.4,30.8
		c-0.9,1.2-0.5,2.5-0.3,3.8c1.5,14.3-1.8,27.1-12,37.7C280.7,845,279.8,845.8,280.4,847.4z"/>
	<path fill="#F27963" d="M154.5,739.7c3.8,1,6.5-1.2,8-4.5c2.6-6,1.2-12.6,2.2-18.8c0.3-1.6-1.9-5.2-3.9-3.5
		c-5.5,4.7-11.5,9.4-11.8,17.3C149.3,734.6,149.9,738.6,154.5,739.7z"/>
	<path fill="#403333" d="M155,648c-6-5-9.7-5.3-16.1-0.9c-4,2.7-7.9,4.6-12.5,0.3c-1.4,10.3,1.5,19.1,4.5,27.7
		c5.3,15.3,16.6,27.9,19.5,44.7c4-3.5,6.7-6.6,7.3-11.6c1.4-11.9,3.5-23.7,5-35.6C163.9,663.4,162.8,654.6,155,648z"/>
	<path fill="#201D38" d="M52.4,441.7c-2.8,13.8-7.2,27.3-13.1,40.2c-1.1,2.4-1.8,4.9-3,8.2l0,0c19-1.2,33.2-8.6,41.8-25
		c6.9-13.2,6.4-26.4-1.5-39.8c-2,2.3-3.5,4.2-5.2,6c-3.4,3.8-7.7,6.2-12.8,5.5C54.5,436.3,53.1,438.2,52.4,441.7z"/>
	<path fill="#1F1D37" d="M165.3,790c-3.9,1.8-8,1.4-12.5-0.9c2.1,10.7,7.1,18.8,13.2,26.4c7.2,9,13.2,18.9,13.9,30.9
		c0.5,8.3,2.6,15.6,10.5,19.6s15.2,1.8,21.9-3.2c4.4-3.3,9.4-5.3,14.8-4.9c5,0.4,5-1.8,3.1-4.9c-5.4-9-6.1-18.8-5.9-28.9
		c0.2-6.4-1-12.7-3.7-18.5c-2-4.2-4.3-4.6-7.8-1.6c-3.1,2.6-4.2,6.2-5,10c-1.8,8.5-3.7,16.9-6,25.2c-1.8,6.5-6.3,7.8-11.8,4
		c-5.2-3.6-8.4-9.3-8.9-15.5c-1.5-13-7.5-24.3-12.5-36.1C168.1,790,167.2,789.2,165.3,790z"/>
	<path fill="#312322" d="M173.3,783.8c-4.1,3.2-3,6.3-1.2,10.3c5,11.2,10.3,22.4,11.5,34.9c0.4,3.9,2.2,7.4,5,10.1
		c2.2,2.3,4.6,4.8,8.2,3.8c3.2-0.9,3.4-4.3,4-7c1.9-8.1,3.6-16.2,5.5-24.3c0.6-3,2-5.7,4-7.9c5.2-5.6,10-4.8,13,2.2
		c2.6,6.5,3.8,13.5,3.5,20.5c-0.3,8.6,0.5,16.9,5.1,24.5c1.5,2.4,2,5.2,2.4,8.1c0.6,4,1.4,8.3,6.5,8.8s8-2.6,9.7-7.1
		c1.8-5,3.3-10.1,5.1-15.1c0.8-2.1,0.3-3.4-1.3-4.8c-4.8-4.2-7.4-9.8-9-15.8c-1.9-7.2-3.5-14.5-5.2-21.8c-1.9-8.2-2.4-16.8-5-24.9
		c-2.1-6.4-6.2-11-13.2-11.1c-10.7-0.2-20.4,2.4-26.7,12.4c-3.6,5.8-7.7,6.6-13.5,3.3c-1.8-0.9-3.3-2.2-5.3-3.5
		C175.1,781.1,174.5,782.8,173.3,783.8z"/>
	<path fill="#332660" d="M109.3,879c-13.3,11.2-24.2,25-32.1,40.4c-11.4,22.1-19,45.7-26,69.5c-0.5,1.6-0.8,3,0.6,4.6
		c3,3.6,5.6,7.5,8.4,11.2c6.9,9.1,15.9,14,27.6,13.2c6.7-0.4,12.3-3.7,17.7-7.4c10.4-7.2,20.3-15,32.4-19.4
		c15.5-5.5,16.7-5.5,25.2,8.6c6.9,11.5,16.6,18,29.8,17.3h2.5c8.2-0.2,8.2-0.2,10.3-7.9c5-18.4,13.8-34.6,28.3-47.2
		c1.7-1.5,1.3-2.8,0.9-4.4c-7.5-29.9-21.6-56-44.9-76.8C170.4,863.2,134.7,857.5,109.3,879z"/>
	<path fill="#003F49" d="M135.5,256.1c-4.4,0.6-8.8,1.1-13.1,1.7l0,0c9.9,5.3,19.8,10.4,29,16.6c1.7,1.1,2-0.3,2.4-1.3
		c2.2-5.9,4.2-11.8,6.5-17.7c1.2-3.1-1.5-4.5-2.8-6.3c-1.5-2.2-2.9,0.3-4.1,0.9C147.7,253.1,141.7,255.1,135.5,256.1z"/>
	<path fill="#0088B4" d="M337,292.7c-16.9-21.9-25.9-46.5-28.2-74c-1.1-12.6-7.6-19.5-18.9-20.4c14.1,18.3,13.4,39.3,13.4,60.4
		c0,20.8,7,40,18.5,57.1c8.3,12.4,20.6,20.5,34.2,27.3c0.1-0.8,0.2-1.6,0.2-2.4c-0.2-1.7-0.4-3.3-0.7-5
		C352.5,320,346.7,305.4,337,292.7z"/>
	<path fill="#13136A" d="M587.9,917.5c-16.3,2.8-27.6,12.5-35.9,26.2c-4,6.6-6.7,13.7-9.2,21c-3.4,10-8.7,12.8-18.8,10.3
		c-3.4-0.8-6.8-1.8-10.2-2.6c-3.6-0.8-7.6-1.4-10.7,0.7c-8.7,5.8-17.4,11.8-23.5,20.6c-2.9,4.2-3.2,8,0.3,12c2.1,2.6,4,5.3,5.7,8.2
		c1.5,2.4,3.5,3.2,6.2,3.3c7,0.2,14,0.9,20.9,1.5c20.3,1.9,36-6.1,47.1-23.1c3.6-5.6,6.7-11.5,10.1-17.2c3-5.4,7.2-10.1,12.2-13.7
		c12.6-8.8,24.7-7.9,34.7,3.8c10.3,12.1,23,21.2,35.9,30c10.3,7.1,22,11.6,34.5,12c20.6,0.7,38.7-4.4,49-24.7c1.2-2.6,2.8-5,4.5-7.2
		c6.9-8.3,14.5-15.4,26.2-15.7c0.2-0.3,0.5-0.5,0.8-0.7V889c-12.9-5.5-24.7-3-35.3,6.4c-15.6,13.9-27.9,29.9-32.4,50.9
		c-0.8,3.6-2,7-3.1,10.5c-0.3,1.6-1.9,2.6-3.5,2.3c-1.2-0.2-2.1-1.1-2.3-2.3c-0.8-2.5-1.5-5.1-2.2-7.7c-1.5-5.6-4.1-10.9-7.7-15.5
		c-5-6.5-11.4-8.9-19.4-7.3c-7.2,1.3-14.1,4.3-19.9,8.8c-3,2.2-5.3,5.1-6.8,8.5c-1.2,3.1-0.8,8.1-5,8.3c-4.8,0.3-5.2-5-6.5-8.3
		c-4.4-11.1-12.1-19-22.6-24.2C597,917.4,592.4,916.7,587.9,917.5z"/>
	<path fill="#5891E1" d="M766.7,964.9c-5.8,0-10.6,2.5-15.1,5.8c-6,4.5-10.9,10.4-14.2,17.1c-3.2,6.1-7.1,11.7-13.1,15.5
		c-11.4,7.4-25,10.6-38.6,9.2c-13-1.2-25.4-5.9-36-13.5c-12.4-8.7-24.6-17.6-34.6-29.3c-9.1-10.6-19.4-11.5-31.1-3.8
		c-5,3.4-9.1,7.9-12.1,13.1c-3.4,5.7-6.5,11.7-10,17.2c-11.5,17.8-27.8,26.3-49,24.5c-16.2-1.3-32.3-2.8-48.2-7.2
		c-15.2-4.2-30.3-2.4-42.3,9.7c0.1,0.1,0.2,0.3,0.2,0.4h345.1v-57.8C767.2,965.6,766.9,965.3,766.7,964.9z"/>
	<path fill="#F7FCFD" d="M94.7,336.2c-4.2,0.5-7.6,3.2-7.8,7.2c-0.2,3.7,4.1,4,6.7,4.3c6,0.8,9.6,4.1,12.3,9
		c0.8,1.5,1.6,2.9,2.5,4.3c1.8,3,3.8,3.6,6.8,1.3c8.7-6.7,10.5-6.4,17.8,1.3s18.9,8.1,24.1,0c4-6.2,8.3-11.9,15.6-14.9l0,0
		c-4.4-4-9.2-4.4-14-3.5c-17.6,3.5-35.8,1.1-51.9-6.7C103,336.6,98.8,335.8,94.7,336.2z"/>
	<path fill="#201D38" d="M329,112.5c-0.4,1.9-0.6,2.9-0.7,3.9c-1.4,15.7-5.9,30.7-9.9,45.7c-1.6,6-4.3,11.6-9.3,15.6
		c-6.4,5.1-12.5,4.5-16.8-2.2c-1.3-2-2-1.4-3.4-0.5c-3.1,2.2-6.3,4.3-9.6,6.3c-1.7,1.1-2.6,1.8-0.6,3.6c5.5,4.9,9,12.6,18,12.3
		c0.5,0.1,1,0.3,1.4,0.6c2.4,1.8,4.1,0.8,6-1c12.6-11.9,25.2-23.8,35.3-37.9c6.3-8.8,11.5-18.3,15.5-28.4
		C340.6,133.2,337.4,131,329,112.5z"/>
	<path fill="#1E9AB0" d="M111.2,259.2c-15.7,3.3-31.5,5.1-47.5,6.6c-3.3,0.3-6.8-0.3-10.3,1.3c6.5,5,13.2,8.7,21,6.6
		c8.1-2.1,15.9-1.3,23.7,0.3c22.9,4.8,43.9,13.1,60.7,30.3c4,4.2,8.9,7.5,13.5,11.1c8.9,6.7,13,18.3,9.5,28.8
		c-0.8,2.3,0,3.3,1.3,4.7c4.9,5,10.2,9.6,15.9,13.7c8.4,6.2,14.6,14.8,17.8,24.7c0.5,1.5,0.8,2.9,2.4,3.6c13.6,6,27.5,10.7,42.6,12
		c-0.9-1.4-2.3-1.6-3.4-2.1c-44.5-19.7-73.1-52.2-81.8-100.9c-0.4-2.5-1.7-4.7-3.7-6.2c-15.8-13.7-32.9-25.2-52.3-33.3
		C117.8,258.9,114.4,258.5,111.2,259.2z"/>
	<path fill="#57E3DC" d="M409.9,399.1c-3.2-0.3-6.6,0.1-8.6-2.9c-1.2-1.9-2.9-2.5-4.8-3.2c-12.2-4.5-24.2-9.4-35.6-15.6
		c-31.6-17.2-56.4-40.9-71-74.4c-2.8-6.2-5.9-12.3-9.4-18.2c-6.2-10.9-10.7-22.5-10.8-36.5c-5,4.8-9.3,10.2-13,16.1
		c-5,8-6,16.4-3.3,25.4c3.2,10.7,8.4,20.7,15.5,29.3c24.1,29.6,55.2,50.3,87.2,70.1c1.7,1,3.6,1.8,5.5,2.5
		c12.3,4.9,23.1,11.8,30.6,23.1c1.3,2,3,2.3,5,2.5c12,0.9,23.9,1.8,35.8,2.8c5.3,0.5,10.6,1.1,16.8,1.8c-1.4-2.1-2.1-3.4-3-4.5
		C437.3,405.7,424.6,400.4,409.9,399.1z"/>
	<path fill="#284058" d="M51.7,637.7c1.2-2.2,2.1-4.5,2.8-6.9c2.4-7.6,3.4-15.3,1.5-23.1c-1.3-5.2-3.4-5.9-7.8-3
		c-2.8,1.9-4.7,4.6-6.5,7.4c-7.4,11.2-15.7,21.8-22.2,33.6c-1.4,2.3-3.2,4.3-5.4,5.8c-2.7,2.2-5.4,6.5-9.3,3.8
		c-3.6-2.5-0.7-6.5,0.4-9.6c7.4-21.7,20.7-40.5,30.1-61.2c0.7-1.3,1.6-2.6,2.5-3.8c6.5-10.3,11.5-21.4,14.7-33.2
		c1.2-4.5,2.4-9.1,0.9-13.8c-1.6-5-4.8-6-8.5-2.6C37,538.2,29,545,22.5,553.3c-1.2,1.6-2.6,3-4.1,4.3c-3.4,2.6-6.1,1.4-6.5-2.8
		c-0.4-4.7,0.2-9.4,1.7-13.8c6.7-17.8,14.5-35.2,21.4-53c7.6-19.6,13.5-39.6,19.4-59.7c0.6-2.4,0.7-4.9,0.4-7.4
		c-0.2-3.3-1.7-6.6-4.9-7.5c-3.5-1-4.6,2.6-6,4.9c-6.8,11.8-12.4,24.3-16.9,37.1c-2.3,6.9-5.3,13.6-9,20c-0.9,1.5-1.9,3.3-3.6,2.9
		c-1-0.2-1.8-2.3-2.3-3.6c-1.8-4.4-1.7-9.3,0.1-13.7c3.7-8.5,4.5-17.7,6.3-26.6c7-35,14.4-70,18.9-105.5c0.5-4.4,0.9-8.7-1.9-12.5
		c-1.7-2.4-3.4-3.1-5.9-0.3C20.9,326.5,14,337.8,10,351c-2.2,7.4-5,14.8-10,21v373c4.9-7.7,9.2-15.8,12.9-24.2
		C25.8,693.1,36.1,664.2,51.7,637.7z"/>
	<path d="M436,367.9l-0.1,0.1h0.1C436,368,436,368,436,367.9L436,367.9z"/>
	<path d="M481.1,381C481,381,481,381,481.1,381C481,381,481,381,481.1,381L481.1,381z"/>
	<path id="live131m2" fill="#00AAF0" d="M591.2,661.2c-8.6-18.5-25.3-29.4-40.1-43c-0.7,3.8,0.2,6.9-1.1,9.7c-1.3,3-0.6,4.8,1.9,7.1
		c17,15.5,13.5,41.8-6.9,52.4c-5.5,2.8-11.4,4.7-16.9,7.3c-13.3,6.4-24.6,15.2-29.3,29.7c-6.8,20.4-2.1,39.7,7.9,58.1
		c1.8,2.8,2.9,6,3.5,9.3c2.2,17.6-6.2,31.3-23.3,36c-6.3,1.7-12.6,3.1-19,4.1c-18.3,2.8-36.2,8.5-55.2,7.5c-12-0.6-20.2,10-18.9,22
		c0.3,3,1.1,5.9,1.7,8.8c4.6,22.3-2.1,37.4-21.7,48.8c-11.6,6.9-22.6,14.7-33,23.3c-16.7,13.5-28.5,30.5-36.6,50.3
		c-1.1,2.8-1,4.6,1.3,6.9c7.4,6.9,13.6,15.1,18.2,24.1h95.1c0.3-0.4,0.7-0.7,1.2-0.7c0.2-0.1,0.3-0.2,0.6-0.2
		c3.9-5.8,9.9-8.7,16.3-10.7c12-3.8,24-2.3,35.9,1.1c3.6,1,7,2.7,11.3,2.5c-3.1-4.8-6.2-9.2-8.8-13.7c-11.9-20.3-19-41.8-19.6-65.7
		c-0.4-16.4,5.8-29.9,14.3-43c1.2-1.8,4-1.7,5.7-3.4c10.2-9.6,22.6-15,35.8-19c11.6-3.5,23.1-7.2,34.6-11.1
		c15.7-5.3,25.2-23.6,21.1-40.7c-4-16.7-10.8-32.6-20.1-47c-6.4-9.8-11.8-20.1-13.9-31.8c-1.7-10.1,1.3-18.3,9.8-24.5
		c6.2-4.5,13.2-6.9,20.5-8.9c8.8-2.5,16.8-6.7,22.7-13.8C594.1,683.5,596.4,672.7,591.2,661.2z"/>
	<g id="live131m1">
		<path fill="#F87AB3" d="M369.3,482.4c-1.8-0.4-3.4,1.2-4.4,2.8c-2.1,3.2-3.1,7-5.8,9.8c-4.8,5-8,11-10.4,17.4
			c-2.8,7.1-5.5,14.2-8.1,21.4c-0.5,1.4-2.8,3.2,0.1,4.6c2.8,1.4,3-1.4,3.8-2.6c8.1-11.4,14.3-24,21.9-35.7c2.6-4,4.2-8.5,4.7-13.3
			C370.7,485.3,371.5,482.9,369.3,482.4z"/>
		<path fill="#FFE1F2" d="M345.6,541.2c1.8,1.5,2.6,0.1,3.5-1.1c11.7-14.1,22.7-28.7,33-43.8c2.7-4.1,4.6-8.5,4.8-12.6
			c0-3.6-1-7.1-2.9-10.2c-3.9-5.7-11-9.3-15.2-6.7c-8.4,5.3-16.9,10.8-20.5,20.9c-2.1,5.8-4.6,11.4-7,17.1c-3.5,9-5.9,18.4-7,28
			c-0.2,1.4-0.8,3.2,1.4,3.5c1.9,0.3,1.9-1.4,2.3-2.6c2.3-6,5-12,6.8-18.2c3.6-12.3,12.8-21.2,18.7-32.1c1.2-2.3,3.9-4.2,6.7-3.2
			c3,1.1,2.8,4.3,2.6,6.9c-0.5,6.3-3.4,11.7-6.7,17c-6.9,11.2-13.7,22.4-20.6,33.6C345.2,538.9,344,539.9,345.6,541.2z"/>
		<path fill="#FFE1F2" d="M325.4,458.1c-7,6.8-11.4,15.7-12.6,25.4c-1.7,12.7,0.2,25.2,0.2,37.9c0,3.2,0,6.3,0,9.5
			c0,1.8,0,3.3,2.5,3.3c1.9,0,2.5-0.8,2.7-2.7c1.5-12.7,3.2-25.4,4.8-38.1c0.9-6.8,1.7-13.5,3.7-20.1c0.9-2.9,2.9-5.2,6-5.2
			c3.3,0,3.9,3.2,4.5,5.8c2.1,9.6,0.3,18.9-2.8,27.9c-3.2,9.4-5.8,19.1-7.7,28.9c-0.5,2.5-0.2,3.6,2.5,4.1c2.6,0.5,3.1-0.8,3.3-2.9
			c0.3-2.3,0.7-4.6,1.1-6.9c2.1-14,8.5-26.5,13.6-39.5c3.3-8.3,2.3-16.5-1.3-24.2C342,453.1,331.8,451.7,325.4,458.1z"/>
		<path fill="#F87AB3" d="M335.7,477.9c-0.8-2.7,0.2-7.2-3.4-7.4c-3.6-0.1-4.1,4.1-4.8,7.2c-2.5,10.4-2.6,21.1-4.5,31.5
			c-1.3,7.2-1.9,14.5-2.8,21.8c-0.1,1.2-0.7,2.8,1.5,2.9c1.8,0.2,2.3-0.8,2.5-2.3c0.1-0.7,0.3-1.3,0.5-1.9c1.8-10,4.4-19.8,7.9-29.3
			c2.1-5.8,3.2-11.9,3.2-18.1l0,0C335.8,480.8,336.1,479.3,335.7,477.9z"/>
	</g>
</g>
</svg>
