<?xml version="1.0" encoding="utf-8"?>
<!-- Generator: Adobe Illustrator 25.4.0, SVG Export Plug-In . SVG Version: 6.00 Build 0)  -->
<svg version="1.1" baseProfile="tiny" id="图层_1"
	 xmlns="http://www.w3.org/2000/svg" xmlns:xlink="http://www.w3.org/1999/xlink" x="0px" y="0px" viewBox="0 0 768 1024"
	 overflow="visible" xml:space="preserve">
<g>
	<path d="M768,109.1v4l0,0V109.1L768,109.1z"/>
	<rect x="768" y="457.1" width="0" height="2"/>
	<polygon points="564,1024 566,1024 566,1024 	"/>
	<path fill="#DC7126" d="M428.1,338.6c-1.4-1.5-3.6-2.1-5.5-1.5c-2.5,0.7-1.1,2.8-1,4.2c0.6,7.1,2.2,14.2,4.6,20.9
		c5.5,15.1,13.2,28.8,27.8,37.2c1.4,0.8,2.8,1.9,4.7,2c0.9-0.2,2.1-0.5,3.2-0.8c10.8-2.4,19.5-9.2,29-14.2c2.1-1.2,3.5-3.2,3.8-5.6
		c0.2-1,0.3-2.2-0.1-2.9c-0.7-0.9-1.8,0.1-2.6,0.5c-2,0.9-3.9,1.8-5.8,2.9c-8.8,5.5-16.8,4-25-1.7c-13.8-9.6-23.7-22.2-31-37.2
		C429.7,341.1,429,339.8,428.1,338.6z"/>
	<path fill="#DC7126" d="M407.1,362.4c-1.7,0.6-1.7-1.5-2.1-2.6c-1.4-3.4-2.4-7-4.2-10.1c-3.3-5.6-7.3-10.7-15.2-9.6
		c0.1,1.9,1.5,3.3,2.4,4.8c7.1,12.6,12.9,25.6,13.9,40.2c0.2,2.6,1.2,5.1,3.1,7.1c5.1,5.9,12.3,8.4,19,11.7
		c10.4,5.2,20.6,5.9,30.5-1.6c-9.8-5.6-17.9-13.9-23.3-23.8c-5.8-10.7-9.7-22.3-11.3-34.4c-1-7.4,0.1-6.7-6.9-4.7
		c-3.4,1-6.7,2-10.3,1.8c-2.9-0.2-3.5,0.5-2,3.2c2.6,4.8,4.8,9.9,6.5,15.1C407.3,360.3,408.4,361.9,407.1,362.4z"/>
	<path fill="#DC7126" d="M498.9,331.4c-0.5-3.3-2-3.4-4.7-2.4c-8.3,2.9-17,4.8-25,8.7c-3,1.4-6.3,2.2-9.7,2.1
		c-9.3-0.1-18.6,0.8-28.3-0.3c7.7,17,18.5,30.6,34,40.2c4.1,2.5,8.6,4.8,13.2,2.7c7.3-3.4,16.8-4.2,19.2-14.3c0.3-0.8,0.8-1.5,1.5-2
		c1.3-1.1,2-2.7,1.9-4.3C501.3,351.6,500.6,341.4,498.9,331.4z"/>
	<path fill="#AA97A6" d="M316.8,184.8c-1.3,0.2-7.6,6-7.7,7.4c-0.8,12.9,1.1,25.8,5.5,38c0.6-0.4,1-0.5,1.1-0.8
		c5.2-14.2,2.7-28.9,2.3-43.5C318,185.3,317.8,184.7,316.8,184.8z"/>
	<path fill="#F2D381" d="M425.4,264.8c-0.8-0.2-1.6-0.4-2.4-0.7c-4-1.3-6.8,0.1-8.6,3.7c-0.7,1.3-1.7,2.6-2,4
		c-1.8,7.5-6.7,9.9-14,10.1c-5.5,0.1-10.9,1.4-16.4,2c-2.8,0.3-4.1,2.2-3.8,4.4c0.3,2.5,2.7,1.1,4.1,0.9c5-0.6,9.8-1.7,14.8-2.2
		c7.4-0.6,11.5,4.5,8.9,11.3c-1.8,4.5,0,8.5,0.1,12.8c0,1.8,1.3,1.1,2.1,0.8c6.4-2.4,13-4.1,18.8-8c2-1.2,3.4-3.2,3.6-5.5
		c0.8-8,1.7-16,2.4-21.7C432.8,265.9,434.8,267.4,425.4,264.8z"/>
	<path fill="#F7EB4B" d="M423.3,709.9c-7.9,15-15.5,30.1-28,43.5c3.8-0.3,6.1-0.5,8.4-0.8c1.8-0.2,3.4-0.6,4.3-2.7
		c5.3-13.2,10.8-26.3,16.2-39.5L423.3,709.9z"/>
	<path fill="#DFA193" d="M474.8,321.2c-2.9,1.3-3-1.5-3.5-2.8c-1.3-3.3-3.2-3.8-6.1-2.2c-1.8,0.9-3.8,1.5-5.4,2.5
		c-6.1,3.8-13.3,5.5-20.5,4.9c-4.6-0.4-8.7,1.3-13,4.3l0,0c2.5,0.6,4.7,0.8,6.6,1.6c6.8,3,14.5,3,21.3,0.1c2.8-1.2,5.8-1.7,8.8-1.5
		c10.3,1,19.7-1.9,28.8-6.3c8.3-4,17.2-6.2,26.4-6.8c10.8-0.7,21-3.5,29.8-10.1c4.4-3.3,9.3-5.8,14.5-7.6c1.2-0.4,2.6-0.3,3.1-2
		c-2.7-0.2-5.4,0.1-7.9,1c-16.9,5.3-34.4,7.6-52,8.8c-8.5,0.5-16.8,2.6-24.6,6c-2,0.9-3.8,1.4-2.5,4.6
		C479.8,318.4,477.2,320.1,474.8,321.2z"/>
	<path fill="#AA97A6" d="M365.6,165.9c4.5,4,6,9.3,6.6,15.1c0.2,3,1,5.9,2.3,8.5c3.3-8.8,4.1-19.7,2.7-29.5c-1-6.8-4.5-13-9.8-17.5
		c-5.2-4.5-5.1-4.3-9.5,0.8c-2.2,2.5-2.3,4.1-0.1,6.6c3,3.6,5.1,7.9,6.1,12.4C364.1,163.7,364.7,164.9,365.6,165.9z"/>
	<path fill="#F6923F" d="M436.3,647.5c11.4,5.4,18.8,14.5,24.2,25.6c3.4,7,7.2,13.9,10.8,20.8c1.1,2.1,2,2.3,3.4,0.2
		c2.7-4,5.8-7.8,9.2-11.2c5.1-4.9,8.8-10.8,12.5-16.8c1-1.4,1.5-3,1.5-4.7c-0.1-1.3-0.5-2.6-1.3-3.7c-3.6-6.8-9.9-10.2-16.6-12.8
		c-6.8-2.6-13.4-5.9-19.6-9.7c-5.5-3.4-11.5-6-17.3-8.8c-2.8-1.4-4.4-1.8-4,2.4c0.5,5.7,0.4,11.4-4,15.9
		C433.3,646.7,435.3,647.1,436.3,647.5z"/>
	<path fill="#AA97A6" d="M322.8,442.1c-0.6-8.1-0.6-7.9-8.7-8.9c-3.5-0.4-4.1,0.8-4.1,3.9c0,11.8,1.3,23.6,4,35.1
		c0.4,1.7,0,4.3,1.9,4.5c1.7,0.2,2.5-2.4,3.3-4c0.3-0.4,0.5-0.9,0.6-1.4c-0.3-7.7,4.9-14.5,3-21.9
		C322.8,446.7,322.9,444.4,322.8,442.1z"/>
	<path fill="#F6923F" d="M302.2,703.6c-2.8,24.3-4.2,48.8-4.2,73.2c0,13.8,0.1,27.7-0.1,41.5c0,3.2,0.8,5.1,3.7,6.8
		c8.8,5,17.4,10.6,24.9,17.5c2.2,2,3.9,2,6.5,0.7c17.1-8.6,34.1-17.4,50.8-26.7c4.1-2.1,8-4.7,11.6-7.7c3.2-2.9,7-3.5,11.2-2.1
		c6.5,2.1,12.8,4.8,18.7,8.1c3.2,1.7,4.1,0.7,4.3-2.3c0.1-1,0.2-2,0.4-3c2.8-18.9,5.2-37.9,11.9-56c1.8-4.8,1.5-5.1-3.5-4.2
		c-14.2,2.7-28.6,4.6-43,6.4c-1.2,0.2-2.8,1-3.6-0.5c-0.8-1.5,0.9-2.3,1.7-3.1c5.6-5.7,10.5-12.1,14.5-19
		c7.5-12.6,14.3-25.5,20.5-38.8c1.5-3.1,3-3.6,5.7-2c6.7,4,13.5,7.9,20.1,12c9.9,6.3,9.8,6.3,15.9-3.8c0.9-1.2,1-2.8,0.1-4
		c-4.8-8.8-9.3-17.7-14-26.5c-4.8-9.2-12.5-16.6-21.9-21.1c-2.8-1.4-5.8-0.5-8.5-1.9c-10.9-5.5-21.7,1.7-20.9,13.9
		c0.4,5.5-1.1,9.9-6,12.7s-9.5,1.5-13.9-1.7c-4-3-5.9-2.2-7.3,2.8c-0.8,2.9-1.6,5.7-3.5,8.2c-4.8,6.2-11.2,9.8-18.6,11.8
		c-2.2,0.6-4.8,1.5-6.4-0.9c-1.5-2.2-0.4-4.5,0.7-6.6c1.5-2.7,4-4.5,6.2-6.4c0.6-0.5,1.3-1.2,0.6-2.1s-1.5-0.4-2.2,0.1
		c-2.2,1.5-4,3.6-6.7,4.3c-4.2,1.2-7.9,3.8-10.5,7.3c-7.8,9.3-18,11.8-29.3,9.1C303.2,697.9,302.7,699.7,302.2,703.6z"/>
	<path fill="#F7EB4B" d="M412.3,751.7c10-1.7,20.3-3.5,30.6-5.2c1.3-0.2,2.4-1.2,2.8-2.5c4.3-10.1,9.4-19.8,15.2-29.1
		c1.2-2,1.1-3.1-0.9-4.4c-8-5.3-16.2-10.4-24.6-15.2c-2.5-1.4-3.3-0.7-4.2,1.7c-2.8,7.6-5.7,15.2-8.8,22.8
		c-3.8,9.6-7.8,19.1-11.7,28.6C410.4,749.6,408.7,751.4,412.3,751.7z"/>
	<path fill="#381015" d="M272.1,552.2c11.4-22.2,23.2-44.2,37.4-64.8c0.8-1.2,2.3-2.3,1.9-5.3c-7.5,10.1-16.3,17.6-24.8,25.3
		c-15.3,13.8-29,29-37.4,48.2c-3.6,8.2-7.4,16.4-13.1,23.5c-0.9,1.2-1.3,2.7-1.2,4.2c-0.6,18.3-1.2,36.7-1.8,55
		c0,1.2-0.2,2.5,0.2,3.5c4.7,9.2,11.4,16.6,21.3,21.4c-0.2-4.3-0.4-8.3-0.6-12.2c-0.8-18.6,3.5-36.8,5.6-55.1
		C261.4,580.5,265.2,565.9,272.1,552.2z"/>
	<path fill="#FEE43B" d="M304.1,686.1c-0.9,11.1-0.2,11.8,10.9,11.9c6.6,0.1,12.3-1.3,16.3-5.1c5.6-5.2,10.7-10.9,18.4-13.2
		c1.5-0.4,2.7-1.9,4-3c0.8-0.6,1.5-1,1.1-2.4c-1.1-4-3.7-5.5-7.6-4.2c-11.3,3.8-22.8,7.1-34.9,7.8
		C304.7,678.3,304.7,678.3,304.1,686.1z"/>
	<path fill="#381015" d="M327.8,673.7c12.6-3.2,24.8-7.5,37.1-11.8c1-0.3,2.6-0.4,2.7-1.6c0.1-1.2-1.5-1.6-2.4-2.3
		c-9.7-7-19-14.6-27.8-22.8c-11-10.2-21.1-21.3-31.4-32.7c0.1,1.6,0.2,3.3,0.4,4.9c2.9,21.2,8.3,41.7,14.5,62.1
		C322.1,673.8,323.8,674.8,327.8,673.7z"/>
	<path fill="#FED7C9" d="M341.7,200.8c1.7,0.5,7.7-4.8,7.6-6.5c-0.5-6.2-1.9-12-5.8-17.2l0,0c-0.4,7-1.2,13.9-2.4,20.8
		C340.9,198.8,340,200.3,341.7,200.8z"/>
	<path fill="#4F2224" d="M425.3,840.7c0.1-1.1,0.6-2.3-1.2-2.6c-3.4-0.7-8.1,3-8,6.5c0.2,3.7,2.9,5.1,5.9,5.6
		c3.6,0.6,1.6-2.8,2.3-4.2C425.1,844.6,425,842.5,425.3,840.7z"/>
	<path fill="#F7EB4B" d="M428.2,821.3c0.9-2.2-0.6-3.2-2.4-4.1c-3.6-1.7-7.2-3.4-10.8-5.2c-8.1-4.1-14.6-4.4-23.2,1.5
		c-18.6,12.9-39.5,22.1-59.6,32.3c-1.9,1.2-4.4,0.8-5.8-0.8c-8.7-7.9-18.6-14-28.6-20c-11.3-6.8-22.2-14.2-31.6-23.5
		c-2.3-2.3-4.1-2.4-6.9-1c-18.6,9.2-37.2,18.5-56.1,27.3c-4.7,2.2-5.6,4.7-5,9.5c1.8,14.1,1,28-5.3,41c-1,1.8-0.7,4,0.7,5.4
		c1.7,2.1,3,0,4.1-0.7c16.4-9.3,32.7-18.7,49-28c6.6-3.7,13-7.6,20.7-9.1c4.7-0.9,8.2-0.8,11.1,3c7.1,9.6,17.1,15.7,27.1,21.7
		c11.7,6.8,22.8,14.5,33.2,23c3.4,2.8,5.6,2.6,8.9,0.1c19.9-14.5,38.8-30.5,61-41.6c1.5-0.7,2.3-1.4,1.9-3.4
		c-1.5-8.3,0.5-12.9,8.7-14.1c7.3-1.1,8-5.2,8.5-10.7C428,823.1,428.1,822.2,428.2,821.3z"/>
	<path fill="#F7EB4B" d="M264.6,849.8c-0.8,0.9,2.5,3,4.1,4.3c17.2,13.7,35,26.6,50.9,41.8c1.6,1.4,3.3,2.8,5.1,4
		c6.9,5.1,6.8,5,13.8,0.2c2.4-1.7,2.3-2.5,0.1-4.2c-9.8-7.8-20-14.9-30.7-21.4c-11.4-6.8-23-13.5-31.3-24.4c-1.3-1.9-3.4-3-5.7-2.9
		l0,0C269.2,847.8,266.1,848.1,264.6,849.8z"/>
	<path fill="#F7EB4B" d="M449.3,890.8c1.1,0.3,2.5,0.5,3.3-0.5s0-2.2-0.6-3.2c-1.5-2.4-3-4.8-4.8-7.6c0,3.3,2.4,5.6,1.9,8.6
		C449,888.9,447.1,890.2,449.3,890.8z"/>
	<path fill="#F6923F" d="M472.6,826.4c7.6-3.5,14.5-8.1,20.6-13.7c1.1-0.8,1.7-2.1,1.6-3.4c-0.7-7-1.4-14-2.1-21.1
		c-8.2,11.9-16,23.7-22.1,36.6c-0.2,0.5-0.5,1.4-0.2,1.8C471,827.4,471.8,826.7,472.6,826.4z"/>
	<path fill="#F7EB4B" d="M528.1,786.8c-0.8-0.3-2.4,1.5-3.5,2.4c-11.3,9.4-22.5,18.8-33.8,28.2c-5.4,4.5-11.2,8.5-17.8,11
		c-4,1.5-6.4,3.8-7.5,7.8c-0.7,2.4-2.6,4.9-2.2,7c0.4,2.5,3.9,1.6,6,2.5c4.6,2,5,3.6,1.5,7c-7.2,7.1-14.9,13.8-18.2,24
		c-0.8,2.3-0.7,3.6,1.5,4.8c2.6,1.5,5.4,3,7.4,5.1c3.2,3.5,5.3,2,7.3-1c0.7-0.9,1.4-1.9,2-2.9c4.2-8.7,10.7-15.7,17.4-22.4
		c6.2-6.3,11.6-13.3,16-21c7.7-13.1,15.3-26.1,23.1-39.1c1.5-2.3,2.1-5.1,1.8-7.8l0,0c0.1-0.4,0.1-0.8,0-1.3
		C528.8,789.6,529.9,787.4,528.1,786.8z"/>
	<path fill="#F6B752" d="M152,921.7c1.1-0.4,2.1-1,3.1-1.7c15.6-11.3,23.8-26.5,23.8-45.8c0-16.6-1.9-33.1-7.5-48.6
		c-9.9-27.7-28.5-47.3-58-53.8c-14.7-3.3-29.8-3.9-42.8,6.8c1.2,1.2,2.7,1.3,4.1,1.7c8,2.4,15.9,5.1,22.7,10.2
		c18.1,13.6,32.1,30.5,40.4,51.6c2.1,5.4,5.1,9,10.3,11.2c1.9,0.8,5.2,1.6,5.2,3.3c-0.1,2.3-3.6,2.1-5.5,3.4c-1.5,1-4.4,0.8-3.8,3.7
		c1.3,6,2.9,12,4.6,19c2.5-4,4.4-7,6.2-10c0.5-0.9,0.5-2.7,2.2-1.8c1.3,0.6,0.3,1.7,0,2.6c-1.7,4.7-3.4,9.3-5.2,14
		c-0.5,1.2-1.3,2.4-0.9,3.8c2.8,11.2,0.5,21.8-5.1,32.9C148.7,922.9,150.4,922.4,152,921.7z"/>
	<path fill="#C5541A" d="M495.5,781.2c-0.8,1.1-1.2,2.4-1.1,3.7c0.8,7.1,1.5,14.2,2.3,21.3c0.2,1.9,0.5,2.9,2.6,1.2
		c8.9-7.5,18.2-14.5,26.9-22.2c1.5-1.4,2.2-2.7,1.8-4.8c-2.7-13.9-5.4-27.9-5.3-42.4l0,0C512.4,751.7,503.4,766.1,495.5,781.2z"/>
	<path fill="#AA97A6" d="M303.9,194.3c-4,2.8-7.9,5.6-12.1,8c-2.6,1.5-3.2,3-2.2,6c7.3,21.8,16.6,42.8,27.9,62.8
		c12.2,21.2,27.7,40,44,58c16,17.5,27.6,38.7,33.7,61.6c1,3.9,1.8,8,4.2,12.5c1.3-14.5,0.2-27.7-5-40.4
		c-6.3-15.2-15.2-28.8-25.4-41.7c-1.8-2.3-3.1-5-5.6-6.9c-12.2-9.2-22.3-20.5-31.8-32.3c-5.7-7.1-9.3-15.4-11.8-24.1
		c-0.9-3.1,0.5-6.2-1-9.6c-7.2-16.8-12.5-34-11.9-52.6C307.1,192.4,305.9,193,303.9,194.3z"/>
	<path fill="#AA97A6" d="M317.1,234c5.7-6.7,11.3-13,16.2-20.7c-2.3,0.3-3,3.2-4.4,1.7s1-2.5,2-3.3c5.6-4.2,7.7-10.1,8.6-16.8
		c1.3-8.4,1.7-16.9,1.2-25.4c-0.1-1.6,0.3-3.9-1.2-4.5c-1.3-0.5-2.3,1.6-3.4,2.5c-2.1,1.9-3.9,4.3-6.2,5.8
		c-9.2,5.6-11.1,13.5-9.5,23.7c1.8,11.1,0.9,22.4-2.7,33.1C317.4,231.2,316.7,232.3,317.1,234z"/>
	<path fill="#F6B752" d="M110.6,899c7.5,3,15.4,1.9,23.2,2.1c1.5,0,2.8-1.2,3.5-2.6c2.5-4.8,7.9-8,9.1-13c1.2-5.1-2-10.6-3.2-15.9
		c-0.3-1.1-0.6-2.3-0.8-3.4c-0.3-2.9-1.5-3.6-4.2-2.2c-4,2-8.1,3.8-12.2,5.6c-3.2,1.4-5.1,0.4-4.7-2.9c1-7.6,2.3-15.1,3.5-22.7
		c0.4-2.8,2-3.2,4.3-1.9c2.5,1.4,4.9,2.8,7.9,4.6c0.1-3-1.2-4.8-2-6.7c-2.9-6.9-6.6-13.5-11-19.5c-11.5-15.5-24.2-29.8-43.3-36.3
		c-11.1-3.7-8.5-4.3-13.9,5.7c-1.8,3.3-1.4,4.9,1.8,7.2c17.7,12.8,32.7,29.1,44.1,47.8c0.8,1.2,1.8,2.6,1.9,4
		c1.3,15.7,0.6,31.2-5.4,46.1C108.1,897.1,108.4,898.1,110.6,899z"/>
	<path fill="#AA97A6" d="M347.7,155.4c-4,4.1-6.5,8-4.9,13.9c0.4,1.6,1,3.1,1.9,4.5c3.2,4.9,5.3,10.4,6.3,16.2
		c0.4,2.1-0.9,5.3,3.1,5.5c0.2,0,0.5,1.1,0.4,1.1c-5.3,3.4-1.1,8.3-2.9,12.7c2.7-0.7,3.3-2.3,4.2-3.6c8.3-12,6.7-25.6,6.6-39
		c-0.2-3.2-1-6.2-2.4-9.1C355.6,147.7,355.2,147.7,347.7,155.4z"/>
	<path fill="#AA97A6" d="M245.5,376.7c-4.9,12.9-9.3,26-14.1,38.9c-1.2,3.2-0.1,3.7,2.8,3.4c5.8-0.6,10.2-4.4,11.8-10.4
		c1.2-4.6,2.7-5.4,7.2-3.9c1.3,0.3,2.5,0.8,3.7,1.5c3.8,2.6,5,0.9,6.5-2.8c12.3-30.4,16.6-62.2,17.5-94.7c0.3-12-0.2-24-1.6-35.9
		c-1.9-16.7-5.2-33.2-6.4-50c-0.6-9.2-0.5-9.1-8.9-5.6c-3.1,1.3-4.2,2.8-4.1,6.2c0.3,13.7,1.3,27.3,2.7,40.8
		c1.2,12.4,1.9,24.9,0.9,37.4C261.4,327.6,254.7,352.4,245.5,376.7z"/>
	<path fill="#AA97A6" d="M227.9,480.4c0.8-1.5,2.9-3.2,0.3-5.1c-3-2.1-5.6-4.8-9-6.2c-5.7-2.5-12,0-13.2,5.6
		c-4.5,21-8.6,42.1-7.8,63.7c0.3,9,1.7,18,5.4,26.5c-0.4-13.7,2.4-26.8,6-39.8C214,509.5,220.6,494.7,227.9,480.4z"/>
	<path fill="#AA97A6" d="M276.8,211.1c-2.2,1-2.8,2.5-2.5,4.8c1.1,9.6,1.6,19.3,3.2,28.8c4.8,28,6.9,56.2,4.5,84.6
		c-2,22.8-5.6,45.2-13.7,66.8c-1.3,3.6-2.6,7.2-4.1,10.7c-1.1,2.6,0.7,3.1,2.4,3.9c2.4,1.1,2.3-0.7,2.7-2.1c1.4-4,3.7-7.5,6.8-10.3
		c5.3-5.2,8.9-11.6,11.9-18.3c3.9-8.5,6.1-17.6,8-26.7c1.5-7.3,4.4-14.1,10.5-18.8c2.7-2.1,3.2-4.5,3.5-7.7
		c1.4-20-7.6-37.8-12.2-56.4c-1.4-5.5-3.3-11.1-4.6-16.7c-1.1-5.1,0.8-8.5,5.9-10.4c2-0.8,1.1-1.6,0.8-2.5
		c-4.6-10.7-8.8-21.6-12.5-32.6c-0.2-0.7-0.2-1.7-1.5-1.8l0,0C282.9,207.8,279.9,209.6,276.8,211.1z"/>
	<path fill="#B1A0AD" d="M312.3,328.6c1.7,2,4.4-1.4,6.9-1.5c0.3,0,0.7-0.1,1-0.1c7.9-1.2,11.5-7.4,8.4-14.6c-0.6-1.5-1.4-3-2-4.5
		c-1.3-2.9-1.1-6.3,0.7-9.1c1.4-2.3,3.7-4.6,0.8-7.5c-1.9-2-2.4-5.6-5.3-6.3c-7.9-2-14.7-6.1-21.6-11.3c-0.2,2.9,0.9,4.7,1.5,6.5
		c4.2,13.3,9,26.4,9.3,40.6C312,323.5,311,327,312.3,328.6z"/>
	<path fill="#EB9C13" d="M394.9,409.8c0.9,0.9,2.2,1.2,4.4,2.5c-1.7-5.7-3.2-10.3-4.3-14.9c-0.6-2.6-2-3.8-4.6-4.4
		c-9.5-2.3-19.4-3.3-29.2-2.9c-11.5,0.5-23-0.4-34.2-2.4c-10.8-2-21.4-1.2-32.2,0c-11.2,1.2-14.5,10.4-20.6,17.1
		c13.6-4.3,27.4-4.3,41.2-3.5c19.3,1.2,38.6,0.7,57.9,1.8C381.2,403.4,388.8,404,394.9,409.8z"/>
	<path fill="#FFDDCD" d="M321,281.7c-6.4-11-12.3-22.1-17.8-33.5c-0.8-1.7-2.1-3.3-4.2-3c-2.3,0.4-3.9,2.4-3.8,4.7
		c0.4,7.1,0.8,14.7,5.6,20.2C306.2,276,313.3,280.1,321,281.7z"/>
	<path fill="#57262A" d="M318.1,414.7c-3.4-11.8-3.4-11.8-16.9-11.7c-9-0.2-18,1.2-26.5,4.2c-1.4,0.5-3.4,0.1-3.7,2.5
		c-0.3,2.2,0.7,3.3,2.4,4.4c4.5,3.1,8.8,6.6,12.7,10.5c1.3,1.3,2.9,2.2,4.7,2.7c9.1,2.1,18.2,3.6,27.5,4.4c2.3,0.2,3.4-0.2,2.9-2.9
		C320.5,424,319.4,419.3,318.1,414.7z"/>
	<path fill="#AA97A6" d="M257.1,458.8c-5.4,25.5-7.1,51.1-2.2,76.9c0.2,0.8,0.2,2,0.7,2.2c1.2,0.5,1.6-0.8,2.1-1.6
		c7.5-10.8,16.4-20.6,26.4-29.2c3-2.6,3.5-5.1,2.7-8.7c-2.6-12.4-3.8-25-3.5-37.7l0,0c0-4,0-8,0-12c0-1.4,0.2-2.8-1.8-2.6
		c-5,0.3-9.5,1.6-12.5,6.1c-0.8,1.5-1.2,3.1-1.2,4.8c-0.1,2,1.4,4.8-1.4,5.7c-2.4,0.8-3-2.1-4.3-3.4c-0.5-0.5-0.8-1-1.3-1.5
		C259.1,456.3,257.8,455.8,257.1,458.8z"/>
	<path fill="#AA97A6" d="M312.9,476.5c-3.5-13.4-5.2-27.2-4.9-41c0-2-0.6-3-2.7-3.4c-4.3-0.6-8.5-1.4-13.9-2.3
		c4.5,5.5,8.1,10.3,10.1,16c0.5,1.5,2.1,3.3,0.7,4.5c-1,0.8-3-0.1-4.6-0.8c-5.6-2.5-5.7-2.5-6.2,3.6c-1.1,13.7,0.5,27.3,1.5,40.9
		c0.1,1.2-0.7,3,0.9,3.4c0.7,0.2,1.9-1.1,2.7-1.8c5.9-4.7,9.4-11.7,15.8-15.9C313.5,479,313.2,477.7,312.9,476.5z"/>
	<path fill="#502324" d="M357.2,327.5c-7.5-8.9-15.4-17.6-22.4-26.9c-1.1-1.4-2.3-4.3-3.4-3.8c-1.9,0.9-3,3.4-3.5,5.8
		c-0.3,1.8,0.1,3.7,0.9,5.3c1.2,2.6,3.1,5.2,3,7.9c-0.1,7.6,6.2,9.9,10.5,13.9c2,1.7,4.5,2.5,7.1,2.3c1.7-0.3,4-0.6,6.3-1
		c1.1-0.2,2.6,0.6,3.1-0.6C359.4,329.1,357.9,328.4,357.2,327.5z"/>
	<path fill="#AA97A6" d="M254.6,455.2c-2.7-1.7-9.2,0.6-10.2,3.8c-6.9,21.8-12.6,43.8-12.4,66.9c0,13.8,2,27.6,5.8,40.9
		c0.3,1.1,0.2,2.9,1.3,3c1.5,0.2,1.7-1.7,2.2-2.8c4.1-8,8-16.1,12-24.1c0.7-1.4,0.2-2.5-0.1-3.8c-3.1-17.1-4.4-34.3-2.7-51.7
		c1-9.6,2.6-19.1,4.3-28.6C255.2,457.6,256.3,456.2,254.6,455.2z"/>
	<path fill="#DC7126" d="M458,292.4c-7.6,1.3-15.3,2.7-21.4,7.5c-12.4,9.7-27,14-41.5,18.9c-2.7,0.8-5.3,1.9-7.8,3.3
		c-0.7,0.5-2.2,0.8-1.5,2c0.8,1.6,1.8,0.5,2.8-0.2c7.8-5,16.6-7.3,25.5-9c4.9-0.9,9.4-2.2,13-5.6c3.8-3.4,8.3-6.2,13.1-8
		c5.8-2.4,11.5-5.3,17.7-6.5c1-0.2,2-0.3,2.4-1.4C460.4,292.8,459.4,292.2,458,292.4z"/>
	<path fill="#FFFAA0" d="M451.4,273.4c-0.7-1.5-2.1-2.6-3.7-2.8c-3.4-0.6-6.8-1.3-10.2-2.2c-1.7-0.4-2.5-0.1-2.5,1.8
		c-0.1,8.6-0.8,17.3-2.1,25.8c0.2,1.2-1,4.1,2.2,2.2c6.6-3.8,13.9-6.4,21.4-7.5c2.4-0.4,2.5-1.5,1.5-3.4
		C455.8,282.6,453.6,278,451.4,273.4z"/>
	<path fill="#DC7126" d="M392.1,337.9c-5.2-7.1-11.7-11.7-18.7-15.8c2,3.8,4.8,7,6.8,10.7C382.8,337.6,386.8,338,392.1,337.9z"/>
	<path fill="#502324" d="M353.3,333.4c-5.6,1.6-10.1,0-14.3-3.7c-2.2-2-4.7-3.8-7.1-5.5c-0.6-0.4-1.4-1.2-2.2-0.5
		c-0.4,0.4-0.4,1.2-0.6,1.5c0.8,2.5,1.3,4.8,2.1,7c4.5,13.2,13.3,23.2,23.8,32c7.7,6.4,16.2,11.8,22.6,19.6c2.9,3.6,7,6.1,11.6,6.8
		c4,0.8,3.6-0.5,2.8-3.4c-5.3-17.9-14-34.6-25.6-49.3C362.7,333.1,358.7,331.9,353.3,333.4z"/>
	<path fill="#502324" d="M299.2,349.8c-3.5,12.5-5.7,25.3-12.1,36.8c1.7,0.7,3,0,4.2-0.2c9-1.9,18.2-3.6,27.2-1.9
		c18.6,3.4,37.4,3.7,56.2,3.7c0.9,0,2.2,0.6,2.7-0.4c0.7-1.3-0.8-2-1.5-2.8c-4.8-5.6-10.7-10-16.5-14.5
		c-14.1-10.8-26.3-23.1-31.3-40.8c-0.3-1.2-0.5-1.9-2.2-1.7C312.6,329.8,302.9,336.5,299.2,349.8z"/>
	<path fill="#EB9C13" d="M410.4,412.9c6.8-0.1,13.5-0.5,20.3-4c-10.2-4.8-20.6-7.8-28.9-16.9c0,4.9,0.1,8.6,0,12.2
		C401.5,413.1,401.5,413.1,410.4,412.9z"/>
	<path fill="#502324" d="M402.4,431.5c1.8,1.6,2.9,0.5,4.2-0.6c7.9-6.4,16.3-12.2,25.1-17.2c1.7-1,3.8-1.6,5.2-3.4
		c-1.4-0.6-2.9-0.5-4.2,0.2c-8,3.9-16.6,4.5-25.3,4.6c-2.3,0-5.9-2-6.9,2.4c-0.1,0.4-1.1,0.4-1.2,0c-0.5-5.5-6.1-5.4-8.9-8.3
		c-3.1-3.2-7.5-3.9-12.7-3.9C385.8,414.8,393.4,423.8,402.4,431.5z"/>
	<path fill="#381015" d="M216.5,638.2c0.8-2.7-0.9-4.3-3.3-5.6c-3-1.5-6-3-9.5-2.5c-2.5,0.3-5.8,0.1-7.1-0.9
		c-5.2-3.7-9.4-0.9-14,0.8c-0.7,0.4-1.5,0.6-2.3,0.8c-7.4,0.9-7.1,6.3-4.5,11.1c3.6,6.5,9.5,10.3,16.6,11.8c9.6,2,19.3,3.5,29,5.2
		c1.4,0.2,3,0.6,4.2-0.9c1.9-2.4-0.7-11.4-3.7-12C217.3,645.2,215.8,642.7,216.5,638.2L216.5,638.2z"/>
	<path fill="#F6923F" d="M96.2,702c1.6-0.4,2-1.7,2.5-2.6c9.3-14,20.4-26.8,33.1-37.9c6.6-5.9,13.4-11.5,20.4-16.8
		c0.7-0.5,3.7-1,1-3c-8-6-10.1-6.1-18.4-0.1c-2.8,1.8-5.4,3.9-7.8,6.2c-7.7,8-15.9,15.6-24.4,22.8c-3.3,2.8-5.9,6.3-8.8,9.5
		c-1.1,1.2-2.1,2.5-1.6,4.4C93.5,690.4,94.8,696.2,96.2,702z"/>
	<path fill="#F7EB4B" d="M238.4,755.5c0.3-1.2-0.9-2.1-1.5-3c-13.6-18.7-27.3-37.3-40.7-56.1c-2.5-3.5-3.6-2.6-6-0.2
		c-10.9,10.9-21.5,22.3-34.7,30.7c-1.5,1-2.8,2.3-3.9,3.8c-2.7,3.6-2.5,4.3,1.9,5.4c15.6,4,31.3,7.8,46.8,12
		c11.9,3.2,23.9,5.8,36.1,7.8C237,755.9,238.2,756.4,238.4,755.5z"/>
	<path fill="#F6923F" d="M108.7,746.2c0.4,1.2,0.6,2.5,2.3,2.8c10,1.8,18.8,6.5,27.8,10.7c2.4,1.2,3.4,0.4,4.1-2
		c1.7-5.6,3.3-11.2,5.5-16.6c1.3-3.4,0-4.3-2.9-5.1c-5.9-1.6-11.8-3.5-17.7-5.3c-0.9-0.3-2.2-0.8-2.4-1.5c-0.2-1.1,0.8-2.1,1.8-2.8
		c1-0.7,2.3-1.2,3.5-1.9c9.3-5.2,18.6-10.4,27.9-15.6c1.8-1,3.5-2,4.2-4c5-14,11.9-27.2,20.5-39.3c2.2-3.1,0.9-4.9-2.1-6.2
		c-3.6-1.5-7.2-0.9-10.8-0.2c-3.4,0.7-6.8,1.7-10.3,0.7c-6.5-1.9-8.3-6.1-5.1-12c0.5-0.9,1.2-1.7,0.4-3.1
		c-22.5,16.4-42.5,35.2-57.3,59c-0.8,1.3-1,2.8-0.5,4.2C100.6,721.2,104.3,733.8,108.7,746.2z"/>
	<path fill="#F8B952" d="M142.2,632.8c0.7-8.5,4.8-11.6,12.8-9.3c3.7,1,7.6,1.1,11.3,0.2c3.4-0.7,6.8-1.4,10.3-0.1
		c3,1.1,4-1.8,5.4-3.4s-0.5-2.6-1.4-3.6c-6.8-7.8-14.7-14.5-23.6-19.8c-5.6-3.3-11.6-5.8-17.9-7.5c-3-0.8-4.8-0.5-6.1,2.8
		c-5.8,14.7-11.4,29.4-14.6,45c-1.2,4.8-0.8,9.8,1.1,14.4c6.5-6.3,13.6-11.8,21.4-16.5C141.8,634.7,142.3,633.8,142.2,632.8z"/>
	<path fill="#781E7C" d="M84.3,636.5c-0.6,3.9-1.8,8.5,0.9,11.6c6.4,7.2,14.1,12.6,24.4,12.8c2.6,0.1,5-1.4,6-3.7
		c1.6-3,1.8-6.5,0.5-9.6c-1.6-4.6-1.7-9.4-1.8-13.1c0.5-4.9,0.3-8.7-1.4-12.3c-0.7-1.5-1.7-2.5-3.5-2c-0.9,0.2-2.1,0.3-1.8,1.8
		c0.7,3.3-1.9,4.3-3.9,5.6c-4.3,2.4-9,4.4-13.8,5.8C87.9,634,84.7,633.7,84.3,636.5z"/>
	<path fill="#F8B952" d="M90.7,677.5c4.6-3.9,9.6-8.2,14.6-12.6c2.5-2.2,0.5-2.7-1.3-2.8c-6.3-0.6-11.2-3.8-15.6-8.1
		c-0.6-0.6-1.2-1.1-1.9-1.6c-0.7-0.5-1.5-1.1-2.2-0.2c-0.3,0.5-0.5,1.2-0.3,1.8C86.5,662.3,88.8,670.8,90.7,677.5z"/>
	<path fill="#781E7C" d="M105.2,622.8c-0.5-0.8-1.4-0.8-2.2-0.7c-5.7,0.9-10.5,3.4-14.2,9.1c5.4-1.1,10.5-3.2,15.2-6.1
		C104.8,624.5,105.9,624,105.2,622.8z"/>
	<path fill="#F7EB4B" d="M190.7,691c-20.1,14-41.1,26.5-63,37.7c5.9,1.8,11,3.2,16,4.9c2.6,0.9,4,0.2,5-2.2c1.4-3.1,4-5.3,6.8-7.2
		c13.7-8.9,24.6-20.9,35.9-32.4C191.8,691.5,191.7,691.3,190.7,691z"/>
	<path fill="#AA97A6" d="M285.4,448.9c-0.1,4,0,8,0,11.9c-0.7,7,0.1,13.9,0.9,20.9c0.6,5.8,1.8,11.5,2.7,17.2c0.1,0.8,0,2,1,2
		c1.5,0,1-1.4,1-2.3c0-1.2-0.1-2.3-0.1-3.5c-0.9-15.2-3-30.4-1.1-45.7c0.2-1.8-0.3-2.9-2.2-3.1C285.4,446.1,285.4,447.7,285.4,448.9
		z"/>
	<path fill="#502324" d="M210.7,622.8c7.4-3.1,12.2-0.4,13.5,7.5c0.4,2.8,1.9,5.4,4.2,7c2.3,1.8,2.6,0.8,2.7-1.5
		c0.5-17,1-33.9,1.6-50.8c-11.1,12-22.1,23.7-35.3,33.1c-1.7,1.2-1,2.1,0.2,3C201.7,624,205.9,624.8,210.7,622.8z"/>
	<path fill="#F6923F" d="M298.6,695.5c-4.6-3.6-9.5-4.3-15-3s-11.5,2.1-17.3,0.7c-4.5-1.1-7.4-3.5-8.3-8.2c-0.5-2.4-1.2-4.8-2.2-7.1
		c-2.4-5.3-6.3-6.8-11.8-5c-1,0.3-2,0.4-3,0.2c-7-1.5-14.4-0.1-20.3,4c-3,2-5.2,0.9-7.3-1.7c-1.6-2-1.1-6-4.2-6
		c-2.5,0-5,1.8-7.4,2.7c-0.9,0.4-1.9,0.7-2.8,1.1c-5.1,2-9.5,1.5-12.7-3.4c-1.3-2-2-1.5-3.1,0.1c-6.7,10-12.3,20.6-16.8,31.7
		c-0.3,0.7-0.9,1.7-0.1,2.3c0.8,0.6,1.5-0.2,2.2-0.6c5.9-3.8,11.7-7.6,17.6-11.5c2-1.4,4-4.2,5.9-4.1c2.7,0,2.8,3.9,4.3,5.9
		c16,20.9,30.6,42.8,46.9,63.4c0.5,0.6,0.9,1,0.5,1.7s-1,0.9-2,0.7c-13.2-2.9-26.5-4.8-39.5-8.3c-16-4.4-32.2-8.5-49.3-12.9
		c-1.6-0.7-1.7,1.4-2.2,2.9c-1.9,5.7-3.5,11.5-5.8,17c-1.3,3.2-0.3,4.2,2.4,5.3c14.4,5.8,26.5,14.5,34.8,28c6.3,10,11,21,13.9,32.4
		c1.2,4.9,1.2,4.9,5.9,2.6c19-9.3,38-18.5,57-27.8c3.3-1.6,5.4-2,8.4,1.2c7.4,7.9,16.3,14.2,25.5,20c2.5,1.6,3.5,1.3,3.2-1.8
		c-0.1-0.7,0-1.3,0-2c-0.1-38.7-0.7-77.3,4.8-115.8C301.1,697.9,300.2,696.8,298.6,695.5z"/>
	<path fill="#FEE43B" d="M300.1,677.9c-5.3-0.5-10.6-1.1-15.8-1.9c-4.2-0.7-8.9-3.3-12.5-2.2s-6.2,5.6-9.3,8.7
		c-0.1,0.1-0.2,0.2-0.4,0.3c-2.7,1.6-1.8,3.6-0.4,5.4c1.2,1.7,3.2,2.3,5.1,2.8c5.3,1.4,10.6,0.6,15.8-0.5c5.8-1.2,11.2-1.5,16.1,2.5
		c1.7,1.4,2.6,0.8,2.9-1.3c0.4-3.6,0.7-7.3,1.1-11.1C303.5,678.3,302,678.1,300.1,677.9z"/>
	<path fill="#FEE43B" d="M263.7,670.1c-12.8-5.7-24.6-12.7-31.3-25.9c-1.2-2-2.8-3.8-4.8-5c-3.4-2.3-5.1-5.4-5.6-9.5
		c-0.7-5.4-4.7-7.5-9.8-5.5c-7.3,2.9-14.9,1.7-19.3-4.3c-1.7-2.3-2.7-1.8-4.5-1.4c-1.8,0.5-3.4,1.5-4.5,3c-2.8,3.7-6,3.9-10.7,3.7
		c-7.7-0.2-15.3,1.2-23.1-0.1c-5-0.8-7,4.3-4.6,8.8c1.6,3,4.3,3.9,7,5.1c5.9,2.7,6.9,5.3,3.7,10.9c-1.8,3-0.9,5,1.6,6.8
		c2.4,1.6,5.3,2.1,8.1,1.5c4.1-0.7,8.1-2,12.3-1.5c5.7,0.7,7.9,2.8,8.7,8.4c0.8,5.6,4.6,8,10,6.3c2.7-0.8,5.3-1.9,7.9-3
		c6.1-2.5,6-2.5,9.2,3.6c0.9,1.8,2.1,5,4.5,3.4c5.2-3.4,10.9-4.6,17-5.7c-3.1-1.4-5.7-3.6-7.7-6.4c-1.2-1.9-2.8-2.2-4.9-2.5
		c-11.2-1.7-22.4-3.3-33.4-6c-8-2-14.4-7-17-15.4c-1.5-4.7-0.2-8.1,3.7-9.6c4.8-1.8,9.7-3.4,14.6-5c1-0.3,2.1-1.3,3.2-0.2
		c3.2,3,7.3,3.2,11.4,3.3c4.3,0.1,8,2.1,11.4,4.7c2.6,2,1.6,4.8,1.6,7.4c-0.1,2.2,1.1,3.6,3.2,3.7c3.7,0.1,4.7,2.6,5.3,5.5
		c0.5,2.3,1.5,4.5,1,6.9c-0.8,3.9,1.3,6.3,3.9,8.6c2.9,2.6,6.5,3.1,10.2,3.4c6.9,0.5,13.5,2.3,16,9.8c1.5,4.6,3.1,3.5,5.4,0.9
		c0.5-0.5,1-0.9,1.4-1.4C269.7,672.7,269.7,672.8,263.7,670.1z"/>
	<path fill="#DC7126" d="M462.8,299c-0.8-2.1-1.8-2.8-4.1-2.2c-10.6,3-21,6.4-29.6,13.6c-4,3.4-8.4,6.1-13.8,6.3
		c-7.8,0.4-14.4,4.8-21.8,6.4c-1.9,0.4-4.8,1.9-4.1,4.2c0.7,2.7,3.2,4.5,6,4.3c6.3-0.2,12.9,1.8,18.5-3.1c1.1-1,3.1-1.2,4.7-1.4
		c3.1-0.3,6.2-1.3,9-2.8c4.2-2.4,9-3.5,13.9-3.1c9.8,1.5,16.9-5.4,25.3-8c1.7-0.5,1.1-1.6,0.7-2.8
		C465.8,306.7,464.2,302.9,462.8,299z"/>
	<path fill="#F6A448" d="M585.4,636.4L585.4,636.4c5,3.9,9.9,7.7,15,11.4c1.1,0.8,2.3,3.7,3.6,1.8c1.2-1.8,3.8-3.9,1.8-7
		C601.5,636.4,590.9,632.9,585.4,636.4z"/>
	<path fill="#C5541A" d="M577.3,635c-1.1,1.8-1.9,4.3-0.2,6.5c0.5,0.6,1.2,1.1,1.9,1.6c15,11.3,26.6,25.5,35.7,41.9
		c4.9,8.8,9.1,17.9,12.7,27.3c2.2-6.2,3.8-11.5,5.8-16.6c1.2-2.5,0.9-5.5-0.7-7.8c-13.1-21.3-30.5-38.2-51.5-51.5
		C579.9,635.7,578.1,633.8,577.3,635z"/>
	<path fill="#4F2224" d="M488,998.7c7.3,0,10.2-2.7,10.9-10.1c0.5-5.8,0.3-6-4.8-4c-0.5,0.2-0.9,0.3-1.4,0.4
		c-8.4,1.6-16.7,2.5-25.3,1.4c-11-1.3-18.6-6.9-23-16.8c-4.3-9.5-11.5-15.3-21.7-17.3c-7.3-1.4-13.7-5.8-17.6-12.1
		c-0.5-0.8-0.6-2.7-2.2-2c-1.2,0.5-1,2.1-0.8,3.2c0.4,2.6,1.9,5.3,1.4,7.7c-2.4,11.8-1.2,23.9-3.2,35.8c-0.6,3.5,2,3.9,4.3,4
		s5.7,0.4,5.4-3.3c-0.7-8.9,2.9-16.2,7.3-23.4c2.6-4.3,5-5.2,9.5-3.1c3.7,1.6,6.8,4.4,8.7,7.9c1.7,3.2,2.9,6.7,3.5,10.4
		c2.7,12.9,8.8,18.7,21.6,20.7c5.8,0.9,11.6,1.2,17.4,0.7l0,0h10L488,998.7L488,998.7z"/>
	<path fill="#6D4546" d="M166.7,953.8c-2.8-9.9-6-19.6-9-29.5c-0.6-1.9-1.2-2.9-3.4-1.6c-2.8,1.5-5.7,2.7-8.8,3.3
		c-2.6,0.6-3.1,2-1.6,4.3c3.5,5.2,4.9,11.2,5.9,17.3c0.5,3.3,1.7,6.4,3.4,9.3c1.6,2.5,3.3,4.8,6.3,3.8l0,0
		C165.3,960.8,168,958.2,166.7,953.8z"/>
	<path fill="#F6A448" d="M664.7,620c-9.9-1.8-19.9-2-29.8-1.8c-3.4,0-6.6,1.4-9,3.8c-3.7,4-7.9,4.2-12.7,2.1
		c-7.3-3.1-12.9-1.2-17,5.4c-1.3,2.2-1.9,3.8,1.5,4.6c2.4,0.6,5,1.7,6.3,3.8c3,4.7,6.8,4.4,11.2,2.9c1.7-0.6,3.3-1.6,4.4-3
		c4.4-5,10.3-8.6,16.8-10.1c6.1-1.6,12.4-2.5,18.8-2.7c7.3-0.4,14.4,0.9,22.5,2.7C673.7,623.2,669.5,620.9,664.7,620z"/>
	<path fill="#FEE43B" d="M606.1,516.8c2.3-1.2,4.3-2.6,4.8-5.4c0.2-1.1,0.4-2.7-1.4-2.4c-3.6,0.5-6.9-1.1-10.4-1.1
		c-7.7-0.1-7.3-0.1-9.1-8c-1.9-8.4-7.6-13.8-17-11.1c-3.4,1-6.2,3.3-9.6,4.1c-3.7,0.8-6,3.3-7.8,6.5c-2.2,3.8-3.6,7.9-4,12.2
		c-0.2,2-1.4,5.5-0.8,5.8c1.9,1.1,4.5-0.2,6.7-0.6c5.6-1.2,6.5-3,4.7-8.6c-0.2-0.8-0.6-1.6-0.8-2.4c-1.1-3.8,0.2-5.4,4.2-4.8
		c4.3,0.7,7.5,3.4,10.3,6.6c6.8,7.9,10.7,17.9,11,28.3c0.1,5.4,3.1,10.4,7.9,13c6.2,3.6,12.1,7.4,19.2,9.4c9.1,2.5,12.4,11.6,7.8,20
		c-1.9,3.7-4.6,7-7.8,9.7c-8.7,7.2-18.3,12.9-29.3,15.6c-4.4,1.1-6.4,2.9-5.4,7.8c6.6-2.8,7.8-2.8,15.4,0.2
		c4.6,1.8,10.9-1.9,11.4-6.7c0.9-8.3,1.6-9,10.1-9.2c7-0.1,14-1.4,20.5-4c7.3-3,7.7-7.6,1.7-12.3c-9.6-7.5-11.1-12.4-7.3-24.3
		c1.8-5.6-1.3-10.4-7.1-10.2c-6.2,0.2-12.3-1-18.4-1.2c-8.9-0.3-13.2-7.6-9.9-15.9C597.7,522.8,601.3,519.3,606.1,516.8z"/>
	<path fill="#F6A448" d="M613.7,643.1c-3.6,0.8-6.5,3.6-7.5,7.2c-0.5,1.2-0.2,2.7,0.9,3.5c11,10.3,20.6,22.1,28.3,35.1l0,0
		c2.3-6.4,4.4-12,6.4-17.7c0.6-1.8,1.3-2.6,3.6-3.1c8-1.8,16-4.2,23.9-6.4C654.3,644.8,636.4,637,613.7,643.1z"/>
	<path fill="#F6A448" d="M676.3,660.9c9.6-2,19.4-2.8,29.2-3.6c3.2-0.2,3.5-0.9,2-3.7c-7-12.4-17.8-19.7-31-23.8
		c-13.8-4.3-27.6-3.5-41.3,0.5c-5.4,1.5-10.3,4.2-14,9.5c1.3,0,2.6-0.1,3.9-0.2c10.4-2.1,19.8,0.5,28.4,6.3
		c5.8,3.9,11.3,8.2,16.5,12.9C671.9,660.6,673.7,661.4,676.3,660.9z"/>
	<path fill="#E4DDDC" d="M79.6,545.7c-0.9,2.5-1.3,5.2-2.7,7.4c-3.5,5.5-0.9,9.8,1.9,14.3c0.8,1.3,1.4,2.1,2.2,0.1
		c1.8-5,3.7-9.9,5.3-14.9c0.6-1.7-4.1-8.8-5.9-8.7l0,0C80.2,544.3,79.9,545,79.6,545.7z"/>
	<path fill="#E4DDDC" d="M46.7,550.8c-0.6,1.6-2,3.5,0.1,4.9c4.8,3.3,9.7,6.5,14.5,9.7c2.7,1.8,2.8-1.4,4-2.3
		c1.8-1.3,0.5-2.2-0.7-2.9l-15-10c-0.5-0.3-0.9-0.5-1.4-0.8l0,0C47.2,549.1,47,550.1,46.7,550.8z"/>
	<path fill="#F8B952" d="M127.4,562.3c-6.8-4.3-14.8-6.5-22.8-6.3c-2.5-0.2-5.6,0.6-8.8,1s-3.3,1.7-2.4,4.4
		c1.9,5.8,3.8,11.6,5.2,17.6c1.6,7.1-1,12.8-6.6,15.7c-4.7,2.5-7,1.3-8-3.9c-1.7-8.3-3.9-16.5-7.8-24.1c-1.2-2.4-2.5-4.9-5.9-4.1
		s-5,3-5.4,6.4c-0.3,3.3,0.3,6.7,1.6,9.8c1.7,4.7,2.9,9.6,3.6,14.5c0.7,5.1,2.4,10,3.7,15c0.7,2.5,1.4,2.6,3,0.8
		c5.4-5.8,11.9-10,18.3-14.6c6.8-4.8,14-8.1,22.7-7.4c3,0.2,7.2,0.6,9-2.7c4.7-8.9,11.4-16.5,19.6-22.2c3.3-2.3,1.5-5.9,1.5-8.8
		c0-2.9-2.9-2.8-4.9-3.1c-5.2-0.8-10.4,0.2-15,2.7c-1.8,1-4.6,1.8-4.7,4c-0.1,1.8,2.8,1.8,4.1,3c0.4,0.3,0.9,0.5,1.2,0.8
		c0.7,0.6,2.2,1,1.6,2C129.3,564.4,128.2,562.8,127.4,562.3z"/>
	<path fill="#781E7C" d="M25.7,656.9c1.1,3.5,2.5,6.9,4,10.2c4.8,11.5,5,11.7,16.3,6.9c13.7-5.9,18.3-15.7,12.5-30.5
		c-0.6-1.6-1.4-2.1-2.9-1.3c-1.8,0.9-3.5,1.8-5.3,2.7c-4.1,2-8.3,3.3-12.9,3.1c-2.1-0.1-4-0.6-5-2.7s0.1-3.9,1.4-5.5s3-2.9,4.9-4.7
		C28.4,637,22.7,646.8,25.7,656.9z"/>
	<path fill="#F6B752" d="M35.8,896.9c-1.2,7.9,1.9,12.6,8.8,15.9c3.1,1.5,5.4,1.7,8.1-0.6c4-3.5,8.3-6.6,12.5-9.9
		c1.1-1,2.8-1.3,4.1-0.6c4.9,2,10,3.6,14.9,5.7c6.7,2.8,7.3,2.7,12.6-2.6c0.8-0.9,1.7-1.6,2.7-2.1c4.5-1.6,6.7-4.5,8.2-9.3
		c3.6-11.8,5.9-23.6,5.1-35.8c-0.2-3.8,0.1-7.9-1.9-11.2c-11.4-18.9-26.5-35.2-44.4-48.2c-2.2-1.6-3.1-1.1-3.9,1.3
		c-4.1,12.6-9.2,25-8.5,38.7c0.2,3.3-0.6,6.3-3.2,8.6c-3.8,3.5-7.4,2.9-9.5-1.8c-1.1-2.6-1.8-5.3-3.1-8.8c-0.4,4.1-0.4,7.3-1.2,10.3
		c-2.5,9.2-0.8,16.6,8.2,21.3c0.7,0.5,1.3,1,1.8,1.7c2.8,2.8,4.9,6.3,6.1,10.2c0.2,0.6,0.5,1.3-0.1,1.8c-0.4,0.4-0.8,0.2-1.2-0.1
		c-4.7-2.9-10-0.9-15-1.6c-2.3-0.3-1.9,1.7-1.8,3.2C35.5,887.6,36.5,892.3,35.8,896.9z"/>
	<path fill="#781E7C" d="M34.2,644.2c0.5,1.5,1.9,1.6,3.3,1.7c4.8,0.2,9.2-1.4,13.3-3.7c1.8-1,5.4-1.6,5.1-3c-0.5-2.6-3.9-3.1-6.4-4
		c-0.6-0.1-1.2-0.2-1.8-0.2c-4.8,0.1-9.3,2.3-12.3,6.1C34.7,641.9,33.8,642.9,34.2,644.2z"/>
	<path fill="#FFDFCF" d="M544.5,698.4c-1.2,2.1-0.4,2.5,1.7,2.4c7.3-0.5,13.9-3.7,20.1-6.7c3-1.5,2.2-8.2,3.1-12.6
		c0.1-0.3,0.2-0.6,0.2-1c0.8-6.7,2.5-13.4,2.1-20.5c-4.7,9.2-12,16.3-18.3,24C549.8,688.4,547.2,693.5,544.5,698.4z"/>
	<path fill="#F2D381" d="M644,55.7c12.2,2.6,23.8,1.4,34.6-5.1c2.5-1.5,3.2-2.8,1.7-5.5c-2.6-4.8-4.9-9.8-7.3-14.7
		c-5.4-10.7-12.6-20.3-19-30.3h-58C597.8,28.1,616.5,49.7,644,55.7z"/>
	<path fill="#F2D381" d="M649.1,118.1c-1.4,1.6-0.4,2.2,0.8,3c17.5,11.5,36.2,20.9,54.5,31.1c1.6,0.9,2.5,0.9,2.3-1.3l0,0
		c-0.1-0.5-0.1-1-0.2-1.5c-1.9-20.5-5.5-40.8-10.8-60.8c-1.4-5.4-1.4-5.3-6.7-3.4C671.7,91.4,660.4,104.7,649.1,118.1z"/>
	<path fill="#F2D381" d="M605.4,46c-0.7-0.4-1.7-0.9-2.3-0.7c-1.1,0.4-0.3,1.4-0.2,2.1c3.9,14.7,8.6,29,15.5,42.6
		c0.3,0.7,0.5,1.7,1.5,1.7s1.1-1.1,1.4-1.8c1.8-4.6,2.7-9.6,2.6-14.6C623.5,63,618,52.3,605.4,46z"/>
	<path fill="#FFFAA0" d="M125.5,110.1c-1.1,5.2-1.1,5.2,3.9,4.3c16.3-2.9,31.9,8.8,33.5,25.1c1.8,15.5-9.4,29.6-24.9,31.3
		c-1,0.1-2,0.2-3,0.2c-4.2,0.1-8.3-0.7-12.2-2.3c-2.2-0.9-2.6-0.1-2.4,1.9c0.5,4.8,1.4,9.6,1.3,14.4c-0.1,7.8,5.3,10.8,11,13.8
		c1.4,0.5,2.8,1,4.3,1.4c2.2,0.8,4.3,1.7,6.4,2.7c1,0.5,2.3,1,2.4,2.3c0,1.6-1.5,2.1-2.7,2.6c-5.2,1.8-10.7,2.7-16.2,2.6
		c-1.4,0-3.2-0.8-4.5,1.2c2.8,0.6,5.2,0.9,7.6,1.6c10.7,2.9,18.8,12,19.9,22.7s-2.8,19.2-11.1,26c-1.1,0.9-3.1,1.2-2.5,3.3
		c2.6,7.9,4.9,15.9,8.4,24c4.1-8.8,8-16.1,16.1-21.7c7.5-5.2,14.1-12.2,21.3-18.2c8.4-7,15.9-15.2,23.9-22.7
		c6.5-6,12.4-12.6,17.8-19.6c0.9-1.1,2.4-2,0.8-4.2c-10.8-14.7-6.7-32.1,9.5-39.8c2.7-1.3,2.3-3.4,1.8-5c-0.8-2.2-2.4-0.3-3.5,0.2
		c-18.4,8.1-36.3,17.4-53.9,27.2c-4.2,2.4-5.2,5.8-3.1,10.9c1.7,4.1,4.9,4.6,8.7,3.3c0.6-0.2,1.2-0.5,1.9,0.4
		c-1.1,1.4-2.2,2.8-3.3,4.2c-1.5,1.9-1.9,3.9-0.3,5.9c2.6,3.1,0.9,3.3-1.9,3.2c-3.9-0.1-8.2-1.1-10.9,3.1c-0.9,1.5-1.9,2.4-3.5,0.9
		s-0.3-2.5,0.7-3.3c3.5-2.6,2.2-4.1-1-5.4c-1.2-0.5-2.7-0.8-2.5-2.6c0.2-1.3,1.2-1.9,2.3-2.4c5.5-2.4,7-5.3,6.7-11.8
		c-0.1-2.3,0-4.9,1-6.9c4.6-9,8.7-18.4,16-25.7c12.6-12.8,25.4-25.5,38.1-38.2c10.1-10.1,22.5-17.5,33.3-27
		c6.4-5.6,14.3-10.5,23.3-12.4c3.1-0.8,5.9-2.2,8.5-4.1c1.7-1.1,2.9-1,4.5-0.4c6.5,2.2,13,4.3,19.5,6.3c3.8,1.2,7.3,4,11.7,1.2
		c4.4-2.8,6.9,4,11.6,2.8c5.2-1.3,10.6,0.4,15.7,2.1c6.6,2.3,13.3,4.3,20.1,5.8c3,0.5,5.8,1.8,8,3.9c1.5,1.5,2.6,1.2,4.3,0.2
		c9.2-5.5,18.7-10.7,28-16.2c8.7-5.2,17.5-10.3,27.3-13.3c1.6-0.4,2.9-1.5,3.6-3.1c9-20.2,25.6-27.8,46.7-27.5
		c7.9,0.1,15.2,3,22.7,7.1c-1.8-6.6-3-12.6-1.4-18.8c1.9-7.2,5.6-14,3.5-21.9c-0.2-0.6,0.1-1.2,0.7-1.4c0.1,0,0.2-0.1,0.3-0.1
		c0.7-0.1,1.3,0.3,1.5,1c0.3,1,0.2,2,0.6,2.9c1.9,4.6,2.6,10.2,7.5,12.5c3.4,1.5,3.6,3,2.8,6c-1.6,6.5,0,10.2,6,13.6
		c1.5,0.9,2.8,1.3,1.4,3.7c-6.6,11.6-0.6,25.1,12.4,28.4c2.7,0.7,4,0.4,4.5-2.6c1.2-6.9,4.3-13.4,8.9-18.7c1.8-2.1,2.1-3.2-0.7-4.6
		c-4.4-2-8.4-4.6-12.1-7.7c-0.6-0.5-2.3-0.5-1.4-2c0.6-0.9,1.5-0.2,2.2,0.1c5.7,2.3,11.4,4.7,17,7.1c1.9,0.8,3.6,1.2,5.6-0.1
		c5.1-3.2,11.2-4.6,17.2-3.8c2.7,0.3,3-0.5,2.7-3c-0.9-7.5-2.2-14.8-5.2-21.8c-0.5-1.1-2.1-3.2-0.2-3.8c1.4-0.5,1.7,2,2.1,3.3
		c2.7,7.9,5.3,15.8,7.9,23.7c0.5,2.1,1.9,3.8,3.9,4.7c18.9,8.5,26.9,28.2,19.2,47.4c-1.3,3.4-1.9,6,0.5,9.1c2.1,2.7,2.9,7,5.9,8.4
		c4.1,2.1,8,4.6,11.7,7.4c3.6,2.6,5.5,2.2,8.4-1.2c11.4-13.9,23.7-26.7,41.7-32.2c2.5-0.8,1.8-2.4,1.4-3.9c-2.5-8.4-5.5-16.7-8.7-25
		c-0.9-2.3-1.8-2.7-3.9-1.3c-4.6,3-9.8,5-15.2,6C629.7,64.5,595.5,36.5,594,0h-19c-1.9,11-9,17.8-18.6,18c-10.2,0.2-18-6.7-20.4-18
		H171c-0.1,1.8-1.5,3-2.3,4.3C148.2,36.8,133.6,72.6,125.5,110.1z M400.4,21c9.8,0.3,17.6,8.3,17.6,18.1c0,9.9-7.2,17-17.1,16.9
		c-10.3-0.1-18.1-7.7-17.9-17.5S391,20.8,400.4,21z"/>
	<path fill="#F2D381" d="M593.8,42.5c-6.3-1-12.1,0.2-18.1,3.9c5.2,2.2,9.8,4.2,14.3,6c2.4,0.9,5.1,3.6,7.1,2.1
		c1.6-1.2-0.3-4.6-0.4-7.1C596.7,45.3,596.8,42.9,593.8,42.5z"/>
	<path fill="#F2D381" d="M401,54c8.5,0.1,14.8-6,15-14.5c0.2-8.9-6.8-16.3-15.7-16.5h-0.1c-8.1,0-14.9,6.8-15.1,15.4
		C384.8,47,391.8,53.9,401,54z"/>
	<path fill="#F8B952" d="M151.6,559.1c1.5-0.3,4-0.6,3.9-2.2c-0.1-1.9-2.5-3.1-4.2-3.5c-2.1-0.5-0.9,1.7-1.3,2.7
		C150.8,557.1,148.6,559.7,151.6,559.1z"/>
	<path fill="#DC7126" d="M613.5,517.3c5.5,4.2,18.9,3.9,22.6-1.8c4.8-7.4,15.8-5.8,19.3-14.3c0.1-0.3,0.9-0.4,1.4-0.5
		c9.2-2.4,13.3-9.5,16-17.6c4.6-13.8-3.8-36.7-16.7-45.9c-4-3-9.1-4.4-14.1-3.8c-4.3,0.5-8.5,1.8-11.2,5.7c-1.2,1.7-1.3,3,1.4,3.2
		c4.7,0.4,9.1,2.4,12.5,5.7c3.9,3.7,8.7,6,13.1,9c0.9,0.6,2.8,0.2,2.8,1.6s-2,1.4-3.1,2c-1.5,0.8-3.9,0.8-3.3,3.5
		c1,4.5,2.1,9,3.3,14.2c2.5-4.1,3.4-7.8,4.5-11.5c0.2-0.6,0.2-1.3,1.1-1.4c0.7-0.1,0.8,0.5,0.9,1c1.1,7.8,1.8,15.5,0.4,23.4
		c-0.2,0.9-0.9,2.6-1.7,1.9c-4.4-3.7-3.4,1.5-4.7,2.7c-1,1.1-2.1,2.1-3.3,3c-6.3,3.7-12.7,7.3-19.1,10.8c-1.7,1-3.3,1.5-4.5-1
		c-1.3-2.7-2.5-2.3-3.2,0.5s-2.5,4.6-5.5,3c-5.4-2.8-11-5.3-15.7-9.2c1.9-1.1,4-0.5,5.8,0.1c6.2,1.8,9-2.5,11.9-6.4
		c1.9-2.5-1-4.4-1.4-6.7c-0.2-1.1-1-2.2-1.1-3.3c-0.5-4.6-3.7-5-7.4-4.7c-13.7,0.8-13.8,0.8-11,14.3c0.4,2.5,0.2,5.5,3.3,6.8
		c-1.7,2.7-1,5.6,1.6,5.5c5.5-0.2,5,3.1,4.1,6.6C611.9,515.1,612.1,516.2,613.5,517.3z"/>
	<path fill="#F2D381" d="M561.5,15c6.8-2.7,10.3-8,11.5-15h-35C539.9,13,553.3,18.3,561.5,15z"/>
	<path d="M530.7,219c-12.8,4.8-25.4,10-38,15l0.4,0.9c15.2-4.2,30.4-8.5,45.5-12.7c4.6-1.4,9.5-1.7,14.3-0.9
		c15.2,2.9,30.5,5.4,45.4,9.4c3.5,0.9,7,1.5,10.5,2.3c-23.7-7.4-47.5-14.1-71.3-20.8c-1.6-0.4-3.2-0.5-4.4-2
		c-10-11.6-21.5-21.8-32.1-32.8c-1.1-1.1-2.3-2.1-3.6-3.3c-0.3,1.7,0.7,2.2,1.2,2.9c10.4,13.2,21.5,25.9,33.1,38.1
		C533.8,217.2,534.1,217.7,530.7,219z"/>
	<path fill="#2F1D1C" d="M751.4,362.3L751.4,362.3c-0.6-0.3-1.2-0.5-1.8-0.6c-0.7,0-1.4,0.3-2,0.1c-5.6-2-10.2-1.5-13.2,4.5
		c-0.9,1.4-2.2,2.6-3.7,3.3c-8.5,4.3-15.8,10.5-24.5,14.5c-4.5,1.9-7.9,5.8-9.2,10.6c-2.3,8.4-6.2,16.1-10.3,23.8
		c-1.3,2.5-2.8,5-2.8,7.9c-0.1,7.2-3.3,12.4-9.5,15.8c-1.6,0.9-3,2.1-4.6,3c-1.8,1-2.1,2.1-1.2,4c1.9,3.7,3.6,7.5,5.1,11.4
		c0.9,2.5,1.6,2.2,3.3,0.8c4-3.3,8.4-4.4,13.4-1.8c4.8,2.5,5.3,2.1,4.4-3.5c-0.9-6,0.4-11.1,4.8-15.5c5.7-5.7,13.2-9.3,21.2-10.1
		c3.9-0.4,3.9-1.7,2.9-4.9c-2.3-7.4-3.5-15.2-0.9-22.6C728.5,386.9,736.5,372.5,751.4,362.3z"/>
	<path fill="#FFFAA0" d="M608,121c-18.8-4.5-37.5-9.2-56.2-13.9c-1.8-0.3-3.5-0.9-4.9-2c-3.1-2.7-7.3-1.3-8.9,2.4
		c-2.9,7-7.4,13.2-13.2,18c-18,14.7-40.8,21.5-63,4.6c-1.5-1.1-2.5-1.2-3.8,0.2c-9.9,9.8-21.4,17.5-32.5,25.7
		c-2,1.5-2.1,2.9-1.6,5.1c1.4,5,1.6,10.2,0.6,15.3c-0.2,0.8,0,2.4-1.3,2.2s-0.6-1.5-0.7-2.5c-0.4-7.1-2.6-13.6-7.9-18.7
		c-1.5-1.5-4.1-3.4-5.7-2.4s0.4,3.5,1.1,5.2c4.6,12.1,6.1,24.2,0.1,36.3c-1.3,2.7-0.2,5.6,1.6,7.5c13.5,13.9,19.2,31.3,23.2,49.5
		c0.7,3.2,1.6,4.9,5,4.3c6.6-1.1,12.3,2.3,18.4,3.8c0.8,0.2,1.4,0.4,1.6,1.5c1.7,7.5,5.8,14.1,7.9,21.4c0.4,1.5,0.8,3,2.8,2.9
		c7-0.5,14.3,2,21-2.3c1.8-1.2,4.5-1.3,6.7-1.7c12.1-2.1,24.3-4.2,36.6-4.5c2.8-0.1,4-0.6,4.2-3.8c0.4-6.1,3.1-11.2,9-14.1
		c1.7-0.8,3.3-1.9,4-3.6c2.6-6.2,7-10,13.6-11.2c2-0.4,2.5-1.5,0.7-2.9c-2.3-1.7-3.7-3.7-0.9-6.1c2.4-2.1,5-2.2,7,0.4s4,2.8,6.9,1.8
		c7.5-2.6,14.1-0.8,19.7,4.8c2.6,2.6,5.2,5.4,9.5,3.7c0.7-0.3,1.5,0,1.8,0.8c0,0.1,0.1,0.2,0.1,0.4c0.3,1.4-0.6,1.7-1.7,1.8
		c-0.3,0-0.7,0-1,0c-6,0.9-7,3-4.6,8.2c0.9,2-0.5,2-2.1,1.8c-4-0.4-5.7,2.2-6.1,5.7c-0.3,2.1-0.2,4.3,0.3,6.4c1.4,4.3,1,7.5-5.1,9.2
		c6.3,1.3,6.9,5.3,7.4,9.6c1.7,14.2,1.4,28.6-0.7,42.8c-4.4,28.5-21.3,46.5-46.8,57.5c-2.3,0.9-4.4,2.2-6.2,3.8
		c-12.2,11.7-23.8,23.9-33.2,37.9c-1.6,2.4-3,2.8-5.7,2c-9.2-2.9-18.5-5.7-26.7-11c-1.2-0.7-2.2-1.2-3.6-0.3
		c-7.8,4.6-15.7,8.9-18.1,18.8c-0.7,2.9-2.1,5.6-3,8.5c-2.5,7.9-2.5,7.9,5.6,6.5c45-7.5,87.6-25.6,124.2-53
		c42.3-31.5,75.7-70.4,98-118.5c1.6-3.5,1.2-5-2.1-6.9c-14.8-8.5-27.6-19.3-37.5-33.2c-2.2-3.1-5.5-5.3-9.2-6
		c-25.6-5.9-51-12.6-77-17.1c-5.7-1-11.6-0.8-17.2,0.7c-10.9,2.9-21.7,6.3-32.7,9c-8.4,2-16.3,6.4-25.4,5.5c-1-0.1-2.4,1.5-2.8-0.5
		c-0.2-0.9,1.3-1.2,2.2-1.6c0.9-0.4,1.9-0.7,2.8-1.1C497.3,230,512.2,224,527,218c1.6-0.6,3.9-0.9,1.4-3.4
		c-17.6-18.3-33.1-38.4-48.6-58.4c-0.5-0.7-2-1.3-0.8-2.3s1.7,0.5,2.3,1c0.7,0.6,1.4,1.4,2.1,2.1c16.6,16.6,33.2,33.2,49.8,49.9
		c1.8,1.9,4.2,3.3,6.7,4c21.2,5.9,42.3,11.9,63.5,17.7c10.7,2.9,21.4,5.8,32.5,7c0.3-1.4-0.4-2.2-0.9-3.1
		c-6.2-11.4-10.2-24-11.5-36.9c-0.2-2.2,0.2-4.8-0.9-6.3c-1.3-1.8-4,0.2-6-0.3c-1-0.1-2-0.3-2.9-0.5c-2.2-0.8-4.8-1.5-4.5-4.5
		s2.7-4,5.5-4c0.8,0,1.7-0.1,2.5-0.2c3.1-0.5,3.6-2,1.7-4.4c-2.9-3.7-6.2-4.5-11.1-2.5c-2.4,1-4.5,1.6-6-1.1
		c-1.9-3.2-4.6-3.9-8.1-3.1c-2.6,0.6-5.4,0.5-7.9-0.5c-0.5-0.2-1.4-0.2-1.2-1.2c0.1-0.3,0.5-0.7,0.6-0.6c4.6,1.4,10.4-2,13.6,0.7
		c4.8,4.1,9.3,3.9,14.5,2.7c1.6-0.4,3.4,2,4.5,0.3s-0.3-3.8-1.1-5.7c-0.4-0.9-0.9-1.8-1.5-2.6c-6.1-8.6-7.4-18-4.7-28.1
		c0.6-2.2,0.8-4.6,1.5-6.8C613.1,123.2,611.6,121.9,608,121z"/>
	<path fill="#F2D381" d="M700.9,181.2c-17.4-15.1-37-27.1-56.1-39.9c-9-6-8.9-6.1-13,4c-0.1,0.3-0.3,0.6-0.5,0.9
		c-0.5,0.7-0.4,1.7,0.4,2.3c0.1,0.1,0.3,0.2,0.4,0.2c4.7,2.1,2.8,4.9,0.8,7.5c-2.9,3.7-2.5,7.2-0.3,11.1c3.6,6.2,8.8,10.3,15.3,13
		c1.4,0.6,3.8,0.9,3.7,2.8c-0.1,2.1-2.5,2.3-4.2,2.9c-5.9,2.1-12,2.4-18.2,1.8c-3.2-0.3-4.4,0.8-4.1,4.2
		c1.2,14.5,5.5,28.5,12.6,41.2c1,1.9,2.9,3.2,5.1,3.2c7,0.7,13.8,2.5,20.2,5.4c9.5,4.1,18.8,8.4,28,13c2,1,3,1.3,3.8-1.4
		c5.9-19.2,9.8-38.9,11.5-58.9l0,0C706.4,185.8,706.3,185.9,700.9,181.2z"/>
	<path fill="#958A93" d="M696.6,256.8c2.1,3.3,8,4.2,12.2,6.1c0.3,0.1,0.7,0.2,0.9,0.3c2.3,1.2,3.3,0.8,3.1-2
		c-1.4-19.9-0.3-39.9-4.3-60c-1.5,1.4-1.3,3-1.5,4.4c-1.6,13-4.2,25.9-7.6,38.5C698.3,248.4,694.7,253.7,696.6,256.8z"/>
	<path fill="#FFFAA0" d="M634,133.9c-4.9-3.4-9.2-7.8-15.6-9.5c5.9,4.1,8,9.5,6.8,16.1c0,0.5,0.2,1,0.4,1.4c0.6,1.5,1.2,3.7,2.8,3.8
		c1.4,0.1,1.7-2.2,2.4-3.5c1-1.9,2-3.8,2.9-5.8C634.2,135.7,635.2,134.7,634,133.9z"/>
	<path fill="#2F1D1C" d="M614.2,125.3c-2.2,11.3-6.2,22.8,1.5,33.7c2.7,3.8,4.8,8,4.2,13c0,0.8,0.2,1.6,0.7,2.3
		c3,4.2,1.2,7.2-4.1,7.6c-2,0.2-5.3-0.6-5.1,2.3c0.2,2.5,3.4,2.6,5.8,2.7c1.3,0,2.7-0.2,4-0.5c3.7-0.7,7.5-0.9,11.2-0.6l0,0
		c4.5,0.4,9.1-0.1,13.4-1.7c0.6-0.2,1.5-0.5,1.6-0.9c0.4-1.1-0.8-1.3-1.5-1.6c-4.6-2.1-8.8-4.8-12-8.7c-6.3-7.6-6.7-10.5-2-19.1
		c1.2-2.3,0.2-2.9-1.4-3.7c-5.7-2.9-8.2-7.5-7.5-13.9c0.2-1.7,0.5-3.4-1-4.7c-2.4-1.9-4.4-4.1-6-6.6
		C615.4,123.7,614.5,123.9,614.2,125.3z"/>
	<path fill="#F7EB4B" d="M48,877.9c1.4,0,2.5-0.2,1.6-1.9c-3-5.8-8.2-10-13.6-12.8c-2.7-1.4-4.8,4.5-7.4,6.8c-1.4,1.4-2.8,2.9-4,4.4
		c-0.5,0.6-1.2,1.5-1.1,2c0.3,1.2,1.7,0.7,2.5,0.7c3.5,0.1,7,0.1,10.5,0.1v0.8C40.3,877.9,44.2,877.9,48,877.9z"/>
	<path fill="#524824" d="M564.8,248.9c-3.8,1.1-7.3,2.5-8.9,6.5c-1.5,3.6-4.2,6.5-7.7,8.2c-5,2.7-6.4,7.4-7.3,13.3
		c-0.5,1.5,0.8,2,2.8,2c5.2,0,10.4,0.7,15.4-0.1c9.1-1.5,17.8-0.3,26.6,2.1c5.4,1.5,8.5-1.7,7.5-7c-0.9-4.8-1.7-9.8,2.8-13.4
		c1.6-1.3,3-2.2,2.8-4.7c0-1.5,0.7-3,2-3.8c1.5-1.2,1.8-2-0.1-3.2c-1.3-1-2.6-2.1-3.7-3.3c-4.4-4.3-9.8-5.9-15.6-4.3
		c-4.3,1.2-8,2.4-10.9-2.2c-0.8-1.3-2.3-1.1-3.5-0.2s-0.7,1.8,0.1,2.8C571.2,246.3,571,247.1,564.8,248.9z"/>
	<path fill="#FCAF16" d="M201.9,233c-4.4,3.9-8.6,8.1-13.6,12.9c0.8-0.1,1.6-0.2,2.4-0.5c18.4-9.9,38-17,57.5-24.1
		c39.9-14.3,73.2-38.3,100.3-70.2c17.3-20.5,36.2-39.6,56.5-57.1c1.1-1,2.1-2.1,3.2-3.2c-9.3,4.8-18.7,9.1-26.9,15.3
		c-20.8,15.8-42.4,30.6-63.8,45.6c-9.2,6.4-18,13.1-25.8,21.2c-1,1-2.5,1.8-2.1,3.7c1.9,10.1-4.5,15.2-12,19.7
		c-1.3,0.8-2.5,1.7-3.8,2.4c-4.9,2.5-9.7,5.1-14.6,7.3c-4,1.8-8.4-0.2-12.2,0.5c-5.7,0.9-10.9-0.2-16.3-0.8
		c-2.4-0.3-3.6,0.1-4.9,1.9C218.7,216.7,210.7,225.3,201.9,233z"/>
	<path fill="#FCAF16" d="M245.1,156.2c-0.4,1.4-2.1,4.1-0.5,4.3c2.2,0.2,4.6,4.9,7,0.3c0.5-0.4,1.1-0.6,1.8-0.5
		c2.6,1.3,4.4,0.8,5.6-2c0.4-1,1.4-1,2.5-0.9c4.3,0.4,5.6-0.9,5.5-5.2c-0.2-4.3-0.8-8.6-0.9-12.9c-0.3-14.7-0.5-29.4,3.2-44
		c-1.4,2.6-2.8,5.2-4.2,7.8C256.2,120.1,250.8,138.2,245.1,156.2z"/>
	<path fill="#2F1D1C" d="M523.9,18.9c-1.3-0.9-1.3-3.8-2.8-3.5c-1.6,0.3-0.8,2.9-1.7,4.3c-0.3,0.6-0.5,1.2-0.6,1.9
		c-4.2,10.1-3.6,19.7,2.8,28.8c2.4,3.4,3.6,7.6,3.5,11.8c-0.1,3-0.3,4.5-3.8,2.2c-5.3-3.6-11.7-5.2-18-4.5c-0.7,0.1-2.3,0-2,0.8
		c1,1.9,2.2,3.6,3.6,5.2c1.1,1.4,2.3,0.7,3.5,0c4.3-2.4,8.3-1.5,12,1.4c1.4,1.1,3,2.8,2.4,4.6c-0.7,2.3-2.8,0.5-4.3,0.8
		c-0.5,0-1,0-1.5,0.1c-3,0.9-3.3,3.5-3.6,6c-0.2,1.2,0.6,2.4,1.8,2.6c0.4,0.1,0.8,0,1.1-0.1c7.9-1.6,15.6-0.3,21.7,0.5l0,0
		c6.4,0.2,10.9-0.8,15-3.3c1-0.6,2.1-1.1,1.9-2.6s-1.5-1-2.3-1.3c-0.6-0.2-1.3-0.4-1.9-0.5c-13.5-3.8-20-16.9-14.6-29.7
		c0.8-2,0.3-2.5-1.2-3.3c-3.5-1.9-5.9-5.3-5.5-8.9C529.9,26.6,528.7,22.2,523.9,18.9z"/>
	<path fill="#47131D" d="M258.8,99.9c-9.7,18-19.5,36-20.8,57c-0.1,1.3-0.9,3.4,0.7,3.9c1.3,0.4,2.6-1.2,3.3-2.6
		c0.4-0.9,0.8-1.8,1-2.8c2.2-6.6,4.3-13.3,6.5-19.9c4.9-14.9,11-29.3,18.3-43.2l0,0C264,94,260.7,96.5,258.8,99.9z"/>
	<path fill="#F2D381" d="M106.3,463.9c-0.4-0.7-0.8-1.5-1-2.3c-1.4-4.1-3.3-8.2-3-13.6c2.7,3.7,4.7,7,7.2,9.8
		c4.1,4.8,4.6,4.7,6.6-1.4c0.3-1,0.6-1.9,1-2.8c1.2-2.9,4.1-6.3,3.4-8.5c-0.9-2.9-5.7-2.3-8.6-3.6c-0.6-0.2-1.1-0.6-1.5-1.1
		c-0.3-0.3,0.2-0.9,0.8-0.6l0,0c0.4-1-0.3-2.4,1-3.1c3.8-2,7.7-3.9,11.5-5.9c1.2-0.6,1.9,0.1,2.4,1c0.8,1.3,1.5,2.6,2.4,4
		c0.6-0.5,1.1-1,1.5-1.4c4.9-5.9,9.2-12.2,16.6-15.6c2.5-1.1,0.4-2.1-0.5-2.7c-5.7-4.5-12.3-6.3-19.2-4.2
		c-10.9,3.3-20.4,9-26.5,18.9c-5.3,8.5-9.6,17.5-12.8,27c-5.4,15.9,4.8,35.4,19.7,38.8c3.5,0.8,4.7,0.3,3.2-3.4
		c-0.8-2.2-0.9-4.6-0.2-6.9C112.4,478.1,110.6,470.8,106.3,463.9z"/>
	<path fill="#F2D381" d="M449.9,64.4c-0.5,1-1.6,2.1-0.6,3.1c0.8,0.8,1.9-0.1,2.8-0.3c11.2-2.3,22.5-2.2,33.8-2.1
		c6.5,0.1,8.8,3.1,7.8,9.2c-0.4,1.8-0.6,3.6-0.8,5.4c-0.4,7.9-3.3,15.4-8.4,21.5c-6.2,7.6-12.8,14.9-19.6,22c-3.9,4.2-4,4.2,1,7.4
		c22.9,14.9,56.8,4.2,69.2-21.9c2.2-4.6,2.2-4.6-2.9-5.5c-0.8-0.1-1.9,0.1-2-0.9c-0.1-1.2,1-1,1.8-1.1c6.5-0.7,6.5-0.7,7.5-7.2
		c0.3-2.1,0.3-4.3,0.5-6.5c0.2-2.5-0.6-3.4-3.2-3.7c-6.6-0.7-13.2-1.6-19.9-0.4c-4.1,0.7-6.2-1.9-5.4-6c0.9-4.5,3.2-7.4,9.6-6.7
		c-4.5-3.9-8-5.2-12-2.7c-2.9,1.8-5.1,1-6.6-1.9c-1.6-3.1-4.2-4-7.4-4.2c-2.8-0.2-5.4-1.2-7.6-2.9c11.8,0.5,24-4.3,35.3,4.2
		c0.2-5.8-0.7-10.6-4.7-13.3c-6.5-4.4-13.8-7.4-21.6-8.6C478.1,38.6,457.1,48.8,449.9,64.4z"/>
	<path fill="#FEE43B" d="M453.6,578.6L453.6,578.6c-9.5-5.7-11.2-5-13,5.8c-0.2,1.2-0.4,2.3-0.5,3.5c-2.3,15.9-8.8,29.6-21.2,40.1
		c-5.2,4.5-10.7,8.5-15.7,13.2c-12.4,11.8-27,19.7-43.3,24.8c-6.9,2.2-7,3-2.5,8.7c0.3,0.4,0.6,0.9,1,1.1c4.4,2,1.9,4-0.1,5.9
		c-2.5,2.4-5.7,4.2-7,7.6c-1,2.6-0.4,4.6,2.8,3.7c10.2-2.8,18.9-7.3,21.8-18.8c1.6-6.4,5.4-7.8,10.5-3.9c3.6,2.7,7.3,4.1,11.5,1.7
		c4.2-2.3,5.8-6.3,5-10.7c-0.5-14.1,11.4-22.1,23.8-16.2c1.9,1.1,4.4,0.8,5.9-0.8c2.6-2.2,4.1-5.3,4.2-8.7c0.1-3.3,0-6.7,0-10
		c0-7.8,2-10.7,9.6-12.1c4.7-0.9,6.9-3.5,7.9-7.8c0.7-2.9,0.8-6,0.3-8.9c-0.8-5-1.3-9.9,0.2-14.8
		C455.5,580.5,454.9,579.1,453.6,578.6z"/>
	<path fill="#502324" d="M441.8,480.3c5-14.3,10-28.5,15.4-44.1c-5.5,3.9-9.9,7-14.4,10.2s-9,6.5-14.2,8.3
		c-5.6,1.9-10.4,5.5-13.7,10.4c-3.5,5-7.1,5.8-13.2,4.1c-8.4-2.1-16.2-6.4-22.6-12.3c-17.2-16.5-35.2-32.1-51-50
		c-1.8-2.1-4.5-3.4-7.3-3.6c-4.2-0.5-4.3,0.9-3,4.3c4.7,12,7,24.8,6.8,37.6c-0.4,14.3,5.3,25.2,15.7,34c24,20.4,50.6,35,83.2,35.7
		c0.9,0,2.3-0.3,2.1,1.2c-0.1,1-1.3,0.8-2.1,0.8c-5.7,0.2-11.3-0.3-16.9-1.5c-27.5-5.6-50.9-19.1-71.2-38.2
		c-4.1-3.9-7.4-8.6-9.8-13.8c-0.4-0.9-0.3-2.8-1.8-2.5c-1.3,0.3-1.1,2-1.2,3c-0.3,5.2-1.2,10.1-4.4,14.5
		c-16.9,22.8-30.6,47.6-43.5,72.8c-6.1,11.5-10.1,24-12,36.8c-1.1,7.9-2.2,15.8-3.5,23.7c-2.5,16.3-4.6,32.7-2.6,49.2
		c0.3,2.4,0.9,3.8,3.2,4.9c18,8.5,36.9,10.8,56.5,9.2c3.1-0.2,3.8-1,2.8-4.2c-4.8-14.5-8.8-29.3-11.7-44.4c-1.7-9-2.9-18.1-4.3-27.1
		c-0.2-1.1-0.6-2.5,0.9-3c1.2-0.4,1.6,0.8,2.2,1.5s1,1.3,1.5,2c17,21.7,37,40.8,59.4,56.8c2.8,2,5.1,2.3,8.2,0.8
		c6.5-3,12.6-6.8,18.2-11.3c7.8-6.5,15.6-13,23.4-19.5c12.4-10.4,19.1-23.8,21-39.6c2.4-19.9,12.3-34.8,28.9-45.6
		c5.3-3.5,11.2-4.8,17.3-5.8c14.2-2.5,28.7-4,42.3-9.3c5.3-2.1,10.3-4.6,15.7-6.5c4.4-1.6,7-4.1,7.4-8.9c0.6-6.5,2.8-12.3,7.4-17
		c1.5-1.5,1.4-2.8,0.7-4.5c-2.3-5.2-5.8-6.5-11.1-4c-18.4,8.5-37.3,13.4-57.6,8.3c-4.5-1.1-9.3-1-13.8,0.3c-3.5,1-7.2,1.3-10.9,0.9
		c-10.5-1-16.5-7-17.4-17.5c0-0.6,0-1.4-1.4-1.5c-0.9,2.5-1.7,5.1-2.7,7.7c-0.2,0.7-0.4,1.9-1.5,1.7c-1.5-0.4-0.7-1.6-0.4-2.4
		S441.5,481.2,441.8,480.3z"/>
	<path fill="#FEE43B" d="M483.9,542.4c-3.7-1-6.9,0.2-9.3,3.2c-1.3,1.6-1.8,3.1,0.8,4.1c3.2,1.2,6.4,2.7,9.6,4
		c2.9,1.3,4,0.4,3.2-2.3l0,0C487.8,547.6,488.3,543.6,483.9,542.4z"/>
	<path fill="#FFDFCF" d="M537.8,589.8c-1.5-2-3-2.5-5.5-2c-14.2,2.7-27,10.2-36.5,21.1c-6,6.7-8.8,15.6-7.6,24.5
		c0.9,7.3,2.5,14.2,7.8,20c5.6,6.2,5.3,9.2,0.8,16.1c-2.8,4.5-5.9,8.8-9.4,12.9c-20.5,22.9-36,48.7-45.4,77.9
		c-9,28-10.2,57.6-15.5,86.3c-0.4,2.3,0.9,2.6,2.5,2.7c4.5,0.4,9,0.7,13.5,0.9c4.3-0.3,8.6-0.6,12.9-0.8c2.3-0.1,3.5-1.2,4.2-3.4
		c1.3-4.1,2.9-8.1,4.6-12.1c12.1-27.3,28.3-52.3,43.7-77.8c12.4-20.5,25.4-40.6,36.6-61.8c3.5-6.6,7.8-12.8,13-18.2
		c4.7-5,8.7-10.6,11.7-16.7c1.4-2.6,1.7-5.7,0.7-8.5C563.1,628.5,551.7,608.5,537.8,589.8z"/>
	<path fill="#FEE43B" d="M582.5,474.6c-0.8,0.5-1.8,0.9-2.7,1.2c-6.9,2.1-13.7,3.7-19-3.4c-1.6-2.2-3.8-1.6-5.9-0.7
		c-4.1,1.9-7.9,4.2-11.5,7c-4.8,3.6-10.5,5.9-16.4,6.9c-12.7,2.3-21.2-1.6-26.7-12.5c-1.5-3-2.4-1.2-3.4,0
		c-3.5,4.4-6.1,9.5-9.2,14.2c-1.8,2.8-1.9,3.8,1.9,4.7c19.3,4.5,37.2,0.2,54.7-7.7c2.9-1.3,5.5-2.6,7.4-5.5c2.7-4,6.5-3.8,9.3,0
		c1.1,1.5,2.2,3.2,4.1,3.4c4.8,0.4,9.2,2.4,13.8,3.8c2.2,0.7,5.5,2.2,6.5,1.3c1.7-1.5,0.2-4.6,0.6-7.4c-0.1-1.1-0.1-2.2,0-3.3
		C586.6,473,585.3,472.7,582.5,474.6z"/>
	<path fill="#FEE43B" d="M558.7,479c-1.2-2.1-3.2-0.9-4.7,0.3c-1.9,1.7-0.6,2.7,0.8,3.8c1.2,0.9,2.3,1.9,3.2,3.1
		c4.2,5.3,4.2,5.4,10.2,2.1l3.9-2.1l0.2-1.2C566.6,485.5,561.7,484.3,558.7,479z"/>
	<path fill="#FEE43B" d="M505.5,540.5c3.2,1.3,6.2,3.2,9.7,4c3.2,0.7,6.3,0.3,7.3-3.2c1.7-5.9,5.7-8.3,11.5-9.3
		c6.2-1,11-4.4,13.3-11.7c-4.2,1.7-7.8,2.7-11,4.3c-15.6,8.3-32.9,10.8-49.9,13.1c-20.5,2.8-32.5,15.1-41.5,31.9
		c-0.5,1-1.5,2.3-0.1,3c3.5,1.6,7,3.1,10.6,4.3c2.2,0.7,2.9-1.9,4.5-2.6c0.7-0.3,1.4-1.2,2.2-0.5c1.1,0.9-0.1,1.4-0.6,1.8
		c-1.3,1.1-1.2,1.8,0.4,2.4c3.4,1.6,7.4,1.1,10.3-1.4c2.9-2.4,3.5-5.5,2.1-9c-1.3-3.2-2.7-6.5-3.8-9.8c-1.1-3.4-1-7,0.4-10.3
		c2.1-5.4,6.9-8.4,12.1-7.6c4.7,0.7,6.2,3,7,9.9c0.2,1.8-0.4,4.6,2,5.1c2.8,0.6,4.5-1.7,5.7-4c0.9-1.8,1.3-3.8,1.1-5.8
		C498.4,539.2,499.7,538.3,505.5,540.5z"/>
	<path fill="#F2D381" d="M169.6,411.7c2.5-1.1,2-2.5,1.1-4.3c-2.7-5.1-9.2-6.8-15.9-4.4c-2.4,0.8-2.5,1.5-0.6,3.2
		c3.6,3.2,6.2,7.1,5.7,12.2c-0.2,2.6,1.2,2.5,3,2.6c7,0.5,13.2,4.4,16.7,10.5c2.7,4.4,5.7,8.6,8.9,12.6c1.6,2.3,3.4,4.5,5.4,6.5
		c0.5,0.7,0.6,1.5,0.4,2.3c-0.2,0.7-0.9,0.4-1.6,0.2c-6.1-1.7-6.1-1.7-5.7,4.2c0.1,0.7,0,1.4,0.1,2c0,1.5-0.1,3,0,4.5
		c0.2,3-2.6,6.9-0.4,8.4c2.2,1.6,6-0.5,8.9-1.8c0.8-0.3,1.6-0.8,2.2,0c0.6,0.8,0,1.6-0.3,2.3c-2.1,4.9-5.2,9.3-10.3,11
		c-5.6,1.9-8.7,5.8-11.4,10.4c-1.5,2.4-3.1,4.7-4.6,7.1c-0.7,1-2.2,1.8-1,3.4c0.9,1.1,2.3,1.5,3.6,1.1c3.5-0.6,6.7-2.1,9.4-4.4
		c15-12.6,19.2-29.4,18.7-47.9c-0.1-2.7-1.1-5.5-0.4-8.3c0.7-3.1,0.9-6.3,0.5-9.4c-1-10.3-7.3-17-16-21.4
		c-7.5-3.8-14.8-3.9-20.5,3.8c-0.4,0.5-1,1-1.6,0.3s-0.1-1.3,0.3-1.8C165.4,414.5,167.3,412.8,169.6,411.7z"/>
	<path fill="#2F1D1C" d="M154.6,275.2c-7,7.8-7.9,18-10.8,27.5c-0.6,1.9,0.8,1.4,1.7,1.1c4.4-1.5,8.3-1.8,11.3,2.9
		c1.5,2.4,2.4,0.2,2.9-1c1.3-3.4,2.2-7.1,5.3-9.4c2.6-1.9,2.2-3.3-0.1-4.8c-6.6-4.7-9.4-10.8-7.2-19
		C156.1,272.9,155.5,274.2,154.6,275.2z"/>
	<path fill="#47131D" d="M212.6,162.4c0.1,1.5,0.9,2.1,2.4,1.4c4.6-2.3,9.2-4.5,14.1-6.8c-2.5-2-4.9-2.3-7.3-2.7
		c-5.6-1-6.6-2.7-4.8-8.2c1-2.8,2.1-5.6,2-8.7c0-1.4,0.8-3.4-0.7-4c-1.2-0.5-2,1.4-2.9,2.3c-2.9,3-5.6,6.1-8.7,8.9
		c-2.3,2.2-2.6,3.4,0.7,4.6c4.7,1.8,6.8,5.1,5.3,10.2C212.4,160.4,212.4,161.4,212.6,162.4z"/>
	<path fill="#47131D" d="M289.5,171.9L289.5,171.9c0.7-0.6,1.6-1.4,2.4-2.2c4.9-5,10.2-9.6,16-13.6c19-12.6,36.8-26.9,55.9-39.4
		c6.1-4,11.8-8.7,17.6-13.2c0.8-0.6,2.4-1.1,1.1-2.7c-1-1.2-2-1-3,0c-0.5,0.5-1,0.9-1.5,1.3c-9.1,7.8-19.1,14.5-29.9,19.8
		c-9.4,4.6-18.3,10.2-26.6,16.6c-10.8,8.4-21.8,16.4-33.6,23.2c-2.3,1.3-2.6,2.5-1.4,4.7c0.7,1.3,1.2,2.7,1.7,4.2
		C288.2,171.2,288.4,171.9,289.5,171.9z"/>
	<path fill="#FCAF16" d="M292.1,100.8c1.2-0.6,2.4-1.2,3.6-1.8l25.9-11.8c-5-1.7-9.2-2.8-13.1-4.5c-8.3-3.7-15.9-3.9-24.5,0.4
		c-6.1,3-10.1,6.3-11.7,12.7c-0.5,1.8-1.1,3.5-1.5,5.3c-3.7,16.8-3.1,33.7-1.8,50.7c0.1,1.8,1.1,2,2.5,2.4c3.6,0.7,7,2.5,9.6,5.1
		c2.3,2.5,4.1,1.8,6.4,0.4c9.1-5.5,18-11.5,26.4-18c11.2-9,23.3-16.7,36.1-23.1c9.6-4.7,18.2-10.9,26.4-17.8c0.7-0.6,2-1.2,1.7-2.2
		c-0.2-0.6-1.5-1.1-2.4-1.3c-8.3-1.7-16.3-4.8-24.4-7c-7.7-2.2-15.8-2.3-23.2,0.8c-11.1,4.8-23.3,6-34.3,11.1
		c-0.3,0.1-0.6,0.4-0.9,0.4c-0.5,0-0.9-0.3-1.2-0.6C291.1,101.4,291.7,101,292.1,100.8z"/>
	<path fill="#FCAF16" d="M200.4,169.2h-0.1c-3.7-1.1-6.9-3.3-9.4-6.3c-1.2-1.4-2-0.5-2.7,0.5c-4.3,5.3-7.8,11.1-10.5,17.3
		c-0.2,0.6-0.6,1.5-0.3,1.8c0.7,0.9,1.5,0,2.1-0.4c6.7-3.6,13.4-7.1,20.1-10.8c0.6-0.3,1.1-0.7,1.5-1
		C201.2,169.9,200.9,169.4,200.4,169.2z"/>
	<path fill="#FCAF16" d="M236.4,151.1c2.2-15.6,9-29.5,15.7-43.3c0.7-1.4,2-2.6,1.7-4.4c-0.4-0.1-0.8-0.3-1-0.1
		c-10.9,7.6-21.2,16-30.8,25.3c-1,0.7-1.5,1.8-1.5,3c0.7,5.6-0.1,11.4-2.3,16.6c-0.9,2.2-0.1,3.9,2.7,4.1c3.2,0.2,6.1,1.4,9,2.6
		C233.6,156.1,235.9,154.8,236.4,151.1z"/>
	<path fill="#FCAF16" d="M204.9,150.2c-4.5-2.4-5.5,2.2-8,3.7c-0.9,0.7-1.8,1.5-2.5,2.4c-3.4,3.6-3.4,4.3,0.3,7.4
		c1.4,1.2,3,2.1,4.6,2.9c3.1,1.3,6.2,2.1,9.5,0.1c3.1-1.9,0.7-4.6,1.1-6.6C213.1,154.2,209,152.3,204.9,150.2z"/>
	<path fill="#F6923F" d="M487.6,921.7c3.6-7.7,6.4-15.7,8.4-23.9c3.4-14.3,1.4-28.8,1.4-43.5c-8.5,9.1-18.4,17-24.1,28.3
		c-1.6,2.9-3.6,5.6-6.1,7.8c-1.7,1.6-2.9,1.7-4.5-0.1c-2.8-3-6.2-5.2-10.4-7.4c2.9,6.3,3.4,7.7,1.7,8.6c-3.7,2.1-2.6,5-2.3,8
		c0.5,4.3,0.8,8.6,1.3,12.9c0.2,1.6-0.2,4,1.1,4.6c1.6,0.7,2.5-1.6,3.7-2.7c4.1-3.7,9.7-2.7,10.4,2.5c0.9,6.8,4,14-1.1,20.9
		c3.9,0.2,6.8-1.4,9.6-3.3C481.5,931.3,485.2,926.8,487.6,921.7z"/>
	<path fill="#F7A046" d="M59.4,946.9c4.7,1.3,9.5,2,14.3,2c15.8,0.4,30.7-3.5,45.3-8.8c8.4-3.1,16-6.6,22.1-14.6
		c6.8-8.9,8.6-17.8,8.7-28c0-0.8,0.1-1.9-0.8-2.1c-1-0.3-1.3,0.8-1.7,1.5c-3,5.2-6.1,10.3-7.7,16.2c-1.5,5.6-4.7,7.8-9.4,6.8
		c-5.2-1-10.6-1.2-15.4-3.9c-3.7-2-6.4-0.4-8.3,2.9c-1.3,2.3-2.4,4.7-3.8,7c-4.7,7.6-8.7,8.9-16.6,5c-5.5-2.7-11-5.6-16.3-8.6
		c-1.9-1-3.1-1-4.8,0.4c-4.1,3.4-8.6,6.3-12.7,9.7c-2.7,2.2-5.2,2.6-7.8,0C47,939.9,52.1,944.7,59.4,946.9z"/>
	<path fill="#C5541A" d="M496.7,912.7c6.2,4.5,12.8,8.5,20.3,10.3c20.6,5.2,40.9,3.3,61.1-2.8c2-0.4,3.5-2.1,3.6-4.1
		c0.8-4.8,1.3-9.6,2.5-14.3c0.9-3.7-0.5-4-3.6-4c-9.7,0.1-18-3-23.5-11.6c-1.7-2.6-4.2-4.3-6.6-6c-3.9-2.8-5.6-6.3-4.6-11.2
		c1-4.5,0.6-9.2-1.3-13.5c-1.4,1.8-1.3,3.5-1.6,5.2c-0.9,5.6-1.2,11.3-0.9,16.9c0.2,3.5-1.6,4.8-4.6,5.2c-6.2,0.9-10.7-4.4-9.1-10.9
		c0.9-3.4,1.9-6.6,1-10.3c-2.4-9.2-4.5-18.4-6.8-27.6c-0.8-3-1.5-6.3,0.2-8.7c4.1-5.9,1.4-13,4.7-19.4c-2.4,1-2.8,2.5-3.5,3.8
		c-5.7,9.6-10.8,19.6-17.1,28.7c-5.6,8.1-7.6,16.4-7,26.1c0.8,14.8,0.8,29.7-4.8,43.8C494.2,910.5,495.2,911.6,496.7,912.7z"/>
	<path fill="#F7EB4B" d="M463.6,936.9c3.6-0.8,4.5-4.1,4.3-7.5c-0.2-3.6-0.6-7.3-1.1-10.9c-0.8-4.4-4.2-5.5-7.5-2.5
		c-1.6,1.4-3.2,2.9-4.9,4.2s-2.6,0.7-2.5-1.2c0.5-6.8-5-9.1-9.5-13.1c-0.6,3.5,0,5.9,2.4,7.3c2.7,1.5,2.5,3,0.9,5.1
		c-2.9,3.6-3.5,8.5-1.7,12.8c0.7,1.7,1,3.5,1.1,5.3c0.1,2.2-1,5.4,1.6,6.2s4.7-2,6.3-4.1c1.4-1.9,2.6-3.8,2.2-6.4
		c-0.2-0.9-1-2.6,0.9-2.8c1.2-0.1,0.8,1.6,1.2,2.4C458.6,934.3,460,937.7,463.6,936.9z"/>
	<path fill="#F6923F" d="M187.1,939c17.1,4.2,34.5,5.5,52,6c7.2,0.4,14.3-0.4,21.4-1.2c17.6-1.8,34.8-6.1,51.1-12.9
		c3.7-1.5,4.3-3.5,2.8-6.9c-2.1-4.9-3.9-9.9-6-14.8c-3-6.9-4.7-14.2-5.2-21.7c-0.1-2.6-1.4-5.1-3.5-6.6
		c-12.2-10-25.5-18.8-37.2-29.4c-2-1.8-3.4-1-5.3,0c-8.8,5-17.6,10-26.5,15c-11,6.3-21.9,12.6-32.9,18.9c-2.3,1.3-4.4,2.5-6.2-0.8
		c-1.2-2.3-1.9-0.3-2.7,0.5c-7.8,8.3-15.8,16.5-21.6,26.4c-1.2,2.1-3.3,3.8-5.1,5.5c-4.4,4.2-4.2,7.5,0.9,11.1
		C170.4,933.2,178.5,936.9,187.1,939z"/>
	<path fill="#4F2224" d="M494.5,964.6c-0.7-3.6-2.8-5.2-6.4-4.6c-2.8,0.3-5.7-0.1-8.3-1.2c-10.7-3.7-19-10.1-23.3-21.2l0,0
		c-2.3,2.7-4,5.4-7.1,6.7c-3.4,1.5-5.9,0.5-6.1-3.2c-0.4-4.6-1.1-9.2-2.3-13.7c-0.5-2-0.3-4.1,0.7-5.9c1.8-3.3,3.3-6.3-0.6-9.3
		c-0.8-0.7-1-2.4-1.1-3.7s-0.8-2.9,1-3.4c1.3-0.4,2.7-1,4.1,0.4s3,3.2,5.5,3.8c-0.2-2.6-0.3-5-0.7-7.4c-0.6-3.6,0.9-8.2-4.1-10.2
		c-0.5-0.2-0.8-0.8-0.6-1.3c0.1-0.2,0.2-0.3,0.3-0.4c2.5-2.5,1.2-5,0-7.3c-1.6-3.2,0.1-5.5,1.6-8c0.6-1,1.1-0.8,1.8,0.1
		c1.3,1.7,1.5,1.8,2.3-0.3c2.8-7.3,7.4-13.8,13.5-18.7c1.8-1.5,3.3-3.3,5-4.9c0.7-0.7,1.6-1.5,0.4-2.4c-2.1-1.6-4.7-1.7-7.1-2.2
		c-2.1-0.5-1.8,1.9-2.4,3.1s-1.5,1.5-2.7,1.7c-11.2,2.3-22.5,0.2-33.8,1.4c-8.7,0.9-11.7-5.6-8.1-14c-4.4,3-5.2,5-3.1,9.9
		c1.8,4.5,2.4,9.4,1.7,14.2c-0.8,7.3-0.8,14.6,0,21.9c0.5,5,0.7,10,0.5,15c0,4-1.1,7.5-4.4,10.2c-2.2,1.8-3.3,4.1-2.1,7.1
		c1.1,2.7,0,5.1-1.3,7.5c-3.2,5.6-3,11.3,0.8,16.6c3.2,4.5,7.5,7.9,12.9,8.9c12.7,2.3,21.1,9.4,26.4,21.1
		c3.6,7.9,10.4,12.1,19.2,13.3c8.1,1.1,16.3,0.8,24.3-1c5.2-1.1,6.9-3.7,5.9-8.9C496.1,971,495.2,967.8,494.5,964.6z"/>
	<path fill="#F6923F" d="M327.6,936c2.5,1.6,5.1,3.1,7.8,4.4c20.2,9.1,41.6,9.2,63.2,8c2.4-0.1,2.7-1.3,2-3.3c-1-3-0.8-6.3,0.8-9.1
		c2.8-5.2,2.1-11.7,5.5-16.9c0.3-0.5-0.2-1.6-0.5-2.4c-1.1-2.9-0.2-6.2,2.4-8.1c3.3-2.7,4.3-6.1,4.2-10.2
		c-0.2-13.8-2.1-27.5-0.2-41.4c0.4-3.3-0.6-4.6-4.2-2.6c-10.8,5.8-21.3,12.4-31.2,19.7c-12.4,9.2-24.5,18.8-37.5,27.4
		c-2.7,1.8-5.5,5.5-8,5.3c-3.2-0.3-6.2-3.6-9-5.9c-5.8-4.7-11.5-9.5-17.2-14.3c-0.7,1.4-0.2,2.5-0.1,3.6c0.9,10.8,6.6,20.2,9.6,30.3
		C317.3,927.7,321.6,932.4,327.6,936z"/>
	<path fill="#3E1518" d="M553.8,862.4c-0.7-2.5-1.6-5.1-3.9-6.8c-0.8-0.6-1.7-1.3-2.6-0.7c-0.7,0.5-0.2,1.6,0.1,2.3
		c1.2,3.8,1.4,7.9,0.6,11.8c-1,4.5,0.5,7.8,4.4,10.1c1.1,0.7,2,2.5,3.3,1.7s0.2-2.4,0.4-4C555.4,872.2,555.2,867.2,553.8,862.4z"/>
	<path fill="#FFDFCF" d="M583.9,552.4c0.5-11.8-2.4-17.8-13.3-22.4c-6.1-2.6-12.5-4.6-18.7-7c-1.7-0.7-2.9-0.9-3.9,1.2
		c-2.8,6.2-8.2,9.1-14.5,10.1c-4.7,0.8-7.3,2.9-8.9,7.4s-4.7,6-9.5,5c-3.3-0.7-6.2-2.3-9.2-3.7c-4.5-2-4.8-1.8-4.8,3.2
		c0,8.5-6,12.9-14,10.3c-4.1-1.4-8.1-3-12-4.8c-2.3-1-3-0.4-2.9,1.9c0.1,4.5,2.2,8.3,3.9,12.3c1.7,4,2,7.8-1.1,11.2
		c-2.8,3.3-7.1,4.7-11.3,3.7c-6.2-1.2-6.6-1-7.3,5.2c-0.3,2.3-0.2,4.7,0.1,7c1.2,5.8,0.7,11.9-1.3,17.5l0,0c1.6-0.6,2.4-0.8,3.1-1.1
		c12.4-5.2,24.8-10.6,37.2-15.7c18.9-7.8,38.1-14.8,57.5-21.5c1.1-0.4,2.8-1.8,3.4-0.1c0.5,1.5-1.7,1.6-2.8,2
		c-5.6,2-11.3,4.1-16.9,6c-2.4,0.8-2.7,1.6-1,3.7c16.3,20.5,29.4,42.8,37.1,68.1c0.6-2.7,1.1-5.5,1.3-8.2c1.3-13.3,1.8-26.7,4-39.8
		C580.9,586.8,583.2,569.8,583.9,552.4z"/>
	<path fill="#C5541A" d="M624.8,720.4c1.3-3.1,1.3-6.5-0.1-9.5c-2.7-6.6-5.5-13.2-8.8-19.5c-9.1-17.6-20.7-33.3-36.6-45.4
		c-0.9-0.7-2.1-2.2-2.9-1.4c-1,1-0.9,2.8,0,4.2c0.4,0.5,0.9,1,1.5,1.3c13.4,10.7,21.8,24.8,27.4,40.8c4.7,13.6,9.9,27.1,15.3,42
		C622.2,727.9,623.3,724.1,624.8,720.4z"/>
	<path fill="#502324" d="M557.2,519c-1.7,0.3-3.6,0.2-5.3,1.5c6.1,2.3,12,4.4,17.8,6.7s11.3,5.6,15,12.7c0.2-12.1-3.1-21.8-10-30.2
		c-1.8-2.4-4.2-4.3-6.9-5.6c-1.4-0.6-3-1.6-4.2-0.7c-1.6,1.2,0.1,2.7,0.5,4C566.4,514.7,564.7,517.5,557.2,519z"/>
	<path fill="#F7EB4B" d="M566.6,820.8c-2,5.8,0.8,11.1,6.9,11.2c3.7-1.5,8.4-3.1,12.5-6c1.1-0.8,1-2,0.5-3.1
		c-2.2-5.5-4.3-11.1-6.7-16.6c-1-2.8-3-5.2-5.6-6.8c-2-1.1-4-1.5-3.5,2.1c0.2,2.6,0.1,5.3-0.5,7.9
		C569.7,813.4,567.9,817,566.6,820.8z"/>
	<path fill="#502324" d="M580.4,600c-0.3,1.6-0.6,3.1,2,2.3c13.9-3.9,26.5-10.1,35.5-21.7c7.5-9.6,4.4-17.3-7.2-21.1
		c-9.2-3-17.5-7.8-24.3-15.3c-1.8,12.2-0.4,24.5-2.4,36.7C583,587.3,581.6,593.6,580.4,600z"/>
	<path fill="#C5541A" d="M592.1,854.9c1.3-0.3,0.8-1.7,1-2.6c1.6-8,3.5-15.9,4.9-24c5.4-30.3,10.8-60.6,20.9-89.8
		c0.2-0.7,0.4-1.6,0.8-2.8c-0.3-0.4-0.5-0.9-0.7-1.3c-5.2-14.2-10.5-28.4-15.6-42.6c-2.5-7.2-5.8-14.2-9.7-20.8
		c-4.3-6.8-9.5-12.9-15.6-18.1c-1.8-1.5-2.7-1.6-2.9,1.2c-1,12.8-2.9,25.5-5.5,38c-0.3,1.5-0.8,3.3,1.4,3.4c3.8,0.2,5.2,2,7.1,5.5
		c1.4,2.6,0.9,3.3-0.3,4.8c-10.3,13.1-14,27.9-12.1,44.5c1.6,14.2,4.5,28.2,3.6,42.6c-0.1,2,0.7,3.3,2.7,3.6c5.3,0.8,7.9,4.7,9.9,9
		s3.4,8.7,5.1,13c3.2,7.9,3.3,8-4.2,11.8c-2.6,1.3-3.2,2.8-2.3,5.5c2.1,6.4,5.9,11.9,9.7,17.4C590.6,853.8,590.8,855.3,592.1,854.9z
		"/>
	<path fill="#4F2224" d="M585.8,892.8c0.7-3.5,0.4-5.8-3.5-7.2c-4.6-1.7-8.2-5-11.2-8.9c-4.5-5.8-7.9-12.3-10.1-19.3
		c-2.6-7.8-7.8-13.2-15.7-14.6c-10-1.9-17.2-5.8-18.3-16.9c-0.1-0.6-0.3-1.4-1.2-1.2c-0.4,0.1-0.7,0.7-0.8,1.1
		c-1.5,3.3-0.4,6.4,0.2,9.7c2.1,12.9,9.4,25,5.2,38.9c-1,3.4,2.2,6.5,5.7,6.7c4.5,0.3,4-2.8,4-5.7c-0.2-7,0.5-14,2-20.8
		c0.6-2.5,1.5-3.3,4.4-2.6c5.6,1.3,8,5,9.3,9.9c1.4,5.5,2.1,11.1,2.3,16.8c0.3,6,2.5,11,8.1,13.9c4.1,2.2,8.7,3.4,13.4,3.5
		C582.1,895.8,585,896.7,585.8,892.8z"/>
	<path fill="#4F2224" d="M587.6,881.8c0.5-4.5,1.3-8.9,2.4-13.3c2-7.2,0-13.2-4.6-18.8c-3.1-3.9-5.4-8.4-6.8-13.3
		c-0.7-2.4-1.4-3.3-4.4-2.7c-5.5,1.2-9.7-2.5-10.3-8.2c-0.2-2.7,0.4-5.3,1.6-7.7c1.9-4.3,3.5-8.8,3.2-13.5
		c-0.4-6.8-0.4-13.7-1.3-20.2c-1.6-11.7-2.1-23.5-4-35.2c-2.4-15.1,1.8-29.1,10.2-41.7c3.4-5.2,2.2-8.8-3.9-10
		c-3.8-0.8-7.3,0.2-10.6,1.8c-4.3,2.2-9.1,3.4-13.9,3.7c-2.5,0.1-3.8,1.1-5,3.2c-4.4,8-8.9,16-13.5,23.9c-1.2,2.2-1.8,4.6-1.8,7.1
		c-0.5,12.2,1.2,24.3,3.6,36.2c2.6,12.7,4.4,25.2-0.5,37.8c-0.4,1.4-0.6,2.8-0.7,4.3c0,5.3,3.1,16.8,4.9,19.3
		c3.3,4.6,8.8,4.3,13.4,5.8c8.3,2.6,14.3,7.6,17.1,16c1.9,5.9,4.5,11.4,8,16.5c3.1,4.6,7.3,8.3,12.2,10.8
		C585.7,885.2,587.2,885.3,587.6,881.8z"/>
	<path fill="#6D4546" d="M44.2,561.3c-0.8,9,2.8,17.3,3.8,27.2l13.7-16.6c1.6-2,0.8-3.3-1.1-4.4c-4.2-2.7-8.4-5.4-12.4-8.3
		C45,556.8,44.4,558.2,44.2,561.3z"/>
	<path fill="#F8B952" d="M41.4,581.5c-10.9,8.2-18.9,18.5-23.1,31.9c6.9-5.5,13.7-11.3,21.3-15.7c6.4-3.7,8-8,5.4-14.4
		c0-0.2-0.1-0.3-0.1-0.5C44.7,579.9,43.4,580,41.4,581.5z"/>
	<path fill="#6D4546" d="M76.7,539.2c-7.8-6.2-22.3-3.2-27.1,5.5c-1,1.8-0.5,2.6,0.9,3.6c5.5,3.7,11,7.4,16.6,11
		c1.8,1.2,4.4,1.8,5.3-0.2c2.5-5.6,4.2-11.5,6.2-17.1C78.7,540.5,77.6,539.9,76.7,539.2z"/>
	<path fill="#AA97A6" d="M152.7,526.9c1.8-5.1,3.6-10.2,5.2-15.4c0.3-1,1.9-2.6,0.1-3.3c-2.2-0.9-2.6,1.1-3,2.8
		c-1,5.2-2,10.3-3,15.5L152.7,526.9z"/>
	<path fill="#2B233F" d="M151.6,551c4.4,2.9,8.4,6.8,14.4,4.2c1.2-0.5,2.6-0.2,4-0.3c10.4-0.4,20,2.5,30,7.4
		c-3.9-14.7-5-30-3.2-45.1c1.4-12.4,3.3-24.7,5.7-37c0.3-1.7,1.6-4.6,0.3-4.9c-2.4-0.6-1.9,2.6-2.4,4.1c-2.1,5.8-4.6,11.4-8.7,16.2
		c-4.3,5.1-8.9,10-15.7,11.8c-2.1,0.6-4.2,1-6.3-0.1c-3.8-2.1-7.8-0.9-9.2,2.9c-4.6,11.8-8,24-10.4,36.4
		C150,548.2,149.8,549.8,151.6,551z"/>
	<path fill="#F8B952" d="M1.3,648.2L1.3,648.2c0.6,2.9,1,6,3.8,7.4s4.6-1.2,6.3-2.9c5.8-5.7,10.9-12.1,15.1-19.2
		c4.2-6.8,9.7-12.7,16-17.5c2.8-2.2,7.7-3,8.2-6.5s-1.5-7.4-2.3-11.1c-0.1-0.3-0.2-0.7-0.3-1c-0.3-2.7-1.5-2.5-3.2-1.2
		c-6.3,4.6-12.7,9.1-18.9,13.9c-11,8.7-19.2,20.4-23.5,33.8C2,645.3,1.7,646.8,1.3,648.2z"/>
	<path fill="#F7EB4B" d="M46.3,930.9c1.1,1,2.1,1.6,3.4,0.5c5.1-4,11.1-6.7,15-12.1c1.9-2.6,7.3-4.2,9.6-2.4
		c6,4.8,13.1,6.4,20.2,7.9c0.8,0.2,2.4-0.1,2,1.4c-0.3,1.2-1.7,0.8-2.6,0.6c-6.8-1.5-13.8-2.6-19.4-7.3c-0.9-0.7-1.8-1.6-3.1-1.4
		c-0.7,0.1-1.3,0.3-1.7,0.8c-0.8,1.2,0.6,1.3,1.1,1.6c6,3.2,12,6.5,18.2,9.3c4.6,2.2,7.4,1.3,10.4-2.9c2.1-3,3.6-6.3,5.5-9.5
		c2.6-4.2,5.8-5.6,10.1-3.7c4.6,2.2,9.6,2.6,14.4,3.8c4.3,1,6.9-0.7,8-4.6c1.7-6.4,5.1-11.9,8.2-17.6c1.4-2.5,3.2-4.9,3.2-9
		c-3.3,4.6-6.9,7.9-9.2,12.2c-1.5,2.8-3.7,5-7.1,4.8c-7.6-0.7-15.4,0.7-22.7-2.6c-1-0.4-1.9-0.8-2.8-0.1c-3.2,2.7-7.5,3.4-10.2,6.9
		c-2.9,3.7-6.9,4.7-11.2,2.5c-5.2-2.6-11-3.8-16.3-6.2c-1.2-0.7-2.6-0.4-3.5,0.5c-4,3.2-8.2,6.2-12.2,9.5c-3.3,2.8-6.5,2.9-10,0.5
		c-7.9-5.6-17.4-8.9-25-15.2C26.3,911.2,36.4,921,46.3,930.9z"/>
	<path fill="#F8B952" d="M129.8,583c30.1-11,58-10.1,84,9.2c-5.3-8-9.5-16.7-12.6-25.8c-0.2-0.8-0.7-1.5-1.4-1.8
		c-10.6-5.2-21.6-8.6-33.6-7.2c-3.4,0.4-6.7,1.7-9.9,2.6C144.5,563.4,136.7,572,129.8,583z"/>
	<path fill="#502324" d="M377,295c0,4.8,0.7,5.5,5.2,4.8c3.8-0.6,7.5-1.1,11.2-2.1c2-0.5,5.1-0.5,5.1-3s-3.1-3.1-5.1-4.1
		c-0.9-0.4-1.9-0.5-2.9-0.4c-3.6,0.5-7.2,1.2-10.8,1.5C377.2,291.8,376.8,293.2,377,295z"/>
	<path fill="#F6B752" d="M51.1,785.8c-2.6,4.4-5,9-6.9,13.8c-5.3,14.2-6.8,28.6-1.3,43.2c0.7,1.8,1.2,4.2,3.7,4.1
		c2.3-0.1,3.8-1.9,4.8-3.9c1-1.9,0.7-3.9,0.8-5.9c0-2.7-0.2-5.4,0.2-8c2.6-14.9,7.3-29.4,14-43c2.9-5.7,2.7-5.9-3.7-6.1h-1.8
		C56.6,779.2,53.5,781.5,51.1,785.8z"/>
	<path fill="#E4DDDC" d="M54.1,593.8c2.7-2.9,5.1-6.2,8-8.9s2.9-5.1,1.5-8.3c-0.8-1.8-1.2-2.5-2.7-0.6c-3.4,4.3-6.9,8.5-10.4,12.8
		c-0.8,1-2,2-0.8,3.6c-0.5,1.6-0.3,4,0.8,4.4C52.2,597.4,53,595,54.1,593.8z"/>
	<path fill="#F6923F" d="M56,749.2c1.8,1.1,2.5-0.9,3.6-1.7c6.9-4.9,14.1-8.5,22.7-5.3c3.3,1.2,2-0.9,1.7-2.1
		c-3-12.2-6.1-24.5-9.3-37.9c-9,14.3-16.5,27.7-18.9,43.3C55.6,746.8,54.6,748.3,56,749.2z"/>
	<path fill="#6D4546" d="M54.1,612.2c0.5,2.3,1.3,2.8,3,0.7c3.4-4.1,7-8.1,10.5-12c0.7-0.8,1.5-1.4,1.1-2.9
		c-0.2-1.1-0.4-2.6-0.8-4.1c-0.8-3.1,0.2-7.8-2.6-8.9c-1.8-0.7-4.2,4-6.3,6.4c-8.3,9.3-8.3,9.3-5,20.3
		C54.1,611.9,54.1,612,54.1,612.2z"/>
	<path fill="#E4DDDC" d="M60.1,625c2.3-2.8,4.5-5.8,7.2-8.2c5.1-4.3,5.4-8.9,1.9-14.6l0,0C66,606,63,610,59.4,613.3s-3.6,7-2.1,11.1
		C58,626.5,58.7,626.8,60.1,625z"/>
	<path fill="#F8B952" d="M56.6,730.7c1.2,0.2,1.3-1.2,1.6-2.1c3.9-9.2,8.6-18,14-26.3c1.2-1.6,1.5-3.7,0.9-5.5
		c-3.3-12.2-6.3-24.4-9.5-36.6c-2.7,3.7-4.4,8.1-8.1,10.3c-5.9,3.5-6.9,8.7-7.3,14.6c-0.9,15,0.2,29.6,6.7,43.3
		C55.5,729.2,56,730.5,56.6,730.7z"/>
	<path fill="#6D4546" d="M88.3,555.5c-0.5,0.2-0.9,0.9-1.1,1.5c-3.6,8.9-7.7,17.8-2.5,27.5c0.6,1.4,1,2.8,1.2,4.3
		c1.2,5.7,3.2,6.4,7.6,2.4c2.5-2.2,3.6-5,3.6-10c-1.2-7.5-4.3-16.1-7.6-24.6C89.2,556.2,89.1,555.2,88.3,555.5z"/>
	<path fill="#F7A046" d="M11.3,916.3c1.2,0.2,2.8,1.4,3.7,0.1c0.7-1.1-0.3-2.5-0.9-3.7c-2.2-4.7-4.4-9.3-5.3-14.5
		c-2.3-11.8-3.2-23.8-2.7-35.8c0.4-9.1,2.1-17.9,7.3-25.6c4.1-6.2,7.4-13.1,9.6-20.2c2.6-8.6,7.3-16.5,13.7-22.9
		c3.7-3.6,6.7-8.2,12.4-9.2c1.4-0.3,2.9-2.4,2.4-3.9s-2.6-2-4.4-1.2l-1.9,0.7c-7.9,3.1-15.3,7.5-21.9,12.8C14,800.6,6.7,810,0,820
		v95C3.9,914.5,7.6,915.6,11.3,916.3z"/>
	<path fill="#F6B752" d="M49.1,776.1c6.6,2.5,6.6,2.4,10.7,1.1c-8.7-9.9-19.8-14.4-32.6-15c-9.4-0.4-18.6,0.4-27.1,4.8v15
		c8-3.6,16.4-6.3,25.1-8.1C33.3,772.1,41.2,773.2,49.1,776.1z"/>
	<path fill="#F6B752" d="M39,780.5c2.1-1,4.1-1.9,6.6-3.1c-6-2.8-11.7-2.9-17.5-2C18.4,777.1,9,780,0,784v32
		c1.1-1.5,2.2-2.9,3.3-4.3C12.8,798.6,24.1,787.5,39,780.5z"/>
	<path d="M29.4,749.4c6.7-1.3,13.5-2.1,20.3-1.1c5.9,0.8,3.8-3.8,4.4-6.2c0.9-4-2.5-2.1-3.9-2c-7.9,0.2-15.6-2.4-21.7-7.4
		C17,723.5,7.8,712.5,2.1,698.8c-0.5-1.3-0.6-3-2.1-3.8v69C8,755.6,18.2,751.6,29.4,749.4z"/>
	<path fill="#F8B952" d="M31.9,732.6c6,4.4,13,5.9,20.3,5.2c3.2-0.3,4.6-1.7,2.8-5c-8.7-16.2-10.3-33.5-8.2-51.4
		c0.7-5.6,0.7-5.6-4.6-3.7c-6,2.2-9.3,1.3-11.7-3.7c-2.6-5.2-4.8-10.6-6.6-16.1c-4.6-15.1,7.8-28.3,23.4-25.6
		c3.9,0.7,7,2.7,11.1,4.7c-2-8-3.8-15.2-5.7-22.4c-0.8-3-2.5-1.1-3.8-0.3c-8.3,5.2-15.4,11.6-20.5,20c-4.2,7.2-9.4,13.8-15.3,19.7
		c-5.9,5.7-8.3,5.5-13-0.9v35c1.4,1.4,1.4,3.3,2,5C7.8,709.4,18,722.4,31.9,732.6z"/>
	<path fill="#DC7126" d="M588,477.1c-1.7,9.6,3.2,18.1,4.7,27.2c0.3,1.7,1.6,2,3,1.9s3.1-0.5,4.5-0.2c3.8,0.9,3.6-0.7,2.8-3.5
		c-4-13.5-4.1-27.8-0.3-41.4c1.9-7.1,6.4-11.4,13.7-12.9c1.2-0.2,3,0.3,3.3-1.5c0.4-2.5,2.5-3,4.3-3.6s3.2-1.4,3.9-3.4
		c1.5-4.3,5.1-6.4,9.2-7.7c7.1-2.3,13.8-0.8,20.3,2.7c-3.5-5.6-8.7-8.6-15-9.5c-5.3-0.8-11-0.1-14.2,4.2c-3.4,4.5-6.5,6.1-11.7,4.3
		c-2.5-0.9-4.9-0.2-5.6,3.2c-0.5,2.7-2.3,3.5-5.1,3.7c-6,0.5-10.6,6.4-9.9,12.1c0.4,2-0.2,4.1-1.6,5.6
		C589,463.5,589.2,470.5,588,477.1z"/>
	<path fill="#2B233F" d="M15,615.7c4-14.3,12.7-26.7,24.7-35.4c3.2-2.4,4-4.5,3.2-8.2c-2.3-10.4-0.7-20.4,5.5-29
		c4.7-6.5,10.2-12.2,20-9.2c5.3,1.6,10,3.2,13.7,7.5c3,3.4,5.5,7.1,7.5,11.1c1.2,2.5,2.3,3.3,5.2,2.6c7.1-1.8,14.6-1.8,21.8,0.2
		c2.7,0.8,4.2,0.1,6.2-1.5c5.8-4.9,13.6-6.9,21.1-5.5c3.3,0.6,3.9-0.3,4.2-3.3c0.8-9.6,1.5-19.3,3.8-28.7c1.2-5,2.5-9.7-4.5-11.4
		c-0.6-0.2-1.2-0.7-1.5-1.3c-1.3-2.1-2.8-1.6-4.6-0.6c-4.7,2.6-10.1,4.2-14.9,2.5c-9.5-3.5-19.6-6-28.1-11.3
		C85.6,486.6,80.6,469,86.4,455c2.1-5.2,0.7-8.5-2.5-12c-6.2-6.6-13.3-7.6-21.1-3.2l-1.3,0.8c-1.2,0.7-2.5,1.2-3.7,0.1
		s-0.7-2.4-0.1-3.7c1.1-2.2,2.4-4.4,3.2-6.7c1.9-5,1.6-9.9-2-14.1s-8.5-4.1-13.4-2.9c-7.7,1.8-9.2,0.7-7.3-7.1
		c1.2-4.6,0.4-9.4-2.2-13.4c-8.2-13.5-20.4-20-36-20.8v271c4.1-8.5,8-17.1,14-24.5C14.5,617.6,14.9,616.7,15,615.7z"/>
	<path fill="#958A93" d="M766.7,110.5c0-0.2,0.1-0.5,0.1-0.7c0.1-0.7,0.6-1.2,1.2-1.5c0.1,0,0.1-0.1,0.2-0.1V0H656
		c11.3,14.8,20.7,31.1,28,48.2c13.9,33,21.5,67.4,24.7,103c0.2,2.6,1.1,4.2,3.4,5.5c5.5,3.1,10.9,6.4,16.2,10
		c2.7,1.8,3.7,1.4,4.8-1.6c5.1-13.7,10.3-27.4,15.6-41.1c0.8-2,1-4.2,0.7-6.3C744.3,84.2,737,51,727.5,18.5
		c-0.5-1.6-2.2-4.2-0.3-4.8s1.7,2.6,2.2,4.2c2.3,7.8,4.3,15.7,6.7,23.5c1,3.4,3.3,7.6,6.1,7.8c3.3,0.2,4.9-4.1,6-7.5
		c2.9-8.2,5.9-16.4,8.9-24.5c0.4-1.1,0.5-3.3,2.1-2.7c1.5,0.6,0.2,2.4-0.2,3.5c-3,8.5-5.5,17.2-9.2,25.3c-4.4,9.6-3.6,19-0.9,28.6
		c1.2,4.2,2.6,8.2,4.1,12.3c2.8,7.3,5.6,14.6,7.3,22.3c0.7,3,0.5,6.3,2.1,9.4l4.3-5.2C766.7,110.7,766.7,110.6,766.7,110.5z"/>
	<path fill="#625770" d="M767.7,123.4c-5.2,6.8-8.3,14.8-10.5,22.8c-3.6,12.8-7.2,25.5-11.9,38c-2.6,6.9-3.6,14.2-3.8,21.5
		c-0.5,14.8-1.1,29.6-1.4,44.4c-0.3,11.1,1.7,21.9,6.9,31.8c7,13.4,14.4,26.6,21,40.1V123.6C767.9,123.5,767.8,123.4,767.7,123.4z"
		/>
	<path fill="#2F1D1C" d="M767.2,325.6c-6.7-15.2-15.4-29.5-22.8-44.4c-4.5-8.8-6.6-18.6-6.3-28.5c0.8-20-1.3-40.3,3.2-59.7
		c4.8-20.4,11-40.4,18.7-59.9c1.8-4.5,3.6-9.1,6.9-12.9c0.1-0.6,0.3-1.1,0.7-1.5c0.1-0.1,0.2-0.2,0.4-0.3v-4.8
		c-0.1-0.1-0.2-0.2-0.3-0.3c-1.9,1.2-2.6,3.4-4,5c-0.7,0.8-1.1,2.5-2.4,2.1c-1.3-0.4-1.2-1.8-1.4-3c-1.5-11.1-4.6-21.9-9-32.1
		c-3.3-7.9-6-16-6.3-24.5c-0.2-5.1-2.4-8.2-6.3-10.9c-0.1,0.5-0.1,1,0,1.5c5.4,21.8,9.7,43.9,13.1,66.1c0.4,2.4,0.1,4.9-0.8,7.2
		c-5.6,14.6-11.3,29.2-16.5,43.9c-1.1,3-1.4,3.4-4,1.7c-31.8-21.1-67-36.3-98.3-58.3c-3.3-2.2-6.1-5.1-8.2-8.4
		c-9-15-16-31.1-20.6-48c-1-3.6-1.6-7.4-3.7-11.2c-0.4,2.5-0.3,5.1,0.3,7.5c0.3,1.8,0.8,3.7-0.8,5.1c-1.9,1.7-3.4-0.2-4.9-0.8
		c-8.2-3.3-16.4-6.7-24.6-10.1c6,4.2,12.3,8.1,18.8,11.5c5,2.7,8.8,5.5,11.1,11.5c4.9,12.7,11.5,24.7,17.4,37c0.5,1,1.6,2,0.7,3.1
		c-0.9,1.1-1.8-0.2-2.7-0.2c-18.2-1.2-36.4-2.6-54.6-3.9c-1.5-0.1-3,0-4.6,0c0.5,0.7,1.3,1.2,2.2,1.4c19.7,4.9,39.3,10,59.1,14.5
		c3.9,0.9,7.6,2.7,10.7,5.3c15.8,12.3,32.9,22.8,49.5,33.8c10.9,7.2,20,16.9,31.5,23.3c0.8,0.5,0.7,1.5,0.6,2.3
		c-0.7,5.9,1.1,11.6,2.1,17.3c3.4,19.1,2.6,38.5,3.8,57.8c0.1,1.8-0.4,3.6,1,5.2s0.3,2-1.2,1.5c-1.7-0.6-3.5-1.2-5.1-2
		c-14.2-6.5-28.4-13.1-42.6-19.7c-8.4-3.9-16.9-7-26.2-7.5c-6.1-0.5-12.2-1.4-18.2-2.7c-2.4-0.5-4.7-1.6-7.3-1
		c7.4,2.1,14.9,4.4,22.5,5.6c6.4,1,10.9,4.1,15.8,8.2c19.2,16.2,39,31.5,60.8,44.2c4.3,2.5,7.2,5.1,9.2,10.1
		c6.9,17.3,14.8,34.2,22.3,51.3c2.5,5.6,4.1,6.7,10.2,6.1c2.1-0.2,4.6-0.8,4.5,1.9c-0.1,2.4-2.7,0.7-4.1,0.9
		c-3.9,0.7-6.3,2.9-5.1,5.4C757,379,761.8,390.4,768,401v-75C767.7,325.9,767.3,325.8,767.2,325.6z"/>
	<path fill="#625770" d="M750,369.9c-1.2-2.5-2.2-2.7-4.2-0.8c-9.7,9.3-16.1,20.7-20.4,33.3c-3.1,9.2-1.3,18.4,2.2,27.3
		c0.8,2.1,0.7,2.7-2,2.6c-8.1-0.3-16,2.5-22.1,7.8c-5.1,4.2-7.9,9.3-6.3,16.1c0.5,2.3,1.1,4.8-1.2,6.4c-2.1,1.4-4.1-0.2-6.1-1
		c-5.1-2.3-9.1-1.3-12.9,2.8c-2.6,2.8-0.8,5.7-0.9,8.5c-0.2,4.7,0.1,4.9,4.4,2.8c16.6-8,33.7-15,51.1-21.1c3.8-1.3,7.8-1.7,11.7-1
		c8.2,1.4,16.4,2.4,24.7,3.5V406C762,394,755.9,382,750,369.9z"/>
	<path fill="#655A74" d="M59.8,342.5c6.4-1.1,12.8-2.4,19.3-1.1c4.3,0.9,5.6,3.7,2.7,6.1c-4.9,4-4.4,8.4-2.6,13.5
		c0.8,2.2,1.4,4.5,1.8,6.7c2.2,10.3,7.2,14.6,17.9,15.2c1.5,0.1,3,0,4.5,0.1c1.8,0,3.8,0,4.7,2.1c0.8,1.8-0.4,3.1-1.4,4.5
		c-4.9,6.6-2,19.2,5.1,23.1c1.5,0.8,2.9,1.5,4.5,0c2.8-2.6,6.2-4.5,9.3-6.8c6.5-4.7,13.2-6,20.7-3.9c2.2,0.7,4.5,0.6,6.6-0.4
		c7.8-3.2,17.1-2.3,20.2,6.4c0.6,1.8,1.9,1.9,3.5,2c6.2,0.1,12.2,2.6,16.7,6.9c2.4,2.3,3.5,2.4,5-0.8c3.9-8.3,8.9-16,15-22.9
		c2.5-2.8,2.1-4.2-0.5-6.7c-23.8-22.2-43.9-48-59.7-76.5c-3.2-5.7-5.3-6.2-10.8-2.6c-1.2,0.8-1.7,2-2.4,3.1c-1.6,2.5-3.2,5-4.9,7.5
		c-0.5,0.7-1,2.1-2.2,1.2c-1.2-1,0.1-1.8,0.7-2.5c3.8-5.1,6.8-10.8,8.9-16.7c1.3-3.6,1.3-7.5-0.2-11c-8.2-22.2-14.9-44.9-20.1-67.9
		c-2.9-12.5-3-12.6-15.6-8.8c-4,1.3-8.1,1.9-12.3,1.7c-3.8-0.3-6.8-1.8-8.1-5.6c-0.9-2.8-1.3-5.7,0.9-8c2.8-3.1,6.3-2.5,9.7-1.1
		c0.9,0.3,1.9,1.3,2.7,0.4c0.9-1.1-0.3-2.2-0.8-3.1c-4-7-10.4-9-19-5.6c-3.6,1.4-6.9,2-9.5-1.3c-4.1-5.2-9.4-7.6-16.1-7.1
		c14.8-2,29.8-6.3,42.7,5.7c0.4,0.4,1.2,0.4,1.8,0.5c0.2-0.8,0.2-1.6,0.1-2.4c-1.7-4.7-3.1-9.5-5.3-14c-10.3-21.2-6.3-42,1.5-63.1
		c-1.1,9.3,3.1,15,11.7,17.9c3.5,1.2,4.7,4.6,3.9,8.3c-0.5,2.3-1.2,4.5-1.7,6.8c-0.8,4-0.1,7.8,3.3,10.4c5.3,4.1,6.2,9.2,3.4,15
		c-3.3,7-0.3,12.7,3.6,18.3c0.2-0.7,0.2-1.5,0.1-2.3c-2.4-21.1-1.7-42.4,2.1-63.2C129,77,145.3,37,169,0H0v368
		c1.4-0.9,2.8-1.8,4.2-2.7C21.5,354.8,39.6,346,59.8,342.5z"/>
	<path fill="#F7A046" d="M42.9,941.4c0.9-0.1,3.7,0.1,2.3-1.7c-3.7-5.1-4.2-11.8-9.2-16.4c-8.8-8-16.1-17.3-22.8-27.1
		c-0.8-1.1-3-2.4-0.8-4.1c1.8-1.4,2.6,0.6,3.6,1.5c4.7,4.3,9.8,8.1,15.2,11.3c2.1,1.2,2.9,1,2.8-1.6c-0.1-6.8,0-13.7-0.7-20.5
		c-0.3-2.8-1.4-3.8-4-3.6c-1.2,0.1-2.3,0.1-3.5-0.1c-2.8-0.6-5.5,0.9-8.2,0.5c1.4-3.1,4-5.2,6.3-7.6c5.9-6.1,11.2-12.2,11.1-21.4
		c0-4.6,0.9-9.3,1.2-13.9c1.1-16.7,2.2-33.3,10.9-48.2c0.1-0.2-0.2-0.5-0.3-1c-10.1,7.2-17.7,17.5-21.6,29.3
		c-2.1,6.2-4,12.4-7.8,17.8c-6.8,9.6-9.4,20.5-9.2,32.1c0.3,15.8,0.6,31.7,8.3,46.2c0.8,1.6,1.9,3.5,0.5,5.2c-1.5,1.9-3.6,1-5.6,0.5
		c-3.7-0.8-7.5-1.8-11.3-1.4v7c0.7,0.7,1.4,1.4,1.9,2.2C12.3,940,26.8,943.1,42.9,941.4z"/>
	<path fill="#271E3C" d="M572.8,968.8c2.2-13.8,4.6-27.6,6.9-41.4c1-5.9,1-5.9-4.9-4.2c-8,2.4-16.2,3.9-24.5,4.4
		c-18,1.1-35.7-0.1-51.3-10.8c-5.5-3.8-5.3-3.7-8.1,2.3c-5.7,12.3-13.4,22-29,20.8c-3.4-0.3-1.2,1.9-0.7,2.6
		c6.6,9.4,15.4,15,27.1,15.2c4,0,6.8,1.3,7.7,5.4c1.5,6.2,3.1,12.2,4.4,18.4c0.8,3.9,0.6,8-0.7,11.8c-1.3,4.1-4,6.8-8.2,7
		c-12.5,0.5-25,1.8-37.3-1.7c-6.4-1.7-11.7-6.1-14.5-12c-2.1-4.1-2.8-8.5-3.9-12.8c-1.6-5.9-4.7-10.6-10.5-13.2
		c-2.2-1-4.3-1.1-5.7,1.2c-4.5,7.3-9.1,14.6-7.7,23.7c0.5,3.2-1,4-3.5,4.8c-2.7,0.9-5.7,0.7-8.2-0.5c-2-0.9-3-2-2.5-4.6
		c1.8-10.5,1.5-21.3,2.7-31.8c0.3-2.6-0.5-3.2-3-2.9c-7.3,0.6-14.7,0.7-22,0.3c-16.7-0.9-33.8-2.1-47.6-12.5
		c-8.5-6.5-15-6.2-24.4-2.6c-28.5,11.2-58.3,13.1-88.5,9.9c-18.2-2-36.4-4.6-52.2-15.2c-0.2-0.1-0.5,0.1-1.1,0.2
		c2.4,7.7,4.7,15.3,7,22.9c0.5,1.7,0.9,3.1-0.5,5c-4.6,6.3-12.1,6.5-16.5,0.1c-2.1-3-3.4-6.5-4.1-10.1c-0.9-4.9-1.8-9.8-4.1-14.3
		c-1.6-3.2-2.9-5-6.2-1.4c-1.8,1.8-3.8,3.2-6.2,4.2c-19.3,8.9-39.3,14.7-60.8,13.7c-7.5-0.3-15-1.7-21-6.8c-1.8-1.6-3.7-1-5.7-0.7
		c-7.9,1.4-15.6,0.5-23.2-1.5C12.2,939.7,6,934,0,928v96h564c0.3-0.9,0.6-1.9,0.8-2.9C567.5,1003.7,570.1,986.3,572.8,968.8z"/>
	<path fill="#251E35" d="M578.3,632.3c3.7,3.1,13,1.5,15.4-2.7c4.8-8.7,11.3-11,20.3-7.3c3.8,1.5,7,1.6,10-1.5
		c3.3-3.5,7.6-4.7,12.2-4.7c8.2-0.1,16.3,0.3,24.5,1.1c7.6,0.8,14.1,3.8,19,9.8c1.5,1.8,3.4,3.2,5.5,4.1
		c10.3,4.5,18.8,12.4,24.1,22.3c1.5,2.8,3,3.7,6.1,3.5c7.6-0.5,15.3-0.7,23-0.8c9.6-0.1,19.2,0,28.7,0c0.1-0.1,0.3-0.2,0.5-0.3
		c0.1,0,0.2,0,0.4,0V476c-5.6-2.1-11.2-4.3-16.8-6.4c-3.8-1.5-8.1-1.9-12.2-1c-19.3,4.3-38.4,9.7-57,16.4c-4.8,1.7-9.2,4.2-12.3,8.6
		c-3,4.3-6.6,8-12.1,8.9c-2.2,0.4-3.4,2-4.2,3.9c-1.1,3.1-3.3,4.5-6.5,4.3c-3-0.2-5,1.3-6.8,3.4c-7.6,8.8-18.2,10.5-28.1,4.5
		c-1.1-0.7-1.9-1.6-3.5-0.8c-4.7,2.4-8.8,5.5-10.8,10.6c-2.8,7.1,0.7,13.1,8.3,13.3c6.2,0.2,12.2,1.4,18.4,1.2
		c6.7-0.1,10.8,6,8.9,12.3c-3.7,12.3-2.8,15.2,7.1,23.2c6.2,5,6.1,9.8-0.7,14.2c-1.7,1.1-3.5,1.8-5.5,2.3c-6.6,1.7-13.3,3.1-20.2,3
		c-3.3,0-5.7,1-6,5c-0.5,9.5-7,13.5-15.9,9.9c-4.1-1.7-8-2.2-11.7,1c-1.9,1.6-4.2,16.1-2.9,17.9C577.7,632,578,632.1,578.3,632.3z"
		/>
	<path fill="#656F6E" d="M622.2,865.2c3.6-20.3,6.8-40.7,11-60.9c5.9-28.2,13.5-55.9,21.9-83.4c4.9-16.1,9.6-32.2,14.2-48.3
		c0.9-3.2,1.6-4.7,5.9-5.1c13.1-1,26.1-2.7,39.3-3.6c17.7-1.3,35.3-1.9,53-1.7l0.1-0.1c0.1-0.1,0.2-0.1,0.2-0.2c0,0,0.1,0,0.1-0.1
		v-2.2c-0.1,0-0.3,0-0.4-0.1c-0.1,0-0.3-0.1-0.4-0.2c-0.1-0.1-0.1-0.1-0.2-0.2c-9.7-1.3-19.5-0.9-29.2-0.8
		c-30.4,0.2-60.5,2.3-89.7,11.7c-2.9,1-4.7,2.2-5.7,5.3c-3.2,9.8-6.9,19.4-10.2,29.2c-10.6,31.2-21.4,62.3-27,94.9
		c-5.9,34.2-13.5,68-19.2,102.3c-5.1,31-10.8,62-15.5,93.1c-1.5,9.8-2.3,19.8-4.7,29.5h30c2.6-17.6,5.2-35.2,7.8-52.8
		C608.9,935.8,615.9,900.6,622.2,865.2z"/>
	<path fill="#323745" d="M767.9,664.7c-0.1,0-0.3-0.1-0.4-0.2c-0.1-0.1-0.1-0.2-0.2-0.3c-29.5-0.1-58.9,1.6-88.2,5
		c-5.2,0.6-7.5,2.3-8.9,7.5c-8.9,33.1-20,65.5-28.2,98.8c-8.3,34-13.7,68.5-20.1,102.8c-6.7,36-13.3,72-18.6,108.2L598,1024h170
		L767.9,664.7C768,664.7,767.9,664.7,767.9,664.7z"/>
	<path fill="#2F1D1C" d="M726.4,458.5c-15.9,6-31.3,12.9-46.8,19.8c-3.2,1.4-5.2,3.2-4.9,7.1c20.9-7.6,42.2-13.8,63.9-18.7
		c3.9-1,8-0.8,11.8,0.5c5.9,2.1,11.8,4.6,17.6,6.9v-15c-6.2-0.2-12.2-1.4-18.2-2.6C742,454.9,733.9,455.6,726.4,458.5z"/>
	<path fill="#2F1D1C" d="M68.8,182.5c-0.8,0-1.6,0.3-1.1,1.6c1.5,3.8,7.1,6.4,10.9,5c3.8-1.5,7.8-2.3,11.8-2.4l0,0
		C84,181.6,76.4,181.9,68.8,182.5z"/>
	<path fill="#2F1D1C" d="M666.4,428.7c-1.3,1-2.8,1.8-4.2,2.7c-0.9,0.7-3.2,1-1.6,2.7c2.8,3,3.8,10.4,7.3,9.2
		c5.8-2,12.8-5.4,13.5-13.3c0.6-6.9,3.5-12.7,6.7-18.6c2.9-5.2,5.2-10.8,6.7-16.6c1.3-4.9,3.7-9.2,8.3-11.4c8.4-4.1,15.7-10,24-14.2
		c2.7-1.3,5.1-3.3,6.9-5.7c0.5-0.7,0.9-1.4,1.2-2c-0.1-2.1-1.7-1.4-2.6-1.5c-7.2-0.4-14.3,0-21.4,1c-12.4,1.9-24.6,4.3-34.8,12.4
		c-2.2,1.8-3,2.9-0.9,5.5c4.5,5.9,6,12.9,5.5,20.3c-0.4,5.2-2.6,9.1-8,10.8c-5.4,1.7-6,2.9-3.7,8.4
		C670.9,422.9,669.7,426,666.4,428.7z"/>
	<path fill="#FEE43B" d="M662.9,481.2v-7l-1.3-0.2c-0.8,2.1-1.7,4.2-2.4,6.3c-0.8,2.1-0.5,4.6-2.6,6.2
		C662.9,487.7,662.9,487.6,662.9,481.2z"/>
	<path fill="#FEE43B" d="M604.8,477.8c-0.2,2,2.2,0.4,3.6,1l0,0c1.8-0.7,5.4,0.5,5.5-1.4c0.1-2-3.1-4.5-5.1-4.6
		S605,475.8,604.8,477.8z"/>
	<path fill="#DC7126" d="M618.7,477.4c1.5-0.8,0.2-3.9-0.2-5.9c-0.6-5.1-0.7-10.3-0.4-15.4c0.1-1.9,1.8-4.6,0.1-5.6
		c-1.8-1-4.4,0.5-6.5,1.5c-2.6,1.3-4.6,3.4-5.6,6.1c-2.3,5.5-3.4,11.4-3.2,17.3l0,0c5.4-6.2,5.4-6.2,10.9-1.5
		C615.4,475.2,617.2,478.1,618.7,477.4z"/>
	<path fill="#FEE43B" d="M653.8,487.2c-2.9-4.9-5.2-2.4-7.8,0.3c-1.6,1.5-3.5,2.5-5.6,3.1c-5.4,1.7-9.4,6.4-15.4,6.6
		c-0.3,0-0.9,0.6-1,1c-1.1,3.9-4.3,5.1-8,5.9c1.1,1.8,2.8,2.3,4.1,3.1c2.8,1.9,5.2,3,6.3-1.9c0.7-3.1,3.3-3.3,5.2-1
		c1.4,1.6,2.3,2.3,4.5,1c5.2-3.2,10.6-6.1,16-9c4-2.2,5.9-5.1,4.4-9.7C655.9,487.9,654.5,488.3,653.8,487.2z"/>
	<path fill="#DC7126" d="M645.2,454.8c0.7-2.5-0.2-4.1-2-5.7c-3.6-3.3-8.3-5.1-13.2-5.1c-2.8,0.8-7.3-0.3-8.4,4.5
		c-3.4,15.2-1.2,29.7,5.2,43.8c0.8,1.8,2,2.4,3.5,1.3c5.3-4.1,12.5-4.8,17.1-10c1.7-2,3.9-2.5,6.1-0.3c0.6,0.6,1.1,2.1,2.2,1.2
		c0.7-0.5,0.7-1.8,0.5-2.8c-1.2-5.2-2.5-10.3-3.5-15.6c-0.5-2.7-1.5-3.6-4.2-2.3c-3.3,1.6-4.1-0.6-4.1-3.3
		C644.4,458.7,644.7,456.7,645.2,454.8z"/>
	<path fill="#FEE43B" d="M648.9,461.4c2.2-1.3,4.2-2.5,7-2.6c-1.5-2.1-3.4-2.7-5-3.8c-2.6-1.9-3.8-1-4,2c0,0.8-0.2,1.6-0.4,2.4
		C645.9,461.7,646.7,462.7,648.9,461.4z"/>
	<path fill="#FFFAA0" d="M563.6,101.1c-5.1-5.9-7.6-13-8.8-20.9c-3.5,1.7-6.9,3.1-10.6,3.6c-1.6,0.2-2.3,0.8-2.2,2.5
		c0.1,4.5-0.4,9-1.4,13.3c-0.3,1.5,0.1,2.2,1.6,2.3c6.8,0.4,13.6,0.9,20.3,1.3C564.1,103.2,564.9,102.6,563.6,101.1z"/>
	<path fill="#F2D381" d="M147.9,240.3c0-13.6-9.7-24.5-21.8-26.1c-2.6-0.3-3.2,0.2-2.6,2.9c3.1,13.8,6.7,27.4,10.6,40.9
		c0.8,2.8,1.7,3.5,4.2,1.4C144.1,254.7,147.6,247.8,147.9,240.3z"/>
	<path fill="#9A449F" d="M179.8,204.4c0.8-1.4,1-2.2-1.1-2.6c-1.3-0.3-2.5-1-3.4-1.9c-1.3-1.2-1.9-1.5-2.7,0.5c-1,2.8-3,4.7-7.1,5.1
		c2.1,1.5,3.7,2,4.1,3c2.1,4.6,6,2.4,8.9,2.1c2.5-0.2-0.4-2.9,0.5-4.4C179.4,205.7,179.5,205,179.8,204.4z"/>
	<path fill="#2F1D1C" d="M97.5,201.8c-1.4-0.6-2.8-1.1-4.2-1.5c-3.6-0.6-5.8,1.5-5.5,5.1c0.2,3.4,1.9,5.7,5.3,6.3
		c3.3,0.6,6.7,0.5,9.9-0.6c8-2.6,16.2-3.1,24.6-2.9c5.3,0.3,10.5-0.7,15.3-2.8c-3.1-2.8-6.8-3.2-10.1-4.4
		c-8.7-3.3-13.6-10.2-18-17.9c-3.4-6-3.3-11.9-0.5-18.1c1.4-3,1.5-6.5-1.3-8.7c-6.9-5.4-7.4-11.9-4.9-19.6c1.7-5.2,0.8-6.5-4.4-8.8
		c-3.2-1.4-6.4-2.9-8.3-6.1c-1.1-1.9-1.8-1.6-2.3,0.4c-3.5,12.6-6,25.1-1.4,38.2c2.8,8,5.9,15.9,8.7,23.9c0.7,2,2,5.1,0.1,6
		c-3.9,1.7-1.2,3-0.3,4.5c0.5,0.8,1,1.7,1.5,2.6c0.6,1.4,1.1,2.9-0.2,4.2C100.2,202.6,98.8,202.2,97.5,201.8z"/>
	<path fill="#F2D381" d="M685.1,275.7c-0.9-0.8-1.8-1.4-2.8-2.1c-11.7-9.3-24.4-17.2-34.8-28.2c-1.3-1.4-3-2.7-5.7-1.9
		c10.4,15.7,24.5,26.9,40.4,36.2c0.9,0.5,2,0.8,2.5-0.4S686.6,277,685.1,275.7z"/>
	<path fill="#625770" d="M720.9,301.9c-1.2-2.9-3.4-5.3-6.2-6.7c-7.8-4.5-15.4-9.4-22.7-14.6c-4.1-2.9-4-2.9-6.2,1.9
		c-38.6,83-100.8,139.7-187.7,169c-13.9,4.6-28.2,7.9-42.8,9.7c-3.2,0.4-5,1.8-6.4,5c-2.1,4.7,0.2,8.8,0.1,13.2
		c-0.1,4.4,2,7.2,5.2,9.7c4.8,3.6,10.3,4.4,16.1,3.9c8.3-0.7,15.3-3.3,19-11.8c1.6-3.3,3.6-6.4,6-9.2c3.4-4.2,5.4-4,7.2,1
		c2.1,6.1,6.4,9,12.4,10.2c8.9,1.9,18.2,0,25.7-5.2c4.5-2.9,8.6-6.2,13.6-8.3c3.5-1.5,6.5-1.3,8.8,2c1.6,2.5,4.5,4,7.4,3.8
		c5.2,0,9.6-1.9,13.9-4.3c3.2-1.8,2.8-5.1,4-7.7c0.5-1.2,1.1-2.4,1.9-3.5c2.5-2.9,4.8-5.6,2.8-9.8c-0.5-1.1,0.1-2.3,0.8-3.3
		c3.1-4.2,6.3-8.3,12.1-8.7c1.2,0.1,2.3-0.6,2.8-1.6c3.2-5.9,3.5-6.1,9.9-4.7c3,0.7,5.1,0.3,6.6-2.7s4.3-4.1,7.2-5.1
		c8.5-2.8,16-0.8,22.9,4.5c1,0.8,1.6,2.1,3.3,2c5.7-0.5,10-7,8.1-12.2c-2.1-5.9-1.3-8.3,4.8-10.2c5.2-1.6,7.1-5.1,7.3-10
		c0.3-7.2-1.4-14-6.2-19.5c-2.1-2.5-1.6-3.8,0.7-5.6c5-4.2,10.7-7.4,16.8-9.5c16.6-5.4,33.5-6.7,50.8-5.2c1.3,0.1,3,1,3.8,0
		c1-1.3-0.5-2.8-1-4.1C736.2,337,728.4,319.5,720.9,301.9z"/>
	<path fill="#F2D381" d="M123.2,166.8c10.4,4.6,23.7,1.9,31.2-6.5c7.6-8.7,8.8-21.2,3-31.2c-5.8-9.9-18-14.8-29.3-12.3
		c-3.2,0.7-4.4,2.3-4.8,5.3c-1.7,10.7-2.7,21.5-3.2,32.3c0,2.9,0.2,5.2,0,7.5C119.8,164.4,120.9,165.8,123.2,166.8z"/>
	<path fill="#F2D381" d="M572.4,104c6.3,0.2,12.6,0.8,18.9,1.2l0,0c6.1,0.4,12.3,0.8,18.4,1.3c4.8,0.4,4.9,0.4,2.9-3.8
		c-6-12.4-12-24.9-17.9-37.3c-0.4-1.2-1.3-2.3-2.4-3c-7-3.9-14-7.7-20.9-11.7c-1.8-1-3-0.8-4.3,0.7c-12,13.6-14.6,35.4-0.9,49.8
		C567.9,103,570.1,104,572.4,104z"/>
	<path fill="#F7A046" d="M13.4,756.7c-4.2,1.7-4.6,2.3-6.5,5.3c20-4.2,38.5-2.7,53.7,12.9c1.4,1.4,1.9,0.3,2.5-0.8
		c6.4-10.8,15.4-18.1,28.1-21.3l0,0c-2.5-2.4-4.6-4.1-6.3-6.1c-2.8-3.2-6.4-4-10.4-3.5c-4.3,0.6-8.4,2.2-11.9,4.7
		c-2.5,1.7-3.5,3,0.2,4.4c0.7,0.3,2.2,0.6,1.5,2c-0.5,1-1.4,0.3-2.1-0.1C45.4,746.5,29.3,750.3,13.4,756.7z"/>
	<path fill="#FED7C9" d="M481.4,424.6c7.6,4.4,15.9,6.9,24.1,9.4c2.7,0.8,3.5-1,4.6-2.6c7-9.7,14.8-18.9,23.2-27.4
		c3.1-3.2,6.2-6.2,9.5-9.6c-2.5-0.7-3.5,1-4.8,1.8c-6,3.8-12.5,6.6-19.6,6.6c-6.4,0-12.2,1-17.4,5c-0.7,0.7-1.7,1-2.7,1
		c-4.4-1.2-6.6,1.9-9.2,4.4c-2.6,2.6-5.3,5.1-8.2,7.3C478.5,422.5,479.1,423.3,481.4,424.6z"/>
	<path fill="#FED7C9" d="M486.5,413c5.5-6,11.6-10.9,19.2-14.1c2.6-1.1,5-2.7,7.1-4.6c6.1-5.7,13-10.5,20.4-14.2
		c5-2.8,9.5-6.3,13.3-10.6c-2.2-0.8-4.9,0.8-6-1.8c-1.1-2.4,0.9-4.1,2-5.8c2.8-4.1,5.9-8.2,6.9-13.2c1.5-6,1.2-12.4-0.6-18.3
		c-0.9,2.4-1.2,4.9-0.8,7.4c0.7,8-0.1,15.4-6.6,21c-1.8,1.6-1.7,6.2-4.4,5c-1.3-0.6,1.9-4.6,3.3-6.9c0.1-0.1,0.2-0.3,0.3-0.4
		c4.7-4.3,5.9-9.8,5.4-15.9c-0.2-2.3,0.2-4.7-0.3-7s2.4-5.6-0.5-6.4c-1.2-0.3-1.9,4.5-2.1,7c-0.2,5.3-1.2,10.6-3.1,15.6
		c-0.9,2.4-2.6,4.3-4.9,5.4c-0.4,0.2-0.9,0.1-1.3-0.1c-0.8-0.6-0.2-1.1,0.3-1.5c6.8-5.5,6-13.2,6.5-20.7c-1.9,1.6-2.5,3.8-3,6
		c-0.6,2.4-1.1,5-2.9,6.8c-4.6,4.5-9.3,9-14.1,13.4c-1.5,1.3-3.3,2.8-5.4,1.3c-2-1.4-1-3.5-0.5-5.5c1.4-4.7,4.3-8.9,4.9-14.1
		c-3.7,4.7-6.6,10-8.6,15.6c-1.2,3.9-3.9,7.1-7.5,8.9c-3.7,1.9-5.2,5-5.8,9.2c-0.7,4.8-0.1,10.6-5.3,13.3
		c-8.2,4.3-15.6,10.2-24.6,13c-7.9,2.4-15.7,5.3-23.2,8.7c-14.2,6.5-27.3,15.1-39.1,25.4c-2.2,2-4.4,4.1-7.3,5
		c-1.2,0.4-3,1.6-3.6,0.2c-0.9-2,1.6-1.4,2.5-2c1-0.8,2.3-1.2,3.5-1.9c1.8-1.1,2.1-2.2,0.2-3.8c-8.8-7.2-16-16-23.4-24.6
		c-1.6-1.9-3.9-3-6.4-3c-12.1-0.9-24.3-0.7-36.5-0.9c-1.6,0-3.9-0.9-4.6,0.4s1.4,2.7,2.5,3.8c15.4,16.6,32.4,31.7,48.8,47.3
		c5.8,5.3,12.8,9.2,20.3,11.3c6.4,1.9,8.8,1.3,12.9-4.2c2.7-3.7,5.8-6.9,10.2-8.5c6.7-2.4,12.5-6.1,18.2-10.2
		c10.1-7.3,20.3-14.4,30.9-20.9C478.4,420.4,482.7,417,486.5,413z"/>
	<path fill="#DC7126" d="M557.5,367.8c7.2-19.5,7.8-39.7,7.3-60.1c-0.1-2.6-1.1-2.3-2.6-1.1c-2.8,2.1-5.2,4.9-8.7,5.7
		c-12.8,3.1-24.4,9.8-37.6,11.5c-4.1,0.5-8.2,1.5-12.2,2.3c-2.6,0.5-3.9,1.2-3.2,4.6c1.9,9,2.8,18.1,2.6,27.3c0,1.5-1.1,3.8,0.8,4.4
		c1.5,0.4,2.6-1.7,3.5-3.1c0.6-0.8,1-1.7,1.4-2.7c2.1-5.8,4.9-11.3,8.3-16.5c1.3-1.9,1.8-6.1,4.2-5.2c2.1,0.8,0.9,4.8,0.5,7.4
		c-0.4,1.8-1,3.5-1.8,5.2c-1.1,2.8-2.2,5.5-3.3,8.3c-0.4,0.9-1,2.1-0.1,2.8c0.9,0.7,1.9-0.3,2.6-0.9c4.8-4.5,9.7-9.1,14.4-13.8
		c1-1.2,1.5-2.6,1.7-4.1c0.9-6.8,5.9-11.5,8.8-17.2c0.4-0.8,1.5-2.1,2-0.5c1.8,5.4,6.5,9.3,6.5,15.9c0,9.3-2.4,17.3-8,24.6
		c-0.9,1.2-3,2.8-1.6,4.1c1.8,1.5,3.7-0.3,5-2c0.7-0.9,1.2-2,1.9-2.9c3.7-4.9,4.8-11,7.4-16.3c0.4-0.8,0.8-2.1,2.1-1.7
		c1,0.3,0.7,1.4,0.7,2.1c-0.5,9.2-2.5,17.6-10.2,24c-7.3,6-15.1,11.5-23.2,16.4c-9.8,6.1-18.1,14.6-28.9,19.3
		c-0.2,0.2-0.4,0.6-0.6,0.9l0,0c1.1,0.5,2.4,0.2,3.2-0.6c5.1-3.9,10.9-5.1,17.3-5.1c8.3,0,15.5-3.3,22-8.3
		C547.9,386.2,554.1,377.6,557.5,367.8z"/>
	<path fill="#F4999D" d="M529.5,582.8c-0.8,0.3-1.5,0.6-2.3,0.9c-8.7,3.3-17.3,6.8-26.1,10c-19.2,6.9-37.1,17.3-57,22.5
		c-1.5,0.3-2.8,1.2-3.6,2.5c-1.3,2.1-1.8,3.8,1.2,5.1c16,6.6,30.1,17.2,47.1,22.6l0,0c-0.2-1-0.5-1.7-0.7-2.5
		c-5.2-20-0.5-33,16-45.4c7.8-6,16.8-10.2,26.4-12.4c1.1-0.2,3.2,0.3,2.5-1.9C532.5,582.4,531.2,581.8,529.5,582.8z"/>
	<path fill="#F6B752" d="M65.1,774.8c-0.5,0.8-2,2-0.4,2.9c0.8,0.5,1.8-0.2,2.5-1.1c8.1-11.2,20.1-15.2,32.9-17.7
		c8.4-1.5,16.9-2.2,25.4-2.2c-8.3-4.7-16.8-7.4-26.4-3.9c-4.2,1.5-8.6,2.4-12.9,3.9C76.8,759.9,70.2,766.4,65.1,774.8z"/>
	<path fill="#F7A046" d="M179.5,891.7c0.9,0.3,1.5-0.6,2.1-1.2c6.8-6.7,11.6-14.7,13.4-24c5.7-29.7-1.3-56.5-19.1-80.5
		c-4.8-6.5-11.1-11.3-18.1-15.5c-16.6-9.7-34.1-13.8-53.2-10.5c-10.6,1.8-20.7,4.5-29.2,11.3c23-6.7,44.6-4.3,64.4,9.2
		c19,13,31.6,30.8,36.3,53.6c3.8,18.3,7.5,36.6,3.1,55.4C178.9,890.3,178.4,891.3,179.5,891.7z"/>
	<path fill="#FED7C9" d="M555.4,356.5l-4.6,7.8l0.8,0.7C554.1,362.9,555.5,359.8,555.4,356.5z"/>
	<path fill="#F7EB4B" d="M126.2,847.2c-0.8,5.9-1.6,11.8-2.6,17.7c-0.4,2.3-0.5,3.7,2.5,2.3c7.6-3.5,15.4-6.9,23.6-10.7
		c-7-4-13.4-7.5-19.6-11.4C127.3,843.5,126.6,844.4,126.2,847.2z"/>
	<path fill="#DC7126" d="M477.7,289.8c-1.8-0.2-3.6-0.3-5.4-0.3c-0.9,0-2.2,0-2.2,1.4c0,1.6,1.2,1.8,2.4,1.8c0.8,0.1,1.7,0,2.5-0.1
		c7.8-1.6,16.3,0.6,23.5-4.5c1.1-0.8,2.9-0.7,4.3-1.1l12.9-3.2c-8.5,0.5-17.1,0.7-24.9,4C486.7,289.7,482.2,290.3,477.7,289.8z"/>
	<path fill="#F6923F" d="M486,293.8c-4.1-0.4-7.7,0.8-11.3,0.8c-3.6,0-3.2,1.6-2.4,4c1,2.8,2.1,5.6,3,8.5s2.2,3.4,5.1,2
		c8.7-4.1,17.9-5.6,27.5-6.3c16.5-1.3,33-3.4,49-8.5c3.5-1.1,7.2-2,10.8-1c4.7,1.4,8.4-1,12.4-2.5c2.2-0.7,3.4-2.9,2.8-5.1v-0.1
		c-0.8-2.3-3-2.4-5-2.2c-2.7,0.3-5.3,0.7-8,0.2c-4.6-1-9.4-0.6-13.8,1.2c-6,2.2-12.4,2.6-18.6,1c-14.6-3.3-28.3,1.4-41.8,5.9
		C492.2,292.8,489.2,294.5,486,293.8z"/>
	<path fill="#DC7126" d="M573.6,375.8c5.3-3.8,9.6-8.9,12.4-14.8c9.8-19.7,12.6-40.5,10.4-62.1c-0.8-8.3-0.9-8.2-8.1-3.8
		c-5.6,3.5-10.9,7.7-18.2,6.9c-2.6-0.3-3.1,1.8-3.1,4.1c0.1,7.5,0.4,15-0.1,22.5c-1.4,22.8-4.5,45.1-22.4,63.1
		c3.7-0.3,7.3-1.5,10.4-3.5C561.1,384.1,567.4,380,573.6,375.8z"/>
	<path fill="#9A449F" d="M458.2,266.7c-0.6-1.3-1-2.9-2.6-3.4c-4.9-1.5-9.5-3.9-15-3.3c-4,0.3-8,0.1-11.9-0.6
		c-5.7-0.8-11.4-1.9-17-3.2c-1.9-0.2-2.3,1.8-2.6,3.3c-0.5,2.4,1.6,1.5,2.6,1.5c7.7,0.2,15.2,1.7,22.4,4.3c4.6,1.6,9.3,3.1,14,3.1
		c2.8,0,3.5,1.1,4.7,3.1c8,14,12,29.7,19.3,44c0.7,1.2,0.7,3.9,3.1,3s1.2-3,0.6-4.6c-3.2-7.5-5.6-15.3-8.2-23
		C465,282.6,461.9,274.6,458.2,266.7z"/>
	<path fill="#DC7126" d="M585.1,283.1c-0.4,0.2-0.6,0.7-0.5,1.2c1.5,6.8-3.2,8.5-8.2,10.2c-10.7,3.6-21.3,7.3-30.6,14.2
		c-6.1,4.4-13.4,7-20.9,7.5c-13.6,0.9-27,4.4-39.3,10.4c-5.9,2.9-12.4,4.1-18.9,3.5c-4.5-0.4-9,0.2-13.3,1.8
		c-6.4,2.5-13.6,2.5-20-0.1c-4.6-1.8-9.4-2.5-14.1-0.3s-9.9,2.9-16.2,2.3c-0.7,0-2.5-0.1-4.4,0c-1.2,0.1-3-0.8-3.3,0.9
		c-0.1,1,1.1,2.3,1.9,3.4s2.1,0.8,3.2,0.9c4.8,0.4,9.2-0.8,13.7-2.2c5.4-1.7,10.7-3.1,16.3-0.1c2.6,1.4,5.8,1.4,8.8,1.3
		c6-0.1,12-0.1,18-0.2c3.7,0,7.3-0.6,10.8-2c17.5-7.3,35.8-12.5,54.5-15.6c7.7-1.2,14.1-5.9,21.7-7.4c6.3-1.1,12.1-3.9,16.9-8.1
		c3.6-3.3,7.5-6,13-5.1c1.3,0.1,2.7-0.3,3.8-1c5-2.9,10-5.9,15-8.9c0.8-0.5,1.8-1,1.7-2.2C594.4,285.9,586.7,282.2,585.1,283.1z"/>
	<path fill="#DC7126" d="M574.5,281c-3.2-1-6.7-1.2-10-0.4C567.9,280.8,571.1,282.3,574.5,281z"/>
	<path fill="#DC7126" d="M539.9,284.1c6.4,1.7,12.4,0,19.3-2.8c-14-0.2-26.8-0.9-40.7,1.6C526.5,282.6,533.3,282.3,539.9,284.1z"/>
	<path fill="#F2D381" d="M149.4,504c0.5,0.4,1.2,0.7,1.8,0.8c3.3,0.3,7,3.4,9.8-1c3.5,1.8,5.6-0.6,7.5-2.8c2.3-2.6,4.1-5.7,5.3-9
		c-3.7,2.1-5,0.4-6.1-2.7c-1.6-4.3-5.9-6-7.3-3.2c-2.7,5.3-8.1,7.6-11.7,11.9C146.1,501.2,145.8,501.9,149.4,504z"/>
	<path fill="#F8B952" d="M215,589.6c1,1.5,2.8,2.5,2.2,5.1c-0.4,1.9,1.2,2,2.4,0.6c3.4-3.9,6.7-7.8,10.2-11.6
		c1.3-1.5,1.1-2.5-0.4-3.7c-6-5-12.8-9.1-20-12.1c-0.4-0.2-0.9-0.4-1.4-0.6c-1.8,0.3-1,1.7-1,2.7C207.4,577.5,211.1,583.6,215,589.6
		z"/>
	<path fill="#F8B952" d="M130.2,585.9c19.7,2.1,34.9,12,48.2,25.3c3.4,3.4,6.1,8.8,12.4,4.8c5.2,2.1,8.3-1.7,11.6-4.4
		c4-3.2,7.6-6.9,11.6-10.2c2.8-2.3,2.4-3.7-0.2-6C192.4,576.5,156.2,572.2,130.2,585.9z"/>
	<path fill="#F8B952" d="M117.7,590.2c-8.1,6.2-12.6,16.1-11.8,26.3c0.1,1.5,0,2.7,2.2,2c4.9-1.6,6.6,1.6,7.7,5.4
		c0.5,2.3,0.9,4.5,1.2,6.8l0,0c4-13.3,8.9-26.2,14-39c0.5-1.2,2.1-3.1-0.3-3.5C126.3,587.5,121.2,587.3,117.7,590.2z"/>
	<path fill="#2B233F" d="M209.9,566.1c6.7,2.6,12.9,6.2,18.5,10.7c4.5,3.5,6.3,3,8.4-2.2c0.8-1.9,0-3.6-0.6-5.3
		c-7.7-25.8-8-51.8-2.8-78c2.1-10.6,5.5-20.8,8.6-32.2c-0.7,0.7-1.3,1.4-1.9,2.2c-8.2,16.1-17.2,31.9-23.5,48.9
		c-5.9,16.2-10.4,32.6-10.7,50C205.9,563.3,206.9,564.9,209.9,566.1z"/>
	<path fill="#502324" d="M381.2,320.5c1.2,1.1,2.2,1.8,3.8,0.6c4.2-3.2,9.3-4.5,14.2-5.7c4.6-1.1,5.5-3.7,4.3-7.5
		c-0.9-3.4-0.8-7,0.5-10.2c1.9-5.5-0.8-8.6-6.9-8.1c5.6,5.7,4.8,8.3-3.2,10.4c-0.5,0.1-1,0.2-1.5,0.3c-9.2,1.9-18.5,3.1-29.1,4.2
		C370,310.2,375.6,315.3,381.2,320.5z"/>
	<path fill="#F2D381" d="M412.3,209.3c3,6.8,6.2,13.4,9.1,20.3c3.1,7.3,3.7,14.9,0.8,22.4c-1.4,3.5-0.5,4.4,2.9,4.9
		c8.8,1.3,8.9,1.4,6.8-7.1C428.2,235,423.6,220.6,412.3,209.3z"/>
	<path fill="#AA97A6" d="M378.4,321.9c-19.4-20.5-42.8-37.6-56.1-63.4C332.7,287,354.2,305.6,378.4,321.9z"/>
	<path fill="#6D4546" d="M72.8,686.4c0.2,0.7-0.1,1.9,1,1.9c0.5,0,1.1-0.7,1.4-1.2c3.5-5,7-10.1,10.4-15.2c0.6-0.6,0.9-1.4,0.8-2.2
		c-1.2-4.3-2.4-8.6-3.6-12.9c-0.6-2.3-1.4-3.4-4.1-2c-3.5,1.9-7.6,2.6-11.6,2c-2.2-0.4-2.1,0.6-1.7,2.2
		C68,668.1,70.3,677.3,72.8,686.4z"/>
	<path fill="#E4DDDC" d="M77.3,701.2c0.7,0.1,1.7-1.4,2.4-2.2c1.8-2.1,3.3-4.7,5.4-6.4c5.8-4.6,4.9-10.1,3-16c-0.2-0.7,0.1-1.8-1-2
		s-1.3,0.8-1.8,1.5c-3.3,4.8-6.6,9.6-9.8,14.4c-0.5,0.8-0.9,1.6-1.2,2.4c0.5,1.9,0.9,3.5,1.4,5.1C76.1,699.1,75.7,701,77.3,701.2z"
		/>
	<path fill="#6D4546" d="M82.8,725.8c9.5-11,15.6-22.1,7.4-36.3c-3.7,4.5-7.5,9.2-11.3,13.8c-0.9,0.8-1.2,2-1,3.2
		C79.5,712.8,81.2,719.2,82.8,725.8z"/>
	<path fill="#E4DDDC" d="M86.1,739.2c0.7,2.2,1.5,0.8,2.2-0.1c2.1-3,3.7-6.4,6.3-9c5.3-5.2,4.2-10.9,2.1-16.9
		c-0.2-0.7-0.2-1.8-1.2-1.7c-0.5,0-1,0.8-1.3,1.3c-3.1,4.9-6.1,9.8-9.2,14.8c-0.7,1-1,2.2-0.8,3.4C84.6,733.4,85.2,736.3,86.1,739.2
		z"/>
	<path fill="#6D4546" d="M60,628.3c-0.7,0.7-1,1.7-0.9,2.7c0.4,10.2,3.6,12.6,13.3,9.8c1.3-0.4,2.5-0.9,3.7-1.4
		c1.2-0.3,1.9-1.5,1.6-2.6c0,0,0,0,0-0.1c-1.4-7.5-2.5-15-4.9-23C68.2,618.9,64.1,623.7,60,628.3z"/>
	<path fill="#F8B952" d="M101.8,592.5c-7.1,4.4-13.8,9.2-20.2,14.5c-4.9,4-7.6,8.3-4.7,14.7c0.8,1.8,0.8,3.9,1.2,5.8s0.3,4,3.2,4.9
		c2.9,0.9,3.9-0.9,5.3-2.4c3.7-4.1,7.4-8.3,13.2-9.1c3.6-0.5,4.3-2.3,4.2-5.7c-0.5-8.6,2.7-17,8.8-23.1c0.8-0.8,1.9-1.4,1.8-3
		C110,588.9,105.6,590,101.8,592.5z"/>
	<path fill="#E4DDDC" d="M71.7,654.8c8.3-1.2,10.7-3.7,10.3-10.4c-0.1-1,0-2,0-3c0-1.7,0-3.3,0-5c0-1.1-0.5-2.1-1.7-1.9
		s-0.7,1.3-0.5,2c0.9,3.1-1.2,4.1-3.5,5c-4,1.8-8.3,2.6-12.7,2.5c-2.4-0.1-2.7,0.7-2.2,2.9C63,653.5,65.7,655.7,71.7,654.8z"/>
	<path fill="#6D4546" d="M98,750.9c2.2-0.8,4.4-1.4,6.7-1.7c2-0.3,2.4-0.9,1.8-2.9c-2.2-6.4-4.2-12.9-6.7-20.5
		c-4.2,6.2-7.9,11.6-11.7,17.1c-1.1,1.4-0.9,3.4,0.4,4.5C91.1,750,93.7,752.7,98,750.9z"/>
	<path fill="#FED7C9" d="M372.3,285.5c-8.1,1.2-16.1,4.2-24.5,1.5l0,0l-1.2,1.3c3,2.8,6.6,5.2,9,8.4c3.9,5,8.6,5.9,14.4,5
		c3.6-0.6,6.4-0.8,5-5.7c-0.5-2.3-0.3-4.7,0.6-6.9C377.2,285.3,376,284.9,372.3,285.5z"/>
	<path fill="#F2D381" d="M194.3,364.6c2.3,2.7,3,1.8,4.2-0.8c3.4-7.7,5.4-15.7,5.5-20.9c0.1-15.1-3.5-24.7-10.2-31.1
		c-1.9-1.8-2.8-1.9-3.5,0.8c-0.6,2.2-1.4,4.4-2.3,6.6c-0.6,1.3-1.2,3-3.1,2.7c-1.9-0.3-2-2-2.1-3.5c-0.3-2.5-0.4-5-0.2-7.5
		c0.9-7-1.2-11.5-8.5-13.7c-4.7-1.4-6.9-1.5-9.5,2.8c-1.2,2-1.8,4.3-2.8,6.4c-0.7,1.5-1.2,3.6-3.2,3.4c-3.7-0.3-2.3,1.2-1.4,2.8
		C167.9,331.1,180.3,348.5,194.3,364.6z"/>
	<path fill="#FFFAA0" d="M215.5,386.2c1.6,1.7,2.5,1.3,3.8-0.3c11.4-13.8,20.9-28.8,27.4-45.5c0.9-2,0.5-4.3-0.9-5.9
		c-9-12.3-16.3-25.5-19.8-40.5c-0.5-2-1.2-3-3-2.3c-6.2,1.3-12.4,2.2-18.6,2.7c-1.2,0.1-2.5,0.2-3,1.4c-1.3,2.9-4,4.3-6.3,6.2
		c-3.4,2.8-3.4,4.8-0.2,8c5.6,5.5,9.3,12.7,10.4,20.5c2,12.3-0.3,23.8-5.4,34.9c-0.8,1.8-1.9,3.4,0.1,5.3
		C205.3,375.8,210.4,381,215.5,386.2z"/>
	<path fill="#F2D381" d="M117.6,458.5c-0.4,1.8-2.2,3.9-0.1,5.5s5,1.5,6.9-0.4c2-1.8,3.9-1.6,6.4-0.7c8.6,3.1,17.3,5.6,26.7,5.1
		c2.6-0.1,3.4-1,4.1-3.2c1.9-6.3,2.5-12.7,2.4-22.4c-0.1-3.5,0-10.2-3.5-16.2c-4.1-6.9-10.6-8.3-16.8-3.5c-2.3,1.9-4.5,3.9-6.5,6.1
		c-5,5-9.5,10-3.1,17.1c0.5,0.5,1.1,1.4,0.3,2.2s-1.4-0.2-2.2-0.4c-10.1-3.1-7.8-4.9-12.7,5.5C118.5,455,118,456.7,117.6,458.5z"/>
	<path fill="#AA97A6" d="M201.7,427c1.6,3.1,4.4,2.7,7,2.4c6-0.8,10-4,11.8-10c0.7-2.2,1.6-5.2,4.7-3.1c3.1,2.1,3.7,0.5,4.6-2
		c5.3-14.9,10.7-29.8,16-44.6c9.6-26.3,15.8-53.3,16.3-82.9l0,0c-0.6-20.4-4.3-42.2-4.1-64.3c0-0.8,0.5-2-1.2-2.1
		c-3.4-0.1-6.2,2.6-6.3,6c0,0.2,0,0.5,0,0.7c2.1,22.2,5.3,44.4,5.4,66.7c0,24.1-4.3,47.3-17.2,68.3c-5.9,9.7-12.5,18.9-19.8,27.5
		c-7.2,8.5-13.6,17.7-18.9,27.5C197.5,421.6,200.1,423.9,201.7,427z"/>
	<path fill="#6B2E28" d="M160.6,272.1c-4.6,8.3,1.6,18.7,12.1,19.7c7.1,0.7,14.3,0.8,22.1,1.2c18.6-0.7,37.2-4.8,55.5-10.8
		c5.3-1.8,2.9-5.6,2.3-8.2c-0.8-3.5-3.5-0.7-5-0.2c-21.9,8.3-44.3,11.4-67.6,7.3c-6.6-1.2-12.2-3.6-15.6-9.5
		C162.5,268.4,161.7,270.1,160.6,272.1z"/>
	<path fill="#F2D381" d="M250.9,284.2c-6.8,2.3-13.6,4.3-20.6,5.8c-2.1,0.5-2.7,1.5-2.3,3.5c3.6,15.1,11,28.3,20.9,41.5
		c3.7-16.2,5.4-32.7,5-49.3C253.8,283.2,252.3,283.7,250.9,284.2z"/>
	<path fill="#2F1D1C" d="M197,295c-3.8-0.1-7.6-0.2-11.4-0.4c-1.4-0.1-2.1,0.2-2,1.9c0.5,7.3,0.9,14.5,1.3,22.3
		c0.7-0.6,1.1-0.7,1.2-1c0.5-0.9,0.8-1.8,1.1-2.7c2.1-6.8,3.2-14,10.5-17.8c0.5-0.4,0.8-1,0.8-1.6C198.6,294.7,197.6,295,197,295z"
		/>
	<path fill="#FFFAA0" d="M174.1,294.1l-0.1,1c1.6,0.8,3.2,1.6,4.8,2.3c0.9,0.4,2.3,1.5,2.5-0.5c0.2-1.2,0-2.7-1.9-2.7L174.1,294.1z"
		/>
	<path fill="#FFFAA0" d="M120.9,480.3c3.7-3.7,5.1-3.3,6.6,1.7c0.5,1.8,0.2,4.2,2.8,4.8c6.3,1.6,12.4,3.6,18.9,4.2
		c5.3,0.4,9.9-3.7,10.3-9c0.1-1.6-0.2-3.2-0.9-4.7c-0.8-1.7-1.2-2.7-0.4-4.3c1.4-2.5,0.4-3.4-2.1-3.2c-9.4,0.8-18-2.3-26.6-5.3
		c-1.4-0.5-2.5-0.6-3.6,0.4c-4.1,3.4-8.1,2.1-11.9-0.5c-2.3-1.6-4.4-3.5-6.6-5.3l0,0c-0.1,0.4-0.3,0.8-0.2,1.1
		c2.8,6.4,5.5,12.8,8.4,19.2C117.2,483.3,117.8,483.4,120.9,480.3z"/>
	<path fill="#F2D381" d="M125.7,409.3c11.8-1,15.6,0.1,24.3,7.4c1.7,1.4,3.7,1.3,5.5,2.2c2.1,1.1,2.6-0.1,2.5-2
		c-0.2-2-0.9-3.9-2-5.6C149.7,401.4,134.5,400.1,125.7,409.3z"/>
	<path fill="#F2D381" d="M127,503.8c9.6,1.1,16.8-3.4,23.9-10.5c-6.5-0.4-11.9-2.1-17.3-3.3c-4.4-1-7.8-2.5-8.2-7.7
		c-0.1-1.9-0.9-2.6-2.7-0.8c-4.9,4.6-5.3,4.5-9.4-0.6C110.3,494.5,115.2,502.5,127,503.8z"/>
	<path fill="#FFFAA0" d="M113.3,438.4c-0.7,0.4-1.4,0.9-2,1.4c6.5,0.5,12.4,3.9,19.1,4.8C125.2,432,124.4,431.7,113.3,438.4z"/>
	<path fill="#F2D381" d="M163.2,423.1c-0.8,0.1-2.4-0.3-1.3,1.4c4,6.7,4.1,14.2,4.2,21.7c0,0.7-0.4,1.8,0.7,2c0.4,0.1,1.1-0.6,1.5-1
		c3.2-3.2,6.3-6.4,9.5-9.5c1.2-1,1.5-2.7,0.7-4C176.5,428.7,168.4,423.1,163.2,423.1z"/>
	<path fill="#FFFAA0" d="M175.2,443.3c-2.2,2.2-4.8,4.1-6.3,6.9c3.1,1.7,6.3,0,9,0.4h0.1c2.2-0.1,3.8-0.1,5.5-0.3
		c1.9-0.2,4.9,0.7,5.6-0.7c0.9-1.9-1.8-3.5-3-5.2C181.1,437.9,180.5,437.9,175.2,443.3z"/>
	<path fill="#F2D381" d="M162.1,480.4c2.4,1,4.1-2.1,5.8-3.9c0.2-0.2,0.5-0.5,0.6-0.8c1.5-3.5,4.3-4.1,7.8-4
		c7.8,0.4,7.8,0.3,8.5-7.8c0-0.5,0-1,0.1-1.5c0.4-10.2,0.4-10.2-9.7-9.6c-2.3,0-4.7,0-7,0c-1.6,0-2.6,0.5-2.7,2.2
		c-0.3,6.5-3.8,12.4-3.8,19C161.8,476.3,159.6,479.4,162.1,480.4z"/>
	<path fill="#FFFAA0" d="M169.7,488.3c0.7,2.5,1.9,2.2,3.6,1c4-3,8.4-5.4,13-7.2c3.9-1.7,6.9-4.8,8.3-8.8c-5.2,1.7-10.8,2-16.2,0.8
		c-3.6-0.7-6.8-0.3-8.7,3.6c-1,2-2.8,3.7-4.3,5.5C166.5,484.2,169,485.5,169.7,488.3z"/>
	<path fill="#47131D" d="M166.5,264.9c-1.8,1.7-1.9,3.2-0.6,5.2c2.8,4.8,7.7,8.1,13.3,8.8c8.4,1.3,16.8,2,25.3,2.1
		c14.5,0,29.9-4.6,45.1-10.1c1.7-0.6,2.8-1.4,2.6-3.6c-1.3-13.4-1.6-26.9-3.6-40.2c-0.4-2.5-1-3.2-3.7-2.2
		c-21.7,8-43.1,16.4-63.3,27.9C175.7,256,171.1,260.4,166.5,264.9z"/>
	<path fill="#FED7C9" d="M398.9,218.8c-4.7-6.1-5.1-12.8-2.1-19.8c0.8-1.8,2.1-3.6,3.9-3.6c5.6,0.3,4.2-2.6,3-5.7
		c-0.7-2-1.3-4.1-2-6.2c-1.8-6-4.6-7-10-3.4c-0.8,0.6-1.5,1.3-2.3,2c-0.5,0.4-1,0.9-1.7,0.2s-0.2-1.2,0.2-1.7c1.8-2.3,4.4-3.7,7.3-4
		c4.1-0.3,4-2.2,2.8-5.2c-2.9-8-10-11.1-16.6-15c-2.5-1.5-3.2-0.5-2.6,2.1c1.5,7.5,1.4,15.3-0.1,22.8c-1.1,5.7-1.9,11.5-5.3,16.6
		c-2.5-9.8-2.7-19.6-8.1-28.2c-0.7,3.4-0.9,6.9-0.8,10.3c0.1,16.1-5,29.7-18.8,39.2c-2.6,1.9-4.3,4.8-4.9,7.9
		c-0.2,1,0.5,2.9-1.3,2.6c-1.3-0.2-0.9-2-0.6-3c1.3-5.5,5-9.2,9.7-12.1c0.9-0.5,3.1-0.9,2.3-2c-2.4-2.9-0.6-6-1.2-9
		c-0.3-1.3,0.6-3-0.6-3.7c-1.4-0.8-2.8,0.7-4,1.4c-3.6,2.1-6.5,5.2-8.2,9c-4.3,9.3-11.5,16.7-18,24.5c-1.3,1.5-2.4,2.7-1.5,5.2
		c4.6,12.9,9.9,25.6,18.9,36.1c6.1,7.2,13.7,11.4,24.1,9.4c13.4-2.7,26.9-5.1,40.7-5.8c4.4-0.2,7-2.4,8.4-6.5c0.7-2,1.6-4,2.7-5.9
		c2.4-4.1,2.4-4.2-2.1-4.2c-3.4,0-4.8-1-3.3-4.4c1.8-3.9,4.8-7.4,1.9-12.2l0,0v-0.1v0.1c2.6,1,3.3,2.8,3.1,4.5
		c-0.4,3.5,2,3.5,4.2,4.1c3,0.8,3.2-1.3,4-3.1c4.4-11.2,0.3-21.2-4.7-31c-1.1-2.2-1.9-0.6-3,0C406.9,224.3,402.7,223.7,398.9,218.8z
		 M368.5,234.5c-0.2,1.6-0.4,3.3-0.5,4.9c0,1.3-0.5,2.6-1.3,3.7c-4.7,5.4-17.2,4.3-20.5-2.1c-1.3-2.6-2-4-5-1.7
		c-2.6,2.1-4.5-0.3-6.2-2.1c-0.9-1-0.1-1.6,0.8-1.7c5.3-0.2,7.3-4.5,9.5-8.1c2.9-4.9,6.1-7.5,10.3-7.5
		C361.9,220,369.1,228.1,368.5,234.5z M403,239.1L403,239.1c-1.5,1.2-3,2.3-4.9,1.7c-2-0.7-2.2-2.2-2-4.6c0.1-0.8,0.3-1.5,0.6-2.3
		c0.6-1.6,0.7-4.6,2.6-4s-0.4,2.7-0.5,4.2c-0.2,2.5-2.7,6.6,3.2,3.5c0.4-0.3,0.9-0.2,1.2,0.2l0.1,0.1
		C403.5,238.2,403.4,238.8,403,239.1z M408.7,230.2c-0.1,0.7-0.4,1.4-0.7,2c-0.6,1.2-0.5,3.7-2.4,2.9c-1.6-0.6,0-2.4,0.5-3.4
		c1.4-3.2,0.5-4.4-2.9-4.9c-4.6-0.8-8.8-3.3-11.8-6.9c-0.5-0.6-1.4-1.2-0.6-2.1c0.8-0.9,1.5,0,2,0.6c3.3,3.8,7.9,6.2,12.9,6.8
		C408,225.6,409.4,226.8,408.7,230.2z"/>
	<path fill="#6B2E28" d="M348.3,227.3L348.3,227.3c2.4-2.3,5.3-4,8.5-4.9C352.6,221.6,350,223.7,348.3,227.3z"/>
	<path fill="#296999" d="M359.5,225.6c-3-1.3-5.6-0.4-7.8,1.7c-3.7,3.6-3.3,7.9-1.4,12c1.1,2.4,1.3,6.1,5.9,5.1c9.6-2,9.7-2,9.7-8.2
		C366,230.5,364,227.5,359.5,225.6z"/>
	<path fill="#296999" d="M400.9,205.4c-2.4,4.3,0.3,13.4,4.7,15.3c1.1,0.5,2.4,0.1,2.9-1c0,0,0-0.1,0.1-0.1c0.9-1.4,1.4-3,1.4-4.7
		c0.2-4.2-2.6-7-4.8-10.1C403.4,202.4,402.2,203,400.9,205.4z"/>
	<path fill="#6B2E28" d="M402.1,197.3c-5.1,0.9-4.2,5.8-4.8,9.6c1.6-1.8,2.1-4.6,4.6-5.6c2.7-1.1,4,1.7,6.2,3.4
		C407.5,200.2,406.2,196.6,402.1,197.3z"/>
	<path fill="#6B2E28" d="M422.8,154.4c1.5,0.7,2.3-0.8,3.4-1.5c18.2-12.6,34.8-27.4,49.3-44.1c8.5-9.7,15.7-19.6,16-33.3
		c0.1-7-0.2-8.4-7.6-8.5c-5.6,0-5.6,0-3.6,4.9c2.2,5.3,2.3,11.2,0.3,16.6c-2.8,8-7.2,15.4-13,21.7c-6.3,7.1-13.2,13.7-19,21.2
		c-6.5,8.3-14.2,14.9-24.3,18.5c-1.2,0.4-2.8,0.5-2.4,2.5C422.1,153,422.3,154.2,422.8,154.4z"/>
	<path fill="#47131D" d="M420.6,83.1c-15.1,12.8-30,25.9-44.2,39.7c-0.8,0.8-2.3,1.4-1.8,2.6s2,0.5,3.1,0.5
		c11,0.1,21.2,2.5,29.7,9.7c2.4,2,3.7,0.9,5.5-0.6c9.2-7.9,18.5-15.7,25.1-26.2c2.6-4.2,6.2-7,11.7-5.1c2.6,0.9,4.5-0.5,6-2.4
		c2.1-2.8,3.7-6,4.6-9.4c2-6.4,1.7-13.2,3.1-20.7c1.4-3.4-1-3.8-4.5-3.2c-4.5,0.8-8.9,2.5-13.3,3.4
		C436.3,73.5,427.7,77.1,420.6,83.1z"/>
	<path fill="#6B2E28" d="M438.2,139.4c11.5-12.2,23-24.5,33.4-37.7c1.7-2.3,3.1-4.7,4.3-7.3c2.3-4.1,3.7-8.6,4.1-13.2
		c0.1-4.2-1.1-8.3-3.3-11.9c-2.2-3.6-5.7-1.8-8.6-1.9s-2.5,2.7-2.8,4.5c-0.5,3.8-0.8,7.6-1.2,11.4c-0.8,6.9-2.2,13.5-6.5,19.1
		c-2,2.7-4.6,4.6-8.1,3.4c-4.6-1.7-7.5,0.7-9.6,4.1c-5.8,9.4-13.7,16.7-21.9,23.8c-5.8,5-5.8,5-0.9,10.5c0.8,0.8,1.5,1.8,2.1,2.8
		c1,1.9,2.3,1.9,4.1,1.2C428.7,146,434.2,143.6,438.2,139.4z"/>
	<path fill="#AA97A6" d="M421.7,163.5c0.8-20.3-26.2-36.8-41.2-34.9c4.4,2.2,8.2,4.1,12.1,5.9c6.6,3.1,11.6,7.6,13.7,14.9
		c0.3,1.1,0.5,2.4,1.9,2.7C414.5,153.4,418.5,157.6,421.7,163.5z"/>
	<path fill="#AA97A6" d="M411.5,173.8c-1.1-8-5-15.1-7-22.8c-1.7-6.6-5.8-11.1-11.8-14c-4.9-2.4-9.9-4.7-14.8-7.2s-12.7,1-13.9,6.4
		c-0.2,0.6,0,1.4,0.6,1.7c5.6,3.4,9.5,8.2,12.7,13.8c0.5,0.8,1.9,1.2,3,1.6c13.4,5.6,22.3,15.3,26.7,29.1c0.6,2,2.9,4.6,0.6,6
		c-1.1,0.6-1.3-3.2-2.4-4.7c-0.3-0.4-0.6-0.8-0.9-1.2l-0.7,0.2c1.1,3.4,2.2,6.9,3.3,10.3c0.2,0.6,0.5,1.4,1,1.5
		c1.2,0.3,1.2-1,1.4-1.6C411.8,186.8,412.5,180.2,411.5,173.8z"/>
	<g id="live132m2">
		<path fill="#9A449F" d="M240.5,204.9c1.3,0,2.9,0.5,3.7-0.8s-0.9-2-1.5-2.9c-3.6-5.1-4.7-11.6-3.1-17.6c1.5-5.5,3-10.9,4.5-16.3
			c0.4-1.3,1.6-3.7,0.3-3.8c-1.8,0-3.8-1.3-5.9,0.7c-6.4,6.2-10.2,14.6-10.6,23.6C227.9,198.1,232.9,204.6,240.5,204.9z"/>
		<path fill="#9A449F" d="M221,185.9c-0.1,9.7,2.4,14.5,10.1,17.3c-5.4-6.4-5.6-12.9-4.7-19.6c1-6.8,4-12.6,8.2-18.7
			C225.4,168,221.2,174.9,221,185.9z"/>
		<path fill="#9A449F" d="M253.8,163.1c-3.3,1.8-8,2-8.6,7.5c-0.6,4.9-2.6,9.6-3.7,14.4c-1.4,5.8,0.1,11.9,4.1,16.2
			c3.7,4.2,7.8,4.7,14.5,2.1c6.9-2.7,8.8-5.1,8.8-11c0-6.4-6.1-23.2-9.9-27.9C257.8,162.9,255.7,162.4,253.8,163.1z"/>
		<path fill="#9A449F" d="M275.9,187.5c-0.6-4.1-1.3-8.2-2-12.2c-1-5.1-3.4-9.8-6.8-13.6c-1.5-1.9-4.2-2.4-6.3-1.2
			c-2.1,1.2,0.3,3.2,1.1,4.6c5.3,10.2,10.2,20.5,8.9,33C275.5,195.3,276.5,191.7,275.9,187.5z"/>
		<path fill="#9A449F" d="M278.1,191.2c0,1.8,0.7,2.1,2,1.1c4-3.1,7.4-6.6,7.9-11.9h0.1c-0.5-4.2-1.6-8.3-3.1-12.2
			c-2.2-5.9-6.7-9.4-12.3-11.5c-1.5-0.6-3.1-1.3-4.5,0.3c-1.8,2,0.3,3,1.2,4.1c3.8,4.7,6.2,10.3,6.9,16.3
			C276.7,182,278.2,186.5,278.1,191.2z"/>
	</g>
	<g id="live132m1">
		<path fill="#2F1D1C" d="M225.8,470.7c0.9,0.7,1.9,1.4,2.8,2.2c1.7,1.5,2.7,1.2,3.7-0.8c2.5-4.9,4.5-10.2,7.9-14.4
			c2.6-3,4.5-6.5,5.5-10.3c1.5-6,3.1-11.9,4.7-17.9c0.2-0.8,0.2-2.4,1.5-2.1s0.7,1.6,0.5,2.5c-1.5,6-3,11.9-4.6,17.9
			c-1.5,5.4-1.5,4.9,3.9,5.3c4.2,0.3,5.2-1.6,6.1-5.1c1.7-7.1,3.9-14.1,5.7-21.2c1.1-4.6,5.7-9.8,3.3-13.3
			c-2.4-3.5-8.6-4.4-13.2-6.5c-3.5-1.6-4.9-0.8-5.8,3.1c-2.1,9.1-13.3,13.9-21.5,9.3c-2.4-1.4-3.3-1.3-4.2,1.3
			c-2.4,7.6-8,10.7-15.5,10.9c-2,0.1-2.8,0-2.8,2.5c-0.1,12.5,1.1,25-1.4,38.4C211.4,464.3,217,464.1,225.8,470.7z"/>
		<path fill="#2F1D1C" d="M299.9,448.3c-2-7-5.8-11.9-9.9-16.6c-1.7-1.9-2.4-1.1-2.7,0.8c-0.5,2.9-0.9,5.9-1.2,8.8
			c-0.2,1.3-0.3,2.7,1.6,2.9C291.8,444.8,295.6,446.3,299.9,448.3z"/>
		<path fill="#2F1D1C" d="M273,416.4c-1.9-1.2-3.6-1-4.5,1.6c-3.8,10.8-6.9,21.8-9.5,33c-0.3,1.2-1,2.6,0.7,3.5
			c2.4,1.2,4,3.4,5.8,5.7l0,0c0.8-9.8,3.5-13.2,11-15.4c2.5-0.7,5.9,0.6,7.2-2c1.1-2.2,0.9-5.2,1.3-7.8c0.1-1.3,0.4-2.6,0.7-3.9
			c0.5-1.8,0-3.7-1.3-5C281,422.4,277.2,419.1,273,416.4z"/>
		<path fill="#2F1D1C" d="M69.3,434.9c9.1-0.5,15.3,4.4,20.3,12.4c5.3-12,10.4-23.3,21.3-30.4c1.4-0.9,1.2-1.7-0.2-2.5
			c-6.3-3.5-7.6-9.7-8.7-16c-0.2-1,0.6-2.6-0.8-3c-0.7-0.2-1.7,0.8-2.4,1.4c-10.9,9-20.5,19.6-28.4,31.3c-0.9,1.6-1.7,3.2-2.3,4.9
			C67.5,434.2,67.8,435,69.3,434.9z"/>
		<path fill="#2F1D1C" d="M79.6,346.9c2.4-1.9,1.2-3.1-1.1-3.5c-3.6-0.5-7.3-0.5-11,0.1c-23.2,2.6-43.7,12.1-63.2,24.3
			c-0.7,0.5-1.9,0.7-1.6,2c5.9,1,11.5,2.9,17.7,1.2c8.9-2.6,18.4-3.1,25.7-9.9c1.7-1.6,4.3-1.6,6-0.1c5.5,4.3,11.9,7.6,15.7,13.7
			c3.4,5.6,7.4,9.7,14.8,8.8c2.7-0.3,2.5,1.4,1.1,3c-0.5,0.6-1.1,1.2-1.7,1.8c-9.3,7.5-11,17.7-10.4,28.8c6-10.9,13.1-21,22.1-29.5
			c2.4-2.3,2.2-3-1.1-3.8c-7.5-1.8-12.1-6.5-13.4-14.3c-0.6-3.3-1.4-6.5-2.5-9.7C75.1,354.9,75.1,350.5,79.6,346.9z"/>
		<path fill="#2F1D1C" d="M61.1,434.8c-0.6,1.2-1.8,2.3-1.3,4.3c7.6-3.8,8.5-11.2,8.9-17.7c0.8-12.9,0.4-25.9,13.3-35.6
			c-6.7-0.2-11.1-2.2-13.8-6.9c-3.8-6.8-10.2-10.8-16.1-15.4c-2.1-1.7-4.1-1.9-6.1,0.3c-2.7,2.9-6.3,4.2-10,5.3
			c-5.7,1.6-11.5,3-18.1,4.8c7,3.6,12.8,7.8,16.9,13.7c4,5.6,7.5,11.3,5.4,18.9c-1.6,5.8-1,6.2,5.1,4.7c11.6-2.7,20,4.4,18.6,15.8
			C63.5,429.7,62.5,432.4,61.1,434.8z"/>
		<path fill="#2F1D1C" d="M85.8,399.4c-4.6,5.9-8.7,12-11.3,18.9c8.5-10.1,18-19.4,28.4-27.7c1.4-1.1,4.5-2.9,2.5-5
			c-1.4-1.4-4.7-1.3-6.9,0.4c-0.6,0.5-1.3,1.1-1.8,1.7C92.7,391.3,89.1,395.2,85.8,399.4z"/>
	</g>
</g>
</svg>
