<?xml version="1.0" encoding="utf-8"?>
<!-- Generator: Adobe Illustrator 25.4.0, SVG Export Plug-In . SVG Version: 6.00 Build 0)  -->
<svg version="1.1" baseProfile="tiny" id="图层_1"
	 xmlns="http://www.w3.org/2000/svg" xmlns:xlink="http://www.w3.org/1999/xlink" x="0px" y="0px" viewBox="0 0 768.1 1024"
	 overflow="visible" xml:space="preserve">
<g>
	<path d="M768.1,327.1v-2H768L768.1,327.1C768,327.1,768.1,327.1,768.1,327.1z"/>
	<path d="M768.1,500.1v-2H768L768.1,500.1C768,500.1,768.1,500.1,768.1,500.1z"/>
	<path d="M768.1,529.1v-2c0,0-0.1,0-0.1-0.1L768.1,529.1L768.1,529.1z"/>
	<path d="M768.1,300v-3H768L768.1,300C768,300,768.1,300,768.1,300z"/>
	<path d="M768.1,603v-2c0,0,0,0-0.1,0L768.1,603C768,603,768,603,768.1,603z"/>
	<polygon points="411.2,1024 415.2,1024 415.2,1024 	"/>
	<path d="M768.1,980.9L768.1,980.9l-0.1,3h0.1V980.9z"/>
	<path d="M768.1,106.1v-2H768L768.1,106.1L768.1,106.1z"/>
	<path d="M108.1,1024h3l0,0H108.1C108,1024,108,1024,108.1,1024z"/>
	<path fill="#9F2F24" d="M503.7,420.1c11.6-0.2,23.3-0.2,34.9,0c3.5,0.1,4.5-0.9,4.4-4.4c-0.5-13.3-0.7-26.6-0.9-39.9
		c0-2.6-0.5-3.8-3.5-3.8c-12,0.2-23.9,0.1-35.9,0c-2.8,0-3.7,0.8-3.7,3.6c0.2,6.7,0.1,13.3,0,20c0,6.6,0.3,13.3-0.1,19.9
		C498.8,419.4,500.2,420.2,503.7,420.1z"/>
	<path fill="#DE410F" d="M576.7,375.7c5.3-1.6,10.4-2.5,15.6-0.5c3.2,1.2,3-0.4,2.6-2.5c-3.2-16.6-2.8-33.5-3.2-50.3
		c-0.1-4.5-0.4-9-0.7-13.5c-0.2-3.6-3.4-4.2-5.7-4.7c-2.5-0.5-1,2.3-1.4,3.6c-0.2,0.7,0.1,1.9-1,2c-1.4,0.1-1.5-1.2-1.4-2.1
		c0.8-4.9-2-6.9-5.9-9s-4.4-0.4-4.6,2.8c-0.4,6.2-1,12.3-1.1,18.5c-0.3,17,2.6,33.9-0.1,49.1C570.2,378.2,569.2,378,576.7,375.7z"/>
	<path fill="#FFFFFF" d="M531,222.3c-4.4-0.1-8.6,1.3-12.1,3.9c-1.6,1.2-3.5,2.4-2.8,4.8c0.7,2.4,2.8,1.9,4.6,2
		c13.8,0.6,27.5,1.6,41.2,3.3c2.9,0.4,3.5-0.5,3.2-3c-0.8-7.2-1.1-14.5-0.9-21.8C554,220.5,542.9,222.7,531,222.3z"/>
	<path fill="#404450" d="M517.2,253.4c0.7,10.5,3.3,20.7,7.9,30.1c1.6,3.2,3.3,4.8,7.1,4.5c6.1-0.4,12.3-0.1,18.5-0.1l0,0
		c6.5,0,13,0.1,19.5-0.1c1.5,0,3.7,1.2,4.3-1.1c0.5-2-1-3.2-2.7-4.3c-5.9-3.9-10.7-9.1-14.1-15.3c-4.5-8.1-6.3-17.3-5.4-26.5
		c0.2-2.3,0.2-3.6-2.8-3.8c-10.1-0.5-20.3-1.2-30.4-2c-2.7-0.2-3.1,0.6-2.9,3C516.6,243.1,516.8,248.3,517.2,253.4z"/>
	<path fill="#404450" d="M557.9,237.8c-2.4-0.1-3.2,0.8-3.6,3c-2.6,14.3,6.2,32.8,19.7,40.2c0.2-3.8,0-7.1,0.8-10.4
		c0.8-3.2-0.5-3.9-3.4-3.1c-3.3,1-4.4-0.6-4.5-3.8c-0.2-6.1-0.6-12.3-1-18.4C565.4,238.3,564.9,238,557.9,237.8z"/>
	<path fill="#3B3F4B" d="M618.8,237.2c-3.8,0.4-7.6,0.7-11.5,0.7c-2.1,0-3.2,0.7-3.7,2.9c-2.9,11.4-4.8,23.1-5.8,34.9
		c-0.2,2.7,0.7,3.5,3.3,3.4c5.7-0.2,11.3,0,17,0c6.2,0,12.3,0,18.5,0c2.2,0,3.1-0.4,2-2.8c-5.2-11.3-9.7-23-13.6-34.8
		C624.1,238.4,622.3,236.8,618.8,237.2z"/>
	<path fill="#3B3F4B" d="M646,279.1c5.4-0.2,10.9,0,16.4,0l0,0c5.7,0,11.3-0.1,17,0c3.2,0.1,3.3-0.8,1.8-3.3
		c-6.7-11.9-12.2-24.4-16.6-37.3c-1.4-4-2.8-6.2-7.6-4.8c-3.2,0.9-6.6,0-9.9-0.2c-5.6-0.2-11.3-1.6-16.9-0.5c-4.4,0.8-5,1.9-3.6,6.1
		c3.9,12.4,8.5,24.5,13.8,36.3C641.6,278,643,279.2,646,279.1z"/>
	<path fill="#3B3F4B" d="M644.2,159.4c0.5-1.8-0.5-2.4-2.7-2.4c-4.9,0-9.7-0.7-13.8-3.4c-2.4-1.5-2.7-0.2-2.9,1.7
		c-0.8,8.1-2.6,16.1-5.3,23.8c-0.3,0.9-0.9,2.1,0.4,2.6c1.4,0.6,1.9-0.7,2.5-1.8c1.6-3.3,3.5-6.5,5-9.7c1.2-2.4,2.6-2.6,5.1-1.9
		c8.8,2.5,9.5,2,11.4-6.9C643.9,160.9,644,160.4,644.2,159.4z"/>
	<path fill="#FFFFFF" d="M656.6,225.3c-4.4,0-8.5-1.7-12.7-2.1c-4.2-0.2-8.3-0.8-12.3-1.9c-3.3-1-8.1-4-9.6-2.1
		c-2.2,2.9,0.3,7.5,0.9,11.4c0.4,2.1,1,3,3.2,1.7c3.1-1.9,6.6-1.9,10.2-1.6c5.6,0.5,11.3,0.9,16.9,1.1c4.9,0.4,9.7-0.8,13.9-3.4
		C663.9,225.7,660.2,225.4,656.6,225.3z"/>
	<path fill="#7F4D43" d="M630.8,305v-0.9c9.3,0,18.6,0,28,0c10.5-0.1,10.4-0.1,10.4-10.9c0-3.2-0.8-4.2-4.1-4.2
		c-21.2,0.2-42.3,0.2-63.5,0c-3.4,0-4.8,0.7-4.5,4.3c0.2,4-1.3,4.9-5,3.8c-1.3-0.3-2.5-0.8-3.8-1.3c-1.2-0.5-2.8-1.6-3.7-0.8
		c-1.2,1.2-0.5,3.2-0.4,4.8c0,1.2,1.1,1.6,1.9,2.1c3.4,2,7.3,3,11.3,3L630.8,305z"/>
	<path fill="#3B3F4B" d="M655.5,161.3c-0.3-3.7-1.5-4.4-5.1-4.4c-4.5,0-3.9,2.9-4.6,5.5c-0.7,2.6-2.8,5.4-2.2,7.5
		c0.8,2.6,4.8,1.9,7.3,2.7c1.9,0.6,2.7,1.1,0.8,2.9c-0.9,0.8-1.3,2.3-1.8,3.5c-4.4,10.2-7.2,21.1-8.2,32.2
		c-0.9,8.8-0.4,9.8,8.4,11.6c1,0.2,2,0.3,3,0.3c5.3,0,10.5,0.4,16.3,3.7c-3.6-10.8-6.6-21.8-9-32.9
		C658.1,183.1,656.5,172.2,655.5,161.3z"/>
	<path fill="#3B3F4B" d="M699.8,287.1L699.8,287.1c-0.3-2.2-1.4-3-2.2-4c-7.6-9.2-13.9-19.5-18.5-30.6c-2.7-6.4-5.2-13-7.4-19.6
		c-1.1-3.2-2.5-3.2-5.1-1.9c-2.1,1.1-1.8,2.4-1.2,4.1c2.2,5.7,4.3,11.5,6.7,17.2c2.4,5.6,5.6,11.3,7.8,17.2c2.1,5.4,6.9,9,8.9,14.5
		C690.8,289.3,695.8,286.2,699.8,287.1z"/>
	<path fill="#32333A" d="M687.5,286.4c-1.5-3.5-3.3-5.7-8-5.4c-12.7,0.6-25.5,0.4-38.3,0.4c-13.4,0-26.9,0.1-40.3-0.3
		c-2.9-0.1-3.8,1-3.7,3.7c0.1,3.6,2.8,2.2,4.4,2.2c27.5,0.1,54.9,0.1,82.3,0C685.1,287,686.2,287.3,687.5,286.4z"/>
	<path fill="#32333A" d="M591,147.8c6.9-0.1,13.9,0,22,0c-3.6-2.2-6.5-3.4-8.6-5.3c-3.9-3.5-8.3-3.4-13-3.4c-4.3,0-2.7,3.3-3.2,5.4
		C587.8,146.4,588.5,147.8,591,147.8z"/>
	<path fill="#32333A" d="M612.7,136.8c-2.8,0.8-5.7,1.4-9.3,2.2c5.4,4,11.3,7.2,17.7,9.3c-2.5-3.8-4.4-6.5-5.6-9.6
		C615,137.5,614.6,136.3,612.7,136.8z"/>
	<path fill="#E97C67" d="M465,262c-4.4,4.8-7.7,10.1-8,18.1c3.2,9.3,3.4,20.8,8.3,30.9c2.1,4.4,6,7.7,10.7,9.1
		c2.9,1,4.5,0.1,6.6-1.7c2.2-2,0.7-3.7,0.1-5.4c-4.1-11.8-9.1-23.2-12-35.4c-1.2-4.8-2-9.8-2.9-14.7C467.4,261.1,466.8,260,465,262z
		"/>
	<path fill="#C54739" d="M510,290.6c-0.3,2.8-0.2,5.6,0.4,8.4c0.4,1.8,2.5,1,3.9,1c5.8,0.3,11.7-0.1,17.4,0.8
		c5.1,0.8,10.4-2,15.6,2.9c3.2,3,5.8,0.5,5.8-4.5c-0.1-1.7-0.1-3.3,0-5c0.3-3.1-0.6-4.4-4-4.3c-5.8,0.4-11.6,0.2-17.5,0.2
		c-6.2,0-12.3,0-18.5,0C512,290,510,289.7,510,290.6z"/>
	<path fill="#9F2F24" d="M500,320.4c-1.3,1-2,2.7-1.8,4.3c0.3,7.5,0.6,14.9,0.8,22.4c0,2.1,0.7,2.9,2.9,2.9
		c12.6,0.2,25.3,0.5,37.9,0.9c2.7,0.1,3.4-0.9,3.4-3.4c-0.2-6.8,0-13.6,0-20.4c0-7-0.1-14,0-21c0-2.3-0.5-3.2-3-3.3
		c-9-0.2-17.9-0.4-26.9-0.9c-2.3-0.1-3.3,0.7-3.8,2.8C507.9,310.9,504.6,316.3,500,320.4z"/>
	<path fill="#5F2708" d="M487.7,324c3.1-0.3,6.1-1.5,8.5-3.5c2.2-1.6,1.3-2.4-0.2-3.6c-3.8-2.9-11.9-0.2-13.3,4.3
		c-0.2,0.6,0,1.2,0.6,1.5c0.1,0,0.1,0,0.2,0.1C484.7,323.6,486.2,324,487.7,324z"/>
	<path fill="#E97C67" d="M496.4,263.7c-1.8-2.4-3.9-4.9-6.9-5.5c-5.4-1-10.7-2.9-16.6-1c-3,1-3.7,1.5-3.3,4.2
		c2.3,18,9.2,34.6,15.4,51.5c0.6,1.6,1.2,2.2,2.8,1.2c3.7-2.2,7.1-1.1,10,1.5c1.9,1.7,3,1.4,4.3-0.5c3.8-5.1,6.3-10.6,6-17.1
		C507.3,285.6,504.1,273.9,496.4,263.7z"/>
	<path fill="#C54739" d="M487.3,431.1c20.7-0.1,41.3-0.1,62,0c3.6,0,4.8-0.7,4.8-4.6c-0.2-19.2,0-38.3,0-57.5h-0.9
		c0-19.3-0.1-38.6,0.1-58c0-3.5-0.8-4.9-4.6-5c-4.3-0.1-3.5,2.4-3.5,4.8c0,12.8-0.1,25.7,0,38.5c0,2.6-0.4,3.9-3.5,3.8
		c-13.8-0.5-27.6-0.8-41.5-0.9c-2.8,0-3.2-1.2-3.3-3.6c-0.1-6-0.4-12-0.7-18c-0.2-6-0.2-6.1-5.9-4.8c-1,0.3-2,0.4-3,0.3
		c-2.7-0.5-3.4,0.6-3.4,3.2c-0.2,32.7-0.6,65.3-1,97.9C482.9,430.7,484.4,431.1,487.3,431.1z M497.1,396c0-7.5,0.1-15-0.1-22.5
		c-0.1-2.9,0.9-3.7,3.7-3.6c13.7,0.1,27.3,0.1,40.9,0c2.9,0,3.1,0.5,2.8,3.5c-0.6,6.4,0,13,0.1,19.5c0.2,8.2,0.3,16.3,0.6,24.5
		c0.1,3.4-0.9,4.8-4.5,4.7c-13.3-0.2-26.6-0.1-39.9,0c-2.8,0-3.8-0.7-3.7-3.6C497.2,411,497.1,403.5,497.1,396z"/>
	<path fill="#9F2F24" d="M427.9,350.2c12.8,0.2,25.6,0.5,38.4,0.9c2.2,0.1,2.8-0.8,2.9-2.9c0.2-8.6,0.6-17.3,0.9-25.9
		c0-1.3,0-2.5-1.2-3.6c-4.3-3.5-6.5-8.3-8-13.5c-0.5-1.9-1.2-3.1-3.6-3.1c-9.8-0.1-19.6-0.4-29.4-0.9c-2.9-0.1-3.7,0.8-3.6,3.6
		c0.2,6.9,0,13.9,0,20.9l0,0h0.9c0,7,0,14,0,21C425.1,348.7,425.1,350.1,427.9,350.2z"/>
	<path fill="#7F4D43" d="M578,297.7c0.9,0.4,2.1,1.2,2.7,0.8c1.2-0.6,0.5-2.1,0.6-3.2c0.2-1.9-1.3-2.3-2.6-3.1
		c-4.1-2.7-8.8-2.1-13.4-2.2c-10.8,0-10.8,0-10.2,10.9c0,0.3,0,0.7,0,1c-0.2,2.9,2.1,2.7,3.8,2.6c3.4-0.3,7.1,2.1,10-1.2
		c0.2-0.2,0-0.7,0.1-1C570.5,294.2,570.5,294.2,578,297.7z"/>
	<path fill="#DA4905" d="M220.4,829.2c2.4-0.7,1.5-1.6,0.2-2.5c-1.7-1.3-3.7-2.2-5.8-2.7c-7.8-1.6-15.9-1.4-23.7,0.4
		c-2.7,0.6-5.2,2-7.2,4l0,0C196.4,833.5,208.3,832.5,220.4,829.2z"/>
	<path fill="#FFFFFF" d="M163.9,546.3c-5.2,4.1-9.8,8.9-16.2,11.6c11,4,22.1,4.5,33.2,3.9c13.9-0.7,27.2,1.1,39.6,7.9
		c7.7,4.2,15.9,4.3,24.2,1.5c7.5-2.7,14.9-5.8,22.1-9.3c1.2-0.5,2.5-1,3.1-2.5c-0.7-0.4-1.5-0.7-2.3-1c-7.5-1.6-11.4-6.4-12.5-13.8
		c-0.5-3.1-1.8-6.1-3.8-8.6c-1.9-2.5-4.1-3.8-7.3-2.2c-5.1,2.5-10.3,1.8-15.6,0.8c-7.2-1.5-14.7-1.3-21.8,0.8
		c-7.5,2.2-15.1,3.9-22.9,4.9C176.9,541.3,169.6,541.9,163.9,546.3z"/>
	<path fill="#DA4905" d="M184.8,877c0.1,3,1.4,4.4,3.9,5.5c10,4.5,20,4.2,30,0.2c2.5-1,3.4-2.5,3.4-5.3c-0.2-6.9,0-13.9,0-20.9
		c0-7.3-0.1-14.6,0.1-22c0.1-3.1-0.8-3.4-3.6-2.8c-10.3,2.5-20.7,3.5-31,0c-3.7-1.2-4.5-0.5-4.3,3.2C184,849.1,184.5,863,184.8,877z
		"/>
	<path fill="#C54739" d="M415.5,431.1c20.3-0.2,40.6-0.2,61,0c3.6,0,4.8-0.8,4.8-4.6c0-19,0.3-38,0.5-57c0.1-13.8,0.2-27.6,0.3-41.5
		c0-3-6.2-7.5-9.1-6.8c-0.9,0.2-0.9,0.9-0.9,1.5c-0.3,9-1.2,18-0.6,26.9c0.3,3.7-0.8,3.3-3.1,3.3c-14-0.3-28-0.7-42-0.9
		c-3,0-3.5-1.3-3.5-3.9c-0.2-14.5-0.6-29-0.9-43.5c-0.1-5.4,0.3-5.9,6-5.7c9,0.2,18,0.6,27,0.8c1.3,0,3.3,0.6,3.7-0.5
		c0.8-2.6-0.6-5.2-1-7.8c-0.4-2-2.3-1.5-3.7-1.6c-11.7-0.3-23.3-0.7-35-0.9c-7-0.1-7,0-7,6.7c0,21.5,0,43,0,64.5h-0.9
		c0,22.1,0.1,44.3-0.1,66.4C411,430.2,412,431.1,415.5,431.1z M422.1,417.8c0.4-14.7,0.7-29.3,0.9-44c0-2.1,0.6-2.9,2.8-2.9
		c14.3-0.2,28.7-0.6,43-1c2.7-0.1,3.4,0.9,3.3,3.4c-0.1,7.5,0,15,0,22.5l-1,0.1c0,7.5-0.1,15,0,22.5c0,2.8-0.7,3.8-3.6,3.7
		c-14.2-0.4-28.3-0.8-42.5-1C422.6,421.1,422,420.2,422.1,417.8z"/>
	<path fill="#FFFFFF" d="M334.8,933c-6.4-1.4-13-0.6-19.4-1.4c-23.6-3-47.2-6-70.8-8.7c-16.4-1.8-32.8-2.9-48.8-7.5
		c-2.6-0.6-5.3-0.5-7.9,0.2c-5.8,1.3-10.2,4.9-14.3,8.8c-4.9,4.7-11.5,7.1-18.2,6.7c-3.7-0.1-7.3,0-11,0c-3,0-5.5,0.9-6.1,4
		c-0.6,3.4,2.5,4,4.8,4.7c5,1.4,10.1,2.1,15.3,2c44.1,0.6,88.2,3.2,132.3,1.3c18.9-0.8,37.6-4.3,56.8-4.8
		C343.8,935,339.4,934,334.8,933z"/>
	<path fill="#FFFFFF" d="M58.3,517.1c6.1,0.7,12,0.8,17.9,2.1c10.7,2.4,21.7,3.7,32.7,4c12,0.5,24,0.5,36,1.3
		c14.8,1,29.5,2.2,44.4,0.5c7.9-0.9,15.9-1.3,23.9-2.1c2.1-0.2,4.7-0.5,5.6-2.7c0.9-2.2-1.2-3.7-2.5-5.1
		c-6.9-7.8-13.8-15.5-20.7-23.1c-3.7-4.4-9-7.2-14.7-7.9c-23-2.5-45.3-1.3-65.2,12.5c-5.4,4.1-12.5,5.3-19,3.5
		c-11.5-3-21.3,0.6-29.8,8.5C64.1,511.3,61.7,514.6,58.3,517.1z"/>
	<path fill="#FB8729" d="M141.7,821.1c-5.2-0.1-10.5-0.1-15.8-0.1v-0.9c-5,0-10,0.3-15-0.1c-3.6-0.3-5.1,1.3-6,4.4
		c-2.1,7.3-0.5,14.1,2.3,20.9c0.7,1.8,2.2,1.7,3.7,1.8c9.8,0.3,19.6,0.5,29.4,1c3,0.2,4.6-1,5.8-3.5c3.7-7.6,1.3-14.9-1-22.2
		C144.5,820.6,142.9,821.1,141.7,821.1z"/>
	<path fill="#E14606" d="M279.9,89.7c-9.2-35.6-29-65-56.5-89.4c-0.2-0.1-0.5-0.2-0.7-0.3H195c-0.1,0.3-0.3,0.6-0.6,0.8
		c8,19.9,11.5,40.7,11.7,62c0.2,14.7-1.7,29.2-2.9,43.8c-2.6,34.2-8.2,68.1-16.6,101.3c-2.3,8.8-2.3,8.8,6.6,10
		c17.8,2.4,30.4,14.2,32.7,30.8c0.7,4.8,1.1,9.7,1.6,14.5l1,0.8c1.8-2.1,3.6-4.3,5.5-6.3C280.1,210.1,296.3,154.1,279.9,89.7z"/>
	<path fill="#B6661F" d="M0.6,327c53.9,0,108,0,161.9-0.1c3.9,0,9.6,1.8,11.3-0.8c1.5-2.3-1.4-7.4-2-11.3c-0.5-3.1-1.7-3.7-4.6-2.6
		c-11.7,4.4-23.9,5.5-36.4,4.6c-11.3-0.8-22.6-1.4-33.2-6.2c-3.4-1.6-7-2.8-10.8-3.5C56.4,301,28.1,290,3.7,270.2
		c-1-0.8-1.8-2.1-3.2-2.3c0,0,0,0-0.1,0.1s-0.3,0.2-0.4,0.3v58.3C0.2,326.7,0.4,326.8,0.6,327z"/>
	<path fill="#E18E75" d="M0.7,498.1c0.2,0.1,0.4,0.2,0.5,0.3c0.2,0.2,0.3,0.3,0.3,0.5c23.5,0.3,47,0.6,70.5,1
		c2.2,0.1,4.3-0.2,6.3-0.9c6.2-2.3,12.7-3,19.1-1c6.3,1.9,11.9,0.4,17-3.2c20.3-14.2,43.1-15.4,66.6-12.9c6.1,0.7,11.3,3.7,15.7,8.2
		c4.3,4.3,8.3,8.8,12.2,13.4c0.2-0.1,0.3-0.2,0.6-0.1c6.5,0.3,12.9-1.1,19.3-0.2c0.7-10.4,0.5-20.9-0.5-31.3
		c-0.4-3.8-0.6-7.7,3.2-10.3c1.7-1.2,0.2-2-0.6-2.6c-3.1-2.5-6-5.3-9.4-7.4c-14.2-8.6-24-20.7-30.7-35.8
		c-3.8-8.3-8.3-16.3-13.4-23.9c-2.5-3.9-2.1-5.2,2.3-6.6c6.2-1.8,12.6-3.2,19-4.2c5-0.8,5-0.8,2.2-4.8c-9.7-14-18.4-28.5-24.6-44.5
		c-1.3-3.5-3.6-2.8-6-2.8H0.7c-0.2,0.3-0.4,0.5-0.7,0.7V498l0,0C0.3,498,0.5,498,0.7,498.1z"/>
	<path fill="#EBC693" d="M355.6,667.4c-2.8-4.2-4.1-9.4-5.5-14.4c-2.5-8.3-5.5-16.3-9.2-24.2c-5.9-13-10.6-26.5-14.1-40.4
		c-1.4-5.7-1.1-11.7,1-17.2c0.8-2.1,0.8-4.5,0-6.6c-0.9-2.8-2.1-5.7-2.5-8.6c-0.5-3.5-2.3-4.1-5.4-4.2c-16.3-0.5-32.6-1.2-49-1.7
		c-3-0.1-4.1-0.8-4-3.9c0-3.2-0.3-6.4-0.5-9.6c-4-1.1-8.6-1.9-12.8-1.3c1.9,2.7,3.3,5.7,3.8,8.9c0.9,6.7,4.6,10.8,11.3,12.3
		c1.7,0.4,4.2,0.4,4.3,2.6c0.1,2-2,2.9-3.6,3.7c-8.2,4.4-16.8,8-25.7,10.8c-7.9,2.6-16.5,1.8-23.8-2.2c-12-6.5-24.7-8.4-38.1-7.7
		c-9.5,0.6-19,0-28.3-1.8c-2.1-0.5-4.2-1.1-6.2-1.8c-1.1-0.3-2.4-0.8-2.6-2.1c-0.3-1.7,1.3-2.2,2.5-2.7c5.7-2.3,10.1-6.2,14.7-10
		c6.7-5.6,15.3-6.1,23.5-7.5c5.3-0.9,10.8-1.2,15.7-4.1L1.5,532c0,0,0,0,0,0.1c-0.1,0.1-0.2,0.2-0.3,0.3c-0.2,0.2-0.3,0.3-0.5,0.3
		c-0.2,0.1-0.4,0.2-0.6,0.1l0,0v229.9c0.2,0,0.3,0.1,0.4,0.2c6.9-1.7,12.7-5.9,18.8-9.3c12-7,24.2-13.3,37.3-17.8
		c29.7-10.3,59.6-11.6,89.7-2c14.1,4.5,28.2,7.9,43.2,6c20.9-2.6,41.2-7.7,60.5-16.3c15.5-6.9,31.4-11.8,48.3-13.7
		c16.9-2,32.8,0.5,48.5,6.3c4.8,1.8,5.1,1.8,4.3-3.5c-1.6-10.3-1.5-20.6,4.3-29.5C359.1,677.4,359.4,673,355.6,667.4z"/>
	<path fill="#DFAE84" d="M0.9,529.5c0.2,0.2,0.3,0.3,0.3,0.5l0,0c69.2,0.7,138.4,1.3,207.7,1.9c8.5,0.1,17-0.4,25.4,1.5
		c3.1,0.7,5.9-0.4,8.8-1.4c4.1-1.5,6.4-1.2,8.8,1.4c4.6-1.1,9.7-0.3,14.3,0.9c0-1,0-2.1,0-3.1c0.2-4.8-2.4-7.2-6.2-8.3
		c-6.2-1.9-12.5-3.3-19.1-3.1c-2.3,0-4.6,0.6-6.6,1.9c-3.4,2.2-5.6,1.2-6.1-2.9c-0.3-2.7-0.3-5.3,0-8c0.2-1.8,0.3-3.6,0.5-5.4
		c-5.9-0.9-11.9,0.4-17.9,0.3c2.4,2.8,4.8,5.6,7.2,8.4c4.9,5.7,3.5,9.6-4.3,10.7c-8.6,1.2-17.3,1.4-25.9,2.3
		c-25.7,2.6-51.2-1.9-76.9-1.8c-12,0-24-1.4-35.7-4.1c-5.9-1.3-11.9-1.4-17.9-1.3c-1.4,0-3.4,0.4-3.9-1.3c-0.4-1.3,1.4-2.2,2.5-2.8
		c5.6-3.4,9-9.2,14.2-13.6L1.9,501c0,0.1-0.1,0.2-0.1,0.3c-0.1,0.1-0.2,0.2-0.3,0.3c-0.2,0.2-0.3,0.3-0.5,0.3
		c-0.2,0.1-0.4,0.2-0.6,0.1c-0.1,0-0.2,0-0.3,0v27c0.1,0,0.3,0.1,0.4,0.1C0.6,529.2,0.8,529.3,0.9,529.5z"/>
	<path fill="#FFFFFF" d="M360.1,739c-4.4,0.2-6.7-2.5-7.4-6.6c-0.4-2.8-0.6-5.6-0.6-8.4c0.2-2.2-1.2-4.3-3.3-4.9
		c-15.4-6.1-31.2-9.1-47.9-7.5c-18.5,1.7-35.7,7.4-52.6,14.8c-19.3,8.5-39.7,13.4-60.6,15.7c-14.6,1.6-28.4-2.1-42.2-6.3
		c-15.4-4.7-31.1-7.3-47.3-6.3c-25.5,1.7-49.2,9.3-71.3,22.1c-8.7,5.1-17.3,10-26.4,14.3c-0.1,0.2-0.3,0.5-0.5,0.6v5.2
		c0.2,0.1,0.4,0.3,0.5,0.4c1,0,2,0,3,0.2c28.5,6.1,57.3,10.5,86.3,13.1c38.8,3.4,77.8,4.4,116.8,3.2c37-1,73.9-3.6,110.8-5.6
		c13.8-0.8,27.6-1.8,41.4-2.6c3-0.2,3.9-1,3.7-4.1c-0.8-11.3-0.7-22.7,0.3-34C363,740.1,362.8,738.9,360.1,739z"/>
	<path fill="#E14606" d="M84.1,298.6c-2.6-8.2-7.8-13.5-16-16.2c-3.3-1.1-6.3-3-9.5-4.4c-21.1-8.9-41.5-18.8-58.3-34.8
		c0,0,0,0.1-0.1,0.1c-0.1,0.1-0.2,0.1-0.3,0.2v21c0.1,0.1,0.3,0.2,0.4,0.3c0.1,0.1,0.2,0.3,0.3,0.5c0.3,0.2,0.7,0.4,1,0.6
		c22.4,19.3,48.9,30.4,77.3,37.6c2.8,0.7,5.5,2,8.8,1.3C86.5,302.5,84.8,300.7,84.1,298.6z"/>
	<path fill="#E14606" d="M92.6,241.4c-15.5-19.8-29.4-40.8-41.6-62.8C25.9,133.2,9.2,85,2.8,33.3C1.8,25.2,1,17.1,0.1,9
		c0-2.1,0.1-4.2,0-6.2H0v236.7c0.1,0.1,0.2,0.1,0.3,0.2c0.2,0.2,0.3,0.3,0.3,0.5c0.1,0.1,0.1,0.3,0.1,0.4
		c21.5,21.8,50.4,30.9,77.3,44.2v-6c0.3-13,3.3-24.8,15-32.5C96.3,244.2,93.7,242.8,92.6,241.4z"/>
	<path fill="#F3AB14" d="M155.5,170.9c-2.5-30.5-5.8-61-6.3-91.6c-0.4-25.5-5.4-50.7-14.9-74.5c-0.5-1.3-1.5-2.5-1.3-4
		c-0.2-0.2-0.3-0.5-0.4-0.8H73.3c-0.1,0.4-0.2,0.7-0.5,0.9c-0.7,2.3-0.5,4.7-0.5,7.1c-1,28.1,2.2,55.8,7.8,83.3
		c9.5,45.7,25.7,89.1,45.6,131.1c1.1,2.3,2.1,2.7,4.5,1.9c7.8-2.5,15.8-4.2,23.9-5.2c2.8-0.3,4.1-1.2,3.9-4.3
		C157.1,200.2,156.7,185.5,155.5,170.9z"/>
	<path fill="#F3AB14" d="M192.5,1.1c-0.5-0.2-0.9-0.6-1.1-1.1h-55.3c-0.1,0.5-0.4,1-0.9,1.2c0.1,0.4,0.2,0.9,0.4,1.3
		c10,25,14.9,51,15.7,77.8c0.5,16.5,0.9,33,2.5,49.4c1.8,18.4,3.8,36.8,4.6,55.2c0.4,9.8,1.2,19.6,1.5,29.4c0.1,3.3,1.2,4,4.1,3.4
		c4.9-0.8,10-1,14.9-0.7c2.6,0.1,3.5-0.9,4.1-3.2c5.4-20.8,9.8-41.8,13-63c3.6-24.4,5.7-48.9,7.5-73.5
		C205.7,51.4,201.8,25.3,192.5,1.1z"/>
	<path fill="#F3AB14" d="M123.4,222c-11.5-23.8-21.5-48.3-29.8-73.5c-15.2-45.4-24.8-91.8-23.5-140c0.1-2.5,0.6-5,0.2-7.5
		c-0.1-0.1-0.2-0.2-0.3-0.3c-0.2-0.2-0.4-0.4-0.5-0.7h-67c0,0.1,0,0.2,0,0.4c0,0.5-0.1,0.9-0.4,1.3c0.7,16.5,2.5,32.8,5.2,49
		c12.6,70.9,43.5,133.4,87.2,190c2.1,2.8,3.5,2.4,6,0.7c6.8-4.8,13.5-9.8,21-13.4C124.8,226.4,124.9,225.1,123.4,222z"/>
	<path fill="#422A45" d="M557.3,36.8c6-2.1,12.2-3.6,19.1-5.4c-5.4-4.1-10.2-8.8-14.2-14.2c-3.7-5.1-6.6-10.7-8.8-16.6
		c-0.5-0.1-1-0.3-1.3-0.6H227.8c-0.1,0.2-0.3,0.4-0.5,0.5c0.8,1.9,2.6,2.8,4,4.2c34.6,34,54.3,74.8,56.7,123.5c0.2,3.1,1,3.9,4,3.8
		c11-0.4,22-0.6,33-0.7c74-1,147.9-1.6,221.8-1.3c1.8,0,3.8,0.4,6-0.6c-2.4-1.5-4.4-2.8-6.3-4c-10.7-7-18.7-17.4-22.8-29.5
		c-5.2-14.9-2.8-28.6,7.4-40.6C538,46.9,547.1,40.5,557.3,36.8z"/>
	<path fill="#F4D45E" d="M603.2,0.9c-0.3-0.2-0.5-0.6-0.6-0.9h-46.8c-0.1,0.1-0.3,0.2-0.4,0.3c4.8,11.3,11.4,21.2,21.4,28.5
		c1.6,1.2,3.1,2.5,5.4,2.1C587,30,592,29.7,597,30c2.6,0.1,2.6-1.1,2.3-3c-0.4-4.3,0.1-8.7,1.6-12.8C602.3,9.9,603.1,5.4,603.2,0.9z
		"/>
	<path fill="#F4D45E" d="M657.7,1.1c-0.1-0.3-0.2-0.7-0.1-1.1h-51.9c-0.1,0.3-0.2,0.5-0.4,0.7c0.3,4.9-0.9,9.7-2.3,14.5
		c-1.2,3.5-1.7,7.1-1.6,10.8c0.2,3.1,1.4,4.6,4.7,5.1c9.3,1.1,18.2,4.2,26.1,9.2c5,3.2,10.1,5.1,16.1,5.2c6.2,0.1,6.2,1.5,5.6-5.9
		C652.5,26.5,652.6,13.5,657.7,1.1z"/>
	<path fill="#FDFDFC" d="M107.7,1023.8c-19.3-14.2-40.8-24.5-63.4-32.4c-14.6-5-28.9-10.7-43.7-15.1c-0.2,0.2-0.4,0.4-0.6,0.5v47.2
		h107.6C107.6,1023.9,107.7,1023.8,107.7,1023.8z"/>
	<path fill="#F4D45E" d="M767.9,103.1V0h-107c0,0.1-0.1,0.2-0.1,0.4c0,0.8-0.5,1.6-1.5,1.7c-5,13.2-4.6,26.9-3.4,40.7
		c0.2,2.4,0.8,3.5,3.3,3.7c3.5,0.3,6.9,1,10.3,1.6c25.1,4.4,45.9,27.2,47.3,52.3c0.2,3.3,1.4,3.7,4.2,3.7c15.3-0.1,30.5,0,45.9,0
		C767.1,103.6,767.4,103.2,767.9,103.1z"/>
	<path fill="#F8DFB3" d="M458,980.7c-3.8-3.6-6.8-7.8-12.2-9.8c-5.9-2.2-8.7-8.9-7.3-14.9c0.6-2.5,0.2-3.9-1.6-5.6
		c-28.7-26.8-46.2-59.8-54.2-98c-1.5-7.8-2.7-15.8-3.4-23.7c-0.2-1.9-0.2-3.7-2.3-4.5c-1.4-0.6-1.6-2-2.1-3.2
		c-3.8-8.2-6.9-16.6-9.3-25.3c-0.8-3.2-2.3-3.8-5.2-3.7c-24.5,0.5-49,1.5-73.4,3.4c-38.7,3-77.4,5.5-116.3,4.5
		c-5.6-0.1-5.6-0.1-5.6,5.6c0,10-0.2,20,0.1,30c0.1,3.8-1.5,5.5-4.7,6.3c-1.6,0.4-3.3,1.1-4.9,1.1c-4.3-0.2-7.7,0.5-9.4,5.2
		c-0.7,2-2.7,2-4.6,2c-11,0-22-1.3-32.9-0.7c-1,0.2-2-0.4-2.3-1.3c-4-8.7-6.3-17.5-2.2-26.9c1-2.3,2.2-3.4,5.2-3.2
		c6.6,0.6,13.3,0.4,20,0.7c2.9,0.2,3.9-0.7,3.6-3.6c-0.5-3.8-0.7-7.6-0.7-11.5c0.1-3-1.1-4-4-4.2c-9.5-0.6-18.9-1.3-28.4-2.2
		c-32.4-2.9-64.6-7.5-96.5-13.7c-0.9-0.2-1.9-0.3-2.8-0.3c-0.1,0.2-0.3,0.4-0.6,0.6v190c0.2,0.1,0.4,0.2,0.5,0.4
		c2.2,0,4.1,1.2,6.1,1.8c18.6,6.6,37.4,12.8,55.7,20.2c16.3,6.8,31.8,15.4,46.2,25.6c0.7,0.5,1.5,0.8,2.1,1.5
		c0.4,0.1,0.7,0.4,0.8,0.8h299.7c10.8-9.7,21.4-19.5,32.5-28.9c4.1-3.4,8.9-5.8,13.5-8.4C460.2,984.9,460.8,983.3,458,980.7z
		 M181.1,830.6c0-1.9,0.1-3.5,2-4.6c12-6.7,24.4-6.8,37-2c3.4,1.3,5,3.5,4.3,8c-1,6.8-0.3,14-0.3,20.9c0,9.2,0,18.3,0.3,27.4
		c0.1,2.6-1.6,2.7-2.9,3.3c-10.4,5-20.9,5.3-32,1.7c-5.7-1.8-7.2-4.4-6.9-10c0.3-6.8-0.5-13.6-0.8-20.5H181
		C181.1,846.9,181.1,838.7,181.1,830.6z M348.6,940.7c-6.4,1-13,0.3-19.4,1.1c-26.5,3.1-53.1,4.5-79.7,4.2H233
		c-24.1-0.4-48.3-1.6-72.4-2.1c-6.8-0.1-13.7-0.5-20.1-3c-2.4-1-4.6-2.4-4.3-5.4c0.2-2.9,2.3-5.4,5.2-6c1.3-0.3,2.6-0.4,4-0.4
		c3.7,0,7.3-0.1,11,0c5.7,0.2,11.3-1.8,15.5-5.7c4.7-4.3,9.5-8.4,16-9.7c2.7-0.7,5.6-0.8,8.4-0.2c16.1,4.7,32.7,5.7,49.3,7.5
		c23.5,2.6,46.9,5.7,70.4,8.6c6.5,0.8,13,0,19.4,1.4c5.1,0.9,9.9,2.7,14.4,5.3c1,0.6,2.3,1.3,2.2,2.5
		C351.6,940.6,349.8,940.5,348.6,940.7z"/>
	<path fill="#C8C5C1" d="M363.5,787.9c-0.6-2.2,1-6-4.1-5.6c-17,1.3-33.9,2.2-50.9,3.2c-41.2,2.5-82.5,5.2-123.8,5.6
		c-52.6,0.5-104.9-2.5-156.7-11.9c-9.1-1.7-18.3-3.3-27.5-5c-0.1,0.2-0.3,0.3-0.5,0.5v6.1c0.2,0.1,0.3,0.2,0.5,0.4
		c3.8,0.1,7.5,1.2,11.2,2c39.7,7.2,79.7,12.1,119.9,14.7c2.5,0.2,4.9-0.4,7.1-1.6c7.8-4,15.6-4.5,23.3,0.2c1.6,1,3.3,1.5,5.2,1.5
		c24.5,0.5,49,0.4,73.5-1.2c39.7-2.5,79.4-6.1,119.3-6.6C361.3,790.1,364.4,791.4,363.5,787.9z"/>
	<path fill="#DFB185" d="M739.1,505.2c0.2,4.3-0.2,8.7,0.1,13c0.3,3.8-0.7,5.1-4.8,5c-17.2-0.3-34.3-0.3-51.5-0.3
		c-1.8,0-3.7-0.4-6.1,0.7c5.1,2,9.5,3.6,13.8,5.3c3.6,1.4,8.5,1.9,10.3,4.5s0.3,7.2,0.3,11c0,5.8,0,5.8-5.9,5.8L590.7,551
		c-9.4,0.1-9.1,0-5.1,8.2c2.1,4.2,4.4,6.5,9.4,5.9c7.9-0.8,13.2,3.4,17.2,9.7c0.7,0.9,1.2,1.9,1.7,3c0.7,1.8,1.8,1.9,3.6,1.7
		c6.8-1.1,13.6-0.9,20.5-0.6c9.8,0.4,19.7,0.2,29.3-1.9c10-2.1,19.2-6.2,29-10.5c-3.7-2.4-7.2-1.1-10.3-2c-1.2-0.4-3.1,0.1-3.4-1.4
		c-0.4-1.8,1.5-2.4,2.7-3.1c4.6-2.8,9.7-4.3,14.8-5.8c4.7-1.3,8.8-4.2,11.5-8.3c1.9-2.5,1.8-5.9-0.1-8.3c-3.2-4.6-2.8-5.7,2.5-7.5
		c1.6-0.5,3.2-0.8,4.8-1.2c6.8-1.6,13.9-1.7,20.6-3.8c9.8-3.1,19.3-2.7,28.5,1.9v-26.9c-8.6,0.6-17.2,1.4-25.8,1.8
		C739.8,502.1,739,502.8,739.1,505.2z"/>
	<path fill="#FEFEFE" d="M743,526.3c-6.4,2-13,2.7-19.5,3.9c-3.3,0.5-6.5,1.3-9.8,2.1c-2.1,0.5-2.5,1.4-1.1,3.5
		c3.8,5.8,3.3,9-1.3,14.2c-3.5,3.9-8.1,5.7-12.9,7.1c-4,1.2-8.1,2.1-12,5.4c1.9,0.3,2.9,0.4,3.8,0.5c1.2,0.1,2.3,0.1,3.5,0.2
		c1.8,0.2,3.9,0.5,4.3,2.7c0.5,2.3-1.5,3.1-3.2,3.9c-15.5,6.8-31.3,12.1-48.6,11.5c-7.6-0.3-15.3-0.3-23-0.1c-7,0.2-7,0.3-6.3,7
		c0.2,1.2,0.2,2.3,0.1,3.5c-0.3,2.7,0.8,3.8,3.4,4.4c9.7,2.6,19.9,2.8,29.7,0.4c17.7-4.3,35.3-5.7,53.3-1.3
		c21.1,5.2,42.6,8.7,64.6,5.9v-72C759.9,525.5,751.7,523.7,743,526.3z"/>
	<path fill="#F3D3A5" d="M701.3,596.9c-16.9-4-33.3-2.6-49.9,1.4c-10.2,2.6-21,2.5-31.1-0.2c-2.6-0.7-3.5-0.4-4.4,2.5
		c-3.6,12-12.9,19-25.4,19.5c-1.9,0.1-3,0.4-3.6,2.4c-2.1,6-5.3,11.6-9.4,16.3c-1,1.2-1.8,2.3-1.2,4c5,14.7-1.1,26.7-9.5,38
		c-1.9,2.3-2.9,5.2-2.7,8.1c0.5,7.8-1.3,14.8-7.8,20.1c-3.9,3.2-5.4,8-5.9,12.9c-0.6,5.5-2,10.8-4,15.9c-2.3,5.6-3.4,11.6-3.2,17.6
		c0.2,5.4-1.1,10.2-4.9,14.2c-2,2.1-3.2,4.5-0.7,7c7.3,7.6,12.3,16.9,18.2,25.6c0.2,0.3,0.3,0.6,0.5,0.8c2.5,2.9,4.6,5.1-1.5,6.5
		c-5.5,1.2-5.3,6.5-5.5,11c-0.2,3.9,1.5,6.5,5.3,8.1c3.4,1.4,6.3,3.2,10.5,2.7c4.7-0.5,8.2,2.9,9.7,7.3c1,2.9,2.7,3.6,5.4,4
		c6.5,1,13.2,0.7,19.7,2.9c4.9,1.7,8.1,4.9,9,9.8c2.8,15.1,4.7,30.3,2.4,45.7c-0.8,5.6-3.2,10.9-6.8,15.3c-3.9,4.8-8,6-13.7,3.7
		c-8.7-3.4-14.5-9.4-16.1-18.8c-0.4-2.5-1.1-3-3.4-2.2c-1.6,0.6-3.2,0.9-4.9,0.9c-4.6-0.2-8.4,0.5-12.1,4s-8.7,2.9-13.1,0.2
		c-1.1-0.7-2.2-1.8-3.4-2c-13-1.8-24.2-8.2-35.4-14.4c-1.3-0.8-2.6-1.5-4-2c-1.8-0.5-3.5-3.2-5.7-0.7c-2.4,2.8-2.9,7.3-0.9,9.7
		c0.8,0.9,1.7,1.6,2.6,2.3c11,8.2,14.1,17.5,10.3,30.5c-0.3,1-0.5,1.9-0.8,2.9c9.9,2.5,12.8,10.5,6.3,18.7
		c-3.3,4.2-1.8,8.1-0.6,12.2c0.8,2.6,2.5,1.3,4,0.7c7.2-3.4,14.6-6.5,21.6-10.4c21.8-11.9,44.8-12.7,68.4-7.3
		c8.3,1.9,16.7,3.1,24.9,5.2c25.3,6.7,38.3,32.1,29.2,56.7c-0.4,1.1-0.8,2.1-1.1,3.2c1.4,1.2,2.3,0,3.2-0.4
		c8.6-4.4,17.9-6.3,27.4-6.8c10.3-0.6,20.5-2.8,30.2-6.5c16.6-6.4,33.1-12.9,51-14.7V603C745.3,606.3,723.2,602.1,701.3,596.9z"/>
	<path fill="#CF7A61" d="M711.9,332.5c0.5,10.1,0.4,20.3-0.1,30.5c-1.3,24.6-1.9,49.2-1.7,73.9c-0.2,2.5,1,4.8,3.1,6.2
		c8,5.9,16,12,23.9,18.1c1.2,0.9,2.4,1.5,2.3,3.8c-0.4,10.1-0.1,20.3-0.3,30.5c-0.1,3.7,0.8,4.9,4.7,4.5c8.1-0.9,16.2-1.3,24.3-1.8
		v-171c-17.3,0.3-34.6,0.8-51.8,0.9C712.6,328,711.7,329.1,711.9,332.5z"/>
	<path fill="#FFFFFF" d="M741.9,297.7c-3.3,1.8-6.9,2.4-10.5,0.5c-5.9-3.1-11.6-1.9-17.3,0.3c-2.3,0.9-3.3,2.3-3.2,4.9
		c0.3,6,0.5,12,0.4,18c-0.1,3.7,1.1,4.8,4.9,4.7c17.3-0.5,34.6-0.7,51.8-1V300c-5.4-0.7-10.9-0.8-16-2.9
		C748.7,295.7,745,295.9,741.9,297.7z"/>
	<path fill="#996A40" d="M715.9,108.4c-5,13.7-14,24.5-25.9,32.8c-1.9,1.3-2.6,2.5-2,4.9c4.2,14.7,7.8,29.6,12.7,44.1
		c7.8,22.8,22.7,41.2,36.6,60.4c0.7,0.9,1.8,1.5,2.9,1.6c6,1.4,9.2,9.8,5.7,15.2c-0.4,0.7-1.1,1.1-1.9,1.2
		c-11.4,1.7-20.8,7.1-29.1,14.9c-3,2.8-3.8,6.2-4.2,9.9c-0.3,2.9,0.1,4.4,3.7,2.9c5.8-2.4,11.9-3,17.8,0.2c2.6,1.4,5.7,1.2,8.1-0.4
		c4.3-2.4,8.5-2.2,13-0.6c4.7,1.7,9.5,2.8,14.5,1.7v-191h-47.4C718.7,106.1,717,105.7,715.9,108.4z"/>
	<path fill="#E5BE91" d="M636.1,1022.8c0.1,0,0.2,0,0.2,0c3.8-3.5,8.5-5.5,12.6-8.4c1.3-0.9,2.8-1.4,3.7-3.1
		c12.7-21.5,1.8-54.4-24-59.8c-10.9-2.2-21.8-4.7-32.8-6.5c-12.5-2.2-25.1-3.5-37.7-0.2c-15.9,4.2-30.1,12.5-44.9,19.2
		c-2.8,1.3-0.9,2.6,0.1,3.7c4.1,4.5,7.3,9.5,8.4,15.6c1.7,9.4-2.5,16.3-11.7,18.4c-18.3,4.1-36.6,8.5-54.8,13.2
		c-11.4,2.9-16-1.3-14.9-13.1c0-0.2-0.3-0.5-0.6-0.9c-4.9,4.3-9.8,8.5-14.5,13c-3.5,3.2-7.7,5.7-10.2,10h219.5
		C634.8,1023.3,635.3,1022.8,636.1,1022.8z"/>
	<path fill="#FFFFFF" d="M759.7,984.4c-11.6,1.7-22.5,5.6-33.3,10c-11.3,4.5-22.8,8.9-35,9.3c-19.8,0.7-36.5,8.5-52.1,19.5
		c0.2,0.2,0.4,0.5,0.5,0.7H768v-40.1C765.2,983.4,762.5,983.9,759.7,984.4z"/>
	<path fill="#5F2708" d="M638.4,347.2c-2.8-0.2-6.6-0.2-7,2.7c-0.2,1.8,4,2,6.7,2.2l0,0c2-0.2,5.6-0.1,5.8-2.2
		C644.1,347.6,640.6,347.4,638.4,347.2z"/>
	<path fill="#F9AF4F" d="M343,315.1c-8.1,3.3-13.1,10.3-12.8,17.9c0.3,8.2,7.2,17.7,14.6,19.9c0.8,0.2,1.5,0.7,2.4-0.6
		c4.1-6,7.5-7.2,14-3.5c4.9,2.8,7.7,0.9,10.7-2.2c3.8-3.9,6-9.1,6.2-14.5c-0.1-4-0.9-7.3-3.4-10C368.4,315.3,351.6,311.6,343,315.1z
		"/>
	<path fill="#6D5B3F" d="M473.5,148.2c-2.7-0.1-3.4,0.8-3.1,3.5c1.2,9.6,2.1,19.2,3.3,28.8c3,23.8,7.3,47.5,1.4,71.4
		c-0.5,1.9-0.5,2.9,2.3,2.5c9.5-1.3,16.8,2.4,22.2,10.3c2.7,4.2,4.9,8.7,6.8,13.3c1.4,3.3,0.4,8.3,3.8,9.7c3.4,1.4,7.5,0.2,11.4,0.4
		c3.4,0.2,3-1.1,1.8-3.4c-4.8-9-7.5-18.9-8-29.1c-0.4-10.6-1.5-21.2-2.4-31.8c-2-23.9-0.5-47.6,2.6-71.2c0.5-3.6-0.8-3.9-3.6-3.8
		c-6.3,0-12.6,0-19,0v-0.6C486.5,148.2,479.9,148.3,473.5,148.2z"/>
	<path fill="#5F2708" d="M351.3,349.7c-1.2,0.6-2,1.8-2.1,3.1c0,1.4,1,2,2.2,2.3l6.7,1.9c2.1,0.2,4.3-0.6,5.8-2.1
		c0.6-0.6,1-1.1,0.3-2.1C362.3,350.2,354.1,348.1,351.3,349.7z"/>
	<path fill="#F9AF4F" d="M624.4,347c0.3,0.2,0.6,0.3,0.9,0.5c1.5,1.1,3.6,1.1,5-0.2c5.1-3.4,10.4-3.1,15.3,0.6
		c1.1,1.1,2.8,1.1,3.9,0c6.6-4.8,10.6-11.1,10.4-19.4c-0.2-7.8-5.6-12-12.1-15c-3.5-1.6-7.3-2.5-11.1-2.5v0.1
		c-2.7-0.1-5.3,0.3-7.9,1c-8.3,2.6-15.1,7.5-16.4,16.3S617.7,342.6,624.4,347z"/>
	<path fill="#9F2F24" d="M427.6,419.1c12.5,0.2,25,0.4,37.5,0.9c3.4,0.1,4.2-1.1,4.1-4.2c-0.2-6.5-0.1-13-0.1-19.5h0.1h0.9
		c0-6.8-0.1-13.7,0.1-20.5c0.1-2.7-0.5-3.8-3.5-3.7c-12.8,0.4-25.7,0.7-38.5,0.9c-2,0-3,0.5-3,2.8c-0.2,13.3-0.5,26.7-0.9,40
		C424,418.5,425.1,419.1,427.6,419.1z"/>
	<path fill="#D57141" d="M410.1,310.5c0-3.5-0.8-4.5-4.4-4.5c-28.2-0.1-56.3-0.4-84.5-0.8c-4.2-0.1-5.2,1.1-5.2,5.2
		c-0.1,31.5-0.4,63-0.7,94.5c-0.1,12.3,0,24.7-0.3,37c-0.1,5.2-0.4,5.2,4.7,5.2h171.4c57.7,0,115.3,0,173,0c3.3,0,5-0.1,5-4.4
		c-0.2-44.2-0.2-88.3,0-132.5c0-3.3-0.9-4.2-4.2-4.2c-22.7,0.4-45.3,0.7-68,0.9c-3.3,0-3.9,1.3-3.7,4.2c0.4,5.8,0.7,11.7,0.7,17.5
		c0.1,14.7,0.4,29.3,3,43.8c0.4,2,2.1,4.7,0.6,6.1c-2,1.9-4-1.4-6.2-1.6c-1.2-0.1-2.2-0.6-3.4-0.8c-5.2-0.8-9.8,1.5-14.6,2.7
		c-5.2,1.3-6.7,0.1-5.9-5.3c1.5-10.4,2-20.9,1.4-31.4c-0.5-9.1-1-18.3-0.7-27.5c0.2-7.7,0.2-7.7-7.4-8c-6.7-0.3-5.5-0.3-5.5,5.5
		c0.3,37.2,0.6,74.3,0.9,111.5c0,2.6-1.2,5.5,1.5,7.8c1,0.8-0.2,1.4-1,1.4c-1.3,0.1-2.7,0.1-4,0.1h-138c-5.6,0-5.6,0-5.5-5.6
		C409.4,388.5,409.7,349.5,410.1,310.5z M375.2,345.9c-3,4.1-7.8,6.4-10.5,10.9c-1,1.8-3.6,2.6-5.8,2.1c-9.3-2-18.7-3.9-25.1-11.8
		c-5.2-6.5-7.5-13.9-4.2-21.9c3.1-8,10.8-13.4,19.4-13.7c8.3-0.4,16.8,1.3,24.1,6.5c4.5,3,7.2,8.1,7.2,13.5
		C380.1,336.7,378.3,341.8,375.2,345.9z M623.2,312.1c3.7-2,7.8-3,12-3c8.2,0,14.7,2.3,20.3,6.9c5.8,4.8,7.8,10.9,5.9,18.3
		c-2.9,11-10.3,17.1-21,19.7c-5.5,1.3-10-1.8-14.6-3.9c-2.4-1.1-4.7-2.5-6.7-4.2C605.8,334.6,607.7,319.8,623.2,312.1z"/>
	<path fill="#4F2B29" d="M509.2,848.2c5.1-3.8,10.6-6.8,16.1-10.1c8.8-5.3,15.8-12.1,19.6-23.2c-2.2,1-3.5,1.5-4.8,2.1
		c-12.4,6-25.4,10.8-38.8,14.3c-21.3,5.5-42.9,9.4-64.5,13.6c-2.8,0.5-4.2,0.9-2.9,4.3c4.3,11.2,4.5,22.3-1.2,33.3
		c-2.8,5.3-1.8,10.7,2,15.4c2.1,2.6,4.5,5.2,5.4,8.3c4.3,14.4,14.2,25.5,21.5,38.1c1.2,2.1,2.5,2.2,4.8,1.9c12.8-1.8,23-9.2,33.9-15
		c0.8-0.6,1.4-1.4,1.7-2.4c4.8-10.8,1.6-22.7-8.1-29.6c-6.4-4.6-7.1-7.8-3.3-14.8c0.7-1.3,1.5-2.6,2.4-3.8c3.2-4.1,5.2-9,5.6-14.2
		C499.1,858.8,502.9,852.9,509.2,848.2z"/>
	<path fill="#EBC693" d="M413.6,575.5c1.3-2.8,0.4-4.7-1.2-6.8c-3.7-5-6.8-10.3-9.8-15.8c-3.2-0.1-6.5,0.1-9.7-0.1
		c4.8,4.1,7,9.7,8.3,15.9c1.9,9.9,5.7,19.4,4.7,30.8c3.1-2.9,5.2-5,7.8-6.3c5.3-2.8,5.3-2.9,1.7-7.9
		C413.2,582.3,412,579,413.6,575.5z"/>
	<path fill="#A8766C" d="M665.2,510c-0.2-2.5-1.3-3.3-3.5-4c-6.7-2.1-13.3-4.3-19.9-6.6c-8.3-3-17.1-4.5-25.9-4.4
		c-85,0.4-170,0.2-254.9,0.2h-6.2c2.2,1.9,3.5,2.8,4.6,4c5.9,6.3,11.4,12.8,8.9,22.5c-0.3,1.5-0.2,3,0.4,4.4c0.6,1.6,1.2,3.7,3,3.6
		c1.8-0.1,1.2-2.4,1.7-3.8c0.3-0.8,0.3-1.6,0.6-2.4c1-3.2,1.9-6.8,5.8-7.3s6.5,2.1,8.4,5.3c1.1,1.9,1.9,3.9,2.5,5.9
		c1.9,6.4,1.9,13.3,0,19.7c-0.4,1.4-0.5,2.4,0,3.4c0.2-0.1,0.5-0.1,0.7-0.1c3.3,0.5,6.7,0.3,10,0.3c-1.8-3.3-3.5-6.7-5.2-10.1
		c-3.9-7.7-4.7-15.6-0.8-23.5c3.8-7.7,9.8-10.5,18.1-8.5c6.9,1.6,12.4,5.6,17.1,10.7c3.1,3.3,5.1,7.4,8,11.7
		c1.5-3.3,0.3-5.9,0.1-8.4c-0.2-2.2-0.7-4.4,1.7-5.7c2.4-1.4,5.4-1.1,7.4,0.8c1.9,1.7,3.3,3.7,4.3,6.1c2.2,4.5,3.9,9.2,4.9,14.1
		c0.2,0.9,0.3,3.1,1.7,2c2.3-1.8,5.6-4.3,5.7-6.6c0.1-6.5,3.6-11.7,5-17.6c1.7-7.2,6.1-11.2,12.6-13.5c4.6-1.6,9.4-2.2,14.3-2
		c10.9,0.3,21.7,0.8,32.6,1c12.1,0.3,21.5,5.5,28.2,15.4c1.8,2.6,3.5,3.7,6.8,3.7c30.5,0,61,0.3,91.5,0.4
		C666.2,520.8,666.1,520.7,665.2,510z"/>
	<path fill="#7F4D43" d="M303.2,447.1c2.2-0.1,4.3-0.1,6.5,0c1.3,0,2.5-0.3,2.2-1.9c-0.6-4,1.1-7.8,1.1-11.8
		c0.3-39.3,0.6-78.6,0.9-117.9c0.1-10.6,0.1-10.4-10.3-10.6c-3.7-0.1-4.7,0.9-4.7,4.6c0.2,22.1,0.1,44.2,0.1,66.4v45
		c0,7.3,0.2,14.7-0.1,22C298.9,446.4,300,447.4,303.2,447.1z"/>
	<path fill="#FB8729" d="M163.1,819c0-5.5-0.2-11,0.1-16.4c0.1-2.8-1.1-4.2-3.4-5.4c-5.1-2.5-11.1-2.9-16.4-0.9
		c-8.3,2.8-9.3,4.2-8.7,13c0.7,9.2,0.7,9.2,10.1,9.7c0.7,0,1.3,0,2,0.1s1.3,0.3,1.2,1.2c-0.6,5.5,2.5,10.5,2.2,16
		c-0.2,5.2,0.3,5.5,5.6,4.7c1-0.2,1.9-0.5,2.9-0.7c3.3-0.5,4.7-2.1,4.5-5.7C162.8,829.3,163.1,824.2,163.1,819z"/>
	<path fill="#DA5417" d="M327.5,284.4c2.5-3.4,0.6-6.4-0.9-9.6c-6.2-12.4-9.5-26.1-9.5-39.9c-0.1-8.7,2.1-17,4.8-25.7
		C297.1,228.2,301.6,267.1,327.5,284.4z"/>
	<path fill="#6D5B3F" d="M413.7,286.2L413.7,286.2l0.4,1.8c13.2,0,26.3-0.1,39.5,0.1c3.6,0.1,2.9-1.7,2.3-3.7
		c-2-7-0.1-13.1,3.7-18.9c2.5-4,6-7.2,10.1-9.5c2.1-1,3.5-3.1,3.8-5.4c1.6-7.8,2.5-15.8,2.6-23.8c-0.1-25.4-5.9-50.2-7.6-75.5
		c-0.2-2.8-1.6-3.1-3.9-3.1c-8.7,0-17.3,0.1-26-0.2c-3.2-0.1-3.9,1-3.7,4c0.5,8,1,16,1.1,24c0.4,21.2,0.5,42.3-3.7,63.2
		C428.9,255.9,423.1,271.8,413.7,286.2z"/>
	<path fill="#FFFFFF" d="M263.2,269.5c-1.6,1.6-3.2,3.7-1.1,6.1c1.9,2.2,4.2,1.5,6.4,0.5c5.3-2.4,10.6-4.8,15.8-7.4
		c2.9-1.4,5.1-3.7,7.3-5.9c10.4-10.6,11.9-24.4,14.4-38.6c-0.5-4.8-2.5-9.3-7.5-12c-4-2.1-5.8-1.2-5.5,3.2
		c0.8,11.6-3.8,21.2-11,29.6C275.4,252.9,270.7,262.3,263.2,269.5z"/>
	<path fill="#E18E75" d="M209,379.4c6-1.2,12.2-1.6,18.4-1.3c5.9,0.3,11.5-1.1,16.1-5.2c1.8-1.6,2.4-0.8,3,1.4
		c2,7.7,6,14.5,10.5,21.1c0-21-0.1-41.9,0.1-62.9c0-3.5-1.6-3.6-4.2-3.6c-23.6,0.1-47.3,0.1-70.9,0c-4.4,0-4.1,1.5-2.8,4.5
		c6.8,15.5,15.3,30.3,25.2,44.1C205.4,379.2,207.3,380,209,379.4z"/>
	<path fill="#32333A" d="M292.9,145.1c48-0.2,95.9-0.2,143.9-0.1v0.7c48.1,0.6,96.3,1.2,144.4,1.8c3.4,0,5-0.4,5.2-4.4
		c0.2-3.8-0.9-5-4.5-5.2c-3.7-0.2-7.8-0.5-11.1-1.9c-8-3.4-16.5-3.8-24.8-3.9c-83.9-0.5-167.9,0.1-251.8,1.8c-7,0.1-5.6-0.9-6.1,6.2
		C287.6,144.3,289.1,145.2,292.9,145.1z"/>
	<path fill="#D9D2CD" d="M596.6,577.4c-11,2.2-19.8,10.5-20.6,25.3c-1.3,8.1,4,12.4,10.2,14.4c8.8,2.8,18.7-1,24.5-10.1
		c6.2-9.8,5.5-16.2-0.2-24.9C607.2,577.1,602.1,576.3,596.6,577.4z"/>
	<path fill="#E48B39" d="M205.6,238.1c-19.9-6-39.7-4.9-59.5,0.7c-3.4,1-3.5,2.3-2.5,5.3c3.2,8.7,6.2,17.5,9.2,26.3
		c2.4,6.8,2.4,6.8,9.3,4.7c19.3-6,38.7-12,58-18.1c1.5-0.5,4-0.2,3.8-3.3c-0.8-2.6-2.2-5-3.9-7.1
		C216.2,242.1,211.1,239.7,205.6,238.1z"/>
	<path fill="#3B3F4B" d="M681.5,146.1c-7.3,2.6-12.8,9.2-21,9.7c-3,0.2-3.3,1.5-3.1,4.2c2.6,29.1,10,56.9,20.4,84.1
		c5.8,15.2,13.6,29.2,24.5,41.5c3.2,3.6,5.4,3.5,8.4-0.2c4.4-5.7,10.1-10.2,16.6-13.3c3.8-1.8,7.6-3.5,11.5-4.8
		c2.6-0.9,2.2-1.8,0.7-3.4c-4.3-4.7-7-4.9-11.9-0.7c-2.9,2.5-5.5,5.4-9.5,6.1c-3.8,0.7-7.4,1.9-10.8,3.8c-1.1,0.6-2.3,1.7-3.6,0.5
		c-1-0.9-0.6-2.2-0.3-3.3c1.8-5.9,3.2-11.9,6-17.5c5-10.3,14.5-12,23.1-4c0-0.6,0.1-0.8,0.1-0.9c-1.3-1.9-2.7-3.8-4-5.7
		c-11.4-15.8-22.8-31.6-29.3-50.3c-5-14.1-8.6-28.7-12.4-43.1C685.9,145.2,684.9,144.9,681.5,146.1z"/>
	<path fill="#876732" d="M228.6,270.9c10,2.5,18.2,8.1,25.8,14.6c1.9,1.8,4.5,2.7,7.1,2.6c20.2-0.1,40.3,0,60.5-0.1
		c1.4,0,2.9,0.4,4.5-0.7c-12-10-20-22.2-23.2-37.5c-0.7,0.4-1.1,0.5-1.2,0.7c-6.1,15.1-19,22-33,27.6c-3.3,1.3-6.6,1.8-9-1.5
		s-0.8-6.3,1.5-8.5c7-6.6,11-15.4,17.3-22.5c7.6-8.7,12.8-18.5,11.9-30.8c-0.4-5.1,2.7-6.8,7.5-4.8c5,2.1,7.5,6.3,9.7,12.1
		c4.6-8.3,10.1-14.5,17.8-18.3c14.2-6.9,28.7-10.7,44.6-4.9c7.2,2.6,14.7,4.2,21.1,8.6c3.4,2.3,3.8,0.7,4-2.1c0.1-1.3,0.2-2.7,0.3-4
		c1.2-15.8,2.3-31.6,3.5-47.3c0.5-6.3,0.6-6.3-5.7-6.4c-33.8-0.2-67.7-0.3-101.5-0.7c-4.1,0-5,1.4-5.3,5
		c-0.9,11.6-3.2,23.1-6.7,34.2c-9.8,31.7-28.4,57.7-52.4,80.2C225.3,268.9,225.3,270,228.6,270.9z"/>
	<path fill="#711A12" d="M263.5,409.4c1.7,2.4,2.5,5.4,3.6,8.2c1.6,4,3.4,8.1,6.6,11.1c9.4,8.7,17.4,18.4,22.3,30.2
		c0.1,0.1,0.3,0.1,0.8,0.3c0.1-0.3,0.1-0.5,0.2-0.8c0-55,0-109.9,0.1-164.9c0-3-1.1-3.6-3.8-3.5c-10,0.1-20,0-30,0.1
		c-5.3,0-5.4,0-5.3,5.5c1,31.3,1.3,62.6,0.8,93.9C258.8,396.6,259.1,403.3,263.5,409.4z"/>
	<path fill="#FEFEFE" d="M570.4,585.1c-0.2,1-0.3,2-0.2,3c0.3,2.6,2.2,4.7,4.7,5.3c1.6,0.4,1.6-2.4,2.3-3.8
		c6.6-13.5,23-18.3,35.1-9.6c-2.5-5.8-6.8-10.7-9.9-11.9C590.1,563.4,573.2,572.4,570.4,585.1z"/>
	<path fill="#CC8988" d="M665.4,522.8c-33.3-0.2-66.6-0.4-99.8-0.6c-1.2,0-2.6-0.6-3.7,0.7c1.4,2.6,3.9,4.2,5.6,6.4
		c2.5,3.3,5.6,4.1,9.5,3.9c8.3-0.3,16.6-0.1,25-0.1h91.3c0.1-0.3,0.1-0.6,0.2-0.8c-8-3-16.1-6.1-24.2-9
		C668.1,522.8,666.8,522.7,665.4,522.8z"/>
	<path fill="#FFFFFF" d="M728.5,247.8c-2.7-3-6-3.3-9.5-1.6s-6.4,4.1-8,7.9c-2.3,5.7-4.2,11.5-5.7,17.4v0.1c4-1.5,6.8-3.2,10.2-3.7
		c3.5-0.6,6.6-2.2,9.1-4.7c7.5-6.8,9.8-6.8,17.1,0.1c0.4,0.5,0.9,1,1.4,1.4c0.4,0.4,1,0.4,1.4,0c0.1-0.1,0.2-0.2,0.2-0.3
		c1.7-2.8-0.8-9.8-4-9.8C735.3,254.4,731.8,251.4,728.5,247.8z"/>
	<path fill="#EA590A" d="M568.3,533.7c-10.6-7.1-22.4-9-34.8-8.3c-0.6,0-1.3,0.2-1.8,0.6c-0.7,0.9,0.3,1.5,0.9,2
		c12.7,11.1,20.5,25.6,28.4,40.1c2.4,4.6,5.2,9.1,8.4,13.2c3.7-6.7,8.6-11.8,15.4-14.6c2.2-0.9,1.4-2,0.7-3.4
		c-3.5-6.8-6.8-13.7-10.4-20.5C573.4,539.3,571.6,535.9,568.3,533.7z"/>
	<path fill="#942F07" d="M91.2,268.8c4.2-5,9.1-9.3,14.5-12.9c19.5-12.4,40.1-21.9,63.5-23.4c19.1-1.2,37.8-0.2,53.5,13.1
		c-2.4-12.2-11.9-21.7-25.4-24.5c-23.7-4.7-46.8-1.4-69.3,6.3c-12.9,4.4-23.3,13.4-34.3,21.2c-11.5,8.2-16.7,25.4-12,40.3
		C82.8,280.3,86.6,274.3,91.2,268.8z"/>
	<path fill="#916056" d="M573.6,535.6L573.6,535.6c1.7,2.9,3.2,5.8,4.6,8.8c1.4,3.5,3.3,4.8,7.4,4.7c35.2-0.5,70.3-0.8,105.5-1
		c8-0.1,7.7,0,8-7.8c0.2-4-0.8-5.3-5.1-5.3c-38.7,0.2-77.3,0.1-116,0.1C576.7,535.1,575.1,534.6,573.6,535.6z"/>
	<path fill="#7F4D43" d="M713.5,462.2c6.9,0,13.8,0,21.5,0l-22.5-17.1c-1.4-1.1-2.4-1.2-2.3,1.1c0.2,4.5,0.4,9,0.5,13.5
		C710.7,461.7,711.7,462.2,713.5,462.2z"/>
	<path fill="#711A12" d="M706.8,290.2c-3.2,0.3-6.1-1.3-9.3-1.2c-7.1,0.2-14.2,0.3-21.3,0c-4.2-0.2-5.2,1-5.2,5.2
		c0.1,27.1,0,54.3,0,81.4c0,27.3,0.1,54.6-0.1,82c0,3.8,1,4.7,4.8,4.6c9.3-0.3,18.7-0.3,28,0c4.4,0.1,5.1-1.3,5-5.4
		c-1.3-30.5-0.7-61,1-91.4c1.3-24.2-1-48.3-0.9-72.4C708.8,291.6,708.7,290,706.8,290.2z"/>
	<path fill="#7F4D43" d="M606.1,464.8l-8.2-0.1c0,0.4-0.1,0.8-0.2,1.1c8.9,3.8,17.5,8.3,26.9,11.1c2.1,0.6,2.4,0.3,1.5,2.8
		c-1.3,3.5,0,7.5,1,11.2c0.8,2.7,3.8,2.4,5.8,3.1c10.8,3.7,21.7,7.3,32.6,11c1.2,0.4,4,0.5,2.8,2.3c-2.2,3.3-0.2,6.4-0.5,9.6
		s1.1,4,4.1,4c20.7,0,41.3,0.1,61.9,0.3c2.2,0,3.2-0.5,3.2-3c-0.1-16.7-0.1-33.3,0-49.9c0-2.4-0.8-3.1-3.2-3.2
		c-6.3-0.1-12.6-0.6-19-0.7C678.7,463.7,642.4,464.7,606.1,464.8z"/>
	<path fill="#FDC07C" d="M400,830.4c-0.2-14.2-1-28.3-2.7-42.4c-1.2-10.6-2.2-21.1-0.5-31.8c1.8-10.7,2.5-21.5,2.1-32.4
		c-0.1-2.5-0.4-4.1-3.8-3.1c-4.7,1.3-8.8-0.5-12.2-3.9c-4-4-6.9-8.9-10.3-14.3c-5.8,14.4-7.2,28.9-8.2,43.5
		c-1.6,24.9-0.1,49.3,11.3,72.1c1.1,2.1,2,4.2,4,5.5c5.2,3.5,10.7,6.7,16.5,9.4C399.5,834.6,400.1,833.7,400,830.4z"/>
	<path fill="#FB8729" d="M370.7,697.4c-2.1-5.8-4.7-11.3-7.8-16.7c-1.7-3-2.7-2.4-4.3,0c-4.5,6.9-6.6,14.5-6.6,23.5
		c0.7,8.2,2.2,17.2,2.3,26.4c0.1,1,0.3,2,0.7,2.9c0.9,2.5,2.7,3.6,5.4,3.4c3-0.2,2.7-2.4,2.9-4.3c1.2-10.6,3.6-20.9,7.2-30.9
		C371.2,700.4,371.3,698.8,370.7,697.4z"/>
	<path fill="#FCD3AB" d="M373,697.3c2.5,6.7,6.4,12.9,11.5,18c3,3.1,6.5,4.4,10.9,3.4c2.2-0.5,2.9-1.4,2.2-3.9
		c-2-6.7-5.3-13-9.6-18.5c-4.3-5.7-8.1-11.8-11.3-18.2c-7.2-14.1-13.7-28.5-19.5-43.2c-3.9-9.7-7-19.6-10.3-29.6
		c-7.2,7-8.7,14.9-3.9,23.2c3.6,6.4,6.3,13.2,8.1,20.3c2.4,9.7,6.4,18.9,11.7,27.4C366.8,682.9,370.3,690,373,697.3z"/>
	<path fill="#FFFDFC" d="M361.7,593.5c14.4-3.8,27.3-0.3,38.7,9.2c0.8,0.7,1.5,2.3,2.7,1.8s0.9-2,0.9-3.2c0.2-4.7,0-9.3-0.4-14
		c-0.7-6.3-3.4-12.2-4.4-18.4c-1.8-11.1-8.8-18.8-19.9-20.9c-17.6-3.4-32,2.5-43.7,15.9c-7.4,8.5-9.3,18.1-5.7,28.8
		c2.6,7.7,5.2,15.5,8,24l0,0C342,604.1,349.9,596.6,361.7,593.5z"/>
	<path fill="#F5641D" d="M332,565.1c14.3-18.2,32-23.8,53.8-16.9c2.3,0.7,2.6-0.4,2.9-1.8c1.5-5.3,1.6-10.9,0.4-16.3
		c-0.8-3.6-1.8-7.1-4.5-9.8c-3.5-3.4-6.1-2.9-7.9,1.5c-0.7,2.2-1.3,4.4-1.8,6.7c-0.4,1.5-0.9,3-2.6,3.4c-1.9,0.5-3.1-0.9-4.1-2.2
		c-2-2.5-2.7-5.9-2-9c1.5-5.6-0.6-10.1-3.5-14.5c-3.3-4.8-8.7-6.3-14-3.4c-7.2,4.2-15,7.2-23.2,8.9c-1.7,0.3-2.6,0.8-2.6,2.8
		c0,17.5,1.4,34.9,7.7,52.7C331.5,565.9,331.7,565.5,332,565.1z"/>
	<path fill="#4F2F1F" d="M503,954.2c-5.2,2.9-10.5,5.7-15.7,8.7c-4.4,2.6-8.9,4.6-14,4.8c-6.9,0.3-12.8,3.1-19,5.6
		c0.1,0.4,0.3,0.7,0.5,1c1.6,1.7,3.1,3.5,4.7,5.2c3.7,4,3.5,5.8-1.1,8.6c-2.7,1.7-5.4,3.2-8.1,4.9c-2.5,1.4-4.6,3.4-6.2,5.7
		c-2.4,3.9-3.1,8.2-0.7,12.3c2.2,3.6,5.9,3.5,9.4,2.5c19.2-5,38.4-9.5,57.7-13.9c6.5-1.5,9.6-6.2,9.4-12.9
		c-0.3-5.9-2.7-11.5-6.7-15.7c-4-4.4-7.2-9.2-7.4-15.4C505.8,953.3,504.7,953.2,503,954.2z"/>
	<path fill="#925F38" d="M441.5,950.7c4.5-1.4,9.2-0.4,13.8-1.7c5.7-1.6,5.8-1.3,2.7-6.2c-7.4-11.8-16.2-22.8-20.4-36.5
		c-0.7-2.1-2.3-4.1-3.8-5.8c-5.6-6.5-6.2-13.4-2.3-20.8c5.2-10,3.7-20,0.3-30c-0.6-1.7-1.3-2.9-3.5-2.6c-4.8,0.5-8.8-1.6-12.5-4.1
		s-8-4.2-12.4-4.9c-1.5-0.3-3-0.8-4.4-1.5c-6-2.7-11.9-5.8-17.6-9.2c0.5,9,1.8,18,3.8,26.8c8,36.4,24.9,67.9,52,93.7
		C438.3,949.1,439.3,951.3,441.5,950.7z"/>
	<path fill="#FFFFFF" d="M475.7,965.3c1.8-0.1,3.6-0.6,5.3-1.4c8.3-4.5,16.6-9,24.9-13.7c3.8-2.2,5.2-6,5.2-10.2
		c0-4.4-2.3-6.8-6.8-6.9c-4.4-0.2-8,1.8-11.4,4.3c-13.3,10.2-29.6,10.9-42.8,14.6c-8.2,0-10.8,2.9-9.8,8.5
		c1.3,7.4,9.3,12.3,16.2,9.6C462.6,967.6,469,965.9,475.7,965.3z"/>
	<path fill="#E48B39" d="M174.8,307.5c16.6-6.2,31.7-14.6,43.3-28.3c4.3-4.9,6.8-11.2,6.9-17.8c0.1-2.8-0.4-3.8-3.6-2.8
		c-10.2,3.4-20.6,6.4-30.9,9.6c-10.5,3.3-21,6.6-31.8,10c9.5,6.2,11.7,10.1,12.5,21.5c0.1,2,0.6,3.9,0.8,5.9
		C172.1,307.8,172.9,308.3,174.8,307.5z"/>
	<path fill="#E48B39" d="M170.1,307c-1.3-5-0.6-10.3-2.1-15.3c-1.4-4.7-4-8.4-8.6-10.3c-1.8-0.8-2.6-0.1-2,1.8
		c2.9,8.3,5.8,16.6,8.7,25c0.4,1.3,1,2.1,2.5,1.6c1.2-0.3,1.9-1.4,1.6-2.6C170.1,307.1,170.1,307.1,170.1,307z"/>
	<path fill="#E48B39" d="M154.9,282.6c-0.6-1.8-1.3-2.7-3.6-2c-20.3,6.4-40.6,12.8-60.9,19c-2.9,0.9-2.5,1.9-0.8,3.6
		c3.4,3.3,7.6,5.3,12,6.9c11.6,4.3,23.8,4.3,35.9,4.9c8.1,0.7,15.9-0.9,23.7-3c2.2-0.6,3.6-1.2,2.6-4
		C160.7,299.6,157.8,291.1,154.9,282.6z"/>
	<path fill="#E48B39" d="M150.2,278.9c2.5-0.8,2.9-1.8,2-4.3c-3.6-10-7.2-20-10.4-30.2c-1.1-3.4-2.5-3.5-5.4-2.3
		c-10.2,4.2-19.9,9.3-29.2,15.2c-7.8,4.9-14.3,11.6-19.2,19.4c-2.6,4-3.9,8.6-3.9,13.3c-0.1,1.3,0.6,3,0.8,4.8
		c0.5,3.1,1.8,3.8,4.8,2.9C109.8,291.4,130,285.1,150.2,278.9z"/>
	<path fill="#946258" d="M321.1,515.2c0-1.1,0.3-2.3-1.1-3c-4.3-2.1-10.3-0.1-12,4.4c-1.8,4.9-5.2,7.9-9.8,10
		c-3.8,1.8-8,3.3-10.3,7.4c-0.9,1.5-2.2,0.8-3.5,0.4c-5.6-1.7-11-3.8-16.2-6.2c0.3,6.3,0.7,12,0.9,17.6c0.1,1.7,0.8,2.3,2.4,2.3
		c16.5,0.6,33,1.2,49.5,1.8c2.3,0.1,2.8-0.6,2.4-2.9C321.6,536.5,320.9,525.8,321.1,515.2z"/>
	<path fill="#E16C29" d="M290.1,528.9c2.1-2,5-3.2,7.8-4.4c3.7-1.6,6.6-4.6,8-8.4c2.2-5.6,4.1-6.8,9.8-6.2
		c10.5,1.2,19.6-2.5,29.7-7.6c-2.3-0.5-3.4-0.9-4.5-1c-10.8-1.6-20.3-6.3-27.2-14.5c-8.2-9.6-16-19.7-21.6-31
		c-4-7.9-8.6-14.9-15.2-20.8c-4.1-3.7-7.9-7.8-10-13c-5.8-15.1-15.5-28.3-21.3-43.4c-0.9-2.3-1.9-2.6-4-1.5
		c-4.8,2.6-10,3.4-15.5,3.3c-15.5-0.3-30.4,3.3-45.3,6.8c-3,0.7-2.7,1.9-1.3,4.1c5.9,8.9,11,18.2,15.5,27.9
		c5.6,11.8,13.4,21.4,24.5,28.4c2.4,1.5,4.7,3.2,6.9,4.9c15.5,11.6,23.5,27.3,24.8,46.4c0.7,9.8,4.6,17.5,12.3,23.5
		c4.5,3.5,9.6,5.8,14.9,8C282.7,532.1,286.3,532.5,290.1,528.9z"/>
	<path fill="#946258" d="M239.3,469c-1.4-2.4-2.4-6.6-6-5.6c-4,1.2-3,5.5-2.7,8.6c1.1,12.6,1.1,25.3-0.2,37.9
		c-0.2,2.7-0.3,5.3-0.1,8c0.1,2.2,0.9,3.7,3.4,1.8c2.7-2.1,5.9-2,9.1-2.1c4.7,0,9.2,1.1,15.2,2.1l0,0c-5.9-6.3-8.6-12.7-8.6-19.9
		C249.3,488.5,244.9,478.6,239.3,469z"/>
	<path fill="#3B3F4B" d="M585.6,180c1.5-0.1,3,0,4.5,0.2c1.1,0.2,2.1,0.7,1.5,2.4c-3.6,10.2-3.1,20.8-3,32l0,0
		c1.4-2.9,3.1-3.5,5.7-2.3c3.1,1.5,4,0.3,3.9-2.9c-0.4-8.5,2.2-16.3,5.9-23.9c1.7-3.5,3.5-5.6,7.8-4.4c2,0.6,4.4,1.2,5.5-2.2
		c2.6-8.1,4.4-16.4,5.4-24.8c0.2-1.7-0.4-2.5-2-3.4c-3-1.8-5.9-0.7-8.9-0.7c-6.8,0.1-13.6,0-20.5-0.2c-2.3-0.1-3.8,0.3-4.1,3
		c-0.9,8.1-2.3,16.1-4.1,24.1C582.8,178.8,583.3,180,585.6,180z"/>
	<path fill="#B6661F" d="M216.7,327c12,0,24-0.1,36,0.1c3.6,0.1,4.5-1.1,4.3-4.5c-0.5-10.2-0.6-20.3-0.9-30.5c0.1-1.5-0.4-3-1.6-4
		c-6.8-5.7-13.8-11.1-22.2-14c-6.5-2.3-6.4-2.2-10.4,3.5c-1.9,2.7-4.1,5.2-6.5,7.6c-9,9.1-19.8,15.6-31.4,20.9
		c-3.7,1.6-9.4,1.6-10.5,5.4c-1,3.5,1.7,7.9,2.4,12c0.5,2.9,2,3.6,4.8,3.6C192.7,326.9,204.7,327,216.7,327z"/>
	<path fill="#CC8988" d="M303.2,463.1c26.6,0,53.2,0,79.8,0c92.8-0.2,185.6,0.3,278.3-0.8c7.7-0.1,7.8-0.1,7.7-7.6
		c0-6.3,0.7-5.5-5.6-5.5c-59.8,0-119.6-0.1-179.4-0.1H307.1c-7.9,0-7.9,0-8,8.1c0,0.5,0.2,1.1,0,1.5
		C296.3,464.1,300.4,463,303.2,463.1z"/>
	<path fill="#CC8988" d="M586.2,464.8c-61.5,0.1-123,0.6-184.5,0c-18.1-0.2-35,2.4-51.1,10.3c-0.9,0.4-2.2,0.4-2.4,1.9h267.5
		l0.1-0.8c-8.2-3.6-16.5-7.1-24.7-10.7C589.6,464.8,587.9,464.6,586.2,464.8z"/>
	<path fill="#F9AF4E" d="M359.6,198.2c-10.5-0.5-21,1.6-30.5,6.2c-2.4,1.1-4.3,3.1-5.2,5.7c-3.3,8.6-4.9,17.7-4.9,27
		c0.4,13.1,3.7,26,9.7,37.7c0.6,1.1,0.7,3.4,2.9,2.6c3.7-1.4,7.5-1.1,11.3-1.1c2.6,0,3-0.9,2.6-3.2c-0.8-5.6-0.8-11.3,0-16.9
		c2.6-18.2,10.2-34.6,18.1-50.9C366.1,200.2,365.1,198.4,359.6,198.2z"/>
	<path fill="#C8C5C1" d="M562.5,527.5c-2.7-3.3-4.8-6.9-7.1-10.3c-4.1-6.1-10.2-10.7-17.3-12.8c-8.4-2.7-17.1-1.2-25.5-0.6
		c-7.6,0.5-15.1,3.9-22.1,7.4c-12.8,6.4-20.5,16.8-23.4,30.6c-2.6,12.4-2.6,25.1-2.8,37.8c-0.1,5.9-1.8,10.7-6.1,14.7
		c-1.6,1.5-3.1,3-4.5,4.7c-5.9,7.4-6.3,16.5-0.9,24c3,4.1,6.4,8.3,12,7.8s7.5-5.6,9.2-10.1c4.7-12.3,7.7-25.2,9-38.2
		c1.3-12.6,3.3-25,9-36.6c4.7-9.6,11.7-16.3,22.3-19.2C530.5,522.2,546.4,521.5,562.5,527.5z"/>
	<path fill="#916056" d="M348.1,479c-1.3,0-2.7,0-4,0c-1.1,0-1.7,0.4-1.9,1.7c-1.6,8.9,1,12.1,10.1,12.2h268.4
		c2.7,0,3.8-1.5,3.7-4.1c-0.1-1.3-0.3-2.7-0.4-4c-0.7-5.9-0.7-5.9-6.4-5.9H483.1L348.1,479L348.1,479z"/>
	<path fill="#FB893A" d="M566.9,581.7c-5.6-8.7-10.5-17.8-15.5-26.8c-5.7-10.2-13.1-19.3-21.8-27.1c-1.2-1.3-3-2-4.8-1.7
		c-15.9,2.3-27.7,9.7-33.1,25.6c-1.4,4.1-2.7,8.2-3.8,12.4c-0.8,2-0.2,4.3,1.4,5.8c6.5,6.7,12.9,13.5,19.3,20.3
		c15.6,16.5,35.1,23.4,57.9,23.8c2-0.1,4.7-0.2,7.3-0.4c1.1-0.1,2.5-0.4,1.5-2.1c-2-3.6-1.4-7.4-1.2-11.2c0.1-2.2,0.1-4.4-1.9-5.9
		c-3.1-2.3-4.6-5.2-4-9C568.4,583.9,567.6,582.8,566.9,581.7z"/>
	<path fill="#F5641D" d="M353.4,499.8c1-0.1,2.7-0.1,1.3-1.9c-3.9-4.8-14.4-4.9-19.4-0.3C341.2,499.9,347.2,500.2,353.4,499.8z"/>
	<path fill="#7F4D43" d="M322.9,492.1c4.7,3.1,9.2,6.1,15.1,1.4c2.2-1.7,3.2-2.8,2.8-5.3c-0.2-1.3-0.3-2.6-0.4-4
		c-0.6-7-0.6-7.1,6-9.7c7.2-2.9,14.4-5.7,21.6-8.5l-0.2-0.6h-67.2c3.7,5.5,7.1,10.6,10.6,15.6C314.4,485.4,318.3,489.2,322.9,492.1z
		"/>
	<path fill="#7F4D43" d="M312,290c-1.5,0.1-3,0-4.5,0c-8.4,0-8.2,0-8.4,8.3c-0.1,3.7,0.8,4.8,4.6,4.8c16.7-0.2,33.5-0.1,50.3-0.1
		v0.9c15,0,29.9,0,44.9,0c12.1,0,12.7-0.6,11.1-12.6c-0.1-1,0-2.2-1.4-2.2c-3.8,0-8.2-1.5-11.3,0.5c-8.2,5.1-17,8-26.2,10.5
		c-10.6,3-21.3,4-30-2.5C332.1,290.8,322.6,289.1,312,290z"/>
	<path fill="#6D5939" d="M429,147.9c-7.7,0.1-15.3,0.2-23-0.2c-3.5-0.2-4.1,1.2-4.2,4.2c-1.2,18.8-2.4,37.5-4.4,56.2
		c-0.3,2.3,0.6,3.7,2.2,5.1c6.8,6.1,12.2,13.7,15.8,22.2c7,16.6,4.2,31.5-7.7,44.8c-1.8,2.1-3.8,4.1-6.2,6.5l0,0
		c11.4,0.3,8.6,1.5,13.6-6.7c6.8-11.1,11.2-23.3,14.1-36.1c7-30.7,5.1-61.8,3.8-92.9C432.7,148.4,431.4,147.8,429,147.9z"/>
	<path fill="#404450" d="M549,149.1c-8.6,0.2-17.3,0.2-25.9-0.2c-4.1-0.2-5.5,1.2-5.9,5.1c-1.3,11.7-2.5,23.5-2.9,35.3
		c-0.4,12.1-0.6,24.2,1.2,37.2l0,0c7.1-6.5,15.5-6.1,23.8-6.3c2.6-0.2,5.3-0.6,7.9-1.2c2.9-0.5,4-2,3.9-5.1
		c-0.3-20.1,0.3-40.2,1.8-60.3C553.1,150.2,552.5,149,549,149.1z"/>
	<path fill="#DA5417" d="M385.6,268.7c-4.5,5.8-8.8,11.7-13.2,17.6c-1.1,1.5-1.2,9.5,0,10.3c2,1.4,4.1,0,6.1-0.5
		c12-3.3,22.6-10.4,30.2-20.3c12.9-16.4,9.9-42.3-6.8-56.2c0.4,6.7,0,13.5-1.3,20.1C398.3,250.7,392.4,259.9,385.6,268.7z"/>
	<path fill="#DA5417" d="M395.2,212.1c-4.2-2.4-4.2-2.9-4.8,2.1c-1.9,13.7-6.3,26.9-12.9,39c-4.6,8.3-9.1,16.6-13.8,24.8
		c-1.4,2.4-1.4,3.8,1.1,5.1c0.7,0.4,1.4,0.9,1.9,1.5c1.8,2.1,3.1,2.1,4.8-0.4c5.8-8.1,11.9-16,17.7-24.1
		c7.3-10.1,11.1-22.4,10.8-34.8l0,0C399.8,220.3,400.7,215.3,395.2,212.1z"/>
	<path fill="#F9AF4E" d="M372.4,201.5c-3.2-0.8-4.8-0.1-6.2,2.8c-5.3,10.7-10,21.7-14,33c-2.9,8.7-5.1,17.6-5.1,26.9
		c0,10.8,0,10.6,9,14.4c3,1.2,4.5,1.1,6.1-2c4-7.7,8.4-15.1,12.6-22.7c5.3-9.5,9.2-19.6,11.7-30.1
		C390.2,207.3,389.1,205.5,372.4,201.5z"/>
	<path fill="#5F2708" d="M334.5,285.8c-1.2,0.2-3-0.1-3.2,1.7c-0.1,1.4,1.2,2.3,2.3,3.1c7.4,5.4,15,10.6,24.9,9.5c1.3,0,2.7,0.1,4,0
		s3,0.7,3.7-0.6c0.8-1.5-0.8-2.8-1.8-3.8C356.1,287.2,346,284.1,334.5,285.8z"/>
	<path fill="#5F2708" d="M369.1,297.5c1.3-0.3,0.8-1.6,1-2.6c-0.2-3.4-1.8-6.5-4.5-8.5c-8.9-7.4-19.2-9.5-30.4-8.1
		c-1.5,0-2.9,0.8-3.8,2c-0.6,1-1.5,2.1-1,3.2c0.7,1.4,2.1,0.4,3.1,0.2c13.5-1.9,25,1.5,33.8,12.3
		C367.8,296.7,368.1,297.8,369.1,297.5z"/>
	<path fill="#3B3F4B" d="M581.3,149.5c-7.5,0.1-15,0-22.4-0.4c-3.1-0.1-3.9,0.9-4,3.9c-0.4,10.8-1,21.6-1.8,35.6
		c0,5.9,0,15.1,0,24.2c0,1-1,3,1.4,2.9c2.8-0.1,9.5-6.7,9.8-9.6c0.7-7.1,1.9-14.2,3.6-21.1c0.7-2.5,0.5-5.8,2.7-7.2
		c1.2-0.8,4,0.6,6,1.1c3,0.7,4.5-0.2,4.9-3.5c1-7.1,2.3-14.1,3.6-21.1C585.7,151,585.1,149.5,581.3,149.5z"/>
	<path fill="#22100F" d="M571.4,842.4c-6.6,0.8-12,4.8-13.6,11.4c-1.8,7.9-4.7,16-5,23.8c-0.7,17.9,1.8,23.3,17.7,19.5
		c1.4-0.3,2.9-0.5,3.8-2c1.1-1.9,3.1-0.8,3.8-0.2c1.6,1.4-0.6,1.6-1.2,2.3c-1.2,1.3-0.7,2.8-0.4,4.2c1.3,6.9,5.2,11.9,12.2,15.4h0.1
		c-0.8-7.1-1.7-13.5-1.7-20c0.3-15.7,2.5-31.2,6.5-46.3c0.8-3.1,0.6-4.5-3.1-4.7c-4.5-0.2-8.9-1.4-13.4-1.4
		C574.8,844.4,573.8,842.1,571.4,842.4z"/>
	<path fill="#4F2F1F" d="M590.4,914c0.7,4.8,4.2,6.4,8.6,4.1c1.9-1.1,3.5-2.6,4.6-4.5c2.8-3.9,4.7-8.5,5.4-13.3
		c2.1-15,0.2-29.9-2.4-44.6c-0.6-3.5-3-6.5-6.3-7.8c-2.9-1.2-4-0.8-4.8,2.4c-3.6,14.9-6.2,30-6.5,45.3
		C588.9,901.8,589.4,907.9,590.4,914z"/>
	<path fill="#FCBF78" d="M402.4,607.9c-11.1-14.3-35.3-18.1-50.2-8.1c-2.9,2-3.7,3.9-2.6,7.4c8,26,18.9,50.8,31.5,74.8
		c1.9,3.5,4,6.9,6.4,10.1c5.2,6.8,9.8,13.9,12,22.3c0.5,2,1.4,2.6,3.5,1.8c5.1-1.9,10.5-3.2,15.5-5.4c10.4-4.4,19.6-10.7,25.5-20.8
		c4.7-8,4-11.4-1.8-18.4C432,659.3,422,646.8,411.3,635c-4.2-4.7-6.9-10.2-6.2-16.5C405.3,612.7,404.9,611.2,402.4,607.9z"/>
	<path fill="#FCD0A2" d="M398.5,779c2.1,16,3.3,32.1,3.6,48.2c0.1,7.6,0.1,7.6,7.2,10c1.6,0.5,3.1,1.1,4.5,2
		c6.7,4.7,13.2,6.2,21.9,4c20.6-5.1,41.8-8.2,62.4-13.3c13.6-3.2,26.7-8,39.1-14.5c-12.6-0.1-25.2-0.3-37.2-3.7
		c-14.7-4.1-29.3-8.8-43.7-13.8c-11.3-3.9-19.1-12-22.9-23.5c-3.2-9.6-5.4-19.6-6.4-29.7c-1-10.1-2.7-20.1-4.7-30
		c-0.5-2.3-1.2-2.6-3.3-1.8c-5.1,1.9-10.4,3.6-15.6,5.2c-1.8,0.6-2.7,1.4-2.5,3.5c0.9,10.8-0.1,21.6-1.6,32.3
		C398.1,762.4,397.4,770.7,398.5,779z"/>
	<path fill="#FFFFFF" d="M554.3,835.5c-13.8,12-17.4,28.4-19.4,45.5c0.1,5,0.9,10,2.3,14.9c1.5,4.7,4.7,7.7,9.7,8.1
		c6,0.5,8.4-2.6,6.5-8.1c-2.6-7.6-4.9-15.3-1.9-23.3c1.5-4,2.5-8.3,2.9-12.6c0.9-10.3,5.3-17.8,16.4-19.5c2.5-0.4,1.9-1.4,1.1-2.9
		c-3.3-6.1-9.1-3-13.8-3.9C556.2,833.1,555.3,834.6,554.3,835.5z"/>
	<path fill="#FDBB6F" d="M561.7,686.5c-16.6,16.6-36.6,18.8-57.3,17.2s-40.2-7.5-55-24.5c-0.9,8.7-4.8,14.9-10.1,20.4
		c-3.6,3.7-7.7,6.9-12.3,9.3c-3,1.5-3.5,3.4-2.8,6.4c1.2,5.2,2.1,10.4,2.9,15.7c1.9,13.1,3.2,26.4,6.9,39.3
		c4.1,14.4,13.2,23.6,27.6,27.5c8.2,2.2,16.3,4.7,24.2,7.7c16.5,6.2,33.5,8.1,51,7.6c6.1-0.2,11.2-2.4,16.3-5.1
		c1.7-0.9,2.5-1.9,1.2-3.9c-5.4-8.4-10.4-17.1-17-24.6c-4.1-4.6-4.6-6.5-0.7-11.2c3-3.4,4.6-7.8,4.4-12.4c-0.2-6.9,1.1-13.7,3.7-20
		c1.8-4.6,3-9.5,3.5-14.5c0.6-5.6,2.5-10.8,7-14.5C561.5,701.8,562.5,695,561.7,686.5L561.7,686.5z"/>
	<path fill="#EA590A" d="M584.5,618.8c-3.2-1.3-5.9-3.6-10.1-3.3c-25.6,2-48.5-4.4-66.9-23.5c-5.9-6.1-11.7-12.3-17.6-18.5
		c-0.9-0.9-1.5-2.7-3-2.2s-0.8,2.3-1,3.6c-1.5,15-4.1,29.7-9.1,43.9c-2,6-4.6,11.9-11.8,14.5c12,7.5,23.7,13.6,38.2,9.2
		c6.7-2.1,13.1-0.9,18.1,5.1c2.4,2.9,5.9,4.4,9.5,5.2c20.4,4.7,44.9-6.2,53.9-31C585.2,620.9,586,619.5,584.5,618.8z"/>
	<path fill="#FB8729" d="M571.3,658.2c-24.1,16.7-49.6,20.1-76.4,7.5c-13.6-6.4-26.4-14.2-38.9-22.5c-15.6-10.3-24.3-25.2-27.9-43.2
		c-1.5-7.4-3.2-8.5-10.7-6c-2.2,0.7-4.3,1.9-6,3.4c-4.3,4-8.2,8.1-4.6,14.7c0.6,1.4,0.7,2.9,0.4,4.4c-1.2,7.8,2.2,14,7.3,19.3
		c6.3,6.7,12.1,13.7,18,20.8c6.4,7.6,12.4,15.5,19.5,22.5c7.2,7,14.8,12.9,24.2,16.3c13.6,5.1,28.1,7.3,42.6,6.5
		c14.2-0.9,27.7-3.8,38.5-14.1c1.9-1.9,2.9-4.9,4.6-6.1c8.9-6.6,11.4-16.1,13.9-26.2c-0.5,0.1-1,0.2-1.5,0.4
		C573.4,656.6,572.4,657.5,571.3,658.2z"/>
	<path fill="#2A0F04" d="M505.4,502.7c-6.8-0.6-13.3-1.2-19.7,0.4c-5.3,1.4-10.6,3.4-12.6,8.8c-1.7,4.7-3.5,9.3-5.3,13.9
		c-0.9,2.2-0.9,4.6-0.2,6.9C474.8,515.3,489.2,507.8,505.4,502.7z"/>
	<path fill="#22100F" d="M546.7,817.2c-5.1,13-15.5,20.2-26.9,26.4c-3,1.7-5.9,3.8-8.8,5.7c-6.7,4.5-10.2,10.8-10.9,18.7
		c-0.3,3.9-1.3,7.6-3.8,10.7c-2,2.5-1,3.4,1.5,4.6c5.2,2.5,10.3,5.3,15.4,8.1c6,3.3,12.4,5.8,19,7.4c2.5,0.6,4,1,2.9-2.8
		c-2.4-7.5-2.9-15.4-1.5-23.2c2.9-16,8.1-30.8,22.3-41.7C547.9,829.4,546.4,824,546.7,817.2z"/>
	<path fill="#F5641D" d="M439.2,532.9c-1.6,0.3-2.4-1-3.1-2.1c-1.6-2.5-3-5.2-4.9-7.5c-5.5-7.2-12.4-12.4-21.8-13.3
		c-4.3-0.3-8.4,1.8-10.6,5.5c-5,7.5-4.9,15.4-1.1,23.2c4.2,8.7,8.5,17.3,14,25.2c1.3,1.8,2.1,5.2,4.2,5c2-0.2,2.1-3.7,3-5.8
		c5.5-13.6,15.6-21.2,30-23c7-0.9,7-0.5,5-7.2c-0.2-0.8-0.5-1.6-0.8-2.3c-1.5-3.9-2.9-7.8-5.8-10.9c-1.2-1.5-3.2-2.1-5-1.4
		c-2.2,0.8-1.4,2.7-1.3,4.3c0.2,2.3,1,4.6,0.6,6.9C441.3,530.9,441.1,532.6,439.2,532.9z"/>
	<path fill="#DA4905" d="M457.3,641.7c12.6,8.3,25.8,15.9,39.3,22.7c9.1,4.6,19.2,6.9,29.4,6.7c16.8,0.1,33.1-5.6,46.3-16
		c3.6-2.8,4-5.5,2.8-9.4c-0.8-2.5-1.6-2.8-3.6-1c-5.5,4.9-12.2,8.3-19.4,9.9c-12.7,2.8-24.9,3-34.6-7.7c-1.9-2.1-4.5-2.7-7.3-2.8
		c-3-0.1-6,0.3-8.9,1.1c-14.8,4.2-26.6-3-38-10.6c-3.5-2.3-6.9-5.1-10.6-7.2c-7.4-4.1-12.4-9.8-14.8-17.9c-1.2-4-2.6-7.9-3.6-11.9
		c-0.5-2.2-2-3.5-3.8-3.1c-2.2,0.5-0.7,2.5-0.4,3.7C433.1,616.4,441.6,631.4,457.3,641.7z"/>
	<path fill="#FEFEFE" d="M421.5,590.8c0.5,0.1,1,0.2,1.5,0.2c2.3,0.3,4.6,0.5,6.9,1s3,0.2,2.5-2.4c-0.9-4.2,0.1-8.2,2-12.1
		c2.5-5.6,6.1-10.7,10.4-15.1c4.4-4.3,7.9-9.4,10.2-15.2c2-5,2-5.2-5.9-5.3c-11.2,1.1-21.3,7.3-27.2,19.7c-2.1,4.5-3.5,9.3-5.9,13.7
		C414.3,578.4,418.5,589.2,421.5,590.8z"/>
	<path fill="#FACA98" d="M456.2,593.2c3.8-3.1,5.9-7.8,6-12.7c0.2-14.6,0.5-29.3,3.3-43.8c-4,3.1-7.1,7.2-8.9,11.9
		c-2.3,5.7-5.8,10.9-10.3,15.2c-4.5,4.5-8.1,9.8-10.6,15.6c-1.5,3.2-2,6.8-1.3,10.2c1.6,7.7,3.8,15.2,6.6,22.5
		c1.6,4,3.7,7.6,8.4,10.1c-1.9-5.5-3.2-10.2-1.9-15.3C449,601.6,452,596.9,456.2,593.2z"/>
	<g id="live137m1">
		<path fill="#FFC96E" d="M609.5,112.2c-6.3-1.3-12.8-2.1-19.2-2.9c-9.4-1.3-18.8,1.3-26.2,7.2c-3.5,2.7-4.1,5.3-1.3,8.8
			c5.3,6.6,11.7,11,20.6,11c2.6,0,3.5-0.7,3.6-3.3c0.1-3.6-0.5-7.2,0.7-11.3c0.8,0.8,1.1,1,1.2,1.3c0.1,1.5,0.2,3,0.2,4.5
			c0,9.9,0,9.9,10.1,9.6c6.1-0.2,11.8-1.1,16.2-6.1C622.2,123.1,619.6,114.3,609.5,112.2z"/>
		<path fill="#711A12" d="M594.5,214.6c-2-0.8-3,0-4,1.6c-1.5,2.3-2.5,4.6-2.1,7.5c0.6,3.8,0.7,7.6,1.2,11.4
			c1.6,11.5,3.3,23.1,5,34.6c0.2,1.2,0.9,2.5-0.8,3.5c-1.4,0.7-2.1-0.1-3.1-0.8c-1.4-0.9-2.8-1.8-4.2-2.6c-2.1-1.2-3.1-0.7-3,1.8
			c0.2,6,0.3,12,0.4,18c-0.2,1.5,0.8,3,2.3,3.3c2.8,0.9,5.6,1.9,8.4,2.9c0.2-0.4,0.3-0.8,0.4-1.2c0-18.3,2.3-36.6,6.8-54.4
			c0.2-0.8,0.3-1.6,0.1-2.4c-1.7-6.6-2.9-13.3-3.5-20.1C598.1,215,596.1,215.3,594.5,214.6z"/>
		<path fill="#711A12" d="M579.4,267.5c-0.1,0-0.2,0-0.3,0c-0.8-0.2-1.6,0.2-1.8,1v0.1c-1.5,6.5-1.5,13.2-0.2,19.7
			c0.4,1.7,1.8,2,3.1,2c1.8,0,1.1-1.7,1.1-2.7c0.1-2.8,0-5.7,0-8.5h-0.2c0-3.2,0-6.3,0-9.5C581.2,268.7,580.5,267.7,579.4,267.5z"/>
		<path fill="#DA5417" d="M577.5,181.1c-2.5,0.1-5.9-3-7.1,2.2c-1.3,5.8-2.6,11.7-3.4,17.6c-2.7,20.8,1.4,41.5,1.9,62.2
			c0,1.9,0.5,2.7,2.6,2.2c6.4-1.3,12.3,0.5,17.9,3.6c0.7,0.4,1.7,1,2.2,0.8c1.1-0.5,0.6-1.7,0.4-2.6c-1.1-7.9-2.5-15.8-3.4-23.7
			c-1.1-9-2.5-18-2.6-27.1c-0.1-9.8,0.6-19.6,1.9-29.3c0.3-2,1.2-4.3-2.3-4.9c-3-0.5-3.7,1-4.1,3.4c-0.2,0.8-0.1,2.1-1.4,2.3l0,0
			c-1.3-0.6-0.8-1.6-0.7-2.6C580,183.2,580.9,181,577.5,181.1z"/>
		<path fill="#F9AF4E" d="M616.6,186.5c-0.3,0.4-0.6,0.8-0.9,1.2l0,0c-0.3-3.2-1.5-4.6-4.8-4.6c-2.7,0-3.8,1.2-4.9,3.2
			c-8.5,15.2-6,31.1-2.9,47c0.5,2.3,2.3,2.6,4.2,2.5c3.5-0.2,7-0.8,10.5-0.6c3.8,0.2,3.7-1.5,3.2-4.4c-1.1-6.4-3.3-12.5-4.5-18.8
			c-1.5-8.3,0.5-16.5,3-24.5c0.3-1.1,1.7-2.6-0.2-3.4C617.4,183.4,617.2,185.4,616.6,186.5z"/>
		<path fill="#F9AF4E" d="M648.4,174.3c-2.5-0.4-5.2-3.2-7.6,0.3c-0.8,1.2-2,1.7-2.1-0.4c-0.2-4.5-4.1-2.3-6.1-3.5
			c-1.8-1.1-3-0.1-4,1.6c-6.2,10.7-10,22.1-10.4,34.5c0.1,0.8,0.1,1.7,0,2.5c-0.6,4.6,1.5,7,6.1,7.8c3.6,0.7,7.1,1.7,10.5,3.2
			c3.3,1.4,4.2,0,4.4-2.8c0.8-14.1,3.5-27.7,9.4-40.6C648.8,176,649.7,174.5,648.4,174.3z"/>
		<path fill="#FFC96E" d="M670.8,141.7c-1.4-2.3-3.7-4-6.4-4.5c-12-2.6-23.9-0.6-35.7,1.3c-4,0.6-4.5,4.6-5.4,7.6
			c-0.7,2.5,2.3,3,3.8,4.3c3.3,2.9,7.2,3.9,11.4,4.4c6.4,0.6,6.8,0.2,6.2-6.9c-0.1-0.4-0.2-1.4-0.3-2.4c-0.1-0.8-0.3-1.9,0.6-2.1
			c1.4-0.3,1.5,1.2,1.6,2c0.3,2.3,0.4,4.7,0.4,7c0,1.5,0.2,2.7,2.1,2.6c6.5-0.4,13-0.8,19-3.6C672.1,149.5,673.1,145.6,670.8,141.7z
			"/>
		<path fill="#996A40" d="M675.9,136.1c0.5-3.1,0-5.9-2.5-8.1c-3.9-3.7-9.1-5.8-14.5-5.9c-4-0.1-8,0-12,0.2c-5.2,0.2-10,1-14.3,4.7
			c-2.8,2.5-6.4,4.1-9.8,5.8c-7,3.5-7.2,4-2.7,10.6c0.4,0.5,0.7,1.1,1.2,2l0,0c2.2-6.5,4-8.7,8.1-9.3c9.2-1.3,18.5-2.7,27.8-2.1
			c4.7,0.3,9.3,0.8,13.2,3.9C673.5,140.5,675.3,139.9,675.9,136.1z"/>
		<path fill="#F9AF4E" d="M661,84.3c0,15-9.7,25.3-19,35.8c2.3,0,4.3-0.3,6.2,0c6.5,1.2,10.4-2,14.1-6.9c4.5-6.1,8.6-12.5,9.3-20.2
			c1.6-15.7-3.1-29.9-11.5-43c-0.4-0.9-1.3-1.6-2.3-1.8c-4.6-0.2-9.3-1.2-14.9-0.7C654.8,57.6,661,69.6,661,84.3z"/>
		<path fill="#F07034" d="M659.2,119.7c2.6,0.6,4.7,0.9,6.7,1.6c5.2,1.8,10.2,4.6,12.1,9.7c1.4,3.8-0.1,8.1-3.5,11.2
			c-1.2,1.1-0.8,3.1,0,4.2s2.1-0.2,3-0.6c16.2-7,29.1-20,35.9-36.4c1.5-3.6,2-7.4,1.5-11.2c-2.8-25.7-26.1-47.5-52.5-48.9
			C675.5,73.6,681.7,97.3,659.2,119.7z"/>
		<path fill="#D54F2B" d="M566.1,131.8c-0.8-0.9-1.3-1.5-1.9-2.1c-2.8-2.5-5.1-5.2-5.2-9.2c-0.2-4.9,3.8-5.7,6.9-7.7
			c7.6-5,15.9-6.5,24.8-5.5c5.1,0.6,10.2,1.2,15.3,2.1c15.5,2.7,18.8,9.7,10.6,24c17.8-7.6,30.8-19,39.1-35.5
			c3.2-6.3,4.1-13.5,2.7-20.4c-2.1-11.9-8.1-21.3-17.5-28.7c-21.9-17.4-46.3-20-72.7-13.3c-14.6,3.7-27.4,10.4-36.8,22.5
			c-7,9-10,19.1-7.7,30.4c4.3,20.5,17.1,33.7,35.8,41.7C561.6,131,563.4,132.2,566.1,131.8z"/>
	</g>
</g>
</svg>
