<?xml version="1.0" encoding="utf-8"?>
<!-- Generator: Adobe Illustrator 25.4.0, SVG Export Plug-In . SVG Version: 6.00 Build 0)  -->
<svg version="1.1" baseProfile="tiny" id="图层_1"
	 xmlns="http://www.w3.org/2000/svg" xmlns:xlink="http://www.w3.org/1999/xlink" x="0px" y="0px" viewBox="0 0 768 1024"
	 overflow="visible" xml:space="preserve">
<g>
	<rect y="721" width="0" height="2"/>
	<rect y="617" width="0" height="2"/>
	<rect y="857" width="0" height="2"/>
	<rect y="568" width="0" height="2"/>
	<rect y="736" width="0" height="3"/>
	<path d="M266,1024.1C266,1024,266,1024,266,1024.1l-3-0.1c0,0,0,0,0,0.1H266z"/>
	<rect y="537" width="0" height="2"/>
	<rect y="340" width="0" height="2"/>
	<path fill="#1F5E4D" d="M372.9,555.4c-1.1-1.4-2.5-1.3-4-1.2c-26.3,1.2-52.5,3.4-78.7,6.6c-2.5,0.3-3.4,1-3.3,3.6
		c0.3,9.5,0.5,19,0.6,28.5c0,3.2,1.1,4.1,4.3,4.2c32.1,0.9,64.3,0.6,96.3,5.2c0.9,0.1,2.3,0.9,2.6-0.4c0.5-3.1,0.3-6.3-0.6-9.4
		c-0.7-2.5-3.1-1.4-4.7-1.5c-18.1-1.4-36.2-2.6-54.3-4c-1.9-0.2-5,0-4.9-3c0.1-2.8,3-2.3,4.8-2.4c9.3-0.2,18.6-0.1,28-0.1V581
		c8.5,0,17-0.1,25.5,0.1c3.5,0.1,4-1,2.7-4C383.6,569,378.3,562.2,372.9,555.4z"/>
	<path fill="#1D3238" d="M336,583.3c-1.5,0-3.3-0.3-5.1,1.3c18,2.1,35.8,2.7,53.4,3.9c1,0.1,2,0.1,3,0.2c2.1,0.2,2.5-0.6,2.1-2.6
		c-0.4-2.5-1.6-3.2-4-3.1C369,583.2,352.5,583.2,336,583.3z"/>
	<path fill="#2E7849" d="M354,538.1c-11.4-2.7-23.1-4-34.8-4c-10.6,0-19.4,1-28.1,2c-4,0.4-5.4,2-4.9,6c0.5,4.3,0.6,8.7,0.5,13
		c0,3.2,1,3.8,4.1,3.4c11.6-1.4,23.1-2.7,34.7-3.7c13.4-1.1,26.9-1.9,40.3-2.9c0.9-0.1,3.8,0.4,2.5-1.3
		C364.4,545.7,360.1,539.5,354,538.1z"/>
	<path fill="#1D3238" d="M185.8,578.1c-3.2-0.1-4,1-3.8,4c0.7,11.7,1.4,23.3,1.8,35c0.1,3,1.7,4.1,4.1,4.9
		c7.9,2.4,15.9,3.8,24.1,2.5c9.2-1.4,18.2-4.2,27.7-3.4c3.2,0.3,2.9-2,2.9-4c0.3-11.5,0.5-23,1-34.5c0.1-3.1-1.2-3.6-3.8-3.6
		c-9,0-18,0-27,0v-0.9C203.8,578.1,194.8,578.2,185.8,578.1z"/>
	<path fill="#1D3238" d="M321.6,519.3c-9.6,1.1-19.2,2.2-28.7,3.5c-7.6,1-7.5,1.2-6.9,9.1c0.2,2.3,0.9,2.7,3,2.3
		c20.1-3.3,40.6-3.2,60.7,0.3c-7.4-5.9-15.5-10.9-24.2-14.8C324.3,519.2,323,519.1,321.6,519.3z"/>
	<path fill="#244754" d="M136.5,545.6c-0.5,24.2-0.9,48.3-1.4,72.5c0,1.5-0.8,3.2,1.5,4.2c14,6.5,28,9.6,42.4,0.9
		c2.2-1.3,2.9-2.7,2.8-5.1c-0.5-7.3-0.8-14.6-1.1-22c-2.8-54.2-4.8-108.5-6.7-162.8l0,0c-2.2-62-3.7-123.9-4.9-185.9
		c-0.1-3.7-4.5-7.3-8.9-6.7c-4.1,0.5-1.9,4-1.9,6c-0.2,53.3,2.3,106.6,0.1,159.9c-0.4,10.1-0.3,10.1,9.4,12.6
		c0.6,0.2,1.3,0.3,1.9,0.3c3.2-0.2,2.9,1.5,1.4,3.1c-3.8,4.5-6,10-9.4,14.7c-2.5,3.5-3.8,7.8-3.5,12.1c0.8,34,1.3,68,1.9,102
		c0,1.3,0,2.7,0,4c0,0.6-0.1,1.4-1.1,1.3s-0.9-0.8-1-1.5c-0.1-1-0.1-2-0.1-3c-0.6-32.2-1.3-64.3-2-96.5c0-2.6,0.5-5.3-0.5-7.8
		c-2.6,1.2-3.2,4-5,5.9c-4.6,4.8-7.7,10-7.7,17.2c-0.1,14.2-1,28.3-1.7,42.4c0,1.2,0.6,3.2-1,3.5c-4.2,0.8-3,4-3.1,6.5
		C136.8,530.9,136.6,538.2,136.5,545.6z"/>
	<path fill="#1D3238" d="M246.5,527.2c0.2-3.5-0.8-4.8-4.2-4.9c-10-0.4-20-1-29.9-1.5c-9.8,0.2-19.7,0.2-29.5,1
		c-2.1,0.2-3.4,0.4-3.2,3.1c0.5,7.8,0.8,15.6,1,23.5c0.1,2.9,1.3,3.7,4,3.5c5.3-0.2,10.7,0,16-0.4c14-1.1,28-1.1,41.6,2.9
		c2.9,0.9,3.5-0.2,3.5-2.8C245.9,543.5,245.9,535.4,246.5,527.2z"/>
	<path fill="#0C1E25" d="M245.1,565.8c0.1-9.1,1.9-7.8-7.4-10.1c-3.4-0.8-6.9-1.3-10.3-1.8c-14.6-2.1-29.2,1-43.9,0.2
		c-2.6-0.2-2.5,1.6-2.4,3.3c0.2,5,0.7,10,0.7,15c0,3.3,1.5,3.7,4.3,3.7c9-0.2,18-0.1,27-0.1v0.9c9,0,18,0,27,0
		c1.5,0,3.9,0.9,3.8-1.8C243.6,571.9,245,569,245.1,565.8z"/>
	<path fill="#163E3D" d="M197.1,253.4c-1.6,1-2.3-0.8-3.2-1.6c-2.5-2-5.4-3.3-8.6-3.8c-2.9-0.5-5.8-1.3-8.7-2.2
		c-5.6-1.9-5.6-2-5.5,3.8c1.8,88.6,4.4,177.2,7.9,265.8c0.1,3.5,1.1,4.5,4.6,4.2c19.5-1.5,39-1,58.4,0.6c4,0.3,4.7-0.8,4.8-4.4
		c0.4-19.8,1.1-39.6,1.5-59.5c0.8-33.5,1.5-66.9,2.4-100.4c0.1-4-1.1-4.5-4.6-3.3c-7.6,2.5-15.2,4.7-22.9,7
		c-5.5,1.7-6.2,1.2-6.6-4.7c-0.9-14.8-1.9-29.6-2.7-44.4c-0.1-2.3-0.8-4.6-2.2-6.4c-7.6-10.8-14.9-21.7-22.6-32.4
		c-2.4-3.4-1.6-4.4,1.8-5.8c13.2-5.4,26.4-11.1,39.5-16.7c1.5-0.7,3.3-1.2,4.3-2.4c8.1-9.9,16-19.9,24.8-31
		c-3.1,1.1-4.8,1.6-6.5,2.2l-45,17.4c-9.8,3.7-9.8,3.7-10,14.3C198,251,198.5,252.6,197.1,253.4z"/>
	<path fill="#12BB53" d="M351.2,518.1c-5.8,0.1-11.6,0.3-17.5,0.6c-0.8,0-2.2-0.5-2.4,0.9c-0.1,0.4,1.1,1,1.8,1.4
		c8.7,4.6,16.9,10,24.5,16.3c1,0.8,2,1.7,3.5,1.5c8.5-1.3,17.1-0.9,25.7-0.3c-11-6.5-22-12.9-32.8-19.8
		C353.2,518.2,352.2,518,351.2,518.1z"/>
	<path fill="#12BB53" d="M396.8,543.3c-0.9-0.7-2-1.2-3.1-1.4c-6.8-0.3-13.4-2.2-20.2-1.9c-2.8,0.2-5.6,0.3-8.4,0.5
		c-0.8,0.1-2.5,0.4-1.4,1.7c1.7,1.9,3,4.8,6.1,4.6c8.9-0.4,17.8-1.1,26.8-1.7c0.5,0,1.2-0.1,1.3-0.4
		C398.2,543.9,397.3,543.6,396.8,543.3z"/>
	<path fill="#10303B" d="M151.8,413.6c3.8,1.5,4.1,0.3,4.3-3.2c1.2-27.6,0.9-55.3-0.1-82.9c0-22,0-44,0-65.9c0-6.2,0-12.3-0.1-18.5
		c0-1,0.6-2.4-1.2-2.8c-3.7-0.7-7.6,2.3-7.7,6c-0.6,20.1-1.3,40.2-1.9,60.3c-0.9,31-1.9,61.9-2.8,92.9
		C142,410,142,409.8,151.8,413.6z"/>
	<path fill="#204757" d="M67.1,762.3c-1.1,31-2.2,62.1-3.3,93.2c-1.5,44.3-3,88.6-4.4,132.9c-0.3,8.3,1.8,12,10,14
		c8.5,2.1,17.2,3.8,26.1,3.4c4.3-0.1,8.6-1.2,12.5-3c6.9-3.3,9.9-8.6,9.5-16.2c-1.2-27.1-2.6-54.3-3.5-81.4
		c-1.8-51.5-3.2-102.9-4.7-154.4h0.4c-2-65.5-4-130.9-6-196.3c-0.5-14.8-1.3-29.6-1.7-44.5c-0.1-3.4-1.8-4.7-4.4-4.6
		c-3.3,0.1-1.1,3-1.6,4.6c-0.2,1.1-0.2,2.3-0.1,3.5c0.1,75.3,1.1,150.6,2.9,225.9c0,1.8,1.1,5-1.1,5c-1.9,0-1-3.3-1-5.1
		C95,664.7,94,590.1,94,515.4c0-13.9,0.7-13.8-13.3-9.7c-3.4,1-4.7,2.4-4.8,6.1c-0.6,22.1-1.4,44.2-2.2,66.3
		C71.5,639.5,69.3,700.9,67.1,762.3z"/>
	<path fill="#2E7849" d="M381.7,661.7c0.3-2.6-0.9-3.2-3-3.5c-28.6-4.7-57.2-9.4-85.7-14.2c-3.7-0.6-4,0.8-4,3.9
		c0.1,10.7,0.1,21.3,0.1,32h2.1c0,10.8,0.1,21.7-0.1,32.5c-0.1,3.6,1.1,4.2,4.3,3.3c8.8-2.4,17.8-4.3,26.8-5.8
		c20.7-3.4,41.7-4.8,62.6-6.5c4.4-0.4,4.3-1.6,3-5.1C383.2,686.5,380.1,674.5,381.7,661.7z"/>
	<path fill="#1F5E4D" d="M386,705.4c-13.6,1.4-27.2,2.5-40.8,3.8c-17.1,1.5-34,4.5-50.6,8.9c-1.6,0.4-3.5,0.5-3.3,2.9
		c0.2,2.6,2.3,1.9,3.8,2c6,0.1,12-0.4,17.9-1.6c13.4-2.5,26.6-5.8,40.5-3.7c11.2,1.9,22.4,3,33.8,3.3h1.5c9.6,0.1,9.6,0.1,5.2-8.3
		c-0.8-1.3-1.5-2.6-2-4C391,705.5,389.1,705,386,705.4z"/>
	<path fill="#1D3238" d="M388,604.6c-0.8-0.2-1.6-0.3-2.5-0.4c-20.3-2.7-40.7-3.8-61.2-4.9c-9.7,0-19.3,0.1-28.9,0
		c-8.2-0.1-8.3,0-7.5,8.1c0.2,1.9,0.5,2.7,2.6,2.1c20.8-5.9,41.5-3.2,62.3,0.2c11.6,1.9,23.2,1.4,34.8,0.2c1.7-0.2,3.3-0.2,3.3-2.7
		C391,604.8,389.3,605,388,604.6z"/>
	<path fill="#1F5E4D" d="M385,612.3c-11.1,1.3-22.3,1.1-33.4-0.5c-8.7-1.3-17.5-2.5-26.3-3.3c-11.5-0.8-23,0.2-34.1,3.2
		c-5.9,1.5-2.5,6-2.9,9c-0.3,3.5,2.8,1.8,4.4,1.7c10.1-0.8,20.3-0.8,30.4,0.1c16.7,1.6,33.1,5.8,50,6.7c1,0.1,2.2-0.1,2.2,1.3
		c0,1.7-1.5,1.3-2.6,1.4c-16.6,1.8-33.3,2.3-49.3,3c-10.7,0-20.9,0-31.1,0c-1.2,0-2.9-0.6-3.5,1.1c-0.6,1.4-0.5,3,0.3,4.4
		c0.9,1.4,2.6,1.2,4.1,1.5l33.5,5.5c16.9,2.8,33.8,5.6,50.7,8.4c2.1,0.3,4.6,1.5,5.3-2.3c2.4-12.1,6.4-23.8,7.4-36.2
		C390.8,611.7,390.9,611.6,385,612.3z"/>
	<path fill="#1D3238" d="M292.8,632.8c22.1,0.3,44.3-0.5,66.3-2.5l-5.1-0.9c-20.3-3.5-40.7-7.1-61.5-4.5c-2.5,0.3-4.4,0.2-4.3,3.7
		C288.3,632.2,289.7,632.8,292.8,632.8z"/>
	<path fill="#12BB53" d="M380.4,548.2c-0.3,0-0.7,0-1,0.1c-2.6,0.3-7.1,0-7.5,1.1c-0.9,2.5,2.7,4,4.1,6.2c1.1,1.7,2.6,3.1,3.6,4.8
		c0.9,1.8,2.9,2.8,4.9,2.5c16.6-1.2,33.3-1,50.1-1.7c-4.3-1.8-8.9-2.9-12.7-5.5C409,547.2,395.1,546.2,380.4,548.2z"/>
	<path fill="#345F3D" d="M219.4,179.3c-2.6,2.6-5.7,4.7-7.3,8.1c-2.2,4.5-5.2,8.6-8.7,12.1c-3.2,3-5.1,7.2-5.2,11.6
		c-0.2,6.8,0,13.7-1,19.2l0,0c-0.2,6.9-0.1,7,5.4,4.9c14.6-5.5,29.3-10.9,43.8-16.7c6.2-2.5,13.3-3.3,18.3-8.5
		c0.3-0.5,0.9-0.6,1.4-0.3c0.1,0.1,0.2,0.2,0.3,0.3c1.4,1.8,3,0.8,4.5,0.3c56.6-16,114-28.2,172.5-35.4c3.2-0.4,4.6-0.9,2.2-4.4
		c-9.7-13.8-14.8-29.3-16.6-46c-0.5-4.8-2.2-6-6.9-5.2c-38.4,6.3-76.5,14.6-114,24.9c-27.9,7.8-55.4,16.9-82.4,27.2
		c-1.3,0.5-4.4,0.9-3.6,2.2C224.4,177.3,220.8,177.9,219.4,179.3z"/>
	<path fill="#1F5E4D" d="M659,818.2c-12.6-0.8-25.2-1.6-37.9-0.5c-21.6,1.9-42.8,6.5-64.4,7.7c-10.6,0.6-10.5,0.9-5.1,10.2
		c0.5,0.9,1.9,1.9,0.8,3c-0.9,0.9-2.2,0.1-3.3-0.3c-4.1-1.5-5.9-5.2-8-8.6c-0.4-0.7-1.1-1.7-1.6-1.6c-1.1,0.2-0.7,1.3-0.5,2
		c0.9,4.7,2,9.4,2.9,14.2c0.3,1.6,1.2,1.9,2.5,1.4c6.2-2.3,12.7-2.4,19.1-3.4c32.5-5.1,65.1-7.9,97.6,0.5c2.7,0.7,3.8-0.2,3.8-2.7
		c0.1-3,0.1-6,0.1-9l0,0h-0.2c-0.1-2.2-0.1-4.3,0-6.5C665.3,820.1,663.3,818.5,659,818.2z"/>
	<path fill="#12313F" d="M743.8,469.9c-0.7-21.6-1.8-43.3-2.6-64.9c-0.1-2,0.2-4-2.5-4.7c-3.5-0.9-7-2.3-10.5-3
		c-6.4-1.3-11,2.6-11.2,8.9c-0.2,5.8-0.5,11.7-0.6,17.5c-2.6,94.9-5.3,189.8-10,284.7c-2.3,47.6-3.4,95.2-4.1,142.9
		c-0.2,10-0.2,10.2,9.3,13.8c11.7,4.5,23.6,7.2,35.9,2.2c8.6-3.5,8.6-3.7,8.3-12.7c-2.3-74.1-4.6-148.2-7-222.3h0.3
		C747.2,578.1,745.5,524,743.8,469.9z"/>
	<path fill="#2E7849" d="M604.6,613.4c21.7-3,43.5-2.6,65.3-2.2c11.9,0.2,23.6,0.9,34.8,5.3c3.1,1.2,3.3-0.3,3.3-2.7
		c0.1-4.8,0.2-9.7,0.7-14.5c0.5-4-0.6-5.3-4.9-5.5c-16.3-0.8-32.6-0.7-48.9,0.2c-16.8,0-33.6,0-50.4,0c-2.9,0-4.3,0.5-3.9,3.8
		c0.4,4.1,0.5,8.3,0.5,12.5C601.1,612.8,601.7,613.8,604.6,613.4z"/>
	<path fill="#1D3238" d="M108,610.1c1.2,40.5,2.1,71.5,2.8,102.4c0.1,3.3,0.9,4.7,4.3,5c24.7,2.2,49.4,5,74.2,5.1
		c15.7,0.1,31.3-0.1,46.7,3.4c2.6,0.6,3.6,0.1,3.7-2.7c0.8-32.2,1.6-64.3,2.6-96.4c0.1-2.8-0.9-3.8-3.7-3.8
		c-6.7,0-13.3,0.8-19.8,2.5c-10.3,2.4-20.6,2.2-30.5-1.3c-2.7-1.1-5.8-0.8-8.3,0.8c-12.1,6.6-24.5,8.2-37.2,1.8
		c-1.5-0.8-3-1.3-4.7-1.7c-4-0.9-6.6-2.3-5.2-7.2c0.7-2.3,0.1-5,0.2-7.5c0.6-28.3,1.1-56.6,1.8-85c0.1-3.5-0.8-4.6-4.4-4.2
		c-6.8,0.7-13.6,1.3-20.4,1.4c-4.2,0.1-5.2,1.5-5,5.5C106.2,558.7,107.2,589.1,108,610.1z"/>
	<path fill="#2E7849" d="M567.8,552.1c0-3.7-0.1-7.3,0-11c0.1-7.2,0.2-7.3-6.9-7.8c-34.8-2.6-69.5-5.9-104.3-9.5
		c-5.6-0.6-11.3-0.9-16.9-1.2c-25.6-1.5-51.2-2.9-76.8-4.3c-1.1-0.1-2.8-0.8-3.4,0.7c-0.1,0.3,1.6,1.5,2.6,2
		c24.9,14.8,49.8,29.5,77.2,39.4c2.3,0.9,4.8,1.2,7.2,0.9c9.2-1.2,18.5-2,27.9-2.3c29.7-0.6,58.8,3.3,87.5,10.4
		c4.7,1.2,5.4-0.1,5.2-4.2c-0.2-4.3,0-8.6,0-12.9h0.7L567.8,552.1L567.8,552.1z"/>
	<path fill="#18483D" d="M467.4,321.6c-21.4,4.1-42.7,8.8-64.7,8.4c-10.3-0.3-20.7,0.3-30.9,1.7c-17.4,2.7-34.4,8-52,9.7
		c-2.7,0.3-3.6,1.6-3.5,4.2c0.1,3.2-0.1,6.3-0.1,9.5c-0.1,6-0.5,6.3-6.4,4.6c-8.2-2.3-16.4-4.4-24.5-6.9c-4-1.2-5.2-0.8-5,3.7
		c2.6,52.9,4,105.9,5.6,158.8c0.2,6.2,0.2,6.2,6.4,5.2c28-4.5,56.4-5.9,84.7-4.1c36.5,2.5,73.1,3.3,109.4,8
		c25.6,3.3,51.4,4.4,77.1,6.8c3.5,0.3,4.5-0.2,4.6-3.9c0.8-28.5,1.7-57,2.6-85.4h-0.1c1-28.5,2.1-56.9,3.1-85.4
		c0.1-3.2-0.1-4.7-3.8-2.8c-4.1,2.1-8.8,3.1-13.2,4.3c-4.9,1.4-5.8-0.8-5.9-4.9c-0.2-9.5-0.6-19-0.8-28.5
		c-0.2-6.8-4.3-10.9-11.1-10.7C514.9,314.6,491,317.1,467.4,321.6z"/>
	<path fill="#2B9F5A" d="M404.8,626.4c30.7-2.4,61.5-4.8,92.2-7.2c1-0.1,2.6,0.5,3-0.9c0.2-0.6-0.9-1.6-1.6-2.3
		c-6.7-6.6-13-13.6-19-20.9c-1.4-1.6-2.7-1.9-4.7-1.6c-9.2,1.3-18.5,2.7-27.8,3.5c-16.8,1.5-33.5,2.7-50.3,3.8
		c-2.7,0.2-3.8,0.8-3.7,3.7c0.2,6.5-0.2,13-1.2,19.4c-0.3,2.4,0.5,2.9,2.6,2.8c3.5-0.3,7-0.5,10.5-0.7l0,0V626.4z"/>
	<path fill="#12BB53" d="M459.1,573.5c-8.5-6.1-17.3-11-28.5-9.5c-5.4,0.7-11,0.1-16.5,0.1l0,0v0.8h-27.4c-2,0-4,0-2,2.9
		c5.7,8,7.3,17.4,8,26.9c0.3,3.5,1.3,4.4,4.8,4.1c13.3-1.2,26.6-1.8,39.8-3c11.8-1.1,23.5-2.7,35.2-4c2.7-0.3,3.5-1.1,1.5-3.6
		C469.7,582.6,464.7,577.7,459.1,573.5z"/>
	<path fill="#1D3238" d="M132,519c1-0.1,2.6,0.5,2.7-1.3c0.1-1.2-1-1.5-2-1.8c-8.4-2.6-16.8-5.3-25.2-7.8c-0.9-0.3-2.8-1.1-3,0.3
		c-0.7,3.8-0.4,7.6,0.8,11.3c0.9,2.3,3.9,0.6,5.9,0.6c2.8,0,5.6-0.3,8.4-0.5v0.2C123.7,519.7,127.9,519.4,132,519z"/>
	<path fill="#4F723D" d="M329.2,291.8c-0.8,1.2-2.7,2.4-1.8,3.8c0.8,1.2,2.8,0.1,4.2-0.1c21.2-3.5,42.3-7.3,63.6-10.3
		c56.8-7.9,113-18.4,168.4-33.2c24.1-6.5,48-13.2,71.6-21.7c-0.6,0-1.2,0-1.8,0c-26,4.8-52,9.7-78.1,14.3c-28.5,5.1-57,10.4-86,12.5
		c-37.7,2.7-75.3,6.9-112.1,15.9C339.7,277.3,339.6,277,329.2,291.8z"/>
	<path fill="#10303B" d="M242.5,813.3c12.9,8.3,26.8,9.6,41.2,5.6c8.3-2.3,10.4-6.8,9.9-15.2c-1.6-28.7-3.3-57.5-4.5-86.3
		c-1.6-39.9-3.3-79.9-3.9-119.8c-0.7-40.3-2.1-80.6-2.6-121.7l0,0c-1.4-37.6-2.8-76-4.4-114.5c-0.4-10.7-0.7-10.7-11-13.4
		c-0.5-0.2-1-0.3-1.4-0.4c-4.3-0.5-8.2,1.3-11.8,3.2c-2.3,1.2-1,4.6-1,7c-0.8,32.5-1.4,64.9-2.2,97.4c-0.6,24.8-1.3,49.6-2.3,74.5
		c-0.6,16.1-1.6,32.2-2.2,48.2c-2.9,76.2-4.8,152.5-7.1,228.8C239.2,809.6,240,811.6,242.5,813.3z"/>
	<path fill="#10303B" d="M570.4,652c8.6,5.1,17.2,5.3,26.2,1.1c3.2-1.5,4.5-3.5,4.3-7.3c-1.2-22.5-2.2-44.9-3.2-67.4
		c-3.4-74.7-5.4-149.5-6.6-224.3c-0.1-4.7-1.6-6.8-6.1-6.9c-5-0.1-8.9,2.8-9,6.9c-1.7,48.6-3.4,97.2-5.1,145.8h-0.3c0,6,0.1,12,0,18
		c-1.1,42.7-2.3,85.3-3.5,127.9C566.8,648.4,568.1,650.8,570.4,652z"/>
	<path fill="#2E7849" d="M566.8,577.1c0.3-3.3-0.8-4.5-4.1-5.3c-26.5-6.7-53.6-10.3-80.9-10.7v0.1c-10.2-0.1-20.3,0.5-30.4,1.8
		c-1.1,0.1-3.1,0.4-3.1,0.6c0,1.7,1.7,1.7,2.8,2.3c8,4.2,15.1,9.9,20.9,16.8c1.4,1.7,3.4,2.6,5.6,2.5c7.3,0.4,14.6,1,21.9,1.5
		c21.1,1.6,42.1,3.2,63.2,4.9c2.7,0.2,3.6-0.5,3.7-3.1C566.4,584.7,566.4,580.9,566.8,577.1z"/>
	<path fill="#2E7849" d="M556.4,613.1c9.4,0.4,9.4,0.5,9.6-9.1c0-1,0-2,0-3c-0.1-8.1,1.4-6.8-6.6-7.5c-26.6-2.2-53.2-4-79.7-6
		c-0.8-0.1-2.1-0.2-2.4,0.1c-0.6,1,0.5,1.8,1,2.5c4.8,6.4,10.4,12.2,15.7,18.1c1.6,1.9,4,2.9,6.5,2.8
		C519.1,611.6,537.8,612.3,556.4,613.1z"/>
	<path fill="#2C514B" d="M63.1,523.2c10.8-0.7,10.7-0.8,10.7-11.9c0-2.9-0.7-3.4-3.4-2.5c-9.7,3-19.5,5.6-29.2,8.6
		c-3.2,1-4.4,0.6-4.6-3c-1-16-2.4-31.9-3.5-47.8c-0.4-6.5-2.8-12.7-6.9-17.8c-6.6-8.2-12.9-16.6-19.5-24.8c-2.4-3-3.1-4.5,1.4-6
		c15.5-5,30.4-11.6,45.1-18.7c2.7-1.2,5.1-3,6.9-5.2c7.7-9.8,15.6-19.5,23.5-29.2c1.5-1.9,3.1-3.9,4.7-5.8c0.4-0.5,1-1,1.7-0.4
		c0.4,0.3,0.9,0.7,0.4,1.2c-2.2,2.6,0.5,3.9,1.7,5.4c8,9.6,16.7,18.7,23.9,28.8c5.2,7.4,11.9,11.1,20,13.5c0.2,0,0.3,0.1,0.5,0.2
		c2.9,1.5,3.4,0.3,3.5-2.6c0.5-19.7,1.2-39.3,1.8-58.9c0.4-12.7,0.7-25.3,1.1-38c0.1-3.3,0-5.1-4.1-3.2c-6.9,3.1-14.2,4.8-21.7,5.2
		c-13.3,0.5-26.4,4-38.2,10.2C54.2,333.5,27.7,339.9,0,342v195C20.4,529.6,41.4,524.6,63.1,523.2z"/>
	<path fill="#1F5E4D" d="M654.1,753.2c-30.3,1.7-60.2,7.1-90.4,9.4c-3.8,0.3-4.3,1.6-2.4,4.5c1,1.4,1.2,3.2,0.5,4.8
		c-1.4,3.1,0.1,5.1,2.3,6.9c2.8,2.1,5.9,3.8,9.2,4.9c3.2,1.1,6,3,8,5.7c1.3,1.8,3.8,4,2.3,6s-3.8-0.6-5.8-1.2c-0.4,0-0.9,0-1.3,0.1
		c2,2.5,4,5,5.7,7.7c1.2,2,3.9,4.6,1.9,6.4c-1.2,1-3.4-2.4-5.1-4l-2.3-2c0.7,3,1.2,4.8,1.4,6.6c0.2,1.5,2.5,3.3,0.3,4.3
		c-1.9,0.8-1.5-2.1-2.6-2.9c-0.5-0.4-1-0.7-1.6-1c-8-3.2-13-9.7-13.9-17.4s-5.9-10.1-11.2-12.2c-4.5-1.8-8.4-3.7-10.9-8
		c-0.7-0.9-1.6-1.7-2.5-2.4c-0.6-0.5-1.7-1.2-2.1-1c-1.2,0.5-0.4,1.7-0.2,2.5c1.2,8.3,5.5,15.2,9.4,22.4c1.4,2.7,3.5,5.8,1.7,8.4
		c-4.3,6.5-1,12.5,0.1,18.7c0.4,2.6,1.7,3.6,4.4,3.3c8.5-0.9,17-1.1,25.4-2.3c28.9-4,57.6-9.2,87-5.2c2.4,0.3,2.9-0.7,2.8-2.7
		c-0.3-18.8-0.5-37.6-4.5-56.2C659.1,753.9,657.7,753,654.1,753.2z"/>
	<path fill="#2B9F5A" d="M531,647.4c-7.1-8.5-16.2-15.4-24.1-23.2c-2-2.2-4.9-3.3-7.9-2.9c-31.4,2.4-62.8,4.7-94.2,7.1
		c-4.5,0.3-10.4-0.9-13,1.5c-2.9,2.6-2.6,8.6-4.1,13c-1.3,3.9-0.2,4.8,3.6,3.9c8-1.9,16.2-2,24.4-1.5c28.5,1.6,56,10.3,84.5,11.8
		c0.8,0,1.8,0.1,1.6,1.2c-0.1,0.4-1,0.8-1.5,0.8c-2.8-0.1-5.7-0.2-8.5-0.5c-22.3-1.9-43.8-8.4-66.1-10.2c-12-1-23.9-1.9-35.8,0.7
		c-2.8,0.6-4.2,1.7-4.8,4.7c-1.9,9.2-1.9,18.6-0.1,27.8c0.7,3.4,1.7,4.6,5.5,4.1c14.4-1.8,28.8-3.3,43.2-4.7
		c29.2-2.8,58.3-5.6,86.7-13.5c8.9-2.5,18.2-2.8,26.4,1.3c5.5,2.8,10.8,3,16.6,2.5C551.3,664.9,540,658.1,531,647.4z"/>
	<path fill="#1F5E4D" d="M602.4,683.6c-6.5-2.6-13.1-4.9-19.8-6.7c-2.7-0.8-5.6-0.7-8.1,0.5c-15.2,6.4-31.5,10.1-48,10.8
		c-17,0.5-33.8,3.1-50.2,7.7c-21.4,6.3-43.7,9.4-66,9.3l0,0l0,0l0,0c-1.8,0-3.7-0.1-5.5,0c-3.7,0.3-9.8-1.8-10.7,0.6
		c-1.2,3.3,3,7.2,4.8,11s4.2,4.5,8,4c9.6-1.1,19.2-1.6,28.8-2.8c28-3.3,55-10.9,82.2-17.7c2.2-0.6,4.5-1.1,6.8-1.2
		c11-0.4,20.5,7.9,23.4,20.7c1.7,7.7,1.9,15.5,2,23.4c0.2,4.3,1.6,8.5,4.2,12c1.7,2.4,3.5,6,7.5,5.6c7.5-0.7,14.9-1.3,22.4-2.2
		c23.3-2.6,46.5-6.3,70-7.3c3.2-0.1,3.9-0.7,2.9-3.9C648.1,718,631.4,695.5,602.4,683.6z"/>
	<path fill="#1F5E4D" d="M568,673.3l-1,0.2c-6,1.1-11.9,0.4-17.9-0.3c-3.4-0.4-4.8-3.6-8.1-4.2c-6.7-1.4-13.7-1.2-20.3,0.6
		c-28.7,7.9-58.1,10.8-87.6,13.5c-14.2,1.3-28.5,3.1-42.7,4.5c-3.2,0.3-3.9,1.2-2.7,4.3c4.6,12.5,1.8,10.3,14.6,10.9
		c2.3,0.1,4.7,0,7,0l0,0c20.4,0,40.5-2.2,60.2-7.7c18.5-5.2,37.2-8.8,56.5-9.3c14.8-0.5,29.5-3.5,43.3-8.9c1.4-0.5,4.1-0.6,3.7-2.4
		C572.7,673.5,570,672.9,568,673.3z"/>
	<path fill="#0F2A2F" d="M598.1,540.5c0.8,15.8,1.5,31.6,1.9,47.4c0.1,3.3,1.2,4.2,4.4,4.1c33.6-1.2,67.2-1.7,100.9,0
		c2.9,0.1,3.6-0.8,3.7-3.6c0.5-15.5,0.9-31,1.8-46.4c0.2-4.2-1.2-5-5-4.7c-17.1,1.1-34.3,0.9-54.3,0.9l0,0
		c-14.4-0.2-31.7-0.6-49-1.8C598.9,536,598,536.9,598.1,540.5z"/>
	<path fill="#1D4A4B" d="M768,522.8V408.4c-0.5-0.1-0.8-0.4-1.1-0.7c-6.5-0.9-12.6-3.2-18.8-4.9c-3.7-1-4.5-0.4-4.3,3.5
		c0.7,14.1,1.2,28.3,1.7,42.5c1,26.1,2,52.3,2.8,78.4c-0.3,3,0.4,3.7,3.2,2.6c4.9-1.9,10-3.6,15-5.3
		C766.6,523.7,767.1,523,768,522.8z"/>
	<path fill="#185139" d="M768,303.6v-46.5c-0.8-0.2-1.3-0.8-1.4-1.5c-15.6-1.6-31.3-1.4-46.9,0.8c-28.7,4.2-57.5,7-86.5,8.5
		c-11.8,0.6-23.5,2.6-35.2,4c-1,0.1-3.5,0.1-1.8,2.1c3.9,4.8,6.9,10.8,12.2,13.7c8.6,4.5,17.6,8.4,26.9,11.4c3.2,1.1,3,1.4,1.1,3.3
		c-5.5,5.8-10.3,12.3-14.4,19.1c-1.8,3-2.8,6.4-2.8,9.9c-0.1,8.5-0.6,17-0.7,25.5c0,3.3-0.6,4.6-4.2,3.2c-5.3-2-10.8-3.3-16.1-5.4
		c-3.8-1.5-5-1.2-4.8,3.3c0.8,30.2,1.3,60.3,2.1,90.5c0.8,28.2,1.9,56.3,2.7,84.4c0.1,2.5,0.4,3.8,3.5,4c35.3,2,70.6,2.5,105.9,1
		c2.8-0.1,3.6-1,3.7-3.8c1.2-42.1,2.4-84.3,3.8-126.4c0.1-4.2-1.3-4.2-4.6-3.2c-7.6,2.5-15.3,4.7-22.9,7c-5.2,1.6-6,1.2-6.6-4.3
		c-1.4-12.4-2.7-24.9-3.7-37.3c-0.5-6.4-2-12.2-5.9-17.6c-6.6-9-12.5-18.5-18.7-27.8c-3-4.4-2.7-5.2,2.3-7.1
		c12.7-4.9,25.4-9.9,38.2-14.6c3.8-1.3,7-3.7,9.4-6.9c6.5-8.7,13.3-17.1,20-25.6c1.5-2,2.8-5.1,4.7-5.5c2.6-0.5,2.5,3.4,4,5.2
		c8.4,9.3,16.5,18.8,24.5,28.4c3.1,3.6,6.9,6.6,11.2,8.7C767.2,303.9,767.6,303.7,768,303.6z"/>
	<path fill="#0B3A3B" d="M342.5,266.5c7.2-1,2.5,2.3,1.6,4.2c-0.4,0.8-1.7,1.6-1,2.5s1.9,0,2.8-0.2c44-11.7,89-16.1,134.2-19.6
		c26.9-2.1,53.4-7.7,79.9-12.3c29-5.1,58-10.4,87-15.5c1.3-0.2,3.4-1.7,4,0.1c0.7,2.3-2.3,1.6-3.3,2.6c-0.2,0.2-0.5,0.4-1.6,1.3
		c8.3-1.2,15.6-2.3,23-3.3c23.8-3.2,47.5-6.3,71.3-9.4c9.1-1.2,18.1,0,27.1,0.7c0.1-0.1,0.3-0.1,0.5-0.2V40.6
		c-0.4-0.1-0.7-0.3-0.9-0.5c-16.8,1.5-32.3,7.3-47.4,14.7c-17.1,8.4-35.8,11.4-54.6,13.1c-40.4,3.6-80.4,8.8-118.7,23
		c-3.3,1.2-6.5,2.5-9.8,3.6c-1.3,0.4-3.3,2.1-4,0.4s1.7-1.8,3-2.3c19.4-7.5,39.4-13.5,59.7-17.8c22.4-4.8,45.1-6.5,67.8-8.9
		c21.9-2.4,43.4-6.2,63.3-16.7c12.5-6.5,26.1-10.2,40.1-11.1c0.1-0.8,0.6-1.4,1.5-1.6V13.9c-0.2,0-0.4-0.1-0.6-0.2
		c-0.1,0-0.2-0.1-0.3-0.1c-0.3,0-0.6-0.1-0.8-0.3l-0.3-0.2c-16.3,0.9-32.6,1.7-48.8,2.7c-29.1,1.8-57.8,6.8-86.5,11.8
		c-33.1,5.7-66.3,10.9-99.8,14.2c-1.2,0.1-3.3,0.9-3.5-0.6c-0.2-2.2,2.2-1.4,3.4-1.5c23.3-2.5,46.6-5.4,69.8-9.2
		C626,26.2,651.5,22,676.9,18c29.3-4.7,58.8-5.7,88.4-6.9c0-0.2,0.1-0.3,0.2-0.5c0.1-0.3,0.2-0.5,0.4-0.7s0.4-0.4,0.7-0.4
		c0.3-0.1,0.5-0.2,0.8-0.2c0.1,0,0.2,0,0.2,0s0,0,0.1,0s0.2,0,0.3,0V0H0v340c11.9-1.7,23.8-2.9,35.5-5.7
		c13.3-3.2,26.3-7.5,38.4-13.9c14.1-7.4,28.8-11.9,44.8-12.6c7.3-0.3,14.4-2.6,21.2-5.5c2.3-1,3.3-2.2,3.4-4.8
		c0.4-16.7,1-33.3,1.7-50c0.1-3.5-0.7-3.8-3.8-2.7c-5.7,2-12,2.3-17.3,5.9c-2.6,1.8-3.8-0.6-4.2-3c-1.5-6.7-2.3-13.5-2.5-20.3
		c0-3.5-0.1-7-0.3-10.5c-0.6-12.7-6.5-22.4-16.1-30.3c-2.6-2.1-6.9-3.9-6.2-7.8c0.8-4.1,5.6-4,9-5.2c7.2-2.5,14.8-3.9,21-8.8
		c0.8-0.7,1.7-1,2.8-1c5.9,1.2,8.9-1.2,10-7.1c0.5-2.7,3.1-4.7,5.1-6.6c5.2-4.7,9.5-10.4,12.4-16.7c2.2-4.8,4.6-5,7.4-0.6
		c3,4.8,5.6,9.9,8.1,14.9c3.8,7.6,9.3,13.2,17.6,15.9c7.4,2.5,13.6,7.6,21.8,8.3c4,0.4,8-0.2,11.7-1.6
		c65.4-25.4,133-42.8,202.2-53.7c3.2-0.5,4.6-1.5,4.5-5c-0.4-24.7,8.2-45.9,24.7-64.1c2.7-3,2.2-3.5-1.5-4.2
		c-25.5-4.5-51-8.4-77-5.7c-17,1.8-33.2,7-48.9,13.6c-27.3,11.4-55.5,19.7-85,23c-20.6,2.4-41.3,2-61.8-1.2
		c-1.1-0.2-3.3,0.3-3.2-1.3c0.1-1.9,2.1-1,3.2-0.8c46.9,7.1,91.9-0.6,135.6-17.7c13.6-5.3,27.2-10.7,41.4-14.5
		c20.2-5.3,40.6-4.9,61.1-2.8c12.3,1.2,24.5,3,36.5,5.5c2.8,0.7,5.7,0,7.8-2c13.9-12.2,30.3-19,48.3-22.3c2.6-0.5,6.7-2,7.8,0.3
		c1.2,2.4-3,3.6-4.9,5.2c-54.3,46.3-37.1,135.6,31,160.8c12.4,4.5,25.6,6.6,38.7,5.9c1.2,0,3-1,3.4,0.8c0.4,1.4-1.6,1.4-2.4,2.1
		c-32.5,27.6-67.2,22.6-102.5,6.7c-10.8-4.8-20.6-11.9-28.6-20.6c-1.5-1.8-3.8-2.7-6.1-2.2c-58.3,7.4-116,19.1-172.5,35.3
		c-4.3,1.2-4.9,2.1-2,5.7c7.7,9.4,15,19.1,22.4,28.8c1.6,2.1,3.8,3.7,6.3,4.6c13.1,4.9,26.1,9.9,39.2,14.9
		C340.3,265.8,341.4,266.7,342.5,266.5z"/>
	<path fill="#345F3D" d="M768,253v-31.5c-0.7-0.2-1.1-0.6-1.4-1.2c-8.2-1.9-16.7-2.3-25.1-1.2c-29.6,3.7-59.1,7.5-88.6,11.9
		c-6.2,0.9-12.6,0-18.7,2c-64.8,21.2-130.9,37.5-198.2,48c-35.9,5.6-71.8,10.8-107.5,17c-5.5,1-11.4,7.7-11.5,13.2
		c-0.2,8.2-0.2,16.3-0.5,24.5c-0.1,2.8,0.5,3.9,3.6,3.4c5.9-1.1,11.9-1.7,17.8-2.8c13.7-2.5,27.2-6.5,41.2-7.8
		c12.5-1.2,25-0.3,37.5-1.2c17.7-1.2,34.9-5.2,52.2-8.4c23.1-4.3,46.5-6.7,70-7.2c1.1,0,2.6,0.7,3-0.7c0.2-0.6-0.7-1.7-1.3-2.5
		c-2.1-2.8-4.1-5.7-6.3-8.4c-2.7-3.2-1.7-5.1,1.8-6.7c8.9-4.1,17.7-8.5,26.7-12.5c2.4-1,4.6-2.6,6.2-4.7c4.7-6,9.5-12,14.4-17.9
		c0.7-0.8,1.2-2.3,2.6-1.9c1.4,0.4,0.2,1.7,0.4,2.5c1.1,4.4,7.2,8.5,11.8,7.9c8.3-1,16.5-2.4,24.8-3c17.4-1.4,34.9-2.5,52.3-3.8
		c18.8-1.4,37.2-6,56-6.8c11.9-0.5,23.8-1.2,35.8,0.4C767.2,253.3,767.6,253.1,768,253z"/>
	<path fill="#0D3031" d="M768,526c-5.1,1.9-10.2,4.1-15.5,5.7c-3.3,1-4.6,2.4-4.5,6.2c0.9,24.5,1.5,49,2.3,73.4
		c2.7,83.4,4.4,166.9,8,250.3c0.1,1.8-0.7,2.3-1.8,3.1c-5.1,3.7-10.6,6.5-16.8,7.2c-13.5,1.3-26-2.2-37.8-8.8c-2-1.1-2-2.7-2-4.6
		c0.3-36.2,1.2-72.3,2.6-108.4c1.6-41.8,3.5-83.6,5.4-125.3c0.2-3.6-0.8-5.3-4.3-6.5c-10.1-3.5-20.4-4.5-31-4.7
		c-21.7-0.5-43.3-0.8-64.9,1.7c-4.4,0.5-6.7,1.4-6.1,6.8c1,8.8,0.8,17.6,1.5,26.4c0.3,1.8-0.5,3.6-2.1,4.5c-9.8,7.2-24.5,7-34.1-0.6
		c-1.7-1-2.5-3-2.3-4.9c0.6-9.1,0.6-18.3,0.9-27.5c0.1-2.1,0.2-3.8-2.8-4c-20.1-1.4-40.3-2-60.4-2.6c-0.8,0-1.8-0.5-2.2,0.5
		s0.6,1.4,1.1,2c12.9,13.8,27.2,26.2,40.7,39.4c12.3,12,28.9,16.4,45.3,21c23.7,6.6,44.3,18.2,57.8,39.8c9,14.4,15.1,30.5,17.9,47.3
		c4.5,26.9,3.3,54.1,3.9,81.3c-0.1,1.7,0,3.3,0.2,5c5.1,27.9,15.2,53.8,32.4,76.5c18.6,24.5,41.8,43.7,68.4,59v2
		c-5.9-2.4-11-6.2-16.3-9.5c-1.6-1.1-3.6-1.6-5.5-1.4c-10.8,1.3-21.5,3.1-31.6,7.1c-20,7.8-40.9,8.9-61.9,8.2
		c-17.3-0.6-34.6-3.1-51.9-1c-28.7,3.6-57.2,1.1-85.6-3c-23.6-3.4-47.1-7.1-71-6c-33.3,1.5-66.5,3.3-99.8,3.8
		c-27.3,0.4-54.6,0.9-81.9,0c-3.6-0.1-5.1,0.5-4.6,4.6c1.4,11.7,3.5,23.3,8.2,34.2h502L768,526L768,526z"/>
	<path fill="#0D262B" d="M263,1024c-0.5-1.9-1-3.8-1.6-5.7c-6.3-20.1-8-41.3-5.2-62.2c1-7.3-1.4-10.4-8.8-10.9
		c-2.3-0.2-4.7,0-6.9,0.5c-15,3.9-30.2,4.5-45.6,3.2c-4.3-0.3-8.7-0.2-13,0.4c-20,2.8-40.1,4.1-60.2,0.5c-3.5-0.6-3.9,0.6-3.7,3.5
		c0.7,12.6,1.3,25.3,1.8,37.9c0.1,1.5,0.7,3.2-0.4,4.3c-4.7,5.2-9.6,9.9-17,11.4c-12.2,2.4-23.8-0.4-35.5-3c-2.6-0.6-4.6-2.7-6.8-4
		c-3-1.8-3.5-4.2-3.4-7.4c1.5-45.3,2.9-90.5,4.4-135.8c0.2-4.5-0.6-4.8-4.6-3.1C38.8,861.4,19,863.2,0,859v165H263z"/>
	<path fill="#0C1F26" d="M57.6,851c2.4-1,4.2-1.9,4.3-5.2c1-33.1,2.2-66.2,3.4-99.2c0.1-3-1-3.6-3.7-3.6c-5,0-10-0.4-15-0.5
		c-15.5-0.5-31-2.6-46.6-3.5v118C19.8,860.8,39,859.1,57.6,851z"/>
	<path fill="#1D3238" d="M62.6,740.9c2.5,0.1,3.1-1.1,3.1-3.3c-0.1-4,0-8,0.3-12c0.5-4.3-0.6-5.7-5.3-5.6
		c-20.3,0.7-40.6,1.5-60.8,2.9v13C20.8,739.3,41.7,740,62.6,740.9z"/>
	<path fill="#142C32" d="M66.2,616.2c2.9-0.4,3.9-1,4-4.1c0.4-15.3,1-30.6,1.7-45.9c0.2-3.6-1.2-4.9-4.3-5.9
		c-9.7-3.2-20.3-3-29.9,0.7c-12.2,4.5-24.8,7.5-37.7,9v47C22,619.7,44.3,619.4,66.2,616.2z"/>
	<path fill="#1D3238" d="M33.9,560c11.3-4.6,22.9-5.6,34.6-1.5c2.6,0.9,3.5,0.5,3.6-2.4c0.2-8.8,0.4-17.7,1-26.5
		c0.2-3.6-0.9-4.6-4.4-4.4c-13.5,0.8-26.8,2.6-40,5.5c-9.8,2.1-19,6-28.7,8.3v29C11.4,565.8,23,564.3,33.9,560z"/>
	<path fill="#0C1E25" d="M61.8,718c3.7,0,4.9-1,4.9-4.7c0-8.2,0.5-16.3,0.8-24.4c0.8-22.1,1.5-44.2,2.5-66.3
		c0.1-3.5-0.7-4.8-4.4-4.1c-3.7,0.7-7.3,0.7-10.9,1.2c-18.2,2.2-36.6,2-54.7-0.6v102C20.5,719,41.2,718.3,61.8,718z"/>
	<path fill="#0F262C" d="M122.1,947.8c13.6,1.7,27.1,2.8,40.8,1.4c10.4-1.1,20.8-3.2,31.3-2.5c15.6,1,30.9,0.7,46.1-3.2
		c5-1.3,10.4-1.3,14.9,2c2.7,2,2.9,0.3,3.3-1.5c5-22.6,17-41.4,32-58.5c10.7-12.2,22.9-22.7,35.7-32.7c2.8-2.2,2.6-3.2-0.5-4.5
		c-4.8-2-9.6-3.9-14.8-4.2c-18.8-1.2-37.4-3.9-56.1-5.9c-32-3.4-64.2-3.7-96.3-4.2c-13.6-0.2-27.3-1.2-40.9-2.7
		c-0.9-0.1-2.3,0.2-2.3-1.2s1.4-1,2.3-1c0.7,0,1.3,0,2,0.1c18.7,1.8,37.5,2.7,56.3,2.8c25.2,0.1,50.3,1.4,75.3,3.6
		c18.6,1.6,36.9,5.2,55.7,5.6c7.4,0.2,14.6,2.2,21,5.8c2.6,1.5,4.3,1,6.6-0.7c17.3-13.1,35.3-25.2,53.9-36.2
		c2.9-1.7,5.6-3.6,8.2-5.7c16.2-12.8,22.3-29.4,17.8-49.6c-2.2-10.2-6.5-19.5-11.9-28.4c-1.6-2.6-3.4-3.5-6.4-3.4
		c-10.2,0.4-20.3-0.2-30.4-1.7c-15.6-2.4-31.1-3.2-46.6,1c-7.6,2.1-15.4,3-23.2,2.7c-3.7-0.2-4.4,1.2-4.2,4.6c0.6,10,0.5,20,1.4,30
		c1.5,16.5-0.1,33.2,4.1,49.4c0.3,1.2-0.5,1.9-1,2.6c-4.2,5.4-9.2,9.6-16.3,10.6c-13.7,2-26.7,0.6-38.9-6.9
		c-3.6-2.2-4.3-4.2-4.1-7.8c0.8-24.5,1.4-49,2.3-73.4c0.2-4-1.1-5.5-5-6.1c-8.9-1.5-17.8-3.2-26.8-3c-30.6,0.8-60.9-2.2-91.2-5.2
		c-4.8-0.5-5.4,0.8-5.3,5c1.1,36,2,72,2.9,108h-0.3c1.4,36.6,2.8,73.3,4.1,109.9C117.9,945.8,118.7,947.4,122.1,947.8z"/>
	<path fill="#B6A69C" d="M533.8,881.2c-1.5,0-2.9,0.7-2.7,2.8c0.3,4,0.6,8,0.9,12c0.1,1.5,0.7,2,2.2,1.9s1.6-0.9,1.6-2
		c-0.1-2-0.2-4-0.3-6l0,0h-0.1c-0.1-2-0.1-4-0.3-6C534.9,882.9,535.6,881.2,533.8,881.2z"/>
	<path fill="#B6A69C" d="M511.7,885.5c-2,0-1,1.6-0.9,2.6c0.3,3.1,0.8,6.2,1.2,9.3c0.2,1.3,0.2,3,1.8,3c2.1,0,1-1.9,1.2-2.9
		c0.1-1.3,0.1-2.6,0-3.9l0,0c0-2,0-4,0-5.9C514.9,885.3,512.9,885.5,511.7,885.5z"/>
	<path fill="#9C1945" d="M535.9,902.5c0-1.3-0.6-2.5-2.1-2.1c-1.2,0.3-0.8,1.6-0.7,2.6c0.2,1.3,0.7,2.6,1,3.9
		c0.9,4,2.4,8.2-1.3,11.7c-0.8,0.8-0.7,1.5,0.2,2c0.8,0.5,1.8,0.9,2.7,1.1c1.2,0.2,1.2-0.9,1.2-1.7c0-1.8-0.1-3.6-0.1-6.4l0,0
		C537.5,910.4,536,906.5,535.9,902.5z"/>
	<path fill="#9C1945" d="M513,920.5c0.5,0.7,1,1.4,2,0.8c1.2-0.7,1.9-2,1.9-3.3c-0.2-3.1-0.6-6.2-0.8-7.9l0,0c0-2.1,0-2.8,0-3.4
		c-0.1-1.2,0.7-2.8-1.1-3.4c-0.5-0.2-1-0.1-1.4,0.1c-1.2,1.1-0.5,2.5-0.1,3.7c1.2,3.3,1.5,6.4-0.9,9.4
		C511.6,917.7,512,919.2,513,920.5z"/>
	<path fill="#165347" d="M389.6,812.1c-15.3,9.2-30.2,18.9-44.6,29.4c-18.6,13.6-36.8,27.6-52.2,44.9c-0.8,0.9-2.5,1.8-1.7,3.2
		c0.3,0.6,2.1,0.4,3.2,0.4c30.7-0.4,61.3-2.3,91.9-4.4c24.4-1.6,48.8-4.8,73.3-4.6c13.6,0,27.2,0.7,40.7,2.1
		c-3.9-4.5-3.7-9.2-2.8-13.8c1.6-8.7,2.5-17.5,5.3-25.9c0.3-0.9,0.9-1.9,0-2.6c-0.2-0.2-1.3,0.7-2,1.2c-2.3,1.9-4.5,3.9-6.9,5.8
		c-1.2,1-2.5,1.9-4.1,1s-1.9-2.7-1.7-4.4c0.4-3.4,2.2-6.4,5-8.3c2.8-1.8,4.9-4.5,6.1-7.7c2.1-6.5,4.1-13,6.3-19.5
		c0.5-1.2,0.5-2.6-0.2-3.8c-2.8-4.6-2.4-9.5-1.4-14.5c1.7-8.3,5.8-15.6,9.4-23c1.4-2.9,1.2-4.3-2.5-4.2c-3,0.1-6,0-9-0.3
		c-24.2-1.9-48.2-1.1-72.1,4c-7.2,1.5-13.6,3-13,12.3c0,0.2-0.1,0.3-0.2,0.5C412.5,794.7,402.2,804.5,389.6,812.1z"/>
	<path fill="#AE8B09" d="M558.5,766.3c-0.7-7-8.7-10-9.5-17.1c-0.1-0.6-1.5-1.3-2.4-1.5c-4.9-1-9.6-0.5-13.6,2.7
		c-1.8,1.4-3.1,3.5-0.4,5.3c1,0.7,1,1.5,1.4,2.3c2.1,4,5.2,6.8,10.1,6.8c0.9,0,2.3-0.9,2.5,0.5s-1.4,1.6-2.5,1.7
		c-4.9,0.4-8-2.7-11-5.9c-1.5-1.6-2.6-3.4-5.2-3.2c-1.9,0.1-5.2-2-5.5-0.5c-0.4,2.1,2.6,3.5,4.7,4.5c4.5,2.2,9.4,4,12.5,8
		s6.8,6.2,11.3,8.2s10.6,3.8,11.1,10.2c0.4,4.8,2.3,9.4,5.4,13.1c0.8,1.1,1.7,3.1,3.2,2.5c1-0.5-0.1-2.4-0.4-3.7s-1.9-2.7-0.2-3.5
		s2.4,1.2,2.8,2.5c0.3,0.9,0.2,2.5,1.3,2.4s2-1,2.6-1.9c1.4-1.9-1.1-2.1-1.7-3.2c-0.8-1.5-3-2.7-1.6-4.7s3.3-0.5,4.9,0.1
		c0.6,0.2,1.1,0.5,2.6,1.1c-1.7-3.3-4.7-5.9-8.2-7.2c-2.6-1-5.2-2.2-7.6-3.7c-4.1-2.5-7.8-5.5-5.4-11.3
		C560.5,769.2,558.6,767.9,558.5,766.3z"/>
	<path fill="#9A1440" d="M532.7,780c-1.1-7.4-0.8-15.8-10.3-18.7c-0.5-0.2-1-0.9-1.4-1.4c-1.3-2-2.2-1.5-2.8,0.5
		c-2,6.8-5.6,12.8-8.5,19.1c-2.2,4.7-3.7,9.6-4.5,14.8c-0.6,4.5,0.1,8.7,3.7,11.9c2.5,2.3,5.4,3.4,8.7,2.5s4.1-3.6,4.5-6.6
		c1.4-8.9,2.9-17.8,0.4-26.7c-0.3-1-1.2-2.6,0.4-3s1.5,1.5,1.7,2.4c2.6,10.3,1.2,20.5-1.1,30.6c-0.5,2.6-2.5,4.6-5,5.2
		c-2.8,0.5-3.6,2.4-4.6,4.6c-3,6.4-4,13.3-6.5,19.9c-4.4,11.8-6.4,24.1-8.3,36.4c-0.5,3.4-1.1,7.9,2.9,9.2c6.9,2.3,14,4.8,21.4,2.3
		c6.1-2.1,11.8-5.1,18.3-6.3c4-0.7,6-4.5,6.9-8.5c0.8-3.4-1.1-5.1-3.8-6.7c-2.4-1.4-3.5-4.1-3.9-6.7c-2.8-17-6-34-6-52.4
		C534.3,795.5,533.8,787.7,532.7,780z"/>
	<path fill="#B6A69C" d="M547.2,834c-3.2-7.1-5.4-14.6-6.7-22.4c-0.2-1.2,0.1-3.4-1.5-3.2c-2.1,0.2-0.9,2.4-1.1,3.7
		C536.3,821.4,542.2,827.6,547.2,834z"/>
	<path fill="#9A1440" d="M541.9,796.2c-1.7-3-3.3-6.1-5-9.1l-1,0.1c0.4,4.8,0.7,9.5,1.1,14.2c0.1,1.4-0.7,3.6,0.9,4
		c2,0.5,3-1.5,4-3.1C543.3,800.3,543,798.2,541.9,796.2z"/>
	<path fill="#0A2928" d="M261.4,983c19.5,0,39,0.3,58.5,0.2c39.5-0.3,79-1.4,118.4-4c29.2-1.9,57.8,3.4,86.5,7.1
		c21.5,2.8,43,5,64.8,2.7c18.4-1.8,36.9-1.9,55.4-0.4c23.8,1.7,47.6,0.9,70.4-8c8.1-3.1,16.6-5.1,25.2-6c1.5-0.2,4,0.2,4.3-1.3
		s-2.2-2.2-3.4-3.2c-19-14.4-35.9-30.9-49.1-50.8c-1.3-2.2-3.6-3.4-6.1-3.2c-14.8-0.1-29.6,0.7-44.4,2.4c-20.2,2.3-40.2,2-60.1-2.2
		c-12.8-2.7-25.7-5.3-38.5-8c-2.9-0.6-4.4-0.3-4.1,3.2c0.2,3.2,0.2,6.3,0,9.5c0,1.7-0.9,2.9-2.8,2.9c-2.7-0.1-5.2-1.5-6.7-3.8
		c-1.1-1.5,0-2.4,1.2-3.2c3-1.8,2.4-4.5,1.8-7.1c-1.4-5.8-2.9-11.6-3.1-17.7c-0.1-2.7,0.5-6.2-0.9-7.7c-1.8-1.8-4.7,1.5-7.2,1.2
		c-4.2-0.4-4.5,2-4.2,5.2c0.6,7.7,1.1,15.3,1.7,23c0.2,2.2,0.7,4.3-0.4,6.4c-0.9,1.8-2,3.7-4.4,3.5s-3.2-2.2-3.9-4.1
		c-0.6-1.8-0.3-3.7,0.9-5.2c1.4-1.8,1.1-3.7,0.7-5.7c-1-5.5-2-11-2.9-16.5c-0.6-3.7,0.4-6.8-6.2-7.1c-14.6-0.6-29.2-2.1-47.6-2
		c-12.6,0.1-28.9,1.4-45.2,2.7c-39.5,3.2-79.1,6-118.8,6.2c-2.1-0.1-4.2,0.8-5.5,2.6c-20,24.5-29.2,52.7-28.6,84.2
		C257.1,982.1,258.1,983,261.4,983z"/>
	<path fill="#1F5E4D" d="M497.2,707.5c-0.3,0.1-0.7,0.1-1,0.3c-28.3,7.8-57,13.3-86.3,14.9c-6.5,0.4-6.5,0.6-3.4,6
		c6.3,11.3,11.1,23.1,11.5,36.2c0.1,3.3,1.9,2.3,3.5,1.9c8.2-2.1,16.5-3.8,24.9-4.9c19.4-2.6,38.9-2.5,59.2-0.7l0,0
		c1.8,0,4.4,0,7.1,0c1.3,0,2.8,0.4,3.3-1.5c0.6-2.3-1.5-1.7-2.5-2.1c-2.4-0.9-4.8-2-5.9-4.4c-1-2.7-3.6-4.5-6.5-4.4
		c-2.9-0.2-4.6-2.2-1.8-4.6c3.9-3.3,2.9-6.7,1.8-10.8c-1.9-6.7-2.3-13.6,1-20.2c1.4-2.7,4.9-3.8,5.5-7.1
		C504,705.8,500.7,707.2,497.2,707.5z"/>
	<path fill="#10843C" d="M666.3,855.6c-0.6-8.7-5.3-11.1-12.6-12.8c-16.8-3.8-33.8-2.7-50.8-2.7c-18.5,0-36.7,3.8-54.8,7
		c-5.9,1-6.6,3.1-4.4,8.8c0.6,1.9,1.9,3.6,3.7,4.5c3.7,1.8,4.2,5.1,3.4,8.5c-1.2,5.4-4.4,9.4-10.1,10.4c-3,0.5-3.7,1.7-3.5,4.6
		c0.5,6,0.7,12,0.8,18c0,2.5,0.7,3.9,3.6,4.2c4.3,0.5,8.6,1.3,12.7,2.5c10.1,3,19.1,1,27.1-5.8c4.3-3.5,9.4-5.9,14.8-6.9
		c5-1,10.1-2,15.2-2.6c13-1.5,25.6-6.4,39-5.4l0,0c6.7,0.4,13.3-0.2,19.8-1.9c3.3-0.9,4.3-2,2.9-5.5
		C669.9,872.5,666.9,864.1,666.3,855.6z"/>
	<path fill="#AE8B09" d="M542,711c-4.8-7.5-12.1-11.1-19.8-9.6s-18.7,11-20,17.7c0.1,0.4,0.2,0.7,0.3,1.1c4.4-7.6,11.1-9.8,18.9-9
		s11.1,6.5,13.7,13c1.4,3.9,2.4,8,2.8,12.1c0.4,2.6,1.3,5.2,2.8,7.4c1.4,2.2,3.6,1.1,5.5,1.3c1.3,0.1,1.7-0.8,1.7-1.9
		C547,732.1,548.3,720.9,542,711z"/>
	<path fill="#10843C" d="M676.5,889.8c-0.9-2.3-1.9-3-4.5-2.1c-5.2,1.9-10.7,2.7-16.2,2.5c-10.4-0.6-20.5,0.8-30.7,3
		c-17.7,3.8-36.7,3.7-51.2,16.9c-0.2,0.2-0.6,0.2-0.9,0.3c-0.6,0.3-1.6,0.7-1.6,1c0,1.1,1.2,0.8,1.8,0.9c13,3.4,26.4,5.3,39.9,5.7
		c18.9,0.6,37.5-3.4,56.3-3.9l0,0c5.2,0,10.3-0.1,15.5,0c3.1,0.1,3.5-0.8,1.9-3.3C682.8,904.1,679.4,897,676.5,889.8z"/>
	<path fill="#B6A69C" d="M493.8,838.3c-1.9,1.4-3.2,3.5-3.5,5.8c0,0.8,0,1.6,0.2,2.4c0.8-0.2,1.5-0.5,2.2-0.9
		c2.5-2.1,4.9-4.4,7.5-6.5c6.4-5,7.3-12.7,9.8-19.7c0.8-2.5,1.9-5,2.9-7.5c-0.3-2.2-2.4-2-3.8-2.7c-1.6-0.8-1.8,0.7-2.2,1.8
		c-1.4,4.4-2.8,8.8-4.2,13.3C501.1,829.9,498.9,835,493.8,838.3z"/>
	<path fill="#AE8B09" d="M509.3,727c-2.4,10.4,4.5,23.7,14.5,27.4c2.5,0.9,5.5,2.6,5.5-2.5c0.1-1.7,1.3-3.2,3-3.7
		c6.8-1.5,5.8-5.5,3.7-10.3c-0.8-1.9-0.7-4.2-1.1-6.4c-0.8-4.1-2.2-8-4.3-11.6c-3.1-5.5-7.9-7.3-13.9-6.7c-6.5,0.7-11,4-13.1,10.4
		c3.5,1.1,5.4-1.1,7.1-3.6c0.5-0.7,0.4-2.3,1.8-1.6c0.9,0.5,0.5,1.8,0.3,2.8C512.3,723.5,509.8,724.6,509.3,727z"/>
	<path fill="#B0A294" d="M508.9,751.2c0.1,0.3,0.2,0.6,0.4,0.9c1,1.5,2.5,2.7,4.3,3.3c1.2,0.5,2.7,1.2,3.7-0.1
		c1.2-1.6-0.7-2.3-1.5-3c-5.4-4.8-7.8-11-8.6-17.9c-0.4-3.8,0.5-8-3.5-10.6l0,0c-2.5,2.5-1.9,5.4-1,8.3c0.6,1.9,1.4,3.7,1.9,5.7
		c0.9,3.7-2,6-3.5,8.8C504,747.3,507.7,747.2,508.9,751.2z"/>
	<g id="live69m2">
		<path fill="#FAC448" d="M35.9,473.6c0.9,11.9,2,25.1,2.8,38.4c0.2,3.1,1.2,3.5,4,2.7c13.3-4,26.7-8,40.1-11.7
			c2.1-0.6,3.1-3.1,5.6-2.6c5.1,1.1,10.6,1.6,15.5,3.6c10,4.1,20.7,6.3,30.7,10.2c3.5,1.3,4.4,0.8,4.5-3.1c0.4-14.5,1.2-29,1.7-43.4
			c0-3.7,1.3-7.3,3.7-10.1c8.1-9.5,14.1-20.5,21.1-30.8c2.8-4.2,1.7-5.4-2.6-6.9c-13-4.5-25.9-9.6-38.8-14.4c-2-0.6-3.8-1.9-5-3.7
			c-8.6-12.5-19.2-23.4-28.6-35.2c-2.1-2.6-3.3-2.8-5.4,0c-6.8,8.8-14,17.4-20.9,26.1c-3.4,4.3-6.8,7.8-12.4,10
			c-13.2,5.4-26.1,11.7-39.7,16.2c-3.9,1.3-4.7,2.3-1.8,5.8c7.8,9.5,15.3,19.3,22.9,29c0.9,1.2,2.4,2.5,2.3,3.7
			C34.8,462.5,35.8,467.3,35.9,473.6z M117.9,481.3c-2.5-7.4-1-14.5,1.5-21.5c3.1-8.7,7.9-16.5,12.2-24.6c0.8-1.5,2.6-3.4,1.5-4.8
			c-1-1.3-3.1,0-4.7,0.5c-8.4,2.4-17.4,1.5-25.2-2.4c-5.5-2.7-10-6.5-12.3-12.5c-0.6-1.4-1.3-2.7-2.1-4c-3.1-4.9-4.7-4.9-7.2,0.1
			c-1.3,2.9-3.5,5.3-6.1,7c-3.4,2.1-6.5,4.6-9.3,7.5c-3.2,3.3-7.2,4.7-12,4.7c-1-0.2-3.2,0.5-3.2-0.9c-0.1-2.3,2.3-1,3.5-1.3
			c1.6-0.4,3.6,0,4.8-0.9c7.4-5.2,15.6-9.6,20.5-17.6c3.6-5.9,6.5-6.2,10.5-0.4c2.4,3.4,3.2,7.8,6.3,10.7c7.7,7.4,17,10.1,27.5,8.6
			c1.8-0.3,3.5-0.9,5.3-1.2c2.1-0.4,4.6-1.7,6.2,0.2c1.6,1.8-0.1,4.1-1,6c-1.8,3.6-3.8,7-5.6,10.6c-2,4-4.1,8-5.9,12.1
			c-4.2,9.3-5.8,18.7-1.1,28.4c0.6,1.2,1.9,3,0.5,4.1s-2.7-0.7-3.8-1.6c-6.8-5.1-14.1-8.1-22.8-6.1c-2.6,0.4-5.1,1.6-7.2,3.2
			c-4.6,4.1-9.5,4-14.9,1.9c-13.1-5-13.1-5-20.4,6.9c-0.1,0.2-0.2,0.3-0.2,0.4c-1.3,1.3-2.2,4.8-3.7,3.8c-2.2-1.5,1-3.1,1.7-4.7
			c1-2.5,2.4-4.7,3.7-7.1c2.7-5.2,5.9-6.5,11.5-4.7c1.7,0.5,3.4,1.2,5.1,2c6.1,3,11.4,3.1,17.6-1.2c8.4-5.8,17.7-4.3,26.5,0.6
			c1.1,0.6,2.1,2.3,3.3,1.3C119.5,483.7,118.3,482.3,117.9,481.3z"/>
		<path fill="#FBC808" d="M120.9,243.7c1.1,5.5,1,5.5,6.1,2.8c2.9-1.5,6-2,9.1-2.5c2.5-0.3,4.9-1.2,7-2.5c4.7-3.2,10.4-4.5,16-3.6
			c11.5,1.7,21.9,7.6,33.2,10.1c0.3,0.1,0.6,0.3,0.9,0.5c2.9,2.2,2.9,0.1,2.5-1.8c-2.6-12,1-23.8,0.3-35.8c-0.2-3.2,0.6-6.7,2.8-8.9
			c7.2-7.2,10.6-17.3,18.6-23.9c0.5-0.6,1-1.2,1.4-1.9c-0.7-0.4-1.5-0.6-2.3-0.8c-11-0.5-20.3-5.6-30.1-9.7
			c-7.8-3.3-13.5-8.2-17.4-15.6c-2.6-5-5.3-10-8-15c-1.6-2.9-3.1-4-4.7,0c-2.6,6.5-7,11.6-12,16.3c-2.9,2.8-5.5,5.7-6.3,9.9
			c-0.7,3.9-3.4,5.6-7.9,4.8c-1.6-0.4-3.4-0.1-4.7,0.8c-6.5,5.1-14.4,6.5-22,9.1c-2.3,0.8-5.8,0.8-6.4,3.2c-0.6,2.3,2.7,3.9,4.6,5.3
			c12.8,10,18.3,23.2,17.8,39.3C118.9,230.6,119.5,237.2,120.9,243.7z M127.4,190.2c13.6-5.2,24-14.5,32.3-26.4
			c1.1-1.6,0.6-2.6-0.2-4c-1.5-2.8-2.8-5.6-4.1-8.5c-0.4-0.8-0.4-1.7,0.7-2c0.9-0.2,1,0.7,1.3,1.2c0.9,1.8,1.7,3.6,2.5,5.4
			c1.3,2.8,2.6,5.4,5.5,1.3c0.4-0.6,1.2-1.5,2-0.6c1.1,1.1-0.1,1.9-0.8,2.4c-3.2,2.4-2.3,4.4,0.1,6.8c6.1,6.3,11.6,13.3,21.1,15.1
			c3.2,0.6,4.4,3.3,4.3,6.5c-0.2,3.3-1.1,6.6-2.5,9.6c-3.2,7.7-6.5,15.2-7.8,23.6c-0.8,5.6-4.7,7.5-12.6,7.5
			c-3.1,0.2-6.3-0.8-9.4-1.9c-6.5-2.3-12.4-1.6-17.6,3.4c-1.2,1.2-2.7,3-4.7,2.1s-2.5-3.1-2.5-5.1c0.2-10.1-4.4-18.1-10.8-25.6
			C118.9,194.7,119.8,193.1,127.4,190.2z"/>
		<path fill="#F8D791" d="M137.1,226.5c-0.1,3.1,1.4,3.6,3.5,1.5c6.2-6,13.2-6.3,20.8-3.5c2.6,1,5.5,1.5,8.3,1.5
			c6.6,0,9.2-1.5,10-6.6c1.3-7,3.5-13.9,6.6-20.3c1.4-3.2,2.5-6.5,3.4-9.9c0.6-2.5,0.4-5.4-2.8-6c-9-1.7-14.6-8.1-20.5-14.2
			c-4.4-4.6-4.1-4.5-8.2,0.7c-8.1,10.1-17.8,18.4-30.1,22.9c-5.8,2.1-6.2,2.4-2.2,7.1C132.6,207.4,137.4,215.8,137.1,226.5z"/>
		<path fill="#F8D791" d="M308.4,276.3c-15.4,2.4-27.8-3-38-14.2c-1.1-1.2-1.8-2.1-3.3-0.2c-6.2,7.8-14.8,11-24.3,12.3
			c-6,0.8-11.7,2.4-16.8,6c-3.1,2.2-3.7,4,0.2,6c7.2,3.7,9.7,10.1,9.8,17.8c0.1,4.8-0.1,9.7,0.3,14.5c1.1,15,2.9,16.5,16.5,10.4
			c11.9-5.3,22.8-5.1,33.6,2c1.3,0.7,2.6,1.4,3.9,1.9l0,0c2.1-0.3,1.4-1.8,1.2-2.7c-0.5-3.1-1-6.3,0.1-9.4
			c5.1-14.1,7.5-29.5,18.4-41.1c0.7-0.8,2.1-1.7,1.5-2.9S309.4,276.2,308.4,276.3z"/>
		<path fill="#FBC808" d="M340.1,268.4c-14.1-5.4-28-11.4-42.5-15.7c-1.5-0.4-2.9-1.4-3.8-2.7c-8.5-11.1-17.1-22.1-25.5-33.3
			c-2.4-3.2-3.9-3.2-6.3-0.1c-8.1,10.4-16.3,20.7-24.5,30.9c-1,1.3-1.8,2.6-3.6,3.3c-13.4,5.4-26.7,11.1-40.1,16.5
			c-3.2,1.3-3.1,2.5-1.3,5c7.4,10.5,14.6,21,22,31.6c1.3,1.9,2.9,3.7,1.8,5.9c0.9,15.2,2,30,2.6,44.8c0.2,4,1.5,3.7,4.5,2.8
			c13.2-4.2,26.4-8.1,39.6-12.2c1.3-0.4,3.1-1.3,3.8-0.8c4,3.3,9.1,2.7,13.5,4.4c9.8,3.7,20.2,5.6,30.1,8.9c3.5,1.2,3.7-0.4,3.8-3.3
			c0.2-14,0.8-28,0.7-42c0-5.1,1.8-8.8,5-12.5c7.7-8.8,14-18.6,21-27.9C341.9,270.5,342.6,269.3,340.1,268.4z M314.1,277.8
			c-0.2,0.4-0.5,0.9-0.8,1.2c-10.7,10.5-13.3,25-18.4,38.3c-1.5,3.9-1.9,8.1-1.1,12.2c0.9,5.3-1.4,7.3-5.7,4.4
			c-12.9-8.8-25.8-8.2-39-1.2c-1.2,0.5-2.5,0.9-3.8,1.1c-5.8,1.2-7.9,0-9.6-5.7c-1.1-4-1.7-8.2-1.7-12.3c0-4.3,0.1-8.7-0.1-13
			c-0.3-6.4-2.7-11.5-8.5-14.8c-5.8-3.4-5.7-6-0.3-9.9s11.7-5.4,18.2-6.3c8.3-1.1,15.7-4,21.5-10.5c1.8-2,2.7-3.8,0.9-6.5
			c-1.9-2.9-3.2-6.3-3.7-9.7c-0.3-1.6-2.2-4,0.1-4.7c1.7-0.5,1.3,2.5,1.9,3.9c1,2.6,1.8,5.3,2.9,8c0.7,1.7,1.5,4.6,3.3,0.5
			c0.3-0.7,0.7-1.8,1.7-1.4c1.3,0.5,0.7,1.9,0.2,2.5c-3.1,3.9-0.5,6.3,2,8.8c7.7,7.6,16.9,11.5,26.1,12c5.1-0.4,8.5-0.7,12-0.8
			C314.9,273.9,315.6,275.4,314.1,277.8z"/>
		<path fill="#FAC448" d="M555.7,356.1c5.9-1.5,11.8-3,17.1-6.5c6.1-4,12.5-6.6,20-2.2c5.9,3.4,12.7,4.8,19.2,7
			c3.7,1.3,4.1,0,4.2-3.2c0.1-7.8,0.6-15.6,0.7-23.5c-0.1-3.4,0.9-6.8,2.8-9.7c3.8-5.7,7.4-11.5,12-16.5c2-2.2,2-3.2-1-4.4
			c-7.6-3-15-6.2-22.5-9.4c-1.3-0.6-3.1-1.1-3.8-2.2c-3.9-6.2-9.2-11.4-13.8-17c-6.1-7.6-6.5-7.7-12.5,0.2
			c-6.5,8.6-13,16.7-24.4,19.4c-5.5,1.3-10.5,4.9-15.9,7.2c-2.7,1.2-3,2.3-1.1,4.7c4.8,6.2,9.5,12.5,14.1,18.7
			c0.8,1.1,1.8,2,1.7,3.9c-0.3,4.9-0.1,9.9-0.1,14.9l0,0h0.6c0,5.3,0,10.6,0,16C553,355.4,553.1,356.8,555.7,356.1z"/>
		<path fill="#FCB35C" d="M768,404.2v-96.5c-0.5-0.1-0.9-0.4-1.1-0.8c-3.9-2.2-8.3-4-10.8-7.3c-8.3-10.6-17.6-20.3-25.9-30.9
			c-2.6-3.3-3.9-2.6-6.1,0.3c-7.3,9.7-14.9,19.2-22.4,28.7c-0.9,1.4-2.1,2.5-3.7,3.1c-13.9,5.1-27.7,10.4-41.6,15.5
			c-3.2,1.2-3.2,2.3-1.4,4.9c7.4,10.8,14.7,21.8,21.9,32.8c1.1,1.6,1.8,3.4,2,5.3c1.2,15.1,2.9,30.1,4.3,45.2c0.2,2.2,0.9,2.9,3,2.2
			c9.3-3,18.7-5.9,28.1-8.8c4.4-1.4,9-4.2,13.1-3.6c5.5,0.9,10.9,2.4,16.1,4.3c7.7,2.8,15.4,4.6,23.1,6.8
			C766.9,404.9,767.3,404.4,768,404.2z"/>
	</g>
	<g id="live69m1">
		<path fill="#FBC80A" d="M494.3,23.6C477.7,29,463,38.9,451.8,52.3c-20.2,23.8-25.4,51.3-19.2,81.4c4.5,21.7,14.2,40.4,32.6,53.8
			c18.3,13.3,40,21.1,62.6,22.3c17.1,1.3,34.1-3.7,47.9-14c1.2-0.9,3.7-1.7,3.1-3.3c-0.5-1.3-3-0.2-4.6-0.5c-2.9-0.5-5,1.6-7.5,2.1
			c-26.5,5.7-49.9-1.4-70.7-17.7c-23.9-18.8-35-44.4-36.9-74.1c-1.9-30.2,8.1-55.6,32.6-74.5c1.8-1.4,3.7-2.7,5.6-4.1l-0.2-0.8
			C496.1,23.2,495.2,23.3,494.3,23.6z"/>
		<path fill="#753121" d="M463.3,75.7c-3.5,15.2-2.6,30.4,0.8,45.6c8.9,38.9,38.7,66.8,77.4,72.2c7.7,1.1,15.5,0.6,23-1.7
			c-17.2-2.6-33.4-9.4-47.3-19.8c-48.2-36.1-52.7-108-9.3-148c1.2-1.1,4-2.2,3-3.7s-3.4,0.3-4.9,1.2C483.8,33.2,468.9,51,463.3,75.7
			z"/>
	</g>
</g>
<g id="line">
	<path fill="#095779" d="M743.8,401.7c1.6,42.9,3.2,85.7,4.9,129l19.9-7v2c-5.6,2-11.2,4.2-16.9,6c-2.5,0.8-3.2,1.8-3.1,4.4
		c1.2,37.6,2.3,75.3,3.4,112.9c1.2,40.3,2.4,80.6,3.6,120.9c1,30.3,2,60.6,3.2,90.9c0.1,2.3-0.9,2.8-2.2,3.8
		c-11.8,8.8-24.9,8.4-38.2,4.8c-17.5-4.8-18.1-5.6-17.7-23.4c1.1-54.1,2.3-108.2,5.4-162.3c1.2-21.3,1.7-42.6,2.4-63.9
		c1.8-4,0.8-8.2,0.8-12.3l0.2-13.6l1.9-0.2c0,3.3,0,6.7-0.1,10c-1.7,34.3-2.6,68.5-4.4,102.8c-2.5,47.7-3.5,95.5-4.2,143.3
		c-0.2,11.6-0.2,11.8,10.9,15.7s22.5,6.4,34.1,1.7c9-3.6,9-3.8,8.7-13.5c-2-64.4-4-128.8-5.9-193.3c-1.1-37.5-2.2-74.9-3.4-112.4
		c-1.7-49.1-3.4-98.2-5.2-147.3L743.8,401.7z"/>
	<path fill="#FBC80C" d="M768.6,307.7c-11.8-5.2-18.1-16.2-26.3-25.2c-4.3-4.8-8.6-9.8-12.6-14.8c-1.9-2.4-3-2.1-4.8,0.1
		c-7.6,9.9-15.4,19.6-23,29.5c-1.3,1.7-3.1,2.9-5.1,3.5c-13.7,5-27.3,10.4-41,15.5c-3.3,1.2-2,2.6-0.8,4.4
		c7.3,10.9,14.6,21.8,21.9,32.8c1.3,1.9,2,4,2.1,6.3c1.2,14.6,3,29.1,4.2,43.7c0.3,3.4,1.5,3.8,4.2,3.1l2.2,1
		c-7.5,2.6-7.7,2.6-8.6-5.6c-1.5-13.9-2.9-27.8-4.1-41.8c-0.3-2.6-1.2-5.2-2.8-7.3c-7.1-10.5-14.1-21-21.1-31.5c-3-4.5-2.8-5,2.4-7
		c12.9-5,25.8-10,38.7-14.8c3.3-1.1,6.2-3.2,8.2-6c7.7-10.2,15.6-20.3,23.5-30.4c1.4-1.8,2.8-3.8,3.5,0.6c0.2,1.3,1.7,2.4,2.7,3.5
		c8.2,9.6,16.5,19.2,24.7,28.9c3.3,3.7,7.4,6.6,12,8.5v3L768.6,307.7L768.6,307.7z"/>
	<path fill="#185D63" d="M768.6,39.7c-15.6,1.3-30.8,5.7-44.7,13.1c-18.4,9.5-38.4,13-58.7,14.8c-40.4,3.6-80.4,8.9-118.7,23.1
		c-4.4,1.6-8.6,3.9-13.6,4.5c0.1-2.3,1.7-2.2,2.8-2.6c35.4-13.9,72.2-21.8,110.1-25.1c21.4-1.8,42.8-3.7,63.3-10.8
		c5.3-1.8,10.5-4.1,15.6-6.7c13.6-7.1,28.5-11.3,43.9-12.4L768.6,39.7L768.6,39.7z"/>
	<path fill="#185D63" d="M768.6,12.7c-21.1,1.3-42.2,1.6-63.3,3.7c-26.8,2.7-53.4,7.2-80,11.8C594,33.6,562.6,38.3,531,41.4
		c-1.1,0.1-2.3,0.7-3.5-1c5.2-2.1,10.7-1.8,15.8-2.3c37.1-3.8,73.8-10.6,110.5-16.7c32-5.5,64.3-8.8,96.8-9.8c6-0.2,12-0.6,18-0.9
		V12.7z"/>
	<path fill="#1A5F67" d="M142.7,303.3c-9.7,5-20.2,6.7-30.8,7.3c-9.5,0.4-18.8,2.8-27.2,7.2c-26.1,13.7-54.7,21.9-84.1,24v-2
		c21.1-2.1,41.9-5.7,61.6-13.9c4.3-1.7,8.6-3.6,12.7-5.7c13.6-7.5,28.7-11.8,44.2-12.4c7.5-0.3,14.7-2.6,21.6-5.6
		c1.8-0.8,3-1.6,3.1-3.9c0.4-18.3,1-36.6,1.5-54.9c0.1-0.1,0.2-0.3,0.1-0.5l2.1-0.6c-0.5,16.3-0.9,32.6-1.4,48.9
		c-0.1,3.9-0.4,7.8-0.6,11.7L142.7,303.3z"/>
	<path fill="#195E63" d="M593.3,267.5c28.5-4.8,57.3-5.3,85.9-7.9c13.6-1.2,27-3.9,40.5-5.4c16.2-1.8,32.5-2.5,48.8-0.6v2
		c-18.4-2.1-37-1.6-55.2,1.4c-26.5,4.3-53.2,6-79.9,7.7c-12.7,0.8-25.5,2.1-38,4.9l-2.8-0.2l-0.1-0.2L593.3,267.5z"/>
	<path fill="#1A5F67" d="M0.6,735.7c12.4,2.5,25,2.8,37.6,3.8c8.1,0.7,16.3,0.6,24.4,1.1c3.1,0.2,4.1-0.8,4-3.9
		c-0.2-4.3-0.1-8.6,0.3-12.9c0.3-3.3-0.8-4.2-4-4.1c-20.8,0.5-41.5,1.4-62.2,3v-2c22.1-1.9,44.3-2.6,66.4-3.1c3-1.1,0.6-4.2,2.2-5.9
		c-0.2,8.2-0.2,16.3-0.9,24.5c-0.2,2.3,2.1,4.3,0.2,6.5l-2.4,0.1c-21.9-0.4-43.7-2.6-65.6-4.2L0.6,735.7z"/>
	<path fill="#1C5F65" d="M768.6,219.7c-9.8-0.4-19.5-1.8-29.3-0.3c-31,4.8-62.3,7.6-93.4,12.6c-1.5,0.2-3.6,1.9-4.4-1.1l3.9-1.2
		c13.8-1.9,27.7-3.7,41.5-5.6c18.3-2.4,36.6-4.9,54.9-7.2c9-1.1,17.9,0.2,26.9,0.6v2.2H768.6z"/>
	<path fill="#115C7D" d="M72.2,559.5c1.3-10.7,1.2-21.5,1.5-32.3c0.1-3.6-2.6-2.3-4.2-2.3c-20.6,0.8-40.9,4.5-60.4,11.2
		c-2.8,1-5.4,2.6-8.5,2.6v-2c14.2-4.7,28.4-9.2,43.3-11.4c8.5-1.4,17.2-2.2,25.8-2.4c3.5,0,4.6-1.2,4.5-4.5c-0.1-3.5,0.1-7,0.2-10.5
		l2.1-0.7l-1.9,52.6L72.2,559.5z"/>
	<path fill="#118377" d="M768.6,986.7c-7.1-3.1-13.2-7.9-19.9-11.8c-0.4-0.8-1.2-1.3-2.1-1.2c-21.6-16.4-41.2-34.8-56-57.8
		c0.7-0.4,1.1-1.2,0.9-2l0.1-0.2c19.8,30,45.8,53.3,77,71V986.7z"/>
	<path fill="#FBCC1E" d="M689.6,407.6l-2.2-1c10.4-3.3,21.1-6,31.2-10.1c6.4-2.5,11.8-1.7,17.9,0.2c10.6,3.4,21.4,6,32.1,9v2
		l-24.8-6l-2-0.8c-8-2.6-15.9-6.4-24.3-1.1l-2.1,0.4L689.6,407.6z"/>
	<path fill="#1C6066" d="M0.6,616.7c22.4,3.1,44.7,2.2,67-0.8c2.7-0.3,3.3-1.3,3.2-3.6c0.1-1.6,0.3-3.3,0.6-4.9
		c-0.2,3.5,1.3,7.1-1,10.4c-14.8,1.2-29.6,3.7-44.6,2.9c-8.4-0.4-16.9-0.8-25.2-2C0.6,618.7,0.6,616.7,0.6,616.7z"/>
	<path fill="#1F6167" d="M72.2,559.5l2.4,0.2c0.2,0.7,1.4,1.2,0.3,2.1l-2.3-0.1c-10.8-4.8-21.9-5.5-33-1.5
		c-12.6,4.6-25.7,7.8-39,9.5v-2c15.6-1.6,30.3-7.3,45.4-11.1C54.9,554.3,63.7,555.8,72.2,559.5z"/>
	<path fill="#138478" d="M257.8,985c0.8,13.2,4.4,25.9,7.7,38.7h-2c-2.8-10.7-6-21.3-7.1-32.4c-1.5-13.5-1-27.2,1.3-40.6l1.9-0.9
		c-1.3,10.9-2.6,21.8-2,32.8L257.8,985z"/>
	<path fill="#1D6066" d="M0.6,856.7c21.5,4.2,42.2,2,61.8-8.1l2.1-0.9c0.7,2.8-0.2,5.5-0.7,8.3c-1-1.2,1.3-3.4-1.3-4
		c-1.2-0.5-2.2,0.2-3.3,0.6c-18.4,8.1-38.9,10.3-58.5,6.1v-2L0.6,856.7L0.6,856.7z"/>
	<path fill="#6C8606" d="M645.3,229.8l-3.9,1.2c-69.3,22.9-140.4,40-212.6,51c-33.9,5.1-67.7,10.7-101.5,16.1
		c-0.9-0.8,0-1.5,0.3-2.2c33.8-5.4,67.6-10.9,101.5-16c69.5-10.4,137.5-27.1,204.4-48.4c2.6-0.4,5-1.4,7-3.1c-4,0.9-7.1,0.7-10,2.2
		c-21.2,3.9-42.5,7.8-63.7,11.6c-35.8,6.5-71.6,12.9-108,15.3c-34.2,2.3-68.1,7-101.5,15c-5.4,1.3-10.6,3.8-16.3,3.3
		c0.1-1.3,1.5-1.1,2.1-1.8c41.6-11.2,84.1-16.6,127-19.6c32.6-2.3,64.5-8.8,96.7-14.3c27.8-4.8,55.5-10.8,83.4-15
		c0.8-0.2,1.6,0.1,2,0.7C650.6,228.4,647.2,228,645.3,229.8z"/>
	<path fill="#FBC80A" d="M460.6,40.8c15.4-14.1,33.7-21.6,54.2-23.9c2.6-0.3,2.6-0.1,2.6,2l-4.3,0.8c-2.6-0.5-4.9,0.6-7.1,1.8
		c-11.8,6-22,14.7-29.6,25.5c-13.7,19.3-17,40.9-13.7,63.8c4.5,30.8,18.9,55.6,46.4,71.5c18.2,10.5,37.6,14.9,58.5,9
		c1.4-0.1,2.8-0.8,4,0.5c-1.1,1.8-3.1,1.8-4.8,2.1c-29.9,6.2-55.4-3.1-76.8-23.5c-23.4-22.3-32.1-50.9-30.1-82.6
		c1.7-26.6,14.2-47.7,36.3-62.9c0.7-0.5,1.9-0.7,1.7-2.4c-13.7,3.5-25.3,10.8-36.1,19.4L460.6,40.8z"/>
	<path fill="#6D8709" d="M456,44c-17.7-3.4-35.5-5.8-53.5-7.1c-26.9-2-52.3,4-76.8,14.3c-27.3,11.5-55.4,19.6-84.9,23
		c-21.7,2.5-43.6,1.9-65.1-1.7c0.1-2.2,1.6-1.7,2.6-1.6c50.2,7.8,98-1.4,144.4-20.7c24.7-10.2,50-17.2,77.1-15.4
		c19.4,1.3,38.8,3.1,57.7,8L456,44z"/>
	<path fill="#6E880A" d="M449.5,175.5c-15.9,2.4-31.9,4.6-47.8,7.3c-44.9,7.3-89.3,17.5-132.9,30.3l-1.7,0.8
		c-1.2-0.4-2.5-0.2-3.5,0.7c-1.4,0-2.7,0.4-3.8,1.2c-19.2,7-38.4,14.1-57.3,21.9l-4.2,1.1v-2l12.3-5.1c1.6-0.5,3.2-0.9,4.7-1.5
		c18.9-6.4,37.1-15.1,56.4-20.5c58.1-16.1,116.8-28.5,176.7-35.8L449.5,175.5z"/>
	<path fill="#FBC809" d="M145.4,242.7c0.1,0.2,0,0.4-0.1,0.5c-6.7,3.3-14.7,2.8-21,7.3c-2.6,1.8-3.7-0.7-4.2-3
		c-1.4-7-2.7-14.1-2.4-21.2c0.1-5.5-0.3-11-1.3-16.4c-1.7-9.9-8-16.9-15.2-23.4c-2.5-2.2-6.9-4-6.2-7.8c0.8-4.1,5.7-4,9-5.1
		c7.2-2.5,14.8-3.9,21-8.8c0.8-0.7,1.7-1,2.8-1c6.5,1.6,8.8-1.9,10.2-7.4c0.6-2.1,2.5-3.9,4.2-5.5c5.5-5.2,10.2-10.8,13.4-17.8
		c2-4.5,4.4-4.6,7-0.3c3,4.8,5.5,9.8,8.1,14.9c3.9,7.6,9.2,13.4,17.6,15.9c6,1.8,10.9,6.5,17.4,7.3c1.8,1.3,4,0.7,5.9,1.2l2.1,0.8
		l-2.3,1c-2.8,0.2-5.7-0.2-8.3-1.3c-4.9-2-9.5-5-14.5-6.6c-9.8-3.1-16.1-9.6-20.3-18.6c-1.8-3.9-4-7.7-6.1-11.4
		c-0.8-1.5-1.6-3.2-4-4.2c-3.3,9.5-10,16.2-16.7,22.9c-1.6,1.7-2.6,3.9-3,6.2c-0.8,3.8-3.2,5.7-7.2,5.2c-1.8-0.2-3.7-0.6-5.3,0.6
		c-7.3,5.7-16.4,7-24.8,10.1c-5.4,1.9-5.7,2.7-1.2,6.1c14.8,11.1,20.8,25.8,19.7,43.9c-0.4,6.5,1,12.9,2.1,19.3
		c0.2,1.2,0.5,3.8,2.6,2.2c5.8-4.3,13.1-3.5,19.2-6.5C144.3,241.9,145.1,241.9,145.4,242.7z"/>
	<path fill="#753121" d="M513.1,19.7l4.3-0.8c-18.8,14.8-30.7,33.7-35.3,57.3c-9.8,49.9,25.8,102.5,75.8,111.6
		c8.5,1.6,17.2,2.3,25.8,1.9c0.9-0.1,2.6-0.9,2.3,1.2c0,0.3-1.1,0.4-1.7,0.7c-1.4-1.6-2.5-0.1-3.8,0.4l-9.1-0.2
		c-1.2-1.4-2.6-0.7-4-0.5c-3.5-0.5-6.9-0.9-10.4-1.5c-51.8-10.1-87-62.6-77-114.4C484.6,52.7,495.8,34.4,513.1,19.7z"/>
	<path fill="#6E880A" d="M217.5,172.1c67.3-26.5,136.8-44.6,208.3-55.7c0.7,0.1,1.9,0,2.1,0.4c0.5,0.9-0.9,0.9-1.2,1.5
		c-17.3,2.5-34.4,5.8-51.5,9.3c-52.5,10.7-103.9,25.8-153.9,45.2C219.9,173.1,218.6,172.8,217.5,172.1z"/>
	<path fill="#FBC80B" d="M580.7,191.8c1.2-0.5,2.3-2,3.8-0.4c-16.4,15.2-35.8,21.9-58,20.1c-24.8-2-47.2-10.6-66.6-26.3
		c-3.2-2.4-6-5.2-8.3-8.5l1-1.1c3.2,2.9,6.2,6,9.5,8.7c18.8,15,40.5,23.1,64.4,25.1C546.9,211.1,565.3,205.8,580.7,191.8z"/>
	<path fill="#FBC80D" d="M267.1,213.9l1.7-0.8c8.5,10.9,17,21.8,25.3,32.8c1.7,2.3,4,4,6.7,4.9c13.1,4.9,26.2,9.7,39.1,15
		c2.4,1,6.3-0.3,6.8,1.8s-3.2,3.9-3.8,6.6c-0.6,0.7-2,0.5-2.1,1.8l-13.5,18.7c-0.7,0.1-1.4-0.3-1.8-0.9l17.7-24.7
		c-15.7-5.8-30.3-12.6-45.9-16.7c-0.9-0.3-1.8-0.8-2.3-1.6C285.8,238.5,276.4,226.2,267.1,213.9z"/>
	<path fill="#FBC90D" d="M456,44l1.5-1.2l3.1-2l1.2,1c-21.2,20.1-32.4,44.4-31.2,73.9l-1.9-1c-1.1-25.6,7.4-47.8,24.3-66.8
		C454.1,46.7,455,45.3,456,44z"/>
	<path fill="#FBC90E" d="M217.5,172.1c1.1,0.7,2.4,0.9,3.7,0.7c3.6,1.8,1.9,3.6-0.1,5.1c-4.8,3.6-8.7,8.3-11.3,13.8
		c-1.1,2.1-2.6,3.9-4.3,5.5c-5.2,4.6-7.8,11.5-7.1,18.4c0.3,3.3,0,6.6,0,10c-1.5,2.9-0.5,6.2-1.1,9.2c-0.6-0.3-1.1-0.7-1.7-1
		c0.3-8.3,0.5-16.6,1-24.8c0.2-3.7,1.8-7.2,4.5-9.8c7.5-6.8,9.9-17.6,20.1-23.5l-10-1.7l2.3-1L217.5,172.1z"/>
	<path fill="#FBC90E" d="M452.6,175.7l-1,1.1l-2.1-1.3l-1-1.5c-0.9-1.4-1.7-2.8-2.6-4.2c-9.3-14.1-14.9-30.2-16.4-47
		c0.6-2.9,1.3-0.4,2,0C433.6,142.4,440.4,160.1,452.6,175.7z"/>
	<path fill="#EFD669" d="M431.4,122.8c-0.7-0.4-1.3-2.9-2,0c-1.3-1.2-0.1-4-2.8-4.4c0.3-0.6,1.7-0.6,1.2-1.5
		c-0.2-0.4-1.4-0.3-2.1-0.4l2.9-1.8l1.9,1C432.3,117.9,431.4,120.4,431.4,122.8z"/>
	<path fill="#0D8174" d="M577.8,673.5c35.3,7.2,62.6,24.6,76.9,59.2c7.5,18.2,11,37.2,11.8,56.7c0.3,7.6,0.2,15.3,0.2,22.9l-0.3,4.3
		l-1.9-0.1c0.2-0.6,0.3-1.3,0.4-1.9c-0.3-20.7-0.3-41.5-5.5-61.8c0.2-0.9-0.1-1.8-0.9-2.3c-0.3-1.3-0.5-2.6-0.9-3.8
		c-8.1-25.5-21.3-46.8-46.1-59.4c-10.3-5.1-21-9.1-32.1-12l-1.8-1.7L577.8,673.5z"/>
	<path fill="#1A5E66" d="M709.4,607.4c0,4.1,1,8.3-0.8,12.3c-10.1-4.7-21-6.3-32-6.5c-22.8-0.6-45.5-1.1-68.2,1.6
		c-2.2,0.3-4.3,0.7-6.4,1l-2.1-0.2l-1-28c1.1,1.2,0.6,2.7,0.8,4c-0.2,0.9,0.3,1.8,1.2,2.1h0.1c0.2,5.5,0.5,11,0.6,16.4
		c0,2.5,0.6,3.2,3.5,3c34.5-3.1,69.1-5.6,103.3,3.2C708.7,613.6,709.1,610.5,709.4,607.4z"/>
	<path fill="#70890D" d="M566.4,615.8c-21.8-2-43.8-2.1-66.1-3.1c0.6,2.9,3.4,3.8,4.3,6l-0.1,0.1l-2.9-0.1
		c-7.8-8.6-16.1-16.7-23.2-25.9l0.2-2.2c5.3,5.9,10.7,11.8,16,17.6c1.4,1.5,2.7,2.6,5,2.7c22.2,0.8,44.5,1.7,66.7,2.6l2,0.2v2
		L566.4,615.8z"/>
	<path fill="#135D7E" d="M566.4,615.8l2-0.1c-0.2,10-0.4,20-0.8,30c-0.3,2.5,1,4.9,3.3,6c9.1,5.4,18.2,5.3,27.5,0.4
		c2.3-1.2,3.3-2.7,3.1-5.5c-0.7-10.3-1.1-20.6-1.7-30.9l2.1,0.2c0.6,11,1,22,1.8,32.9c0.2,1.3-0.4,2.5-1.5,3.2
		c-9.4,7.9-26.8,7.5-35.6-0.9c-1-0.8-1.5-2.1-1.4-3.3C565.9,637.2,566.1,626.5,566.4,615.8z"/>
	<path fill="#10BA52" d="M676.9,883.6c0.8,0.5,0.7,1.2,0.7,2l-2,0.8c-7.9,2.6-16.2,3.8-24.6,3.3c-4.3-0.3-8.7-0.1-12.9,0.6
		c-15.2,2.9-30.4,5.6-45.6,8.3c-0.4-0.4-0.7-0.8-1.1-1.2c6.5-2.8,13.5-3.3,20.3-4.3c13.5-1.8,26.5-6.6,40.3-5.6
		c7.6,0.5,15.3-0.6,22.5-3.1L676.9,883.6z"/>
	<path fill="#168579" d="M676.9,883.6l-2.2,1c0.2-2.1-0.9-3.9-1.5-5.8c-3.5-10.8-6.6-21.6-7.9-32.9c0.3-0.9-0.1-1.9-0.9-2.4
		c0.8-1.8,1.2-3.8,1.1-5.7c-0.2-6.3-0.2-12.6-0.3-18.9c0.9-0.3,1.4-1.3,1.2-2.2l0.3-4.3c1.3,8.2,1.1,16.6,0.7,24.8
		c-0.6,14.2,3.5,27.5,7.7,40.8C675.7,879.9,676.3,881.7,676.9,883.6z"/>
	<path fill="#738C13" d="M504.6,618.7c11.2,10.4,22.4,20.8,33.6,31.3c0.5,0.5,1.5,1,0.6,2l-3.4-1.9c-10.6-9.4-21.1-19-31-29.2l0.1-2
		L504.6,618.7z"/>
	<path fill="#158578" d="M535.4,650l3.4,1.9c8.7,8.4,19.3,13.7,30.2,18.6l-3.6,1c-9.6-5.1-19.4-10.1-27.6-17.5
		C536.7,653,534.2,652.5,535.4,650z"/>
	<path fill="#18877B" d="M675.6,886.5l2-0.8c4.2,9.6,8.8,19,14,28.1l-0.1,0.1l-2.2-0.2C683.9,905,679.9,895.7,675.6,886.5z"/>
	<path fill="#0DB250" d="M565.4,671.5l3.6-1l1.5,0.4c0,0.6,0,1.2,0,1.7c-4.3,0.7-8.6,1.5-13,0.9l-1-1.7L565.4,671.5z"/>
	<path fill="#0D8174" d="M570.6,672.7c0-0.6,0-1.2,0-1.7c2.4,0.8,5,1,7.2,2.6l-0.2,0.2c-0.9,0.5-2,0.6-3,0.1
		C573.1,673.9,571.7,673.5,570.6,672.7z"/>
	<path fill="#0A577A" d="M599.6,591.7c-0.2-1.3,0.3-2.8-0.8-4c-0.4-9-0.9-18-1.2-27c-1.2-35-2.6-69.9-3.6-104.9
		c-1-35.6-1.6-71.3-2.3-106.9l2,1c0.8,35.8,1.5,71.6,2.4,107.3c0.6,24,1.7,47.9,2.3,71.9c0.1,3.6,0.9,4.6,4.6,4.8
		c34.8,1.9,69.5,2.3,104.3,0.9c2.4-0.1,4.3,0.2,4.4-3.5c1.1-43.8,2.4-87.5,3.7-131.3l2.1-0.4c-1.1,39.6-2.2,79.1-3.4,118.7
		c-0.8,24.4-1.7,48.9-2.6,73.3l-1.9-0.2c0.6-16.7,1.1-33.3,1.9-49.9c0.2-3.8-0.6-5.1-4.7-4.9c-34.6,1.6-69.3,1.3-103.9-0.9
		c-3.7-0.2-4.4,0.8-4.2,4.3c0.9,17.1,1.5,34.3,2.2,51.4L599.6,591.7z"/>
	<path fill="#FBC80D" d="M593.7,350l-2-1c-5.6-3.9-10.5-2.2-15.2,1.7l-2,1.2c-5.7,2.6-11.7,4.7-17.9,6.2c-4.1,1-5-0.8-5.1-4.1
		c-0.2-7.6-0.9-15.2-0.7-22.8c0.2-6.5-0.7-12.4-5.5-17.3c0-0.7,0.1-1.3,0.2-2l0.2-0.2c2.6,3.4,6.8,6.1,7,10.9
		c0.5,10.3,0.7,20.6,0.8,30.9c0,2.6,0.8,3,3.2,2.5c6-1.5,11.9-3,17.1-6.5c6.6-4.5,13.2-5.9,20.9-1.6c5.6,3.1,12.1,4.4,18.2,6.6
		c2.9,1.1,3.8,0.3,3.8-2.8c0.1-8.8,0.5-17.6,0.8-26.4c0-2.1,0.7-4.1,1.8-5.9c4-6.5,8.2-12.9,13.4-18.6c1.9-2.1,1.1-2.8-1-3.7
		c-7.7-3.1-15.3-6.4-23-9.6c-1.2-0.5-2.9-0.9-3.5-1.8c-3.5-5.9-8.9-10.3-12.5-16l2.8,0.2c9.3,16.8,26.4,21.3,43,27.4
		c-6.5,6.8-12.1,14.2-16.8,22.3c-1.4,2.4-2.2,5.2-2.2,8c-0.1,9-0.6,18-0.7,27c0,3-0.7,3.8-3.7,2.7
		C607.9,354.5,600.8,352.3,593.7,350z"/>
	<path fill="#0A577A" d="M62.4,852c2.7,0.6,0.4,2.9,1.3,4c0,1.3,0.1,2.7,0.1,4c-1.3,42.6-2.5,85.3-4.2,127.9
		c-0.4,9.5,1.8,11.7,10.8,14.4c8,2.4,16.3,3.5,24.6,3.4c4.7-0.1,9.3-1.1,13.5-3.1c6.8-3.1,9.9-8.6,9.6-15.6
		c-1.6-38.3-3.3-76.6-4.7-114.8c-1.1-30.8-1.9-61.6-2.7-92.4c-0.5-20.3-0.8-40.6-1.2-61l2.1,0.1c-0.7,11.8,0.3,23.6,0.7,35.4
		c0.9,36,1.9,71.9,2.9,107.8c0.7,25.5,1.6,50.9,2.4,76.3c0.2,3.5-1.4,7.1,1.1,10.4c-0.2,12.5,0.9,24.9,1.4,37.4c0.1,3,1.4,7-0.1,8.7
		c-3,3.5-5.9,7.6-10.6,9.5c-3.1,1.2-6.2,2.6-9.6,2.7c-14.1,0.3-28.3,0.8-40.3-8.7c-1.5-0.9-2.3-2.6-2.1-4.3
		c0.8-26.1,1.6-52.2,2.5-78.3C60.8,894.5,61.6,873.2,62.4,852z"/>
	<path fill="#1B5F64" d="M118.8,948.8c-2.4-3.2-0.8-6.9-1.1-10.4c0.3,1.4,0.5,2.9,0.5,4.4c-0.3,3.2,1.2,4.3,4.2,4.7
		c13.7,1.8,27.4,2.8,41.2,1.4c9.9-1,19.8-3.1,29.8-2.5c16.4,1,32.5,0.6,48.5-3.3c5.4-1.3,11.4-1.2,15.6,3.8l2.1,2.9l0,0l-1.9,0.9
		c-2.1-4.6-6.1-5.8-10.7-5.9c-5.4-0.1-10.5,1.2-15.7,2.4c-6.4,1.5-12.8,2.7-19.2,2c-16.3-1.6-32.5,0-48.7,1.8
		C148.4,952.7,133.6,951.6,118.8,948.8z"/>
	<path fill="#08B84D" d="M257.8,985l-0.1-2.5c21,0.6,42,0.8,63,0.5c39.8-0.5,79.6-1.5,119.4-4.1c31.5-2,62.3,4.7,93.4,8.1
		c18.7,2.1,37.5,3.8,56.3,1.8c17.9-1.8,35.9-2,53.9-0.5c22.1,1.7,44.3,1.8,65.7-5.8c12-4.4,24.5-7.4,37.2-8.9
		c0.9-0.1,1.8,0.4,2.2,1.3c-3.7,1.8-7.7,1.4-11.6,2.1c-7.9,1.2-15.6,3.3-23.1,6.2c-17.7,7.1-36.3,8-55,8c-17.8,0-35.6-3.6-53.4-1.4
		c-38.8,4.8-77-0.6-115.3-6.4c-22.5-3.4-45.2-3-67.8-1.5c-32.9,2.2-65.9,2.5-98.9,3.2c-19.8,0.4-39.6,0.1-59.5-0.2
		C262.1,984.8,260,985,257.8,985z"/>
	<path fill="#185D62" d="M545.6,311.8c0,0.7-0.1,1.3-0.2,2c-24.2-0.1-48.2,2.4-72,6.5c-18.5,3.2-36.8,7.9-55.7,8.9
		c-11.5,0.6-23,0.4-34.5,1.1c-22.5,1.4-44,9.1-66.3,11.5c-0.9-0.2-1.4-1-1.2-1.9c0-0.1,0-0.1,0.1-0.2l1.2-0.3
		c15.1-1.3,29.8-4.9,44.6-8.1c9.3-2,18.7-3.6,28.2-3.4c25.1,0.5,49.8-2.8,74.3-7.9c26.1-5.5,52.6-7.9,79.3-8.4L545.6,311.8z"/>
	<path fill="#FBC90F" d="M545.6,311.8l-2.2-0.2c-2.9-3.9-5.6-7.9-8.6-11.6c-2.4-3-1.9-4.8,1.5-6.4c9.2-4.2,18.3-8.7,27.5-12.9
		c2.1-0.9,3.9-2.4,5.4-4.2c5.5-6.9,11-13.7,17.2-21.4c-0.1,6.1,4.5,8.6,6.9,12.4l-0.8,1.8c-3.3-2.1-4.5-8.3-8.1-7.4
		c-3.1,0.7-5.2,5.6-7.8,8.7c-0.4,0.5-0.8,1.1-1.2,1.6c-4.7,5.3-8.1,11.5-16.2,13.3c-7,1.6-13.2,6.1-19.9,9c-3.5,1.5-4.4,2.7-1.6,5.9
		c3,3.5,5.5,7.5,8.2,11.3L545.6,311.8z"/>
	<path fill="#FBC705" d="M316.9,339.4l-1.2,0.3c-0.1-2.8-0.1-5.5-0.2-8.3l0.4-24.6l1.6,0.9C317.3,318.3,317.1,328.8,316.9,339.4z"/>
	<path fill="#F6D553" d="M317.5,307.7l-1.6-0.9c2.2-5.1,6.3-8.9,9.7-13.1c0.4,0.6,1.1,1,1.8,0.9c0.1,0.4,0.1,0.8,0.2,1.3
		c-0.2,0.7-1.1,1.3-0.3,2.2C322.1,299.3,321.3,305.1,317.5,307.7z"/>
	<path fill="#FBC80A" d="M73.5,507.6c-10.7,3.2-21.4,6.2-32,9.5c-3.2,1-3.9,0.2-4.1-3c-1.1-16.4-2.4-32.9-3.7-49.3
		c-0.3-5.5-2.3-10.8-5.7-15.1c-7.1-9-14.1-18.1-21.3-27c-1.8-2.2-2.1-3.3,1.1-4.3c16.7-5.6,32.8-12.9,48.8-20.2
		c1.3-0.7,2.4-1.7,3.2-2.9c9-11.5,18.7-22.5,27.3-34.4c1-1.2,2.2-2.2,3.6-2.9c-1.7,4,1.2,6,3.1,8.3c9.4,11.6,19.7,22.5,28.5,34.6
		c1.1,1.3,2.5,2.2,4.1,2.7l14,5.1c0.4,1.1,1.3,1.1,2.2,0.9l13.8,5.1l0.2,2.1c-11.2-4.1-22.5-8.2-33.7-12.2c-1.6-0.6-2.2-1.8-3.1-3
		c-8.8-12.5-19.5-23.6-29-35.5c-2.1-2.6-3.2-2.4-5.1,0.1c-7.2,9.2-14.6,18.2-21.9,27.3c-3,3.7-5.9,6.8-10.8,8.8
		c-13.8,5.7-27.3,12.2-41.5,17c-3.1,1-3.6,2-1.4,4.7c7.3,9,14.1,18.6,21.8,27.3c3.6,4.1,4,8.5,4.2,13.1c0.6,16.1,2.2,32.1,3.2,48.2
		c0.2,3.5,2,2.5,3.9,2l27.3-7.9C71.5,506.8,72.7,506.5,73.5,507.6z"/>
	<path fill="#196181" d="M142.6,409.6c-0.9,0.2-1.8,0.2-2.2-0.9c1.1-33.7,2.1-67.5,3.1-101.2c0-1.4,0.6-3-0.8-4.2l2.9-0.5
		c0,1.8,0.1,3.7,0.1,5.5C144.6,342,143.6,375.8,142.6,409.6z"/>
	<path fill="#FAD95F" d="M73.5,507.6c-0.8-1.1-2-0.7-3-1c2.5-1.7,5.1-2.9,8.2-2.6c-0.1,0.8,0.3,1.5,1,1.8l-3.2,1.3l-2.1,0.7
		C74.1,507.8,73.7,507.7,73.5,507.6z"/>
	<path fill="#115C7E" d="M64.4,847.7l-2,0.9c1.3-35.3,2.5-70.5,3.8-105.8l2.4-0.2c-0.3,4-0.7,7.9-0.8,11.9
		C66.6,785.7,65.5,816.7,64.4,847.7z"/>
	<path fill="#0E5A7C" d="M72.6,561.7l2.3,0.1c-1.1,29.2-2.2,58.5-3.3,87.7c-0.8,20.8-1.6,41.5-2.4,62.2c-1.6,1.6,0.8,4.8-2.2,5.9
		c0.9-23,1.8-45.9,2.5-68.9c0.3-10.3,1.4-20.6,0.9-30.9c2.3-3.3,0.8-6.9,1-10.4C71.8,592.2,72.2,577,72.6,561.7z"/>
	<path fill="#718B10" d="M709.6,593.9c-36.2-2-72.4-1.3-108.5,0c-0.9-0.2-1.5-1-1.4-2v-0.1l1.1-0.2c36.3-0.8,72.5-1.5,108.8,0
		l1.9,0.2v1.9L709.6,593.9z"/>
	<path fill="#FAD54D" d="M156.6,240c-3.2,0.1-6.1,1.3-9.1,2.1l-2.1,0.6c-0.3-0.9-1.1-0.9-1.8-1c0.8-1.3,2-2.2,3.5-2.6
		c9.2-2.8,19.2-1.6,27.5,3.3l0.1,2.1l-2.9-0.6l-2-0.8c-3.7-0.9-7.1-3.3-11.2-2.8L156.6,240z"/>
	<path fill="#12BB53" d="M690.5,915.9c-20-0.5-39.8,1.7-59.6,3.3c-17.9,1.6-35.9,0.1-53.3-4.4l2-1.1c15.4,2.8,30.9,5,46.5,3.8
		c21-1.6,42-4,63.1-3.9l2.2,0.2C691.6,914.7,691.2,915.5,690.5,915.9z"/>
	<path fill="#C4CD9B" d="M633.4,231.6c-0.7-1.2-2-0.5-3-0.9c2.8-1.5,6-1.2,10-2.2C638.4,230.1,636,231.2,633.4,231.6z"/>
	<path fill="#FBC80C" d="M263.6,214.5c-8.9,11.4-17.9,22.7-26.8,34.1c-1.3,1.7-3.1,1.7-4.7,2.4c-12.9,5.4-25.6,11-38.5,16.3
		c-2.8,1.1-2.6,2.1-1.1,4.2c7.6,10.7,15,21.6,22.5,32.4c1.2,1.7,1.8,3.7,1.8,5.8c0.7,16.1,1.8,32.2,2.8,48.5l29.9-8.5l-1,1.9
		c-8.7,2.7-17.5,5.3-26.1,8.2c-3.8,1.2-4.8-0.6-5-3.7c-0.6-9.8-1.2-19.6-1.8-29.4c-0.4-5.8-0.8-11.6-1-17.4c-0.2-2-0.9-3.9-2.2-5.4
		c-7.3-10.5-14.5-21.1-22-31.5c-2.5-3.4-3-4.9,1.7-6.7c13.1-5.1,26-10.9,39.1-16.4c2.5-1,4.6-2.6,6.2-4.7
		c7.4-9.6,14.9-19.2,22.3-28.7C260.9,214.9,262.3,214.5,263.6,214.5z"/>
	<path fill="#FBCA12" d="M198.4,242.7c0,2.8,0.1,5.6,0.1,8.4c0,1.3-0.7,3.4-2.1,1.8c-5-5.4-12-4.9-18.1-7c-1.2-0.4-2.4-1-3.6-1.5
		l-0.1-2.1c6.8,3.5,15,2.4,21.7,7.6c0.4-5.9-1.4-11-0.5-16.2c0.6,0.3,1.1,0.7,1.7,1c0.3,0.7,0.6,1.4,0.9,2.1c0,0.6,0,1.3,0,2
		L198.4,242.7z"/>
	<path fill="#10BA52" d="M620.6,815.7c10.4-1.7,20.8-1,31.2-0.5c4.3,0.2,8.5,0.9,12.8,1.4l1.9,0.1c0.2,0.9-0.3,1.9-1.2,2.2
		c-15.4-2.6-30.9-2.6-46.5-1.4L620.6,815.7z"/>
	<path fill="#1CBE5A" d="M659.4,752.9c-15,0.4-30,2.1-44.9,3.7v-1.8c14.6-2.5,29.3-3.2,44-4.2C659.3,751.1,659.7,752,659.4,752.9z"
		/>
	<path fill="#1FBB5E" d="M579.3,675.4c-4.4,1.2-8.1,4.2-12.9,4.2l-0.9-0.9c2.7-2.2,7-1.4,9-4.8c1,0.4,2.1,0.4,3-0.1L579.3,675.4z"/>
	<path fill="#10BA52" d="M391.8,626.5c21.1-0.6,42.1-2.5,63.2-4.2c15.6-1.2,31.1-2.5,46.7-3.7l2.9,0.1l-0.1,2
		c-37.7,2-75.3,6.4-113,8.1c-0.6-0.5-0.9-1.2-0.8-2L391.8,626.5z"/>
	<path fill="#10BA52" d="M478.4,592.7c-28,4.8-56.4,5.9-84.7,8v-2c15.3-1.1,30.6-1.9,45.8-3.2c12.4-1.1,24.9-2.1,37.1-4.8h2.1v-0.1
		C478.6,591.3,478.6,592,478.4,592.7z"/>
	<path fill="#165F7F" d="M566.4,613.5c0.1-6.5,0.2-13.1,0.3-19.6l1.9-0.4c-0.1,6.8-0.2,13.6-0.3,20.3L566.4,613.5z"/>
	<path fill="#10843C" d="M592.6,898.7c-7.8,2.9-13.1,9.8-21.9,12.4l9,2.7l-2,1.1c-11.1-2.2-22.1-4.4-33.2-6.5
		c-1.6-0.3-3.3-0.3-4.9-0.5c-0.7-0.6-0.9-1.5-0.6-2.3c5.6,0.5,11.2,1.5,16.6,3c9.7,2.7,18.3,0.8,26.1-5.6c2.9-2.4,6-4.8,9.9-5.4
		C591.8,897.9,592.2,898.3,592.6,898.7z"/>
	<path fill="#18BC58" d="M617.5,837.8c15.9-0.6,31.7,0,46.9,5.7c0.8,0.5,1.2,1.5,0.9,2.4c-13.7-5.4-28.2-6.5-42.7-6.2
		c-2,0-4-0.1-5.9-0.2L617.5,837.8z"/>
	<path fill="#0D833A" d="M557.6,673.5c-4.8,0.2-8.8-1.1-13.1-3.7c-5.3-3.1-11.9-2.9-18-1.6c-13.2,2.7-26.2,5.8-39.4,8.4
		c-17.5,3.4-35.3,3.9-52.9,6c-4.8,0.6-9.6,0.8-14.4,1.2l-1.2-1.3c11.4-1.3,22.7-3,34.1-3.8c21.7-1.6,43.2-5.2,64.2-10.7
		c9.7-2.5,19.3-3.7,28.9-0.3c3.6,1.2,6.6,4.2,10.7,4L557.6,673.5z"/>
	<path fill="#0C597B" d="M479.6,523.6c18.4,1.7,36.8,3.3,55.2,5c9.9,0.9,19.9,1.6,29.8,2.6c2.8,0.3,4.1,0.2,4.2-3.2
		c1.2-40.9,2.4-81.8,3.8-122.8c0.6-17.8,1.2-35.6,1.8-53.4l2-1.2c-1.1,32.3-2.1,64.5-3.1,96.8c-1.2,39.6-2.5,79.2-3.6,118.8
		c0,1.5-0.2,3-0.2,4.5l-1.9-0.8c0.3-10,0.2-20,1.1-30c0.5-5.7-1.6-6.8-6.6-7.2c-25.4-1.9-50.8-4.1-76.1-6.3
		c-3.1-0.3-6.6,0.4-9.4-1.9C477.2,523.5,478.5,523.9,479.6,523.6z"/>
	<path fill="#1C6066" d="M239.8,742.6c0-1.8-0.1-3.7-0.1-5.5c0.2-8.8,0.2-8.8-8.6-10.3c-10.8-1.8-21.8-2.6-32.8-2.3
		c-29,0.4-57.8-2.8-86.6-5.7l-2.1-0.1v-2c2.1-4.3,0.2-8.9,1.1-13.2c0.2,3,0.8,6,0.6,8.9c-0.3,3.8,1.4,4.8,4.7,5
		c17.8,1.4,35.5,2.9,53.3,4.3c23.7,1.9,47.7-1.1,71.1,4.7C240.4,731.8,241.3,737.3,239.8,742.6z"/>
	<path fill="#118377" d="M257.6,946.9c1-0.3,1-1.2,1.2-2c7.3-32.1,26.7-56.4,50.4-77.8c6.6-6,13.6-11.6,20.4-17.5l1.9,0.9l0.3,0.3
		c-4.9,4-9.8,7.9-14.5,12c-9.5,8.2-19.2,16.3-26.6,26.7c-1.2,0.1-2,0.7-2,2c-13.9,16.5-24.2,34.8-28.2,56.3
		c-0.2,0.6-0.4,1.2-0.8,1.8L257.6,946.9z"/>
	<path fill="#FBC910" d="M316.9,341.8c-0.1,4.8-0.3,9.6-0.2,14.5c0.1,3.8-1.3,4.6-4.8,3.6c-9.7-2.9-19.5-5.5-29.2-8.2
		c0-0.6,0-1.3,0-1.9c9.7,2.6,19.4,5.2,29,7.9c2.6,0.7,3-0.2,3-2.5c0.2-7.9-0.5-15.9,0.8-23.8c0.1,2.8,0.1,5.5,0.2,8.3
		c-0.3,0.8,0.2,1.8,1,2C316.7,341.8,316.8,341.8,316.9,341.8z"/>
	<path fill="#1A6282" d="M156.6,240l1.9,0.3c0.4,32.3,0.7,64.6,1.1,96.9c0.3,26.2-0.4,52.3-0.9,78.4c-0.4,0.8-1.3,1.3-2.2,1l0.1,0.1
		c-0.1-0.7-0.1-1.4-0.2-2.1c2.1-40.6,1.2-81.2,0.7-121.8C156.9,275.3,156.7,257.7,156.6,240z"/>
	<path fill="#FBCC1E" d="M78.6,503.9c2.8-1.2,5.8-1.3,8.5-3.4c2-1.6,4.9,0.6,7.3,1.3c-0.8,1.2-2,0.8-3.1,1l-11.7,2.9
		C78.9,505.5,78.5,504.7,78.6,503.9z"/>
	<path fill="#095779" d="M179.6,551.7c-0.6-10.3-1.6-20.6-1.9-30.9c-3.2-90.9-6.4-181.8-8-272.7c0-1.7,0-3.3,0-5l2,0.8
		c1.1,47.5,2.1,94.9,3.4,142.4c0.9,33.8,2.3,67.6,3.5,101.4c0.3,9.3,0.8,18.6,1,28c0,3.2,0.9,4.2,4.3,4c20.1-1.4,40.3-1.2,60.4,0.7
		c3.7,0.3,3.2-1.7,3.3-3.8c0.6-20.3,1.2-40.6,1.7-60.9c0.6-27,1.2-54,1.7-80.9c0-0.8-0.1-1.6-0.3-2.5c1.1-7,0.6-14,0.8-21l2-0.5
		c0.1,1.4,0.1,2.7,0.2,4.1c-0.1,1.8-0.2,3.6-0.3,5.5c-0.5,53.8-3.5,107.6-3.4,161.4c0,8.7-0.6,17.4-1.7,26.1c-1.8,1.9,0.6,5-1.9,6.7
		c0.2-9.2,0.2-18.3,0.8-27.5c0.2-3.8-1-4.9-4.5-5.1c-19.5-1.2-38.9-1.8-58.4-0.6c-3.3,0.2-4.5,0.9-4.2,4.6
		c0.6,7.1,0.5,14.3,0.7,21.5C180.4,548.9,181,550.6,179.6,551.7z"/>
	<path fill="#0A577A" d="M137.7,517.1c-0.7,33.8-1.4,67.6-2.2,101.4c-0.1,2.5,0.9,3.5,3,4.2c2.7,0.8,5.4,1.8,7.9,2.9
		c11.9,5.7,23,2.4,33.9-3c2.8-1.4,2-3.5,1.9-5.5c-0.9-19.6-1.9-39.2-2.8-58.9c-0.1-1.5,0-3,0.1-4.5l1.6,1c0.2,4.9,0.3,9.9,0.5,14.8
		c0.2,2.8-1.2,5.7,1,8.3c0.6,13.4,1.2,26.8,1.7,40.2c0.1,1,0.5,1.9,1.2,2.6l-1,1.8c-10.2,5.6-20.5,10.7-32.7,7.2
		c-5.7-1.7-11.3-3.9-16.9-6c-1.1-0.4-2-0.6-2-2.7c0.9-32.1,1.6-64.3,2.4-96.4c0.1-3.3-1.1-3.8-4-3.6c-7.5,0.7-15,1.3-22.4,1.5
		c-3.3,0.1-3.7,1.4-3.6,4.2c1.3,35,2.5,69.9,3.6,104.9c0.7,24,1.2,48,1.7,71.9c-0.9,4.4,1,9-1.1,13.2c-0.6-17.6-1.3-35.2-1.7-52.9
		c-1.3-52.6-3.2-105.1-5.3-157.6l2.1,0.8c0.2,3.6,0.4,7.2,0.4,10.9c0,2.1,0.8,2.9,3,2.7c8.4-0.7,16.8-1.2,25.2-1.7
		c2.1-0.1,2.6-1,2.1-2.8l0.6-1.5l1.6,0.3C137.6,515.6,137.7,516.4,137.7,517.1z"/>
	<path fill="#0D597B" d="M96.6,504.9c-0.1,79.9,1.2,159.8,3,239.7c-2.6-0.2-2-1.7-2-2.7c-1.9-79.1-3.2-158.2-2.9-237.4L96.6,504.9z"
		/>
	<path fill="#F8D552" d="M96.6,504.9l-2-0.4l-3.2-1.7c1.1-0.2,2.3,0.1,3.1-1c4.4,1,9.2,0.8,13.1,3.7v2l-2.9-0.6l-2.1-0.8L96.6,504.9
		z"/>
	<path fill="#9A1440" d="M543.1,848.8c0.3,5,1,9.7,6.3,12.5c2.8,1.5,2.5,4.8,1.9,7.6c-1.7,7.1-6.8,10.1-13.6,10.9
		c-1.1,0.1-2.3-0.3-3.1,0.8l-3,1.3l-3.1,1.6c-3.5,1.3-7,2.5-10.8,2.4l-2.2-0.1c-1.6-0.5-3.3,0.4-4.8-0.8l-2.1-0.3l-2-0.7l-5.6-1.3
		c-3.8-3.6-4-8.2-3.2-12.8c1.7-9.7,2.9-19.6,6-29c1.3-2.1,1.9-4.5,1.8-7c2.2-6.2,4-12.5,6.7-18.5c1.7-3.8,0.9-5.6-2.8-6.6l-2.8-2
		c-3.4-5.2-3.6-10.6-2.4-16.6c2-9.7,7.6-17.8,11.1-26.8l2-0.3c-0.9,3.9-2.9,7.4-4.7,10.9c-3.2,6.1-5.8,12.3-6.9,19.1
		c-0.9,5.4-0.2,10.4,4.6,13.8c5.6,4.1,11,2.1,12.2-4.7c1.7-9.2,3.1-18.4,0.4-27.7c-0.3-0.9-0.8-1.9,0.5-2.5c1-0.1,1,0.7,1.2,1.2
		c3.3,10.7,1.7,21.4-0.8,32c-0.5,2.5-2.5,4.5-5,5.1c-2.7,0.5-3.4,2.2-4.3,4.2c-3.6,8.1-5.1,16.8-8.1,25.1c-3.7,10.1-5,20.7-6.7,31.1
		c-0.6,3.5-1.4,8.4,2.7,9.8c7.6,2.6,15.6,5.3,23.8,1.6c5-2.2,9.9-4.4,15.5-5.3c4.4-0.7,7.6-5.4,7.8-9.9c0.1-2-0.3-3.6-2.2-4.6
		c-4.9-2.6-6.1-7.1-5.9-12.2l1-1.3h0.3H543.1z"/>
	<path fill="#0E833A" d="M501,882.6l5.6,1.3c-0.4,2.5-2.2,1.4-3.5,1.2c-30.1-3.7-60.1-2.9-90.2,0.1c-7.8,0.8-15.6,1-23.4,1.5
		l1.9-1.8c12.9-1.1,25.9-2.3,38.8-3.2C453.8,880,477.5,880.3,501,882.6z"/>
	<path fill="#12BB53" d="M391.5,885l-1.9,1.8c-10.5,1.6-21.2,1.7-31.8,2.4c-23,1.5-46.1,2.7-69.2,2.5c0-1.4,0.8-1.9,2-2
		c7.8-0.2,15.6-0.3,23.4-0.5C339.9,888.5,365.7,886.5,391.5,885z"/>
	<path fill="#9C1945" d="M538.9,905.5c-0.3,0.8-0.1,1.7,0.6,2.3c0,4.1,0.1,8.3,0.1,12.4c0,1.8-0.5,3.5-2.6,3.5
		c-2.7,0-5.2-1.4-6.7-3.6c-1.4-1.9,0.2-2.6,1.5-3.3c2.3-1.4,2.1-3.7,1.7-5.8c-0.5-2.8-1.3-5.5-1.9-8.2c0.2-1.7-0.3-3.5,1.1-4.9
		l4-0.1c0.6,1,1.3,2,1.9,3L538.9,905.5z M537.6,913.4c0.4-2.5-0.3-5.9-0.9-9.3c-0.3-1.6,0.5-4.5-2.2-3.9c-2.3,0.5-0.6,3-0.4,4.7
		c0.3,1.8,1,3.5,1.3,5.3c0.5,2.7,0.5,5.3-1.4,7.5c-0.6,0.7-2.4,1.3-0.7,2.6c0.9,0.7,2,1.2,3.1,1.3c1.8,0,1.1-1.7,1.2-2.7
		C537.6,917.4,537.6,915.9,537.6,913.4z"/>
	<path fill="#9D1C47" d="M518.8,905.7c-0.2,2.8-0.1,5.6,0.5,8.4c0.4,1.6,0.4,3.3,0,4.9c-0.7,2.4-1.9,5.2-4.9,4.5s-4.9-4.1-3.6-6.1
		c3.4-5.3,0.8-10.2,0.5-15.2c0-0.8,0.2-1.6,0.4-2.5l1.1-0.1l2.9,1C519.9,900.2,518.1,903.7,518.8,905.7z M516.6,908h0.2
		c0-0.5,0-1,0-1.5c-0.1-1.2,0.8-2.8-0.9-3.5c-0.6-0.3-1.3-0.3-1.8,0c-1.3,1.1-0.5,2.5-0.1,3.6c1.1,3.3,1.7,6.4-0.8,9.4
		c-1.2,1.5-0.5,3.2,0.5,4.6c0.5,0.7,1.2,1.3,2,0.6c1.3-0.9,2-2.3,1.9-3.8C517.3,914.2,516.9,911.1,516.6,908z"/>
	<path fill="#B8A79E" d="M532.6,897.8c-1.5,1.4-0.9,3.2-1.1,4.9c-1.7-4.7-0.9-9.8-1.8-14.6c-0.3-1.6,0.4-3.4-1.2-4.6l3.1-1.6
		C531.9,887.2,532.2,892.5,532.6,897.8z"/>
	<path fill="#AF9A91" d="M518.8,905.7c-0.7-2,1.1-5.6-3.3-5.2c0-4.9,0-9.9,0-14.8l2.2,0.1c0.4,5.2-1.5,10.7,1.7,15.7
		C520.1,902.6,519.7,904.4,518.8,905.7z"/>
	<path fill="#B9A9A0" d="M512.6,899.6l-1,0.1c-3-4.7-1.8-10.1-2.9-15.1l2.1,0.3C511.4,889.8,512,894.7,512.6,899.6z"/>
	<path fill="#FBCC1F" d="M253.4,350.6l-2,0.5l-0.9,0.6l-2-0.1l1-1.9c2.4-0.9,5-1.5,7.2-2.8c6.9-4,13.2-1.3,19.7,0.9v2
		C268.8,347.1,261,346.3,253.4,350.6z"/>
	<path fill="#FBC808" d="M262.5,240c2.5,4.9,3,10.4,6.4,14.9c2-0.4,1.2-3.4,3.4-3.8c0.1,0.4,0.6,1,0.4,1.2c-4.1,5.6,0,8.8,3.6,11.9
		c8.8,7.6,18.9,11.6,30.8,9.8c2.6-0.4,6.4-1.8,7.9,0.9c1.4,2.4-1.8,4.7-3.5,6.6c-10.3,11.9-13,27-17.6,41.3
		c-0.8,2.4,0.3,4.9,0.5,7.4c0.3,4.2-1.1,5.3-5,3.7c-3.2-1.3-6.3-3.1-9.4-4.6c-6.2-3.4-13.7-3.7-20.2-0.8c-4.1,1.7-8.4,3.2-12.7,4.5
		c-7.1,2.1-9.8,0.5-11.4-6.8c-1.4-6.6-1.4-13.2-1.2-19.9c0.3-8.4-1.9-15.3-10-19.6c-4.1-2.2-4-4.7-0.3-7.8
		c5.7-4.7,12.6-6.4,19.8-7.4c8.4-1.2,16-4.3,21.8-11c1.6-1.9,2-3.4,0.6-5.7C263.8,250.4,262,245.5,262.5,240z M269.2,259.8
		c-7.5,8.8-14.4,12.5-25.6,14c-6.4,0.8-12.4,2.5-17.6,6.4c-2.2,1.7-3.4,3.5-0.1,5.2c8.9,4.5,11,12.2,10.7,21.3
		c-0.4,6.3,0,12.7,1.1,18.9c1.3,6.2,3,7.3,9,5.5c4.6-1.4,9.1-3.2,13.6-4.9c5.8-2.4,12.3-2.3,18,0.3c3.3,1.5,6.5,3.2,9.9,4.8
		c1.2,0.6,2.4,1.8,3.6,1.1s0.4-2.4,0.3-3.7c-0.1-1.8-0.8-3.8-0.3-5.4c4.4-14.6,7.3-29.8,17.4-42c1.3-1.5,3.2-2.8,3-5.8
		C294.7,279.1,280.7,273.2,269.2,259.8L269.2,259.8z"/>
	<path fill="#F8D75A" d="M276.6,349.9v-2c2.2-0.3,4.4,0.4,6,1.9c0,0.6,0,1.3,0,1.9l-1.8,0.2c-0.5-0.7-1.3-1.1-2.2-0.9L276.6,349.9z"
		/>
	<path fill="#FBC80B" d="M156.6,149.1c2.5,3.4,3.4,7.5,6.3,10.5c2.1-0.5,2.6-3.4,4.9-3.4c0.3,0.4,0.5,0.6,0.4,0.7
		c-3.6,6.3-3.6,6.3,2,12.1c5.1,5.2,10.2,10.4,18,11.9c4.3,0.9,5,4.7,4.1,8.4c-1.1,4.2-2.5,8.3-4.3,12.2c-2.6,5.6-4.4,11.5-5.5,17.6
		c-1,5.9-3.3,7.9-9.2,8.7c-4.3,0.5-8.7-0.1-12.8-1.7c-6.6-2.4-12.7-1.8-18,3.3c-1.2,1.2-2.7,3.1-4.7,2s-2.4-3.2-2.3-5.2
		c0.1-9.5-3.7-17.4-10-24.3c-1-1.1-1.9-2.3-2.7-3.6c-2.3-3.7-1.7-5.9,2.5-7.2c14.3-4.7,24.9-14.1,33.8-25.9c1.8-2.3,2.1-4,0.4-6.5
		C157.8,155.8,156,152.8,156.6,149.1z M170.6,225.7c7,0.1,9-1.4,10.4-8.9c1.1-5.5,2.8-10.9,5.2-16.1c1.7-3.8,3.1-7.7,4.2-11.7
		c0.7-2.7,0.5-5.7-3-6.4c-9.4-1.8-15.3-8.4-21-15.1c-3.1-3.7-4.2-3.2-6.8,0.4c-7.7,10.7-18.2,19.1-30.5,23.9
		c-6.4,2.5-6.9,2.7-2.2,8.1c6.5,7.6,10.9,15.8,10.8,26.1c0,1.1-0.2,2.6,1.1,3.1s2.1-0.9,2.9-1.6c5.7-5.4,12.3-6,19.4-3.5
		C164.1,225.1,167.3,225.7,170.6,225.7z"/>
	<path fill="#AD8A07" d="M514.1,702.6c7.6-5.6,18.1-5.2,25.1,1.1c6.4,5.7,9.4,13.1,10.3,21.4c0.5,3.3,0.7,6.6,0.7,9.9
		c-0.4,9.8,1.8,18.6,9.3,25.4c-0.4,0.6-0.8,1.1-1.2,1.7c-3-4.1-7.6-7.1-8.3-12.7c-0.1-0.9-1.1-1.5-2.1-1.9
		c-3.8-1.8-12.1-0.3-14.9,2.8c-0.9,1-2.1,2.4-1.2,3.5c2.8,3.6,4.5,8.1,9.2,10.2c2.1,1,4.4-0.5,6.7,0.8c-4.3,2.4-6.8,2.7-10.1-0.8
		c-4-4.3-9.3-7.3-15.1-8.5c-0.4-0.7-1.2-1-2-0.9l-2-1c-6.8-5.2-10.1-12.2-10.9-20.5c-0.4-3.4,1-7.4-3.2-9.6c4.5,0.6,6.2-2.9,8.2-6.2
		c1.5,2.5,0.3,4.2-0.9,5.8c-0.8,1-1.8,1.9-2.1,3.3c-2.7,10.9,5.1,24.9,15.7,28.1c2,0.6,4.6,2.1,4.3-2.3c-0.1-1.7,1.3-3,2.6-4.1
		c3.3-2.9,4.8-7.3,4.1-11.6c-0.3-1.8-0.6-3.6-0.9-5.4c-0.7-4.1-2.1-8-4.3-11.6c-3.4-5.6-8.3-7.9-14.8-6.7c-6.1,1.1-11,3.8-11.9,10.8
		l-1,0.2c-0.9-1.3,0.3-2.7-0.1-4.1c3.3-7,9.4-9,16.4-9.1c6.7-0.1,11.1,3.5,14.1,9.3c2.4,4.9,3.9,10.2,4.5,15.7
		c0.4,2.5,1.2,4.8,2.4,7c1.4,2.8,4,2,6.1,1.9c2.8-0.2,1.5-2.5,1.5-3.9c-0.2-5.5-0.3-11-1-16.4c-2-16.2-14.8-30.3-32.7-20.4
		C514.6,703.5,514.3,703.1,514.1,702.6z"/>
	<path fill="#0A8138" d="M399.7,702.8c18.5,0,37-0.5,55.2-4.2c14.8-3,29.2-7.7,44.2-10.3c7.4-1.2,14.9-2,22.3-2.2
		c15-0.6,29.8-3,44.2-7.4l0.9,1c-8,4.1-16.8,6.4-25.8,6.7c-30,1.3-58.9,7.7-87.9,14.5c-17.1,4-34.6,4.3-52.2,3.6L399.7,702.8z"/>
	<path fill="#185D62" d="M401.4,722.9c-17.5,0.5-34.8-1.8-52-3.9c-8.1-0.8-16.3-0.1-24.2,2c-11,2.7-22.2,3.3-33.3,4.5l-1.7-0.6
		c-1.3-0.4-2.4-0.9-0.7-2.2l2.5-0.1c7.5,0.6,15,0.1,22.3-1.5c16.1-3.8,32.3-5.4,48.8-2.5c11,1.9,22.1,2.6,33.2,2.3
		c3.6-0.1,2-1.5,1.3-3l1.6-1.1l2.4,3.6C401.6,721.2,401.5,722,401.4,722.9z"/>
	<path fill="#0E833B" d="M401.4,722.9c0.1-0.8,0.2-1.7,0.3-2.5c17.5-0.2,34.7-2.7,52-5.1c16.5-2.3,32.1-8.5,48.5-11
		c3.9-0.6,7.9-1.1,11.8-1.7c0.2,0.5,0.4,0.9,0.6,1.4l-1.2,1c-1.4-0.1-2.8-0.3-4.1,0.7c-2.3,0.2-4.6,0.3-6.9,0.6
		c-10.7,1.5-20.9,5-31.4,7.5c-22.2,5.3-44.8,7.3-67.5,9h-2.4L401.4,722.9z"/>
	<path fill="#158740" d="M558.4,762.2c0.4-0.6,0.8-1.1,1.2-1.7c16.7-1.2,33.4-3.1,50-5.3c1.6-0.2,3.3-0.3,4.9-0.4v1.8
		c-17.9,2.8-36,4.3-54,6.3l-2-0.4L558.4,762.2z"/>
	<path fill="#667F1C" d="M399.4,716.7l-1.7,1c-2.6-4.1-4.8-8.5-6.5-13c0.7-1,1.5-0.4,2.2-0.1C395.4,708.7,397.4,712.7,399.4,716.7z"
		/>
	<path fill="#23B758" d="M393.4,704.7c-0.8-0.2-1.5-0.8-2.2,0.1c-0.2,0.1-0.5,0-0.6-0.2c0.1-0.8-0.3-1.6-1-2c0-0.3,0.1-0.5,0.2-0.8
		l2-0.1l8,1.1l0.8,1.8L393.4,704.7z"/>
	<path fill="#AE8B09" d="M558.5,762.5l2,0.4c0.7,3.8,3,7.2,1.3,11.5c-0.7,1.7,1.4,3.2,2.8,4.4c2.9,2.2,6.2,3.9,9.7,5.1
		c4.1,1.5,7.5,4.5,9.4,8.4c0.5,1,1.5,2.1,0.6,3.2s-2.1,0.2-3.2-0.1c-1.4-0.4-2.4-1.8-4.3-1.2c3.7,4.3,7.6,8.4,9,14.7
		c-3.8-1.2-5.2-4.4-8-6.6c-0.1,4.1,1.8,7.4,2.4,11.3c-7-4.6-13.6-8.8-17.1-16.1c-0.8-1.8-2.2-3.7-2.1-5.5
		c0.5-8.2-5.9-10.2-11.2-12.5c-4.1-1.7-7.8-3.4-10.2-7.4c-1.3-2.2-3.4-3.7-5.8-4.4c-0.1-1-0.9-1.8-1.9-1.7c-0.1,0-0.2,0-0.3,0
		c-4.4-2.2-9-4.1-11.6-8.6c0.2-0.8,0.5-1.7,0.7-2.5c0.8-0.1,1.6,0.3,2,0.9c-0.2,3.8,2.9,4.7,5.4,6.1c4.4,2.4,9.4,4.1,12.4,8.2
		s6.6,5.9,10.9,7.9c5.5,2.5,11.8,4.9,11.8,13.5c0,5.1,3.7,9.7,8.2,13.1c0.9-2.3-0.4-4.1-0.9-6c-0.2-0.8-0.7-1.6,0.3-2.1s1.5,0.4,2,1
		c1,1.5,0.6,3.7,2.4,4.9c0.4-1.7,1.8-2.4,3-3c-1-2.9-5.9-4.1-4-7.5s4.5,1.2,7.2,0.5c-1.5-3.5-4.3-5.4-7.6-6.7
		c-3.7-1.5-7.4-3-10.5-5.6c-1.7-1.4-4-3.2-3.4-5.2C561.3,770.4,558.9,766.6,558.5,762.5z"/>
	<path fill="#9B1743" d="M531.5,765.9c1-0.2,2,0.4,2.2,1.4c0,0.1,0,0.2,0,0.3c0.5,9.4,5.1,17.3,9.6,25.2c2.7,4.7,3.3,8.9-0.6,13.1
		l-3,1.9c-2.8,3.8-0.3,8.1-0.8,12.1c-0.2,3-0.4,6,0.7,9c1.1,5.8,2.2,11.6,3.3,17.4c-0.8,0.5-1,1.5-0.6,2.3c0.1,0.1,0.2,0.2,0.3,0.3
		l-1,1.3c-2.4-11.2-4.8-22.3-5-33.8c-0.1-7.2-1.2-14.5-1.5-21.7C534.6,784.8,531.8,775.5,531.5,765.9z M537.3,786.2l-0.9,0.1
		c0.4,4.9,0.8,9.8,1.2,14.7c0.2,1.5-0.8,4,1,4.4c2,0.4,3.3-1.8,4.3-3.5c1.2-2.1,0.7-4.2-0.4-6.1C540.8,792.5,539,789.4,537.3,786.2z
		"/>
	<path fill="#0F843B" d="M618.7,817.5c-23.7,3-47.3,7.2-71.2,8.3c-1.3-0.3-3.1-0.4-1-2.2c19.4-0.7,38.5-3.5,57.7-6.3
		c5.4-0.8,10.8-1.9,16.3-1.6L618.7,817.5z"/>
	<path fill="#B1A196" d="M546.6,823.6c-2.1,1.8-0.3,1.9,1,2.2c0.1,4.9,4.4,8,6,12.7c-6.3,0-8.8-4.3-11.3-8.6c-1.1-2-1.2-1.9-2.7-1.2
		c-1.1-2.9-0.9-6-0.7-9c1.9,5.6,5.7,9.8,9.3,14.3c-2.9-6.2-5-12.7-6.3-19.4c-0.5-2.4-0.2-5-2.1-7l3-1.9
		C543.3,811.9,543.9,817.9,546.6,823.6z"/>
	<path fill="#6C8607" d="M567.5,570l1.9,0.8c0,0.6,0,1.1,0,1.7l-1.8,0.3c-0.7-0.4-1.5-0.7-2.3-0.9c-18.4-4.7-37.1-8-55.9-9.8
		c-20.4-1.9-40.7-2.1-61.4,1c0.6,0.6,0.8,1,1.2,1.2c9.3,4.7,17.6,10.8,24.2,18.9c1,1.1,2.4,1.8,3.9,1.7c29.9,2.2,59.7,4.4,89.6,6.7
		l1.8,0.5c0,0.5,0,0.9,0,1.4l-1.9,0.4c-29.7-3.1-59.5-4.8-89.6-7l1.5,3.8h-2.1c-4.4-6.8-10.1-12.7-16.7-17.4
		c-5.9-4.1-11.8-8.5-19.2-9.7c-0.3-2.5-2.3-1.6-3.8-1.9l-33.2-15.2c-0.4-2.5-2.4-1.5-3.9-1.8c-1.7-1.8-4.1-2.5-6.1-3.7
		c-1.1-1.9-3.1-2-5-2.3c-11.1-6.7-22.2-13.3-33.3-20c-0.8-0.5-1.8-0.8-2.8-0.8c-7.1,0-14.3-0.2-22.3,1c10.9,6.1,21,11.8,29.5,19.8
		c0,0.7-0.1,1.3-0.1,2c-2-0.7-2.9-2.9-5.3-3.3c-22.5-3.9-45-4.9-67.6-0.7c0-0.7,0-1.3,0-2c21.2-3.9,42.9-3.9,64.1-0.1
		c-7.8-6.2-16.3-11.4-25.4-15.4c-0.6-0.2-1.3-0.3-2-0.2c-12.4,1.3-24.9,2.1-37,4.9l-1.8-0.3V522l1.9-0.5c41.3-7,82.8-6.4,124.3-3
		c21.5,1.8,43.1,2.8,64.7,4.3c1.4,0.1,3.1-0.7,4,1.1c-1.1,0.3-2.3-0.2-3.1,1c-39-2.7-77.9-5.5-117.3-7.1c0.4,0.9,0.5,1.3,0.7,1.4
		c26.3,16.1,52.9,31.5,82,42c1.6,0.4,3.3,0.5,4.9,0.1c24.8-3.3,49.5-2.9,74.2,0.3C536.6,563.3,552,566.7,567.5,570z"/>
	<path fill="#105C7D" d="M568.7,592l-1.8-0.5c0.2-6.3,0.5-12.5,0.7-18.8l1.8-0.2C569.5,579,569.6,585.5,568.7,592z"/>
	<path fill="#6C8607" d="M393.7,598.7v2c-0.1,8.7-0.4,17.3-1.9,25.8l-1.2,0.3c0-1.1-0.1-2.2-0.1-3.2c0.1-2.5,0.3-5,0.7-7.4
		c0.9-3.9-0.4-4.9-4.3-4.4c-12.5,1.6-25.2,1.3-37.7-0.8c-20.2-3.4-40.5-5-60.6,1.2c-0.9-0.8-1-1.6,0-2.5c19.5-5.3,39.2-4.6,58.9-1.1
		c13.5,2.4,27.2,2.7,40.8,1c1.6-0.2,3.3,0.1,3.4-2.5s-1.5-2.6-3.1-2.9c-0.7-0.1-1.3-0.2-2-0.3c-32.6-4.5-65.4-4.2-98.2-5h-2.1
		c-0.7-0.5-0.8-1.5-0.2-2.2l0.1-0.1h2.2l5.5,0.2c30.6,1.1,61.3,0.6,91.8,4.9c6.5,0.9,6.4,0.7,6-6.1c-0.2-3.5-1.1-5.1-5.2-5.2
		c-10.6-0.3-21.3-1.1-31.9-1.8c-8-0.6-15.9-1.3-23.9-2.2c-1.5-0.2-3.7-0.2-3.8-2.5s2.1-2.2,3.7-2.4c3.1-0.3,6.3-0.6,9.5-0.6
		c15.2-0.1,30.3-0.2,45.5-0.1c3.1,0,3.8-0.7,2.6-3.7c-1.7-4.4-4.5-8.1-6.6-12.3h2.4C391,575,392.8,586.7,393.7,598.7z M330.2,584.4
		c19,2.2,37.7,2.8,56.3,4.1c1.2,0.1,3.8,1.6,3.8-1.4c0-2.5-0.5-4.5-4.2-4.5c-16.6,0.3-33.2,0.2-49.9,0.3
		C334.3,583,332.2,582.6,330.2,584.4L330.2,584.4z"/>
	<path fill="#6F890C" d="M390.5,623.6c0,1.1,0.1,2.2,0.1,3.2c-0.1,0.8,0.2,1.5,0.8,2c-1.5,6.1-3,12.2-4.6,18.3
		c-0.9,0.7-1.7,1.5-0.4,2.5c-3.3,12-3.6,24,0.2,36c-0.2,0.7,0.1,1.5,0.6,2c0.7,4.9,3,9.2,4.4,13.9l-2,0.1
		c-5.1-13.1-9.3-26.4-7.4-40.8c0.4-3.2-1.8-3-3.7-3.3l-89.1-14.6l-2-0.6V641l1.8-0.5c30.3,5.1,60.6,10.2,90.9,15.3
		c2.7,0.5,3-1,3.4-2.9C385.8,643.2,388.2,633.4,390.5,623.6z"/>
	<path fill="#10843C" d="M542.5,848.7c-0.7-0.6-0.7-1.7-0.1-2.3c0.1-0.1,0.2-0.2,0.3-0.3c24.6-5.4,49.4-9.2,74.7-8.2l-0.9,1.7
		c-16.8,0-33.5,0.8-49.9,4.2c-7.9,1.6-16.2,1-23.6,5l-0.3-0.1L542.5,848.7z"/>
	<path fill="#B6A69C" d="M538.5,900.7c-0.6-1-1.3-2-1.9-3c-0.3-5.8-0.1-11.6-2-17.1c0.8-1,2-0.7,3.1-0.8
		C537.6,886.8,539.1,893.7,538.5,900.7z"/>
	<path fill="#12BB53" d="M386.4,649.7c-1.3-1.1-0.5-1.8,0.4-2.5c26.9-5.7,53.1,0.5,79.4,5c3.6,0.6,7.1,1.5,10.7,2.3
		c-1.4,0.4-3.1-0.2-4.3,1c-18.1-4.3-36.6-6.3-55.1-8.4C407.1,646,396.5,646.9,386.4,649.7z"/>
	<path fill="#14BB55" d="M387.3,687.8c-0.6-0.5-0.8-1.3-0.6-2c10.6-1,21.2-2.8,31.9-3.1l1.2,1.3L387.3,687.8z"/>
	<path fill="#1D8B47" d="M472.6,655.4c1.3-1.1,2.9-0.6,4.3-1l25.6,2.6l-0.1,1.6C492.3,658.6,482.4,657.5,472.6,655.4z"/>
	<path fill="#105C7D" d="M286.6,521.3l-1.9,0.5c-1-31.8-1.9-63.5-3.1-95.3c-0.9-23.9-1.4-47.9-3-71.8c0-1.3,0.1-2.5,0.1-3.8
		c0.8-0.2,1.7,0.2,2.2,0.9c0.9,24.6,2,49.2,2.8,73.8C284.6,457.5,285.6,489.4,286.6,521.3z"/>
	<path fill="#0B587A" d="M290.2,724.9l1.7,0.6c0.9,16.6,1.8,33.2,2.7,49.8c0.5,9.5,1.4,18.9,1.5,28.4c0,2.7,3.5,4.8,0.6,8
		c-4,4.4-8.1,8.7-14,9.8c-14.3,2.7-27.8,1.2-40.9-6.3c-4.2-2.5-4.2-4.7-4.1-8.2c0.7-21.4,1.4-42.9,2.1-64.3
		c1.5-5.4,0.6-10.8,0.5-16.3c0.9-31.2,1.7-62.5,2.6-93.8c1.2-2.7-0.1-5.6,0.8-8.2c0.5-1.6,0.7,0.3,1,0.6c0,1.7,0.1,3.3,0.1,5
		c-1.7,58.5-3.4,116.9-5.2,175.4c-0.1,4,1.1,6.5,4.4,8.5c12.6,7.4,26.1,8.8,39.9,4.9c8.4-2.3,10.7-6.9,10.2-15.5
		C292.8,777.1,291.5,751,290.2,724.9z"/>
	<path fill="#195E63" d="M331.5,850.6l-1.9-0.9c-6.9-4.2-14.7-6.5-22.7-6.7c-14.5-0.5-28.8-2.7-43.2-4.3c-32.8-3.7-65.7-4.7-98.7-5
		c-15.5-0.2-30.9-1.2-46.3-2.8c-1-0.1-2.4,0.4-2.9-1.1c0.7-1.5,2-1,3-0.9c29.9,3.3,59.9,2.6,89.8,3.7c25,0.9,49.8,3.2,74.6,6.5
		c3.8,0.7,7.6,1.1,11.4,1.2c13.3,0,26.1,1.9,38,8.1L331.5,850.6z"/>
	<path fill="#0D5B53" d="M401.4,722.8h2.4c8.4,13.8,14.7,28.3,15,44.8c-1.1,0.6-1.3,1.3-0.2,2.2c-0.9,13.7-6.9,24.8-17.2,33.7
		c-9.6,8.3-21.1,13.8-31.7,20.7c-0.1-0.6-0.2-1.2-0.3-1.8c7.6-4.8,15.2-9.5,22.7-14.4c16.4-10.7,25.9-25.2,24.3-45.5
		c-0.8-10.3-4.3-19.8-8.9-28.9C405.6,730,403.4,726.4,401.4,722.8z"/>
	<path fill="#168579" d="M369.4,822.4c0.1,0.6,0.2,1.2,0.3,1.8L331.8,851l-0.3-0.3l1-2.2C344.2,838.9,356.5,830.3,369.4,822.4z"/>
	<path fill="#FBC80B" d="M122.9,489.6c-2.8-0.5-4.6-2.6-6.8-4c-10.1-6.5-19-6.5-28.7,0.3c-3.8,2.7-7.8,2.5-11.9,1.2
		c-3.1-1.1-6.2-2.4-9.3-3.7c-4.4-1.8-7.4-0.4-9.3,3.8c-1.5,3.5-3.4,6.9-5.7,9.9c-0.3,0.5-0.7,1.2-2.7,0.5c4.2-5,5.3-11.5,10.2-15.8
		c2-1.8,4.7-1.6,7.2-0.7c2.8,1,5.6,2.2,8.3,3.3c5,2,9.2,1.9,14-1.6c8.2-5.9,17.2-5.2,26-0.9c1.6,0.8,3.1,1.8,5.1,3
		c0.4-3.4-1.6-5.9-1.8-8.8c-0.7-7.6,1.4-14.6,4.5-21.2c3-6.5,6.6-12.7,9.8-19.1c1-1.9,1.8-3.8,2.8-5.9c-3.2-1-5.7,0.5-8.2,1
		c-10.1,2.1-19.2-0.1-27.5-5.9c-3.1-2.1-5.5-5-6.9-8.4c-1-2.6-2.4-5.1-4.2-7.3c-1.9-2.1-3.6-2.3-4.9,0.6c-4,9.1-13.4,12.6-20.1,18.8
		c-2.9,2.7-7.4,2.5-11.4,1.6c0-2.1,1.4-1.7,2.4-1.6c5.4,0.4,9.7-1.8,13.2-5.8c1.6-1.9,3.6-3.5,5.8-4.7c3.5-1.9,6.3-4.9,8-8.6
		c2.6-5.3,5.7-5.4,9.3-0.7c1.2,1.4,2.1,3,2.7,4.7c3.5,11.4,20,17.8,32.1,15.5c1-0.2,1.9-0.5,2.9-0.6c2.8-0.4,6.4-2.9,8.3-0.1
		c1.7,2.5-1.1,5.6-2.5,8.2c-4,7.7-8.5,15.1-11.5,23.2s-3.9,16.1-0.2,24.2C122.6,485.8,123.6,487.4,122.9,489.6z"/>
	<path fill="#FBCA17" d="M137.7,517.1c0-0.7-0.1-1.4-0.1-2.1c2.6,0.4,1.9-1.6,2-2.9c0.6-14.2,1.4-28.5,1.7-42.7
		c0-5.2,1.9-10.2,5.4-14c2.7-3.1,5.1-6.5,7.7-9.8l1.3,1.3c-0.6,1.2-1.3,2.3-2.2,3.3c-9.7,8.6-10.7,19.9-10.7,31.8
		c0,10.5-0.8,21-1.1,31.4C141.6,516.2,141.2,518.1,137.7,517.1z"/>
	<path fill="#FBCA16" d="M158.7,415.7c4.1,0.8,7.6,3.8,12.1,3.5c0.9-0.1,1.6,0.5,1.8,1.3c0.1,0.5-0.1,1.1-0.5,1.4
		c-4.9,5.2-7.2,12.2-11.7,17.6l-1.8-0.9c2.9-4.8,5.8-9.6,8.8-14.3c1.3-2.1,1.1-3-1.4-3.9c-3.3-1.1-6.4-2.6-9.5-3.9
		C157.4,416.9,158.3,416.5,158.7,415.7z"/>
	<path fill="#FBCB19" d="M107.6,507.6v-2c9.6,2.6,19.2,5.2,28.4,9c-0.2,0.5-0.4,1-0.6,1.5L107.6,507.6z"/>
	<path fill="#F7D658" d="M158.6,438.7l1.8,0.9l-1.8,4.1c-1.4,0.5-1.7,1.8-2,3c-0.2,0-0.5,0-0.7,0.1l-1.3-1.3
		C154.9,442.8,156.4,440.4,158.6,438.7z"/>
	<path fill="#165D68" d="M243,632.6c-0.1-0.3-0.1-0.7-0.2-1c-0.1-9.4-0.1-9.6-9.8-8.7c-6.3,0.6-12.4,2-18.7,3.1
		c-10,1.7-20.4,0.4-29.7-3.7c0.3-0.6,0.6-1.2,1-1.8c9.7,3.7,19.6,5.2,29.9,3.1c7.8-1.5,15.6-3.7,23.7-3c3.4,0.3,4.2-1,4.2-4.2
		c0.1-11.3,0.4-22.7,0.9-34c0.2-3.6-1.2-4-4.2-4.1c-19.1-1.1-38.3-0.8-57.5-0.7c-2.1-2.6-0.8-5.5-1-8.3c1.2,2.6-1,7.4,5.4,6.5
		c6-0.9,12.3-0.3,18.4-0.2c11.6,0.2,23.2,0.7,34.9,0.9c1.5,0,4.1,1.2,4-1.9s1.2-5.8,1.2-8.7c0.3-10.2,2.1-8.1-7.7-10.8
		c-0.8-0.2-1.6-0.3-2.4-0.5c-17.7-4-35.4-0.2-53.2-0.8c-0.4,0-0.7,0.5-1.1,0.8l-1.6-0.9l-0.1-2c1.5-1.1,0.8-2.9,1.2-4.3
		c0.1,3.5,1.8,4.7,5.4,4.4c4.3-0.4,8.6,0,13-0.3c10.6-0.7,21.2-1.3,31.8,0.2c5.2,0.8,10.2,3,15.6,2.8c2.4-1.8,0.1-4.8,1.9-6.7
		c0.6,13.1-1.6,26-2.2,39c-0.6,12.8,0.1,25.5-1.3,38.3c-0.3-0.3-0.5-2.2-1-0.6C242.9,627,244.2,629.9,243,632.6z"/>
	<path fill="#145E7F" d="M156.4,446.8c0.4-1.2,0.7-2.5,2-3c0.7,37.6,1.5,75.2,2.2,112.8h-2L156.4,446.8z"/>
	<path fill="#11843D" d="M517.7,762c0,0.3,0,0.6-0.2,0.8l-2,0.3c-25.1-1.3-50.1-3.1-75.1,1.5c-7.4,1.3-14.7,2.9-21.8,5
		c-1.1-0.8-0.9-1.5,0.2-2.2c25-7.2,50.5-8.9,76.3-7.3c7.1,0.4,14.2,1.1,21.3,0.5L517.7,762z"/>
	<path fill="#B0A295" d="M509.5,808.7c-2.5,0.3-2.2,2.7-2.7,4.2c-1.5,4.4-2.8,8.8-4.2,13.3s-3.6,8.4-7.7,11.2c-2.9,2-4.7,5-3.8,9.3
		c5.9-3.6,10.3-8.2,14.5-13c0.1,2.5-0.5,4.9-1.8,7c-3.8-0.3-5,3.5-7.7,5c-2.1,1.1-3.7,4.3-6.4,2.2s-1.1-4.9-0.2-7.4
		c0.3-1,0.8-1.9,1.5-2.5c9.3-5.9,10.5-16.1,13.5-25.3l2-6.1L509.5,808.7z"/>
	<path fill="#B0A294" d="M503.6,723.9c-1.6,2.6-1.6,5.9-0.1,8.5c2.5,5,2.4,9.5-3.2,13.9c5.1,0.1,8.1,1.8,10,5.9
		c1.1,2.6,4.3,3.5,7.3,3.5c-0.2,1.3,0.4,2.8-0.9,3.9c-3.9-3.4-8.8-5.7-11.5-10.5c-0.3-0.5-1.9-0.4-2.8-0.5c-1.4-0.1-2.8-0.3-3.4-1.6
		c-0.8-1.7,0.5-2.8,1.6-3.8c2.2-1.9,3.4-4.2,2.1-7c-2.4-5-2.3-10.2-1.9-15.5c0.8,0.1,1.6-0.3,2-1c0.2,0,0.5,0.1,0.7,0
		C503.9,721.2,502.6,722.6,503.6,723.9z"/>
	<path fill="#9D2142" d="M516.7,759.7c1.3-1.1,0.8-2.6,0.9-3.9c0.3-0.7,0.7-1.3,1-2l2,1c-0.2,0.8-0.5,1.7-0.7,2.5
		c-0.7,1.6-1.4,3.2-2.2,4.8l-1.2-1.4C516.6,760.4,516.6,760,516.7,759.7z"/>
	<path fill="#176080" d="M291.8,718.8l0.2,3.7l-2.5,0.1c-0.5-16.4-1-32.9-1.4-49.3c-0.3-10.3-0.4-20.6-0.6-30.9l2,0.6
		c0.1,24.5,1.1,48.9,2.4,73.4C290.7,717.2,290.4,717.9,291.8,718.8z"/>
	<path fill="#AF9016" d="M500.7,720.8c-1-4.9,2-8.1,5-11.3c1.2-1.3,2.6-2.6,3.8-3.9c1.2-1,2.7-0.8,4.1-0.7c-2.8,2.7-5.6,5.4-8.3,8.2
		c-1.7,1.8-3,3.9-2.5,6.6C502.4,720.5,501.6,720.9,500.7,720.8z"/>
	<path fill="#185D62" d="M291.9,716.5c20.5-5.9,41.6-8.8,62.8-10.8c11.6-1.1,23.2-2.1,34.8-3.1c0.7,0.4,1.1,1.2,1,2
		c-24.4,2.5-49,3.6-73.2,8.1c-8.6,1.6-17.2,3.3-25.6,6.1C290.4,717.9,290.7,717.2,291.9,716.5z"/>
	<path fill="#115C7D" d="M286.5,523.7c0.1,3.6,0.2,7.2,0.3,10.8c0,0.7,0,1.3,0,2l0.8,22.3v1.6c0.2,12,0.4,24.1,0.6,36.1H286
		c-0.5-24.4-0.9-48.7-1.4-73.1L286.5,523.7z"/>
	<path fill="#13BB54" d="M381.7,562.6l55.2-0.9c1.4,0.3,3.5-0.6,3.8,1.9c-17.6,0.5-35.3-0.3-53,1l-4,0.3h-2.4l-0.9-1.2L381.7,562.6z
		"/>
	<path fill="#29C062" d="M368.7,546.7l31.1-2c1.4,0.3,3.5-0.6,3.9,1.8c-9.8,0.7-19.6,1.4-29.4,2.1c-1.1,0.1-2.3,0.3-3.4,0.6
		l-2.4-0.4l0,0L368.7,546.7z"/>
	<path fill="#1BBC57" d="M393.7,540.9c-3.6,1.1-7.1-0.5-10.6-0.7c-6.8-0.4-13.5-1.1-20.2,0.5l-3.3-0.1h0.1c0-0.7,0.1-1.4,0.1-2
		c9.6-1.2,19.3-1.2,28.9,0C390.6,538.9,392.6,539,393.7,540.9z"/>
	<path fill="#166080" d="M288.3,598.9c0.1,3.6,0.1,7.2,0.2,10.8c-1,0.8-0.8,1.7,0,2.5l0.1,10.4l-2,0.3c-0.2-8-0.4-16-0.6-24H288.3z"
		/>
	<path fill="#065578" d="M289,634.8c0.1,2,0.2,3.9,0.2,5.9l-1.8,0.5l-0.1-1.1c0.1-1.8,0.2-3.5,0.4-5.3L289,634.8z"/>
	<path fill="#6D8709" d="M289,634.8l-1.2-0.1c-0.4-0.8,0-1.8,0.9-2.1c0.2-0.1,0.4-0.1,0.5-0.1c23.9,0.6,47.8,0,71.6-2
		c-23.8-4.4-47.6-9-72-5.4l-2-0.2V623l2-0.3c25.3-3.1,50,1.9,74.7,5.6c3.3,0.5,6.6,0.8,9.9,1.1c1.1,0.1,2.6-0.5,2.6,1.3
		c0,1.2-1.2,1.1-2.3,1.2c-17.5,1.7-35.1,2.5-52.7,2.9C310.3,634.8,299.6,634.7,289,634.8z"/>
	<path fill="#24687E" d="M289.2,632.4c-0.9,0.1-1.6,0.8-1.5,1.7c0,0.2,0.1,0.4,0.1,0.5c-0.1,1.8-0.2,3.5-0.4,5.3
		c-1-5-0.7-10.1-0.7-15.2l2,0.2C288.9,627.5,289,630,289.2,632.4z"/>
	<path fill="#718A0F" d="M380.4,563.6c-4.8-9.4-12.5-10.2-22.3-9.5c-22.7,1.8-45.5,3.5-68.1,6.4c-0.8,0-1.7,0-2.5-0.1v-1.6
		c26.1-3.6,52.4-5.7,78.7-7c2.2-0.1,4.7,0.2,2.2-3.1l2.4,0.4c4.1,4,7.7,8.5,10.8,13.4L380.4,563.6z"/>
	<path fill="#78901C" d="M359.6,540.7l3.3,0.1l5.8,5.9l-0.2,2.1L359.6,540.7z"/>
</g>
</svg>
