<?xml version="1.0" encoding="utf-8"?>
<!-- Generator: Adobe Illustrator 24.1.0, SVG Export Plug-In . SVG Version: 6.00 Build 0)  -->
<svg version="1.1" id="图层_1" xmlns="http://www.w3.org/2000/svg" xmlns:xlink="http://www.w3.org/1999/xlink" x="0px" y="0px"
	 viewBox="0 0 639 808.3" style="enable-background:new 0 0 639 808.3;" xml:space="preserve">
<style type="text/css">
	.st0{fill:#FFFFFF;stroke:#000000;stroke-miterlimit:10;}
</style>
<g>
	<path id="XE655FFM2Gra6OT30_1_" class="st0" d="M30.3,338.8c-2.8,8.7,0.4,16.4,3.3,24.1c1.9,5,4.6,9.6,6.7,14.5
		c3.7,8.7,2.3,17.1-3.3,22.1c-1,1.1-2.4,1.8-3.8,2.2c-2.3,0.4-5.4,1.5-6.3-1c-1-2.9,2.5-2.7,4.3-3.6c3.7-1.7,5.4-7.3,3.2-11.6
		c-1.3-2.5-2.8-4.9-4.4-7.2c-10-13.5-17.5-28.2-19.6-45.2c-2.1-16.5,5.9-32.4,21.5-41.2c12.2-6.9,25.5-10.5,39.3-12
		c4.6-0.5,8.6-2.8,13.1-3c1.6-0.1,3.9-0.8,4.4,1.1s-2,2.4-3.4,2.9C70,286.4,57,296.6,48,310c-5.8,8.5-6.3,18-7.1,27.6
		c-0.1,1.3,0.1,2.9,1.9,3c1.2,0.1,1.5-1.1,1.7-2.1c4.8-23.4,21.6-35.8,41.6-45c17.2-8,35.8-11.2,54.4-14.3
		c13.7-2.2,26.9-5.9,38.8-13.5c14.2-9,24.9-22.6,30.2-38.6c3.9-11.6,6.7-23.6,7-36c0-1.5,0-3-0.1-4.5c-0.1-1.1-0.1-2.8-1.4-2.9
		c-1.7-0.2-1.9,1.6-2.1,2.9c-1.5,7-1.8,14.1-4,21c-6.7,21.2-17.3,39.7-37.8,49.8c-16.6,8.2-34.6,10.1-53,5.7c-8.1-2-15.5-4.8-22-9.9
		c-8.6-6.7-10.4-16.7-13.1-26.3c-0.4-1.6-0.1-3.7,1.8-4.2s2.1,1.5,2.3,2.6c2.7,10.7,11.4,15.2,20.2,19.2
		c17.3,7.7,42.9,2.4,55.1-12.9c8.1-10.1,12.6-21.8,15.3-34.3c2.6-12.3,2.2-24.9,3.4-37.3c1.7-16.4,6-32.3,14.5-46.8
		c5.2-8.8,10.9-17.1,18.6-23.9c13.5-12,29.7-20.5,47.2-24.8c14.8-3.8,29.8-3.9,44.6-2c17.7,2.2,33.7,8.9,46.3,22.3
		c4.7,5,9.5,9.8,13.5,15.4c0.9,1.3,2.6,3,1.1,4.4c-1.9,1.8-3.2-0.5-4.4-1.8c-15.1-15-33.2-20.6-54.2-17.7
		c-13,1.7-24.5,6.7-33.8,15.6c-8,7.6-12.1,17.7-14,28.7c-2.8,16.2-1.4,32.1,2.2,48c4.1,17.8,6.1,35.8,4.5,54
		c-1.6,18.7-5.5,36.8-17,52.4c-2.6,3.6-1.9,5,2.4,6.1c3.1,0.8,6,1.9,9,2.9c2.7,0.8,5.2,2.3,8.1,0.4c0.8-0.3,1.6-0.2,2.3,0.2
		c2.7,1.9,4.9,4.1,8.7,1.1c1.5-1.2,3.6,1.9,4.8,3.6c1.6,2.2,3,3.8,6.1,3c2.3-0.6,3.5,1.4,3.7,3.2c0.9,6.4,3.1,12.6,2.4,19.3
		c-0.5,4.8-1.7,5.8-6,3.5c-16.9-9-35-15.6-52.1-24.1c-2-1.2-4.5-1.1-6.4,0.2c-5.7,3.1-10.5,7.6-16.5,10.3
		c-13.2,5.9-27,8.6-41.2,10.6c-17.9,2.6-35.9,1.8-53.7,3.8c-20.8,2.3-41.5,6.7-58.6,20.1c-7.5,5.9-11.8,13.9-13.2,23.4
		c-0.3,1.7,0.6,4.3-1.7,4.8c-2.6,0.5-3.4-2.2-4.5-4c-5.4-9-9.8-18.5-11.4-29C32.1,341.4,32.1,339.7,30.3,338.8z M228.2,210.7
		c-2.4,2.2-2.4,2.2-2.9,5.5c-1.7,12.9-5.4,25.1-12.9,35.7c-13.3,18.6-32.1,28.2-54.2,32.3c-5.6,1-11.4,1.3-16.3,4.5
		c24.7,0.8,47.3-5,65.5-22.9C222.9,250.6,228.9,231.9,228.2,210.7z M312.6,72.3c-13.9-7.3-43.3-4-65.5,12.1
		c-13.4,9.7-28,38.6-23.9,47.8c5.5-19.5,14.8-36.5,32.4-47.3C273,74.2,292.2,70.9,312.6,72.3z"/>
	<path id="XE655FFM2Gra2OT30" class="st0" d="M464.1,339.1c3.5-13.2,8.9-25.8,14.8-38.1c2.4-5,1.7-6.3-3.6-7.4
		c-25-4.8-47.8,2.9-70,12.8c-14.7,6.6-29.2,13.7-43.9,20.6c-3.1,1.5-5.4,1.2-5.7-3.2c-0.4-6,0.2-12,1.7-17.9c0.8-3,1.5-6.3,6.3-5.1
		c2.8,0.7,3-2.6,4.5-4c2-2,3.4-5.8,6.8-1.5c0.3,0.4,1.6,0.7,1.8,0.5c4.2-5.1,10.3-1.4,15.2-3.2c6.9-2.4,13.9-4.7,20.9-6.7
		c11-3.2,22.1-6.2,33.2-9c7.8-2,14.7,1.5,21.5,4.5c4.2,1.8,8.4,3.9,11.8,7.1c2.2,2,4.2,1.4,5.4-1.5c5.2-12.6,9.7-25.5,12.5-38.9
		c1.3-6.8,2.3-13.7,2.9-20.7c2.3-21.9,0.1-43.3-7.3-63.9c-6.3-17.4-16.4-32.4-29.9-45.4s-30.1-16.9-47.7-18.5
		c-5.2-0.5-10.1,1.7-15.2,2.6c-1.4,0.2-3.2,1.2-4-0.6c-0.9-2.1,1.2-2.8,2.6-3.6c17.6-9.6,36.7-13.3,56.1-9.5
		c36.9,7.2,67.1,25.8,88,57.9c14.4,22.2,18.4,46.4,14.4,72.6c-4.3,28.9-17.6,53.4-33.1,77.3c-8,12.3-18.2,22.9-26.1,35.2
		c-7.8,12-14.3,24.8-19.4,38.2c-5.6,15-8,31-6.9,47c0.7,12.7,5.2,23.7,14.1,32.6c9.8,9.8,22,13.2,35.6,12.7c2.5-0.1,6.7-1.6,7,1.3
		c0.3,3.7-4.2,2.5-6.8,2.9c-13.1,2-26.4,0-38.3-5.8c-12.3-5.8-19.9-15.2-24.9-27.2c-5.6-13.4-6.4-27.4-5.4-41.7
		c0.4-5.9-2.5-10.7-7.9-12.7c-1.6-0.6-2.5,0.3-3.2,1.5s-1.4,3.4-2.9,3.2c-5.6-0.7-11.5,2.6-16.8-1.3c-2-1.5-3.4-0.5-4.8,0.9
		c-2.2,2.3-4,1.6-6.5,0c-5.8-4.1-13.1-5.7-20.1-4.4c-1.5,0.3-2.9,0.6-4.4,0.7c-0.8,0.2-1.7-0.2-2.1-1c-0.4-1,0.3-1.5,0.9-2.1
		c2-1.7,4.1-3.4,6-5.2c0.7-0.7,1.4-1.6,0.8-2.7s-1.8-0.8-2.7-0.5c-2.2,0.8-4.4,1.7-6.5,2.5c-0.9,0.4-2,0.8-2.7-0.2s0.3-1.9,1-2.5
		c3.6-3.1,7.7-6.3,12.2-6.2c6.6,0,12.7-2.1,19.1-2.7c13.1-1.5,26.4-0.3,39,3.5C456.9,363.9,463.3,342.1,464.1,339.1z M501.3,139.3
		c2.3,2.3,2,5.9,3.7,8.5c10,15,13.6,32.2,14.6,49.7c1.4,25.2-5.2,49.1-14.6,72.2c-0.6,1.5-2.2,2.9-0.3,5.8
		c13.3-21.6,20.3-46.5,20.2-71.9C524.8,179.7,518.7,157.2,501.3,139.3z"/>
	<path id="XEC2AFFM2Gra3OT32_5_" class="st0" d="M233.7,21.9c-2.6-1.7-5-1.2-7.2-0.8C202,26,181.8,37.8,166.6,57.9
		c-4.9,6.7-8.7,14.2-11,22.2c-1.1,3.8-3.8,7-3.7,11.2c0,1-0.5,2.2-1.8,2s-1.1-1.5-1.1-2.4c-0.1-6,2.4-11.4,4-16.9
		c4.3-14.4,12.5-27.4,23.6-37.6c11.4-10.6,25-18.4,39.9-23c21.3-6.6,43.2-7,64.7-2.9c22.1,4.2,40.6,16,55.2,33.5
		c5.9,7.1,10.2,15.1,14.7,23.1c0.6,1,2,2.3,0.7,3.5s-2.6-0.1-3.6-0.7c-8.5-5-17.8-8.1-27.1-11.2c-18.9-6.3-38.4-7.2-57.7-4.1
		c-24.6,4-46.4,14.7-63,33.6c-10.4,11.6-17.8,25.5-21.6,40.5c-2.8,11-3,22.1-4.2,33.1c-0.9,7.4-2.1,14.9-6.8,21
		c-4.5,5.9-11.4,8.2-18.3,9.4c-13.2,2.3-24.4-1.4-31.8-13.4c-0.9-1.4-2.5-3-0.8-4.3s2.5,0.9,3.4,2c1.5,1.6,3.5,2.7,5.7,3
		c14.5,3.2,26.9-2.1,29.2-18.8c2.3-17.4,0.8-35,3.7-52.3c2.7-16.4,8-32,16.9-46.1c8.6-13.7,19.7-24.6,34.7-31.2
		c5-2.2,9.9-4.6,15.4-5.7C228.4,24.8,231.2,24.3,233.7,21.9z"/>
	<path id="XF7D3A4M2Color27" class="st0" d="M417.5,808.3c-9.2-5-15-12.8-20.3-20.7c-15.2-22.5-25.5-47.4-35.8-72.3
		c-7.9-19.4-17.7-38.1-29.1-55.7c-2.2-3.4-1.9-5.1,2-5.8c12.2-2.4,24.1-6.2,35.5-11.3c13.6-5.9,25.3-14.6,36.8-23.7
		c11.1-9,21.7-18.7,31.6-29c1-1,1.9-2,3.4-1.1c1.3,0.9,1.8,2.5,1.3,4c-1.2,5.2-2.5,10.3-4.1,15.4c-5.8,18.9-11.8,37.7-18.1,56.4
		c-7.8,23.3-16.9,46.2-22.8,70.1c-6.6,26.6-2,50.5,18.1,70.3C417.1,805.7,417.6,807,417.5,808.3z"/>
	<path id="XEC2AFFM2Gra4OT31_18_" class="st0" d="M188.1,527.6c-10.2-11.2-19.2-19.8-31.2-26.8c-17.7-10.3-36.3-19.2-52.7-31.4
		c-20.1-15-37.9-32.3-45.3-57.3c-5.5-18.5-2.2-35.8,10-51.2c6.7-8.4,15.6-14.7,25.7-18.1c7.4-2.6,15-4.2,22.8-4.7
		c1.3-0.1,2.9-0.1,3.1,1.7s-1.4,2.4-2.9,2.9c-13.9,4-23.8,12.9-30.6,25.4s-6.2,25.4-1.3,38.6c5.9,15.8,16.2,28.4,27.4,40.5
		c10.3,11.1,21.2,21.7,33.6,30.3c8.1,5.7,16.4,11.2,24.7,16.8c15.9,10.7,31.4,22.1,43.2,37.4c5.9,7.7,9.4,13.1,7.5,26.8
		c-4.6,13.7-13,23.5-28.3,26.4c-11.6,2.2-22.2,0.9-32.2-5s-15.9-21.2-9.2-34.4c3.9-7.7,17.8-11.9,25.6-7.3
		c11,6.5,14.2,16.4,8.9,27.6c-1.3,2.8-3.5,4.9-6.4,6.1c-1.4,0.6-3.5,1.5-2.5,3.6c0.9,1.8,2.9,1.2,4.5,0.7c4.6-1.5,8.6-4.2,10.8-8.4
		C195.8,563.3,200.3,543.9,188.1,527.6z"/>
	<path id="XEC2AFFM2Gra3OT32_4_" class="st0" d="M93.3,389.9c-1.4-19.5,10.2-30.4,23.6-40.3c0.8-0.6,1.9-1.1,2.7-0.3
		c1.2,1.2,0.1,2.1-0.7,2.9c-4.9,4.8-10.1,9.3-12.8,15.8c-4.3,10.5-3.1,21.3-0.9,31.9c0.9,4.3,2.1,8.8,5,12.4c0.5,0.7,1,1.6,1.9,1.4
		c1.2-0.3,1.2-1.5,1-2.5c-0.5-2.5-1-4.9-1.6-7.3c-3.8-13.8-2.5-27,4.7-39.5c5.4-9.4,14.6-14.3,23.8-19.1c7-3.7,15-4.4,22.4-6.8
		c1.7-0.6,4-1.2,5.1,0.6c1.3,2.1-1.2,3-2.2,4.4c-6.6,8.5-11.7,17.6-11.7,28.8c0,3-1,5.8-1.1,8.8c-1.1,22.6,7.4,42.4,18,61.4
		c8.9,16,19.3,31.1,31.1,45.1c10.5,12.3,18.9,26.2,25,41.2c0.4,0.9,0.8,1.8,1,2.8c0.2,1.6,0.8,3.9-1.1,4.4c-2.3,0.7-2.1-1.8-2.7-3.3
		c-3.6-9.2-8.7-17.6-16-24.3c-10.4-9.8-21.8-18.4-34-25.9c-11.8-7.1-24-13.5-35-21.8c-15-11.2-28.6-23.7-37.4-40.2
		C95.9,410.9,91.9,400.5,93.3,389.9z"/>
	<path id="XFF3366M2Color4" class="st0" d="M337.9,586.6c-6.6-1-12.9-0.3-19.2-0.1c-10.3,0.3-19.7-3.5-29.2-8
		c-11.5-5.4-17.8-16.9-28.9-22.4c-3-1.5-2.3-4.6,1-5.8c7.8-2.9,21.8-21.4,24.5-23.6c5.2-4.5,11.1-8.4,17.9-10.5
		c4.4-1.3,8.5-2,13.4,0.3c5.7,2.6,12.2,2.7,18,0.2c9-3.7,17.1-0.2,24.4,4.3c5.5,3.3,10,8.1,14.8,12.3c1.4,1.2,9.2,14.2,15.3,16.2
		c2.3,0.7,4.1,2.2,4,5.1c-0.1,2.7-2.3,2.7-4,3.6c-3.3,1.7-6.4,4.1-8.9,6.8C369.3,577.9,355,585.2,337.9,586.6z M355.3,542.3
		c-5.4-3-10.8-6-17-5.1c-7,1.3-14.2,1.3-21.2,0c-5.5-1.1-11.1,0.7-16.3,2.8c-1.2,0.2-1.9,1.4-1.7,2.5c0,0,0,0,0,0
		c0,0.1,0.1,0.3,0.1,0.4c9.7-1.9,17.8,5.2,27.6,4.6S345.5,542.9,355.3,542.3z"/>
	<path id="XEC2AFFM2Gra4OT31_17_" class="st0" d="M587.2,149.5c0.6,6.5,4.3,12.1,4.9,18.6c1.3,15.8,2.1,31.8-0.4,47.4
		c-2.2,14.5-6,28.6-11.3,42.2c-5.7,14.2-13.5,26.9-21.8,39.6c-7.8,12.1-15.7,24.4-20.4,38.1c-5.4,15.6,0.8,31.8,15.8,39.7
		c10.6,5.6,21.8,7,33,5.4c12-1.6,23.9-5.1,30.5-17.1c0.8-1.4,1.7-2.9,3.4-1.9s1,2.7,0.3,4c-7,13.6-16.7,24.2-31.5,29.6
		c-14.6,5.4-29.6,5.4-44.3,2.5c-16.5-3.2-29.3-12.3-34-29.3c-2.8-10.2-2.3-20.8,0.4-31.1c5-18.9,16.9-33.7,29.6-47.7
		c15.9-17.5,28.4-37.1,36.5-59.1c8.8-24,13-48.9,8-74.6c-0.2-1.3-0.3-2.7-0.3-4c0.1-0.8,0.2-1.6,0.4-2.4L587.2,149.5z"/>
	<path id="XEC2AFFM2Gra4OT31_16_" class="st0" d="M563.1,132.5c0.4-7.1-3.6-12.2-6.1-17.9c-1-2.3-2.5-4.3-3.6-6.5
		c-0.5-0.9-1-2-0.1-2.8c1.2-1.1,2.3,0,2.9,0.9c2.6,3.4,5.2,6.9,7.5,10.5c11.5,18.1,18.5,37.7,18.1,59.3c-0.3,14.7-3.6,29.1-9.5,42.6
		c-0.6,1.3-1,3.3-2.9,2.9c-2.2-0.5-1.4-2.7-1.4-4.2c0-3.7,0.3-7.3,0.4-11c0.5-20.5-5.4-39.4-14.6-57.4
		c-11.4-22.2-27.8-40.2-47.7-54.9c-13.3-9.8-28.5-15.6-44.9-18.5c-9.2-1.6-18.5-2.3-27.8-2.4c-13.9-0.1-26.9,3.7-39,10.3
		c-3,1.6-5.2,4.6-7.8,6.9c-0.9,0.8-1.8,1.8-3,0.7c-1-0.8-0.4-1.8,0-2.7c9-21,26.8-35.5,49.7-37.5c26.1-2.3,50.1,4.4,71.9,19.2
		c17.8,12.1,33.8,25.9,45.9,43.9c3.2,4.7,5.5,9.9,8.3,14.8C560.1,130.1,560.4,131.9,563.1,132.5z"/>
	<path id="XEC2AFFM2Gra3OT32_3_" class="st0" d="M492.8,203.5c0.8,20.4-2.3,40.8-9.2,60c-1.2,3.3-1.8,6.7-2.9,10
		c-0.5,1.4-1.3,3.1-3,2.8c-2-0.3-1.6-2.4-1.4-3.7c2.8-17.9,1-35.6-2.1-53.2c-3.4-19.1-10-37-21.2-53.2
		c-12.3-17.6-28.7-29.4-48.1-37.5c-6.4-2.8-13.2-4.5-20.2-5.1c-1.7-0.1-4,0-4.5-2.3c-0.4-2.1,1.7-2.6,3-3.5
		c20.4-14.5,41-13.3,62.3-1.7c18.4,10,29.8,25.6,38,44.1C490,175,493.2,190.5,492.8,203.5z"/>
	<path id="XEC2AFFM2Gra3OT32_2_" class="st0" d="M531.7,78.4c-3.2,0.1-4.3-1.7-5.8-3c-16.5-15.1-36.5-25.9-58.2-31.3
		c-23-5.7-45.7-3.6-66.5,8.6c-9.7,5.7-18.2,13-20.8,25c-0.2,1.1-0.5,2.6-1.9,2.6c-1.9,0-1.5-1.8-1.8-3c-0.2-0.8-0.2-1.7-0.1-2.5
		c3-17.6,7-34.5,22.2-46.4c8.9-6.9,19.2-9.7,29.7-12c1.3-0.3,3.5,0.2,3.2-2c-0.2-1.8-2.1-1.9-3.7-1.8c-19.7,0.8-38,5-51.7,20.7
		c-2.3,2.4-4.1,5.3-5.4,8.3c-0.6,1.6-1.3,4.2-3.6,3c-1.8-1-0.8-3.3,0.1-5c2.6-5.2,5.7-10.2,10-14.2c15.8-14.8,34.8-19.2,55.9-16.6
		c9.6,1.1,19,3.3,28.1,6.6c14.3,5.4,27.6,13.3,39.1,23.4c8,6.8,14.9,14.6,20.6,23.4C524.5,67.5,529.2,72,531.7,78.4z"/>
	<path id="XEC2AFFM2Gra4OT31_15_" class="st0" d="M638.9,424.6c1,8.4-3.8,16-5.2,24.3c-0.4,2.4-2.5,2.2-3.7,0.5
		c-11.9-16.4-29.6-17.3-47.4-18c-7.8-0.3-15.8,0.3-23.5-0.9c-15.3-2.2-30.4-5.8-42.7-16.3c-12.7-10.9-16.5-25.3-16.2-41.2
		c0-1.4,0.1-3.5,1.9-3.6c1.5-0.1,2,1.8,2.1,3c0.1,9.3,4.4,16.9,10.7,22.9c8.8,8.4,19.8,12.6,31.8,14.2c12.9,1.6,26,1.1,38.8-1.3
		c9.8-2,20-1.3,29.5,2c1.3,0.5,3.1,1.7,4,0c1.1-2-1.2-2.6-2.5-3.6c-2.4-2-5.4-2.5-8.1-3.8c-1-0.3-1.7-1.2-1.8-2.2
		c-0.1-0.7,0.5-1.4,1.2-1.5c0,0,0,0,0,0c0.1,0,0.3,0,0.4,0c6.9,0.8,14.2-0.4,20.5,3.2C637,407.1,639.7,414.9,638.9,424.6z"/>
	<path id="XEC2AFFM2Gra3OT32_1_" class="st0" d="M575,441.5c12.2-0.2,24.3-0.5,36,3.8c15.2,5.7,20.8,15.7,22,30.7
		c0.2,3.1-1.5,6.4-2.4,9.6c-0.3,1.1-0.7,2.6-2.1,2.2s-1-2-0.8-3c1.4-7,0.3-13.6-4.7-18.6c-5.7-5.9-12.8-10.3-20.6-12.7
		c-13.8-4.3-27.7-3.6-41.9-1.6c-19.7,2.9-39.8,3-58.3-6c-13.6-6.6-21.7-17.4-22.4-33.4c-0.7-17.4,3.8-33.6,10.5-49.3
		c0.6-1.4,1-3.2,3-2.6c1.6,0.5,1.3,2.1,1.3,3.4c0,0.8-0.1,1.7-0.4,2.5c-7.7,28.1,15.5,63.6,38.5,70
		C546.5,440.4,560.7,442.1,575,441.5z"/>
	<path id="XEC2AFFM2Gra4OT31_14_" class="st0" d="M459.5,457.5c4.4,3.6,8,7,12,9.8c10.7,7.3,22.7,8.8,35.3,6.9
		c9.9-1.5,19.2-5.4,28.8-7.7c14.9-3.5,29.8-2.2,41.6,9.1c16.5,15.7,15.7,43.7-5.1,56.7c-7.1,4.6-15.5,7.1-24,7
		c-4.4,0-8.9,2.6-13.3,4c-2.5,0.8-5.1,1.8-7.8,1.5c-1.1-0.1-2.5-0.2-2.7-1.7s1.2-1.8,2.2-2.2c11.8-4.8,18.2-13.8,18-25.9
		c-0.2-7.9-2.5-15.1-9.3-20.1c-1.2-0.9-3.5-2-2.6-3.8c1.2-2.2,3.3-0.4,4.9,0.1c13.3,4.6,19.9,14.5,19.3,28.6
		c-0.2,4.1-2.4,7.2-4.3,10.5c-0.6,1-1.6,2-0.4,3.1s2.3,0.4,3.2-0.3c4.3-3.3,8.3-7.4,9.4-12.6c2.5-11.9,0.3-20.6-10.7-27.5
		c-2-1.2-4-2.4-6-3.6c-0.8-0.5-1.9-1-1.5-2.3s1.7-1.1,2.6-0.8c4.8,1.2,10,1.3,14,4.7c1.2,1,2.9,2.8,4.3,1.3c1.8-2-0.7-3.2-1.8-4.4
		c-8.2-8.5-18.5-11.6-30-10.1c-4.7,0.8-9.4,1.9-14,3.3c-21,5.7-48.2,0.9-60.4-18.5C460.5,461.3,459.3,460.3,459.5,457.5z"/>
	<path id="XEC2AFFM2Gra3OT32" class="st0" d="M314.5,90.9c21.4,0.2,36.9,6.4,49,20.5c1.9,2.1,4,4,6.1,5.9c0.9,0.8,1.7,1.7,1.1,3
		c-0.8,1.6-2.2,1.3-3.5,0.8c-21.5-7.8-42.5-4.6-62.4,4.6c-15.5,7.2-25.5,20.4-32.3,36c-1.3,3-1.9,8.6-4.3,8.1
		c-3.5-0.8-2.1-5.9-2.2-9.2c-0.3-5.3-0.5-10.6-0.9-15.9C263.2,115.5,289.2,88.8,314.5,90.9z"/>
	<path id="XEC2AFFM2Gra4OT31_13_" class="st0" d="M146.2,622.4c-14.3,0.6-27.8-1.8-39.6-9.2C94.3,605.5,83.2,596,82.3,580
		c-0.8-14.5,5.5-26.4,15.8-36.4c5.8-5.7,12.7-10.2,20.3-13.1c1.7-0.6,3-2,4.6-3c1.2-0.8,2.8-1.9,4-0.3c1,1.3,0,2.6-1,3.5
		c-3,2.7-5,6.2-7,9.6c-7.2,11.9-9.6,24.2-4.8,37.6c2.5,6.7,6.6,12.8,12,17.5c9.4,8.5,19.9,15.6,32.4,19.2c3,0.8,5.9,0.7,8.9,0.9
		c1.8,0.1,4.4-0.2,4.6,1.9c0.3,2.7-2.6,2.5-4.4,3C160.7,622.2,153.4,622.9,146.2,622.4z"/>
	<path id="X2800BFM2Gra4OT5_7_" class="st0" d="M15.2,432.7c-1.3-7.1,3.2-11.2,7.6-15.3c6.3-5.9,14.4-9,21.6-13.4c1-0.6,2.2-1,3.2,0
		c0.8,0.9,1.1,2.2,0.6,3.3c-2.8,11.3,2.8,20,8.7,28.5C65.4,448,76.2,458,87.8,467c8.3,6.5,17.9,10.9,27.2,15.7
		c10.3,5.3,19.8,11.8,26.3,21.7c6.7,10.2,4.6,22.3-5.1,28.6c-0.9,0.6-2,1.8-3,0.6s0-2.2,0.8-2.9c10.7-10.6,4.8-25-5.7-31.9
		c-10.3-6.7-21.4-12.2-32.9-16.6c-12.6-4.9-25.3-10-37-17.1c-8.5-5.2-16.5-11.2-22.7-19.3c-0.8-1-1.3-3.4-3.1-2.1
		c-1.3,0.9-0.6,2.9,0.2,4.1c2.3,3.3,4.8,6.4,7.1,9.6c0.6,0.9,1.7,1.9,0.6,3c-0.8,0.8-2,0.2-2.8-0.4c-7.8-6.1-17.1-10.5-21.6-20.2
		C15,437.6,15.3,435.1,15.2,432.7z"/>
	<path id="XEC2AFFM2Gra4OT31_12_" class="st0" d="M152.6,222.8c7.8-3.5,9.6-10.8,14.2-15.7c2,1.8,0.9,3.6,0.3,5.2
		c-4.6,13.6-13,23.2-27.3,27.3c-13.5,3.9-26.4,4.2-38.8-3.5c-9.2-5.6-13.9-15.2-12.4-25.9c0.2-1.3,0.7-2.9-1-3.5
		c-1.8-0.7-2.7,0.8-3.4,2.2c-10.8,20.7-2.3,43.6,16,55.1c1.3,0.8,3.9,1,3.2,3.1c-0.6,1.9-2.9,1.3-4.5,1c-19.7-2.8-31.1-13-30.3-33.4
		c0.6-16.1,8.8-29.4,23.1-38.2c1.8-1.1,3.5-2.5,5.3-3.7c0.8-0.7,1.9-0.8,2.8-0.2c1.1,0.8,1.1,2,0.5,3.1c-9.2,19,7.8,34.8,24.8,35.7
		c4.8,0.2,9.7,0.6,14.3-1.2c1.2-0.5,2.8-1.1,2.5-2.7c-0.4-1.8-2.2-1.2-3.4-1c-4.2,0.7-8.2,0.1-12.4-0.3c-7-0.7-11.4-5.2-14.7-10.1
		c-4.1-6.1-3.7-13.6-1.6-20.7c0.2-1.2,1.3-2.1,2.5-2c1.7,0.3,1.8,1.9,1.7,3.1c-0.4,8.2,4.4,13.2,10.4,17.6c0.9,0.7,2,1.7,3.1,0.7
		s0.1-2.1-0.5-3.1c-1.9-3.4-5.1-6.4-3.6-10.9c0.4-1.3,1.1-2.6,2.6-2.6s1.8,1.4,2,2.5c1.9,11.8,18.3,13.6,26.1,8.8
		c1.3-0.8,2.7-2.9,4.3-1.5c1.8,1.6,0.4,3.6-0.7,5.4C156.2,216.2,154.7,219.1,152.6,222.8z"/>
	<path id="XEC2AFFM2Gra4OT31_11_" class="st0" d="M582.5,365.9c-12.6,0-28.9-10.5-32.1-25.5c-2.8-13,6.8-30.8,22.8-29.3
		c7,0.6,13.8,5.9,15.3,12.4c1.9,8.1-0.8,15.1-7.4,19c-1.4,0.8-3.5,1.3-3.2,3.4c0.4,2.4,2.7,1.9,4.4,2.3c11.1,2.1,25.8-5.4,29.7-15.5
		c1.7-4.5,2.5-8.5,0.3-12.9c-0.6-1.2-2.2-2.9-0.4-3.9c1.6-0.9,2.6,1.2,3.4,2.3c8.6,12.8,9.1,26.2-3,37.8
		C605.1,362.8,595.8,366,582.5,365.9z"/>
	<path id="XEC2AFFM2Gra4OT31_10_" class="st0" d="M116.1,507.9c-2,7.6-5.9,13.9-12.1,18.1c-7.7,5.2-14.1,11.6-20.5,18.2
		c-11.2,11.5-15.4,25-12.1,40.7c0.8,3.6,3.7,5.9,4.9,9.2c0.4,1.1,0.9,2.3-0.1,3.3c-0.8,0.8-2.1,0.8-2.9,0c-0.1-0.1-0.1-0.1-0.2-0.2
		c-7.8-8.6-18.3-14.5-23.8-25.4c-6.6-13.2-4.2-23.3,8-31.4c0.6-0.3,1.2-0.7,1.7-1.1c0.9-0.7,2-1.6,1.2-2.9s-2.2-0.8-3.1-0.2
		c-5.9,3.4-11.9,6.8-15.5,13c-0.6,1-0.6,3.2-2.5,2.2c-1.3-0.7-0.7-2.4-0.2-3.7c3.3-8.6,10.6-13.3,18.2-16.9
		c10.7-5,21.9-8.7,32.8-13.1c5.6-2.2,10.7-5.5,15-9.7c2-1.8,3.3-4.3,3.3-7c0-1.4-0.3-3.3,1.8-3.5c1.6,0,3,1,3.4,2.5
		C114.6,502.6,115.3,505.4,116.1,507.9z"/>
	<path id="XE655FFM2Gra6OT30" class="st0" d="M174.2,380.6c2.2-1.9,5.3-1.5,7.7-3c1.6-1,4.7-1.3,3.9-3.7c-0.9-2.7-3.6-1.6-5.6-0.7
		c-6.9,3.1-13.9,2.5-21,1.1c-0.6-0.1-1.3-0.3-1.4-1.2c0.8-1.4,2.3-1.2,3.5-1.2c13.6-0.2,25.8-5.4,38.5-9.3c16.8-5.1,34-5.6,51.4-2.8
		c7.6,1.3,15.1,2.5,21.1,7.9c0.6,0.5,1.2,1.1,1.8,1.7c0.1,0.2,0,0.6,0,1.5c-3.6-1-7-2-10.5-3c-1-0.3-2.1-0.5-2.8,0.4
		c-0.9,1.3,0.2,2.2,1.1,2.9c1.8,1.5,3.4,3.2,5.6,4.1c1.4,0.6,3.1,1.4,2.5,3.2c-0.8,2-2.8,1.4-4.4,1c-1-0.3-1.9-0.6-2.8-1.1
		c-2.2-1.3-5-1.3-7.1,0.1c-1.6,1-3.4,2-5.2,1.5c-4.1-1.1-7-0.3-9,3.7c-0.4,1.2-1.7,1.8-2.9,1.4c-0.4-0.1-0.8-0.4-1-0.8
		c-2.9-3.1-5.6-3.8-8.7-0.1s-5.4-4.5-8.5-0.9s-5.1,2.8-7.4-0.6c-1.1-1.4-2.9-1.9-4.6-1.2c-7,2.8-14.7,3.2-21.9,1.1
		c-2.4-0.7-5.3,0.2-7.9,0C177.2,382.5,175.3,382.6,174.2,380.6z"/>
	<path id="XEC2AFFM2Gra4OT31_9_" class="st0" d="M618.3,489.1c-3.4,23.9-9.8,38.3-35.5,48.7c-2.8,1.1-5.5,2.4-8.3,3.4
		c-1.5,0.5-3.7,1.2-4.6-0.5c-1-2,1.4-2.8,2.7-3.5c7.8-3.6,13.1-9.5,17.1-16.9c11.2-20.9,3.8-48.3-18.6-57.1
		c-1.5-0.6-3.8-0.8-3.6-2.8c0.1-2.4,2.6-2.3,4.3-2.4c7.8-0.3,15.5-1.7,23.4,0.1c10.3,2.4,17,8.3,20.1,18.5
		C616.5,480.8,619,484.5,618.3,489.1z"/>
	<path id="XEC2AFFM2Gra4OT31_8_" class="st0" d="M41.2,227.5c0-18.3,14.8-38.1,32.4-44.4c9.3-3.2,19.2-4.4,29-3.5
		c1.2,0.1,2.3,0.3,3.4,0.5c1.6,0.4,3.8,0.7,3.7,2.7c-0.2,2.3-2.6,1.5-4.1,1.6c-21.1,2-38.9,16.8-44.7,37.2
		c-3.6,12.1-3.8,23.5,3.1,34.5c2.1,3.3,5.1,5.2,8.2,7.1c1.2,0.7,3.4,1.3,2.6,3c-0.8,2-3,1.3-4.4,0.6C54.8,259.8,39.6,249,41.2,227.5
		z"/>
	<path id="XEC2AFFM2Gra4OT31_7_" class="st0" d="M180.4,609.7c-20.4,0.2-33.4-4.4-44-14.4c-9.6-9.2-13-21-11.6-34.2
		c0.2-2.3,0.7-4.6,0.9-6.9c0.3-2.1,0.2-5,3-4.8s1.9,3.1,1.7,4.9c-1.3,15.1,12.8,31.5,25.1,35.5c11.3,3.9,23.5,4.9,35.3,3
		c11.2-1.9,20.3-6.8,27.2-15.8c1.3-1.7,2.1-3.8,3.3-5.6c0.4-0.7,1.1-1.1,1.9-1.2c1.3,0.1,1.2,1.4,1.1,2.4c-0.3,4.9-2,9.5-4.9,13.5
		C208.8,601.5,194,610.1,180.4,609.7z"/>
	<path id="XEC2AFFM2Gra4OT31_6_" class="st0" d="M217.2,655.6c-18,1.1-29.9-15.6-30-31.8c0-1.5,0-3.3,1.9-3.6
		c1.6-0.2,2.1,1.6,2.3,2.8c1,4.2,4,7,7.2,9.3c8.4,6.1,17.9,9.5,28.4,9c1.4,0,3.4,0,3.6-1.9s-2-1.8-3.3-2.3c-4.2-1.6-8.8-2-12.3-5.1
		c-11.6-10.3-11.6-28.5,2-38.3c1.3-0.9,3.1-1.9,4.6-0.9s0,2.4-0.6,3.4c-9,13.6-2.2,31.2,13.7,35.2c4.8,1.2,9.7,2.5,14.6,0
		c1.2-0.6,2.6-1,3.7,0.3s0.4,2.8-0.3,4.2c-7.2,12.9-18.1,19.4-32.9,19.7L217.2,655.6z"/>
	<path id="X2800BFM2Gra4OT5_6_" class="st0" d="M475.3,594.1c-12.2,0.1-21-6.2-22.4-15.5c-1-6.5,2.4-13.4,7.8-16
		c6.4-3.1,14.3-1.8,18.8,3.2c2.3,2.5,3.3,5.9,2.8,9.3c-0.2,1.4-0.5,3.3,1.5,3.7s2.9-1.2,3.5-2.8c2.7-6.6,0.4-16.9-4.8-21.7
		c-1.1-1-2.4-1.9-3.5-2.9c-1.4-1.3-4.5-2.1-3.4-4.2c1.4-2.7,4.2-0.8,6.2-0.1c8.6,3,14.7,8.4,17.5,17.5c2.7,8.7-1.5,20.2-9.5,24.5
		C484.9,591.7,480.1,594.3,475.3,594.1z"/>
	<path id="X2800BFM2Gra4OT5_5_" class="st0" d="M49.4,523.9c2.4-2.5,3.7-4.2,5.3-5.5c12.6-9.7,9.5-26.1-1.8-34.5
		c-1.5-1.1-5.1-1.9-3.4-4.4c1.5-2.2,4.1,0,6.1,1.1c6.4,3.8,13.8,6,19,11.7c0.6,0.7,1.5,0.8,2.3,0.4c1.2-0.7,1.2-2,1-3.1
		c-0.6-3.4-3.2-5.2-5.6-7.3c-1.7-1.5-5.5-3.2-4.1-5.4c1.8-3,4.4,0.4,6.3,1.4c6.8,3.6,14.6,5.6,20.3,11.4c4.2,4.4,4.4,9.5,0.3,14.1
		c-7.2,8.1-16.8,11.7-26.7,14.9C62.6,520.6,57.1,523.5,49.4,523.9z"/>
	<path id="XEC2AFFM2Gra4OT31_5_" class="st0" d="M506.5,575.4c0.9-9.4-2.1-16.1-8.2-21.5c-1.1-1-2.8-2.2-1.7-3.7s2.8-0.3,4,0.5
		c6.9,4.6,13.9,8.9,17.8,16.9c7.2,14.8-0.6,35.2-15.9,41.4c-12.6,5.2-24.7,4.1-36.4-2.5c-1.5-0.9-4-1.8-3.1-3.9s3.3-0.9,4.9-0.4
		c18.4,5.5,31.7-6.4,37.8-19.5C507.1,579.9,506.3,577,506.5,575.4z"/>
	<path id="XEC2AFFM2Gra4OT31_4_" class="st0" d="M162.3,41.1c-0.6,3-3.1,4.5-5.1,6.3c-18.5,17.2-22.5,38.7-18.5,62.5
		c1.4,8.4,4.2,16.2,6.7,24.3c3.1,9.6,2.6,17-3.9,21.4c-7.4,4.9-19.7,4-25.9-2.4c-1-1.1-2.6-2.3-1.7-3.8c1.1-1.9,2.8-0.3,3.8,0.4
		c5,3.5,9.6,1.7,13.9-1.3s5.5-7.5,5.2-12.7c-0.6-8-3.8-15.4-5.6-23.2c-6.4-28.6,2.6-54.6,27.3-70.8
		C159.4,41.3,160.5,40.2,162.3,41.1z"/>
	<path id="XEC2AFFM2Gra4OT31_3_" class="st0" d="M500.2,542.6c-6-0.3-11.9-0.7-17.1-4.3c-1.3-0.9-3.7-1.2-2.9-3.3
		c0.7-1.8,2.7-1,4-0.5c8.4,3,15.7,0.3,22.8-3.8c1.7-1,4.1-2.1,3.2-4.4c-1-2.7-3.3-1.1-5.1-0.7c-0.8,0.3-1.6,0.5-2.4,0.7
		c-1.7,0.2-3.6,0.1-4-1.9c-0.4-1.8,1.5-1.9,2.7-2.3c4.7-1.5,8-4.2,9.8-9.1c3-7.9,2.4-11.4-4.1-17.7c-1-0.9-2.3-1.9-1.4-3.3
		s2.3-0.9,3.6-0.3c9.3,4.4,17.1,10,19.3,21.2c1.8,9-1.8,18.8-9.6,23.8C513.2,540.3,507.2,543,500.2,542.6z"/>
	<path id="X2800BFM2Gra4OT5_4_" class="st0" d="M23.6,516.6c-6.1,0.6-11.4-1.7-16.4-4.9c-1.2-0.8-3.1-1.5-2-3.3
		c0.8-1.4,2.5-0.8,3.6-0.1c5.7,3.2,11.5,2.7,17.3,0.6c1.6-0.6,4.1-0.7,3.5-3.3c-0.5-2.1-2.6-1.6-4.2-1.4c-0.7,0.1-1.3,0.1-2,0.1
		c-0.9,0-1.8-0.3-1.9-1.2s0.6-1.5,1.5-1.6c2.9-0.6,5.7-2,8-3.8c5.2-4.1,6-8.9,2.5-14.8c-0.6-1.1-2-2.2-0.7-3.5
		c1.1-1.1,2.5-0.1,3.7,0.5c7.6,3.9,12.7,13.8,11,21.6s-9.4,14-18,14.8C27.6,516.3,25.6,516.4,23.6,516.6z"/>
	<path id="X2800BFM2Gra4OT5_3_" class="st0" d="M0.8,316c-2-5.7,0.4-10.9,2.1-16c3.5-10.2,10.7-17.9,18.9-24.6
		c2.8-2.4,2.9-3.4-0.2-5.4c-3.7-2.4-6.8-5.5-6.6-10.5c0-1-0.3-2.1,0.9-2.6c1-0.3,2.1,0.3,2.4,1.3c4,8.2,11.3,12.2,19.4,15.3
		c1,0.4,1.9,1,1.8,2.2c-0.2,1.6-1.6,1.9-2.9,2.4c-11.8,4.6-21.6,11.7-28.4,22.5C5.1,305.4,2.7,310.6,0.8,316z"/>
	<path id="XEC2AFFM2Gra4OT31_2_" class="st0" d="M278.4,0.2c29.5-2.8,69,24.3,73.7,55.6c-5-2.5-5.8-7.9-8.6-11.9
		c-11-16-24.3-29.1-42.9-35.8c-4.5-1.6-9-3.4-13.9-4C283.9,3.7,280.8,3.3,278.4,0.2z"/>
	<path id="X2800BFM2Gra4OT5_2_" class="st0" d="M21.6,239.1c-0.7-5.7,1-11.5,3.7-17.2c0.5-1,0.9-2.4,2.3-2.3
		c1.9,0.2,1.5,1.9,1.5,3.1c0,1.2-0.1,2.3-0.5,3.4c-4.8,13.2,3.4,33.3,18.2,40.3c1.4,0.7,4.3,1,2.9,3.5c-1,1.8-3.3,1.1-5,0.4
		c-2.9-1.3-5.8-2.6-8.5-4.1C25.8,260.6,20.6,251.9,21.6,239.1z"/>
	<path id="X2800BFM2Gra4OT5_1_" class="st0" d="M239.8,626c-10.7-1.2-21.1-10.3-16.8-24c0.6-1.7,1.3-3.8,3.4-4
		c2.2-0.2,2.1,2.2,2.9,3.5c2.4,3.8,5.7,5.8,10.5,5c1.5-0.3,3.7-1.4,4.1,1c0.4,1.9-1.9,2.5-3.4,3c-2.9,0.9-5.6-0.5-8.3-0.9
		c-1.1-0.2-2.4-0.8-3.2,0.5s0.2,2.5,1.2,3.5c6.1,6.5,14.3,7.9,22.3,3.9c1.3-0.6,2.7-2.2,4-0.7s-0.8,2.6-1.7,3.6
		C251.1,624.5,246.4,626.3,239.8,626z"/>
	<path id="XEC2AFFM2Gra2OT31_1_" class="st0" d="M189.5,347.1c7-7.5,15.4-13.5,24.8-17.8c11.1-5,22.7-6.4,34.6-3.4
		c12.1,3.1,19.1,12,25.5,21.7c-2.9-0.1-4.4-2.1-6-3.9c-7.8-8.8-17.2-14.8-29.3-15.1c-12.2-0.4-24.3,3.1-34.3,10.1
		c-4.7,3.2-9.6,6.4-14.3,9.6C190.1,347.9,189.8,347.5,189.5,347.1z"/>
	<path id="XEC2AFFM2Gra2OT31" class="st0" d="M447.4,338.5c-10.8-7.5-24-10.8-37.1-9.3c-8.6,1-15.4,4.7-21.5,10.5
		c-1.8,1.7-3.5,3.5-5.3,5.3c-0.8,0.8-1.5,2.3-2.8,1.3s-0.3-2.2,0.4-3.1c7.4-9.4,15.9-16.8,28.5-18.3c17.4-2,32.2,3.9,45.8,14.1
		c1.4,1.1,2.6,2.6,3.2,4.3C458.8,343.3,450.8,340.7,447.4,338.5z"/>
	<path id="XEC2AFFM2Gra4OT31_1_" class="st0" d="M545.5,549.2c7.7,0.9,14.1,3.7,17.1,10.9c2.7,6.4,3,15-5.6,21.3
		c-5.1,3.8-10.9,5.9-18.9,3.6c8.1-4.1,15.6-7.1,17.5-16C557.6,559.6,550.5,555.1,545.5,549.2z"/>
	<path id="XEC2AFFM2Gra4OT31" class="st0" d="M128.4,63.8c0.2,2.9-0.9,5.2-1.9,7.3c-5.1,11.7-4.2,23.8-2.6,35.9
		c0.4,2.9,1.9,5.6,2.8,8.5c0.4,1.3,0.5,2.8-1.3,3.2c-1.3,0.3-2-0.8-2.5-1.9c-7.2-16.2-8.9-32.2,0.5-48.2
		C124.5,66.6,125.5,64.5,128.4,63.8z"/>
	<path id="X2800BFM2Gra4OT5" class="st0" d="M544.7,562c-0.2,5.9-4.2,11.7-8.8,12.5c-1.5,0.2-3.3,0.4-4.1-1c-1.2-2,1-2.4,2.1-3.2
		c6.5-4.9,7.2-9.8,2-15.9c-0.9-1.1-2.7-2.1-1.1-3.6c1.2-1.1,3-0.6,4.2,0.3C542.4,553.8,545,557.2,544.7,562z"/>
	<path id="XC1966BM2Color28_1_" class="st0" d="M313.8,479c0.9,0.1,2.1-0.1,2.5,1.2c0.3,1-0.5,1.6-1.2,1.9c-2.8,1.2-3.6,4.2-5.9,5.9
		c-1.8,1.3-4.2,2.3-5.8,0.2c-1.8-2.3,0.1-4,2.1-5.1C308.1,481.5,310.3,479,313.8,479z"/>
	<path id="XC1966BM2Color28" class="st0" d="M340.5,479.2c3.5,1.1,6.6,3,9.3,5.5c1.2,0.9,1.4,2.6,0.5,3.8c-0.8,1.1-2.3,1.3-3.5,0.7
		c-4-1.7-6.4-5.3-9.1-8.3C336.1,479.2,339.3,479.6,340.5,479.2z"/>
</g>
</svg>
