<?xml version="1.0" encoding="utf-8"?>
<!-- Generator: Adobe Illustrator 21.0.0, SVG Export Plug-In . SVG Version: 6.00 Build 0)  -->
<svg version="1.1" id="图层_1" xmlns="http://www.w3.org/2000/svg" xmlns:xlink="http://www.w3.org/1999/xlink" x="0px" y="0px"
	 viewBox="0 0 184.6 808.5" style="enable-background:new 0 0 184.6 808.5;" xml:space="preserve">
<style type="text/css">
	.st0{fill:#FFFFFF;stroke:#000000;stroke-miterlimit:10;}
</style>
<title>Anime10_13_526</title>
<g>
	<path id="X7FF9FFM2Gra2OT7" class="st0" d="M119.9,347.1c2.9,2.6,7.4,4.8,8.1,7.9s-2.6,7.3-3.3,11.1c-1.5,7.3-0.2,14.8,3.6,21.2
		c1.4,2.3,1.3,4-0.5,6.2c-17.7,21.6-40.2,38.8-65.6,50.3c-4,1.8-4.8,0.6-5.1-3.2c-0.5-6.5,1.7-12.5,3.5-18.5
		c6.1-19.4,9.5-39.1,7-59.5c-0.4-3-1.9-6.3-1-8.7s5.1-1.2,7.5-2.7l4.2-2.8c-3.2,0-5,0.1-6.8,0c-7.5-0.2-14.3-4.6-17.6-11.4
		c-3.6-7-3.3-14.3,1.4-20.8c1.7-2.4,1.5-3.7-0.2-6C33.3,282.6,15,252.4,0.7,220.3c-1.2-2.6-1.2-4.3,0.9-6.5
		c20.8-22.9,41.5-45.9,62.4-68.9c1.8-1.7,2.5-4.2,1.8-6.6c-4.1-17.2-8-34.4-11.9-51.6c-1.4-6-1.4-6,4.7-6.2
		C73,80,86.7,66.7,88.6,51.7c1.7-13.1-3.4-24.1-9.7-34.9c-4.7-8-4.7-8,3.4-12.5c11.9-6.7,25.1-5.4,35.8,3.5c2.2,1.8,2.1,3,0.7,5.3
		c-4.2,7.1-8.3,14.4-10.9,22.3c-7.5,22.4,10.5,47.2,32,45.5c3.6-0.3,2.2,1.7,1.8,3.4c-4.5,19.3-8.9,38.6-13.6,57.8
		c-0.8,2.7-0.2,5.6,1.4,7.8c17.8,26.7,35.5,53.5,53.4,80.2c1.9,2.9,2,5.2,1,8.3c-8.9,27.1-22.7,52.3-40.6,74.5
		c-2,2.5-2.6,4.2-1.1,7.3c5,10.4,0.3,22.6-9.6,26.4c-4.1,1.6-8.1,0.9-12.1-0.6L119.9,347.1z M125.9,152c-3.1,13.4-6,25.5-8.9,37.7
		c-0.4,1.3,0,2.7,1,3.6c10.1,11.2,10.5,24.3,6.9,37.9c-0.6,2.1,0.1,3.4,1,5c3.8,6.2,5.4,13.4,4.5,20.6c-0.4,2.9-1.5,5.6-4.6,6.6
		c-2.8,0.9-5.8,0-7.7-2.2c-1.5-1.6-2.9-3.5-4.5-5.4c-5.7,11.1-8.9,22.5-5.1,34.8c3.3,10.7,2.6,9.5,13.1,8.3c3.4-0.4,6.7-1.4,9.7,1.8
		c-0.7-2.7-2.9-4.5-0.4-7.6c13.2-16.5,25.4-33.7,37-51.4c1.6-2.5,2.9-5.6,5.2-7.2s1.8-1.9,0.7-3.7c-8.7-14.1-17.3-28.4-26-42.6
		L125.9,152z M69.9,155.4l-54.1,70.5c4.3-1.4,5.8,0.5,7.3,2.6c12,16.8,25.4,32.6,36.3,50.1c3.1,5.1,9,9.2,5,16.7
		c4.6-4.3,4.6-4.2,10-1.9c3.1,1.3,6.2,2.4,9.3,3.7s3.7,0,4.4-2.2c3.7-11.7,2.9-22.9-2.9-34c-0.8,1.6-1.4,2.9-2.2,4.1
		c-2.2,3.4-5.2,5.9-9.5,4.7s-4.8-4.6-5.1-8.3c-0.7-6.3,0.7-12.7,4-18.2c1.5-2.5,1.3-4.3,0.2-6.9c-6-14.8-6.5-29.2,4.2-42.4
		c0.7-0.9,1.5-1.7,1.2-3.1C75.1,179.4,72.6,168,69.9,155.4L69.9,155.4L69.9,155.4z M77.3,246c-3.3,4.2-5.2,9.3-5.4,14.6
		c-0.2,2.7,0.2,5.5,3.1,6.7s4-0.2,5.2-1.8s4.8-4.5,3.2-8.1s-3.9-7.2-6.2-11.4L77.3,246L77.3,246z M121.8,240.3l-4.6,9.1
		c-2.2,3.7-1,8.6,2.7,10.8c0.2,0.1,0.4,0.3,0.7,0.4c3.1,1.6,5.7,0.5,6.2-3c0.9-6.2-1-12.6-5.2-17.3H121.8z"/>
	<path id="X0069A9M2Gra4OT12" class="st0" d="M143.1,407.4c2.7,0.7,2.8,3.4,3.6,5.4c8.7,20.7,10.8,42.5,10.2,64.6
		c-1.1,41.8-8.8,82.7-17.3,123.5c-6.4,30.8-12.9,61.6-19.4,92.3c-2.2,10.6-4.7,21.1-7,31.7c-0.3,1.6-1.2,3.1-0.1,5.4l24.2-84.2
		c-1.1,9.8-2.2,19.6-0.9,29.3c1.9,13.9,1.7,27.9,3.6,41.8c1.4,10.1,0,20.1-5.1,29c-10.5,18.3-19.9,37.3-31.8,54.8
		c-1.4,2.1-3,4.1-5.4,7.3c-0.3-19.2-5.8-36.1-8.2-53.5c-2.7-19.7-0.9-39.3,3.3-58.6c6.6-29.9,13.9-59.6,20.6-89.5
		c7.5-33.5,13.2-67.3,18.7-101.1c0.1-0.6-0.2-1.2-0.7-1.6c-1.6,8-3.4,16.1-4.8,24.1c-4.8,26.2-10.8,52.1-16.6,78.1
		c-3.9,17.1-8.1,34-12.8,50.8c-0.8,2.9-1.7,5.7-2.9,8.5c-1.2,2.7-3.1,4.8-6.3,4.9s-5-2.4-6.1-5.1c-7.6-19.9-14.3-40.1-19.8-60.7
		c-8.3-30.5-10.4-61.6-11.5-93c-0.2-5.8-1.5-11.5-2.4-17.3c-3.3-22,4.3-36.9,24.1-47.2c8.1-4.2,16.6-7.6,24.2-12.9
		c10.8-7.6,19.4-17.2,26.6-28.2c0.7-1,0.8-3,2.6-2.5c1.7,0.5,2.9,1.8,3.3,3.5c1.1,3.9,0.1,7.5-1.6,11.1
		c-11.5,24.4-24.5,48-37.5,71.6c-5.3,9.6-10.7,19.2-16,28.8c-0.6,1.1-1.9,2-1.1,4.1c19.3-26.3,35.9-53.8,51.8-82
		c-2.4,13.2-4.7,26.5-7.3,39.7s-5.5,26.7-8.5,40.1c-3,13.4-6.1,26.6-9.5,39.8s-6.9,26.3-10,39.6c22.1-55.6,35.1-113.9,46.5-173.4
		c7.3,6.9,10.7,14.9,12.5,24.9c1.1-8.2-1.2-22-6-30.7c-2.8-5.2-2.7-9.1,0.9-13.4L143.1,407.4z"/>
	<path id="XFF00FFM1Gra1Co9" class="st0" d="M143.1,407.4l0.2-0.2c-1.8-0.1-2.8,1.6-4.4,2.1c-3.3,1-6.3,0.7-8.6-2.1s-2.9-6-0.5-8.1
		c2.4-2.1-1-3.8,1.3-5s3.7-1.6,5.7-0.6c1.9,0.9,2.9,2.9,2.7,4.9c-0.1,2.1-1.3,3.9-3.1,4.8c-1.1,0.6-3.3-1.2-3.4,1.5
		c-0.1,0.9,0.5,1.6,1.3,1.8c1.8,0.5,3.7-0.2,4.9-1.6c3.6-4.1,2.1-11.9-3.1-15.3c-1.3-0.8-2.7-1.5-4.1-2.1
		c7.4-1.9,13.8,4.9,12.6,13.1C144.4,403,143.7,405.2,143.1,407.4z"/>
	<path id="XA80212M1Gra4OT3" class="st0" d="M123.3,775.9c-0.9,7.1-1.3,14.3-1.1,21.5c-0.1,1.2-0.3,2.3-0.8,3.4
		c-0.5,1.3-1.3,2.4-2.8,2.4s-2.5-1.5-2.7-3C114.7,791,116.9,782.8,123.3,775.9z"/>
</g>
</svg>
