<?xml version="1.0" encoding="utf-8"?>
<!-- Generator: Adobe Illustrator 24.1.0, SVG Export Plug-In . SVG Version: 6.00 Build 0)  -->
<svg version="1.1" id="图层_1" xmlns="http://www.w3.org/2000/svg" xmlns:xlink="http://www.w3.org/1999/xlink" x="0px" y="0px"
	 viewBox="0 0 473.5 801.4" style="enable-background:new 0 0 473.5 801.4;" xml:space="preserve">
<style type="text/css">
	.st0{fill:#FFFFFF;stroke:#000000;stroke-miterlimit:10;}
</style>
<path id="X990000M2Color5_6_" class="st0" d="M197.5,276.2c11.1-2.1,22-5.2,32.5-9.2c18.6-7.5,35.1-17.8,46.7-34.6
	c15.5-22.5,15.7-47.1,8.6-72.4c-11.1-39.4-44.1-66.3-84.1-68.5c-40.5-2.2-79.3,24.6-91.6,63.2c-0.5,1.6-1,3.1-1.7,5.3
	c-2.5-26.9,25.7-67.2,57.5-82.9c39-19.3,86.2-12.4,118.3,16.6c28.6,25.9,49.2,77.6,21.2,130.9c9.3-10.1,16-22.4,19.5-35.6
	c10.8-41.4-5.9-86-42.7-111.3c-36.5-25.1-75.9-29.8-116-10.3s-60.7,53.6-64.3,97.9c-0.8,9.7,1.3,19.2,2.4,28.8
	c-4.8-8.5-8.3-17.6-10.5-27.1C83,125.4,93.9,88.9,119.1,55.6C161.9-0.9,241.7-15.7,300,17.4c1.5,0.8,2.9,1.8,4.1,3
	c-24.3-5.6-48.6-8.4-73.2-3.1c8.5,1,17,1.8,25.3,4.1c47.6,13.4,77.6,45.2,93,91c10.6,31.5,11,63.4-3.9,94
	c-17,34.9-45.9,55.6-82.9,65.1C241.2,277,219.5,279.1,197.5,276.2z"/>
<path id="X990000M2Color5_5_" class="st0" d="M313.5,40.1c11.7,6.2,22.6,13.9,32.4,22.9c39.9,37.1,62.5,82,60.1,137.6
	c-0.6,13-3.2,25.8-5.1,38.6c-1.4,9.4-2.1,18.9,0.1,28.3c3.3,14.5,11.3,21.2,26.2,22.1c0.6,0,1.2,0.2,3.2,0.6
	c-14,3.7-26.7,5.9-39.7,2.4c-15.9-4.3-23.9-19-20-36.6c1.2-5.2,3-10.2,5.4-15c3.1-6.6,5.5-13.6,7.3-20.7c0.8-2.7,1.2-5.5,1.3-8.4
	c-0.5,0.9-0.9,1.8-1.3,2.7c-10.2,31.7-29.7,56.7-55.7,76.9c-15.7,12.2-29.9,25.6-38.2,44c-14.4,31.6-5,63.8,24.2,82.4
	c5.6,3.6,11.4,6.8,17.2,10.3c-1.5,0.9-2.5,0-3.5-0.3c-27.1-8.6-52.2-20.6-69.8-44.1c-20.7-27.5-17.5-64.8,7.1-88.9
	c1.5-1.5,2.9-3.2,5.8-4.3c-13.4,20-18.4,40.9-12.1,63.5c0.8,0.5,1,0.4,1-0.1c-1.1-29.2,12.2-52.3,31.5-72.6
	c7.1-7.5,15.1-14.1,22.4-21.4c19.1-19.2,35-40.7,44.2-66.5c14.3-39.8,8.2-77.3-12.6-113.2C336.1,65.7,325.4,52.5,313.5,40.1z"/>
<path id="X990000M2Color5_4_" class="st0" d="M115.4,38c-10.5,16.1-19.6,32.7-25.1,51.1c-12.2,40.4-6.9,79.3,9.3,117.5
	c1.5,3.4,5.1,7.1,3.8,10.3c-1.1,2.8-5.7,4.2-8.6,6.4c-4.8,3.6-9.6,7.2-14.1,11.2c-2.2,1.9-3.1,2.2-4.3-0.8
	c-15.5-39.5-22-79.5-7.6-120.8c0-0.6-0.1-1.2-0.2-1.8c-2.1,4.4-3.8,7.8-5.2,11.3c-1.6,3.7-3.1,7.4-4.3,11.2
	c-12.9,39.8-12.2,80-2.4,120.3c1.3,4.6,0.6,9.5-1.8,13.6c-10.8,19.8-19.5,40.5-23.3,62.9c-0.4,2.3-0.7,4.5-1.1,6.8
	c-1.8,0.3-1.5-1.1-1.7-1.9c-16.4-59.9-18.8-119.9,0.3-179.8C44.6,107.4,73.6,69.1,113.9,39C114.3,38.7,114.9,38.3,115.4,38z"/>
<path id="X930000M2Gra8Co5_5_" class="st0" d="M267.3,143.3c-24.9-24-57.7-16.7-72.8,3.4c-15.8,20.9-11.7,50.6,9.2,66.4
	c0.5,0.4,1.1,0.8,1.6,1.2c20.2,14.2,54.4,11.6,70.2-19.4c0.6,25.3-32.2,55.4-64,58.9c-38.4,4.2-73.6-21.6-81.1-59.4
	c-7.6-38.1,15.6-75.5,53.3-86.2C215.9,99.1,257,116.1,267.3,143.3z M179.3,128.4c-22.4,7.6-37.1,39.2-30.7,65.7
	c6.1,25.4,33,47.2,54.3,44.1C150,227,136,160,179.3,128.4z"/>
<path id="X930000M2Gra8Co5_4_" class="st0" d="M375.5,293.4c10.5,1.9,20,6.3,29.2,11.3c21.5,11.6,41,25.6,55.7,45.4
	c9.9,13.3,15.7,27.9,11.8,44.8c-2.3,10.2-8.1,18.5-15.3,25.9c-11.3,11.6-25.1,19.5-39.7,26.5c16-11.8,29.8-25.4,35.1-45.3
	c5.5-20.3-0.7-38.1-11.9-54.8c3.2,8.9,5.6,18,6.4,27.5c1.1,13.6,0.5,27-4.9,39.8c-8.4,19.8-24.7,30.3-44.5,36.4
	c-8.7,2.7-17.8,4.4-26.5,7.1c-13,4-24.5,10.6-31.5,23c-11.2,19.8-4.4,45.9,15.3,59c1.2,0.8,2.4,1.5,4.1,2.6
	c-20.1,0-38-12.9-44.8-28.8c-10.3-24.4-4.8-46.8,16-63.4c13.5-10.8,29.2-17.4,45.6-22C427.4,413.9,441.3,349,403,311
	c-3.9-3.9-8.3-7.3-12.9-10.2C385.4,297.8,380.4,295.7,375.5,293.4z"/>
<path id="X990000M2Color5_3_" class="st0" d="M411.5,472.3c15.6,12.3,23.5,29.1,27.7,47.8c7.3,33.1-9.7,62.6-41.7,73.8
	c-10.1,3.5-20.6,5.3-31.1,6.8c-4,0.5-7.9,1.4-11.7,2.7c-11.5,3.9-13.4,12-5.3,21.3c-0.4-12.2,3.1-16.5,17.2-19.6
	c-1.9,2.6-3.6,4.8-3.5,7.7c0,2.9,1.5,5.5,3.8,7.2c0-3.2,0.1-5.8,3.6-7.2c-1.6,4.6-0.9,8,4.8,8.5c-2.8,3.5-6.3,3.9-9.9,3
	c-5-1.2-7.2-5-7.4-10.7c-2.6,3.4-1.8,6.2-0.7,8.9c1.5,3.8,4.3,6.7,7.1,9.6c7.3,7.6,7,14.9-0.9,22c-5.4,4.6-11.9,7.8-18.9,9.3
	c6-9.1,5.2-14.6-3.8-21.4c-4.4-3.3-9.2-6-13.7-9.1c-5.1-3.5-9.4-8.1-12.4-13.5c-6.4-11.9-1.6-25,10.9-29.9
	c6.5-2.6,13.3-3.1,20.1-3.4c17.1-0.8,33.9-3.6,48.8-12.6c34.7-20.8,46.8-67.4,17.9-100C411.9,473.1,411.7,472.8,411.5,472.3z"/>
<path id="X930000M2Gra8Co5_3_" class="st0" d="M409.9,374.3c-1.5,26.4-32.6,50.6-61.4,48.2c-34-2.8-59.3-31.9-55.9-64.3
	c3.6-34.3,32.9-58.3,66.7-54.1c-24.2,8-37.8,23.9-36.6,49.3c1,19.9,11.9,34.4,30.9,40.8C377,402.1,395.6,394,409.9,374.3z"/>
<path id="X990000M2Color5_2_" class="st0" d="M424.2,519.1c-0.8,23.7-21.3,48.6-46.2,56.7c-27.7,9.2-58.3,0-76.2-23.1
	c-17.1-21.9-19.5-53.8-5.3-76.4c0.8,38.8,18.5,65,56.7,73.1C382.6,555.7,406.2,543.8,424.2,519.1z"/>
<path id="XFF9900M2Gra3C03" class="st0" d="M209,589.6c-20.5,1.9-34.9-8-46.5-23.7c-2.9-3.9-5.6-7.8-9.2-11.1
	c-1.3-1.2-2.6-3.2,0.4-3.4c10.3-0.8,18.1-7.2,26.5-11.8c8.2-4.5,16-6.8,25.1-3.1c3.9,1.6,8.3,0.9,12.3-0.5c7.3-2.7,14-1.3,20.5,2.3
	c6.2,3.5,12.5,6.9,18.8,10.2c2.9,1.6,6.1,2.6,9.5,2.7c1.4,0,4.3,0.6,2,2.8c-7.9,7.8-13.5,17.7-22,24.9c-10,8.5-21.6,11-34.3,10.6
	C211,589.6,210,589.6,209,589.6z M244.6,552.6c-6.5-1.6-11.6-5.8-17.8-3.7c-10.8,3.5-21.2,3.9-32.1,0.1c-6.2-2.2-12.2,0.5-17.8,3.8
	C199.4,561.8,221.4,561.6,244.6,552.6L244.6,552.6z"/>
<path id="XFF949DM2Gra6OT37" class="st0" d="M43.2,801.4c27-28.8,49.6-60.1,60.1-98.9c10.2-37.5,20.2-75,15.4-114.6
	c1.5-0.2,1.8,1.4,2.5,2.3c16.3,19.5,35.4,35.7,58,47.5c21.3,11.1,42.5,10.4,63.6-1c20.2-10.8,38.2-25.2,53-42.6c1,0.8,0.3,1.4,0,1.8
	c-14.4,21-31.9,38.8-54.2,51.5c-19.5,11.1-39.3,11.6-59.3,2c-18.1-8.6-34.3-20.7-47.8-35.6L132,611c-1,8.9-1.7,17.1-2.8,25.2
	c-5.3,38.2-15.1,75.1-34.9,108.7C81.3,767,63.9,786.2,43.2,801.4z"/>
<path id="XCC0000M1Gra7Co6_3_" class="st0" d="M364.3,502.8c7.9,7.8,17.1,10,27.1,6c11.5-4.6,16.6-13.8,16.9-26.2
	c2.1,0.9,2.4,2.8,3,4.3c8.1,18.9-0.7,40.8-19.6,48.9c-12.7,5.4-27.4,3.4-38.1-5.4c-13.5-11-17.6-29.6-9.8-45.7
	c4.8-10,11.8-17.4,23.5-18.7c8-0.9,14.5,2.2,18.6,9.2c3.9,6.6,3.7,13.5-0.6,19.9c-4.5,6.7-11,9.4-19,8.1
	C365.6,503,364.9,502.9,364.3,502.8z"/>
<path id="XCC0000M1Gra7Co6_2_" class="st0" d="M270.3,175.2c0,21.1-17,38.2-38.1,38.3s-38.2-17-38.3-38.1c0-21.1,17-38.2,38.1-38.3
	c0,0,0,0,0.1,0C253.2,137.2,270.3,154.2,270.3,175.2z M232.1,197c11.9,0,21.6-9.7,21.6-21.6c0-11.9-9.7-21.6-21.6-21.6
	s-21.6,9.7-21.6,21.6c0,0,0,0,0,0.1C210.5,187.4,220.1,197,232.1,197L232.1,197z"/>
<path id="X930000M2Gra8Co5_2_" class="st0" d="M373,387c-21.4,0.3-39-16.8-39.3-38.1s16.8-39,38.1-39.3
	c21.4-0.3,38.9,16.7,39.3,38.1C411.5,369,394.4,386.6,373,387C373,387,373,387,373,387z M401.3,337.3c0.1-12.7-10.1-23.1-22.8-23.2
	c-12.7-0.1-23.1,10.1-23.2,22.8c-0.1,12.7,10.1,23.1,22.8,23.2c0.1,0,0.2,0,0.2,0C390.9,360.1,401.2,349.9,401.3,337.3z"/>
<path id="XEC2AFFM2Gra1OT31" class="st0" d="M105.5,366.6c-8.6,0.8-16.2,3-23.8,5.5c-2.2,0.7-2.2,1.7-1.3,3.6
	c8.9,20.7,29.4,30.5,51.4,24.5c6.4-1.7,12.6-4.5,19.4-4.3c2,0.1,4-0.2,6.6,1.8c-8.1-1.1-14.5,1.5-21,4.1c-23.5,9.4-44.3,3.7-60-16.2
	c-1.2-1.4-2.3-2.9-3.3-4.4c-3.1-5.1-6.7-9.5-12.2-12.6c-6.4-3.6-9.7-10.3-12.9-17.8c12.6,8.2,25.1,5.5,37.8,2.6
	c29.8-7.2,60.9,5.8,76.8,32c0.2,0.7,0.3,1.4,0.3,2.1c-7.7-8.6-16-14.7-26.4-18.1c2.6,12.2,0.4,19.5-7.2,24c-6.6,4-15.1,3.3-21-1.7
	C101.8,385.8,100.8,378.2,105.5,366.6z M120.2,383c3.2-0.2,5-1.9,5.1-5s-1.8-5.1-4.9-5.1c-2.6-0.2-4.9,1.7-5.1,4.2
	c0,0.3,0,0.5,0,0.8C115.2,381,117.2,382.7,120.2,383z"/>
<path id="XE655FFM2Gra1OT30" class="st0" d="M43.8,314.4c11.8-10.7,24.9-17.4,40.8-17.6c17.9-0.2,34.9,4.7,51.6,10.4
	c14,4.8,27.6,10.6,41.2,16.6c2.8,1.2,4.3,2.7,4.1,5.9c-0.2,4.1-0.1,8.3,0,12.5c0.1,3.7-0.8,4.2-4.1,2.1c-15.2-9.5-31.2-17.9-47.7-25
	c-10.7-4.7-21.3-9.4-32.6-12.4c-17.4-4.6-34-2.3-49.7,6.5C46.5,313.8,45.8,315,43.8,314.4z"/>
<path id="X990000M2Color5_1_" class="st0" d="M427.4,238.1c-13.4,14.5-12.7,32.7,1.4,38.6c-3.1-11.3,0.2-18,10-19.8
	c-4.5,4.9-6.4,10.1-3.1,15.9c3,5.2,8,6.7,13.9,5.6c-5.1,7.5-20.7,11-30.4,6.9c-10.3-4.3-16.2-16.7-13.7-28.3
	C407.8,246.4,417.5,238,427.4,238.1z"/>
<path id="X930000M2Gra8Co5_1_" class="st0" d="M195.7,99.9c-27.6,3.3-48.4,16.2-62.3,38.5c-14.1,22.8-13.8,47.3-3.9,72.1
	c-12.2-12.7-19.6-44.1-5.9-70.4C137.5,113.3,169,95.1,195.7,99.9z"/>
<path id="X930000M2Gra8Co5" class="st0" d="M349.1,433.4c-28.5,13.7-48.7,32.4-43.5,67.4c-5.7-8-5.9-29.2,0.1-41.3
	C314.6,441.8,330.1,434.5,349.1,433.4z"/>
<path id="X990000M2Color5" class="st0" d="M1.8,312.3c-0.1,8.8,0.7,17.5,3.7,26c2.6,7.2,6.4,13.9,11.3,19.8
	c5.3,6.4,7.4,13.7,5.5,21.9c-0.8,3.5-0.4,6.9,1.1,11.1c-3.8-3.3-4.5-7-4.4-10.7c0.2-8.2-2.6-16.2-7.9-22.5
	C0.3,344.5-2.2,329,1.8,312.3z"/>
<path id="XFF6315M2Gra4OT38_1_" class="st0" d="M197,503c-7.9-0.5-12.7-3.7-16.6-10.3C187.7,493.9,192.6,496.9,197,503z"/>
<path id="XFF6315M2Gra4OT38" class="st0" d="M224.9,502.3c3.6-5.7,7.3-7.9,14.9-9.2L224.9,502.3z"/>
<path id="XCC0000M1Gra7Co6_1_" class="st0" d="M246.2,175.5c-0.1,7.7-6.5,13.9-14.2,13.8s-13.9-6.5-13.8-14.2s6.5-13.9,14.2-13.8
	S246.3,167.8,246.2,175.5z"/>
<path id="XCC0000M1Gra7Co6" class="st0" d="M383,317.9c7.7,0,14,6.3,14,14c0,7.7-6.3,14-14,14c-7.7,0-14-6.3-14-14c0,0,0-0.1,0-0.1
	C369,324.1,375.3,317.9,383,317.9C383,317.9,383,317.9,383,317.9z"/>
</svg>
