<?xml version="1.0" encoding="utf-8"?>
<!-- Generator: Adobe Illustrator 21.0.0, SVG Export Plug-In . SVG Version: 6.00 Build 0)  -->
<svg version="1.1" id="图层_1" xmlns="http://www.w3.org/2000/svg" xmlns:xlink="http://www.w3.org/1999/xlink" x="0px" y="0px"
	 viewBox="0 0 509.8 830.7" style="enable-background:new 0 0 509.8 830.7;" xml:space="preserve">
<style type="text/css">
	.st0{fill:#FFFFFF;stroke:#000000;stroke-miterlimit:10;}
</style>
<title>Anime10_13_503</title>
<g>
	<path id="XFFCC33M2Gra3Co2_1_" class="st0" d="M202.7,395.6c0.6,5.7,3.2,10.8,4.7,16.2c5.9,21.3,10.3,42.8,6.6,65.1
		c-4.4,26.4-19.9,42.5-46.2,48c-18.4,3.9-36.8,2.3-55.2-0.4c-23.7-3.5-47.4-5.1-71.1-0.6c-8.1,1.5-15.9,3.9-22.6,8.8
		S8,546.5,10.4,556.4c1.7,6.9,5.4,12.8,9.4,19C8,567.9-2.3,543.8,0.5,530.8c2-9.4,8.1-15.9,16-20.8c12.8-8,27.2-11.5,41.9-14
		c19.1-3.3,38.4-4.4,57.7-4.7c10.4-0.1,20.6-2.7,29.7-7.7c17.5-9.5,25.1-25.8,21.4-45.3s-13.4-34.7-24.7-49.6S120.7,358,115,339.8
		c-9.1-28.9-5.8-57.3,3.6-85.4s22.9-52,38.1-76.2c22.5-35.6,48.3-68.6,75.3-100.7c14.3-17,31.3-30.9,52.4-39
		c28.1-10.8,52.2-1.1,69.6,23.2c-2,0-2.6-1.5-3.5-2.3c-16.1-15-34.9-17.6-54.2-6.9c-13,7.2-23.2,17.7-32.5,29.2
		c-20.4,25.4-38,53-52.5,82.2c-15.8,31.8-27.5,65-32.4,100.3c-5.9,42.9-0.5,84,20,122.6c1.2,2.3,2.7,4.6,4,6.9L202.7,395.6z"/>
	<path id="XFF6315M2Gra8OT38" class="st0" d="M202.7,395.6v-1.9c18,20.4,38.8,37.8,58.4,56.6c14.3,13.7,30.8,16.7,49.4,13.7
		c6.1-0.9,11.9-3.4,16.7-7.4c23.5-20,46.2-40.8,67.3-63.5c-0.9,1.5-1.8,3-2.8,4.5c-6.4,9.4-14,17.8-21.9,25.9
		c-1.8,1.8-3.1,3.6-3.1,6.5c-0.2,23,0.7,46,5.9,68.5c3.4,14.7,8.4,28.7,16.4,41.6c11.4,18.3,28.6,28.9,47.9,36.7
		c21.1,8.5,43.1,13.7,65.5,17.1c2.4,0.4,4.8,0.9,7.1,1.6c-12.7-0.6-25.1-2.9-37.5-5.4c-14.4-3-28.5-7.1-42.2-12.4
		c-30.7-11.5-49.2-34.1-59.1-64.7c-7.5-23-10.4-46.7-11-70.8c0-1.9,0-3.9,0-6c-2.1-0.1-2.6,1.3-3.4,2.2c-6,6-12.1,11.9-17.9,18.2
		c-13.8,15.1-31.3,17.6-50.4,15.7c-10-1-18.4-5.3-25.8-12s-16.6-16.3-25.3-25.5c-0.4,7.8-0.6,14.6-1.1,21.5
		c-1.7,25.3-6.2,49.9-17,73.1c-9.2,19.6-23,34.6-42.7,43.8c-2.5,1-4.2,3.3-4.5,5.9c-2.1,11.1,0,21.5,4.7,31.6s10.2,16.8,16.9,24
		c1.5,1.6,3.6,2.4,5.7,2.4c17.6,1.2,35.2,2.3,52.8,3.7c6,0.4,11.9,1.8,17.5,4.1c5,2,9.4,5.2,12.7,9.4c-0.5,0.2-0.9,0.5-0.9,0.5
		c-9.3-8.8-21-10.3-33-10.5c-15.1-0.4-30.3-0.3-45.5-1.6c-0.4,2,1.3,2.3,2.1,3c13.2,11.2,27.6,21,42.9,29.2
		c10.1,5.5,19.9,11.5,28.5,19.2c3.6,3,6.7,6.5,9.3,10.4c5.9,9.3,4.5,17-4.4,23.4s-18,8.5-27.7,10.9c-11.5,2.8-23.4,3.5-34.5,8.1
		c-6.9,2.9-13.9,5.7-19.7,10.6c-8.1,6.8-8.3,13.8-0.7,21.2c3.5,3.4,7.7,5.7,11.5,9l-13.1-4.8c-12.1-4.7-24-9.9-35-17.1
		c-5.2-3.4-10.1-7-13.8-12.2c-4.9-6.9-4.4-12.9,1.6-18.8s10.6-7.5,16.6-10c10.8-4.3,22.1-7.6,33.5-9.8c5.9-1.1,11.6-3.1,16.8-6.1
		c10.1-6,12-14.1,5.5-24c-5.2-7.9-12.5-13.7-20-19.4c-13.4-10.1-25.3-21.6-34.9-35.5c-5.5-8-9.8-16.6-11.8-26.2
		c-2.3-10.4-0.6-21.2,4.7-30.4c7.5-13,19.2-21.2,32.1-28.1c-6.9,6.7-13.1,13.9-17.4,24c10.8-5.8,19.5-12.5,26.5-21.2
		c13.2-16.6,19.5-36.2,23.6-56.6s4.5-41.7,4.4-62.7c0.1-1.5-0.4-3-1.5-4.1C218.6,415.6,210.3,405.9,202.7,395.6z"/>
	<path id="XFFCC33M2Gra3Co2" class="st0" d="M88.5,384.7c-8.3-7.1-15.6-15.3-21.6-24.4c-21.1-31.1-26-65.4-19.5-101.8
		s22.3-68.9,41.7-99.9c20.5-32.7,44.3-63.1,72.1-89.8S221.2,19,259,6.4c22.9-7.6,46-9.4,68.9,0.4c14.2,6,26.2,16.1,34.7,28.9
		c-1.3,1-1.9-0.2-2.6-0.7c-17.3-12-36.5-15.6-57-12.3c-24.7,3.9-45.2,16.3-64,32c-23.9,19.8-43.2,43.7-60.8,69.2
		c-0.8,1.4-1.9,2.6-3.2,3.5c25.6-44.2,53.2-86.5,102.6-110.6c-11.7,2.7-23,6.6-33.9,11.6c-22.6,10.3-41.9,25.2-58.5,43.6
		c-35,39-65.7,81-88.3,128.5c-15.5,32.6-26.3,66.6-27.5,103C68.5,332.2,73.3,359.5,88.5,384.7z"/>
	<path id="XFFCC33M2Gra4Co2" class="st0" d="M382.3,426.1c5.7-10.7,10.9-21.6,15.5-32.8c11.8-29.6,14.7-60.6,15.7-92.1
		c1.1-28.5-1.3-57-7-84.9c-7.9-38.1-21.2-73.9-47.2-103.8c-13.4-15.5-29.4-26.4-50.2-29.3c-3.5-0.6-7.1-0.6-10.6,0
		c38.9,6.8,62.1,31.3,77.1,65.3c-3.6-4.8-7.2-9.6-11-14.3c-7.7-9.6-17.2-17.6-27.8-23.8c-23.2-13.1-46.1-11.8-68.9,1.2
		c-12.7,7.3-23.4,17-33.3,27.7c-1.2-1.3,0.1-2.2,0.5-3c9-19.4,19.1-38.1,33.4-54.3c4.7-5.4,10-10.3,15.8-14.5
		c19.4-13.7,39.2-14.3,59.3-1.9c17.3,10.6,29.9,25.9,40.6,42.7c29.2,46,46.1,96.2,49.6,150.7c2.2,35-0.5,69.6-12,103
		C413.4,386.3,400.7,407.9,382.3,426.1z"/>
	<path id="XFFCC33M2Gra8Co2" class="st0" d="M99.5,673.5c-1.4,18.3,10.2,29.5,27.3,26.5s25.4-21,15.1-35.7
		c-7.1-10.3-17.3-17-28-22.9c-12.9-7.2-26.2-13.9-38.5-22.2c-10.6-7.2-21.1-14.6-29.8-24.1c-4.6-4.9-8.8-10-11.2-16.4
		c-3.5-8.9-1.8-16.2,5.2-22.6c5.3-4.8,11.6-7.7,18.2-10.1c19.8-7,40.5-9.1,61.3-11.2c16.4-1.6,33-0.6,49.3-3.8
		c10.7-2.2,21-5.4,30-11.7s16.2-15.6,17.7-27.7c0.1-1,0.5-1.9,1.1-2.7c0.7,13.4-2.9,25.4-11.9,35.5c-10.6,12-24.6,17.8-39.7,21.6
		c-12.3,3.1-25.1,3.4-37.4,6.3c-10,2.3-20,5.1-28.3,11.7s-9.4,14.6-4.6,23.5s13.8,17.9,22.7,24.9c13.8,10.9,28.7,20.6,41.5,32.8
		c8.7,8.3,17.1,16.9,22.4,27.9s3.7,23.4-7.6,30.7c-19.6,12.8-40.6,15.8-62.8,7.2c-4.7-1.8-8.9-4.6-12.3-8.3
		C91.5,694.5,91.6,682.1,99.5,673.5z"/>
	<path id="XFFCC33M2Gra7Co2_3_" class="st0" d="M465.9,311.9c6.5-35-1.1-67.5-14.4-99.1c15.9,56.4,5.8,109.2-21.7,159.9
		c-1.4-0.9-0.7-1.5-0.4-2.1c13-27.6,17.7-56.8,16.8-87c-1.5-47.8-15.5-92.4-35-135.5c-9.9-22.2-21.6-43.6-35-63.9
		c-0.4-0.8-0.7-1.6-0.9-2.4c18.6,16.7,35.1,33.9,49.7,52.9s26.9,39.2,36.1,62c0.3-9.7-19.2-52.3-35.5-78.1
		c-15.4-24.3-33.1-47.1-52.8-68c12.2,8.8,23.8,18.5,34.6,29c30.4,29.3,54.3,62.9,66.4,104s9.9,84.2-6,125.4
		c-0.2,0.5-0.4,0.9-0.7,1.3L465.9,311.9z"/>
	<path id="XFFCC33M2Gra1Co2" class="st0" d="M50.1,420.3c-2.8,13.7,0.4,19.4,13.7,22.7c14.9,3.7,30.1,4.5,44.9-0.1
		s18.6-14.6,12.1-28.4c-2.7-5.8-6.2-11.1-10.6-15.7C92.5,380.3,85,357.5,83,332.7c-2.8-33.5,5.2-65.2,17.2-96
		c8.7-22.2,19.9-43.2,32.1-63.7c0.6-1,1.5-1.8,2.6-2.2l-4.6,8.6c-17.3,32.9-30.9,67.2-35.8,104.3c-3.5,25.9-1.9,51.2,9.1,75.4
		c5.8,12.8,14.2,23.6,24.3,33.3s20.3,22.9,26.6,37.2c1.7,4,2.9,8.1,3.6,12.4c2,12.5-2.5,22.3-13,29.2s-24,9.6-36.9,11.5
		c-16.6,2.4-32.9,0.5-48.8-4.5c-4.1-1.3-8.1-3.1-11.8-5.4c-11.4-7.1-15.1-17.4-10.7-30.1C39.6,434.3,44.2,427.3,50.1,420.3z"/>
	<path id="XBF0202M2Gra4Co4" class="st0" d="M341.6,396l-21.4,17.2c-2.9,2.5-6.6,4.1-10.4,4.6c-17.1,1.6-33.7,1.1-46-13.7
		c-2.1-2.5-5.2-4.1-8.1-5.7s-3.1-2.5,0-3.5s7.2-5,9.7-8.8c3-4.4,6.9-8.2,11.4-11.2c4.8-3.2,9.8-4.6,15.5-2.3
		c2.6,1.3,5.5,1.4,8.2,0.4c11-4.7,18.9,0.6,25.7,8.5C330.8,387,333.8,393.9,341.6,396z M278.1,389.3c13.2,2.9,25.8,3.2,38.2-0.6
		c-3.7-2.3-7.5-4.7-12.8-2.2c-3.6,1.5-7.6,1.5-11.2-0.1C286.9,384.1,282.7,386,278.1,389.3z M317.6,376.5c-0.8-1.8-2.5-2.5-4.3-2.8
		s-2.6,0-2.4,1.6s1.8,2.3,3.3,2.5S316.9,378.1,317.6,376.5z"/>
	<path id="XFFCC33M2Gra7Co2_2_" class="st0" d="M278.2,823.6c-19.9-8.5-39.6-17.2-55.4-32.6c-1.9-1.9-3.6-4-5-6.2
		c-5.2-8-4.2-15.5,3.2-21.7s16.6-9.5,26.2-12c-10,6.1-17.7,13.3-14.2,26.7c11.8-13.6,28.1-14.9,44.9-17.7
		c-9.6,9.4-17.8,18.9-18.1,32.5S268.2,815.4,278.2,823.6z"/>
	<path id="XEC2AFFM2Gra1OT31_1_" class="st0" d="M216.6,264.2h-0.5c-4.1,2-10,4.6-9.9,8.1s6.4,5.4,10.5,7c6.9,2.7,14.1,4,21.5,1.8
		c1.2-0.1,2.3-0.1,3.5,0c-8.5,5.1-17.1,4.5-25.1,1.4c-10.9-4.2-21.6-8.4-33.8-7.7c4.3-1,8.7-0.4,13-3.8c-4.4-0.1-7.9-0.2-11.2-1.4
		c-1.1-0.4-3.1-0.4-2.7-2.3c0.4-1.9,2-0.6,3-0.5c4.5,0.5,8.9-0.3,14.2-1.3c-3.6-2.6-7.8-3.4-9.2-7.8c3.3,1.6,6.3,2.7,7.2-2.4
		c0.2-1.2,3.4-0.3,5.1-1.5c3.5-2.4,7.4-4.1,11.6-4.9c11-2.6,21.2-0.3,30.7,5.2c8.5,4.9,15.8,11.9,21,20.2c-7-3.2-13.6-7.3-21.1-9.4
		c-1,11.7-4.9,15.8-14.7,15.6S217.5,275.8,216.6,264.2z M206,254.6c10.5-1.5,21.1-3.4,31.6-0.1C227.6,249.6,215.9,249.7,206,254.6
		L206,254.6z M203.8,260.2c-2.4-1.2-4.7-4.4-7.8-0.2C198.5,260.9,201.2,260.9,203.8,260.2L203.8,260.2z"/>
	<path id="XEC2AFFM2Gra1OT31" class="st0" d="M399,259c1.9,0.8,3.4-0.3,5.7-2.3c-1.9,5.3-5.5,6.4-9.7,8.3c3.7,1.3,7.7,1.9,11.6,1.9
		c1,0,2.7-0.6,2.8,1.1s-1.3,1.9-2.4,2.1s-4.9,0.6-7.8,1c2.8,3.2,6.7,2.3,10.4,3.2c-3.6,2.6-7.4,1.9-10.9,1.4c-3.1-0.5-6.3,0.2-8.9,2
		c-7.7,4.7-16.4,6.4-25.3,6.9c-4,0.2-7.6-1.2-11.1-3.4c7.5,1.3,14.8,1.5,22.1-1.1c4.1-1.4,8-3.4,11.6-5.8c1.9-1.3,2-2.3,0.2-3.8
		s-5.7-5-9.8-6.7c0.2,5.5-0.4,10.5-4.7,14.1s-6.3,2.8-9.9,2.8c-8-0.1-12.1-5.1-13.1-15.8c-7.4,2.3-14,6-20.7,9.9
		c-0.9-1.5,0.4-2.2,1-2.9c7.2-9.4,15.9-17,27.2-21.3c11-4.4,23.4-3.5,33.7,2.4c2.9,1.6,7.2,1.6,8,6.1c-3.1-1.6-6-1.5-9.3,1.5
		C393.4,260.6,396.5,261.8,399,259z M352.3,256.3c5.8-1.5,11.6-3.2,17.7-3.5s12.2,2.1,18.5,1.6C376.1,249.1,364,249.9,352.3,256.3
		L352.3,256.3z"/>
	<path id="XFFCC33M2Gra7Co2_1_" class="st0" d="M275.5,668.2c20.9,7.9,41.6,16.1,58.7,30.9c15.6,13.4,14.1,25.6-4,35.4
		c-4,2.1-8.1,3.9-12.3,5.4c-7.9,2.8-16.1,5.2-24.3,7c0.9-2,2.7-2.1,3.9-2.8c5.6-2.6,10.6-6.3,14.9-10.7c7.3-7.8,8.7-17.1,4.1-26.8
		s-10.5-14.9-17.4-21S283.5,673.8,275.5,668.2z"/>
	<path id="XFFCC33M2Gra7Co2" class="st0" d="M326.1,798.1c3.7,6.3,6,11.9,6,18.2s-3.3,10.1-10.1,12.7c-15.9,5.9-36-3.6-42.7-20.3
		c-5.9-14.6-1.4-32.5,11.5-43.6c-5.3,10.9-5.8,21.5-1.7,32s10.7,17.3,22.2,18.3s15.6-4,14.9-14.6
		C326.1,800.3,326.1,799.8,326.1,798.1z"/>
	<path id="XE655FFM2Gra2OT30" class="st0" d="M321.2,239.4c-0.4-4.9,1.5-8,6.3-10c13.6-5.9,26.9-12.2,40.4-18.3
		c9.5-4.3,19.4-5.8,29.7-3.4c1.7,0.4,3.6,0.8,3.5,2.8s-2.1,2.5-3.7,2.6c-13.7,0.8-24.9,7.8-36.3,14.4s-23,13.4-34.2,20.5
		c-4.2,2.6-5,1.3-5.2-2.7C321.7,243.4,321.4,241.4,321.2,239.4z"/>
	<path id="XE655FFM2Gra1OT30" class="st0" d="M207.6,206.6c7-0.1,13.5,1.8,19.7,4.6c13,5.9,25.9,12.1,39.1,17.6
		c5.8,2.4,7.9,6.1,7.3,11.9c-0.3,3.1,0.7,7.4-1.9,8.8s-5.1-2.2-7.6-3.7c-13.7-8.5-27.5-16.7-41.7-24.5c-7.3-4-15-7.2-23.5-7.8
		c-1.3-0.1-3,0.2-3.1-1.7c-0.3-1.9,0.8-3.8,2.7-4.3C201.5,206.7,204.6,206.4,207.6,206.6z"/>
	<path id="XFF9900M2Gra1C03" class="st0" d="M136.6,555.6c-3.7,3.2-6.5,5.3-8.9,7.7c-10.1,10.4-11.9,22.8-5.3,35.7
		c5.3,10.3,13.4,18.1,22.2,25.4l5.4,4.2c-3.7-0.4-5.7-2.3-8-3.7c-9.8-5.7-19.2-12-26.8-20.6c-12.6-14.3-11.8-26.4,2.8-38.4
		C123.2,561.7,129.2,558.6,136.6,555.6z"/>
	<path id="XFF6315M2Gra2OT38_1_" class="st0" d="M470.3,624.4c-11.2,5.8-23.4,8.9-35.8,11.6c-24.6,5.4-49.7,8-74.8,7.9
		c-6.2,0-12.3,0.4-18.5,0.7c-10.9,0.5-20.5,3.7-28.2,11.9c3-5.7,8-9.2,13.8-11.6c9.2-3.8,19-4.7,28.9-5.1
		c30.8-1.1,61.4-4.5,91.7-10.1C455,628.3,462.6,626.3,470.3,624.4z"/>
	<path id="XFFCC33M2Gra6Co2" class="st0" d="M87.1,429.5c0.6-1.4,1.5-1.2,2.2-1.3c9.4-1.3,12.9-5.8,11.9-15.2
		c-0.1-1.3-1.4-3.2,0.8-3.8s2,1.5,2.5,2.6c1.3,2.3,2.1,4.9,2.5,7.5c0.5,5.2-1.4,8.2-6.4,9.7C96.2,430.2,91.6,430.3,87.1,429.5z"/>
	<path id="XFF6315M2Gra4OT38_1_" class="st0" d="M293.9,355.8c-2.7-2.6-5.8-3.1-9.2-3.3c-3.2-0.1-6.1-1.9-7.7-4.7
		c5.9-2.9,13-0.5,16,5.4C293.4,354,293.7,354.9,293.9,355.8z"/>
	<path id="XFF6315M2Gra4OT38" class="st0" d="M302.8,354.9c4.5-7.5,9.4-9.5,19-7.2C313.6,348,307.6,349.9,302.8,354.9z"/>
	<path id="XFF6315M2Gra2OT38" class="st0" d="M276.6,351.3c-6.8-3.6-7.6-5.5-4.9-11.8C271.4,344.5,273,347.8,276.6,351.3z"/>
</g>
</svg>
