<?xml version="1.0" encoding="utf-8"?>
<!-- Generator: Adobe Illustrator 24.1.0, SVG Export Plug-In . SVG Version: 6.00 Build 0)  -->
<svg version="1.1" baseProfile="tiny" id="图层_1"
	 xmlns="http://www.w3.org/2000/svg" xmlns:xlink="http://www.w3.org/1999/xlink" x="0px" y="0px" viewBox="0 0 731.2 1080.2"
	 xml:space="preserve">
<g>
	<path d="M731.1,540.1c0,178.5,0,357,0.1,535.5c0,3.7-0.8,4.6-4.6,4.6c-240.7-0.1-481.3-0.1-722,0c-3.7,0-4.6-0.8-4.6-4.6
		c0.1-357,0.1-714,0-1071C0,0.8,0.8,0,4.6,0c240.7,0.1,481.3,0.1,722,0c3.7,0,4.6,0.8,4.6,4.6C731.1,183.1,731,361.6,731.1,540.1z
		 M454.1,211.2c-0.4-0.4-0.9-0.8-1.3-1.1c-2-10.2-3.8-20.4-6.1-30.5c-1.9-8.3-2.6-16.9-5.8-24.9c-0.1-0.5-0.5-1,0.2-1.4l-0.2,1.3
		c0.1,6,0.4,12,0.4,18c-0.1,7.8-0.4,15.7-4.5,22.7c-0.5,0.8-0.7,2.1-1.9,2c-1.6-0.1-1.6-1.4-1.8-2.6c-0.4-2.3-0.7-4.6-1.1-6.9
		c-0.1-0.4-0.3-0.8-0.6-1.2c-0.2,0.4-0.6,0.8-0.6,1.2c0.2,4.3,0.3,8.7,0.8,12.9c0.2,1.8,2.2,1.9,3.6,2c6.7,0.4,12.5,3.3,17.8,7.2
		L454.1,211.2c0.4,0.3,0.8,0.6,1.2,1c3.7,5.1,7.6,10.1,11.2,15.3c5.1,7.5,5.4,19.4,0.8,24.8c-0.6,0.7-1.3,2-2.3,1.3
		c-1.3-0.8-0.1-1.7,0.4-2.4c2.4-3.6,2.5-7.5,1.4-11.5c-0.2-0.6-0.6-1.5-1-1.5c-1.1-0.1-1.1,1.1-1.1,1.8c-0.3,3.2-1.2,6.2-2.6,9.1
		c-2.4,5.2-8.2,8.7-8,15.3c-1-5.2-5.1-8.4-10-7.9c-2,0.2-3.7,1.5-4.4,3.4c-0.9,2.2,0.6,3.3,2.1,4.5c4.2,3.3,8.3,3.3,12.4-0.1
		c-2.1,4.5-5.9,5.6-11,2.7c-5.3-3-11.3-3.2-16.9-4.9c-0.7-0.2-1.8,0.7-2.2-0.3c-0.6-1.3,0.7-1.7,1.5-2.2c1.6-0.9,1.2-2,0.9-3.4
		c-3.2-13.1-2.3-25.7,4-37.8c1.3-2.5,0.4-3-1.7-3c-3.7,0-7.3,0.1-11,0.2c-1.7,0-3.9,1.9-5-0.1c-1-1.8,1.5-3,2.5-4.5
		c0.2-0.3,0.5-0.5,0.7-0.7c0.8-1.2,2.9-2,2.2-3.6c-0.5-1.1-2.5-0.3-3.8-0.2c-0.7,0-1.8,0.6-1.9-0.7c0-0.3,0.5-0.8,0.9-0.9
		c1.2-0.6,2.5-1,3.7-1.5c-1.3-0.6-2.7-1.2-4-1.9c-4.2-1.9-6.9-5.2-8.9-9.1c-1.8-3.8-3.1-7.7-4.1-11.8c-2-7.3-2.9-15-6-22
		c0-0.3-0.6-0.8,0.3-0.9l-0.3,0.8c0.4,8.5,1.3,16.9,2.6,25.3c0.6,4,4.1,8.8,1.2,11.7c-2.6,2.6-7.9,1.1-12.1,1.1
		c-14.5-0.1-22.1-5.6-26.7-19.4c-2.1-6.3-4-12.7-6-19c-0.2-0.7-0.2-1.7-1.3-1.7c-0.1,0.5-0.2,0.9-0.2,1.4
		c1.6,10.6,0.5,21.7,5.7,31.7c0.5,0.9,1.7,2.1,0.5,3.1c-1.4,1-1.9-0.7-2.7-1.4c-5.9-5.6-9.2-12.6-10.9-20.4
		c-2.5-11.6-3.5-23.4-3.1-35.2c0-0.6-0.1-1.3-0.2-1.9c-0.4,0.5-0.7,1-0.9,1.6c-4.1,17-8.6,33.9-9,51.5c-0.1,3.8-0.6,5.7-5,4.6
		c-2-0.4-4-0.4-5.9,0c-3.9,0.7-9.2,0.9-9.8,5.4c-0.6,4.4,3.7,7.3,7.8,8.6c6.6,2.1,10.4,6.3,11.2,13.2c0.4,3.1,1.5,4.8,5,4.5
		c2.5-0.2,5.4,1.2,5.4,3.5c-0.2,6.2,4.3,7.8,8.4,10.3c1.5,1,2.8,2.4,3.7,4c1,1.6,3.1,3.6,1.3,5.3c-1.4,1.3-2.8-1.1-4.1-1.9
		c-3.8-2.5-8-1.9-12.1-1.6c-1.4,0.1-2.6,1.1-2.9,2.5c-2,12.4-13,21.1-14.2,33.9c-0.2,1.8-1,3.6-2.1,5c-2.7,3.2-1.7,6,0.2,9
		c6.3,10,15.5,16.8,25.5,22.7c9.2,5.4,18.7,10.3,27.4,16.5c4.1,3,9.4,3.8,14.3,2.4c19.3-5.1,38.6-10.2,57.2-17.6
		c10.3-4.1,19.7-9.6,27-18.3c1.2-1.4,2.3-2.7,2.3-4.8c0.5-23.8,1.2-47.6,1.9-71.4c0.1-2.9-1.3-4.1-3.7-5c-4.7-1.6-9.4-3.4-14-5.2
		C454.9,211.9,454.5,211.5,454.1,211.2z M461.3,227.1l-1.2-1.1c-2.9-5.2-8.2-7.5-12.7-10.8c-7.9-5.7-17.2-5.5-26.3-6.2
		c-2-0.1-3.9,1.8-3.9,3.2c0.1,2,2.4,0.7,3.6,0.6c12.7-0.5,25.3,3.3,35.5,10.9c1.2,0.8,2.1,2.2,3.8,2.1l1.2,1.1l0.8,1.2l0.3,0.1H462
		C461.9,227.9,461.6,227.5,461.3,227.1z M471.1,412c-0.3,0.4-0.7,0.7-1,1.1c-1.4,0.9-2.8,1.8-4.1,2.8c-8,5.8-17.6,9-27.5,9.3
		c-1.6,0.1-3.9,0.6-4.3-1.4c-0.4-1.9,2-1.8,3.3-2.4c4.6-1.9,8.8-4.7,12.4-8.2c14-13.7,22.3-29.5,21.2-49.9
		c-0.9-17.8-0.2-35.6-0.3-53.5c0-1.6,0.9-3.6-1.5-4.7c-2.5-1.2-3.7,0.4-5.1,1.7c-3.8,3.2-8,6-12.5,8.2c-2,0.8-3.4,2.7-3.6,4.9
		c-1,7.4-2.6,14.8-3.6,22.2c-1.3,9.4-3,18.8-2.2,28.3c0.1,1.2-0.6,4.2,2.2,2.5c2.8-1.6,3.2-0.5,3.8,1.9c1,3.7,5.1,4,7.7,5.7
		c1.9,1.3,3.3-2.1,4.8-3.5c2.1-1.9,4-4,6.1-5.9c0.5-0.5,1.4-1.3,2.1-0.3c0.6,0.9,0.1,1.6-0.6,2.1c-6.4,5.4-10.7,12.9-17.1,18.1
		c-10.2,8.6-19.9,17.7-29.1,27.4c-15.8,16-34.1,28.7-53,40.7c-5.4,3.4-9.3,2.4-11.6-3.5c-6.6-17-14.9-33.5-19-51.4
		c-0.3-0.8-0.6-1.5-1-2.2c-0.5,0.6-1,1.2-1.3,2c-0.9,2.7-2.2,5.2-3.9,7.5c-0.6,0.9-1.3,2.3-2.7,1.3c-1-0.8-0.1-1.9,0.4-2.6
		c6.9-10,2.3-19.8-0.6-29.6c-0.2-0.8-0.7-2.3-1.9-1.8c-1,0.4-0.5,1.8-0.5,2.7c0.1,3.9-0.1,7.7-2.2,11.1c-0.5,0.8-0.9,2-2.2,1.2
		c-0.9-0.6-0.4-1.5,0-2.2c1.2-2.4,1.9-5,2.1-7.6c0.4-9.4-4.8-16.2-10.9-22.2C302.6,350.2,293.7,337,286,323c-1.2-2.2-1.8-2-3.6-0.8
		c-5.7,3.8-3.6,9.5-3.5,14.5c0.1,7.2,2.2,14.7-3.1,21.1c-0.6,0.7-0.5,1.9-0.6,2.9c-3.2,24.7,3.7,46.4,19.6,65.4
		c9,10.8,21,17.6,32.8,24.8c13.7,8.3,27.6,16.2,38.4,28.3c1.4,1.5,2.3,1.5,3.4-0.1c4.3-6.1,10.9-8.5,17.8-10.3
		c14.5-3.8,29.2-6.7,44.1-8.6c19-2.3,38.1-3.9,57.2-5.4c19.7-1.5,39.5-2.9,59.1-6.1c5.7-0.9,11.3-3,17-4c2.9-0.5,3.6-4.7,5.2-4
		c3.7,1.5,3.6-1.3,4.4-2.9c5.5-11.4,5.3-22.8,0.1-34.2c-4.1-9-9.8-17-14.9-25.4c-1.4-2.4-2.3-1.6-4.1-0.3
		c-15.2,10.9-29.2,23.3-41.9,37c-2.4,2.6-5.4,4.5-8.8,5.5c-1.1,0.3-2.5,1.2-3.1-0.1c-0.7-1.6,1.1-1.8,2.1-2.1
		c3.6-1.3,6.9-3.4,9.4-6.3c11.6-12.9,24.7-24.4,38.8-34.4c2.3-1.6,5.4-3.4,2.7-7.2c-0.5-0.6-0.3-1.6,0.3-1.7
		c3.5-0.9,2.1-3.6,2.2-5.7c0.5-9.9-4.6-18.2-8.2-26.9c-3.3-8-7.2-15.8-13.6-21.9c-0.8-0.8-1.6-2-2.9-1.5c-1.3,0.5-1,2-1.1,3.1
		c-0.7,7.6-1.1,15.3-2.2,22.9c-1.7,12.5-3.3,25.1-8.7,36.8c-2.8,6.5-7.6,11.9-13.7,15.4c-1,0.6-2.3,1.5-3.2,0.4
		c-1.1-1.5,0.7-1.9,1.6-2.4c8.5-5.1,13.3-12.9,15.9-22.1c3.9-13.7,4.6-27.8,5-42c0-0.7-0.1-1.3-0.3-1.9c-0.3,0.7-0.5,1.5-0.7,2.2
		c-3.1,15.9-8.1,31.3-14.8,45.9c-7.8,16.9-18.5,31.5-33,43.3c-4.5,3.7-9.3,7-14,10.4c-0.9,0.7-2.4,2.1-3.4,0.5
		c-0.8-1.3,1-1.8,1.9-2.4c3.6-2.5,6.9-5.2,8.3-9.6C470.4,412.8,470.8,412.4,471.1,412c0.3-0.3,0.4-0.2,0.3,0.2L471.1,412z M497,389
		c0.4-0.7,0.7-1.4,1.1-2c10.1-15.1,16.9-31.7,21.4-49.1c4.2-16.3,7.2-32.8,4.4-49.8c-0.6-3.8-1.4-7.5-1.9-11.3
		c-0.1-0.8-0.5-2.2,0.9-2.3c1-0.1,1.2,1,1.4,1.8c0.4,1.6,0.7,3.3,1,4.9c2.1,11.1,3.2,22.4,3.4,33.7c0,0.7,0.1,1.3,0.1,2
		c-0.1-0.7-0.1-1.5,0-2.2c1.7-8.9,1.4-17.9,1.1-26.9c0-1.1-0.7-2.8,0.7-3c1.9-0.2,1.7,1.8,1.7,2.9c0.1,5.8,0.1,11.7,0.2,17.5
		c0,1.4-0.6,3.1,1,4.1c7,4.6,10.8,11.6,14.6,18.6c0.5,0.8,0.7,2.2,1.9,2c1.1-0.2,1-1.5,1.1-2.5c0.4-5.3-0.7-10.7-3.1-15.4
		c-0.6-1.1-2.7-2.6-0.8-3.6c1.6-0.9,2.2,1.5,3,2.6c2.9,3.9,4.1,8.7,6.3,12.9c0,2.9,0.1,5.9,0.1,8.8c0.1,0,0.2,0,0.3,0
		c0.3-2.9,0.6-5.8-0.4-8.7c-0.3-1.6-0.6-3.3-1-4.9c-2.6-9.1-6.2-17.9-8.4-27.2c-3.5-15.1-3.1-30.3-2-45.7
		c1.3-17.6,1.2-35.3,1.1-52.9c0-1.5-1-4,1.3-4.1c1.7,0,1,2.4,1,3.8c0,12,0.1,24-0.2,36c-0.3,11.6-1.2,23.3-1.7,34.9
		c0,0.6,0.1,1.3,0.2,1.9c0.4-0.4,0.8-1,1.1-1.5c0.3-1,0.5-1.9,0.6-2.9c2.1-9.8,1.9-19.9,3.3-29.7c3-21.8,5.1-43.7,4.2-65.7
		c-0.3-6.8,0.2-14.1-5.2-19.7c-0.8-0.8-1-2.8,0.5-2.8c6,0.3,1.3-2.5,1.2-3.8c0-1-0.6-2-1.6-2.3c-0.2,0.9-0.4,1.9-0.5,2.8
		c-0.9,6.4-2,12.8-2.7,19.3c-0.4,3.4-1.6,3.6-4.1,2c-0.8-0.5-1.7-1-2.6-1.5c-10.6-5.9-10.3-5.9-9.3-18c1.8-22.6,2.3-45.3,1.5-67.9
		c-0.1-3.4-0.4-7.4-3.6-9.4c-2.8-1.8-4.8-4.6-5.5-7.9c-1-3.7-3.4-5.1-7.2-3.3c-5.3,2.4-10.8,4.3-16.5,5.6
		c-9.8,2.4-19.6,3.6-29.7,1.5c-1.4-0.3-3.5-0.2-3.1-2.3c0.3-1.8,2.1-1.1,3.4-0.9c14.4,2.7,28.1-0.7,41.5-5.5c2.6-1,2.9-2,0.9-4.1
		c-6.1-6.2-13.1-11.3-20.8-15.3c-16.7-8.8-34.8-12.2-53.3-13.8c-9.5-0.8-19.2-3.1-28.2,2.4c-0.7,0.5-1.6,0.4-2.2-0.2l-0.1-0.1
		c-1.7-3.3-4.6-2.1-7.1-1.9c-10.7,0.8-20.9,3.9-31,7.2c-25.6,8.3-47.1,22.3-63.1,44.1C302,77.9,297,86,292.5,94.3
		c-5.3,9.8-10.2,19.8-13.1,30.7l-0.1,0.3l0.1-0.5c0.8-1.4,1.7-2.8,2.4-4.3c3.7-7.4,7.3-14.9,12.2-21.6c0.8-1.1,1.8-3,3.5-1.6
		c1.3,1.1-0.2,2.4-0.8,3.4c-13.8,20.3-20.9,43.7-30.3,66.1c-0.4,1-0.7,2-1.1,3.1c0.1,0.1,0.2,0.2,0.3,0.3c0,0-0.1,0.2-0.2,0.3
		l-0.1-0.6c1-0.8,1-2,0.9-3.1c2.3-0.6,3.5-0.4,2.9,2.6c-1.1,4.9-1.5,9.9-1.2,14.9c0.3,2.9,1.1,3.5,3.6,1.6c3.4-2.7,7.1-5.3,11.7-4.8
		c3.9,0.4,4.4-1.3,4.3-4.5c-0.2-7.2,0.6-14.3,2.5-21.3c0.4-1.5,0.2-4.3,2.1-3.8c2.3,0.6,0.5,3.1,0.2,4.6c-1.7,7.5-2.5,15.1-2.3,22.8
		c0.1,2.7,0.8,4.4,4.1,4.1c5.6-0.5,8.6,2.7,10.4,7.5c0.4,1-0.2,2.5,1.5,2.8c0.2-1.1,0.4-2.2,0.5-3.3c0.2-9.2,1.3-18.3,3.5-27.2
		c0.3-1.1,0.1-3.3,1.9-2.8c1.5,0.4,0.7,2.3,0.4,3.5c-2,7.8-2.7,15.7-3.2,23.7c-0.1,1.6-0.8,3.5,1,4.6c1.6,1,8.2-3.6,8.4-5.7
		c0.8-7.9,1.2-15.9,2.8-23.8c0.9-4.2,2-8.4,3-12.6c0.2-0.8,0.6-1.8,1.6-1.5c1.1,0.2,0.9,1.3,0.7,2c-0.1,0.8-0.4,1.6-0.6,2.4
		c-2.6,10.5-4.2,21.2-4.8,32c-0.2,3.1,1.2,4,4.1,4.2c2.4,0.2,3.2-0.6,3.3-3c2-27.4,9.3-53.7,17.5-79.7c6.1-19.4,13.1-38.5,24.2-55.7
		c1.1-1.7,2.1-5.3,4-4.1c2.2,1.4-0.9,3.5-1.8,5.2c-16.7,29.9-30.9,60.6-28.7,96.1c0.7,11.1,1.7,22.3,6.4,32.6
		c0.3,0.6,0.3,1.7,1.5,1.7c0-0.6-0.1-1.3-0.1-1.9c-2.2-17.9-3.9-35.8-3.2-53.8c0.3-6.8,1.1-13.6,2.6-20.3c0.2-0.9,0.3-2.2,1.8-1.8
		c1,0.3,0.8,1.3,0.7,2.1c-0.1,0.7-0.4,1.3-0.5,1.9c-1.9,11.2-4,22.7-1.7,33.8c2.6,13,7.4,25.6,11.7,38.1c2.8,8.3,9.3,12.8,18,13.8
		c3.9,0.5,8,0.1,12,0.2c3.1,0.1,3.4-1.2,2.8-4c-1.2-5.7-2.2-11.4-2.8-17.2c-1.4-13.8-1.8-27.6-1.4-41.4c0-1.4,0.2-3.8,1.8-3.6
		c2.5,0.3,0.3,2.3,0.6,3.6c0.1,0.7,0.1,1.3,0,2c0.5,19.7,6.6,38.2,12.5,56.7c2.6,8.3,10.9,12.1,19.8,11.5c2.5-0.2,3.8-1.3,3.2-3.8
		c-1.7-8.3,0.2-16.6,0.1-24.9c-0.2-8.5-0.1-17,0-25.5c0-1.6-0.8-4.5,1.2-4.5c2,0.1,0.8,3,1.2,4.7c0.1,0.5,0.1,1,0.1,1.5
		c-0.2,13,2.6,25.8,3,38.7c0,1-0.4,2.7,1.3,2.7c1,0,1.1-1.5,1.4-2.4c1.2-4.7,1.7-9.5,1.6-14.3c-0.2-28.2-0.5-56.3-0.7-84.5
		c0-2-1.4-5.8,1-5.8c2.2,0,1.2,3.9,1.2,6.1c0.2,17.5-0.5,35,1.9,52.4c2.5,18.5,7,36.6,10.8,54.8c3.3,15.7,0.1,11.7,16,18
		c3.4,1.4,4.1,0.3,4.4-3.1c0.4-4.1-0.5-8.3-2.7-11.8c-2.4-4.4-4.5-8.9-6.2-13.6c-6.3-17-7.8-35.3-4.5-53.1c0.2-1.2-0.1-3.2,1.9-2.8
		c1.5,0.3,0.6,2,0.5,3.1c-0.4,4.1-1.2,8.2-1.4,12.4c-1,17.7,2.8,35.4,10.9,51.2c0.4,0.7,1.1,1.9,1.4,1.9c1.3-0.3,0.7-1.6,0.7-2.5
		c0.5-10.6,1.7-21.2,3.1-31.8c0.4-2,0.9-3.9,1.7-5.7c0.3-0.8,0.9-1.5,1.9-0.9c0.7,0.4,0.5,1.1,0.4,1.8c-4.4,17.2-4.6,35-5.2,52.5
		c-1.1,30.3-1.8,60.6-2.3,90.9c-0.3,19.5-0.1,39,0,58.5c0,0.6-0.6,1.6,0.5,1.9c0.3-0.5,0.6-1.1,0.7-1.7c0.2-0.6,0.2-1.3,0.3-2
		c4.3-20.2,6.3-40.8,8.9-61.2c2.3-18.2,4.8-36.3,5.1-54.7c0.2-16.7-0.1-33.3,0.1-50c0-7.8,1.5-15.6,4.2-23c0.3-0.8,0.7-2.1,2-1.5
		c0.9,0.4,0.5,1.4,0.2,2.2c-5.2,14.5-4.1,29.5-4.2,44.5c-0.1,13.5,0.4,27-0.6,40.5c-1.4,20.1-4.2,40.1-6.6,60
		c-2.6,21.6-5.7,43.2-11.8,64.2c-4.6,16-13.1,28.9-26.4,38.9c-0.9,0.7-1.8,1.4-2.6,2.1c1.1,0,2.3,0.1,3.4,0c0.7-0.1,1.3-0.3,1.9-0.5
		c10.1-2.5,19.1-8.4,25.3-16.8c0.7-1,1.4-2.9,2.9-2c1.3,0.8,0.3,2.4-0.1,3.6c-0.7,2.4-2.4,4.4-2.5,7l-0.3,0.1l0.2-0.2
		c9.5-6.5,16.7-15.1,20.6-25.8c6.1-16.7,10.5-34,13.2-51.6c1.3-8.3,0-17.1,1.4-25.4c3.8-22,6-44.2,6.5-66.5c0-1.1-0.7-3.2,1.2-3.2
		c1.7,0.1,1.1,2.1,1.1,3.3c-0.3,13.6-1.1,27.3-2.4,40.8c-1.2,12.4-5.2,24.5-4.7,37c0.4,10.1-1.1,19.9-3.7,29.6
		c-3.2,11.9-6.1,23.8-9.2,35.7C497.8,387.8,497.4,388.4,497,389v0.3V389z M347.1,239.2c0.3-0.3,0.4-0.2,0.3,0.1L347.1,239.2
		c-0.7-0.3-1.3-0.6-2-0.9L344,237c-1.1-0.2-2.2-0.5-3.3-0.7l-0.6-0.5c0.2,0.1,0.4,0.3,0.7,0.4c1.1,0.2,2.2,0.4,3.3,0.6
		c0.4,0.4,0.8,0.9,1.2,1.3C345.9,238.5,346.5,238.9,347.1,239.2z M185,595.4L185,595.4c0.4,1.2-0.1,2.7,1.1,3.7
		c0.4,3.9,0.8,7.9,1.2,11.8c0.1,0.4,0.2,0.8,0.4,1.2c0.1-0.5,0.2-1,0.2-1.4c-0.1-3.9-0.1-7.9-1.9-11.5
		C186.1,597.8,186.2,596.4,185,595.4L185,595.4z M237.2,388.2c-1.9,1.9-3,4.4-3.1,7c-3.3,1.3-3.2,0.1-2.3-2.6
		c1.9-6,8.6-9.5,8.2-16.6c0-0.3,0.6-0.8,1-0.9c1.2-0.1,1.2,0.9,1.2,1.7c-0.1,2.2,0.7,2.8,2.6,1.4c9.2-6.9,18.4-13.7,27.4-20.8
		c2.4-1.9,4.9-4.2,2.3-8c-0.9-1.4,0.3-3.2,0.9-4.7c0.7-1.7,1.8-3.3,1.2-5.2c-2.9-10.5,3.3-21.1-0.3-31.6c-0.3-0.6,0-1.4,0.6-1.6
		c0.2-0.1,0.3-0.1,0.5-0.1c0.4,0,1,0.8,1.1,1.4c0.6,2.9,1.1,5.9,1.7,8.8c0.2,1.1-0.7,2.7,0.7,3.1c1.5,0.4,2.3-1.3,2.8-2.4
		c4.4-10.9,13.2-17.7,22.1-24.5c13.7-10.6,15.6-21,7.2-36.2c-1-1.9-1.8-3.2-4.5-2.3c-4.7,1.5-6.9-1.6-7.5-5.6
		c-0.5-3.1-0.1-6.3-0.1-9.4l0.1-0.2l-0.1,0.1c-4.7,3.6-8.8,4.1-10.4,0.9c-4.1-8.4-5.3-17.6-0.7-25.7c5.1-9.2,2.2-17.4-0.6-25.8
		c-1.7-4.9-5.7-6-10.6-4.1c-3.7,1.5-7,3.9-9.7,6.8c-8.8,9.3-15,20.2-21.1,31.2c-2.1,3.9-4.8,6.6-9.2,7.6c-4.5,1-8.7,3.3-11.3,6.9
		c-1.9,2.6-4.1,3.5-6.8,4.3c-8.6,2.6-17.2,5-25.8,7.7s-13.8,8.3-14.8,17.5c-1.4,12.6-3.1,25.1-4.3,37.7c-1.3,13.3,0.6,25.9,8.1,37.3
		c1.9,2.8,3.9,4,7.3,3.8c10.6-0.6,21.2-1.9,31.7-3.9c10.7-2.1,22-2.1,31-9.7c0.5-0.5,1.2-0.7,1.7,0c0.6,0.9,0.1,1.6-0.5,2.2
		c-2.6,2.6-5.9,4.5-9.5,5.4c-18.6,4.7-37.5,7.6-56.7,8.5c-2.4,0.2-4.7-0.9-5.9-3c-6.2-9.4-10-19.3-10-30.8
		c-0.1-12.9,2.4-25.5,3.2-38.3c0-0.8-0.1-1.6-0.2-2.3c-0.6,0.4-1.3,0.9-1.8,1.5c-9.7,10.6-21.2,18.6-33.8,25.4
		c-2.3,1.3-4.6,2.7-6.8,4.1c-10.2,6.4-15.4,15.9-16.1,27.8c-1.2,21.7,1,43.2,1.7,64.9c0.4,11.2,0.6,22.3-2.6,33.2
		c-1.8,6-4.7,11.4-9.7,15.4c-0.9,0.8-2.1,2.5-3.3,1.2c-1.3-1.4,0.7-2.2,1.6-3c5.5-4.6,8.5-10.7,9.9-17.5c1.1-4.5,1.6-9.2,1.7-13.8
		c-0.4-19.5-1.2-38.9-1.8-58.4c-0.1-1.8-0.1-3.7-0.3-5.5c-0.2-1.5-0.6-2.9-2.3-0.8c-5.6,7-13,11.9-20.6,16.5
		c-16.4,10-26.2,25.1-33.1,42.6c-0.9,2.3,1.2,4.7-0.8,6.5c-2.8,2.7-3.5,6.4-4.4,9.9c-5.9,21.3-11.7,42.7-17.6,64
		c-0.4,1.6-0.1,4.7-2.4,4c-1.9-0.6-0.3-3.2,0.1-4.8c5.2-19.8,10.6-39.5,16-59.3c0.4-1.4,1.2-2.7,0.5-4.2c-0.9,0.9-1.8,1.9-2.6,2.9
		c-12.1,17-22.5,35-31.3,53.9c-4.4,9.7-7.2,20.1-8.4,30.7c-2,17.3,2.9,26.9,18.1,33.9c25.2,11.4,51.6,18.5,78.9,22.7
		c16.8,2.6,33.9,2.2,50.7,4.5c0.5,0.1,1.2,0.6,1.6-0.1c-0.3-0.4-0.7-0.6-1.1-0.8c-1.9-0.9-4-1.7-5.9-2.7
		c-25.4-13.6-37-36.8-44.1-63.1c-0.6-2.6-0.6-5.3,0.1-7.9c0.2-1,0.5-2.2,1.8-1.9c0.9,0.2,0.8,1.4,0.6,2.2c-0.8,4.6-0.2,9.4,1.5,13.7
		c2.8,8,6.3,15.8,10.2,23.3c9.5,17.4,23,30,42.3,35.7c0.6,0.3,1.1,0.6,1.6,1c-2.7,4.4,2,2.9,3.1,3.3c3.2,1.4,6.3,2.9,9.3,4.7
		c9.4,5.3,19.5,1,22.4-9.4c0.9-3.4,1.2-6.9,0.8-10.4c-1-8.3-4.1-16.2-9-23c-0.5-0.8-1.6-1.8-0.6-2.6c1.4-1.2,2,0.4,2.6,1.2
		c3.9,5.2,6.7,11.1,8.3,17.5c0.2,0.6,0.5,1.2,0.9,1.7c0.2-0.6,0.4-1.2,0.5-1.8c2.5-12.6,6.9-24.7,11.9-36.5
		c8.9-20.8,15.1-42.7,18.5-65.1c2.2-15.7,3-31.5,2.3-47.3c0-0.9,0.6-3.7-1.7-1.6c-7.8,7.1-17.3,7.1-26.8,6.7
		c-11.6-0.5-23.3-1.8-34.9-1.8c-15.5,0-28.8,6.4-32.5,23.7c-0.2,1-0.1,2.9-1.7,2.5c-1.8-0.4-0.8-2.2-0.6-3.4
		c2.6-12,9.7-19.8,21.5-23.3c8.9-2.7,18.1-2.1,27.3-1.6c10,0.6,19.9,2.1,29.9,1.5c7.9-0.5,15.2-2.4,18.8-10.7c2.3-1.8,2.6-4.5,3.2-7
		L237.2,388.2z M336.1,239.9c0.8,0.1,1.6,0.1,2.4,0c0.8-0.2,2.1,0.8,2.1-0.8c0-0.2-1.4-0.7-2.1-0.8
		C337.3,238.2,336.3,238.4,336.1,239.9L336.1,239.9z M458.1,220l-0.2,0.4L458.1,220c-6.7-11.6-20.2-17.7-33.5-15
		c-0.7,0.2-1.9-0.2-1.9,0.9c0,1,1.2,0.8,2,1c0.9,0.3,1.9,0.5,2.9,0.6C439.8,206.9,449.2,212.9,458.1,220z M449.1,232.2h0.3H449.1
		c-3.9-2.5-9-1.5-11.7,2.2c-2.3,3.3-1.5,6.3,1.4,8.8c3.3,2.6,7.9,2.4,10.9-0.5c0.6-0.6,1.4-1.2,1.1-2.1c-0.3-0.8-1.1-0.5-1.7-0.4
		c-2.9,0.2-4.6-1.2-4.6-4C444.4,233.5,446.4,232.3,449.1,232.2L449.1,232.2z M315.4,245.4c3.4-5.1,6.8-10.3,11.3-14.6
		c1.6-1.3,2.1-3.5,1.4-5.4c-1-3.2-1.5-6.5-2.2-9.7c-0.7-3.1-2.4-5.6-5.4-6.7c-5.3-1.9-9.8-4.7-13.1-9.4c-0.4-0.6-0.9-1.6-1.9-1.2
		c-0.9,0.4-0.9,1.4-0.8,2.2c0.4,3.3,0.8,6.6,2.3,9.6c2,3.7,1.3,7-1.4,10.1c-1.4,1.6-2.7,3.3-4.1,5c-0.5,0.6-1.4,1.1-1,2.1
		c0.8,2.2,6.7,4.3,9,3.2c7.3-3.7,7.8-6.7,2.7-14.7c-1-1.6-3.6-3.9-1.9-5c1.9-1.2,2.5,2.2,3.5,3.7c6.7,9.9,5.9,13.1-4.7,18.6
		c-4.5,2.3-5.6,6.4-6.5,10.6c-0.2,1.1-1.7,5.5,2.4,1.7c1.2-1.2,1.5,0.5,1.3,1.4c-0.5,1.9-0.9,4.1,1.3,4.6c2.5,0.5,3-2.2,3.7-4
		c2.7-7.4,5.8-14.5,10.4-21c1.7-2.4,1.4-4.1-0.8-6c-3.1-2.8-5.7-6.1-7.8-9.7c-0.4-0.8-1.6-1.8-0.5-2.6s1.7,0.5,2.2,1.3
		c1.9,3.3,4.3,6.3,7.2,8.9c3.8,3.3,3.6,6.3,0.9,10.3C319.6,233.9,315.7,238.9,315.4,245.4l-0.2-0.1L315.4,245.4z M269.1,1056
		c-0.2,0.4-0.3,0.4-0.3,0l0.4,0.1c3,6.1,6.2,12.1,9,18.4c1.2,2.7,2.8,3.6,5.7,3.5c7.5-0.2,15-0.1,22.5-0.1c22.1,0,44.3-0.1,66.4,0.1
		c4,0,5.1-1.1,4-4.8c-1.1-3.8-1.9-7.7-2.8-11.6c-0.3-1.4-0.5-3-2.3-0.8c-3.5,4.2-8.2,6.7-13.2,8.5c-17.1,5.9-34.6,7.8-52.6,4.7
		C291.9,1071.3,279.9,1064.8,269.1,1056L269.1,1056z M321.3,364.7L321.3,364.7c-2.8-8.6-6-17.2-11.5-24.7c-0.6-0.8-2.1-2-0.8-3
		c1.7-1.3,2.2,0.8,2.9,1.7c4.1,5.9,7.4,12.3,9.7,19.1c0.2,0.5,0.7,0.8,1.1,1.2c0.1-0.5,0.1-1,0-1.5c-2.6-6.7-1.8-14-3.8-20.8
		c-3.2-11.2-1.1-23.2-5.9-34.1c-0.2-0.5-0.2-1-0.1-1.5c0.1-0.9-0.4-2.2,1-2.3c1-0.1,1.1,1,1.3,1.8c2.3,8,8.1,12.5,16.3,12.6
		c0.6,0,1.5,0.4,1.7-0.4c0.1-0.3-0.7-1-1.2-1.3c-7.3-5.2-13.5-11.4-17.8-19.3c-0.6-1.1-1.3-2.2-2.6-1c-7.2,6.4-15.9,11.1-21.4,19.3
		c-3.5,5.2-3.7,10.1-0.2,15.2c5,7.3,9.6,14.8,14.9,21.9C309.7,353.9,315.2,359.6,321.3,364.7z M366.2,373c7.8-9.5,4.8-20.1,3.5-30.6
		c-0.8-6.9-6.8-8.4-11.4-11.4c-0.6-0.4-1.9-0.6-1.2-1.6c0.5-0.8,1.5-0.1,2.2,0.3c2.2,1.2,4.3,2.5,6.5,3.7c0.4,0.2,0.9,0.3,1.3,0.3
		c-0.3-0.4-0.4-0.9-0.8-1.1c-10.5-6.2-19.7-14.7-32.5-16.5c-3.6-0.3-7.2-1.1-10.7-2.4c-5.1-2.1-5.3-1.8-4.8,3.7
		c0.4,4.8,4.7,8,4.8,13.1c0,2.7,1.2,5.5,2.2,8.1c3.5,9.6,9.9,13.9,20.1,14c1.8,0,3.7,0,5.5,0.1c0.9,0,2.3-0.2,2.1,1.3
		c-0.1,1-1.2,0.9-2,1.1c-12,2.2-20.3-1.7-26.9-12.6c-0.4-0.6-0.5-2-1.4-1.6s0,1.5,0.2,2.2c3.4,11.9,10.3,22.3,14,34.1
		c0.2,0.5,0.1,1.6,1,1.3c0.4-0.1,0.6-1,0.9-1.6c1.9-4.4,3.6-9,5.7-13.3c3.2-6.6,7.3-8.3,14.5-6.4c1.8,0.5,3.4,1.4,5.2,1.6
		c3.7,0.4,4.3,2.8,3.8,5.7C367.7,367.3,366.9,370.2,366.2,373v0.3V373z M556.9,92.5L556.9,92.5c4.5,12.3,7.2,25.2,10.2,37.9
		c2.4,10.3,2.6,9.4-8.2,14.4c-0.5,0.2-1,0.3-1.5,0.3c-2.3,0.3-2.6,1.6-2,3.6c4.3,14.9,3,30,2.2,45.1c-0.8,15.6-2.7,31.1-4.6,46.6
		c-1.1,9.4-0.9,19-4.4,28c-1.8,4.8-1.7,9.4-1,14.2c1.6,11.3,5.5,21.9,9,32.6c3,9,4.7,18.2-0.7,27c-0.9,1.5-0.2,2.6,0.3,3.7
		c2.9,7.3,3.9,15.3,2.9,23.1c-0.2,2.6,0.5,5.3,2,7.5c4,6.3,8.1,12.6,11.8,19.1c7.3,12.5,10.1,25.6,4.7,39.7c-0.3,0.9-1,1.6,0,2.6
		c2,1.9,2,2.1-0.4,3.4c-3.5,1.8-4.9,4-3.2,8c9.3,22.8,12.3,46.9,14,71.2c1.3,17.4,2.5,34.9,3.7,52.3c1.1,16.6,3.2,33.2-1.2,49.7
		c-0.2,1.3-0.2,2.6,0.1,3.9c1.7,13.1,2.6,26.2,3.1,39.3c1,27.3-0.9,54.6-2,81.9c-1.1,30.4-5.8,60.2-15.8,89.1
		c-5.8,16.7-10.9,33.5-16.5,50.2c-1,2.8-0.9,5.8,0.2,8.6c4.6,12.7,8.6,25.8,7.2,39.5c-0.9,8.7-0.4,17.3-0.9,25.9
		c-0.5,8.5-2.6,17.2-9.3,22.5c-7.5,5.9-9.3,13-10.3,21.7c-2.5,22.1-7.8,43.9-10,66.1c-0.6,6.5-0.8,6.4,5.5,6.4
		c60.2,0,120.3-0.1,180.5,0.1c5,0,6.3-1.2,6.3-6.3c-0.1-354.5-0.1-708.9,0-1063.4c0-4.8-1.2-6-6-6C484.6,2.4,246.3,2.4,8,2.2
		C3.4,2.2,2.2,3.5,2.2,8c0.1,354.8,0.1,709.6,0,1064.4c0,4.4,1.1,5.6,5.5,5.5c28.2-0.2,56.3-0.1,84.5-0.1c59.5,0,119,0,178.5,0
		c6.5,0,6.6,0,3.5-6c-3.1-6.2-6.2-12.5-9.7-18.6c-16.2-28-30.3-57-40.6-87.8c-0.3-1.3-0.9-2.5-1.8-3.5c-10.1-9.7-14.7-22.4-19.5-35
		c-0.6-1.7-1.5-3.3-2.7-4.7c-5.1-6.6-9.2-13.9-13.5-21c-3.7-6.1-4.4-12.3-3.2-19.2c1.1-6.6,1.8-13.2,2.7-19.8
		c0.2-1.8,0.4-3.6-0.8-5.3c-6.1-8.5-5.3-17.6-1.6-26.6c3.4-8,8-15.4,13.6-22c1.8-2.1,2.7-4.9,2.5-7.7c-1.2-28.5-3.7-56.8-6-85.2
		c-2.5-31.7-5.1-63.4-7.9-95.1c-0.9-10.8-1.6-21.6-6-31.7c-1.5-3.9-4.3-7.2-7.9-9.2c-7.2-4-14.9-5.6-22.9-6.2
		c-22.6-1.6-45.2-2.8-67.3-8c-20.8-4.9-41.1-11.2-60.4-20.4c-11.1-5.3-16.1-14.3-16.3-26.4c-0.2-7.5,0.7-15,2.8-22.2
		c8.3-29,24.4-53.8,42.1-77.7c2.2-2.9,4-6.1,5.2-9.5c7.1-20.7,18.7-37.8,38.1-48.9c3.1-1.9,6.1-4,9-6.3c7.9-5.8,12.6-13.2,12.9-23.5
		c0.4-11.3,5.6-20.4,15-26.9c4.1-2.8,8.5-5.3,12.8-7.8c11.7-6.5,22.2-14.9,31.1-24.8c2.1-2.2,3.4-4.9,4-7.8c1-7.1,6-13.1,12.8-15.4
		c4.8-1.8,9.8-3.2,14.7-4.8c8.2-2.6,16.8-4.2,23.2-10.8c2.4-2.5,5.9-3.8,9.3-4.6c3.4-0.8,5.5-2.8,7.2-5.6c3.9-6.8,8-13.5,12-20.2
		c1-1.4,1.5-3,1.4-4.7c-1.2-14.5,2.5-28,8.1-41.2c2.2-5.2,4-10.5,5.3-16c9.8-40,27.4-75.1,62.2-99.7c27.6-19.5,59-25,91.6-25.7
		c8.9-0.2,17.9,1.4,26.8,2.6c21.3,2.9,41.2,9.5,57.9,23.7c0.9,0.7,1.8,2.1,3,1.3c3-2.1,5.3,0.2,7.9,1c0.1,0.5-0.4,1.3,0.6,1.3
		l-0.7-1.2c-0.2-0.5-0.4-0.9-0.5-1.4c-0.8-2.2-3.2-4.7-0.6-6.8c2.8-2.2,4.5,0.8,6.1,2.5c2.1,2.3,2.7,0.3,3.5-1
		c2.8-4.8,6.8-8.7,11.7-11.3c1.8-1,4.1-2.1,5.6-0.5c4.1,4.3,8.2,8.9,10.1,14.6c0.6,2.3,1.8,4.4,3.5,6C572.7,56,582,69.8,587.5,85.2
		c3.9,10.6,6.2,21.7,8.5,32.8c3.6,17.7,6.3,35.4,4.4,53.5c-1.1,10.8-2.1,21.5-0.9,32.4c1.2,11,0.6,22.4,7.7,32
		c0.6,0.8,0.7,1.6-0.2,2.1c-0.4,0.2-1.3-0.2-1.7-0.6c-1.8-1.9-3.2-4.3-4.1-6.8c-1.8-4.7-2.3-9.7-3.1-14.6c-0.1-0.9,0.5-2.2-0.8-2.5
		c-0.4-0.1-1.1,1.4-1.5,2.3c-2.9,6.5-6.6,12.7-8.2,19.7c-0.4,1.8-1.4,3.4-2.7,4.7c-0.6,0.6-1.3,1.3-2.1,0.7
		c-0.9-0.6-0.3-1.4,0.1-2.1c6.2-10.7,7.7-22.2,5.4-34.2c-0.2-1,0.5-2.8-0.8-2.9c-1.1,0-1,1.9-1.4,2.9c-2,6.3-5.2,11.6-11.7,14
		c-1.4,0.5-3.2,2.6-4.2,0.5c-0.8-1.5,1.7-2,2.9-2.6c4.6-2,7-5.4,8.3-10.4c2.5-10.3,4-20.9,4.3-31.6c0.3-9.1,0.5-18.4-4.2-26.7
		c-0.4-0.7-0.4-1.9-1.4-1.8c-1.1,0.2-0.5,1.3-0.6,2.1c-0.4,3.6-0.4,7.3-1.1,10.9c-2.1,10.6-5.9,20.4-13.7,28.3
		c-0.9,0.9-2,2.6-3.2,1.5c-1.5-1.4,0.5-2.2,1.4-3c5.1-4.7,8.4-11,9.3-17.8c2.6-19,2.3-37.9-4.3-56.1
		C565.2,104.9,562.3,98,556.9,92.5z M272.1,370.9c0-1.8,0.1-3.7,0-5.5c-0.1-1.1,0.9-2.6-0.2-3.2s-2,0.9-2.9,1.6
		c-7.8,5.7-15.5,11.6-23.4,17.1c-6.4,4.4-8.5,11.4-8.2,17.7c1.7,39.2-4.1,77-19.2,113.3c-7.7,18-13.3,36.9-16.7,56.2
		c-1.6,9.7-6.4,14-16.6,15.6c-2.2,0.4-2.5,0.9-1.2,2.7c5.5,7.7,6.8,16.4,6.8,25.6c0,5.5-1.5,11-1.2,16.3c1.1,19.6,2.9,39.2,4.5,58.8
		c2.2,28.2,4.5,56.4,6.7,84.6c0.7,9,1.2,17.9,1.7,26.9c0.1,2.1,0.4,3.6,2.7,1.4c6.3-6.1,12.4-12.1,14.3-21.2c0.7-2.4,1.7-4.7,3-6.8
		c1.7-3.2,4.1-3.4,7-1.3c5,3.7,7,9.2,8.9,14.7c1.3,3.3,0.7,7.1-1.6,9.8c-6.9,9.2-14.2,18.2-22.8,25.8c-10.6,9.5-18.6,21.5-23.2,35
		c-2.8,8-2.8,16.4-4.2,24.5c-0.8,4.7-2.4,9.7-0.1,14.2c6.8,13.6,14.3,26.9,26.4,36.6c11.1,8.9,22.9,17,35.9,23.1
		c22.6,10.7,46.5,18.1,69.9,26.6c20.2,7.3,40.3,14.9,61.5,18.6c16.1,2.8,32.2,5.3,47.4,11.6c3.4,1.4,6.7,4.4,11.1,2.1
		c0.7-0.4,3.1,0.7,3.4,1.5c1.2,3.4,4.2,3.4,6.8,4.2c4.6,1.5,9.3,1.4,14.1,1.3c6.7,0,13.3,0.9,18.6-4.3c0.6-0.6,1.1-0.3,1.8-0.2
		c4.6,0.5,8.4-0.8,10.3-5.4c0.4-1,1-1.4,1.9-1c2.2,0.9,3.8-0.3,5.5-1.4c14.7-9.5,28.7-20.1,41.6-31.9c11.2-10.2,20.4-21.6,22.3-37.3
		c1.4-11.8-0.9-23.2-4.4-34.4c-0.8-2.4-0.5-6.2-3.1-6.6c-1.4-0.2-1.8,4.1-2.7,6.4c-3.2,8.3-6,16.4-1.1,25.2c1.7,3.1,1.3,6.8-1,9.5
		c-7.7,8.9-15.9,17.3-28.9,17.4c-4.4,0-5.9,1.7-5.3,6.1c0.6,5-1.6,8.6-6.4,8.1c-7-0.7-7.8,3.8-9.5,8.2c-0.9,2.3-2,4.6-2.9,6.9
		c-1,2.8-2.5,3.8-5.7,3.1c-6.2-1.2-12.2-3.5-17.6-6.8c-13-7.9-21.9-19.4-28.4-32.8c-14.8-30.5-24.9-62.7-33.3-95.5
		c-1.5-5.3-0.1-10.9,3.8-14.8c2.3-2.6,5.7-4.7,6.7-8c2.5-9,8.9-14.1,16.8-18c1.3-0.7,2.8-1.3,2.3-3.3c-2.5-10,2.9-15.5,11.1-19
		c2.9-1.3,3.4-2.9,3.3-5.7c-0.2-9,0.5-18,2.2-26.8c4.4-24,12.1-47,21.2-69.6c5-12.5,9.3-24.9,8.6-38.6c-0.3-5.5,0.5-11,1-16.4
		c2.3-28.7,5-57.4,8.8-85.9c1.1-8.4,1.8-16.9,4.3-25c0.4-1.2,0.3-3.8,2.2-3.3c2,0.5,0.4,2.5,0.2,3.7c-0.8,3.9-1.8,7.8-2.4,11.7
		c-3.2,21.4-5.7,42.9-7.7,64.4c-1.8,19.1-2.9,38.2-4.3,57.3c-0.1,0.8-0.7,2,0.6,2.4c0.2,0.1,0.9-1.3,1.2-2
		c12.8-30.9,25.4-61.9,33.5-94.4c0.6-2.2,0.5-6.5,2.7-5.9c2.4,0.7,0.1,4.4-0.4,6.6c-8.8,37.9-24.9,73.3-39.1,109.4
		c-7.8,20-15.6,39.9-21.8,60.5c-4.8,15.8-8.9,32-8,48.5c0.4,7.4-1,10.4-7.7,12.9c-5.9,2.2-9.3,8.5-7.4,12.6c2.4,5.2,0.1,6.7-4.1,8.7
		c-7.3,3.4-13.6,8.2-14.3,17.1c-0.4,5.9,1.5,11.5,3.3,17.1c10.4,33.6,30.1,62.1,50,90.5c2.7,3.9,6.5,6.9,10.9,8.4
		c1.1,0.4,3.5,0.1,3,1.8c-0.6,2.1-2.8,0.8-4.2,0.4c-4-1.3-7.5-3.8-10.1-7.1c-2.7-3.2-5.1-6.5-7.5-10c-8.3-12.5-16.8-24.8-24.2-37.9
		c-0.5-0.8-0.8-2.2-1.9-2c-1.2,0.3-0.7,1.7-0.7,2.6c-0.2,4.5,1.5,8.6,3.7,12.3c11.9,19.4,25,37.8,42.2,53c4.5,4,10,5.6,15.6,6.7
		c6,1.1,8.2-1.3,7.7-7.4c-0.4-4.3,1.7-7.1,5.9-6.9c8.7,0.3,15.3-3.7,21.5-9c9.5-8,10.1-9.7,6.1-21.4c-1.2-3.7-2.3-7.3-0.7-11.2
		c3.3-7.8,7.8-15.4,6.7-24.4c-0.1-0.4,0.2-1.2,0.5-1.3c3.9-0.9,3.4-4.5,4.3-7.1c3.5-10.1,6.7-20.2,10-30.3
		c6.4-20.1,13.5-40.1,16.4-61.1c3.5-25.6,4-51.4,5.2-77.2c1.5-26.6,0.7-53.3-2.3-79.8c-0.8-6.4-1.9-12.7-2.8-19.1
		c-0.1-1-0.7-2.6,0.9-2.8c1.4-0.2,1.1,1.3,1.4,2.2c0.1,0.5,0.3,1,0.4,1.4c0.2,0.6,0.5,1.2,0.7,1.8c0.3-0.7,0.5-1.4,0.7-2.1
		c1.3-8.5,1-17,0.4-25.4c-1.8-25.7-3.7-51.5-5.8-77.2c-1.5-19-4.8-37.6-11.3-55.6c-0.8-2.2-1-5-4.5-5c-0.9,0-2.1-1.3-1.2-2.1
		c2.4-2.2,0.6-1.5-0.7-1.1c-3.5,1-7,2.3-10.5,3c-26.5,5.7-53.5,6.5-80.3,9c-14.6,1.4-29.2,2.8-43.7,4.3c-3.3,0.3-6,1-6.3,5.4
		c-0.8,9.8-2,19.5-3,29.3c-2.9,26.8-5.9,53.6-11.1,80.1c-1.5,7.7-5.1,14.1-12.5,17.6c-2.3,1.1-2.9,2.9-3.5,5.1
		c-2.1,8.1-5,15.9-8.6,23.4c-0.6,1.3-1,3.2-2.8,3.2c-2,0-2.4-2.1-3-3.6c-1.1-3.2-1.3-6.6-0.5-9.8c2-8.3,2.8-16.8,2.3-25.3
		c-0.4-5.3-0.1-10.7,0.9-15.9c3.9-19.9,10.2-39.3,14.9-59c3.3-13.2,5.7-26.7,7.3-40.2c0.2-2.1,1.8-6.2-3.2-5.2
		c-8,1.7-16,3.1-23.5,6.5c-3.7,1.7-7.3,3.7-9,7.6c-1.8,4.3-3.3,4-5.9,0.6c-6.7-8.3-15.2-14.3-24.1-20.1c-3.2-2.1-3.9-1-3.9,2.3
		c0,3.2-0.4,6.3-0.5,9.5c-1.2,28.6-2.3,57.2-3.6,85.9c-0.3,6.2,0.7,13.3-4.5,17.9c-8.8,7.8-10.5,17.6-10.4,28.5
		c0.1,7.2-0.3,14.3-2.8,21.2c-0.5,1.3-0.8,3-2.6,3.3c-2,0.3-3-1.1-4-2.5c-3-4-3.4-8.7-3-13.3c1.2-12.6,0-25.3-3.6-37.5
		c-2.4-8.4-3.4-17-1.7-25.7c6.3-31.1,12.6-62.3,19.1-93.4c1.6-7.8,1.7-7.9-5-12.2C287.2,428.5,272.5,403.7,272.1,370.9z M374.1,357
		c-0.3,8.3-3.5,14.3-7.5,19.9c-0.6,0.8-1.3,1.7-2.4,1.4c-1.5-0.4-1.3-1.7-1.4-2.9c-0.1-3.5,1.6-6.4,2.6-9.6c0.8-2.5,0.4-4.2-2.4-4.9
		c-2.9-0.8-5.6-2-8.7-1.9s-5.3,1.2-6.8,4.1c-2.7,5.4-5.3,10.7-6.8,16.6c-2.4,9.1-1.3,17.1,6.5,23.4c4.6,3.8,8.9,8,13.3,12.1
		c1.7,1.8,3.4,3.7,4.8,5.7c0.4,0.6,1,1.5,0,2.2c-1,0.6-1.5-0.3-2-0.9c-4.9-6.7-11.9-11.2-17.6-16.9c-1.4-1.4-2.3-3.6-4.6-4.1
		c-0.1,2.1,0.3,4.3,0.9,6.3c4.1,14.4,10.6,28,15.9,42c4,10.6,5.1,10.6,14.8,4.6c23.1-14.4,43.3-32.1,62.1-51.6
		c4.7-4.9,10.1-9.2,15.4-13.5c1.8-1.5,4.8-3.7,2.9-6c-2.1-2.5-4.7-5.6-8.2-6c-3.8-0.5-4.7-2.5-4.9-5.6c-0.1-3-0.2-6-0.1-9
		c0.4-13.7,3.4-27,5.5-40.5c0.5-3.1,0.5-4.1-2.9-2.7c-17,6.9-34.8,11.4-52.3,16.5c-5.4,1.6-10.7,3.8-16.5,2c-2.6-0.8-2,1.2-1.8,2.7
		C372.6,346.3,373.4,352.3,374.1,357z M477.7,1077.8c17.3,0,34.7-0.1,52,0.1c3.2,0,4.2-0.9,4.4-4.1c0.8-11.1,2.5-22.1,4.4-33.1
		c2.4-14.1,5.3-28.1,6.5-42.4c0.1-1.4,1.3-3.3-0.4-4.1c-1.4-0.7-2.7,0.9-4,1.6c-6.4,3.5-12.7,7.2-19.2,10.6c-5.9,3.1-12,6-18.8,5.9
		c-2.8-0.1-5.6,0.7-8,2.2c-16.7,10-34.3,12.1-52.6,5.1c-3.9-1.4-8.1-1.8-12.2-1.1c-6.1,0.8-12.2,2.2-18.3,2.5
		c-5.5,0.2-5.3,2.3-4,6.5c4.7,15.2,9.3,30.5,13.6,45.9c1,3.7,2.7,4.6,6.2,4.5C444,1077.8,460.8,1077.8,477.7,1077.8z M322.7,1073
		c4.5-0.4,9-0.6,13.4-1.2c10.1-1.4,20.1-3.2,28.9-8.8c5.8-3.7,7.4-7.7,5.9-14.4c-1.9-8.8-4.1-17.5-6-26.3c-0.6-2.9-2-4-5-4.3
		c-31.6-2.9-62.2-12.4-90-27.8c-13.1-7.2-25.8-15.3-38.7-22.9c-1.2-0.7-2.8-2.4-3.9-1.5c-1.1,0.9,0.2,2.7,0.7,4.1
		c9.2,26.1,20.9,51.2,34.8,75.1c0.5,0.9,1,1.7,1.6,2.5C280.2,1064.6,299.6,1072.9,322.7,1073L322.7,1073z M407.1,1019.1
		c6.6-0.9,13.2-1.7,19.8-2.7c0.8-0.1,2.2,0.1,2.3-1.1c0-0.3-1.2-0.9-1.9-1.2c-6.4-2.8-13-5.1-19.8-6.8c-14.4-3.6-29.2-4.8-43.5-8.7
		c-25.9-7-50.7-17.2-76-25.8c-28.5-9.7-56.1-21.1-79.2-41.2c-0.4-0.4-0.9-1.3-1.5-0.7c-0.3,0.3-0.1,1.3,0.2,1.8
		c1.9,4.1,3.6,8.2,5.7,12.2c2.5,4.9,4.5,10.3,9.3,13.4c19.6,12.7,39.2,25.3,60.2,35.5c9.2,4.6,18.8,8.5,28.6,11.8
		c10,3.3,20.2,5.4,30.5,7.5c9.7,2,19.7,1.8,29.5,3.6C382.9,1018.9,394.9,1020.7,407.1,1019.1L407.1,1019.1z M308.1,613.5
		c0.2,3.5-0.1,7,1.3,10.3c0.6,1.3,0.9,3.3,2.7,3.1c1.3-0.2,1.5-2,1.8-3.3c1.8-7.3,1.9-14.8,2-22.3c0.1-7.4,0.7-15.3,6.4-20.4
		c6.8-6,8-13.3,8.3-21.4c1.2-30.9,2.4-61.8,4.1-92.7c0.4-6.4-1.2-10-6.9-12.9c-4.2-2.2-4.8-1-5.6,2.8c-5.5,27-11.1,54-16.8,81
		c-2.7,12.6-4.8,25.1-1.2,38C307.7,588,310.7,600.5,308.1,613.5z M416.3,850.4c0,0.7,0.1,1.5,0.3,2.2c8.3,32.6,18.2,64.7,33,95
		c7.6,15.6,18.1,28.8,34.7,35.8c11.1,4.7,11.2,4.5,15.9-6.4c1.4-3.3,1.2-4.9-1.9-7.2c-22-16.5-37.8-38.2-51.5-61.7
		c-3.1-5.2-4.1-11.5-2.6-17.4c0.4-1.3,0.3-2.6-0.3-3.8c-8.2-15.5-14.9-31.6-18.6-48.8c-0.2-0.9-0.2-3.1-2-1.3
		C419.8,840.5,416,844,416.3,850.4z M424.3,467.1c0.6-2.4-1.1-3.4-4.6-2.7c-2.1,0.4-4.3,0.8-6.4,1.1c-2.3,0.2-4,2.1-3.9,4.3
		c-1.7,22.9-7.6,44.9-13.6,66.9c-5.5,20.2-11.6,40.3-9.6,61.8c0.3,3.5-1,7.2-1.5,10.8c-0.5,3.4-1.7,6.8-1.1,10.4
		c0.1,0.8,0.6,1.9,1.1,2.1c0.9,0.3,1.2-0.8,1.6-1.5c3-6.3,5.4-12.9,7.2-19.7c0.3-1,1.1-2.4-0.9-2.6c-0.9-0.1-2.2,0.6-2.4-0.8
		c-0.2-1.6,1.5-1.7,2.4-2c12.9-3.7,16.9-13.5,18.7-25.6c2.1-14.2,4.5-28.3,6.2-42.5C419.7,507.6,421.9,488.1,424.3,467.1z
		 M575.5,157.3c2.2-7.6,1.6-15.1,0.8-22.7c-0.4-4.3-1-8.6-1.4-12.9c-0.1-0.8-0.2-1.8,0.8-2c1.1-0.2,1.3,0.8,1.4,1.6
		c0.2,1,0.2,2,0.4,3c1.4,5.9,0.3,12.4,3.8,17.9c0.7,1,0.6,2.7,2.3,2.9c0-1.1,0-2.3-0.1-3.4c-0.5-3.6-0.9-7.3-1.7-10.8
		c-2.8-12.6-3.1-25.9-11.5-36.7c-0.5-0.7-0.9-1.6,0-2.1c0.8-0.5,1.5,0.2,2.1,0.9c3.1,3.5,5.3,7.7,6.4,12.3c6.9,27.9,11.4,56,8,84.9
		c-0.1,0.6-0.1,1.2-0.1,1.8c0.4-0.5,0.7-1.1,1-1.7c0.4-0.9,0.4-2.2,1.7-2c1.2,0.1,1.1,1.2,0.8,2c-2.1,6,0.4,11.8,1,17.7
		c0.3,2.9-0.3,5.9,1,8.7c1.9-2.6,2.3-5.8,3.4-8.7c2.3-6.2,0-12.5,0.6-18.8c1-10.8,2-21.6,2-32.3c0-17-3.7-33.7-7.4-50.2
		c-3.6-16.1-8.9-31.4-18.9-44.7c-0.6-0.8-1-2.1-2.1-1.8c-0.6,0.2-0.9,1.6-1.2,2.5c-1,4.4-2.6,8.6-4.6,12.6c-1.5,2.9-3.2,3.9-6.3,1.7
		c-3.1-2.2-6.4-4.2-9.7-6.2c-0.6-0.3-1.1-0.5-1.7-0.7c0.1,0.6,0.3,1.2,0.5,1.8c2.4,3.8,4.8,7.6,7.5,11.2
		C571.1,104.8,577.9,129.7,575.5,157.3z M399.7,1077.8c5.3,0,10.6-0.1,16,0.1c3,0.1,3.9-1,3.1-3.8c-4.6-16.5-9.3-32.9-14.7-49.1
		c-0.5-1.5-1.1-2.8-3-2.8c-10,0-19.8-1.7-29.7-2.9c-3.3-0.4-4.6,0.6-3.8,4.1c4,16.9,8,33.9,11.8,50.9c0.6,2.8,2,3.7,4.8,3.6
		C389.4,1077.7,394.5,1077.8,399.7,1077.8z M183.2,843.9c-0.1,2.3,0.4,4.7,1.3,6.8c0.6,1.4,0.8,3.7,2.8,3.7c1.7,0,1.8-2.2,2.3-3.5
		c4.2-11.4,11.1-21.7,20.1-30c9-8.2,17.1-17.3,24.2-27.2c1.2-1.6,2.6-3.1,2.1-5.4c-1.2-5.4-3-10.6-7-14.6c-2.3-2.3-4.3-2.3-5.8,0.9
		c-0.7,1.3-1.3,2.7-1.7,4.1c-1.8,7.9-6.3,14.1-12,19.7c-8.2,7.7-15.1,16.7-20.7,26.5C185.8,830.6,183.3,836.4,183.2,843.9z
		 M547.9,128.7c-0.6-14.7-1.5-30.1-9.2-44.2c-0.6-1.1-1.9-3.2-2.1-3.1c-1.7,0.8-0.9,2.5-0.9,3.9c0,19.5-0.2,39-1.9,58.4
		c-0.8,8.9-0.9,8.7,6.7,13.1c3.5,2.1,4.9,1.5,5.4-2.5C547,145.9,547.7,137.3,547.9,128.7L547.9,128.7z M565.9,135.9
		c-4.9-19.1-8.1-38.8-17.4-56.6c-2.7-5.4-6.1-10.3-10.1-14.8c-1-1-2.1-1.7-3.5-1.1c-1,0.4-1.8,1.2-1.3,2.3c1.5,3.3,0.9,7.3,3,10.4
		c8.2,12,11.9,25.5,13.8,39.6c1.1,7.8,0.5,16,4.5,23.3c1.1,2,2.6,4,5.1,2.6C562.4,140.4,565.9,139.9,565.9,135.9z M563.9,958.9
		c0-0.5,0-1,0-1.5c-0.1-1.1,0.6-2.8-0.5-3.2c-1.3-0.4-1.5,1.5-2,2.4c-4.6,8.5-11.2,15.3-18.2,21.7c-11.7,10.6-24.3,20.3-37.5,29.1
		c-0.8,0.5-2.3,1.1-1.9,2s1.8,0.3,2.7,0c3.4-1.2,7.1-2,10.3-3.7c10.3-5.4,20.1-11.4,30.1-17.3C558.9,981.4,562.6,971.2,563.9,958.9z
		 M548.7,52.2c-3.1,0.6-7-0.9-7.9,2.1c-1,3-2.8,7.4,2.5,9.6c2.1,0.9,3.9,2.5,5.8,3.8c13.3,8.9,14.7,8.3,17.8-7.8
		c0.1-0.3,0.1-0.7,0.1-1c0.6-2.8-0.2-4.4-3.3-4.8C558.5,53.6,553.4,52.9,548.7,52.2z M320.3,254c-0.1,0.8,0.6,2-0.7,2.5
		c-0.9,0.3-1.4-0.7-2-1.1c-0.9-0.6-1.2-2.1-2.7-1.7c0.4,1.1,0.7,2.1,1.1,3.2c0.2,0.5,0.4,0.9,0.6,1.4c1.6,2.6,1.8,8.1,3.8,7.8
		c3.4-0.6,4.7-5.2,6.1-8.6c3.5-8.2,5.6-17.1,10.5-24.7c1-1.4,1.2-3.2,0.5-4.8c-0.7-1.8-2.5-2.9-4.4-2.7c-1.2-0.1-2.3,0.7-2.5,1.8
		c-3.2,8.4-10.1,14.1-15.3,21c-0.4,0.5-1.9,0.5-1,1.6c0.6,0.7,1.3,1.6,2.5,1.3C319.7,250.2,320.1,250.5,320.3,254z M538.7,49.5
		c4.4-4.4,10.3-5.8,15-9.3c0.7-0.5,0.8-1.5,0.3-2.2l0,0c-2.8-3.9-4.6-9.8-8.8-11c-4.2-1.3-7.7,3.6-10.8,6.9c-1.1,1.2-2,2.6-2.8,4.1
		c-1,1.9-2.7,4.3-1,6C532.9,46.1,536.3,47,538.7,49.5z M294.6,185.3c-2.4-0.1-3.2,0.5-2.5,3.2c2.7,9.4,5.9,18.9-0.9,28.1
		c-0.4,0.5-1.2,1.5-0.2,2.1c0.4,0.2,1.4-0.5,2.1-0.9c3.2-1.6,6.1-1.9,8,1.8c0.6,1.1,1,1.8,2,0.5c1.9-2.3,4-4.6,2.3-8
		c-3.1-6-2.2-12.6-3.3-19C301.4,188.9,299.4,185.6,294.6,185.3z M427.7,248.1c0.2,2,0.6,3.9,1.2,5.8c1.3,3.5,7.5,6.4,9.3,4.2
		c3.4-4.5,7.1-3.8,11.5-2.5c2.9,0.8,3.8-2.1,5.2-3.8c0.8-1,1.9-2.5,0.1-3.4c-1.7-0.9-2.3-4.3-5.1-2.7c-5,2.8-9.5,1.9-13.8-1.6
		c-1.9-1.6-4.5-1.3-6.7-0.4C427.5,244.6,427.6,246.4,427.7,248.1z M538,55.5c-0.6-3.6-2.6-6.5-6.1-7.7c-2.8-0.7-4.9-2.9-5.6-5.7
		c-0.4-1.1-1-2.1-1.8-3c-0.3-0.4-1.3-0.8-1.6-0.6c-0.8,0.4-0.3,1.2,0,1.7c0.9,1.6,1.9,3.1,2.7,4.7c0.8,1.4,1.1,2.9-0.4,4
		c-1.5,1-2.9,0.3-4-0.9c-1-1.1-1.8-2.4-2.8-3.4c-0.6-0.6-1.6-1.7-2.5-0.8c-1.1,1.1,0.3,1.5,0.9,2.2c3.6,4.4,10.3,6.1,10.7,13.3
		c0.1,2.4,3.3,2.9,5.3,2.2C535.4,60.6,538,59.1,538,55.5z M438.1,219c-1.1,0.1-1.9,0.2-2.7,0.4c-1.7,0.4-3.3,1.5-3.3,3.2
		c0.1,2.4,2.3,1.1,3.5,1.3c2.5,0.4,5,1,6.8,2.7c1.9,1.8,4.3,1.5,6.4,2.3c2.3,0.9,2.6-1.5,3.7-2.5c0.9-0.8,0.2-1.5-0.5-2
		C447.7,221.8,443.1,219.5,438.1,219z M336.5,389.5c-0.6-11.5-5.5-21-10-30.7c-0.1-0.3-0.7-0.4-1-0.6c-0.1,0.3-0.1,0.6-0.1,1
		c0.9,4.9,0.5,10.5,2.9,14.4c2.9,4.8,5.2,10,6.6,15.4c0.2,0.8-0.4,2.2,1.1,2.2C336.3,391.1,336.5,389.7,336.5,389.5z M559.4,50.8
		c0.7-0.2,2.4,1.3,2.7-0.6c0.2-1.6-7.7-6.9-9.1-6.3c-2.7,1.2-5.3,2.6-7.9,4c-0.5,0.3-1.3,0.9-1.2,1.3c0.2,1.2,1.3,0.7,2,0.7
		C550.3,50.2,554.7,50.5,559.4,50.8z M299.1,222.4c0-3.4-1.9-4.3-4.5-2.8c-3.3,1.8-5.4,5.2-5.4,9c-0.1,2.4,1.6,3.2,3.2,2.3
		C295.6,228.9,298.9,226.8,299.1,222.4z M452.3,232.3c-0.1,4.1,3,7.6,6.2,7.5c2.8-0.1,2.4-2.1,2.5-3.9c0-3.8-2.9-7.8-5.7-7.6
		C452.6,228.6,452.4,230.7,452.3,232.3z M294.5,239.8c2.6,0,8.7-5,8.5-6.7c-0.2-1.5-1-2.8-2.9-2.8c-3.6,0-8.2,3.9-8,6.8
		C292.2,238.9,293.2,239.8,294.5,239.8z M434.7,226.2c-1.7,0.4-4.2-0.1-4.2,2.8c0,2.1,1.6,3.2,3.6,3.2c2.6,0,5.6-1.3,5.8-3.4
		C440.1,226.5,436.8,226.7,434.7,226.2L434.7,226.2z M265.5,188.4c-0.3-2.6-0.6-5.4-0.9-8.2c-2.5,2.1-2,5.4-2.9,8.1
		c-0.3,0.8-0.4,1.6-0.3,2.5c0.1,1.1-0.7,2.6,0.7,3c1.2,0.3,1.7-1.3,2.6-2C265.6,190.9,265.9,189.6,265.5,188.4z M428.2,237.3
		c0.1,1.6-0.5,3.7,2.2,3.5c1.9-0.2,3.4-0.5,3.5-3.1c0.1-2.8-1.8-3.4-3.7-3.7C427.3,233.5,428.8,236.2,428.2,237.3z M553.9,331.3
		c-0.1-1.2-0.1-2.3-0.2-3.5c-0.4,1-0.8,2-1.1,3.1c-0.4,1.7-2.3,3.1-0.7,5.1c0.2,0.2,0.5,0.4,0.8,0.5
		C554.2,335,553.5,333.1,553.9,331.3z M448.5,234.5c-0.8,0-1.6,0.6-1.7,1.4c-0.2,0.8,0.2,1.7,1,1.9c0.2,0,0.3,0.1,0.5,0.1
		c0.8,0.2,1.6-0.3,1.8-1.2v-0.1C450.3,235.5,449.5,234.9,448.5,234.5z M455.1,241.6c-1.1,0.3-1,1.1-0.9,1.9c0.1,1,0.7,1.9,1.8,1.9
		c1.1-0.1,0.9-1.1,0.9-1.9C456.9,242.5,456.2,241.7,455.1,241.6C455.2,241.6,455.2,241.6,455.1,241.6z M470.4,302.5
		c0.1-0.3,0.4-0.5,0.4-0.8c0-0.6-0.3-0.8-0.8-0.4c-0.2,0.2-0.3,0.5-0.3,0.8C469.8,302.2,470.1,302.3,470.4,302.5L470.4,302.5z
		 M323.5,363.2h0.2l-0.1-0.3L323.5,363.2z"/>
	<path d="M561.2,644.5c-1.7,31.5-5.4,61.8-14.3,91.3c-5.7,18.8-17.8,33.3-30.8,47.2c-13.1,14-26.6,27.6-40.7,40.6
		c-0.6,0.6-1.2,1.2-1.8,1.7c-0.7,0.5-1.6,1.7-2.5,0.6c-0.9-1,0.3-1.8,0.9-2.5c5.8-5.5,11.7-10.9,17.4-16.5
		c13.9-13.9,27.8-27.7,40.1-43.1c12.6-15.8,17.4-34.5,21.4-53.7c4.6-23,7.3-46.4,8-69.8c0-1.1-0.6-3.2,1.2-3.1
		c1.7,0.1,1.1,2.1,1.1,3.3C561.3,642,561.2,643.7,561.2,644.5z"/>
	<path d="M325.6,886.7c-1.2,0.1-2.2,0.4-2.3-0.7c-0.2-1.4,1.2-1.5,2-1.7c7-1.7,13.7-4.1,20.1-7.3c11.7-5.8,21.4-14.1,29.7-24
		c9-10.3,19-19.7,29.9-27.9c1.2-0.9,2.5-3.3,4-1.5c1.1,1.4-1.2,2.4-2.3,3.2c-11.9,9.4-22.9,19.8-32.9,31.3
		c-11.7,13.4-27.1,23-44.3,27.6C328.2,886.1,326.8,886.4,325.6,886.7z"/>
	<path d="M520.9,916c-0.9,1.3-2.1,1.4-3.5,0.8c-3.2-1.4-6-3.6-8.2-6.4c-15.9-18.2-28.6-39-37.5-61.5c-0.1-0.3-0.3-0.6-0.4-0.9
		c-0.3-1.1-1-2.7,0.2-3.1c1.5-0.6,1.7,1.2,2.1,2.2c5.2,15.1,13.6,28.5,22.2,41.8c5.2,8,10.4,15.9,17.7,22.2c1.8,1.6,3.4,3.7,6.3,3.7
		c0.6-0.1,1.1,0.4,1.2,0.9C520.9,915.7,520.9,915.9,520.9,916z"/>
	<path d="M410.8,851.7c0,1.1-0.9,1.4-1.7,1.5c-10.9,1.4-21.2,6.1-29.4,13.4c-0.7,0.6-1.7,1.4-2.5,0.3c-0.5-0.7,0.3-1.5,0.9-2.1
		c8.3-7.7,18.9-12.6,30.2-13.9C409.2,850.8,410.3,850.5,410.8,851.7z"/>
	<path d="M166.1,489.7c0.5-11,4-20.8,13.4-27.2c10.7-7.3,15.7-17,15.7-29.9c0-6.6,1.7-13.2,6.2-18.6c1.4-1.9,3.4-3.3,5.5-4.1
		c0.7-0.3,1.7-0.5,2.1,0.5c0.3,0.8-0.3,1.3-0.9,1.6c-9.1,4.5-10.1,13.5-10.4,21.8c-0.5,13.2-5.8,22.7-16.4,30.7
		c-16.5,12.4-16.8,35-1.7,49.1c3.9,3.6,8.1,7,10.2,12.1c0.3,0.8,0.8,1.7-0.1,2.2c-0.9,0.5-1.5-0.2-1.9-1c-2.6-5.7-7.6-9.2-11.8-13.4
		C169.2,506.9,166.5,498.8,166.1,489.7z"/>
	<path d="M281,307.2c1.3-16.4,4.3-31.3,12.4-44.7c0.6-0.9,1-2.7,2.3-2.1s0.4,2,0,3.1c-0.1,0.2-0.1,0.3-0.2,0.5
		c-8.1,12.9-10.2,27.5-12.2,42.2c-0.2,1.2,0.2,3.2-1.7,3C280.2,309,281,307.2,281,307.2z"/>
	<path d="M230.4,245.9c14.4,0.9,25.2,7.5,31.8,20.5c0.5,0.9,0.8,1.8,1,2.8c0.2,1.1,0.5,2.7-0.9,3c-1.9,0.4-1.2-1.5-1.5-2.4
		c-3.7-11.7-16.7-21.1-29.7-21.5c-1,0.1-2,0-3,0c-1.1-0.2-3.1,0.8-3-1.2c0-1.4,1.8-1,2.9-1.1C228.8,245.9,229.6,245.9,230.4,245.9z"
		/>
	<path d="M193.1,269.5c2.7-10.2,6-20,18-22.8c0.9-0.2,2-1.1,2.6,0.1c0.6,1.2-0.7,2-1.5,2.2c-11.3,2.7-14.2,11.9-16.8,21.4
		c-0.2,0.8,0.2,2.4-1.3,2.1C192.5,272.1,193.1,270.6,193.1,269.5z"/>
	<path d="M313.9,171.4c0.5-13.2,2.7-26.3,6.6-38.9c5.5-17.5,11.7-34.6,19.7-51.1c1.6-3.1,3.3-6.2,5.2-9.1c0.7-1.1,1.4-3.5,3.1-2.5
		c1.8,1.1-0.3,2.6-0.9,3.7c-17.3,33.1-31.1,67.3-31.2,105.5c0,1.1,1,3.1-1.1,3.1c-1.4,0-1.2-1.8-1.2-2.9
		C313.9,177,313.9,174.9,313.9,171.4z"/>
	<path d="M526.6,72.8c-6.2,20.1-12.6,41-33.2,53.2c-2,1.2-5.5,4.1-6.8,1.3c-1.3-2.6,3.2-2.9,5.2-3.9c9.7-5.4,16.3-13.7,21.1-23.4
		c4.7-9.4,9.2-18.9,10.3-29.5c0.1-1.3,0.2-3.1,2.1-2.6C527.1,68.4,526,70.4,526.6,72.8z"/>
	<path d="M295.1,141.1c5.7-20.8,9.6-42.4,19.9-61.9c1-1.9,2.6-5.7,4.2-4.7c2.3,1.5-0.9,3.8-1.9,5.5c-7.5,13.5-10.9,28.5-15,43.2
		c-1.7,6.1-3.1,12.3-4.7,18.4c-0.2,0.8-0.2,2.3-1.6,2.1C294.6,143.5,295.3,142.2,295.1,141.1z"/>
	<path d="M488.3,80.3c-2.4,0.1-4.8-0.4-6.9-1.6c-0.8-0.4-1.4-1-1.1-2c0.3-0.8,1.2-1.1,2-0.8h0.1c11.6,3.7,19.6-3.5,28-9.4
		c1.2-0.9,2.3-1.9,3.4-2.9c0.6-0.7,1.6-0.8,2.2-0.2c0.9,0.8,0.5,1.7-0.1,2.6C512.1,71.7,495.8,80.2,488.3,80.3z"/>
	<path d="M497.8,46.8c3.2,0,6.4,0.7,9.3,2.1c1,0.4,2.4,0.9,2,2.4c-0.4,1.6-1.8,1.1-2.8,0.7c-4.9-2-10.4-2.4-15.5-1.2
		c-1,0.2-2.1,0.4-2.5-0.8c-0.5-1.6,0.9-1.8,1.9-2.3C492.4,46.8,494.7,46.9,497.8,46.8z"/>
	<path d="M295,355.1c1.7,0.6,1.4,2,1.6,3c1.3,6.5,2.3,13.1,3.7,19.6c2.4,11.3,7.7,21.7,15.4,30.4c10.1,11.5,20.1,23.1,30,34.8
		c0.8,1,3.1,2.2,1.5,3.6c-1.5,1.4-2.4-0.9-3.3-1.8c-10.4-11.9-20.7-23.9-31-35.8c-11.3-13-15.5-28.7-18-45.2
		c-0.3-2.1-0.6-4.3-0.9-6.4C293.9,356.2,294.3,355.5,295,355.1z"/>
	<path d="M469.2,348.7c-0.1,0.8,0,1.8-1,2c-1.2,0.2-1.2-0.9-1.3-1.6c-1.5-7.8-5.9-13.1-13.7-15.3c-0.7-0.2-1.8-0.4-1.5-1.6
		c0.3-1,1.2-0.9,2-0.8C460.5,331.9,469.4,341.8,469.2,348.7z"/>
	<path d="M373.9,286c3.7,0.4,10.9,1.8,18.2,2.1c9.4,0.4,17.5,19,11,26.7c-1.7,2-3.5,3.8-6,4.1c-8.6,1-17.2,2.1-25.6-0.7
		c-10.9-3.6-15.8-11.5-14.5-23C357.9,287.7,361.2,285.4,373.9,286z M371.7,288.3c-10.4-0.3-12.4,1.8-12.5,10.9
		c-0.1,7.6,3.9,12.5,10.4,15.5c8.7,4.1,17.8,2.8,26.9,1.7c1.7-0.3,3.1-1.2,4.1-2.6c5.3-6.6,0.7-20.6-7.5-22.6
		C385.7,289.4,378,289.1,371.7,288.3z"/>
	<path d="M353.5,227.8c-0.2,1.4-1,1.3-1.8,0.7c-3.9-2.9-8.2-5.1-12.8-6.5c-0.5-0.1-0.8-0.9-1.2-1.4c0.6-0.2,1.2-0.7,1.7-0.5
		c4.8,1.2,9.3,3.5,13.2,6.7C353,227,353.3,227.4,353.5,227.8z"/>
	<path d="M365.3,261.5c-0.2,1.1-0.2,2.4-1.6,2.6c-0.8,0.1-1-0.7-1-1.3c0.1-1.1,0.2-2.4,1.6-2.6C365.2,260,365.3,260.8,365.3,261.5z"
		/>
	<path d="M392.4,294.8c-9.9,1.6-17.9,4.9-24.8,10.8c-0.8,0.7-1.3,3-2.8,1.5c-1.1-1.1,0.3-2.5,1.3-3.3c7.3-6.1,15.5-10.3,25.1-10.8
		c1.6-0.1,4.3-0.3,4.2,1.5C395.2,297,392.7,294.6,392.4,294.8z"/>
</g>
<g>
	<path fill="#F7D8D5" d="M319.6,256.5c-0.9,0.3-1.4-0.7-2-1.1c-0.9-0.6-1.2-2.1-2.7-1.7c0.4,1.1,0.7,2.1,1.1,3.2
		c0.2,0.5,0.4,0.9,0.6,1.4c1.6,2.6,1.8,8.1,3.8,7.8c3.4-0.6,4.7-5.2,6.1-8.6c3.5-8.2,5.6-17.1,10.5-24.7c1-1.4,1.2-3.2,0.5-4.8
		c-0.7-1.8-2.5-2.9-4.4-2.7c-1.2-0.1-2.3,0.7-2.5,1.8c-3.2,8.4-10.1,14.1-15.3,21c-0.4,0.5-1.9,0.5-1,1.6c0.6,0.7,1.3,1.6,2.5,1.3
		c2.9-0.7,3.2-0.4,3.4,3.1C320.2,254.9,320.9,256.1,319.6,256.5z"/>
	<path fill="#F7D8D5" d="M307.6,251.5c2.5,0.5,3-2.2,3.7-4c2.7-7.4,5.8-14.5,10.4-21c1.7-2.4,1.4-4.1-0.8-6
		c-3.1-2.8-5.7-6.1-7.8-9.7c-0.4-0.8-1.6-1.8-0.5-2.6s1.7,0.5,2.2,1.3c1.9,3.3,4.3,6.3,7.2,8.9c3.8,3.3,3.6,6.3,0.9,10.3
		c-3.3,5-7.2,10-7.5,16.4c3.4-5.1,6.7-10.2,11.2-14.4c1.6-1.3,2.1-3.5,1.4-5.4c-1-3.2-1.5-6.5-2.2-9.7c-0.7-3.1-2.4-5.6-5.4-6.7
		c-5.3-1.9-9.8-4.7-13.1-9.4c-0.4-0.6-0.9-1.6-1.9-1.2c-0.9,0.4-0.9,1.4-0.8,2.2c0.4,3.3,0.8,6.6,2.3,9.6c2,3.7,1.3,7-1.4,10.1
		c-1.4,1.6-2.7,3.3-4.1,5c-0.5,0.6-1.4,1.1-1,2.1c0.8,2.2,6.7,4.3,9,3.2c7.3-3.7,7.8-6.7,2.7-14.7c-1-1.6-3.6-3.9-1.9-5
		c1.9-1.2,2.5,2.2,3.5,3.7c6.7,9.9,5.9,13.1-4.7,18.6c-4.5,2.3-5.6,6.4-6.5,10.6c-0.2,1.1-1.7,5.5,2.4,1.7c1.2-1.2,1.5,0.5,1.3,1.4
		C305.8,248.8,305.4,251.1,307.6,251.5z"/>
	<path fill="#F7D8D5" d="M292.4,230.8c3.2-1.9,6.5-4,6.7-8.4c0-3.4-1.9-4.3-4.5-2.8c-3.3,1.8-5.4,5.2-5.4,9
		C289.1,230.9,290.8,231.7,292.4,230.8z"/>
	<path fill="#53525A" d="M392.5,595.2c12.9-3.7,16.9-13.5,18.7-25.6c2.1-14.2,4.5-28.3,6.2-42.5c2.3-19.5,4.5-39,6.8-60
		c0.6-2.4-1.1-3.4-4.6-2.7c-2.1,0.4-4.3,0.8-6.4,1.1c-2.3,0.2-4,2.1-3.9,4.3c-1.7,22.9-7.6,44.9-13.6,66.9
		c-5.5,20.2-11.6,40.3-9.6,61.8c0.3,3.5-1,7.2-1.5,10.8c-0.5,3.4-1.7,6.8-1.1,10.4c0.1,0.8,0.6,1.9,1.1,2.1c0.9,0.3,1.2-0.8,1.6-1.5
		c3-6.3,5.4-12.9,7.2-19.7c0.3-1,1.1-2.4-0.9-2.6c-0.9-0.1-2.2,0.6-2.4-0.8C389.9,595.6,391.6,595.4,392.5,595.2z"/>
	<path d="M4.6,1080.2h722C485.9,1080.1,245.3,1080.1,4.6,1080.2z"/>
	<path fill="#53525A" d="M548.9,336c-3.3-8-7.2-15.8-13.6-21.9c-0.8-0.8-1.6-2-2.9-1.5c-1.3,0.5-1,2-1.1,3.1
		c-0.7,7.6-1.1,15.3-2.2,22.9c-1.7,12.5-3.3,25.1-8.7,36.8c-2.8,6.5-7.6,11.9-13.7,15.4c-1,0.6-2.3,1.5-3.2,0.4
		c-1.1-1.5,0.7-1.9,1.6-2.4c8.5-5.1,13.3-12.9,15.9-22.1c3.9-13.7,4.6-27.8,5-42c0-0.7-0.1-1.3-0.3-1.9c-0.3,0.7-0.5,1.5-0.7,2.2
		c-3.1,15.9-8.1,31.3-14.8,45.9c-7.8,16.9-18.5,31.5-33,43.3c-4.5,3.7-9.3,7-14,10.4c-0.9,0.7-2.4,2.1-3.4,0.5
		c-0.8-1.3,1-1.8,1.9-2.4c3.6-2.5,6.9-5.2,8.3-9.5c-1.4,0.9-2.7,1.8-4.1,2.8c-8,5.8-17.6,9-27.5,9.3c-1.6,0.1-3.9,0.6-4.3-1.4
		c-0.4-1.9,2-1.8,3.3-2.4c4.6-1.9,8.8-4.7,12.4-8.2c14-13.7,22.3-29.5,21.2-49.9c-0.9-17.8-0.2-35.6-0.3-53.5c0-1.6,0.9-3.6-1.5-4.7
		c-2.5-1.2-3.7,0.4-5.1,1.7c-3.8,3.2-8,6-12.5,8.2c-2,0.8-3.4,2.7-3.6,4.9c-1,7.4-2.6,14.8-3.6,22.2c-1.3,9.4-3,18.8-2.2,28.3
		c0.1,1.2-0.6,4.2,2.2,2.5c2.8-1.6,3.2-0.5,3.8,1.9c1,3.7,5.1,4,7.7,5.7c1.9,1.3,3.3-2.1,4.8-3.5c2.1-1.9,4-4,6.1-5.9
		c0.5-0.5,1.4-1.3,2.1-0.3c0.6,0.9,0.1,1.6-0.6,2.1c-6.4,5.4-10.7,12.9-17.1,18.1c-10.2,8.6-19.9,17.7-29.1,27.4
		c-15.8,16-34.1,28.7-53,40.7c-5.4,3.4-9.3,2.4-11.6-3.5c-6.6-17-14.9-33.5-19-51.4c-0.3-0.8-0.6-1.5-1-2.2c-0.5,0.6-1,1.2-1.3,2
		c-0.9,2.7-2.2,5.2-3.9,7.5c-0.6,0.9-1.3,2.3-2.7,1.3c-1-0.8-0.1-1.9,0.4-2.6c6.9-10,2.3-19.8-0.6-29.6c-0.2-0.8-0.7-2.3-1.9-1.8
		c-1,0.4-0.5,1.8-0.5,2.7c0.1,3.9-0.2,7.7-2.2,11.1c-0.5,0.8-0.9,2-2.2,1.2c-0.9-0.6-0.4-1.5,0-2.2c1.2-2.4,1.9-5,2.1-7.6
		c0.4-9.4-4.8-16.2-10.9-22.2C302.6,350.2,293.7,337,286,323c-1.2-2.2-1.8-2-3.6-0.8c-5.7,3.8-3.6,9.5-3.5,14.5
		c0.1,7.2,2.2,14.7-3.1,21.1c-0.6,0.7-0.5,1.9-0.6,2.9c-3.2,24.7,3.7,46.4,19.6,65.4c9,10.8,21,17.6,32.8,24.8
		c13.7,8.3,27.6,16.2,38.4,28.3c1.4,1.5,2.3,1.5,3.4-0.1c4.3-6.1,10.9-8.5,17.8-10.3c14.5-3.8,29.2-6.7,44.1-8.6
		c19-2.3,38.1-3.9,57.2-5.4c19.7-1.5,39.5-2.9,59.1-6.1c5.7-0.9,11.3-3,17-4c2.9-0.5,3.6-4.7,5.2-4c3.7,1.5,3.6-1.3,4.4-2.9
		c5.5-11.4,5.3-22.8,0.1-34.2c-4.1-9-9.8-17-14.9-25.4c-1.4-2.4-2.3-1.6-4.1-0.3c-15.2,10.9-29.2,23.3-41.9,37
		c-2.4,2.6-5.4,4.5-8.8,5.5c-1.1,0.3-2.5,1.2-3.1-0.1c-0.7-1.6,1.1-1.8,2.1-2.1c3.6-1.3,6.9-3.4,9.4-6.3
		c11.6-12.9,24.7-24.4,38.8-34.4c2.3-1.6,5.4-3.4,2.7-7.2c-0.5-0.6-0.3-1.6,0.3-1.7c3.5-0.9,2.1-3.6,2.2-5.7
		C557.6,353,552.5,344.6,548.9,336z M468.1,350.7c-1.2,0.2-1.2-0.9-1.3-1.6c-1.5-7.8-5.9-13.1-13.7-15.3c-0.7-0.2-1.8-0.4-1.5-1.6
		c0.3-1,1.2-0.9,2-0.8c6.9,0.5,15.7,10.5,15.5,17.4C469.1,349.5,469.2,350.5,468.1,350.7z M347.2,446.3c-1.5,1.4-2.4-0.9-3.3-1.8
		c-10.4-11.9-20.7-23.9-31-35.8c-11.3-13-15.5-28.7-18-45.2c-0.3-2.1-0.6-4.3-0.9-6.4c-0.2-0.8,0.2-1.6,0.9-1.9c1.7,0.6,1.4,2,1.6,3
		c1.3,6.5,2.3,13.1,3.7,19.6c2.4,11.3,7.7,21.7,15.4,30.4c10.1,11.5,20.1,23.1,30,34.8C346.5,443.8,348.7,444.9,347.2,446.3z"/>
	<path fill="#53525A" d="M309.4,623.9c0.6,1.3,0.9,3.3,2.7,3.1c1.3-0.2,1.5-2,1.8-3.3c1.8-7.3,1.9-14.8,2-22.3
		c0.1-7.4,0.7-15.3,6.4-20.4c6.8-6,8-13.3,8.3-21.4c1.2-30.9,2.4-61.8,4.1-92.7c0.4-6.4-1.2-10-6.9-12.9c-4.2-2.2-4.8-1-5.6,2.8
		c-5.5,27-11.1,54-16.8,81c-2.7,12.6-4.8,25.1-1.2,38c3.4,12.4,6.4,24.9,3.8,37.9C308.2,617,308,620.5,309.4,623.9z"/>
	<path fill="#F7D8D5" d="M293.1,217.7c3.2-1.6,6.1-1.9,8,1.8c0.6,1.1,1,1.8,2,0.5c1.9-2.3,4-4.6,2.3-8c-3.1-6-2.2-12.7-3.3-19
		c-0.7-4.2-2.7-7.5-7.5-7.9c-2.4-0.1-3.2,0.5-2.5,3.2c2.7,9.4,5.9,18.9-0.9,28.1c-0.4,0.5-1.2,1.5-0.2,2.1
		C291.4,218.9,292.4,218.1,293.1,217.7z"/>
	<path fill="#53515E" d="M373.9,1061.5c-0.3-1.4-0.5-3-2.3-0.8c-3.5,4.2-8.2,6.7-13.2,8.5c-17.1,5.9-34.6,7.8-52.6,4.7
		c-13.9-2.4-25.8-8.9-36.6-17.7c3,6.1,6.2,12.1,8.9,18.3c1.2,2.7,2.8,3.6,5.7,3.5c7.5-0.2,15-0.1,22.5-0.1c22.1,0,44.3-0.1,66.4,0.1
		c4,0,5.1-1.1,4-4.8C375.7,1069.3,374.9,1065.4,373.9,1061.5z"/>
	<path d="M0,4.6v1071C0.1,718.6,0.1,361.6,0,4.6z"/>
	<path d="M726.6,1080.2h4.6v-4.6C731.2,1079.3,730.3,1080.2,726.6,1080.2z"/>
	<path fill="#B1595E" d="M369.7,314.8c8.7,4.1,17.8,2.8,26.9,1.7c1.7-0.3,3.1-1.2,4.1-2.6c5.3-6.6,0.7-20.6-7.5-22.6
		c-7.4-1.8-15.1-2.1-21.4-2.9c-10.4-0.3-12.4,1.8-12.5,10.9C359.2,306.9,363.2,311.8,369.7,314.8z M366.1,303.8
		c7.3-6.1,15.5-10.3,25.1-10.8c1.6-0.1,4.3-0.3,4.2,1.5c-0.1,2.7-2.7,0.2-3,0.4c-9.9,1.6-17.9,4.9-24.8,10.8c-0.8,0.7-1.3,3-2.8,1.5
		C363.7,306,365.1,304.6,366.1,303.8z"/>
	<path d="M726.6,0H4.6C245.3,0.1,485.9,0.1,726.6,0z"/>
	<path fill="#442C35" d="M336.2,239.9c0.8,0.1,1.6,0.1,2.4,0c0.8-0.2,2.1,0.8,2.1-0.8c0-0.2-1.4-0.7-2.1-0.8
		C337.4,238.2,336.3,238.4,336.2,239.9z"/>
	<path d="M315.4,245.4l-0.2-0.1L315.4,245.4L315.4,245.4z"/>
	<path fill="#FFEFE2" d="M317.4,292.9c6.3,10,15.5,16.8,25.5,22.7c9.2,5.4,18.7,10.3,27.4,16.5c4.1,3,9.4,3.8,14.3,2.4
		c19.3-5.1,38.6-10.2,57.2-17.6c10.3-4.1,19.7-9.6,27-18.3c1.2-1.4,2.3-2.7,2.3-4.8c0.5-23.8,1.2-47.6,1.9-71.4
		c0.1-2.9-1.3-4.1-3.7-5c-4.7-1.6-9.2-3.4-13.9-5.1c3.7,5,7.6,10,11.1,15.2c5.1,7.5,5.4,19.4,0.8,24.8c-0.6,0.7-1.3,2-2.3,1.3
		c-1.3-0.8-0.1-1.7,0.4-2.4c2.4-3.6,2.5-7.5,1.4-11.5c-0.2-0.6-0.6-1.5-1-1.5c-1.1-0.1-1.1,1.1-1.1,1.8c-0.3,3.2-1.2,6.2-2.6,9.1
		c-2.4,5.2-8.2,8.6-8,15.2l0,0c-2.1,4.5-5.9,5.6-11,2.7c-5.3-3-11.3-3.2-16.9-4.9c-0.7-0.2-1.8,0.7-2.2-0.3
		c-0.6-1.3,0.7-1.7,1.5-2.2c1.6-0.9,1.2-2,0.9-3.4c-3.2-13.1-2.3-25.7,4-37.8c1.3-2.5,0.4-3-1.7-3c-3.7,0-7.3,0.1-11,0.2
		c-1.7,0-3.9,1.9-5-0.1c-1-1.8,1.5-3,2.5-4.5c0.2-0.3,0.5-0.5,0.7-0.7c0.8-1.2,2.9-2,2.2-3.6c-0.5-1.1-2.5-0.3-3.8-0.2
		c-0.7,0-1.8,0.6-1.9-0.7c0-0.3,0.5-0.8,0.9-0.9c1.2-0.6,2.5-1,3.7-1.5c-1.3-0.6-2.7-1.2-4-1.9c-4.2-1.9-6.9-5.2-8.9-9.1
		c-1.8-3.8-3.1-7.7-4.1-11.8c-2-7.3-2.9-15-6-22c0-0.1,0-0.1,0-0.2v0.1c0.4,8.5,1.3,16.9,2.6,25.3c0.6,4,4.1,8.8,1.2,11.7
		c-2.6,2.6-7.9,1.1-12.1,1.1c-14.5-0.1-22.1-5.6-26.7-19.4c-2.1-6.3-4-12.7-6-19c-0.2-0.7-0.2-1.7-1.3-1.7c-0.1,0.5-0.2,0.9-0.2,1.4
		c1.6,10.6,0.5,21.7,5.7,31.7c0.5,0.9,1.7,2.1,0.5,3.1c-1.4,1-1.9-0.7-2.7-1.4c-5.9-5.6-9.2-12.6-10.9-20.4
		c-2.5-11.6-3.5-23.4-3.1-35.2c0-0.6-0.1-1.3-0.2-1.9c-0.4,0.5-0.7,1-0.9,1.6c-4.1,17-8.6,33.9-9,51.5c-0.1,3.8-0.6,5.7-5,4.6
		c-2-0.4-4-0.4-5.9,0c-3.9,0.7-9.2,0.9-9.8,5.4c-0.6,4.4,3.7,7.3,7.8,8.6c6.6,2.1,10.4,6.3,11.2,13.2c0.4,3.1,1.5,4.8,5,4.5
		c2.5-0.2,5.4,1.2,5.4,3.5c-0.2,6.2,4.3,7.8,8.4,10.3c1.5,1,2.8,2.4,3.7,4c1,1.6,3.1,3.6,1.3,5.3c-1.4,1.3-2.8-1.1-4.1-1.9
		c-3.8-2.5-8-1.9-12.1-1.6c-1.4,0.1-2.6,1.1-2.9,2.5c-2,12.4-13,21.1-14.2,33.9c-0.2,1.8-1,3.6-2.1,5
		C314.6,287.1,315.5,289.8,317.4,292.9z M362.8,262.8c0.1-1.1,0.2-2.4,1.6-2.6c0.8-0.2,0.9,0.6,1,1.3c-0.2,1.1-0.2,2.4-1.6,2.6
		C362.9,264.2,362.7,263.4,362.8,262.8z M357,295.2c0.9-7.5,4.2-9.8,16.9-9.2c3.7,0.4,10.9,1.8,18.2,2.1c9.4,0.4,17.5,19,11,26.7
		c-1.7,2-3.5,3.8-6,4.1c-8.6,1-17.2,2.1-25.6-0.7C360.5,314.6,355.6,306.7,357,295.2z M351.7,228.5c-3.9-2.9-8.2-5.1-12.8-6.5
		c-0.5-0.1-0.8-0.9-1.2-1.4c0.6-0.2,1.2-0.7,1.7-0.5c4.8,1.2,9.3,3.5,13.2,6.7c0.3,0.3,0.6,0.7,0.8,1.1
		C353.3,229.1,352.5,229.1,351.7,228.5z"/>
	<path fill="#F7D8D5" d="M294.5,239.8c2.6,0,8.7-5,8.5-6.7c-0.2-1.5-1-2.8-2.9-2.8c-3.6,0-8.2,3.9-8,6.8
		C292.2,238.9,293.2,239.8,294.5,239.8z"/>
	<path d="M0,1075.6v4.6h4.6C0.8,1080.2,0,1079.3,0,1075.6z"/>
	<path fill="#484453" d="M166.9,574.2c3.2,1.4,6.3,2.9,9.3,4.7c9.4,5.3,19.5,1,22.4-9.4c0.9-3.4,1.2-6.9,0.8-10.4
		c-1-8.3-4.1-16.2-9-23c-0.5-0.8-1.6-1.8-0.6-2.6c1.4-1.2,2,0.4,2.6,1.2c3.9,5.2,6.7,11.1,8.3,17.5c0.2,0.6,0.5,1.2,0.9,1.7
		c0.2-0.6,0.4-1.2,0.5-1.8c2.5-12.6,6.9-24.7,11.9-36.5c8.9-20.8,15.1-42.7,18.5-65.1c2.2-15.7,3-31.5,2.3-47.3
		c0-0.9,0.6-3.7-1.7-1.6c-7.8,7.1-17.3,7.1-26.8,6.7c-11.6-0.5-23.3-1.8-34.9-1.8c-15.5,0-28.8,6.4-32.5,23.7
		c-0.2,1-0.1,2.9-1.7,2.5c-1.8-0.4-0.8-2.2-0.6-3.4c2.6-12,9.7-19.8,21.5-23.3c8.9-2.7,18.1-2.1,27.3-1.6c10,0.6,19.9,2.1,29.9,1.5
		c7.8-0.5,15.1-2.4,18.7-10.5c-3.2,1.2-3,0-2.1-2.7c1.9-6,8.6-9.5,8.2-16.6c0-0.3,0.6-0.8,1-0.9c1.2-0.1,1.2,0.9,1.2,1.7
		c-0.1,2.2,0.7,2.8,2.6,1.4c9.2-6.9,18.4-13.7,27.4-20.8c2.4-1.9,4.9-4.2,2.3-8c-0.9-1.4,0.3-3.2,0.9-4.7c0.7-1.7,1.8-3.3,1.2-5.2
		c-2.9-10.5,3.3-21.1-0.3-31.6c-0.3-0.6,0-1.4,0.6-1.6c0.2-0.1,0.3-0.1,0.5-0.1c0.4,0,1,0.8,1.1,1.4c0.6,2.9,1.1,5.9,1.7,8.8
		c0.2,1.1-0.7,2.7,0.7,3.1c1.5,0.4,2.3-1.3,2.8-2.4c4.4-10.9,13.2-17.7,22.1-24.5c13.7-10.6,15.6-21,7.2-36.2
		c-1-1.9-1.8-3.2-4.5-2.3c-4.7,1.5-6.9-1.6-7.5-5.6c-0.5-3.1-0.1-6.3-0.1-9.4l0.1-0.2l-0.1,0.1c-4.7,3.6-8.8,4.1-10.4,0.9
		c-4.1-8.4-5.3-17.6-0.7-25.7c5.1-9.2,2.2-17.4-0.6-25.8c-1.7-4.9-5.7-6-10.6-4.1c-3.7,1.5-7,3.9-9.7,6.8
		c-8.8,9.3-15,20.2-21.1,31.2c-2.1,3.9-4.8,6.6-9.2,7.6c-4.5,1-8.7,3.3-11.3,6.9c-1.9,2.6-4.1,3.5-6.8,4.3c-8.6,2.6-17.2,5-25.8,7.7
		s-13.8,8.3-14.8,17.5c-1.4,12.6-3.1,25.1-4.3,37.7c-1.3,13.3,0.6,25.9,8.1,37.3c1.9,2.8,3.9,4,7.3,3.8c10.6-0.6,21.2-1.9,31.7-3.9
		c10.7-2.1,22-2.1,31-9.7c0.5-0.5,1.2-0.7,1.7,0c0.6,0.9,0.1,1.6-0.5,2.2c-2.6,2.6-5.9,4.5-9.5,5.4c-18.6,4.7-37.5,7.6-56.7,8.5
		c-2.4,0.2-4.7-0.9-5.9-3c-6.2-9.4-10-19.3-10-30.8c-0.1-12.9,2.4-25.5,3.2-38.3c0-0.8-0.1-1.6-0.2-2.3c-0.6,0.4-1.3,0.9-1.8,1.5
		c-9.7,10.6-21.2,18.6-33.8,25.4c-2.3,1.3-4.6,2.7-6.8,4.1c-10.2,6.4-15.4,15.9-16.1,27.8c-1.2,21.7,1,43.2,1.7,64.9
		c0.4,11.2,0.6,22.3-2.6,33.2c-1.8,6-4.7,11.4-9.7,15.4c-0.9,0.8-2.1,2.5-3.3,1.2c-1.3-1.4,0.7-2.2,1.6-3c5.5-4.6,8.5-10.7,9.9-17.5
		c1.1-4.5,1.6-9.2,1.7-13.8c-0.4-19.5-1.2-38.9-1.8-58.4c-0.1-1.8-0.1-3.7-0.3-5.5c-0.2-1.5-0.6-2.9-2.3-0.8
		c-5.6,7-13,11.9-20.6,16.5c-16.4,10-26.2,25.1-33.1,42.6c-0.9,2.3,1.2,4.7-0.8,6.5c-2.8,2.7-3.5,6.4-4.4,9.9
		c-5.9,21.3-11.7,42.7-17.6,64c-0.4,1.6-0.1,4.7-2.4,4c-1.9-0.6-0.3-3.2,0.1-4.8c5.2-19.8,10.6-39.5,16-59.3
		c0.4-1.4,1.2-2.7,0.5-4.2c-0.9,0.9-1.8,1.9-2.6,2.9c-12.1,17-22.5,35-31.3,53.9c-4.4,9.7-7.2,20.1-8.4,30.7
		c-2,17.3,2.9,26.9,18.1,33.9c25.2,11.4,51.6,18.5,78.9,22.7c16.8,2.6,33.9,2.2,50.7,4.5c0.5,0.1,1.2,0.6,1.6-0.1
		c-0.3-0.4-0.7-0.6-1.1-0.8c-1.9-0.9-4-1.7-5.9-2.7c-25.4-13.6-37-36.8-44.1-63.1c-0.6-2.6-0.6-5.3,0.1-7.9c0.2-1,0.5-2.2,1.8-1.9
		c0.9,0.2,0.8,1.4,0.6,2.2c-0.8,4.6-0.2,9.4,1.5,13.7c2.8,8,6.3,15.8,10.2,23.3c9.5,17.4,23,30,42.3,35.7c0.6,0.3,1.1,0.6,1.6,1
		C161.1,575.2,165.8,573.7,166.9,574.2z M179.5,462.5c10.7-7.3,15.7-17,15.7-29.9c0-6.6,1.7-13.2,6.2-18.6c1.4-1.9,3.4-3.3,5.5-4.1
		c0.7-0.3,1.7-0.5,2.1,0.5c0.3,0.8-0.3,1.3-0.9,1.6c-9.1,4.5-10.1,13.5-10.4,21.8c-0.5,13.2-5.8,22.7-16.4,30.7
		c-16.5,12.4-16.8,35-1.7,49.1c3.9,3.6,8.1,7,10.2,12.1c0.3,0.8,0.8,1.7-0.1,2.2c-0.9,0.5-1.5-0.2-1.9-1c-2.6-5.7-7.6-9.2-11.8-13.4
		c-6.6-6.6-9.3-14.8-9.8-23.9C166.6,478.7,170.1,468.9,179.5,462.5z M281,307.2c1.3-16.4,4.3-31.3,12.4-44.7c0.6-0.9,1-2.7,2.3-2.1
		s0.4,2,0,3.1c-0.1,0.2-0.1,0.3-0.2,0.5c-8.1,12.9-10.2,27.5-12.2,42.2c-0.2,1.2,0.2,3.2-1.7,3C280.2,309,281,307.2,281,307.2z
		 M212.2,248.9c-11.3,2.7-14.2,11.9-16.8,21.4c-0.2,0.8,0.2,2.4-1.3,2.1s-1-1.8-1-2.9c2.7-10.2,6-20,18-22.8c0.9-0.2,2-1.1,2.6,0.1
		C214.3,247.9,213.1,248.7,212.2,248.9z M231,248.3c-1,0.1-2,0-3,0c-1.1-0.2-3.1,0.8-3-1.2c0-1.4,1.8-1,2.9-1.1c0.8-0.1,1.7,0,2.5,0
		c14.4,0.9,25.2,7.5,31.8,20.5c0.5,0.9,0.8,1.8,1,2.8c0.2,1.1,0.5,2.7-0.9,3c-1.9,0.4-1.2-1.5-1.5-2.4
		C257.1,258.2,244.1,248.7,231,248.3z"/>
	<path fill="#876971" d="M268.7,169.2c-1.1,4.9-1.5,9.9-1.2,14.9c0.3,2.9,1.1,3.5,3.6,1.6c3.4-2.7,7.1-5.3,11.7-4.8
		c3.9,0.4,4.4-1.3,4.3-4.5c-0.2-7.2,0.6-14.3,2.5-21.3c0.4-1.5,0.2-4.3,2.1-3.8c2.3,0.6,0.5,3.1,0.2,4.6c-1.7,7.5-2.5,15.1-2.3,22.8
		c0.1,2.7,0.8,4.4,4.1,4.1c5.6-0.5,8.6,2.7,10.4,7.5c0.4,1-0.2,2.5,1.5,2.8c0.2-1.1,0.4-2.2,0.5-3.3c0.2-9.2,1.3-18.3,3.5-27.2
		c0.3-1.1,0.1-3.3,1.9-2.8c1.5,0.4,0.7,2.3,0.4,3.5c-2,7.8-2.7,15.7-3.2,23.7c-0.1,1.6-0.8,3.5,1,4.6c1.6,1,8.2-3.6,8.4-5.7
		c0.8-7.9,1.2-15.9,2.8-23.8c0.9-4.2,2-8.4,3-12.6c0.2-0.8,0.6-1.8,1.6-1.5c1.1,0.2,0.9,1.3,0.7,2c-0.1,0.8-0.4,1.6-0.6,2.4
		c-2.6,10.5-4.2,21.2-4.8,32c-0.2,3.1,1.2,4,4.1,4.2c2.4,0.2,3.2-0.6,3.3-3c2-27.4,9.3-53.7,17.5-79.7c6.1-19.4,13.1-38.5,24.2-55.7
		c1.1-1.7,2.1-5.3,4-4.1c2.2,1.4-0.9,3.5-1.8,5.2c-16.7,29.9-30.9,60.6-28.7,96.1c0.7,11.1,1.7,22.3,6.4,32.6
		c0.3,0.6,0.3,1.7,1.5,1.7c0-0.6-0.1-1.3-0.1-1.9c-2.2-17.9-3.9-35.8-3.2-53.8c0.3-6.8,1.1-13.6,2.6-20.3c0.2-0.9,0.3-2.2,1.8-1.8
		c1,0.3,0.8,1.3,0.7,2.1c-0.1,0.7-0.4,1.3-0.5,1.9c-1.9,11.2-4,22.7-1.7,33.8c2.6,13,7.4,25.6,11.7,38.1c2.8,8.3,9.3,12.8,18,13.8
		c3.9,0.5,8,0.1,12,0.2c3.1,0.1,3.4-1.2,2.8-4c-1.2-5.7-2.2-11.4-2.8-17.2c-1.4-13.8-1.8-27.6-1.4-41.4c0-1.4,0.2-3.8,1.8-3.6
		c2.5,0.3,0.3,2.3,0.6,3.6c0.1,0.7,0.1,1.3,0,2c0.5,19.7,6.6,38.2,12.5,56.7c2.6,8.3,10.9,12.1,19.8,11.5c2.5-0.2,3.8-1.3,3.2-3.8
		c-1.7-8.3,0.2-16.6,0.1-24.9c-0.2-8.5-0.1-17,0-25.5c0-1.6-0.8-4.5,1.2-4.5c2,0.1,0.8,3,1.2,4.7c0.1,0.5,0.1,1,0.1,1.5
		c-0.2,13,2.6,25.8,3,38.7c0,1-0.4,2.7,1.3,2.7c1,0,1.1-1.5,1.4-2.4c1.2-4.7,1.7-9.5,1.6-14.3c-0.2-28.2-0.5-56.3-0.7-84.5
		c0-2-1.4-5.8,1-5.8c2.2,0,1.2,3.9,1.2,6.1c0.2,17.5-0.5,35,1.9,52.4c2.5,18.5,7,36.6,10.8,54.8c3.3,15.7,0.1,11.7,16,18
		c3.4,1.4,4.1,0.3,4.4-3.1c0.4-4.1-0.5-8.3-2.7-11.8c-2.4-4.4-4.5-8.9-6.2-13.6c-6.3-17-7.8-35.3-4.5-53.1c0.2-1.2-0.1-3.2,1.9-2.8
		c1.5,0.3,0.6,2,0.5,3.1c-0.4,4.1-1.2,8.2-1.4,12.4c-1,17.7,2.8,35.4,10.9,51.2c0.4,0.7,1.1,1.9,1.4,1.9c1.3-0.3,0.7-1.6,0.7-2.5
		c0.5-10.6,1.7-21.2,3.1-31.8c0.4-2,0.9-3.9,1.7-5.7c0.3-0.8,0.9-1.5,1.9-0.9c0.7,0.4,0.5,1.1,0.4,1.8c-4.4,17.2-4.6,35-5.2,52.5
		c-1.1,30.3-1.8,60.6-2.3,90.9c-0.3,19.5-0.1,39,0,58.5c0,0.6-0.6,1.6,0.5,1.9c0.3-0.5,0.6-1.1,0.7-1.7c0.2-0.6,0.2-1.3,0.3-2
		c4.3-20.2,6.3-40.8,8.9-61.2c2.3-18.2,4.8-36.3,5.1-54.7c0.2-16.7-0.1-33.3,0.1-50c0-7.8,1.5-15.6,4.2-23c0.3-0.8,0.7-2.1,2-1.5
		c0.9,0.4,0.5,1.4,0.2,2.2c-5.2,14.5-4.1,29.5-4.2,44.5c-0.1,13.5,0.4,27-0.6,40.5c-1.4,20.1-4.2,40.1-6.6,60
		c-2.6,21.6-5.7,43.2-11.8,64.2c-4.6,16-13.1,28.9-26.4,38.9c-0.9,0.7-1.8,1.4-2.6,2.1c1.1,0,2.3,0.1,3.4,0c0.7-0.1,1.3-0.3,1.9-0.5
		c10.1-2.5,19.1-8.4,25.3-16.8c0.7-1,1.4-2.9,2.9-2c1.3,0.8,0.3,2.4-0.1,3.6c-0.7,2.3-2.3,4.3-2.5,6.8c9.5-6.5,16.6-15.1,20.5-25.8
		c6.1-16.7,10.5-34,13.2-51.6c1.3-8.3,0-17.1,1.4-25.4c3.8-22,6-44.2,6.5-66.5c0-1.1-0.7-3.2,1.2-3.2c1.7,0.1,1.1,2.1,1.1,3.3
		c-0.3,13.6-1.1,27.3-2.4,40.8c-1.2,12.4-5.2,24.5-4.7,37c0.4,10.1-1.1,19.9-3.7,29.6c-3.1,11.8-6.1,23.5-9.1,35.3
		c10-15,16.7-31.5,21.2-48.9c4.2-16.3,7.2-32.8,4.4-49.8c-0.6-3.8-1.4-7.5-1.9-11.3c-0.1-0.8-0.5-2.2,0.9-2.3c1-0.1,1.2,1,1.4,1.8
		c0.4,1.6,0.7,3.3,1,4.9c2.1,11.1,3.2,22.4,3.4,33.7c0,0.7,0.1,1.3,0.1,2c-0.1-0.7-0.1-1.5,0-2.2c1.7-8.9,1.4-17.9,1.1-26.9
		c0-1.1-0.7-2.8,0.7-3c1.9-0.2,1.7,1.8,1.7,2.9c0.1,5.8,0.1,11.7,0.2,17.5c0,1.4-0.6,3.1,1,4.1c7,4.6,10.8,11.6,14.6,18.6
		c0.5,0.8,0.7,2.2,1.9,2c1.1-0.2,1-1.5,1.1-2.5c0.4-5.3-0.7-10.7-3.1-15.4c-0.6-1.1-2.7-2.6-0.8-3.6c1.6-0.9,2.2,1.5,3,2.6
		c2.8,3.8,4,8.5,6.2,12.7c-0.3-1.5-0.6-3.1-1-4.5c-2.6-9.1-6.2-17.9-8.4-27.2c-3.5-15.1-3.1-30.3-2-45.7c1.3-17.6,1.2-35.3,1.1-52.9
		c0-1.5-1-4,1.3-4.1c1.7,0,1,2.4,1,3.8c0,12,0.1,24-0.2,36c-0.3,11.6-1.2,23.3-1.7,34.9c0,0.6,0.1,1.3,0.2,1.9
		c0.4-0.4,0.8-1,1.1-1.5c0.3-1,0.5-1.9,0.6-2.9c2.1-9.8,1.9-19.9,3.3-29.7c3-21.8,5.1-43.7,4.2-65.7c-0.3-6.8,0.2-14.1-5.2-19.7
		c-0.8-0.8-1-2.8,0.5-2.8c6,0.3,1.3-2.5,1.2-3.8c0-1-0.6-2-1.6-2.3c-0.2,0.9-0.4,1.9-0.5,2.8c-0.9,6.4-2,12.8-2.7,19.3
		c-0.4,3.4-1.6,3.6-4.1,2c-0.8-0.5-1.7-1-2.6-1.5c-10.6-5.9-10.3-5.9-9.3-18c1.8-22.6,2.3-45.3,1.5-67.9c-0.1-3.4-0.4-7.4-3.6-9.4
		c-2.8-1.8-4.8-4.6-5.5-7.9c-1-3.7-3.4-5.1-7.2-3.3c-5.3,2.4-10.8,4.3-16.5,5.6c-9.8,2.4-19.6,3.6-29.7,1.5
		c-1.4-0.3-3.5-0.2-3.1-2.3c0.3-1.8,2.1-1.1,3.4-0.9c14.4,2.7,28.1-0.7,41.5-5.5c2.6-1,2.9-2,0.9-4.1c-6.1-6.2-13.1-11.3-20.8-15.3
		C476,23.4,457.9,20,439.4,18.4c-9.5-0.8-19.2-3.1-28.2,2.4c-0.7,0.5-1.6,0.4-2.2-0.2l-0.1-0.1c-1.7-3.3-4.6-2.1-7.1-1.9
		c-10.7,0.8-20.9,3.9-31,7.2c-25.6,8.3-47.1,22.3-63.1,44.1c-5.6,7.7-10.6,15.8-15.1,24.1c-5.3,9.7-10.1,19.6-13,30.3
		c0.8-1.3,1.6-2.7,2.3-4c3.7-7.4,7.3-14.9,12.2-21.6c0.8-1.1,1.8-3,3.5-1.6c1.3,1.1-0.2,2.4-0.8,3.4c-13.8,20.3-20.9,43.6-30.2,65.9
		C268.2,166.1,269.3,166.3,268.7,169.2z M523.1,70.5c0.1-1.3,0.2-3.1,2.1-2.6c1.9,0.5,0.8,2.5,1.4,4.9c-6.2,20.1-12.6,41-33.2,53.2
		c-2,1.2-5.5,4.1-6.8,1.3c-1.3-2.6,3.2-2.9,5.2-3.9c9.7-5.4,16.3-13.7,21.1-23.4C517.4,90.6,522,81.1,523.1,70.5z M480.3,76.7
		c0.3-0.8,1.2-1.1,2-0.8h0.1c11.6,3.7,19.6-3.5,28-9.4c1.2-0.9,2.3-1.9,3.4-2.9c0.6-0.7,1.6-0.8,2.2-0.2c0.9,0.8,0.5,1.7-0.1,2.6
		c-3.8,5.7-20.1,14.2-27.6,14.2c-2.4,0.1-4.8-0.4-6.9-1.6C480.6,78.3,480,77.7,480.3,76.7z M490.2,47.7c2.2-0.9,4.5-0.8,7.6-0.9
		c3.2,0,6.4,0.7,9.3,2.1c1,0.4,2.4,0.9,2,2.4c-0.4,1.6-1.8,1.1-2.8,0.7c-4.9-2-10.4-2.4-15.5-1.2c-1,0.2-2.1,0.4-2.5-0.8
		C487.7,48.4,489.1,48.1,490.2,47.7z M320.6,132.5c5.5-17.5,11.7-34.6,19.7-51.1c1.6-3.1,3.3-6.2,5.2-9.1c0.7-1.1,1.4-3.5,3.1-2.5
		c1.8,1.1-0.3,2.6-0.9,3.7c-17.3,33.1-31.1,67.3-31.2,105.5c0,1.1,1,3.1-1.1,3.1c-1.4,0-1.2-1.8-1.2-2.9c-0.1-2.2,0-4.3,0-7.8
		C314.4,158.2,316.7,145.1,320.6,132.5z M295.1,141.1c5.7-20.8,9.6-42.4,19.9-61.9c1-1.9,2.6-5.7,4.2-4.7c2.3,1.5-0.9,3.8-1.9,5.5
		c-7.5,13.5-10.9,28.5-15,43.2c-1.7,6.1-3.1,12.3-4.7,18.4c-0.2,0.8-0.2,2.3-1.6,2.1C294.6,143.5,295.3,142.2,295.1,141.1z"/>
	<path fill="#876971" d="M262.1,193.7c1.2,0.3,1.7-1.3,2.6-2c0.9-0.8,1.3-2.1,0.9-3.3c-0.3-2.6-0.6-5.4-0.9-8.2
		c-2.5,2.1-2,5.4-2.9,8.1c-0.3,0.8-0.4,1.6-0.3,2.5C261.5,191.7,260.7,193.3,262.1,193.7z"/>
	<path d="M731.1,540.1c0,178.5,0,357,0.1,535.5V4.6C731.1,183.1,731,361.6,731.1,540.1z"/>
	<path d="M187.7,612.1c0.1-0.5,0.2-1,0.2-1.4c-0.1-3.8-0.1-7.7-1.8-11.2c0.4,3.8,0.8,7.6,1.2,11.5
		C187.4,611.3,187.5,611.7,187.7,612.1z"/>
	<path fill="#53515E" d="M186.1,894.6c6.8,13.6,14.3,26.9,26.4,36.6c11.1,8.9,22.9,17,35.9,23.1c22.6,10.7,46.5,18.1,69.9,26.6
		c20.2,7.3,40.3,14.9,61.5,18.6c16.1,2.8,32.2,5.3,47.4,11.6c3.4,1.4,6.7,4.4,11.1,2.1c0.7-0.4,3.1,0.7,3.4,1.5
		c1.2,3.4,4.2,3.4,6.8,4.2c4.6,1.5,9.3,1.4,14.1,1.3c6.7,0,13.3,0.9,18.6-4.3c0.6-0.6,1.1-0.3,1.8-0.2c4.6,0.5,8.4-0.8,10.3-5.4
		c0.4-1,1-1.4,1.9-1c2.2,0.9,3.8-0.3,5.5-1.4c14.7-9.5,28.7-20.1,41.6-31.9c11.2-10.2,20.4-21.6,22.3-37.3
		c1.4-11.8-0.9-23.2-4.4-34.4c-0.8-2.4-0.5-6.2-3.1-6.6c-1.4-0.2-1.8,4.1-2.7,6.4c-3.2,8.3-6,16.4-1.1,25.2c1.7,3.1,1.3,6.8-1,9.5
		c-7.7,8.9-15.9,17.3-28.9,17.4c-4.4,0-5.9,1.7-5.3,6.1c0.6,5-1.6,8.6-6.4,8.1c-7-0.7-7.8,3.8-9.5,8.2c-0.9,2.3-2,4.6-2.9,6.9
		c-1,2.8-2.5,3.8-5.7,3.1c-6.2-1.2-12.2-3.5-17.6-6.8c-13-7.9-21.9-19.4-28.4-32.8c-14.8-30.5-24.9-62.7-33.3-95.5
		c-1.5-5.3-0.1-10.9,3.8-14.8c2.3-2.6,5.7-4.7,6.7-8c2.5-9,8.9-14.1,16.8-18c1.3-0.7,2.8-1.3,2.3-3.3c-2.5-10,2.9-15.5,11.1-19
		c2.9-1.3,3.4-2.9,3.3-5.7c-0.2-9,0.5-18,2.2-26.8c4.4-24,12.1-47,21.2-69.6c5-12.5,9.3-24.9,8.6-38.6c-0.3-5.5,0.5-11,1-16.4
		c2.3-28.7,5-57.4,8.8-85.9c1.1-8.4,1.8-16.9,4.3-25c0.4-1.2,0.3-3.8,2.2-3.3c2,0.5,0.4,2.5,0.2,3.7c-0.8,3.9-1.8,7.8-2.4,11.7
		c-3.2,21.4-5.7,42.9-7.7,64.4c-1.8,19.1-2.9,38.2-4.3,57.3c-0.1,0.8-0.7,2,0.6,2.4c0.2,0.1,0.9-1.3,1.2-2
		c12.8-30.9,25.4-61.9,33.5-94.4c0.6-2.2,0.5-6.5,2.7-5.9c2.4,0.7,0.1,4.4-0.4,6.6c-8.8,37.9-24.9,73.3-39.1,109.4
		c-7.8,20-15.6,39.9-21.8,60.5c-4.8,15.8-8.9,32-8,48.5c0.4,7.4-1,10.4-7.7,12.9c-5.9,2.2-9.3,8.5-7.4,12.6c2.4,5.2,0.1,6.7-4.1,8.7
		c-7.3,3.4-13.6,8.2-14.3,17.1c-0.4,5.9,1.5,11.5,3.3,17.1c10.4,33.6,30.1,62.1,50,90.5c2.7,3.9,6.5,6.9,10.9,8.4
		c1.1,0.4,3.5,0.1,3,1.8c-0.6,2.1-2.8,0.8-4.2,0.4c-4-1.3-7.5-3.8-10.1-7.1c-2.7-3.2-5.1-6.5-7.5-10c-8.3-12.5-16.8-24.8-24.2-37.9
		c-0.5-0.8-0.8-2.2-1.9-2c-1.2,0.3-0.7,1.7-0.7,2.6c-0.2,4.5,1.5,8.6,3.7,12.3c11.9,19.4,25,37.8,42.2,53c4.5,4,10,5.6,15.6,6.7
		c6,1.1,8.2-1.3,7.7-7.4c-0.4-4.3,1.7-7.1,5.9-6.9c8.7,0.3,15.3-3.7,21.5-9c9.5-8,10.1-9.7,6.1-21.4c-1.2-3.7-2.3-7.3-0.7-11.2
		c3.3-7.8,7.8-15.4,6.7-24.4c-0.1-0.4,0.2-1.2,0.5-1.3c3.9-0.9,3.4-4.5,4.3-7.1c3.5-10.1,6.7-20.2,10-30.3
		c6.4-20.1,13.5-40.1,16.4-61.1c3.5-25.6,4-51.4,5.2-77.2c1.5-26.6,0.7-53.3-2.3-79.8c-0.8-6.4-1.9-12.7-2.8-19.1
		c-0.1-1-0.7-2.6,0.9-2.8c1.4-0.2,1.1,1.3,1.4,2.2c0.1,0.5,0.3,1,0.4,1.4c0.2,0.6,0.5,1.2,0.7,1.8c0.3-0.7,0.5-1.4,0.7-2.1
		c1.3-8.5,1-17,0.4-25.4c-1.8-25.7-3.7-51.5-5.8-77.2c-1.5-19-4.8-37.6-11.3-55.6c-0.8-2.2-1-5-4.5-5c-0.9,0-2.1-1.3-1.2-2.1
		c2.4-2.2,0.6-1.5-0.7-1.1c-3.5,1-7,2.3-10.5,3c-26.5,5.7-53.5,6.5-80.3,9c-14.6,1.4-29.2,2.8-43.7,4.3c-3.3,0.3-6,1-6.3,5.4
		c-0.8,9.8-2,19.5-3,29.3c-2.9,26.8-5.9,53.6-11.1,80.1c-1.5,7.7-5.1,14.1-12.5,17.6c-2.3,1.1-2.9,2.9-3.5,5.1
		c-2.1,8.1-5,15.9-8.6,23.4c-0.6,1.3-1,3.2-2.8,3.2c-2,0-2.4-2.1-3-3.6c-1.1-3.2-1.3-6.6-0.5-9.8c2-8.3,2.8-16.8,2.3-25.3
		c-0.4-5.3-0.1-10.7,0.9-15.9c3.9-19.9,10.2-39.3,14.9-59c3.3-13.2,5.7-26.7,7.3-40.2c0.2-2.1,1.8-6.2-3.2-5.2
		c-8,1.7-16,3.1-23.5,6.5c-3.7,1.7-7.3,3.7-9,7.6c-1.8,4.3-3.3,4-5.9,0.6c-6.7-8.3-15.2-14.3-24.1-20.1c-3.2-2.1-3.9-1-3.9,2.3
		c0,3.2-0.4,6.3-0.5,9.5c-1.2,28.6-2.3,57.2-3.6,85.9c-0.3,6.2,0.7,13.3-4.5,17.9c-8.8,7.8-10.5,17.6-10.4,28.5
		c0.1,7.2-0.3,14.3-2.8,21.2c-0.5,1.3-0.8,3-2.6,3.3c-2,0.3-3-1.1-4-2.5c-3-4-3.4-8.7-3-13.3c1.2-12.6,0-25.3-3.6-37.5
		c-2.4-8.4-3.4-17-1.7-25.7c6.3-31.1,12.6-62.3,19.1-93.4c1.6-7.8,1.7-7.9-5-12.2c-27.4-17.5-42.1-42.3-42.5-75.1
		c0-1.8,0.1-3.7,0-5.5c-0.1-1.1,0.9-2.6-0.2-3.2s-2,0.9-2.9,1.6c-7.8,5.7-15.5,11.6-23.4,17.1c-6.4,4.4-8.5,11.4-8.2,17.7
		c1.7,39.2-4.1,77-19.2,113.3c-7.7,18-13.3,36.9-16.7,56.2c-1.6,9.7-6.4,14-16.6,15.6c-2.2,0.4-2.5,0.9-1.2,2.7
		c5.5,7.7,6.8,16.4,6.8,25.6c0,5.5-1.5,11-1.2,16.3c1.1,19.6,2.9,39.2,4.5,58.8c2.2,28.2,4.5,56.4,6.7,84.6c0.7,9,1.2,17.9,1.7,26.9
		c0.1,2.1,0.4,3.6,2.7,1.4c6.3-6.1,12.4-12.1,14.3-21.2c0.7-2.4,1.7-4.7,3-6.8c1.7-3.2,4.1-3.4,7-1.3c5,3.7,7,9.2,8.9,14.7
		c1.3,3.3,0.7,7.1-1.6,9.8c-6.9,9.2-14.2,18.2-22.8,25.8c-10.6,9.5-18.6,21.5-23.2,35c-2.8,8-2.8,16.4-4.2,24.5
		C185.4,885.1,183.8,890.1,186.1,894.6z M520.9,916c-0.9,1.3-2.1,1.4-3.5,0.8c-3.2-1.4-6-3.6-8.2-6.4c-15.9-18.2-28.6-39-37.5-61.5
		c-0.1-0.3-0.3-0.6-0.4-0.9c-0.3-1.1-1-2.7,0.2-3.1c1.5-0.6,1.7,1.2,2.1,2.2c5.2,15.1,13.6,28.5,22.2,41.8
		c5.2,8,10.4,15.9,17.7,22.2c1.8,1.6,3.4,3.7,6.3,3.7c0.6-0.1,1.1,0.4,1.2,0.9C520.9,915.7,520.9,915.9,520.9,916z M558.9,640.2
		c0-1.1-0.6-3.2,1.2-3.1c1.7,0.1,1.1,2.1,1.1,3.3c0.1,1.7,0,3.3,0,4.2c-1.7,31.5-5.4,61.8-14.3,91.3c-5.7,18.8-17.8,33.3-30.8,47.2
		c-13.1,14-26.6,27.6-40.7,40.6c-0.6,0.6-1.2,1.2-1.8,1.7c-0.7,0.5-1.6,1.7-2.5,0.6c-0.9-1,0.3-1.8,0.9-2.5
		c5.8-5.5,11.7-10.9,17.4-16.5c13.9-13.9,27.8-27.7,40.1-43.1c12.6-15.8,17.4-34.5,21.4-53.7C555.5,687,558.2,663.6,558.9,640.2z
		 M410.8,851.7c0,1.1-0.9,1.4-1.7,1.5c-10.9,1.4-21.2,6.1-29.4,13.4c-0.7,0.6-1.7,1.4-2.5,0.3c-0.5-0.7,0.3-1.5,0.9-2.1
		c8.3-7.7,18.9-12.6,30.2-13.9C409.2,850.8,410.3,850.5,410.8,851.7z M325.3,884.2c7-1.7,13.7-4.1,20.1-7.3
		c11.7-5.8,21.4-14.1,29.7-24c9-10.3,19-19.7,29.9-27.9c1.2-0.9,2.5-3.3,4-1.5c1.1,1.4-1.2,2.4-2.3,3.2
		c-11.9,9.4-22.9,19.8-32.9,31.3c-11.7,13.4-27.1,23-44.3,27.6c-1.4,0.4-2.9,0.7-4,1c-1.2,0.1-2.2,0.4-2.3-0.7
		C323.1,884.6,324.5,884.4,325.3,884.2z"/>
	<path fill="#4E4C59" d="M189.6,851c4.2-11.4,11.1-21.7,20.1-30c9-8.2,17.1-17.3,24.2-27.2c1.2-1.6,2.6-3.1,2.1-5.4
		c-1.2-5.4-3-10.6-7-14.6c-2.3-2.3-4.3-2.3-5.8,0.9c-0.7,1.3-1.3,2.7-1.7,4.1c-1.8,7.9-6.3,14.1-12,19.7
		c-8.2,7.7-15.1,16.7-20.7,26.5c-3.1,5.6-5.6,11.3-5.7,18.9c-0.1,2.3,0.4,4.7,1.3,6.8c0.6,1.4,0.8,3.7,2.8,3.7
		C189,854.5,189.1,852.3,189.6,851z"/>
	<path fill="#8A7D7F" d="M554,37.9c-2.8-3.9-4.6-9.8-8.8-11c-4.2-1.3-7.7,3.6-10.8,6.9c-1.1,1.2-2,2.6-2.8,4.1c-1,1.9-2.7,4.3-1,6
		c2.3,2.2,5.7,3.1,8.1,5.6c4.4-4.4,10.3-5.8,15-9.3C554.4,39.7,554.5,38.7,554,37.9C554,38,554,37.9,554,37.9z"/>
	<path d="M186,599c0-1.3,0.1-2.6-0.9-3.6C185.3,596.7,185,598,186,599z"/>
	<path fill="#8A7D7F" d="M563.6,54.2c-5.1-0.6-10.2-1.3-14.9-1.9c-3.1,0.6-7-0.9-7.9,2.1c-1,3-2.8,7.4,2.5,9.6
		c2.1,0.9,3.9,2.5,5.8,3.8c13.3,8.9,14.7,8.3,17.8-7.8c0.1-0.3,0.1-0.7,0.1-1C567.5,56.2,566.7,54.5,563.6,54.2z"/>
	<path d="M521.9,44.2l-0.6-1.1C521.2,43.6,521,44.1,521.9,44.2z"/>
	<path fill="#8A7D7F" d="M554.9,139.1c1.1,2,2.6,4,5.1,2.6c2.4-1.3,5.9-1.9,5.9-5.8c-4.9-19.1-8.1-38.8-17.4-56.6
		c-2.7-5.4-6.1-10.3-10.1-14.8c-1-1-2.1-1.7-3.5-1.1c-1,0.4-1.8,1.2-1.3,2.3c1.5,3.3,0.9,7.3,3,10.4c8.2,12,11.9,25.5,13.8,39.6
		C551.5,123.7,550.9,131.9,554.9,139.1z"/>
	<path fill="#8A7D7F" d="M553,43.9c-2.7,1.2-5.3,2.6-7.9,4c-0.5,0.3-1.3,0.9-1.2,1.3c0.2,1.2,1.3,0.7,2,0.7
		c4.4,0.3,8.9,0.6,13.6,0.9c0.7-0.2,2.4,1.3,2.7-0.6C562.3,48.6,554.4,43.2,553,43.9z"/>
	<path fill="#FFA9C1" d="M515.9,43.8c-1.1,1.1,0.3,1.5,0.9,2.2c3.6,4.4,10.3,6.1,10.7,13.3c0.1,2.4,3.3,2.9,5.3,2.2
		c2.6-0.9,5.2-2.4,5.2-6c-0.6-3.6-2.6-6.5-6.1-7.7c-2.8-0.7-4.9-2.9-5.6-5.7c-0.4-1.1-1-2.1-1.8-3c-0.3-0.4-1.3-0.8-1.6-0.6
		c-0.8,0.4-0.3,1.2,0,1.7c0.9,1.6,1.9,3.1,2.7,4.7c0.8,1.4,1.1,2.9-0.4,4c-1.5,1-2.9,0.3-4-0.9c-1-1.1-1.8-2.4-2.8-3.4
		C517.8,44,516.8,42.9,515.9,43.8z"/>
	<path fill="#876971" d="M598.3,156.5c0-17-3.7-33.7-7.4-50.2c-3.6-16.1-8.9-31.4-18.9-44.7c-0.6-0.8-1-2.1-2.1-1.8
		c-0.6,0.2-0.9,1.6-1.2,2.5c-1,4.4-2.6,8.6-4.6,12.6c-1.5,2.9-3.2,3.9-6.3,1.7c-3.1-2.2-6.4-4.2-9.7-6.2c-0.6-0.3-1.1-0.5-1.7-0.7
		c0.1,0.6,0.3,1.2,0.5,1.8c2.4,3.8,4.8,7.6,7.5,11.2c16.6,22.2,23.5,47.1,21.1,74.6c2.2-7.6,1.6-15.1,0.8-22.7
		c-0.4-4.3-1-8.6-1.4-12.9c-0.1-0.8-0.2-1.8,0.8-2c1.1-0.2,1.3,0.8,1.4,1.6c0.2,1,0.2,2,0.4,3c1.4,5.9,0.3,12.4,3.8,17.9
		c0.7,1,0.6,2.7,2.3,2.9c0-1.1,0-2.3-0.1-3.4c-0.5-3.6-0.9-7.3-1.7-10.8c-2.8-12.6-3.1-25.9-11.5-36.7c-0.5-0.7-0.9-1.6,0-2.1
		c0.8-0.5,1.5,0.2,2.1,0.9c3.1,3.5,5.3,7.7,6.4,12.3c6.9,27.9,11.4,56,8,84.9c-0.1,0.6-0.1,1.2-0.1,1.8c0.4-0.5,0.7-1.1,1-1.7
		c0.4-0.9,0.4-2.2,1.7-2c1.2,0.1,1.1,1.2,0.8,2c-2.1,6,0.4,11.8,1,17.7c0.3,2.9-0.3,5.9,1,8.7c1.9-2.6,2.3-5.8,3.4-8.7
		c2.3-6.2,0-12.5,0.6-18.8C597.3,178.1,598.3,167.3,598.3,156.5z"/>
	<path fill="#8A7D7F" d="M540.4,156.9c3.5,2.1,4.9,1.5,5.4-2.5c1.2-8.5,2-17.1,2.2-25.7c-0.6-14.7-1.5-30.1-9.2-44.2
		c-0.6-1.1-1.9-3.2-2.1-3.1c-1.7,0.8-0.9,2.5-0.9,3.9c0,19.5-0.2,39-1.9,58.4C532.9,152.7,532.8,152.5,540.4,156.9z"/>
	<path d="M4.6,0H0v4.6C0,0.8,0.8,0,4.6,0z"/>
	<path d="M264.9,169.9v-0.2c0.9-0.7,1-1.8,0.9-2.8c-0.3,1-0.7,1.9-1,2.9C264.9,169.9,264.9,169.9,264.9,169.9z"/>
	<path fill="#876971" d="M552.7,331c-0.4,1.7-2.3,3.1-0.7,5.1c0.2,0.2,0.5,0.4,0.8,0.5c1.5-1.5,0.8-3.4,1.2-5.2
		c-0.1-1.2-0.1-2.3-0.2-3.5C553.4,328.9,552.9,329.9,552.7,331z"/>
	<path d="M237.2,388.1l-0.1,0.1c-1.8,1.8-2.9,4.2-3.1,6.8C236.3,393.2,236.6,390.6,237.2,388.1z"/>
	<path fill="#4E4C59" d="M443.9,887c-8.2-15.5-14.9-31.6-18.6-48.8c-0.2-0.9-0.2-3.1-2-1.3c-3.5,3.5-7.3,7-7,13.4
		c0,0.7,0.1,1.5,0.3,2.2c8.3,32.6,18.2,64.7,33,95c7.6,15.6,18.1,28.8,34.7,35.8c11.1,4.7,11.2,4.5,15.9-6.4
		c1.4-3.3,1.2-4.9-1.9-7.2c-22-16.5-37.8-38.2-51.5-61.7c-3.1-5.2-4.1-11.5-2.6-17.4C444.6,889.5,444.5,888.2,443.9,887z"/>
	<path fill="#4E4C59" d="M563.4,954.2c-1.3-0.4-1.5,1.5-2,2.4c-4.6,8.5-11.2,15.3-18.2,21.7c-11.7,10.6-24.3,20.3-37.5,29.1
		c-0.8,0.5-2.3,1.1-1.9,2s1.8,0.3,2.7,0c3.4-1.2,7.1-2,10.3-3.7c10.3-5.4,20.1-11.4,30.1-17.3c11.9-7,15.6-17.2,16.9-29.5
		c0-0.5,0-1,0-1.5C563.8,956.3,564.5,954.5,563.4,954.2z"/>
	<path fill="#876971" d="M311.5,291.1c-7.2,6.4-15.9,11.1-21.4,19.3c-3.5,5.2-3.7,10.1-0.2,15.2c5,7.3,9.6,14.8,14.9,21.9
		c4.8,6.3,10.3,12.1,16.4,17.1l0.1,0.1c-2.9-8.7-6.1-17.3-11.5-24.8c-0.6-0.8-2.1-2-0.8-3c1.7-1.3,2.2,0.8,2.9,1.7
		c4.1,5.9,7.4,12.3,9.7,19.1c0.2,0.5,0.7,0.8,1.1,1.2c0.1-0.5,0.1-1,0-1.5c-2.6-6.7-1.8-14-3.8-20.8c-3.2-11.2-1.1-23.2-5.9-34.1
		c-0.2-0.5-0.2-1-0.1-1.5c0.1-0.9-0.4-2.2,1-2.3c1-0.1,1.1,1,1.3,1.8c2.3,8,8.1,12.5,16.3,12.6c0.6,0,1.5,0.4,1.7-0.4
		c0.1-0.3-0.7-1-1.2-1.3c-7.3-5.2-13.5-11.4-17.8-19.3C313.6,291,312.9,289.9,311.5,291.1z"/>
	<path d="M471.1,412c-0.2,0.2-0.4,0.4-0.5,0.6C470.8,412.4,470.9,412.3,471.1,412C471.1,412.1,471.1,412.1,471.1,412L471.1,412z"/>
	<path d="M496.9,389.1l0.1,0.2L496.9,389.1c0.2-0.2,0.2-0.3,0.3-0.5C497.1,388.8,497,388.9,496.9,389.1z"/>
	<path fill="#FFFFFF" d="M404,1025c-0.5-1.5-1.1-2.8-3-2.8c-10,0-19.8-1.7-29.7-2.9c-3.3-0.4-4.6,0.6-3.8,4.1
		c4,16.9,8,33.9,11.8,50.9c0.6,2.8,2,3.7,4.8,3.6c5.1-0.2,10.3-0.1,15.5-0.1c5.3,0,10.6-0.1,16,0.1c3,0.1,3.9-1,3.1-3.8
		C414.2,1057.6,409.4,1041.2,404,1025z"/>
	<path d="M556.3,324c0,2.8,0.1,5.7,0.1,8.5c0.1,0,0.2,0,0.3,0C557,329.7,557.3,326.8,556.3,324z"/>
	<path fill="#FFEFE2" d="M545,998.3c0.1-1.4,1.3-3.3-0.4-4.1c-1.4-0.7-2.7,0.9-4,1.6c-6.4,3.5-12.7,7.2-19.2,10.6
		c-5.9,3.1-12,6-18.8,5.9c-2.8-0.1-5.6,0.7-8,2.2c-16.7,10-34.3,12.1-52.6,5.1c-3.9-1.4-8.1-1.8-12.2-1.1
		c-6.1,0.8-12.2,2.2-18.3,2.5c-5.5,0.2-5.3,2.3-4,6.5c4.7,15.2,9.3,30.5,13.6,45.9c1,3.7,2.7,4.6,6.2,4.5
		c16.8-0.2,33.7-0.1,50.5-0.1c17.3,0,34.7-0.1,52,0.1c3.2,0,4.2-0.9,4.4-4.1c0.8-11.1,2.5-22.1,4.4-33.1
		C540.9,1026.5,543.8,1012.5,545,998.3z"/>
	<path fill="#FFFFFF" d="M729,8.3c0-4.8-1.2-6-6-6C484.6,2.4,246.3,2.4,8,2.2C3.4,2.2,2.2,3.5,2.2,8c0.1,354.8,0.1,709.6,0,1064.4
		c0,4.4,1.1,5.6,5.5,5.5c28.2-0.2,56.3-0.1,84.5-0.1c59.5,0,119,0,178.5,0c6.5,0,6.6,0,3.5-6c-3.1-6.2-6.2-12.5-9.7-18.6
		c-16.2-28-30.3-57-40.6-87.8c-0.3-1.3-0.9-2.5-1.8-3.5c-10.1-9.7-14.7-22.4-19.5-35c-0.6-1.7-1.5-3.3-2.7-4.7
		c-5.1-6.6-9.2-13.9-13.5-21c-3.7-6.1-4.4-12.3-3.2-19.2c1.1-6.6,1.8-13.2,2.7-19.8c0.2-1.8,0.4-3.6-0.8-5.3
		c-6.1-8.5-5.3-17.6-1.6-26.6c3.4-8,8-15.4,13.6-22c1.8-2.1,2.7-4.9,2.5-7.7c-1.2-28.5-3.7-56.8-6-85.2c-2.5-31.7-5.1-63.4-7.9-95.1
		c-0.9-10.8-1.6-21.6-6-31.7c-1.5-3.9-4.3-7.2-7.9-9.2c-7.2-4-14.9-5.6-22.9-6.2c-22.6-1.6-45.2-2.8-67.3-8
		c-20.8-4.9-41.1-11.2-60.4-20.4c-11.1-5.3-16.1-14.3-16.3-26.4c-0.2-7.5,0.7-15,2.8-22.2c8.3-29,24.4-53.8,42.1-77.7
		c2.2-2.9,4-6.1,5.2-9.5c7.1-20.7,18.7-37.8,38.1-48.9c3.1-1.9,6.1-4,9-6.3c7.9-5.8,12.6-13.2,12.9-23.5c0.4-11.3,5.6-20.4,15-26.9
		c4.1-2.8,8.5-5.3,12.8-7.8c11.7-6.5,22.2-14.9,31.1-24.8c2.1-2.2,3.4-4.9,4-7.8c1-7.1,6-13.1,12.8-15.4c4.8-1.8,9.8-3.2,14.7-4.8
		c8.2-2.6,16.8-4.2,23.2-10.8c2.4-2.5,5.9-3.8,9.3-4.6c3.4-0.8,5.5-2.8,7.2-5.6c3.9-6.8,8-13.5,12-20.2c1-1.4,1.5-3,1.4-4.7
		c-1.2-14.5,2.5-28,8.1-41.2c2.2-5.2,4-10.5,5.3-16c9.8-40,27.4-75.1,62.2-99.7c27.6-19.5,59-25,91.6-25.7
		c8.9-0.2,17.9,1.4,26.8,2.6c21.3,2.9,41.2,9.5,57.9,23.7c0.9,0.7,1.8,2.1,3,1.3c3-2.1,5.3,0.1,7.8,0.9c-0.2-0.4-0.3-0.8-0.5-1.3
		c-0.8-2.2-3.2-4.7-0.6-6.8c2.8-2.2,4.5,0.8,6.1,2.5c2.1,2.3,2.7,0.3,3.5-1c2.8-4.8,6.8-8.7,11.7-11.3c1.8-1,4.1-2.1,5.6-0.5
		c4.1,4.3,8.2,8.9,10.1,14.6c0.6,2.3,1.8,4.4,3.5,6c12.1,10.9,21.4,24.7,26.9,40.1c3.9,10.6,6.2,21.7,8.5,32.8
		c3.6,17.7,6.3,35.4,4.4,53.5c-1.1,10.8-2.1,21.5-0.9,32.4c1.2,11,0.6,22.4,7.7,32c0.6,0.8,0.7,1.6-0.2,2.1
		c-0.4,0.2-1.3-0.2-1.7-0.6c-1.8-1.9-3.2-4.3-4.1-6.8c-1.8-4.7-2.3-9.7-3.1-14.6c-0.1-0.9,0.5-2.2-0.8-2.5c-0.4-0.1-1.1,1.4-1.5,2.3
		c-2.9,6.5-6.6,12.7-8.2,19.7c-0.4,1.8-1.4,3.4-2.7,4.7c-0.6,0.6-1.3,1.3-2.1,0.7c-0.9-0.6-0.3-1.4,0.1-2.1
		c6.2-10.7,7.7-22.2,5.4-34.2c-0.2-1,0.5-2.8-0.8-2.9c-1.1,0-1,1.9-1.4,2.9c-2,6.3-5.2,11.6-11.7,14c-1.4,0.5-3.2,2.6-4.2,0.5
		c-0.8-1.5,1.7-2,2.9-2.6c4.6-2,7-5.4,8.3-10.4c2.5-10.3,4-20.9,4.3-31.6c0.3-9.1,0.5-18.4-4.2-26.7c-0.4-0.7-0.4-1.9-1.4-1.8
		c-1.1,0.2-0.5,1.3-0.6,2.1c-0.4,3.6-0.4,7.3-1.1,10.9c-2.1,10.6-5.9,20.4-13.7,28.3c-0.9,0.9-2,2.6-3.2,1.5c-1.5-1.4,0.5-2.2,1.4-3
		c5.1-4.7,8.4-11,9.3-17.8c2.6-19,2.3-37.9-4.3-56.1c-2.5-6.9-5.4-13.8-10.7-19.3l-0.1-0.1c4.6,12.4,7.3,25.2,10.3,38
		c2.4,10.3,2.6,9.4-8.2,14.4c-0.5,0.2-1,0.3-1.5,0.3c-2.3,0.3-2.6,1.6-2,3.6c4.3,14.9,3,30,2.2,45.1c-0.8,15.6-2.7,31.1-4.6,46.6
		c-1.1,9.4-0.9,19-4.4,28c-1.8,4.8-1.7,9.4-1,14.2c1.6,11.3,5.5,21.9,9,32.6c3,9,4.7,18.2-0.7,27c-0.9,1.5-0.2,2.6,0.3,3.7
		c2.9,7.3,3.9,15.3,2.9,23.1c-0.2,2.6,0.5,5.3,2,7.5c4,6.3,8.1,12.6,11.8,19.1c7.3,12.5,10.1,25.6,4.7,39.7c-0.3,0.9-1,1.6,0,2.6
		c2,1.9,2,2.1-0.4,3.4c-3.5,1.8-4.9,4-3.2,8c9.3,22.8,12.3,46.9,14,71.2c1.3,17.4,2.5,34.9,3.7,52.3c1.1,16.6,3.2,33.2-1.2,49.7
		c-0.2,1.3-0.2,2.6,0.1,3.9c1.7,13.1,2.6,26.2,3.1,39.3c1,27.3-0.9,54.6-2,81.9c-1.1,30.4-5.8,60.2-15.8,89.1
		c-5.8,16.7-10.9,33.5-16.5,50.2c-1,2.8-0.9,5.8,0.2,8.6c4.6,12.7,8.6,25.8,7.2,39.5c-0.9,8.7-0.4,17.3-0.9,25.9
		c-0.5,8.5-2.6,17.2-9.3,22.5c-7.5,5.9-9.3,13-10.3,21.7c-2.5,22.1-7.8,43.9-10,66.1c-0.6,6.5-0.8,6.4,5.5,6.4
		c60.2,0,120.3-0.1,180.5,0.1c5,0,6.3-1.2,6.3-6.3C728.8,717.2,728.8,362.7,729,8.3z"/>
	<path fill="#4E4C59" d="M213.1,944.9c2.5,4.9,4.5,10.3,9.3,13.4c19.6,12.7,39.2,25.3,60.2,35.5c9.2,4.6,18.8,8.5,28.6,11.8
		c10,3.3,20.2,5.4,30.5,7.5c9.7,2,19.7,1.8,29.5,3.6c11.8,2.2,23.8,4.1,35.9,2.4l0,0c6.6-0.9,13.2-1.7,19.8-2.7
		c0.8-0.1,2.2,0.1,2.3-1.1c0-0.3-1.2-0.9-1.9-1.2c-6.4-2.8-13-5.1-19.8-6.8c-14.4-3.6-29.2-4.8-43.5-8.7c-25.9-7-50.7-17.2-76-25.8
		c-28.5-9.7-56.1-21.1-79.2-41.2c-0.4-0.4-0.9-1.3-1.5-0.7c-0.3,0.3-0.1,1.3,0.2,1.8C209.2,936.8,211,940.9,213.1,944.9z"/>
	<path d="M726.6,0c3.7,0,4.6,0.8,4.6,4.6V0H726.6z"/>
	<polygon points="323.7,363.2 323.6,362.9 323.5,363.2 	"/>
	<path fill="#FFEFE2" d="M262.9,1045.1c0.5,0.9,1,1.7,1.6,2.5c15.6,17,35,25.4,58.1,25.5c4.5-0.4,9-0.6,13.4-1.2
		c10.1-1.4,20.1-3.2,28.9-8.8c5.8-3.7,7.4-7.7,5.9-14.4c-1.9-8.8-4.1-17.5-6-26.3c-0.6-2.9-2-4-5-4.3c-31.6-2.9-62.2-12.4-90-27.8
		c-13.1-7.2-25.8-15.3-38.7-22.9c-1.2-0.7-2.8-2.4-3.9-1.5c-1.1,0.9,0.2,2.7,0.7,4.1C237.4,996,249.1,1021.1,262.9,1045.1z"/>
	<path d="M269.1,1056L269.1,1056L269.1,1056L269.1,1056L269.1,1056z"/>
	<path fill="#876971" d="M336.1,391.1c0.2,0,0.4-1.4,0.5-1.6c-0.6-11.5-5.5-21-10-30.7c-0.1-0.3-0.7-0.4-1-0.6
		c-0.1,0.3-0.1,0.6-0.1,1c0.9,4.9,0.5,10.5,2.9,14.4c2.9,4.8,5.2,10,6.6,15.4C335.2,389.7,334.6,391.1,336.1,391.1z"/>
	<path fill="#FFEFE2" d="M434.8,197.3c-1.6-0.1-1.6-1.4-1.8-2.6c-0.4-2.3-0.7-4.6-1.1-6.9c-0.1-0.4-0.3-0.8-0.6-1.2
		c-0.2,0.4-0.6,0.8-0.6,1.2c0.2,4.3,0.3,8.7,0.8,12.9c0.2,1.8,2.2,1.9,3.6,2c6.7,0.4,12.4,3.2,17.6,7.1c-2-10.1-3.8-20.3-6.1-30.4
		c-1.9-8.3-2.6-16.9-5.8-24.9c0-0.1,0-0.1,0-0.2v0.1c0.1,6,0.4,12,0.4,18c-0.1,7.8-0.4,15.7-4.5,22.7
		C436.2,196.1,436,197.3,434.8,197.3z"/>
	<path fill="#60454E" d="M430.4,240.7c1.9-0.2,3.4-0.5,3.5-3.1c0.1-2.8-1.8-3.4-3.7-3.7c-3-0.4-1.4,2.2-2,3.3
		C428.3,238.9,427.7,241,430.4,240.7z"/>
	<path fill="#694C4D" d="M437.4,234.5c-2.3,3.3-1.5,6.3,1.4,8.8c3.3,2.6,7.9,2.4,10.9-0.5c0.6-0.6,1.4-1.2,1.1-2.1
		c-0.3-0.8-1.1-0.5-1.7-0.4c-2.9,0.2-4.6-1.2-4.6-4s1.9-4.1,4.6-4.1l0,0h0.3l-0.3-0.1C445.1,229.8,440.1,230.8,437.4,234.5z"/>
	<path fill="#53515E" d="M338.1,378.4c0.4-0.1,0.6-1,0.9-1.6c1.9-4.4,3.6-9,5.7-13.3c3.2-6.6,7.3-8.3,14.5-6.4
		c1.8,0.5,3.4,1.4,5.2,1.6c3.7,0.4,4.3,2.8,3.8,5.7c-0.5,2.9-1.4,5.8-2.1,8.7v0.2V373c7.8-9.5,4.8-20.1,3.5-30.6
		c-0.8-6.9-6.8-8.4-11.4-11.4c-0.6-0.4-1.9-0.6-1.2-1.6c0.5-0.8,1.5-0.1,2.2,0.3c2.2,1.2,4.3,2.5,6.5,3.7c0.4,0.2,0.9,0.3,1.3,0.3
		c-0.3-0.4-0.4-0.9-0.8-1.1c-10.5-6.2-19.7-14.7-32.5-16.5c-3.6-0.3-7.2-1.1-10.7-2.4c-5.1-2.1-5.3-1.8-4.8,3.7
		c0.4,4.8,4.7,8,4.8,13.1c0,2.7,1.2,5.5,2.2,8.1c3.5,9.6,9.9,13.9,20.1,14c1.8,0,3.7,0,5.5,0.1c0.9,0,2.3-0.2,2.1,1.3
		c-0.1,1-1.2,0.9-2,1.1c-12,2.2-20.3-1.7-26.9-12.6c-0.4-0.6-0.5-2-1.4-1.6s0,1.5,0.2,2.2c3.4,11.9,10.3,22.3,14,34.1
		C337.2,377.7,337.2,378.7,338.1,378.4z"/>
	<path fill="#442C35" d="M422.7,205.9c0,1,1.2,0.8,2,1c0.9,0.3,1.9,0.5,2.9,0.6c12.2-0.6,21.6,5.4,30.5,12.6l-0.2,0.4l0.2-0.3
		c-6.8-11.7-20.3-17.8-33.5-15.1C423.9,205.2,422.7,204.9,422.7,205.9z"/>
	<path fill="#60454E" d="M446.8,235.9c-0.2,0.8,0.2,1.7,1,1.9c0.2,0,0.3,0.1,0.5,0.1c0.8,0.2,1.6-0.3,1.8-1.2v-0.1
		c0.1-1.1-0.7-1.7-1.6-2.1C447.7,234.5,446.9,235.1,446.8,235.9z"/>
	<path fill="#C2AFA3" d="M455,248.4c-1.7-0.9-2.3-4.3-5.1-2.7c-5,2.8-9.5,1.9-13.8-1.6c-1.9-1.6-4.5-1.3-6.7-0.4
		c-1.8,0.8-1.7,2.6-1.6,4.4c0.2,2,0.6,3.9,1.2,5.8c1.3,3.5,7.5,6.4,9.3,4.2c3.4-4.5,7.1-3.8,11.5-2.5c2.9,0.8,3.8-2.1,5.2-3.8
		C455.6,250.7,456.7,249.3,455,248.4z"/>
	<path fill="#FFFFFD" d="M444.1,256.2c-2,0.2-3.7,1.5-4.4,3.4c-0.9,2.2,0.6,3.3,2.1,4.5c4.1,3.3,8.2,3.3,12.3-0.1
		C453.1,258.9,449,255.7,444.1,256.2z"/>
	<path fill="#60454E" d="M456.9,243.5c0-1-0.7-1.8-1.7-1.9h-0.1c-1.1,0.3-1,1.1-0.9,1.9c0.1,1,0.7,1.9,1.8,1.9
		C457.2,245.3,457,244.2,456.9,243.5z"/>
	<path d="M470,301.3c-0.2,0.2-0.3,0.5-0.3,0.8c0.1,0.2,0.5,0.3,0.7,0.5c0.1-0.3,0.4-0.5,0.4-0.8C470.8,301.1,470.5,300.8,470,301.3z
		"/>
	<path fill="#FFEFE2" d="M445.3,322c0.5-3.1,0.5-4.1-2.9-2.7c-17,6.9-34.8,11.4-52.3,16.5c-5.4,1.6-10.7,3.8-16.5,2
		c-2.6-0.8-2,1.2-1.8,2.7c0.9,5.9,1.7,11.8,2.4,16.6c-0.3,8.3-3.5,14.3-7.5,19.9c-0.6,0.8-1.3,1.7-2.4,1.4c-1.5-0.4-1.3-1.7-1.4-2.9
		c-0.1-3.5,1.6-6.4,2.6-9.6c0.8-2.5,0.4-4.2-2.4-4.9c-2.9-0.8-5.6-2-8.7-1.9s-5.3,1.2-6.8,4.1c-2.7,5.4-5.3,10.7-6.8,16.6
		c-2.4,9.1-1.3,17.1,6.5,23.4c4.6,3.8,8.9,8,13.3,12.1c1.7,1.8,3.4,3.7,4.8,5.7c0.4,0.6,1,1.5,0,2.2c-1,0.6-1.5-0.3-2-0.9
		c-4.9-6.7-11.9-11.2-17.6-16.9c-1.4-1.4-2.3-3.6-4.6-4.1c-0.1,2.1,0.3,4.3,0.9,6.3c4.1,14.4,10.6,28,15.9,42
		c4,10.6,5.1,10.6,14.8,4.6c23.1-14.4,43.3-32.1,62.1-51.6c4.7-4.9,10.1-9.2,15.4-13.5c1.8-1.5,4.8-3.7,2.9-6
		c-2.1-2.5-4.7-5.6-8.2-6c-3.8-0.5-4.7-2.5-4.9-5.6c-0.1-3-0.2-6-0.1-9C440.2,348.8,443.2,335.5,445.3,322z"/>
	<path d="M347.1,239.1c-0.2-0.1-0.3-0.1-0.5-0.2C346.8,239,346.9,239.1,347.1,239.1C347.1,239.2,347.1,239.2,347.1,239.1
		L347.1,239.1z"/>
	<path fill="#60454E" d="M430.4,229c0,2.1,1.6,3.2,3.6,3.2c2.6,0,5.6-1.3,5.8-3.4c0.2-2.2-3.1-2-5.2-2.5
		C432.9,226.6,430.5,226.1,430.4,229z"/>
	<path fill="#442C35" d="M417.3,212.3c0.1,2,2.4,0.7,3.6,0.6c12.7-0.5,25.3,3.3,35.5,10.9c1.1,0.8,2.1,2.1,3.7,2.1
		c-2.9-5.1-8.1-7.4-12.6-10.7c-7.9-5.7-17.2-5.5-26.3-6.2C419.2,208.9,417.3,210.8,417.3,212.3z"/>
	<path fill="#60454E" d="M452.6,226.5c0.9-0.8,0.2-1.5-0.5-2c-4.4-2.7-8.9-5.1-13.9-5.6c-1.1,0.1-1.9,0.2-2.7,0.4
		c-1.7,0.4-3.3,1.5-3.3,3.2c0.1,2.4,2.3,1.1,3.5,1.3c2.5,0.4,5,1,6.8,2.7c1.9,1.8,4.3,1.5,6.4,2.3
		C451.1,229.8,451.5,227.5,452.6,226.5z"/>
	<path fill="#FFFFFD" d="M460.9,236c0-3.8-2.9-7.8-5.7-7.6c-2.7,0.2-2.8,2.3-2.9,3.9c-0.1,4.1,3,7.6,6.2,7.5
		C461.3,239.8,460.9,237.7,460.9,236z"/>
</g>
</svg>
