<?xml version="1.0" encoding="utf-8"?>
<!-- Generator: Adobe Illustrator 24.1.0, SVG Export Plug-In . SVG Version: 6.00 Build 0)  -->
<svg version="1.1" baseProfile="tiny" id="图层_1"
	 xmlns="http://www.w3.org/2000/svg" xmlns:xlink="http://www.w3.org/1999/xlink" x="0px" y="0px" viewBox="0 0 1024 1024"
	 xml:space="preserve">
<g id="图层_1_x5F_复制">
	<path d="M913,1025c-1-22.6-1.8-45.2-4.8-67.7c-0.2-2.2-0.3-4.3-0.3-6.5c-0.1-4.8-1.1-8.5-5.3-12.1c-5.6-4.8-8.5-12.2-12.5-18.5
		c-20-31.9-40-63.8-59.8-95.8c-10.7-17.3-21.5-34.5-33.1-51.2c-5.4-7.7-10.8-15.6-17.9-22c-12.7-11.5-28.2-15-44.5-17.1
		c-2-0.3-4-0.1-6-0.5c-2.7-0.6-4.1,0.5-5.1,2.8c-1.3,3.1-3.2,5.9-5.7,8.1c-4.2,3.9-7.5,3-8.9-2.6c-0.6-1.9-1-3.9-1-5.9
		c0.3-3.8-2-4.6-4.9-4.7c-5.2-0.2-10.3-0.1-15.5-0.2c-2.5-0.1-3.8,1.5-5.1,3.4c-12.3,18.9-27.5,35.7-45.2,49.7
		c-4.1,3.2-8.5,5.8-13.7,6.8c-5.9,1.1-9-1.4-9-7.4c0-4.7,1.3-9.2,2.4-13.8c2-9.1,4.2-18.2,6.2-27.3c0.4-2,1.6-5.3-0.5-5.9
		s-4.7,1.3-6.1,4c-10.6,21.1-27.4,36.3-47.3,48.1c-4.4,2.7-9.2,3.8-8.1,10.4c0.2,1.1-1.2,1.9-2.1,2.7c-11.7,11-25.1,20-39.6,26.6
		c-3.4,1.5-7.2,5-10.6-0.8c-1.3-2.2-7.9,1.1-8.7,4.7c-0.4,1.8-0.9,3.3-2.4,4.1c-4.5,2.4-5.7,6.2-6.2,11
		c-5,40.5-13.8,80.4-26.2,119.3c-6.2,19.7-13,39.2-20.6,58.4h-2c2-7.8,5.5-15,8.2-22.5c12.1-34.4,22.9-69.2,30.1-105
		c3.4-16.6,5.9-33.4,8.3-50.2c0.3-1.8,1-4.4-1.9-4.8c-2.7-0.4-4.4,1.1-4.7,4c-0.1,1-0.5,1.9-0.7,2.9c-7.2,37.3-17.6,73.8-31.1,109.3
		c-8.8,22.6-18.8,44.8-30.1,66.3h-2c1.1-2.6,2.2-5.2,3.5-7.7c7.8-15.5,15.2-31.1,21.9-47.1c10.2-25.2,18.8-50.9,25.7-77.2
		c4-14.8,7.6-29.7,10.5-44.7c0.7-3.5-0.2-4.4-3.7-4.2c-4.8,0.3-10,1.1-14.4-0.2c-7.1-2-11.7,1.5-16.8,4.8c-0.7,0.5-1.4,0.9-2.1,1.4
		c-7.3,5-7.3,5-3.5,12.7c4.4,9,1.8,13.7-8.3,14.2c-6.7,0.2-13.3,0.1-20-0.3c-2.4-0.1-4.2,0.2-5.7,2.1c-10.2,13.8-19.2,28.1-18,46.4
		c0.3,4.5-0.1,9,0.1,13.5c0.8,13,3,25.8,6.8,38.2c0.3,0.9,0.3,2.4,1.5,2.3s1.1-1.5,1.4-2.4c1.9-5.6,2.4-11.4,3.2-17.1
		c0.2-1.2-0.5-3.3,1.3-3.2c1.5,0.1,0.8,2.2,0.9,3.4c0,0.7-0.1,1.3-0.2,2c-3.1,22.1-11.9,42.5-19.9,63.1h-2
		c4.2-11.6,8.4-23.2,12.7-34.7c1.4-3.6,1-7-0.2-10.7c-5.9-17.9-8.6-36.8-7.7-55.6c0.2-5.4,0.8-10.7-4.5-14.9
		c-3.6-2.9-2.1-7.8-0.8-11.8c2.3-7.6,6.4-14.3,11.1-20.6c3-4,2.7-6.2-1.4-9.2c-10.8-7.7-18.6-18-25.3-29.3c-1.9-3.2-3.4-6.5-5.2-9.7
		c-0.8-1.5-1-4.2-3.4-3.6c-1.9,0.5-1.1,2.9-1.1,4.5c-0.1,7,0,14,0,21c0,5.8,0,11.7-0.1,17.5c0.1,1.7,0,3.3-0.2,5
		c-0.6,3.6-2.4,6.7-6,8.1s-6-0.9-8.5-3c-8.5-7.2-11.3-17-12.5-27.5c-2.4-21-0.5-41.9,2.1-62.7c2.7-22,4.2-44,6.2-66.1
		c2.6-27.7,3.7-55.5,3.4-83.3c-0.5-33.4-2.2-66.9-11.5-99.4c-1.1-3.8-2.8-5.9-6.7-6.9c-10.1-2.7-19.9-6.8-28.9-12.2
		c-1.2-0.7-2.7-2.2-4-0.7s0.5,2.7,1.3,3.8c4.9,7.1,9.7,14.3,13.9,21.9c2.2,4,2.5,7.7-0.6,11s-7.3,2.4-10.7,0.7
		c-8-4-16-8.2-23.7-12.8c-10.2-6-20-12.6-29.3-19.9c-7.2-5.7-14-12-20.4-18.7c-8.3-8.8-15.2-18.8-20.5-29.7
		c-5.5-11.5-9.4-23.5-9.6-36.4c-0.2-11.2,0-22.3,2.5-33.3c1.3-5.5,4.1-10.5,6.9-15.4c5.4-9.4,11.4-18.4,17.5-27.3
		c8.7-12.6,18.6-24.2,28.1-36.1c4.5-5.6,9.5-10.7,14.1-16.3c1.9-1.9,2.4-4.8,1.4-7.2c-4.6-13.9-9.1-27.8-13.5-41.8
		c-1.5-4.7-0.7-9.6-0.8-14.4c-0.4-18.7,4.9-35.7,13.5-52.2c14.5-27.6,34.6-50.9,56.3-72.8c6.6-6.7,13.2-13.9,20.7-19.4
		c8.7-6.4,17.8-12.3,27.3-17.5c11-6.2,21.9-12.8,33.4-18.1c9.6-4.4,19.9-7.5,30-10.7c16.5-5.1,33.6-7.8,50.8-9.9
		c8.9-1.1,17.8-2.3,26.9-2c2.3,0.1,3.3-0.8,3.2-3.3c-0.4-9.8,0.4-19.6-4.7-28.7c-2-3.5-1.5-8.2-3.3-12h5c2.4,13.2,6.1,26.3,5.6,39.9
		c-0.1,3.4,1.7,4.1,4.7,4c28.4-0.9,56,3.5,83.3,10.8c42.2,11.2,79.6,31.1,111.1,61.5c14.7,14.1,27.5,30,38.2,47.3
		c1.2,2,2.2,4.3,4.7,5c11.6,3.5,23,7.9,34,13.1c2.5,1.2,3-0.3,2.5-2.4c-0.4-1.6-1-3.2-1.5-4.8c-3.7-11.8-11.8-20.7-19.7-29.8
		c-2.4-2.7-2.5-4.4-0.2-7.1c8.3-10,16.2-20.3,25.6-29.3c6.8-6.6,13.5-13.4,20.5-19.7c2.4-2.2,1.6-2.8-0.4-4.2
		c-8.4-5.8-17.2-10.8-26.4-15.2C776,64.8,765,61.6,753.8,59c-1.2-0.3-3-0.1-3.1-1.9c0-1.4,1.7-1.4,2.7-1.8c4.8-1.9,9.7-3.5,15-3.5
		c2.9,0,3.1-1.2,1.5-3.3c-2.3-2.9-5.3-5.1-8.7-6.4c-7.2-2.8-14.5-3.1-22.1-2.2c-5.5,0.7-5.9-0.5-5.2-5.9c1.2-11.4,6-22,9.1-33h3
		c-2.9,9.4-7.6,18.1-8.9,28c-0.8,6,0,7.2,6.2,6.9c6.7-0.2,13.3,1.1,19.4,3.9c4.1,1.9,7.5,5,9.7,9c2,3.4,1,4.8-2.8,5.2
		c-2.5,0.3-6.5-1.1-6.8,2.3c-0.3,3.8,4,2,6.2,3c2.6,1.1,5.3,2.1,7.8,3.4c12.7,6.6,25.7,12.7,37.4,21.1c5.4,3.8,5.4,3.9,0.1,7.8
		c-12.3,8.9-21.3,21-31.2,32.2c-3.4,3.9-6.9,7.7-10.3,11.6c-5.2,6-5.3,7.2-0.4,13.6c4.8,6.2,10.1,11.9,13.7,19
		c2.1,4.2,3.4,8.7,3.8,13.4c0.5,5.1-0.5,5.7-5.1,3.6c-6.1-2.7-12.2-5.4-18.3-8c-1.4-0.6-2.8-1.1-4.2-1.5c-2.4-0.5-5.5-1.4-7.1,0.6
		c-1.3,1.6,1.5,3.3,2.4,4.9c13.9,24.6,28.1,49.2,38.1,75.8c7.7,20.3,13.8,41,14.3,63c0.2,9.2-0.9,18.8-4.1,26.9
		c-4.6,11.6-11.2,22.8-22.1,30.2c-4,2.8-4.9,5.8-4.2,10.5c3.5,21.9,3.8,44.1,0.9,66.1c-5.1,37.8-20,71-43.3,100.8
		c-1.9,2.5-3.6,5.2-5.3,7.8c-1.9,2.9,0.6,3.2,2.2,3.4c4.5,0.5,8.8,1.1,12.8,3.7c2.1,1.3,4.7,1.9,5,5c0.1,1.2,1.3,1.2,2.3,1.6
		c8.9,2.8,9.3,3.4,7.2,12.3c-4.4,18.6-6.9,37.4-6.1,56.4c0.4,10.5,2,20.8,3.1,31.3c0.2,1.9,1,3.1,3.4,3.5c5.8,1,11.5,2.3,17.2,4
		c8.8,2.5,17,7,23.9,13c1.1,1,2.7,1.2,3.9,2.1c6.3,4.6,12,10,17,15.9c3.9,4.8,9,8.8,12.5,14.1c6.6,9.8,14.8,18.5,19.5,29.6
		c1.7,3.9,4.5,7.2,6.8,10.9c3.7,5.7,6.8,11.8,9.4,18.1c1.5,3.8,4.1,7.6,5.9,11.5c4.3,9.6,7.8,19.5,12.2,29c2.8,6.2,6.7,11.8,10,17.8
		c5.5,10,13,18.7,19.7,27.8c8,11,16.4,21.8,26,31.7c3.3,3.5,6.5,7.2,10.1,10.4c7.9,7.1,13.8,16.3,23.2,21.9c1.6,1,2.1,3.2,3.7,4.6
		c8.7,7.9,17.4,15.7,25.6,24.1c3.3,3.6,7.1,6.8,11.2,9.4c1.7,1,3.2,2.6,5.5,1.5v7c-1.2-0.6-2.3-1.2-3.4-2
		c-10.2-8.8-20.6-17.4-30.5-26.5c-20.5-18.3-39.6-38.1-57.4-59.1c-18.6-22.3-36.6-45.2-48.5-71.8c-9.4-21-18.3-42.1-30-62
		c-13.2-22.5-28.3-43.4-48.9-60c-21.4-17.2-45.6-23.1-72.5-20.3c-2.2,0.2-5.4-0.1-5,4c0.3,3.4,0.1,6.9,5,6.9c1.7,0,3.3,0.4,4.9,0.6
		c14.2,1.2,27.9,5.4,40.3,12.4c20.4,11.6,33.6,29.4,44.5,49.9c26.3,49.2,53.6,97.9,80.5,146.7c0.5,1.2,1.4,2.3,2.6,2.9
		c7.7,3.4,13.3,9.3,18.9,15.2c19.3,20.3,37.5,41.5,55,63.3c5.9,7.4,12.3,13.1,21.7,15.6c8.4,2.2,15.8,6.9,22.8,12.1v2
		c-10.9-6.8-22.3-12.6-34.8-16.1c-1.4-0.5-2.6-1.5-3.5-2.8c-6.7-8.1-13.2-16.3-20-24.3c-16.1-18.9-31.6-38.2-49.8-55.2
		c-2.4-2.3-5-4.4-7.8-6.2c-2.1-1.4-3.9-1.4-3.5,2c1,8.4,2.1,16.8,3,25.3c0.2,2.9,2,5.4,4.5,6.7c11,6.4,20.5,14.8,29.5,23.7
		c12.6,12.4,24.4,25.5,35.4,39.3c2.3,2.8,5.4,4.9,8.9,5.8c8.7,2.8,17.4,5.9,23.9,12.8h-3c-6.6-5.6-14.5-8.6-22.7-11.1
		c-2.6-0.8-5.1-1.6-6.8-3.8c-8.7-11-18.1-21.7-27.7-32c-11.3-12.2-23.7-23.3-37.8-32.3c-0.9-0.6-1.9-1.8-3-1
		c-0.5,0.3-0.2,1.8-0.1,2.8c0.9,10.2,2.1,20.5,2.8,30.8c1,15.6,1.5,31.2,2.3,46.8L913,1025z M677.4,392c7.8,0.4,18.7-1.3,29.3-4.1
		c15.6-4.1,28.5-12,35.5-27.4c2.8-6,2.6-6.6-3.8-6.5c-7.8,0.1-15.6-1-23.4-1.7c-15.5-1.4-28.9-8.6-42.4-15.3c-1-0.5-2.6-1.3-2-2.5
		c0.8-1.4,2,0.2,3,0.6c2.7,1.1,5.2,2.1,8,0.2c13-8.7,24.8-18.6,33.6-31.6c0.9-1.3,2.7-2.6,1.4-4.4s-3.2-1.4-5-0.6
		c-8.7,3.6-17.9,5.2-27.1,6.6c-17.2,2.8-34.6,4.6-52.1,5.6l-20.9,1.3c-1,0.1-2.3,0.5-2.6-0.7c-0.3-1.7,1.3-1.5,2.4-1.7
		c1.3-0.2,2.7-0.1,4-0.2c7-0.4,14-0.8,20.9-1.3c3.6-0.3,4.3-1.8,1.8-4.7c-6.2-6.9-13.1-13.3-20.4-19.1c-15.6-12.2-32-23.4-48.6-34.1
		c-1-0.6-3-1.2-1.9-2.8c0.7-1,2.1,0.3,3,0.9c17.3,11.5,34.7,23,51,36.1c6.5,5.2,13.3,10.3,17.9,17.3c3.6,5.4,7.9,6.2,13.6,5.4
		c9.5-1.4,19.2-2.4,28.7-3.8c9.6-1.3,19-3.5,28.2-6.5c2.7-0.9,3.1-2.2,1-4.2c-0.9-0.8-1.6-1.7-2.5-2.4
		c-28.3-24.6-59.9-45.2-93.8-61.2c-32.6-15.5-66.6-27.1-101.2-37c-26.4-7.5-52.9-13.4-80.7-11.5c-5.3,0.4-10.7,0.5-15.8,2.2
		c-25.9,8.5-49.1,22.2-70.7,38.6c-21.1,16-39.3,34.9-56.3,55.1c-25.5,30.3-51.5,60.1-75.2,92c-16,21.5-24.2,44.6-22.9,71
		c1.1,21.8,9.9,40.9,23.8,57.6c17.6,21.3,40,36.5,63.7,50c5.1,2.9,10.3,5.4,15.6,7.8c2.4,1.1,5.4,1.3,7.4-1.2s1.5-4.7,0.1-7.4
		c-6.2-12.5-14.2-23.6-23.1-34.2c-3.8-4.8-8.1-9.3-12.8-13.3c-0.8-0.6-2.1-1.9-1.1-2.9c0.8-0.8,1.7,0.6,2.3,1.3
		c4.6,4.6,9.5,8.8,14.8,12.6c19.5,14.5,40.8,23.8,65.8,21.7c6.7-0.6,9.3-4.6,6.5-10.5c-2.3-4.8-4.7-9.5-7.1-14.3
		c-0.7-1.4-1.4-2.7-3.3-2.5c-2.5,0.2-3-0.5-0.9-2.3c1.2-1,0.7-2.1,0-3.1c-1.8-2.6-2-6.6-6.1-7.3c-0.7-0.1-1.5-0.9-0.8-1.4
		c3.5-2.5,0.1-4.5-0.7-6.3c-2.2-5.2-4.9-10.2-7.4-15.3c-6.3-12.7-11.8-25.8-19.2-37.8c-7.5-12.2-14.9-24.5-21.4-37.2
		c-0.9-1.8-3.2-5-1.6-5.5c2.5-0.8,2.7,3,3.7,4.9c12.7,25.5,27.5,49.5,49.6,68.2c8.5,7.2,18.2,13,28.6,17.1c1,0.4,2.3,1.2,3.3,0.3
		c1.2-1,0.7-2.5,0.2-3.7c-1.5-4-3.4-7.3-7.8-9.1c-5.8-2.6-11.4-5.6-16.8-8.8c-3.3-1.9-6.4-4.2-9.6-6.3c-0.6-0.4-1.5-1.1-1-2
		s1.5-0.5,2.3-0.2c1.4,0.5,2.8,1.1,4.2,1.6c6,2.1,11.9,4.2,17.9,6.4c4.2,1.5,4.7-0.2,3.6-3.7c-0.5-1.4-0.9-2.9-1.3-4.3
		c-3.8-14.1-7.7-28.2-11.2-42.5c-2.9-11.8-3.7-24-7.7-35.6c-5.1-14.7-7.7-30-10.5-45.2c-0.3-1.6-1-4.4,0.3-4.5
		c2.3-0.3,1.5,2.4,1.7,3.8c3.8,22.4,8.7,44.4,17.9,65.4c13.1,29.9,32.8,53.1,64.3,64.6c6.6,2.5,13.3,4.2,20.3,5.3
		c1.8,0.2,3.7,0.1,4.9-1.6s0-2.9-0.9-4.1c-19-27-34.7-56.6-60.1-78.8c-0.4-0.3-0.7-0.7-1-1.1c-0.6-1-2.8-1.8-1.6-3
		c0.8-0.7,2.3,0.9,3.1,1.9c5,6.3,11.3,11.3,17.1,16.8c18.9,17.8,39.4,33.1,63.5,43.6c14.4,6.3,29.3,7.2,44.5,6.2
		c5.5-0.4,6.9-3.9,3.4-8.2c-2.7-3.4-5.7-6.5-8.6-9.7c-16.6-18.9-32.3-38.5-46.1-59.6c-6-9.2-9.8-20.2-20-26.4
		c-1.8-1.2-3.5-2.5-5.1-4c-0.8-0.7-2.7-1.3-1.9-2.5c1-1.4,2,0.3,2.8,0.9c1.6,1.2,3.2,2.5,4.7,3.7c26,20.8,54.8,38,85.5,51.1
		c2.9,1.2,4.5,1,6-1.9c6.7-12.3,13.5-24.5,20.4-36.7c1.7-3,1.5-5-1.1-7.4c-5.2-4.7-10-9.8-14.3-15.4c-1-1.4-3.7-3.4-2.4-4.3
		c2-1.4,3,1.7,4.1,3.1c15,19.5,34.3,33.8,55.7,45.5c2.1,1.1,4.3,3.6,7.2,0.9c1-0.9,1.5,0.1,1.2,1.1c-0.6,2.7,1.5,3.1,3.1,3.8
		C624.9,384.9,648.6,392,677.4,392z M643.8,522.4c0.1-26.6,0.6-53.3-1.8-79.9c-1.5-16.1-1.7-32.2-4-48.2c-0.3-2.2-0.2-4.5-2.9-5.2
		c-5-1.5-9.8-4-15.2-4.1c-0.2,0-0.6,0.4-0.7,0.6c-2.1,4.2-5.6,7.5-5.3,13.1c0.9,16.5-0.4,33-3.8,49.2c-2.2,10.7-6,20.8-13,29.4
		c-3.9,4.8-9.1,8.4-15,10.3c-1.2,0.4-3.1,1.2-3.6-0.1c-0.7-1.9,1.6-1.6,2.6-1.9c4.6-1.5,8.8-4,12.3-7.4c1.8-1.7,1.9-2.7-0.5-4.1
		c-8.9-5.2-14.5-13.2-19.7-22c-5.9-10-3.6-22.7-11.5-31.9c-0.5-0.6-0.5-1.5,0.1-2c0.1-0.1,0.2-0.1,0.3-0.2c1.1-0.4,1.4,0.7,1.7,1.4
		c1.2,3.2,3,5.3,6.7,4.3s4-4.1,4.4-7.1c0.4-3.5-0.3-7-1.1-10.4c-1.1-5.1-3.4-6.3-8.2-4.2c-2.3,1-4.2,2.6-6.5,3.7
		c-17.5,8.1-32.8,19-45.2,33.8c-1.2,1.5-2.9,2.3-4.8,2.4c-11.6,0.3-23.2,1.3-34.7-2.1c-23-6.8-42.3-19.9-60.8-34.7
		c-1-0.8-1.9-2.8-3-1.8s0.9,2.2,1.6,3.2c10.5,15.6,21.1,31.2,31.6,46.8c2.8,4.2,1.9,7.6-2.1,8.6c-1.8,0.4-3.6,0.4-5.4,0.1
		c-13.3-2.8-26-6.9-37.7-14.1c-21.6-13.2-35.8-32.5-46.3-55c-0.4-0.7-0.8-1.4-1.2-2.1c-0.9,0.7-0.1,1.5,0,2.2
		c4.4,20.7,9.9,41.1,15.6,61.5c0.9,3.3,2.8,5.1,6.3,6.1c10.6,3,21.4,5.1,32.3,6.3c12.5,1.5,17.8,6.3,19.7,18.6
		c2.4,15.1,4.7,30.3,7,45.4c1.2,7.8-9.1,18.2-16.9,17.1c-0.9-0.1-2.6-0.9-1.4-1.5c3.6-1.8,0.5-2.7-0.3-3.6
		c-8.5-9.5-14.5-20.3-17.1-32.8c-0.5-2.1-0.2-4.3-2.3-5.8c-1.4-1.1-1-2.2,0.8-1.9c5.2,0.8,5.4-2.6,5.1-6.2c-0.5-5-2.9-7.1-7.4-6.5
		c-9,1.5-17.9,4-26.3,7.6c-3.5,1.5-4.6,3.6-3.5,7.4c1.9,6.2,4.2,12.3,7,18.1c0.4,0.9,1.5,2,0.7,2.7c-1.3,1.1-2-0.6-2.7-1.3
		c-5.2-5.4-9.5-11.6-12.6-18.5c-0.9-1.9-1.3-5.3-4.7-3.7c-3.9,1.8-0.9,4.3-0.1,6.2c2,4.4,4.4,8.6,6.4,13c2.4,5.1,1.2,9.7-3.9,11.7
		c-4.9,1.9-3.1,3.7-1.2,6.3c15.3,21.5,22.8,45.7,25.5,71.6c1.7,16.2,10.3,28.3,23.4,37.1c18.6,12.4,38.5,22.7,59.4,30.5
		c3.8,1.4,6.9,1.3,10.4-0.8c9.1-5.5,18.2-11.1,27.6-16.2c4.3-2.3,8-7.3,14.2-4.8c0.5,0.2,1.5-0.6,2.2-1c2.8-1.5,5.5-3.2,8.3-4.6
		c2.3-1.2,2.9-2.6,1.2-4.7c-2.6-3.1-1-5,1.8-6.7c6.1-3.8,12.1-7.7,18.1-11.6c0.7-0.4,1.8-0.7,1.7-1.7s-1.2-1-2-1.2
		c-6-1.5-12-2.6-18.3-1.7c-11.7,1.6-22,6.3-31.4,13.3c-1.4,1-3.4,3.5-4.4,2.1c-1.3-1.8,1.9-2.4,3-3.6c0.7-0.7,1.5-1.3,2.4-1.8
		c15.8-10.9,32.7-16.5,51.8-9.7c2.8,1,4.8-0.2,7-1.4c6.3-3.4,12.6-6.7,19-10.1c2.5-1.3,5-1.9,7.4,0.2c2,1.7,3.6,4,6.9,2.2
		c2.4-1.3,5.3-2,7.8-3.1c0.7-0.5,1.1-1.3,1.1-2.1c-0.3-4.5,3.2-5.9,6.2-7.6c11.9-6.7,24.2-12.7,36.9-17.7c3.7-1.5,5.1-3.5,5-7.4
		C643.7,558.7,643.8,540.5,643.8,522.4z M807.9,317.2c0.2-5-0.7-10-1.5-14.9c-5.6-33.5-19.5-63.8-35.3-93.4
		c-7.9-14.7-16.5-28.9-25.8-42.7c-5.2-7.8-10.7-15.4-16.1-23c-3.5-5-8.8-8.2-12.2-13.6c-4.6-7.5-12.1-12.8-18.5-18.7
		c-8.7-7.9-18.2-15-28.2-21.2c-23.7-14.8-49.7-25.8-76.8-32.6c-7.9-2-8.6-1.8-9.6,6.2c-1.2,9.3-2.8,18.4-8.7,26.2
		c-8,10.7-17.7,20-28.8,27.4c-18.6,12.4-39,21-59.7,28.9c-4,1.5-4.3,3.2-2.9,6.6c3.1,7.6,6.3,15.3,6.9,23.4
		c0.6,8.4,5.4,10.6,12.3,12.2c16.6,3.7,32.7,9.1,48.9,14.3c13.8,4.4,26.8,11.2,42,11.5c16.5,0.2,31.9,6.8,47.3,11.7
		c12.4,3.9,25.4,5.8,37.5,11.7c7.9,3.8,16.3,6.7,24.9,8.4c10.5,2.1,18.7,9.3,28.1,13.8c18.7,8.8,33.6,22.5,48.4,36.4
		c1.8,1.5,3.2,3.4,4.2,5.5c4.5,12.1,14.8,21.5,17.2,34.6c0.3,1,0.8,1.9,1.3,2.7c0.4,0.7,0.6,1.9,1.6,1.6c0.5-0.2,0.8-1.4,1-2.1
		C806.8,331.1,807.6,324.2,807.9,317.2z M282.1,237.6c-1.4,10.4,1.6,21,6.2,31.4c1.2,2.7,2.2,3.8,4.7,0.8c11-13,22.9-25.1,35.6-36.4
		c1.9-1.7,2-3.4,1.8-5.7c-1.3-13.7-2.5-27.5-3.6-41.2c-0.1-1.1-0.8-2.9,0.5-3.1c1.8-0.3,1.6,1.7,1.7,2.9c1.1,12.3,2.1,24.5,3.1,36.8
		c0.1,1.7-0.8,4.1,1.4,4.9c1.8,0.7,2.9-1.2,4.2-2.2c20.8-17,43.2-31.1,68.3-41c3.1-1.2,3.5-2.8,2.8-5.6c-1.9-6.9-3.6-13.9-5.3-20.8
		c-0.2-0.9-0.9-2.3,0.2-2.7c1.6-0.5,1.6,1.3,1.9,2.3c1.6,6.1,3.4,12.2,4.8,18.4c0.9,4.1,2,7.1,7.1,4.5c1.4-0.5,2.9-0.8,4.4-0.8
		c21.3-2.1,42.5-2.3,63.4,3.4c3.6,1,4.9-0.1,4.2-4c-1.7-9.4-4.7-18.4-7.9-27.3c-2.1-5.8-1.8-6.1,4-8.2c24.7-9.3,49-19.4,69.8-36.1
		c15.2-12.2,27-26.8,25.8-48.1c-0.2-3.8-1.4-5.7-5.2-6.5c-14.7-3.4-29.6-4.5-44.5-5.7c-2.4-0.2-4.9-0.7-7.2,0.4
		c1.8,1.4,3.7,2.7,5.5,4.1c10.1,8,11,15.7,2.3,23.6c-7.6,7-16.6,12.4-26.5,15.8c-19.3,6.5-39.9,8.5-60.1,5.7c-7-1-14.3-1.6-20.8-5
		c-7.5-3.9-9.3-9.4-5.7-17c2.5-5.1,5.9-9.7,9.9-13.7c0.6-0.6,1.4-1.3,0.9-2.1s-1.5-0.2-2.3,0.1c-2.5,0.8-5,1.8-7.5,2.6
		c-30.1,9.7-57.4,24.9-82.9,43.3c-1.8,1.3-2.2,2.5-1.1,4.6c3.5,6.9,2.4,13.5-1.3,20c-8.1,14.2-17.2,27.7-27.3,40.6
		c-5.5,7.1-11.4,13.9-19.3,18.6c-6.1,3.6-10.9,2.2-14.1-4c-0.6-1.2-1.2-2.4-1.6-3.6c-0.8-2.5-1.7-2.7-3-0.3
		c-2.8,5.1-5.5,10.3-8.4,15.3c-2.8,4.8-4.6,9.8-3.8,15.6c0.6,5,2.9,8,7.9,8.9c3.8,0.7,7.7,0.5,11.4-0.6c5.1-1.5,5.7-1.1,5.8,4.4
		C282.1,228.4,282.1,232.4,282.1,237.6z M710.2,724.4c0.3,5.3-0.5,10.7,0.9,15.9c0.4,1.6,0.4,3.6,2.3,4s3.3-1.1,4.5-2.5
		c3-3.6,5-8,5.7-12.6c2.1-11.6,3.1-23.4,3-35.3c-0.1-10-1.1-19.9-1.8-29.9c-1.3-16.3-3.6-32.4-7-48.4c-3.3-15.8-8.8-31-13.2-46.5
		c-7-24.6-14.4-49.2-16-75c-1.3-21.6-4.3-43-5-64.7c-0.3-10.1-1.9-20.2-2.5-30.3c-0.3-4.2-2.2-5.4-6-5.2
		c-10.3,0.5-20.7-0.5-30.7-3.1c-4.3-1.1-4.4,1.1-4.1,4.2c2.8,24.1,5.2,48.4,5.4,72.6c0.5,51.6,2.1,103.2-3.2,154.7
		c-2.6,24.8-5.1,49.6-8.9,74.3c-3.9,25.5-8.5,50.9-14.9,75.9c-0.9,3.4-1.4,6.9-1.6,10.3c-0.3,4.7,1.8,6.4,6.5,5.6
		c4.8-0.9,9.2-3.1,12.9-6.2c21.8-18,40.2-38.8,53.2-64.2c6.2-12.2,11.9-24.6,15.2-37.9c0.3-1.2,0.5-3.4,1.9-3.1
		c2.1,0.5,0.7,2.6,0.3,3.7c-1.5,4.1-1.8,8.5-0.6,12.7C709.1,703.8,710.3,714.1,710.2,724.4z M352.9,833.7c0.6-10.7-1-21.3-1.2-32
		c0-1.1-1.5-2.9,0.5-3.1c1.2-0.1,1.4,2,1.6,3.3c0.5,3.8-0.2,7.7,1.4,11.3c6,14.3,13.2,27.9,23,40.2c14.4,18.2,33.2,24,55.5,21.2
		c6.3-0.8,7.8-4.1,5-9.9c-1.5-3.1-3.2-6.2-4.6-9.4c-8.2-18.2-14.4-37.3-18.5-56.8c-3.5-16.9-4.2-34-4.6-51.1c0-2.5-1-4.9-2.8-6.7
		c-7.2-8.1-14.3-16.2-21.5-24.3c-1.5-1.7-2.8-3.2-1.5-5.7c4.5-8.7,9.2-17.4,16.2-24.5c2.2-1.8,3-4.9,2-7.5
		c-1.9-6.8-2.5-13.8-0.6-20.7c1.1-4.1,0-6.1-3.5-8.4c-13.6-9.1-22.6-21.5-24.4-38.2c-2.6-23.7-9.2-45.8-21.7-66.3
		c-4.8-7.8-9.9-12.1-19.4-10.9c-4.2,0.5-5,1.8-3.7,5.3c3.2,8.5,4.5,17.4,6.1,26.2c2.9,16.6,4.2,33.3,5.2,50.1
		c1.2,20.5,0.9,41,0.3,61.4c-0.5,16.4-2.6,32.8-3.4,49.2c-0.8,18.1-2.6,36.2-5,54.1c-3.1,23.1-4.1,46.4-3,69.7
		c0.5,9.8,3.3,19.1,11.2,25.9c2,1.7,3.7,4.3,6.8,3c3-1.2,3.7-3.9,4-6.9C353.7,859.3,352.5,846.5,352.9,833.7z M779.8,419
		c0-4.4,0.3-12.9-1.1-21.3c-1.1-6.5-0.3-13.5-3.4-19.6c-13.3-26.6-30.8-50.1-51.2-71.6c-4.7-4.9-4.8-4.8-8.5,0.6
		c-1.1,1.6-2.4,3.2-3.7,4.7c-7.9,9.6-17.4,17.4-27.6,24.4c-2.5,1.8-2.7,2.7,0.2,4.4c6.3,3.4,13,5.9,20,7.5c12.3,2.8,25,4.1,37.7,3.8
		c4.2-0.1,5.5,1.5,3.9,5.5c-2.2,5.9-5.6,11.4-9.8,16.1c-11.3,12.4-26.3,17-42.2,19.5c-10.6,1.7-10.7,1.5-9.9,12.4
		c0.1,1,0,2.4,0.5,2.7c1,0.5,1.5-0.9,2.3-1.5c5.6-4.6,11.5-8.1,19.2-5c5.8,2.4,11,5.8,14.6,11c14.9,21.4,21.4,44.9,16.9,70.9
		c-3.3,19-11.7,36-22.5,51.8c-2.8,4.1-6.5,7.2-11.7,7.9c-2.2,0.3-2.9,1.2-2.4,3.3c1.5,6,2.9,12,4.4,18c0.2,1.2,1.1,2.1,2.2,2.3
		c9.4,2.5,19-1,24.9-9.2c0.6-1,1.3-2,2-2.9c11-11.9,19-25.8,25.9-40.2C774.1,485.7,780.3,455,779.8,419z M559.1,797.7
		c-1.3-4.6-2.4-9.3-4-13.9c-8.7-25.3-16.9-50.8-26.7-75.8c-5.8-14.7-11.5-29.5-17.3-44.2c-2.4-6-2.6-6-8.5-2.6
		c-14.8,8.7-29.5,17.5-44.2,26.3c-6.1,3.7-5.9,3.7-2.5,9.9c18.2,32.8,34.3,66.6,46.3,102.2c2.6,7.7,5.3,15.4,7.6,23.2
		c0.9,3,2.1,6.8,6.9,4.5c14.6-6.6,28.1-15.4,40.1-26C558,800.4,559.3,799.4,559.1,797.7z M614.4,740.1c-1.1-8.1-1.8-15.5-3.1-22.9
		c-4.2-23.6-8.6-47.2-15.7-70.1c-3.3-10.6-7.2-21.1-14.3-30c-2.7-3.4-5.5-4-9.5-2c-15.3,7.8-30.1,16.4-44.4,26
		c-2.7,1.8-2.5,3.2-1.1,5.6c2.9,5,5.5,10.2,7.9,15.6c9.8,22.9,16.4,46.8,22,71c3.7,15.9,7.6,31.7,10.1,47.9c0.9,5.8,1.6,6.3,5.4,3.9
		c16.4-10.4,30.2-23.4,40.5-40.1C613.3,743.2,614.5,741.6,614.4,740.1z M906,933.6c-0.4-3.1-0.6-6.2-1.2-9.3
		c-1.5-8.3-0.5-17-4.9-24.8c-6.9-12.3-13.7-24.8-20.5-37.2c-20.6-37.5-41.8-74.7-61.7-112.6c-7-13.3-16.7-25-28.5-34.3
		c-16.5-13.1-35.9-18.4-56.5-20.2c-3.1-0.3-3.4,1.6-3.7,4c-1,9.2-0.7,18.6-2.8,27.8c-0.8,3.5,1.2,4.5,4.1,4.5c7.9,0,15.5,2,23.1,3.7
		c15.3,3.3,27,12,36.2,24.1c23.5,30.9,42.9,64.6,63.7,97.3c16.5,25.8,32.3,52,48.4,78.1c0.9,1.4,1.8,3.6,3.5,3.1
		C907.6,937.4,905.4,935.2,906,933.6z M594.8,216.3l-0.7,0.1c0.2,1.1,1.2,0.8,1.9,1.2c19.2,10.5,39.5,18.9,58.1,30.6
		c10.5,6.6,21,13.3,31.2,20.5c18.2,12.9,33.5,28.9,48.8,44.9c14.8,15.6,27.3,33.1,37.3,52.1c1.7,3.2,3.6,6.4,5.4,9.6
		c1.3,2.3,2.9,3.1,5.2,1.2c9.2-7.7,16.5-16.8,20.7-28.3c1-2.9-2.9-13.8-5.4-14.7c-0.7-0.3-1.9,2.7-2.3-0.5
		c-2-16.2-11.4-28.5-21.8-40c-13.8-15.3-31-26-49.2-35.3c-9.5-4.7-19.3-8.9-29.3-12.4c-8-2.9-16.9-3.8-24-9.1
		c-2.4-1.8-5.6-2.1-8.6-2.5c-4.5-0.5-8.9-1.6-13.1-3.3c-11.1-4.7-23-6.7-34.5-10C608.5,218.6,602.5,216.6,594.8,216.3z M470.4,841.9
		c8.2-0.1,16.3-0.5,23.5-5.2c3.3-2.1,4.4-4.4,3-8.3c-5.7-17.1-13-33.6-21.7-49.3c-12.5-22.5-27.8-43.1-44.5-62.7
		c-2.9-3.4-3.5-6.6-1.3-10.4c0.7-1.5,1.5-2.9,2.4-4.3c1.6-2.1,1.1-3.4-1.1-4.8c-5.9-3.8-11.6-7.8-17.4-11.8
		c-3.7-2.6-6.8-1.8-9.6,1.4c-5.5,6.1-9.8,13-14,20c-3,5.1-2,8.6,1.8,12.7c11.1,12,22.1,24,32.5,36.5c18.4,21.8,30.2,48.3,34.2,76.5
		C459.7,841.9,459.6,841.9,470.4,841.9z M463.2,93.2c23.2-1,44-4.5,61.7-18.4c3.3-2.5,6-5.8,7.9-9.5c1-2,1.7-4.3,0.2-6.2
		c-3.7-4.5-7.4-9.2-13.9-9.8c-6.3-0.5-12.6-1.5-18.9-1.1c-16.6,1-33.1,2.2-49.5,5.4c-11.5,2.3-20.1,8.5-26.5,17.8
		s-2.5,18.1,8.8,19.4C443.6,91.9,454.2,92.4,463.2,93.2z M736,465.8c1.6-15-4.3-29.6-11.7-43.8c-3.9-7.4-9-13.9-17-17.6
		c-8.8-4.1-24.6,1.9-22.1,15.4c1.3,7.1,0.8,14.3,1.2,21.4c0.1,1.5-0.1,3.7,1.2,4c1.6,0.5,2-1.8,2.8-3c3.8-5.5,7.7-10.9,13-15.1
		s10.2-4,13.5,0.6c2.5,3.9,4.4,8.2,5.5,12.8c0.2,0.7,0.7,1.8-0.4,2.1s-1.4-0.8-1.7-1.5c-1.3-3.2-2.2-6.6-3.8-9.8
		c-3-5.9-6.2-6.5-11.6-2.8s-8.8,9-12.4,14.2c-1.1,1.6-3.3,3.1-2.2,5.1c0.9,1.7,3.3,0.7,5.1,0.9c15.6,2,24.6,9.6,20.7,26.9
		c-2.6,11-7.1,21.5-13.4,31c-5.5,8.5-9.8,16.8-4.8,27c0,0.2,0.1,0.3,0.1,0.5c1.2,6.7,3.8,8,10,4.8c1.8-0.9,3.4-2.2,4.5-3.9
		C726.1,514.7,737.1,493.1,736,465.8z M642.8,591.9c0.1-6.5-0.5-6.9-6-4.5c-11.7,5.2-23.2,10.8-34.5,17c-3.9,2.1-4.5,4.6-3.4,8.5
		c8,27.8,15.4,55.8,20.5,84.3c1.8,9.8,3.6,19.6,5.3,29.4c0.2,0.8,0.4,1.5,0.7,2.2c0.2-0.8,0.5-1.6,0.7-2.3s0.4-1.6,0.5-2.4
		c3.8-22.3,7.2-44.6,10-67C639.6,635.3,640.7,613.4,642.8,591.9z M722.4,569.1c-4,0-8,0-12,0c-2.5,0-3.8,0.4-2.5,3.5
		c4.4,10.5,7.7,21.3,9.9,32.4c2.2,10.8,5.6,21.3,6.5,32.3c0.9,11.3,2.7,22.5,3.8,33.7c0.9,9.4,0.7,9.2,9.6,8.9
		c4.2-0.1,5.4-1.8,5.4-5.7c0-11.5,0.4-23,0.5-34.4c0.1-20.9,3-41.5,5.3-62.1c0.4-3.8-0.8-5.5-4.2-6.5
		C737.4,568.9,729.9,568.9,722.4,569.1z M439.7,694.7c-1.8-0.4-4.3,0.3-4.1,1.7c0.6,3.9-2.1,6.2-3.6,9c-2.1,3.9-2,6.8,0.9,10.3
		c27.8,33.1,51.7,68.5,65.3,110.1c0.4,1.1,0.7,2.2,2.4,1.9c3.8-0.6,6.5-4.1,5.9-8c-0.1-0.4-0.1-0.7-0.2-1
		c-4.1-13.2-8.8-26.2-13.7-39.1c-10.5-27.2-23.4-53.3-37.2-79c-0.9-1.7-2-3.1-4-3.5C447.5,696.4,443.6,695.5,439.7,694.7z
		 M248.2,244c-1.3,20,5.4,37.8,12.1,55.5c1.5,4,3,4,6,1c3.2-3.4,4.8-8.1,8.7-10.8c4.5-3.2,7.2-7.7,10-12.3c1.4-2.1,1.5-4.9,0.3-7.1
		c-6-12.3-8.6-26-7.5-39.7c0.5-6.2-0.8-6.9-6.8-6.6c-8.3,0.4-13.3-1.1-16.1-10.3c-0.2-0.5,0.1-1.5-0.8-1.4c-0.4,0-0.7,1-0.9,1.6
		C249.6,223.7,247.4,233.8,248.2,244z M454.8,825.4c-0.2-0.7-0.5-2.2-0.7-3.7c-1.7-10.6-6-20.4-10.1-30.1
		c-6.4-14.8-15.6-28.2-26.3-40.3c-0.8-1-1.7-2.5-3.2-2c-1.8,0.6-1.3,2.5-1.3,3.9c-0.3,10.6,1.2,21.2,2.5,31.7
		c2.4,19.3,7.7,38.1,14.7,56.3c1.4,3.7,3.7,4.5,7,2.4c3.8-2.4,7.4-5.3,11.4-7.1C453.7,834.3,454.7,830.7,454.8,825.4z M564.5,784
		c-1.5-11.1-4-22.6-6.7-34.1c-6.8-29.4-13.7-58.7-25.6-86.6c-5.1-12-4.9-11.8-16.3-5.6c-3.8,2.1-3.4,3.8-2.2,6.9
		c5.9,14.7,11.6,29.4,17.3,44.1c9.9,25.3,18.4,51.1,26.9,76.8c0.6,1.7,0.7,3.8,3.4,3.4C563.8,788.6,564.6,787,564.5,784z
		 M524.2,389.8c-0.1-1.9-1.5-2.3-2.7-2.8c-24.5-10.2-47.7-23.2-69.2-38.6c-0.7-0.4-1.4-0.7-2.2-1c-0.5,1.1,0.5,1.8,0.9,2.6
		c14.7,24.2,31.6,47,50.4,68.1c2,2.2,3.2,2.4,4.8-0.2c5.4-8.6,11-17.1,16.4-25.6C523.3,391.4,523.7,390.5,524.2,389.8z M607.8,438
		c0-2.7,0-4,0-5.3c0.1-8.3-1.1-16.6-2.3-24.8c-0.5-3.5-1.2-7.5-6.2-7.8c-5.6-0.3-11.3-0.8-16.9-0.9c-7.7-0.1-7.7,0.1-6.1,7.4
		s2.2,14.2-4.5,19.6c-1.8,1.4-2.2,3.6-1.7,5.9c0.7,2.9,1.2,5.9,1.9,8.8c3,12.6,9.7,22.8,20.4,30.4c3.3,2.3,5.5,2.2,7.4-1.7
		C605,459.2,609,448.6,607.8,438z M333.9,118.3c-0.2-1.9,0.6-4.3-1.5-5.5c-2.4-1.2-3.5,1.2-5,2.4c-12.1,10-23.2,21.1-33.1,33.2
		c-6.5,7.9-13.5,15.6-18.6,24.6c-2.5,4.3-1.3,8.5,2.4,11.6s7.1,2.9,10.9,0.1c8-6,15-13.2,20.6-21.5c7.7-11.1,14.3-22.8,21.4-34.3
		C332.8,125.6,333.8,122,333.9,118.3z M551.7,396.7c1.8-0.6,3.5-1.1,5.2-1.8c9.3-3.7,18.9-6.4,29.1-6.1c1.8,0.1,4.5,0.9,5.1-0.6
		c0.8-2-1.9-3.2-3.2-4.4c-11.5-9.9-21.4-21.4-29.6-34.2c-0.7-0.9-1.6-1.7-2.5-2.5c-2.7-2.7-4.4-1.9-5.6,1.5
		c-4.5,12.9-9.8,25.5-15.1,38c-0.6,1.5-1.2,3.2,0.6,3.9C541.1,392.7,546.4,394.6,551.7,396.7z M697,487.9c0.6,6.3-1.8,12.1-3.5,18
		c-0.8,2.5-0.8,5.3,0,7.8c0.2,0.8,0.4,1.8,1.4,1.8c0.5,0,1-0.7,1.3-1.2c7.8-13.2,15.5-26.4,18.3-41.7c1.4-7.7-1.2-14.8-7-17.8
		c-5.2-2.7-11-4-16.8-3.6c-2.3,0.2-3.3,0.9-3.1,3.4c0.6,5.9,1,11.9,1.5,17.8c0.1,1.6,0.4,3.1,2,3.7
		C696.6,478.2,697.5,482.7,697,487.9z M594.3,615c-4.9,0.1-8.3,3.8-6.4,7.3c12.6,24,17.1,50.3,22.4,76.3c2.2,10.6,3.8,21.3,5.2,32
		c0.2,1.8,0,4.5,2.8,4.6s3.3-2.3,4-4.4c0.4-1.3,0.5-2.6,0.2-3.9c-1.1-6.6-2.1-13.1-3.3-19.7c-3.3-18-7.2-35.9-11.6-53.7
		c-2.9-11.6-6.1-23.2-9.2-34.7C597.8,617,597.4,614.4,594.3,615z M414.5,487c-4.7,0.5-8,1-11.3,1.1s-3.5,1.3-2.4,4
		c1.8,4.2,2.1,8.4-1.1,12.2c-1.4,1.7-1.9,4-1.2,6.2c3.3,12.1,8.7,23,17.5,32c1.3,1.3,2.7,2.3,4.9,1.7c4.5-1.3,9.3-7.4,8.5-12.1
		c-2.1-13.2-4.8-26.2-8.1-39.1C420.2,488.8,418,486,414.5,487z M746.1,658c-1.4,4.9,0,9.6-0.1,14.4s3.3,4.4,6.5,4.7
		c4.2,0.3,3.4-2.6,3.3-5c0-1.2-0.1-2.3-0.3-3.5c-4.8-26.5-2.8-52.6,3.3-78.6c0.6-2.3,1-4.5,1.2-6.9c0.3-4.1-3-4.3-5.7-4.8
		s-3.8,1.4-4.1,3.8c-0.3,3.3-0.5,6.6-0.8,9.9c-1,9.4-2.5,18.8-3,28.2c-0.2,4.2,0.5,8.3-0.1,12.8C745.3,641.3,746.1,649.7,746.1,658z
		 M347.1,490.7c3,0.4,6-0.3,8.4-2c3.1-2.2,6.6-3.9,9.8-5.9c0.7-0.4,1.3-0.9,1.9-1.4c-0.7-0.5-1.4-0.9-2.1-1.3
		c-17.5-8-32-20-44.7-34.4c-0.4-0.5-0.9-0.9-1.4-1.3c-0.8,0.9,0.1,1.5,0.4,2.2c6.5,13.3,13.2,26.5,19.6,39.8
		C340.8,490,343.3,491.3,347.1,490.7L347.1,490.7z M611.6,398.8c0-2.7-0.6-3.6-4-4.8c-13.3-4.8-26.7-3.3-39.8,0
		c-17,4.3-30.9,14.6-45,24.3c-3.4,2.3-4.9,6.2-6.8,9.7c-0.7,0.8-0.5,2,0.3,2.7c1,0.8,1.8,0.1,2.5-0.7c9-9.9,20.7-16,31.6-23.4
		c16.2-10.9,33.8-11.7,52.2-9.6c2.7,0.3,4.3,2,4.8,4.9c0.8,5.1,2,10.1,2,15.3c0,1-0.2,2.6,0.7,2.6c1.7,0,0.9-1.8,1-2.8
		C611.2,411.1,610.3,405,611.6,398.8L611.6,398.8z M406.5,485c2.5,0,5-0.2,7.5-0.5c2.1-0.4,5.4-0.6,5-3.6c-0.2-2.5-3-3.5-5.4-3.7
		c-16.9-1.1-33.7,2.1-49,9.3c-11.6,5.5-11.5,7.2-6.6,19c0.1,0.1,0.1,0.3,0.2,0.5c0.2,0.4,0.6,1.2,0.8,1.1c1-0.3,0.4-1,0.3-1.5
		c-1.5-4.6,0-7.7,4.3-9.7C377.1,489.4,391.1,484.4,406.5,485z M707.9,720c0.2-6-1.2-12.5-2.2-19.1c-0.2-1.6-0.1-3.8-2.2-3.9
		c-1.7-0.1-2.2,1.8-2.8,3.1c-2.7,5.7-5.4,11.5-7.8,17.3c-1.6,3.7-6.6,7.7-4.6,10.7c1.8,2.6,7.8,0.7,11.9,0.8
		C708.2,729.1,708.2,729,707.9,720z M449.4,694.4c0.9,0.1,2-0.2,1.8-1.1c-0.8-4.3,2.8-5.2,5.2-7c4.3-3.2,4.2-5.2-0.7-7.3
		c-5.3-2.3-10.7-4.4-16.1-6.7c-3.5-1.4-8.1,2-8,5.8C431.9,685.7,441.8,694.7,449.4,694.4z M512.1,428.7c1.5-0.5,1.8-2,2.4-3.1
		c4-7.1,6.7-14.9,10.1-22.3c4.9-10.5,10.2-20.9,14.4-31.8c0.3-0.9,1.2-2.3,0.3-2.7c-1.1-0.5-1.3,1.1-1.7,1.9
		c-5.5,10.3-11.5,20.3-18,29.9c-4.2,6-7.9,12.4-11.7,18.6c-1,1.7-2,3.7-0.3,5.5C509.1,426.3,510.2,428.1,512.1,428.7L512.1,428.7z
		 M381.7,902.7c0.1,3.7,0.4,4.7,1.8,6.1c1.7,1.7,3.2,2,4-0.6c3.6-11.3,9.5-21.7,17.2-30.7c0.6-0.8,1.3-1.4,0.2-2.5
		c-2.7-2.5-7-2.3-9.5,0.5c-0.1,0.1-0.2,0.3-0.4,0.4c-0.9,1.2-1.9,2.3-2.8,3.5C387.7,886.7,382.6,893.8,381.7,902.7L381.7,902.7z
		 M404.1,666.2c-0.1,3.7,0.3,7.3,1.3,10.8c0.4,1.8,1.2,3.8,3.6,3.3c5.3-1,8.1-4.7,10.1-9.4c1.8-4.2,0.3-7.6-3.1-10
		c-2.7-1.9-5.4-5.7-9-4.1S404.4,662.8,404.1,666.2L404.1,666.2z M391.9,475.7c7.1-0.6,13.4-1.2,19.7-1.8c0.8-0.1,1.6-0.2,2.4-0.4
		c-0.3-1.3-1.5-1.2-2.4-1.3c-12.4-2.3-24.8-4.7-36.8-8.5c-5.5-1.7-11.1-3.5-16.6-5.1c-1.2-0.4-3.1-1.6-3.6-0.5
		c-0.6,1.4,1.6,1.7,2.7,2.3c7.1,3.6,14.3,7.1,21.7,10.2C383.4,472.5,387.5,475.4,391.9,475.7z M609.2,392c4.2,0.5,4.8-2.7,6.3-4.6
		c2.4-2.9,1.8-4.8-2-6c-4.2-1.5-8.3-3.3-12.2-5.4c-2.3-1.2-4.6-2.1-5.8,0.9s-5.9,5.4-1.8,9.4C598.2,390.6,604.8,389.2,609.2,392z
		 M549.4,398.2c-1-0.4-1.5-0.7-2.1-0.9c-3.7-1.4-7.5-2.7-11.2-4.2c-2.4-1-3.7-0.3-4.7,1.9c-2.8,6-5.8,12-8.6,18
		c-0.3,0.6-0.7,1.6-0.5,1.8c0.8,0.8,1.4-0.2,2-0.6c7.5-5.2,14.6-11,23.1-14.6C548.1,399.2,548.8,398.7,549.4,398.2L549.4,398.2z
		 M589.3,382.2c2.2-2,3.3-4.5,4.5-7.1c1-2.4-0.7-3.3-2.4-4.1c-8-3.9-15.2-8.9-22.6-13.7c-0.8-0.5-1.6-1.9-2.4-1s0.3,1.8,0.9,2.5
		c5.8,8.2,12.9,15.2,20.2,22.1C588,381.3,588.6,381.7,589.3,382.2L589.3,382.2z M420.6,676.3c-3,0.5-4.7,3-6.8,4.8
		c-1.1,0.9,0.2,1.7,1,2.3c5.2,3.6,10.4,7.1,15.6,10.7c1.4,0.9,2.6,1.3,4,0s1.1-2.7,0.4-4.1c-1.3-2.5-2.9-4.9-3.9-7.5
		C428.9,677.6,424.5,677.6,420.6,676.3z M436.4,852.7c0.8-0.5,1.8-1.2,2.7-1.9c4.3-3.4,8.9-6.3,13.7-8.9c1.5-0.8,3.1-1.5,3.7-3.2
		c0.5-1.4,0.4-3.1-1.7-2.3c-7.3,2.8-14,6.8-19.8,12c-0.8,0.9-1,2.2-0.3,3.2C434.9,852.4,435.7,852.8,436.4,852.7z M426.8,675.7
		c2.8,0,6.3-3,6.3-5.1c0-1.2-7.1-6-8.9-5.6c-3.8,0.9-2.5,4.7-2.8,7C420.8,676,425.1,674.6,426.8,675.7L426.8,675.7z M694.9,488.7
		c0.1-0.8,0.1-1.6,0-2.3c-0.3-1.6,0.8-4.5-1.5-4.6c-2.7-0.1-3.5,2.5-3.2,5.1c0.4,3.6,0.7,7.2,1,10.9c0.1,0.6,0,1.5,0.7,1.6
		c0.4,0,1.1-0.7,1.3-1.2C694.4,495.1,694.9,491.9,694.9,488.7L694.9,488.7z M374,471.2c-0.4,0.1-1.1,0.1-1.2,0.3
		c-0.7,2.1,1,3.6,1.2,5.6c0.1,1.4,1,2.1,2.4,1.6c2.5-1,5.5-0.7,7.8-2.4c-1.7-2-4.4-2.1-6.5-3.3C376.6,472.3,375.3,471.8,374,471.2z
		 M345.4,493.1c-0.7,0.2-2.9-0.9-2.2,0.9c0.9,2.4,1.2,5.9,4.8,6.1c1.5,0.1,3.6-0.6,3.2-2.8C350.8,494.3,348.8,492.8,345.4,493.1z"/>
	<path d="M595,1025c0.7-6.1,1.3-12.2,1.9-18.3c0.3-3.5,2-5.6,5.5-6.9c5.6-2.1,11-4.8,16.5-7.2c0.7-0.3,1.7-0.9,1.7-1.5
		c0.1-1-1.1-1-1.8-1.3c-4.2-1.5-8.4-3.4-12.9-3.7s-6.9-2.7-8.1-7.2c-3.1-12.3-6.7-24.4-10.1-36.6c-0.2-0.8-0.8-2.1-1-2.1
		c-1.2,0.3-1,1.5-1.2,2.4c-2.8,12.7-5.7,25.3-8.3,38.1c-0.8,3.7-2.3,6.3-5.7,8.1c-4.8,2.4-9.2,5.3-13.4,8.7c-0.7,0.6-2.1,1.4-2,1.9
		c0.2,1.2,1.6,0.7,2.5,0.8c4,0.4,8,0.8,11.9,0.9s5.9,1.5,5.8,5.6c-0.2,6.2-0.1,12.3-0.2,18.5h-2c-0.1-2.8-0.1-5.7-0.3-8.5
		c-0.1-1.3-0.5-3.4-1.1-3.6c-1.6-0.3-1.7,1.7-2.2,2.7c-1.5,3-3.3,5.8-3.3,9.3h-3c0.7-3.4,2.4-6.4,3.9-9.5c0.2-0.6,0.3-1.2,0.3-1.8
		c-0.5,0.3-1,0.7-1.4,1.1c-2.3,3.4-4.6,6.8-6.9,10.2h-2c0.5-2.7,2.4-4.7,3.8-6.9c2.3-3.4,5-6.7,7.3-10.1c1.3-1.9,1.4-4.5-1.3-4.4
		c-3.8,0.2-7.2-0.9-10.8-1.4c-3.1-0.4-4.9,0.8-6.1,3.7c-2.4,6.2-4.5,12.5-6,19h-2c0.5-7.3,3.5-13.8,5.7-20.6
		c6.3-19.7,13.7-39,24.4-56.7c2.1-3.6,4.5-7,7.1-10.3c5.5-6.8,9.8-6.7,15.1,0.5c3.6,5,7,10.1,10.3,15.3
		c12.8,20.5,23.5,42.1,30.3,65.5c0.6,2.1,1.4,4.1,1.2,6.3h-4c0.1-2.3,1.1-4.6-0.6-6.7c-2.6-3.4-3.2-7.5-3.9-11.6
		c-0.5-3.4-1.7-6.8-3.5-9.8c-0.6-1-1.2-2.1-2.7-1.8c-6.1,1.6-12.2,2.9-17.2,7.3c-2.3,2-2.3,3.5-0.4,5.7c4.6,5.2,8.8,10.9,12.3,16.9
		h-3c-2-4.2-5.1-7.8-7.8-11.5c-0.3-0.4-0.9-1-1-0.9c-0.8,0.4-0.3,1.1-0.1,1.7c1.3,3.6,2.6,7.2,4,10.8h-4c1.5-5-2.1-8.7-3.4-13
		c-0.2-0.4-0.6-0.7-1.1-0.7c-0.8,0.1-0.8,0.9-0.9,1.5c-0.7,4-1.9,8-1.6,12.2L595,1025z M591.3,938.3c-3.3,1.5-1.3,4.4-0.7,6.1
		c3.4,9.2,5.5,18.7,7.8,28.2c1.5,6.2,5,9.9,11.1,11.3c2.2,0.5,4.4,0.7,6.5,2s3.6,0,3.1-2.6c-0.3-1.3-0.8-2.5-1.4-3.7
		c-7.1-13.3-14.8-26.3-23.1-38.9C594,939.5,592.7,938.6,591.3,938.3z M582.5,943.8c0.3-0.9,0.1-1.5-1-1.7c-1.8-0.4-2.3,1-3,2
		c-6.1,8-10,17.2-14.3,26.2c-3,6.3-5,13-7.4,19.5c-0.5,1.3-0.8,2.8,0.5,3.7c1.4,1.1,1.8-0.9,2.8-1.3c7.2-3.8,13.2-8.2,15.6-17
		C578.2,964.8,579,954,582.5,943.8z"/>
	<path d="M797,1025c-0.1-2.3-1.8-3.5-3.5-4.5c-19.9-12.5-39.6-25.3-59.8-37.3c-8.8-5.3-19.1-7.8-28.2-12.7c-7-3.7-14.7-7.2-20.3-12
		c-8.1-7-16.4-14.4-22.8-23.5c-5.5-7.8-10.6-15.8-14.3-24.5c-0.4-1-1.7-2.4-0.4-3s1.7,1.2,2.1,2.2c5.7,11.9,12.6,23,21.8,32.7
		c11.9,12.4,26.1,22.4,41.7,29.5c3.5,1.6,7,3.1,10.5,4.6c0.8,0.3,1.8,1.3,2.6,0.4c0.2-0.2-0.8-1.7-1.4-2.4c-6.2-7.8-12.6-15.5-18-24
		c-16.6-25.7-27.8-54.5-32.9-84.6c-0.2-1.2-1.1-3.2,0.5-3.4s1.3,2,1.5,3.1c3.3,18.9,8.9,37.3,16.7,54.8c9.7,21.6,22.3,41.4,39,58.2
		c5.6,5.6,13.4,9.2,20.3,13.5c14.9,9.4,29.9,18.7,44.8,28.2c2.1,1.3,4.4,2.5,5.7,4.7H797z"/>
	<path d="M463.2,563.6c0.2,1,0,1.5-0.9,1.1c-0.6-0.3-1.1-0.7-1.5-1.3c-1.2-1.7-3.4-2.6-3.8-4.9c0-0.1,0.8-0.6,1.1-0.5
		C460.5,559.2,461.7,561.7,463.2,563.6z"/>
	<path d="M644.2,166.2c-7.7-0.6-15.1-3.1-22.5-5.6c-1.3-0.4-3-1.7-4.2-0.4c-1.4,1.5,0,3.1,0.8,4.5c1.8,3.3,3.2,6.6,2.7,10.4
		c-0.6,4.3-2.9,5.7-7,4.5c-4.5-1.3-7.4-5-10.8-7.8c-0.9-0.7-1.8-2-3-1.4c-1.4,0.7-0.3,2.1-0.2,3.1c0.4,2.8,1.1,5.6,1.1,8.4
		c0,5.6-3.5,7.7-8.7,5.2c-4.1-2-6.8-5.8-9.9-9.1c-10-10.8-16.6-23.6-21.3-37.5c-1.9-5.7-1.7-11.1,2.7-15.3s9.9-3.8,15.5-2
		c22.5,7.3,43.9,17.8,63.5,31.2c2,1.2,3.8,2.8,5.2,4.6c1.1,1.7,3.7,3.1,2.6,5.5C649.4,167.2,646.5,165.9,644.2,166.2z M574.2,124.2
		c-8.8-0.1-13.9,6-11.6,13.3c4.5,13.9,10.3,27.1,20.4,38c2.6,2.8,5.3,5.5,8.2,8.1c1.6,1.5,3.9,2.5,6,1.6c2.5-1.1,1.7-3.8,1.3-5.8
		c-0.8-4.2-2-8.4-3-12.6c-0.3-1.1-1.1-2.5,0.1-3.2s2,0.7,2.9,1.4c4.1,3.4,8.1,7,12.3,10.2c1.8,1.4,4.1,3.8,6.6,1.9
		c2.3-1.8,1.4-4.6,0.5-6.9c-1.5-4.4-3.7-8.6-6.6-12.3c-0.7-0.8-2.1-1.7-1.2-2.9s2.2-0.1,3.2,0.3c8,3.3,16.3,5.9,24.7,7.9
		c3.2,0.7,7.8,2.7,9,0c1.1-2.4-3.3-5.1-6.1-7c-14.9-10.5-31.2-18.6-48-25.4C586.6,127.8,580.1,125.1,574.2,124.2z"/>
	<path d="M598.2,425c0.2,6.1-0.3,12-3.8,17.2c-2.3,3.4-4.8,3.4-6.2-0.2c-4.7-11.8-6.4-23.7-0.7-35.7c0.8-1.6,1.4-3.6,3.8-3.4
		c2.1,0.2,3,2,3.7,3.6C597.3,412.3,598.5,418.7,598.2,425z M595.8,423.3c-0.6-3.4-1.3-7.6-2.2-11.8c-0.3-1.5-1.6-2.7-3.2-2.7
		c-1.1,0-2,0.7-2.1,1.8c-2.1,9-3,18,0.8,26.9c0.4,0.9,0.8,1.9,2,1.9c1.5,0,1.7-1.3,2.1-2.4C594.8,432.8,595.3,428.5,595.8,423.3
		L595.8,423.3z"/>
	<path d="M423.7,513.7c0,0.6,0,1.1-0.1,1.7c-0.6,2.7-0.3,6.3-3.5,7.1s-4.8-2.5-6.2-4.8c-3-5.2-5.6-10.5-6.7-16.5
		c-0.6-2.4,0-5,1.7-6.9c3.6-4.1,6.5-4.1,9.4,0.6C422,500.9,422.4,507.8,423.7,513.7z M420.9,512.7c-0.6-4.6-1.5-9.9-4.4-14.5
		c-0.8-1.2-1.9-2.6-3.6-2.2s-1.9,2.2-2.2,3.6c-1,5.9,2.1,10.5,5,15.2c0.9,1.4,1.7,3.2,3.8,2.5C421.2,516.6,420.8,514.8,420.9,512.7
		L420.9,512.7z"/>
</g>
<g id="图层_1_1_">
	<g>
		<path d="M1025,984v-7c-0.3,0.2-0.7,0.3-1,0.3v6.2C1024.3,983.6,1024.7,983.8,1025,984z"/>
		<path d="M419,1025h2c0.2-0.3,0.3-0.7,0.5-1h-2.1C419.3,1024.3,419.1,1024.7,419,1025z"/>
		<path d="M442.9,1025h2c0.1-0.3,0.3-0.7,0.4-1h-2.1C443.1,1024.3,443,1024.7,442.9,1025z"/>
		<path d="M381,1025h2c0.1-0.3,0.3-0.7,0.4-1h-2C381.2,1024.3,381.1,1024.7,381,1025z"/>
		<path d="M1008,1024.9h3c-0.3-0.3-0.6-0.6-1-0.9h-3.2C1007.2,1024.3,1007.6,1024.6,1008,1024.9z"/>
		<path d="M1025,1012c-0.3-0.2-0.7-0.5-1-0.7v2.1c0.3,0.2,0.7,0.4,1,0.6V1012z"/>
		<path d="M913,1025h2c0-0.3,0-0.7,0-1h-2C913,1024.3,913,1024.7,913,1025z"/>
		<path d="M543,1025h2c0.1-0.3,0.2-0.7,0.3-1h-2.2C543,1024.3,543,1024.7,543,1025z"/>
		<path d="M564,1025h3c0-0.3,0-0.7,0.1-1h-2.8C564.2,1024.3,564.1,1024.7,564,1025z"/>
		<path d="M558,1025h2c0.2-0.3,0.4-0.7,0.7-1h-2.4C558.2,1024.3,558.1,1024.7,558,1025z"/>
		<path d="M614,1025h3c-0.2-0.3-0.4-0.7-0.6-1h-2.9C613.7,1024.3,613.8,1024.7,614,1025z"/>
		<path d="M633,1025h4c0-0.3,0-0.7,0-1h-3.9C633,1024.3,633,1024.7,633,1025z"/>
		<path d="M605.1,1025h4c-0.1-0.3-0.3-0.7-0.4-1h-3.4C605.3,1024.3,605.2,1024.7,605.1,1025z"/>
		<path d="M574,1025h2c0-0.3,0-0.7,0-1h-2C574,1024.3,574,1024.7,574,1025z"/>
		<path d="M595,1025h3.1c0-0.3,0-0.7,0-1h-3C595.1,1024.3,595,1024.7,595,1025z"/>
		<path d="M797,1025l6,0.1c-0.2-0.4-0.5-0.7-0.8-1.1h-5.4C796.9,1024.3,797,1024.6,797,1025z"/>
		<path fill="#FE9CB5" d="M907.9,950.9c-0.1-4.8-1.1-8.5-5.3-12.1c-5.6-4.8-8.5-12.2-12.5-18.5c-20-31.9-40-63.8-59.8-95.8
			c-10.7-17.3-21.5-34.5-33.1-51.2c-5.4-7.7-10.8-15.6-17.9-22c-12.7-11.5-28.2-15-44.5-17.1c-2-0.3-4-0.1-6-0.5
			c-2.7-0.6-4.1,0.5-5.1,2.8c-1.3,3.1-3.2,5.9-5.7,8.1c-4.2,3.9-7.5,3-8.9-2.6c-0.6-1.9-1-3.9-1-5.9c0.3-3.8-2-4.6-4.9-4.7
			c-5.2-0.2-10.3-0.1-15.5-0.2c-2.5-0.1-3.8,1.5-5.1,3.4c-12.3,18.9-27.5,35.7-45.2,49.7c-4.1,3.2-8.5,5.8-13.7,6.8
			c-5.9,1.1-9-1.4-9-7.4c0-4.7,1.3-9.2,2.4-13.8c2-9.1,4.2-18.2,6.2-27.3c0.4-2,1.6-5.3-0.5-5.9s-4.7,1.3-6.1,4
			c-10.6,21.1-27.4,36.3-47.3,48.1c-4.4,2.7-9.2,3.8-8.1,10.4c0.2,1.1-1.2,1.9-2.1,2.7c-11.7,11-25.1,20-39.6,26.6
			c-3.4,1.5-7.2,5-10.6-0.8c-1.3-2.2-7.9,1.1-8.7,4.7c-0.4,1.8-0.9,3.3-2.4,4.1c-4.5,2.4-5.7,6.2-6.2,11
			c-5,40.5-13.8,80.4-26.2,119.3c-6.1,19.3-12.8,38.5-20.2,57.4h97.8c0.7-6.9,3.5-13.1,5.6-19.6c6.3-19.7,13.7-39,24.4-56.7
			c2.1-3.6,4.5-7,7.1-10.3c5.5-6.8,9.8-6.7,15.1,0.5c3.6,5,7,10.1,10.3,15.3c12.8,20.5,23.5,42.1,30.3,65.5c0.5,1.8,1.1,3.5,1.2,5.3
			h159.8c-0.5-1.7-1.9-2.6-3.3-3.5c-19.9-12.5-39.6-25.3-59.8-37.3c-8.8-5.3-19.1-7.8-28.2-12.7c-7-3.7-14.7-7.2-20.3-12
			c-8.1-7-16.4-14.4-22.8-23.5c-5.5-7.8-10.6-15.8-14.3-24.5c-0.4-1-1.7-2.4-0.4-3s1.7,1.2,2.1,2.2c5.7,11.9,12.6,23,21.8,32.7
			c11.9,12.4,26.1,22.4,41.7,29.5c3.5,1.6,7,3.1,10.5,4.6c0.8,0.3,1.8,1.3,2.6,0.4c0.2-0.2-0.8-1.7-1.4-2.4
			c-6.2-7.8-12.6-15.5-18-24c-16.6-25.7-27.8-54.5-32.9-84.6c-0.2-1.2-1.1-3.2,0.5-3.4s1.3,2,1.5,3.1c3.3,18.9,8.9,37.3,16.7,54.8
			c9.7,21.6,22.3,41.4,39,58.2c5.6,5.6,13.4,9.2,20.3,13.5c14.9,9.4,29.9,18.7,44.8,28.2c1.7,1.1,3.6,2.1,4.9,3.7H913
			c-1-22.3-1.8-44.5-4.7-66.7C908,955.2,907.9,953,907.9,950.9z"/>
		<path fill="#C1C7D3" d="M746.4,633.1c-1.1,8.2-0.3,16.6-0.3,24.9c-1.4,4.9,0,9.6-0.1,14.4s3.3,4.4,6.5,4.7c4.2,0.3,3.4-2.6,3.3-5
			c0-1.2-0.1-2.3-0.3-3.5c-4.8-26.5-2.8-52.6,3.3-78.6c0.6-2.3,1-4.5,1.2-6.9c0.3-4.1-3-4.3-5.7-4.8s-3.8,1.4-4.1,3.8
			c-0.3,3.3-0.5,6.6-0.8,9.9c-1,9.4-2.5,18.8-3,28.2C746.3,624.6,747,628.7,746.4,633.1z"/>
		<path fill="#FB8897" d="M775.4,378.1c-13.3-26.6-30.8-50.1-51.2-71.6c-4.7-4.9-4.8-4.8-8.5,0.7c-1.1,1.6-2.4,3.2-3.7,4.7
			c-7.9,9.6-17.4,17.4-27.6,24.3c-2.5,1.8-2.7,2.7,0.2,4.4c6.3,3.4,13,5.9,20,7.5c12.3,2.8,25,4.1,37.7,3.8c4.2-0.1,5.5,1.5,3.9,5.5
			c-2.2,5.9-5.6,11.4-9.8,16.1c-11.3,12.4-26.3,17-42.2,19.5c-10.6,1.7-10.7,1.5-9.9,12.4c0.1,1,0,2.4,0.5,2.7
			c1,0.5,1.5-0.9,2.3-1.5c5.6-4.6,11.5-8.1,19.2-5c5.8,2.4,11,5.8,14.6,11c14.9,21.4,21.4,44.9,16.9,70.9c-3.3,19-11.7,36-22.5,51.8
			c-2.8,4.1-6.5,7.2-11.7,7.9c-2.2,0.3-2.9,1.2-2.4,3.3c1.5,6,2.9,12,4.4,18c0.2,1.2,1.1,2.1,2.2,2.3c9.4,2.5,19-1,24.9-9.2
			c0.6-1,1.3-2,2-2.9c11-11.9,19-25.8,25.9-40.2c13.8-28.9,19.9-59.5,19.5-95.5c0-4.4,0.3-12.9-1.1-21.3
			C777.6,391.1,778.4,384.2,775.4,378.1z"/>
		<path fill="#E8EBE9" d="M986.8,995.1c-6.7-8.1-13.2-16.3-20-24.3c-16.1-18.9-31.6-38.2-49.8-55.2c-2.4-2.3-5-4.4-7.8-6.2
			c-2.1-1.4-3.9-1.4-3.5,2c1,8.4,2.1,16.8,3,25.3c0.2,2.9,2,5.4,4.5,6.7c11,6.4,20.5,14.8,29.5,23.7c12.6,12.4,24.4,25.5,35.4,39.3
			c2.3,2.8,5.4,4.9,8.9,5.8c8.3,2.7,16.5,5.6,23,11.9h14v-10.6c-10.6-6.5-21.7-12.1-33.8-15.5C988.8,997.3,987.6,996.4,986.8,995.1z
			"/>
		<path fill="#141215" d="M278.1,184.5c3.7,3.1,7.1,2.8,10.9,0.1c8-6,15-13.2,20.6-21.5c7.7-11.1,14.3-22.8,21.4-34.3
			c1.8-3.2,2.9-6.8,3-10.5c-0.2-1.9,0.6-4.3-1.5-5.5c-2.4-1.2-3.5,1.2-5,2.4c-12.1,10-23.2,21.1-33.1,33.2
			c-6.5,7.9-13.5,15.6-18.6,24.5C273.2,177.2,274.4,181.4,278.1,184.5z"/>
		<path fill="#FEDDCA" d="M693.4,481.8c-2.7-0.1-3.5,2.5-3.2,5.1c0.4,3.6,0.7,7.2,1,10.9c0.1,0.6,0,1.5,0.7,1.6
			c0.4,0,1.1-0.7,1.3-1.2c1.2-3,1.7-6.2,1.6-9.4l0,0c0.1-0.8,0.1-1.6,0-2.3C694.5,484.7,695.6,481.9,693.4,481.8z"/>
		<path fill="#C1C7D3" d="M722.4,569.1c-4,0-8,0-12,0c-2.5,0-3.8,0.4-2.5,3.5c4.4,10.5,7.7,21.3,9.9,32.4
			c2.2,10.8,5.6,21.3,6.5,32.3c0.9,11.3,2.7,22.5,3.8,33.7c0.9,9.4,0.7,9.2,9.6,8.9c4.2-0.1,5.4-1.8,5.4-5.7c0-11.5,0.4-23,0.5-34.4
			c0.1-20.9,3-41.5,5.3-62.1c0.4-3.8-0.8-5.5-4.2-6.5C737.4,568.9,729.9,568.9,722.4,569.1z"/>
		<path fill="#B32E3F" d="M546.5,116.9c-18.6,12.4-39,21-59.7,28.9c-4,1.5-4.3,3.2-2.9,6.6c3.1,7.6,6.3,15.3,6.9,23.4
			c0.7,8.4,5.4,10.6,12.3,12.2c16.6,3.7,32.7,9.1,48.9,14.3c13.8,4.4,26.8,11.2,42,11.5c16.5,0.2,31.9,6.8,47.3,11.7
			c12.4,4,25.4,5.8,37.5,11.7c7.9,3.8,16.3,6.7,24.9,8.4c10.5,2.1,18.7,9.3,28.1,13.8c18.7,8.8,33.6,22.5,48.4,36.4
			c1.8,1.5,3.2,3.4,4.2,5.5c4.5,12.1,14.8,21.5,17.2,34.6c0.3,1,0.8,1.9,1.3,2.7c0.4,0.7,0.6,1.9,1.6,1.6c0.5-0.2,0.8-1.4,1-2.1
			c1.3-6.9,2.2-13.8,2.4-20.8c0.2-5-0.7-10-1.5-14.9c-5.6-33.5-19.5-63.8-35.3-93.4c-7.9-14.7-16.5-28.9-25.8-42.7
			c-5.2-7.8-10.7-15.4-16.1-23c-3.5-5-8.8-8.2-12.2-13.6c-4.6-7.5-12.1-12.8-18.5-18.7c-8.7-7.9-18.2-15-28.2-21.2
			C646.6,75,620.6,64,593.5,57.2c-7.9-2-8.6-1.8-9.6,6.2c-1.2,9.3-2.8,18.4-8.7,26.2C567.3,100.1,557.5,109.4,546.5,116.9z
			 M642.8,154.3c2,1.2,3.8,2.8,5.2,4.6c1.1,1.7,3.7,3.1,2.6,5.5c-1.2,2.7-4.1,1.4-6.5,1.8c-7.7-0.6-15.1-3.1-22.5-5.7
			c-1.3-0.5-3-1.7-4.2-0.5c-1.4,1.5,0,3.1,0.8,4.5c1.8,3.3,3.2,6.6,2.7,10.5c-0.6,4.3-2.9,5.7-7,4.5c-4.5-1.3-7.4-5-10.8-7.8
			c-0.9-0.7-1.8-2-3-1.4c-1.4,0.7-0.3,2.1-0.2,3.1c0.4,2.8,1.1,5.6,1.1,8.4c0,5.7-3.5,7.7-8.7,5.2c-4.1-2-6.8-5.8-9.9-9.1
			c-10-10.8-16.6-23.6-21.3-37.5c-1.9-5.7-1.7-11.1,2.7-15.3s9.9-3.8,15.5-2C601.9,130.4,623.3,140.9,642.8,154.3z"/>
		<path fill="#141215" d="M424.2,71.4c-6.5,9.4-2.5,18.1,8.8,19.4c10.6,1.2,21.2,1.7,30.2,2.4c23.2-1,44-4.5,61.7-18.4
			c3.3-2.5,6-5.8,7.9-9.5c1-2,1.7-4.3,0.2-6.2c-3.7-4.5-7.4-9.2-13.9-9.8c-6.3-0.5-12.6-1.5-18.9-1.1c-16.6,1-33.2,2.2-49.5,5.4
			C439.2,55.8,430.7,62,424.2,71.4z"/>
		<path fill="#FEDDCA" d="M694.8,515.5c0.5,0,1-0.7,1.3-1.2c7.8-13.2,15.5-26.4,18.3-41.7c1.4-7.7-1.2-14.8-7-17.8
			c-5.2-2.7-11-4-16.8-3.6c-2.3,0.2-3.3,0.9-3.1,3.4c0.6,5.9,1,11.9,1.5,17.8c0.1,1.6,0.4,3.1,2,3.7c5.5,2.2,6.5,6.7,5.9,11.8
			c0.6,6.3-1.8,12.1-3.5,18c-0.8,2.5-0.8,5.3,0,7.8C693.7,514.5,693.8,515.5,694.8,515.5z"/>
		<path fill="#FDFBEE" d="M562.7,137.4c4.5,13.9,10.3,27.1,20.4,38c2.6,2.8,5.3,5.5,8.2,8.1c1.6,1.5,3.9,2.5,6,1.6
			c2.5-1.1,1.7-3.8,1.3-5.8c-0.8-4.2-2-8.4-3-12.6c-0.3-1.1-1.1-2.5,0.1-3.2c1.2-0.8,2,0.7,2.9,1.4c4.1,3.4,8.1,7,12.3,10.2
			c1.8,1.4,4.1,3.8,6.6,1.9c2.3-1.8,1.4-4.6,0.5-6.9c-1.5-4.4-3.7-8.6-6.6-12.3c-0.7-0.8-2.1-1.7-1.2-2.9s2.2-0.1,3.2,0.3
			c8,3.3,16.3,5.9,24.7,7.9c3.2,0.7,7.8,2.7,9,0c1.1-2.4-3.3-5.1-6.1-7c-14.9-10.5-31.2-18.6-48-25.4c-6.5-2.7-12.9-5.4-18.8-6.3
			C565.5,124.1,560.3,130.2,562.7,137.4z"/>
		<path fill="#561B21" d="M797.3,333.4c-0.7-0.3-1.9,2.7-2.3-0.5c-2-16.2-11.4-28.5-21.8-40c-13.8-15.3-31-26-49.2-35.3
			c-9.5-4.7-19.3-8.9-29.3-12.4c-8-2.9-16.9-3.8-24-9.1c-2.4-1.8-5.6-2-8.6-2.5c-4.5-0.5-8.9-1.6-13.1-3.3c-11.1-4.7-23-6.7-34.5-10
			c-6-1.7-12-3.7-19.7-4l-0.7,0.1c0.2,1.1,1.2,0.8,1.9,1.2c19.2,10.5,39.5,18.9,58.1,30.6c10.5,6.6,21,13.3,31.2,20.5
			c18.2,12.9,33.5,28.9,48.8,44.9c14.8,15.6,27.3,33.1,37.3,52.1c1.7,3.2,3.6,6.4,5.4,9.6c1.3,2.3,2.9,3.1,5.2,1.2
			c9.2-7.7,16.5-16.8,20.7-28.3C803.7,345.3,799.8,334.3,797.3,333.4z"/>
		<path fill="#FEDDCA" d="M698.1,534.4c1.2,6.7,3.8,8,10,4.8c1.8-0.9,3.4-2.2,4.5-3.9c13.5-20.7,24.6-42.3,23.4-69.6
			c1.6-15-4.3-29.7-11.7-43.8c-3.9-7.4-9-13.9-17-17.6c-8.8-4.1-24.6,1.9-22.1,15.4c1.3,7.1,0.8,14.3,1.2,21.4
			c0.1,1.5-0.1,3.7,1.2,4c1.6,0.5,2-1.8,2.8-3c3.8-5.5,7.7-10.9,13-15.1s10.2-4,13.5,0.6c2.5,3.9,4.4,8.2,5.5,12.8
			c0.2,0.7,0.7,1.8-0.4,2.1c-1.1,0.3-1.4-0.8-1.7-1.5c-1.3-3.2-2.2-6.6-3.8-9.8c-3-5.9-6.2-6.5-11.6-2.8c-5.4,3.7-8.8,9-12.4,14.2
			c-1.1,1.6-3.3,3.1-2.2,5.1c0.9,1.7,3.3,0.7,5.1,0.9c15.6,2,24.6,9.6,20.7,26.9c-2.6,11-7.1,21.5-13.4,31c-5.5,8.5-9.8,16.8-4.8,27
			C698,534.1,698,534.2,698.1,534.4z"/>
		<path fill="#FE9CB5" d="M978.5,1010c-8.7-11-18.1-21.7-27.7-32c-11.3-12.2-23.7-23.3-37.8-32.3c-0.9-0.6-1.9-1.8-3-1
			c-0.5,0.3-0.2,1.8-0.1,2.8c0.9,10.2,2.1,20.5,2.8,30.8c1,15.2,1.5,30.5,2.2,45.8h91.8c-6.4-5-13.8-7.8-21.5-10.1
			C982.7,1013.1,980.3,1012.3,978.5,1010z"/>
		<path fill="#E8EBE9" d="M481.2,897.5c3.4-16.6,5.9-33.4,8.3-50.2c0.3-1.8,1-4.4-1.9-4.8c-2.7-0.4-4.4,1.1-4.7,4
			c-0.1,1-0.5,1.9-0.7,2.9c-7.2,37.3-17.6,73.8-31.1,109.3c-8.7,22.3-18.5,44.1-29.6,65.3h21.7c2-7.4,5.4-14.3,7.9-21.5
			C463.2,968.1,473.9,933.3,481.2,897.5z"/>
		<path fill="#FE9CB5" d="M444.3,970.2c10.2-25.2,18.8-50.9,25.7-77.2c4-14.8,7.6-29.7,10.5-44.7c0.7-3.5-0.2-4.4-3.7-4.2
			c-4.8,0.3-10,1.1-14.4-0.2c-7.1-2-11.7,1.5-16.8,4.8c-0.7,0.5-1.4,0.9-2.1,1.4c-7.3,5-7.3,5-3.5,12.7c4.4,9,1.8,13.7-8.3,14.2
			c-6.7,0.2-13.3,0.1-20-0.3c-2.4-0.1-4.2,0.2-5.7,2.1c-10.2,13.8-19.2,28.1-18,46.4c0.3,4.5-0.1,9,0.1,13.5c0.8,13,3,25.8,6.8,38.2
			c0.3,0.9,0.3,2.4,1.5,2.3c1.1,0,1.1-1.5,1.4-2.4c1.8-5.6,2.4-11.4,3.2-17.1c0.2-1.2-0.5-3.3,1.3-3.2c1.5,0.1,0.8,2.2,0.9,3.4
			c0,0.7-0.1,1.3-0.2,2c-3.1,21.8-11.6,41.9-19.5,62.1h36c1-2.3,1.9-4.5,3-6.7C430.2,1001.8,437.7,986.2,444.3,970.2z"/>
		<path fill="#44476A" d="M617.7,979.7c-7.1-13.3-14.8-26.3-23.1-38.9c-0.7-1.3-1.9-2.2-3.4-2.5c-3.3,1.5-1.3,4.4-0.7,6.1
			c3.4,9.2,5.5,18.7,7.8,28.2c1.5,6.2,5,9.9,11.1,11.3c2.2,0.5,4.4,0.7,6.5,2s3.6,0,3.1-2.6C618.9,982.1,618.4,980.9,617.7,979.7z"
			/>
		<path fill="#922F4C" d="M499.1,0.6h0.5c-0.1-0.2-0.1-0.4-0.2-0.6H0v1024h381.4c4.1-11.2,8.1-22.5,12.3-33.7c1.3-3.6,1-7-0.2-10.7
			c-5.9-17.9-8.6-36.8-7.7-55.6c0.2-5.4,0.8-10.7-4.5-14.9c-3.6-2.9-2.1-7.8-0.8-11.8c2.3-7.6,6.4-14.3,11.1-20.6
			c3-4,2.7-6.2-1.4-9.2c-10.8-7.7-18.6-18-25.3-29.3c-1.9-3.2-3.4-6.5-5.2-9.7c-0.8-1.5-1-4.2-3.4-3.6c-1.9,0.5-1.1,2.9-1.1,4.5
			c-0.1,7,0,14,0,21c0,5.8,0,11.7-0.1,17.5c0.1,1.7,0,3.3-0.2,5c-0.7,3.6-2.4,6.7-6,8.1c-3.6,1.4-6-0.9-8.5-3
			c-8.5-7.2-11.3-17-12.5-27.5c-2.4-21-0.5-41.9,2.1-62.7c2.7-22,4.2-44,6.2-66.1c2.6-27.7,3.7-55.5,3.4-83.3
			c-0.5-33.4-2.2-66.9-11.5-99.4c-1.1-3.8-2.8-5.9-6.7-6.9c-10.1-2.7-19.9-6.8-28.9-12.2c-1.2-0.7-2.7-2.2-4-0.7s0.5,2.7,1.3,3.8
			c4.9,7.1,9.7,14.3,13.9,21.9c2.2,4,2.5,7.7-0.6,11c-3,3.3-7.3,2.4-10.7,0.7c-8-4-16-8.2-23.7-12.8c-10.2-6-20-12.6-29.3-19.9
			c-7.2-5.7-14-12-20.4-18.7c-8.3-8.8-15.2-18.8-20.5-29.7c-5.5-11.5-9.4-23.5-9.6-36.4c-0.2-11.2,0-22.3,2.5-33.3
			c1.3-5.5,4.1-10.5,6.9-15.4c5.4-9.4,11.4-18.3,17.5-27.3c8.7-12.6,18.6-24.2,28-36.1c4.5-5.7,9.5-10.7,14.1-16.3
			c1.9-1.9,2.4-4.8,1.4-7.2c-4.7-13.9-9.1-27.8-13.5-41.8c-1.5-4.7-0.7-9.6-0.8-14.4c-0.5-18.7,4.9-35.7,13.5-52.2
			c14.5-27.6,34.6-50.8,56.3-72.8c6.7-6.7,13.2-13.9,20.7-19.5c8.7-6.4,17.8-12.3,27.3-17.5c11-6.2,21.9-12.8,33.4-18.1
			c9.6-4.4,19.9-7.5,30-10.7c16.5-5.1,33.6-7.8,50.8-9.9c8.9-1.1,17.8-2.3,26.9-2c2.3,0.1,3.3-0.8,3.2-3.3
			c-0.4-9.8,0.4-19.6-4.7-28.7C500.4,9.1,500.9,4.4,499.1,0.6z"/>
		<path fill="#FFD0BD" d="M751.7,169.1c11.6,3.5,23,7.9,34,13.1c2.5,1.2,3-0.3,2.5-2.4c-0.4-1.6-1-3.2-1.5-4.8
			c-3.7-11.8-11.8-20.7-19.7-29.8c-2.4-2.7-2.5-4.4-0.2-7.1c8.3-10,16.2-20.3,25.6-29.3c6.8-6.6,13.5-13.4,20.5-19.7
			c2.4-2.2,1.6-2.9-0.4-4.2c-8.4-5.8-17.2-10.8-26.4-15.2c-10.4-5.1-21.4-8.4-32.6-10.9c-1.2-0.3-3-0.1-3.1-1.9
			c0-1.4,1.7-1.4,2.7-1.8c4.8-1.9,9.7-3.5,15-3.5c2.9,0,3.1-1.2,1.5-3.3c-2.3-2.9-5.3-5.1-8.7-6.4c-7.2-2.8-14.5-3.1-22.1-2.2
			c-5.5,0.7-5.9-0.5-5.2-5.9C735.1,22.6,739.9,12,743,1h0.3c0.1-0.3,0.2-0.7,0.3-1h-243c0.1,0.2,0.1,0.4,0.2,0.6h3.3
			c2.4,13.2,6.1,26.3,5.6,39.9c-0.1,3.4,1.7,4.1,4.7,4c28.4-0.9,56,3.5,83.3,10.8c42.2,11.2,79.6,31.1,111.1,61.5
			c14.7,14.1,27.5,30,38.2,47.3C748.2,166.1,749.2,168.4,751.7,169.1z"/>
		<path fill="#922F4C" d="M744.8,0c-0.1,0.3-0.2,0.7-0.3,1h1.5c-2.9,9.4-7.6,18.1-8.9,28c-0.8,6,0,7.2,6.2,6.9
			c6.7-0.2,13.3,1.1,19.4,3.9c4.1,1.9,7.5,5,9.7,9c2,3.4,1,4.8-2.8,5.2c-2.5,0.3-6.5-1.1-6.8,2.3c-0.3,3.8,4,2,6.2,3
			c2.6,1.1,5.3,2.1,7.8,3.4c12.7,6.6,25.7,12.7,37.4,21.1c5.4,3.8,5.4,3.9,0.1,7.8c-12.3,8.9-21.3,21-31.2,32.2
			c-3.4,3.9-6.9,7.7-10.3,11.5c-5.2,6-5.3,7.2-0.4,13.6c4.8,6.2,10.1,11.9,13.7,19c2.1,4.2,3.4,8.7,3.8,13.4
			c0.5,5.1-0.5,5.7-5.1,3.6c-6.1-2.7-12.2-5.4-18.3-8c-1.4-0.6-2.8-1.1-4.2-1.5c-2.4-0.5-5.5-1.4-7.1,0.7c-1.3,1.6,1.5,3.3,2.4,4.9
			c13.9,24.6,28.1,49.2,38.1,75.8c7.7,20.3,13.8,41,14.3,63c0.2,9.2-0.9,18.8-4.1,26.9c-4.6,11.6-11.2,22.8-22.1,30.2
			c-4,2.8-4.9,5.8-4.2,10.5c3.5,21.9,3.8,44.1,0.9,66.1c-5.1,37.8-20,71-43.3,100.8c-1.9,2.5-3.6,5.2-5.3,7.8
			c-1.9,2.9,0.6,3.2,2.2,3.4c4.5,0.5,8.8,1.1,12.8,3.7c2.1,1.3,4.7,1.9,5,5c0.1,1.2,1.3,1.2,2.3,1.6c8.9,2.8,9.3,3.4,7.2,12.3
			c-4.4,18.6-6.9,37.4-6.1,56.4c0.4,10.5,2,20.8,3.1,31.3c0.2,1.9,1,3.1,3.4,3.5c5.8,1,11.5,2.3,17.2,4c8.8,2.5,17,7,23.9,13
			c1.1,1,2.7,1.2,3.9,2.1c6.3,4.6,12,10,17,15.9c3.9,4.8,9,8.8,12.5,14.1c6.6,9.8,14.8,18.5,19.5,29.6c1.7,3.9,4.5,7.2,6.8,10.9
			c3.7,5.7,6.8,11.8,9.4,18.1c1.5,3.8,4.1,7.6,5.9,11.5c4.3,9.6,7.8,19.5,12.2,29c2.8,6.2,6.7,11.8,10,17.8
			c5.5,10,13,18.7,19.7,27.8c8,11,16.4,21.8,26,31.7c3.3,3.5,6.5,7.2,10.1,10.4c7.9,7.1,13.8,16.3,23.2,21.9c1.6,1,2.1,3.2,3.7,4.6
			c8.7,7.9,17.4,15.7,25.6,24.1c3.3,3.6,7.1,6.8,11.2,9.4c1.4,0.8,2.7,2.1,4.5,1.9V0H744.8z"/>
		<path fill="#E8EBE9" d="M568.3,1013.7c-0.5,0.3-1,0.7-1.4,1.1c-2.1,3-4.1,6.1-6.2,9.2h3.6c0.8-3,2.3-5.7,3.7-8.5
			C568.2,1014.9,568.3,1014.3,568.3,1013.7z"/>
		<path fill="#FE9CB5" d="M991,955.5c-20.5-18.3-39.6-38.1-57.4-59.1c-18.6-22.3-36.6-45.2-48.5-71.8c-9.4-21-18.3-42.1-30-62
			c-13.2-22.5-28.3-43.4-48.9-60c-21.4-17.2-45.6-23.1-72.5-20.3c-2.2,0.2-5.4-0.1-5,4c0.3,3.4,0.1,6.9,5,6.9c1.7,0,3.3,0.4,4.9,0.6
			c14.2,1.2,27.9,5.4,40.3,12.4c20.4,11.6,33.6,29.4,44.5,49.9c26.3,49.2,53.6,97.9,80.5,146.7c0.5,1.2,1.4,2.3,2.6,2.9
			c7.7,3.4,13.3,9.3,18.9,15.2c19.3,20.3,37.5,41.5,55,63.3c5.9,7.4,12.3,13.1,21.7,15.6c8,2.1,15.1,6.5,21.8,11.4v-27.8
			c-0.8-0.4-1.7-0.9-2.4-1.5C1011.4,973.2,1001,964.5,991,955.5z"/>
		<path fill="#44476A" d="M569.2,1008c1.3-1.9,1.4-4.5-1.3-4.4c-3.8,0.2-7.2-0.9-10.8-1.4c-3.1-0.4-4.9,0.8-6.1,3.7
			c-2.3,5.9-4.2,11.9-5.7,18h13.1c0.7-2.2,2.3-4,3.6-5.9C564.2,1014.7,566.9,1011.4,569.2,1008z"/>
		<path fill="#E8EBE9" d="M605.2,1012.6c-0.8,0.4-0.3,1.1-0.1,1.7c1.2,3.3,2.4,6.5,3.6,9.8h4.8c-2-3.8-4.8-7.1-7.3-10.5
			C605.9,1013.1,605.3,1012.5,605.2,1012.6z"/>
		<path fill="#44476A" d="M632.4,1018.3c-2.6-3.4-3.2-7.5-3.9-11.6c-0.5-3.4-1.7-6.8-3.5-9.8c-0.6-1-1.2-2.1-2.7-1.8
			c-6.1,1.6-12.2,2.9-17.2,7.3c-2.3,2-2.3,3.5-0.4,5.7c4.4,4.9,8.3,10.2,11.7,15.9h16.7C633.3,1022,633.8,1020.1,632.4,1018.3z"/>
		<path fill="#44476A" d="M572.6,1013c-1.6-0.3-1.7,1.7-2.2,2.7c-1.4,2.7-2.9,5.3-3.2,8.3h6.9c-0.1-2.5-0.1-5-0.3-7.5
			C573.6,1015.3,573.2,1013.1,572.6,1013z"/>
		<path fill="#44476A" d="M581.5,942.1c-1.8-0.4-2.3,1-3,2c-6.1,8-10,17.2-14.3,26.2c-3,6.3-5,13-7.4,19.5c-0.5,1.3-0.8,2.8,0.5,3.7
			c1.4,1.1,1.8-0.9,2.8-1.3c7.2-3.8,13.2-8.2,15.6-17c2.7-10.3,3.5-21.1,7-31.3C582.8,942.9,582.6,942.3,581.5,942.1z"/>
		<path fill="#F8E19B" d="M602.4,999.7c5.6-2.1,11-4.8,16.5-7.2c0.7-0.3,1.7-0.9,1.7-1.5c0.1-1-1.1-1-1.8-1.3
			c-4.2-1.5-8.4-3.4-12.9-3.7s-6.9-2.7-8.1-7.2c-3.1-12.3-6.7-24.4-10.1-36.6c-0.2-0.8-0.8-2.1-1-2.1c-1.2,0.3-1,1.5-1.2,2.4
			c-2.8,12.7-5.7,25.3-8.3,38.1c-0.8,3.7-2.3,6.3-5.7,8.1c-4.8,2.4-9.2,5.3-13.4,8.7c-0.7,0.6-2.1,1.4-2,1.9
			c0.2,1.2,1.6,0.7,2.5,0.8c4,0.4,8,0.8,11.9,0.9s5.9,1.5,5.8,5.6c-0.2,5.8-0.1,11.7-0.2,17.5h19.1c0.6-5.8,1.3-11.6,1.8-17.3
			C597.3,1003.1,598.9,1001,602.4,999.7z"/>
		<path fill="#44476A" d="M601.7,1012c-0.2-0.4-0.6-0.7-1.1-0.7c-0.8,0.1-0.8,0.9-0.9,1.5c-0.7,3.7-1.7,7.4-1.6,11.2h7.3
			C606.1,1019.5,602.9,1016,601.7,1012z"/>
		<path fill="#E8EBE9" d="M899.9,899.5c-6.9-12.3-13.7-24.8-20.5-37.2c-20.6-37.5-41.8-74.7-61.7-112.6c-7-13.3-16.7-25-28.5-34.3
			c-16.5-13.1-35.9-18.4-56.5-20.2c-3.1-0.3-3.4,1.6-3.7,4c-1,9.2-0.7,18.6-2.8,27.8c-0.8,3.5,1.2,4.5,4.1,4.5
			c7.9,0,15.5,2,23.1,3.7c15.3,3.3,27,12,36.2,24.1c23.5,30.9,42.9,64.6,63.7,97.3c16.5,25.8,32.3,52,48.4,78.1
			c0.9,1.4,1.8,3.6,3.5,3.1c2.3-0.6,0.1-2.8,0.7-4.4c-0.4-3.1-0.6-6.2-1.2-9.3C903.4,916,904.3,907.3,899.9,899.5z"/>
		<path fill="#FEDDCA" d="M524.2,389.8c-0.1-1.9-1.5-2.3-2.7-2.8c-24.5-10.2-47.7-23.2-69.2-38.6c-0.7-0.4-1.4-0.7-2.2-1
			c-0.5,1.1,0.5,1.8,0.9,2.6c14.7,24.2,31.6,47,50.4,68.1c2,2.2,3.2,2.4,4.8-0.2c5.4-8.6,11-17.1,16.4-25.6
			C523.3,391.4,523.7,390.5,524.2,389.8z"/>
		<path fill="#FEDDCA" d="M524.3,414.2c7.5-5.2,14.6-11,23.1-14.6c0.7-0.4,1.3-0.9,1.9-1.4c-1-0.4-1.5-0.7-2.1-0.9
			c-3.7-1.4-7.5-2.7-11.2-4.2c-2.4-1-3.7-0.3-4.7,1.9c-2.8,6-5.8,12-8.6,18c-0.3,0.6-0.7,1.6-0.5,1.8
			C523.2,415.6,523.7,414.6,524.3,414.2z"/>
		<path fill="#FEDDCA" d="M591.4,370.9c-8-3.9-15.2-8.9-22.6-13.7c-0.8-0.5-1.6-1.9-2.4-1s0.3,1.8,0.9,2.5
			c5.8,8.2,12.9,15.2,20.2,22.1c0.6,0.5,1.3,0.9,1.9,1.3l0,0c2.2-2,3.3-4.5,4.5-7.1C594.8,372.7,593.1,371.8,591.4,370.9z"/>
		<path fill="#E8EBE9" d="M395.5,875.6c-0.1,0.1-0.2,0.3-0.4,0.4c-0.9,1.2-1.9,2.3-2.8,3.5c-4.7,7.2-9.8,14.2-10.6,23.2l0,0
			c0.1,3.7,0.4,4.7,1.8,6.1c1.7,1.7,3.2,2,4-0.6c3.6-11.3,9.5-21.7,17.2-30.7c0.7-0.8,1.3-1.4,0.2-2.5
			C402.2,872.6,398,872.8,395.5,875.6z"/>
		<path fill="#FEDDCA" d="M555.9,347.1c-2.7-2.7-4.4-1.9-5.6,1.5c-4.5,12.9-9.8,25.5-15.1,38c-0.6,1.5-1.2,3.2,0.6,3.9
			c5.2,2.2,10.5,4.1,15.9,6.2c1.8-0.6,3.5-1.1,5.2-1.8c9.3-3.7,18.9-6.4,29.1-6.1c1.8,0.1,4.5,0.9,5.1-0.6c0.8-2-1.9-3.2-3.2-4.4
			c-11.5-9.9-21.4-21.4-29.6-34.2C557.7,348.6,556.8,347.8,555.9,347.1z"/>
		<path fill="#FEDDCA" d="M615.5,387.4c2.4-2.9,1.8-4.8-2-6c-4.2-1.5-8.3-3.3-12.2-5.4c-2.3-1.2-4.6-2.1-5.8,0.9s-5.9,5.4-1.8,9.4
			c4.5,4.3,11,3,15.4,5.8C613.4,392.5,614,389.3,615.5,387.4z"/>
		<path fill="#221917" d="M591.1,439.3c1.5,0,1.7-1.3,2.1-2.4c1.5-4.1,2.1-8.4,2.6-13.6c-0.6-3.3-1.3-7.6-2.2-11.8
			c-0.3-1.5-1.6-2.7-3.2-2.7c-1.1,0-2,0.7-2.1,1.8c-2.1,9-3,18,0.8,26.9C589.5,438.3,590,439.3,591.1,439.3z"/>
		<path fill="#280E0F" d="M611.6,398.8c0-2.7-0.6-3.6-4-4.8c-13.3-4.8-26.7-3.3-39.8,0c-17,4.3-30.9,14.6-45,24.3
			c-3.4,2.3-4.9,6.2-6.8,9.7c-0.7,0.8-0.5,2,0.3,2.7c1,0.8,1.8,0.1,2.5-0.7c9-9.9,20.7-16,31.6-23.3c16.2-10.9,33.8-11.7,52.2-9.7
			c2.7,0.3,4.3,2,4.8,4.9c0.8,5.1,2,10.1,2,15.3c0,1-0.2,2.6,0.7,2.6c1.7,0,0.9-1.8,1-2.8C611.2,411.1,610.3,405,611.6,398.8
			L611.6,398.8z"/>
		<path fill="#FDFBEE" d="M264.9,220.6c3.8,0.7,7.7,0.5,11.4-0.6c5.1-1.5,5.7-1,5.8,4.4c0.1,4,0,8,0,13.1c-1.4,10.3,1.6,21,6.2,31.3
			c1.2,2.7,2.2,3.8,4.7,0.8c11-13,22.9-25.1,35.6-36.4c1.9-1.7,2-3.4,1.8-5.7c-1.3-13.7-2.5-27.5-3.6-41.2c-0.1-1.1-0.8-2.9,0.5-3.1
			c1.8-0.3,1.6,1.7,1.7,2.9c1.1,12.3,2.1,24.5,3.1,36.8c0.2,1.7-0.8,4.1,1.4,4.9c1.8,0.7,2.9-1.2,4.2-2.2c20.8-17,43.2-31.1,68.3-41
			c3.2-1.2,3.5-2.8,2.8-5.6c-1.9-6.9-3.6-13.9-5.3-20.8c-0.2-0.9-0.9-2.3,0.2-2.7c1.6-0.5,1.6,1.3,1.9,2.3
			c1.6,6.1,3.4,12.2,4.8,18.4c0.9,4.1,2,7.1,7.1,4.5c1.4-0.5,2.9-0.8,4.4-0.8c21.3-2.1,42.5-2.3,63.4,3.4c3.6,1,4.9-0.1,4.2-4
			c-1.7-9.4-4.7-18.4-7.9-27.3c-2.1-5.8-1.8-6.1,4-8.2c24.7-9.3,49-19.4,69.8-36.1c15.2-12.2,27-26.8,25.8-48.1
			c-0.2-3.8-1.4-5.6-5.2-6.5c-14.7-3.4-29.6-4.5-44.5-5.7c-2.4-0.2-4.9-0.7-7.2,0.4c1.8,1.4,3.7,2.7,5.5,4.1
			c10.1,8,11,15.7,2.3,23.6c-7.6,7-16.6,12.4-26.5,15.8c-19.3,6.5-39.9,8.5-60.1,5.7c-7-1-14.3-1.6-20.8-5c-7.5-3.9-9.3-9.4-5.7-17
			c2.5-5.1,5.9-9.7,9.9-13.7c0.6-0.6,1.4-1.3,0.9-2.1s-1.5-0.2-2.3,0.1c-2.5,0.8-5,1.8-7.5,2.6c-30.1,9.7-57.4,24.9-82.9,43.3
			c-1.8,1.3-2.2,2.5-1.1,4.6c3.5,6.9,2.4,13.5-1.3,20c-8.1,14.2-17.2,27.7-27.3,40.6c-5.5,7.1-11.4,13.9-19.3,18.6
			c-6.1,3.6-10.8,2.2-14.1-4c-0.6-1.2-1.2-2.4-1.6-3.7c-0.8-2.5-1.7-2.7-3-0.3c-2.8,5.1-5.5,10.3-8.4,15.3
			c-2.8,4.8-4.6,9.8-3.8,15.6C257.6,216.8,259.9,219.8,264.9,220.6z"/>
		<path fill="#9A3553" d="M571.7,426.3c-1.8,1.4-2.2,3.6-1.7,5.9c0.7,2.9,1.2,5.9,1.9,8.8c3,12.6,9.7,22.8,20.4,30.4
			c3.3,2.3,5.5,2.2,7.4-1.7c5.3-10.4,9.3-21.1,8.1-31.6c0-2.7,0-4,0-5.3c0.1-8.3-1.1-16.6-2.3-24.8c-0.5-3.5-1.2-7.5-6.2-7.8
			c-5.6-0.3-11.3-0.8-16.9-0.9c-7.7-0.1-7.7,0.1-6.1,7.4C577.8,414,578.4,420.9,571.7,426.3z M587.3,406.3c0.8-1.6,1.4-3.6,3.8-3.4
			c2.1,0.2,3,2,3.7,3.6c2.5,5.8,3.6,12.1,3.3,18.5c0.2,6.1-0.3,12-3.8,17.2c-2.3,3.4-4.8,3.4-6.2-0.2
			C583.4,430.3,581.6,418.3,587.3,406.3z"/>
		<path fill="#FB8897" d="M415.5,798.5c-3.5-16.9-4.2-34-4.6-51.1c0-2.5-1-4.9-2.8-6.7c-7.2-8.1-14.3-16.2-21.5-24.3
			c-1.5-1.7-2.8-3.2-1.5-5.7c4.5-8.7,9.2-17.4,16.2-24.5c2.2-1.8,3-4.9,2-7.5c-1.9-6.8-2.5-13.8-0.6-20.7c1.1-4.1,0-6.1-3.5-8.4
			c-13.6-9.1-22.6-21.5-24.4-38.2c-2.6-23.7-9.2-45.8-21.7-66.3c-4.8-7.8-9.9-12.1-19.4-10.9c-4.2,0.5-5,1.8-3.7,5.3
			c3.2,8.5,4.5,17.4,6.1,26.2c2.9,16.6,4.2,33.3,5.2,50.1c1.2,20.5,0.9,41,0.3,61.4c-0.5,16.4-2.6,32.8-3.4,49.2
			c-0.8,18.1-2.6,36.2-5,54.1c-3.1,23.1-4.1,46.4-3,69.7c0.5,9.8,3.3,19.1,11.2,25.9c2,1.7,3.7,4.3,6.8,3c3-1.2,3.7-3.9,4-6.9
			c1.4-12.8,0.2-25.6,0.6-38.4c0.6-10.7-1-21.3-1.2-32c0-1.1-1.5-2.9,0.5-3.1c1.2-0.1,1.4,2,1.6,3.3c0.5,3.8-0.2,7.7,1.4,11.3
			c6,14.3,13.2,27.9,23,40.2c14.4,18.2,33.2,24,55.5,21.2c6.3-0.8,7.8-4.1,5-9.9c-1.5-3.1-3.2-6.2-4.6-9.4
			C425.9,837.1,419.7,818,415.5,798.5z"/>
		<path fill="#C1C7D3" d="M619.2,707.3c-3.3-18-7.2-35.9-11.6-53.7c-2.9-11.6-6.1-23.2-9.2-34.7c-0.5-1.9-0.9-4.5-4-3.9
			c-4.9,0.1-8.3,3.8-6.4,7.3c12.6,24,17.1,50.3,22.4,76.3c2.2,10.6,3.8,21.3,5.2,32c0.2,1.8,0,4.5,2.8,4.6s3.3-2.3,4-4.4
			c0.4-1.3,0.5-2.6,0.2-3.9C621.3,720.4,620.4,713.8,619.2,707.3z"/>
		<path fill="#C1C7D3" d="M595.7,647.1c-3.3-10.6-7.2-21.1-14.3-30c-2.7-3.4-5.5-4-9.5-2c-15.3,7.8-30.1,16.4-44.4,26
			c-2.7,1.8-2.5,3.2-1.1,5.6c2.9,5,5.5,10.2,7.9,15.6c9.8,22.9,16.4,46.8,22,71c3.7,15.9,7.6,31.7,10.1,47.9
			c0.9,5.8,1.6,6.3,5.4,3.9c16.4-10.4,30.2-23.4,40.5-40.1c1-1.7,2.2-3.3,2.2-4.8c-1.1-8.1-1.8-15.5-3.1-22.9
			C607.2,693.6,602.8,670,595.7,647.1z"/>
		<path fill="#C1C7D3" d="M532.2,663.3c-5.1-12-4.9-11.8-16.3-5.6c-3.8,2.1-3.4,3.8-2.2,6.9c5.9,14.7,11.6,29.4,17.3,44.1
			c9.9,25.3,18.4,51.1,26.9,76.8c0.6,1.7,0.7,3.8,3.4,3.4c2.4-0.4,3.3-2,3.2-5c-1.5-11.1-4-22.6-6.7-34.1
			C551,720.5,544.1,691.2,532.2,663.3z"/>
		<path fill="#E8EBE9" d="M705.7,700.9c-0.2-1.6-0.1-3.8-2.2-3.9c-1.7-0.1-2.2,1.8-2.8,3.1c-2.7,5.7-5.4,11.5-7.8,17.3
			c-1.6,3.7-6.6,7.7-4.6,10.7c1.8,2.6,7.8,0.7,11.9,0.8c8,0.2,8,0.1,7.8-8.9C708.1,714,706.7,707.5,705.7,700.9z"/>
		<path fill="#C1C7D3" d="M625.5,728.9c0.2-0.8,0.5-1.6,0.7-2.3s0.4-1.6,0.5-2.4c3.8-22.3,7.2-44.6,10-67c2.8-21.8,3.9-43.7,6-65.2
			c0.1-6.5-0.5-6.9-6-4.5c-11.7,5.2-23.2,10.8-34.5,17c-3.9,2.1-4.5,4.6-3.4,8.5c8,27.8,15.4,55.8,20.5,84.3
			c1.8,9.8,3.6,19.6,5.3,29.4C625,727.4,625.2,728.2,625.5,728.9z"/>
		<path fill="#C1C7D3" d="M555.1,783.8c-8.7-25.3-16.9-50.8-26.7-75.8c-5.8-14.7-11.5-29.5-17.3-44.2c-2.4-6-2.6-6-8.5-2.6
			c-14.8,8.7-29.5,17.5-44.2,26.3c-6.1,3.7-5.9,3.7-2.5,9.9c18.2,32.8,34.3,66.6,46.3,102.2c2.6,7.7,5.3,15.4,7.6,23.2
			c0.9,3,2.1,6.8,6.9,4.5c14.6-6.6,28.1-15.4,40.1-26c1.1-1,2.4-1.9,2.2-3.7C557.8,793,556.7,788.3,555.1,783.8z"/>
		<path fill="#C1C7D3" d="M475.2,779.1c-12.5-22.5-27.8-43.1-44.5-62.7c-2.9-3.4-3.5-6.6-1.3-10.4c0.7-1.5,1.5-2.9,2.4-4.3
			c1.6-2.1,1.1-3.4-1.1-4.8c-5.9-3.8-11.6-7.8-17.4-11.8c-3.7-2.6-6.8-1.8-9.6,1.4c-5.5,6.1-9.8,13-14,20c-3,5.1-2,8.6,1.8,12.7
			c11.1,12,22.1,24,32.5,36.5c18.4,21.8,30.2,48.3,34.2,76.5c1.4,9.7,1.3,9.7,12,9.7c8.2-0.1,16.3-0.5,23.5-5.2
			c3.3-2.1,4.4-4.4,3-8.3C491.2,811.3,483.9,794.8,475.2,779.1z"/>
		<path fill="#E8EBE9" d="M454.8,836.4c-7.3,2.8-14,6.8-19.8,12c-0.8,0.9-1,2.2-0.3,3.2c0.2,0.7,1,1.2,1.7,1
			c0.8-0.5,1.8-1.2,2.7-1.9c4.3-3.4,8.9-6.3,13.7-8.9c1.5-0.8,3.1-1.5,3.7-3.2C457,837.3,456.9,835.6,454.8,836.4z"/>
		<path fill="#922F4C" d="M415.7,784.9c2.4,19.3,7.7,38.1,14.7,56.3c1.4,3.7,3.7,4.5,7,2.4c3.8-2.4,7.4-5.3,11.4-7.1
			c4.8-2.2,5.8-5.9,5.9-11.2c-0.2-0.7-0.5-2.2-0.7-3.7c-1.7-10.6-6-20.4-10.1-30.1c-6.4-14.8-15.6-28.2-26.3-40.3
			c-0.8-1-1.7-2.5-3.2-2c-1.8,0.6-1.3,2.5-1.3,3.9C412.9,763.9,414.4,774.4,415.7,784.9z"/>
		<path fill="#686674" d="M506.3,818.7c-4.1-13.2-8.8-26.2-13.7-39.1c-10.5-27.2-23.4-53.3-37.2-79c-0.9-1.7-2-3.1-4-3.5
			c-3.9-0.7-7.8-1.6-11.7-2.4c-1.8-0.4-4.3,0.3-4.1,1.7c0.6,3.9-2.1,6.2-3.6,9c-2.1,3.9-2,6.8,0.9,10.3
			c27.8,33.1,51.7,68.5,65.3,110.1c0.4,1.1,0.7,2.2,2.4,1.9c3.8-0.6,6.5-4.1,5.9-8C506.5,819.4,506.4,819,506.3,818.7z"/>
		<path fill="#C1C7D3" d="M404.1,666.2c-0.1,3.7,0.3,7.3,1.3,10.8c0.4,1.8,1.2,3.8,3.6,3.3c5.3-1,8.1-4.7,10.1-9.4
			c1.8-4.2,0.3-7.6-3.1-10c-2.7-1.9-5.4-5.7-9-4.1S404.4,662.8,404.1,666.2L404.1,666.2z"/>
		<path fill="#C1C7D3" d="M426.8,675.7c2.8,0,6.3-3,6.3-5.1c0-1.2-7.1-6-8.9-5.6c-3.8,0.9-2.5,4.7-2.8,7
			C420.8,676,425.1,674.6,426.8,675.7z"/>
		<path fill="#C1C7D3" d="M414.7,683.3c5.2,3.6,10.4,7.1,15.6,10.7c1.4,0.9,2.6,1.3,4,0s1.1-2.7,0.4-4.1c-1.3-2.5-2.8-4.9-3.9-7.5
			c-1.9-4.8-6.4-4.8-10.2-6.1c-3,0.5-4.7,3-6.8,4.8C412.6,682,413.9,682.8,414.7,683.3z"/>
		<path fill="#FEDDCA" d="M376.4,478.6c2.5-1,5.5-0.7,7.8-2.4c-1.7-2-4.4-2.1-6.5-3.3c-1.1-0.7-2.3-1.1-3.7-1.8
			c-0.4,0.1-1.1,0.1-1.2,0.3c-0.7,2.1,1,3.7,1.2,5.6C374.1,478.5,375,479.2,376.4,478.6z"/>
		<path fill="#280E0F" d="M512.1,428.7L512.1,428.7c1.5-0.6,1.8-2,2.4-3.1c4-7.1,6.7-14.9,10.1-22.3c4.9-10.5,10.2-20.9,14.4-31.8
			c0.3-0.9,1.2-2.3,0.3-2.7c-1.1-0.5-1.3,1.1-1.7,1.9c-5.5,10.3-11.5,20.3-18,29.9c-4.2,6-7.9,12.3-11.7,18.6c-1,1.7-2,3.7-0.3,5.5
			C509.1,426.3,510.2,428.1,512.1,428.7z"/>
		<path fill="#FB8897" d="M347.9,532c6.7-0.6,9.3-4.6,6.5-10.5c-2.3-4.8-4.7-9.5-7.1-14.3c-0.7-1.4-1.4-2.7-3.3-2.5
			c-2.5,0.2-3-0.5-0.9-2.3c1.2-1,0.7-2.1,0-3.1c-1.8-2.6-2-6.6-6.1-7.3c-0.7-0.1-1.5-0.9-0.8-1.4c3.5-2.5,0.1-4.5-0.7-6.3
			c-2.2-5.2-4.9-10.2-7.4-15.3c-6.3-12.7-11.8-25.8-19.2-37.8c-7.5-12.2-14.8-24.5-21.4-37.2c-0.9-1.8-3.2-5-1.6-5.5
			c2.5-0.8,2.7,3,3.7,4.9c12.7,25.5,27.5,49.5,49.6,68.2c8.5,7.2,18.2,13,28.6,17.1c1,0.4,2.3,1.2,3.3,0.3c1.2-1,0.7-2.5,0.2-3.7
			c-1.5-4-3.4-7.3-7.8-9.1c-5.8-2.6-11.4-5.6-16.8-8.8c-3.3-1.9-6.4-4.2-9.6-6.3c-0.7-0.4-1.5-1.1-1-2s1.5-0.5,2.3-0.2
			c1.4,0.5,2.8,1.1,4.2,1.6c6,2.1,11.9,4.2,17.8,6.4c4.2,1.5,4.7-0.2,3.6-3.7c-0.5-1.4-0.9-2.9-1.3-4.3
			c-3.8-14.1-7.7-28.2-11.2-42.5c-2.9-11.8-3.7-24-7.7-35.6c-5.1-14.7-7.7-30-10.5-45.2c-0.3-1.6-1-4.4,0.3-4.5
			c2.3-0.3,1.5,2.4,1.7,3.8c3.8,22.4,8.7,44.4,17.9,65.4c13.1,29.9,32.8,53.1,64.3,64.6c6.6,2.5,13.3,4.2,20.3,5.3
			c1.8,0.2,3.7,0.1,4.9-1.6c1.2-1.8,0-2.9-0.9-4.1c-19-27-34.7-56.6-60.1-78.8c-0.4-0.3-0.7-0.7-1-1.1c-0.6-1-2.8-1.8-1.6-3
			c0.8-0.7,2.3,0.9,3.1,1.9c5,6.3,11.3,11.3,17.1,16.8c18.9,17.8,39.4,33.1,63.5,43.6c14.4,6.3,29.3,7.2,44.5,6.2
			c5.5-0.4,6.9-3.9,3.4-8.2c-2.7-3.4-5.7-6.5-8.6-9.7c-16.6-18.9-32.3-38.5-46.1-59.6c-6-9.2-9.8-20.2-20-26.3
			c-1.8-1.2-3.5-2.5-5.1-4c-0.8-0.7-2.7-1.3-1.9-2.5c1-1.4,2,0.3,2.8,0.9c1.6,1.2,3.2,2.5,4.7,3.7c26,20.8,54.8,38,85.5,51.1
			c2.9,1.2,4.5,1,6-1.9c6.7-12.3,13.5-24.5,20.4-36.7c1.7-3,1.5-5-1.1-7.3c-5.2-4.7-10-9.8-14.3-15.4c-1-1.4-3.7-3.4-2.4-4.3
			c2-1.4,3,1.7,4.1,3.1c15,19.5,34.3,33.8,55.7,45.5c2.1,1.2,4.3,3.6,7.2,0.9c1-0.9,1.5,0.1,1.2,1.1c-0.6,2.7,1.5,3.1,3.1,3.8
			c22.8,10.9,46.5,18.1,75.3,18.1c7.8,0.4,18.7-1.3,29.3-4.1c15.6-4.1,28.5-12,35.5-27.4c2.8-6,2.6-6.6-3.8-6.5
			c-7.8,0.1-15.6-1-23.4-1.7c-15.5-1.4-28.9-8.6-42.4-15.3c-1-0.5-2.6-1.3-2-2.5c0.8-1.4,2,0.2,3,0.6c2.7,1.1,5.2,2.2,8,0.2
			c13-8.7,24.8-18.6,33.6-31.6c0.9-1.3,2.7-2.6,1.4-4.3c-1.3-1.8-3.2-1.4-5-0.6c-8.7,3.6-17.9,5.2-27.1,6.6
			c-17.2,2.8-34.6,4.6-52.1,5.6l-20.9,1.3c-1,0.1-2.3,0.5-2.6-0.7c-0.3-1.7,1.3-1.5,2.4-1.7c1.3-0.2,2.7-0.1,4-0.2
			c7-0.4,14-0.8,20.9-1.3c3.6-0.3,4.3-1.8,1.8-4.7c-6.2-6.9-13.1-13.3-20.4-19.1c-15.6-12.2-32-23.3-48.6-34.1c-1-0.6-3-1.2-1.9-2.8
			c0.7-1,2.1,0.3,3,0.9c17.3,11.5,34.7,23,51,36.1c6.5,5.2,13.3,10.3,17.9,17.3c3.6,5.4,7.9,6.2,13.6,5.4c9.5-1.4,19.2-2.4,28.7-3.8
			c9.6-1.3,19-3.5,28.2-6.5c2.7-0.9,3.1-2.2,1-4.2c-0.9-0.8-1.6-1.7-2.5-2.4c-28.3-24.6-59.9-45.2-93.8-61.2
			c-32.6-15.5-66.6-27.1-101.2-37c-26.4-7.5-52.9-13.4-80.7-11.5c-5.3,0.4-10.7,0.5-15.8,2.2c-25.9,8.5-49.1,22.2-70.7,38.6
			c-21.1,16-39.3,34.9-56.3,55.1c-25.5,30.3-51.5,60.1-75.2,92c-16,21.5-24.2,44.6-22.9,71c1.1,21.8,9.9,40.9,23.8,57.6
			c17.6,21.3,40,36.5,63.7,50c5.1,2.9,10.3,5.4,15.7,7.8c2.4,1.1,5.3,1.3,7.4-1.2c2-2.5,1.5-4.7,0.1-7.4
			c-6.2-12.5-14.2-23.6-23.1-34.2c-3.8-4.8-8.1-9.3-12.8-13.3c-0.8-0.7-2.1-1.9-1.1-2.9c0.8-0.8,1.7,0.6,2.3,1.3
			c4.6,4.6,9.5,8.8,14.8,12.6C301.6,524.7,322.9,534.1,347.9,532z"/>
		<path fill="#280E0F" d="M391.9,475.7c7.1-0.6,13.4-1.2,19.7-1.8c0.8-0.1,1.6-0.2,2.4-0.4c-0.3-1.3-1.5-1.2-2.4-1.3
			c-12.4-2.3-24.8-4.7-36.8-8.5c-5.5-1.7-11.1-3.5-16.6-5.1c-1.2-0.4-3.1-1.6-3.6-0.5c-0.6,1.4,1.6,1.7,2.7,2.3
			c7.1,3.6,14.3,7.1,21.7,10.2C383.4,472.5,387.5,475.4,391.9,475.7z"/>
		<path fill="#B32E3F" d="M266.3,300.5c3.2-3.3,4.8-8.1,8.7-10.8c4.5-3.2,7.2-7.7,10-12.3c1.4-2.1,1.5-4.9,0.3-7.1
			c-6-12.3-8.6-26-7.5-39.7c0.5-6.2-0.8-6.9-6.8-6.6c-8.3,0.4-13.3-1.1-16.1-10.3c-0.2-0.5,0.1-1.5-0.8-1.4c-0.4,0-0.7,1-0.9,1.6
			c-3.8,9.8-5.9,20-5.1,30.2c-1.3,20,5.4,37.8,12.1,55.5C261.9,303.5,263.3,303.5,266.3,300.5z"/>
		<path fill="#FEDDCA" d="M641.9,442.5c-1.5-16.1-1.7-32.2-4-48.2c-0.3-2.2-0.2-4.5-2.9-5.2c-5-1.5-9.8-4-15.2-4.1
			c-0.2,0-0.6,0.4-0.7,0.6c-2.1,4.2-5.6,7.5-5.3,13.1c0.9,16.5-0.4,33-3.8,49.2c-2.2,10.7-6,20.8-13,29.4c-3.9,4.8-9.1,8.4-15,10.3
			c-1.2,0.4-3.1,1.2-3.6-0.1c-0.7-1.9,1.6-1.6,2.6-1.9c4.6-1.5,8.8-4,12.3-7.4c1.8-1.7,1.9-2.7-0.5-4.1c-8.9-5.2-14.5-13.2-19.7-22
			c-5.9-10-3.6-22.7-11.5-31.9c-0.5-0.6-0.5-1.5,0.1-2c0.1-0.1,0.2-0.1,0.3-0.2c1.1-0.4,1.4,0.7,1.7,1.4c1.2,3.2,3,5.3,6.7,4.3
			s4-4.1,4.4-7.1c0.4-3.5-0.3-7-1.1-10.4c-1.1-5.1-3.4-6.3-8.2-4.2c-2.3,1-4.2,2.6-6.5,3.7c-17.5,8.1-32.8,19-45.2,33.8
			c-1.2,1.5-2.9,2.3-4.8,2.4c-11.6,0.3-23.2,1.3-34.7-2.1c-23-6.8-42.3-19.9-60.8-34.7c-1-0.8-1.9-2.8-3-1.8s0.9,2.2,1.6,3.2
			c10.5,15.6,21.1,31.2,31.6,46.8c2.8,4.2,1.9,7.6-2.1,8.6c-1.8,0.4-3.6,0.4-5.4,0.1c-13.3-2.8-26-6.9-37.7-14.1
			c-21.6-13.2-35.8-32.5-46.3-55c-0.4-0.7-0.8-1.4-1.2-2.1c-0.9,0.7-0.1,1.5,0,2.2c4.4,20.7,9.9,41.1,15.7,61.5
			c0.9,3.3,2.8,5.1,6.3,6.1c10.6,3,21.4,5.1,32.3,6.3c12.5,1.5,17.8,6.3,19.7,18.6c2.4,15.1,4.7,30.3,7,45.4
			c1.2,7.8-9.1,18.2-16.9,17.1c-0.9-0.1-2.6-0.9-1.4-1.5c3.6-1.8,0.5-2.7-0.3-3.6c-8.5-9.5-14.5-20.3-17.1-32.8
			c-0.5-2.1-0.2-4.3-2.3-5.8c-1.4-1.1-1-2.2,0.8-1.9c5.2,0.8,5.4-2.6,5.1-6.2c-0.5-5-2.9-7.1-7.4-6.5c-9,1.5-17.9,4-26.3,7.6
			c-3.5,1.5-4.6,3.7-3.5,7.4c1.9,6.2,4.2,12.3,7,18.2c0.4,0.9,1.5,2,0.7,2.7c-1.3,1.1-2-0.6-2.7-1.3c-5.2-5.4-9.5-11.6-12.6-18.5
			c-0.9-1.9-1.3-5.3-4.7-3.7c-3.9,1.8-0.9,4.3-0.1,6.2c2,4.4,4.4,8.6,6.4,13c2.4,5.1,1.2,9.7-3.9,11.7c-4.9,1.9-3.1,3.7-1.2,6.3
			c15.3,21.5,22.8,45.7,25.5,71.6c1.7,16.2,10.3,28.3,23.4,37.1c18.6,12.4,38.5,22.7,59.4,30.5c3.8,1.4,6.9,1.3,10.4-0.8
			c9.1-5.5,18.2-11.1,27.6-16.2c4.3-2.3,8-7.3,14.2-4.8c0.5,0.2,1.5-0.6,2.2-1c2.8-1.5,5.5-3.2,8.3-4.6c2.3-1.2,2.9-2.6,1.2-4.7
			c-2.6-3.1-1-5,1.8-6.7c6.1-3.8,12.1-7.7,18.1-11.6c0.7-0.4,1.8-0.7,1.7-1.7s-1.2-1-2-1.2c-6-1.5-12-2.6-18.3-1.7
			c-11.7,1.6-22,6.3-31.4,13.3c-1.4,1-3.4,3.5-4.4,2.1c-1.3-1.8,1.8-2.4,3-3.6c0.7-0.7,1.5-1.3,2.4-1.8
			c15.8-10.9,32.7-16.5,51.8-9.7c2.8,1,4.8-0.2,7-1.4c6.3-3.4,12.6-6.7,19-10.1c2.5-1.3,5-1.9,7.4,0.2c2,1.7,3.6,4,6.9,2.2
			c2.4-1.3,5.3-2,7.8-3.1c0.7-0.5,1.1-1.3,1.1-2.1c-0.3-4.5,3.2-5.9,6.2-7.6c11.9-6.7,24.2-12.7,36.9-17.7c3.7-1.5,5.1-3.5,5-7.4
			c-0.1-18.2,0-36.3,0-54.5C643.9,495.7,644.4,469.1,641.9,442.5z M462.3,564.7c-0.6-0.3-1.1-0.7-1.5-1.3c-1.2-1.7-3.4-2.6-3.8-4.9
			c0-0.1,0.8-0.6,1.1-0.5c2.5,1.3,3.7,3.7,5.1,5.6C463.4,564.6,463.2,565.1,462.3,564.7z"/>
		<path fill="#C1C7D3" d="M456.3,686.3c4.3-3.2,4.2-5.2-0.7-7.3c-5.3-2.3-10.7-4.4-16.1-6.7c-3.5-1.4-8.1,2-8,5.8
			c0.3,7.5,10.2,16.5,17.8,16.2c0.9,0.1,2-0.2,1.8-1.1C450.3,689,454,688.1,456.3,686.3z"/>
		<path fill="#FB8897" d="M724.9,664.1c-1.3-16.3-3.6-32.4-7-48.4c-3.3-15.8-8.8-31-13.2-46.5c-7-24.6-14.4-49.2-16-75
			c-1.3-21.6-4.3-43-5-64.7c-0.3-10.1-1.9-20.2-2.5-30.3c-0.3-4.2-2.2-5.4-6-5.2c-10.3,0.5-20.7-0.5-30.7-3.1
			c-4.3-1.1-4.4,1.1-4.1,4.2c2.8,24.1,5.2,48.4,5.4,72.6c0.5,51.6,2.1,103.2-3.2,154.7c-2.6,24.8-5.1,49.6-8.9,74.3
			c-3.9,25.5-8.5,50.9-14.9,75.9c-0.9,3.4-1.4,6.9-1.6,10.3c-0.3,4.7,1.8,6.4,6.5,5.6c4.8-0.9,9.2-3.1,12.9-6.2
			c21.8-18,40.2-38.8,53.2-64.2c6.2-12.2,11.9-24.6,15.2-37.9c0.3-1.2,0.5-3.4,1.9-3.1c2.1,0.5,0.7,2.6,0.3,3.7
			c-1.5,4.1-1.8,8.5-0.6,12.7c2.5,10,3.7,20.3,3.6,30.6c0.3,5.3-0.5,10.7,0.9,15.9c0.4,1.6,0.4,3.6,2.3,4s3.3-1.1,4.5-2.5
			c3-3.6,5-8,5.7-12.6c2.1-11.6,3.1-23.4,3-35.3C726.6,684,725.6,674.1,724.9,664.1z"/>
		<path fill="#280E0F" d="M358,505.5c0.1,0.1,0.1,0.3,0.2,0.5c0.2,0.4,0.6,1.2,0.8,1.2c1-0.3,0.4-1,0.3-1.5c-1.5-4.6,0-7.7,4.3-9.7
			c13.6-6.5,27.6-11.5,43-10.9c2.5,0,5-0.2,7.5-0.5c2.2-0.4,5.4-0.6,5-3.7c-0.2-2.5-3-3.5-5.3-3.7c-16.9-1.1-33.7,2.1-49,9.3
			C353.1,492,353.1,493.7,358,505.5z"/>
		<path fill="#FEDDCA" d="M348,500.2c1.5,0.1,3.6-0.6,3.2-2.8c-0.5-3.1-2.5-4.5-5.8-4.2c-0.7,0.2-2.9-0.9-2.2,0.9
			C344.1,496.4,344.4,499.9,348,500.2z"/>
		<path fill="#9A3553" d="M398.5,510.5c3.3,12.1,8.7,23,17.5,32c1.3,1.3,2.7,2.3,4.9,1.7c4.5-1.3,9.3-7.4,8.5-12.1
			c-2.1-13.2-4.8-26.2-8.1-39.1c-1.1-4.2-3.3-7-6.8-6c-4.7,0.5-8,1-11.3,1.1s-3.5,1.3-2.4,4c1.8,4.2,2.1,8.4-1.1,12.2
			C398.3,506,397.8,508.3,398.5,510.5z M408.9,494.4c3.6-4.1,6.5-4.1,9.4,0.6c3.7,5.9,4.1,12.9,5.4,18.8c0,0.6,0,1.1-0.1,1.7
			c-0.6,2.7-0.3,6.3-3.5,7.1c-3.2,0.9-4.8-2.5-6.2-4.8c-3-5.2-5.6-10.5-6.7-16.5C406.6,498.8,407.2,496.2,408.9,494.4z"/>
		<path fill="#FEDDCA" d="M320.4,445.8c-0.4-0.5-0.9-0.9-1.4-1.3c-0.8,0.9,0.1,1.5,0.4,2.2c6.5,13.3,13.2,26.5,19.6,39.8
			c1.8,3.6,4.3,4.9,8.1,4.3l0,0c3,0.4,6-0.3,8.4-2c3.1-2.2,6.6-3.9,9.8-5.9c0.7-0.4,1.3-0.9,1.9-1.4c-0.7-0.5-1.4-0.9-2.1-1.3
			C347.6,472.1,333,460.1,320.4,445.8z"/>
		<path fill="#221917" d="M419.5,517.3c1.7-0.7,1.3-2.5,1.4-4.6c-0.6-4.6-1.5-9.9-4.4-14.5c-0.8-1.2-1.9-2.6-3.6-2.2
			c-1.8,0.4-1.9,2.2-2.2,3.6c-1,5.9,2.1,10.5,5,15.2C416.6,516.2,417.5,518.1,419.5,517.3z"/>
	</g>
</g>
</svg>
