<?xml version="1.0" encoding="utf-8"?>
<!-- Generator: Adobe Illustrator 24.1.0, SVG Export Plug-In . SVG Version: 6.00 Build 0)  -->
<svg version="1.1" baseProfile="tiny" id="图层_1"
	 xmlns="http://www.w3.org/2000/svg" xmlns:xlink="http://www.w3.org/1999/xlink" x="0px" y="0px" viewBox="0 0 765.2 1080.2"
	 xml:space="preserve">
<g id="图层_1_1_">
	<g>
		<path d="M0.1,540.1c0-178.5,0-357-0.1-535.5C0,0.8,0.8,0,4.6,0c252,0.1,504,0.1,756,0c3.7,0,4.6,0.8,4.6,4.6
			c-0.1,357-0.1,714,0,1071c0,3.7-0.8,4.6-4.6,4.6c-252-0.1-504-0.1-756,0c-3.7,0-4.6-0.8-4.6-4.6C0.1,897.1,0.1,718.6,0.1,540.1z
			 M408.2,934c1.1-1.5,2.2-2.9,3.2-4.4c23.2-37.6,46.4-75.1,69.5-112.7c0.9-1.5,3-3.1,1.9-4.8s-3.3-0.5-5.1-0.2
			c-19.8,3.8-37.3-0.4-51.9-14.9c-6.7-6.4-13-13.4-18.7-20.7c-3.3-4.4-3.4-4.4-6,0.6c-13.1,24.9-25,50.4-36.7,76
			c-6,13.2-12.7,26.1-16.5,40.1c-1.4,5.4-3.2,10.6-5.6,15.7c-16.2,34.2-34.4,67.3-54.7,99.3c-13.2,20.8-25.9,41.9-35.5,64.7
			c-1.6,3.7-1.5,5.3,3.3,5.2c22.2-0.2,44.3-0.1,66.5,0c3,0,4.9-0.8,6.4-3.5c11-20.2,23.1-39.8,35.4-59.2
			c16.5-26,29.9-53.8,44.4-80.9L408.2,934z M2.4,540c0,176.2,0,352.3,0,528.5c0,1.7,0.1,3.3,0,5c-0.3,3.2,1,4.4,4.3,4.4
			c53.7-0.1,107.3-0.1,161,0c3.3,0,4.5-1,4-4.4c-2.9-20.4-4.7-41-7.1-61.5c-4-35-3-70.1-2.5-105.1c0-0.5,0.1-1,0.1-1.5
			c1.8-23.9,2.3-47.9,1.6-71.9c-0.3-7.1-2.1-14.2-2-21.3c0.2-18.8-1-37.6-1.8-56.4c0-2-0.8-3.9-2.1-5.4c-3.1-3.3-5.8-6.9-8.1-10.7
			c-1.2-2-2.6-2.3-5-2c-5.7,0.7-11.6,1.7-17.3,1.2c-8.9-0.7-15.2-6.4-20.1-13.4c-5.4-7.8-10.4-15.9-15.6-23.8
			c-0.4-0.7-1.2-1.6-1.7-1.6c-1.1,0.1-0.8,1.3-0.8,2c-1.2,28.4-0.7,56.3,22.9,77.3c0.6,0.6,1.3,1.2,0.6,2.1
			c-0.7,0.9-1.6,0.3-2.2-0.1c-3.1-1.9-5.9-4.4-8.1-7.3c-18.3-24-27.3-50.8-24.8-81.1c0.4-5.3-0.2-9.9-3-14.7
			c-6.5-10.8-9.4-23.4-8.4-36c1.7-21.9,8-42.8,15.4-63.3c6.3-17.3,18.1-31.4,28.4-46.3c33-47.5,73.3-88.2,117.1-125.7
			c4.7-4,5.3-7.4,2.3-12.9c-4.4-8.2-8.5-16.6-12.2-25.2c-0.4-0.9-0.3-2.9-1.7-2.4c-0.8,0.2-0.2,2.1,0.2,3.2
			c1.6,4.7,3.2,9.4,4.8,14.2c0.4,1.2,1.7,2.7,0.5,3.6c-1.6,1.2-2.6-0.8-3.6-1.6c-5.9-5-9.2-11.7-11.6-18.9
			c-5.4-16.3-7.8-33.5-7.1-50.7c0-0.8-0.1-1.7-0.1-2.5c-1.2,0.3-1.1,1.5-1.3,2.4c-2.3,8.8-4.3,17.8-7,26.5c-1.7,5.5-1.2,10,2.8,14.2
			c0.8,0.9,2.9,2.3,1.1,3.6c-1.6,1.1-2.4-1.2-3.3-2.3c-7-9.2-10.1-19.8-11-31.1c-1.2-15,0.4-29.9,1.8-44.9c0.1-1,0.2-2.6-0.2-2.8
			c-0.9-0.4-1.2,0.9-1.5,1.5c-10.4,20.8-20.4,41.9-26.1,64.6c-0.3,1,0.1,2.7-1.6,2.6c-1.7-0.1-1.9-1.4-1.7-3
			c0.7-4.8,1.2-9.6,1.8-14.4c2.9-21.6,10.4-41.9,18.9-61.9c1.2-2.4,2-5,2.4-7.6c0.8-6.8,2.5-13.4,4.9-19.8
			c7.9-22,18.5-42.9,31.4-62.3c0.7-1.1,1.3-2.3,1.9-3.4c-1.7-0.1-2.4,1.4-3.3,2.3c-33.8,31.6-56.9,69.7-69.1,114.4
			c-1,3.5-2,7.1-0.8,10.8c0.3,0.9,0.8,2.1-0.5,2.5c-0.6,0.2-1.4-0.5-2.1-0.9c-1.8-0.8-1.3-2.3-1.4-3.8c-1-16.7,3.8-32.3,9.6-47.6
			c12.2-32.4,31.8-60.3,54.1-86.3c8.8-10.2,18.8-19.5,27.4-29.7c9.2-11,18.3-21.8,28.8-31.7c27.2-25.8,58.9-42.6,95.7-49.6
			c9.5-1.8,19.3-3.4,28.4,1.1c3.1,1.5,6.6,2,10,1.5c27.4-3.8,52.7,1.8,75.6,17.3c5.1,3.5,9.1,4.6,15.2,2.5
			c15.3-5.1,29.9-3.8,42.4,7.7c2.9,2.7,6.3,5,9.3,7.6c8.9,7.7,8.8,7.6,19.3,1.5c2.1-1.2,4.4-5.4,6.4-2.8c1.5,2-2,5-4,7.1
			c-0.2,0.2-0.5,0.4-0.8,0.7c-8.7,7.9-17.7,15.2-27.8,21.2c-3.7,2.2-3.4,3.7-1.1,6.8c6.5,8.6,12.9,17.4,19,26.3
			c13.4,19.6,25.2,40.1,30.7,63.5c1.7,7,3.3,11.7,11.5,14.5c6.5,2.2,10.5,2,15.3-1.9c0.8-0.6,1.6-1.2,2.5-1.6c1.1-0.6,2.3-2,3.5-0.6
			c0.9,1.1-0.3,2.2-0.9,3.1c-6.1,7.7-7.9,17.5-12,26c-5.9,12.3-2.4,21.9,3.6,32c0.1,0.1,0.2,0.3,0.2,0.4
			c10.1,18.7,22.1,35.4,43.4,42.8c0.9,0.3,2.2,0.7,1.7,1.9c-0.4,1-1.8,0.7-2.7,0.4c-5.9-1.8-11.5-4.6-16.4-8.4
			c-14.3-11.7-25.9-25.8-36.5-40.8c-0.8-1.2-1.2-3.7-2.5-3.3c-1.2,0.4-0.2,2.6,0,4c3.1,20.3,5.4,40.6,2.5,61.1
			c-2.4,16.4-7.9,31.6-18.9,44.4c-1,1.2-2.2,3.7-3.7,2.5c-2-1.7,0.8-3.1,1.8-4.3c7.8-9,12.6-20.2,13.6-32.1
			c0.7-8.3,0.7-16.6-0.2-24.9c-1.2-12.4-3.3-24.7-6.3-36.9c-0.4-1.4-0.2-3.9-2.5-3.7c-2.3,0.2-3.1,2.2-3,4.5c0,0.5,0,1,0,1.5
			c0.1,13,0.3,26-0.9,39c-1.8,18.6-8.1,35-22.9,47.2c-5.4,4.4-11,8.7-16.5,13c-4.7,3.6-4.7,6.4,0,10.2c4.8,3.8,9.9,7.4,14.4,11.6
			c26.8,24.6,43.6,55.6,56.4,89.1c0.7,2,1.7,3.9,3,5.7c8.1,11,15.6,22.4,22.4,34.3c13.5,23.5,25.1,47.7,30.6,74.4
			c4.1,20.1-6.2,41.3-24.1,49.8c-0.7,0.4-1.4,0.9-2,1.4c-1.1,0.7-2.1,3.1-3.5,1.4c-1.2-1.3,1-2.5,1.8-3.6c0.5-0.7,1-1.3,1.6-1.9
			c11.7-14.5,16.5-31,13.6-49.5c-1.8-11.3-5.1-22.4-9.6-32.9c-7.2-17.4-16.4-33.9-27.2-49.3c-0.6-0.9-1.2-2.6-2.3-2.2
			c-1.2,0.4-0.6,2.1-0.5,3.1c1.2,9.5-0.6,19.3,1.4,28.4c4,18.5,7,37.2,9.1,56.1c1.6,14,3.3,27.7,1.4,41.7
			c-3.4,25.2-12.6,47.9-29.8,66.9c-8.3,9.1-18.6,15.3-31.3,15.7c-4.1,0.1-5.8,1.4-6.8,5.3c-3,12.5-7,24.7-11.8,36.5
			c-0.6,1.5-0.7,3.8-2.5,4.1c-7.4,1.2-12.6,6.7-19.2,9.3c-3.1,1.2-4,3-3.4,6.1c1.8,8,2.8,16.1,3,24.2c0,1.8,0.2,3.8,1.4,5.2
			c4.9,5.9,7,13.2,9.1,20.4c2.2,7.7,5.8,14.9,10.7,21.3c7.5,9.8,13.7,20.6,18.3,32c2.3,5.8,3.6,11.8,2.5,18.1
			c-1.1,6.2,1.3,11.4,4.7,15.9c8,10.5,13.8,21.9,16.5,34.9c1.5,7.1,2,14.6,5.3,21.3c9.8,19.9,15.5,41.4,23,62.2
			c0.8,2.3,1.6,4.9,1.4,7.3c-0.5,5.1,2,5.6,6.2,5.6c48.3-0.1,96.7-0.1,145-0.1c7.4,0,7.4,0,7.4-7.3c0-353.7,0-707.3,0-1060.9
			c0-7.2,0-7.2-7.4-7.2c-248.5,0-497,0-745.5,0c-7.5,0-7.5,0-7.5,7.6C2.4,186.7,2.4,363.3,2.4,540z M213,535.4c0-6.7-0.2-13.3,0-20
			c0.4-11.5,0.5-23,3.4-34.2c0.3-1.1,0.3-3.2,2.2-2.6c1.1,0.4,0.6,2.1,0.4,3.2c-5.4,26.7-2.4,53.8-3.1,80.7c0,0.7-0.3,1.9,0.7,2
			c0.3,0,0.9-1.2,1.2-2c1.5-4.4,3.1-8.9,5.7-12.7c6.2-9.2,10-19.7,11-30.7c0.8-8.4,4.3-17.1-1.5-25.2c-0.4-0.4-0.4-1.1,0.1-1.5
			c0.1-0.1,0.2-0.1,0.3-0.2c0.6-0.1,1.3,0.1,1.8,0.5c2,1.8,3.2,4.4,3.3,7.1c0.4,13.6-0.4,27.4-6.5,39.6c-6.6,13.1-12,26.6-17.5,40.2
			c-6.2,15-16.8,27.6-24.5,41.7c-12.9,23.6-22.1,48-17.9,76.1c2.3,15.3,4.2,30.6,8.2,45.6c8.4,31,21.4,60.2,33.8,89.6
			c2.5,6.2,5.6,12.1,9.3,17.7c14.1,20.9,23.3,44.5,35.6,66.4c0.5,0.9,1.2,1.9,0.1,2.6c-1.1,0.6-1.9-0.5-2.4-1.3
			c-1.7-2.5-3.2-5-4.6-7.7c-3.2-6.6-6.2-13.3-9.4-19.9c-6.1-12.4-12.8-24.5-20-36.3c-0.7-1.1-1.3-3.2-2.4-2.8
			c-1.6,0.6-0.6,2.6-0.6,4c0.2,3.3,0.7,6.6,0.9,9.9c1.3,17.4,1.8,34.9,1.7,52.4c-0.1,18.8,2,37.6,2.5,56.4
			c0.5,19.2,1,19.2,16.3,31.1c9.3,7.2,19,13.5,30.6,16.4c2.9,0.7,4.6,0.1,6.2-2.5c19.8-31.6,39.3-63.4,55.3-97.2
			c3.7-7.8,8.1-15.4,10.7-23.5c2.8-8.5,5.1-17.2,8.8-25.4c15-33.4,30.2-66.7,47.4-99.1c1.6-3,1.6-5.2-0.4-8
			c-5.9-8.5-11.5-17.1-17-25.9c-4.5-6.9-7.5-14.5-9-22.6c-0.8-3.4,0.1-7,2.3-9.7c12.7-16.5,24.5-33.6,35.7-51.3
			c13-20.6,25.8-41.2,38.7-61.8c0.7-1.1,1.2-3.5,3.1-2.1c1.3,0.9-0.2,2.4-0.9,3.4c-3.4,5.6-6.8,11.1-10.2,16.6
			c-0.4,0.6-1.3,1.2-0.6,2.1c0.5-0.4,1-0.8,1.5-1.3c12-12.3,24.8-23.7,37.5-35.2c0.8-0.7,1.4-2.4,2.7-1.3c1.4,1.1,0,2.1-0.7,2.9
			c-1.4,1.7-2.9,3.2-4.6,4.6c-7.6,6-14.3,13-21.5,19.4c-8.1,7.1-16.4,14.6-22.5,22.8c-14.1,19.1-25.6,40.2-39.4,59.6
			c-1,1.5-1.5,2.8-0.4,4.5c10.1,16.7,18.4,34.4,29.8,50.3c12.2,17.1,29,27.6,48.3,34.9c2.3,0.9,4.8,1.4,7.3,1.3
			c21.5-1.2,42.4-7.9,60.5-19.7c1.9-1.2,2.4-3,3-5c3.2-12.2,5.4-24.6,7.5-37.1c0-0.6,0-1.3-0.1-1.9c-0.5,0.4-0.9,0.9-1.2,1.4
			c-2.6,4.5-5.1,9-7.7,13.4c-0.5,0.9-1.1,2.4-2.6,1.4c-1.1-0.8-0.3-1.8,0.3-2.6c7-10.2,11.4-21.6,16-32.9
			c6.1-15.3,10.9-31.1,14.5-47.1c3.9-17.3,6.2-35,9-52.6c1.7-10.5,3.8-20.9,3.4-31.7c-0.4-10.8-6.8-20-16.7-23.6
			c-14.1-5.1-28.2-3.2-40.9,4.1c-16,9.2-31.4,19.6-47,29.5c-3.7,2.3-7.5,4.4-10.8,7.2c-9.8,8.3-20.6,15.3-32.2,20.8
			c-20.1,9.8-42,13.6-63.7,18c-7.3,1.5-15.2,1.7-21.6,5.6c-7.9,4.7-14.5,11.2-21.2,17.4c-0.6,0.5-1.6,1.1-1,2
			c0.3,0.4,1.5,0.3,2.3,0.2c8.9-1.2,17.6-0.1,26.3,1.3c10.2,1.7,20.2,4.2,30,7.5c10.1,3.4,12.6,11.8,6.6,20.6
			c-1.6,2.2-3.3,4.2-5.2,6c-12.4,12.7-25.7,24.6-30.8,42.7c-1.7,6.1-7.9,10.7-8.9,16.5s2.4,12.2,3.4,18.5c0.8,4.7-0.7,6.1-5.1,6.8
			c-20.7,3.1-40.8-0.6-60.8-5.2c-2.2-0.5-2.9-1.9-2.8-4c0.1-7.7-0.1-15.3,0.6-23c1.7-20.2,5.7-40.2,12-59.5c0.6-1.7,1-3.4-1.2-4.1
			c-3.1-1.2-5.9-3.2-8.1-5.7c-1.3-1.3-2.4-1.8-3.6,0.1c-3.6,6-8.5,11.3-10.6,18.1c-5.6,18.6-14,36-21.1,53.9
			c-5.5,13.7-6.3,14-19.2,6.1c-13-8-22.5-19.7-31.1-32.1c-3.5-5-2.6-10.4,2.2-14.4c3.3-2.7,4-5.4,3.1-9.3c-1.1-4.8-0.6-9.8,1.3-14.2
			c5.7-13.6,7.1-27.9,7.9-42.5c0.6-9.8,1.9-19.6,6.3-28.6c2.9-5.9,7.5-8.1,13.9-6.5c5.7,1.3,9.6,5.2,13.2,9.4
			c7.2,8.3,14.4,16.7,22.3,24.3c0.7,0.7,1.3,1.9,2.4,1.4c1.1-0.6,0.4-1.8,0.3-2.7c-1.3-9.9-2.2-19.9-0.7-29.9
			c0.4-2.8,1.3-5.7,0.7-8.3c-4.3-18.8-7.3-37.8-10.2-56.9c-2.2-14.4-6.7-28.5-10.4-42.6c-1.9-8-5.3-15.5-10.2-22.1
			c-4.4-5.7-5.4-6-11.4-2.3c-10.8,6.5-18,16.3-23.6,27.2c-9,17.3-17.2,34.9-22.9,53.6c-2.8,9.2-6.2,18.3-9.7,27.3
			c-7,18-15,35.6-23.2,53.1c-3.3,7-2.2,11,3.8,15.7c4.7,3.5,10.1,6,15.8,7.2c2.7,0.6,4.6,0.3,5.7-3c3.7-11.3,9.7-21.5,16-31.6
			c6-9.4,12.2-18.7,17.5-28.6c2.5-4.3,3.7-9.3,3.6-14.3C212.8,558.1,213,546.8,213,535.4L213,535.4z M210.3,322.7
			c0,7.3,0,13.8,0,20.3c0.1,0.7,0.2,1.5,0.3,2.2c0.1-0.6,0.2-1.3,0.2-1.9c0.1-1-0.1-2.4,1.2-2.4c1.8-0.1,1.3,1.6,1.3,2.7
			c0.2,3.8-0.2,7.6,1.3,11.3c6.9,17.8,15.3,35.1,24.9,51.7c1.7,2.9,2.4,1,3.2-0.4c3.1-5.7,4.5-12.3,4-18.8c-0.1-1.3-1.2-3.5,0.8-3.7
			c1.7-0.2,1.6,2.2,1.7,3.6c0.5,6.3-0.6,12.7-3.3,18.5c-0.4,0.9-1.1,1.9-0.3,2.8c0.6,0.7,1.5,0.3,2.3,0c7.5-3,16.5-17.8,14.2-25.2
			c-3.9-12.4-8.8-24.4-13.3-36.6c-0.2-0.6-0.6-1.4-1.3-1.2c-0.4,0.1-0.5,1.1-0.6,1.7c0,0.8,0,1.7,0.1,2.5c0.2,8,1.3,15.9,3.4,23.7
			c0.3,1.2,1.7,3.2-0.4,3.8c-1.9,0.5-2-1.8-2.6-3s-1.1-2.4-1.5-3.7c-5.1-13.8-7.8-28.3-8-43c-0.8-34.5,6.6-67.8,15.5-100.8
			c2.3-8.3,5.1-16.5,7.8-24.7c0.4-1.2,0.5-3.7,2.5-3c1.8,0.7,0.3,2.6-0.1,3.9c0,0.2-0.1,0.3-0.2,0.5c-11.9,35.1-20.2,71-22.8,108.1
			c-0.8,12.8-0.1,25.7,2.3,38.3c0.2,0.6,0.4,1.2,0.8,1.7c0.1-0.6,0.2-1.2,0.3-1.9c0.4-30.6,6.9-60.4,13.5-90.1
			c1.9-8.6,4.8-17,7.3-25.4c0.3-1.2,0.4-3.2,2.2-2.7c1.7,0.5,0.5,2.4,0.3,3.5c-0.6,2.8-1.5,5.4-2.3,8.2c-6.1,20.6-11.6,41.4-12.4,63
			c-0.1,1.4-0.9,3.5,0.8,3.9c0.9,0.2,1.2-2.1,1.4-3.3c3.3-17.8,9.8-34.9,10.6-53.2c0.1-2.5-0.6-7.3,2.2-7.1c2.3,0.2,0.5,4.8,0.3,7.5
			c-1.1,12.2-0.9,24.3,3.5,36c0.4,1.1,0.5,3,2.2,2.8c0.5-0.1,0.9-1.9,1.2-3c0.2-1.1,0.2-2.3,0.3-3.5c1.2-10.6,2.3-21.4,6.8-31.1
			c3.7-7.8,5.8-16.2,6.3-24.8c0.1-1.4,0.1-3.8,1.7-3.6c2.3,0.2,0.9,2.4,0.8,3.6c-1.3,8.4-1.1,17,0.4,25.3c0.2,0.8-0.1,2.2,1.2,2.2
			c0.3,0,0.6-1.4,0.8-2.2c2.8-17.3,8-34,14.3-50.3c5.9-15.4,13.9-29.9,22-44.2c0.7-1.2,1.2-3.5,3-2.7c2.6,1.1,0.2,2.9-0.1,4.1
			c-3.4,11.7-7,23.2-10.3,34.9c-6.1,21.2-11.5,42.4-10.2,64.8c0,0.7,0.1,1.3,0.1,2c0.3-0.6,0.5-1.3,0.7-2
			c2.8-16.4,5.8-32.8,11.7-48.4c4.4-11.8,11-22.8,13.2-35.5c0.1-0.8,0.5-1.8,1.4-1.7c1.4,0.2,1.1,1.5,1,2.4
			c-0.8,6.3-3.2,12.2-5.5,18.1c-2.7,6.8-6.3,13.2-7.8,20.5c-2.3,10.7-3.8,21.6-4.6,32.6c-0.6,12.8,1,25.7,4.8,38
			c0.2,0.6,0.6,1.6,0.9,1.6c1.3,0,0.7-1.2,0.8-1.9c0.3-2.3,0.6-4.6,0.7-7c2-31.8,9-62.5,19.7-92.4c0.8-2.1,0.9-6.4,3.5-5.5
			c2.2,0.8-0.4,4.4-1.2,6.6c-9.4,27.8-17.7,55.9-16.4,85.8c0.3,6.3,1.1,12.6,2.5,18.8c0.2,0.5,0.5,1,0.8,1.4c0.1-0.5,0.1-1,0.1-1.5
			c-0.1-0.6-0.3-1.3-0.5-1.9c-0.4-1.6-1.2-3.9,0.7-4.3c2-0.5,2.2,2,2.4,3.6c0.6,5.2,3,9.8,5,14.6c1,2.4,2.1,2.2,3.3,0.1
			c1.8-3.4,3.8-6.7,5.4-10.2c10.5-22.9,17.1-47.2,25.1-71c6.5-19.3,12-38.8,10.8-59.5c-0.1-0.9-0.4-2.3,1-2.4
			c1.3-0.1,1.3,1.2,1.6,2.2c2.7,10.9,3.2,22.2,1.5,33.2c-5,36-11.8,71.7-31,103.5c-0.2,0.6-0.4,1.2-0.5,1.8c0.6-0.2,1.1-0.5,1.6-0.9
			c7.3-6.3,13.7-13.7,19-21.8c17-25.9,27.5-54.6,34.9-84.5c2-8.1,3.1-16.4,3.2-24.7c0-1.1-0.1-2.8,1.4-2.7c1.6,0.1,1.2,1.8,1.2,2.8
			c-0.1,2.5-1,5.1,0.2,7.4c4.2,8.2,5,17.2,6.1,26.1c2.3,18.3,2.3,36.3-7.1,53c-0.3,0.7-0.5,1.5-0.6,2.3c0.6-0.5,1.1-1.1,1.7-1.6
			c7.4-9.8,10.5-21,11.1-33c0.1-1.2-0.2-3.3,1.5-3.2c1.8,0.1,1.2,2.1,1,3.3c-1.5,15.6-4,31-13.2,44.4c-3.7,5.4-7.3,10.7-10.7,16.3
			c-1.4,2.2-5.4,5.4-3.5,6.6c2.4,1.4,5.3-2.4,7.1-5c7.6-11.2,13.4-23.4,19.6-35.4c1.3-2.5,2.3-5.2,3-7.9c8.1-31.7,5.6-62.7-7.2-92.8
			c-0.7-1.8-3.4-4.4-0.9-5.5c1.9-0.8,2.7,2.8,3.4,4.7c7.4,21.8,18,42.2,25.9,63.8c6.8,18.7,12.7,37.5,13.6,57.6
			c0.1,0.5,0.2,1.1,0.3,1.6c0.1-0.5,0.1-1,0.1-1.5c-0.1-7.3,0.2-14.6-0.4-22c-1.5-17.9-5.1-35.6-11-52.6c-0.4-1.2-1.4-2.9,0.2-3.5
			c1.7-0.6,1.9,1.6,2.3,2.7c2.6,7.7,4.6,15.7,7.6,23.2c10.6,26.3,14.9,53.4,11.9,81.7c-0.3,2.8-0.7,5.6-1,8.4c0,0.6,0.2,1.2,0.4,1.8
			c0.4-0.2,0.9-0.4,1.1-0.7c4.9-7.7,11-14.8,10.9-24.7c-0.1-12.4-1.5-24.6-2.9-36.8c-0.2-1.7-1.8-4.7,0.8-5.1c2-0.3,1.4,2.9,1.6,4.6
			c1,7.9,1.8,15.9,2.8,23.8c0.1,0.6,0.2,1.3,0.4,1.9c0.2-0.6,0.4-1.2,0.5-1.8c0.3-3.1,0.7-6.3,0.8-9.4c0.5-17.2-2.1-34.2-4.9-51.1
			c-4.9-29.7-15.9-56.6-35.5-79.7c-0.5-0.6-1.1-1.3-1.6-1.9c-0.5-0.7-1.1-1.4-0.2-2.1c0.8-0.7,1.6-0.1,2.1,0.5
			c0.7,0.7,1.4,1.4,2,2.2c12.3,14.7,22.1,31,27.8,49.3c9.6,30.9,14.3,62.4,12.2,95c-0.9,14.9-2.5,29.4-6.4,43.8
			c-6.4,24-16.2,46.2-33.9,64.2c-0.7,0.7-2.1,1.1-1.8,2.6c0.9-0.6,1.9-1.2,2.8-1.9c21.7-17.6,34.7-41.4,45.1-66.5
			c6.4-15.4,9.6-31.8,7.3-48.8c-0.2-1.7-1.5-4.8,0.9-5.1c1.8-0.3,1.4,3.2,2.4,4.8c0.2,0.4,0.1,1,0.1,1.5c0.6,20.2,6,39.4,11.3,58.6
			c0.3,1.1,0.1,3.1,1.9,3c1.1-0.1,1.1-1.8,1.4-3c5.1-19.3,4.4-38.9,3.4-58.6c-0.3-5.6-1.1-11.3-1.5-16.9c-0.1-1.5-0.9-4.2,0.8-4.4
			c2.4-0.3,1.4,2.4,1.6,3.9c0.6,4.8,1.1,9.6,1.4,14.4c1,15.1,1.5,30.2-0.2,45.4c-1.4,12-5.2,23.6-3.6,36.3
			c1.2,9.3-6.4,16.7-11.1,24.5c-4.5,7.3-6.7,15.4-7.7,23.9c-0.2,2.2,0,3.3,2.6,1.5c8.9-5.8,17.3-12.4,25.2-19.6
			c8.8-8.3,14.7-19.2,17-31c2.9-14.3,3-28.8,2.9-43.3c0-2.4,1.3-5.9-1.1-7c-2.7-1.2-4.1,2.6-6.3,3.9c-2.1,1.2-3.1,5.1-5.6,4
			c-2.1-0.9-1.1-4.5-1.5-6.9c-2.7-16.9-0.7-32.3,14.2-43.5c2.1-1.6,1.4-2.5-1-3c-3.9-0.8-7.6-2.4-10.9-4.7c-3.3-2.4-8.3-4.6-8.1-8.8
			c0.2-4.9,5.4-6.9,9.7-8.2c3.4-1.1,3.6-2.7,2.5-5.5c-4-10.2-8.7-20.2-14.2-29.7c-0.6-1.1-2.5-2.7-0.3-3.7c1.5-0.7,2,1.4,2.6,2.4
			c5.2,8.9,9.7,18.2,13.5,27.8c3,7.4,2.9,7.3,10.6,7.2c3.2-0.1,4-1,3.4-4.2c-1.9-9.8-4.9-19.4-8.9-28.5
			c-10.3-24.1-25.7-45-40.9-66.1c-3.2-4.4-5.4-5.4-10.3-2.3c-15.3,9.6-31.1,10.6-47.3,1.8c-6.5-3.6-13.5-6.7-21.3-6.3
			c-1.1,0-2.6,0.1-3-1.2c-0.5-1.3,0.9-1.9,1.7-2.8c1.1-1.3,4.3-1.6,2.1-4.5c-5.9-7.8-11-16.4-20.1-21.2
			c-10.6-5.6-21.6-10.4-32.8-14.6c-3.9-1.6-8.1-2-12.3-1.2c-1.5,0.3-3,2.1-4.4,0c-1.2-1.6-0.2-3.3,0.4-4.8c1.2-2.9,3.2-5.3,6.3-5.9
			c5.4-1,10.8-2.3,16.3-1.4c19,3.1,37.1,9.3,54.8,16.6c0.6,0.3,1.2,0.6,1.7,1c0.8,0.4,1.1,1.3,0.8,2.2c-0.7,1.2-1.5,0.6-2.5,0.1
			c-16-7.8-32.9-12.5-50.1-16.6c-4.4-1.1-8.9-0.8-13.4-0.6c-3.3,0.2-5.9,2.1-8.4,4c-0.5,0.4-0.8,1-0.8,1.7c0.1,0.8,1,0.7,1.6,0.8
			c2.5,0.2,5.2-0.2,7.4,0.6c21.7,8,44.3,14.7,56.9,36.7c1.5,2.7,3.2,2.9,6.1,1.8c10.1-4,20.6-4.7,31.4-3.5
			c6.6,0.8,13.1,2.3,19.7,3.3c2,0.3,4.1,1.5,6.2,0.6c-1.3-2.3-3.4-4.1-5.8-5.1c-0.9-0.3-1.9-0.6-2.9-0.9c-12.7-3.3-25-8.3-36.5-14.7
			c-8.5-4.7-8.4-4.7-0.2-9.7c4.7-2.9,4.8-3.2,0.3-6.2c-22.1-15-46.5-21.1-73-17.7c-5,0.6-9.7,1.2-14.3-1.9c-2.3-1.6-5.3-1.8-8.2-1.9
			c-7.7-0.5-15.2,1-22.7,2.6c-38.5,8-69.9,28.4-97.6,55.4c-9.3,9.1-16.1,20.2-25.3,29.4c-13.9,13.9-26.8,28.8-38.7,44.5
			c-21,27.8-37.7,57.7-45.4,92c-0.3,1.1-0.7,2.2-0.2,3.4c0.5-1,1-2,1.4-3.1c10-31.2,26.1-60.1,47.3-85c15.7-18.6,36-32.8,50.5-52.5
			c0.6-0.8,1.7-2.2,2.8-0.9c1,1.1-0.3,2.2-1.1,2.9c-7.1,7-12.9,15.2-18.9,23.1c-17.6,23.3-31.4,49.3-40.7,76.9c-0.5,1.6-1.8,3.1-1,5
			c1.7-1.1,1.9-3,2.7-4.6c8.9-19,17.9-38,31.6-54.2c7.2-8.5,14.4-17,20.4-26.5c0.6-1,1.1-3,2.8-1.9c1.6,1.1,0,2.4-0.6,3.4
			c-4.6,7.4-9.8,14.3-15.5,20.8c-11.6,13.1-21.2,27.9-28.5,43.8c-5.5,11.7-10.9,23.6-16.3,35.3c-8.6,18.6-15.7,37.8-19.2,58.1
			c-0.2,0.9-1.2,2.2-0.1,2.5c0.9,0.3,1-1.5,1.3-2.4c8.7-22.8,18.9-44.9,31.5-65.8c10.5-17.4,22.2-34.1,35.1-49.8
			c0.7-0.9,1.5-1.8,2.3-2.6c0.4-0.4,1.4-0.7,1.7-0.5c0.9,0.5,0.6,1.4,0.1,2.2c-0.7,0.9-1.5,1.8-2.2,2.7
			c-12.2,15-23.4,30.8-33.5,47.2c-5,8-8.4,16-8.2,25.7c0.2,5.8-1.2,11.6-1.4,17.4c-0.6,13.3-1.6,26.6,2.6,39.6
			c0.3,1,0.4,2.4,1.4,2.4c1.2,0,1.1-1.4,1.3-2.4c2.5-9.3,5-18.6,7.3-28c5-20.2,13.1-39.4,20.4-58.9c10.5-28.1,21-56.2,34.6-82.9
			c12.7-24.9,32.1-44.5,52.9-62.6c9-7.9,20.1-12.3,31.8-14.9c1.5-0.3,4-1.4,4.4,0.5c0.5,2.2-2.4,1.8-3.8,2.1
			c-11.9,2.7-22.9,7.5-32,15.6c-18.6,16.5-35.9,34.3-48.4,56.2c-9.5,16.5-15.5,34.6-23.4,51.8C216.6,253.3,208.7,287.4,210.3,322.7
			L210.3,322.7z M428.4,221.9c-0.6-11.3-1.2-22.6-3.9-33.6c-0.2-0.9-1-2.4-1.4-2.3c-1.3,0.2-0.8,1.6-0.9,2.5
			c-2.8,15.6-7.5,30.7-13.1,45.5c-8.7,22.8-18.7,44.9-35.6,63.1c-5.1,5.5-10.8,10.5-17,14.7c-1,0.7-2.1,2.3-3.4,0.9
			c-1.1-1.2,0.5-2.1,1-2.9c0.9-1.4,1.9-2.7,2.9-4.1c14.9-21.3,22.3-45.6,27.8-70.6c3.2-14.8,6.5-29.6,7.1-44.8
			c0-0.7-0.2-1.4-0.3-2.1c-0.1,0.6-0.3,1.3-0.4,1.9c-3.2,17.9-9,35.1-14.9,52.2c-7.8,22.8-13.8,46.3-26.6,67.1
			c-1,1.4-0.9,3.3,0.2,4.6c0.6,0.9,1.6,2.2,0.2,3c-1.3,0.7-1.9-0.9-2.6-1.8c-0.5-0.7-0.8-1.5-1.3-2.1c-1.3-1.6-1.3-4.1-3.5-4.9
			c-0.8,2.3,1.3,3.6,1.9,5.4c0.3,0.8,0.5,1.7-0.3,2.2c-0.9,0.5-1.5-0.4-2-1c-0.6-1-1.2-2-1.7-3c-5.2-9.9-7.5-20.6-8.5-31.6
			c-0.1-0.7-0.1-1.3-0.2-2c-0.2,0.7-0.3,1.3-0.4,2c-0.5,8.3-1.1,16.6,1.7,24.7c0.3,0.8,0.7,1.7-0.1,2.3c-1.1,0.8-1.7-0.2-2.5-0.8
			c-2.5-1.8-1.9-4.8-2.8-7.2c-7.6-18-10.3-37.8-7.9-57.2c0-0.8,0-1.6-0.1-2.4c-0.4,0.7-0.7,1.5-1,2.3c-2.3,13.2-5.3,26.4-6.2,39.8
			c-0.1,1,0.5,2.7-1.3,2.6c-1.3,0-1.1-1.4-1.2-2.4c-1.2-16.8-2.1-33.6,0.7-50.3c3-17.9,8.7-35.2,13.5-52.7c0.2-0.9,1.4-2.2,0.3-2.6
			c-1-0.4-1.3,1.3-1.7,2.1c-9.6,17.7-17.1,36.5-22.4,56c-4.3,15.8-7.8,31.7-4.9,48.2c0.8,4.6,2.5,7.1,7.8,7.7
			c10.3,1.3,19.2,5.6,23.7,16c0.4,1,1.5,2.1,0,3c-1.1,0.7-1.8-0.4-2.5-1c-3.2-2.7-6.7-4.9-10.6-6.6c-0.7-0.3-1.5-1.4-2.6-0.6
			c0.6,0.6,1.1,1.1,1.8,1.7c5.8,4.4,10.1,9.6,10.6,17.2c0.2,4.7,0.2,9.3,0,14c-0.4,10.5-6.1,17-15.5,20.5
			c-9.8,3.6-19.6,3.8-27.6-3.9c-15.3-14.9-14.4-46.5,10.6-52.4c0.5-0.1,1.4,0.3,1.4-0.7c-0.5-0.1-0.9-0.1-1.4-0.1
			c-12.1-0.4-30.1,14.7-31.7,26.8c-0.2,1.5-0.2,3-0.1,4.5c1,8.4,5.4,14.8,11.9,20.1c0.8,0.7,2.5,1.3,1.7,2.6
			c-1.1,1.6-2.4,0.2-3.3-0.5c-6-5-12.7-9.1-18.4-14.5c-2.5-2.4-3.3-4.7-2-8c1.3-3.2,2.5-6.6,1.5-10.2c-0.2-0.5-0.3-0.9-0.6-1.3
			c-0.2,0.3-0.6,0.7-0.6,1c-0.6,6.7-3.4,13.4-0.9,20.2c7.6,20.8,15.4,41.5,23.1,62.2c2.6,7,6.9,12.7,12.3,17.9
			c21.6,20.6,48.7,32.9,73.8,48.3c3.1,1.9,6.4,1.8,10.1,0.8c6.1-1.7,11.9-4.3,17.7-6.8c34.4-14.7,67-31.8,86.5-66
			c1-1.7,2.9-2.4,4.2-1c2.8,2.9,5.9,1.8,8.8,1c5.6-1.7,11-3.7,16.5-5.6c17.9-6.1,26.4-20.6,32-37.1c2.9-8.6-1.9-17.6-9-19.9
			c-8.4-2.8-19.7,1.6-23.3,9.1c-13.1,27.1-34.4,49.3-60.9,63.6c-4.5,2.5-9.3,4.5-14.3,5.8c-0.9,0.2-2.2,0.6-2.6-0.6
			c-0.4-1.4,0.9-1.5,1.8-1.8c4.9-1.7,9.3-4.5,13.6-7.2c37.5-23.9,52.1-61.2,60-102.4c0-0.5,0-1-0.2-1.5c-0.4,0.4-0.8,0.9-1.2,1.4
			c-2.7,6.2-6.5,11.6-10.4,17c-2.9,4.1-3.7,7.7-1.4,12.3c1.1,2.1,3,5.1,0.2,7.3c-7.7,6.3-15.5,12.5-23.5,18.5
			c-1.1,0.8-3.2,2.5-4.2,0.5c-0.8-1.7,1.7-2,2.9-2.7c7.9-4.6,12.7-11.1,12.8-20.6c0.1-12.8-14.9-29.6-29.5-32.8
			c-15.9-3.4-30.4,0.3-43.4,9.8c-1.1,0.8-2,1.7-3.2,2.4c-1.4,0.9-2.2,0.4-2.1-1.3c0.3-3.9,0.3-3.8-3.4-2.2c-1.1,0.5-2.5,2.2-3.4,0.5
			c-0.9-1.6,1.1-2,2.1-2.8c4.1-3,9.4-4.4,12.7-8.7c7.3-9.5,14.1-19.4,20.3-29.7c0.4-0.9,0.8-1.8,1.1-2.7c-1.6-0.4-1.8,1.1-2.4,1.9
			c-10.3,13.5-24.1,23.4-36.4,34.9c-0.8,0.8-2,2.5-3.2,1c-0.9-1.1,0.6-2,1.4-2.8c4.1-3.9,8.2-7.7,12.4-11.6
			C415.4,268.6,429.7,249.1,428.4,221.9z M507.9,873.1c1.7-19.3,2.1-38.6-0.9-57.8c-1.4-9-1.2-8.6-10.1-7.2c-6.2,1-9.9,3.8-13.1,9.2
			c-13.3,22.1-27,44-40.6,65.9c-13.4,21.7-28.1,42.7-39.7,65.3c-14.5,28.2-30,55.7-46.5,82.6c-0.8,1.3-2.7,2.8-1.4,4.3
			c1.1,1.3,3.2,0.4,4.8,0.1c10.2-2.2,20.5-4.3,30.7-6.7c33.7-8,64.7-21.5,90-46.1c12.1-11.7,24-23.6,34.8-36.5
			c10.6-12.5,19.6-26.1,24.8-41.9c0.9-2.8,1.2-5.3-0.7-8c-10.6-14.8-20.3-30-24.5-48.1c-0.3-1.3-0.9-3.6-2.4-3.3s-0.7,2.6-0.8,4
			c-0.6,22.1-1.2,44.3-1.9,66.4c0,1.3,0.7,3.6-1.5,3.5c-1.6-0.1-0.9-2.2-0.9-3.4C507.8,901.4,507.9,887.3,507.9,873.1z M219.5,898.1
			c-0.5-10.4-1-21.9-1.7-33.4c-0.9-13.3-3-26.3-9.3-38.5c-3.6-6.9-6.2-14.4-9.2-21.6c-12-28.9-23-58.2-27.8-89.4
			c-0.8-5.3-1.3-10.6-1.8-15.9c-0.4-4.9-4.1-4-7.1-4.1c-3.8-0.1-1.8,2.9-1.8,4.4c0.6,17.6,1.5,35.2,2.2,52.9
			c0.6,16.8,0.7,33.6,1.6,50.4c0.3,5.1-0.7,10.2,0.3,15.4c4,20.5,2.9,41.4,1.6,61.7c-1.5,23.4-2.2,46.9-2.5,70.1
			c-0.6,41.3,4.6,82.4,10.2,123.3c0.4,3.1,1.5,4.3,4.6,4.3c13.2-0.1,26.3-0.1,39.5,0c3.6,0,4.6-1.3,4.6-4.7
			c-0.2-8.3,0.1-16.7-0.1-25c-0.3-10.1-1.6-20.3-1.2-30.4c0.4-11.3,0.5-22.5,0.6-33.8C222.1,955.6,218.2,927.5,219.5,898.1z
			 M378.2,580.1c0.3-0.1,0.6-0.2,0.9-0.3c0.9-0.7,1.8-1.4,2.7-2.2c24.9-21.2,46-46.4,62.6-74.6c2.2-3.7,2.6-7.2,2.6-11.6
			c-0.1-20.4-1.9-40.9,2.7-61.1c0.3-1.2,1.3-3,0.2-3.7c-1.2-0.8-2.2,1-3.2,1.8c-22.2,18.5-48.3,29.8-74.9,40.3
			c-6.1,2.6-13,2.1-18.6-1.4c-1.3-0.8-2.9-2.7-4.4-1.5c-1.3,1-0.5,3.2-0.4,4.8c0.7,17-5.5,31-20,39.9c-8.2,5-13.1,11.4-15.8,20.2
			c-1.7,5.7-3.6,11.4-5.1,17.2c-1.7,6.8-1.6,6.8,5.5,7.1c1.2,0,2.3,0.1,3.5,0.4c13.8,3.1,27.5,6.5,41,10.7c7.3,2.3,13.7,6,18.3,12.3
			C376.6,579.1,377,580.1,378.2,580.1z M563.8,1077.8c10.5,0,21,0,31.5,0c6.7,0,8.2-1.5,6.1-8.1c-6.5-19.9-12.2-40.2-21-59.2
			c-3.7-7.8-6.2-16.1-7.6-24.7c-2-12.6-7-24.4-14.7-34.6c-1.1-1.5-2.5-4.5-4.4-0.5c-7,14.4-18.1,25.4-29.8,35.9
			c-1.4,1.3-3.2,4.6-4.9,2.7c-1.6-1.8,1.8-3.3,3.2-4.6c10.3-9.5,20.3-19.3,27.3-31.7c1.6-2.9,3.2-5.8,3.4-9.3c0.1-1.3,0.3-3-1.1-3.6
			c-1.8-0.8-2,1.2-2.8,2.1c-4.8,5.7-8.2,12.3-12.6,18.3c-10.2,13.8-23.1,24.3-36.4,34.7c-33.6,26.5-70.3,46.9-112,57.5
			c-14.9,3.7-30,6.2-45.2,7.5c-0.9,0.1-2.6-0.1-2.6,0.8c0.1,1.7,1.8,0.9,2.8,0.9c5.8,0.2,11.7-0.3,17.4-1.5
			c36.7-7.9,72.8-17.4,104.6-38.6c0.8-0.5,1.7-1.4,2.6-0.3c0.6,0.8-0.1,1.5-0.7,2.1c-0.8,0.8-1.5,1.7-2.3,2.5
			c1.5,0.7,2.5-0.6,3.5-1.3c13-8.7,26-17.4,39-26.1c4.6-3.1,5.1-2.9,6.4,2.5c5.7,23.3,9.7,46.9,11.9,70.8c0.4,4.2,1.7,6.1,6.4,5.9
			C542.4,1077.5,553.1,1077.8,563.8,1077.8z M652.1,631.9c-1-15.5-6.6-30.2-12.6-44.6c-9.4-22.7-21.8-43.8-35.7-64
			c-4.5-6.5-9.9-12.3-11.6-20.8c-1.4-6.7-5.2-12.9-8.3-19.2c-13.3-27.2-30.3-51.7-54.7-70.3c-2.5-1.9-4.8-4.1-5.9,1.2
			c-0.4,1.5-1.3,2.7-2.7,3.5c-3.4,1.6-3.2,3.8-2.3,6.9c6.9,23.3,13.8,46.6,20.5,69.9c0.7,2.4,2.1,4.5,4,6.1
			c3.7,3.1,7.2,6.5,10.8,9.6c1,0.9,1.7,2.4,3.5,2.3c-0.5-1.2-1-2.4-1.6-3.6c-9.2-16-17.2-32.8-23.8-50c-0.5-1.2-0.9-2.5-1.3-3.8
			c-0.3-0.6,0-1.4,0.6-1.7c0.7-0.4,1.3,0.1,1.6,0.7c0.6,1.2,1.1,2.4,1.6,3.6c4.9,13.1,10.7,25.8,17.4,38.1
			c6.2,11.6,13.2,22.7,20.8,33.4c5.8,8,8.9,18.4,11.4,28.1c2.1,8,3.6,16.1,5.3,24.2c6.3,30.1,10.5,60.4,7,91.2
			c-2.8,24.2-8.4,47.6-26.6,65.8c-0.4,0.4-1.4,0.7-0.6,1.4c0.2,0.2,1.2-0.3,1.8-0.6c3.3-2,6.3-4.3,9-7.1c23.4-25,32.6-55.1,32-88.7
			c-0.1-4.7-3-8.8-2.9-13.8c0.4-23.3-4.2-45.9-10.9-68.1c-3.2-10.3-7.1-20.4-11.8-30.2c-0.5-1-1.4-2.4,0-3.1c1.5-0.7,1.9,1,2.3,1.9
			c2.1,4.7,4.1,9.5,6.3,14.1c0.5,1.1,0.3,2.7,1.8,3.2c0-1.1,0-2.3-0.1-3.4c-0.7-9.1-2.7-18.1-6-26.7c-10.2-27.3-24.3-52.6-41.1-76.3
			c-0.8-1.1-1.6-2.2-2.3-3.3c-0.4-0.7-1-1.5,0-2.1c0.9-0.5,1.6,0.1,2.1,0.8c0.5,0.7,1,1.3,1.5,2c16.7,23.1,30.4,48.2,40.9,74.7
			c2,5.4,4.8,10.5,8.3,15.1c19.5,24.8,34.4,52.1,42.1,83c4.7,18.9,2.8,36.6-7.3,53.3c-0.6,0.9-2.1,2.2-1.2,3c1.2,1,2.4-0.6,3.2-1.5
			C646,657,651.5,645.7,652.1,631.9z M466.2,810.5c21-1.2,43-6.7,62.9-19.3c1-0.6,1.8-1.5,2.2-2.6c2.9-8.2,5.7-16.3,8.5-24.5
			c0.3-0.8,1-2-0.1-2.7c-0.5-0.3-1.5,0.3-2.2,0.7c-13.2,8.3-28,12.1-42.9,15.8c-8,2-16.2,2.9-24.1-0.2
			c-15.4-6.2-29.9-13.8-41.2-26.5c-7.3-8.4-13.8-17.6-19.2-27.3c-5.1-9-10-18-15.1-27c-3.6-6.3-3.6-6.3-7.7-0.6c-2,2.7-3.6,5.7-6,8
			c-6.9,6.5-6,13.9-2.8,21.5c1.6,4.2,3.6,8.2,5.9,12.1c7.3,12.1,15.2,23.9,23.7,35.2c6.4,8.7,13.8,16.7,21.9,23.9
			C439.7,805.6,450.7,810.9,466.2,810.5z M378.3,661.1c3.2,0,3.2,0,3.9-3c0.1-0.7,0.9-1.2,1.6-1.1c0.1,0,0.3,0.1,0.4,0.1
			c2,0.7,4.9,1.1,5.1,3.4c0.2,2.9-2.8,2.8-4.8,2.9c-2.3,0.2-4.6,0.2-7,0c-7.3-0.7-14.6-1.3-21.8-2.3c-13.7-1.9-27.6-3.1-39.5-11
			c-3.6-2.4-5.5-1.4-7.9,1.3c-10,11.2-12.7,24.2-9.2,38.6c5.4,22.1,21.4,37.2,35.7,53.4c1.2,1.4,2.3,1,3.4-0.1
			c7.9-8.1,14.6-17.1,17.6-28.1c1-3.8,1.9-6.8,4.4-10c7.8-10.2,16.3-19.8,25.5-28.8c1.9-1.8,3.7-3.9,5.1-6.1c4-6.4,2.3-11.9-4.6-15
			c-1.2-0.6-2.5-1-3.7-1.4c-17.8-5.1-35.7-9.7-54.5-7.7c-3.3,0.4-6.6-0.2-9.7,1.3c2.1,3.5,5.9,4.1,9.2,5.2
			C343.7,658.4,361.2,658.6,378.3,661.1z M538.9,514.4c-14.6,0.6-27.6,5.8-39.7,13.5c-10.9,6.9-20.7,15.2-30.4,23.6
			c-17.4,15.4-38.3,26.3-60.9,32c-13.5,3.4-27,7.2-40.5,10.9c-2.3,0.5-4.5,1.4-6.4,2.6c-7.2,5.1-15.1,9.2-22.9,13.3
			c-12.5,6.6-24.7,13.9-35.4,23.3c-1.1,1-3.5,2-2.4,3.7c0.9,1.4,2.7-0.4,3.9-0.9c22.5-10.4,46.1-16.9,70.4-21.5
			c20-3.7,39.9-7.8,58.3-16.9c10.8-5.3,20.3-12.4,30-19.3c19.6-13.8,40-26.5,60.8-38.5c14.1-8.1,29.6-9.4,45.2-2.9
			c1.4,0.6,3.1,2.7,4.3,1.2c1.3-1.6-0.6-3.4-1.6-4.8c-3.9-5.6-9.9-8.8-14.8-13.3C551.7,515.6,545.5,514.5,538.9,514.4L538.9,514.4z
			 M207.2,680.1c-0.2,3.2,0.3,6.3,1.5,9.3c3.7,9.8,6.9,11.3,16.6,7.6c15.7-6,30.5-14.2,44.1-24.2c4.6-3.4,7-8.4,10.1-12.8
			c0.8-0.9,0.8-2.3,0-3.2c-1.9-2.2-2-5-1.9-7.6c0.1-3.1-1-4.7-3.8-6.1c-11-5.6-21.1-12.9-29.9-21.5c-5.7-5.6-10.9-11.7-15.4-18.3
			c-0.8-1.1-2.6-2.7-0.9-3.8c1.6-1,2.2,1.4,3.1,2.4c1.1,1.3,2,2.7,3,4c10.6,14,24.1,25.6,39.5,33.9c1.4,0.7,3.1,2.9,4.7,0.7
			s-0.8-3.3-2-4.4c-10.7-10.1-20.7-20.7-30.2-32c-2.1-2.8-4.7-5.2-7.7-7.1c-6.9-4.1-13-2.2-16.1,5.2c-2.7,6.7-4.2,13.7-4.7,20.8
			c-1.4,16.2-1.9,32.6-8.6,47.9C207.5,673.8,206.9,677,207.2,680.1z M307.8,495.2c0-6,0.5-12-0.1-18c-1.6-17.1-2-22.3-21.7-23.5
			c-0.2,0-0.3,0-0.5-0.1c-12.3-0.9-24.7,0.1-36.6,3.1c-0.9,0.2-2.2,0.2-2.5,1.3c-0.1,0.4,0.5,1.2,1,1.5
			c11.4,6.6,15.3,17.9,18.2,29.7c4.7,18.6,6.2,37.7,9.7,56.5c3.3,17.6,8,34.7,18.2,49.8c0.8,1.2,1.3,3.2,3,3c2-0.3,1.2-2.4,1.5-3.7
			c2.4-12.8,4.1-25.6,5.4-38.5C305.5,536,308.2,515.8,307.8,495.2z M543.6,510.8c-0.6-0.5-1.3-1.2-2.1-1.8
			c-4.5-3.2-8.9-6.5-13.4-9.6c-7.3-4.9-14.2-10.6-22.9-12.9c-8.8-2.4-17.8-4.4-26.6-6.7c-4.6-1.2-7.9-0.3-10.7,3.8
			c-6.4,9.3-13,18.6-20,27.5c-13.9,17.7-29.8,33.6-44.7,50.4c-0.7,0.8-2.4,1.6-1.6,2.7c0.8,1.2,2.1-0.1,3.1-0.5
			c18.6-6.3,37.6-11.4,56.8-15.2c6-1.2,11.6-4,16.3-8c18.7-15.4,38.2-29.3,64.1-28.7C542.4,511.8,543.2,512,543.6,510.8z
			 M347.7,1056.9c1.6-0.1,3.1-0.1,4.6-0.3c34.3-4.1,66.9-13.9,96.8-31c36.2-20.8,70.7-43.8,94.5-79.8c8.6-13,9.1-24.7,2.3-37.8
			c-0.5-1-0.7-2.6-2-2.6c-1.4,0-1.4,1.6-1.8,2.6c-1.9,5.2-4.1,10.2-6.8,15c-9.4,17.1-22.6,31.2-36,45.2
			c-16.6,17.2-33.9,33.5-55.5,44.5c-24.9,12.7-51.6,19.6-78.9,24.2c-9.9,1.7-17,5-20.5,14.6c-0.6,1.7-2.9,3.1-1.8,4.8
			C343.7,1058.1,346,1056.7,347.7,1056.9z M90.2,680.3c0-0.5,0,0.3,0.1,1.1c1.8,20.6,25,48.1,45,53.2c2.4,0.6,4.8,1.5,7.4,0.9
			c2.6-0.7,3.9-1.6,2.4-4.5c-1.9-3.9-3.9-7.7-6.2-11.4c-5.1-7.6-9.9-15.6-11.5-24.8c-3.8-21.5-5.5-43.1-1.1-64.9
			c4.6-23.2,9.9-46.2,17.6-68.5c0.3-0.9,1.3-2.2,0.4-2.7c-0.9-0.5-1.5,1-2,1.8c-12.2,16.7-23.9,33.7-33.3,52.1
			C98.1,633.5,91.3,655.4,90.2,680.3z M157.3,574.1c-0.1,5.5,0.5,11,1.8,16.3c0.3,1.3-0.2,3.5,1.7,3.7c1.3,0.1,1.5-2,2-3.2
			c6.9-16,13.6-32.2,18.7-49c5.9-19.6,14.6-37.9,24.2-55.8c4.2-8,9.9-15.1,16.7-21c1.3-1.1,2.4-2.1,2.6-4
			c1.5-14.1,5.1-27.9,10.6-40.9c0.9-2,0.8-3.4-1.3-4.5c-1.5-0.7-2.9-1.7-4.1-2.8c-2.6-2.8-4.7-2-7.2,0.2c-7.4,6.8-13,15.2-19,23.1
			c-0.1,0.2-1.3,0.6,0.1,0.9c2.6,0.7,2.7,0.8,1.1,3c-5.1,6.8-9.6,14-13.6,21.5c-11.1,20.8-18.6,43-25.2,65.6
			C161.7,542.6,157.7,558,157.3,574.1z M490.2,1077.8c9.5,0,19-0.1,28.5,0.1c3.3,0.1,4.6-1.2,4.2-4.4c-0.2-1.3-0.1-2.7-0.2-4
			c-2.5-21.6-6.2-43.1-11-64.4c-1.2-5.2-1.5-5.3-6-2.3c-12.8,8.5-25.1,17.8-38.4,25.2c-7.5,4.2-11.1,7.4-8.2,16.5
			c2.9,9,0.4,18.5-0.9,27.7c-0.6,4.2,0.2,6,5,5.7C472.2,1077.5,481.2,1077.8,490.2,1077.8z M201.2,433.9c-0.9,0.8-1.7,1.6-2.6,2.3
			c-32.9,30-61.8,63.4-87.7,99.6c-15.6,21.8-29.8,44.1-35.4,70.9c-3.1,15.1-8,29.9-6.3,45.7c1.5,14.9,8.1,28.8,18.7,39.4
			c0.5,0.5,0.9,1.5,1.9,1.2c0.1,0,0.1-1,0-1.4c-4-10.6-2.7-21.7-3.3-32.6c-1.1-22.9,1.4-45.2,11.8-66.1
			c11.7-23.6,23.3-47.1,36.3-70.1c11.3-20,23.8-39.1,40.8-54.6c10.5-9.6,16.7-22.4,25.7-33C201.4,434.9,202.3,434.4,201.2,433.9z
			 M395.2,1077.8H443c11.6,0,11.9,0,13.4-11.4c1.3-9.7,1.8-19.6-1.4-29.2c-1-3-2.3-4.1-5.5-2.6c-11.8,5.9-24.3,10-36.7,14.3
			c-22.5,7.9-45.1,15.3-69.3,15.4c-6.2,0-8.7,2.9-11.1,7.7c-3,5.9-3.2,5.7,3.2,5.8C354.7,1078.3,373.6,1076.7,395.2,1077.8z
			 M125.7,657.5c0.9,9.7,1.8,20,3,30.2c0.7,7,2.8,13.7,6.1,19.9c0.3,0.6,0.5,1.7,1.6,1.4c0-0.6-0.1-1.2-0.3-1.8
			c-1.6-7.1-3.2-14.3-4.8-21.4c-0.3-1.5-1.4-3.9,0.6-4.3c2.1-0.4,1.7,2.5,2,3.8c1.8,10,4.3,19.8,7.4,29.5
			c3.5,10.7,8.2,20.7,15.2,29.6c0.7,0.9,1.4,2.4,2.6,2.1c1.5-0.4,0.8-2,0.7-3.1c-0.2-5.8-0.6-11.6-0.8-17.5
			c-0.1-4.5-0.6-8.7-2.6-12.9c-3.4-7-7.1-14.2-7.8-22c-0.6-6.2-3.1-11.1-6.3-15.9c-5.2-7.9-5.7-16.1-1.9-24.7
			c1.6-3.5,2.5-7.2,2.5-11.1c-0.4-21.5,4-42.2,9.9-62.8c3.3-11.6,5.3-23.6,4.2-35.8c-0.1-1.1-0.3-2.2-0.5-3.3
			c-1.5,0.5-1.5,2.1-2,3.2c-4.9,11.8-9.3,23.9-13,36.1C133.7,603,127.8,629.6,125.7,657.5z M471.8,284.9c1.4-34.9-12-66-24.9-97.3
			c-0.3-0.6-0.4-1.4-1.2-1.2c-0.2,0-0.3,1.2-0.2,1.8c1.9,11.7,2.2,23.6,0.8,35.3c-1.1,9.8-2.1,19.7-6.3,28.6
			c-5.7,12-12,23.8-19,35.1c-0.5,0.8-1.6,1.5-0.9,2.5c0.3,0.4,1.6,0.2,2.4,0c6.1-1.6,12.3-1,18.4-0.8c3.5,0.1,7.6,0,10.2,1.8
			c5.6,3.9,12.1,6.2,17.1,10.9c0.7,0.6,1.8,1.4,2.6,1.2c1.4-0.3,1-1.9,1-3C471.8,294.9,471.8,289.9,471.8,284.9z M277.2,450.9
			c4.9-0.4,10.2,0.3,15.5,0.9c10.4,1.1,15.3,6,16.7,16.4c0.9,7.9,1.4,15.9,1.4,23.9c0.2,11.8-0.7,23.6-1.6,35.4
			c-0.1,0.7-0.5,2,0.4,2.1c0.9,0.2,1.1-1,1.3-1.8c2.6-9.2,8.8-14.9,16.7-20.1c14.5-9.4,19.6-23.7,18-40.6c-0.3-3-1.3-5.5-4.4-7.3
			c-12-6.9-23.8-14.1-35.6-21.2c-1.8-1.2-4-1.6-6.2-1.3c-16.8,2.3-32.6,7.5-47.9,14.6c-0.6,0.3-1.8,0.3-1.4,1.5
			c0.1,0.2,1.2,0,1.8-0.1C260.2,451.8,268.4,450.5,277.2,450.9z M486.9,134c1.8,0,3.7-0.1,5.5-0.4c2.3-0.4,4.5-1,6.7-1.9
			c17.2-6.9,32.2-17.3,46.3-29.1c0.4-0.5,0.8-1,1.1-1.6c-0.6,0.1-1.4,0-1.8,0.3c-4.9,3.4-8.2,1.3-11.9-2.5
			c-5.8-6-12.6-10.9-19.5-15.6c-3-2.2-6.4-3.6-10-4.2c-13.8-1.9-26.3,2-38.3,8.4c-4,2.2-2.8,3.4,0.3,5.1c10.2,5.6,21,10.1,32.2,13.3
			c8.5,2.5,17.1,4.2,25.9,5.1c1.4,0.1,3.3-0.1,3.6,1.9c0.2,1.6-1.4,2.1-2.5,2.7c-1.5,0.7-3.1,1.3-4.6,1.8c-7,2-13.9,0.8-20.7-0.6
			c-13.3-2.7-26.6-4.8-40-1.4c-3.6,0.8-7,2.1-10.2,3.9c-0.6,0.3-1,0.8-1.3,1.4c-0.2,0.8,0.5,1.1,1.2,1.2c9.2,1.5,17,6.6,25.6,9.8
			C478.3,133.1,482.5,134.4,486.9,134z M329.2,761.7c3.2,0,6.3,0.2,9.5,0c10-0.8,10-0.9,8.2-10.7c-0.2-1.3-0.6-2.6-0.9-3.9
			c-1.4-6.2-1.4-6.2-6-2.1c-2.2,1.9-4.5,4-7.2,0.9c-7.2-8.3-14.4-16.5-21.3-25.1c-8.7-10.8-14.6-23-16.5-36.9
			c-0.1-0.8-0.3-1.5-0.5-2.3c-0.4,0.7-0.8,1.4-1.1,2.2c-6.1,22.1-9.2,45-9.2,67.9c0,3.1,1.4,4,4,4.6
			C301.8,759.2,315.3,762,329.2,761.7L329.2,761.7z M200.3,702.4c0.4,2.4,1.4,4.6,2.9,6.5c5,6.8,10.6,13.3,16.5,19.3
			c5.6,5.5,11.8,10.3,19.2,13.1c2.3,0.9,4.5,1.7,5.7-1.5c7.4-19.7,17.1-38.6,23.1-58.9c0.3-1,1.6-2.4,0.4-3.2c-1-0.6-2,0.8-3,1.4
			c-12.4,8.6-25.9,15.7-40.1,20.9c-9.1,3.4-10.2,3.1-16.4-4.7c-0.8-1-1.4-2.6-3.1-1.4C202.7,696,200.5,698.4,200.3,702.4z
			 M552.1,286.6c0.3,4.1,0.7,8.3,1,12.4c0.2,2.5,0.9,2.9,2.9,1.2c2.9-2.7,6-5.2,9.3-7.5c14-9.5,22.5-22.8,26.6-39.1
			c1.4-5.8,2.4-11.8,6.2-16.7c0.3-0.4,0.7-1.1,0.5-1.3c-0.6-0.7-1.2-0.1-1.7,0.3c-3.8,4-7.5,4.6-11.1-0.3c-0.6-0.6-1.4-1-2.2-1.2
			c-6.9-2.6-14-2.5-21.2-1.8c-4.2,0.4-8.5,0.8-12.3,3.5c-3.2,2.2-3.9,4.1-0.5,6.9c4.1,3.4,8.9,5.9,14,7.5c2.4,0.8,6.3-0.6,7,2.4
			c0.6,2.6-3.1,3.9-4.9,5.7C558.3,266.5,549.9,273.9,552.1,286.6z M590.2,602.1c-1-6.2-1.4-14.2-4.4-21.7c-0.3-0.8-0.3-2.2-1.6-1.9
			c-0.4,0.1-0.7,1.4-0.8,2.2c-2.1,12.6-3.9,25.3-6.2,37.9c-2.4,12.9-3.9,25.9-7.4,38.7c-6,22.2-16.7,43.2-18.1,66.7
			c-0.1,2.2-1.9,5.2,0,6.3c1.1,0.6,3.5-2.4,5-4.3c7.1-9.2,11.8-19.7,16.1-30.3C584.7,666.1,588.2,635.1,590.2,602.1L590.2,602.1z
			 M485.6,411c-6.4-0.1-12.5,1.5-18.6,3.2c-9.5,2.7-14.4,8.6-15.2,18.4c-0.2,2.3,0.1,3.5,2.3,4c4.9,1,7.8,4.3,9.9,8.4
			c5.5,11,14.6,17.9,25.2,23.2c5.5,2.7,5.5,2.7,5.6-3.4c0.2-13.6-0.8-27.3,1.6-40.8C498.8,410.2,494.9,411.1,485.6,411L485.6,411z
			 M306.8,577.2c-2.4,0-3,1.2-3.6,3.3c-4.4,16.4-3.2,33.3-4.8,50c0.1,0.6,0.2,1.2,0.5,1.8c0.6-0.2,1.2-0.5,1.7-0.9
			c14.2-11.7,30.3-20.4,46.4-29c2.6-1.4,7.1-2.2,7-5.4s-4.3-4.8-7.1-6.4c-8.2-4.6-17.3-6.6-26.2-9.3
			C316,579.8,311.4,578.5,306.8,577.2z M449.2,472.1c0,5.5,0,11,0,16.5c0,2.2,0,4.4,1.2,6.3c0.8,1.4,0.7,3.7,2.7,3.8
			c1.6,0.1,2.2-1.8,3.1-3c3.1-4.3,6.8-8.4,9-13.1c3.1-6.6,8.2-6.5,13.8-5.4c7.1,1.5,14.1,3.7,21.3,5.2c7.8,1.7,15.2,5,21.7,9.6
			c8.5,6.1,17.2,12,25.8,18c0.6,0.4,1.1,1.5,1.9,0.5c0.1-0.1-0.6-1.1-1.1-1.5c-5.8-5-11.6-10-17.5-14.8
			c-12.1-9.7-25.9-16.1-39.9-22.4c-12.5-5.7-23.5-13.2-29.7-26.2c-1-2.1-2.5-4-4.5-5.3c-3.9-2.6-6.2-1.5-6.6,3.1
			C449.5,453.1,449.1,462.6,449.2,472.1z M225.4,1052c0,8.7,0,15.2,0,21.7c0,1.3-0.3,2.7,1,3.7c3.4,2.4,12.3-0.3,13.8-4.2
			c4-10.5,5.8-21.5,6.6-32.6c0.1-1.3-0.6-3.6,1.5-3.5c1.6,0.1,1,2.2,0.9,3.4c-0.4,11.2-2.5,22.2-6.1,32.7c-0.5,1.5-2.4,3.5,0.4,4.5
			c2.3,0.8,4-0.4,5-2.8c4.1-10.5,9-20.8,14.5-30.7c1.5-2.6,0.9-4-1.9-4.7c-13.1-3.1-23-11.7-33.2-19.7c-1-0.8-1.7-2.7-3.1-1.8
			c-1.1,0.7-0.5,2.5-0.5,3.8C224.6,1032.6,225.9,1043.4,225.4,1052L225.4,1052z M594.9,648.4c-0.6-7.4-1.3-17-2-26.6
			c0-0.6-0.3-1.7-0.5-1.7c-1.3-0.1-0.8,1.1-0.9,1.8c-1,8.6-1.8,17.2-3.1,25.7c-3.8,24.8-10.7,48.7-23.2,70.7
			c-3,5.4-6.2,10.8-11.5,14.2c-3.5,2.3-4.5,5.4-5.2,9.1c-0.7,3.6,0.2,5,4.1,3.8c5.6-1.6,10.8-4.5,15-8.5
			c7.4-6.8,12.4-15.2,16.2-24.3C592.1,692.8,594.3,671.9,594.9,648.4L594.9,648.4z M296.6,613.8c-0.9-2.8,1.7-7.5-1.8-11.8
			c-6.9-8.5-11.6-18.2-15.2-28.5c-6.7-19-8.7-38.9-11.8-58.6c-1.9-12.2-3.8-24.3-8.1-35.9c-2.8-7.5-7.3-13.9-14.7-17.5
			c-0.8-0.2-1.5-0.4-2.3-0.4c0.3,0.7,0.6,1.4,1,2.1c5.5,7.4,9.4,15.8,11.2,24.8c4.3,19.2,10.8,37.9,12.5,57.7
			c1,11.2,3.6,22.3,6.1,33.3c4,18.1,9.6,35.6,18.3,52.1c0.6,1.2,1,3.3,2.6,3.1c0.6-0.1,1.2-2.5,1.4-3.9
			C296.8,624.8,297.1,619.3,296.6,613.8z M312.8,557.3c-2.5,0.5-6-0.1-6.7,3.1c-1,4.4-2.2,9-1.2,13.7c0.1,0.4,1.1,0.7,1.7,0.7
			c8.3,1.1,16,4.4,24,6.5c6.9,1.9,13.6,4.6,19.8,8.1c2.9,1.7,4.6,6.4,8.3,5.4c3.3-0.9,6.1-3.9,9.1-6c0.1-0.1,0.3-0.2,0.4-0.3
			c8.6-6.4,8.6-7.9-0.3-14.5c-0.8-0.6-1.6-1.2-2.5-1.7c-6.4-3.8-13.5-5.5-20.6-7.3C334.2,562.4,323.7,559,312.8,557.3z M497.5,447.1
			c0,7.2-0.2,14.3,0.1,21.5c0.1,2.2,1.2,5.3,4,4.7c2.4-0.5,1.1-3.4,0.8-5.2c-2.1-12.5-2.9-25.2-2.5-37.8c0-1.2-0.5-3.1,1.2-3.4
			c2.2-0.4,2,1.7,2.4,3c4.5,14.3,7.8,28.9,9.8,43.8c0.6,4.2,1.7,7.4,5.9,9.5c4.3,2.2,8,5.3,12.1,8c1.3,0.9,2.2,2.5,4.1,2.2
			c-0.2-1.4-0.4-2.9-0.8-4.3c-6-20.4-12.1-40.8-17.8-61.3c-1.4-5-3-8.2-8.9-6.5c-1.5,0.3-3,0.1-4.4-0.4c-2.9-0.9-3.9,0.2-4.3,2.9
			C497.7,431.5,498,439.3,497.5,447.1z M158.7,513.5c-0.8,0.9-1.7,1.9-2.5,2.9c-26.5,33.3-47,70.9-60.6,111.1
			c-3,8.8-7.6,17.4-6.3,27.3c0.1,1.1,0.2,2.3,0.2,3.5c0.5-1.2,0.9-2.4,1.3-3.6c2.2-10.4,5.4-20.6,9.7-30.3
			c11.4-26.7,28.3-50,45.3-73.3c7.6-10.5,12.3-22.8,13.9-35.6C159.7,514.7,160.1,513.8,158.7,513.5z M140.3,660.8
			c0.1,10.6,13.1,28.5,22,31.4c0.3,0.1,0.6,0.3,0.9,0.4c3.2,0.8,4.9-0.3,4.5-3.8c-1-7.2,0.3-14.3,2-21.2c1.1-4.7,2.1-9.4,3.3-14.1
			c0.5-1.9,0.4-3.4-1.8-3.8c-8-1.6-15.2-4.7-21.2-10.4c-1.1-1.1-2.1-1.1-2.6,0.4C144.8,647,141.1,654,140.3,660.8z M90.2,629.3
			l0.3,2.4c1.3-0.3,1.1-1.4,1.5-2.3c0.2-0.5,0.4-0.9,0.5-1.4c14.5-42.9,36.5-82.8,65.2-117.8c1.6-2,4-3.4,4.8-6.2
			c3.2-10.3,7.5-20.3,12.7-29.8c0.3-0.7,0.5-1.5,0.7-2.3c-0.7,0.4-1.3,0.8-1.9,1.3c-7.2,7.4-13.9,15.3-19.8,23.8
			c-22.7,33.1-39.9,69.2-56.9,105.3C93.3,610.8,91.4,620,90.2,629.3z M372.9,590.2c18-5.1,36.5-9.1,54.3-15.9
			c12.9-5.1,24.8-12.3,35.3-21.3c0.7-0.6,2-0.8,1.5-2.1c-0.1-0.2-1.5,0.1-2.3,0.3c-16.3,3.2-32.1,8.6-48.2,12.3
			c-16.9,3.8-28.3,15.3-41,25.2c-0.4,0.4-0.8,0.9-1.1,1.5H372.9z M297,300.2c-14.7,0-25.1,11.6-24,27c0.1,1.3,0.2,3.4,0.8,3.6
			c1.5,0.5,1.9-1.4,2.7-2.4c9.4-12.5,29.7-14.2,41.5-4.4c0.7,0.6,1.4,1.9,2.4,1.2c0.6-0.4,0.5-1.8,0.6-2.7
			C321.2,310.7,310.1,300.2,297,300.2z M224.7,1005.6c1,2.7-1.5,6,1.4,8.7c8.6,8.1,18,15.4,28.8,20.3c10.8,4.8,12.8,3.6,17.7-7.2
			c1-2.2,0.4-2.8-1.7-3.4c-14.9-3.8-27-12.4-38.4-22.3c-2.1-1.8-4.5-5.6-6.4-4.7C223.9,998.2,225.3,1002.5,224.7,1005.6z
			 M293.2,353.8c11.2,0.1,19.7-3.6,23.9-9c4.7-6.1,3.6-13.1-2.5-16.6c-1.8-1-2.6-1.4-3.4,1.2c-2.2,6.9-6.6,10.1-13.1,10.2
			c-6.1,0.1-9.8-2.7-12.8-9.8c-0.3-0.8,0-2.2-1.5-2.1c-3,0.2-8.4,10.1-7,13.1C280.6,349,287,353.7,293.2,353.8L293.2,353.8z
			 M254.8,415.1c-1.6,0-3.5-0.4-4.3,1.6c-0.7,1.7,0.1,3.1,1.3,4.5c5,5.6,8.6,12.3,10.6,19.5c0.5,1.8,1.3,3,3.5,2.3
			c9.7-3.4,19.7-6,29.8-7.8c1.1-0.2,2.8-0.7,1.2-2.1c-3.4-3.1-6.3-7.8-10.8-8.3c-7-0.9-12.9-4-19.3-6.3
			C262.9,417.1,259.1,415.1,254.8,415.1L254.8,415.1z M247.9,424.6c0.8-1.8,1.2-4.3-1.4-4c-2.9,0.4-6.5-4.2-8.6,0.9
			c-4.9,11.4-8.2,23.5-9.8,35.9c-0.4,3.1,0.7,3.1,3,1.9c4.8-2.5,9.7-5.1,14.7-7.4c2.5-1.2,3.2-2.9,3.4-5.5
			C249.6,439.1,249.2,431.8,247.9,424.6L247.9,424.6z M284,636.4c-1.6-0.1-2.1,1.6-2.7,3.2c-3.6,9.3,1.9,21.4,11.4,24.9
			c1.9,0.7,3.6,0.8,4.6-1.4c2.7-5.7,6.4-11,10.8-15.5c1.3-1.4,2-2.8-0.3-3.9C300.4,640.4,292.4,638.6,284,636.4z M201.3,322
			c-0.2,13.6,2.2,27.7,6.2,41.5c1.3,4.8,3.3,9.4,5.9,13.7c0.4,0.6,0.7,1.6,1.7,1.5c0-0.8-0.1-1.6-0.3-2.3
			c-2.9-6.9-2.8-14.4-5.6-21.5c-2.6-6.5-2.1-14.1-2.2-21.2c-0.1-16.8,0.8-33.6,2.7-50.3c0.1-1.3,0-2.6-0.1-3.9
			c-1.8,0.4-1.4,2.1-1.9,3.2C202.7,294.9,201.2,307.9,201.3,322z M483.9,289.3c-0.2-20.2-2.5-36.1-7.1-51.6
			c-0.3-0.8-0.7-1.5-1.1-2.2c-0.1,0.8-0.1,1.5,0,2.3c2.8,20.5,2.6,41.2-0.8,61.6c-0.9,5.2-0.6,9.4,3.4,13.1c0.7,0.6,1.4,2,2,1.9
			c1.4-0.1,1.3-1.7,1.5-2.8C482.8,302.9,484,294.2,483.9,289.3z M474.2,408.3c-1-0.4-3.6,1.4-3.8-0.9c-0.1-2.1,2.6-1.4,4.1-1.5
			c3.6-0.3,7.3-0.9,10.9-0.6c6.3,0.5,13-0.1,18.4,4.6c1.2,1,3.6,1.9,5,0.1c1.2-1.4-0.6-2.7-1.2-4c-1.5-3.3-3.5-6.5-4.6-10
			c-1.2-3.9-2.9-4.3-6.5-2.9c-6.8,2.6-13.6,5.8-21.2,4.3c-1.2-0.3-2.4,0.2-3,1.3c-2.7,4-5.5,8-8.2,11.9c-0.3,0.5-1.1,1.1-0.4,1.6
			c0.4,0.3,1.2-0.1,1.9-0.3c3.7-1,7.4-1.9,11.1-2.9c0.5-0.1,0.9-0.2,1.4-0.3c-0.5-0.2-1.1-0.3-1.6-0.4
			C475.9,408.2,475.3,408.3,474.2,408.3L474.2,408.3z M277.4,287c-0.5,3.1,0.6,5.3,3.6,3c2.8-2.1,5.3-1.9,8.3-1.4
			c3.5,0.7,4.3-0.4,3.8-4.3c-1.3-10.4-3.1-20.6-5.3-30.8c-0.2-1,0-2.4-1.1-2.5c-1.2-0.2-1.3,1.3-1.7,2.2
			C280.3,264,278.8,275.5,277.4,287z M160.2,530c-0.1,1-0.2,2-0.1,3c0,0.9-0.7,1.9,0.5,2.6c0.4-0.7,0.8-1.4,1.1-2.1
			c0.1-0.3,0.2-0.6,0.2-1c8.5-28.8,17.5-57.3,33.5-83c0.3-0.6,0.4-1.2,0.5-1.8c-1,0-1.2,0.9-1.7,1.5c-7.4,10.1-13.9,20.7-19.7,31.8
			C166.9,496.5,161.4,512.6,160.2,530z M431.2,293.7c26.9-0.5,45.7,18.2,44.9,42.5c-0.1,2.1,0.2,2.4,2,1.4c6.1-3.2,7.2-6.3,4.1-12.4
			c-0.7-1.3-1.7-2.5-2.3-3.8c-6.2-15.2-19-23.6-33.2-28.6c-12.3-4.3-25.3-1.3-37.3,4.2c-0.8,0.4-2.4,0.7-1.8,1.9
			c0.5,1.2,1.8,0.2,2.6-0.2C417.6,295.4,425.3,293.5,431.2,293.7z M519.2,327.8c1.5,0.2,3,0.5,4.4,0.9c3.2,1,4.3,0.2,3.2-3.2
			c-3.2-10.5-5.4-21.2-7.6-31.9c-0.1-0.6-0.3-1.3-0.5-1.9c-0.3,0.6-0.6,1.3-0.8,2c-1.8,11.1-4.9,22-9.1,32.5c-0.4,1-1.1,2.7-0.7,3.2
			c1,1.1,2.4,0.1,3.7-0.2C514.2,328.7,516.7,328.3,519.2,327.8z M585,328.9c0-15.5-1.7-29.1-4-42.7c-0.1-0.8,0.6-2.7-1.6-2.1
			c-2.9,0.9-5.6,6.1-4.8,9.2c4.5,18.4,8,37,7.8,56c0,0.6,0.1,1.3,0.2,1.9c0.4-0.7,0.7-1.4,0.9-2.2
			C584.6,342.5,585.1,335.7,585,328.9z M264.6,390.9c-0.3,0.3-0.6,0.7-0.8,1.1c-1.9,6-5.5,10.8-9.7,15.5c-2,2.2-0.7,4.4,2.4,4.9
			c5.8,0.9,11,3.7,16.5,5.6c2.7,0.9,5.3,2,7.9,2.9c0.5,0.2,1.3,0.7,1.6-0.2c0.1-0.2-0.4-0.8-0.8-1.1c-8.5-6.8-12.1-16.5-15.6-26.2
			C265.8,392.5,265.9,391.4,264.6,390.9z M290.2,291.2c-4.7,0.8-9.7,1.5-14.2,4.3c-11.6,7.3-20,16.8-23.7,30.5
			c-1.4,5.2-0.2,8.2,3.8,10.9c0.7,0.5,1.4,1.3,2.2,0.8c0.9-0.6,0-1.5-0.2-2.2c-1.4-4.5-2.6-8.9-1.2-13.7
			c3.8-12.3,18.9-28.9,36.3-27.7c8,0.5,15.8,1.9,23.1,5.7c1,0.5,2.1,0.9,3.2,1.2c0.1-1.6-1.3-2.1-2.2-2.8
			C309.3,292.3,299.7,292.5,290.2,291.2z M79.7,702.9c0.2,13.1,2.7,26.1,7.4,38.4c0.3,0.7,0.2,1.8,1.4,1.6c0.2,0,0.3-1.2,0.2-1.8
			c-3-13.6-3.6-27.7-1.8-41.6c0.6-4.1-1.5-6.5-4-9c-1.7-1.7-2.5-1.3-2.6,1C80.1,695.2,79.9,699.1,79.7,702.9z M146.2,621.4
			c0.3,1.6-0.7,3,0.5,4.3c0.7-1.1,1.4-2.2,1.9-3.4c3-6.5,6-13,8.9-19.5c0.7-1.5,1.3-2.9,0.8-4.7c-1.2-4.5-2-9-3-13.6
			c-0.2-0.7-0.5-1.4-0.9-2.1c-0.4,0.7-0.8,1.4-1.1,2.1C149.9,596.6,147.5,608.9,146.2,621.4z M298.2,322c-6.3-0.1-8.9,1.4-8.9,5.2
			c0,4.4,4.3,8.7,8.6,8.6c4.8-0.1,9.1-4,9.1-8.1C306.9,323.7,304.3,322,298.2,322z M274.2,610.3h-0.3c0.2,3.3,0.2,6.6,0.6,9.9
			c0.5,3.9,1.2,7.9,2,11.7c0.4,1.6,1.6,3.3,3.5,2.7c1.7-0.5,0.7-2.2,0.4-3.5c-0.6-2.8,0-5.6,0.2-8.4c0.2-2.8,1.7-5.4,0.7-8.3
			c-1.9-5.5-3.7-11-5.6-16.5c-0.3-0.6-0.6-1.1-1.1-1.5c-0.2,0.6-0.4,1.2-0.5,1.8C274.1,602.4,274.2,606.4,274.2,610.3L274.2,610.3z
			 M270.2,295c-1.8-5.3-3.8-10.2-4.4-15.5c-0.1-0.8-0.1-1.9-1-2c-0.3,0-0.9,1.3-1.1,2c-1.5,6.6-3.1,13.3-4.5,19.9
			c-0.3,1.4-1.7,3.1-0.1,4.1c1.4,0.9,2.8-0.7,3.9-1.6C265.6,299.9,269,298.5,270.2,295L270.2,295z M516.2,383.7
			c-3,3.2-7.5,4.4-11.2,6.8c-0.8,0.5-0.6,1.5-0.3,2.3c1.6,4.7,3.7,9.2,6.3,13.4c0.5,0.7,0.9,1.5,1.9,1.3c1-0.2,1.2-1.2,1.1-2
			c-0.4-7,0.8-13.9,3.3-20.4C517.7,384.3,517.9,383.6,516.2,383.7L516.2,383.7z M521.9,410.2c-0.2-3,0.1-5.9-1.7-6.4
			c-2.6-0.8-2.6,2.4-3.5,4c-2.6,4.7-7.2,6.3-13.3,4.9c-1.3-0.3-3-1.9-3.9,0.2c-0.8,1.8,0.5,3.1,1.9,4.1c4.2,3.2,15.6,1.6,18.9-2.7
			C521.2,413.1,521.8,411.7,521.9,410.2L521.9,410.2z M502.3,442.2c1,10.6,1.5,21.2,3.9,31.6c0.5,2.1,1.6,3.8,3.4,3.4
			c2.2-0.4,1.3-2.8,1-4.2c-1.6-10.5-3.8-20.8-6.5-31.1c-0.4-1.4-0.2-3-1.5-4.1C502.5,439.3,502.4,440.8,502.3,442.2L502.3,442.2z
			 M252.5,441.9c0.5,1.2-2.2,4.2,0.4,5.8c1.5,0.9,3.6-1.2,5.4-1.8c2.2-0.7,2-2.3,1.6-4c-1.1-4.5-2.9-8.8-5.5-12.7
			c-0.6-1-1-3.1-2.6-2.4c-1.3,0.5-0.5,2.4-0.5,3.6C251.6,433.9,252,437.3,252.5,441.9L252.5,441.9z M317.1,643.8
			c2.4,0.4,4.9-0.4,6.6-2.1c5.1-4.5,10.2-9,15.3-13.5c0.6-0.5,1.6-1.6,1.5-1.7c-0.7-1.1-1.8-0.2-2.6,0c-1.3,0.2-2.6,0.7-3.7,1.4
			c-5.9,4.6-11.7,9.2-17.6,13.9c-0.5,0.4-1.1,1.2-0.9,1.5C316.3,644.4,317.5,643.8,317.1,643.8L317.1,643.8z M244.6,417.7
			c2.5,0.2,2.8-1.7,3.6-3.1c0.5-1,1.7-2.3,1.4-3c-0.6-1.3-2-0.2-3.1-0.1c-4.8,0.6-8.9-0.5-11.8-4.7c-0.6-0.9-1.2-3-2.9-1.3
			c-1.1,1.1-2.8,2.7-1.1,4.2C234.7,413.5,239.5,416.2,244.6,417.7z M158,701.8c0-0.8,0-1.6,0-2.3c0.7-4.4-1.2-7.6-5-9.7
			c-0.6-0.4-1-1.5-1.9-0.9c-0.3,0.2,0,1.2,0,1.8c0.6,3.9,1.8,7.7,3.6,11.3c0.9,2,0.7,5.4,3.2,5.4C158.9,707.4,157.6,703.5,158,701.8
			z M323.7,632.6c-0.4-1.7-1.2-0.9-1.9-0.7c-4.1,1.7-8.3,3.3-12.4,5.1c-1.3,0.6-3.6,0.7-3.4,2.3s2.6,1.8,4.1,2.4
			c1.1,0.4,2.4,0.1,3.2-0.8c3.1-2.5,6.2-5,9.3-7.4C323,633.2,323.3,632.8,323.7,632.6z M107.7,719.8c-0.8,0.1-0.4,0.6-0.4,1
			c1,5,14.1,15.3,19.3,15.2c0.5,0,1.3,0,1.4-0.3c0.4-1.1-0.7-1.2-1.4-1.6c-6.6-3.6-12.6-8-17.8-13.3
			C108.5,720.4,108.1,720.1,107.7,719.8L107.7,719.8z M282.9,627.1c0.1,2.2-0.1,4.5,1.9,6c1.3,1,3,2.4,4.4,1.4
			c1.6-1.1-0.3-2.7-0.8-3.9c-0.9-2.1-1.9-4.2-3.1-6.2c-0.4-0.8-0.3-2.3-1.7-1.9c-0.3,0.1-0.4,1.5-0.5,2.3
			C283,625.5,282.9,626.3,282.9,627.1z M451.3,501.9c-0.5-0.5-0.9-1.1-1.5-1.3c-1-0.3-1.4,0.7-1.8,1.3c-2.4,4-4.8,7.9-7.2,11.9
			c-0.3,0.5-0.9,1-0.4,1.8c0.5-0.4,1-0.8,1.5-1.3c2.7-3.4,5.4-6.7,8-10.1C450.5,503.4,450.9,502.7,451.3,501.9L451.3,501.9z
			 M594,290.7c-0.1-0.3-0.2-0.6-0.3-1c-2-4.2-4-8.4-6-12.6c-0.3-0.7-0.7-1.8-1.7-1.4c-0.9,0.3-0.8,1.4-0.6,2.2
			c1.9,4.6,4.4,9,7.5,12.9c0.2,0.2,0.5,0.4,0.7,0.6C593.8,291.2,593.9,291,594,290.7z M513.2,112.3c-0.5,0.4-1.7-0.8-1.8,0.4
			c0,0.5,1.5,1.1,2.2,1.8c2.2,2.1,4.4,0.5,6.6,0.2c0.2,0,0.4-0.4,0.6-0.7c-1.4-1.3-3.4-0.7-5-1.4C515,112.4,514.1,112.2,513.2,112.3
			z"/>
		<path d="M544.1,263.7c-0.1,0.7,0.2,2-1.2,2c-1,0-1.2-1.1-1.3-1.9c-1.1-6.2-2-12.5-3.2-18.7c-4.1-20.7-13.4-39.6-21.9-58.7
			c-4.2-9.4-8.4-18.8-12.5-28.3c-0.5-1.1-1.8-2.6,0-3.4c1.4-0.6,1.8,1.1,2.2,2.1c10.2,24,22.5,47.1,30.6,72
			C540.4,240.2,542.9,251.9,544.1,263.7z"/>
		<path d="M559.5,344.8c-5.4,15.8-10.7,31.8-25.1,42.5c-1.1,0.7-2.4,1.1-3.7,1.2c-0.8,0.1-1.6-0.1-2.3-0.6c-0.9-0.9-0.1-1.8,0.5-2.6
			c2.4-3.4,4.8-6.8,7.2-10.2c6.7-10.2,12.6-20.7,17.8-31.7c0.7-1.4,0.6-4.3,3.2-3.6C559.1,340.3,558.3,342.9,559.5,344.8z
			 M534.6,383.8c0.7-0.6,1.5-1.3,2.2-1.9c9.6-9.1,14-21.1,18.7-33c0.1-0.4,0.1-0.9,0-1.3c-0.8-0.2-1,0.6-1.2,1.1
			c-5.8,11.7-12.5,23-20,33.8c-0.2,0.4-0.5,0.9-0.6,1.3H534.6z"/>
		<path d="M465.8,329.9c0.6,9.9-5.6,18.4-16.2,23.8c-9.3,5-20.6,4.8-29.6-0.7c-9.2-5.4-10.7-15.2-10.6-24.9c0.1-5.3,2-10.4,4-15.4
			c5.2-12.9,18.4-18.7,31.5-13.8C460.2,304.5,465.8,312.1,465.8,329.9z M436.6,354c7.5,1,13.7-3.2,19.4-8.2c4.4-3.9,5-7.1,2.2-12.4
			c-1.1-2.2-2.2-5.2-4.7-5.4c-2.2-0.2-2.6,3.1-3.7,4.8c-3.5,5.2-8.5,7.6-14.5,7c-6.4-0.6-9.9-4.9-11.6-10.9
			c-0.3-1.5-0.6-2.9-0.8-4.4c-0.2-1-0.1-2-1.6-2.1c-2.9-0.2-9.3,5.3-9.2,8.4C412.6,345.2,419.4,354.6,436.6,354z M463,327.2
			c-0.2-15-6.3-22.1-21.7-26.7c-12.2-3.6-25.5,6.1-27.8,20.3c-0.2,1.4,0.1,2.4,1.9,1.5c1.5-0.8,2.9-1.6,4.4-2.3
			c14.1-6.5,30.1-2.9,38.7,8.6c1.2,1.6,2.2,5,3.3,4.5C464.1,332.1,462.6,329,463,327.2z M433.6,319.4c-2.4,0.8-6.8-1.1-7.6,4.2
			c-0.8,5,2.3,11,6.7,12.9c4.5,1.9,11.2-0.1,14.2-4.3c4.8-6.6,4.2-8.6-3.4-11.2C440.3,319.8,437,319.3,433.6,319.4z"/>
		<path d="M525.6,351.9c0.1,2.6-1,4.8-2.4,7c-7.9,12.5-20.5,21.4-35,24.8c-3.3,0.8-7.1,0.9-9.1,4.5c-0.2,0.6-0.9,0.8-1.5,0.6
			c-0.1,0-0.1-0.1-0.2-0.1c-0.7-0.6-0.8-1.6-0.3-2.3c1.4-2.8,4-3.9,6.9-4.5c6.9-1.3,13.5-3.8,19.5-7.4c6.8-4.2,12.7-9.9,17.1-16.6
			c4.1-6.3,2.6-10.9-4.6-13.6c-0.9-0.4-1.9-0.6-2.9-0.9c-0.9-0.3-2.3-0.1-2.2-1.4c0.2-1.8,1.8-1.1,2.8-1
			C520,341.4,525.5,346.6,525.6,351.9z"/>
		<path d="M367.1,422.2c-9.5-0.3-18.3-2.5-25.9-8.6c-0.8-0.6-2.3-1.4-1.2-2.8c0.9-1.1,1.8-0.1,2.5,0.4c15.1,11.3,30.9,9.7,47.2,3
			c1.6-0.7,4.1-3.1,5.1-0.9c1,2.1-2.4,2.5-4,3.3C383.3,420.2,375.3,422.1,367.1,422.2z"/>
		<path d="M506,354.5c3.9,0.1,6.7,1.3,7.7,4.9c0.7,2.6-0.5,4.5-2.4,6c-0.6,0.5-1.4,1.1-2.2,0.4c-0.9-0.7-0.3-1.5,0.3-2.1
			c1.3-1.4,2.4-2.9,1.1-4.8c-1.3-2-3.4-1.7-5.4-1.6c-0.8,0.1-1.6,0.2-2.4,0.4c-0.8,0.2-1.8,0.4-2.1-0.6c-0.4-1.3,0.8-1.7,1.7-1.9
			C503.4,354.9,504.7,354.7,506,354.5z"/>
		<path d="M354.1,373.8c0.1-1.3,0-2.9,1.3-3.1c1.8-0.3,1.4,1.4,1.5,2.5c0.2,2.5,1.4,4.8,3.5,6.3c0.5,0.4,0.7,1,0.6,1.7
			c-0.5,1-1.4,0.6-2.1,0.2C355.7,379.8,354.6,376.9,354.1,373.8z"/>
		<path d="M408,934.2c-2.6,2.4-5.2,4.7-9.1,4.1c-0.8-0.1-1.8-0.1-1.8-1.2c0-0.4,0.5-1,0.8-1c3.6,0.2,6.1-2.1,8.9-3.8
			c1.2-0.8,1.5,0.6,1.5,1.7L408,934.2z"/>
		<path d="M383.4,925.7c0.1,1.1,0.2,2.3,0.4,3.4c0.2,1.3,1.2,3.2-0.2,3.6c-2,0.6-2-1.8-2.4-3c-0.3-1.3-0.4-2.6-0.3-3.9
			c0.1-1.3,0.2-3.2,1.7-3.2C384.9,922.7,383.4,924.6,383.4,925.7z"/>
	</g>
</g>
<g id="图层_1_x5F_复制">
	<g>
		<path d="M765.2,4.6L765.2,4.6V5C765.2,4.9,765.2,4.7,765.2,4.6z"/>
		<path fill="#FCECD5" d="M250.5,317.9c-0.2-0.5-0.3-0.9-0.6-1.3c-0.2,0.3-0.6,0.7-0.6,1c-0.6,6.7-3.4,13.4-0.9,20.2
			c7.6,20.8,15.4,41.5,23.1,62.2c2.6,7,6.9,12.7,12.3,17.9c21.6,20.6,48.7,32.9,73.8,48.3c3.1,1.9,6.4,1.8,10.1,0.8
			c6.1-1.7,11.9-4.3,17.7-6.8c34.4-14.7,67-31.8,86.5-66c1-1.7,2.9-2.4,4.2-1c2.8,2.9,5.9,1.8,8.8,1c5.6-1.7,11-3.7,16.5-5.6
			c17.9-6.1,26.4-20.6,32-37.1c2.9-8.6-1.9-17.6-9-19.9c-8.4-2.8-19.7,1.6-23.3,9.1c-13.1,27.1-34.4,49.3-60.9,63.6
			c-4.5,2.5-9.3,4.5-14.3,5.8c-0.9,0.2-2.2,0.6-2.6-0.6c-0.4-1.4,0.9-1.5,1.8-1.8c4.9-1.7,9.3-4.5,13.6-7.2
			c37.5-23.9,52.1-61.2,60-102.4c0-0.5,0-1-0.2-1.5c-0.4,0.4-0.8,0.9-1.2,1.4c-2.7,6.2-6.5,11.6-10.4,17c-2.9,4.1-3.7,7.7-1.4,12.3
			c1.1,2.1,3,5.1,0.2,7.3c-7.7,6.3-15.5,12.5-23.5,18.5c-1.1,0.8-3.2,2.5-4.2,0.5c-0.8-1.7,1.7-2,2.9-2.7
			c7.9-4.6,12.7-11.1,12.8-20.6c0.1-12.8-14.9-29.6-29.5-32.8c-15.9-3.4-30.4,0.3-43.4,9.8c-1.1,0.8-2,1.7-3.2,2.4
			c-1.4,0.9-2.2,0.4-2.1-1.3c0.3-3.9,0.3-3.8-3.4-2.2c-1.1,0.5-2.5,2.2-3.4,0.5c-0.9-1.6,1.1-2,2.1-2.8c4.1-3,9.4-4.4,12.7-8.7
			c7.3-9.5,14.1-19.4,20.3-29.7c0.4-0.9,0.8-1.8,1.1-2.7c-1.6-0.4-1.8,1.1-2.4,1.9c-10.3,13.5-24.1,23.4-36.4,34.9
			c-0.8,0.8-2,2.5-3.2,1c-0.9-1.1,0.6-2,1.4-2.8c4.1-3.9,8.2-7.7,12.4-11.6c18.5-17.5,32.8-37,31.5-64.1
			c-0.6-11.3-1.2-22.6-3.9-33.6c-0.2-0.9-1-2.4-1.4-2.3c-1.3,0.2-0.8,1.6-0.9,2.5c-2.8,15.6-7.5,30.7-13.1,45.5
			c-8.7,22.8-18.7,44.9-35.6,63.1c-5.1,5.5-10.8,10.5-17,14.7c-1,0.7-2.1,2.3-3.4,0.9c-1.1-1.2,0.5-2.1,1-2.9
			c0.9-1.4,1.9-2.7,2.9-4.1c14.9-21.3,22.3-45.6,27.8-70.6c3.2-14.8,6.5-29.6,7.1-44.8c0-0.7-0.2-1.4-0.3-2.1
			c-0.1,0.6-0.3,1.3-0.4,1.9c-3.2,17.9-9,35.1-14.9,52.2c-7.8,22.8-13.8,46.3-26.6,67.1c-1,1.4-0.9,3.3,0.2,4.6
			c0.6,0.9,1.6,2.2,0.2,3c-1.3,0.7-1.9-0.9-2.6-1.8c-0.5-0.7-0.8-1.5-1.3-2.1c-1.3-1.6-1.3-4.1-3.5-4.9c-0.8,2.3,1.3,3.6,1.9,5.4
			c0.3,0.8,0.5,1.7-0.3,2.2c-0.9,0.5-1.5-0.4-2-1c-0.6-1-1.2-2-1.7-3c-5.2-9.9-7.5-20.6-8.5-31.6c-0.1-0.7-0.1-1.3-0.2-2
			c-0.2,0.7-0.3,1.3-0.4,2c-0.5,8.3-1.1,16.6,1.7,24.7c0.3,0.8,0.7,1.7-0.1,2.3c-1.1,0.8-1.7-0.2-2.5-0.8c-2.5-1.8-1.9-4.8-2.8-7.2
			c-7.6-18-10.3-37.8-7.9-57.2c0-0.8,0-1.6-0.1-2.4c-0.4,0.7-0.7,1.5-1,2.3c-2.3,13.2-5.3,26.4-6.2,39.8c-0.1,1,0.5,2.7-1.3,2.6
			c-1.3,0-1.1-1.4-1.2-2.4c-1.2-16.8-2.1-33.6,0.7-50.3c3-17.9,8.7-35.2,13.5-52.7c0.2-0.9,1.4-2.2,0.3-2.6c-1-0.4-1.3,1.3-1.7,2.1
			c-9.6,17.7-17.1,36.5-22.4,56c-4.3,15.8-7.8,31.7-4.9,48.2c0.8,4.6,2.5,7.1,7.8,7.7c10.3,1.3,19.2,5.6,23.7,16c0.4,1,1.5,2.1,0,3
			c-1.1,0.7-1.8-0.4-2.5-1c-3.2-2.7-6.7-4.9-10.6-6.6c-0.7-0.3-1.5-1.4-2.6-0.6c0.6,0.6,1.1,1.1,1.8,1.7c5.8,4.4,10.1,9.6,10.6,17.2
			c0.2,4.7,0.2,9.3,0,14c-0.4,10.5-6.1,17-15.5,20.5c-9.8,3.6-19.6,3.8-27.6-3.9c-15.3-14.9-14.4-46.5,10.6-52.4
			c0.5-0.1,1.4,0.3,1.4-0.7c-0.5-0.1-0.9-0.1-1.4-0.1c-12.1-0.4-30.1,14.7-31.7,26.8c-0.2,1.5-0.2,3-0.1,4.5
			c1,8.4,5.4,14.8,11.9,20.1c0.8,0.7,2.5,1.3,1.7,2.6c-1.1,1.6-2.4,0.2-3.3-0.5c-6-5-12.7-9.1-18.4-14.5c-2.5-2.4-3.3-4.7-2-8
			C250.3,324.8,251.5,321.5,250.5,317.9z M502.1,355.2c1.3-0.3,2.6-0.5,3.9-0.7c3.9,0.1,6.7,1.3,7.7,4.9c0.7,2.6-0.5,4.5-2.4,6
			c-0.6,0.5-1.4,1.1-2.2,0.4c-0.9-0.7-0.3-1.5,0.3-2.1c1.3-1.4,2.4-2.9,1.1-4.8c-1.3-2-3.4-1.7-5.4-1.6c-0.8,0.1-1.6,0.2-2.4,0.4
			c-0.8,0.2-1.8,0.4-2.1-0.6C500,355.8,501.2,355.5,502.1,355.2z M477.2,386.3c1.4-2.8,4-3.9,6.9-4.5c6.9-1.3,13.5-3.8,19.5-7.4
			c6.8-4.2,12.7-9.9,17.1-16.6c4.1-6.3,2.6-10.9-4.6-13.6c-0.9-0.4-1.9-0.6-2.9-0.9c-0.9-0.3-2.3-0.1-2.2-1.4c0.2-1.8,1.8-1.1,2.8-1
			c6.1,0.5,11.7,5.7,11.8,11c0.1,2.6-1,4.8-2.4,7c-7.9,12.5-20.5,21.4-35,24.8c-3.3,0.8-7.1,0.9-9.1,4.5c-0.2,0.6-0.9,0.8-1.5,0.6
			c-0.1,0-0.1-0.1-0.2-0.1C476.8,388,476.7,387.1,477.2,386.3z M409.4,328.1c0.1-5.3,2-10.4,4-15.4c5.2-12.9,18.4-18.7,31.5-13.8
			c15.3,5.6,20.9,13.2,20.9,30.9c0.6,9.9-5.6,18.4-16.2,23.8c-9.3,5-20.6,4.8-29.6-0.7C410.7,347.6,409.2,337.8,409.4,328.1z
			 M355.4,370.7c1.8-0.3,1.4,1.4,1.5,2.5c0.2,2.5,1.4,4.8,3.5,6.3c0.5,0.4,0.7,1,0.6,1.7c-0.5,1-1.4,0.6-2.1,0.2
			c-3.1-1.6-4.2-4.5-4.8-7.6C354.2,372.5,354.1,371,355.4,370.7z M340,410.9c0.9-1.1,1.8-0.1,2.5,0.4c15.1,11.3,30.9,9.7,47.2,3
			c1.6-0.7,4.1-3.1,5.1-0.9c1,2.1-2.4,2.5-4,3.3c-7.4,3.5-15.5,5.4-23.6,5.6c-9.5-0.3-18.3-2.5-25.9-8.6
			C340.4,413,338.9,412.3,340,410.9z"/>
		<path fill="#1A0100" d="M256,336.9c0.7,0.5,1.4,1.3,2.2,0.8c0.9-0.6,0-1.5-0.2-2.2c-1.4-4.5-2.6-8.9-1.2-13.7
			c3.8-12.3,18.9-28.9,36.3-27.7c8,0.5,15.8,1.9,23.1,5.7c1,0.5,2.1,0.9,3.2,1.2c0.1-1.6-1.3-2.1-2.2-2.8c-7.9-6-17.4-5.7-27-7
			c-4.7,0.8-9.7,1.5-14.2,4.3c-11.6,7.3-20,16.8-23.7,30.5C250.8,331.2,252,334.2,256,336.9z"/>
		<path fill="#FCECD5" d="M262.9,301.9c2.7-2.1,6.1-3.5,7.3-6.9l0,0c-1.8-5.3-3.8-10.2-4.4-15.5c-0.1-0.8-0.1-1.9-1-2
			c-0.3,0-0.9,1.3-1.1,2c-1.5,6.6-3.1,13.3-4.5,19.9c-0.3,1.4-1.7,3.1-0.1,4.1C260.4,304.5,261.8,302.8,262.9,301.9z"/>
		<path fill="#FCECD5" d="M281,290c2.8-2.1,5.3-1.9,8.3-1.4c3.5,0.7,4.3-0.3,3.8-4.3c-1.3-10.4-3.1-20.6-5.3-30.8
			c-0.2-1,0-2.4-1.1-2.5c-1.2-0.2-1.3,1.3-1.7,2.2c-4.7,10.8-6.3,22.3-7.7,33.8C276.9,290.1,278,292.3,281,290z"/>
		<path fill="#F5DDD7" d="M543.1,752.3c3.2-12.2,5.4-24.6,7.5-37.1c0-0.6,0-1.3-0.1-1.9c-0.5,0.4-0.9,0.9-1.2,1.4
			c-2.6,4.5-5.1,9-7.7,13.4c-0.5,0.9-1.1,2.4-2.6,1.4c-1.1-0.8-0.3-1.8,0.3-2.6c7-10.2,11.4-21.6,16-32.9
			c6.1-15.3,10.9-31.1,14.5-47.1c3.9-17.3,6.2-35,9-52.6c1.7-10.5,3.8-20.9,3.4-31.7c-0.4-10.8-6.8-20-16.7-23.6
			c-14.1-5.1-28.2-3.2-40.9,4.1c-16,9.2-31.4,19.6-47,29.5c-3.7,2.3-7.5,4.4-10.8,7.2c-9.8,8.3-20.6,15.3-32.2,20.8
			c-20.1,9.8-42,13.6-63.7,18c-7.3,1.5-15.2,1.7-21.6,5.6c-7.9,4.7-14.5,11.2-21.2,17.4c-0.6,0.5-1.6,1.1-1,2
			c0.3,0.4,1.5,0.3,2.3,0.2c8.9-1.2,17.6-0.1,26.3,1.3c10.2,1.7,20.2,4.2,30,7.5c10.1,3.4,12.6,11.8,6.6,20.6
			c-1.6,2.2-3.3,4.2-5.2,6c-12.4,12.7-25.7,24.6-30.8,42.7c-1.7,6.1-7.9,10.7-8.9,16.5s2.4,12.2,3.4,18.5c0.8,4.7-0.7,6.1-5.1,6.8
			c-20.7,3.1-40.8-0.6-60.8-5.2c-2.2-0.5-2.9-1.9-2.8-4c0.1-7.7-0.1-15.3,0.6-23c1.7-20.2,5.7-40.2,12-59.5c0.6-1.7,1-3.4-1.2-4.1
			c-3.1-1.2-5.9-3.2-8.1-5.7c-1.3-1.3-2.4-1.8-3.6,0.1c-3.6,6-8.5,11.3-10.6,18.1c-5.6,18.6-14,36-21.1,53.9
			c-5.5,13.7-6.3,14-19.2,6.1c-13-8-22.5-19.7-31.1-32.1c-3.5-5-2.6-10.4,2.2-14.4c3.3-2.7,4-5.4,3.1-9.3c-1.1-4.8-0.6-9.8,1.3-14.2
			c5.7-13.6,7.1-27.9,7.9-42.5c0.6-9.8,1.9-19.6,6.3-28.6c2.9-5.9,7.5-8.1,13.9-6.5c5.7,1.3,9.6,5.2,13.2,9.4
			c7.2,8.3,14.4,16.7,22.3,24.3c0.7,0.7,1.3,1.9,2.4,1.4c1.1-0.6,0.4-1.8,0.3-2.7c-1.3-9.9-2.2-19.9-0.7-29.9
			c0.4-2.8,1.3-5.7,0.7-8.3c-4.3-18.8-7.3-37.8-10.2-56.9c-2.2-14.4-6.7-28.5-10.4-42.6c-1.9-8-5.3-15.5-10.2-22.1
			c-4.4-5.7-5.4-6-11.4-2.3c-10.8,6.5-18,16.3-23.6,27.2c-9,17.3-17.2,34.9-22.9,53.6c-2.8,9.2-6.2,18.3-9.7,27.3
			c-7,18-15,35.6-23.2,53.1c-3.3,7-2.2,11,3.8,15.7c4.7,3.5,10.1,6,15.8,7.2c2.7,0.6,4.6,0.3,5.7-3c3.7-11.3,9.7-21.5,16-31.6
			c6-9.4,12.2-18.7,17.5-28.6c2.5-4.3,3.7-9.3,3.6-14.3c-0.3-11.3-0.1-22.7-0.1-34l0,0c0-6.7-0.2-13.3,0-20
			c0.4-11.5,0.5-23,3.4-34.2c0.3-1.1,0.3-3.2,2.2-2.6c1.1,0.4,0.6,2.1,0.4,3.2c-5.4,26.7-2.4,53.8-3.1,80.7c0,0.7-0.3,1.9,0.7,2
			c0.3,0,0.9-1.2,1.2-2c1.5-4.4,3.1-8.9,5.7-12.7c6.2-9.2,10-19.7,11-30.7c0.8-8.4,4.3-17.1-1.5-25.2c-0.4-0.4-0.4-1.1,0.1-1.5
			c0.1-0.1,0.2-0.1,0.3-0.2c0.6-0.1,1.3,0.1,1.8,0.5c2,1.8,3.2,4.4,3.3,7.1c0.4,13.6-0.4,27.4-6.5,39.6c-6.6,13.1-12,26.6-17.5,40.2
			c-6.2,15-16.8,27.6-24.5,41.7c-12.9,23.6-22.1,48-17.9,76.1c2.3,15.3,4.2,30.6,8.2,45.6c8.4,31,21.4,60.2,33.8,89.6
			c2.5,6.2,5.6,12.1,9.3,17.7c14.1,20.9,23.3,44.5,35.6,66.4c0.5,0.9,1.2,1.9,0.1,2.6c-1.1,0.6-1.9-0.5-2.4-1.3
			c-1.7-2.5-3.2-5-4.6-7.7c-3.2-6.6-6.2-13.3-9.4-19.9c-6.1-12.4-12.8-24.5-20-36.3c-0.7-1.1-1.3-3.2-2.4-2.8
			c-1.6,0.6-0.6,2.6-0.6,4c0.2,3.3,0.7,6.6,0.9,9.9c1.3,17.4,1.8,34.9,1.7,52.4c-0.1,18.8,2,37.6,2.5,56.4
			c0.5,19.2,1,19.2,16.3,31.1c9.3,7.2,19,13.5,30.6,16.4c2.9,0.7,4.6,0.1,6.2-2.5c19.8-31.6,39.3-63.4,55.3-97.2
			c3.7-7.8,8.1-15.4,10.7-23.5c2.8-8.5,5.1-17.2,8.8-25.4c15-33.4,30.2-66.7,47.4-99.1c1.6-3,1.6-5.2-0.4-8
			c-5.9-8.5-11.5-17.1-17-25.9c-4.5-6.9-7.5-14.5-9-22.6c-0.8-3.4,0.1-7,2.3-9.7c12.7-16.5,24.5-33.6,35.7-51.3
			c13-20.6,25.8-41.2,38.7-61.8c0.7-1.1,1.2-3.5,3.1-2.1c1.3,0.9-0.2,2.4-0.9,3.4c-3.4,5.6-6.8,11.1-10.2,16.6
			c-0.4,0.6-1.3,1.2-0.6,2.1c0.5-0.4,1-0.8,1.5-1.3c12-12.3,24.8-23.7,37.5-35.2c0.8-0.7,1.4-2.4,2.7-1.3c1.4,1.1,0,2.1-0.7,2.9
			c-1.4,1.7-2.9,3.2-4.6,4.6c-7.6,6-14.3,13-21.5,19.4c-8.1,7.1-16.4,14.6-22.5,22.8c-14.1,19.1-25.6,40.2-39.4,59.6
			c-1,1.5-1.5,2.8-0.4,4.5c10.1,16.7,18.4,34.4,29.8,50.3c12.2,17.1,29,27.6,48.3,34.9c2.3,0.9,4.8,1.4,7.3,1.3
			c21.5-1.2,42.4-7.9,60.5-19.7C542,756.1,542.6,754.3,543.1,752.3z"/>
		<path fill="#8F6565" d="M246.5,420.6c-2.9,0.4-6.5-4.2-8.6,0.9c-4.9,11.4-8.2,23.5-9.8,35.9c-0.4,3.1,0.7,3.1,3,1.9
			c4.8-2.5,9.7-5.1,14.7-7.4c2.5-1.2,3.2-2.9,3.4-5.5c0.5-7.3,0.1-14.6-1.1-21.8l0,0l0,0l0,0C248.7,422.7,249.2,420.3,246.5,420.6z"
			/>
		<path fill="#D6B0A5" d="M226.1,1014.3c8.6,8.1,18,15.4,28.8,20.3c10.8,4.8,12.8,3.6,17.7-7.2c1-2.2,0.4-2.8-1.7-3.4
			c-14.9-3.8-27-12.4-38.4-22.3c-2.1-1.8-4.5-5.6-6.4-4.7c-2.3,1.2-0.8,5.4-1.4,8.6C225.6,1008.3,223.1,1011.6,226.1,1014.3z"/>
		<path fill="#FEFEFE" d="M146.7,625.7c0.7-1.1,1.4-2.2,1.9-3.4c3-6.5,6-13,8.9-19.5c0.7-1.5,1.3-2.9,0.8-4.7c-1.2-4.5-2-9-3-13.6
			c-0.2-0.7-0.5-1.4-0.9-2.1c-0.4,0.7-0.8,1.4-1.1,2.1c-3.5,12-5.9,24.4-7.1,36.8C146.5,622.9,145.5,624.4,146.7,625.7z"/>
		<path fill="#CB6F6E" d="M433.6,319.4c-2.4,0.8-6.8-1.1-7.6,4.2c-0.8,5,2.3,11,6.7,12.9c4.5,1.9,11.2-0.1,14.2-4.3
			c4.8-6.6,4.2-8.6-3.4-11.2C440.3,319.8,437,319.3,433.6,319.4z"/>
		<path fill="#1F0704" d="M415.4,322.3c1.5-0.8,2.9-1.6,4.4-2.3c14.1-6.5,30.1-2.9,38.7,8.6c1.2,1.6,2.2,5,3.3,4.5
			c2.3-1,0.8-4.1,1.2-5.9c-0.2-15-6.3-22.1-21.7-26.7c-12.2-3.6-25.5,6.1-27.8,20.3C413.2,322.2,413.6,323.2,415.4,322.3z"/>
		<path fill="#AA6A5C" d="M436.6,354c7.5,1,13.7-3.2,19.4-8.2c4.4-3.9,5-7.1,2.2-12.4c-1.1-2.2-2.2-5.2-4.7-5.4
			c-2.2-0.2-2.6,3.1-3.7,4.8c-3.5,5.2-8.5,7.6-14.5,7c-6.4-0.6-9.9-4.9-11.6-10.9c-0.3-1.5-0.6-2.9-0.8-4.4c-0.2-1-0.1-2-1.6-2.1
			c-2.9-0.2-9.3,5.3-9.2,8.4C412.6,345.2,419.4,354.6,436.6,354z"/>
		<path fill="#850F1E" d="M279.5,660c0.8-0.9,0.8-2.3,0-3.2c-1.9-2.2-2-5-1.9-7.6c0.1-3.1-1-4.7-3.8-6.1
			c-11-5.6-21.1-12.9-29.9-21.5c-5.7-5.6-10.9-11.7-15.4-18.3c-0.8-1.1-2.6-2.7-0.9-3.8c1.6-1,2.2,1.4,3.1,2.4c1.1,1.3,2,2.7,3,4
			c10.6,14,24.1,25.6,39.5,33.9c1.4,0.7,3.1,2.9,4.7,0.7s-0.8-3.3-2-4.4c-10.7-10.1-20.7-20.7-30.2-32c-2.1-2.8-4.7-5.2-7.7-7.1
			c-6.9-4.1-13-2.2-16.1,5.2c-2.7,6.7-4.2,13.7-4.7,20.8c-1.4,16.2-1.9,32.6-8.6,47.9c-1.3,2.9-1.8,6.1-1.5,9.3
			c-0.2,3.2,0.3,6.3,1.5,9.3c3.7,9.8,6.9,11.3,16.6,7.6c15.7-6,30.5-14.2,44.1-24.2C274,669.4,276.4,664.5,279.5,660z"/>
		<path fill="#850F1E" d="M265.2,679.1c-12.4,8.6-25.9,15.7-40.1,20.9c-9.1,3.4-10.2,3.1-16.4-4.7c-0.8-1-1.4-2.6-3.1-1.4
			c-2.8,2-5,4.4-5.2,8.4c0.4,2.4,1.4,4.6,2.9,6.5c5,6.8,10.6,13.3,16.5,19.3c5.6,5.5,11.8,10.3,19.2,13.1c2.3,0.9,4.5,1.7,5.7-1.5
			c7.4-19.7,17.1-38.6,23.1-58.9c0.3-1,1.6-2.4,0.4-3.2C267.2,677.1,266.1,678.5,265.2,679.1z"/>
		<path fill="#850F1E" d="M280.4,631.3c-0.6-2.8,0-5.6,0.2-8.4c0.2-2.8,1.7-5.4,0.7-8.3c-1.9-5.5-3.7-11-5.6-16.5
			c-0.3-0.6-0.6-1.1-1.1-1.5c-0.2,0.6-0.4,1.2-0.5,1.8c0,4,0,8,0,11.9l0,0h-0.3c0.2,3.3,0.2,6.6,0.6,9.9c0.5,3.9,1.2,7.9,2,11.7
			c0.4,1.6,1.6,3.3,3.5,2.7C281.7,634.2,280.6,632.5,280.4,631.3z"/>
		<path fill="#AA6A5C" d="M317.1,344.8c4.7-6.1,3.6-13.1-2.5-16.6c-1.8-1-2.6-1.4-3.4,1.2c-2.2,6.9-6.6,10.1-13.1,10.2
			c-6.1,0.1-9.8-2.7-12.8-9.8c-0.3-0.8,0-2.2-1.5-2.1c-3,0.2-8.4,10.1-7,13.1c3.9,8.2,10.2,12.9,16.5,13l0,0
			C304.4,353.9,312.9,350.3,317.1,344.8z"/>
		<path fill="#8F6565" d="M511.8,329.2c2.4-0.5,4.9-0.9,7.3-1.4c1.5,0.2,3,0.5,4.4,0.9c3.2,1,4.3,0.2,3.2-3.2
			c-3.2-10.5-5.4-21.2-7.6-31.9c-0.1-0.6-0.3-1.3-0.5-1.9c-0.3,0.6-0.6,1.3-0.8,2c-1.8,11.1-4.9,22-9.1,32.5c-0.4,1-1.1,2.7-0.7,3.2
			C509.1,330.5,510.6,329.5,511.8,329.2z"/>
		<path fill="#D6B0A5" d="M283.7,622.4c-0.3,0.1-0.4,1.5-0.5,2.3s-0.2,1.6-0.3,2.4c0.1,2.2-0.1,4.5,1.9,6c1.3,1,3,2.4,4.4,1.4
			c1.6-1.1-0.3-2.7-0.8-3.9c-0.9-2.1-1.9-4.2-3.1-6.2C285,623.6,285.1,622.1,283.7,622.4z"/>
		<path fill="#1F0704" d="M320.9,322.6c0.3-11.9-10.9-22.3-23.9-22.4c-14.7,0-25.1,11.6-24,27c0.1,1.3,0.2,3.4,0.8,3.6
			c1.5,0.5,1.9-1.4,2.7-2.4c9.4-12.5,29.7-14.2,41.5-4.4c0.7,0.6,1.4,1.9,2.4,1.2C320.9,324.9,320.9,323.5,320.9,322.6z"/>
		<path fill="#CB6F6E" d="M297.8,335.8c4.8-0.1,9.1-4,9.1-8.1c0-3.9-2.7-5.6-8.7-5.7c-6.3-0.1-8.9,1.4-8.9,5.2
			C289.2,331.6,293.5,335.9,297.8,335.8z"/>
		<path fill="#FCECD5" d="M440,252.2c-5.7,12-12,23.8-19,35.1c-0.5,0.8-1.6,1.5-0.9,2.5c0.3,0.4,1.6,0.2,2.4,0
			c6.1-1.6,12.3-1,18.4-0.8c3.5,0.1,7.6,0,10.2,1.8c5.6,3.9,12.1,6.2,17.1,10.9c0.7,0.6,1.8,1.4,2.6,1.2c1.4-0.3,1-1.9,1-3
			c0-5,0-10,0-15c1.4-34.9-12-66-24.9-97.3c-0.3-0.6-0.4-1.4-1.2-1.2c-0.2,0-0.3,1.2-0.2,1.8c1.9,11.7,2.2,23.6,0.8,35.3
			C445.2,233.3,444.2,243.3,440,252.2z"/>
		<path fill="#FCECD5" d="M478.2,312.5c0.7,0.6,1.4,2,2,1.9c1.4-0.1,1.3-1.7,1.5-2.8c1.1-8.7,2.3-17.5,2.2-22.3
			c-0.2-20.2-2.5-36.1-7.1-51.6c-0.3-0.8-0.7-1.5-1.1-2.2c-0.1,0.8-0.1,1.5,0,2.3c2.8,20.5,2.6,41.2-0.8,61.6
			C474,304.7,474.3,308.9,478.2,312.5z"/>
		<path fill="#1A0100" d="M407.6,298.8c0.5,1.2,1.8,0.2,2.6-0.2c7.4-3.3,15.1-5.1,21-5c26.9-0.5,45.7,18.2,44.9,42.5
			c-0.1,2.1,0.2,2.4,2,1.4c6.1-3.2,7.2-6.3,4.1-12.4c-0.7-1.3-1.7-2.5-2.3-3.8c-6.2-15.2-19-23.6-33.2-28.6
			c-12.3-4.3-25.3-1.3-37.3,4.2C408.6,297.3,407,297.6,407.6,298.8z"/>
		<path fill="#4F4A5F" d="M294.8,601.9c-6.9-8.5-11.6-18.2-15.2-28.5c-6.7-19-8.7-38.9-11.8-58.6c-1.9-12.2-3.8-24.3-8.1-35.9
			c-2.8-7.5-7.3-13.9-14.7-17.5c-0.8-0.2-1.5-0.4-2.3-0.4c0.3,0.7,0.6,1.4,1,2.1c5.5,7.4,9.4,15.8,11.2,24.8
			c4.3,19.2,10.8,37.9,12.5,57.7c1,11.2,3.6,22.3,6.1,33.3c4,18.1,9.6,35.6,18.3,52.1c0.6,1.2,1,3.3,2.6,3.1
			c0.6-0.1,1.2-2.5,1.4-3.9c1-5.4,1.3-11,0.9-16.5C295.8,611,298.3,606.2,294.8,601.9z"/>
		<path fill="#FEFEFE" d="M142.6,735.5c2.6-0.7,3.9-1.6,2.4-4.5c-1.9-3.9-3.9-7.7-6.2-11.4c-5.1-7.6-9.9-15.6-11.5-24.8
			c-3.8-21.5-5.5-43.1-1.1-64.9c4.6-23.2,9.9-46.2,17.6-68.5c0.3-0.9,1.3-2.2,0.4-2.7c-0.9-0.5-1.5,1-2,1.8
			c-12.2,16.7-23.9,33.7-33.3,52.1c-10.6,20.9-17.5,42.8-18.6,67.6c0-0.5,0,0.3,0.1,1.1c1.8,20.6,25,48.1,45,53.2
			C137.6,735.3,140,736.2,142.6,735.5z"/>
		<path fill="#8F6565" d="M108.8,720.8c-0.3-0.4-0.7-0.7-1.1-1c-0.8,0.1-0.4,0.6-0.4,1c1,5,14.1,15.3,19.3,15.2c0.5,0,1.3,0,1.4-0.3
			c0.4-1.1-0.7-1.2-1.4-1.6C120.1,730.5,114.1,726,108.8,720.8z"/>
		<path fill="#8F6565" d="M83,690.4c-1.7-1.7-2.5-1.3-2.6,1c-0.2,3.8-0.4,7.6-0.6,11.4c0.2,13.1,2.7,26.1,7.4,38.4
			c0.3,0.7,0.2,1.8,1.4,1.6c0.2,0,0.3-1.2,0.2-1.8c-3-13.6-3.6-27.7-1.8-41.6C87.5,695.3,85.4,692.9,83,690.4z"/>
		<path fill="#8F6565" d="M89.9,692.9c0.1,0,0.1-1,0-1.4c-4-10.6-2.7-21.7-3.3-32.6c-1.1-22.9,1.4-45.2,11.8-66.1
			c11.7-23.6,23.3-47.1,36.3-70.1c11.3-20,23.8-39.1,40.8-54.6c10.5-9.6,16.7-22.4,25.7-33c0.3-0.3,1.1-0.8,0.1-1.4
			c-0.9,0.8-1.7,1.6-2.6,2.3c-32.9,30-61.8,63.4-87.7,99.6c-15.6,21.8-29.8,44.1-35.4,70.9c-3.1,15.1-8,29.9-6.3,45.7
			c1.5,14.9,8.1,28.8,18.7,39.4C88.5,692.3,88.9,693.3,89.9,692.9z"/>
		<path fill="#8F6565" d="M191.4,461.6c-11.1,20.8-18.6,43-25.2,65.6c-4.5,15.4-8.5,30.8-8.9,46.9c-0.1,5.5,0.5,11,1.8,16.3
			c0.3,1.3-0.2,3.5,1.7,3.7c1.3,0.1,1.5-2,2-3.2c6.9-16,13.6-32.2,18.7-49c5.9-19.6,14.6-37.9,24.2-55.8c4.2-8,9.9-15.1,16.7-21
			c1.3-1.1,2.4-2.1,2.6-4c1.5-14.1,5.1-27.9,10.6-40.9c0.9-2,0.8-3.4-1.3-4.5c-1.5-0.7-2.9-1.7-4.1-2.8c-2.6-2.8-4.7-2-7.2,0.2
			c-7.4,6.8-13,15.2-19,23.1c-0.1,0.2-1.3,0.6,0.1,0.9c2.6,0.7,2.7,0.8,1.1,3C200,447,195.5,454.1,191.4,461.6z"/>
		<path fill="#D6B0A5" d="M531.3,788.6c2.9-8.2,5.7-16.3,8.5-24.5c0.3-0.8,1-2-0.1-2.7c-0.5-0.3-1.5,0.3-2.2,0.7
			c-13.2,8.3-28,12.1-42.9,15.8c-8,2-16.2,2.9-24.1-0.2c-15.4-6.2-29.9-13.8-41.2-26.5c-7.3-8.4-13.8-17.6-19.2-27.3
			c-5.1-9-10-18-15.1-27c-3.6-6.3-3.6-6.3-7.7-0.6c-2,2.7-3.6,5.7-6,8c-6.9,6.5-6,13.9-2.8,21.5c1.6,4.2,3.6,8.2,5.9,12.1
			c7.3,12.1,15.2,23.9,23.7,35.2c6.4,8.7,13.8,16.7,21.9,23.9c9.7,8.5,20.7,13.8,36.2,13.4c21-1.2,43-6.7,62.9-19.3
			C530.1,790.6,530.9,789.7,531.3,788.6z"/>
		<path d="M765.2,4.6V0h-4.6C764.3,0,765.2,0.8,765.2,4.6z"/>
		<path d="M760.6,0H4.6C256.6,0.1,508.6,0.1,760.6,0z"/>
		<path d="M760.6,1080.2c-252-0.1-504-0.1-756,0c-3.7,0-4.6-0.8-4.6-4.6c0.1-178.5,0.1-357,0.1-535.5s0-357-0.1-535.5
			C0,0.8,0.8,0,4.6,0H0v1080.2h765.2v-4.6C765.2,1079.3,764.3,1080.2,760.6,1080.2z"/>
		<path fill="#FCECD5" d="M222.8,1048.2c-0.3-10.1-1.6-20.3-1.2-30.4c0.4-11.3,0.5-22.5,0.6-33.8c0-28.3-3.9-56.5-2.6-85.9
			c-0.5-10.4-1-21.9-1.7-33.4c-0.9-13.3-3-26.3-9.3-38.5c-3.6-6.9-6.2-14.4-9.2-21.6c-12-28.9-23-58.2-27.8-89.4
			c-0.8-5.3-1.3-10.6-1.8-15.9c-0.4-4.9-4.1-4-7.1-4.1c-3.8-0.1-1.8,2.9-1.8,4.4c0.6,17.6,1.5,35.2,2.2,52.9
			c0.6,16.8,0.7,33.6,1.6,50.4c0.3,5.1-0.7,10.2,0.3,15.4c4,20.5,2.9,41.4,1.6,61.7c-1.5,23.4-2.2,46.9-2.5,70.1
			c-0.6,41.3,4.6,82.4,10.2,123.3c0.4,3.1,1.5,4.3,4.6,4.3c13.2-0.1,26.3-0.1,39.5,0c3.6,0,4.6-1.3,4.6-4.7
			C222.8,1064.8,223,1056.5,222.8,1048.2z"/>
		<path fill="#8F6565" d="M209.6,279.3c-1.8,0.4-1.4,2.1-1.9,3.2c-5,12.4-6.5,25.4-6.4,39.4c-0.2,13.6,2.2,27.7,6.2,41.5
			c1.3,4.8,3.3,9.4,5.9,13.7c0.4,0.6,0.7,1.6,1.7,1.5c0-0.8-0.1-1.6-0.3-2.3c-2.9-6.9-2.8-14.4-5.6-21.5c-2.6-6.5-2.1-14.1-2.2-21.2
			c-0.1-16.8,0.8-33.6,2.7-50.3C209.8,281.9,209.7,280.6,209.6,279.3z"/>
		<path fill="#8F6565" d="M586,275.8c-0.9,0.3-0.8,1.4-0.6,2.2c1.9,4.6,4.4,9,7.5,12.9c0.2,0.2,0.5,0.4,0.7,0.6
			c0.1-0.2,0.2-0.5,0.3-0.7c-0.1-0.3-0.2-0.6-0.3-1c-2-4.2-4-8.4-6-12.6C587.4,276.5,587,275.4,586,275.8z"/>
		<path fill="#8F6565" d="M579.4,284.2c-2.9,0.9-5.6,6.1-4.8,9.2c4.5,18.4,8,37,7.8,56c0,0.6,0.1,1.3,0.2,1.9
			c0.4-0.7,0.7-1.4,0.9-2.2c1.1-6.7,1.6-13.4,1.5-20.2c0-15.5-1.7-29.1-4-42.7C580.8,285.4,581.6,283.5,579.4,284.2z"/>
		<path fill="#8F6565" d="M633.5,667.9c1.2,1,2.4-0.6,3.2-1.5c9.3-9.5,14.8-20.7,15.5-34.6c-1-15.5-6.6-30.2-12.6-44.6
			c-9.4-22.7-21.8-43.8-35.7-64c-4.5-6.5-9.9-12.3-11.6-20.8c-1.4-6.7-5.2-12.9-8.3-19.2c-13.3-27.2-30.3-51.7-54.7-70.3
			c-2.5-1.9-4.8-4.1-5.9,1.2c-0.4,1.5-1.3,2.7-2.7,3.5c-3.4,1.6-3.2,3.8-2.3,6.9c6.9,23.3,13.8,46.6,20.5,69.9
			c0.7,2.4,2.1,4.5,4,6.1c3.7,3.1,7.2,6.5,10.8,9.6c1,0.9,1.7,2.4,3.5,2.3c-0.5-1.2-1-2.4-1.6-3.6c-9.2-16-17.2-32.8-23.8-50
			c-0.5-1.2-0.9-2.5-1.3-3.8c-0.3-0.6,0-1.4,0.6-1.7c0.7-0.4,1.3,0.1,1.6,0.7c0.6,1.2,1.1,2.4,1.6,3.6c4.9,13.1,10.7,25.8,17.4,38.1
			c6.2,11.6,13.2,22.7,20.8,33.4c5.8,8,8.9,18.4,11.4,28.1c2.1,8,3.6,16.1,5.3,24.2c6.3,30.1,10.5,60.4,7,91.2
			c-2.8,24.2-8.4,47.6-26.6,65.8c-0.4,0.4-1.4,0.7-0.6,1.4c0.2,0.2,1.2-0.3,1.8-0.6c3.3-2,6.3-4.3,9-7.1c23.4-25,32.6-55.1,32-88.7
			c-0.1-4.7-3-8.8-2.9-13.8c0.4-23.3-4.2-45.9-10.9-68.1c-3.2-10.3-7.1-20.4-11.8-30.2c-0.5-1-1.4-2.4,0-3.1c1.5-0.7,1.9,1,2.3,1.9
			c2.1,4.7,4.1,9.5,6.3,14.1c0.5,1.1,0.3,2.7,1.8,3.2c0-1.1,0-2.3-0.1-3.4c-0.7-9.1-2.7-18.1-6-26.7c-10.2-27.3-24.3-52.6-41.1-76.3
			c-0.8-1.1-1.6-2.2-2.3-3.3c-0.4-0.7-1-1.5,0-2.1c0.9-0.5,1.6,0.1,2.1,0.8c0.5,0.7,1,1.3,1.5,2c16.7,23.1,30.4,48.2,40.9,74.7
			c2,5.4,4.8,10.5,8.3,15.1c19.5,24.8,34.4,52.1,42.1,83c4.7,18.9,2.8,36.6-7.3,53.3C634.1,665.9,632.6,667.2,633.5,667.9z"/>
		<path fill="#D6B0A5" d="M506.9,815.3c-1.4-9-1.2-8.6-10.1-7.2c-6.2,1-9.9,3.8-13.1,9.2c-13.3,22.1-27,44-40.6,65.9
			c-13.4,21.7-28.1,42.7-39.7,65.3c-14.5,28.2-30,55.7-46.5,82.6c-0.8,1.3-2.7,2.8-1.4,4.3c1.1,1.3,3.2,0.4,4.8,0.1
			c10.2-2.2,20.5-4.3,30.7-6.7c33.7-8,64.7-21.5,90-46.1c12.1-11.7,24-23.6,34.8-36.5c10.6-12.5,19.6-26.1,24.8-41.9
			c0.9-2.8,1.2-5.3-0.7-8c-10.6-14.8-20.3-30-24.5-48.1c-0.3-1.3-0.9-3.6-2.4-3.3s-0.7,2.6-0.8,4c-0.6,22.1-1.2,44.3-1.9,66.4
			c0,1.3,0.7,3.6-1.5,3.5c-1.6-0.1-0.9-2.2-0.9-3.4c0-14.1,0-28.3,0-42.4C509.5,853.8,510,834.5,506.9,815.3z"/>
		<path fill="#D6B0A5" d="M499.3,968.2c-16.6,17.2-33.9,33.5-55.5,44.5c-24.9,12.7-51.6,19.6-78.9,24.2c-9.9,1.7-17,5-20.5,14.6
			c-0.6,1.7-2.9,3.1-1.8,4.8c1.1,1.7,3.4,0.3,5.1,0.6c1.6-0.1,3.1-0.1,4.6-0.3c34.3-4.1,66.9-13.9,96.8-31
			c36.2-20.8,70.7-43.8,94.5-79.8c8.6-13,9.1-24.7,2.3-37.8c-0.5-1-0.7-2.6-2-2.6c-1.4,0-1.4,1.6-1.8,2.6c-1.9,5.2-4.1,10.2-6.8,15
			C525.9,940.1,512.7,954.3,499.3,968.2z"/>
		<path fill="#BAB44D" d="M598,236.9c0.3-0.4,0.7-1.1,0.5-1.3c-0.6-0.7-1.2-0.1-1.7,0.3c-3.8,4-7.5,4.6-11.1-0.3
			c-0.6-0.6-1.4-1-2.2-1.2c-6.9-2.6-14-2.5-21.2-1.8c-4.2,0.4-8.5,0.8-12.3,3.5c-3.2,2.2-3.9,4.1-0.5,6.9c4.1,3.4,8.9,5.9,14,7.5
			c2.4,0.8,6.3-0.6,7,2.4c0.6,2.6-3.1,3.9-4.9,5.7c-7.5,7.9-15.9,15.3-13.7,27.9c0.3,4.1,0.7,8.3,1,12.4c0.2,2.5,0.9,2.9,2.9,1.2
			c2.9-2.7,6-5.2,9.3-7.5c14-9.5,22.5-22.8,26.6-39.1C593.3,247.8,594.3,241.8,598,236.9z"/>
		<path fill="#BAB44D" d="M459,115.3c-3.6,0.8-7,2.1-10.2,3.9c-0.6,0.3-1,0.8-1.3,1.4c-0.2,0.8,0.5,1.1,1.2,1.2
			c9.2,1.5,17,6.6,25.6,9.8c4.1,1.5,8.2,2.8,12.7,2.5c1.8,0,3.7-0.1,5.5-0.4c2.3-0.4,4.5-1,6.7-1.9c17.2-6.9,32.2-17.3,46.3-29.1
			c0.4-0.5,0.8-1,1.1-1.6c-0.6,0.1-1.4,0-1.8,0.3c-4.9,3.4-8.2,1.3-11.9-2.5c-5.8-6-12.6-10.9-19.5-15.6c-3-2.2-6.4-3.6-10-4.2
			c-13.9-2-26.4,1.9-38.4,8.3c-4,2.2-2.8,3.4,0.3,5.1c10.2,5.6,21,10.1,32.2,13.3c8.5,2.5,17.1,4.2,25.9,5.1
			c1.4,0.1,3.3-0.1,3.6,1.9c0.2,1.6-1.4,2.1-2.5,2.7c-1.5,0.7-3.1,1.3-4.6,1.8c-7,2-13.9,0.8-20.7-0.6
			C485.8,114.1,472.5,112,459,115.3z"/>
		<path fill="#8F6565" d="M242.7,406.1c3.1-5.7,4.5-12.3,4-18.8c-0.1-1.3-1.2-3.5,0.8-3.7c1.7-0.2,1.6,2.2,1.7,3.6
			c0.5,6.3-0.6,12.7-3.3,18.5c-0.4,0.9-1.1,1.9-0.3,2.8c0.6,0.7,1.5,0.3,2.3,0c7.5-3,16.5-17.8,14.2-25.2
			c-3.9-12.4-8.8-24.4-13.3-36.6c-0.2-0.6-0.6-1.4-1.3-1.2c-0.4,0.1-0.5,1.1-0.6,1.7c0,0.8,0,1.7,0.1,2.5c0.2,8,1.3,15.9,3.4,23.7
			c0.3,1.2,1.7,3.2-0.4,3.8c-1.9,0.5-2-1.8-2.6-3s-1.1-2.4-1.5-3.7c-5.1-13.8-7.8-28.3-8-43c-0.8-34.5,6.6-67.8,15.5-100.8
			c2.3-8.3,5.1-16.5,7.8-24.7c0.4-1.2,0.5-3.7,2.5-3c1.8,0.7,0.3,2.6-0.1,3.9c0,0.2-0.1,0.3-0.2,0.5c-11.9,35.1-20.2,71-22.8,108.1
			c-0.8,12.8-0.1,25.7,2.3,38.3c0.2,0.6,0.4,1.2,0.8,1.7c0.1-0.6,0.2-1.2,0.3-1.9c0.4-30.6,6.9-60.4,13.5-90.1
			c1.9-8.6,4.8-17,7.3-25.4c0.3-1.2,0.4-3.2,2.2-2.7c1.7,0.5,0.5,2.4,0.3,3.5c-0.6,2.8-1.5,5.4-2.3,8.2c-6.1,20.6-11.6,41.4-12.4,63
			c-0.1,1.4-0.9,3.5,0.8,3.9c0.9,0.2,1.2-2.1,1.4-3.3c3.3-17.8,9.8-34.9,10.6-53.2c0.1-2.5-0.6-7.3,2.2-7.1c2.3,0.2,0.5,4.8,0.3,7.5
			c-1.1,12.2-0.9,24.3,3.5,36c0.4,1.1,0.5,3,2.2,2.8c0.5-0.1,0.9-1.9,1.2-3c0.2-1.1,0.2-2.3,0.3-3.5c1.2-10.6,2.3-21.4,6.8-31.1
			c3.7-7.8,5.8-16.2,6.3-24.8c0.1-1.4,0.1-3.8,1.7-3.6c2.3,0.2,0.9,2.4,0.8,3.6c-1.3,8.4-1.1,17,0.4,25.3c0.2,0.8-0.1,2.2,1.2,2.2
			c0.3,0,0.6-1.4,0.8-2.2c2.8-17.3,8-34,14.3-50.3c5.9-15.4,13.9-29.9,22-44.2c0.7-1.2,1.2-3.5,3-2.7c2.6,1.1,0.2,2.9-0.1,4.1
			c-3.4,11.7-7,23.2-10.3,34.9c-6.1,21.2-11.5,42.4-10.2,64.8c0,0.7,0.1,1.3,0.1,2c0.3-0.6,0.5-1.3,0.7-2
			c2.8-16.4,5.8-32.8,11.7-48.4c4.4-11.8,11-22.8,13.2-35.5c0.1-0.8,0.5-1.8,1.4-1.7c1.4,0.2,1.1,1.5,1,2.4
			c-0.8,6.3-3.2,12.2-5.5,18.1c-2.7,6.8-6.3,13.2-7.8,20.5c-2.3,10.7-3.8,21.6-4.6,32.6c-0.6,12.8,1,25.7,4.8,38
			c0.2,0.6,0.6,1.6,0.9,1.6c1.3,0,0.7-1.2,0.8-1.9c0.3-2.3,0.6-4.6,0.7-7c2-31.8,9-62.5,19.7-92.4c0.8-2.1,0.9-6.4,3.5-5.5
			c2.2,0.8-0.4,4.4-1.2,6.6c-9.4,27.8-17.7,55.9-16.4,85.8c0.3,6.3,1.1,12.6,2.5,18.8c0.2,0.5,0.5,1,0.8,1.4c0.1-0.5,0.1-1,0.1-1.5
			c-0.1-0.6-0.3-1.3-0.5-1.9c-0.4-1.6-1.2-3.9,0.7-4.3c2-0.5,2.2,2,2.4,3.6c0.6,5.2,3,9.8,5,14.6c1,2.4,2.1,2.2,3.3,0.1
			c1.8-3.4,3.8-6.7,5.4-10.2c10.5-22.9,17.1-47.2,25.1-71c6.5-19.3,12-38.8,10.8-59.5c-0.1-0.9-0.4-2.3,1-2.4
			c1.3-0.1,1.3,1.2,1.6,2.2c2.7,10.9,3.2,22.2,1.5,33.2c-5,36-11.8,71.7-31,103.5c-0.2,0.6-0.4,1.2-0.5,1.8c0.6-0.2,1.1-0.5,1.6-0.9
			c7.3-6.3,13.7-13.7,19-21.8c17-25.9,27.5-54.6,34.9-84.5c2-8.1,3.1-16.4,3.2-24.7c0-1.1-0.1-2.8,1.4-2.7c1.6,0.1,1.2,1.8,1.2,2.8
			c-0.1,2.5-1,5.1,0.2,7.4c4.2,8.2,5,17.2,6.1,26.1c2.3,18.3,2.3,36.3-7.1,53c-0.3,0.7-0.5,1.5-0.6,2.3c0.6-0.5,1.1-1.1,1.7-1.6
			c7.4-9.8,10.5-21,11.1-33c0.1-1.2-0.2-3.3,1.5-3.2c1.8,0.1,1.2,2.1,1,3.3c-1.5,15.6-4,31-13.2,44.4c-3.7,5.4-7.3,10.7-10.7,16.3
			c-1.4,2.2-5.4,5.4-3.5,6.6c2.4,1.4,5.3-2.4,7.1-5c7.6-11.2,13.4-23.4,19.6-35.4c1.3-2.5,2.3-5.2,3-7.9c8.1-31.7,5.6-62.7-7.2-92.8
			c-0.7-1.8-3.4-4.4-0.9-5.5c1.9-0.8,2.7,2.8,3.4,4.7c7.4,21.8,18,42.2,25.9,63.8c6.8,18.7,12.7,37.5,13.6,57.6
			c0.1,0.5,0.2,1.1,0.3,1.6c0.1-0.5,0.1-1,0.1-1.5c-0.1-7.3,0.2-14.6-0.4-22c-1.5-17.9-5.1-35.6-11-52.6c-0.4-1.2-1.4-2.9,0.2-3.5
			c1.7-0.6,1.9,1.6,2.3,2.7c2.6,7.7,4.6,15.7,7.6,23.2c10.6,26.3,14.9,53.4,11.9,81.7c-0.3,2.8-0.7,5.6-1,8.4c0,0.6,0.2,1.2,0.4,1.8
			c0.4-0.2,0.9-0.4,1.1-0.7c4.9-7.7,11-14.8,10.9-24.7c-0.1-12.4-1.5-24.6-2.9-36.8c-0.2-1.7-1.8-4.7,0.8-5.1c2-0.3,1.4,2.9,1.6,4.6
			c1,7.9,1.8,15.9,2.8,23.8c0.1,0.6,0.2,1.3,0.4,1.9c0.2-0.6,0.4-1.2,0.5-1.8c0.3-3.1,0.7-6.3,0.8-9.4c0.5-17.2-2.1-34.2-4.9-51.1
			c-4.9-29.7-15.9-56.6-35.5-79.7c-0.5-0.6-1.1-1.3-1.6-1.9c-0.5-0.7-1.1-1.4-0.2-2.1c0.8-0.7,1.6-0.1,2.1,0.5
			c0.7,0.7,1.4,1.4,2,2.2c12.3,14.7,22.1,31,27.8,49.3c9.6,30.9,14.3,62.4,12.2,95c-0.9,14.9-2.5,29.4-6.4,43.8
			c-6.4,24-16.2,46.2-33.9,64.2c-0.7,0.7-2.1,1.1-1.8,2.6c0.9-0.6,1.9-1.2,2.8-1.9c21.7-17.6,34.7-41.4,45.1-66.5
			c6.4-15.4,9.6-31.8,7.3-48.8c-0.2-1.7-1.5-4.8,0.9-5.1c1.8-0.3,1.4,3.2,2.4,4.8c0.2,0.4,0.1,1,0.1,1.5c0.6,20.2,6,39.4,11.3,58.6
			c0.3,1.1,0.1,3.1,1.9,3c1.1-0.1,1.1-1.8,1.4-3c5.1-19.3,4.4-38.9,3.4-58.6c-0.3-5.6-1.1-11.3-1.5-16.9c-0.1-1.5-0.9-4.2,0.8-4.4
			c2.4-0.3,1.4,2.4,1.6,3.9c0.6,4.8,1.1,9.6,1.4,14.4c1,15.1,1.5,30.2-0.2,45.4c-1.4,12-5.2,23.6-3.6,36.3
			c1.2,9.3-6.4,16.7-11.1,24.5c-4.5,7.3-6.7,15.4-7.7,23.9c-0.2,2.2,0,3.3,2.6,1.5c8.9-5.8,17.3-12.4,25.2-19.6
			c8.8-8.3,14.7-19.2,17-31c2.9-14.3,3-28.8,2.9-43.3c0-2.4,1.3-5.9-1.1-7c-2.7-1.2-4.1,2.6-6.3,3.9c-2.1,1.2-3.1,5.1-5.6,4
			c-2.1-0.9-1.1-4.5-1.5-6.9c-2.7-16.9-0.7-32.3,14.2-43.5c2.1-1.6,1.4-2.5-1-3c-3.9-0.8-7.6-2.4-10.9-4.7c-3.3-2.4-8.3-4.6-8.1-8.8
			c0.2-4.9,5.4-6.9,9.7-8.2c3.4-1.1,3.6-2.7,2.5-5.5c-4-10.2-8.7-20.2-14.2-29.7c-0.6-1.1-2.5-2.7-0.3-3.7c1.5-0.7,2,1.4,2.6,2.4
			c5.2,8.9,9.7,18.2,13.5,27.8c3,7.4,2.9,7.3,10.6,7.2c3.2-0.1,4-1,3.4-4.2c-1.9-9.8-4.9-19.4-8.9-28.5
			c-10.3-24.1-25.7-45-40.9-66.1c-3.2-4.4-5.4-5.4-10.3-2.3c-15.3,9.6-31.1,10.6-47.3,1.8c-6.5-3.6-13.5-6.7-21.3-6.3
			c-1.1,0-2.6,0.1-3-1.2c-0.5-1.3,0.9-1.9,1.7-2.8c1.1-1.3,4.3-1.6,2.1-4.5c-5.9-7.8-11-16.4-20.1-21.2
			c-10.6-5.6-21.6-10.4-32.8-14.6c-3.9-1.6-8.1-2-12.3-1.2c-1.5,0.3-3,2.1-4.4,0c-1.2-1.6-0.2-3.3,0.4-4.8c1.2-2.9,3.2-5.3,6.3-5.9
			c5.4-1,10.8-2.3,16.3-1.4c19,3.1,37.1,9.3,54.8,16.6c0.6,0.3,1.2,0.6,1.7,1c0.8,0.4,1.1,1.3,0.8,2.2c-0.7,1.2-1.5,0.6-2.5,0.1
			c-16-7.8-32.9-12.5-50.1-16.6c-4.4-1.1-8.9-0.8-13.4-0.6c-3.3,0.2-5.9,2.1-8.4,4c-0.5,0.4-0.8,1-0.8,1.7c0.1,0.8,1,0.7,1.6,0.8
			c2.5,0.2,5.2-0.2,7.4,0.6c21.7,8,44.3,14.7,56.9,36.7c1.5,2.7,3.2,2.9,6.1,1.8c10.1-4,20.6-4.7,31.4-3.5
			c6.6,0.8,13.1,2.3,19.7,3.3c2,0.3,4.1,1.5,6.2,0.6c-1.3-2.3-3.4-4.1-5.8-5.1c-0.9-0.3-1.9-0.6-2.9-0.9c-12.7-3.3-25-8.3-36.5-14.7
			c-8.5-4.7-8.4-4.7-0.2-9.7c4.7-2.9,4.8-3.2,0.3-6.2c-22.1-15-46.5-21.1-73-17.7c-5,0.6-9.7,1.2-14.3-1.9c-2.3-1.6-5.3-1.8-8.2-1.9
			c-7.7-0.5-15.2,1-22.7,2.6c-38.5,8-69.9,28.4-97.6,55.4c-9.3,9.1-16.1,20.2-25.3,29.4c-13.9,13.9-26.8,28.8-38.7,44.5
			c-21,27.8-37.7,57.7-45.4,92c-0.3,1.1-0.7,2.2-0.2,3.4c0.5-1,1-2,1.4-3.1c10-31.2,26.1-60.1,47.3-85c15.7-18.6,36-32.8,50.5-52.5
			c0.6-0.8,1.7-2.2,2.8-0.9c1,1.1-0.3,2.2-1.1,2.9c-7.1,7-12.9,15.2-18.9,23.1C203.8,193,190,219,180.7,246.6c-0.5,1.6-1.8,3.1-1,5
			c1.7-1.1,1.9-3,2.7-4.6c8.9-19,17.9-38,31.6-54.2c7.2-8.5,14.4-17,20.4-26.5c0.6-1,1.1-3,2.8-1.9c1.6,1.1,0,2.4-0.6,3.4
			c-4.6,7.4-9.8,14.3-15.5,20.8c-11.6,13.1-21.2,27.9-28.5,43.8c-5.5,11.7-10.9,23.6-16.3,35.3c-8.6,18.6-15.7,37.8-19.2,58.1
			c-0.2,0.9-1.2,2.2-0.1,2.5c0.9,0.3,1-1.5,1.3-2.4c8.7-22.8,18.9-44.9,31.5-65.8c10.5-17.4,22.2-34.1,35.1-49.8
			c0.7-0.9,1.5-1.8,2.3-2.6c0.4-0.4,1.4-0.7,1.7-0.5c0.9,0.5,0.6,1.4,0.1,2.2c-0.7,0.9-1.5,1.8-2.2,2.7
			c-12.2,15-23.4,30.8-33.5,47.2c-5,8-8.4,16-8.2,25.7c0.2,5.8-1.2,11.6-1.4,17.4c-0.6,13.3-1.6,26.6,2.6,39.6
			c0.3,1,0.4,2.4,1.4,2.4c1.2,0,1.1-1.4,1.3-2.4c2.5-9.3,5-18.6,7.3-28c5-20.2,13.1-39.4,20.4-58.9c10.5-28.1,21-56.2,34.6-82.9
			c12.7-24.9,32.1-44.5,52.9-62.6c9-7.9,20.1-12.3,31.8-14.9c1.5-0.3,4-1.4,4.4,0.5c0.5,2.2-2.4,1.8-3.8,2.1
			c-11.9,2.7-22.9,7.5-32,15.6c-18.6,16.5-35.9,34.3-48.4,56.2c-9.5,16.5-15.5,34.6-23.4,51.8c-15,32.8-22.9,66.9-21.3,102.3
			c0,7.3,0,13.8,0,20.3c0.1,0.7,0.2,1.5,0.3,2.2c0.1-0.6,0.2-1.3,0.2-1.9c0.1-1-0.1-2.4,1.2-2.4c1.8-0.1,1.3,1.6,1.3,2.7
			c0.2,3.8-0.2,7.6,1.3,11.3c6.9,17.8,15.3,35.1,24.9,51.7C241.2,409.4,241.9,407.5,242.7,406.1z M553.9,343.4
			c0.7-1.4,0.6-4.3,3.2-3.6c2,0.5,1.3,3.2,2.4,5c-5.4,15.8-10.7,31.8-25.1,42.5c-1.1,0.7-2.4,1.1-3.7,1.2c-0.8,0.1-1.6-0.1-2.3-0.6
			c-0.9-0.9-0.1-1.8,0.5-2.6c2.4-3.4,4.8-6.8,7.2-10.2C542.7,364.9,548.7,354.3,553.9,343.4z M503.9,154.8c1.4-0.6,1.8,1.1,2.2,2.1
			c10.2,24,22.5,47.1,30.6,72c3.6,11.3,6.1,23,7.3,34.8c-0.1,0.7,0.2,2-1.2,2c-1,0-1.2-1.1-1.3-1.9c-1.1-6.2-2-12.5-3.2-18.7
			c-4.1-20.7-13.4-39.6-21.9-58.7c-4.2-9.4-8.4-18.8-12.5-28.3C503.4,157.1,502,155.6,503.9,154.8z"/>
		<path fill="#FEFEFE" d="M533.7,383.7l0.9,0.1c0.7-0.6,1.5-1.3,2.2-1.9c9.6-9.1,14-21.1,18.7-33c0.1-0.4,0.1-0.9,0-1.3
			c-0.8-0.2-1,0.6-1.2,1.1c-5.8,11.7-12.5,23-20,33.8C534.1,382.8,533.9,383.2,533.7,383.7z"/>
		<path fill="#FEFEFE" d="M520.2,114.6c0.2,0,0.4-0.4,0.6-0.7c-1.4-1.3-3.4-0.7-5-1.4c-0.9-0.2-1.8-0.3-2.6-0.3
			c-0.5,0.4-1.7-0.8-1.8,0.4c0,0.5,1.5,1.1,2.2,1.8C515.8,116.5,518,114.9,520.2,114.6z"/>
		<path fill="#8F6565" d="M100.4,624.4c11.4-26.7,28.3-50,45.3-73.3c7.6-10.5,12.3-22.8,13.9-35.6c0.1-0.8,0.6-1.7-0.9-2
			c-0.8,0.9-1.7,1.9-2.5,2.9c-26.5,33.3-47,70.9-60.6,111.1c-3,8.8-7.6,17.4-6.3,27.3c0.1,1.1,0.2,2.3,0.2,3.5
			c0.5-1.2,0.9-2.4,1.3-3.6C92.9,644.3,96.1,634.1,100.4,624.4z"/>
		<path d="M552.5,745.4c5.6-1.6,10.8-4.5,15-8.5c7.4-6.8,12.4-15.2,16.2-24.3c8.3-19.8,10.6-40.7,11.1-64.2l0,0
			c-0.6-7.4-1.3-17-2-26.6c0-0.6-0.3-1.7-0.5-1.7c-1.3-0.1-0.8,1.1-0.9,1.8c-1,8.6-1.8,17.2-3.1,25.7c-3.8,24.8-10.7,48.7-23.2,70.7
			c-3,5.4-6.2,10.8-11.5,14.2c-3.5,2.3-4.5,5.4-5.2,9.1C547.7,745.2,548.6,746.5,552.5,745.4z"/>
		<path d="M569.9,657.2c-6,22.2-16.7,43.2-18.1,66.7c-0.1,2.2-1.9,5.2,0,6.3c1.1,0.6,3.5-2.4,5-4.3c7.1-9.2,11.8-19.7,16.1-30.3
			c11.8-29.4,15.3-60.5,17.3-93.4c-1-6.2-1.4-14.2-4.4-21.7c-0.3-0.8-0.3-2.2-1.6-1.9c-0.4,0.1-0.7,1.4-0.8,2.2
			c-2.1,12.6-3.9,25.3-6.2,37.9C574.9,631.4,573.3,644.5,569.9,657.2z"/>
		<path fill="#FEFEFE" d="M175.2,474.2c0.3-0.7,0.5-1.5,0.7-2.3c-0.7,0.4-1.3,0.8-1.9,1.3c-7.2,7.4-13.9,15.3-19.8,23.8
			c-22.7,33.1-39.9,69.2-56.9,105.3c-4,8.5-5.8,17.7-7,27l0.3,2.4c1.3-0.3,1.1-1.4,1.5-2.3c0.2-0.5,0.4-0.9,0.5-1.4
			c14.5-42.9,36.5-82.8,65.2-117.8c1.6-2,4-3.4,4.8-6.2C165.7,493.6,169.9,483.6,175.2,474.2z"/>
		<path fill="#8F6565" d="M160.6,535.6c0.4-0.7,0.8-1.4,1.1-2.1c0.1-0.3,0.2-0.6,0.2-1c8.5-28.8,17.5-57.3,33.5-83
			c0.3-0.6,0.4-1.2,0.5-1.8c-1,0-1.2,0.9-1.7,1.5c-7.4,10.1-13.9,20.7-19.7,31.8c-7.8,15.4-13.2,31.6-14.4,49c-0.1,1-0.2,2-0.1,3
			C160.1,533.9,159.4,534.9,160.6,535.6z"/>
		<path fill="#832C3C" d="M520.3,414.2c0.9-1.1,1.5-2.6,1.6-4.1l0,0c-0.2-3,0.1-5.9-1.7-6.4c-2.6-0.8-2.6,2.4-3.5,4
			c-2.6,4.7-7.2,6.3-13.3,4.9c-1.3-0.3-3-1.9-3.9,0.2c-0.8,1.8,0.5,3.1,1.9,4.1C505.7,420.1,517,418.5,520.3,414.2z"/>
		<path fill="#832C3C" d="M230.7,409.8c4,3.7,8.7,6.4,13.9,7.9c2.5,0.2,2.8-1.7,3.6-3.1c0.5-1,1.7-2.3,1.4-3c-0.6-1.3-2-0.2-3.1-0.1
			c-4.8,0.6-8.9-0.5-11.8-4.7c-0.6-0.9-1.2-3-2.9-1.3C230.8,406.6,229.1,408.3,230.7,409.8z"/>
		<path fill="#03010B" d="M250.2,453.4c0.1,0.2,1.2,0,1.8-0.1c8.2-1.5,16.4-2.8,25.2-2.4c4.9-0.4,10.2,0.3,15.5,0.9
			c10.4,1.1,15.3,6,16.7,16.4c0.9,7.9,1.4,15.9,1.4,23.9c0.2,11.8-0.7,23.6-1.6,35.4c-0.1,0.7-0.5,2,0.4,2.1c0.9,0.2,1.1-1,1.3-1.8
			c2.6-9.2,8.8-14.9,16.7-20.1c14.5-9.4,19.6-23.7,18-40.6c-0.3-3-1.3-5.5-4.4-7.3c-12-6.9-23.8-14.1-35.6-21.2
			c-1.8-1.2-4-1.6-6.2-1.3c-16.8,2.3-32.6,7.5-47.9,14.6C250.9,452.2,249.8,452.3,250.2,453.4z"/>
		<path fill="#8F6565" d="M516.2,383.7L516.2,383.7c-3,3.2-7.5,4.4-11.2,6.8c-0.8,0.5-0.6,1.5-0.3,2.3c1.6,4.7,3.7,9.2,6.3,13.4
			c0.5,0.7,0.9,1.5,1.9,1.3c1-0.2,1.2-1.2,1.1-2c-0.4-7,0.8-13.9,3.3-20.4C517.7,384.3,517.9,383.6,516.2,383.7z"/>
		<path fill="#8F6565" d="M256.5,412.4c5.8,0.9,11,3.7,16.5,5.6c2.7,0.9,5.3,2,7.9,2.9c0.5,0.2,1.3,0.7,1.6-0.2
			c0.1-0.2-0.4-0.8-0.8-1.1c-8.5-6.8-12.1-16.5-15.6-26.2c-0.3-0.9-0.3-2.1-1.5-2.5c-0.3,0.3-0.6,0.7-0.8,1.1
			c-1.9,6-5.5,10.8-9.7,15.5C252.1,409.7,253.4,412,256.5,412.4z"/>
		<path fill="#8F6565" d="M252.9,447.7c1.5,0.9,3.6-1.2,5.4-1.8c2.2-0.7,2-2.3,1.6-4c-1.1-4.5-2.9-8.8-5.5-12.7
			c-0.6-1-1-3.1-2.6-2.4c-1.3,0.5-0.5,2.4-0.5,3.6c0.2,3.5,0.6,6.9,1.1,11.5C252.9,443.1,250.3,446.1,252.9,447.7z"/>
		<path fill="#FEFEFE" d="M250.6,416.7c-0.7,1.7,0.1,3.1,1.3,4.5c5,5.6,8.6,12.3,10.6,19.5c0.5,1.8,1.3,3,3.5,2.3
			c9.7-3.4,19.7-6,29.8-7.8c1.1-0.2,2.8-0.7,1.2-2.1c-3.4-3.1-6.3-7.8-10.8-8.3c-7-0.9-12.9-4-19.3-6.3c-3.9-1.4-7.6-3.3-11.9-3.4
			l0,0C253.2,415.1,251.4,414.7,250.6,416.7z"/>
		<path fill="#262237" d="M246.4,458.1c-0.1,0.4,0.5,1.2,1,1.5c11.4,6.6,15.3,17.9,18.2,29.7c4.7,18.6,6.2,37.7,9.7,56.5
			c3.3,17.6,8,34.7,18.2,49.8c0.8,1.2,1.3,3.2,3,3c2-0.3,1.2-2.4,1.5-3.7c2.4-12.8,4.1-25.6,5.4-38.5c2.1-20.4,4.8-40.7,4.4-61.2
			c0-6,0.5-12-0.1-18c-1.6-17.1-2-22.3-21.7-23.5c-0.2,0-0.3,0-0.5-0.1c-12.3-0.9-24.7,0.1-36.6,3.1
			C248,457.1,246.7,457,246.4,458.1z"/>
		<path fill="#8F6565" d="M159,746.5c1.5-0.4,0.8-2,0.7-3.1c-0.2-5.8-0.6-11.6-0.8-17.5c-0.1-4.5-0.6-8.7-2.6-12.9
			c-3.4-7-7.1-14.2-7.8-22c-0.6-6.2-3.1-11.1-6.3-15.9c-5.2-7.9-5.7-16.1-1.9-24.7c1.6-3.5,2.5-7.2,2.5-11.1
			c-0.4-21.5,4-42.2,9.9-62.8c3.3-11.6,5.3-23.6,4.2-35.8c-0.1-1.1-0.3-2.2-0.5-3.3c-1.5,0.5-1.5,2.1-2,3.2
			c-4.9,11.8-9.3,23.9-13,36.1c-7.9,26.2-13.7,52.7-15.9,80.6c0.9,9.7,1.8,20,3,30.2c0.7,7,2.8,13.7,6.1,19.9
			c0.3,0.6,0.5,1.7,1.6,1.4c0-0.6-0.1-1.2-0.3-1.8c-1.6-7.1-3.2-14.3-4.8-21.4c-0.3-1.5-1.4-3.9,0.6-4.3c2.1-0.4,1.7,2.5,2,3.8
			c1.8,10,4.3,19.8,7.4,29.5c3.5,10.7,8.2,20.7,15.2,29.6C157.2,745.3,157.8,746.8,159,746.5z"/>
		<path fill="#3F3647" d="M580.4,1010.5c-3.7-7.8-6.2-16.1-7.6-24.7c-2-12.6-7-24.4-14.7-34.6c-1.1-1.5-2.5-4.5-4.4-0.5
			c-7,14.4-18.1,25.4-29.8,35.9c-1.4,1.3-3.2,4.6-4.9,2.7c-1.6-1.8,1.8-3.3,3.2-4.6c10.3-9.5,20.3-19.3,27.3-31.7
			c1.6-2.9,3.2-5.8,3.4-9.3c0.1-1.3,0.3-3-1.1-3.6c-1.8-0.8-2,1.2-2.8,2.1c-4.8,5.7-8.2,12.3-12.6,18.3
			c-10.2,13.8-23.1,24.3-36.4,34.7c-33.6,26.5-70.3,46.9-112,57.5c-14.9,3.7-30,6.2-45.2,7.5c-0.9,0.1-2.6-0.1-2.6,0.8
			c0.1,1.7,1.8,0.9,2.8,0.9c5.8,0.2,11.7-0.3,17.4-1.5c36.7-7.9,72.8-17.4,104.6-38.6c0.8-0.5,1.7-1.4,2.6-0.3
			c0.6,0.8-0.1,1.5-0.7,2.1c-0.8,0.8-1.5,1.7-2.3,2.5c1.5,0.7,2.5-0.6,3.5-1.3c13-8.7,26-17.4,39-26.1c4.6-3.1,5.1-2.9,6.4,2.5
			c5.7,23.3,9.7,46.9,11.9,70.8c0.4,4.2,1.7,6.1,6.4,5.9c10.7-0.4,21.3-0.1,32-0.1c10.5,0,21,0,31.5,0c6.7,0,8.2-1.5,6.1-8.1
			C594.8,1049.8,589.2,1029.6,580.4,1010.5z"/>
		<path fill="#FEFEFE" d="M755.4,2.4c-248.5,0-497,0-745.5,0c-7.5,0-7.5,0-7.5,7.6c0,176.7,0,353.3,0,530c0,176.2,0,352.3,0,528.5
			c0,1.7,0.1,3.3,0,5c-0.3,3.2,1,4.4,4.3,4.4c53.7-0.1,107.3-0.1,161,0c3.3,0,4.5-1,4-4.4c-2.9-20.4-4.7-41-7.1-61.5
			c-4-35-3-70.1-2.5-105.1c0-0.5,0.1-1,0.1-1.5c1.8-23.9,2.3-47.9,1.6-71.9c-0.3-7.1-2.1-14.2-2-21.3c0.2-18.8-1-37.6-1.8-56.4
			c0-2-0.8-3.9-2.1-5.4c-3.1-3.3-5.8-6.9-8.1-10.7c-1.2-2-2.6-2.3-5-2c-5.7,0.7-11.6,1.7-17.3,1.2c-8.9-0.7-15.2-6.4-20.1-13.4
			c-5.4-7.8-10.4-15.9-15.6-23.8c-0.4-0.7-1.2-1.6-1.7-1.6c-1.1,0.1-0.8,1.3-0.8,2c-1.2,28.4-0.7,56.3,22.9,77.3
			c0.6,0.6,1.3,1.2,0.6,2.1c-0.7,0.9-1.6,0.3-2.2-0.1c-3.1-1.9-5.9-4.4-8.1-7.3c-18.3-24-27.3-50.8-24.8-81.1
			c0.4-5.3-0.2-9.9-3-14.7c-6.5-10.8-9.4-23.4-8.4-36c1.7-21.9,8-42.8,15.4-63.3c6.3-17.3,18.1-31.4,28.4-46.3
			c33-47.5,73.3-88.2,117.1-125.7c4.7-4,5.3-7.4,2.3-12.9c-4.4-8.2-8.5-16.6-12.2-25.2c-0.4-0.9-0.3-2.9-1.7-2.4
			c-0.8,0.2-0.2,2.1,0.2,3.2c1.6,4.7,3.2,9.4,4.8,14.2c0.4,1.2,1.7,2.7,0.5,3.6c-1.6,1.2-2.6-0.8-3.6-1.6c-5.9-5-9.2-11.7-11.6-18.9
			c-5.4-16.3-7.8-33.5-7.1-50.7c0-0.8-0.1-1.7-0.1-2.5c-1.2,0.3-1.1,1.5-1.3,2.4c-2.3,8.8-4.3,17.8-7,26.5c-1.7,5.5-1.2,10,2.8,14.2
			c0.8,0.9,2.9,2.3,1.1,3.6c-1.6,1.1-2.4-1.2-3.3-2.3c-7-9.2-10.1-19.8-11-31.1c-1.2-15,0.4-29.9,1.8-44.9c0.1-1,0.2-2.6-0.2-2.8
			c-0.9-0.4-1.2,0.9-1.5,1.5c-10.4,20.8-20.4,41.9-26.1,64.6c-0.3,1,0.1,2.7-1.6,2.6c-1.7-0.1-1.9-1.4-1.7-3
			c0.7-4.8,1.2-9.6,1.8-14.4c2.9-21.6,10.4-41.9,18.9-61.9c1.2-2.4,2-5,2.4-7.6c0.8-6.8,2.5-13.4,4.9-19.8
			c7.9-22,18.5-42.9,31.4-62.3c0.7-1.1,1.3-2.3,1.9-3.4c-1.7-0.1-2.4,1.4-3.3,2.3c-33.8,31.6-56.9,69.7-69.1,114.4
			c-1,3.5-2,7.1-0.8,10.8c0.3,0.9,0.8,2.1-0.5,2.5c-0.6,0.2-1.4-0.5-2.1-0.9c-1.8-0.8-1.3-2.3-1.4-3.8c-1-16.7,3.8-32.3,9.6-47.6
			c12.2-32.4,31.8-60.3,54.1-86.3c8.8-10.2,18.8-19.5,27.4-29.7c9.2-11,18.3-21.8,28.8-31.7c27.2-25.8,58.9-42.6,95.7-49.6
			c9.5-1.8,19.3-3.4,28.4,1.1c3.1,1.5,6.6,2,10,1.5c27.4-3.8,52.7,1.8,75.6,17.3c5.1,3.5,9.1,4.6,15.2,2.5
			c15.3-5.1,29.9-3.8,42.4,7.7c2.9,2.7,6.3,5,9.3,7.6c8.9,7.7,8.8,7.6,19.3,1.5c2.1-1.2,4.4-5.4,6.4-2.8c1.5,2-2,5-4,7.1
			c-0.2,0.2-0.5,0.4-0.8,0.7c-8.7,7.9-17.7,15.2-27.8,21.2c-3.7,2.2-3.4,3.7-1.1,6.8c6.5,8.6,12.9,17.4,19,26.3
			c13.4,19.6,25.2,40.1,30.7,63.5c1.7,7,3.3,11.7,11.5,14.5c6.5,2.2,10.5,2,15.3-1.9c0.8-0.6,1.6-1.2,2.5-1.6c1.1-0.6,2.3-2,3.5-0.6
			c0.9,1.1-0.3,2.2-0.9,3.1c-6.1,7.7-7.9,17.5-12,26c-5.9,12.3-2.4,21.9,3.6,32c0.1,0.1,0.2,0.3,0.2,0.4
			c10.1,18.7,22.1,35.4,43.4,42.8c0.9,0.3,2.2,0.7,1.7,1.9c-0.4,1-1.8,0.7-2.7,0.4c-5.9-1.8-11.5-4.6-16.4-8.4
			c-14.3-11.7-25.9-25.8-36.5-40.8c-0.8-1.2-1.2-3.7-2.5-3.3c-1.2,0.4-0.2,2.6,0,4c3.1,20.3,5.4,40.6,2.5,61.1
			c-2.4,16.4-7.9,31.6-18.9,44.4c-1,1.2-2.2,3.7-3.7,2.5c-2-1.7,0.8-3.1,1.8-4.3c7.8-9,12.6-20.2,13.6-32.1
			c0.7-8.3,0.7-16.6-0.2-24.9c-1.2-12.4-3.3-24.7-6.3-36.9c-0.4-1.4-0.2-3.9-2.5-3.7c-2.3,0.2-3.1,2.2-3,4.5c0,0.5,0,1,0,1.5
			c0.1,13,0.3,26-0.9,39c-1.8,18.6-8.1,35-22.9,47.2c-5.4,4.4-11,8.7-16.5,13c-4.7,3.6-4.7,6.4,0,10.2c4.8,3.8,9.9,7.4,14.4,11.6
			c26.8,24.6,43.6,55.6,56.4,89.1c0.7,2,1.7,3.9,3,5.7c8.1,11,15.6,22.4,22.4,34.3c13.5,23.5,25.1,47.7,30.6,74.4
			c4.1,20.1-6.2,41.3-24.1,49.8c-0.7,0.4-1.4,0.9-2,1.4c-1.1,0.7-2.1,3.1-3.5,1.4c-1.2-1.3,1-2.5,1.8-3.6c0.5-0.7,1-1.3,1.6-1.9
			c11.7-14.5,16.5-31,13.6-49.5c-1.8-11.3-5.1-22.4-9.6-32.9c-7.2-17.4-16.4-33.9-27.2-49.3c-0.6-0.9-1.2-2.6-2.3-2.2
			c-1.2,0.4-0.6,2.1-0.5,3.1c1.2,9.5-0.6,19.3,1.4,28.4c4,18.5,7,37.2,9.1,56.1c1.6,14,3.3,27.7,1.4,41.7
			c-3.4,25.2-12.6,47.9-29.8,66.9c-8.3,9.1-18.6,15.3-31.3,15.7c-4.1,0.1-5.8,1.4-6.8,5.3c-3,12.5-7,24.7-11.8,36.5
			c-0.6,1.5-0.7,3.8-2.5,4.1c-7.4,1.2-12.6,6.7-19.2,9.3c-3.1,1.2-4,3-3.4,6.1c1.8,8,2.8,16.1,3,24.2c0,1.8,0.2,3.8,1.4,5.2
			c4.9,5.9,7,13.2,9.1,20.4c2.2,7.7,5.8,14.9,10.7,21.3c7.5,9.8,13.7,20.6,18.3,32c2.3,5.8,3.6,11.8,2.5,18.1
			c-1.1,6.2,1.3,11.4,4.7,15.9c8,10.5,13.8,21.9,16.5,34.9c1.5,7.1,2,14.6,5.3,21.3c9.8,19.9,15.5,41.4,23,62.2
			c0.8,2.3,1.6,4.9,1.4,7.3c-0.5,5.1,2,5.6,6.2,5.6c48.3-0.1,96.7-0.1,145-0.1c7.4,0,7.4,0,7.4-7.3c0-353.7,0-707.3,0-1060.9
			C762.8,2.4,762.8,2.4,755.4,2.4z"/>
		<path fill="#3F3647" d="M449.6,1034.6c-11.8,5.9-24.3,10-36.7,14.3c-22.5,7.9-45.1,15.3-69.3,15.4c-6.2,0-8.7,2.9-11.1,7.7
			c-3,5.9-3.2,5.7,3.2,5.8c19,0.4,38-1.1,59.6,0h47.8c11.6,0,11.9,0,13.4-11.4c1.3-9.7,1.8-19.6-1.4-29.2
			C454.1,1034.2,452.7,1033,449.6,1034.6z"/>
		<path d="M765.2,1075.6V5C765.1,361.9,765.1,718.7,765.2,1075.6z"/>
		<path fill="#3F3647" d="M522.7,1069.5c-2.5-21.6-6.2-43.1-11-64.4c-1.2-5.2-1.5-5.3-6-2.3c-12.8,8.5-25.1,17.8-38.4,25.2
			c-7.5,4.2-11.1,7.4-8.2,16.5c2.9,9,0.4,18.5-0.9,27.7c-0.6,4.2,0.2,6,5,5.7c9-0.4,18-0.1,27-0.1c9.5,0,19-0.1,28.5,0.1
			c3.3,0.1,4.6-1.2,4.2-4.4C522.8,1072.1,522.9,1070.8,522.7,1069.5z"/>
		<path fill="#FCECD5" d="M408,934.2c-2.6,2.4-5.2,4.7-9.1,4.1c-0.8-0.1-1.8-0.1-1.8-1.2c0-0.4,0.5-1,0.8-1c3.6,0.2,6.1-2.1,8.9-3.8
			c1.2-0.8,1.5,0.6,1.5,1.7l0,0c1.1-1.5,2.2-2.9,3.2-4.4c23.2-37.6,46.4-75.1,69.5-112.7c0.9-1.5,3-3.1,1.9-4.8s-3.3-0.5-5.1-0.2
			c-19.8,3.8-37.3-0.4-51.9-14.9c-6.7-6.4-13-13.4-18.7-20.7c-3.3-4.4-3.4-4.4-6,0.6c-13.1,24.9-25,50.4-36.7,76
			c-6,13.2-12.7,26.1-16.5,40.1c-1.4,5.4-3.2,10.6-5.6,15.7c-16.2,34.2-34.4,67.3-54.7,99.3c-13.2,20.8-25.9,41.9-35.5,64.7
			c-1.6,3.7-1.5,5.3,3.3,5.2c22.2-0.2,44.3-0.1,66.5,0c3,0,4.9-0.8,6.4-3.5c11-20.2,23.1-39.8,35.4-59.2
			C380.1,989.1,393.5,961.4,408,934.2z M381,925.8c0.1-1.3,0.2-3.2,1.7-3.2c2.2,0.1,0.8,2,0.7,3.1c0.1,1.1,0.2,2.3,0.4,3.4
			c0.2,1.3,1.2,3.2-0.2,3.6c-2,0.6-2-1.8-2.4-3C380.9,928.4,380.8,927.1,381,925.8z"/>
		<path fill="#D6B0A5" d="M163.3,692.6c3.2,0.8,4.9-0.3,4.5-3.8c-1-7.2,0.3-14.3,2-21.2c1.1-4.7,2.1-9.4,3.3-14.1
			c0.5-1.9,0.4-3.4-1.8-3.8c-8-1.6-15.2-4.7-21.2-10.4c-1.1-1.1-2.1-1.1-2.6,0.4c-2.6,7.3-6.3,14.3-7.1,21.1
			c0.1,10.6,13.1,28.5,22,31.4C162.7,692.3,163,692.5,163.3,692.6z"/>
		<path fill="#FEFEFE" d="M153,689.7c-0.6-0.4-1-1.5-1.9-0.9c-0.3,0.2,0,1.2,0,1.8c0.6,3.9,1.8,7.7,3.6,11.3c0.9,2,0.7,5.4,3.2,5.4
			c1,0-0.2-3.9,0.1-5.6c0-0.8,0-1.6,0-2.3C158.6,695,156.7,691.9,153,689.7z"/>
		<path fill="#3F3647" d="M261.1,1039.5c-13.1-3.1-23-11.7-33.2-19.7c-1-0.8-1.7-2.7-3.1-1.8c-1.1,0.7-0.5,2.5-0.5,3.8
			c0.3,10.8,1.6,21.6,1.1,30.3c0,8.7,0,15.2,0,21.7c0,1.3-0.3,2.7,1,3.7c3.4,2.4,12.3-0.3,13.8-4.2c4-10.5,5.8-21.5,6.6-32.6
			c0.1-1.3-0.6-3.6,1.5-3.5c1.6,0.1,1,2.2,0.9,3.4c-0.4,11.2-2.5,22.2-6.1,32.7c-0.5,1.5-2.4,3.5,0.4,4.5c2.3,0.8,4-0.4,5-2.8
			c4.1-10.5,9-20.8,14.5-30.7C264.5,1041.5,263.9,1040.1,261.1,1039.5z"/>
		<path fill="#850F1E" d="M360,705.3c7.8-10.2,16.3-19.8,25.5-28.8c1.9-1.8,3.7-3.9,5.1-6.1c4-6.4,2.3-11.9-4.6-15
			c-1.2-0.6-2.5-1-3.7-1.4c-17.8-5.1-35.7-9.7-54.5-7.7c-3.3,0.4-6.6-0.2-9.7,1.3c2.1,3.5,5.9,4.1,9.2,5.2c16.5,5.7,34,5.8,51.1,8.3
			c3.2,0,3.2,0,3.9-3c0.1-0.7,0.9-1.2,1.6-1.1c0.1,0,0.3,0.1,0.4,0.1c2,0.7,4.9,1.1,5.1,3.4c0.2,2.9-2.8,2.8-4.8,2.9
			c-2.3,0.2-4.6,0.2-7,0c-7.3-0.7-14.6-1.3-21.8-2.3c-13.7-1.9-27.6-3.1-39.5-11c-3.6-2.4-5.5-1.4-7.9,1.3
			c-10,11.2-12.7,24.2-9.2,38.6c5.4,22.1,21.4,37.2,35.7,53.4c1.2,1.4,2.3,1,3.4-0.1c7.9-8.1,14.6-17.1,17.6-28.1
			C356.5,711.6,357.4,708.6,360,705.3z"/>
		<path fill="#262237" d="M304.9,574.1c0.1,0.4,1.1,0.7,1.7,0.7c8.3,1.1,16,4.4,24,6.5c6.9,1.9,13.6,4.6,19.8,8.1
			c2.9,1.7,4.6,6.4,8.3,5.4c3.3-0.9,6.1-3.9,9.1-6c0.1-0.1,0.3-0.2,0.4-0.3c8.6-6.4,8.6-7.9-0.3-14.5c-0.8-0.6-1.6-1.2-2.5-1.7
			c-6.4-3.8-13.5-5.5-20.6-7.3c-10.6-2.7-21.1-6.1-32-7.8c-2.5,0.5-6-0.1-6.7,3.1C305.1,564.8,303.9,569.4,304.9,574.1z"/>
		<path fill="#850F1E" d="M293.4,683.9c-6.1,22.1-9.2,45-9.2,67.9c0,3.1,1.4,4,4,4.6c13.5,2.8,27,5.6,40.9,5.3l0,0l0,0l0,0
			c3.2,0,6.3,0.2,9.5,0c10-0.8,10-0.9,8.2-10.7c-0.2-1.3-0.6-2.6-0.9-3.9c-1.4-6.2-1.4-6.2-6-2.1c-2.2,1.9-4.5,4-7.2,0.9
			c-7.2-8.3-14.4-16.5-21.3-25.1c-8.7-10.8-14.6-23-16.5-36.9c-0.1-0.8-0.3-1.5-0.5-2.3C294.1,682.4,293.7,683.1,293.4,683.9z"/>
		<path fill="#262237" d="M303.2,580.5c-4.4,16.4-3.2,33.3-4.8,50c0.1,0.6,0.2,1.2,0.5,1.8c0.6-0.2,1.2-0.5,1.7-0.9
			c14.2-11.7,30.3-20.4,46.4-29c2.6-1.4,7.1-2.2,7-5.4s-4.3-4.8-7.1-6.4c-8.2-4.6-17.3-6.6-26.2-9.3c-4.6-1.4-9.2-2.7-13.8-4
			C304.3,577.1,303.8,578.4,303.2,580.5z"/>
		<path fill="#4F4A5F" d="M433,597.9c10.8-5.3,20.3-12.4,30-19.3c19.6-13.8,40-26.5,60.8-38.5c14.1-8.1,29.6-9.4,45.2-2.9
			c1.4,0.6,3.1,2.7,4.3,1.2c1.3-1.6-0.6-3.4-1.6-4.8c-3.9-5.6-9.9-8.8-14.8-13.3c-5.2-4.8-11.4-5.8-18-6
			c-14.6,0.6-27.6,5.8-39.7,13.5c-10.9,6.9-20.7,15.2-30.4,23.6c-17.4,15.4-38.3,26.3-60.9,32c-13.5,3.4-27,7.2-40.5,10.9
			c-2.3,0.5-4.5,1.4-6.4,2.6c-7.2,5.1-15.1,9.2-22.9,13.3c-12.5,6.6-24.7,13.9-35.4,23.3c-1.1,1-3.5,2-2.4,3.7
			c0.9,1.4,2.7-0.4,3.9-0.9c22.5-10.4,46.1-16.9,70.4-21.5C394.7,611.1,414.6,607,433,597.9z"/>
		<path fill="#850F1E" d="M292.7,664.5c1.9,0.7,3.6,0.8,4.6-1.4c2.7-5.7,6.4-11,10.8-15.5c1.3-1.4,2-2.8-0.3-3.9
			c-7.5-3.3-15.4-5.2-23.8-7.3c-1.6-0.1-2.1,1.6-2.7,3.2C277.7,648.9,283.2,661,292.7,664.5z"/>
		<path fill="#850F1E" d="M340.5,626.4c-0.7-1.1-1.8-0.2-2.6,0c-1.3,0.2-2.6,0.7-3.7,1.4c-5.9,4.6-11.7,9.2-17.6,13.9
			c-0.5,0.4-1.1,1.2-0.9,1.5c0.5,1.1,1.7,0.6,1.4,0.5c2.4,0.4,4.9-0.4,6.6-2.1c5.1-4.5,10.2-9,15.3-13.5
			C339.6,627.6,340.6,626.6,340.5,626.4z"/>
		<path fill="#FCECD5" d="M328.5,510.4c-8.2,5-13.1,11.4-15.8,20.2c-1.7,5.7-3.6,11.4-5.1,17.2c-1.7,6.8-1.6,6.8,5.5,7.1
			c1.2,0,2.3,0.1,3.5,0.4c13.8,3.1,27.5,6.5,41,10.7c7.3,2.3,13.7,6,18.3,12.3c0.6,0.8,1,1.8,2.2,1.8c0.3-0.1,0.6-0.2,0.9-0.3
			c0.9-0.7,1.8-1.4,2.7-2.2c24.9-21.2,46-46.4,62.6-74.6c2.2-3.7,2.6-7.2,2.6-11.6c-0.1-20.4-1.9-40.9,2.7-61.1
			c0.3-1.2,1.3-3,0.2-3.7c-1.2-0.8-2.2,1-3.2,1.8c-22.2,18.5-48.3,29.8-74.9,40.3c-6.1,2.6-13,2.1-18.6-1.4
			c-1.3-0.8-2.9-2.7-4.4-1.5c-1.3,1-0.5,3.2-0.4,4.8C349.2,487.5,343,501.5,328.5,510.4z"/>
		<path fill="#262237" d="M541.8,511.8c0.6,0,1.4,0.2,1.8-1c-0.6-0.5-1.3-1.2-2.1-1.8c-4.5-3.2-8.9-6.5-13.4-9.6
			c-7.3-4.9-14.2-10.6-22.9-12.9c-8.8-2.4-17.8-4.4-26.6-6.7c-4.6-1.2-7.9-0.3-10.7,3.8c-6.4,9.3-13,18.6-20,27.5
			c-13.9,17.7-29.8,33.6-44.7,50.4c-0.7,0.8-2.4,1.6-1.6,2.7c0.8,1.2,2.1-0.1,3.1-0.5c18.6-6.3,37.6-11.4,56.8-15.2
			c6-1.2,11.6-4,16.3-8C496.5,525.2,515.9,511.3,541.8,511.8z"/>
		<path fill="#03010B" d="M449.9,500.6c-1-0.3-1.4,0.7-1.8,1.3c-2.4,4-4.8,7.9-7.2,11.9c-0.3,0.5-0.9,1-0.4,1.8
			c0.5-0.4,1-0.8,1.5-1.3c2.7-3.4,5.4-6.7,8-10.1c0.5-0.7,1-1.5,1.4-2.3l0,0C450.8,501.4,450.4,500.8,449.9,500.6z"/>
		<path fill="#4F4A5F" d="M461.7,551.2c-16.3,3.2-32.1,8.6-48.2,12.3c-16.9,3.8-28.3,15.3-41,25.2c-0.4,0.4-0.8,0.9-1.1,1.5h1.6
			c18-5.1,36.5-9.1,54.3-15.9c12.9-5.1,24.8-12.3,35.3-21.3c0.7-0.6,2-0.8,1.5-2.1C463.9,550.8,462.5,551,461.7,551.2z"/>
		<path fill="#D6B0A5" d="M310,641.7c1.1,0.4,2.4,0.1,3.2-0.8c3.1-2.5,6.2-5,9.3-7.4c0.4-0.3,0.8-0.6,1.1-0.9
			c-0.4-1.7-1.2-0.9-1.9-0.7c-4.1,1.7-8.3,3.3-12.4,5.1c-1.3,0.6-3.6,0.7-3.4,2.3C306.2,640.9,308.5,641.1,310,641.7z"/>
		<path fill="#8F6565" d="M516.8,427.7c-1.4-5-3-8.2-8.9-6.5c-1.5,0.3-3,0.1-4.4-0.4c-2.9-0.9-3.9,0.2-4.3,2.9
			c-1.4,7.8-1.1,15.6-1.6,23.4c0,7.2-0.2,14.3,0.1,21.5c0.1,2.2,1.2,5.3,4,4.7c2.4-0.5,1.1-3.4,0.8-5.2c-2.1-12.5-2.9-25.2-2.5-37.8
			c0-1.2-0.5-3.1,1.2-3.4c2.2-0.4,2,1.7,2.4,3c4.5,14.3,7.8,28.9,9.8,43.8c0.6,4.2,1.7,7.4,5.9,9.5c4.3,2.2,8,5.3,12.1,8
			c1.3,0.9,2.2,2.5,4.1,2.2c-0.2-1.4-0.4-2.9-0.8-4.3C528.6,468.6,522.5,448.2,516.8,427.7z"/>
		<path fill="#03010B" d="M548.6,509.2c-5.8-5-11.6-10-17.5-14.8c-12.1-9.7-25.9-16.1-39.9-22.4c-12.5-5.7-23.5-13.2-29.7-26.2
			c-1-2.1-2.5-4-4.5-5.3c-3.9-2.6-6.2-1.5-6.6,3.1c-0.8,9.5-1.2,18.9-1.1,28.4c0,5.5,0,11,0,16.5c0,2.2,0,4.4,1.2,6.3
			c0.8,1.4,0.7,3.7,2.7,3.8c1.6,0.1,2.2-1.8,3.1-3c3.1-4.3,6.8-8.4,9-13.1c3.1-6.6,8.2-6.5,13.8-5.4c7.1,1.5,14.1,3.7,21.3,5.2
			c7.8,1.7,15.2,5,21.7,9.6c8.5,6.1,17.2,12,25.8,18c0.6,0.4,1.1,1.5,1.9,0.5C549.8,510.6,549,509.6,548.6,509.2z"/>
		<path fill="#FEFEFE" d="M451.9,432.6c-0.2,2.3,0.1,3.5,2.3,4c4.9,1,7.8,4.3,9.9,8.4c5.5,11,14.6,17.9,25.2,23.2
			c5.5,2.7,5.5,2.7,5.6-3.4c0.2-13.6-0.8-27.3,1.6-40.8c2.5-13.8-1.5-12.9-10.7-13l0,0c-6.4-0.1-12.5,1.5-18.6,3.2
			C457.5,416.8,452.7,422.8,451.9,432.6z"/>
		<path fill="#8F6565" d="M474.5,405.8c3.6-0.3,7.3-0.9,10.9-0.6c6.3,0.5,13-0.1,18.4,4.6c1.2,1,3.6,1.9,5,0.1
			c1.2-1.4-0.6-2.7-1.2-4c-1.5-3.3-3.5-6.5-4.6-10c-1.2-3.9-2.9-4.3-6.5-2.9c-6.8,2.6-13.6,5.8-21.2,4.3c-1.2-0.3-2.4,0.2-3,1.3
			c-2.7,4-5.5,8-8.2,11.9c-0.3,0.5-1.1,1.1-0.4,1.6c0.4,0.3,1.2-0.1,1.9-0.3c3.7-1,7.4-1.9,11.1-2.9c0.5-0.1,0.9-0.2,1.4-0.3
			c-0.5-0.2-1.1-0.3-1.6-0.3c-0.7-0.1-1.3,0-2.4,0l0,0c-1-0.4-3.6,1.4-3.8-0.9C470.3,405.3,473,406,474.5,405.8z"/>
		<path fill="#8F6565" d="M509.6,477.2c2.2-0.4,1.3-2.8,1-4.2c-1.6-10.5-3.8-20.8-6.5-31.1c-0.4-1.4-0.2-3-1.5-4.1
			c-0.1,1.5-0.2,2.9-0.3,4.3l0,0c1,10.6,1.5,21.2,3.9,31.6C506.6,475.9,507.7,477.6,509.6,477.2z"/>
		<polygon points="408.2,934 408.2,934 408,934.2 		"/>
	</g>
</g>
</svg>
