<?xml version="1.0" encoding="utf-8"?>
<!-- Generator: Adobe Illustrator 24.1.0, SVG Export Plug-In . SVG Version: 6.00 Build 0)  -->
<svg version="1.1" baseProfile="tiny" id="图层_1"
	 xmlns="http://www.w3.org/2000/svg" xmlns:xlink="http://www.w3.org/1999/xlink" x="0px" y="0px" viewBox="0 0 1024 1024"
	 xml:space="preserve">
<g id="图层_1_x5F_复制">
	<path d="M733,1025c-4.7-18.3-9.9-36.6-14-55c-2.5-12.1-8.1-23.3-16.3-32.5s-15.5-19.2-23.2-28.8c-0.5-0.6-0.8-1.5-1.8-1.4
		c0.3,0.7,0.6,1.4,1,2.1c6.7,10.4,13.4,20.7,20,31.1c0.7,1,2.3,2.5,0.9,3.4s-2-1.3-2.6-2.3c-9-13.4-19.2-26.2-26.1-40.8
		c-4.3-9.1-11.5-16.2-14.7-25.7c-1.2-3.7-3.1-1-4.5-0.1c-10.4,7.3-21.1,13.9-32.3,19.9c-7.5,4-15.6,6.8-22.5,11.9
		c-2.4,1.8-5.1,1.3-7.2-0.8c-18.3-18.5-32.5-39.6-39.6-64.9c-1-3.6-0.9-7.3,0.1-10.9c2.5-8.3,3.6-17,3.3-25.6
		c-0.2-6.6,1.9-12.1,7.1-16.3c3.2-2.6,4.9-6.2,6.3-10c6.3-17.2,12.6-34.4,19.7-51.2c4.2-10,4.2-20.4,1.8-30.9
		c-1.6-7.1-2.7-14.4-4.6-21.5s1.7-13.4,2.5-20.1c1-8.5,0.1-17-0.8-25.4c-0.1-0.9-0.5-2.4-1.1-2.6c-1.1-0.3-1.3,1.2-2,1.9
		c-8.7,8.7-9.6,21.3-15.4,31.5c-7.1,12.4-13.6,25.3-25.4,34.2c-2.5,1.9-3.2,4.1-2.8,7.3c1.2,11.3,0.4,22.7-2.3,33.7
		c-1.4,5.8-1.8,11.7-5.1,17.4c-2.3,3.8-0.4,9.8,0.2,14.7c2.3,19.1,8,37.4,12.7,55.9c8,30.8,16.1,61.5,24.4,92.1
		c2.2,8.3,1.5,17-2,24.8c-4.1,9.8-9.3,19.1-14.2,28.6c-4.4,8.6-9.1,17-11.7,26.4c-0.4,1.4-0.8,3-2.7,3.2s-2.6-1.2-3.4-2.5
		c-4-6.5-7.3-13.4-10-20.6c-3.2-8.3-9.5-14.8-12.9-23c-1.1-2.7-3.7-1.8-5.6-0.8c-3.6,2-7.2,4.2-10.8,6.3c-4.3,2.5-5.9,1.9-6.7-3.1
		c-2.4-16.8-4.6-33.6-7-50.4c-1.4-9.6-3-19.1-6.2-28.2s-3.4-18.2-2.7-27.6c1.9-25.2,3.7-50.5,5.8-75.7c0.4-5.1-0.5-8.5-5-11.7
		c-9.9-7.2-17.1-16.9-22.3-27.8c-7.7-16.2-19.3-29-32.2-41c-7.5-6.9-15.2-13.5-22.8-20.2c-2.2-2-4.6-4-7.5-4.8
		c-5.3-1.5-10.2-4.4-14-8.4c-2-2-3.3-2.4-3.8,0.9c-1.5,9.7-3,19.4-4.5,29.1c-0.5,3.1,0.2,6.4,2,9c3.2,5,6.3,10.2,9.6,15.2
		c3.1,4.7,4.6,9.7,3.7,15.2c-1.6,10,1.1,18.9,6.7,26.9c15,21.4,29.3,43.4,47.1,62.7c0.9,1,3.8,2.3,0.4,3.9c0.4,0.9,0.8,1.8,1.3,2.6
		c4.3,6.3,8.7,12.6,11.2,20c0.6,1.4,1.7,2.5,3,3.3c5.6,4,7.2,8.1,4.6,14.6c-6.9,17.7-14.3,35.2-25.8,50.5
		c-5.7,7.5-9.6,16.4-16.5,23.1c-2.6,2.5-4.9,2.6-8,1.3c-11.2-4.7-20.8-12.5-32.7-15.8c-3-0.8-6-2-9-2.9c-1.2-0.3-3.4-0.5-2.8,1.4
		c1.2,4-0.5,8.2,1.2,12.2c4.1,9.5,4.6,20,7.4,29.9c0.4,1.3,0.8,3.3-0.4,3.6c-2.2,0.5-1.9-2-2-3.2c-1.4-14.2-7.4-27.2-9.8-41.2
		c-0.7-4-4-6.2-7.3-7.7c-7.4-3.5-15-6.5-22-10.6c-0.9-0.5-1.9-1.1-2.7-0.3s-0.5,1.9-0.2,2.8c1.8,5.4,3.4,10.8,5.4,16.1
		c4.1,10.8,7.1,21.8,10.3,32.8c0.3,0.9,1.6,2.4-0.2,2.9c-1.1,0.3-1.3-1.3-1.7-2.1c-1.2-2.5-1.1-7.1-3.3-7.2c-3-0.1-3.3,4.4-4.6,6.9
		c-7.7,14.3-18.3,26.6-27.8,39.6c-5.6,7.7-10.8,15.6-16.1,23.5c-1.7,2.1-2.9,4.6-3.5,7.2h-6c9.7-16,21.6-30.4,32.9-45.2
		c7.1-9.1,13.5-18.6,19.2-28.6c3.3-5.8,3.5-11.4,1.1-17.7c-4-10.4-7.5-21-11.2-31.5c-0.7-2.1-1.4-4.1-3.2-5.6
		c-5.7-4.7-9-11-11.9-17.7c-2.7-6.2-5.5-12.5-8.4-18.7c-1.9-4.1-4.2-8.1-7.6-11c-7.5-6.4-10.8-14.8-13.4-24
		c-8.5-29.9-12.9-60.5-15.6-91.4c-0.7-8.3-1.8-16.3-5.7-23.9s-7-16.2-10.4-24.3c-0.3-0.7-0.3-1.7-1.4-1.7c-0.2,0.6-0.3,1.2-0.3,1.8
		c1.1,31.4,0.8,63,6,94.1c8,47.3,25.3,90.9,53,130.2c0.3,0.4,0.6,0.8,0.9,1.2c0.8,1.2,2.5,2.5,0.7,3.8c-1.3,0.9-2.3-0.7-3.2-1.7
		c-11.6-12.2-22.3-25.2-32.2-38.8c-18.9-26.4-34.6-54.5-42.7-86.3c-4.7-18.3-5.8-37.1-6.2-56c-0.7-30.6,0.5-61.3,3.6-91.8
		c0.2-1.8,0.7-3.8-0.2-5.7c-1.3,1.5-1.3,3.4-1.7,5.1c-2.8,13.3-5,26.8-8.2,40.1c-3.8,15.5-7.7,31-10,46.8
		c-4.1,28.5-4.2,56.7,5.4,84.4c5.2,14.8,13.4,27.4,26,37c9.9,7.5,17.6,17.1,24.1,27.8c9.1,14.9,9.1,30.5,4,46.5
		c-2.3,7.3-6.5,13.8-10.7,20.2c-0.7,1-1.5,2-2.8,1.6s-0.9-1.7-0.7-2.6c5-18.9-2.9-35.3-10.1-51.8c-4.6-10.2-10.5-19.7-17.8-28.2
		c-16.6-20-25.8-43.7-33.2-68.2c-2.7-9.1-5-18.3-7.4-27.4c-0.2-0.6-0.5-1.1-0.9-1.7c-0.2,0.6-0.3,1.2-0.4,1.8
		c-4.8,56.1,12.1,104.3,51.7,144.5c4.5,4.5,10.1,7.7,15,11.6c0.9,0.7,2.7,1.6,1.5,3c-0.9,1.1-2.1-0.3-3-0.9
		c-23.1-16.5-45.5-33.8-62.9-56.6c-3.7-4.7-7-9.8-9.6-15.1c-1.8-3.6-4.2-6.8-7-9.7c-6.3-6.8-10.6-15-13.8-23.5
		c-6.5-17.3-9.9-35.2-9-53.7c1.2-22.7,4.7-45,9.3-67.2c2.8-13.4,3.2-27,4.6-40.6c2-18.7,5.8-37.2,11.3-55.1
		c6.3-21.2,13.7-42.1,22.2-62.5c8.7-20.4,11.4-42.3,16.2-63.7c8.6-38,16-76.2,21.7-114.7c3.7-24.7,6.4-49.5,11.1-74
		c0.6-3-1.3-3.2-3.2-3.8c-9.3-2.8-18.6-6-27.6-9.8c-23.4-9.6-34.6-36.4-25-59.8c2.9-7,7.4-13.1,13.2-17.9
		c14.2-11.8,28.7-23.4,45.8-31c3.7-1.6,4.8-4.8,5.1-8.5c0.5-5,1-9.9,1.4-14.9c0.9-9.8,4.6-18.4,9.9-26.8
		c11.6-18.3,20.8-37.9,29.9-57.6c5.9-12.7,14.4-22.7,27.4-28.5c2.9-1.4,6.1-1.8,9.2-1.1c11.6,2.7,23.5,4.6,34.7,9.3
		c6.5,2.7,13.1,2,19.6,0c7.5-2.3,14.9-4.8,22.6-6.1c2.1-0.5,4.1-1.5,5.8-2.8c9.7-6.2,19.4-12.4,29-18.7c3.2-2.2,6.9-3.4,10.7-3.6
		c13.3-0.3,26.6-1.2,39.9,0.7c5.1,0.7,10.1,2.3,14.6,4.8c10.6,6.1,20.6,13,29,22c2.1,2.1,4.4,4,7,5.4c13.3,7.9,26.6,15.8,39.9,23.8
		c7.6,4.5,14.3,10.4,19.7,17.5c6.3,8.5,14.2,15.6,23.3,20.9c13.5,7.7,18.3,19.5,18.6,34c0.2,7.2,0.3,14.3,0.3,21.5
		c0,3.4,0.8,6.1,3.3,8.5c3.4,3.2,4.2,7.1,2.4,11.4c-3,7.2-2.3,14.1,2.1,20.4c6.4,9.3,6.8,18.1-1.2,26.7c-2.7,2.9-2,6.6-1.6,10
		c0.7,7.8,2.7,15.3,4.4,22.9c6.2,27.6,19.1,52,36,74.4c9.9,13.2,20,26.2,31.1,38.4c0.9,1,1.2,3.4,3.7,1.6c1.3-1,1.9,0.8,2.4,1.7
		c9,17.3,24,27.7,41.4,35.2c18.8,8.1,38.5,13.9,58.7,17.5c12,2.2,23-2.4,34-6.3c14.9-5.4,28.9-12.9,41.8-22.1c5.7-4,6.4-10,6.8-15.9
		c1.4-19.7-0.6-38.9-10.6-56.6c-0.5-0.9-1.6-1.9-0.6-3.1c0.1-0.1,1.5,0.5,2,1.1c13.9,16.9,25.7,35.1,28.9,57.2
		c1.7,11.5-2.9,21.8-10.4,30.7c-14.4,17-33.8,21.2-54.8,21.6c-7.7,0.3-15.3,0-22.9-1c-2.1-0.4-4.3-0.3-6.4,0.2
		c-26.6,7.8-53,5.5-79.4-0.9c-0.5-0.2-0.9-0.3-1.4-0.4c-1.5,0.1-3.4-1.8-4-0.5s2.1,1.7,3.3,2.4c16.3,9.3,33,17.8,50.8,24.1
		c51.7,18,95.1,48.2,129.1,91.4c18.1,23,27.3,49.3,25.9,78.9c-0.5,11.2-3.1,22.1-7.8,32.3c-1.9,3.9-2.1,8.4-0.5,12.5
		c6.6,18.7,10.1,37.9,9.4,57.8C951.7,777,913.8,836.2,849,840c-2.8,0.1-5.7,0.1-8.5-0.1c-1.4-0.1-3-0.5-3-2.1c0-2,1.9-1.4,3.1-1.5
		c16.8-2.1,32.5-7.2,46.1-17.5c19.1-14.5,28.5-34.7,32.3-57.8c7.3-43.9,0.7-86.5-11.4-128.7c-6.5-22.4-16.9-43.5-30.7-62.4
		c-4.9-6.8-12.2-11.3-18.3-17c-28.5-26.3-59.6-49.2-92-70.4c-4.3-2.8-8.7-5.6-13-8.3c-0.8-0.5-1.8-1.8-2.5-1s0.7,1.6,1.3,2.3
		c12.7,15,24.2,31,34.3,47.9c20.6,34.1,34.1,72.1,39.7,111.6c1.8,13.1,3,26.1,0.8,39.2c-0.4,2.5,0.5,4.6,1.4,6.7
		c9.2,20.7,14.6,42.3,14.5,64.8c-0.1,48.9-23.4,83.8-66.4,106.1c-15.9,8.2-32.8,13.7-50,18.5c-1.5,0.4-3.6,1.6-4.4-0.3
		c-0.7-1.6,1.7-2.1,2.8-2.9c40.7-29.2,71.3-66.2,89.2-113.3c6.7-17.7,10.1-36.1,11.8-55c1.4-16.4-5.3-30.2-13.2-43.7
		c-0.4-0.6-0.7-1.7-1.7-1.3c-0.5,0.2-0.7,1-0.9,1.7c-4.1,14.9-9.9,29.3-17.4,42.9c-1,1.9-0.8,3.8-0.8,5.8
		c0.6,26.4-1.8,52.2-12.7,76.7c-4.5,10.4-10.8,20-18.5,28.3c-6,6.5-10.6,14.1-16.7,20.5c-15.7,16.9-35.1,29.9-56.7,38.2
		c-7.6,2.9-15.3,5-22.9-0.2c-1.5-1-2-0.1-2.6,1c-1.3,2.8-1.3,5.9,0,8.7c2.1,4.9,4.9,9.5,8.3,13.6c14.2,18.3,28.4,36.6,42.7,54.8
		c2.7,3.4,4.7,7.3,5.7,11.5c5.2,21.3,10.6,42.6,15.9,63.9c0.2,1.2,0.3,2.3,0.3,3.5H733V1025z M367.1,602.9c0.2,0.2-0.3,0.9,0.5,0.7
		L367,603c-0.5-3.7-2.5-6.8-4.7-9.7c-0.3-0.4-0.6-1.3-1.5-0.8c0.1,0.4,0.3,0.8,0.5,1.2C363.2,596.7,365.2,599.8,367.1,602.9z
		 M768.1,446.9c0.2,0.3,0.1,1,0.7,0.4L768,447l-37-20c-0.2-0.2-0.2-1-0.8-0.3l0.9,0.2c2.1,3.3,6.4,4.3,8.6,7.3
		C746.8,443.8,757.9,444.3,768.1,446.9L768.1,446.9z M159.9,813.2l-0.1-2.5l-0.4,0.1C159.5,811.6,159.7,812.4,159.9,813.2
		c0.4,3.6,1.1,7.2,2.4,10.6c5.7,18,12.3,35.5,25.3,49.8c0.8,0.8,1.6,1.6,2.5,2.3c0.4-1.4-0.8-2-1.4-2.8
		c-6.8-9.6-12.8-19.9-17.8-30.6C166.3,833.1,163.6,823,159.9,813.2z M934,565.9c0.1,0.3,0.1,0.6,0.2,0.9l0.5-0.3L934,565.9
		c-0.2-2-1.7-3.5-2.7-5.2c-13.6-21.7-31.2-39.7-51.4-55.3c-0.8-0.6-2.2-2.2-2.6-1.6c-0.6,1,1.2,1.6,2,2.3
		c18.9,15.9,36,33.6,50.3,53.9C931,562.1,931.8,564.5,934,565.9z M656,637c-2.2,0.3-3.8,1.9-5.7,3c-11.3,7-22.5,14.3-34.4,20.3
		c-6.3,3.1-12,6.1-16.2,12.8c-4.1,6.5-4.4,12.1-2.7,18.7c0.6,2.2,1.5,2.5,3.1,1.3c8.2-6.4,17.7-11.2,23.6-20.5
		c7.7-12.1,17.4-22.9,28.6-31.8C653.6,639.7,655.4,638.9,656,637c0.6,0.1,1.2-0.2,1.5-0.8c0-0.1-0.1-0.3-0.2-0.4L656,637z M191,618
		c-7.4,13-12.7,27-18.6,40.7c-8.1,18.8-15.1,37.6-13.3,58.8c1.2,14,0.4,28.3-0.5,42.4c-1.2,19.5-0.4,38.6,5.6,57.3
		c3.4,10.5,6.4,21.3,12.8,30.6l0.1,0.8l0.4-0.2L177,848c-0.3-1.3-0.6-2.6-1-3.8c-6.8-21.4-8.4-43.2-7.6-65.6
		c0.6-19.6,5-38.8,5.1-58.6c0-25,4.6-49.7,11.1-73.8C187.1,636.9,189.9,627.6,191,618l0.6-0.4l-0.4-0.3L191,618z M512,289
		c-3.1,1.9-4.5,5.2-7,7.7c-0.8,0.8-1.8,2.5-2.6,1.8c-1.3-1.1,0.2-2.4,0.9-3.4c2.8-3.9,5.7-7.8,8.5-11.7c6.2-8.3,11.3-17.3,15.3-26.8
		c1.3-3.1,0.7-4.4-3-4.6c-6-0.3-11.9-1.2-17.8-2.5c-7.3-1.9-13.7-1.7-19.3,4.1c-1.8,1.7-4,3-6.4,3.8c-3.6,1.2-5,3.7-5.8,7.2
		c-3.5,14.4-6.8,28.8-14.1,41.9c-1,1.8-2.4,5.6-3.4,4.9c-2-1.4,0.6-3.8,1.4-5.6c5.7-12.8,11-25.7,14.1-39.4c0.4-1.6,1.7-3.5,0.4-4.7
		c-1.5-1.5-3.4,0.4-5,0.9c-3.2,1-6.2,2.7-9.4,3.3c-10,1.9-15.6,8.6-20.2,17c-7.6,13.9-11.7,29-15.9,44c-3.1,11.2-5.9,22.5-6.1,34.3
		c0.1,0.6,0.2,1.3,0.3,1.9c0.3-0.5,0.6-1.1,0.8-1.7c0.8-3.4,1.9-6.8,2.2-10.2c1.1-11.9,7.9-21.3,13.1-31.5
		c4.2-8.1,8.4-16.3,12.6-24.4c0.6-1.2,1-3.6,2.8-2.7c1.5,0.8,0,2.7-0.7,4c-2.4,4.6-4.5,9.3-7.4,13.6c-13.5,20.2-13.7,43.3-14.4,66.2
		c0,1.1-0.2,2.8,1,3.1c1,0.3,1.3-1.2,1.6-2.1c7.8-18.5,20.7-32.3,38-42.4c6.3-3.5,12-7.9,16.9-13.3c5.2-5.9,10.7-11.4,16.7-16.5
		C505.7,301,509.3,295.3,512,289l1.2-1.3l-0.5-0.3C512.5,288,512.2,288.5,512,289z M541,507c3.1,4.9,7.2,8.4,13.3,8
		c2.5-0.2,6.8,1.4,7-2.2c0.3-3.4-3.2-5.7-6.6-6.4c-2.3-0.4-4.6-0.5-6.9-0.2C545.5,506.3,543.2,506.7,541,507c0-0.6-0.1-1.5,0.3-1.8
		c6.3-5,19.2-1.8,22.5,5.6c1.6,3.5,2.9,7.1,6.2,9.4c3.1,2.3,5.7,5.2,7.6,8.5c6.8,10.6,16.2,19.2,27.4,24.9c13.6,7.3,13,8,17.9-7.2
		c6.7-20.7,15.1-40.2,31.3-55.5c2-1.9,2-3.5,0.5-5.7c-2.9-4.4-5.4-9.2-7.4-14.1c-5.9-14.5-13.6-28.2-22.8-40.9
		c-3.9-5.4-8-10.8-10.5-16.9c-2.2-5.2-5.7-7.4-10.9-8c-11.9-1.5-23.7-3.5-35-7.7c-2.6-1-6.3-2.3-8.5,1.3c-3.7,5.9-7.4,11.9-12,17.1
		c-2.6,2.9-1,4.4,1.7,4.7c8.7,1,17.5,1.7,26.1,3.6c0.6,0.1,1.2,0,1.7-0.3c0-0.8-0.8-0.9-1.4-1.1c-5.6-2.1-10.8-5.3-15.3-9.2
		c-0.8-0.7-2.2-1.6-1.1-2.8s2.1,0.2,2.9,0.9c6,5.3,13.3,9,21.1,10.8c1.2,0.3,3.3,0.3,3.2,1.8s-2.3,1.5-3.7,1.6
		c-10.6,0.7-21.3-0.3-31.7-2.8c-8.6-2-12.8,2.2-11,11.1c0.9,4.4,2.1,8.7,3.1,13.1c0.5,2.2,0.8,4.4,3.8,4.3c3.1-0.1,6.8,1.5,8.7-2.7
		c0.8-1.8,2.4-3.7-1.1-4.4c-0.8-0.2-1.7-0.6-1.4-1.7s1.2-0.9,2-0.9c6.2,0,12.3-0.2,18.5-0.1c3.1,0.1,6.4,1,7.5,4
		c1.4,3.7,3.6,3.4,6.5,2.9c8-1.5,15.6-0.7,22.4,4.1c1,0.7,2.9,1.2,1.7,2.9c-0.8,1.2-2.1,0.3-3-0.5c-6-5.1-13.2-5.3-20.4-4.1
		c-13.6,2.2-27.5,3.2-41.3,2.9c-4.3,0-8.6-0.9-12.8,0.8c-4.5,1.7-6.1,5.1-5.3,9.8c1,5.9,5.2,7.2,10,8c8.6,1.4,17.7,0,25.8,4.6
		c1.5,0.9,2.4-0.4,3-1.7c0.2-0.8,1.1-1.3,1.9-1.1c0.2,0.1,0.4,0.1,0.5,0.3c1.7,1,0.4,2.1-0.2,2.9c-1.7,2.2-4.3,3-7,3.5
		c-8,1.3-16.2,2.4-23.6,6.1c-6.7,3.3-7.7,7.5-3.6,13.7C537.3,503.2,538.7,505.5,541,507z M217.9,549.8c0.3-0.4,0.6-0.8,0.9-1.2
		c0.6-1.1,0.9-3.2,2.4-2.6c1.9,0.7,0.6,2.5,0.2,3.8c-1.7,5.6-1.9,11.5-3,17.2c-0.5,2.7,0.9,5.7-1.3,8.2c-2.3-2.4-0.9-5.4-1.3-8
		c-0.1-0.5,0.5-1.5-0.6-1.5c-0.3,0-0.7,0.6-0.9,1c-0.4,0.9-0.8,1.8-1.2,2.7c-11.9,28-21.3,57.1-28,86.8c-4.6,20.8-9.2,41.7-8.6,63.2
		c1,31.5,7,62.6,18,92.2c7.4,20.3,18.7,38.2,32,55.4c14.4,18.6,23.3,40.7,24.5,64.9c0,0.9-0.6,2.2,0.5,2.7s1.2-0.8,1.6-1.5
		c9.9-17.2,12.3-35,3-53.2c-5.7-11.4-13.9-21.3-24.1-29c-15.2-11.4-24-26.7-29.4-44.6c-8.9-29.5-6.8-59.2-2.3-89
		c2.6-16.9,7.4-33.4,11-50.1c3.5-16.4,6.7-32.9,11.6-49c1.1-3.5,1.1-7.2,0-10.7c-4.1-13.1-4.2-27.2-0.3-40.3
		c0.9-3.9,2.2-7.7,3.9-11.3c5.9-11.9,6.5-24.5,5.8-37.5c-1.1-17.6-1.2-35.3-1.9-52.9c-0.9-23-3.3-45.8-3.6-68.8
		c0-3.7-0.2-7.3-0.4-11c-0.1-0.6-0.4-1.3-0.7-1.8c-1,0.4-0.6,1.3-0.7,2c-4.4,24.9-8.6,49.8-13.9,74.5c-3.3,15.6-6.9,31.2-10.3,46.8
		c-0.2,0.9-0.3,1.9-0.4,2.9c1.3-0.4,1.3-1.7,1.7-2.6c0.3-0.6,0.5-1.2,0.8-1.8c0.6-1.3,1.3-3.6,2.8-2.9s0.2,2.7-0.4,4
		c-9,19.2-15.7,39.2-23.7,58.8c-9.5,23.3-15.6,47.6-21.9,71.9c-4.6,17.6-0.2,35.7-6.2,53c-2.5,7.1-2.6,15-3.8,22.6
		c-0.1,1-0.1,2-0.1,2.9c0.5-0.8,0.9-1.7,1.2-2.6c9.3-31.8,21.4-62.7,36.2-92.4c23.5-47.6,38.2-97.4,42-150.4
		c0.1-0.8,0.4-1.5,0.7-2.2c1,0.7,0.7,1.7,0.8,2.6c0.6,12.1-2.1,23.8-3.8,35.7c-2.1,14.7-5.7,29-8.7,43.5l-0.2,0.8L217.9,549.8z
		 M479,255c-1.1,0.2-2.3,0.4-3.4,0.8c-32.7,10.9-65.6,20.8-99.6,26.9c-9.7,1.7-19.4,3-29.1,4.5c-0.6,0.1-1.7,0.5-1.9-0.7
		c0-0.2,1-0.6,1.6-0.8c0.8-0.3,1.6-0.5,2.4-0.6c22.6-3.7,45.2-7.8,67.3-14.1c23.4-6.7,46.9-12.9,69.5-21.8
		c7.3-2.9,14.4-4.6,21.7-2.4c8.6,2.6,17.2,2.6,26.1,2.2c6.9-0.3,12.4-4.1,18.7-5.5c0.8-0.2,2.1-0.9,1.9-2c-0.3-1.3-1.6-0.7-2.5-0.7
		c-16.8,0.5-33.6,0.4-50.4,1.5c-35.9,2.4-72,0-107.3-6.9c-29.7-5.9-59-13.2-87.7-23.1c-15.1-5.2-28.9-11.8-40.1-23.2
		c-6.5-6.6-12.9-13.5-19-20.5c-1.9-2.2-2.9-2.7-5.5-1.1c-6.4,3.9-13,7.4-19.6,11c-4.8,2.6-9.6,5.5-13.1,9.8c-1.7,2-3.8,3.7-6,5.1
		c-8.9,6.1-16.7,13-19.5,24.2c-2.2,8.6-2.9,17.4-2.2,26.2c0.5,5.2,2.6,10,5.9,14.1c5.1,6.6,13.6,8.1,19.6,13.3
		c5.3,4.6,12.8,3.7,18.6,6.5c8,3.9,16.4,5.1,24.7,7.3c16.2,4.3,32.8,7.3,49.5,8.7c17,1.4,33.4-2.3,50-4.5
		c40.7-5.2,80.5-14.2,118.9-29.1C472,258.5,476,257.8,479,255l0.9-0.1l-0.2-0.4L479,255z M568,353c-7.3,7.4-14.8,14.8-22,22.3
		c-2.9,3-6.1,5.7-9.4,8.1c-0.9,0.6-2.2,1.9-3,1c-1.2-1.3,0.6-2.3,1.4-3.2c9.6-10.8,15.7-23.4,20.4-36.9c0.3-1,1-2.2,0.1-2.8
		c-2.9-2.1-6.5-0.9-9.7-1.3c-2.2-0.3-2.2,1.5-2.7,2.9c-2.2,7-4.7,14-9.9,19.4c-5.9,6.2-13.4,9.5-22,8c-7.2-1.3-9.1-7.4-10.9-13.5
		c-0.7-2.5-0.4-3.7,2.3-4.1c1.2-0.2,3.1-0.3,2.8-2.1c-0.2-1.4-1.8-2-3.2-1.8c-3.5,0.5-4.5-1.3-4.3-4.3c0.1-2.1-0.7-2.3-2.3-1
		c-2.3,1.9-4.8,3.7-7.2,5.4c-0.9,0.6-2.1,1.8-3,0.5s0.7-2,1.6-2.6c5.9-4.3,11.4-9.2,16.5-14.5c8.2-8.7,14.1-19,19.3-29.6
		c7.2-14.7,12.7-30,15-46.3c0.2-1.7,1.2-4.2-2-4.7c-2.7-0.5-4.3,0.5-5.3,3.2c-2.1,5.8-4.3,11.5-6.7,17.2
		c-3.8,9.1-7.5,18.5-14.4,25.6c-15.4,15.6-29.8,32.3-49.1,43.7c-15.2,9-24.6,23.1-31.2,39.2c-0.5,1.2-1.3,2.4-0.9,3.8
		c0.2,0.6,0.9,1.5,0,1.7c-0.5,0.1-1.6-0.6-1.8-1.2c-1.3-3.1-1.8-6.4-1.7-9.7c0.5-12,1.1-23.9,1.7-35.9c0-1,0-2,0-3
		c-1.5,0.4-1.4,1.8-1.7,2.8c-0.6,2.1-1.2,4.2-1.6,6.3c-2.3,10.2-4.6,20.4-6.9,30.6c-0.2,0.7,0.1,1.7-1,2c-0.2-0.8-0.4-1.5-0.4-2.3
		c-0.4-15.5,1.5-30.9,5.6-45.8c0.9-2.5,1-5.2,0.4-7.8c-1.3-5.3-2.1-10.7-3.1-16.1c-0.2-1.2-0.4-2.9-1.4-2.9c-1.4,0-1.1,1.8-1.1,2.9
		c-0.4,6.3-0.9,12.6-1.1,18.9c-0.4,12.6-0.7,25.3-1,38c0,1,0.6,2.6-1,2.9c-1.5,0.2-1.7-1.4-2-2.4c-3.2-9.8-7.2-19.4-7.9-29.8
		c-0.1-2-0.5-3.8-2.9-3.9c-2.1-0.1-2.6,1.6-3,3.4c-0.9,4.2-2.5,8.3-4.8,12c-8.5,13.6-22.8,15.1-34.8,4.6c-6.9-6.1-6.8-14.6-9.7-22
		c-1.2-3-0.6-6.6,0.8-9.8c0.3-0.8,0.4-1.9-0.4-2.2c-1-0.4-1.3,0.8-1.6,1.5c-0.8,1.6-1.4,3.4-1.9,5.1c-1.8,9.6-6.1,19.5,3.1,28
		c0.9,0.8,2.1,2.4,1.2,3.4c-1.1,1.2-2.5-0.2-3.4-1c-3.8-3.4-4.7-1.9-5,2.4c-0.6,7.8-0.7,15.6-0.2,23.5c0.3,6.2-0.3,12.7,3.7,18.3
		c13.2,19,28.6,36,47.7,49.3c11.4,8,24.2,13.2,36.6,19.2c10.8,5.2,20.5,3.8,30.8,0.4c5.7-1.9,11.4-3.8,17-5.8
		c29.8-10.3,55.2-27,74.8-52c5.5-6.9,9.8-14.7,12.6-23.1c0.3-0.9,0.9-2-0.1-2.7c-0.3-0.2-1.4,0.7-2,1.1c-4.9,3.5-9.7,7-14.6,10.5
		s-10.6,5.6-15.9,8.3c-0.8,0.4-2.3,1-2.7,0.1c-0.7-1.5,1.1-1.6,2-2.2c2.5-1.4,5.1-2.6,7.4-4.1C552.4,385.4,563.9,371.9,568,353
		c0.2-0.2,0.9-0.1,0.3-0.7L568,353z M471,239.1c11.8,0,23.6,0.4,35.5-0.1c25.1-0.9,50.3,0.6,75.1-5.1c18-4.1,36.1-7.4,54.2-11.2
		c2.8-0.6,5.8-0.9,7.5-4.1c4.6-8.5,4.6-13.6-1.6-20.9c-5.5-6.4-5.1-13.1-2-20c1.8-4,1.2-6.7-2-9.2c-3-2.2-4.8-5.7-4.7-9.4
		c-0.1-11-0.1-21.9-0.9-32.9c-0.7-9.4-4.3-16.7-13-20c-8.6-3.3-15-9.2-20.8-15.8c-13.3-15.4-29.4-26.9-47.5-36
		c-10.5-5.1-20-12.1-28-20.5c-6.8-7.2-15.1-12.5-23.3-17.9c-2.9-1.9-6.3-3.2-9.7-3.7c-11-1.4-22.1-2.2-33.2-2.2
		c-10.1-0.1-19,2.4-27.2,8.1c-5.5,3.8-10.9,7.6-16.6,11.1c-12.3,7.5-26,10.6-40,13.2c-6.4,1.2-12.2,0.8-17.9-2.2
		c-6.7-3.5-13.9-5.3-21.2-7c-15.5-3.6-27.4,1.5-36.7,13.8c-3.4,4.4-5.5,9.5-7.9,14.4c-9.7,19.1-18.8,38.5-29.4,57.2
		c-6.3,11.1-12.3,21.8-11.2,34.9c0.4,4.6-2.7,9.3,1.4,14.1c16.8,19.6,35.2,36.4,61,43.7c14.9,4.2,29.4,9.6,44.5,13.1
		C393.2,233.4,431.4,241.7,471,239.1z M378.8,729.6c0.5-4.7,0.6-10.1-2.8-14.7c-3.3-4.4-6.2-9.1-8.6-14c-0.6-1.2-1.1-3-2.5-2.8
		c-1.6,0.3-1.2,2.3-1.4,3.7c-0.8,7-2.3,9.3-8.4,9.7c-19.5,1.3-38.1-1.2-53-15.4c-13.8-13.3-27.2-26.9-38.3-42.6
		c-1.1-1.6-2.1-3-4.5-3.4c-1.9-0.3-2.8-0.8-2,1.5c3,9.6,4.2,19.5,6.4,29.2c2.4,10.9,4.6,21.8,6.9,32.7c0.2,1,0.6,2.4-0.3,2.7
		c-1.6,0.5-1.7-1.3-2-2.2c-0.8-2.4-1.3-4.8-1.9-7.2c-4.5-17.2-7.2-34.8-10.2-52.4c-1-6-3-11.4-4.9-17c-0.2-0.7-0.4-1.8-1.5-1.7
		s-0.8,1.3-0.7,2.1c0.1,2.7,0.2,5.3,0.6,8c0.8,6.7,4.6,12.5,5.4,19.2c1.8,13.3,3.5,26.7,4.9,40.1c3.9,38.4,7.5,76.8,16.9,114.4
		c1.8,7.8,5.1,15.1,9.8,21.6c6.7,9.1,15.3,16.2,24,23.3c16.5,13.3,34,25.3,49.3,39.7c13.4,12.6,29.1,20.7,44.8,29.4
		c3.5,1.9,6.1,1.3,8.5-2c12.5-17.5,24.6-35.3,33.4-55c2.7-6,7.7-11.4,7.2-18.8c-0.2-2.6,0-5.5-2.6-6.5c-3.9-1.6-5.1-4.8-6.6-8.2
		c-1.6-3.9-3.5-7.6-5.8-11c-16.3-23.5-32.4-47.2-49.3-70.3C382.5,752,378.5,742,378.8,729.6L378.8,729.6z M704.2,660.5
		c-0.1-15.4-0.4-28-2-40.6c-0.2-1.5,0.3-3.8-2.3-3.6s-1.7,2.5-1.6,3.9c0.7,11.6-1.5,22.9-3.6,34.2c-8.1,42.7-23.3,83.2-39.5,123.3
		c-0.6,1.5-1.4,3-2.2,4.5c-8.4,15.3-15,31.5-21.3,47.7c-4.5,11.8-8.5,24.2-9.2,37.1c-0.1,1.2,0.2,3.1-1.7,2.9s-1.9-2.1-1.7-3.6
		c0.7-4.1,1.5-8.2,2.3-12.3c4.1-19.9,12.9-38.1,21-56.5c21-47.8,39.2-96.5,50-147.7c2-9.6,4-19.2,3.4-29.2c-0.2-3.4-0.6-5-5-3
		c-12.6,5.5-24.2,13.1-34.2,22.6c-11.5,10.9-22.9,21.7-31.6,35.1c-6.1,9.3-15.7,14.7-24.5,20.9c-2.2,1.6-4,0.6-5.3-1.7
		c-3.9-7.5-3-15.4,2.4-22c0.9-1.1,2.7-2.5,2-3.7c-0.9-1.6-2.7-0.1-4,0.3c-3.4,1.2-6.7,2.4-6.6-3.3c0-0.7-0.4-1.5-1.1-1.2
		c-0.5,0.2-0.8,1-1,1.6c-1,4.2,0.2,8.2,1.1,12.3c4.5,20.5,7.3,41.2,6.7,62.4c-0.2,8-1.6,15.9-2.6,23.8c-0.1,0.9-0.3,2.4-1.4,2.3
		c-1.3-0.1-0.9-1.5-0.9-2.4c0.2-3.5,0.5-7,0.8-10.5c0.8-8.1,2.5-16.2,0.6-24.3c-0.2-0.8-0.4-2.2-0.6-2.2c-1.3,0-1.3,1.3-1.5,2.2
		c-1,5.4-2.6,10.6-4.8,15.7c-12.3,27.3-22.5,55.5-30.4,84.4c-1.6,5.8-1.2,12,1,17.6c6.6,17.6,17.8,32.3,29.4,46.7
		c2.6,3.2,4.3,7.9,8.2,9.1c3.6,1.2,6.8-2.7,10.3-4.2c32.8-13.9,61.7-33,84.1-61.2c3.1-3.9,4.5-7.8,3.8-12.9
		c-1.5-10.2-1.9-20.5,0-30.8C698.4,750.1,703,705.4,704.2,660.5L704.2,660.5z M487.8,683.9c-0.4-8.1,0.7-16.4-1.7-24.3
		c-6.4-21.4-17.8-40.2-32.4-56.8c-16.1-18-33.3-35.1-51.4-51c-8.3-7.4-16.5-14.9-24.9-22.2c-7.3-6.3-12.2-15.3-15.6-24.7
		c-0.4-0.9-0.8-1.8-1.3-2.6c-0.5,0.9-0.8,1.8-1.1,2.7c-0.4,1.5-0.1,3,0.8,4.3c2.6,3.5,3.3,7.6,3.1,11.8c-0.3,6.8-0.6,13.6-1.1,20.5
		c-0.3,4.9-2.9,7.9-8,8.8c-4.3,0.8-8.6,0.4-13,0.7c-6.4,0.3-9.4,6.2-5.9,11.7c0.6,1,1.3,1.9,2.1,2.8c5.3,6.4,10.9,12.7,17.6,17.6
		c16.2,11.7,19.9,28.9,21.1,47c0.5,7,1.2,9.4,7.9,11.9c7.3,2.8,13.8,8,22.2,8.2c2.2,0,4.5,2,6.7,3.2c2.5,1.3,4.8,3.1,7.5,4
		c9.5,3.3,18.4,7.8,27.3,12.3c16,8.2,30.3,18.3,38.5,34.9c1.1,2.3,3.5,3.6,6,3.5c2.2,0.1,3.4-2.1,4.2-4.3
		c4.1-11.5,10.8-21.3,18.5-30.6c15.2-18.2,31.2-35.6,47.8-52.4c2.1-2.2,4.4-4.2,5-7.3c0.6-3.6,2.7-6,5.2-8.2c4-3.5,6-7.4,4.3-12.8
		c-1.5-4.8,0.5-8.1,5.4-9.5c3-0.9,6.3-2,7.5-4.6c3.2-7.2,8.5-13.1,12-20.1c1-1.9,0.7-2.9-1.1-4c-11.3-6.6-19.7-16-27.4-26.5
		c-4.3-5.9-9.2-13.1-18.9-9.9c-1,0.1-2,0-2.9-0.3c-10.1-2.1-14.5-10.4-19.6-18c-2.3-3.5-1.7-6.9,0.8-10.1c1.3-1.6,3.4-2.9,1.2-5.4
		c-1.5-1.7-2.3-4.1-3.7-5.9c-0.8-1-1.3,0.4-1.7,1c-9.1,14.7-17.9,29.6-24.4,45.6c-2.6,5.9-4.9,12-6.9,18.2
		c-3.5,11.9-6.8,23.9-8.6,36.3c-2.2,15-5.2,29.8-4.5,45.1c0.7,13.8,4.2,27.3,5.5,41c1.1,11.4,2.3,22.9,0.8,34.4
		c-0.1,1,0.3,2.7-1.4,2.6s-1.2-1.8-1.2-2.8C487.8,694.2,487.8,689.1,487.8,683.9z M789.1,709.8c0.2-9.5-0.3-19-1.5-28.5
		c-4.2-33.8-13.1-66.5-24.3-98.6c-9.8-28-23.4-54.3-33-82.4c-5.2-15.3-10.9-30.4-16.2-45.6c-2.7-7.9-6.4-14.7-14.5-18.5
		c-4.7-2.2-8.6-5.7-12.5-9.1c-1.7-1.5-3.5-3-5.3-4.5c-0.2,2.8,2.5,4,3.5,6.1c0.5,1.1,2.2,2.2,0.9,3.3c-0.8,0.6-1.9-0.9-2.7-1.8
		c-16.5-19.9-29.5-41.8-36.6-66.9c-3.1-11.1-4.2-22.5-5-34c-0.1-1.6,0.3-3.4-1.1-4.7c-1,1.2-0.6,2.7-0.8,4.1
		c-2.3,14.6-4.1,29.3-8.4,43.5c-0.4,1.2-0.5,3.4-1.9,3s-0.5-2.2-0.2-3.4c7.6-36.5,10.9-73.8,10.1-111.1c-0.2-9.8,0.2-19.6-1.8-29.4
		c-0.6-3.1-1.6-4.4-5.3-4.1c-21.6,1.9-41.8,9.5-62.5,14.9c-2.5,0.6-3.1,2.1-2.6,4.4c1.7,7.7,1.2,15.6,1.5,23.4
		c1.3,34.1-6,67.9-21.4,98.3c-0.3,0.7-0.5,1.4-0.7,2.2c1.1,0.2,1.3-0.8,1.8-1.4c6.7-8.3,12.2-17.6,16.1-27.5
		c10-26.2,14.9-54,14.5-82c0-0.9-0.5-2.3,1-2.2c1.3,0.1,1,1.5,1.1,2.4c0,6.7,0.3,13.3,0,20c-1,24.6-1.5,49.2-9.9,72.8
		c-3.7,10.5-6.5,21.4-15.4,29.1c-0.4,0.5-0.8,1-1.1,1.6c1,0.6,1.5-0.4,2.1-0.8c11.3-9.8,22.8-19.4,33.9-29.4
		c8.2-7.4,14.7-16.3,21.1-25.3c0.8-1.1,1.4-3.5,3-2.4c1.4,0.9-0.3,2.7-1,3.9c-2.4,4.8-5.5,9.2-9.2,13c-4.1,4-4.7,8.4-3,13.7
		c10.9,34.1,27.6,64.9,52,91.3c3.9,4.2,8.1,8.4,14.2,9.4c3.8,0.6,7.3,2.3,10.1,5c12.1,11.2,21.9,24,26,40.1
		c2.7,10.2,3.7,20.9,11.2,29.2c0.2,0.3,0.3,0.6,0.4,0.9c4.1,9.2,8,18.6,12.4,27.7c14.2,29.2,28.8,58.1,39.7,88.8
		c10.6,29.9,15.7,60.2,12.3,92c-3,29-15.7,53.7-31.9,77c-2.1,3-4.4,6.2-7.4,8.1c-14.2,8.7-28.1,17.8-43.9,23.6
		c-7.3,2.7-14.8,5-22.2,7.7c-4,1.4-7.4,4.2-8.8,8.1c-0.7,2,7.5,4.3,12.6,3.1c12.7-2.9,23.9-9,34.8-15.8c27-16.9,45.1-42,61.6-68.3
		c2-3.5,3.6-7.1,4.9-10.9C787.3,753.2,789.3,732.4,789.1,709.8L789.1,709.8z M261.1,333.9c0,3.2,0,6.3,0,9.5
		c0.3,22.7,2.1,45.2,6.9,67.4c0.2,0.9-0.1,2.3,1.1,2.5s1.3-1.1,1.7-2c3.4-9,7-18,10-27.1c4.6-14,8.8-28.3,13.2-42.4
		c0.4-1.2,0.6-3.6,1.5-3.2c1.5,0.6,0.2,2.5,0.2,3.9c-0.1,0.3-0.2,0.7-0.3,1c-5.5,24.4-13.3,48.1-23.2,71.1
		c-1.9,4.4-1.6,8.7-0.1,13.1c0.2,0.6,0.6,1.5,1,1.5c1,0.1,1.2-0.8,1.5-1.6c1.1-3.1,1.9-6.4,3.2-9.4c3.5-8,3-18,11.8-23.3
		c0.7-0.4,0.9-1.8,1.3-2.7c4.7-10.3,8.7-20.9,12-31.7c0.4-1.2,0.3-3.9,2.1-3.3c1.6,0.5,0.2,2.7-0.2,4c-2.2,8.2-4.9,16.3-7.9,24.2
		c-1.2,3.2-5,7.3-3.1,9.3c2.7,2.9,7.8,0.9,11.9,0.7c0.2,0,0.3-0.1,0.5-0.1c4-0.6,5.5-2.5,4.9-6.9c-2.9-19.2-2.9-38.5-1.5-57.8
		c0.1-1.7-0.3-5,1-4.8c2.3,0.4,1.2,3.2,1.1,5c-0.9,18.5,0.9,37,5.4,55c0.6,2.5,1.4,4.3,4.7,3.4s5.3,1.3,6.7,3.9
		c3.4,6.1,6.6,12.3,10,18.4c0.4,0.8,0.6,2,1.9,2c-0.1-0.8-0.2-1.6-0.3-2.4c-5.3-24.7-5-49.6-1.3-74.5c2-13.6,4.7-27.2,7.4-40.7
		c0.8-3.8-0.3-3.8-3.4-3.2c-6.7,1.1-13.5,2.5-20.3,2.6c-24.2,0.5-48.2-1.4-71.9-6.9c-3.4-0.8-7.1-3.2-10.1-1.8
		c-3.7,1.8-2,6.5-2.6,10c-7,36.1-9.7,73-8.1,109.8c1.4,33.3,4.6,66.4,11.4,99.1c2.3,11.2,4.5,22.5,8.7,33.3c0.2,0.6,0.1,1.9,1.3,1.6
		c0.3-0.1,0.5-1.1,0.6-1.7c0.5-4,3.3-5.4,6.3-3.7c4.3,2.3,3.8-0.2,3.7-2.8c-1-24.3,1.5-48.6,0.1-72.9c-0.5-7.1,1.8-14.1,6.5-19.5
		c2.6-2.9,3.5-7,2.4-10.8c-0.3-1.3-0.8-2.9-2.1-3.2c-1.7-0.4-1.8,1.6-2.3,2.7c-4.4,9-8.4,18.1-13.6,26.7c-0.6,1.1-1.3,3-2.7,2.4
		c-1.9-1-0.4-2.6,0.3-3.8c3.8-7.2,7.6-14.4,11.5-21.6c3.9-7.1,5.1-15.3,3.3-23.2c-4.6-22.2-7.1-44.8-7.5-67.4
		c-0.1-13.7,0.6-27.3,1.5-40.9c0.1-1.3-0.1-3.9,1.4-3.8c2.1,0.2,1.2,2.7,1.3,4.2c0.1,1.7,0,3.3-0.2,5
		C260.8,315.2,261.1,324.5,261.1,333.9L261.1,333.9z M590.1,650.1L590.1,650.1c0.1,0.8,0.1,1.7,0.1,2.5c0.5,11.2,2.7,12.7,13.1,8.9
		c0.6-0.2,1.2-0.5,1.9-0.7c9.2-3.7,17.2-9.3,25.8-14c13.4-7.3,27-14.3,40-22.3c8.2-5,16.4-9.4,25.9-11c4.7-0.8,7.5-3.5,7.8-8.3
		c0.7-12,1.4-23.9-0.3-35.8c-1.4-10.2-4.1-20.1-4.4-30.6c-0.6-20.5-5.5-39.5-21.9-53.8c-3.2-2.8-5.5-3.2-8.6-0.9
		c-6.5,4.8-13,9.8-18.6,15.8c-12.5,13.5-22.5,28.2-24.2,47.5c-0.6,5.7-3.3,11-7.4,14.9c-10.3,10-21.7,18.5-35.5,23.4
		c-3.7,1.3-5.3,3.7-3.5,7.8c0.8,2.3,1.5,4.8,1.8,7.2c3.2,13.9,4.5,28.3,11.5,41.1c0.5,0.9,1,1.9,0.4,2.8c-0.8,1.2-1.7,0.2-2.5-0.3
		c-1.3-1-1.8-0.5-1.7,0.9C589.9,646.8,590,648.5,590.1,650.1L590.1,650.1z M528.2,770.9c-0.4-4.2-0.9-8.8-1.2-13.5
		c-0.2-3.4-2.4-4.1-5.1-3.9c-5.3,0.4-8.7,3.9-9.6,10.4c-1.4,8.4-2.2,16.8-2.2,25.3c0,1.2,0.5,3.2-1.2,3.2s-1.2-2-1.2-3.2
		c-0.1-8.8,0.5-17.6,1.8-26.3c0.2-1,1.4-2.8-0.8-3.1c-3.9-0.4-9.1,5.9-8.4,9.8c0.4,2.3,2.5,4.3,1.3,6.9c-2.7-1.4-3.1-4.2-4-6.6
		c-1.4-3.5-3.6-5.5-7.2-5.9c-2.3-0.3-3.6,0.2-2.4,3c1.4,3.2,2.4,6.5,3.5,9.8c0.2,0.7,0.8,1.7-0.5,2c-0.4,0.1-1.1-0.6-1.4-1.1
		c-1.6-3.6-3.2-7.3-4.8-11c-0.4-0.8-0.4-2.2-1.7-1.8c-0.2,0.1-0.2,1.5-0.1,2.3c1.3,10.6,2.5,21.1,3.8,31.7
		c0.8,6.1,1.5,12.2,2.3,18.3c0.2,1.5,0.2,3.3-1.9,3.3c-1.8,0-1.1-1.7-1.2-2.7c-1.3-9.2-2.6-18.4-3.8-27.7c-0.3-2-0.4-4.1-0.6-6.2
		c-1.1,2.1-1.1,4.4-1.3,6.7c-2.1,24.2-2.5,48.5-3.7,72.8c-0.1,2.8,0.3,5.7,1.3,8.3c9.2,25.4,19.2,50.3,33.2,73.6
		c7.2,11.9,15.1,23.5,19.9,36.8c1.2,3.3,3.1,6.3,4.8,9.3c1,1.8,2.1,3.5,3.4,0.1c6.9-17.9,16.9-34.3,24.7-51.8
		c3.8-8.3,4.5-17.6,2-26.3c-6.1-23-12-46-18.2-69c-4.8-17.6-8.2-35.7-15.3-52.6C529.3,785.4,527.2,778.8,528.2,770.9z M344.2,709.1
		c3.8,0,6.1,0,8.4,0c6.4-0.2,7.8-1.6,8.3-7.9c0.2-2.8,0.6-5.6,1.2-8.4c3.9-16.3,6.9-32.9,9.1-49.5c0.3-2.1-1.9-3.9-0.6-5.5
		c4.8-6.1,2.9-12.6,1.5-19.1c-0.2-1.1,1.5-6.9-3.7-3.2c-0.2,0.2-1.1-0.5-1.7-0.9c-9.4-6.2-19.8-10.1-30.1-14.4
		c-6-2.5-12-4.9-17.1-9.2c-4.9-4-10.2-7.6-15.6-10.8c-11.6-7.1-23.2-14.4-34.9-21.4c-5.6-3.4-8.2-8-7.6-14.5c0.2-1,0.1-2-0.1-3
		c-0.8-2.4-2.6-4.2-5-4.2c-3.1,0-2.1,2.9-2.2,4.6c-0.6,19.1-2.9,38.1-1.1,57.3c0.6,6.4-0.7,12.9-1.5,19.4c-0.8,6.8-0.2,13,4.1,18.9
		c7.4,10,13.6,20.7,22.6,29.6c7.3,7.2,13.9,15.2,21,22.7C311.8,703.3,327.4,709.3,344.2,709.1L344.2,709.1z M298.9,419.5
		c-0.1-1.7-0.3-3.9-0.3-6c0-1-0.5-2.7,1-2.9s1.7,1.4,1.8,2.5c0.2,4.4,2.5,3.6,5.3,2.3c6.5-3,13.2-5.5,17.8-11.5
		c0.6-0.8,1.2-1.8,2.4-0.9c0.8,0.7,0.3,1.5-0.2,2.2c-0.6,0.8-1.1,1.6-1.8,2.4c-3.1,3.6-2.7,5.3,2,6.9c2.2,0.7,4.5,0.9,6.8,1.5
		c2.8,0.7,3.4-0.2,2.1-2.7c-3-6.1-6-12.2-9.1-18.3c-1.8-3.5-4.1-4.3-7.6-2.1c-5.1,3.1-10.8,4.1-16.7,4.6c-14.8,1.4-14-2.3-19.2,15.2
		c-3.4,11.7-7.1,23.3-15.7,32.5c-1.3,1.4-2,3.2-1.9,5.1c1.1,13.5-2.1,26.8-0.8,40.3c1.5,16.7,0.2,33.6-0.8,50.3
		c-0.5,8.1,2,13.2,9.1,17.6c17.4,10.5,35.2,20.2,51.2,32.9c4.1,3.2,9.1,4.7,13.9,6.8c3.5,1.6,3.9,0,3.8-3
		c-0.3-7.1-1.4-14.2-4.7-20.3c-5.5-10.1-7.4-20-2.3-30.7c0.5-1.2,1.4-3.1,0.4-3.7c-1.4-0.8-2.5,1-3.7,1.8c-0.9,0.7-1.9,2-2.9,0.9
		c-1.3-1.4,0.5-2.3,1.4-3c5.9-4.6,12.5-8.4,19.4-11.2c1.3-0.5,3.2-2,3.9-0.2s-1.7,2.1-3,2.5c-3.8,1.3-3.8,3-0.9,5.4
		c1.4,1.2,2.9,2.3,4.2,3.5c0.7,0.6,1.9,1.3,0.9,2.4s-1.9,0.1-2.6-0.5c-2.1-1.6-4.1-3.4-5.9-5.3c-1.8-2.2-3.5-2-5.5-0.5
		c-1.5,1.1-4.1,9.8-3.3,11.4c0.4,0.8,1.3,1.2,2.1,1c4.6-0.2,9.3-0.3,14-0.7c3.7-0.3,5.8-2.6,6-6.2c0.5-7.3,1.3-14.6,1.2-21.9
		c-0.1-8.9-1.9-9.8-10.5-8c-11.6,2.4-22.3,7.5-33.6,11.1c-3,1-5.9-0.2-6.5-2.2c-0.8-2.6,2.1-0.3,3.1-1c0.4-0.3,0.7-0.6,0.8-1.1
		c0.6-3.4,2.4-7.2,1.4-10.2c-1.1-3.6,0.7-3.7,2.7-4.8c9-5,18.6-9,25.9-16.7c0.5-0.5,1-1,1.7-0.6c0.4,0.3,0.6,0.7,0.6,1.2
		c-1.2,3.6,1.1,7.4-0.6,11.1c-1.1,2.4,0.1,5.2,0.9,7.8c0.5,1.7,1.4,3.2,3.5,2.6c2.4-0.7,6,0.4,6.5-3.2c0.7-4.6,2.9-8.5,4.8-12.5
		c1.5-3.2,1.5-6.3-1.1-8.8c-5.2-5-9.2-11-13.5-16.7c-1.5-2-2.8-2.7-5.3-1.2c-11.3,6.8-23.1,12.6-35.4,17.3
		c-8.5,3.4-14.3,8.9-15.9,18.2c-0.5,2.6-1.7,5.1-3.4,7.1c-0.4,0.5-1,1.1-1.7,0.6c-0.6-0.3-0.9-1.1-0.6-1.7c0.1-0.1,0.2-0.3,0.3-0.4
		c2.9-3.8,3.3-8.6,5-13c1.3-3.4,3.2-6.5,6.3-8.1c5.3-2.8,8.9-6.4,8.7-12.7c0.1-0.5,0.2-1,0.4-1.4c0.1-0.5,0.5-1.1,0.3-1.4
		c-0.6-0.7-1.1,0.1-1.6,0.3c-1,0.4-2,2-2.9,0.5s0.9-2.3,1.8-3c5.8-4.8,10.5-10.7,14.9-16.8c3.4-4.7,6.8-9.5,10.1-14.2
		c0.6-0.9,1.3-2.7,2.5-1.8c4.5,3.5,9.3,2,13.6,0.7c5.2-1.5,7.7,0.3,9.6,4.7c2.1,4.6,5.6,7.3,10.9,7.4c2.1,0.1,4.3,0.4,6.4,0.7
		c0-2.5-2.5-3.1-3.4-5c-3.7-7.3-7.6-14.4-11.1-21.8c-1.6-3.2-3.6-4.5-7.1-3.7c-7.4,1.8-14.4,0.8-21.5-1.7c-7.5-2.6-11.1-1-14.8,6
		c-4.8,9.2-11.5,17.1-17.2,25.7c-1,1.3-2.3,2.4-3.6,3.4c-0.6,0.5-1.6,0.9-2.2,0.1c-0.2-0.2,0.2-1.2,0.6-1.6
		C298.3,442,298.6,431,298.9,419.5z M362.5,451.2c-0.7,0.1-1.7,0.2-2.7,0.4c-7.4,1.1-13.6,5.1-20.4,7.8c-1.2,0.5-4,0.3-3,2.8
		c0.9,2.1,2.6,3.2,5.2,1.5c3.1-1.9,5.4-0.9,7.5,2.1c3.9,5.6,8.1,11,12.6,16.2c3.3,3.8,4.5,7.6,2.5,12.3c-0.8,1.7-0.8,3.6-0.1,5.4
		c4.9,10.6,9.4,21.4,17.7,29.9c3.4,3.5,7.5,4.8,12.3,3c4-1.6,8.3-2.6,12.6-3c13.5-0.9,26.2-4.2,36.9-13.1c0.8-0.6,1.7-1,2.6-1.5
		c11.6-7,23-8.2,34.3,0.7c1.2,0.8,2.6,1.6,3.9,2.2c7.8,4.3,19.1,1.6,22.6-6.5c5.2-12.2,12.1-23.3,19.2-34.4c2-3,2.4-6.7,1.1-10
		c-3-8.8-0.1-14,9-15.1c3.9-0.5,5.1-1.4,3.1-5.1c-0.4-0.9-0.7-1.9-0.9-2.9c-0.8-3.1-2.1-4.5-5.7-3.1c-5.5,2-11,3.7-16.6,5
		c-4.6,1.1-8.4,3-10.8,7.3c-0.5,0.8-1.1,2.2-2.1,1.9c-1.2-0.4-0.7-1.7-0.3-2.6c1-2.5,0.3-2.8-1.9-1.6c-16.2,9-33.8,13.9-51.3,19.3
		c-4.3,1.4-8.8,2.9-13.2,0.9c-11-5.1-22.8-8.3-33.5-14.1c-7.5-4-14.7-8.6-21.5-13.7c-1-0.7-1.9-2.5-3.2-1.6
		c-1.1,0.7,0.2,2.1,0.5,3.2c0.1,0.3,0.2,0.6,0.3,1c0.4,1.1,1.2,2.5,0,3.1s-2-0.8-2.6-1.8c-0.4-0.7-0.6-1.6-1-2.3
		c-0.7-1.2-0.7-3.8-3.2-2.2s0.1,2.7,0.6,3.9c0.3,0.6,0.7,1.1,1.1,1.7c0.8,1.2,1.3,2.5,0.5,3.7s-2.4,0.9-3.6,0.7L362.5,451.2z
		 M950.9,723.2c0-10.2-1.3-20.3-3.7-30.2c-12.7-51.6-38.5-96.1-74-135.2c-28.4-31.3-60.7-58.4-93.1-85.4c-13-10.9-26.6-21-38.9-32.7
		c-3-2.9-6.1-5.6-9.4-8.2c-8.7-6.7-18.7-12.3-25.5-20.6c-25-30.3-48.5-61.9-62.1-99.4c-0.3-1,0-2.5-1.6-2.8
		c-0.1,1.1-0.2,2.2-0.2,3.3c0,8.7,0.6,17.3,1.7,25.9c4.3,33.1,17,62.2,42.2,84.8c12.2,10.9,25.9,20,39.8,28.7
		c7.8,4.9,14.4,11.3,22,16.4c37.5,24.9,75.2,49.4,108.3,80.2c6.5,6,13.8,11.1,19.8,17.5c9.8,10.6,16,23.7,22,36.7
		c14.9,32.4,23.1,66.6,25.4,102.1c1.3,20.6,2.4,41.3-2.6,61.7c-8.3,34.1-26.5,59.7-62,69.7c-0.8,0.3-1.6,0.7-2.3,1.2
		c1,0.1,2,0,3-0.1c23-4.2,42.7-14.2,58.4-32C938.7,781.3,950.8,754.7,950.9,723.2L950.9,723.2z M948.1,621.5
		c0-20.1-6.5-36.4-16.2-51.4c-32-50.1-77.2-84.4-131.1-107.8c-12.2-5.2-24.9-9.4-37.8-12.5c-1.7-0.4-4.1-1.6-5,0
		c-0.8,1.5,1.8,2.4,2.9,3.4c6.6,5.6,13.4,11,20,16.5c42.3,35.1,85.4,69.4,117.4,115.1c4.3,6.1,10,11.4,13.6,17.9
		c9.1,16.2,18.2,32.5,25,49.9c0.5,1.2,0.8,3,2.2,3c1.8,0.1,2-2,2.6-3.2C946.3,641.9,947.8,630.9,948.1,621.5L948.1,621.5z
		 M825.9,658.4c0.4-8.5-1.2-16.9-2.6-25.2c-7.6-46.3-25.7-90.3-53-128.5c-14.3-20.1-27.8-41.4-50.9-53.2c-1.1-0.5-2-2.4-3.3-1.3
		s0,2.5,0.5,3.6c7.7,21.4,14.9,42.9,23.2,64.1c11.8,30.2,26.5,59.3,43.7,86.8c11.7,18.8,24.7,36.8,35.5,56.1c1.9,3.5,3.7,7,5.5,10.5
		C826.3,667.2,825.6,662.7,825.9,658.4z M691.7,809.9c0.5,5.1,0.9,10.3,1.4,15.4c0.1,1.1-0.4,2.6,0.9,3.2c1.6,0.7,2.3-0.8,3.2-1.7
		c7.7-7.8,14.3-16.7,19.5-26.3c19.2-35.2,22.7-73.3,19.6-112.3c-2.5-32.4-9.8-64-17.7-95.5c-1.2-5-2.2-10-4.9-14.5
		c-0.7-1.1-0.9-3.1-2.3-3s-1.2,2-1.6,3.3c-0.9,4.1-1.2,8.3-0.8,12.4c0.6,7.3-0.2,14.7-2.3,21.7c-1.6,5.3-1.8,11.1-1.5,16.8
		c0.5,9.3,1.2,18.6,1.4,27.9c0.3,15.6-0.6,31.3-1.8,46.9c-1.8,23-3.8,46.1-7.5,68.9C695.5,785.2,691.6,797.2,691.7,809.9z
		 M462.2,513.2c-2.5,0.2-5,0.8-7.4,1.9c-6.2,2.4-12.2,5.3-17.9,8.8c-6.5,4.1-13.8,6.8-21.4,7.9c-7,1.1-14.2,1-20.3,6.2
		c-2.4,2-1.3,2-0.1,3.2c14.9,14.6,29.6,29.3,44.6,43.7c11.9,11.3,23.7,22.5,31.2,37.3c3,5.8,6.4,11.3,9.7,16.9
		c0.5,0.9,0.9,2.7,2.1,2.3c1.5-0.4,0.4-2,0.3-3c-0.6-6.5-1.7-12.9-2-19.4c-0.9-21.2,4.5-41.6,9.3-62c2.4-10,6.2-19.6,9.4-29.5
		c0.4-1.3,2-3.9-1.2-3.4c-10.5,1.6-18.4-4.5-27.1-8.4C468.6,514.5,465.8,513.3,462.2,513.2z M793.3,433.7c7.9-0.3,16.9-0.7,25.7-2.7
		c1-0.2,2.9,0.2,2.8-1.3c0-1.2-1.9-0.8-2.9-1c-17.4-3.1-34.4-8-50.8-14.6c-13.8-5.6-27.5-11.4-37.8-22.6c-8.9-9.7-18-19.2-26.6-29.1
		c-18.9-21.9-35.8-45.1-48.3-71.4c-5.9-12.4-8.5-25.9-12.5-38.9c-0.2-0.8,0-1.7-1.1-2c-0.2,0.8-0.3,1.5-0.3,2.3
		c0.2,7.5,0.2,15,0.8,22.5c1.8,25.6,8.1,49.8,21.7,71.9c6.5,10.6,14.8,20,20.8,31.1c4.5,8.4,11,15.8,16.6,23.7
		c5,6.9,11.7,12.4,19.4,16.1C743.3,429,767.4,433,793.3,433.7L793.3,433.7z M840.6,744.1c0-12.1-3.7-32.6-9.5-48.5
		c-0.3-0.7-0.2-2.1-1.1-2c-1.4,0.1-0.8,1.5-0.9,2.4c-0.9,7.3-1.4,14.6-2.6,21.8c-6.9,42.9-26.8,79.4-55.2,111.7
		c-10.6,11.9-22.3,22.9-34.9,32.8c-1,0.8-3,1.7-2.5,2.7c0.6,1.3,2.3-0.1,3.5-0.4c18.7-5.2,36.4-12.7,52.7-23.5
		C823.5,819.1,840.1,787.9,840.6,744.1L840.6,744.1z M221.2,720.2c-0.4,18.1,0.2,39.5,4.7,60.4c9.1,43.3,32.1,79.5,60,113.1
		c0.4,0.4,0.9,0.7,1.5,1c-0.1-0.6-0.3-1.2-0.5-1.7c-5.8-9.8-11.1-19.7-15.9-30c-23.1-49.4-32.1-101.9-32.1-156.1
		c0-9.6-0.7-19.2-2.2-28.6c-3-18.4-5.9-36.8-8.7-55.2c-0.2-1.6-0.2-3.3-1.4-4.6c-0.4,1.6-0.8,3.2-1,4.8
		C223.1,654.4,220.8,685.6,221.2,720.2z M536.1,712.7c0-2.8,0-5.7,0-8.5c0-2.2-0.4-3.5-3.2-2.5c-13.6,5.2-28.2,6.2-42,10.6
		c-7.9,2.6-16.4,3.2-24.6,1.8c-4.2-0.7-8.4-2-12.6-2.8c-0.9-0.2-2.8-1.8-2.5,1.2c0.1,1.9,1.2,5-0.7,5.2c-2.3,0.2-1.4-3.1-2.1-4.9
		c-0.1-0.3-0.2-0.6-0.3-1c-0.5-1.3-1.5-2.7-2.8-2.1c-1,0.5-0.2,2.2,0.1,3.2c4.5,11.9,10,23.2,19,32.5c3.2,3.2,6.1,6.7,8.6,10.4
		c2.3,3.4,4.6,6.6,9.6,4.3c1.2-0.5,3-0.1,4.4,0.5c7,2.8,13,1.4,19.3-2.6c6.3-4,12.5-9,21-8c2.8,0.3,3.9-2.4,4.4-4.7
		C533.6,734.4,536.3,723.8,536.1,712.7L536.1,712.7z M777.6,727c0-1,0.4-2.5-0.1-2.8c-1-0.7-1.7,0.7-2.4,1.3
		c-5.9,4.9-11,10.7-15.3,17.1c-6.9,10.4-15.3,19.8-24.8,27.9c-2.4,2-4.2,4.6-5.2,7.6c-5.5,17.2-14.7,33-26.8,46.3
		c-7.3,8-15,15.6-21.5,24.3c-0.7,0.9-1.2,1.9-1.8,2.9c1.2,0.7,2.2,0,3.3-0.3c20.7-5.7,38.8-16.6,56.5-28.2c0.8-0.6,1.6-1.2,2.2-2
		c15.3-17.9,25.2-38.7,32.1-60.9C777.1,749.4,777.5,738.2,777.6,727z M250.8,556.2c1.9-6.4-2.3-12.6-4.7-19.3
		c-4.9-13.8-7.8-28.2-10.4-42.5c-0.3-0.9-0.7-1.8-1.1-2.7c-0.1,0.9-0.1,1.9-0.2,2.8c-1.3,19,2,38.1-0.2,57.2
		c-1.9,16.8-0.7,34-4.4,50.6c-1.9,8.6-1.2,17.6,2,25.9c1.8,4.8,3.6,9.7,5.2,14.5c0.3,0.7,0.3,1.6-0.1,2.3c-0.5,0.6-1-0.3-1.5-0.7
		s-0.2-1.8-1.3-1.4c-0.2,0.1,0,1.2,0.1,1.9c0.8,4.4,1.2,8.9,2.4,13.2c0.8,3.1-1,7.3,3.4,9c2.9,12.2,8.5,23.4,13.2,34.9
		c1.2,2.8,1.8,6,4.2,8.3c-0.2-3-0.4-5.9-0.7-8.9c-1.3-13.9-1.4-28-6.2-41.3c-4.1-11.4-4.8-23.2-3.9-34.9
		C248.7,602.5,249.8,580,250.8,556.2z M475.1,712.2c2.6-0.2,5.6-0.4,8.6-0.9c1.4-0.2,3.5-1,1.9-2.9c-5.3-6-8.1-13.7-14.3-19.2
		c-8.6-7.7-18.3-14-28.8-18.7c-20.8-9.3-41.7-18.4-62.7-27.3c-2.1-0.9-5.2-1.1-6,2.8c-1.4,6.7,4.2,15.3,11.2,16.8
		c0.8,0.2,1.6,0.2,2.4-0.2c0.7-0.7-0.2-1.5-0.6-2.1c-2.1-3.2-4.4-6.3-6.5-9.5c-0.3-0.5-0.6-1.5-0.4-1.8c0.9-0.9,1.4,0.2,2,0.7
		c0.7,0.7,1.3,1.5,1.9,2.3c15.8,20.8,35.6,38.1,58.2,51C452.1,709.1,463.1,711.5,475.1,712.2L475.1,712.2z M583.2,620.3
		c-1.3-3.8-2.2-7.7-2.8-11.7c-0.1-1,0-2.7-1.3-3c-1.6-0.3-2.1,1.4-2.7,2.5c-4.2,7.2-9.4,13.8-15.4,19.6
		c-16.2,16.2-31.5,33-43.4,52.7c-0.5,0.9-1.1,1.6-1.9,2.3c-0.7,0.7-1.8,0.7-1.6-0.6c0.3-1.9,0.6-3.1-1.2-0.6
		c-5.4,7.6-11.1,14.9-13.9,24c-0.7,2.3-0.2,2.2,1.6,1.7c5.6-1.5,11.2-3.3,16.9-4.4c14.7-2.8,25.1-12.1,33.9-23
		c8.3-10.2,14.6-21.9,18.7-34.5c1.7-5.2,3.6-10.3,5.4-15.4c0.4-1,0.3-2.4,1.9-2.6C580.9,626.8,583.3,623.8,583.2,620.3L583.2,620.3z
		 M768,660.3c-0.2-4.7-2.1-9.4-3.9-14c-9.6-25.6-21.5-50.1-33.3-74.6c-0.3-0.6-0.7-1.1-1.2-1.6c-0.6,0.8,0,1.5,0.3,2.2
		c1.8,5.5,3.5,11.1,5.6,16.5c6.9,17.6,8.6,36.8,4.8,55.4c-1.4,7.2-4.1,14.5-3.5,21.5c2,23.2,3.6,46.4,1.5,69.7
		c-0.1,0.7-0.2,1.8,0.1,1.9c1,0.4,1.3-0.6,1.7-1.3c2.4-4.2,5-8.3,7.1-12.6c9.6-19.2,14.1-40.1,20.4-60.3
		C767.9,662.3,768,661.3,768,660.3L768,660.3z M565.9,259.3c0-3.5,0-5.9,0-8.2c0.2-7.3,0.2-8.1-7.9-5.3c-2,0.7-2.3,2.2-2.7,3.8
		c-0.9,3-1.5,6.1-2.7,9.1c-6,15.1-11.7,30.4-20.1,44.5c-0.9,1.6-3.6,4.4,1.1,4.1c7.8-0.5,15.6,0.5,23.5,0.4c6.2-0.1,7.3-1,7.8-7.1
		C565.9,286.4,566.9,272.3,565.9,259.3L565.9,259.3z M739.9,624.3c-0.1-8.2-1.3-16.4-3.6-24.2c-4.8-15.6-10.1-30.9-14.7-46.6
		c-2.6-9.1-7.1-17.9-12.1-26.2c-0.5-0.8-0.8-2.4-1.8-2c-1.3,0.5-0.3,2-0.3,3c0,0.2,0.1,0.3,0.1,0.5c3,13.4,8.1,26.5,5.5,40.7
		c-0.1,1.2,0.3,2.3,1,3.3c4,7.1,6.2,14.7,8.1,22.7c4.5,19.3,9.8,38.3,12.9,57.9c0.1,0.6,0.3,1.2,0.5,1.9c0.2-0.6,0.3-1.3,0.5-1.9
		C738.1,643.8,739.4,634.1,739.9,624.3L739.9,624.3z M157.7,714.3c0-2.7,0.3-5.4-0.1-8c-0.2-1.3,0.9-3-0.8-3.9
		c-0.5,1.2-1.1,2.4-1.5,3.6c-5.8,18.8-10.2,37.9-11.8,57.5c-2,26.5,3.2,51.3,18.2,73.7c0.7,1.1,1.6,3.1,2.6,2.6
		c1.4-0.7-0.1-2.4-0.6-3.4c-6.9-17.1-9.1-34.9-8.4-53.2C156.3,760.3,156,737.3,157.7,714.3L157.7,714.3z M711.7,560.3
		c-0.1-1-0.2-2.5-0.5-4c-2.6-15.5-5-31.2-8-46.5c-4.8-24.4-17.5-44.5-43.1-53.1c-2.5-0.9-2.9-0.4-2.9,1.8c0,3.2-0.5,6.7-2.3,9.1
		c-4.7,6.2-1,11,1.9,16.1c1.3,2.2,2.7,2.5,4.9,1.1c3.4-2.2,6.8-4.1,10.3-6.1c2.9-1.7,5.2-1.1,7.4,1.6c7,8.7,13.1,18.1,18,28.1
		c6.1,12.7,5.9,26.5,7.7,39.9c1,7.2,1.6,14.6,2.4,21.8c0.1,0.9,0.1,2.1,1.2,2.4c0.2,0.1,0.9-1.2,1.2-2
		C711.1,567.3,711.6,563.8,711.7,560.3L711.7,560.3z M919.2,383.5c-0.5-16.3-8.3-29.9-16.3-43.4c-0.3-0.5-0.9-0.7-1.4-1.1
		c0,0.6,0.1,1.3,0.2,1.9c3.3,13.1,5.5,26.4,4.1,40c-1.8,17.1-9.7,30.9-22.2,42.3c-0.7,0.6-1.8,1-1.6,2.2c0.6,0.2,1.2,0.2,1.8,0
		C902.4,420.6,919.8,405,919.2,383.5L919.2,383.5z M593.4,395.7c-0.1,5.3,0.2,5.9,6.7,6.3c8.9,0.5,15.1,4.3,17.9,13.2
		c1.1,3.7,3.6,6.7,5.9,9.8c3.2,4.2,7.4,8.1,9.4,12.8c3,7,8,9.6,14.7,10.7c1,0.1,2.7,0.5,2.8,0.2c0.5-1.4-0.9-1.9-1.7-2.6
		c-5.3-5.1-10.2-10.5-14.7-16.3c-14.1-18.2-23.5-38.9-31.6-60.3c-0.5-1.4-1.1-2.7-1.9-4c-0.5-0.8-1.4-1.4-2.4-1.6
		c-1.1,0-1.2,1.4-1.4,2.3C595.2,376,593.9,385.9,593.4,395.7z M302.3,861.3c-1.3,0.8-0.3,1.8,0,2.5c3.1,6.8,6.1,13.7,9.4,20.3
		c2.5,5,6.2,9.1,10.9,12.1c13.8,8.9,28.8,15,44.4,20c0.6,0.2,1.3,0.8,1.7,0.1c0.1-0.3-0.6-1.1-1-1.6c-0.3-0.4-0.7-0.7-1.1-1
		c-19.7-18.7-42.4-33.8-63-51.3C303.2,862,302.8,861.7,302.3,861.3z M393.6,316.5c4.1,0.7,5.5,0.1,4.8-3.2s-0.9-6.9-1.2-10.4
		c-0.2-2.1-0.1-4.5-2.6-5.4c-2.1-0.8-2.1-0.8,0-2c2.8-1.5,2.7-4.7,1.5-7c-1.6-3.1-3.4,0-4.8,0.7c-13.1,6.9-27.1,11.8-41,16.7
		c-1.4,0.5-3.5,0.3-3.5,2s2.1,1.6,3.5,2C364.9,314,380,314.7,393.6,316.5L393.6,316.5z M777.7,695.5c-1.9-9-4-18.4-6.9-27.6
		c-0.1-0.4-0.2-1.2-0.9-0.8c-0.4,0.3-0.7,0.7-0.8,1.1c-0.4,1.1-0.7,2.2-1,3.3c-7.7,25.1-14.1,50.7-29.7,72.5
		c-0.4,0.6-1.4,1.5-0.7,2.1c1,0.8,1.7-0.6,2.3-1.2c14.5-13.1,26.8-28.4,36.3-45.4C777,698.4,777.9,697.3,777.7,695.5L777.7,695.5z
		 M373.1,353.5c1,0.3,2,0.2,2.9-0.3c6-3.7,11.6-7.8,14.6-14.5c2.6-6,1.7-7.6-4.6-8.6c-1.8-0.3-3.9-0.1-5.4-0.9
		c-4.4-2.5-6.1,0.3-7.2,3.5c-1.1,3.1-3.4,3.5-5.9,3.2c-2.4-0.1-4.4-2-4.6-4.5c-0.4-2.9-1.7-5.7-2-8.6c-0.2-2.5-1.1-3.8-3.3-4.2
		c-2.1-0.4-4.1,0-5.3,1.9c-1.8,2.6-3.2,6.1-1.6,8.4c2.2,3.4,2.4,6.9,3.3,10.5C355.8,347.3,364.7,353.1,373.1,353.5L373.1,353.5z
		 M528.4,340.1L528.4,340.1h-2.5c-2.5,0-5.4-0.7-7.4,0.3c-2.9,1.4-0.4,4.8-1.2,7.2c-0.2,0.8-0.4,1.6-0.7,2.4c-0.8,1.6-1.8,3.3-4,3.1
		c-2-0.1-2.9-1.6-3.5-3.1c-1-2.5-1.5-5.1-1.2-7.8c0.1-1.1,0.4-2.5-1.2-2.9c-1.2-0.3-2.4,0-3.3,0.8c-1.5,1.3-2.3,3.3-2.2,5.3
		c0,2.2,1.8,1.9,3.2,2.4c1.7,0.6,3.1,1.6,3.1,3.5s-1.5,2.5-3,2.9c-2.8,0.7-2.5,2.5-1.9,4.6c3,11.3,11,12.9,20,8.5s14.4-13,17-23
		c0.9-3.3-0.3-4.6-3.7-4.3C533.4,340.3,530.9,340.2,528.4,340.1L528.4,340.1z M545.3,309.9L545.3,309.9c-4.5,0-9,0-13.5,0
		c-1.5,0-3.1-0.3-4.2,1c-4.4,4.8-8.7,9.6-13,14.4c-1.5,1.6-1.3,2.6,1.1,2.6c13.6-0.3,27.2,0.1,40.8,1.2c2.2,0.1,3.6-0.7,4-2.8
		c0.8-4.2,1.6-8.5,2.4-12.7c0.5-2.5-0.5-3.7-3.2-3.7C554.9,310,550.1,309.9,545.3,309.9L545.3,309.9z M399.4,291.9
		c0.5,6.4,0.8,14.5,1.8,22.6c1.7,13,3.9,26,8,38.5c0.3,0.7,0.7,1.4,1.1,2.1c0.2-0.7,0.3-1.5,0.4-2.2c0.2-8.3,0.8-16.6,0.5-25
		c-0.4-14.4,3.7-28.6,2.3-43c-0.2-1.7,0.5-4-2-4.5C405.8,279.1,399.5,284.2,399.4,291.9L399.4,291.9z M789.2,672.1
		c0.7,6.5,1.3,12.6,2,18.7c0.1,1-0.7,2.5,0.9,2.9c0.3,0.1,1.2-1.4,1.6-2.2c6.3-12.4,11.3-25.5,14.8-39c0.6-1.9,0.2-4-0.9-5.6
		c-3.8-5.9-7.4-11.8-11.1-17.7c-0.7-1.1-2.1-3-2.4-2.8c-1.7,0.8-0.8,2.5-0.8,3.9c0.1,13.6,1.8,27.3-3.8,40.3
		C789.2,671,789.1,671.6,789.2,672.1z M176,754.1c-0.3-2-0.7-4.3-1.1-6.6c-0.1-0.6-0.3-1.3-0.4-1.9c-0.2,0.6-0.3,1.3-0.4,1.9
		c-0.9,7.3-2,14.5-2.5,21.8c-1.9,26.8-1,53.2,8.6,78.8c3.9,10.5,9.9,19.8,15.5,29.5c1.4,2.4-1,5.1,2.2,7.2c4,2.6,7.2,6.4,10.8,9.6
		c1.1,0.9,1.9,2.4,3.5,2.4c-0.1-1.6-1.4-2.5-2.3-3.6c-24.9-33.9-37.2-71.8-36.2-113.9C173.9,770.9,175.1,762.7,176,754.1z
		 M416.1,282.8c1.8,11.3,3.6,22.6,5.5,33.9c0.2,1-0.1,2.8,1.1,2.9c1.4,0,1.1-1.8,1.4-2.9c4.8-15.2,9.3-30.5,19.3-43.5
		c0.3-0.5,0.4-1.1,0.5-1.7c-0.6,0.1-1.2,0.2-1.9,0.3c-7.6,2.2-15.2,4.6-22.9,6.8C416.9,279.3,415.6,280.3,416.1,282.8z M778.8,711.5
		c0.1-0.9,0.1-1.8,0-2.7c-0.2-1.6,0.2-4.2-1.2-4.5c-1.6-0.4-2.1,2.2-3,3.5c-8.3,13.3-17.7,25.9-29.7,36c-7,5.8-10.2,12.6-11.2,21.1
		c-0.1,0.8-0.4,2.2-0.2,2.3c1,0.5,1.8-0.4,2.4-1.1c3.9-3.9,7.9-7.7,11.5-11.8c9.6-11,16.8-24,28.2-33.4
		C778.3,718.5,779.5,714.9,778.8,711.5z M790.6,638.3c0-4.8,0-9.6,0-14.5c0.1-1.8-0.4-3.6-1.4-5.2c-7.8-11.6-15-23.5-21.9-35.7
		c-0.5-0.7-1-1.3-1.5-1.9c-0.7,1,0.2,1.9,0.5,2.7c9.7,25.3,18.6,50.8,21.8,78c0.1,0.6,0.3,1.1,0.5,1.6c0.4-0.5,0.7-1.1,0.9-1.7
		C791.4,653.9,790.9,646.1,790.6,638.3L790.6,638.3z M838.1,427.5c0.6,1.4,1.9,1.2,3,1.2c8.6,0.6,17.3,0.6,25.9,0
		c4-0.4,7.8-1.4,11.1-4c7.3-5.7,13.3-12.7,17.8-20.8c0.7-1.2,1.8-2.3,1.3-3.9c-1.2,0.5-2.4,1-3.5,1.7
		c-16.2,11.7-33.8,20.5-53.6,24.4C839.1,426.3,838.4,426.6,838.1,427.5L838.1,427.5z M347.9,452.4c-0.4-1.3-1.3-1.2-2.1-1.5
		c-6.5-1.7-12.9-0.2-19.1,1.4c-0.9,0.4-1.7,1-2.2,1.9c-3.1,6.2-8.4,10.2-13.5,14.5c-2.3,2-3.8,4.7-4.3,7.6c-0.2,1.1-0.8,2.4,0.2,3.3
		s2.2,0,3.2-0.4c7.4-3.1,14.5-6.6,21.6-10.2c3.7-1.9,5.2-3.6,1-6.4c-3-2-1.5-2.9,0.7-3.8c4.1-1.7,8.2-3.5,12.4-5.4
		C346.6,453.3,347.3,452.9,347.9,452.4z M485.1,909.2c2.3,7.1,2.2,15.2,3.5,23c0.9,5.4,0.6,11,2.4,16.2c0.8,2.5,2,4.9,5.3,3.8
		c2.8-0.9,5.6-2,8.4-3.2c2.9-1.2,3.3-3.2,1.8-6c-6.3-11.5-13.7-22.5-18-35c-0.3-0.9-0.9-2-2.1-1.8S485.2,907.6,485.1,909.2z
		 M568.5,394.8c1.8,0.2,3.3,0.2,4.5-1.6c7.4-11.8,15-23.5,22.4-35.3c0.6-1,1.1-2.4,0.1-3.2c-1.3-1.1-2,0.5-2.8,1.2
		c-5.5,4.8-10.8,9.9-16.7,14.2c-6.6,4.6-10.8,12-11.3,20C564.3,393.7,564.9,395.2,568.5,394.8z M317.3,516.1
		c-0.7,3.6,0.6,3.8,2.9,2.9c6.9-2.8,13.8-5.8,21-7.5c3.3-0.8,3.9-2.1,2.6-5.1s-1.2-6.5-0.6-9.8c0.2-1.2,1.4-2.6-0.2-3.5
		c-1.4-0.8-2.4,0.7-3.5,1.3c-4.4,2.6-8.5,6.1-13.3,7.8C318.9,504.8,317.5,510.2,317.3,516.1z M552.7,249.5c0-0.6,0.4-1.4-0.9-1.8
		c-2.6-0.7-9,3.1-9.6,5.6c-4.2,18.3-8.8,36.5-17.8,53.2c-1.2,2.3-3.8,4.1-3.5,7.1c2.6-1.6,4.3-4.1,5.9-6.6
		c11-16.6,17.8-35.2,24.8-53.7C552.1,252.2,552.3,250.9,552.7,249.5z M537.4,338c5.3,0,10.6,0,16,0c1.4,0,2.8,0.4,3.6-1.6
		c2-4.9-1.7-4.5-4.3-4.8c-13.4-1.6-26.8-0.9-40.2-0.7c-2.5,0.1-4.9,1.2-6.5,3.1c-0.7,0.7-1.9,1.3-1.5,2.3s1.8,0.5,2.7,0.5
		C517.2,337.1,527.3,338.5,537.4,338z M230.9,563c0-1.2,0-2.3,0-3.5c0.1-2.8,0.3-5.6,0.4-8.4c-2.1,2.2-2.7,5.1-3.7,7.8
		c-5.4,14.9-8.8,30-2.9,45.6c0.3,0.8,0.1,2.4,1.2,2.4c1.4,0,0.8-1.5,1-2.4C229.8,590.8,230.4,576.9,230.9,563z M365.8,608.3
		c-0.1-0.3-0.1-0.7-0.2-1c-4.4-11-11.7-20.6-21.2-27.7c-0.6-0.3-1.2-0.5-1.8-0.7c-0.2,0.8-0.2,1.5-0.1,2.3
		c1.5,5.6,2.3,11.4,2.5,17.2c-0.1,1.3,0.7,2.6,1.9,3.1l16.7,7.8C364.7,609.8,365.8,610.2,365.8,608.3L365.8,608.3z M392.2,285.7
		c-0.4-1.1-1.1-0.7-1.6-0.6c-12.7,2.7-25.5,4.7-38.3,6.3c-1.5,0.2-2.8,0.8-3.1,2.7c-0.2,2.1-0.6,4.3-1.1,6.3c-0.8,3,0.2,3.5,3,2.6
		c13.5-4.7,26.9-9.8,39.6-16.4C391.2,286.3,391.7,286,392.2,285.7L392.2,285.7z M588.1,400.3c2.2,0.5,3-0.6,3-2.7
		c-0.3-10,1.2-19.9,3.5-29.6c0.2-0.6,0.2-1.8,0-1.9c-1-0.4-1.3,0.6-1.7,1.2c-4.3,6.5-8.3,13.3-11.7,20.3
		c-5.1,10.3-4.7,11.3,6.5,12.6C587.8,400.2,588,400.3,588.1,400.3z M355.2,448.9c-2.4-3.4-4.5-6.5-6.9-9.5c-0.3-0.4-1.6-0.4-2.4-0.3
		c-17.1,1.9-17.1,1.8-26.8,15.6c-1.5,2.2-4.1,3.8-4.2,6.9c2.6-1.5,4.7-3.7,6-6.4c1.9-4.1,5-5.8,9.4-6.4c7.1-0.9,14.2-2.2,20.9,1.7
		C352.9,451.3,354.2,450.2,355.2,448.9z M615.1,561.9c-2.7-1.3-5.1-2.5-7.5-3.7c-1.1-0.5-2.2-1.2-2.9,0.4
		c-2.6,5.8-6.7,10.6-9.8,16.1c-0.3,0.5-0.4,1.2-0.2,1.8c0.4,0.7,1.2,0.4,1.7,0c5.9-3.6,12.1-6.9,16.9-12.1
		C613.8,563.6,614.2,562.9,615.1,561.9L615.1,561.9z M534.6,474.4c-0.6,0.2-2.3-0.7-2.1,0.8c0.3,2.8,1.9,5.2,3.7,7.4
		c1.3,1.6,2.9,1.8,4.9,1.1c5.1-1.9,10.5-3.3,15.9-4.1c1-0.2,1.9-0.6,2.8-1c-0.5-1.2-1.7-1.2-2.8-1.5
		C549.7,475.6,542.1,476.7,534.6,474.4L534.6,474.4z M654.9,456.4c0.6-2.3-1-3.6-3.9-4.3c-1.9-0.4-3.8-1.2-5.7-1.6
		c-1.2-0.3-2.8-1.3-3.8-0.2c-1.2,1.3-0.1,2.8,0.6,4.1c2.6,4.7,7.3,8.3,7.7,14.3c0,0.4,0.5,0.8,0.7,1.2c0.5-0.5,0.9-1,1.2-1.5
		C653.6,464.8,654.5,461.1,654.9,456.4L654.9,456.4z M562.3,451.8c4.5-0.4,8.7-0.6,12.8-1c1.7-0.2,4.3,0.2,4.4-2.1
		c0-2.1-2.1-3.1-4.2-3.6c-4.2-1.1-8.2,0.3-12.4,0s-4.5,3.5-4.7,5.8C558.1,452.7,561.2,451.3,562.3,451.8L562.3,451.8z M300.4,434.5
		c0,0.4-0.1,1.5,0.1,1.6c0.9,0.3,1.5-0.5,1.9-1.2c3.1-4.9,6.2-9.8,9.1-14.8c0.7-1.1,2.8-2.2,1.5-3.6c-1-1-2.8-0.3-4.2,0.4
		c-2.4,1.1-4.5,2.9-5.9,5.2C300.8,425.8,301.5,430.1,300.4,434.5L300.4,434.5z M574.9,323.6c0-0.2-0.1-1.5-0.2-2.8
		c-1.1,0.9-1,2.3-1.5,3.5c-3.1,8.1-3.7,17.2-9,24.5c-0.7,1.3-1.3,2.7-1.6,4.2c0,0.5,0,0.9,0.1,1.4c0.4-0.1,1.1-0.2,1.1-0.5
		c1.1-4.9,6.6-6.8,7.8-11.8C572.9,336.3,574.6,330.6,574.9,323.6z M348.2,416.9c1.7-0.3,3.1-0.7,4.6-0.9c0.6,0,1.3,0,1.9,0.2
		c-0.2-0.6-0.6-1.1-1-1.6c-4.3-3.6-6.9-8.5-10.2-12.9c-0.5-0.6-0.9-1.8-1.8-1.4s-0.5,1.5-0.4,2.2c0.9,3.7,1.7,7.5,2.7,11.1
		C344.3,415.6,346.1,417.1,348.2,416.9z M359.2,421c-1.5,0.5-0.2,1.3,0,1.7c2.6,5.2,5.7,10,7.8,15.4c0.6,1.6,1.5,3.6,4,2.1
		s1.9-3.3,0.5-5c-3.8-4.6-7.7-9.1-11.5-13.6C359.7,421.4,359.4,421.2,359.2,421L359.2,421z M536.8,431.7c-0.2-1.9-0.3-4.4-3-2.5
		c-4.3,3.1-8.3,6.6-12.4,10c-0.3,0.4-0.5,0.8-0.7,1.2c0.5,0.1,1,0.3,1.4,0.2c4.5-1.6,9.2-2.9,13.2-5.5
		C536.5,434.4,537.1,433,536.8,431.7z M389.6,326.9c1.2-0.5,4.1,1.1,4.2-2.1c0.1-2.6-2.8-1.5-4.3-2.3c-0.5-0.2-1-0.3-1.5-0.1
		c-2.4,1-7,0-7.1,2.1c0,2.5,4.4,1.2,6.6,2.1C388.3,326.8,389,326.9,389.6,326.9z M515.9,345c-0.5-1.4,0.9-4.1-2.4-4.1
		c-2.1,0-3.6,0.9-3.2,3.3c0.4,2.6,0.5,6.3,3.2,6.6C515.9,351,515.8,347.5,515.9,345z M365.1,328c0.1,3,1.3,4.9,3.2,4.8
		c3-0.1,2.5-2.5,2.7-4.4c0.2-2.7-1.5-3.4-3.8-3.4S365,326.5,365.1,328z M559.6,793.4c-1.4,0.9-2.3,2.4-2.6,4
		c-0.5,1.6-0.5,3.3,0.1,4.8c0.2,0.5,0.5,0.5,0.7,0c0.9-2.8,1.8-5.6,2.6-8.4C560.1,793.7,559.9,793.6,559.6,793.4z M568.7,239.4
		c-0.3-0.1-0.6-0.2-1-0.2c-3.1,0.2-6.1,1.1-8.9,2.5c-0.2,0.1-1,1-0.3,0.8c3.3-0.7,6.6-1.8,9.9-2.8
		C568.5,239.8,568.6,239.5,568.7,239.4L568.7,239.4z M873.5,500.5l-0.4,0.1c0.1,0.3,0.2,0.5,0.4,0.8c0,0.1,0.4-0.1,0.6-0.2
		C873.8,501,873.7,500.7,873.5,500.5z M852.8,837.4c-0.1-0.1-0.3-0.1-0.4-0.1c-0.5,0.1-0.5,0.2-0.1,0.4c0.1,0,0.3,0,0.4,0
		C852.7,837.7,852.8,837.5,852.8,837.4z M368.7,607l-0.2-0.4l-0.1,0.4H368.7z M675.7,904.4c0-0.1-0.1-0.2-0.1-0.3l-0.2,0.4
		L675.7,904.4z M369.4,610c0.1,0,0.3-0.1,0.3-0.1c0-0.1,0-0.3-0.1-0.4c-0.1,0-0.3,0.1-0.3,0.1C369.3,609.8,369.4,609.9,369.4,610z"
		/>
	<path d="M586,1004.4c-1.3,0.2-1.2-0.7-1-1.2c0.3-1.1,0.7-2.2,1.2-3.2c8-17.3,18-33.7,24.1-51.8c0.2-0.7,0.4-1.9,1.4-1.8
		c1.5,0.3,0.8,1.6,0.6,2.4c-1.6,6.3-4.3,12.2-7.2,18c-5.9,11.9-11.9,23.7-17.9,35.6C586.8,1003.1,586.4,1003.8,586,1004.4z"/>
	<path d="M550.5,724.3c-1.6-0.4-1.3-1.4-0.8-2.3c1.6-2.7,3.2-5.4,4.9-8c3.8-6.2,7.7-12.3,11.6-18.5c0.5-0.8,0.9-2.2,2.1-1.6
		s0.4,1.8,0.1,2.7c-3.8,10-10,18.6-16.7,26.8C551.2,723.7,550.8,724,550.5,724.3z"/>
	<path d="M378.6,669.1c0.9,0.1,1.7,0.7,2,1.5c5.3,9.3,10.7,18.7,16,28.1c0.5,0.9,1,2,0,2.6c-0.7,0.4-1.5-0.5-1.9-1.2
		c-6.4-9.2-11.5-19-16.4-29C378,670.4,377.8,669.7,378.6,669.1z"/>
	<path d="M271.8,181c-0.5,1.4-1.3,1.2-2.2,0.4c-3.5-3-6.8-6.3-9.8-9.8c-0.9-1.1-0.9-2.2,0.1-3s1.8,0.2,2.4,0.9
		c2.8,3.2,5.6,6.5,8.4,9.7C271.2,179.8,271.5,180.4,271.8,181z"/>
	<path d="M311.9,744.1c0.2,1.8-0.7,2.1-1.8,1.6c-1.9-0.8-3.4-2.1-4.4-3.9c-12-21.3-26.1-41.4-35.4-64.2c-0.3-0.8-0.7-1.5-1-2.3
		c-0.3-1-1.5-2.5-0.1-3s1.6,1.3,2.1,2.3c11.2,23.2,24.3,45.6,39,66.7C310.9,742.4,311.5,743.4,311.9,744.1z"/>
	<path d="M588.2,798.6c0.2,2.3-0.4,4.7-1.6,6.7c-3.2,5.1-3.7,10.5-3.4,16.3c0.4,9.3-0.6,18.6,0.8,27.9c0.2,1.2,0.7,3.3-0.6,3.5
		c-1.7,0.3-1.4-1.8-1.7-3c-1.8-7.3-0.2-15-1.7-22.3c-2.3-10.8,1.4-20.2,5.6-29.7c0.4-1,0.3-2.5,1.9-2.5
		C588.1,795.5,588.2,795.9,588.2,798.6z"/>
	<path d="M631,244c-2,19.5-7.1,38.1-13.7,56.3c-5.5,15.5-12.9,30.3-22.1,44c-0.9,1.3-1.6,4.2-3,3.2s0.4-3.2,1.3-4.7
		c8.8-14.7,16.2-30.2,22-46.4c6.2-17,10.6-34.7,13.1-52.6c0.2-1.1-0.3-3.4,1.3-3.2C631.9,240.7,630.8,242.9,631,244z"/>
	<path d="M506.9,811.9c1.2-0.1,1.5,0.9,1.8,1.6c4.4,10.2,8.1,20.8,10.9,31.5c0.2,0.8,0.7,1.8-0.4,2s-1.3-0.8-1.6-1.5
		c-3.7-10.5-7.4-21-11-31.5C506.3,813.2,506.1,812.4,506.9,811.9z"/>
	<path d="M540.1,943.4c-0.1,1.1,0.2,2.2-0.8,2.4c-1.4,0.3-1.6-1-1.8-1.9c-2.5-12.3-5-24.7-7.5-37c0-0.6,0.1-1.3,0.3-1.8
		c1.2,0.3,1.3,1.4,1.5,2.3c2.1,9.2,4.2,18.4,6.3,27.6C538.9,937.9,539.5,940.8,540.1,943.4z"/>
	<path d="M529.2,892.6c-0.1,0.4-0.3,1.6-0.5,1.6c-1,0.1-1.4-0.7-1.6-1.6c-2.6-11.2-5.1-22.3-7.7-33.5c-0.2-0.8-0.5-1.8,0.6-2
		c0.8-0.2,1,0.7,1.2,1.3C524.2,869.6,527,880.9,529.2,892.6z"/>
</g>
<g id="图层_1_1_">
	<g>
		<path d="M278,1025h6c0.1-0.3,0.2-0.7,0.3-1h-5.7C278.4,1024.3,278.2,1024.7,278,1025z"/>
		<path d="M733,1025h2c0-0.3,0-0.7,0-1h-2.2C732.8,1024.3,732.9,1024.7,733,1025z"/>
		<path fill="#FEEBE4" d="M536.3,452c3.9-0.5,5.1-1.4,3.1-5.1c-0.4-0.9-0.7-1.9-0.9-2.9c-0.8-3.1-2.1-4.5-5.7-3.1
			c-5.5,2-11,3.7-16.6,5c-4.6,1.1-8.4,3-10.8,7.3c-0.5,0.8-1.1,2.2-2.1,1.9c-1.2-0.4-0.7-1.7-0.3-2.6c1-2.5,0.3-2.8-1.8-1.6
			c-16.2,9-33.8,13.9-51.3,19.3c-4.3,1.3-8.8,2.9-13.2,0.8c-11-5.1-22.8-8.3-33.5-14.1c-7.5-4-14.7-8.6-21.5-13.7
			c-1-0.7-1.9-2.5-3.2-1.6c-1.1,0.7,0.2,2.1,0.5,3.2c0.1,0.3,0.2,0.6,0.3,1c0.4,1.1,1.2,2.5,0,3.1s-2-0.8-2.6-1.8
			c-0.4-0.7-0.6-1.6-1-2.3c-0.7-1.2-0.7-3.8-3.2-2.2c-2.6,1.6,0.1,2.7,0.6,3.9c0.3,0.6,0.7,1.1,1.1,1.7c0.8,1.2,1.3,2.5,0.5,3.7
			s-2.4,0.9-3.7,0.7l-8.7-1.6c-0.7,0.1-1.7,0.2-2.7,0.3c-7.4,1.1-13.6,5.1-20.4,7.8c-1.2,0.5-4,0.3-3,2.8c0.9,2.1,2.6,3.2,5.2,1.5
			c3.1-1.9,5.4-0.9,7.5,2.1c3.9,5.6,8.1,11,12.6,16.2c3.3,3.8,4.5,7.6,2.5,12.3c-0.8,1.7-0.8,3.6-0.1,5.4
			c4.9,10.6,9.4,21.4,17.7,29.9c3.4,3.5,7.5,4.8,12.3,3c4-1.6,8.3-2.6,12.6-3c13.5-0.9,26.2-4.2,36.9-13.1c0.8-0.6,1.7-1,2.6-1.5
			c11.6-7,23-8.2,34.3,0.7c1.2,0.8,2.6,1.6,3.9,2.2c7.8,4.3,19.1,1.6,22.6-6.5c5.2-12.2,12.1-23.3,19.2-34.4c2-3,2.4-6.7,1.1-10
			C524.3,458.4,527.3,453.1,536.3,452z"/>
		<path fill="#FEEBE4" d="M563.8,354c1.1-4.9,6.6-6.8,7.8-11.8c1.4-5.8,3-11.5,3.3-18.6c0-0.2-0.1-1.5-0.2-2.8
			c-1.1,0.9-1,2.3-1.5,3.5c-3.1,8.1-3.7,17.2-9,24.5c-0.7,1.3-1.3,2.7-1.6,4.2c0,0.5,0,0.9,0.1,1.4C563,354.3,563.7,354.2,563.8,354
			z"/>
		<path fill="#A09AB6" d="M333.6,459c4.1-1.7,8.2-3.5,12.3-5.4c0.7-0.3,1.3-0.7,2-1.2c-0.4-1.3-1.3-1.2-2.1-1.5
			c-6.5-1.7-12.9-0.2-19.1,1.4c-0.9,0.4-1.7,1-2.2,1.9c-3.1,6.2-8.4,10.2-13.5,14.5c-2.3,2-3.8,4.7-4.3,7.6
			c-0.2,1.1-0.8,2.4,0.2,3.3s2.2,0,3.2-0.4c7.4-3.1,14.5-6.6,21.6-10.2c3.7-1.9,5.2-3.6,1-6.4C329.9,460.8,331.4,459.9,333.6,459z"
			/>
		<path fill="#A09AB6" d="M330.3,448.7c7.1-0.9,14.2-2.2,20.9,1.7c1.7,0.9,3-0.2,3.9-1.5c-2.4-3.4-4.5-6.5-6.9-9.5
			c-0.3-0.4-1.6-0.4-2.4-0.3c-17.1,1.9-17.1,1.8-26.8,15.6c-1.5,2.2-4.1,3.8-4.2,6.8c2.6-1.5,4.7-3.7,6-6.4
			C322.9,451,326,449.2,330.3,448.7z"/>
		<path fill="#6E5B70" d="M499.9,527.6c0.4-1.3,2-3.9-1.2-3.4c-10.5,1.6-18.4-4.5-27.1-8.4c-2.9-1.3-5.8-2.5-9.4-2.6
			c-2.5,0.2-5,0.8-7.4,1.9c-6.2,2.4-12.2,5.3-17.9,8.8c-6.5,4.1-13.8,6.8-21.4,7.9c-7,1.1-14.2,1-20.3,6.2c-2.4,2-1.3,2-0.1,3.2
			c14.9,14.6,29.6,29.3,44.6,43.7c11.9,11.3,23.7,22.5,31.2,37.3c3,5.8,6.4,11.3,9.7,16.9c0.5,0.9,0.9,2.7,2.1,2.3
			c1.5-0.4,0.4-2,0.3-3c-0.6-6.5-1.7-12.9-2-19.4c-0.9-21.2,4.5-41.6,9.3-62C492.9,547,496.7,537.4,499.9,527.6z"/>
		<path fill="#3F5197" d="M513.5,340.9c-2.1,0-3.6,0.9-3.2,3.3c0.4,2.6,0.5,6.3,3.2,6.6c2.4,0.2,2.4-3.3,2.4-5.8
			C515.4,343.6,516.8,340.9,513.5,340.9z"/>
		<path fill="#3F5197" d="M504.5,354.2c-2.8,0.7-2.5,2.5-1.9,4.6c3,11.3,11,12.9,20,8.5s14.4-13,17-23c0.9-3.3-0.3-4.6-3.7-4.3
			c-2.5,0.3-5,0.1-7.5,0.1l0,0h-2.5c-2.5,0-5.4-0.7-7.4,0.3c-2.9,1.4-0.4,4.8-1.2,7.2c-0.2,0.8-0.4,1.6-0.7,2.4
			c-0.8,1.7-1.8,3.3-4,3.2c-2-0.1-2.9-1.6-3.5-3.1c-1-2.5-1.5-5.1-1.2-7.8c0.1-1.1,0.4-2.5-1.2-2.9c-1.2-0.3-2.4,0-3.3,0.8
			c-1.5,1.3-2.3,3.3-2.2,5.3c0,2.2,1.8,1.9,3.2,2.4c1.7,0.6,3.1,1.6,3.1,3.5C507.5,353.2,506,353.8,504.5,354.2z"/>
		<path fill="#A09AB6" d="M359.2,422.7c2.6,5.2,5.7,10,7.8,15.4c0.6,1.6,1.5,3.7,4,2.1c2.5-1.5,1.9-3.3,0.5-5
			c-3.8-4.6-7.7-9.1-11.5-13.6c-0.2-0.2-0.5-0.5-0.8-0.7C357.7,421.6,359,422.3,359.2,422.7z"/>
		<path fill="#A09AB6" d="M551.8,247.7c-2.6-0.7-9,3.1-9.6,5.6c-4.2,18.3-8.8,36.5-17.8,53.2c-1.2,2.3-3.8,4.1-3.5,7.1
			c2.6-1.6,4.3-4.1,5.9-6.6c11-16.6,17.8-35.2,24.8-53.7c0.5-1.2,0.7-2.6,1.1-4C552.7,248.9,553,248,551.8,247.7z"/>
		<path d="M568.4,239.8c0.1-0.1,0.2-0.3,0.3-0.4c-0.3-0.1-0.6-0.2-0.9-0.2c-3.1,0.2-6.1,1.1-8.9,2.5c-0.2,0.1-1,1-0.3,0.8
			C561.9,241.9,565.1,240.8,568.4,239.8z"/>
		<path fill="#FEEBE4" d="M560.5,326.3c0.8-4.2,1.6-8.5,2.4-12.7c0.5-2.5-0.5-3.7-3.2-3.7c-4.8,0.1-9.7,0-14.5,0l0,0
			c-4.5,0-9,0-13.5,0c-1.5,0-3.1-0.3-4.2,1c-4.4,4.8-8.7,9.6-13,14.4c-1.5,1.6-1.3,2.6,1.1,2.6c13.6-0.3,27.2,0.1,40.8,1.2
			C558.7,329.2,560.1,328.4,560.5,326.3z"/>
		<path fill="#391D25" d="M557,336.4c2-4.9-1.7-4.5-4.3-4.8c-13.4-1.6-26.8-0.9-40.2-0.7c-2.5,0.1-4.9,1.2-6.5,3.1
			c-0.7,0.7-1.9,1.3-1.5,2.3s1.8,0.5,2.7,0.5c10.1,0.3,20.1,1.6,30.3,1.2c5.3,0,10.6,0,16,0C554.8,338,556.2,338.4,557,336.4z"/>
		<path fill="#FEEBE4" d="M555.2,249.6c-0.9,3-1.5,6.1-2.7,9.1c-6,15.1-11.7,30.4-20.1,44.5c-0.9,1.6-3.6,4.4,1.1,4.1
			c7.8-0.5,15.6,0.5,23.5,0.4c6.2-0.1,7.3-1,7.8-7.1c1.1-14.1,2.1-28.2,1.1-41.1l0,0c0-3.5,0-5.9,0-8.2c0.2-7.3,0.2-8.1-7.9-5.3
			C556,246.5,555.7,248,555.2,249.6z"/>
		<path fill="#CEBAC4" d="M651.1,452.1c-1.9-0.4-3.8-1.2-5.7-1.6c-1.2-0.3-2.8-1.3-3.8-0.2c-1.2,1.3-0.1,2.8,0.6,4.1
			c2.6,4.7,7.3,8.3,7.7,14.3c0,0.4,0.5,0.8,0.7,1.2c0.5-0.5,0.9-1,1.2-1.5c1.8-3.5,2.7-7.2,3.2-11.9h-0.1
			C655.6,454.1,653.9,452.8,651.1,452.1z"/>
		<path fill="#391D25" d="M649.2,446.2c-5.3-5.1-10.2-10.5-14.7-16.3c-14.1-18.2-23.5-38.9-31.6-60.3c-0.5-1.4-1.1-2.7-1.9-4
			c-0.5-0.8-1.4-1.4-2.4-1.6c-1.1,0-1.2,1.4-1.4,2.3c-2.1,9.7-3.4,19.5-3.9,29.4c-0.1,5.3,0.2,5.9,6.7,6.3
			c8.9,0.5,15.1,4.3,17.9,13.2c1.1,3.7,3.6,6.7,5.9,9.8c3.2,4.2,7.4,8.1,9.4,12.8c3,7,8,9.6,14.7,10.7c1,0.1,2.7,0.5,2.8,0.2
			C651.3,447.5,649.9,446.9,649.2,446.2z"/>
		<path fill="#F6BFBB" d="M575.1,450.8c1.7-0.2,4.3,0.2,4.4-2.1c0-2.1-2.1-3.1-4.2-3.6c-4.2-1.1-8.2,0.3-12.4,0
			c-4.1-0.3-4.5,3.5-4.7,5.8c-0.1,2,2.9,0.5,4.1,0.9l0,0C566.8,451.4,571,451.2,575.1,450.8z"/>
		<path fill="#391D25" d="M594.6,366.1c-1-0.4-1.3,0.6-1.7,1.2c-4.3,6.5-8.3,13.3-11.7,20.3c-5.1,10.3-4.7,11.3,6.5,12.6
			c0.2,0,0.3,0.1,0.5,0.1c2.2,0.5,3-0.6,3-2.7c-0.3-10,1.2-19.9,3.5-29.6C594.7,367.4,594.8,366.2,594.6,366.1z"/>
		<path fill="#FEEBE4" d="M622.9,546.5c6.7-20.7,15.1-40.2,31.3-55.5c2-1.9,2-3.5,0.5-5.7c-2.9-4.4-5.4-9.2-7.4-14.1
			c-5.9-14.5-13.6-28.2-22.8-40.9c-3.9-5.4-8-10.8-10.5-16.9c-2.2-5.2-5.7-7.4-10.9-8c-11.9-1.5-23.7-3.5-35-7.7
			c-2.6-1-6.3-2.3-8.5,1.3c-3.7,5.9-7.4,11.9-12,17.1c-2.6,2.9-1,4.4,1.7,4.7c8.7,1,17.5,1.7,26.1,3.6c0.6,0.1,1.2,0,1.7-0.3
			c0-0.8-0.8-0.9-1.4-1.1c-5.6-2.1-10.8-5.3-15.3-9.2c-0.8-0.7-2.2-1.6-1.1-2.8c1.1-1.2,2.1,0.2,2.9,0.9c6,5.3,13.3,9,21.1,10.8
			c1.2,0.3,3.3,0.3,3.2,1.8c-0.2,1.5-2.3,1.5-3.7,1.6c-10.6,0.7-21.3-0.3-31.7-2.8c-8.6-2-12.8,2.2-11,11.1
			c0.9,4.4,2.1,8.7,3.1,13.1c0.5,2.2,0.8,4.4,3.8,4.3c3.1-0.1,6.8,1.5,8.7-2.7c0.8-1.8,2.4-3.7-1.1-4.4c-0.8-0.2-1.7-0.6-1.4-1.7
			s1.2-0.9,2-0.9c6.2,0,12.3-0.2,18.5-0.1c3.1,0.1,6.4,1,7.5,4c1.4,3.7,3.6,3.4,6.5,2.9c8-1.5,15.6-0.7,22.4,4.2
			c1,0.7,2.9,1.2,1.7,2.9c-0.8,1.2-2.1,0.3-3-0.5c-6-5.1-13.2-5.3-20.4-4.1c-13.6,2.2-27.5,3.2-41.3,2.9c-4.3,0-8.6-0.9-12.8,0.8
			c-4.5,1.7-6.1,5.1-5.3,9.8c1,5.8,5.2,7.2,10,8c8.6,1.4,17.7,0,25.8,4.6c1.5,0.8,2.4-0.4,3-1.7c0.2-0.8,1.1-1.3,1.9-1.1
			c0.2,0.1,0.4,0.1,0.5,0.3c1.7,1,0.4,2.1-0.2,2.9c-1.7,2.2-4.3,3-7,3.5c-8,1.3-16.2,2.4-23.6,6.1c-6.7,3.3-7.7,7.5-3.6,13.7
			c1.4,2.1,2.8,4.4,5.1,5.9c0.1-0.6,0-1.4,0.3-1.7c6.3-5,19.2-1.8,22.5,5.6c1.6,3.5,2.9,7.1,6.2,9.4c3.1,2.3,5.7,5.2,7.6,8.5
			c6.8,10.6,16.2,19.2,27.4,24.9C618.6,560.9,618,561.7,622.9,546.5z"/>
		<path fill="#391D25" d="M592.6,355.8c-5.5,4.8-10.8,9.9-16.7,14.2c-6.6,4.6-10.8,12-11.3,20c-0.3,3.6,0.3,5.2,3.9,4.7
			c1.8,0.2,3.3,0.2,4.5-1.6c7.4-11.8,15-23.5,22.4-35.3c0.6-1,1.1-2.4,0.1-3.2C594.1,353.6,593.4,355.1,592.6,355.8z"/>
		<path fill="#F6BFBB" d="M554.3,515c2.5-0.2,6.8,1.4,7-2.2c0.3-3.4-3.2-5.7-6.6-6.4c-2.3-0.4-4.6-0.5-6.9-0.2
			c-2.2,0.1-4.5,0.6-6.7,0.9C544.1,511.9,548.2,515.4,554.3,515z"/>
		<path fill="#6E5B70" d="M342.9,492.9c-1.4-0.8-2.4,0.7-3.5,1.3c-4.4,2.6-8.5,6.1-13.3,7.8c-7.3,2.7-8.7,8.2-8.8,14
			c-0.7,3.6,0.6,3.8,2.8,2.9c6.9-2.8,13.8-5.8,21-7.5c3.3-0.8,3.9-2.1,2.6-5.1s-1.2-6.5-0.6-9.8
			C343.3,495.3,344.6,493.8,342.9,492.9z"/>
		<path fill="#A09AB6" d="M343.5,401.7c-0.5-0.6-0.8-1.8-1.8-1.4c-0.9,0.4-0.5,1.5-0.4,2.2c0.9,3.7,1.7,7.5,2.7,11.1
			c0.3,2,2.2,3.4,4.2,3.2c1.7-0.3,3.1-0.7,4.6-0.9c0.6,0,1.3,0,1.9,0.2c-0.2-0.6-0.6-1.1-1-1.6C349.4,411,346.7,406.1,343.5,401.7z"
			/>
		<path fill="#F6BFBB" d="M541.1,483.7c5.1-1.9,10.5-3.3,15.9-4.1c1-0.2,1.9-0.6,2.8-1c-0.5-1.2-1.7-1.2-2.8-1.5
			c-7.3-1.6-15-0.5-22.4-2.8l0,0c-0.6,0.2-2.3-0.7-2.1,0.8c0.3,2.8,1.9,5.2,3.7,7.4C537.6,484.3,539.2,484.5,541.1,483.7z"/>
		<path fill="#A09AB6" d="M535.4,435.1c1.1-0.7,1.7-2.1,1.5-3.4c-0.2-1.9-0.3-4.4-3-2.5c-4.3,3.1-8.3,6.6-12.4,10
			c-0.3,0.4-0.5,0.8-0.7,1.2c0.5,0.1,1,0.3,1.4,0.2C526.6,439,531.3,437.8,535.4,435.1z"/>
		<path fill="#6E5B70" d="M596.3,576.4c5.9-3.6,12.1-6.9,16.9-12.1c0.5-0.6,1-1.3,1.8-2.4c-2.7-1.3-5.1-2.5-7.5-3.7
			c-1.1-0.5-2.2-1.2-2.9,0.4c-2.6,5.8-6.7,10.6-9.8,16.1c-0.3,0.5-0.4,1.2-0.2,1.8C595,577.1,595.8,576.7,596.3,576.4z"/>
		<path d="M568.3,352.3L568,353C568.2,352.8,568.9,352.9,568.3,352.3z"/>
		<path fill="#6E5B70" d="M582.4,583c3-0.9,6.3-2,7.5-4.6c3.2-7.2,8.5-13.1,12-20.1c1-1.9,0.7-2.9-1.1-4
			c-11.3-6.6-19.7-16-27.4-26.5c-4.3-5.9-9.2-13.1-18.9-9.9c-1,0.1-2,0-2.9-0.3c-10.1-2.1-14.5-10.4-19.6-18
			c-2.3-3.5-1.7-6.9,0.8-10.1c1.3-1.6,3.4-2.9,1.2-5.4c-1.5-1.7-2.3-4.1-3.7-5.9c-0.8-1-1.3,0.4-1.7,1
			c-9.1,14.7-17.8,29.6-24.4,45.6c-2.6,5.9-4.9,12-6.9,18.2c-3.5,11.9-6.8,23.9-8.6,36.3c-2.2,15-5.2,29.8-4.5,45.1
			c0.7,13.8,4.2,27.3,5.5,41c1.1,11.4,2.3,22.9,0.8,34.4c-0.1,1,0.3,2.7-1.4,2.6s-1.2-1.8-1.2-2.8c0-5.1,0-10.3,0-15.4
			c-0.4-8.1,0.7-16.4-1.7-24.3c-6.4-21.4-17.8-40.2-32.4-56.8c-16.1-18-33.3-35.1-51.4-51c-8.3-7.4-16.5-14.9-24.9-22.2
			c-7.3-6.3-12.2-15.3-15.6-24.7c-0.4-0.9-0.8-1.8-1.3-2.6c-0.5,0.9-0.8,1.8-1.1,2.7c-0.4,1.5-0.1,3,0.8,4.3
			c2.6,3.5,3.3,7.6,3.1,11.8c-0.3,6.8-0.6,13.6-1.1,20.5c-0.3,4.9-2.9,7.9-8,8.8c-4.3,0.8-8.6,0.4-13,0.7c-6.4,0.3-9.4,6.2-5.9,11.7
			c0.6,1,1.3,1.9,2.1,2.8c5.3,6.4,10.9,12.7,17.6,17.6c16.2,11.7,19.8,28.9,21.1,47c0.5,7,1.2,9.4,7.9,11.9c7.3,2.8,13.8,8,22.2,8.2
			c2.2,0,4.5,2,6.7,3.2c2.5,1.3,4.8,3.1,7.5,4c9.5,3.3,18.4,7.8,27.3,12.3c16,8.2,30.3,18.3,38.5,34.9c1.1,2.3,3.5,3.6,6,3.5
			c2.2,0.1,3.4-2.1,4.2-4.3c4.1-11.5,10.8-21.3,18.5-30.6c15.2-18.2,31.2-35.6,47.8-52.4c2.1-2.2,4.4-4.2,5-7.3
			c0.6-3.6,2.7-6,5.2-8.2c4-3.5,6-7.4,4.3-12.8C575.5,587.7,577.6,584.4,582.4,583z"/>
		<path d="M362.3,593.3c-0.3-0.4-0.6-1.3-1.5-0.8c0.1,0.4,0.3,0.8,0.5,1.2c1.9,3,3.7,6,5.6,9C366.3,599.1,364.4,596.1,362.3,593.3z"
			/>
		<path d="M369.3,609.7c0,0.1,0.1,0.3,0.1,0.4c0.1,0,0.3-0.1,0.3-0.1c0-0.1,0-0.3-0.1-0.4C369.5,609.6,369.3,609.6,369.3,609.7z"/>
		<polygon points="368.7,607 368.5,606.6 368.4,607 		"/>
		<path fill="#6E5B70" d="M344.3,579.7c-0.6-0.3-1.2-0.5-1.8-0.7c-0.2,0.8-0.2,1.5-0.1,2.3c1.5,5.6,2.3,11.4,2.5,17.2
			c-0.1,1.3,0.7,2.6,1.9,3.1l16.7,7.8c1.2,0.5,2.3,0.9,2.3-1c-0.1-0.3-0.1-0.7-0.2-1C361.2,596.3,353.9,586.7,344.3,579.7z"/>
		<path d="M367.6,603.6l-0.5-0.5C367.1,603.4,367,603.8,367.6,603.6z"/>
		<path fill="#A09AB6" d="M883.5,423.3c-0.7,0.6-1.8,1-1.6,2.2c0.6,0.2,1.2,0.2,1.8,0c18.6-4.9,36.1-20.5,35.4-42l0,0
			c-0.5-16.3-8.3-29.9-16.3-43.4c-0.3-0.5-0.9-0.7-1.4-1.1c0,0.6,0.1,1.3,0.2,1.9c3.3,13.1,5.5,26.4,4.1,40
			C904,398.1,896.1,411.9,883.5,423.3z"/>
		<path fill="#A09AB6" d="M736.5,862.3c-1,0.8-3,1.7-2.5,2.7c0.6,1.3,2.3-0.1,3.5-0.4c18.7-5.2,36.4-12.7,52.7-23.5
			c33.4-22.1,50.1-53.3,50.5-97.1l0,0c0-12.1-3.7-32.6-9.5-48.5c-0.3-0.7-0.2-2.1-1.1-2c-1.4,0.1-0.8,1.5-0.9,2.4
			c-0.9,7.3-1.4,14.6-2.6,21.8c-6.9,42.9-26.8,79.4-55.2,111.7C760.7,841.5,749,852.4,736.5,862.3z"/>
		<path fill="#F1F2F4" d="M702.7,937.5c-8.2-9.2-15.5-19.2-23.2-28.8c-0.5-0.6-0.8-1.5-1.8-1.4c0.3,0.7,0.6,1.4,1,2.1
			c6.7,10.4,13.4,20.7,20,31.1c0.7,1,2.3,2.5,0.9,3.4s-2-1.3-2.6-2.3c-9-13.4-19.2-26.2-26.1-40.8c-4.3-9.1-11.5-16.2-14.7-25.7
			c-1.2-3.7-3.1-1-4.5-0.1c-10.4,7.3-21.1,13.9-32.3,19.9c-7.5,4-15.6,6.8-22.5,11.9c-2.4,1.8-5.1,1.3-7.2-0.8
			c-18.3-18.5-32.5-39.6-39.6-64.9c-1-3.6-0.9-7.3,0.1-10.9c2.5-8.3,3.6-17,3.3-25.6c-0.2-6.6,1.9-12.1,7.1-16.3
			c3.2-2.6,4.9-6.2,6.3-10c6.3-17.2,12.6-34.4,19.7-51.2c4.2-10,4.2-20.4,1.8-30.9c-1.6-7.1-2.7-14.4-4.6-21.5s1.7-13.4,2.5-20.1
			c1-8.5,0.1-17-0.8-25.4c-0.1-0.9-0.5-2.4-1.1-2.6c-1.1-0.3-1.3,1.2-2,1.9c-8.7,8.7-9.6,21.3-15.4,31.5
			c-7.1,12.4-13.6,25.3-25.4,34.2c-2.5,1.9-3.2,4.1-2.8,7.3c1.2,11.3,0.4,22.7-2.3,33.7c-1.4,5.8-1.8,11.7-5.1,17.4
			c-2.3,3.8-0.4,9.8,0.2,14.7c2.3,19.1,8,37.4,12.7,55.9c8,30.8,16.1,61.5,24.4,92.1c2.2,8.3,1.5,17-2,24.8
			c-4.1,9.8-9.3,19.1-14.2,28.6c-4.4,8.6-9.1,17-11.7,26.4c-0.4,1.4-0.8,3-2.7,3.2s-2.6-1.2-3.4-2.5c-4-6.5-7.3-13.4-10-20.6
			c-3.2-8.3-9.5-14.8-12.9-23c-1.1-2.7-3.7-1.8-5.6-0.8c-3.7,2-7.2,4.2-10.8,6.3c-4.3,2.5-5.9,1.9-6.7-3.1
			c-2.4-16.8-4.6-33.6-7-50.4c-1.4-9.6-3-19.1-6.2-28.2c-3.2-9.1-3.4-18.2-2.7-27.6c1.9-25.2,3.7-50.5,5.8-75.7
			c0.4-5.1-0.5-8.5-5-11.7c-9.9-7.2-17.1-16.9-22.3-27.8c-7.7-16.2-19.3-29-32.2-41c-7.5-6.9-15.2-13.5-22.8-20.2
			c-2.2-2-4.6-4-7.5-4.8c-5.3-1.5-10.2-4.4-14-8.4c-2-2-3.3-2.4-3.8,0.9c-1.5,9.7-3,19.4-4.5,29.1c-0.5,3.1,0.2,6.4,2,9
			c3.2,5,6.3,10.2,9.6,15.2c3.1,4.7,4.6,9.7,3.7,15.2c-1.6,10,1.1,18.9,6.7,26.9c15,21.4,29.3,43.4,47.1,62.7c0.9,1,3.8,2.3,0.4,3.9
			c0.4,0.9,0.8,1.8,1.3,2.6c4.3,6.3,8.7,12.6,11.2,20c0.6,1.4,1.7,2.5,3,3.3c5.6,4,7.2,8.1,4.6,14.6c-6.9,17.7-14.3,35.2-25.8,50.5
			c-5.7,7.5-9.6,16.4-16.5,23.1c-2.6,2.5-4.9,2.6-8,1.3c-11.2-4.7-20.8-12.5-32.7-15.8c-3-0.8-6-2-9-2.9c-1.2-0.3-3.4-0.5-2.8,1.4
			c1.2,4-0.5,8.2,1.2,12.2c4.1,9.5,4.6,20,7.4,29.9c0.4,1.3,0.8,3.3-0.4,3.6c-2.2,0.5-1.9-2-2-3.2c-1.4-14.2-7.4-27.2-9.8-41.2
			c-0.7-4-4-6.2-7.3-7.7c-7.4-3.5-15-6.5-22-10.6c-0.9-0.5-1.9-1.1-2.7-0.3s-0.5,1.9-0.2,2.8c1.8,5.4,3.4,10.8,5.4,16.1
			c4.1,10.8,7.1,21.8,10.3,32.8c0.3,0.9,1.6,2.4-0.2,2.9c-1.2,0.3-1.3-1.3-1.7-2.1c-1.2-2.5-1.1-7.1-3.3-7.2c-3-0.1-3.3,4.4-4.7,6.9
			c-7.7,14.3-18.3,26.6-27.8,39.6c-5.6,7.7-10.8,15.6-16.1,23.5c-1.5,1.8-2.5,4-3.2,6.2h448.4c-4.6-18-9.7-35.9-13.7-54
			C716.5,957.9,710.9,946.7,702.7,937.5z M549.7,722c1.6-2.7,3.2-5.4,4.9-8c3.8-6.2,7.7-12.3,11.6-18.5c0.5-0.8,0.9-2.2,2.1-1.6
			s0.4,1.8,0.1,2.7c-3.8,10-10,18.6-16.7,26.8c-0.3,0.3-0.7,0.6-1.1,0.9C548.9,724,549.2,722.9,549.7,722z M396.6,701.4
			c-0.7,0.4-1.5-0.5-1.9-1.2c-6.4-9.2-11.5-19-16.4-29c-0.3-0.7-0.5-1.5,0.2-2.1c0.9,0.1,1.7,0.7,2,1.5c5.3,9.3,10.7,18.7,16,28.1
			C397.1,699.6,397.6,700.7,396.6,701.4z M612.3,948.8c-1.6,6.3-4.3,12.2-7.2,18c-5.9,11.9-11.9,23.7-17.9,35.6
			c-0.4,0.7-0.9,1.4-1.3,2c-1.3,0.2-1.2-0.7-1-1.2c0.3-1.1,0.7-2.2,1.2-3.2c8-17.3,18-33.7,24.1-51.8c0.2-0.7,0.4-1.9,1.4-1.8
			C613.2,946.7,612.5,948,612.3,948.8z"/>
		<path fill="#FEEBE4" d="M273.1,558.4c17.4,10.5,35.2,20.2,51.2,32.9c4.1,3.2,9.2,4.7,13.9,6.8c3.5,1.6,3.9,0,3.8-3
			c-0.3-7.1-1.4-14.2-4.7-20.3c-5.5-10.1-7.3-20-2.3-30.7c0.5-1.2,1.4-3.1,0.4-3.7c-1.4-0.8-2.5,1-3.7,1.8c-0.9,0.7-1.9,2-2.9,0.9
			c-1.3-1.4,0.5-2.3,1.4-3c5.9-4.6,12.5-8.4,19.4-11.2c1.3-0.5,3.2-2,3.9-0.2c0.7,1.8-1.7,2.1-3,2.5c-3.8,1.3-3.8,3-0.9,5.4
			c1.4,1.2,2.8,2.3,4.2,3.5c0.7,0.6,1.9,1.3,0.9,2.4c-1,1.1-1.9,0.1-2.6-0.5c-2.1-1.6-4.1-3.4-5.9-5.3c-1.8-2.2-3.5-2-5.5-0.5
			c-1.5,1.1-4.1,9.8-3.3,11.4c0.4,0.8,1.3,1.2,2.1,1c4.7-0.2,9.3-0.3,14-0.7c3.7-0.3,5.8-2.6,6-6.2c0.5-7.3,1.3-14.6,1.2-21.9
			c-0.1-8.9-1.9-9.8-10.5-8c-11.6,2.4-22.3,7.5-33.6,11.1c-3,1-5.9-0.2-6.5-2.2c-0.8-2.6,2.1-0.3,3.1-1c0.4-0.3,0.7-0.6,0.8-1.1
			c0.6-3.4,2.3-7.2,1.4-10.2c-1.1-3.6,0.7-3.7,2.7-4.8c9-5,18.6-9,25.8-16.7c0.5-0.5,1-1,1.7-0.6c0.4,0.3,0.6,0.7,0.6,1.2
			c-1.2,3.6,1.1,7.4-0.6,11.1c-1.1,2.4,0.1,5.2,0.9,7.8c0.5,1.7,1.4,3.2,3.5,2.6c2.4-0.7,6,0.4,6.5-3.2c0.7-4.6,2.9-8.5,4.8-12.5
			c1.5-3.2,1.5-6.3-1.1-8.8c-5.2-5-9.2-11-13.5-16.7c-1.5-2-2.8-2.7-5.3-1.2c-11.3,6.8-23.1,12.6-35.4,17.3
			c-8.5,3.4-14.3,8.9-15.9,18.2c-0.5,2.6-1.7,5.1-3.4,7.1c-0.4,0.5-1,1.1-1.7,0.6c-0.6-0.3-0.9-1.1-0.6-1.7c0.1-0.1,0.2-0.3,0.3-0.4
			c2.9-3.8,3.3-8.6,5-13c1.3-3.3,3.2-6.5,6.3-8.1c5.3-2.8,8.9-6.4,8.7-12.7c0.1-0.5,0.2-1,0.4-1.4c0.1-0.5,0.5-1.1,0.3-1.4
			c-0.6-0.7-1.1,0.1-1.6,0.3c-1,0.4-2,2-2.9,0.5s0.9-2.3,1.8-3c5.8-4.8,10.5-10.7,14.8-16.8c3.4-4.7,6.8-9.5,10.1-14.2
			c0.6-0.9,1.3-2.7,2.5-1.8c4.5,3.5,9.3,2,13.6,0.7c5.2-1.5,7.7,0.3,9.6,4.7c2.1,4.6,5.6,7.3,10.9,7.4c2.1,0.1,4.3,0.4,6.4,0.7
			c0-2.5-2.5-3.1-3.4-5c-3.7-7.3-7.6-14.4-11.1-21.8c-1.6-3.2-3.6-4.5-7.1-3.7c-7.4,1.8-14.4,0.8-21.5-1.7c-7.5-2.6-11.1-1-14.8,6
			c-4.8,9.2-11.5,17.1-17.2,25.7c-1,1.3-2.3,2.4-3.6,3.4c-0.6,0.5-1.6,0.9-2.2,0.1c-0.2-0.2,0.2-1.2,0.6-1.6
			c8.1-9.1,8.4-20.1,8.6-31.6c-0.1-1.7-0.3-3.9-0.3-6c0-1-0.5-2.7,1-2.9c1.5-0.2,1.7,1.4,1.8,2.5c0.2,4.4,2.5,3.6,5.3,2.3
			c6.5-3,13.2-5.5,17.8-11.5c0.6-0.8,1.2-1.8,2.4-0.9c0.8,0.7,0.3,1.5-0.2,2.2c-0.6,0.8-1.1,1.6-1.8,2.4c-3.1,3.6-2.7,5.3,2,6.9
			c2.2,0.7,4.5,0.9,6.8,1.5c2.8,0.7,3.4-0.2,2.1-2.7c-3-6.1-6-12.2-9.1-18.3c-1.8-3.5-4.1-4.3-7.6-2.1c-5.1,3.1-10.8,4.1-16.7,4.6
			c-14.8,1.4-14-2.3-19.2,15.2c-3.4,11.7-7.1,23.3-15.7,32.5c-1.3,1.4-2,3.2-1.9,5.1c1.1,13.5-2.1,26.8-0.8,40.3
			c1.5,16.7,0.2,33.6-0.8,50.3C263.5,548.9,266,554.1,273.1,558.4z"/>
		<path fill="#A09AB6" d="M787.6,681.3c-4.2-33.8-13.1-66.5-24.3-98.6c-9.8-28-23.4-54.3-33-82.4c-5.2-15.3-10.9-30.3-16.2-45.6
			c-2.7-7.9-6.4-14.7-14.5-18.5c-4.7-2.2-8.6-5.7-12.5-9.1c-1.7-1.5-3.5-3-5.3-4.5c-0.2,2.8,2.5,4,3.5,6.1c0.5,1.1,2.2,2.2,0.9,3.3
			c-0.8,0.6-1.9-0.9-2.7-1.8c-16.5-19.9-29.5-41.8-36.6-66.9c-3.1-11.1-4.2-22.5-5-34c-0.1-1.6,0.3-3.4-1.1-4.7
			c-1,1.2-0.6,2.7-0.8,4.1c-2.3,14.6-4.1,29.3-8.4,43.5c-0.4,1.2-0.5,3.3-1.9,3c-1.5-0.4-0.5-2.2-0.2-3.4
			c7.6-36.5,10.9-73.8,10.1-111.1c-0.2-9.8,0.2-19.7-1.8-29.4c-0.6-3.1-1.6-4.4-5.3-4.1c-21.6,1.9-41.8,9.5-62.5,14.9
			c-2.5,0.6-3.1,2.1-2.6,4.4c1.7,7.7,1.2,15.6,1.5,23.4c1.3,34.1-6,67.9-21.4,98.3c-0.3,0.7-0.5,1.4-0.7,2.2
			c1.1,0.2,1.3-0.8,1.8-1.4c6.7-8.3,12.2-17.6,16.1-27.5c10-26.2,14.9-54,14.5-82c0-0.9-0.5-2.3,1-2.2c1.3,0.1,1,1.5,1.1,2.4
			c0,6.7,0.3,13.3,0,20c-1,24.6-1.5,49.2-9.9,72.8c-3.7,10.5-6.5,21.4-15.4,29.1c-0.4,0.5-0.8,1-1.1,1.6c1,0.7,1.5-0.4,2.1-0.8
			c11.3-9.8,22.8-19.4,33.9-29.4c8.2-7.4,14.7-16.3,21.1-25.3c0.8-1.1,1.4-3.5,3-2.4c1.4,0.9-0.3,2.7-1,3.9c-2.4,4.8-5.5,9.2-9.2,13
			c-4.1,4-4.7,8.4-3,13.7c10.9,34.1,27.6,64.9,52,91.3c3.9,4.2,8.1,8.4,14.2,9.4c3.8,0.6,7.3,2.3,10.1,5c12.1,11.2,21.9,24,26,40.1
			c2.7,10.2,3.7,20.9,11.2,29.2c0.2,0.3,0.3,0.6,0.4,0.9c4.1,9.2,8,18.6,12.4,27.7c14.2,29.2,28.8,58.1,39.7,88.8
			c10.6,29.9,15.7,60.2,12.3,92c-3,29-15.7,53.7-31.9,77c-2.1,3-4.4,6.2-7.4,8.1c-14.2,8.7-28.1,17.8-43.9,23.6
			c-7.3,2.7-14.8,5-22.2,7.7c-4,1.4-7.4,4.2-8.8,8.1c-0.7,2,7.5,4.3,12.6,3.1c12.7-2.9,23.9-9,34.8-15.8c27-16.9,45.1-42,61.6-68.3
			c2-3.5,3.6-7.1,4.9-10.9c7.5-19.9,9.5-40.7,9.3-63.2l0,0C789.3,700.3,788.8,690.8,787.6,681.3z M595.2,344.3
			c-0.9,1.3-1.6,4.2-3,3.2s0.4-3.2,1.3-4.7c8.8-14.7,16.2-30.2,22-46.3c6.2-17,10.6-34.7,13.1-52.6c0.2-1.2-0.3-3.4,1.3-3.2
			c1.9,0.2,0.9,2.4,1.1,3.5c-2,19.5-7.1,38.1-13.7,56.3C611.8,315.8,604.4,330.6,595.2,344.3z"/>
		<path fill="#A09AB6" d="M841.1,428.8c8.6,0.6,17.3,0.6,25.9,0c4-0.4,7.8-1.4,11.1-4c7.3-5.7,13.3-12.7,17.8-20.8
			c0.7-1.2,1.8-2.3,1.3-3.9c-1.2,0.5-2.4,1-3.5,1.7c-16.2,11.7-33.8,20.5-53.6,24.4c-0.9,0.2-1.6,0.5-1.9,1.4
			C838.7,428.9,839.9,428.7,841.1,428.8z"/>
		<path fill="#FFFFFF" d="M697.6,772.9c-2,12.3-6,24.3-5.9,37c0.5,5.1,0.9,10.3,1.4,15.4c0.1,1.1-0.4,2.6,0.9,3.2
			c1.6,0.7,2.3-0.8,3.2-1.7c7.7-7.8,14.3-16.7,19.5-26.3c19.2-35.2,22.7-73.3,19.6-112.3c-2.5-32.4-9.8-64-17.7-95.5
			c-1.2-5-2.2-10-4.9-14.5c-0.7-1.1-0.9-3.1-2.3-3s-1.2,2-1.6,3.3c-0.9,4.1-1.2,8.3-0.8,12.4c0.6,7.3-0.2,14.7-2.3,21.7
			c-1.6,5.3-1.8,11.1-1.5,16.8c0.5,9.3,1.2,18.6,1.4,27.9c0.3,15.6-0.6,31.3-1.8,46.9C703.3,727,701.3,750.1,697.6,772.9z"/>
		<path fill="#CEBAC4" d="M661.8,484.8c3.4-2.2,6.8-4.1,10.3-6.1c2.9-1.7,5.2-1.1,7.4,1.6c7,8.7,13.1,18.1,18,28.1
			c6.1,12.7,5.9,26.5,7.7,39.9c1,7.2,1.6,14.6,2.4,21.8c0.1,0.9,0.1,2.1,1.2,2.4c0.2,0.1,0.9-1.2,1.2-2c1.1-3.3,1.7-6.7,1.7-10.2
			l0,0c-0.1-1-0.2-2.5-0.5-4c-2.6-15.5-5-31.2-8-46.5c-4.8-24.4-17.5-44.5-43.1-53.1c-2.5-0.9-2.9-0.4-2.9,1.8
			c0,3.2-0.5,6.7-2.3,9.1c-4.7,6.2-1,11,1.9,16.1C658.1,486,659.6,486.2,661.8,484.8z"/>
		<path fill="#A09AB6" d="M411.6,280.3c-5.8-1.2-12,3.8-12.1,11.6c0.5,6.4,0.8,14.5,1.8,22.6c1.7,13,3.9,26,8,38.5
			c0.3,0.7,0.7,1.4,1.1,2.1c0.2-0.7,0.3-1.5,0.4-2.2c0.2-8.3,0.8-16.7,0.5-25c-0.4-14.4,3.7-28.6,2.3-43
			C413.4,283.1,414.1,280.9,411.6,280.3z"/>
		<path fill="#A09AB6" d="M473,266.5c0.4-1.6,1.7-3.5,0.4-4.7c-1.5-1.5-3.3,0.4-5,0.9c-3.2,1-6.2,2.7-9.4,3.3
			c-10,1.9-15.6,8.6-20.2,17c-7.6,13.9-11.7,29-15.9,44c-3.1,11.2-5.9,22.5-6.1,34.3c0.1,0.6,0.2,1.3,0.3,1.9
			c0.3-0.5,0.6-1.1,0.8-1.7c0.8-3.4,1.9-6.8,2.2-10.2c1.1-11.9,7.8-21.3,13.1-31.5c4.2-8.1,8.4-16.3,12.6-24.4
			c0.6-1.2,1-3.6,2.8-2.7c1.5,0.8,0,2.7-0.7,4c-2.4,4.6-4.5,9.3-7.4,13.6c-13.5,20.2-13.7,43.3-14.4,66.2c0,1.1-0.2,2.8,1,3.1
			c1,0.3,1.3-1.2,1.6-2.1c7.8-18.5,20.7-32.3,38-42.4c6.3-3.5,12-7.9,16.9-13.3c5.2-5.9,10.7-11.4,16.7-16.5
			c5.3-4.5,8.9-10.2,11.6-16.5c-3.1,1.9-4.5,5.2-7,7.7c-0.8,0.8-1.8,2.5-2.6,1.8c-1.3-1.1,0.2-2.4,0.9-3.4c2.8-3.9,5.7-7.8,8.5-11.7
			c6.2-8.3,11.3-17.3,15.3-26.8c1.3-3.1,0.7-4.4-3-4.6c-6-0.3-11.9-1.2-17.8-2.5c-7.3-1.9-13.7-1.7-19.3,4.1c-1.8,1.7-4,3-6.4,3.8
			c-3.6,1.2-5,3.7-5.8,7.2c-3.5,14.4-6.8,28.8-14.1,41.9c-1,1.8-2.4,5.6-3.4,4.9c-2-1.4,0.6-3.8,1.4-5.6
			C464.6,293.1,469.9,280.2,473,266.5z"/>
		<path fill="#3F5197" d="M368.3,332.8c3-0.2,2.5-2.5,2.7-4.4c0.2-2.7-1.5-3.4-3.8-3.4s-2.2,1.5-2.1,3
			C365.2,331,366.4,332.9,368.3,332.8z"/>
		<path fill="#391D25" d="M393.8,324.8c0.1-2.6-2.8-1.5-4.3-2.3c-0.5-0.2-1-0.3-1.5-0.1c-2.4,1-7,0-7.1,2.1c0,2.5,4.4,1.2,6.6,2.1
			c0.6,0.1,1.3,0.2,1.9,0.2C390.8,326.3,393.8,327.9,393.8,324.8z"/>
		<polygon points="479.1,254.9 479.9,254.9 479.7,254.4 		"/>
		<path d="M513.2,287.7l-0.5-0.3c-0.2,0.5-0.4,1-0.6,1.5L513.2,287.7z"/>
		<path fill="#A09AB6" d="M308.8,416.8c-2.4,1.1-4.5,2.9-5.9,5.2c-2.2,3.7-1.4,8.1-2.5,12.4l0,0c0,0.4-0.1,1.5,0.1,1.6
			c0.9,0.3,1.5-0.5,1.9-1.2c3.1-4.9,6.2-9.8,9.1-14.8c0.7-1.1,2.8-2.2,1.5-3.6C312,415.4,310.2,416.1,308.8,416.8z"/>
		<path fill="#FEEBE4" d="M344.9,352.7c-3.8-3.4-4.7-1.9-5,2.4c-0.6,7.8-0.7,15.6-0.2,23.5c0.3,6.2-0.3,12.7,3.7,18.3
			c13.2,19,28.6,36,47.7,49.3c11.4,8,24.2,13.2,36.6,19.2c10.8,5.2,20.5,3.8,30.8,0.4c5.7-1.9,11.3-3.8,17-5.8
			c29.8-10.3,55.2-27,74.8-52c5.5-6.9,9.8-14.7,12.6-23.1c0.3-0.8,0.9-2-0.1-2.7c-0.3-0.2-1.4,0.7-2,1.1c-4.9,3.5-9.7,7-14.6,10.5
			c-4.9,3.5-10.6,5.6-15.9,8.3c-0.8,0.4-2.3,1-2.7,0.1c-0.7-1.5,1.1-1.6,2-2.2c2.5-1.4,5.1-2.6,7.4-4.1c15.5-10.5,27-24,31.1-42.9
			c-7.3,7.4-14.8,14.8-22,22.3c-2.9,3-6.1,5.7-9.4,8.1c-0.9,0.6-2.2,1.9-3,1c-1.2-1.3,0.6-2.3,1.4-3.2c9.6-10.8,15.7-23.4,20.4-36.9
			c0.3-1,1-2.2,0.1-2.8c-2.9-2.1-6.5-0.9-9.7-1.3c-2.2-0.3-2.2,1.5-2.7,2.9c-2.2,7-4.7,14-9.9,19.4c-5.9,6.2-13.4,9.5-22,8
			c-7.2-1.3-9.1-7.4-10.8-13.5c-0.7-2.5-0.4-3.7,2.3-4.1c1.2-0.2,3.1-0.3,2.8-2.1c-0.2-1.4-1.8-2-3.2-1.8c-3.5,0.5-4.5-1.3-4.3-4.3
			c0.1-2.1-0.7-2.3-2.3-1c-2.3,1.9-4.8,3.7-7.2,5.4c-0.9,0.6-2.1,1.8-3,0.5s0.7-2,1.6-2.6c5.9-4.3,11.4-9.2,16.5-14.5
			c8.2-8.7,14.1-19,19.3-29.6c7.2-14.7,12.7-30,15-46.3c0.2-1.7,1.2-4.2-2-4.7c-2.7-0.5-4.3,0.5-5.3,3.2c-2.1,5.8-4.3,11.5-6.7,17.2
			c-3.8,9.1-7.5,18.5-14.4,25.6c-15.3,15.6-29.8,32.3-49.1,43.7c-15.2,9-24.6,23.1-31.2,39.2c-0.5,1.2-1.3,2.3-0.9,3.8
			c0.2,0.6,0.8,1.5,0,1.7c-0.5,0.1-1.6-0.6-1.8-1.2c-1.3-3.1-1.8-6.4-1.7-9.7c0.5-12,1.1-23.9,1.7-35.9c0-1,0-2,0-3
			c-1.5,0.4-1.3,1.8-1.7,2.8c-0.7,2.1-1.2,4.2-1.6,6.3c-2.3,10.2-4.6,20.4-6.9,30.6c-0.2,0.7,0.1,1.7-1,2c-0.2-0.8-0.4-1.5-0.4-2.3
			c-0.4-15.5,1.5-30.9,5.6-45.8c0.9-2.5,1-5.2,0.4-7.8c-1.3-5.3-2.1-10.7-3.1-16.1c-0.2-1.2-0.4-2.9-1.4-2.9c-1.4,0-1.1,1.8-1.1,2.9
			c-0.4,6.3-0.9,12.6-1.1,18.9c-0.4,12.6-0.7,25.3-1,38c0,1,0.6,2.6-1,2.9c-1.5,0.2-1.7-1.4-2-2.4c-3.2-9.8-7.2-19.4-7.9-29.8
			c-0.1-2-0.5-3.8-2.9-3.9c-2.1-0.1-2.6,1.6-3,3.3c-0.9,4.2-2.5,8.3-4.8,12c-8.5,13.6-22.8,15.1-34.8,4.6c-6.9-6.1-6.8-14.6-9.7-22
			c-1.2-3-0.6-6.6,0.8-9.8c0.3-0.8,0.4-1.9-0.4-2.2c-1-0.4-1.3,0.8-1.6,1.5c-0.8,1.6-1.4,3.4-1.9,5.1c-1.8,9.6-6.1,19.5,3.1,28
			c0.9,0.8,2.1,2.4,1.2,3.4C347.2,354.9,345.8,353.4,344.9,352.7z"/>
		<path fill="#A09AB6" d="M419.2,278.6c-2.2,0.6-3.6,1.7-3,4.2c1.8,11.3,3.6,22.6,5.5,33.9c0.2,1-0.1,2.8,1.1,2.9
			c1.4,0,1.1-1.8,1.4-2.9c4.8-15.2,9.3-30.5,19.3-43.5c0.3-0.5,0.4-1.1,0.5-1.7c-0.6,0.1-1.2,0.2-1.9,0.3
			C434.4,274.1,426.8,276.4,419.2,278.6z"/>
		<path fill="#FEEBE4" d="M346.7,307.9c0,1.7,2.2,1.6,3.5,2c14.6,4.1,29.8,4.8,43.3,6.5l0,0c4.1,0.7,5.5,0.1,4.8-3.2
			c-0.7-3.3-0.8-6.9-1.2-10.4c-0.2-2.1-0.1-4.5-2.6-5.4c-2.1-0.8-2.1-0.8,0-2c2.8-1.5,2.7-4.7,1.5-7c-1.6-3.1-3.4,0-4.8,0.7
			c-13.1,6.9-27.1,11.8-41,16.7C348.9,306.4,346.7,306.2,346.7,307.9z"/>
		<path fill="#3F5197" d="M362.8,331.3c-0.4-2.9-1.7-5.7-2-8.6c-0.2-2.5-1.1-3.8-3.3-4.2c-2.1-0.4-4.1,0-5.3,1.9
			c-1.8,2.6-3.2,6.1-1.6,8.4c2.2,3.4,2.4,6.9,3.3,10.5c2,8,10.8,13.8,19.3,14.2l0,0c1,0.3,2,0.2,2.9-0.3c6-3.7,11.6-7.8,14.6-14.5
			c2.6-6,1.7-7.6-4.6-8.6c-1.8-0.3-3.9-0.1-5.3-0.9c-4.4-2.5-6.1,0.3-7.2,3.5c-1.1,3.1-3.4,3.5-5.9,3.2
			C365,335.6,363,333.7,362.8,331.3z"/>
		<path fill="#A09AB6" d="M351,303c13.5-4.7,26.9-9.8,39.6-16.4c0.6-0.3,1.1-0.6,1.6-1c-0.4-1.1-1.1-0.7-1.6-0.6
			c-12.7,2.7-25.5,4.7-38.3,6.3c-1.5,0.2-2.8,0.8-3.1,2.7c-0.2,2.1-0.6,4.3-1.1,6.3C347.3,303.4,348.3,304,351,303z"/>
		<path fill="#A09AB6" d="M796.4,629.1c-0.7-1.1-2.1-3-2.4-2.8c-1.7,0.8-0.8,2.5-0.8,3.9c0.1,13.6,1.8,27.3-3.8,40.3
			c-0.2,0.5-0.2,1-0.2,1.6c0.7,6.5,1.3,12.6,2,18.7c0.1,1-0.7,2.5,0.9,2.9c0.3,0.1,1.2-1.4,1.6-2.2c6.3-12.4,11.3-25.5,14.8-39
			c0.6-1.9,0.2-4-0.9-5.6C803.8,641,800.2,635,796.4,629.1z"/>
		<path fill="#CEBAC4" d="M366.7,913.7c-19.7-18.7-42.3-33.8-63-51.3c-0.5-0.4-0.9-0.7-1.4-1.1c-1.3,0.8-0.3,1.8,0,2.5
			c3.1,6.8,6.1,13.7,9.4,20.3c2.5,5,6.2,9.1,10.9,12.1c13.8,8.9,28.8,15,44.4,20c0.6,0.2,1.3,0.8,1.7,0.1c0.1-0.3-0.6-1.1-1-1.6
			C367.4,914.4,367.1,914,366.7,913.7z"/>
		<path fill="#7B7C9B" d="M250.7,660c-4.1-11.4-4.8-23.2-3.9-34.9c1.9-22.5,3-45.1,4-68.9c1.9-6.4-2.3-12.6-4.7-19.3
			c-4.9-13.8-7.8-28.2-10.4-42.5c-0.3-0.9-0.7-1.8-1.1-2.7c-0.1,0.9-0.1,1.8-0.2,2.8c-1.3,19,2,38.1-0.2,57.2
			c-1.9,16.8-0.7,34-4.4,50.6c-1.9,8.6-1.2,17.6,2,25.9c1.8,4.8,3.5,9.7,5.2,14.5c0.3,0.7,0.3,1.6-0.1,2.3c-0.5,0.6-1-0.3-1.5-0.7
			s-0.2-1.8-1.3-1.4c-0.2,0.1,0,1.2,0.1,1.9c0.8,4.4,1.2,8.9,2.4,13.2c0.8,3.1-1,7.3,3.4,9c2.9,12.2,8.5,23.4,13.2,34.9
			c1.2,2.8,1.8,6,4.2,8.3c-0.2-3-0.4-5.9-0.7-8.9C255.6,687.4,255.5,673.3,250.7,660z"/>
		<path fill="#EAE6E9" d="M364.9,698.1c-1.6,0.3-1.2,2.3-1.4,3.7c-0.8,7-2.3,9.3-8.4,9.7c-19.5,1.3-38.1-1.2-53-15.4
			c-13.8-13.3-27.2-26.9-38.3-42.6c-1.1-1.6-2.1-3-4.5-3.4c-1.9-0.3-2.8-0.8-2,1.5c3,9.6,4.2,19.5,6.4,29.2
			c2.4,10.9,4.6,21.8,6.9,32.7c0.2,1,0.6,2.4-0.3,2.7c-1.6,0.5-1.7-1.3-2-2.2c-0.8-2.4-1.3-4.8-1.9-7.2
			c-4.5-17.2-7.2-34.8-10.2-52.4c-1-6-3-11.4-4.9-17c-0.2-0.7-0.4-1.8-1.5-1.7s-0.8,1.3-0.7,2.1c0.1,2.7,0.2,5.3,0.5,8
			c0.8,6.7,4.6,12.5,5.5,19.2c1.8,13.3,3.5,26.7,4.9,40.1c3.9,38.4,7.5,76.8,16.9,114.4c1.8,7.8,5.1,15.1,9.8,21.6
			c6.7,9.1,15.3,16.2,24,23.3c16.5,13.3,34,25.3,49.3,39.7c13.4,12.6,29.1,20.7,44.8,29.4c3.5,1.9,6.1,1.3,8.5-2
			c12.5-17.5,24.6-35.3,33.4-55c2.7-6,7.7-11.4,7.2-18.8c-0.2-2.6,0-5.5-2.6-6.5c-3.9-1.6-5.1-4.8-6.6-8.2c-1.6-3.9-3.5-7.6-5.8-11
			c-16.3-23.5-32.4-47.2-49.3-70.3c-7.1-9.5-11.1-19.5-10.8-32l0,0c0.5-4.7,0.7-10.1-2.8-14.7c-3.3-4.4-6.2-9.1-8.6-14
			C366.8,699.8,366.3,697.9,364.9,698.1z M310.1,745.7c-1.9-0.8-3.4-2.1-4.4-3.9c-12-21.3-26.1-41.4-35.4-64.2
			c-0.3-0.8-0.7-1.5-1-2.3c-0.3-1-1.5-2.5-0.1-3s1.6,1.3,2.1,2.3c11.2,23.2,24.3,45.6,39,66.7c0.7,0.9,1.2,2,1.7,2.7
			C312.1,745.9,311.2,746.2,310.1,745.7z"/>
		<path fill="#6E5B70" d="M372.2,618.7c-0.2-1.1,1.5-6.9-3.7-3.2c-0.2,0.2-1.1-0.5-1.7-0.9c-9.4-6.2-19.8-10.1-30.1-14.4
			c-6-2.5-12-4.9-17.1-9.2c-4.9-4-10.2-7.6-15.6-10.8c-11.6-7.1-23.2-14.4-34.9-21.4c-5.6-3.4-8.2-8-7.6-14.5c0.2-1,0.1-2-0.1-3
			c-0.8-2.4-2.6-4.2-5-4.2c-3.1,0-2.1,2.9-2.2,4.6c-0.6,19.1-2.9,38.1-1.2,57.3c0.6,6.4-0.7,12.9-1.5,19.4c-0.8,6.8-0.2,13,4.1,18.9
			c7.4,10,13.6,20.7,22.6,29.6c7.3,7.2,13.9,15.2,21,22.7c12.6,13.5,28.1,19.6,45,19.3l0,0c3.8,0,6.1,0,8.4,0
			c6.4-0.2,7.8-1.6,8.3-7.9c0.2-2.8,0.6-5.6,1.2-8.4c3.9-16.3,6.9-32.9,9.1-49.5c0.3-2.1-1.9-3.9-0.6-5.5
			C375.5,631.7,373.6,625.1,372.2,618.7z"/>
		<path fill="#A09AB6" d="M236.6,678.2c-3-18.4-5.9-36.8-8.7-55.2c-0.2-1.6-0.2-3.3-1.5-4.6c-0.4,1.6-0.8,3.2-1,4.8
			c-2.4,31.2-4.6,62.4-4.3,97c-0.5,18.1,0.2,39.5,4.7,60.4c9.2,43.3,32.1,79.5,60,113.1c0.4,0.4,0.9,0.7,1.5,1
			c-0.1-0.6-0.3-1.2-0.5-1.7c-5.8-9.8-11.1-19.7-15.9-30c-23.1-49.4-32.1-101.9-32.1-156.1C238.9,697.2,238.1,687.6,236.6,678.2z"/>
		<polygon points="191,618 191.6,617.6 191.2,617.3 		"/>
		<path fill="#EBF4FB" d="M173.7,779.3c0.2-8.4,1.4-16.6,2.3-25.2c-0.3-2-0.7-4.3-1.1-6.6c-0.1-0.6-0.3-1.3-0.5-1.9
			c-0.2,0.6-0.3,1.3-0.4,1.9c-0.9,7.3-2,14.5-2.5,21.8c-1.9,26.8-1,53.2,8.5,78.8c3.9,10.5,10,19.8,15.5,29.5c1.4,2.4-1,5.1,2.2,7.2
			c4,2.6,7.2,6.4,10.8,9.6c1.1,0.9,1.8,2.4,3.5,2.4c-0.1-1.6-1.5-2.5-2.3-3.6C185,859.3,172.7,821.4,173.7,779.3z"/>
		<path fill="#A09AB6" d="M230.9,563c0-1.2,0-2.3,0-3.5c0.1-2.8,0.3-5.6,0.4-8.4c-2.1,2.2-2.7,5.1-3.7,7.8
			c-5.4,14.9-8.8,30-2.9,45.6c0.3,0.8,0.1,2.4,1.2,2.4c1.4,0,0.8-1.5,1-2.4C229.8,590.8,230.4,576.9,230.9,563z"/>
		<path fill="#FFFFFF" d="M191,618.1c-7.4,13-12.7,27-18.6,40.6c-8.1,18.8-15.1,37.6-13.3,58.8c1.2,14,0.4,28.3-0.5,42.4
			c-1.2,19.5-0.4,38.6,5.6,57.3c3.3,10.5,6.4,21.2,12.7,30.4c-0.3-1.2-0.6-2.4-0.9-3.6c-6.8-21.4-8.3-43.2-7.6-65.6
			c0.6-19.6,5-38.8,5.1-58.6c0-25,4.6-49.7,11.2-73.8C187.1,636.9,189.8,627.7,191,618.1z"/>
		<path fill="#A09AB6" d="M778.8,708.8c-0.2-1.6,0.2-4.2-1.2-4.5c-1.6-0.4-2.1,2.2-3,3.5c-8.3,13.3-17.7,25.9-29.7,36
			c-7,5.8-10.2,12.6-11.2,21.1c-0.1,0.8-0.4,2.2-0.2,2.3c1,0.5,1.8-0.4,2.4-1.1c3.9-3.9,7.9-7.7,11.5-11.8c9.6-11,16.8-24,28.2-33.4
			c2.7-2.3,3.9-5.9,3.1-9.3C778.8,710.6,778.8,709.7,778.8,708.8z"/>
		<path fill="#E3668D" d="M475.1,712.2c2.6-0.2,5.6-0.4,8.6-0.9c1.4-0.2,3.5-1,1.9-2.9c-5.3-6-8.1-13.7-14.3-19.2
			c-8.6-7.7-18.3-14-28.8-18.7c-20.8-9.3-41.7-18.4-62.7-27.3c-2.1-0.9-5.2-1.1-6,2.8c-1.4,6.7,4.2,15.3,11.2,16.8
			c0.8,0.2,1.6,0.2,2.3-0.2c0.7-0.7-0.2-1.5-0.6-2.1c-2.1-3.2-4.3-6.3-6.5-9.5c-0.3-0.5-0.6-1.5-0.4-1.8c0.9-0.9,1.4,0.2,2,0.7
			c0.7,0.7,1.3,1.5,1.9,2.3c15.8,20.8,35.6,38.1,58.2,51C452.1,709.1,463.2,711.5,475.1,712.2L475.1,712.2z"/>
		<path fill="#6E5B70" d="M594,644.5c-0.8,1.2-1.7,0.2-2.5-0.3c-1.3-1-1.8-0.5-1.7,0.9c0,1.6,0.2,3.3,0.3,5h0.1c0,0.8,0,1.7,0,2.5
			c0.5,11.2,2.7,12.7,13.1,8.9c0.6-0.2,1.2-0.5,1.9-0.7c9.2-3.7,17.2-9.3,25.8-14c13.4-7.3,27-14.3,40-22.3c8.2-5,16.4-9.4,25.9-11
			c4.7-0.8,7.5-3.5,7.8-8.3c0.7-12,1.4-23.9-0.3-35.8c-1.4-10.2-4.1-20.1-4.4-30.6c-0.6-20.5-5.5-39.5-21.9-53.8
			c-3.2-2.8-5.5-3.2-8.6-0.9c-6.5,4.8-13,9.8-18.6,15.8c-12.5,13.5-22.5,28.2-24.2,47.5c-0.6,5.7-3.3,11-7.4,14.9
			c-10.3,10-21.7,18.5-35.5,23.4c-3.7,1.3-5.3,3.7-3.5,7.8c0.8,2.3,1.5,4.8,1.8,7.2c3.2,13.9,4.5,28.3,11.5,41.1
			C594.1,642.6,594.6,643.7,594,644.5z"/>
		<path fill="#F1F2F4" d="M557.8,802.3c0.9-2.8,1.8-5.6,2.6-8.4c-0.2-0.2-0.5-0.3-0.8-0.4c-1.4,0.9-2.3,2.4-2.6,4
			c-0.5,1.6-0.5,3.3,0.1,4.8C557.3,802.8,557.6,802.8,557.8,802.3z"/>
		<path fill="#EAE6E9" d="M686.7,838c3.1-3.9,4.5-7.8,3.8-12.9c-1.5-10.2-1.9-20.5,0-30.8c8-44.2,12.6-88.9,13.7-133.8l0,0
			c-0.1-15.4-0.4-28-2-40.6c-0.2-1.5,0.3-3.8-2.3-3.6s-1.7,2.5-1.6,3.9c0.7,11.6-1.5,22.9-3.6,34.2c-8.1,42.7-23.3,83.2-39.5,123.3
			c-0.6,1.5-1.4,3-2.2,4.5c-8.4,15.3-15,31.5-21.3,47.7c-4.5,11.8-8.5,24.2-9.2,37.1c-0.1,1.2,0.2,3.1-1.7,2.9s-1.9-2.1-1.7-3.6
			c0.7-4.1,1.5-8.2,2.3-12.3c4.1-19.9,12.9-38.1,21-56.5c21-47.8,39.2-96.5,50-147.7c2-9.6,4-19.2,3.4-29.2c-0.2-3.4-0.6-5-5-3
			c-12.6,5.5-24.2,13.1-34.2,22.6c-11.5,10.9-22.9,21.7-31.6,35.1c-6.1,9.3-15.7,14.7-24.5,20.9c-2.2,1.6-4,0.6-5.3-1.7
			c-3.9-7.5-3-15.4,2.4-22c0.9-1.1,2.7-2.5,2-3.7c-0.9-1.6-2.7-0.1-4,0.3c-3.4,1.2-6.7,2.4-6.6-3.3c0-0.7-0.4-1.5-1.1-1.2
			c-0.5,0.2-0.8,1-1,1.6c-1,4.2,0.2,8.2,1.1,12.3c4.5,20.5,7.3,41.2,6.7,62.4c-0.2,8-1.6,15.9-2.6,23.8c-0.1,0.9-0.3,2.4-1.4,2.3
			c-1.3-0.1-0.9-1.5-0.9-2.4c0.2-3.5,0.5-7,0.8-10.5c0.8-8.1,2.5-16.2,0.6-24.3c-0.2-0.8-0.4-2.2-0.6-2.2c-1.3,0-1.3,1.3-1.5,2.2
			c-1,5.4-2.6,10.6-4.8,15.7c-12.3,27.3-22.5,55.5-30.4,84.4c-1.6,5.8-1.2,12,1,17.6c6.6,17.6,17.8,32.3,29.4,46.7
			c2.6,3.2,4.3,7.9,8.2,9.1c3.6,1.2,6.8-2.7,10.3-4.2C635.3,885.3,664.3,866.2,686.7,838z M586.6,805.3c-3.2,5.1-3.7,10.5-3.4,16.3
			c0.4,9.3-0.6,18.6,0.8,27.9c0.2,1.2,0.7,3.3-0.6,3.5c-1.7,0.3-1.4-1.8-1.7-3c-1.8-7.3-0.2-15-1.7-22.3
			c-2.3-10.8,1.4-20.2,5.6-29.7c0.4-1,0.3-2.5,1.9-2.5c0.7,0,0.7,0.4,0.7,3.1C588.4,800.9,587.8,803.3,586.6,805.3z"/>
		<path fill="#CEBAC4" d="M599.7,673.1c-4.1,6.5-4.4,12.1-2.7,18.7c0.6,2.2,1.5,2.5,3.1,1.3c8.2-6.4,17.7-11.2,23.6-20.5
			c7.7-12.1,17.4-22.9,28.6-31.8c1.3-1.1,3.1-1.9,3.6-3.8c-2.2,0.4-3.8,1.9-5.6,3c-11.3,7-22.5,14.3-34.4,20.3
			C609.6,663.4,603.9,666.4,599.7,673.1z"/>
		<path d="M675.5,904.4l0.3-0.1c0-0.1-0.1-0.2-0.1-0.3L675.5,904.4z"/>
		<path fill="#FFFFFF" d="M1024,0H0v1024h278.6c9.5-15.6,21.2-29.7,32.3-44.2c7.1-9.1,13.5-18.6,19.2-28.6
			c3.3-5.8,3.5-11.4,1.1-17.7c-4-10.4-7.5-21-11.2-31.5c-0.7-2.1-1.4-4.1-3.2-5.6c-5.7-4.7-9-11-11.9-17.7
			c-2.7-6.2-5.5-12.5-8.4-18.7c-1.9-4.1-4.2-8.1-7.6-11c-7.5-6.4-10.8-14.8-13.4-24c-8.5-29.9-12.9-60.5-15.6-91.4
			c-0.7-8.3-1.8-16.3-5.7-23.9s-7-16.2-10.4-24.3c-0.3-0.7-0.3-1.7-1.4-1.7c-0.2,0.6-0.3,1.2-0.3,1.8c1.1,31.4,0.8,63,6,94.1
			c8,47.3,25.3,90.9,53,130.2c0.3,0.4,0.6,0.8,0.9,1.2c0.8,1.2,2.5,2.5,0.7,3.8c-1.3,0.9-2.3-0.7-3.2-1.7
			c-11.6-12.2-22.3-25.2-32.2-38.8c-19-26.4-34.6-54.5-42.7-86.3c-4.7-18.3-5.8-37.1-6.2-56c-0.7-30.6,0.5-61.3,3.5-91.8
			c0.2-1.8,0.7-3.8-0.2-5.7c-1.3,1.5-1.3,3.4-1.7,5.1c-2.8,13.3-5,26.8-8.2,40.1c-3.8,15.5-7.7,31-10,46.8
			c-4.1,28.5-4.2,56.7,5.4,84.4c5.2,14.8,13.4,27.4,26,37c9.9,7.5,17.6,17.1,24.1,27.8c9.1,14.9,9.1,30.5,4,46.5
			c-2.3,7.3-6.5,13.8-10.7,20.2c-0.7,1-1.5,2-2.8,1.6s-0.9-1.7-0.7-2.6c5-18.9-2.9-35.3-10.1-51.8c-4.6-10.2-10.5-19.7-17.8-28.2
			c-16.6-20-25.8-43.7-33.2-68.2c-2.7-9.1-5-18.3-7.5-27.4c-0.2-0.6-0.5-1.1-0.9-1.7c-0.2,0.6-0.3,1.2-0.4,1.8
			c-4.8,56.1,12.1,104.3,51.7,144.5c4.5,4.5,10.1,7.7,15,11.6c0.9,0.7,2.7,1.6,1.5,3c-0.9,1.1-2.1-0.3-3-0.9
			c-23.1-16.5-45.5-33.8-62.9-56.6c-3.7-4.7-7-9.8-9.6-15.1c-1.8-3.6-4.2-6.8-7-9.7c-6.3-6.8-10.6-15-13.8-23.5
			c-6.5-17.3-9.9-35.2-9-53.7c1.2-22.7,4.7-45,9.3-67.2c2.8-13.4,3.2-27,4.6-40.6c2-18.7,5.8-37.2,11.3-55.1
			c6.3-21.2,13.7-42.1,22.2-62.5c8.7-20.4,11.4-42.3,16.2-63.7c8.6-38,16-76.2,21.7-114.7c3.7-24.7,6.4-49.5,11.1-74
			c0.6-3-1.3-3.2-3.2-3.8c-9.3-2.8-18.6-6-27.6-9.8c-23.4-9.6-34.6-36.4-25-59.8c2.9-7,7.4-13.1,13.2-17.9
			c14.2-11.8,28.7-23.4,45.8-31c3.7-1.7,4.8-4.8,5.1-8.5c0.5-5,1-9.9,1.4-14.9c0.9-9.8,4.6-18.4,9.9-26.8
			c11.6-18.3,20.8-37.9,29.9-57.6c5.9-12.7,14.4-22.7,27.4-28.5c2.9-1.4,6.1-1.8,9.2-1.1c11.6,2.7,23.5,4.6,34.7,9.2
			c6.5,2.7,13.1,2,19.6,0c7.5-2.3,14.9-4.8,22.6-6.1c2.1-0.5,4.1-1.5,5.8-2.8c9.7-6.2,19.4-12.4,29-18.7c3.2-2.2,6.9-3.4,10.7-3.6
			c13.3-0.3,26.6-1.2,39.9,0.7C490,7.4,495,9,499.5,11.5c10.6,6.1,20.5,13,29,22c2.1,2.1,4.4,4,7,5.4c13.3,7.9,26.6,15.8,39.9,23.8
			c7.6,4.5,14.3,10.4,19.7,17.5c6.3,8.5,14.2,15.6,23.3,20.9c13.5,7.7,18.3,19.5,18.6,34c0.2,7.2,0.3,14.3,0.3,21.5
			c0,3.3,0.8,6.1,3.3,8.5c3.4,3.2,4.2,7.1,2.4,11.4c-3,7.2-2.3,14.1,2.1,20.4c6.4,9.3,6.8,18.1-1.2,26.7c-2.7,2.9-2,6.6-1.6,10
			c0.7,7.8,2.7,15.3,4.4,22.9c6.2,27.6,19.1,52,36,74.4c9.9,13.2,20,26.2,31.1,38.4c0.9,1,1.2,3.4,3.7,1.6c1.3-1,1.9,0.8,2.4,1.7
			c9,17.3,24,27.7,41.4,35.2c18.8,8.1,38.5,13.9,58.7,17.5c12,2.2,23-2.3,34-6.3c14.9-5.4,28.9-12.9,41.8-22.1
			c5.7-4,6.4-10,6.8-15.9c1.4-19.7-0.6-38.9-10.6-56.6c-0.5-0.9-1.6-1.9-0.6-3.1c0.1-0.1,1.5,0.5,2,1.1
			c13.9,16.9,25.7,35.1,28.9,57.2c1.7,11.5-2.9,21.8-10.4,30.7c-14.4,17-33.8,21.2-54.8,21.6c-7.7,0.3-15.3,0-22.9-1
			c-2.1-0.4-4.3-0.3-6.4,0.2c-26.6,7.8-53,5.5-79.4-0.9c-0.5-0.2-0.9-0.3-1.4-0.4c-1.5,0.1-3.4-1.8-4-0.5s2.1,1.7,3.3,2.4
			c16.3,9.3,33,17.8,50.8,24.1c51.7,18,95.1,48.2,129.1,91.4c18.1,23,27.3,49.3,25.9,78.9c-0.5,11.2-3.1,22.1-7.8,32.3
			c-1.9,3.9-2.1,8.4-0.5,12.5c6.6,18.7,10.1,37.9,9.4,57.8c-1.7,48.2-39.6,107.4-104.4,111.2c-2.8,0.1-5.7,0.1-8.5-0.1
			c-1.4-0.1-3-0.5-3-2.1c0-2,1.9-1.4,3.1-1.5c16.8-2.1,32.5-7.2,46.1-17.5c19.1-14.5,28.5-34.7,32.3-57.8
			c7.3-43.9,0.7-86.5-11.4-128.7c-6.5-22.4-16.9-43.5-30.7-62.4c-4.9-6.8-12.2-11.3-18.3-17c-28.5-26.3-59.6-49.2-92-70.4
			c-4.3-2.8-8.7-5.6-13-8.3c-0.8-0.5-1.8-1.8-2.5-1s0.7,1.6,1.3,2.3c12.7,15,24.2,31,34.3,47.9c20.6,34.1,34.1,72.1,39.7,111.6
			c1.8,13.1,3,26.1,0.8,39.2c-0.4,2.5,0.5,4.6,1.4,6.7c9.2,20.7,14.6,42.3,14.5,64.8c-0.1,48.9-23.4,83.8-66.4,106.1
			c-15.9,8.2-32.8,13.7-50,18.5c-1.5,0.4-3.6,1.6-4.4-0.3c-0.7-1.6,1.7-2.1,2.8-2.9c40.7-29.2,71.3-66.2,89.2-113.3
			c6.7-17.7,10.1-36.1,11.8-55c1.4-16.4-5.3-30.2-13.2-43.7c-0.4-0.6-0.7-1.7-1.7-1.3c-0.5,0.2-0.7,1-0.9,1.7
			c-4.1,14.9-9.9,29.3-17.4,42.9c-1,1.9-0.8,3.8-0.8,5.8c0.6,26.4-1.8,52.2-12.7,76.7c-4.5,10.4-10.8,20-18.5,28.3
			c-6,6.5-10.6,14.1-16.7,20.5c-15.7,16.9-35.1,29.9-56.7,38.2c-7.6,2.9-15.3,5-22.9-0.2c-1.5-1-2-0.1-2.6,1c-1.3,2.8-1.3,5.9,0,8.7
			c2.1,4.9,4.9,9.5,8.3,13.6c14.2,18.3,28.4,36.6,42.7,54.8c2.7,3.4,4.7,7.3,5.7,11.5c5.2,21.3,10.6,42.6,15.9,63.9
			c0.1,0.8,0.2,1.7,0.2,2.5h289V0H1024z"/>
		<path fill="#E3668D" d="M579.1,605.6c-1.6-0.3-2.1,1.4-2.7,2.5c-4.2,7.2-9.4,13.8-15.4,19.6c-16.2,16.2-31.5,33-43.4,52.7
			c-0.5,0.9-1.1,1.6-1.9,2.3c-0.7,0.7-1.8,0.7-1.6-0.6c0.3-1.9,0.6-3.1-1.2-0.6c-5.4,7.6-11.1,14.9-13.9,24
			c-0.7,2.3-0.2,2.2,1.6,1.7c5.6-1.5,11.2-3.3,16.9-4.4c14.7-2.8,25.1-12.1,33.9-23c8.3-10.2,14.6-21.9,18.7-34.5
			c1.7-5.2,3.6-10.3,5.4-15.4c0.4-1,0.3-2.4,1.9-2.6c3.4-0.6,5.8-3.6,5.7-7l0,0c-1.3-3.8-2.2-7.7-2.8-11.7
			C580.2,607.6,580.4,605.9,579.1,605.6z"/>
		<path d="M657.5,636.2c0-0.1-0.1-0.3-0.2-0.4l-1.3,1.1C656.7,637,657.3,636.7,657.5,636.2z"/>
		<path fill="#E3668D" d="M536.1,704.2c0-2.2-0.4-3.5-3.2-2.5c-13.6,5.2-28.2,6.2-42,10.6c-7.9,2.6-16.4,3.2-24.6,1.8
			c-4.2-0.7-8.4-2-12.6-2.8c-0.9-0.2-2.8-1.8-2.5,1.2c0.1,1.9,1.2,5-0.7,5.2c-2.3,0.2-1.4-3.1-2.1-4.9c-0.1-0.3-0.2-0.6-0.3-1
			c-0.5-1.3-1.5-2.7-2.8-2.1c-1,0.5-0.2,2.2,0.2,3.2c4.5,11.9,10,23.2,19,32.5c3.2,3.2,6.1,6.7,8.6,10.4c2.3,3.4,4.6,6.6,9.6,4.3
			c1.2-0.5,3-0.1,4.4,0.5c7,2.8,13,1.4,19.3-2.6s12.5-9,21-8c2.8,0.3,3.9-2.4,4.4-4.7c2-10.7,4.7-21.4,4.5-32.5
			C536.1,709.8,536.1,707,536.1,704.2z"/>
		<path fill="#E3668D" d="M528.2,770.9c-0.4-4.2-0.9-8.8-1.2-13.5c-0.2-3.4-2.4-4.1-5.1-3.9c-5.3,0.4-8.7,3.9-9.6,10.4
			c-1.4,8.4-2.2,16.8-2.2,25.3c0,1.2,0.5,3.2-1.2,3.2s-1.2-2-1.2-3.2c-0.1-8.8,0.5-17.6,1.8-26.3c0.2-1,1.4-2.8-0.8-3.1
			c-3.9-0.4-9.1,5.9-8.4,9.8c0.4,2.3,2.5,4.3,1.3,6.9c-2.7-1.4-3.1-4.2-4-6.6c-1.4-3.5-3.6-5.5-7.2-5.9c-2.3-0.3-3.6,0.2-2.4,3
			c1.4,3.2,2.4,6.5,3.5,9.8c0.2,0.7,0.8,1.7-0.5,2c-0.4,0.1-1.1-0.6-1.4-1.1c-1.7-3.6-3.2-7.3-4.8-11c-0.4-0.8-0.4-2.2-1.7-1.8
			c-0.2,0.1-0.2,1.5-0.1,2.3c1.3,10.6,2.5,21.1,3.8,31.7c0.8,6.1,1.5,12.2,2.3,18.3c0.2,1.5,0.2,3.3-1.9,3.3c-1.8,0-1.1-1.7-1.2-2.7
			c-1.3-9.2-2.6-18.4-3.8-27.7c-0.3-2-0.4-4.1-0.6-6.2c-1.1,2.1-1.1,4.4-1.3,6.7c-2.1,24.2-2.5,48.5-3.7,72.8
			c-0.1,2.8,0.3,5.7,1.3,8.3c9.2,25.4,19.2,50.3,33.2,73.6c7.2,11.9,15.1,23.5,19.9,36.8c1.2,3.3,3.1,6.3,4.8,9.3
			c1,1.8,2.1,3.5,3.4,0.1c6.9-17.9,16.9-34.3,24.7-51.8c3.8-8.3,4.5-17.6,2-26.3c-6.1-23-12-46-18.2-69
			c-4.8-17.6-8.2-35.7-15.3-52.6C529.3,785.4,527.2,778.8,528.2,770.9z M517.6,845.5c-3.7-10.5-7.4-21-11-31.5
			c-0.3-0.8-0.5-1.5,0.4-2.1c1.2-0.1,1.5,0.9,1.8,1.6c4.4,10.2,8.1,20.8,10.9,31.5c0.2,0.8,0.7,1.8-0.4,2S517.9,846.2,517.6,845.5z
			 M530.4,905.1c1.2,0.3,1.3,1.4,1.5,2.3c2.1,9.2,4.2,18.4,6.3,27.6c0.7,2.9,1.3,5.8,1.9,8.4c-0.1,1.1,0.2,2.2-0.8,2.4
			c-1.4,0.3-1.6-1-1.8-1.9c-2.5-12.3-5-24.7-7.5-37C530,906.3,530.1,905.6,530.4,905.1z M529.2,892.6c-0.1,0.4-0.3,1.6-0.5,1.6
			c-1,0.1-1.4-0.7-1.6-1.6c-2.6-11.2-5.1-22.3-7.7-33.5c-0.2-0.8-0.5-1.8,0.6-2c0.8-0.2,1,0.7,1.2,1.3
			C524.2,869.6,527,880.9,529.2,892.6z"/>
		<path fill="#CEBAC4" d="M488.5,908c-0.3-0.9-0.9-2-2.1-1.8s-1.2,1.4-1.2,3c2.3,7.1,2.2,15.2,3.5,23c0.9,5.4,0.6,11,2.4,16.2
			c0.8,2.5,2,4.9,5.3,3.8c2.8-0.9,5.6-2,8.4-3.2c2.9-1.2,3.3-3.2,1.8-6C500.3,931.5,492.8,920.5,488.5,908z"/>
		<polygon points="177,848 177.1,848.7 177.5,848.5 		"/>
		<path fill="#A09AB6" d="M222.9,607.4c-4.1-13.1-4.2-27.2-0.3-40.3c0.9-3.9,2.2-7.7,3.8-11.3c5.9-11.9,6.5-24.5,5.8-37.5
			c-1.1-17.6-1.2-35.3-1.9-52.9c-0.9-23-3.3-45.8-3.6-68.8c0-3.7-0.2-7.3-0.4-11c-0.1-0.6-0.4-1.3-0.7-1.8c-1,0.4-0.6,1.3-0.7,2
			c-4.4,24.9-8.6,49.8-13.9,74.5c-3.3,15.6-6.9,31.2-10.3,46.8c-0.2,0.9-0.3,1.9-0.4,2.9c1.3-0.4,1.3-1.7,1.7-2.6
			c0.3-0.6,0.5-1.2,0.8-1.8c0.6-1.3,1.3-3.6,2.8-2.9s0.2,2.7-0.4,4c-9,19.2-15.7,39.2-23.7,58.8c-9.5,23.3-15.6,47.6-22,71.9
			c-4.6,17.6-0.2,35.7-6.2,53c-2.5,7.1-2.6,15-3.8,22.6c-0.1,1-0.1,2-0.1,2.9c0.5-0.8,0.9-1.7,1.2-2.6c9.3-31.8,21.4-62.7,36.2-92.4
			c23.5-47.6,38.2-97.4,42-150.4c0.1-0.8,0.4-1.5,0.7-2.2c1,0.7,0.7,1.7,0.8,2.7c0.6,12.1-2.1,23.8-3.8,35.7
			c-2,14.6-5.7,28.8-8.6,43.3c0.3-0.4,0.6-0.8,0.8-1.2c0.6-1.1,0.9-3.2,2.4-2.6c1.9,0.7,0.6,2.5,0.2,3.8c-1.7,5.6-1.9,11.5-3,17.2
			c-0.5,2.7,0.9,5.7-1.3,8.2c-2.3-2.4-0.9-5.4-1.3-8c-0.1-0.5,0.5-1.5-0.6-1.5c-0.3,0-0.7,0.6-0.9,1c-0.5,0.9-0.8,1.8-1.2,2.7
			c-11.9,28-21.3,57.1-28,86.8c-4.6,20.8-9.2,41.7-8.6,63.2c1,31.5,7,62.6,18,92.2c7.4,20.3,18.7,38.2,32,55.4
			c14.4,18.6,23.3,40.7,24.5,64.9c0,0.9-0.5,2.2,0.5,2.7s1.2-0.8,1.6-1.5c9.9-17.2,12.3-35,3-53.2c-5.7-11.4-13.9-21.3-24.1-29
			c-15.2-11.4-24-26.7-29.4-44.6c-8.9-29.5-6.8-59.2-2.3-89c2.6-16.9,7.4-33.4,11-50.1c3.5-16.4,6.7-32.9,11.6-49
			C224.1,614.6,224.1,610.9,222.9,607.4z"/>
		<path d="M730.2,426.7l0.7,0.2C730.8,426.6,730.7,426.1,730.2,426.7z"/>
		<path fill="#A09AB6" d="M780.2,472.4c-13-10.9-26.6-21-38.9-32.7c-3-2.9-6.1-5.6-9.4-8.2c-8.7-6.7-18.7-12.3-25.5-20.6
			c-25-30.3-48.5-61.9-62.1-99.4c-0.3-1,0-2.5-1.6-2.8c-0.1,1.1-0.2,2.2-0.2,3.3c0,8.7,0.6,17.3,1.7,25.9
			c4.3,33.1,17,62.2,42.2,84.8c12.2,10.9,25.9,20,39.8,28.7c7.8,4.9,14.4,11.3,22,16.4c37.5,24.9,75.2,49.4,108.3,80.2
			c6.5,6,13.8,11.1,19.8,17.5c9.8,10.6,16,23.7,22,36.7c14.9,32.4,23.1,66.6,25.4,102.1c1.3,20.6,2.4,41.3-2.6,61.7
			c-8.3,34.1-26.5,59.7-62,69.7c-0.8,0.3-1.6,0.7-2.3,1.2c1,0.1,2,0,3-0.1c23-4.2,42.7-14.2,58.4-32c20.6-23.3,32.7-49.9,32.8-81.4
			c0-10.2-1.3-20.3-3.7-30.1c-12.7-51.6-38.5-96.1-74-135.2C844.8,526.6,812.5,499.5,780.2,472.4z"/>
		<path d="M852.3,837.7c0.1,0,0.3,0,0.4,0c0,0,0-0.2,0.1-0.3c-0.1-0.1-0.3-0.1-0.4-0.1C851.9,837.3,851.9,837.5,852.3,837.7z"/>
		<path fill="#A09AB6" d="M879.3,506.2c18.9,15.9,36,33.6,50.3,53.9c1.4,2,2.2,4.4,4.4,5.8c-0.2-2-1.6-3.5-2.6-5.2
			C917.8,539,900.2,521,880,505.4c-0.8-0.7-2.2-2.2-2.6-1.6C876.7,504.9,878.5,505.5,879.3,506.2z"/>
		<path d="M934.7,566.5l-0.6-0.4c0,0.2,0.1,0.5,0.1,0.7L934.7,566.5z"/>
		<path fill="#A09AB6" d="M719.4,451.5c-1.1-0.5-2-2.4-3.3-1.3s0,2.5,0.5,3.6c7.7,21.4,14.9,42.9,23.2,64.1
			c11.8,30.2,26.5,59.3,43.7,86.8c11.7,18.8,24.7,36.8,35.5,56.1c1.9,3.5,3.7,7,5.5,10.5c2-4.2,1.3-8.6,1.6-13
			c0.4-8.5-1.2-16.9-2.6-25.2c-7.6-46.3-25.7-90.3-53-128.5C756.1,484.5,742.5,463.3,719.4,451.5z"/>
		<path fill="#FFFFFF" d="M777.7,695.5c-1.9-9-4-18.4-6.9-27.6c-0.1-0.4-0.2-1.2-0.9-0.8c-0.4,0.3-0.7,0.7-0.8,1.1
			c-0.4,1.1-0.7,2.2-1,3.3c-7.7,25.1-14.1,50.7-29.7,72.5c-0.4,0.6-1.4,1.5-0.7,2.1c1,0.8,1.7-0.6,2.3-1.2
			c14.5-13.1,26.8-28.4,36.3-45.4C777,698.4,777.9,697.3,777.7,695.5L777.7,695.5z"/>
		<path d="M874.1,501.2c-0.2-0.2-0.4-0.5-0.6-0.7l-0.4,0.1c0.1,0.3,0.2,0.5,0.4,0.8C873.5,501.5,873.9,501.3,874.1,501.2z"/>
		<path fill="#A09AB6" d="M764.1,646.3c-9.6-25.6-21.5-50.1-33.3-74.6c-0.3-0.6-0.7-1.1-1.2-1.6c-0.6,0.8,0,1.5,0.3,2.2
			c1.8,5.5,3.5,11.1,5.6,16.5c6.9,17.6,8.6,36.8,4.8,55.4c-1.4,7.2-4.1,14.5-3.5,21.5c2,23.2,3.6,46.4,1.5,69.7
			c-0.1,0.7-0.2,1.8,0.1,1.9c1,0.4,1.3-0.6,1.7-1.3c2.4-4.2,5-8.3,7.1-12.6c9.6-19.2,14.1-40.1,20.4-60.3c0.2-0.9,0.3-1.9,0.3-2.8
			l0,0C767.8,655.6,765.8,650.9,764.1,646.3z"/>
		<path fill="#EBF4FB" d="M170.8,842.5c-4.4-9.4-7.2-19.4-10.8-29.1c0.3,3.5,1.1,7,2.3,10.4c5.7,18,12.3,35.5,25.3,49.8
			c0.8,0.8,1.6,1.6,2.5,2.3c0.4-1.4-0.8-2-1.4-2.8C181.8,863.5,175.8,853.2,170.8,842.5z"/>
		<path fill="#FFFFFF" d="M789.2,618.7c-7.8-11.6-15-23.5-21.9-35.7c-0.5-0.7-1-1.3-1.5-1.9c-0.7,1,0.2,1.9,0.5,2.7
			c9.7,25.3,18.6,50.8,21.8,78c0.1,0.6,0.3,1.1,0.5,1.6c0.4-0.5,0.7-1.1,0.9-1.7c2-7.7,1.5-15.5,1.1-23.3l0,0c0-4.8,0-9.6,0-14.5
			C790.7,622,790.2,620.2,789.2,618.7z"/>
		<path fill="#FFFFFF" d="M709.5,527.3c-0.5-0.8-0.8-2.4-1.8-2c-1.3,0.5-0.3,2-0.3,3c0,0.2,0.1,0.3,0.1,0.5
			c3,13.4,8.1,26.5,5.5,40.7c-0.1,1.2,0.3,2.3,1,3.3c4,7.1,6.2,14.7,8.1,22.7c4.5,19.3,9.8,38.3,12.9,57.9c0.1,0.6,0.3,1.2,0.5,1.9
			c0.2-0.6,0.3-1.3,0.5-1.9c2.1-9.5,3.4-19.2,3.9-29l0,0c-0.1-8.2-1.3-16.4-3.6-24.2c-4.8-15.6-10.1-30.9-14.7-46.6
			C719,544.4,714.5,535.6,709.5,527.3z"/>
		<path fill="#FFFFFF" d="M679.7,851.5c1.2,0.7,2.2,0,3.3-0.3c20.7-5.7,38.8-16.6,56.5-28.2c0.8-0.6,1.6-1.2,2.2-2
			c15.3-17.9,25.2-38.7,32.1-60.9c3.3-10.7,3.8-21.9,3.8-33.1c0-1,0.4-2.5-0.1-2.8c-1-0.7-1.7,0.7-2.4,1.3
			c-5.9,4.9-11,10.7-15.3,17.1c-6.9,10.4-15.3,19.8-24.8,27.9c-2.4,2-4.2,4.6-5.2,7.6c-5.5,17.2-14.7,33-26.8,46.3
			c-7.3,8-15,15.6-21.5,24.3C680.8,849.5,680.3,850.5,679.7,851.5z"/>
		<path fill="#645C6B" d="M299.5,293.4c17,1.4,33.4-2.3,50-4.5c40.7-5.2,80.5-14.2,118.9-29.1c3.6-1.4,7.6-2.1,10.6-4.9
			c-1.1,0.2-2.2,0.4-3.3,0.7c-32.7,10.9-65.6,20.8-99.6,26.9c-9.7,1.7-19.4,3-29.1,4.5c-0.6,0.1-1.7,0.5-1.9-0.7
			c0-0.2,1-0.6,1.6-0.8c0.8-0.3,1.6-0.5,2.4-0.6c22.6-3.7,45.2-7.8,67.3-14.1c23.4-6.7,46.9-12.9,69.5-21.8
			c7.3-2.9,14.3-4.6,21.7-2.4c8.6,2.6,17.2,2.6,26.1,2.2c6.9-0.3,12.4-4.1,18.7-5.5c0.8-0.2,2.1-0.9,1.9-2c-0.3-1.3-1.6-0.7-2.5-0.7
			c-16.8,0.5-33.6,0.4-50.4,1.5c-35.9,2.4-72,0-107.3-6.9c-29.7-5.9-59-13.2-87.7-23.1c-15.1-5.2-28.9-11.8-40.1-23.2
			c-6.5-6.6-12.9-13.5-19-20.5c-1.9-2.2-2.9-2.7-5.5-1.1c-6.4,3.9-13,7.4-19.6,11c-4.8,2.6-9.6,5.5-13.1,9.8c-1.7,2-3.8,3.7-6,5.1
			c-8.9,6.1-16.7,13-19.5,24.2c-2.2,8.6-2.9,17.4-2.2,26.2c0.5,5.2,2.6,10,5.9,14.1c5.1,6.6,13.5,8.1,19.5,13.3
			c5.3,4.6,12.8,3.7,18.6,6.5c8,3.9,16.4,5.1,24.7,7.3C266.2,289.1,282.7,292,299.5,293.4z"/>
		<path fill="#A09AB6" d="M739.7,434.2c7,9.5,18,10,28,12.6l-36.5-19.7C733.4,430.3,737.5,431.2,739.7,434.2z"/>
		<path fill="#A09AB6" d="M641.4,252.5c0.2,7.5,0.2,15,0.8,22.5c1.8,25.6,8.1,49.8,21.7,71.9c6.5,10.6,14.8,20,20.8,31.1
			c4.5,8.4,11,15.8,16.6,23.7c5,6.9,11.7,12.4,19.4,16.1c22.5,11.3,46.7,15.3,72.6,16c7.9-0.3,16.9-0.7,25.7-2.7
			c1-0.2,2.9,0.2,2.8-1.3c0-1.2-1.9-0.8-2.9-1c-17.4-3.1-34.4-8-50.8-14.6c-13.8-5.6-27.5-11.4-37.8-22.6
			c-8.9-9.7-18-19.2-26.6-29.1c-18.9-21.9-35.8-45.1-48.3-71.4c-5.9-12.4-8.5-25.9-12.5-38.9c-0.2-0.8,0-1.7-1.1-2
			C641.6,250.9,641.5,251.7,641.4,252.5z"/>
		<path fill="#645C6B" d="M249.6,167.6c16.8,19.6,35.2,36.4,61,43.7c14.9,4.2,29.4,9.6,44.5,13.1c38.2,9,76.4,17.3,115.9,14.7
			c11.8,0,23.7,0.4,35.5-0.1c25.1-0.9,50.3,0.6,75.1-5.1c18-4.1,36.1-7.4,54.2-11.2c2.8-0.6,5.8-0.9,7.5-4.1
			c4.6-8.5,4.6-13.6-1.6-20.9c-5.5-6.4-5.1-13.1-2-20c1.8-4,1.2-6.7-2-9.2c-3-2.2-4.8-5.7-4.7-9.4c-0.1-11-0.1-21.9-0.9-32.9
			c-0.7-9.4-4.3-16.7-13-20c-8.6-3.3-15-9.2-20.8-15.8c-13.3-15.4-29.4-26.9-47.5-36c-10.5-5.1-20-12.1-28-20.5
			c-6.8-7.2-15.1-12.5-23.3-17.9c-2.9-1.9-6.3-3.2-9.7-3.7c-11-1.4-22.1-2.2-33.2-2.2c-10.1-0.1-19,2.4-27.2,8.1
			c-5.5,3.8-10.9,7.6-16.6,11.1c-12.3,7.5-26,10.6-40,13.2c-6.4,1.2-12.2,0.8-17.9-2.2c-6.7-3.5-13.9-5.3-21.2-7
			c-15.5-3.6-27.4,1.5-36.7,13.8c-3.3,4.4-5.5,9.5-7.9,14.4c-9.7,19.1-18.8,38.5-29.4,57.2c-6.3,11.1-12.3,21.8-11.2,34.9
			C248.6,158.1,245.4,162.7,249.6,167.6z M260,168.6c1-0.8,1.8,0.2,2.4,0.8c2.8,3.2,5.6,6.5,8.4,9.7c0.4,0.6,0.7,1.2,1,1.8
			c-0.5,1.3-1.3,1.2-2.2,0.4c-3.5-3-6.8-6.3-9.8-9.8C259,170.5,259,169.5,260,168.6z"/>
		<path fill="#A09AB6" d="M155.3,783.2c0.9-22.9,0.7-45.9,2.4-68.8l0,0c0-2.7,0.3-5.4-0.1-8c-0.2-1.3,0.9-3-0.8-3.9
			c-0.5,1.2-1.1,2.4-1.5,3.6c-5.8,18.8-10.2,37.9-11.8,57.5c-2,26.5,3.2,51.3,18.2,73.7c0.7,1.1,1.6,3.1,2.6,2.6
			c1.4-0.7-0.1-2.4-0.6-3.4C156.8,819.3,154.6,801.5,155.3,783.2z"/>
		<path fill="#A09AB6" d="M241.2,505.5c2.3,11.2,4.5,22.5,8.7,33.3c0.2,0.6,0.1,1.9,1.3,1.6c0.3-0.1,0.5-1.1,0.6-1.7
			c0.5-4,3.3-5.4,6.3-3.7c4.3,2.3,3.8-0.2,3.7-2.8c-1-24.3,1.5-48.6,0.1-72.9c-0.5-7.1,1.8-14.1,6.5-19.5c2.6-2.9,3.5-7,2.4-10.8
			c-0.3-1.3-0.8-2.9-2.1-3.2c-1.7-0.4-1.8,1.6-2.3,2.7c-4.4,9-8.3,18.2-13.6,26.7c-0.6,1.1-1.3,3-2.7,2.4c-1.9-1-0.4-2.6,0.3-3.8
			c3.8-7.2,7.6-14.4,11.5-21.6c3.9-7.1,5.1-15.3,3.3-23.2c-4.6-22.2-7.1-44.8-7.5-67.4c-0.1-13.7,0.6-27.3,1.5-40.9
			c0.1-1.3-0.1-3.9,1.4-3.8c2.1,0.2,1.2,2.7,1.3,4.2c0.1,1.7,0,3.3-0.2,5c-1,9.2-0.7,18.5-0.7,27.9l0,0c0,3.2,0,6.3,0,9.5
			c0.3,22.7,2.1,45.2,6.9,67.5c0.2,0.9-0.1,2.3,1.1,2.5s1.3-1.1,1.7-2c3.3-9,7-18,10-27.1c4.6-14,8.8-28.3,13.2-42.4
			c0.4-1.2,0.6-3.6,1.5-3.2c1.5,0.6,0.2,2.5,0.2,3.9c-0.1,0.3-0.2,0.7-0.3,1c-5.5,24.4-13.3,48.1-23.2,71.1
			c-1.9,4.4-1.6,8.7-0.1,13.1c0.2,0.6,0.6,1.5,1,1.5c1,0.2,1.2-0.8,1.5-1.6c1.1-3.2,1.9-6.4,3.2-9.4c3.5-8,3-18,11.8-23.3
			c0.7-0.4,0.8-1.8,1.3-2.7c4.7-10.3,8.7-20.9,12-31.7c0.4-1.2,0.3-3.9,2.1-3.3c1.6,0.5,0.2,2.7-0.2,4c-2.2,8.2-4.9,16.3-7.9,24.2
			c-1.2,3.2-5,7.3-3.1,9.3c2.7,2.9,7.8,0.9,11.9,0.7c0.2,0,0.3-0.1,0.5-0.1c4-0.6,5.5-2.5,4.9-6.9c-2.9-19.2-2.9-38.5-1.5-57.8
			c0.1-1.7-0.3-5,1-4.8c2.3,0.4,1.2,3.2,1.1,5c-0.9,18.5,0.9,37,5.4,55c0.6,2.5,1.4,4.3,4.7,3.4c3.3-0.9,5.3,1.3,6.7,3.9
			c3.4,6.1,6.7,12.3,10,18.4c0.4,0.8,0.6,2,1.9,2c-0.1-0.8-0.2-1.6-0.3-2.4c-5.3-24.7-5-49.6-1.3-74.5c2-13.6,4.7-27.2,7.4-40.7
			c0.8-3.8-0.3-3.8-3.4-3.2c-6.7,1.1-13.5,2.5-20.3,2.6c-24.2,0.5-48.2-1.4-71.9-6.9c-3.4-0.8-7.1-3.2-10.1-1.8
			c-3.7,1.8-2,6.5-2.6,10c-7,36.1-9.7,73-8.1,109.8C231.2,439.7,234.4,472.8,241.2,505.5z"/>
		<path fill="#FFFFFF" d="M757.9,449.7c-0.8,1.5,1.8,2.4,2.9,3.4c6.6,5.6,13.4,11,20,16.5c42.3,35.1,85.4,69.5,117.4,115.1
			c4.3,6.1,10,11.4,13.6,17.9c9.1,16.2,18.2,32.5,25,49.9c0.5,1.2,0.8,3,2.2,3c1.8,0.1,2-2,2.6-3.2c4.7-10.4,6.1-21.4,6.4-30.8
			c0-20.1-6.6-36.3-16.2-51.4c-32-50.1-77.2-84.4-131.1-107.8c-12.2-5.2-24.9-9.4-37.8-12.5C761.2,449.3,758.8,448.1,757.9,449.7z"
			/>
		<path d="M768.8,447.3l-0.7-0.3C768.2,447.4,768.3,447.8,768.8,447.3z"/>
		<path d="M159.3,810.8c0.2,0.7,0.4,1.3,0.6,2l-0.1-2.1L159.3,810.8z"/>
	</g>
</g>
</svg>
