<?xml version="1.0" encoding="utf-8"?>
<!-- Generator: Adobe Illustrator 24.1.0, SVG Export Plug-In . SVG Version: 6.00 Build 0)  -->
<svg version="1.1" baseProfile="tiny" id="图层_1"
	 xmlns="http://www.w3.org/2000/svg" xmlns:xlink="http://www.w3.org/1999/xlink" x="0px" y="0px" viewBox="0 0 1000.4 797.4"
	 xml:space="preserve">
<g>
	<g>
		<polygon fill="#B60905" stroke="#000000" stroke-width="0.4" stroke-miterlimit="10" points="520,426.1 524.5,484 548.3,469.2 		
			"/>
		<polygon fill="#940205" stroke="#000000" stroke-width="0.4" stroke-miterlimit="10" points="524.5,484 539.3,523.7 548.3,469.2 
					"/>
		<polygon fill="#B50905" stroke="#000000" stroke-width="0.4" stroke-miterlimit="10" points="514.3,381.8 520,426.1 558.6,413.6 
					"/>
		<polygon fill="#B40D05" stroke="#000000" stroke-width="0.4" stroke-miterlimit="10" points="520,426.1 548.3,469.2 558.6,413.6 
					"/>
		<polygon fill="#ED8D77" stroke="#000000" stroke-width="0.4" stroke-miterlimit="10" points="558.6,413.6 548.3,469.2 
			586.9,510.1 		"/>
		<polygon fill="#DB410F" stroke="#000000" stroke-width="0.4" stroke-miterlimit="10" points="575.6,236.5 504.1,286.5 581.3,274 
					"/>
		<polygon fill="#FBE0CD" stroke="#000000" stroke-width="0.4" stroke-miterlimit="10" points="539.3,523.7 565.4,560 586.9,510.1 
					"/>
		<polygon fill="#EB907E" stroke="#000000" stroke-width="0.4" stroke-miterlimit="10" points="548.3,469.2 539.3,523.7 
			586.9,510.1 		"/>
		<polygon fill="#F05E51" stroke="#000000" stroke-width="0.4" stroke-miterlimit="10" points="558.6,413.6 586.9,510.1 
			599.4,331.9 		"/>
		<polygon fill="#B70803" stroke="#000000" stroke-width="0.4" stroke-miterlimit="10" points="504.1,286.5 514.3,381.8 
			599.4,331.9 		"/>
		<polygon fill="#ED6454" stroke="#000000" stroke-width="0.4" stroke-miterlimit="10" points="581.3,274 504.1,286.5 599.4,331.9 
					"/>
		<polygon fill="#B60903" stroke="#000000" stroke-width="0.4" stroke-miterlimit="10" points="514.3,381.8 558.6,413.6 
			599.4,331.9 		"/>
		<polygon fill="#DA6263" stroke="#000000" stroke-width="0.4" stroke-miterlimit="10" points="591.5,602 610.8,617.9 648.2,544.1 
					"/>
		<polygon fill="#FBDECC" stroke="#000000" stroke-width="0.4" stroke-miterlimit="10" points="586.9,510.1 565.4,560 648.2,544.1 
					"/>
		<polygon fill="#FBE0CD" stroke="#000000" stroke-width="0.4" stroke-miterlimit="10" points="565.4,560 591.5,602 648.2,544.1 		
			"/>
		<polygon fill="#F8B6A0" stroke="#000000" stroke-width="0.4" stroke-miterlimit="10" points="599.4,331.9 591.5,431.7 655,417 		
			"/>
		<polygon fill="#F8B5A2" stroke="#000000" stroke-width="0.4" stroke-miterlimit="10" points="591.5,431.7 586.9,510.1 655,417 		
			"/>
		<polygon fill="#EA3C17" stroke="#000000" stroke-width="0.4" stroke-miterlimit="10" points="575.6,236.5 581.3,274 678.9,259.2 
					"/>
		<polygon fill="#EF8F79" stroke="#000000" stroke-width="0.4" stroke-miterlimit="10" points="669.8,184.3 575.6,236.5 
			678.9,259.2 		"/>
		<polygon fill="#F06352" stroke="#000000" stroke-width="0.4" stroke-miterlimit="10" points="581.3,274 599.4,331.9 678.9,259.2 
					"/>
		<polygon fill="#F8E1CF" stroke="#000000" stroke-width="0.4" stroke-miterlimit="10" points="599.4,331.9 655,417 680,390.9 		"/>
		<polygon fill="#F58B7B" stroke="#000000" stroke-width="0.4" stroke-miterlimit="10" points="678.9,259.2 599.4,331.9 
			682.3,338.7 		"/>
		<polygon fill="#F8B5A5" stroke="#000000" stroke-width="0.4" stroke-miterlimit="10" points="599.4,331.9 680,390.9 682.3,338.7 
					"/>
		<polygon fill="#D66360" stroke="#000000" stroke-width="0.4" stroke-miterlimit="10" points="648.2,544.1 610.8,617.9 
			694.8,604.3 		"/>
		<polygon fill="#FBDECC" stroke="#000000" stroke-width="0.4" stroke-miterlimit="10" points="586.9,510.1 648.2,544.1 
			703.8,481.7 		"/>
		<polygon fill="#F7B6A4" stroke="#000000" stroke-width="0.4" stroke-miterlimit="10" points="655,417 586.9,510.1 703.8,481.7 		
			"/>
		<polygon fill="#FADFCC" stroke="#000000" stroke-width="0.4" stroke-miterlimit="10" points="680,390.9 655,417 726.5,427.2 		"/>
		<polygon fill="#F7E1CA" stroke="#000000" stroke-width="0.4" stroke-miterlimit="10" points="655,417 703.8,481.7 726.5,427.2 		
			"/>
		<polygon fill="#F7B6A4" stroke="#000000" stroke-width="0.4" stroke-miterlimit="10" points="682.3,338.7 680,390.9 735.6,344.3 
					"/>
		<polygon fill="#F5B6A5" stroke="#000000" stroke-width="0.4" stroke-miterlimit="10" points="680,390.9 726.5,427.2 735.6,344.3 
					"/>
		<polygon fill="#F58B7D" stroke="#000000" stroke-width="0.4" stroke-miterlimit="10" points="678.9,259.2 682.3,338.7 
			735.6,344.3 		"/>
		<polygon fill="#F7B5A5" stroke="#000000" stroke-width="0.4" stroke-miterlimit="10" points="669.8,184.3 678.9,259.2 
			776.5,168.4 		"/>
		<polygon fill="#F48A7C" stroke="#000000" stroke-width="0.4" stroke-miterlimit="10" points="678.9,259.2 735.6,344.3 
			786.7,328.5 		"/>
		<polygon fill="#FEECE0" stroke="#000000" stroke-width="0.4" stroke-miterlimit="10" points="776.5,168.4 678.9,259.2 
			819.6,194.5 		"/>
		<polygon fill="#FBDECC" stroke="#000000" stroke-width="0.4" stroke-miterlimit="10" points="678.9,259.2 786.7,328.5 
			819.6,194.5 		"/>
		<polygon fill="#F8B7A5" stroke="#000000" stroke-width="0.4" stroke-miterlimit="10" points="735.6,344.3 726.5,427.2 
			820.8,354.6 		"/>
		<polygon fill="#F18E7B" stroke="#000000" stroke-width="0.4" stroke-miterlimit="10" points="786.7,328.5 735.6,344.3 
			820.8,354.6 		"/>
		<polygon fill="#FFEDE7" stroke="#000000" stroke-width="0.4" stroke-miterlimit="10" points="776.5,168.4 819.6,194.5 
			836.6,108.2 		"/>
		<polygon fill="#F9B4A4" stroke="#000000" stroke-width="0.4" stroke-miterlimit="10" points="669.8,184.3 776.5,168.4 
			836.6,108.2 		"/>
		<polygon fill="#FBDECC" stroke="#000000" stroke-width="0.4" stroke-miterlimit="10" points="819.6,194.5 786.7,328.5 
			842.3,262.6 		"/>
		<polygon fill="#FFEDE1" stroke="#000000" stroke-width="0.4" stroke-miterlimit="10" points="836.6,108.2 819.6,194.5 
			950.2,136.6 		"/>
		<polygon fill="#F9DFCE" stroke="#000000" stroke-width="0.4" stroke-miterlimit="10" points="819.6,194.5 842.3,262.6 
			950.2,136.6 		"/>
		<polygon fill="#F28D7B" stroke="#000000" stroke-width="0.4" stroke-miterlimit="10" points="950.2,136.6 842.3,262.6 
			1000.1,311.4 		"/>
	</g>
	<g>
		<polygon fill="#FCAC01" stroke="#000000" stroke-width="0.3" stroke-miterlimit="10" points="268,485.1 290.7,524.8 291.8,464.7 
					"/>
		<polygon fill="#F98202" stroke="#000000" stroke-width="0.3" stroke-miterlimit="10" points="289.5,388.6 291.8,464.7 
			332.7,428.3 		"/>
		<polygon fill="#CFB4BB" stroke="#000000" stroke-width="0.3" stroke-miterlimit="10" points="255.5,648.5 270.2,686 350.8,636.1 
					"/>
		<polygon fill="#E1C2C0" stroke="#000000" stroke-width="0.3" stroke-miterlimit="10" points="290.7,607.7 255.5,648.5 
			350.8,636.1 		"/>
		<polygon fill="#FFCD02" stroke="#000000" stroke-width="0.3" stroke-miterlimit="10" points="290.7,524.8 290.7,607.7 362.2,577 
					"/>
		<polygon fill="#EF822F" stroke="#000000" stroke-width="0.3" stroke-miterlimit="10" points="290.7,607.7 350.8,636.1 362.2,577 
					"/>
		<polygon fill="#F15C00" stroke="#000000" stroke-width="0.3" stroke-miterlimit="10" points="289.5,388.6 332.7,428.3 
			362.2,394.3 		"/>
		<polygon fill="#F05D00" stroke="#000000" stroke-width="0.3" stroke-miterlimit="10" points="362.2,394.3 332.7,428.3 
			375.8,465.8 		"/>
		<polygon fill="#FAA701" stroke="#000000" stroke-width="0.3" stroke-miterlimit="10" points="290.7,524.8 362.2,577 375.8,465.8 
					"/>
		<polygon fill="#F78200" stroke="#000000" stroke-width="0.3" stroke-miterlimit="10" points="291.8,464.7 290.7,524.8 
			375.8,465.8 		"/>
		<polygon fill="#F58400" stroke="#000000" stroke-width="0.3" stroke-miterlimit="10" points="332.7,428.3 291.8,464.7 
			375.8,465.8 		"/>
		<polygon fill="#CDB6BE" stroke="#000000" stroke-width="0.3" stroke-miterlimit="10" points="350.8,636.1 270.2,686 406,681.5 		
			"/>
		<polygon fill="#900606" stroke="#000000" stroke-width="0.3" stroke-miterlimit="10" points="362.2,577 350.8,636.1 406,681.5 		
			"/>
		<polygon fill="#A60704" stroke="#000000" stroke-width="0.3" stroke-miterlimit="10" points="362.2,577 383.8,628.1 414.4,597.5 
					"/>
		<polygon fill="#D42506" stroke="#000000" stroke-width="0.3" stroke-miterlimit="10" points="383.8,628.1 406,681.5 438.2,676.9 
					"/>
		<polygon fill="#A40308" stroke="#000000" stroke-width="0.3" stroke-miterlimit="10" points="414.4,597.5 383.8,628.1 
			438.2,676.9 		"/>
		<polygon fill="#F15C02" stroke="#000000" stroke-width="0.3" stroke-miterlimit="10" points="362.2,394.3 375.8,465.8 
			443.9,403.4 		"/>
		<polygon fill="#EA4203" stroke="#000000" stroke-width="0.3" stroke-miterlimit="10" points="414.4,370.5 362.2,394.3 
			443.9,403.4 		"/>
		<polygon fill="#E84206" stroke="#000000" stroke-width="0.3" stroke-miterlimit="10" points="443.9,403.4 375.8,465.8 
			450.7,462.4 		"/>
		<polygon fill="#EB4103" stroke="#000000" stroke-width="0.3" stroke-miterlimit="10" points="450.7,462.4 375.8,465.8 
			463.2,552.1 		"/>
		<polygon fill="#F78200" stroke="#000000" stroke-width="0.3" stroke-miterlimit="10" points="375.8,465.8 362.2,577 463.2,552.1 
					"/>
		<polygon fill="#B60903" stroke="#000000" stroke-width="0.3" stroke-miterlimit="10" points="362.2,577 414.4,597.5 463.2,552.1 
					"/>
		<polygon fill="#A50803" stroke="#000000" stroke-width="0.3" stroke-miterlimit="10" points="414.4,597.5 438.2,676.9 
			476.8,629.2 		"/>
		<polygon fill="#B70803" stroke="#000000" stroke-width="0.3" stroke-miterlimit="10" points="463.2,552.1 414.4,597.5 
			476.8,629.2 		"/>
		<polygon fill="#DF1F10" stroke="#000000" stroke-width="0.3" stroke-miterlimit="10" points="443.9,403.4 450.7,462.4 
			488.2,448.8 		"/>
		<polygon fill="#CE1206" stroke="#000000" stroke-width="0.3" stroke-miterlimit="10" points="443.9,403.4 488.2,448.8 520,426.1 
					"/>
		<polygon fill="#CE1206" stroke="#000000" stroke-width="0.3" stroke-miterlimit="10" points="514.3,381.8 443.9,403.4 520,426.1 
					"/>
		<polygon fill="#CD1203" stroke="#000000" stroke-width="0.3" stroke-miterlimit="10" points="520,426.1 488.2,448.8 524.5,484 		
			"/>
		<polygon fill="#DB210A" stroke="#000000" stroke-width="0.3" stroke-miterlimit="10" points="450.7,462.4 463.2,552.1 524.5,484 
					"/>
		<polygon fill="#DB2108" stroke="#000000" stroke-width="0.3" stroke-miterlimit="10" points="488.2,448.8 450.7,462.4 524.5,484 
					"/>
		<polygon fill="#D62211" stroke="#000000" stroke-width="0.3" stroke-miterlimit="10" points="463.2,552.1 476.8,629.2 
			530.2,564.5 		"/>
		<polygon fill="#B30909" stroke="#000000" stroke-width="0.3" stroke-miterlimit="10" points="524.5,484 463.2,552.1 539.3,523.7 
					"/>
		<polygon fill="#B60903" stroke="#000000" stroke-width="0.3" stroke-miterlimit="10" points="463.2,552.1 530.2,564.5 
			539.3,523.7 		"/>
		<polygon fill="#ED9030" stroke="#000000" stroke-width="0.3" stroke-miterlimit="10" points="438.2,676.9 542.7,779.1 554,667.8 
					"/>
		<polygon fill="#F8B066" stroke="#000000" stroke-width="0.3" stroke-miterlimit="10" points="476.8,629.2 438.2,676.9 554,667.8 
					"/>
		<polygon fill="#FBDECC" stroke="#000000" stroke-width="0.3" stroke-miterlimit="10" points="546.1,624.7 476.8,629.2 554,667.8 
					"/>
		<polygon fill="#E6B595" stroke="#000000" stroke-width="0.3" stroke-miterlimit="10" points="554,667.8 542.7,779.1 628.9,797.2 
					"/>
		<polygon fill="#FBDECE" stroke="#000000" stroke-width="0.3" stroke-miterlimit="10" points="610.8,617.9 554,667.8 707.3,743.9 
					"/>
		<polygon fill="#FEEECD" stroke="#000000" stroke-width="0.3" stroke-miterlimit="10" points="554,667.8 628.9,797.2 707.3,743.9 
					"/>
		<polygon fill="#FEDDCC" stroke="#000000" stroke-width="0.3" stroke-miterlimit="10" points="546.1,624.7 554,667.8 610.8,617.9 
					"/>
	</g>
	<g>
		<polygon fill="#FEDD9A" stroke="#000000" stroke-width="0.2" stroke-miterlimit="10" points="228.2,45.8 206.7,160.5 264.6,111.7 
					"/>
		<polygon fill="#FEA166" stroke="#000000" stroke-width="0.2" stroke-miterlimit="10" points="264.6,111.7 206.7,160.5 
			264.6,172.9 		"/>
		<polygon fill="#F56830" stroke="#000000" stroke-width="0.2" stroke-miterlimit="10" points="206.7,160.5 238.5,293.3 
			265.7,264.9 		"/>
		<polygon fill="#FD9E68" stroke="#000000" stroke-width="0.2" stroke-miterlimit="10" points="264.6,172.9 206.7,160.5 
			265.7,264.9 		"/>
		<polygon fill="#FEE9CC" stroke="#000000" stroke-width="0.2" stroke-miterlimit="10" points="228.2,45.8 264.6,111.7 270.2,61.7 
					"/>
		<polygon fill="#FCEFCC" stroke="#000000" stroke-width="0.2" stroke-miterlimit="10" points="228.2,45.8 270.2,61.7 274.8,0.4 		
			"/>
		<polygon fill="#EF5F00" stroke="#000000" stroke-width="0.2" stroke-miterlimit="10" points="238.5,293.3 199.9,351.2 
			289.5,388.6 		"/>
		<polygon fill="#FD8433" stroke="#000000" stroke-width="0.2" stroke-miterlimit="10" points="264.6,172.9 265.7,264.9 
			298.6,160.5 		"/>
		<polygon fill="#F98532" stroke="#000000" stroke-width="0.2" stroke-miterlimit="10" points="264.6,111.7 264.6,172.9 
			298.6,160.5 		"/>
		<polygon fill="#FEA261" stroke="#000000" stroke-width="0.2" stroke-miterlimit="10" points="270.2,61.7 264.6,111.7 299.8,59.4 
					"/>
		<polygon fill="#FFA05E" stroke="#000000" stroke-width="0.2" stroke-miterlimit="10" points="274.8,0.4 270.2,61.7 299.8,59.4 		
			"/>
		<polygon fill="#F98636" stroke="#000000" stroke-width="0.2" stroke-miterlimit="10" points="264.6,111.7 298.6,160.5 
			319.1,102.6 		"/>
		<polygon fill="#FBA165" stroke="#000000" stroke-width="0.2" stroke-miterlimit="10" points="299.8,59.4 264.6,111.7 319.1,102.6 
					"/>
		<polygon fill="#F2370E" stroke="#000000" stroke-width="0.2" stroke-miterlimit="10" points="265.7,264.9 238.5,293.3 
			337.2,294.4 		"/>
		<polygon fill="#F15C00" stroke="#000000" stroke-width="0.2" stroke-miterlimit="10" points="238.5,293.3 289.5,388.6 
			337.2,294.4 		"/>
		<polygon fill="#F35402" stroke="#000000" stroke-width="0.2" stroke-miterlimit="10" points="319.1,102.6 298.6,160.5 
			349.7,170.7 		"/>
		<polygon fill="#F9C39D" stroke="#000000" stroke-width="0.2" stroke-miterlimit="10" points="299.8,59.4 319.1,102.6 361.1,12.9 
					"/>
		<polygon fill="#FCC29A" stroke="#000000" stroke-width="0.2" stroke-miterlimit="10" points="274.8,0.4 299.8,59.4 361.1,12.9 		
			"/>
		<polygon fill="#EA4201" stroke="#000000" stroke-width="0.2" stroke-miterlimit="10" points="337.2,294.4 289.5,388.6 
			362.2,394.3 		"/>
		<polygon fill="#DC2003" stroke="#000000" stroke-width="0.2" stroke-miterlimit="10" points="265.7,264.9 337.2,294.4 
			370.1,229.7 		"/>
		<polygon fill="#F45201" stroke="#000000" stroke-width="0.2" stroke-miterlimit="10" points="298.6,160.5 265.7,264.9 
			370.1,229.7 		"/>
		<polygon fill="#F45201" stroke="#000000" stroke-width="0.2" stroke-miterlimit="10" points="349.7,170.7 298.6,160.5 
			370.1,229.7 		"/>
		<polygon fill="#EA4201" stroke="#000000" stroke-width="0.2" stroke-miterlimit="10" points="337.2,294.4 362.2,394.3 
			388.3,344.3 		"/>
		<polygon fill="#F88535" stroke="#000000" stroke-width="0.2" stroke-miterlimit="10" points="349.7,170.7 370.1,229.7 389.4,182 
					"/>
		<polygon fill="#CE1304" stroke="#000000" stroke-width="0.2" stroke-miterlimit="10" points="370.1,229.7 337.2,294.4 
			407.6,305.8 		"/>
		<polygon fill="#CD1306" stroke="#000000" stroke-width="0.2" stroke-miterlimit="10" points="337.2,294.4 388.3,344.3 
			407.6,305.8 		"/>
		<polygon fill="#FEA06A" stroke="#000000" stroke-width="0.2" stroke-miterlimit="10" points="361.1,12.9 319.1,102.6 412.1,120.7 
					"/>
		<polygon fill="#F68632" stroke="#000000" stroke-width="0.2" stroke-miterlimit="10" points="319.1,102.6 349.7,170.7 
			412.1,120.7 		"/>
		<polygon fill="#F48533" stroke="#000000" stroke-width="0.2" stroke-miterlimit="10" points="349.7,170.7 389.4,182 412.1,120.7 
					"/>
		<polygon fill="#EA4300" stroke="#000000" stroke-width="0.2" stroke-miterlimit="10" points="388.3,344.3 362.2,394.3 
			414.4,370.5 		"/>
		<polygon fill="#CC1203" stroke="#000000" stroke-width="0.2" stroke-miterlimit="10" points="407.6,305.8 388.3,344.3 
			443.9,403.4 		"/>
		<polygon fill="#F44C01" stroke="#000000" stroke-width="0.2" stroke-miterlimit="10" points="412.1,120.7 389.4,182 434.8,192.2 
					"/>
		<polygon fill="#F24C00" stroke="#000000" stroke-width="0.2" stroke-miterlimit="10" points="389.4,182 370.1,229.7 434.8,192.2 
					"/>
		<polygon fill="#B70902" stroke="#000000" stroke-width="0.2" stroke-miterlimit="10" points="370.1,229.7 407.6,305.8 457.5,266 
					"/>
		<polygon fill="#F54B00" stroke="#000000" stroke-width="0.2" stroke-miterlimit="10" points="434.8,192.2 370.1,229.7 457.5,266 
					"/>
		<polygon fill="#FCC29A" stroke="#000000" stroke-width="0.2" stroke-miterlimit="10" points="361.1,12.9 412.1,120.7 465.5,62.8 
					"/>
		<polygon fill="#B60903" stroke="#000000" stroke-width="0.2" stroke-miterlimit="10" points="407.6,305.8 443.9,403.4 
			471.2,345.5 		"/>
		<polygon fill="#B60903" stroke="#000000" stroke-width="0.2" stroke-miterlimit="10" points="457.5,266 407.6,305.8 471.2,345.5 
					"/>
		<polygon fill="#EF6654" stroke="#000000" stroke-width="0.2" stroke-miterlimit="10" points="412.1,120.7 434.8,192.2 
			479.1,167.3 		"/>
		<polygon fill="#F18E7B" stroke="#000000" stroke-width="0.2" stroke-miterlimit="10" points="465.5,62.8 412.1,120.7 479.1,167.3 
					"/>
		<polygon fill="#F16156" stroke="#000000" stroke-width="0.2" stroke-miterlimit="10" points="434.8,192.2 457.5,266 479.1,167.3 
					"/>
		<polygon fill="#B90600" stroke="#000000" stroke-width="0.2" stroke-miterlimit="10" points="457.5,266 471.2,345.5 504.1,286.5 
					"/>
		<polygon fill="#CD1306" stroke="#000000" stroke-width="0.2" stroke-miterlimit="10" points="504.1,286.5 471.2,345.5 
			514.3,381.8 		"/>
		<polygon fill="#CD1306" stroke="#000000" stroke-width="0.2" stroke-miterlimit="10" points="471.2,345.5 443.9,403.4 
			514.3,381.8 		"/>
		<polygon fill="#F8B5A4" stroke="#000000" stroke-width="0.2" stroke-miterlimit="10" points="465.5,62.8 479.1,167.3 534.7,135.5 
					"/>
		<polygon fill="#F38C7B" stroke="#000000" stroke-width="0.2" stroke-miterlimit="10" points="534.7,135.5 479.1,167.3 
			543.8,213.8 		"/>
		<polygon fill="#F16252" stroke="#000000" stroke-width="0.2" stroke-miterlimit="10" points="479.1,167.3 457.5,266 543.8,213.8 
					"/>
		<polygon fill="#FF3109" stroke="#000000" stroke-width="0.2" stroke-miterlimit="10" points="457.5,266 504.1,286.5 543.8,213.8 
					"/>
	</g>
	<g>
		<polygon fill="#F59D6B" stroke="#000000" stroke-width="0.1" stroke-miterlimit="10" points="0.1,767.7 72.7,753 88.6,662.2 		"/>
		<polygon fill="#EB3D00" stroke="#000000" stroke-width="0.1" stroke-miterlimit="10" points="56.9,490.8 70.5,511.2 101.1,457.9 
					"/>
		<polygon fill="#F53E05" stroke="#000000" stroke-width="0.1" stroke-miterlimit="10" points="72.7,457.9 56.9,490.8 101.1,457.9 
					"/>
		<polygon fill="#D2491F" stroke="#000000" stroke-width="0.1" stroke-miterlimit="10" points="70.5,511.2 63.7,531.6 107.9,552.1 
					"/>
		<polygon fill="#CC2803" stroke="#000000" stroke-width="0.1" stroke-miterlimit="10" points="63.7,531.6 89.8,573.6 107.9,552.1 
					"/>
		<polygon fill="#EC5D00" stroke="#000000" stroke-width="0.1" stroke-miterlimit="10" points="101.1,457.9 70.5,511.2 128.4,511.2 
					"/>
		<polygon fill="#EE3E0F" stroke="#000000" stroke-width="0.1" stroke-miterlimit="10" points="70.5,511.2 107.9,552.1 128.4,511.2 
					"/>
		<polygon fill="#F68400" stroke="#000000" stroke-width="0.1" stroke-miterlimit="10" points="101.1,457.9 128.4,511.2 
			146.5,454.4 		"/>
		<polygon fill="#FE8503" stroke="#000000" stroke-width="0.1" stroke-miterlimit="10" points="101.1,457.9 146.5,454.4 
			157.9,411.3 		"/>
		<polygon fill="#DBBDD7" stroke="#000000" stroke-width="0.1" stroke-miterlimit="10" points="107.9,552.1 89.8,573.6 169.2,586.1 
					"/>
		<polygon fill="#DCA9BC" stroke="#000000" stroke-width="0.1" stroke-miterlimit="10" points="89.8,573.6 159,637.2 169.2,586.1 		
			"/>
		<polygon fill="#E34307" stroke="#000000" stroke-width="0.1" stroke-miterlimit="10" points="128.4,511.2 107.9,552.1 
			169.2,586.1 		"/>
		<polygon fill="#FAA902" stroke="#000000" stroke-width="0.1" stroke-miterlimit="10" points="157.9,411.3 146.5,454.4 176,472.6 
					"/>
		<polygon fill="#FDA702" stroke="#000000" stroke-width="0.1" stroke-miterlimit="10" points="146.5,454.4 128.4,511.2 176,472.6 
					"/>
		<polygon fill="#FE7436" stroke="#000000" stroke-width="0.1" stroke-miterlimit="10" points="88.6,662.2 72.7,753 230.5,670.1 		
			"/>
		<polygon fill="#EC3815" stroke="#000000" stroke-width="0.1" stroke-miterlimit="10" points="159,637.2 88.6,662.2 230.5,670.1 		
			"/>
		<polygon fill="#9C0607" stroke="#000000" stroke-width="0.1" stroke-miterlimit="10" points="190.8,472.6 176,472.6 199.9,530.5 
					"/>
		<polygon fill="#F55A00" stroke="#000000" stroke-width="0.1" stroke-miterlimit="10" points="128.4,511.2 169.2,586.1 
			199.9,530.5 		"/>
		<polygon fill="#F78201" stroke="#000000" stroke-width="0.1" stroke-miterlimit="10" points="176,472.6 128.4,511.2 199.9,530.5 
					"/>
		<polygon fill="#E6AAB4" stroke="#000000" stroke-width="0.1" stroke-miterlimit="10" points="159,637.2 230.5,670.1 255.5,648.5 
					"/>
		<polygon fill="#DDC2C7" stroke="#000000" stroke-width="0.1" stroke-miterlimit="10" points="169.2,586.1 159,637.2 210.1,616.8 
					"/>
		<polygon fill="#DEC8CB" stroke="#000000" stroke-width="0.1" stroke-miterlimit="10" points="159,637.2 255.5,648.5 210.1,616.8 
					"/>
		<polygon fill="#FAA701" stroke="#000000" stroke-width="0.1" stroke-miterlimit="10" points="157.9,411.3 176,472.6 212.4,435.1 
					"/>
		<polygon fill="#C20B03" stroke="#000000" stroke-width="0.1" stroke-miterlimit="10" points="176,472.6 190.8,472.6 212.4,435.1 
					"/>
		<polygon fill="#FDA600" stroke="#000000" stroke-width="0.1" stroke-miterlimit="10" points="199.9,351.2 157.9,411.3 220.3,400 
					"/>
		<polygon fill="#FDCF00" stroke="#000000" stroke-width="0.1" stroke-miterlimit="10" points="157.9,411.3 212.4,435.1 220.3,400 
					"/>
		<polygon fill="#9445AE" stroke="#000000" stroke-width="0.1" stroke-miterlimit="10" points="190.8,472.6 199.9,530.5 226,510.1 
					"/>
		<polygon fill="#F08429" stroke="#000000" stroke-width="0.1" stroke-miterlimit="10" points="199.9,530.5 169.2,586.1 
			229.4,597.5 		"/>
		<polygon fill="#F7D9CE" stroke="#000000" stroke-width="0.1" stroke-miterlimit="10" points="169.2,586.1 210.1,616.8 
			229.4,597.5 		"/>
		<polygon fill="#48336C" stroke="#000000" stroke-width="0.1" stroke-miterlimit="10" points="226,510.1 199.9,530.5 244.1,526 		
			"/>
		<polygon fill="#FFCF00" stroke="#000000" stroke-width="0.1" stroke-miterlimit="10" points="220.3,400 212.4,435.1 244.1,448.8 
					"/>
		<polygon fill="#EE3B12" stroke="#000000" stroke-width="0.1" stroke-miterlimit="10" points="212.4,435.1 190.8,472.6 
			244.1,448.8 		"/>
		<polygon fill="#37214F" stroke="#000000" stroke-width="0.1" stroke-miterlimit="10" points="190.8,472.6 226,510.1 244.1,448.8 
					"/>
		<polygon fill="#F07E35" stroke="#000000" stroke-width="0.1" stroke-miterlimit="10" points="199.9,530.5 229.4,597.5 
			246.4,566.8 		"/>
		<polygon fill="#F6AA00" stroke="#000000" stroke-width="0.1" stroke-miterlimit="10" points="244.1,526 199.9,530.5 246.4,566.8 
					"/>
		<polygon fill="#F9DCCA" stroke="#000000" stroke-width="0.1" stroke-miterlimit="10" points="229.4,597.5 210.1,616.8 
			255.5,648.5 		"/>
		<polygon fill="#2B1431" stroke="#000000" stroke-width="0.1" stroke-miterlimit="10" points="226,510.1 244.1,526 268,485.1 		"/>
		<polygon fill="#260C27" stroke="#000000" stroke-width="0.1" stroke-miterlimit="10" points="244.1,448.8 226,510.1 268,485.1 		
			"/>
		<polygon fill="#CBA6AE" stroke="#000000" stroke-width="0.1" stroke-miterlimit="10" points="255.5,648.5 230.5,670.1 270.2,686 
					"/>
		<polygon fill="#FDCF00" stroke="#000000" stroke-width="0.1" stroke-miterlimit="10" points="220.3,400 244.1,448.8 289.5,388.6 
					"/>
		<polygon fill="#FBAA01" stroke="#000000" stroke-width="0.1" stroke-miterlimit="10" points="199.9,351.2 220.3,400 289.5,388.6 
					"/>
		<polygon fill="#E87E30" stroke="#000000" stroke-width="0.1" stroke-miterlimit="10" points="246.4,566.8 229.4,597.5 
			290.7,607.7 		"/>
		<polygon fill="#FBDECE" stroke="#000000" stroke-width="0.1" stroke-miterlimit="10" points="229.4,597.5 255.5,648.5 
			290.7,607.7 		"/>
		<polygon fill="#FECB00" stroke="#000000" stroke-width="0.1" stroke-miterlimit="10" points="268,485.1 244.1,526 290.7,524.8 		
			"/>
		<polygon fill="#FAA701" stroke="#000000" stroke-width="0.1" stroke-miterlimit="10" points="244.1,526 246.4,566.8 290.7,524.8 
					"/>
		<polygon fill="#FAA701" stroke="#000000" stroke-width="0.1" stroke-miterlimit="10" points="246.4,566.8 290.7,607.7 
			290.7,524.8 		"/>
		<polygon fill="#FDA304" stroke="#000000" stroke-width="0.1" stroke-miterlimit="10" points="244.1,448.8 268,485.1 291.8,464.7 
					"/>
		<polygon fill="#FCA700" stroke="#000000" stroke-width="0.1" stroke-miterlimit="10" points="289.5,388.6 244.1,448.8 
			291.8,464.7 		"/>
	</g>
</g>
</svg>
