<?xml version="1.0" encoding="utf-8"?>
<!-- Generator: Adobe Illustrator 24.1.0, SVG Export Plug-In . SVG Version: 6.00 Build 0)  -->
<svg version="1.1" baseProfile="tiny" id="图层_1"
	 xmlns="http://www.w3.org/2000/svg" xmlns:xlink="http://www.w3.org/1999/xlink" x="0px" y="0px" viewBox="0 0 768.3 831"
	 xml:space="preserve">
<path id="XE79CFFM2Gra7OT17_3_" fill="#FFFFFF" stroke="#000000" stroke-miterlimit="10" d="M615.2,285.7
	c1.7,20.5-2.5,40.6-8.9,60.1c-4.2,12.6-10.5,24.5-17.6,35.8c-12.5,19.6-29.1,36.3-48.8,48.7c-14.1,8.9-28.9,16.5-44.3,22.9
	c-13.1,5.4-26.8,9.2-40.8,11.1c-22,3.2-42.7-0.6-61.2-13.8c-3.8-2.7-4.4-5.4-2.8-9.8c4-10.9,7.1-22.4,12.6-32.5
	c6.8-12.4,15-24.1,25.7-33.6c12.1-10.8,25.1-20.4,40.3-26.4c13-5.1,26.3-9.3,39.6-13.7c12.5-4.2,24.8-8.9,36.2-15.3
	c24.5-13.8,35.2-36.5,38-63.3c3.4-32.8-6.4-62-24.7-89c-11.7-17.3-27.1-30.1-45.6-39.2c-12.6-6.1-26.5-9.3-40.5-9.2
	c-12,0-22.2,5.2-31.4,12.5c-11.8,9.4-24.9,15.2-40.4,14.3c-6.7-0.4-11.1,5-16.5,7.7c-1.3,0.7-2.5,1.8-3.8,2.4s-3.1,1.9-4,0.2
	c-0.8-1.5,0.9-2.7,2.1-3.6c6.3-4.6,11.7-9.9,14.7-17.3c1.2-3.1,1.9-6.4,3.3-9.4c6-13.6,16.9-21.3,30.8-24.7
	c26.1-6.5,51.5-3.7,76.4,6c34.4,13.4,59.6,37.8,79.5,68c9.6,14.6,17.8,30.2,22.6,47.1C611.3,242.4,617,263.4,615.2,285.7z
	 M418.8,414.9c-0.2,7.5,4.7,14.6,11,16.6c12.5,3.9,24.8,1.5,36.8-1.7c17.6-4.7,33.5-13.2,48.5-23.8c18.9-13.4,34-29.6,44.4-50.3
	c1-1.9,2.2-4,0.8-6.1c-1.3-2.1-4-1.8-6-1.2c-9.8,2.9-20.1,2.7-30,5c-12.5,2.8-24.9,5.6-37.2,9.4c-19.4,6.1-37.7,14.1-53.7,26.8
	C425.4,396,418.5,403.4,418.8,414.9z"/>
<path id="XE79CFFM2Gra4OT17_6_" fill="#FFFFFF" stroke="#000000" stroke-miterlimit="10" d="M662.1,673.8
	C638,672.5,614.2,669,591,662c-21-6.3-40.6-15.6-60-25.6c-34-17.4-65.1-40-92.2-66.9c-17.4-17.2-32.3-36.3-43.1-58.4
	c-5.1-10.5-7.8-21.9-10-33.4c-0.4-1.8-1.1-4.5,1.3-5.3c2.6-0.9,3.1,2,3.9,3.6c10.2,19.9,27.2,32,47.2,40.3
	c24.3,10.1,50.2,13.5,76.1,17.4c29.7,4.5,59.8,6.7,89,15c19.4,5.4,38,13.2,55.3,23.3c16.1,9.5,31.8,19.5,43.9,34.1
	c7.6,9.1,13.5,19,14,31.2c0.5,12.8-10.5,28-22.8,31.6C683.4,672.3,673,674.5,662.1,673.8z M577.3,570.1c-1.8,0-3.7,0-5.5,0
	c-7.3,0.2-14.3,1.2-20.1,6.2c-5.4,4.7-6.2,7.9-3,14.5c2.8,5.3,6.3,10.2,10.5,14.5c13.2,14.3,30,23.1,47.7,30.2
	c15.8,6.3,32,11.1,49.5,9.4c14.3-1.4,19.4-11.7,11.7-23.9c-10.3-16.5-25.6-27.2-42-36.8C611,575.4,594.9,570.3,577.3,570.1z"/>
<path id="XE79CFFM2Gra4OT17_5_" fill="#FFFFFF" stroke="#000000" stroke-miterlimit="10" d="M360.1,529.8
	c0.2-21.3,2.4-42.2,12.4-61.5c0.7-1.3,0.9-3.3,2.9-2.9s2.2,2.4,2,4c-4,27.3,8.2,49.2,23.7,69.8c15.3,20.3,34.5,37,53.6,53.5
	c16.4,14.2,33.3,27.8,48.1,43.6c15.5,16.5,29.9,33.9,40.3,54.4c8.8,17.3,16.8,34.8,20.2,54c2,11.6,3.8,23.5-1.7,34.8
	c-7,14-21.8,23.1-38.8,19c-14.8-3.5-26.7-11.6-38.4-20.5c-26.5-20.3-47.6-45.3-65.7-73.2c-12.6-19.5-23-40.2-32.1-61.4
	c-7.3-16.8-13.1-34.2-17.5-52C364.1,571.2,360.1,550.8,360.1,529.8z M527.6,739.8c1-10.3-2.7-19.8-5.9-29.5
	c-7.4-22.3-19-41.8-38-56.2c-7.2-5.5-14.8-10.2-24-11.7c-8-1.3-14.4,3.4-14.9,11.5c-0.3,5.1-0.6,10.4,0.5,15.5
	c3.1,15.2,8.8,29.7,16.8,42.9c9.2,15.3,20.9,28.9,34.5,40.4c4.1,3.7,9.1,6.3,14.5,7.5c4.1,1,8.5-0.2,11.4-3.3
	C527.4,752.1,528.6,746.4,527.6,739.8L527.6,739.8z"/>
<path id="XE79CFFM2Gra4OT17_4_" fill="#FFFFFF" stroke="#000000" stroke-miterlimit="10" d="M3.4,546.2c0.3-9.7,5.2-18.1,10.9-26.2
	c10.2-14.7,23.5-26.1,37.7-36.8c17.1-12.8,35-24.3,54.6-33c15.4-6.8,30.9-13.3,47-18.2c24.4-7.5,49.2-13.3,74.6-16
	c29.8-3.1,59.6-3.2,88.9,4.1c13.5,3.4,26,9.2,37.9,16.3c0.7,0.4,1.4,1,1.9,1.6c1,1,2.7,2,1.7,3.7c-0.9,1.5-2.7,1.3-4.1,0.9
	c-21.9-7.2-42.7-1.5-62.5,7.1c-16,7-30.4,17.2-44.3,27.9c-26.1,20.1-50.1,42.9-77.2,61.8c-14.8,10.3-29.9,20.1-46.7,26.7
	c-24.2,9.5-49.2,17-75.6,16.8c-14.3-0.2-27.8-3.4-37.5-15.3C5.9,561.4,3.6,554.5,3.4,546.2z M73.1,550.1
	c28.9-2.7,56.4-9.2,79.3-28.7c8.6-7.3,15.8-15.7,19.4-26.7c0.8-2,0.6-4.3-0.5-6.2c-4.8-8.7-13.2-10.1-21.8-10.5
	c-9.5-0.3-19,0.8-28.2,3.2c-19.7,4.9-37.6,13.9-54.3,25.4c-7.7,5.1-14.2,11.7-19.3,19.3c-5.1,7.9-2.7,15.1,5.6,19.5
	C59.4,548.6,66.2,550.2,73.1,550.1L73.1,550.1z"/>
<path id="XE79CFFM2Gra4OT17_3_" fill="#FFFFFF" stroke="#000000" stroke-miterlimit="10" d="M579.8,532.7c-26-0.6-51.8-3.4-77.3-8.6
	c-31.1-6.5-60.9-17.1-86.7-36.6c-6.8-5.2-11.9-12.1-18.2-17.8c-1.3-1.2-2.6-3.1-0.8-4.8c1.6-1.5,3.5-0.5,5,0.6
	c15,10.3,32,13,49.5,11.8c15.3-1,30.4-4.2,44.9-9.3c22-7.8,43.2-17.2,64.6-26.4c25.2-10.9,50.7-21.2,77.8-26.7
	c29.3-5.9,59.5-5.7,88.8,0.3c15.2,3.1,28.7,9.6,37,23.9c6.4,10.9,4.2,27.5-4.6,37.1c-13.5,14.8-30.2,24.3-48.4,31.8
	c-15.7,6.5-31.8,11.8-48.3,15.8c-10,2.3-20.2,4.1-30.5,5.1C616.5,530.8,600.3,532.6,579.8,532.7z M663.3,437.4
	c-20.2,0.3-35.9,3.6-50.6,11.6c-8.4,4.6-16.4,9.6-21.4,18.2c-2.6,4.4-2.4,9.1,0.9,12.4c2.7,2.7,5.7,5.3,9.3,6.7
	c14.7,5.7,29.9,9,45.8,7.9c19-1.3,37.7-4.3,55.2-12.1c7.8-3.5,15.7-7.2,20.3-15.4c2.4-4.3,1.9-8-0.9-11.5c-3.8-5.1-9-9-15-11.2
	C691.6,438.6,675.6,438.2,663.3,437.4z"/>
<path id="XE79CFFM2Gra4OT17_2_" fill="#FFFFFF" stroke="#000000" stroke-miterlimit="10" d="M272.6,693.4c0.4-32.4,3.6-64.5,11.4-96
	c4.1-16.1,9.3-32,15.3-47.5c7.1-18.7,16.5-36.4,28.1-52.7c9.8-13.9,22.3-25.8,36.6-35c1.7-1.1,3.8-2.6,5.4-0.8s-0.7,3.2-1.8,4.5
	c-10.7,13.5-15.5,29.3-17.4,46.1c-2.1,18.6,0.4,36.9,4.2,55s8.5,35.9,13.5,53.7c7.3,25.6,13.2,51.7,16.4,78.2
	c1.8,14.8,1.5,29.7-0.7,44.4c-3,20.4-6.4,41-15.5,59.7c-5.5,11.4-14,21.7-26.5,26.1c-11.2,3.9-22,1.6-31.2-6.5
	c-14.6-12.8-21.1-30.1-26.2-48c-6.1-20.6-9.8-41.8-11.2-63.3C272.9,705.4,272.6,699.4,272.6,693.4z M360.8,705.8
	c0.6-6.2-2-17.2-5.6-28c-2.9-8.5-6.9-16.6-13.5-23c-4.9-4.9-12.8-4.9-17.7,0c-0.1,0.1-0.3,0.3-0.4,0.4c-10.8,12-15.5,26.9-17.7,42.2
	c-3.1,22-2.4,44.2,3.4,65.8c1.9,6.9,4.6,13.6,10.1,18.6c5,4.5,10.5,4.7,15.9,0.7c5.3-4,9.6-9.3,12.4-15.4
	C356.2,749.4,359.6,730.6,360.8,705.8z"/>
<path id="XE79CFFM2Gra4OT17_1_" fill="#FFFFFF" stroke="#000000" stroke-miterlimit="10" d="M352.4,450.2c3.4-0.6,7-0.5,10.4,0.1
	c1,0.2,2,0.5,2.3,1.6c0.4,1.4-0.6,2.2-1.6,2.8c-0.7,0.5-1.5,0.8-2.3,1c-21.2,6.2-35.3,21.3-47.3,38.7c-11.7,17-19.1,36-25.9,55.4
	c-7,19.9-13.5,40-20.3,60c-7.8,23-17.1,45.2-30.2,65.5c-15.1,23.6-33.9,44.2-57.5,59.6c-10.1,6.6-21.1,11.8-34.2,10.4
	c-14.1-1.4-27.9-14.8-29.5-28.9c-2.6-22.6,4-43.6,11.3-64.3c7-19.8,16.2-38.7,27.5-56.4c8.4-13.2,17.6-25.9,27.8-37.8
	c14-16.8,29.1-32.5,45.4-47.1c19.8-17.5,41.2-32.8,64.9-44.4C312.2,457.2,332.3,450.6,352.4,450.2z M237.4,609
	c0.1-3.2-0.2-6.3-1-9.4c-1.5-5.8-6.7-11.3-10.8-11.1s-8.1,0.7-11.6,2.6c-16.2,9.1-30.2,21.4-41.2,36.3
	c-7.8,10.3-13.1,21.9-18.9,33.3c-4.7,9.2-7.6,19.2-6.6,29.9c0.5,7.6,7.1,13.3,14.6,12.8c1.3-0.1,2.6-0.4,3.9-0.8
	c7.8-2.8,15.4-6.3,21.8-11.8c9.4-8,18.6-16,26.5-25.6C227.6,648.6,236,630.3,237.4,609z"/>
<path id="XE79CFFM2Gra4OT17" fill="#FFFFFF" stroke="#000000" stroke-miterlimit="10" d="M108.1,301.2c26.3,0.4,52.5,3.7,78,10
	c26.9,6.5,53,15.7,78,27.5c29.2,13.9,56.4,30.9,78,55.6c8.9,10.1,15.3,21.8,21,33.9c0.5,1.1,1,2.3-0.2,3.2s-2.1-0.1-3-0.8
	c-1.4-1.1-2.8-2.3-4.1-3.7c-14.1-16.3-33.1-22.4-53.3-25.3c-26.6-3.7-53.1-0.3-79.7,2.9c-33.2,4-66.2,10.3-99.9,8.9
	c-23.5-1-46.1-6.3-68.2-14.1c-13.1-4.6-25.7-10.1-36.5-19c-6.6-5.5-12.5-11.7-16.1-19.9c-6.4-14.6,2-35.4,17.7-43
	c16.8-8.2,34.8-12.3,53.3-14.1C84.8,302,96.4,300.6,108.1,301.2z M88.4,329.9c-4.2,0-8.4-0.4-12.5,0.1c-9,1-17.8,2.9-25.3,8.3
	c-5.9,4.2-7.2,11.8-2.7,17.5c5.1,6.6,11.5,12.1,18.8,16.2c13.9,7.8,29.1,12.2,44.6,15.5c20.1,4.2,39.7,2.3,57.6-7.7
	c11-6.2,13.9-13.3,3.9-23.6c-3.9-4-8.8-7-13.8-9.9C137.1,333.5,113.1,329.9,88.4,329.9z"/>
<path id="XE79CFFM2Gra7OT17_2_" fill="#FFFFFF" stroke="#000000" stroke-miterlimit="10" d="M340.9,82.3c13.8,0.3,27.6,2.6,40.8,6.8
	c5.7,1.8,11.4,3.7,17,5.7c1.5,0.5,3.6,1,3.3,3.2s-2.3,2.2-4,2.4c-16.1,1.5-30.1,9.4-45,14.4c-12,4-23.5,9.6-36.4,10.1
	c-8.9,0.3-14.9-5.3-15.2-14.2C300.9,96.4,309.8,86,324,84C329.6,83.1,335.3,82.5,340.9,82.3z M324.8,114c9.4-0.2,17.2-4.5,24.9-9.3
	c1.6-1,3.2-2.1,2.7-4.3c-0.4-2-2.2-3.5-4.3-3.7c-8.9-0.7-17.8-2.6-26.4,1.6c-3.9,1.9-7,4.1-6.6,8.8C315.4,111.2,319.8,114,324.8,114
	z"/>
<path id="XE79CFFM2Gra7OT17_1_" fill="#FFFFFF" stroke="#000000" stroke-miterlimit="10" d="M341.2,31.2c11.6,0.3,20.9,6.1,29.5,13
	c16,12.9,27.9,29.4,38.1,47c0.8,1.3,1.7,2.8,0.2,4.1c-1.7,1.5-3,0.2-4.2-1c-3.5-3.6-7.9-6.2-12.8-7.6c-14.1-4.4-28.3-8.7-42.5-12.9
	c-8-2.3-15.6-5.7-22.7-10c-6.4-3.9-9.8-10.4-8.5-15.6C320.6,39.1,331.7,30.9,341.2,31.2z M364.3,66.9c3.9,0,5.8-2.3,3.8-4.9
	c-6.4-8.2-14.1-15.1-24.3-18.3c-3.5-1.3-7.4,0.3-9,3.7c-1.8,3.7-1.4,7.3,2.2,10.3C345.1,64.2,354.8,65.6,364.3,66.9L364.3,66.9z"/>
<path id="XE79CFFM2Gra7OT17" fill="#FFFFFF" stroke="#000000" stroke-miterlimit="10" d="M420.1,74.6c0,5.7,0,11.3,0,17
	c0,1.4,0,3.3-2,3.6c-1.6,0.2-2.2-1.3-2.7-2.5c-7.7-17.9-21.4-31.6-32.9-46.8c-6.3-8.2-12.6-16.4-15.6-26.4c-2-6.8,0.2-12.1,6.4-15.6
	c13.3-7.3,24.9-4.1,32.8,8.9C417.8,31.8,421,52.7,420.1,74.6z M402.8,42.8c-0.8-9.1-3-18.2-9.3-25.8c-2.6-3.1-5.7-5.2-10-2.9
	c-4,2.2-5.4,6.6-3.5,11.1c3.6,8.6,9.4,15.6,16.5,21.5c1.3,1.1,2.7,2.2,4.5,1.4C403.1,47.1,402.8,45,402.8,42.8z"/>
<path id="XFF00FFM1Color11_7_" fill="#FFFFFF" stroke="#000000" stroke-miterlimit="10" d="M475.6,396.9c-1.2,7.7-7.7,13-14.4,18
	c-5,3.7-10.9,5.7-16.9,7.1c-4.3,1.2-8.9-0.5-11.5-4.2c-2.5-3.5-1.1-7.4,1-10.8c6.7-10.7,16.4-17.2,28.6-20.1
	C469.5,385.2,476,389.6,475.6,396.9z"/>
<path id="XFF00FFM1Color11_6_" fill="#FFFFFF" stroke="#000000" stroke-miterlimit="10" d="M607.6,618.3c-15.5-2-29.6-7.3-41.5-17.8
	c-4.5-3.9-5.2-7.8-2.9-12c3.2-5.3,9.4-8,15.4-6.5c13.1,3.4,23.2,11.4,32,21.2c2.2,2.5,4.5,4.9,5.9,8c2,4.5,1,6.5-3.9,7
	C610.9,618.3,609.2,618.4,607.6,618.3z"/>
<path id="XFF00FFM1Color11_5_" fill="#FFFFFF" stroke="#000000" stroke-miterlimit="10" d="M490.5,703.4c0.1,3.3,0.1,6.2-2.9,7.9
	c-3.2,1.7-5.7,0.2-8.2-1.8c-11.6-9-19-21.1-24.6-34.5c-1.2-3.3-1.5-6.9-0.9-10.3c0.8-6.3,10-9.7,16.1-6c4.9,3,8.8,7.2,11.5,12.2
	C486.8,681,489.8,692.1,490.5,703.4z"/>
<path id="XFF00FFM1Color11_4_" fill="#FFFFFF" stroke="#000000" stroke-miterlimit="10" d="M116.4,517.5c-5,0.3-10-0.2-14.8-1.4
	c-5.2-1.2-6.1-4.4-2.4-8.2c8.2-8.6,18.4-14,29.5-17.9c4.4-1.5,8.7-3.3,13.5-3.4c7.7-0.2,10.5,1.4,12.9,7.5c1.5,3.9-0.5,9.5-5,13.1
	c-8,6.5-17.5,9.1-27.6,9.9C120.4,517.3,118.4,517.4,116.4,517.5z"/>
<path id="XFF00FFM1Color11_3_" fill="#FFFFFF" stroke="#000000" stroke-miterlimit="10" d="M627.6,483.8c-3.5-0.4-7-0.5-10.4-1.2
	c-6-1.1-9.8-4.4-10.4-8.6c-0.7-5,2.8-10.9,8.1-13.1c5-2.2,10.5-3.3,16-3.3c11.1,0.1,21.8,2,31.8,7.1c6,3.1,6.3,6.4,0.7,10.2
	c-6.1,4.2-13.2,6.2-20.4,7.3C637.9,483.1,632.7,483.6,627.6,483.8z"/>
<path id="XFF00FFM1Color11_2_" fill="#FFFFFF" stroke="#000000" stroke-miterlimit="10" d="M343.5,687.8
	c-0.2,13.7-3.9,26.6-12.9,37.6c-3.4,4.2-6.8,3.9-8.6-1c-6-15.7-7-31.7-1.3-47.8c2.4-6.8,6-9.2,11.1-8.6s10.3,5.9,11.2,11.9
	C343.4,682.4,343.3,684.9,343.5,687.8z"/>
<path id="XFF00FFM1Color11_1_" fill="#FFFFFF" stroke="#000000" stroke-miterlimit="10" d="M224.8,613.9c0.4,5.5-2.2,9.9-5.2,14.2
	c-7.1,10.3-16.7,17.5-27.7,23.1c-2.8,1.4-5.9,1.8-8.6,0c-2.8-1.9-2.4-5.2-1.5-7.8c5.2-15.1,12.6-28.9,25.7-38.9
	c3.2-2.4,6.8-4.5,10.5-2S225.4,608.3,224.8,613.9z"/>
<path id="XFF00FFM1Color11" fill="#FFFFFF" stroke="#000000" stroke-miterlimit="10" d="M124.2,346.4c11,0.6,21.9,2,31.7,7.5
	c8.2,4.5,8,13.9-0.1,18.7c-4.3,2.6-9.5,3.4-14.4,2.3c-12.6-2.3-24.5-7.7-34.7-15.6c-2.2-1.7-5.3-3.5-4.1-6.7
	c1.1-3.3,3.9-5.2,7.7-5.5C114.9,346.8,119.5,345.7,124.2,346.4z"/>
</svg>
