<?xml version="1.0" encoding="utf-8"?>
<!-- Generator: Adobe Illustrator 21.0.0, SVG Export Plug-In . SVG Version: 6.00 Build 0)  -->
<svg version="1.1" id="图层_1" xmlns="http://www.w3.org/2000/svg" xmlns:xlink="http://www.w3.org/1999/xlink" x="0px" y="0px"
	 viewBox="0 0 822.2 736.2" style="enable-background:new 0 0 822.2 736.2;" xml:space="preserve">
<style type="text/css">
	.st0{fill:#FFFFFF;stroke:#000000;stroke-miterlimit:10;}
</style>
<title>Anime10_13_510</title>
<g>
	<path id="X1100AAM2Gra6OT6_1_" class="st0" d="M649.8,666.9c-0.4-1.2,0.5-1.9,1.1-2.6c19.4-21,29.9-46.4,35.1-74
		c7.7-41.4,2.5-81-19.5-117.6c-18.9-31.3-46.5-52.7-79.3-67.8c-39-18-80.5-25.5-123.1-28c-54.1-3.2-107.9,1.1-161.4,9.4
		c-17.1,2.7-34.2,5.6-51.1,9.2c-0.8,0.1-1.6-0.1-2.2-0.6c2.3-1,4.6-2.1,6.9-2.9c55.9-18.1,112.7-32.6,171-40.4
		c48.4-6.5,96.9-8.4,145.5-1.8c39,5.2,76.4,15.5,110.5,35.8c32,19.1,56.8,44.5,69.3,80.4c9.5,27.2,9,54.7,0.4,82
		c-12,38-35.9,67.6-65.8,93c-10.8,9.2-22.6,17-34.3,25C651.9,666.6,651.1,667.7,649.8,666.9z"/>
	<path id="X1100AAM2Gra6OT6" class="st0" d="M181.5,448.7c8.3-2.2,16.6-4.6,24.9-6.7c54.5-14,109.6-24.5,166-26.4
		c39-1.3,77.7,1.5,115,13.9c33.6,11.2,62.6,29,81.7,59.9c17.9,28.9,22,60.4,16.1,93.4c-7.8,43.1-29,79-60.3,109.3
		c-18.7,18.2-40.7,32.7-64.8,42.6c-1.7,0.7-3.3,2.2-6.2,1.1c2.9-2.7,5.6-5.1,8.1-7.6c29.4-30.1,46.8-66.1,53.1-107.5
		c4.3-27.8,1.8-54.8-8.9-81c-12.7-31.2-35-53.9-64.2-70.1c-35.3-19.6-74-27.1-114-29.6c-47.5-3-94.5,1.1-141.3,9.4
		c-1.6,0.3-3.3,0.3-4.9,0.4L181.5,448.7z"/>
	<path id="XFF0007M2Gra2OT3" class="st0" d="M811.6,497.1c-0.5-7.1-0.8-14.2-1.7-21.2c-3.7-30-12.6-58.2-28.6-84
		c-22.2-35.9-53.8-60.4-92.7-75.9c-32.9-13.1-67.3-18.7-102.5-20.1c-60.5-2.4-119.6,7.1-178.2,20.8c-24.4,5.7-48.4,12.6-72.3,19.9
		c-2.9,0.9-5.9,1.6-9,1.9c11.6-5.4,23.7-9.5,35.7-13.7C401,311.3,440.1,299,480,289.5c56-13.3,112.5-22.4,170.3-18.9
		c34.2,2.1,67.5,8.5,98,25.3c41.8,23,64.9,58.9,71.8,105.8c4.6,31.4,0.4,62.1-6.6,92.7C813.4,495.2,813.5,496.6,811.6,497.1z"/>
	<path id="X0031BFM2Gra2OT25" class="st0" d="M360.9,212.2c-0.7,2.4-2.5,2.4-4,3c-15.6,5.8-30.7,3.8-45.6-2.8
		c-9.1-4-18.1-8.4-28-10.4c-17.2-3.4-32.9-0.6-47,10.5s-32.3,21.1-51.7,24.9c-3.3,0.6-6.6,1.8-11,0.1c4.8-1.4,8.8-2.4,12.7-3.8
		c21.7-7.6,37.9-22.4,52.6-39.3c18-20.7,32.3-44,48.8-65.8c9.3-12.2,19.2-23.9,31.3-33.5c19.1-15.2,40.7-18.6,64.2-14
		c13.6,2.6,27,5.9,40.7,8.1c27.5,4.3,50.7-3.2,69.6-23.6c0.5-0.8,0.9-1.6,1.1-2.5c2.1,2.3,0.9,3.2,0.4,4
		c-16,25.3-38.3,40.3-68.8,41.6c-9,0.4-18,0.3-27,0.4c-1.4,0-3.2-0.9-4.2,0.7s0.7,2.7,1.4,4c7.5,14.2,10.3,29.1,6.2,44.9
		c-0.3,1.1-0.9,2-1.8,2.7c-0.1-1.3-0.3-2.7-0.3-4c0-16.4-6.5-30.3-15.9-43.3c-2.6-3.6-5.5-5.1-9.7-4.2l-2,0.3
		c-8.8,1.2-8.1,1.4-10.7,9.5s-1.4,10.1,4.8,14.6c13.8,9.9,14.1,30.6,1.7,40.9s-32.1,3.4-37.3-13.6c-2.5-8.4-2.7-8.5-10.2-3.3
		s-11.6,14.8-7.8,24.6c6,15.4,18.2,23.6,33.6,28C351.4,212.1,356.2,211.1,360.9,212.2z"/>
	<path id="XF9D886M2Gra4OT15" class="st0" d="M338.5,291.3c-2.9,2.1-5.8,2.3-8.5,2.8c-53.4,10-104.7,26.3-152.1,53.2
		c-28.6,16.1-54.2,35.9-72.9,63.4c-22.4,32.9-26.4,68.3-15.1,106c5,16.3,12.1,31.8,21.3,46.1c0.7,1.1,2,2.3,1.1,3.6
		s-2.5,0.3-3.7,0.1c-37-8.3-64.6-29.6-84.6-61.3c-13.1-20.8-21.2-44.3-23.8-68.8c-0.2-1.7-0.8-3.6,1-5.5c2.6,8.2,4.4,16.2,7.5,23.9
		c10.3,26,24.8,49,47.1,66.5c2.6,2,5.5,3.8,8.2,5.6c0.9,0.6,2,1.6,3.2,0.8s0.3-2.1,0.1-3.2c-2.9-13.7-4.1-27.7-3.6-41.7
		c1.4-34.2,12.6-64.8,34.1-91.6c10.1-12.7,21.8-23.9,34.9-33.4c2.7-2,3.7-4,3.3-7.5c-1.7-17.7,8.1-30.3,25.7-33.3
		c4.4-0.8,8.9-1.3,13.3-2.2c14-2.8,19.5-10.4,17.9-24.6c-0.8-6.6-0.7-6.7,5.6-4.2c23.9,9.6,48.9,10.6,74.2,10
		c20.5-0.4,40.9-3.1,61.3-4.4L338.5,291.3z"/>
	<path id="X7FF9FFM2Gra1OT7_1_" class="st0" d="M310,468.4c5.2-0.7,9.8,1.1,14.5,2.3c23.8,5.8,46.5,14.5,66.2,29.4
		c41.4,31,53,78.9,30.8,125.9c-25.7,54.3-81.4,88-141.5,85.5c-1.1,0-2.4,0.3-3.3-1.1c1.5-2.1,4-2,6.1-2.6
		c24.6-6.8,47.2-17.5,65.9-35.2c31.2-29.6,41.7-66.4,34.6-108c-6.3-37-24.8-66.8-56.7-87.5C321.4,473.7,315.6,471.3,310,468.4z"/>
	<path id="X1100AAM2Gra8OT6_1_" class="st0" d="M810.1,288.2c-23.9-55.3-59.7-101-105.5-138.9s-98-63.5-158.3-70.3
		c0.8-1.8,1.8-1.6,2.5-1.7c42.4-0.9,83.9,3.5,123.3,20.2c52.6,22.3,89.5,60.7,114.1,111.7c11.1,23.1,18.5,47.4,23.9,72.4
		C810.6,283.6,811.2,285.5,810.1,288.2z"/>
	<path id="XFF0007M2Gra1OT3_1_" class="st0" d="M410.6,278.5c1.7-4.6,5.6-7.3,8.7-10.5c24.8-24.8,55-40.1,88.2-50
		c48.3-14.4,97.4-16.2,146.8-6.2c34.1,6.7,66.4,20.9,94.4,41.5c2,1.5,3.8,3.2,5.7,4.8c0.3,0.3,0.3,0.8,0.6,1.9
		c-55.6-27.1-114.3-36.7-175-34S461.7,243.1,410.6,278.5z"/>
	<path id="X1100AAM2Gra8OT6" class="st0" d="M285.8,52.7c6.3-6.6,13.2-10.6,19.8-14.9c35.8-23.4,75.8-33.9,117.9-36.9
		c59.4-4.2,116.5,6.4,171.7,28c23.2,9,45.3,20.5,65.9,34.3c1.6,1.1,3.5,1.9,4.9,4.2c-3.4-0.4-5.7-2.3-8.2-3.6
		C626,47.2,591.9,37.7,557,30.8c-60.5-12.1-121.3-15-182.4-5.5c-27.4,4.3-54,11.6-79.3,23.5C292.6,50.1,290.2,52.4,285.8,52.7z"/>
	<path id="X7FF9FFM2Gra1OT7" class="st0" d="M186.5,659.8c42.1-10.3,73.3-33.4,88.2-74.2c14.9-40.8,7.3-78.3-20.4-111.6
		c0.6-1.2,1.4-0.8,2.1-0.3c21.9,14.6,40.5,32.1,49,58c9.6,29.3,4.4,56.6-12.8,81.3c-24.5,35.1-58.9,50.7-101.5,48.7
		C189.4,661.8,187.7,661.1,186.5,659.8z"/>
	<path id="XDAA6B7M2Gra6OT11_1_" class="st0" d="M119.2,124.6c-6.2,8.3-11.5,17.1-15.8,26.5c-4.9,10.9-8.5,22.1-8.3,34.2
		c0.2,10.3,3.1,19.4,12.7,25c0.7,0.4,1.3,1,1.5,1.8c0.2,1.4-1.2,1.3-2.1,1.6c-42.6,12.3-74,60.6-71.5,103.1c0.1,1.5,0,3,0,5.1
		c-2.3-1.6-2.3-3.6-2.6-5.4c-5-27.2,0.5-52.3,14.8-75.6c6.1-10,12.9-19.4,23.1-25.8c1.6-1,1.9-2.2,1.1-3.8
		c-3.7-7.1-2.6-14.3-0.6-21.4C79.1,162,96.4,141.3,119.2,124.6z"/>
	<path id="XFF0007M2Gra1OT3" class="st0" d="M659,173.1c-2.3,1.8-4.1,1.3-5.6,1.2c-39-2.4-77.1,3.3-114.5,14
		c-35.2,10-68.3,24.5-97.7,46.6c-13.3,10-25.9,20.9-35.5,34.8c-0.7,1-1.3,2.4-3.6,2.1c3.2-7.9,7.5-15.3,12.7-22
		c24.3-31.9,56.7-52.5,93.6-66.5c40.5-15.4,82.4-19.6,125.3-14.6C641.9,169.7,650.1,170.5,659,173.1z"/>
	<path id="X0031BFM2Gra4OT25_1_" class="st0" d="M254.8,215.3l16.6,5.2c42.2,13.4,81.5,7.3,118.3-17c18.4-12.1,35.5-26,53.9-38
		s38.9-20.4,61.4-22.1c1.6-0.1,3.3-0.6,4.8,0.3s-0.3,1.3-1,1.5c-21.4,6.3-39.8,18.5-58,30.8c-20,13.5-39.6,27.7-61,39
		c-43.4,22.9-87.3,24-131.7,3.5l-3.8-2.1L254.8,215.3z"/>
	<path id="XD40011M2Gra2OT2" class="st0" d="M96.6,458.7c1.5-6.5,3.7-12.9,6.4-19c10.2-23.1,26.3-41.5,45.6-57.3
		c37.7-30.8,80.7-50.7,128.3-60.7c1.5-0.3,2.9-0.5,4.4-0.6c0.7,0.1,1.4,0.3,2,0.6C207.2,349.1,140.3,388,96.6,458.7z"/>
	<path id="X0031BFM2Gra4OT25" class="st0" d="M151.4,233c9-3.9,17.6-8.5,25.2-14.9c15.3-12.9,27.6-28.3,39.2-44.5
		c17.5-24.3,33.3-49.9,52.9-72.6c7.5-8.9,15.9-17.1,25-24.4c3.7-2.9,7.5-5.5,12.4-6.5l-8.1,6.6c-16.3,13.7-28.5,30.7-40,48.3
		c-13.7,20.9-26.4,42.4-41.6,62.2c-12.1,15.8-25.5,30.3-43.6,39.7C166.1,230.4,159.1,232.9,151.4,233z"/>
	<path id="XDAA6B7M2Gra6OT11" class="st0" d="M104.9,269.2c14,1,25.1,7.6,34.2,18.1c0.6,0.7,1.5,1.5,0.9,2.6s-1.5,0.6-2.3,0.3
		c-10.3-3.9-21-2.7-31.6-3c-2.8-0.1-5.7-0.1-8.5-0.3c-2.8-0.2-7.8-1.1-8.7-5.3c-0.9-4.2,1.6-7.3,4.8-9.8
		C96.9,269.3,101,269.5,104.9,269.2z"/>
</g>
</svg>
