<?xml version="1.0" encoding="utf-8"?>
<!-- Generator: Adobe Illustrator 24.1.0, SVG Export Plug-In . SVG Version: 6.00 Build 0)  -->
<svg version="1.1" id="图层_1" xmlns="http://www.w3.org/2000/svg" xmlns:xlink="http://www.w3.org/1999/xlink" x="0px" y="0px"
	 viewBox="0 0 599.6 762.1" style="enable-background:new 0 0 599.6 762.1;" xml:space="preserve">
<style type="text/css">
	.st0{fill:#FFFFFF;stroke:#000000;stroke-miterlimit:10;}
</style>
<g>
	<path id="XF37FFFM2Gra8OT19_4_" class="st0" d="M461.1,80.4c-1.7-37.5,32.6-76.8,71-80.2c21.9-2,48.9,11.3,60.8,36.9
		c7,15,8.2,30.5,5.3,46.8c-2.5,13.6-5.9,26.7-13.6,38.3c-12.8,19.5-28.5,35.8-51.6,42.6c-15.6,4.6-29.4,0.1-40.5-11.6
		c-12.9-13.6-22.7-29.1-27.8-47.3C462.3,97.3,460.8,88.6,461.1,80.4z"/>
	<path id="XA34F1FM2Color24_6_" class="st0" d="M407.8,608.5c-0.9,17.2-1.2,33.8-7.7,49.3c-4.2,10.1-10.8,19.1-16.9,28.2
		c-3.5,5.2-6.9,10.5-7.3,17.2c-0.5,8.8,3.9,15.3,12.4,17.9c7.1,2.1,14.2,0.7,21.4,0.5c5.6-0.1,10.8,0.8,14.1,5.6
		c3.3,4.8,1.6,9.9-1,14.6c-8.5,15.4-28.7,24-47.1,18.6c-13.1-3.8-26.2-6.1-39.7-5.7c-2.8,0-5.6-0.6-8.2-1.8
		c-9.2-3.6-13.5-12.7-10.1-22c1.3-3.6,3.2-7,4.7-10.5c2.9-6.8,5.1-13.6,5-21.2c-0.2-16.8-0.7-33.7-0.1-50.5
		c0.8-26.5,8.8-50.7,24.6-72.1c6.7-9.1,14.9-16.7,26.2-19.8c10.8-3,23.4,4.6,25.8,15.6c0.9,4.1,1.6,8.2,2.1,12.3
		C406.6,592.9,407.2,601,407.8,608.5z"/>
	<path id="XA34F1FM2Color24_5_" class="st0" d="M306,257.2c4.5-0.1,9.1-0.2,13.4,1.2c3.5,1.1,4.7-0.1,5.9-3.1
		c3.8-9.5,10.6-15.5,21.2-16.6c9-1,16.1,2.1,20.7,9.9c4.7,7.8,3.9,17.8-2,24.8c-2.7,3.1-2.2,4.4,0.8,6.6
		c7.9,5.9,13.8,13.7,18.1,22.3c3.1,6.1,2.6,13.3,1.7,20.1c-1.3,10.1,1.9,14.5,11.7,16.2c8,1.4,11.7,6.9,8.9,14.4
		c-4.9,13.4-15.9,20.3-28.2,25.8c-1.1,0.5-2.3,0.6-3.3,1.1c-8.3,4.6-15.2,3-22.9-2.7c-16-11.8-33.5-21.1-53.3-25.3
		c-8-1.7-16.3-1.9-24.3-0.4c-2.9,0.5-5.1,0.1-6.6-2.8c-11.1-21.4-14.4-43.5-5.4-66.5c4.6-11.8,14.2-18.1,25.5-22.2
		C293.6,258.1,299.8,257.1,306,257.2z"/>
	<path id="XCCFFC7M2Color21_3_" class="st0" d="M134.2,263.3c0,19.2-4.7,35.6-12.8,51.3c-9.4,18.1-29.5,21.8-44.5,11.9
		c-23-15.1-40.5-34.7-45.9-62.7c-2.9-14.7-2.4-29.6,3.9-43.6c6.4-14.2,17.8-22,32.4-26.5c15-4.6,28.5-2.4,41.2,6.5
		c9.6,6.7,14.8,16.6,18.9,27.1C132,238.7,134.3,251,134.2,263.3z"/>
	<path id="XFF3366M2Color4_2_" class="st0" d="M210.2,162c-1.8,31.7-15.6,56.2-40.4,74.7c-6.8,5.1-14,9.6-21.5,13.6
		c-3.8,2-5.5,1.2-6.2-2.9c-0.3-1.1-0.5-2.3-0.7-3.4c-0.7-23.6-12.6-40.9-31.3-54c-5-3.5-6.4-6.8-5.2-12.7
		c3.9-19.4,10.6-37.4,24.4-52.1c7-7.5,14.9-13.6,25.1-16.5c14.3-4.1,26.4,0.8,37,9.7C204.8,129.9,209.3,145.5,210.2,162z"/>
	<path id="X990000M2Color5_2_" class="st0" d="M281.4,357.3c12.1-0.3,23.3,3,34.5,7.1c8.4,3.1,16.4,7.4,23.6,12.8
		c5.3,3.9,5,6.2-0.9,8.8c-18.9,8.5-30,23.6-36.3,42.7c-4.1,12-5.5,24.8-4.2,37.4c0.5,4.7-0.2,10.3,6.2,12.3c1.7,0.5,1,2.1,0.3,3.4
		c-7.6,13.1-13.8,27-18.4,41.4c-1,3.1-3.3,4.2-6.2,5c-14.6,3.9-13.3,5.1-20.5-9.3c-10.5-21.1-14.4-43.8-16.3-67
		c-1.8-22.4-1.2-44.6,3.8-66.6c2.9-12.5,9.1-22.4,22.2-26.7C273.1,357.3,277.2,357.4,281.4,357.3z"/>
	<path id="X66FFFFM1Color16_4_" class="st0" d="M245.5,250.3c-1.1,20.3-8.2,39.7-27,53.3c-14.1,10.2-29.8,13.5-46.9,10.8
		c-10.7-1.7-20.6-5-29.3-11.8c-2.2-1.7-2.8-3.3-2-5.9c2.9-10.1,4.7-20.5,3.6-31.1c-0.4-3.6,1.8-4.6,4.4-5.7
		c19-8.1,35.5-19.6,48.6-35.6c7.4-9,13.1-18.8,16.2-30.1c1.3-4.8,2.6-5.3,7-2.7c9.6,5.7,15.6,14.2,19.6,24.5
		C243.8,226.4,245.6,237.2,245.5,250.3z"/>
	<path id="XFF99FFM1Color9" class="st0" d="M0.1,154.2c-0.6-8.1,0.6-16.3,3.5-23.9c9.7-24.6,32.7-33.7,57.8-22.7
		c18.9,8.3,32.4,22.3,42.1,40.3c1.1,2.1,0.5,3.7-0.4,5.6c-3.9,7.8-7.1,15.8-8.2,24.5c-0.5,3.8-2.3,4.8-6.1,4.6
		c-20.8-1.1-38.6,5.5-52.6,21.4c-3.1,3.5-5.5,7.5-7.2,11.9c-1.7,4.7-4.1,5.2-7.7,1.8c-7.1-6.7-10.8-15.5-14.5-24.3
		C1.7,181.3-0.3,168.5,0.1,154.2z"/>
	<path id="XA34F1FM2Color24_4_" class="st0" d="M316.7,614.4c-1.1,13.1-5.7,24.9-9.6,36.9c-3,9.1-5,18.3-1.1,27.8
		c1,2.4,2.2,3.6,4.7,3.5c6.8-0.4,9.5,5.2,5.6,11.9c-4,6.6-8.8,12.6-14.3,17.9c-8.6,8.6-18.6,15.2-30.7,17.7
		c-14.6,3.1-25.9-7.4-24.2-22.1c1.1-9.5,3.7-18.6,6.5-27.7c4.4-14,2.3-27.6-1.4-41.3c-4.8-17.9-4.5-35.9-0.6-53.9
		c1.4-6.5,2-6.6,7.7-3.3c6,3.5,12.5,4.4,19.3,3.7c2.9-0.3,5.1,0.2,6.2,2.9c5,12,15.4,16.8,26.8,20.3
		C314.6,609.6,318.1,610.1,316.7,614.4z"/>
	<path id="XFFCC00M1Color2_1_" class="st0" d="M271.9,95.4c-1.2,33-13.5,60.3-40.6,80.2c-2.3,1.6-4.8,3-7.3,4.2
		c-1.3,0.7-2.7,1.7-4.2,0.7c-1.6-1.1-0.8-2.7-0.5-4.1c3-16.9,0.1-32.8-8.1-47.8c-6.7-12.4-16.4-21.3-30-25.5c-2.6-0.8-3.8-2-3.8-4.9
		c0-22.1,18.9-46.1,40.3-51c22.7-5.2,47.6,10.9,52.4,33.8C271.1,85.8,272.4,90.5,271.9,95.4z"/>
	<path id="X990000M2Color5_1_" class="st0" d="M381.2,420.9c0.9-7.4-2-14.4-5.4-21.4c-0.6-1.2-2.3-2.6-0.3-3.8
		c1.5-1,2.8,0.3,3.9,1.4c6.6,6.8,12,14.8,15.7,23.5c3.5,7.9,5.5,16.4,8.3,24.5c4.4,12.2,11.9,22.6,18.6,33.5
		c8.1,13.3,17.6,25.9,23.2,40.7c0.6,1.2,1,2.5,1.1,3.8c0.1,2.6,1,5.4-1.9,7.2s-4.6-0.5-6.6-1.9c-8.4-5.6-17.5-7.5-27.6-6.3
		c-20.8,2.5-41.1,8.7-62.4,7.3c-1.9-0.1-4.3,0.9-5.6-1.2c-1.2-2.1,0.7-3.7,1.7-5.3c7.5-12.1,13.3-24.9,15.5-39.2
		c0.2-1.5,0.5-3.2,1.8-4c9.3-5.9,11.6-15.9,14.4-25.4C379,443.5,380.8,432.3,381.2,420.9z"/>
	<path id="XFFCC00M1Color2" class="st0" d="M82.2,81C82,70.9,85.5,59.8,93.5,50.1c8.1-9.9,21.4-14,33.7-10.3
		c17.2,4.9,26.7,17.8,34.3,32.6c2.7,5.4,4.5,11.1,5.4,17.1c1,5.7,0.2,7.1-5.6,8.2c-13.8,2.5-26.6,9.1-36.7,18.9
		c-5,4.8-9.9,10-13,16.3c-2.1,4.2-3.7,3.9-6.8,0.9C90.4,120,82.4,103.5,82.2,81z"/>
	<path id="XA34F1FM2Color24_3_" class="st0" d="M334.2,477.3c5.2,0,10.3,0,15.5,0c5.5,0,6.3,0.9,5,6c-2.7,10.8-6.3,21.4-12,31
		c-10.4,17.6-21,35.2-35.9,49.5c-9.3,8.9-20.1,14.9-33.3,14.9c-7.9,0-14.6-2.8-18.6-10.3c-2.3-4.4-1.8-6.2,2.6-8.2
		c1.5-0.7,3.1-1.1,4.4-2.3c2.5-2.6,3-4.9,0-7.6c-4.3-4-4-6.5,1.1-9.5c6.7-4.1,14-7,21.7-8.5c2.6-0.5,3.9-1.6,4.9-4.1
		c4.2-10.5,8.7-20.8,13.1-31.2c0.3-0.8,0.8-1.5,1-2.3c4.1-11.7,11.2-18.9,24.6-16.8c2,0.2,4,0.2,6,0L334.2,477.3z"/>
	<path id="X990000M2Color5" class="st0" d="M304.3,460.8c1-20,6.5-38.4,19.8-53.8c6.1-7.1,13.8-12.6,22.5-16.2
		c7.2-3.1,19,3.1,23,11.8c4.4,9.7,5.1,19.9,4.3,30.3c-0.9,13.1-5.6,25.3-10.6,37.3c-0.9,2.1-2.4,3.6-5,3.3
		c-14.3-1.8-28.6-0.9-42.9-0.9c-1.5,0-3,0.1-4.5,0.1c-5.4-0.1-6.7-1.5-6.6-6.9C304.4,464.1,304.3,462.4,304.3,460.8z"/>
	<path id="X3399FFM1Color17" class="st0" d="M434.1,543c-0.8,11.5-3.8,22.7-9,33c-1.9,3.7-4.4,7.1-7.5,9.9c-0.9,0.9-1.5,2.5-3.1,1.9
		c-1.7-0.6-2-2.2-2.1-3.7c-0.6-4.6-0.4-9.3-1.3-13.9c-4.3-21.1-21.1-29.5-40.6-20.4c-12.8,5.9-22,15.9-30.2,27
		c-5,6.7-9.4,13.8-12.4,21.6c-1.7,4.5-4.2,5.6-8.8,4.2c-10-3.1-19.2-7.5-26.4-15.3c-2.4-2.6-2.6-4.5,0.8-6.1
		c17.9-8.4,29.9-23,40.1-39.3c2.4-3.9,5-6.1,9.8-5.8c18.4,0.9,36.5-1.7,54.6-5.1c9.2-1.7,18.7-1.3,27.8,1.1
		C436.1,534.9,434.5,534.5,434.1,543z"/>
	<path id="XA34F1FM2Color24_2_" class="st0" d="M472.8,454.2c-1,4,1.2,9.6-1.6,12.3c-2.7,2.5-7.8-0.4-11.9-0.7
		c-7.8-0.5-15.7,0.7-23,3.5c-5.5,2-9.3,1-12.7-4c-8.1-11.7-14.9-24.1-19.2-37.7c-1.5-4.7-0.1-6.2,4.9-5.1c8,1.8,16,3.3,23.8,5.7
		c13.3,4.1,25.7,1.6,37.9-3.7c6.5-2.8,13-4,19.9-1.3c3,1.2,6.4,2.9,5.6,6.6c-0.9,3.8-4.4,4.2-8.2,3.4c-8.9-1.9-15.2,3.7-15.1,12.9
		C473.2,448.7,473,451.3,472.8,454.2z"/>
	<path id="XA34F1FM2Color24_1_" class="st0" d="M317.2,241.4c-0.2,1.5-0.3,3.3-0.6,5.1c-0.7,4.2-2.2,6.1-7.3,5.3
		c-9.1-1.6-18.5-0.2-26.7,4c-3.5,1.7-5,0.9-6.4-2.4c-4.9-11.4-1.1-23.1,9.5-28.7c9.9-5.2,24.2-1.3,30,8.2
		C317.2,235.4,317.3,238.2,317.2,241.4z"/>
	<path id="XFF3366M2Color4_1_" class="st0" d="M193.2,471.6c-5-2-6.6-5.7-8.6-8.7c-24.5-37.6-44.1-77.4-55.1-121.2
		c-2.2-8.7-2.3-17.1,0.5-25.5c0.5-1.6,0.8-3.8,2.9-3.3c2,0.4,0.9,2.5,0.6,3.8c-2,12.2,0.6,23.8,3.9,35.4
		c11.9,41.6,30.9,79.9,54.3,116.1C192.3,469.3,192.8,470.5,193.2,471.6z"/>
	<path id="XF37FFFM2Gra8OT19_3_" class="st0" d="M485.3,310.5c-0.6-6.7,1-12.1,2.4-17.5c5.2-19.6,11.5-38.8,15-58.8
		c1.5-8.3,2.2-16.8,3.3-25.2c0.2-1.6,0.2-3.3,0.5-5c0.4-2.2,0.3-5.4,3.3-5.3c3.6,0.1,2.1,3.5,2.2,5.5c1.5,17.7-3.8,34.2-9.1,50.7
		c-5.2,16.3-11.1,32.4-15.8,48.8C486.7,305.6,487.4,307.7,485.3,310.5z"/>
	<path id="XA34F1FM2Color24" class="st0" d="M478.3,458.6c-0.3-6.1,1-11.9,2-17.9c0.5-3.2,2.6-4.4,5.9-3.2
		c7.6,2.6,12.2,9.5,10.9,17.5c-1.3,8.4-6.2,11.2-14.9,13.1c-2.7,0.6-4.1-0.6-3.9-3.5C478.4,462.6,478.3,460.6,478.3,458.6z"/>
	<path id="X66FFFFM1Color16_3_" class="st0" d="M185.3,476.1c-7.3-2.2-12.2-7.4-17-12.5c-16.5-17.8-25.7-39-28.2-63.1
		c-0.2-1.6-1-3.8,1.2-4.3c2.3-0.5,2.3,2.1,2.6,3.5c3.3,15.3,8.8,30,16.3,43.7c5.9,10.9,13.3,20.7,22.8,28.8
		C184,473.1,185.6,473.8,185.3,476.1z"/>
	<path id="XF37FFFM2Gra8OT19_2_" class="st0" d="M470.4,524.2c0.3-14.5,3-28.8,5.2-43.1c0.2-1.2,0.1-3.1,1.9-3
		c1.5,0.1,1.9,1.8,2.1,3.1c0.7,4.9,0.7,10-0.1,14.9c-3.1,18.6-5.8,37.2-2.7,56.1c0.8,4.6,2,9.1,3,13.6c0.2,1.2,0.4,2.5-1.1,2.9
		c-1.6,0.3-1.9-1.1-2.1-2.2C473.6,552.6,469.9,538.7,470.4,524.2z"/>
	<path id="XF37FFFM2Gra8OT19_1_" class="st0" d="M483.3,322.8c-0.5,6.7-1,13.4-1.6,20c-1.7,23.2-2.1,46.5-1.2,69.8
		c0,1.3,0.6,3.1-1,3.5c-1.9,0.5-2.4-1.3-2.8-2.8c-2.2-7.7-3-15.7-2.4-23.7c1.6-20.9,2.3-41.9,6.2-62.5
		C480.8,325.6,480.5,323.8,483.3,322.8z"/>
	<path id="XCCFFC7M2Color21_2_" class="st0" d="M164.4,403.8c4.9,1.6,7.9,5.5,11.6,8.3c12.3,9.6,21.7,22.3,27.3,36.8
		c2.6,6.4,2.5,13.4,2.3,20.2c0,1-0.2,2.2-1.5,2.1c-1.5-0.1-1.6-1.5-1.8-2.6c-0.7-7.2-3.1-13.9-5.2-20.8c-3.6-11.8-12-20.2-20-28.9
		c-3.4-3.7-7-7.2-10.3-10.9C165.8,407,164,406.2,164.4,403.8z"/>
	<path id="X66FFFFM1Color16_2_" class="st0" d="M203,496.2c4.2,11.7,7.8,22,13.6,31.4c7.6,12.3,16.2,23.6,29.9,29.9
		c0.9,0.4,2.1,0.9,1.5,2.1c-0.7,1.4-2.1,0.7-3.1,0.4c-9.9-2.6-17.4-8.5-23.9-16.3c-9.5-11.5-14.5-24.9-18.4-38.9
		C202,502.5,201.3,500.1,203,496.2z"/>
	<path id="XCCFFC7M2Color21_1_" class="st0" d="M106.9,332.2c2.5-0.2,3.4,0.8,4.1,2c2.4,3.8,4.8,7.6,7.4,11.2c1.5,2.1,1,3.5-1.1,4.3
		c-5.1,1.9-10.3,3.6-15.6,5.2c-2.3,0.7-3.3-0.9-3.4-3.1c-0.3-4.1-0.7-8.3-1-12.4c-0.1-1.2,0-2.5,1.1-3.1
		C101.4,334.7,104.6,333.3,106.9,332.2z"/>
	<path id="XFF3366M2Color4" class="st0" d="M249.5,551.3c-22.2-16.7-32.3-42-46.7-64.2c0.7-0.5,1.4-1,2-1.4
		C220.3,507.1,233.3,530.3,249.5,551.3z"/>
	<path id="XF37FFFM2Gra8OT19" class="st0" d="M513.5,192.2c-2.7-0.3-7,1.1-8.9-2.6c-1.8-3.5,2.1-5.8,3.6-8.6
		c1.3-2.3,2.8-4.5,4.6-6.5c3-3.2,6.5-2.4,8.3,1.6c1.3,3,2.8,6,4.5,8.8c2.1,3.5,0.4,5.2-2.6,6.3C520.1,192.3,517.1,192.3,513.5,192.2
		z"/>
	<path id="X66FFFFM1Color16_1_" class="st0" d="M158.4,327.8c-0.2,7.8-0.5,8.1-7.4,6.8c-0.7-0.1-1.3-0.2-2-0.4
		c-10.2-2.2-11.1-4.4-5.2-12.6c0.6-0.8,1.1-1.7,1.7-2.4c1.5-1.8,2.4-5.2,5.5-3.7c3,1.5,7.3,2.1,6.9,7.2
		C157.8,324.4,158,326.1,158.4,327.8z"/>
	<path id="XCCFFC7M2Color21" class="st0" d="M112.8,357.5c1.2,0.1,2.3,0.8,2.9,1.8c4.9,6.7,10.5,12.8,16.9,18.2
		c0.9,0.8,2.7,1.5,1.5,3.1s-2.8,0.6-4-0.3c-6-4.5-11.3-9.8-15.6-15.9c-1-1.3-2-2.7-2.9-4.1C110.8,358.9,110.9,357.8,112.8,357.5z"/>
	<path id="X66FFFFM1Color16" class="st0" d="M145.2,355.2c0.1-4,0.6-7.9,1.6-11.7c0.3-1.4,1-2.6,2.7-2.3c1.8,0.3,1.7,1.8,1.6,3.1
		c-0.5,5.6-2.1,11.1-2,16.8c0,0.8-0.3,1.8-1.3,1.7c-0.5,0-1-0.7-1.4-1.2C145.3,359.6,144.9,357.4,145.2,355.2z"/>
</g>
</svg>
