<?xml version="1.0" encoding="utf-8"?>
<!-- Generator: Adobe Illustrator 24.1.0, SVG Export Plug-In . SVG Version: 6.00 Build 0)  -->
<svg version="1.1" id="图层_1" xmlns="http://www.w3.org/2000/svg" xmlns:xlink="http://www.w3.org/1999/xlink" x="0px" y="0px"
	 viewBox="0 0 572 802.4" style="enable-background:new 0 0 572 802.4;" xml:space="preserve">
<style type="text/css">
	.st0{fill:#FFFFFF;stroke:#000000;stroke-miterlimit:10;}
</style>
<path id="XDAA6B7M2Gra5OT11_1_" class="st0" d="M151.8,252c-2.3,2.8-4.7,5.6-6.9,8.5c-38,50.2-43.8,104-17.3,161.1
	c11.2,24.2,27.6,44.7,46.8,63c20.7,19.6,45.7,26.3,73.4,25.3c5.2-0.2,10.5,0.1,16.2-1.5c-40.4-32-56.5-75.3-61.2-124.2
	c3.6,1.5,4.8,4.9,6.8,7.6c23.2,30.6,50.2,57,85.3,73.9c23.4,11.3,48.2,12,73.4,9c13.9-1.6,27.4-5.5,41.6-5.3
	c26.5,0.4,47.9,14.9,54.6,38.2c6.5,22.7,5.4,44.8-7,65.6c-0.4,0.5-0.7,1-1.2,1.4c-1.8-1-0.8-2.2-0.6-3.2c1.2-6.6,1.3-13.2,1.9-19.9
	c1.5-18.6-7.2-31.7-21.5-42.4c-19.7-14.7-41.4-14.5-64-10.1c-21.5,4.3-40.8,14.1-59.7,24.8c-19.1,10.9-38.6,20.8-60,26.8
	c-35.9,10-70.7,9.4-104.5-7.2c-24.3-11.9-42.1-31.1-58.2-52.3c-9.4-12.4-15.9-26.1-21.2-40.6c-0.5-1.3-0.5-3-2.3-4.1
	c-9.7,13.8-11.2,30.1-14.5,46.3c-2.7-1.2-3.4-3.6-4.8-5.3c-22.9-30.7-38-64.7-44.2-102.7c-5.2-31.9-2.9-64.5,6.6-95.4
	c12.5-41.6,33.5-80.2,61.5-113.4c3.4-4.1,6.7-8.2,10.1-12.4c0.2-0.2,0-0.6,0-1.1c-19.7,6.9-37,17.7-53.6,29.9l-1-1.1
	c3.9-5.2,7.8-10.4,11.8-15.6c9.3-12.2,18.7-24.3,28.9-35.8c20.7-23.4,46.6-39.5,74.7-52.4c19.8-9.1,39.9-17.7,59.9-26.4
	c0.6-0.3,1.2-0.7,2.3,0.5c-35,19.3-72.1,35.6-95.4,70.7c1.6,1.4,3.1,0.8,4.5,0.5c8.7-1.8,17.5-2.1,26.4-2.3c1.1,0,2.5-0.7,3.2,0.6
	s-0.8,2-1.6,2.7c-45.4,40.7-68.1,93.2-78.2,152c-3.5,20.1-2.9,40.5-0.8,60.8c0.1,2.4,0.5,4.8,1,7.1
	C79.6,308.5,109.3,274.6,151.8,252z"/>
<path id="XFFCC00M2Color2_2_" class="st0" d="M340.5,691.6c2.5-2.2,4.9-4.2,7.3-6.5c9-8.7,17.6-17.8,24.9-28c17.7-25,22-51.8,8.1-80
	c-11.2-22.7-27.4-30.5-52.4-26.6c-8.4,1.3-16.7,2.9-24.7,5.8c-1.1,0.4-2.4,1.1-3.1-0.2s0.6-2.1,1.5-2.7
	c27.7-17.3,55.8-33.3,90.4-28.1c17.8,2.7,32.6,10,39.5,27.9c3.9,10.1,2.7,20.7,1.6,31.2c-0.9,8.7-4.3,16.7-7.9,25.5
	c4.8-1.8,8.1-4.5,11.2-7.1c22-18.2,43.6-36.7,60.6-60c13.1-18,19.9-38.2,22.4-60.1c1.1-8.1,1.4-16.3,1.1-24.4
	c-0.1-1.4,0.5-3-1.5-4.2c-4.9,19.4-13.1,37.7-24.4,54.2c-1.8-1.7-0.7-3.1-0.5-4.5c2.1-16.4,5.2-32.8,1.9-49.2
	c-6.6-32.3-23.7-55.2-57.7-62.7c-16.7-3.7-33.3-8-50.3-10.7c-1.6-0.2-3.2-0.4-5.3-0.6c0.9,3.9,3.4,6.4,5.6,8.8
	c8.6,9.4,19.6,14.9,31.6,18.2c27.8,7.7,44.3,26.3,52.3,53.3c0.1,0.3-0.1,0.6-0.1,0.9c-0.9,0.8-1.5,0-2.1-0.5
	c-17-16.3-38.2-22.7-60.9-24.4c-36-2.7-65.9-26-76.2-60.7c-3.2-10.6-3.7-21.3,1.1-31.7c2.9-6.3,8-10.5,13.2-14.8
	c1.8-1.5,2.5-0.8,2.8,1.3c3.9,25.3,23.8,31.9,44.3,36.7c16.6,3.9,33.9,1.6,50.8,2.8c20.5,1.3,40.4,7.5,58.1,18
	c12.2,7.2,18,18.8,20.8,32.2c5.9,28.2,3.2,56-3.5,83.7c-16,65.8-54.6,115.4-110.2,152.7c-21.2,14.2-43.6,26.4-67.6,35.3
	C342.7,692.5,342,692.9,340.5,691.6z"/>
<path id="XF9D886M2Gra1OT15_1_" class="st0" d="M331.8,86c-12.2-8.2-24.1-16.1-37-22.4c-8.5-4.2-17.4-7.6-26.9-8.8
	c-3.8-0.5-7.1,0.3-9.1,3.7c-10.2,17.8-2.4,45.3,17.3,51.6c9.6,3.1,19.7,3.9,29.6,2.6c1.8-0.2,3.5-0.9,7.2,0.4
	c-27.5,10-50.8,23.3-61.1,52.2c12.3-4.3,23-11.1,34.4-17.1C273,164,261.3,180.6,253,200.6c18.5-3.9,35.9-9,53.4-14.2
	c-0.1,2.7-2.1,2.8-3.5,3.7c-14.2,9.2-27.6,19.2-37,33.7c-4.5,7-7.1,15.1-7.5,23.5c-0.3,5.5,0,11-0.4,16.5c-0.3,3.9,0.7,5.1,5,4.7
	c25.6-2.5,51.5,0.3,75.9,8.3c0.4,0.1,0.7,0.6,1.1,0.9c-0.6,1.7-1.9,1-3,1c-14.5,0-29-0.1-43.4,2.3c-11.8,2-22.2,6.6-31.1,14.8
	c-7.4,6.8-10.9,15.3-11.5,25.2c0,0.8-0.2,1.5-0.5,3.6c-18-24.3-19.9-51.4-20.1-79.1c-7.2,11-10.1,23.4-10.9,36.2s2.2,25.2,5.1,37.7
	c-12-14.3-20.3-30.2-23.9-48.6c-3.6-18.8,0.1-36.2,10.1-53.8c-9.6,6.3-20.8,9.9-32.3,10.4c0.6-2.9,2.9-3.6,4.4-4.9
	c21.6-17.9,36.6-40.4,45.8-66.7c4.3-12.3,2.3-24.8-1.9-36.8c-9.4-26.2-9-52.3-0.1-78.3c3.6-10.4,10.1-19.4,16.3-28.5
	c2.3-3.4,4.2-3.1,7.3-1.1c20.4,13.5,38.1,30.1,56.1,46.5c8.6,7.9,16.4,16.6,24.2,25.2C331.8,83.6,332.2,84.9,331.8,86z"/>
<path id="XDAA6B7M2Gra3OT11_1_" class="st0" d="M324.9,420.7c-35.8-7.5-70.2-17.1-98.9-40.3c-17.8-14.4-29.5-33.3-36.8-54.9
	c-0.6-1.7-0.7-3.5-2.6-5.3c-3,7.4-5.4,15-7.4,22.7c-9.8,37.4-5.5,73.6,9.7,108.9c1,2.3,2,4.6,2.9,6.9c0.4,0.9,1,2,0,2.8
	c-1.3,1-2.1-0.3-2.8-1.2c-4.2-5.8-8.5-11.6-12.5-17.5c-24.1-35.6-35-74.5-29-117.5c3.8-27.3,13.2-52.5,26.8-76.4
	c2.5-4.6,5.3-9.1,8.3-13.4c-0.3,9.3,0.5,18.6,2.1,27.7c5.5,27.4,18,52.9,36.3,74.1c8.3,9.8,19.5,15.4,30.8,20.8
	c3.2,1.6,3.7-0.1,4-2.6c0.6-6.6,1.9-13.2,3.9-19.5c5.8-18.5,19.2-29.8,36.7-36.2c18.3-6.7,37.4-6.9,56.7-4
	c36.9,5.6,71.8,18.6,107,30c10,3.2,19.9,6.6,29.8,10c1.3,0.4,3.4,0.4,3.3,2.4c0,1.4-1.7,2-2.8,2.6c-1.9,1-3.9,1.9-5.8,3
	c-9.2,5.3-18.1,5.1-27.5,0.2c-17.1-8.9-34.4-17.6-51.9-25.9c-23.5-11-47.7-12.9-72.3-4c-23.1,8.3-35.4,26.5-36.5,51
	c-1,21,7.7,37,23.3,50c1.5,1.3,3,2.6,4.5,4C324.7,419.2,324.6,419.6,324.9,420.7z"/>
<path id="XFFCC00M2Color2_1_" class="st0" d="M348.8,648.2c-1.1-4.6-0.1-9.2-1.1-13.7c-4-18.1-18.5-30.7-37.7-32.6
	c-5.3-0.5-10.6-0.4-16-0.7c-4-0.3-4.5,0.9-2.7,4.4c7.2,13.8,7.5,27.5-1.5,40.6c-6.5,9.4-15.8,15.4-26.3,19.9
	c-13.4,5.7-27.4,7.9-41.6,9.7c-15.7,2-27.5,10.2-35.2,24.2c-3,5.4-5.7,10.8-8.4,16.5c-0.9-5.4,0.1-10.7,1.4-15.8
	c4.7-18.7,14.4-33.5,32.9-41.4c5.2-2.3,10.2-4.9,15.1-7.7c16.9-9.5,17.7-30,1.8-40.9c-8.9-6.1-19.5-7.5-29.4-10.7
	c-17.9-5.7-36.5-8.9-54.3-14.9c-19.3-6.5-34.7-18.2-45.4-35.6c-6.1-9.9-8.5-21.1-11.3-32.2c1.6-0.4,1.9,0.5,2.2,1.2
	c12.2,27.2,33.7,43.8,61.1,54c28.2,10.5,57,10.5,86.1,5.2c16.5-3,32.9-7,49.6-8.9c18.9-2.1,37.2-0.9,53.7,10.2
	c14.4,9.7,21,25.6,17,42.5C356.5,630.7,352.8,639.5,348.8,648.2z"/>
<path id="XDAA6B7M2Gra3OT11" class="st0" d="M534.2,254c-2.8,0.6-4.2-1.1-5.9-2.2c-20.3-14.2-40.8-28.3-60.6-43.3
	c-4.4-3.3-9.5-5.5-15-6.4c-3.8-0.6-4.4,0.6-3.1,4c2.9,7.6,7.9,13.5,13.9,18.7c12.6,10.9,25.4,21.6,38.1,32.3c0.5,0.5,0.9,1,1.4,1.5
	c-2,1.2-2.9-0.5-4.1-1.1c-17.5-9.3-33.6-21.1-52.6-27.5c-9.8-3.2-19.9-5.3-30-7.5c-2.1-0.4-4.1-0.9-4.7-3.1
	c-5.5-18.6-21.1-27-36.1-36.2c-1.5-0.9-3.4-1.4-4.6-4c6,1.7,11.4,3.3,16.8,4.8c11.5,3.4,23.6,4.6,35.6,3.7c15.5-1.2,27-13.2,28-28.8
	c1.6-26.1-9.6-45.3-30.5-60.3c-16.1-11.5-34.1-16.2-53.2-18.1c-7.3-0.7-14.6-1.2-21.9-1.7c-2-0.2-4-0.4-5.4-2.2
	c-10.3-13.3-23.7-23.3-36.7-33.8c-1.3-1-4-1.7-2.9-3.9c0.9-1.8,3-0.5,4.6-0.3c24.5,3.1,48.5,8.9,71.6,17.5
	c39.1,14.5,66.6,41.8,88.4,76.2c5.7,9,7.8,17.6,4,27.7c-1.2,3.2-1.4,6.8-1.9,10.3c-1.3,8.4,0.6,15.9,5.5,23.1
	c15.1,22.2,35.4,39.2,55.8,56.2C530.5,251,532.4,252.5,534.2,254z"/>
<path id="XDAA6B7M2Gra5OT11" class="st0" d="M206.4,108.1c-1.3,14.2-1.4,28.3-2.6,42.4c-0.9,10.7-4.5,19.5-13.8,25.8
	c-11.3,7.6-22.4,15.5-33.5,23.6c-24.8,18.1-45.6,39.8-60.3,67c-0.7,1.3-1.3,3.1-3.2,2.3s-0.5-2.3,0-3.4c12.6-32.2,25.5-64.4,43.9-94
	c20.4-32.6,42.2-64.3,64.7-95.5c0.9-1.2,1.4-3.6,3.5-3s1.2,2.8,1.2,4.3C206.5,87.8,206.4,98,206.4,108.1z"/>
<path id="XDAA6B7M2Gra1OT11" class="st0" d="M332.9,234.3c40.7-6,79.9-4.4,118.1,8.9c21.4,7.4,58.7,30.4,66.2,41.2
	c-7.2-0.8-14-1.9-20.9-0.8c-2.8,0.5-5.6,0.8-8.4,1.4c-12.4,2.6-16.6,14.4-8.4,24.5c6.4,7.9,15.4,11,25,12.2
	c21,2.6,43.8-9.1,54.1-27.3c1.2-2.1,2.5-3.9-0.8-5.6s-3.5,1-4.5,2.6c-0.8,1.5-1.7,2.9-2.6,4.2c-3.1,3.6-7.4,3-9-1.5
	c-3.6-10.3-1.6-19.6,5.1-28.1c1.6-2.1,3.3-2.3,5.6-1.2c5.5,2.7,11.1,5.2,16.8,7.7c2.6,1.2,3.6,2.6,2.1,5.4
	c-10.4,18.4-20.2,37.2-36.7,51.4c-8.1,7-16,10-26.8,6.1c-30.7-11-60.9-23.5-91-35.9c-11.4-4.7-22.8-9.4-34.2-14.1
	c-1.6-0.7-3.5-1-4.9-3c4.2,0,7.5,2.2,10.9,3.3c12.2,4,24.3,8.1,36.7,11.3c7.5,2,14.8,1.7,21.5-3c10.3-7.3,11.5-20.5,2.3-29.2
	c-8-7.5-17.4-12.8-27.5-16.9c-26.2-10.4-53.5-13-81.4-12.6C338,235.4,335.8,236,332.9,234.3z"/>
<path id="XFFCC00M2Color2" class="st0" d="M317,638c1.9,10.8,2,21.7,1.5,32.6c-0.6,12.8-1.9,25.3-9.8,36
	c-5.7,7.8-13.5,13.9-22.5,17.7c-11.4,4.9-23.8,6.3-35.6,9.8c-29.5,8.6-39.6,41.5-20.5,65.8c0.5,0.8,1,1.7,1.4,2.6
	c-6.7-2.6-12.2-4.7-16.4-9.2c-8-8.4-12.8-19.4-13.5-31c-1-13.8,1.7-26.9,9.2-38.7c9.4-14.8,24.1-20.5,40.7-22
	c33.2-3.1,52-22.6,61.5-53c1.1-3.5,2-7,3-10.5L317,638z"/>
<path id="X1100AAM2Gra8OT6" class="st0" d="M300.8,170.4c20-26.7,41.3-51.1,76.1-57.5c13.3-2.4,25.8,0.2,36.9,8.3
	c14.7,10.8,13.5,30.7-2.4,39.6c-9.1,5.1-19,6.8-29.4,6s-20.7-3.4-31.1-4.6c-16.5-2-32.1,1.2-47,8.1c-0.6,0.3-1.2,0.4-1.9,0.6
	C301.9,170.9,301.7,170.7,300.8,170.4z"/>
<path id="XF9D886M2Gra1OT15" class="st0" d="M333.5,38.3c-10.1-1.3-20.2-3.7-30.1-3.4c-11,0.2-19.2-3.4-27.1-10.5s-8.5-6.8-2.8-15.8
	c6.8-10.7,3.3-10.9,15.5-3.7c15.1,9.1,29.5,19.3,43.1,30.5C332.7,36.1,333.9,36.4,333.5,38.3z"/>
</svg>
