<?xml version="1.0" encoding="utf-8"?>
<!-- Generator: Adobe Illustrator 21.0.0, SVG Export Plug-In . SVG Version: 6.00 Build 0)  -->
<svg version="1.1" baseProfile="tiny" id="图层_1"
	 xmlns="http://www.w3.org/2000/svg" xmlns:xlink="http://www.w3.org/1999/xlink" x="0px" y="0px" viewBox="0 0 803 800.2"
	 xml:space="preserve">
<title>Anime10_13_18</title>
<g>
	<path id="XFFCC33M1Gra3Co2" fill="#FFFFFF" stroke="#000000" stroke-miterlimit="10" d="M782.9,130.4l-17,2.2
		c-23,2.6-45.9,1.6-68.9,0.3c-16.6-0.9-33.3-0.8-49.7-4.8c-2.8-0.7-4.3,0.7-5.9,2.6c-11.7,13.2-24,25.9-38,36.8S572,187.6,552.9,190
		c-3.5,0.4-6.6,0.1-9.4-2.1c-0.9-0.7-2.2-1.3-2.1-2.6c0.1-1.3,1.8-1.1,2.8-1.2c21.3-2.8,39-13,55-26.6c14-12.2,26.1-26.5,35.9-42.3
		c1.8-2.8,3.3-3.9,6.8-2.8c28,8.5,56.8,10.8,85.9,11.3c23.2,0.4,46.3-0.9,69.4-2.4c1.9-0.1,4.3-1.1,5.4,1.2s0,4.3-1.5,5.9
		c-1.5,1.8-3.2,3.4-5.1,4.8c-21.7,14.1-39.2,33-57,51.4c-15.2,15.7-30.3,31.5-48.9,43.3c-31.4,19.9-63.5,21.3-95.7,2.3
		c-9.9-5.9-19.9-10-31.7-10.4s-22.2-2.9-31.1-10.6c-1.6-1.4-5.2-2.5-3.2-5.7s4.5-4.7,8.5-3.4c13.1,4.1,26.3,4,39.5,0.7
		c18.5-4.6,34.2-14.6,48.8-26.5c5.9-4.8,11.6-10,17.3-15.2c1.7-1.5,3.8-2.5,6.1-2.9c16.9-3.2,34-3.9,51.1-5.4
		c15.4-1.4,30.8-2.8,46.4-7.4c-1.7,4.1-4.9,5.6-7.6,7.4c-8.2,5.3-17.5,8.1-26.6,11.4c-12,4.5-23.9,9.6-30.7,21.1
		c-9.3,15.6-23.5,23.1-40.4,26.6c-8.9,1.7-17.9,1.7-26.8,0.1c-1-0.2-2-0.4-3-0.4c-1.3,0-3,0-3.5,1.4s1.3,2.2,2.4,2.7
		c17.2,8.5,35.2,11,53.8,5.7c20.3-5.8,37-17.9,53-31.2c19.6-16.3,37.4-34.6,57.7-50.2c3-2.3,6-4.4,9-6.7L782.9,130.4z"/>
	<path id="XFFCC33M1Gra2Co2" fill="#FFFFFF" stroke="#000000" stroke-miterlimit="10" d="M55,123.3c6,1.8,11.9,3.8,17.9,5.5
		c19.2,5.5,38.8,8.2,58.8,5.7c3.5-0.4,4.9,1.6,6.5,3.5c9.5,11,19.1,21.8,30.6,30.7s25.2,15.5,40.8,15.2c4.3-0.1,8,2.3,11.8,3.9
		c9.4,4,18.6,8.4,29.3,5c2.3-0.7,5.2,0.9,6.5,2.9c1.3,2-1.5,3.7-2.9,5.1c-4,3.9-9.4,4.8-14.7,5.6h-2c-13-0.6-24.6,2.2-35.4,10.3
		s-21.6,11.7-33.8,14.5c-19.6,4.6-37.3,1.7-53.7-10.9c-19.6-15.2-37.5-32.5-53.4-51.6c-19.4-23.1-37-47.6-57.6-69.7
		c-0.5-0.6-1-1.3-1.5-2c-1.4-2.1-3.3-4.6-1.9-6.8s4.3-0.2,6.3,0.4c23.8,7.1,47.8,13.3,72.6,15.9s47.3,1.3,69.8-7.5
		c3.5-1.3,4.6-0.4,5.9,2.6c13.9,34.3,49.4,55.5,85.4,53.7c2-0.1,4-0.3,6-0.2s4.7,1.2,5.4,3.7s-1.9,3.3-3.6,4.1
		c-17,8.4-33.5,5.6-49.3-3c-18-9.7-32-23.8-42.3-41.5c-2.1-3.6-4.3-4.8-8.3-4.5c-24.9,1.9-50,1.9-74.9,0c-17-1.3-33.8-3.7-50.2-8.1
		c-0.9-0.2-1.8-0.9-3.1-0.2c4.7,5.7,9.2,11.5,14.2,16.9c21,22.7,41,46.5,65,66.3c14.1,11.6,29.3,21.5,47.5,25.7
		c22.6,5.3,41.7-1.8,58.6-16.6c0.7-0.6,1.8-1.2,1.1-2.4s-1.8-0.5-2.8-0.5c-15.2,0-30.3,0.1-45.4-1.5s-26.9-4.3-39.1-11.2
		c-9.2-5-16.9-12.4-22.3-21.4c-1.7-2.7-3.7-5-6.2-7c-11.9-10-22.3-21.9-36.3-29.5L55,123.3z"/>
	<path id="XFF9900M1Color3" fill="#FFFFFF" stroke="#000000" stroke-miterlimit="10" d="M16.9,551.4l1.7-5.8
		c10-35,22-69.2,40.8-100.6c13.9-23.3,30.9-43.8,52.6-60.2l1.2-0.9c1.7-0.8,2.9-3.4,5.2-2.1c2.3,1.3,0.9,4,0.3,5.8
		c-6.6,22.9-11.6,46.2-13.6,70c-1.1,13.6-1.4,27.3,0.5,40.9c0.9,4.4-0.4,8.9-3.4,12.2c-18.5,22-35.1,45.3-46.5,71.9
		c-4.6,10.7-8.1,21.9-10.5,33.3c-1.1,5.2-2.5,10.3-3.9,15.5c-0.3,1.2-0.7,2.9-2.4,2.6s-1.4-1.7-1.7-2.8c-5.4-18.1-8.4-36.7-13-54.9
		c-1.8-7.1-4-14.1-6-21.1L16.9,551.4z"/>
	<path id="XEC2AFFM2Gra1OT31_1_" fill="#FFFFFF" stroke="#000000" stroke-miterlimit="10" d="M348.7,177.1c2-0.1,4.1,0.3,5.9,1.3
		c1.1,0.6,1.9,1.4,1.6,2.8c-0.2,1-1.1,1.8-2.1,1.9c-13.7,2.4-18.4,13.2-21.9,24.5s-0.6,21.1,3.1,31.3c4.5,12.4,10.6,24.2,18.1,35
		c15.9,23,16.9,47.2,8.9,72.9c-3.4,11-6,22.2-9.5,33.1c-4.3,13.5-1.9,26.3,3.4,38.9c4.4,10.5,10.2,20.2,15.3,30.3
		c3.1,6.1,3.4,12.8,3.6,19.4c-0.1,1.2-0.3,2.3-0.8,3.4c-0.6,1.7-1.2,3.9-3.4,3.7c-2.2-0.2-2.3-2.5-2.3-4.3c0-9.8-3.8-18.2-9.7-25.7
		c-4-5.1-8.4-9.9-12.7-14.7s-7.1-8-10.7-11.9c-7.1-7.7-8.4-16.6-7.3-26.8c1.3-12.3,6.6-23.3,9.9-34.9c4.9-16.7,6.2-34.2,3.7-51.4
		c-1.5-10.1-7.8-17.6-13.2-25.5c-15.5-22.6-34.1-42.6-52.1-63.2c-2.4-2.8-4.4-5.9-7.1-8.4s-2.7-5.9,0.6-8.9
		c6.2-5.6,13.4-10,21.3-12.7C310.1,180.7,330.1,180.9,348.7,177.1z"/>
	<path id="XEC2AFFM2Gra1OT31" fill="#FFFFFF" stroke="#000000" stroke-miterlimit="10" d="M453.5,227.6
		c-0.3-18.6-6.3-34.2-19.5-46.7c-1.5-1.4-3.9-2.7-2.7-5.3c1.2-2.6,3.5-3.4,6.2-3.3c28.8,0.7,55.3,7.8,77.4,27.4
		c3.3,3,3.3,4.1-0.5,6.7c-22.7,15.4-39.3,36.3-51.7,60.6c-10.2,19.9-17.3,40.9-19.9,63.1c-1.4,12.2-1.3,24.3,2.3,36.5
		c8.5,28.8,6.9,57-9.3,83.3c-4.7,7.3-10.8,13.6-18,18.5c-1,0.7-2.2,2.4-3.4,1.4c-1.2-1-0.7-3.1,0.3-4.5c2.9-4.4,4.6-9.7,7.3-14
		c13-20.2,13.9-41.9,9.6-64.5c-3.4-18-8.3-35.7-11.4-53.8c-3.1-18.1,1.1-32.4,11.5-46.4C445.1,269,453,249.3,453.5,227.6z"/>
	<path id="XF9D886M2Gra3OT15_2_" fill="#FFFFFF" stroke="#000000" stroke-miterlimit="10" d="M459,160.3
		c7.5-9.9,14.9-19.1,21.8-28.6c10.6-14.7,19.5-30.2,22.3-48.5c0.8-5.4,1-10.9,0.5-16.4c-0.5-5.4-3.1-8.3-9.3-10.3
		c-6.2-2-9.8-1.2-12.7,3.5c-4.2,7-8.2,13.9-7.6,23.1c1.3,21.5-5.1,40.6-21.8,55c-11.6,10-26.5,10.6-39.4,2.5
		c-1.4-0.9-3.3-1.6-2.8-3.6s2.5-2.9,4.7-2.8c6.7,0.2,13.4,0.1,19.7-2.3c12.6-4.7,18.2-15,21.3-27s3.7-25.7,5.1-38.6
		c1.1-10.8,2.1-21.5,5.9-31.8c2.8-7.5,6.7-14.2,13.2-19.1c13.8-10.3,26.7-8.1,41.7,5.2c4.2,3.9,7.5,8.5,9.9,13.7
		c4.7,9.6,5.7,18.9,1.1,29.2c-7.7,17.4-18.1,33.4-26.7,50.3c-4,7.7-7.4,15.6-10.2,23.8c-1.1,3.3-0.4,5.8,1.2,8.4
		c3.1,4.9,7,9.3,11.5,13c5.7,4.8,11.5,9.6,15.7,16c2.4,3.6,3.9,7.8,4.4,12.1c0.2,1.6-0.2,3.1-1.9,3.7c-1.7,0.6-2.2-0.7-2.7-1.7
		c-12-20-32.4-23.4-52.8-26.9L459,160.3z"/>
	<path id="XF9D886M2Gra3OT15_1_" fill="#FFFFFF" stroke="#000000" stroke-miterlimit="10" d="M341.9,91.4c0-5.5-0.1-11,0-16.5
		c0.2-13.7-9.6-19.3-22-17.3c-1.7,0.4-3.1,1.3-4.1,2.7c-6,6.9-10.4,13.9-9.7,24.1c1,15.3,1.8,30.6,5.9,45.4
		c3.3,12.5,9.6,23.9,18.3,33.4c2.3,2.4,2.6,3.8-1.1,4.5c-1.9,0.4-3.7,1.4-5.8,1.1c-22.9-2.8-45.1,0.8-66.9,7.8
		c-1.1,0.4-2.2,0.7-3.3,1c-1.3,0.2-2.9,2.1-4,0.3s0.8-2.8,1.8-3.8c8.6-8.4,17.7-16.1,28.9-21c6.6-2.8,12.8-6.5,19.2-9.7
		c2.7-1.3,3.3-3,2.8-6c-3.2-18.9-6.1-37.8-7.9-56.8c-0.7-7.2-4-14-5.9-21.1c-2.4-8.5-3.5-17.2-3.3-26c0.7-19.8,12.7-31.6,32.5-33.3
		c14.4-1.3,22.4,6.2,28.5,17.3c4.9,9,6.2,18.9,6.2,29c0.1,13-1.4,25.9-1.7,38.9c-0.2,9.4,0.5,18.7,4,27.5s9.8,14.9,17.8,19.5
		c2.8,1.6,5.7,1.4,8.7,1.1s4.2-0.2,5.2,2s-1.1,3.6-2.5,4.8c-4.5,4-9.9,4.4-15.5,3.1c-7.6-1.8-14.2-5.6-20.4-10.3
		c-1.6-1.4-2.8-3.3-3.2-5.4C341.2,115.7,341.9,103.5,341.9,91.4z"/>
	<path id="XFF9900M1Gra6Co3" fill="#FFFFFF" stroke="#000000" stroke-miterlimit="10" d="M106.3,747.7c-2.7-4-5.5-8.1-8.3-12.1
		c-11-15.7-23-30.6-32.6-47.3c-3.8-6.7-6.7-13.8-10-20.7s-2.5-14.8-0.9-22.4c6.4-31.4,19.8-60,34.5-88.1l10.4-19.9
		c0.8-1.5,1.5-3.2,3.6-2.6c2.1,0.6,1.6,2.3,1.8,3.7l6.5,57.6c0.2,2.2,0,4.3-0.6,6.4c-7.9,26.5-9.4,53.7-8.4,81.1
		c0.8,20.6,2.5,41.2,4.8,61.7C107.3,746,107.6,746.8,106.3,747.7z"/>
	<path id="XFFCC33M2Gra1Co2_1_" fill="#FFFFFF" stroke="#000000" stroke-miterlimit="10" d="M121.4,474.9
		c0.7-24.8,6.2-48.8,12.1-72.7c2.9-11.6,5.7-23.3,8.4-34.9c0.7-2.9,2-5.6,4-7.8c14-16.1,31.9-26.5,50.4-36.2c7.7-4,7.8-3.9,8.5,4.6
		c1.7,18.9,2.2,37.9,7.9,56.2c0.8,2.4-1,3.3-2.4,4.4c-12.6,10.2-25.3,20.1-37.6,30.5c-16.2,13.6-30.2,29.1-38.8,48.9
		c-1.9,4.8-3.5,9.7-4.8,14.7c-0.3,1.1-0.3,2.5-1,3.3s-2.9,5.6-5.6,4.8c-2.7-0.8-1.1-4.1-1.2-6.3C121.2,482.2,121.4,478,121.4,474.9z
		"/>
	<path id="XF9D886M2Gra3OT15" fill="#FFFFFF" stroke="#000000" stroke-miterlimit="10" d="M5.4,529.2c-3.1-10.6-0.6-19.4,1.4-28.3
		c12.1-51.9,37.2-97,70.6-138c23.6-28.9,50.5-54.4,79.9-77.4c2.1-1.7,3.9-1.4,5.9-0.4c5.2,2.5,10.5,5.1,15.8,7.6
		c5,2.3,10.5,3.5,16,3.7c4.9,0.2,6.1,2.5,3.8,6.9c-3.6,6.7-9.6,11.3-14.8,16.7c-11.4,11.8-26.7,17.9-39.5,27.8
		c-5.5,4.3-12.9,6-19.2,9.4c-43,22.9-73.5,57.5-95.3,100.2c-11.1,21.8-19.2,44.7-23.3,68.9C6.3,527.3,5.9,528.3,5.4,529.2z"/>
	<path id="X940018M2Gra1OT10" fill="#FFFFFF" stroke="#000000" stroke-miterlimit="10" d="M299,541.1c2.6,10.5-1.5,19.7-5.3,29
		c-2.1,5-1,8.7,3.7,12.4c15.3,11.9,32,21.6,48.7,31.3c10.5,6.1,21.3,11.9,31,19.2c7.8,5.9,15.6,5.5,24,2.7s14.9-6.3,20.6-12
		c10-9.9,22-16.5,34.3-22.8c7.3-3.7,13.9-8.5,20.6-13.2c5-3.4,4.7-8.7,4.7-13.5c0-7.1-1-14.3-1.5-21.4c-0.1-1.7-0.5-3.3-0.5-5
		s-1.4-7.2,3.1-7.7s5,3.4,5.4,6.9s2.8,8.1,5.3,11.7s6.7,8.7,8.9,13.8c2.2,5.1,2.3,11.3-1.5,17c-4.3,6.7-10.3,12.1-17.4,15.7
		c-13.6,6.9-24.6,17.5-36.6,26.8s-25.8,19.6-41.9,23.5c-6.5,1.6-13,2.8-19.7,1.1c-4.5-0.9-8.7-3.1-12.1-6.2
		c-16.6-15.8-37-25.9-57-36.6c-14.1-7.5-27.9-15.6-40.2-25.9c-3.2-2.7-4.3-5.4-3.3-9.6c1.3-5.5,3.7-10.8,7-15.4
		c6.1-9,12.5-17.8,13.2-29.2c0.1-1.8,1.1-3.4,3-3.5s2.8,1.7,3.5,3.1S299.6,538.5,299,541.1z"/>
	<path id="X002C72M2Gra1Co11" fill="#FFFFFF" stroke="#000000" stroke-miterlimit="10" d="M269.2,289.6c0.1-0.5,0.2-0.8,0.1-0.8
		c-13.6-10.8-27.5-20.4-46.5-16.2c-11.4,2.5-22.5,6.1-34.2,6.9c-5,0.4-10-0.3-14.8-1.9c-1.4-0.5-3.3-0.7-3.1-2.7s2.2-1.5,3.6-1.5
		l6,0.2c6.6,0.1,13.1-0.4,18.6-4.4c20.4-14.6,41.9-12.2,63.2-3.3c15,6.2,26.2,17.5,34.7,31.3c1.2,2,2.5,3.7-0.1,6
		c-15.8,14.6-33.4,25.8-54.9,30.1c-2.8,0.6-5.6,0.2-8.1-1.2c-7.6-4.1-13-10.3-16.9-17.8s-6.3-16.8-7.5-25.8
		c-0.4-2.7,0.4-4.5,3.2-5.3s8.1-2.1,12-3.4s4.3,0.6,4.3,3.4s0.1,7.7,0.2,11.5c0,1.8,0,4.2,2,4.7s3.2-1.9,4.2-3.5
		c0.9-1.4,1.6-2.9,2.2-4.5c3.5-8.9,9.4-11.2,18.2-7.1C260,286.5,264.1,289.2,269.2,289.6z"/>
	<path id="XB6D21FM2Gra8OT29_1_" fill="#FFFFFF" stroke="#000000" stroke-miterlimit="10" d="M207.9,800.2h-28.5
		c-1.4-0.1-2.6-0.5-3.7-1.4c-36-25.1-56.5-58.9-57.1-103.5c-0.1-6.2,0.1-6.3,5.5-3.2c12.6,7.1,25.8,13.1,39.5,18
		c2.1,0.8,3.8,1.4,4.1,4.2c2.1,20.5,10.1,38.8,20.6,56.2C194.1,780.4,200.6,789.8,207.9,800.2z"/>
	<path id="XDAA6B7M2Gra7OT11_2_" fill="#FFFFFF" stroke="#000000" stroke-miterlimit="10" d="M187.4,666.7
		c2.2-49.6,21.3-90.7,61.1-121.5c1.6-1.2,3.3-2.3,4.9-3.4s2.7-1.5,4,0c1.2,1.2,1.2,3.3,0,4.5c-0.7,0.9-1.6,1.7-2.4,2.6
		c-27.7,28.3-42.1,62.8-46.1,101.7c-5,48.7,6.7,93.5,33.7,134.3c1.4,2.1,2.6,4.3,3.7,6.5c0.6,0.9,0.4,2.1-0.4,2.8
		c-1,0.8-1.8-0.1-2.6-0.7c-16.4-14-30.7-29.6-37-50.9c-0.9-3-2.7-5.7-4-8.5C191.9,713.2,186.8,690,187.4,666.7z"/>
	<path id="X002C72M2Gra7Co11" fill="#FFFFFF" stroke="#000000" stroke-miterlimit="10" d="M501,292.6c6.8-1.8,13.6-3.3,20.4-4.7
		c8.9-1.8,13.3,2,12.2,10.8c0,0.2-0.1,0.3-0.1,0.5c0,1.7-1.3,4.1,0.9,4.8c2.2,0.7,2.4-2,3.2-3.3c2.1-3.4,4.2-6.8,4.8-10.9
		c0.2-2.1,1.9-3.7,4-3.8c5.6-0.7,13,7.5,11,12.6c-4.5,11.4-10,22-19.3,30.5c-7.1,6.4-14.6,7.7-23.4,5.5s-17.4-7.3-25.2-12.8
		c-5.8-4.1-11.5-8.5-17.4-12.5c-2.6-1.8-2.9-3.3-1.6-6.1c5.7-12.3,15.2-20.8,27-27c14.5-7.6,30.2-10.2,46.3-10.7
		c7.1-0.2,13.3,3.1,18.3,8.1s9.7,8.6,16.4,10c1.1,0.3,2.2,0.9,3.1,1.6c0.8,0.5,1.8,1.3,1.4,2.4c-0.4,1-1.5,1.5-2.5,1.3
		c-6.8-0.2-13.8-0.3-19.7-4c-11.8-7.4-24.2-8.6-37.4-4.8C515,282.4,507.4,286.7,501,292.6z"/>
	<path id="XDAA6B7M2Gra8OT11_1_" fill="#FFFFFF" stroke="#000000" stroke-miterlimit="10" d="M311,314.5
		c-1.1,15.8-7.2,29.6-13.9,43.2c-2.5,5.1-5,10.2-7.8,15.1c-11,19.4-9.8,40-5.8,60.7c1.5,8.1,4,16.1,4.8,24.3c0.3,2.6,1.1,6.4-1.9,7
		s-4.1-3.5-4.7-5.9c-1-4.5-1.4-9.2-2.6-13.7c-4.1-15.6-11.7-29.7-19.1-43.9c-7.4-14.2-15.7-30.9-18.1-48.4c-0.2-1.1-0.7-2.2-1.3-3.2
		c-2.7-4.4-2.4-5.2,2.6-5.8c24.4-2.8,44.6-13.7,60.7-32.3c1.4-1.6,2.3-5,5-4S310.7,312.2,311,314.5z"/>
	<path id="XFFCC33M2Gra1Co2" fill="#FFFFFF" stroke="#000000" stroke-miterlimit="10" d="M219.2,387.1c5.2,2.8,9.5,6.9,12.7,11.9
		c22.4,37.2,30.9,76.8,17,119.1c-7.5,23-23.3,38.8-46.1,47.3c-1.4,0.5-2.9,1.4-4.2,0s0.1-3.1,1.1-4.3c25.9-33,33.6-71,31.3-111.8
		c-1.1-20.5-5.2-40.7-12.1-60C218.8,388.9,219,388.4,219.2,387.1z"/>
	<path id="XDAA6B7M2Gra8OT11" fill="#FFFFFF" stroke="#000000" stroke-miterlimit="10" d="M467.1,319.3c6.9,5.4,13.4,11.3,20.8,16.1
		c11.6,7.4,23.8,12.6,38.1,10.5c2.7-0.4,4.5,0.9,4.5,3.9c0,0.8,0,1.7-0.1,2.5c-3.9,21.3-8.1,42.3-22.2,60
		c-7.9,10-14.9,20.9-18.4,33.5c-0.9,3.2-1.4,6.5-2.1,9.7s-0.7,4.2-2.9,3.9c-2.2-0.3-1.9-2.8-1.8-4.6c0.8-10.1,3.5-19.8,6.1-29.6
		c4.8-18,2.6-35.6-2.3-53.1C481.9,354.6,473.6,337.1,467.1,319.3z"/>
	<path id="XBD54E0M2Gra5OT1" fill="#FFFFFF" stroke="#000000" stroke-miterlimit="10" d="M470,285.3c1.8-10.7,6.1-20.1,11.9-28.9
		c10.9-16.4,25.5-28.8,42.2-38.9c2-1.3,4.5-1.5,6.6-0.5c13,5.5,19.8,15.8,22.9,28.9c2.4,10.2,2.2,10.2-8.4,10.4
		c-27.7,0.3-51.4,11-72.6,28.1l-1.6,1.2L470,285.3z"/>
	<path id="XBD54E0M2Gra6OT1" fill="#FFFFFF" stroke="#000000" stroke-miterlimit="10" d="M309.6,284.3c0,1.1,0,2-0.9,2.4
		s-1.8-0.5-2.5-1.2c-4.7-4.9-9.8-9.5-15.2-13.7c-13.1-10.2-27-18.9-43.4-22.8c-10-2.5-20.5-2.6-30.6-0.1c-2.1,0.5-4.5,1.6-6.1-0.2
		s0.4-4.1,1.3-5.8c7-12.9,18.8-20.4,31.1-27.2c10.1-5.5,11-5.2,19.6,2.2c1.9,1.6,3.7,3.4,5.3,5.3c8.4,10.5,17.1,20.8,26.1,30.8
		c7.1,7.9,11.6,17.4,14.7,27.5C309.2,282.6,309.4,283.6,309.6,284.3z"/>
	<path id="XFFCC33M2Gra7Co2_1_" fill="#FFFFFF" stroke="#000000" stroke-miterlimit="10" d="M318.9,483.7c-8.4,0.1-16,2.5-21.8,9.1
		s-5.8,16.9,2.2,22.8c11.8,8.7,24.2,16.6,37.1,23.5c4.8,2.6,5.8,7.2,6,11.8s-2.6,8.1-7,10c-6.5,2.8-18.2,0.7-23-4.3
		c-1.1-1.1-3-2.4-1.6-4.1c1.4-1.7,2.8-0.2,4.1,0.6c3.7,2.2,7.6,3.4,11.9,1.7c2.2-0.8,4.5-1.6,4.9-4.4c0.4-2.8-1.5-3.9-3.1-5.3
		c-8.6-7.2-18.3-12.7-28.3-17.8c-7.9-4-15.2-8.9-20.5-16.4s-5.8-18.2,1.7-25.4c9.7-9.1,20.7-15.6,35-12.9s27.7,5.9,39.4,14.8
		c6.1,4.6,10.8,10.3,13.4,17.7c0.3,0.9,1,1.9,0.4,2.8s-2.1,0.4-3.2,0.1c-3.1-0.7-6-2.1-8.4-4.2c-3.1-2.8-6.5-5.4-9.2-8.5
		C341,486.2,330.7,483.1,318.9,483.7z"/>
	<path id="XDAA6B7M2Gra7OT11_1_" fill="#FFFFFF" stroke="#000000" stroke-miterlimit="10" d="M347.5,466.4l-18.4-3.3
		c-8.2-1.5-16.5-2.1-24.8-1.9c-3.6,0.1-5.3-1.2-6.2-4.7c-5.5-21.6-4.7-43.2-0.6-64.8c0.7-3.4,1.6-6.8,2.4-10.2
		c0.1-0.3,0.4-0.5,0.6-0.8c1.8,0,1.9,1.6,2.5,2.7c3,5.4,5.4,11.1,7.1,17c6.6,25,22.6,44.4,37.3,64.7
		C347.5,465.3,347.4,465.7,347.5,466.4z"/>
	<path id="XFFCC33M2Gra7Co2" fill="#FFFFFF" stroke="#000000" stroke-miterlimit="10" d="M466.3,484c-9.5-0.3-19,3.5-27.9,9
		c-5.6,3.5-10.9,7.6-16.4,11.4c-1.2,0.9-2.4,1.9-3.7,2.6c-1.3,0.7-4.2,1.8-5.6,0.3s0.5-3.3,1.5-4.8c10.4-15.5,26-22.8,43.4-27.1
		c5.3-1.3,10.8-2.7,16.2-2.1c12.4,1.4,22.9,10.9,26.2,23c0.7,2.7,0.5,5.7-0.5,8.3c-3.4,9.6-10.4,16.2-18.5,21.6
		c-8.1,5.4-18.7,12.2-28,18.2c-3.5,2.3-4.9,5.4-3.5,9.4c0.8,2.4,2.1,4.7,5,5s4.4-1.9,5.6-4.2s0.8-1.8,1.2-2.7s1-1.5,1.9-1.3
		c0.8,0.2,1.4,0.9,1.4,1.8c0.5,4.3-0.7,7.9-4.4,10.5c-5.6,4-14.1,4.2-19.2,0.1c-3.3-2.6-5.1-6.1-3.6-10.6c1.7-5.1,4.9-9.6,9.1-12.9
		c7.9-6.5,16.9-11.2,25.4-16.8c5.4-3.6,10.5-7.6,14.2-13.1c5.5-8.2,0.5-26-13.7-25.5C470.9,484.4,469.2,484.2,466.3,484z"/>
	<path id="XDAA6B7M2Gra7OT11" fill="#FFFFFF" stroke="#000000" stroke-miterlimit="10" d="M476.8,440.9c0.2,6.1-0.1,12.3-0.9,18.4
		c-0.7,5.5-1.7,6.2-7,5.1s-10.9,0.4-16.2,1.8c-5.3,1.4-9.6,2.9-14.7,1.7c-5.1-1.2-5.4-3.6-2.3-7.1c16-17.6,23.6-39.1,29.2-61.6
		c0.9-3.7,1.7-7.5,2.6-11.2c0.2-0.9,0.1-2.2,1.3-2.4c1.2-0.2,2.1,0.7,3,1.5c1,0.9,1.5,2.2,1.5,3.6
		C473.8,407.5,476.7,424.1,476.8,440.9z"/>
	<path id="XB6D21FM2Gra8OT29" fill="#FFFFFF" stroke="#000000" stroke-miterlimit="10" d="M239.2,744.3c5.2,1.8,10.1,4.2,14.7,7.2
		c12.8,8.4,26.4,15.5,39,24.2c8.3,5.7,9.9,13.6,11.4,22.1c0.4,1.9-0.6,2.3-2.2,2.3h-27c-2.2,0-2.9-1.3-3.4-2.9
		c-7.1-19.3-18.1-36.9-32.4-51.7C239.1,745.5,239.2,745.1,239.2,744.3z"/>
	<path id="X990000M1Gra7Co7_1_" fill="#FFFFFF" stroke="#000000" stroke-miterlimit="10" d="M319.3,498.5c8.4,0.4,14.9,4.3,21.8,7.1
		s12.4,10.2,17.6,16.3l6.6,7.5c1,1.2,1.6,2.5,0.7,4.1s-2.4,1.9-4.2,1.8c-5.5-0.3-9.1-4-12.9-7.1c-6.7-5.5-13.1-10.8-22.8-10.7
		c-5.9,0.1-10.9-3.6-15.2-7.8c-4.3-4.2-2.6-5.5,0.5-7.8C314.5,499.6,316.4,497.8,319.3,498.5z"/>
	<path id="X990000M1Gra7Co7" fill="#FFFFFF" stroke="#000000" stroke-miterlimit="10" d="M455.9,498.7c3.2,0.6,7.6-1.8,9.1,3.6
		s-0.3,9.1-5.2,12.1c-10.8,6.7-22.7,11.1-33.6,17.5l-8.5,5.2c-0.9,0.6-1.8,1.9-3,0.9s-0.8-2.1-0.7-3.3c0.3-3.5,2.3-6.2,4.5-8.8
		c7.2-8.5,15.3-16.2,24-23.2C446.3,499.7,450.7,498.1,455.9,498.7z"/>
</g>
</svg>
