<?xml version="1.0" encoding="utf-8"?>
<!-- Generator: Adobe Illustrator 24.1.0, SVG Export Plug-In . SVG Version: 6.00 Build 0)  -->
<svg version="1.1" id="图层_1" xmlns="http://www.w3.org/2000/svg" xmlns:xlink="http://www.w3.org/1999/xlink" x="0px" y="0px"
	 viewBox="0 0 556.2 792.1" style="enable-background:new 0 0 556.2 792.1;" xml:space="preserve">
<style type="text/css">
	.st0{fill:#FFFFFF;stroke:#000000;stroke-miterlimit:10;}
</style>
<path id="XFFCC33M1Gra8Co2" class="st0" d="M0,562.8c0.7-14.7,2.3-29.4,4.8-44c2.9-17.5,7.1-34.5,11.5-51.6
	c3.2-12.4,6.9-24.6,11.1-36.7c1.5-4.4,2.4-9,3.6-13.5c0.3-1.1,0.5-2.6,1.9-2.5s1.8,1.4,1.9,2.6c0.5,3.5,0.6,7,1.3,10.4
	c3.7,17.4,7,34.9,11.7,52.1c7.8,28.9,19.2,56.2,33,82.8c6.5,12.8,10.5,26.7,11.8,41c3,28.7,0.5,57.7-7.4,85.4
	c-1.6,5.6-3.4,11.1-5.4,16.6c-0.9,2.6-2.8,5.1-5.2,1.7c-7.7-10.5-16.4-20.1-26.1-28.8c-14.5-13.5-26.5-29.5-35.3-47.3
	C2.9,610.3,0.1,588.1,0,562.8z"/>
<path id="XFF9900M1Gra3Co3_4_" class="st0" d="M428.1,736.7c-19.1-1.7-31.4-6.5-38.6-27.9c-3.4-10.1-6.1-20.4-9.2-30.6
	c-2.4-8.5-6.9-16.4-13-22.8c-4.9-5-11.9-7.1-17.9-10.7c-6.9-4-13.9-7.8-19.5-13.7c-10.4-10.7-13.5-22.7-8.7-37
	c4-11.8,8.9-23.3,12.7-35.2c4.4-13.6,6.5-27.1,3.3-41.2c-0.3-1.5-1.5-3.8,0.6-4.4s2.3,1.9,3.1,3.3c6.9,12.3,15.6,23.2,23.8,34.5
	c11.8,16.5,26.7,30.2,40.3,44.9c14.5,15.7,26.1,33.1,36.6,51.5c9.9,17.1,17.8,35.3,23.5,54.3c3.2,10.9-4.5,24.2-13.4,29.1
	C444.4,734.9,436.4,736.5,428.1,736.7z"/>
<path id="XFF9900M1Gra7Co3_4_" class="st0" d="M171.3,386.5c0.3-22.9,3.2-39.4,8.1-55.6c0.7-2.2,1.9-4.2,2.8-6.4
	c0.4-1.1,0.6-2.4-0.7-3.1s-2.2,0.3-3,1.1c-12.7,13.2-23.7,27.9-32.7,43.9c-8.2,14.6-13.4,30.3-18.1,46.3c-0.4,1.2-0.4,3.2-2,3
	c-1.9-0.2-1.7-2.3-1.5-3.7c3-22.5,2.4-45.7,11.5-67.1c6-14,14.7-26.5,24.2-38.3c16.3-20.3,37.5-33.7,61.5-42.9
	c11.8-4.5,23.6-9.1,35.4-13.7c1.2-0.5,2.5-1.2,3.7-0.1c1.4,1.4,0.5,2.7-0.2,4.1c-14.9,30-19.5,61.9-17.6,95.1
	c1.5,26.1,9.4,50.6,19.4,74.5c2,4.6,5,8.6,7.8,12.8c0.7,1.1,1.8,2.4,0.7,3.6s-2.5,0.1-3.5-0.6c-17.7-12.4-33.1-27-42.4-46.8
	c-4.5-9.6-8.6-19.5-9.3-30.3c-0.1-1.6,0-3.7-2.2-3.9c-1.9-0.1-2,1.9-2.6,3.2c-7.1,16.6-9.4,33.8-7.5,51.8
	c2.4,22.8,8.1,44.8,15.4,66.5c1.4,4.5,3.4,8.7,5.9,12.6c0.8,1.2,1.8,2.9,0.2,4c-1.4,0.9-2.5-0.6-3.3-1.5
	C201.9,475,186,453.3,178,426.3C173.5,411.2,171.3,396,171.3,386.5z"/>
<path id="XFF9900M1Gra3Co3_3_" class="st0" d="M280.4,694c-1.2,9.4,0.1,19.5-3.2,29.2c-1.4,3.9-3.5,7.6-6.3,10.7
	c-7,7.9-22.5,8-30.8,0.5c-9.1-8.3-12.7-19.3-15.5-30.7c-1.8-7.4-1.1-14.8-1-22.3c0.4-23.2-2.5-46.2-7.6-68.9
	c-1.8-8.7-2.5-17.5-2-26.3c0.8-16.3,3.6-32.4,6.3-48.5c0.8-4.4,1-8.9,1.6-13.4c0.2-1.3-0.1-3,1.6-3.2s2.2,1.3,2.6,2.6
	c2.4,6.9,5.7,13.5,8.8,20.1c5.2,10.7,11.9,20.5,19.9,29.2c6.3,7,9.4,14.6,11.1,23.8c4.2,23.1,7.6,46.3,12.1,69.4
	C280,675.2,279.1,684.5,280.4,694z"/>
<path id="XFF9900M1Gra3Co3_2_" class="st0" d="M116,611.2c1.2,6.7,1.9,12.9,3.6,19c3.4,12,10.1,22,17.9,31.4
	c3.3,4,6.9,7.7,10.3,11.5c3.1,3.6,5.6,7.5,5.6,12.5c0.1,21.7,3.6,43.2,2.9,64.9c-0.4,11.1-1.5,22-9.2,30.9
	c-2.8,3.2-6.4,5.4-10.5,6.4c-6.2,1.6-12.6,1.8-18.8,0.7c-8.9-1.4-15.2-9.3-15.4-19.5c-0.3-14-0.1-28,0.2-42c0.3-13,0.3-26,1.5-38.9
	c2.3-24,5-47.9,8.9-71.7C113.4,614.6,113.1,612.5,116,611.2z"/>
<path id="XFF9900M1Gra3Co3_1_" class="st0" d="M368.3,792.1c-6.4,0.2-12.5-0.2-18.4-3.4c-7.5-4.1-11.4-10.2-13-18.4
	c-3.8-19.7-0.5-39.1,2.7-58.5c2.9-17.3,5.1-34.5,4.9-52.1c0-2.5-0.4-5-1.2-7.3c-0.5-1.4-0.9-3,0.7-4c1.3-0.8,2.6-0.3,3.8,0.4
	c5,3,10,5.9,14.9,9.1c5.7,3.8,8.8,9.5,10.8,15.8c3.5,10.9,7,21.8,10.1,32.9c2,6.5,5,12.7,8.9,18.3c1.4,1.9,2.3,4.1,2.5,6.4
	c0.5,13.1,1.6,26.2,2.7,39.3c0.9,10.5-9.6,20.9-20.8,21.4C373.9,792.2,371.1,792.1,368.3,792.1z"/>
<path id="XFF9900M1Gra7Co3_3_" class="st0" d="M75,416.4c1.7,0.2,1.7,1.6,2,2.6c6.2,21.8,17.9,41.6,34,57.4
	c19.4,19.1,42.8,30.8,70.8,31.7c0.3,0,0.7,0,1,0c1.4,0.2,3.5-0.2,3.6,1.7c0.1,1.6-1.8,1.6-3,2c-4.7,1.6-9.6,2.8-13.8,5.7
	c-22,14.6-29.4,35.6-26.1,61c2.2,16.2,6.8,32,13.7,46.8c1,1.9,2.2,3.7,3.4,5.5c0.7,1.2,1.3,2.5,0,3.6c-1.1,0.9-2.3,0.5-3.2-0.2
	c-17.1-11.9-30.2-27-36.2-47.4c-5.5-18.4-6.3-38-2.4-56.8c0.6-2.8,0.2-5-2.2-7.1c-12.3-10.7-20.8-24-27.5-38.8
	c-8.6-18.9-11.4-39.2-15.1-59.3c-0.3-2-0.3-4-0.2-6C73.7,417.8,74.2,416.9,75,416.4z"/>
<path id="XFF9900M1Gra7Co3_2_" class="st0" d="M244.4,193.1c-6.1,1.8-11.2,3-16.2,4.2c-31.5,8-56.7,25.8-77.6,50
	c-17.8,20.5-30.9,43.7-37.8,70.1c-0.4,1.4-0.6,3.4-2.7,2.8c-1.6-0.4-1.4-2.1-1.2-3.4c2.4-16,5.9-31.8,10.6-47.2
	c3-10.3,5.9-20.8,11.2-30.3c0.5-0.9,0.8-2.1-0.3-2.7s-1.8,0.4-2.5,1c-3,2.7-5.2,6.1-7.8,9c-18,20.4-33,43-47.8,65.8
	c-7,10.9-14.1,21.8-19.8,33.5c-0.5,1-1.2,2-1.9,2.9c-0.4,0.7-1.3,1.1-2.2,0.9c-1.3-0.5-0.9-1.7-0.6-2.5c1.8-5.2,3.6-10.4,5.6-15.5
	C64,305.3,76,279.8,91,255.7c8.8-14.1,17.1-28.5,28.7-40.7c4.7-4.8,10.6-8.1,17.2-9.6c24.6-6.1,49.8-8.5,75-10.9
	c8.3-0.8,16.4-3,24.7-3C238.8,191.6,241.2,191.1,244.4,193.1z"/>
<path id="XFFCC33M2Gra3Co2_5_" class="st0" d="M410.6,504.9c-1.6-7.6-2.4-13.8-4-19.9c-8.6-32.2-27-57.9-52.3-79
	c-8.8-7.4-18.6-13.5-27.6-20.6c-15.9-12.7-28-28.2-33.7-48.3c-8-28.1-4.7-54.9,7.8-81c1-2,1.9-4.2,4.6-5.4c0.7,2.1-0.5,3.6-1.2,5.1
	c-6.2,12.5-8.5,26.5-6.6,40.3c1.9,14.5,8.7,27.2,17.3,38.8c9.5,12.8,21.7,23,32.9,34.1c14,13.8,29.3,26.3,40.9,42.3
	c11.2,15.2,18.3,33,20.8,51.8c1.2,9.4,3,18.8,3.4,28.2C413,495.5,413.8,499.7,410.6,504.9z"/>
<path id="XFFCC33M2Gra3Co2_4_" class="st0" d="M293.5,156c-4-47.6-7.5-95.3-12.3-142.9c-0.3-3.3-1.1-6.6-1.4-9.9
	c-0.2-2.9,1.2-3.7,3.6-2.1c17.5,12.1,35.1,24.1,52.5,36.4c13.8,9.8,27.1,20.4,39.7,31.8c14.3,12.8,12.8,29.1,6,42.7
	c-3.4,7.1-8.1,13.4-13.9,18.8c-1.3,1.2-2.7,3-4.7,1.8c-1.8-1-1-3-0.9-4.6c0.3-18.2-0.9-36.4-12.4-51.4
	c-12.4-16.1-26.4-30.9-42.5-43.4c-3-2.3-6.1-4.7-9.1-7c-1.1-0.8-2.2-1.7-3.6-0.7c-1.1,0.8-0.8,2-0.6,3.2
	c5.3,35.2,6.5,70.6,4.6,106.1c-0.5,10-0.3,20-1.6,29.9c-0.2,1.4,0.1,3.7-1.6,3.7c-2.1,0-1.7-2.4-1.8-4
	C293.4,161.7,293.5,158.9,293.5,156z"/>
<path id="XFFCC33M2Gra3Co2_3_" class="st0" d="M545.2,72.6c0.1-16.3-1.5-32.6-2.2-48.9c-0.1-1.8,0-3.9-2.1-4.7c-1.9-0.7-3,1-4.3,1.8
	c-11.2,7-22,14.4-31.8,23.2c-13.2,11.8-24.5,24.9-29.1,42.6c-2.2,8.3-3,16.7,1.2,24.7c0.7,1.4,1.2,2.8,0,4.2s-2.5,0.8-3.7,0.3
	c-4.6-2-9.4-3.7-13-7.2c-8.9-8.7-10.8-17.4-2.9-30.3c9.3-15,21.8-27.5,35.4-39c13.8-11.8,28.2-22.8,43.3-32.9
	c2.9-1.9,5.9-3.7,8.9-5.5c3.2-2,5.5-0.9,5.8,2.9c1.9,26.7,3.8,53.5,5,80.2c0.7,16.2,1.2,32.3-0.2,48.4c-0.8,9.2-0.6,18.7-4.5,27.4
	c-3,6.8-5.7,7.7-12.7,5.1c-7.3-2.5-13.7-7-18.6-12.9c-1.2-1.5-3.1-3.4-1.5-5.2c1.3-1.6,3.1,0.3,4.4,1.1c7.6,5.1,12.8-0.6,16.5-10.6
	c5.8-15.6,5.7-32,6.2-48.3C545.3,83.6,545.2,78.1,545.2,72.6z"/>
<path id="XFF9900M1Gra7Co3_1_" class="st0" d="M274.8,545.6c-0.2-5.5,0.1-11,2.9-16c1.5-2.6,1.2-5-1.4-6.5
	c-10.3-6-15.9-15.8-21.2-25.9c-5.8-11.2-8.1-23.5-11.6-35.5c-0.5-1.9-1.7-5.2,0.5-5.9c2.8-0.8,2.5,2.8,3.3,4.6
	c10.2,23.1,26.4,39.3,51.5,45.4c0.8,0.2,1.6,0.4,2.4,0.6c9.9,1.9,10.1,2.1,5.9,11.1c-7.4,15.8-11,32.5-12.3,49.6
	c-0.6,9.7,0.6,19.4,3.5,28.6c0.4,1.3,1.6,3.1-0.1,4s-2.7-1-3.4-2.2c-6.3-11.5-13.9-22.3-17.4-35.2
	C276,556.9,275.1,551.3,274.8,545.6z"/>
<path id="XFF9900M1Gra7Co3" class="st0" d="M347,439.1c0.7,14.9,3.2,30.9,14,44.3c0.8,1,1.4,2,0.2,3c-0.8,0.7-2,0.6-2.8-0.2
	c-12.1-10.6-25.4-20.3-29.8-37.1c-0.4-1.6-0.7-3.4-2.7-3.8s-2.9,1.1-3.9,2.5c-6.2,8.8-11.7,17.9-10.7,29.3c0.1,1.1,0.3,2.5-1.1,3
	s-2-0.9-2.5-1.9c-8.2-17.1-10.9-35.6,2.7-51.5c2.4-2.8,2-4.5-1.3-6.1c-6.6-3.1-13.4-5-20.8-3c-1.5,0.4-3.7,1.1-4.5-0.7
	c-0.9-2,1.5-2.8,2.7-3.5c9.2-5.6,20.3-7.3,30.7-4.7c10.2,2.4,19.2,7.4,27.7,13.3c1.7,1.1,2.6,3.1,2.3,5.1
	C347.4,430.5,347.3,434,347,439.1z"/>
<path id="XFFCC33M2Gra3Co2_2_" class="st0" d="M457.7,484.6c-1.5-4.6-0.2-9,0.9-13.1c7.6-28.6,19.7-55.1,37.6-78.8
	c5.7-7.6,12-14.7,18.4-21.7c14-15.3,25.1-32.3,30.7-52.5c2.1-7.5,1.9-15.1,1.6-22.8c-0.1-2.9,0-5.8,0-8.8l1.3-0.3
	c1.3,5,3.2,9.9,3.8,14.9c2,18.2,1.3,36.2-6.1,53.5c-5.7,13.3-15.3,23.6-25.4,33.6c-19.2,18.8-36.5,39.2-49.3,63.1
	c-3.3,6.1-5.6,12.7-8.1,19.2C461.1,475.5,457.8,479.4,457.7,484.6z"/>
<path id="XFFCC33M2Gra8Co2" class="st0" d="M446.3,245.5c3.6,0.2,5,2,6.3,3.9c2,2.9,3.7,5.9,5,9.2c2.4,5.9,3,5.8,7.7,1.5
	c9.5-8.7,20.9-13.3,33.5-15.1c1.4-0.2,3.6-0.7,4,1c0.4,1.9-1.9,1.9-3.2,2.3c-14,4.6-25.2,13.2-34.5,24.6c-2.8,3.3-2.8,7-2.4,10.9
	c0.8,8.5,0.4,17,0.6,25.5c0.3,13.9-5.6,24-18.1,30.1c-3.2,1.6-5.4,4.4-7.8,7c-10.3,11.1-24.5,10.9-33.7-0.5
	c-3.8-4.7-9.4-6.6-14.3-9.8c-9.5-6.2-12.6-15.7-12.6-26.3c0-9.6-0.4-19.3,0.7-28.9c0.4-4.1-1.7-7.4-4.4-10.3
	c-9.3-10.2-19.8-18.7-33.6-22.3c-1.2-0.3-3-0.6-2.5-2.4c0.5-1.6,2.3-1.2,3.5-1c12.6,2.2,24.6,5.9,33.9,15.3c4.3,4.4,5,4.3,7.9-1.5
	c1.6-3.3,3.5-6.5,5.3-9.6c0.7-1.1,2-2.2,3.3-1.8c1.9,0.7,0.8,2.4,0.4,3.4c-8.1,20.2-6.5,41.5-7,62.6c-0.3,11.2,5.4,18.4,15.2,23
	c3.4,1.6,7.4,1.9,8,7.4c0.3,2.6,4.7,3.9,7.8,4.6c5.4,1.2,10.6,0,15.4-2.5c0.7-0.4,1.8-1,1.8-1.6c0.8-6,6.1-6.9,10.1-9.1
	c7.9-4.3,12.9-10.4,13.3-19.6c0.8-19-0.5-38-4.1-56.6C451,254.5,448.4,250.4,446.3,245.5z"/>
<path id="XFFB8B8M2Color20" class="st0" d="M399,314c-0.1-2.5,0.8-5,2.4-6.9c8-9.9,31-8.3,37.5,2.7c3.3,5.6,2.7,9.6-2.5,15.1
	c-3.6,3.7-7.8,6.8-12.4,9.1c-3,1.6-5.8,0.8-8.6-0.4C406,329.6,399,321.3,399,314z"/>
<path id="XFF9900M1Gra3Co3" class="st0" d="M438.6,553.8c-1.4,6.3-2.8,12.3-4.1,18.3c-2.5,10.9-4.8,21.8-9.3,32.1
	c-0.7,1.6-1,3.9-3.1,4.2s-3-1.8-4-3.3c-5-7.3-11.2-13.6-17.3-20c-3.4-3.7-3.3-4.7,1.5-6.5c13.3-5.1,23.7-14,32.1-25.2
	c0.8-1,1.4-2.5,3-2.1S438.3,552.9,438.6,553.8z"/>
<path id="XFFCC33M2Gra3Co2_1_" class="st0" d="M395,72.2c1.3,0.1,2.5,0.7,3.4,1.6c5.8,4.5,11.6,8.9,17.2,13.6c2.8,2.3,5,2.4,7.7-0.2
	c5-5,12-7.1,17.4-11.5c1-0.8,2.8-2.2,3.9-0.4c0.9,1.5-0.6,2.8-1.7,3.8c-5.2,4.7-10,9.8-13.5,15.9c-2.5,4.4-5.5,8.7-6.6,13.8
	c-0.2,1.2-0.7,2.3-2.1,2.3c-1.2,0-2.3-0.8-2.6-2c-4.9-12.7-13.6-22.7-22.8-32.2c-0.9-0.9-2-2-1.4-3.5C394,72.8,394.7,72.4,395,72.2z
	"/>
<path id="X5104AAM2Gra1Co9_1_" class="st0" d="M495.9,214.5c-3.4,2.1-6.7,4.4-10.8,4.8c-2.1,0.2-3.5,1.2-3.9,3.2
	c-1.5,9.3-9,10.9-16.2,11.9c-3.9,0.5-7.2,0.8-8.6,5.1c-0.3,0.9-0.9,1.9-2.2,1.5s-1-1.6-1.1-2.6c-1.2-10.4,2-16.6,12-20
	C475,214.9,485.5,213.6,495.9,214.5z"/>
<path id="X5104AAM2Gra1Co9" class="st0" d="M345.5,214.1c12.3,0.7,24.9,0.7,36.1,6.8c5,2.7,7.5,13.3,5.4,18.6
	c-0.2,0.6-0.5,1.4-1.2,1.3c-0.6-0.2-1.1-0.6-1.4-1.2c-1.6-5.1-5.5-5.4-10-5.3c-5.8,0.2-12.8-4-14.2-9.1c-1.4-4.7-4.2-6.7-8.7-7.7
	C349.3,217.1,346.7,217.2,345.5,214.1z"/>
<path id="XFFCC33M2Gra3Co2" class="st0" d="M555.1,252.1c-4.8-3.7-6.2-9.4-9.1-14.1c-4.4-7.1-8.7-14.2-16.5-18.3
	c-3-1.6-2.5-3.8-0.2-5.4c7.7-5.4,13-12.8,18.2-20.4c0.9-1.4,2.1-3.8,4.2-2.4c1.9,1.3,0.3,3.3-0.4,4.9c-2.7,5.7-4.5,11.8-8.5,16.9
	c-1.7,2.1-0.6,4.2,0.9,6.3C550.2,229.4,552.1,240.9,555.1,252.1z"/>
</svg>
