<?xml version="1.0" encoding="utf-8"?>
<!-- Generator: Adobe Illustrator 24.1.0, SVG Export Plug-In . SVG Version: 6.00 Build 0)  -->
<svg version="1.1" id="图层_1" xmlns="http://www.w3.org/2000/svg" xmlns:xlink="http://www.w3.org/1999/xlink" x="0px" y="0px"
	 viewBox="0 0 633.4 807.4" style="enable-background:new 0 0 633.4 807.4;" xml:space="preserve">
<style type="text/css">
	.st0{fill:#FFFFFF;stroke:#000000;stroke-miterlimit:10;}
</style>
<g>
	<path id="X0031BFM2Gra1OT25" class="st0" d="M184.6,363.7c-0.4-6.8-4.1-9.2-8.6-11.3c-15.6-7.5-34.6,0.7-42.9,10.1
		c-6.5,7.3-6.9,16.7-0.6,24.6c1.4,1.8,2.3,3.1-0.4,4.1c-11.9,4.8-23.8,5.9-35.6-0.6c-1.1-0.6-2.8-1-2.5-2.7c0.3-1.3,1.9-1.1,2.9-1.5
		c7.7-2.6,13.9-7,17.8-14.4c1.2-2.2,1.9-4.6,2.2-7.1c0.9-9.3-2.5-18.2-15.9-14c-11.5,3.6-20.5,10.2-27.1,20.1c-1.1,1.7-2,4-4.5,2
		c-9-7.2-17-15-19.4-27c-1.8-8.9,1-16.7,5.5-24.2c2.4,1.3,1.4,3.4,1.9,5c1.5,5.1,4.7,6.9,9.8,5.2c9.8-3.3,18-9.2,26.1-15.4
		c1.8-1.4,2-3.3,2.1-5.3c0.1-10.9,5.5-21,14.4-27.3c30.4-22.4,64.8-38.7,101.4-48.2c1-0.1,2-0.1,3,0c-10,5.4-19.2,9.5-26.3,17.2
		c22.5-9.3,45.3-12.1,69-5.4c-1.2,2.2-3.1,1.9-4.6,2.3c-15,3.4-28.5,10-41.5,18c-1,0.6-2.5,1-2.2,2.4c0.4,1.7,2.2,1.2,3.4,1.2
		c13.8,0.4,26,5.2,36.9,13.6c0.8,0.6,1.8,1,2,2.6c-5.4,0.2-10.7,0.5-16.1,0.8c-1.5,0.1-3,0.2-4.5,0.4c-1,0.1-2.2,0.3-2.3,1.5
		c-0.2,1.3,1.1,1.4,2,1.8c8.8,3.7,17,8.4,24.6,14.2c4.2,3.3,8.1,7,11.6,10.9c-6,0-11.1,0-16.2,0c-1.1,0-2.6-0.4-3.1,0.8
		c-0.8,1.8,1.1,2.2,2,2.9c7.4,5.3,14,11.3,18.9,19c3.6,5.6,5.3,11.8,6.2,18.3c0.4,2.7-0.3,4.1-3.2,2.2c-2.7-1.7-5.7-2.8-8.9-3.1
		c-1.1-0.1-2.5-0.6-3.3,0.4c-0.8,1.1,0.3,2.2,0.7,3.2c4.2,8.9,7,18,5.5,28c-0.3,1.7,0.2,4.2-1.6,4.9c-2,0.8-2.8-1.9-4.2-2.8
		c-1.5-1-2.5-3.2-4.5-2.5c-1.9,0.6-1.2,2.9-1.5,4.4c-2.8,13.1-7.2,25.7-13.3,37.6c-0.7,1.3-2,2.3-1.4,4.2c2.1,0.5,3.3-1,4.7-2
		c26.4-18.1,40.4-44.3,47-74.7c6.1-27.6,5.3-56.4-2.6-83.6c-10.8-37.9-34.9-62.9-72.4-74.9c-1.5-0.5-3.8-0.3-4-2.3
		c-0.2-1.8,2.1-2.4,3.4-3.3c36.8-27.2,77.5-46.7,120.7-61.3c45.5-15.4,92.3-24.9,139.8-31c51-6.6,102.2-9.1,153.6-9.4
		c1.4,0,2.9-0.5,4.8,1.2c-2.8,0.7-5.1,1.3-7.5,1.9c-29,7.8-57.8,16.1-84.3,30.7c-9.4,5.1-18.1,11.3-25.9,18.5
		c-10.5,9.9-14.7,22-13.5,36c1.5,19,8.8,36.2,17.1,52.9c5.5,11.2,11.7,22.1,18.6,32.5c0.9,1,1.1,2.4,0.5,3.6
		c-68.2-46.8-143.9-70.2-226.4-72.1c9.2,1.7,18.5,3.3,27.7,5.1c70.1,13.9,135.4,39.5,195,79.2c15,10,29.3,20.8,43.4,32.1
		c0.9,0.7,2.3,1.2,1.8,2.6s-2,0.8-3.1,0.8c-13.4,0.4-26.6,1.4-39.5,5.3c-28,8.4-42.8,29.1-41.4,58.4c0.4,9.3,1.7,18.6,3.9,27.7
		c0.3,1.1,0.4,2.2,0.6,3.7c-2.3-0.3-2.7-2.1-3.5-3.3c-26.8-39.5-55.6-77.3-90.4-110.3c-23.8-22.4-50.6-41.4-79.7-56.4
		c-1.4-0.7-2.9-1.1-4.4-1.2c37.2,25.2,70,55.3,99.5,89.1s55.4,70.2,80.5,107.5c-5.7-3.6-11.1-7.5-17-10.7
		c-9.7-5.2-19.5-10.2-30.7-11.5c-15.9-1.8-27.9,4.1-36.4,17.5c-4.8,7.7-8.1,16.1-9.9,24.9c-0.3,1.3-1,2.6-2.1,3.4
		c-1.3-5.1-2.6-10.2-3.9-15.4c-10.7-42.4-23.8-84-45.9-122.1c-8.1-13.8-17.5-26.8-28.1-38.8c-0.8-0.9-1.4-2.3-3.7-2.1
		c19.7,35.5,35.8,73,48,111.8c12.1,38.7,20.6,78.1,23.6,118.9c-2.2-3.2-4.5-6.3-6.6-9.5c-2.6-3.9-5.7-7.4-9.2-10.5
		c-13.4-12.3-29.7-13-45.2-2.1c-7,5.1-13.3,11.1-18.7,17.9c-1.2,1.6-2.6,3-4.1,4.3c4.6-24.6,8.1-49.2,9-74c0.9-25-0.8-49.8-8-74.2
		c-1.9,1-1.4,2.3-1.4,3.3c1.1,48.5-4.5,96.4-13.7,144c-0.2,1-0.5,1.9-0.7,2.9c-0.5,2.7-1.4,3.5-3.9,1.3c-5.7-4.9-12.2-8.8-19.1-11.6
		c-14.8-6-29.8-6.5-44.9-1c-4.2,1.5-6,1-6.6-3.8c-0.5-3.8,0.2-7.5-0.3-11.6c-9.4,13.6-3.8,32.3,10.9,38.1c11.2,4.5,23.1,5,34.8,5.8
		c13.6,0.9,27.3,1.4,40.6,5c23.8,6.5,41.8,19.8,49.6,44.1c5.6,17.5,4.2,35.1-1.9,52c-17.3,48-53.6,71.7-102.5,77.9
		c-25.3,3.2-49.1-1.9-70.2-17.1c-6.4-4.7-12-10.2-15.8-17.1c-7.4-13.3-5.1-27.9,5.7-41.3c8.2-10.1,18.8-16.3,31-19.9
		c22.6-6.6,45.6-9.7,69.1-6.9c4.5,0.5,8.8,1.8,12.9,3.8c4.8,2.3,8.5,5.8,8.7,11.8c0.2,6.6-2.5,12-6.9,16.6c-1.4,1.4-3.1,0.3-4.7-0.1
		c-17.6-4.7-35.3-6.7-53.4-2.7c-6.7,1.4-13,4.3-18.4,8.5c-8,6.4-7.6,13.4,1,18.9c7,4.5,15,6.5,23.1,7.3c20.7,2,39.5-2.6,55.3-16.6
		c10.4-9.2,15-21,11.4-34.6c-3.9-14.6-14.6-22.6-29-25.8c-14.2-3.1-28.5-1.8-42.8-0.6c-20.5,1.7-40.8,2.3-61-3.2
		c-49.7-13.5-72.6-60.3-52.2-107.7c7.3-17,19.3-30.1,32.8-42.3c15.5-13.9,32-26.7,44.7-43.5c7.8-10.2,12.8-21.4,13.1-34.4
		c0.3-11.6-4.5-20.9-12.9-28.6c-0.9-0.8-1.8-2.4-3.3-1.5c-1.2,0.7-0.5,2.1-0.4,3.3C192.6,347.7,191.1,355.7,184.6,363.7z M129.2,305
		l-1.2-1.1c-5.9,3-11.4,6.6-16.4,10.9c-1.2,1.1-4.5,2.1-2.2,4.4c2.2,2.2,6,4.3,8.4,1.7C122.2,316.1,125.5,310.3,129.2,305z"/>
	<path id="X0031BFM2Gra4OT25" class="st0" d="M421,0.4c-27.4,10-52.1,22.7-76.2,36.6c-21.4,12.2-42.5,25.1-61.2,41.2
		c-6.1,5.2-12.1,10.5-16.3,17.5c-5.1,8.4-3,13.8,6.4,16.5c11.9,3.3,24.1,2.7,36.3,2c16.1-0.8,32.2-2.2,48.3-3.3c1,0,1.9,0.1,2.9,0.2
		c0.4,1.5-0.7,1.5-1.4,1.7c-34.4,10.7-67.9,23.7-99.8,40.5c-25.8,13.6-49.8,29.5-69.9,51c-2.2,2.3-2.7,4.1-1.2,7
		c3,5.8,5.4,11.8,8.5,17.5c1.5,2.8,1.2,4-1.7,5.2c-17.6,7.1-35.2,14.2-52.8,21.4c-3.4,1.4-3.9,0.3-3.8-3c0.6-14-1.9-27.3-11.3-38.4
		c-8.6-10.2-20.6-14.4-33.1-17.1c-4.3-0.9-4.8-1.9-2.7-5.6c17.3-31.2,40.6-57.2,67.9-79.9c47-39,100.7-65.8,158-85.8
		c31.3-10.8,63.4-19.2,96.1-25C415.8,0.2,417.8-0.4,421,0.4z"/>
	<path id="X1100AAM2Gra1OT6_7_" class="st0" d="M367.5,807.1c7.9-26.9,3.4-51.7-12.6-74.6c10.6,5.8,19.6,13,24.9,25.7
		c1.4-5.2,1.2-8.9,1.1-12.7c-0.3-27.3-10.1-50.6-29-70.2c-3.3-3.4-4.3-5.8-1-9.9c3.5-4.5,6.2-9.5,8-14.9c1.3-3.7,2.6-3.4,5.2-1.3
		c22.8,18.6,34.8,42.5,35.3,71.9c0.6,28.9-9.4,54.5-25,78.1c-1.8,2.7-3.8,5.4-5.6,8.1L367.5,807.1z"/>
	<path id="XD40011M2Gra8OT2_1_" class="st0" d="M104.7,358.2c0.3,1.3-0.8,1.8-1.5,2.3c-8,5.9-13.7,14.3-16.4,23.8
		c-4.2,14.3-14.3,20.5-28.5,21.3c-9.3,0.6-18.7,0.4-27.6,3.7c-4.5,1.6-8.9,3.7-13,6.2c-0.8,0.5-1.6,1.5-2.6,0.7
		c-0.9-0.7-0.4-1.8-0.3-2.8c2.8-15,12.9-23.7,28.5-24.2c3.7,0,7.3,0.2,11,0.6c12.4,1,22-3.6,29-14c5-7.4,10.5-14.2,19.2-17.5
		c0.4-0.2,0.9-0.4,1.4-0.4C104.1,357.9,104.4,358.1,104.7,358.2z"/>
	<path id="X1100AAM2Gra1OT6_6_" class="st0" d="M78.1,469.5c2.1-10.5,6.3-20.6,12.2-29.5c1.4-2.2,2.3-0.7,3.1,0.8
		c2.7,5,6,9.6,10,13.7c4.4,4.4,9.5,7.9,15.6,9.4c2.9,0.7,3.7,1.4,1.8,4.2c-4.4,6.5-8.1,13.4-11.1,20.6c-0.8,2-1.9,2.9-4.2,2.4
		c-11.5-2.6-20-9.5-26.7-18.8C78.5,471.3,78.2,470.4,78.1,469.5z"/>
	<path id="X1100AAM2Gra1OT6_5_" class="st0" d="M125.3,458.4c-4.3-0.6-8.4-2.3-11.8-5.1c-6.4-5.1-11.6-11.5-15.4-18.7
		c-1.1-2-0.7-3.3,0.9-4.8c6.7-6.6,14.4-11.8,22.4-16.5c2.7-1.6,3.8,0,4.8,2.3c3.6,9,8.5,17,17.5,21.5c1.4,0.7,2.1,1.7,0.8,3.1
		c-5.3,5.7-10.6,11.4-16,17.1C127.7,458.1,126.5,458.5,125.3,458.4z"/>
	<path id="X1100AAM2Gra1OT6_4_" class="st0" d="M169.5,418.5c-0.6,0.3-1.1,0.7-1.6,1.1c-4.5,3.7-9,7.4-13.3,11.3
		c-1.5,1.6-3.9,2-5.8,1.1c-9.8-4-14.2-12.5-18.1-21.4c-0.7-1.6,0.4-2.5,1.7-3.1c6.5-3.3,13.1-6.5,19.6-9.8c1.6-0.8,2.8-0.5,3.6,1.3
		c3,6.8,7,12.8,13.4,16.9C169.5,416.2,170,416.6,169.5,418.5z"/>
	<path id="X1100AAM2Gra1OT6_3_" class="st0" d="M76.2,487.5c0.6-1.9-1.2-5.1,0.9-6.1c2-0.9,3.1,2.4,4.6,3.8
		c6.2,6.1,13,10.8,21.8,12.2c2.5,0.4,2.9,1.7,2.3,3.9c-1.5,6-2.1,12.2-1.8,18.3c0.1,3.4-1,4.1-4.1,2.9c-4.5-1.7-9-3.3-13.7-4.7
		c-4.6-1.3-6.6-4.3-7.6-8.8C77.3,502,76.4,494.8,76.2,487.5z"/>
	<path id="XD40011M2Gra8OT2" class="st0" d="M0.7,456.5c-3-15.3,3.9-27.9,17-33.4c9.4-4,19.7-4.9,29.2-8.2c2.3-0.8,2.6,0.5,2.1,2.4
		c-0.9,3.6-3.1,6.7-6.1,8.8c-3.1,2.2-6.6,3.8-10.3,4.8C18.9,434.8,6.8,440.9,0.7,456.5z"/>
	<path id="X1100AAM2Gra1OT6_2_" class="st0" d="M191.9,396c-1.1,1.4-2.1,2.8-3.2,4c-2.7,2.9-5.7,5.6-8.2,8.6c-2.6,3.1-5,3.1-8.2,1.1
		c-4.9-3.1-8.9-7.6-11.3-13c-1.1-2.3-0.6-3.7,1.6-4.8c4.9-2.5,9.5-5.5,13.8-8.9c1.2-1,2.3-1.5,3.4,0c3,4.4,6.8,8.2,11.2,11.3
		C191.4,394.5,191.6,395.3,191.9,396z"/>
	<path id="X1100AAM2Gra1OT6_1_" class="st0" d="M120.2,567.9c-15.6-10.2-26.4-23.5-34.3-39.2c-0.4-0.7-0.9-1.5-0.1-2.3
		c0.8-0.7,1.6-0.1,2.3,0.2c4.6,1.8,9.5,3.2,14.4,4c1.7,0.1,3.1,1.4,3.4,3.2c2.6,11.4,7.3,22.2,14,31.8
		C120.1,565.8,120,566.4,120.2,567.9z"/>
	<path id="X1100AAM2Gra1OT6" class="st0" d="M197.9,347.4c3.2,5.3,4.3,11.1,4.6,16.9c0.5,7.5-1,15-4.3,21.8c-1.5,3-2.9,3.9-5.5,1.3
		c-0.8-0.8-1.7-1.6-2.5-2.4c-6.8-6.8-6.8-6.9-1.5-14.4C193.6,363.6,196.7,355.7,197.9,347.4z"/>
</g>
</svg>
