<?xml version="1.0" encoding="utf-8"?>
<!-- Generator: Adobe Illustrator 21.0.0, SVG Export Plug-In . SVG Version: 6.00 Build 0)  -->
<svg version="1.1" baseProfile="tiny" id="图层_1"
	 xmlns="http://www.w3.org/2000/svg" xmlns:xlink="http://www.w3.org/1999/xlink" x="0px" y="0px" viewBox="0 0 826.8 618.1"
	 xml:space="preserve">
<title>Anime10_13_21</title>
<g>
	<path id="XF37FFFM2Gra1OT20_1_" fill="#FFFFFF" stroke="#000000" stroke-miterlimit="10" d="M176.3,618.1c-0.6-2.4-2.9-2.5-4.7-3.2
		c-10-3.6-20-7.4-30.1-10.6c-19.4-6-31.9-19.7-42-36.4c-7.6-12.6-10.8-25.9-6-41.3c-7.2,2.6-13.5,4.5-20.1,5
		c-19.8,1.5-37.2-3.8-51-18.8c-2.2-2.3-2.4-4.2-0.3-6.9c5.3-7,10-14.6,16.7-20.5c15.9-14,35.2-18.8,55.8-19.6
		c6.3-0.2,12.7,0.1,19,0.2c8.5,0.1,15.8-2.7,21-9.5c2.1-2.8,3.4-2.5,5,0l0.3,0.4c7.3,5.1,11.5,10.5,6,20c-2.2,3.9-0.8,9.5,2.1,13.8
		c6.4,9.5,13.2,18.8,19.2,28.6c17.6,29.1,23,59.9,12.3,92.9c-0.5,1.9-0.9,3.9-1.2,5.9L176.3,618.1L176.3,618.1z"/>
	<path id="XE79CFFM2Gra4OT16" fill="#FFFFFF" stroke="#000000" stroke-miterlimit="10" d="M691.1,197.4c5.8,0,11.7,0.1,17.5,0
		c3.2-0.1,4,1.1,3.4,4.1c-1.4,7-2.4,14.1-3.6,21.2c-0.5,2.6-0.4,3.8,3,3.7c35.6-1.5,68.8-11.6,100.8-26.6c1-0.5,2-1.1,3-1.7
		c1.8-1.1,3.6-3,5.9-1.6s2.5,4.2,2.3,6.7c-0.3,3.2-1.4,6.2-3.2,8.8c-7,10.7-16.7,19.2-28.2,24.7c-26.3,12.8-53.7,21.7-83.3,22.6
		c-3.3,0.1-4.6,1.2-4.8,4.6c-0.3,7.8-1,15.6-1.6,23.4c-0.2,2.6,0.2,3.9,3.4,3.8c36.4-1.5,70.9-9.7,101.7-30.1
		c4.7-3.2,9.2-6.6,13.5-10.3c3.3-2.8,4.5-1.4,5.2,2c1.9,8.7-0.2,16.6-5.1,23.7c-10,14.8-23.7,25-39.6,32.6
		c-18.8,8.9-38.2,15.7-59.2,16.8c-6,0.4-12,0.4-18,0.1c-3.6-0.2-4.6,1-4.6,4.4c-0.1,6.8-0.3,13.7-0.9,20.5c-0.4,4.1,1.2,4.6,4.7,4.4
		c24.7-1.3,48.3-7.6,71.2-16.6c10.5-4.1,21-8.4,30.5-14.9c2.4-1.6,5.7-4.9,8.3-2.2s0.5,6.4-1.2,9.3c-6.4,11.4-15.4,21.1-26.4,28.3
		c-25,16.7-52.5,25.8-82.6,26.6c-3.8,0.1-5.3,1.2-5,5.2c0.4,5,0.4,10,0.1,15c-0.2,3.8,1.2,4.8,4.8,4.9c17.7,0.2,34.7-3.4,51.7-7.8
		c8.8-2.3,16.9-6.2,24.8-10.3c1.1-0.6,2.3-1.9,3.6-0.7s0.3,2.2,0.2,3.3c-0.7,7.9-5.9,12.9-11.9,17c-20.7,14-43.9,21.5-68.5,24.6
		c-3.4,0.4-4.1,1.6-3.9,4.7c0.4,6.2,0.6,12.3,0.6,18.5c0,3.1,1.2,3.5,3.9,3c13.5-2.3,26.7-5.5,38.8-12.5c4-2.3,4.6-1.8,4.6,2.9
		s-2.1,9.6-5.6,13.5c-8.5,9.1-19.2,14.1-31.3,16.3c-16.7,3-33.4,4.7-49.9-1c-9.7-3.2-18.4-8.8-25.5-16.1c-0.8-0.9-1.5-1.8-2.2-2.7
		c-1.5-2.2-0.7-4.1,0.7-5.9s2.9-0.8,4.5-0.2c10.4,4.4,21.3,6.5,32.5,7.5c2.9,0.3,4.4-0.3,4.3-3.6c-0.2-7-0.2-14-0.1-21
		c0.1-4.3-3.2-3.7-5.5-4c-21.4-2.4-41-9.8-59.2-21.2c-6.5-4.1-12.7-8.6-16.5-15.6c-0.8-1.4-1.5-2.9-2-4.5c-0.8-2.5-1.2-5.2,0.8-7.1
		s4.1,0,6,0.8c22.9,9.7,46.7,15.4,71.3,18.8c4.1,0.6,5.3-0.5,5.1-4.6c-0.2-4.8-0.2-9.7,0.1-14.5c0.1-3.1-0.7-4.3-4-4.7
		c-13.2-1.3-25.8-5.1-38.3-9.1c-19.9-6.4-34.7-20-49.2-34.2c-3.7-3.7-5.9-8.7-6.2-13.9c-0.1-1.8-0.6-3.9,1.1-5.1s3.5,0,5.1,0.9
		c7.5,4,14.9,8.1,22.5,11.9c19.9,10.2,41.4,17,63.5,20.1c4.5,0.6,6.2-0.4,5.9-5.3c-0.4-7-0.4-14,0-21c0.2-4.3-1.5-5.5-5.4-6.5
		c-30.8-8-58.7-22.2-85.2-39.6c-7.5-4.9-13.4-11.5-16-20.4c-0.6-2.2-1.9-4.6,0.4-6.5s4.4-0.7,6.6,0.3c17.6,8.5,35.4,16.4,53.4,23.8
		c13.7,5.6,28,8.5,42.6,10.3c2.6,0.3,3.6-0.3,3.6-3.1c-0.1-8.5-0.2-17-0.1-25.5c0-2.9-1.1-4-3.9-4.6c-14.5-2.9-28.9-6.8-42.9-11.6
		c-18.3-6.4-35.1-16.3-49.7-29.1c-4.2-3.4-7.1-8.1-8.4-13.3c-0.6-2.7-0.6-5.3,1.7-7.4c2.3-2.1,4.4-0.8,6.6,0
		c7.8,2.8,15.4,6.2,23,9.8c21.9,10.2,45.1,16.2,68.8,20.1c3.2,0.5,3.7-0.7,3.4-3.5c-0.7-7-0.8-14-1.9-20.9c-0.7-4.2,0.7-4.8,4.3-4.4
		c5.1,0.5,10.3,0.6,15.5,0.9L691.1,197.4z"/>
	<path id="XFF99FFM1Gra4Co8" fill="#FFFFFF" stroke="#000000" stroke-miterlimit="10" d="M629.1,120.8c-0.1-12.1-4.5-22.1-14.5-28.9
		c-3.1-2.1-3.5-3.4-1.4-6.5c12.8-19,28.6-35,46.7-48.9c8.3-6.1,17-11.7,26.1-16.6c2.4-1.5,5.3-1.6,7.8-0.3
		c23.7,10.3,44.9,25.8,61.9,45.3c24.6,27.9,43.2,59.4,58.2,93.3c2,4.6,1.2,7.1-2.6,9.9c-19.7,14.9-42.2,22.1-66.5,24.9
		s-47.2,0.2-70.8-1.3c-31.8-1.9-60.6-13.3-88.4-27.7c-8.3-4.3-8.3-5-6.9-13.9c2.3-15.3,9.3-28.3,18.1-40.6c1.5-2.1,3-1.6,4.8-1.4
		c8.9,1.1,16.2,5.7,23.5,10.5C626.2,119.4,627,120.8,629.1,120.8z M759.5,131.8c1-12.3-8.2-23-20.4-24c-12.3-1-23,8.2-24,20.4
		c-0.1,1-0.1,1.9,0,2.9c-0.1,12.3,9.6,22.5,21.6,22.8C749,154.1,759.2,144.2,759.5,131.8L759.5,131.8z"/>
	<path id="XF37FFFM2Gra1OT20" fill="#FFFFFF" stroke="#000000" stroke-miterlimit="10" d="M435,364.7c5.4,4.9,11.1,7.9,16.8,10.9
		c2.6,1.3,2.6,2.3,0.7,4.4c-11.1,12-24.3,21.3-37.8,30.1c-1.4,1-3.2,1-4.6,0c-28.8-15.8-52-37.1-65.6-67.5
		c-14.5-32.5-21.4-66.4-17.3-102.1c0.2-1.5,0.4-3,0.6-4.5c2.6-15.1,2.6-15,18-17.7c20.6-3.6,40.8-1,61,3.2
		c27.3,5.7,53.5,15.6,77.7,29.4c10.3,5.8,19.7,13.1,29.5,19.7c2.4,1.6,2.4,3.5,1.8,6c-2.8,11-8.3,20.6-13.6,30.5
		c-9.4,17.5-20.3,34-31.6,50.2c-1.4,2-2.8,1.9-4.6,1.9c-6.5-0.1-13,0.4-19.4,1.5C442.6,361.5,438.7,362.8,435,364.7z M419.2,271.1
		c0.3-11.5-9.5-21.8-21.1-22.2s-23.2,9-23.6,21.7c-0.4,12.7,9.5,22.5,21.1,22.9S418.9,284.2,419.2,271.1z"/>
	<path id="XA80212M1Gra1OT3" fill="#FFFFFF" stroke="#000000" stroke-miterlimit="10" d="M99.2,173.3c-6.8,6-13.9,11.3-22.3,14.8
		c-2.4,1.2-5.1,1.2-7.5,0c-25.5-12.2-47.5-29.3-67.9-48.7c-1.6-1.3-2-3.6-1-5.4c22-52.3,55.2-93.9,109.2-116.1
		c8.5-3.5,14.6-2.4,20.7,4.4c11.4,12.6,21.1,26.7,28.8,41.8c10.8,21.2,13.7,43.8,13.6,67.2c-0.1,26.9-4.8,53.6-14.1,78.8
		c-1.6,4.2-3.6,5.8-8,5.1c-21.3-3.2-42.1-8.8-62.1-16.7c-3.4-1.3-1.9-2.5-0.6-4.2C93.2,188,97.3,181.3,99.2,173.3z M130,80.7
		c-0.1-12.9-10.1-22.9-22.7-22.8S85.1,68.1,85.2,79.8s10.4,22.9,21.8,23S130.1,92.6,130,80.7z"/>
	<path id="X990000M1Gra8OT24" fill="#FFFFFF" stroke="#000000" stroke-miterlimit="10" d="M286.8,119.4c1.7,20.1-2.1,41-8.8,61.5
		c-4.2,12.8-11.1,23.8-22,32c-1.5,1.1-2.9,2.4-4.9,2.1s-3.5-0.8-1.9-3.2c9.7-13.7,10.6-30,12.5-45.8c2.7-21.6,3-43.2-2.5-64.5
		c-1.1-4.1-2.6-5.4-6.8-4.7c-5.1,0.8-10.2,1.4-15.4,1.5c-4.4,0.2-5.8,1.4-5.2,6.3c3.8,30.8-1.5,60-15.6,87.7
		c-4.4,8.5-10.4,15.9-17.7,22c-1.5,1.3-3.3,2.4-5.1,3.2c-2.8,1.3-6.3,3.4-8.8,0.8s0.8-4.9,1.8-7c16-32.9,17.4-67.6,13.2-103.1
		c-0.5-3.9-1.8-5.3-5.7-4.4s-10.8,2.1-16.1,3.4c-2.3,0.6-3.2,0.2-3.6-2.3c-1.8-10.7-3.6-21.3-6.7-31.7c-0.7-2.3-0.1-3.4,2.3-3.7
		c4-0.6,7.9-1.6,11.8-1.9s5.3-1.9,3.1-5.9C177.8,49.1,170.2,37,161,26c-3.3-4-6.5-8-9.8-12c-2-2.4-1.2-4,1.3-4.9s7.3-2.1,11.2-0.9
		c10,3,18.3,8.8,25.9,15.6c11.6,10.4,21.6,22.2,28.5,36.3c1.6,3.4,3.6,5,7.7,4.7c5.8-0.2,11.7-0.2,17.5,0.2c3.3,0.1,4.1-0.5,2.5-3.8
		c-7.5-16-16.8-31.1-27.8-44.9c-2.8-3.5-5.5-7.1-8.2-10.7c-0.9-1.2-2.5-2.2-1.8-3.8s2.7-1.8,4.4-1.8c12.1,0,22.9,3.2,32.1,11.5
		c14.8,13.3,24.3,30,30.9,48.3c2,5.4,4.3,8.1,10.4,8c6.1-0.1,14,0.6,20.9,1.2c3.1,0.3,3.8-0.3,2.5-3.4
		c-6.1-15.3-13.4-30.1-21.9-44.2c-1.3-2.1-2.5-4.3-3.8-6.5s-1.1-3.2,0.4-4.5s2.8-0.7,4.1,0.2c2.9,1.9,6.1,3.6,8.6,5.9
		c16.3,15,31.4,30.8,39.4,52c1.2,3.1,2.8,4.4,6.1,4.8c7.1,0.9,14.2,2,21.2,3.3c3.8,0.7,4.1-0.4,3-3.7c-2.3-6.8-5.2-13.3-8.8-19.5
		c-0.7-1.3-1.4-2.7-1.9-4.1c-0.6-1.6-1.1-3.3,0.5-4.6s2.9-0.6,4.2-0.1c6.4,2.6,10.8,7.7,14.9,12.9s7.5,12.2,10.4,18.8
		c0.9,2.7,3.4,4.6,6.2,4.9c6.6,1,13.1,2.6,19.6,3.7c2.6,0.4,3.8,1.2,3.4,4.2s0.7,8.1-1.1,10c-1.8,1.9-6.4-0.8-9.9-0.9
		s-8.8-2.7-11.6-0.4c-2.8,2.3-0.6,7.2-0.6,11c0,13.3-3.8,25.6-10.2,37.1c-2,3.5-4.5,6.7-8.2,8.5c-1.4,0.7-3.2,1.4-4.7,0
		s-0.5-2.8,0.1-4.1c6.9-16.2,7.4-33,4.5-50.1c-0.6-3.5-1.6-5.3-5.6-5.2c-5.8,0.1-11.6-0.6-17.5-0.8c-5.9-0.2-6.5-0.2-5.9,5.9
		c1.3,13.3,1.7,26.7-1,39.8c-3.3,16.3-8.4,31.9-19.7,44.7c-2.4,2.8-5.3,5.1-8.6,6.7c-0.9,0.4-1.9,0.8-2.7-0.2c-0.8-1,0-1.5,0.4-2.2
		c15-29.2,14.6-59.6,7.3-90.6c-0.8-3.2-2.1-4.3-5.4-4.2c-8.3,0.3-16.7,0.3-25,0.1c-3.8-0.1-4.4,1.3-3.9,4.7
		C286.5,105.2,287.3,111.5,286.8,119.4z"/>
	<path id="XF37FFFM2Gra1OT19" fill="#FFFFFF" stroke="#000000" stroke-miterlimit="10" d="M137.3,392.6c1.8,7.5,3.1,14.2,4.9,20.7
		c1.6,5.8,3.8,11.4,6.4,16.8c0.8,1.8,1.7,2.5,3,0.4c2.6-3.9,5.3-7.7,7.8-11.6c1.3-2.1-0.4-4.2-0.9-6.2c-8.1-28.2-4.5-55,9.8-80.5
		c0.2-0.4,0.7-0.6,1.7-1.5c-2.3,23.4-4.5,46.1,3.7,69.1l13.3-14.5c1.2-1.3,0.5-2.8,0.3-4.3c-5.3-34.4,3.6-65.3,23.5-93.4
		c1.8-2.9,4.7-5,8-5.7c-9.3,26.6-14.7,53.2-10.3,81.9l21-17c1.3-1.1,0.9-2.7,0.9-4.2c-1.2-32,8.5-60.7,26.6-86.8
		c1.2-1.6,2.5-3.1,3.9-4.5c1-1,2.4-2.6,3.8-1.6s0.1,2.8-0.5,4c-5.7,13.4-9.2,27.5-10.5,42c-0.9,9.3,0,18.6,0.4,28
		c0.2,4.3,1.5,4.6,5,2.4c5.9-3.8,12-7.2,18.2-10.5c2.5-1.3,3-2.9,2.9-5.6c-0.5-13.5-0.9-27.2,3.4-40.1s9-25.1,17-36
		c1.1-1.4,2-4,4.6-3s3,3.5,2.7,5.9c-0.6,4.5-1.1,8.9-2,13.3c-3.2,15.7-3.7,31.8-1.6,47.7c0.4,3.4,1.3,4.8,5,3.1
		c3.7-1.7,9.1-3.3,13.6-5.1c1.9-0.7,3.1-1.2,3.8,1.7c1.7,7.4,3.8,14.8,6,22.2c0.7,2.5-0.1,3.1-2.2,3.8c-4.4,1.4-8.7,3.5-13.2,4.7
		s-4.5,2.9-3,6.4c6.4,14.7,14.4,28.6,23.9,41.5c13.1,17.3,29.7,30.4,47.7,42.2c1.7,1.1,5.1,1.8,3.6,5s-4,3.9-7.2,3.5
		c-8.1-0.9-15.5-4.2-22.6-7.9c-18.1-9.3-34.6-20.7-47.9-36.2c-9.5-11.1-16.5-23.8-22.7-36.9c-1.6-3.4-2.8-4.6-6.4-2.1
		c-5.2,3.5-10.7,6.7-16.4,9.4c-4.3,2.1-4.2,4.5-2.5,8.3c6.2,13.9,15,25.9,25.2,37c14.2,15.6,31.9,26.7,49.7,37.5
		c1.8,1.1,4.4,1.5,3.8,4.5s-3.2,3.2-5.5,3.4c-3.3,0.4-6.7,0.3-10-0.4c-39.5-8.1-68.7-30-87.4-65.7c-2-3.9-3.2-4.4-6.4-1.3
		c-4.3,3.9-8.9,7.6-13.6,11c-2.8,2.1-3.2,3.9-1.6,7.1c6.7,13.4,15.9,24.9,25.4,36.3c7.7,9.2,17.3,16,27.1,22.7
		c1.6,1.1,4.7,1.6,3.4,4.6s-3.9,3-6.5,2.5c-7.1-1.2-14-3.2-20.6-6c-20.8-9.2-37.9-22.8-49.1-42.9c-1.5-2.7-2.6-3-4.6-0.7
		c-1.5,1.6-3,3.1-4.7,4.5c-5.4,5.1-5.3,5-0.7,11.1c8.1,10.7,18,19.7,27.9,28.5c1.7,1.5,4.3,2.7,3.1,5.6s-4.5,2.3-7,1.7
		c-14.8-3.4-27.6-10.5-37.9-21.8c-4.8-5.2-3.8-5.5-8.4,0.5c-6.2,8.2-6.2,8.6,1.6,15.5c2.7,2.4,5.9,4.3,8.7,6.7
		c2.8,2.4,2.9,2.6,1.9,4.7s-2.7,1.6-4.4,1.6c-9.9-0.1-17.7-3.7-24.3-11.3c-15.6-17.9-18.2-38.4-14.3-60.5c0.2-1,0.5-1.9,1-2.8
		C136.1,394.2,136.7,393.3,137.3,392.6z"/>
	<path id="XFF00FFM1Gra4Co9" fill="#FFFFFF" stroke="#000000" stroke-miterlimit="10" d="M687.5,573.1
		c-14.5,24.9-37.6,35.6-65.3,37.7c-12.5,1-24.2-3.8-35.9-7.7c-6.6-2.2-13-5.2-20.3-4.5c-2.5,0.2-3-1-2.6-3.4
		c6.4-32.8,25-55.6,56.2-68.1c6.1-2.4,12.6-3.1,19.1-3.3h11c15.4-0.2,23.3-7.6,24.6-23c0.3-3.4-1.4-8,1.2-9.9s6.4,0.1,9.7,0.1
		c4,0,8-0.2,11.9-0.7c3.4-0.5,4.9,0.3,5.8,4c2,9,4.8,17.6,12.8,23.6c4,3,8.1,5.1,13,5.8c14.4,2.1,28.8,4.2,42.5,9.1
		c23.7,8.4,39.6,25.1,48,48.8c1.9,5.3,3.7,10.7,5.7,16c1.1,2.9,0.4,4.4-2.8,3.6c-7.9-1.9-15.5-0.4-23.1,1.6s-15,4.3-22.8,5.7
		C739.4,614.8,710.4,602.3,687.5,573.1z"/>
	<path id="XCC0000M1Gra5Co6" fill="#FFFFFF" stroke="#000000" stroke-miterlimit="10" d="M520.2,37.6c-0.4,19.8-6.8,41.7-24.3,59.6
		c-4.8,4.9-10.6,8-16.6,10.8c-2.7,1.3-3.5,2-0.8,4.7c14.2,14.1,21.4,31.5,22,51.5c0.2,10.6-0.2,21.3-1.1,31.9
		c-0.2,3.2-1.3,3.8-4.4,3.3c-11.7-2-21.2-8.4-30.7-14.9c-23.1-15.9-35.7-38.5-41.1-65.5c-1.4-7.2-3.6-14.3-3.7-21.6
		c-0.4-18.4,6.4-34.7,17.1-49.1c18.6-24.9,43.6-40.1,74.1-46.4c3.1-0.6,4.2,0.3,5,3C518.5,14.2,519.6,23.6,520.2,37.6z"/>
</g>
</svg>
