<?xml version="1.0" encoding="utf-8"?>
<!-- Generator: Adobe Illustrator 24.1.0, SVG Export Plug-In . SVG Version: 6.00 Build 0)  -->
<svg version="1.1" baseProfile="tiny" id="图层_1"
	 xmlns="http://www.w3.org/2000/svg" xmlns:xlink="http://www.w3.org/1999/xlink" x="0px" y="0px" viewBox="0 0 587.8 656.7"
	 xml:space="preserve">
<path id="XCCFFC7M2Color21" fill="#FFFFFF" stroke="#000000" stroke-miterlimit="10" d="M309.5,546.2c-17.8,0.3-34.3-12.1-40.2-29.5
	c-2.5-7.2-2.4-7.2-9.4-4.1c-12.1,5.4-24.4,6.3-36.9,1.2c-22.8-9.4-28.4-35.8-13.4-55.4c2.6-3.4,5.4-6.8,9.2-9.1
	c3-1.9,3.6-3.6,1.7-7.2c-6.4-11.6-7.8-24.2-3.4-36.7c8-23,33.6-30.7,54.5-16.5c4,2.8,5.6,2.4,8.1-1.6c9.5-15,26.7-22.8,41.3-19.3
	c17.2,4.2,28.6,19.9,28,38.8c-0.1,3.5-0.1,7.1-1.4,10.4c-1.4,3.5,0.1,4.4,3.2,4.9c7.6,1.1,14.8,4.5,20.4,9.8c16,15,14.7,39.2-3,54.4
	c-6,5.2-12.7,9.1-20.7,10.5c-3.4,0.6-4.9,1.7-4.3,5.9c2.5,17-6.4,33.7-22,41C317.5,545.4,313.5,546.3,309.5,546.2z"/>
<path id="X05E8E2M2Color11_1_" fill="#FFFFFF" stroke="#000000" stroke-miterlimit="10" d="M492,385.2c-0.1,15.5-4.8,26.9-13.2,36.6
	c-2.5,2.9-1.8,4,0.3,6.4c11.9,13.5,16.8,28.8,10.2,46.2s-25.8,26.8-45.6,23.3c-8.9-1.5-17.3-5.3-24.3-11c-2.9-2.3-3.7-1.8-5.1,1.3
	c-6.8,14.7-17.7,24.8-33.6,29c-8.8,2.3-17.5,1.3-25.9-2.1c-3.4-1.4-4.5-3.6-4.4-7.4s2.1-4.6,5-5.8c18.1-7.2,30.5-19.5,33.5-39.4
	c3-19.4-8.9-38-28.3-44.6c-3.8-1.3-5.3-2.9-5.1-7c0.6-11.8-3.3-22.9-6.2-34.2c-6-23.5,6.2-51.9,34.5-55.3
	c14.4-1.7,25.9,4.6,35.3,15.1c3.9,4.1,6.9,9,8.9,14.4c1.2,3.4,2.6,3.3,5.5,1.9c15.1-7.2,30-7.5,43.8,3.1
	C487.6,363.6,491.6,374.9,492,385.2z"/>
<path id="X05E8E2M2Color11" fill="#FFFFFF" stroke="#000000" stroke-miterlimit="10" d="M248.5,366.2c-0.1,1.3-0.3,3.1-0.2,5
	c0,2.7-1.3,4-3.9,4.2c-25.2,2.6-41.3,28.4-35.4,55.6c0.5,3.1,1.5,6.1,2.8,9c1.7,3.2,1.1,5.3-1.6,7.7c-8.5,7.4-14,17.7-15.3,28.9
	c-2.1,16.5,4.1,29.6,17.5,39.4c1,0.7,3,1,2.5,2.6s-2.3,0.9-3.5,1.1c-18.1,2.5-37.9-9.5-46-27.8c-1.6-3.5-2-8.7-4.6-10.1
	c-2.9-1.7-6.5,2.8-10,4.2c-13.7,5.4-27.3,6-40.8-0.3c-19.3-9-26.9-31.7-17.7-51.3c3.2-6.9,7.5-13.1,13.7-17.5c4.3-3,4-5.4,1.6-9.6
	c-6.7-11.8-8.6-24.5-4.7-37.6c8.2-27.1,37-37,60.5-20.9c3.7,2.5,5,2.5,7.6-1.6c8.8-14.2,21.2-23.5,38.7-23.6
	c20.1-0.2,36.7,16.1,38.6,37.3C248.4,362.4,248.4,364.1,248.5,366.2z"/>
<path id="XDAA6B7M2Gra4OT11_3_" fill="#FFFFFF" stroke="#000000" stroke-miterlimit="10" d="M334.1,295.6
	c-27-0.1-52.9-5.4-77.3-17.1c-6.7-3.2-13.8-5.8-19.5-11c-3.5-3.2-5-6.7-4.2-11.5c1.9-12.5,3.5-25,5.5-37.5
	c0.8-5.1,0.6-10.3,1.1-15.4s3.1-6.6,7.1-3.9c17.8,12,37.9,18.3,58.7,22.5c13.1,2.5,26.4,3.8,39.7,3.6c5.2,0,7.7,2,8.3,7
	c1.6,12.7,3.3,25.4,4.8,38.1c0.5,5.1,1.4,10.2,2.5,15.2c1.6,7,0.6,8.4-6.3,9C347.8,295.4,341,295.7,334.1,295.6z"/>
<path id="XDAA6B7M2Gra4OT11_2_" fill="#FFFFFF" stroke="#000000" stroke-miterlimit="10" d="M255,365.6c0-20.8-8.9-36.1-27.7-45.4
	c-3.5-1.7-4-3.5-3.1-7c2.6-10,3.7-20.3,4.7-30.5c0.5-5.4,2.3-6,6.8-3.2c23.1,14.1,49,23,75.9,25.9c14.9,1.7,29.9,2.5,44.8-0.2
	c3.8-0.7,7.8-0.9,9.4,4.1c2.1,6.2,1.4,9.5-3,12.5c-14.2,9.8-20.8,23.7-21.8,40.6c-0.3,6.1-1.4,6.8-6.4,3.8
	c-18.6-11.2-43.1-4.9-57.2,12.6c-2.3,2.8-4,3.4-7,1.5c-3.1-2.2-6.8-3.6-10.6-4.1c-4.5-0.3-5.2-2.5-4.7-6.2
	C255,368.6,255,367.1,255,365.6z"/>
<path id="XDAA6B7M2Gra4OT11_1_" fill="#FFFFFF" stroke="#000000" stroke-miterlimit="10" d="M338.8,214.5c-30.1-1-59.5-8.9-86-23.2
	c-7.7-4.2-9.4-7.5-7.8-16.2c2.8-15,5.8-30,6.9-45.3c0.4-5.1,3.6-6.8,8-3.7c15.8,11.1,34.1,15.5,52.4,19.6c7.5,1.8,15.1,2.8,22.8,2.9
	c4.3,0.1,7.4,2,7.2,6.4c-0.5,11.3,2.5,22.1,3.8,33.2c0.9,7.4,0.9,14.9,3.3,22.1c0.9,2.7-0.6,4.6-3.6,4.6
	C343.5,215,341.1,214.6,338.8,214.5z"/>
<path id="XFF99FFM2Gra7Co6_1_" fill="#FFFFFF" stroke="#000000" stroke-miterlimit="10" d="M530.5,461
	c37.2-51.5,49.2-105.7,18.8-165.6c-4.3,7.5-9.3,14.6-14.9,21.2c-12.8,15-29.3,26.5-47.9,33.2c-1.8,0.6-3.4,1.2-5.2,0.1
	c-4.4-2.8-8.6-5.6-13.7-7.2c-2.3-0.7-1.7-2.1,0-3.1c4.2-2.5,8.3-5,12.5-7.3c30.8-16.6,49.4-42.3,57.4-76c0.9-3.7,1.9-7.4,2.9-11.1
	c0.2-0.9,0.2-2.2,1.4-2.4s1.6,1,2.2,1.7c20.3,23,35.3,49,41,79.4c8.1,43.2-2,81.9-30.8,115.5C547.4,447.7,539.4,455,530.5,461z"/>
<path id="XFF99FFM2Gra7Co6" fill="#FFFFFF" stroke="#000000" stroke-miterlimit="10" d="M57.3,461c-17.4-12.7-31.4-28.1-41.4-47
	c-20.1-38-20.3-77-5.3-116.8c7.5-20,20-36.8,33.3-53c0.6-0.7,1.1-1.9,2.3-1.3c1.2,0.6,1.1,1.9,1.4,3c2.8,10.3,4.8,20.8,9,30.6
	c10.5,24.2,26.9,43,50.3,55.5c3.1,1.6,6.1,3.5,9.2,5.1c2.2,1.1,2.3,2.1,0.2,3.5s-4.3,2.4-5.5,4.2c-4.5,6.3-9.4,5.7-15.8,2.8
	c-23.5-10.7-41.7-27-54.7-49.3c-0.4-0.7-0.9-1.4-1.8-2.9C8.2,355.2,20.1,409.4,57.3,461z"/>
<path id="XDAA6B7M2Gra4OT11" fill="#FFFFFF" stroke="#000000" stroke-miterlimit="10" d="M334,138.4c-20.7-2.8-40.9-7.4-60-16.3
	c-4.4-2-8.8-4-13.2-6c-3.8-1.8-5.5-4.6-4.7-8.9c2.6-13.9,5-27.8,7.7-41.7c1.1-5.6,2.7-6.1,7.7-3.4c16.1,8.6,32.8,15.4,51,18.1
	c7.5,1.1,8.6,3.1,9.6,10.7c1.8,13.8,2.8,27.8,5.9,41.4C339.1,137.2,338.2,138.5,334,138.4z"/>
<path id="X8D05DDM2Gra4Co8_1_" fill="#FFFFFF" stroke="#000000" stroke-miterlimit="10" d="M228.8,641.9c-8.5-8.9-8.3-19.7-6.8-31.1
	c-6.2,4.8-11.9,19.4-7.6,35.8c-3-2.1-5.6-7.6-6.3-14c-0.6-4.6-0.7-9.3-0.4-14c0.1-1.4,1.2-3.3-0.5-4.1c-2-0.9-2.7,1.3-3.9,2.5
	c-8.7,8.6-12.5,19-12.2,31.2c0,1.1,0.4,2.3-0.9,3.6c-1.6-1.7-1.6-3.8-1.9-5.8c-1.3-9.5,0.2-18.6,3.4-27.5c0.4-1.1,2.1-2.3,0.7-3.5
	c-1.2-1-2.9-0.5-4.3,0.2c-10.9,5.3-18,13.6-20.1,25.7c-0.5,3.1-0.7,6.2-1.7,9.3c-4-12.9-2.3-25.1,5-36.9
	c-8.4,3.1-15.5,7.6-21.2,14.3s-8,14.6-8.6,23.3c-3.2-9.8-1-18.9,3.6-27.7c2.8-5.1,6.4-9.8,10.7-13.7c0.8-0.8,2.3-1.3,1.6-2.7
	s-2.4-1-3.6-0.7c-3.2,1-6.3,2.3-9.2,3.8c-11.4,6.2-19.2,15.3-21.8,28.3c-0.2,1.2,0.1,2.7-1.9,3.8c-0.9-6.2,0.5-11.8,2.4-17.2
	c3.3-9,9-16.2,16.3-22.3c1-0.9,3.3-1.4,2.2-3.3c-0.9-1.4-2.8-1.8-4.5-1.5c-9.1,1.4-17.3,4.7-23.8,11.5c-4,4.1-6,9.5-9.7,13.8
	c1-9.2,5.1-16.8,11.4-23.3c2.6-2.8,5.6-5.2,8.9-7.2c1-0.6,3.1-0.8,2.5-2.5c-0.5-1.5-2.3-1-3.6-0.9c-13.8,1.1-26.2,4.9-34.4,17.2
	c-0.5,0.7-1.1,1.3-1.7,1.8c-0.2,0.2-0.5,0.2-1,0.3c4.1-12.3,12.8-20,24-25.3c1.5-0.7,4.3-0.5,3.9-2.8c-0.3-1.8-2.8-1-4.4-1.1
	c-13.4-1-23.9,4.2-31.7,15.3c-1.3-1.8-0.1-2.9,0.4-3.9c3-5.6,7.2-10.5,12.2-14.3c7.3-5.4,13.7-6.2,22.2-1.2
	c19.2,11.4,39.3,21.3,61,26.9c20.1,5.2,40.1,6.6,59.6-2.6c4.4-2,8.5-4.6,12.1-7.8c1.6-1.4,2.7-2.4,4.1,0.3
	c4.7,9.5,11.9,16.2,22.5,19c-10.1,1.3-18.3-3.3-26.8-9.8c2.3,10.3,7.2,17.2,14.8,22.4c-9.6-1.7-15.2-8.6-21.4-17
	c-1.6,10.3-1.7,18.5,5,25.6c-9.1-3.8-10.9-12.2-12.9-22C225.9,621.4,223.7,631.3,228.8,641.9z"/>
<path id="X8D05DDM2Gra4Co8" fill="#FFFFFF" stroke="#000000" stroke-miterlimit="10" d="M313.7,609.3c1.1-1,1.4-1.5,1.7-1.6
	c9.4-2,16-7.8,20.9-15.8c1.6-2.6,2.6-2.6,4.8-0.5c11.8,11.1,26.1,16.2,42.1,17.2c22.7,1.4,43.9-5,64.6-13.1c10.8-4.3,21.4-9.3,32-14
	c2.5-1.1,5-1.9,7.7-0.6c10.1,5,17.7,12.2,21.1,23.3c-1.3,0.5-1.6-0.5-2-1c-7.4-11-18.2-15-30.9-15.2c-1.1,0-2.7-0.4-3.1,0.9
	c-0.6,2,1.6,1.7,2.6,2.2c11,5.6,19.3,13.6,23,25.6c0.2,0.6,0.6,1.2-0.3,2.1c-1.4-2.2-2.7-4.5-4.2-6.5c-8.1-10.4-19.4-14.1-31.9-15.5
	c-0.8-0.1-1.9-0.3-2.2,0.6c-0.7,1.6,0.9,1.8,1.8,2.4c10.4,7.2,16.4,17.2,18.9,29.5c0.1,1.3,0.1,2.5,0,3.8c-1.6-0.7-1.5-2.1-2-3.2
	c-5.3-13-14.1-22-28.2-25.1c-0.8-0.2-1.6-0.4-2.4-0.5c-1.5-0.2-3.3-0.1-4.1,1.3c-1,1.9,1,2.5,2,3.4c10.8,10.4,17.1,22.8,16.5,38.1
	c0,1,0.2,2-1.3,3.2c-0.5-2.7-1-5.2-1.5-7.7c-3.2-15.7-13.6-25-27.8-30.8c-1.2-0.5-2.9-1-3.7,0.2c-1,1.4,0.7,2.3,1.6,3.2
	c9.3,10.2,14.5,21.8,13.1,35.9c-0.2,1.9-0.2,1.9-2.1,5.4c-0.2-19.7-10.8-31.2-27-38.8c2.7,6.1,5.2,12.2,5.5,18.9
	c0.2,6.5-0.4,12.8-3.2,18.8c-0.5-5.3-0.5-10.5-2-15.6c-2.9-9.8-8.7-17.1-17.9-21.5c-1.2-0.6-2.6-1.4-3.7-0.3s0.1,2.2,0.5,3.2
	c3,8.7,3.6,18.1,1.9,27.1c-0.4,2.7-1.4,5.2-2.9,7.5c0-3.7-0.1-6.1,0-8.5c0.4-10.8-3.6-21.3-11.1-29c-0.9-0.9-1.5-2.7-3-2.1
	s-0.8,2.4-0.8,3.6c0.3,9.5-1.3,18.6-6.3,26.8c-0.5,0.8-1.2,1.4-2,1.9c4-12.9,3.2-25-4.6-36.5c-0.1,11.3-0.1,22.5-9.9,30.8
	c6.6-10,5.2-20,0.5-31.3c-3.4,8.5-5.1,17.5-14.7,20.4c7.6-6.4,7.6-14.9,6.7-24.9c-6.5,7.3-12.5,13.8-22.8,15.6
	c3.7-3.7,7.9-5.4,10.5-9c2.9-3.8,5-8,6.2-12.6C331.9,606.2,324,610.3,313.7,609.3z"/>
<path id="X7B05C1M2Color9_1_" fill="#FFFFFF" stroke="#000000" stroke-miterlimit="10" d="M540.6,371.4
	c-0.4,31.1-14.3,55.1-39.2,73.2c-3.1,2.2-4.4,1.7-5.5-1.9c-1.7-5.4-4.5-10.4-8.1-14.8c-1.7-2.1-2-3.6-0.3-6.1
	c9.8-13.8,13.8-29,10-45.9c-0.5-2.4-0.2-3.6,2.4-4.4c14.5-4.4,25.3-13.7,33.9-25.9c0.6-0.9,0.8-2.6,2.3-2.1c1.2,0.4,1.2,1.9,1.4,3
	C539.3,354.8,541,363,540.6,371.4z"/>
<path id="X7B05C1M2Color9" fill="#FFFFFF" stroke="#000000" stroke-miterlimit="10" d="M94.2,381.3c-0.1,9.2,1.9,18.3,5.9,26.6
	c0.9,2,1.5,3.4-0.6,5.2c-7.3,6.4-12.7,14.7-15.6,24c-1.2,4-2.7,3.5-5.4,1.2c-24.7-21.4-34-48.5-30.3-80.5c0.5-3.6,1.1-7.2,2-10.8
	c0.3-1.2,0-3,1.7-3.2c1.3-0.1,1.8,1.4,2.4,2.3c5,7.1,10.8,13.5,18.3,18.2c5.1,3.2,10.3,6.4,16.3,7.3c5,0.8,6.6,3,5.4,7.7
	C94.2,380,94.2,380.7,94.2,381.3z"/>
<path id="XF9D886M2Gra1OT15" fill="#FFFFFF" stroke="#000000" stroke-miterlimit="10" d="M328.3,65.2c0,4.6-2.2,6-6.6,4.6
	c-10.6-3.5-21.4-6.3-31.5-11c-5.3-2.4-10.7-4.7-15.8-7.3c-5.6-2.9-6.4-5.1-4.2-10.8c3.4-9.2,6.8-18.4,10.4-27.5
	c2.4-6,5.4-12.2,12.4-13c7.2-0.9,11,5.1,14.8,10.2c10.1,13.6,14.5,29.3,18,45.5C326.5,59.2,327.5,62.5,328.3,65.2z"/>
<path id="XB6D21FM2Gra4OT28_1_" fill="#FFFFFF" stroke="#000000" stroke-miterlimit="10" d="M482.8,69c-3.7-0.9-7.7-1.9-11.7-3
	c-3.3-0.9-6.1-0.5-8.6,2.1c-2.9,3-6.1,5.7-9.1,8.5c-2,1.8-3.2,1.7-3.4-1.2c-0.3-4.1-0.7-8.3-0.8-12.4c0.1-3.2-1.8-6.2-4.8-7.4
	c-3.6-1.7-7-3.9-10.4-5.9c-0.8-0.5-2-0.7-2.1-1.9s1.2-1.6,2.1-1.8c12.5-2.5,18.9-10.1,19.4-22.9c0-1.1,0-2.6,1.5-2.8
	c1.3-0.2,1.9,1.2,2.6,2.1c2.8,3.1,5.6,6.1,8.1,9.4c1.8,2.3,3.7,2.9,6.5,2.5c4.1-0.6,8.2-1,12.4-1.4c1.1-0.1,2.4-0.7,3.1,0.7
	c0.5,1-0.2,2-0.9,2.7c-8.2,9.2-9,18.8-1.9,29.1C485.6,66.8,487.2,69.2,482.8,69z"/>
<path id="X95C61BM2Gra3OT26_1_" fill="#FFFFFF" stroke="#000000" stroke-miterlimit="10" d="M441.6,217.5c-3.3-0.5-6.6-1.2-9.8-2.1
	c-4.2-1.3-7.3-0.4-10.2,2.9c-2.4,2.7-5.2,5.1-7.8,7.7c-0.7,0.7-1.3,1.7-2.5,1.3s-1-1.6-1.1-2.5c-0.5-4.5-1-8.9-1.3-13.4
	c-0.1-2.4-1.6-4.5-3.8-5.3c-4-2-7.9-4.3-11.9-6.4c-2.7-1.4-2.2-2.4,0.2-3.5c4.1-1.8,8.2-3.7,12.3-5.4c2.3-0.7,3.8-2.8,4-5.1
	c0.5-4.3,1.6-8.5,2.5-12.7c0.2-1-0.3-2.6,1.2-2.9c1.1-0.2,1.6,0.9,2.3,1.6c2.7,2.9,5.6,5.8,8,8.9c1.9,2.6,5.1,3.9,8.3,3.1
	c3.9-0.7,7.9-1.1,11.9-1.7c2.9-0.4,3.3,0.8,2,3.1c-1.1,1.9-1.9,4-3.3,5.6c-5.4,6.2-4.9,12.4-0.4,18.8c1.1,1.9,2.1,3.8,2.9,5.8
	C446.2,217.4,445.4,218.2,441.6,217.5z"/>
<path id="XB6D21FM2Gra2OT28_1_" fill="#FFFFFF" stroke="#000000" stroke-miterlimit="10" d="M101.3,155.9c-0.7,1.4-1.6,2.6-2.6,3.8
	c-7.8,7.8-8.8,16.3-2.9,25.7c0.8,1.3,2.1,3.2,1,4.6c-1.3,1.7-3.2,0.2-4.5-0.4c-10-4.9-18.6-3.5-26,5.1c-1,1.1-2.2,3.2-3.9,2.5
	c-2.1-0.8-1.2-3.4-1-4.9c1.6-11.2-2.7-18.7-13.2-22.9c-1.2-0.5-3.2-1.1-3.1-2.9c0.2-1.8,2.3-1.8,3.6-2c11.5-1.9,17.7-8.4,18.6-20.1
	c0.1-1.2-0.1-3,1.4-3.5c1.9-0.6,2.7,1.4,3.2,2.5c5.3,10.9,14.1,13.8,25.4,11.4C98.6,154.5,100.3,154,101.3,155.9z"/>
<path id="XB6D21FM2Gra4OT28" fill="#FFFFFF" stroke="#000000" stroke-miterlimit="10" d="M143.6,41.7c3.6,0.7,7.8,1.1,11.8,2.3
	c3.4,1,5.7,0,8-2.4c3-3.2,6.1-6.2,9.1-9.3c1.8-1.9,3.1-1.4,2.9,1.1c-0.9,13.2,5.1,21.5,17.7,25.1c0.8,0.2,1.4,0.8,1.8,1.5
	c0.3,1.2-1,1.6-1.9,1.9c-11.8,3.5-19,10.4-18.1,23.7c0.1,1.1-0.1,2.6-1.5,2.8c-1.1,0.2-1.6-1-2.3-1.7c-1.6-1.4-3.1-3-4.5-4.7
	c-4.5-6.6-10.3-7.8-17.7-5.6c-2.7,0.8-6.6,2.7-8.4,0.4c-1.5-1.9,1.5-5.2,3.2-7.3c5.1-6.7,5.2-13.1,0.2-19.8c-1.1-1.7-2-3.5-2.8-5.3
	C140.1,42.4,140.6,41.4,143.6,41.7z"/>
<path id="XB6D21FM2Gra2OT28" fill="#FFFFFF" stroke="#000000" stroke-miterlimit="10" d="M536.4,217.9c-4.8,0.8-9.4,1.6-14,2.3
	c-1.1,0.2-2.5,0.7-3.3-0.3s0.3-2.1,0.8-3.1c0.1-0.2,0.2-0.3,0.2-0.4c7.6-9.3,7.8-18.7,0.3-28.2c-0.7-0.9-1.5-2.1-0.9-3.2
	c0.8-1.4,2.1-0.2,3.1-0.3c0.5,0,1,0,1.5,0.2c11,4.7,19.3,0.9,25.9-8.4c0.7-1,1.5-2.7,3-2.3c1.9,0.5,1.4,2.6,1.3,3.9
	c-0.6,11.8,4.6,19.3,16,22.6c1.2,0.4,3.5,0.6,3.3,2.4c-0.1,1.7-2.2,1.9-3.6,2.3c-10.4,3.1-17,9-16,20.8c-0.1,1.2-0.3,2.3-0.7,3.4
	c-0.5,2.3-1.3,2.4-2.8,0.7c-3.3-3.5-6.7-7-10-10.5C539.3,218.6,538.2,217.4,536.4,217.9z"/>
<path id="X95C61BM2Gra3OT26" fill="#FFFFFF" stroke="#000000" stroke-miterlimit="10" d="M188.4,265c-4.9,4.1-8.9,7.6-13.1,10.8
	c-2.1,1.3-3.3,3.9-2.8,6.4c0.5,4.3,0.8,8.6,1.2,12.9c0.1,0.9,0.6,2.1-0.7,2.6c-0.9,0.4-1.5-0.4-2.2-0.9c-3.6-2.3-7.4-4.5-10.9-7.1
	c-2.4-1.8-4.5-2.2-7.3-0.8c-3.7,1.8-7.6,3.3-11.5,4.8c-0.9,0.4-2.1,0.8-2.8,0.5c-1.3-0.8-0.4-2.1-0.1-3.2c0.3-1.6,0.8-3.2,1.4-4.8
	c4-8.3,1.4-14.8-5.1-20.6c-1.6-1.5-4.5-3.4-3.8-5.4c0.8-2.4,4.2-1.5,6.3-1.2c9.5,1.2,15.8-2.4,19.5-11.3c0.9-2.1,1.9-5.8,4.3-5.4
	c2.1,0.3,2.6,4,3.1,6.3c1.8,9.4,7.4,13.8,16.7,14.3C182.8,263.1,185,264.1,188.4,265z"/>
<path id="XFF99FFM1Gra5Co8_3_" fill="#FFFFFF" stroke="#000000" stroke-miterlimit="10" d="M74,544.1c-0.5,1-1.1,1.9-1.8,2.7
	c-3.8,4.4-4.3,9-1,14c0.8,1.2,2.4,2.9,1,4.4c-1.2,1.2-2.9,0-4.2-0.5c-5.8-2.2-10.3-0.8-13.9,4.1c-0.8,1-1.8,2.3-3.2,2
	c-1.7-0.4-1.3-2.2-1.2-3.4c0.5-6.6-2-11.1-8.5-13.3c-1.1-0.4-2.9-0.7-2.7-2.4c0.2-1.4,1.8-1.4,2.8-1.7c7.1-1.6,10.2-6.2,10.5-13.1
	c0-0.9-0.2-2.3,1.2-2.4c0.8,0.1,1.5,0.6,1.9,1.3c3.9,6.8,9.7,8.4,16.9,6.4C72.9,541.9,74.1,542.1,74,544.1z"/>
<path id="XFF99FFM1Gra5Co8_2_" fill="#FFFFFF" stroke="#000000" stroke-miterlimit="10" d="M506.3,565.1c0.1-0.6,0.2-1.2,0.4-1.8
	c4.3-6.4,4.7-12.4-0.9-18.4c-1.7-1.7-1.1-3.1,1.6-2.7c0.7,0,1.3,0.1,2,0.2c6.1,1.8,10.6-0.2,13.9-5.5c0.7-1.1,1.4-2.8,2.8-2.6
	c2,0.3,1.4,2.5,1.5,3.8c0.2,7,4.5,10.2,10.6,11.9c3,0.8,3.3,2.1,0.5,3.7c-0.3,0.2-0.6,0.4-0.8,0.5c-6.2,2.1-8.8,6.5-8.3,12.9
	c0.1,1.2,0.3,3-1.1,3.6c-1.5,0.7-2.4-1-3.1-2c-3.8-5.1-8.5-6.3-14.4-4C509.5,565.4,508,566.2,506.3,565.1z"/>
<path id="XFF00FFM1Color11_1_" fill="#FFFFFF" stroke="#000000" stroke-miterlimit="10" d="M32.9,523c1.9,4.1,3,7.7,7.6,8.1
	c1.6,0.1,1.3,1.9,0.1,2.5c-3,1.6-3.5,4.1-3.2,7.2c0.2,2.4-1.3,2.5-2.8,1.3c-2.3-1.8-4.5-2.5-7.3-1c-1.8,1-3.2,0.1-2.5-1.9
	c1.1-3,0.9-5.4-1.5-7.7c-1.3-1.3-0.8-2.7,1.1-2.4C28.7,529.7,30.6,526.8,32.9,523z"/>
<path id="XFF99FFM1Gra5Co8_1_" fill="#FFFFFF" stroke="#000000" stroke-miterlimit="10" d="M506.3,513.8c0.7,0.1,1.4,0.3,2,0.6
	c3.4,2.1,4.7-5.8,7.4-2c1.5,2.1,1.2,5.6,4.6,6.9c1.7,0.6,2.1,2,0.2,2.7c-3.1,1.2-5,2.9-5.2,6.5c-0.1,1.8-1.5,2.3-2.7,0.7
	c-1.9-2.5-3.9-3.7-7.2-2.9c-2.4,0.6-3.2-0.7-1.6-2.7c1.8-2.2,2.1-4.4,0.5-6.9C502.7,514,503.9,513.5,506.3,513.8z"/>
<path id="XFF99FFM1Gra5Co8" fill="#FFFFFF" stroke="#000000" stroke-miterlimit="10" d="M56.8,520.8c4.7-2,6.3-5.7,7-10.4
	c3.1,2.8,5.8,5.2,10,3.3c1.5-0.7,2,0.9,1.3,2.1c-1.7,2.7-1.8,5.1,0.2,7.8c1.7,2.2,0.4,3-1.9,2.7c-0.3,0-0.7,0-1-0.2
	c-3.8-2.7-6.1,6.4-8.2,2.2C62.4,524.7,60.2,522.8,56.8,520.8z"/>
<path id="XFF00FFM1Color11" fill="#FFFFFF" stroke="#000000" stroke-miterlimit="10" d="M556.5,530.6c-0.4,0.6-0.8,1.2-1.3,1.7
	c-1.8,1.8-2.5,3.8-1.2,6.2c0.4,0.8,1,1.9,0.1,2.7s-1.9,0.1-2.8-0.3c-0.5-0.1-1-0.3-1.4-0.5c-3.1-2.3-5.8,4.7-7.8,0.9
	c-1.2-2.3-0.3-5.7-3.4-7.5c-1.9-1.2-1.3-2.9,0.8-2.9c4.8,0,4.1-6.6,6.8-6.4s3.9,5.6,8.3,4.6C555.4,528.9,556.4,529,556.5,530.6z"/>
</svg>
