<?xml version="1.0" encoding="utf-8"?>
<!-- Generator: Adobe Illustrator 24.1.0, SVG Export Plug-In . SVG Version: 6.00 Build 0)  -->
<svg version="1.1" id="图层_1" xmlns="http://www.w3.org/2000/svg" xmlns:xlink="http://www.w3.org/1999/xlink" x="0px" y="0px"
	 viewBox="0 0 518.7 754.2" style="enable-background:new 0 0 518.7 754.2;" xml:space="preserve">
<style type="text/css">
	.st0{fill:#FFFFFF;stroke:#000000;stroke-miterlimit:10;}
</style>
<g>
	<path id="X2382D6M2Gra3OT14_2_" class="st0" d="M188.2,31.5c8.9-3.7,20.1,0.7,23.5,8.5c2.3,5.4,1.1,11.1-3.9,14.1
		c-10,5.9-20.7,8.2-32.1,4.6c-6.7-2.1-10.8-7-12.6-13.8c-4.4-15.3,3.7-31.4,18.6-37c25.5-9.5,68.3-2.7,87.6,36.1
		c8.1,16.5,9.9,33.7,7.3,51.6c-3.3,23-11.6,44.8-18.5,66.9c-1.9,5.9-3.4,12-4.6,18.1c4.6-8.9,8.9-17.8,14.9-25.9
		c15.4-20.9,35.2-34.7,61.8-35.6c20.7-0.7,40.1,4.2,55.7,19c10.2,9.6,14.6,22.1,16.1,35.7c0.9,9.1,0.7,18.2-0.7,27.3
		c-2.3-1.9-1.7-3.8-2-5.5c-4-22.6-13.5-42-34-53.9c-21.7-12.6-52.4-9.8-72.1,5.7c-25.2,19.7-35.3,48.6-27.2,77.6
		c7.7,27.4,40.7,42.1,65.9,29.4c13.9-7,23.3-25.6,20.7-40.7c-2.5-14.3-17.7-23.9-31.6-20c-8.5,2.4-11.4,8-8.3,16.3
		c0.3,0.7,0.5,1.5,0.7,2.4c-9.2-1-13.4-9.4-9.5-18.2c5.6-12.7,22-17.8,36.5-11.4c11.8,5.2,17.9,14.9,21.1,26.9
		c5.5,20.5-1.6,43-17.2,53.8c-14.5,10-30.7,11.9-47.4,8.2c-26.7-5.9-46.6-20.4-54.1-48c-3.8-13.9-1.4-27.8,1.5-41.6
		c3.9-18.2,11.1-35.7,14-54.1c4.4-27.9,1.1-54.6-14.2-78.9c-9.7-15.4-23.5-25.2-41.9-27.8c-7.1-1-14-0.2-20.3,3.5
		c-9.6,5.6-9.6,17.1-0.1,23c4.4,2.9,10.1,3.2,14.8,0.9c3.9-1.8,6.6-4.8,5.9-9.4c-0.6-4.3-3.8-6.5-7.9-7.2
		C192.8,31.7,190.9,31.7,188.2,31.5z"/>
	<path id="X2382D6M2Gra3OT14_1_" class="st0" d="M387.3,278.4c0,2.8,0,5.5,0,8.3c-0.3,16.8-0.9,33.6-0.8,50.5
		c0.1,13.7,1.7,27.2,6.5,40.2c1.5,3.9,3.4,7.5,5.1,11.4c-8-5.8-14.5-13.4-18.8-22.3c-6.5-13.6-7.8-28.2-6.6-43
		c1.3-16.4,3.3-32.8,4.9-49.2c2.7-27.5-0.2-54.2-12.5-79.4c-6.7-13.7-16.2-24.4-32.1-27.6c-19.8-4.1-38.6,6-43.1,23.8
		c-2.7,10.6-2.7,21.2,6.5,29.1c7.7,6.6,16.9,7.6,26.3,3.7c8.5-3.5,10.4-10.8,4.9-18.1c-1-1.3-2.1-2.5-3.2-3.9
		c7.4-1.3,14.2,4.2,15.5,12.4c3.3,19.9-14.6,37.5-34.9,34.3c-25.4-4.1-39.2-22.2-34.6-47.4c4.9-26.6,20-45.5,46.4-53.7
		c23.3-7.3,45.8,2.7,58.2,24.9c6.9,12.4,9,26,11.7,39.6c3.5,18,7,36,16.1,52.3c1.1,2,2.4,4,3.8,5.9c12.6,16.9,34.5,14.7,43.5-4.5
		c5.3-11.4,5.6-22.9-2.3-33.5c-4.1-5.6-10.5-7.8-16.2-6.2c-8.4,2.4-10.6,11-4.4,17.1c2.3,2.2,5,3.9,8,4.9c2.8,1.1,2.7,2.2,0.8,4.2
		c-5,5.7-13,7.5-20,4.7c-7.3-3-12.4-11.1-12.2-19.6c0.3-13.5,10-24,24.5-25.9c13.3-1.8,24.8,2.1,33.1,13.1
		c12.6,16.6,16.2,35.3,11.1,55.3c-5.9,23.4-25.9,34.4-50.4,28.2c-15-3.8-26.3-12.5-32.7-26.9C389,279.9,389,278.7,387.3,278.4z"/>
	<path id="X2382D6M2Gra3OT14" class="st0" d="M350.6,591.6c7.5-11.3,13.6-21.9,16.3-34.2c2.5-11.4-0.1-22.5-1.1-33.8
		c-1.1-12.3-2.8-24.5-0.8-36.9c1.4-8.8,4.9-16.3,13.6-20.1c8.3-3.6,15.7-1.9,21.5,5.1c11.1,13.2,6.8,35.1-8.3,43.2
		c-0.8,0.3-1.7,0.6-2.5,0.8c1.5-2.9,2.9-5.1,3.8-7.5c2.3-5.8,0.6-11.3-4-13.4c-5.4-2.5-11.4-0.3-14.3,5.4c-2.3,4.4-2.8,9.2-3,14.1
		c-0.6,15.1,2.4,29.8,5.4,44.5c0.9,4.5,3.1,2.7,5.2,1.2c15.8-10.7,26.9-25.1,33.8-42.9c10.8-28,8.9-56.5,3.7-85.2
		c-5.1-28.2-14.1-55.5-19.8-83.6c-2.4-11.8-4.1-23.6-3.9-35.7c0-1.4-0.8-3.3,0.8-4.1c1.3-0.6,2.3,1,3.3,1.8
		c30.1,23.8,60.3,13.8,80.6-11.3c2.3-2.8,4.4-5.7,7.4-9.6c1.4,9.7,2.7,18.2,3.9,26.7c2.9,22,5.2,44.1,3.1,66.3
		c-1.3,14-4,27.8-13,39.3c-9.7,12.3-22.8,14.1-33.4,4.7c-2.9-2.5-5.2-5.6-6.9-9.1c-6.8-14.1-5.8-28.2,1.4-41.8
		c4.7-8.9,13.7-11.8,22.6-8.1c8.2,3.4,12.1,12.7,8.7,20.9c-0.3,0.7-0.7,1.4-1.1,2.1c-2.9,5-7.4,6.1-11.6,2.2
		c-3.3-3.1-4.8-1.4-6.6,1.2c-4.3,6.2-3.2,15.3,2.4,20c5,4.2,13.1,3.5,18.6-1.9c6.4-6.3,8.6-14.5,10-23c3-18-1-33.8-15-46.2
		c-11-9.7-24.3-9.3-35.1,0.7c-14.4,13.4-17.5,30-13.9,48.5c3.1,15.5,8,30.6,11.6,46c5.1,21.4,7.8,43,4.3,64.9
		c-4.5,28.1-19.8,49.3-42.7,65.6c-13.1,9.3-27.4,16.4-42.2,22.6C352.7,591.3,351.7,591.5,350.6,591.6z"/>
	<path id="X6AA9FFM1Gra5OT29_9_" class="st0" d="M156.1,589c16.5-13.6,30.9-29.5,50.8-37.9c14.7-6.2,29.9-6.3,45-2
		c9.4,2.7,13.7,10.6,11.2,19.3c-1.7,5.6-6.9,9.4-12.8,9.2c-5.2-0.3-8.1-3.1-9.4-9.1c0.3-0.1,0.6-0.4,0.8-0.3c2.8,1,5.9,2.6,7.4-1.6
		c1.3-3.5-0.6-6.8-4.9-7.8c-6.6-1.7-13.2-1.9-19.6,0.9c-5.6,2.4-6.9,6.4-4.1,11.8c5,10,15.1,15.3,26.5,13.7
		c10.6-1.5,20.6-5.4,30.6-9c8.6-3.1,17.2-6.5,26.4-7.5c17.9-1.8,27.8,4.8,33.3,22.1c4.8,15-0.6,33.1-12.6,42.4
		c-6,4.7-13.7,6.6-21.2,5.2c-6.9-1.1-12-5.2-14.2-11.9c-2.4-7.4-1.5-14.5,3.8-20.6c2.3-2.5,5.5-3.9,8.9-3.9c0.8,0,1.7-0.2,2.2,0.7
		c0.5,0.9-0.3,1.5-0.7,2.2c-4.1,6.5-4.4,9.6-1.2,13c3.5,3.7,10,4.5,15.3,1.7c8.5-4.4,13.3-21.5,8.3-29.6c-2.5-3.9-6.4-5.2-10.7-5.4
		c-7.3-0.4-14.2,1.5-21.1,3.5c-8.5,2.5-16.8,5.2-25.2,8.1c-9.8,3.3-19.9,3.8-29.5,0.4C212.3,587.1,184.8,583.3,156.1,589z"/>
	<path id="X6AA9FFM1Gra5OT29_8_" class="st0" d="M372.5,587.9c1.6,8.6,1.8,15.7,0.5,22.9c-2.1,11.7-7.8,21.9-14.2,31.7
		c-3,4.6-6,9.2-9.2,13.7c-6.2,8.9-6.7,18.6-4,28.7c1.6,6,5.1,10.6,11.7,11.6c5.4,0.9,10.9-2.2,13.7-7.2c3.1-5.6,2.5-11.7-1.8-17.2
		c-1.6,0.5-1,1.9-1.2,2.9c-0.7,3.1-2.2,5.7-5.5,6.5c-3.5,0.8-6.2-1.2-8.1-3.8c-5-6.6-2.3-19,5-23.5c7-4.3,15.6-1.3,20.1,6.9
		c2.4,4.4,3.7,9.4,3.8,14.4c1,25.4-5,48.5-22.4,67.9c-4.2,4.8-9.5,8.6-15.5,11c7.7-24.6,3-47-9.1-68.4c-4.7-8.3-8-17.1-8.1-27
		c-0.1-13.8,4.3-25.3,14.9-34.5c8.5-7.4,17.3-14.7,23.1-24.7C368.1,596.3,369.9,592.8,372.5,587.9z"/>
	<path id="X6AA9FFM1Gra5OT29_7_" class="st0" d="M156.8,134.5c-3.5,3.1-6.1,2.4-8.5,0.8c-3.6-2.4-5.5-5.8-4.8-10.2
		c1.5-9.3,12.2-14.5,21-10.2c5.2,2.4,9.1,7,10.8,12.5c2.4,7.6,2.9,15.4,3.6,23.1c1.8,19.2,2.6,38.6,7.8,57.3
		c3.4,12.4,8.4,23.9,18.2,32.7c1.6,1.5,3.3,2.8,5.1,4c8,5,14.4,3,18-5.8c3.8-9.2,3-18.3-1.4-27.1c-3-6.1-8.2-8.2-13-5.9
		c-4.3,2.1-5.8,7.9-3.5,13.6c0.5,1.3,1.9,2.4,1.4,4.4c-2.5-0.8-4.6-2.6-5.8-5c-3.4-6-2.5-12,1.1-17.5s8.9-9.1,16-8
		c6.2,0.7,11.3,5.1,12.9,11.1c1.9,6.1,2.1,12.5,2,18.8c0,12.3-0.8,24.6,0.8,36.9c1.1,9.4,4.5,18.3,9.9,26c-5.3-0.7-9.4-2.5-13.5-4.2
		c-26.4-11.1-43-31.2-53.6-57.1c-8.2-19.8-12.2-41-11.6-62.4c0.2-8.1,0.2-16.3-1.6-24.4c-1.1-5-3.1-9.5-7-12.9
		c-2.2-1.9-4.6-3.6-7.6-1.9c-2.4,1.4-4.2,3.4-4,6.4C149.9,133.2,152.8,133.9,156.8,134.5z"/>
	<path id="X6AA9FFM1Gra5OT29_6_" class="st0" d="M384.3,69.7c4.8,19,19.4,26.1,36.5,30.1c16.2,3.8,32.9,4.8,49.2,8.4
		c11.5,2.5,22.5,6.1,32.1,13.1c7.2,5.3,12.6,12.5,15.8,20.8c0.6,1.5,2.2,3.8-1.7,3.3c-20-2.3-31.8,9-40.1,25.2
		c-5.3,10.3-7.9,21.7-7.7,33.2c0,1.1,0.7,2.5-0.7,3.2s-2.1-0.7-2.9-1.4c-7.6-6.5-11-15.4-12.9-24.8c-2.8-13-3-25.9,5.7-37.2
		c1.4-2,3.2-3.9,5.1-5.4c5.8-4.4,11.9-2.4,14,4.6c1.6,5.2-1.3,9.3-6.7,8.6c-4.7-0.6-3.8,1.8-2.8,4.3c1.4,3.2,4.1,4.1,7.4,3.6
		c13.2-1.9,19.4-17.1,11.2-27.4c-6.1-7.7-14.4-11.7-23.8-13.6c-8.5-1.8-17.2-1.5-25.9-1.8c-12.4-0.4-24.8-1.1-35-9.4
		C389.3,97.6,383.5,85.2,384.3,69.7z"/>
	<path id="X6AA9FFM1Gra5OT29_5_" class="st0" d="M256.3,14.1c8.1,1.8,16,4.4,23.5,7.9c18.1,8,34.8,18.2,49,32.2
		c4.1,4,6.4,8,3.7,13.7c-3.2,6.8-8.1,11.6-15.9,11.9c-6.1,0.2-11.5-2.3-14.6-8c-2.2-4-0.5-10.1,3-12.6c2.3-1.7,4.6-1.8,6.7,0.4
		c0.8,0.9,1.5,1.9,1.1,3.1c-0.5,1.4-1.7,0.4-2.5,0.3c-2.8-0.3-3.4,1.6-3.6,3.7c-0.3,3.1,1,5.7,3.8,7c3.8,1.8,7.2,0.3,10.3-1.9
		c1.8-1.3,2.9-3.3,3.2-5.5c1.4-8-6.6-18-15.4-19.2c-8.2-1.1-15.2,4.9-16.1,14C292,68,293.8,74.4,295,81c0.8,4.4,2.2,8.8,2,13.3
		c-0.1,3.2,0.9,3.1,3.5,1.9c18.4-9.3,39.1-12.9,59.6-10.3c2.8,0.3,5.4,1.7,7.1,4c5.6,6.7,10.8,13.7,15.6,21
		c-39.5-11.7-75.5-9.5-106.3,20.3c8.6-19.9,11.8-40.6,8.4-61.9S274.3,28.3,256.3,14.1z M287.5,51.5c2.8-4.8,5.7-7.8,9.6-9.4
		s2.4-2.7,0.1-4c-6.3-3.7-12.6-7.4-18.9-11.1c-0.8-0.5-1.7-1.3-2.8,0.3C280.4,34.4,283.8,42.4,287.5,51.5L287.5,51.5z"/>
	<path id="XE79CFFM2Gra1OT16_2_" class="st0" d="M220.6,224.2c1.7,4.4,0.3,7-3,8.8c-4.7,2.5-10.4,1.7-14.6-2.9
		c-13.3-14.2-15.9-25.8-6.7-42.4c4.1-7.5,10-13.7,14.8-20.7c13.2-19.4,9.5-44-8.9-58.3c-1.1-0.9-2-2.3-4.5-1.7
		c5.8,9.9,2.2,18.9-2.2,27.9c-2,4.1-3.2,8.4-1.6,13c0.8,2.2,2,3.9,4.5,4.1s4.4-1.2,5.8-3.3c0.9-1.3,0.9-3-0.1-4.2
		c-1.3-1.6-2.1-0.4-3.2,0.5c-2.1,1.7-3.4,0.4-4.1-1.6c-0.6-1.6-0.5-3.4,0.4-4.8c1.7-3.1,8.5-4.9,12.8-3.3c4.1,1.5,4.7,4.9,4,8.6
		c-1,5.5-3.7,10.3-6.7,14.9c-4.7,7.1-10.2,13.6-16.3,19.6c-0.8,0.8-1.5,2.7-3.1,1.8c-1.1-0.6-0.7-2.1-0.6-3.2
		c0.4-13.5,0.8-27,1.3-40.4c0.3-8.7,0.2-17.3-0.4-26c-0.6-8.5-2.4-16.9-5.2-25c32.2,6.9,61.2,63.5,53.7,103.7
		c-0.3,0.1-0.8,0.2-0.9,0.1c-5.7-6.3-12.7-7.9-20.4-4.6c-9.3,4-15.7,10.8-17.1,21.1c-1.3,9.1,1.6,16.8,9.7,21.9
		C213.1,231.1,216.9,230.1,220.6,224.2z"/>
	<path id="XE79CFFM2Gra1OT16_1_" class="st0" d="M167.8,2c-11.5,0.9-22.2,3.1-33,8.2c6.9,4.6,13.1,9.2,10.4,18.3
		c-1.5,5-4.8,8.5-10.2,9.1c-4.9,0.6-7.9-2.3-10.7-7.2c3.4,1.1,6,2.4,8.8,0.9c5.1-2.8,5.5-9.8,0.7-13.9c-9-7.5-26.9-6.9-35.3,1.3
		c-6.6,6.4-5,15.8,3.9,21.4c5.2,3.3,11.1,4.3,17.1,4.7c12.1,0.8,23.8,3,34.4,9.2c13.4,7.8,19,19.5,17.9,34.7
		c-0.2,3.4-0.8,6.8-1.2,10.5c-2.4-0.7-2.1-2.4-2.6-3.6c-5.6-15.9-14.5-29-31.3-34.6c-9-3-18.6-3.6-28-5c-8.4-1.2-16.8-2.6-24.8-5.5
		c-13-4.7-15.2-13.2-6.7-24.3C87.4,13,101,6.1,116.8,2.8C132.4-0.5,148.2-0.7,164,1C165.3,1.3,166.5,1.6,167.8,2z"/>
	<path id="X6AA9FFM1Gra5OT29_4_" class="st0" d="M372.7,383.5c7.4,3.7,13.3,8,17.8,13.8c26.2,34.5,33.7,72.7,22,114.5
		c-1.6,6.2-4.8,11.8-9.2,16.4c-5,5.2-12.9,6.5-19.2,3.1c-7.4-4.2-9-13.2-3.7-20.3c1,1,0.4,2.2,0.3,3.2c-0.2,4.6,1.7,8.2,5.8,10.2
		c4.2,2.1,8.1,0.8,11.5-2.1c14-11.7,19.7-40,11.2-56.1c-5.6-10.5-16.2-14.4-28.1-10.1c-5.1,1.8-5,1.8-4.4-3.5
		c2.2-19.2,0.4-38.2-2.2-57.2C374,391.8,373.3,388.1,372.7,383.5z"/>
	<path id="XE79CFFM2Gra1OT16" class="st0" d="M220.1,33.4c9.4,8.6,14.9,18.9,19.1,30c11.9,31.6,13.3,63.9,5.5,96.7
		c-0.3,1.4-0.3,3-2.3,4c0.2-10.7-0.8-21.3-3.1-31.8c-5.2-23.4-17.6-41.4-39.1-52.7c-5.5-2.9-11-5.5-16.5-8.4
		c-2.3-1.2-4.9-2.1-6.7-4.4c1-1.4,2.1-0.5,3.1-0.3c7.2,1.6,14.6,1.8,21.8,0.5c14.7-2.5,21.8-13.5,18.5-28.1
		C220.1,37.4,218.9,35.9,220.1,33.4z"/>
	<path id="XE79CFFM2Gra2OT16" class="st0" d="M62.7,40.3c-0.5,9.4-6,15.5-13.3,20.4c-7.4,5-15.8,8.7-22.2,15.2
		c-0.2,0.2-0.5,0.4-0.8,0.7c-2.9,3.1-6.9,6.1-5.6,11s6,5.8,10.2,6.8c15.8,3.8,31.8,3,47.7,2.4c10.4-0.4,20.6-1,30.7,2.3
		c10.3,3.4,18.4,9.4,22.6,19.6c3.8,9-1.2,17.3-10,17c-1.9,0-3.7-0.6-5.1-1.8c-1.2-1.1-2.7-2.4-2.5-4.1c0.2-2,2.3-1.4,3.6-1.9
		c6.6-2.3,7.9-6.9,3-12.7c-7.2-8.4-16.8-12.3-27.8-12.6c-12.7-0.3-25.2,2.2-37.8,3.6c-12.2,1.4-24.5,3-36.8,0.8
		c-5-0.9-9.7-2.6-13.5-6.1c-7-6.4-6.9-15.5,0.1-21.8c4.8-4.3,10.5-7,16.6-9c9.9-3.2,19.2-7.4,27.4-14C54.8,51.7,59.3,46.3,62.7,40.3
		z"/>
	<path id="X6AA9FFM1Gra5OT29_3_" class="st0" d="M367.9,245.9c0.3,5.3,0.1,10.6-0.5,15.9c-2.7,21.8-5.9,43.6-7,65.6
		c-0.5,11.4,0.1,22.9,1.6,34.2c-4.4-5.5-9-10.9-13.3-16.4c-12.4-15.7-24.7-31.4-33.9-49.3c-0.4-0.7-0.7-1.5-1.1-2.2
		c-3.9-8.3-3.9-8.2,5.2-9.4c22.5-3,38.8-14.1,46.9-35.9c0.2-0.6,0.5-1.2,0.9-1.8C366.8,246.2,367.2,246.1,367.9,245.9z M351.5,333.7
		c0.2-18.6,3.7-36.7,7.1-56.2c-9.8,8.5-20.5,11.9-31.7,13.9c-2.5,0.5-2.5,1.7-1.2,3.5C334.9,307.3,343.5,320.1,351.5,333.7
		L351.5,333.7z"/>
	<path id="X6AA9FFM1Gra5OT29_2_" class="st0" d="M392.9,120.9c17.4,1.3,31.1,15.7,33.1,34.4c1,10.3-0.1,20.7-3.2,30.6
		c-1.1,3.7,0,4.1,3.3,4.2c11.6,0.4,21,5.6,28.7,14.2c1.7,1.9,1.6,2,2.3,5.2c-17.6-9.4-35-14-52,2.2c2.7-10.8,5.5-20.8,7.6-31
		c2.9-13.9,2.9-27.8-3.8-40.9c-3.2-5.9-7.4-11.1-12.4-15.5C395.3,123.1,394.3,122.1,392.9,120.9z"/>
	<path id="X6AA9FFM1Gra5OT29_1_" class="st0" d="M439,428.3c12.9,9.8,25,18.4,40.9,7.6c-7.3,21-18.2,39.3-29.9,57.5
		C450.3,471.3,444.5,450.4,439,428.3z"/>
	<path id="X2382D6M2Gra2OT14" class="st0" d="M58.7,59.7c2.9,12.1,12.6,14.1,22.1,16.1c4.5,0.9,9.1,1.2,13.7,1.8
		c0.2,1.8-1.2,1.9-2.2,2.4c-11.9,5.7-24.6,8-37.5,9.4c-6.5,0.7-13.1-0.9-18.6-4.4c-4.3-2.6-4.4-5.1-0.3-7.9
		C43.6,71.8,51.7,66.9,58.7,59.7z"/>
	<path id="X1100AAM2Gra2OT6" class="st0" d="M120.9,76.2c6.1-0.5,9.6,1.2,10.9,5.9c1.2,4.3-1.4,8.1-6.3,9.9
		c-10,3.8-21.5-4.7-20.8-15.4c0.2-4.7,3.6-8.6,8.2-9.3c6.9-1.4,13.4,0.2,19.3,3.4c12.4,6.4,22.3,16.8,28.1,29.4
		c0.4,1,0.6,1.9,0.9,2.9c-2.4-0.7-3.1-2.5-4.1-3.7c-6.7-8.1-13.6-15.9-22.2-22.2c-3.2-2.5-6.8-4.2-10.8-5.1
		c-3.2-0.9-6.5,0.5-8.2,3.3c-1.9,3-1,5.8,1.5,8.1c1.7,1.6,3.6,1.4,5.4-0.2C125.9,80.6,123.6,78.7,120.9,76.2z"/>
	<path id="X6AA9FFM1Gra5OT29" class="st0" d="M358.8,79.5c-8.8-1.8-17.5-1.3-27.3-0.1c3.8-5,7.1-9.4,7-15.1c0-1.3,1.1-1.6,2.1-0.8
		C347,68.3,353.5,73.1,358.8,79.5z"/>
</g>
</svg>
