<?xml version="1.0" encoding="utf-8"?>
<!-- Generator: Adobe Illustrator 24.1.0, SVG Export Plug-In . SVG Version: 6.00 Build 0)  -->
<svg version="1.1" id="图层_1" xmlns="http://www.w3.org/2000/svg" xmlns:xlink="http://www.w3.org/1999/xlink" x="0px" y="0px"
	 viewBox="0 0 460 797.7" style="enable-background:new 0 0 460 797.7;" xml:space="preserve">
<style type="text/css">
	.st0{fill:#FFFFFF;stroke:#000000;stroke-miterlimit:10;}
</style>
<path id="XFFCC33M2Gra5Co2_7_" class="st0" d="M305.6,797.7c-1.7-6.3-3.2-12.5-2.8-19.1c0.7-10.5,6.4-18,16.2-21.7
	c6.3-2.4,13.3-3.7,17-10.4c0.4-0.6,0.9-1.1,1.6-0.8c1.1,0.4,1.2,1.5,1.3,2.5c0.6,5.4,1.5,10.9,1.7,16.3c0.4,11.1,2.1,22.1,3,33.2
	H305.6z"/>
<path id="XFFCC33M2Gra5Co2_6_" class="st0" d="M235.6,797.7c0.3-3.1-1.3-5.8-2.2-8.6c-0.6-2-0.8-3.8,1.9-4c8.3-0.8,26,4.3,30.3,12.6
	L235.6,797.7z"/>
<path id="XFFCC33M2Gra5Co2_5_" class="st0" d="M195.6,797.7c-0.1-4-0.2-8-0.2-12c0-1.3,0.6-3.5,2-1.8c3.7,4.6,9.3,7.8,11.2,13.8
	H195.6z"/>
<path id="XFFCC33M2Gra5Co2_4_" class="st0" d="M243.4,622.9c0,4.5-0.8,9-2.5,13.2c-3.3,8.6-2.8,17.3-1.4,26.1
	c1.2,7.3,1.6,14.5-0.4,21.8c-1.3,4.8-4.1,8.3-7.4,11.6c-2,2-3.9,1.8-5.4-0.4c-5.4-7.8-13.6-11-22.1-13.6c-8.1-2.5-8.1-2.5-8.6-10.8
	c-0.9-15.6-0.9-31.3-0.7-47c0.1-5.3,1.7-7.7,7.1-8.7c8.5-1.5,16.8-4.2,25.3-5.9C237.1,607.3,243.4,612.9,243.4,622.9z"/>
<path id="XFFCC33M2Gra5Co2_3_" class="st0" d="M264.6,616.9c11.3-0.1,20.8,4.2,28.8,12c6.6,6.7,12.1,14.3,16.3,22.6
	c2.2,4.2,2.7,8.4-0.2,12.2c-10.6,14.3-22.3,27.1-41.2,30.1c-3.4,0.7-7,0.4-10.3-0.6c-10.4-3.4-13.2-10.7-7.7-20.1
	c9-15.7,11.3-32.2,5.2-49.5c-1.5-4.2-0.7-5.9,3.6-6.1C261,617.5,262.8,617.1,264.6,616.9z"/>
<path id="XFFCC33M2Gra8Co2_4_" class="st0" d="M246.1,581c-1-26.3,12.2-46.4,36.1-54.8c6.4-2.2,8.1-1.6,11.2,4.2
	c9.4,17.7,10.6,35.6-0.1,53.1c-7.3,12-18,19.9-31.9,22.9c-6.2,1.3-10.8-1.7-12.5-7.8c-0.9-2.5-1.6-5.1-2.1-7.7
	C246.3,587.7,246.3,584.4,246.1,581z"/>
<path id="XFFCC33M2Gra5Co2_2_" class="st0" d="M256.4,779c-7.1,0.3-13.8-1.8-20.3-5c-3.1-1.6-3.9-3.1-0.8-5.8
	c16.4-14,18.9-35,6.6-53.3c-3-4.4-2.6-6.5,2.2-8.4c5.9-2.3,11.7-4.7,18.2-5.1c12.2-0.6,20,5.4,22.3,17.4c0.8,4.4,1.9,8.8,3.1,13.1
	c1.5,5.4,4.2,10.2,9.2,13.1c2.1,1.2,2.4,2.5,1.6,4.8C292.6,767.5,276.1,779,256.4,779z"/>
<path id="XFFCC33M2Gra8Co2_3_" class="st0" d="M304.8,481.8c-0.1,19.8-16.2,39.3-35.5,43.7c-10.6,2.6-21.7,1.6-31.7-2.7
	c-2.2-0.9-4-2.1-1.4-4.1c9.6-7.5,12.5-18.6,15.9-29.3c2.5-7.8,4.8-15.6,9.5-22.4c6.1-8.8,14.2-13.4,25.2-11.3
	c10.8,2,17.8,11.2,18,23.7C304.8,480.1,304.8,481,304.8,481.8z"/>
<path id="X1100AAM2Gra5OT6" class="st0" d="M245.2,268.8c-7.1,0.1-14.1-2-20-6c-5.3-3.4-10.4-7.3-17.1-7.7c-2.3-0.1-2.6-1.7-1.8-3.6
	c6.8-15.7,16.6-28.4,34.1-33.3c2.4-0.7,5.2-1.3,7.4-0.6c6.6,2.2,12.8-0.1,19.2-0.7c2.1-0.2,3.8-0.4,5.2,1.6
	c4.2,5.7,10.1,7.3,16.8,6.2c3-0.5,5-0.8,3.6,3.5c-1,3,0.8,4.1,3.6,3.1c1.7-0.7,3.3-1.6,4.8-2.5c1.1-0.6,2.2-2.1,3.5-0.8
	c1.1,1.1,0.2,2.5-0.3,3.7c-2.8,6.7-13,11.9-19.9,10.2c-1.6-0.4-3.3-1.5-4.1,0.9c-0.6,2,0.7,3.1,2.3,3.9c0.9,0.4,1.9,0.8,2.7,1.2
	c1.7,1.1,2.2,2.3-0.2,3c-5.4,1.7-9.4,5.5-13.8,8.8C263.8,265.5,255.3,269.1,245.2,268.8z M258.2,253.5c-0.7-2.6-1.3-4.6-1.8-6.7
	c-1-3.7-3.5-5.5-7-4.5c-3.2,0.9-7.4,1.8-6.9,6.5s4.4,5.1,8,4.7C252.9,253.2,255.4,252.4,258.2,253.5L258.2,253.5z"/>
<path id="XFFFF00M2Gra3Co1_1_" class="st0" d="M257.5,93.4c-21.8-18.9-30.5-43.9-33.6-71.5c2.1,0.2,1.7,3.9,4.3,3.2
	c1.2-0.3,1.2-1.4,1.2-2.5c-0.1-2.1-1.1-4.2-0.4-6.5c2.1-0.3,1.6,3.9,3.9,2.5c1.8-1.1,0.8-3.3,1-5.1s0.2-3.2,0.3-5.1
	c2.4,0.1,2.8,2,3.7,3.2c1.3,1.5,0.5,6.3,5,3c1.2-0.9,1.6,1.6,2.2,2.7s0.5,3,2.4,2.6c1.4-0.3,1.2-1.8,1.4-2.9
	c0.6-3.8,1.7-7.4,3.3-10.9c2.1,2.5,1.2,4.9,1.5,7c0.1,1.1,0.1,2.5,1.4,2.9s2.1-0.7,2.8-1.6c0.7-1.1,1.5-2.2,2.3-3.2
	c1.4-1.6,2.7-2,3.3,0.8c0.8,3.8,2.2,2.5,3.6,0.3c0.2-0.3,0.3-0.6,0.6-0.8c1.1-1.1,1.6-3.5,3.6-2.7c1.6,0.6,0.9,2.6,0.9,4.1
	c0,2.7-0.1,5.3-0.1,8c0,1-0.1,2.2,1.1,2.5s1.8-0.6,2.5-1.4c0.4-0.5,0.7-1.1,1-1.7c1-1.7,2.4-4,4.3-3.6c2.5,0.6,0.9,3,0.8,4.7
	c-0.1,2.8,1.4,2.6,3.2,1.6c1.3-0.7,2.6-1.9,4.1-0.6s0.4,2.7-0.3,4s-2,2.7-1.1,4.1c1.1,1.8,2.7,0.3,4,0c1-0.2,2.1-0.3,2.7,0.6
	c1,1.5,0.3,2.9-0.5,4.2c-1.5,2.4-3.2,4.5,1.9,4.3c2.7-0.1,2.9,1.7,1.4,3.7c-5.7,7.2-11.3,14.4-17,21.6c-0.7,0.9-1.4,2.1-2.8,1.7
	c-1.7-0.6-1.2-2.2-1-3.4c0.6-3.3-0.1-6.6-1.8-9.5c-4.3-6.9-12.1-6.8-15.9,0.4c-5.2,10.1-5.4,20.8-3.2,31.7
	C256,88.4,256.8,90.9,257.5,93.4z"/>
<path id="XF9D886M2Gra2OT15_2_" class="st0" d="M62.8,181.3c-10.2-3.8-17.5-9.9-23.7-17.1c-10.8-12.6-16.9-27.7-21.5-43.5
	c-2.9-9.9-6.7-19.5-9.2-29.5s-5.7-19.5-8-29.3c-1.6-7,2.3-12,10-13.1c8.1-1.2,15.9,0.8,23.7,2.7c29.5,7.1,52.8,24.6,74.9,44.2
	c7,6.2,14.4,11.9,18.9,20.3c3.7,7,4,14,0.2,20.9c-2.5,4.4-5.3,8.5-8.5,12.3c-2.8,3.4-5.3,4-8.5,0.3c-4.2-4.9-6.7-10.6-8.5-16.7
	c-2.6-8.8-3.4-18-6-26.8C92.1,91.5,82.1,81.6,70,73.5c-12.6-8.4-27-12.8-41.1-17.9c-2.4-0.8-4.9-1.1-7.4-0.9
	c-6.7,0.4-10.7,4.6-9.7,11.1C16.1,96.2,21.9,126,38,152.8c5.1,8.6,11.6,16.3,19.3,22.7C59,176.9,61,178.2,62.8,181.3z"/>
<path id="XF9D886M2Gra2OT15_1_" class="st0" d="M460,105.8c-2.6,26.9-7.9,52.9-23.5,75.5c-11.6,16.7-27.4,27.6-47.6,31.2
	c-16.3,2.9-29.7,9.8-39.6,23.5c-5,6.8-11.1,12.9-19.3,16.3c-2,0.8-4.1,1.4-6.2,1.7c-3.5,0.6-4.5-0.9-3.6-4.3
	c3.7-15.2,5.1-30.9,4-46.6c-0.2-3.3,1.4-3.9,3.9-3.3c9.1,2.1,18.5,2.4,27.8,3.2c35.4,2.9,63.1-9.8,82.1-40.3
	C447,148,453,132.1,457,115.3C457.7,112.1,459,109,460,105.8z"/>
<path id="XFFCC33M2Gra7Co2_8_" class="st0" d="M238.5,473.9c0.4,7-0.5,14.1-2.9,20.7c-4.7,12.9-16.4,17.5-28.5,11.2
	c-1-0.5-2.1-1-3.2-1.5c-7.2-3.7-12.4-7.9-12.3-17.6c0.1-10.1-1-20.2,0-30.4c0.6-6.2,2.8-11.1,7.7-15.1c3.6-2.9,7.6-5.4,10-9.7
	c0.7-1.3,2.2-2,3.1-0.3c2.5,4.6,7,7,11,9.9C234.7,449.5,239.8,460.5,238.5,473.9z"/>
<path id="XF9D886M2Gra2OT15" class="st0" d="M450.8,85.5c-7.8-0.8-15.7-1.4-23.6-1.6c-16.9-0.5-32.7,2.8-47.3,11.6
	c-13.9,8.4-20.9,21.4-25.4,36.3c-5.7,19.1-14.8,35.6-33.3,45.2c-3.8,2-5,1.6-6-2.8c-1.5-6.7-5.2-12.6-9.1-18.2
	c-1.2-1.8-2-3.2,0.5-4.3c11.4-5.2,17-15.8,22.5-25.9c7.5-13.8,16.6-25.7,30.4-33.6c19.9-11.4,41.6-14.6,64.1-12.3
	C432.7,80.9,442.1,81.1,450.8,85.5z"/>
<path id="XFFCC33M2Gra7Co2_7_" class="st0" d="M193.2,512.2c6.4,11,17.6,11.6,28.2,13.3c6.5,1,12.7,2.7,18,6.8
	c3.4,2.6,4.5,5.4,1.8,9.3c-9.2,13.2-11,28.3-10.3,43.9c0.3,6.2,0.3,6.4-6.1,6.5c-8,0.2-16,0.2-24,0.4c-3.5,0.1-5-1.2-5-5
	c-0.3-24-2.7-47.8-3.8-71.8C191.7,514.4,192.2,513,193.2,512.2z"/>
<path id="XFFFF00M2Gra3Co1" class="st0" d="M125.3,8.5c3.1,2.1,4.5,5.3,7.4,1.7c1.5-1.8,2.8,0.2,3.2,2c0.8,3.1,1.1,6.5,4.2,9.9
	c0.8-8-0.2-15.1,1.2-21.9l1.3-0.2c0.8,4,1.5,8,2.2,12.1c0.3,1.6,0.3,3.3,0.5,5c0.2,1.5,0.1,3.3,1.7,3.9c1.9,0.6,2.4-1.3,3.2-2.5
	c0.9-1.4,1.7-3.3,3.8-2.1c4.6,2.6,5.9,0.2,6.5-3.8c0.1-1.1,0.4-2.3,1.7-3c1.7,2.1,1.6,4.6,1.7,7.1c0,1.5-0.4,3.2,1.2,4
	c1.4,0.7,2.4-0.6,3.4-1.5c1-0.8,1.8-1.7,3.1-0.8s0.9,2,0.9,3.2c-0.5,6.8-1.1,13.6-1.6,20.4c-0.2,3.4-1.3,3.6-3.9,1.6
	c-6.6-5.1-12.4-4.7-18.6,1.1c-5.1,4.8-7.1,11.2-9,17.6c-2.4,7.4-3.7,15.2-3.9,23c0,1.1,0.3,2.6-1,3.1c-1.6,0.7-2.4-0.7-3.2-1.7
	c-10.4-13.7-20.9-27.5-31.3-41.3c-0.6-0.6-0.9-1.5-0.6-2.3c0.6-1.2,1.6-0.7,2.6-0.5c3.2,0.7,4-0.3,1.9-3c-1.4-1.9-1.3-3.3,1.4-2.6
	c4.2,1,3.2-1.5,2.5-3.6c-0.6-1.9-1.7-3.6-2.3-5.5c-0.4-1.3-1.7-3.2-0.2-4.1c1.9-1.1,2.8,1,3.9,2.2c1.2,1.3,2.4,2.8,3.7,4
	c0.8,0.8,1.9,1.7,3.1,0.8c1-0.7,0.2-1.8,0-2.8c-0.1-0.5-0.3-0.9-0.4-1.4c-0.3-1.4-1.4-3.2,0.4-4c2-0.9,2.3,1.2,3.1,2.4
	c1.2,1.8,2.4,3.6,3.6,5.4c0.8,1.2,1.6,2.9,3.4,2c1.6-0.7,0.9-2.3,0.7-3.6C126.5,22.3,126,16.1,125.3,8.5z"/>
<path id="XFFCC33M2Gra5Co2_1_" class="st0" d="M195.4,739.7c-0.6-12-0.2-23.9-1.4-35.9c-0.6-5.6,1.6-7.6,7-6.2
	c17.8,4.4,29.8,16.1,36.9,32.3c3.7,8.3-1.5,15.7-7.8,21.6c-3,2.8-6.5,5.1-8.8,8.8c-4.5,7-4.2,14.8-3.9,22.7c0,1.5,0.9,3.2-0.4,4.2
	c-1.6,1.3-3.1-0.2-4.6-0.9c-6.5-3.2-12.7-6.6-15.6-13.9c-0.8-1.8-1.3-3.7-1.4-5.7C195.4,757.7,195.4,748.7,195.4,739.7z"/>
<path id="XFFCC33M2Gra4Co2_2_" class="st0" d="M263.8,399.7c-4.7-0.1-9.3-0.5-12.9-4.2c-6.7-6.6-6.9-14,0.2-21
	c11.5-11.5,23.4-22.7,35.1-34c2.9-2.8,5.9-5.4,8.5-8.4c3.2-3.6,5.8-2.8,8.7,0.3c4.8,5.3,6,11.9,4.4,18.2
	c-4.4,18.3-12,34.9-29.2,45.1C274.1,398.4,269,399.8,263.8,399.7z"/>
<path id="XA34F1FM2Color24_10_" class="st0" d="M79.2,327.2c-1.6-2.1-0.9-4-1.1-5.8c-0.6-5.8-3.3-10.2-8.6-12.6
	c-3.9-1.8-3.8-2.9-0.7-5.8c21.6-20,42.9-40.4,58.4-65.8c5.3-8.7,10.7-17.6,12.8-27.9c1-4.2,1-8.7-0.2-12.9c-0.9-3.1-2.4-6.1-5.9-6.9
	c-3.5-0.8-5.8,1.7-8.1,3.9c-3.5,3.4-4.8,8.2-7.4,12.4c-0.6-0.7-1.1-1-1.2-1.4c-2.1-7.8,4.8-21.3,12.2-24.1
	c8.8-3.3,16.9,1.4,19.2,11.6c2.6,11.6,0.3,22.7-3.8,33.7c-8.5,22.4-25.9,38-41.7,54.9c-4.1,4.4-8.4,8.6-10.7,14.3
	c-0.9,2.1-1.9,4.6,0.3,6.5c2,1.7,4.1,0.3,6-0.8c10.8-6.1,21.1-4.9,30.9,2.1c1.7,1.2,3.5,2.5,3.5,5.5
	C106.9,291.7,92.9,309.2,79.2,327.2z"/>
<path id="XFFCC33M2Gra5Co2" class="st0" d="M335.7,717.3c0.5,9.9-0.4,16.2-5.2,21.4c-7.1,7.8-18.2,7.8-24.6-0.6
	c-7.3-9.7-9.3-20.8-7.1-32.6c2.1-11.4,8.1-20.5,17-27.8c3-2.4,5.5-5.3,8.3-7.9c1.1-1.1,1.6-3.4,3.7-2.7s2,2.9,2.2,4.6
	c1.2,7.5,2.4,15.1,3.3,22.7C334.4,703,335.1,711.8,335.7,717.3z"/>
<path id="XDAA6B7M2Gra8OT11_2_" class="st0" d="M330.3,187.7c-1.8-0.2-3.7-0.6-5.5-1.1c-1.7-0.6-3.9-1.5-3.2-3.7
	c0.8-2.7,3.1-2.1,5-1.2c3.4,1.6,5.8,1.5,6.1-3.1c0-0.6,0.9-1,1.1-1.6c1.3-3.2,4.1-5,6.2-7.4c5.6-6.7,10.1-14.1,13.5-22.1
	c0.7-1.3,1.7-2.5,3-3.2c4.8-3.1,2-9.7,6-13.2c0.3-0.3-2.4-2-1.3-4.5c1.9-4.5,5.2-6.5,9.6-7c2.2-0.2,3.4-0.7,3.5-3.1s2-3.7,4.3-4.2
	c7.4-1.4,14.7-3,22.1-4c4.2-0.6,9-1.3,11.3,3.8c1.7,3.7-1.3,8.5-6.8,12c-11.6,7.5-22.6,15.9-31.4,26.8c-6.5,8.2-12.7,16.7-19.4,24.7
	C348.4,182.8,340.3,186.7,330.3,187.7z"/>
<path id="XFFCC33M2Gra7Co2_6_" class="st0" d="M195.9,190c2.5,3.4,1.7,6.1,0.7,9c-2.2,6.4-6.4,11.6-9.5,17.5
	c-4.9,9.4-4.4,18.9-1,28.5c1.3,3.8,2.9,7.5,4.3,11.2c0.9,2.2,1.4,4.1-2.2,3.3c-3.4-0.8-4.1,1.5-4.3,4c0,1.3,0.1,2.7,0.4,4
	c0.9,7.5,0.9,7.5-6,5.1c-4.8-1.6-10.8,1.2-13.3,7c-3,6.7-5.5,13.6-8.1,20.4c-2.8,7.3-5.5,14.6-8.3,21.9c-0.5,1.2-1,2.6-2.7,2.4
	c-1-0.1-1.3-1-1.4-1.8c-0.6-10.1-4.1-19.8-2.6-30.2c1.5-9.9,5.7-17.6,13.6-23.4c1.6-1.2,3.3-2.3,4.9-3.5c8-5.8,12.2-13.2,9.1-23.2
	c-3.3-10.6,0.9-18.8,7.9-26.2c5.2-5.5,11.5-10.2,15.1-17.1C193.8,196.2,194.5,193.4,195.9,190z"/>
<path id="XFFCC33M2Gra4Co2_1_" class="st0" d="M213.1,375.8c1.2,0,1.6,0,1.9,0c9.9-0.9,17.6,2,23,11.1c3.5,5.8,8.4,10.8,12.6,16.1
	s3.8,9.5-1.1,14c-3.7,3.4-8.1,6-12.8,7.7c-7.6,2.6-16.2-0.3-21.8-7.2s-8.6-15-12-22.9c-2-4.7-3.7-9.6-7.5-13.4
	c-2.5-2.5-1.7-4.1,1.7-4.4C202.6,376.4,208.3,375.5,213.1,375.8z"/>
<path id="XFFCC33M2Gra7Co2_5_" class="st0" d="M298.3,404.5c-0.5,11.3-2.5,22.2-10,31.2c-4.9,5.9-11.7,9.2-17.9,13.4
	c-5.9,4-12,7.9-16,14.1c-1.6,2.6-3.1,2-4.4-0.3c-4-6.9-7.9-13.8-12-20.7c-1.5-2.5-0.3-3.6,1.8-4.7c19.2-10.6,36.1-24.2,52-39.2
	c0.7-0.7,1.4-1.4,2.1-2.2c0.9-0.9,1.2-2.8,2.8-2.3c2,0.6,1.7,2.6,1.7,4.2C298.3,400.2,298.3,402.3,298.3,404.5z"/>
<path id="XFFCC33M2Gra7Co2_4_" class="st0" d="M219,138.6c0-2.8-0.1-5.7,0-8.5c0.1-1.3,0.1-3,1.7-3.2c1.9-0.3,1.8,1.7,2,2.8
	c1.1,9.7,5.6,18.1,10.8,26c4.1,6.3,8.8,12.1,15.2,16.3c3.5,2.2,7,2.3,10.1-0.3s2.5-6.1,0.8-9.5c-2.6-5.1-6.5-9.3-9.6-13.9
	c-2-2.7-3.7-5.6-4.9-8.6c-1.9-5.4,1.1-9.5,6.8-9c2.5,0.2,4.9,0.7,7.3,1.7c9.3,3.9,17.8,9.1,24.1,17.1c1.9,2.5,3.7,4.4-1.7,5.2
	c-9.8,1.5-13.6,10.4-13.6,20.9c0,1,0.3,2,0.4,3c0.6,6.2,0.4,6.5-5.5,5.6c-4.4-0.6-8.6,0.3-12.9,0.6c-9.9,0.8-17.4-2.7-22.3-11.7
	C222.4,163.4,219.7,154,219,138.6z"/>
<path id="XFF9900M1Color3_4_" class="st0" d="M97.2,353.2c-13,0.7-20.2-11.5-12.6-23.9c5.3-8.7,12.3-15.2,22.6-17.5
	c10-2.2,19.7,1.5,23,8.7c3.6,7.9,0,19.5-8.3,25.1C114.9,350.3,107.3,353.6,97.2,353.2z"/>
<path id="XFFCC33M2Gra6Co2_2_" class="st0" d="M138.2,103.2c3.1,0.8,3.8,3.1,5.2,4.6c4.4,4.7,11.7,6.5,16.4,4
	c5.4-2.9,7.4-9.1,5.6-16c-2.1-7.9-6.7-14.4-10.7-21.3c-4.3-7.7-7.8-15.6-4.1-24.6c1.3-3.7,4.9-6.2,8.8-6.3c3.8-0.1,5.9,2.7,7.6,5.6
	c1.7,2.9,2.1,6.3,2.4,9.6c1.4,18.3,6.2,36.2,14.1,52.7c1.3,2.6,0.4,3.8-2.5,3.5c-14-1.5-28.2,1.8-40,9.4c-0.9,0.6-2,1.4-3.2,0.7
	c-0.7-0.5-1-1.4-0.6-2.2C139.3,116.7,138.8,110.2,138.2,103.2z"/>
<path id="XA34F1FM2Color24_9_" class="st0" d="M202.9,120.5c-2.1,3.1-5,4.1-8.4,4.6c-9,1.5-18,0.2-27,0.7
	c-15.7,0.9-27.1,9-35.9,21.5c-0.6,0.9-1.8,2.1-0.8,3.1c1.5,1.4,2.3-0.6,3.2-1.3c6.3-5.2,13.3-9.5,20.7-12.9c1.6-0.8,3.4-1.4,5.2-1.5
	c3.2-0.1,6.4,0,8.4,3.2c2.1,3.4,0.4,6.3-1.5,8.7c-12.4,15.3-28.8,22.6-48.4,22.8c-2.6,0-4-1.3-2.8-3.8c7.4-15.2,15.4-29.9,30.8-38.9
	c8.2-4.8,17.1-6.1,26.4-6C182.8,121,192.8,122.7,202.9,120.5z"/>
<path id="XF9D886M2Gra4OT15_11_" class="st0" d="M215.1,122.6c-3.4,8.5-1.2,17.1-0.6,25.6c0.8,12.5-1.4,24.1-8.1,34.7
	c-0.6,1-1,2.1-1.4,3.2c-0.5,1.3,0.2,3.4-1.7,3.7c-1.5,0.2-1.9-1.6-2.7-2.6c-1.4-1.7-2.7-3.4-4.1-5c-13.5-14.9-13-34.9,0.9-49.7
	c4.4-4.7,9.8-8,14.6-11.9c0.8-0.6,1.6-1.4,2.6-0.7S215.2,121.6,215.1,122.6z"/>
<path id="XFFCC33M2Gra8Co2_2_" class="st0" d="M295.2,607.9c0.4-2.9,2.1-6.2,3.7-9.4c5.4-10.8,11.9-21.1,16.5-32.4
	c0.4-0.9,0.7-2,2-1.7c1,0.4,1.6,1.3,1.7,2.3c0.5,4,1.1,7.9,1.5,11.9c1.9,17.9,3.7,35.7,5.6,53.6c0.2,1.5,0.9,3.1-0.6,4.2
	s-2.9-0.2-4.1-0.9c-8-4.8-16.3-9.1-22.2-16.6C296.6,615.7,295.2,611.9,295.2,607.9z"/>
<path id="XFFCC33M2Gra7Co2_3_" class="st0" d="M302.2,168.7c-2.8-2.3-3.7-5.4-5.3-8c-10.3-17.1-25.2-28.5-43.8-35.3
	c-1.9-0.6-3.9-0.9-5.9-0.9c-7.6-0.1-10.7,3.5-9.3,11c1.4,7.8,5.1,14.7,9,21.6c0.7,1.2,2.7,2.5,1,3.8c-1.4,1-2.2-1-3-1.8
	c-9.5-9.7-15.4-22.4-16.8-35.9c-0.8-7.7,3.2-12,10.9-11.9c22.5,0.5,52.8,16,61.3,44.3C301.5,159.6,304.4,163.5,302.2,168.7z"/>
<path id="XF9D886M2Gra4OT15_10_" class="st0" d="M125.6,175.2c-0.5,1-0.6,1.8-1.1,2.1c-10.6,7.9-12.5,19.7-13.4,31.6
	c-1.5,18.6-7.6,35.7-15.6,52.3c-0.5,1-0.7,2.6-2.1,2.4c-1.7-0.2-1.1-1.9-0.9-2.9c3.3-17.2,2-34.5,2.1-51.8c0-4,0.3-8,0.9-11.9
	c1.6-9.9,7-16.8,16.8-19.7C116.5,175.7,121,175,125.6,175.2z"/>
<path id="XDAA6B7M2Gra8OT11_1_" class="st0" d="M350.8,197.1c-6.7-1.2-13.5,0.8-20.3-0.5c-1.2-0.2-3.1-0.1-3.2-1.7s1.8-1.6,3-1.9
	c26.1-8.4,50.9-20.6,73.5-36.2c1.2-0.8,2.5-2.4,3.9-1.3s0.3,2.8-0.1,4.2c-5.6,19.2-22.4,33.1-42.3,34.8
	C360.4,194.7,356.1,198.5,350.8,197.1z"/>
<path id="XFFCC33M2Gra7Co2_2_" class="st0" d="M146,242.7c-10.4,18.3-12.2,36.9-7.9,56.3c0.2,0.8,0.5,1.8-0.4,2.2
	c-1.1,0.6-1.8-0.3-2.6-0.9c-7.5-5.6-16.1-7.6-25.2-7.9c-3.2-0.1-6.2,1.2-9.3,1.7c-1.5,0.2-3.2,2.5-4.4,0.4c-1-1.7,1.2-2.9,2.1-4.1
	c7.5-9.3,15.7-18,24.5-26.2c6.3-5.9,12.6-11.8,18-18.6C142.2,244.1,144,243,146,242.7z"/>
<path id="XFFCC33M2Gra6Co2_1_" class="st0" d="M234.1,72.8c4,5.5,7.8,11,11.9,16.3c3.5,4.4,7.3,8.6,11,12.9c1.4,1.6,3.1,2.8,5.3,1.8
	s2.3-3.1,1.8-5.1c-1-4.4-2.1-8.7-3.2-13.1c-1.7-6.7-1.3-13.5-1.1-20.4c0.1-1.8,0.8-3.6,1.9-5.1c1-1.8,3.1-2.8,5.1-2.2
	c2.1,0.5,2.9,2.1,3.1,4c0.7,5.3,0.1,10.6-0.2,15.9c-0.6,10.4-1.9,20.9,1,31.2c1,3.6-1.9,5.2-6.2,3.5c-8.1-3.4-16.9-5.3-25.7-5.5
	c-2.5,0-5-0.2-7.4,0.8c-1,0.4-2.4,1.2-3.1-0.1c-0.2-1-0.1-2,0.5-2.8c4.8-8.7,4.7-18.2,4.5-27.7C233.3,75.9,232.4,74.3,234.1,72.8z"
	/>
<path id="XA34F1FM2Color24_8_" class="st0" d="M97.1,393.1c-7.8,5.2-13.5,13.1-22.7,16.3c-7.7,2.7-14.6,1.5-18.8-3.4
	c-4.8-6-5.7-14.1-2.5-21c5.9-11.8,16.8-15.8,28.6-18.5c0.8-0.2,1.7-0.2,2.2,0.6s-0.1,1.6-0.7,2.2c-1.1,1.3-1.8,2.8-2.2,4.4
	c-0.9,3.2-0.4,5.3,3.5,5.2c3.1-0.1,3.7,0.8,1.6,3.3c-3.9,4.6-7.8,9.1-14.9,8.2c-1.4-0.2-2.9,0.5-4.4,0.9c-1.7,0.3-2.9,1.8-2.9,3.6
	c0,1.8,1.2,2.6,2.6,3.3c6.8,3.4,13,0.6,19.2-1.7c3.6-1.4,7.1-3.1,10.7-4.7L97.1,393.1z"/>
<path id="XF9D886M2Gra4OT15_9_" class="st0" d="M146.8,230.6c2.2-5.2,4.7-10.4,5.8-16c1.6-8.4,2.3-16.8-0.4-25.1
	c-1.6-4.9-4.5-8.8-9.4-11c-0.9-0.4-2.7-0.6-2-2.2c0.5-1.3,2-1,3.1-0.7c5.9,1.5,9.5,5.9,12.9,10.4c2.7,3.4,5.4,6.8,9.4,8.8
	c3.4,1.6,6.8,2.5,10.4,0.1s4.7-5.9,4.4-9.9c-0.4-6.4-2.9-12.2-5.9-17.9c7,3,10.3,9.1,12.5,15.8c2.9,9-0.4,16.4-7.4,22.1
	c-7.3,6-14.9,11.8-22.2,17.7c-3.4,2.8-6.6,5.8-10,8.7L146.8,230.6z"/>
<path id="XA34F1FM2Color24_7_" class="st0" d="M41.1,381.1c-0.3-8.8,3.8-16.4,6.8-24.3c1.5-3.9,5.2-5.5,9.3-5.7
	c6.4-0.4,11.6-2.6,15-8.2c1.9-3.1,3.5-1.8,4.5,0.8c2.6,6.6,6.6,11.9,13.4,14.6c0.8,0.3,1.7,0.7,1.6,1.7c-0.1,1.6-1.7,1.6-2.7,1.6
	c-4.9-0.2-9.5,1.2-14.2,2.1c-12.7,2.5-26.7,13-27.8,28.7c-0.1,1,0,2.2-1.3,2.4s-1.6-1-2.2-1.8C41.5,390.2,41,387.6,41.1,381.1z"/>
<path id="XA34F1FM2Color24_6_" class="st0" d="M195.9,255.3c-3-4.9-4.2-10.6-3.6-16.3c0.8-11.4,4.8-22.3,11.4-31.5
	c5.1-7.3,10.5-14.6,12.2-23.8c0.5-3,2.4-2.4,3.9-0.8c6.3,7.5,14.9,9,23.9,9c13.8,0.1,26.6,2.6,35.9,14c2,2.5,6.4,5.9,4.4,8.1
	c-2.3,2.6-4.6-2.4-6.7-4c-16.7-12.8-35.5-14.2-55.1-10c-8.7,1.8-12.9,9.5-17.1,16.5c-6.5,10.6-9.3,23.1-7.9,35.4
	C197.4,253.1,197,254.5,195.9,255.3z"/>
<path id="XFFCC33M2Gra7Co2_1_" class="st0" d="M206.3,344c1.3-4.6,4.6-7.4,6-11.3c3.8-10.2,4-20.9,4.3-31.5c-0.1-2.3,0.1-4.7,0.4-7
	c1.2-5.8,6-7.6,10.7-4c4,3,7.1,7,10.8,10.3c3.1,2.8,1.6,7.5-0.2,10.8c-6,10.6-13.9,19.9-22,28.9C213.9,342.9,210.4,343.6,206.3,344z
	"/>
<path id="XDAA6B7M2Gra7OT11_2_" class="st0" d="M93.5,162.7c-11-0.5-20-3.1-28.2-8.4c-2.2-1.4-4.7-2.9-4.1-6.2s3.1-4.5,5.9-5.4
	c8.4-2.7,17.1-4.3,25.3-7.5c1.7-0.6,4.4-1.6,3.4,2.3c-1.3,4.9,1.3,10,6,11.8c3.2,1.3,5,3.7,7.1,6s1.4,4.3-1.7,5
	C102.3,161.5,97.3,163,93.5,162.7z"/>
<path id="XDAA6B7M2Gra7OT11_1_" class="st0" d="M58,82.7c14.2-1.1,25.7,3.7,32.9,17.4c2.8,5.2,1.3,10.1-0.1,14.9
	c-0.8,2.7-3.8,2.1-6.1,1.4c-6.5-2.1-12.4-5.9-16.9-11c-5.9-6.5-11.3-13.5-18.3-19c-0.8-0.6-1.7-1.3-1.4-2.4c0.4-1.5,1.8-1.2,2.9-1.2
	C53.2,82.7,55.4,82.7,58,82.7z"/>
<path id="XF9D886M2Gra4OT15_8_" class="st0" d="M97.6,267c3-7.7,6.8-14.3,9.1-21.6c2-6.5,4.6-12.8,6.2-19.5c0.2-0.9,0.2-2.1,1.5-2.3
	c1-0.1,1.3,0.9,1.7,1.6s0.9,2,2.2,1.7c1.5-0.4,1.3-1.8,1.3-2.9c0.3-6,1.5-11.9,3.6-17.5c0.2-0.6,0.4-1.3,0.6-1.9
	c2.1-3.1,3.6-7.2,8.4-6.4c3.8,0.6,5.4,4.8,4.2,10.4c-2.5,11.1-7.2,21.5-13.7,30.8c-6.4,9.3-13.6,18.1-21.6,26.1
	C100.3,266.5,99,267.1,97.6,267z"/>
<path id="XFFCC33M2Gra1Co2" class="st0" d="M72.9,261c-1.4-5.4-1.4-5.4-7.3-0.1c-0.7-3.5,1.6-5.3,3.6-7.1c2.4-2.1,2.6-4,0-6.1
	c-4.2-3.4-6.9-8.3-7.5-13.6c0-0.3-0.1-0.7-0.2-1c-1.7-5.6-3.6-6.3-7.9-2.9c-1.3,1-2.7,1.9-4.3,2.5c1.6-4.3,4-8.1,7.2-11.4
	c1-1,2.8-1.7,1.8-3.5c-0.8-1.4-2.3-0.9-3.6-0.8c-1.1,0.1-2.7,1-2.9-0.7s1.7-1.8,2.9-2.1c8.5-2.5,20.8,3.2,24.6,11.3
	c0.5,1,0.9,2.1,1.4,3.2c4.8,9.5,3.5,18.6-3.7,26.7C75.4,257.1,74.1,259,72.9,261z M77.4,247.4c1.8-0.6,1.7-2.1,1.5-3.6
	c-0.3-1.7-0.8-3.4-3-3.2c-1.7,0.2-2.7,1.4-2.2,3.1S75.1,247.1,77.4,247.4z"/>
<path id="XFF9900M1Color3_3_" class="st0" d="M72.4,327.5c-0.3,13.1-9.1,21.2-21.6,20.1c-4.9-0.4-6.9-2.5-6.4-7.5
	c1-9.7,3.9-18.6,12-24.9c6.6-5.1,12.5-3.2,15,4.7C72.3,322.4,72.6,324.9,72.4,327.5z"/>
<path id="XFF9900M1Gra1Co3_8_" class="st0" d="M166.5,248.6c0.1,4.3-2.1,9-6.8,12.3c-6.5,4.6-13.7,8.4-17.4,16
	c-0.4,0.7-1.1,1.5-2,0.9s-0.7-1.8-0.6-2.7c1.4-8.7,3.3-17.3,7-25.4c4-8.2,8.9-16,14.6-23.1c0.8-1.1,1.6-2.5,3.1-2
	c1.8,0.6,0.9,2.3,0.6,3.4C163.3,234.5,166.5,240.7,166.5,248.6z"/>
<path id="XFFCC33M1Gra6Co2_2_" class="st0" d="M266.8,329.8c0.1,8.5-11.6,19.1-20,18.1c-1.7-0.2-3.2-1.1-4-2.6
	c-4.2-6.5-6.3-7.1-13.5-4.2c-0.9,0.3-1.7,1.3-2.7,0.5s-0.3-1.9,0.3-2.6c5.5-6.7,11-13.3,19.2-16.9c3.6-1.6,6.4-1.6,7.8,2.9
	c1,3.2,2.9,2.1,5.1,1.1C263.7,323.9,266.7,325.5,266.8,329.8z"/>
<path id="XFFCC00M2Color2_4_" class="st0" d="M43.6,354.5c0,5.4-2.3,8.9-3.9,12.3c-9.7,20.6,4.7,41.2,20.7,47.5
	c9.4,3.7,17.9-0.4,24.8-6.6c8.8-7.7,18.7-14,29.4-18.7c10.5-4.7,17.9-12.2,20.5-23.5c1.4-6.1,6-7.3,10.4-9.3c1.6-0.7,3,0.1,3.4,1.9
	c0.2,0.7,0.2,1.3,0.1,2c-0.6,2.4,2.1,5.8-1.1,7.2c-2.8,1.2-4.1-1.9-5.7-3.8c-1.2-1.4-2.8-2-3.2,0.5c-2.6,15.6-14.6,22.9-27.1,29.1
	c-9.1,4.5-16.9,10.4-24.6,16.8c-8.1,6.6-17,11.8-27.9,8.1c-8.9-3-14.9-9.5-19.8-17.5C30,384.9,32.7,369.9,43.6,354.5z"/>
<path id="XA34F1FM2Color24_5_" class="st0" d="M226.7,351.1c-3.4,6-8.7,8.5-13.3,11.8c-7.9,5.5-16.8,8.6-26.2,10.2
	c-3.4,0.6-4.8-0.6-5-4.1c-0.5-10.2,4.6-15.8,14.6-15.4c6.8,0.3,13.5,0.9,20.4,0C220.2,353.3,222.7,351.1,226.7,351.1z"/>
<path id="XFFCC33M2Gra4Co2" class="st0" d="M189.6,424c-0.7-9.7-1.5-19.2-2.1-28.6c-0.1-1.4-0.9-3.2,1-3.9c1.5-0.5,2.2,1.1,3.2,1.9
	c7.3,6.1,13.7,12.7,14.1,23c0.3,4.2-1.2,8.4-4.1,11.3c-2.7,2.7-5.9,4.9-9.7,3.8C187.7,430.3,190.5,426.3,189.6,424z"/>
<path id="XFFCC33M2Gra7Co2" class="st0" d="M259.7,294.2c-0.6-0.2-1.1-0.4-1.6-0.7c-3.2-2.5-6.6-1.6-10-0.4
	c-2.2,0.8-4.4,1.7-6.8,1.3c-2.7-0.5-5.2-1.5-5.7-4.7c-0.5-3,1.3-4.5,3.6-5.9c4.3-2.5,9.2-2.5,13.8-4c9.1-2.9,17.6-6.7,25.1-12.7
	c0.9-0.8,2-2.4,3.3-1.3s-0.2,2.4-0.8,3.5c-3.1,5.3-6.9,10.2-11.3,14.4c-2.8,2.8-6,5.3-7.6,9.1C261.5,293.6,260.7,294.2,259.7,294.2z
	"/>
<path id="XFF9900M1Gra1Co3_7_" class="st0" d="M177.2,182.7c0.1,3.2-1.6,6.2-4.4,7.8c-2.8,1.7-5.2,0.2-7.2-1.6
	c-6.1-5.4-10.6-12.3-17.5-16.8c-1.6-1-0.6-2.3,0.6-3.2c10-7.7,17.8-9.5,25,3.7C175.5,175.7,177.6,178.8,177.2,182.7z"/>
<path id="XA34F1FM2Color24_4_" class="st0" d="M140.8,386.3c-8.9,15-15.6,31.6-32.1,40.8c-10.5,5.9-21.1,6.6-32,1.4
	c-1.9-0.9-1.9-1-4.4-4.3c3.9,1,7.1,1.9,10.4,2.6c11,2.4,19.3-1.9,23.7-12.1c0.6-1.3,1-2.6,2.7-2.5c6.7,0.4,10.5-4.4,14.7-8.3
	c2.9-3,5.7-6.1,8.3-9.3c2.6-3,5.1-6,7.6-9.1L140.8,386.3z"/>
<path id="XFFCC33M2Gra6Co2" class="st0" d="M140.4,82.1c0.1-5,0.9-9.9,2.3-14.7c0.3-1,0.7-2,2-1.8c0.9,0.1,1.3,1,1.5,1.8
	c2.4,8.2,7.8,15,11.9,22.3c4.1,7.3,3.5,13.7-1.8,16.1c-4.7,2.1-10.3-1.6-13.2-9c-0.8-1.7-1.3-3.4-1.7-5.2
	C140.8,88.4,140.6,85.2,140.4,82.1z"/>
<path id="XFF9900M1Gra1Co3_6_" class="st0" d="M212.9,290.6c0.1,6.6-2.9,11.1-7.3,14.8s-9.7,5.7-15,7.7c-3,1.1-4.1-0.3-3.9-3.1
	c0.7-8.2,3.3-15.9,6.1-23.5c0.9-2.3,2.5-3.1,4.5-0.9c3.6,3.8,7.2,4.9,12.4,1.9C213.5,285.2,212.5,289.3,212.9,290.6z"/>
<path id="XDAA6B7M2Gra7OT11" class="st0" d="M80.3,134.7c-10-0.1-18.9-6.5-22.2-16c-1.1-3.3-0.1-4,2.9-3.3c9,2.2,18.2,3.8,27.4,4.8
	c3.6,0.4,3,3.7,3.6,5.7s0.9,5-2.1,6.4C86.7,133.7,83.5,135,80.3,134.7z"/>
<path id="XFF9900M1Color3_2_" class="st0" d="M271.1,316.1c-5.8-0.1-9.5-4.8-8-10.5c2.2-8.7,9.2-12.6,16.7-15.7
	c2.1-0.9,4.9-2.9,7-1.3c2.3,1.8,0.1,4.7-0.3,7c-0.9,4.7-2,9.4-4.5,13.6S276.1,315.9,271.1,316.1z"/>
<path id="XFFCC00M2Color2_3_" class="st0" d="M141.6,337.3c-0.5,0.9-1,1.8-1.6,2.6c-3.1,4.4-5.6,9.1-7.6,14
	c-5.7,14.3-18.3,20-31.6,24.6c-0.9,0.3-2.1,0.4-2.6-0.7s0.5-1.8,1.3-2.3c8.6-6,15.1-14,21.6-21.9c4.8-5.8,10.8-10.4,16-15.8
	c0.8-1.1,2.1-1.7,3.5-1.6C141,336.3,141.2,336.9,141.6,337.3z"/>
<path id="XDAA6B7M2Gra8OT11" class="st0" d="M367.2,165.6c8.3-10.2,16.2-20.8,28.4-27.1c3-1.6,6.1-1.8,8.5,1.3
	c2.2,2.9,1.2,5.4-0.9,8.1c-1.4,1.9-3.2,3.4-5.2,4.5c-8.6,4.4-17.2,8.7-25.8,13c-1.4,0.6-2.8,1-4.2,1.3L367.2,165.6z"/>
<path id="XFF9900M1Color3_1_" class="st0" d="M183.4,342c0.4-9.9,5.7-16.4,13.3-21.2c2.6-1.6,6-0.9,7.6,1.7c0.8,1.3,1.1,2.8,0.7,4.3
	c-2.1,9.6-7.2,17.3-15.9,22.4c-2.7,1.5-4.5,0.4-5.1-2.5C183.7,345,183.6,343.4,183.4,342z"/>
<path id="XFFCC33M2Gra8Co2_1_" class="st0" d="M315.9,522c0.3,4.3,0.7,8.6,1,12.9c0.1,1,0.3,2.2-0.7,2.7c-1.3,0.8-2.1-0.4-2.9-1.2
	c-5.3-5.8-10.5-11.6-15.7-17.4c-1.9-2-2-3.9,0.9-5c4.8-2,9-5,13.1-8c2.9-2.1,3.9-0.9,4,2c0.1,4.7,0,9.3,0,14L315.9,522z"/>
<path id="XA34F1FM2Color24_3_" class="st0" d="M69.5,202.1c3.1-11.4,9.7-20.1,20-25.7c4.2-2.4,8.8-4.1,13.6-4.9
	c1.1-0.2,2.6-0.4,3.2,0.8c0.7,1.5-0.9,1.9-1.8,2.5c-10.6,6.4-13.8,16.5-14.4,28c-0.3,5.5,0.1,11,0,16.5c0,1.4,0.7,3-0.9,4.4
	c-1.8-1.9-1.8-4.2-1.9-6.4c-0.6-9.6-0.4-19.3,0.7-28.9c0.2-1.7,1.6-4-0.6-5s-3.4,1.4-4.8,2.8C77.7,190.9,74.3,197,69.5,202.1z"/>
<path id="XFFCC33M2Gra8Co2" class="st0" d="M313.9,474c-2.9-8-8.1-15.1-14.8-20.4c-6-4.8-3.6-14.3,3.6-17.4c2-0.9,3.5-0.2,4.8,1.4
	c1.5,2,2.5,4.3,3,6.8C313.2,454.1,314.3,464,313.9,474z"/>
<path id="XA34F1FM2Color24_2_" class="st0" d="M265,348.1c-0.8,3.9-3.6,5.3-5.7,7.3c-9.5,9-20.6,13.8-34,12.4
	c-1.1-0.1-2.6,0.4-2.9-1.1c-0.2-1.1,1-1.5,1.7-2.2c6.2-6.2,14.4-9.9,23.2-10.2C253.5,353.7,258.7,350,265,348.1z"/>
<path id="XFF9900M1Color3" class="st0" d="M180.6,319.1c-0.4,4.8-1.9,9.1-6.6,11.4c-2.9,1.4-5.6,0.4-7.6-1.9
	c-3.4-4-3.1-8.5-1.3-13.1c1.6-4,5.4-6.6,6.7-10.9c0.6-2.2,2.1-0.8,3,0.2C178.3,308.9,180.9,313.4,180.6,319.1z"/>
<path id="XFFCC33M1Gra6Co2_1_" class="st0" d="M178.6,350c-0.3,2.5-1.7,4.8-3.8,6.3c-4.7,3.2-10.3,4.5-15.3,7.1
	c-1,0.7-2.4,0.5-3.3-0.3c-1-1.1-0.2-2.2,0.3-3.2c2.9-5.6,5.8-11.2,8.9-16.7c3.2-5.6,6.4-5.6,10-0.3
	C176.9,345.1,178.3,347.4,178.6,350z"/>
<path id="XFF9900M1Gra1Co3_5_" class="st0" d="M293.3,171.3c-0.1,2.7-0.1,4.4-0.3,6c-0.1,1.4-0.8,2.7-2.3,2.9
	c-5,0.7-8.7-1.8-11.7-5.3c-2.8-3.1-3.2-7.6-1-11.2c1.6-3.1,5.2-4.6,8.6-3.6c3.5,0.9,6,2.9,6.4,6.8
	C293.1,168.7,293.2,170.5,293.3,171.3z"/>
<path id="XA34F1FM2Color24_1_" class="st0" d="M141,395.2c1.6-2.2,3.2-4.3,5-6.3c6.2-6.4,10.9-14.3,18.4-19.4
	c2.1-1.4,5.1-4.3,6.8-2.4s1.7,5.8,2.1,8.9c0.2,1-0.9,1.7-1.9,2.1c-10.9,4.4-21.7,8.9-29.7,18.2L141,395.2z"/>
<path id="XA34F1FM2Color24" class="st0" d="M102.6,411.1c-0.3,10.4-8.8,16.1-18.8,12.4c-1.9-0.7-5.3-0.3-5.4-2.7
	c-0.1-2.6,3.4-2,5.2-2.7c5.4-2.1,9.8-5.6,14.3-9c1.2-0.9,1.6-3.5,3.7-2.5C103.4,407.6,102.4,409.7,102.6,411.1z"/>
<path id="XFFCC33M1Gra6Co2" class="st0" d="M155.3,324.8c1.4,0.2,3.2,0.9,3,2.2c-0.8,4.8,7.3,6.9,4,11.7c-2.5,3.7-7.3,5-11.4,6.9
	c-1.5,0.7-2.4-0.4-3-1.8c-1.2-3.3,1.7-15,4.4-17.5C153.1,325.4,154.2,324.9,155.3,324.8z"/>
<path id="XF9D886M2Gra4OT15_7_" class="st0" d="M314.2,247.7c0.1-9.7-0.8-19.3-2.5-28.8c-0.2-1.5-0.1-3,0.2-4.5c0.4-2,0-5,2.8-5.2
	c3.3-0.2,3.9,2.8,4.1,5.3C319.8,225.9,318.6,237,314.2,247.7z"/>
<path id="XFF9900M1Gra1Co3_4_" class="st0" d="M310.7,190.6c-0.8,2.1,1.4,7-1.9,8s-5-3.5-7.1-6c-1-1.2-1.5-2.9-2.2-4.4
	c-1.4-2.8-1.5-5.4,0.8-7.8c1.3-1.6,3.6-2.1,5.5-1.1c2.9,1.1,4.9,3.8,5,6.9C310.8,187.3,310.7,188.5,310.7,190.6z"/>
<path id="XFF9900M1Gra1Co3_3_" class="st0" d="M204.8,267.2c5.6,0.7,10.5,3.1,15,6.3c0.7,0.5,1.4,1.1,1.2,2c-0.3,1.4-1.5,1-2.4,0.9
	c-2.1-0.4-3.7-0.5-3,2.6c0.6,2.8-1.3,2.9-3.4,2.6c-5-0.7-10-6.7-9.8-11.8C202.4,268.2,202.6,266.8,204.8,267.2z"/>
<path id="XFFCC00M2Color2_2_" class="st0" d="M113.9,354.9c-3,7.2-8.2,10.7-13.1,14.1c-3.2,2.2-7.1,3.6-10.7,5.1
	c-1.3,0.6-3.1,0.9-4-0.9s0.1-3.3,1.7-4c3.5-1.6,7-2.9,10.5-4.5c1.2-0.5,3.5-0.8,3.1-2.1c-1.7-5.4,2.7-4.1,5-5
	C108.4,356.9,110.4,356.2,113.9,354.9z"/>
<path id="XFFCC00M2Color2_1_" class="st0" d="M133.3,386.4c-5.4,7.1-10.9,14.1-17.7,20c-1.7,1.5-4,2.3-5.9,0.3
	c-2.1-2.3-0.8-4.8,1-6.1c7-5.2,14.3-10.1,21.5-15.1L133.3,386.4z"/>
<path id="XF9D886M2Gra4OT15_6_" class="st0" d="M70.9,187.4c3.5-8.9,10.6-14.4,18.9-18c5.9-2.6,12.3-4.1,18.5-6
	c1.4-0.4,3.3-1.1,3.7,1.1c0.4,1.9-1.4,2.4-2.9,2.7c-3.6,0.7-7.2,1.3-10.7,2.1c-9.4,2.2-16.6,8-23.4,14.4
	C73.6,185,72.2,186.2,70.9,187.4z"/>
<path id="XF9D886M2Gra4OT15_5_" class="st0" d="M306.6,290.9c2.3,5.8,0.6,11.9,2,17.6c0.1,0.3,0.1,0.7,0,1c-0.4,2.3,1.9,5.3-0.2,6.6
	c-2.6,1.6-5-1.7-7.9-2c-1.4-0.1-1.8-1.6-1.2-2.8C302.7,304.9,304.5,297.9,306.6,290.9z"/>
<path id="XF9D886M2Gra4OT15_4_" class="st0" d="M175.5,153c-1.5-3.2-1.4-7,0.3-10.1c1.6-3.5,3-6.6-0.9-9.8c-1.9-1.5-0.6-2.6,1.4-2.6
	c3.8,0,7.6,0,11.4,0.1c1.8,0,2.8,1.2,1.2,2.4C182.5,138,179.1,144.8,175.5,153z"/>
<path id="XFF9900M1Gra1Co3_2_" class="st0" d="M303.3,210.9c0,3.4-2,5.5-4.5,7.2c-2.2,1.4-3.8,0.8-4.3-1.9c-0.7-3.6-1.4-7.1-2-10.7
	c-0.5-3.2,1.4-3.7,3.9-3.2C300.3,203.3,303.2,206.8,303.3,210.9z"/>
<path id="XFF9900M1Gra1Co3_1_" class="st0" d="M278.5,183c4.6,0.1,6.6,3.5,8.3,7.2c0.5,1.1,0.7,2.2,0.8,3.4c0.1,1.7,1.7,4.1-0.2,5
	c-2.4,1.2-3.1-1.8-4.2-3.2c-1.9-2.4-4.5-3.8-6.9-5.5c-1.5-1.1-4.2-1.5-3.4-4.1S276.2,183.4,278.5,183z"/>
<path id="XF9D886M2Gra4OT15_3_" class="st0" d="M287.9,309.1c0.9-0.1,1.6,0.5,1.7,1.4c0,0.4,0,0.7-0.2,1
	c-3.3,6.3-6.8,12.6-10.2,18.8c-0.4,0.8-1.3,1.1-2.2,0.9c-1.1-0.3-1.5-1.2-1.6-2.3c-0.4-3.7,8.6-18.5,11.9-19.6L287.9,309.1z"/>
<path id="XF9D886M2Gra4OT15_2_" class="st0" d="M305.9,239.1c1.4,6.7,0.2,13.1-1.9,19.3c-0.5,1.8-2.3,2.8-4.1,2.4
	c-0.3-0.1-0.5-0.2-0.8-0.3c-2.6-1.3-2.7-3.8-1.4-6C300.8,249.5,303.3,244.4,305.9,239.1z"/>
<path id="XFF9900M1Gra1Co3" class="st0" d="M244.7,307c0.3-2.5,0.8-4.8,3.8-5.1s4.2,1.4,4.9,3.9c0.3,1.4,0.6,2.9,0.7,4.4
	c0.2,1.7,2.7,3.4,0.7,4.9c-2.2,1.5-4.4-0.2-6.3-1.5C246.2,312.1,244.8,309.7,244.7,307z"/>
<path id="XF9D886M2Gra4OT15_1_" class="st0" d="M287.3,276.2c-1.4-0.3-3.7,0.5-3.9-2.3c-0.1-2.2,6.2-9.4,8-8.8
	c2.5,0.8,4.8,2.5,5.1,5.4C296.6,273.1,291.8,276.1,287.3,276.2z"/>
<path id="XFFCC00M2Color2" class="st0" d="M83.1,265.9c1.9,2.6,1.1,4.9,1,7.1c-0.1,2.9-3.2,6.4,1.7,8.5c0.8,0.4,0.1,1.9-0.5,2.6
	c-2.2,2.5-4.5,4.9-6.8,7.3c-0.6,0.6-1.5,1-2.1,0.2c-0.3-0.6-0.3-1.2,0-1.8C80.4,282.6,80.8,274.3,83.1,265.9z"/>
<path id="XF9D886M2Gra4OT15" class="st0" d="M303.7,267c1.1,0.2,1.8,1.3,1.6,2.3c0,0,0,0.1,0,0.1c-1,3.8-1.5,7.8-3.8,11.2
	c-0.6,0.9-1.2,2.2-2.7,1.6c-1.1-0.5-0.9-1.7-0.8-2.6c0.6-3.9,2-7.7,4.1-11.1C302.6,268,303.1,267.4,303.7,267z"/>
</svg>
