<?xml version="1.0" encoding="UTF-8" standalone="no"?>
<svg
   xmlns:dc="http://purl.org/dc/elements/1.1/"
   xmlns:cc="http://creativecommons.org/ns#"
   xmlns:rdf="http://www.w3.org/1999/02/22-rdf-syntax-ns#"
   xmlns:svg="http://www.w3.org/2000/svg"
   xmlns="http://www.w3.org/2000/svg"
   xmlns:sodipodi="http://sodipodi.sourceforge.net/DTD/sodipodi-0.dtd"
   xmlns:inkscape="http://www.inkscape.org/namespaces/inkscape"
   version="1.0"
   width="850.000000pt"
   height="850.000000pt"
   viewBox="0 0 850.000000 850.000000"
   preserveAspectRatio="xMidYMid meet"
   id="svg2"
   inkscape:version="0.91 r13725"
   sodipodi:docname="Letter_20170424_401.svg">
  <defs
     id="defs442" />
  <sodipodi:namedview
     pagecolor="#ffffff"
     bordercolor="#666666"
     borderopacity="1"
     objecttolerance="10"
     gridtolerance="10"
     guidetolerance="10"
     inkscape:pageopacity="0"
     inkscape:pageshadow="2"
     inkscape:window-width="1920"
     inkscape:window-height="980"
     id="namedview440"
     showgrid="false"
     inkscape:zoom="0.62824358"
     inkscape:cx="694.6897"
     inkscape:cy="658.395"
     inkscape:window-x="0"
     inkscape:window-y="1"
     inkscape:window-maximized="1"
     inkscape:current-layer="svg2" />
  <metadata
     id="metadata4">
Created by potrace 1.14, written by Peter Selinger 2001-2017
<rdf:RDF>
  <cc:Work
     rdf:about="">
    <dc:format>image/svg+xml</dc:format>
    <dc:type
       rdf:resource="http://purl.org/dc/dcmitype/StillImage" />
  </cc:Work>
</rdf:RDF>
</metadata>
  <g
     transform="translate(0.000000,850.000000) scale(0.100000,-0.100000)"
     fill="#000000"
     stroke="none"
     id="g6">
    <path
       d="M0 4250 l0 -4250 4250 0 4250 0 0 4250 0 4250 -4250 0 -4250 0 0 -4250z m4334 3876 l76 -39 140 13 c266 23 512 -17 763 -126 62 -27 99 -36 190 -44 149 -14 253 -41 364 -95 159 -77 286 -195 371 -342 20 -35 39 -63 42 -62 3 0 19 19 35 42 38 52 91 83 127 74 65 -17 130 -113 182 -272 l26 -80 62 -24 c69 -27 128 -75 160 -132 16 -29 26 -38 38 -33 229 103 545 96 646 -13 40 -43 30 -123 -23 -187 -41 -50 -133 -124 -205 -167 l-67 -39 31 -59 c43 -84 44 -167 1 -250 l-30 -59 48 -21 c63 -29 135 -102 166 -168 22 -48 27 -53 57 -53 39 0 95 -35 113 -70 7 -14 13 -49 13 -79 0 -47 -4 -57 -34 -87 -29 -29 -41 -34 -80 -34 -54 0 -96 19 -125 56 -29 37 -29 131 -1 167 11 14 20 34 20 44 0 28 -53 107 -91 136 -38 27 -93 57 -107 57 -6 0 5 -35 24 -77 35 -83 54 -173 54 -264 l0 -56 74 -47 c89 -55 190 -162 234 -243 72 -135 101 -350 68 -510 -22 -107 -21 -108 20 -71 53 49 149 98 194 98 29 0 41 -6 54 -26 16 -23 16 -29 1 -73 -29 -89 -144 -197 -240 -227 -30 -10 -55 -23 -55 -30 0 -7 5 -46 10 -86 6 -40 12 -89 13 -108 2 -19 8 -34 14 -33 5 1 39 21 74 45 81 53 204 108 246 108 35 0 63 -22 63 -48 -1 -33 -38 -97 -80 -140 -62 -61 -132 -92 -224 -99 l-75 -6 -5 -41 c-3 -23 -8 -68 -11 -101 -3 -33 -8 -77 -11 -97 -4 -25 -2 -38 5 -38 6 0 44 16 84 36 85 43 230 94 267 94 37 0 63 -30 54 -64 -11 -45 -100 -133 -168 -166 -69 -34 -169 -53 -233 -44 -36 5 -44 3 -49 -12 -4 -11 -22 -57 -40 -103 -19 -47 -32 -87 -29 -89 2 -3 33 2 67 11 140 35 241 34 279 -4 18 -18 18 -21 4 -49 -9 -17 -34 -44 -56 -60 -44 -31 -137 -70 -169 -70 -10 0 -21 -4 -24 -8 -3 -5 -8 -62 -11 -128 -6 -135 -12 -158 -67 -268 -40 -79 -62 -114 -106 -170 -20 -25 -22 -36 -17 -80 16 -140 -111 -412 -262 -563 -65 -65 -88 -96 -108 -145 -34 -85 -85 -158 -139 -204 -26 -21 -46 -41 -46 -44 0 -4 22 -17 49 -30 102 -47 145 -127 100 -184 -51 -64 -160 -84 -241 -43 l-44 22 -68 -72 -68 -73 28 -55 c23 -48 26 -64 22 -118 -6 -69 -35 -137 -70 -161 -52 -37 -147 -8 -204 62 -21 26 -22 26 -48 8 -47 -30 -178 -82 -256 -101 -84 -20 -100 -29 -82 -47 22 -22 14 -65 -15 -88 -26 -20 -37 -22 -128 -18 -89 4 -107 8 -160 36 -33 17 -74 43 -91 57 l-31 26 -75 -63 c-40 -35 -85 -70 -98 -80 -24 -15 -24 -16 -5 -23 95 -31 270 -135 299 -176 42 -60 2 -102 -94 -101 -109 2 -243 78 -296 168 -14 24 -29 44 -34 44 -4 0 -67 -28 -139 -63 l-131 -64 37 -19 c114 -58 272 -180 299 -231 19 -35 19 -35 -5 -54 -40 -33 -143 -19 -247 34 -65 33 -156 132 -174 189 -8 24 -15 44 -16 46 -2 3 -222 -48 -232 -54 -1 0 33 -37 76 -80 76 -76 142 -171 142 -206 0 -57 -83 -60 -176 -8 -87 50 -184 179 -184 245 0 20 -5 21 -237 20 -187 0 -262 4 -348 18 -120 21 -318 70 -373 93 -19 8 -37 13 -39 10 -5 -5 139 -86 214 -119 57 -25 65 -27 108 -16 55 14 194 6 272 -15 77 -21 143 -57 159 -88 13 -25 13 -29 -5 -47 -11 -11 -37 -24 -58 -30 -48 -14 -174 -14 -233 0 -57 13 -137 53 -171 86 -15 13 -65 44 -110 67 -109 56 -145 76 -230 132 -38 26 -72 44 -74 42 -6 -5 31 -158 45 -190 7 -14 30 -36 52 -49 116 -70 126 -82 81 -100 -55 -22 -242 3 -424 57 -296 86 -578 267 -761 488 -28 34 -54 62 -59 64 -4 2 -20 -23 -35 -55 -36 -75 -110 -149 -158 -158 -107 -21 -213 65 -316 257 -48 90 -105 250 -121 343 l-11 65 -60 0 c-77 0 -130 28 -165 87 -14 24 -26 43 -28 43 -2 0 -36 -16 -76 -35 -99 -46 -229 -68 -374 -63 -122 5 -191 28 -222 75 -23 35 -21 110 5 160 33 64 137 187 202 240 32 26 59 53 59 59 1 5 -15 26 -35 45 -49 45 -75 107 -83 192 l-6 70 -64 35 c-125 69 -262 226 -293 337 -27 96 -8 147 70 182 39 17 51 27 44 36 -34 43 -145 328 -186 475 -124 451 -139 1013 -37 1416 33 129 51 166 81 166 21 0 23 -12 22 -122 -1 -53 9 -60 33 -24 14 21 14 28 3 48 -8 14 -13 58 -12 113 0 101 23 171 66 199 23 15 24 19 22 133 -5 240 60 491 180 702 21 36 48 107 61 158 45 172 126 314 239 421 52 50 67 72 48 72 -15 0 -62 104 -62 137 0 48 36 83 100 97 l55 12 5 50 c12 109 89 184 192 184 39 0 52 5 70 25 11 13 36 29 54 35 67 23 163 -46 232 -167 l34 -58 -6 59 c-6 68 -42 149 -85 190 -27 26 -33 28 -56 18 -32 -15 -95 -15 -132 -1 -58 21 -113 95 -113 149 0 12 13 35 29 51 26 26 37 29 89 29 45 0 67 -5 93 -23 41 -27 79 -82 79 -112 0 -13 23 -48 53 -81 28 -33 61 -78 71 -102 20 -45 36 -55 36 -22 0 10 7 35 16 53 l16 34 -41 52 c-49 63 -71 131 -71 221 0 54 6 78 30 128 31 62 88 122 116 122 58 0 75 -49 75 -214 1 -69 3 -126 6 -126 2 0 25 20 51 44 26 24 60 55 76 68 l30 25 -17 53 c-19 59 -21 96 -7 158 23 96 131 217 189 210 56 -7 56 -64 2 -241 -16 -51 -28 -93 -27 -94 2 -2 45 12 97 30 l94 33 2 52 c5 156 119 284 267 299 132 14 138 -19 29 -142 -43 -48 -98 -109 -121 -136 l-44 -49 164 0 163 0 34 70 c59 124 190 220 301 220 65 0 74 -39 23 -107 -30 -41 -19 -41 57 -3 73 37 203 75 300 89 53 7 76 15 84 28 18 34 66 68 134 96 61 25 76 27 168 25 95 -3 106 -6 178 -42z"
       id="path8"
       style="fill:none" />
    <path
       d="M4035 8107 c-80 -27 -135 -67 -135 -98 0 -38 97 -90 194 -104 63 -10 171 25 226 72 56 48 52 70 -24 107 -47 24 -74 30 -140 33 -48 2 -97 -2 -121 -10z"
       id="path10"
       style="fill:#cc3366" />
    <path
       d="M4532 8048 c-40 -5 -85 -14 -100 -19 -43 -16 -11 -26 114 -33 137 -8 239 -34 355 -91 l90 -44 94 24 c52 14 117 27 145 31 27 4 50 10 50 13 0 11 -176 69 -275 90 -176 38 -327 48 -473 29z"
       id="path12"
       style="fill:#99ccff" />
    <path
       d="M2825 8016 c-81 -30 -142 -89 -163 -156 -13 -43 -23 -100 -18 -100 7 0 240 240 249 256 10 17 -23 17 -68 0z"
       id="path14"
       style="fill:#6699cc" />
    <path
       d="M3292 7960 c-33 -17 -76 -48 -96 -70 -37 -42 -79 -115 -74 -131 5 -15 98 54 181 134 106 104 103 123 -11 67z"
       id="path16"
       style="fill:#6699cc" />
    <path
       d="M3685 7950 c-147 -38 -308 -116 -398 -191 l-32 -27 44 -12 c36 -9 50 -9 82 4 51 21 183 21 239 1 42 -15 42 -15 64 13 47 60 88 101 145 142 l61 44 -22 23 c-27 29 -83 30 -183 3z"
       id="path18"
       style="fill:#99ccff" />
    <path
       d="M2379 7917 c-71 -64 -108 -166 -90 -249 17 -72 24 -67 71 55 34 89 63 193 58 212 -2 9 -15 2 -39 -18z"
       id="path20"
       style="fill:#6699cc" />
    <path
       d="M4385 7942 c-11 -4 -40 -19 -65 -33 -25 -15 -63 -33 -85 -40 -59 -19 -191 -17 -243 4 l-44 18 -53 -31 c-54 -31 -175 -151 -175 -173 1 -7 23 -29 51 -50 l50 -39 62 52 c77 64 218 133 317 156 119 27 307 23 450 -10 l115 -26 73 31 c39 18 72 35 72 39 0 12 -118 58 -204 80 -83 21 -286 35 -321 22z"
       id="path22"
       style="fill:#99ccff" />
    <path
       d="M5416 7883 c-1 -1 4 -50 12 -109 l15 -105 56 -38 c31 -21 80 -60 108 -86 35 -31 54 -42 57 -33 6 19 55 268 58 298 3 22 -3 26 -62 42 -57 16 -236 39 -244 31z"
       id="path24"
       style="fill:#66ff66" />
    <path
       d="M5194 7856 c-113 -24 -286 -77 -314 -97 -12 -8 -9 -9 10 -4 14 4 84 9 155 12 134 5 141 4 319 -54 18 -6 18 -2 12 48 -14 115 -16 119 -45 118 -14 0 -76 -11 -137 -23z"
       id="path26"
       style="fill:#66ff66" />
    <path
       d="M5767 7743 c-9 -37 -26 -119 -37 -182 l-22 -114 95 -95 96 -96 35 75 c19 41 57 124 85 184 l50 110 -52 47 c-50 46 -176 124 -215 135 -17 4 -22 -4 -35 -64z"
       id="path28"
       style="fill:#66ff66" />
    <path
       d="M4345 7773 c-156 -14 -284 -61 -396 -144 -74 -55 -99 -83 -99 -112 0 -30 -206 -228 -287 -276 -133 -79 -197 -84 -498 -41 -77 11 -205 22 -285 26 -122 5 -152 4 -190 -11 -121 -45 -136 -48 -245 -49 -119 0 -208 15 -268 46 -22 11 -40 18 -42 16 -1 -2 -14 -39 -28 -83 -28 -87 -43 -155 -33 -155 3 0 30 17 59 37 73 52 152 82 213 83 42 0 55 -4 77 -28 19 -20 27 -39 27 -65 0 -20 2 -37 3 -37 2 0 30 9 63 20 93 33 274 60 396 60 l109 0 27 31 c14 18 44 40 67 50 74 34 203 20 248 -28 28 -29 76 -30 183 -3 109 28 186 69 297 159 125 102 184 139 260 163 76 24 239 29 309 9 44 -12 52 -12 97 8 165 71 313 67 470 -11 47 -24 79 -51 124 -103 75 -86 291 -301 317 -315 12 -6 -2 19 -33 63 -81 113 -126 232 -152 400 -8 53 -55 102 -117 123 -39 13 -83 16 -193 15 -79 -1 -150 2 -159 5 -23 9 -20 44 6 71 13 14 18 27 12 32 -20 19 -264 51 -339 44z"
       id="path30"
       style="fill:#ffccff" />
    <path
       d="M1993 7693 c-47 -65 -57 -96 -57 -178 0 -62 5 -89 21 -121 24 -44 50 -71 60 -60 26 25 44 306 24 359 -13 34 -22 34 -48 0z"
       id="path32"
       style="fill:#6699cc" />
    <path
       d="M4950 7713 c-14 -2 -43 -9 -65 -15 -40 -11 -39 -12 59 -24 73 -10 111 -21 148 -42 l51 -28 93 25 c52 14 94 29 94 33 0 4 -30 17 -67 29 -67 22 -249 35 -313 22z"
       id="path34"
       style="fill:#66ff66" />
    <path
       d="M2685 7685 c-44 -8 -86 -14 -92 -14 -27 -2 -9 -23 80 -94 168 -136 209 -186 186 -229 -10 -19 -18 -20 -84 -16 -52 4 -89 13 -129 32 -71 35 -159 129 -183 196 -10 28 -22 50 -26 50 -5 0 -45 -21 -88 -47 -72 -43 -238 -187 -227 -198 2 -3 22 0 44 6 23 7 87 9 154 7 126 -5 208 -28 259 -71 27 -22 39 -24 197 -30 93 -4 223 -14 289 -24 66 -10 176 -18 246 -18 122 0 126 1 192 34 64 33 204 152 209 179 2 9 -16 19 -51 28 -80 21 -214 87 -279 137 -54 43 -146 82 -124 54 5 -7 30 -38 55 -69 77 -96 152 -217 167 -268 18 -62 -42 -80 -115 -35 -109 67 -211 211 -237 335 -13 65 -21 70 -119 70 l-48 0 55 -72 c74 -98 126 -205 122 -249 -3 -31 -6 -34 -40 -37 -48 -4 -81 14 -146 79 -62 62 -113 160 -120 229 -4 49 -5 50 -36 49 -17 -1 -67 -7 -111 -14z"
       id="path36"
       style="fill:#ffccff" />
    <path
       d="M3418 7684 c-27 -8 -22 -16 30 -51 99 -68 310 -139 335 -114 17 17 -85 115 -146 142 -50 21 -180 34 -219 23z"
       id="path38"
       style="fill:#6699cc" />
    <path
       d="M2887 7643 c8 -52 41 -118 86 -169 38 -43 104 -91 113 -81 7 7 -40 100 -80 157 -36 53 -105 130 -117 130 -4 0 -5 -17 -2 -37z"
       id="path40"
       style="fill:#6699cc" />
    <path
       d="M3184 7624 c10 -49 47 -125 88 -177 32 -40 147 -131 155 -123 9 9 -125 203 -187 270 l-63 70 7 -40z"
       id="path42"
       style="fill:#6699cc" />
    <path
       d="M2511 7593 c22 -60 61 -113 106 -146 52 -38 128 -67 171 -67 25 1 23 5 -38 61 -80 74 -218 179 -236 179 -11 0 -11 -6 -3 -27z"
       id="path44"
       style="fill:#6699cc" />
    <path
       d="M5287 7589 c-110 -32 -120 -36 -111 -50 3 -5 10 -40 15 -77 5 -36 13 -70 18 -75 5 -5 41 -2 82 6 41 9 127 26 192 38 65 12 120 25 122 29 11 18 -174 161 -205 159 -8 0 -59 -14 -113 -30z"
       id="path46"
       style="fill:#66ff66" />
    <path
       d="M6025 7399 c-44 -93 -81 -176 -83 -183 -1 -7 29 -48 68 -92 69 -77 90 -95 90 -77 0 5 31 67 70 138 38 72 70 141 70 155 0 43 -105 231 -128 230 -4 -1 -43 -77 -87 -171z"
       id="path48"
       style="fill:#66ff66" />
    <path
       d="M6392 7483 c-24 -9 -72 -91 -97 -166 -55 -165 -32 -373 58 -504 25 -37 35 -39 78 -17 23 11 29 20 23 32 -64 148 -68 170 -68 347 0 159 1 175 26 243 24 64 25 72 10 71 -9 0 -23 -3 -30 -6z"
       id="path50"
       style="fill:#6666ff" />
    <path
       d="M1575 7446 c-17 -12 -17 -17 -5 -45 26 -64 115 -100 159 -64 23 19 24 20 6 57 -10 20 -30 43 -46 51 -35 19 -89 19 -114 1z"
       id="path52"
       style="fill:#cc3366" />
    <path
       d="M4565 7443 c-37 -8 -147 -43 -156 -49 -5 -3 10 -27 34 -54 44 -48 117 -175 117 -202 0 -30 28 -49 100 -67 41 -10 76 -18 77 -17 1 1 -8 29 -22 61 -46 116 -42 218 9 231 49 12 136 -59 184 -151 22 -43 26 -64 28 -145 l1 -95 102 -99 101 -100 0 122 c0 114 1 123 24 149 l24 28 -71 75 c-40 42 -103 111 -140 153 -37 42 -87 88 -111 102 -77 45 -230 75 -301 58z"
       id="path54"
       style="fill:#ffccff" />
    <path
       d="M6471 7423 c-21 -54 -41 -175 -41 -252 0 -90 37 -249 72 -314 17 -31 30 -43 50 -45 38 -5 43 21 43 213 0 125 -4 173 -19 220 -18 61 -81 205 -89 205 -3 0 -10 -12 -16 -27z"
       id="path56"
       style="fill:#6666ff" />
    <path
       d="M4071 7395 c-94 -21 -152 -53 -278 -153 -61 -49 -136 -103 -166 -120 -67 -38 -170 -69 -265 -81 -61 -8 -77 -14 -100 -39 -46 -49 -103 -72 -177 -72 -76 0 -123 17 -152 54 -20 25 -25 26 -120 26 -114 0 -254 -22 -363 -56 -93 -29 -115 -44 -141 -97 -30 -60 -85 -124 -131 -155 l-40 -26 27 -8 c30 -8 156 4 228 22 41 11 48 16 56 47 28 99 131 173 242 173 50 0 60 -3 78 -26 12 -15 21 -33 21 -40 0 -11 26 -14 123 -14 90 0 141 -5 191 -19 l69 -19 81 50 c161 102 324 160 537 193 20 3 54 20 75 37 22 17 64 42 94 57 48 23 68 26 155 26 83 0 108 -4 147 -23 48 -22 128 -30 128 -12 0 6 -4 10 -9 10 -26 0 -151 198 -151 239 0 11 -3 22 -7 24 -23 13 -96 14 -152 2z"
       id="path58"
       style="fill:#99ccff" />
    <path
       d="M5525 7386 c-60 -13 -141 -29 -180 -36 -38 -7 -83 -18 -98 -24 l-28 -11 46 -90 c25 -49 51 -95 58 -102 9 -9 69 0 262 38 138 27 251 49 253 49 20 1 -119 164 -160 186 -28 16 -20 17 -153 -10z"
       id="path60"
       style="fill:#66ff66" />
    <path
       d="M4280 7384 c0 -28 62 -134 107 -185 46 -51 110 -96 121 -85 3 4 -9 36 -27 73 -34 69 -117 165 -170 196 -28 17 -31 17 -31 1z"
       id="path62"
       style="fill:#66ff66" />
    <path
       d="M2161 7314 c-58 -16 -84 -31 -75 -45 3 -5 37 -19 77 -31 91 -28 234 -30 320 -5 85 26 73 47 -45 78 -85 23 -200 24 -277 3z"
       id="path64"
       style="fill:#6699cc" />
    <path
       d="M4736 7281 c-10 -15 12 -109 39 -165 27 -58 92 -129 108 -119 17 10 -1 129 -27 181 -23 46 -86 112 -106 112 -5 0 -11 -4 -14 -9z"
       id="path66"
       style="fill:#66ff66" />
    <path
       d="M1623 7158 c-35 -68 -15 -248 37 -333 l20 -33 50 19 c28 10 65 19 84 19 52 0 58 15 42 103 -19 95 -35 127 -104 199 -67 71 -101 77 -129 26z"
       id="path68"
       style="fill:#cc99ff" />
    <path
       d="M5750 7140 c-291 -61 -361 -77 -368 -85 -19 -20 234 -213 263 -201 5 2 42 18 80 35 39 17 122 49 185 72 63 22 118 43 123 46 4 2 -12 26 -37 51 -24 26 -56 62 -71 80 -15 17 -30 32 -33 31 -4 0 -68 -14 -142 -29z"
       id="path70"
       style="fill:#66ff66" />
    <path
       d="M1452 7113 c-50 -24 -76 -68 -77 -127 l0 -50 43 -12 c23 -7 70 -27 103 -44 61 -31 62 -31 55 -8 -19 67 -28 140 -22 196 l5 62 -37 0 c-20 0 -52 -8 -70 -17z"
       id="path72"
       style="fill:#ccffff" />
    <path
       d="M6167 7066 l-38 -69 57 -58 c32 -32 60 -57 62 -55 2 2 -4 29 -13 61 -9 31 -20 86 -23 123 l-7 67 -38 -69z"
       id="path74"
       style="fill:#66ff66" />
    <path
       d="M6660 7093 c-1 -85 -11 -201 -22 -256 -6 -32 -8 -60 -5 -64 3 -3 18 10 33 28 15 19 61 66 102 105 l74 71 -15 29 c-27 51 -119 124 -157 124 -5 0 -10 -17 -10 -37z"
       id="path76"
       style="fill:#99ccff" />
    <path
       d="M3044 7096 c-17 -7 -41 -26 -53 -42 -22 -27 -22 -28 -2 -47 40 -40 156 -32 215 14 53 41 21 78 -73 85 -35 3 -67 -1 -87 -10z"
       id="path78"
       style="fill:#cc6666" />
    <path
       d="M4010 7090 c-90 -33 -132 -72 -88 -84 75 -20 231 12 285 58 l27 24 -39 11 c-59 16 -123 13 -185 -9z"
       id="path80"
       style="fill:#66ff66" />
    <path
       d="M2166 7039 c-87 -35 -185 -117 -218 -182 -14 -28 -13 -29 50 -94 l65 -66 34 19 c91 48 169 148 194 247 23 94 -18 119 -125 76z"
       id="path82"
       style="fill:#cc99ff" />
    <path
       d="M4233 7016 c-43 -25 -96 -48 -129 -55 -84 -16 -189 -14 -226 5 -43 22 -132 13 -274 -27 -194 -55 -369 -156 -519 -301 l-80 -76 24 -26 c64 -68 -11 -146 -160 -166 -73 -9 -75 -10 -140 -73 -37 -35 -87 -73 -112 -85 -41 -19 -46 -26 -57 -71 -6 -28 -31 -89 -55 -136 l-42 -85 33 -19 c46 -27 67 -65 67 -118 0 -40 -4 -50 -36 -80 -34 -31 -41 -33 -108 -33 -60 0 -75 4 -103 25 -18 14 -37 25 -43 25 -17 0 -103 -98 -117 -133 -8 -17 -17 -52 -21 -77 -4 -25 -19 -101 -33 -170 -36 -177 -37 -386 -3 -514 24 -91 78 -242 111 -306 50 -100 72 -192 77 -330 5 -123 -4 -237 -22 -283 -6 -14 0 -13 36 8 60 34 121 34 165 0 135 -103 214 -428 169 -696 -9 -57 -23 -119 -31 -138 -8 -19 -12 -37 -9 -39 3 -3 34 21 68 55 75 73 119 102 217 139 70 26 85 28 225 29 144 0 152 -1 210 -28 67 -31 91 -51 110 -87 60 -117 -20 -298 -211 -480 -38 -36 -84 -77 -102 -91 l-33 -25 25 -54 c20 -43 25 -67 22 -119 -1 -36 -9 -79 -18 -96 l-16 -30 57 -52 c79 -71 163 -176 201 -251 29 -57 31 -70 28 -135 l-3 -72 82 -27 c243 -80 561 -94 813 -37 37 8 49 16 65 47 11 20 40 50 63 67 40 27 50 30 115 28 40 -1 128 -3 197 -5 120 -3 127 -2 182 25 63 31 102 76 125 145 24 70 52 82 78 32 9 -16 22 -30 31 -30 21 0 129 56 204 106 36 24 99 78 140 121 169 174 178 182 213 188 19 4 64 28 99 53 35 26 83 56 106 66 23 11 42 22 42 26 0 4 -17 10 -37 13 -49 8 -141 64 -161 98 -23 39 -8 77 52 134 l53 50 1 76 c0 84 13 118 63 168 44 45 85 63 154 70 l59 6 8 39 c7 33 5 45 -16 75 -51 74 -60 146 -26 216 23 47 64 81 129 106 48 17 68 43 128 162 31 61 32 136 3 231 -13 42 -19 81 -16 99 3 16 -1 66 -10 110 -12 60 -15 113 -12 201 l5 121 -28 32 c-37 43 -45 102 -26 190 8 37 16 112 17 165 2 149 36 254 127 390 91 138 93 177 19 342 l-54 120 -12 -45 c-30 -117 -68 -209 -112 -272 l-20 -28 22 -24 c65 -69 53 -199 -22 -245 -66 -40 -155 -17 -199 52 -16 26 -19 45 -16 91 4 72 34 106 122 140 56 22 61 26 96 92 51 95 111 305 88 305 -6 0 -50 -33 -97 -73 -48 -41 -108 -88 -133 -105 -105 -71 -220 -92 -273 -51 -35 27 -60 114 -52 183 23 217 122 429 270 577 25 26 46 50 46 53 0 4 -33 -15 -72 -43 -75 -50 -207 -179 -209 -203 0 -7 0 -31 0 -53 3 -77 -70 -145 -139 -130 -36 8 -50 24 -60 72 -16 70 41 143 113 143 22 0 44 17 103 79 74 78 172 152 259 194 25 12 45 24 45 27 0 9 -138 -6 -188 -20 -24 -6 -72 -25 -107 -41 l-63 -30 -4 -59 c-3 -44 -11 -67 -32 -95 -30 -38 -94 -74 -134 -75 -57 0 -112 56 -112 115 0 36 24 90 53 119 l25 25 -57 22 c-31 12 -86 37 -124 56 l-68 34 -37 -30 c-52 -42 -128 -69 -214 -77 -99 -8 -186 8 -215 41 -21 24 -22 28 -8 49 31 48 142 88 278 102 37 4 67 10 67 13 0 4 -31 37 -69 75 l-70 69 -49 -41 c-122 -102 -320 -153 -376 -96 -25 24 -19 48 25 98 55 62 152 116 224 123 30 3 55 10 55 14 0 15 -81 61 -165 96 l-80 32 -11 -38 c-42 -138 -172 -241 -305 -241 -66 0 -89 13 -89 50 0 36 85 131 177 197 35 24 63 48 63 52 0 8 -106 21 -165 21 -18 0 -60 -18 -102 -44z"
       id="path84"
       style="fill:none" />
    <path
       d="M7122 7019 c-160 -28 -326 -131 -413 -256 -30 -44 -34 -59 -20 -82 7 -10 22 -5 70 29 90 60 243 134 351 170 88 28 183 47 350 68 l65 9 -69 33 c-64 31 -79 34 -175 36 -58 2 -130 -1 -159 -7z"
       id="path86"
       style="fill:#6666ff" />
    <path
       d="M4539 6988 c-65 -37 -192 -140 -214 -174 -15 -23 -15 -24 14 -24 67 0 170 54 215 113 31 41 59 104 48 111 -5 3 -33 -9 -63 -26z"
       id="path88"
       style="fill:#66ff66" />
    <path
       d="M5196 6983 c-21 -22 5 -268 32 -295 20 -20 36 35 36 122 0 69 -4 93 -22 127 -23 44 -35 56 -46 46z"
       id="path90"
       style="fill:#66ff66" />
    <path
       d="M5290 6967 c0 -2 7 -21 15 -40 22 -52 19 -165 -5 -234 -16 -46 -17 -60 -7 -69 17 -17 181 -104 195 -104 6 0 1 22 -13 53 -19 40 -25 69 -25 125 0 95 9 112 61 112 33 0 46 -7 82 -43 62 -61 88 -121 94 -218 4 -55 10 -82 20 -86 7 -3 51 11 97 31 47 20 107 41 136 48 l51 12 -72 33 c-85 39 -179 101 -234 154 -22 21 -69 51 -105 67 -61 28 -201 105 -262 146 -16 10 -28 16 -28 13z"
       id="path92"
       style="fill:#ffccff" />
    <path
       d="M6008 6941 c-37 -14 -68 -29 -68 -32 0 -4 21 -9 48 -13 26 -3 81 -15 122 -25 41 -11 76 -18 77 -17 1 1 -23 27 -55 57 l-57 56 -67 -26z"
       id="path94"
       style="fill:#00ff66" />
    <path
       d="M7435 6893 c-149 -13 -350 -70 -480 -136 -87 -43 -227 -130 -244 -151 -16 -19 13 -26 139 -33 173 -9 326 33 478 131 72 47 192 161 192 183 0 13 -5 13 -85 6z"
       id="path96"
       style="fill:#6666ff" />
    <path
       d="M1248 6879 c-54 -20 -41 -80 37 -167 55 -61 135 -102 215 -109 l57 -6 17 48 c9 27 24 57 33 67 17 19 15 21 -27 60 -51 45 -116 81 -175 96 -67 17 -129 21 -157 11z"
       id="path98"
       style="fill:#cc99ff" />
    <path
       d="M2625 6848 c-62 -22 -125 -91 -125 -137 0 -18 44 -23 89 -11 67 18 157 111 144 148 -6 14 -66 15 -108 0z"
       id="path100"
       style="fill:#cc3366" />
    <path
       d="M5745 6842 c19 -19 320 -109 472 -141 81 -18 103 -15 103 14 0 17 -147 83 -233 106 -80 22 -360 39 -342 21z"
       id="path102"
       style="fill:#6666ff" />
    <path
       d="M4815 6812 c-55 -19 -98 -47 -143 -92 -38 -37 -22 -45 62 -29 91 18 236 97 236 130 0 15 -102 9 -155 -9z"
       id="path104"
       style="fill:#66ff66" />
    <path
       d="M1761 6766 c-100 -33 -167 -146 -134 -228 21 -52 73 -77 159 -78 50 0 68 5 107 30 53 33 97 97 104 149 12 98 -115 166 -236 127z m130 -56 c72 -37 76 -95 10 -161 -109 -109 -288 -18 -211 108 23 38 82 72 128 73 18 0 51 -9 73 -20z"
       id="path106"
       style="fill:#ff6699" />
    <path
       d="M1762 6664 c-12 -8 -29 -29 -38 -47 -16 -30 -16 -32 6 -49 36 -29 93 -24 135 13 43 38 45 63 5 84 -37 19 -80 19 -108 -1z"
       id="path108"
       style="fill:#ffff33" />
    <path
       d="M2804 6766 c-22 -7 -66 -34 -97 -59 -67 -55 -120 -71 -198 -63 -53 6 -89 1 -222 -32 l-28 -7 48 -31 c64 -41 166 -81 229 -89 51 -7 53 -6 96 34 80 73 185 104 274 82 l47 -12 79 78 c43 43 78 80 78 84 0 12 -114 29 -189 28 -42 0 -94 -6 -117 -13z"
       id="path110"
       style="fill:#99ccff" />
    <path
       d="M5739 6766 c26 -31 160 -115 223 -140 85 -33 151 -46 244 -46 72 0 74 1 74 25 0 19 -7 26 -27 31 -140 33 -317 81 -405 110 -121 39 -125 39 -109 20z"
       id="path112"
       style="fill:#6666ff" />
    <path
       d="M5503 6745 c-11 -31 5 -117 33 -172 27 -53 77 -103 89 -91 4 3 6 32 7 65 1 65 -21 118 -73 178 -34 38 -47 43 -56 20z"
       id="path114"
       style="fill:#66ff66" />
    <path
       d="M6442 6739 c-111 -55 -138 -185 -53 -261 136 -122 321 33 240 200 -39 79 -106 101 -187 61z"
       id="path116"
       style="fill:#ffcc00" />
    <path
       d="M1185 6560 c-46 -48 -74 -85 -69 -90 5 -5 48 -14 96 -21 l88 -12 48 45 c27 25 59 51 72 58 23 12 21 13 -35 36 -33 13 -68 33 -80 44 -12 11 -26 20 -31 20 -6 0 -46 -36 -89 -80z"
       id="path118"
       style="fill:#66ff66" />
    <path
       d="M5035 6575 c-84 -18 -164 -54 -145 -64 70 -38 293 -3 339 53 23 27 -90 34 -194 11z"
       id="path120"
       style="fill:#66ff66" />
    <path
       d="M2025 6550 c-8 -16 -29 -46 -47 -65 l-31 -36 64 -62 c79 -76 141 -102 245 -102 79 1 124 21 124 56 0 59 -129 178 -236 218 -77 29 -100 27 -119 -9z"
       id="path122"
       style="fill:#cc99ff" />
    <path
       d="M7117 6549 c-38 -10 -102 -23 -144 -29 -42 -6 -78 -12 -80 -14 -2 -2 27 -21 64 -42 65 -38 183 -144 216 -193 13 -20 19 -22 31 -12 24 20 66 112 66 145 0 68 -45 167 -73 165 -7 -1 -43 -9 -80 -20z"
       id="path124"
       style="fill:#99ccff" />
    <path
       d="M2755 6539 c-39 -11 -100 -73 -92 -93 14 -36 223 -34 295 3 23 12 42 26 42 32 0 18 -49 56 -81 63 -43 8 -128 6 -164 -5z"
       id="path126"
       style="fill:#ff6666" />
    <path
       d="M1472 6502 c-119 -62 -210 -192 -180 -258 14 -31 43 -38 114 -29 84 10 169 59 225 128 l47 59 -64 64 c-35 35 -70 64 -77 64 -6 -1 -36 -13 -65 -28z"
       id="path128"
       style="fill:#cc99ff" />
    <path
       d="M6686 6502 c-3 -5 25 -30 62 -54 87 -58 160 -125 240 -218 76 -89 172 -275 201 -394 11 -43 22 -80 25 -84 12 -11 46 32 52 66 9 48 -12 163 -48 252 -68 173 -185 299 -354 381 -103 51 -167 69 -178 51z"
       id="path130"
       style="fill:#6666ff" />
    <path
       d="M2370 6474 c0 -2 13 -22 29 -45 52 -71 50 -118 -8 -166 l-26 -21 28 -7 c42 -11 142 2 193 24 43 19 134 89 134 102 0 4 -12 10 -27 14 -16 3 -44 17 -63 30 -23 15 -58 25 -99 30 -36 3 -86 15 -113 25 -26 10 -48 16 -48 14z"
       id="path132"
       style="fill:#ccffff" />
    <path
       d="M6224 6447 c-178 -111 -285 -241 -362 -437 -37 -96 -70 -274 -53 -285 13 -7 149 142 245 270 118 156 266 416 266 465 0 29 -35 25 -96 -13z"
       id="path134"
       style="fill:#6666ff" />
    <path
       d="M6620 6422 c-22 -18 -22 -19 -6 -76 21 -71 92 -208 144 -278 43 -57 143 -156 207 -205 49 -38 174 -107 181 -101 9 9 -16 97 -50 183 -69 172 -211 348 -361 448 -39 26 -75 47 -81 47 -7 0 -22 -8 -34 -18z"
       id="path136"
       style="fill:#6666ff" />
    <path
       d="M1857 6414 c-3 -3 -30 -9 -59 -13 l-53 -6 -3 -63 c-4 -95 13 -163 61 -234 44 -66 116 -128 148 -128 54 0 73 176 30 295 -37 103 -97 176 -124 149z"
       id="path138"
       style="fill:#cc99ff" />
    <path
       d="M6335 6346 c-81 -151 -99 -183 -144 -251 -86 -132 -280 -369 -337 -414 -28 -22 -30 -36 -8 -45 53 -20 146 18 271 113 182 137 312 319 379 530 30 94 30 101 -1 101 -14 0 -47 8 -74 19 l-48 18 -38 -71z"
       id="path140"
       style="fill:#6666ff" />
    <path
       d="M1061 6396 c-18 -22 -68 -165 -80 -230 -13 -71 -4 -89 43 -81 17 3 85 9 152 15 66 5 134 15 152 21 39 13 43 39 6 39 -35 0 -80 28 -93 57 -15 32 -14 63 4 113 8 23 15 46 15 50 0 7 -122 30 -163 30 -14 0 -30 -6 -36 -14z"
       id="path142"
       style="fill:#66ff66" />
    <path
       d="M5567 6380 c-14 -11 -31 -36 -37 -56 -10 -29 -9 -39 4 -59 39 -59 166 4 166 82 0 50 -84 71 -133 33z"
       id="path144"
       style="fill:#cc6666" />
    <path
       d="M1655 6286 c-17 -25 -16 -29 66 -201 45 -96 86 -175 89 -175 4 0 12 11 20 24 11 22 9 29 -35 83 -27 32 -58 81 -71 109 -21 47 -25 65 -39 148 -6 40 -11 42 -30 12z"
       id="path146"
       style="fill:#66ff66" />
    <path
       d="M2045 6258 c3 -13 9 -67 12 -120 6 -109 -2 -99 77 -83 50 10 107 77 130 151 6 20 2 22 -57 27 -34 3 -84 15 -111 26 -59 26 -60 26 -51 -1z"
       id="path148"
       style="fill:#ccccff" />
    <path
       d="M1505 6185 c-43 -20 -79 -45 -93 -64 l-23 -32 102 -199 c57 -110 106 -200 110 -200 25 0 169 141 169 165 0 18 -176 365 -185 364 -5 0 -41 -15 -80 -34z"
       id="path150"
       style="fill:#66ff66" />
    <path
       d="M6595 6123 c6 -102 11 -148 25 -248 5 -33 8 -121 7 -195 -2 -122 -5 -141 -29 -200 l-28 -65 51 54 c96 103 168 228 205 360 l16 60 -51 57 c-65 71 -132 165 -162 227 -13 26 -27 47 -32 47 -5 0 -6 -42 -2 -97z"
       id="path152"
       style="fill:#6666ff" />
    <path
       d="M6520 6190 c0 -19 -69 -156 -104 -207 -32 -47 -34 -53 -25 -94 18 -79 47 -162 84 -244 21 -44 43 -102 49 -130 l12 -50 18 50 c26 74 31 201 13 356 -24 198 -26 219 -26 277 -1 28 -5 52 -11 52 -5 0 -10 -5 -10 -10z"
       id="path154"
       style="fill:#6666ff" />
    <path
       d="M2296 6142 c-45 -89 -111 -137 -204 -151 -64 -9 -66 -31 -10 -85 40 -38 100 -66 141 -66 9 0 32 13 50 30 19 16 54 38 79 49 25 11 57 34 70 53 31 41 76 137 84 178 l7 30 -59 0 c-33 0 -76 3 -96 6 -36 6 -37 5 -62 -44z"
       id="path156"
       style="fill:#9999ff" />
    <path
       d="M5662 6127 c-34 -36 -27 -87 12 -87 29 0 43 11 55 43 22 58 -25 89 -67 44z"
       id="path158"
       style="fill:#cc3366" />
    <path
       d="M1185 6049 c-44 -4 -112 -11 -151 -14 l-72 -7 5 -56 c12 -155 32 -252 50 -252 5 0 48 17 98 39 74 32 91 43 98 67 5 16 27 73 48 128 22 54 39 100 39 102 0 5 -7 4 -115 -7z"
       id="path160"
       style="fill:#66ff66" />
    <path
       d="M1327 5973 c-14 -32 -35 -86 -47 -120 l-22 -62 56 -93 c31 -51 60 -99 65 -107 7 -11 23 -7 85 25 42 21 76 42 76 47 0 9 -179 367 -184 367 -2 0 -15 -26 -29 -57z"
       id="path162"
       style="fill:#66ff66" />
    <path
       d="M862 5908 c-82 -187 -122 -385 -117 -571 l3 -98 64 -67 c76 -79 101 -138 100 -241 0 -75 -20 -139 -60 -190 -34 -45 -34 -89 -2 -186 22 -67 29 -75 224 -275 111 -113 202 -206 203 -205 1 0 -16 59 -37 130 -21 72 -44 155 -50 187 -10 52 -14 57 -50 72 -58 23 -93 75 -98 147 -6 87 4 124 48 170 l40 42 -73 77 c-85 91 -139 179 -170 275 -32 102 -31 280 2 385 13 41 32 92 43 113 17 33 18 46 9 86 -10 47 -16 83 -27 181 -3 30 -7 56 -8 58 -2 1 -21 -39 -44 -90z"
       id="path164"
       style="fill:#ffccff" />
    <path
       d="M7475 5915 c-35 -34 -33 -78 4 -116 36 -36 81 -39 111 -7 30 33 26 83 -9 119 -36 36 -73 37 -106 4z"
       id="path166"
       style="fill:#cc3366" />
    <path
       d="M1854 5873 c-20 -32 -73 -94 -118 -138 -64 -64 -102 -92 -182 -134 -139 -72 -157 -92 -162 -182 -4 -62 1 -87 39 -206 33 -102 41 -138 33 -151 -26 -40 -75 -20 -167 67 l-38 36 -19 -25 c-27 -36 -43 -120 -38 -213 3 -76 5 -81 33 -101 17 -12 47 -38 67 -59 l37 -39 51 11 c28 6 75 11 104 11 60 0 65 4 90 72 l18 48 -41 47 c-53 64 -72 111 -81 209 -5 62 -12 88 -31 113 -36 49 -34 134 4 184 33 44 74 67 118 67 54 0 115 37 187 115 81 87 152 214 155 277 3 60 -16 57 -59 -9z"
       id="path168"
       style="fill:#9999ff" />
    <path
       d="M1971 5868 c-32 -126 -125 -265 -243 -364 -46 -39 -55 -51 -47 -65 5 -10 9 -44 9 -77 0 -78 -26 -117 -104 -156 l-58 -30 4 -55 c4 -61 38 -138 74 -172 l22 -21 13 24 c65 125 116 219 136 250 13 21 23 40 23 43 0 12 125 192 168 243 25 30 62 65 83 78 22 13 51 43 65 66 15 23 49 66 77 95 l49 52 -28 6 c-91 20 -131 40 -178 86 -27 27 -50 49 -51 49 0 0 -7 -24 -14 -52z"
       id="path170"
       style="fill:#9999ff" />
    <path
       d="M2341 5856 c-46 -25 -45 -62 2 -113 16 -18 31 -23 72 -23 66 0 95 20 95 65 0 68 -99 110 -169 71z"
       id="path172"
       style="fill:#cc3366" />
    <path
       d="M6914 5790 c9 -60 52 -135 105 -186 67 -65 83 -70 128 -48 28 14 60 19 120 19 74 0 85 -3 125 -30 24 -18 54 -50 68 -77 20 -39 22 -50 13 -71 -20 -44 -57 -60 -136 -60 -77 0 -128 16 -183 58 -18 14 -35 25 -38 25 -3 0 -6 -21 -6 -47 0 -77 35 -224 68 -290 35 -68 119 -164 182 -208 43 -30 196 -88 210 -80 19 12 -5 46 -46 66 -121 58 -217 226 -208 362 3 42 26 85 50 94 69 26 199 -131 250 -302 l18 -60 7 40 c13 66 10 246 -5 316 -31 146 -152 312 -279 384 -57 31 -63 33 -88 19 -34 -17 -104 -18 -150 -2 -30 10 -112 57 -188 107 l-24 15 7 -44z"
       id="path174"
       style="fill:#ffccff" />
    <path
       d="M1101 5693 c-82 -42 -81 -32 -19 -158 38 -76 181 -299 199 -310 4 -3 -8 28 -27 69 -53 115 -68 185 -68 319 0 64 -3 117 -7 117 -4 0 -39 -16 -78 -37z"
       id="path176"
       style="fill:#66ff66" />
    <path
       d="M1243 5578 c3 -71 11 -140 20 -164 34 -92 94 -210 103 -201 2 2 -2 26 -10 53 -25 84 -29 142 -16 204 l12 58 -51 86 c-29 47 -55 86 -58 86 -3 0 -3 -55 0 -122z"
       id="path178"
       style="fill:#66ff66" />
    <path
       d="M6903 5501 l2 -150 31 -33 c74 -78 163 -265 219 -459 30 -103 40 -165 49 -292 10 -151 -73 -355 -180 -445 -42 -35 -44 -39 -44 -92 0 -30 -5 -86 -10 -124 -10 -65 -9 -71 12 -93 44 -47 19 -131 -46 -158 -22 -9 -38 -26 -49 -52 -19 -44 -36 -116 -37 -155 0 -26 5 -23 78 50 66 65 79 83 80 112 2 91 129 162 202 114 79 -53 141 -139 155 -217 4 -20 10 -37 14 -37 3 0 34 43 67 94 l62 95 -64 37 c-139 81 -280 270 -260 349 6 22 12 25 49 25 28 0 59 -10 92 -29 57 -33 172 -150 207 -211 13 -22 25 -40 28 -40 8 0 62 197 68 246 l4 41 -58 5 c-116 11 -263 108 -313 207 -28 55 -27 87 4 107 22 15 32 15 68 4 80 -24 219 -103 285 -163 l23 -21 -3 124 -3 125 -71 6 c-111 10 -204 60 -273 148 -63 79 -46 128 40 118 54 -7 175 -59 243 -106 25 -18 46 -28 46 -24 -1 4 -6 34 -13 67 l-12 58 -71 18 c-233 60 -405 239 -448 469 -9 46 -16 127 -16 180 l0 97 -61 53 c-33 30 -65 64 -71 77 -6 13 -15 24 -19 24 -4 0 -7 -67 -6 -149z"
       id="path180"
       style="fill:#ffccff" />
    <path
       d="M950 5578 c-16 -39 -23 -81 -27 -158 -10 -195 22 -301 136 -442 70 -89 88 -97 83 -38 -5 54 23 175 53 228 l24 43 -62 92 c-34 51 -88 144 -120 207 -32 63 -59 116 -61 117 -2 2 -13 -20 -26 -49z"
       id="path182"
       style="fill:#9999ff" />
    <path
       d="M6781 5591 c-55 -107 -243 -295 -324 -323 -57 -21 -125 -188 -134 -332 l-6 -89 47 28 c29 17 69 30 104 34 l56 6 68 135 c72 145 152 327 174 400 22 71 45 173 40 177 -3 3 -14 -13 -25 -36z"
       id="path184"
       style="fill:#99ccff" />
    <path
       d="M6845 5528 c-2 -7 -11 -38 -20 -68 -28 -91 -120 -307 -190 -444 l-65 -128 20 -28 c31 -44 50 -131 39 -180 -12 -51 -40 -109 -66 -132 -28 -26 -99 -48 -154 -48 -55 0 -51 8 -55 -105 -3 -95 12 -217 31 -255 9 -17 44 -62 79 -100 120 -131 201 -251 267 -400 33 -73 33 -79 34 -210 0 -74 -3 -150 -7 -167 -4 -19 -4 -33 2 -33 23 0 34 54 41 199 l7 155 -43 60 c-56 80 -108 186 -147 299 -29 85 -32 104 -36 258 -2 92 1 202 6 245 14 102 59 253 112 379 95 224 130 350 144 510 13 156 16 205 11 205 -3 0 -7 -6 -10 -12z"
       id="path186"
       style="fill:#99ccff" />
    <path
       d="M7188 5513 c-21 -8 -38 -21 -38 -27 0 -16 48 -60 87 -80 32 -16 135 -22 167 -10 40 15 -2 85 -68 115 -50 22 -98 23 -148 2z"
       id="path188"
       style="fill:#cc3366" />
    <path
       d="M1513 5406 c-29 -26 -37 -41 -37 -68 0 -88 68 -116 130 -54 27 27 34 42 34 73 0 86 -61 110 -127 49z"
       id="path190"
       style="fill:#cc6666" />
    <path
       d="M1928 5343 c-36 -54 -94 -147 -128 -207 l-63 -109 41 -39 c23 -21 45 -38 51 -38 5 0 17 35 26 78 20 90 74 249 116 341 16 35 28 66 26 68 -2 2 -33 -41 -69 -94z"
       id="path192"
       style="fill:#33cc33" />
    <path
       d="M2051 5419 c-5 -13 -25 -61 -44 -106 -50 -115 -127 -368 -115 -378 2 -1 31 10 66 26 l62 28 0 88 c0 91 22 263 41 321 13 39 4 57 -10 21z"
       id="path194"
       style="fill:#33cc33" />
    <path
       d="M6088 5353 c-47 -50 -46 -106 3 -152 54 -50 139 -1 139 79 0 33 -6 48 -29 71 -38 38 -78 38 -113 2z"
       id="path196"
       style="fill:#cc6666" />
    <path
       d="M7375 5242 c-8 -38 9 -142 31 -184 43 -85 154 -179 168 -143 10 27 -12 112 -48 182 -32 64 -118 173 -136 173 -5 0 -11 -13 -15 -28z"
       id="path198"
       style="fill:#ff6666" />
    <path
       d="M6881 5195 c-17 -89 -62 -224 -121 -365 -94 -225 -130 -383 -130 -580 0 -194 45 -353 146 -521 27 -44 54 -79 61 -79 18 0 16 11 -7 40 -29 37 -26 91 8 122 15 14 35 28 45 31 25 9 35 43 43 151 l7 95 -36 14 c-51 22 -113 90 -148 164 -29 61 -31 72 -30 173 0 132 11 166 122 396 l83 169 0 90 c0 60 -5 102 -16 125 l-15 35 -12 -60z"
       id="path200"
       style="fill:#99ccff" />
    <path
       d="M695 5163 c-28 -27 -37 -64 -37 -146 -1 -66 4 -86 30 -140 39 -78 86 -126 109 -111 38 23 58 85 58 174 0 72 -4 91 -24 125 -32 53 -60 84 -93 101 -23 12 -29 12 -43 -3z"
       id="path202"
       style="fill:#ccff33" />
    <path
       d="M7032 4875 c-2 -126 -6 -158 -33 -247 -39 -134 -55 -279 -43 -382 5 -48 14 -81 22 -84 37 -12 142 170 163 283 12 64 6 228 -11 305 -17 71 -81 270 -89 270 -3 0 -7 -65 -9 -145z"
       id="path204"
       style="fill:#00ff99" />
    <path
       d="M6912 4864 c-118 -236 -135 -286 -140 -399 -4 -90 -1 -107 20 -158 23 -55 90 -147 107 -147 4 0 6 57 3 128 -4 132 11 252 44 344 33 92 60 358 36 358 -4 0 -36 -56 -70 -126z"
       id="path206"
       style="fill:#00ff99" />
    <path
       d="M1689 4922 c-12 -26 -37 -82 -54 -124 l-33 -76 37 -35 c40 -38 154 -127 163 -127 5 0 11 54 24 218 l7 83 -44 45 c-68 70 -73 71 -100 16z"
       id="path208"
       style="fill:#33cc33" />
    <path
       d="M7841 4937 c-24 -12 -63 -39 -87 -60 -46 -40 -100 -135 -85 -150 14 -14 120 43 168 92 41 41 83 107 83 131 0 16 -32 11 -79 -13z"
       id="path210"
       style="fill:#ccff99" />
    <path
       d="M1948 4899 c-65 -36 -64 -34 -73 -184 -3 -55 -8 -112 -11 -127 -3 -16 -3 -28 0 -28 12 0 205 100 210 109 5 7 -28 167 -50 244 -7 22 -9 22 -76 -14z"
       id="path212"
       style="fill:#33cc33" />
    <path
       d="M6420 4844 c-97 -42 -153 -167 -107 -238 57 -86 211 -62 253 41 21 49 17 119 -7 163 -30 52 -73 63 -139 34z"
       id="path214"
       style="fill:#cc6666" />
    <path
       d="M620 4774 c-34 -39 -34 -58 -3 -159 54 -174 178 -319 405 -470 140 -94 193 -142 276 -250 l23 -30 -16 39 c-34 86 -90 157 -250 316 -91 91 -181 185 -199 210 -39 53 -72 138 -82 211 -6 46 -13 58 -65 110 l-58 58 -31 -35z"
       id="path216"
       style="fill:#9999ff" />
    <path
       d="M1145 4758 c-103 -81 -43 -283 72 -242 93 32 97 212 7 250 -43 18 -46 18 -79 -8z"
       id="path218"
       style="fill:#cc6666" />
    <path
       d="M497 4668 c-3 -18 -9 -64 -13 -103 -3 -38 -8 -79 -10 -90 -2 -11 -7 -83 -10 -160 l-7 -140 73 -27 c72 -27 72 -27 67 -5 -32 149 -50 249 -67 387 -12 90 -23 166 -24 168 -2 1 -6 -12 -9 -30z"
       id="path220"
       style="fill:#33cc33" />
    <path
       d="M1407 4690 c-41 -12 -57 -29 -57 -59 -1 -40 -33 -102 -76 -143 l-38 -38 12 -67 c6 -38 32 -131 56 -208 25 -77 51 -167 57 -200 16 -83 27 -88 27 -13 1 161 58 473 117 647 14 41 25 78 25 83 0 10 -86 9 -123 -2z"
       id="path222"
       style="fill:#99ccff" />
    <path
       d="M7310 4682 c0 -17 105 -108 151 -130 26 -13 71 -25 100 -29 l54 -6 -20 23 c-29 34 -129 96 -189 118 -80 30 -96 34 -96 24z"
       id="path224"
       style="fill:#ccff99" />
    <path
       d="M1571 4634 c-16 -36 -61 -199 -61 -223 0 -25 251 -196 261 -178 3 7 12 63 18 126 l13 113 -34 35 c-18 19 -67 61 -109 93 l-76 59 -12 -25z"
       id="path226"
       style="fill:#33cc33" />
    <path
       d="M1970 4547 l-115 -62 -12 -105 c-16 -146 -16 -183 0 -177 155 68 362 159 364 161 12 12 -92 246 -109 246 -7 0 -65 -28 -128 -63z"
       id="path228"
       style="fill:#33cc33" />
    <path
       d="M584 4503 c3 -16 10 -59 16 -98 13 -84 65 -321 78 -355 9 -24 9 -23 22 15 7 22 28 70 46 107 19 37 34 71 34 75 0 5 -31 45 -68 90 -38 45 -81 107 -96 138 -31 61 -40 69 -32 28z"
       id="path230"
       style="fill:#33cc33" />
    <path
       d="M7988 4520 c-51 -15 -191 -95 -232 -132 l-41 -37 55 -1 c90 0 126 15 196 84 35 34 64 70 64 79 0 19 -2 19 -42 7z"
       id="path232"
       style="fill:#ccff99" />
    <path
       d="M7297 4331 c9 -33 93 -119 147 -151 56 -32 133 -51 167 -43 19 5 18 8 -13 40 -45 47 -137 109 -214 144 -75 34 -94 36 -87 10z"
       id="path234"
       style="fill:#ccff99" />
    <path
       d="M1481 4302 c-5 -20 -14 -75 -21 -120 -10 -77 -10 -86 7 -104 20 -22 256 -196 277 -204 11 -4 14 24 18 133 3 86 1 143 -5 151 -9 11 -77 58 -224 154 l-42 27 -10 -37z"
       id="path236"
       style="fill:#33cc33" />
    <path
       d="M2045 4234 c-82 -36 -167 -72 -187 -81 -26 -10 -38 -22 -39 -37 -7 -106 -6 -266 1 -266 4 0 97 33 206 74 l199 74 8 38 c5 22 6 84 3 139 -3 55 -6 106 -6 113 0 22 -33 13 -185 -54z"
       id="path238"
       style="fill:#33cc33" />
    <path
       d="M792 4143 c-29 -63 -52 -132 -66 -194 -6 -28 25 -128 89 -286 38 -96 55 -109 55 -45 0 97 67 250 154 352 43 50 53 68 43 77 -12 11 -236 163 -240 163 -2 0 -17 -30 -35 -67z"
       id="path240"
       style="fill:#33cc33" />
    <path
       d="M460 4095 c0 -19 31 -309 34 -312 1 -1 33 -8 73 -17 39 -8 90 -24 113 -36 23 -12 44 -19 47 -17 7 8 -98 310 -115 330 -17 20 -113 67 -136 67 -9 0 -16 -7 -16 -15z"
       id="path242"
       style="fill:#33cc33" />
    <path
       d="M7930 4056 c-125 -43 -250 -108 -250 -130 0 -4 35 -7 78 -5 60 3 89 10 133 33 73 36 178 138 142 135 -5 0 -51 -15 -103 -33z"
       id="path244"
       style="fill:#ccff99" />
    <path
       d="M7260 3962 c35 -66 134 -172 199 -214 54 -34 64 -35 56 -5 -20 67 -130 195 -212 247 -71 45 -79 40 -43 -28z"
       id="path246"
       style="fill:#ccff99" />
    <path
       d="M1440 3896 l0 -114 63 -50 c101 -81 277 -270 341 -367 72 -108 83 -121 63 -75 -9 19 -31 72 -51 117 -47 109 -73 202 -85 298 -11 88 -15 94 -126 171 -27 19 -81 57 -120 84 -38 27 -73 50 -77 50 -5 0 -8 -51 -8 -114z"
       id="path248"
       style="fill:#33cc33" />
    <path
       d="M1076 3949 c-63 -66 -132 -198 -146 -279 -5 -30 -7 -97 -5 -148 2 -78 8 -102 30 -145 33 -64 178 -297 182 -293 2 1 -8 35 -21 74 -49 143 -61 218 -61 382 0 141 2 160 24 208 28 62 77 109 126 118 19 3 35 9 35 13 0 4 -25 34 -55 66 l-55 59 -54 -55z"
       id="path250"
       style="fill:#33cc33" />
    <path
       d="M6463 3947 c60 -158 97 -341 102 -507 3 -107 -1 -161 -20 -283 l-7 -48 52 38 c29 21 64 47 77 58 48 40 69 221 38 339 -21 81 -107 244 -178 338 -55 74 -75 94 -64 65z"
       id="path252"
       style="fill:#6699cc" />
    <path
       d="M2095 3891 c-159 -56 -248 -91 -262 -103 -33 -27 1 -190 77 -368 31 -74 65 -157 75 -185 27 -73 32 -74 34 -3 3 156 37 296 111 458 48 104 85 211 78 230 -2 5 -52 -8 -113 -29z"
       id="path254"
       style="fill:#33cc33" />
    <path
       d="M6415 3840 c-7 -59 -25 -103 -90 -213 -62 -107 -40 -266 54 -388 27 -35 60 -86 74 -113 l24 -48 12 63 c22 116 26 382 7 484 -15 78 -63 264 -71 273 -2 2 -6 -24 -10 -58z"
       id="path256"
       style="fill:#6699cc" />
    <path
       d="M2288 3832 c-77 -79 -140 -206 -184 -367 -27 -96 -28 -109 -28 -345 -1 -243 9 -395 24 -371 4 7 8 43 8 79 3 128 13 287 23 362 24 178 104 463 170 609 16 35 28 66 26 67 -2 2 -19 -13 -39 -34z"
       id="path258"
       style="fill:#0066ff" />
    <path
       d="M2377 3843 c-3 -10 -20 -52 -37 -93 -109 -261 -158 -491 -176 -832 -8 -149 -2 -194 27 -203 31 -10 53 17 98 119 96 219 139 423 138 661 0 200 -30 412 -50 348z"
       id="path260"
       style="fill:#6699ff" />
    <path
       d="M2453 3825 c24 -123 29 -200 24 -373 -8 -263 -39 -412 -129 -615 -22 -51 -46 -107 -54 -124 -25 -58 3 -35 73 60 119 158 168 254 205 391 30 114 30 306 0 429 -24 97 -79 224 -107 247 -16 14 -17 13 -12 -15z"
       id="path262"
       style="fill:#6699ff" />
    <path
       d="M1417 3667 c252 -260 420 -526 534 -849 32 -92 33 -93 55 -84 14 5 16 16 11 65 -16 145 -137 431 -244 576 -107 144 -295 320 -421 394 -29 17 -56 31 -59 31 -3 0 53 -60 124 -133z"
       id="path264"
       style="fill:#0066ff" />
    <path
       d="M6870 3775 c-10 -12 -10 -21 -1 -41 9 -21 17 -25 44 -22 25 2 33 8 35 26 7 45 -49 72 -78 37z"
       id="path266"
       style="fill:#cc3366" />
    <path
       d="M1131 3726 c-51 -127 -29 -395 48 -589 65 -164 125 -259 234 -374 68 -72 235 -193 265 -193 8 0 -17 35 -56 78 -166 184 -298 406 -376 631 -44 127 -62 201 -85 356 -17 109 -19 117 -30 91z"
       id="path268"
       style="fill:#0066ff" />
    <path
       d="M1272 3710 c42 -73 399 -702 421 -740 87 -154 150 -261 158 -266 6 -3 24 0 40 6 27 12 29 16 23 44 -10 48 -79 217 -130 318 -110 219 -306 477 -483 635 l-55 48 26 -45z"
       id="path270"
       style="fill:#6699ff" />
    <path
       d="M504 3699 c3 -13 15 -64 26 -114 10 -49 30 -126 42 -170 l23 -80 50 -9 c100 -17 209 -46 263 -71 30 -14 57 -24 59 -22 2 2 -17 40 -41 85 -25 45 -66 122 -91 171 -24 50 -60 106 -79 125 -44 44 -147 94 -209 102 -47 7 -48 6 -43 -17z"
       id="path272"
       style="fill:#33cc33" />
    <path
       d="M1204 3678 c3 -13 17 -81 32 -153 67 -327 192 -572 434 -853 25 -28 50 -52 56 -52 5 0 23 13 39 30 l28 29 -57 103 c-198 355 -522 918 -529 918 -4 0 -5 -10 -3 -22z"
       id="path274"
       style="fill:#0066ff" />
    <path
       d="M7089 3661 c-34 -34 -37 -69 -9 -99 33 -35 92 -26 115 19 20 38 19 61 -5 87 -29 30 -66 28 -101 -7z"
       id="path276"
       style="fill:#cc3366" />
    <path
       d="M7738 3640 c-73 -13 -197 -51 -209 -66 -8 -10 -1 -15 33 -25 59 -16 166 -5 220 21 51 26 90 59 82 71 -6 11 -60 10 -126 -1z"
       id="path278"
       style="fill:#ccff99" />
    <path
       d="M7250 3575 c-6 -16 -19 -38 -27 -48 -10 -10 -13 -21 -7 -26 20 -18 94 -54 100 -48 10 10 -17 105 -36 130 l-18 22 -12 -30z"
       id="path280"
       style="fill:#ff6666" />
    <path
       d="M6182 3530 c-43 -26 -76 -99 -69 -147 9 -50 34 -86 55 -77 9 4 34 9 55 12 41 5 42 8 26 67 -6 22 -12 66 -13 99 -1 33 -6 61 -11 63 -6 1 -25 -6 -43 -17z"
       id="path282"
       style="fill:#99ccff" />
    <path
       d="M7451 3475 c-18 -25 -73 -87 -122 -137 -69 -72 -86 -95 -76 -104 19 -17 113 -54 139 -54 33 0 104 47 166 110 55 56 52 47 56 172 1 19 -6 24 -44 31 -25 5 -49 13 -54 18 -18 17 -33 9 -65 -36z"
       id="path284"
       style="fill:#9999ff" />
    <path
       d="M6977 3470 c-25 -22 -59 -61 -77 -88 -26 -38 -31 -54 -27 -85 3 -21 12 -49 21 -62 l16 -24 56 19 c31 11 89 24 130 29 76 9 83 13 167 87 l47 42 -87 47 c-78 42 -159 75 -189 75 -6 0 -32 -18 -57 -40z"
       id="path286"
       style="fill:#99ccff" />
    <path
       d="M626 3248 c4 -13 26 -68 50 -123 l42 -100 124 3 c115 4 204 -8 272 -34 29 -11 -33 74 -91 125 -81 72 -277 151 -375 151 -26 0 -28 -3 -22 -22z"
       id="path288"
       style="fill:#33cc33" />
    <path
       d="M6201 3248 c-26 -27 -36 -74 -35 -155 1 -66 37 -155 87 -217 l24 -30 49 33 c27 18 61 35 77 38 25 5 27 9 27 58 0 107 -61 221 -146 271 -50 29 -58 30 -83 2z"
       id="path290"
       style="fill:#ccff33" />
    <path
       d="M3010 3214 c-159 -28 -252 -84 -396 -240 -97 -105 -271 -324 -258 -324 4 0 39 29 78 63 234 209 515 364 804 443 34 10 62 21 62 25 0 23 -212 47 -290 33z"
       id="path292"
       style="fill:#0066ff" />
    <path
       d="M7035 3195 c-98 -27 -128 -41 -131 -61 -14 -98 -56 -194 -106 -243 -17 -17 -29 -33 -27 -35 7 -7 236 56 378 104 66 22 148 55 183 75 64 35 170 122 133 110 -56 -20 -112 -17 -167 8 -69 32 -154 57 -187 56 -14 0 -48 -7 -76 -14z"
       id="path294"
       style="fill:#00ff66" />
    <path
       d="M6750 3171 c-94 -30 -188 -108 -226 -186 -13 -29 -24 -56 -24 -61 0 -5 25 -31 56 -58 l56 -49 36 19 c57 30 136 114 165 175 29 62 42 127 29 146 -11 17 -61 24 -92 14z"
       id="path296"
       style="fill:#ccff33" />
    <path
       d="M7487 3079 c-116 -101 -200 -138 -544 -240 -40 -11 -73 -24 -73 -27 0 -4 24 -14 53 -24 28 -9 73 -24 98 -34 43 -17 49 -17 115 -1 172 43 299 147 403 330 18 32 32 60 30 61 -2 2 -39 -28 -82 -65z"
       id="path298"
       style="fill:#00ff66" />
    <path
       d="M3162 3075 c-273 -92 -513 -233 -704 -414 -72 -67 -72 -66 -26 -120 l27 -31 82 30 c45 17 127 54 183 82 192 99 288 169 441 322 119 119 165 176 143 176 -7 0 -73 -20 -146 -45z"
       id="path300"
       style="fill:#6699ff" />
    <path
       d="M6010 3099 c-40 -16 -89 -58 -105 -89 -15 -28 -23 -125 -12 -136 3 -4 36 -1 72 6 42 8 95 10 141 6 l73 -7 -26 58 c-15 32 -32 83 -38 113 -10 53 -12 55 -45 57 -19 1 -46 -2 -60 -8z"
       id="path302"
       style="fill:#99ccff" />
    <path
       d="M3309 3014 c-203 -238 -470 -423 -781 -538 -52 -19 -60 -33 -25 -41 36 -9 231 22 315 51 163 55 310 159 438 309 92 107 139 205 132 275 l-3 35 -76 -91z"
       id="path304"
       style="fill:#0066ff" />
    <path
       d="M773 2973 c-13 -2 -23 -8 -23 -13 0 -16 36 -29 111 -41 111 -16 224 -44 319 -78 46 -16 86 -28 88 -26 8 8 -74 78 -119 101 -102 51 -272 77 -376 57z"
       id="path306"
       style="fill:#33cc33" />
    <path
       d="M685 2861 c-16 -7 -9 -11 33 -20 29 -6 61 -11 71 -11 34 0 263 -61 364 -97 56 -20 176 -74 267 -120 142 -71 159 -78 125 -48 -59 52 -190 138 -270 178 -182 90 -499 154 -590 118z"
       id="path308"
       style="fill:#0066ff" />
    <path
       d="M6400 2863 c-53 -20 -112 -121 -112 -193 0 -98 87 -200 171 -200 34 0 93 46 115 89 61 119 -8 282 -129 304 -16 3 -37 3 -45 0z m94 -74 c74 -59 75 -189 1 -247 -33 -26 -55 -27 -95 -7 -87 45 -98 203 -18 259 31 22 80 20 112 -5z"
       id="path310"
       style="fill:#cc99ff" />
    <path
       d="M6401 2734 c-26 -34 -27 -80 -1 -121 33 -55 81 -35 95 38 10 54 -23 109 -65 109 -5 0 -18 -12 -29 -26z"
       id="path312"
       style="fill:#ffff33" />
    <path
       d="M5995 2829 c-89 -11 -215 -88 -215 -130 0 -47 132 -99 251 -99 66 0 174 21 189 36 5 5 13 40 18 77 8 64 7 70 -12 82 -50 31 -147 45 -231 34z"
       id="path314"
       style="fill:#ccff33" />
    <path
       d="M7355 2790 c-64 -43 -139 -75 -216 -91 -38 -8 -48 -15 -54 -36 -8 -34 10 -53 51 -53 18 0 55 -5 82 -11 91 -19 163 35 197 146 16 55 19 85 8 85 -5 0 -35 -19 -68 -40z"
       id="path316"
       style="fill:#9999ff" />
    <path
       d="M660 2777 c46 -46 191 -153 272 -200 156 -92 344 -159 523 -187 39 -6 81 -13 95 -15 33 -5 47 4 55 37 6 23 1 30 -38 56 -106 73 -293 166 -442 218 -107 38 -332 92 -410 100 -62 6 -68 5 -55 -9z"
       id="path318"
       style="fill:#6699ff" />
    <path
       d="M6685 2751 l-30 -6 -7 -95 c-3 -52 -4 -98 -2 -101 2 -4 35 -12 73 -19 58 -10 80 -9 133 4 117 30 198 88 182 129 -9 25 -80 64 -149 81 -60 16 -145 19 -200 7z"
       id="path320"
       style="fill:#ccff33" />
    <path
       d="M673 2663 c42 -72 164 -189 235 -226 94 -49 236 -93 375 -117 126 -21 297 -27 297 -10 0 6 -2 10 -5 10 -2 0 -54 7 -115 15 -242 34 -495 138 -694 286 -58 43 -108 79 -111 79 -2 0 6 -17 18 -37z"
       id="path322"
       style="fill:#0066ff" />
    <path
       d="M1937 2670 c-175 -45 -310 -234 -294 -414 14 -171 125 -314 284 -367 91 -30 214 -24 294 14 256 123 317 460 119 657 -76 77 -156 111 -272 115 -51 3 -110 0 -131 -5z m240 -114 c63 -30 122 -88 152 -149 19 -39 23 -64 23 -142 -1 -113 -20 -165 -89 -231 -71 -70 -112 -84 -239 -84 -102 0 -112 2 -160 29 -103 59 -157 151 -158 266 -2 135 72 257 188 311 74 34 209 34 283 0z"
       id="path324"
       style="fill:#cc99ff" />
    <path
       d="M1981 2533 c-96 -24 -156 -70 -196 -150 -37 -73 -41 -186 -8 -248 88 -167 322 -200 454 -64 78 80 100 192 59 302 -45 120 -184 193 -309 160z m112 -74 c43 -12 101 -59 123 -100 8 -16 14 -56 14 -97 0 -59 -4 -75 -29 -113 -44 -65 -81 -84 -166 -84 -56 1 -79 6 -108 24 -75 46 -107 129 -87 225 25 121 128 180 253 145z"
       id="path326"
       style="fill:#ff6699" />
    <path
       d="M1974 2411 c-108 -49 -126 -205 -33 -274 59 -43 167 -31 213 24 69 82 31 209 -76 253 -47 20 -54 20 -104 -3z"
       id="path328"
       style="fill:#ffcc00" />
    <path
       d="M6182 2549 c-110 -55 -190 -165 -195 -270 -2 -64 12 -89 52 -89 68 0 225 117 277 206 l26 43 -49 66 c-26 36 -52 65 -58 65 -5 0 -29 -10 -53 -21z"
       id="path330"
       style="fill:#ccff33" />
    <path
       d="M6981 2525 c-35 -19 -95 -39 -132 -46 -38 -7 -66 -15 -64 -19 10 -17 130 -32 218 -28 88 4 102 7 181 46 47 24 86 46 86 51 0 11 -118 31 -176 30 -34 -1 -68 -11 -113 -34z"
       id="path332"
       style="fill:#9999ff" />
    <path
       d="M2977 2496 c-21 -13 -76 -36 -123 -52 -77 -27 -105 -44 -69 -44 24 0 106 -30 182 -67 39 -19 76 -32 82 -29 18 11 34 82 27 118 -7 35 -41 98 -53 98 -5 0 -25 -11 -46 -24z"
       id="path334"
       style="fill:#99ccff" />
    <path
       d="M5970 2501 c-46 -15 -125 -59 -163 -93 -35 -30 -37 -36 -28 -65 17 -58 4 -151 -33 -233 -19 -41 -38 -85 -41 -97 -16 -60 43 -293 91 -357 14 -20 14 -20 42 1 15 11 51 32 80 47 34 17 52 33 52 44 0 33 -30 122 -72 209 -37 79 -40 92 -36 153 3 54 11 82 41 138 20 39 37 77 37 85 0 7 17 46 37 87 21 41 39 78 41 83 4 9 -14 8 -48 -2z"
       id="path336"
       style="fill:#ffccff" />
    <path
       d="M6570 2465 c-13 -14 -46 -33 -73 -43 l-49 -17 6 -40 c4 -22 20 -68 36 -102 55 -111 195 -213 237 -171 36 36 23 165 -27 271 -21 45 -85 127 -99 127 -4 0 -18 -11 -31 -25z"
       id="path338"
       style="fill:#ccff33" />
    <path
       d="M7206 2431 l-90 -46 -145 0 c-110 0 -156 4 -188 16 -24 9 -43 15 -43 14 0 -2 8 -23 18 -47 11 -24 25 -66 31 -95 17 -72 28 -78 130 -77 104 1 158 24 248 108 54 50 154 178 136 174 -4 0 -48 -22 -97 -47z"
       id="path340"
       style="fill:#9999ff" />
    <path
       d="M2514 2357 c-15 -40 -1 -51 86 -69 121 -25 200 -53 325 -115 109 -54 251 -148 323 -214 20 -19 46 -41 56 -49 18 -14 19 -14 6 10 -53 101 -195 254 -301 324 -117 78 -226 112 -396 123 -79 5 -93 4 -99 -10z"
       id="path342"
       style="fill:#0066ff" />
    <path
       d="M5662 2337 c-94 -70 -131 -172 -101 -279 13 -50 36 -49 82 2 47 52 73 103 86 171 10 57 6 93 -12 117 -13 17 -18 16 -55 -11z"
       id="path344"
       style="fill:#cc3366" />
    <path
       d="M6385 2330 c-11 -35 12 -147 49 -233 32 -78 223 -247 278 -247 42 0 197 91 246 144 44 49 108 154 98 163 -2 2 -23 -1 -47 -7 -24 -7 -79 -10 -122 -8 l-79 3 -14 -40 c-7 -22 -23 -48 -35 -57 -83 -68 -284 74 -340 240 -11 34 -22 62 -24 62 -2 0 -7 -9 -10 -20z"
       id="path346"
       style="fill:#99ccff" />
    <path
       d="M1005 2307 c-4 -14 1 -52 10 -83 19 -65 78 -134 114 -134 12 0 54 16 94 36 100 51 228 104 249 104 10 0 18 5 18 10 0 6 -26 10 -59 10 -85 0 -328 45 -403 75 -13 5 -19 0 -23 -18z"
       id="path348"
       style="fill:#99ccff" />
    <path
       d="M6253 2241 l-52 -46 32 -90 c29 -83 31 -102 35 -251 5 -187 -4 -231 -71 -358 -57 -107 -155 -200 -269 -254 l-83 -40 40 -18 c24 -11 62 -18 95 -17 89 1 293 65 363 115 26 18 27 23 21 70 -4 27 -7 60 -8 71 -3 35 14 100 29 117 12 14 11 22 -10 65 -35 74 -63 165 -79 252 -16 91 -14 270 4 361 7 34 11 64 9 66 -2 2 -27 -17 -56 -43z"
       id="path350"
       style="fill:#9999ff" />
    <path
       d="M2516 2238 c-2 -7 -13 -47 -25 -88 -35 -119 -42 -107 99 -177 191 -95 392 -143 585 -142 126 1 128 5 48 75 -185 163 -387 271 -608 325 -95 22 -95 22 -99 7z"
       id="path352"
       style="fill:#6699ff" />
    <path
       d="M1470 2175 c-122 -45 -264 -113 -337 -163 -67 -46 -211 -187 -255 -249 -28 -42 -30 -56 -4 -30 194 187 395 317 636 410 52 20 85 38 85 47 0 24 -25 21 -125 -15z"
       id="path354"
       style="fill:#6699ff" />
    <path
       d="M5920 2154 c-16 -48 -7 -97 35 -185 19 -41 41 -101 50 -134 20 -80 20 -237 -2 -301 -37 -110 -158 -258 -220 -270 -18 -3 -33 -10 -33 -15 0 -11 -3 -12 61 7 235 70 379 241 408 485 14 123 -7 281 -54 392 l-15 36 -41 -14 c-63 -23 -112 -19 -147 10 l-30 25 -12 -36z"
       id="path356"
       style="fill:#9999ff" />
    <path
       d="M6337 2123 c-16 -119 17 -323 72 -453 l36 -85 50 -6 c28 -4 65 -12 82 -20 32 -13 34 -12 79 31 25 25 55 57 65 72 20 28 20 28 1 65 -11 21 -22 45 -25 53 -2 8 -37 33 -77 55 -110 60 -207 165 -246 266 -24 62 -31 66 -37 22z"
       id="path358"
       style="fill:#ccffff" />
    <path
       d="M5466 2131 c-30 -33 -173 -125 -264 -171 -81 -40 -82 -41 -82 -78 0 -44 -24 -131 -50 -183 -32 -62 -126 -146 -207 -185 -62 -30 -90 -37 -175 -45 -55 -4 -103 -10 -105 -13 -9 -8 112 -21 180 -18 100 3 233 37 328 85 80 40 84 43 81 72 -2 17 -4 66 -5 110 -2 91 15 134 80 206 67 74 133 90 179 43 24 -24 26 -30 22 -107 -5 -132 -71 -252 -162 -299 -21 -11 -81 -60 -133 -109 -52 -49 -125 -107 -162 -129 -173 -103 -387 -133 -606 -85 -47 10 -93 13 -141 9 l-71 -7 -40 37 c-28 25 -44 50 -52 80 -9 39 -16 46 -48 56 -80 26 -310 114 -355 135 -27 13 -48 22 -48 22 1 -4 190 -206 260 -277 105 -106 167 -132 340 -138 69 -2 164 1 213 7 127 15 166 -5 137 -73 -7 -17 -16 -76 -20 -131 -8 -103 -26 -164 -66 -224 -13 -19 -22 -37 -20 -39 4 -3 155 15 191 24 18 5 20 14 21 122 1 93 6 128 23 172 43 114 107 189 149 175 34 -10 45 -56 40 -167 -4 -86 -10 -117 -36 -182 -17 -44 -30 -82 -28 -83 3 -3 247 75 253 81 1 1 -10 31 -24 66 -50 120 -35 285 34 378 18 23 32 32 53 32 33 0 49 -23 70 -99 13 -49 16 -230 5 -281 -7 -31 -6 -31 17 -19 59 31 178 112 178 121 0 6 -9 25 -19 42 -57 93 -66 259 -19 354 20 40 27 47 53 47 58 0 97 -111 99 -282 1 -40 3 -73 5 -73 9 0 101 95 101 105 0 6 -16 41 -35 77 -20 37 -50 106 -67 155 -30 81 -32 100 -36 243 -3 95 1 181 8 223 9 49 9 80 1 115 -6 26 -14 64 -18 86 l-8 38 -19 -21z"
       id="path360"
       style="fill:#ffccff" />
    <path
       d="M1520 2089 c-216 -87 -386 -193 -555 -345 -58 -52 -105 -98 -105 -101 0 -8 79 5 185 29 139 32 281 90 413 171 80 48 212 147 212 158 0 18 -55 119 -65 119 -5 0 -44 -14 -85 -31z"
       id="path362"
       style="fill:#6699ff" />
    <path
       d="M2396 1966 l-26 -34 50 -36 c68 -49 154 -91 263 -128 l92 -32 220 -1 c215 0 295 10 295 36 0 5 -48 9 -107 9 -138 0 -295 22 -403 56 -91 28 -323 134 -334 153 -11 18 -22 13 -50 -23z"
       id="path364"
       style="fill:#0066ff" />
    <path
       d="M5599 1965 c-17 -9 -29 -27 -34 -47 -11 -54 -14 -288 -4 -350 15 -92 117 -325 132 -301 3 5 7 38 8 73 3 85 20 156 49 207 l23 41 -21 34 c-39 63 -81 186 -93 272 -7 49 -17 86 -23 86 -6 -1 -23 -7 -37 -15z"
       id="path366"
       style="fill:#99ccff" />
    <path
       d="M1640 1904 c-172 -140 -421 -254 -653 -300 -100 -19 -97 -28 13 -38 96 -8 234 7 315 34 155 51 311 184 399 338 15 25 -21 9 -74 -34z"
       id="path368"
       style="fill:#6699ff" />
    <path
       d="M5029 1886 c-64 -105 -233 -148 -451 -114 -69 10 -82 9 -118 -7 -23 -10 -52 -32 -66 -47 -23 -28 -23 -31 -8 -66 30 -72 96 -117 192 -130 177 -24 362 63 447 212 21 36 30 67 35 122 3 41 3 74 0 74 -3 0 -17 -20 -31 -44z"
       id="path370"
       style="fill:#ff6666" />
    <path
       d="M5328 1911 c-44 -28 -87 -90 -105 -150 -14 -49 -14 -62 -2 -110 8 -30 19 -56 26 -58 21 -7 86 61 114 121 32 68 45 149 30 189 -12 31 -25 33 -63 8z"
       id="path372"
       style="fill:#ff6666" />
    <path
       d="M1720 1847 c-14 -23 -62 -79 -107 -125 -46 -46 -83 -88 -83 -94 0 -19 42 -68 71 -84 17 -9 48 -14 72 -12 l42 3 7 115 c6 108 21 210 33 231 4 5 3 9 -2 9 -4 0 -19 -19 -33 -43z"
       id="path374"
       style="fill:#9999ff" />
    <path
       d="M1785 1770 c-36 -217 6 -448 123 -674 40 -78 156 -225 169 -213 2 2 -17 50 -42 106 -49 109 -84 221 -110 346 -17 83 -22 314 -10 430 l7 64 -57 26 c-32 14 -58 25 -59 25 -1 0 -10 -49 -21 -110z"
       id="path376"
       style="fill:#0066ff" />
    <path
       d="M2228 1848 c-56 -24 -56 -28 -28 -131 59 -211 64 -544 11 -778 -12 -55 -6 -61 24 -24 104 129 171 428 146 654 -10 97 -53 264 -73 288 -14 17 -23 16 -80 -9z"
       id="path378"
       style="fill:#0066ff" />
    <path
       d="M6777 1814 c-32 -17 -30 -38 9 -90 25 -34 97 -74 132 -74 34 0 102 31 112 51 24 43 -106 130 -193 129 -18 -1 -45 -8 -60 -16z"
       id="path380"
       style="fill:#cc3366" />
    <path
       d="M1975 1804 c-15 -35 -14 -363 1 -449 26 -145 107 -375 153 -434 l19 -25 12 60 c37 175 46 373 25 546 -14 106 -50 274 -66 299 -4 8 -34 15 -72 17 -55 4 -65 2 -72 -14z"
       id="path382"
       style="fill:#0066ff" />
    <path
       d="M2390 1796 c0 -31 51 -151 91 -212 91 -139 249 -328 249 -298 0 5 9 63 20 129 11 66 20 127 20 135 0 8 -28 30 -63 49 -70 37 -284 178 -293 192 -5 9 -24 13 -24 5z"
       id="path384"
       style="fill:#66ff99" />
    <path
       d="M2580 1741 c0 -3 12 -13 28 -22 15 -8 64 -37 109 -63 l82 -48 68 22 c112 37 107 43 -42 55 -45 3 -116 18 -162 34 -46 15 -83 25 -83 22z"
       id="path386"
       style="fill:#66ff99" />
    <path
       d="M3222 1689 c-86 -17 -352 -110 -352 -123 0 -2 24 -21 52 -43 104 -75 163 -113 180 -113 10 0 82 28 160 63 79 35 162 72 186 82 23 11 41 24 39 29 -5 17 -158 103 -192 109 -16 3 -50 1 -73 -4z"
       id="path388"
       style="fill:#66ff99" />
    <path
       d="M5928 1652 c-109 -73 -157 -149 -173 -272 -8 -65 5 -79 45 -50 71 50 154 195 167 291 6 44 -5 53 -39 31z"
       id="path390"
       style="fill:#cc3366" />
    <path
       d="M4175 1608 c-62 -11 -355 -15 -450 -5 -67 7 -69 7 -42 -9 37 -20 209 -89 314 -124 l82 -28 18 24 c69 94 211 82 283 -23 27 -40 31 -105 6 -131 -9 -10 -16 -21 -16 -24 0 -16 116 -32 220 -31 178 1 321 50 457 156 29 23 51 43 49 44 -2 2 -20 -4 -40 -12 -141 -59 -372 -76 -497 -36 -83 26 -173 85 -238 156 -53 59 -57 60 -146 43z"
       id="path392"
       style="fill:#99ccff" />
    <path
       d="M3435 1492 c-303 -133 -288 -125 -263 -144 13 -9 39 -26 58 -36 19 -11 72 -40 116 -66 45 -25 90 -46 99 -46 18 0 305 139 305 147 0 16 -183 193 -198 193 -4 0 -56 -22 -117 -48z"
       id="path394"
       style="fill:#66ff99" />
    <path
       d="M6436 1515 c-41 -41 -28 -164 24 -239 37 -55 66 -76 101 -76 50 0 98 94 86 168 -18 105 -156 202 -211 147z"
       id="path396"
       style="fill:#cc6666" />
    <path
       d="M2816 1493 c-3 -16 -13 -79 -22 -141 l-17 -113 34 -35 c58 -60 340 -236 355 -222 3 4 -70 321 -81 351 -4 8 -25 27 -47 42 -22 15 -76 54 -120 86 -44 32 -83 59 -88 59 -5 0 -11 -12 -14 -27z"
       id="path398"
       style="fill:#66ff99" />
    <path
       d="M2437 1392 c-4 -51 -16 -138 -27 -194 l-21 -100 42 -54 c60 -78 179 -195 263 -258 200 -150 392 -236 684 -304 47 -11 56 -2 15 17 -51 23 -219 137 -318 215 -55 43 -152 132 -215 196 -159 162 -232 262 -408 560 -6 9 -11 -19 -15 -78z"
       id="path400"
       style="fill:#0066ff" />
    <path
       d="M4193 1473 c-31 -6 -63 -50 -63 -85 0 -49 26 -86 69 -99 33 -10 44 -8 84 9 61 27 77 59 54 107 -25 52 -84 80 -144 68z"
       id="path402"
       style="fill:#cc6666" />
    <path
       d="M5421 1379 c-6 -18 -11 -72 -11 -121 0 -69 5 -98 21 -133 24 -50 34 -56 43 -22 17 62 -11 307 -35 307 -4 0 -12 -14 -18 -31z"
       id="path404"
       style="fill:#66cc66" />
    <path
       d="M2646 1253 c126 -180 293 -360 449 -486 103 -83 301 -217 321 -217 8 0 8 11 -2 38 -7 21 -20 78 -29 127 -21 108 -33 129 -93 151 -105 39 -278 127 -370 187 -102 67 -261 201 -288 242 -9 14 -21 25 -26 25 -5 0 12 -30 38 -67z"
       id="path406"
       style="fill:#9999ff" />
    <path
       d="M3653 1232 c-73 -35 -133 -67 -133 -71 0 -7 46 -28 172 -77 l88 -34 92 46 93 47 -30 21 c-16 11 -57 46 -90 77 l-60 56 -132 -65z"
       id="path408"
       style="fill:#66ff99" />
    <path
       d="M3160 1276 c0 -8 16 -83 35 -166 19 -83 35 -153 35 -156 0 -6 45 -25 139 -61 l64 -24 -6 137 c-4 75 -8 138 -9 139 -2 2 -46 26 -98 55 -52 29 -110 61 -127 72 -28 16 -33 17 -33 4z"
       id="path410"
       style="fill:#66ff99" />
    <path
       d="M5125 1216 c-43 -65 -51 -191 -20 -285 37 -111 64 -79 71 84 4 106 -6 199 -24 217 -7 7 -15 2 -27 -16z"
       id="path412"
       style="fill:#66cc66" />
    <path
       d="M5698 1153 c-53 -8 -30 -42 58 -86 60 -30 134 -42 199 -32 l47 7 -21 22 c-36 38 -113 74 -181 85 -36 6 -67 10 -70 9 -3 0 -17 -3 -32 -5z"
       id="path414"
       style="fill:#66cc66" />
    <path
       d="M3951 1079 c-52 -29 -70 -44 -60 -49 8 -4 56 -11 108 -15 l93 -7 34 33 c19 18 34 36 34 39 0 4 -26 13 -57 20 -32 7 -62 14 -68 16 -5 2 -43 -15 -84 -37z"
       id="path416"
       style="fill:#66ff99" />
    <path
       d="M4811 1087 c-11 -19 -31 -63 -45 -98 -38 -104 -46 -278 -11 -249 20 16 62 112 80 178 16 66 20 187 6 196 -5 4 -19 -9 -30 -27z"
       id="path418"
       style="fill:#66cc66" />
    <path
       d="M3475 1093 c2 -10 6 -65 9 -122 3 -57 9 -108 15 -114 14 -14 113 -35 204 -43 75 -6 79 -6 74 12 -3 11 -8 53 -12 96 -6 74 -7 77 -38 89 -18 7 -78 32 -134 56 -116 48 -123 50 -118 26z"
       id="path420"
       style="fill:#66ff99" />
    <path
       d="M4225 1060 c-35 -36 -27 -37 79 -10 118 30 125 39 30 40 -76 0 -82 -1 -109 -30z"
       id="path422"
       style="fill:#66ff99" />
    <path
       d="M4440 1038 c-50 -22 -222 -68 -251 -68 -22 0 -16 -15 20 -58 l20 -23 48 23 c74 34 222 133 212 142 -2 2 -24 -5 -49 -16z"
       id="path424"
       style="fill:#66ff99" />
    <path
       d="M3816 934 c4 -27 10 -65 13 -84 l7 -35 80 2 c75 2 229 34 246 51 5 5 -7 26 -26 49 l-35 40 -93 6 c-51 4 -117 10 -145 13 l-53 7 6 -49z"
       id="path426"
       style="fill:#66ff99" />
    <path
       d="M4448 947 c-50 -44 -59 -67 -60 -153 -1 -92 10 -108 46 -62 39 52 65 120 72 187 8 73 -2 78 -58 28z"
       id="path428"
       style="fill:#66cc66" />
    <path
       d="M5370 882 c0 -5 20 -32 44 -59 60 -67 132 -104 212 -111 78 -6 82 5 17 53 -93 68 -273 145 -273 117z"
       id="path430"
       style="fill:#66cc66" />
    <path
       d="M4300 866 c-42 -23 -202 -77 -270 -91 -36 -7 -114 -17 -175 -21 -87 -6 -104 -9 -80 -16 77 -22 333 -59 449 -65 120 -6 129 -5 123 11 -4 10 -7 58 -7 107 0 49 -3 89 -7 89 -5 -1 -19 -7 -33 -14z"
       id="path432"
       style="fill:#9999ff" />
    <path
       d="M4990 693 c0 -33 117 -155 174 -182 47 -23 144 -46 154 -37 15 15 -159 146 -265 200 -56 28 -63 30 -63 19z"
       id="path434"
       style="fill:#66cc66" />
    <path
       d="M4610 626 c0 -32 44 -114 83 -154 48 -49 93 -79 137 -92 57 -16 35 24 -79 143 -68 71 -141 125 -141 103z"
       id="path436"
       style="fill:#66cc66" />
    <path
       d="M3896 561 c-17 -6 -15 -10 17 -29 69 -40 128 -55 229 -56 62 -1 101 3 109 11 37 37 -279 104 -355 74z"
       id="path438"
       style="fill:#66cc66" />
  </g>
</svg>
