<?xml version="1.0" encoding="UTF-8" standalone="no"?>
<svg
   xmlns:dc="http://purl.org/dc/elements/1.1/"
   xmlns:cc="http://creativecommons.org/ns#"
   xmlns:rdf="http://www.w3.org/1999/02/22-rdf-syntax-ns#"
   xmlns:svg="http://www.w3.org/2000/svg"
   xmlns="http://www.w3.org/2000/svg"
   xmlns:sodipodi="http://sodipodi.sourceforge.net/DTD/sodipodi-0.dtd"
   xmlns:inkscape="http://www.inkscape.org/namespaces/inkscape"
   version="1.0"
   width="850.000000pt"
   height="850.000000pt"
   viewBox="0 0 850.000000 850.000000"
   preserveAspectRatio="xMidYMid meet"
   id="svg2"
   inkscape:version="0.91 r13725"
   sodipodi:docname="Letter_20170424_397.svg">
  <defs
     id="defs584" />
  <sodipodi:namedview
     pagecolor="#ffffff"
     bordercolor="#666666"
     borderopacity="1"
     objecttolerance="10"
     gridtolerance="10"
     guidetolerance="10"
     inkscape:pageopacity="0"
     inkscape:pageshadow="2"
     inkscape:window-width="1920"
     inkscape:window-height="980"
     id="namedview582"
     showgrid="false"
     inkscape:zoom="0.62824358"
     inkscape:cx="551.13578"
     inkscape:cy="592.76661"
     inkscape:window-x="0"
     inkscape:window-y="1"
     inkscape:window-maximized="1"
     inkscape:current-layer="svg2" />
  <metadata
     id="metadata4">
Created by potrace 1.14, written by Peter Selinger 2001-2017
<rdf:RDF>
  <cc:Work
     rdf:about="">
    <dc:format>image/svg+xml</dc:format>
    <dc:type
       rdf:resource="http://purl.org/dc/dcmitype/StillImage" />
  </cc:Work>
</rdf:RDF>
</metadata>
  <g
     transform="translate(0.000000,850.000000) scale(0.100000,-0.100000)"
     fill="#000000"
     stroke="none"
     id="g6">
    <path
       d="M0 4250 l0 -4250 4250 0 4250 0 0 4250 0 4250 -4250 0 -4250 0 0 -4250z m2751 3938 c135 -50 240 -134 319 -254 59 -90 81 -145 125 -319 50 -194 103 -396 126 -482 10 -40 40 -153 65 -250 25 -98 83 -324 130 -503 87 -334 99 -382 133 -510 11 -41 36 -138 56 -215 20 -77 50 -192 66 -255 64 -244 92 -350 129 -495 21 -82 53 -204 70 -270 79 -300 102 -387 126 -485 45 -182 81 -230 172 -230 80 0 125 38 152 129 10 36 64 244 119 461 55 217 132 521 171 675 39 154 105 412 146 573 41 160 108 426 150 590 41 163 107 421 145 572 39 151 99 390 135 530 107 421 126 463 270 600 118 112 230 160 386 168 194 9 349 -49 476 -178 67 -68 114 -145 148 -245 25 -72 28 -93 27 -210 l-1 -130 -96 -380 c-53 -209 -151 -594 -217 -855 -66 -261 -150 -590 -185 -730 -103 -402 -263 -1037 -415 -1640 -77 -305 -166 -658 -199 -785 -156 -608 -300 -1176 -449 -1765 -173 -686 -180 -705 -286 -818 -76 -82 -156 -136 -259 -175 -75 -29 -91 -31 -206 -31 -105 -1 -137 3 -199 23 -141 46 -273 155 -352 290 -38 64 -69 166 -169 556 -28 110 -66 259 -85 330 -18 72 -54 211 -80 310 -25 99 -61 239 -80 310 -35 136 -106 410 -180 700 -24 94 -64 249 -89 345 -24 96 -72 283 -106 415 -34 132 -79 308 -100 390 -21 83 -64 249 -95 370 -31 121 -77 299 -101 395 -25 96 -72 279 -104 405 -33 127 -84 325 -113 440 -30 116 -89 345 -132 510 -42 165 -95 370 -117 455 -22 85 -57 223 -78 305 -112 437 -154 594 -168 635 -12 32 -17 78 -17 160 0 96 4 126 24 180 70 192 249 355 446 405 93 23 281 15 366 -17z"
       id="path8"
       style="fill:none" />
    <path
       d="M2540 8164 c0 -5 72 -46 161 -91 88 -45 157 -78 154 -73 -3 5 -57 44 -120 85 -79 54 -126 78 -154 82 -23 3 -41 2 -41 -3z"
       id="path10"
       style="fill:#9999ff" />
    <path
       d="M5895 8163 c-36 -6 -271 -160 -260 -171 2 -3 10 0 17 5 7 6 76 43 153 82 178 93 183 97 90 84z"
       id="path12"
       style="fill:#6699ff" />
    <path
       d="M2405 8153 c-74 -19 -74 -23 -2 -54 75 -32 353 -123 408 -133 30 -6 28 -3 -26 29 -108 64 -316 165 -338 164 -12 -1 -31 -4 -42 -6z"
       id="path14"
       style="fill:#9999ff" />
    <path
       d="M5852 8070 c-99 -50 -186 -98 -192 -105 -13 -16 82 11 280 80 259 89 265 94 142 111 -46 6 -56 2 -230 -86z"
       id="path16"
       style="fill:#6699ff" />
    <path
       d="M2787 8085 c91 -61 143 -76 83 -24 -36 31 -129 79 -152 79 -7 0 24 -25 69 -55z"
       id="path18"
       style="fill:#9999ff" />
    <path
       d="M5673 8079 c-35 -23 -63 -45 -63 -50 0 -10 115 64 125 81 9 14 7 13 -62 -31z"
       id="path20"
       style="fill:#6699ff" />
    <path
       d="M6178 8104 c-21 -11 -321 -119 -417 -150 -38 -12 5 -12 99 1 115 15 219 42 320 82 83 33 95 42 78 59 -22 20 -52 24 -80 8z"
       id="path22"
       style="fill:#6699ff" />
    <path
       d="M2253 8098 c-13 -6 -23 -14 -23 -19 0 -25 282 -112 401 -124 35 -3 74 -8 87 -11 12 -2 22 0 22 6 0 5 -7 10 -15 10 -19 0 -254 82 -398 139 -34 13 -45 13 -74 -1z"
       id="path24"
       style="fill:#9999cc" />
    <path
       d="M2190 8051 c0 -20 39 -41 76 -41 31 1 35 3 22 11 -31 17 -98 38 -98 30z"
       id="path26"
       style="fill:#9999cc" />
    <path
       d="M6240 8035 l-45 -24 33 -1 c39 0 67 13 76 35 8 21 -11 18 -64 -10z"
       id="path28"
       style="fill:#6699ff" />
    <path
       d="M2335 7991 c-3 -5 -19 -12 -35 -16 -32 -7 -41 -25 -12 -25 9 0 88 -7 176 -15 87 -9 160 -14 162 -12 2 2 -44 14 -102 26 -58 13 -121 29 -140 37 -39 17 -41 17 -49 5z"
       id="path30"
       style="fill:#9999cc" />
    <path
       d="M2934 7989 c-55 -70 -39 -205 32 -271 27 -25 139 -66 151 -55 3 3 -3 32 -12 64 -36 123 -147 293 -171 262z"
       id="path32"
       style="fill:#ffff00" />
    <path
       d="M6095 7981 c-27 -10 -81 -24 -120 -31 -79 -14 -125 -34 -60 -26 22 3 102 10 178 17 135 12 165 21 107 34 -16 4 -32 11 -35 16 -8 11 -10 11 -70 -10z"
       id="path34"
       style="fill:#6699ff" />
    <path
       d="M5541 7959 c-39 -37 -87 -121 -115 -201 -14 -42 -26 -80 -26 -83 0 -4 16 -5 36 -2 55 9 113 52 135 100 22 49 25 150 6 185 l-13 22 -23 -21z"
       id="path36"
       style="fill:#ffff66" />
    <path
       d="M2200 7932 c-19 -7 -64 -51 -85 -84 -19 -31 -15 -34 18 -16 12 6 63 15 112 18 93 7 459 -3 553 -16 51 -6 60 -2 43 24 -8 13 -84 22 -416 52 -71 7 -148 15 -170 19 -22 4 -47 5 -55 3z"
       id="path38"
       style="fill:#9999ff" />
    <path
       d="M6200 7924 c-8 -2 -121 -13 -250 -24 -268 -24 -294 -29 -299 -55 -3 -17 2 -18 65 -11 319 30 558 31 629 2 21 -9 39 -16 41 -16 12 0 -1 23 -37 64 -38 43 -44 46 -87 45 -26 -1 -54 -3 -62 -5z"
       id="path40"
       style="fill:#6699ff" />
    <path
       d="M2825 7910 c-3 -5 -1 -10 4 -10 6 0 11 5 11 10 0 6 -2 10 -4 10 -3 0 -8 -4 -11 -10z"
       id="path42"
       style="fill:none" />
    <path
       d="M2260 7830 c-77 -15 -160 -43 -171 -56 -16 -20 -1 -53 28 -60 38 -10 291 3 418 21 118 16 306 56 290 61 -16 5 -333 33 -430 38 -49 3 -110 1 -135 -4z"
       id="path44"
       style="fill:#9999ff" />
    <path
       d="M5886 7820 c-248 -25 -242 -23 -161 -43 173 -41 397 -67 576 -67 96 0 97 0 103 27 10 36 -9 51 -87 73 -102 28 -220 31 -431 10z"
       id="path46"
       style="fill:#669999" />
    <path
       d="M2580 7715 c-64 -11 -274 -30 -430 -38 l-45 -2 35 -39 36 -38 104 21 c182 38 380 93 380 106 0 3 -1 4 -2 4 -2 -1 -37 -7 -78 -14z"
       id="path48"
       style="fill:#9999ff" />
    <path
       d="M2720 7669 c-130 -74 -230 -150 -312 -237 -78 -83 -158 -186 -158 -204 1 -45 24 -29 180 125 156 153 309 294 374 345 55 43 20 31 -84 -29z"
       id="path50"
       style="fill:#9999ff" />
    <path
       d="M5705 7687 c105 -89 275 -247 396 -369 116 -117 126 -125 137 -107 15 23 3 43 -86 149 -80 94 -165 172 -262 238 -88 60 -212 132 -227 132 -4 -1 14 -20 42 -43z"
       id="path52"
       style="fill:#6699ff" />
    <path
       d="M5840 7720 c0 -8 244 -74 374 -101 l109 -22 29 32 c15 17 28 36 28 41 0 6 -31 10 -69 10 -91 0 -307 18 -398 34 -40 7 -73 10 -73 6z"
       id="path54"
       style="fill:#6699ff" />
    <path
       d="M2603 7661 c-275 -126 -420 -264 -386 -367 l9 -28 30 40 c63 85 251 261 344 323 52 35 97 65 99 67 12 12 -23 -1 -96 -35z"
       id="path56"
       style="fill:#9999ff" />
    <path
       d="M2890 7691 c0 -5 -32 -76 -71 -157 -182 -380 -244 -531 -233 -566 3 -10 14 -23 24 -28 24 -13 31 0 106 193 50 128 194 544 194 561 0 3 -4 6 -10 6 -5 0 -10 -4 -10 -9z"
       id="path58"
       style="fill:#9999cc" />
    <path
       d="M5595 7670 c27 -134 252 -740 275 -740 4 0 15 9 24 19 32 35 11 99 -131 401 -30 63 -77 165 -106 225 -57 124 -73 147 -62 95z"
       id="path60"
       style="fill:#669999" />
    <path
       d="M5800 7695 c0 -2 24 -18 53 -36 127 -78 275 -210 359 -319 28 -38 56 -66 61 -63 5 3 7 29 5 58 -5 65 -41 113 -136 184 -90 67 -342 197 -342 176z"
       id="path62"
       style="fill:#6699ff" />
    <path
       d="M2754 7618 c-115 -103 -464 -440 -464 -448 0 -4 11 -15 24 -24 23 -14 28 -14 84 15 88 46 166 127 277 289 112 163 156 230 151 230 -2 0 -35 -28 -72 -62z"
       id="path64"
       style="fill:#9999ff" />
    <path
       d="M2928 7665 c-3 -6 -13 -37 -23 -70 -40 -142 -175 -521 -218 -615 -14 -30 -22 -58 -19 -62 4 -4 21 -10 37 -13 67 -14 96 53 155 351 22 115 50 251 61 302 19 83 22 132 7 107z"
       id="path66"
       style="fill:#9999cc" />
    <path
       d="M5554 7653 c3 -10 33 -155 66 -323 73 -365 97 -430 159 -430 54 0 56 11 17 107 -55 138 -98 259 -168 470 -35 106 -67 193 -71 193 -5 0 -6 -8 -3 -17z"
       id="path68"
       style="fill:#6699ff" />
    <path
       d="M5680 7665 c0 -4 48 -80 107 -169 122 -185 214 -284 311 -335 l64 -33 24 23 25 23 -94 91 c-261 250 -318 304 -375 353 -34 30 -62 51 -62 47z"
       id="path70"
       style="fill:#669999" />
    <path
       d="M6505 7640 c-3 -5 -1 -10 4 -10 6 0 11 5 11 10 0 6 -2 10 -4 10 -3 0 -8 -4 -11 -10z"
       id="path72"
       style="fill:none" />
    <path
       d="M2005 7606 c-28 -42 9 -96 65 -96 l21 0 -20 26 c-12 15 -21 35 -21 45 0 24 -10 49 -21 49 -5 0 -16 -11 -24 -24z"
       id="path74"
       style="fill:#ff9933" />
    <path
       d="M2395 7615 c-27 -7 -78 -18 -112 -25 -35 -7 -63 -17 -63 -21 0 -14 34 -11 76 7 30 13 42 14 57 5 15 -10 27 -7 63 14 65 38 61 42 -21 20z"
       id="path76"
       style="fill:#9999cc" />
    <path
       d="M2985 7608 c-14 -47 -14 -440 0 -530 20 -123 43 -160 114 -183 21 -6 23 -5 16 11 -22 53 -33 123 -39 262 -4 85 -9 161 -11 170 -1 9 -6 73 -10 142 -4 69 -12 131 -17 138 -17 19 -45 14 -53 -10z"
       id="path78"
       style="fill:#9999ff" />
    <path
       d="M5456 7622 c-6 -10 -13 -80 -21 -212 -3 -52 -8 -120 -10 -150 -2 -30 -7 -102 -11 -160 -3 -57 -12 -127 -19 -155 -7 -27 -12 -51 -10 -53 2 -2 21 6 42 17 47 24 67 64 84 171 19 123 14 507 -7 542 -7 10 -41 10 -48 0z"
       id="path80"
       style="fill:#669999" />
    <path
       d="M6040 7627 c0 -3 35 -28 78 -57 61 -41 71 -45 48 -21 -16 17 -27 33 -24 36 3 3 25 -1 49 -9 47 -17 89 -21 89 -8 0 4 -47 17 -105 30 -58 12 -112 25 -120 28 -8 4 -15 4 -15 1z"
       id="path82"
       style="fill:#6699ff" />
    <path
       d="M6450 7603 c0 -16 -9 -43 -20 -60 l-20 -33 21 0 c24 0 69 42 69 65 0 25 -19 55 -35 55 -10 0 -15 -10 -15 -27z"
       id="path84"
       style="fill:#cc66ff" />
    <path
       d="M5390 7599 c-44 -82 -120 -473 -115 -591 2 -60 25 -108 50 -108 41 0 59 80 71 310 3 74 8 142 9 150 2 8 6 67 10 131 7 118 -1 154 -25 108z"
       id="path86"
       style="fill:#6699ff" />
    <path
       d="M3074 7558 c3 -29 8 -87 11 -128 2 -41 7 -113 10 -160 19 -290 34 -370 69 -370 33 0 65 73 61 140 -3 52 -15 134 -35 235 -10 50 -26 135 -35 190 -23 131 -28 145 -60 145 -26 0 -26 -1 -21 -52z"
       id="path88"
       style="fill:#9999ff" />
    <path
       d="M2720 7458 c-106 -162 -217 -281 -293 -316 -26 -13 -45 -27 -42 -31 3 -5 24 -12 46 -16 40 -7 42 -6 84 41 24 27 46 46 51 41 4 -4 -2 -35 -14 -68 -17 -47 -19 -65 -11 -81 10 -18 16 -9 49 73 21 52 61 144 90 204 103 217 139 295 137 295 -2 0 -45 -64 -97 -142z"
       id="path90"
       style="fill:#9999ff" />
    <path
       d="M5683 7583 c20 -33 205 -434 254 -553 l11 -25 7 29 c6 20 1 44 -15 83 -12 30 -20 57 -16 60 10 10 55 -26 72 -58 15 -30 18 -31 61 -26 68 7 73 22 17 46 -96 43 -179 135 -328 364 -32 48 -59 87 -62 87 -3 0 -3 -3 -1 -7z"
       id="path92"
       style="fill:#6699ff" />
    <path
       d="M2314 7534 c-18 -14 -18 -15 4 -4 12 6 22 13 22 15 0 8 -5 6 -26 -11z"
       id="path94"
       style="fill:none" />
    <path
       d="M5547 7352 c2 -197 -7 -302 -31 -374 -8 -21 -11 -38 -7 -38 4 0 24 23 44 50 49 65 73 52 42 -23 -7 -17 15 -31 81 -51 l22 -7 -23 58 c-13 32 -46 175 -75 318 -28 143 -52 261 -54 262 -1 1 -1 -86 1 -195z"
       id="path96"
       style="fill:#6699ff" />
    <path
       d="M2901 7320 c-55 -283 -68 -337 -91 -377 -23 -39 -14 -41 48 -13 37 17 43 23 37 42 -4 13 -9 30 -11 40 -8 28 18 34 35 8 23 -35 63 -81 67 -78 2 2 -4 24 -13 48 -12 35 -17 98 -20 285 -2 132 -5 247 -6 255 -1 8 -22 -87 -46 -210z"
       id="path98"
       style="fill:#9999ff" />
    <path
       d="M2017 7493 c-3 -5 -2 -15 2 -22 7 -10 10 -10 16 -1 4 6 3 16 -3 22 -5 5 -12 6 -15 1z"
       id="path100"
       style="fill:none" />
    <path
       d="M6457 7494 c-8 -8 3 -34 14 -34 5 0 9 9 9 20 0 19 -11 26 -23 14z"
       id="path102"
       style="fill:none" />
    <path
       d="M6413 7423 c-12 -26 -19 -51 -17 -55 9 -15 33 -8 48 14 19 27 20 48 4 71 -12 15 -15 12 -35 -30z"
       id="path104"
       style="fill:#cc66ff" />
    <path
       d="M2047 7453 c-14 -13 -7 -60 11 -76 38 -34 62 -9 31 32 -11 13 -19 30 -19 37 0 15 -12 18 -23 7z"
       id="path106"
       style="fill:#ff9933" />
    <path
       d="M3190 7384 c0 -5 12 -67 26 -139 14 -71 26 -167 27 -212 1 -46 5 -83 10 -83 4 0 14 15 23 33 16 32 14 40 -31 218 -42 166 -55 210 -55 183z"
       id="path108"
       style="fill:#9999cc" />
    <path
       d="M2050 7344 c0 -26 25 -94 36 -98 17 -6 17 -4 5 26 -5 13 -12 35 -15 51 -4 15 -11 27 -16 27 -6 0 -10 -3 -10 -6z"
       id="path110"
       style="fill:#ff9933" />
    <path
       d="M6419 7308 c-7 -24 -17 -49 -22 -55 -6 -8 -6 -13 1 -13 14 0 28 21 36 52 3 14 9 33 12 42 3 9 1 16 -5 16 -5 0 -16 -19 -22 -42z"
       id="path112"
       style="fill:#cc66ff" />
    <path
       d="M2080 7199 c0 -24 15 -39 47 -45 29 -6 30 -4 26 20 -3 14 -10 26 -17 26 -6 0 -21 3 -33 6 -16 4 -23 2 -23 -7z"
       id="path114"
       style="fill:#ff9933" />
    <path
       d="M6363 7200 c-31 -13 -31 -50 0 -50 28 0 47 17 47 42 0 20 -13 22 -47 8z"
       id="path116"
       style="fill:#cc66ff" />
    <path
       d="M2100 7117 c0 -29 28 -45 98 -57 113 -19 113 2 -1 45 -76 28 -97 31 -97 12z"
       id="path118"
       style="fill:#ff9933" />
    <path
       d="M6290 7104 c-58 -23 -86 -42 -75 -52 6 -7 149 20 161 29 7 6 14 19 17 29 7 27 -21 25 -103 -6z"
       id="path120"
       style="fill:#cc66ff" />
    <path
       d="M2125 7009 c14 -63 19 -67 102 -73 43 -4 107 -9 141 -12 63 -6 64 -6 57 18 -4 12 -12 28 -17 35 -10 13 -151 48 -237 59 l-53 7 7 -34z"
       id="path122"
       style="fill:#ff9933" />
    <path
       d="M6255 7025 c-152 -33 -170 -40 -179 -68 -6 -15 -8 -29 -5 -31 10 -10 264 16 277 28 7 7 15 29 19 49 5 36 5 37 -23 36 -16 0 -56 -7 -89 -14z"
       id="path124"
       style="fill:#cc66ff" />
    <path
       d="M5230 7001 c0 -16 3 -36 6 -45 12 -30 19 -16 16 29 -4 50 -22 62 -22 16z"
       id="path126"
       style="fill:#6699ff" />
    <path
       d="M2160 6886 c0 -18 31 -26 105 -26 33 0 110 -7 170 -15 61 -8 113 -15 118 -15 14 0 7 29 -10 39 -57 30 -383 45 -383 17z"
       id="path128"
       style="fill:#ff9933" />
    <path
       d="M6021 6885 c-57 -11 -91 -32 -91 -55 0 -4 30 -1 68 6 37 7 119 16 182 20 118 7 160 16 160 34 0 14 -240 11 -319 -5z"
       id="path130"
       style="fill:#cc66ff" />
    <path
       d="M5226 6831 c-30 -6 -70 -51 -46 -51 18 0 80 40 80 51 0 5 -1 8 -2 8 -2 -1 -16 -4 -32 -8z"
       id="path132"
       style="fill:#cc99cc" />
    <path
       d="M2177 6798 c10 -54 17 -58 97 -52 39 4 126 1 193 -5 341 -33 620 -157 834 -370 110 -111 210 -264 249 -384 6 -21 14 -36 16 -34 3 3 -13 71 -36 153 -46 166 -64 197 -187 316 -176 169 -392 282 -666 348 -129 32 -341 60 -444 60 l-62 0 6 -32z"
       id="path134"
       style="fill:#ff9933" />
    <path
       d="M3245 6814 c38 -29 106 -66 111 -61 3 3 3 15 -1 27 -8 25 -60 50 -102 50 -27 -1 -27 -1 -8 -16z"
       id="path136"
       style="fill:#ff9933" />
    <path
       d="M6075 6818 c-263 -26 -558 -128 -759 -262 -97 -65 -206 -163 -238 -214 -22 -35 -71 -182 -63 -190 2 -2 19 20 38 50 105 162 280 311 470 402 203 96 389 138 619 140 86 1 159 4 163 7 3 4 9 23 12 43 l6 36 -79 -1 c-44 -1 -119 -6 -169 -11z"
       id="path138"
       style="fill:#cc99cc" />
    <path
       d="M2720 6810 c-20 -12 -17 -14 80 -45 128 -41 336 -145 426 -213 43 -33 115 -96 159 -141 43 -44 81 -79 83 -76 2 2 -14 28 -36 58 -124 167 -463 389 -597 391 -35 1 -59 7 -72 19 -23 20 -23 20 -43 7z"
       id="path140"
       style="fill:#ff9966" />
    <path
       d="M2890 6816 c0 -2 48 -29 108 -58 143 -72 228 -130 342 -233 92 -84 128 -98 77 -32 -27 35 -132 123 -209 176 -77 52 -318 164 -318 147z"
       id="path142"
       style="fill:#ff9933" />
    <path
       d="M5490 6776 c-155 -70 -299 -163 -358 -231 -58 -66 -35 -69 36 -5 89 82 220 168 337 224 85 41 110 56 88 56 -5 0 -51 -20 -103 -44z"
       id="path144"
       style="fill:#cc66ff" />
    <path
       d="M5730 6800 c-18 -14 -39 -19 -75 -17 -100 4 -331 -132 -498 -292 -27 -25 -58 -59 -70 -76 l-22 -30 27 20 c14 11 55 45 90 76 133 118 315 220 503 280 54 17 94 36 92 42 -6 18 -21 17 -47 -3z"
       id="path146"
       style="fill:#cc66ff" />
    <path
       d="M3020 6805 c0 -2 14 -11 30 -20 33 -17 40 -10 13 11 -18 13 -43 19 -43 9z"
       id="path148"
       style="fill:none" />
    <path
       d="M5415 6785 c-16 -14 -38 -25 -49 -25 -21 0 -153 -70 -202 -107 -30 -22 -52 -63 -34 -63 5 0 21 10 37 23 48 40 145 103 208 135 73 37 107 61 85 61 -8 0 -28 -11 -45 -24z"
       id="path150"
       style="fill:#cc66ff" />
    <path
       d="M3194 6778 c-4 -6 -1 -16 7 -20 67 -41 183 -108 185 -108 1 0 -1 11 -5 26 -4 17 -29 38 -81 70 -78 46 -94 51 -106 32z"
       id="path152"
       style="fill:#ff9933" />
    <path
       d="M5216 6758 c-79 -52 -95 -99 -20 -58 45 25 107 62 114 67 6 5 -22 23 -35 23 -6 0 -32 -15 -59 -32z"
       id="path154"
       style="fill:#cc66ff" />
    <path
       d="M3174 6720 c70 -41 176 -121 210 -159 29 -31 36 -26 22 17 -14 41 -58 75 -188 142 -99 52 -133 52 -44 0z"
       id="path156"
       style="fill:#ff9933" />
    <path
       d="M2232 6713 c-31 -6 -34 -20 -18 -73 l13 -45 204 -6 c215 -7 290 -19 430 -72 426 -161 699 -525 700 -937 1 -221 -65 -421 -209 -640 -72 -108 -311 -350 -444 -449 -108 -80 -132 -101 -124 -109 18 -17 358 285 471 417 148 174 257 366 311 546 25 82 27 105 27 260 0 156 -2 177 -27 260 -139 461 -510 768 -1017 840 -97 14 -265 18 -317 8z"
       id="path158"
       style="fill:#ff9966" />
    <path
       d="M5945 6705 c-158 -22 -259 -52 -404 -121 -155 -73 -258 -150 -369 -277 -113 -129 -177 -240 -212 -373 -12 -43 -31 -113 -42 -154 -24 -88 -28 -261 -8 -355 39 -193 135 -388 274 -558 26 -32 46 -61 43 -63 -13 -13 -177 207 -226 304 -12 23 -24 42 -26 42 -15 0 87 -171 167 -282 68 -94 206 -242 337 -360 166 -152 222 -198 238 -198 26 0 -1 30 -90 101 -99 79 -405 374 -396 383 3 3 59 -48 124 -112 119 -117 307 -279 352 -303 28 -15 46 -1 19 15 -107 65 -304 231 -435 366 -165 171 -294 401 -337 603 -21 101 -21 343 1 427 17 66 60 181 81 215 122 204 257 340 434 437 120 67 241 109 394 139 28 6 129 10 224 10 193 1 185 -2 198 76 l6 40 -53 6 c-79 10 -192 7 -294 -8z"
       id="path160"
       style="fill:#cc66ff" />
    <path
       d="M2253 6563 c-16 -6 -16 -26 -3 -75 l10 -36 163 0 c337 0 557 -66 744 -222 128 -107 237 -280 288 -456 23 -78 26 -107 26 -234 0 -112 -5 -163 -20 -223 -54 -210 -165 -404 -330 -580 -73 -78 -180 -172 -186 -165 -3 3 28 34 68 69 142 125 236 241 316 391 84 157 120 286 128 463 12 265 -68 476 -252 661 -192 194 -418 274 -770 274 -128 0 -165 -6 -165 -24 1 -32 21 -38 171 -52 360 -34 496 -74 660 -195 134 -99 234 -244 295 -429 25 -77 28 -98 28 -225 0 -121 -4 -153 -28 -239 -35 -129 -118 -301 -194 -401 -77 -103 -235 -255 -339 -329 -46 -32 -86 -62 -89 -68 -8 -13 2 -7 64 35 24 16 46 27 48 24 3 -3 -19 -22 -50 -44 -53 -36 -77 -65 -37 -44 32 18 219 166 298 237 259 232 423 543 440 835 18 294 -113 589 -349 785 -190 159 -379 238 -628 264 -98 10 -286 12 -307 3z m672 -2013 c-10 -11 -23 -20 -28 -20 -6 0 -2 9 8 20 10 11 23 20 28 20 6 0 2 -9 -8 -20z"
       id="path162"
       style="fill:#ff9966" />
    <path
       d="M5870 6555 c-413 -65 -761 -355 -877 -729 -31 -101 -42 -296 -23 -414 55 -342 279 -651 683 -942 48 -34 90 -60 93 -58 3 3 -40 38 -95 77 -93 66 -122 91 -106 91 4 0 24 -13 44 -28 62 -49 162 -114 167 -109 3 3 -44 39 -103 80 -59 42 -128 94 -153 116 -61 54 -65 43 -4 -13 27 -25 44 -45 38 -46 -6 0 -61 49 -121 110 -179 178 -287 349 -359 565 -34 100 -37 122 -42 251 -4 119 -1 152 16 220 29 112 55 177 109 272 112 192 279 328 488 395 118 39 198 49 415 56 l195 6 12 49 c7 28 10 52 8 54 -13 13 -298 10 -385 -3z"
       id="path164"
       style="fill:#cc66ff" />
    <path
       d="M5835 6419 c-243 -36 -412 -122 -574 -295 -66 -71 -91 -107 -135 -198 -72 -147 -88 -215 -88 -385 0 -201 43 -361 149 -546 62 -108 230 -315 255 -315 6 0 -14 26 -43 58 -140 152 -256 353 -301 522 -19 71 -23 111 -23 240 0 135 3 165 23 230 43 135 106 243 201 343 97 102 213 172 356 216 79 25 282 56 425 67 111 8 140 17 140 42 0 15 -10 21 -46 26 -64 8 -266 5 -339 -5z"
       id="path166"
       style="fill:#cc99cc" />
    <path
       d="M6015 6325 c-306 -26 -457 -73 -612 -189 -143 -108 -258 -283 -292 -446 -19 -89 -25 -268 -12 -346 43 -249 200 -510 413 -692 96 -80 225 -172 245 -172 27 0 11 18 -48 55 -207 127 -384 333 -500 580 -81 172 -109 371 -74 517 54 227 225 427 470 551 146 74 254 96 458 97 123 0 128 1 136 23 10 27 5 37 -17 36 -9 -1 -84 -7 -167 -14z"
       id="path168"
       style="fill:#cc99cc" />
    <path
       d="M2290 6318 c1 -31 19 -35 185 -41 188 -6 261 -22 391 -82 98 -45 175 -97 258 -175 125 -118 196 -238 237 -400 30 -120 23 -230 -25 -373 -97 -290 -296 -553 -534 -706 -28 -18 -49 -37 -46 -43 13 -20 170 98 295 222 235 232 355 495 352 775 -2 229 -71 403 -221 559 -162 167 -338 238 -657 265 -165 15 -235 14 -235 -1z"
       id="path170"
       style="fill:#ff9966" />
    <path
       d="M2327 6242 c-11 -2 -16 -10 -13 -20 3 -9 8 -30 12 -47 10 -44 22 -55 60 -55 41 0 42 8 8 71 -28 50 -38 58 -67 51z"
       id="path172"
       style="fill:#ffcc33" />
    <path
       d="M6128 6233 c-16 -18 -58 -97 -58 -108 0 -3 19 -5 42 -3 43 3 43 3 57 56 12 46 12 55 0 63 -20 12 -24 11 -41 -8z"
       id="path174"
       style="fill:#ffccff" />
    <path
       d="M2643 6218 c2 -7 10 -38 17 -68 7 -30 14 -61 16 -68 3 -12 58 -39 112 -56 21 -7 22 -5 22 56 0 100 -2 103 -85 127 -86 25 -89 25 -82 9z"
       id="path176"
       style="fill:#ffcc33" />
    <path
       d="M5765 6207 l-70 -23 -7 -44 c-3 -25 -7 -64 -7 -86 l-1 -42 67 28 68 27 17 74 c20 86 20 89 11 88 -5 0 -39 -10 -78 -22z"
       id="path178"
       style="fill:#ff99ff" />
    <path
       d="M2480 6079 c0 -2 11 -40 23 -83 24 -87 22 -85 115 -100 l42 -6 0 54 c0 87 -9 100 -77 115 -32 7 -68 15 -80 18 -13 3 -23 4 -23 2z"
       id="path180"
       style="fill:#ffcc33" />
    <path
       d="M5915 6062 l-70 -17 -7 -70 c-4 -39 -4 -73 1 -78 12 -12 121 14 130 32 8 14 41 134 41 147 0 7 -20 3 -95 -14z"
       id="path182"
       style="fill:#ff99ff" />
    <path
       d="M3076 5914 l-29 -65 31 -32 c33 -34 112 -177 112 -203 0 -23 17 -17 62 23 24 21 45 39 47 40 9 6 -21 78 -57 138 -36 62 -118 165 -131 165 -3 0 -19 -30 -35 -66z"
       id="path184"
       style="fill:#ffcc33" />
    <path
       d="M5344 5938 c-54 -58 -100 -127 -131 -195 l-26 -57 47 -43 c27 -24 51 -43 54 -43 4 0 22 33 40 73 18 39 50 96 73 126 l40 53 -22 57 c-12 31 -25 60 -29 64 -4 4 -25 -12 -46 -35z"
       id="path186"
       style="fill:#ffccff" />
    <path
       d="M2847 5933 c-3 -10 -8 -40 -12 -67 -7 -48 -6 -49 41 -97 27 -27 54 -49 61 -49 7 0 27 27 43 61 36 71 36 70 -52 129 -68 45 -75 47 -81 23z"
       id="path188"
       style="fill:#ff9900" />
    <path
       d="M5565 5909 c-94 -62 -92 -59 -56 -123 18 -31 37 -58 43 -62 5 -3 32 16 60 42 l50 49 -6 55 c-3 30 -5 61 -6 68 0 20 -22 13 -85 -29z"
       id="path190"
       style="fill:#ff99ff" />
    <path
       d="M2406 5853 c10 -42 32 -73 53 -73 11 0 26 -3 35 -6 18 -7 21 19 10 75 -6 30 -9 31 -55 31 -49 0 -49 0 -43 -27z"
       id="path192"
       style="fill:#ff9900" />
    <path
       d="M5997 5873 c-4 -3 -7 -29 -7 -56 0 -41 3 -48 16 -43 9 3 24 6 35 6 21 0 43 31 53 73 6 27 6 27 -42 27 -27 0 -52 -3 -55 -7z"
       id="path194"
       style="fill:#ffccff" />
    <path
       d="M2687 5842 c-3 -4 -8 -39 -12 -78 l-7 -70 37 -28 c20 -15 38 -26 39 -25 2 2 15 36 29 76 20 54 23 74 14 81 -25 20 -96 52 -100 44z"
       id="path196"
       style="fill:#ffcc33" />
    <path
       d="M5770 5833 c-8 -3 -27 -14 -42 -24 -26 -19 -26 -20 -14 -67 7 -26 20 -60 28 -76 l15 -29 36 34 35 34 -10 68 c-10 65 -15 72 -48 60z"
       id="path198"
       style="fill:#ffccff" />
    <path
       d="M3605 5790 c22 -96 15 -342 -12 -417 -4 -13 -3 -15 6 -7 6 6 21 60 33 120 18 97 19 117 9 182 -7 40 -19 90 -27 110 -8 20 -12 26 -9 12z"
       id="path200"
       style="fill:#ff9999" />
    <path
       d="M2556 5708 c-3 -7 -6 -48 -9 -90 -3 -57 -1 -78 8 -78 13 0 65 106 65 132 0 20 -59 53 -64 36z"
       id="path202"
       style="fill:#ff9900" />
    <path
       d="M5895 5696 c-18 -13 -19 -18 -7 -63 30 -112 67 -125 59 -20 -4 39 -7 78 -7 85 0 16 -22 15 -45 -2z"
       id="path204"
       style="fill:#ffccff" />
    <path
       d="M2881 5581 c-50 -58 -65 -101 -40 -117 16 -9 130 17 136 32 5 14 -26 132 -37 139 -5 3 -31 -22 -59 -54z"
       id="path206"
       style="fill:#ffcc33" />
    <path
       d="M5536 5593 c-8 -27 -16 -61 -18 -77 -3 -27 0 -30 47 -42 78 -21 92 -19 100 17 6 27 2 36 -28 68 -19 20 -43 46 -53 59 -10 12 -22 22 -25 22 -4 0 -14 -21 -23 -47z"
       id="path208"
       style="fill:#ffccff" />
    <path
       d="M2700 5515 c-24 -31 -40 -58 -37 -61 3 -4 30 11 59 32 29 21 54 39 56 40 5 3 -22 44 -29 44 -4 0 -26 -25 -49 -55z"
       id="path210"
       style="fill:#ff9900" />
    <path
       d="M5730 5551 c-5 -11 -10 -22 -10 -25 0 -10 110 -79 116 -73 4 3 -12 27 -35 53 -22 26 -41 51 -41 55 0 16 -19 9 -30 -10z"
       id="path212"
       style="fill:#ffccff" />
    <path
       d="M3655 5498 c-16 -139 -112 -375 -220 -538 -70 -105 -71 -108 -48 -87 31 27 127 165 166 237 60 112 141 419 117 443 -4 5 -11 -20 -15 -55z"
       id="path214"
       style="fill:#ff9999" />
    <path
       d="M4861 5526 c-1 -42 28 -176 39 -176 6 0 1 34 -28 170 l-10 45 -1 -39z"
       id="path216"
       style="fill:#cc99cc" />
    <path
       d="M3093 5497 c-76 -32 -80 -37 -85 -101 l-3 -40 69 -28 c38 -15 72 -28 76 -28 12 0 20 40 27 138 3 52 2 92 -3 91 -5 -1 -42 -15 -81 -32z"
       id="path218"
       style="fill:#ff9900" />
    <path
       d="M5316 5523 c-8 -8 2 -144 15 -195 l9 -37 68 31 c37 17 71 34 75 38 5 4 5 29 1 55 l-7 47 -74 34 c-83 38 -77 36 -87 27z"
       id="path220"
       style="fill:#ffccff" />
    <path
       d="M2504 5484 c4 -22 21 -90 39 -153 l31 -113 23 26 c12 15 30 51 39 82 15 52 15 56 -6 99 -21 43 -60 75 -109 90 -23 7 -23 6 -17 -31z"
       id="path222"
       style="fill:#ff3300" />
    <path
       d="M5940 5497 c-63 -33 -84 -67 -84 -130 0 -28 7 -65 16 -82 17 -32 52 -75 61 -75 4 0 48 172 73 288 6 29 -11 28 -66 -1z"
       id="path224"
       style="fill:#ff6600" />
    <path
       d="M4845 5402 c9 -79 51 -207 97 -289 37 -68 174 -263 184 -263 6 0 3 5 -63 104 -73 109 -156 281 -193 401 -27 89 -30 94 -25 47z"
       id="path226"
       style="fill:#cc99cc" />
    <path
       d="M2837 5344 c-4 -21 3 -31 41 -60 25 -18 48 -34 52 -34 6 0 30 67 30 83 0 6 -94 37 -111 37 -4 0 -9 -11 -12 -26z"
       id="path228"
       style="fill:#ffcc33" />
    <path
       d="M5578 5354 c-27 -8 -48 -17 -48 -20 0 -3 9 -23 20 -45 l21 -40 44 32 c45 33 55 55 33 77 -14 14 -11 14 -70 -4z"
       id="path230"
       style="fill:#ffccff" />
    <path
       d="M2683 5335 c-4 -11 8 -30 33 -56 21 -21 41 -39 44 -39 4 0 12 12 19 27 14 32 5 44 -52 68 -34 14 -38 14 -44 0z"
       id="path232"
       style="fill:#ff9900" />
    <path
       d="M3581 5319 c-6 -18 -9 -34 -7 -36 2 -2 9 10 15 28 6 18 9 34 7 36 -2 2 -9 -10 -15 -28z"
       id="path234"
       style="fill:none" />
    <path
       d="M5753 5329 c-46 -22 -53 -42 -28 -75 14 -18 16 -17 55 26 61 70 51 88 -27 49z"
       id="path236"
       style="fill:#ffccff" />
    <path
       d="M4905 5311 c11 -37 35 -91 40 -91 6 0 -27 94 -37 105 -7 7 -8 2 -3 -14z"
       id="path238"
       style="fill:#cc99cc" />
    <path
       d="M3160 5227 c0 -6 -11 -32 -24 -57 -40 -76 -40 -82 -1 -134 20 -25 41 -44 46 -40 12 7 89 159 89 177 0 14 -76 67 -97 67 -7 0 -13 -6 -13 -13z"
       id="path240"
       style="fill:#ffcc33" />
    <path
       d="M3546 5223 c-6 -14 -5 -15 5 -6 7 7 10 15 7 18 -3 3 -9 -2 -12 -12z"
       id="path242"
       style="fill:none" />
    <path
       d="M3729 5205 c-76 -122 -102 -166 -98 -170 4 -3 154 33 166 40 2 1 -8 39 -20 86 l-23 84 -25 -40z"
       id="path244"
       style="fill:#0099ff" />
    <path
       d="M5267 5213 c-21 -15 -37 -35 -37 -46 0 -21 78 -177 89 -177 4 0 24 23 44 50 l38 50 -38 72 c-21 40 -43 73 -48 75 -6 2 -27 -9 -48 -24z"
       id="path246"
       style="fill:#ff99ff" />
    <path
       d="M2591 5187 c-8 -10 -7 -27 4 -65 9 -29 19 -52 22 -52 4 0 17 9 29 21 l22 21 -26 44 c-29 48 -34 51 -51 31z"
       id="path248"
       style="fill:#ff9900" />
    <path
       d="M5872 5187 c-5 -7 -17 -26 -25 -43 -16 -31 -15 -32 18 -64 l34 -33 11 44 c6 24 13 51 16 60 6 22 -40 53 -54 36z"
       id="path250"
       style="fill:#ffccff" />
    <path
       d="M3485 5097 c-28 -50 -83 -137 -124 -192 -84 -113 -328 -360 -474 -479 -62 -51 -94 -83 -87 -90 14 -14 135 88 316 269 196 196 304 338 398 524 45 89 24 66 -29 -32z"
       id="path252"
       style="fill:#ff9999" />
    <path
       d="M4756 5139 c-9 -29 -16 -58 -16 -64 0 -12 117 -51 126 -43 4 4 -70 134 -87 152 -4 5 -15 -15 -23 -45z"
       id="path254"
       style="fill:#0099ff" />
    <path
       d="M5491 5136 c-35 -36 -51 -59 -46 -68 20 -35 79 -118 85 -118 3 0 23 30 44 66 l38 66 -29 54 c-15 30 -30 54 -33 54 -3 0 -30 -24 -59 -54z"
       id="path256"
       style="fill:#ff99ff" />
    <path
       d="M2913 5140 c-29 -49 -29 -61 2 -110 14 -22 25 -44 25 -49 0 -5 6 -14 14 -20 11 -9 20 -4 43 26 17 21 38 50 47 65 l18 27 -48 51 c-25 27 -54 50 -63 50 -9 0 -26 -18 -38 -40z"
       id="path258"
       style="fill:#ff9900" />
    <path
       d="M2735 5136 l-26 -34 21 -56 c12 -30 25 -58 30 -61 8 -5 80 85 80 99 0 11 -62 86 -71 86 -4 0 -20 -15 -34 -34z"
       id="path260"
       style="fill:#ffcc33" />
    <path
       d="M5691 5135 c-17 -20 -31 -42 -31 -51 0 -15 60 -103 71 -104 8 0 49 98 49 117 0 16 -40 73 -51 73 -4 0 -21 -16 -38 -35z"
       id="path262"
       style="fill:#ffccff" />
    <path
       d="M3595 4932 c-26 -5 -63 -39 -81 -74 -20 -38 -17 -138 6 -227 10 -42 22 -98 26 -126 l6 -50 35 40 c99 114 153 225 153 320 0 50 -8 68 -42 94 -22 16 -76 28 -103 23z"
       id="path264"
       style="fill:#0066ff" />
    <path
       d="M4803 4910 c-56 -34 -66 -82 -38 -176 25 -84 145 -264 176 -264 3 0 9 25 13 56 3 30 15 88 26 127 26 92 25 150 -1 204 -34 71 -110 94 -176 53z"
       id="path266"
       style="fill:#0066ff" />
    <path
       d="M2706 4871 l-38 -39 18 -63 c9 -35 18 -66 20 -68 1 -1 19 9 38 24 24 18 36 36 36 52 0 29 -20 115 -29 125 -4 5 -24 -9 -45 -31z"
       id="path268"
       style="fill:#ffcc33" />
    <path
       d="M5731 4863 c-25 -101 -26 -97 25 -141 27 -22 51 -39 55 -37 11 8 30 124 22 138 -9 16 -78 77 -86 77 -4 0 -11 -17 -16 -37z"
       id="path270"
       style="fill:#ff99ff" />
    <path
       d="M2887 4822 l-57 -58 0 -66 c0 -37 4 -69 9 -73 10 -5 51 26 123 93 l36 34 -19 56 c-11 31 -23 60 -27 64 -4 4 -34 -18 -65 -50z"
       id="path272"
       style="fill:#ff9900" />
    <path
       d="M5532 4853 c-6 -16 -16 -46 -23 -68 l-12 -39 44 -39 c69 -61 109 -90 115 -85 2 3 7 35 11 72 l6 67 -59 60 c-32 32 -61 59 -65 59 -4 0 -11 -12 -17 -27z"
       id="path274"
       style="fill:#ffccff" />
    <path
       d="M3656 4422 c-131 -135 -204 -218 -195 -220 8 -3 26 -13 41 -23 l26 -19 7 40 c14 84 75 141 158 148 49 4 57 1 86 -24 23 -21 34 -41 38 -70 l5 -41 35 10 c24 8 46 8 74 0 48 -13 48 -13 15 123 -14 54 -34 140 -46 189 -12 50 -25 93 -29 97 -3 3 -100 -91 -215 -210z"
       id="path276"
       style="fill:#6699ff" />
    <path
       d="M4573 4423 c-28 -114 -50 -209 -49 -210 2 -2 17 2 35 8 18 6 50 9 71 5 37 -6 40 -4 45 21 12 55 26 74 62 90 43 17 102 13 139 -11 37 -25 84 -95 84 -128 0 -33 9 -35 52 -8 l32 19 -99 103 c-189 196 -310 318 -315 318 -3 0 -28 -93 -57 -207z"
       id="path278"
       style="fill:#6699ff" />
    <path
       d="M3254 4568 c-49 -16 -123 -77 -176 -146 -26 -35 -48 -67 -48 -71 0 -5 20 -1 44 7 39 14 58 15 158 4 63 -7 123 -10 134 -7 71 24 110 74 100 129 -15 77 -112 116 -212 84z"
       id="path280"
       style="fill:#0033ff" />
    <path
       d="M5090 4562 c-21 -10 -42 -32 -53 -54 -18 -37 -18 -39 0 -75 32 -65 61 -79 161 -74 141 7 205 6 235 -3 l29 -9 -17 34 c-29 56 -154 173 -201 187 -58 17 -113 15 -154 -6z"
       id="path282"
       style="fill:#0033ff" />
    <path
       d="M2865 4346 c-33 -30 -57 -57 -53 -61 4 -4 15 -2 23 5 18 15 99 110 93 110 -1 0 -30 -24 -63 -54z"
       id="path284"
       style="fill:#ff9999" />
    <path
       d="M5609 4343 c27 -32 59 -69 70 -83 18 -21 22 -23 31 -10 5 8 9 18 7 21 -3 8 -147 129 -153 129 -3 0 17 -26 45 -57z"
       id="path286"
       style="fill:#cc99cc" />
    <path
       d="M3632 4308 c-29 -15 -59 -63 -71 -118 -9 -43 -9 -44 8 -24 39 48 121 59 179 24 18 -11 35 -20 37 -20 3 0 5 21 5 47 0 64 -36 103 -94 102 -23 0 -51 -5 -64 -11z m86 -46 c2 -7 -3 -12 -12 -12 -9 0 -16 7 -16 16 0 17 22 14 28 -4z"
       id="path288"
       style="fill:#669999" />
    <path
       d="M4754 4310 c-34 -13 -54 -50 -54 -97 0 -50 11 -60 35 -33 40 45 150 43 179 -2 30 -49 29 4 -2 71 -27 58 -98 86 -158 61z m51 -40 c3 -6 -1 -13 -10 -16 -19 -8 -30 0 -20 15 8 14 22 14 30 1z"
       id="path290"
       style="fill:#669999" />
    <path
       d="M3084 4274 c-52 -26 -74 -79 -89 -222 -8 -70 -17 -146 -20 -169 -2 -24 -3 -43 -1 -43 2 0 15 17 28 38 14 20 66 81 116 135 67 73 93 109 102 142 29 104 -41 166 -136 119z"
       id="path292"
       style="fill:#0099ff" />
    <path
       d="M5302 4274 c-37 -26 -45 -59 -28 -118 12 -41 33 -71 108 -151 51 -55 103 -113 116 -130 l23 -30 -6 65 c-16 193 -28 266 -46 302 -35 68 -116 98 -167 62z"
       id="path294"
       style="fill:#0099ff" />
    <path
       d="M3849 4192 c-18 -9 -35 -25 -37 -34 -3 -15 4 -18 41 -18 39 0 49 -5 81 -40 20 -22 36 -50 36 -62 0 -17 3 -19 12 -10 16 16 29 15 22 -2 -5 -13 12 -33 21 -24 5 5 -31 131 -44 157 -23 42 -84 57 -132 33z m111 -42 c0 -5 -7 -10 -15 -10 -8 0 -15 5 -15 10 0 6 7 10 15 10 8 0 15 -4 15 -10z"
       id="path296"
       style="fill:#669999" />
    <path
       d="M4571 4197 c-19 -7 -43 -24 -53 -38 -26 -35 -35 -101 -15 -117 12 -10 17 -7 27 17 20 49 54 73 110 79 27 2 50 8 50 12 0 11 -44 47 -65 53 -11 3 -35 0 -54 -6z m-11 -47 c0 -5 -7 -10 -15 -10 -8 0 -15 5 -15 10 0 6 7 10 15 10 8 0 15 -4 15 -10z"
       id="path298"
       style="fill:#669999" />
    <path
       d="M3422 4163 c-19 -7 -42 -58 -42 -93 0 -34 15 -41 23 -10 6 23 62 50 104 50 l27 0 -29 30 c-27 28 -53 35 -83 23z m18 -33 c0 -5 -2 -10 -4 -10 -3 0 -8 5 -11 10 -3 6 -1 10 4 10 6 0 11 -4 11 -10z"
       id="path300"
       style="fill:#669999" />
    <path
       d="M4996 4149 c-33 -26 -33 -39 -1 -39 34 0 80 -24 99 -52 9 -12 18 -19 22 -15 11 11 -6 74 -27 101 -25 31 -57 33 -93 5z m74 -19 c0 -5 -4 -10 -10 -10 -5 0 -10 5 -10 10 0 6 5 10 10 10 6 0 10 -4 10 -10z"
       id="path302"
       style="fill:#669999" />
    <path
       d="M3279 4033 c-146 -168 -269 -333 -269 -360 0 -25 39 -14 55 16 19 38 62 71 91 71 26 0 84 -45 84 -66 0 -9 11 -14 32 -14 l32 0 -44 45 c-41 42 -44 49 -48 110 -4 65 -4 65 36 105 23 23 50 40 63 41 49 1 54 9 49 77 l-5 63 -76 -88z"
       id="path304"
       style="fill:#66ccff" />
    <path
       d="M5140 4062 c0 -29 0 -55 -1 -59 0 -5 17 -13 38 -19 21 -6 53 -25 70 -44 61 -61 54 -142 -18 -224 -39 -44 -40 -46 -17 -46 17 0 32 11 49 37 46 71 121 67 160 -8 15 -30 25 -39 44 -39 31 0 31 3 3 49 -50 82 -244 326 -302 380 l-26 24 0 -51z"
       id="path306"
       style="fill:#66ccff" />
    <path
       d="M3569 4057 c-123 -63 -157 -162 -104 -300 25 -62 41 -84 119 -162 50 -49 149 -130 218 -180 138 -98 151 -105 142 -81 -4 9 -1 30 6 46 11 26 10 33 -4 49 -30 33 -19 84 24 106 22 11 28 23 32 60 9 80 64 115 132 84 21 -10 29 -8 52 10 37 29 85 27 123 -5 29 -24 32 -24 53 -10 33 23 68 19 100 -11 22 -21 28 -36 28 -69 0 -37 4 -45 27 -56 15 -7 34 -25 42 -40 13 -22 13 -30 1 -55 -7 -15 -14 -51 -14 -80 l-1 -51 65 46 c36 25 78 55 95 66 328 227 429 435 286 589 -64 70 -196 98 -282 60 -94 -42 -148 -115 -149 -200 0 -89 50 -144 137 -151 63 -5 98 13 119 63 19 45 18 48 -12 84 -30 36 -72 41 -99 12 -16 -19 -16 -21 10 -45 l28 -26 -29 0 c-72 0 -138 82 -112 137 7 15 28 36 46 46 29 17 39 18 73 8 35 -11 42 -10 65 8 36 29 96 36 136 17 37 -18 68 -62 68 -96 0 -28 -26 -76 -47 -89 -17 -10 -17 -12 -1 -24 10 -8 22 -26 28 -42 34 -90 -103 -201 -191 -154 -17 8 -24 6 -40 -16 -25 -31 -89 -65 -122 -65 -66 0 -132 85 -122 156 l6 41 -39 6 c-41 7 -70 32 -97 87 -10 19 -19 36 -20 38 -2 2 -24 -3 -48 -12 -41 -14 -51 -14 -94 -1 -59 18 -63 18 -63 2 0 -7 -12 -32 -27 -55 -25 -38 -52 -57 -96 -64 -16 -2 -19 -13 -20 -67 -2 -59 -4 -65 -37 -92 -49 -41 -89 -46 -146 -19 -25 13 -54 35 -63 50 -15 25 -18 27 -36 14 -63 -46 -195 31 -197 116 -1 17 9 44 21 61 l22 30 -25 30 c-37 43 -42 73 -19 111 38 67 123 84 186 37 26 -19 33 -20 67 -9 94 31 169 -82 97 -147 -30 -28 -61 -43 -88 -43 l-22 0 21 23 c27 29 28 43 3 57 -45 23 -96 0 -114 -53 -10 -26 29 -96 59 -107 56 -22 140 -4 176 36 26 30 38 101 27 154 -7 32 -22 59 -50 87 -88 91 -197 109 -310 50z"
       id="path308"
       style="fill:#6666ff" />
    <path
       d="M4470 4015 c0 -9 5 -15 11 -13 6 2 11 8 11 13 0 5 -5 11 -11 13 -6 2 -11 -4 -11 -13z"
       id="path310"
       style="fill:none" />
    <path
       d="M3564 3986 c-34 -28 -38 -84 -9 -116 25 -28 36 -25 29 8 -4 19 1 36 17 56 19 24 27 27 65 24 51 -4 54 2 18 31 -36 28 -86 27 -120 -3z m41 -26 c-3 -5 -10 -10 -16 -10 -5 0 -9 5 -9 10 0 6 7 10 16 10 8 0 12 -4 9 -10z"
       id="path312"
       style="fill:#669999" />
    <path
       d="M4812 3994 c-29 -20 -28 -36 2 -28 13 3 34 0 46 -6 18 -10 24 -9 34 6 9 11 15 13 20 6 3 -6 -1 -15 -11 -20 -13 -8 -14 -13 -6 -24 6 -7 13 -29 15 -48 l3 -35 23 23 c22 22 29 63 16 97 -16 40 -101 58 -142 29z"
       id="path314"
       style="fill:#669999" />
    <path
       d="M3760 3965 c-10 -13 -9 -15 12 -15 37 0 78 -36 78 -68 1 -26 1 -26 15 -8 18 24 10 65 -17 89 -25 21 -71 22 -88 2z m90 -15 c0 -5 -4 -10 -10 -10 -5 0 -10 5 -10 10 0 6 5 10 10 10 6 0 10 -4 10 -10z"
       id="path316"
       style="fill:#669999" />
    <path
       d="M4013 3962 c41 -46 37 -154 -8 -174 -27 -12 -24 -28 6 -28 31 0 68 30 90 72 18 34 18 41 5 66 -8 16 -32 40 -53 55 -45 31 -64 35 -40 9z m77 -77 c0 -8 -7 -15 -15 -15 -8 0 -15 7 -15 15 0 8 7 15 15 15 8 0 15 -7 15 -15z"
       id="path318"
       style="fill:#669999" />
    <path
       d="M4426 3931 c-42 -42 -48 -53 -42 -77 11 -42 68 -94 105 -94 17 0 31 5 31 10 0 6 -6 10 -13 10 -22 0 -47 35 -53 72 -5 30 4 63 34 121 11 22 -20 1 -62 -42z m4 -46 c0 -8 -4 -15 -10 -15 -5 0 -10 7 -10 15 0 8 5 15 10 15 6 0 10 -7 10 -15z"
       id="path320"
       style="fill:#669999" />
    <path
       d="M4641 3954 c-22 -28 -28 -69 -11 -79 6 -3 10 1 10 10 0 25 46 65 75 65 28 0 34 15 9 24 -33 13 -63 5 -83 -20z m29 -4 c0 -5 -7 -10 -16 -10 -8 0 -12 5 -9 10 3 6 10 10 16 10 5 0 9 -4 9 -10z"
       id="path322"
       style="fill:#669999" />
    <path
       d="M3305 3951 c-11 -5 -28 -17 -37 -27 -73 -82 -20 -194 125 -263 36 -17 67 -31 70 -31 3 0 -21 26 -53 58 -87 88 -99 146 -46 224 13 20 22 39 18 42 -8 8 -53 6 -77 -3z m-10 -120 c7 -12 -12 -24 -25 -16 -11 7 -4 25 10 25 5 0 11 -4 15 -9z"
       id="path324"
       style="fill:#669999" />
    <path
       d="M5117 3954 c-4 -4 2 -19 12 -33 30 -43 41 -87 30 -123 -14 -48 -59 -110 -102 -137 -58 -38 -35 -36 47 3 83 40 108 62 137 118 23 45 24 79 3 119 -21 41 -105 75 -127 53z m113 -129 c0 -8 -7 -15 -15 -15 -16 0 -20 12 -8 23 11 12 23 8 23 -8z"
       id="path326"
       style="fill:#669999" />
    <path
       d="M3563 3786 c-26 -33 -29 -54 -10 -80 10 -13 18 -16 28 -10 10 7 13 23 9 64 l-5 55 -22 -29z"
       id="path328"
       style="fill:#669999" />
    <path
       d="M4903 3753 c0 -38 -5 -51 -27 -70 -17 -14 -40 -23 -62 -23 -19 0 -34 -4 -34 -10 0 -18 50 -23 88 -8 29 11 36 19 35 36 -3 23 12 31 20 10 2 -7 11 2 21 20 15 29 15 35 1 62 -24 46 -42 38 -42 -17z"
       id="path330"
       style="fill:#669999" />
    <path
       d="M5302 3720 c-29 -28 -28 -42 3 -28 13 6 22 15 19 19 -3 5 2 9 11 9 9 0 13 -4 10 -10 -3 -5 2 -10 12 -10 11 0 24 -5 31 -12 8 -8 12 -9 12 -1 0 14 -48 53 -64 53 -7 0 -22 -9 -34 -20z"
       id="path332"
       style="fill:#669999" />
    <path
       d="M3107 3712 c-24 -27 -21 -32 13 -19 17 6 30 15 30 19 0 4 5 8 11 8 5 0 8 -4 5 -9 -5 -8 43 -35 50 -28 2 2 -3 13 -12 25 -19 28 -74 30 -97 4z"
       id="path334"
       style="fill:#669999" />
    <path
       d="M3942 3701 c-28 -38 -90 -57 -135 -42 -38 14 -43 9 -27 -29 17 -40 46 -60 88 -60 80 0 132 72 104 143 -7 16 -10 14 -30 -12z m-32 -86 c0 -8 -4 -15 -9 -15 -13 0 -22 16 -14 24 11 11 23 6 23 -9z"
       id="path336"
       style="fill:#669999" />
    <path
       d="M4520 3676 c0 -58 13 -80 57 -97 59 -22 123 4 144 59 12 32 9 34 -30 21 -44 -16 -102 2 -135 41 -13 17 -27 30 -30 30 -3 0 -6 -24 -6 -54z m90 -62 c0 -17 -22 -14 -28 4 -2 7 3 12 12 12 9 0 16 -7 16 -16z"
       id="path338"
       style="fill:#669999" />
    <path
       d="M3591 3681 c-27 -17 62 -58 99 -46 30 10 24 25 -10 25 -17 0 -41 7 -53 15 -14 8 -28 11 -36 6z"
       id="path340"
       style="fill:#669999" />
    <path
       d="M4215 3682 c-5 -4 -18 -16 -27 -27 -16 -20 -16 -20 58 -20 41 0 74 3 74 7 0 4 -12 16 -26 27 -27 21 -61 27 -79 13z"
       id="path342"
       style="fill:#669999" />
    <path
       d="M4055 3647 c-22 -18 -26 -29 -23 -62 3 -33 5 -36 12 -20 16 36 39 55 68 55 34 0 36 13 6 34 -29 21 -32 20 -63 -7z m25 -7 c0 -5 -5 -10 -11 -10 -5 0 -7 5 -4 10 3 6 8 10 11 10 2 0 4 -4 4 -10z"
       id="path344"
       style="fill:#669999" />
    <path
       d="M4383 3659 c-32 -12 -29 -37 4 -41 18 -2 35 -15 49 -36 21 -31 23 -31 29 -12 17 53 -34 108 -82 89z m47 -19 c0 -5 -4 -10 -10 -10 -5 0 -10 5 -10 10 0 6 5 10 10 10 6 0 10 -4 10 -10z"
       id="path346"
       style="fill:#669999" />
    <path
       d="M3275 3650 c3 -5 14 -10 23 -10 15 0 15 2 2 10 -20 13 -33 13 -25 0z"
       id="path348"
       style="fill:none" />
    <path
       d="M5105 3636 l-50 -23 32 -16 c17 -9 34 -26 38 -37 11 -35 23 -22 18 19 -3 21 0 48 6 60 7 11 10 21 9 20 -2 0 -25 -11 -53 -23z"
       id="path350"
       style="fill:#669999" />
    <path
       d="M5195 3650 c-8 -13 15 -13 35 0 12 8 11 10 -7 10 -12 0 -25 -4 -28 -10z"
       id="path352"
       style="fill:none" />
    <path
       d="M3007 3639 c-9 -6 -17 -20 -17 -32 1 -22 1 -22 12 -2 6 11 16 23 22 27 17 11 2 17 -17 7z"
       id="path354"
       style="fill:#669999" />
    <path
       d="M3357 3616 c3 -18 0 -42 -6 -53 -17 -33 1 -35 21 -3 10 17 30 35 46 41 l27 11 -40 18 c-54 25 -55 25 -48 -14z"
       id="path356"
       style="fill:#669999" />
    <path
       d="M5477 3628 c12 -13 23 -36 25 -53 3 -24 6 -27 12 -12 5 9 5 25 0 35 -4 9 -8 21 -8 25 -1 9 -27 27 -40 27 -5 0 0 -10 11 -22z"
       id="path358"
       style="fill:#669999" />
    <path
       d="M3322 3605 c0 -16 2 -22 5 -12 2 9 2 23 0 30 -3 6 -5 -1 -5 -18z"
       id="path360"
       style="fill:none" />
    <path
       d="M5168 3624 c-5 -4 -8 -16 -8 -28 0 -14 3 -17 11 -9 6 6 9 19 7 28 -1 9 -6 13 -10 9z"
       id="path362"
       style="fill:none" />
    <path
       d="M3113 3603 c-17 -8 -35 -25 -41 -38 -22 -48 60 -109 96 -73 9 9 12 3 12 -28 0 -22 -5 -45 -12 -52 -15 -15 -58 -16 -58 -2 0 6 -11 10 -25 10 -14 0 -34 9 -45 20 -11 11 -20 16 -20 10 0 -18 41 -48 61 -43 10 3 19 1 19 -5 0 -5 -11 -13 -25 -16 -15 -4 -25 -14 -25 -24 0 -16 28 -123 34 -130 2 -1 27 6 57 16 30 11 92 25 139 31 47 7 105 16 130 20 44 8 44 8 19 19 -53 22 -101 76 -141 159 -22 45 -50 91 -62 103 -34 31 -78 41 -113 23z"
       id="path364"
       style="fill:#6666ff" />
    <path
       d="M5278 3587 c-15 -12 -48 -63 -72 -113 -44 -91 -49 -96 -144 -161 -14 -9 -8 -12 33 -17 140 -17 207 -30 283 -56 45 -15 82 -27 82 -25 0 1 15 62 34 136 54 219 51 196 27 175 -15 -13 -21 -31 -21 -60 0 -47 -6 -58 -37 -75 -28 -14 -35 -14 -59 3 -18 14 -17 15 15 14 22 -1 39 5 47 17 22 30 16 40 -9 17 -13 -12 -32 -22 -42 -22 -10 0 -26 -7 -36 -16 -14 -13 -21 -13 -41 -3 -14 7 -18 14 -10 17 17 5 15 22 -3 22 -9 0 -15 9 -15 25 0 24 3 25 34 19 29 -5 39 -2 60 20 32 31 33 50 1 81 -32 33 -89 34 -127 2z"
       id="path366"
       style="fill:#6666ff" />
    <path
       d="M3404 3564 c-20 -19 -24 -31 -19 -52 16 -66 88 -98 282 -127 59 -9 119 -19 133 -22 60 -14 -2 17 -95 47 -55 18 -113 39 -128 47 -34 17 -67 69 -67 106 0 25 -3 27 -40 27 -30 0 -47 -7 -66 -26z m66 -64 c0 -5 -4 -10 -10 -10 -5 0 -10 5 -10 10 0 6 5 10 10 10 6 0 10 -4 10 -10z"
       id="path368"
       style="fill:#6666ff" />
    <path
       d="M4986 3556 c-14 -72 -57 -103 -213 -152 -51 -16 -93 -33 -93 -37 0 -5 8 -6 18 -3 9 3 51 10 92 15 101 14 216 38 243 52 43 22 77 62 77 90 0 35 -42 69 -85 69 -29 0 -33 -4 -39 -34z m64 -56 c0 -5 -7 -10 -16 -10 -8 0 -12 5 -9 10 3 6 10 10 16 10 5 0 9 -4 9 -10z"
       id="path370"
       style="fill:#6666ff" />
    <path
       d="M4149 3544 c-26 -11 -44 -29 -63 -63 -32 -61 -33 -91 -1 -125 30 -33 50 -33 71 -1 16 25 16 27 -6 51 -35 36 -15 51 48 38 26 -5 59 -7 72 -3 71 20 126 0 82 -29 -36 -24 -23 -82 18 -82 27 0 60 43 60 79 0 45 -35 108 -73 131 -40 25 -154 27 -208 4z"
       id="path372"
       style="fill:#669999" />
    <path
       d="M3984 3516 c-10 -8 -16 -17 -13 -20 3 -3 14 1 25 8 10 8 16 17 13 20 -3 3 -14 -1 -25 -8z"
       id="path374"
       style="fill:none" />
    <path
       d="M4480 3523 c0 -5 9 -14 20 -21 11 -7 20 -8 20 -2 0 5 -9 14 -20 20 -11 6 -20 7 -20 3z"
       id="path376"
       style="fill:none" />
    <path
       d="M3336 3507 c3 -10 9 -15 12 -12 3 3 0 11 -7 18 -10 9 -11 8 -5 -6z"
       id="path378"
       style="fill:none" />
    <path
       d="M5146 3503 c-6 -14 -5 -15 5 -6 7 7 10 15 7 18 -3 3 -9 -2 -12 -12z"
       id="path380"
       style="fill:none" />
    <path
       d="M3950 3471 c0 -5 9 -19 20 -32 21 -26 27 -11 10 22 -11 19 -30 26 -30 10z"
       id="path382"
       style="fill:#669999" />
    <path
       d="M4523 3468 c-21 -28 -24 -38 -9 -38 8 0 18 9 21 21 8 25 2 34 -12 17z"
       id="path384"
       style="fill:#669999" />
    <path
       d="M4200 3421 c0 -6 9 -15 20 -21 13 -7 20 -7 20 -1 0 6 -9 15 -20 21 -13 7 -20 7 -20 1z"
       id="path386"
       style="fill:none" />
    <path
       d="M4265 3410 c-3 -5 -2 -10 4 -10 5 0 13 5 16 10 3 6 2 10 -4 10 -5 0 -13 -4 -16 -10z"
       id="path388"
       style="fill:none" />
    <path
       d="M3980 3381 c-13 -26 -13 -44 2 -39 11 4 24 58 14 58 -3 0 -10 -9 -16 -19z"
       id="path390"
       style="fill:#669999" />
    <path
       d="M4495 3377 c11 -35 25 -44 25 -15 0 14 -7 29 -16 32 -12 5 -14 1 -9 -17z"
       id="path392"
       style="fill:#669999" />
    <path
       d="M3468 3383 c7 -3 16 -2 19 1 4 3 -2 6 -13 5 -11 0 -14 -3 -6 -6z"
       id="path394"
       style="fill:none" />
    <path
       d="M3534 3374 c3 -8 6 -18 6 -20 0 -2 5 -4 10 -4 16 0 11 27 -6 34 -12 5 -15 2 -10 -10z"
       id="path396"
       style="fill:none" />
    <path
       d="M4851 3358 c-17 -11 -30 -22 -29 -24 6 -5 88 20 88 27 0 17 -29 15 -59 -3z"
       id="path398"
       style="fill:#669999" />
    <path
       d="M4932 3369 c2 -6 8 -10 13 -10 5 0 11 4 13 10 2 6 -4 11 -13 11 -9 0 -15 -5 -13 -11z"
       id="path400"
       style="fill:none" />
    <path
       d="M3585 3360 c-3 -5 3 -10 15 -10 12 0 34 -7 50 -15 39 -20 39 -5 1 18 -33 19 -57 22 -66 7z"
       id="path402"
       style="fill:#669999" />
    <path
       d="M4221 3356 c-8 -9 -11 -19 -7 -23 9 -9 29 13 24 27 -2 8 -8 7 -17 -4z"
       id="path404"
       style="fill:none" />
    <path
       d="M4256 3362 c-3 -5 1 -15 9 -22 21 -17 27 -9 10 13 -7 10 -16 14 -19 9z"
       id="path406"
       style="fill:none" />
    <path
       d="M3719 3326 c19 -20 38 -36 42 -36 6 0 20 52 16 56 -1 1 -22 5 -47 9 l-45 7 34 -36z"
       id="path408"
       style="fill:#669999" />
    <path
       d="M4738 3353 c-29 -4 -36 -17 -18 -28 6 -4 8 -10 6 -14 -3 -4 -2 -11 2 -17 4 -6 22 7 41 28 35 40 35 41 -31 31z"
       id="path410"
       style="fill:#669999" />
    <path
       d="M3807 3314 c-12 -12 -8 -46 5 -42 6 2 20 -4 30 -14 10 -10 24 -18 31 -18 6 0 0 10 -14 23 -15 12 -31 30 -36 40 -5 10 -12 14 -16 11z"
       id="path412"
       style="fill:#669999" />
    <path
       d="M3994 3312 c9 -15 48 -23 43 -9 -2 7 -14 14 -26 15 -13 2 -21 -1 -17 -6z"
       id="path414"
       style="fill:none" />
    <path
       d="M4463 3313 c-7 -2 -13 -8 -13 -13 0 -10 38 -1 46 11 6 10 -13 11 -33 2z"
       id="path416"
       style="fill:none" />
    <path
       d="M4670 3308 c0 -7 -12 -25 -27 -41 -28 -30 -15 -28 21 2 10 9 20 15 22 14 2 -2 4 -1 4 2 0 3 0 12 0 20 0 8 -4 15 -10 15 -5 0 -10 -5 -10 -12z"
       id="path418"
       style="fill:#669999" />
    <path
       d="M4203 3280 c-12 -32 -52 -53 -80 -43 -10 4 -30 15 -44 26 -18 13 -34 17 -49 12 -20 -6 -18 -9 22 -38 24 -17 74 -57 112 -89 39 -32 76 -58 84 -58 8 0 36 20 64 45 27 24 76 64 108 87 33 24 60 46 60 51 0 10 -50 -3 -75 -19 -11 -8 -36 -14 -56 -14 -32 0 -40 5 -58 35 -27 47 -71 50 -88 5z"
       id="path420"
       style="fill:#6666ff" />
    <path
       d="M4175 3291 c-3 -6 -22 -11 -41 -11 -21 0 -33 -4 -29 -10 3 -5 16 -10 29 -10 25 0 64 25 54 35 -3 3 -9 2 -13 -4z"
       id="path422"
       style="fill:#669999" />
    <path
       d="M4310 3293 c0 -25 71 -45 85 -24 4 7 -6 11 -27 11 -19 0 -39 5 -46 12 -8 8 -12 8 -12 1z"
       id="path424"
       style="fill:#669999" />
    <path
       d="M3335 3199 c-73 -14 -202 -58 -214 -72 -9 -12 1 -62 50 -248 l9 -37 37 13 c21 7 51 11 68 8 l31 -5 0 74 c-1 67 2 78 27 111 65 86 145 88 222 7 26 -27 30 -39 29 -82 0 -43 -5 -55 -28 -75 -15 -12 -35 -23 -45 -23 -38 0 -83 -23 -92 -48 -5 -14 -7 -45 -3 -69 l6 -43 44 40 c36 33 51 40 83 40 55 0 86 -16 118 -63 l28 -40 8 68 c4 37 16 87 26 111 56 125 236 121 301 -7 25 -49 25 -89 0 -139 -28 -55 -49 -64 -136 -56 -80 7 -124 -6 -144 -44 -10 -19 -7 -20 59 -20 60 0 74 -4 100 -25 33 -29 56 -84 46 -115 -10 -33 9 -23 29 15 11 20 38 53 61 74 35 33 50 39 103 45 34 4 101 4 148 0 102 -8 131 -25 183 -102 l36 -53 6 47 c4 37 13 53 42 80 34 31 42 34 102 34 36 0 65 4 65 9 0 5 -14 21 -31 35 -30 26 -34 26 -119 20 -85 -6 -89 -6 -113 18 -29 29 -43 97 -33 153 14 75 112 134 198 120 80 -14 127 -83 143 -213 l7 -54 18 29 c31 50 57 66 115 71 54 4 57 4 95 -37 22 -22 42 -41 45 -41 9 0 5 101 -5 120 -6 12 -34 26 -66 36 -73 21 -94 42 -94 97 0 109 116 182 200 125 19 -13 45 -39 58 -58 20 -30 23 -45 20 -103 l-3 -67 57 0 c53 0 58 -2 86 -36 35 -42 27 -56 77 135 25 97 31 138 24 148 -18 21 -160 71 -254 88 -117 22 -305 16 -420 -15 -147 -38 -328 -138 -442 -243 l-43 -39 45 -50 c54 -60 60 -101 20 -120 -22 -10 -30 -8 -54 10 -25 18 -31 19 -41 7 -15 -18 -52 -19 -68 -3 -22 22 -13 55 30 108 l42 53 -40 34 c-129 113 -275 194 -429 238 -74 22 -116 27 -235 30 -80 2 -167 0 -195 -6z"
       id="path426"
       style="fill:#66ccff" />
    <path
       d="M4170 3081 c19 -17 39 -31 44 -31 15 0 -11 24 -46 43 l-33 19 35 -31z"
       id="path428"
       style="fill:#669999" />
    <path
       d="M4306 3080 c-21 -16 -41 -32 -45 -36 -11 -12 54 25 79 45 39 32 9 24 -34 -9z"
       id="path430"
       style="fill:#669999" />
    <path
       d="M3420 3062 c-19 -9 -45 -33 -58 -52 -29 -42 -26 -95 10 -199 l23 -66 3 47 c4 62 33 93 96 101 54 8 75 27 76 70 0 42 -25 82 -64 101 -42 20 -43 20 -86 -2z m88 -48 c12 -8 22 -20 22 -26 0 -20 -32 -48 -55 -48 -42 0 -60 44 -29 74 19 20 34 20 62 0z"
       id="path432"
       style="fill:#66cccc" />
    <path
       d="M4993 3065 c-89 -39 -93 -156 -6 -170 79 -13 81 -14 98 -59 10 -27 14 -53 10 -68 -16 -53 14 1 34 61 39 119 20 200 -53 235 -40 19 -42 19 -83 1z m62 -55 c26 -29 7 -70 -33 -70 -49 0 -67 37 -35 72 21 24 45 23 68 -2z"
       id="path434"
       style="fill:#66cccc" />
    <path
       d="M3821 2913 c-44 -22 -68 -76 -80 -184 -10 -89 -7 -105 13 -77 25 35 77 48 147 38 l64 -10 32 34 c27 30 31 40 28 76 -11 109 -110 169 -204 123z m142 -68 c31 -31 -10 -84 -54 -70 -25 8 -40 44 -27 68 11 21 61 23 81 2z"
       id="path436"
       style="fill:#66ffff" />
    <path
       d="M4560 2923 c-23 -9 -60 -45 -76 -75 -21 -41 -18 -101 8 -133 21 -27 23 -27 103 -23 84 6 102 1 144 -36 l23 -21 -7 70 c-14 143 -33 187 -90 211 -35 14 -77 17 -105 7z m50 -81 c19 -15 21 -22 11 -39 -22 -42 -82 -37 -96 7 -14 45 43 66 85 32z"
       id="path438"
       style="fill:#66ffff" />
    <path
       d="M3277 2824 c-22 -37 -13 -372 11 -396 11 -11 16 17 26 137 9 104 -17 290 -37 259z"
       id="path440"
       style="fill:#6666ff" />
    <path
       d="M5201 2811 c-25 -45 -21 -374 4 -399 3 -3 8 -3 11 0 10 11 16 353 7 388 l-9 35 -13 -24z"
       id="path442"
       style="fill:#999999" />
    <path
       d="M5298 2730 c4 -75 21 -121 23 -64 2 48 -2 77 -16 109 -11 27 -12 22 -7 -45z"
       id="path444"
       style="fill:#999999" />
    <path
       d="M3224 2734 c-4 -37 -3 -59 5 -67 8 -8 11 6 11 56 0 37 -2 67 -4 67 -3 0 -8 -25 -12 -56z"
       id="path446"
       style="fill:#999999" />
    <path
       d="M3335 2615 c0 -84 3 -151 6 -149 12 7 29 93 29 149 0 56 -17 142 -29 149 -3 2 -6 -65 -6 -149z"
       id="path448"
       style="fill:#999999" />
    <path
       d="M5258 2725 c-3 -27 -6 -99 -7 -160 -1 -60 -4 -119 -8 -130 -4 -15 -2 -17 6 -9 17 16 31 187 23 274 l-8 75 -6 -50z"
       id="path450"
       style="fill:#999999" />
    <path
       d="M3536 2723 c-28 -42 -68 -143 -97 -242 -18 -63 -19 -97 0 -50 52 136 105 251 133 291 22 32 22 38 3 38 -8 0 -26 -17 -39 -37z"
       id="path452"
       style="fill:#999999" />
    <path
       d="M4928 2713 c28 -48 111 -231 130 -288 9 -26 11 -27 11 -7 1 31 -53 191 -92 272 -24 48 -38 66 -55 68 -22 3 -22 3 6 -45z"
       id="path454"
       style="fill:#999999" />
    <path
       d="M5140 2734 c-15 -39 -19 -134 -8 -195 18 -103 28 -77 28 74 0 81 -2 147 -5 147 -3 0 -10 -12 -15 -26z"
       id="path456"
       style="fill:#6666ff" />
    <path
       d="M4870 2741 c0 -5 34 -76 76 -158 87 -171 91 -149 5 32 -52 109 -81 155 -81 126z"
       id="path458"
       style="fill:#999999" />
    <path
       d="M3481 2708 c-25 -40 -101 -268 -100 -299 0 -22 1 -23 8 -4 5 11 19 54 31 95 12 41 37 112 55 158 35 87 37 102 6 50z"
       id="path460"
       style="fill:#999999" />
    <path
       d="M3602 2728 c-27 -35 -137 -276 -129 -285 3 -2 22 31 43 74 21 43 55 108 76 145 21 37 38 70 38 73 0 10 -18 5 -28 -7z"
       id="path462"
       style="fill:#999999" />
    <path
       d="M4993 2730 c3 -8 21 -55 40 -105 19 -49 43 -119 52 -155 17 -60 35 -99 35 -73 0 16 -55 190 -79 252 -19 47 -62 120 -48 81z"
       id="path464"
       style="fill:#6666ff" />
    <path
       d="M4836 2691 c-16 -26 84 -229 146 -294 28 -31 29 -31 22 -7 -12 45 -148 310 -159 310 -2 0 -6 -4 -9 -9z"
       id="path466"
       style="fill:#6666ff" />
    <path
       d="M3618 2647 c-28 -44 -112 -211 -128 -253 -17 -45 7 -24 57 49 62 89 99 161 108 210 9 49 -4 47 -37 -6z"
       id="path468"
       style="fill:#6666ff" />
    <path
       d="M3766 2519 c-66 -61 -173 -196 -163 -205 2 -3 21 17 40 44 42 56 112 123 180 172 33 23 44 36 35 42 -21 13 -24 11 -92 -53z"
       id="path470"
       style="fill:#999999" />
    <path
       d="M4641 2571 c-9 -6 3 -19 38 -45 28 -21 87 -76 132 -124 72 -76 79 -82 58 -44 -25 46 -160 191 -195 210 -11 6 -26 7 -33 3z"
       id="path472"
       style="fill:#999999" />
    <path
       d="M3739 2552 c-43 -28 -126 -136 -158 -202 l-12 -25 18 23 c59 77 131 161 157 184 36 30 32 45 -5 20z"
       id="path474"
       style="fill:#999999" />
    <path
       d="M4130 2548 c-35 -13 -65 -42 -128 -128 -30 -41 -58 -79 -63 -85 -5 -7 40 -10 129 -9 172 2 159 -1 176 32 11 19 15 22 16 10 0 -29 29 -35 178 -40 l143 -5 -29 31 c-16 17 -48 59 -70 93 -53 78 -85 103 -131 103 -41 0 -81 -23 -81 -46 0 -8 4 -13 10 -9 12 7 50 -30 50 -49 0 -29 -29 -45 -83 -44 -61 0 -77 10 -77 48 0 21 7 30 30 40 l31 13 -21 22 c-27 29 -49 35 -80 23z"
       id="path476"
       style="fill:#3366ff" />
    <path
       d="M4791 2492 c35 -37 78 -89 94 -115 17 -26 33 -47 38 -47 4 0 -5 19 -19 43 -50 79 -144 187 -164 187 -7 0 16 -30 51 -68z"
       id="path478"
       style="fill:#999999" />
    <path
       d="M4846 2545 c10 -27 53 -95 60 -95 3 0 -6 21 -21 48 -32 55 -50 76 -39 47z"
       id="path480"
       style="fill:#6666ff" />
    <path
       d="M3610 2498 c-13 -22 -18 -38 -11 -34 13 8 44 66 39 72 -3 2 -15 -15 -28 -38z"
       id="path482"
       style="fill:#999999" />
    <path
       d="M3835 2503 c-63 -46 -190 -172 -181 -180 10 -11 256 188 256 208 0 18 -26 8 -75 -28z"
       id="path484"
       style="fill:#6666ff" />
    <path
       d="M4580 2532 c0 -5 12 -20 28 -33 36 -32 204 -164 220 -173 30 -17 7 15 -55 78 -92 94 -193 160 -193 128z"
       id="path486"
       style="fill:#6666ff" />
    <path
       d="M3790 2385 c-68 -52 -128 -95 -132 -95 -5 0 -8 -5 -8 -10 0 -23 150 69 238 145 26 22 47 55 35 55 -4 0 -64 -43 -133 -95z"
       id="path488"
       style="fill:#6666ff" />
    <path
       d="M4570 2471 c0 -14 98 -99 156 -137 61 -39 124 -66 124 -53 0 5 -4 9 -10 9 -5 0 -66 43 -135 95 -68 52 -127 95 -130 95 -3 0 -5 -4 -5 -9z"
       id="path490"
       style="fill:#6666ff" />
    <path
       d="M3845 2355 c-22 -19 -70 -51 -107 -71 -38 -21 -66 -39 -64 -41 10 -11 138 61 182 101 57 53 48 62 -11 11z"
       id="path492"
       style="fill:#999999" />
    <path
       d="M4600 2382 c0 -16 83 -78 149 -111 80 -41 91 -34 14 9 -32 18 -81 50 -110 72 -29 21 -53 35 -53 30z"
       id="path494"
       style="fill:#999999" />
    <path
       d="M3310 2350 c0 -6 25 -109 56 -228 30 -120 67 -262 81 -317 14 -55 27 -103 30 -108 8 -13 90 62 127 116 52 76 77 148 77 226 1 128 -60 218 -187 278 -77 37 -184 56 -184 33z"
       id="path496"
       style="fill:#ffccff" />
    <path
       d="M5075 2346 c-110 -27 -190 -86 -237 -176 -34 -66 -32 -193 4 -270 33 -71 80 -129 149 -185 61 -51 75 -55 81 -22 3 12 39 155 81 317 41 162 78 307 81 323 l6 27 -57 -1 c-32 0 -80 -6 -108 -13z"
       id="path498"
       style="fill:#ffccff" />
    <path
       d="M3995 2300 c-3 -5 2 -10 12 -10 51 0 113 -69 113 -125 0 -60 -41 -105 -125 -139 -48 -20 -53 -24 -33 -30 37 -9 128 -7 149 4 11 6 39 31 64 55 29 29 53 45 69 45 15 0 52 -22 93 -55 37 -30 77 -55 88 -56 33 -3 87 3 109 11 18 6 16 9 -18 18 -55 16 -112 58 -130 97 -20 42 -20 51 4 103 15 33 29 47 62 62 l43 20 -45 0 c-25 0 -82 -5 -126 -11 -68 -10 -98 -9 -179 5 -112 19 -141 20 -150 6z"
       id="path500"
       style="fill:#3366ff" />
    <path
       d="M3771 2240 c-85 -31 -113 -63 -30 -35 24 8 94 23 154 34 l110 19 -90 1 c-65 0 -105 -5 -144 -19z"
       id="path502"
       style="fill:#999999" />
    <path
       d="M4592 2240 c58 -10 130 -26 158 -35 72 -24 75 -11 4 22 -51 24 -73 28 -164 30 l-105 2 107 -19z"
       id="path504"
       style="fill:#999999" />
    <path
       d="M3805 2193 c-49 -14 -92 -27 -94 -29 -13 -12 11 -12 59 1 30 8 112 20 182 27 70 7 124 16 122 20 -11 18 -179 6 -269 -19z"
       id="path506"
       style="fill:#999999" />
    <path
       d="M4410 2210 c0 -5 21 -10 48 -10 64 0 250 -26 285 -39 35 -14 54 -14 42 -2 -6 6 -54 21 -109 35 -102 27 -266 37 -266 16z"
       id="path508"
       style="fill:#999999" />
    <path
       d="M3875 2163 c-65 -14 -155 -45 -155 -53 0 -15 85 -12 186 5 113 19 174 35 174 46 0 9 -167 11 -205 2z"
       id="path510"
       style="fill:#6666ff" />
    <path
       d="M4422 2157 c21 -17 224 -57 288 -57 50 0 86 15 60 24 -80 27 -143 38 -245 42 -105 5 -118 3 -103 -9z"
       id="path512"
       style="fill:#999999" />
    <path
       d="M4015 2114 c-5 -2 -59 -13 -120 -23 -105 -18 -107 -19 -50 -20 63 -1 183 21 212 38 16 9 15 10 -7 10 -14 0 -29 -2 -35 -5z"
       id="path514"
       style="fill:#999999" />
    <path
       d="M4441 2111 c29 -19 142 -41 204 -40 60 1 59 1 -40 19 -182 32 -181 32 -164 21z"
       id="path516" />
    <path
       d="M3965 2060 c-16 -4 -66 -8 -110 -9 -66 -2 -76 -4 -57 -13 28 -14 197 3 215 21 13 13 0 13 -48 1z"
       id="path518"
       style="fill:#999999" />
    <path
       d="M4204 2039 c-44 -47 -90 -71 -147 -78 l-52 -7 65 -48 c126 -93 175 -106 251 -67 53 28 158 103 159 114 0 4 -12 7 -27 7 -54 0 -102 21 -151 65 -28 25 -54 45 -59 45 -5 0 -22 -14 -39 -31z m81 -74 c20 -31 2 -65 -33 -65 -49 0 -69 42 -36 75 21 20 53 16 69 -10z"
       id="path520"
       style="fill:#3366ff" />
    <path
       d="M4485 2062 c22 -24 184 -42 213 -23 8 5 -25 10 -85 13 -54 3 -107 9 -118 13 -15 6 -17 5 -10 -3z"
       id="path522"
       style="fill:#999999" />
    <path
       d="M3722 1990 c2 -8 15 -17 29 -21 96 -27 209 -64 233 -76 23 -12 27 -12 24 -1 -8 23 -77 55 -171 78 -51 13 -98 25 -106 28 -8 3 -12 0 -9 -8z"
       id="path524"
       style="fill:#6666ff" />
    <path
       d="M4660 1971 c-103 -30 -149 -50 -171 -77 -13 -16 -12 -17 6 -9 65 27 210 75 228 75 31 0 54 17 42 29 -6 6 -45 -1 -105 -18z"
       id="path526"
       style="fill:#6666ff" />
    <path
       d="M3726 1941 c11 -12 247 -91 253 -85 7 7 -92 46 -178 70 -47 13 -80 20 -75 15z"
       id="path528"
       style="fill:#6666ff" />
    <path
       d="M4685 1925 c-67 -18 -158 -54 -170 -67 -7 -8 -5 -9 8 -5 10 4 69 23 132 43 63 20 115 38 115 40 0 7 -34 3 -85 -11z"
       id="path530"
       style="fill:#6666ff" />
    <path
       d="M4660 1869 c-64 -21 -103 -38 -88 -38 28 -1 172 42 198 58 33 22 -1 16 -110 -20z"
       id="path532"
       style="fill:#999999" />
    <path
       d="M3750 1881 c42 -23 154 -54 179 -49 15 4 -121 50 -184 63 -30 6 -30 6 5 -14z"
       id="path534"
       style="fill:#6666ff" />
    <path
       d="M4046 1841 c-4 -29 -16 -48 -43 -70 -21 -17 -44 -31 -53 -31 -8 0 -21 -4 -28 -9 -9 -6 7 -21 55 -52 l68 -44 200 0 200 0 63 39 c72 44 80 54 55 62 -67 20 -123 76 -123 122 0 20 -3 19 -52 -14 -117 -76 -185 -72 -314 21 -21 15 -22 14 -28 -24z"
       id="path536"
       style="fill:#3333ff" />
    <path
       d="M3693 1855 c5 -14 135 -57 163 -53 15 2 -11 14 -71 33 -52 17 -94 26 -92 20z"
       id="path538"
       style="fill:#6666ff" />
    <path
       d="M4755 1849 c-27 -11 -72 -25 -100 -31 -36 -9 -43 -13 -27 -16 24 -4 145 30 172 47 29 19 4 19 -45 0z"
       id="path540"
       style="fill:#999999" />
    <path
       d="M3675 1820 c15 -25 98 -52 173 -57 56 -3 73 -2 62 6 -8 6 -33 11 -55 11 -45 0 -129 21 -164 40 -18 9 -22 9 -16 0z"
       id="path542"
       style="fill:#6666ff" />
    <path
       d="M4796 1818 c-28 -16 -116 -38 -156 -39 -19 0 -44 -5 -55 -10 -14 -6 3 -8 56 -6 54 3 91 11 132 30 31 14 57 28 57 31 0 9 -13 7 -34 -6z"
       id="path544"
       style="fill:#999999" />
    <path
       d="M3690 1757 c0 -5 177 -147 184 -147 14 0 -24 56 -51 76 -29 22 -133 77 -133 71z"
       id="path546"
       style="fill:#6666ff" />
    <path
       d="M4734 1724 c-68 -40 -118 -87 -113 -103 2 -6 38 16 79 49 123 101 131 112 34 54z"
       id="path548"
       style="fill:#999999" />
    <path
       d="M3709 1680 c75 -72 161 -138 161 -123 0 18 -141 141 -205 178 -17 10 2 -14 44 -55z"
       id="path550"
       style="fill:#6666ff" />
    <path
       d="M4780 1701 c-85 -63 -167 -137 -159 -145 3 -4 33 13 65 37 70 51 183 156 169 156 -5 0 -39 -21 -75 -48z"
       id="path552"
       style="fill:#6666ff" />
    <path
       d="M3600 1734 c0 -14 32 -57 79 -107 37 -39 148 -113 157 -104 3 2 -24 28 -58 58 -35 29 -89 78 -120 108 -32 30 -58 50 -58 45z"
       id="path554"
       style="fill:#6666ff" />
    <path
       d="M4805 1657 c-44 -39 -96 -85 -114 -100 -51 -42 -32 -41 39 3 61 37 108 81 152 143 33 45 7 30 -77 -46z"
       id="path556"
       style="fill:#999999" />
    <path
       d="M3560 1690 c0 -16 122 -136 158 -154 43 -22 41 -7 -3 23 -20 13 -60 50 -90 83 -54 58 -65 66 -65 48z"
       id="path558"
       style="fill:#6666ff" />
    <path
       d="M4870 1640 c-30 -31 -73 -71 -95 -88 -60 -49 -25 -38 44 13 53 39 121 119 110 129 -2 2 -29 -22 -59 -54z"
       id="path560"
       style="fill:#6666ff" />
    <path
       d="M3910 1687 c0 -2 28 -46 63 -98 67 -100 112 -139 161 -139 46 0 96 34 96 65 0 24 28 38 31 15 1 -5 3 -14 4 -20 1 -5 3 -14 4 -18 2 -16 60 -42 93 -42 48 0 89 30 132 96 21 33 52 78 68 102 33 48 30 52 -15 18 -70 -52 -117 -69 -176 -62 -100 11 -106 11 -106 -1 0 -18 -22 -36 -34 -28 -6 3 -9 10 -6 15 11 18 -21 30 -56 20 -77 -22 -124 -11 -216 52 -24 16 -43 27 -43 25z m281 -126 c21 -16 22 -22 11 -45 -18 -40 -82 -31 -82 13 0 15 28 51 40 51 4 0 18 -8 31 -19z m169 -1 c11 -11 20 -24 20 -30 0 -5 -9 -19 -20 -30 -11 -11 -24 -20 -30 -20 -5 0 -19 9 -30 20 -11 11 -20 25 -20 30 0 6 9 19 20 30 11 11 25 20 30 20 6 0 19 -9 30 -20z"
       id="path562"
       style="fill:#6666ff" />
    <path
       d="M3520 1664 c0 -3 13 -24 29 -47 15 -23 38 -63 49 -89 28 -64 37 -61 12 3 -26 66 -90 160 -90 133z"
       id="path564"
       style="fill:#6666ff" />
    <path
       d="M4940 1635 c-31 -51 -70 -132 -70 -147 0 -7 23 29 50 81 50 94 62 134 20 66z"
       id="path566"
       style="fill:#999999" />
    <path
       d="M3495 1620 c4 -14 27 -70 52 -125 25 -55 47 -108 50 -117 6 -21 23 -24 23 -5 -1 45 -69 200 -109 247 l-22 25 6 -25z"
       id="path568"
       style="fill:#6666ff" />
    <path
       d="M4540 1563 c-59 -100 -103 -133 -177 -133 -34 0 -66 7 -84 17 -27 16 -31 16 -64 0 -50 -24 -122 -22 -165 4 -39 24 -49 36 -102 123 l-38 61 0 -52 c0 -44 -4 -55 -27 -73 -23 -18 -38 -21 -90 -18 -35 2 -63 1 -63 -2 1 -3 13 -23 28 -44 43 -62 71 -77 148 -83 76 -6 100 -20 109 -63 7 -34 -11 -74 -52 -111 -40 -38 -66 -49 -113 -49 -82 0 -124 42 -140 138 -20 117 -33 173 -41 178 -5 3 -9 -14 -9 -36 0 -40 -25 -110 -39 -110 -4 0 -15 -6 -24 -12 -15 -12 -13 -28 32 -201 27 -104 51 -191 54 -193 7 -8 122 30 197 64 91 42 213 124 281 189 l57 55 -5 54 c-6 53 -5 54 20 54 42 0 60 -26 52 -76 l-6 -42 72 -62 c122 -106 234 -168 389 -219 107 -36 127 -38 134 -13 5 16 76 295 90 355 6 24 4 27 -21 27 -70 0 -122 71 -109 148 3 24 2 32 -5 25 -9 -9 -27 -92 -45 -208 -4 -27 -17 -51 -44 -77 -33 -33 -44 -38 -85 -38 -103 0 -191 84 -171 164 10 39 34 56 79 56 91 0 143 29 186 102 l22 37 -33 -10 c-52 -15 -104 -2 -134 34 -22 27 -25 37 -20 74 3 24 5 43 3 43 -1 0 -22 -35 -47 -77z"
       id="path570"
       style="fill:#99cc99" />
    <path
       d="M4974 1607 c-38 -59 -50 -82 -67 -125 -22 -55 -37 -122 -27 -122 7 0 130 255 130 271 0 18 -15 8 -36 -24z"
       id="path572"
       style="fill:#6666ff" />
    <path
       d="M4976 1481 c-56 -129 -67 -166 -43 -159 28 9 87 146 111 261 14 62 -15 19 -68 -102z"
       id="path574"
       style="fill:#6666ff" />
    <path
       d="M4759 1423 c-36 -55 -68 -73 -148 -85 -101 -15 -121 -40 -82 -104 37 -61 137 -84 186 -41 21 18 30 43 50 141 13 66 23 121 21 123 -1 2 -14 -14 -27 -34z m-95 -152 c14 -15 15 -24 7 -39 -22 -41 -82 -36 -94 8 -11 44 54 68 87 31z"
       id="path576"
       style="fill:#3333ff" />
    <path
       d="M3714 1430 c3 -14 8 -45 11 -70 15 -102 37 -160 66 -175 65 -34 146 -8 178 57 32 65 20 77 -92 97 -53 10 -116 37 -117 51 -1 3 -12 19 -26 35 -25 29 -26 30 -20 5z m194 -152 c17 -17 15 -38 -5 -60 -20 -22 -41 -23 -65 -1 -34 31 -16 73 32 73 14 0 31 -5 38 -12z"
       id="path578"
       style="fill:#3333ff" />
    <path
       d="M3555 1370 c4 -14 12 -29 17 -35 7 -7 8 -2 3 15 -4 14 -12 30 -17 35 -7 7 -8 2 -3 -15z"
       id="path580"
       style="fill:#6666ff" />
  </g>
</svg>
