<?xml version="1.0" encoding="UTF-8" standalone="no"?>
<svg
   xmlns:dc="http://purl.org/dc/elements/1.1/"
   xmlns:cc="http://creativecommons.org/ns#"
   xmlns:rdf="http://www.w3.org/1999/02/22-rdf-syntax-ns#"
   xmlns:svg="http://www.w3.org/2000/svg"
   xmlns="http://www.w3.org/2000/svg"
   xmlns:sodipodi="http://sodipodi.sourceforge.net/DTD/sodipodi-0.dtd"
   xmlns:inkscape="http://www.inkscape.org/namespaces/inkscape"
   version="1.0"
   width="850.000000pt"
   height="850.000000pt"
   viewBox="0 0 850.000000 850.000000"
   preserveAspectRatio="xMidYMid meet"
   id="svg2"
   inkscape:version="0.91 r13725"
   sodipodi:docname="Food_20170419_038.svg">
  <defs
     id="defs414" />
  <sodipodi:namedview
     pagecolor="#ffffff"
     bordercolor="#666666"
     borderopacity="1"
     objecttolerance="10"
     gridtolerance="10"
     guidetolerance="10"
     inkscape:pageopacity="0"
     inkscape:pageshadow="2"
     inkscape:window-width="1920"
     inkscape:window-height="980"
     id="namedview412"
     showgrid="false"
     inkscape:zoom="1.7769412"
     inkscape:cx="534.57474"
     inkscape:cy="580.97393"
     inkscape:window-x="0"
     inkscape:window-y="1"
     inkscape:window-maximized="1"
     inkscape:current-layer="svg2" />
  <metadata
     id="metadata4">
Created by potrace 1.14, written by Peter Selinger 2001-2017
<rdf:RDF>
  <cc:Work
     rdf:about="">
    <dc:format>image/svg+xml</dc:format>
    <dc:type
       rdf:resource="http://purl.org/dc/dcmitype/StillImage" />
  </cc:Work>
</rdf:RDF>
</metadata>
  <g
     transform="translate(0.000000,850.000000) scale(0.100000,-0.100000)"
     fill="#000000"
     stroke="none"
     id="g6">
    <path
       d="M0 4250 l0 -4250 4250 0 4250 0 0 4250 0 4250 -4250 0 -4250 0 0 -4250z m5991 3275 c28 -10 58 -33 84 -62 38 -43 45 -47 91 -47 43 -1 56 4 94 35 67 54 89 63 161 63 56 0 73 -4 109 -28 23 -15 55 -50 72 -77 30 -48 32 -49 81 -49 48 0 52 2 107 59 71 74 110 95 177 94 57 0 98 -21 152 -77 26 -27 46 -37 80 -42 74 -10 107 -37 141 -112 17 -36 77 -102 157 -171 14 -12 24 -35 28 -67 3 -27 13 -83 21 -125 20 -108 18 -131 -21 -228 l-35 -87 0 -430 c0 -415 -4 -580 -16 -711 -5 -56 -9 -66 -39 -91 -46 -37 -199 -112 -310 -152 -218 -77 -627 -128 -925 -117 -319 13 -635 73 -930 179 -144 51 -207 87 -228 130 -7 16 -15 87 -18 170 -5 110 -11 154 -26 190 -23 53 -21 117 8 265 16 85 17 328 3 511 -7 91 -12 110 -44 166 -19 34 -35 73 -35 86 0 12 18 63 40 112 33 73 42 107 50 186 7 80 13 102 37 136 42 59 108 90 198 90 72 1 72 1 136 54 72 58 101 67 197 59 62 -5 69 -3 103 24 78 61 120 79 190 79 37 0 86 -7 110 -15z m-3685 -182 c33 -15 71 -17 249 -17 116 0 238 4 273 9 55 7 69 5 120 -18 38 -17 101 -31 187 -42 200 -27 277 -30 313 -11 57 29 138 13 192 -39 14 -13 46 -29 73 -34 95 -22 233 -71 280 -100 93 -60 86 11 86 -870 0 -477 -4 -782 -10 -793 -17 -31 -118 -74 -370 -157 -341 -112 -336 -111 -573 -122 l-208 -11 -167 165 c-91 90 -193 183 -226 207 -33 24 -79 61 -102 82 -47 42 -66 46 -104 20 -44 -28 -316 -267 -427 -373 -116 -112 -109 -110 -253 -84 -233 41 -590 158 -789 258 -93 47 -106 57 -116 88 -8 23 -14 252 -19 719 -3 377 -7 703 -8 724 -1 34 4 44 37 72 21 18 59 41 85 50 25 9 93 38 151 64 58 27 166 65 240 85 84 24 163 53 208 78 l74 40 58 -18 c64 -19 56 -20 380 10 96 8 189 19 205 24 49 15 120 12 161 -6z m3844 -3552 c0 -38 28 -69 120 -134 41 -29 84 -68 95 -85 89 -145 102 -153 265 -177 63 -9 137 -21 165 -27 104 -23 201 -82 231 -141 22 -42 48 -238 59 -456 4 -68 9 -131 10 -140 2 -9 4 -28 4 -42 1 -25 5 -26 104 -43 l102 -17 66 71 67 71 4 93 c3 74 8 99 27 129 33 53 51 49 51 -12 0 -45 5 -56 49 -108 26 -32 61 -69 76 -83 39 -36 54 -75 44 -119 -6 -28 -4 -42 12 -67 26 -43 77 -80 129 -94 60 -16 103 -63 96 -104 -3 -17 -8 -92 -11 -166 -4 -74 -8 -146 -10 -160 -2 -14 -7 -79 -10 -145 -4 -66 -8 -145 -10 -175 -3 -30 -4 -124 -5 -207 l0 -153 -50 -25 c-27 -14 -58 -25 -68 -25 -10 0 -44 -9 -75 -19 -50 -17 -255 -58 -372 -75 -22 -3 -173 -15 -335 -27 -259 -19 -346 -21 -715 -16 -424 6 -527 13 -840 57 -82 11 -204 28 -270 36 -137 17 -197 31 -347 80 -96 32 -107 38 -117 65 -10 29 -16 141 -26 489 -3 96 -8 230 -11 296 -8 157 -3 182 48 232 l41 41 -13 59 c-15 72 -10 89 41 148 21 25 39 51 39 59 0 7 22 41 49 75 27 33 62 86 77 116 27 54 29 55 44 36 9 -11 22 -44 28 -74 9 -40 24 -68 58 -105 24 -29 57 -76 72 -105 32 -62 89 -101 119 -82 17 10 18 42 23 382 l5 370 25 27 c35 38 64 51 177 80 62 17 131 27 189 28 88 3 94 4 147 41 30 21 70 59 88 84 18 26 66 82 106 125 40 42 81 93 90 112 21 43 43 46 43 6z m-4133 -234 c42 -22 93 -79 93 -104 0 -20 6 -17 67 33 32 26 72 53 90 60 47 20 127 17 172 -6 47 -24 68 -65 77 -152 4 -36 10 -72 15 -79 13 -22 107 -16 156 9 54 28 121 29 156 2 17 -13 40 -20 70 -20 34 0 53 -6 75 -25 16 -14 48 -27 73 -30 205 -29 400 -95 491 -167 53 -41 61 -75 52 -225 -4 -71 -7 -480 -8 -910 -1 -507 -5 -785 -11 -791 -5 -5 -26 -15 -45 -21 -44 -14 -328 -66 -440 -81 -47 -6 -128 -20 -180 -30 -374 -74 -670 -86 -1234 -50 -175 11 -328 22 -340 25 -11 3 -77 9 -146 15 -220 18 -334 38 -391 66 -16 8 -35 33 -48 65 -21 49 -22 57 -12 163 7 69 10 415 10 909 l-1 798 29 37 c36 45 117 90 238 133 116 41 130 50 154 103 19 43 60 76 95 76 8 0 30 14 48 30 26 24 41 30 78 30 47 0 73 -13 123 -59 25 -23 35 -26 95 -23 92 4 98 7 117 55 27 68 74 140 108 165 42 29 116 29 174 -1z"
       id="path8"
       style="fill:none" />
    <path
       d="M5815 7490 c-71 -22 -145 -114 -145 -180 0 -34 8 -36 65 -15 52 18 129 19 189 1 l48 -15 13 32 c7 18 23 41 35 52 51 46 48 76 -12 106 -44 23 -148 33 -193 19z"
       id="path10"
       style="fill:#ffcc66" />
    <path
       d="M6375 7468 c-55 -12 -110 -59 -130 -112 -16 -41 -16 -46 1 -81 9 -20 35 -49 57 -63 34 -23 50 -26 114 -26 87 1 113 13 143 66 64 115 -48 247 -185 216z m50 -68 c0 -8 -10 -16 -22 -18 -22 -3 -32 16 -16 32 12 11 38 2 38 -14z m94 -3 c6 -8 8 -17 4 -20 -11 -12 -41 -7 -46 7 -10 27 22 36 42 13z m-192 -33 c5 -17 -15 -37 -31 -31 -14 5 -15 11 -6 27 11 21 31 23 37 4z m140 -50 c3 -8 1 -20 -6 -27 -14 -14 -47 15 -37 32 10 16 36 13 43 -5z m67 -40 c9 -23 8 -24 -14 -24 -19 0 -27 20 -13 33 11 11 20 8 27 -9z m-171 -26 c6 -19 -3 -38 -18 -38 -7 0 -15 6 -18 13 -6 18 3 37 18 37 7 0 15 -6 18 -12z m67 -2 c0 -20 -19 -31 -32 -18 -6 6 -7 15 -4 21 10 16 36 13 36 -3z"
       id="path12"
       style="fill:#66ccff" />
    <path
       d="M6916 7465 c-39 -14 -90 -55 -107 -88 -8 -13 -2 -26 23 -57 l32 -41 56 7 c47 5 64 2 99 -16 54 -27 82 -23 94 13 33 102 -92 218 -197 182z m1 -41 c8 -21 -13 -42 -28 -27 -13 13 -5 43 11 43 6 0 13 -7 17 -16z m76 0 c9 -10 -4 -34 -18 -34 -17 0 -28 17 -20 30 7 11 28 13 38 4z m75 -81 c5 -17 -26 -29 -40 -15 -6 6 -7 15 -3 22 9 14 37 9 43 -7z m-138 3 c0 -18 -15 -36 -31 -36 -12 0 -19 7 -19 20 0 15 7 20 25 20 14 0 25 -2 25 -4z"
       id="path14"
       style="fill:#ff99ff" />
    <path
       d="M5485 7392 c-41 -19 -95 -67 -95 -84 0 -5 7 -22 15 -38 13 -25 22 -30 50 -30 40 0 47 -17 10 -26 -42 -10 -28 -22 33 -27 31 -3 69 -8 84 -12 24 -6 27 -4 37 31 15 55 14 169 -2 182 -26 22 -90 23 -132 4z m88 -47 c-4 -15 -36 -12 -41 3 -3 9 3 13 19 10 13 -1 23 -7 22 -13z m-83 -26 c0 -25 -33 -22 -38 4 -2 12 3 17 17 17 15 0 21 -6 21 -21z m63 -24 c4 -8 2 -17 -4 -21 -12 -7 -41 15 -33 27 8 14 31 11 37 -6z m32 -60 c0 -10 -5 -20 -11 -22 -13 -4 -27 24 -18 38 9 15 29 4 29 -16z"
       id="path16"
       style="fill:#ffff66" />
    <path
       d="M6127 7378 c-60 -13 -73 -24 -92 -79 -14 -44 -15 -59 -4 -96 12 -46 20 -51 38 -29 6 7 38 25 71 40 l60 27 0 68 c0 78 -6 83 -73 69z"
       id="path18"
       style="fill:#33cc00" />
    <path
       d="M7172 7338 c-7 -7 -12 -20 -12 -30 0 -9 -9 -40 -20 -67 -16 -42 -17 -51 -5 -61 12 -10 26 -4 74 27 33 21 67 43 77 48 24 15 10 49 -30 75 -38 23 -66 26 -84 8z"
       id="path20"
       style="fill:#66ccff" />
    <path
       d="M6653 7320 c-12 -5 -31 -30 -43 -57 -12 -26 -33 -60 -47 -76 -26 -26 -26 -28 -8 -41 14 -10 41 -12 104 -9 81 5 88 7 113 37 50 56 50 115 1 134 -43 17 -96 22 -120 12z"
       id="path22"
       style="fill:#ff0000" />
    <path
       d="M5164 7270 c-22 -11 -54 -34 -70 -51 -25 -27 -29 -38 -29 -90 0 -59 1 -61 47 -105 35 -33 55 -44 80 -45 104 -3 133 11 141 71 3 23 17 58 31 79 32 46 33 71 4 98 -28 25 -113 63 -142 63 -11 0 -39 -9 -62 -20z"
       id="path24"
       style="fill:#ffcc66" />
    <path
       d="M5747 7256 c-79 -28 -107 -80 -107 -194 0 -84 9 -101 68 -131 28 -15 142 -26 176 -17 82 20 147 139 124 224 -14 51 -54 101 -94 118 -42 17 -117 17 -167 0z m141 -29 c4 -22 -27 -35 -38 -16 -10 15 7 42 24 36 6 -2 12 -11 14 -20z m-138 -52 c0 -16 -27 -32 -37 -22 -3 4 -3 13 0 22 8 20 37 20 37 0z m226 -26 c10 -17 -23 -46 -38 -31 -8 8 -8 15 2 27 15 18 26 19 36 4z m-128 -52 c2 -11 -3 -17 -17 -17 -23 0 -35 15 -26 31 10 15 39 6 43 -14z m-100 -74 c5 -17 -26 -29 -40 -15 -6 6 -7 15 -3 22 9 14 37 9 43 -7z m138 -34 c3 -6 -1 -18 -10 -27 -15 -15 -18 -15 -26 -2 -5 9 -5 19 2 27 13 16 25 17 34 2z"
       id="path26"
       style="fill:#ff99ff" />
    <path
       d="M6915 7249 c-63 -18 -165 -142 -165 -199 0 -100 184 -169 296 -112 76 39 98 101 64 180 -23 52 -97 132 -124 132 -8 0 -20 2 -28 4 -7 2 -27 0 -43 -5z m-28 -85 c6 -16 -15 -37 -29 -28 -4 3 -8 14 -8 25 0 23 28 26 37 3z m109 -5 c10 -17 -23 -46 -37 -32 -7 7 -9 19 -6 27 7 18 33 21 43 5z m88 -14 c7 -18 -2 -45 -15 -45 -5 0 -12 7 -15 15 -7 18 2 45 15 45 5 0 11 -7 15 -15z m-276 -88 c2 -12 -3 -17 -17 -17 -15 0 -21 6 -21 21 0 25 33 22 38 -4z m120 6 c-2 -10 -10 -18 -18 -18 -8 0 -16 8 -18 18 -2 12 3 17 18 17 15 0 20 -5 18 -17z m137 -43 c0 -8 -8 -16 -17 -18 -13 -2 -18 3 -18 18 0 15 5 20 18 18 9 -2 17 -10 17 -18z m-57 -47 c-2 -10 -10 -18 -18 -18 -8 0 -16 8 -18 18 -2 12 3 17 18 17 15 0 20 -5 18 -17z m-82 -4 c3 -6 1 -16 -4 -21 -13 -13 -45 8 -36 23 7 12 31 11 40 -2z"
       id="path28"
       style="fill:#ffff66" />
    <path
       d="M7260 7189 c-13 -5 -39 -21 -57 -35 -27 -20 -33 -32 -33 -62 0 -54 31 -99 74 -108 66 -12 136 22 154 75 11 31 -10 94 -40 118 -22 18 -69 24 -98 12z"
       id="path30"
       style="fill:#ffcc66" />
    <path
       d="M6160 7174 c-65 -28 -110 -86 -110 -141 0 -20 11 -40 38 -65 63 -62 102 -68 184 -27 55 28 78 63 78 119 0 42 -4 52 -36 80 -60 52 -95 60 -154 34z"
       id="path32"
       style="fill:#ffcc66" />
    <path
       d="M5460 7148 c-41 -11 -66 -32 -87 -72 -28 -55 26 -122 107 -133 36 -5 43 -2 80 35 40 40 51 81 34 126 -13 34 -84 57 -134 44z"
       id="path34"
       style="fill:#33cc00" />
    <path
       d="M6397 7133 c-4 -3 -7 -31 -7 -61 0 -41 -7 -66 -25 -98 l-25 -42 36 -22 c46 -29 97 -22 138 19 25 25 30 40 34 90 4 56 2 62 -26 91 -25 24 -39 30 -75 30 -24 0 -47 -3 -50 -7z"
       id="path36"
       style="fill:#ff0000" />
    <path
       d="M6611 7081 c-16 -16 -21 -34 -21 -70 0 -27 -3 -56 -6 -65 -14 -37 109 -62 154 -30 l23 15 -26 31 c-14 16 -25 35 -26 41 0 7 -1 30 -2 52 -2 39 -3 40 -39 43 -27 2 -43 -3 -57 -17z"
       id="path38"
       style="fill:#33cc00" />
    <path
       d="M7432 7048 c-22 -50 -44 -71 -91 -87 -44 -14 -133 -14 -165 1 -23 10 -28 8 -46 -15 -48 -61 -145 -81 -260 -54 -52 12 -59 12 -105 -10 -63 -29 -136 -30 -180 -3 -32 20 -32 20 -71 -1 -52 -27 -137 -23 -182 10 -32 22 -33 22 -83 6 -71 -24 -146 -16 -200 20 -41 27 -43 27 -68 11 -104 -68 -204 -74 -312 -17 -58 30 -99 40 -99 23 0 -15 -50 -32 -95 -32 -36 0 -52 6 -81 32 -36 32 -36 32 -82 18 -74 -22 -121 -18 -193 17 -35 18 -64 31 -65 30 -17 -24 -77 -180 -77 -200 0 -39 33 -80 80 -96 36 -13 48 -12 113 3 124 30 163 11 253 -127 29 -45 65 -88 79 -96 41 -21 86 -6 152 49 69 60 105 80 142 80 15 0 71 -20 125 -45 130 -60 153 -59 254 5 64 40 88 50 123 50 51 0 137 -20 237 -56 44 -16 95 -26 136 -27 63 -2 68 0 138 47 159 106 241 111 336 21 112 -107 161 -119 217 -57 41 46 120 156 142 199 9 18 16 46 16 63 0 47 -21 121 -36 127 -7 3 -30 -4 -51 -15 -55 -30 -168 -72 -192 -72 -31 0 -34 17 -3 28 146 53 174 67 212 103 41 40 51 74 28 97 -19 19 -26 15 -46 -30z m-2022 -177 c97 -34 408 -91 498 -91 75 0 90 -16 25 -26 -33 -5 -99 0 -207 16 -241 34 -411 82 -447 126 -13 15 -11 16 16 11 17 -3 68 -19 115 -36z m1577 -66 c-55 -21 -134 -33 -308 -50 -174 -17 -339 -20 -339 -6 0 14 39 19 190 26 74 3 176 13 225 20 111 18 145 22 215 23 l55 1 -38 -14z"
       id="path40"
       style="fill:#cc9933" />
    <path
       d="M5160 6665 c-25 -8 -63 -15 -84 -15 l-39 0 6 -112 c4 -62 10 -185 13 -273 4 -101 11 -163 18 -167 6 -4 27 -8 46 -8 24 0 55 -13 100 -42 l64 -42 116 -1 116 0 65 -42 c72 -47 89 -50 142 -28 20 8 65 15 99 15 51 0 77 -6 133 -33 l70 -34 65 28 c72 31 135 36 220 18 43 -9 63 -8 113 6 70 20 130 15 251 -20 l80 -23 30 23 c66 49 89 55 210 55 l116 0 51 37 c49 35 56 37 162 44 60 5 112 11 115 14 16 16 32 515 16 515 -4 0 -29 -22 -55 -50 -51 -51 -95 -68 -144 -56 -13 3 -57 34 -97 67 -40 34 -86 68 -102 76 -40 21 -105 12 -158 -21 -24 -15 -68 -43 -98 -62 -77 -49 -142 -47 -321 7 -167 50 -213 50 -291 -3 -77 -52 -92 -58 -143 -58 -34 0 -68 11 -135 45 -49 25 -100 45 -113 45 -28 0 -83 -35 -144 -91 -41 -37 -45 -39 -111 -39 -79 0 -88 6 -166 127 -26 39 -58 79 -73 88 -36 24 -90 27 -143 10z"
       id="path42"
       style="fill:#cc6600" />
    <path
       d="M5046 6038 c-45 -70 -23 -111 65 -123 30 -4 58 -10 63 -13 17 -10 -28 -21 -92 -21 l-63 -1 3 -42 c4 -56 30 -71 113 -64 68 5 189 46 214 71 15 15 10 23 -69 96 -96 90 -118 104 -177 114 -37 6 -43 4 -57 -17z"
       id="path44"
       style="fill:#ccff00" />
    <path
       d="M7261 5995 c-81 -30 -98 -45 -50 -45 23 0 42 7 54 20 25 28 35 25 35 -10 0 -27 2 -29 30 -23 17 3 30 3 30 1 0 -3 -26 -21 -57 -41 -70 -44 -108 -76 -100 -83 9 -9 124 18 156 37 35 21 79 84 83 118 6 53 -77 65 -181 26z"
       id="path46"
       style="fill:#ccff00" />
    <path
       d="M5339 5974 c-12 -15 -8 -22 32 -58 25 -22 48 -49 52 -58 5 -14 18 -18 62 -18 30 0 55 -4 55 -9 0 -15 -32 -21 -96 -19 -59 2 -114 -15 -121 -39 -6 -16 40 -44 96 -59 34 -8 63 -9 102 -2 54 9 178 66 212 96 17 15 15 18 -45 47 -35 16 -83 43 -108 59 -102 67 -212 94 -241 60z"
       id="path48"
       style="fill:#ccff00" />
    <path
       d="M6858 5908 c-27 -11 -48 -24 -48 -29 0 -4 17 -13 38 -20 31 -9 45 -8 76 5 52 22 69 21 61 -3 -5 -18 0 -20 42 -23 l48 -3 -69 -23 c-148 -48 -187 -104 -55 -80 30 5 77 21 105 34 54 25 154 115 154 138 0 9 -29 15 -107 19 -160 10 -194 8 -245 -15z"
       id="path50"
       style="fill:#ccff99" />
    <path
       d="M5730 5900 c-12 -7 -11 -10 5 -15 79 -26 91 -39 60 -65 -23 -19 -1 -30 60 -30 63 0 90 -15 45 -24 -18 -3 -58 -6 -89 -7 -114 -2 -138 -28 -61 -66 50 -26 103 -29 175 -9 115 30 263 116 201 116 -8 0 -69 25 -136 55 -106 48 -130 55 -183 55 -34 0 -69 -4 -77 -10z"
       id="path52"
       style="fill:#ccff99" />
    <path
       d="M6135 5889 c-76 -19 -64 -40 28 -54 47 -7 49 -9 43 -36 l-5 -29 64 0 c36 0 65 -4 65 -9 0 -10 -59 -21 -116 -21 -52 0 -104 -10 -104 -20 0 -4 17 -16 37 -25 45 -22 181 -16 255 10 50 18 138 88 126 100 -4 5 -30 11 -57 16 -27 4 -81 21 -119 38 -77 34 -157 45 -217 30z"
       id="path54"
       style="fill:#ccff00" />
    <path
       d="M6438 5893 c-10 -2 -18 -8 -18 -13 0 -12 32 -21 108 -28 62 -7 67 -9 64 -29 -3 -21 1 -23 43 -23 57 0 51 -14 -13 -30 -27 -6 -64 -20 -82 -32 -31 -18 -32 -21 -16 -30 31 -17 137 -11 206 11 67 22 144 68 143 86 -1 6 -66 29 -145 52 -137 40 -230 52 -290 36z"
       id="path56"
       style="fill:#ccff00" />
    <path
       d="M7378 5809 c-44 -24 -77 -32 -154 -40 -61 -6 -110 -17 -129 -28 -42 -25 -106 -39 -200 -44 -44 -3 -137 -13 -206 -23 -110 -16 -133 -16 -182 -5 -48 12 -67 12 -147 -4 -101 -20 -206 -17 -275 8 -36 13 -45 12 -95 -6 -79 -29 -196 -27 -275 3 -41 16 -76 22 -110 20 -27 -2 -91 -3 -142 -4 -88 -1 -93 0 -138 32 l-47 33 -114 -12 -113 -12 4 -76 c10 -148 24 -224 46 -248 31 -33 89 -57 268 -112 171 -53 327 -87 561 -123 205 -32 521 -32 735 0 375 55 633 137 736 233 27 25 29 32 30 106 0 43 2 86 4 97 10 50 16 236 9 236 -5 -1 -34 -14 -66 -31z"
       id="path58"
       style="fill:#cc6600" />
    <path
       d="M2158 7306 c-38 -17 -88 -66 -88 -88 0 -28 54 -49 143 -54 146 -10 199 26 140 96 -46 56 -130 75 -195 46z"
       id="path60"
       style="fill:#339900" />
    <path
       d="M2815 7296 c-46 -20 -87 -73 -75 -96 13 -24 33 -30 110 -37 82 -7 134 6 138 33 4 29 -35 73 -82 95 -48 22 -52 22 -91 5z"
       id="path62"
       style="fill:#cc66ff" />
    <path
       d="M1915 7289 c-150 -7 -245 -17 -263 -28 -8 -5 -4 -21 11 -53 20 -41 25 -45 50 -41 31 6 35 -7 10 -29 -81 -71 -287 -87 -400 -31 -48 23 -51 37 -11 48 23 7 33 16 33 30 0 16 -6 19 -30 17 -45 -4 -157 -33 -184 -47 l-23 -12 27 -21 c19 -15 35 -20 52 -16 23 6 25 4 18 -17 -4 -13 -14 -32 -23 -42 -26 -29 -134 -75 -192 -81 -86 -10 -149 16 -98 39 21 10 46 61 34 72 -3 4 -43 -16 -88 -44 -129 -79 -128 -112 2 -178 83 -42 166 -65 436 -121 121 -25 282 -58 359 -74 209 -44 204 -45 321 57 153 133 354 293 369 293 9 0 26 -5 38 -11 32 -17 320 -233 402 -301 38 -32 86 -63 106 -68 39 -11 257 0 404 20 188 24 487 106 610 166 83 41 142 96 151 142 6 29 2 37 -34 71 -23 22 -72 52 -117 71 -83 34 -185 51 -185 31 0 -6 7 -14 15 -17 25 -10 17 -22 -27 -45 -86 -44 -221 -33 -338 26 -56 28 -61 40 -25 57 27 12 58 52 48 62 -4 3 -23 6 -43 6 -20 0 -62 5 -92 10 -79 15 -195 17 -208 4 -7 -7 -5 -16 10 -29 29 -26 25 -44 -15 -61 -48 -20 -215 -19 -286 2 -59 17 -119 50 -119 65 0 5 15 9 33 9 23 1 37 8 50 26 11 14 16 28 13 32 -8 7 -302 9 -310 1 -3 -3 0 -20 6 -37 9 -23 19 -32 35 -32 29 0 29 -15 0 -34 -43 -29 -157 -48 -252 -44 -80 4 -99 9 -170 44 -94 46 -110 69 -42 59 41 -6 47 -5 62 19 9 14 15 29 13 33 -1 4 -66 5 -143 2z m1798 -300 c21 -6 56 -26 76 -45 21 -19 49 -34 61 -34 l23 0 -22 -24 c-12 -13 -45 -36 -73 -51 -45 -24 -65 -28 -164 -33 -95 -4 -117 -2 -139 12 -28 18 -33 36 -10 36 9 0 24 19 34 43 38 88 117 123 214 96z m-2428 -19 c14 -5 38 -30 53 -54 15 -25 36 -46 47 -48 31 -5 30 -34 -2 -46 -73 -29 -149 -44 -193 -39 -86 10 -203 77 -186 106 4 6 14 7 22 4 10 -3 30 8 53 31 21 20 51 41 67 46 40 12 108 12 139 0z m1913 -89 c20 -11 47 -29 59 -40 12 -12 31 -21 43 -21 30 0 25 -34 -10 -64 -37 -31 -117 -56 -179 -56 -62 0 -158 24 -180 44 -18 16 -17 19 33 71 80 84 157 106 234 66z m-1384 -15 c18 -7 49 -28 68 -45 29 -25 42 -30 62 -25 37 9 32 -8 -13 -49 -45 -41 -94 -52 -194 -45 -71 5 -163 41 -178 71 -10 18 -9 19 16 15 20 -4 34 2 63 30 63 60 114 74 176 48z"
       id="path64"
       style="fill:#99ccff" />
    <path
       d="M3595 6942 c-49 -31 -73 -73 -56 -100 18 -29 184 -10 223 25 34 31 -15 77 -92 88 -34 4 -52 1 -75 -13z"
       id="path66"
       style="fill:#cc66ff" />
    <path
       d="M1183 6940 c-44 -10 -82 -36 -92 -63 -12 -29 -6 -33 62 -51 59 -15 129 -10 167 14 24 15 -12 78 -55 96 -38 15 -36 15 -82 4z"
       id="path68"
       style="fill:#ff3300" />
    <path
       d="M3054 6841 c-38 -23 -77 -72 -67 -82 16 -16 168 -22 209 -9 66 22 66 46 -1 85 -50 30 -99 32 -141 6z"
       id="path70"
       style="fill:#66cc00" />
    <path
       d="M1715 6826 c-44 -20 -72 -53 -56 -69 16 -16 186 -16 202 0 17 17 -4 41 -56 64 -47 22 -51 22 -90 5z"
       id="path72"
       style="fill:#339900" />
    <path
       d="M1437 7249 c-42 -35 -70 -81 -61 -102 13 -35 100 -47 205 -27 29 6 57 14 63 20 15 15 -12 66 -55 105 -52 47 -99 48 -152 4z"
       id="path74"
       style="fill:#66cc00" />
    <path
       d="M3423 7195 c-24 -25 -43 -52 -43 -60 0 -25 61 -48 142 -53 89 -5 128 2 128 24 0 30 -42 95 -73 114 -18 11 -50 20 -71 20 -34 0 -46 -7 -83 -45z"
       id="path76"
       style="fill:#ff3300" />
    <path
       d="M1030 7113 c-26 -9 -80 -66 -80 -84 0 -27 29 -31 95 -14 72 19 101 41 82 63 -10 13 -70 44 -79 41 -2 0 -10 -3 -18 -6z"
       id="path78"
       style="fill:#ff3300" />
    <path
       d="M2338 6928 c-2 -54 1 -178 8 -265 4 -57 2 -83 -5 -83 -6 0 -11 19 -12 43 0 23 -2 51 -4 62 -2 11 -5 61 -6 110 -2 102 -8 155 -18 155 -4 0 -85 -64 -180 -142 -194 -160 -276 -224 -290 -230 -5 -1 -12 -50 -15 -108 -13 -241 -19 -420 -13 -420 8 0 195 158 272 229 32 31 98 93 146 139 49 46 96 82 107 82 23 0 156 -95 360 -258 79 -63 146 -111 150 -107 11 10 11 270 1 370 -8 70 -15 95 -32 114 -29 31 -443 341 -457 341 -5 0 -11 -15 -12 -32z m-113 -168 c0 -18 -6 -26 -22 -28 -18 -3 -23 1 -23 21 0 28 9 39 30 35 9 -2 15 -14 15 -28z m288 -25 c23 -17 15 -51 -13 -60 -28 -9 -39 1 -35 33 2 15 4 30 4 35 1 11 24 8 44 -8z m201 -108 c16 -25 -16 -56 -38 -37 -19 15 -21 46 -3 53 18 8 29 3 41 -16z m-736 -24 c13 -26 4 -43 -23 -43 -13 0 -25 6 -28 13 -6 17 11 47 28 47 8 0 18 -8 23 -17z m205 11 c3 -4 2 -15 -4 -25 -13 -25 -59 -26 -59 -1 0 10 3 22 7 25 8 9 48 9 56 1z m275 -47 c13 -16 -11 -57 -32 -57 -21 0 -38 27 -31 50 7 23 46 27 63 7z m150 -64 c-3 -32 -44 -46 -54 -19 -10 26 4 46 31 46 23 0 26 -4 23 -27z m-662 -104 c11 -18 -31 -52 -55 -44 -23 7 -29 40 -8 48 22 10 56 7 63 -4z m149 -24 c0 -13 -8 -21 -22 -23 -17 -3 -23 2 -23 16 0 10 3 22 7 26 13 13 38 1 38 -19z m680 -25 c0 -18 -6 -26 -23 -28 -24 -4 -38 18 -28 44 3 9 15 14 28 12 17 -2 23 -10 23 -28z m-856 -94 c15 -18 3 -46 -20 -46 -25 0 -35 26 -19 45 15 19 24 19 39 1z"
       id="path80"
       style="fill:#66ffff" />
    <path
       d="M743 6854 c-3 -8 -3 -50 0 -92 4 -42 9 -160 12 -262 4 -102 8 -195 11 -207 5 -27 44 -48 179 -96 330 -117 742 -198 798 -155 26 20 36 135 41 503 1 49 0 50 -34 57 -19 4 -136 28 -260 53 -500 101 -606 130 -693 185 -40 25 -49 28 -54 14z"
       id="path82"
       style="fill:#66ffff" />
    <path
       d="M4010 6846 c-26 -25 -128 -77 -203 -102 -280 -96 -492 -140 -732 -150 -71 -2 -149 -7 -173 -10 l-42 -5 5 -52 c3 -29 8 -139 10 -245 3 -107 7 -198 11 -203 8 -14 67 -11 194 11 331 55 763 162 880 219 33 15 60 36 67 51 35 76 39 500 4 500 -4 0 -13 -6 -21 -14z"
       id="path84"
       style="fill:#66ffff" />
    <path
       d="M2270 6424 c-25 -25 -115 -107 -200 -182 -215 -189 -282 -257 -278 -278 1 -9 8 -19 13 -21 28 -9 356 283 478 426 l46 55 45 -40 c25 -21 84 -74 133 -118 48 -43 120 -103 158 -132 39 -29 90 -71 115 -94 25 -22 48 -40 53 -40 4 0 7 18 7 39 0 39 -2 42 -142 154 -79 62 -189 146 -245 186 -57 40 -105 77 -109 82 -10 18 -30 8 -74 -37z"
       id="path86"
       style="fill:#ff99ff" />
    <path
       d="M2161 6186 c-84 -80 -195 -177 -247 -216 -123 -93 -128 -102 -121 -192 3 -39 9 -73 12 -76 3 -3 35 16 73 42 37 27 112 78 167 114 118 77 140 94 224 175 l63 62 -5 114 c-3 62 -8 115 -10 118 -3 2 -73 -61 -156 -141z"
       id="path88"
       style="fill:#ffff00" />
    <path
       d="M2351 6208 c1 -67 5 -135 10 -151 12 -44 52 -81 159 -151 52 -35 120 -84 150 -110 66 -57 164 -126 180 -126 12 0 11 13 -6 200 -7 70 -27 96 -152 199 -53 44 -146 121 -207 170 -60 50 -116 91 -123 91 -10 0 -13 -27 -11 -122z"
       id="path90"
       style="fill:#ffff00" />
    <path
       d="M3939 6259 c-142 -60 -702 -193 -924 -219 -122 -14 -145 -22 -145 -52 0 -52 5 -52 191 -24 96 15 197 31 224 37 186 41 559 165 638 213 48 29 92 65 86 70 -2 2 -34 -9 -70 -25z"
       id="path92"
       style="fill:#ff99ff" />
    <path
       d="M777 6223 c-15 -14 -6 -70 12 -87 24 -22 145 -58 310 -91 69 -15 187 -41 261 -60 138 -35 306 -65 360 -65 24 0 31 5 36 26 9 35 -2 40 -94 47 -202 14 -561 107 -801 206 -84 35 -76 33 -84 24z"
       id="path94"
       style="fill:#ff99ff" />
    <path
       d="M3940 6174 c-90 -47 -454 -169 -605 -203 -49 -11 -168 -32 -263 -46 -96 -14 -179 -28 -184 -31 -7 -4 -9 -42 -6 -102 6 -116 12 -122 114 -122 86 0 360 49 499 89 180 52 476 183 518 229 12 13 18 48 22 125 4 59 3 106 -2 106 -4 -1 -46 -21 -93 -45z"
       id="path96"
       style="fill:#ffff00" />
    <path
       d="M761 5970 c-2 -120 0 -130 17 -130 10 0 52 -9 94 -20 41 -11 119 -27 174 -35 54 -9 185 -36 291 -60 199 -46 356 -70 397 -59 18 4 25 15 30 45 8 51 -3 146 -19 159 -7 6 -69 19 -137 30 -134 21 -173 28 -323 65 -55 13 -161 39 -235 56 -74 18 -166 43 -204 56 -38 12 -73 23 -76 23 -4 0 -8 -58 -9 -130z"
       id="path98"
       style="fill:#ffff00" />
    <path
       d="M2250 5963 c-30 -25 -93 -71 -140 -101 -196 -128 -310 -221 -310 -254 0 -25 5 -23 59 16 25 18 107 74 181 124 75 49 158 110 185 134 28 24 63 52 78 61 19 13 27 25 25 39 -5 34 -19 30 -78 -19z"
       id="path100"
       style="fill:#99cc33" />
    <path
       d="M2354 5969 c-9 -15 65 -88 176 -174 52 -40 106 -84 120 -97 44 -42 182 -128 205 -128 18 0 -1 34 -37 64 -116 97 -291 234 -355 277 -39 27 -74 53 -78 59 -8 13 -22 13 -31 -1z"
       id="path102"
       style="fill:#99cc33" />
    <path
       d="M3974 5915 c-38 -24 -169 -81 -333 -147 -140 -56 -405 -110 -601 -123 -136 -8 -140 -10 -140 -46 0 -29 0 -29 59 -29 130 0 724 132 900 200 124 48 195 110 178 154 -8 21 -14 20 -63 -9z"
       id="path104"
       style="fill:#99cc33" />
    <path
       d="M2243 5847 c-34 -29 -121 -90 -195 -136 -211 -134 -238 -152 -249 -172 -5 -11 -8 -87 -7 -183 l3 -165 85 82 c87 84 227 208 373 330 91 75 119 83 158 41 13 -15 60 -54 104 -87 90 -68 179 -143 273 -229 34 -32 67 -58 71 -58 15 0 19 52 12 154 l-6 99 -70 38 c-38 20 -117 76 -175 123 -162 132 -244 196 -254 196 -4 0 -5 -20 -2 -44 5 -29 3 -47 -4 -51 -18 -11 -24 3 -25 58 0 69 -14 70 -92 4z m16 -136 c9 -6 11 -18 7 -35 -9 -35 -48 -36 -64 -2 -17 37 19 61 57 37z m259 -11 c4 -24 -21 -52 -41 -44 -17 6 -24 44 -10 58 12 12 48 2 51 -14z m80 -53 c2 -11 -3 -17 -16 -17 -24 0 -32 8 -25 26 7 20 37 13 41 -9z m-488 -16 c0 -22 -25 -45 -40 -36 -5 3 -10 17 -10 31 0 19 5 24 25 24 18 0 25 -5 25 -19z m518 -53 c17 -17 15 -45 -4 -52 -19 -7 -43 19 -44 47 0 20 30 23 48 5z m-624 -21 c12 -19 3 -32 -19 -24 -17 7 -21 51 -3 45 6 -2 16 -12 22 -21z m766 -22 c16 -19 -3 -45 -31 -45 -22 0 -26 29 -7 48 16 16 23 15 38 -3z m-882 -52 c3 -22 -28 -40 -48 -28 -12 7 -13 38 -3 49 15 14 48 1 51 -21z m112 -38 c0 -28 -25 -44 -42 -27 -15 15 1 52 23 52 14 0 19 -7 19 -25z m814 -21 c8 -20 -1 -34 -20 -34 -8 0 -14 10 -14 25 0 28 24 34 34 9z"
       id="path106"
       style="fill:#ff9933" />
    <path
       d="M766 5813 c-13 -13 -5 -33 19 -49 38 -25 188 -72 284 -89 47 -9 187 -36 311 -60 124 -24 255 -46 292 -49 61 -6 68 -5 78 14 20 36 -2 46 -112 54 -67 4 -149 19 -233 41 -71 19 -222 52 -335 74 -113 22 -226 47 -252 55 -25 8 -49 12 -52 9z"
       id="path108"
       style="fill:#99cc33" />
    <path
       d="M4016 5811 c-11 -17 -111 -66 -186 -91 -213 -70 -656 -165 -825 -177 -49 -3 -96 -10 -103 -16 -13 -10 -12 -108 4 -260 8 -73 22 -83 129 -91 160 -13 349 23 680 132 212 70 259 90 303 126 l32 28 0 162 c0 120 -3 167 -13 181 -10 13 -16 15 -21 6z"
       id="path110"
       style="fill:#ff9933" />
    <path
       d="M764 5718 c-5 -7 -7 -56 -7 -108 2 -115 -4 -108 179 -196 215 -103 637 -234 755 -234 64 0 66 6 68 191 2 165 5 159 -77 159 -117 0 -703 121 -829 171 -85 34 -80 33 -89 17z"
       id="path112"
       style="fill:#ff9933" />
    <path
       d="M6153 3677 c4 -10 14 -46 22 -80 9 -34 21 -79 26 -99 5 -20 29 -58 54 -85 39 -41 46 -56 45 -88 0 -3 6 -18 14 -33 16 -32 58 -57 80 -49 15 6 67 89 70 111 0 7 -19 37 -44 65 -24 29 -58 76 -75 106 -21 39 -47 65 -90 94 -33 22 -71 48 -85 58 -23 17 -24 17 -17 0z"
       id="path114"
       style="fill:#ffccff" />
    <path
       d="M6003 3597 c-22 -23 -49 -55 -59 -72 -20 -32 -40 -53 -92 -93 -71 -54 -82 -129 -28 -186 18 -20 38 -36 43 -36 21 0 113 84 129 118 9 19 18 62 21 96 3 33 10 70 16 80 11 22 26 136 18 135 -3 0 -25 -20 -48 -42z"
       id="path116"
       style="fill:#ffccff" />
    <path
       d="M6130 3547 c0 -30 7 -76 15 -103 8 -27 15 -69 15 -94 1 -25 4 -63 9 -85 4 -22 4 -52 0 -67 -10 -38 10 -54 52 -39 18 6 44 11 59 11 14 0 35 7 46 15 18 14 18 16 -18 50 -31 30 -38 43 -38 75 0 31 -7 46 -40 80 -53 55 -70 90 -77 156 -7 70 -23 70 -23 1z"
       id="path118"
       style="fill:#ffccff" />
    <path
       d="M6061 3473 c-6 -21 -11 -57 -11 -81 0 -57 -20 -102 -70 -156 -23 -25 -39 -50 -35 -56 3 -5 39 -10 79 -10 68 0 75 2 91 26 23 35 13 179 -21 297 -9 28 -22 20 -33 -20z"
       id="path120"
       style="fill:#ffccff" />
    <path
       d="M5615 3383 c-202 -46 -261 -68 -283 -103 -10 -17 2 -23 141 -68 150 -50 321 -92 447 -112 101 -15 556 -12 695 5 164 20 322 54 348 75 60 49 -48 122 -233 160 -58 11 -131 22 -163 23 l-59 2 -20 -53 c-22 -59 -121 -168 -160 -176 -12 -3 -36 -8 -53 -12 -66 -15 -329 6 -370 29 -16 9 -35 17 -40 17 -24 0 -83 52 -100 86 -10 20 -17 56 -17 79 1 41 0 43 -36 49 -40 6 -66 6 -97 -1z"
       id="path122"
       style="fill:#cc99ff" />
    <path
       d="M5410 3145 c32 -33 36 -34 47 -18 19 25 16 30 -18 42 -58 20 -65 13 -29 -24z"
       id="path124"
       style="fill:#ccff99" />
    <path
       d="M5310 3079 l0 -80 50 42 51 43 -38 38 c-55 57 -63 52 -63 -43z"
       id="path126"
       style="fill:#ccff99" />
    <path
       d="M5523 3118 c-18 -11 -33 -25 -33 -31 0 -18 52 -87 66 -87 7 0 22 16 34 35 12 19 32 43 46 54 13 10 24 21 24 24 0 5 -83 28 -97 26 -4 0 -23 -10 -40 -21z"
       id="path128"
       style="fill:#ccff99" />
    <path
       d="M6992 3107 c-10 -11 -8 -18 8 -32 21 -19 26 -8 11 28 -6 16 -9 17 -19 4z"
       id="path130"
       style="fill:#ccff99" />
    <path
       d="M6810 3090 c-14 -4 -44 -8 -67 -9 -24 -1 -43 -5 -43 -9 0 -10 98 -107 103 -101 2 2 10 19 17 38 7 18 24 47 38 62 l24 29 -24 -1 c-12 -1 -34 -5 -48 -9z"
       id="path132"
       style="fill:#ccff99" />
    <path
       d="M5780 3081 c0 -7 16 -37 36 -68 l35 -55 29 45 c15 24 34 47 42 49 7 3 -12 10 -42 17 -30 6 -65 14 -77 17 -14 4 -23 2 -23 -5z"
       id="path134"
       style="fill:#ccff99" />
    <path
       d="M5658 3048 c-48 -40 -62 -102 -28 -133 11 -10 32 -38 46 -63 l26 -44 42 43 c24 24 53 51 66 59 22 15 22 17 7 47 -9 17 -32 47 -50 67 -37 38 -79 48 -109 24z"
       id="path136"
       style="fill:#ccccff" />
    <path
       d="M6085 3027 c17 -12 40 -32 53 -44 l22 -22 35 37 c19 20 35 40 35 45 0 4 -39 7 -87 7 l-88 -1 30 -22z"
       id="path138"
       style="fill:#ccff99" />
    <path
       d="M6360 3042 c0 -16 71 -92 86 -92 8 0 14 4 14 8 0 5 16 27 36 50 l36 42 -86 0 c-47 0 -86 -4 -86 -8z"
       id="path140"
       style="fill:#ccff99" />
    <path
       d="M6881 3024 c-35 -45 -37 -87 -6 -146 15 -29 31 -57 35 -61 4 -5 24 3 45 17 21 14 46 26 56 26 12 0 21 10 25 25 16 62 -27 139 -85 155 -48 13 -47 14 -70 -16z"
       id="path142"
       style="fill:#ccccff" />
    <path
       d="M6531 2980 c-36 -45 -39 -53 -30 -82 5 -18 14 -35 21 -39 7 -4 33 -21 58 -38 41 -28 46 -29 55 -14 6 10 37 46 69 80 l59 63 -24 26 c-35 38 -72 54 -123 54 -43 0 -48 -3 -85 -50z"
       id="path144"
       style="fill:#ccccff" />
    <path
       d="M5361 2986 c-27 -29 -53 -125 -50 -185 2 -28 6 -51 9 -51 4 0 29 25 56 55 27 31 68 76 92 101 23 25 42 50 41 57 -2 34 -15 42 -71 43 -46 1 -61 -3 -77 -20z"
       id="path146"
       style="fill:#ccccff" />
    <path
       d="M5916 2978 c-9 -12 -16 -31 -16 -40 0 -19 76 -108 91 -108 5 0 16 14 24 31 10 19 32 37 61 49 41 18 43 21 33 44 -15 33 -49 46 -119 46 -49 0 -61 -4 -74 -22z"
       id="path148"
       style="fill:#ccccff" />
    <path
       d="M6259 2989 c-14 -5 -34 -25 -44 -43 -16 -29 -17 -38 -6 -64 7 -17 26 -42 42 -56 26 -24 32 -25 50 -13 37 26 99 88 99 98 0 6 -14 29 -31 50 -32 41 -57 47 -110 28z"
       id="path150"
       style="fill:#ccccff" />
    <path
       d="M5514 2883 c-12 -2 -30 -13 -40 -24 -14 -16 -15 -23 -6 -45 7 -13 12 -35 12 -48 0 -24 26 -96 35 -96 16 0 135 107 135 122 0 9 -8 33 -17 53 -13 27 -23 35 -44 35 -15 0 -33 2 -41 4 -7 2 -23 1 -34 -1z"
       id="path152"
       style="fill:#99cc99" />
    <path
       d="M6065 2848 c-37 -29 -30 -66 29 -152 46 -67 46 -67 56 -41 6 14 10 35 10 46 0 12 7 19 18 19 19 0 62 39 62 56 0 24 -101 94 -135 94 -7 0 -25 -10 -40 -22z"
       id="path154"
       style="fill:#99cc99" />
    <path
       d="M6722 2847 c-48 -51 -46 -99 6 -136 26 -18 34 -19 63 -10 44 15 50 21 66 66 10 29 10 45 2 66 -10 24 -15 27 -44 21 -18 -3 -42 -1 -53 5 -15 8 -23 6 -40 -12z"
       id="path156"
       style="fill:#99cc99" />
    <path
       d="M5797 2849 c-19 -11 -47 -60 -47 -83 0 -9 18 -35 40 -57 l40 -42 22 29 c12 16 39 47 60 68 21 22 38 43 38 47 0 12 -19 21 -59 30 -20 4 -45 10 -56 13 -11 3 -28 1 -38 -5z"
       id="path158"
       style="fill:#99cc99" />
    <path
       d="M6404 2830 c-44 -10 -54 -18 -54 -44 0 -23 9 -34 71 -86 45 -37 59 -37 90 -4 13 14 36 32 52 40 39 21 34 37 -20 66 -56 30 -96 38 -139 28z"
       id="path160"
       style="fill:#99cc99" />
    <path
       d="M6975 2785 c-33 -32 -31 -48 8 -92 24 -26 39 -34 52 -30 15 6 17 16 12 66 -2 32 -8 64 -11 70 -11 18 -35 13 -61 -14z"
       id="path162"
       style="fill:#99cc99" />
    <path
       d="M4970 2738 c0 -20 14 -55 36 -90 31 -51 35 -64 30 -106 -3 -26 -8 -76 -12 -112 -3 -35 -10 -75 -15 -88 -20 -52 -4 -55 63 -13 56 36 97 88 105 134 4 28 0 40 -25 68 -16 19 -40 54 -52 79 -13 25 -42 67 -66 94 -24 26 -44 52 -44 57 0 5 -4 9 -10 9 -5 0 -10 -15 -10 -32z"
       id="path164"
       style="fill:#ffff00" />
    <path
       d="M5355 2713 c-33 -46 -42 -83 -29 -118 6 -14 14 -9 50 26 47 46 66 98 44 124 -19 23 -27 19 -65 -32z"
       id="path166"
       style="fill:#9999cc" />
    <path
       d="M7520 2754 c0 -6 9 -23 21 -38 32 -40 39 -80 27 -145 -11 -56 -10 -61 17 -106 l28 -48 -23 -73 c-13 -41 -20 -77 -17 -81 10 -9 80 14 109 37 14 10 32 34 41 52 19 39 9 64 -47 117 -35 34 -35 35 -30 100 l6 66 -66 65 c-36 35 -66 60 -66 54z"
       id="path168"
       style="fill:#ff9900" />
    <path
       d="M4918 2717 c-3 -14 -6 -59 -7 -101 -1 -44 -10 -99 -22 -132 -11 -30 -17 -64 -14 -75 8 -24 53 -59 77 -59 25 0 34 27 45 139 7 76 6 98 -6 120 -8 14 -27 50 -42 79 -24 48 -27 51 -31 29z"
       id="path170"
       style="fill:#ffff00" />
    <path
       d="M5619 2697 c-25 -17 -34 -31 -36 -52 -1 -17 -7 -45 -15 -63 -12 -32 -12 -35 15 -58 15 -13 32 -24 37 -24 5 0 24 18 42 41 18 23 52 52 76 66 64 38 55 93 -16 93 -18 0 -42 4 -52 10 -13 7 -26 4 -51 -13z"
       id="path172"
       style="fill:#9999cc" />
    <path
       d="M5902 2695 c-35 -44 -35 -60 -4 -119 28 -53 30 -55 46 -38 9 10 45 36 81 57 36 21 65 40 65 44 -1 3 -12 20 -25 36 -20 25 -32 30 -67 30 -24 1 -50 4 -59 9 -12 5 -23 -1 -37 -19z"
       id="path174"
       style="fill:#9999cc" />
    <path
       d="M6237 2693 c-22 -22 14 -118 54 -147 21 -14 25 -13 72 29 27 25 53 45 58 45 19 0 7 30 -22 54 -33 28 -58 33 -77 14 -9 -9 -18 -9 -37 0 -30 14 -39 15 -48 5z"
       id="path176"
       style="fill:#9999cc" />
    <path
       d="M6557 2682 c-8 -9 -20 -36 -27 -60 -10 -41 -10 -45 20 -82 36 -45 49 -49 75 -20 10 11 26 22 36 25 21 7 59 73 59 103 0 29 -18 39 -86 45 -51 5 -64 3 -77 -11z"
       id="path178"
       style="fill:#9999cc" />
    <path
       d="M4840 2650 c-12 -25 -36 -60 -51 -78 -34 -38 -37 -73 -14 -150 17 -55 38 -76 90 -87 30 -7 30 -7 8 9 -40 30 -47 117 -13 192 27 61 31 95 16 129 l-13 30 -23 -45z"
       id="path180"
       style="fill:#ffff00" />
    <path
       d="M6895 2681 c-6 -11 51 -81 66 -81 15 0 10 58 -7 74 -17 18 -50 21 -59 7z"
       id="path182"
       style="fill:#ccff99" />
    <path
       d="M7516 2657 c5 -30 -1 -51 -31 -113 -37 -74 -38 -79 -26 -123 6 -25 9 -60 5 -77 -3 -17 -1 -41 5 -53 14 -25 50 -28 57 -3 3 9 15 39 27 65 l21 49 -27 48 c-30 54 -32 70 -15 135 10 38 10 49 -5 77 l-17 33 6 -38z"
       id="path184"
       style="fill:#ff9900" />
    <path
       d="M7423 2596 c-60 -62 -85 -106 -84 -150 1 -145 4 -151 69 -171 22 -6 23 -5 12 16 -10 17 -10 31 0 62 8 28 8 43 1 50 -21 21 -13 100 15 140 30 45 58 107 47 106 -5 0 -31 -24 -60 -53z"
       id="path186"
       style="fill:#ff9900" />
    <path
       d="M5478 2634 c-22 -21 11 -144 48 -186 17 -18 17 -23 1 -91 -9 -40 -18 -102 -20 -139 l-3 -67 26 6 c14 3 44 14 67 23 48 21 63 55 44 97 -7 16 -9 47 -5 83 l6 58 -61 62 c-33 35 -61 68 -61 74 -1 22 -35 87 -42 80z"
       id="path188"
       style="fill:#ff99ff" />
    <path
       d="M6781 2576 c-36 -37 -43 -51 -51 -104 -6 -46 -16 -71 -40 -100 -60 -75 -46 -152 38 -204 l32 -20 0 49 c0 27 7 70 16 95 14 41 14 52 0 96 -17 59 -11 98 29 173 14 28 25 53 23 55 -3 2 -23 -16 -47 -40z"
       id="path190"
       style="fill:#cc99ff" />
    <path
       d="M6122 2546 c-50 -49 -62 -67 -62 -92 0 -18 -12 -47 -29 -71 -42 -58 -71 -118 -71 -147 0 -25 53 -96 72 -96 6 0 8 14 5 33 -3 22 4 52 23 97 16 36 31 91 35 122 6 44 18 73 51 124 24 37 44 73 44 80 0 18 5 21 -68 -50z"
       id="path192"
       style="fill:#66ff00" />
    <path
       d="M6870 2574 c0 -31 8 -45 50 -86 28 -27 50 -53 50 -57 0 -5 -11 -37 -24 -72 l-24 -63 25 -64 c13 -36 21 -73 17 -84 -5 -17 -3 -18 14 -9 11 6 34 25 51 42 38 38 40 71 7 133 -23 43 -23 49 -11 94 9 37 10 54 1 69 -11 20 -139 133 -150 133 -3 0 -6 -16 -6 -36z"
       id="path194"
       style="fill:#cc99ff" />
    <path
       d="M5375 2553 c-20 -21 -35 -47 -35 -61 0 -13 -20 -51 -45 -84 -25 -33 -46 -70 -47 -81 -3 -48 7 -104 22 -122 12 -15 88 -40 96 -32 2 2 -3 20 -11 40 -13 32 -13 41 0 81 12 34 13 51 5 72 -15 38 -4 94 29 146 53 85 46 105 -14 41z"
       id="path196"
       style="fill:#ff99ff" />
    <path
       d="M5748 2564 c-40 -21 -54 -64 -65 -201 -5 -69 -4 -73 16 -73 15 0 21 6 21 21 0 33 58 107 100 129 22 11 44 29 50 39 14 27 13 68 -2 77 -25 16 -96 20 -120 8z"
       id="path198"
       style="fill:#336666" />
    <path
       d="M6389 2541 c-16 -16 -29 -37 -29 -47 0 -25 37 -98 59 -118 18 -16 22 -14 77 39 58 55 58 55 42 83 -19 33 -74 72 -100 72 -11 0 -33 -13 -49 -29z"
       id="path200"
       style="fill:#336666" />
    <path
       d="M7020 2561 c0 -12 29 -35 36 -28 11 10 -5 37 -21 37 -8 0 -15 -4 -15 -9z"
       id="path202"
       style="fill:#ccff99" />
    <path
       d="M5988 2511 c-38 -38 -38 -40 -25 -72 7 -18 18 -34 24 -36 6 -2 22 30 35 72 13 41 20 75 15 75 -5 0 -27 -18 -49 -39z"
       id="path204"
       style="fill:#336666" />
    <path
       d="M6827 2523 c-20 -33 -25 -88 -12 -127 19 -52 18 -70 -1 -126 -16 -45 -12 -103 8 -127 6 -7 28 -13 50 -13 52 0 63 26 37 93 -24 61 -24 93 1 150 22 49 19 73 -11 82 -11 4 -30 22 -43 41 -13 20 -26 32 -29 27z"
       id="path206"
       style="fill:#cc99ff" />
    <path
       d="M6173 2477 c-22 -33 -35 -71 -43 -120 -6 -40 -20 -90 -30 -112 -25 -54 -25 -54 -17 -102 7 -42 8 -43 45 -43 64 1 84 19 87 81 2 30 6 68 10 84 5 23 -1 43 -23 84 l-30 53 20 45 c30 68 18 88 -19 30z"
       id="path208"
       style="fill:#66ff00" />
    <path
       d="M5413 2478 c-11 -22 -18 -63 -20 -123 -1 -49 -3 -97 -3 -105 -2 -39 14 -110 25 -110 6 0 22 11 35 25 18 19 22 34 21 79 0 29 6 73 14 96 8 23 15 53 15 66 0 25 -46 104 -61 104 -5 0 -16 -15 -26 -32z"
       id="path210"
       style="fill:#ff99ff" />
    <path
       d="M6250 2490 c0 -11 -7 -38 -16 -60 -16 -40 -16 -41 11 -81 30 -46 32 -58 20 -114 -9 -45 -7 -82 6 -107 23 -43 116 35 139 117 13 47 14 45 -48 150 -62 102 -112 145 -112 95z"
       id="path212"
       style="fill:#66ff00" />
    <path
       d="M7092 2498 c-7 -7 -12 -23 -12 -37 0 -13 -5 -40 -12 -58 -10 -29 -9 -39 10 -78 12 -25 22 -60 22 -79 0 -53 -70 -136 -134 -160 -24 -8 -180 11 -220 28 -17 7 -56 36 -87 64 l-57 52 -78 -20 c-64 -17 -83 -26 -106 -54 -47 -57 -126 -89 -229 -94 -49 -3 -100 -1 -115 2 -15 4 -57 36 -93 70 -36 35 -75 68 -86 74 -11 5 -59 13 -106 17 l-86 7 -23 -37 c-29 -46 -58 -59 -190 -80 l-105 -18 -50 32 c-27 17 -55 31 -62 31 -8 0 -25 11 -38 25 -21 20 -25 33 -25 87 0 80 14 129 46 168 15 17 23 37 20 46 -10 26 -44 -2 -58 -48 -15 -50 -90 -130 -143 -152 -21 -9 -58 -16 -84 -16 -61 0 -176 32 -213 60 l-30 22 -22 -21 c-21 -22 -21 -22 -1 -37 11 -9 79 -44 150 -80 114 -56 157 -71 345 -119 118 -30 240 -61 270 -70 82 -23 450 -37 849 -33 311 4 363 7 516 31 94 14 259 33 367 41 208 16 325 40 480 96 90 33 141 67 163 110 20 39 11 55 -38 75 l-42 17 -22 -29 c-76 -93 -100 -103 -250 -103 -104 0 -123 3 -158 23 -54 31 -65 57 -65 158 l0 86 -52 7 c-81 9 -133 7 -146 -6z"
       id="path214"
       style="fill:#ffcc99" />
    <path
       d="M6644 2455 c-8 -46 2 -57 27 -26 23 28 21 54 -3 59 -12 2 -19 -6 -24 -33z"
       id="path216"
       style="fill:#ccff99" />
    <path
       d="M5856 2409 c-36 -10 -71 -42 -87 -81 -18 -43 4 -61 84 -66 l63 -4 17 52 c15 46 22 90 14 90 -1 0 -16 4 -32 8 -17 5 -43 5 -59 1z"
       id="path218"
       style="fill:#336666" />
    <path
       d="M6498 2352 c-10 -16 -21 -47 -27 -70 l-9 -42 37 0 c53 0 98 31 110 77 17 61 16 63 -42 63 -47 0 -54 -3 -69 -28z"
       id="path220"
       style="fill:#336666" />
    <path
       d="M4690 2065 c0 -63 4 -115 8 -115 5 0 19 12 33 26 13 14 41 35 61 47 21 11 38 26 38 32 0 15 -114 125 -129 125 -7 0 -11 -40 -11 -115z"
       id="path222"
       style="fill:#cc99cc" />
    <path
       d="M4773 2175 c4 -5 24 -28 44 -52 41 -48 48 -50 81 -24 27 23 28 31 3 31 -11 0 -41 10 -68 22 -68 31 -69 32 -60 23z"
       id="path224"
       style="fill:#9966ff" />
    <path
       d="M7693 2104 c-40 -18 -73 -36 -73 -39 0 -14 33 -75 40 -75 5 0 19 19 33 43 14 23 37 55 52 71 14 15 25 29 23 31 -2 1 -36 -12 -75 -31z"
       id="path226"
       style="fill:#9966ff" />
    <path
       d="M7799 2088 c-47 -36 -89 -99 -89 -135 0 -15 10 -28 29 -37 28 -15 84 -73 94 -98 17 -42 40 86 41 232 1 79 -12 86 -75 38z"
       id="path228"
       style="fill:#cc99cc" />
    <path
       d="M4955 2084 c-63 -33 -62 -42 15 -116 39 -37 72 -68 75 -68 3 0 30 22 60 50 30 27 66 52 80 56 14 3 25 10 25 14 0 10 -62 35 -138 55 -34 8 -67 17 -74 20 -7 2 -26 -3 -43 -11z"
       id="path230"
       style="fill:#cc99cc" />
    <path
       d="M7447 2036 c-67 -19 -76 -30 -49 -63 12 -16 36 -52 53 -80 17 -29 34 -53 38 -53 4 0 18 12 32 26 13 14 43 37 67 51 23 14 42 31 42 39 0 8 -15 30 -32 49 -39 41 -83 50 -151 31z"
       id="path232"
       style="fill:#cc99cc" />
    <path
       d="M5330 2000 c-6 -4 5 -21 27 -41 21 -19 50 -49 65 -68 24 -32 27 -33 43 -18 9 10 37 31 61 48 25 17 44 33 41 35 -17 17 -219 55 -237 44z"
       id="path234"
       style="fill:#9966ff" />
    <path
       d="M4770 1960 c-29 -26 -40 -44 -36 -55 3 -9 6 -18 6 -20 0 -2 15 -13 34 -24 20 -13 45 -43 62 -76 16 -30 31 -55 34 -55 3 0 14 13 23 30 10 16 38 43 62 60 25 17 45 34 45 37 0 3 -11 25 -25 49 -25 43 -32 47 -92 59 -17 3 -37 13 -44 21 -17 20 -21 19 -69 -26z"
       id="path236"
       style="fill:#cc66ff" />
    <path
       d="M7140 1989 c-36 -5 -84 -12 -107 -15 -24 -3 -43 -9 -43 -13 0 -11 117 -121 129 -121 5 0 22 17 37 38 15 20 40 54 56 74 41 54 45 53 -72 37z"
       id="path238"
       style="fill:#9966ff" />
    <path
       d="M5174 1951 c-47 -21 -84 -64 -84 -97 0 -15 14 -33 43 -55 23 -18 57 -46 75 -63 l32 -30 38 36 c20 20 58 46 85 58 26 12 47 26 47 32 0 39 -73 112 -124 122 -14 4 -36 8 -48 11 -13 2 -41 -4 -64 -14z"
       id="path240"
       style="fill:#cc66ff" />
    <path
       d="M6680 1949 c-41 -5 -78 -10 -82 -11 -6 -3 5 -22 59 -104 12 -18 14 -17 35 10 13 16 38 46 56 67 35 39 39 50 20 48 -7 -1 -47 -5 -88 -10z"
       id="path242"
       style="fill:#9966ff" />
    <path
       d="M7280 1943 c-50 -35 -100 -103 -100 -138 0 -12 21 -48 46 -81 25 -32 53 -68 60 -79 14 -19 15 -19 41 15 15 19 49 56 75 82 26 27 48 54 48 60 -1 24 -41 103 -67 131 -31 31 -67 35 -103 10z"
       id="path244"
       style="fill:#cc66ff" />
    <path
       d="M5740 1945 c0 -3 9 -15 19 -27 11 -13 28 -34 39 -47 l19 -25 50 45 c46 40 49 45 29 51 -25 7 -156 10 -156 3z"
       id="path246"
       style="fill:#9966ff" />
    <path
       d="M6920 1940 c-8 -5 -26 -10 -39 -10 -36 0 -107 -45 -130 -84 l-21 -34 73 -74 c41 -40 79 -82 85 -93 11 -20 11 -20 27 3 9 12 48 54 86 93 38 38 69 72 69 75 0 8 -122 134 -129 134 -3 0 -13 -5 -21 -10z"
       id="path248"
       style="fill:#cc99cc" />
    <path
       d="M6170 1925 c0 -8 82 -85 91 -85 6 0 59 42 108 86 2 2 -41 4 -97 4 -56 0 -102 -2 -102 -5z"
       id="path250"
       style="fill:#9966ff" />
    <path
       d="M5569 1898 c-44 -26 -79 -58 -79 -73 0 -6 25 -40 55 -77 30 -36 55 -71 55 -77 0 -24 17 -8 55 52 22 34 57 73 78 86 43 28 45 36 14 75 -21 26 -31 29 -84 32 -46 2 -69 -3 -94 -18z"
       id="path252"
       style="fill:#cc99cc" />
    <path
       d="M5948 1889 c-32 -16 -63 -39 -69 -51 -11 -20 -9 -25 17 -43 16 -11 53 -44 82 -72 29 -29 57 -53 61 -53 5 0 41 29 81 65 40 36 76 65 81 65 20 0 7 32 -27 62 -50 46 -59 50 -118 53 -40 3 -63 -3 -108 -26z"
       id="path254"
       style="fill:#cc99cc" />
    <path
       d="M6490 1900 c-8 -5 -28 -10 -43 -10 -16 0 -38 -5 -50 -11 -35 -18 -77 -61 -77 -79 0 -9 25 -45 55 -80 30 -35 55 -67 55 -72 0 -24 43 -2 86 45 27 28 61 61 76 72 26 18 27 23 18 56 -21 75 -73 109 -120 79z"
       id="path256"
       style="fill:#cc99cc" />
    <path
       d="M7613 1873 c-21 -4 -93 -67 -93 -82 0 -5 17 -20 39 -34 21 -14 51 -46 67 -71 16 -25 31 -46 34 -46 3 0 14 16 24 35 11 19 39 55 63 79 37 38 43 48 34 65 -28 52 -85 70 -168 54z"
       id="path258"
       style="fill:#cc66ff" />
    <path
       d="M4700 1835 c-13 -16 -8 -162 7 -203 7 -18 12 -16 61 28 56 52 61 69 38 124 -24 56 -79 83 -106 51z"
       id="path260"
       style="fill:#6666ff" />
    <path
       d="M5003 1802 c-26 -4 -83 -65 -83 -89 0 -9 35 -50 77 -90 l77 -74 23 28 c12 15 22 31 23 35 0 4 18 17 40 28 47 24 49 38 13 77 -64 67 -117 93 -170 85z"
       id="path262"
       style="fill:#6666ff" />
    <path
       d="M5332 1740 c-23 -16 -43 -36 -43 -43 -3 -36 6 -55 41 -85 22 -18 49 -51 62 -73 25 -46 35 -49 44 -14 7 29 51 66 107 89 38 15 38 16 23 43 -39 71 -75 97 -147 107 -40 6 -50 3 -87 -24z"
       id="path264"
       style="fill:#6666ff" />
    <path
       d="M5725 1744 c-45 -48 -67 -92 -59 -116 9 -29 123 -148 141 -148 8 0 26 14 40 31 14 16 52 48 84 70 33 22 59 45 59 52 0 18 -56 92 -83 109 -12 8 -52 18 -90 22 -65 6 -68 5 -92 -20z"
       id="path266"
       style="fill:#cc66ff" />
    <path
       d="M6190 1733 c-63 -42 -90 -76 -90 -115 0 -34 8 -46 66 -104 l65 -66 42 45 c23 24 61 56 85 71 50 31 52 49 13 103 -59 81 -124 105 -181 66z"
       id="path268"
       style="fill:#cc66ff" />
    <path
       d="M6700 1740 c-8 -5 -30 -9 -48 -8 -28 1 -43 -8 -95 -60 l-61 -61 82 -82 c46 -45 87 -89 92 -98 7 -13 25 1 94 71 47 48 86 94 86 103 0 26 -19 57 -63 103 -42 43 -60 49 -87 32z"
       id="path270"
       style="fill:#cc66ff" />
    <path
       d="M7765 1706 c-51 -53 -61 -85 -40 -129 16 -35 81 -107 95 -107 14 0 19 27 26 143 5 79 3 111 -6 122 -19 23 -30 19 -75 -29z"
       id="path272"
       style="fill:#6666ff" />
    <path
       d="M7134 1729 c-4 -7 -20 -8 -41 -4 -39 7 -76 -18 -123 -84 -27 -37 -27 -37 -9 -72 9 -19 47 -63 84 -99 55 -54 68 -62 75 -49 17 30 85 107 113 129 36 28 32 50 -24 131 -38 57 -60 71 -75 48z"
       id="path274"
       style="fill:#6666ff" />
    <path
       d="M7510 1720 c-8 -5 -29 -10 -45 -10 -38 0 -105 -64 -105 -99 0 -14 18 -43 43 -70 24 -25 49 -55 55 -66 13 -20 13 -20 25 0 17 27 88 95 100 95 20 0 46 32 40 48 -11 30 -74 112 -86 112 -7 0 -19 -5 -27 -10z"
       id="path276"
       style="fill:#6666ff" />
    <path
       d="M4786 1625 c-14 -13 -26 -29 -26 -36 0 -18 127 -139 146 -139 18 0 124 77 124 89 0 4 -15 25 -34 47 -56 66 -160 85 -210 39z"
       id="path278"
       style="fill:#9933ff" />
    <path
       d="M5145 1574 c-14 -15 -25 -35 -25 -46 0 -10 34 -52 76 -94 l75 -75 39 34 c21 20 48 40 59 47 29 15 26 35 -10 91 -34 53 -66 69 -141 69 -40 0 -53 -5 -73 -26z"
       id="path280"
       style="fill:#9933ff" />
    <path
       d="M5535 1565 c-40 -16 -63 -44 -71 -84 -6 -28 -2 -36 38 -75 24 -23 61 -55 82 -71 l37 -28 65 64 c35 35 64 72 64 81 0 10 -19 39 -41 63 -34 37 -48 45 -76 45 -19 0 -42 4 -51 9 -11 6 -28 5 -47 -4z"
       id="path282"
       style="fill:#9933ff" />
    <path
       d="M5962 1549 c-48 -24 -92 -72 -92 -100 0 -10 21 -40 48 -67 26 -26 63 -67 82 -91 l35 -43 83 81 c45 44 82 85 82 90 0 12 -93 106 -123 125 -40 25 -71 26 -115 5z"
       id="path284"
       style="fill:#9933ff" />
    <path
       d="M6407 1530 c-45 -8 -108 -57 -121 -93 -12 -32 9 -59 65 -88 20 -10 55 -39 77 -65 l40 -47 58 51 c33 28 73 62 89 75 l30 26 -19 36 c-11 19 -39 54 -63 75 -45 42 -69 47 -156 30z"
       id="path286"
       style="fill:#9933ff" />
    <path
       d="M7590 1517 c-25 -13 -53 -38 -63 -55 l-19 -32 53 -55 c28 -30 57 -55 63 -55 6 0 24 16 39 35 16 20 46 47 68 62 l39 25 -18 30 c-36 63 -97 80 -162 45z"
       id="path288"
       style="fill:#9933ff" />
    <path
       d="M7265 1510 c-36 -18 -125 -124 -125 -149 0 -4 25 -32 55 -60 l56 -53 80 84 c95 97 101 107 87 133 -36 67 -82 81 -153 45z"
       id="path290"
       style="fill:#9933ff" />
    <path
       d="M4747 1504 c-46 -25 -49 -105 -5 -151 30 -32 40 -29 81 18 39 44 39 53 0 106 -30 40 -42 44 -76 27z"
       id="path292"
       style="fill:#3333ff" />
    <path
       d="M6833 1512 c-24 -16 -103 -117 -103 -133 0 -9 16 -30 35 -46 19 -15 50 -40 69 -55 18 -16 43 -28 54 -28 18 0 143 95 164 125 14 19 8 32 -43 83 -49 50 -53 51 -95 45 -26 -3 -49 -1 -57 5 -7 6 -18 8 -24 4z"
       id="path294"
       style="fill:#9933ff" />
    <path
       d="M4981 1444 c-35 -44 -35 -44 107 -158 l42 -35 50 46 c56 53 55 58 -11 124 -38 38 -43 40 -83 34 -28 -5 -46 -3 -50 4 -12 18 -33 12 -55 -15z"
       id="path296"
       style="fill:#3333ff" />
    <path
       d="M5353 1378 c-46 -51 -46 -63 -7 -115 20 -26 42 -52 50 -56 8 -4 46 -7 86 -5 l73 3 9 36 c17 68 -47 139 -125 139 -21 0 -41 5 -44 10 -9 15 -20 12 -42 -12z"
       id="path298"
       style="fill:#3333ff" />
    <path
       d="M5834 1379 c-4 -7 -22 -9 -47 -6 -37 5 -44 2 -74 -29 -47 -50 -52 -91 -16 -142 27 -40 30 -41 88 -44 124 -5 134 -3 170 32 l34 33 -24 47 c-22 43 -97 120 -116 120 -4 0 -11 -5 -15 -11z"
       id="path300"
       style="fill:#3333ff" />
    <path
       d="M7753 1370 c-44 -27 -78 -69 -67 -80 11 -11 98 11 126 32 50 39 -3 83 -59 48z"
       id="path302"
       style="fill:#3333ff" />
    <path
       d="M4850 1341 c-13 -24 -4 -30 94 -60 71 -22 106 -26 106 -13 -1 4 -22 24 -48 45 -37 30 -54 37 -77 34 -16 -3 -38 -1 -47 4 -13 7 -20 4 -28 -10z"
       id="path304"
       style="fill:#3333ff" />
    <path
       d="M7445 1351 c-41 -10 -76 -34 -104 -72 -25 -34 -44 -89 -31 -89 33 0 246 42 257 51 22 19 15 63 -15 92 -29 27 -51 31 -107 18z"
       id="path306"
       style="fill:#3333ff" />
    <path
       d="M6137 1292 c-55 -56 -59 -83 -20 -124 26 -28 29 -28 142 -28 64 0 121 4 127 8 46 30 35 101 -22 151 -41 36 -78 48 -99 31 -14 -12 -30 -11 -65 4 -10 4 -32 -10 -63 -42z"
       id="path308"
       style="fill:#3333ff" />
    <path
       d="M6634 1309 c-39 -11 -114 -82 -114 -108 0 -10 8 -29 18 -41 17 -21 25 -22 129 -21 122 2 162 9 176 33 18 27 -12 76 -67 114 -52 35 -83 40 -142 23z"
       id="path310"
       style="fill:#3333ff" />
    <path
       d="M7067 1300 c-22 -4 -52 -21 -73 -41 -49 -47 -59 -67 -42 -86 12 -15 79 -14 207 4 43 6 43 6 37 41 -6 39 -51 93 -75 91 -9 -1 -33 -5 -54 -9z"
       id="path312"
       style="fill:#3333ff" />
    <path
       d="M5200 1261 c-23 -15 -2 -28 65 -39 60 -10 75 -8 75 8 0 24 -113 48 -140 31z"
       id="path314"
       style="fill:#3333ff" />
    <path
       d="M5604 1206 c-24 -18 -16 -26 35 -33 46 -6 54 7 19 31 -27 19 -29 20 -54 2z"
       id="path316"
       style="fill:#3333ff" />
    <path
       d="M5993 1165 c-17 -12 -16 -14 9 -20 15 -4 39 -3 54 2 l27 9 -36 11 c-28 8 -40 8 -54 -2z"
       id="path318"
       style="fill:#3333ff" />
    <path
       d="M6463 1143 c9 -2 23 -2 30 0 6 3 -1 5 -18 5 -16 0 -22 -2 -12 -5z"
       id="path320" />
    <path
       d="M1874 3540 c-47 -19 -97 -112 -120 -227 -9 -43 -22 -87 -29 -99 -39 -62 -178 -71 -289 -21 -32 15 -62 27 -66 27 -11 0 7 -75 27 -114 31 -61 83 -115 138 -141 45 -23 69 -27 142 -29 78 -1 95 2 145 27 143 70 195 219 126 355 -33 63 -33 64 -13 78 15 12 34 14 79 8 l59 -6 -6 37 c-8 46 -30 72 -82 96 -43 20 -78 23 -111 9z m133 -75 c-1 -26 -5 -35 -18 -35 -10 0 -19 5 -21 11 -3 9 -10 9 -27 -1 -19 -10 -25 -10 -33 1 -7 11 -11 11 -15 2 -7 -19 -33 -15 -33 5 0 31 15 41 70 45 30 2 60 4 67 5 7 1 11 -12 10 -33z m-153 -274 c41 -45 -34 -138 -143 -176 -73 -25 -80 0 -25 88 34 55 99 107 135 107 9 0 24 -9 33 -19z"
       id="path322"
       style="fill:#ff0000" />
    <path
       d="M1766 3149 c-28 -22 -76 -91 -76 -109 0 -15 70 24 108 60 53 51 25 94 -32 49z"
       id="path324"
       style="fill:#ff3300" />
    <path
       d="M2260 3509 c-46 -28 -111 -90 -104 -101 3 -4 21 -8 41 -8 l36 0 -7 -77 c-20 -238 -20 -225 7 -280 29 -55 112 -134 169 -157 52 -22 128 -29 175 -17 56 15 121 89 175 197 23 46 39 86 37 89 -3 2 -29 -4 -57 -15 -69 -26 -96 -25 -148 5 -63 37 -93 94 -104 198 -11 104 -29 151 -69 171 -42 22 -109 20 -151 -5z m94 -35 c11 -28 6 -42 -16 -49 -44 -14 -80 -11 -94 10 -17 24 -4 35 43 35 17 0 35 5 38 10 9 15 22 12 29 -6z m135 -340 c26 -18 81 -101 81 -121 0 -9 -16 -13 -53 -13 -60 0 -107 27 -161 90 -26 32 -27 35 -10 47 25 19 115 17 143 -3z"
       id="path326"
       style="fill:#0099ff" />
    <path
       d="M2399 3119 c-20 -12 -1 -39 47 -66 45 -26 64 -29 64 -9 0 40 -80 94 -111 75z"
       id="path328"
       style="fill:#00ccff" />
    <path
       d="M1358 3380 c-21 -13 -23 -48 -6 -85 11 -24 93 -72 155 -90 44 -12 31 77 -20 138 -25 30 -41 39 -72 43 -22 2 -48 0 -57 -6z"
       id="path330"
       style="fill:#ff3333" />
    <path
       d="M2047 3371 c-59 -6 -75 -21 -35 -33 39 -11 166 -9 174 3 17 28 -41 41 -139 30z"
       id="path332"
       style="fill:#cc66cc" />
    <path
       d="M1244 3319 c-13 -4 -27 -23 -33 -42 -21 -64 16 -111 82 -105 27 3 32 7 35 33 4 42 -21 107 -44 115 -10 4 -29 4 -40 -1z"
       id="path334"
       style="fill:#ff3300" />
    <path
       d="M2713 3301 c-60 -37 -105 -130 -69 -144 42 -16 172 50 183 92 5 19 0 30 -21 48 -33 28 -51 29 -93 4z"
       id="path336"
       style="fill:#6699ff" />
    <path
       d="M1581 3296 c-7 -8 -11 -34 -9 -58 3 -42 3 -43 38 -40 64 5 118 63 90 97 -16 20 -103 20 -119 1z"
       id="path338"
       style="fill:#ff6600" />
    <path
       d="M2022 3303 c-6 -2 -9 -9 -6 -14 11 -18 7 -135 -6 -175 -29 -88 -82 -144 -175 -185 -41 -18 -69 -22 -160 -22 -126 0 -160 10 -235 73 -43 36 -51 39 -75 30 -14 -5 -49 -10 -76 -10 -40 0 -55 5 -75 25 -22 22 -25 33 -23 86 4 95 -3 98 -146 49 -176 -61 -225 -91 -225 -137 0 -57 37 -83 192 -133 172 -56 223 -66 613 -120 195 -27 696 -45 869 -30 392 32 962 129 1032 175 36 23 47 59 30 99 -31 74 -171 136 -433 191 -79 17 -97 10 -114 -42 -6 -21 -19 -48 -27 -61 -11 -17 -12 -26 -3 -35 6 -6 11 -24 11 -40 0 -89 -146 -168 -257 -138 -40 11 -44 10 -88 -21 -45 -31 -51 -33 -138 -33 -86 0 -96 2 -149 33 -59 34 -137 112 -166 166 -18 34 -22 145 -10 229 l8 47 -78 -1 c-42 0 -83 -3 -90 -6z"
       id="path340"
       style="fill:#ffff33" />
    <path
       d="M2893 3272 c-15 -10 -71 -128 -79 -168 -4 -24 -2 -33 11 -38 20 -7 107 29 130 54 42 47 32 130 -20 150 -31 12 -27 12 -42 2z"
       id="path342"
       style="fill:#66cccc" />
    <path
       d="M2540 3247 c0 -8 10 -23 23 -35 l23 -22 17 29 c9 15 14 31 10 35 -12 12 -73 6 -73 -7z"
       id="path344"
       style="fill:#00ccff" />
    <path
       d="M1253 3140 c-34 -14 -44 -40 -27 -72 8 -15 23 -32 34 -38 24 -13 100 -2 107 16 2 7 -5 33 -16 58 -17 39 -24 46 -48 45 -15 0 -38 -4 -50 -9z"
       id="path346"
       style="fill:#ff6600" />
    <path
       d="M2870 3050 c-19 -5 -45 -6 -57 -3 -18 4 -27 -4 -52 -44 -36 -57 -38 -69 -10 -84 77 -41 232 56 192 120 -12 20 -27 22 -73 11z"
       id="path348"
       style="fill:#66cccc" />
    <path
       d="M790 2857 l0 -115 113 -108 c62 -60 137 -122 167 -138 48 -26 62 -29 154 -30 117 0 237 28 323 76 55 30 129 106 144 147 17 43 25 41 -349 96 -210 31 -453 104 -514 155 l-38 31 0 -114z"
       id="path350"
       style="fill:#66ff99" />
    <path
       d="M3490 2873 c-75 -23 -345 -76 -558 -109 -63 -10 -120 -23 -128 -29 -24 -17 46 -147 99 -184 95 -65 100 -66 257 -65 130 0 153 3 225 27 44 15 105 40 135 55 l55 28 2 139 c1 77 -2 144 -5 150 -5 8 -30 4 -82 -12z"
       id="path352"
       style="fill:#66ff99" />
    <path
       d="M2665 2727 c-33 -5 -250 -9 -482 -9 -338 1 -423 -1 -423 -12 0 -23 76 -139 123 -186 82 -83 242 -151 357 -153 216 -2 500 193 500 344 0 25 -7 26 -75 16z"
       id="path354"
       style="fill:#66ff99" />
    <path
       d="M781 2585 c5 -106 16 -119 151 -169 149 -55 201 -66 318 -66 139 0 225 20 339 77 77 39 96 53 108 80 19 46 39 41 68 -17 14 -27 39 -65 56 -85 42 -47 147 -107 234 -134 119 -37 355 -26 524 25 71 21 161 107 182 174 8 25 20 45 27 45 8 0 26 -18 40 -39 45 -65 90 -94 182 -117 73 -19 104 -21 225 -17 143 6 203 19 294 66 33 18 37 23 43 77 4 32 6 60 4 62 -2 2 -50 -14 -107 -36 -142 -53 -203 -64 -350 -59 -115 4 -128 6 -185 35 -64 33 -128 95 -148 145 l-13 30 -22 -44 c-35 -67 -117 -145 -207 -194 -130 -71 -183 -86 -304 -88 -98 -1 -110 1 -185 33 -147 63 -207 111 -277 221 -23 36 -43 67 -45 69 -1 2 -38 -30 -82 -71 -64 -61 -93 -80 -150 -101 -102 -38 -232 -60 -322 -55 -105 6 -161 36 -279 147 -52 50 -101 90 -109 91 -10 0 -12 -18 -10 -85z"
       id="path356"
       style="fill:#66cc00" />
    <path
       d="M1677 2434 c-117 -79 -256 -116 -437 -117 -141 -1 -189 9 -344 73 -55 22 -102 40 -105 40 -3 0 -5 -109 -3 -242 2 -173 7 -245 15 -251 7 -4 39 -23 71 -43 l60 -35 25 21 c39 31 127 71 170 77 43 6 146 -34 177 -68 16 -18 18 -18 55 16 21 18 53 37 71 40 42 8 122 -10 165 -37 l34 -20 36 28 c95 73 230 72 311 -1 l37 -33 35 29 c109 92 240 103 312 27 l27 -30 62 39 c90 55 159 52 279 -14 3 -1 23 14 45 33 50 45 110 73 153 74 39 0 99 -23 127 -50 21 -20 21 -20 56 16 19 20 54 50 78 65 52 33 113 38 179 15 41 -15 42 -15 84 21 24 20 58 43 76 51 l32 16 0 99 c0 90 -2 99 -17 92 -121 -48 -375 -78 -474 -55 -141 32 -191 51 -234 91 l-44 40 -14 -28 c-27 -51 -119 -128 -179 -151 -115 -43 -367 -64 -498 -42 -136 23 -277 104 -340 195 -17 25 -34 45 -38 45 -4 0 -24 -11 -45 -26z"
       id="path358"
       style="fill:#ffcc00" />
    <path
       d="M3510 2104 c-14 -10 -41 -32 -61 -51 l-35 -34 -45 20 c-90 42 -156 22 -241 -72 l-47 -52 -30 23 c-17 12 -44 31 -60 43 -58 42 -134 20 -207 -59 l-42 -45 -65 36 c-75 42 -120 47 -182 18 -22 -10 -51 -30 -64 -45 -32 -34 -55 -33 -81 4 -48 67 -140 80 -225 31 -27 -16 -63 -43 -79 -60 -17 -17 -35 -31 -42 -31 -7 0 -25 16 -40 36 -38 49 -72 64 -147 64 -54 0 -70 -4 -111 -31 -25 -17 -51 -41 -58 -53 -6 -11 -12 -23 -14 -25 -2 -2 -24 15 -49 37 -80 71 -180 65 -226 -13 -12 -19 -26 -35 -33 -35 -7 0 -28 16 -47 36 -48 50 -81 65 -148 65 -84 1 -136 -30 -160 -94 -13 -33 -31 -35 -57 -5 -21 23 -103 78 -116 78 -5 0 -8 -20 -7 -45 3 -44 4 -46 64 -80 34 -19 67 -41 74 -49 11 -13 17 -13 46 0 64 26 162 13 212 -30 l26 -23 43 24 c32 18 60 25 113 26 63 2 73 -1 113 -29 40 -28 47 -30 64 -17 95 70 190 81 291 34 40 -19 65 -26 69 -19 4 5 25 19 48 29 56 25 138 25 193 -2 l43 -21 32 27 c29 24 38 27 90 23 43 -3 64 -10 83 -28 l25 -23 23 20 c59 55 146 69 204 33 33 -19 33 -19 43 1 31 57 169 81 235 40 l30 -18 42 38 c52 48 82 55 156 40 l60 -12 31 30 c51 50 126 64 180 36 l30 -16 52 58 c52 57 53 59 54 121 0 68 -7 74 -50 46z"
       id="path360"
       style="fill:#ff99ff" />
    <path
       d="M3524 1907 c-32 -47 -46 -77 -37 -77 4 0 23 9 41 20 26 16 32 26 32 55 0 43 -9 44 -36 2z"
       id="path362"
       style="fill:#ffff00" />
    <path
       d="M3310 1864 c-41 -18 -50 -30 -50 -66 0 -33 9 -34 95 -10 66 19 80 39 49 73 -20 23 -47 24 -94 3z"
       id="path364"
       style="fill:#ffff00" />
    <path
       d="M3073 1808 c-30 -8 -73 -49 -73 -71 0 -6 28 -7 78 -3 98 9 122 15 122 31 0 32 -73 57 -127 43z"
       id="path366"
       style="fill:#ffff00" />
    <path
       d="M3448 1783 c-208 -69 -750 -148 -1125 -163 -145 -6 -316 -15 -380 -21 -140 -12 -346 -15 -653 -7 -208 5 -235 8 -353 37 -71 17 -132 31 -138 31 -5 0 -9 -20 -9 -45 l0 -44 94 -30 c142 -46 241 -54 641 -55 302 -1 399 3 600 22 132 12 366 34 520 48 154 13 345 36 425 49 80 13 191 32 248 40 57 9 133 27 170 41 37 13 68 24 69 24 7 0 2 99 -4 102 -5 2 -52 -11 -105 -29z"
       id="path368"
       style="fill:#66ff00" />
    <path
       d="M2770 1763 c-29 -11 -50 -36 -50 -60 0 -21 3 -23 33 -19 17 3 55 8 82 11 116 13 127 22 73 55 -32 19 -103 26 -138 13z"
       id="path370"
       style="fill:#ffff00" />
    <path
       d="M792 1728 c5 -15 39 -32 81 -42 39 -9 33 7 -12 32 -43 24 -75 29 -69 10z"
       id="path372"
       style="fill:#ffff00" />
    <path
       d="M2484 1695 l-39 -34 83 -1 c88 0 125 11 116 34 -7 17 -56 36 -94 36 -16 0 -42 -13 -66 -35z"
       id="path374"
       style="fill:#ffff00" />
    <path
       d="M2005 1701 c-44 -11 -73 -29 -86 -53 -11 -21 -11 -21 87 -14 116 8 146 14 141 30 -9 27 -93 49 -142 37z"
       id="path376"
       style="fill:#ffff00" />
    <path
       d="M993 1690 c-13 -5 -23 -12 -23 -15 0 -18 186 -59 196 -43 4 6 -4 21 -17 33 -27 27 -119 41 -156 25z"
       id="path378"
       style="fill:#ffff00" />
    <path
       d="M1651 1691 c-36 -10 -82 -40 -85 -56 -1 -12 157 -19 232 -10 59 7 63 19 15 48 -37 21 -114 30 -162 18z"
       id="path380"
       style="fill:#ffff00" />
    <path
       d="M2242 1684 c-41 -29 -27 -37 54 -31 85 6 98 12 70 33 -26 19 -96 18 -124 -2z"
       id="path382"
       style="fill:#ffff00" />
    <path
       d="M1307 1680 c-35 -11 -58 -30 -51 -41 3 -5 53 -9 110 -9 80 0 105 3 102 13 -11 31 -108 54 -161 37z"
       id="path384"
       style="fill:#ffff00" />
    <path
       d="M3502 1644 l-23 -16 32 -24 c44 -32 51 -30 47 13 -3 43 -21 52 -56 27z"
       id="path386"
       style="fill:#ff9900" />
    <path
       d="M3305 1608 c-33 -5 -62 -11 -64 -13 -2 -2 12 -18 30 -34 45 -41 99 -43 134 -5 14 15 25 35 25 45 0 22 -25 23 -125 7z"
       id="path388"
       style="fill:#ff9900" />
    <path
       d="M3038 1566 c-32 -7 -61 -16 -65 -19 -10 -11 38 -55 62 -57 11 -1 30 -2 42 -1 26 1 93 57 93 77 0 17 -52 17 -132 0z"
       id="path390"
       style="fill:#ff9900" />
    <path
       d="M3442 1540 c-49 -61 -129 -66 -192 -13 l-30 24 -32 -31 c-87 -83 -192 -90 -243 -18 l-15 23 -26 -33 c-34 -42 -93 -72 -144 -72 -45 0 -72 11 -108 44 l-23 21 -17 -23 c-35 -45 -73 -62 -144 -62 -37 0 -78 5 -91 11 -20 9 -31 6 -72 -20 -68 -43 -132 -43 -199 0 -48 30 -48 30 -63 9 -31 -44 -116 -68 -167 -46 -17 7 -44 27 -58 45 l-27 31 -18 -31 c-22 -38 -80 -69 -130 -69 -35 0 -96 24 -134 51 -13 10 -22 8 -44 -9 -36 -29 -99 -45 -138 -36 -44 9 -89 33 -105 55 -17 25 -24 24 -68 -6 -53 -36 -160 -36 -224 1 -25 14 -49 32 -53 40 -11 20 -25 18 -64 -12 -33 -25 -34 -27 -27 -82 7 -60 31 -119 58 -142 29 -23 121 -39 167 -29 61 14 91 36 115 83 28 55 48 54 52 -4 4 -72 10 -87 44 -108 46 -27 99 -35 152 -21 50 12 75 35 91 82 15 46 33 44 54 -6 11 -25 36 -57 56 -73 77 -59 209 -36 263 46 13 19 28 37 33 38 5 2 29 -18 52 -44 23 -26 61 -60 85 -75 38 -24 47 -26 85 -17 58 13 119 50 160 98 l35 41 22 -31 c31 -44 93 -80 136 -80 30 0 44 8 78 43 22 23 49 57 59 75 21 42 37 37 54 -15 21 -62 53 -86 121 -90 91 -6 140 28 157 110 8 38 28 34 60 -13 15 -22 39 -43 52 -46 66 -17 160 31 194 98 11 21 21 38 23 38 2 0 23 -16 46 -35 78 -65 163 -68 231 -7 36 33 51 106 42 210 -5 56 -10 71 -27 82 -11 7 -30 19 -42 27 -19 12 -23 10 -52 -27z"
       id="path392"
       style="fill:#999900" />
    <path
       d="M2713 1531 c-54 -9 -61 -16 -38 -41 45 -50 136 -47 186 6 20 21 21 27 9 34 -17 11 -94 11 -157 1z"
       id="path394"
       style="fill:#ff9900" />
    <path
       d="M784 1505 c-9 -23 5 -65 21 -65 19 0 49 46 41 65 -7 19 -55 20 -62 0z"
       id="path396"
       style="fill:#ff9900" />
    <path
       d="M2480 1503 c-75 -7 -100 -14 -100 -28 0 -38 97 -59 153 -34 27 12 50 45 42 59 -6 10 -24 10 -95 3z"
       id="path398"
       style="fill:#ff9900" />
    <path
       d="M900 1481 c0 -23 20 -49 54 -70 40 -25 120 -28 170 -7 75 31 51 50 -84 65 -52 6 -105 14 -117 17 -15 4 -23 2 -23 -5z"
       id="path400"
       style="fill:#ff9900" />
    <path
       d="M2118 1473 c-25 -6 -23 -15 10 -45 37 -35 62 -41 115 -27 46 11 69 29 80 62 6 15 -2 17 -91 16 -53 -1 -105 -3 -114 -6z"
       id="path402"
       style="fill:#ff9900" />
    <path
       d="M1257 1450 l-39 -5 29 -26 c39 -36 66 -49 105 -49 39 0 98 33 98 55 0 8 -1 15 -2 16 -22 6 -163 13 -191 9z"
       id="path404"
       style="fill:#ff9900" />
    <path
       d="M1858 1453 c-25 -6 -22 -20 10 -49 23 -22 34 -25 71 -21 48 5 87 36 78 61 -5 13 -21 16 -74 15 -37 -1 -76 -3 -85 -6z"
       id="path406"
       style="fill:#ff9900" />
    <path
       d="M1538 1443 c-27 -7 -22 -21 15 -43 55 -34 94 -41 138 -23 34 13 68 48 57 58 -6 5 -193 13 -210 8z"
       id="path408"
       style="fill:#ff9900" />
    <path
       d="M3215 1190 c-65 -66 -166 -88 -238 -51 l-37 19 -28 -32 c-38 -44 -72 -56 -155 -56 -69 0 -72 1 -109 37 l-39 38 -31 -34 c-65 -69 -158 -81 -241 -30 l-50 30 -31 -29 c-49 -47 -88 -62 -161 -62 -73 0 -106 13 -172 67 l-43 34 -32 -24 c-63 -47 -94 -57 -173 -57 -75 0 -77 1 -135 45 l-59 45 -36 -25 c-44 -29 -89 -39 -153 -33 -63 6 -120 34 -137 68 l-15 28 -67 -24 c-107 -37 -222 -27 -259 24 -7 9 -15 14 -19 10 -7 -7 19 -63 34 -72 23 -15 235 -48 391 -61 96 -9 256 -23 355 -32 250 -23 970 -24 1095 -1 47 8 173 29 280 47 421 68 595 107 607 137 9 25 -1 24 -52 -1 -28 -15 -66 -25 -90 -25 -47 0 -120 23 -145 45 -14 13 -20 10 -55 -25z"
       id="path410"
       style="fill:#ff6600" />
  </g>
</svg>
