<?xml version="1.0" encoding="UTF-8" standalone="no"?>
<svg
   xmlns:dc="http://purl.org/dc/elements/1.1/"
   xmlns:cc="http://creativecommons.org/ns#"
   xmlns:rdf="http://www.w3.org/1999/02/22-rdf-syntax-ns#"
   xmlns:svg="http://www.w3.org/2000/svg"
   xmlns="http://www.w3.org/2000/svg"
   xmlns:sodipodi="http://sodipodi.sourceforge.net/DTD/sodipodi-0.dtd"
   xmlns:inkscape="http://www.inkscape.org/namespaces/inkscape"
   version="1.0"
   width="850.000000pt"
   height="850.000000pt"
   viewBox="0 0 850.000000 850.000000"
   preserveAspectRatio="xMidYMid meet"
   id="svg2"
   inkscape:version="0.91 r13725"
   sodipodi:docname="Food_2018916_18.svg">
  <defs
     id="defs238" />
  <sodipodi:namedview
     pagecolor="#ffffff"
     bordercolor="#666666"
     borderopacity="1"
     objecttolerance="10"
     gridtolerance="10"
     guidetolerance="10"
     inkscape:pageopacity="0"
     inkscape:pageshadow="2"
     inkscape:window-width="1920"
     inkscape:window-height="980"
     id="namedview236"
     showgrid="false"
     inkscape:zoom="0.44423529"
     inkscape:cx="576.67613"
     inkscape:cy="345.8374"
     inkscape:window-x="0"
     inkscape:window-y="1"
     inkscape:window-maximized="1"
     inkscape:current-layer="svg2" />
  <metadata
     id="metadata4">
Created by potrace 1.14, written by Peter Selinger 2001-2017
<rdf:RDF>
  <cc:Work
     rdf:about="">
    <dc:format>image/svg+xml</dc:format>
    <dc:type
       rdf:resource="http://purl.org/dc/dcmitype/StillImage" />
  </cc:Work>
</rdf:RDF>
</metadata>
  <g
     transform="translate(0.000000,850.000000) scale(0.100000,-0.100000)"
     fill="#000000"
     stroke="none"
     id="g6">
    <path
       d="M0 4250 l0 -4250 4250 0 4250 0 0 4250 0 4250 -4250 0 -4250 0 0 -4250z m3913 3955 c95 -20 175 -66 258 -148 173 -173 272 -381 301 -630 9 -81 8 -146 -7 -350 -18 -259 -16 -361 11 -465 18 -73 76 -191 107 -220 l24 -22 49 39 c87 69 134 151 134 234 0 82 -39 135 -125 171 -25 11 23 26 65 20 101 -13 197 -50 283 -108 21 -14 39 -26 41 -26 2 0 -10 42 -27 93 -28 84 -31 104 -31 222 0 113 3 138 23 190 52 133 156 252 271 310 86 44 154 57 264 53 88 -3 110 -8 168 -35 93 -44 160 -109 206 -202 34 -69 37 -82 37 -160 -1 -74 -5 -94 -30 -146 -88 -183 -289 -249 -442 -144 -76 53 -123 166 -104 251 13 57 7 59 -20 7 -74 -147 1 -379 195 -602 90 -102 219 -209 455 -373 259 -181 345 -251 472 -380 178 -183 305 -370 435 -639 121 -251 206 -518 235 -740 18 -142 7 -388 -24 -506 -43 -163 -112 -295 -225 -425 l-59 -70 8 -49 c13 -79 10 -242 -6 -345 -37 -249 -138 -477 -314 -715 -129 -175 -434 -462 -657 -620 l-41 -29 38 -49 c65 -86 81 -204 44 -317 -75 -232 -263 -419 -462 -461 -56 -11 -190 -8 -225 6 -13 5 -28 -17 -76 -117 -65 -138 -140 -254 -198 -310 -44 -41 -120 -66 -289 -94 -122 -21 -386 -23 -500 -5 -78 12 -263 55 -270 63 -10 10 -174 281 -200 330 -23 44 -39 61 -70 75 -22 10 -95 50 -162 90 l-123 71 -97 -5 c-156 -8 -330 32 -571 133 -391 163 -610 422 -629 740 -3 52 -6 94 -7 94 -1 0 -32 -9 -69 -19 -90 -26 -253 -51 -352 -54 l-79 -2 -39 100 c-39 99 -39 100 -73 101 -92 2 -133 129 -89 280 38 132 104 237 282 450 119 142 176 220 216 300 23 46 25 59 20 121 -7 87 7 133 57 183 l38 38 -9 74 c-11 87 2 216 32 314 l21 66 -25 27 c-50 53 -60 87 -55 185 6 108 54 272 80 270 13 -1 16 24 21 161 15 380 93 788 223 1167 69 203 124 331 249 583 63 127 117 241 121 254 5 18 -11 6 -54 -41 -46 -48 -79 -73 -134 -99 -71 -33 -77 -34 -193 -34 -100 0 -129 4 -175 23 -118 47 -220 158 -257 280 -27 85 -23 230 6 305 55 140 191 260 353 313 108 35 267 43 378 20 193 -40 368 -171 448 -337 55 -111 72 -180 80 -324 l7 -120 19 35 c31 58 149 229 223 325 133 171 321 364 490 502 16 13 13 14 -31 9 -65 -8 -169 10 -233 39 -62 28 -143 101 -177 159 -35 60 -56 141 -56 217 0 296 290 511 603 444z"
       id="path8"
       style="fill:none" />
    <path
       d="M3686 8175 c-134 -34 -251 -126 -309 -244 -30 -61 -32 -73 -32 -171 0 -93 3 -112 27 -162 84 -181 312 -275 486 -202 121 50 174 190 118 309 -40 85 -97 125 -177 125 -80 0 -148 -53 -163 -126 -20 -93 97 -180 172 -128 25 17 29 56 7 74 -20 16 -65 -12 -65 -40 0 -11 -7 -20 -15 -20 -24 0 -18 48 10 75 34 35 67 32 104 -10 24 -27 31 -45 31 -76 0 -115 -123 -173 -245 -115 -166 78 -215 275 -108 429 60 86 189 139 289 118 287 -57 370 -378 173 -669 -18 -26 -114 -130 -214 -232 -99 -102 -203 -213 -229 -248 -74 -97 -152 -236 -195 -347 -39 -98 -86 -263 -78 -271 2 -3 46 6 97 18 l93 23 37 93 c51 127 139 268 303 489 253 339 335 483 383 670 49 191 29 392 -49 495 -97 126 -282 185 -451 143z"
       id="path10"
       style="fill:#cc99ff" />
    <path
       d="M3655 7966 c-185 -86 -221 -311 -71 -443 64 -57 135 -74 201 -49 47 18 75 54 75 96 0 21 -1 21 -30 -3 -38 -33 -64 -40 -106 -33 -78 15 -135 107 -115 184 39 143 218 188 333 84 86 -78 113 -204 64 -308 -20 -42 -44 -67 -147 -149 -245 -196 -482 -455 -653 -715 -121 -182 -143 -226 -150 -295 -4 -34 -15 -97 -25 -140 -11 -44 -18 -81 -16 -83 1 -2 25 11 52 27 28 17 79 44 115 60 64 29 65 31 71 74 9 68 64 231 112 333 84 181 181 307 400 524 184 181 236 253 280 383 49 147 32 283 -48 373 -86 98 -231 132 -342 80z"
       id="path12"
       style="fill:#ccccff" />
    <path
       d="M4267 7825 c5 -22 8 -103 7 -180 0 -118 -4 -155 -26 -235 -36 -130 -98 -271 -227 -517 -118 -223 -178 -361 -210 -487 -29 -109 -28 -136 3 -136 38 0 183 -49 258 -86 37 -19 69 -34 71 -34 2 0 -3 39 -11 88 -9 59 -12 142 -8 262 5 209 21 290 105 552 85 265 96 319 95 473 0 98 -6 152 -22 218 -23 95 -49 154 -35 82z"
       id="path14"
       style="fill:#9999ff" />
    <path
       d="M4305 7810 c25 -71 45 -199 45 -290 0 -125 -21 -228 -90 -445 -98 -310 -113 -388 -114 -600 -1 -110 4 -212 13 -263 13 -81 14 -83 58 -113 24 -17 46 -29 47 -27 76 106 174 197 274 254 17 10 32 22 32 26 0 4 -18 33 -40 64 -93 133 -116 306 -91 681 20 308 -2 466 -94 661 -46 96 -64 120 -40 52z"
       id="path16"
       style="fill:#cc66ff" />
    <path
       d="M4237 7688 c-12 -236 -101 -423 -373 -788 -187 -250 -233 -321 -299 -455 -82 -169 -86 -155 44 -157 61 -1 121 -2 133 -2 19 -1 23 7 34 64 23 123 78 266 188 480 166 324 192 378 230 488 45 131 66 242 66 356 0 130 -16 140 -23 14z"
       id="path18"
       style="fill:#ffccff" />
    <path
       d="M5369 7517 c-107 -39 -201 -115 -270 -218 -98 -147 -104 -348 -17 -569 25 -64 37 -81 81 -115 68 -52 238 -165 249 -165 4 0 -17 30 -47 68 -228 281 -257 589 -76 794 52 58 146 107 223 115 123 13 256 -58 304 -161 45 -96 20 -221 -57 -291 -49 -44 -76 -55 -136 -55 -104 0 -171 77 -132 153 39 76 139 74 139 -2 0 -32 -24 -59 -35 -41 -4 6 -1 18 6 26 10 12 9 18 -4 31 -33 34 -70 -10 -43 -52 24 -37 78 -35 117 4 24 24 29 38 29 78 0 66 -26 106 -84 128 -64 24 -112 15 -153 -29 -57 -62 -67 -143 -27 -224 62 -125 214 -167 345 -96 100 55 153 152 154 279 0 71 -4 88 -32 146 -40 81 -102 140 -191 182 -60 28 -79 32 -172 35 -90 2 -114 -1 -171 -21z"
       id="path20"
       style="fill:#6666cc" />
    <path
       d="M5470 7394 c-71 -19 -156 -78 -196 -137 -55 -79 -76 -150 -78 -252 -1 -110 14 -175 64 -280 72 -150 177 -275 306 -360 97 -65 143 -115 189 -206 40 -78 112 -146 405 -377 399 -316 566 -532 680 -881 77 -235 105 -439 97 -715 -5 -205 -23 -303 -81 -445 -81 -200 -249 -374 -427 -443 -55 -21 -59 -25 -54 -48 4 -14 8 -27 10 -29 7 -6 137 26 197 49 31 11 91 43 132 70 189 123 330 327 393 568 34 132 43 366 19 529 -53 357 -243 803 -479 1119 -155 208 -310 350 -621 567 -403 282 -548 425 -653 644 -98 205 -74 390 63 486 59 41 142 47 203 15 60 -31 83 -66 89 -131 7 -91 -47 -157 -129 -157 -39 0 -79 33 -79 65 0 13 -3 16 -11 8 -15 -15 -1 -57 27 -83 58 -55 175 -29 233 50 140 193 -57 440 -299 374z"
       id="path22"
       style="fill:#6699ff" />
    <path
       d="M2200 7217 c-334 -100 -477 -386 -334 -668 33 -67 109 -138 184 -173 61 -29 72 -31 185 -31 109 0 125 3 177 27 58 27 151 105 170 143 8 14 1 12 -23 -11 -94 -85 -218 -114 -337 -79 -68 21 -152 97 -189 173 -23 49 -27 70 -28 147 0 85 2 94 36 155 63 115 174 178 329 187 237 15 443 -121 511 -337 16 -50 21 -91 21 -180 0 -137 -25 -244 -122 -520 -101 -287 -158 -538 -192 -835 -18 -162 -15 -569 6 -745 14 -120 71 -438 79 -447 2 -1 29 11 61 27 40 21 74 30 105 30 46 0 47 0 73 53 14 28 55 93 90 142 36 50 79 113 96 141 l32 51 -63 95 c-77 116 -138 239 -177 357 -55 163 -64 221 -64 411 0 201 16 291 104 605 78 279 101 398 107 570 7 185 -8 272 -69 395 -77 157 -238 282 -418 325 -99 23 -258 19 -350 -8z"
       id="path24"
       style="fill:#99ff99" />
    <path
       d="M2295 7056 c-82 -21 -122 -42 -174 -91 -90 -84 -119 -194 -82 -316 19 -61 31 -81 80 -130 69 -69 139 -95 229 -86 137 14 282 139 282 242 0 81 -58 173 -127 202 -48 19 -122 16 -161 -7 -52 -32 -74 -76 -69 -139 3 -47 9 -59 40 -88 26 -24 46 -33 70 -33 39 0 95 34 116 71 36 64 -39 149 -88 100 -29 -29 -26 -48 10 -67 38 -19 26 -40 -14 -25 -50 19 -61 74 -23 110 45 43 116 24 157 -42 15 -25 19 -45 17 -88 -5 -68 -35 -114 -92 -140 -47 -21 -84 -23 -141 -8 -53 14 -136 99 -153 155 -51 171 67 334 241 334 19 0 64 -9 100 -20 178 -55 281 -259 249 -491 -16 -108 -56 -226 -143 -410 -87 -186 -126 -287 -173 -443 -129 -425 -160 -945 -85 -1461 19 -133 76 -425 85 -434 7 -8 39 26 124 133 l87 109 -18 76 c-60 258 -84 481 -84 791 0 468 50 745 230 1280 36 106 72 226 80 266 19 91 19 242 1 311 -41 154 -149 271 -302 323 -75 26 -202 34 -269 16z"
       id="path26"
       style="fill:#99ffcc" />
    <path
       d="M2360 6981 c-103 -21 -180 -114 -180 -218 0 -88 62 -185 135 -213 43 -16 118 -14 155 5 38 19 70 70 70 109 l0 29 -22 -33 c-33 -48 -70 -72 -119 -77 -136 -14 -214 170 -116 275 82 88 222 81 309 -16 46 -50 68 -122 68 -217 0 -110 -22 -172 -155 -440 -125 -253 -204 -445 -269 -655 -108 -353 -171 -718 -183 -1063 l-6 -177 30 -38 c57 -70 77 -121 77 -192 0 -71 -14 -106 -65 -165 -22 -24 -27 -36 -17 -39 7 -2 33 -9 58 -16 65 -17 148 -64 207 -115 l50 -44 22 22 c18 20 19 28 11 58 -22 74 -71 339 -91 483 -26 194 -36 597 -20 786 23 264 79 533 159 755 21 61 80 200 130 310 49 110 99 232 111 270 66 220 34 425 -85 537 -61 57 -186 95 -264 79z"
       id="path28"
       style="fill:#99ffff" />
    <path
       d="M4811 6754 c98 -110 131 -244 93 -375 -22 -74 -51 -123 -149 -244 -108 -133 -141 -185 -165 -264 -19 -61 -28 -187 -12 -179 4 2 44 22 90 45 45 23 101 44 123 48 l41 7 -5 42 c-9 63 15 160 76 302 69 161 78 194 78 296 0 153 -67 279 -181 343 -8 4 -3 -5 11 -21z"
       id="path30"
       style="fill:#ffff33" />
    <path
       d="M4885 6758 c87 -67 147 -135 183 -207 35 -71 37 -81 41 -187 2 -65 -3 -162 -13 -236 -19 -143 -20 -247 -6 -315 9 -41 17 -52 46 -68 19 -10 50 -36 69 -57 l35 -38 57 15 c31 8 70 15 86 15 16 0 27 3 25 8 -65 127 -78 173 -113 402 -31 200 -47 260 -96 367 -65 143 -153 232 -300 302 l-44 21 30 -22z"
       id="path32"
       style="fill:#ffff00" />
    <path
       d="M4818 6651 c7 -122 -64 -216 -263 -351 -195 -131 -273 -224 -331 -395 -24 -68 -28 -97 -28 -190 -1 -98 2 -116 25 -165 25 -54 83 -130 99 -130 4 0 30 31 58 69 28 37 79 93 112 124 57 53 61 59 54 91 -10 54 15 171 51 244 19 37 74 117 123 177 49 61 101 129 115 152 36 56 67 153 67 207 0 57 -33 163 -62 199 l-23 28 3 -60z"
       id="path34"
       style="fill:#ccff66" />
    <path
       d="M4961 6635 c43 -85 56 -174 41 -276 -11 -75 -29 -127 -113 -319 -25 -58 -33 -93 -37 -156 l-4 -81 88 -6 c49 -4 101 -9 116 -13 27 -6 27 -6 18 27 -15 51 -12 200 6 334 9 72 14 160 11 220 -5 130 -30 196 -103 273 l-54 57 31 -60z"
       id="path36"
       style="fill:#ffcc33" />
    <path
       d="M5206 6497 c55 -106 78 -192 110 -407 28 -187 56 -293 97 -363 26 -44 27 -44 96 -51 116 -12 125 0 124 169 0 126 -18 213 -68 321 -66 144 -140 230 -275 322 -41 28 -87 60 -101 71 -24 19 -22 14 17 -62z"
       id="path38"
       style="fill:#ffff33" />
    <path
       d="M5462 6373 c69 -76 142 -218 174 -338 13 -51 18 -106 18 -202 0 -115 2 -133 16 -133 22 0 63 46 90 100 33 65 31 180 -4 280 -45 130 -126 225 -244 288 -73 39 -83 40 -50 5z"
       id="path40"
       style="fill:#ccff66" />
    <path
       d="M3475 6254 c-11 -2 -45 -9 -75 -15 l-55 -11 40 -17 c101 -41 160 -96 201 -186 l24 -52 58 -7 c190 -22 385 -145 459 -291 30 -59 73 -181 73 -207 0 -10 4 -18 9 -18 19 0 17 26 -5 75 -39 86 -50 175 -32 280 8 50 27 119 42 155 15 36 28 69 29 75 3 15 -148 111 -230 145 -133 56 -214 72 -373 76 -80 1 -154 1 -165 -2z"
       id="path42"
       style="fill:#990000" />
    <path
       d="M3219 6185 c-68 -29 -170 -88 -203 -118 -19 -17 -36 -61 -71 -187 -79 -285 -89 -344 -89 -535 -1 -93 3 -187 7 -208 l8 -38 38 34 c22 19 48 38 59 41 19 6 19 8 -6 69 -23 54 -26 77 -26 172 0 131 18 192 91 298 103 153 301 257 485 257 80 0 82 3 36 80 -41 67 -113 123 -188 144 -70 20 -72 20 -141 -9z"
       id="path44"
       style="fill:#ffffcc" />
    <path
       d="M5808 5967 c4 -80 5 -83 41 -111 80 -65 298 -287 374 -381 307 -380 497 -843 523 -1274 20 -336 -108 -620 -342 -757 -47 -28 -71 -76 -60 -120 9 -33 27 -31 126 18 70 35 102 59 180 137 109 110 162 196 209 336 50 151 64 262 58 480 -8 267 -50 487 -133 698 -116 294 -261 470 -629 763 -110 87 -234 189 -276 225 l-76 67 5 -81z"
       id="path46"
       style="fill:#6666cc" />
    <path
       d="M3465 5940 c-102 -15 -197 -52 -280 -110 l-30 -21 51 7 c99 12 201 -35 260 -122 27 -40 30 -41 64 -31 115 31 288 -58 348 -180 18 -37 20 -38 73 -22 71 22 133 91 153 170 8 35 -61 130 -130 181 -139 101 -341 152 -509 128z"
       id="path48"
       style="fill:#ff3300" />
    <path
       d="M5810 5844 c0 -3 20 -29 45 -56 72 -80 92 -180 57 -283 l-17 -50 30 -52 c24 -40 37 -53 62 -57 17 -4 64 -23 105 -43 94 -47 219 -169 273 -266 40 -73 75 -172 75 -214 0 -13 14 -44 31 -69 84 -122 113 -257 87 -393 -18 -87 -62 -193 -105 -250 -19 -25 -23 -36 -14 -39 32 -11 140 -103 186 -159 27 -34 53 -62 57 -62 10 -2 36 127 43 219 4 47 2 131 -5 190 -47 437 -237 869 -538 1230 -118 142 -372 383 -372 354z"
       id="path50"
       style="fill:#6699ff" />
    <path
       d="M3192 5789 c-64 -12 -102 -38 -144 -99 -75 -106 -106 -254 -78 -371 28 -118 111 -233 208 -287 l41 -23 -26 57 c-47 103 -20 221 70 300 32 29 46 49 51 79 14 71 70 151 127 181 16 8 29 18 29 23 0 5 -20 31 -45 59 -63 70 -144 98 -233 81z"
       id="path52"
       style="fill:#ccffcc" />
    <path
       d="M5785 5781 c-9 -29 -90 -99 -122 -106 -15 -4 -34 -9 -42 -11 -7 -2 22 -22 65 -44 44 -21 102 -60 131 -85 28 -25 54 -45 57 -45 9 0 26 73 26 110 0 55 -18 106 -53 151 -38 50 -53 57 -62 30z"
       id="path54"
       style="fill:#ccccff" />
    <path
       d="M4789 5756 c-118 -34 -231 -106 -286 -182 -44 -61 -114 -200 -141 -279 -31 -93 -52 -206 -59 -328 l-6 -110 24 7 c13 4 52 14 86 23 l61 15 1 108 c0 358 226 689 482 708 138 10 229 -60 229 -175 -1 -88 -60 -176 -127 -189 -102 -19 -171 110 -90 170 22 16 32 18 54 10 32 -11 40 -50 11 -48 -22 2 -24 -22 -2 -30 9 -3 25 5 41 20 22 22 25 32 20 70 -14 132 -162 124 -231 -13 -58 -115 68 -259 210 -239 91 12 157 66 184 150 33 102 -40 227 -170 292 -47 24 -69 28 -150 31 -57 1 -113 -3 -141 -11z"
       id="path56"
       style="fill:#ff9999" />
    <path
       d="M4899 5686 c-170 -46 -321 -228 -385 -466 -11 -43 -17 -106 -18 -188 l-1 -123 83 -2 83 -2 -7 40 c-12 68 -7 197 10 270 34 146 168 374 255 432 89 60 201 -3 201 -112 0 -61 -45 -115 -96 -115 -20 0 -67 48 -59 60 3 6 2 10 -3 10 -32 0 -12 -90 23 -104 85 -32 175 47 175 154 0 124 -111 187 -261 146z"
       id="path58"
       style="fill:#ff6600" />
    <path
       d="M5302 5639 c-39 -9 -43 -13 -37 -32 4 -12 9 -47 12 -77 4 -38 12 -63 28 -80 48 -52 98 -147 129 -242 4 -15 18 -9 90 36 97 61 217 103 324 114 l72 7 -53 70 c-61 80 -155 149 -250 184 -71 27 -241 37 -315 20z"
       id="path60"
       style="fill:#ccccff" />
    <path
       d="M3506 5628 c-54 -15 -141 -100 -155 -153 -19 -70 -8 -138 31 -186 l20 -24 -7 28 c-3 18 2 44 14 73 16 36 29 49 67 65 92 41 183 -6 204 -106 l6 -30 29 50 c42 70 42 159 3 226 -23 39 -34 48 -72 58 -53 13 -87 13 -140 -1z"
       id="path62"
       style="fill:#ccffcc" />
    <path
       d="M4105 5570 c-26 -58 -95 -116 -156 -131 -39 -10 -48 -16 -43 -28 4 -9 9 -44 12 -77 10 -134 -63 -270 -177 -328 -19 -10 -30 -26 -35 -46 -7 -35 7 -108 29 -150 21 -41 93 -99 139 -111 48 -13 78 -1 150 64 41 37 48 49 57 100 14 78 52 193 95 285 l34 75 -11 86 c-13 104 -44 243 -62 277 l-13 25 -19 -41z"
       id="path64"
       style="fill:#ffcccc" />
    <path
       d="M3744 5574 c35 -84 32 -170 -7 -237 -37 -62 -117 -134 -165 -146 -100 -27 -227 51 -249 152 -7 34 -13 34 -53 1 -77 -65 -100 -195 -50 -283 36 -63 63 -79 157 -93 214 -31 413 59 486 220 26 57 30 187 8 242 -22 54 -68 116 -103 141 -29 21 -31 21 -24 3z"
       id="path66"
       style="fill:#ff0000" />
    <path
       d="M4408 5483 c-67 -76 -208 -337 -256 -473 -31 -89 -69 -280 -56 -280 2 0 26 17 52 38 26 20 67 46 90 56 l42 19 0 86 c1 169 37 334 105 479 24 50 42 92 41 92 -2 0 -10 -8 -18 -17z"
       id="path68"
       style="fill:#9966ff" />
    <path
       d="M4778 5420 c-20 -36 -47 -97 -61 -136 -28 -79 -52 -223 -39 -236 10 -10 257 7 391 27 160 24 301 57 324 76 l22 17 -24 71 c-23 67 -94 191 -110 191 -4 0 -17 -20 -29 -45 -69 -141 -282 -164 -390 -41 -27 31 -35 52 -46 126 -1 8 -18 -14 -38 -50z"
       id="path70"
       style="fill:#ff0000" />
    <path
       d="M4228 5433 c-13 -16 -14 -28 -4 -92 l11 -74 36 61 36 61 -32 31 c-30 29 -32 30 -47 13z"
       id="path72"
       style="fill:#990000" />
    <path
       d="M3490 5407 c-39 -20 -73 -77 -66 -112 18 -89 147 -113 206 -38 64 82 -44 199 -140 150z"
       id="path74"
       style="fill:#ffffcc" />
    <path
       d="M5765 5316 c-108 -25 -237 -93 -327 -172 -32 -28 -36 -37 -46 -115 -6 -46 -15 -95 -18 -107 l-7 -24 49 25 c129 64 263 92 439 90 115 0 157 -5 236 -26 104 -27 197 -70 273 -125 l48 -35 -6 34 c-4 19 -28 77 -53 129 -62 128 -161 228 -284 289 -74 37 -96 43 -165 47 -46 2 -104 -2 -139 -10z"
       id="path76"
       style="fill:#cc99ff" />
    <path
       d="M2964 5145 c-46 -20 -78 -61 -77 -98 3 -90 136 -392 183 -414 14 -6 42 -15 62 -18 l38 -7 -6 33 c-3 19 -15 51 -25 72 -28 56 -26 61 32 54 77 -9 171 -58 240 -124 l61 -58 78 2 c43 0 104 7 137 13 64 13 193 61 193 71 0 4 -13 9 -28 12 -38 8 -118 81 -144 130 -13 26 -21 62 -22 99 0 32 -5 58 -11 58 -5 0 -32 -7 -59 -15 -63 -19 -243 -20 -314 -1 -101 27 -181 73 -246 140 -61 62 -63 64 -92 51z"
       id="path78"
       style="fill:#ff3333" />
    <path
       d="M5297 5088 c-21 -6 -36 -15 -34 -22 2 -6 14 -51 27 -99 13 -48 28 -86 34 -84 12 4 32 78 41 157 8 67 7 68 -68 48z"
       id="path80"
       style="fill:#990000" />
    <path
       d="M5138 5057 c-32 -6 -58 -13 -58 -17 0 -14 80 -278 112 -370 18 -52 38 -95 43 -95 12 0 22 64 26 173 2 62 7 86 20 98 16 14 16 19 -1 77 -10 34 -24 81 -30 105 -12 47 -12 47 -112 29z"
       id="path82"
       style="fill:#990000" />
    <path
       d="M4945 5031 c-44 -5 -50 -9 -48 -28 5 -42 88 -237 120 -283 87 -121 129 -221 140 -334 5 -52 8 -57 19 -41 7 10 23 46 34 81 l21 63 -59 173 c-32 95 -72 219 -87 276 l-28 102 -31 -2 c-17 0 -53 -4 -81 -7z"
       id="path84"
       style="fill:#990000" />
    <path
       d="M4730 5016 c0 -2 15 -37 34 -79 25 -53 41 -77 58 -83 13 -4 47 -22 76 -40 29 -19 55 -34 57 -34 3 0 -3 17 -13 38 -11 20 -32 74 -48 119 l-29 83 -67 0 c-38 0 -68 -2 -68 -4z"
       id="path86"
       style="fill:#990000" />
    <path
       d="M4681 4978 c2 -59 13 -81 44 -90 16 -4 31 -6 33 -3 2 2 -8 31 -23 64 -31 68 -56 81 -54 29z"
       id="path88"
       style="fill:#990000" />
    <path
       d="M5706 4980 c-105 -17 -209 -50 -303 -96 -50 -25 -96 -51 -101 -57 -5 -7 -12 -63 -15 -126 -5 -89 -4 -111 6 -103 6 5 46 22 87 38 69 26 86 28 220 28 135 0 150 -1 220 -28 242 -91 411 -312 428 -558 7 -103 18 -112 78 -63 221 181 276 488 128 711 -98 148 -324 249 -579 259 -60 2 -137 0 -169 -5z"
       id="path90"
       style="fill:#cc99ff" />
    <path
       d="M4465 4870 c-195 -29 -365 -142 -438 -289 -30 -61 -32 -73 -32 -166 0 -92 2 -104 30 -154 70 -127 221 -198 400 -189 98 5 178 39 225 96 35 43 40 65 7 34 -59 -55 -202 -72 -289 -34 -56 25 -116 83 -143 137 -11 24 -21 69 -23 112 -3 60 0 80 20 125 34 72 71 114 132 146 46 24 62 27 151 27 91 0 106 -3 166 -31 209 -99 284 -302 214 -579 -45 -179 -147 -362 -358 -643 -165 -220 -152 -193 -131 -255 42 -124 11 -269 -76 -357 -47 -46 -133 -90 -179 -90 -22 0 -42 -22 -71 -79 -25 -50 -27 -46 62 -106 l63 -44 22 49 c67 152 223 305 372 365 30 13 59 29 62 37 4 7 24 67 45 133 28 88 79 203 194 430 204 408 240 516 240 733 0 194 -51 334 -163 444 -122 120 -312 177 -502 148z"
       id="path92"
       style="fill:#cc99ff" />
    <path
       d="M4013 4716 c-112 -88 -267 -145 -420 -153 -57 -3 -103 -10 -103 -15 0 -17 64 -47 114 -53 88 -11 126 -27 177 -73 33 -30 54 -59 66 -93 15 -42 21 -49 45 -49 15 0 39 5 53 10 23 9 26 14 20 37 -23 92 3 218 64 314 26 41 46 110 32 108 -3 0 -25 -15 -48 -33z"
       id="path94"
       style="fill:#ffcc66" />
    <path
       d="M3235 4680 c44 -66 60 -142 45 -215 -11 -53 -22 -72 -152 -261 -54 -78 -74 -142 -64 -197 12 -62 40 -67 122 -23 103 55 119 68 105 94 -29 54 -4 128 82 244 61 81 81 118 91 164 13 61 -109 192 -215 229 -23 8 -43 15 -45 15 -1 0 12 -22 31 -50z"
       id="path96"
       style="fill:#ffcc33" />
    <path
       d="M3182 4679 c6 -17 8 -60 5 -95 -6 -84 -52 -178 -150 -312 -87 -118 -118 -177 -124 -236 -7 -57 20 -113 63 -133 30 -15 34 -14 68 6 l35 22 -19 32 c-25 41 -26 119 -1 172 10 22 55 91 99 153 45 62 86 129 93 149 16 50 14 132 -5 177 -31 75 -88 132 -64 65z"
       id="path98"
       style="fill:#ffcccc" />
    <path
       d="M4420 4691 c-71 -23 -141 -83 -175 -150 -23 -46 -31 -139 -15 -187 56 -172 258 -238 413 -136 81 54 98 139 44 221 -79 120 -277 81 -277 -55 0 -69 48 -104 95 -71 14 11 17 21 12 46 -6 27 -4 32 11 29 13 -2 17 -13 17 -42 0 -81 -102 -104 -145 -33 -84 136 99 288 244 203 68 -40 101 -102 101 -191 0 -68 -3 -76 -87 -245 -114 -230 -233 -413 -377 -579 l-54 -63 44 -42 c24 -22 56 -57 70 -76 15 -19 29 -33 31 -30 37 45 270 368 312 432 73 112 149 271 178 373 17 62 23 106 23 195 0 109 -2 119 -32 182 -63 134 -188 219 -332 224 -42 2 -87 0 -101 -5z"
       id="path100"
       style="fill:#cc99ff" />
    <path
       d="M5431 4620 c-35 -10 -85 -28 -110 -40 -46 -21 -47 -23 -59 -87 -7 -37 -30 -100 -51 -142 -22 -42 -41 -89 -44 -104 l-4 -28 51 6 c72 9 184 -17 263 -60 l65 -36 62 22 c86 30 275 38 365 14 71 -18 143 -52 209 -97 24 -17 45 -28 46 -26 2 1 -3 35 -9 73 -45 251 -224 450 -460 510 -82 21 -242 19 -324 -5z"
       id="path102"
       style="fill:#ccff66" />
    <path
       d="M3082 4592 c9 -21 54 -82 60 -82 7 0 22 60 16 64 -10 7 -79 23 -76 18z"
       id="path104"
       style="fill:none" />
    <path
       d="M3480 4475 c0 -35 -32 -95 -90 -169 -80 -103 -107 -174 -80 -216 7 -12 25 1 88 63 113 109 162 130 315 135 64 2 117 6 117 9 0 13 -36 72 -59 96 -37 41 -72 56 -161 72 -44 8 -88 19 -99 24 -28 15 -31 14 -31 -14z"
       id="path106"
       style="fill:#ffcccc" />
    <path
       d="M1974 4198 c-46 -142 -37 -256 25 -312 21 -19 22 -19 51 9 40 39 80 121 80 164 -1 20 -7 53 -14 74 -14 39 -92 147 -107 147 -4 0 -20 -37 -35 -82z"
       id="path108"
       style="fill:#66ff99" />
    <path
       d="M3657 4260 c-92 -11 -160 -47 -232 -121 -33 -34 -53 -59 -45 -56 8 3 62 24 120 48 179 73 294 63 356 -30 22 -34 28 -57 33 -129 l6 -87 42 75 c66 118 69 186 9 246 -49 49 -158 69 -289 54z"
       id="path110"
       style="fill:#ffff99" />
    <path
       d="M3952 4263 c-13 -5 -6 -14 71 -93 40 -41 108 -93 114 -86 3 3 -24 33 -60 66 -36 33 -70 74 -77 90 -12 29 -22 34 -48 23z"
       id="path112"
       style="fill:#0033ff" />
    <path
       d="M5183 4194 c-16 -4 -23 -13 -23 -28 0 -40 -47 -212 -83 -301 l-34 -84 86 -130 c63 -96 88 -125 92 -113 4 10 16 69 28 132 42 221 92 321 200 400 l60 44 -32 19 c-74 46 -223 76 -294 61z"
       id="path114"
       style="fill:#ccff66" />
    <path
       d="M3575 4135 c-38 -13 -104 -39 -145 -59 l-75 -35 40 0 c184 -4 349 -74 415 -177 27 -43 29 -44 40 -25 17 33 24 141 11 188 -6 23 -24 56 -38 74 -54 64 -132 74 -248 34z"
       id="path116"
       style="fill:#ffcc33" />
    <path
       d="M5740 4150 c-130 -17 -234 -65 -317 -143 -78 -73 -106 -140 -147 -348 l-35 -174 52 -79 c29 -43 55 -84 59 -90 5 -8 12 -6 23 5 14 14 22 47 42 188 6 47 61 101 101 101 62 0 111 -74 97 -148 -3 -20 -25 -77 -47 -127 -33 -71 -42 -102 -42 -148 -1 -54 2 -61 32 -88 59 -53 139 -33 184 45 20 36 24 58 28 184 l5 144 33 29 c22 20 43 29 66 29 64 0 81 -51 50 -156 -14 -50 -14 -57 0 -79 31 -47 74 -21 118 72 45 94 90 113 163 68 74 -46 110 -30 146 64 24 64 26 195 3 272 -52 178 -200 319 -381 363 -78 19 -166 25 -233 16z"
       id="path118"
       style="fill:#cccc00" />
    <path
       d="M4016 4079 c-24 -149 -201 -357 -380 -444 -116 -57 -186 -76 -312 -82 -114 -6 -225 13 -282 47 -18 11 -35 20 -37 20 -3 0 -5 -25 -5 -56 0 -72 21 -116 78 -162 133 -108 155 -141 154 -226 0 -28 -10 -88 -22 -134 -26 -101 -21 -153 20 -194 40 -40 82 -38 125 5 47 47 52 89 25 179 -32 103 -31 155 4 185 43 37 78 27 111 -32 9 -15 16 -9 48 43 104 168 260 263 439 266 49 0 88 1 88 2 0 0 -7 16 -17 34 -21 43 -20 149 2 250 29 135 15 340 -24 340 -5 0 -11 -19 -15 -41z"
       id="path120"
       style="fill:#ffcc66" />
    <path
       d="M4601 4093 c-36 -25 -120 -53 -157 -53 l-23 0 29 -84 c43 -129 40 -128 92 -34 58 104 100 189 96 192 -2 2 -18 -8 -37 -21z"
       id="path122"
       style="fill:#0033cc" />
    <path
       d="M4182 4008 c36 -156 121 -408 137 -408 7 0 110 137 145 192 15 23 16 30 3 55 -8 15 -26 64 -41 109 l-27 81 -63 6 c-35 3 -87 15 -117 26 -30 12 -55 21 -55 21 -1 0 7 -37 18 -82z"
       id="path124"
       style="fill:#0033cc" />
    <path
       d="M4098 3967 c3 -73 -1 -128 -14 -188 -37 -180 -19 -264 66 -306 l45 -23 52 57 52 57 -16 35 c-30 70 -91 247 -113 333 -16 61 -30 94 -49 112 l-26 25 3 -102z"
       id="path126"
       style="fill:#0033ff" />
    <path
       d="M2820 4051 c-19 -4 -50 -15 -68 -25 -35 -18 -112 -92 -112 -107 0 -5 17 -9 38 -9 49 0 143 -25 211 -56 51 -23 54 -23 67 -7 12 16 10 21 -15 43 -39 34 -61 81 -61 130 0 43 0 43 -60 31z"
       id="path128"
       style="fill:#996600" />
    <path
       d="M6364 4011 l-51 -47 56 -30 c68 -35 177 -142 211 -206 14 -27 28 -48 31 -48 8 0 59 113 59 130 0 22 -92 131 -149 176 -99 79 -98 79 -157 25z"
       id="path130"
       style="fill:#669900" />
    <path
       d="M3293 4013 c-21 -8 -14 -19 14 -21 36 -3 120 -42 190 -90 112 -76 161 -96 235 -97 36 0 70 3 74 7 12 13 -43 85 -91 118 -25 17 -70 40 -101 50 -86 30 -281 50 -321 33z"
       id="path132"
       style="fill:#ffff99" />
    <path
       d="M3245 3970 c-16 -4 -67 -25 -113 -47 l-83 -40 54 -11 c30 -6 99 -31 153 -55 54 -24 124 -53 154 -63 72 -24 203 -24 285 1 l60 18 -55 12 c-62 13 -118 40 -203 97 -106 72 -193 102 -252 88z"
       id="path134"
       style="fill:#ffcc33" />
    <path
       d="M6345 3873 c19 -36 39 -88 45 -115 16 -76 12 -196 -9 -255 -10 -29 -16 -53 -13 -53 33 0 222 173 222 203 0 27 -65 122 -119 175 -32 31 -81 69 -108 85 l-51 27 33 -67z"
       id="path136"
       style="fill:#66cc66" />
    <path
       d="M2595 3863 c-10 -15 -59 -69 -108 -120 -70 -73 -86 -94 -73 -99 9 -3 22 -2 29 4 60 47 183 -1 229 -91 63 -123 -7 -268 -143 -298 -110 -25 -228 68 -229 180 0 52 31 122 66 150 24 19 32 41 15 41 -16 0 -134 -136 -170 -194 l-33 -56 35 -39 c86 -95 71 -218 -35 -304 -65 -53 -167 -50 -241 7 l-43 33 -30 -55 c-37 -70 -115 -176 -233 -317 -191 -228 -260 -357 -268 -505 -5 -77 -3 -88 19 -120 42 -62 100 -46 111 31 7 52 22 69 61 69 50 0 75 -34 87 -116 5 -38 18 -80 28 -94 25 -34 73 -38 102 -9 22 22 23 42 3 171 -8 48 1 83 26 108 27 27 67 25 112 -6 44 -31 61 -27 84 18 40 80 93 105 184 88 l53 -10 42 39 c24 22 62 52 86 66 24 15 64 49 89 75 61 65 114 81 179 56 25 -11 71 -21 101 -23 67 -5 98 14 135 87 36 72 98 96 170 66 40 -17 60 -45 80 -113 8 -28 22 -56 30 -63 17 -14 72 -7 101 14 18 14 18 15 0 66 -22 61 -23 119 -2 162 9 17 15 32 14 33 -86 47 -106 104 -81 227 l15 78 -48 57 c-27 32 -68 77 -91 100 -23 24 -44 56 -47 71 -3 15 -12 67 -22 115 -9 50 -14 113 -12 144 4 48 1 62 -19 91 -15 23 -23 49 -23 78 0 42 -2 45 -48 68 -58 30 -138 52 -213 61 -53 6 -57 5 -74 -22z m254 -172 c7 -5 11 -13 8 -18 -3 -5 1 -36 10 -69 10 -41 14 -87 11 -154 -5 -103 -24 -168 -69 -243 -16 -26 -29 -49 -29 -51 0 -2 15 -13 34 -24 124 -73 117 -260 -13 -329 -192 -101 -404 134 -280 309 29 40 102 72 152 65 23 -2 48 -6 56 -8 22 -6 78 83 101 159 39 125 20 322 -32 335 -18 5 -19 8 -8 21 14 18 38 20 59 7z m-716 -753 c35 -41 16 -91 -45 -118 l-39 -17 36 -23 c57 -35 69 -61 61 -132 -11 -111 -74 -212 -163 -265 l-44 -26 -45 44 c-67 66 -97 136 -101 239 -5 101 6 127 62 155 l40 20 -18 36 c-14 29 -15 42 -7 64 9 23 15 27 40 23 18 -3 35 1 41 9 13 15 55 18 64 4 3 -6 17 -4 33 5 32 16 60 10 85 -18z"
       id="path138"
       style="fill:#ff9933" />
    <path
       d="M2589 3129 c-89 -52 -101 -171 -26 -256 126 -143 369 -21 302 152 -27 71 -100 118 -131 84 -17 -19 -44 -26 -44 -11 0 4 6 14 12 20 10 10 10 15 -2 22 -25 16 -73 11 -111 -11z"
       id="path140"
       style="fill:#ff0033" />
    <path
       d="M2038 2910 c-35 -36 -50 -38 -46 -7 2 14 -2 22 -12 22 -9 0 -16 -11 -18 -27 -4 -34 -16 -35 -36 -6 -25 35 -39 10 -18 -32 14 -29 24 -36 52 -38 98 -10 206 73 141 108 -27 14 -29 14 -63 -20z"
       id="path142"
       style="fill:#336600" />
    <path
       d="M1885 2775 c-60 -22 -67 -37 -63 -131 5 -92 35 -169 87 -218 36 -34 54 -30 110 24 61 59 93 130 95 209 l1 65 -48 29 c-56 36 -124 44 -182 22z m100 -85 c0 -7 -6 -15 -12 -17 -8 -3 -13 4 -13 17 0 13 5 20 13 18 6 -3 12 -11 12 -18z m-85 -16 c0 -8 -7 -14 -15 -14 -15 0 -21 21 -9 33 10 9 24 -2 24 -19z m170 -18 c0 -18 -16 -29 -30 -21 -13 8 -1 35 16 35 8 0 14 -6 14 -14z m-135 -59 c0 -26 -20 -25 -23 2 -3 16 1 22 10 19 7 -3 13 -12 13 -21z m75 -2 c0 -16 -27 -32 -37 -21 -7 7 16 36 28 36 5 0 9 -7 9 -15z m30 -69 c0 -16 -18 -31 -27 -22 -8 8 5 36 17 36 5 0 10 -6 10 -14z m-117 -21 c9 -21 -9 -28 -27 -9 -21 20 -20 24 3 24 10 0 21 -7 24 -15z m49 -50 c0 -5 -5 -11 -11 -13 -6 -2 -11 4 -11 13 0 9 5 15 11 13 6 -2 11 -8 11 -13z"
       id="path144"
       style="fill:#ff3333" />
    <path
       d="M2986 3834 c-55 -56 -24 -155 64 -203 125 -70 357 -67 525 7 57 25 195 107 195 116 0 2 -25 -4 -56 -15 -31 -11 -90 -22 -132 -26 -95 -7 -161 9 -310 73 -182 80 -243 90 -286 48z"
       id="path146"
       style="fill:#ffcc33" />
    <path
       d="M2054 3768 c7 -63 41 -289 52 -339 3 -15 14 -29 24 -32 16 -4 28 8 57 56 20 34 68 94 106 134 80 84 81 78 -20 150 -57 41 -123 70 -197 87 l-29 7 7 -63z"
       id="path148"
       style="fill:#99ffff" />
    <path
       d="M1996 3718 c-24 -115 -28 -165 -21 -244 l7 -73 47 6 c25 3 47 6 48 7 1 1 -9 64 -22 141 -14 77 -25 159 -25 182 0 68 -17 59 -34 -19z"
       id="path150"
       style="fill:#66ff99" />
    <path
       d="M4971 3636 c-62 -120 -64 -97 21 -270 103 -206 233 -390 403 -567 149 -156 207 -300 206 -509 0 -132 -30 -255 -96 -399 -62 -136 -55 -146 26 -33 158 223 192 562 87 876 -35 105 -105 258 -167 366 -51 88 -414 640 -421 640 -3 0 -29 -47 -59 -104z"
       id="path152"
       style="fill:#0033cc" />
    <path
       d="M2468 3628 c-21 -7 -28 -16 -28 -35 0 -19 -4 -24 -16 -19 -24 9 -52 -11 -74 -54 -51 -99 5 -212 117 -235 113 -23 227 105 194 217 -18 57 -48 95 -96 118 -46 22 -57 23 -97 8z"
       id="path154"
       style="fill:#ff0033" />
    <path
       d="M5471 3556 c-17 -18 -25 -46 -36 -121 -9 -69 -20 -107 -35 -127 l-21 -29 71 -122 c39 -67 87 -137 105 -154 32 -30 40 -33 97 -33 35 0 100 7 145 16 118 24 161 15 229 -47 61 -55 81 -59 119 -26 31 26 44 77 45 168 0 71 14 106 93 233 20 33 37 63 37 67 0 4 -16 5 -35 2 -26 -4 -47 1 -86 22 -69 35 -86 27 -135 -65 -50 -95 -108 -126 -154 -80 -24 24 -26 75 -5 144 8 28 13 58 9 68 -7 24 -35 37 -59 28 -44 -17 -50 -37 -55 -185 -5 -136 -6 -144 -35 -190 -37 -59 -80 -87 -139 -87 -52 -1 -88 19 -117 65 -29 46 -20 113 31 233 49 115 58 188 26 223 -25 28 -67 27 -95 -3z"
       id="path156"
       style="fill:#cc9900" />
    <path
       d="M4834 3367 l-68 -136 42 -84 c57 -116 88 -147 143 -147 61 0 162 -27 247 -66 52 -23 69 -28 60 -16 -7 10 -39 53 -72 96 -76 102 -188 287 -242 400 l-42 89 -68 -136z"
       id="path158"
       style="fill:#0033cc" />
    <path
       d="M3895 3459 c-145 -30 -273 -134 -343 -279 -49 -104 -65 -176 -64 -300 0 -221 102 -442 290 -630 100 -99 206 -172 378 -259 139 -70 204 -123 239 -192 34 -67 34 -148 0 -208 -14 -23 -25 -44 -25 -45 0 -7 299 24 438 46 l133 21 -6 31 c-8 36 -44 101 -80 144 -33 40 -115 100 -455 337 -157 109 -312 219 -345 244 -159 121 -286 272 -336 398 -19 48 -23 77 -23 173 -1 97 3 124 22 172 85 211 336 286 488 146 123 -113 113 -316 -19 -405 -82 -55 -170 -52 -234 9 -50 47 -54 154 -7 185 49 32 124 6 124 -43 0 -21 -28 -17 -35 5 -14 44 -79 33 -91 -15 -9 -37 11 -73 51 -90 51 -21 105 -5 144 44 78 94 7 236 -118 236 -60 0 -106 -26 -146 -82 -24 -35 -30 -55 -33 -111 -5 -84 10 -117 74 -159 117 -78 278 -61 382 41 134 131 106 389 -56 513 -88 67 -230 97 -347 73z"
       id="path160"
       style="fill:#cc66ff" />
    <path
       d="M3028 3367 c4 -35 19 -58 86 -132 44 -49 83 -91 87 -93 13 -6 1 84 -15 116 -9 17 -49 57 -90 90 l-74 60 6 -41z"
       id="path162"
       style="fill:#ff9933" />
    <path
       d="M2003 3373 c-8 -3 -11 -14 -7 -29 5 -18 2 -24 -10 -24 -9 0 -16 8 -16 17 0 13 -5 12 -26 -8 -43 -40 -57 -76 -52 -139 7 -97 75 -160 173 -160 145 0 225 172 133 284 -17 21 -46 45 -64 52 -32 14 -106 18 -131 7z"
       id="path164"
       style="fill:#990000" />
    <path
       d="M6759 3337 l-56 -42 -23 -95 c-48 -204 -154 -434 -278 -610 -85 -120 -281 -319 -392 -398 -47 -34 -93 -67 -103 -74 -15 -11 -167 -382 -167 -408 0 -5 17 -18 39 -29 l38 -20 114 86 c581 439 886 906 906 1389 6 128 -2 245 -15 243 -4 0 -32 -19 -63 -42z"
       id="path166"
       style="fill:#669900" />
    <path
       d="M3945 3297 c-139 -47 -224 -162 -233 -318 -7 -129 35 -252 131 -377 93 -120 251 -243 771 -598 232 -158 304 -232 337 -341 8 -28 18 -43 28 -43 43 1 266 51 308 70 55 24 113 66 113 82 0 14 -70 90 -140 152 -131 115 -301 213 -619 356 -272 122 -397 186 -511 260 -120 79 -245 204 -284 285 -89 183 0 388 169 388 162 0 247 -170 145 -287 -40 -45 -79 -60 -142 -54 -46 5 -50 4 -33 -8 82 -60 206 -18 259 87 62 125 15 267 -108 331 -49 25 -138 32 -191 15z"
       id="path168"
       style="fill:#cc66ff" />
    <path
       d="M6278 3252 c-49 -77 -54 -92 -62 -202 -9 -115 -27 -157 -74 -177 -46 -19 -72 -11 -132 42 -63 56 -97 63 -219 41 -110 -19 -159 -20 -197 -6 -15 6 -28 9 -30 7 -2 -2 12 -39 30 -84 19 -44 42 -105 52 -136 10 -31 25 -59 33 -62 84 -25 287 -32 386 -14 225 41 350 216 316 439 -11 70 -46 188 -59 202 -4 4 -24 -19 -44 -50z"
       id="path170"
       style="fill:#cc6600" />
    <path
       d="M6605 3250 c-52 -24 -90 -35 -193 -56 -13 -2 -20 -9 -17 -14 3 -5 9 -41 14 -80 24 -192 -54 -352 -207 -424 -31 -15 -64 -30 -72 -35 -14 -7 -224 -480 -217 -488 2 -2 40 24 85 57 262 195 470 467 591 773 34 86 84 262 79 281 -2 9 -19 5 -63 -14z"
       id="path172"
       style="fill:#66cc66" />
    <path
       d="M3394 3184 c-16 -24 -16 -30 4 -102 30 -110 33 -133 23 -169 -7 -23 -5 -37 6 -52 20 -30 30 -26 25 9 -5 37 14 176 32 227 11 34 10 40 -13 75 -29 44 -54 48 -77 12z"
       id="path174"
       style="fill:#ff9933" />
    <path
       d="M4721 3104 c-36 -112 -38 -129 -13 -119 9 3 47 9 85 12 37 3 67 8 67 10 0 2 -20 38 -45 81 -25 42 -45 82 -45 89 0 6 -4 14 -9 17 -5 3 -23 -37 -40 -90z"
       id="path176"
       style="fill:#0033cc" />
    <path
       d="M4772 2970 c-215 -39 -412 -181 -510 -367 l-43 -82 23 -14 c26 -17 180 -97 185 -97 2 0 3 13 3 29 0 40 35 81 70 81 36 0 51 -20 61 -82 10 -62 19 -72 65 -72 57 0 67 22 59 126 -7 95 1 122 50 168 22 21 37 25 84 25 48 0 64 -5 95 -29 44 -33 75 -95 76 -149 0 -21 -7 -67 -16 -103 -16 -63 -16 -66 3 -92 11 -15 32 -28 46 -30 44 -5 64 13 77 70 16 76 33 98 76 98 24 0 42 -7 58 -25 34 -36 38 -84 16 -168 -25 -92 -25 -108 1 -141 42 -53 89 -21 89 61 0 62 27 103 69 103 62 0 82 -62 51 -155 -24 -73 -21 -108 11 -126 32 -17 54 12 80 104 26 96 31 260 10 347 -70 292 -339 511 -646 525 -49 2 -114 0 -143 -5z"
       id="path178"
       style="fill:#cccc00" />
    <path
       d="M3376 2831 c-10 -11 -34 -25 -52 -31 -63 -21 -83 -89 -53 -181 l22 -66 105 3 c62 2 109 9 113 15 3 6 -2 32 -11 57 -10 26 -23 72 -29 103 -9 41 -20 64 -45 88 -32 31 -33 31 -50 12z"
       id="path180"
       style="fill:#996600" />
    <path
       d="M3890 2800 c0 -4 31 -41 69 -81 l68 -74 26 52 26 51 -22 6 c-12 3 -31 6 -42 6 -11 0 -44 11 -72 25 -29 13 -53 20 -53 15z"
       id="path182"
       style="fill:#ff6633" />
    <path
       d="M2933 2665 c-12 -8 -39 -41 -61 -74 l-39 -59 59 -16 c33 -9 85 -29 116 -45 55 -27 58 -28 85 -11 41 25 41 27 18 56 -11 15 -21 35 -21 46 0 83 -95 146 -157 103z"
       id="path184"
       style="fill:#996600" />
    <path
       d="M4743 2625 l-35 -35 7 -93 c7 -90 6 -94 -19 -124 -30 -36 -63 -45 -104 -27 -40 16 -62 51 -62 95 0 77 -52 72 -70 -5 l-8 -38 81 -38 c45 -20 103 -46 128 -58 l47 -20 6 39 c13 83 107 146 198 134 l48 -7 0 46 c0 93 -63 166 -143 166 -31 0 -46 -7 -74 -35z"
       id="path186"
       style="fill:#cc6600" />
    <path
       d="M5688 2573 c25 -109 22 -337 -6 -446 -35 -140 -102 -271 -188 -367 -27 -30 -56 -110 -39 -110 19 0 58 38 73 74 11 22 44 70 74 106 70 82 76 94 87 174 8 55 17 75 50 117 39 49 41 55 41 120 0 37 5 80 11 96 5 15 68 86 139 158 l129 130 -132 0 c-73 0 -159 4 -193 8 l-61 9 15 -69z"
       id="path188"
       style="fill:#666633" />
    <path
       d="M5937 2472 c-64 -65 -121 -130 -127 -146 -5 -15 -10 -57 -9 -92 2 -67 -8 -92 -58 -145 -18 -20 -27 -44 -33 -91 -9 -78 -23 -106 -89 -181 -28 -32 -58 -72 -67 -89 l-16 -31 32 7 c18 3 56 6 85 6 l52 0 23 63 c38 106 194 494 264 656 36 85 65 156 63 157 -2 2 -56 -49 -120 -114z"
       id="path190"
       style="fill:#666633" />
    <path
       d="M2524 2536 c-39 -17 -58 -42 -23 -30 13 4 46 12 72 19 26 6 45 14 41 18 -11 11 -56 8 -90 -7z"
       id="path192"
       style="fill:#996600" />
    <path
       d="M3492 2473 c-99 -219 -115 -434 -51 -675 8 -32 19 -43 74 -73 188 -106 403 -161 699 -180 l89 -5 -6 37 c-9 50 -63 104 -166 161 -146 81 -201 158 -201 283 l0 66 -46 33 c-120 86 -255 239 -319 362 -17 32 -33 58 -36 58 -3 0 -20 -30 -37 -67z"
       id="path194"
       style="fill:#ff6633" />
    <path
       d="M3295 2516 c-237 -58 -443 -272 -540 -561 -43 -127 -65 -318 -48 -419 6 -36 11 -41 70 -68 34 -17 101 -40 147 -53 l84 -23 -5 113 c-6 126 5 205 42 297 50 123 157 246 271 313 51 30 64 43 64 62 0 49 33 181 66 262 19 47 34 86 34 88 0 8 -141 0 -185 -11z"
       id="path196"
       style="fill:#003399" />
    <path
       d="M2610 2504 c-123 -24 -247 -90 -335 -179 -129 -130 -185 -259 -193 -443 -3 -86 0 -130 13 -185 72 -300 301 -510 721 -663 277 -101 483 -110 633 -29 88 48 87 39 26 219 -30 87 -56 160 -58 162 -2 2 -26 -5 -54 -16 -103 -39 -234 -36 -421 11 -229 57 -387 164 -456 309 -29 60 -31 73 -31 170 0 117 14 158 76 219 56 57 104 75 196 77 l82 1 43 64 c24 35 73 95 110 133 38 38 68 70 68 71 0 5 -97 48 -140 62 -45 14 -234 26 -280 17z"
       id="path198"
       style="fill:#3399cc" />
    <path
       d="M4820 2412 c-42 -21 -80 -75 -80 -113 0 -27 9 -33 131 -95 72 -36 137 -63 145 -60 17 6 40 44 48 79 6 25 4 27 -29 27 -24 0 -44 9 -67 29 -30 27 -33 34 -31 84 2 49 -1 56 -20 61 -37 10 -60 7 -97 -12z"
       id="path200"
       style="fill:#cc3300" />
    <path
       d="M5140 2401 c-5 -11 -10 -35 -10 -54 0 -19 -8 -45 -18 -58 -10 -13 -19 -40 -20 -59 -2 -19 -13 -52 -26 -74 l-23 -39 106 -70 c58 -39 145 -110 194 -159 l89 -88 34 76 c20 42 34 77 32 78 -2 1 -15 7 -31 14 -15 6 -35 28 -44 47 -16 34 -16 38 5 104 25 75 22 115 -8 131 -14 7 -23 6 -34 -6 -17 -17 -18 -20 -20 -93 -1 -60 -25 -91 -70 -91 -43 0 -73 24 -87 68 -9 31 -7 52 11 121 22 87 20 123 -7 154 -21 23 -60 22 -73 -2z"
       id="path202"
       style="fill:#cc6600" />
    <path
       d="M2083 2306 c-17 -8 -39 -29 -49 -48 -22 -44 -54 -78 -73 -78 -9 0 -34 11 -56 25 -77 47 -113 23 -101 -69 21 -161 21 -163 -12 -196 -41 -40 -89 -41 -132 -2 -25 22 -33 40 -44 104 -7 43 -19 84 -26 93 -26 32 -70 11 -70 -34 0 -13 -5 -38 -11 -55 -10 -27 -7 -42 23 -116 l33 -85 85 3 c91 4 251 30 341 56 l56 16 16 78 c19 86 78 219 122 270 15 18 26 34 24 36 -14 13 -98 14 -126 2z"
       id="path204"
       style="fill:#996600" />
    <path
       d="M2630 2109 c-46 -21 -94 -60 -111 -91 -7 -13 20 -7 123 28 124 41 153 57 142 76 -10 16 -109 8 -154 -13z"
       id="path206"
       style="fill:#000099" />
    <path
       d="M3303 2074 l-51 -35 24 -72 c38 -110 73 -319 76 -450 3 -111 4 -116 23 -111 34 10 37 20 21 80 -26 101 -67 336 -61 354 3 9 17 23 31 30 18 10 24 20 20 35 -3 11 -8 62 -12 113 -4 50 -10 92 -13 92 -3 -1 -29 -17 -58 -36z"
       id="path208"
       style="fill:#000099" />
    <path
       d="M3950 2026 c0 -109 65 -197 206 -278 89 -51 152 -113 161 -158 7 -39 17 -38 48 7 19 29 25 50 25 91 0 126 -54 181 -312 315 l-128 66 0 -43z"
       id="path210"
       style="fill:#cc66ff" />
    <path
       d="M2657 2020 c-49 -15 -91 -31 -94 -34 -6 -6 108 -186 117 -186 4 0 12 28 19 61 7 34 23 90 35 125 13 35 21 64 17 64 -3 -1 -46 -14 -94 -30z"
       id="path212"
       style="fill:#000099" />
    <path
       d="M3176 1958 c-93 -105 -146 -251 -147 -400 0 -104 8 -153 28 -170 17 -13 226 -18 257 -5 18 7 18 16 12 125 -4 64 -13 160 -22 212 -15 98 -59 269 -73 283 -5 5 -29 -16 -55 -45z"
       id="path214"
       style="fill:#000099" />
    <path
       d="M2492 1953 c-31 -59 -20 -168 25 -256 25 -51 88 -125 132 -157 l26 -18 0 117 0 116 -46 65 c-26 36 -58 84 -73 108 -28 45 -50 53 -64 25z"
       id="path216"
       style="fill:#000099" />
    <path
       d="M3372 1838 c-7 -10 -3 -18 14 -31 25 -19 28 -16 18 21 -7 25 -17 28 -32 10z"
       id="path218"
       style="fill:none" />
    <path
       d="M3370 1762 c0 -41 51 -256 62 -263 20 -13 226 -68 350 -94 488 -103 1059 -76 1523 72 l90 29 17 94 c9 52 18 110 21 128 l6 33 -46 -40 c-62 -55 -128 -78 -339 -117 -359 -66 -474 -78 -759 -79 -230 0 -273 3 -370 22 -189 39 -356 104 -492 192 -51 33 -63 37 -63 23z"
       id="path220"
       style="fill:#330066" />
    <path
       d="M5546 1665 c-77 -29 -103 -58 -115 -127 -7 -35 -14 -75 -17 -90 l-6 -26 48 24 c135 68 255 -14 241 -166 -15 -169 -171 -273 -353 -237 l-40 8 -36 -95 -35 -96 36 -10 c20 -5 67 -10 104 -10 144 0 297 83 402 219 49 65 107 175 124 236 16 58 13 164 -5 218 -17 51 -75 117 -126 143 -45 24 -171 29 -222 9z"
       id="path222"
       style="fill:#669999" />
    <path
       d="M5335 1463 c-74 -27 -299 -81 -425 -102 -203 -33 -376 -44 -600 -38 -283 9 -502 42 -769 119 -57 16 -105 28 -107 26 -7 -8 78 -271 130 -400 63 -158 181 -394 264 -528 56 -92 60 -96 113 -113 246 -81 635 -82 924 -2 107 29 127 42 171 110 133 209 266 560 348 918 7 30 7 30 -49 10z"
       id="path224"
       style="fill:#669999" />
    <path
       d="M5481 1421 c-21 -21 -41 -80 -41 -121 0 -14 -16 -59 -36 -100 -20 -41 -40 -87 -44 -102 -7 -24 -5 -27 22 -33 16 -4 32 -4 35 -1 4 3 41 89 84 191 l77 185 -39 0 c-25 0 -46 -7 -58 -19z"
       id="path226"
       style="fill:#666600" />
    <path
       d="M5536 1264 c-91 -220 -89 -207 -34 -188 127 43 203 193 152 300 -35 74 -43 66 -118 -112z"
       id="path228"
       style="fill:#666600" />
    <path
       d="M5408 1383 c-9 -10 -21 -43 -28 -73 -7 -30 -24 -90 -37 -133 -13 -43 -22 -84 -20 -90 3 -7 8 -3 11 8 4 11 23 53 42 93 33 70 69 212 54 212 -4 0 -14 -8 -22 -17z"
       id="path230"
       style="fill:#666600" />
    <path
       d="M3500 1004 c-19 -14 -52 -34 -74 -44 l-39 -18 39 -24 c85 -54 226 -127 221 -115 -59 132 -103 227 -107 226 -3 0 -21 -11 -40 -25z"
       id="path232"
       style="fill:#666600" />
    <path
       d="M4852 400 c-268 -78 -653 -75 -927 6 -18 6 -19 5 -5 -10 23 -23 214 -64 363 -77 95 -8 160 -8 254 0 187 17 403 68 403 96 0 8 -20 4 -88 -15z"
       id="path234"
       style="fill:#330066" />
  </g>
</svg>
