<?xml version="1.0" encoding="UTF-8" standalone="no"?>
<svg
   xmlns:dc="http://purl.org/dc/elements/1.1/"
   xmlns:cc="http://creativecommons.org/ns#"
   xmlns:rdf="http://www.w3.org/1999/02/22-rdf-syntax-ns#"
   xmlns:svg="http://www.w3.org/2000/svg"
   xmlns="http://www.w3.org/2000/svg"
   xmlns:sodipodi="http://sodipodi.sourceforge.net/DTD/sodipodi-0.dtd"
   xmlns:inkscape="http://www.inkscape.org/namespaces/inkscape"
   version="1.0"
   width="1024.000000pt"
   height="1024.000000pt"
   viewBox="0 0 1024.000000 1024.000000"
   preserveAspectRatio="xMidYMid meet"
   id="svg2"
   inkscape:version="0.91 r13725"
   sodipodi:docname="UNADJUSTEDNONRAW_thumb_960.svg">
  <defs
     id="defs238" />
  <sodipodi:namedview
     pagecolor="#ffffff"
     bordercolor="#666666"
     borderopacity="1"
     objecttolerance="10"
     gridtolerance="10"
     guidetolerance="10"
     inkscape:pageopacity="0"
     inkscape:pageshadow="2"
     inkscape:window-width="1440"
     inkscape:window-height="818"
     id="namedview236"
     showgrid="false"
     inkscape:zoom="0.65407377"
     inkscape:cx="363.60189"
     inkscape:cy="740.79053"
     inkscape:window-x="0"
     inkscape:window-y="1"
     inkscape:window-maximized="1"
     inkscape:current-layer="svg2" />
  <metadata
     id="metadata4">
Created by potrace 1.14, written by Peter Selinger 2001-2017
<rdf:RDF>
  <cc:Work
     rdf:about="">
    <dc:format>image/svg+xml</dc:format>
    <dc:type
       rdf:resource="http://purl.org/dc/dcmitype/StillImage" />
  </cc:Work>
</rdf:RDF>
</metadata>
  <g
     transform="translate(0.000000,1024.000000) scale(0.100000,-0.100000)"
     fill="#000000"
     stroke="none"
     id="g6">
    <path
       d="M0 5120 l0 -5120 5120 0 5120 0 0 5120 0 5120 -5120 0 -5120 0 0 -5120z m5555 4795 c148 -38 286 -144 350 -267 l29 -56 77 73 c134 125 296 188 484 189 216 0 378 -93 497 -285 196 -314 208 -666 32 -998 -25 -47 -90 -147 -145 -221 -54 -74 -99 -137 -99 -140 0 -3 38 -11 84 -17 46 -6 98 -19 115 -27 16 -9 39 -16 50 -16 11 0 80 28 153 61 324 149 398 175 543 189 259 25 424 -51 511 -234 68 -144 78 -297 34 -550 -44 -253 -102 -433 -205 -641 -77 -156 -160 -268 -300 -408 l-106 -105 30 -59 c59 -117 66 -158 65 -383 -1 -113 -13 -459 -28 -769 -14 -310 -26 -581 -26 -603 0 -34 4 -41 33 -56 55 -29 132 -116 170 -194 90 -183 70 -372 -50 -478 -25 -22 -44 -42 -42 -43 2 -2 40 -31 85 -64 190 -144 288 -308 288 -483 0 -61 -5 -84 -26 -126 -45 -87 -117 -134 -205 -134 -18 0 -33 -4 -33 -9 0 -6 16 -38 36 -71 68 -117 96 -211 102 -340 4 -98 1 -129 -17 -195 -45 -164 -138 -245 -282 -245 -33 0 -59 -2 -59 -4 0 -2 18 -42 40 -88 51 -107 70 -183 70 -279 0 -174 -89 -337 -218 -401 -38 -18 -62 -23 -130 -22 -80 1 -83 0 -78 -20 2 -11 12 -79 22 -150 14 -103 16 -142 7 -200 -31 -210 -138 -331 -293 -331 -77 1 -121 21 -197 89 -28 25 -54 46 -57 46 -3 0 -3 -26 0 -59 9 -85 -6 -120 -84 -192 -73 -66 -188 -128 -282 -150 -84 -20 -288 -15 -383 10 -186 49 -316 159 -388 330 -15 36 -30 66 -33 66 -3 0 -19 -22 -37 -49 -93 -147 -262 -248 -419 -249 -104 -2 -165 28 -267 128 -43 42 -94 85 -114 96 -20 10 -48 32 -62 49 -14 16 -29 30 -32 30 -4 0 -32 -23 -63 -51 -32 -27 -91 -67 -132 -87 -73 -36 -76 -37 -190 -37 -98 0 -122 4 -165 23 -55 25 -109 72 -131 114 -8 15 -38 45 -68 67 -75 56 -98 106 -100 221 0 49 -4 91 -7 94 -4 4 -40 -13 -80 -37 -283 -166 -546 -148 -763 53 -94 87 -122 205 -71 305 13 27 23 51 20 53 -2 2 -28 -8 -57 -22 -130 -63 -295 -58 -441 14 -125 61 -217 170 -217 256 0 40 37 113 73 142 14 12 13 18 -19 62 -54 76 -77 151 -71 240 3 42 12 93 21 114 9 22 15 41 13 43 -2 2 -44 15 -92 29 -117 34 -177 65 -243 127 -84 80 -132 175 -152 302 -12 76 0 166 30 226 43 83 164 171 256 186 19 3 34 9 34 12 0 4 -14 20 -31 37 -140 133 -218 329 -189 476 23 121 78 198 192 274 38 26 73 56 77 68 11 28 -56 1359 -70 1411 -8 29 -30 57 -81 105 -198 183 -448 508 -587 761 -98 179 -89 375 21 475 70 63 223 118 431 156 100 18 159 22 332 23 116 0 230 -4 253 -8 l44 -8 -60 73 c-115 139 -170 259 -232 503 -61 241 -75 342 -74 570 0 190 1 204 27 290 38 122 64 171 115 216 86 76 222 105 445 96 423 -17 799 -230 1095 -619 36 -48 69 -85 73 -83 3 3 9 48 13 101 22 313 134 604 306 788 80 87 114 106 186 106 114 0 223 -34 318 -99 39 -27 45 -29 51 -13 4 9 10 105 15 212 9 221 28 301 97 419 74 124 224 238 365 275 71 19 200 20 273 1z"
       id="path8"
       style="fill:none" />
    <path
       d="M5300 9844 c-155 -41 -277 -147 -354 -306 -24 -51 -52 -127 -61 -168 -17 -77 -22 -258 -9 -327 7 -36 40 -123 47 -123 1 0 3 62 4 138 0 163 20 250 85 374 70 134 169 220 293 252 78 21 136 20 227 -3 154 -40 300 -134 392 -255 l56 -73 75 74 c120 117 245 191 383 225 74 18 255 13 339 -9 61 -16 71 -17 60 -4 -28 36 -66 63 -136 99 -72 35 -80 37 -191 41 -140 4 -207 -11 -328 -70 -63 -31 -104 -61 -165 -119 -45 -44 -82 -78 -82 -77 -12 22 -156 185 -192 218 -121 108 -294 153 -443 113z"
       id="path10"
       style="fill:#cc0000" />
    <path
       d="M5327 9620 c-111 -28 -208 -115 -269 -241 -60 -122 -73 -185 -72 -344 1 -170 8 -192 102 -318 131 -175 204 -301 277 -482 20 -49 47 -109 61 -132 56 -97 212 -213 285 -213 20 0 55 7 79 15 88 31 160 37 239 21 l74 -15 46 49 c39 42 53 50 82 50 18 -1 45 -7 59 -15 14 -8 43 -14 65 -15 53 0 140 65 265 197 283 299 434 607 434 888 0 225 -86 406 -226 474 -106 51 -270 66 -396 36 -117 -28 -279 -124 -377 -224 -33 -33 -67 -61 -76 -61 -9 0 -38 27 -64 61 -57 73 -155 156 -233 197 -119 63 -269 93 -355 72z"
       id="path12"
       style="fill:#cc0099" />
    <path
       d="M4347 9064 c-61 -33 -193 -257 -255 -435 -114 -325 -106 -687 24 -1036 51 -137 190 -422 222 -456 15 -16 49 -34 82 -43 120 -35 380 -173 590 -314 l75 -50 6 108 c7 135 32 201 101 277 27 30 76 71 109 91 l58 36 -6 59 c-5 55 -4 63 30 117 46 75 52 114 37 248 -45 412 -172 737 -402 1026 -80 101 -203 220 -282 272 -148 98 -314 141 -389 100z m93 -130 c6 -14 40 -136 76 -270 47 -173 64 -248 56 -256 -7 -7 -18 4 -35 38 -50 100 -197 445 -197 463 0 24 36 51 67 51 16 0 27 -8 33 -26z m330 -179 c21 -41 17 -138 -14 -373 -26 -197 -33 -226 -46 -201 -32 58 -49 530 -21 583 20 37 60 32 81 -9z m251 -264 c23 -18 23 -20 10 -97 -14 -86 -47 -192 -118 -384 -47 -127 -59 -150 -74 -150 -15 0 -10 38 36 295 70 386 62 355 95 355 15 0 38 -8 51 -19z m-610 -384 c191 -180 259 -250 259 -267 0 -25 -59 -2 -235 92 -104 56 -219 114 -255 129 -81 32 -85 49 -35 148 28 57 40 71 58 71 16 0 79 -53 208 -173z m-168 -168 c54 -28 445 -284 470 -307 79 -74 -8 -52 -272 69 -154 71 -228 110 -239 127 -19 30 -21 84 -3 106 16 19 16 19 44 5z m1062 -344 c14 -13 25 -31 25 -39 0 -20 -49 -112 -152 -286 -82 -139 -121 -190 -134 -177 -7 7 153 495 169 515 16 21 66 14 92 -13z m-747 -196 c225 -93 292 -125 292 -139 0 -27 -63 -19 -285 35 -204 49 -237 60 -255 82 -20 26 -25 58 -14 87 11 30 65 16 262 -65z"
       id="path14"
       style="fill:#66ff00" />
    <path
       d="M4375 8911 c-3 -10 -2 -27 1 -37 19 -53 107 -254 110 -251 5 4 -40 201 -57 255 -13 41 -45 61 -54 33z"
       id="path16"
       style="fill:#cc9900" />
    <path
       d="M4731 8660 c0 -57 3 -78 9 -65 12 28 12 117 0 135 -7 10 -10 -12 -9 -70z"
       id="path18"
       style="fill:#cc9900" />
    <path
       d="M4970 8476 c0 -6 -59 -326 -64 -348 -7 -32 4 -19 25 28 59 139 91 282 69 309 -11 14 -30 21 -30 11z"
       id="path20"
       style="fill:#cc9900" />
    <path
       d="M4164 8214 c-10 -14 -18 -43 -18 -65 l-1 -39 101 -44 c56 -23 150 -68 209 -100 59 -31 109 -55 111 -53 4 3 -114 116 -283 270 -35 31 -72 57 -83 57 -11 0 -27 -12 -36 -26z"
       id="path22"
       style="fill:#cc9900" />
    <path
       d="M4224 7896 c-13 -33 3 -52 67 -83 91 -45 289 -133 289 -129 0 2 -55 39 -122 82 -68 43 -147 93 -176 111 -42 27 -53 31 -58 19z"
       id="path24"
       style="fill:#cc9900" />
    <path
       d="M5236 7557 c-17 -26 -109 -277 -104 -282 4 -4 129 203 149 247 9 22 9 30 -1 43 -17 21 -27 19 -44 -8z"
       id="path26"
       style="fill:#cc9900" />
    <path
       d="M4320 7443 c1 -40 28 -54 206 -103 98 -28 182 -49 187 -47 10 3 -363 167 -380 167 -7 0 -13 -8 -13 -17z"
       id="path28"
       style="fill:#cc9900" />
    <path
       d="M2502 8750 c-90 -17 -118 -34 -159 -97 -20 -32 -50 -96 -67 -143 -26 -74 -30 -103 -34 -217 -10 -303 69 -706 183 -932 55 -110 150 -232 207 -264 28 -17 103 -37 218 -61 96 -20 209 -45 250 -56 41 -10 75 -18 76 -17 1 1 17 36 36 78 42 90 92 149 172 201 164 106 360 111 594 14 59 -25 109 -40 110 -35 2 5 -14 87 -37 182 -22 94 -51 228 -65 297 -40 205 -72 276 -202 451 -227 304 -533 506 -885 584 -88 19 -322 28 -397 15z m-2 -75 c79 -41 114 -255 41 -255 -26 0 -144 59 -173 88 -47 44 -32 126 31 165 33 21 64 21 101 2z m437 -32 c26 -24 73 -124 73 -154 0 -20 -76 23 -117 66 -30 31 -43 52 -43 73 0 16 3 32 7 35 15 15 53 5 80 -20z m-119 -117 c68 -36 131 -130 148 -220 l7 -39 -55 6 c-70 9 -118 29 -163 68 -70 62 -87 140 -39 178 31 25 64 27 102 7z m342 -112 c42 -36 60 -74 60 -129 0 -38 -3 -45 -19 -45 -57 0 -155 175 -108 193 24 10 36 7 67 -19z m-653 -198 c32 -35 48 -77 59 -160 6 -44 6 -46 -18 -46 -52 0 -149 91 -169 160 -10 33 -9 43 6 66 15 23 22 26 53 20 25 -3 48 -17 69 -40z m329 -48 c63 -43 84 -84 84 -170 0 -37 -5 -70 -10 -73 -6 -4 -30 3 -54 15 -117 56 -196 201 -134 244 33 24 60 20 114 -16z m43 -335 c40 -39 110 -213 85 -213 -4 0 -22 9 -40 21 -49 30 -112 106 -126 152 -11 35 -10 41 7 53 27 20 41 17 74 -13z m-221 -20 c22 -18 72 -141 72 -174 0 -32 -45 -23 -91 18 -66 60 -83 108 -53 151 18 27 44 28 72 5z m1196 -182 c14 -15 16 -37 14 -131 -3 -101 -5 -112 -18 -99 -8 9 -28 54 -44 101 -27 76 -28 88 -17 116 15 36 40 41 65 13z"
       id="path30"
       style="fill:#ff3300" />
    <path
       d="M2411 8606 c-16 -17 -20 -29 -14 -40 11 -19 111 -96 125 -96 11 0 3 45 -21 110 -20 55 -53 65 -90 26z"
       id="path32"
       style="fill:#ffccff" />
    <path
       d="M2762 8440 c12 -36 62 -88 96 -101 35 -14 37 -6 12 45 -23 49 -66 86 -99 86 -18 0 -19 -3 -9 -30z"
       id="path34"
       style="fill:#ffccff" />
    <path
       d="M2417 8223 c-4 -3 -7 -19 -7 -35 0 -21 13 -42 50 -78 58 -59 74 -63 65 -17 -18 80 -82 157 -108 130z"
       id="path36"
       style="fill:#ffccff" />
    <path
       d="M2750 8120 c0 -19 11 -42 31 -65 34 -38 88 -80 95 -73 2 3 -3 27 -11 55 -27 91 -115 155 -115 83z"
       id="path38"
       style="fill:#ffccff" />
    <path
       d="M2826 7822 c-5 -9 56 -111 67 -112 12 0 8 30 -8 64 -15 32 -51 61 -59 48z"
       id="path40"
       style="fill:#ffccff" />
    <path
       d="M2610 7785 c-8 -10 -7 -22 3 -48 15 -35 72 -84 81 -69 7 12 -44 120 -59 126 -8 3 -19 -1 -25 -9z"
       id="path42"
       style="fill:#ffccff" />
    <path
       d="M3817 7568 c8 -63 25 -74 21 -14 -2 27 -8 51 -15 53 -8 3 -10 -9 -6 -39z"
       id="path44"
       style="fill:#ffccff" />
    <path
       d="M7620 8300 c-174 -37 -351 -114 -550 -238 -158 -99 -254 -174 -375 -296 -168 -169 -234 -283 -243 -423 -6 -92 6 -136 80 -304 47 -106 79 -162 143 -248 46 -61 86 -119 90 -130 5 -17 14 -18 93 -13 75 4 95 1 139 -18 99 -42 180 -162 190 -281 4 -36 10 -59 18 -59 6 0 52 20 101 44 323 158 587 438 739 784 89 202 134 384 161 644 15 143 15 165 1 249 -19 114 -73 231 -120 259 -83 51 -306 65 -467 30z m148 -73 c19 -15 15 -32 -34 -156 -49 -121 -243 -530 -264 -556 -14 -17 -20 -18 -38 -6 -10 6 -1 39 41 147 50 127 110 307 167 502 16 55 26 75 43 82 24 9 65 3 85 -13z m-216 -53 c11 -23 0 -64 -101 -365 -62 -186 -119 -343 -127 -350 -12 -9 -18 -9 -27 0 -9 9 3 84 52 329 35 174 70 332 78 350 30 65 103 85 125 36z m-320 -141 c8 -10 18 -26 21 -36 8 -20 -5 -164 -34 -402 -22 -169 -37 -236 -56 -242 -23 -8 -33 85 -39 358 l-7 284 26 28 c30 31 67 35 89 10z m802 -279 c21 -21 20 -46 -4 -77 -21 -26 -204 -138 -380 -231 -163 -85 -370 -163 -370 -138 0 9 648 443 680 455 28 10 59 7 74 -9z m-1115 -22 c14 -27 45 -552 33 -564 -7 -7 -14 -4 -20 9 -16 29 -134 510 -130 530 7 39 99 58 117 25z m1044 -387 c-4 -51 -33 -79 -99 -92 -193 -39 -604 -69 -604 -44 0 6 8 15 17 18 54 21 624 151 653 150 32 -2 35 -4 33 -32z m-483 -330 c219 -35 260 -47 280 -86 26 -48 -1 -109 -49 -109 -36 0 -506 188 -527 211 -17 18 -16 19 29 19 26 0 146 -16 267 -35z m-442 -200 c170 -18 378 -58 437 -84 67 -30 105 -68 105 -105 0 -44 -32 -76 -75 -76 -36 0 -619 207 -662 235 -20 13 -22 19 -12 31 14 18 26 18 207 -1z"
       id="path46"
       style="fill:#ccff00" />
    <path
       d="M7693 8208 c-6 -7 -23 -67 -37 -133 -15 -66 -30 -129 -33 -140 -13 -47 17 8 67 123 41 93 51 128 44 140 -14 22 -29 25 -41 10z"
       id="path48"
       style="fill:#ccff66" />
    <path
       d="M7471 8124 c-12 -15 -21 -39 -21 -54 0 -25 -23 -164 -36 -215 -4 -17 -3 -18 5 -4 20 31 102 273 97 286 -8 20 -22 16 -45 -13z"
       id="path50"
       style="fill:#ccff66" />
    <path
       d="M7170 7995 c-15 -18 -16 -90 -3 -235 8 -99 12 -86 34 108 11 99 10 115 -3 128 -13 13 -16 13 -28 -1z"
       id="path52"
       style="fill:#ccff66" />
    <path
       d="M7732 7581 c-139 -92 -258 -173 -265 -181 -17 -18 283 138 413 216 59 34 112 69 119 78 14 17 12 48 -4 52 -5 1 -124 -73 -263 -165z"
       id="path54"
       style="fill:#ccff66" />
    <path
       d="M6861 7712 l-22 -17 33 -139 c17 -76 34 -133 36 -126 7 21 -10 300 -18 300 -4 0 -18 -8 -29 -18z"
       id="path56"
       style="fill:#ccff66" />
    <path
       d="M7692 7297 c-117 -29 -208 -53 -202 -55 6 -2 99 8 208 23 166 22 200 30 215 47 20 24 22 38 5 37 -7 0 -109 -24 -226 -52z"
       id="path58"
       style="fill:#ccff66" />
    <path
       d="M7540 6934 c0 -3 33 -20 72 -39 55 -25 77 -31 91 -23 25 13 17 30 -24 50 -31 17 -139 26 -139 12z"
       id="path60"
       style="fill:#ccff66" />
    <path
       d="M7130 6742 c0 -5 15 -13 33 -19 17 -6 101 -36 185 -67 160 -59 182 -61 182 -15 0 28 -22 35 -201 69 -90 17 -172 33 -181 36 -10 3 -18 1 -18 -4z"
       id="path62"
       style="fill:#ccff66" />
    <path
       d="M6690 8124 c-111 -68 -290 -206 -290 -224 0 -19 136 -150 157 -150 9 0 307 251 416 350 10 9 -114 39 -188 46 -42 4 -57 1 -95 -22z"
       id="path64"
       style="fill:#cc99ff" />
    <path
       d="M6176 7935 c-35 -32 -33 -60 8 -101 40 -40 80 -44 120 -13 38 30 36 79 -5 113 -40 34 -87 34 -123 1z"
       id="path66"
       style="fill:#cc0099" />
    <path
       d="M5475 7791 c4 -83 10 -163 14 -178 7 -25 7 -25 55 28 59 65 91 128 83 160 -4 14 -38 49 -83 83 l-77 59 8 -152z"
       id="path68"
       style="fill:#ffcc66" />
    <path
       d="M5853 7865 c-29 -8 -70 -25 -90 -39 -43 -27 -99 -83 -91 -91 3 -3 29 0 59 6 29 6 90 9 136 6 69 -4 92 -10 145 -39 42 -23 66 -43 72 -61 6 -15 7 -29 4 -33 -4 -3 -37 8 -75 24 -91 40 -137 52 -203 52 -71 0 -113 -12 -180 -52 -48 -29 -120 -106 -120 -128 0 -5 15 -11 33 -15 17 -4 55 -14 83 -22 47 -15 58 -14 161 6 70 14 155 23 231 24 l120 2 49 53 c30 32 57 52 71 52 21 0 22 5 22 70 l0 70 -36 0 c-44 0 -67 12 -125 65 -38 36 -55 44 -110 54 -80 14 -91 13 -156 -4z"
       id="path70"
       style="fill:#cc99ff" />
    <path
       d="M6336 7741 c-10 -11 -18 -36 -19 -57 -1 -28 5 -42 27 -60 33 -29 60 -30 86 -4 24 24 27 86 4 118 -20 28 -74 30 -98 3z"
       id="path72"
       style="fill:#cc0099" />
    <path
       d="M6245 7550 c-33 -22 -65 -73 -65 -105 0 -27 25 -61 49 -68 31 -8 99 29 121 65 26 44 25 74 -5 103 -29 30 -60 32 -100 5z"
       id="path74"
       style="fill:#cc0099" />
    <path
       d="M5485 7443 c-54 -11 -96 -81 -87 -143 2 -17 17 -44 32 -60 23 -25 36 -30 73 -30 60 0 106 32 131 92 17 40 18 53 8 86 -17 55 -69 73 -157 55z"
       id="path76"
       style="fill:#cc0099" />
    <path
       d="M5825 7431 l-130 -16 -7 -70 c-4 -38 -5 -71 -4 -73 3 -3 275 155 291 169 11 11 15 11 -150 -10z"
       id="path78"
       style="fill:#cc99ff" />
    <path
       d="M6020 7372 c-130 -92 -200 -165 -244 -254 -85 -172 -69 -370 40 -520 44 -59 69 -67 134 -39 70 30 169 29 256 -4 36 -14 85 -25 108 -25 65 0 157 -27 205 -61 l44 -31 -6 64 c-8 85 -41 168 -121 308 -83 143 -105 213 -117 364 -5 66 -11 121 -13 124 -9 9 -78 -149 -96 -222 -36 -142 -23 -241 51 -392 27 -56 49 -104 49 -107 0 -13 -179 47 -255 86 -133 67 -178 170 -141 317 24 93 68 159 173 261 l93 90 -19 37 c-41 79 -35 79 -141 4z"
       id="path80"
       style="fill:#cc99ff" />
    <path
       d="M6365 7293 c-3 -26 -8 -57 -10 -68 -8 -35 16 -168 40 -228 14 -32 53 -109 89 -171 80 -141 114 -221 127 -311 6 -38 12 -71 13 -73 6 -6 96 118 101 141 10 37 -17 86 -97 174 -146 163 -218 311 -238 485 -6 51 -12 94 -15 96 -2 2 -6 -18 -10 -45z"
       id="path82"
       style="fill:#cc66ff" />
    <path
       d="M6125 7208 c-51 -52 -83 -96 -111 -152 -35 -73 -39 -86 -39 -161 0 -75 2 -85 29 -119 28 -37 114 -86 178 -101 l27 -7 -34 64 c-84 158 -84 315 -1 481 19 37 31 67 28 67 -4 0 -38 -33 -77 -72z"
       id="path84"
       style="fill:#cc66ff" />
    <path
       d="M3590 7254 c-104 -20 -228 -88 -283 -157 -37 -46 -49 -132 -24 -171 17 -25 205 -186 217 -186 4 0 18 32 30 71 44 136 148 264 242 295 28 9 96 19 150 23 54 3 99 10 101 14 2 10 -78 44 -192 82 -72 25 -189 39 -241 29z"
       id="path86"
       style="fill:#cc3300" />
    <path
       d="M5652 7116 c-50 -53 -83 -99 -114 -162 -42 -85 -43 -90 -43 -183 0 -90 2 -100 34 -159 42 -77 112 -142 153 -142 27 0 77 20 105 42 8 6 -1 32 -33 92 -95 179 -108 362 -38 540 8 21 13 40 11 42 -2 3 -36 -29 -75 -70z"
       id="path88"
       style="fill:#cc66ff" />
    <path
       d="M5304 7095 c-124 -128 -166 -228 -144 -343 13 -71 30 -101 114 -198 78 -90 143 -203 180 -311 13 -37 29 -81 35 -96 l11 -29 39 47 39 47 -19 32 c-10 17 -19 47 -19 66 0 33 8 49 54 115 17 23 17 28 5 35 -137 78 -196 188 -186 347 6 97 38 175 117 284 27 38 50 70 50 72 0 2 -28 3 -62 3 -35 0 -78 3 -96 8 -32 8 -36 6 -118 -79z"
       id="path90"
       style="fill:#cc99ff" />
    <path
       d="M3947 7069 c-183 -13 -231 -36 -291 -139 -87 -147 -123 -269 -111 -375 28 -260 292 -900 469 -1135 128 -171 344 -352 498 -418 59 -25 72 -27 208 -27 208 1 341 42 438 135 62 60 70 77 87 176 29 169 85 324 155 435 34 52 36 79 19 241 -30 280 -134 492 -312 635 -113 91 -457 313 -587 378 -89 45 -209 82 -303 95 -86 11 -85 11 -270 -1z m-95 -244 c32 -44 58 -84 58 -89 0 -25 -138 25 -182 67 -49 45 -25 111 36 105 26 -2 41 -17 88 -83z m554 -82 c14 -5 144 -192 144 -208 0 -31 -200 60 -218 100 -33 71 9 133 74 108z m-366 -78 c17 -9 38 -32 49 -53 28 -57 73 -200 66 -212 -11 -17 -68 -11 -121 14 -89 41 -154 125 -154 196 0 60 91 91 160 55z m682 -53 c34 -38 76 -127 65 -138 -8 -9 -100 42 -135 74 -33 31 -42 68 -20 90 22 22 55 13 90 -26z m-955 -71 c30 -41 53 -84 53 -98 0 -24 -1 -24 -92 24 -85 44 -93 51 -96 80 -4 38 28 76 61 71 14 -2 41 -30 74 -77z m576 -13 c71 -85 157 -204 157 -218 0 -16 -79 -5 -136 20 -56 24 -123 87 -145 135 -24 51 -23 57 2 89 34 43 69 36 122 -26z m809 -59 c39 -41 98 -134 98 -156 0 -22 -29 -15 -98 24 -91 50 -122 83 -122 126 0 42 5 47 48 47 28 0 43 -8 74 -41z m-261 -92 c33 -24 58 -60 102 -142 77 -144 74 -135 40 -135 -66 0 -224 105 -258 171 -19 37 -19 89 1 117 22 32 64 28 115 -11z m-875 -48 c51 -50 77 -111 78 -185 1 -34 -2 -65 -5 -69 -11 -11 -82 13 -132 45 -93 59 -138 179 -86 231 32 32 100 22 145 -22z m334 -99 c47 -94 61 -140 42 -140 -14 0 -160 128 -172 150 -14 26 3 85 28 99 29 16 51 -7 102 -109z m269 -99 c80 -106 90 -131 52 -131 -30 0 -181 100 -202 133 -24 40 -24 48 2 81 37 48 58 36 148 -83z m-666 -103 c9 -7 39 -42 66 -77 57 -72 67 -111 26 -111 -42 0 -150 49 -184 84 l-32 33 28 34 c44 53 63 61 96 37z m385 -45 c53 -40 144 -175 128 -190 -10 -10 -126 36 -181 73 -71 46 -89 72 -76 107 20 53 68 57 129 10z m612 -203 c31 -22 90 -111 90 -135 0 -23 -49 -18 -92 8 -41 24 -88 82 -88 107 0 41 46 52 90 20z m73 -311 c20 -9 99 -116 113 -154 3 -7 -4 -16 -16 -20 -21 -7 -68 16 -157 77 -49 33 -57 67 -21 92 26 19 48 20 81 5z"
       id="path92"
       style="fill:#ff0000" />
    <path
       d="M3737 6868 c-2 -7 0 -21 5 -30 9 -19 84 -61 98 -56 5 2 -7 24 -26 51 -33 46 -67 61 -77 35z"
       id="path94"
       style="fill:none" />
    <path
       d="M4370 6682 c0 -15 7 -38 16 -51 16 -22 81 -57 91 -48 7 7 -46 90 -71 109 -29 24 -36 22 -36 -10z"
       id="path96"
       style="fill:#ffcccc" />
    <path
       d="M3958 6623 c-56 -14 18 -129 105 -162 36 -14 36 2 0 81 -17 39 -36 64 -54 74 -15 8 -29 13 -31 13 -2 -1 -11 -3 -20 -6z"
       id="path98"
       style="fill:#ffcccc" />
    <path
       d="M4685 6570 c16 -16 31 -28 33 -25 9 9 -29 55 -45 55 -13 0 -10 -7 12 -30z"
       id="path100"
       style="fill:none" />
    <path
       d="M3672 6578 c-23 -23 -12 -45 38 -72 28 -15 55 -26 60 -24 10 3 -66 108 -78 108 -5 0 -13 -5 -20 -12z"
       id="path102"
       style="fill:#ffcccc" />
    <path
       d="M4273 6496 c4 -21 17 -50 29 -63 25 -27 77 -57 85 -49 7 7 -50 86 -87 121 l-33 30 6 -39z"
       id="path104"
       style="fill:#ffcccc" />
    <path
       d="M5070 6461 c0 -18 41 -60 70 -69 39 -14 38 -2 -4 42 -31 33 -66 48 -66 27z"
       id="path106"
       style="fill:none" />
    <path
       d="M4795 6357 c-12 -48 10 -76 152 -185 23 -18 44 -29 47 -24 5 9 -110 213 -127 224 -7 4 -24 8 -39 8 -20 0 -29 -6 -33 -23z"
       id="path108"
       style="fill:#ffcccc" />
    <path
       d="M3910 6273 c0 -30 8 -44 53 -90 68 -67 86 -69 77 -10 -12 80 -57 137 -107 137 -20 0 -23 -5 -23 -37z"
       id="path110"
       style="fill:#ffcccc" />
    <path
       d="M4257 6293 c-15 -15 -5 -45 27 -81 19 -20 37 -34 41 -30 9 8 -41 118 -53 118 -5 0 -12 -3 -15 -7z"
       id="path112"
       style="fill:none" />
    <path
       d="M4496 6191 c-9 -13 8 -53 30 -72 30 -26 84 -51 84 -39 0 16 -37 85 -52 97 -21 17 -56 25 -62 14z"
       id="path114"
       style="fill:#ffcccc" />
    <path
       d="M3900 5965 c0 -20 11 -30 61 -56 34 -16 64 -28 67 -24 9 9 -91 105 -110 105 -12 0 -18 -8 -18 -25z"
       id="path116"
       style="fill:#ffcccc" />
    <path
       d="M4260 5970 c-12 -7 -12 -13 -4 -27 14 -23 152 -105 158 -94 4 6 -125 131 -136 131 -2 0 -10 -5 -18 -10z"
       id="path118"
       style="fill:#ffcccc" />
    <path
       d="M2060 7019 c-139 -15 -375 -75 -487 -124 -59 -27 -75 -51 -93 -143 -29 -144 36 -325 197 -551 139 -195 385 -464 543 -596 300 -249 622 -375 963 -375 214 0 329 50 419 185 71 106 103 201 102 305 -1 81 -4 94 -67 253 -78 194 -121 349 -143 519 -18 141 -42 198 -113 271 -142 148 -475 234 -991 257 -236 11 -224 11 -330 -1z m-243 -165 c34 -25 34 -26 16 -46 -51 -57 -138 -55 -169 4 -12 24 -13 32 -2 45 33 40 100 39 155 -3z m634 -50 c83 -25 245 -152 222 -175 -7 -7 -57 -2 -263 27 -86 11 -130 68 -99 125 21 39 62 46 140 23z m-386 -44 c50 -24 115 -77 115 -94 0 -17 -42 -35 -94 -42 -90 -13 -186 41 -186 105 0 62 72 76 165 31z m-116 -191 c38 -38 59 -65 53 -71 -13 -13 -189 20 -208 40 -10 10 -13 24 -9 41 10 40 24 51 65 51 32 0 45 -8 99 -61z m461 21 c19 -10 46 -30 59 -44 l24 -26 -101 0 c-111 0 -139 12 -126 54 15 50 66 56 144 16z m-142 -149 c20 -11 55 -39 78 -63 64 -69 67 -74 54 -98 -11 -20 -18 -22 -68 -18 -68 5 -123 30 -169 75 -80 81 -1 159 105 104z m-425 -17 c17 -9 54 -41 84 -72 74 -78 71 -93 -16 -94 -76 0 -155 27 -196 68 -43 42 -45 75 -8 104 31 25 81 22 136 -6z m514 -245 c42 -20 113 -94 113 -118 0 -19 -109 -13 -155 9 -56 27 -83 88 -53 118 17 17 46 15 95 -9z m-230 -50 c80 -39 163 -158 138 -198 -8 -14 -80 -14 -144 0 -144 31 -233 165 -141 212 40 20 83 16 147 -14z m1453 -244 c0 -44 -135 -186 -244 -257 -191 -124 -427 -181 -652 -158 -131 13 -279 51 -346 87 -67 35 -144 110 -153 146 -17 66 39 115 116 103 84 -13 159 -68 249 -182 33 -41 66 -70 97 -85 44 -21 50 -22 134 -11 278 37 479 123 703 299 73 58 96 72 96 58z"
       id="path120"
       style="fill:#cc3300" />
    <path
       d="M1692 6848 c-9 -9 -8 -16 5 -30 19 -21 62 -23 88 -4 18 13 17 14 -13 30 -37 19 -64 20 -80 4z"
       id="path122"
       style="fill:#ffffcc" />
    <path
       d="M2357 6762 c-20 -22 -21 -36 -4 -50 15 -13 207 -45 216 -37 11 12 -79 84 -118 95 -52 14 -76 12 -94 -8z"
       id="path124"
       style="fill:#ffffcc" />
    <path
       d="M1950 6732 c0 -17 47 -52 78 -58 17 -4 43 -3 58 0 26 7 24 9 -32 37 -57 28 -104 38 -104 21z"
       id="path126"
       style="fill:#ffffcc" />
    <path
       d="M1834 6579 c-10 -17 17 -36 64 -44 35 -6 41 -4 36 9 -13 35 -84 60 -100 35z"
       id="path128"
       style="fill:#ffffcc" />
    <path
       d="M2310 6565 c0 -11 11 -15 43 -15 39 1 41 2 23 15 -26 20 -66 19 -66 0z"
       id="path130"
       style="fill:none" />
    <path
       d="M2190 6402 c0 -4 7 -18 16 -30 25 -37 124 -79 124 -54 0 15 -55 61 -92 76 -43 18 -48 19 -48 8z"
       id="path132"
       style="fill:#ffffcc" />
    <path
       d="M1744 6388 c-17 -27 75 -78 139 -78 19 0 18 3 -9 31 -45 48 -114 73 -130 47z"
       id="path134"
       style="fill:#ffffcc" />
    <path
       d="M2296 6151 c-10 -15 41 -52 80 -58 l39 -6 -31 26 c-36 31 -81 50 -88 38z"
       id="path136"
       style="fill:#ffffcc" />
    <path
       d="M2000 6087 c0 -17 57 -71 97 -91 33 -16 103 -22 103 -8 -1 14 -46 60 -84 86 -42 28 -116 37 -116 13z"
       id="path138"
       style="fill:#ffffcc" />
    <path
       d="M2263 5744 c-62 -27 109 -162 227 -180 l45 -6 -60 62 c-33 34 -77 75 -97 91 -36 29 -90 44 -115 33z"
       id="path140"
       style="fill:#cc9966" />
    <path
       d="M6835 6581 c-38 -23 -61 -49 -74 -84 l-11 -27 97 0 c115 0 169 -21 213 -81 46 -64 47 -101 4 -204 -7 -18 -6 -18 9 -6 21 16 47 101 47 151 0 100 -59 204 -140 245 -59 30 -104 32 -145 6z"
       id="path142"
       style="fill:#cc66ff" />
    <path
       d="M6044 6517 c112 -72 131 -106 172 -302 14 -71 36 -148 48 -170 l20 -40 9 95 c16 189 14 261 -10 305 -44 83 -115 125 -205 124 -45 0 -50 -2 -34 -12z"
       id="path144"
       style="fill:#6699cc" />
    <path
       d="M5835 6473 c-48 -10 -48 -13 -6 -58 39 -43 41 -47 41 -112 l1 -68 56 -35 c37 -23 86 -72 148 -146 88 -105 137 -144 180 -144 13 0 10 8 -15 37 -48 54 -66 102 -95 257 -31 162 -37 182 -73 219 -42 44 -156 68 -237 50z"
       id="path146"
       style="fill:#ccffff" />
    <path
       d="M6324 6454 c15 -40 26 -160 26 -299 l0 -150 76 114 c89 133 118 193 110 226 -16 62 -104 125 -177 125 -34 0 -40 -3 -35 -16z"
       id="path148"
       style="fill:#ccffff" />
    <path
       d="M5645 6406 c-61 -26 -85 -105 -45 -141 19 -17 29 -18 110 -8 123 14 149 38 115 103 -28 55 -111 76 -180 46z"
       id="path150"
       style="fill:#cc6633" />
    <path
       d="M6785 6409 c-73 -11 -163 -54 -175 -83 -4 -11 -14 -36 -21 -55 -7 -19 -35 -68 -62 -110 -74 -113 -108 -190 -96 -213 9 -16 17 -19 47 -13 68 13 163 58 260 123 53 36 129 80 168 98 84 38 114 71 114 125 0 65 -85 141 -152 138 -13 -1 -50 -5 -83 -10z"
       id="path152"
       style="fill:#ccffff" />
    <path
       d="M7531 6370 c-110 -78 -185 -119 -274 -152 -95 -34 -121 -49 -143 -83 -16 -24 -15 -28 10 -85 56 -125 30 -246 -75 -344 -33 -31 -66 -73 -75 -95 -19 -49 -43 -65 -117 -81 -31 -6 -57 -14 -56 -18 0 -4 19 -21 42 -37 55 -40 75 -95 83 -232 8 -138 -7 -232 -53 -324 -45 -90 -85 -121 -163 -127 l-59 -4 -21 -72 c-47 -154 -110 -219 -307 -313 -80 -38 -153 -66 -181 -70 -45 -5 -194 18 -355 54 -78 18 -136 53 -182 112 l-33 41 -25 -39 c-31 -46 -84 -73 -137 -70 -32 3 -43 -2 -60 -23 -25 -32 -59 -44 -174 -59 -213 -27 -405 35 -541 176 l-51 53 -45 -43 c-97 -92 -209 -80 -310 33 -24 27 -52 72 -63 101 -18 52 -38 71 -74 71 -11 0 -50 16 -88 34 -145 73 -222 189 -274 409 -7 31 -16 57 -19 57 -3 0 -40 -52 -81 -115 -148 -229 -172 -234 -374 -81 -68 52 -136 101 -152 109 -16 8 -69 20 -119 26 -207 27 -357 83 -574 214 -79 48 -145 87 -148 87 -14 0 133 -173 220 -256 418 -405 1020 -743 1842 -1034 524 -185 1005 -307 1576 -400 286 -46 348 -50 492 -35 89 9 148 10 199 3 176 -22 172 -22 230 8 77 42 155 124 225 239 80 132 91 155 164 336 232 581 428 1207 474 1517 17 114 19 300 4 386 -11 63 -56 168 -75 173 -5 2 -43 -19 -83 -47z m89 -175 c0 -46 -9 -116 -20 -164 -22 -90 -45 -143 -36 -81 3 19 10 100 16 180 6 80 14 152 16 160 11 33 24 -17 24 -95z m-140 -743 c-176 -604 -377 -1092 -567 -1375 -133 -198 -174 -223 -310 -194 -42 9 -79 19 -82 22 -13 14 27 23 126 29 110 7 143 18 179 58 56 61 224 381 307 583 49 120 168 457 359 1018 27 81 34 92 36 67 2 -17 -20 -111 -48 -208z m-2774 -1187 c364 -117 814 -227 1139 -279 55 -9 141 -23 190 -31 l90 -14 -120 4 c-266 9 -695 100 -1090 230 -165 54 -313 112 -294 114 3 1 42 -10 85 -24z"
       id="path154"
       style="fill:#ffcc33" />
    <path
       d="M5668 6200 c-86 -26 -158 -116 -158 -198 l0 -44 49 41 c69 58 124 81 196 81 80 0 129 -24 213 -103 64 -60 106 -86 119 -74 10 11 -152 210 -197 243 -76 56 -154 75 -222 54z"
       id="path156"
       style="fill:#6699cc" />
    <path
       d="M6903 6095 c-17 -7 -73 -41 -123 -75 -124 -83 -206 -121 -280 -127 -33 -3 -63 -10 -66 -14 -12 -20 92 -49 252 -69 166 -21 221 -35 257 -68 18 -16 20 -15 48 18 76 90 95 205 50 287 -35 61 -76 75 -138 48z"
       id="path158"
       style="fill:#6699cc" />
    <path
       d="M5660 6014 c-95 -44 -150 -112 -164 -203 -4 -24 -22 -72 -41 -106 -19 -34 -35 -65 -35 -69 0 -3 17 5 38 18 121 76 316 151 460 176 40 8 75 17 78 22 6 9 -64 114 -93 140 -58 53 -158 62 -243 22z"
       id="path160"
       style="fill:#ccffff" />
    <path
       d="M6392 5753 c5 -89 26 -135 82 -178 40 -31 133 -55 209 -55 52 0 64 4 94 30 21 19 45 30 64 30 21 0 40 10 60 30 29 29 29 30 14 60 -9 17 -26 34 -38 39 -12 4 -89 16 -170 25 -168 20 -222 33 -279 71 l-41 27 5 -79z"
       id="path162"
       style="fill:#ccffff" />
    <path
       d="M6031 5775 c-282 -62 -480 -240 -521 -472 -40 -223 114 -464 387 -605 l75 -39 142 3 c155 2 166 -1 227 -59 l36 -34 11 41 c12 50 6 77 -25 111 -35 38 -75 53 -273 104 -208 54 -264 80 -324 146 -74 83 -101 210 -73 345 39 181 151 318 343 417 114 59 113 67 -5 42z"
       id="path164"
       style="fill:#6699cc" />
    <path
       d="M6183 5735 c-156 -66 -202 -94 -279 -170 -173 -171 -202 -424 -63 -549 56 -51 102 -72 251 -110 295 -77 355 -106 380 -187 11 -38 6 -85 -17 -154 -6 -17 -3 -16 14 5 48 57 97 139 118 199 13 35 33 76 43 91 42 59 49 181 15 234 -24 37 -61 47 -200 56 -101 6 -141 13 -172 28 -89 46 -137 141 -136 269 1 90 36 170 112 256 48 54 61 78 44 76 -5 0 -54 -20 -110 -44z"
       id="path166"
       style="fill:#ccffff" />
    <path
       d="M6279 5658 c-53 -72 -81 -143 -81 -206 -1 -110 39 -189 109 -218 18 -8 88 -17 155 -20 177 -9 233 -40 268 -148 12 -38 9 -134 -6 -183 -5 -19 -2 -23 14 -23 26 0 69 51 100 120 43 96 41 318 -4 387 -26 41 -58 53 -181 67 -134 16 -201 42 -247 97 -33 39 -61 94 -71 137 -3 17 -11 32 -16 32 -5 0 -23 -19 -40 -42z"
       id="path168"
       style="fill:#ccffff" />
    <path
       d="M5544 5624 c-89 -53 -160 -128 -202 -213 -35 -72 -37 -79 -36 -175 0 -85 5 -113 28 -176 47 -127 85 -188 153 -249 76 -67 106 -111 128 -182 30 -97 38 -111 78 -140 22 -16 44 -29 48 -29 11 0 159 140 159 150 0 4 -28 20 -62 34 -256 110 -411 331 -411 586 -1 133 40 246 126 352 45 55 61 78 55 78 -3 0 -31 -16 -64 -36z"
       id="path170"
       style="fill:#6699cc" />
    <path
       d="M3780 5584 c-1 -67 34 -340 51 -404 40 -148 117 -252 255 -343 74 -49 107 -84 142 -153 55 -109 192 -168 258 -111 29 25 42 79 43 180 1 70 22 60 66 -35 47 -100 77 -134 170 -197 120 -80 276 -119 429 -107 84 6 116 22 116 59 0 11 -11 51 -25 89 -44 121 -30 130 45 28 56 -75 80 -94 109 -85 34 10 72 62 78 103 11 78 -2 105 -91 195 -59 61 -94 107 -125 166 -23 45 -44 81 -45 81 -2 0 -55 -23 -117 -51 -332 -148 -447 -167 -638 -103 -228 76 -527 352 -656 604 -18 36 -40 74 -49 85 -15 20 -15 20 -16 -1z"
       id="path172"
       style="fill:#ff9900" />
    <path
       d="M7677 5523 c-2 -4 -50 -150 -105 -323 -228 -711 -270 -830 -363 -1028 -109 -233 -221 -389 -318 -443 -24 -13 -54 -37 -65 -52 -20 -28 -21 -37 -16 -290 9 -483 3 -1605 -9 -1746 -7 -73 -10 -135 -7 -138 2 -2 12 22 21 54 28 96 73 170 142 232 77 69 78 78 26 235 -34 100 -38 121 -37 206 2 149 48 259 164 390 83 95 84 98 86 240 2 190 26 250 164 410 138 160 170 227 190 393 6 53 21 128 32 165 13 41 22 104 25 162 7 183 64 1326 72 1430 8 105 7 119 -2 103z"
       id="path174"
       style="fill:#ffff00" />
    <path
       d="M2184 5438 c4 -24 33 -430 66 -903 34 -473 63 -876 66 -895 l6 -35 18 23 c10 12 26 43 36 69 18 45 17 59 -15 547 -48 721 -39 776 117 717 167 -64 302 -203 453 -466 l34 -60 3 -215 c3 -153 -1 -257 -13 -363 -18 -160 -14 -212 25 -286 25 -50 74 -91 108 -91 39 0 90 35 99 67 18 64 7 226 -26 388 -37 181 -36 232 4 300 77 132 315 108 462 -47 124 -130 202 -395 190 -642 -7 -128 -18 -195 -92 -527 -59 -272 -59 -323 2 -412 56 -81 170 -115 231 -70 37 27 70 77 83 127 18 64 4 262 -35 535 -20 134 -36 270 -36 301 0 126 60 225 168 276 46 22 76 28 154 32 157 8 279 -39 408 -155 94 -85 94 -85 100 -423 6 -328 8 -342 80 -424 44 -49 83 -68 142 -68 87 1 146 55 167 153 12 55 9 81 -34 309 -44 231 -36 293 47 348 39 25 48 27 147 27 95 -1 117 -5 216 -38 388 -132 685 -386 854 -730 99 -201 147 -380 181 -665 23 -198 39 -258 79 -296 61 -58 58 -104 66 889 4 498 5 908 2 911 -3 3 -34 12 -68 21 -82 20 -236 22 -421 4 -205 -19 -365 -5 -686 60 -701 142 -1357 352 -1932 618 -626 291 -1148 682 -1392 1044 -32 48 -61 87 -64 87 -3 0 -3 -19 0 -42z"
       id="path176"
       style="fill:#ffcc00" />
    <path
       d="M3655 5379 c-36 -62 -112 -132 -177 -165 -58 -30 -157 -54 -220 -54 -27 0 -48 -4 -48 -9 0 -8 141 -101 198 -130 33 -17 53 -8 118 59 101 103 149 192 169 313 3 20 2 37 -2 37 -4 0 -21 -23 -38 -51z"
       id="path178"
       style="fill:#ff9900" />
    <path
       d="M2406 4908 c-8 -13 -20 -45 -26 -72 -11 -51 -9 -124 25 -699 8 -137 15 -300 15 -361 0 -106 -2 -117 -30 -172 -18 -36 -25 -60 -19 -63 44 -15 200 -135 266 -204 110 -117 167 -230 193 -388 l12 -66 49 5 c117 11 258 -44 335 -132 62 -70 100 -155 129 -288 14 -62 28 -118 30 -125 3 -9 23 -6 73 12 160 56 254 55 358 -5 65 -37 119 -100 229 -268 l86 -133 51 46 c28 25 89 64 136 88 83 41 89 42 181 42 84 0 104 -4 154 -27 114 -53 193 -139 263 -284 l35 -72 87 36 c80 34 95 37 187 37 92 0 106 -3 167 -32 77 -36 138 -89 210 -182 29 -36 55 -70 59 -75 5 -5 37 22 72 60 115 123 272 194 432 194 136 0 228 -48 313 -161 20 -27 39 -49 42 -49 7 0 140 186 140 195 0 4 -8 19 -19 33 -29 41 -50 124 -67 262 -37 312 -91 498 -210 731 -179 350 -453 586 -828 711 -192 65 -283 61 -339 -14 -37 -50 -39 -95 -7 -249 60 -300 62 -370 9 -453 -22 -35 -43 -53 -82 -71 -91 -43 -172 -29 -248 42 -96 90 -93 77 -99 413 -6 346 -2 333 -119 451 -90 90 -159 127 -266 142 -149 22 -270 -22 -330 -118 -30 -48 -30 -50 -29 -184 0 -103 9 -194 36 -376 47 -305 47 -307 36 -385 -23 -173 -135 -266 -272 -226 -68 20 -141 84 -172 151 -41 86 -35 150 41 480 60 256 76 368 77 510 1 227 -47 382 -155 500 -101 111 -217 159 -330 136 -65 -14 -103 -47 -113 -99 -5 -25 6 -95 35 -231 45 -215 52 -312 25 -377 -37 -90 -112 -129 -191 -99 -71 27 -132 128 -140 230 -3 33 7 188 21 345 38 420 41 410 -216 706 -104 120 -136 149 -203 180 -63 30 -81 30 -99 2z"
       id="path180"
       style="fill:#ffff00" />
    <path
       d="M6083 4600 c-24 -5 -64 -18 -90 -30 -63 -27 -173 -102 -169 -115 4 -16 150 -27 289 -21 108 4 135 8 182 30 30 14 55 31 55 40 0 16 -48 59 -89 80 -35 19 -126 27 -178 16z"
       id="path182"
       style="fill:#ff6633" />
    <path
       d="M7699 4549 c-1 -2 -6 -147 -13 -322 l-11 -319 40 5 c56 8 105 65 135 157 41 129 16 275 -68 399 -31 46 -80 92 -83 80z"
       id="path184"
       style="fill:#ff3399" />
    <path
       d="M2143 4035 c-136 -96 -194 -291 -125 -426 l27 -54 6 97 c7 108 40 195 97 255 17 18 38 43 46 55 16 23 22 108 8 108 -4 0 -31 -16 -59 -35z"
       id="path186"
       style="fill:#cc6600" />
    <path
       d="M2198 3853 c-89 -98 -90 -339 -2 -431 33 -34 35 -35 30 -12 -15 66 -18 138 -7 242 6 63 8 137 4 167 -8 51 -9 52 -25 34z"
       id="path188"
       style="fill:#cc3399" />
    <path
       d="M7666 3599 c-4 -138 -4 -254 -1 -257 3 -4 14 -2 23 4 59 37 92 165 72 279 -13 80 -61 217 -76 222 -7 2 -13 -80 -18 -248z"
       id="path190"
       style="fill:#cc3399" />
    <path
       d="M7592 3768 c-6 -29 -14 -79 -17 -111 -9 -84 -42 -193 -77 -259 -17 -31 -66 -99 -109 -150 -44 -51 -94 -122 -112 -158 -31 -62 -32 -69 -37 -220 l-5 -156 -67 -83 c-122 -153 -171 -274 -172 -426 -1 -78 3 -98 27 -149 15 -32 29 -57 31 -55 2 2 14 44 25 93 40 169 126 293 251 364 l55 32 1 137 c0 127 3 146 32 233 17 52 64 153 104 225 79 143 78 137 63 315 -5 56 -2 141 9 249 17 167 16 215 -2 119z"
       id="path192"
       style="fill:#cc6600" />
    <path
       d="M7817 3713 c15 -42 27 -99 30 -149 10 -145 -27 -228 -117 -269 l-41 -18 33 -34 c44 -45 99 -82 148 -99 51 -18 88 -4 142 51 69 71 88 192 46 282 l-22 47 -12 -74 c-16 -94 -53 -151 -107 -164 -20 -5 -40 -7 -43 -4 -3 4 6 26 20 50 55 95 54 192 -4 315 -30 64 -76 133 -90 133 -4 0 4 -30 17 -67z"
       id="path194"
       style="fill:#ff3399" />
    <path
       d="M2335 3498 c3 -13 9 -64 14 -114 5 -53 14 -100 23 -113 8 -12 51 -55 96 -96 68 -64 88 -90 132 -176 68 -132 98 -224 106 -322 6 -70 10 -80 28 -85 12 -3 61 -26 110 -50 158 -79 300 -240 382 -435 20 -48 43 -87 50 -87 7 0 57 16 110 35 115 42 180 45 280 14 159 -49 296 -144 392 -274 24 -33 47 -60 51 -59 3 0 35 14 71 32 154 75 310 41 445 -98 35 -36 57 -46 191 -90 84 -28 163 -50 176 -50 13 0 52 10 88 21 121 39 282 27 483 -35 26 -8 47 -12 47 -7 0 4 -41 51 -90 104 -98 104 -149 135 -254 157 -98 20 -202 -4 -283 -66 -18 -14 -40 -24 -49 -22 -9 2 -48 61 -87 131 -40 71 -87 146 -105 168 -129 153 -393 138 -563 -32 -33 -33 -63 -59 -68 -59 -4 0 -32 39 -62 88 -88 146 -185 285 -220 319 -83 79 -177 86 -350 26 -63 -22 -121 -44 -130 -47 -14 -6 -17 4 -23 66 -24 249 -129 429 -284 489 -45 17 -77 22 -153 21 l-97 0 -7 55 c-31 250 -244 549 -433 608 -20 6 -22 4 -17 -17z"
       id="path196"
       style="fill:#cc6600" />
    <path
       d="M2194 3226 c-9 -23 23 -133 58 -200 19 -36 63 -92 108 -137 78 -78 206 -176 217 -165 8 8 -58 186 -106 286 -26 55 -56 96 -112 153 -71 72 -79 77 -118 77 -27 0 -44 -5 -47 -14z"
       id="path198"
       style="fill:#cc3399" />
    <path
       d="M2050 3192 c-197 -96 -199 -379 -4 -561 54 -51 127 -91 166 -91 5 0 -10 23 -33 52 -130 165 -153 347 -73 601 7 22 -11 22 -56 -1z"
       id="path200"
       style="fill:#cc3399" />
    <path
       d="M7606 3132 c-84 -143 -143 -302 -159 -424 -9 -63 5 -63 78 3 98 90 165 234 165 354 0 50 -18 132 -30 140 -5 3 -29 -30 -54 -73z"
       id="path202"
       style="fill:#cc3399" />
    <path
       d="M7780 3030 c-2 -185 -107 -362 -258 -433 -56 -26 -63 -32 -60 -56 4 -36 35 -38 161 -10 112 24 141 36 174 71 76 81 80 303 8 438 l-24 45 -1 -55z"
       id="path204"
       style="fill:#ff3399" />
    <path
       d="M2115 3026 c-4 -27 -5 -82 -2 -123 11 -141 104 -285 222 -343 63 -31 203 -36 231 -9 28 29 8 54 -79 103 -148 83 -271 214 -336 357 l-29 64 -7 -49z"
       id="path206"
       style="fill:#cc3399" />
    <path
       d="M7956 2745 c-11 -57 -48 -135 -84 -176 -61 -69 -192 -118 -322 -119 l-55 -1 44 -39 c55 -50 138 -90 216 -103 54 -9 66 -8 101 9 45 22 84 86 109 179 15 61 19 219 6 265 -7 23 -8 22 -15 -15z"
       id="path208"
       style="fill:#ff3399" />
    <path
       d="M2672 2538 c-7 -7 -12 -18 -12 -25 0 -21 148 -170 230 -232 87 -66 192 -133 198 -126 10 10 -96 163 -157 227 -65 69 -201 168 -231 168 -9 0 -21 -5 -28 -12z"
       id="path210"
       style="fill:#cc3399" />
    <path
       d="M2491 2459 c-104 -25 -106 -28 -105 -157 0 -97 4 -117 37 -212 20 -58 37 -111 37 -117 0 -6 -15 -30 -34 -52 -19 -23 -38 -50 -41 -61 -16 -50 77 -156 183 -207 49 -23 70 -27 147 -27 133 -1 335 62 335 105 0 5 -56 9 -127 9 -194 0 -295 33 -343 113 -23 36 -23 37 -11 55 6 10 26 3 88 -29 76 -39 86 -42 179 -46 82 -3 96 -1 81 9 -10 7 -60 42 -110 77 -121 85 -236 200 -270 271 -30 63 -41 155 -18 155 8 0 20 -17 27 -37 45 -131 257 -308 465 -388 128 -49 130 -49 159 4 29 54 25 60 -60 95 -144 60 -387 267 -470 403 -40 65 -40 65 -149 37z"
       id="path212"
       style="fill:#cc3399" />
    <path
       d="M7264 2316 c-95 -97 -143 -214 -144 -346 0 -78 14 -119 54 -152 30 -24 36 -36 41 -86 4 -31 15 -76 25 -98 25 -59 86 -122 129 -135 77 -23 207 27 264 103 91 118 119 307 66 433 -12 28 -13 25 -19 -56 -5 -66 -14 -102 -38 -152 -52 -113 -156 -196 -244 -197 -41 0 -54 24 -20 35 37 11 171 161 199 221 35 76 42 182 19 256 -18 54 -60 128 -74 128 -4 0 -5 -42 -4 -94 5 -114 -8 -182 -53 -274 -53 -112 -129 -182 -195 -182 -39 0 -30 25 28 86 97 100 152 239 152 384 0 52 -6 87 -19 115 l-19 40 -1 -30 c-4 -93 -23 -229 -37 -266 -25 -64 -70 -125 -112 -154 -57 -39 -92 -31 -92 22 0 8 38 103 84 211 120 282 121 302 10 188z"
       id="path214"
       style="fill:#cc3399" />
    <path
       d="M7315 2128 c-7 -18 -23 -55 -34 -81 -26 -60 -26 -65 -1 -42 10 9 26 36 34 59 30 84 31 134 1 64z"
       id="path216"
       style="fill:none" />
    <path
       d="M3415 1999 c-11 -6 -34 -25 -51 -41 -24 -23 -37 -28 -54 -23 -16 5 -29 0 -51 -21 -43 -41 -53 -83 -39 -160 7 -35 10 -71 6 -79 -9 -24 -35 -6 -58 39 l-21 41 -23 -50 c-45 -95 -24 -187 61 -270 45 -43 46 -45 21 -45 -37 0 -96 26 -130 58 l-29 27 6 -56 c3 -31 15 -75 26 -97 52 -102 210 -182 361 -182 109 0 297 55 332 97 10 13 4 14 -47 6 -105 -14 -224 -8 -288 17 -60 22 -121 66 -112 80 3 4 42 -1 87 -11 260 -58 509 25 589 196 30 64 22 70 -28 25 -57 -50 -98 -72 -177 -95 -78 -23 -209 -16 -287 14 -57 22 -175 99 -165 108 2 3 56 -8 118 -23 159 -39 270 -40 353 -1 33 15 68 35 78 44 17 16 11 19 -95 53 -120 38 -222 88 -300 145 -48 35 -60 55 -34 55 7 0 72 -20 144 -45 199 -69 394 -112 391 -87 -1 12 -156 145 -216 184 -113 75 -315 128 -368 97z"
       id="path218"
       style="fill:#cc3399" />
    <path
       d="M7040 1764 c-45 -19 -106 -79 -131 -127 -26 -49 -102 -413 -94 -452 7 -44 103 -141 152 -154 54 -15 63 -14 119 14 60 30 122 107 155 193 30 79 37 207 14 267 -9 25 -20 45 -24 45 -4 0 -17 -31 -29 -69 -12 -38 -35 -86 -51 -108 -28 -38 -97 -90 -107 -81 -2 3 11 31 31 63 46 77 72 149 86 237 25 159 -16 217 -121 172z"
       id="path220"
       style="fill:#ff3399" />
    <path
       d="M6698 1725 c-51 -35 -99 -101 -139 -190 -18 -41 -38 -75 -45 -75 -6 0 -24 30 -40 67 -70 165 -230 240 -419 198 -135 -30 -255 -106 -335 -212 -48 -63 -47 -73 16 -134 l34 -33 70 17 c201 48 382 44 554 -14 104 -35 173 -71 269 -141 37 -28 70 -48 73 -46 2 3 3 136 2 297 l-3 291 -37 -25z"
       id="path222"
       style="fill:#cc6600" />
    <path
       d="M4245 1720 c-90 -18 -91 -20 -128 -138 -39 -122 -74 -196 -123 -261 -19 -24 -34 -52 -34 -62 0 -16 23 -47 138 -179 18 -21 29 -41 24 -43 -4 -3 -38 8 -76 25 -37 16 -70 27 -73 25 -13 -13 21 -88 52 -116 77 -67 189 -75 362 -25 146 41 420 185 437 230 10 25 7 82 -4 89 -6 4 -74 -24 -152 -60 -159 -75 -262 -103 -340 -91 -46 7 -68 26 -30 26 31 0 172 40 236 67 65 27 149 73 144 79 -2 2 -31 -3 -63 -11 -149 -34 -235 -29 -346 21 -33 15 -75 44 -94 65 -49 55 -45 81 6 40 159 -124 388 -102 654 62 l39 25 -64 20 c-36 10 -160 43 -277 72 -198 49 -257 69 -242 85 4 3 60 -1 125 -9 64 -9 119 -14 122 -12 8 9 -86 56 -143 70 -64 17 -89 18 -150 6z"
       id="path224"
       style="fill:#ff3399" />
    <path
       d="M5085 1472 c-105 -36 -140 -78 -178 -214 -14 -49 -42 -118 -65 -155 -22 -38 -44 -80 -47 -94 -16 -65 37 -149 115 -180 47 -19 189 -16 270 5 80 22 209 82 273 128 47 35 86 79 113 130 l14 27 -73 -34 c-117 -54 -181 -69 -292 -69 -82 0 -113 5 -173 26 -68 24 -128 56 -120 62 1 2 66 -5 143 -16 78 -10 165 -16 197 -14 65 6 165 39 187 61 14 13 4 15 -89 15 -120 1 -232 18 -305 48 l-50 21 40 0 c22 0 102 -6 177 -14 134 -13 208 -10 283 13 48 15 128 58 149 80 18 21 18 21 -5 26 -13 3 -69 7 -124 10 -114 6 -405 52 -419 66 -5 5 -7 12 -4 15 5 6 222 -6 406 -21 39 -3 72 -2 72 3 0 13 -126 59 -212 77 -101 21 -219 20 -283 -2z"
       id="path226"
       style="fill:#ff3399" />
    <path
       d="M7306 1279 c-48 -183 -183 -304 -361 -325 -34 -4 -55 -12 -55 -19 0 -26 106 -111 160 -128 66 -21 85 -21 135 2 86 39 139 137 154 290 8 74 0 235 -12 247 -2 2 -11 -28 -21 -67z"
       id="path228"
       style="fill:#ff3399" />
    <path
       d="M5858 1316 c-32 -6 -65 -18 -73 -27 -22 -22 -39 -146 -25 -179 12 -28 138 -110 217 -140 27 -10 119 -33 204 -50 193 -39 194 -39 180 -53 -18 -18 -178 -20 -258 -4 -94 20 -202 72 -285 136 l-68 52 0 -33 c1 -164 125 -359 272 -428 132 -62 332 -78 484 -40 107 27 233 90 264 132 27 36 40 132 22 163 -8 15 -13 12 -41 -28 -31 -45 -95 -103 -138 -126 -12 -6 -64 -22 -115 -36 -170 -46 -350 -32 -483 38 -98 51 -229 196 -202 224 3 3 30 -15 60 -40 134 -116 253 -161 417 -161 159 0 277 43 399 144 79 65 87 82 64 121 -24 40 -51 45 -140 24 -148 -35 -409 -6 -642 71 -181 61 -157 69 85 29 196 -32 365 -46 434 -37 l55 7 -80 32 c-120 48 -245 81 -388 102 -129 18 -152 25 -128 41 63 38 304 14 509 -52 52 -16 96 -28 98 -26 2 3 -45 28 -104 56 -151 73 -273 102 -421 101 -64 -1 -142 -6 -173 -13z"
       id="path230"
       style="fill:#ff3399" />
    <path
       d="M5691 1229 c-38 -99 -115 -242 -152 -283 -95 -108 -272 -191 -433 -204 -44 -4 -81 -12 -83 -18 -5 -16 82 -72 131 -85 137 -37 317 49 442 212 58 76 84 133 84 190 0 26 7 81 16 124 16 76 13 110 -5 64z"
       id="path232"
       style="fill:#ff3399" />
    <path
       d="M4610 951 c-154 -72 -261 -107 -363 -116 l-78 -7 31 -23 c104 -77 289 -52 463 63 72 47 90 74 79 116 l-7 26 -125 -59z"
       id="path234"
       style="fill:#ff3399" />
  </g>
</svg>
