<?xml version="1.0" encoding="UTF-8" standalone="no"?>
<svg
   xmlns:dc="http://purl.org/dc/elements/1.1/"
   xmlns:cc="http://creativecommons.org/ns#"
   xmlns:rdf="http://www.w3.org/1999/02/22-rdf-syntax-ns#"
   xmlns:svg="http://www.w3.org/2000/svg"
   xmlns="http://www.w3.org/2000/svg"
   xmlns:sodipodi="http://sodipodi.sourceforge.net/DTD/sodipodi-0.dtd"
   xmlns:inkscape="http://www.inkscape.org/namespaces/inkscape"
   version="1.0"
   width="850.000000pt"
   height="850.000000pt"
   viewBox="0 0 850.000000 850.000000"
   preserveAspectRatio="xMidYMid meet"
   id="svg2"
   inkscape:version="0.91 r13725"
   sodipodi:docname="Food518_001.svg">
  <defs
     id="defs616" />
  <sodipodi:namedview
     pagecolor="#ffffff"
     bordercolor="#666666"
     borderopacity="1"
     objecttolerance="10"
     gridtolerance="10"
     guidetolerance="10"
     inkscape:pageopacity="0"
     inkscape:pageshadow="2"
     inkscape:window-width="1920"
     inkscape:window-height="980"
     id="namedview614"
     showgrid="false"
     inkscape:zoom="0.62824358"
     inkscape:cx="615.38089"
     inkscape:cy="511.31774"
     inkscape:window-x="0"
     inkscape:window-y="1"
     inkscape:window-maximized="1"
     inkscape:current-layer="svg2" />
  <metadata
     id="metadata4">
Created by potrace 1.14, written by Peter Selinger 2001-2017
<rdf:RDF>
  <cc:Work
     rdf:about="">
    <dc:format>image/svg+xml</dc:format>
    <dc:type
       rdf:resource="http://purl.org/dc/dcmitype/StillImage" />
  </cc:Work>
</rdf:RDF>
</metadata>
  <g
     transform="translate(0.000000,850.000000) scale(0.100000,-0.100000)"
     fill="#000000"
     stroke="none"
     id="g6">
    <path
       d="M0 4250 l0 -4250 4250 0 4250 0 0 4250 0 4250 -4250 0 -4250 0 0 -4250z m4648 4011 c239 -51 390 -124 552 -265 101 -89 129 -117 171 -173 21 -28 43 -54 48 -58 6 -3 27 10 48 28 101 91 278 181 433 220 122 30 387 30 510 0 102 -26 228 -78 319 -132 152 -90 325 -277 404 -436 100 -202 141 -477 102 -698 -26 -152 -103 -350 -162 -421 l-25 -30 40 -33 c51 -42 126 -141 162 -213 35 -71 60 -184 60 -272 0 -260 -212 -552 -454 -627 -176 -54 -418 -23 -576 75 -30 19 -63 34 -71 34 -9 0 -34 -14 -55 -31 -55 -43 -165 -94 -264 -121 -72 -19 -109 -23 -242 -23 l-156 0 -69 -66 c-37 -36 -89 -80 -115 -97 -63 -43 -242 -130 -284 -138 -35 -6 -43 -21 -22 -42 9 -9 7 -19 -11 -43 -14 -19 -21 -39 -17 -51 9 -36 -5 -77 -37 -107 -20 -20 -31 -42 -33 -67 -4 -45 -36 -81 -84 -94 -28 -8 -38 -16 -45 -42 l-10 -33 -95 0 c-56 0 -104 5 -118 13 -13 6 -44 12 -69 12 -57 0 -80 13 -97 55 -13 31 -18 34 -43 29 -39 -8 -57 15 -50 61 5 28 1 41 -19 64 -32 39 -40 81 -21 117 10 19 15 55 14 101 l-1 71 -55 23 c-36 15 -81 47 -130 94 -99 94 -106 97 -169 81 -28 -8 -97 -19 -154 -26 -94 -11 -111 -10 -198 9 -189 42 -342 141 -439 285 -85 125 -127 224 -154 355 l-12 64 -90 18 c-59 12 -121 34 -182 64 -200 99 -384 330 -448 560 -26 94 -31 275 -11 375 10 46 24 99 31 117 l14 33 -30 0 c-33 0 -89 49 -89 77 0 9 -9 14 -22 13 -55 -5 -58 -2 -58 46 0 32 -7 56 -25 82 -29 42 -32 80 -10 122 10 20 13 42 9 69 -4 26 -1 54 8 78 9 21 13 55 11 75 -5 34 -2 39 22 48 14 5 35 10 47 10 11 0 33 11 50 25 19 16 42 25 65 25 20 0 46 9 60 20 14 11 35 20 47 20 12 0 37 11 55 24 39 29 65 24 88 -15 13 -21 25 -29 45 -29 34 0 67 -31 75 -71 3 -16 15 -35 27 -41 39 -20 66 -51 72 -85 7 -40 18 -41 99 -11 51 19 82 23 208 24 82 1 152 5 156 10 4 5 13 27 19 49 14 50 129 258 190 345 72 102 169 197 272 265 168 112 349 192 499 220 106 20 364 13 489 -14z m-1728 -246 c8 -9 30 -15 56 -15 52 0 84 -26 84 -68 0 -15 6 -37 14 -48 10 -14 14 -43 12 -92 -2 -70 -16 -102 -42 -102 -8 0 -14 -9 -14 -19 0 -23 -35 -51 -63 -51 -10 0 -30 -9 -44 -20 -31 -24 -42 -25 -73 -3 -14 10 -37 16 -52 14 -21 -2 -34 5 -51 24 -12 15 -34 41 -49 58 -20 21 -28 41 -28 68 0 21 -4 41 -10 44 -18 11 -11 71 10 90 11 10 20 29 20 43 0 41 27 62 80 62 30 0 52 6 60 15 7 8 27 15 45 15 18 0 38 -7 45 -15z m414 -3030 c44 -65 106 -141 142 -174 85 -78 175 -186 218 -263 51 -91 96 -236 104 -332 l7 -81 63 -7 c34 -4 93 -19 130 -34 51 -20 144 -43 220 -54 16 -2 -51 -277 -97 -397 -17 -44 -50 -106 -73 -138 l-41 -58 36 -31 c19 -17 38 -43 41 -59 l6 -27 677 2 676 3 7 25 c4 14 13 50 20 80 24 108 98 216 195 285 85 61 168 98 315 140 233 66 302 100 349 168 60 88 75 83 85 -32 3 -41 22 -144 42 -230 19 -86 38 -171 41 -188 6 -35 23 -46 23 -15 0 9 9 53 20 97 39 158 118 275 227 333 95 50 316 82 503 72 109 -6 121 -17 75 -71 -38 -46 -121 -223 -140 -299 -28 -113 -56 -193 -97 -272 -33 -63 -51 -86 -100 -123 -33 -25 -64 -45 -69 -45 -5 0 -9 -4 -9 -9 0 -5 34 -14 76 -20 133 -20 291 -103 372 -196 43 -48 89 -141 109 -218 24 -97 14 -307 -21 -410 -38 -113 -115 -260 -186 -355 -90 -120 -193 -198 -457 -346 -57 -31 -103 -60 -103 -64 0 -4 15 -14 33 -22 59 -28 79 -101 51 -197 -5 -18 -1 -25 18 -32 31 -11 76 -64 84 -97 10 -38 -2 -104 -24 -133 -19 -26 -19 -27 -1 -50 45 -56 45 -137 -1 -202 -20 -27 -21 -35 -11 -69 16 -55 13 -101 -9 -138 -23 -37 -75 -72 -107 -72 -21 0 -23 -5 -23 -47 0 -59 -33 -129 -71 -148 -15 -8 -51 -15 -79 -15 -40 0 -50 -3 -50 -17 0 -38 -41 -101 -72 -112 -41 -14 -111 -14 -143 1 -22 10 -28 9 -40 -9 -42 -61 -126 -78 -203 -43 l-42 19 -48 -25 c-35 -19 -57 -24 -85 -21 -46 6 -114 49 -129 82 -10 22 -14 23 -78 18 -58 -5 -73 -3 -103 16 -34 21 -67 73 -67 105 0 13 -15 6 -62 -26 -76 -52 -74 -49 -82 -106 -3 -26 -15 -56 -28 -69 l-21 -23 -753 0 c-538 0 -760 3 -778 11 -26 12 -41 41 -51 101 -5 33 -15 44 -68 80 -163 109 -284 231 -417 418 -226 319 -367 604 -463 935 l-35 120 -103 8 c-57 4 -151 16 -209 27 l-105 20 -20 -27 c-47 -64 -124 -138 -191 -183 -109 -72 -205 -105 -359 -124 -206 -24 -283 -28 -292 -13 -4 6 -6 39 -5 72 2 33 -6 104 -18 160 -24 115 -20 178 15 267 13 32 20 60 16 62 -4 3 -32 8 -62 12 -77 10 -223 59 -299 101 -36 19 -123 79 -195 132 -71 53 -147 105 -168 116 -44 23 -47 38 -8 54 72 30 184 177 194 254 10 74 40 131 102 197 63 65 98 85 180 102 30 6 55 14 55 17 0 4 -11 22 -25 40 -35 49 -51 127 -36 186 6 26 19 58 27 71 37 55 145 92 209 71 42 -14 92 -64 106 -105 l12 -35 16 49 16 49 -48 16 c-57 19 -104 61 -112 100 -5 24 -12 29 -35 29 -42 0 -55 22 -41 69 11 37 7 71 -8 71 -14 0 -41 71 -41 106 0 19 7 48 15 63 13 26 13 30 -5 46 -31 28 -25 60 13 83 26 15 35 28 40 56 8 47 39 90 77 106 26 11 30 17 30 51 0 33 4 40 24 45 14 3 30 3 36 -1 6 -4 28 13 49 37 36 40 42 43 95 45 36 1 61 7 72 17 8 9 25 21 37 27 18 10 24 8 43 -16 21 -26 22 -27 52 -11 50 26 89 21 128 -18 31 -31 37 -33 83 -28 48 4 51 3 61 -22 5 -15 10 -37 10 -49 0 -15 12 -28 38 -42 29 -16 40 -30 52 -68 14 -46 16 -48 45 -41 17 3 67 14 112 23 45 9 85 19 89 23 3 4 8 35 11 70 4 57 32 148 69 220 8 15 47 64 86 109 56 64 102 101 208 172 236 156 297 215 330 320 6 20 15 37 18 37 4 0 42 -52 86 -115z m3824 -430 c17 -14 44 -30 60 -36 56 -19 65 -99 16 -138 -21 -16 -161 -61 -192 -61 -16 0 -32 66 -32 137 0 52 4 66 26 92 33 40 80 42 122 6z m-1074 -145 c8 0 26 -10 42 -22 17 -14 38 -21 55 -20 37 4 73 -21 94 -65 26 -54 9 -99 -63 -164 -55 -51 -178 -119 -214 -119 -16 0 -17 7 -12 59 5 45 2 75 -16 132 -24 81 -21 146 8 172 23 21 64 37 80 31 8 -2 19 -4 26 -4z m695 -121 c17 -6 36 -20 42 -30 5 -10 18 -19 28 -19 10 0 30 -9 45 -21 37 -29 37 -88 -2 -121 -35 -29 -189 -75 -203 -61 -6 6 -15 40 -22 76 -14 85 1 140 46 167 18 11 32 20 33 20 1 0 15 -5 33 -11z m-2009 -94 c8 -9 30 -15 56 -15 51 0 84 -26 84 -65 0 -15 6 -38 13 -53 8 -16 13 -53 12 -91 -2 -54 -6 -68 -26 -85 -13 -12 -29 -33 -36 -48 -8 -17 -23 -30 -40 -33 -15 -4 -35 -10 -43 -16 -42 -26 -63 -30 -86 -14 -13 8 -39 15 -58 15 -30 0 -39 6 -65 43 -16 24 -36 49 -45 56 -10 8 -16 29 -16 52 0 21 -4 41 -10 44 -17 11 -11 66 10 92 11 14 20 36 20 48 0 33 33 57 79 57 21 0 47 6 57 13 25 19 78 19 94 0z m406 -470 c10 -8 33 -15 50 -15 17 0 37 -6 43 -14 18 -21 33 -75 36 -132 3 -44 0 -55 -21 -75 -13 -12 -24 -29 -24 -36 0 -7 -14 -16 -30 -20 -17 -3 -33 -10 -36 -14 -7 -12 -61 -12 -68 0 -3 5 -15 7 -25 4 -12 -3 -27 4 -41 19 -11 12 -28 31 -38 41 -9 10 -17 28 -18 40 -1 12 -5 35 -9 51 -8 28 -5 35 35 116 4 8 22 16 40 18 19 2 43 10 54 18 25 17 28 17 52 -1z m2081 -2180 c20 -20 45 -35 58 -35 14 0 35 -14 54 -35 65 -74 29 -156 -93 -214 -61 -29 -202 -65 -217 -55 -4 2 -1 26 6 52 9 27 15 89 15 145 0 138 22 176 104 177 30 0 45 -7 73 -35z m-4797 -7 c11 -12 20 -25 20 -29 0 -3 18 -9 39 -13 43 -7 71 -35 71 -73 0 -15 10 -28 29 -38 36 -18 71 -61 71 -86 0 -10 13 -28 30 -40 39 -30 44 -48 21 -79 -13 -18 -19 -42 -19 -74 1 -41 -3 -52 -35 -84 -27 -28 -37 -46 -37 -71 0 -37 -46 -91 -77 -91 -24 0 -43 -19 -43 -42 0 -10 -11 -25 -24 -33 -22 -15 -27 -15 -57 0 -27 14 -38 15 -74 5 -36 -10 -47 -9 -73 4 -17 9 -50 16 -72 16 -54 0 -77 13 -94 55 -13 31 -17 34 -49 28 -40 -6 -50 9 -45 72 1 20 -2 39 -8 43 -42 29 -55 92 -28 143 10 21 13 43 9 73 -5 31 -2 52 9 74 9 17 16 49 16 72 0 34 4 42 26 50 14 6 35 10 47 10 11 0 31 9 43 21 12 11 42 23 66 26 23 3 54 14 67 24 13 11 33 19 45 19 11 0 32 9 46 20 33 26 55 25 80 -2z m637 -878 c33 -20 60 -64 83 -133 7 -22 32 -64 57 -94 24 -30 43 -56 41 -58 -2 -2 -31 -11 -63 -20 -79 -21 -235 -21 -280 1 -70 33 -83 130 -25 183 16 14 35 44 42 66 10 29 22 45 48 57 44 23 58 22 97 -2z m-600 -20 c16 -13 34 -17 51 -14 39 8 82 -28 82 -67 0 -16 6 -40 14 -52 8 -13 14 -49 14 -86 0 -58 -3 -68 -28 -91 -15 -14 -30 -35 -34 -47 -5 -15 -20 -26 -44 -33 -21 -5 -46 -16 -57 -24 -26 -20 -59 -20 -75 -1 -7 8 -27 14 -48 13 -28 -1 -40 5 -58 28 -13 16 -35 42 -49 57 -18 20 -25 38 -23 60 1 18 -4 42 -10 54 -17 31 -15 57 8 86 11 14 20 33 20 43 0 33 40 64 84 64 23 0 50 7 60 15 27 21 63 19 93 -5z m4596 -50 c15 -16 32 -30 38 -30 5 0 16 -15 24 -34 8 -19 19 -38 25 -41 17 -10 1 -127 -18 -145 -10 -8 -25 -27 -35 -42 -12 -20 -26 -28 -47 -28 -16 0 -32 -5 -36 -11 -16 -26 -117 14 -172 69 -34 34 -42 49 -41 75 1 18 -2 44 -6 59 -5 20 -2 31 15 46 28 25 48 44 71 71 12 13 31 21 52 21 17 0 39 5 47 10 27 17 56 10 83 -20z"
       id="path8"
       style="fill:none" />
    <path
       d="M4148 8231 c-167 -37 -283 -87 -438 -189 -105 -69 -258 -221 -329 -327 -60 -89 -130 -232 -156 -316 l-18 -57 -136 5 c-118 5 -147 3 -221 -16 -255 -64 -457 -241 -550 -482 -40 -105 -53 -192 -48 -323 11 -235 118 -446 307 -603 111 -92 281 -163 388 -163 48 0 47 1 58 -104 3 -32 20 -97 38 -145 82 -218 247 -377 465 -449 105 -34 283 -36 382 -4 36 12 71 22 79 22 7 0 43 -28 81 -62 56 -53 213 -158 234 -158 3 0 6 12 6 28 0 39 10 49 55 56 22 4 46 13 54 20 11 12 2 19 -61 49 -89 41 -173 96 -247 163 l-53 48 -82 -17 c-102 -21 -249 -22 -330 -1 -130 34 -288 137 -371 241 -86 111 -144 257 -147 374 0 26 -3 51 -7 56 -3 5 -45 14 -92 21 -492 64 -762 614 -513 1043 51 87 163 196 244 237 112 55 214 75 354 69 67 -4 136 -9 153 -13 23 -4 34 -2 37 7 26 88 89 237 129 307 177 308 433 491 797 567 296 63 633 -11 889 -193 85 -60 214 -189 275 -275 l48 -67 64 59 c119 112 252 187 410 233 69 20 100 23 249 22 195 0 270 -16 413 -84 100 -48 153 -83 232 -156 244 -227 358 -552 306 -874 -25 -153 -79 -288 -163 -409 -24 -35 -41 -67 -36 -71 4 -3 32 -24 62 -45 211 -151 298 -510 175 -721 -53 -90 -156 -166 -284 -210 -85 -29 -292 -27 -380 5 -78 27 -170 85 -224 140 l-39 40 -71 -65 c-80 -75 -213 -145 -311 -164 -70 -14 -223 -15 -283 -1 l-43 9 -78 -77 c-140 -138 -289 -221 -473 -263 -98 -22 -115 -31 -78 -43 26 -8 70 -62 70 -86 0 -10 1 -19 3 -19 2 0 36 11 76 25 155 52 294 138 405 251 l65 66 76 -13 c192 -31 410 18 561 127 41 30 79 54 84 54 4 0 31 -15 59 -34 142 -96 413 -137 571 -87 288 91 487 440 415 726 -32 127 -148 301 -229 344 -14 8 -26 18 -26 22 0 4 23 44 50 88 61 99 93 170 127 281 22 71 26 110 30 245 4 136 2 175 -17 264 -40 198 -126 365 -259 504 -211 221 -476 337 -770 337 -269 0 -484 -76 -669 -238 l-75 -66 -16 24 c-43 66 -165 201 -227 251 -231 188 -450 266 -769 274 -142 4 -184 2 -257 -14z"
       id="path10"
       style="fill:#6699ff" />
    <path
       d="M4190 8090 c-409 -87 -758 -414 -865 -810 -10 -36 -21 -69 -26 -74 -4 -5 -42 -2 -89 8 -154 31 -306 13 -440 -51 -108 -52 -223 -169 -278 -284 -48 -99 -65 -175 -64 -284 2 -277 153 -511 405 -625 59 -26 91 -34 242 -57 l50 -8 6 -75 c13 -158 73 -292 183 -408 81 -85 172 -143 283 -180 65 -21 97 -26 193 -26 81 0 132 5 172 17 80 24 89 22 138 -29 57 -58 132 -110 237 -163 96 -48 158 -54 200 -21 14 11 36 20 48 20 12 0 34 9 48 20 36 29 65 25 85 -10 13 -22 24 -30 45 -30 19 0 39 -10 57 -30 35 -37 60 -38 176 -4 160 46 313 141 428 264 l57 63 75 -13 c95 -16 238 -8 324 19 88 28 179 83 259 158 36 35 68 63 71 63 3 0 26 -21 50 -46 100 -103 222 -159 374 -170 215 -16 417 91 499 263 29 63 32 76 32 168 0 179 -54 316 -169 431 -39 38 -88 78 -108 88 -21 9 -38 20 -38 23 0 3 22 35 49 72 257 348 245 826 -29 1164 -253 312 -670 425 -1054 286 -110 -40 -220 -111 -319 -208 -69 -66 -80 -74 -88 -58 -57 101 -236 290 -345 364 -127 86 -286 149 -448 178 -120 21 -317 19 -426 -5z m431 -669 c24 -24 29 -38 29 -75 0 -38 -4 -48 -25 -62 -21 -13 -31 -15 -50 -6 -46 21 -41 92 6 92 20 0 23 8 13 34 -8 21 -60 21 -72 0 -17 -30 7 -102 99 -306 124 -275 110 -253 138 -231 l22 18 -32 69 c-68 146 -43 282 57 302 57 11 114 -61 114 -145 0 -21 -9 -69 -21 -106 l-21 -67 33 -34 c60 -62 118 -36 122 56 2 40 0 43 -33 53 -45 15 -61 54 -36 91 9 14 25 26 36 26 26 0 60 -34 60 -60 0 -50 33 -4 45 64 4 20 12 36 17 36 17 0 0 -80 -26 -125 -13 -22 -28 -62 -35 -89 -20 -80 -57 -145 -96 -163 -31 -15 -37 -15 -79 1 -25 10 -55 29 -65 42 -19 25 -20 25 -46 8 -25 -16 -26 -20 -18 -63 22 -124 -2 -235 -66 -299 -38 -37 -63 -40 -108 -12 l-33 20 0 -41 c0 -59 -20 -131 -44 -157 -23 -25 -57 -23 -88 5 -17 15 -18 13 -18 -35 0 -60 -24 -128 -51 -142 -26 -15 -66 -12 -93 5 l-24 16 -6 -53 c-11 -85 -27 -138 -49 -153 -41 -29 -65 -1 -170 204 -54 105 -102 191 -106 191 -4 0 -23 -22 -44 -49 l-36 -50 70 -126 c113 -202 126 -262 79 -355 -50 -98 -168 -133 -194 -58 -23 64 46 127 86 78 23 -29 20 -52 -10 -65 -12 -5 -21 -14 -19 -19 6 -18 24 -17 47 2 19 15 23 28 23 74 0 66 -28 132 -111 260 -50 79 -58 87 -69 71 -34 -45 -44 -149 -16 -160 9 -4 19 -1 21 5 2 7 14 12 27 12 18 0 25 -7 30 -29 18 -83 -70 -98 -111 -19 -22 42 -14 120 19 192 l25 54 -35 59 c-127 208 -192 386 -178 483 7 47 55 163 72 173 6 4 12 -27 16 -81 7 -118 36 -203 120 -357 102 -187 87 -175 137 -110 l43 55 -53 113 c-111 236 -136 338 -106 440 19 66 51 95 85 78 23 -13 61 -61 85 -108 25 -49 55 -199 59 -298 l4 -90 106 -218 c61 -123 111 -216 117 -212 19 12 11 108 -11 140 -40 59 -79 144 -95 209 -15 62 -15 69 0 111 25 64 69 99 117 91 34 -6 36 -5 31 19 -4 26 39 105 57 105 6 0 51 -79 101 -175 50 -96 96 -177 102 -181 20 -12 29 21 25 96 -3 63 -8 83 -34 125 -47 77 -207 354 -239 414 -16 29 -39 60 -51 68 -21 14 -26 14 -48 -1 -56 -37 -95 -164 -75 -246 7 -28 16 -50 21 -50 5 0 17 16 26 35 27 57 83 43 83 -21 0 -34 -33 -84 -55 -84 -33 0 -66 26 -86 67 -18 37 -21 57 -17 121 6 91 35 158 101 227 38 39 49 45 84 45 26 0 45 -6 55 -17 16 -20 137 -227 243 -417 77 -139 142 -236 156 -236 17 0 40 68 33 98 -4 15 -49 119 -99 232 -205 455 -204 451 -162 525 23 42 75 75 115 75 13 0 37 -13 53 -29z m1584 -187 c47 -51 26 -144 -32 -144 -18 0 -28 9 -39 37 -15 34 -15 38 2 50 10 7 24 13 32 13 24 0 10 45 -16 48 -32 5 -62 -25 -62 -60 0 -16 60 -181 134 -367 141 -353 166 -439 166 -565 0 -252 -246 -581 -386 -517 -47 21 -67 111 -42 192 21 72 106 149 163 149 9 0 30 -13 46 -29 47 -48 36 -130 -22 -161 -24 -13 -55 1 -64 30 -9 28 11 50 45 50 35 0 46 25 25 56 -23 35 -60 31 -102 -11 -33 -33 -35 -39 -30 -83 8 -66 25 -99 58 -112 54 -23 133 42 205 165 27 46 29 58 29 145 -1 80 -7 117 -39 230 -22 74 -42 139 -47 144 -4 4 -10 -12 -14 -37 -10 -66 -38 -107 -74 -107 -16 0 -34 7 -41 15 -14 17 -35 21 -25 5 9 -14 -14 -120 -31 -147 -19 -29 -64 -30 -90 -2 -18 20 -19 20 -30 -62 -10 -70 -17 -87 -39 -106 -30 -26 -63 -29 -91 -8 -10 8 -22 15 -25 15 -4 0 -9 -28 -11 -63 -6 -74 -31 -134 -60 -143 -13 -4 -31 2 -49 15 -15 12 -31 21 -34 21 -3 0 -5 -21 -5 -47 0 -101 -32 -153 -93 -153 -40 0 -69 22 -116 89 -53 77 -98 171 -112 239 -20 98 29 180 115 189 l46 6 -52 99 c-44 87 -53 99 -72 94 -11 -3 -45 -6 -73 -6 l-53 0 0 -65 c0 -71 -22 -140 -51 -155 -27 -15 -70 -12 -89 5 -16 14 -18 11 -22 -43 -11 -113 -55 -159 -123 -126 -32 15 -43 30 -82 113 -25 53 -56 124 -70 159 -14 34 -28 62 -32 62 -4 0 -15 -26 -23 -57 l-16 -56 69 -150 c38 -83 69 -159 69 -169 0 -22 -48 -108 -60 -108 -4 0 -24 37 -44 83 -21 45 -56 124 -79 176 -23 52 -47 96 -53 98 -5 2 -16 -13 -23 -32 -12 -34 -21 -42 -33 -29 -6 6 77 203 91 217 5 5 17 -2 26 -17 10 -14 21 -26 24 -26 4 0 13 23 20 52 13 59 66 148 87 148 8 0 14 -1 14 -3 0 -18 163 -352 172 -352 7 0 22 26 32 59 l19 59 -61 151 c-34 84 -62 158 -62 166 0 19 49 100 61 100 11 0 25 -30 108 -229 31 -74 61 -136 67 -138 12 -4 44 75 44 106 0 9 -18 45 -40 81 -75 121 -98 244 -61 327 21 46 45 63 88 63 20 0 36 10 55 32 28 35 51 32 29 -4 -11 -18 -9 -24 17 -52 16 -17 32 -38 36 -46 3 -8 4 -4 1 10 -28 131 -27 160 7 217 38 64 128 60 163 -8 21 -40 21 -141 0 -201 -20 -57 -19 -68 7 -95 49 -52 102 -17 148 98 l33 81 -31 64 c-51 103 -39 177 25 153 44 -16 56 -52 50 -140 -6 -68 -4 -84 13 -111 l19 -32 11 30 c44 121 78 184 100 184 8 0 64 -101 221 -407 93 -180 112 -198 125 -117 7 51 13 36 -116 333 -90 206 -93 301 -14 371 47 40 104 42 139 4z m244 -91 c59 -118 54 -156 -32 -251 -34 -37 -69 -78 -79 -92 -10 -17 -19 -22 -26 -15 -18 19 -52 126 -52 165 0 57 14 86 75 151 29 32 56 68 60 79 10 32 23 24 54 -37z m197 -278 c-40 -110 -105 -165 -198 -165 -29 0 -65 -6 -80 -14 -15 -8 -29 -12 -32 -8 -14 14 -4 79 19 118 30 52 133 124 179 125 17 0 51 6 76 13 25 7 49 9 53 6 4 -4 -3 -37 -17 -75z m-3431 -46 c93 -13 118 -24 159 -69 31 -35 85 -164 73 -176 -3 -3 -14 -1 -24 4 -10 5 -49 13 -88 16 -151 15 -185 40 -216 157 -24 93 -24 93 4 85 12 -4 54 -11 92 -17z m1675 -69 c11 -11 20 -27 20 -35 0 -18 -44 -65 -60 -65 -16 0 -60 47 -60 65 0 21 36 55 60 55 11 0 29 -9 40 -20z m-1452 -199 c64 -32 80 -81 28 -81 -12 0 -44 -17 -70 -37 -41 -32 -57 -38 -109 -41 -56 -4 -69 0 -136 35 -76 39 -86 51 -54 68 10 5 40 23 67 39 26 16 65 33 85 37 57 12 144 3 189 -20z m1072 -661 c49 -98 94 -182 101 -185 19 -13 30 17 27 77 -3 65 12 79 26 22 11 -48 -7 -160 -32 -194 -25 -33 -58 -37 -87 -10 l-23 21 -7 -70 c-8 -76 -29 -115 -72 -132 -53 -20 -126 51 -192 185 -72 144 -77 226 -19 291 25 30 37 35 73 35 42 0 43 1 43 34 0 37 47 120 63 111 5 -4 50 -87 99 -185z"
       id="path12"
       style="fill:#3399ff" />
    <path
       d="M4826 7198 c-17 -65 7 -218 34 -218 12 0 30 75 30 129 0 83 -48 149 -64 89z"
       id="path14"
       style="fill:#0099ff" />
    <path
       d="M4987 7103 c-13 -13 -7 -61 9 -67 44 -17 58 9 28 52 -16 23 -26 27 -37 15z"
       id="path16"
       style="fill:#0099ff" />
    <path
       d="M3784 6965 c-4 -8 6 -50 22 -92 33 -94 120 -283 129 -283 10 0 -5 116 -26 199 -32 125 -105 228 -125 176z"
       id="path18"
       style="fill:#0099ff" />
    <path
       d="M4190 6582 c-33 -27 -29 -81 14 -182 39 -91 93 -172 125 -190 26 -14 36 6 45 85 6 58 4 63 -47 163 -76 148 -91 161 -137 124z"
       id="path20"
       style="fill:#0099ff" />
    <path
       d="M5630 7065 c0 -36 28 -105 42 -105 19 0 12 99 -9 123 -24 26 -33 21 -33 -18z"
       id="path22"
       style="fill:#0099ff" />
    <path
       d="M5406 7024 c-18 -46 4 -213 29 -217 16 -3 36 85 32 140 -5 68 -45 118 -61 77z"
       id="path24"
       style="fill:#0099ff" />
    <path
       d="M5793 6888 c-22 -28 -34 -84 -23 -112 5 -15 10 -47 10 -72 0 -38 -4 -46 -25 -56 -50 -22 -70 33 -41 112 12 31 11 40 -6 74 -11 21 -23 34 -27 30 -4 -5 -22 -45 -40 -89 -58 -148 -95 -187 -159 -168 -21 6 -45 14 -54 18 -16 6 -18 1 -18 -44 0 -46 14 -79 141 -328 78 -153 145 -282 150 -288 17 -17 29 16 29 78 0 50 -5 67 -40 124 -46 77 -78 158 -87 219 -4 32 0 53 16 87 29 59 62 81 113 74 34 -5 38 -3 33 13 -8 25 35 111 54 108 8 -2 57 -84 109 -182 86 -161 96 -177 109 -161 7 11 13 38 13 62 0 35 -21 84 -109 261 -124 247 -132 260 -148 240z"
       id="path26"
       style="fill:#0099ff" />
    <path
       d="M5168 6829 c-47 -27 5 -215 83 -304 41 -46 67 -48 39 -2 -11 17 -20 42 -20 54 0 25 40 113 51 113 5 0 19 -18 32 -40 23 -39 37 -43 37 -11 0 9 -18 45 -40 81 -34 55 -40 61 -40 38 0 -15 -7 -34 -16 -42 -34 -35 -94 29 -94 100 0 26 -6 29 -32 13z"
       id="path28"
       style="fill:#0099ff" />
    <path
       d="M5230 6802 c0 -31 27 -75 41 -67 16 10 10 61 -9 78 -26 23 -32 21 -32 -11z"
       id="path30"
       style="fill:#0099ff" />
    <path
       d="M5737 6744 c-4 -4 -7 -23 -7 -41 0 -38 23 -42 28 -5 4 25 -11 56 -21 46z"
       id="path32"
       style="fill:#0099ff" />
    <path
       d="M5717 6502 c-21 -23 -21 -63 -1 -133 30 -99 94 -208 137 -231 31 -16 47 14 47 89 0 54 -6 75 -42 148 -38 77 -58 102 -58 75 0 -15 -47 -12 -53 4 -9 23 14 38 29 18 12 -16 13 -15 14 4 0 42 -44 58 -73 26z"
       id="path34"
       style="fill:#0099ff" />
    <path
       d="M5399 6159 c-18 -18 -21 -29 -16 -68 7 -59 56 -175 102 -245 59 -89 89 -84 100 18 7 62 6 64 -53 183 -70 138 -90 155 -133 112z"
       id="path36"
       style="fill:#0099ff" />
    <path
       d="M6363 7107 c-73 -75 -83 -94 -83 -152 1 -45 27 -132 29 -95 1 9 17 49 37 90 20 41 40 88 43 104 4 16 13 32 20 34 22 7 6 -64 -34 -151 -19 -41 -35 -81 -35 -88 0 -18 66 47 101 100 34 52 36 83 10 143 -33 73 -32 73 -88 15z"
       id="path38"
       style="fill:#66cc66" />
    <path
       d="M6495 6878 c-60 -32 -88 -57 -106 -92 -21 -40 -18 -40 36 -1 28 21 111 65 120 65 2 0 2 -6 -1 -14 -3 -8 -26 -23 -52 -35 -26 -11 -60 -31 -77 -45 l-30 -25 60 -1 c48 0 68 5 96 24 32 22 79 97 79 126 0 13 -100 12 -125 -2z"
       id="path40"
       style="fill:#66cc66" />
    <path
       d="M3135 6769 c18 -108 59 -141 190 -153 81 -8 78 -4 -40 54 -80 38 -125 74 -111 87 4 4 15 2 24 -5 23 -16 212 -110 212 -105 0 2 -11 26 -25 54 -31 60 -70 86 -144 94 -31 3 -69 9 -85 12 l-28 5 7 -43z"
       id="path42"
       style="fill:#66cc66" />
    <path
       d="M3235 6538 c-11 -6 -37 -25 -58 -41 l-38 -30 27 -18 c15 -10 49 -23 75 -29 42 -10 53 -9 91 9 50 23 94 59 84 68 -5 6 -58 -2 -158 -24 -16 -3 -28 -1 -28 4 0 11 91 32 160 36 l45 3 -37 17 c-42 19 -133 22 -163 5z"
       id="path44"
       style="fill:#66cc66" />
    <path
       d="M4303 5888 c-20 -26 -21 -60 -1 -125 27 -91 71 -172 119 -219 48 -47 59 -39 71 48 7 62 7 65 -39 155 -43 83 -49 91 -63 78 -22 -20 -56 -19 -64 1 -7 19 12 47 25 38 14 -8 29 5 22 21 -6 18 -57 20 -70 3z"
       id="path46"
       style="fill:#0099ff" />
    <path
       d="M2431 7572 c-8 -16 -8 -27 1 -46 11 -25 12 -25 30 -10 23 21 22 26 -1 55 l-18 23 -12 -22z"
       id="path48"
       style="fill:#ff33ff" />
    <path
       d="M2335 7536 c-20 -18 -39 -26 -65 -26 -93 0 -102 -64 -20 -153 38 -41 51 -49 61 -40 10 10 9 17 -6 33 -10 11 -15 23 -11 27 4 4 16 -3 26 -17 27 -35 32 -22 9 24 -10 22 -19 44 -19 50 1 19 40 -35 40 -55 0 -10 5 -21 12 -25 8 -5 9 2 5 24 -4 19 -2 32 3 32 6 0 10 -8 10 -17 0 -22 17 -50 24 -42 3 3 10 29 16 57 11 61 -3 117 -36 139 -20 13 -25 12 -49 -11z"
       id="path50"
       style="fill:#ff99ff" />
    <path
       d="M2494 7513 c-29 -24 -40 -49 -52 -111 -10 -56 -4 -65 22 -29 16 22 16 22 10 -10 -8 -44 10 -43 58 4 53 51 59 34 8 -21 -43 -46 -40 -60 5 -30 15 10 25 12 25 5 0 -6 -11 -18 -25 -27 -58 -38 28 -41 92 -3 58 36 57 69 -4 125 -26 24 -52 58 -57 76 -13 39 -49 48 -82 21z"
       id="path52"
       style="fill:#ff99ff" />
    <path
       d="M2114 7445 c-10 -25 3 -42 35 -47 25 -4 31 -1 31 13 0 17 -35 49 -53 49 -4 0 -10 -7 -13 -15z"
       id="path54"
       style="fill:#ff33ff" />
    <path
       d="M2097 7362 c-13 -14 -15 -30 -10 -69 4 -42 2 -58 -16 -86 -17 -27 -19 -40 -12 -60 24 -62 93 -73 181 -28 60 30 74 58 26 53 -18 -3 -26 0 -22 7 4 6 14 11 22 11 8 0 14 7 14 15 0 11 -13 15 -54 15 -30 0 -58 5 -61 10 -4 6 17 10 54 10 66 0 79 12 31 29 -41 14 -38 25 5 17 46 -9 44 2 -8 41 -72 54 -122 66 -150 35z"
       id="path56"
       style="fill:#ff99ff" />
    <path
       d="M2360 7317 c-36 -13 -60 -46 -60 -85 0 -50 51 -112 93 -112 27 0 117 81 117 105 0 31 -37 84 -66 95 -31 12 -40 12 -84 -3z"
       id="path58"
       style="fill:#ff9933" />
    <path
       d="M2271 7108 c-69 -34 -96 -94 -69 -153 9 -21 18 -25 55 -25 23 0 43 4 43 9 0 5 20 40 45 76 25 37 42 72 38 78 -3 5 -17 -12 -31 -39 -14 -27 -27 -44 -29 -37 -2 6 3 25 11 42 23 44 20 56 -9 37 -29 -19 -33 -11 -8 16 21 24 8 23 -46 -4z"
       id="path60"
       style="fill:#ff99ff" />
    <path
       d="M2120 7050 c-26 -26 -25 -40 3 -40 25 0 57 28 57 48 0 19 -38 14 -60 -8z"
       id="path62"
       style="fill:#ff33ff" />
    <path
       d="M4653 5014 c-3 -8 0 -27 6 -41 11 -24 13 -25 31 -8 15 14 17 21 8 41 -13 27 -36 32 -45 8z"
       id="path64"
       style="fill:#cc99ff" />
    <path
       d="M4550 4975 c-21 -16 -47 -25 -70 -25 -43 0 -60 -14 -60 -50 0 -41 79 -140 112 -140 14 0 9 23 -9 42 -9 10 -13 21 -9 26 4 4 16 -4 27 -17 28 -34 31 -23 8 28 -11 24 -17 47 -13 50 6 7 24 -20 41 -64 l11 -30 1 33 c1 38 21 34 21 -4 0 -14 6 -24 14 -24 34 0 33 163 0 187 -25 18 -35 16 -74 -12z"
       id="path66"
       style="fill:#ffccff" />
    <path
       d="M4730 4967 c-14 -7 -32 -28 -42 -47 -21 -45 -33 -130 -19 -130 6 0 11 6 11 14 0 8 5 18 12 22 7 5 9 1 6 -13 -3 -12 -2 -27 3 -34 7 -11 19 -4 50 29 23 24 43 41 46 39 8 -9 -15 -44 -43 -66 -32 -25 -24 -40 11 -21 14 7 28 10 32 5 5 -4 3 -10 -3 -12 -24 -8 -49 -32 -41 -39 9 -10 94 12 125 32 16 10 22 24 22 49 0 28 -8 40 -44 70 -24 20 -47 48 -51 63 -13 52 -31 61 -75 39z"
       id="path68"
       style="fill:#ffccff" />
    <path
       d="M4335 4900 c-9 -14 4 -50 18 -50 7 0 23 -3 36 -7 21 -5 23 -3 16 18 -4 13 -10 27 -14 30 -13 14 -50 19 -56 9z"
       id="path70"
       style="fill:#cc99ff" />
    <path
       d="M4326 4819 c-16 -10 -17 -19 -12 -69 6 -48 3 -64 -14 -92 -26 -43 -25 -59 5 -92 19 -20 33 -26 66 -26 51 0 149 44 149 66 0 12 -6 15 -25 10 -27 -7 -35 8 -10 18 8 3 15 12 15 21 0 12 -12 15 -55 15 -34 0 -55 4 -55 11 0 8 17 10 55 5 45 -5 55 -3 55 9 0 8 -11 17 -25 21 -36 9 -31 27 5 19 17 -4 30 -3 30 2 0 13 -101 83 -120 83 -10 0 -24 2 -32 5 -7 2 -21 0 -32 -6z"
       id="path72"
       style="fill:#ffccff" />
    <path
       d="M4556 4749 c-21 -17 -26 -29 -26 -68 0 -82 57 -131 130 -111 49 13 73 47 73 102 0 34 -6 47 -32 70 -40 35 -105 39 -145 7z"
       id="path74"
       style="fill:#ff9933" />
    <path
       d="M4896 4735 c-10 -7 -15 -18 -11 -24 9 -15 38 -14 61 4 16 13 17 16 4 25 -20 13 -31 12 -54 -5z"
       id="path76"
       style="fill:#cc99ff" />
    <path
       d="M4793 4693 c-24 -3 -33 -9 -33 -24 0 -14 7 -19 26 -19 14 0 23 -4 19 -10 -3 -5 -17 -10 -31 -10 -38 0 -28 -17 23 -40 59 -26 49 -39 -12 -15 -53 20 -63 15 -47 -20 13 -28 2 -34 -18 -10 -14 17 -20 18 -38 6 -21 -13 30 -106 68 -126 38 -20 52 -19 84 6 20 16 26 29 26 58 0 29 7 44 35 71 41 39 44 68 13 104 -24 27 -61 36 -115 29z"
       id="path78"
       style="fill:#ffccff" />
    <path
       d="M4504 4560 c-56 -24 -84 -62 -84 -115 0 -52 26 -80 67 -72 15 3 43 -1 62 -9 52 -22 87 -18 110 12 25 32 27 78 6 128 -18 42 -35 47 -35 11 0 -14 -4 -25 -10 -25 -5 0 -10 11 -10 25 0 31 -16 33 -23 3 -8 -30 -34 -65 -42 -56 -3 3 3 24 15 47 15 30 17 41 7 41 -7 0 -18 -5 -25 -12 -6 -6 -15 -8 -19 -4 -5 4 1 14 11 22 30 21 15 23 -30 4z"
       id="path80"
       style="fill:#ffccff" />
    <path
       d="M4352 4504 c-12 -8 -22 -24 -22 -35 0 -16 4 -19 23 -14 23 7 57 40 57 56 0 14 -34 10 -58 -7z"
       id="path82"
       style="fill:#cc99ff" />
    <path
       d="M4696 4393 c-8 -29 14 -60 33 -49 15 9 14 49 -1 64 -18 18 -25 15 -32 -15z"
       id="path84"
       style="fill:#cc99ff" />
    <path
       d="M2849 7976 c-13 -28 -4 -96 12 -96 6 0 26 -7 44 -16 32 -15 35 -14 74 10 29 19 41 33 41 50 0 30 -20 47 -48 40 -13 -4 -35 2 -55 15 -44 27 -55 26 -68 -3z"
       id="path86"
       style="fill:#ffff33" />
    <path
       d="M2730 7955 c-7 -8 -9 -22 -6 -32 4 -10 -3 -26 -19 -43 -29 -30 -25 -55 10 -64 41 -10 79 4 98 36 23 41 22 57 -10 90 -30 31 -54 36 -73 13z"
       id="path88"
       style="fill:#ffff33" />
    <path
       d="M2977 7854 c-15 -8 -33 -27 -38 -42 -9 -24 -7 -30 31 -64 62 -57 89 -35 82 65 -3 51 -6 57 -25 57 -12 -1 -35 -8 -50 -16z"
       id="path90"
       style="fill:#ffff33" />
    <path
       d="M2827 7842 c-22 -24 -21 -35 1 -55 37 -34 92 -16 92 30 0 41 -64 58 -93 25z"
       id="path92"
       style="fill:#ffcc00" />
    <path
       d="M2716 7778 c-21 -29 -21 -30 12 -66 15 -16 34 -40 43 -53 13 -19 18 -20 37 -10 12 6 27 29 33 51 11 37 10 40 -19 69 -38 38 -83 42 -106 9z"
       id="path94"
       style="fill:#ffff33" />
    <path
       d="M2891 7753 c-27 -22 -47 -99 -30 -119 15 -18 33 -18 49 1 7 8 27 17 46 21 47 9 46 41 -1 83 -20 17 -37 31 -39 31 -2 0 -14 -8 -25 -17z"
       id="path96"
       style="fill:#ffff33" />
    <path
       d="M3231 4946 c-9 -10 -8 -16 4 -26 13 -11 15 -8 15 14 0 30 -3 32 -19 12z"
       id="path98"
       style="fill:#66cc00" />
    <path
       d="M3284 4845 c1 -69 5 -105 12 -105 16 0 94 58 94 70 0 9 -99 140 -106 140 -1 0 -1 -47 0 -105z"
       id="path100"
       style="fill:#66cc00" />
    <path
       d="M3175 4880 c-17 -18 -16 -21 8 -62 14 -24 35 -55 46 -68 l20 -25 1 55 c0 38 -6 65 -20 88 -23 37 -31 39 -55 12z"
       id="path102"
       style="fill:#66cc00" />
    <path
       d="M3088 4811 l-32 -28 68 -74 c37 -41 73 -84 79 -96 15 -32 24 -28 32 13 5 31 1 45 -26 88 -18 28 -42 68 -53 88 -12 21 -24 38 -28 38 -4 0 -22 -13 -40 -29z"
       id="path104"
       style="fill:#66cc00" />
    <path
       d="M3389 4764 c-13 -14 -41 -35 -61 -45 -43 -22 -53 -37 -62 -96 -3 -23 -9 -48 -12 -57 -9 -23 173 73 214 113 l34 33 -38 39 c-21 22 -41 39 -44 39 -4 0 -17 -12 -31 -26z"
       id="path106"
       style="fill:#669900" />
    <path
       d="M2983 4737 c-18 -12 -33 -27 -33 -33 0 -16 44 -79 105 -149 28 -33 62 -75 74 -93 26 -38 31 -35 55 26 16 41 15 45 -4 88 -17 40 -144 185 -159 183 -3 0 -21 -10 -38 -22z"
       id="path108"
       style="fill:#669900" />
    <path
       d="M2868 4660 c-77 -48 -75 -58 22 -124 74 -51 133 -120 184 -216 l33 -62 17 53 c10 28 15 62 12 74 -3 12 -46 73 -96 134 -50 62 -97 126 -105 142 -9 16 -17 29 -18 29 -1 0 -23 -14 -49 -30z"
       id="path110"
       style="fill:#669900" />
    <path
       d="M3490 4655 c-19 -20 -70 -54 -114 -76 -89 -45 -136 -76 -151 -98 -13 -22 -64 -151 -59 -151 2 0 28 13 57 30 28 16 90 44 137 63 83 34 180 87 230 126 l25 20 -19 35 c-10 19 -30 46 -45 60 l-27 26 -34 -35z"
       id="path112"
       style="fill:#669900" />
    <path
       d="M2744 4555 l-27 -35 28 -40 c26 -37 63 -68 182 -153 28 -21 77 -65 108 -98 31 -34 59 -59 62 -55 10 10 -45 130 -91 198 -23 34 -67 82 -97 106 -29 23 -73 58 -96 77 l-42 35 -27 -35z"
       id="path114"
       style="fill:#006633" />
    <path
       d="M3591 4510 c-44 -37 -131 -84 -237 -125 -164 -64 -215 -114 -226 -217 -3 -27 -4 -48 -2 -48 2 0 18 9 36 20 18 11 105 43 193 71 187 60 263 97 311 153 27 32 34 46 29 66 -8 31 -53 110 -63 110 -4 -1 -22 -14 -41 -30z"
       id="path116"
       style="fill:#006633" />
    <path
       d="M2666 4463 c-14 -21 -26 -46 -26 -56 0 -32 28 -73 67 -98 21 -14 85 -56 143 -93 58 -38 114 -77 125 -87 11 -10 40 -25 63 -33 37 -13 42 -13 42 0 0 43 -100 152 -215 234 -77 55 -111 86 -146 133 l-28 38 -25 -38z"
       id="path118"
       style="fill:#003300" />
    <path
       d="M1797 4357 c-14 -21 -13 -25 4 -48 l19 -24 0 28 c0 15 5 27 10 27 6 0 10 -8 10 -17 0 -13 3 -14 11 -6 9 9 8 18 -5 37 -20 32 -29 32 -49 3z"
       id="path120"
       style="fill:#ffccff" />
    <path
       d="M1906 4349 c-53 -41 -64 -88 -50 -206 6 -47 10 -53 30 -53 12 0 34 -4 48 -9 23 -9 27 -5 66 55 50 75 61 134 36 182 -28 55 -83 68 -130 31z"
       id="path122"
       style="fill:#3366ff" />
    <path
       d="M2606 4328 c-12 -46 -6 -74 22 -100 57 -53 88 -66 171 -78 45 -6 90 -14 99 -16 30 -10 -29 34 -118 88 -47 28 -104 69 -126 90 -41 39 -41 39 -48 16z"
       id="path124"
       style="fill:#003300" />
    <path
       d="M3682 4327 c-42 -45 -131 -87 -295 -141 -169 -55 -258 -96 -256 -119 0 -7 31 -27 70 -46 l69 -34 72 21 c40 11 115 25 167 32 53 6 110 19 132 31 43 21 84 76 94 126 7 33 -12 153 -25 153 -3 0 -16 -10 -28 -23z"
       id="path126"
       style="fill:#003300" />
    <path
       d="M1639 4309 c-19 -21 -29 -42 -29 -63 0 -37 41 -106 92 -154 l35 -33 53 17 52 17 -6 55 c-8 69 -41 147 -74 172 -38 31 -88 26 -123 -11z"
       id="path128"
       style="fill:#9966ff" />
    <path
       d="M2088 4299 c-10 -5 -18 -19 -18 -31 0 -20 1 -21 20 -3 27 24 38 11 14 -17 -18 -20 -18 -21 -1 -15 10 4 25 7 33 7 9 0 14 11 14 35 0 30 -3 35 -22 35 -13 0 -31 -5 -40 -11z"
       id="path130"
       style="fill:#ffccff" />
    <path
       d="M1546 4253 c-12 -13 -6 -40 14 -58 11 -10 23 -15 28 -10 4 4 1 10 -5 12 -7 3 -13 11 -13 19 0 9 5 12 10 9 6 -3 10 -2 10 4 0 13 -35 32 -44 24z"
       id="path132"
       style="fill:#ffccff" />
    <path
       d="M2105 4210 c-60 -27 -158 -170 -117 -170 4 0 19 -18 32 -40 29 -45 32 -45 123 3 70 36 107 78 107 118 0 70 -79 118 -145 89z"
       id="path134"
       style="fill:#ff33ff" />
    <path
       d="M2590 4190 c0 -23 18 -33 49 -28 18 3 16 6 -14 26 -35 22 -35 22 -35 2z"
       id="path136"
       style="fill:#003300" />
    <path
       d="M1494 4170 c-32 -13 -64 -59 -64 -92 0 -53 85 -111 197 -133 30 -6 33 -4 48 31 9 21 22 46 31 55 13 14 9 21 -41 68 -51 49 -108 82 -137 80 -7 0 -23 -4 -34 -9z"
       id="path138"
       style="fill:#00cc66" />
    <path
       d="M2551 4122 c-22 -4 -23 -6 -17 -64 9 -79 14 -88 42 -88 23 0 24 3 24 63 0 71 -13 95 -49 89z"
       id="path140"
       style="fill:#ff6600" />
    <path
       d="M2632 4053 l3 -78 35 0 35 0 6 55 c8 88 3 100 -43 100 l-39 0 3 -77z"
       id="path142"
       style="fill:#ff6600" />
    <path
       d="M2746 4083 c-3 -21 -6 -55 -6 -76 0 -36 2 -38 27 -35 25 3 29 9 41 62 16 72 11 86 -26 86 -26 0 -30 -4 -36 -37z"
       id="path144"
       style="fill:#ff9900" />
    <path
       d="M2431 4101 c-26 -17 27 -141 61 -141 19 0 20 3 14 61 -4 33 -10 67 -13 75 -6 16 -40 19 -62 5z"
       id="path146"
       style="fill:#ff9900" />
    <path
       d="M2841 4039 c-14 -79 -9 -92 38 -87 21 3 27 13 42 68 10 36 15 68 11 72 -4 3 -23 9 -42 13 l-35 6 -14 -72z"
       id="path148"
       style="fill:#ff6600" />
    <path
       d="M3700 4074 c-37 -39 -81 -54 -223 -75 -71 -11 -137 -24 -148 -29 -18 -10 -18 -12 13 -37 18 -15 57 -49 85 -75 l53 -49 41 23 c73 41 134 104 173 178 41 78 44 105 6 64z"
       id="path150"
       style="fill:#003300" />
    <path
       d="M3760 4015 c-46 -97 -97 -158 -171 -205 -27 -18 -49 -37 -49 -44 0 -6 11 -24 23 -40 l24 -29 79 67 c110 94 174 130 326 185 73 27 133 52 135 57 2 5 -25 16 -60 25 -34 9 -87 25 -117 37 -30 11 -76 23 -102 27 l-46 7 -42 -87z"
       id="path152"
       style="fill:#00cc00" />
    <path
       d="M2256 4074 c-9 -24 -8 -25 22 -18 l27 6 -23 -19 c-13 -10 -20 -22 -16 -26 15 -15 34 -6 48 22 14 27 14 29 -10 40 -33 15 -41 14 -48 -5z"
       id="path154"
       style="fill:#ffccff" />
    <path
       d="M2361 4054 c-12 -33 -11 -38 13 -75 24 -35 56 -53 56 -31 0 15 -40 126 -48 134 -4 4 -14 -8 -21 -28z"
       id="path156"
       style="fill:#ff9900" />
    <path
       d="M2952 4009 l-20 -71 34 -14 c18 -8 38 -14 44 -14 9 0 70 110 70 128 0 7 -84 42 -101 42 -3 0 -15 -32 -27 -71z"
       id="path158"
       style="fill:#ff6600" />
    <path
       d="M1773 4040 c-79 -35 -102 -110 -62 -195 50 -106 158 -136 246 -69 43 33 63 73 63 126 0 126 -123 195 -247 138z m125 -18 c2 -7 -3 -12 -12 -12 -9 0 -16 7 -16 16 0 17 22 14 28 -4z m-88 -23 c0 -5 -7 -9 -15 -9 -15 0 -20 12 -9 23 8 8 24 -1 24 -14z m132 -14 c0 -5 -5 -11 -11 -13 -6 -2 -11 4 -11 13 0 9 5 15 11 13 6 -2 11 -8 11 -13z m-114 -36 c-2 -6 -8 -10 -13 -10 -5 0 -11 4 -13 10 -2 6 4 11 13 11 9 0 15 -5 13 -11z m-78 -15 c0 -17 -22 -14 -28 4 -2 7 3 12 12 12 9 0 16 -7 16 -16z m148 5 c-2 -6 -8 -10 -13 -10 -5 0 -11 4 -13 10 -2 6 4 11 13 11 9 0 15 -5 13 -11z m102 -14 c0 -8 -4 -15 -10 -15 -5 0 -10 7 -10 15 0 8 5 15 10 15 6 0 10 -7 10 -15z m-178 -50 c0 -5 -5 -11 -11 -13 -6 -2 -11 4 -11 13 0 9 5 15 11 13 6 -2 11 -8 11 -13z m-64 -7 c-6 -18 -28 -21 -28 -4 0 9 7 16 16 16 9 0 14 -5 12 -12z m182 2 c0 -5 -7 -10 -15 -10 -8 0 -15 5 -15 10 0 6 7 10 15 10 8 0 15 -4 15 -10z m-60 -21 c0 -5 -7 -9 -15 -9 -15 0 -20 12 -9 23 8 8 24 -1 24 -14z m111 -12 c-13 -13 -26 -3 -16 12 3 6 11 8 17 5 6 -4 6 -10 -1 -17z m-201 -22 c0 -8 -4 -15 -9 -15 -13 0 -22 16 -14 24 11 11 23 6 23 -9z m138 -16 c-2 -6 -8 -10 -13 -10 -5 0 -11 4 -13 10 -2 6 4 11 13 11 9 0 15 -5 13 -11z m-80 -10 c-2 -6 -8 -10 -13 -10 -5 0 -11 4 -13 10 -2 6 4 11 13 11 9 0 15 -5 13 -11z"
       id="path160"
       style="fill:#ccff00" />
    <path
       d="M7035 4005 c-23 -22 -35 -75 -17 -75 4 0 19 8 32 17 14 10 52 32 85 50 l60 33 -68 0 c-59 0 -71 -3 -92 -25z"
       id="path162"
       style="fill:#66cc00" />
    <path
       d="M7203 4010 c-24 -11 -43 -21 -43 -24 0 -9 77 -26 92 -21 8 3 25 19 37 35 l22 30 -33 -1 c-18 0 -52 -9 -75 -19z"
       id="path164"
       style="fill:#66cc00" />
    <path
       d="M1376 4007 c-18 -13 -18 -15 -1 -40 18 -28 27 -31 60 -18 19 8 19 8 -3 15 -31 10 -19 24 15 19 l28 -5 -25 21 c-29 24 -49 26 -74 8z"
       id="path166"
       style="fill:#ffccff" />
    <path
       d="M3079 3958 c-29 -58 -30 -63 -14 -75 23 -16 27 -13 65 53 33 59 33 84 0 84 -14 0 -28 -17 -51 -62z"
       id="path168"
       style="fill:#ff9900" />
    <path
       d="M6948 4010 c-64 -12 -71 -24 -64 -109 3 -41 8 -77 11 -79 3 -3 24 13 46 36 31 30 44 52 49 84 4 24 9 49 11 57 5 17 -7 20 -53 11z"
       id="path170"
       style="fill:#00cc00" />
    <path
       d="M2113 3968 c-60 -28 -63 -31 -63 -66 0 -21 -3 -46 -6 -58 -5 -17 3 -24 45 -42 87 -38 172 -22 223 41 28 35 23 90 -11 126 -25 27 -36 31 -78 30 -32 0 -69 -11 -110 -31z"
       id="path172"
       style="fill:#ffcc00" />
    <path
       d="M4130 3969 c-19 -10 -85 -34 -147 -54 -109 -34 -147 -55 -103 -55 12 0 57 -15 101 -34 113 -49 137 -53 148 -24 15 40 43 166 40 176 -2 6 -19 2 -39 -9z"
       id="path174"
       style="fill:#66ff66" />
    <path
       d="M6328 3972 c-7 -10 -25 -27 -40 -36 -33 -21 -34 -33 -9 -105 l19 -55 21 69 c23 75 37 145 28 145 -3 0 -12 -8 -19 -18z"
       id="path176"
       style="fill:#66cc00" />
    <path
       d="M6797 3964 c-72 -37 -80 -79 -34 -184 10 -25 23 -56 28 -69 9 -23 11 -22 45 30 34 53 34 55 32 151 -2 57 -7 98 -13 97 -5 0 -32 -11 -58 -25z"
       id="path178"
       style="fill:#00cc00" />
    <path
       d="M3159 3924 c-24 -43 -30 -61 -22 -73 19 -30 46 -18 86 39 l38 55 -22 17 c-33 28 -45 22 -80 -38z"
       id="path180"
       style="fill:#ff6600" />
    <path
       d="M6367 3954 c-4 -4 -7 -16 -7 -26 0 -10 -16 -66 -35 -124 -20 -59 -34 -109 -31 -111 8 -9 86 38 101 60 13 20 13 33 -3 115 -10 51 -21 90 -25 86z"
       id="path182"
       style="fill:#66cc00" />
    <path
       d="M7075 3941 c-16 -10 -43 -30 -60 -44 l-30 -25 40 -11 c85 -23 185 0 210 49 8 16 11 31 7 34 -5 3 -38 8 -73 11 -54 5 -69 3 -94 -14z"
       id="path184"
       style="fill:#66cc00" />
    <path
       d="M2487 3935 c-81 -16 -117 -29 -117 -45 0 -5 -5 -21 -12 -37 -7 -15 -12 -35 -12 -43 -1 -8 -12 -17 -25 -20 -36 -8 -35 -19 4 -79 19 -29 35 -58 35 -65 0 -21 130 -311 145 -322 8 -6 14 -19 13 -30 0 -10 14 -52 31 -93 17 -41 31 -80 31 -88 0 -25 -29 -26 -91 -2 -57 21 -62 21 -71 5 -11 -20 -31 -11 -23 13 4 13 -11 22 -73 45 -42 16 -128 48 -191 73 -62 24 -115 42 -116 41 -1 -2 -5 -12 -9 -24 -5 -18 1 -23 50 -40 44 -14 58 -16 61 -6 8 21 36 14 30 -7 -4 -15 2 -22 24 -30 19 -6 31 -6 35 0 3 6 17 -2 30 -17 21 -22 31 -25 59 -20 26 5 34 3 37 -10 2 -10 32 -28 77 -45 68 -27 74 -28 86 -13 8 12 14 14 19 6 4 -7 4 -17 1 -22 -4 -6 4 -19 16 -29 20 -16 22 -21 9 -35 -7 -10 -29 -24 -47 -31 -19 -8 -32 -19 -28 -25 3 -5 3 -15 -1 -22 -5 -8 -10 -6 -19 5 -10 14 -32 8 -193 -62 -99 -43 -187 -82 -194 -87 -7 -5 -45 -20 -85 -33 -70 -23 -73 -23 -99 -6 -15 9 -31 30 -37 45 -6 16 -20 31 -31 35 -19 5 -20 6 -4 18 13 11 15 21 7 61 -5 27 -16 54 -25 60 -14 11 -14 13 0 25 19 16 21 62 5 78 -9 9 -7 16 6 30 17 16 17 18 2 21 -9 2 -17 10 -17 18 0 17 17 19 23 2 2 -7 10 13 16 44 7 31 19 62 27 68 7 7 14 19 14 26 0 10 8 13 23 10 79 -16 92 -16 104 3 11 17 9 21 -10 27 -12 4 -33 19 -47 34 -19 21 -37 28 -77 32 l-52 5 -25 -76 c-14 -42 -28 -94 -31 -116 -4 -22 -9 -52 -11 -67 -4 -21 -2 -28 10 -28 9 0 16 -7 16 -15 0 -8 -7 -15 -15 -15 -17 0 -20 -54 -9 -148 5 -39 11 -52 22 -50 8 2 17 -3 20 -11 3 -10 0 -12 -12 -8 -17 7 -20 -3 -10 -41 4 -13 13 -21 22 -20 8 2 17 -3 19 -9 3 -7 -3 -13 -12 -13 -18 0 -17 -6 16 -96 34 -89 149 -264 176 -264 6 0 18 -12 25 -27 7 -16 27 -34 45 -42 17 -8 33 -22 36 -31 6 -22 139 -105 225 -140 92 -37 199 -61 308 -67 97 -6 114 0 95 36 -13 24 -123 40 -146 21 -12 -10 -16 -9 -21 4 -3 9 -15 16 -25 16 -11 0 -35 6 -54 14 -47 20 -62 74 -39 141 11 34 13 50 5 58 -16 16 -13 27 8 27 22 0 64 103 55 138 -5 15 -2 22 8 22 10 0 28 34 52 96 33 88 35 98 20 109 -12 8 -14 14 -6 19 7 4 16 5 21 2 5 -4 17 14 27 39 9 26 26 52 36 60 26 17 22 71 -4 67 -11 -2 -18 3 -18 14 0 10 5 14 15 10 12 -4 15 5 15 54 0 49 -3 58 -15 54 -9 -4 -15 0 -15 10 0 9 7 16 15 16 21 0 19 17 -4 29 -11 6 -47 75 -86 163 -36 84 -73 160 -81 169 -8 8 -14 22 -14 31 0 8 -20 59 -45 114 -71 157 -58 207 58 233 31 7 57 16 57 21 0 4 18 6 41 3 28 -4 44 -2 49 7 7 11 12 11 22 2 8 -6 52 -13 99 -15 71 -4 92 -9 127 -31 49 -31 53 -52 24 -137 -11 -30 -17 -60 -14 -67 2 -7 -3 -19 -11 -25 -13 -11 -87 -196 -102 -259 -6 -25 -4 -28 18 -28 22 0 28 10 62 103 20 56 50 137 66 179 34 89 34 92 14 84 -9 -3 -15 0 -15 10 0 10 6 13 18 10 13 -5 22 1 30 18 12 28 91 73 101 59 3 -5 31 -24 62 -41 31 -17 73 -45 94 -62 21 -16 44 -30 52 -30 7 0 17 -10 22 -22 5 -13 28 -47 52 -77 24 -30 44 -60 44 -65 1 -6 5 -24 9 -39 13 -43 -6 -72 -65 -100 l-52 -24 127 -2 c69 -1 126 1 126 4 0 18 -31 75 -40 75 -6 0 -10 8 -8 18 3 19 -36 92 -50 92 -5 0 -12 13 -15 29 -10 48 -175 206 -282 269 -49 29 -108 58 -130 64 -22 6 -56 17 -75 26 -19 8 -48 15 -64 14 -17 0 -36 4 -44 10 -21 18 -246 20 -335 3z m211 -13 c2 -7 -3 -12 -12 -12 -9 0 -16 7 -16 16 0 17 22 14 28 -4z m-100 -3 c-2 -6 -8 -10 -13 -10 -5 0 -11 4 -13 10 -2 6 4 11 13 11 9 0 15 -5 13 -11z m192 -10 c0 -5 -7 -9 -15 -9 -15 0 -20 12 -9 23 8 8 24 -1 24 -14z m-300 -10 c0 -5 -7 -9 -15 -9 -15 0 -20 12 -9 23 8 8 24 -1 24 -14z m420 -9 c0 -5 -7 -10 -15 -10 -8 0 -15 5 -15 10 0 6 7 10 15 10 8 0 15 -4 15 -10z m-500 -21 c0 -5 -7 -9 -15 -9 -15 0 -20 12 -9 23 8 8 24 -1 24 -14z m540 -30 c0 -5 -7 -9 -15 -9 -15 0 -20 12 -9 23 8 8 24 -1 24 -14z m70 5 c0 -17 -22 -14 -28 4 -2 7 3 12 12 12 9 0 16 -7 16 -16z m90 -34 c0 -5 -4 -10 -9 -10 -6 0 -13 5 -16 10 -3 6 1 10 9 10 9 0 16 -4 16 -10z m-142 -21 c-2 -6 -8 -10 -13 -10 -5 0 -11 4 -13 10 -2 6 4 11 13 11 9 0 15 -5 13 -11z m-626 -44 c0 -5 -5 -11 -11 -13 -6 -2 -11 4 -11 13 0 9 5 15 11 13 6 -2 11 -8 11 -13z m858 0 c0 -8 -4 -15 -9 -15 -13 0 -22 16 -14 24 11 11 23 6 23 -9z m70 -50 c0 -8 -4 -15 -9 -15 -13 0 -22 16 -14 24 11 11 23 6 23 -9z m60 -66 c0 -5 -7 -9 -15 -9 -15 0 -20 12 -9 23 8 8 24 -1 24 -14z m50 -54 c0 -8 -4 -15 -9 -15 -13 0 -22 16 -14 24 11 11 23 6 23 -9z m-959 -8 c-1 -12 -15 -9 -19 4 -3 6 1 10 8 8 6 -3 11 -8 11 -12z m447 -39 c-6 -18 -28 -21 -28 -4 0 9 7 16 16 16 9 0 14 -5 12 -12z m582 -53 c0 -8 -4 -15 -9 -15 -13 0 -22 16 -14 24 11 11 23 6 23 -9z m-950 -76 c0 -5 -7 -9 -15 -9 -15 0 -20 12 -9 23 8 8 24 -1 24 -14z m950 6 c0 -8 -7 -15 -15 -15 -8 0 -15 7 -15 15 0 8 7 15 15 15 8 0 15 -7 15 -15z m-625 -5 c-3 -5 -10 -10 -16 -10 -5 0 -9 5 -9 10 0 6 7 10 16 10 8 0 12 -4 9 -10z m672 -46 c-9 -9 -28 6 -21 18 4 6 10 6 17 -1 6 -6 8 -13 4 -17z m-69 4 c-6 -18 -28 -21 -28 -4 0 9 7 16 16 16 9 0 14 -5 12 -12z m-1520 -39 c-2 -6 -8 -10 -13 -10 -5 0 -11 4 -13 10 -2 6 4 11 13 11 9 0 15 -5 13 -11z m-70 -20 c-2 -6 -8 -10 -13 -10 -5 0 -11 4 -13 10 -2 6 4 11 13 11 9 0 15 -5 13 -11z m732 -55 c0 -9 -5 -14 -12 -12 -18 6 -21 28 -4 28 9 0 16 -7 16 -16z m-778 -19 c0 -5 -5 -11 -11 -13 -6 -2 -11 4 -11 13 0 9 5 15 11 13 6 -2 11 -8 11 -13z m-14 -56 c-2 -6 -8 -10 -13 -10 -5 0 -11 4 -13 10 -2 6 4 11 13 11 9 0 15 -5 13 -11z m832 -10 c0 -5 -7 -9 -15 -9 -15 0 -20 12 -9 23 8 8 24 -1 24 -14z m-2 -87 c2 -7 -3 -12 -12 -12 -9 0 -16 7 -16 16 0 17 22 14 28 -4z m12 -47 c0 -8 -4 -15 -9 -15 -13 0 -22 16 -14 24 11 11 23 6 23 -9z m-848 -10 c0 -5 -5 -11 -11 -13 -6 -2 -11 4 -11 13 0 9 5 15 11 13 6 -2 11 -8 11 -13z m808 -36 c0 -5 -7 -9 -15 -9 -15 0 -20 12 -9 23 8 8 24 -1 24 -14z m-792 -57 c2 -7 -3 -12 -12 -12 -9 0 -16 7 -16 16 0 17 22 14 28 -4z m800 -4 c2 -9 -33 -110 -77 -224 -59 -153 -77 -211 -69 -221 7 -9 6 -14 -7 -19 -9 -4 -26 -27 -36 -51 -23 -54 -23 -53 -4 -53 8 0 15 -7 15 -16 0 -10 -6 -13 -18 -10 -12 4 -23 -3 -35 -24 -33 -55 -79 -53 -173 8 -32 21 -65 37 -72 34 -6 -2 -12 2 -12 9 0 17 -40 59 -57 59 -7 0 -13 6 -13 13 0 8 -14 34 -32 58 -18 24 -44 68 -59 97 l-28 53 32 29 c18 16 64 43 103 60 59 26 71 35 67 51 -6 21 7 25 24 8 15 -15 69 5 77 28 3 8 10 11 16 8 19 -12 80 15 80 36 0 21 10 25 27 8 7 -7 40 3 109 35 103 47 137 52 142 24z m52 7 c0 -8 -7 -15 -15 -15 -8 0 -15 7 -15 15 0 8 7 15 15 15 8 0 15 -7 15 -15z m-812 -226 c-2 -6 -8 -10 -13 -10 -5 0 -11 4 -13 10 -2 6 4 11 13 11 9 0 15 -5 13 -11z m130 0 c-2 -6 -8 -10 -13 -10 -5 0 -11 4 -13 10 -2 6 4 11 13 11 9 0 15 -5 13 -11z m-60 -17 c2 -7 -3 -12 -12 -12 -9 0 -16 7 -16 16 0 17 22 14 28 -4z m642 -23 c0 -5 -7 -9 -15 -9 -15 0 -20 12 -9 23 8 8 24 -1 24 -14z m-680 -15 c0 -17 -22 -14 -28 4 -2 7 3 12 12 12 9 0 16 -7 16 -16z m28 -35 c-2 -6 -8 -10 -13 -10 -5 0 -11 4 -13 10 -2 6 4 11 13 11 9 0 15 -5 13 -11z m30 -67 c2 -7 -3 -12 -12 -12 -9 0 -16 7 -16 16 0 17 22 14 28 -4z m22 -53 c0 -5 -7 -9 -15 -9 -15 0 -20 12 -9 23 8 8 24 -1 24 -14z m58 -40 c-2 -6 -8 -10 -13 -10 -5 0 -11 4 -13 10 -2 6 4 11 13 11 9 0 15 -5 13 -11z m62 -90 c0 -5 -7 -9 -15 -9 -15 0 -20 12 -9 23 8 8 24 -1 24 -14z m100 -60 c0 -5 -7 -9 -15 -9 -15 0 -20 12 -9 23 8 8 24 -1 24 -14z m40 -54 c0 -8 -4 -15 -10 -15 -5 0 -10 7 -10 15 0 8 5 15 10 15 6 0 10 -7 10 -15z m188 -6 c-2 -6 -8 -10 -13 -10 -5 0 -11 4 -13 10 -2 6 4 11 13 11 9 0 15 -5 13 -11z m-90 -10 c-2 -6 -8 -10 -13 -10 -5 0 -11 4 -13 10 -2 6 4 11 13 11 9 0 15 -5 13 -11z m42 -44 c0 -8 -7 -15 -15 -15 -8 0 -15 7 -15 15 0 8 7 15 15 15 8 0 15 -7 15 -15z m60 -10 c0 -8 -7 -15 -15 -15 -8 0 -15 7 -15 15 0 8 7 15 15 15 8 0 15 -7 15 -15z m80 -26 c0 -5 -7 -9 -15 -9 -15 0 -20 12 -9 23 8 8 24 -1 24 -14z m125 -39 c-5 -8 -11 -8 -17 -2 -6 6 -7 16 -3 22 5 8 11 8 17 2 6 -6 7 -16 3 -22z m83 18 c-6 -18 -28 -21 -28 -4 0 9 7 16 16 16 9 0 14 -5 12 -12z"
       id="path186"
       style="fill:#ffcc66" />
    <path
       d="M2270 2794 c-275 -119 -320 -145 -320 -183 0 -22 51 -103 107 -168 45 -54 176 -148 220 -159 40 -10 65 27 123 181 29 77 79 207 111 289 60 152 65 167 52 165 -5 0 -136 -57 -293 -125z"
       id="path188"
       style="fill:#ff9933" />
    <path
       d="M1423 3925 c-37 -16 -53 -42 -53 -87 0 -60 41 -103 108 -114 38 -6 54 -1 128 36 66 32 85 45 81 58 -3 9 -11 38 -18 63 -12 46 -13 47 -63 53 -81 9 -148 6 -183 -9z"
       id="path190"
       style="fill:#ffcc00" />
    <path
       d="M3250 3869 c-34 -48 -39 -63 -30 -75 7 -8 19 -14 26 -14 12 0 94 98 94 112 0 3 -11 13 -25 22 -24 16 -25 16 -65 -45z"
       id="path192"
       style="fill:#ff6600" />
    <path
       d="M6683 3877 c-18 -21 -40 -51 -48 -67 -18 -35 -11 -56 49 -154 20 -33 36 -68 36 -77 0 -36 21 -29 40 13 26 58 25 95 -6 163 -15 31 -29 80 -33 108 l-6 50 -32 -36z"
       id="path194"
       style="fill:#00cc00" />
    <path
       d="M6170 3881 c-42 -15 -45 -19 -48 -56 -2 -24 8 -71 23 -114 14 -41 25 -97 25 -124 0 -43 2 -48 15 -37 25 21 73 112 86 164 11 45 10 56 -12 118 -13 37 -28 68 -34 67 -5 -1 -30 -9 -55 -18z"
       id="path196"
       style="fill:#66cc00" />
    <path
       d="M3323 3814 c-48 -60 -50 -66 -28 -84 14 -11 22 -7 56 26 57 55 64 71 43 95 -9 10 -20 19 -23 18 -3 0 -25 -25 -48 -55z"
       id="path198"
       style="fill:#ff9900" />
    <path
       d="M2555 3856 c-5 -3 -35 -10 -66 -16 -65 -13 -99 -39 -99 -78 1 -35 252 -597 265 -591 6 2 9 24 7 49 -4 70 9 104 43 110 26 5 31 14 71 125 23 66 59 168 80 227 45 124 43 135 -27 156 -42 13 -253 26 -274 18z"
       id="path200"
       style="fill:#ff9933" />
    <path
       d="M6010 3831 c-70 -24 -76 -28 -84 -61 -6 -27 -2 -58 17 -130 33 -122 41 -194 28 -250 -5 -24 -8 -47 -5 -49 3 -3 45 36 95 85 112 112 115 125 70 265 -17 53 -31 112 -31 133 0 20 -3 36 -7 35 -5 -1 -42 -13 -83 -28z"
       id="path202"
       style="fill:#66cc00" />
    <path
       d="M6955 3838 c-20 -12 -34 -25 -72 -68 l-22 -25 108 2 c129 2 199 23 219 67 8 15 12 30 9 32 -2 3 -26 0 -51 -7 -35 -9 -61 -9 -103 0 -67 13 -63 13 -88 -1z"
       id="path204"
       style="fill:#00cc00" />
    <path
       d="M3768 3810 c-24 -16 -53 -38 -62 -49 -18 -19 -17 -20 10 -26 97 -21 124 -29 170 -56 55 -31 170 -54 190 -38 13 10 37 89 32 104 -2 5 -39 22 -83 38 -44 16 -96 35 -115 42 -55 22 -92 18 -142 -15z"
       id="path206"
       style="fill:#66ff66" />
    <path
       d="M1994 3772 c-17 -15 -39 -32 -50 -38 -18 -12 -18 -14 11 -69 42 -79 83 -121 134 -136 37 -11 47 -11 69 2 63 35 66 107 9 178 -29 35 -111 91 -133 91 -5 0 -23 -13 -40 -28z"
       id="path208"
       style="fill:#00cc66" />
    <path
       d="M3392 3750 c-41 -47 -50 -79 -27 -87 6 -1 35 19 65 46 55 49 55 49 36 70 -11 11 -22 21 -25 21 -3 0 -25 -23 -49 -50z"
       id="path210"
       style="fill:#ff6600" />
    <path
       d="M5833 3775 c-73 -33 -93 -68 -93 -165 1 -57 9 -99 33 -175 l33 -100 66 -3 66 -3 12 56 c14 66 8 124 -27 254 -16 61 -22 107 -18 128 7 40 0 41 -72 8z"
       id="path212"
       style="fill:#009900" />
    <path
       d="M1615 3740 c-103 -53 -140 -95 -131 -145 8 -38 40 -72 82 -85 79 -26 136 25 197 181 14 35 14 35 -22 66 l-37 31 -89 -48z"
       id="path214"
       style="fill:#ff33ff" />
    <path
       d="M2201 3761 l-24 -6 27 -12 c14 -7 26 -17 26 -23 0 -13 -17 -13 -25 0 -3 6 -10 10 -16 10 -5 0 -4 -9 3 -20 15 -23 37 -26 63 -6 18 13 18 15 2 40 -19 28 -19 28 -56 17z"
       id="path216"
       style="fill:#ffccff" />
    <path
       d="M2987 3742 c-9 -9 -40 -87 -70 -172 -30 -85 -61 -172 -70 -192 -8 -20 -13 -39 -9 -42 3 -3 90 -6 192 -6 l188 0 74 34 c41 19 78 42 82 52 12 31 -50 139 -118 207 -74 73 -177 137 -222 137 -17 0 -38 -8 -47 -18z"
       id="path218"
       style="fill:#ff9933" />
    <path
       d="M7120 3745 c-21 -8 -78 -14 -140 -14 -123 -1 -138 -8 -176 -83 l-25 -50 43 8 c24 5 82 7 130 5 76 -2 95 1 142 22 49 23 56 30 66 69 7 24 14 46 17 51 6 10 -17 7 -57 -8z"
       id="path220"
       style="fill:#00cc00" />
    <path
       d="M6400 3726 c-9 -9 -40 -28 -70 -43 -42 -22 -60 -39 -83 -78 -16 -27 -43 -65 -60 -82 -17 -18 -29 -35 -26 -37 9 -9 96 17 156 46 66 31 124 87 122 116 0 9 -6 34 -12 55 -11 34 -14 36 -27 23z"
       id="path222"
       style="fill:#66cc00" />
    <path
       d="M6585 3676 l-17 -63 35 -79 c19 -44 39 -92 44 -108 l9 -30 23 38 c29 46 37 106 21 148 -17 43 -83 158 -91 158 -4 0 -15 -29 -24 -64z"
       id="path224"
       style="fill:#66cc00" />
    <path
       d="M3449 3681 c-49 -45 -53 -51 -38 -65 14 -15 20 -14 72 21 61 40 67 51 39 76 -17 16 -22 14 -73 -32z"
       id="path226"
       style="fill:#ff6600" />
    <path
       d="M1771 3663 c-13 -32 -25 -76 -28 -98 -6 -55 30 -124 78 -149 36 -19 36 -19 70 0 84 49 101 133 48 234 -29 57 -33 60 -68 60 -20 0 -45 3 -56 5 -17 5 -24 -4 -44 -52z"
       id="path228"
       style="fill:#3366ff" />
    <path
       d="M1426 3694 c-4 -9 -5 -19 -2 -21 6 -6 46 20 46 29 0 15 -38 8 -44 -8z"
       id="path230"
       style="fill:#ffccff" />
    <path
       d="M3631 3686 l-23 -24 28 -41 c30 -47 48 -51 81 -19 37 34 94 31 135 -8 21 -20 48 -34 73 -37 22 -4 47 -15 57 -27 9 -11 18 -20 21 -20 5 0 57 85 57 93 0 2 -25 7 -56 10 -34 4 -84 19 -128 41 -128 62 -207 73 -245 32z"
       id="path232"
       style="fill:#66ff66" />
    <path
       d="M5663 3671 c-28 -21 -64 -60 -81 -86 -36 -54 -35 -79 5 -162 42 -85 53 -93 134 -93 64 0 70 2 64 18 -39 95 -76 246 -70 279 12 60 13 83 6 83 -5 0 -31 -18 -58 -39z"
       id="path234"
       style="fill:#009900" />
    <path
       d="M2295 3681 c-6 -5 -19 -11 -29 -13 -16 -2 -20 -12 -20 -53 -2 -86 -41 -125 -127 -125 -36 0 -40 -3 -45 -30 -9 -44 -29 -56 -67 -42 -28 11 -34 10 -56 -12 -47 -48 -37 -54 299 -181 113 -43 226 -86 252 -96 26 -10 49 -15 52 -11 3 5 -13 48 -35 98 -22 49 -76 172 -121 274 -44 102 -83 188 -87 193 -4 4 -11 3 -16 -2z"
       id="path236"
       style="fill:#ff9933" />
    <path
       d="M1435 3655 c-27 -12 -28 -14 -11 -21 20 -8 47 5 54 24 5 15 -5 14 -43 -3z"
       id="path238"
       style="fill:#ffccff" />
    <path
       d="M3498 3608 c-48 -33 -56 -43 -48 -57 22 -42 34 -43 99 -4 l61 36 -19 31 c-11 17 -24 32 -28 33 -4 1 -34 -16 -65 -39z"
       id="path240"
       style="fill:#ff6600" />
    <path
       d="M7085 3608 c-41 -15 -67 -18 -144 -13 -118 7 -166 -11 -197 -77 l-21 -42 66 -23 c118 -41 143 -44 207 -27 32 8 66 22 76 30 16 15 75 161 67 168 -2 2 -26 -5 -54 -16z"
       id="path242"
       style="fill:#66cc00" />
    <path
       d="M6429 3584 c-29 -36 -121 -85 -192 -103 -96 -24 -135 -43 -180 -86 -21 -20 -37 -38 -35 -39 21 -15 108 -26 203 -26 114 0 120 1 165 30 79 50 83 59 75 136 -4 37 -10 76 -14 87 -7 18 -8 18 -22 1z"
       id="path244"
       style="fill:#009900" />
    <path
       d="M3744 3565 c-12 -19 -25 -25 -53 -25 -65 0 -82 -47 -33 -92 38 -36 65 -48 83 -37 7 5 26 9 40 9 36 0 61 53 49 106 -14 63 -57 83 -86 39z"
       id="path246"
       style="fill:#ffff00" />
    <path
       d="M6550 3486 c-9 -51 -9 -69 1 -87 7 -13 15 -39 18 -57 l6 -34 28 26 c36 34 36 80 -3 156 -17 33 -32 60 -34 60 -2 0 -9 -29 -16 -64z"
       id="path248"
       style="fill:#66cc00" />
    <path
       d="M2018 3510 c5 -35 -5 -40 -17 -7 -9 21 -9 21 -17 3 -5 -14 -1 -24 15 -38 13 -10 27 -16 31 -13 15 9 21 57 9 71 -18 22 -26 16 -21 -16z"
       id="path250"
       style="fill:#ffccff" />
    <path
       d="M3538 3504 c-42 -27 -43 -29 -25 -62 l13 -22 28 29 c18 19 26 37 24 54 l-3 24 -37 -23z"
       id="path252"
       style="fill:#ff9900" />
    <path
       d="M1707 3490 c-15 -34 -15 -35 -16 -7 -1 29 -12 35 -29 15 -7 -9 -6 -23 4 -46 11 -28 16 -31 32 -23 35 19 45 38 34 68 l-9 28 -16 -35z"
       id="path254"
       style="fill:#ffccff" />
    <path
       d="M3869 3488 c-40 -44 -45 -68 -20 -109 12 -19 21 -41 21 -50 0 -11 15 -20 44 -28 63 -16 90 -14 109 7 26 29 20 57 -18 86 -23 18 -36 38 -41 61 -6 32 -35 65 -57 65 -4 0 -22 -15 -38 -32z"
       id="path256"
       style="fill:#ffff00" />
    <path
       d="M5522 3473 c-19 -49 -33 -115 -28 -129 4 -10 23 -14 66 -14 l61 0 -22 31 c-12 18 -32 56 -44 86 l-22 54 -11 -28z"
       id="path258"
       style="fill:#009900" />
    <path
       d="M1354 3456 c-17 -8 -44 -31 -60 -52 -25 -32 -29 -46 -29 -103 0 -56 4 -72 28 -106 15 -22 45 -53 67 -69 22 -16 38 -31 36 -33 -2 -2 -32 -6 -67 -9 -173 -14 -275 -86 -323 -227 -29 -87 -18 -144 41 -198 58 -54 100 -61 170 -30 111 51 88 211 -31 211 -37 0 -86 -46 -86 -81 0 -34 33 -57 55 -39 16 14 9 40 -11 40 -19 0 -17 14 4 33 23 21 76 22 96 1 24 -24 20 -78 -8 -111 -21 -24 -32 -28 -78 -28 -145 0 -186 160 -73 293 57 67 175 103 350 106 90 2 110 5 113 18 2 11 -10 17 -49 21 -74 9 -137 50 -176 117 -39 63 -42 110 -13 158 25 40 97 76 135 66 32 -8 75 -58 75 -88 0 -44 -58 -78 -104 -60 -19 7 -21 31 -4 36 16 6 2 38 -16 38 -24 0 -38 -35 -25 -63 10 -23 46 -47 70 -47 26 0 77 33 88 56 47 103 -64 198 -175 150z"
       id="path260"
       style="fill:#99cc00" />
    <path
       d="M6694 3414 c-38 -40 -42 -54 -15 -54 10 0 36 -14 57 -31 71 -56 89 -62 139 -45 58 19 128 68 156 108 21 29 21 31 3 23 -10 -4 -49 -10 -85 -13 -54 -3 -77 0 -131 22 -35 14 -70 26 -78 26 -7 0 -28 -16 -46 -36z"
       id="path262"
       style="fill:#66cc00" />
    <path
       d="M3595 3428 c-11 -6 -21 -12 -23 -14 -9 -7 -9 -160 0 -171 17 -21 66 -15 109 14 29 19 38 30 32 42 -4 9 -7 32 -6 51 1 54 -69 102 -112 78z"
       id="path264"
       style="fill:#ffff00" />
    <path
       d="M1733 3413 c-21 -8 -15 -30 9 -37 30 -7 45 8 28 29 -13 16 -17 17 -37 8z"
       id="path266"
       style="fill:#ffccff" />
    <path
       d="M1449 3366 c16 -33 31 -38 31 -11 0 15 -26 45 -39 45 -5 0 -1 -15 8 -34z"
       id="path268"
       style="fill:#99cc33" />
    <path
       d="M3737 3382 c-24 -26 -21 -59 8 -87 29 -30 65 -32 88 -7 23 25 21 54 -4 86 -24 31 -68 35 -92 8z"
       id="path270"
       style="fill:#ff6600" />
    <path
       d="M6431 3364 l-34 -29 34 -7 c19 -3 35 -5 37 -3 2 2 2 18 0 36 l-3 32 -34 -29z"
       id="path272"
       style="fill:#003300" />
    <path
       d="M6511 3359 c-6 -18 -11 -48 -11 -67 0 -33 1 -34 23 -20 26 18 31 37 22 84 -7 42 -20 43 -34 3z"
       id="path274"
       style="fill:#003300" />
    <path
       d="M1612 3348 c-5 -18 -8 -35 -6 -37 5 -6 128 -30 135 -25 4 2 9 13 12 25 5 17 -3 25 -49 45 -71 31 -82 30 -92 -8z"
       id="path276"
       style="fill:#ff6600" />
    <path
       d="M6590 3297 c-31 -23 -67 -50 -80 -60 l-25 -18 25 12 c14 7 72 14 130 16 162 6 162 6 99 53 -29 22 -62 40 -73 40 -12 -1 -46 -20 -76 -43z"
       id="path278"
       style="fill:#66cc00" />
    <path
       d="M1331 3279 c-1 -8 13 -37 30 -63 43 -65 125 -104 166 -78 11 7 37 121 29 129 -2 2 -21 -7 -41 -22 -61 -41 -153 -26 -175 28 -6 14 -9 17 -9 6z"
       id="path280"
       style="fill:none" />
    <path
       d="M2704 3276 c-3 -8 -4 -25 -2 -38 l3 -23 400 -3 c220 -1 405 0 411 2 6 2 8 20 6 40 l-4 36 -404 0 c-341 0 -405 -2 -410 -14z"
       id="path282"
       style="fill:#000099" />
    <path
       d="M3841 3274 c-22 -16 -23 -22 -17 -77 3 -33 11 -66 17 -73 22 -26 89 -9 89 22 0 9 16 30 35 47 42 37 44 52 8 71 -49 24 -105 29 -132 10z"
       id="path284"
       style="fill:#ffff00" />
    <path
       d="M4057 3272 c-10 -10 -17 -28 -17 -40 l0 -22 1188 2 1187 3 3 38 3 37 -1174 0 c-1125 0 -1175 -1 -1190 -18z"
       id="path286"
       style="fill:#000099" />
    <path
       d="M1584 3244 c-8 -33 0 -39 66 -53 48 -10 56 -10 67 6 26 34 16 51 -37 62 -76 16 -89 14 -96 -15z"
       id="path288"
       style="fill:#ff6600" />
    <path
       d="M3690 3244 c-40 -28 -70 -61 -70 -78 1 -27 20 -40 58 -38 28 2 43 -3 57 -18 21 -24 48 -26 65 -5 9 10 10 34 6 78 -7 60 -9 64 -40 75 -39 14 -33 16 -76 -14z"
       id="path290"
       style="fill:#ffff00" />
    <path
       d="M1871 3233 c-68 -56 -60 -418 9 -475 20 -16 24 -16 83 6 55 21 457 193 530 226 15 7 27 17 27 21 0 13 -575 239 -610 239 -10 0 -27 -8 -39 -17z"
       id="path292"
       style="fill:#ff9933" />
    <path
       d="M6548 3208 c-60 -16 -88 -49 -88 -104 l0 -46 59 55 c33 30 80 63 105 73 25 11 46 22 46 27 0 10 -77 7 -122 -5z"
       id="path294"
       style="fill:#003300" />
    <path
       d="M6775 3193 c-139 -31 -248 -101 -288 -185 -25 -51 -25 -61 -31 -318 -3 -146 -9 -296 -12 -334 l-7 -69 46 5 c60 7 95 30 114 76 22 53 18 121 -11 191 -30 71 -31 80 -10 151 21 73 97 148 179 179 125 47 295 5 360 -88 68 -99 57 -308 -25 -480 -33 -69 -57 -100 -128 -171 -92 -92 -155 -138 -292 -215 -47 -26 -142 -81 -212 -122 l-126 -75 -47 -136 c-26 -75 -70 -185 -97 -245 l-51 -109 12 -70 c6 -39 18 -83 26 -99 16 -29 53 -46 80 -35 23 8 45 68 45 119 0 57 24 145 56 210 16 32 60 85 113 137 86 84 166 138 386 262 299 168 396 265 515 511 68 138 90 232 90 371 0 123 -14 189 -57 273 -54 108 -215 225 -354 258 -59 14 -227 19 -274 8z"
       id="path296"
       style="fill:#000099" />
    <path
       d="M2742 3172 c7 -10 35 -46 62 -80 39 -50 52 -60 63 -50 18 15 113 134 113 142 0 3 -57 6 -126 6 -119 0 -124 -1 -112 -18z"
       id="path298"
       style="fill:#000066" />
    <path
       d="M2952 3101 c-40 -48 -72 -92 -72 -95 0 -11 92 -126 100 -126 8 0 230 293 230 304 0 3 -42 6 -93 6 l-94 0 -71 -89z"
       id="path300"
       style="fill:#0000cc" />
    <path
       d="M3131 3028 c-66 -89 -121 -169 -121 -177 0 -16 69 -110 81 -111 8 0 296 411 305 435 5 13 -6 15 -69 15 l-75 0 -121 -162z"
       id="path302"
       style="fill:#0066ff" />
    <path
       d="M3453 3177 c3 -8 27 -44 53 -80 l49 -67 27 28 27 27 -17 52 -17 53 -64 0 c-49 0 -62 -3 -58 -13z"
       id="path304"
       style="fill:#000066" />
    <path
       d="M4010 3170 c-13 -11 -26 -20 -29 -20 -3 0 -12 -13 -19 -28 -12 -29 -48 -52 -80 -52 -17 0 -175 -180 -188 -213 -5 -15 65 -128 78 -124 9 2 378 444 378 452 0 3 -26 5 -58 5 -45 0 -65 -5 -82 -20z"
       id="path306"
       style="fill:#0066ff" />
    <path
       d="M4222 3180 c2 -5 28 -41 58 -80 l55 -71 38 43 c21 24 52 60 68 81 l31 37 -127 0 c-78 0 -125 -4 -123 -10z"
       id="path308"
       style="fill:#000066" />
    <path
       d="M4439 3108 c-39 -46 -73 -88 -76 -95 -4 -11 79 -124 97 -131 9 -3 216 266 226 293 5 13 -8 15 -84 15 l-91 0 -72 -82z"
       id="path310"
       style="fill:#0000cc" />
    <path
       d="M4718 3163 c-14 -16 -73 -92 -132 -171 l-107 -142 45 -56 45 -55 63 87 c35 48 100 138 145 200 45 63 90 125 99 139 l16 25 -74 0 c-68 0 -76 -2 -100 -27z"
       id="path312"
       style="fill:#0066ff" />
    <path
       d="M4946 3178 c7 -11 119 -155 130 -167 6 -6 174 161 174 171 0 5 -70 8 -156 8 -121 0 -154 -3 -148 -12z"
       id="path314"
       style="fill:#000066" />
    <path
       d="M5201 3086 l-104 -104 48 -62 c46 -59 48 -61 65 -43 38 41 250 301 250 307 0 3 -35 6 -78 6 l-77 0 -104 -104z"
       id="path316"
       style="fill:#0000cc" />
    <path
       d="M5504 3182 c-20 -13 -284 -332 -284 -343 0 -15 61 -99 72 -99 10 0 368 430 368 442 0 10 -141 10 -156 0z"
       id="path318"
       style="fill:#0066ff" />
    <path
       d="M5727 3183 c-2 -5 16 -39 41 -78 l45 -69 63 69 c35 39 64 73 64 78 0 4 -47 7 -104 7 -58 0 -107 -3 -109 -7z"
       id="path320"
       style="fill:#000066" />
    <path
       d="M5909 3104 c-41 -47 -75 -88 -76 -92 -1 -4 17 -38 41 -75 l43 -69 132 156 c72 86 131 158 131 161 0 3 -44 5 -98 5 l-98 0 -75 -86z"
       id="path322"
       style="fill:#0000cc" />
    <path
       d="M6083 3024 c-76 -91 -139 -172 -141 -179 -3 -12 53 -105 62 -105 4 0 358 398 385 433 13 16 8 17 -77 17 l-91 0 -138 -166z"
       id="path324"
       style="fill:#0066ff" />
    <path
       d="M4140 3128 c-52 -60 -62 -36 110 -251 l125 -157 83 0 c45 0 82 3 82 6 0 4 -80 107 -179 230 l-178 223 -43 -51z"
       id="path326"
       style="fill:#990000" />
    <path
       d="M1577 3164 c-4 -4 -7 -20 -7 -36 l0 -28 70 0 c67 0 70 1 70 24 0 19 -7 25 -32 29 -18 3 -47 9 -63 12 -17 4 -33 3 -38 -1z"
       id="path328"
       style="fill:#ff6600" />
    <path
       d="M4877 3119 c-21 -27 -37 -54 -35 -59 2 -5 66 -83 143 -174 l140 -166 68 0 c37 0 67 2 67 5 0 6 -310 406 -334 433 -9 9 -20 1 -49 -39z"
       id="path330"
       style="fill:#990000" />
    <path
       d="M5651 3122 c-22 -28 -41 -55 -41 -61 0 -5 52 -85 116 -176 l116 -165 69 0 69 0 -27 43 c-15 23 -68 108 -119 190 -52 81 -104 163 -117 182 l-24 36 -42 -49z"
       id="path332"
       style="fill:#990000" />
    <path
       d="M2700 3052 l0 -110 92 -111 92 -111 93 0 92 0 -175 218 c-96 119 -179 219 -184 220 -6 2 -10 -38 -10 -106z"
       id="path334"
       style="fill:#990000" />
    <path
       d="M3386 3111 c-20 -28 -36 -58 -36 -66 0 -8 42 -64 93 -123 50 -59 110 -129 132 -155 l40 -48 63 3 62 3 -146 205 c-80 113 -152 211 -159 218 -10 11 -19 4 -49 -37z"
       id="path336"
       style="fill:#990000" />
    <path
       d="M6358 3095 c-32 -35 -58 -68 -58 -74 0 -7 26 -46 58 -88 l57 -77 3 77 c2 42 2 110 0 151 l-3 74 -57 -63z"
       id="path338"
       style="fill:#990000" />
    <path
       d="M3610 3050 c-18 -22 -30 -47 -27 -54 10 -26 79 -117 87 -114 4 2 43 46 85 98 43 52 72 89 65 83 -21 -19 -74 -15 -103 7 -40 32 -71 26 -107 -20z"
       id="path340"
       style="fill:#0000cc" />
    <path
       d="M1570 3051 c0 -19 6 -21 58 -21 51 0 94 12 82 23 -3 3 -35 8 -72 12 -64 6 -68 5 -68 -14z"
       id="path342"
       style="fill:#ff9900" />
    <path
       d="M4022 2986 c-29 -35 -52 -66 -52 -70 0 -3 37 -49 82 -101 l82 -95 104 0 104 0 -34 43 c-19 23 -78 97 -132 165 -54 67 -99 122 -100 122 -2 0 -26 -29 -54 -64z"
       id="path344"
       style="fill:#990033" />
    <path
       d="M1350 3031 c-97 -9 -145 -34 -237 -125 -68 -67 -73 -75 -73 -114 0 -24 7 -54 16 -68 34 -50 108 -69 152 -38 60 42 40 125 -26 107 -18 -4 -19 -7 -7 -31 21 -39 3 -64 -43 -60 -30 2 -38 8 -46 31 -14 38 2 77 43 104 41 28 70 29 119 4 41 -21 62 -55 62 -101 l0 -29 41 14 c22 8 79 20 126 27 l85 12 -6 36 c-4 19 -9 74 -13 122 -3 47 -9 91 -12 96 -9 14 -96 20 -181 13z"
       id="path346"
       style="fill:#339900" />
    <path
       d="M5526 2971 c-39 -47 -55 -74 -49 -83 4 -8 34 -49 67 -91 l58 -77 105 0 105 0 -35 48 c-18 26 -67 94 -107 152 -40 58 -76 109 -80 113 -4 4 -33 -24 -64 -62z"
       id="path348"
       style="fill:#990033" />
    <path
       d="M4771 2974 l-41 -57 30 -36 c16 -20 55 -64 87 -99 l58 -63 91 3 92 3 -128 150 c-70 82 -132 151 -138 153 -5 1 -28 -23 -51 -54z"
       id="path350"
       style="fill:#990033" />
    <path
       d="M3286 2965 c-32 -48 -35 -59 -24 -73 7 -9 41 -52 76 -94 l64 -78 84 0 c46 0 84 3 84 6 0 5 -188 232 -230 277 -16 17 -18 15 -54 -38z"
       id="path352"
       style="fill:#990033" />
    <path
       d="M1570 2985 c0 -11 12 -15 49 -15 54 0 81 7 81 21 0 5 -29 9 -65 9 -51 0 -65 -3 -65 -15z"
       id="path354"
       style="fill:#ff9900" />
    <path
       d="M6215 2935 c-64 -74 -66 -58 20 -157 l49 -58 68 0 68 0 0 43 c0 38 -9 55 -70 137 -38 51 -71 95 -73 97 -2 2 -30 -26 -62 -62z"
       id="path356"
       style="fill:#990033" />
    <path
       d="M1583 2933 c-7 -2 -13 -15 -13 -28 0 -37 19 -44 75 -29 28 7 53 13 58 14 4 0 7 11 7 25 0 24 -3 25 -57 24 -32 0 -64 -3 -70 -6z"
       id="path358"
       style="fill:#ff6600" />
    <path
       d="M3876 2811 c-36 -44 -66 -83 -66 -86 0 -3 66 -5 146 -5 l146 0 -73 83 c-40 45 -75 83 -79 85 -4 2 -37 -33 -74 -77z"
       id="path360"
       style="fill:#330000" />
    <path
       d="M4689 2859 c-14 -19 -42 -58 -63 -86 l-38 -53 137 0 137 0 -31 38 c-17 20 -50 59 -74 86 l-43 49 -25 -34z"
       id="path362"
       style="fill:#330000" />
    <path
       d="M2710 2802 c0 -43 2 -81 4 -83 2 -2 34 -2 70 -1 l65 4 -66 79 c-36 43 -68 79 -70 79 -1 0 -3 -35 -3 -78z"
       id="path364"
       style="fill:#990033" />
    <path
       d="M3172 2802 l-53 -77 61 -3 c33 -2 87 -2 121 0 l61 3 -61 75 c-34 41 -65 76 -69 77 -4 1 -31 -32 -60 -75z"
       id="path366"
       style="fill:#330000" />
    <path
       d="M2545 2583 c-59 -159 -108 -300 -107 -315 2 -64 19 -73 163 -88 99 -10 110 -7 104 28 -18 98 -27 227 -32 430 -3 127 -9 232 -13 232 -4 0 -56 -129 -115 -287z"
       id="path368"
       style="fill:#ff9933" />
    <path
       d="M5381 2798 l-60 -73 116 -3 c64 -1 118 0 121 2 5 6 -100 146 -110 146 -3 0 -34 -33 -67 -72z"
       id="path370"
       style="fill:#330000" />
    <path
       d="M6790 2861 c-78 -24 -160 -101 -181 -171 -12 -39 -10 -49 15 -121 22 -62 27 -92 24 -137 -8 -111 -59 -166 -166 -179 l-50 -6 -12 -92 c-6 -51 -24 -151 -41 -221 -16 -70 -27 -129 -25 -131 2 -3 22 7 43 20 22 14 109 64 194 112 191 109 268 165 359 262 122 130 180 287 168 453 -8 110 -52 171 -149 205 -44 16 -137 19 -179 6z"
       id="path372"
       style="fill:none" />
    <path
       d="M1653 2846 c-65 -14 -73 -22 -61 -64 8 -28 12 -32 31 -26 58 18 107 45 107 58 0 20 -11 46 -19 45 -3 -1 -29 -7 -58 -13z"
       id="path374"
       style="fill:#ff6600" />
    <path
       d="M6104 2808 c-16 -18 -40 -45 -53 -60 l-24 -28 112 0 112 0 -53 60 c-29 33 -55 60 -58 60 -3 0 -19 -15 -36 -32z"
       id="path376"
       style="fill:#330000" />
    <path
       d="M1668 2739 c-37 -17 -48 -27 -48 -45 0 -35 13 -36 74 -3 39 21 56 36 54 47 -5 24 -27 24 -80 1z"
       id="path378"
       style="fill:#ff9900" />
    <path
       d="M1514 2730 c-12 -5 -29 -19 -38 -32 -24 -34 -64 -167 -82 -272 -8 -51 -27 -116 -43 -149 l-28 -57 39 -11 c66 -17 80 -10 104 51 12 30 31 107 42 170 11 64 31 145 46 181 44 109 31 148 -40 119z"
       id="path380"
       style="fill:#999933" />
    <path
       d="M960 2711 c-6 -12 -31 -46 -56 -77 -25 -31 -43 -58 -41 -61 5 -4 131 26 176 43 11 3 8 11 -12 32 -14 15 -32 40 -40 56 -15 28 -15 28 -27 7z"
       id="path382"
       style="fill:#339900" />
    <path
       d="M1395 2713 c-86 -21 -118 -65 -163 -222 -19 -64 -43 -120 -62 -148 -18 -24 -30 -46 -28 -48 2 -3 35 -18 72 -35 55 -25 71 -29 83 -19 28 24 54 92 69 180 11 72 53 221 80 287 6 12 -13 14 -51 5z"
       id="path384"
       style="fill:#999933" />
    <path
       d="M1690 2654 c-25 -15 -46 -28 -48 -30 -2 -1 4 -16 13 -33 l16 -32 37 21 c63 36 74 47 70 72 -4 33 -35 33 -88 2z"
       id="path386"
       style="fill:#ff6600" />
    <path
       d="M2714 2666 c-3 -8 -4 -23 -2 -33 3 -17 78 -18 1856 -21 l1853 -2 -3 32 -3 33 -1848 3 c-1603 2 -1848 0 -1853 -12z"
       id="path388"
       style="fill:#000099" />
    <path
       d="M1580 2615 c-16 -43 -38 -137 -55 -235 -9 -52 -25 -115 -36 -139 -11 -24 -17 -46 -14 -49 3 -3 30 -7 60 -10 90 -7 121 27 150 170 l16 74 -51 107 c-29 59 -54 107 -56 107 -2 0 -9 -11 -14 -25z"
       id="path390"
       style="fill:#999933" />
    <path
       d="M1205 2604 c-16 -8 -46 -13 -65 -12 -20 1 -41 -1 -47 -5 -6 -4 -23 -40 -38 -80 -15 -39 -34 -82 -41 -94 -14 -22 -11 -25 41 -59 62 -42 69 -40 110 30 21 37 80 225 73 231 -2 1 -16 -4 -33 -11z"
       id="path392"
       style="fill:#999933" />
    <path
       d="M1745 2564 c-55 -38 -64 -51 -41 -60 8 -3 35 8 60 25 54 37 60 46 43 59 -8 7 -27 0 -62 -24z"
       id="path394"
       style="fill:#ff9900" />
    <path
       d="M922 2557 c-98 -29 -101 -31 -80 -45 13 -9 47 -36 76 -61 64 -54 69 -51 111 62 34 91 41 88 -107 44z"
       id="path396"
       style="fill:#999933" />
    <path
       d="M2714 2498 c34 -428 89 -688 208 -992 84 -216 152 -340 329 -602 143 -212 281 -357 441 -464 l60 -40 812 0 811 0 85 57 c164 111 307 272 482 544 168 263 269 482 349 759 68 238 97 411 124 743 l7 77 -1857 0 -1857 0 6 -82z m2852 -118 c31 -11 84 -60 101 -95 47 -94 3 -223 -91 -266 -103 -47 -221 -4 -267 96 -26 56 -24 111 7 173 46 93 141 128 250 92z m-2332 -23 c48 -37 76 -94 76 -156 0 -63 -13 -97 -53 -140 -77 -81 -202 -83 -281 -4 -57 56 -73 151 -37 228 36 78 89 107 187 103 59 -3 77 -8 108 -31z m859 19 c77 -32 130 -141 108 -223 -33 -122 -156 -185 -269 -138 -150 63 -164 267 -24 352 43 27 133 31 185 9z m700 -116 c15 -17 27 -42 27 -56 0 -106 -140 -143 -185 -49 -19 41 -19 49 0 85 33 65 108 74 158 20z m1248 -146 c17 -8 37 -30 45 -50 12 -29 12 -39 0 -68 -26 -61 -78 -81 -136 -51 -70 36 -67 134 5 173 28 16 51 15 86 -4z m-2472 -65 c53 -19 75 -83 47 -138 -39 -74 -139 -65 -173 16 -12 31 -12 38 4 71 17 34 52 61 79 62 6 0 25 -5 43 -11z m1307 -168 c50 -23 88 -71 104 -130 22 -85 -25 -187 -104 -225 -39 -18 -121 -21 -163 -5 -65 24 -122 109 -123 182 -1 143 153 239 286 178z m-1776 -126 c56 -29 57 -134 2 -164 -39 -21 -91 -13 -123 18 -81 82 17 200 121 146z m1139 -82 c43 -40 45 -95 6 -137 -19 -21 -33 -26 -69 -26 -37 0 -48 5 -70 31 -36 43 -35 91 3 130 40 39 89 40 130 2z m1126 2 c19 -18 25 -35 25 -69 0 -37 -5 -48 -31 -70 -43 -36 -91 -35 -130 3 -38 39 -39 87 -3 130 22 26 33 31 70 31 34 0 51 -6 69 -25z m-1753 -74 c173 -110 74 -379 -133 -359 -155 15 -229 207 -126 325 41 47 79 62 153 63 50 0 68 -5 106 -29z m2307 11 c19 -9 48 -34 65 -55 26 -32 31 -49 34 -106 3 -54 0 -76 -17 -109 -55 -109 -211 -134 -306 -50 -97 84 -79 258 32 317 49 26 145 28 192 3z m-1296 -253 c35 -18 57 -51 57 -87 0 -44 -14 -68 -52 -88 -64 -33 -138 11 -138 83 0 44 14 69 48 87 33 18 56 20 85 5z m-329 -282 c114 -87 99 -275 -26 -336 -51 -24 -123 -28 -171 -8 -45 19 -105 89 -113 132 -18 96 24 191 99 226 63 30 162 23 211 -14z m924 14 c20 -10 44 -27 53 -37 77 -88 61 -240 -33 -301 -46 -31 -127 -41 -181 -24 -47 16 -114 89 -123 136 -17 92 22 187 93 224 51 27 141 28 191 2z m-1483 -105 c32 -32 40 -69 25 -107 -28 -67 -109 -81 -162 -29 -27 28 -30 36 -25 73 8 55 43 87 98 87 29 0 47 -7 64 -24z m1983 -62 c51 -33 51 -106 0 -149 -86 -73 -207 40 -137 129 37 48 84 54 137 20z m-925 -184 c38 -43 36 -83 -7 -126 -44 -44 -83 -45 -128 -5 -27 24 -33 36 -33 69 0 94 104 132 168 62z"
       id="path398"
       style="fill:#990000" />
    <path
       d="M5393 2331 c-102 -74 -90 -232 21 -282 97 -44 189 -6 231 95 30 72 -8 161 -86 202 -49 25 -120 18 -166 -15z m142 -35 c77 -33 86 -139 15 -193 -46 -35 -128 -16 -154 36 -33 64 -13 130 48 157 40 17 49 17 91 0z"
       id="path400"
       style="fill:#0066cc" />
    <path
       d="M5431 2244 c-43 -54 -10 -124 58 -124 43 0 68 21 77 66 14 73 -89 117 -135 58z"
       id="path402"
       style="fill:#0033ff" />
    <path
       d="M3030 2338 c-58 -40 -75 -72 -75 -142 0 -53 4 -68 27 -98 55 -72 163 -87 234 -33 125 95 56 295 -101 295 -38 0 -61 -6 -85 -22z m163 -66 c37 -38 44 -87 17 -130 -54 -87 -172 -70 -200 29 -13 45 13 98 60 122 44 23 86 15 123 -21z"
       id="path404"
       style="fill:#0099cc" />
    <path
       d="M3060 2250 c-12 -12 -20 -33 -20 -55 0 -22 8 -43 20 -55 12 -12 33 -20 55 -20 22 0 43 8 55 20 12 12 20 33 20 55 0 22 -8 43 -20 55 -12 12 -33 20 -55 20 -22 0 -43 -8 -55 -20z"
       id="path406"
       style="fill:#0000ff" />
    <path
       d="M3931 2343 c-43 -21 -82 -81 -88 -135 -10 -97 80 -184 180 -175 119 11 185 141 126 247 -41 72 -141 101 -218 63z m125 -49 c77 -37 85 -137 14 -191 -46 -35 -128 -16 -154 36 -33 64 -13 130 48 157 41 17 51 17 92 -2z"
       id="path408"
       style="fill:#0066cc" />
    <path
       d="M3952 2247 c-28 -29 -28 -67 -1 -101 28 -35 80 -36 114 -1 30 30 32 64 4 99 -27 35 -86 36 -117 3z"
       id="path410"
       style="fill:#0033ff" />
    <path
       d="M4700 2258 c-31 -12 -40 -25 -40 -65 0 -64 80 -83 116 -28 32 49 -20 114 -76 93z m60 -39 c9 -16 8 -26 -5 -45 -17 -26 -27 -29 -54 -14 -44 23 -31 80 19 80 19 0 33 -7 40 -21z"
       id="path412"
       style="fill:#66ccff" />
    <path
       d="M4710 2200 c0 -5 5 -10 10 -10 6 0 10 5 10 10 0 6 -4 10 -10 10 -5 0 -10 -4 -10 -10z"
       id="path414"
       style="fill:#0000cc" />
    <path
       d="M5970 2087 c-27 -14 -46 -56 -37 -80 3 -9 17 -23 31 -32 68 -45 134 54 70 104 -31 24 -31 25 -64 8z m60 -31 c6 -8 10 -25 8 -38 -6 -43 -88 -33 -88 11 0 38 55 56 80 27z"
       id="path416"
       style="fill:#0066cc" />
    <path
       d="M5985 2030 c-3 -5 1 -10 9 -10 9 0 16 5 16 10 0 6 -4 10 -9 10 -6 0 -13 -4 -16 -10z"
       id="path418"
       style="fill:#0033cc" />
    <path
       d="M3505 2018 c-27 -15 -35 -28 -35 -60 0 -33 31 -68 60 -68 27 0 70 43 70 70 0 23 -42 70 -62 70 -7 0 -22 -6 -33 -12z m73 -55 c2 -10 -6 -27 -18 -38 -17 -15 -24 -16 -45 -7 -34 16 -36 69 -2 81 27 11 61 -8 65 -36z"
       id="path420"
       style="fill:#0000cc" />
    <path
       d="M3520 1960 c0 -5 7 -10 16 -10 8 0 12 5 9 10 -3 6 -10 10 -16 10 -5 0 -9 -4 -9 -10z"
       id="path422"
       style="fill:#66ccff" />
    <path
       d="M4715 1850 c-150 -75 -108 -294 60 -308 158 -13 240 176 123 285 -50 46 -118 55 -183 23z m141 -58 c96 -77 16 -231 -100 -192 -18 6 -41 19 -50 29 -38 42 -28 134 18 166 28 21 106 19 132 -3z"
       id="path424"
       style="fill:#0099ff" />
    <path
       d="M4731 1754 c-28 -36 -27 -75 4 -104 35 -33 81 -31 112 4 28 34 29 65 2 100 -16 20 -29 26 -59 26 -30 0 -43 -6 -59 -26z"
       id="path426"
       style="fill:#0066ff" />
    <path
       d="M3002 1717 c-12 -13 -22 -33 -22 -45 0 -31 35 -62 68 -62 59 0 87 76 42 112 -30 24 -62 23 -88 -5z m76 -9 c28 -28 7 -78 -33 -78 -42 0 -59 44 -29 74 18 19 45 21 62 4z"
       id="path428"
       style="fill:#66ccff" />
    <path
       d="M3037 1684 c-8 -8 1 -24 14 -24 5 0 9 7 9 15 0 15 -12 20 -23 9z"
       id="path430"
       style="fill:#0000cc" />
    <path
       d="M4130 1650 c-27 -27 -26 -75 2 -94 51 -36 108 -8 108 52 0 56 -70 82 -110 42z m78 -12 c28 -28 7 -78 -33 -78 -27 0 -45 18 -45 45 0 27 18 45 45 45 12 0 26 -5 33 -12z"
       id="path432"
       style="fill:#00ccff" />
    <path
       d="M4166 1612 c-3 -6 -1 -14 5 -17 15 -10 25 3 12 16 -7 7 -13 7 -17 1z"
       id="path434"
       style="fill:#0000cc" />
    <path
       d="M5246 1648 c-21 -30 -20 -50 5 -82 38 -48 109 -20 109 42 0 58 -82 86 -114 40z m82 -10 c32 -32 -4 -87 -48 -73 -25 8 -37 50 -20 70 15 18 51 20 68 3z"
       id="path436"
       style="fill:#00ccff" />
    <path
       d="M5285 1611 c-6 -11 9 -23 19 -14 9 9 7 23 -3 23 -6 0 -12 -4 -16 -9z"
       id="path438"
       style="fill:#0033cc" />
    <path
       d="M3468 1600 c-80 -23 -120 -72 -126 -150 -5 -68 12 -107 63 -145 97 -75 242 -15 262 108 17 110 -95 217 -199 187z m76 -64 c44 -18 66 -52 66 -99 0 -105 -123 -149 -193 -70 -45 51 -25 142 36 168 41 18 50 18 91 1z"
       id="path440"
       style="fill:#0099ff" />
    <path
       d="M3473 1510 c-34 -14 -56 -54 -48 -90 20 -90 155 -74 155 18 0 30 -28 72 -49 72 -5 0 -15 2 -23 4 -7 3 -23 1 -35 -4z"
       id="path442"
       style="fill:#0000ff" />
    <path
       d="M5791 1600 c-108 -25 -164 -150 -109 -245 46 -79 145 -106 223 -62 100 57 117 188 33 263 -45 42 -94 56 -147 44z m84 -66 c20 -9 40 -30 51 -52 46 -97 -72 -196 -162 -137 -38 24 -58 78 -44 119 24 73 88 102 155 70z"
       id="path444"
       style="fill:#0099ff" />
    <path
       d="M5794 1506 c-76 -33 -49 -146 34 -146 44 0 72 30 72 78 0 61 -49 92 -106 68z"
       id="path446"
       style="fill:#0066ff" />
    <path
       d="M4552 1328 c-46 -23 -41 -98 9 -118 27 -11 33 -11 57 7 39 29 41 74 6 102 -30 23 -39 25 -72 9z m68 -33 c27 -33 -15 -81 -57 -64 -25 9 -31 47 -11 67 16 16 53 15 68 -3z"
       id="path448"
       style="fill:#0033cc" />
    <path
       d="M4570 1270 c0 -5 7 -10 15 -10 8 0 15 5 15 10 0 6 -7 10 -15 10 -8 0 -15 -4 -15 -10z"
       id="path450"
       style="fill:#00ccff" />
    <path
       d="M4110 1069 c-35 -14 -59 -38 -81 -81 -58 -113 36 -247 164 -235 158 14 202 214 68 304 -37 25 -105 30 -151 12z m116 -55 c62 -30 83 -107 42 -159 -68 -86 -198 -49 -198 57 0 50 13 74 53 98 39 24 59 25 103 4z"
       id="path452"
       style="fill:#0099cc" />
    <path
       d="M4144 986 c-49 -22 -59 -74 -23 -120 39 -50 122 -26 135 40 4 24 0 37 -18 57 -30 33 -56 39 -94 23z"
       id="path454"
       style="fill:#0033ff" />
    <path
       d="M5054 1066 c-82 -36 -118 -152 -72 -231 34 -57 89 -87 156 -82 89 6 143 62 150 154 3 49 0 64 -20 93 -50 74 -135 100 -214 66z m151 -76 c58 -59 31 -157 -49 -179 -72 -19 -136 30 -136 103 0 105 110 150 185 76z"
       id="path456"
       style="fill:#0099cc" />
    <path
       d="M5094 986 c-96 -42 -27 -177 71 -140 17 7 45 54 45 78 0 20 -40 63 -65 70 -11 3 -34 -1 -51 -8z"
       id="path458"
       style="fill:#0000ff" />
    <path
       d="M3621 954 c-12 -15 -21 -32 -21 -39 0 -27 41 -65 70 -65 29 0 70 38 70 65 0 27 -41 65 -70 65 -19 0 -36 -9 -49 -26z m77 -6 c17 -17 15 -53 -3 -68 -20 -17 -61 -5 -68 19 -11 42 42 78 71 49z"
       id="path460"
       style="fill:#0033cc" />
    <path
       d="M3660 915 c0 -8 5 -15 10 -15 6 0 10 7 10 15 0 8 -4 15 -10 15 -5 0 -10 -7 -10 -15z"
       id="path462"
       style="fill:#0033cc" />
    <path
       d="M5610 890 c-27 -27 -25 -56 5 -85 26 -27 46 -31 76 -14 41 21 44 86 5 111 -21 14 -66 8 -86 -12z m88 -37 c3 -27 -1 -35 -22 -44 -32 -15 -56 2 -56 41 0 35 8 42 45 38 26 -3 30 -7 33 -35z"
       id="path464"
       style="fill:#0000cc" />
    <path
       d="M5650 850 c0 -5 5 -10 10 -10 6 0 10 5 10 10 0 6 -4 10 -10 10 -5 0 -10 -4 -10 -10z"
       id="path466"
       style="fill:#0033cc" />
    <path
       d="M4695 738 c-28 -16 -35 -28 -35 -65 0 -63 80 -83 115 -29 36 54 -25 125 -80 94z m65 -37 c20 -38 -21 -82 -59 -62 -44 24 -31 81 19 81 19 0 33 -7 40 -19z"
       id="path468"
       style="fill:#0000cc" />
    <path
       d="M4710 680 c0 -5 5 -10 10 -10 6 0 10 5 10 10 0 6 -4 10 -10 10 -5 0 -10 -4 -10 -10z"
       id="path470"
       style="fill:#0033cc" />
    <path
       d="M1773 2497 c-46 -33 -50 -43 -29 -72 13 -18 16 -17 65 19 52 39 55 43 45 70 -9 23 -34 18 -81 -17z"
       id="path472"
       style="fill:#ff9900" />
    <path
       d="M1855 2437 c-17 -12 -41 -30 -54 -39 l-23 -17 21 -30 c13 -17 28 -31 35 -31 6 0 31 19 54 43 l42 42 -23 27 -22 27 -30 -22z"
       id="path474"
       style="fill:#ff6600" />
    <path
       d="M1706 2324 c-9 -37 -23 -79 -31 -95 -21 -39 -20 -41 23 -33 48 8 132 44 132 55 0 9 -98 139 -105 139 -1 0 -10 -30 -19 -66z"
       id="path476"
       style="fill:#999933" />
    <path
       d="M1908 2336 c-27 -23 -48 -47 -48 -52 0 -6 9 -19 19 -29 19 -17 22 -16 65 20 51 41 54 50 28 82 l-17 21 -47 -42z"
       id="path478"
       style="fill:#ff9900" />
    <path
       d="M1972 2259 c-42 -39 -43 -42 -26 -60 26 -28 39 -24 77 28 26 35 33 51 25 60 -17 20 -30 15 -76 -28z"
       id="path480"
       style="fill:#ff6600" />
    <path
       d="M2045 2204 c-19 -26 -35 -50 -35 -54 0 -4 12 -15 26 -25 30 -19 29 -19 64 47 24 45 25 64 4 72 -9 3 -17 6 -19 6 -2 0 -20 -21 -40 -46z"
       id="path482"
       style="fill:#ff9900" />
    <path
       d="M1830 2200 c-46 -25 -139 -48 -222 -55 l-66 -6 -25 -62 c-38 -95 -40 -136 -14 -287 l23 -135 26 41 c15 23 46 78 70 123 59 111 151 214 278 313 l35 26 -29 31 c-35 36 -31 36 -76 11z"
       id="path484"
       style="fill:#336600" />
    <path
       d="M2146 2187 c-8 -12 -23 -39 -33 -60 -17 -38 -17 -39 2 -53 10 -8 22 -14 25 -14 6 0 60 105 60 118 0 4 -9 13 -20 20 -17 10 -22 9 -34 -11z"
       id="path486"
       style="fill:#ff9900" />
    <path
       d="M2205 2103 c-26 -58 -25 -66 10 -77 18 -5 25 3 49 51 26 54 27 58 10 70 -30 22 -42 15 -69 -44z"
       id="path488"
       style="fill:#ff6600" />
    <path
       d="M1923 2104 c-32 -25 -33 -28 -33 -97 0 -44 8 -97 20 -135 12 -38 20 -92 20 -133 0 -49 4 -69 13 -69 20 0 131 55 145 73 32 38 26 78 -32 195 -31 62 -59 131 -62 153 -8 47 -25 50 -71 13z"
       id="path490"
       style="fill:#339933" />
    <path
       d="M2296 2064 c-14 -31 -26 -58 -26 -59 0 -2 14 -8 31 -14 29 -10 30 -9 50 36 24 57 22 87 -8 91 -17 3 -26 -7 -47 -54z"
       id="path492"
       style="fill:#ff6600" />
    <path
       d="M2406 2088 c-3 -7 -12 -35 -22 -62 -17 -48 -15 -58 12 -57 10 0 44 113 38 123 -8 12 -24 10 -28 -4z"
       id="path494"
       style="fill:#ff9900" />
    <path
       d="M2026 2068 c3 -13 27 -63 52 -113 27 -54 48 -110 51 -138 l6 -49 47 37 c55 42 78 79 78 130 0 34 -2 36 -72 69 -40 18 -92 45 -115 59 -52 33 -56 33 -47 5z"
       id="path496"
       style="fill:#339933" />
    <path
       d="M2456 2026 c-20 -69 -20 -76 3 -76 14 0 22 12 30 44 15 60 14 86 -3 86 -9 0 -21 -21 -30 -54z"
       id="path498"
       style="fill:#ff9900" />
    <path
       d="M2525 2009 c-6 -47 -4 -63 6 -70 31 -20 44 -5 50 56 7 71 5 75 -26 75 -21 0 -24 -6 -30 -61z"
       id="path500"
       style="fill:#ff6600" />
    <path
       d="M2616 2033 c-10 -66 -7 -103 9 -103 12 0 15 14 15 70 0 75 -13 94 -24 33z"
       id="path502"
       style="fill:#ff9900" />
    <path
       d="M2675 2058 c-2 -7 -3 -38 -2 -68 1 -40 6 -55 17 -55 9 0 14 10 13 28 -1 15 -1 45 -2 67 -1 38 -17 55 -26 28z"
       id="path504"
       style="fill:#ff9900" />
    <path
       d="M1789 1999 l-52 -50 7 -77 c3 -42 14 -113 23 -157 l18 -80 50 8 c28 4 56 15 63 24 18 25 15 103 -8 175 -12 34 -23 96 -27 136 -3 39 -9 72 -14 72 -4 0 -31 -23 -60 -51z"
       id="path506"
       style="fill:#339933" />
    <path
       d="M1643 1794 c-34 -66 -71 -128 -82 -138 -12 -11 -21 -23 -21 -28 0 -9 117 -11 173 -2 35 6 37 9 37 43 0 20 -5 52 -11 71 -6 19 -16 66 -23 105 l-12 69 -61 -120z"
       id="path508"
       style="fill:#339933" />
    <path
       d="M6604 1572 c-12 -9 -47 -37 -78 -61 -62 -49 -135 -146 -120 -161 5 -5 32 8 68 36 33 24 63 44 68 44 22 0 2 -24 -57 -67 -35 -27 -64 -51 -65 -55 0 -4 9 -12 20 -18 17 -9 46 -2 157 41 132 51 136 54 154 94 44 96 11 165 -78 165 -30 -1 -56 -7 -69 -18z"
       id="path510"
       style="fill:#cc99ff" />
    <path
       d="M6613 1311 c-126 -49 -153 -64 -153 -87 0 -19 23 -17 100 6 40 12 68 16 74 10 11 -11 9 -12 -93 -43 l-73 -22 18 -22 c19 -21 21 -21 165 -10 154 13 168 18 195 68 28 55 14 108 -36 134 -42 22 -61 18 -197 -34z"
       id="path512"
       style="fill:#cc66ff" />
    <path
       d="M6357 1263 c-4 -3 -7 -13 -7 -22 0 -13 2 -14 9 -2 12 19 41 6 41 -18 0 -26 -21 -32 -42 -13 -17 14 -18 12 -18 -34 0 -62 -17 -123 -40 -149 -10 -11 -20 -31 -22 -45 -4 -30 -29 -33 -42 -4 -5 11 -28 28 -51 38 -38 15 -44 22 -55 64 -12 47 -26 72 -40 72 -5 0 -24 -26 -43 -57 -26 -42 -33 -61 -25 -70 14 -17 -7 -43 -34 -43 -17 0 -20 -5 -15 -29 6 -31 -7 -51 -34 -51 -9 0 -26 -14 -37 -31 -19 -31 -19 -33 -3 -63 14 -23 25 -31 48 -32 16 0 40 -8 53 -17 33 -23 56 -21 74 4 14 20 16 20 37 5 33 -23 54 -20 79 11 16 20 23 24 32 15 27 -27 78 2 78 45 0 16 5 19 25 15 38 -7 58 15 52 58 -4 33 -2 38 24 47 23 9 29 17 29 41 0 16 -7 35 -15 42 -20 17 -19 27 5 35 25 8 27 51 3 77 -13 15 -14 22 -4 44 10 22 9 31 -4 50 -15 23 -44 32 -58 17z m60 -134 c16 -16 5 -39 -17 -39 -23 0 -34 16 -26 35 6 18 28 19 43 4z m-278 -117 c7 -13 6 -23 -1 -30 -28 -28 -63 3 -38 33 16 20 27 19 39 -3z m255 12 c21 -8 21 -40 0 -48 -21 -8 -34 1 -34 23 0 28 9 34 34 25z m-316 -40 c2 -12 -4 -24 -12 -27 -19 -7 -40 18 -32 39 8 22 40 13 44 -12z m152 -34 c11 -7 12 -14 4 -27 -15 -24 -33 -28 -40 -9 -7 18 1 46 13 46 4 0 15 -5 23 -10z m-60 -35 c15 -18 5 -35 -20 -35 -10 0 -22 5 -25 10 -7 11 12 40 25 40 4 0 13 -7 20 -15z m-140 -10 c15 -18 5 -35 -20 -35 -10 0 -22 5 -25 10 -7 11 12 40 25 40 4 0 13 -7 20 -15z m330 -4 c0 -20 -25 -35 -41 -25 -5 3 -9 14 -9 25 0 14 7 19 25 19 18 0 25 -5 25 -19z m-257 -3 c7 -21 -4 -38 -23 -38 -23 0 -34 16 -26 35 7 18 43 20 49 3z m172 -63 c0 -30 -39 -27 -43 3 -3 20 0 23 20 20 15 -2 23 -10 23 -23z m-301 -1 c8 -21 -1 -34 -24 -34 -10 0 -21 4 -24 9 -10 16 5 41 24 41 10 0 21 -7 24 -16z m194 -28 c5 -24 -10 -38 -31 -30 -20 7 -22 25 -5 42 16 16 32 10 36 -12z m-108 -6 c0 -24 -26 -38 -42 -22 -16 16 -2 42 22 42 13 0 20 -7 20 -20z"
       id="path514"
       style="fill:#ccff00" />
    <path
       d="M6625 1116 c-124 -11 -145 -17 -145 -41 0 -15 23 -21 123 -30 46 -5 67 -11 64 -18 -3 -7 -8 -11 -13 -11 -5 1 -46 5 -91 9 l-83 7 0 -25 c0 -29 -12 -25 177 -68 l143 -33 35 34 c29 28 35 41 35 75 0 33 -6 47 -33 73 -41 39 -63 42 -212 28z"
       id="path516"
       style="fill:#cc33cc" />
    <path
       d="M6455 940 c-10 -16 0 -23 84 -60 44 -19 81 -41 81 -49 0 -7 -6 -11 -12 -8 -7 3 -50 21 -95 40 -68 30 -82 33 -87 20 -3 -8 -4 -18 -1 -23 12 -20 225 -165 260 -177 53 -19 98 -9 129 28 45 53 26 145 -33 168 -34 14 -278 71 -301 71 -11 0 -22 -4 -25 -10z"
       id="path518"
       style="fill:#cc99ff" />
    <path
       d="M6387 819 c-16 -9 -10 -19 53 -86 66 -70 81 -93 62 -93 -4 0 -41 34 -82 75 -41 41 -78 75 -82 75 -20 0 -2 -41 64 -149 90 -146 113 -171 166 -178 37 -5 45 -2 77 30 28 28 35 43 35 73 0 59 -29 94 -145 178 -122 88 -124 89 -148 75z"
       id="path520"
       style="fill:#cc66ff" />
    <path
       d="M5822 683 c-24 -43 -50 -87 -57 -97 -21 -28 -32 -10 -14 22 8 15 30 54 48 87 l32 60 -57 -65 c-32 -36 -94 -99 -138 -141 -76 -73 -79 -77 -72 -112 8 -45 56 -87 97 -87 37 0 85 24 98 49 25 45 131 343 126 352 -12 18 -21 8 -63 -68z"
       id="path522"
       style="fill:#cc3399" />
    <path
       d="M6278 742 c-10 -2 -18 -5 -18 -8 0 -2 16 -42 35 -88 37 -90 42 -110 24 -104 -5 2 -27 45 -48 96 -21 52 -41 94 -46 95 -4 1 -12 -5 -18 -14 -8 -12 1 -61 35 -185 42 -159 47 -170 78 -191 34 -24 88 -30 119 -13 28 15 44 64 37 112 -4 27 -34 87 -81 164 -81 131 -91 143 -117 136z"
       id="path524"
       style="fill:#cc3399" />
    <path
       d="M5902 703 c-5 -16 -33 -92 -61 -170 -28 -78 -51 -150 -51 -160 0 -31 38 -83 74 -100 31 -14 39 -15 72 -2 70 27 78 49 84 237 3 92 4 173 2 180 -3 7 -13 17 -23 22 -19 11 -18 12 -65 -152 -3 -10 -10 -18 -15 -18 -15 0 -11 29 15 113 l24 77 -23 0 c-16 0 -26 -8 -33 -27z"
       id="path526"
       style="fill:#cc99ff" />
    <path
       d="M6064 702 c-7 -4 -14 -72 -19 -183 -8 -200 -1 -228 56 -248 38 -13 98 0 122 26 38 43 37 62 -7 233 -40 154 -58 192 -84 176 -4 -2 -3 -50 2 -105 8 -90 5 -124 -8 -110 -3 3 -11 53 -18 112 -12 102 -18 116 -44 99z"
       id="path528"
       style="fill:#cc66ff" />
    <path
       d="M3780 350 c0 -7 267 -10 780 -10 513 0 780 3 780 10 0 7 -267 10 -780 10 -513 0 -780 -3 -780 -10z"
       id="path530"
       style="fill:#330000" />
    <path
       d="M3794 306 c-3 -8 -1 -24 6 -35 11 -21 11 -21 758 -21 411 0 752 4 758 8 18 12 26 45 12 54 -7 4 -354 8 -771 8 -646 0 -758 -2 -763 -14z"
       id="path532"
       style="fill:#330000" />
    <path
       d="M7061 4524 c-12 -15 -21 -41 -21 -58 0 -33 18 -106 26 -106 3 0 34 7 70 16 79 20 113 54 90 88 -10 16 -23 20 -50 19 -31 -2 -36 0 -36 20 0 50 -47 62 -79 21z"
       id="path534"
       style="fill:#ff0066" />
    <path
       d="M6011 4361 c-25 -25 -26 -56 -6 -131 8 -30 15 -81 15 -113 l0 -57 68 34 c140 71 193 148 146 215 -14 20 -23 22 -58 18 -35 -5 -44 -2 -61 19 -29 35 -77 42 -104 15z"
       id="path536"
       style="fill:#ff0000" />
    <path
       d="M6716 4238 c-32 -45 -14 -174 22 -164 9 2 43 12 75 21 44 12 61 22 69 41 17 37 0 59 -46 58 -31 -1 -36 2 -36 20 0 47 -57 63 -84 24z"
       id="path538"
       style="fill:#ff0066" />
    <path
       d="M4702 4168 c-24 -24 -10 -108 17 -108 9 0 27 -7 39 -16 21 -14 25 -14 65 8 27 15 43 31 45 46 5 33 -16 54 -47 47 -17 -3 -37 2 -56 15 -35 23 -46 25 -63 8z"
       id="path540"
       style="fill:#ff9933" />
    <path
       d="M4582 4138 c-7 -7 -12 -25 -12 -40 0 -16 -6 -31 -14 -34 -37 -14 -28 -60 14 -69 42 -9 73 3 93 36 23 42 22 58 -10 91 -29 30 -52 35 -71 16z"
       id="path542"
       style="fill:#ff9933" />
    <path
       d="M4823 4031 c-49 -31 -52 -58 -10 -98 20 -18 42 -33 50 -33 20 0 50 37 41 51 -4 7 -6 32 -5 56 1 38 -1 43 -21 43 -13 0 -37 -9 -55 -19z"
       id="path544"
       style="fill:#ff9933" />
    <path
       d="M4674 4019 c-19 -22 -13 -43 19 -63 23 -15 71 4 75 30 7 48 -59 72 -94 33z"
       id="path546"
       style="fill:#ff6600" />
    <path
       d="M4566 3964 c-22 -21 -20 -47 3 -61 11 -7 26 -25 33 -40 10 -21 20 -28 43 -28 26 0 32 5 44 41 15 41 14 42 -16 73 -35 35 -81 41 -107 15z"
       id="path548"
       style="fill:#ff9933" />
    <path
       d="M4731 3926 c-47 -50 -22 -158 27 -113 10 9 32 20 50 23 46 9 48 31 3 75 -21 21 -43 39 -48 39 -5 0 -20 -11 -32 -24z"
       id="path550"
       style="fill:#ff9933" />
    <path
       d="M5143 3703 c-7 -2 -13 -20 -13 -39 0 -29 5 -36 36 -49 34 -14 38 -14 66 6 37 27 33 53 -9 57 -17 2 -37 10 -43 18 -13 15 -17 16 -37 7z"
       id="path552"
       style="fill:#ffff00" />
    <path
       d="M5052 3678 c-7 -7 -12 -19 -12 -27 0 -8 -8 -23 -17 -34 -17 -18 -17 -19 0 -32 22 -16 61 -8 83 16 14 15 15 24 6 43 -14 32 -45 49 -60 34z"
       id="path554"
       style="fill:#ffff00" />
    <path
       d="M5223 3598 c-31 -15 -29 -52 3 -77 36 -28 54 -13 54 45 0 48 -12 54 -57 32z"
       id="path556"
       style="fill:#ffff00" />
    <path
       d="M5114 3585 c-14 -35 41 -60 66 -30 10 12 10 18 0 30 -16 19 -59 19 -66 0z"
       id="path558"
       style="fill:#ff6600" />
    <path
       d="M5037 3553 c-14 -13 -6 -39 22 -71 32 -38 54 -35 69 8 9 24 7 31 -12 49 -21 20 -66 28 -79 14z"
       id="path560"
       style="fill:#ffff00" />
    <path
       d="M5170 3533 c-22 -9 -30 -24 -30 -60 0 -40 13 -49 42 -29 12 9 30 16 40 16 25 0 22 21 -7 53 -14 15 -27 27 -28 26 -1 0 -9 -3 -17 -6z"
       id="path562"
       style="fill:#ffff00" />
    <path
       d="M7146 1529 c-24 -19 -26 -26 -26 -107 0 -48 -5 -107 -11 -131 -5 -24 -8 -45 -6 -47 2 -3 40 6 85 19 93 27 144 59 168 103 15 27 16 36 4 63 -13 32 -37 44 -80 39 -19 -2 -26 2 -28 19 -3 23 -46 63 -67 63 -7 0 -24 -9 -39 -21z"
       id="path564"
       style="fill:#cc66ff" />
    <path
       d="M2405 1500 c-10 -15 5 -72 18 -67 21 7 33 36 21 54 -13 21 -30 27 -39 13z"
       id="path566"
       style="fill:#ffcc99" />
    <path
       d="M2304 1459 c-14 -13 -41 -23 -75 -27 -50 -7 -54 -9 -57 -36 -2 -15 2 -41 8 -57 13 -30 82 -99 100 -99 15 0 12 21 -7 42 -9 10 -13 21 -9 25 3 4 15 -3 26 -15 29 -31 33 -27 14 16 -9 20 -18 43 -21 50 -3 6 -1 12 5 12 5 0 19 -19 30 -42 20 -40 21 -41 22 -15 0 34 20 26 20 -9 0 -14 6 -24 14 -24 10 0 17 17 21 54 15 117 -34 183 -91 125z"
       id="path568"
       style="fill:#99cc99" />
    <path
       d="M2481 1447 c-35 -17 -59 -63 -66 -127 l-7 -55 22 25 22 25 -6 -27 c-10 -43 12 -43 56 1 22 23 43 39 46 36 3 -3 -12 -23 -33 -45 -41 -42 -41 -62 0 -40 34 18 43 6 11 -15 -14 -10 -26 -22 -26 -27 0 -16 79 0 117 23 27 17 33 27 33 55 0 34 -13 51 -63 86 -13 9 -28 30 -32 45 -13 53 -31 62 -74 40z"
       id="path570"
       style="fill:#ffccff" />
    <path
       d="M2085 1381 c-12 -21 6 -50 36 -56 17 -4 32 -5 35 -2 7 7 -15 57 -25 57 -5 0 -16 3 -24 6 -8 3 -18 1 -22 -5z"
       id="path572"
       style="fill:#ffcc99" />
    <path
       d="M2060 1276 c-5 -15 -5 -37 2 -59 9 -30 8 -40 -11 -70 -27 -45 -27 -72 4 -102 17 -18 35 -25 61 -25 46 0 154 47 154 67 0 11 -7 13 -24 9 -14 -3 -27 -2 -30 3 -3 5 4 11 15 14 39 10 15 32 -39 35 -29 2 -52 8 -52 14 0 7 19 9 55 5 43 -4 55 -3 55 9 0 7 -11 16 -25 20 -14 3 -25 10 -25 15 0 12 17 11 41 -1 14 -8 19 -7 19 2 0 7 -23 30 -51 51 -41 29 -60 37 -96 37 -37 0 -45 -4 -53 -24z"
       id="path574"
       style="fill:#99ccff" />
    <path
       d="M2352 1250 c-53 -12 -72 -36 -72 -92 0 -41 5 -54 29 -79 16 -16 38 -29 48 -30 71 -4 108 16 122 67 22 81 -45 151 -127 134z"
       id="path576"
       style="fill:#ff9900" />
    <path
       d="M2640 1211 l-25 -19 28 -7 c33 -9 78 22 55 37 -19 12 -30 10 -58 -11z"
       id="path578"
       style="fill:#ffcc99" />
    <path
       d="M2538 1173 c-38 -6 -40 -43 -3 -43 14 0 25 -4 25 -10 0 -5 -13 -10 -30 -10 -42 0 -37 -17 10 -36 22 -9 40 -21 40 -26 0 -6 -8 -7 -17 -3 -80 32 -93 31 -75 -10 13 -28 2 -34 -18 -10 -14 17 -20 18 -38 6 -11 -6 -9 -17 9 -56 22 -47 67 -85 102 -85 30 0 67 45 67 82 0 23 10 42 36 69 31 32 35 41 29 69 -4 20 -18 38 -38 51 -31 19 -44 20 -99 12z"
       id="path580"
       style="fill:#99cc99" />
    <path
       d="M2248 1040 c-54 -29 -78 -65 -78 -116 0 -35 5 -47 25 -60 13 -9 33 -13 44 -9 11 3 36 -1 56 -10 52 -21 82 -19 110 10 28 27 31 68 11 124 -15 43 -36 52 -36 17 0 -14 -4 -26 -10 -26 -5 0 -10 11 -10 25 0 31 -16 33 -24 3 -8 -29 -34 -63 -42 -56 -3 3 4 24 16 47 15 30 17 41 7 41 -7 0 -18 -5 -25 -12 -6 -6 -15 -8 -19 -4 -5 4 0 13 10 20 18 14 23 26 10 26 -5 -1 -24 -10 -45 -20z"
       id="path582"
       style="fill:#ff6666" />
    <path
       d="M2102 984 c-25 -17 -30 -54 -7 -54 18 0 65 43 65 60 0 15 -32 12 -58 -6z"
       id="path584"
       style="fill:#ffcc99" />
    <path
       d="M2446 874 c-7 -25 7 -54 25 -54 15 0 22 50 9 65 -18 22 -27 19 -34 -11z"
       id="path586"
       style="fill:#ffcc99" />
    <path
       d="M3000 618 c-12 -13 -20 -36 -20 -57 0 -31 -5 -38 -33 -51 -42 -19 -50 -70 -17 -105 37 -40 103 -49 209 -30 l91 17 -34 40 c-19 21 -44 66 -56 98 -38 101 -95 136 -140 88z"
       id="path588"
       style="fill:#ff66ff" />
    <path
       d="M2428 619 c-22 -12 -25 -81 -4 -101 7 -8 31 -20 53 -27 35 -12 42 -11 76 9 33 20 38 27 35 54 -3 29 -6 31 -48 36 -25 3 -56 13 -70 22 -18 12 -30 14 -42 7z"
       id="path590"
       style="fill:#ffcc33" />
    <path
       d="M2295 580 c-3 -6 -4 -19 0 -29 3 -10 -1 -24 -10 -31 -48 -39 -31 -80 31 -80 26 0 42 8 63 31 32 34 31 60 -2 97 -21 23 -71 30 -82 12z"
       id="path592"
       style="fill:#ffcc33" />
    <path
       d="M2549 478 c-47 -32 -49 -62 -8 -104 18 -19 39 -34 46 -34 26 0 41 43 34 100 -7 64 -21 72 -72 38z"
       id="path594"
       style="fill:#ffcc33" />
    <path
       d="M2408 478 c-27 -22 -29 -46 -6 -68 26 -24 37 -25 66 -4 28 19 28 49 0 68 -27 19 -39 20 -60 4z"
       id="path596"
       style="fill:#cccc00" />
    <path
       d="M2317 423 c-15 -2 -31 -13 -37 -23 -11 -20 -4 -50 11 -50 5 0 20 -18 34 -40 14 -22 31 -40 39 -40 20 0 45 33 52 68 5 26 1 36 -24 62 -17 16 -34 29 -39 29 -4 -1 -20 -4 -36 -6z"
       id="path598"
       style="fill:#ffcc33" />
    <path
       d="M2456 377 c-19 -14 -38 -83 -30 -109 8 -26 30 -29 57 -7 14 10 34 19 45 19 51 0 48 48 -4 89 -31 24 -44 26 -68 8z"
       id="path600"
       style="fill:#ffcc33" />
    <path
       d="M7020 580 c-8 -5 -29 -10 -46 -10 -37 0 -58 -21 -49 -50 8 -27 32 -38 77 -37 31 1 40 6 54 32 27 51 5 92 -36 65z"
       id="path602"
       style="fill:#66ff66" />
    <path
       d="M7070 508 c-11 -18 -20 -36 -20 -39 0 -32 95 -63 106 -34 8 19 -36 105 -54 105 -7 0 -21 -15 -32 -32z"
       id="path604"
       style="fill:#66ff66" />
    <path
       d="M6855 490 c-3 -6 -3 -20 1 -33 4 -12 7 -34 6 -50 -3 -35 17 -43 57 -22 26 13 31 21 31 52 0 22 -7 41 -17 49 -21 16 -69 18 -78 4z"
       id="path606"
       style="fill:#66ff66" />
    <path
       d="M6976 455 c-20 -20 -20 -29 0 -49 20 -21 27 -20 55 3 20 16 22 23 13 38 -15 24 -48 28 -68 8z"
       id="path608"
       style="fill:#cccc00" />
    <path
       d="M7050 405 c-14 -17 -7 -69 11 -92 16 -18 38 -16 46 5 3 9 15 27 26 40 18 19 19 24 6 36 -23 23 -74 29 -89 11z"
       id="path610"
       style="fill:#66ff66" />
    <path
       d="M6933 375 c-27 -19 -30 -53 -5 -61 9 -3 31 -13 49 -22 43 -21 67 -4 57 42 -8 38 -12 42 -49 50 -20 4 -38 1 -52 -9z"
       id="path612"
       style="fill:#66ff66" />
  </g>
</svg>
