<?xml version="1.0" standalone="no"?>
<!DOCTYPE svg PUBLIC "-//W3C//DTD SVG 20010904//EN"
 "http://www.w3.org/TR/2001/REC-SVG-20010904/DTD/svg10.dtd">
<svg version="1.0" xmlns="http://www.w3.org/2000/svg"
 width="850.000000pt" height="850.000000pt" viewBox="0 0 850.000000 850.000000"
 preserveAspectRatio="xMidYMid meet">
<metadata>
Created by potrace 1.14, written by Peter Selinger 2001-2017
</metadata>
<g transform="translate(0.000000,850.000000) scale(0.100000,-0.100000)"
fill="#000000" stroke="none">
<path d="M4481 8031 c-8 -15 -4 -27 20 -57 16 -21 39 -44 49 -51 11 -8 30 -33
43 -56 20 -38 22 -56 22 -177 0 -147 -21 -254 -69 -348 l-24 -46 -118 -1
c-110 0 -123 -2 -170 -27 -68 -36 -129 -106 -156 -180 l-21 -60 -41 7 c-269
46 -553 29 -744 -45 -186 -72 -262 -179 -249 -353 4 -45 11 -116 17 -157 6
-43 8 -125 5 -195 -7 -132 -1 -162 43 -208 33 -35 93 -67 126 -67 14 0 27 -4
30 -9 12 -19 66 -309 66 -353 0 -59 -4 -59 -132 -19 -190 61 -216 65 -358 65
-313 -1 -510 -91 -612 -278 l-33 -61 -1 -235 c-1 -129 -6 -262 -12 -295 -17
-95 -9 -283 12 -325 41 -80 91 -112 186 -120 l64 -5 15 -68 c14 -66 13 -69 -8
-95 -35 -44 -44 -73 -45 -147 -1 -89 22 -152 75 -199 21 -20 43 -36 48 -36 11
0 17 -17 26 -71 l7 -37 -254 -4 -253 -5 -90 -32 c-121 -44 -162 -69 -228 -140
-118 -128 -145 -266 -108 -548 20 -146 41 -394 36 -403 -3 -5 -6 -61 -6 -124
-1 -99 2 -122 21 -161 38 -79 157 -155 243 -155 46 0 52 -8 66 -80 7 -36 24
-110 38 -165 35 -139 95 -460 183 -970 27 -159 55 -308 61 -330 16 -58 55
-104 108 -128 42 -20 68 -22 296 -25 138 -3 370 2 520 9 332 17 359 17 990 0
794 -22 1487 -14 1922 24 172 15 208 25 241 72 34 49 44 97 57 283 19 256 24
321 36 415 19 154 60 442 89 620 15 99 34 222 41 273 10 79 14 92 28 85 9 -4
50 -9 91 -11 72 -3 78 -2 125 31 38 25 58 50 83 98 47 91 47 174 -1 364 -62
247 -64 293 -22 490 8 39 15 100 15 138 0 88 -26 144 -105 223 -54 54 -70 64
-165 98 -157 56 -224 67 -431 73 l-186 6 2 36 c1 20 3 48 4 64 1 23 5 27 29
27 68 0 113 79 114 200 0 91 -17 137 -66 176 -31 25 -36 35 -36 69 0 61 10 87
29 79 60 -26 104 -36 136 -30 40 8 99 55 121 98 27 52 20 170 -23 398 -22 119
-24 149 -18 260 19 323 8 387 -83 478 -96 95 -208 128 -406 119 -107 -5 -171
-18 -416 -86 -107 -30 -102 -33 -96 52 3 39 5 115 5 167 l1 95 49 0 c40 0 56
6 87 31 85 68 104 166 63 320 -17 64 -22 116 -26 274 -4 224 -15 279 -67 332
-61 63 -94 73 -241 72 -112 0 -146 -5 -245 -31 -63 -17 -133 -33 -155 -34
l-40 -4 0 85 c0 105 -23 158 -101 234 l-53 52 29 72 c95 234 84 588 -22 677
-35 30 -64 32 -77 6z m73 -43 c14 -18 23 -34 21 -36 -7 -7 -64 42 -64 56 -1
21 17 13 43 -20z m-69 -728 c5 0 4 -5 -3 -12 -16 -16 -15 -38 2 -38 7 0 19 7
26 15 18 22 26 19 74 -25 61 -56 87 -115 89 -204 l2 -71 -47 -3 c-97 -6 -402
46 -511 87 -24 9 -27 15 -21 38 34 143 195 248 339 221 22 -4 44 -7 50 -8z
m-638 -230 c45 -6 171 -32 280 -59 378 -93 577 -108 788 -57 75 18 157 30 220
33 87 3 107 1 154 -19 67 -28 108 -77 120 -142 5 -27 10 -109 10 -181 2 -161
5 -190 33 -327 19 -96 20 -114 8 -165 -16 -75 -70 -133 -123 -133 -19 0 -39 6
-45 13 -5 6 -10 48 -11 92 -2 122 -7 139 -49 163 -21 11 -48 32 -61 46 -31 33
-75 41 -145 26 -31 -6 -65 -8 -77 -5 -11 4 -45 44 -74 88 -29 45 -66 94 -82
108 -36 34 -103 59 -154 59 -75 0 -167 -69 -170 -128 -4 -76 4 -179 20 -273
35 -199 9 -289 -98 -344 -45 -22 -131 -16 -169 12 -53 40 -80 122 -81 250 -1
67 -25 93 -88 93 -63 0 -75 24 -83 165 -5 102 -8 117 -30 140 -16 17 -34 25
-57 25 -54 0 -71 -15 -88 -78 -36 -127 -59 -156 -130 -154 -63 0 -90 24 -144
128 -36 69 -54 93 -82 108 -32 17 -40 18 -68 6 -47 -19 -56 -43 -52 -143 3
-106 -9 -127 -71 -127 -36 0 -38 -1 -38 -32 1 -18 7 -62 15 -98 7 -36 10 -69
6 -73 -23 -23 -109 42 -142 106 -18 34 -19 51 -13 165 4 93 2 154 -10 231 -19
124 -20 167 -4 212 62 181 444 312 785 269z m767 -498 c5 -8 10 -164 22 -714
l5 -268 -36 0 -36 0 3 483 c2 265 7 488 11 495 9 14 23 16 31 4z m88 -10 c16
-16 19 -89 25 -513 l6 -446 -29 -6 c-17 -3 -32 0 -36 6 -4 7 -8 50 -9 97 0 47
-2 121 -4 165 -2 44 -6 223 -9 399 l-6 318 28 -7 c15 -3 30 -9 34 -13z m118
-518 l0 -432 -25 -4 c-14 -3 -27 -2 -30 1 -11 19 -29 888 -19 915 6 15 11 13
40 -15 l34 -33 0 -432z m-1411 311 c12 -88 34 -230 47 -315 27 -167 54 -365
54 -391 0 -22 -26 -32 -50 -19 -12 7 -20 26 -25 62 -3 29 -25 152 -48 273 -40
209 -41 228 -39 380 3 148 13 200 32 178 4 -4 17 -80 29 -168z m45 143 c50
-68 76 -209 122 -668 3 -36 10 -94 14 -130 8 -71 3 -85 -29 -75 -25 8 -25 6
-56 226 -13 97 -34 233 -45 302 -26 162 -50 335 -50 359 0 27 16 22 44 -14z
m1088 -20 c1 -29 3 -66 4 -83 8 -92 4 -799 -4 -807 -6 -6 -18 -8 -28 -6 -17 3
-20 18 -26 142 -7 126 -6 143 12 183 44 100 46 157 9 381 -19 117 -18 164 2
220 15 38 29 24 31 -30z m-658 34 c9 -14 20 -186 31 -477 4 -88 8 -170 10
-183 2 -12 7 -74 11 -137 6 -111 6 -115 -13 -115 -40 0 -47 24 -58 185 -8 118
-25 325 -30 365 -2 19 -7 99 -11 177 -6 123 -5 145 10 167 16 25 40 34 50 18z
m56 -151 c5 -95 9 -113 32 -147 25 -37 26 -47 32 -209 4 -93 8 -190 11 -215
13 -135 14 -200 2 -200 -48 1 -54 9 -56 83 -1 40 -3 86 -5 102 -2 17 -7 93
-11 170 -4 77 -8 151 -10 165 -1 14 -6 88 -10 165 -3 77 -9 158 -11 180 -5 33
-3 38 7 27 9 -8 15 -52 19 -121z m910 60 c0 -5 16 -30 35 -55 l35 -46 0 -350
0 -350 -35 0 -35 0 0 113 c-1 195 -11 671 -15 685 -3 6 0 12 5 12 6 0 10 -4
10 -9z m-1036 -251 c6 -102 12 -177 21 -270 2 -25 7 -100 11 -167 6 -120 6
-123 -14 -123 -11 0 -23 3 -25 8 -6 8 -14 78 -22 187 -8 107 -23 269 -36 387
l-11 98 28 33 29 33 6 -41 c4 -22 9 -87 13 -145z m1315 154 c6 -6 2 -686 -4
-693 -2 -2 -25 -6 -51 -9 l-46 -5 4 352 c4 385 3 377 62 366 16 -3 32 -8 35
-11z m-1512 -65 c6 -13 17 -85 23 -159 6 -74 20 -209 31 -299 12 -100 16 -168
10 -174 -15 -15 -45 -3 -58 23 -6 14 -17 83 -23 154 -6 70 -20 196 -31 279
-11 84 -23 175 -26 202 l-6 50 34 -26 c19 -14 39 -37 46 -50z m1393 -266 c-1
-181 -3 -338 -7 -350 -3 -15 -13 -23 -28 -23 -21 0 -22 5 -28 98 -3 53 -6 211
-7 350 l-1 252 36 0 35 0 0 -327z m-1295 287 c4 -6 13 -72 20 -148 8 -75 17
-155 19 -177 4 -33 14 -183 20 -315 1 -18 -5 -26 -20 -28 -11 -2 -25 3 -31 10
-6 7 -22 112 -37 233 -39 333 -46 408 -34 423 13 15 54 16 63 2z m1492 -20
c25 -11 32 -21 36 -49 9 -55 -1 -553 -10 -561 -4 -4 -23 -10 -40 -13 l-33 -6
0 325 c0 179 3 324 8 322 4 -3 21 -11 39 -18z m-1893 -7 c26 -90 110 -599 102
-620 -5 -11 -14 -13 -34 -8 -15 4 -28 8 -29 9 -2 1 -12 61 -23 132 -10 71 -35
207 -55 302 -19 96 -35 178 -35 182 0 9 22 17 52 19 9 0 19 -7 22 -16z m764
-75 c9 -12 25 -325 27 -513 l0 -70 -31 -3 -31 -3 -7 163 c-3 90 -9 222 -12
295 -7 139 -8 133 37 142 4 0 11 -5 17 -11z m52 -220 c0 -12 13 -42 29 -67 27
-43 30 -56 36 -173 l7 -128 -26 0 c-14 0 -29 8 -35 18 -5 9 -12 80 -15 157 -4
77 -9 160 -13 184 -4 31 -2 42 6 37 6 -4 11 -17 11 -28z m333 -124 c2 -14 5
-75 6 -136 l2 -109 -28 3 -28 3 -3 119 c-2 104 0 120 15 132 25 19 30 17 36
-12z m-177 -24 c2 0 4 -52 4 -115 0 -104 -2 -115 -18 -115 -43 0 -51 20 -58
143 l-7 118 38 -15 c20 -9 39 -16 41 -16z m95 -20 c4 -14 7 -67 8 -118 l1 -92
-27 6 c-16 4 -32 10 -37 15 -5 5 -12 56 -14 114 l-4 106 33 -3 c26 -2 35 -9
40 -28z m1649 -88 c125 -41 214 -150 225 -277 4 -33 0 -109 -8 -170 -18 -137
-15 -183 23 -400 37 -212 38 -272 6 -340 -38 -84 -90 -103 -173 -66 -65 30
-66 37 -42 233 11 95 21 228 21 295 1 114 -1 126 -27 178 -45 92 -119 119
-205 75 -57 -29 -72 -58 -81 -157 -6 -73 -12 -91 -37 -122 -36 -45 -82 -62
-147 -55 -103 12 -173 64 -195 144 -6 21 -15 76 -21 121 -16 127 -47 169 -125
169 -55 0 -103 -33 -132 -92 -35 -70 -33 -240 3 -398 15 -63 34 -144 42 -180
20 -89 12 -176 -22 -246 -24 -48 -35 -59 -79 -80 -95 -44 -210 -25 -269 45
-52 62 -55 110 -26 423 12 131 11 154 -4 223 -29 135 -88 224 -179 269 -42 21
-66 26 -130 26 -194 0 -322 -119 -363 -338 -27 -141 -52 -208 -92 -247 -43
-42 -69 -50 -126 -41 -123 20 -133 20 -188 -10 -31 -18 -66 -47 -85 -74 -18
-25 -47 -54 -66 -64 -65 -39 -183 -15 -213 43 -14 27 -20 77 -30 229 -8 132
-38 180 -118 189 -65 8 -113 -12 -144 -58 -24 -37 -25 -44 -24 -171 1 -73 8
-176 15 -228 20 -136 15 -315 -8 -360 -39 -75 -105 -120 -177 -120 -73 0 -138
69 -179 191 -19 55 -21 78 -16 164 20 357 20 368 -3 437 -56 168 -164 251
-244 187 -57 -44 -58 -108 -7 -389 40 -222 41 -210 -21 -210 -68 0 -108 26
-144 92 -36 66 -43 156 -25 325 7 65 11 170 9 233 -8 254 5 311 88 414 110
135 326 207 578 193 82 -4 129 -14 262 -56 l162 -50 228 -11 c125 -6 311 -15
413 -20 242 -12 687 -13 820 0 58 5 186 14 285 20 163 10 196 15 355 57 302
79 322 83 455 79 87 -2 138 -9 185 -24z m-723 -437 c28 -32 40 -90 23 -110
-46 -55 -154 58 -126 131 9 25 75 11 103 -21z m-846 4 c9 -17 8 -24 -2 -31
-11 -7 -11 -8 1 -6 8 1 28 -6 43 -16 20 -14 46 -19 87 -19 52 1 60 -2 78 -27
29 -39 65 -155 60 -191 -3 -16 -1 -32 4 -35 4 -3 8 -9 8 -14 0 -5 -21 2 -46
15 -54 29 -74 31 -113 11 -67 -35 -102 -156 -73 -249 8 -29 15 -59 13 -67 -1
-12 0 -13 7 -1 8 11 11 11 18 -2 17 -28 78 -57 122 -57 24 0 41 -4 38 -8 -9
-16 14 -143 33 -180 20 -40 57 -70 108 -91 l32 -13 -16 -32 c-11 -20 -17 -55
-18 -96 0 -109 63 -195 145 -195 103 0 150 148 83 266 l-30 53 49 38 c28 23
58 59 73 88 l26 51 49 -7 c43 -6 51 -4 74 19 33 33 60 127 52 179 -16 98 -84
165 -144 141 -32 -12 -60 -21 -49 -16 14 8 7 22 -8 17 -9 -4 -15 0 -15 7 0 8
-7 52 -15 99 -30 166 -17 351 23 335 10 -3 12 0 8 10 -3 8 -1 15 4 15 6 0 10
-9 10 -20 0 -59 62 -120 121 -120 34 0 39 -3 44 -27 16 -76 28 -104 65 -146
48 -54 106 -77 198 -77 121 0 183 61 188 187 2 40 10 85 18 101 29 57 136 82
176 42 10 -10 29 -38 41 -62 33 -65 30 -215 -10 -508 -10 -74 -19 -177 -20
-228 -2 -79 -6 -102 -31 -155 -41 -88 -56 -189 -37 -264 8 -32 15 -90 16 -130
l2 -72 -33 -5 c-29 -4 -328 -31 -353 -31 -5 0 -10 21 -12 48 -2 26 -12 71 -23
99 -15 40 -17 54 -7 61 9 6 8 8 -4 4 -8 -3 -26 6 -39 20 -63 65 -158 54 -194
-22 -14 -28 -17 -57 -14 -135 l3 -100 -30 2 c-27 1 -239 -25 -420 -51 -38 -6
-96 -11 -127 -11 l-57 0 -7 38 c-12 66 -61 159 -98 181 -39 25 -95 27 -135 6
-38 -19 -71 -93 -80 -174 -6 -63 -7 -66 -36 -72 -84 -18 -847 -5 -1013 17
l-51 6 -10 50 c-14 64 -44 121 -77 147 -29 23 -92 28 -125 11 -25 -14 -65 -77
-74 -119 -7 -32 -8 -33 -44 -27 -113 21 -222 36 -268 36 -61 0 -66 9 -58 95
21 217 13 284 -45 378 -16 26 -27 54 -23 63 3 9 0 14 -8 12 -14 -3 -16 5 -63
267 -15 83 -34 183 -42 224 -30 157 -7 241 66 241 38 0 103 -56 97 -82 -3 -11
0 -18 9 -18 21 0 17 -24 -11 -56 -32 -37 -43 -77 -38 -139 6 -62 36 -122 72
-142 l27 -16 -4 -112 c-3 -63 1 -143 7 -180 27 -154 117 -255 228 -255 56 0
138 45 175 96 37 52 48 97 47 204 0 82 -3 113 -29 361 -16 150 -9 202 35 246
40 40 81 46 69 11 -4 -13 -7 -49 -6 -82 2 -74 34 -133 89 -162 34 -18 39 -25
46 -72 15 -91 86 -142 197 -142 70 0 109 17 140 59 14 21 26 28 38 24 14 -6
15 -4 4 9 -8 10 -9 18 -3 22 5 4 15 -10 20 -30 6 -21 25 -52 43 -71 26 -27 40
-33 73 -33 53 0 85 32 115 117 18 50 27 63 49 68 45 11 90 54 121 116 29 57
47 78 36 42 -5 -16 3 -18 60 -21 108 -4 144 37 144 164 0 80 -18 122 -74 170
l-41 36 45 39 c81 71 207 102 231 58z m91 2 c24 -10 49 -26 57 -35 12 -14 11
-16 -5 -18 -57 -4 -114 25 -114 59 0 17 10 16 62 -6z m-338 -152 c42 -33 59
-76 58 -150 0 -103 -39 -158 -101 -144 -16 3 -39 17 -51 30 -19 20 -21 30 -15
67 20 124 52 218 74 218 5 0 20 -9 35 -21z m-991 -181 c20 -26 48 -190 35
-203 -11 -11 -64 23 -84 52 -19 29 -26 130 -12 166 10 25 36 18 61 -15z m1472
-22 c34 -34 38 -62 27 -181 -14 -139 -23 -150 -101 -119 -75 30 -117 136 -92
231 23 84 114 121 166 69z m-2093 -58 c16 -30 18 -230 1 -235 -6 -2 -24 12
-39 33 -22 29 -29 50 -32 99 -6 97 38 161 70 103z m2690 -98 c39 -30 51 -70
46 -161 -3 -74 -6 -83 -31 -105 -16 -13 -38 -24 -51 -24 -40 0 -52 28 -65 150
l-12 115 26 23 c32 27 55 28 87 2z m-1460 -90 c20 -6 38 -16 41 -23 8 -22 -20
-89 -52 -120 -27 -27 -33 -29 -63 -21 -39 11 -78 64 -78 105 0 60 61 84 152
59z m1200 -417 c60 -65 65 -193 10 -248 -29 -29 -42 -31 -89 -8 -80 38 -113
168 -63 251 18 29 24 32 68 32 40 0 53 -5 74 -27z m1025 5 c35 -39 43 -64 43
-139 0 -84 -27 -154 -67 -172 -55 -25 -91 53 -73 158 18 98 48 175 69 175 4 0
17 -10 28 -22z m-3548 -61 c29 -68 44 -149 39 -216 -6 -78 -17 -90 -56 -62
-69 49 -102 189 -64 274 28 63 55 64 81 4z m2941 -226 c42 -31 70 -97 70 -166
0 -73 5 -70 -131 -81 -85 -6 -86 -6 -92 17 -4 13 -7 56 -7 94 0 138 72 200
160 136z m-909 -125 c36 -34 77 -140 66 -169 -6 -16 -39 -21 -186 -33 l-84 -6
7 57 c10 92 24 132 57 159 45 38 96 36 140 -8z m-1432 -1 c32 -16 69 -82 78
-139 5 -31 3 -36 -13 -36 -20 0 -168 27 -196 36 -53 16 23 154 85 154 10 0 31
-7 46 -15z m3196 -105 c252 -23 440 -113 506 -242 26 -51 25 -159 -3 -307 -19
-106 -20 -125 -10 -222 7 -59 26 -152 44 -210 27 -87 32 -120 33 -204 0 -90
-3 -106 -28 -158 -23 -47 -38 -63 -80 -87 -62 -36 -105 -38 -165 -9 -41 20
-43 24 -38 53 35 199 51 550 30 669 -16 95 -67 209 -107 243 -38 32 -106 33
-162 1 -62 -34 -87 -95 -90 -215 -3 -113 4 -172 45 -377 38 -189 60 -343 60
-420 0 -111 -48 -233 -120 -305 -86 -86 -268 -95 -355 -19 -57 51 -76 104 -82
233 l-6 113 48 114 c70 168 73 273 9 348 -59 70 -118 62 -183 -24 -59 -78 -99
-105 -165 -112 -74 -8 -135 16 -180 68 -34 40 -47 69 -85 194 -45 144 -87 185
-191 185 -152 0 -201 -112 -149 -342 49 -223 8 -388 -113 -457 -112 -64 -244
-63 -345 4 -111 73 -128 123 -119 340 3 90 2 186 -4 219 -28 173 -176 336
-305 336 -56 0 -155 -51 -198 -100 -57 -67 -95 -243 -84 -385 10 -119 64 -362
117 -525 64 -198 83 -299 78 -416 -3 -78 -8 -101 -37 -158 -38 -78 -114 -157
-168 -175 -21 -6 -69 -14 -108 -17 -57 -5 -81 -2 -127 15 -69 27 -131 83 -161
147 -20 44 -22 64 -21 184 1 74 7 168 13 208 17 95 17 246 0 300 -13 46 -49
82 -81 82 -35 0 -77 -39 -89 -82 -8 -33 -7 -60 10 -144 35 -175 28 -236 -38
-298 -77 -74 -233 -30 -282 79 -31 68 -25 145 36 405 25 106 31 285 11 351
-19 69 -70 146 -114 176 -45 30 -126 45 -177 33 -40 -9 -66 -33 -143 -128 -70
-88 -212 -78 -284 19 -11 14 -28 61 -39 105 -34 133 -112 189 -184 132 -69
-54 -72 -134 -10 -292 50 -131 79 -254 70 -300 -21 -106 -47 -146 -92 -146
-29 0 -155 65 -179 91 -38 43 -44 85 -42 289 2 156 -2 225 -19 345 -53 369
-35 495 90 623 61 63 89 78 226 126 l103 36 314 0 315 0 197 -40 c255 -53 369
-68 577 -80 408 -23 1063 -1 1500 51 94 11 244 24 335 30 91 5 262 20 380 33
231 25 455 31 615 16z m165 -520 c0 -19 -28 -10 -44 16 l-17 25 30 -16 c17 -8
31 -20 31 -25z m-56 -4 c37 -38 122 -200 132 -253 8 -43 -24 -113 -80 -173
-23 -25 -62 -83 -86 -130 l-45 -85 -3 38 c-4 51 36 121 97 172 27 22 54 49 59
60 26 55 42 97 42 109 0 21 -105 193 -150 248 -36 41 -38 48 -21 48 11 0 36
-15 55 -34z m-35 -44 c16 -21 53 -78 81 -127 51 -89 52 -90 36 -123 -9 -18
-16 -39 -16 -46 0 -8 -14 -26 -32 -41 l-32 -27 -32 39 c-18 22 -51 52 -73 67
-31 22 -41 36 -46 66 -7 42 9 181 25 211 17 32 55 24 89 -19z m119 17 c-2 -6
-8 -10 -13 -10 -5 0 -11 4 -13 10 -2 6 4 11 13 11 9 0 15 -5 13 -11z m42 -72
c0 -11 -5 -17 -12 -14 -7 2 -12 10 -10 16 1 6 -5 14 -13 17 -12 5 -13 9 -4 20
10 12 14 11 25 -3 7 -10 14 -26 14 -36z m-2506 -23 c3 -9 -1 -27 -9 -42 -13
-23 -15 -23 -10 -5 5 18 3 22 -9 17 -9 -3 -16 -1 -16 5 0 6 6 11 13 11 9 0 8
3 -2 9 -17 11 -5 32 14 25 7 -3 16 -12 19 -20z m-77 4 c5 -7 15 -37 22 -67
l14 -54 -85 -81 c-80 -77 -111 -121 -144 -205 l-14 -36 4 54 c6 66 39 123 109
190 64 62 87 114 67 160 -17 41 3 70 27 39z m128 -42 c-10 -51 18 -100 95
-161 75 -61 89 -82 95 -142 5 -53 -8 -63 -26 -21 -7 18 -60 80 -116 139 -111
115 -118 130 -83 187 26 43 43 42 35 -2z m2484 -56 c-1 -19 -39 60 -38 80 0 8
8 -3 19 -25 11 -22 19 -47 19 -55z m-2658 53 c17 -45 -34 -133 -76 -133 -6 0
-19 14 -29 30 -20 34 -19 36 38 98 36 39 53 40 67 5z m259 -35 c25 -34 27 -43
18 -64 -13 -29 -20 -30 -41 -6 -29 32 -49 92 -36 108 14 17 23 12 59 -38z
m931 -14 c39 -20 55 -42 40 -57 -10 -9 -14 -8 -22 5 -13 23 -72 58 -99 58 -13
0 -37 -15 -55 -34 -24 -26 -35 -32 -44 -23 -17 17 -13 31 12 46 49 32 113 34
168 5z m-13 -50 c21 -25 30 -54 14 -54 -4 0 -15 -22 -25 -50 -11 -31 -24 -50
-34 -50 -12 0 -13 -3 -4 -14 8 -9 8 -16 2 -20 -13 -8 -81 122 -81 155 0 26 21
51 50 62 24 8 53 -3 78 -29z m-3088 -13 c0 -6 -4 -13 -10 -16 -5 -3 -10 1 -10
9 0 9 5 16 10 16 6 0 10 -4 10 -9z m2225 -11 c7 -23 -2 -43 -16 -35 -12 8 -12
55 0 55 5 0 12 -9 16 -20z m-2265 -39 c-14 -23 -47 -61 -54 -61 -9 0 4 49 22
84 14 28 15 29 28 12 9 -13 10 -24 4 -35z m1844 26 c15 -24 -3 -35 -20 -13 -8
11 -14 24 -14 29 0 13 22 3 34 -16z m233 7 c14 -37 -41 -71 -66 -40 -9 11 -10
20 -1 35 13 25 58 28 67 5z m936 -103 c19 -42 41 -92 49 -111 l15 -34 21 57
c31 81 91 197 102 197 18 0 11 -24 -30 -105 -22 -43 -52 -115 -66 -158 -14
-43 -30 -75 -34 -70 -4 4 -21 42 -38 83 -16 41 -46 106 -66 143 -35 67 -43 97
-29 111 11 10 36 -28 76 -113z m-2917 74 c16 -40 18 -55 5 -55 -16 0 -63 68
-56 80 13 20 36 9 51 -25z m4292 -41 c43 -45 51 -58 42 -69 -10 -12 -21 -5
-66 42 -53 56 -66 83 -42 83 6 0 36 -25 66 -56z m232 6 c0 -36 -16 -47 -30
-20 -8 14 -8 26 0 40 14 27 30 16 30 -20z m-2800 11 c0 -10 -6 -23 -13 -30
-11 -8 -13 -5 -9 19 5 33 22 41 22 11z m184 -6 c26 -20 75 -19 97 1 16 15 20
14 46 -1 40 -24 98 -99 135 -172 29 -59 30 -68 25 -143 -5 -77 -7 -83 -42
-117 -60 -58 -112 -147 -169 -287 l-16 -39 -36 69 c-52 98 -94 160 -158 232
-42 47 -56 70 -56 93 0 16 -7 43 -15 60 -13 24 -14 37 -4 72 18 69 65 159 107
205 43 45 56 50 86 27z m-1960 -8 c25 -18 19 -80 -8 -86 -36 -6 -62 59 -34 87
15 15 20 15 42 -1z m3190 -13 c12 -31 5 -55 -29 -103 -78 -108 -78 -175 0
-212 23 -11 56 -34 73 -52 32 -34 102 -164 102 -191 0 -31 17 -15 39 38 30 73
79 128 145 161 75 38 90 56 83 100 -9 57 33 43 48 -17 5 -21 3 -27 -15 -33
-12 -4 -26 -18 -32 -31 -6 -13 -30 -35 -53 -48 -74 -44 -157 -172 -186 -288
-11 -47 -29 -65 -29 -31 0 37 -63 205 -93 251 -18 25 -58 65 -89 87 -32 22
-67 52 -79 68 l-21 27 22 73 c27 88 85 217 98 217 6 0 13 -7 16 -16z m1141
-61 c12 -18 14 -28 6 -31 -6 -2 -9 -8 -6 -13 8 -11 -13 -49 -26 -49 -6 0 -7 6
-1 17 7 11 6 24 -3 37 -7 12 -16 36 -20 54 -6 31 -6 33 13 23 10 -5 27 -23 37
-38z m-4245 -15 c0 -5 -6 -8 -14 -8 -7 0 -25 -9 -39 -20 -27 -21 -72 -27 -82
-10 -3 6 -14 10 -25 10 -11 0 -20 10 -24 25 -11 42 16 65 29 25 16 -51 85 -49
111 2 l16 32 14 -25 c7 -13 13 -27 14 -31z m4465 40 c35 -16 28 -42 -12 -46
-26 -3 -38 -13 -74 -69 -37 -56 -44 -75 -47 -127 -3 -66 -2 -68 66 -166 29
-44 42 -73 42 -97 0 -45 -14 -35 -36 27 -10 27 -35 71 -55 97 -54 69 -82 128
-74 155 14 45 80 154 118 196 22 23 41 42 43 42 2 0 15 -5 29 -12z m-3851 -20
c28 -15 3 -33 -48 -33 -42 0 -96 20 -96 36 0 20 105 18 144 -3z m2265 -105
c23 -55 41 -107 41 -115 0 -14 -50 -68 -63 -68 -4 0 -7 20 -7 45 0 24 -9 91
-20 147 -11 57 -20 107 -20 113 0 27 33 -31 69 -122z m-2351 55 c36 -10 49
-10 89 5 54 20 63 15 97 -52 35 -69 50 -144 36 -172 -13 -23 -60 -68 -73 -69
-4 0 -12 11 -17 25 -5 14 -31 48 -56 75 -42 45 -51 50 -89 50 -37 0 -48 -5
-75 -37 -18 -20 -41 -56 -52 -80 -22 -50 -40 -54 -80 -16 -50 48 -29 113 73
226 67 74 59 71 147 45z m2612 -12 c0 -6 17 -33 38 -61 l39 -49 -35 -46 c-19
-25 -36 -47 -38 -49 -8 -9 -76 44 -89 69 -17 33 -14 45 29 117 23 40 33 50 43
41 7 -6 13 -16 13 -22z m530 19 c0 -2 -13 -26 -30 -51 -16 -26 -33 -62 -36
-81 -8 -42 -19 -42 -34 2 -13 39 -5 62 38 108 22 23 62 38 62 22z m45 -16 c4
-5 -5 -29 -21 -52 -15 -22 -29 -59 -31 -81 -4 -37 -1 -45 31 -75 34 -33 48
-71 26 -71 -19 0 -86 47 -102 71 -14 22 -14 29 1 75 16 52 69 144 82 144 4 0
11 -5 14 -11z m763 -44 c6 -84 -6 -127 -46 -177 -20 -26 -40 -47 -44 -48 -17
-1 -40 52 -40 92 -1 47 25 106 68 157 38 46 58 38 62 -24z m-4432 10 c15 -19
37 -65 50 -101 22 -59 23 -68 10 -98 -9 -22 -27 -40 -49 -51 l-34 -16 -60 58
c-47 47 -64 73 -85 128 -14 39 -30 78 -34 89 -6 16 -4 17 14 7 28 -15 62 -14
92 3 42 24 67 19 96 -19z m3709 -100 c0 -40 -4 -77 -8 -81 -4 -4 -21 6 -38 22
-29 29 -30 33 -20 70 6 21 18 50 27 62 26 37 39 12 39 -73z m-3623 18 c19 -23
38 -78 38 -112 0 -26 -57 -93 -116 -137 -37 -28 -100 -134 -120 -202 -22 -74
-38 -53 -19 22 27 102 108 222 173 256 49 25 60 94 25 163 -15 30 -4 36 19 10z
m142 -38 c-30 -72 -12 -120 57 -155 44 -23 94 -82 158 -188 24 -39 45 -72 47
-72 2 0 24 41 49 92 25 50 62 113 82 140 36 47 80 84 89 75 2 -2 -19 -38 -46
-81 -65 -97 -111 -186 -141 -270 -13 -36 -26 -66 -29 -66 -3 1 -25 41 -49 90
-54 108 -115 189 -179 235 -26 19 -59 50 -74 69 l-28 35 20 65 c19 59 34 80
52 69 4 -2 0 -19 -8 -38z m-54 23 c0 -7 -5 -31 -11 -53 -12 -43 -18 -38 -33
33 -7 30 -6 32 18 32 14 0 26 -6 26 -12z m3090 -19 c62 -19 99 -48 100 -76 0
-22 -21 -14 -62 23 -54 48 -91 45 -133 -13 -35 -48 -45 -53 -45 -20 0 24 53
107 68 107 4 0 36 -9 72 -21z m183 7 c8 -19 -30 -66 -52 -66 -10 0 -23 11 -29
25 -11 24 -10 26 18 32 17 3 33 10 36 14 8 13 21 11 27 -5z m-2922 -33 c46
-42 96 -130 81 -145 -6 -6 -21 9 -40 40 -36 59 -84 96 -112 87 -25 -8 -66 -61
-81 -103 -13 -37 -29 -42 -29 -9 0 50 88 167 126 167 8 0 32 -17 55 -37z
m2409 -48 c0 -18 -34 -37 -54 -29 -24 9 -26 33 -4 48 24 17 58 6 58 -19z m334
29 c9 -3 16 -11 16 -17 0 -6 8 -19 17 -30 17 -18 16 -20 -24 -58 -24 -22 -43
-43 -43 -47 0 -4 -8 -7 -17 -7 -11 0 -17 7 -17 18 1 9 -3 17 -10 17 -22 0 -37
38 -25 63 29 56 63 76 103 61z m290 -36 c14 -23 -3 -52 -32 -56 -30 -5 -45 29
-26 57 18 25 42 24 58 -1z m670 7 c3 -8 2 -23 -1 -32 -6 -15 -7 -15 -14 3 -11
27 -11 44 0 44 5 0 11 -7 15 -15z m-3753 -12 c0 -11 3 -13 6 -5 7 17 23 15 23
-3 0 -8 7 -15 15 -15 14 0 20 -12 16 -34 -1 -5 7 -15 19 -23 20 -14 28 -53 10
-53 -5 0 -18 -20 -28 -44 -11 -24 -25 -47 -31 -50 -6 -4 -11 -19 -11 -33 0
-21 -3 -23 -14 -14 -8 7 -18 26 -21 42 -4 16 -10 29 -14 29 -14 0 -61 75 -61
98 0 35 32 93 48 87 9 -3 12 0 9 9 -7 16 1 26 20 26 7 0 13 -8 14 -17z m-572
-9 c32 -23 56 -81 40 -100 -9 -11 -15 -8 -33 19 -26 37 -49 97 -38 97 4 0 18
-7 31 -16z m4496 -23 c-14 -29 -35 -42 -35 -22 0 12 41 63 47 57 2 -2 -3 -18
-12 -35z m-1537 -3 c34 -21 35 -21 68 -3 40 22 72 15 117 -25 39 -34 96 -151
128 -262 l23 -78 -25 -26 c-13 -14 -49 -43 -79 -64 -104 -71 -178 -168 -210
-277 -12 -41 -30 -58 -30 -30 0 7 -24 62 -54 122 -54 108 -124 197 -167 210
-10 3 -27 21 -39 40 -19 30 -20 39 -10 77 14 49 26 68 46 68 10 0 14 -14 14
-47 0 -56 13 -79 88 -154 51 -52 82 -104 117 -203 l18 -48 36 69 c50 95 104
158 168 196 30 18 62 44 70 58 15 25 14 32 -18 130 -35 106 -76 178 -120 212
-25 18 -26 18 -69 -4 -38 -20 -46 -21 -74 -10 -17 8 -39 14 -48 14 -21 1 -22
10 -8 38 13 24 15 24 58 -3z m769 -14 c39 -30 33 -52 -9 -33 -21 9 -30 8 -52
-6 -20 -13 -38 -16 -70 -12 -42 6 -46 4 -78 -31 -55 -61 -99 -130 -119 -187
-26 -74 -14 -104 62 -156 62 -42 87 -77 134 -191 15 -38 31 -68 34 -68 3 0 23
33 44 73 42 82 81 127 97 111 7 -7 -6 -38 -42 -95 -29 -46 -62 -103 -72 -127
-10 -23 -22 -42 -25 -42 -3 0 -15 21 -25 48 -29 73 -122 208 -172 250 -25 20
-58 56 -74 78 l-28 42 19 68 c33 120 86 208 156 255 45 31 45 31 77 14 39 -21
86 -14 93 15 7 26 9 25 50 -6z m-3449 -43 c3 -25 -2 -33 -22 -43 -22 -9 -29
-8 -46 7 -26 23 -25 50 1 69 32 22 63 6 67 -33z m4076 43 c37 -14 111 -178
119 -266 5 -51 4 -58 -17 -72 -13 -8 -26 -29 -30 -47 -3 -17 -22 -53 -41 -80
-44 -62 -98 -169 -121 -241 -10 -32 -21 -58 -24 -58 -4 0 -13 19 -20 43 -7 23
-26 68 -42 101 -23 45 -27 61 -17 67 18 11 26 4 49 -42 11 -21 23 -39 25 -39
3 0 19 29 36 65 19 37 52 84 80 110 30 29 52 60 58 83 6 20 18 47 26 60 12 16
14 32 10 55 -11 52 -71 174 -99 202 -26 26 -32 45 -19 58 8 8 8 8 27 1z
m-2458 -194 c53 -90 85 -181 66 -188 -7 -2 -24 -26 -37 -53 -14 -27 -30 -49
-35 -49 -15 0 -11 52 5 74 35 46 14 125 -64 240 -72 107 -91 140 -90 156 0 25
108 -100 155 -180z m334 152 c0 -17 -15 -45 -40 -76 -43 -52 -106 -173 -116
-224 -5 -25 -1 -35 21 -54 85 -74 155 -149 180 -195 15 -29 31 -53 34 -53 3 0
18 24 33 53 37 69 120 155 175 179 52 23 77 57 75 104 -2 43 14 36 35 -14 14
-35 14 -36 -11 -55 -14 -10 -26 -25 -26 -32 0 -7 -31 -34 -69 -59 -87 -58
-117 -93 -176 -201 -26 -48 -51 -83 -55 -78 -3 4 -15 29 -24 56 -22 60 -86
146 -161 217 -77 73 -90 104 -69 167 37 111 152 293 185 293 5 0 9 -12 9 -28z
m865 -8 c49 -32 134 -227 121 -278 -7 -30 -44 -76 -61 -76 -7 0 -19 15 -25 34
-6 19 -29 53 -51 75 -33 35 -45 41 -80 41 -59 0 -101 -24 -135 -77 -16 -25
-32 -50 -36 -56 -8 -14 -48 34 -64 77 -16 42 -7 75 30 114 17 18 45 59 61 90
33 61 32 61 120 47 27 -4 48 -1 65 9 14 8 26 14 28 15 1 1 14 -6 27 -15z
m-3094 -24 c5 0 9 -9 9 -21 0 -35 -25 -15 -27 22 -1 19 1 26 3 17 3 -10 10
-18 15 -18z m794 -17 c-3 -27 -17 -64 -30 -84 -38 -58 -85 -157 -85 -178 0
-11 11 -33 25 -49 45 -54 27 -87 -29 -53 -50 31 -61 67 -40 122 34 87 147 289
161 289 3 0 2 -21 -2 -47z m2943 22 c1 -1 -4 -29 -12 -61 -13 -51 -24 -121
-25 -160 -1 -8 -16 -10 -43 -7 -55 6 -105 -26 -133 -84 -11 -23 -22 -42 -25
-43 -3 0 -25 18 -48 40 -39 35 -43 43 -37 72 10 51 60 149 100 196 34 39 40
42 89 42 29 0 61 6 71 14 18 13 40 9 63 -9z m762 5 c0 -5 -2 -10 -4 -10 -3 0
-8 5 -11 10 -3 6 -1 10 4 10 6 0 11 -4 11 -10z m-4314 -25 c15 -14 38 -25 51
-25 13 0 35 11 49 25 14 14 29 25 33 25 22 0 115 -98 155 -163 65 -105 80
-141 72 -172 -4 -15 -41 -60 -86 -101 -90 -86 -140 -155 -174 -237 l-23 -57
-23 67 c-35 105 -55 138 -133 218 -40 40 -76 79 -82 85 -5 6 -19 17 -30 24
-18 13 -19 18 -7 63 21 76 79 189 121 233 21 22 41 40 44 40 3 0 18 -11 33
-25z m4193 -58 c54 -113 57 -128 32 -174 -11 -21 -25 -53 -32 -71 -6 -18 -17
-31 -23 -29 -19 6 -45 90 -34 110 5 11 8 70 6 133 -1 63 0 114 4 114 4 0 25
-37 47 -83z m-1983 -88 c35 -18 87 -34 114 -37 57 -5 70 -24 49 -73 -12 -29
-54 -59 -83 -59 -8 0 -25 19 -38 42 -30 53 -69 82 -113 82 -45 0 -81 -27 -123
-92 l-34 -51 -34 22 c-42 27 -47 41 -33 85 14 41 71 144 106 190 l25 34 50
-56 c32 -37 70 -66 114 -87z m-2406 97 c0 -17 -14 -29 -23 -20 -8 8 3 34 14
34 5 0 9 -6 9 -14z m1854 -90 c30 -54 36 -74 36 -125 0 -34 -4 -61 -10 -61 -5
0 -10 1 -10 3 0 1 -20 62 -45 135 -25 73 -45 138 -45 145 1 18 34 -25 74 -97z
m-645 11 c37 -55 55 -117 41 -149 -16 -38 -76 -102 -89 -94 -9 6 -5 15 11 31
13 13 33 37 45 53 l22 29 -30 64 c-17 35 -35 74 -40 87 -14 37 8 25 40 -21z
m-1248 6 c-12 -20 -14 -14 -5 12 4 9 9 14 11 11 3 -2 0 -13 -6 -23z m1279 6
c0 -6 -4 -7 -10 -4 -5 3 -10 11 -10 16 0 6 5 7 10 4 6 -3 10 -11 10 -16z m-61
-64 c17 -36 31 -67 31 -70 0 -10 -45 -75 -52 -75 -13 0 -28 75 -28 143 0 37 4
67 9 67 5 0 23 -29 40 -65z m-417 -33 c-13 -63 -20 -82 -32 -80 -26 5 -22 44
10 108 17 34 33 60 35 58 3 -2 -3 -41 -13 -86z m1905 1 c-4 -17 -4 -17 -12 0
-4 9 -4 25 0 35 8 16 8 16 12 0 3 -10 3 -26 0 -35z m396 7 c31 -25 71 -105 63
-126 -5 -13 -9 -14 -21 -4 -8 7 -15 18 -15 24 0 7 -14 25 -31 42 -24 23 -39
29 -75 29 -42 0 -49 -4 -85 -45 -43 -50 -48 -48 -19 9 43 84 125 116 183 71z
m-666 -33 c32 -32 54 -89 42 -108 -9 -11 -11 -12 -16 -1 -13 33 -66 82 -89 82
-33 0 -69 -25 -95 -66 -11 -19 -25 -32 -29 -29 -22 13 53 128 93 145 30 12 68
3 94 -23z m1304 3 c34 -19 23 -40 -21 -40 -51 0 -91 -20 -110 -54 -15 -29 -30
-34 -30 -11 0 29 31 76 63 95 36 22 69 25 98 10z m-678 -40 c15 -7 26 -19 23
-26 -3 -9 1 -11 11 -7 13 5 15 1 9 -21 -4 -18 -3 -25 4 -21 5 3 10 -2 10 -13
0 -21 -35 -58 -42 -45 -3 4 -3 2 -1 -6 2 -7 -7 -28 -20 -45 -13 -17 -27 -40
-31 -50 -6 -17 -10 -14 -27 19 -14 26 -17 41 -10 43 6 2 11 8 11 14 0 6 -7 8
-15 4 -8 -3 -15 0 -15 6 0 7 -10 22 -22 35 -18 19 -20 26 -9 32 10 6 10 10 1
16 -20 12 67 91 90 82 3 -2 18 -9 33 -17z m1451 -29 c-5 -22 -10 -29 -17 -22
-7 7 -7 19 2 37 15 34 23 26 15 -15z m-2120 4 c10 -7 15 -18 12 -23 -3 -5 3
-12 14 -15 14 -4 18 -10 13 -23 -4 -12 -3 -15 5 -10 20 12 13 -10 -9 -30 -17
-15 -23 -16 -40 -6 -22 14 -25 7 -4 -14 8 -8 12 -21 8 -30 -4 -12 -8 -12 -21
-2 -13 11 -15 9 -9 -19 4 -18 3 -33 -1 -33 -12 0 -44 59 -38 69 3 4 -6 13 -19
19 -31 14 -31 18 -1 73 15 29 29 43 40 41 9 -2 16 2 16 8 0 14 11 12 34 -5z
m1976 -20 c14 -42 3 -67 -17 -40 -15 21 -18 75 -4 75 5 0 15 -16 21 -35z
m-1636 4 c17 -25 12 -45 -15 -60 -43 -23 -78 30 -43 65 21 22 40 20 58 -5z
m666 6 c15 -18 4 -52 -20 -65 -40 -22 -80 36 -48 68 16 16 53 15 68 -3z m356
0 c16 -13 17 -16 4 -25 -12 -9 -12 -10 5 -8 14 2 21 -4 23 -20 4 -29 -24 -63
-46 -55 -12 5 -14 2 -9 -11 5 -11 -1 -32 -14 -52 -18 -30 -23 -33 -37 -22 -13
11 -15 10 -9 -4 19 -48 20 -53 9 -43 -15 15 -72 154 -72 177 0 11 13 33 29 49
33 33 84 39 117 14z m-1682 -21 c9 -23 -20 -64 -44 -64 -27 0 -40 28 -27 57
12 28 61 32 71 7z m-1413 -4 c23 -13 25 -52 4 -70 -19 -15 -61 -6 -69 16 -7
18 18 64 35 64 6 0 19 -5 30 -10z m-596 -21 c4 -12 2 -26 -4 -32 -13 -13 -18
-9 -26 26 -6 21 -4 27 8 27 9 0 19 -9 22 -21z m1225 4 c0 -23 -17 -49 -26 -41
-9 10 4 58 16 58 6 0 10 -8 10 -17z m1542 -52 c50 -56 98 -141 133 -236 l24
-66 -22 -32 c-13 -18 -53 -62 -90 -98 -71 -71 -123 -162 -153 -271 -9 -32 -20
-58 -24 -58 -5 0 -19 29 -33 65 -47 122 -96 196 -199 299 -54 54 -98 103 -98
110 0 20 50 119 86 169 37 51 84 96 141 135 l35 24 22 -21 c30 -28 67 -27 96
4 13 14 27 25 31 25 4 0 27 -22 51 -49z m482 24 c30 -30 66 -32 91 -5 10 11
24 20 31 20 32 0 162 -180 204 -282 l23 -56 -26 -32 c-15 -17 -27 -35 -27 -39
0 -4 -27 -28 -59 -54 -89 -68 -136 -145 -197 -317 -3 -8 -20 23 -38 71 -57
151 -116 236 -231 334 -42 36 -46 43 -41 73 7 46 50 137 87 183 32 41 134 129
149 129 5 0 20 -11 34 -25z m1186 4 c0 -6 -13 -27 -29 -47 -44 -55 -81 -133
-101 -211 -17 -66 -17 -71 0 -109 10 -21 25 -42 33 -45 21 -8 37 -40 28 -56
-6 -9 -17 -6 -47 14 -46 31 -74 71 -74 106 0 65 71 235 135 322 32 43 55 54
55 26z m-2319 -66 c64 -71 139 -204 139 -246 0 -10 -23 -39 -51 -65 -167 -155
-203 -204 -249 -344 -12 -38 -23 -68 -25 -68 -2 0 -16 28 -32 63 -15 34 -45
96 -65 136 -25 50 -35 78 -28 85 15 15 57 -30 92 -101 17 -35 34 -63 38 -63 4
0 11 11 14 24 10 39 94 158 139 196 78 66 95 87 107 129 14 53 2 94 -51 172
-49 73 -78 92 -132 85 -23 -3 -63 -8 -89 -11 -54 -7 -62 4 -27 41 19 20 23 21
36 8 20 -20 56 -18 84 5 23 18 25 18 49 1 14 -10 37 -31 51 -47z m2151 39 c-7
-2 -12 -12 -12 -22 0 -9 -7 -23 -15 -30 -8 -7 -15 -21 -15 -31 0 -11 -4 -19
-10 -19 -5 0 -10 8 -10 18 0 10 -5 23 -11 29 -16 16 24 71 54 75 23 3 39 -13
19 -20z m-3584 -2 c41 -25 41 -40 -2 -33 -22 3 -42 0 -59 -12 -19 -12 -37 -15
-71 -10 -25 4 -57 4 -70 1 -29 -7 -108 -109 -142 -181 -40 -85 -35 -102 54
-192 43 -44 100 -114 127 -156 l49 -77 38 73 c43 81 111 167 175 218 48 40 78
96 68 129 -6 20 -5 22 16 17 13 -4 48 -7 77 -7 45 0 52 -3 52 -20 0 -34 23
-70 84 -134 39 -40 79 -96 111 -156 28 -51 55 -95 60 -97 6 -2 16 12 23 31 16
42 39 63 53 49 8 -8 3 -25 -17 -59 -15 -26 -33 -68 -39 -92 l-12 -44 -31 83
c-44 115 -111 216 -173 259 -28 19 -68 50 -88 68 -21 17 -48 32 -59 32 -35 0
-185 -143 -247 -234 -19 -27 -46 -84 -61 -127 -15 -44 -30 -79 -33 -78 -3 0
-24 36 -45 81 -32 64 -62 104 -149 196 -104 110 -109 116 -104 150 10 59 84
194 143 260 59 65 78 73 124 47 37 -21 67 -18 87 10 22 30 20 30 61 5z m515
-8 c19 -21 13 -32 -18 -32 -11 0 -27 -6 -34 -12 -10 -11 -11 -7 -5 17 4 17 9
33 11 38 7 13 29 8 46 -11z m-1122 -26 c53 -50 92 -111 122 -194 33 -90 34
-106 2 -120 -14 -6 -25 -18 -25 -26 0 -13 -85 -106 -96 -106 -2 0 -4 13 -4 29
0 22 8 36 30 51 69 49 77 128 23 241 -42 90 -75 122 -113 114 -34 -7 -38 0
-13 27 22 25 32 23 74 -16z m3729 -27 c0 -5 -17 -44 -39 -87 -21 -42 -42 -91
-45 -109 -11 -49 11 -110 58 -162 49 -53 93 -117 126 -180 l22 -45 13 32 c23
52 90 144 143 194 40 38 52 57 61 97 12 58 6 116 -20 185 -10 28 -17 51 -15
53 9 9 47 -69 75 -152 l30 -90 -32 -31 c-18 -18 -37 -37 -43 -44 -6 -7 -36
-37 -67 -66 -56 -55 -128 -178 -142 -241 -9 -46 -22 -41 -39 17 -26 88 -87
191 -148 250 -32 30 -58 60 -58 65 0 6 -11 27 -25 48 l-26 37 42 85 c53 109
94 166 114 159 8 -4 15 -10 15 -15z m-3111 -4 c16 -8 34 -27 40 -44 7 -16 24
-40 38 -53 39 -36 66 -94 53 -117 -11 -22 -99 -101 -111 -101 -5 0 -17 17 -28
39 -11 21 -32 52 -46 70 -23 26 -34 31 -71 31 -51 0 -99 -36 -140 -106 -29
-49 -31 -50 -61 -29 -28 20 -36 59 -22 104 13 40 72 130 113 175 26 27 31 28
84 22 41 -4 64 -1 82 9 32 18 35 18 69 0z m1399 -26 c59 -65 94 -137 87 -179
-8 -46 -29 -76 -65 -95 -29 -15 -30 -15 -43 17 -25 59 -91 94 -155 82 l-35 -7
5 97 c3 53 8 100 12 104 4 4 35 10 69 13 34 3 68 7 75 7 8 1 30 -16 50 -39z
m2302 -123 c-11 -86 -20 -159 -20 -162 0 -17 -44 23 -56 51 -12 30 -12 41 7
102 28 90 74 181 86 170 2 -2 -6 -75 -17 -161z m-4341 135 c33 -33 50 -64 75
-138 23 -69 24 -71 6 -109 -19 -43 -56 -81 -67 -70 -4 4 -22 78 -39 164 -23
114 -29 159 -20 164 17 12 24 10 45 -11z m1151 -3 c0 -13 -4 -60 -10 -106 -8
-70 -14 -88 -42 -125 -18 -23 -34 -44 -35 -46 -2 -2 -11 3 -20 11 -10 8 -25
17 -34 21 -9 3 -24 22 -33 41 l-17 37 50 58 c28 32 51 64 51 70 0 19 48 61 70
61 14 0 20 -6 20 -22z m2773 -13 c71 -1 101 -5 112 -15 15 -16 45 -119 45
-157 0 -25 -27 -89 -49 -115 -18 -23 -41 -23 -41 0 0 28 -57 111 -84 123 -58
27 -148 -30 -163 -103 -3 -16 -10 -28 -15 -28 -11 0 -47 78 -48 103 0 21 44
130 72 175 18 29 24 32 47 26 14 -5 70 -9 124 -9z m-3379 -175 c30 -11 73 -73
82 -118 8 -40 -6 -41 -28 -3 -33 60 -108 82 -149 45 -12 -10 -30 -37 -41 -58
-18 -35 -21 -37 -30 -22 -19 34 35 120 97 154 25 14 37 14 69 2z m3356 -15
c32 -16 52 -48 68 -107 13 -48 3 -48 -23 -1 -36 68 -107 70 -146 6 -12 -21
-24 -40 -25 -42 -2 -1 -7 0 -12 3 -13 8 13 93 36 119 16 18 46 35 65 36 4 1
21 -6 37 -14z m-1952 -15 c45 -28 80 -110 47 -110 -8 0 -15 6 -15 14 0 8 -10
27 -23 41 -25 30 -77 36 -116 16 -18 -10 -21 -9 -21 8 0 25 36 51 70 51 14 0
40 -9 58 -20z m-808 -15 c0 -22 -39 -95 -50 -95 -16 0 -11 30 12 71 23 41 38
50 38 24z m1112 -12 c23 -21 23 -45 -1 -67 -21 -19 -45 -12 -70 18 -11 13 -8
20 13 41 30 30 34 30 58 8z m-1372 -13 c17 0 20 -34 5 -57 -20 -29 -51 -27
-72 4 -13 19 -12 24 7 43 12 12 28 19 37 16 8 -3 18 -6 23 -6z m2060 -10 c9
-17 6 -25 -15 -45 -20 -21 -29 -24 -44 -16 -25 14 -33 38 -21 62 15 26 66 26
80 -1z m648 8 c17 -17 15 -63 -3 -78 -20 -17 -62 -5 -70 21 -14 43 42 88 73
57z m-3028 -47 l50 -48 -46 -77 c-25 -42 -50 -76 -54 -76 -9 0 -65 76 -87 119
-11 19 -10 29 3 57 16 34 57 74 76 74 5 0 31 -22 58 -49z m1344 43 c9 -3 16
-12 16 -20 0 -7 6 -11 14 -8 7 3 16 -2 19 -10 4 -9 2 -16 -4 -16 -6 0 -7 -5
-4 -10 4 -6 11 -8 17 -4 6 4 8 -3 6 -17 -2 -16 -9 -23 -20 -21 -13 2 -18 -4
-18 -22 0 -14 -6 -29 -14 -33 -8 -4 -16 -19 -18 -32 -5 -41 -24 -34 -67 26
-29 41 -37 59 -27 61 8 2 12 11 9 23 -3 10 0 19 6 19 6 0 11 9 11 19 0 11 12
26 28 34 15 8 28 15 29 16 1 1 8 -2 17 -5z m-1714 -29 c34 -17 38 -36 14 -60
-22 -22 -45 -16 -63 17 -13 22 -13 29 -2 42 16 20 15 19 51 1z m3706 -1 c-4
-12 -2 -15 9 -10 15 6 45 -39 45 -68 0 -19 -72 -136 -84 -136 -5 0 -3 7 4 15
10 12 10 15 -4 15 -18 0 -80 93 -66 98 6 2 7 14 4 26 -4 16 3 30 22 49 30 30
80 38 70 11z m300 -8 c13 -51 -35 -86 -70 -51 -17 17 -12 43 12 63 25 20 51
14 58 -12z m-3029 -52 c12 -19 12 -24 -3 -38 -9 -9 -13 -20 -10 -24 4 -3 11 0
16 7 4 8 15 11 23 8 19 -7 34 -70 18 -75 -6 -2 -11 -13 -11 -23 0 -11 -4 -18
-9 -15 -5 3 -7 15 -4 26 3 11 0 20 -5 20 -12 0 -56 71 -67 108 -5 16 -2 22 10
22 9 0 13 5 10 10 -3 6 -3 16 2 23 5 8 9 6 11 -8 3 -10 11 -29 19 -41z m1221
-29 c60 -65 106 -147 143 -257 l21 -58 -26 -31 c-14 -17 -26 -35 -26 -40 0 -4
-14 -16 -32 -25 -86 -45 -207 -231 -240 -371 -7 -29 -15 -53 -19 -53 -3 0 -11
19 -18 43 -36 121 -130 277 -205 339 -19 16 -49 49 -66 74 l-30 46 19 64 c45
143 117 260 194 312 l42 30 38 -19 c42 -22 82 -17 100 12 15 24 32 14 105 -66z
m624 63 c61 -46 134 -175 174 -311 l23 -79 -27 -35 c-15 -19 -43 -43 -64 -53
-39 -21 -90 -79 -131 -150 -29 -50 -87 -217 -87 -249 0 -41 -16 -20 -34 47
-55 197 -123 324 -189 355 -19 10 -45 34 -57 54 l-22 38 23 70 c35 108 78 192
127 246 58 64 78 76 101 55 27 -25 79 -20 104 9 12 13 23 25 25 25 2 0 17 -10
34 -22z m-2162 -38 c13 0 36 12 52 27 26 25 30 25 54 12 70 -37 152 -154 199
-284 l26 -72 -23 -38 c-13 -20 -53 -66 -89 -102 -42 -40 -80 -89 -102 -131
-33 -63 -88 -212 -102 -276 -8 -39 -18 -24 -40 59 -48 185 -116 302 -212 364
-52 34 -80 82 -74 131 8 74 121 263 193 324 l42 36 26 -25 c14 -14 37 -25 50
-25z m2660 10 c30 -24 67 -25 91 -4 26 23 54 10 100 -49 68 -85 137 -245 126
-289 -4 -13 -28 -45 -55 -73 -123 -126 -168 -206 -217 -382 -10 -35 -20 -63
-24 -63 -3 0 -16 39 -29 87 -29 115 -90 237 -144 291 -24 23 -58 57 -75 74
-18 18 -33 42 -33 55 0 35 50 163 85 218 29 46 131 155 144 155 4 0 17 -9 31
-20z m-3069 -247 l41 -83 -31 -35 c-17 -20 -31 -43 -31 -52 0 -8 -26 -43 -57
-77 -64 -69 -107 -153 -149 -293 -16 -51 -32 -93 -36 -93 -5 0 -6 10 -4 23 3
12 8 43 11 70 15 118 87 263 163 328 25 22 41 46 46 69 3 19 16 44 28 57 l21
23 -30 62 c-26 54 -115 170 -145 189 -5 3 -30 -1 -55 -9 -36 -12 -52 -13 -75
-4 -38 14 -55 7 -76 -32 -15 -29 -17 -30 -20 -8 -4 26 24 79 51 96 12 8 22 8
35 -2 34 -24 46 -25 81 -5 l36 21 77 -81 c55 -58 89 -104 119 -164z m3830 218
c40 -40 37 -58 -5 -32 l-33 21 -26 -20 c-28 -22 -62 -25 -101 -10 -24 9 -29 5
-67 -51 -22 -33 -56 -93 -75 -134 -33 -69 -35 -75 -21 -102 9 -15 32 -37 52
-47 87 -47 224 -298 225 -414 0 -46 -24 -15 -50 64 -57 167 -145 305 -216 337
-54 25 -78 60 -70 101 12 63 83 192 139 252 l55 59 30 -17 c39 -23 64 -23 93
2 31 26 35 25 70 -9z m8 -65 c10 -12 11 -35 7 -83 -14 -133 -14 -133 -55 -133
-47 0 -108 -41 -127 -87 l-15 -34 -47 27 c-64 36 -82 54 -82 76 0 21 70 166
102 210 18 26 22 27 76 22 49 -5 59 -3 76 15 20 22 40 18 65 -13z m-3972 -40
c27 -29 62 -79 78 -109 l30 -56 -21 -28 c-11 -15 -24 -41 -28 -57 -4 -16 -20
-42 -37 -58 l-30 -30 -37 53 c-21 30 -54 63 -74 74 -32 17 -42 18 -70 7 -40
-15 -41 -12 -57 88 -12 77 -11 80 13 118 24 39 24 39 79 34 30 -2 63 1 73 7
28 16 28 16 81 -43z m1445 2 c28 -42 81 -163 93 -208 4 -18 0 -33 -14 -49 -12
-13 -21 -30 -21 -37 0 -8 -13 -20 -29 -28 -44 -23 -116 -100 -152 -162 -17
-31 -46 -97 -64 -147 l-33 -92 -11 45 c-47 182 -118 303 -218 371 -24 17 -43
35 -43 40 0 6 -9 22 -20 36 -22 28 -20 50 13 123 25 56 55 90 79 90 24 0 23
-4 -17 -84 -53 -103 -50 -113 53 -214 86 -85 137 -166 158 -248 6 -23 10 -18
44 53 43 90 103 162 166 199 36 21 44 31 44 56 0 16 5 38 11 49 13 26 1 64
-51 153 -37 63 -45 96 -23 96 5 0 21 -19 35 -42z m-28 -68 c21 -35 40 -80 43
-99 6 -53 -18 -113 -55 -134 l-31 -18 -21 49 c-32 73 -71 107 -125 107 -54 0
-87 -28 -112 -94 -9 -25 -18 -48 -20 -50 -7 -9 -94 73 -99 94 -8 32 10 84 47
134 l29 41 110 0 c92 0 115 3 142 20 18 11 38 18 43 17 6 -2 27 -32 49 -67z
m-140 -131 c28 -22 53 -64 67 -111 10 -38 -6 -45 -21 -8 -19 47 -56 80 -88 80
-31 0 -59 -25 -88 -80 l-19 -35 -3 28 c-5 38 37 119 68 134 35 18 53 16 84 -8z
m2674 -37 c3 -30 1 -32 -20 -27 -31 8 -88 -30 -110 -74 l-17 -34 -6 26 c-5 19
0 39 19 72 29 50 68 76 106 72 20 -2 26 -8 28 -35z m-4054 -12 c36 -32 79
-107 69 -123 -3 -5 -25 14 -50 42 -46 53 -79 65 -103 36 -28 -34 -41 15 -14
53 21 31 57 28 98 -8z m331 -21 c14 -44 -31 -88 -69 -67 -41 23 2 121 44 98
10 -5 22 -20 25 -31z m695 8 c11 -20 12 -31 4 -44 -16 -27 -50 -28 -67 -2 -17
23 -13 47 11 67 21 16 34 11 52 -21z m2657 -3 c16 -26 16 -27 -6 -45 -30 -24
-43 -24 -66 1 -18 20 -18 21 5 45 30 32 45 32 67 -1z m-1289 -15 c2 -15 -5
-32 -18 -44 -19 -17 -21 -17 -40 0 -24 22 -25 33 -3 57 24 26 57 19 61 -13z
m-1012 -3 c28 -44 35 -86 18 -119 -13 -24 -18 -27 -26 -16 -8 11 -9 10 -4 -3
5 -18 -24 -98 -36 -98 -4 0 -5 13 -2 30 5 22 2 31 -9 36 -9 3 -14 11 -11 18 3
7 -3 19 -12 27 -16 12 -17 12 -11 -5 6 -16 5 -17 -7 -7 -19 16 -17 97 2 93 9
-2 11 4 7 18 -5 16 -2 23 14 27 12 3 21 8 21 12 0 17 42 7 56 -13z m312 -11
c14 -31 7 -51 -21 -59 -42 -11 -63 39 -31 75 19 22 38 16 52 -16z m1363 -7
c10 -18 8 -24 -11 -40 -20 -16 -25 -17 -44 -5 -27 18 -33 57 -11 74 21 15 49
3 66 -29z m985 2 c0 -8 4 -22 7 -30 4 -8 3 -31 -1 -50 -6 -26 -13 -34 -26 -32
-16 3 -16 1 3 -19 17 -19 20 -30 15 -73 -9 -71 -20 -89 -33 -53 -6 16 -11 39
-11 53 0 13 -5 24 -10 24 -6 0 -20 21 -33 47 -17 35 -19 47 -9 51 9 3 10 7 2
17 -8 10 -4 20 15 41 17 20 23 23 18 10 -4 -13 -2 -17 8 -14 8 3 15 11 15 19
1 8 2 18 3 22 2 15 36 2 37 -13z m-279 -20 c62 -38 141 -176 184 -322 l22 -75
-22 -46 c-14 -29 -30 -47 -45 -51 -33 -8 -407 -46 -456 -46 -33 0 -42 4 -49
23 -5 12 -18 30 -29 41 -25 22 -23 38 20 176 43 137 102 240 159 281 29 20 31
20 66 4 39 -19 78 -10 89 20 8 20 23 19 61 -5z m-3803 -1 c-4 -7 0 -9 12 -5
27 8 64 -46 58 -88 -4 -33 -36 -123 -60 -168 -8 -14 -14 -34 -15 -45 0 -14 -3
-12 -10 7 -10 24 -19 92 -24 173 -1 21 -5 40 -9 44 -10 10 -7 63 4 63 6 0 10
7 10 15 0 8 9 15 21 15 12 0 17 -4 13 -11z m452 -32 c98 -78 139 -150 185
-326 l32 -121 -26 -26 c-15 -15 -27 -31 -27 -37 0 -11 -447 -2 -493 11 -17 5
-34 22 -51 54 l-25 48 25 87 c33 119 85 222 139 278 l45 46 31 -17 c37 -18 74
-12 91 16 17 27 26 25 74 -13z m538 18 c26 -19 70 -19 86 0 20 24 42 17 91
-28 78 -72 132 -178 169 -332 l20 -80 -33 -33 -33 -33 -190 -9 c-104 -5 -220
-12 -257 -15 -65 -5 -70 -4 -98 24 -38 39 -37 61 12 206 46 138 68 178 139
258 55 61 64 65 94 42z m1517 -8 c75 -51 112 -123 175 -341 l34 -119 -28 -32
c-15 -18 -36 -35 -47 -39 -27 -8 -209 -8 -379 1 l-137 6 -30 45 c-29 43 -30
46 -19 99 26 123 106 270 192 353 47 45 56 47 99 24 28 -14 32 -14 62 5 41 25
38 25 78 -2z m670 -19 c67 -74 126 -208 160 -366 10 -50 10 -55 -16 -91 l-26
-39 -212 -8 c-283 -12 -269 -13 -306 27 -28 30 -31 39 -26 78 15 126 96 310
168 383 54 54 65 57 90 27 25 -28 88 -23 102 9 14 31 22 28 66 -20z m-1524 2
c32 -25 50 -25 90 0 l32 19 67 -72 c71 -77 119 -161 159 -282 28 -84 27 -100
-11 -136 l-26 -24 -250 2 -251 1 -39 43 -39 42 26 90 c34 118 87 218 151 284
29 29 55 53 59 53 4 0 18 -9 32 -20z m2383 -399 c0 -13 -29 -35 -37 -28 -7 8
15 37 28 37 5 0 9 -4 9 -9z m-3985 -41 c3 -5 2 -10 -4 -10 -5 0 -13 5 -16 10
-3 6 -2 10 4 10 5 0 13 -4 16 -10z m1357 -24 c22 -16 13 -26 -21 -26 -33 0
-56 14 -47 29 10 15 47 13 68 -3z m657 4 c10 -5 21 -16 25 -25 4 -12 -3 -15
-39 -15 -48 0 -62 19 -27 39 21 13 20 13 41 1z m1341 -5 c17 -21 4 -35 -34
-35 -40 0 -48 7 -35 31 12 23 52 25 69 4z m-2691 -19 c17 -20 -2 -29 -40 -21
-24 6 -28 9 -18 21 15 18 43 18 58 0z m2045 -5 c17 -19 17 -20 -19 -27 -46 -8
-70 10 -41 32 26 19 40 18 60 -5z"/>
<path d="M4380 7240 c0 -5 6 -10 14 -10 8 0 18 5 21 10 3 6 -3 10 -14 10 -12
0 -21 -4 -21 -10z"/>
<path d="M4295 7229 c-4 -6 -5 -13 -2 -16 7 -7 27 6 27 18 0 12 -17 12 -25 -2z"/>
<path d="M4230 7184 c0 -9 5 -14 12 -12 18 6 21 28 4 28 -9 0 -16 -7 -16 -16z"/>
<path d="M4538 7188 c9 -9 15 -9 24 0 9 9 7 12 -12 12 -19 0 -21 -3 -12 -12z"/>
<path d="M4165 7131 c-3 -5 -1 -12 5 -16 12 -7 30 2 30 16 0 12 -27 12 -35 0z"/>
<path d="M4575 7131 c-7 -12 12 -24 25 -16 11 7 4 25 -10 25 -5 0 -11 -4 -15
-9z"/>
<path d="M4617 7074 c-8 -8 1 -24 14 -24 5 0 9 7 9 15 0 15 -12 20 -23 9z"/>
<path d="M4120 7045 c0 -10 7 -15 18 -13 21 4 19 22 -2 26 -10 2 -16 -3 -16
-13z"/>
<path d="M4622 6978 c6 -18 28 -21 28 -4 0 9 -7 16 -16 16 -9 0 -14 -5 -12
-12z"/>
<path d="M3510 6976 c-199 -37 -345 -108 -387 -189 -13 -26 -14 -49 -8 -137 4
-58 6 -155 5 -217 -1 -101 1 -114 19 -132 13 -13 34 -21 55 -21 52 0 72 32 79
128 3 43 11 90 16 105 14 37 67 67 119 67 55 0 82 -26 126 -123 45 -97 85
-139 128 -135 40 4 68 41 98 133 35 105 94 139 166 94 62 -38 89 -96 99 -209
7 -74 34 -110 84 -110 52 0 72 -36 87 -157 16 -127 26 -155 66 -188 53 -44
156 -25 188 36 17 31 15 153 -5 249 -25 122 -18 258 17 325 14 28 34 58 45 67
32 29 106 58 150 58 82 0 125 -31 221 -160 89 -119 79 -114 210 -94 33 5 43 1
80 -29 25 -21 58 -38 82 -42 50 -8 66 -31 76 -105 4 -30 11 -63 16 -72 13 -25
45 -22 63 6 30 45 29 86 -3 171 -29 78 -30 86 -35 285 -4 227 -9 249 -69 292
-31 21 -42 23 -153 21 -66 -1 -158 -9 -205 -18 -277 -51 -263 -50 -436 -26
-142 21 -281 52 -499 113 -92 26 -383 34 -495 14z m377 -17 c54 -6 153 -28
227 -50 319 -96 534 -114 781 -65 158 32 320 39 371 18 17 -7 42 -28 55 -45
23 -31 24 -39 27 -246 4 -187 7 -220 24 -260 11 -25 23 -74 25 -108 5 -53 3
-64 -12 -69 -22 -9 -32 8 -40 71 -4 27 -9 58 -12 68 -5 21 -59 47 -95 47 -12
0 -37 15 -56 33 -33 32 -35 32 -130 32 l-96 0 -52 79 c-69 102 -108 142 -161
162 -57 22 -147 14 -205 -18 -47 -26 -101 -98 -118 -156 -15 -54 -12 -215 5
-305 19 -102 19 -171 -1 -213 -21 -44 -47 -58 -96 -51 -73 10 -88 37 -113 207
-18 125 -32 149 -100 166 -26 7 -51 18 -55 24 -4 6 -12 48 -19 93 -15 96 -45
156 -99 192 -41 28 -80 32 -120 11 -42 -22 -59 -45 -92 -133 -39 -103 -50
-113 -96 -88 -27 15 -44 38 -80 111 -25 51 -55 100 -65 110 -29 26 -116 30
-159 6 -46 -24 -67 -70 -75 -162 -8 -86 -27 -117 -68 -106 -14 3 -27 12 -30
21 -4 8 -9 70 -12 137 -3 68 -8 149 -11 180 -10 109 26 168 131 221 61 30 199
74 269 86 74 13 242 13 353 0z"/>
<path d="M5560 5615 c-123 -31 -240 -53 -540 -100 -127 -20 -476 -35 -655 -29
-71 3 -337 9 -590 14 -498 9 -479 7 -720 76 -126 35 -135 37 -305 38 l-176 1
-77 -38 c-93 -46 -196 -139 -228 -205 -22 -44 -23 -60 -25 -297 -2 -137 -5
-286 -8 -330 -5 -87 10 -150 41 -172 22 -17 27 -16 54 6 l24 19 -20 93 c-27
129 -25 254 4 305 32 56 66 78 122 78 55 0 88 -19 129 -75 71 -99 89 -196 93
-519 3 -203 6 -242 23 -284 24 -63 72 -111 117 -120 44 -8 105 15 130 49 39
54 45 192 16 405 -17 128 -16 327 3 371 20 45 73 96 117 110 44 15 112 7 145
-17 45 -33 76 -110 82 -205 11 -174 37 -240 104 -260 53 -16 99 9 165 88 73
88 73 88 211 89 102 1 125 4 147 20 31 23 72 104 87 170 23 106 71 230 108
279 30 40 55 59 127 95 87 43 93 45 180 45 79 0 97 -4 145 -29 87 -45 142
-110 174 -206 l27 -81 -7 -264 c-8 -294 -4 -323 57 -381 28 -27 36 -29 102
-29 86 0 124 21 156 88 31 63 29 200 -5 354 -44 206 -45 409 -1 475 57 85 172
123 231 77 39 -31 55 -68 81 -193 13 -62 30 -127 38 -143 23 -44 89 -85 147
-91 91 -8 141 45 161 171 15 93 27 123 64 156 44 38 94 52 141 40 43 -12 105
-73 135 -130 20 -40 21 -53 18 -291 l-4 -250 24 -19 c32 -26 63 -24 92 7 22
24 24 33 23 132 0 65 -7 128 -16 162 -31 108 -32 127 -23 449 3 130 -7 171
-59 227 -64 70 -144 95 -316 100 -127 3 -143 1 -270 -31z m452 -18 c67 -28
127 -77 149 -120 21 -40 21 -50 15 -257 l-7 -215 31 -120 c32 -126 37 -195 19
-258 -10 -37 -40 -60 -66 -50 -14 6 -35 62 -27 74 3 5 5 108 5 229 l0 220 -28
51 c-39 72 -103 126 -160 135 -37 5 -53 2 -101 -22 -69 -36 -94 -75 -112 -177
-7 -40 -18 -86 -25 -103 -17 -40 -60 -74 -97 -74 -39 0 -100 32 -132 70 -28
34 -27 31 -56 172 -33 163 -69 208 -169 208 -55 0 -90 -15 -134 -58 -68 -65
-79 -99 -78 -234 1 -122 8 -181 41 -343 37 -180 22 -301 -45 -353 -52 -41
-146 -41 -186 1 -56 59 -60 100 -44 427 8 182 0 248 -41 335 -56 120 -163 195
-291 203 -40 3 -93 -1 -120 -7 -71 -18 -163 -65 -202 -103 -43 -42 -92 -145
-126 -268 -38 -139 -55 -178 -86 -205 -39 -32 -80 -39 -154 -25 -57 11 -67 10
-108 -8 -29 -13 -61 -40 -93 -80 -74 -91 -114 -108 -173 -77 -36 18 -58 71
-66 161 -15 179 -49 265 -117 300 -89 47 -219 -6 -275 -111 -23 -42 -27 -210
-10 -370 19 -171 21 -315 6 -365 -14 -45 -59 -90 -90 -90 -49 0 -107 50 -135
115 -14 33 -18 84 -21 305 -5 293 -13 353 -66 453 -16 31 -47 73 -69 92 -35
32 -43 35 -99 35 -75 0 -115 -22 -148 -81 -20 -35 -24 -56 -24 -133 -1 -52 7
-131 18 -184 15 -72 16 -95 7 -104 -21 -21 -46 4 -60 58 -11 40 -11 77 -1 199
7 83 10 191 9 240 -8 202 -5 238 17 281 29 54 129 146 195 178 96 46 170 59
303 53 119 -5 153 -12 405 -83 92 -26 108 -27 465 -35 1067 -24 1090 -24 1315
5 187 24 513 85 650 121 75 20 339 14 392 -8z"/>
<path d="M4510 5140 c0 -5 5 -10 10 -10 6 0 10 5 10 10 0 6 -4 10 -10 10 -5 0
-10 -4 -10 -10z"/>
<path d="M4240 5130 c0 -5 5 -10 10 -10 6 0 10 5 10 10 0 6 -4 10 -10 10 -5 0
-10 -4 -10 -10z"/>
<path d="M4580 5120 c0 -5 5 -10 10 -10 6 0 10 5 10 10 0 6 -4 10 -10 10 -5 0
-10 -4 -10 -10z"/>
<path d="M5220 5080 c0 -5 5 -10 11 -10 5 0 7 5 4 10 -3 6 -8 10 -11 10 -2 0
-4 -4 -4 -10z"/>
<path d="M4290 5060 c0 -5 5 -10 10 -10 6 0 10 5 10 10 0 6 -4 10 -10 10 -5 0
-10 -4 -10 -10z"/>
<path d="M5295 5050 c-3 -5 1 -10 10 -10 9 0 13 5 10 10 -3 6 -8 10 -10 10 -2
0 -7 -4 -10 -10z"/>
<path d="M5930 5050 c0 -5 5 -10 10 -10 6 0 10 5 10 10 0 6 -4 10 -10 10 -5 0
-10 -4 -10 -10z"/>
<path d="M5870 5017 c-33 -16 -53 -59 -58 -125 -6 -70 13 -126 55 -163 60 -52
123 -33 153 46 27 72 -24 224 -82 244 -38 14 -37 14 -68 -2z m80 -37 c38 -41
53 -90 48 -161 -7 -91 -53 -125 -110 -79 -55 42 -73 134 -43 207 31 73 59 82
105 33z"/>
<path d="M4310 4980 c0 -5 5 -10 10 -10 6 0 10 5 10 10 0 6 -4 10 -10 10 -5 0
-10 -4 -10 -10z"/>
<path d="M4670 4950 c0 -5 5 -10 10 -10 6 0 10 5 10 10 0 6 -4 10 -10 10 -5 0
-10 -4 -10 -10z"/>
<path d="M6020 4940 c0 -5 5 -10 11 -10 5 0 7 5 4 10 -3 6 -8 10 -11 10 -2 0
-4 -4 -4 -10z"/>
<path d="M3100 4920 c0 -5 5 -10 10 -10 6 0 10 5 10 10 0 6 -4 10 -10 10 -5 0
-10 -4 -10 -10z"/>
<path d="M4525 4920 c3 -5 8 -10 11 -10 2 0 4 5 4 10 0 6 -5 10 -11 10 -5 0
-7 -4 -4 -10z"/>
<path d="M4310 4884 c0 -8 5 -12 10 -9 6 4 8 11 5 16 -9 14 -15 11 -15 -7z"/>
<path d="M4295 4800 c3 -5 8 -10 11 -10 2 0 4 5 4 10 0 6 -5 10 -11 10 -5 0
-7 -4 -4 -10z"/>
<path d="M5790 4790 c0 -5 5 -10 10 -10 6 0 10 5 10 10 0 6 -4 10 -10 10 -5 0
-10 -4 -10 -10z"/>
<path d="M2470 4780 c0 -5 5 -10 10 -10 6 0 10 5 10 10 0 6 -4 10 -10 10 -5 0
-10 -4 -10 -10z"/>
<path d="M5215 4780 c-3 -5 -1 -10 4 -10 6 0 11 5 11 10 0 6 -2 10 -4 10 -3 0
-8 -4 -11 -10z"/>
<path d="M5290 4759 c0 -5 5 -7 10 -4 6 3 10 8 10 11 0 2 -4 4 -10 4 -5 0 -10
-5 -10 -11z"/>
<path d="M4155 4740 c3 -5 8 -10 11 -10 2 0 4 5 4 10 0 6 -5 10 -11 10 -5 0
-7 -4 -4 -10z"/>
<path d="M4230 4740 c0 -5 5 -10 10 -10 6 0 10 5 10 10 0 6 -4 10 -10 10 -5 0
-10 -4 -10 -10z"/>
<path d="M5830 4719 c0 -5 5 -7 10 -4 6 3 10 8 10 11 0 2 -4 4 -10 4 -5 0 -10
-5 -10 -11z"/>
<path d="M6010 4720 c0 -5 5 -10 10 -10 6 0 10 5 10 10 0 6 -4 10 -10 10 -5 0
-10 -4 -10 -10z"/>
<path d="M5350 4710 c0 -5 5 -10 10 -10 6 0 10 5 10 10 0 6 -4 10 -10 10 -5 0
-10 -4 -10 -10z"/>
<path d="M2475 4700 c-3 -5 -1 -10 4 -10 6 0 11 5 11 10 0 6 -2 10 -4 10 -3 0
-8 -4 -11 -10z"/>
<path d="M3145 4690 c-3 -5 -1 -10 4 -10 6 0 11 5 11 10 0 6 -2 10 -4 10 -3 0
-8 -4 -11 -10z"/>
<path d="M5895 4670 c3 -5 10 -10 16 -10 5 0 9 5 9 10 0 6 -7 10 -16 10 -8 0
-12 -4 -9 -10z"/>
<path d="M5955 4660 c3 -5 10 -10 16 -10 5 0 9 5 9 10 0 6 -7 10 -16 10 -8 0
-12 -4 -9 -10z"/>
<path d="M2495 4620 c3 -5 8 -10 11 -10 2 0 4 5 4 10 0 6 -5 10 -11 10 -5 0
-7 -4 -4 -10z"/>
<path d="M5380 4619 c0 -5 5 -7 10 -4 6 3 10 8 10 11 0 2 -4 4 -10 4 -5 0 -10
-5 -10 -11z"/>
<path d="M3935 4600 c-3 -5 -1 -10 4 -10 6 0 11 5 11 10 0 6 -2 10 -4 10 -3 0
-8 -4 -11 -10z"/>
<path d="M5695 4570 c3 -5 8 -10 11 -10 2 0 4 5 4 10 0 6 -5 10 -11 10 -5 0
-7 -4 -4 -10z"/>
<path d="M2535 4560 c-3 -5 -1 -10 4 -10 6 0 11 5 11 10 0 6 -2 10 -4 10 -3 0
-8 -4 -11 -10z"/>
<path d="M5540 4550 c0 -5 5 -10 11 -10 5 0 7 5 4 10 -3 6 -8 10 -11 10 -2 0
-4 -4 -4 -10z"/>
<path d="M5590 4543 c-52 -27 -72 -70 -72 -157 -1 -63 3 -81 26 -120 38 -66
74 -96 114 -96 47 0 69 15 93 62 18 36 21 54 16 119 -10 157 -85 238 -177 192z
m111 -45 c39 -51 53 -203 24 -258 -16 -30 -43 -50 -69 -50 -24 0 -78 52 -97
95 -32 69 -20 184 23 227 27 27 94 20 119 -14z"/>
<path d="M2580 4530 c0 -5 5 -10 10 -10 6 0 10 5 10 10 0 6 -4 10 -10 10 -5 0
-10 -4 -10 -10z"/>
<path d="M3910 4520 c0 -5 5 -10 10 -10 6 0 10 5 10 10 0 6 -4 10 -10 10 -5 0
-10 -4 -10 -10z"/>
<path d="M4260 4519 c0 -5 5 -7 10 -4 6 3 10 8 10 11 0 2 -4 4 -10 4 -5 0 -10
-5 -10 -11z"/>
<path d="M5375 4520 c4 -6 11 -8 16 -5 14 9 11 15 -7 15 -8 0 -12 -5 -9 -10z"/>
<path d="M4318 4513 c7 -3 16 -2 19 1 4 3 -2 6 -13 5 -11 0 -14 -3 -6 -6z"/>
<path d="M5755 4510 c3 -5 8 -10 11 -10 2 0 4 5 4 10 0 6 -5 10 -11 10 -5 0
-7 -4 -4 -10z"/>
<path d="M3651 4484 c0 -11 3 -14 6 -6 3 7 2 16 -1 19 -3 4 -6 -2 -5 -13z"/>
<path d="M4250 4483 c-52 -27 -73 -72 -73 -155 1 -78 35 -162 80 -198 31 -24
99 -27 130 -5 35 25 56 94 51 172 -8 148 -95 233 -188 186z m112 -40 c38 -40
48 -74 48 -161 0 -59 -5 -85 -20 -109 -29 -48 -49 -55 -97 -33 -57 26 -93 98
-93 192 0 61 3 71 31 103 41 46 92 49 131 8z"/>
<path d="M4370 4490 c0 -5 5 -10 10 -10 6 0 10 5 10 10 0 6 -4 10 -10 10 -5 0
-10 -4 -10 -10z"/>
<path d="M3870 4460 c0 -5 5 -10 11 -10 5 0 7 5 4 10 -3 6 -8 10 -11 10 -2 0
-4 -4 -4 -10z"/>
<path d="M3700 4429 c0 -5 5 -7 10 -4 6 3 10 8 10 11 0 2 -4 4 -10 4 -5 0 -10
-5 -10 -11z"/>
<path d="M5355 4431 c-3 -5 -1 -12 5 -16 5 -3 10 1 10 9 0 18 -6 21 -15 7z"/>
<path d="M5780 4430 c0 -5 5 -10 10 -10 6 0 10 5 10 10 0 6 -4 10 -10 10 -5 0
-10 -4 -10 -10z"/>
<path d="M4440 4420 c0 -5 5 -10 10 -10 6 0 10 5 10 10 0 6 -4 10 -10 10 -5 0
-10 -4 -10 -10z"/>
<path d="M5205 4400 c-3 -5 -1 -10 4 -10 6 0 11 5 11 10 0 6 -2 10 -4 10 -3 0
-8 -4 -11 -10z"/>
<path d="M3315 4390 c-3 -5 -1 -10 4 -10 6 0 11 5 11 10 0 6 -2 10 -4 10 -3 0
-8 -4 -11 -10z"/>
<path d="M3385 4380 c3 -5 8 -10 11 -10 2 0 4 5 4 10 0 6 -5 10 -11 10 -5 0
-7 -4 -4 -10z"/>
<path d="M5260 4380 c0 -5 7 -10 16 -10 8 0 12 5 9 10 -3 6 -10 10 -16 10 -5
0 -9 -4 -9 -10z"/>
<path d="M4140 4370 c0 -5 5 -10 10 -10 6 0 10 5 10 10 0 6 -4 10 -10 10 -5 0
-10 -4 -10 -10z"/>
<path d="M3260 4350 c0 -5 5 -10 10 -10 6 0 10 5 10 10 0 6 -4 10 -10 10 -5 0
-10 -4 -10 -10z"/>
<path d="M3285 4334 c-13 -14 -31 -48 -40 -75 -14 -41 -15 -58 -5 -105 23
-110 60 -167 119 -185 30 -9 44 -8 74 5 48 20 69 67 69 156 0 88 -19 146 -63
192 -32 33 -41 38 -83 38 -38 0 -52 -5 -71 -26z m116 -7 c50 -32 82 -103 82
-180 0 -169 -122 -215 -195 -74 -31 60 -32 183 -2 224 18 25 58 52 75 53 3 0
21 -10 40 -23z"/>
<path d="M5790 4350 c0 -5 5 -10 10 -10 6 0 10 5 10 10 0 6 -4 10 -10 10 -5 0
-10 -4 -10 -10z"/>
<path d="M4460 4340 c0 -5 5 -10 10 -10 6 0 10 5 10 10 0 6 -4 10 -10 10 -5 0
-10 -4 -10 -10z"/>
<path d="M3460 4330 c0 -5 5 -10 10 -10 6 0 10 5 10 10 0 6 -4 10 -10 10 -5 0
-10 -4 -10 -10z"/>
<path d="M4140 4290 c0 -5 5 -10 10 -10 6 0 10 5 10 10 0 6 -4 10 -10 10 -5 0
-10 -4 -10 -10z"/>
<path d="M3210 4270 c0 -5 5 -10 10 -10 6 0 10 5 10 10 0 6 -4 10 -10 10 -5 0
-10 -4 -10 -10z"/>
<path d="M5490 4270 c0 -5 5 -10 10 -10 6 0 10 5 10 10 0 6 -4 10 -10 10 -5 0
-10 -4 -10 -10z"/>
<path d="M5960 4270 c0 -5 5 -10 10 -10 6 0 10 5 10 10 0 6 -4 10 -10 10 -5 0
-10 -4 -10 -10z"/>
<path d="M5785 4260 c3 -5 8 -10 11 -10 2 0 4 5 4 10 0 6 -5 10 -11 10 -5 0
-7 -4 -4 -10z"/>
<path d="M4840 4240 c0 -5 5 -10 10 -10 6 0 10 5 10 10 0 6 -4 10 -10 10 -5 0
-10 -4 -10 -10z"/>
<path d="M5090 4224 c0 -8 5 -12 10 -9 6 4 8 11 5 16 -9 14 -15 11 -15 -7z"/>
<path d="M2540 4200 c0 -5 5 -10 10 -10 6 0 10 5 10 10 0 6 -4 10 -10 10 -5 0
-10 -4 -10 -10z"/>
<path d="M4160 4200 c0 -5 5 -10 10 -10 6 0 10 5 10 10 0 6 -4 10 -10 10 -5 0
-10 -4 -10 -10z"/>
<path d="M5920 4200 c0 -5 5 -10 10 -10 6 0 10 5 10 10 0 6 -4 10 -10 10 -5 0
-10 -4 -10 -10z"/>
<path d="M5540 4190 c0 -5 5 -10 10 -10 6 0 10 5 10 10 0 6 -4 10 -10 10 -5 0
-10 -4 -10 -10z"/>
<path d="M3530 4170 c0 -5 5 -10 10 -10 6 0 10 5 10 10 0 6 -4 10 -10 10 -5 0
-10 -4 -10 -10z"/>
<path d="M4445 4160 c-3 -5 -1 -10 4 -10 6 0 11 5 11 10 0 6 -2 10 -4 10 -3 0
-8 -4 -11 -10z"/>
<path d="M4805 4160 c-3 -5 1 -10 10 -10 9 0 13 5 10 10 -3 6 -8 10 -10 10 -2
0 -7 -4 -10 -10z"/>
<path d="M5610 4140 c0 -5 5 -10 10 -10 6 0 10 5 10 10 0 6 -4 10 -10 10 -5 0
-10 -4 -10 -10z"/>
<path d="M5685 4140 c3 -5 8 -10 11 -10 2 0 4 5 4 10 0 6 -5 10 -11 10 -5 0
-7 -4 -4 -10z"/>
<path d="M5128 4133 c7 -3 16 -2 19 1 4 3 -2 6 -13 5 -11 0 -14 -3 -6 -6z"/>
<path d="M2575 4120 c-3 -5 -1 -10 4 -10 6 0 11 5 11 10 0 6 -2 10 -4 10 -3 0
-8 -4 -11 -10z"/>
<path d="M3210 4100 c0 -5 5 -10 10 -10 6 0 10 5 10 10 0 6 -4 10 -10 10 -5 0
-10 -4 -10 -10z"/>
<path d="M3830 4100 c0 -5 5 -10 10 -10 6 0 10 5 10 10 0 6 -4 10 -10 10 -5 0
-10 -4 -10 -10z"/>
<path d="M5890 4100 c0 -5 5 -10 10 -10 6 0 10 5 10 10 0 6 -4 10 -10 10 -5 0
-10 -4 -10 -10z"/>
<path d="M4295 4080 c-3 -5 -1 -10 4 -10 6 0 11 5 11 10 0 6 -2 10 -4 10 -3 0
-8 -4 -11 -10z"/>
<path d="M3780 4072 c0 -6 4 -12 10 -14 6 -2 1 -21 -10 -44 -22 -44 -30 -164
-15 -214 10 -36 63 -88 101 -100 44 -15 97 8 119 51 55 105 4 305 -81 322 -14
2 -42 1 -62 -4 -23 -5 -41 -4 -49 3 -9 7 -13 7 -13 0z m154 -40 c31 -28 46
-77 46 -155 0 -84 -14 -133 -40 -147 -57 -30 -131 11 -151 83 -13 49 -7 150
12 190 25 55 88 68 133 29z"/>
<path d="M3980 4040 c0 -5 5 -10 10 -10 6 0 10 5 10 10 0 6 -4 10 -10 10 -5 0
-10 -4 -10 -10z"/>
<path d="M5130 4040 c0 -5 5 -10 11 -10 5 0 7 5 4 10 -3 6 -8 10 -11 10 -2 0
-4 -4 -4 -10z"/>
<path d="M2600 4029 c0 -5 5 -7 10 -4 6 3 10 8 10 11 0 2 -4 4 -10 4 -5 0 -10
-5 -10 -11z"/>
<path d="M3520 4020 c0 -5 5 -10 10 -10 6 0 10 5 10 10 0 6 -4 10 -10 10 -5 0
-10 -4 -10 -10z"/>
<path d="M5880 4020 c0 -5 5 -10 10 -10 6 0 10 5 10 10 0 6 -4 10 -10 10 -5 0
-10 -4 -10 -10z"/>
<path d="M5390 4010 c0 -5 5 -10 11 -10 5 0 7 5 4 10 -3 6 -8 10 -11 10 -2 0
-4 -4 -4 -10z"/>
<path d="M4840 3979 c0 -5 5 -7 10 -4 6 3 10 8 10 11 0 2 -4 4 -10 4 -5 0 -10
-5 -10 -11z"/>
<path d="M5318 3983 c7 -3 16 -2 19 1 4 3 -2 6 -13 5 -11 0 -14 -3 -6 -6z"/>
<path d="M4010 3970 c0 -5 7 -10 16 -10 8 0 12 5 9 10 -3 6 -10 10 -16 10 -5
0 -9 -4 -9 -10z"/>
<path d="M2600 3960 c0 -5 5 -10 10 -10 6 0 10 5 10 10 0 6 -4 10 -10 10 -5 0
-10 -4 -10 -10z"/>
<path d="M3305 3950 c-3 -5 1 -10 9 -10 9 0 16 5 16 10 0 6 -4 10 -9 10 -6 0
-13 -4 -16 -10z"/>
<path d="M3465 3950 c-3 -5 -1 -10 4 -10 6 0 11 5 11 10 0 6 -2 10 -4 10 -3 0
-8 -4 -11 -10z"/>
<path d="M5890 3930 c0 -5 5 -10 10 -10 6 0 10 5 10 10 0 6 -4 10 -10 10 -5 0
-10 -4 -10 -10z"/>
<path d="M3390 3920 c0 -5 5 -10 11 -10 5 0 7 5 4 10 -3 6 -8 10 -11 10 -2 0
-4 -4 -4 -10z"/>
<path d="M3720 3920 c0 -5 5 -10 11 -10 5 0 7 5 4 10 -3 6 -8 10 -11 10 -2 0
-4 -4 -4 -10z"/>
<path d="M5250 3910 c0 -5 5 -10 10 -10 6 0 10 5 10 10 0 6 -4 10 -10 10 -5 0
-10 -4 -10 -10z"/>
<path d="M5010 3900 c0 -5 5 -10 10 -10 6 0 10 5 10 10 0 6 -4 10 -10 10 -5 0
-10 -4 -10 -10z"/>
<path d="M4031 3884 c0 -11 3 -14 6 -6 3 7 2 16 -1 19 -3 4 -6 -2 -5 -13z"/>
<path d="M4445 3890 c-3 -5 1 -10 10 -10 9 0 13 5 10 10 -3 6 -8 10 -10 10 -2
0 -7 -4 -10 -10z"/>
<path d="M3040 3870 c0 -5 5 -10 10 -10 6 0 10 5 10 10 0 6 -4 10 -10 10 -5 0
-10 -4 -10 -10z"/>
<path d="M3120 3860 c0 -5 5 -10 10 -10 6 0 10 5 10 10 0 6 -4 10 -10 10 -5 0
-10 -4 -10 -10z"/>
<path d="M4365 3860 c3 -5 8 -10 11 -10 2 0 4 5 4 10 0 6 -5 10 -11 10 -5 0
-7 -4 -4 -10z"/>
<path d="M5550 3850 c0 -5 5 -10 10 -10 6 0 10 5 10 10 0 6 -4 10 -10 10 -5 0
-10 -4 -10 -10z"/>
<path d="M5230 3820 c0 -5 5 -10 11 -10 5 0 7 5 4 10 -3 6 -8 10 -11 10 -2 0
-4 -4 -4 -10z"/>
<path d="M4590 3810 c0 -5 5 -10 11 -10 5 0 7 5 4 10 -3 6 -8 10 -11 10 -2 0
-4 -4 -4 -10z"/>
<path d="M3185 3800 c-3 -5 -1 -10 4 -10 6 0 11 5 11 10 0 6 -2 10 -4 10 -3 0
-8 -4 -11 -10z"/>
<path d="M4020 3800 c0 -5 5 -10 10 -10 6 0 10 5 10 10 0 6 -4 10 -10 10 -5 0
-10 -4 -10 -10z"/>
<path d="M4310 3779 c0 -5 5 -7 10 -4 6 3 10 8 10 11 0 2 -4 4 -10 4 -5 0 -10
-5 -10 -11z"/>
<path d="M2925 3770 c-3 -5 -1 -10 4 -10 6 0 11 5 11 10 0 6 -2 10 -4 10 -3 0
-8 -4 -11 -10z"/>
<path d="M3750 3760 c0 -5 5 -10 10 -10 6 0 10 5 10 10 0 6 -4 10 -10 10 -5 0
-10 -4 -10 -10z"/>
<path d="M5570 3760 c0 -5 5 -10 11 -10 5 0 7 5 4 10 -3 6 -8 10 -11 10 -2 0
-4 -4 -4 -10z"/>
<path d="M3215 3730 c3 -5 8 -10 11 -10 2 0 4 5 4 10 0 6 -5 10 -11 10 -5 0
-7 -4 -4 -10z"/>
<path d="M5215 3730 c3 -5 8 -10 11 -10 2 0 4 5 4 10 0 6 -5 10 -11 10 -5 0
-7 -4 -4 -10z"/>
<path d="M4630 3720 c0 -5 5 -10 10 -10 6 0 10 5 10 10 0 6 -4 10 -10 10 -5 0
-10 -4 -10 -10z"/>
<path d="M3810 3700 c0 -5 5 -10 10 -10 6 0 10 5 10 10 0 6 -4 10 -10 10 -5 0
-10 -4 -10 -10z"/>
<path d="M4290 3700 c0 -5 5 -10 10 -10 6 0 10 5 10 10 0 6 -4 10 -10 10 -5 0
-10 -4 -10 -10z"/>
<path d="M3240 3649 c0 -5 5 -7 10 -4 6 3 10 8 10 11 0 2 -4 4 -10 4 -5 0 -10
-5 -10 -11z"/>
<path d="M5630 3653 c-25 -2 -133 -15 -240 -28 -657 -81 -1171 -120 -1560
-119 -300 1 -506 22 -840 84 -212 39 -393 54 -665 53 -234 0 -268 -2 -339 -22
-130 -35 -192 -81 -259 -194 -53 -87 -68 -238 -42 -417 2 -14 7 -63 10 -110 4
-47 9 -92 10 -100 2 -9 6 -65 10 -125 8 -127 26 -223 47 -253 24 -35 66 -63
102 -69 31 -5 36 -2 50 25 23 45 20 64 -25 180 -64 165 -67 290 -7 358 96 110
200 74 249 -86 36 -120 83 -169 168 -178 69 -6 97 8 165 83 67 76 117 105 181
105 119 0 223 -101 254 -248 24 -113 13 -258 -39 -531 -25 -130 -7 -234 48
-284 50 -45 153 -39 193 11 19 24 21 35 15 102 -4 41 -9 131 -12 200 -6 142 1
164 56 193 65 33 135 2 168 -73 20 -47 23 -182 7 -305 -17 -133 -13 -328 8
-378 28 -66 55 -95 119 -126 112 -57 218 -39 304 51 65 68 79 118 78 283 -1
117 -5 155 -26 230 -96 343 -127 507 -133 710 -7 238 50 367 197 445 108 58
210 44 303 -41 53 -49 108 -135 138 -217 17 -48 21 -89 27 -257 6 -190 7 -202
32 -250 50 -95 115 -135 220 -135 82 0 128 14 180 53 64 48 93 113 92 207 0
41 -7 100 -14 130 -8 30 -14 107 -14 170 -1 100 2 120 21 156 46 86 132 133
212 115 84 -18 125 -70 181 -221 17 -47 37 -99 45 -117 29 -66 126 -111 208
-97 30 5 55 21 106 70 70 67 102 81 166 71 49 -8 81 -35 110 -91 35 -70 32
-119 -16 -277 -33 -109 -42 -154 -46 -240 -6 -114 6 -157 59 -206 61 -57 176
-70 264 -29 56 26 81 56 121 143 25 54 27 67 27 188 -1 110 -7 157 -38 305
-58 273 -65 319 -66 407 0 112 15 172 59 241 57 88 135 115 218 75 106 -50
173 -291 173 -623 0 -64 5 -115 13 -130 24 -47 90 -52 135 -10 29 27 28 67 -3
200 -34 139 -42 327 -22 465 46 303 -25 402 -333 465 -54 11 -717 22 -810 13z
m705 -24 c191 -20 291 -55 363 -129 66 -67 80 -147 56 -305 -25 -159 -13 -355
31 -526 23 -89 20 -135 -11 -155 -32 -22 -74 -10 -90 26 -7 14 -15 93 -18 175
-10 227 -16 272 -48 375 -37 116 -73 171 -131 199 -161 78 -307 -71 -307 -312
0 -85 29 -287 56 -392 44 -168 63 -360 44 -450 -21 -107 -100 -207 -175 -221
-60 -11 -131 1 -174 29 -97 64 -105 185 -29 443 70 238 24 379 -128 392 -77 6
-94 -1 -170 -73 -76 -73 -111 -85 -177 -65 -52 15 -100 65 -122 127 -70 199
-99 249 -164 282 -88 45 -163 36 -234 -28 -63 -57 -87 -118 -87 -228 0 -50 7
-127 15 -170 17 -91 20 -210 4 -250 -23 -62 -111 -123 -197 -138 -106 -17
-217 50 -252 154 -14 42 -18 86 -18 206 -1 235 -22 312 -123 448 -55 74 -112
112 -193 127 -146 27 -274 -48 -347 -205 -41 -86 -49 -141 -45 -305 4 -174 37
-363 101 -584 52 -180 61 -229 64 -334 5 -177 -34 -269 -139 -326 -45 -24 -60
-28 -113 -24 -114 8 -192 65 -218 161 -15 57 -20 209 -8 292 5 39 12 127 15
196 6 118 5 130 -16 173 -55 115 -191 139 -251 44 -19 -31 -20 -42 -14 -178 3
-80 8 -168 12 -197 5 -48 3 -54 -25 -82 -26 -26 -38 -31 -79 -31 -56 0 -80 19
-107 84 -26 62 -20 129 34 411 7 36 10 116 8 200 -6 174 -23 227 -101 303 -78
78 -103 92 -167 92 -81 -1 -134 -28 -215 -115 -69 -73 -72 -75 -119 -75 -77 0
-139 45 -157 115 -35 133 -105 215 -184 215 -53 0 -112 -44 -144 -106 -38 -74
-22 -222 38 -358 31 -71 37 -128 16 -149 -25 -26 -51 -21 -89 18 -47 47 -63
109 -70 270 -3 72 -13 182 -22 245 -22 161 -23 359 -1 430 32 107 148 216 262
245 199 51 646 40 1005 -26 542 -99 908 -111 1610 -54 343 27 439 38 785 86
320 44 699 55 960 28z"/>
<path d="M5020 2920 c0 -5 5 -10 11 -10 5 0 7 5 4 10 -3 6 -8 10 -11 10 -2 0
-4 -4 -4 -10z"/>
<path d="M4985 2910 c3 -5 8 -10 11 -10 2 0 4 5 4 10 0 6 -5 10 -11 10 -5 0
-7 -4 -4 -10z"/>
<path d="M5060 2879 c0 -11 5 -17 10 -14 6 3 10 13 10 21 0 8 -4 14 -10 14 -5
0 -10 -9 -10 -21z"/>
<path d="M5015 2860 c3 -5 8 -10 11 -10 2 0 4 5 4 10 0 6 -5 10 -11 10 -5 0
-7 -4 -4 -10z"/>
<path d="M4985 2850 c3 -5 8 -10 11 -10 2 0 4 5 4 10 0 6 -5 10 -11 10 -5 0
-7 -4 -4 -10z"/>
<path d="M5055 2830 c3 -5 8 -10 11 -10 2 0 4 5 4 10 0 6 -5 10 -11 10 -5 0
-7 -4 -4 -10z"/>
<path d="M4075 2799 c-16 -25 -59 -30 -104 -13 -44 17 -45 17 -64 -7 -29 -35
-87 -164 -87 -193 0 -14 4 -27 9 -31 6 -3 13 -27 17 -53 8 -57 12 -65 75 -148
27 -36 63 -93 80 -125 16 -33 34 -57 39 -54 5 3 25 36 45 73 19 37 62 98 95
136 93 108 100 165 34 284 -36 64 -103 142 -122 142 -6 0 -14 -5 -17 -11z
m-53 -49 c11 0 33 8 50 18 l30 17 30 -35 c16 -19 46 -62 66 -95 30 -50 36 -69
35 -112 -1 -52 -26 -112 -50 -120 -7 -3 -19 11 -29 29 -9 18 -32 50 -52 71
-30 31 -43 37 -77 37 -45 0 -78 -26 -109 -87 -9 -18 -20 -33 -25 -33 -5 0 -11
23 -15 50 -4 28 -12 62 -18 76 -14 29 8 101 50 171 l26 42 34 -15 c19 -8 43
-14 54 -14z m72 -251 c33 -36 53 -93 44 -121 -3 -7 -17 10 -31 39 -27 53 -59
83 -88 83 -19 0 -64 -49 -74 -80 -9 -27 -25 -25 -25 3 0 33 50 105 80 115 36
12 55 5 94 -39z m-48 -34 c31 -21 58 -83 44 -99 -8 -10 -7 -15 5 -20 14 -5 14
-11 -6 -46 -13 -22 -31 -48 -41 -57 -16 -15 -18 -15 -18 0 0 9 -8 20 -17 26
-12 6 -18 22 -18 47 0 21 -6 39 -13 42 -8 2 -10 -2 -5 -15 6 -16 5 -16 -10 -4
-21 16 -22 51 -3 51 9 0 12 7 9 18 -4 17 30 72 46 72 3 0 16 -7 27 -15z"/>
<path d="M4000 2446 c0 -9 5 -16 10 -16 6 0 10 4 10 9 0 6 -4 13 -10 16 -5 3
-10 -1 -10 -9z"/>
<path d="M4005 2400 c-3 -5 -1 -10 4 -10 6 0 11 5 11 10 0 6 -2 10 -4 10 -3 0
-8 -4 -11 -10z"/>
<path d="M4060 2401 c0 -6 5 -13 10 -16 6 -3 10 1 10 9 0 9 -4 16 -10 16 -5 0
-10 -4 -10 -9z"/>
<path d="M4010 2290 c0 -5 7 -10 15 -10 8 0 15 5 15 10 0 6 -7 10 -15 10 -8 0
-15 -4 -15 -10z"/>
<path d="M6300 2740 c0 -5 7 -10 16 -10 8 0 12 5 9 10 -3 6 -10 10 -16 10 -5
0 -9 -4 -9 -10z"/>
<path d="M5340 2470 c0 -5 7 -10 16 -10 8 0 12 5 9 10 -3 6 -10 10 -16 10 -5
0 -9 -4 -9 -10z"/>
<path d="M5340 2440 c0 -5 5 -10 11 -10 5 0 7 5 4 10 -3 6 -8 10 -11 10 -2 0
-4 -4 -4 -10z"/>
<path d="M5375 2430 c-3 -5 -1 -10 4 -10 6 0 11 5 11 10 0 6 -2 10 -4 10 -3 0
-8 -4 -11 -10z"/>
<path d="M5405 2420 c3 -5 10 -10 16 -10 5 0 9 5 9 10 0 6 -7 10 -16 10 -8 0
-12 -4 -9 -10z"/>
<path d="M5310 2410 c0 -5 5 -10 10 -10 6 0 10 5 10 10 0 6 -4 10 -10 10 -5 0
-10 -4 -10 -10z"/>
<path d="M5350 2380 c0 -5 5 -10 10 -10 6 0 10 5 10 10 0 6 -4 10 -10 10 -5 0
-10 -4 -10 -10z"/>
<path d="M2575 2400 c-3 -5 -1 -10 4 -10 6 0 11 5 11 10 0 6 -2 10 -4 10 -3 0
-8 -4 -11 -10z"/>
<path d="M2600 2380 c0 -5 5 -10 10 -10 6 0 10 5 10 10 0 6 -4 10 -10 10 -5 0
-10 -4 -10 -10z"/>
<path d="M2660 2350 c0 -5 5 -10 10 -10 6 0 10 5 10 10 0 6 -4 10 -10 10 -5 0
-10 -4 -10 -10z"/>
<path d="M2550 2310 c0 -5 5 -10 10 -10 6 0 10 5 10 10 0 6 -4 10 -10 10 -5 0
-10 -4 -10 -10z"/>
<path d="M2610 2300 c0 -5 5 -10 11 -10 5 0 7 5 4 10 -3 6 -8 10 -11 10 -2 0
-4 -4 -4 -10z"/>
<path d="M2640 2300 c0 -5 5 -10 10 -10 6 0 10 5 10 10 0 6 -4 10 -10 10 -5 0
-10 -4 -10 -10z"/>
<path d="M2635 2270 c4 -6 11 -8 16 -5 14 9 11 15 -7 15 -8 0 -12 -5 -9 -10z"/>
<path d="M2600 2229 c0 -5 5 -7 10 -4 6 3 10 8 10 11 0 2 -4 4 -10 4 -5 0 -10
-5 -10 -11z"/>
<path d="M2320 2275 c-14 -8 -48 -14 -77 -15 -47 0 -54 -3 -76 -32 -37 -49
-87 -154 -87 -181 0 -29 33 -73 60 -82 25 -8 106 -116 137 -182 14 -29 28 -53
31 -53 4 0 21 31 39 69 37 79 107 161 158 185 52 25 55 56 15 134 -38 73 -129
172 -157 172 -10 -1 -29 -7 -43 -15z m103 -57 c38 -39 107 -159 107 -187 0 -6
-19 -20 -42 -32 l-42 -21 -28 33 c-15 19 -28 37 -28 41 0 12 -57 38 -83 38
-28 0 -63 -30 -96 -82 -12 -21 -28 -38 -35 -38 -17 0 -76 59 -76 76 0 19 38
99 68 145 21 34 28 37 85 43 35 4 69 11 77 16 28 18 51 10 93 -32z m-61 -167
c27 -22 65 -97 54 -108 -4 -4 -25 12 -46 35 -22 23 -48 42 -59 42 -11 0 -37
-21 -60 -47 -32 -37 -41 -44 -41 -28 0 25 35 85 63 107 29 23 59 22 89 -1z
m-26 -66 c17 -13 17 -16 4 -26 -13 -9 -12 -10 2 -5 11 3 21 -2 28 -14 14 -27
12 -43 -5 -36 -10 4 -14 -1 -12 -17 1 -14 -3 -21 -12 -19 -8 2 -11 -3 -8 -12
3 -8 -2 -25 -12 -37 l-17 -22 -32 50 c-35 55 -40 81 -17 89 8 4 15 11 15 17 0
12 30 47 40 47 3 0 15 -7 26 -15z"/>
<path d="M2290 1970 c0 -5 5 -10 10 -10 6 0 10 5 10 10 0 6 -4 10 -10 10 -5 0
-10 -4 -10 -10z"/>
<path d="M2300 1900 c0 -5 5 -10 10 -10 6 0 10 5 10 10 0 6 -4 10 -10 10 -5 0
-10 -4 -10 -10z"/>
<path d="M2270 1879 c0 -5 5 -7 10 -4 6 3 10 8 10 11 0 2 -4 4 -10 4 -5 0 -10
-5 -10 -11z"/>
<path d="M2290 1860 c0 -5 5 -10 10 -10 6 0 10 5 10 10 0 6 -4 10 -10 10 -5 0
-10 -4 -10 -10z"/>
<path d="M4980 2005 c7 -8 17 -15 22 -15 6 0 5 7 -2 15 -7 8 -17 15 -22 15 -6
0 -5 -7 2 -15z"/>
<path d="M5041 2004 c0 -11 3 -14 6 -6 3 7 2 16 -1 19 -3 4 -6 -2 -5 -13z"/>
<path d="M4950 1979 c0 -5 5 -7 10 -4 6 3 10 8 10 11 0 2 -4 4 -10 4 -5 0 -10
-5 -10 -11z"/>
<path d="M4980 1960 c0 -5 5 -10 10 -10 6 0 10 5 10 10 0 6 -4 10 -10 10 -5 0
-10 -4 -10 -10z"/>
<path d="M5020 1950 c0 -5 5 -10 10 -10 6 0 10 5 10 10 0 6 -4 10 -10 10 -5 0
-10 -4 -10 -10z"/>
<path d="M5050 1949 c0 -7 3 -9 7 -6 3 4 12 2 19 -4 8 -7 14 -7 19 1 3 5 2 10
-4 10 -5 0 -16 3 -25 6 -10 4 -16 1 -16 -7z"/>
<path d="M4940 1940 c0 -5 5 -10 10 -10 6 0 10 5 10 10 0 6 -4 10 -10 10 -5 0
-10 -4 -10 -10z"/>
<path d="M5025 1890 c3 -5 8 -10 11 -10 2 0 4 5 4 10 0 6 -5 10 -11 10 -5 0
-7 -4 -4 -10z"/>
<path d="M5015 1860 c-3 -5 -1 -10 4 -10 6 0 11 5 11 10 0 6 -2 10 -4 10 -3 0
-8 -4 -11 -10z"/>
<path d="M4320 1980 c0 -5 5 -10 10 -10 6 0 10 5 10 10 0 6 -4 10 -10 10 -5 0
-10 -4 -10 -10z"/>
<path d="M4360 1979 c0 -5 5 -7 10 -4 6 3 10 8 10 11 0 2 -4 4 -10 4 -5 0 -10
-5 -10 -11z"/>
<path d="M4330 1940 c-6 -11 -7 -20 -2 -20 10 0 32 21 32 32 0 16 -19 8 -30
-12z"/>
<path d="M4285 1930 c-3 -5 -1 -10 4 -10 6 0 11 5 11 10 0 6 -2 10 -4 10 -3 0
-8 -4 -11 -10z"/>
<path d="M4390 1930 c0 -5 5 -10 10 -10 6 0 10 5 10 10 0 6 -4 10 -10 10 -5 0
-10 -4 -10 -10z"/>
<path d="M5710 2000 c0 -5 5 -10 11 -10 5 0 7 5 4 10 -3 6 -8 10 -11 10 -2 0
-4 -4 -4 -10z"/>
<path d="M5650 1990 c0 -5 5 -10 10 -10 6 0 10 5 10 10 0 6 -4 10 -10 10 -5 0
-10 -4 -10 -10z"/>
<path d="M5620 1970 c0 -5 5 -10 10 -10 6 0 10 5 10 10 0 6 -4 10 -10 10 -5 0
-10 -4 -10 -10z"/>
<path d="M5670 1960 c0 -5 5 -10 10 -10 6 0 10 5 10 10 0 6 -4 10 -10 10 -5 0
-10 -4 -10 -10z"/>
<path d="M5610 1930 c0 -5 5 -10 10 -10 6 0 10 5 10 10 0 6 -4 10 -10 10 -5 0
-10 -4 -10 -10z"/>
<path d="M5633 1915 c-15 -16 -16 -25 -5 -25 4 0 13 9 20 20 14 23 3 26 -15 5z"/>
<path d="M5680 1900 c0 -5 5 -10 11 -10 5 0 7 5 4 10 -3 6 -8 10 -11 10 -2 0
-4 -4 -4 -10z"/>
<path d="M5640 1869 c0 -5 5 -7 10 -4 6 3 10 8 10 11 0 2 -4 4 -10 4 -5 0 -10
-5 -10 -11z"/>
<path d="M5680 1860 c0 -5 5 -10 11 -10 5 0 7 5 4 10 -3 6 -8 10 -11 10 -2 0
-4 -4 -4 -10z"/>
<path d="M4726 1885 c-24 -18 -69 -19 -94 -4 -15 9 -24 8 -46 -6 -35 -23 -106
-115 -138 -180 -31 -61 -26 -82 36 -137 48 -41 119 -144 163 -232 15 -31 31
-56 36 -56 4 0 15 16 23 36 29 70 96 164 151 213 48 43 56 55 60 95 5 37 -1
57 -32 120 -38 77 -107 166 -128 166 -7 0 -21 -7 -31 -15z m73 -52 c40 -48
101 -170 101 -200 0 -34 -14 -56 -54 -87 l-35 -27 -25 48 c-38 75 -68 103
-113 103 -43 -1 -76 -25 -111 -82 -13 -21 -27 -38 -31 -38 -3 0 -22 14 -40 31
-31 28 -33 33 -27 75 6 48 29 86 88 153 38 41 39 41 107 41 39 0 73 5 76 10
12 19 34 10 64 -27z m-81 -203 c29 -27 74 -117 70 -138 -3 -12 -10 -5 -22 21
-23 47 -70 87 -102 87 -27 0 -50 -21 -78 -71 -18 -31 -20 -32 -24 -12 -4 27
22 78 55 109 32 29 72 31 101 4z m-13 -77 c5 -13 15 -23 21 -23 7 0 14 -10 18
-22 9 -36 7 -78 -5 -78 -5 0 -8 -4 -5 -9 4 -5 -5 -22 -18 -38 -13 -15 -26 -37
-28 -48 l-5 -20 -8 20 c-5 11 -15 26 -22 33 -15 16 -17 42 -3 42 6 0 10 5 10
11 0 6 -6 9 -14 6 -8 -3 -24 5 -36 18 -18 20 -21 28 -12 52 5 15 14 27 20 26
6 -2 9 4 6 12 -4 10 0 15 15 15 14 0 19 5 14 16 -10 26 40 13 52 -13z"/>
<path d="M4670 1550 c0 -5 5 -10 11 -10 5 0 7 5 4 10 -3 6 -8 10 -11 10 -2 0
-4 -4 -4 -10z"/>
<path d="M4685 1510 c3 -5 8 -10 11 -10 2 0 4 5 4 10 0 6 -5 10 -11 10 -5 0
-7 -4 -4 -10z"/>
<path d="M4650 1489 c0 -5 5 -7 10 -4 6 3 10 8 10 11 0 2 -4 4 -10 4 -5 0 -10
-5 -10 -11z"/>
<path d="M4725 1480 c3 -5 8 -10 11 -10 2 0 4 5 4 10 0 6 -5 10 -11 10 -5 0
-7 -4 -4 -10z"/>
<path d="M4650 1460 c0 -5 5 -10 10 -10 6 0 10 5 10 10 0 6 -4 10 -10 10 -5 0
-10 -4 -10 -10z"/>
<path d="M4685 1461 c-6 -11 9 -23 19 -14 9 9 7 23 -3 23 -6 0 -12 -4 -16 -9z"/>
<path d="M4700 1399 c0 -5 5 -7 10 -4 6 3 10 8 10 11 0 2 -4 4 -10 4 -5 0 -10
-5 -10 -11z"/>
<path d="M4660 1390 c0 -5 5 -10 10 -10 6 0 10 5 10 10 0 6 -4 10 -10 10 -5 0
-10 -4 -10 -10z"/>
<path d="M5214 1868 c-46 -42 -124 -184 -124 -224 1 -31 25 -66 66 -94 53 -35
127 -136 153 -207 34 -93 33 -91 41 -58 18 79 99 189 178 241 87 58 93 66 80
111 -12 44 -71 159 -96 188 -10 11 -34 35 -53 53 -35 32 -36 32 -75 19 -32
-12 -45 -12 -74 -1 -49 18 -46 18 -96 -28z m260 -29 c49 -55 104 -158 113
-213 5 -31 2 -37 -37 -62 -34 -23 -43 -25 -50 -13 -42 71 -114 129 -161 129
-35 0 -84 -41 -110 -91 -11 -22 -24 -39 -30 -39 -6 0 -26 15 -45 34 -24 24
-34 43 -34 65 0 42 53 147 98 193 34 36 37 37 91 32 31 -3 67 -1 81 4 36 15
34 16 84 -39z m-94 -195 c27 -11 51 -31 70 -60 52 -75 33 -88 -36 -24 -57 52
-90 53 -133 5 -17 -20 -31 -40 -31 -45 0 -6 -4 -10 -10 -10 -45 0 47 141 97
150 2 0 21 -7 43 -16z m-13 -94 c13 0 13 3 3 15 -7 8 -10 15 -7 15 2 0 21 -20
41 -45 21 -25 30 -42 22 -39 -9 3 -16 1 -16 -5 0 -6 5 -11 10 -11 6 0 5 -8 -2
-20 -7 -11 -19 -18 -27 -15 -9 4 -11 0 -7 -11 7 -17 -29 -84 -45 -84 -12 0
-31 50 -25 65 2 7 -9 22 -25 34 -34 25 -38 56 -9 73 11 7 20 18 20 25 0 7 7
13 15 13 8 0 15 6 15 13 0 6 5 4 11 -5 5 -10 17 -18 26 -18z"/>
<path d="M5362 1518 c-14 -14 -16 -28 -2 -28 5 0 14 9 20 20 12 22 1 27 -18 8z"/>
<path d="M5270 1500 c0 -5 5 -10 10 -10 6 0 10 5 10 10 0 6 -4 10 -10 10 -5 0
-10 -4 -10 -10z"/>
<path d="M5300 1460 c0 -5 5 -10 10 -10 6 0 10 5 10 10 0 6 -4 10 -10 10 -5 0
-10 -4 -10 -10z"/>
<path d="M5345 1450 c3 -5 8 -10 11 -10 2 0 4 5 4 10 0 6 -5 10 -11 10 -5 0
-7 -4 -4 -10z"/>
<path d="M5330 1411 c0 -5 7 -11 15 -15 8 -3 15 -1 15 3 0 5 -7 11 -15 15 -8
3 -15 1 -15 -3z"/>
<path d="M6260 1870 c0 -5 5 -10 11 -10 5 0 7 5 4 10 -3 6 -8 10 -11 10 -2 0
-4 -4 -4 -10z"/>
<path d="M2620 1520 c0 -5 5 -10 11 -10 5 0 7 5 4 10 -3 6 -8 10 -11 10 -2 0
-4 -4 -4 -10z"/>
<path d="M2665 1490 c3 -5 8 -10 11 -10 2 0 4 5 4 10 0 6 -5 10 -11 10 -5 0
-7 -4 -4 -10z"/>
<path d="M2560 1479 c0 -5 5 -7 10 -4 6 3 10 8 10 11 0 2 -4 4 -10 4 -5 0 -10
-5 -10 -11z"/>
<path d="M2635 1480 c3 -5 8 -10 11 -10 2 0 4 5 4 10 0 6 -5 10 -11 10 -5 0
-7 -4 -4 -10z"/>
<path d="M2685 1460 c3 -5 8 -10 11 -10 2 0 4 5 4 10 0 6 -5 10 -11 10 -5 0
-7 -4 -4 -10z"/>
<path d="M2650 1439 c0 -5 5 -7 10 -4 6 3 10 8 10 11 0 2 -4 4 -10 4 -5 0 -10
-5 -10 -11z"/>
<path d="M2565 1430 c3 -5 8 -10 11 -10 2 0 4 5 4 10 0 6 -5 10 -11 10 -5 0
-7 -4 -4 -10z"/>
<path d="M2650 1410 c0 -5 5 -10 10 -10 6 0 10 5 10 10 0 6 -4 10 -10 10 -5 0
-10 -4 -10 -10z"/>
<path d="M2580 1390 c0 -5 5 -10 10 -10 6 0 10 5 10 10 0 6 -4 10 -10 10 -5 0
-10 -4 -10 -10z"/>
<path d="M2615 1370 c3 -5 8 -10 11 -10 2 0 4 5 4 10 0 6 -5 10 -11 10 -5 0
-7 -4 -4 -10z"/>
<path d="M3990 1541 c0 -6 5 -13 10 -16 6 -3 10 1 10 9 0 9 -4 16 -10 16 -5 0
-10 -4 -10 -9z"/>
<path d="M3960 1510 c0 -5 5 -10 10 -10 6 0 10 5 10 10 0 6 -4 10 -10 10 -5 0
-10 -4 -10 -10z"/>
<path d="M4001 1487 c-15 -19 -2 -29 15 -12 8 7 14 16 14 19 0 11 -17 6 -29
-7z"/>
<path d="M3995 1430 c3 -5 8 -10 11 -10 2 0 4 5 4 10 0 6 -5 10 -11 10 -5 0
-7 -4 -4 -10z"/>
<path d="M3955 1410 c-3 -5 -1 -10 4 -10 6 0 11 5 11 10 0 6 -2 10 -4 10 -3 0
-8 -4 -11 -10z"/>
<path d="M3980 1380 c0 -5 5 -10 11 -10 5 0 7 5 4 10 -3 6 -8 10 -11 10 -2 0
-4 -4 -4 -10z"/>
<path d="M5953 1523 c-7 -3 -13 -12 -13 -21 0 -15 2 -15 17 1 18 18 16 27 -4
20z"/>
<path d="M5990 1482 c0 -13 -6 -22 -16 -22 -8 0 -12 -5 -8 -11 4 -7 14 -4 27
10 17 16 19 23 9 33 -9 9 -12 7 -12 -10z"/>
<path d="M5935 1470 c-3 -5 -1 -10 4 -10 6 0 11 5 11 10 0 6 -2 10 -4 10 -3 0
-8 -4 -11 -10z"/>
<path d="M6030 1439 c0 -5 5 -7 10 -4 6 3 10 8 10 11 0 2 -4 4 -10 4 -5 0 -10
-5 -10 -11z"/>
<path d="M5930 1422 c0 -5 7 -15 15 -22 8 -7 15 -9 15 -6 0 4 -7 14 -15 22 -8
9 -15 11 -15 6z"/>
<path d="M5993 1403 c-21 -8 -15 -22 7 -16 11 3 20 9 20 14 0 10 -8 10 -27 2z"/>
<path d="M4197 1418 c-53 -57 -94 -131 -121 -220 -17 -54 -17 -61 -1 -100 10
-28 33 -57 64 -83 57 -47 107 -117 147 -209 27 -62 44 -83 44 -53 0 7 18 50
40 95 28 59 55 97 97 137 32 30 66 58 75 61 10 3 31 25 47 49 l30 44 -34 83
c-77 190 -139 268 -187 233 -28 -19 -87 -19 -112 0 -29 22 -36 20 -89 -37z
m136 5 c21 -3 51 0 68 7 25 11 32 10 49 -5 29 -27 63 -89 104 -193 l37 -92
-26 -34 c-27 -35 -66 -66 -85 -66 -5 0 -10 9 -10 21 0 29 -59 115 -87 128 -13
6 -42 11 -64 11 -51 0 -91 -40 -120 -122 l-21 -57 -36 23 c-51 32 -66 86 -42
154 24 68 74 161 112 206 26 32 35 37 57 31 14 -4 43 -9 64 -12z m55 -268 c36
-30 76 -118 67 -147 -8 -25 -17 -15 -34 37 -39 116 -135 111 -180 -10 -10 -27
-24 -51 -30 -53 -33 -11 15 134 58 177 29 29 82 28 119 -4z m-38 -54 c0 -5 9
-11 20 -14 12 -3 20 -14 20 -25 0 -12 4 -24 10 -27 18 -11 6 -79 -17 -102 -13
-12 -23 -29 -23 -37 0 -29 -23 -67 -38 -61 -10 4 -12 0 -8 -10 3 -10 2 -13 -5
-10 -6 4 -8 13 -5 20 3 8 -2 19 -10 26 -24 20 -45 67 -34 74 6 3 10 11 10 17
0 7 -6 6 -15 -2 -18 -15 -19 -2 -3 37 6 15 10 32 10 36 -4 14 28 66 45 76 22
13 43 14 43 2z"/>
<path d="M4330 1066 c0 -9 5 -16 10 -16 6 0 10 4 10 9 0 6 -4 13 -10 16 -5 3
-10 -1 -10 -9z"/>
<path d="M4290 1059 c0 -5 5 -7 10 -4 6 3 10 8 10 11 0 2 -4 4 -10 4 -5 0 -10
-5 -10 -11z"/>
<path d="M4290 1030 c0 -5 5 -10 10 -10 6 0 10 5 10 10 0 6 -4 10 -10 10 -5 0
-10 -4 -10 -10z"/>
<path d="M4357 1033 c-2 -5 4 -17 14 -27 12 -12 19 -15 19 -7 0 16 -27 44 -33
34z"/>
<path d="M4320 989 c0 -5 5 -7 10 -4 6 3 10 8 10 11 0 2 -4 4 -10 4 -5 0 -10
-5 -10 -11z"/>
<path d="M4300 970 c0 -5 5 -10 10 -10 6 0 10 5 10 10 0 6 -4 10 -10 10 -5 0
-10 -4 -10 -10z"/>
<path d="M4330 970 c0 -5 5 -10 10 -10 6 0 10 5 10 10 0 6 -4 10 -10 10 -5 0
-10 -4 -10 -10z"/>
<path d="M4285 920 c3 -5 10 -10 16 -10 5 0 9 5 9 10 0 6 -7 10 -16 10 -8 0
-12 -4 -9 -10z"/>
<path d="M4325 880 c-3 -5 -1 -10 4 -10 6 0 11 5 11 10 0 6 -2 10 -4 10 -3 0
-8 -4 -11 -10z"/>
<path d="M5057 1450 c-28 -22 -68 -26 -99 -9 -17 9 -26 5 -60 -28 -56 -54 -93
-117 -118 -199 -26 -88 -20 -108 49 -159 58 -42 89 -90 132 -202 17 -43 34
-82 39 -87 4 -4 32 39 61 95 41 80 68 119 120 170 37 36 71 75 77 85 25 47
-120 354 -167 354 -5 0 -20 -9 -34 -20z m82 -64 c47 -78 90 -194 91 -243 0
-33 -5 -46 -26 -62 -15 -12 -30 -21 -34 -21 -4 0 -15 18 -25 41 -11 22 -40 63
-65 90 -36 38 -53 49 -77 49 -43 0 -90 -42 -122 -110 l-27 -56 -29 16 c-25 14
-31 24 -33 60 -4 54 47 163 108 233 35 39 45 45 60 37 26 -14 69 -12 105 5 17
7 32 14 35 14 3 1 21 -23 39 -53z m-71 -214 c36 -39 77 -111 68 -119 -2 -3
-11 9 -20 25 -23 44 -73 82 -108 82 -35 0 -94 -54 -104 -96 -3 -13 -10 -24
-15 -24 -31 0 22 124 68 160 36 28 69 20 111 -28z m-6 -61 c20 -17 58 -82 58
-101 0 -5 -12 -10 -27 -10 -26 -1 -27 -2 -10 -14 17 -13 16 -16 -15 -49 -19
-19 -32 -40 -30 -47 2 -6 -5 -14 -17 -17 -23 -6 -28 -19 -9 -25 7 -3 9 -11 4
-24 -7 -16 -12 -10 -33 36 -14 30 -25 63 -26 74 -1 11 -12 30 -24 42 -24 24
-31 54 -12 54 6 0 8 8 5 18 -4 11 6 32 25 55 27 33 35 37 61 32 17 -4 39 -14
50 -24z"/>
<path d="M4970 1110 c0 -5 5 -10 10 -10 6 0 10 5 10 10 0 6 -4 10 -10 10 -5 0
-10 -4 -10 -10z"/>
<path d="M5000 1099 c0 -5 5 -7 10 -4 6 3 10 8 10 11 0 2 -4 4 -10 4 -5 0 -10
-5 -10 -11z"/>
<path d="M5040 1070 c0 -5 5 -10 10 -10 6 0 10 5 10 10 0 6 -4 10 -10 10 -5 0
-10 -4 -10 -10z"/>
<path d="M5030 1030 c0 -5 5 -10 11 -10 5 0 7 5 4 10 -3 6 -8 10 -11 10 -2 0
-4 -4 -4 -10z"/>
<path d="M5075 1030 c3 -5 11 -10 16 -10 6 0 7 5 4 10 -3 6 -11 10 -16 10 -6
0 -7 -4 -4 -10z"/>
<path d="M4980 1010 c0 -5 5 -10 10 -10 6 0 10 5 10 10 0 6 -4 10 -10 10 -5 0
-10 -4 -10 -10z"/>
<path d="M4945 1000 c3 -5 8 -10 11 -10 2 0 4 5 4 10 0 6 -5 10 -11 10 -5 0
-7 -4 -4 -10z"/>
<path d="M5010 980 c0 -5 5 -10 10 -10 6 0 10 5 10 10 0 6 -4 10 -10 10 -5 0
-10 -4 -10 -10z"/>
<path d="M5030 952 c0 -4 9 -8 20 -9 11 -1 20 2 20 8 0 5 -9 9 -20 9 -11 0
-20 -4 -20 -8z"/>
<path d="M4980 925 c0 -8 5 -15 10 -15 6 0 10 7 10 15 0 8 -4 15 -10 15 -5 0
-10 -7 -10 -15z"/>
<path d="M3031 1456 c-18 -21 -60 -25 -110 -10 l-46 14 -28 -32 c-44 -51 -107
-162 -132 -231 -29 -82 -17 -115 53 -151 82 -42 142 -129 173 -251 6 -25 15
-48 19 -50 5 -3 16 19 25 47 41 125 83 185 182 259 32 24 59 54 68 75 13 33
13 41 -6 97 -23 71 -68 155 -111 210 -31 39 -66 48 -87 23z m88 -65 c58 -83
101 -179 101 -225 0 -31 -7 -45 -36 -72 -19 -19 -39 -34 -44 -34 -4 0 -21 24
-38 53 -41 72 -63 89 -122 95 -49 4 -52 3 -90 -38 -22 -23 -45 -59 -51 -79
-17 -52 -16 -52 -57 -29 -48 27 -62 45 -62 79 0 38 82 198 127 247 l38 41 51
-11 c46 -10 55 -9 90 10 22 11 42 21 45 21 3 1 25 -26 48 -58z m-79 -232 c36
-36 73 -105 65 -119 -11 -18 -25 -10 -44 28 -26 51 -53 73 -90 74 -39 1 -68
-24 -92 -79 -17 -41 -39 -58 -39 -30 1 22 36 91 64 125 38 45 91 45 136 1z
m-60 -44 c0 -8 5 -15 11 -15 5 0 7 5 3 11 -4 7 -1 10 7 7 19 -6 46 -56 54 -99
7 -35 6 -36 -24 -31 -19 2 -31 0 -31 -7 0 -6 7 -11 15 -11 8 0 15 -7 15 -15 0
-9 -7 -18 -15 -21 -8 -4 -15 -17 -15 -31 0 -17 -7 -27 -20 -30 -16 -4 -18 -9
-9 -19 6 -7 7 -18 3 -25 -7 -13 -23 7 -29 39 -2 10 -17 41 -34 70 -36 62 -38
85 -11 112 11 11 19 24 18 29 -3 9 41 50 55 51 4 0 7 -7 7 -15z"/>
<path d="M2960 1070 c0 -5 5 -10 10 -10 6 0 10 5 10 10 0 6 -4 10 -10 10 -5 0
-10 -4 -10 -10z"/>
<path d="M2900 1009 c0 -5 5 -7 10 -4 6 3 10 8 10 11 0 2 -4 4 -10 4 -5 0 -10
-5 -10 -11z"/>
<path d="M2980 1010 c0 -5 5 -10 10 -10 6 0 10 5 10 10 0 6 -4 10 -10 10 -5 0
-10 -4 -10 -10z"/>
<path d="M2925 990 c-3 -5 -1 -10 4 -10 6 0 11 5 11 10 0 6 -2 10 -4 10 -3 0
-8 -4 -11 -10z"/>
<path d="M2955 990 c3 -5 8 -10 11 -10 2 0 4 5 4 10 0 6 -5 10 -11 10 -5 0 -7
-4 -4 -10z"/>
<path d="M2940 930 c0 -5 5 -10 11 -10 5 0 7 5 4 10 -3 6 -8 10 -11 10 -2 0
-4 -4 -4 -10z"/>
<path d="M5694 1429 c-31 -19 -33 -19 -68 -3 -31 15 -39 16 -61 4 -32 -17 -84
-95 -137 -205 l-41 -86 19 -35 c10 -20 37 -48 58 -62 52 -36 109 -120 142
-210 15 -40 30 -69 34 -65 4 4 15 33 25 63 10 30 24 68 32 84 22 43 99 122
133 136 20 8 36 27 50 56 19 44 19 44 -2 106 -11 35 -31 84 -44 111 -24 46
-90 128 -103 126 -3 0 -20 -9 -37 -20z m-68 -24 c28 -14 69 -11 89 6 19 18 35
8 69 -43 50 -74 90 -188 82 -232 -6 -31 -45 -76 -66 -76 -4 0 -12 18 -18 39
-7 23 -29 54 -52 75 -33 29 -48 36 -82 36 -36 0 -47 -6 -84 -44 -23 -25 -48
-61 -55 -80 -7 -20 -16 -36 -20 -36 -13 0 -59 61 -66 88 -8 33 62 172 120 238
43 49 44 50 83 29z m66 -224 c13 -5 36 -31 51 -59 44 -80 32 -113 -15 -42 -13
19 -36 41 -51 50 -25 14 -30 13 -64 -5 -21 -11 -42 -29 -48 -40 -33 -62 -37
-68 -45 -54 -11 16 19 76 61 124 32 37 64 44 111 26z m-62 -82 c0 -8 6 -7 17
2 13 11 17 11 20 2 3 -7 11 -13 19 -13 7 0 20 -13 29 -30 18 -34 20 -74 4 -64
-7 4 -10 1 -7 -6 2 -8 -2 -21 -9 -29 -44 -51 -64 -82 -58 -91 3 -5 1 -10 -5
-10 -7 0 -9 -8 -4 -22 3 -13 4 -20 0 -17 -14 13 -25 69 -14 75 5 3 -1 12 -14
18 -12 6 -25 20 -27 31 -2 11 -11 25 -20 32 -13 11 -14 14 -2 22 7 5 11 13 7
19 -10 17 16 64 32 57 9 -3 12 0 9 9 -6 15 1 26 15 26 4 0 8 -5 8 -11z"/>
<path d="M5650 1074 c0 -8 5 -12 10 -9 6 4 8 11 5 16 -9 14 -15 11 -15 -7z"/>
<path d="M5590 1030 c0 -5 5 -10 11 -10 5 0 7 5 4 10 -3 6 -8 10 -11 10 -2 0
-4 -4 -4 -10z"/>
<path d="M5660 1000 c0 -5 5 -10 11 -10 5 0 7 5 4 10 -3 6 -8 10 -11 10 -2 0
-4 -4 -4 -10z"/>
<path d="M5640 940 c0 -5 5 -10 10 -10 6 0 10 5 10 10 0 6 -4 10 -10 10 -5 0
-10 -4 -10 -10z"/>
<path d="M3670 1060 c0 -5 5 -10 10 -10 6 0 10 5 10 10 0 6 -4 10 -10 10 -5 0
-10 -4 -10 -10z"/>
<path d="M3610 1000 c0 -5 5 -10 10 -10 6 0 10 5 10 10 0 6 -4 10 -10 10 -5 0
-10 -4 -10 -10z"/>
<path d="M3660 980 c0 -5 5 -10 10 -10 6 0 10 5 10 10 0 6 -4 10 -10 10 -5 0
-10 -4 -10 -10z"/>
<path d="M3690 980 c0 -5 5 -10 10 -10 6 0 10 5 10 10 0 6 -4 10 -10 10 -5 0
-10 -4 -10 -10z"/>
<path d="M3610 971 c0 -12 28 -22 35 -12 3 5 -2 12 -11 15 -21 8 -24 8 -24 -3z"/>
<path d="M3650 910 c0 -5 5 -10 10 -10 6 0 10 5 10 10 0 6 -4 10 -10 10 -5 0
-10 -4 -10 -10z"/>
<path d="M6335 1010 c3 -5 8 -10 11 -10 2 0 4 5 4 10 0 6 -5 10 -11 10 -5 0
-7 -4 -4 -10z"/>
<path d="M6270 999 c0 -5 5 -7 10 -4 6 3 10 8 10 11 0 2 -4 4 -10 4 -5 0 -10
-5 -10 -11z"/>
<path d="M6300 890 c0 -5 5 -10 10 -10 6 0 10 5 10 10 0 6 -4 10 -10 10 -5 0
-10 -4 -10 -10z"/>
<path d="M6330 880 c0 -5 5 -10 11 -10 5 0 7 5 4 10 -3 6 -8 10 -11 10 -2 0
-4 -4 -4 -10z"/>
<path d="M6325 850 c3 -5 8 -10 11 -10 2 0 4 5 4 10 0 6 -5 10 -11 10 -5 0 -7
-4 -4 -10z"/>
<path d="M6025 1000 c-3 -6 -20 -17 -36 -26 -28 -14 -33 -14 -64 5 l-33 19
-29 -36 c-77 -98 -149 -282 -140 -360 8 -74 8 -74 212 -62 276 17 260 13 286
67 22 46 22 47 4 97 -41 117 -96 216 -153 279 -28 29 -37 33 -47 17z m67 -79
c39 -51 111 -198 119 -241 5 -31 -23 -98 -45 -104 -45 -12 -55 -6 -81 49 -32
68 -66 95 -115 95 -31 0 -44 -7 -68 -34 -16 -19 -35 -52 -42 -73 -14 -44 -34
-63 -66 -63 -32 0 -54 26 -54 66 0 68 79 261 132 320 16 18 25 20 54 14 37 -9
104 5 104 20 0 23 21 6 62 -49z m-68 -243 c25 -22 63 -98 50 -98 -4 0 -24 16
-45 35 -22 19 -48 35 -60 35 -24 0 -79 -51 -79 -74 0 -9 -4 -16 -10 -16 -25 0
-1 72 38 113 32 33 72 35 106 5z m-40 -70 c4 7 12 10 17 7 5 -4 2 -17 -7 -31
-12 -18 -25 -24 -50 -24 -41 0 -43 12 -7 48 24 24 27 25 33 7 5 -13 9 -15 14
-7z m46 -28 c0 -5 -4 -10 -10 -10 -5 0 -10 5 -10 10 0 6 5 10 10 10 6 0 10 -4
10 -10z"/>
<path d="M2290 990 c0 -5 5 -10 11 -10 5 0 7 5 4 10 -3 6 -8 10 -11 10 -2 0
-4 -4 -4 -10z"/>
<path d="M2250 970 c0 -5 5 -10 10 -10 6 0 10 5 10 10 0 6 -4 10 -10 10 -5 0
-10 -4 -10 -10z"/>
<path d="M2290 930 c0 -5 5 -10 10 -10 6 0 10 5 10 10 0 6 -4 10 -10 10 -5 0
-10 -4 -10 -10z"/>
<path d="M2250 890 c0 -5 5 -10 10 -10 6 0 10 5 10 10 0 6 -4 10 -10 10 -5 0
-10 -4 -10 -10z"/>
<path d="M2300 880 c0 -5 5 -10 10 -10 6 0 10 5 10 10 0 6 -4 10 -10 10 -5 0
-10 -4 -10 -10z"/>
<path d="M2270 850 c0 -5 5 -10 10 -10 6 0 10 5 10 10 0 6 -4 10 -10 10 -5 0
-10 -4 -10 -10z"/>
<path d="M2260 820 c0 -5 5 -10 10 -10 6 0 10 5 10 10 0 6 -4 10 -10 10 -5 0
-10 -4 -10 -10z"/>
<path d="M2654 969 c-20 -13 -47 -19 -85 -19 -54 0 -56 -1 -86 -42 -43 -61
-57 -91 -91 -195 -29 -90 -30 -93 -14 -136 l16 -45 106 -11 c58 -7 156 -12
219 -13 l114 -1 29 32 c36 40 36 71 -3 174 -49 133 -62 159 -101 209 -51 64
-67 72 -104 47z m77 -46 c36 -41 71 -116 115 -239 24 -70 27 -85 16 -108 -12
-26 -69 -59 -85 -49 -4 3 -19 30 -33 61 -28 65 -47 88 -88 109 -54 28 -111
-11 -143 -97 -22 -60 -25 -62 -67 -55 -71 14 -69 100 5 265 17 36 42 77 56 92
23 24 35 28 83 28 34 0 64 6 76 15 27 20 28 20 65 -22z m-57 -263 c29 -26 66
-100 66 -132 0 -21 -22 -4 -40 32 -42 83 -101 90 -147 17 -19 -30 -28 -37 -31
-25 -8 39 67 138 104 138 7 0 29 -14 48 -30z m-53 -62 c0 -10 2 -10 6 0 7 18
56 -32 51 -53 -1 -9 -6 -16 -10 -16 -5 1 -20 1 -35 1 -34 0 -61 44 -42 67 14
16 29 17 30 1z m-41 -48 c0 -5 -4 -10 -10 -10 -5 0 -10 5 -10 10 0 6 5 10 10
10 6 0 10 -4 10 -10z"/>
<path d="M3350 987 c-14 -6 -50 -11 -79 -11 -54 -1 -56 -2 -93 -51 -43 -56
-124 -239 -134 -301 -5 -36 -3 -45 23 -74 l29 -33 225 12 224 12 26 32 27 31
-40 114 c-45 131 -66 176 -104 221 -38 45 -73 61 -104 48z m137 -147 c14 -30
39 -93 54 -138 26 -77 27 -86 13 -107 -17 -25 -41 -38 -55 -29 -5 3 -20 29
-34 59 -28 58 -71 101 -112 111 -57 15 -119 -42 -145 -131 -21 -72 -73 -87
-123 -35 l-28 30 27 82 c34 100 67 167 113 231 35 47 35 47 82 42 30 -4 55 -1
71 8 24 13 27 12 68 -27 24 -23 55 -66 69 -96z m-100 -146 c27 -17 46 -44 68
-96 13 -33 13 -38 1 -38 -8 0 -25 18 -37 39 -47 84 -118 80 -161 -9 -20 -41
-28 -51 -33 -38 -8 21 11 83 38 121 33 48 72 54 124 21z m-21 -70 c35 -23 50
-54 33 -65 -19 -12 -116 -11 -124 0 -8 14 34 81 51 81 8 0 26 -7 40 -16z"/>
<path d="M3310 610 c0 -5 5 -10 10 -10 6 0 10 5 10 10 0 6 -4 10 -10 10 -5 0
-10 -4 -10 -10z"/>
<path d="M3350 585 c0 -8 2 -15 4 -15 2 0 6 7 10 15 3 8 1 15 -4 15 -6 0 -10
-7 -10 -15z"/>
<path d="M3285 570 c3 -5 8 -10 11 -10 2 0 4 5 4 10 0 6 -5 10 -11 10 -5 0 -7
-4 -4 -10z"/>
<path d="M4585 957 c-42 -23 -143 -194 -183 -309 l-20 -57 31 -35 32 -35 225
-10 225 -10 23 26 c19 21 22 33 17 62 -23 129 -93 297 -145 346 -29 27 -36 29
-110 30 -44 0 -87 -3 -95 -8z m183 -20 c44 -28 129 -239 139 -343 5 -57 4 -62
-16 -69 -12 -3 -35 -4 -51 0 -24 5 -32 14 -42 48 -7 23 -31 61 -54 84 -34 36
-47 43 -79 43 -30 0 -44 -7 -70 -35 -18 -19 -41 -55 -50 -80 -17 -42 -20 -45
-56 -45 -47 0 -84 39 -74 79 19 76 116 250 169 302 21 21 33 24 97 24 41 0 80
-4 87 -8z m-42 -293 c43 -43 70 -102 55 -117 -7 -7 -16 3 -28 29 -26 58 -43
74 -77 74 -35 0 -63 -21 -90 -63 -10 -16 -20 -26 -23 -24 -9 10 18 77 44 107
35 42 72 40 119 -6z m-8 -66 c18 -30 11 -48 -13 -28 -12 10 -15 10 -15 -4 0
-10 -8 -16 -22 -15 -26 0 -70 17 -50 18 7 1 11 5 7 11 -10 15 24 46 51 45 16
0 31 -9 42 -27z"/>
<path d="M4650 560 c0 -5 5 -10 10 -10 6 0 10 5 10 10 0 6 -4 10 -10 10 -5 0
-10 -4 -10 -10z"/>
<path d="M5217 943 c-14 -16 -40 -58 -57 -95 -30 -63 -90 -254 -90 -285 0 -24
41 -30 263 -36 l217 -6 20 39 19 38 -23 69 c-61 174 -128 303 -160 303 -8 0
-19 -7 -26 -15 -16 -19 -57 -19 -90 0 -35 20 -43 19 -73 -12z m67 -8 c23 -18
79 -20 107 -4 15 7 24 7 34 -1 19 -16 67 -121 106 -232 30 -86 31 -95 18 -123
-11 -23 -21 -30 -43 -30 -30 0 -33 3 -62 73 -24 60 -65 92 -116 92 -49 0 -88
-37 -107 -102 -16 -52 -24 -58 -77 -58 l-40 0 8 75 c10 95 71 244 126 308 18
20 21 21 46 2z m85 -259 c44 -23 87 -100 71 -126 -7 -11 -11 -9 -18 10 -17 45
-62 81 -96 78 -24 -2 -35 -11 -51 -42 -17 -34 -41 -50 -40 -28 2 30 20 75 40
96 27 29 53 33 94 12z m-5 -81 c6 -11 18 -25 26 -32 12 -10 5 -12 -42 -13 -51
0 -58 2 -58 20 0 11 7 20 15 20 8 0 15 7 15 16 0 21 30 14 44 -11z"/>
<path d="M5340 570 c0 -5 5 -10 10 -10 6 0 10 5 10 10 0 6 -4 10 -10 10 -5 0
-10 -4 -10 -10z"/>
<path d="M4009 954 c-13 -15 -46 -15 -94 1 -14 4 -30 -1 -48 -15 -30 -23 -91
-145 -128 -254 l-23 -68 21 -37 21 -36 198 -12 c299 -17 269 -20 288 27 16 40
15 42 -14 118 -58 148 -152 292 -192 292 -9 0 -21 -7 -29 -16z m77 -56 c44
-51 134 -233 141 -286 6 -47 -20 -75 -67 -70 -28 3 -33 8 -50 57 -21 64 -48
102 -84 119 -23 12 -32 11 -64 -5 -29 -14 -45 -33 -71 -85 -33 -65 -36 -68
-71 -68 -26 0 -43 7 -59 24 l-23 25 21 65 c27 83 85 205 110 233 17 18 28 20
84 16 42 -4 67 -2 71 6 12 18 23 13 62 -31z m-31 -232 c25 -33 49 -116 34
-116 -5 0 -15 12 -21 28 -39 92 -120 97 -150 10 -10 -28 -28 -39 -28 -15 0 6
13 34 28 62 44 80 91 91 137 31z m-40 -44 c6 -4 15 -21 21 -39 l12 -32 -32 6
c-17 3 -34 11 -38 17 -6 8 -11 7 -17 -3 -5 -7 -14 -12 -20 -10 -7 3 -4 16 9
37 19 31 44 40 65 24z"/>
<path d="M3990 613 c0 -14 19 -38 25 -32 8 8 -5 39 -16 39 -5 0 -9 -3 -9 -7z"/>
</g>
</svg>
