<?xml version="1.0" encoding="UTF-8" standalone="no"?>
<svg
   xmlns:dc="http://purl.org/dc/elements/1.1/"
   xmlns:cc="http://creativecommons.org/ns#"
   xmlns:rdf="http://www.w3.org/1999/02/22-rdf-syntax-ns#"
   xmlns:svg="http://www.w3.org/2000/svg"
   xmlns="http://www.w3.org/2000/svg"
   xmlns:sodipodi="http://sodipodi.sourceforge.net/DTD/sodipodi-0.dtd"
   xmlns:inkscape="http://www.inkscape.org/namespaces/inkscape"
   version="1.0"
   width="850.000000pt"
   height="850.000000pt"
   viewBox="0 0 850.000000 850.000000"
   preserveAspectRatio="xMidYMid meet"
   id="svg2"
   inkscape:version="0.91 r13725"
   sodipodi:docname="Florals518_011.svg">
  <defs
     id="defs468" />
  <sodipodi:namedview
     pagecolor="#ffffff"
     bordercolor="#666666"
     borderopacity="1"
     objecttolerance="10"
     gridtolerance="10"
     guidetolerance="10"
     inkscape:pageopacity="0"
     inkscape:pageshadow="2"
     inkscape:window-width="1920"
     inkscape:window-height="980"
     id="namedview466"
     showgrid="false"
     inkscape:zoom="0.88847059"
     inkscape:cx="550.94975"
     inkscape:cy="550.5118"
     inkscape:window-x="0"
     inkscape:window-y="1"
     inkscape:window-maximized="1"
     inkscape:current-layer="svg2" />
  <metadata
     id="metadata4">
Created by potrace 1.14, written by Peter Selinger 2001-2017
<rdf:RDF>
  <cc:Work
     rdf:about="">
    <dc:format>image/svg+xml</dc:format>
    <dc:type
       rdf:resource="http://purl.org/dc/dcmitype/StillImage" />
  </cc:Work>
</rdf:RDF>
</metadata>
  <g
     transform="translate(0.000000,850.000000) scale(0.100000,-0.100000)"
     fill="#000000"
     stroke="none"
     id="g6">
    <path
       d="M0 4250 l0 -4250 4250 0 4250 0 0 4250 0 4250 -4250 0 -4250 0 0 -4250z m6091 3423 c87 -182 100 -218 138 -364 44 -172 61 -286 68 -456 l6 -152 59 53 c33 30 110 81 176 117 64 34 144 80 178 101 34 21 66 38 71 38 28 0 46 -49 84 -231 35 -163 42 -219 46 -351 7 -209 -2 -255 -92 -481 -9 -23 249 132 311 187 67 58 95 31 76 -73 -5 -28 -7 -51 -3 -50 3 0 33 35 67 77 50 64 81 91 182 157 66 44 160 103 208 130 48 28 114 69 147 93 75 55 89 53 100 -18 14 -93 2 -363 -22 -480 -52 -254 -118 -455 -187 -573 -49 -84 -152 -215 -243 -311 -42 -44 -68 -76 -59 -73 39 14 252 47 368 57 69 6 160 18 204 27 76 16 79 16 92 -2 24 -33 22 -36 -143 -238 -34 -42 -104 -147 -156 -234 -92 -153 -202 -296 -252 -329 -37 -24 -30 -33 18 -22 64 15 203 2 402 -38 99 -20 190 -38 202 -40 12 -2 24 -12 28 -23 6 -19 -61 -192 -117 -306 -85 -169 -286 -366 -416 -407 -23 -7 -42 -15 -42 -18 0 -3 34 -22 75 -44 80 -41 210 -136 335 -244 123 -106 480 -461 480 -477 0 -20 -26 -31 -87 -40 -92 -12 -226 -86 -529 -291 -292 -199 -355 -232 -524 -281 -112 -32 -374 -43 -490 -20 -41 8 -76 14 -77 13 -5 -5 116 -149 211 -251 125 -135 184 -209 193 -243 9 -36 -21 -57 -115 -78 -51 -12 -120 -41 -207 -87 -628 -329 -1022 -455 -1475 -473 -167 -7 -277 8 -425 57 -120 40 -180 76 -275 166 -110 103 -219 284 -236 392 -4 23 -9 41 -13 41 -3 0 -16 -19 -29 -42 -73 -140 -258 -300 -482 -418 -170 -90 -256 -154 -333 -246 -67 -78 -101 -139 -118 -210 -22 -93 -42 -84 -65 27 -18 83 -37 124 -104 224 -57 85 -110 188 -139 273 -29 87 -71 249 -71 278 0 13 -2 24 -5 24 -3 0 -45 -32 -93 -71 -110 -88 -272 -171 -402 -203 -52 -13 -160 -31 -240 -40 -543 -62 -710 -104 -919 -231 -67 -40 -96 -44 -112 -14 -16 30 -6 89 35 205 100 285 201 480 312 602 l57 63 -39 -8 c-71 -15 -312 -8 -399 11 -136 31 -409 146 -540 229 -55 34 -179 126 -265 196 -112 91 -213 139 -324 155 -21 3 -49 12 -62 21 -24 16 -32 53 -15 71 5 5 65 122 134 259 190 381 263 495 385 599 65 55 236 142 300 152 23 4 42 7 42 8 0 1 -29 31 -64 68 -108 113 -231 313 -292 474 -12 34 -48 148 -79 254 -74 253 -114 351 -192 467 -38 58 -63 105 -61 117 5 33 49 47 186 57 118 9 151 8 256 -7 l38 -6 -41 51 c-107 136 -166 342 -196 686 -3 39 -13 118 -22 177 -8 59 -13 114 -9 123 4 12 22 15 78 15 172 -1 384 -76 486 -174 41 -40 51 -42 33 -7 -28 52 -53 190 -66 369 -8 107 -22 241 -30 300 -16 110 -14 152 11 173 12 9 25 4 72 -28 31 -23 135 -79 229 -127 95 -47 205 -107 244 -132 50 -32 69 -40 64 -27 -16 37 -17 276 -2 348 33 156 69 300 78 312 15 18 32 8 158 -86 134 -100 193 -159 224 -221 l22 -45 7 105 c6 110 46 285 73 327 10 14 21 21 28 16 7 -4 38 -24 69 -44 32 -20 109 -58 170 -84 62 -26 121 -54 131 -63 9 -8 19 -13 20 -11 5 6 67 421 67 446 0 34 31 45 66 24 56 -34 423 -435 424 -463 0 -5 3 -8 8 -8 4 0 5 30 4 66 -5 88 12 176 58 309 138 399 135 390 158 393 35 5 108 -48 208 -150 129 -132 214 -267 255 -405 6 -24 15 -43 18 -43 3 0 26 56 49 125 24 68 74 205 110 302 61 163 69 178 93 181 15 2 32 -5 42 -16 10 -10 53 -96 96 -190 44 -94 110 -228 147 -298 l68 -128 12 60 c17 85 46 152 110 257 31 50 79 129 106 175 65 109 75 109 177 4 140 -144 239 -354 266 -565 l6 -48 51 83 c114 189 221 302 535 565 99 84 205 179 234 212 30 33 62 61 71 61 13 0 37 -41 89 -147z"
       id="path8"
       style="fill:none" />
    <path
       d="M5990 7668 c0 -105 21 -443 31 -512 6 -39 13 -143 15 -231 3 -143 7 -169 31 -240 l28 -80 13 65 c7 36 13 142 15 235 2 186 -8 260 -77 568 -20 88 -36 179 -36 203 0 24 -4 44 -10 44 -5 0 -10 -24 -10 -52z"
       id="path10"
       style="fill:#cc99cc" />
    <path
       d="M5925 7670 c-3 -5 -85 -76 -183 -157 -378 -317 -465 -418 -656 -767 -147 -267 -233 -476 -276 -671 -19 -87 -23 -134 -24 -350 -2 -137 -6 -272 -10 -300 -5 -37 9 -7 52 110 32 88 73 192 90 231 39 87 71 178 112 314 58 194 132 404 167 474 47 94 133 232 212 341 75 104 183 256 294 414 43 61 107 159 143 219 35 59 72 117 80 130 9 12 14 22 11 22 -3 0 -9 -4 -12 -10z"
       id="path12"
       style="fill:#cc99ff" />
    <path
       d="M6024 7650 c3 -19 14 -75 25 -125 11 -49 29 -128 40 -175 47 -209 64 -358 57 -500 -4 -74 -11 -153 -17 -175 -6 -22 -13 -143 -15 -270 l-5 -230 35 75 c81 175 112 347 103 575 -11 277 -73 549 -168 740 -43 87 -58 110 -55 85z"
       id="path14"
       style="fill:#9999cc" />
    <path
       d="M5919 7612 c-19 -31 -53 -86 -74 -122 -45 -76 -257 -384 -358 -518 -173 -233 -280 -417 -341 -587 -58 -164 -119 -365 -112 -372 3 -4 6 -1 6 6 0 7 16 40 35 72 19 33 65 135 101 227 123 315 277 577 498 851 124 153 153 195 201 291 39 77 88 200 83 206 -2 1 -19 -23 -39 -54z"
       id="path16"
       style="fill:#9999cc" />
    <path
       d="M5951 7590 c-46 -129 -123 -260 -231 -394 -174 -217 -273 -365 -399 -599 -51 -94 -155 -337 -147 -344 2 -2 28 29 58 69 79 104 205 235 311 325 109 91 286 209 330 221 42 11 87 -2 115 -33 19 -23 23 -24 29 -10 8 21 -3 253 -17 360 -6 44 -14 168 -18 275 l-7 195 -24 -65z"
       id="path18"
       style="fill:#cc99ff" />
    <path
       d="M4096 7558 c9 -50 127 -361 209 -553 161 -378 210 -598 296 -1340 16 -130 5 -578 -15 -684 -18 -93 -15 -112 8 -57 8 20 17 36 20 36 3 0 16 -19 28 -42 l23 -43 7 145 c5 80 17 201 28 270 53 324 42 658 -31 955 -70 280 -154 495 -346 880 -60 121 -134 273 -163 338 -55 123 -74 151 -64 95z"
       id="path20"
       style="fill:#ccccff" />
    <path
       d="M3374 7553 c21 -69 98 -396 125 -530 24 -124 35 -204 61 -428 21 -187 59 -468 64 -473 2 -1 9 59 15 134 16 178 57 374 116 553 l47 144 -37 101 c-69 187 -131 282 -283 429 -90 85 -119 104 -108 70z"
       id="path22"
       style="fill:#9999cc" />
    <path
       d="M4046 7478 c-176 -468 -282 -789 -326 -993 -40 -181 -62 -627 -41 -825 18 -164 117 -565 145 -582 18 -12 21 -9 23 29 1 20 9 43 17 51 14 14 18 14 41 -8 14 -13 30 -38 37 -57 7 -18 15 -33 19 -33 19 0 13 93 -13 194 -92 367 -131 725 -110 999 14 178 27 256 76 462 91 380 119 496 136 582 20 94 37 253 28 253 -3 0 -17 -33 -32 -72z"
       id="path24"
       style="fill:#cc99ff" />
    <path
       d="M3364 7480 c3 -30 11 -138 16 -240 12 -245 18 -321 36 -470 30 -252 108 -625 164 -785 l39 -110 0 55 c0 30 -6 100 -14 155 -8 55 -19 129 -24 165 -6 36 -22 169 -36 295 -40 363 -57 466 -115 710 -17 72 -38 161 -46 200 -19 86 -29 99 -20 25z"
       id="path26"
       style="fill:#cc99cc" />
    <path
       d="M4755 7455 c3 -38 8 -96 11 -128 3 -33 5 -327 5 -655 l1 -597 23 92 c40 159 96 301 191 491 l91 184 -19 105 c-35 194 -127 386 -245 512 l-63 66 5 -70z"
       id="path28"
       style="fill:#9999cc" />
    <path
       d="M3330 7497 c0 -8 -22 -70 -49 -138 -96 -245 -105 -279 -105 -424 l-1 -130 64 -120 c35 -66 87 -156 114 -200 28 -44 68 -117 90 -163 41 -86 54 -100 37 -41 -16 55 -68 353 -84 479 -13 104 -23 246 -42 623 -3 70 -10 127 -15 127 -5 0 -9 -6 -9 -13z"
       id="path30"
       style="fill:#9999cc" />
    <path
       d="M4631 7362 c-102 -163 -138 -247 -151 -346 -9 -74 -9 -75 29 -158 21 -46 51 -117 67 -158 l29 -74 12 144 c7 80 33 268 58 418 26 150 45 281 43 291 -2 12 -33 -30 -87 -117z"
       id="path32"
       style="fill:#9999cc" />
    <path
       d="M4731 7443 c0 -17 -15 -114 -31 -215 -17 -101 -35 -210 -40 -243 -14 -90 -30 -269 -30 -348 0 -49 9 -98 31 -169 17 -55 44 -150 59 -211 l29 -112 3 330 c4 424 -1 861 -11 939 -5 34 -9 47 -10 29z"
       id="path34"
       style="fill:#cc99cc" />
    <path
       d="M4087 7430 c-4 -14 -7 -37 -7 -52 0 -28 -49 -253 -106 -488 -90 -368 -110 -486 -120 -706 -11 -244 27 -559 108 -893 24 -101 35 -130 59 -154 l29 -29 0 29 c0 45 20 103 35 103 8 0 21 -10 30 -22 17 -23 17 -23 11 7 -103 526 -124 665 -138 913 -15 287 6 547 72 884 20 102 45 365 38 409 l-3 24 -8 -25z"
       id="path36"
       style="fill:#ccccff" />
    <path
       d="M4116 7389 c-3 -17 -6 -66 -6 -108 0 -73 -12 -163 -45 -341 -53 -286 -71 -553 -56 -812 12 -211 30 -338 101 -710 28 -144 50 -263 50 -267 0 -3 18 27 40 67 23 39 45 72 51 72 7 0 8 -40 3 -119 -4 -80 -3 -124 4 -137 11 -18 11 -18 12 3 0 29 10 53 22 53 5 0 16 -16 24 -35 8 -19 15 -35 17 -35 1 0 1 51 -1 114 -4 97 -1 125 18 182 23 73 74 179 89 189 6 3 13 -11 17 -32 4 -21 11 -45 16 -53 17 -27 0 236 -26 415 -14 94 -32 231 -41 305 -16 146 -57 385 -82 490 -16 65 -87 315 -124 440 -40 132 -79 285 -76 300 2 8 7 2 11 -15 14 -57 76 -271 116 -400 81 -259 141 -530 170 -760 27 -212 61 -451 67 -465 3 -8 9 -175 13 -370 6 -308 9 -362 25 -404 22 -60 26 -53 46 79 9 60 14 179 14 355 0 242 -3 287 -33 515 -79 598 -113 739 -272 1115 -43 102 -94 232 -114 290 -20 57 -38 106 -40 107 -2 2 -6 -11 -10 -28z"
       id="path38"
       style="fill:#cc99ff" />
    <path
       d="M2670 7218 c0 -13 -9 -78 -20 -144 -40 -242 -52 -363 -57 -607 -6 -262 1 -354 39 -522 38 -166 71 -241 154 -345 97 -122 187 -256 230 -343 39 -76 53 -84 29 -16 -62 174 -215 878 -250 1149 -9 69 -25 179 -35 245 -11 66 -26 188 -35 270 -25 248 -37 335 -46 335 -5 0 -9 -10 -9 -22z"
       id="path40"
       style="fill:#cc99ff" />
    <path
       d="M2740 7227 c0 -18 78 -160 150 -272 387 -600 500 -845 565 -1220 23 -135 44 -322 56 -500 12 -190 15 -209 30 -182 16 28 47 20 76 -21 l28 -38 -2 259 c-2 187 -7 284 -19 350 -53 299 -176 626 -337 894 -36 59 -81 140 -100 179 -68 135 -167 264 -356 464 -50 52 -90 92 -91 87z"
       id="path42"
       style="fill:#ccccff" />
    <path
       d="M2721 7180 c0 -8 4 -44 9 -80 5 -36 14 -121 20 -190 6 -69 24 -215 40 -325 16 -110 32 -225 35 -255 14 -115 116 -621 166 -825 48 -194 114 -415 141 -475 17 -36 57 -123 90 -195 33 -71 66 -148 73 -170 12 -35 14 -37 14 -12 1 15 -8 68 -19 118 -27 120 -29 179 -8 192 14 10 14 14 -3 54 -41 97 -183 580 -227 778 -12 50 -46 216 -76 370 -31 154 -78 363 -105 465 -27 102 -68 261 -91 354 -42 170 -58 224 -59 196z"
       id="path44"
       style="fill:#ccccff" />
    <path
       d="M2841 6828 c28 -106 66 -254 85 -328 19 -74 55 -244 79 -379 95 -514 265 -1108 341 -1193 36 -40 74 -108 74 -132 0 -8 5 -18 11 -22 13 -8 8 147 -17 501 -31 442 -87 681 -249 1060 -53 125 -83 182 -203 380 -46 77 -101 177 -123 223 -22 45 -41 82 -43 82 -3 0 18 -87 45 -192z"
       id="path46"
       style="fill:#cc99ff" />
    <path
       d="M2200 6976 c0 -31 71 -208 166 -413 51 -111 112 -246 135 -300 23 -54 42 -99 43 -100 0 -1 -1 78 -2 175 -4 173 -4 177 -34 236 -17 34 -43 79 -58 102 -21 30 -221 285 -246 313 -2 2 -4 -3 -4 -13z"
       id="path48"
       style="fill:#ccccff" />
    <path
       d="M2168 6974 c-3 -5 -14 -45 -24 -89 -36 -155 -21 -417 34 -570 46 -129 65 -157 184 -265 62 -56 148 -138 191 -183 44 -45 76 -73 72 -62 -4 11 -21 76 -37 145 -38 159 -67 234 -199 510 -122 256 -185 403 -203 474 -7 27 -15 45 -18 40z"
       id="path50"
       style="fill:#6699cc" />
    <path
       d="M2850 6972 c0 -6 36 -74 81 -149 45 -76 108 -184 141 -241 151 -261 289 -668 332 -977 26 -192 59 -731 50 -830 -2 -27 -1 -86 3 -130 l8 -79 18 28 c17 26 18 37 8 121 -12 101 -14 195 -5 195 3 0 14 -5 25 -10 18 -10 19 -8 14 27 -15 113 -26 224 -35 358 -12 167 -41 380 -70 526 -58 287 -155 504 -405 909 -144 234 -165 265 -165 252z"
       id="path52"
       style="fill:#9999cc" />
    <path
       d="M2281 6931 c8 -11 53 -71 102 -134 48 -63 103 -142 121 -177 l34 -63 6 84 c4 46 9 105 12 131 6 46 5 46 -38 72 -24 13 -81 39 -128 56 -47 17 -89 35 -94 41 -18 17 -29 9 -15 -10z"
       id="path54"
       style="fill:#6699cc" />
    <path
       d="M6745 6883 c-67 -129 -227 -349 -350 -483 -95 -103 -215 -250 -215 -263 0 -19 134 96 225 193 168 180 210 239 301 427 46 95 84 175 84 178 0 19 -20 -4 -45 -52z"
       id="path56"
       style="fill:#ccccff" />
    <path
       d="M6599 6851 c-249 -131 -290 -170 -309 -297 -17 -109 -54 -233 -100 -331 -21 -46 -37 -83 -36 -83 2 0 26 30 53 68 27 37 103 126 169 198 65 72 156 182 201 245 83 116 178 268 172 273 -2 2 -70 -31 -150 -73z"
       id="path58"
       style="fill:#9999cc" />
    <path
       d="M1700 6917 c0 -4 29 -68 65 -143 78 -163 141 -260 270 -414 129 -154 128 -152 99 -81 -14 34 -31 94 -39 134 -22 114 -72 232 -124 290 -25 27 -91 84 -146 125 -55 41 -106 79 -112 84 -7 6 -13 8 -13 5z"
       id="path60"
       style="fill:#66ccff" />
    <path
       d="M6725 6757 c-72 -159 -125 -241 -239 -370 -85 -95 -86 -97 -45 -77 55 29 83 20 118 -35 49 -77 65 -174 57 -347 -4 -82 -10 -157 -13 -166 -12 -35 140 125 164 173 14 28 42 95 61 150 33 94 35 109 39 260 5 146 3 171 -22 285 -14 69 -31 155 -37 193 -6 37 -13 67 -17 67 -3 -1 -33 -60 -66 -133z"
       id="path62"
       style="fill:#66ccff" />
    <path
       d="M1652 6757 c-47 -199 -53 -297 -23 -420 l18 -77 122 -118 c66 -65 121 -124 121 -130 0 -7 4 -12 9 -12 11 0 5 79 -16 205 -9 57 -27 116 -48 160 -54 113 -104 255 -130 370 -13 59 -26 109 -27 111 -2 1 -14 -38 -26 -89z"
       id="path64"
       style="fill:#66ccff" />
    <path
       d="M1701 6845 c-1 -54 70 -285 129 -422 21 -49 24 -52 51 -46 31 6 93 -25 166 -83 23 -19 44 -34 47 -34 3 0 -37 50 -90 111 -113 131 -163 206 -244 366 -32 65 -59 114 -59 108z"
       id="path66"
       style="fill:#9999cc" />
    <path
       d="M5787 6756 c-123 -77 -198 -137 -316 -251 -288 -279 -424 -517 -646 -1129 -93 -258 -143 -449 -92 -349 8 15 27 39 41 52 37 35 51 18 35 -43 -6 -26 -9 -49 -7 -52 3 -2 17 43 32 102 80 304 250 583 536 879 74 77 156 165 181 195 108 129 214 314 279 484 23 60 48 122 56 138 22 42 1 37 -99 -26z"
       id="path68"
       style="fill:#99ccff" />
    <path
       d="M5936 6658 c-12 -243 -50 -430 -140 -693 -86 -252 -158 -408 -285 -619 -39 -65 -80 -135 -91 -156 -27 -52 -103 -440 -87 -440 3 0 11 17 18 38 34 107 163 403 259 597 115 232 203 373 310 500 113 133 119 146 131 270 12 129 4 361 -17 455 -15 66 -63 171 -81 177 -6 2 -12 -47 -17 -129z"
       id="path70"
       style="fill:#99ccff" />
    <path
       d="M5916 6769 c-95 -275 -191 -481 -300 -649 -69 -106 -118 -167 -281 -350 -263 -297 -347 -439 -395 -675 -10 -49 -17 -91 -15 -93 2 -2 27 46 56 107 28 61 55 111 59 111 10 0 20 -37 20 -72 0 -14 -9 -70 -20 -125 -25 -120 -50 -269 -50 -303 0 -21 4 -18 19 16 23 51 38 61 59 40 13 -13 17 -34 15 -91 0 -43 3 -73 8 -69 5 3 9 17 9 31 0 30 29 144 40 158 4 6 11 39 15 75 4 36 18 99 32 140 41 126 83 193 323 520 176 238 238 401 339 885 22 105 49 226 61 269 11 44 18 81 15 84 -2 3 -7 -1 -9 -9z"
       id="path72"
       style="fill:#99ccff" />
    <path
       d="M5881 6738 c-16 -43 -22 -68 -18 -68 3 0 12 20 20 45 16 45 14 65 -2 23z"
       id="path74" />
    <path
       d="M5872 6450 c-101 -502 -165 -677 -327 -900 -258 -356 -293 -411 -330 -517 -37 -105 -49 -197 -33 -256 l12 -49 22 110 c29 148 98 292 139 292 8 0 23 20 34 45 11 24 53 99 94 167 145 240 197 352 293 626 71 201 108 348 129 507 28 217 13 205 -33 -25z"
       id="path76"
       style="fill:#cc99ff" />
    <path
       d="M5820 6573 c-15 -47 -118 -236 -171 -314 -59 -87 -130 -170 -274 -319 -275 -284 -433 -545 -519 -856 -14 -50 -28 -99 -32 -110 -6 -16 -3 -15 16 4 38 40 46 16 32 -95 -18 -148 -15 -293 7 -293 4 0 4 32 0 72 -5 40 -4 104 2 147 5 42 14 114 20 160 38 324 114 468 445 841 146 165 201 233 268 339 89 139 237 443 222 458 -2 2 -9 -13 -16 -34z"
       id="path78"
       style="fill:#cc99ff" />
    <path
       d="M1010 6546 c0 -24 71 -155 136 -249 90 -131 151 -208 264 -332 111 -122 200 -242 310 -421 106 -171 153 -262 170 -323 6 -24 13 -41 15 -40 2 2 -1 80 -6 174 -10 163 -11 172 -41 225 -82 147 -158 238 -406 494 -140 143 -289 304 -332 356 -75 92 -110 129 -110 116z"
       id="path80"
       style="fill:#9999cc" />
    <path
       d="M1120 6470 c31 -44 247 -277 425 -460 165 -169 204 -217 288 -354 l62 -101 8 168 c8 168 8 169 -17 210 -45 78 -280 293 -404 371 -35 22 -337 179 -376 195 -5 2 1 -11 14 -29z"
       id="path82"
       style="fill:#66ccff" />
    <path
       d="M1014 6433 c2 -10 7 -27 10 -38 3 -11 10 -92 16 -180 12 -176 32 -297 60 -380 32 -92 131 -275 192 -354 136 -177 139 -180 241 -231 141 -70 264 -170 354 -287 58 -76 68 -85 59 -55 -3 10 -12 65 -20 122 -23 172 -91 314 -287 605 -77 114 -162 219 -301 370 -100 108 -251 313 -294 398 -24 47 -40 62 -30 30z"
       id="path84"
       style="fill:#66ccff" />
    <path
       d="M7823 6406 c-47 -40 -141 -173 -218 -311 -37 -66 -110 -196 -163 -290 -88 -157 -169 -320 -292 -585 -44 -95 -106 -277 -98 -285 4 -4 15 14 223 370 65 110 159 263 210 340 127 194 179 281 241 406 71 141 136 314 132 352 l-3 30 -32 -27z"
       id="path86"
       style="fill:#66ccff" />
    <path
       d="M7598 6271 c-185 -114 -233 -150 -304 -232 -103 -119 -102 -117 -115 -279 -6 -80 -24 -236 -38 -347 -15 -112 -25 -203 -22 -203 3 0 17 26 30 58 105 247 476 919 584 1055 16 21 28 39 26 41 -2 1 -74 -41 -161 -93z"
       id="path88"
       style="fill:#9999cc" />
    <path
       d="M7831 6245 c-65 -174 -158 -346 -331 -615 -47 -74 -137 -223 -200 -330 -124 -214 -208 -354 -250 -415 -15 -22 -40 -62 -55 -90 l-28 -50 59 56 c60 58 147 120 219 157 78 40 317 309 408 459 104 171 223 635 215 840 l-3 78 -34 -90z"
       id="path90"
       style="fill:#9999cc" />
    <path
       d="M1920 6302 c0 -5 11 -19 25 -32 45 -42 101 -121 195 -275 117 -190 210 -320 370 -515 338 -412 472 -663 557 -1045 6 -29 7 -29 13 13 6 42 21 62 47 62 18 0 51 -47 58 -83 23 -106 37 -1 19 136 -8 60 -12 117 -9 127 8 24 -72 236 -132 354 -50 96 -249 399 -355 539 -199 263 -298 366 -538 553 -207 161 -250 190 -250 166z"
       id="path92"
       style="fill:#99ccff" />
    <path
       d="M6375 6201 c-68 -39 -368 -321 -430 -403 -160 -213 -397 -670 -522 -1008 -88 -239 -91 -279 -30 -405 l43 -89 33 91 c44 123 81 184 254 416 247 333 410 620 527 932 76 204 171 437 187 460 30 44 8 46 -62 6z"
       id="path94"
       style="fill:#99ccff" />
    <path
       d="M6451 6193 c-17 -36 -120 -293 -206 -518 -97 -255 -282 -585 -464 -829 -215 -289 -250 -344 -293 -466 -27 -74 -37 -129 -31 -162 l5 -28 27 38 c15 20 44 66 64 100 21 35 92 137 159 225 222 295 399 582 494 802 63 145 146 389 194 570 30 113 70 249 85 288 14 34 -15 17 -34 -20z"
       id="path96"
       style="fill:#cc99ff" />
    <path
       d="M6467 6098 c-19 -62 -49 -167 -67 -233 -142 -522 -301 -835 -687 -1347 -73 -98 -133 -180 -133 -183 0 -2 18 5 39 16 32 16 44 18 60 9 42 -22 16 -95 -94 -255 -96 -139 -115 -196 -115 -339 0 -63 3 -128 6 -146 7 -31 8 -30 39 46 43 106 113 245 166 330 88 140 314 429 432 552 107 111 130 142 185 243 34 64 80 167 101 230 100 293 182 821 161 1029 -8 76 -29 142 -49 154 -6 4 -23 -36 -44 -106z"
       id="path98"
       style="fill:#99ccff" />
    <path
       d="M1962 6195 c10 -33 248 -488 303 -580 36 -60 126 -195 200 -300 295 -417 385 -567 456 -760 18 -49 45 -106 60 -125 15 -19 37 -55 50 -79 71 -138 8 169 -78 379 -95 229 -209 414 -403 650 -169 207 -208 257 -291 375 -46 67 -120 180 -164 253 -68 114 -143 219 -133 187z"
       id="path100"
       style="fill:#cc99ff" />
    <path
       d="M7115 6053 c-101 -66 -274 -321 -448 -658 -68 -132 -168 -325 -223 -430 l-98 -190 72 65 c84 75 161 189 399 590 131 221 202 331 264 407 56 68 60 75 70 149 6 43 13 82 15 86 10 15 -11 7 -51 -19z"
       id="path102"
       style="fill:#66ccff" />
    <path
       d="M1976 5992 c4 -30 1 -189 -6 -354 -31 -694 33 -979 348 -1553 108 -199 201 -345 274 -431 24 -29 99 -119 168 -200 69 -82 133 -160 143 -174 20 -28 20 -27 -18 75 -30 79 -59 265 -51 325 5 35 -1 71 -23 150 -40 142 -37 136 -257 550 -312 589 -327 633 -540 1525 -31 127 -47 166 -38 87z"
       id="path104"
       style="fill:#99ccff" />
    <path
       d="M6876 5915 c-123 -74 -206 -141 -252 -200 -21 -28 -30 -61 -50 -177 -28 -169 -70 -366 -91 -426 -8 -24 -13 -46 -10 -48 2 -2 68 124 147 281 143 287 218 415 324 559 32 43 56 79 54 80 -2 1 -57 -30 -122 -69z"
       id="path106"
       style="fill:#9999cc" />
    <path
       d="M2063 5919 c3 -9 24 -86 46 -172 43 -167 79 -264 171 -472 58 -131 190 -381 270 -510 208 -338 334 -598 358 -738 l7 -40 38 64 c48 80 46 108 -19 246 -49 103 -68 182 -43 184 8 1 20 1 27 0 16 -2 17 -8 -17 81 -71 184 -150 315 -394 656 -194 270 -291 421 -385 602 -52 101 -72 133 -59 99z"
       id="path108"
       style="fill:#99ccff" />
    <path
       d="M590 5903 c57 -40 188 -176 273 -283 50 -63 115 -138 144 -166 51 -50 56 -52 175 -82 68 -16 131 -33 142 -38 10 -4 -13 33 -52 82 -38 49 -86 118 -106 154 -54 99 -167 209 -258 253 -83 40 -217 82 -293 91 -50 7 -50 7 -25 -11z"
       id="path110"
       style="fill:#9999cc" />
    <path
       d="M581 5844 c17 -26 61 -108 96 -183 72 -150 154 -301 165 -301 4 0 8 19 10 41 4 60 23 68 89 40 30 -13 61 -25 69 -28 8 -3 -10 21 -41 53 -31 32 -90 100 -132 150 -77 93 -262 274 -279 274 -5 0 5 -21 23 -46z"
       id="path112"
       style="fill:#99ccff" />
    <path
       d="M524 5840 c3 -25 12 -113 21 -195 30 -304 65 -457 135 -582 63 -113 127 -173 263 -247 64 -36 117 -62 117 -60 0 3 -13 24 -29 47 -62 92 -131 267 -167 429 -11 52 -30 95 -64 148 -26 41 -91 161 -144 265 -52 105 -105 201 -117 215 l-21 25 6 -45z"
       id="path114"
       style="fill:#9999cc" />
    <path
       d="M7074 5793 c-68 -91 -188 -277 -254 -393 -29 -52 -100 -171 -157 -264 -57 -93 -102 -170 -100 -172 2 -2 19 7 38 20 59 40 268 146 288 146 79 0 102 -96 61 -255 -11 -43 -18 -80 -15 -83 2 -3 8 4 11 14 4 10 14 35 22 54 38 91 73 227 91 350 40 274 51 361 61 487 6 70 12 136 14 146 7 31 -8 18 -60 -50z"
       id="path116"
       style="fill:#66ccff" />
    <path
       d="M2071 5795 c-1 -6 15 -71 34 -145 19 -74 49 -191 65 -260 83 -335 134 -462 404 -994 176 -349 228 -460 246 -530 l24 -88 16 58 c9 33 23 75 32 94 12 30 13 44 2 95 -30 143 -152 399 -311 655 -218 351 -401 733 -467 975 -32 117 -44 154 -45 140z"
       id="path118"
       style="fill:#cc99ff" />
    <path
       d="M4407 5393 c-51 -115 -60 -167 -54 -294 3 -65 12 -132 20 -151 8 -19 40 -63 72 -99 70 -77 91 -122 106 -223 10 -69 36 -126 57 -126 14 0 7 116 -9 141 -23 36 -47 105 -63 184 -9 39 -25 97 -37 130 -20 52 -23 82 -24 220 -1 117 -6 175 -19 218 -9 31 -18 57 -20 57 -2 0 -15 -26 -29 -57z"
       id="path120"
       style="fill:#ffff00" />
    <path
       d="M900 5377 c0 -19 70 -108 140 -177 42 -41 146 -127 231 -191 84 -64 235 -181 334 -260 100 -79 227 -180 284 -224 57 -44 135 -106 172 -138 38 -32 69 -56 69 -53 0 21 -70 144 -112 195 -62 77 -221 205 -383 309 -147 94 -507 341 -592 406 -34 25 -80 68 -102 94 -23 26 -41 43 -41 39z"
       id="path122"
       style="fill:#6699cc" />
    <path
       d="M950 5370 c0 -28 202 -177 635 -468 219 -148 333 -236 411 -319 l51 -55 -42 126 c-44 131 -60 161 -143 264 -127 159 -286 259 -541 341 -256 82 -371 117 -371 111z"
       id="path124"
       style="fill:#66ccff" />
    <path
       d="M3701 5215 c-1 -104 2 -124 19 -150 11 -16 20 -40 20 -52 0 -13 6 -23 13 -23 21 0 13 125 -16 220 -14 47 -27 94 -30 105 -3 11 -5 -34 -6 -100z"
       id="path126"
       style="fill:#ffcc33" />
    <path
       d="M904 5295 c46 -193 93 -328 148 -424 39 -68 163 -195 238 -244 46 -29 71 -37 145 -47 171 -23 394 -90 546 -164 51 -26 53 -26 28 -4 -14 13 -106 84 -203 158 -98 74 -219 168 -269 208 -51 39 -146 111 -212 159 -204 148 -309 240 -405 353 -18 22 -20 22 -16 5z"
       id="path128"
       style="fill:#66ccff" />
    <path
       d="M4207 5183 c-43 -97 -50 -136 -37 -216 12 -78 14 -82 38 -82 13 0 21 -16 30 -60 26 -115 42 -162 64 -191 l23 -29 6 65 c5 48 3 69 -7 80 -27 31 -54 109 -63 181 -5 41 -14 92 -20 114 -5 22 -7 74 -4 117 3 43 4 78 1 78 -3 0 -17 -26 -31 -57z"
       id="path130"
       style="fill:#ff6600" />
    <path
       d="M4074 5174 c-3 -25 -5 -98 -2 -163 3 -104 7 -124 32 -176 l29 -58 20 38 c18 36 18 41 4 94 -9 31 -19 95 -22 143 -5 84 -28 168 -45 168 -5 0 -12 -20 -16 -46z"
       id="path132"
       style="fill:#ffcc00" />
    <path
       d="M4982 5065 c-62 -135 -77 -191 -87 -309 -6 -65 -5 -87 4 -82 6 4 11 24 11 45 0 43 20 76 46 76 14 0 20 14 30 70 7 39 19 97 28 129 15 58 33 186 25 186 -2 0 -28 -52 -57 -115z"
       id="path134"
       style="fill:#ffcc00" />
    <path
       d="M3877 5133 c-13 -12 -7 -74 12 -131 35 -102 61 -206 61 -240 l0 -33 25 18 c13 10 25 28 25 40 0 28 -36 182 -61 259 -19 60 -49 101 -62 87z"
       id="path136"
       style="fill:#ffcc00" />
    <path
       d="M3996 5123 c-12 -12 -6 -138 14 -272 10 -73 21 -135 24 -138 2 -2 13 0 24 6 12 6 34 11 51 11 36 0 38 8 11 43 -36 46 -60 114 -71 199 -14 116 -33 171 -53 151z"
       id="path138"
       style="fill:#ffcc33" />
    <path
       d="M5320 5054 c-87 -137 -114 -403 -60 -583 12 -40 44 -121 72 -180 28 -58 56 -126 62 -151 l13 -45 17 34 c28 52 16 104 -53 243 -50 100 -63 138 -73 205 -14 99 -2 237 37 407 14 60 23 112 20 114 -2 2 -18 -18 -35 -44z"
       id="path140"
       style="fill:#ffff00" />
    <path
       d="M4762 5036 c-52 -76 -72 -239 -38 -304 26 -51 31 -44 28 43 -3 73 14 181 44 278 9 28 -9 19 -34 -17z"
       id="path142"
       style="fill:#ffcc00" />
    <path
       d="M3686 4978 c4 -46 7 -99 6 -118 0 -19 2 -60 5 -90 l6 -55 14 70 c21 104 3 275 -29 275 -7 0 -8 -27 -2 -82z"
       id="path144"
       style="fill:#ff9933" />
    <path
       d="M3790 5045 c-11 -13 -6 -34 30 -123 38 -92 44 -117 44 -182 1 -41 6 -78 11 -82 36 -27 60 27 50 109 -12 100 -87 293 -114 293 -5 0 -14 -7 -21 -15z"
       id="path146"
       style="fill:#ff6600" />
    <path
       d="M6848 5019 c-47 -39 -398 -454 -594 -699 -165 -207 -278 -371 -653 -943 l-71 -108 46 33 c67 48 218 240 420 535 327 478 552 764 769 979 114 113 143 148 149 176 6 35 0 68 -13 68 -3 0 -27 -18 -53 -41z"
       id="path148"
       style="fill:#ccccff" />
    <path
       d="M3556 5041 c-11 -16 59 -186 102 -251 l23 -34 -6 44 c-12 88 -38 171 -66 210 -29 40 -43 48 -53 31z"
       id="path150"
       style="fill:#ffcc00" />
    <path
       d="M6720 4988 c-142 -82 -180 -112 -376 -291 -193 -178 -308 -303 -460 -501 -157 -205 -208 -285 -284 -441 -85 -174 -98 -220 -110 -371 -5 -66 -12 -128 -16 -137 -24 -63 55 45 201 278 239 379 419 636 619 885 190 237 494 596 518 612 12 9 21 18 18 21 -3 3 -52 -22 -110 -55z"
       id="path152"
       style="fill:#6699cc" />
    <path
       d="M4287 4997 c-15 -105 33 -235 104 -281 49 -33 84 -80 100 -136 12 -43 32 -70 52 -70 5 0 6 8 2 18 -4 9 -12 44 -16 77 -16 105 -35 146 -114 240 -41 49 -82 109 -91 134 -24 65 -30 68 -37 18z"
       id="path154"
       style="fill:#ffcc00" />
    <path
       d="M7895 5006 c-330 -122 -776 -431 -1025 -712 -193 -218 -277 -308 -364 -396 -48 -49 -84 -88 -81 -88 32 0 210 115 365 235 284 220 542 425 653 517 209 175 266 221 361 291 95 71 171 139 187 170 13 22 10 22 -96 -17z"
       id="path156"
       style="fill:#99ccff" />
    <path
       d="M7805 5020 c-27 -4 -99 -13 -159 -20 -142 -16 -303 -53 -373 -85 -193 -88 -392 -297 -507 -532 -71 -144 -198 -361 -258 -441 -22 -30 -38 -55 -36 -57 4 -4 195 204 308 335 262 305 532 518 901 713 69 37 133 67 141 67 8 0 23 7 34 15 21 16 21 16 -51 5z"
       id="path158"
       style="fill:#9999cc" />
    <path
       d="M3536 4965 c3 -33 13 -78 21 -100 8 -22 20 -60 27 -84 l12 -44 12 41 c12 38 11 46 -14 94 -15 29 -35 76 -45 103 l-19 50 6 -60z"
       id="path160"
       style="fill:#ffcc66" />
    <path
       d="M4843 4957 c-31 -33 -50 -76 -64 -145 -11 -53 -11 -74 4 -150 9 -49 18 -111 18 -138 1 -27 4 -38 6 -24 2 14 11 45 20 69 11 31 14 60 9 105 -4 41 1 99 14 180 11 65 19 121 17 122 -2 2 -13 -6 -24 -19z"
       id="path162"
       style="fill:#ff6600" />
    <path
       d="M3750 4925 c0 -33 4 -45 15 -45 28 0 48 -47 42 -98 -2 -26 -8 -54 -11 -63 -5 -11 -1 -18 13 -22 12 -3 21 -13 21 -22 0 -9 5 -13 10 -10 23 14 10 116 -27 211 -41 104 -63 121 -63 49z"
       id="path164"
       style="fill:#ffcc00" />
    <path
       d="M3290 4913 c0 -11 11 -75 25 -141 39 -188 31 -399 -20 -510 -25 -55 -33 -112 -15 -112 6 0 10 16 10 36 0 37 15 74 30 74 5 0 16 -7 25 -16 9 -9 18 -15 20 -13 10 10 57 264 62 335 5 67 2 94 -17 155 -25 85 -62 158 -96 190 -24 22 -24 22 -24 2z"
       id="path166"
       style="fill:#ffff00" />
    <path
       d="M4594 4875 c-20 -55 -15 -154 11 -204 9 -18 43 -62 76 -97 32 -35 59 -71 59 -79 0 -10 7 -15 18 -13 14 3 17 14 16 65 -1 52 -7 71 -43 134 -23 40 -56 108 -72 151 -17 43 -34 80 -39 83 -4 3 -16 -15 -26 -40z"
       id="path168"
       style="fill:#ffff00" />
    <path
       d="M6825 4841 c-149 -121 -463 -515 -815 -1021 -90 -129 -201 -281 -247 -337 -46 -56 -83 -105 -83 -107 0 -3 44 21 98 53 53 31 142 82 197 111 266 143 382 256 573 562 139 221 221 398 306 656 21 61 36 117 34 122 -2 6 -30 -12 -63 -39z"
       id="path170"
       style="fill:#66ccff" />
    <path
       d="M405 4871 l-50 -6 70 -23 c132 -44 261 -118 383 -220 49 -41 54 -43 71 -28 16 14 34 15 166 6 81 -6 149 -9 152 -7 12 12 -277 180 -412 239 -101 44 -226 57 -380 39z"
       id="path172"
       style="fill:#66ccff" />
    <path
       d="M3503 4809 c19 -211 27 -283 35 -291 12 -12 32 114 32 199 0 72 -29 152 -59 161 -12 4 -13 -8 -8 -69z"
       id="path174"
       style="fill:#ffcc33" />
    <path
       d="M7783 4813 c-152 -121 -267 -215 -373 -303 -106 -88 -275 -221 -619 -487 -73 -57 -147 -111 -163 -119 -49 -25 -26 -26 63 -3 52 13 128 23 199 26 l115 5 65 43 c87 57 475 418 535 497 26 35 72 106 103 158 30 52 72 120 92 150 65 98 65 98 -17 33z"
       id="path176"
       style="fill:#9999cc" />
    <path
       d="M3750 4825 c-5 -13 -16 -64 -25 -112 -8 -48 -18 -98 -21 -110 -4 -13 -4 -23 0 -23 11 0 66 118 76 166 17 76 -7 140 -30 79z"
       id="path178"
       style="fill:#ffcc66" />
    <path
       d="M4186 4826 c-26 -40 -26 -134 0 -160 19 -20 92 -23 77 -3 -14 17 -43 127 -43 160 0 34 -13 34 -34 3z"
       id="path180"
       style="fill:#ffcc66" />
    <path
       d="M340 4824 c0 -3 20 -39 45 -79 61 -98 105 -209 165 -422 80 -278 129 -396 236 -560 63 -97 186 -229 255 -273 90 -58 134 -69 301 -75 84 -3 174 -8 201 -11 26 -3 47 -4 47 -1 0 3 -30 45 -66 94 -57 75 -80 96 -153 142 -110 68 -158 108 -248 201 -148 155 -244 288 -354 490 -119 221 -203 326 -348 438 -44 34 -81 60 -81 56z"
       id="path182"
       style="fill:#9999cc" />
    <path
       d="M446 4796 c3 -7 17 -20 33 -29 82 -48 206 -214 324 -434 156 -289 353 -527 545 -656 45 -31 82 -54 82 -51 0 2 -43 82 -96 177 -101 181 -176 287 -321 453 -100 114 -142 185 -158 262 -10 50 -14 55 -90 112 -112 84 -331 198 -319 166z"
       id="path184"
       style="fill:#99ccff" />
    <path
       d="M5142 4760 c-18 -50 -26 -128 -14 -142 5 -7 12 -60 14 -118 7 -150 27 -197 136 -314 48 -51 88 -92 90 -91 5 4 -34 106 -80 210 -80 179 -97 233 -108 349 -13 128 -22 154 -38 106z"
       id="path186"
       style="fill:#ffcc00" />
    <path
       d="M3616 4728 c-32 -112 -58 -237 -67 -323 -5 -49 -12 -102 -15 -117 -4 -18 -2 -28 5 -28 6 0 11 5 11 12 0 6 20 50 44 97 53 104 76 186 76 275 0 58 -19 136 -34 136 -2 0 -11 -24 -20 -52z"
       id="path188"
       style="fill:#ffff00" />
    <path
       d="M4936 4749 c-3 -13 -7 -76 -11 -140 -5 -98 -3 -118 9 -122 8 -3 20 -25 26 -48 10 -36 13 -89 19 -304 l1 -49 28 34 c54 64 87 4 59 -106 l-15 -59 98 -101 c53 -56 103 -115 111 -133 8 -17 17 -31 20 -31 14 0 20 91 9 132 -16 60 -50 115 -126 206 -137 162 -179 287 -192 574 -5 90 -12 152 -19 159 -9 9 -13 6 -17 -12z"
       id="path190"
       style="fill:#ff6600" />
    <path
       d="M5022 4723 c-14 -31 -17 -66 -15 -193 2 -203 17 -261 27 -105 4 61 12 139 17 175 12 88 11 160 -2 160 -5 0 -18 -17 -27 -37z"
       id="path192"
       style="fill:#ffcc33" />
    <path
       d="M3962 4708 c-16 -25 -18 -36 -9 -46 9 -12 15 -9 34 14 13 16 22 35 21 43 -5 27 -25 22 -46 -11z"
       id="path194"
       style="fill:#ff9933" />
    <path
       d="M4063 4700 c-26 -11 -27 -14 -13 -41 18 -32 100 -19 100 16 0 15 -30 35 -52 34 -7 0 -23 -4 -35 -9z"
       id="path196"
       style="fill:#ffcc66" />
    <path
       d="M4350 4669 c0 -29 7 -50 25 -71 14 -16 25 -38 25 -49 0 -14 7 -19 29 -19 16 0 36 -3 45 -6 13 -5 12 3 -5 55 -14 42 -32 71 -60 96 -21 19 -44 35 -49 35 -6 0 -10 -18 -10 -41z"
       id="path198"
       style="fill:#ffcc66" />
    <path
       d="M3748 4599 c-101 -156 -102 -171 -5 -71 68 71 86 107 69 138 -8 15 -18 5 -64 -67z"
       id="path200"
       style="fill:#ff9933" />
    <path
       d="M3987 4642 c-23 -25 -22 -52 1 -52 26 0 54 33 46 54 -8 21 -27 20 -47 -2z"
       id="path202"
       style="fill:#ffcc66" />
    <path
       d="M3913 4638 c-6 -7 -14 -23 -18 -36 -6 -20 -4 -23 16 -20 32 5 48 34 28 53 -13 13 -18 14 -26 3z"
       id="path204"
       style="fill:#ffcc66" />
    <path
       d="M4180 4630 c12 -22 77 -53 97 -46 22 9 10 30 -23 39 -16 5 -41 12 -56 17 -25 7 -27 6 -18 -10z"
       id="path206"
       style="fill:#ff9933" />
    <path
       d="M3840 4621 c-15 -28 -13 -33 13 -29 14 2 23 11 25 26 4 28 -23 30 -38 3z"
       id="path208"
       style="fill:#ff6633" />
    <path
       d="M3224 4622 c2 -4 9 -44 16 -89 13 -98 1 -163 -59 -311 -54 -133 -56 -142 -26 -174 13 -16 25 -28 27 -28 2 0 3 33 3 74 0 76 14 109 43 104 10 -2 18 5 20 17 2 11 17 60 34 109 23 71 28 99 23 135 -6 49 -62 171 -77 171 -5 0 -7 -4 -4 -8z"
       id="path210"
       style="fill:#ffcc00" />
    <path
       d="M4113 4623 c-13 -2 -23 -8 -23 -13 0 -14 32 -21 46 -9 15 12 19 30 7 28 -5 -1 -18 -4 -30 -6z"
       id="path212"
       style="fill:#ff6633" />
    <path
       d="M4042 4595 c-7 -14 -18 -25 -27 -25 -8 0 -15 -4 -15 -10 0 -16 37 -12 54 6 17 17 21 40 7 48 -4 3 -13 -6 -19 -19z"
       id="path214"
       style="fill:#ff6633" />
    <path
       d="M4152 4589 c-10 -15 -20 -19 -37 -15 -18 5 -31 -1 -50 -20 -17 -17 -33 -24 -46 -21 -20 5 -46 -16 -83 -68 -12 -17 -18 -18 -34 -8 -17 10 -24 6 -56 -33 -33 -39 -35 -44 -16 -44 11 0 20 -6 20 -13 0 -20 -40 -90 -75 -128 -18 -20 -40 -57 -50 -82 -15 -39 -15 -50 -4 -76 10 -22 17 -27 26 -19 23 19 43 1 43 -40 0 -22 3 -60 6 -86 l7 -46 23 25 c27 29 37 31 58 10 12 -13 20 -14 36 -5 19 10 23 8 32 -18 l12 -30 15 32 c21 41 52 42 65 1 6 -16 11 -31 12 -33 1 -2 12 2 25 8 19 11 25 10 37 -6 10 -13 16 -15 19 -7 2 7 13 23 23 35 15 19 20 20 34 9 9 -7 16 -20 16 -29 0 -13 2 -13 18 1 24 22 39 21 51 0 7 -13 12 -15 23 -5 8 6 24 9 36 5 16 -4 21 -2 17 8 -3 8 -1 21 5 29 7 12 12 12 21 3 10 -10 15 -8 23 10 13 25 50 34 72 17 10 -9 14 -9 14 -1 0 6 7 11 15 11 14 0 14 3 0 30 -17 32 -19 68 -6 89 13 21 58 5 75 -27 9 -15 15 -21 16 -14 0 7 -12 34 -26 58 -22 37 -26 53 -21 91 3 26 2 56 -3 67 -4 12 -4 30 0 41 5 15 0 24 -21 37 -17 10 -29 26 -29 38 0 16 -7 20 -34 20 -43 0 -65 24 -48 51 7 10 9 19 5 19 -5 0 -28 18 -51 40 -30 28 -53 40 -73 40 -17 0 -32 6 -35 15 -4 8 -12 15 -19 15 -7 0 -24 9 -38 20 -31 25 -29 25 -45 -1z"
       id="path216"
       style="fill:#66cc00" />
    <path
       d="M4305 4601 c5 -9 1 -19 -10 -28 -18 -12 -18 -13 2 -13 30 0 39 19 18 38 -11 11 -15 12 -10 3z"
       id="path218"
       style="fill:#ff6633" />
    <path
       d="M4344 4576 c-7 -19 13 -56 31 -56 18 0 19 11 3 45 -13 28 -26 32 -34 11z"
       id="path220"
       style="fill:#ff6633" />
    <path
       d="M5083 4553 c-21 -50 -29 -222 -14 -294 14 -65 52 -129 134 -226 59 -68 107 -149 107 -178 0 -8 4 -15 8 -15 9 0 42 132 42 166 0 30 -41 87 -129 179 -68 71 -80 89 -101 154 -17 55 -23 94 -22 162 0 49 -2 89 -4 89 -3 0 -12 -17 -21 -37z"
       id="path222"
       style="fill:#ffff00" />
    <path
       d="M3475 4547 c-10 -17 -33 -93 -50 -169 -27 -118 -30 -147 -23 -200 10 -80 14 -89 32 -82 8 3 17 26 21 52 4 25 18 68 31 94 37 73 50 171 35 257 -7 39 -16 73 -20 75 -4 3 -16 -9 -26 -27z"
       id="path224"
       style="fill:#ffcc00" />
    <path
       d="M3747 4499 c-58 -57 -67 -70 -56 -82 12 -12 19 -10 52 17 51 41 110 140 80 135 -5 -1 -39 -32 -76 -70z"
       id="path226"
       style="fill:#ffcc66" />
    <path
       d="M3850 4544 c-14 -35 -7 -41 25 -20 28 19 29 39 2 44 -11 2 -21 -6 -27 -24z"
       id="path228"
       style="fill:#ff6633" />
    <path
       d="M3916 4561 c-3 -4 3 -16 14 -26 26 -23 52 -6 30 20 -14 17 -36 20 -44 6z"
       id="path230"
       style="fill:#ff6633" />
    <path
       d="M4630 4545 c0 -14 12 -54 26 -90 21 -52 29 -63 40 -54 7 6 18 8 24 4 14 -8 13 28 -2 77 -11 36 -57 88 -79 88 -5 0 -9 -11 -9 -25z"
       id="path232"
       style="fill:#ffcc66" />
    <path
       d="M4834 4534 c-6 -31 8 -103 34 -174 8 -23 19 36 21 112 1 78 -5 98 -30 98 -13 0 -20 -10 -25 -36z"
       id="path234"
       style="fill:#ffcc33" />
    <path
       d="M910 4543 c0 -3 19 -35 43 -71 120 -185 387 -429 830 -760 78 -58 154 -117 170 -130 15 -14 27 -22 27 -18 0 12 -87 143 -150 226 -31 41 -92 128 -134 193 -42 66 -100 143 -128 173 -44 47 -49 56 -37 70 36 44 385 -34 574 -128 33 -17 84 -48 114 -71 30 -22 52 -34 48 -26 -3 8 -28 66 -56 129 -46 107 -54 118 -103 153 -176 128 -485 226 -769 246 -168 12 -429 20 -429 14z"
       id="path236"
       style="fill:#66ccff" />
    <path
       d="M3886 4507 c-17 -12 -16 -14 8 -25 27 -12 42 -2 32 23 -7 18 -17 19 -40 2z"
       id="path238"
       style="fill:#ff6633" />
    <path
       d="M4405 4501 c-8 -14 5 -19 66 -27 l54 -7 -19 22 c-20 22 -89 30 -101 12z"
       id="path240"
       style="fill:#ff9933" />
    <path
       d="M4560 4458 c19 -19 49 -52 66 -74 39 -48 53 -39 30 19 -25 66 -37 78 -86 84 l-45 6 35 -35z"
       id="path242"
       style="fill:#ff6633" />
    <path
       d="M3765 4428 c-38 -32 -63 -62 -68 -82 -5 -17 -13 -37 -19 -43 -6 -7 -8 -13 -4 -13 12 0 176 164 176 177 0 24 -24 13 -85 -39z"
       id="path244"
       style="fill:#ff9933" />
    <path
       d="M3105 4413 c-4 -32 -12 -80 -18 -108 -10 -41 -10 -60 3 -107 15 -57 30 -85 30 -56 0 9 9 35 19 59 29 67 34 154 13 213 -24 70 -39 69 -47 -1z"
       id="path246"
       style="fill:#ffff00" />
    <path
       d="M2904 4434 c4 -16 27 -73 52 -127 26 -57 48 -122 52 -155 4 -31 10 -55 15 -54 4 1 20 2 36 2 l29 0 -20 73 c-35 123 -59 177 -102 230 -50 62 -72 72 -62 31z"
       id="path248"
       style="fill:#ffcc00" />
    <path
       d="M4760 4445 c0 -8 20 -57 45 -107 44 -92 45 -92 45 -52 0 51 -23 130 -46 155 -20 23 -44 25 -44 4z"
       id="path250"
       style="fill:#ffcc66" />
    <path
       d="M4427 4436 c-9 -24 46 -34 102 -19 l23 6 -23 13 c-33 18 -95 18 -102 0z"
       id="path252"
       style="fill:#ffcc66" />
    <path
       d="M4910 4404 c-30 -104 -21 -295 20 -399 l12 -30 14 35 c12 28 13 46 5 90 -6 30 -12 115 -14 188 -5 142 -17 182 -37 116z"
       id="path254"
       style="fill:#ffcc00" />
    <path
       d="M958 4405 c6 -11 31 -42 57 -70 l46 -50 -47 60 c-55 71 -71 88 -56 60z"
       id="path256"
       style="fill:#ccccff" />
    <path
       d="M3638 4373 c-35 -37 -68 -94 -68 -116 0 -10 5 -28 11 -39 10 -19 15 -14 55 58 59 106 60 158 2 97z"
       id="path258"
       style="fill:#ffcc33" />
    <path
       d="M4505 4390 c-10 -16 4 -30 50 -50 24 -10 46 -23 49 -29 10 -16 23 -13 30 6 11 27 -51 83 -90 83 -18 0 -36 -4 -39 -10z"
       id="path260"
       style="fill:#ff9933" />
    <path
       d="M4707 4374 c-8 -8 -1 -26 45 -119 22 -46 44 -109 51 -147 9 -54 15 -68 29 -68 36 0 43 -37 40 -205 -1 -107 2 -170 10 -190 17 -43 100 -186 105 -181 3 2 -2 17 -10 33 -41 78 -70 263 -57 356 10 65 6 83 -72 331 -30 95 -117 213 -141 190z"
       id="path262"
       style="fill:#ffcc00" />
    <path
       d="M3774 4344 c-42 -21 -114 -94 -92 -94 9 0 23 -9 31 -20 13 -18 15 -18 49 23 19 23 43 57 52 75 19 37 10 41 -40 16z"
       id="path264"
       style="fill:#ffcc66" />
    <path
       d="M5625 4321 c-59 -35 -124 -121 -184 -244 -51 -103 -65 -142 -87 -252 -24 -119 -26 -147 -23 -330 2 -110 3 -250 4 -312 0 -61 3 -109 6 -107 4 2 23 36 42 76 46 94 61 188 53 333 -3 61 -8 160 -12 220 -11 185 18 273 142 440 104 141 131 220 59 176z"
       id="path266"
       style="fill:#ffff00" />
    <path
       d="M4557 4286 c-5 -14 41 -96 54 -96 4 0 9 12 12 28 10 45 -51 108 -66 68z"
       id="path268"
       style="fill:#ffcc66" />
    <path
       d="M4650 4288 c0 -8 11 -29 24 -48 33 -50 46 -97 60 -218 l13 -107 23 50 c12 28 22 66 21 85 -2 55 -30 141 -59 183 -28 42 -82 77 -82 55z"
       id="path270"
       style="fill:#ffcc33" />
    <path
       d="M1148 4180 c87 -103 149 -196 222 -330 98 -179 166 -285 260 -402 233 -290 368 -405 740 -629 196 -117 418 -230 518 -263 75 -25 182 -44 182 -33 0 3 -23 20 -52 37 -29 18 -95 67 -148 109 -52 43 -129 100 -171 129 -208 139 -378 301 -541 513 -112 145 -178 209 -338 328 -249 184 -601 476 -666 554 -15 17 -36 39 -48 47 -11 8 7 -19 42 -60z"
       id="path272"
       style="fill:#ccccff" />
    <path
       d="M3517 4169 c-22 -93 -21 -108 3 -139 l20 -25 0 33 c0 18 7 49 15 69 20 47 19 86 -3 113 -18 22 -18 22 -35 -51z"
       id="path274"
       style="fill:#ff9933" />
    <path
       d="M3316 4214 c-3 -9 -6 -45 -6 -80 0 -54 3 -64 18 -64 9 0 27 -3 38 -6 21 -6 22 -5 9 48 -11 49 -40 118 -49 118 -2 0 -7 -7 -10 -16z"
       id="path276"
       style="fill:#ff6600" />
    <path
       d="M3642 4197 c-36 -37 -39 -49 -17 -67 8 -7 15 -24 15 -38 l0 -25 25 23 c27 25 41 76 31 115 -8 33 -16 32 -54 -8z"
       id="path278"
       style="fill:#ffcc33" />
    <path
       d="M7491 4214 c-72 -19 -103 -40 -213 -140 -51 -47 -110 -98 -130 -112 -21 -15 -38 -29 -38 -32 0 -3 46 -11 103 -18 93 -11 112 -10 193 7 235 50 521 142 609 195 l54 32 -149 33 c-130 28 -293 51 -355 50 -11 0 -44 -7 -74 -15z"
       id="path280"
       style="fill:#9999cc" />
    <path
       d="M3490 4196 c-13 -35 -25 -113 -16 -104 9 8 36 121 31 127 -3 2 -9 -8 -15 -23z"
       id="path282"
       style="fill:#ffcc33" />
    <path
       d="M4640 4182 c0 -22 10 -84 21 -138 12 -55 24 -142 28 -194 l6 -95 17 54 c15 49 15 65 2 178 -15 129 -40 224 -61 231 -9 2 -13 -9 -13 -36z"
       id="path284"
       style="fill:#ff6600" />
    <path
       d="M4556 4192 c-8 -25 49 -157 72 -166 30 -13 -7 110 -51 168 -14 19 -15 19 -21 -2z"
       id="path286"
       style="fill:#ff9933" />
    <path
       d="M1640 4196 c0 -2 20 -16 45 -31 116 -68 423 -363 516 -495 25 -36 92 -132 149 -215 126 -182 219 -309 230 -313 4 -1 5 8 3 22 -3 14 -1 38 5 54 14 40 94 142 111 142 8 0 57 -44 110 -97 53 -54 112 -111 131 -128 33 -28 33 -27 -9 25 -25 30 -86 98 -137 150 -108 112 -325 372 -393 474 -48 71 -130 150 -227 220 -94 67 -284 143 -439 176 -27 5 -60 12 -72 15 -13 3 -23 3 -23 1z"
       id="path288"
       style="fill:#ccccff" />
    <path
       d="M1643 4138 c19 -24 68 -92 107 -153 40 -60 99 -144 130 -185 32 -41 88 -124 125 -185 204 -335 412 -568 698 -778 45 -34 47 -27 5 25 -17 22 -52 81 -78 132 -26 50 -92 153 -148 229 -56 76 -151 212 -211 301 -141 209 -261 346 -447 506 -88 77 -190 150 -207 150 -5 0 7 -19 26 -42z"
       id="path290"
       style="fill:#ccccff" />
    <path
       d="M3214 4156 c-11 -30 3 -209 21 -256 25 -70 45 -240 45 -405 0 -88 4 -144 9 -135 5 8 21 77 36 152 21 107 26 158 23 235 -3 93 -5 101 -40 158 -32 51 -38 69 -38 116 0 60 -14 115 -36 138 -11 13 -14 12 -20 -3z"
       id="path292"
       style="fill:#ffcc00" />
    <path
       d="M3579 4103 c-17 -46 -22 -81 -14 -110 l7 -28 19 23 c22 28 34 82 25 117 -8 33 -24 32 -37 -2z"
       id="path294"
       style="fill:#ffcc66" />
    <path
       d="M8015 4085 c-92 -51 -548 -185 -632 -185 -37 0 -18 -17 27 -25 47 -8 100 -42 110 -70 13 -35 -7 -63 -77 -103 -38 -22 -80 -50 -93 -62 -29 -25 -37 -27 115 30 55 21 131 48 169 60 89 28 157 72 257 167 79 75 195 210 187 218 -2 2 -30 -11 -63 -30z"
       id="path296"
       style="fill:#99ccff" />
    <path
       d="M5007 4053 c-42 -96 -60 -172 -60 -258 1 -157 45 -286 169 -491 30 -50 64 -114 74 -143 29 -74 36 -184 16 -241 -8 -24 -14 -46 -12 -48 8 -7 56 66 75 116 27 68 28 173 2 273 -22 87 -38 115 -148 269 -95 132 -113 174 -120 285 -4 67 0 94 21 164 41 134 31 180 -17 74z"
       id="path298"
       style="fill:#ffff00" />
    <path
       d="M3678 4067 c-8 -9 -21 -29 -27 -46 -12 -26 -11 -34 8 -60 12 -16 21 -34 21 -40 0 -6 4 -11 9 -11 18 0 28 133 12 158 -7 11 -11 11 -23 -1z"
       id="path300"
       style="fill:#ff9933" />
    <path
       d="M3027 4063 c-16 -15 -4 -56 43 -152 28 -56 56 -127 61 -159 7 -38 9 -142 4 -308 -8 -272 -2 -328 41 -420 36 -76 143 -194 177 -194 3 0 -4 19 -15 42 -12 24 -34 94 -50 158 -27 108 -30 132 -38 420 -6 200 -15 328 -24 373 -31 142 -100 247 -161 247 -18 0 -35 -3 -38 -7z"
       id="path302"
       style="fill:#ffff00" />
    <path
       d="M3453 4026 c4 -27 20 -87 37 -135 40 -119 53 -238 41 -380 -6 -63 -9 -116 -7 -118 1 -2 13 34 26 79 31 109 38 265 16 368 -18 83 -64 186 -97 216 l-22 19 6 -49z"
       id="path304"
       style="fill:#ffcc00" />
    <path
       d="M4515 4051 c-3 -5 4 -33 15 -61 11 -28 20 -60 20 -70 0 -24 13 -26 30 -5 10 13 11 24 1 58 -21 69 -49 104 -66 78z"
       id="path306"
       style="fill:#ffcc66" />
    <path
       d="M8041 4024 c-36 -53 -208 -212 -275 -256 -33 -21 -92 -48 -131 -59 -91 -27 -259 -87 -310 -112 -40 -19 -95 -64 -95 -78 0 -4 19 -10 43 -13 23 -4 83 -14 134 -23 l92 -16 71 26 c39 14 102 47 140 72 80 53 211 189 258 268 36 60 106 216 100 222 -2 2 -14 -12 -27 -31z"
       id="path308"
       style="fill:#9999cc" />
    <path
       d="M3744 4039 c-12 -20 -22 -79 -14 -79 18 0 40 33 40 61 0 29 -13 38 -26 18z"
       id="path310"
       style="fill:#ffcc66" />
    <path
       d="M3307 4033 c-16 -15 -4 -59 31 -116 35 -58 37 -65 41 -161 3 -107 -7 -187 -45 -356 -45 -199 -28 -381 50 -544 32 -66 117 -177 100 -131 -22 61 -34 127 -36 190 -2 107 11 286 33 430 38 249 24 455 -41 591 -37 75 -105 126 -133 97z"
       id="path312"
       style="fill:#ffff00" />
    <path
       d="M2945 3955 c-40 -87 -75 -231 -75 -310 0 -66 25 -205 50 -280 21 -62 101 -208 121 -220 6 -4 3 8 -6 26 -61 117 -71 254 -34 477 28 173 29 262 2 332 l-22 55 -36 -80z"
       id="path314"
       style="fill:#ffff00" />
    <path
       d="M4792 3943 c-56 -124 -67 -175 -67 -323 0 -123 3 -145 33 -245 18 -60 47 -148 63 -195 73 -204 81 -236 86 -325 4 -66 1 -102 -11 -135 -8 -24 -13 -46 -11 -48 8 -8 68 33 87 58 10 14 23 53 29 88 16 88 1 152 -77 349 -96 240 -108 330 -83 635 11 132 7 208 -10 208 -4 0 -22 -30 -39 -67z"
       id="path316"
       style="fill:#ffcc00" />
    <path
       d="M4614 3958 c3 -24 9 -60 12 -80 4 -23 -1 -67 -11 -109 -35 -143 -12 -315 98 -714 50 -182 69 -285 65 -355 -3 -61 -3 -61 22 -55 45 12 68 72 69 180 1 93 -10 142 -73 320 -89 254 -102 320 -126 648 -10 136 -28 207 -51 207 -8 0 -10 -13 -5 -42z"
       id="path318"
       style="fill:#ffff00" />
    <path
       d="M3595 3950 c-4 -7 -2 -62 5 -125 16 -143 9 -257 -24 -365 -81 -266 -90 -314 -91 -490 0 -148 2 -171 22 -220 13 -30 34 -68 48 -85 l25 -30 -7 40 c-11 57 -7 258 7 361 6 49 29 159 51 244 49 193 65 350 51 503 -7 72 -17 118 -29 140 -20 34 -46 46 -58 27z"
       id="path320"
       style="fill:#ff6600" />
    <path
       d="M3743 3938 c-22 -28 -26 -61 -33 -273 -8 -203 -11 -231 -43 -360 -20 -77 -40 -167 -46 -200 -18 -100 -30 -306 -22 -370 l7 -60 8 75 c10 99 40 257 76 400 42 169 68 395 77 669 4 111 -3 146 -24 119z"
       id="path322"
       style="fill:#ffcc00" />
    <path
       d="M4430 3925 c-9 -11 -10 -29 -5 -63 4 -26 9 -200 10 -387 l3 -340 46 -225 c50 -245 53 -274 32 -344 l-14 -46 39 22 c71 39 74 48 73 167 0 90 -6 127 -37 241 -120 435 -135 527 -116 683 6 50 15 101 20 115 20 51 1 180 -27 189 -6 2 -17 -3 -24 -12z"
       id="path324"
       style="fill:#ff6600" />
    <path
       d="M4501 3913 c1 -15 5 -39 9 -53 7 -20 8 -16 9 22 1 26 -3 50 -9 53 -6 4 -10 -6 -9 -22z"
       id="path326"
       style="fill:#ff9933" />
    <path
       d="M3837 3902 c-17 -19 -37 -66 -37 -88 0 -11 7 -10 29 7 16 12 34 18 40 15 16 -10 14 59 -2 73 -11 8 -18 7 -30 -7z"
       id="path328"
       style="fill:#ff9933" />
    <path
       d="M3916 3894 c-8 -20 -8 -88 0 -108 13 -35 24 -13 24 48 0 63 -12 92 -24 60z"
       id="path330"
       style="fill:#ffcc66" />
    <path
       d="M3991 3883 c-28 -69 -34 -110 -41 -298 -8 -210 -16 -258 -74 -450 -19 -60 -45 -148 -59 -195 -33 -107 -50 -215 -42 -260 12 -74 17 -90 25 -90 13 0 68 180 89 295 11 55 24 152 30 215 6 63 21 158 32 210 12 52 25 156 29 230 8 153 15 193 36 211 9 7 14 31 14 69 0 89 -17 116 -39 63z"
       id="path332"
       style="fill:#ffcc00" />
    <path
       d="M4371 3890 c0 -14 9 -41 20 -60 l20 -35 -7 35 c-3 19 -12 46 -20 60 l-13 25 0 -25z"
       id="path334"
       style="fill:#ffcc66" />
    <path
       d="M5040 3874 c0 -44 5 -53 114 -184 32 -39 76 -103 97 -143 l38 -72 -5 73 c-6 100 -34 151 -149 269 l-94 98 -1 -41z"
       id="path336"
       style="fill:#ffcc00" />
    <path
       d="M4150 3843 c-32 -67 -37 -163 -13 -232 l19 -54 17 130 c27 207 21 249 -23 156z"
       id="path338"
       style="fill:#ffcc66" />
    <path
       d="M4569 3860 c-50 -67 -71 -143 -76 -280 -6 -148 7 -223 91 -515 63 -220 81 -324 71 -411 l-6 -62 45 16 c59 22 69 48 56 144 -11 75 -47 226 -81 342 -71 238 -115 478 -104 571 3 28 13 80 21 116 9 37 14 78 12 90 -3 23 -4 23 -29 -11z"
       id="path340"
       style="fill:#ffcc00" />
    <path
       d="M4225 3850 c-8 -16 -15 -43 -15 -60 0 -27 2 -29 19 -18 15 9 23 9 35 -1 14 -12 16 -9 16 22 0 42 -15 87 -29 87 -6 0 -17 -13 -26 -30z"
       id="path342"
       style="fill:#ff9933" />
    <path
       d="M6724 3861 c-130 -27 -266 -75 -345 -122 -73 -43 -97 -66 -55 -50 13 6 62 13 109 17 134 11 187 -17 187 -99 l0 -39 33 20 c17 11 106 53 197 92 173 76 330 122 458 135 40 4 71 9 69 12 -3 2 -51 13 -108 24 -156 29 -426 34 -545 10z"
       id="path344"
       style="fill:#66ccff" />
    <path
       d="M3050 3844 c0 -17 -11 -107 -25 -200 -14 -93 -25 -198 -25 -233 0 -104 42 -233 99 -301 l20 -25 -10 37 c-6 23 -9 159 -7 340 3 279 2 307 -16 348 -26 61 -36 70 -36 34z"
       id="path346"
       style="fill:#ffcc00" />
    <path
       d="M4077 3849 c-29 -46 -30 -83 -4 -108 l25 -22 7 66 c8 76 -4 102 -28 64z"
       id="path348"
       style="fill:#ff9933" />
    <path
       d="M4302 3713 c-7 -76 -17 -156 -24 -178 -6 -22 -12 -87 -12 -145 0 -89 6 -127 36 -245 86 -329 109 -534 74 -650 -9 -27 -14 -50 -12 -52 8 -8 81 58 107 97 39 58 38 109 -5 297 -61 263 -66 305 -66 583 0 265 -10 350 -46 405 -32 49 -40 32 -52 -112z"
       id="path350"
       style="fill:#ffff00" />
    <path
       d="M3844 3802 c-18 -11 -42 -65 -55 -118 -6 -27 -15 -119 -19 -204 -7 -113 -17 -190 -40 -285 -74 -317 -94 -448 -84 -543 6 -56 10 -65 32 -73 14 -5 38 -7 53 -4 26 6 28 9 21 38 -4 18 -7 73 -6 122 0 82 6 110 66 305 86 276 96 318 108 431 19 188 -22 367 -76 331z"
       id="path352"
       style="fill:#ffff00" />
    <path
       d="M7287 3784 c-149 -23 -270 -60 -455 -140 -204 -89 -198 -85 -278 -161 -33 -32 -97 -78 -143 -103 -276 -151 -368 -223 -495 -392 -47 -62 -103 -132 -125 -156 -23 -24 -41 -45 -41 -48 0 -11 201 99 294 161 55 36 194 141 310 233 303 241 467 355 666 460 103 55 291 129 352 138 21 4 38 10 38 15 0 11 -13 10 -123 -7z"
       id="path354"
       style="fill:#6699cc" />
    <path
       d="M5044 3755 c10 -53 32 -95 107 -201 35 -49 76 -111 92 -139 l28 -50 -6 45 c-10 71 -66 176 -150 285 -75 97 -77 99 -71 60z"
       id="path356"
       style="fill:#ffcc33" />
    <path
       d="M7368 3759 c-294 -87 -564 -253 -1032 -636 -209 -172 -435 -315 -631 -401 -27 -12 -76 -44 -109 -71 -32 -27 -96 -69 -142 -92 -46 -23 -82 -44 -81 -45 2 -2 52 8 113 22 191 44 245 54 423 85 190 32 363 84 496 149 215 105 512 392 716 691 79 117 184 222 272 273 37 21 70 43 73 48 3 4 4 8 2 7 -2 0 -47 -14 -100 -30z"
       id="path358"
       style="fill:#66ccff" />
    <path
       d="M4216 3719 c-25 -62 -39 -190 -32 -293 28 -426 13 -587 -70 -760 l-24 -49 33 -45 c18 -25 37 -47 43 -49 15 -5 61 83 79 153 25 96 30 310 10 434 -27 161 -30 305 -10 413 18 99 17 228 -1 234 -6 2 -19 -15 -28 -38z"
       id="path360"
       style="fill:#ffcc00" />
    <path
       d="M4028 3704 c-8 -20 -11 -86 -8 -219 9 -446 4 -604 -19 -694 -11 -46 -32 -104 -45 -128 -31 -54 -18 -55 38 -3 49 45 69 50 83 18 8 -18 14 -8 41 74 41 123 52 207 53 387 0 204 -31 403 -82 521 -29 69 -45 80 -61 44z"
       id="path362"
       style="fill:#ffff00" />
    <path
       d="M6303 3630 c-88 -23 -314 -129 -488 -228 -275 -157 -342 -212 -425 -348 -29 -48 -79 -122 -111 -165 -33 -44 -59 -81 -59 -84 0 -2 14 1 32 7 18 6 80 61 147 128 191 193 318 270 626 379 239 85 475 199 511 246 13 17 24 44 24 58 l0 27 -92 -1 c-55 0 -122 -8 -165 -19z"
       id="path364"
       style="fill:#ccccff" />
    <path
       d="M4869 3518 c4 -92 20 -134 80 -208 120 -148 144 -199 149 -321 4 -86 2 -102 -22 -160 -15 -35 -30 -71 -33 -79 -16 -40 82 73 107 124 26 50 30 71 30 135 -1 46 -8 96 -18 126 -10 28 -77 138 -150 246 -73 108 -132 201 -132 207 0 7 -3 12 -8 12 -4 0 -5 -37 -3 -82z"
       id="path366"
       style="fill:#ff6600" />
    <path
       d="M880 3436 c-184 -55 -314 -165 -435 -367 -49 -83 -286 -551 -282 -556 4 -3 128 163 177 237 60 91 185 244 231 284 l39 33 -22 41 c-30 54 -19 72 53 88 30 7 115 40 189 74 74 34 173 75 219 90 l84 28 -38 16 c-20 9 -40 16 -44 16 -3 0 -17 9 -31 20 -31 25 -47 24 -140 -4z"
       id="path368"
       style="fill:#99ccff" />
    <path
       d="M7177 3447 c-3 -8 -47 -70 -98 -138 -102 -137 -330 -371 -446 -459 -85 -64 -82 -68 42 -69 109 -1 261 21 440 63 281 66 316 70 520 71 122 0 215 -5 260 -14 91 -18 318 -87 366 -112 21 -10 42 -19 46 -19 13 0 -234 245 -332 329 -279 241 -398 305 -655 347 -107 17 -137 17 -143 1z"
       id="path370"
       style="fill:#9999cc" />
    <path
       d="M1232 3355 c-113 -20 -210 -54 -382 -135 -80 -38 -152 -70 -160 -73 -13 -4 -13 -5 0 -11 8 -3 128 -21 265 -41 313 -45 420 -67 543 -110 54 -19 87 -27 73 -17 -28 19 -121 58 -176 73 -51 14 -65 26 -65 55 0 55 143 167 268 210 57 20 60 25 35 45 -24 20 -293 22 -401 4z"
       id="path372"
       style="fill:#66ccff" />
    <path
       d="M3977 3335 c-15 -68 -27 -158 -42 -303 -15 -144 -37 -243 -85 -380 -24 -67 -23 -62 -6 -62 16 0 79 67 100 107 36 70 47 147 52 353 6 203 -4 351 -19 285z"
       id="path374"
       style="fill:#ff6600" />
    <path
       d="M4895 3340 c4 -14 31 -87 61 -162 57 -146 86 -271 78 -334 l-4 -39 20 40 c29 57 24 207 -9 282 -27 61 -156 249 -146 213z"
       id="path376"
       style="fill:#ff6600" />
    <path
       d="M6187 3329 c-10 -6 -66 -28 -125 -48 -312 -110 -496 -225 -662 -411 -35 -40 -79 -77 -105 -90 -25 -12 -45 -24 -45 -27 0 -3 11 -18 25 -35 20 -23 25 -41 25 -83 0 -30 -5 -66 -10 -81 -6 -15 -9 -28 -7 -31 9 -8 156 60 221 103 123 82 265 231 410 433 58 79 172 186 264 246 23 15 42 29 42 31 0 7 -15 4 -33 -7z"
       id="path378"
       style="fill:#ccccff" />
    <path
       d="M2720 3278 c0 -27 61 -203 88 -253 45 -84 153 -181 300 -268 71 -43 135 -84 142 -92 7 -8 17 -15 22 -15 10 0 -70 121 -141 215 -43 56 -340 368 -388 408 -17 14 -23 15 -23 5z"
       id="path380"
       style="fill:#ccccff" />
    <path
       d="M1655 3266 c-87 -29 -244 -111 -232 -122 2 -2 39 3 83 12 88 17 221 11 287 -12 20 -7 37 -12 37 -10 0 2 -30 35 -67 74 l-68 71 -40 -13z"
       id="path382"
       style="fill:#6699cc" />
    <path
       d="M2651 3239 c-32 -39 -33 -44 -28 -100 16 -174 252 -465 460 -565 l67 -32 61 14 c34 8 66 17 71 20 14 9 -63 65 -206 150 -216 128 -295 229 -353 452 -14 56 -29 102 -32 102 -3 0 -21 -19 -40 -41z"
       id="path384"
       style="fill:#ccccff" />
    <path
       d="M1472 3123 c-35 -8 -62 -16 -60 -18 2 -2 64 -11 138 -19 212 -26 373 -71 483 -136 68 -40 48 -15 -45 55 -124 96 -142 106 -207 121 -73 18 -229 16 -309 -3z"
       id="path386"
       style="fill:#6699cc" />
    <path
       d="M654 3105 c15 -40 132 -199 197 -269 96 -103 448 -418 564 -505 87 -66 197 -143 320 -225 186 -125 495 -240 708 -266 200 -23 541 -10 707 28 l75 16 -105 7 c-121 8 -170 21 -335 94 -164 73 -267 131 -420 238 -71 50 -162 106 -203 124 -40 19 -76 41 -79 50 -8 21 28 50 73 59 19 3 34 9 34 13 0 10 -80 55 -165 93 -137 61 -234 96 -430 153 -282 83 -301 89 -545 187 -243 97 -304 127 -363 182 -22 20 -36 29 -33 21z"
       id="path388"
       style="fill:#66ccff" />
    <path
       d="M720 3080 c14 -11 50 -34 80 -49 85 -44 458 -188 583 -226 62 -18 184 -55 272 -81 245 -72 422 -146 530 -219 46 -32 53 -33 95 -25 25 5 65 10 90 11 l45 1 -40 16 c-139 55 -340 168 -565 317 -122 81 -361 163 -585 200 -142 24 -203 33 -390 56 -44 5 -93 12 -110 15 l-30 5 25 -21z"
       id="path390"
       style="fill:#6699cc" />
    <path
       d="M1591 3022 c52 -27 156 -89 230 -137 331 -217 552 -335 704 -375 91 -24 273 -37 325 -23 l35 10 -40 13 c-58 19 -290 136 -435 220 -162 94 -148 87 -345 179 -227 105 -334 138 -505 155 l-65 7 96 -49z"
       id="path392"
       style="fill:#6699cc" />
    <path
       d="M569 3003 c-72 -76 -130 -150 -214 -273 -43 -63 -96 -136 -118 -162 -21 -27 -35 -48 -31 -48 4 0 71 62 148 138 141 138 233 208 314 239 23 9 41 19 40 22 -12 24 -84 131 -88 131 -3 0 -26 -21 -51 -47z"
       id="path394"
       style="fill:#9999cc" />
    <path
       d="M4288 2868 c-6 -167 -25 -251 -74 -323 -20 -30 -23 -40 -12 -47 18 -12 106 -58 112 -58 2 0 12 24 22 53 26 77 22 229 -10 391 -14 71 -27 131 -29 133 -3 2 -7 -65 -9 -149z"
       id="path396"
       style="fill:#ff6600" />
    <path
       d="M673 2880 c-75 -33 -163 -100 -274 -208 -60 -58 -108 -106 -107 -107 2 -2 46 8 98 22 117 30 270 40 365 24 39 -7 135 -34 215 -61 79 -27 146 -47 148 -46 1 2 -48 48 -110 104 -109 96 -204 192 -260 260 -15 17 -28 32 -30 31 -2 0 -22 -9 -45 -19z"
       id="path398"
       style="fill:#9999cc" />
    <path
       d="M7540 2889 c-113 -6 -363 -52 -437 -80 -42 -16 -256 -48 -358 -55 -55 -3 -128 -1 -163 4 -61 9 -64 8 -142 -32 -76 -39 -96 -56 -66 -56 7 0 30 -13 50 -29 71 -57 366 -100 543 -80 94 10 113 14 318 64 466 113 651 133 935 101 69 -8 133 -17 143 -21 9 -4 17 -4 17 0 0 12 -144 72 -270 113 -200 65 -346 83 -570 71z"
       id="path400"
       style="fill:#99ccff" />
    <path
       d="M3188 2866 c53 -86 161 -232 186 -250 25 -19 48 -24 121 -29 l90 -6 -29 22 c-16 12 -50 40 -75 62 -77 66 -308 225 -293 201z"
       id="path402"
       style="fill:#ccccff" />
    <path
       d="M5045 2684 c-74 -40 -168 -75 -320 -119 -64 -18 -335 -154 -335 -167 0 -16 56 -31 110 -30 38 1 82 11 134 32 112 45 232 59 310 36 40 -12 71 -29 95 -53 l35 -35 58 60 c81 87 112 144 113 208 0 38 -6 60 -21 81 -33 44 -81 41 -179 -13z"
       id="path404"
       style="fill:#ccccff" />
    <path
       d="M7865 2713 c-82 -7 -323 -55 -499 -99 -298 -74 -361 -84 -503 -84 -119 0 -264 17 -340 39 -18 5 -33 8 -33 5 0 -2 22 -32 49 -67 71 -90 105 -150 145 -256 20 -52 41 -100 47 -107 5 -7 46 -22 90 -34 64 -17 107 -21 222 -21 288 0 416 49 797 306 270 182 331 219 428 261 68 30 72 33 45 38 -92 20 -328 30 -448 19z"
       id="path406"
       style="fill:#9999cc" />
    <path
       d="M6155 2616 c-60 -18 -177 -43 -260 -56 -82 -13 -154 -26 -158 -30 -4 -4 19 -10 53 -13 74 -8 154 -41 180 -75 46 -58 13 -128 -87 -184 -30 -17 -52 -32 -50 -34 2 -2 78 -15 168 -28 249 -37 383 -76 581 -169 93 -43 225 -124 248 -152 7 -8 17 -15 22 -15 6 0 -7 19 -29 43 -77 84 -134 181 -179 310 -39 107 -86 191 -167 297 -82 108 -124 140 -176 139 -20 0 -85 -15 -146 -33z"
       id="path408"
       style="fill:#99ccff" />
    <path
       d="M550 2593 c-59 -9 -216 -46 -230 -54 -9 -6 8 -7 45 -3 96 10 313 -22 470 -68 107 -32 196 -69 360 -150 137 -68 281 -126 290 -116 2 2 -35 32 -83 68 -48 36 -118 92 -156 124 -66 57 -79 63 -240 118 -221 75 -348 98 -456 81z"
       id="path410"
       style="fill:#9999cc" />
    <path
       d="M3969 2540 c-38 -38 -68 -55 -183 -100 -75 -30 -152 -67 -171 -83 -67 -55 -83 -174 -32 -232 37 -42 217 -95 369 -108 118 -10 129 -9 163 9 20 10 41 28 47 38 21 39 2 127 -56 259 -32 71 -65 159 -74 196 l-17 67 -46 -46z"
       id="path412"
       style="fill:#66ccff" />
    <path
       d="M4046 2553 c6 -39 42 -129 110 -283 44 -100 53 -160 30 -214 l-16 -38 25 6 c161 40 255 123 238 208 -9 47 -102 135 -187 178 -99 49 -141 83 -171 135 -15 25 -29 45 -31 45 -3 0 -2 -17 2 -37z"
       id="path414"
       style="fill:#6699cc" />
    <path
       d="M3918 2554 c-73 -31 -224 -46 -328 -34 -41 5 -124 9 -185 9 -116 1 -144 -8 -180 -55 -36 -48 4 -160 79 -217 40 -30 223 -127 241 -127 3 0 1 9 -5 19 -5 11 -10 46 -10 78 0 48 5 68 29 104 35 56 71 78 181 114 106 35 188 75 219 109 14 14 23 25 20 25 -2 -1 -30 -12 -61 -25z"
       id="path416"
       style="fill:#6699cc" />
    <path
       d="M248 2477 c-42 -12 -79 -25 -82 -28 -4 -3 22 -12 56 -19 79 -17 174 -65 258 -130 261 -202 353 -261 522 -335 205 -90 350 -125 524 -125 130 0 177 10 289 64 l90 42 -84 44 c-46 24 -131 77 -188 117 -73 50 -114 73 -134 73 -45 0 -134 33 -308 115 -284 134 -498 193 -731 200 -118 4 -144 2 -212 -18z"
       id="path418"
       style="fill:#99ccff" />
    <path
       d="M5460 2464 c-63 -10 -100 -11 -143 -3 l-59 10 -51 -46 c-29 -26 -71 -68 -95 -94 l-43 -46 -31 38 c-17 21 -44 45 -59 53 -35 18 -52 10 -170 -73 -43 -29 -99 -63 -125 -75 l-49 -22 80 -13 c47 -8 127 -12 195 -10 101 3 125 8 200 37 68 27 97 45 147 93 l63 60 58 -26 c79 -36 185 -51 317 -44 128 6 211 28 243 64 20 22 21 28 9 47 -8 12 -41 30 -78 43 -54 19 -84 22 -194 21 -71 0 -168 -6 -215 -14z"
       id="path420"
       style="fill:#6699cc" />
    <path
       d="M3039 2456 c-5 -5 -186 -34 -239 -38 -35 -3 -34 -3 34 -35 37 -18 105 -55 150 -82 144 -87 218 -117 341 -140 53 -10 58 -1 11 21 -77 37 -136 109 -167 203 -17 55 -43 75 -95 75 -17 0 -33 -2 -35 -4z"
       id="path422"
       style="fill:#ccccff" />
    <path
       d="M2380 2431 l-65 -6 60 -12 c94 -18 163 -48 274 -118 142 -91 346 -201 417 -225 70 -25 226 -50 307 -50 60 0 197 27 197 38 -1 10 -142 72 -164 72 -85 -1 -269 57 -372 116 -244 141 -294 161 -444 174 -58 5 -114 11 -125 13 -11 2 -49 1 -85 -2z"
       id="path424"
       style="fill:#6699cc" />
    <path
       d="M4785 2399 c-22 -5 -82 -23 -133 -40 -74 -25 -106 -30 -151 -27 l-57 4 25 -53 c26 -52 27 -53 71 -53 57 0 121 30 225 105 116 82 117 86 20 64z"
       id="path426"
       style="fill:#ccccff" />
    <path
       d="M2251 2368 c30 -18 77 -49 105 -69 190 -141 446 -276 627 -331 86 -26 210 -29 342 -8 l90 14 -80 8 c-126 12 -215 29 -281 54 -64 24 -297 152 -419 229 -148 95 -222 122 -358 131 l-82 5 56 -33z"
       id="path428"
       style="fill:#6699cc" />
    <path
       d="M5277 2275 c-128 -118 -334 -161 -571 -119 -48 8 -90 13 -93 10 -7 -7 153 -53 252 -72 60 -12 143 -18 250 -18 l160 -1 110 44 c61 24 181 68 268 99 155 54 201 79 111 60 -26 -6 -110 -8 -188 -6 -118 3 -149 7 -190 26 -27 12 -51 22 -55 22 -3 -1 -28 -21 -54 -45z"
       id="path430"
       style="fill:#66ccff" />
    <path
       d="M5680 2171 c-132 -47 -220 -84 -220 -93 0 -3 33 -14 73 -23 53 -13 149 -19 362 -25 263 -7 301 -10 405 -34 254 -60 354 -107 707 -333 21 -13 15 -2 -25 44 -203 237 -537 399 -943 457 -117 17 -222 35 -243 41 -6 2 -58 -14 -116 -34z"
       id="path432"
       style="fill:#9999cc" />
    <path
       d="M4453 2104 c-59 -79 -216 -144 -344 -144 -77 0 -85 -9 -45 -53 47 -51 157 -84 306 -94 148 -10 241 18 330 97 l35 32 35 -41 c50 -57 108 -83 195 -89 89 -6 134 8 175 54 37 43 37 53 3 86 -38 35 -78 53 -148 66 -33 6 -96 18 -140 27 -44 8 -123 29 -175 46 -52 17 -119 34 -148 38 -52 8 -54 7 -79 -25z"
       id="path434"
       style="fill:#66ccff" />
    <path
       d="M5340 2044 c-36 -14 -96 -28 -133 -31 l-68 -6 39 -41 c74 -77 89 -134 52 -206 -24 -47 -77 -84 -143 -101 -61 -15 -52 -27 50 -69 124 -52 197 -64 393 -63 169 0 322 16 585 58 307 50 687 65 824 32 40 -10 87 -25 103 -33 16 -8 34 -14 40 -12 11 4 -72 61 -222 153 -244 150 -324 186 -518 235 -152 38 -185 41 -467 50 -239 7 -291 11 -355 29 -112 32 -110 32 -180 5z"
       id="path436"
       style="fill:#99ccff" />
    <path
       d="M3665 2000 c-34 -38 -229 -129 -323 -150 -104 -24 -144 -52 -186 -129 -25 -46 -27 -61 -27 -146 1 -146 72 -389 156 -535 53 -93 139 -230 132 -210 -3 8 -31 75 -62 149 -30 74 -62 160 -70 192 -32 123 -10 305 51 436 28 59 71 105 283 304 50 47 91 91 91 97 0 19 -25 14 -45 -8z"
       id="path438"
       style="fill:#99ccff" />
    <path
       d="M3536 2001 c-4 -5 3 -7 14 -4 23 6 26 13 6 13 -8 0 -17 -4 -20 -9z"
       id="path440" />
    <path
       d="M3686 1954 c-24 -29 -88 -91 -142 -138 -110 -94 -162 -156 -198 -237 -53 -122 -71 -294 -41 -408 8 -31 34 -105 58 -166 24 -60 47 -119 51 -129 3 -10 8 -17 10 -15 5 5 -6 70 -34 202 -35 172 -21 345 39 473 30 65 74 113 225 248 75 67 164 181 152 194 -4 3 -22 11 -41 18 -34 11 -35 11 -79 -42z"
       id="path442"
       style="fill:#9999cc" />
    <path
       d="M3795 1909 c-39 -59 -115 -136 -228 -232 -115 -98 -165 -213 -174 -402 -4 -91 -1 -128 18 -215 12 -58 25 -130 28 -160 l6 -55 8 40 c4 22 7 57 7 77 0 84 90 305 168 413 20 27 102 118 183 201 80 82 158 171 174 197 l27 48 -26 37 c-14 21 -28 52 -32 69 -7 34 -24 43 -84 43 -32 -1 -39 -6 -75 -61z"
       id="path444"
       style="fill:#99ccff" />
    <path
       d="M4000 1948 c-1 -39 64 -102 150 -145 112 -55 203 -73 440 -83 107 -5 249 -12 316 -16 152 -9 210 3 265 56 31 29 39 44 39 72 0 48 -9 52 -34 16 -38 -56 -70 -72 -151 -76 -103 -6 -199 24 -256 78 l-41 39 -44 -34 c-120 -92 -305 -107 -507 -43 -77 25 -129 63 -157 116 -11 21 -19 30 -20 20z"
       id="path446"
       style="fill:#6699cc" />
    <path
       d="M1943 1876 c-127 -59 -243 -164 -326 -292 -44 -68 -131 -234 -123 -234 2 0 26 30 52 68 67 93 308 338 404 408 72 53 88 74 57 74 -7 0 -35 -11 -64 -24z"
       id="path448"
       style="fill:#9999cc" />
    <path
       d="M1943 1801 c-235 -189 -443 -443 -523 -638 -48 -120 -44 -120 37 2 138 207 274 347 489 501 89 64 238 144 268 144 38 0 9 17 -72 43 -48 15 -90 27 -94 27 -4 0 -51 -35 -105 -79z"
       id="path450"
       style="fill:#9999cc" />
    <path
       d="M2175 1777 c-93 -39 -107 -47 -235 -141 -176 -128 -336 -289 -441 -442 -30 -45 -26 -43 59 38 246 233 617 404 1107 508 l130 28 -135 1 c-74 1 -180 8 -235 17 -55 8 -116 17 -135 19 -25 4 -58 -4 -115 -28z"
       id="path452"
       style="fill:#99ccff" />
    <path
       d="M3992 1755 c-18 -30 -93 -117 -165 -193 -141 -147 -206 -230 -255 -327 -38 -76 -94 -252 -89 -279 2 -15 7 -8 16 24 17 58 74 171 121 240 43 62 121 139 225 222 88 71 204 188 250 253 l35 50 -33 17 c-19 9 -39 24 -46 32 -8 9 -16 16 -20 16 -3 0 -21 -25 -39 -55z"
       id="path454"
       style="fill:#9999cc" />
    <path
       d="M2985 1786 c-55 -7 -131 -20 -170 -29 -38 -10 -128 -31 -200 -48 -248 -58 -537 -164 -715 -261 -128 -70 -248 -158 -356 -261 -106 -101 -146 -157 -51 -72 79 72 264 203 337 240 102 51 201 83 297 95 461 59 552 77 676 131 178 78 276 140 303 192 17 31 29 30 -121 13z"
       id="path456"
       style="fill:#9999cc" />
    <path
       d="M3045 1693 c-54 -48 -282 -158 -377 -182 -88 -23 -336 -64 -481 -81 -54 -6 -124 -18 -155 -26 -91 -23 -248 -105 -371 -193 -122 -88 -249 -191 -250 -204 -1 -4 36 11 82 34 107 55 183 83 291 108 107 26 300 56 456 71 194 19 305 39 407 71 147 46 227 93 369 215 l61 53 6 82 c4 46 6 84 4 85 -1 1 -20 -14 -42 -33z"
       id="path458"
       style="fill:#99ccff" />
    <path
       d="M4095 1659 c-56 -80 -136 -159 -277 -272 -143 -115 -238 -246 -292 -402 -50 -146 -49 -147 55 -40 105 109 153 142 332 236 149 78 251 153 343 253 56 59 154 205 154 227 0 3 -38 14 -85 23 -47 9 -101 24 -120 32 -19 7 -40 14 -47 14 -7 -1 -35 -33 -63 -71z"
       id="path460"
       style="fill:#99ccff" />
    <path
       d="M4476 1643 c21 -95 37 -151 55 -192 68 -154 211 -311 342 -376 40 -19 117 -47 172 -62 92 -25 115 -27 295 -27 156 0 220 4 321 22 315 54 673 182 1009 360 194 103 267 137 318 152 23 7 42 16 42 20 0 11 -106 11 -198 0 -132 -17 -320 -62 -567 -135 -289 -87 -396 -105 -630 -104 -261 0 -455 25 -585 77 -132 52 -284 158 -334 233 -34 52 -55 59 -183 59 l-63 0 6 -27z"
       id="path462"
       style="fill:#99ccff" />
    <path
       d="M4728 1633 c60 -83 255 -212 382 -252 185 -58 617 -77 847 -37 43 8 143 33 223 56 441 128 590 161 747 163 120 2 123 10 15 32 -114 23 -221 28 -392 16 -160 -12 -399 -37 -430 -46 -8 -3 -94 -17 -190 -32 -150 -23 -208 -27 -400 -27 -188 -1 -235 2 -289 17 -74 21 -178 67 -219 96 -22 15 -56 22 -148 30 -65 6 -129 11 -142 11 l-23 0 19 -27z"
       id="path464"
       style="fill:#9999cc" />
  </g>
</svg>
