<?xml version="1.0" standalone="no"?>
<!DOCTYPE svg PUBLIC "-//W3C//DTD SVG 20010904//EN"
 "http://www.w3.org/TR/2001/REC-SVG-20010904/DTD/svg10.dtd">
<svg version="1.0" xmlns="http://www.w3.org/2000/svg"
 width="1024.000000pt" height="1024.000000pt" viewBox="0 0 1024.000000 1024.000000"
 preserveAspectRatio="xMidYMid meet">
<metadata>
Created by potrace 1.14, written by Peter Selinger 2001-2017
</metadata>
<g transform="translate(0.000000,1024.000000) scale(0.100000,-0.100000)"
fill="#000000" stroke="none">
<path d="M4950 8712 c-44 -22 -77 -71 -86 -128 l-6 -44 -32 23 c-42 30 -134
31 -166 2 -52 -46 -77 -169 -50 -241 6 -15 9 -28 8 -30 -2 -1 -21 2 -43 8 -93
25 -201 -28 -226 -110 -27 -93 56 -205 206 -277 96 -47 199 -59 254 -30 32 16
34 16 60 -8 14 -13 35 -29 46 -35 18 -10 17 -12 -20 -28 -65 -28 -219 -30
-347 -5 -59 11 -113 19 -120 17 -7 -3 -25 -7 -40 -10 -38 -9 -62 -49 -70 -120
-18 -160 -27 -227 -33 -237 -4 -6 -29 36 -57 93 -27 56 -63 117 -79 134 l-30
31 28 49 c42 72 63 129 63 174 0 36 -6 47 -59 98 -48 47 -62 69 -80 124 -28
84 -56 126 -101 149 -50 27 -135 25 -192 -4 -29 -15 -52 -20 -64 -16 -11 4
-37 8 -59 8 l-40 1 3 67 c3 58 -1 76 -25 122 -19 38 -39 60 -63 72 -170 84
-205 99 -228 99 -19 0 -42 -16 -82 -58 -30 -32 -76 -70 -101 -85 -63 -36 -116
-98 -129 -149 l-11 -43 -103 -2 c-209 -3 -245 -28 -336 -235 -42 -96 -42 -97
-25 -130 16 -33 16 -33 -12 -53 -101 -72 -146 -153 -147 -262 -1 -40 -1 -73
-1 -73 0 0 -22 7 -50 15 -56 18 -110 13 -165 -15 -47 -24 -74 -55 -102 -115
-35 -75 -32 -244 6 -424 22 -105 27 -148 22 -200 -6 -64 -32 -171 -42 -171 -2
0 -23 12 -45 27 -55 36 -130 42 -183 14 -22 -11 -40 -20 -41 -18 -1 1 -9 31
-19 66 -36 134 -151 321 -254 412 -119 104 -254 127 -323 53 -21 -22 -24 -35
-23 -92 2 -83 21 -129 114 -271 73 -112 123 -213 135 -271 3 -19 9 -43 11 -52
4 -14 -1 -18 -21 -18 -14 0 -39 -7 -56 -15 -35 -19 -42 -15 -73 33 -31 49 -61
139 -81 242 -9 47 -21 109 -27 139 -17 89 -107 161 -202 161 -73 0 -130 -53
-168 -156 -30 -82 -32 -316 -4 -414 25 -89 96 -234 145 -300 23 -30 41 -57 41
-60 0 -3 -15 -11 -33 -18 -64 -23 -136 -118 -137 -179 0 -13 -2 -23 -5 -23 -2
0 -25 13 -51 30 -126 79 -263 56 -321 -54 -11 -21 -14 -46 -10 -82 19 -182
252 -347 525 -371 68 -6 72 -7 65 -27 -3 -12 -9 -37 -12 -56 -6 -34 -8 -35
-81 -53 -106 -25 -291 -33 -398 -17 -133 21 -238 18 -289 -8 -50 -26 -87 -72
-102 -128 -38 -144 103 -287 326 -330 103 -20 341 -20 454 0 253 45 468 158
667 350 60 58 60 51 0 -70 -60 -121 -204 -284 -339 -385 l-66 -49 -69 36
c-117 59 -275 56 -349 -9 l-25 -22 26 -30 c14 -16 44 -57 67 -90 22 -33 49
-70 60 -82 l20 -23 -28 -57 c-58 -116 -31 -219 71 -279 37 -22 63 -28 125 -32
l79 -5 0 -29 0 -30 -36 23 c-72 44 -225 35 -350 -21 -87 -38 -81 -87 21 -192
67 -68 112 -91 193 -96 57 -4 64 -7 77 -33 9 -16 23 -33 33 -38 16 -9 42 -70
42 -98 0 -6 -22 -13 -49 -17 -59 -8 -176 -80 -233 -144 -62 -68 -45 -132 38
-148 40 -7 200 1 230 13 11 3 -9 -23 -43 -60 -39 -41 -75 -94 -97 -139 -34
-74 -73 -235 -62 -263 14 -37 143 -3 210 56 35 31 43 34 54 22 16 -17 43 -10
96 24 l40 26 18 -23 c28 -34 22 -48 -33 -76 -149 -75 -240 -225 -238 -389 1
-76 10 -109 32 -113 33 -7 127 29 190 72 l65 44 5 -86 c3 -48 10 -104 17 -125
12 -42 65 -107 86 -107 42 0 137 125 160 212 30 115 11 219 -57 303 -54 67
-55 64 3 48 60 -16 158 -12 201 8 58 26 39 109 -41 180 -55 48 -107 63 -194
56 -46 -4 -68 -2 -68 5 0 6 -12 26 -26 45 -23 30 -24 38 -15 65 14 39 14 99 1
134 -10 25 -9 26 12 20 96 -29 230 -12 309 41 46 31 49 52 13 105 -44 62 -129
108 -230 122 -39 5 -177 -13 -216 -29 -14 -5 -20 5 -37 60 -27 85 -26 92 4 99
13 3 33 16 44 27 18 19 24 20 73 10 86 -18 219 16 233 60 9 28 -3 57 -51 125
-66 93 -159 157 -269 185 l-47 12 7 36 c3 20 7 42 7 48 1 7 25 27 55 43 l53
30 37 -42 c61 -67 118 -98 180 -98 39 0 55 -4 60 -15 7 -19 65 -50 110 -60 48
-10 135 12 188 47 41 27 126 126 137 159 2 7 16 4 38 -9 19 -11 52 -25 73 -32
24 -7 37 -17 33 -25 -2 -7 -8 -33 -11 -59 l-7 -46 -62 0 c-43 0 -70 -6 -93
-20 -29 -17 -33 -25 -33 -63 0 -71 65 -148 155 -182 40 -16 54 -34 55 -70 0
-6 -42 -10 -106 -10 l-106 0 -29 -33 c-48 -54 -34 -110 43 -176 51 -44 171
-106 204 -106 18 0 24 -6 24 -20 0 -26 26 -78 53 -107 11 -13 18 -26 14 -29
-3 -3 -51 -12 -106 -20 -170 -24 -271 -78 -352 -188 -37 -50 -40 -112 -6 -147
33 -36 95 -72 147 -85 l45 -11 3 -64 c3 -52 8 -69 28 -90 l25 -26 -26 -17
c-80 -52 -162 -165 -204 -281 -41 -112 -43 -153 -11 -185 53 -53 263 12 382
119 27 24 51 42 53 39 2 -2 1 -29 -2 -60 l-6 -56 -46 -7 c-166 -23 -301 -118
-375 -263 -20 -39 -9 -68 31 -78 47 -12 258 14 328 41 48 18 65 21 65 11 0 -8
-37 -28 -83 -46 -89 -36 -169 -83 -204 -121 -42 -46 -105 -178 -99 -204 11
-43 46 -57 131 -53 41 2 75 2 75 0 0 -1 -13 -29 -30 -62 -41 -81 -72 -200 -74
-281 -1 -58 2 -71 22 -92 49 -52 129 -39 244 39 43 30 80 54 82 54 2 0 6 -16
9 -36 10 -61 53 -109 163 -184 146 -100 186 -93 220 40 20 81 13 154 -27 263
-16 45 -29 84 -29 87 0 9 99 2 174 -11 107 -19 150 23 127 126 -27 119 -94
208 -191 254 -50 24 -66 26 -170 25 -63 -1 -126 -3 -139 -5 -30 -5 -36 17 -47
161 l-7 95 41 -37 c71 -64 212 -124 349 -148 76 -13 106 -6 138 32 66 79 -12
243 -161 338 -64 40 -188 79 -281 87 -40 3 -76 10 -79 15 -9 14 8 228 18 228
5 0 29 -14 54 -31 75 -51 149 -80 261 -100 182 -33 223 -23 223 54 0 155 -332
403 -497 372 -34 -6 -35 -5 -29 17 3 13 9 60 12 105 l7 82 48 -24 c26 -14 75
-32 108 -41 58 -16 62 -20 73 -56 10 -36 14 -39 37 -34 67 16 114 17 213 2
117 -18 172 -14 230 15 21 11 39 19 42 19 3 0 8 -23 12 -51 8 -57 2 -56 99
-15 34 14 79 28 101 31 l39 7 12 -45 c8 -29 30 -64 64 -101 77 -85 206 -145
408 -191 91 -21 178 -47 214 -65 33 -16 66 -30 72 -30 7 0 18 14 25 30 13 31
164 180 182 180 6 0 29 -16 51 -36 62 -57 119 -78 191 -70 34 3 74 9 91 12
l30 7 -43 -48 c-60 -69 -102 -157 -102 -217 0 -41 5 -54 33 -84 64 -70 173
-54 277 43 53 49 61 53 81 42 12 -6 41 -9 64 -6 l43 4 4 -96 c3 -75 9 -106 27
-141 27 -53 66 -96 103 -116 32 -17 115 -18 155 -3 41 15 91 67 105 108 32 96
-9 313 -74 386 l-30 35 23 19 24 19 22 -59 c47 -126 181 -293 267 -333 58 -27
105 -30 145 -9 54 28 73 62 78 140 9 120 -36 213 -162 337 -38 38 -63 67 -53
63 9 -3 53 -11 99 -18 154 -22 322 22 414 110 33 32 53 42 115 55 41 9 84 19
96 22 18 5 31 -11 90 -106 160 -258 247 -304 404 -212 79 46 210 172 239 230
15 30 27 42 37 38 44 -17 217 -66 269 -77 96 -19 274 -18 311 3 49 27 78 106
120 331 16 91 20 98 38 93 12 -4 91 -11 176 -17 130 -10 180 -9 313 5 172 18
224 33 262 78 69 81 58 258 -30 481 -7 16 3 17 111 17 243 0 409 52 455 142
25 48 29 131 8 173 -16 35 -88 75 -134 75 -16 0 -62 -9 -100 -21 -158 -48
-192 -56 -237 -61 -27 -3 -48 -3 -48 1 0 3 31 23 70 44 194 106 258 221 170
309 -40 39 -88 38 -176 -6 -38 -19 -81 -39 -97 -45 -25 -10 -27 -9 -18 7 6 10
17 24 25 31 8 7 29 34 46 61 29 45 34 48 56 39 58 -22 185 3 209 40 4 8 16 3
37 -14 81 -68 182 -95 358 -95 189 0 340 39 429 109 50 40 93 120 94 177 0 39
-5 50 -37 82 -34 35 -40 37 -99 36 -52 -1 -77 -8 -158 -48 -167 -80 -306 -104
-418 -70 -29 8 -51 17 -49 20 3 2 41 10 87 18 101 18 162 52 195 109 32 56 40
99 26 141 -24 75 -86 83 -235 31 -55 -19 -119 -35 -142 -35 l-42 0 51 108 c28
59 52 108 53 110 1 2 20 -8 40 -22 57 -39 109 -50 230 -49 319 1 614 177 615
366 0 41 -29 88 -66 103 -53 22 -122 5 -286 -72 -150 -69 -258 -104 -327 -104
l-44 0 46 35 c25 19 57 35 72 35 70 0 310 108 414 186 74 56 121 122 121 172
0 69 -67 133 -122 117 -38 -12 -88 -53 -183 -152 -94 -98 -160 -139 -171 -108
-11 27 4 58 66 142 151 207 165 321 43 375 -67 30 -106 19 -170 -47 -37 -38
-68 -86 -107 -167 -50 -102 -106 -252 -106 -283 0 -6 -9 -20 -20 -30 -19 -18
-20 -17 -20 5 0 13 14 66 31 119 70 220 38 405 -68 388 -49 -8 -99 -49 -144
-120 -52 -81 -69 -141 -76 -269 l-6 -107 -46 -50 c-43 -47 -116 -95 -131 -86
-3 2 -3 34 1 72 12 101 10 221 -2 246 -6 12 -22 31 -35 42 l-23 20 68 105 c38
58 124 209 192 335 68 127 140 254 161 284 21 30 38 63 38 73 0 34 -28 18 -61
-34 -57 -89 -124 -163 -211 -232 -152 -122 -256 -174 -403 -201 -48 -9 -105
-23 -126 -30 -74 -26 -38 40 65 119 199 152 394 420 465 639 7 21 28 60 47 88
19 28 46 90 60 137 15 48 34 95 43 105 13 15 13 20 1 27 -27 17 -47 -9 -75
-97 -15 -48 -36 -105 -46 -125 -50 -99 -197 -195 -392 -257 -133 -42 -135 -42
-99 22 62 108 112 296 112 416 0 31 9 78 19 106 27 70 30 118 10 123 -13 2
-20 -10 -29 -50 -26 -110 -73 -178 -168 -244 -37 -26 -93 -67 -124 -91 -36
-28 -58 -39 -58 -30 0 48 66 329 97 414 11 30 14 59 9 95 -9 70 -9 69 -1 96
10 31 -20 30 -41 -3 -13 -20 -14 -31 -5 -56 24 -69 11 -111 -64 -209 -62 -80
-161 -171 -240 -222 -83 -52 -123 -73 -130 -67 -2 3 0 34 5 69 11 76 8 108
-31 329 -33 185 -35 240 -14 301 19 54 20 134 1 149 -20 17 -30 -3 -27 -55 3
-47 -23 -106 -61 -140 -22 -21 -103 -74 -112 -74 -2 0 -6 42 -9 93 -2 50 -10
118 -18 149 -13 57 -13 58 20 126 34 71 42 131 21 157 -19 23 -30 8 -30 -44 0
-35 -7 -59 -28 -92 -51 -80 -142 -168 -229 -221 -78 -48 -144 -107 -155 -139
-3 -8 -9 -11 -13 -7 -13 12 -44 137 -71 283 -14 78 -37 165 -51 198 -22 48
-25 66 -19 112 5 46 4 55 -9 55 -38 0 -46 -106 -13 -174 20 -42 20 -47 6 -63
-26 -28 -53 -99 -77 -203 -26 -109 -69 -218 -120 -305 l-35 -60 -18 127 c-27
190 -109 504 -157 604 -59 123 -155 245 -180 229 -18 -11 -12 -30 19 -60 26
-25 30 -36 30 -80 0 -83 -25 -148 -84 -217 -62 -73 -211 -274 -250 -335 -33
-55 -74 -177 -88 -271 l-12 -74 -44 89 c-39 77 -66 116 -156 228 -19 23 -19
23 17 55 43 37 59 86 46 133 -10 37 -52 81 -88 92 -21 6 -23 11 -17 49 8 48
45 132 88 199 22 35 28 51 20 59 -15 15 -36 -3 -70 -61 -14 -25 -63 -81 -107
-126 -45 -44 -97 -99 -117 -122 l-37 -43 -75 0 c-89 0 -166 15 -220 42 l-39
20 34 26 c52 39 151 142 187 193 68 100 100 260 71 364 -15 53 -77 115 -116
115 -79 0 -134 -86 -147 -230 -11 -118 -30 -172 -81 -227 l-44 -48 -1 57 c0
68 -13 105 -47 137 -24 23 -25 27 -17 90 5 36 9 99 9 139 0 71 -1 75 -33 103
-39 35 -97 39 -152 11z m131 -43 c20 -20 21 -28 14 -103 -4 -44 -9 -104 -10
-133 -2 -44 -7 -56 -32 -77 -16 -14 -38 -43 -48 -65 -10 -23 -21 -41 -25 -41
-10 0 -56 97 -69 145 -15 56 -14 179 3 219 30 72 121 101 167 55z m427 -64
c58 -65 57 -198 -2 -322 -29 -60 -55 -95 -124 -163 -114 -115 -203 -153 -218
-95 -10 42 3 71 71 144 83 90 101 129 116 237 17 131 35 189 65 213 37 29 57
26 92 -14z m-2148 -8 c19 -13 60 -32 90 -42 70 -23 104 -58 124 -125 28 -95
18 -113 -60 -104 -96 12 -179 -30 -193 -96 l-7 -35 -15 29 c-8 16 -26 38 -41
49 -33 25 -122 34 -172 17 -30 -10 -38 -9 -51 4 -21 21 -19 41 11 97 25 46 40
58 142 122 23 15 42 31 42 35 0 15 62 72 79 72 9 0 32 -11 51 -23z m1430 -62
c37 -19 70 -62 70 -92 0 -43 41 -147 81 -205 27 -40 39 -69 39 -92 0 -33 -2
-35 -43 -41 -73 -11 -125 9 -187 73 -30 32 -66 79 -79 106 -76 155 -1 313 119
251z m334 -208 c44 -32 37 -169 -11 -207 -32 -25 -45 -25 -74 -2 -40 33 -23
141 32 201 23 24 29 25 53 8z m-1577 -48 c15 -6 59 -15 97 -19 41 -5 75 -14
85 -24 23 -24 18 -89 -15 -171 -50 -126 -130 -184 -207 -151 -43 17 -55 36
-33 48 47 27 79 170 44 204 -17 17 -77 33 -125 34 -25 0 -33 4 -33 18 0 53
114 90 187 61z m427 -21 c20 -20 41 -58 54 -98 29 -86 53 -124 101 -157 22
-16 41 -35 44 -44 7 -26 -29 -128 -66 -183 -39 -59 -103 -106 -181 -133 -64
-23 -287 -26 -324 -5 -29 17 -25 21 30 33 69 16 120 52 155 111 36 59 63 151
63 213 0 45 -29 100 -57 109 -15 5 -18 17 -17 82 1 70 3 78 25 90 13 7 50 13
83 14 52 0 61 -3 90 -32z m-980 12 c14 -5 26 -17 26 -25 0 -27 -51 -119 -87
-156 -44 -46 -42 -77 6 -101 19 -10 50 -33 69 -53 20 -20 48 -39 64 -42 33 -6
32 -6 14 -42 -15 -29 -61 -63 -135 -101 -60 -30 -145 -30 -199 0 -32 18 -98
91 -194 215 -17 22 -17 25 27 120 83 178 106 194 277 195 59 0 118 -4 132 -10z
m1591 -11 c29 -8 60 -32 115 -89 41 -42 90 -83 108 -90 33 -13 40 -24 22 -35
-5 -3 -10 -28 -10 -55 0 -43 -4 -52 -27 -67 -18 -12 -46 -18 -79 -17 -103 1
-297 126 -324 209 -35 106 65 180 195 144z m-1343 -30 l31 -30 -29 -30 c-26
-28 -29 -36 -28 -100 0 -58 -2 -70 -17 -74 -10 -4 -28 -19 -39 -36 -17 -23
-29 -29 -57 -29 -28 0 -42 8 -72 40 -20 22 -41 40 -47 40 -6 0 -19 6 -30 14
-18 14 -18 15 9 36 16 13 44 55 63 94 44 92 62 106 131 106 48 0 58 -4 85 -31z
m3361 -46 c43 -85 67 -161 111 -339 47 -194 69 -333 64 -408 -3 -55 -9 -72
-45 -123 -55 -78 -97 -164 -123 -252 -12 -40 -26 -69 -30 -64 -4 4 -41 59 -83
120 -64 97 -81 131 -117 243 -39 117 -42 137 -38 204 3 52 11 85 27 111 24 42
15 69 -14 45 -27 -22 -36 -48 -55 -155 -10 -57 -28 -124 -39 -150 -30 -68
-113 -178 -123 -162 -4 6 -8 48 -8 93 0 96 27 213 71 301 33 68 168 259 257
363 62 73 87 123 97 193 4 26 9 47 11 47 2 0 19 -30 37 -67z m-3154 -29 c17
-4 36 -15 42 -25 13 -24 -3 -87 -31 -122 -27 -34 -84 -46 -109 -23 -9 9 -32
19 -50 22 -56 11 -71 85 -26 129 20 21 34 25 83 25 33 0 74 -3 91 -6z m343
-101 c25 -22 24 -93 -2 -169 -44 -127 -93 -167 -231 -185 -80 -11 -82 -11
-107 14 l-25 25 26 31 c14 17 31 46 38 65 11 31 16 34 53 34 46 -1 109 27 143
64 12 12 34 49 48 81 15 31 29 57 32 57 4 0 15 -7 25 -17z m1294 -18 c39 -60
-27 -165 -104 -165 -68 0 -128 68 -120 136 3 27 7 29 56 35 29 4 56 10 59 13
4 3 26 6 49 6 35 0 47 -5 60 -25z m714 -53 c-14 -85 0 -234 26 -284 9 -18 41
-60 71 -93 36 -40 73 -98 112 -180 93 -189 98 -234 46 -365 -19 -48 -41 -117
-49 -151 l-13 -64 -25 55 c-32 69 -48 144 -48 220 0 68 -13 110 -35 110 -13 0
-14 -11 -9 -68 5 -50 2 -84 -10 -128 -16 -54 -26 -68 -121 -159 -56 -55 -113
-115 -125 -132 -26 -40 -35 -41 -54 -5 -67 130 -108 423 -86 621 21 187 78
369 162 508 32 54 157 198 165 190 2 -2 -1 -36 -7 -75z m1300 -88 c14 -103 59
-272 114 -428 58 -163 77 -252 77 -351 1 -79 0 -81 -55 -175 -30 -52 -74 -141
-96 -198 -40 -98 -90 -274 -90 -313 0 -11 -4 -19 -10 -19 -16 0 -12 129 6 190
28 99 28 100 10 100 -10 0 -24 -17 -35 -40 l-18 -40 -13 42 c-29 100 -102 217
-194 316 l-50 53 13 60 c12 58 9 79 -10 79 -19 0 -32 -58 -39 -180 -5 -91 -13
-141 -29 -182 -12 -32 -26 -58 -31 -58 -4 0 -13 20 -19 44 -36 146 19 332 154
521 137 190 201 325 240 499 17 79 51 173 60 164 3 -2 9 -40 15 -84z m-3753
46 c31 -16 64 -30 73 -30 27 0 43 -26 36 -56 -16 -61 -101 -115 -181 -113 -25
0 -36 9 -67 58 -46 71 -47 99 -9 140 37 40 74 40 148 1z m1944 -4 c61 -34 154
-56 238 -56 l70 0 -39 -82 c-22 -45 -40 -88 -40 -95 0 -14 -71 -17 -102 -5 -9
4 -36 34 -61 67 -24 33 -72 87 -106 120 -33 33 -61 63 -61 67 0 17 59 7 101
-16z m-131 -89 l-1 -72 -20 25 c-17 20 -20 33 -15 68 12 92 36 78 36 -21z
m743 30 c16 -32 17 -39 3 -70 -18 -43 -51 -65 -60 -40 -10 26 -19 130 -13 147
10 25 50 4 70 -37z m-3273 -62 c76 -93 130 -127 206 -129 44 -1 53 -4 47 -16
-24 -55 -5 -169 38 -224 10 -13 16 -31 13 -40 -10 -26 -125 -95 -179 -107 -68
-15 -181 -8 -227 15 -30 15 -40 27 -49 60 -6 22 -27 72 -47 110 -32 61 -36 78
-36 145 0 82 18 137 57 180 26 28 96 81 108 81 4 0 35 -34 69 -75z m2654 -22
c73 -87 126 -179 150 -264 15 -49 15 -72 6 -168 -8 -80 -8 -146 -1 -237 6 -69
11 -131 11 -139 0 -7 -26 14 -57 47 -32 34 -92 88 -133 121 -65 52 -78 67 -99
121 -37 95 -34 227 7 370 20 67 32 131 32 167 0 33 4 59 10 59 5 0 38 -35 74
-77z m-245 -13 c-33 -61 -113 -144 -133 -137 -17 6 -19 37 -5 63 15 28 8 38
-20 29 -27 -8 -37 -48 -23 -91 10 -33 9 -35 -27 -53 -74 -38 -149 -54 -240
-49 -147 7 -219 57 -229 158 -4 42 -1 49 23 68 34 27 55 27 168 1 152 -36 362
-15 413 42 9 10 27 19 39 19 11 0 30 6 41 14 30 23 28 1 -7 -64z m2556 6 c12
-44 16 -89 13 -146 l-3 -83 -45 -36 c-83 -66 -175 -166 -206 -225 l-31 -58
-13 53 c-7 30 -26 94 -42 143 -29 87 -29 91 -13 132 19 51 84 112 185 174 40
25 84 60 97 78 14 17 29 32 33 32 4 0 16 -29 25 -64z m-4415 -14 c41 -60 50
-67 83 -70 20 -2 53 1 73 7 77 21 124 -34 124 -144 0 -124 -42 -174 -167 -200
-43 -9 -104 -22 -135 -28 l-57 -13 -72 65 c-150 136 -161 271 -28 343 33 17
74 48 92 69 17 20 34 38 37 38 3 0 25 -30 50 -67z m1944 -141 c-31 -107 -37
-241 -15 -320 7 -23 9 -46 6 -49 -10 -10 -113 102 -120 131 -6 21 0 32 27 60
54 53 71 138 47 231 -9 36 -8 49 5 74 l16 31 31 -31 30 -31 -27 -96z m-996 26
c19 -23 99 -191 110 -231 7 -23 7 -48 1 -71 -19 -66 -180 -204 -263 -224 -27
-7 -69 -24 -93 -38 -38 -22 -51 -24 -96 -18 -84 11 -170 46 -183 75 -45 98
-64 128 -112 175 l-55 53 21 29 c31 43 44 102 40 176 -2 56 0 67 13 67 9 0 24
-9 34 -20 36 -40 95 -53 222 -48 131 5 208 27 278 77 41 29 58 28 83 -2z m906
7 c13 -34 5 -101 -16 -144 -13 -24 -27 -45 -33 -47 -5 -2 -20 25 -33 59 l-22
62 42 43 c48 47 53 50 62 27z m459 -21 c2 -5 -2 -26 -8 -48 l-13 -40 -11 28
c-6 16 -16 37 -21 48 -10 17 -7 19 19 19 16 0 32 -3 34 -7z m2342 -288 c31
-138 36 -276 13 -340 -13 -35 -22 -43 -84 -70 -38 -16 -90 -42 -114 -57 -61
-36 -168 -131 -226 -200 -26 -32 -50 -55 -52 -53 -8 8 -31 240 -32 320 l0 80
50 62 c28 34 50 66 50 72 0 25 -22 18 -60 -21 l-42 -43 6 45 c20 133 150 287
341 400 l110 66 7 -71 c4 -38 19 -124 33 -190z m-3469 230 c10 -25 85 -63 152
-76 80 -15 198 -6 276 20 l58 21 -6 -23 c-3 -12 -13 -50 -22 -83 -16 -61 -16
-62 -57 -67 -22 -3 -52 -14 -66 -24 -32 -24 -71 -98 -71 -136 0 -67 60 -132
132 -143 34 -6 34 -6 47 -83 13 -76 52 -193 73 -218 6 -7 8 -16 5 -20 -4 -3
-68 55 -144 129 -76 73 -173 165 -216 202 -90 79 -116 123 -153 259 -29 107
-44 257 -25 257 6 0 14 -7 17 -15z m-2030 -55 c39 -25 75 -78 100 -150 15 -45
19 -82 18 -200 -1 -128 -4 -159 -31 -260 -45 -171 -123 -353 -221 -515 l-36
-60 -8 35 c-18 76 -50 164 -74 202 l-25 39 20 64 c36 115 37 195 6 346 -35
166 -40 328 -12 400 43 112 166 158 263 99z m2589 -47 c31 -123 37 -136 84
-186 25 -27 91 -80 146 -118 110 -75 235 -190 282 -259 17 -25 49 -90 71 -144
l41 -100 -37 -57 c-20 -32 -42 -66 -48 -76 -10 -16 -12 -15 -27 13 -9 18 -38
56 -65 85 -27 30 -54 64 -61 76 -6 13 -18 76 -26 140 -11 92 -21 130 -43 173
-41 78 -86 81 -47 3 14 -28 13 -34 -7 -79 -20 -43 -23 -65 -23 -176 0 -109 -2
-128 -15 -128 -28 0 -134 31 -156 45 -35 23 -96 124 -120 200 -30 93 -48 267
-40 375 7 86 53 280 66 280 4 0 16 -30 25 -67z m1457 -248 c14 -33 52 -97 84
-141 69 -93 102 -162 115 -246 5 -33 16 -78 24 -100 14 -41 13 -41 -27 -95
-22 -29 -51 -81 -63 -114 l-22 -61 -37 82 c-82 181 -97 229 -90 300 4 45 1 84
-10 126 -9 34 -16 85 -16 114 0 44 -3 51 -17 48 -15 -3 -18 -14 -17 -68 0 -36
6 -92 13 -125 20 -92 5 -138 -95 -296 -47 -74 -89 -138 -94 -143 -4 -4 -13 18
-20 50 -6 33 -27 96 -47 141 -34 81 -34 84 -24 153 21 132 74 256 176 405 37
55 75 116 83 135 l15 35 22 -70 c12 -38 33 -97 47 -130z m-2033 50 c28 -98 75
-170 151 -233 36 -30 124 -111 195 -182 171 -168 266 -227 413 -254 l65 -12
17 -84 c15 -73 46 -174 75 -244 7 -17 6 -17 -16 -6 -13 7 -54 42 -91 77 l-66
64 -69 -21 c-44 -13 -96 -21 -147 -22 -43 0 -92 -4 -108 -9 -60 -17 -124 41
-187 169 -58 116 -75 166 -116 337 -30 125 -45 167 -92 255 -65 122 -75 155
-66 230 5 45 8 50 14 30 4 -14 16 -56 28 -95z m-1168 15 c52 12 122 28 157 37
61 15 65 15 90 -4 46 -34 111 -121 122 -164 19 -70 6 -106 -63 -172 -95 -89
-98 -91 -142 -73 -51 22 -108 20 -157 -5 -52 -26 -77 -20 -136 35 -57 53 -82
66 -122 66 -40 0 -80 44 -147 162 -18 33 -1 60 73 111 38 26 80 59 94 72 l24
25 57 -56 56 -56 94 22z m1615 3 c-3 -21 -6 -73 -6 -117 l0 -78 -27 6 c-65 16
-104 73 -89 132 10 40 68 94 101 94 26 0 27 -2 21 -37z m-526 -44 c0 -18 24
-76 61 -144 50 -94 66 -138 95 -256 19 -78 33 -146 32 -151 -5 -15 -90 57
-132 112 l-39 51 17 51 c21 67 20 106 -5 172 -14 38 -34 68 -64 94 l-44 39 32
31 c39 40 47 40 47 1z m-1735 9 c31 -14 31 -17 -6 -46 l-29 -24 0 41 c0 46 -1
45 35 29z m203 -51 c-1 -36 11 -63 51 -117 15 -19 33 -48 41 -63 15 -31 57
-57 90 -57 28 0 25 -24 -7 -60 -24 -27 -32 -30 -61 -24 -19 4 -35 12 -37 18
-2 6 -9 31 -15 55 -17 64 -57 101 -112 101 -49 0 -127 -33 -175 -74 -37 -31
-38 -28 -19 61 17 78 41 119 95 160 36 28 51 33 96 33 l54 0 -1 -33z m5527
-68 c-66 -344 -131 -570 -206 -708 -122 -228 -342 -424 -617 -551 -62 -29
-115 -51 -116 -49 -2 2 7 46 20 97 34 136 47 291 39 472 l-6 155 49 65 c108
142 232 233 416 306 66 25 142 60 170 76 71 42 178 130 222 183 21 24 39 43
41 41 2 -2 -3 -41 -12 -87z m-6907 46 c145 -67 313 -308 351 -501 8 -43 8 -69
1 -88 -5 -15 -10 -60 -10 -99 0 -70 16 -128 84 -302 18 -48 20 -100 5 -143
-10 -30 -12 -31 -57 -25 -69 8 -110 67 -156 226 -29 100 -69 179 -107 211 -19
16 -30 41 -42 93 -21 92 -80 218 -151 322 -77 110 -106 175 -106 233 0 39 4
50 31 72 39 33 87 34 157 1z m2855 -35 c45 -35 77 -146 61 -207 -7 -25 -24
-31 -24 -9 0 21 -29 41 -41 29 -7 -7 -5 -22 7 -46 9 -19 14 -42 11 -50 -5 -15
-64 -40 -122 -52 -19 -4 -53 -31 -95 -75 -68 -73 -119 -100 -186 -100 -48 0
-64 22 -64 86 0 71 -19 114 -80 181 -27 30 -50 59 -50 64 0 5 -13 17 -28 27
-27 16 -28 19 -16 49 l13 31 70 -24 c102 -36 177 -41 221 -15 52 31 71 39 112
46 22 3 57 22 85 45 54 44 88 49 126 20z m4362 -92 c-15 -132 -63 -271 -128
-369 -26 -41 -42 -53 -87 -70 -30 -11 -89 -38 -129 -59 -41 -22 -76 -38 -78
-36 -2 2 10 45 27 97 17 52 38 120 47 152 21 75 86 148 202 227 48 32 99 72
115 89 17 17 32 31 34 31 2 0 1 -28 -3 -62z m-7572 -49 c12 -6 36 -25 54 -42
33 -31 34 -33 69 -217 19 -104 64 -224 105 -280 29 -39 30 -44 17 -74 -7 -18
-13 -66 -12 -113 0 -74 4 -89 39 -160 42 -85 109 -159 174 -192 36 -19 41 -26
41 -55 0 -18 5 -47 11 -65 6 -18 9 -34 6 -38 -3 -3 -57 20 -119 50 -116 57
-162 93 -243 194 -22 28 -55 61 -73 74 -127 91 -214 221 -264 396 -33 114 -33
310 0 405 30 86 74 128 133 128 22 0 50 -5 62 -11z m1741 -22 c60 -81 1 -372
-122 -597 -58 -107 -110 -178 -180 -246 l-65 -64 -64 0 c-82 0 -107 -14 -182
-97 -68 -77 -181 -148 -181 -115 0 10 13 31 30 47 16 16 42 47 57 69 15 23 55
70 89 106 70 75 162 211 204 303 16 35 40 118 54 186 55 257 109 361 218 415
67 34 113 32 142 -7z m845 -38 c14 -17 42 -48 63 -69 52 -54 71 -95 70 -157
-1 -101 -24 -145 -136 -258 -81 -81 -109 -103 -139 -109 -39 -7 -101 5 -131
27 -17 13 -17 16 12 68 70 124 102 294 71 376 -9 23 -8 30 7 38 10 6 42 34 72
63 30 28 61 52 69 52 9 0 27 -14 42 -31z m2394 -180 c58 -107 97 -229 97 -300
0 -26 -16 -70 -49 -136 -78 -155 -111 -280 -111 -428 l0 -69 -44 43 c-88 86
-121 225 -113 476 3 97 11 181 20 213 13 48 13 54 -1 59 -21 8 -45 -24 -142
-187 l-80 -135 0 89 c0 181 41 270 190 417 59 58 115 118 125 133 l18 27 17
-48 c9 -26 42 -96 73 -154z m-2941 136 c28 -25 55 -45 60 -45 5 0 -13 -28 -40
-62 -27 -35 -76 -109 -108 -165 -32 -57 -62 -103 -67 -103 -17 0 -87 78 -87
97 0 11 16 46 36 79 20 32 45 79 55 103 11 25 35 62 54 83 19 21 35 43 35 48
0 17 11 11 62 -35z m4299 -425 c26 -302 -15 -579 -107 -718 -29 -44 -120 -120
-131 -109 -1 2 4 35 12 73 27 129 18 295 -27 472 -20 82 -20 86 -3 189 27 169
96 367 179 513 l30 54 18 -169 c9 -94 22 -231 29 -305z m-496 365 c123 -173
161 -349 115 -531 -51 -198 -190 -396 -343 -486 -37 -23 -69 -39 -71 -37 -3 2
7 37 20 77 34 99 40 203 20 325 -9 54 -23 114 -31 134 -21 50 -19 142 5 206
12 31 43 80 72 113 57 65 89 131 114 229 16 65 17 65 36 48 11 -10 40 -45 63
-78z m-1595 -30 c13 -116 22 -134 100 -221 77 -85 88 -120 66 -209 -9 -36 -19
-92 -23 -125 -3 -33 -9 -60 -14 -60 -37 0 -80 70 -118 195 -31 98 -61 283 -61
372 0 81 18 169 31 156 5 -5 13 -53 19 -108z m-1931 65 c27 -14 51 -82 51
-143 0 -181 -129 -403 -335 -574 -113 -94 -300 -202 -452 -262 l-53 -21 -6 28
c-12 47 -42 99 -75 126 l-32 27 59 63 c43 45 70 66 99 74 52 14 153 82 230
154 57 54 104 122 210 306 100 174 224 265 304 222z m-464 -40 c7 -11 -17 -66
-43 -98 -18 -24 -18 -23 -9 42 8 53 14 66 28 66 10 0 20 -4 24 -10z m1398 -77
c9 -45 -1 -42 -42 10 -12 15 -12 19 5 32 22 15 28 9 37 -42z m4641 -30 c-72
-165 -169 -298 -320 -442 -59 -56 -109 -100 -111 -97 -3 3 9 40 25 83 17 43
33 100 37 127 4 27 16 55 25 64 19 16 16 42 -4 42 -25 0 -53 -47 -64 -106 -13
-77 -68 -197 -113 -248 -67 -77 -175 -130 -324 -160 -68 -14 -375 -46 -375
-39 0 1 33 27 73 57 101 76 243 226 304 321 63 97 81 116 157 166 70 46 123
67 326 126 144 42 308 109 355 146 34 27 36 19 9 -40z m-4700 0 c98 -111 100
-119 43 -207 l-31 -48 -74 6 c-41 4 -99 16 -130 28 -46 17 -57 18 -61 7 -11
-34 -63 -67 -132 -84 -39 -10 -83 -28 -99 -41 -36 -31 -46 -30 -65 6 -22 43
-19 56 24 91 23 18 48 51 61 80 18 43 23 48 40 39 27 -15 78 -12 140 6 45 13
67 29 120 84 93 97 106 99 164 33z m262 -91 c24 -10 38 -32 79 -120 36 -77 63
-121 98 -156 45 -45 47 -49 30 -62 -25 -19 -29 -18 -55 15 -13 16 -54 50 -92
76 -37 27 -81 66 -98 89 -54 74 -103 182 -123 270 -6 27 -1 25 62 -35 38 -36
82 -70 99 -77z m1943 -50 c120 -278 131 -308 147 -408 23 -130 9 -254 -38
-353 -40 -86 -148 -195 -208 -211 -49 -13 -105 -66 -139 -132 l-25 -46 -85
171 -86 172 1 130 c1 219 40 321 238 629 64 99 116 184 116 188 0 30 23 -12
79 -140z m-4451 59 c71 -36 142 -152 163 -264 25 -136 -29 -291 -155 -441
l-25 -30 -39 36 c-22 19 -47 40 -57 45 -15 9 -16 15 -6 43 21 63 13 126 -29
231 -73 181 -78 303 -15 366 28 28 40 33 79 33 26 0 63 -8 84 -19z m887 -133
c19 -13 35 -26 35 -30 0 -18 -137 -151 -201 -194 -74 -51 -94 -53 -61 -6 24
32 120 229 140 282 l12 35 20 -32 c11 -18 35 -43 55 -55z m1515 -1 l32 -59
-48 7 c-79 10 -77 9 -49 66 15 28 28 49 29 47 2 -1 18 -29 36 -61z m1180 -3
c-6 -27 -10 -103 -9 -169 2 -100 0 -126 -15 -154 -10 -19 -26 -58 -36 -85
l-17 -51 -12 40 c-28 102 5 306 71 438 25 50 32 43 18 -19z m-3205 -26 c-10
-29 -29 -75 -42 -103 -27 -54 -129 -211 -142 -220 -21 -12 16 86 55 145 23 36
63 105 89 153 26 48 50 86 52 83 3 -3 -3 -29 -12 -58z m1708 -29 c21 -5 92
-14 158 -19 143 -12 195 -24 271 -61 116 -58 168 -130 168 -231 0 -30 -5 -69
-11 -87 -11 -31 -11 -31 -82 -31 -45 -1 -93 -8 -127 -20 l-55 -19 -15 22 c-26
38 -68 74 -117 98 -45 22 -60 24 -222 25 l-175 0 -23 37 c-13 20 -41 49 -63
63 -81 54 -39 130 92 165 53 15 87 30 105 49 16 15 35 25 43 23 8 -3 32 -9 53
-14z m-2595 -14 c35 -25 67 -91 106 -215 19 -63 48 -136 64 -161 l30 -46 -34
-12 c-19 -7 -48 -24 -65 -39 l-31 -26 -45 24 c-125 66 -218 262 -183 389 23
85 99 127 158 86z m4220 -115 c-13 -58 -21 -134 -24 -240 -5 -175 4 -162 -96
-133 -67 19 -68 21 -34 119 30 88 162 352 171 342 2 -2 -6 -41 -17 -88z
m-2058 70 c0 -5 14 -25 30 -43 17 -19 30 -44 30 -54 0 -19 -10 -21 -193 -27
-179 -7 -248 -3 -247 13 1 3 14 21 29 39 l28 33 34 -20 c80 -46 175 -34 237
29 39 39 52 47 52 30z m2134 -315 c28 -113 50 -160 103 -217 87 -95 179 -250
247 -418 24 -59 35 -136 19 -128 -17 7 -109 75 -144 106 -21 18 -55 59 -75 90
-21 31 -60 91 -87 132 -49 74 -88 169 -102 248 -4 23 -11 44 -16 48 -5 3 -9
53 -9 112 0 106 8 176 32 282 l13 55 6 -140 c3 -77 9 -153 13 -170z m-441 105
c75 -37 87 -46 101 -81 17 -43 21 -85 8 -93 -5 -3 -31 2 -58 10 -32 10 -75 14
-125 11 -65 -3 -86 -9 -144 -41 -37 -20 -69 -35 -72 -33 -2 3 -7 30 -10 61 -7
63 -14 67 -66 36 -39 -23 -189 -44 -242 -34 -32 6 -33 6 -23 42 6 21 8 69 5
109 -4 59 -2 74 11 86 37 32 81 44 177 50 55 3 127 14 160 25 l60 19 66 -63
c44 -40 97 -76 152 -104z m1730 103 c3 -16 17 -73 33 -128 24 -89 28 -117 28
-260 1 -142 -2 -167 -22 -226 -20 -58 -30 -72 -87 -118 -36 -29 -79 -71 -97
-94 -17 -23 -35 -46 -38 -50 -4 -5 -41 16 -82 45 -95 69 -217 132 -294 153
l-60 17 50 47 c28 26 80 61 116 78 128 60 228 151 318 291 42 66 98 190 108
242 8 37 20 39 27 3z m1937 -165 c-218 -403 -403 -610 -613 -684 -32 -11 -76
-13 -213 -8 l-173 7 66 71 c126 135 262 320 311 423 21 43 82 77 173 94 124
23 182 40 246 70 73 35 229 137 257 168 40 45 26 6 -54 -141z m-5528 110 c214
3 252 -3 308 -55 44 -39 44 -53 0 -53 -58 0 -77 -17 -155 -136 -63 -95 -134
-188 -196 -258 -5 -6 -18 -4 -33 4 l-25 13 39 44 c66 75 89 186 54 259 -41 87
-131 88 -304 5 -106 -52 -113 -52 -104 -3 5 29 23 52 88 114 74 71 84 77 111
70 17 -4 114 -6 217 -4z m742 -152 c57 -17 111 -57 132 -98 15 -28 14 -31 -4
-52 -29 -31 -51 -78 -63 -134 -9 -46 -15 -53 -90 -106 -80 -58 -99 -62 -99
-23 0 44 -21 97 -51 127 -26 26 -38 30 -83 30 -135 0 -289 -142 -416 -381
l-49 -94 -31 68 c-36 77 -48 161 -31 224 8 27 36 71 81 125 38 45 104 133 146
195 48 72 83 115 97 118 24 5 125 10 303 13 72 1 127 -3 158 -12z m-3079 -72
c150 -171 202 -208 374 -272 41 -15 76 -32 78 -38 5 -16 -69 -50 -137 -65
-124 -26 -320 12 -433 85 -106 68 -168 163 -151 233 17 74 100 136 169 129 35
-4 48 -13 100 -72z m2283 40 c30 -34 31 -118 1 -177 -58 -113 -221 -216 -389
-244 -81 -14 -109 -14 -194 -4 -96 12 -232 48 -287 77 l-27 13 24 47 c13 26
24 53 24 59 0 19 149 74 230 85 139 19 269 59 383 116 133 68 193 76 235 28z
m-407 -26 c-6 -30 -12 -34 -66 -50 -99 -27 -103 -20 -20 32 44 27 83 49 86 50
4 0 3 -15 0 -32z m-576 -8 c84 -41 118 -170 67 -252 -53 -85 -247 -134 -370
-94 -61 21 -112 73 -112 115 0 24 9 34 65 66 40 24 81 58 107 92 24 30 57 63
73 73 40 26 116 26 170 0z m5886 -12 c-80 -128 -218 -279 -336 -369 -83 -64
-232 -160 -281 -182 l-40 -18 -66 64 c-73 71 -180 151 -246 183 l-44 21 63 52
c131 106 256 148 509 171 215 20 337 47 420 95 39 22 44 18 21 -17z m-3318
-37 c22 -63 54 -93 148 -142 136 -71 210 -164 210 -264 0 -46 -22 -115 -37
-115 -2 0 -22 9 -42 19 -21 11 -65 25 -98 32 -88 18 -156 -4 -229 -75 -43 -42
-55 -50 -55 -35 0 11 -6 22 -14 25 -8 3 -17 22 -21 42 -9 50 -30 87 -77 138
-53 57 -113 94 -233 144 -55 23 -121 54 -147 68 -41 23 -51 25 -68 14 -20 -12
-20 -12 -5 25 23 55 81 110 134 127 34 11 93 15 231 14 141 0 196 3 230 15 25
8 47 15 50 16 3 1 13 -21 23 -48z m394 10 c32 -11 90 -32 128 -46 39 -15 92
-30 119 -34 l48 -6 24 -81 c12 -44 40 -118 60 -165 30 -68 38 -99 42 -164 9
-178 -71 -322 -191 -342 l-36 -5 15 62 c16 69 13 80 -20 80 -34 0 -105 40
-168 94 l-57 49 21 41 c47 91 16 215 -74 303 -24 23 -83 64 -133 91 -49 27
-90 55 -90 63 0 8 29 29 64 47 77 39 156 43 248 13z m4359 -12 c55 -51 40
-109 -71 -273 -47 -70 -85 -131 -85 -137 0 -7 -7 -8 -17 -4 -40 16 -90 16
-127 1 -22 -9 -41 -14 -44 -11 -17 17 113 316 167 384 56 71 127 87 177 40z
m-7935 6 c85 -30 149 -122 149 -212 0 -108 -128 -178 -228 -125 -84 45 -171
159 -172 225 -1 97 129 155 251 112z m7505 -31 c32 -48 30 -154 -7 -289 -18
-66 -34 -140 -37 -165 -3 -35 -13 -55 -46 -90 -22 -25 -48 -56 -57 -69 -15
-24 -15 -23 -37 50 -52 177 -50 315 8 438 32 68 109 151 140 151 11 0 27 -12
36 -26z m-8645 -6 c52 -17 92 -47 198 -149 140 -136 248 -184 436 -196 105 -6
205 13 273 53 40 24 46 25 60 11 13 -14 11 -17 -22 -31 -21 -9 -50 -25 -66
-36 -63 -45 -137 -62 -275 -63 -124 -2 -132 -3 -180 -31 -41 -24 -59 -29 -105
-27 -170 8 -347 78 -445 177 -46 48 -85 127 -85 175 0 95 106 153 211 117z
m7638 -25 c-132 -219 -289 -397 -485 -553 l-75 -60 -35 52 c-20 29 -31 54 -26
56 30 10 185 106 260 162 109 80 257 223 325 312 28 37 53 68 55 68 2 0 -7
-17 -19 -37z m-4300 -149 c29 -36 28 -58 -1 -47 -41 14 -106 7 -141 -17 -75
-52 -127 -166 -127 -282 0 -67 -1 -69 -31 -86 -57 -31 -86 -61 -108 -113 -25
-57 -51 -180 -51 -240 0 -48 -10 -44 -46 17 -37 63 -42 139 -15 239 45 166
181 394 285 479 93 77 197 99 235 50z m506 -54 c121 -49 169 -77 223 -129 47
-46 67 -81 77 -134 11 -56 -16 -64 -153 -48 -97 12 -114 11 -171 -4 -76 -22
-132 -61 -155 -109 -11 -22 -24 -36 -36 -36 -10 0 -49 -16 -85 -35 l-67 -35 6
25 c18 70 18 111 1 128 -29 30 -60 31 -121 3 -31 -14 -59 -26 -62 -26 -11 0 8
111 26 152 29 66 75 112 197 198 60 43 121 89 133 103 l24 25 32 -19 c18 -10
77 -37 131 -59z m5530 -13 c51 -74 -37 -177 -235 -277 -67 -34 -183 -80 -200
-80 -6 0 -1 18 10 40 11 21 20 46 20 54 0 8 21 24 47 37 28 14 89 65 155 131
59 60 118 112 130 117 30 11 55 3 73 -22z m-6667 -1 c9 -9 10 -19 1 -44 -10
-28 -13 -30 -32 -21 -11 7 -43 14 -70 18 l-49 6 48 32 c49 32 74 35 102 9z
m5448 -12 c15 -22 16 -41 9 -147 -4 -67 -8 -135 -9 -150 -1 -19 -7 -29 -21
-32 -28 -6 -100 -9 -167 -7 -54 2 -57 3 -66 35 -6 17 -12 48 -15 68 -5 33 -2
38 48 77 29 23 79 73 111 111 33 39 67 71 76 71 10 0 25 -11 34 -26z m-4819
-14 c46 -27 52 -61 18 -97 -64 -68 -102 -176 -89 -259 5 -37 2 -46 -29 -87
-48 -63 -77 -146 -85 -242 l-7 -80 -44 -6 c-34 -4 -52 -14 -77 -42 -38 -41
-52 -40 -78 4 -40 68 -26 243 29 355 19 40 36 57 74 77 55 30 61 43 61 134 0
101 54 209 120 244 44 24 67 24 107 -1z m-1446 -16 c184 -65 381 -176 500
-283 130 -116 300 -360 360 -515 39 -101 42 -182 7 -225 -30 -38 -72 -56 -129
-55 -99 1 -186 83 -342 320 -107 164 -202 276 -442 522 -66 68 -146 141 -178
162 -58 39 -58 39 -30 46 66 14 99 25 123 39 34 20 46 19 131 -11z m-553 -15
c42 -48 100 -146 123 -208 45 -121 43 -231 -7 -341 -47 -104 -124 -159 -222
-160 -59 0 -95 15 -132 55 -21 23 -25 36 -25 88 1 65 11 89 80 188 29 40 30
48 30 143 0 77 -4 109 -18 135 -9 19 -16 35 -15 36 2 1 21 7 44 13 23 7 56 27
75 46 19 19 35 35 37 35 2 1 15 -13 30 -30z m137 -14 c33 -10 81 -28 107 -41
70 -35 215 -160 311 -268 92 -104 136 -188 180 -351 31 -113 30 -251 -1 -320
-36 -78 -109 -142 -184 -159 -63 -14 -113 38 -123 128 -3 28 -12 119 -20 201
-27 276 -96 479 -203 596 -26 30 -65 84 -85 121 -21 37 -49 80 -62 96 -31 37
-32 47 -2 28 12 -8 49 -22 82 -31z m5247 -14 c135 -91 263 -223 317 -328 11
-23 21 -46 21 -51 0 -5 -31 -21 -70 -36 -193 -76 -339 -238 -372 -413 -16 -86
-15 -85 -45 -81 -24 3 -28 8 -30 38 -9 130 -66 254 -151 330 -52 46 -154 104
-211 119 -14 4 -27 15 -29 24 -2 10 15 55 37 102 63 129 167 232 315 311 89
49 126 46 218 -15z m-4246 -7 c-3 -9 -6 -34 -6 -56 0 -35 -6 -46 -42 -78 l-41
-38 -34 25 c-18 14 -33 30 -33 37 0 6 16 32 34 57 25 34 45 49 73 57 54 14 56
14 49 -4z m203 -18 c12 -11 21 -29 21 -40 1 -32 46 -154 73 -195 l24 -37 -18
-69 c-37 -145 -15 -251 70 -327 27 -24 51 -53 55 -65 4 -12 13 -27 21 -33 26
-21 17 -30 -31 -30 -60 0 -80 12 -95 57 -40 127 -194 361 -337 514 l-43 47 33
27 c44 37 57 62 58 111 0 22 6 46 13 53 19 19 131 10 156 -13z m-1617 -6 c69
-54 58 -118 -41 -223 -129 -137 -252 -192 -414 -185 -108 4 -154 23 -201 82
-26 32 -31 47 -31 91 0 43 5 59 25 81 46 50 93 63 220 62 131 -1 196 16 297
77 66 40 109 44 145 15z m1242 -30 l-26 -39 -57 31 c-31 17 -60 35 -65 40 -6
4 31 8 82 8 l92 0 -26 -40z m3494 29 c108 -25 381 -184 367 -214 -2 -5 -17
-41 -32 -79 l-28 -68 -40 6 c-142 20 -235 28 -313 25 -83 -4 -93 -6 -128 -35
-21 -16 -45 -44 -53 -62 -12 -24 -23 -32 -45 -32 l-28 0 4 108 c6 126 33 220
81 283 56 74 114 92 215 68z m-570 -105 c18 -23 32 -44 32 -46 0 -2 -18 -2
-40 0 l-40 4 0 51 c0 28 4 47 8 42 5 -6 23 -29 40 -51z m3673 27 c73 -73 3
-158 -255 -310 -135 -79 -146 -79 -146 -2 0 103 103 234 241 304 87 45 121 47
160 8z m-7753 -140 c-5 -38 -16 -67 -38 -95 -66 -87 -94 -189 -71 -259 11 -33
52 -77 95 -102 16 -9 14 -18 -19 -114 -111 -318 -299 -543 -539 -644 -82 -35
-183 -46 -240 -27 -110 36 -152 141 -99 245 30 57 138 158 273 254 158 112
268 214 353 326 67 89 128 211 147 295 9 39 25 68 53 100 22 25 49 65 61 89
l21 43 5 -28 c3 -16 2 -53 -2 -83z m3427 75 c28 -13 91 -55 140 -94 50 -40
110 -79 133 -89 41 -15 43 -18 38 -47 -24 -116 -38 -218 -45 -328 -10 -149
-30 -203 -108 -282 -92 -93 -216 -124 -327 -82 l-47 18 46 49 c57 61 82 115
100 221 18 101 19 187 3 242 -17 58 -98 136 -166 160 -41 14 -60 28 -79 57
-30 45 -26 62 28 123 75 86 172 103 284 52z m3875 -146 c6 -10 10 -46 10 -80
0 -33 7 -77 15 -97 13 -29 13 -42 3 -69 -10 -28 -17 -34 -40 -34 -70 0 -174
83 -198 156 -10 30 -8 37 33 92 24 33 62 94 83 135 l38 75 23 -80 c13 -44 28
-88 33 -98z m-597 118 c7 -44 5 -45 -70 -21 l-55 17 54 26 c29 14 56 23 59 20
4 -3 9 -22 12 -42z m-218 -28 c33 -6 107 -24 165 -40 58 -16 135 -32 171 -35
84 -9 198 9 268 41 30 13 55 23 57 21 8 -7 -67 -106 -113 -148 -56 -53 -88
-65 -193 -73 -69 -5 -149 -22 -192 -41 -15 -6 -18 -2 -18 28 0 43 -31 84 -79
105 -67 28 -466 25 -578 -4 -18 -5 -23 -2 -23 13 0 31 147 140 196 146 59 7
271 -1 339 -13z m-2299 -25 c29 -14 68 -43 88 -65 33 -36 36 -45 36 -99 l0
-58 -87 -7 c-222 -17 -345 -79 -378 -190 -19 -62 -19 -171 0 -256 8 -36 14
-68 15 -72 0 -4 -19 1 -42 11 -24 11 -64 22 -90 26 -48 6 -56 12 -39 31 20 22
33 89 46 242 8 90 17 168 20 173 4 5 14 9 23 9 97 0 200 98 232 220 7 25 14
51 16 59 6 21 96 7 160 -24z m-3785 -21 c21 -35 22 -42 15 -193 -27 -646 -139
-1025 -330 -1123 -76 -39 -198 -21 -227 33 -6 12 -9 48 -7 83 3 52 14 84 71
197 69 138 96 219 142 424 15 66 28 122 31 126 2 3 21 9 42 12 53 9 130 67
172 130 54 80 73 150 68 257 -1 50 -2 90 -1 90 1 0 11 -16 24 -36z m2524 22
c33 0 70 4 82 8 18 7 22 3 28 -26 4 -18 23 -60 43 -93 36 -58 37 -63 37 -155
0 -123 -26 -183 -95 -217 -24 -13 -56 -23 -70 -23 -24 0 -27 5 -37 66 -14 79
-41 114 -89 114 -26 0 -36 7 -54 35 -12 19 -27 35 -33 35 -7 0 3 12 21 26 38
30 41 62 9 92 -31 30 -78 42 -156 42 l-63 0 14 23 c17 25 86 66 132 78 17 4
63 5 101 1 39 -4 97 -6 130 -6z m5346 3 c56 -30 43 -130 -28 -209 -110 -123
-410 -213 -599 -181 -77 14 -154 53 -154 79 0 20 32 107 44 119 4 4 56 11 114
14 126 7 204 31 392 119 156 73 190 82 231 59z m-5963 -66 c2 -12 -8 -68 -22
-125 -44 -177 -37 -270 34 -408 11 -22 20 -42 20 -44 0 -3 -14 -13 -31 -21
l-31 -16 -66 61 c-37 33 -91 80 -120 103 l-54 42 5 85 c7 151 74 272 179 324
61 30 82 30 86 -1z m-3103 -42 c21 -42 81 -88 138 -107 63 -21 230 -15 300 10
27 10 51 15 53 13 3 -3 -31 -34 -75 -69 -221 -177 -464 -260 -761 -260 -219 0
-357 37 -444 120 -91 87 -89 205 5 274 38 29 123 33 256 13 140 -21 308 -16
423 14 41 10 78 19 82 20 4 1 14 -12 23 -28z m1303 -163 c27 -101 56 -278 45
-278 -3 0 -25 18 -50 40 -25 22 -50 40 -55 40 -5 0 -6 21 -4 48 3 26 8 101 12
166 6 111 7 117 19 89 7 -17 22 -64 33 -105z m2208 117 c24 -10 34 -20 32 -32
-4 -20 -29 -27 -141 -41 -100 -12 -162 -52 -237 -150 -30 -39 -57 -69 -62 -66
-12 7 -10 102 3 148 16 57 74 114 139 136 69 24 214 27 266 5z m3822 -5 c59
-22 64 -54 31 -213 -52 -257 -142 -457 -259 -577 -74 -77 -107 -92 -220 -101
-52 -5 -125 -18 -162 -29 -37 -11 -71 -20 -75 -20 -5 0 -9 23 -11 52 -2 29
-16 109 -32 178 -16 69 -32 143 -35 165 -16 97 -37 113 -99 76 -21 -13 -56
-20 -105 -23 l-73 -4 5 53 c3 32 20 83 41 126 100 200 264 296 558 327 116 12
395 6 436 -10z m-1741 0 c204 -26 334 -79 434 -179 77 -78 109 -147 116 -256
l5 -70 -46 -24 c-81 -42 -125 -100 -184 -243 -6 -16 -19 -28 -27 -28 -29 0
-127 -39 -175 -70 l-47 -30 -57 34 c-36 22 -81 38 -124 46 -37 6 -81 20 -98
31 -53 33 -124 117 -157 187 l-32 67 0 170 c1 133 4 183 18 227 18 60 65 124
101 138 30 12 177 12 273 0z m-1569 -58 c38 -17 74 -62 91 -111 27 -80 2 -274
-46 -362 -42 -78 -79 -103 -207 -138 -61 -17 -171 -51 -244 -75 l-134 -45 7
26 c10 40 63 111 94 128 16 8 86 31 157 50 150 43 167 51 216 102 91 95 101
199 28 309 -17 26 -29 59 -32 93 -6 57 -4 58 70 23z m3891 -86 c36 -38 121
-86 154 -86 22 0 22 1 -8 -66 l-25 -56 -37 6 c-62 11 -154 59 -220 114 -96 80
-96 81 -11 147 l72 56 19 -38 c11 -21 36 -55 56 -77z m-6015 -181 c62 -93 123
-179 135 -189 20 -18 30 -66 13 -66 -5 0 -29 15 -54 33 -102 72 -205 221 -249
360 -16 51 -29 97 -29 102 0 21 75 -77 184 -240z m6345 193 c-64 -163 -237
-478 -263 -478 -27 0 -23 16 36 134 34 66 85 175 114 240 44 101 58 123 86
137 18 10 36 18 40 19 4 0 -2 -24 -13 -52z m-559 37 c0 -17 -276 -172 -287
-161 -2 2 1 26 7 54 10 43 16 53 46 67 61 29 234 58 234 40z m-4320 -24 c0 -6
-4 -13 -10 -16 -5 -3 -10 -14 -10 -23 -1 -9 -13 -32 -29 -50 -24 -29 -30 -31
-41 -17 -7 8 -22 15 -33 15 -19 0 -18 2 9 31 26 28 88 67 107 69 4 0 7 -4 7
-9z m158 -28 c18 -20 22 -33 18 -57 -4 -17 -10 -70 -15 -117 -10 -96 -18 -118
-58 -149 -35 -27 -39 -14 -17 52 9 29 17 78 18 110 1 56 -1 60 -41 99 -24 22
-43 45 -43 50 0 5 15 18 33 29 39 25 73 19 105 -17z m1623 31 c36 -6 37 -7 27
-38 -15 -50 -22 -294 -9 -361 17 -92 63 -178 129 -244 l58 -59 -59 -16 c-78
-22 -183 -75 -288 -147 -47 -33 -88 -59 -91 -59 -11 0 -88 127 -121 200 -77
171 -127 354 -127 468 0 81 17 132 57 169 67 64 290 109 424 87z m2586 -125
c72 -68 192 -139 234 -139 50 0 50 -8 1 -106 -40 -81 -50 -94 -67 -89 -11 3
-54 10 -95 16 -41 6 -100 17 -130 25 -30 8 -119 22 -197 31 -79 10 -143 20
-143 23 0 3 11 41 24 85 l23 80 109 55 c60 30 120 63 134 73 13 9 26 17 29 17
2 0 37 -32 78 -71z m-4088 22 c55 -55 21 -272 -53 -346 l-26 -26 -44 37 -45
37 25 19 c37 30 53 69 59 150 8 96 12 114 31 132 20 21 30 20 53 -3z m341 -46
c23 -83 -11 -169 -88 -219 -34 -23 -241 -90 -250 -81 -2 2 3 14 12 27 8 12 22
51 32 84 l17 62 48 5 c88 11 147 57 176 139 20 55 34 51 53 -17z m-555 -15 c5
-25 -7 -105 -18 -116 -3 -3 -26 5 -52 17 -75 35 -78 73 -12 146 l19 22 29 -21
c15 -12 31 -33 34 -48z m-173 -24 c8 -56 32 -86 89 -111 30 -14 39 -23 37 -39
-3 -20 -9 -21 -103 -21 l-100 0 -34 67 c-38 76 -38 78 33 130 54 39 69 34 78
-26z m-2457 -211 c-41 -166 -97 -325 -114 -325 -3 0 -20 13 -38 28 l-32 27 35
55 c49 74 116 217 149 315 15 44 29 87 32 95 4 10 7 11 10 3 2 -7 -16 -96 -42
-198z m2027 152 c62 -37 238 -206 238 -228 0 -46 61 -118 128 -153 16 -8 70
-23 120 -32 65 -13 98 -24 117 -41 121 -113 -218 -236 -437 -159 -223 79 -348
242 -348 456 1 148 82 218 182 157z m-1499 -74 c23 -31 31 -58 38 -118 11
-101 41 -164 92 -188 33 -17 37 -22 37 -58 0 -21 -4 -39 -8 -39 -40 0 -184
137 -247 234 l-33 51 14 95 c7 52 13 99 13 104 1 15 65 -39 94 -81z m593 -103
c27 -25 65 -56 85 -68 l36 -22 6 -92 c11 -186 94 -355 231 -470 38 -32 81 -63
97 -70 30 -13 38 -28 17 -28 -44 0 -199 -30 -223 -43 -17 -8 -43 -29 -59 -45
-28 -30 -29 -30 -73 -17 -111 34 -196 121 -230 235 -19 66 -21 201 -4 283 l13
58 -42 37 c-57 51 -64 103 -25 199 16 40 30 96 33 136 l5 67 42 -57 c23 -32
64 -78 91 -103z m6609 126 c34 -52 -10 -146 -85 -183 -43 -21 -255 -63 -318
-63 -34 0 -92 19 -92 30 0 4 21 44 47 88 l46 79 71 6 c43 3 103 17 151 35 103
39 159 41 180 8z m-5923 -91 c-10 -131 56 -296 154 -383 l55 -49 -44 -59 c-42
-57 -153 -165 -189 -185 -15 -8 -18 -5 -18 18 -1 46 -36 110 -74 135 -63 41
-111 178 -104 299 3 58 9 75 38 115 28 40 35 59 38 109 l4 60 73 0 72 0 -5
-60z m3928 -68 c6 -39 20 -105 31 -145 32 -121 41 -206 28 -278 -13 -74 -57
-150 -96 -165 -16 -6 -47 -20 -71 -30 -59 -26 -69 -25 -118 21 -24 22 -52 40
-63 40 -15 0 -20 10 -26 48 -10 70 -38 126 -79 157 -20 15 -36 35 -36 45 0 32
-54 79 -99 86 -49 8 -52 23 -17 92 27 53 86 116 131 140 20 10 77 18 174 24
106 6 154 13 180 26 20 10 39 17 43 15 3 -2 11 -36 18 -76z m-6502 48 c63 -26
70 -47 24 -77 -20 -14 -63 -49 -95 -78 l-57 -52 -23 28 c-45 57 -118 167 -113
171 2 3 22 11 43 19 49 18 163 13 221 -11z m3340 -11 c107 -22 137 -41 136
-86 -1 -20 -12 -51 -27 -74 -15 -21 -27 -44 -27 -51 0 -17 -7 -16 -124 7 -114
23 -171 51 -203 99 -34 51 -31 89 10 106 43 19 140 19 235 -1z m4087 -4 c183
-21 343 -71 400 -124 28 -27 35 -41 35 -72 -1 -47 -34 -132 -79 -199 -48 -71
-217 -234 -282 -272 -90 -53 -100 -53 -143 6 -62 85 -221 227 -292 262 -35 18
-64 33 -64 35 0 1 22 19 50 39 62 45 124 127 184 244 53 104 40 98 191 81z
m-5344 -56 c30 -36 112 -68 174 -68 l60 0 0 -90 c0 -67 6 -111 23 -166 21 -66
30 -81 84 -131 53 -50 61 -62 65 -103 7 -58 -15 -96 -55 -96 -42 0 -127 55
-206 133 -120 119 -175 261 -176 450 0 87 6 101 31 71z m2489 -26 c53 -23 80
-45 79 -67 0 -9 -44 -44 -102 -81 -222 -142 -299 -254 -252 -367 20 -47 20
-48 -15 -23 -46 33 -110 58 -180 70 -74 13 -166 58 -163 80 2 8 11 47 22 85
11 39 20 101 20 139 1 66 2 68 24 62 81 -23 119 -27 171 -17 70 13 126 42 181
92 68 63 118 69 215 27z m3349 -21 c52 -24 113 -84 131 -127 28 -67 -23 -120
-118 -120 -62 0 -69 9 -47 69 29 83 18 144 -34 189 l-26 23 25 -7 c14 -4 45
-16 69 -27z m-6601 -157 c4 -1 22 -14 40 -29 l33 -28 -42 -25 -42 -25 -30 34
c-31 35 -94 73 -121 73 -25 0 -27 17 -11 94 8 41 15 78 15 81 0 3 34 -35 76
-85 41 -49 79 -90 82 -90z m7598 161 c43 -26 50 -61 24 -119 -29 -64 -71 -105
-141 -137 -99 -44 -186 -57 -354 -53 -128 3 -159 7 -210 28 -69 27 -135 86
-135 121 0 13 -9 39 -20 57 -11 18 -20 34 -20 36 0 2 21 6 46 9 38 4 58 -1
113 -27 61 -29 74 -31 171 -31 121 0 189 19 336 90 99 48 144 54 190 26z
m-7220 -160 l36 -41 -10 -93 c-24 -226 50 -398 204 -473 30 -15 53 -29 50 -31
-12 -12 -112 12 -176 43 -180 86 -283 270 -297 530 l-6 110 39 12 c22 6 55 22
74 36 l35 24 8 -38 c4 -20 24 -56 43 -79z m2214 99 c0 -22 -31 -83 -61 -121
-17 -22 -61 -57 -97 -78 -67 -39 -96 -64 -104 -90 -2 -9 -31 -20 -68 -28 -39
-8 -80 -24 -106 -43 -52 -37 -118 -41 -152 -10 -35 32 -28 55 21 74 62 23 109
76 116 128 l6 42 125 42 c136 47 288 93 308 93 6 1 12 -4 12 -9z m798 -128
c27 -64 82 -164 125 -225 10 -15 5 -23 -38 -59 -87 -74 -105 -97 -105 -136 0
-28 8 -43 39 -72 l40 -38 -50 -31 -50 -31 -47 16 c-132 45 -302 235 -302 338
0 43 58 124 128 179 88 69 215 148 223 140 4 -4 21 -41 37 -81z m-783 -67
c-32 -138 -135 -278 -245 -334 -157 -78 -358 -34 -377 83 -6 36 -5 39 13 31
10 -5 44 -11 74 -13 47 -3 60 0 90 22 49 35 76 46 144 57 71 12 78 16 72 37
-8 25 2 35 84 84 58 35 84 59 115 104 l40 59 3 -31 c2 -17 -4 -62 -13 -99z
m-3321 36 c20 -22 19 -34 -13 -121 -11 -30 -20 -76 -21 -102 l0 -48 -38 0
c-44 0 -102 34 -147 88 l-29 34 39 31 c22 17 67 59 100 93 62 66 70 68 109 25z
m571 10 c22 -10 53 -33 70 -50 25 -27 28 -34 17 -49 -7 -9 -25 -36 -40 -59
-15 -23 -34 -42 -42 -43 -20 0 -120 47 -120 57 0 21 56 163 65 163 6 0 28 -9
50 -19z m4832 -3 c40 -44 37 -61 -13 -88 -59 -31 -140 -103 -161 -144 -23 -43
-21 -155 4 -229 l20 -57 -24 -6 c-44 -11 -112 6 -148 37 -41 36 -60 85 -80
208 -9 52 -20 103 -26 112 -7 14 -1 24 34 52 108 88 222 136 318 137 45 0 59
-4 76 -22z m-525 -19 c35 -11 74 -29 88 -40 l25 -19 -37 -31 c-42 -34 -45 -44
-23 -69 8 -9 24 -65 34 -124 11 -59 29 -127 41 -151 25 -52 71 -94 111 -102
16 -3 29 -9 29 -14 0 -5 -26 -29 -57 -54 -121 -96 -235 -129 -363 -106 -55 10
-117 36 -272 113 -208 103 -241 122 -295 172 -45 41 -42 65 15 118 141 132
377 276 512 312 76 20 119 19 192 -5z m-4022 -19 c0 -6 -17 -25 -37 -43 -84
-74 -136 -194 -136 -317 0 -138 35 -236 102 -290 35 -28 39 -37 45 -92 16
-141 74 -258 148 -302 50 -29 167 -50 244 -44 75 6 57 -8 -28 -22 -160 -27
-288 18 -419 149 -136 137 -171 245 -173 536 -1 165 1 185 22 236 32 79 84
136 156 170 67 32 76 34 76 19z m5532 -60 c57 -17 145 -81 244 -178 134 -132
151 -182 88 -252 -60 -67 -262 -184 -394 -230 -77 -26 -208 -37 -266 -21 -47
12 -130 65 -144 91 -7 13 -3 26 16 51 90 118 97 236 19 297 -31 24 -30 23 -2
66 13 19 30 55 37 81 12 42 19 50 59 68 101 45 244 56 343 27z m-5470 -197
c51 -126 136 -221 248 -278 72 -37 157 -58 211 -53 27 3 49 5 49 4 0 -1 -7
-23 -15 -50 -19 -63 -19 -136 0 -209 20 -77 19 -93 -7 -129 -65 -93 -328 -106
-428 -22 -58 49 -109 190 -110 301 0 32 -4 43 -19 48 -11 3 -35 23 -55 45 -51
56 -69 127 -64 253 2 87 7 110 30 157 15 30 44 72 65 94 l37 38 18 -71 c9 -39
28 -97 40 -128z m4570 183 c31 -23 51 -87 51 -162 0 -87 -34 -166 -91 -214
-53 -44 -94 -55 -131 -36 -32 17 -44 44 -61 143 -19 112 20 182 142 252 60 35
66 36 90 17z m-3198 -27 c58 -27 66 -34 60 -53 -29 -96 -149 -191 -257 -203
-68 -8 -103 -26 -115 -61 -20 -57 27 -136 121 -203 l50 -36 -2 -89 c-3 -115
20 -215 65 -289 19 -32 34 -59 34 -60 0 -8 -97 -35 -124 -35 -120 0 -284 102
-343 213 -16 29 -43 61 -61 72 -131 81 -137 89 -137 208 0 72 5 102 21 137
l21 46 88 12 c99 13 136 29 239 106 103 77 155 125 211 200 27 36 52 66 56 66
4 0 37 -14 73 -31z m5108 -46 c41 -47 26 -107 -40 -164 -82 -70 -274 -166
-352 -176 -34 -4 -36 -2 -73 58 -21 34 -36 62 -35 63 16 9 94 69 135 104 41
34 63 45 94 47 22 2 78 21 122 43 91 45 126 51 149 25z m-4742 -60 c0 -138 53
-185 234 -210 l58 -8 -78 -55 c-71 -49 -85 -55 -142 -58 -55 -4 -71 -1 -130
29 -50 25 -81 33 -123 34 -46 1 -73 10 -162 55 l-107 53 50 34 c54 37 113 108
129 156 l11 32 130 1 130 0 0 -63z m717 3 c17 -9 71 -25 118 -36 47 -11 103
-29 125 -40 77 -39 130 -117 130 -191 0 -13 -15 -84 -32 -157 l-33 -133 -65 7
c-52 5 -88 1 -179 -21 -177 -43 -277 -22 -398 81 -82 70 -83 78 -30 133 25 25
50 56 56 68 14 28 14 80 0 89 -8 4 3 15 27 27 61 31 117 81 169 152 42 58 50
64 64 51 9 -7 30 -21 48 -30z m-3813 -48 c-4 -18 -9 -66 -13 -107 -4 -51 -10
-76 -20 -79 -12 -4 -13 11 -7 91 7 109 12 127 33 127 11 0 13 -7 7 -32z m6090
-62 c17 -18 40 -38 51 -44 19 -10 16 -15 -45 -74 -68 -67 -113 -88 -185 -88
l-39 0 48 45 c45 43 96 131 96 166 0 40 34 38 74 -5z m-6251 10 c62 -23 77
-42 77 -100 0 -47 -3 -53 -30 -70 -17 -9 -40 -31 -52 -47 -19 -25 -28 -29 -72
-29 -71 0 -125 30 -190 106 -31 36 -56 70 -56 75 0 15 49 42 113 60 75 21 158
23 210 5z m6540 -47 c33 -36 34 -68 6 -145 -24 -63 -94 -141 -184 -204 -27
-19 -59 -51 -72 -70 -12 -19 -30 -46 -40 -59 l-19 -24 -65 25 c-35 14 -108 33
-161 42 -117 20 -145 29 -180 64 -34 32 -37 82 -8 130 32 52 54 57 180 43 95
-11 116 -11 163 3 61 18 126 70 181 145 41 56 106 93 145 85 14 -3 38 -19 54
-35z m-6271 -8 c30 -10 73 -30 95 -44 46 -29 122 -113 150 -164 18 -33 17 -35
-1 -48 -50 -37 -215 -41 -209 -4 2 8 8 37 15 65 20 87 -15 134 -97 134 -33 0
-35 2 -35 33 0 54 4 55 82 28z m888 -101 c3 -52 5 -96 4 -98 -1 -2 -20 6 -42
17 -53 27 -112 97 -112 132 0 37 24 49 90 46 l55 -2 5 -95z m1644 48 c22 -5
75 -30 118 -55 68 -40 87 -46 142 -48 46 -2 79 -10 121 -31 59 -28 150 -42
199 -30 13 3 68 35 121 71 127 85 167 86 111 4 -30 -44 -117 -112 -179 -139
-247 -110 -597 -66 -760 96 -55 54 -71 93 -51 122 22 32 79 35 178 10z m1761
-119 c70 -34 69 -31 22 -85 -17 -20 -21 -21 -45 -8 -55 28 -105 12 -165 -55
-20 -23 -37 -36 -37 -30 0 6 12 56 26 112 20 77 24 115 20 156 l-6 54 60 -56
c33 -31 89 -70 125 -88z m2959 47 c81 -136 181 -339 212 -431 32 -96 43 -223
24 -281 -27 -84 -60 -100 -248 -120 -152 -16 -357 -13 -458 7 l-51 10 1 132
c1 157 -12 200 -97 313 l-54 71 75 23 c125 39 333 153 415 229 35 32 57 72 57
105 0 24 12 32 52 35 10 1 36 -32 72 -93z m709 43 c34 -15 52 -53 52 -108 0
-125 -136 -185 -419 -186 l-160 0 -52 100 c-63 121 -71 113 131 125 119 7 157
14 250 44 117 37 159 43 198 25z m-7953 -38 c16 -31 12 -72 -14 -128 -31 -67
-47 -74 -116 -56 -73 18 -113 43 -124 76 -9 24 -6 32 19 57 62 61 212 93 235
51z m1890 1 c0 -5 -7 -30 -16 -56 -11 -32 -15 -71 -13 -125 4 -69 8 -85 34
-122 17 -24 51 -53 80 -69 28 -15 59 -41 70 -59 45 -72 83 -118 130 -154 108
-81 225 -119 315 -101 40 9 47 8 39 -3 -21 -25 -117 -64 -171 -70 -136 -14
-344 89 -483 239 -85 92 -110 151 -110 263 0 81 3 97 33 160 18 39 43 78 55
87 24 19 37 23 37 10z m2804 -103 c88 -45 183 -92 213 -103 l53 -22 -59 -52
c-33 -28 -81 -85 -107 -127 l-47 -75 -71 0 c-53 0 -83 -6 -121 -24 -45 -21
-254 -181 -270 -206 -3 -5 -10 -10 -15 -10 -5 0 11 37 35 83 81 151 96 304 42
402 -19 33 -24 52 -18 63 23 43 160 151 191 152 8 0 86 -37 174 -81z m739 -90
c-13 -39 -27 -101 -30 -139 -11 -134 60 -279 182 -371 61 -46 61 -46 19 -130
-31 -62 -112 -149 -182 -196 -68 -45 -196 -98 -272 -114 -70 -14 -76 -13 -72
13 7 41 -28 107 -71 137 -78 53 -236 89 -341 77 -43 -5 -48 -4 -32 6 91 62
141 105 170 150 66 101 68 174 6 233 l-29 28 36 56 c38 61 100 130 148 164 27
19 43 22 145 22 102 1 122 4 180 28 36 15 88 45 115 66 28 22 51 40 51 40 1 1
-9 -31 -23 -70z m-2118 -29 c33 -33 89 -75 125 -95 36 -19 58 -35 50 -35 -8 0
-39 -11 -68 -25 -43 -20 -56 -32 -72 -67 -21 -47 -25 -96 -11 -144 8 -30 6
-35 -41 -80 -28 -27 -59 -68 -69 -91 l-20 -42 -35 24 c-20 14 -50 27 -68 29
-206 30 -358 61 -403 82 -122 58 -193 198 -193 382 0 83 0 84 23 78 147 -44
216 -56 316 -56 130 0 223 19 316 64 38 19 74 35 80 35 5 1 37 -26 70 -59z
m964 17 c29 -24 61 -111 61 -167 0 -114 -61 -264 -157 -385 l-48 -60 -6 62
c-7 73 -28 109 -75 129 -43 18 -58 53 -49 119 18 150 111 310 190 327 22 5 62
-7 84 -25z m1949 -10 c25 -26 40 -87 52 -216 15 -155 1 -224 -71 -369 -42 -86
-68 -127 -85 -134 -21 -10 -46 0 -207 82 -226 116 -302 165 -372 242 -56 62
-86 125 -100 206 -7 45 11 178 26 188 5 3 9 1 9 -5 0 -21 56 -74 97 -92 24
-10 90 -26 146 -35 56 -9 128 -27 159 -41 77 -34 99 -27 145 45 20 31 48 66
62 77 34 27 105 75 112 75 3 0 15 -10 27 -23z m-6358 -51 c6 -22 19 -70 29
-106 10 -36 21 -80 25 -98 3 -19 15 -46 26 -61 23 -33 17 -43 -19 -35 -41 10
-44 18 -46 106 -1 69 -6 91 -28 133 -15 28 -29 64 -33 82 -6 29 -4 31 15 26
14 -4 24 -18 31 -47z m1000 38 c21 -5 35 -15 42 -33 6 -14 22 -51 35 -81 23
-53 23 -55 6 -87 -20 -38 -40 -41 -101 -13 -152 69 -226 171 -150 208 26 12
119 15 168 6z m5591 -84 c56 0 58 -1 107 -55 73 -80 114 -168 120 -259 11
-171 -63 -562 -118 -619 -40 -42 -247 -29 -443 28 -191 55 -342 161 -398 279
-26 55 -47 141 -37 151 2 2 78 -34 168 -81 161 -84 229 -114 255 -114 33 0 77
57 135 174 51 104 62 137 69 201 8 70 0 240 -14 306 l-6 26 53 -18 c29 -10 78
-18 109 -19z m-2455 -13 c3 -3 -5 -33 -17 -68 -16 -46 -23 -87 -23 -144 l0
-81 -38 -16 -38 -17 -46 72 c-55 85 -136 166 -195 195 -43 21 -43 22 -14 22
17 0 62 9 100 19 39 11 81 22 95 24 28 6 169 1 176 -6z m-4196 -17 c42 -23 50
-139 11 -174 -34 -31 -228 -48 -285 -26 -37 14 -32 40 17 86 107 103 200 144
257 114z m3819 -74 c57 -29 144 -121 197 -208 38 -62 39 -64 36 -153 -3 -81 4
-139 24 -215 7 -25 6 -24 -27 6 -47 44 -111 74 -172 81 -86 10 -150 51 -217
139 -86 114 -119 235 -83 303 38 72 149 93 242 47z m-3364 -13 c51 -17 140
-94 132 -116 -8 -24 -101 -60 -168 -65 -92 -6 -157 17 -221 78 -64 62 -64 90
2 107 68 17 198 16 255 -4z m796 -75 c61 -63 62 -63 63 -125 1 -38 -3 -59 -9
-55 -94 56 -145 117 -145 171 0 30 15 71 25 71 2 0 32 -28 66 -62z m923 -163
c228 -151 368 -168 558 -67 11 5 -22 -109 -44 -151 -33 -65 -95 -124 -152
-146 -29 -11 -97 -27 -152 -36 -54 -9 -124 -25 -154 -35 -30 -10 -57 -17 -61
-14 -4 2 -10 19 -13 37 -12 65 -59 122 -138 168 -142 83 -198 148 -198 230 0
61 10 79 60 104 29 14 57 39 70 60 l22 36 60 -66 c33 -35 97 -90 142 -120z
m2779 128 c66 -33 68 -120 3 -204 -105 -137 -282 -211 -550 -228 -66 -4 -123
-6 -125 -4 -25 19 283 305 442 411 75 50 163 59 230 25z m-4940 -104 c-30 -57
-41 -142 -25 -188 21 -61 -33 -137 -117 -166 -65 -22 -75 -20 -66 13 4 15 13
55 21 90 15 72 61 162 107 212 33 35 95 90 102 90 2 0 -8 -23 -22 -51z m1516
-29 c51 -12 145 -10 217 5 31 7 31 7 38 -43 11 -86 87 -172 202 -230 53 -27
104 -70 104 -88 0 -20 -55 -51 -105 -58 -24 -4 -87 0 -146 10 -57 9 -126 14
-155 12 l-51 -4 -33 75 c-28 61 -53 95 -126 171 -100 104 -124 141 -124 193
l0 35 63 -33 c34 -18 86 -38 116 -45z m-1315 37 c12 -16 21 -48 24 -83 l5 -56
-67 -64 c-75 -72 -124 -103 -130 -82 -10 37 -26 138 -26 166 0 39 24 99 51
128 16 17 30 21 71 19 43 -1 55 -6 72 -28z m4032 -40 c58 -50 39 -218 -33
-297 -38 -43 -76 -52 -92 -22 -20 38 -43 176 -38 222 7 61 24 89 62 106 44 19
70 17 101 -9z m-1402 -11 c49 -33 323 -96 417 -96 22 0 53 -11 84 -31 31 -20
55 -29 70 -25 25 6 39 -16 55 -88 14 -65 6 -81 -66 -116 -101 -50 -133 -116
-99 -207 l18 -46 -29 -20 c-37 -26 -148 -137 -160 -159 -9 -16 -14 -16 -71 7
-34 14 -120 38 -191 55 -158 35 -271 78 -343 128 -58 41 -119 121 -119 157 0
20 9 25 68 40 84 21 154 58 194 104 43 48 85 145 99 227 11 60 23 94 35 94 2
0 19 -11 38 -24z m-1566 -29 c42 -34 55 -158 27 -252 -40 -132 -197 -274 -303
-275 -47 0 -56 30 -43 139 21 174 72 308 135 356 68 52 144 65 184 32z m2252
-16 c0 -62 18 -142 45 -197 14 -28 25 -53 25 -56 0 -3 -17 -8 -39 -10 l-39 -3
-6 50 c-3 27 -19 77 -35 109 l-29 60 30 43 c17 24 35 43 40 43 4 0 8 -17 8
-39z m-2492 -18 c-14 -16 -33 -42 -42 -60 -20 -41 -66 -198 -66 -229 0 -36
-52 -32 -120 9 -63 37 -82 67 -69 106 10 29 64 89 117 129 37 28 145 71 181
71 l25 1 -26 -27z m2627 -81 c27 -29 61 -61 77 -69 l27 -17 -30 -33 c-16 -19
-29 -38 -29 -43 0 -38 -82 36 -108 97 -11 27 -23 77 -27 113 l-6 65 23 -30
c13 -16 45 -53 73 -83z m-2137 -115 c14 -20 22 -40 19 -44 -10 -10 -76 13
-134 47 l-53 30 0 64 c0 36 -3 73 -6 83 -9 23 140 -130 174 -180z m4331 43
c26 -94 116 -198 222 -258 27 -15 49 -31 49 -35 0 -25 -47 -90 -107 -149 -115
-112 -211 -160 -277 -138 -40 13 -106 77 -156 150 -39 59 -110 178 -110 186 0
3 20 13 45 24 109 47 246 162 290 243 22 42 27 39 44 -23z m-5604 18 c31 -51
43 -89 43 -133 l0 -40 -12 34 c-6 18 -18 38 -26 45 -8 6 -26 33 -39 59 -21 41
-22 50 -10 58 21 13 23 12 44 -23z m240 -77 c47 -21 115 -93 115 -120 0 -44
-135 -53 -227 -16 -42 17 -43 18 -43 65 0 27 -3 55 -6 63 -11 30 101 36 161 8z
m3443 -1 c24 -11 57 -29 73 -41 26 -18 29 -25 26 -67 -3 -47 -3 -47 -57 -69
-91 -37 -187 -24 -225 31 -20 27 -19 96 1 124 32 45 110 55 182 22z m1080 -6
c240 -49 282 -194 85 -296 -81 -42 -188 -63 -278 -54 -58 6 -174 32 -183 41
-3 2 9 18 26 34 58 58 50 135 -20 195 l-41 35 29 11 c29 11 143 36 199 43 65
9 109 6 183 -9z m-4753 -150 c12 -88 -15 -156 -88 -228 -66 -65 -143 -112
-192 -118 l-30 -3 1 91 c0 79 4 99 28 148 38 77 111 150 188 186 l63 30 12
-27 c6 -16 15 -51 18 -79z m4300 79 c76 -40 116 -104 93 -151 -24 -49 -172
-100 -249 -86 -51 10 -119 47 -163 89 -35 35 -38 41 -32 78 13 81 51 99 201
94 87 -3 118 -8 150 -24z m-898 6 c25 -8 32 -17 37 -48 4 -28 17 -49 45 -74
46 -41 89 -52 167 -43 l55 6 -37 -44 c-61 -74 -271 -166 -374 -166 -102 1
-230 122 -230 218 0 61 64 108 193 142 85 22 104 24 144 9z m492 -25 c18 -13
21 -22 16 -43 -3 -14 -10 -30 -15 -35 -14 -14 -58 2 -75 28 -19 28 -11 53 18
59 12 2 24 5 27 6 3 0 16 -6 29 -15z m-2852 -71 l-10 -73 -54 0 -54 0 36 36
c19 19 47 53 62 75 14 22 27 38 28 37 1 -2 -2 -36 -8 -75z m-947 -70 c81 -99
101 -206 60 -317 -21 -56 -92 -146 -115 -146 -7 0 -24 21 -37 48 -20 41 -23
62 -23 162 0 101 3 119 22 151 12 19 27 59 34 87 6 29 14 52 19 52 5 0 22 -17
40 -37z m3763 18 c62 -24 77 -235 24 -344 -35 -71 -96 -127 -138 -127 -77 0
-124 65 -124 170 1 104 27 164 106 243 67 67 86 75 132 58z m-2558 -75 c50
-25 116 -68 148 -97 93 -83 146 -198 100 -216 -22 -9 -184 15 -256 37 -64 20
-175 83 -225 128 l-32 29 16 39 c10 23 14 53 11 76 -4 33 -2 38 22 47 48 19
121 4 216 -43z m-278 -3 c18 -45 -86 -250 -169 -333 -116 -117 -336 -200 -368
-140 -8 15 -5 37 15 97 68 201 180 315 363 369 95 28 150 31 159 7z m3072 -69
c40 -50 17 -144 -34 -144 -29 0 -76 31 -85 56 -17 44 -12 132 7 143 22 12 83
-18 112 -55z m254 -16 c92 -62 189 -163 223 -233 24 -50 29 -72 29 -137 0 -67
-3 -80 -24 -102 -57 -61 -140 -38 -237 66 -107 115 -167 235 -180 363 l-6 62
63 10 c35 6 65 11 67 12 2 0 31 -18 65 -41z m-764 -73 c-13 -64 -3 -142 22
-190 20 -37 20 -38 2 -64 -11 -14 -41 -40 -67 -58 -141 -97 -256 -13 -185 135
27 55 129 166 188 204 25 15 46 27 47 25 1 -1 -2 -25 -7 -52z m-2577 -193 c-6
-61 -15 -96 -26 -107 -20 -20 -21 -70 -1 -125 8 -23 19 -103 25 -178 6 -76 15
-160 21 -188 5 -29 7 -62 4 -75 -3 -13 1 -44 10 -68 13 -38 13 -47 2 -59 -22
-21 -52 25 -67 102 -10 53 -9 68 3 92 36 72 27 150 -20 181 l-25 17 4 226 4
225 35 68 34 68 3 -44 c2 -24 -1 -84 -6 -135z m3020 89 c80 -51 128 -168 128
-310 0 -131 -46 -185 -151 -179 -113 8 -162 79 -167 243 l-3 100 40 53 c22 29
46 68 52 87 16 44 39 45 101 6z m-2823 -237 c145 -28 274 -114 325 -216 43
-86 27 -158 -33 -158 -57 0 -223 50 -301 90 -91 48 -138 101 -171 195 -24 69
-25 102 -1 107 25 6 96 -1 181 -18z m-309 -110 l0 -95 -64 -30 c-52 -24 -87
-32 -183 -41 -66 -6 -127 -8 -137 -5 -16 6 -16 9 1 38 59 103 185 197 293 218
95 19 90 23 90 -85z m60 -223 c16 -31 12 -53 -20 -118 -34 -67 -104 -139 -171
-174 -35 -18 -61 -23 -129 -23 -72 -1 -85 2 -88 16 -5 25 73 151 118 192 37
33 154 96 181 96 8 1 25 7 39 15 35 20 57 18 70 -4z m398 -186 c77 -23 132
-70 169 -145 61 -124 52 -188 -26 -176 -20 3 -79 10 -131 16 -107 12 -167 36
-206 83 -28 33 -76 132 -88 179 -5 23 -2 28 27 37 81 25 182 27 255 6z m-411
-82 c-4 -3 -18 -2 -33 1 l-27 7 24 25 24 25 8 -26 c5 -14 7 -29 4 -32z m20
-59 c42 -26 58 -63 58 -134 0 -53 -6 -75 -30 -118 -37 -68 -113 -137 -190
-173 -77 -37 -119 -38 -141 -3 -15 23 -16 34 -5 105 27 176 103 313 187 339
35 10 91 3 121 -16z m171 -106 c19 -21 50 -47 69 -59 65 -40 131 -231 118
-338 -10 -80 -29 -121 -56 -121 -23 0 -150 81 -202 129 -65 59 -75 139 -30
231 21 43 27 72 29 135 3 115 3 113 22 85 9 -14 32 -42 50 -62z"/>
</g>
</svg>
