<?xml version="1.0" standalone="no"?>
<!DOCTYPE svg PUBLIC "-//W3C//DTD SVG 20010904//EN"
 "http://www.w3.org/TR/2001/REC-SVG-20010904/DTD/svg10.dtd">
<svg version="1.0" xmlns="http://www.w3.org/2000/svg"
 width="850.000000pt" height="850.000000pt" viewBox="0 0 850.000000 850.000000"
 preserveAspectRatio="xMidYMid meet">
<metadata>
Created by potrace 1.14, written by Peter Selinger 2001-2017
</metadata>
<g transform="translate(0.000000,850.000000) scale(0.100000,-0.100000)"
fill="#000000" stroke="none">
<path d="M3195 8387 c-64 -36 -71 -57 -55 -175 7 -55 10 -122 6 -149 -9 -73
-28 -153 -36 -153 -4 0 -5 24 -2 53 2 28 -3 82 -12 120 -28 122 -84 208 -152
239 -61 26 -100 17 -195 -48 -100 -69 -130 -80 -267 -103 -170 -29 -213 -71
-213 -210 0 -74 26 -166 62 -214 11 -16 19 -31 16 -33 -8 -8 -96 94 -126 148
-42 75 -61 90 -113 90 -57 1 -101 -23 -122 -66 -26 -55 -18 -112 32 -216 57
-119 153 -181 303 -196 l74 -8 -65 -12 c-36 -7 -94 -13 -130 -14 -93 -1 -138
-14 -177 -52 -49 -46 -123 -176 -123 -214 0 -75 152 -132 282 -105 99 20 207
76 276 141 13 12 25 20 28 18 9 -10 -171 -179 -222 -208 -73 -42 -103 -50
-217 -59 -108 -8 -143 -25 -160 -75 -23 -70 51 -165 159 -206 84 -31 221 -25
314 14 155 67 200 136 265 408 25 105 58 193 91 244 16 23 18 24 41 9 36 -24
112 -45 164 -45 43 0 50 -4 115 -67 169 -165 276 -326 372 -558 11 -27 32 -78
46 -113 l26 -63 -24 -9 c-13 -4 -33 -21 -45 -36 l-21 -27 -28 24 c-15 14 -45
38 -67 54 -22 15 -56 45 -76 67 -29 30 -44 38 -72 38 -19 0 -55 8 -79 18 -72
31 -137 43 -233 43 l-91 1 -39 40 c-44 44 -103 78 -135 78 -52 0 -120 -67
-120 -118 0 -12 22 -54 49 -94 60 -89 90 -171 97 -257 l5 -66 -25 60 c-70 163
-204 274 -318 263 -59 -6 -85 -28 -140 -120 -47 -79 -116 -145 -221 -211 -83
-52 -117 -98 -117 -157 0 -79 100 -212 200 -266 l45 -25 -40 6 c-41 6 -147 55
-220 101 -66 41 -151 12 -175 -61 -10 -30 -9 -41 10 -80 27 -56 109 -130 180
-164 86 -40 172 -34 323 24 9 4 17 3 17 -3 0 -12 -96 -73 -196 -126 -92 -48
-113 -83 -129 -215 l-12 -96 -65 135 c-135 281 -195 438 -242 630 -51 213 -68
374 -63 598 4 168 2 206 -10 218 -8 8 -18 14 -22 14 -33 0 -72 -125 -90 -290
-15 -135 -16 -365 -2 -455 20 -123 73 -282 137 -407 11 -22 -1 -16 -69 35 -45
35 -123 86 -174 115 -88 51 -92 54 -98 95 -10 58 -51 156 -77 184 -12 13 -30
23 -41 23 -11 0 -42 22 -69 49 -110 109 -211 136 -443 121 -161 -11 -214 -22
-232 -46 -27 -37 -18 -53 145 -269 144 -190 198 -226 352 -235 52 -3 105 -11
117 -18 19 -10 33 -8 90 13 37 14 78 33 91 41 21 14 28 12 105 -28 166 -86
381 -271 480 -412 24 -33 71 -100 104 -147 l61 -87 -31 -6 c-17 -3 -38 -13
-48 -22 -16 -14 -21 -13 -58 5 -93 48 -230 81 -333 81 -130 0 -260 -50 -266
-101 -4 -33 8 -42 94 -71 l71 -24 -26 -34 c-23 -29 -27 -45 -31 -139 -4 -79
-8 -98 -14 -76 -25 94 -43 133 -77 170 -82 89 -242 146 -323 115 -37 -14 -66
-66 -66 -121 0 -56 8 -66 92 -118 74 -46 160 -135 197 -202 l23 -44 -43 40
c-23 22 -49 45 -56 52 -28 25 -143 74 -198 84 -146 27 -223 -33 -240 -186 -11
-104 -32 -158 -103 -267 -78 -120 -91 -166 -67 -225 20 -48 48 -78 110 -118
57 -37 140 -65 194 -66 34 0 35 -1 11 -10 -24 -10 -145 -7 -266 7 -47 5 -53 3
-82 -26 -41 -41 -56 -92 -38 -135 31 -73 152 -129 281 -129 69 -1 88 3 139 28
33 16 87 56 122 91 35 35 64 59 64 55 0 -9 -100 -151 -159 -225 -59 -75 -64
-126 -26 -245 30 -98 55 -130 99 -130 73 0 206 113 251 213 31 68 54 155 62
242 l7 70 7 -45 c11 -70 10 -223 -2 -282 -13 -60 -56 -149 -95 -193 -46 -52
-84 -118 -84 -144 1 -88 140 -123 257 -64 98 50 194 163 228 269 l16 52 157 7
c86 4 182 9 212 11 30 2 89 1 131 -2 l75 -6 -4 -28 c-6 -45 25 -56 112 -40 39
7 87 18 107 25 21 8 50 10 70 6 l34 -7 -66 -31 c-38 -18 -76 -44 -89 -61 -21
-29 -25 -30 -81 -25 -98 9 -117 -29 -46 -94 63 -58 136 -109 302 -213 207
-129 462 -307 452 -316 -1 -1 -47 2 -102 8 -189 18 -364 -8 -488 -75 -33 -17
-66 -42 -75 -55 -14 -22 -14 -25 5 -44 37 -37 130 -48 458 -58 171 -5 351 -14
400 -20 101 -12 314 -52 420 -79 l70 -18 -155 -6 c-98 -4 -182 -14 -228 -25
l-73 -19 -35 43 c-42 51 -99 82 -124 66 -13 -8 -30 -4 -70 16 -46 23 -67 26
-146 27 l-93 0 -123 -62 c-181 -92 -226 -135 -180 -175 24 -22 318 -168 337
-168 21 0 19 -5 -16 -56 -22 -33 -29 -52 -25 -70 14 -54 114 -25 391 111 250
123 335 156 378 145 17 -4 46 -11 62 -15 27 -6 23 -9 -42 -25 -82 -21 -179
-66 -187 -86 -8 -22 4 -44 28 -49 64 -15 171 -23 340 -24 180 -2 309 -12 351
-27 23 -8 135 -82 135 -89 0 -2 -89 -1 -198 2 -270 8 -479 -20 -687 -95 -138
-49 -334 -159 -348 -196 -24 -61 118 -42 530 73 233 65 429 104 633 127 l163
18 45 -49 c24 -28 57 -67 73 -88 15 -21 49 -52 74 -69 43 -28 72 -64 62 -74
-3 -3 -22 2 -43 11 -22 9 -90 30 -152 46 -278 72 -506 12 -526 -137 -22 -156
79 -229 314 -229 105 0 211 18 310 53 8 3 1 -10 -16 -29 -41 -44 -54 -71 -54
-108 0 -39 -38 -83 -107 -124 -31 -17 -56 -37 -57 -42 -1 -6 45 -11 112 -13
110 -3 114 -2 145 24 18 14 47 44 65 66 27 34 32 49 32 92 0 39 8 64 31 104
31 55 50 64 31 15 -35 -87 -64 -364 -66 -626 l-1 -199 29 -24 c15 -14 33 -23
40 -21 7 2 13 79 17 248 4 134 12 282 18 329 6 47 11 91 11 99 0 41 15 -14 40
-149 16 -83 34 -158 41 -166 15 -18 53 -18 69 1 9 11 9 27 0 70 -23 112 0 63
60 -126 34 -107 66 -204 71 -217 9 -22 43 -30 54 -12 10 16 -137 490 -175 559
-21 41 -8 36 43 -16 l54 -53 116 0 c87 0 117 3 117 13 -1 6 -32 32 -71 55 -69
44 -106 89 -95 119 7 18 -18 69 -53 107 -22 25 -23 28 -6 22 11 -4 70 -19 130
-33 243 -56 450 -1 485 127 56 207 -184 308 -523 220 -65 -16 -128 -35 -140
-41 -17 -9 -14 -4 11 29 102 128 303 263 561 376 103 45 285 91 444 112 l119
15 52 -49 c57 -54 100 -80 143 -87 16 -2 55 -14 88 -26 94 -33 139 -24 321 65
85 41 166 87 180 101 24 24 25 28 11 48 -19 31 -95 80 -207 135 -87 43 -102
47 -180 50 -70 3 -95 0 -140 -18 -30 -13 -70 -24 -87 -25 -41 -4 -80 -32 -118
-84 -34 -46 -29 -45 -180 -61 -162 -18 -361 -70 -495 -130 -63 -28 -125 -58
-137 -66 -13 -8 -23 -11 -23 -7 1 5 74 69 162 143 89 74 215 183 279 243 l118
107 96 0 c53 0 140 5 193 11 192 23 202 69 27 132 -38 13 -90 28 -115 32 -91
16 -17 16 130 1 l152 -16 136 -70 c176 -89 308 -159 547 -292 127 -71 389
-196 457 -218 78 -26 118 -22 118 13 0 26 -15 50 -78 125 -46 54 -185 165
-222 177 -36 11 -21 20 28 17 70 -5 98 20 95 85 -1 26 -8 75 -17 108 -29 107
-17 194 43 313 39 79 122 214 128 208 2 -2 -8 -28 -22 -59 -61 -132 -70 -296
-23 -399 38 -82 92 -138 133 -138 28 0 43 10 93 65 100 110 110 151 67 289
-28 90 -26 110 3 44 51 -116 156 -178 302 -178 118 0 170 36 170 117 0 36 -6
50 -29 74 -16 16 -38 29 -49 29 -73 0 -235 82 -297 150 l-30 33 36 -22 c70
-41 147 -61 240 -61 101 0 162 21 199 66 21 27 22 34 15 124 -14 179 -12 219
19 313 41 129 28 188 -53 244 -59 40 -207 57 -291 33 -50 -14 -47 -5 7 20 67
31 132 50 176 50 85 0 137 48 137 125 0 101 -170 145 -334 87 -66 -23 -133
-92 -185 -190 -22 -42 -41 -72 -41 -67 0 21 52 188 75 242 45 100 28 168 -72
290 -29 35 -41 43 -70 43 -27 0 -43 -9 -79 -47 -59 -60 -91 -125 -104 -211
-13 -82 -2 -185 30 -276 11 -33 18 -61 16 -63 -4 -4 -77 160 -102 232 -28 77
-26 226 4 287 39 83 49 135 31 166 -23 41 -76 55 -140 36 -144 -43 -255 -264
-220 -436 7 -35 20 -74 28 -88 9 -14 23 -36 32 -50 15 -23 15 -24 -4 -16 -19
7 -74 18 -175 33 -25 3 -124 6 -220 5 -222 -1 -396 -26 -600 -86 -46 -14 -86
-24 -87 -22 -2 1 22 24 53 50 30 26 87 78 127 115 70 64 75 67 147 80 139 24
358 89 393 116 11 8 17 23 15 37 -2 18 -14 27 -54 39 -49 16 -151 35 -166 31
-19 -5 -1 18 95 122 172 186 198 217 264 318 76 116 177 322 229 471 l38 107
70 0 c63 1 95 8 158 34 14 6 21 -5 40 -66 21 -68 23 -90 23 -328 0 -140 4
-271 9 -290 25 -108 132 -232 249 -291 96 -49 152 -63 257 -63 77 0 104 4 145
22 110 50 156 140 105 205 -19 23 -41 34 -205 93 -27 10 -74 35 -105 55 -103
70 -161 156 -306 456 -57 118 -124 243 -148 279 -39 55 -43 64 -26 64 11 0 20
-5 20 -12 0 -21 181 -331 237 -405 101 -134 252 -239 381 -264 83 -16 197 -6
232 19 47 35 47 60 6 186 -47 144 -81 188 -164 212 -120 35 -238 75 -252 85
-12 8 -10 9 10 5 63 -15 189 -27 230 -21 129 19 275 144 329 282 32 82 5 144
-78 179 -18 8 -45 14 -59 14 -27 0 -92 -36 -92 -51 0 -4 -33 -33 -73 -63 -68
-52 -152 -96 -222 -118 -52 -16 -185 -35 -185 -26 0 4 8 8 19 8 10 0 56 19
102 42 182 90 324 299 289 427 -16 61 -62 101 -170 144 -135 55 -175 84 -273
196 -106 122 -142 146 -217 146 -74 -1 -139 -33 -215 -110 -70 -70 -112 -144
-136 -235 l-17 -65 -1 66 c-1 85 30 204 81 303 46 92 46 125 -3 181 -40 45
-87 61 -136 44 -47 -15 -123 -86 -164 -152 -18 -29 -52 -71 -75 -94 -24 -24
-65 -69 -92 -101 l-49 -59 -27 24 c-15 12 -34 23 -42 23 -22 0 -17 19 35 136
l50 109 73 44 c172 104 320 165 534 222 203 53 344 107 372 142 22 26 4 57
-46 80 -39 17 -67 21 -172 21 -112 1 -135 -2 -215 -28 -49 -16 -99 -34 -110
-41 -11 -7 -31 -16 -44 -20 l-24 -7 26 34 c15 19 33 51 42 71 14 35 14 38 -5
57 -15 15 -33 20 -70 20 -30 0 -50 4 -50 11 0 20 72 131 132 205 31 40 103
115 159 168 l102 96 83 0 c94 0 132 13 140 47 4 13 10 23 15 23 32 0 126 49
170 88 56 50 78 92 149 277 60 156 63 170 56 199 -9 38 -43 41 -152 16 -275
-63 -391 -133 -464 -280 -12 -25 -29 -49 -37 -54 -29 -16 -43 -73 -43 -171 l0
-96 -90 -86 c-114 -108 -213 -232 -279 -350 -41 -73 -57 -93 -74 -93 -12 0
-53 -7 -91 -15 -86 -18 -161 -66 -213 -135 l-38 -51 -13 103 c-10 85 -31 194
-68 358 -3 14 -10 34 -14 45 -5 11 -19 44 -30 73 -26 69 -68 153 -88 175 -23
26 -51 21 -58 -9 -6 -25 0 -179 11 -268 l6 -41 -18 35 c-9 19 -44 90 -76 158
-82 169 -178 312 -271 400 -84 80 -120 93 -132 47 -12 -48 86 -276 244 -571
l49 -92 -8 -254 c-4 -139 -13 -303 -19 -363 -10 -102 -55 -383 -62 -390 -2 -2
-3 78 -3 178 0 161 -4 198 -29 317 -63 306 -119 447 -280 715 l-67 110 11 48
c17 81 13 144 -14 196 -14 25 -34 70 -45 100 -45 116 -119 182 -306 272 -198
94 -245 98 -245 18 0 -39 48 -296 70 -369 23 -82 84 -151 174 -199 27 -14 43
-31 50 -53 15 -46 53 -61 160 -64 l89 -2 50 -79 c27 -43 84 -150 127 -238 78
-160 111 -264 156 -485 16 -80 31 -387 20 -415 -14 -37 -33 7 -45 102 -13 102
-49 253 -76 316 -10 24 -22 37 -34 37 -40 0 -46 -25 -49 -206 l-4 -174 -37 0
c-23 0 -64 -15 -111 -41 -177 -94 -307 -147 -203 -82 177 110 233 199 233 368
0 120 -44 240 -97 264 -57 26 -168 -3 -194 -50 -6 -13 -11 -52 -11 -88 3 -157
-63 -331 -173 -456 l-26 -30 25 50 c94 194 74 452 -43 558 -69 62 -121 61
-285 -5 -95 -38 -107 -41 -208 -42 -58 -1 -109 2 -113 6 -7 7 23 52 150 223
312 422 411 605 329 605 -54 0 -191 -104 -302 -229 -93 -105 -122 -140 -122
-145 0 -3 -24 -40 -54 -83 -29 -43 -65 -100 -81 -126 -15 -26 -29 -47 -31 -45
-1 2 7 42 20 88 37 139 51 230 39 249 -26 41 -54 21 -128 -89 -99 -149 -188
-365 -240 -580 -10 -41 -19 -77 -21 -78 -1 -2 -11 5 -23 17 -47 47 -150 45
-201 -4 l-29 -28 -10 24 c-5 13 -38 98 -72 189 -89 236 -116 290 -210 430 -57
86 -119 161 -195 238 l-112 113 17 50 c19 56 26 58 102 27 66 -27 125 -62 249
-148 135 -95 160 -104 255 -104 67 1 93 6 160 34 207 87 329 321 229 440 -43
50 -82 43 -184 -35 -137 -106 -207 -124 -425 -110 -124 8 -150 18 -58 23 74 3
164 27 230 59 67 33 152 117 186 185 49 97 32 133 -75 166 -148 46 -206 39
-283 -35 -22 -21 -49 -45 -60 -53 -19 -14 -19 -14 -4 5 9 11 29 43 44 70 25
44 29 60 29 130 0 130 -58 261 -129 291 -45 18 -53 18 -100 -9z m129 -48 c45
-53 66 -114 73 -211 5 -69 3 -83 -20 -130 -47 -96 -148 -192 -292 -278 l-39
-24 17 24 c9 14 17 34 17 46 0 12 11 44 24 71 52 103 61 141 61 273 0 69 -4
142 -9 163 -8 35 -6 39 28 72 54 50 93 48 140 -6z m-378 -48 c76 -46 124 -152
132 -289 4 -81 3 -92 -11 -86 -10 4 -18 25 -23 62 -11 96 -39 120 -72 62 -13
-23 -22 -28 -40 -23 -18 4 -24 0 -34 -27 l-11 -33 -19 36 c-20 40 -38 46 -58
22 -12 -14 -19 -10 -56 32 -41 46 -43 47 -61 30 -13 -13 -18 -32 -17 -77 1
-53 -1 -59 -20 -62 -18 -3 -21 -9 -19 -52 1 -36 -1 -46 -10 -37 -16 16 -47 14
-53 -4 -4 -10 -17 -14 -38 -12 -26 2 -31 -2 -34 -23 -2 -14 8 -47 22 -75 17
-32 22 -51 15 -56 -21 -13 -3 -44 39 -67 52 -29 46 -46 -8 -27 -151 53 -260
191 -275 346 -8 81 8 133 55 170 29 24 53 31 144 44 127 19 162 33 275 109 92
62 125 69 177 37z m-186 -289 l34 -52 20 31 19 31 13 -24 c7 -12 18 -48 25
-78 l12 -55 19 73 c11 39 23 72 28 72 4 0 11 -10 17 -22 9 -21 11 -20 32 27
19 42 24 47 32 32 6 -9 10 -49 11 -87 0 -68 1 -70 24 -64 22 6 23 4 14 -26 -5
-18 -19 -51 -30 -73 -24 -45 -21 -54 10 -37 21 11 21 9 -6 -40 -32 -57 -91
-130 -104 -130 -5 0 -34 -11 -64 -25 -58 -27 -85 -26 -185 7 -29 9 -32 12 -16
20 14 9 8 14 -40 34 -72 29 -88 43 -57 50 21 6 31 24 14 24 -12 0 -62 93 -62
114 0 15 3 15 35 2 34 -15 35 -15 35 10 0 31 4 30 49 -4 59 -46 62 -45 36 10
-14 29 -25 63 -25 76 0 21 4 23 28 18 l27 -7 -3 77 c-5 92 5 95 58 16z m2212
24 c120 -45 264 -124 321 -176 54 -49 117 -152 117 -189 0 -10 -19 -24 -46
-35 -25 -10 -57 -34 -72 -53 -15 -19 -44 -43 -64 -54 -21 -11 -38 -23 -38 -27
-1 -4 -9 -17 -20 -30 -22 -27 -33 -24 -115 38 -72 53 -100 112 -136 282 -39
183 -46 247 -28 259 18 11 9 13 81 -15z m-1323 -52 c96 -24 121 -39 121 -72
-1 -45 -36 -110 -92 -165 -119 -118 -280 -153 -598 -129 l-85 7 36 35 c20 19
86 64 148 99 61 36 141 90 177 120 136 117 143 121 187 121 22 0 70 -7 106
-16z m4190 -8 c15 -18 10 -37 -58 -216 -62 -162 -88 -207 -143 -254 -42 -36
-150 -84 -155 -69 -10 30 -48 77 -73 91 -16 9 -35 30 -41 45 -13 30 -76 87
-96 87 -18 0 -16 15 8 62 30 59 106 130 172 162 74 34 302 102 353 105 12 1
27 -5 33 -13z m-5687 -55 c13 -11 35 -41 48 -67 58 -113 211 -227 367 -274 40
-12 71 -25 68 -30 -11 -18 -139 -35 -260 -35 -122 0 -134 2 -187 28 -31 15
-73 46 -93 69 -76 83 -117 228 -81 283 30 46 96 59 138 26z m3579 -231 c70
-62 152 -168 218 -283 52 -90 58 -102 42 -92 -20 12 -39 -27 -51 -105 -7 -45
-16 -78 -20 -73 -29 33 -215 422 -249 521 -33 97 -21 104 60 32z m-1733 10
c44 -41 47 -112 9 -203 -54 -127 -228 -238 -371 -237 -79 1 -142 29 -266 117
-173 121 -264 162 -405 179 l-60 8 40 9 c52 11 226 2 340 -19 55 -10 145 -17
230 -17 135 0 142 1 205 30 36 16 79 41 95 55 73 60 128 98 144 98 9 0 27 -9
39 -20z m3317 -91 c19 -17 38 -42 41 -55 3 -13 14 -26 24 -29 35 -11 80 -73
80 -110 0 -38 -7 -44 -57 -55 -39 -9 -182 7 -201 23 -19 15 -13 217 7 240 22
27 66 21 106 -14z m-1880 7 c24 -17 30 -108 13 -190 -12 -56 -15 -60 -48 -69
-51 -13 -174 -3 -204 17 -14 9 -26 26 -26 38 0 32 37 84 73 101 17 9 45 32 61
53 26 32 74 63 102 64 5 0 19 -6 29 -14z m-2735 -96 c0 -13 -195 -225 -257
-279 -93 -83 -228 -141 -326 -141 -62 0 -153 26 -179 52 -24 24 -19 41 42 143
66 110 76 117 207 126 60 4 142 15 183 23 65 14 110 26 285 75 42 12 45 12 45
1z m289 3 c20 -5 22 -10 18 -39 -8 -45 -68 -144 -88 -144 -25 0 -122 30 -147
46 l-23 15 31 39 c53 67 140 102 209 83z m-191 -20 c-8 -10 -32 -39 -55 -65
-70 -83 -114 -188 -158 -380 -33 -140 -52 -184 -106 -242 -99 -108 -304 -154
-437 -99 -85 35 -136 96 -130 155 5 47 39 66 133 73 210 15 306 82 545 374 47
58 112 126 145 152 61 49 90 63 63 32z m1992 -70 c0 -43 -148 -275 -358 -561
-60 -81 -121 -166 -138 -189 -29 -41 -29 -42 -102 -45 -39 -2 -72 -2 -72 0 0
9 80 159 131 245 136 229 295 416 438 515 78 55 101 63 101 35z m1404 -101
c69 -137 131 -372 156 -587 9 -73 9 -100 1 -103 -20 -7 -49 -76 -56 -134 -8
-60 -27 -81 -45 -48 -6 11 -44 92 -85 180 -73 161 -74 161 -74 248 0 92 -14
203 -31 261 -12 43 -5 54 11 15 56 -144 92 -249 109 -313 16 -60 24 -44 11 21
-34 168 -68 470 -57 512 9 36 21 26 60 -52z m-3114 -24 c127 -127 249 -288
313 -413 29 -58 167 -404 167 -419 0 -6 -13 3 -29 19 -20 20 -49 80 -86 175
-31 80 -73 174 -93 210 -77 140 -196 293 -316 409 -53 51 -64 66 -55 77 6 8
15 14 19 14 4 0 40 -33 80 -72z m4138 43 c10 -6 7 -12 -11 -24 -41 -26 -189
-177 -248 -252 -31 -38 -74 -103 -98 -142 -29 -51 -48 -73 -61 -73 -11 0 -20
2 -20 4 0 16 112 193 157 249 77 96 231 247 251 247 10 0 23 -4 30 -9z m-1701
-103 c153 -258 209 -403 267 -688 43 -211 49 -498 10 -483 -11 4 -14 39 -14
169 0 341 -91 652 -288 982 -56 94 -66 122 -43 122 4 0 35 -46 68 -102z m507
-41 c61 -205 66 -440 15 -690 -26 -131 -110 -367 -148 -419 -37 -50 -36 -51
-12 78 35 181 51 363 61 679 8 270 20 411 37 438 10 17 24 -8 47 -86z m-1794
-69 c0 -44 -40 -215 -86 -372 -34 -116 -41 -131 -83 -174 -65 -67 -94 -186
-72 -297 8 -42 7 -54 -9 -79 l-18 -29 -35 69 c-19 38 -38 84 -41 101 -9 42 16
146 86 353 54 162 133 318 215 428 13 17 28 32 34 32 5 0 9 -15 9 -32z m2742
-311 c10 -16 -4 -44 -96 -190 -111 -174 -147 -205 -257 -220 l-46 -6 -12 39
c-6 21 -24 49 -39 62 -15 13 -35 40 -44 61 -10 20 -31 45 -48 55 l-30 19 31
43 c80 111 140 139 319 149 131 8 212 3 222 -12z m-4350 -58 c89 -46 178 -172
178 -254 0 -52 -24 -145 -55 -212 -24 -53 -125 -202 -136 -203 -4 0 -3 17 2
38 15 63 11 233 -7 293 -21 69 -56 138 -99 195 -40 53 -42 67 -15 112 33 54
70 62 132 31z m-1227 -251 c1 -232 3 -265 29 -398 43 -227 104 -417 206 -642
32 -71 56 -128 54 -128 -2 0 -15 17 -28 38 -13 21 -57 74 -98 117 -131 139
-235 391 -256 620 -7 77 1 367 12 412 2 11 8 43 11 70 13 94 47 184 63 168 3
-3 6 -119 7 -257z m6063 216 c28 -9 52 -23 52 -30 0 -35 -104 -79 -342 -145
-253 -70 -373 -118 -550 -222 l-87 -51 -52 -120 c-59 -137 -62 -141 -83 -133
-12 5 -11 14 10 56 13 28 24 53 24 56 0 20 96 212 113 226 24 20 42 25 32 9
-3 -5 7 -3 22 5 15 7 49 19 76 26 60 15 123 70 177 153 45 69 83 95 206 142
146 55 287 65 402 28z m-1320 -89 c54 -123 94 -209 98 -217 2 -3 -26 -30 -63
-59 -38 -29 -102 -85 -144 -126 l-75 -73 47 143 c46 141 73 258 85 370 3 32 7
57 8 55 2 -1 21 -43 44 -93z m-1269 44 c92 -52 142 -218 116 -389 -20 -136
-77 -240 -132 -240 -3 0 11 18 30 39 65 72 86 142 38 126 -18 -5 -18 -4 -4 44
18 63 14 125 -9 129 -9 2 -33 -12 -53 -29 -33 -29 -38 -31 -47 -16 -15 28 -35
20 -73 -29 l-35 -47 0 30 c0 40 -19 93 -33 93 -7 0 -25 -9 -41 -19 l-28 -19
-32 62 c-41 80 -68 87 -95 24 -11 -24 -22 -60 -26 -80 -7 -34 -9 -36 -30 -26
-43 19 -55 5 -55 -64 l0 -62 -33 32 c-39 38 -50 39 -68 11 -14 -20 -15 -20
-45 -3 -18 10 -38 15 -49 11 -15 -6 -17 -15 -12 -57 3 -27 13 -63 22 -79 15
-30 15 -31 -4 -31 -50 0 -34 -40 32 -85 39 -26 47 -36 34 -41 -21 -8 -117 75
-157 137 -108 165 -99 406 16 485 26 17 48 19 229 20 195 0 202 1 270 28 185
74 215 79 274 45z m454 -10 c75 -34 114 -256 67 -382 -48 -128 -198 -238 -427
-313 -57 -19 -109 -34 -115 -34 -6 0 25 37 68 83 44 45 95 107 115 137 74 112
120 265 117 388 -1 31 4 67 11 80 23 43 111 65 164 41z m-2320 -33 c31 -10 57
-21 57 -25 0 -4 -27 -13 -60 -19 -50 -11 -68 -21 -100 -53 -34 -35 -42 -39
-59 -29 -12 6 -21 17 -21 25 0 11 -18 56 -48 119 -7 14 168 1 231 -18z m3433
-50 c19 -19 34 -41 34 -49 0 -8 15 -30 34 -49 44 -44 55 -82 31 -108 -22 -25
-72 -26 -160 -4 l-65 16 0 52 c0 66 25 152 48 165 28 17 42 13 78 -23z m-3247
-2 c22 -16 23 -22 18 -83 -2 -36 -11 -85 -20 -108 -32 -93 -141 -200 -267
-263 -63 -31 -271 -115 -314 -126 -35 -8 -35 -8 49 101 100 130 147 202 205
319 62 126 75 136 197 161 92 18 105 18 132 -1z m-832 -35 c75 -36 172 -145
188 -212 5 -19 2 -28 -13 -36 -18 -10 -21 -7 -27 17 -8 39 -60 100 -73 87 -5
-5 -15 -27 -22 -48 -7 -24 -17 -37 -25 -33 -21 8 -35 -16 -35 -58 l0 -40 -28
27 c-35 34 -60 34 -72 2 -11 -30 -11 -30 -57 -5 -44 24 -66 25 -82 6 -11 -13
-5 -40 24 -108 5 -13 1 -20 -19 -28 -33 -12 -33 -30 0 -69 l26 -31 -41 0 c-37
0 -41 -2 -41 -25 0 -19 -5 -25 -23 -25 -13 0 -31 -6 -41 -13 -17 -13 -17 -16
13 -50 18 -20 41 -39 52 -42 16 -5 18 -10 8 -21 -16 -20 -30 -18 -85 13 -95
53 -170 149 -181 233 -8 61 17 94 125 164 108 71 162 124 210 208 62 108 125
133 219 87z m3277 -101 c32 -109 36 -127 50 -231 11 -79 11 -88 -3 -83 -9 3
-38 13 -65 22 l-49 17 6 169 c4 93 9 174 12 179 14 22 26 4 49 -73z m-2320 21
l66 -51 -32 -59 c-17 -33 -34 -58 -38 -57 -86 38 -110 54 -105 73 3 11 11 48
18 83 6 34 14 62 18 62 3 0 36 -23 73 -51z m-467 -27 c-22 -50 -59 -109 -52
-82 4 14 12 48 18 77 9 46 12 51 28 42 16 -8 17 -13 6 -37z m691 8 c87 -87 46
-289 -83 -415 -105 -103 -204 -124 -403 -85 -62 12 -152 22 -200 22 -83 1
-196 -16 -217 -32 -5 -4 -23 -10 -40 -14 -29 -6 -29 -6 -10 10 39 31 152 76
302 120 305 88 408 154 493 316 18 35 42 73 53 86 29 31 69 28 105 -8z m276
-13 c15 -10 33 -43 50 -94 67 -189 172 -308 381 -431 l80 -47 -94 -3 c-200 -6
-405 52 -493 139 -25 25 -55 64 -66 86 -48 93 -66 240 -38 306 25 61 119 84
180 44z m716 8 c7 -8 22 -39 34 -69 l23 -55 36 26 c21 14 40 23 45 19 4 -4 7
-46 7 -92 0 -46 0 -84 1 -84 0 0 22 34 48 75 26 41 51 75 56 75 5 0 15 -9 23
-20 14 -20 15 -19 51 15 21 19 42 35 47 35 16 0 10 -78 -11 -132 -11 -29 -20
-54 -20 -55 0 -1 12 2 26 7 33 13 34 13 34 -3 0 -8 -28 -47 -61 -87 l-61 -73
31 5 c17 2 31 2 31 -1 0 -11 -174 -178 -196 -189 -11 -6 -61 -12 -110 -14
l-89 -3 -85 51 c-47 27 -94 54 -105 59 -19 8 -19 9 3 12 32 6 27 15 -22 41
-24 13 -59 36 -77 52 l-34 29 33 1 c17 0 32 1 32 3 0 1 -11 24 -25 51 -26 51
-34 116 -14 116 6 0 25 -10 42 -22 18 -13 32 -18 34 -11 2 5 10 18 17 28 12
17 17 15 71 -36 32 -30 55 -45 50 -34 -4 11 -10 51 -13 89 -5 76 -10 71 57 50
15 -5 19 2 24 40 8 53 32 116 45 116 5 0 15 -7 22 -15z m1760 -39 c0 -7 -39
-45 -87 -84 -115 -91 -239 -213 -293 -285 -74 -100 -178 -269 -212 -344 -23
-50 -38 -73 -50 -73 -17 0 -17 2 -1 38 97 212 255 437 399 568 101 92 225 194
237 194 4 0 7 -6 7 -14z m-3810 -78 c11 -21 20 -46 20 -58 0 -23 15 -27 24 -5
3 8 10 15 16 15 12 0 12 -58 1 -117 -9 -47 -6 -51 21 -26 17 15 18 15 13 -13
-2 -16 -10 -63 -16 -104 -11 -74 -12 -76 -72 -132 -65 -61 -87 -69 -222 -82
-54 -5 -58 -4 -41 9 17 13 11 14 -62 8 -83 -6 -106 3 -59 24 21 10 20 11 -18
27 -40 17 -85 53 -85 68 0 4 12 8 28 8 36 0 51 11 49 35 -2 17 3 19 33 17 19
-2 48 -5 64 -8 28 -6 27 -5 -18 38 -48 47 -56 65 -31 73 8 3 22 7 30 10 12 3
10 13 -10 57 -14 29 -25 59 -25 66 0 20 37 14 80 -13 22 -14 42 -25 44 -25 2
0 10 16 16 35 10 31 14 34 31 24 11 -6 34 -31 50 -57 l29 -46 0 77 c0 42 3 77
6 77 3 0 14 -5 25 -10 16 -9 19 -7 19 14 0 14 5 37 11 53 11 30 14 29 49 -39z
m3893 -29 c-1 -30 -5 -102 -9 -161 -6 -105 -7 -108 -29 -108 -20 0 -25 6 -29
43 -3 23 -12 95 -21 161 -14 111 -14 120 2 131 13 10 24 10 52 0 36 -12 36
-13 34 -66z m654 17 c50 -54 52 -78 10 -160 -67 -133 -82 -196 -81 -336 1 -98
7 -146 27 -225 14 -55 24 -101 23 -103 -4 -4 -103 94 -151 151 -51 58 -100
139 -131 214 -18 45 -24 77 -24 142 0 76 3 91 35 155 89 183 210 250 292 162z
m-539 19 c2 -2 -54 -131 -84 -190 -15 -30 -15 -30 -9 19 3 27 5 79 5 116 l0
68 43 -5 c23 -3 43 -7 45 -8z m-3248 -25 c21 -11 41 -24 44 -29 10 -15 -68
-77 -138 -110 -67 -32 -306 -114 -313 -107 -2 2 20 13 49 26 88 38 180 103
243 173 33 36 64 66 68 67 4 0 25 -9 47 -20z m3015 -32 c3 -29 10 -75 15 -103
5 -27 10 -72 12 -100 l3 -50 -35 -3 c-110 -8 -140 -28 -140 -92 0 -54 34 -151
75 -215 18 -29 31 -56 27 -60 -3 -3 -16 -29 -28 -57 l-21 -50 -43 38 c-24 21
-51 58 -61 81 -10 23 -28 47 -41 54 -12 7 -41 32 -63 56 -87 95 -192 46 -223
-104 -8 -40 -30 -49 -23 -10 9 60 194 352 279 441 59 61 243 226 253 226 4 0
10 -24 14 -52z m-5481 -74 c29 -14 74 -46 100 -71 l46 -44 -31 -43 c-18 -26
-33 -61 -36 -87 -3 -24 -17 -63 -30 -86 -16 -28 -24 -59 -25 -93 l-1 -52 -86
4 c-141 7 -178 34 -345 252 -114 149 -140 191 -133 211 9 21 73 35 209 43 165
9 264 -1 332 -34z m3303 -136 c9 -10 14 -21 11 -24 -3 -2 -28 21 -56 52 -46
51 -49 59 -39 81 11 24 12 24 39 -33 15 -31 35 -66 45 -76z m-442 55 c3 -14
26 -55 50 -91 24 -37 48 -86 55 -110 6 -24 14 -50 17 -58 3 -9 -2 -14 -15 -14
-17 0 -26 17 -52 102 -31 100 -50 130 -108 170 -20 14 -21 18 -11 42 l12 26
23 -21 c12 -11 25 -32 29 -46z m3797 12 c20 -13 69 -62 108 -109 83 -99 152
-149 281 -202 148 -61 187 -118 155 -227 -42 -144 -178 -276 -345 -337 -104
-38 -157 -46 -164 -26 -5 13 1 16 33 16 65 0 117 36 78 54 -10 5 -10 7 -1 12
39 18 93 67 93 83 0 16 -9 21 -44 26 -33 5 -46 12 -50 27 -4 18 -11 20 -49 16
l-45 -5 24 34 c28 42 22 63 -18 63 -22 0 -29 4 -25 14 24 61 28 99 13 114 -12
13 -20 13 -48 2 -18 -7 -43 -22 -55 -33 -25 -22 -25 -22 -42 10 -13 26 -33 22
-73 -15 l-27 -24 -3 33 c-3 30 -6 34 -30 34 -19 -1 -28 4 -28 15 -1 19 -24 50
-38 50 -13 0 -59 -54 -67 -81 -4 -13 -12 -18 -22 -15 -9 4 -21 1 -29 -4 -21
-19 -28 65 -11 146 21 98 68 187 136 255 109 108 203 132 293 74z m-1746 -34
c57 -28 108 -59 113 -70 21 -39 -6 -90 -87 -162 -62 -55 -154 -97 -249 -114
-147 -27 -249 -16 -519 55 -163 43 -194 54 -182 66 4 3 79 28 167 54 206 61
322 107 446 175 93 52 104 55 154 51 37 -3 84 -20 157 -55z m-2092 -21 c34
-25 43 -42 67 -117 16 -49 29 -91 29 -95 0 -4 -22 -7 -48 -7 -27 1 -59 -4 -71
-11 -13 -6 -24 -10 -25 -8 -35 51 -79 108 -95 122 -20 18 -20 18 18 55 20 20
45 48 55 64 10 15 21 27 25 27 3 0 24 -14 45 -30z m3085 -25 c-11 -39 -5 -125
11 -154 6 -12 0 -27 -20 -51 -16 -19 -30 -33 -33 -30 -2 3 -23 31 -46 63 l-42
58 28 37 c37 49 105 123 109 119 2 -2 -1 -21 -7 -42z m-5687 -2 c25 -28 44
-73 66 -151 l20 -72 -61 -44 c-81 -57 -120 -76 -155 -76 -34 0 -42 14 -42 73
0 27 9 56 25 82 13 22 25 53 25 68 0 60 50 137 88 137 11 0 26 -8 34 -17z
m5478 -71 c23 -11 60 -50 109 -117 90 -120 195 -229 335 -350 91 -78 123 -115
100 -115 -16 0 -363 62 -399 71 -177 45 -345 149 -414 257 -37 58 -71 153 -71
198 0 56 27 72 135 76 96 5 167 -3 205 -20z m-3430 -52 c63 -11 141 -21 173
-23 l59 -2 58 -104 57 -104 -23 -35 c-13 -19 -24 -46 -24 -60 0 -31 50 -79
116 -110 27 -13 55 -26 62 -30 8 -4 32 -40 53 -80 l40 -72 -43 0 c-24 0 -61 5
-84 10 -50 11 -264 24 -358 22 -39 -2 -83 -9 -98 -16 -15 -8 -28 -11 -28 -8 0
11 -139 220 -223 334 l-78 107 -2 90 -2 91 40 5 c109 14 140 13 305 -15z m413
-9 c20 -22 43 -51 53 -66 l17 -26 -54 -55 c-29 -30 -57 -54 -61 -54 -6 0 -89
145 -103 181 -4 11 7 21 42 36 26 12 53 21 59 22 7 1 28 -17 47 -38z m-779 -7
c9 -24 7 -130 -3 -156 -7 -18 -21 -27 -61 -36 -69 -16 -115 -15 -130 2 -15 19
19 101 47 110 10 3 24 20 32 37 20 47 102 77 115 43z m-888 -35 c35 -22 96
-53 136 -67 67 -25 85 -27 229 -27 l156 0 -61 -43 c-177 -125 -339 -163 -470
-108 -47 20 -160 132 -169 168 -10 38 7 75 45 98 46 28 63 25 134 -21z m2077
23 c15 -4 18 -11 13 -35 -8 -38 -6 -36 -38 -30 -25 5 -28 10 -28 45 0 34 3 39
18 33 9 -4 25 -10 35 -13z m152 -42 c33 -6 98 -15 145 -19 76 -7 66 -8 -93
-10 -98 0 -176 2 -174 7 2 4 7 15 11 26 4 13 12 17 29 12 12 -3 49 -11 82 -16z
m-244 -35 c111 -16 377 -19 527 -7 84 7 116 2 97 -17 -20 -19 -232 -162 -321
-215 -50 -31 -133 -70 -185 -88 -85 -29 -105 -32 -209 -32 -128 0 -190 17
-269 75 -72 51 -68 76 21 170 99 104 158 141 213 132 11 -1 68 -10 126 -18z
m1079 -10 c277 -73 334 -86 418 -91 l92 -7 0 -38 c0 -22 -1 -39 -3 -39 -5 0
-177 57 -297 98 -63 22 -168 52 -233 67 -75 18 -113 31 -105 36 7 5 20 6 28 3
8 -4 53 -17 100 -29z m1965 -152 c21 -27 54 -66 74 -88 31 -35 32 -37 6 -15
-54 45 -196 184 -216 211 -18 26 -18 27 3 54 l21 27 37 -71 c21 -39 54 -92 75
-118z m-2348 146 c27 -10 27 -10 -42 -46 -94 -48 -164 -93 -260 -168 -151
-117 -258 -186 -267 -173 -12 20 -9 58 5 58 52 1 517 294 517 326 0 17 10 17
47 3z m1231 3 c-33 -84 -95 -202 -105 -202 -10 0 -13 19 -13 74 l0 75 53 29
c55 32 71 37 65 24z m-4443 -95 c139 -93 311 -255 392 -367 117 -162 252 -372
218 -337 -20 20 -41 37 -45 37 -5 0 -59 73 -121 163 -122 176 -181 243 -304
347 -94 79 -176 135 -262 180 -54 28 -61 35 -52 51 9 18 12 18 62 -7 29 -15
79 -45 112 -67z m3388 74 c-26 -22 -62 -29 -79 -16 -20 14 -19 15 51 28 24 4
40 -3 28 -12z m165 -1 c92 -18 162 -41 395 -125 148 -53 284 -78 387 -72 47 3
97 10 113 16 23 9 27 8 27 -8 0 -41 42 -151 79 -208 l39 -61 -58 -25 c-137
-60 -293 -63 -405 -8 -55 27 -93 60 -208 178 -165 168 -264 240 -388 283 -46
17 -92 30 -101 30 -10 0 -18 5 -18 10 0 15 30 12 138 -10z m1100 4 c12 -8 48
-50 81 -92 32 -42 80 -97 107 -122 103 -96 273 -153 534 -180 208 -21 369 -57
400 -87 13 -13 11 -14 -17 -8 -18 3 -81 7 -140 7 -129 0 -220 -19 -408 -88
-124 -45 -135 -47 -240 -48 -100 -1 -115 1 -169 27 -141 65 -249 192 -291 341
-38 131 14 260 105 265 9 1 26 -6 38 -15z m-3518 2 c0 -20 -117 -331 -142
-379 -18 -34 -64 -94 -103 -133 -77 -79 -140 -110 -244 -120 -49 -6 -58 -4
-75 15 -19 21 -19 27 -8 118 7 53 20 110 30 126 11 19 45 44 92 69 128 67 220
130 364 251 61 51 86 66 86 53z m54 -103 c-12 -112 -7 -180 22 -333 30 -153
28 -223 -6 -289 -26 -53 -91 -124 -146 -161 -152 -105 -384 -85 -384 33 0 29
17 45 95 87 132 72 180 120 238 235 25 51 87 228 87 250 0 35 88 270 98 261 2
-3 1 -40 -4 -83z m2086 83 c0 -2 -19 -15 -42 -29 -63 -37 -173 -141 -222 -211
-24 -33 -80 -134 -125 -223 -96 -190 -143 -246 -247 -295 -175 -82 -421 -52
-554 68 -51 46 -70 87 -70 147 0 82 37 94 213 66 147 -22 277 5 422 88 73 42
128 81 270 190 156 119 355 231 355 199z m192 -6 c75 -21 67 -69 -28 -168
l-59 -62 -51 23 c-67 29 -142 77 -149 95 -10 27 5 48 51 71 29 15 56 21 77 18
18 -2 48 3 72 14 48 22 41 21 87 9z m832 -43 c0 -9 -1 -40 -2 -69 -1 -29 -6
-48 -10 -42 -13 15 -34 112 -27 124 10 17 40 7 39 -13z m1598 -25 c7 -28 12
-31 33 -26 23 6 24 4 27 -57 l3 -63 28 45 c16 25 37 51 48 57 17 11 21 9 31
-15 7 -16 13 -29 14 -31 1 -2 23 13 49 32 79 61 104 44 65 -43 -25 -53 -25
-51 3 -52 12 0 31 -4 41 -8 18 -7 15 -13 -30 -61 -42 -46 -45 -52 -24 -46 14
3 47 9 74 13 47 6 49 5 44 -15 -6 -20 -2 -22 43 -22 27 0 49 -4 49 -9 0 -16
-72 -70 -104 -77 l-30 -6 28 -15 c39 -20 21 -30 -73 -39 -62 -6 -72 -9 -58
-19 9 -7 17 -15 17 -18 0 -4 -51 -6 -113 -4 -113 2 -114 2 -153 35 -21 18 -49
41 -61 51 -12 10 -32 51 -46 97 -14 43 -28 88 -33 99 l-7 20 23 -20 23 -20 -6
20 c-43 149 -44 163 -8 131 18 -17 19 -16 25 11 9 40 44 95 58 91 7 -3 16 -19
20 -36z m-4376 -79 c80 -110 212 -316 278 -437 l38 -69 -32 19 c-21 13 -51 51
-88 114 -69 118 -154 246 -245 369 -53 72 -66 96 -55 102 7 5 16 9 19 9 3 0
41 -48 85 -107z m2103 76 c89 -50 158 -108 271 -226 111 -116 181 -175 236
-198 19 -8 34 -20 34 -28 0 -8 3 -27 6 -43 4 -24 1 -32 -23 -46 -46 -27 -146
-118 -218 -198 -148 -164 -239 -312 -319 -520 -20 -52 -43 -108 -51 -125 -13
-27 -14 -27 -10 -5 37 211 40 508 7 704 -12 71 -25 132 -27 137 -3 4 10 68 29
141 62 235 69 318 27 318 -20 0 -59 -44 -108 -123 l-29 -47 -21 49 -21 50 30
28 c47 44 98 119 98 142 0 29 23 27 89 -10z m620 -27 c8 -29 12 -55 9 -57 -8
-9 -112 17 -120 29 -12 18 -9 74 5 80 6 3 30 4 52 3 39 -2 40 -3 54 -55z
m-2797 -49 c108 -146 288 -426 288 -449 0 -2 -12 -4 -26 -4 -30 0 -89 -33 -97
-54 -4 -9 -14 -12 -26 -9 -12 3 -23 -2 -29 -14 -12 -22 -32 -138 -32 -181 0
-18 -2 -32 -5 -32 -3 0 -22 11 -43 25 -51 34 -117 45 -171 29 -54 -16 -70 -30
-138 -128 -52 -74 -128 -156 -145 -156 -5 0 -8 47 -8 104 l0 104 43 25 c55 32
138 121 167 178 31 59 37 161 15 259 -39 180 -41 203 -15 286 13 42 29 78 35
79 5 2 33 7 60 13 28 5 53 10 56 11 3 0 35 -38 71 -86z m1750 -246 c-2 -132 1
-273 7 -327 33 -293 38 -520 10 -520 -5 0 -9 5 -9 11 0 20 -113 202 -171 274
-81 102 -183 197 -267 251 -2 2 13 24 33 51 20 26 66 107 102 180 77 158 127
237 195 309 l51 55 27 -26 27 -26 -5 -232z m1787 194 c-18 -38 -27 -49 -38
-42 -11 7 -10 18 10 65 20 49 25 54 37 42 12 -12 11 -21 -9 -65z m75 -39 c-19
-46 -17 -44 -48 -32 -26 10 -26 10 -10 47 9 21 18 44 21 51 4 10 12 7 29 -9
22 -21 22 -23 8 -57z m-1780 31 c27 -12 39 -27 50 -60 14 -39 14 -58 1 -161
-16 -129 -36 -374 -31 -379 2 -2 17 47 35 109 17 62 39 135 50 163 l19 50 16
-55 c9 -31 22 -86 30 -123 l14 -67 -44 -152 c-48 -166 -114 -458 -114 -507 0
-47 -13 -37 -39 30 -22 58 -23 67 -15 185 9 124 -1 297 -25 444 -19 113 -11
540 10 540 5 0 24 -8 43 -17z m309 9 c11 -17 -61 -342 -75 -342 -4 0 -8 8 -8
19 0 10 -10 50 -23 89 l-23 72 19 32 c42 70 91 138 98 138 4 0 10 -3 12 -8z
m1587 -62 c-1 -3 -9 -15 -19 -27 -16 -19 -23 -21 -55 -12 l-36 10 15 36 c8 19
15 37 15 38 0 2 18 -6 40 -18 22 -12 40 -24 40 -27z m-1756 -47 c89 -234 145
-532 146 -768 0 -226 -80 -754 -186 -1224 -19 -84 -33 -155 -31 -157 2 -3 47
53 99 123 118 158 223 271 353 381 243 204 489 334 703 372 85 15 104 7 78
-33 -32 -48 -206 -187 -383 -306 -51 -34 -93 -64 -93 -66 0 -3 19 4 41 16 52
26 204 85 284 110 281 86 575 113 783 70 149 -31 154 -52 24 -95 -115 -38
-261 -71 -512 -117 -376 -68 -476 -88 -718 -149 l-233 -59 -77 -57 c-42 -31
-145 -111 -228 -176 l-151 -119 -32 -117 c-83 -311 -133 -616 -156 -947 -21
-310 -6 -750 31 -923 4 -21 1 -23 -23 -20 -27 3 -28 6 -39 93 -7 50 -15 137
-19 195 -11 198 -8 187 -102 312 -189 249 -366 438 -628 667 -156 137 -334
308 -373 359 -38 50 -19 59 65 32 190 -63 351 -170 535 -357 124 -124 216
-249 319 -433 46 -80 102 -179 126 -220 l43 -75 0 52 c0 83 -102 388 -227 683
-51 118 -175 359 -268 520 -150 259 -285 536 -285 584 0 82 254 -140 382 -333
77 -117 185 -328 222 -435 13 -37 26 -64 29 -59 18 28 29 357 21 603 -18 540
-11 721 28 708 17 -6 75 -125 98 -202 39 -128 52 -218 56 -386 4 -228 -22
-402 -101 -660 -67 -216 -65 -203 -44 -282 17 -63 45 -209 81 -416 6 -34 13
-60 16 -57 3 2 7 31 8 62 16 259 67 608 121 813 7 30 31 123 53 205 21 83 60
241 85 353 l46 203 -47 117 c-94 237 -222 480 -361 687 -33 50 -64 105 -68
124 -4 19 -30 59 -63 95 -32 34 -81 106 -111 160 l-54 98 29 23 c28 22 30 22
58 7 54 -32 171 -139 227 -208 166 -203 275 -438 343 -734 8 -36 25 -110 37
-164 28 -122 27 -124 89 269 22 137 50 416 50 490 -1 232 -59 529 -148 758
l-30 77 28 0 c26 0 31 -6 54 -67z m1823 25 c41 -15 42 -24 2 -32 -65 -13 -89
0 -57 32 15 15 14 15 55 0z m-2630 -95 c-14 -19 -24 -16 -31 11 -3 13 -9 31
-12 39 -3 10 1 17 13 19 22 5 46 -50 30 -69z m2763 53 c30 -7 107 -22 170 -31
63 -10 119 -22 125 -26 13 -13 -8 -11 -95 5 -41 8 -126 20 -187 27 -122 13
-141 23 -73 38 3 0 30 -5 60 -13z m1600 -6 c46 -23 60 -46 60 -92 0 -86 -118
-236 -230 -293 -48 -25 -64 -27 -154 -27 -126 1 -234 30 -385 105 l-106 52 55
2 c294 13 441 68 615 227 56 52 84 57 145 26z m-4569 0 c45 0 46 -1 58 -41 7
-23 15 -47 17 -53 3 -8 -14 -17 -47 -24 -29 -7 -53 -11 -54 -10 -6 7 -65 128
-65 134 0 3 10 4 23 0 12 -3 43 -6 68 -6z m147 -32 c8 -32 8 -44 -1 -50 -26
-17 -46 -7 -57 27 -15 45 -7 65 23 65 20 0 26 -7 35 -42z m829 -49 c9 -34 7
-49 -8 -87 -10 -26 -20 -56 -24 -66 -12 -40 -15 -6 -5 55 5 35 10 81 10 102 0
49 13 47 27 -4z m2416 0 c5 -18 2 -20 -16 -15 -12 4 -34 9 -49 12 -40 9 -35
22 10 26 46 4 48 3 55 -23z m-4828 -123 c-14 -25 -44 -64 -65 -88 l-39 -43 -1
60 c0 58 2 63 41 100 22 22 50 56 62 75 l22 35 3 -47 c2 -37 -3 -58 -23 -92z
m1013 78 c31 -6 31 -7 17 -35 -21 -40 -19 -68 10 -125 14 -27 25 -50 25 -52 0
-7 -94 46 -167 95 -82 53 -113 87 -96 103 16 16 155 25 211 14z m2697 -59 c28
-22 52 -40 54 -42 5 -3 -92 -163 -163 -268 -110 -163 -257 -338 -271 -323 -3
3 1 73 9 154 8 82 18 188 21 235 6 80 9 89 51 149 24 35 44 69 44 75 0 6 26
19 58 29 31 10 73 27 92 37 27 14 37 15 45 6 6 -7 33 -30 60 -52z m981 -28 c1
-35 6 -72 12 -83 14 -27 -24 -158 -99 -340 l-12 -31 -51 39 c-92 70 -269 138
-360 138 -64 0 -74 8 -96 76 -12 36 -20 70 -17 77 6 15 125 64 325 133 132 45
168 54 227 54 l70 0 1 -63z m129 49 c18 -8 38 -23 44 -34 6 -11 26 -26 45 -32
40 -13 96 -72 96 -100 0 -35 -44 -52 -145 -58 l-95 -5 -18 44 c-29 67 -46 143
-38 172 5 23 12 27 42 27 19 0 50 -6 69 -14z m-1545 -35 c20 -5 22 -9 10 -16
-8 -5 -25 -15 -36 -22 -20 -13 -22 -12 -26 17 -5 32 2 35 52 21z m139 -38
c-37 -61 -125 -169 -234 -287 -302 -327 -382 -431 -588 -767 -21 -34 -39 -60
-42 -58 -18 18 113 376 192 525 129 245 325 457 534 581 53 31 142 57 158 46
2 -1 -7 -19 -20 -40z m1656 -103 c50 -77 100 -174 146 -285 40 -98 131 -259
187 -330 57 -73 158 -137 283 -181 120 -41 149 -63 149 -111 0 -44 -56 -106
-118 -130 -68 -26 -197 -24 -287 4 -129 41 -250 137 -300 238 -39 78 -46 144
-43 391 3 214 1 234 -20 309 -13 44 -39 106 -58 138 -18 32 -34 61 -34 64 0
16 57 -49 95 -107z m-5198 45 l1 -56 -61 -31 c-34 -17 -74 -39 -89 -50 l-27
-19 -50 77 c-28 42 -51 77 -51 78 0 0 33 1 73 2 56 0 84 6 127 26 30 15 60 27
65 27 6 0 11 -24 12 -54z m1283 -118 l205 -101 -78 -13 c-118 -20 -159 -49
-201 -141 -10 -23 -22 -42 -26 -42 -10 0 -21 53 -23 110 -2 51 -45 146 -88
195 -24 26 -99 149 -99 160 0 2 24 -12 53 -31 28 -20 144 -81 257 -137z m2656
158 c3 -8 -15 -49 -41 -92 -51 -84 -46 -83 55 14 52 49 57 52 94 46 37 -6 38
-7 32 -42 -3 -20 -10 -37 -15 -39 -6 -2 -73 -43 -150 -91 -126 -78 -192 -133
-178 -147 2 -3 74 15 158 40 l154 44 3 -35 c4 -44 -2 -50 -63 -62 -28 -6 -81
-17 -120 -25 -38 -9 -93 -16 -122 -16 -47 0 -55 -3 -75 -31 -18 -24 -86 -69
-105 -69 -2 0 28 39 66 88 66 84 180 253 252 375 35 59 46 67 55 42z m1485
-88 c182 -91 319 -146 446 -177 51 -13 98 -50 122 -99 30 -58 73 -209 66 -231
-11 -33 -49 -51 -124 -57 -139 -12 -280 49 -409 174 -78 77 -115 129 -230 330
-73 126 -91 163 -78 163 2 0 95 -46 207 -103z m-4498 36 c86 -44 169 -144 202
-243 15 -46 16 -57 1 -127 -17 -87 -69 -201 -123 -277 -52 -71 -115 -146 -123
-146 -4 0 -1 24 7 53 21 78 28 245 13 319 -15 76 -63 184 -113 257 -21 29 -37
58 -37 65 0 6 11 29 24 50 39 64 88 81 149 49z m3246 -48 c47 -120 63 -234 58
-410 -7 -211 -44 -378 -129 -582 -29 -69 -31 -71 -69 -75 -21 -2 -39 -1 -39 3
0 4 7 42 15 85 26 142 35 216 45 399 l10 180 39 35 c49 44 62 69 50 92 -7 13
-22 18 -48 18 l-39 0 5 48 c12 132 24 224 33 248 16 42 42 26 69 -41z m-4844
5 c82 -17 172 -48 218 -76 16 -9 17 -19 11 -75 l-6 -66 -71 17 -70 16 -27 60
c-43 96 -85 102 -197 26 l-58 -39 -63 18 c-68 19 -112 43 -112 60 0 16 99 57
160 68 84 14 118 12 215 -9z m1411 -49 c0 -27 7 -50 22 -71 17 -22 27 -59 38
-131 16 -105 14 -127 -6 -88 -7 12 -30 41 -52 65 l-40 44 12 97 c11 88 18 123
25 123 1 0 2 -18 1 -39z m4109 -122 c-81 -232 -224 -483 -368 -643 -182 -202
-239 -256 -270 -256 -28 0 -24 6 84 123 198 212 228 247 270 310 102 152 214
386 260 539 27 94 29 96 46 61 13 -27 11 -37 -22 -134z m-1399 -76 c-9 -75
-16 -157 -16 -184 0 -45 -17 -79 -41 -79 -5 0 -10 75 -11 175 -1 96 -2 181 -2
188 -1 8 17 35 39 61 l40 48 3 -37 c2 -20 -4 -98 -12 -172z m-3741 181 c40
-18 79 -72 101 -138 12 -35 15 -71 12 -139 -6 -109 -30 -181 -85 -249 -61 -75
-123 -105 -301 -150 -189 -46 -291 -93 -379 -173 -35 -31 -63 -53 -63 -49 0 4
19 31 42 61 43 56 135 142 248 230 68 53 167 152 213 214 44 59 76 160 86 270
11 136 40 164 126 123z m4351 -38 c-7 -44 -8 -45 -54 -55 -26 -5 -82 -22 -126
-36 -43 -14 -81 -24 -83 -22 -2 3 11 14 29 24 18 11 78 48 132 82 55 33 102
59 104 56 2 -2 1 -24 -2 -49z m-4702 -28 c62 -125 31 -291 -86 -453 -34 -47
-277 -295 -290 -295 -9 0 -7 8 23 130 38 157 51 239 58 370 4 74 13 145 19
157 14 26 77 78 147 122 71 45 93 40 129 -31z m2509 -33 c20 -42 37 -78 37
-82 0 -6 -68 69 -104 115 -16 20 -17 25 -5 33 26 17 35 9 72 -66z m-34 -46
c45 -50 81 -94 81 -98 -1 -3 -17 -16 -36 -28 l-35 -23 -67 49 c-37 26 -82 56
-99 67 -18 10 -33 24 -33 30 0 20 -51 54 -81 54 -15 0 -34 3 -43 6 -33 13 -14
19 46 16 35 -1 83 1 108 7 25 5 53 9 62 10 10 1 52 -38 97 -90z m817 -109 c5
-114 1 -184 -15 -330 -21 -177 -60 -441 -67 -449 -11 -13 -33 28 -44 82 -7 34
-20 87 -29 117 -21 74 -19 152 8 290 22 111 75 326 108 440 16 54 16 55 25 25
4 -16 11 -95 14 -175z m-3822 141 c137 -67 179 -143 180 -326 0 -102 -29 -285
-45 -285 -5 0 -9 10 -9 23 -1 32 -32 121 -71 201 -41 84 -138 187 -220 234
-31 18 -62 39 -69 47 -19 22 -6 92 22 122 21 22 29 24 84 21 43 -3 81 -13 128
-37z m4535 -213 l1 -137 -37 -27 c-156 -114 -202 -152 -308 -259 -66 -66 -156
-165 -200 -219 -122 -152 -152 -183 -165 -170 -8 8 -8 24 -1 55 6 24 11 58 11
76 0 21 9 40 24 55 13 13 67 91 119 174 139 224 219 328 431 561 l111 122 7
-47 c3 -26 7 -109 7 -184z m1056 207 c74 -19 208 -85 254 -125 32 -27 34 -31
22 -56 l-12 -27 -87 6 c-48 4 -141 18 -207 32 -66 14 -123 25 -127 25 -5 0 -8
19 -8 43 -1 23 -5 62 -9 86 l-9 44 62 -6 c33 -4 88 -13 121 -22z m-3816 -7
c63 -30 160 -130 199 -205 53 -100 84 -293 47 -293 -11 0 -14 13 -13 55 2 61
-12 86 -36 66 -12 -10 -16 -6 -26 23 -14 43 -47 86 -65 86 -8 0 -20 -19 -27
-42 -10 -32 -18 -43 -33 -43 -17 0 -21 -8 -25 -48 l-5 -49 -29 31 c-37 38 -53
39 -68 4 -7 -16 -13 -29 -14 -31 -1 -2 -20 7 -42 18 -80 42 -114 8 -72 -72 11
-22 20 -42 18 -43 -2 -1 -13 -8 -25 -14 -28 -14 -29 -31 -3 -64 27 -34 25 -41
-9 -34 -31 7 -51 -7 -51 -35 0 -11 -7 -18 -19 -18 -29 0 -51 -11 -51 -25 0 -7
19 -30 42 -51 29 -26 42 -45 39 -59 -1 -11 -4 -21 -6 -23 -7 -7 -127 29 -172
52 -99 50 -185 148 -219 248 -33 99 9 165 151 238 104 53 194 133 264 235 26
39 63 80 81 93 43 29 109 29 169 0z m1006 -8 c15 -17 17 -31 12 -94 -12 -166
-125 -303 -337 -411 -74 -38 -424 -155 -428 -144 -2 5 29 48 70 95 130 153
227 287 278 386 69 133 101 156 245 178 96 14 140 12 160 -10z m-2107 -30 c28
-7 52 -15 52 -18 0 -20 -25 -94 -48 -142 -18 -40 -59 -88 -145 -173 -116 -116
-169 -153 -89 -62 83 94 142 243 142 358 0 51 2 58 18 54 9 -3 41 -11 70 -17z
m466 -152 c58 -98 74 -133 66 -142 -14 -13 -26 3 -76 93 -17 31 -47 66 -65 79
-26 18 -34 31 -35 55 -1 18 -5 40 -9 50 -7 16 -5 16 17 6 16 -7 53 -58 102
-141z m897 72 c25 -74 41 -289 20 -276 -6 4 -11 19 -11 34 0 15 -5 43 -11 62
-11 34 -38 205 -39 245 0 32 17 5 41 -65z m-721 16 c0 -23 3 -70 6 -104 7 -60
7 -60 -26 -77 -17 -9 -33 -15 -35 -13 -4 4 -35 183 -35 203 0 8 15 19 33 24
54 16 57 14 57 -33z m1597 -22 c46 -31 86 -60 88 -65 7 -10 -28 -69 -40 -69
-5 1 -44 9 -85 19 -69 17 -75 20 -72 42 1 13 5 48 8 77 4 28 9 52 12 52 2 0
43 -25 89 -56z m-1712 9 c4 -21 13 -69 21 -107 8 -38 13 -70 11 -72 -2 -2 -17
20 -32 48 -16 29 -44 76 -62 105 -18 29 -33 55 -33 58 0 3 20 5 45 5 43 0 44
-1 50 -37z m4110 16 c4 -6 -14 -31 -41 -55 -86 -81 -237 -179 -568 -369 -350
-201 -495 -306 -879 -635 l-40 -34 7 43 c4 24 17 56 29 71 151 187 335 395
421 478 257 247 579 430 865 492 97 21 197 25 206 9z m-2152 -58 c38 -25 52
-47 68 -109 39 -156 -94 -385 -276 -472 -64 -31 -78 -34 -165 -34 -69 0 -126
7 -210 27 -231 55 -406 52 -566 -10 -13 -5 -15 -3 -9 7 21 33 204 98 417 146
138 31 294 84 365 125 78 45 151 121 212 221 72 120 104 139 164 99z m-2065
-70 c12 -20 32 -57 46 -83 l25 -46 -39 -39 -39 -40 -52 53 c-47 48 -51 56 -42
77 6 12 16 48 22 80 12 54 13 56 35 45 13 -5 33 -27 44 -47z m4490 35 c70 -14
157 -27 193 -31 l67 -6 -62 -106 c-72 -124 -139 -207 -323 -400 -115 -122
-139 -143 -165 -143 -20 0 -28 4 -25 13 100 230 157 462 157 639 0 46 3 58 16
58 9 0 73 -11 142 -24z m-377 -213 c-13 -198 -51 -458 -69 -474 -7 -7 -184
-40 -189 -36 -1 2 10 39 24 82 32 100 38 227 11 233 -10 2 -37 -15 -62 -38
-39 -36 -57 -44 -128 -60 -92 -20 -181 -52 -273 -97 -72 -35 -156 -82 -170
-95 -6 -6 -14 11 -22 49 -6 32 -11 58 -10 58 1 1 36 23 77 51 90 61 216 137
451 273 97 56 218 131 270 165 52 35 95 60 97 55 2 -5 -1 -79 -7 -166z m-2332
141 c43 -10 71 -21 71 -29 0 -7 -24 -38 -53 -69 l-53 -56 -99 0 -99 0 51 53
c28 28 58 67 67 85 19 37 20 37 115 16z m-3015 -37 c95 -47 181 -137 231 -240
19 -41 35 -80 34 -88 0 -8 -9 6 -20 30 -15 35 -23 42 -39 38 -15 -4 -24 2 -34
21 -23 44 -54 68 -74 56 -13 -9 -27 -5 -62 17 -85 52 -124 47 -99 -12 10 -26
10 -33 -4 -46 -14 -14 -14 -19 -1 -44 l14 -28 -43 2 c-41 2 -42 1 -40 -28 2
-30 2 -30 -41 -27 -47 4 -86 -11 -86 -32 0 -17 61 -72 90 -81 20 -6 21 -8 4
-26 -14 -16 -15 -21 -3 -35 8 -10 27 -23 44 -30 l30 -12 -27 -11 c-29 -11 -36
-29 -17 -48 8 -8 5 -14 -10 -22 -50 -27 -12 -66 75 -78 24 -3 44 -10 44 -15 0
-32 -200 -43 -278 -14 -69 25 -146 82 -170 124 -40 72 -31 106 64 245 57 83
79 141 95 252 12 91 17 105 43 134 32 35 54 41 134 37 59 -2 86 -10 146 -39z
m2060 -39 c14 -29 26 -61 26 -72 0 -20 1 -20 19 3 33 43 38 -3 14 -124 -5 -29
-5 -30 14 -12 11 9 22 17 24 17 9 0 -23 -184 -35 -206 -6 -11 -34 -41 -63 -66
-45 -40 -60 -47 -120 -56 -132 -21 -159 -23 -140 -11 33 20 16 25 -53 15 -74
-10 -97 -3 -66 20 22 16 22 16 -21 33 -17 7 -41 24 -54 37 -20 21 -21 26 -9
34 8 5 27 10 43 10 25 0 27 3 21 26 l-7 27 49 -7 c27 -4 57 -9 67 -12 10 -3
-5 17 -33 45 -28 28 -49 55 -46 60 3 5 19 11 36 14 l30 6 -25 47 c-14 26 -25
58 -25 71 0 21 4 23 23 18 12 -4 39 -18 59 -31 21 -13 40 -24 42 -24 2 0 7 13
11 30 4 16 11 32 16 36 11 7 79 -64 79 -82 0 -7 4 -15 9 -18 5 -3 8 25 7 63
-1 75 5 91 29 71 17 -14 19 -10 30 53 3 20 10 37 15 37 4 0 20 -23 34 -52z
m1433 -128 c100 -161 187 -319 181 -326 -7 -6 -143 180 -186 254 -33 55 -41
63 -75 68 -44 8 -47 12 -36 41 6 16 13 21 25 16 14 -5 15 -3 5 15 -10 18 -17
92 -8 81 2 -2 44 -69 94 -149z m-2293 31 c14 -15 20 -37 20 -74 2 -76 43 -156
119 -231 34 -33 84 -72 110 -86 26 -14 47 -28 47 -31 0 -3 -27 1 -61 10 -58
15 -65 21 -172 136 -62 66 -140 149 -174 185 l-62 65 23 25 c13 14 31 37 41
52 l17 28 37 -29 c20 -16 45 -38 55 -50z m1736 -7 c0 -10 -124 -63 -217 -92
-77 -25 -93 -27 -97 -15 -9 22 -7 33 4 33 6 0 35 15 65 34 29 19 71 36 92 39
64 6 153 7 153 1z m-2925 -33 c28 -16 57 -36 64 -45 14 -16 36 -23 27 -8 -2 4
-1 14 4 21 6 10 16 2 39 -30 17 -23 34 -53 37 -66 7 -26 24 -31 24 -8 0 33 19
11 44 -50 32 -79 34 -112 13 -190 -14 -50 -25 -68 -69 -108 -70 -64 -88 -74
-80 -45 l6 23 -30 -19 c-16 -11 -38 -25 -49 -33 -31 -21 -58 -17 -50 7 6 18 2
20 -32 20 -46 0 -113 18 -113 30 0 4 14 14 30 22 33 14 37 23 15 32 -29 11
-15 25 41 43 l56 17 -49 11 c-80 19 -116 47 -78 61 24 10 18 20 -28 47 -23 14
-50 34 -60 45 -18 20 -18 20 3 27 12 4 44 4 72 0 55 -8 55 -7 33 47 -6 16 -3
17 26 12 19 -4 51 -15 71 -25 21 -11 40 -19 43 -19 3 0 -13 23 -35 51 -45 57
-49 69 -20 69 l20 0 -20 40 c-31 61 -28 63 45 21z m1094 -103 c191 -203 207
-221 181 -208 -14 7 -49 31 -79 54 -45 34 -62 41 -96 40 -51 -1 -100 -28 -126
-70 -25 -41 -24 -72 5 -126 l24 -46 -43 -12 c-98 -27 -133 -76 -82 -114 12
-10 5 -8 -15 4 -79 45 -236 119 -300 141 l-67 23 -21 65 c-11 35 -30 77 -41
92 l-19 27 27 20 c64 45 146 77 293 113 150 38 232 67 245 89 3 5 9 10 12 10
3 0 49 -46 102 -102z m2327 79 c27 -50 171 -254 221 -312 70 -82 74 -89 125
-210 l29 -70 -43 43 c-24 23 -51 42 -60 42 -9 0 -18 7 -22 15 -7 20 -29 19
-76 -5 -46 -23 -50 -24 -50 -7 0 26 -62 166 -89 197 -32 39 -55 36 -73 -7 -6
-16 -13 -104 -16 -197 l-4 -169 -58 -71 c-31 -39 -73 -96 -93 -126 -21 -30
-37 -52 -37 -50 0 3 11 50 25 104 30 117 31 154 8 163 -12 5 -29 -7 -59 -40
-41 -46 -134 -196 -134 -217 0 -19 -13 -11 -75 48 -33 31 -75 68 -91 82 -24
20 -34 43 -53 115 -13 50 -45 162 -71 250 -26 88 -47 161 -46 162 1 1 44 -8
96 -19 164 -35 277 -13 398 74 55 41 116 111 154 179 21 38 24 40 58 34 19 -4
35 -8 36 -8z m1691 -184 c-3 -38 -18 -106 -34 -152 l-28 -85 -95 -28 c-160
-47 -145 -45 -125 -15 9 15 55 58 101 97 137 116 159 146 130 179 -15 17 -14
20 10 44 41 41 48 35 41 -40z m1316 -45 c23 -27 22 -40 -14 -128 -46 -111 -51
-226 -15 -335 15 -44 54 -136 88 -205 81 -167 98 -213 88 -230 -5 -8 -10 -12
-12 -10 -2 3 -16 24 -31 48 -47 72 -97 121 -220 214 -140 106 -180 159 -197
259 -14 83 -2 160 40 246 67 135 212 210 273 141z m-5230 -32 c137 -98 246
-129 459 -130 82 -1 148 -3 148 -6 0 -9 -172 -108 -234 -135 -121 -53 -247
-68 -339 -40 -130 39 -270 192 -252 275 10 44 61 80 113 80 35 0 55 -8 105
-44z m1345 28 c35 -4 45 -10 53 -32 33 -87 131 -453 134 -501 2 -32 15 -85 29
-120 13 -34 34 -98 46 -144 11 -45 23 -90 26 -99 3 -12 0 -15 -13 -12 -32 8
-44 -11 -61 -99 l-17 -86 -34 92 c-56 156 -143 359 -178 419 -19 32 -58 90
-88 130 l-55 73 0 191 c0 105 2 193 5 196 5 5 81 1 153 -8z m-188 -171 l0
-178 -50 50 c-49 50 -50 50 -39 89 13 48 17 165 6 188 -9 18 5 25 56 27 l27 1
0 -177z m-1935 143 c9 -14 25 -52 35 -86 l18 -61 -66 -44 c-37 -25 -79 -45
-93 -45 -24 0 -27 5 -34 46 -5 33 -2 52 9 69 9 14 16 34 16 46 0 22 69 99 89
99 6 0 18 -11 26 -24z m1836 -13 c8 -20 8 -51 -1 -110 l-12 -83 -37 -10 c-20
-6 -65 -13 -101 -17 -55 -5 -69 -2 -89 14 l-24 20 22 45 c14 31 32 50 52 58
16 7 36 25 44 40 20 40 65 69 103 70 26 0 35 -5 43 -27z m397 15 c9 -12 120
-389 137 -465 6 -31 5 -32 -16 -24 -17 6 -27 22 -37 62 -10 43 -96 348 -118
422 -6 20 18 24 34 5z m1787 -94 c4 -31 3 -59 -2 -63 -4 -4 -45 -36 -91 -70
l-83 -62 6 53 c10 87 12 91 83 145 37 28 70 52 73 52 4 1 10 -24 14 -55z
m2273 -21 c95 -121 110 -175 71 -260 -28 -63 -65 -188 -84 -285 -15 -79 -55
-153 -78 -145 -11 3 -66 125 -98 215 -10 29 -23 88 -29 132 -19 136 12 247 94
335 54 58 83 60 124 8z m-4701 -15 c-22 -33 -54 -162 -62 -242 -5 -52 0 -118
21 -258 25 -170 27 -195 15 -250 -18 -88 -45 -134 -118 -205 -107 -105 -244
-160 -378 -150 -79 5 -122 24 -160 68 -50 61 -27 94 114 162 89 43 118 64 181
127 91 91 144 192 221 421 50 152 107 280 151 341 24 35 38 22 15 -14z m-72
-40 c-19 -35 -46 -94 -61 -132 -15 -39 -29 -65 -31 -59 -2 6 14 56 36 110 23
55 41 107 41 115 0 16 13 26 36 27 7 1 -3 -27 -21 -61z m-104 -147 c-76 -190
-109 -250 -184 -337 -97 -114 -188 -168 -319 -187 -144 -21 -165 5 -131 168
29 142 39 154 187 225 167 81 249 133 446 283 45 35 66 46 68 36 1 -8 -29 -93
-67 -188z m-1265 130 c122 -44 300 -138 389 -205 84 -64 235 -200 235 -212 0
-31 -24 -17 -139 82 -68 57 -165 129 -217 160 -98 58 -260 133 -332 155 -45
13 -49 18 -30 37 15 15 1 17 94 -17z m-282 -143 c35 -94 62 -143 126 -233 132
-186 156 -263 120 -395 -30 -109 -117 -224 -209 -274 -66 -35 -145 -45 -190
-22 -61 32 -59 77 11 159 70 83 104 150 123 241 16 75 17 99 6 208 -6 68 -18
168 -26 223 -16 109 -19 237 -7 249 4 4 10 -15 14 -42 4 -28 18 -79 32 -114z
m3963 95 l-9 -68 -93 -90 c-50 -49 -117 -119 -147 -154 l-55 -63 -27 58 c-17
38 -24 64 -19 75 11 21 339 307 354 309 3 0 1 -30 -4 -67z m-3192 5 c40 -42
121 -93 170 -107 55 -15 148 -13 220 4 76 18 75 18 75 -3 0 -21 -119 -92 -154
-92 -39 0 -329 77 -396 105 -36 15 -73 35 -84 45 -18 18 -18 18 8 35 29 20 93
44 116 45 8 0 29 -14 45 -32z m-477 -34 c201 -80 339 -170 546 -356 l49 -43
-7 -51 -7 -50 -92 24 c-124 32 -295 40 -402 19 -44 -8 -87 -18 -95 -21 -11 -4
-24 10 -44 47 -16 28 -55 89 -88 134 -62 86 -119 193 -136 255 -10 36 -9 37
21 44 17 3 47 17 67 30 41 26 38 27 188 -32z m-394 -21 c3 -27 9 -113 12 -193
8 -176 -7 -267 -62 -372 -40 -75 -92 -126 -168 -165 -66 -33 -86 -24 -113 54
-55 153 -52 197 16 275 62 71 148 203 202 311 44 89 79 136 100 137 4 0 9 -21
13 -47z m1495 34 c-16 -14 -129 -87 -133 -87 -4 0 -6 7 -6 15 0 13 130 87 139
79 2 -2 2 -6 0 -7z m416 -5 c35 1 66 0 69 -3 17 -16 78 -222 101 -334 14 -71
30 -142 35 -157 11 -33 9 -33 -55 -9 -27 11 -69 26 -92 33 -34 10 -56 29 -112
98 l-71 85 0 121 c0 67 5 135 11 152 9 28 13 30 31 21 11 -6 48 -9 83 -7z
m220 -58 c84 -90 177 -218 215 -294 52 -104 153 -366 226 -588 41 -123 74
-225 74 -228 0 -2 -9 1 -20 8 -13 8 -30 46 -50 108 l-30 95 -112 79 c-129 91
-246 155 -408 224 -193 83 -197 85 -202 132 l-4 40 54 0 c74 0 161 -24 252
-70 108 -55 160 -95 288 -228 l112 -117 -39 110 c-42 120 -114 298 -159 397
-39 85 -137 220 -233 320 -43 46 -79 84 -79 86 0 1 10 2 23 2 16 0 45 -24 92
-76z m1335 64 c0 -15 -62 -118 -71 -118 -6 0 -19 50 -19 76 0 15 56 54 78 54
6 0 12 -5 12 -12z m92 -66 c82 -87 80 -80 50 -219 -14 -68 -28 -123 -32 -123
-9 0 -60 193 -76 287 -19 121 -11 129 58 55z m-3669 32 c12 -12 -91 -149 -160
-214 -98 -93 -145 -113 -253 -108 -64 3 -99 10 -142 30 -103 47 -129 98 -88
166 28 46 58 57 115 43 122 -31 252 -19 372 34 31 14 63 25 72 25 9 1 27 7 41
15 28 16 34 17 43 9z m2287 -233 c0 -78 13 -220 26 -279 7 -32 6 -33 -19 -21
-14 6 -28 18 -31 25 -8 21 -43 174 -56 249 -7 39 -25 106 -41 150 -15 44 -30
89 -34 100 -4 11 30 -18 74 -64 l81 -84 0 -76z m1334 9 c13 -52 32 -120 41
-151 l17 -57 -41 -163 c-23 -90 -50 -198 -61 -239 -11 -41 -29 -120 -40 -175
-29 -143 -30 -146 -39 -141 -4 3 -2 38 5 78 17 96 18 194 2 205 -7 4 -21 6
-30 5 -15 -3 -17 1 -8 23 42 109 70 459 52 623 l-11 94 37 55 37 56 7 -59 c3
-32 18 -102 32 -154z m-2689 145 c33 -12 112 -35 175 -50 63 -15 122 -29 130
-32 9 -3 0 -12 -25 -26 -22 -13 -49 -37 -60 -54 -11 -18 -24 -32 -28 -33 -4 0
-54 40 -110 88 -56 49 -120 101 -142 117 -22 15 -31 24 -20 20 11 -4 47 -18
80 -30z m4219 -59 c-27 -25 -93 -83 -146 -128 -53 -46 -97 -86 -97 -90 -1 -4
38 6 85 22 239 81 449 114 714 113 159 0 213 -4 293 -22 54 -11 108 -26 120
-33 37 -22 146 -103 146 -110 1 -12 -153 -22 -346 -23 -105 0 -186 -3 -180 -7
7 -4 24 -8 38 -8 38 0 260 -63 365 -103 76 -29 209 -91 223 -103 9 -9 -65 -94
-83 -95 -12 -1 -48 -3 -80 -5 -56 -3 -68 0 -220 70 -163 75 -381 167 -535 227
l-85 32 -263 -6 -264 -5 -117 -95 c-142 -116 -323 -286 -439 -416 -48 -53 -90
-97 -95 -99 -4 -2 -8 9 -8 25 0 22 15 47 57 94 99 113 314 318 443 422 69 55
185 153 258 216 186 161 188 163 224 171 18 3 35 5 37 4 2 -2 -19 -23 -45 -48z
m1946 43 c60 -14 90 -43 90 -88 0 -62 -32 -89 -118 -101 -97 -13 -170 -40
-243 -89 -67 -45 -70 -46 -66 -29 5 25 -33 18 -67 -13 -20 -17 -39 -29 -42
-26 -3 2 9 41 26 86 39 100 105 191 163 226 71 41 170 54 257 34z m-2055 -54
c-22 -20 -121 -103 -220 -186 -99 -83 -207 -173 -240 -201 -75 -63 -171 -156
-303 -293 -57 -59 -105 -105 -107 -103 -2 2 53 135 110 265 10 22 57 64 151
134 155 117 271 223 344 314 l50 63 103 20 c56 11 113 21 127 21 24 1 23 -1
-15 -34z m-1915 -8 c0 -48 -85 -348 -99 -346 -3 0 -24 23 -45 51 l-39 52 38
74 c40 79 121 192 136 192 5 0 9 -11 9 -23z m168 -127 l2 -75 -96 -120 c-54
-66 -100 -121 -103 -122 -3 -1 -18 16 -34 38 l-27 40 67 107 c37 59 92 139
122 178 64 82 66 80 69 -46z m1480 90 c-52 -66 -251 -247 -373 -339 l-130 -98
-26 -69 c-14 -38 -38 -96 -53 -129 l-28 -60 -20 50 c-11 28 -26 57 -33 65 -11
13 -11 28 1 95 14 80 41 271 46 334 3 33 3 33 97 57 51 14 96 22 100 19 5 -6
-29 -187 -44 -230 -9 -27 56 44 165 180 l89 110 98 22 c138 30 140 30 111 -7z
m-3054 -22 c-13 -76 -99 -273 -129 -298 -15 -13 -18 -9 -35 43 -12 37 -11 39
29 82 42 46 98 129 119 178 16 36 23 34 16 -5z m637 -46 c21 -31 46 -75 57
-97 28 -56 122 -365 111 -365 -5 0 -9 4 -9 9 0 6 -38 42 -84 82 l-85 71 -16
92 c-16 93 -26 266 -16 266 3 0 22 -26 42 -58z m2109 -39 c-79 -102 -124 -152
-117 -131 3 9 11 52 18 96 l12 80 51 15 c102 30 104 26 36 -60z m-631 2 l20
-46 -42 -59 c-23 -32 -44 -59 -47 -59 -3 -1 6 46 19 104 14 58 26 105 28 105
1 0 11 -20 22 -45z m-1872 -78 c38 -47 40 -52 21 -55 -29 -5 -65 34 -70 74 -2
19 -2 34 2 33 3 0 24 -23 47 -52z m2168 -34 c-4 -43 -17 -137 -30 -208 -18
-107 -27 -136 -47 -158 -14 -15 -38 -69 -57 -127 -18 -55 -33 -100 -34 -100
-1 0 -3 71 -3 158 -1 132 -14 256 -36 341 -2 9 197 171 211 171 2 0 0 -35 -4
-77z m-830 -420 c-4 -84 -11 -153 -16 -153 -5 0 -9 6 -9 14 0 8 -38 90 -84
182 l-85 168 97 120 97 120 3 -150 c2 -82 0 -218 -3 -301z m3840 417 c55 -28
95 -78 95 -120 0 -14 -14 -73 -31 -130 -26 -88 -30 -114 -25 -169 21 -229 21
-217 -11 -250 -40 -40 -100 -54 -203 -48 -67 3 -99 11 -150 35 -68 31 -113 61
-94 62 7 0 25 -7 40 -15 33 -17 104 -20 104 -5 0 6 -7 25 -16 41 -14 28 -14
32 1 50 17 17 16 20 -10 51 l-28 33 44 5 c43 5 44 6 42 41 -2 35 -1 36 48 48
68 18 80 42 37 75 -18 13 -45 28 -60 31 -32 8 -32 9 -16 34 18 29 3 48 -41 56
l-41 7 31 25 c28 24 29 26 13 44 -17 18 -16 20 4 40 30 27 28 45 -5 57 l-28 9
35 11 c19 6 76 10 125 9 73 -2 100 -8 140 -27z m-797 -37 c50 -49 108 -121
101 -126 -56 -40 -57 -40 -122 -9 -144 68 -341 142 -379 142 -10 0 -18 3 -18
8 0 4 57 9 128 10 70 2 145 7 167 12 67 13 73 12 123 -37z m396 23 c-6 -24 -6
-24 33 -11 45 17 73 18 93 5 12 -8 10 -14 -13 -38 l-28 -29 23 -15 c23 -16 23
-16 -31 -49 l-55 -34 45 -3 c90 -5 106 -17 73 -54 -16 -17 -15 -19 22 -33 54
-21 86 -40 86 -51 1 -15 -45 -34 -86 -34 -41 0 -40 4 -20 -59 4 -14 0 -20 -13
-23 -19 -4 -76 5 -108 17 -11 4 3 -16 33 -46 28 -30 52 -57 52 -61 0 -3 -11
-9 -25 -12 l-24 -6 24 -36 c44 -64 29 -70 -61 -24 -32 16 -60 30 -60 30 -1 0
1 -11 4 -25 8 -43 -16 -28 -66 40 -44 62 -47 64 -52 39 -5 -24 -7 -23 -46 33
-71 101 -76 115 -68 196 8 80 19 101 103 193 38 41 53 52 49 37 -4 -13 -4 -23
-2 -23 2 0 26 23 52 50 53 55 76 64 66 26z m-1308 -21 c212 -83 259 -102 359
-146 61 -26 154 -67 209 -92 107 -49 108 -47 -9 -63 -112 -15 -255 -53 -451
-119 -124 -42 -240 -95 -358 -164 -49 -28 -91 -51 -93 -51 -7 0 34 64 118 185
162 233 211 363 159 428 -39 49 -122 34 -186 -35 -50 -52 -50 -52 -184 -488
-23 -74 -46 -149 -51 -166 -12 -40 -73 -83 -169 -119 -41 -15 -102 -41 -134
-57 l-59 -30 118 134 c205 230 263 323 219 346 -11 5 -28 6 -39 1 -36 -14 -47
-11 -35 10 5 11 10 35 10 55 0 51 -27 55 -98 15 -82 -47 -199 -169 -341 -359
-131 -174 -238 -307 -267 -331 -16 -13 -17 -12 -10 6 15 39 46 281 46 356 l0
77 74 83 c147 167 452 452 563 526 16 10 72 16 215 21 283 10 315 8 394 -23z
m-4520 -15 c97 -17 174 -42 174 -57 0 -8 11 -25 25 -39 23 -22 32 -25 102 -23
59 1 90 -4 126 -20 50 -22 63 -14 22 13 -14 9 -23 21 -20 26 13 21 42 8 83
-33 l43 -44 -24 -16 c-23 -15 -34 -14 -158 11 -130 26 -144 26 -461 25 l-328
-2 0 54 c0 29 -3 60 -6 68 -14 37 275 62 422 37z m623 -12 c5 -13 12 -38 16
-56 6 -31 5 -33 -41 -52 l-48 -21 -30 31 c-29 30 -30 32 -12 43 10 7 37 26 60
44 22 18 42 32 44 32 1 1 6 -9 11 -21z m3806 -3 c40 -39 34 -88 -25 -201 -28
-53 -87 -151 -133 -218 -76 -110 -157 -240 -157 -251 0 -3 24 11 53 30 68 45
232 137 277 154 19 8 40 18 46 22 19 15 274 99 414 138 42 12 120 27 174 36
103 15 307 22 325 11 28 -18 3 -24 -90 -25 -147 -1 -328 -35 -519 -96 -294
-94 -413 -151 -650 -312 -148 -101 -353 -254 -347 -259 2 -2 59 8 128 23 112
24 145 27 339 27 271 1 409 -18 637 -86 l102 -31 10 -46 c5 -25 12 -53 16 -62
5 -13 -2 -15 -52 -12 -66 4 -236 21 -297 29 -25 3 10 -13 88 -40 168 -59 376
-155 473 -219 118 -78 253 -219 253 -264 0 -47 -249 58 -590 248 -288 160
-636 336 -680 343 -58 9 -394 36 -453 36 -44 0 -58 -6 -130 -59 -45 -33 -109
-84 -142 -113 -33 -30 -100 -85 -148 -122 -77 -58 -86 -63 -70 -35 23 40 120
141 203 211 36 30 173 135 305 233 132 98 243 181 248 185 6 5 89 268 164 520
36 123 83 188 158 217 42 16 43 16 70 -12z m-2516 -190 c-1 -16 -4 -41 -8 -55
-6 -20 -13 -2 -34 86 -15 61 -27 115 -27 120 2 24 69 -125 69 -151z m1081 151
c0 -2 7 -41 16 -87 18 -94 22 -283 13 -569 l-7 -185 -81 -135 c-45 -74 -87
-150 -93 -167 -7 -18 -15 -33 -19 -33 -4 0 -9 15 -12 33 -5 35 33 116 120 251
l45 69 -17 146 c-24 213 -50 348 -107 560 -2 5 26 35 62 65 59 50 80 64 80 52z
m-1730 -171 c43 -40 165 -132 222 -168 21 -13 68 -92 68 -113 0 -2 -21 12 -46
31 -83 64 -119 60 -108 -13 5 -36 34 -91 122 -232 102 -164 242 -415 242 -434
0 -4 -15 4 -32 18 -60 44 -197 107 -285 129 l-88 22 -176 175 c-253 251 -291
298 -305 370 l-11 59 46 49 c55 59 87 118 102 189 l10 51 97 -45 c55 -26 117
-64 142 -88z m4292 68 c-5 -10 -12 -50 -16 -90 -6 -56 -4 -79 9 -103 26 -51
-1 -67 -49 -29 -14 11 -40 40 -56 65 -36 51 -33 59 32 130 26 29 49 44 65 44
19 0 22 -3 15 -17z m-3723 -21 c5 -10 19 -55 31 -101 17 -69 19 -92 11 -135
-6 -28 -13 -84 -17 -124 -4 -40 -9 -70 -12 -68 -3 3 -20 52 -39 108 -29 90
-32 112 -27 173 7 87 23 165 35 165 4 0 13 -8 18 -18z m-1544 -18 l50 -7 -40
-13 c-50 -15 -122 -18 -130 -4 -12 19 16 41 44 36 14 -3 49 -8 76 -12z m2554
-22 c48 -176 80 -351 101 -549 l11 -102 -70 -118 c-39 -65 -75 -124 -79 -132
-6 -10 -12 0 -21 35 -7 27 -22 74 -33 104 -11 30 -22 66 -25 80 -3 14 -9 27
-13 30 -17 13 -46 77 -43 95 2 11 13 70 24 130 23 122 96 420 110 448 15 27
27 20 38 -21z m-1359 -115 c5 -17 9 -31 7 -33 -4 -4 -184 133 -193 147 -4 7
34 -10 84 -36 73 -38 93 -54 102 -78z m516 -65 c-15 -35 -59 -170 -88 -275
-12 -43 -15 -46 -31 -34 -17 11 -17 22 -8 122 13 126 29 236 41 280 4 17 11
43 15 60 6 29 7 28 47 -44 40 -72 40 -73 24 -109z m1198 50 c67 -130 68 -430
2 -712 l-15 -65 26 30 c73 84 115 127 101 105 -8 -14 -39 -68 -69 -120 -29
-52 -64 -103 -76 -113 -13 -10 -23 -25 -23 -32 0 -8 -30 -87 -66 -177 -37 -90
-77 -189 -90 -222 -23 -57 -102 -185 -115 -186 -4 0 1 30 11 68 69 261 121
541 144 772 31 300 38 356 52 440 23 137 62 240 89 240 8 0 21 -13 29 -28z
m-1589 -44 c72 -52 75 -55 103 -133 16 -44 28 -81 28 -82 -1 -1 -34 14 -73 35
-77 39 -69 28 -137 186 -31 69 -27 69 79 -6z m2315 39 c0 -7 -5 -29 -10 -49
-9 -31 -22 -43 -93 -85 -93 -54 -163 -108 -256 -197 -56 -53 -61 -56 -36 -21
115 161 217 272 305 331 65 44 90 50 90 21z m1426 5 c5 -5 46 -24 91 -42 69
-28 81 -36 73 -50 -22 -41 -136 -131 -258 -203 -185 -109 -237 -177 -249 -320
-5 -57 -9 -68 -22 -64 -206 64 -273 79 -456 102 -71 9 -131 18 -132 19 -2 1
27 8 63 15 101 18 219 59 240 82 19 21 19 21 -4 39 -51 42 -269 68 -416 51
-50 -6 -92 -9 -94 -7 -6 7 232 145 320 185 113 51 279 107 478 161 116 32 343
51 366 32z m-5056 -45 c30 -46 88 -93 127 -105 22 -7 71 -12 109 -12 67 0 71
-2 140 -53 124 -90 250 -219 398 -404 49 -62 65 -74 109 -88 29 -10 99 -45
157 -80 58 -34 131 -75 163 -91 32 -16 54 -30 49 -32 -5 -1 -47 6 -93 17 -216
50 -386 67 -744 75 -285 7 -415 25 -415 60 0 29 123 88 234 111 116 23 340 18
475 -11 24 -5 23 -3 -14 31 -95 87 -277 217 -472 336 -226 138 -364 244 -349
268 13 21 108 4 126 -22z m1825 -152 c150 -274 265 -545 266 -628 0 -29 4 -74
9 -102 4 -27 7 -51 5 -53 -2 -2 -18 23 -36 55 -48 85 -104 168 -172 255 -51
68 -64 93 -94 190 -54 179 -96 341 -95 370 1 34 21 73 32 62 5 -5 43 -72 85
-149z m-1260 79 c3 -23 14 -50 23 -61 9 -10 49 -54 87 -98 79 -89 236 -249
308 -313 26 -23 47 -45 47 -47 0 -3 -12 -5 -26 -5 -31 0 -200 161 -353 335
-53 61 -114 129 -136 153 -44 48 -52 62 -36 62 6 0 12 -1 14 -2 1 -2 13 7 27
20 28 26 34 20 45 -44z m4725 56 c0 -21 -59 -127 -125 -225 -166 -248 -200
-368 -155 -550 24 -99 24 -101 0 -125 -44 -44 -147 -12 -201 62 -60 84 -73
123 -73 239 -1 98 1 109 29 164 32 62 105 131 182 170 126 64 260 171 304 242
20 32 39 43 39 23z m-3003 -90 c-5 -78 -60 -420 -74 -460 -6 -18 -53 161 -54
207 -2 70 100 343 128 343 3 0 3 -40 0 -90z m1423 47 c0 -33 -120 -183 -330
-412 -169 -184 -276 -311 -364 -433 -77 -107 -136 -197 -136 -209 0 -4 24 16
53 44 135 132 338 256 495 303 92 27 110 22 85 -21 -26 -45 -205 -214 -378
-359 -242 -201 -422 -371 -603 -570 -37 -41 -125 -90 -138 -77 -3 3 10 27 28
54 19 26 64 98 100 158 37 61 92 146 124 190 54 75 88 145 170 343 138 336
257 527 452 725 102 104 202 180 309 233 88 45 133 55 133 31z m-2527 -23 c21
-14 37 -27 35 -29 -2 -1 -24 2 -50 8 -35 9 -48 16 -48 29 0 25 19 22 63 -8z
m-577 -164 c65 -74 167 -183 226 -241 103 -103 107 -108 95 -133 -7 -14 -16
-26 -22 -26 -28 0 -81 48 -156 142 -97 121 -249 274 -334 338 -33 25 -60 50
-60 55 -1 6 20 17 45 26 53 19 32 36 206 -161z m4743 144 c12 -19 21 -50 21
-68 0 -63 31 -242 55 -322 36 -117 33 -140 -18 -210 -60 -80 -96 -114 -121
-114 -40 0 -105 86 -130 169 -36 122 -10 251 91 449 37 72 71 132 74 132 4 0
16 -16 28 -36z m-3603 -197 c28 -100 55 -191 59 -202 7 -17 4 -17 -19 5 -33
30 -38 40 -82 195 -23 82 -32 130 -28 152 3 18 9 33 13 33 3 0 29 -82 57 -183z
m3824 0 c50 -43 149 -91 220 -106 86 -20 86 -20 98 -47 44 -95 -22 -152 -163
-141 -161 12 -248 90 -299 267 -18 64 -35 180 -29 197 3 6 34 -21 69 -62 35
-40 82 -89 104 -108z m-3880 -22 c12 -43 25 -86 28 -95 4 -12 1 -11 -15 3 -12
10 -23 36 -26 60 -3 23 -9 60 -13 82 -11 62 1 38 26 -50z m-258 -151 c56 -48
58 -53 82 -144 14 -52 32 -130 42 -174 15 -73 21 -83 81 -150 35 -39 83 -94
106 -123 23 -29 45 -52 48 -53 4 0 -17 55 -46 123 -64 150 -137 357 -126 357
18 0 40 -40 70 -129 71 -208 191 -458 299 -619 l62 -94 -52 47 c-29 26 -58 57
-65 70 -7 12 -24 26 -39 29 -15 4 -52 24 -83 45 -31 21 -89 55 -128 75 -40 20
-73 38 -73 41 0 7 31 -6 154 -64 60 -29 114 -50 120 -48 17 6 -90 106 -207
193 -125 94 -208 144 -422 254 -88 45 -190 102 -226 126 -116 76 -116 94 1 94
125 0 252 -47 408 -151 39 -27 72 -45 72 -41 0 21 -137 283 -203 389 -43 68
-77 126 -77 130 0 3 33 -25 73 -63 39 -38 98 -92 129 -120z m220 149 c6 -45 2
-52 -17 -32 -8 8 -11 25 -8 42 8 38 20 34 25 -10z m643 -16 c-3 -7 -12 -61
-20 -121 -8 -60 -17 -111 -19 -113 -12 -12 -16 44 -7 92 6 30 16 80 22 110 6
30 14 53 19 50 5 -3 7 -11 5 -18z m2015 -24 c67 -15 94 -29 84 -44 -17 -28
-381 -109 -490 -109 -61 0 -188 -16 -294 -36 -30 -5 -16 8 90 86 68 51 140 97
160 103 102 28 327 29 450 0z m-882 -190 c-195 -147 -191 -143 -240 -183 -55
-45 -36 -17 69 100 72 81 86 92 183 139 58 28 111 51 118 51 8 0 -51 -48 -130
-107z m-1042 -80 c-14 -54 -32 -116 -40 -138 l-15 -40 0 32 c-1 18 4 78 11
134 9 84 15 106 37 132 l26 31 3 -27 c2 -15 -8 -71 -22 -124z m-833 39 c13
-21 31 -59 42 -87 10 -27 26 -68 36 -90 9 -22 36 -85 58 -140 l41 -100 -69 74
-68 74 -28 121 c-15 66 -34 138 -41 159 -16 45 -2 40 29 -11z m1152 -87 c-8
-65 -18 -122 -22 -126 -11 -9 -133 -49 -133 -43 0 23 158 300 166 291 2 -2 -3
-57 -11 -122z m-247 30 c57 -196 74 -365 66 -660 -4 -168 -9 -229 -21 -257 -9
-21 -20 -38 -25 -38 -4 0 -7 3 -6 8 5 18 -26 250 -53 397 -6 33 -27 122 -45
198 l-35 138 35 117 c19 64 37 132 41 150 9 44 19 32 43 -53z m1117 -40 c155
-22 337 -87 320 -114 -10 -17 -110 -32 -252 -38 -79 -3 -143 -3 -143 2 0 4 11
20 25 37 29 34 31 50 9 69 -12 10 -25 10 -67 0 -77 -19 -133 -38 -178 -62 -23
-11 -43 -19 -44 -17 -2 2 35 34 83 70 98 76 95 75 247 53z m-1802 -180 c20
-66 39 -129 42 -140 3 -11 -1 -7 -10 8 -16 27 -95 228 -110 277 l-7 25 25 -25
c18 -17 36 -62 60 -145z m104 -34 c3 -13 23 -69 44 -124 21 -55 37 -103 34
-105 -2 -3 -21 2 -42 11 -36 14 -40 20 -66 98 -16 46 -39 119 -52 163 l-23 79
49 -49 c27 -27 53 -60 56 -73z m2781 108 l83 -2 44 -58 c25 -33 43 -59 42 -59
-2 0 -35 15 -73 34 -38 18 -97 44 -131 57 -35 13 -63 28 -63 32 0 5 4 6 8 3 5
-3 45 -6 90 -7z m-2483 -180 c30 -90 52 -165 50 -168 -7 -6 -7 -5 -52 75 -29
50 -42 88 -47 130 -4 32 -9 77 -12 99 -10 68 5 34 61 -136z m-1545 128 c44
-18 54 -27 52 -42 -12 -66 -13 -95 -4 -111 6 -11 6 -29 -1 -50 -7 -24 -7 -45
1 -70 l11 -36 -55 -25 c-39 -18 -71 -25 -114 -24 -65 0 -101 14 -307 119 -141
71 -140 77 27 172 166 94 277 113 390 67z m2050 -17 c0 -23 -5 -31 -22 -35
-89 -20 -114 -23 -122 -15 -18 18 4 38 61 58 78 27 83 27 83 -8z m-1887 -31
c20 -17 51 -51 68 -75 30 -44 30 -46 13 -72 -38 -59 -78 -103 -106 -118 -29
-15 -32 -15 -52 5 -19 20 -24 53 -17 126 1 11 -1 35 -5 52 -8 40 1 76 22 97
22 23 34 20 77 -15z m1560 -109 c13 -54 12 -62 -7 -109 -33 -77 -39 -73 -32
19 3 47 6 110 6 140 1 63 10 50 33 -50z m276 -105 c-22 -99 -48 -217 -58 -263
-10 -45 -21 -85 -24 -88 -3 -4 -5 111 -4 255 2 253 3 262 22 266 65 15 100 21
103 15 1 -3 -16 -87 -39 -185z m-689 153 c16 -18 34 -46 39 -63 5 -16 37 -102
70 -189 34 -88 61 -176 61 -195 0 -21 -4 -31 -9 -25 -5 5 -48 110 -95 234 -48
124 -91 235 -96 248 -13 30 -5 28 30 -10z m-506 5 l31 -17 -120 -29 -120 -29
-105 16 c-58 9 -131 19 -163 22 -32 4 -56 8 -54 10 13 13 135 28 267 33 85 3
172 7 194 8 21 1 52 -5 70 -14z m2778 -53 c69 -25 228 -116 250 -141 9 -11 14
-27 11 -35 -3 -8 -79 -51 -168 -96 -176 -87 -230 -101 -310 -79 -64 18 -68 22
-49 60 11 22 14 44 9 69 -3 20 -6 58 -5 84 0 26 -6 61 -15 77 -8 17 -15 34
-15 40 0 8 55 30 115 45 34 8 122 -3 177 -24z m-2700 -23 c29 -19 89 -53 133
-76 44 -23 105 -64 135 -91 l55 -49 -100 44 c-55 24 -138 55 -185 69 -47 14
-129 41 -184 59 l-98 33 88 21 c49 12 92 22 96 22 4 1 31 -14 60 -32z m-382
-3 c176 -34 267 -62 393 -122 243 -114 356 -187 490 -319 68 -66 161 -183 153
-191 -9 -9 -57 33 -97 84 -107 139 -282 268 -512 379 -191 92 -366 141 -569
160 -60 6 -78 11 -78 22 0 13 11 14 73 8 39 -3 106 -13 147 -21z m2770 -14
c21 -21 22 -26 26 -100 1 -25 5 -60 9 -78 4 -19 2 -44 -5 -62 -24 -57 -98 -32
-188 62 l-33 35 46 62 c40 54 94 101 118 101 4 0 16 -9 27 -20z m-2872 -16
c61 -8 59 -11 -23 -44 -33 -13 -140 -63 -237 -111 -254 -125 -369 -159 -337
-97 35 68 56 85 113 90 30 2 76 15 103 29 45 22 51 23 75 10 24 -14 29 -13 65
11 21 14 54 49 73 77 34 50 36 51 75 47 22 -3 64 -9 93 -12z m1047 -62 c50
-65 53 -87 8 -62 -18 10 -35 35 -50 75 -34 87 -35 87 42 -13z m283 -136 c-18
-47 -36 -86 -40 -86 -5 0 -8 20 -8 44 0 43 11 83 46 161 l17 40 9 -37 c8 -31
4 -50 -24 -122z m-956 110 c75 -29 268 -123 268 -131 0 -4 -5 -3 -12 1 -7 5
-136 11 -288 15 -278 8 -340 14 -348 37 -5 17 110 69 189 87 91 19 121 18 191
-9z m521 -2 c42 -14 77 -47 64 -61 -10 -10 -89 21 -103 41 -13 19 -18 36 -11
36 2 0 25 -7 50 -16z m1777 -19 c0 -15 -4 -16 -155 -35 -104 -14 -298 -60
-370 -88 -99 -39 -266 -122 -332 -164 -99 -64 -104 -65 -43 -9 149 139 515
270 850 304 19 2 38 5 43 5 4 1 7 -5 7 -13z m-1590 -71 c0 -31 -14 -31 -28 1
-16 34 -15 34 8 28 13 -3 20 -14 20 -29z m59 -6 c17 -22 28 -44 26 -48 -2 -4
-14 -63 -25 -131 -26 -156 -30 -167 -41 -147 -7 12 -1 368 7 368 1 0 16 -19
33 -42z m-117 -119 c25 -63 47 -120 47 -128 1 -8 -17 10 -40 40 -40 54 -149
224 -149 234 0 2 21 -4 48 -14 l47 -18 47 -114z m362 55 c21 -132 36 -245 38
-279 1 -31 -78 -202 -89 -191 -10 9 -30 157 -38 268 l-7 106 38 95 c22 52 40
94 42 93 1 -2 8 -43 16 -92z m-181 -151 c4 -71 9 -139 13 -153 12 -44 -11 -9
-41 63 -27 66 -27 70 -15 142 20 117 36 98 43 -52z m-327 25 c16 -15 14 -17
-27 -22 -324 -40 -463 -66 -718 -136 -285 -78 -373 -99 -449 -106 -40 -4 -72
-4 -72 -1 0 16 123 94 214 137 115 54 227 90 371 119 144 29 146 29 417 27
216 -1 249 -3 264 -18z m311 -194 c-2 -2 -15 9 -29 24 -20 20 -25 34 -21 55 5
26 6 25 29 -24 14 -29 23 -53 21 -55z m43 -103 l0 -24 -26 24 c-15 13 -34 43
-44 65 -10 23 -23 45 -29 48 -6 4 -11 12 -11 18 0 24 109 -107 110 -131z
m-280 29 c89 -20 192 -54 273 -89 72 -31 133 -27 236 13 203 81 390 117 507
97 171 -30 238 -105 205 -228 -15 -54 -56 -87 -138 -113 -122 -38 -273 -24
-474 43 l-97 32 64 -58 c75 -69 87 -88 90 -142 2 -34 10 -47 48 -82 25 -23 60
-47 76 -55 17 -7 30 -15 30 -18 0 -3 -43 -4 -97 -2 -84 3 -100 7 -128 28 -55
41 -84 93 -83 145 2 79 -88 219 -141 219 -23 0 -36 -11 -70 -60 -54 -76 -71
-119 -71 -174 0 -39 -6 -51 -49 -98 l-49 -53 -103 -6 c-57 -3 -105 -5 -107 -4
-2 2 16 14 40 28 24 14 60 42 81 63 29 30 37 45 37 74 0 47 40 104 109 154 28
21 51 39 51 40 0 1 -44 -13 -98 -31 -202 -67 -361 -81 -485 -43 -108 34 -148
91 -133 193 20 133 216 185 476 127z m397 -295 c54 -258 102 -509 97 -516 -10
-17 -35 -9 -43 14 -5 12 -25 108 -45 212 -20 105 -44 221 -52 259 -16 76 -13
99 13 94 12 -2 21 -21 30 -63z m72 -48 c25 -48 31 -70 25 -92 -6 -26 -9 -22
-40 51 -53 126 -43 155 15 41z m-123 -44 c4 -26 2 -81 -4 -122 -23 -151 -33
-329 -30 -489 3 -161 -1 -179 -30 -150 -15 15 -16 308 -2 478 11 141 41 330
51 330 4 0 11 -21 15 -47z m139 -123 c67 -159 202 -577 190 -588 -11 -11 -22
15 -54 123 -18 61 -58 178 -88 260 -55 151 -83 238 -83 264 0 21 5 12 35 -59z"/>
<path d="M3770 1230 c-141 -31 -192 -102 -112 -154 20 -14 63 -32 95 -40 74
-19 146 -12 422 40 170 33 167 32 163 57 -3 18 -15 24 -88 39 -246 50 -420 72
-480 58z m185 -25 c55 -7 159 -25 230 -39 72 -14 131 -26 133 -26 1 0 2 -4 2
-9 0 -5 -15 -11 -32 -15 -135 -27 -315 -58 -392 -66 -82 -10 -99 -8 -157 9
-37 12 -75 32 -89 46 -23 24 -23 25 -4 46 24 27 48 39 104 55 60 16 87 16 205
-1z"/>
<path d="M4940 1230 c-72 -9 -325 -56 -380 -70 -26 -7 -36 -15 -36 -30 0 -11
1 -20 2 -20 1 0 57 -11 125 -25 175 -36 308 -55 384 -55 81 0 165 30 200 72
23 27 24 33 12 52 -7 11 -38 33 -68 48 -62 32 -139 41 -239 28z m226 -41 c87
-44 85 -78 -7 -116 -61 -25 -173 -30 -275 -13 -204 36 -334 63 -334 71 0 5 2
9 4 9 2 0 59 11 127 26 288 59 402 65 485 23z"/>
</g>
</svg>
