<?xml version="1.0" standalone="no"?>
<!DOCTYPE svg PUBLIC "-//W3C//DTD SVG 20010904//EN"
 "http://www.w3.org/TR/2001/REC-SVG-20010904/DTD/svg10.dtd">
<svg version="1.0" xmlns="http://www.w3.org/2000/svg"
 width="1024.000000pt" height="1024.000000pt" viewBox="0 0 1024.000000 1024.000000"
 preserveAspectRatio="xMidYMid meet">
<metadata>
Created by potrace 1.14, written by Peter Selinger 2001-2017
</metadata>
<g transform="translate(0.000000,1024.000000) scale(0.100000,-0.100000)"
fill="#000000" stroke="none">
<path d="M2648 10121 c-35 -28 -81 -120 -116 -236 -55 -178 -136 -286 -457
-615 -115 -118 -236 -250 -268 -292 -113 -151 -184 -292 -211 -418 -17 -77
-21 -94 -61 -241 -59 -217 -33 -421 72 -577 l45 -67 -17 -30 c-91 -157 -200
-411 -226 -528 -7 -32 -15 -60 -18 -62 -4 -2 -29 3 -57 10 -91 24 -200 -1
-250 -57 -61 -66 -80 -184 -49 -289 19 -63 16 -75 -24 -81 -19 -2 -25 3 -35
31 -15 47 -39 60 -65 37 -43 -39 -53 -160 -25 -306 19 -100 41 -159 94 -246
22 -36 40 -72 40 -79 0 -8 -11 -56 -25 -107 -54 -200 -100 -487 -130 -810 -14
-152 -19 -176 -55 -265 -51 -127 -104 -325 -131 -488 -18 -102 -22 -171 -23
-325 0 -174 4 -221 30 -351 4 -21 1 -28 -16 -32 -19 -5 -20 -10 -15 -79 10
-128 35 -321 51 -387 8 -35 13 -66 10 -68 -2 -2 -57 40 -122 94 -317 263 -437
353 -470 353 -21 0 -24 -4 -24 -41 0 -90 101 -323 299 -693 72 -134 147 -277
165 -318 63 -135 146 -423 310 -1063 57 -225 127 -473 154 -550 71 -202 203
-539 214 -546 7 -4 108 -375 108 -395 0 -2 9 -4 20 -4 11 0 20 3 20 7 0 4 -22
92 -49 197 -127 487 -275 1165 -361 1652 -23 126 -50 270 -62 319 -67 290
-209 569 -506 995 -212 305 -255 370 -251 375 6 6 168 -120 403 -313 l184
-152 117 -212 c144 -260 252 -438 408 -673 135 -203 196 -322 260 -510 146
-429 206 -860 155 -1125 -7 -36 -55 -144 -137 -307 -99 -198 -123 -253 -109
-253 12 0 53 74 155 279 76 153 149 305 162 337 39 94 44 90 38 -31 -5 -109
-5 -111 -65 -240 -32 -71 -78 -168 -102 -215 -59 -120 -63 -130 -44 -130 10 0
43 57 95 163 44 89 77 153 75 142 -3 -11 -21 -79 -40 -151 -40 -147 -41 -154
-22 -154 9 0 24 40 44 118 17 64 43 162 58 217 l26 100 3 650 c5 996 18 1204
90 1475 99 372 360 915 651 1352 58 87 109 160 114 163 11 7 70 -34 70 -48 0
-4 -42 -79 -94 -165 -287 -483 -492 -888 -569 -1127 -53 -164 -88 -365 -129
-730 -8 -76 -13 -340 -13 -860 l-1 -750 -51 -195 c-30 -112 -47 -197 -42 -199
6 -1 12 -1 15 2 3 2 25 85 50 183 143 567 384 1289 609 1824 445 1056 977
1891 1577 2476 161 156 430 384 456 384 7 0 31 -12 54 -26 l41 -26 -34 -27
c-197 -153 -546 -512 -816 -842 l-78 -95 -41 4 c-103 11 -184 -100 -200 -277
-6 -66 -10 -75 -80 -175 -67 -96 -227 -347 -272 -428 -69 -122 -160 -294 -222
-418 -306 -612 -650 -1549 -840 -2290 -70 -274 -70 -271 -53 -268 11 2 28 53
58 173 50 202 103 385 115 400 4 5 48 82 97 170 125 224 216 371 360 585 124
183 284 403 289 397 1 -1 -19 -61 -46 -132 -27 -72 -84 -236 -126 -365 -56
-171 -85 -243 -104 -265 -64 -71 -273 -371 -394 -568 -62 -100 -157 -280 -190
-360 -14 -35 -14 -37 4 -37 14 0 32 25 67 93 26 50 86 144 134 207 87 116 261
323 294 350 16 14 17 13 12 -5 -26 -85 -147 -609 -147 -638 0 -4 6 -7 14 -7
10 0 18 20 26 58 113 568 324 1269 543 1797 71 174 209 456 292 600 53 93 224
355 230 355 5 0 65 -61 65 -66 0 -2 -29 -46 -64 -97 -242 -353 -492 -914 -670
-1507 -104 -348 -234 -870 -257 -1035 -5 -33 -11 -70 -14 -82 -4 -16 -1 -23
10 -23 8 0 17 10 19 22 3 13 10 48 16 78 14 73 150 347 243 492 135 210 254
357 455 562 170 172 455 416 470 401 3 -2 -10 -61 -28 -131 -33 -124 -34 -127
-84 -172 -281 -257 -489 -504 -652 -774 -65 -107 -234 -445 -234 -467 0 -26
38 -10 50 21 7 18 48 103 90 189 120 242 255 447 429 654 79 93 319 335 333
335 4 0 -10 -49 -31 -108 -35 -102 -44 -116 -127 -213 -140 -164 -238 -312
-468 -709 -96 -166 -103 -180 -81 -180 19 0 33 17 76 92 104 184 244 415 312
518 77 115 189 261 195 255 16 -16 -267 -597 -372 -763 -53 -84 -61 -102 -45
-102 38 0 286 457 414 766 228 547 368 1145 392 1676 3 81 9 151 12 156 3 6
19 8 35 5 l29 -6 -6 -167 c-18 -460 -98 -910 -238 -1340 -118 -361 -328 -804
-486 -1027 -39 -55 -42 -63 -25 -63 14 0 37 27 80 92 182 283 360 669 472
1028 24 74 48 142 55 150 7 8 50 89 95 180 93 187 150 290 162 290 26 0 -78
-441 -178 -752 -117 -363 -253 -657 -415 -900 -56 -84 -58 -88 -35 -88 20 0
36 17 79 83 174 263 334 633 472 1092 28 92 43 128 68 154 37 39 299 255 486
401 l130 101 62 -16 c89 -23 286 -104 317 -130 46 -38 71 -48 88 -34 44 36
-28 246 -137 399 -63 89 -194 227 -302 318 l-77 65 137 72 c143 74 247 136
380 228 43 30 107 69 143 88 64 34 66 34 195 34 82 -1 168 -8 235 -20 58 -10
144 -18 192 -18 74 0 94 4 142 27 75 37 106 82 106 154 0 65 -14 73 -65 38
-94 -64 -244 -45 -482 62 -179 81 -370 91 -546 30 -34 -12 -129 -51 -212 -89
-82 -37 -151 -66 -152 -65 -2 2 13 42 33 91 76 189 129 426 110 498 -9 36 -54
87 -77 87 -12 0 -23 -10 -29 -26 -8 -21 -15 -25 -33 -19 -46 14 -75 17 -81 6
-4 -6 -14 -11 -22 -11 -11 0 -14 18 -14 84 l0 84 48 40 c157 131 417 248 639
287 127 23 320 30 443 16 58 -7 112 -14 121 -17 12 -3 15 -21 16 -87 3 -194
80 -357 247 -521 118 -117 247 -204 451 -306 204 -101 331 -148 490 -179 61
-11 169 -32 240 -46 299 -58 438 -124 665 -316 69 -58 89 -70 114 -67 41 4 45
31 12 100 -47 99 -157 209 -309 310 l-67 45 61 7 c43 4 112 -2 231 -19 314
-46 389 -28 343 81 -28 68 -67 114 -150 179 -95 75 -132 112 -178 182 l-35 52
27 5 c14 3 54 8 88 11 45 5 69 13 87 30 34 32 92 39 189 25 45 -7 93 -11 106
-9 32 5 49 33 35 56 -19 33 -136 84 -215 94 -140 19 -177 30 -295 89 -139 68
-219 119 -404 257 -373 277 -580 373 -850 393 -69 5 -159 14 -200 20 -206 30
-426 -34 -565 -163 l-68 -62 -101 13 c-124 17 -404 10 -524 -12 -265 -49 -548
-158 -741 -287 -73 -49 -78 -50 -131 -45 -30 2 -71 8 -91 11 -40 8 -81 -9
-113 -44 -28 -30 -41 -26 -75 23 -46 66 -98 81 -217 62 l-51 -8 -22 37 -22 37
67 77 c230 264 490 524 636 636 l46 36 48 -51 c87 -93 222 -168 341 -189 82
-15 181 5 272 55 36 21 84 46 106 57 135 66 368 249 556 436 127 127 182 201
200 273 12 44 11 50 -15 101 l-27 55 21 69 c12 37 24 104 27 148 9 130 -22
175 -108 163 -28 -4 -32 -1 -59 51 -35 70 -97 130 -142 140 -33 8 -91 3 -149
-13 -26 -7 -26 -7 -32 61 -10 99 -48 171 -110 203 -32 17 -61 45 -92 88 -52
71 -79 86 -148 79 -55 -5 -88 -26 -134 -85 -31 -41 -140 -142 -153 -142 -3 0
-4 29 -2 65 5 81 -11 105 -70 105 -46 0 -49 16 -11 55 l28 27 -24 19 c-33 27
-96 24 -158 -6 -139 -70 -411 -425 -525 -688 -66 -152 -89 -246 -95 -387 l-6
-125 -72 3 c-72 3 -145 -11 -217 -42 -21 -9 -38 -15 -38 -12 0 2 30 89 66 192
97 282 97 342 -1 379 -88 34 -257 0 -409 -83 l-54 -29 -22 49 c-39 86 -106
164 -188 219 -42 28 -79 53 -81 54 -6 6 123 174 201 262 62 69 78 82 104 83
26 0 34 -6 44 -30 16 -39 70 -81 151 -120 325 -153 721 -8 1154 425 257 256
384 488 402 736 7 93 0 123 -34 155 -35 33 -67 30 -100 -6 -25 -29 -28 -30
-34 -12 -5 12 2 43 17 80 76 188 36 411 -92 508 -40 31 -213 94 -256 94 -73 0
-232 -62 -328 -128 -24 -17 -45 -30 -46 -29 -1 1 2 61 8 132 10 144 -1 323
-25 394 -35 101 -119 170 -189 156 -45 -9 -115 -51 -133 -79 -9 -13 -45 -38
-80 -55 -74 -37 -147 -112 -195 -202 l-31 -59 -29 15 c-16 8 -40 15 -53 15
-37 0 -57 30 -57 86 0 28 -7 59 -15 71 -67 95 -315 6 -415 -148 -70 -109 -75
-134 -76 -399 -1 -268 -7 -310 -78 -515 -64 -187 -80 -280 -81 -465 0 -154 0
-155 30 -210 40 -72 150 -182 252 -250 45 -30 82 -58 83 -61 0 -4 -48 -62
-106 -130 -349 -409 -678 -882 -814 -1173 l-37 -78 -32 87 c-50 138 -98 251
-162 379 -33 65 -58 120 -57 121 2 1 28 15 58 30 66 33 165 102 202 141 57 61
62 88 64 339 1 256 3 274 45 431 59 223 31 328 -113 423 -78 53 -114 53 -140
1 -37 -74 -79 -80 -102 -14 -9 26 -27 67 -42 91 -25 44 -95 103 -120 103 -8 0
-34 15 -59 34 -52 40 -91 51 -130 36 -15 -6 -30 -8 -33 -5 -7 6 84 162 117
200 l26 30 130 0 c116 1 139 4 210 29 253 88 498 315 710 656 81 131 131 241
219 483 42 115 91 242 110 282 66 143 165 265 349 431 63 57 78 75 75 95 -7
52 -125 28 -248 -52 -35 -22 -109 -87 -166 -145 l-104 -104 6 48 c11 91 26
156 71 296 34 105 46 158 47 209 1 78 -6 87 -70 87 -60 0 -128 -39 -234 -135
-59 -53 -124 -101 -172 -126 l-78 -40 0 97 c0 77 -3 101 -17 116 -24 27 -20
98 11 196 29 93 31 113 14 130 -17 17 -42 15 -70 -7z m52 -19 c0 -5 -11 -46
-25 -92 -27 -91 -32 -165 -13 -216 11 -31 9 -37 -43 -118 -49 -76 -63 -90
-144 -144 -226 -148 -429 -353 -589 -595 -41 -62 -97 -141 -126 -177 -28 -35
-68 -91 -87 -122 -20 -32 -38 -56 -40 -54 -9 8 59 165 101 234 83 135 161 227
371 442 310 317 411 456 460 630 15 52 36 111 47 130 36 61 88 109 88 82z
m525 -246 c26 -19 16 -89 -38 -266 -65 -212 -69 -230 -74 -400 l-6 -155 -40
-78 c-22 -43 -41 -76 -43 -75 -1 2 2 32 7 68 5 36 12 193 15 350 3 158 10 297
16 312 5 15 25 36 43 47 63 37 80 92 33 107 -32 10 -70 -5 -120 -47 -26 -22
-65 -47 -85 -55 -36 -14 -33 -10 37 57 84 81 131 115 187 135 48 17 46 17 68
0z m-95 -131 c0 -8 -20 -28 -45 -45 -38 -26 -47 -39 -61 -88 -24 -84 -57 -136
-107 -165 -55 -32 -99 -81 -175 -193 -52 -78 -96 -123 -108 -112 -2 2 3 28 11
58 19 72 55 296 55 340 0 33 3 36 63 61 34 15 89 32 122 39 72 15 85 21 153
77 54 43 92 55 92 28z m-464 -76 c-36 -118 -117 -235 -297 -427 -221 -236
-296 -321 -383 -437 -188 -250 -286 -457 -317 -665 -11 -79 -8 -280 6 -340 3
-14 -3 -4 -14 22 -57 133 -66 377 -21 538 63 223 175 384 495 710 129 131 157
162 221 246 21 28 76 93 122 145 46 52 108 131 139 176 31 46 58 82 59 80 2
-2 -3 -23 -10 -48z m7 -113 c-6 -64 -9 -72 -81 -169 -101 -137 -182 -236 -329
-397 -198 -219 -349 -424 -452 -611 -73 -134 -113 -282 -124 -454 -2 -27 -4 5
-5 73 -4 236 57 413 235 679 95 143 207 277 418 501 169 181 256 292 310 394
16 31 31 56 32 54 1 -1 0 -33 -4 -70z m957 5 c0 -5 -45 -48 -101 -96 -118
-103 -215 -213 -272 -310 -23 -38 -58 -89 -79 -113 -20 -24 -91 -152 -158
-284 -141 -281 -175 -333 -281 -439 -138 -138 -255 -212 -414 -262 -83 -26
-242 -54 -251 -44 -3 3 2 17 13 30 14 20 33 27 93 37 115 18 259 55 322 83
101 45 279 233 404 427 26 41 75 133 109 205 178 382 336 600 522 725 74 50
93 58 93 41z m-1198 -108 c-70 -79 -151 -158 -312 -304 -63 -57 -117 -106
-120 -109 -3 -3 -16 -14 -29 -25 -38 -31 25 52 125 167 105 121 353 337 388
338 4 0 -19 -30 -52 -67z m948 -23 c-49 -50 -123 -141 -164 -202 l-76 -112 0
49 c0 47 4 54 68 127 72 83 153 158 217 201 22 15 41 27 42 27 1 0 -38 -41
-87 -90z m-415 -17 c-54 -93 -115 -169 -210 -263 -53 -52 -115 -121 -137 -152
-41 -59 -51 -68 -43 -45 42 136 46 145 74 157 36 15 69 50 115 122 50 80 111
147 170 190 28 20 53 37 54 37 2 1 -8 -20 -23 -46z m-313 -31 c-7 -30 -44 -82
-144 -203 -260 -318 -377 -484 -459 -654 -52 -106 -206 -560 -240 -704 -19
-77 -47 -131 -70 -131 -17 0 -31 149 -26 270 7 152 23 213 91 355 107 222 280
456 549 745 55 58 144 165 199 238 55 73 102 131 105 129 2 -2 0 -22 -5 -45z
m333 -46 c-55 -289 -152 -567 -233 -668 -78 -99 -209 -219 -297 -273 -44 -27
-111 -69 -149 -93 -56 -35 -67 -39 -54 -20 69 105 212 382 258 497 36 92 159
261 275 376 67 66 130 141 159 187 27 43 51 76 53 75 1 -2 -4 -38 -12 -81z
m25 -261 c-25 -282 -64 -393 -211 -588 -131 -175 -278 -299 -384 -323 -25 -6
-20 0 32 40 133 101 262 271 360 476 65 135 151 389 184 545 l24 110 3 -60 c2
-33 -2 -123 -8 -200z m-399 110 c-18 -64 -34 -93 -95 -174 -174 -229 -206
-292 -352 -679 -113 -299 -112 -298 -268 -479 -39 -46 -72 -79 -74 -74 -3 10
23 100 105 361 126 402 210 550 538 955 98 121 161 191 163 181 2 -8 -6 -50
-17 -91z m-422 -32 c-28 -32 -78 -82 -110 -112 -32 -29 -98 -98 -146 -153
-242 -275 -330 -465 -340 -738 -6 -151 7 -234 52 -342 14 -35 29 -70 32 -78 3
-8 -10 5 -30 30 -79 97 -126 275 -112 420 27 282 159 518 446 796 82 79 252
234 258 234 1 0 -21 -26 -50 -57z m352 -204 c-46 -134 -86 -229 -157 -371 -64
-128 -201 -357 -245 -408 -25 -30 -29 -43 56 185 96 257 132 337 194 435 67
108 171 253 177 247 2 -2 -9 -41 -25 -88z m614 -16 c-15 -37 -38 -99 -52 -138
-28 -82 -120 -253 -206 -380 -132 -196 -219 -281 -350 -344 -34 -16 -161 -63
-282 -104 -121 -41 -246 -87 -278 -101 -64 -28 -63 -26 7 61 l50 61 78 7 c87
7 210 39 306 78 92 38 192 109 299 210 105 101 175 199 253 357 76 153 193
370 198 365 2 -2 -8 -34 -23 -72z m1068 -164 c12 -6 30 -18 39 -27 17 -14 14
-17 -35 -35 -51 -20 -120 -26 -153 -13 -15 6 -15 8 2 28 20 21 89 57 112 58 7
0 23 -5 35 -11z m100 -120 c26 -54 41 -240 31 -379 l-9 -115 -28 48 c-63 106
-217 172 -347 147 -29 -6 -54 -9 -56 -7 -1 1 23 40 54 87 101 153 234 264 307
258 23 -2 34 -11 48 -39z m-267 8 c-120 -77 -192 -163 -251 -301 l-29 -68 -13
46 c-14 46 -13 48 24 118 51 98 134 182 199 201 27 9 58 16 69 16 19 0 19 -1
1 -12z m2 -65 c-56 -60 -134 -165 -159 -215 -15 -29 -119 -147 -119 -134 0 1
16 40 35 85 60 143 141 248 225 292 59 32 65 22 18 -28z m-1343 -29 c-138
-239 -358 -427 -526 -449 l-53 -7 18 29 c35 56 72 86 206 172 169 108 228 153
310 236 35 36 66 66 68 66 2 0 -8 -21 -23 -47z m672 -33 c-117 -109 -121 -124
-113 -425 8 -291 4 -313 -88 -518 -80 -178 -109 -263 -131 -382 -32 -169 -4
-344 72 -457 47 -70 48 -73 16 -50 -53 38 -145 144 -169 197 -20 41 -24 66
-24 145 0 185 29 336 104 545 49 137 70 316 60 507 -7 150 1 208 43 291 45 90
115 153 212 193 96 40 100 30 18 -46z m161 58 c21 -21 13 -39 -31 -79 -24 -20
-58 -64 -75 -97 -52 -97 -62 -160 -72 -452 -11 -336 -17 -365 -118 -562 -113
-222 -149 -350 -139 -488 4 -41 9 -86 12 -100 6 -24 6 -24 -10 3 -9 15 -25 62
-35 104 -47 182 -12 362 133 683 86 189 91 219 82 500 -8 246 -4 279 42 348
31 46 159 152 183 152 9 0 21 -5 28 -12z m-538 -52 c-19 -51 -74 -152 -124
-230 -85 -131 -269 -291 -426 -371 -86 -43 -149 -61 -300 -86 -69 -11 -162
-33 -207 -48 -46 -16 -80 -24 -76 -18 13 22 200 100 408 170 239 81 298 107
392 173 82 58 211 220 307 387 30 51 41 61 26 23z m553 -53 c4 -19 -1 -35 -13
-48 -10 -11 -29 -40 -42 -65 -22 -43 -23 -58 -29 -315 -10 -391 -25 -458 -149
-670 -121 -207 -168 -363 -156 -525 3 -47 8 -96 11 -110 3 -15 -3 -8 -15 16
-30 63 -42 169 -29 261 15 110 46 196 132 364 100 194 107 228 118 555 9 281
20 356 65 447 25 49 80 117 95 117 4 0 9 -12 12 -27z m42 -63 c3 -5 19 -10 36
-10 16 0 38 -5 48 -12 18 -11 17 -12 -8 -34 -15 -12 -33 -40 -39 -61 -17 -54
-39 -258 -52 -477 -16 -285 -45 -393 -156 -591 -30 -52 -78 -138 -108 -190
-61 -109 -87 -183 -96 -275 l-6 -65 -12 40 c-36 126 -19 306 45 455 20 47 68
139 107 205 113 194 125 252 135 635 6 227 10 282 25 315 27 64 64 93 81 65z
m137 -105 c28 -92 -30 -746 -82 -933 -38 -138 -129 -289 -275 -457 -48 -55
-95 -116 -105 -135 l-19 -35 -1 28 c0 16 11 61 24 100 22 65 46 111 172 331
48 83 101 206 124 288 23 82 36 198 50 443 17 288 43 412 87 403 9 -2 21 -16
25 -33z m211 -44 c-64 -60 -121 -141 -155 -218 -11 -25 -21 -43 -23 -41 -11
11 12 187 28 211 31 47 134 102 202 106 5 1 -18 -25 -52 -58z m212 24 c80 -38
85 -50 31 -68 -159 -54 -325 -247 -422 -490 -14 -37 -28 -66 -31 -64 -10 11
27 257 47 307 53 134 123 238 205 301 60 47 94 49 170 14z m637 -55 c79 -22
142 -102 185 -235 20 -64 27 -107 31 -212 l5 -132 -36 6 c-30 4 -43 0 -75 -25
l-39 -31 -7 75 c-10 123 -54 204 -142 260 -44 28 -54 40 -54 62 0 91 -143 121
-269 57 -97 -49 -66 -5 51 71 142 93 261 128 350 104z m-518 -42 c22 -31 21
-33 -22 -46 -52 -16 -143 -73 -213 -133 -110 -95 -174 -217 -264 -504 -60
-191 -93 -263 -195 -420 -96 -149 -161 -269 -185 -343 -17 -54 -18 -161 -1
-207 6 -14 1 -12 -17 9 -32 37 -47 89 -47 162 0 91 16 131 80 204 158 178 247
341 285 524 42 196 126 401 220 531 74 104 186 198 274 230 52 19 68 18 85 -7z
m702 -36 c78 -57 133 -212 118 -335 -3 -29 -15 -81 -27 -117 l-22 -65 -6 135
c-8 173 -41 299 -100 381 -26 37 -13 37 37 1z m-668 -53 c3 -24 -4 -30 -65
-58 -78 -37 -120 -74 -208 -186 -96 -123 -121 -170 -171 -326 -61 -190 -125
-317 -261 -522 -115 -173 -150 -249 -167 -369 -4 -25 -14 -52 -21 -58 -13 -11
-15 -4 -15 47 0 113 40 207 181 425 116 178 158 268 220 468 59 193 129 344
194 418 59 66 149 135 217 167 66 31 92 29 96 -6z m-1603 -49 c-25 -32 -82
-96 -126 -141 -63 -63 -97 -89 -153 -114 -153 -70 -352 -117 -561 -130 l-110
-7 24 25 c50 55 227 117 406 142 189 27 323 88 479 217 44 38 82 68 84 68 2 0
-17 -27 -43 -60z m1904 -14 c10 -9 21 -26 24 -37 5 -18 2 -19 -46 -12 -65 10
-149 10 -207 1 l-45 -7 28 22 c72 56 201 74 246 33z m-309 -22 c-19 -50 -31
-64 -70 -84 -58 -30 -154 -123 -205 -200 -58 -88 -112 -203 -165 -355 -51
-148 -106 -266 -205 -440 -79 -139 -187 -294 -193 -276 -5 16 27 120 55 175
14 27 62 104 107 170 137 201 209 347 263 535 33 113 67 179 150 286 83 107
149 170 206 196 58 26 69 25 57 -7z m308 -61 c21 -8 17 -11 -35 -27 -188 -58
-364 -206 -546 -456 -89 -122 -153 -233 -249 -430 -109 -224 -178 -347 -234
-415 -53 -66 -64 -87 -64 -124 0 -34 -7 -38 -35 -18 -31 23 -12 74 67 177 142
188 276 439 373 700 32 85 77 193 100 240 99 197 228 315 390 357 53 13 192
11 233 -4z m36 -64 c-22 -43 -121 -137 -216 -204 -43 -30 -114 -81 -159 -112
-93 -66 -203 -178 -288 -293 -57 -77 -81 -121 -166 -305 -49 -109 -142 -257
-214 -342 -71 -85 -84 -108 -76 -133 7 -21 -9 -28 -20 -9 -12 18 4 56 41 100
58 69 79 106 234 409 80 157 176 331 213 386 120 180 246 320 377 416 72 54
214 116 268 117 22 1 22 0 6 -30z m74 9 c23 -28 -34 -303 -82 -401 -26 -52
-41 -69 -93 -102 -35 -22 -114 -73 -177 -114 -143 -91 -192 -138 -246 -232
-70 -123 -168 -265 -208 -301 -38 -34 -170 -113 -177 -106 -3 2 8 20 24 39 55
66 175 253 232 361 31 60 74 129 93 153 46 55 184 171 314 263 55 39 119 91
142 114 63 64 114 174 144 311 7 29 18 34 34 15z m59 -61 c51 -77 69 -245 30
-285 -18 -17 -161 -102 -165 -97 -2 2 6 21 17 43 28 54 70 218 77 303 4 38 10
69 13 69 3 0 16 -15 28 -33z m-131 -27 c-47 -154 -98 -220 -252 -330 -162
-115 -282 -218 -333 -284 -23 -30 -69 -104 -101 -165 -68 -129 -168 -282 -239
-366 -47 -55 -171 -158 -180 -149 -6 5 22 45 70 100 66 76 163 230 215 340 25
54 61 131 80 169 41 86 146 227 239 321 40 41 129 110 208 164 76 51 175 128
220 170 45 43 83 77 84 76 1 -1 -4 -22 -11 -46z m-2281 -76 c-43 -33 -161 -86
-233 -105 -86 -22 -196 -25 -274 -7 l-53 12 75 8 c144 16 309 48 397 77 102
34 115 36 88 15z m-607 -114 c23 -7 42 -15 42 -17 0 -1 -15 -24 -34 -50 -33
-47 -109 -192 -136 -263 -8 -19 -24 -48 -36 -65 -34 -46 -64 -132 -71 -202 -3
-35 -8 -63 -10 -63 -2 0 -24 17 -49 37 -41 35 -44 40 -38 73 21 115 108 338
196 498 48 87 52 91 72 79 12 -7 40 -19 64 -27z m3227 0 c3 -6 -4 -27 -15 -49
-18 -31 -53 -57 -194 -142 -148 -89 -187 -119 -285 -214 -63 -60 -170 -173
-238 -250 -191 -214 -352 -353 -494 -425 -56 -29 -177 -65 -186 -56 -9 9 128
102 227 156 54 28 117 71 140 93 45 44 122 155 207 297 29 47 69 101 90 121
49 47 205 149 411 269 89 52 192 121 229 153 64 55 95 68 108 47z m205 -47
c20 -25 22 -36 17 -113 -6 -102 -44 -236 -97 -345 -123 -253 -503 -613 -805
-764 -138 -68 -212 -86 -355 -86 -113 0 -133 3 -203 29 -43 15 -77 30 -75 31
2 2 28 -3 58 -12 79 -21 263 -12 350 17 203 69 488 265 723 498 136 135 218
242 273 357 55 116 74 196 74 318 0 53 4 97 9 97 5 0 19 -12 31 -27z m-154
-26 c-9 -37 -143 -166 -274 -266 -128 -97 -206 -174 -299 -296 -104 -137 -366
-385 -455 -431 -60 -31 -142 -54 -212 -60 l-71 -6 82 48 c124 73 237 169 374
316 68 73 196 205 284 293 141 140 174 168 270 225 165 97 253 157 260 179 5
17 33 33 44 25 2 -2 1 -14 -3 -27z m98 -92 c-24 -257 -174 -484 -499 -757
-232 -195 -435 -316 -599 -358 -136 -34 -302 -23 -401 27 l-34 18 137 1 c104
1 159 7 227 23 113 28 270 104 357 174 107 85 535 504 610 597 80 99 151 234
168 317 6 32 14 65 17 73 11 28 23 -53 17 -115z m-50 58 c-32 -145 -122 -288
-290 -458 -176 -179 -468 -447 -542 -497 -126 -85 -246 -129 -407 -148 -119
-14 -284 -5 -292 17 -9 22 1 24 53 13 81 -19 248 -14 339 10 90 23 183 64 247
108 42 29 208 195 338 337 125 137 276 288 368 367 96 83 132 132 152 208 7
25 14 51 16 58 7 25 24 11 18 -15z m-64 -77 c-18 -46 -35 -68 -98 -124 -151
-133 -218 -201 -433 -433 -212 -231 -297 -307 -389 -354 -108 -55 -290 -90
-403 -78 -80 8 -60 23 31 23 95 0 200 22 267 54 99 49 341 271 463 426 109
138 193 221 317 315 61 45 144 117 184 159 41 41 76 74 78 72 2 -2 -6 -29 -17
-60z m-3201 -116 c52 -24 50 -34 -4 -19 -21 6 -56 8 -78 5 -41 -7 -44 8 -3 24
30 12 36 12 85 -10z m48 -73 c41 -28 79 -87 93 -147 10 -41 9 -53 -5 -81 -15
-27 -19 -30 -27 -16 -5 9 -30 29 -56 44 -39 23 -58 28 -122 28 -84 0 -124 -16
-174 -69 l-29 -31 6 50 c9 77 44 162 84 200 59 57 163 67 230 22z m90 -7 c35
-21 70 -71 96 -137 l17 -43 -34 0 c-31 0 -34 3 -46 45 -7 25 -28 70 -46 100
-18 30 -29 55 -26 55 4 0 21 -9 39 -20z m317 -178 c54 -79 59 -135 21 -263
-49 -168 -51 -212 -20 -426 24 -165 26 -202 17 -262 -10 -69 -44 -156 -76
-196 -15 -19 -15 -17 -2 20 27 81 29 155 6 316 -27 185 -23 301 14 470 13 63
27 128 30 144 7 34 -17 138 -40 172 -14 23 -19 55 -8 66 11 11 32 -4 58 -41z
m87 -15 c80 -78 99 -182 59 -322 -48 -166 -53 -211 -54 -466 l-1 -246 -27 -40
c-26 -40 -83 -91 -143 -129 -26 -17 -25 -13 16 36 54 67 84 133 100 224 13 77
9 133 -23 322 -21 126 -21 133 -6 225 10 52 26 128 38 169 30 105 24 175 -18
235 -18 25 -32 48 -32 51 0 11 57 -26 91 -59z m-995 -23 c30 -15 77 -49 106
-76 l53 -49 -40 19 c-22 11 -54 23 -71 26 -44 10 -101 -15 -110 -48 -4 -17
-20 -32 -49 -46 -48 -23 -89 -71 -109 -128 l-14 -37 -7 48 c-19 120 23 268 87
307 41 26 80 22 154 -16z m432 1 c80 -67 135 -220 130 -356 l-3 -74 -23 85
c-34 127 -86 224 -159 297 -47 47 -58 63 -45 66 41 11 72 5 100 -18z m445
-135 c-1 -30 -13 -104 -28 -165 -36 -152 -43 -299 -20 -440 29 -186 22 -328
-21 -380 -15 -19 -15 -19 -10 5 34 146 31 245 -12 373 -24 73 -27 96 -27 217
1 125 3 142 33 229 34 100 42 200 22 271 -7 25 -7 36 3 42 21 14 61 -88 60
-152z m-1103 117 c-34 -58 -53 -154 -47 -244 2 -46 1 -83 -4 -83 -17 0 -41 64
-46 120 -8 84 12 154 57 201 45 48 67 51 40 6z m735 5 c39 -32 55 -66 55 -112
l0 -45 -31 65 c-17 36 -40 75 -51 88 -26 27 -4 31 27 4z m139 -196 c-5 -111
-8 -245 -7 -299 2 -107 33 -292 62 -365 30 -75 43 -158 36 -215 l-8 -52 -22
65 c-13 36 -39 105 -60 153 -20 48 -41 117 -46 152 -6 37 -9 205 -7 393 3 295
5 331 21 355 36 55 41 25 31 -187z m147 183 c4 -13 7 -57 8 -96 1 -58 -6 -92
-31 -165 -30 -88 -32 -101 -33 -238 0 -131 3 -153 27 -230 36 -110 43 -179 29
-269 -17 -106 -27 -114 -28 -24 -1 58 -11 108 -37 197 -58 192 -72 317 -58
521 7 93 12 207 12 252 l0 81 52 -2 c46 -2 53 -6 59 -27z m-431 -37 c113 -113
168 -270 195 -559 19 -203 26 -230 83 -358 38 -84 45 -112 48 -175 l4 -75 -19
55 c-10 30 -38 102 -63 160 -69 159 -91 265 -113 540 -16 192 -82 315 -216
400 -53 35 -58 44 -31 59 33 20 54 11 112 -47z m-89 -30 c24 -16 64 -51 88
-78 82 -93 108 -168 121 -352 17 -239 43 -348 133 -562 20 -47 39 -98 43 -115
l7 -30 -42 40 c-61 58 -81 96 -96 182 -8 43 -28 132 -44 199 -17 67 -35 176
-41 244 -14 157 -25 212 -54 274 -26 58 -91 126 -153 163 -24 14 -43 26 -43
28 0 14 14 35 24 35 7 0 32 -13 57 -28z m-164 -43 c42 -26 39 -31 -12 -19 -22
5 -62 10 -89 10 -42 0 -47 2 -36 15 19 23 96 19 137 -6z m199 -76 c61 -60 93
-133 100 -232 l5 -66 -20 52 c-34 92 -75 157 -134 215 -36 37 -60 70 -64 89
l-6 32 33 -19 c18 -10 57 -42 86 -71z m-219 -6 c77 -58 134 -125 182 -217 72
-139 124 -310 161 -530 14 -83 30 -144 49 -183 19 -40 22 -52 10 -41 -30 27
-69 130 -105 276 -63 260 -125 379 -301 584 -43 51 -86 106 -96 123 l-18 31
29 0 c19 0 51 -15 89 -43z m-143 -24 c13 -107 35 -160 97 -228 123 -136 185
-251 234 -436 19 -72 40 -139 46 -150 6 -12 8 -23 5 -26 -4 -5 -72 132 -127
257 -16 36 -54 86 -114 150 -99 105 -153 197 -181 310 -23 93 -10 179 27 180
4 0 10 -26 13 -57z m203 37 c60 -27 138 -104 178 -174 19 -34 45 -101 58 -151
34 -122 104 -428 112 -490 10 -72 39 -126 101 -187 58 -57 62 -63 39 -72 -19
-7 -100 66 -130 119 -13 22 -31 78 -40 125 -87 465 -185 696 -343 817 -49 37
-38 42 25 13z m-275 -54 c-5 -63 14 -142 53 -225 l35 -72 -28 20 c-15 10 -52
42 -82 69 -52 47 -54 51 -53 94 3 58 18 96 51 131 14 15 26 27 26 27 1 0 0
-20 -2 -44z m211 -99 c85 -100 135 -173 185 -273 41 -80 57 -129 111 -335 17
-64 39 -137 50 -163 22 -51 17 -57 -22 -25 -37 29 -80 126 -113 254 -44 177
-113 308 -223 425 -64 68 -86 109 -100 185 -15 81 -14 85 17 46 15 -19 57 -70
95 -114z m1862 30 c0 -69 5 -100 18 -125 10 -19 17 -36 15 -38 -2 -2 -21 10
-41 27 -46 38 -55 80 -32 152 14 42 31 77 39 77 0 0 1 -42 1 -93z m-2340 -91
c8 -6 28 -51 45 -101 43 -124 150 -342 218 -445 81 -123 189 -226 286 -274 73
-36 88 -40 193 -46 62 -4 116 -10 119 -13 13 -13 -87 -31 -171 -32 -79 0 -97
3 -148 29 -76 37 -169 125 -266 250 -199 257 -298 461 -316 649 l-6 62 16 -34
c8 -19 22 -39 30 -45z m-19 -170 c43 -132 162 -327 310 -512 189 -235 316
-288 548 -229 59 15 110 24 114 20 10 -10 -37 -42 -88 -60 -192 -68 -399 12
-616 237 -117 122 -223 265 -272 368 -46 97 -72 269 -57 366 l8 49 18 -94 c10
-51 26 -116 35 -145z m155 178 c18 -20 84 -78 144 -129 181 -153 254 -230 287
-304 66 -148 119 -248 147 -283 20 -23 69 -56 133 -90 l103 -53 -44 -3 c-101
-7 -225 91 -322 255 -26 43 -75 126 -109 185 -91 154 -144 219 -245 299 -118
93 -145 119 -145 141 0 27 12 22 51 -18z m-39 -86 c26 -46 91 -175 146 -288
105 -217 158 -298 250 -381 48 -43 51 -49 22 -33 -54 29 -180 161 -239 249
-62 95 -159 288 -199 400 -58 160 -50 179 20 53z m3878 24 c0 -14 -39 -49
-128 -114 -88 -64 -188 -171 -305 -327 -190 -252 -264 -448 -255 -671 3 -92 2
-98 -14 -89 -15 8 -18 24 -18 104 0 151 34 280 120 463 116 243 364 562 483
621 42 21 117 29 117 13z m-3757 -146 c30 -50 87 -156 127 -236 109 -219 185
-307 329 -382 25 -13 28 -17 11 -12 -164 41 -295 189 -435 492 -40 86 -87 184
-105 217 -32 58 -32 59 -7 36 14 -13 51 -65 80 -115z m2163 88 c69 -29 69 -30
3 -103 -34 -36 -97 -114 -142 -173 -48 -65 -87 -108 -97 -108 -40 0 -120 -113
-171 -242 -11 -29 -37 -70 -58 -93 -106 -115 -290 -406 -423 -669 l-81 -161
-24 77 -23 77 44 96 c123 263 370 634 681 1020 84 105 245 295 250 295 2 0 20
-7 41 -16z m2082 -23 c35 -37 66 -91 53 -91 -6 0 -26 14 -45 30 -48 42 -100
62 -142 54 -18 -3 -34 -4 -34 0 0 14 59 35 98 36 36 0 49 -5 70 -29z m-676
-185 c-88 -88 -186 -195 -217 -236 -105 -138 -202 -320 -240 -453 -9 -32 -19
-57 -21 -54 -6 6 15 115 33 172 71 223 352 597 558 742 26 19 31 20 39 6 6
-12 -29 -53 -152 -177z m-3520 141 c47 -37 110 -129 223 -322 99 -169 112
-190 169 -259 l41 -50 -52 28 c-58 32 -147 117 -194 186 -16 25 -65 115 -108
200 -43 85 -89 173 -102 195 -43 69 -43 69 -28 60 8 -5 31 -22 51 -38z m3717
-40 c-82 -76 -156 -164 -196 -232 -19 -33 -45 -66 -57 -74 -47 -32 -211 -201
-267 -274 -32 -43 -59 -76 -59 -72 0 3 16 38 36 78 86 170 217 330 455 555 65
60 82 72 110 72 l34 -1 -56 -52z m468 3 c31 -22 72 -42 92 -45 85 -14 117 -49
141 -155 17 -78 13 -87 -19 -43 -82 113 -249 153 -431 102 -220 -61 -537 -269
-744 -490 -83 -88 -86 -77 -7 26 130 170 265 284 501 425 91 54 189 119 217
144 102 92 161 100 250 36z m-403 -57 c-19 -67 -19 -68 -84 -103 -36 -20 -87
-49 -114 -65 l-49 -29 19 33 c10 19 66 83 123 143 119 125 136 128 105 21z
m283 -128 c-320 -110 -659 -346 -807 -560 -53 -77 -101 -191 -118 -278 l-16
-84 -33 21 c-32 20 -33 23 -27 71 18 142 90 272 227 408 265 262 614 456 817
456 l55 -1 -98 -33z m192 14 c40 -14 40 -29 0 -29 -80 0 -345 -113 -494 -210
-284 -186 -432 -358 -485 -564 -34 -135 -35 -235 -4 -436 l7 -45 -36 34 c-52
49 -81 121 -82 206 0 39 -4 76 -9 83 -12 20 13 149 45 233 39 102 107 196 216
299 203 193 479 350 733 419 41 11 75 20 76 20 1 1 15 -4 33 -10z m26 -70
c-95 -27 -216 -88 -296 -148 -194 -147 -468 -503 -564 -731 -37 -87 -73 -221
-81 -298 -4 -38 -11 -61 -18 -59 -23 8 -38 96 -43 248 -5 135 -3 166 16 240
41 165 131 295 298 431 231 189 537 336 698 337 l60 0 -70 -20z m103 -34 c11
-24 9 -26 -46 -54 -93 -47 -178 -116 -337 -276 -150 -149 -416 -459 -497 -578
-23 -34 -64 -100 -90 -147 -54 -96 -62 -85 -28 42 54 208 196 446 407 685 160
181 291 275 456 329 95 31 121 31 135 -1z m281 -54 c39 -39 36 -165 -6 -259
l-16 -37 -8 59 c-12 81 -41 137 -101 191 -49 44 -50 45 -27 54 13 5 50 10 82
10 43 1 62 -4 76 -18z m-2687 -28 c108 -58 219 -211 234 -325 l6 -46 -173 -97
c-96 -54 -206 -117 -245 -141 -40 -24 -75 -44 -78 -44 -4 0 0 12 8 28 42 83
110 357 136 552 6 47 13 91 16 98 5 16 31 9 96 -25z m2412 -25 c-112 -380
-307 -715 -529 -909 -63 -55 -161 -122 -232 -158 -93 -47 -254 -87 -253 -63 0
4 37 27 83 52 221 121 315 219 491 511 179 297 305 486 372 558 72 78 89 80
68 9z m72 25 l37 -18 -7 -94 c-16 -223 -93 -462 -201 -625 -81 -122 -269 -280
-435 -365 -116 -60 -210 -90 -313 -101 -135 -13 -157 6 -45 40 377 115 701
496 875 1032 26 81 49 147 50 148 1 0 19 -8 39 -17z m-4604 -53 l48 -59 -25
-93 c-54 -204 -92 -446 -115 -738 -16 -197 -23 -865 -12 -1160 5 -140 8 -257
6 -261 -1 -3 -39 6 -84 20 l-82 26 7 340 c16 881 62 1416 156 1825 30 128 39
160 47 159 4 0 28 -27 54 -59z m4379 -52 c-73 -100 -110 -157 -282 -440 -61
-101 -133 -213 -160 -250 -59 -79 -156 -171 -239 -228 -66 -45 -192 -112 -198
-105 -12 12 173 315 252 410 240 292 484 550 615 649 40 31 75 56 77 56 2 0
-27 -42 -65 -92z m526 -5 c15 -49 15 -56 -2 -120 -22 -87 -116 -325 -166 -425
-85 -169 -229 -382 -299 -443 -14 -12 -8 0 14 30 124 164 293 540 321 715 4
25 14 52 21 61 29 32 57 133 58 206 1 71 1 72 18 50 10 -12 25 -45 35 -74z
m-2969 15 c-49 -177 -124 -389 -169 -477 -27 -53 -88 -147 -135 -210 -47 -63
-99 -141 -116 -175 -17 -34 -48 -87 -70 -119 -21 -32 -52 -86 -69 -120 -41
-87 -38 -36 4 68 43 106 66 145 181 300 103 140 186 289 234 425 107 302 139
380 156 380 2 0 -5 -33 -16 -72z m31 -48 c-39 -234 -96 -433 -148 -517 -17
-26 -76 -88 -132 -137 -107 -93 -107 -92 1 54 101 138 172 308 270 648 12 41
23 72 25 70 2 -1 -6 -55 -16 -118z m2715 17 c23 -211 -104 -566 -294 -818
-177 -236 -300 -303 -582 -316 -94 -4 -135 -2 -159 7 -28 12 -30 15 -13 21 10
4 35 8 55 8 48 1 193 44 275 81 156 70 362 232 462 363 120 155 206 404 228
656 7 90 18 90 28 -2z m46 -9 c29 -64 27 -181 -5 -290 -28 -95 -116 -322 -160
-408 -120 -239 -281 -396 -474 -463 -110 -38 -253 -43 -341 -12 l-55 20 120 6
c139 7 222 26 320 73 85 40 146 93 235 204 198 246 330 565 334 804 0 60 2
108 4 108 2 0 12 -19 22 -42z m321 -35 c32 -83 -17 -283 -110 -444 -66 -116
-86 -134 -43 -39 83 183 122 313 123 408 1 49 -2 59 -25 79 l-27 23 36 0 c29
0 37 -5 46 -27z m-4917 -30 c3 -7 -17 -36 -44 -64 -28 -29 -50 -49 -50 -45 0
9 28 123 35 144 4 10 11 9 29 -5 14 -10 27 -24 30 -30z m2642 22 c-11 -8 -36
-17 -55 -20 -20 -3 -102 -38 -182 -79 l-147 -74 -6 31 c-3 16 -5 31 -4 33 2 1
44 21 93 45 122 58 189 78 260 78 55 0 58 -1 41 -14z m2188 -4 c13 -20 -129
-395 -226 -601 -32 -68 -80 -160 -106 -205 -57 -98 -176 -224 -299 -316 -169
-127 -272 -162 -401 -135 -72 15 -169 58 -212 95 l-25 21 40 -14 c107 -36 245
-28 400 23 238 78 430 278 612 636 65 128 177 406 189 472 6 32 17 42 28 24z
m-2104 -25 c0 -8 -5 -18 -10 -21 -27 -17 -121 -193 -165 -310 -66 -178 -113
-379 -145 -635 -28 -224 -46 -324 -76 -427 -27 -93 -100 -260 -110 -251 -3 4
1 19 9 35 53 103 86 288 93 533 6 177 8 192 50 353 54 207 74 258 187 476 50
97 91 188 92 206 1 18 5 37 9 44 11 17 66 14 66 -3z m2128 -73 c-10 -134 -116
-391 -234 -570 -30 -45 -58 -84 -62 -87 -4 -2 17 44 45 104 57 116 174 404
220 537 15 46 30 83 32 83 2 0 1 -30 -1 -67z m-4743 -13 c37 -28 88 -62 115
-75 l48 -24 -25 -68 c-44 -122 -63 -229 -73 -433 -29 -529 -92 -1126 -161
-1516 -15 -88 -20 -93 -66 -62 -22 14 -62 37 -90 51 l-51 26 -7 378 c-12 602
1 997 46 1363 17 145 24 174 54 236 33 67 116 174 135 174 5 0 39 -23 75 -50z
m2425 46 c0 -5 -385 -283 -620 -448 -319 -224 -456 -360 -548 -543 -58 -117
-96 -298 -85 -410 7 -68 -15 -17 -28 66 -20 127 7 271 69 379 15 25 84 105
154 178 70 73 175 190 232 260 58 70 113 132 123 138 10 6 101 57 203 114 497
278 500 280 500 266z m206 -46 c-4 -27 -40 -145 -80 -263 -81 -232 -115 -373
-141 -567 -23 -177 -25 -176 -20 20 4 185 18 285 62 430 41 137 163 430 179
430 3 0 4 -22 0 -50z m-305 -77 c-131 -121 -255 -225 -391 -330 -220 -171
-399 -367 -545 -599 -102 -163 -136 -290 -111 -412 14 -67 43 -138 82 -197
l19 -30 -40 32 c-76 60 -126 119 -136 159 -14 61 -11 227 6 312 18 86 77 219
132 296 93 128 271 289 478 431 151 104 316 221 454 323 69 51 127 92 130 92
3 0 -32 -35 -78 -77z m135 49 c-38 -73 -153 -203 -291 -329 -60 -54 -114 -113
-134 -147 -47 -78 -97 -229 -111 -334 -14 -112 -30 -154 -92 -249 -66 -102
-149 -196 -207 -235 -106 -71 -175 -154 -208 -253 -13 -40 -13 -39 -10 35 4
82 17 114 78 195 20 27 56 85 79 128 38 69 43 87 51 178 14 171 49 225 304
472 94 90 255 255 359 366 104 110 191 201 193 201 2 0 -3 -13 -11 -28z
m-1693 -124 c106 -215 186 -433 257 -700 26 -99 31 -139 34 -260 4 -147 10
-176 64 -298 19 -45 22 -63 42 -293 l10 -118 -39 -61 -39 -61 -6 64 c-3 35
-10 120 -16 189 -47 556 -218 1179 -431 1566 -46 84 -42 92 47 103 7 0 41 -59
77 -131z m767 75 c-23 -70 -97 -227 -138 -294 -22 -37 -82 -122 -133 -190 -89
-120 -143 -217 -170 -306 -14 -50 -24 -54 -32 -14 -11 55 243 524 410 757 37
52 69 92 71 89 2 -2 -2 -21 -8 -42z m739 -105 c-68 -72 -218 -224 -332 -337
-115 -113 -228 -232 -252 -264 -57 -75 -82 -144 -94 -260 -11 -106 -36 -168
-114 -274 -70 -94 -88 -137 -94 -220 l-6 -74 -23 38 c-75 126 -84 276 -25 415
92 217 330 512 559 689 126 98 318 259 420 353 40 36 75 66 78 66 4 0 -49 -59
-117 -132z m-1617 -38 c63 -126 166 -386 203 -511 l16 -57 -34 -63 c-19 -35
-43 -86 -53 -114 -9 -27 -19 -52 -21 -54 -1 -2 -30 22 -63 55 -83 81 -167 135
-205 132 -29 -3 -30 -4 -30 -54 1 -43 11 -71 60 -165 33 -63 74 -144 93 -181
l34 -66 -60 -174 c-148 -428 -274 -876 -313 -1116 l-12 -73 -20 33 c-87 144
-132 204 -228 299 l-106 106 17 69 c10 38 32 177 51 309 27 197 37 247 56 277
79 127 144 534 128 798 -4 67 -1 160 9 255 13 128 21 167 56 265 l41 115 51
-4 c62 -4 161 15 208 39 19 11 40 18 45 17 6 -2 40 -63 77 -137z m-422 92 c0
-4 -18 -60 -40 -122 -50 -145 -60 -236 -65 -558 -3 -295 -33 -539 -78 -642
-20 -46 -20 -27 -2 130 22 198 44 477 54 700 10 212 29 330 72 444 15 41 25
56 40 56 10 0 19 -4 19 -8z m2169 -39 c-41 -68 -127 -180 -183 -240 -84 -88
-89 -103 -97 -288 -6 -128 -12 -177 -32 -244 -31 -102 -45 -122 -130 -186 -69
-52 -235 -146 -223 -126 4 6 37 50 73 99 90 119 121 188 134 298 11 105 62
259 110 340 20 33 70 89 119 133 95 85 179 170 217 219 34 43 40 41 12 -5z
m59 -107 c-75 -220 -88 -311 -98 -676 -5 -179 -14 -350 -20 -380 -39 -200
-224 -400 -408 -439 -79 -16 -94 -12 -33 10 139 49 245 181 317 395 37 111 60
228 94 482 17 123 40 268 51 321 27 125 118 401 133 401 2 0 -14 -51 -36 -114z
m2311 -34 c-16 -52 -86 -146 -160 -217 -34 -33 -52 -46 -40 -30 92 125 128
180 164 245 42 76 61 78 36 2z m22 -79 c-48 -94 -224 -279 -411 -431 -144
-118 -144 -118 -60 -24 41 46 77 87 78 93 2 5 45 43 96 84 133 106 257 240
287 308 19 44 25 51 27 32 2 -13 -6 -41 -17 -62z m-2486 14 c-25 -57 -49 -134
-90 -292 -31 -116 -66 -219 -88 -261 -20 -37 -21 -26 -2 61 8 39 15 122 15
185 1 143 12 171 112 280 40 44 74 80 75 80 1 0 -9 -24 -22 -53z m-761 -129
c-43 -51 -128 -145 -190 -208 -185 -191 -238 -298 -239 -480 0 -52 3 -111 7
-130 l7 -35 -17 35 c-12 26 -17 64 -17 145 0 96 4 120 28 187 51 137 144 275
277 408 73 73 210 183 218 175 2 -2 -31 -46 -74 -97z m1369 69 c67 -30 76 -43
15 -20 -29 11 -73 16 -133 16 -100 0 -172 -21 -256 -73 l-49 -30 6 27 c10 41
12 43 63 66 121 54 255 60 354 14z m-33 -30 c30 -7 64 -19 75 -25 17 -10 12
-11 -30 -6 -64 7 -176 -16 -246 -51 -64 -33 -157 -120 -200 -187 -17 -27 -33
-47 -35 -46 -1 2 6 48 17 103 21 112 23 115 127 167 109 54 195 68 292 45z
m65 -55 l40 -8 -56 -12 c-221 -50 -401 -240 -494 -520 -15 -46 -29 -81 -31
-79 -3 2 2 65 10 140 12 120 18 143 48 199 42 80 166 206 233 239 85 40 173
55 250 41z m35 -43 c-8 -5 -35 -20 -60 -34 -120 -62 -296 -218 -392 -347 -28
-38 -52 -68 -54 -68 -6 0 44 110 68 149 89 147 201 244 335 290 63 22 130 29
103 10z m68 -109 c-2 -7 -14 7 -28 33 -22 41 -23 49 -10 57 12 8 18 1 28 -33
7 -23 11 -49 10 -57z m-60 -1 c26 -29 76 -78 113 -109 l66 -57 -130 -104
c-315 -250 -660 -623 -945 -1019 -56 -79 -102 -139 -102 -135 0 9 135 279 205
411 20 38 52 90 70 116 57 79 103 190 120 290 9 57 99 229 165 317 75 99 206
224 305 290 42 28 79 51 82 51 3 0 26 -23 51 -51z m-2072 -284 l25 -96 -22
-60 c-12 -33 -25 -61 -28 -64 -4 -2 -26 22 -50 53 -44 56 -44 56 -32 102 15
56 69 175 77 167 3 -3 17 -49 30 -102z m-330 51 c119 -88 229 -217 359 -420
l67 -105 18 -163 c10 -90 21 -218 25 -285 6 -111 5 -124 -12 -150 -11 -15 -44
-73 -75 -128 -31 -55 -70 -125 -87 -155 -18 -33 -32 -48 -35 -40 -14 46 -18
85 -26 290 -9 240 -28 377 -80 577 -38 145 -72 229 -159 388 -124 227 -123
287 5 191z m-1115 -202 c-6 -121 -11 -354 -12 -519 0 -165 -4 -322 -7 -350
l-7 -50 -35 4 c-19 1 -38 7 -41 13 -18 29 -34 210 -33 373 1 183 14 289 54
465 23 100 82 292 87 286 2 -2 -1 -102 -6 -222z m2679 95 c-64 -127 -154 -236
-245 -299 -22 -15 -108 -60 -190 -100 -127 -61 -157 -80 -212 -135 -67 -67
-78 -63 -43 14 29 62 132 158 225 210 44 23 127 68 184 99 122 66 205 144 266
248 32 54 41 64 43 46 2 -12 -11 -49 -28 -83z m-5 -212 c-82 -208 -244 -363
-432 -411 -94 -25 -253 -20 -253 7 0 6 26 37 58 68 48 46 91 73 227 140 131
66 182 97 232 143 68 62 123 131 164 205 l24 44 3 -64 c2 -51 -2 -78 -23 -132z
m-1170 -2 c10 -53 15 -98 13 -101 -3 -2 -19 19 -37 47 l-32 52 16 48 c9 27 18
49 20 49 2 0 11 -43 20 -95z m4448 -79 c170 -43 318 -118 502 -255 137 -102
287 -223 282 -227 -8 -8 -235 100 -394 187 -316 175 -454 229 -637 249 -50 6
-116 8 -146 5 -74 -9 -193 -41 -242 -66 -57 -29 -36 -4 35 42 63 41 159 75
250 90 82 13 247 1 350 -25z m-3280 -13 c-12 -81 -65 -223 -104 -282 -75 -113
-161 -154 -319 -154 -96 -1 -113 2 -194 34 -124 47 -122 58 11 52 82 -4 124
-1 173 12 173 45 315 158 400 317 17 32 33 58 35 58 2 0 1 -17 -2 -37z m3595
-35 c171 -60 322 -148 573 -334 319 -236 493 -326 664 -344 115 -12 245 -61
245 -92 0 -8 -20 -8 -72 -2 -131 15 -203 11 -238 -14 l-30 -23 -86 37 c-80 34
-94 46 -222 173 -207 207 -396 339 -632 444 -47 20 -94 43 -105 49 -65 37
-178 97 -230 121 l-60 28 53 -6 c29 -3 92 -20 140 -37z m-428 -38 c146 -41
181 -57 613 -285 71 -37 127 -69 125 -71 -11 -11 -360 113 -577 205 -215 91
-288 112 -411 118 -82 4 -127 1 -205 -16 -54 -11 -101 -18 -104 -16 -11 12
160 73 249 89 55 10 237 -4 310 -24z m-4600 -95 l29 -106 -64 -192 c-140 -421
-241 -793 -284 -1042 l-17 -100 -38 99 -39 100 22 135 c37 227 118 521 273
991 39 118 73 219 75 223 9 15 14 0 43 -108z m4475 26 c44 -11 136 -43 205
-71 364 -150 490 -195 746 -265 89 -24 141 -44 169 -65 22 -16 92 -64 155
-107 63 -42 120 -81 125 -86 24 -21 -159 54 -360 148 -660 308 -1184 446
-1492 392 -89 -16 -84 2 8 28 175 49 314 57 444 26z m-650 -32 c50 -6 91 -12
93 -14 2 -2 -3 -25 -11 -51 -11 -38 -19 -49 -33 -47 -11 1 -71 7 -134 14 -213
22 -455 -5 -655 -73 -121 -41 -304 -135 -392 -202 l-73 -55 -16 36 c-10 19
-28 40 -41 46 -12 5 -23 13 -23 17 0 8 137 89 235 138 178 88 391 157 565 181
41 6 86 13 100 15 58 8 302 5 385 -5z m-3284 -209 c-30 -43 -52 -67 -55 -59
-2 8 -7 59 -11 114 -3 55 -9 111 -12 125 -4 20 7 13 62 -41 l66 -65 -50 -74z
m3869 154 c320 -55 673 -179 1175 -412 83 -38 213 -92 290 -120 77 -28 163
-60 190 -73 l50 -22 -69 -10 c-79 -10 -67 -13 -414 94 -282 86 -396 128 -652
239 -253 110 -433 179 -584 224 -127 39 -296 76 -345 76 -46 0 -37 18 12 23
67 7 254 -3 347 -19z m1094 -146 c133 -88 379 -298 366 -311 -10 -10 -189 118
-392 279 -109 86 -198 159 -198 161 0 8 133 -69 224 -129z m-1374 80 c111 -35
207 -82 305 -148 161 -108 384 -219 640 -316 152 -58 159 -64 45 -35 -214 55
-451 145 -678 261 -146 73 -374 209 -439 260 l-28 22 30 -8 c17 -3 73 -20 125
-36z m150 -3 c182 -46 460 -151 793 -299 165 -73 282 -114 592 -206 116 -35
212 -65 214 -67 31 -25 -330 -1 -474 32 -295 68 -702 241 -945 402 -123 82
-182 113 -282 148 -88 31 -43 27 102 -10z m-294 -206 c108 -303 320 -531 630
-675 128 -59 419 -163 571 -205 68 -18 121 -34 119 -36 -6 -6 -226 35 -321 59
-174 43 -442 166 -617 281 -229 152 -385 341 -434 527 -18 69 -23 218 -9 260
7 20 11 10 21 -56 7 -44 25 -114 40 -155z m84 151 c47 -31 115 -74 153 -96
l68 -39 -6 -45 c-8 -62 17 -178 55 -249 41 -76 116 -160 193 -215 62 -44 216
-126 236 -126 6 0 32 -13 59 -30 107 -66 280 -139 412 -175 252 -69 467 -159
625 -263 72 -47 225 -191 225 -211 0 -18 -25 -13 -46 10 -32 35 -184 153 -275
213 -124 80 -187 106 -434 175 -625 175 -886 297 -1086 507 -77 82 -132 160
-186 269 -68 134 -129 362 -92 339 8 -4 52 -33 99 -64z m-4012 -97 c20 -132
30 -265 25 -348 -3 -50 1 -115 11 -173 9 -50 16 -103 16 -115 0 -13 -31 -89
-69 -168 -122 -255 -206 -494 -253 -717 l-23 -107 -8 50 c-4 28 -20 106 -35
175 -14 69 -25 145 -24 170 4 77 42 286 82 449 62 248 247 861 261 861 3 0 11
-35 17 -77z m1276 -124 c-86 -172 -124 -265 -124 -301 0 -10 -26 -60 -58 -111
-348 -549 -668 -1215 -937 -1950 -40 -110 -75 -195 -78 -190 -6 9 -22 85 -20
93 1 3 22 73 48 155 62 200 128 446 169 630 29 133 37 155 65 185 74 80 125
171 164 295 29 95 57 248 57 319 0 55 -1 53 101 197 36 52 148 231 249 399
100 168 193 319 206 336 17 23 34 33 64 38 44 7 154 58 165 76 4 6 9 9 12 7 2
-3 -35 -83 -83 -178z m-509 137 c39 -13 124 -33 191 -43 l121 -18 -204 -340
c-113 -187 -226 -369 -251 -405 l-47 -65 -7 100 c-15 204 -29 328 -49 435
l-21 110 78 131 c87 147 69 138 189 95z m965 -38 c-52 -68 -141 -242 -173
-338 -52 -157 -62 -230 -62 -445 0 -180 2 -205 21 -250 41 -97 40 -92 20 -76
-56 46 -81 188 -73 416 10 278 79 482 223 665 70 88 108 112 44 28z m33 -61
c-106 -158 -201 -396 -237 -595 -13 -70 -14 -73 -15 -31 -1 66 25 209 59 319
36 118 95 240 162 337 45 65 53 72 66 59 13 -13 9 -23 -35 -89z m285 50 c52
-48 48 -55 -27 -49 -54 3 -77 0 -114 -16 -55 -24 -54 -16 9 56 34 41 40 43 73
37 20 -4 47 -16 59 -28z m-193 -54 c-30 -43 -77 -109 -104 -148 -46 -65 -118
-200 -154 -287 -9 -21 -18 -38 -21 -38 -4 0 9 46 39 135 26 79 119 264 167
335 36 54 50 66 79 71 19 4 37 7 41 8 4 0 -17 -34 -47 -76z m463 23 c15 -8 40
-28 57 -45 18 -20 43 -34 67 -37 34 -6 38 -11 52 -53 53 -170 83 -505 57 -651
-7 -37 -9 -26 -10 60 -3 266 -55 464 -151 573 -45 50 -131 97 -179 97 -41 0
-39 11 6 43 43 31 62 33 101 13z m1978 -6 c21 -14 35 -32 40 -53 11 -53 93
-257 125 -313 16 -29 60 -81 97 -115 57 -53 61 -59 27 -39 -170 100 -265 201
-312 330 -24 65 -36 149 -27 185 7 30 8 30 50 5z m-1833 -13 c39 -17 53 -33
62 -72 l7 -30 -21 33 c-16 24 -28 32 -50 32 -18 0 -42 10 -58 25 l-28 24 28 1
c15 0 42 -6 60 -13z m-475 -75 c-112 -86 -217 -238 -269 -390 -25 -74 -49
-219 -49 -303 0 -85 24 -223 51 -291 11 -29 36 -74 55 -100 39 -55 33 -61 -19
-20 -64 52 -114 126 -131 196 -14 57 -7 222 14 330 46 235 117 397 228 517 76
82 114 109 155 109 26 0 23 -4 -35 -48z m2583 -45 c228 -99 525 -187 749 -223
99 -15 106 -18 125 -48 15 -23 52 -47 140 -91 87 -44 138 -77 184 -120 35 -33
73 -65 85 -72 18 -11 14 -12 -34 -13 -92 0 -317 19 -455 40 -482 71 -834 262
-965 524 -17 33 -30 68 -30 78 0 17 3 17 48 -5 26 -14 95 -45 153 -70z m-2706
10 c-38 -40 -85 -98 -104 -130 -70 -120 -140 -345 -161 -521 -17 -147 3 -266
60 -345 38 -52 10 -41 -40 16 -74 84 -109 218 -91 349 23 162 167 478 274 600
38 44 112 104 126 104 4 0 -25 -33 -64 -73z m180 -60 c-199 -381 -261 -717
-178 -957 16 -47 33 -93 37 -102 13 -29 -6 -21 -61 27 -101 89 -148 227 -147
435 2 200 41 343 138 494 71 111 214 240 255 229 17 -4 13 -17 -44 -126z
m-495 114 c0 -5 -6 -11 -14 -14 -22 -9 -71 -87 -92 -147 -19 -56 -21 -123 -16
-435 3 -144 25 -311 47 -358 9 -20 40 -55 67 -77 56 -44 43 -54 -27 -20 -82
40 -116 147 -135 430 -24 344 17 566 115 615 34 17 55 19 55 6z m549 -204
c-122 -270 -183 -508 -196 -767 l-7 -135 -20 60 c-16 49 -20 87 -20 205 0 124
3 160 26 250 46 184 124 377 209 522 l44 73 3 -58 c3 -49 -3 -70 -39 -150z
m90 193 c25 -13 57 -136 71 -270 31 -282 -48 -577 -217 -812 -50 -69 -103
-129 -91 -103 2 6 21 46 42 89 90 192 147 517 163 938 3 92 8 168 10 168 2 0
12 -4 22 -10z m75 -15 c15 -15 30 -60 65 -200 37 -146 52 -259 53 -381 0 -136
-14 -202 -65 -297 -50 -96 -200 -231 -292 -263 -19 -7 -19 -6 2 17 12 13 46
63 76 112 173 275 226 617 146 941 -10 43 -19 80 -19 82 0 9 20 3 34 -11z
m-730 -82 c-18 -43 -44 -116 -56 -163 -17 -64 -24 -78 -26 -56 -9 74 38 226
85 279 31 34 30 16 -3 -60z m815 34 c16 -20 57 -165 78 -277 24 -132 24 -372
0 -460 -54 -197 -166 -323 -344 -386 -29 -10 -56 -14 -60 -10 -5 5 -3 11 3 13
41 15 171 113 225 170 116 124 153 224 152 413 0 65 -7 159 -17 215 -17 94
-66 298 -82 339 -6 16 -4 17 13 8 11 -6 25 -17 32 -25z m-1859 -174 c50 -289
48 -640 -5 -850 -25 -101 -84 -232 -131 -293 l-26 -35 6 45 c3 25 17 117 30
205 43 273 76 662 76 903 0 92 12 153 27 139 3 -3 13 -54 23 -114z m1996 -118
c24 -133 30 -391 10 -484 -41 -195 -157 -326 -308 -351 -29 -4 -54 -7 -56 -5
-2 2 23 17 56 35 122 65 218 194 257 345 37 144 29 371 -21 575 -13 56 -24
104 -23 108 0 4 16 -24 34 -63 21 -41 41 -107 51 -160z m-3711 189 c68 -17
241 -105 332 -170 142 -101 288 -284 372 -465 141 -305 216 -701 200 -1049 -4
-91 -10 -397 -12 -681 -4 -495 -5 -517 -25 -562 -12 -26 -22 -47 -24 -47 -2 0
0 35 4 78 12 140 9 570 -7 713 -38 359 -130 645 -280 867 -24 37 -84 112 -133
168 -267 305 -363 450 -467 707 -48 118 -145 426 -145 459 0 12 100 3 185 -18z
m3359 -81 c-24 -327 -43 -468 -84 -628 -26 -106 -95 -275 -111 -275 -4 0 -10
34 -14 75 -19 199 40 509 145 760 23 55 44 108 47 118 12 40 22 12 17 -50z
m641 17 c21 -41 19 -96 -11 -228 -81 -360 -268 -679 -451 -768 -67 -33 -156
-42 -223 -23 l-45 13 87 7 c155 13 224 58 377 249 162 202 241 423 241 678 0
56 2 102 5 102 2 0 11 -13 20 -30z m1815 -91 c118 -95 313 -184 520 -237 187
-48 415 -81 564 -82 38 0 67 -2 65 -5 -22 -22 -433 -48 -548 -35 -139 16 -295
82 -485 206 -119 78 -194 152 -231 225 l-28 54 49 -45 c27 -25 69 -62 94 -81z
m-1870 -134 c-19 -127 -87 -323 -134 -380 -13 -16 -12 -11 3 27 34 80 79 280
97 424 20 168 38 204 42 88 2 -43 -2 -115 -8 -159z m-2319 -43 c-39 -744 -199
-1478 -489 -2244 -60 -159 -61 -159 -62 -36 0 86 4 118 21 160 41 104 141 406
189 573 151 523 237 1032 256 1509 7 162 9 172 37 225 43 83 51 90 55 55 2
-16 -1 -125 -7 -242z m2215 144 c-4 -50 -11 -107 -16 -126 -8 -33 -8 -32 -10
20 -1 30 -5 82 -9 115 -6 45 -5 67 7 89 24 49 36 9 28 -98z m57 54 c-5 -129
-62 -418 -93 -468 -13 -21 -10 -2 26 198 14 81 27 188 27 243 2 91 3 97 22 95
18 -3 20 -10 18 -68z m-3970 -332 c85 -221 203 -400 466 -703 164 -190 254
-352 320 -572 61 -206 102 -480 100 -673 l-1 -105 -18 95 c-25 134 -82 345
-131 485 -64 186 -139 333 -258 509 -235 349 -497 805 -545 948 -23 69 -48
210 -60 343 -5 54 -1 45 48 -100 29 -88 65 -190 79 -227z m7235 282 c17 -25
43 -76 57 -115 21 -56 39 -83 91 -135 59 -61 80 -100 53 -100 -7 0 -26 16 -45
35 -36 39 -70 55 -114 55 -59 0 -133 38 -188 95 -42 43 -78 67 -160 107 -112
54 -162 84 -162 97 0 4 98 7 218 7 l219 -1 31 -45z m-4574 -460 c4 -25 14 -70
23 -101 l15 -56 -85 -124 c-46 -68 -107 -164 -135 -213 -45 -79 -59 -94 -118
-133 -80 -52 -137 -95 -181 -137 -23 -20 -33 -25 -33 -15 0 8 45 187 101 398
113 430 96 392 297 696 l86 130 12 -200 c6 -110 15 -221 18 -245z m-3131 170
c379 -549 491 -794 562 -1235 42 -258 153 -807 236 -1159 16 -70 28 -130 26
-132 -4 -5 -93 229 -149 396 -22 63 -66 223 -98 355 -125 512 -267 1014 -324
1146 -18 42 -94 191 -170 332 -118 221 -266 523 -266 544 0 15 32 -29 183
-247z m2053 68 c-12 -221 -60 -636 -85 -733 l-8 -30 -12 40 c-23 77 -41 232
-48 395 l-6 165 28 55 c55 111 127 240 132 240 3 0 3 -60 -1 -132z m5839 22
c130 -108 185 -189 155 -225 -18 -21 -129 -19 -275 5 -146 24 -315 26 -445 4
l-95 -16 -89 30 -88 30 53 5 c30 3 118 11 197 17 79 6 209 22 290 36 80 13
156 24 168 24 13 0 43 -18 68 -39 53 -46 81 -57 101 -41 31 26 17 63 -46 125
-54 54 -99 115 -84 115 4 0 44 -31 90 -70z m-2680 -155 c33 -7 107 -35 165
-60 58 -26 138 -56 179 -66 80 -20 194 -25 235 -9 44 16 30 -9 -16 -30 -81
-37 -178 -22 -368 56 -131 53 -217 65 -322 44 -83 -16 -111 -31 -189 -105 -85
-79 -210 -162 -274 -180 -45 -13 -336 -55 -343 -50 -2 2 26 47 62 101 72 111
53 98 302 209 219 99 239 104 384 105 74 0 149 -6 185 -15z m2224 -116 c31
-18 88 -56 126 -85 76 -57 186 -164 169 -164 -6 0 -21 12 -35 26 -39 42 -175
128 -296 187 -72 35 -107 57 -95 60 43 11 79 5 131 -24z m-2069 -18 c194 -85
332 -111 415 -77 40 16 40 16 17 -3 -54 -46 -156 -49 -397 -10 -159 25 -259
25 -338 -2 -38 -13 -121 -60 -217 -124 -281 -186 -487 -293 -710 -368 -99 -33
-282 -77 -378 -91 l-43 -6 7 87 c4 49 12 91 18 96 23 16 114 37 199 46 98 11
172 40 227 88 19 17 44 35 55 40 25 13 183 40 290 49 44 3 103 15 132 26 72
26 184 102 271 182 101 93 138 106 282 102 82 -2 105 -7 170 -35z m-3476 -384
l15 -79 -44 -93 c-58 -120 -110 -276 -129 -390 -23 -129 -30 -308 -16 -380 6
-33 12 -71 12 -85 0 -35 -102 -320 -114 -320 -16 0 -3 579 16 780 43 445 93
671 202 915 l18 40 13 -154 c7 -85 19 -190 27 -234z m841 241 c-2 -7 -50 -186
-105 -398 -55 -212 -110 -414 -122 -450 -43 -136 -148 -330 -257 -475 -66 -88
-193 -237 -197 -232 -10 10 178 505 301 792 110 257 364 775 380 775 2 0 2 -6
0 -12z m645 -119 c13 -7 13 -8 -1 -9 -8 0 -54 -25 -102 -55 -48 -30 -87 -52
-87 -49 0 7 58 93 79 117 12 14 23 17 56 11 22 -3 47 -10 55 -15z m159 -62
l64 -32 -2 -75 c-1 -41 -5 -78 -9 -81 -4 -4 -41 -17 -82 -29 -164 -50 -339
-133 -497 -236 -51 -33 -80 -46 -76 -36 9 24 119 226 155 287 25 41 52 65 147
127 182 121 199 125 300 75z m261 -107 c0 -4 -16 -11 -35 -17 l-35 -11 0 34 0
34 35 -17 c19 -9 35 -20 35 -23z m-1859 -198 c-19 -107 -77 -343 -128 -525
-55 -197 -69 -198 -59 -7 10 200 46 358 123 534 45 104 54 115 67 87 6 -14 5
-45 -3 -89z m1649 6 c0 -35 -4 -68 -8 -74 -4 -7 -44 -26 -88 -43 -273 -105
-588 -384 -793 -701 -23 -34 -41 -58 -41 -51 0 18 94 266 157 415 45 107 62
136 101 173 71 66 226 167 337 220 96 45 296 121 323 122 8 1 12 -18 12 -61z
m812 6 c117 -94 198 -175 270 -268 105 -136 161 -247 182 -361 l8 -40 -104
100 c-56 56 -121 111 -143 125 -22 13 -42 25 -44 26 -2 2 11 17 28 35 23 22
31 39 29 58 -3 24 -8 26 -53 29 -27 2 -73 -2 -101 -8 -48 -12 -56 -11 -133 19
-170 65 -355 91 -513 71 -48 -6 -95 -13 -103 -16 -12 -5 -15 2 -15 29 0 19 3
48 6 66 5 26 12 31 43 36 159 25 404 92 511 139 19 8 41 15 49 16 8 0 45 -25
83 -56z m-1552 -29 c0 -3 -26 -58 -59 -123 -32 -64 -80 -166 -106 -227 -27
-62 -62 -125 -80 -145 -128 -137 -453 -614 -647 -950 -43 -74 -78 -130 -78
-125 0 6 29 99 65 208 l64 198 79 87 c262 289 410 533 483 800 22 80 26 87 83
137 70 62 177 144 189 145 4 0 7 -2 7 -5z m726 -152 c-16 -111 -17 -113 -56
-133 -200 -102 -586 -367 -746 -512 l-58 -53 24 40 c59 98 209 280 303 368 79
74 223 184 298 228 65 39 214 109 233 109 4 0 5 -21 2 -47z m617 -97 c106 -27
161 -51 137 -60 -8 -3 -80 -26 -160 -53 -143 -46 -147 -47 -280 -48 -106 0
-143 -4 -174 -18 l-39 -17 6 37 c3 21 9 66 13 100 l6 62 52 10 c135 27 301 22
439 -13z m327 -60 c0 -2 -48 -30 -107 -62 -125 -69 -364 -224 -489 -318 -48
-37 -88 -65 -89 -64 -1 2 5 53 14 115 l16 112 58 27 c98 44 285 110 417 147
160 45 180 50 180 43z m-979 -88 c-7 -40 -14 -81 -17 -91 -3 -9 -40 -41 -82
-69 -317 -212 -732 -525 -854 -645 -32 -30 -58 -52 -58 -47 0 4 12 46 26 93
30 98 74 161 198 284 90 90 207 182 383 303 133 92 404 257 411 250 2 -3 -1
-37 -7 -78z m989 38 c0 -2 -53 -43 -117 -92 -141 -105 -475 -371 -557 -443
-33 -28 -61 -50 -62 -48 -2 1 4 31 13 66 l16 64 101 74 c151 112 367 254 491
322 112 62 115 64 115 57z m55 -85 c53 -31 137 -111 100 -96 -25 11 -208 74
-215 75 -6 1 53 50 60 50 3 0 28 -13 55 -29z m-735 -42 c-46 -22 -109 -54
-139 -71 l-54 -31 6 43 c3 23 10 47 16 53 22 22 118 46 186 46 l70 -1 -85 -39z
m-345 -101 c-3 -13 -9 -43 -14 -68 -6 -29 -18 -50 -33 -60 -65 -42 -189 -141
-299 -238 -317 -278 -595 -619 -768 -942 -28 -52 -51 -88 -51 -80 0 20 101
425 133 537 19 65 34 93 73 138 56 67 223 208 414 352 158 119 532 382 543
383 4 0 5 -10 2 -22z m245 -13 c-7 -8 -46 -79 -86 -158 -41 -78 -72 -131 -69
-117 3 14 16 73 28 132 l22 107 55 29 c58 30 71 32 50 7z m-1933 -473 c11 -36
8 -51 -48 -223 -32 -101 -78 -249 -102 -329 l-42 -145 -3 136 -3 136 64 164
c35 90 74 194 87 232 13 37 26 67 29 67 4 0 12 -17 18 -38z m461 -429 c-17
-58 -31 -79 -103 -157 -142 -155 -157 -171 -149 -156 22 43 259 380 268 380 2
0 -5 -30 -16 -67z"/>
</g>
</svg>
