<?xml version="1.0" encoding="utf-8"?>
<!-- Generator: Adobe Illustrator 24.1.0, SVG Export Plug-In . SVG Version: 6.00 Build 0)  -->
<svg version="1.1" baseProfile="tiny" id="图层_1"
	 xmlns="http://www.w3.org/2000/svg" xmlns:xlink="http://www.w3.org/1999/xlink" x="0px" y="0px" viewBox="0 0 1024 1024"
	 xml:space="preserve">
<g id="图层_1_x5F_复制">
	<g>
		<path d="M131,1025c5.9-9.3,13.4-17.3,20-26.1c14.2-18.7,27.8-37.8,40.2-57.8c7.8-12.6,15.4-25.1,19.7-39.6
			c3.3-11,11.7-19.6,17.5-29.5c10.2-17.4,23.4-32.9,33.3-50.4c6.3-11.2,11.1-23.1,15.4-35.1c2.1-5.8,1.5-12.2,1.5-18.3
			c0-7.8,0-15.6,0-23.4c-1.1-0.5-1.3,0.2-1.5,0.8c-3.6,10.2-7.4,20.3-10.9,30.6c-7,20.5-21.4,31.8-42.6,35c-0.6,0-1.2-0.1-1.8-0.3
			c-0.2-1.9,1.1-2,2.1-2.3c5.8-2.1,11.3-4.9,16.5-8.3c8-5,11-13.5,14.3-21.7c4.2-10.5,4.9-21.7,6.1-32.8c0.4-3.3,0.7-6.6,0.7-10
			c-1.1,3.5-3.3,6.4-5.1,9.5c-3.6,6.3-9,10.1-15.9,12c-1.1,0.3-2.3,1.1-3.2-0.1c-1.1-1.5,0.3-2.5,1.3-3.3c5.8-5,10.4-11,12.7-18.2
			c2.4-7.5,4.6-15.3,5.2-23.1c2.8-34.7,2.6-69.5,3.6-104.3c0.3-13.3-0.1-26.7-1.3-39.9c-0.2-2.2-0.4-4.4-2-6
			c-5.1-5.7-10.2-11.4-15.6-16.8c-5.3-5.4-7.8-12.4-10.2-19.3c-5.1-14.9-7.1-30.4-8.4-46c-0.9-10.1-2.1-20.2-2-30.4
			c0-2.1-0.9-3.8-2-5.6c-12.1-20.4-15.7-42.4-13.4-65.8c2.2-22.6,7.4-44.5,12.5-66.6c3.1-13.3,9.7-25.1,13.9-37.9
			c6.1-18.4,9.3-37.5,15.1-55.9c13.6-42.9,32.9-82.5,63.8-115.8c11-11.9,23.8-21.8,36.4-31.9c5.6-4.5,11.1-9,16.8-13.3
			c7.7-5.8,16.2-10.5,25.2-13.9c23.2-8.8,47-15.5,70.9-21.6c14.7-3.7,29.7-3.2,44.7-1.7c16.4,1.7,32.9,1.9,49.4,0.5
			c17.2-1.5,34-0.1,50.2,5.4c21,7.1,41.7,15.1,60.5,27c22.4,14.2,39.5,34.1,56,54.4c3.5,4.3,6.8,8.6,10.4,12.8
			c1.7,2,3.7,3.8,6.1,0.8c12.5-15.7,30-22.5,48.8-27c1.9-0.5,3.8-1.1,5.7-1.7c1.4-0.4,2.7-0.3,3.3,1.2c0.5,1.3-0.1,2.3-1.2,3
			c-0.7,0.5-1.4,0.9-2.2,1.2c-8.3,3.1-12.5,9.5-14.6,17.7c-2,8-7,13.4-14.3,16.9c-1.1,0.4-2.1,1-2.9,1.8c-0.4,0.7-0.5,1.6-0.3,2.3
			c0.1,1.2,1.1,1.1,1.9,0.8c13.8-5.9,26.7,0.4,39.9,3.1c2.8,0.7,5.6,0.8,8.4,0.3c5.9-0.9,12-1.2,17.9-0.7c3.8,0.2,9.9-2.3,10.8,1.8
			c1,4.5-5.7,4.8-9.1,6.7c-6.2,3.5-12.8,6.5-19.2,9.7c-3.9,2-7.2,4.3-9.8,8.2c-3.8,6-10.3,6.6-16.5,2.2c0.1,0.6,0.4,1.2,0.2,1.5
			c-4.5,5.6,1.4,8.4,3,12.5c4.5,11.2,11.3,20.9,18.3,30.6c5.2,7.3,5.8,16.2,6.8,24.8c1.8,16,3,32.1,3.4,48.2
			c0.4,14.6-1.8,28.9-2,43.4c-0.1,12-0.9,24-2.2,35.9c-0.8,7.1,0.7,13.9,2.8,20.6c5.5,17.8,10.4,35.8,14.5,53.9
			c3.9,17.1,11.8,32.9,17,49.6c4.8,15.6,9.1,31.3,12.9,47.2c2,8.3,2.6,17.5-0.1,25.2c-3.9,10.8-8.5,21.6-14.9,31.4
			c-3,4.6-5.9,9.3-9.2,13.7c-1.7,2.3-1.9,3.3,1,4.7c4.3,1.9,8.8,2.9,13.2,4.2c1.5,0.5,3.4,0.1,4.7,2.2c-5.4,1.7-10.9,2.6-15.6-0.1
			c-6.8-3.8-12.6-3.5-19.4,0.4c-9,5.1-18.9,8.5-29.7,5.8c-1.9-0.5-5.2,0.5-5.1-2.5c0.1-2.4,3.2-1.8,5-1.9c9.4-0.4,17.9-3.7,26.2-7.6
			c1.9-0.9,3.8-2.1,1.1-4.3c-9.6-7.6-12-19.3-16.7-29.7c-2.3-5.1-3.7-10.6-5.5-16c-2,0.3-1.7,2-2,3.1c-3.5,12.2-6.5,24.5-10.4,36.5
			c-2.6,8.3-0.6,16.1,0.5,24.1c2.2,16.5,5.8,33.1,2.4,49.6c-3.6,17-13.3,26.4-31.2,29.9c-3.4,0.6-8.8-0.1-9.4,2.7
			c-0.6,3,4.8,4.2,7.6,5.9c10.1,6.2,20.3,12,30.4,18.2c1.9,1.4,4.4,1.6,6.5,0.7c2-0.7,4.1-1.3,6.3-1.7c7-1.4,13.1-0.6,17.9,5.5
			c5.4,6.8,11.3,13.1,16.9,19.7c4,4.8,9.1,8.4,14.9,10.6c4.1,1.6,7.9,3.6,9.6,8.1c0.8,1.7,2.1,3.1,3.9,3.8
			c16.1,7.5,23.8,21.4,29.1,37.4c8.7,26.3,10.9,53.1,9.1,80.8c-2.7,40.6-9.9,80.4-19.4,119.9c-0.7,2.7-1.5,5.4-2.3,8.1h-3
			c0.4-1.8,0.9-3.5,1.3-5.3c10.3-43.8,18.8-87.9,20.8-133.1c1.1-23.8-2.2-47.5-9.7-70.1c-5.2-15.6-13.5-28.9-29.1-36.3
			c-2.5-1.2-5-2.7-6.4-5.3c1.8-3.4-1.4-3.5-3-3.9c-1.7-0.4-0.5,1.3-0.7,2.1c-3.9-1.4-7.6-3.3-11-5.8c-2.2-1.9-5.3-2.3-7.9-1.1
			c-10.5,4.1-21.3,7.6-31.5,12.3c-31.5,14.5-56.7,36.9-79.8,62.1c-5.3,5.8-10.1,11.9-13.5,19.1c-7.9,16.8-16.1,33.6-23.8,50.5
			c-12,26.4-24.9,52.6-30.7,81.4c-0.9,4.6,0.3,7,3.6,9.6c8.9,6.9,18.5,13.1,27.7,19.5c1.7,1.2,4.1,1.7,4.6,4.2h-4
			c-23.6-15.8-46.1-33.3-69.7-49.1c-14.8-10.1-32.2-15.5-50.1-15.5c-39.1-0.2-78.1,1.5-116.1,12.3c-1.7,0.7-3.6,0.4-5.1-0.6
			c-19.8-14.3-40.2-27.8-60.8-40.9c-4.6-2.9-9.1-6.1-14.3-8c-6.2-2.3-8.7-1.3-11.4,4.5c-2.8,6.2-5.6,12.4-8.4,18.6
			c-0.7,1.5-1.6,3-0.5,4.7c3.8,5.6,8.2,10.4,15.3,11.8c11.4,2.3,22.1,0.6,32.5-4.2c6.3-2.9,6.2-2.8,7,3.9c0.7,5.6,1.9,11.1,3.6,16.5
			c1.7,5.9,6,10.6,11.6,12.9c8.8,3.9,18.8,4,27.7,0.4c12.1-4.7,23.6-10.8,35.1-16.8c9.1-4.8,11.5-3.8,14.9,5.9
			c1.9,5.4,3.9,10.7,9.4,13.6c10.4,5.3,26.8,6.3,38.2-2.8c5.2-4.1,9.9-9,13.7-14.4c1-1.4,2-4.3,4.5-1.7c2.7,2.8,5.3,2.2,7.9,0.1
			c2.1-1.8,3.6-1.6,5.1,1c1.4,2.3,3.6,3.2,6.4,1.4c3.4-2.2,4.6-0.5,4.3,2.8c-0.4,4.3,0.2,8.6,0.3,12.9c0.2,15.7,18.7,27.2,33.7,24.9
			c6.9-1,12.4-4.5,17.6-8.8c2.2-1.8,3.5-2.4,4,1.4c0.6,4.4,3.5,4.1,6.6,2.6c2.2-1,4.3-1.9,2.7,2c-0.5,1.4,0.1,2.1,1.3,1.9
			c6.4-1.2,6.1,2.4,4.9,6.7h-2c0.1-2.6-0.2-4-3.7-4.3c-3.4-0.3-8.1-1.5-9.7-4c-3.4-5.3-5.6-1.9-8.4-0.2
			c-21.3,13.4-47.6,0.4-49.6-24.5c-0.2-2.5-0.5-5-0.5-7.5c0-3.4-1.7-3.3-4.2-2.5c-1.8,0.6-2.5,2.1-3.4,3.4
			c-8.5,12.6-15.5,26-22.4,39.4h-2c1.3-4.7,4-8.7,6.1-13c4.8-9.7,10.6-18.8,16.4-28c0.9-1.4,1.8-2.8,0.1-4.4c-1.5-1.4-2.7-1-3.9-0.1
			s-2.8,1.4-3.7,0.9c-6.4-3.4-8.6,2-11.8,5.3c-1.6,1.7-3.1,3.5-4.8,5c-10.2,9.1-21.9,12.5-35.5,9.7c-11.9-2.4-17.7-10-20.7-20.9
			c-1.4-4.9-3.7-5.4-8.4-3c-9.9,5-19.9,10.1-29.9,15c-7.5,3.7-15.3,6.6-23.9,5.8c-11.3-1-21.3-4.3-25.8-16.2c-2-5.6-3.4-11.5-4-17.4
			c-0.5-4-1.6-4.1-4.9-2.6c-10,4.8-20.5,6.9-31.5,4c-3.3-0.9-4.9,0.3-6.6,2.7c-5.3,7.6-11.1,15-16.1,22.8c-7,11.1-14.7,21.8-19,34.4
			h-4c11-20,22.3-39.8,36.9-57.5c2.2-2.6,2.6-4.1-0.8-5.9c-2.8-1.6-5.1-3.9-6.7-6.6c-1.9-2.9-2.8-2-3.9,0.5
			c-3.7,8.4-7.4,16.7-11.2,25.1c-6.8,14.8-12.6,30.1-20.2,44.5h-2c0.1-2.4,1.4-4.4,2.3-6.5c14.2-31.9,28.3-63.8,42.8-95.6
			c15.6-34.2,30.7-68.6,51.4-100.2c7-10.7,12.4-22.4,17.2-34.3c9.8-24,13.5-50,23.5-74.4c-33.7,7.6-65.1,3.2-94.3-18.3
			c1.1,1.9,1.6,2.5,2,3.3c0.5,1.1,2.1,2.5,0.7,3.5c-1.7,1.2-2.5-0.8-3.3-1.9c-2.3-2.9-3.2-6.7-2.6-10.4c1.9-14.9,7.4-28.9,9.9-43.7
			c0.3-2.1,1.9-3.5,2.9-5.1c4.1-6.3,8.3-12.4,12.4-18.7c2.4-3.7,4.2-7.6,3.6-12.2c0-0.2-0.3-0.5-0.4-0.7c-1.4,0.2-1.7,2.8-3.8,1.6
			c0.8-2.1,1.7-4.2,2.5-6.4c0.7-1.8,0.2-3.5-1.5-4.2c-1.6-0.7-2.2,1.1-2.9,2.1c-4.3,5.9-7.3,13-13,17.6
			c-8.9,7.1-15.2,16.9-18.2,27.8c-0.3,1-0.6,1.9-1.1,2.8c-6.9,12.9-8.8,27.9-16.6,40.5c-1.8,3-3.8,5.9-3.4,9.7
			c0.1,0.8-0.1,1.8-1.3,1.8c-1.1,0-1.1-1-1.3-1.8c-0.5-3.5,0.7-6.5,2.4-9.5c2.4-4.2,5.1-8.2,6.6-12.8c0.6-1.8,1-3.4-0.7-5
			c-4.2-3.8-6.2-9-9.3-13.5c-6.6-9.5-7.2-19-3.3-30c4.3-12.1,8.5-23.7,19.4-31.6c2.8-2.1,5.3-4.6,7.5-7.3c2.5-2.9,5.1-5.9,5.9-9.9
			c-2.5-0.6-4.1,2.3-6.6,0.7c0.7-1.9,2.6-2.1,3.9-2.9c1.9-1.1,3.9-1.9,5-4c0.7-1.4,2.1-3.2,0.7-4.6c-1.4-1.3-2.6,0.6-3.8,1.3
			c-13.7,7.6-25.6,17.9-38.3,27c-1.7,1.3-3.1,3.1-3.8,5.1c-5.4,13-10.5,26.2-15.2,39.5c-3.1,9-1.2,15.6,4.8,22.2
			c6.2,6.9,12.3,14.2,15.3,23.2c1.8,5.3,2.3,10.9,7.3,14.6c1.1,0.8,1.5,2.9,1.8,4.5c1.1,5.4,2,10.8,2.9,16.2
			c3.4,21,5.6,42.1,7.8,63.3c0.9,8.7,1.5,16.8-5.3,24.1c-4.7,5.1-7.7,11.6-10.1,18.3c-3.6,10.4-8.6,20.2-14.8,29.3
			c-1.3,1.7-1.7,4-1.1,6c3.4,12.1,8.1,23.6,15.2,34c4.2,6.2,7.6,13.8,17.4,12.1c0.8-0.2,1.6,0.2,1.9,1c0,0.1,0,0.1,0,0.2
			c0.2,1-0.6,1.5-1.3,1.9c-2.7,1.4-5.8,1.9-8.7,1.4c-14.5-1.9-25.2-8.8-30.6-22.9c-1.7-4.5-3.6-8.8-5.6-13.9
			c-5.3,6.6-9.9,12.9-15.1,18.7c-3.5,4-4.8,8.2-5.3,13.4c-2.8,30.3,7.1,55.9,27.6,77.9c2.9,3.1,6,5.8,10.1,7.1
			c1.3,0.4,3.5,0.3,3.1,2.4c-0.4,2.2-2.6,1.5-4.1,1.7c-4,0.6-7.5-1.5-12.8-2.4c4,3.7,7,6.3,9.8,9c0.9,0.8,2.6,1.6,1.5,3.2
			c-0.8,1.1-2.1,0.3-3.2,0.3c-8.9-0.3-14.3-6.6-20.1-12c-16.8-15.6-25.9-35.6-32.1-57.1c-1.1-3.7-2.1-7.4-3.3-11.7
			c-10.4,11.5-20.3,22.3-31.3,32c-1.9,1.6-2.2,3.6-2.2,5.8c-0.1,10.6,2.8,20,11,27.3c1,0.9,3.1,2.1,1.8,3.6c-1.5,1.8-3-0.4-4.1-1.3
			c-7.3-5.6-12.2-12.7-13.8-21.9c-0.2-1.4,0.2-3.5-1.3-4c-1.7-0.6-2.9,1.4-4,2.5c-6.6,6.3-13.1,12.7-19.7,19
			c-5.1,4.9-11.5,8.4-16.2,13.9c-5.4,6.5-12.5,11.5-17.6,18.3H131V1025z M199,955.9c0.8-4,1.4-8.2,2.5-12.1
			c7.8-26.6,20.6-50.8,36.3-73.4c13.6-19.5,27.5-38.8,37.8-60.3c0.7-1.4,1.1-3.6,3.3-3c2,0.5,2.5,2.5,2.4,4.4
			c-0.1,1.3-0.4,2.6-0.7,3.9c-2.1,7.2-5,14.1-8.7,20.6c-8.6,15.4-17,30.8-25.8,46.1c-5.7,9.9-8.9,20.5-8.6,31.8
			c0.8,24.8,9.3,47.3,22.6,68.1c7,8.3,13.6,17,23.5,22.1c-7.5-7.7-14.7-15.7-23.6-22c0.6-3.6,2.4-4.5,5.5-2.2c2.8,2,5.4,4.5,8.1,6.7
			c5.4,4.4,10.4,9.4,18.5,11.2c-2.7-2.2-4.9-3.5-6.6-5.3c-18.2-19.1-29.1-41.3-29.9-68.2c-0.7-23.2,5-44.8,14.7-65.5
			c1-2.2,1.3-6.3,4.3-5.8c2.8,0.4,2.2,4.4,2.7,6.8c2.7,13.2,7.2,26,13.2,38c4.1,8.2,11,12.4,20.6,14c-0.8-1.3-1.2-2-1.6-2.6
			c-11.6-15-19-31.9-23.5-50.2c-4.7-18.9-6.5-37.7,0.7-56.3c6-15.5,13.1-30.3,27.8-39.7c1.8-1.1,1.7-2.4,1.5-4.2
			c-1.9-13.1-3.4-26.3-5.5-39.4c-1.1-6.5-0.8-13.8-7.8-18c-1.4-0.8-1.8-2.8-1.8-4.5c-0.2-5.4-2.5-9.9-5.3-14.3
			c-3.8-5.9-8-11.4-12.7-16.7c-4.3-5.1-7.8-10.4-5.3-17.6c0.3-1.5,0.3-3-0.2-4.4c-1-3.9-1-7.9,0.2-11.8c3.1-11.2,6-22.4,8.9-33.7
			c0.5-1.8,1.6-4-0.6-5.9c-14.3-12.5-22.1-28.8-26.5-47c-0.4-1.7-1.7-3.6,0.7-6.4c5.6,15.8,8.3,32.2,21.9,44.7
			c-4.7-9.6-8.6-17.9-11.2-26.9c-6.9-24.1-10.1-48.7-11.9-73.6c-1.3-17.9-2.2-35.8-2.9-53.8c-0.9-22.1-1.5-44.2-2.1-66.4
			c-0.1-4.7-0.1-9.3-0.3-14c-1-26.8-1.5-53.6,2.5-80.2c5.5-36.9,17.1-71.7,32.8-105.6c22.3-48.1,56.7-83.6,104.1-106.8
			c29.2-14.3,59.8-19.2,92-13c18.7,3.5,36,11,53,19.3c3.9,1.9,7.1,4.9,10.4,7.8c0.9,0.8,2.6,1.8,1.1,3.2c-1.1,1-2.1-0.4-2.9-1.2
			c-4.9-4.8-11-8.2-17.6-10c-13.9-3.7-27.8-3.8-42-2.5c-14.5,1.3-26.4,7.3-36.5,17.4c-5.7,5.9-10.9,12.2-15.6,18.8
			c-21.8,30.2-38.7,63.2-54.6,96.8c-0.9,2-1,3.3,1.1,4.5c3.9,2,3.4,5.2,2.1,8.6c-1.1,2.8-3.3,4.5-5.7,6.1
			c-19.1,13.3-38.8,25.7-58.7,37.9c-1.7,1-4.3,1.8-4.4,3.7c-0.6,7-2.5,13.9-0.8,21.5c1.2-1,2-1.5,2.7-2.2
			c15.7-15.4,31.7-30.5,48.1-45.2c3.2-2.8,6-3.1,8.7-0.3c2.8,2.8-0.1,5.1-1.9,6.6c-5.9,4.9-8.8,11.5-11,18.5
			c-4.1,12.8-8.3,25.6-12.3,38.4c-10.2,33-16.8,66.9-22.7,100.9c-1.6,9.1-2.3,18.3-3.4,27.4c0.7-0.2,1.3-0.8,1.6-1.5
			c14.3-35.6,28.7-71.2,43-106.8c6.3-15.6,12.7-31.1,19.2-46.6c0.6-1.5,1-3.8,3-3.6c2.5,0.3,2,3,1.9,4.5c-0.4,6.5-0.5,12.9-1.2,19.4
			c-2.4,24.6-7.4,48.5-17.9,71.1c-5.2,11.1-10.1,22.3-15.7,34.7c1-0.8,1.9-1.7,2.8-2.6c4.9-6.1,10-12.1,14.7-18.3
			c36.8-48.3,59.3-103.6,79.3-160.2c11.5-32.6,24.3-64.7,39.9-95.6c5.7-11.3,11.9-22.4,21.3-31.1c8.1-7.5,19.6-9.7,28.6-5.5
			c1.3,0.6,3.5,1.1,2.9,2.7c-0.8,2-2.6,0.4-3.8-0.1c-6.6-3.2-14.4-2.7-20.5,1.3c-11.9,7.5-20.5,18.7-23.4,31.9
			c-8.1,36.7-15.7,73.6-18.7,111.2c-1.9,23.7-2.7,47.5-3.6,71.3c-0.8,21.9,3.4,43.3,7.3,64.7c2.4,13.4,4.1,26.9-7.8,38.2
			c0.8,0,1.6-0.1,2.4-0.3c11-3.6,18.8-11.3,25-20.5c10.5-15.4,15.2-33.1,19.2-51c3.8-17.2,5.8-34.8,6-52.4c0-2.2-0.1-4.5,1.6-6.3
			c0.9,0.3,1.6,1.2,1.6,2.2c1,10.2,2.4,20.4,3,30.7c0.7,11.6,0.9,23.3-0.3,34.9c-1.2,10.7-2.3,21.5-4.2,32.1c-0.5,2.7,0.5,3.1,3,2.3
			c4.8-1.5,7.2-4.3,8.5-9.6c6.3-25,10.5-50.4,12.6-76.1c0.7-8.6,1.1-17.2-4.2-24.9c-1.1-1.5-2.6-3.5-0.7-7.4
			c9.2,19.8,18.2,38.6,39.8,46.1c0.7-1.9-0.5-2.9-1-4c-14.8-28.1-26.7-57.2-32.4-88.6c-5.5-30.5-12.9-60.8-10.4-92.1
			c0.7-9.3,2-18.5,3-27.7c0.1-1,0.1-2.2,1.4-2.2c1.4,0,1.2,1.4,1.2,2.3c-0.3,4-0.7,7.9-1.2,11.9c-2.6,17.6-2.8,35.5-0.5,53.2
			c3,22,6.8,43.9,11.8,65.5c8.7,37.7,25,72.1,46.4,104.1c4.4,6.5,10.2,11.9,16.8,17.5c0.1-2,0.1-4,0-6c-2.2-14.8-4.5-29.5-6.8-44.2
			c-5.9-37.4-13.3-74.4-24.1-110.7c-7.2-24.4-14.2-48.8-27.8-70.7c-2.8-4.5-5.4-9.2-8.1-13.8c-0.6-1-1.7-2.1-0.3-3
			c1.3-0.8,2,0.6,2.7,1.5s1.3,1.9,1.8,3c2,4.7,5.8,7.2,10.3,9.4c13.7,6.9,27.4,13.6,39.4,23.3c8,6.5,15.8,13.3,23.2,20.5
			c0.9,0.9,2.3,4,4,0.8c4.1-7.6,10.6-10.5,19.8-9.9c-3.2-2.3-5.7-3.9-8-5.7c-7.2-5.6-8.1-11.4-3-19c0.8-1.3,1.7-2.4,2.8-3.5
			c1.9-1.7,2.1-3.1,0-4.8c-13.2-11-25.2-23.3-40.5-31.6c-11.4-6.2-23.2-10.9-36.6-7.8c-5.5,1.3-9.9,4.6-14.3,7.9
			c-0.9,0.7-2.1,1.7-3,0.3c-0.6-1,0.5-1.8,1.3-2.4c4.7-3.7,9.5-7.2,15.6-8.5c12.3-2.6,23.4,0.5,34.1,6.2
			c10.4,5.7,20.2,12.4,29.1,20.2c5.6,4.8,11.1,9.5,16.6,14.4c2.2,1.9,3.8,0.9,5.7-0.4c2.2-1.4,1.1-2.7,0.2-4.1
			c-16.6-25.1-37.6-45.2-65.8-57c-7.7-3.3-16.1-4.6-24.4-3.8c-10.2,1.1-19.5,5.4-28.8,9.4c-1.7,0.7-3.3,2.5-5.5,1.1
			c2-2.5,2-2.4,8.5-5.5c22.1-10.5,43.3-10,64.6,2.9C627.7,60,644.9,77,658.8,97.4c1.9,2.8,3.5,3.3,6.8,2.4c8-2.2,16.4-2.5,24.4-0.7
			c2.1,0.4,3.7,2,4,4.1c0.3,3.1,1.8,3.7,4.6,3.6c5.7-0.2,9.8,2.5,12.3,7.7c2.7,5.7,6,11.1,9.8,16.2c0.7,0.9,1.2,2.5,2.4,2.3
			c3.1-0.7,4.6-3.6,6.7-5.7c1.7-1.7,0.1-2.9-0.9-4.3c-12.1-15.7-24.3-31.3-38.4-45.3c-10.4-10.4-21.4-20.4-34.4-27.1
			c-17.5-9.1-35.4-17.8-54.8-22.7c-13.1-3.3-26.1-6.1-39.9-4.8c-8.9,0.9-17.9,1.2-26.9,1.2c-13.6-0.2-27.2-0.6-40.9-1.7
			c-20.2-1.6-39.7,2.3-58.7,9.3c-10,3.7-20.5,5.6-30.6,8.8c-19.5,6.2-36.9,16.5-52.6,29.9c-14.1,12.2-29.5,23-41.9,37
			c-29,32.9-47.9,71.3-60.7,113c-6.6,21.6-10,44.1-19.1,64.9c-2.6,6.1-4.7,12.4-7,18.6c1.6-1.9,2.4-4,3.5-6.1c0.9-1.7,1.2-4.4,3.8-4
			c2.9,0.5,1.4,3.2,1.7,5c0.1,1.2,0.1,2.3-0.1,3.5c-3.5,25.5-5.3,51.2-7.8,76.8c-2.3,22.9-0.7,45.8-0.6,68.7c0.1,19.8,2,39.5,5.6,59
			c2.5,13.6,5.4,27.1,15.4,37.8c4.8,5.1,9,10.7,13.8,15.8c2.4,2.4,3.7,5.6,3.7,8.9c0.3,11.3,0.6,22.6,1.1,34c0.4,10-1,20-1,30
			c-0.1,27.3-0.3,54.6-3.2,81.8c-1.4,13.1-4.7,25.5-13.8,35.7c-0.5,0.5-1.5,1.1-0.4,2.1c3.6-1.3,6.6-3.9,8.5-7.3
			c3.5-6.3,5.8-13.1,8.2-19.8c0.6-1.7,0.8-4.3,3.1-3.8c2.8,0.5,1.5,3.2,1.3,5c-1.1,7.7-2.1,15.5-2.7,23.3
			c-1.3,16.8-4.6,33-15.1,46.8c-0.3,0.4-0.6,0.8,0.1,1.1c7.4-5.5,10.3-9,13.2-17c5.3-14.4,10.4-28.8,15.6-43.1
			c0.7-1.8,0.7-5.1,3.5-4.6c2.2,0.4,1.6,3.4,1.6,5.3c-0.1,11.7,0,23.3-0.5,35c-0.2,4.8,0.6,9.8-1.4,14.3
			c-7.6,17.9-15.3,35.8-26.8,51.7c-16.6,22.9-32.8,46-43.1,72.8C205.1,926.6,199.6,940.6,199,955.9c-1.2,3.2-0.4,6.5-0.4,9.8
			C198.7,962.4,198.8,959.2,199,955.9z M542.8,689.5c-3.7,2.5-6.8,4.6-9.9,6.8c-5.2,3.7-10.6,7.2-16.8,8.6
			c-8.4,1.9-13.8,7.4-19.1,13.4c-26.7,30.2-51.8,61.7-76.6,93.5c-6.2,8-13.2,15.3-17.1,25c-10.2,25.5-17.9,51.8-25.9,78
			c-1.2,3.8-3.7,8-2.9,11.3c1,3.9,6.6,4.5,10,6.8c17,11.5,34.1,22.8,51,34.3c2.8,1.9,4.5,2.1,7.1-0.5c7.5-7.6,16.1-14,25.7-18.8
			c2.7-1.4,5-3.7,8.6-3.4c-10.6,7.7-22.9,13.1-32,24.2c34.7-9.2,69.1-11,103.8-10.9c17.5,0,35.1,0.3,50.9,9.5c3.4,2,3.8-1,4.7-3.1
			c13.4-33,27.7-65.6,43-97.7c6.4-13.5,12-27.5,19.9-40.2c11.9-19.2,28.1-34.6,44.8-49.5c18.8-16.8,41.2-28,63.7-39
			c1.5-0.7,3.6-0.8,4.6-3.1c-1.7-1.1-3.4-2.1-5.1-3.1c-11.6-6.8-23.2-13.7-34.9-20.5c-1.1-0.7-2.7-1-2.8-2.6c0-2,2-1.9,3.3-2.6
			c3.6-1.9,7.6-2.3,11.5-3c16.9-2.9,26.3-12.7,28.7-29.7c1.8-13.2,0.9-26.2-0.6-39.3c-1.4-12.2-6.7-24.3-0.9-36.9
			c-5.2,7.3-11.5,12.4-20.2,13.7c-3.7,0.5-6.2,2.5-8.6,5.3c-9.6,11.1-19.6,21.7-32.4,29.4c-6.4,3.9-13.1,3.1-19.8,2.8
			c-1.2-0.1-2.4-0.8-2.2-2.2s1.4-0.9,2.4-0.8c5.8,0.1,10.7-1.9,14.3-6.6c4.6-5.9,8.5-12.4,11.5-19.3c2.3-5.5,4.6-11.2,4.3-18.5
			c-4.4,7.9-9,14.4-14.9,19.8c-8.6,8-21.4,9.3-31.4,3.2c-1.2-0.7-3.3-1.1-3-2.8c0.4-2,2.5-1.2,3.8-1.2c7.1,0.1,12.6-2.7,17.6-7.8
			c12.1-12.5,16.7-28.2,20.6-44.4c-4.3,5.1-8.9,9.9-13.9,14.3c-4.3,3.9-9.3,7-14.8,9.1c-1.3,0.5-2.7,1.1-3.6-0.3
			c-0.7-1.2,0.6-2.1,1.4-2.9c2-1.8,4-3.5,6-5.3c7.2-6.6,14.8-13,18-22.9c5.9-18,9.4-36.7,10.6-55.6c0.7-11.1,0.5-22.3,1.4-33.4
			c1.1-11.2,0.7-22.6-1.1-33.7c-4.4,5.1-9.2,9.8-14.4,14.1c-8.8,7.2-19.6,9.6-30.5,11.3c-4.2,0.7-5.9,2.3-6.1,6.2
			c-0.1,1.7-0.5,3.3-1,4.8c-4,12.3-8.3,24.6-13.7,36.3c-3.9,8.3-6,16.8-5.6,25.9c0.2,3.9,0.8,8.2-1.3,11.8
			c-8.9,15.2-16.4,31.2-26.5,45.8c-13.3,19.1-23.6,39.9-25.5,63.6c-0.5,5.6-2.6,11.5,0.4,17.2c0.8,1.5,0,3.2-0.5,4.8
			c-3.8,13.3-9.7,25.8-14.8,38.6c-9.3,23.3-16.4,47.1-14.4,72.7c0.7,8.8,1.8,17.5,5.3,25.7c1.2,2.8,2.5,5.6,6.8,7.5
			c-9-12.5-8.7-26-9.8-39.1c-0.1-1.6-0.2-3.8,1.8-4.1c2.2-0.4,2.3,1.9,2.8,3.4c2.4,8.1,4.6,16.3,7.1,24.4c1.4,4.3,3,8.6,8,12.1
			c-1.3-2.4-2-3.8-2.7-5.1c-5.2-9.7-8.3-19.8-8.1-31c0.3-15.7,4.1-30.7,9.3-45.2c6.9-19.4,15.4-38.3,25.3-56.4
			c8.6-15.6,16.2-31.7,22.9-48.2c4.9-12,9.8-24,14.8-36c0.6-1.5,1-4.7,2.9-3.8c2.3,1,0,3.3-0.5,5c-0.1,0.3-0.2,0.6-0.3,0.9
			c-12.5,31.2-25.3,62.2-41.8,91.6c-6.1,11.1-11.2,22.8-15.3,34.8c6.5-7.4,13-14.8,20.4-21.3c5.2-4.6,10.5-9.3,14.7-15
			c11-14.8,17.4-31.7,22.6-49.1c2.3-7.6,4.1-15.4,6.1-23.1c0.4-1.7,1-3.4,3.1-3.3c2.5,0.2,2.5,2.2,2.6,4.1c0.2,3.2-1,6.2-1.5,9.3
			c-3.9,20.8-13.1,40-18.2,60.5c-4.8,19.2-8.6,38.5-12.3,58c0.5-0.9,0.9-1.8,1.2-2.8c3.2-11.8,9.5-21.3,19.7-28.5
			c10.4-7.2,20.4-14.9,30-23.3c5.9-5.2,11-11.1,17.3-15.9c2.3-1.8,4-1.8,6.3-0.5c4.2,2.7,8.9,4.5,13.9,5.3
			c15.6,2,24.2-0.2,30.3-14.3c2.4-5.7,5.2-11.2,7.3-16.9c0.4-1.2,0.7-3,2.4-2.8c2.2,0.2,1.6,2.2,1.6,3.6
			c-0.1,13.1-4.1,25.8-11.4,36.6c-4.3,6.2-10.5,10.8-17.8,13c-5.2,1.7-9.7,1.5-14-3.1c-4.9-5.4-10.7-10-16.1-14.9
			c-1.9-1.8-3.4-2-5.4,0.1c-13.4,14.6-29.4,26.1-45.1,37.8c-12.3,9.2-16.9,22.3-18.2,36.8c-0.7,7.7,0.5,8.6,8.1,8.7
			c1.2,0,2.3,0.1,3.5,0.1c12.8,0,25.6,1.6,38.3-1.2c6.4-1.4,12.3-4.1,18.2-6.7c5.2-2.3,10.6-3.9,16.6-3.7c-0.1,1-1,1.8-2.1,1.8
			c-6.6,1.1-12.9,3.3-18.8,6.3c-7.4,3.8-15.7,5.8-24,5.9c-10.8,0-21.7-0.2-32.5-0.2c-1.4,0-3.4-0.8-4.1,0.7c-0.9,1.8,1.1,2.9,2.2,4
			c0.5,0.5,1,0.8,1.6,1.3s1.4,1,1.1,2c-0.3,1-1.2,1-2,1.1c-4,0.2-8.1,0.6-10.5-4.8c-1.1,10.2-0.9,10.9,3.2,16.1
			c0.9,1.1,2.6,2.2,1.3,3.8c-1.1,1.4-2.7,0.5-4.2,0.1c-10.7-3.4-17.6-10.4-20.4-21.3c-0.5-2.1-1-3.9-3.7-3.8c-6.5,0.1-13,0-19.5,0.2
			c-3.1,0.1-4.7,1.8-5.2,4.9c-1.5,9.5-1.5,19,1.2,28.2c2.3,7.6,4.3,15.5,11.7,20.3c1.3,0.8,3.9,1,3,3.1c-0.7,1.9-2.9,0.9-4.5,0.6
			c-8.4-1.8-12.2-8.2-15-15.3c-2.1-5.1-3.4-10.6-5.1-15.9c0,3.2,0.2,6.4,0.8,9.5c0.4,2.6,1,5.2,1.8,7.8c1.5,5.4,3.2,10.7,9.4,12.5
			c0.8,0.2,1.6,0.7,1.3,1.7c-0.3,0.9-1.3,0.9-2.1,1.1c-6.2,1.4-13.4-2.6-15.5-9.6c-4.3-14.6-6.6-29.5-5.1-44.8
			c1.5-15.2,5.3-29.7,10.3-44c1.2-3.4,0.4-4.4-3.2-4.2c-9.7,0.4-18.8-2.1-27.6-5.7c-12-4.9-17.9-16.9-5.8-26.7
			C542.2,690.8,542.3,690.4,542.8,689.5z M387,269.1c-0.5,1-1,2.1-1.4,3.1c-14.7,36.2-29.4,72.4-44.1,108.5
			c-6,14.8-11.9,29.6-17.8,44.4c-0.5,1.2-2,2.8-0.4,4c1.2,0.9,2.9,0.5,4.3-0.1c2.4-1.1,4.8-2.3,7.1-3.5c2.7-1.4,3.7-2.9,0.2-4.6
			c-1.1-0.5-3-1.1-2.6-2.6c0.6-2,2.7-1.1,3.9-0.7c7,2.3,13.6,1,20.4-0.8c16.1-4.1,31.2-1.4,45.4,7.5c6.3,3.9,11.6,10.3,20.1,10.1
			c0.9-0.1,1.7,0.5,1.9,1.4c0,0.1,0,0.3,0,0.4c-0.1,1.2-1.2,1.6-2.2,1.6c-3.2,0.1-6.3,0.3-9.5,0.2c-3.8-0.2-3.8,1-2.2,4
			c3.9,7.3,7.4,14.9,9,23.1c2.7,13.8-4.6,24-18.4,26.1c-6.4,1-13,0.2-19.1-2.2c-2.5-0.9-5.5-0.8-7.3-2.9c-4.6-5.7-9-11.4-13.3-17.4
			c-2.3-3.5-4.4-7.1-6.3-10.8c-0.9-1.6-2.2-3.6-0.5-5c1.6-1.2,2.8,1,4.1,2c1.1,1,2.3,1.9,3.5,2.7c4.2,2,3.7-2.5,5.2-4.2
			c1.3-1.3,1.4-3-0.7-3.4c-3.9-0.8-7.5-3.1-11.6-2c-3.7,0.9-4.9-1.2-5.1-4.3c-0.2-2.9,0-5.9,0-9.3c-6.1,2.7-12,4.9-17.3,8.4
			c-6.3,4.2-12.2,8.5-9.1,17.5c0.1,0.7,0.2,1.3,0,2c-0.4,3.5,1.1,6,3.6,8.3c6.1,5.7,11.7,11.8,16.9,18.4
			c11.1,14,19.8,29.6,28.3,45.2c0.9,1.7,1.4,4,3.9,4.2c4.9,0.3,9.7,1.6,14.8-0.2c8.7-3.2,17.6-2.8,26.4,0.3c1.2,0.6,2.5,0.8,3.9,0.6
			c8.2-1.8,15.8,0.2,23,4.2c2.3,1.3,4.8,2.2,7.4,2.4c6.1,0.3,11.7,3.4,15.2,8.4c2.2,3.1,4.3,6.4,6.2,9.7c2.3,4.2,5.6,5.6,10.2,5.7
			c10.8,0.2,20.6-3.2,30.1-7.8c1.2-0.6,3-2.2,3.9-0.4c0.9,1.7-1.4,2.3-2.6,3c-8.8,5.1-18.5,7.4-28.5,8.6c-2.8,0.3-3.5,0.8-2,3.5
			c2.6,4.6,5.6,9.1,7.3,14.1c4.1,12.3,7.3,24.9,8,38c0.1,1.3-0.1,3,1.3,3.6c5.8,2.3,11,6.3,17.3,7.4c8.6,1.6,14.4-3.6,20.7-8
			c27.8-19.7,54.4-40.7,78.4-64.9c16.1-16.2,30.2-33.8,38.7-55.3c6.2-15.7,13.7-31,16.2-48.1c0.4-2.7,2.2-3.6,4.9-3.9
			c19.1-2,35-9.8,46.6-25.6c1.6-1.9,2.4-4.3,2.3-6.8c-0.8-15-1.4-29.9-2.2-44.9c-0.2-4.3-0.9-8.6-1.3-12.9c-0.5,4.1-1.1,8-5,10.3
			c-0.7,0.5-1.5,0.9-2.2,0.2c-0.5-0.4-0.5-1.1-0.1-1.6c0-0.1,0.1-0.1,0.2-0.2c3.9-2.2,2.8-6.3,4-9.5c1.4-3.6-0.4-4.9-2.2-6.7
			c-2.2-2.1-4-0.3-5.7,0.9c-8.7,5.9-15.1,14-21.5,22.1c-1.4,1.8-0.6,3,0.5,4.4c4.2,4.9,3.8,10,0.5,15.2c-1.7,2.7-3.2,5.6-5.4,7.8
			c-4.6,4.6-6.4,9.6-4.2,15.8c0.5,0.9,0.2,2.1-0.7,2.6c-0.9,0.1-1.7-0.5-1.8-1.4c-1.6-5.4-2.3-10.7,1.6-15.6
			c2.3-2.9,4.5-5.8,6.6-8.8c3.4-5,4.5-10-0.1-15c-1.8-2-2.1-4.3-0.3-6.3c6.4-7.2,11.7-15.4,19.7-21.2c4.9-3.6,9.5-8,15.4-0.2
			c0-3.9,0.1-6.6,0-9.2c-0.1-1.2-0.4-2.3-0.7-3.4c-1-4.8-4.8-7.2-9.5-5.8c-1.6,0.5-3.1,1.2-4.5,2.1c-13.7,8.5-24.5,19.4-28.9,35.5
			c-0.3,1.1-0.2,3-1.8,3.2c-1.9,0.2-1.3-2-2.2-2.8c-0.3-0.5-0.9-0.6-1.3-0.3l-0.1,0.1c0,1.2-0.1,2.5,0,3.8c1.1,19,1.7,37.9-0.1,56.9
			c-1.8,18.8-6,36.7-16.8,52.6c-4.9,7.3-14.1,9.9-21.8,5.8c-1.4-0.7-3.8-1.2-3.3-3.2s2.8-1.5,4.3-1.3c7.8,1.2,12.6-2.7,16.3-8.9
			c1.8-2.6,3-5.6,3.6-8.7c2-12.1,3.7-24.3,4.4-36.6c1.4-23.4,1.5-46.8-1.5-70.1c-1.3-10.5-7.6-19-11.3-28.7c-0.2,2.5,0,5.1,0.5,7.5
			c2.6,17.8,3.7,35.6,0.8,53.6c-2.7,16.7-10,30.5-21.4,42.4c-4,4.5-10,6.6-15.8,5.5c-1.4-0.2-3.4-0.5-3.5-2.2
			c-0.1-1.9,2-1.9,3.3-2.2c5.6-1.3,10.2-4.1,13.1-9.2c7.2-12.7,8.5-27,10.9-41c-7.6,13.2-8.1,14.2-15.8,19.6
			c-2.7,1.9-4.9,4.4-6.3,7.3c-8.1,15.9-27.6,22.2-43.5,14.1c-3.4-1.7-6.5-4.1-9.1-6.9c-5.7-6.3-10-13.8-12.5-21.9
			c-0.8-2.6-4-5.6-0.7-8.1c2.7-2.1,5.2,0.9,7.7,1.8c1.4,0.5,3.4,2.2,3.8-0.7c0.4-2.5,3.5-5.8,0.1-7.5c-3.1-1.6-7.2-3.2-10.4,0.8
			c-2.3,2.9-3.7,1.9-4.7-1.2c-1.2-3.4-1-6.9-0.8-10.4c0.3-4.1-1.1-4.5-4.5-2.8c-9,4.7-17.2,10.9-24.1,18.4c-2.8,2.9-5.4,5.9-8.1,8.9
			c-2.7,2.9-3,0.6-3.3-1.7c-1.9,1.5-2.6,4.4-6.5,4.4c6.9-14.1,14-27,26.8-35.5c3.1-1.9,5.2-5.2,5.5-8.8c2.7-20.8,5.5-41.6,4.1-62.6
			c-0.3-5-0.9-10-1.4-15c-1.3,7-1.9,14-3,20.8c-3.5,21.9-8.5,43.5-19.3,63.1c-7.6,13.8-18.1,24.7-34.5,28c-2,0.4-4.1,1-6.1-0.3
			c1-2.4,3.1-2.9,4.7-4c4.1-2.9,7.3-6.4,8.5-11.4c1.5-6.7,1.7-13.6,0.6-20.3c-1.8-13.6-5.8-26.9-6.6-40.8c-0.3-4.5-0.9-9-1.3-13.5
			c-2.5,5.5-4.4,11.2-5.8,17.1c-7.3,36-26.8,64.4-54.2,87.9c-1,0.9-2,3-3.6,1.6c-1.3-1,0-2.5,0.7-3.5c6.1-9,10.3-19,14.9-28.8
			c14.8-31.1,21.6-64.2,25.3-98.1c2.1-19,2.2-38.2,2.5-57.4c0.1-4.3,0.4-8.5,0.6-12.8c-4,8.1-7.4,16.5-10.3,25.1
			c-15.2,44.1-36.7,85.8-63.9,123.7c-7.9,11.2-16.5,21.8-25.8,31.8c-0.9,0.9-1.8,2.6-3.2,1.7c-1.2-0.7-0.7-2.4-0.1-3.7
			c0.5-1.2,1.1-2.4,1.6-3.6c4.5-9.5,8.8-19,13.5-28.4C380,334,386.7,302.3,387,269.1z M324.5,473.6c0.3,3,0.5,5,0.8,6.9
			c1.6,9.3,2.6,18.8,8.5,26.8c3.7,4.8,8.3,8.6,13,12.4c0.9,0.8,2.9,1.3,2.1,2.9c-0.9,1.9-2.7,0.8-4,0.4c-5.3-1.5-10.2-4.3-14.1-8.1
			c-2.3-2.3-4.3-4.8-6.4-7.2c-0.9,2-1.1,4.2-0.4,6.3c2.2,6.9,6.4,12.9,12,17.4c1,0.8,2.7,1.7,1.9,3.1c-1,1.7-2.4,0.2-3.4-0.4
			c-9.9-6.9-18.9-14.6-23.9-26.1c-12.1-28.1-20.4-57.6-24.9-87.8c-2.8-18.8-5.5-37.7-8.3-56.6c-0.3-2.1-1.7-5.5,0.3-5.7
			c2.7-0.3,2.2,3.5,2.5,5.5c3.1,24.3,6.8,48.6,11.2,72.7c4.7,25.2,12.3,49.7,22.9,73c2.2,4.9,5,9.4,10.1,13c-2-3.9-3.3-8.2-4-12.5
			c-0.6-5.3-1.5-10.5-2.8-15.6c-4.3-15.5-7-31.4-8.1-47.5c-0.7-9.3-0.5-18.6-0.9-27.9c-1.9-38.6-1.2-77.3,2-115.7
			c0.2-2.8,0.6-4.7-3.6-5.8c-9.5-2.4-9.8-4.8-2.7-11.7c2.3-2.3,6-3.8,6.3-7.4c0.5-7-0.3-14.1,1.4-21.7c-4.8,2.4-7.4,6-10.9,8.4
			c-1.7,1.2-3.2,2.3-5.4,0.7c-4.1-3.2-8.2-6.5-10.3-11.4c-4.7-10.7-5.7-22.7-3-34.1c1.3-5.6,4.2-9.3,9.6-11.1
			c5.7-1.9,11.3-4.9,17.1-5.3c11.7-0.8,15.9-7.4,19.1-17.9c7.5-24.8,19.6-47.2,37.6-66.2c17.4-18.3,38.1-32.1,60.1-44.1
			c17.1-9.4,35.6-14.7,54.8-17.2c12.9-1.8,26-1.9,38.9-0.3c-24.4-12.4-60.9-17.7-86.5-11.9c-45.7,10.3-82.7,34.8-112.5,70.4
			c-12.6,15-21,32.7-29.8,50.1c-19.4,37.8-30.9,79.1-34,121.5c-2.3,31.8-0.8,63.9,0.3,95.9c1.1,30.1,2.5,60.1,4.1,90.2
			c1,22.5,3.8,45,8.2,67.1c3.3,16,9.1,31.3,17.1,45.5c0.6,1.2,0.8,3.7,3.4,1.9c4.3-3.1,9.1-5.4,12.7-9.6
			c4.9-5.6,10.5-10.8,15.2-16.6c5.4-6.6,12.6-5.6,19.7-5.8c4-0.1,8.3,0.6,11.4-2.8c5.3-5.6,11.4-10.3,18.8-12.7
			c3.4-1.1,3.1-2.3,1.7-4.9c-6.3-11.4-12.7-22.6-19.8-33.5C342.5,491.8,334.1,482.1,324.5,473.6z M325.1,661.9c0.5,0,1,0,1.4,0
			c3.7-9,7.5-18,11.1-27.1c0.8-2.5,2.3-4.8,4.2-6.6c8.9-7.7,16-16.8,22.2-26.8c1.2-1.9,2.3-4.6,5-4.3c3.1,0.4,4.5,3.1,5.3,6
			c2.7,9,0.5,17-4.8,24.5c-7.1,10.1-13.7,20.4-16.2,33c-1.7,8.7-4.2,17.4-6,26.2c-0.7,2.6,0.3,5.4,2.5,7.1c4.2,3.5,8.8,6.5,13.7,9
			c14.4,7.3,30.3,11.2,46.5,11.4c14.9,0.2,29.2-1.1,42.2-9c11.5-6.9,21.3-16.1,28.9-27.1c7.8-11.1,14.2-23.1,15.2-36.9
			c1.6-21.4-3.7-41.5-13.2-60.6c-1.2-2.4-2.3-5-4.6-6.5c-5.7-3.7-9.1-9.2-12-15c-3.5-6.9-9.2-10.3-16.7-10.8
			c-2.3-0.1-4.5-0.9-6.4-2.2c-5.4-3.4-11.6-5.2-18-4.9c-2.7,0.1-4,0.9-2.4,4c2.3,4.5,2.7,9.7,1.2,14.6c-0.5,1.8-0.7,5.2-2.5,4.6
			c-2.6-0.8-0.2-3.4,0.2-5c2.2-9.5-0.7-16.9-8.6-19.1c-8.2-2.3-17-1.7-24.8,1.9c7,5.8,10.3,13,11.9,21.3c-2.4-3.7-4.5-7.5-6.4-11.4
			c-2.8-5.3-6.6-9.2-12.9-9.8c-12.8-1.3-22.4,4.5-30.5,13.7c-0.9,1.2-1.5,2.6-1.6,4.1c-1.1,5.4-2.4,10.8-3.6,16.1
			c-2.3,10.2-8.5,18-16.3,24.4c-7.3,5.9-13,12.4-11.3,22.7c0,0.8-0.2,1.7-0.4,2.5C316.7,638.6,320.4,650.3,325.1,661.9L325.1,661.9z
			 M633.2,235.6c3.8,11.8,6.3,24,7.6,36.3c0.4,3.7,2.4,5.5,5.5,6.8c5.3,2.3,10.4,5.2,15.8,7.3c14.3,5.7,30.2,6.1,44.8,1.2
			c3.9-1.3,3.5-2.6,1-4.9c-4-3.6-8.7-6.1-13.4-8.7c-1-0.6-3.1-1-2.1-2.6c0.8-1.4,2.4-0.3,3.5,0.3c5.5,2.8,10.8,5.9,15.3,10.3
			c4.9,4.9,4.9,5.3-1.5,7.5c-18.1,6.5-35.9,5.5-53.3-2.4c-4.8-2.2-9.5-4.5-14.9-7.1c1.3,6.7,0.4,12.8,1.3,18.9
			c1.3,8.2,11.3,15.6,19.7,14.5c9.8-1.2,19.1-4.2,28.6-6.6c1.5-0.4,3-1.4,4.6,0.1c-0.8,2.2-2.9,2.2-4.5,2.6
			c-5.7,1.6-11.6,2.9-17.3,4.6c-10.3,3.1-19.9,3-28.6-4.4c-0.5-0.4-1.2-0.6-2.1,0.2c0,1.7,0,3.7,0,5.7c0.2,19.6-0.8,39.3-3,58.8
			c-1.5,14-3.9,27.9-6.9,41.7c-3.1,13.3-5.5,26.8-19.5,33.9c7.7-1,13.1-5.4,17.2-11.5c12.1-18.3,16.5-38.6,15.8-60.3
			c-0.4-11.7-1.6-23.2-2.9-34.8c-0.2-1.4-0.8-3.4,1-4c1.7-0.6,2.4,1.4,3.3,2.5c0.5,0.7,1,1.4,1.3,2.1c5.4,12.9,11,25.6,11.8,39.9
			c1.8,30.3,1.3,60.6-3.3,90.6c-0.6,3.9-2.3,7.6-3.7,11.4c-1.3,3.6-3.6,6.8-6.6,9.2c-3,2.3-6.7,3.6-10.5,3.8
			c6.3,2,11.6,0.2,15.9-4.4c4.6-4.9,7.5-10.9,9.6-17.3c6.1-18.2,7.8-37,8.1-56c0.3-14-1-27.9-1.7-41.9c-0.1-2.1-1.4-5.4,1.4-6.1
			c2.1-0.5,2.2,2.9,3.4,4.3c0.4,0.5,0.8,1,1.2,1.4c1.1-0.6,1.8-1.7,2-3c3.8-13.7,13.8-22.4,24.6-30.5c5.4-4,11.3-6.3,18.7-3.4
			c-1.4-11.5-2.8-22.5-4.3-34.8c-2.2,3.3-3.5,5.2-4.8,7.1c-5.4,8-10.6,16.2-17.5,23c-8.2,8.1-23.8,8.4-30.8,0.6
			c-4.9-5.5-8.1-12.1-11.2-18.8c-0.4-0.8-1.1-2.1,0-2.7c1.5-0.8,2,0.7,2.4,1.7c2.4,5.3,5.2,10.4,8.5,15.2c4.7,6.6,11.3,8.8,19.3,7
			c6.3-1.4,10.6-5.2,14.4-10c6.5-8.3,12.2-17,18-25.8c0.7-1,1.1-2.7,2.8-2.3c1.5,0.4,0.9,1.9,1.1,3c4.2,25.4,6.3,51,7.9,76.7
			c1.3,20.7,2,41.5,2.9,62.3c0.6,13.7-0.3,27.3-0.7,40.9c-0.5,15.8-1,31.6-4.2,47.1c-3.9,19.1-7.4,38.5-24.7,51.2
			c-0.1,0.1,0,0.5,0.1,0.7c13.2-8.7,21.7-21.8,30.9-34.6c1.5,2.7,0.3,3.9-0.5,5c-2.8,3.8-4.2,8.2-5.5,12.7c-2,7-3.7,14.2-6.4,20.9
			c-6.1,15.2-13.6,29.4-31.7,34.9c8.9,2.7,16.7,2.5,23.7-3.2c7.9-6.5,13.9-14.9,17.5-24.5c2.9-7.4,5-15.1,6.2-23
			c0.2-1.3,0.4-3.2,1.9-3.1c2.1,0.2,0.9,2.1,0.8,3.2c-0.1,1.5-0.5,2.9-0.7,4.4c-0.7,6.3-4,12.2-2.9,18.8c3.7-10.5,7.2-21,10.5-31.6
			c8.5-26.7,13-54.2,15.2-82.1c1.4-15.6,1.5-31.3,0.4-46.9c-1-13.4-2-26.8-4.6-40c-9.9-49.5-29.2-95.7-48.5-142
			c-0.5-1.2-0.8-2.8-3-2.4c-8.3,1.2-8.3,1.1-10.4-6.8c-1.7-6.7-3.8-7.6-9.7-3.6c-2.5,1.7-5.2,3.1-7.8,1.1c-2.3-1.8-2.6-0.2-3.4,1.2
			c-2.1,3.7-4.3,3-6.5,0.1c-3.3-4.4-3.1-9.5-1.8-14.3c0.9-3.4-0.5-4.5-3.1-4.7c-5.3-0.4-8.6-2.9-10.2-8c-0.6-2-1.6-3.4-4.4-2.1
			c-6.2,2.9-12.2,0-13.6-6.7c-0.6-2.7-1.4-3.6-4.1-3.6c-3.3-0.1-6.1-1.8-9-4c3.8,9.3,7.6,18.2,11.1,27.2c0.8,2.5,2.6,4.6,5,5.8
			c11,5.8,22,11.7,33,17.8c1.9,1,6,1.9,4.7,3.9c-1.4,2.4-4.3-0.7-6.2-1.7c-9.4-4.9-18.8-10-28.2-15.1
			C636.8,236.4,635.6,235,633.2,235.6z M779.6,250.5c-1.4-2.7-1.7-5.4-2-8.3c-0.5-8.3-1.5-16.5-2.9-24.7c-0.5-2.6-1.8-5-3.8-6.9
			c-0.7-0.7-1.5-1.5-2.6-1.1c-1.3,0.5-0.9,1.6-0.8,2.5c0.1,1.8,0.3,3.9-0.9,5.3c-3.5,4.2-1,7.6,1.6,10.5c2.2,2.5,3.6,5.6,3.9,9
			c0.5,4,0.9,7.9,1.1,11.9c1.4,27.4,2.7,54.9,4,82.3c1.7,36.4,3.7,72.8,4.8,109.2c0.8,27.8,2.2,55.6,0.4,83.4
			c-1.9,29.8-6.9,58.5-23.2,84.3c1.1-0.2,2.3-0.4,3.4-0.7c8.9-3,13.8-10.1,17.8-17.9c5.1-10,7-21.1,10.3-31.7c0.4-1.2,0.7-2.9,2.2-3
			c1.7-0.1,1.8,1.7,2.2,2.9c2.1,6.5,3.7,13.2,6.4,19.4c4.3,10.4,7.4,21.5,17,28.9c4.6,3.5,4.6,3.9-0.4,7.2
			c-5.8,3.9-12.6,5.7-18.8,8.8c9.1-2.2,17.6-6,26-10c2.1-0.9,3.9-2.4,5.3-4.2c9.3-13.1,17.6-26.7,22.8-42c2-5.8,4-11.8,3.4-18
			c-1.4-15-5.6-29.3-10.2-43.6c0.9,5.7,1.9,11.3,3.2,16.9c2.8,12.5,5.3,25,2.9,38c-3.1,16.2-13.1,29-21.3,42.6
			c-3.7,6.1-8.1,5.7-12.1-0.6c-0.9-1.6-1.7-3.3-2.1-5c-3.4-11.8-6.8-23.7-9.9-35.6c-4.9-18.7-7.2-37.2-1.9-56.5
			c3.2-12,3.9-24.5,2-36.7c-3.6-24.1-3-48.1-1.1-72.2c0.2-3.1-0.2-6.6,2.6-11c5.1,16.6,9.8,32,14.5,47.4c0.3-1.1,0.2-2.3-0.1-3.5
			c-3.7-16.4-9.5-32.2-13.8-48.4c-0.7-2.7-2-5.4-1.6-8.3c2.3-16.2,2.5-32.5,3.8-48.8c2.1-26.8,0.7-53.6-2-80.3
			c-1.3-13.3-3.8-26.5-13.6-36.7c-3.1-3.2-5.5-7.1-7-11.3c-2.4-6.8-5.4-13.2-10.9-18.2c-4.2-3.9,4.8-5.2,2.2-9.4
			c-0.4-0.7,1.7-2.4,3.3-2.3c1,0.1,1.9,0.5,2.7,1.1c5.6,3.7,8.6,3.2,12.2-2.5c1.6-2.5,3.9-4.6,6.5-5.9c8.4-4.3,16.7-8.6,26.3-13.5
			c-5.8,0-10.3-0.4-14.7,0.1c-10.8,1.2-21.1-0.3-31.4-3.8c-7.7-2.6-15.5-2.7-23.4,1.4c5.1,5.4,7.9,11.8,10,18.5
			c2.6,8.1,1.1,14.9-6.2,20.3c-3.9,2.9-3.3,7.8-4.4,12.4c2.8-0.8,3.5-2.4,4.6-3.6c5.7-6.1,9.7-5.2,12.5,2.7c2,5.6,1.6,11.4,1.3,17.3
			c-0.4,7.4-1.9,14.7-0.7,22.3C780.1,237.3,781.3,243.9,779.6,250.5z M668,241c2.3-1.8,3-7,5.8-4.5c4,3.6,6.2,1.5,9.4-0.2
			c6.1-3.1,8.3-2,10.5,4.5c0.6,1.9,1.3,3.7,2,5.5c0.9,2.8,2.8,3.1,5.1,1.8c2.2-1.1,4.5-2.2,5.6-4.7c0.5-1.4,1.7-2.5,3.2-2.9
			c4.8-1.4,7.1-4.9,6.2-9.5c-0.5-2.4-0.2-3.5,2.4-3.5c1.2,0,1.8-0.9,2.1-1.8c1.8-4.6,4.6-3.6,7.4-1.3c5.4,4.6,9.6,9.9,10.8,17.3
			c0.4,2.5,0.3,5.7,3.4,6.7c3,0.9,5-1.3,6.9-3.2c2-2.1,3.9-4.1,7.3-2.8c1.5,0.6,2.8-0.5,3.8-1.8c4.3-4.9,5.3-12.5,2-18.1
			c-1.2-2-1.3-3.4,0.4-4.7c2.9-2.3,3.1-5,1.4-7.9c-1-1.8-1.3-3.8-0.9-5.8c0.5-3-0.2-6.1-2.2-8.4c-3.1-4.3-1.8-14.2,2.3-17.7
			c7.5-6.4,8.9-11.3,5.4-20.5c-5.3-13.8-15.7-22.7-28.4-29.5c-3.9-2.1-6.7-1.9-9.2,2c-1.2,1.9-3.2,3.4-4.7,5.1
			c-2.2,2.4-4.2,2.4-6-0.5c-3.1-5-6.8-9.6-9-14.9c-3-7.4-7.3-11.7-15.7-10.5c-2.5,0.3-4.8-0.2-3.8-3.9c0.6-2.2-0.9-3.3-2.9-3.9
			c-6.7-1.7-13.4,0.8-20.1,0.1c-0.4,0-0.9,0.3-1.4,0.5c-6.7,2.7-12.6,7.1-17,12.7c-5.2,6.5-4.5,11,2.1,16c4.3,3.2,8.9,5.8,13.9,7.9
			c1.1,0.5,2.4,1,1.9,2.5c-0.5,1.6-1.8,0.8-2.9,0.6c-3.8-0.8-7.6-0.5-11.5-0.3c-5.2,0.2-9.2,2.9-11.9,7.2
			c-4.7,7.3-3.3,24.5,2.4,31.2c1.8,2.1,3.3,4,0.5,6.8c-2.5,2.5-0.7,6.3,2.7,7c6.7,1.3,6.9,1.9,3.8,7.9c-3.2,6.1,1.9,18.1,8.3,18.9
			c9.1,1.1,7.9,3,6.5,10.1C665.1,234.4,665.2,237.7,668,241z M829.4,762c-5.7-8.8-13.2-15.6-19.4-23.6c-0.7-0.9-1.6-1.7-2.4-2.6
			c-2.4-2.6-5.5-3-8.8-2.4c-7.3,1.4-14.7,2.3-21.4,6.2c-6,3.5-12.4,6.4-18.6,9.7c-45.6,24.2-81.7,57.2-103.4,105.5
			c-16.5,36.9-33.3,73.6-49.1,110.8c-1.5,3.6-0.9,5.6,2.4,7.7c10.2,6.6,20.2,13.5,30.2,20.4c2.4,1.7,3.1,1.4,3.8-1.6
			c2.2-10,4.6-20.1,8.2-29.7c10.7-28.3,23.8-55.6,36.9-83c5.2-10.9,9.3-22.6,16.8-32.2c13.1-16.7,28.5-31.2,44.9-44.6
			C773.4,783.6,800.3,771,829.4,762z M708.9,646.1c6.1-1.6,10-4.4,14-7.1c11-7.5,19.1-17.9,28.4-27.3c6.3-6.4,11.6-13.2,14.9-21.6
			c9.1-22.6,14-46.6,14.4-71c0.6-35.8-0.8-71.5-2.7-107.3c-1.2-23.2-2-46.5-3.1-69.8c-1.3-25.3-2-50.5-3.2-75.8
			c-0.4-9.6-1.3-19.2-2-28.8c-0.1-2-0.4-4.1-2.6-5.9c-0.8,2.5-1.2,4.6-2.1,6.5c-1.7,3.4-3.4,7.2-8.1,7.2c-3,0-5,1.3-7.1,3.1
			c-7.6,6.5-12.2,4.9-14.2-5.1c-1.2-6.3-4.7-11.3-9.1-15.6c-1.3-1.3-2.1-1.9-3.7,0.4c-2.1,3.2-3.9,6.7-5.3,10.3
			c-0.8,2.6-3,4.5-5.6,5.1c-3.9,1-5.3,4.6-3.8,8.4c1.5,3.9,3,7.8,4.6,11.6c12.9,30.1,25.1,60.4,34.3,91.9
			c6.9,23.5,12.6,47.2,14.1,71.6c1,15.9,1.7,31.8,0.4,47.9c-1.2,18.2-3.5,36.4-6.7,54.3c-5.8,30.6-16.2,59.9-27.2,88.9
			C723.8,628.3,718.3,637.8,708.9,646.1z M326.8,199c4.2-0.6,8.1-1.3,12-1.8c10.5-1.4,21.1-3.7,31.7-2c4.4,0.7,6.2-0.5,8-4.2
			c10-21.2,20.1-42.4,32.3-62.4c14.2-23.4,28.1-47.1,50.2-64.3C394.9,87.3,345.1,126.9,326.8,199z M809.7,397.5
			c-2.1,6.6-1.3,13.2-1.9,19.8c-1,10.4-1.5,21,0.2,31.4c3.1,18.9,4,37.7-0.5,56.5c-3.1,12.5-3.7,25.4-1.7,38.1
			c2.4,14.2,6.3,27.9,10.7,41.5c1.5,4.7,3.2,9.5,5,14.1c2,5,4.7,5.6,7.7,1.2c3.3-4.7,6.4-9.6,9.6-14.4c13.6-20.9,14.6-43.6,8.2-66.8
			c-6.9-25-14.8-49.7-22.5-74.4C819.8,428.8,814.7,413.2,809.7,397.5z M650.4,529.5c-2.4,3.7-4,6.4-5.8,9
			c-19,26.9-43.5,48.4-68.8,69.1c-9.1,7.5-18.9,14.1-28.3,21.3c-1.9,1.5-4.8,2.4-3.7,6.1c3.4,12,6,24.1,7.8,36.4
			c1.1,7.1,5.6,9.5,11.6,11.2c11.4,3.1,20.7-2.1,30.1-7.2c2.5-1.4,3.4-3.2,3.3-6c-0.1-8.5,0.7-16.9,2.6-25.2
			c4.3-20.2,14.6-37.8,25.9-54.6c7.8-11.6,14.6-23.8,21.4-36C650.9,546.2,650.9,538.6,650.4,529.5z M416.4,409.5
			c6.9-4.5,11.1-10.3,15.8-15.7c12.5-14.4,22.7-29.9,27.6-48.6c3.1-11.7,6.7-23.3,9.9-35c1.2-4.1,2.7-8.2,2.9-12.6
			c0.9-24.9,1.8-49.8,3.8-74.7c2.1-26.2,6.8-51.9,11.7-77.6c1.5-7.8,3.1-15.7,4.6-23.5c-0.9,0.3-1.6,0.9-2,1.8
			c-11.9,26.7-23.2,53.7-33.4,81.1c-0.7,1.9-1,3.8-1.1,5.8c-0.9,27.3-0.9,54.6-3.9,81.8c-2.3,20.7-6.3,41.1-12.2,61
			C434.5,372.5,425.7,390.5,416.4,409.5z M556.9,275.5c-0.9,9.1-1.8,17.4-2.5,25.6c-1.8,20.1-6.2,39.6-11.1,59.1
			c-0.5,1.9-2.2,3.9-0.6,5.6c1.6,1.7,3.8,0,5.6-0.5c18.6-5,37.5-7,56.8-4.9c5.3,0.6,10.4,2,15.7,2.4c2,0.1,4.5,0.9,5.7-1.7
			c1.3-2.8-2-18.2-4.4-20.3c-11-9.8-20.5-20.9-27.5-34c-1.5-2.8-4-4.9-7-5.9c-6-2.4-11.8-5.2-16.8-9.7
			C565.7,286.9,561.7,281.4,556.9,275.5z M358.7,248.9c-1,0.2-1.4,0.1-1.6,0.3c-14.1,13.7-29.2,26.4-41.8,41.5
			c-1.2,1.4-1.9,3.2-1.9,5c-1,19.1-2.5,38.2-2.8,57.3c-0.5,35.3-0.7,70.6,2.9,105.7c1.2,13.2,4,26.2,8.1,38.9
			c3,8.7,9.4,14.6,17.1,19.2c-7.2-6.4-12.1-14.3-13.8-23.8c-5.8-32.6-7.5-65.3-2.3-98.1c5.4-34.4,12.4-68.5,22.2-102
			C349,278.4,353.9,263.9,358.7,248.9z M513,698.1c-2.3,0-3.1-0.2-3.6,0c-14.9,7-30.7,11.7-46.5,16.4c-1.4,0.4-2.7,1.3-3.5,2.6
			c-6.7,9.4-14.5,17.8-22.5,26c-1.7,1.6-2.9,3.6-3.5,5.9c-7.8,34.2-23.1,65-42,94.3c-14.5,22.6-24,47.8-35.6,71.9
			c-0.9,1.9-1.4,3.3,1.7,3.6c3.8,0.5,7.5,1.9,10.6,4.1c2.6,1.7,3.6,1,4.5-1.7c4.6-15.6,9-31.3,14.2-46.7c7.4-22.1,14.1-44.3,29.7-63
			c25.1-30.2,48.7-61.7,74.8-91.1C498.1,712.6,505.4,705.1,513,698.1z M547.5,403.9c2.3,9.6,7,18.5,13.7,25.8
			c8.1,9,18.5,12.1,30.3,9c13-3.4,18.8-13.3,22.2-25.2c3.6-12.9,2.2-26,1.1-39.1c-0.2-2.9-2.1-2.9-4.2-3
			c-18.3-0.1-36.5,0.5-54.5,4.1c-11.8,2.3-12.9,3.9-11.6,15.7c0.3,2.4,0.5,3.7,3.1,1.6c2.5-2,10.5-1.2,12.9,1
			c2.2,2,0.5,12.5-2.2,13.8c-1.4,0.6-2.6-0.2-3.8-0.6C552.2,406,550.5,404.3,547.5,403.9z M583.9,139.9
			c6.6,19.3,12.3,38.7,17.3,58.3c13.5,52.3,21.4,105.6,28,159.1c0.3,2.8,0.4,4.7,4.1,4.5c3.6-0.2,6.1-0.7,6.3-5
			c0.3-9.3,0.9-18.6,1-27.9c0.1-12.2,0-24.3-0.8-36.4c-1-14.6-2.2-29.2-5.8-43.3C623.9,209.7,603.5,174.9,583.9,139.9L583.9,139.9z
			 M358.6,459.4c2.5,5.8,6.3,10.4,9.7,15.3c8,11.4,18.8,15.7,32.4,14.1c9.3-1.1,15.4-6.5,15.9-14.9c0.9-14.3-6.4-25.8-13.5-37.2
			c-0.6-0.9-1.9-1.3-2.9-1.9c-10.8-6.8-22.5-5.9-34.2-3.9c-3.1,0.5-6.2,1.1-9.2,2c-5.1,1.6-4.4,5.9-4.5,9.9c0,4.4,3.3,2.6,5.4,3
			c3.8,0.6,7.4,1.7,11,3.1c1.2,0.5,2.4,1.3,2.2,2.4c-0.8,3.7-2.6,7.2-5.2,9.9C363.2,463.8,361.2,460.3,358.6,459.4z M498.3,678.8
			L498.3,678.8c0,5.7,0.1,11.3,0,17c-0.1,2.9,1,3.8,3.4,2.2c5.5-3.7,11-3.1,16.9-0.8c5.3,2.1,5.7,1.4,4.3-4.2
			c-2.1-8.4-3.1-17-4.2-25.5c-0.2-1.7-1.2-4.7,1.2-5.1c2.1-0.4,2,2.5,2.5,4.2c0.3,1.1,0.6,2.2,0.9,3.4c1.9,6.8,4.3,13.3,8.9,18.8
			c0.7,0.9,1,2.2,2.5,2.1c1.3,0,10.8-6.6,10.6-7.8c-0.8-5.5,0-11,2.2-16.1c0-0.2,0-0.3,0-0.5c-1.6-9.8-3.7-19.5-6.4-29.1
			c-0.6-2.2-1.6-2.6-3.5-1.1c-2.9,2.5-6.2,4.5-9.8,5.9c-8,2.9-14.9,0-21.8-3.8c-5.5-3-6.1-2.4-6.9,3.8c-1,7.9-3,15.5-1.2,23.7
			C499.1,670,498.3,674.5,498.3,678.8z M364.4,198.2c-11.6-0.3-21.4,1.5-31.2,3.1c-13.3,2.1-26.3,5.3-39,9.6
			c-4.5,1.6-7.9,4.3-8.8,9.3c-1.1,5.4-1.5,10.9-1,16.4c0.9,8.7,3.6,16.8,10,23.3c2.4,2.4,4.1,2.8,6.9,0.1
			c7.3-6.6,15.2-12.4,23.7-17.3c17.2-10.2,33.8-21.2,50.2-32.4c1.6-1,3-2.1,4.2-3.4c3.2-3.8,2.4-6-2.3-7.5
			C372.5,197.8,367.6,198.6,364.4,198.2z M567.9,105.5c0.3,0.8,0.6,1.6,0.9,2.4c9.5,16.6,19,33.2,28.5,49.8c0.8,1.4,2.1,2.6,3.6,3.3
			c10.6,5.5,21.2,11.1,31.8,16.6c1.2,0.6,2.6,1.8,4.1,0.4c1.3-1.3,0.8-2.7,0.3-4.2c-1.6-5.3-2-10.8-1.3-16.3
			c0.4-2.5-0.6-4.9-2.5-6.5c-7.7-7.2-15.2-14.4-23.4-20.9C597.3,119.9,583.4,112,567.9,105.5L567.9,105.5z M289.2,857.9
			c5.1-6.7,9.2-14,12.1-21.9c3.9-11,9.4-21.3,16.3-30.7c1.6-1.9,2.3-4.4,2.1-6.9c-0.8-8.1-1.4-16.2-2-24.3c-0.2-2.7,0.5-6.7-2-7.6
			c-2.4-0.8-4.8,2.4-6.7,4.5c-11.5,12.6-19.3,28.1-22.6,44.8C283.7,829.7,285.2,843.4,289.2,857.9L289.2,857.9z M642.3,774.7
			c-4-5.1-5.3-10.2-5.8-15.6c-0.1-0.8,0.4-2.1-1.1-2.1c-2.8-0.1-2.9-0.1-2.4-2.1c4.6-22.7,8.3-45.6,14.8-69.1
			c-1.3,1.8-1.9,2.8-2.6,3.6c-0.8,1.1-1.7,2.1-2.6,3c-20.5,19.4-28.8,43.2-26.3,71.2c1.1,12.7,7.2,21.7,18.7,25.6
			c-5.9-6.1-3.9-12.9-2.8-19.5c0.5-3.1,2.4-2.7,4-0.5C637.6,771.2,638.4,773.8,642.3,774.7L642.3,774.7z M202.3,959.4
			c11.8-10.3,21.2-21,30.9-31.6c1.7-1.9,1.6-4,1.4-6.1c-1.4-15.2,2.1-30.4,9.9-43.5c9.3-15.9,18-32.2,26.9-48.4
			c1.3-2.5,2.4-5.1,3.4-7.8c1-2.4,1.8-4.9,2.7-7.3c-10.1,19.8-23.1,37.4-35.8,55.3c-14.6,20.5-26.3,42.9-34.8,66.6
			C204.1,944,202.5,951.6,202.3,959.4L202.3,959.4z M632.2,699.6c-0.5-0.5-1-1.1-1.5-1.6c-7.6,8.1-15.3,16.2-22.8,24.4
			c-10,10.8-16.6,24.3-19.2,38.8c-0.4,2-1.4,4.8,2.5,4.2c6-1,12-0.5,17.9-0.5c3.1,0,4.5-0.5,4-4.2c-1.4-9.8,0.4-19.6,2.3-29.2
			C617.8,719.2,624.3,709,632.2,699.6z M228.4,303.5c-0.6,0.7-0.9,0.9-0.9,1.2c-11,34.5-18.6,69.6-15.1,106.2
			c0.7,7.9,5,19.7,8.2,23.2C217.3,390.3,224.9,347.2,228.4,303.5z M279.7,640.4c4.9-12.4,9.5-23.9,14-35.4c1.2-3.3,3.3-6.2,6-8.4
			c13.7-10.3,27.4-20.6,42.1-29.4c1.6-0.9,2.9-2.2,3.7-3.9c0.6-1.3,1.7-2.6,0.2-4s-2.8-0.4-4.1,0.3c-16.1,9.4-32,19.1-47.5,29.5
			c-2,1.2-3.4,3.2-3.9,5.5c-2.4,11.7-5.3,23.3-8.8,34.7C280.6,632.5,278.8,635.7,279.7,640.4z M782.1,98.7
			c-14.8,3.1-27.3,8.9-37.5,19c-6,5.9-5.3,5.1,1,10.2c6.8,5.5,12,3.1,17.9-0.3c5-2.8,8.6-7.5,10-13
			C775.2,109,777.3,103.6,782.1,98.7z M442.9,720.2c4.8-2.6,10.2-1.5,13.3-4.6c3.1-3.1,6.6-4.2,10.4-5.4c4.6-1.5,9.2-3,13.8-4.3
			c1.6-0.3,3-1.5,3.5-3.1c4.8-12.5,6.7-25.7,9.7-38.7c-1.2,1.8-2.3,3.7-3.3,5.6c-9.1,17-23,31-39.9,40.2
			C446.4,712.1,444.2,714.7,442.9,720.2z M592,693.5c-7.5,2.4-14.5,1.3-21.4,2.6c-7.6,1.4-14.8,5-22.7,5.2c-1.4,0-3.4-0.8-3.8,1.2
			c-0.4,1.7,1.6,2.4,2.8,3.1c9.9,6,21.4,8.7,32.9,7.8c2.2-0.2,4.6-0.6,5.6-3.3C587.5,704.9,589.6,699.7,592,693.5z M593.9,689.1
			c-3-1.3-6-1.3-6.1-4.3c-0.1-3.1,2.9-3.2,4.8-4.3c1.6-0.9,3.8-0.9,5.4-3.8c-6.2,3.2-11.3,6.2-16.9,8.1c-6.2,2.1-12.3,2-18.6,0.7
			c-6.5-1.3-11.3-4.4-14-11.8c-0.3,7.9-0.2,8.2,5.4,11.6c1.4,0.9,3,1.5,4.3,2.5c1.7,1.2,1.9,2.7,0.2,4.1c-3.2,2.7-9.4,2.5-12.4-0.5
			c-10.6,10.2-9.6,18.3,3.3,23.3c8.7,3.4,17.9,6.3,27.5,5.3c1.7-0.2,5,0.4,4.7-2.4c-0.3-2.7-3.3-1.3-4.9-1.2
			c-11.7,0.5-23.3-2.7-33.1-9.2c-2.3-1.5-3.7-3.6-2.7-6.3c0.9-2.5,3.3-3.1,5.7-3c3.9,0.1,7.5-0.8,11.2-1.8
			c7.2-1.8,14.1-4.3,21.9-3.9C584.7,692.5,589.5,691.4,593.9,689.1z M197,939.5c-11.9,21.3-26,41.1-40.9,60.5
			c1.1-0.2,2.2-0.6,3.1-1.3c13.4-8.7,22.6-22,34.9-31.9c2-1.6,1.8-3.9,1.5-6C194.5,953.7,196.4,946.8,197,939.5z M762.4,661.7
			c-5.1,9.5-8.7,19.9-21.3,22.5c-11.2,2.3-21.2-0.5-31.2-5c6.6,5.8,12.7,11.8,18.7,18.1c1,1.2,2.5,1.8,4,1.6
			c5.3-1,10.6-2.2,14.6-5.9C756.1,684.6,760.5,673.8,762.4,661.7z M634.4,205.4c0,3.4,3.2,7.1,6.5,7c3.6-0.1,5.9-2.2,5.8-6.1
			c-0.2-2.3,0.4-4.7,1.8-6.6c1.5-2,1.3-3.1-1.6-3.5c-4.2-0.5-7.2-4.4-6.6-8.6c0.1-0.8,0.3-1.5,0.6-2.2c0.7-1.4,2.4-2.4,0.5-4.2
			c-2-1.8-3.6-0.7-5.4,0.2c-2.3,1.1-2.9,3.3-3.1,5.4c-0.4,4-1.4,6.2-6,4.3c-2.3-0.9-4.5,0.3-6.6,1.5c-1.1,0.7-2,1.5-0.8,2.7
			c2.7,2.8,5.7,5.2,9.9,5C634.4,200.4,634.4,200.4,634.4,205.4z M370.4,229.9c-1.8-1-2.7,0-3.5,0.7c-2.9,2.5-5.7,5.1-8.5,7.7
			c-18.2,16-35.2,33.4-52.8,50.1c-0.9,0.8-3.1,1.8-1.2,3.5c1.4,1.3,3.3,2.6,5.2,0.4c0.7-0.7,1.4-1.5,2-2.2
			c7.2-8.7,15-16.9,23.4-24.5c10.3-9.4,20.2-19.2,30.2-29C367.2,234.7,369.4,232.9,370.4,229.9z M601,164.1
			c4.3,8.5,8.3,15.5,11.5,22.9c2,4.7,4.3,5.7,8.5,2.8c1.9-1.3,4.1-1.2,6.3-1.1c4.2,0.1,2.6-3.8,3.9-5.7c1-1.5,1.1-2.7-0.8-3.7
			C620.9,174.5,611.6,169.6,601,164.1z M616.5,415.6c1.5-3.1,3.2-6.1,4.6-9.2c4.7-10.1,7.2-21.1,7.6-32.2c0-1.3,0.8-3.2-1.5-3.6
			c-7.6-1.4-10.3,1.5-9.4,9.2C619.2,391.7,618.7,403.8,616.5,415.6z M313.9,620.9c-1.6,5.3-3.2,10.6-4.8,15.9
			c-0.9,2.8-2.6,5.8-1.7,8.7c3.1,9.7,7.9,18.7,14.4,26.6c2.7-5,2.6-5,0.9-8.6C316.2,650.1,313.6,636,313.9,620.9z M273.7,858.9
			c-5.5,13-10.6,24.8-12.4,37.7c5.5-6.4,10.6-13.1,15.7-19.7c0.7-0.9,0.9-2.2,0.6-3.3C276.4,869.2,275.2,864.8,273.7,858.9
			L273.7,858.9z M621.9,410.5c11.4-11.4,15-26,16.7-41.4c0.1-1,0-2.4-1.5-1.9c-2.5,0.8-5.7,0.7-5.9,4.8
			C630.9,385.4,627.7,398.5,621.9,410.5z M777.3,213.7c0.3-8.6,1.3-16.1-2.2-23.3c-0.7-1.5-1.4-3.6-4-2.6
			c-4.8,1.8-8.3,14.1-5.2,18.2c0.2,0.3,0.5,0.4,0.8,0.5C771.6,206.2,773.9,210,777.3,213.7z M487.2,703.4c7.2-1.5,8.2-2,8.3-5.5
			c0.1-7.6,0-15.1,0-22.7c-0.3,0-0.7,0-1,0C492.1,684.5,489.7,693.9,487.2,703.4z M436.3,739.7c5.8-7,11.6-12.2,16.2-18.8
			C440.7,722.2,439.1,724,436.3,739.7z M635.2,695.6c14-13.3,18.5-31.2,24.4-48.5C653.1,664,647,681.2,635.2,695.6z M311.5,574.1
			c5-3.1,11-4.8,14.1-10.5c0.5-1,2-1.9,0.9-3c-1.2-1.2-2.6-0.1-3.5,0.8C318.8,565.2,315,569.5,311.5,574.1z M523.6,680.7
			c0.8,4,1.6,8,2.5,12c0.3,1.1-0.5,3.1,1.6,3c1.3-0.3,2.5-0.9,3.4-1.9c1.2-1.1-0.1-2.1-0.7-3C527.8,687.6,525.6,684.2,523.6,680.7z
			 M832.9,460.7c1.5,8.3,3.5,16.2,7.7,23.4C838.1,476.3,835.5,468.5,832.9,460.7z M549.2,686.6c0.7,4.5,0.7,4.5,5.2,2.8
			C552.4,688.5,551.3,686.9,549.2,686.6z M336.9,559.3c-3.2-0.2-5.3-0.2-6.4,3C333.1,562.2,334.6,561,336.9,559.3z"/>
		<path d="M397,1025c-0.5-1.6-0.8-3.2-1.1-4.8c-0.7-7.2-2.3-9.2-9.6-10.7c-3.1-0.6-6.2-1-9.4-1.1c-2.8-0.2-3.7-1.1-2.3-3.7
			c2.3-4.6,4.6-9.2,6.9-13.8c1.4-2.8,3.5-2.5,5.9-1.6c7.1,2.7,11.9,7.3,14.2,14.8c1.8,6,2.2,5.9,7.9,3c13.3-6.9,28-10.8,42.9-11.3
			c5.4-0.2,5.6,0.3,3.3,5.2c-2.5,5.2-5.1,10.5-7.5,15.7c-1.3,2.7-3.1,3.7-6.3,3.5c-10.7-0.8-21.5-1.8-32.3,0.2
			c-0.5,0.1-1,0.3-1.5,0.5c1,1.5,2,2.8,2.9,4.2h-3c-3.5-4.5-3.5-4.5-6,0h-2c0.1-0.6,0.2-1.3,0.2-1.9c1.2-9.1,1-17.9-4.7-25.7
			c-5.5-7.6-11.2-7.2-15,0.6c-3.6,7.4-3.6,7.4,4.6,8.7c4.5,0.6,8.7,2.5,12.1,5.4c2.5,2.2,0.6,6,1.1,9c0.2,1.3,0.4,2.6,0.6,3.9
			L397,1025z M439.3,1017.8c4.2,0.8,6.6-0.9,8.1-4.8c1.6-3.8,3.3-7.6,5.3-11.3c1.9-3.5,0.4-4.1-2.8-3.6c-5.4,0.8-10.9,1.3-16.3,2.4
			c-10,2.1-19.1,6.6-28.3,11c-2.4,1.1-2.4,3-2.1,5c0.4,2.4,2.3,1.3,3.6,1.3C417.8,1017.1,428.6,1015.6,439.3,1017.8z"/>
		<path d="M687,1025c8.5-19.5,12.9-40,15.4-61c1.4-11.8,2.2-23.8,3.3-35.7c0.1-1.1-0.5-3.1,1.5-3c1.5,0.1,1,1.9,1,2.9
			c-2.1,32-4.5,63.9-16.8,94.1c-0.4,0.9-0.9,1.8-1.3,2.7H687z"/>
		<path d="M385.8,780.4c-3.2-3.7-3.9-8.4-5.4-12.6c-4.5-12.9-10.6-25.1-16.6-37.3c-0.4-0.9-0.8-1.8-1.3-2.7c-0.5-1-1.4-2.4-0.2-3.1
			c1.7-1,2.3,0.8,2.8,1.9c6.3,13,13.2,25.7,17.4,39.7C383.9,770.7,385.9,775.3,385.8,780.4z"/>
		<path d="M243.3,450.2c-0.3,21.1,1.6,44.3,3.1,67.5c0.1,2,0.7,3.9,0.8,5.9c0.1,1.1,0.3,2.5-1.1,3c-1.5,0.5-1.9-0.9-2.6-1.8
			c-5.3-7-7.4-15.2-7.8-23.8c-0.8-14.6-1.6-29.3,0-43.9c1.2-10.7,2.8-21.4,4.3-32c0.2-1.2,0.3-3.1,2-3c1.9,0.1,1.3,2.1,1.3,3.2
			C243.3,433,243.3,440.5,243.3,450.2z M243.1,518.9c-1.3-25.8-2.7-51.6-2.6-77.4C237.2,467.5,234.4,493.4,243.1,518.9z"/>
		<path d="M290.5,773.5c-0.4-1.3-0.8-2-0.7-2.5c8.2-32,3.8-63.8-2.3-95.6C297.6,685.9,299.6,758.1,290.5,773.5z"/>
		<path d="M569.5,75.7c16.2-1.7,29.8,7.3,43.1,17.1c9.4,6.9,17.5,15.4,26.2,23.1c0.9,0.8,2.7,1.8,1.4,3.1c-1.3,1.4-2.3-0.4-3.2-1.2
			c-7.1-7-14.4-13.8-22.1-20.2C599.2,84.7,582.1,76,561,78.3c-1.6,0.2-4.8,1-4.8-0.9c-0.1-2.7,3.1-1.4,4.8-1.6
			C563.3,75.5,565.7,75.7,569.5,75.7z"/>
		<path d="M521.7,770.1c0.6-10.8-5.9-14.8-14.9-17c-6.3-1.6-12.2-4.3-17.6-7.9c-2.9-1.9-5.7-4.3-6.3-8.3c0.6-0.1,1.1-0.3,1.2-0.2
			c7.2,9.8,18.5,12.2,29,16c6.7,2.4,10.3,7,10.7,14C524,767.8,524.2,769,521.7,770.1z"/>
		<path d="M704.6,436c-3.6,2.9-7.6,4.9-12.2,5.3c-6.2,0.5-11.9,1.5-15.5,7.2c-0.4,0.7-1.1,1.5-2,0.8c-1.2-0.9-0.2-1.8,0.3-2.6
			c2.4-4.1,6-6.8,10.7-7.3c5.8-0.6,11.5-1.4,16.6-4.5C702.9,434.7,703.7,434.8,704.6,436z"/>
		<path d="M710.7,415c-3.6,5.9-8.2,11.1-13.5,15.4c-2.3,1.8-12.5-0.2-14.6-2.5c-0.3-0.3-0.5-0.8-0.5-1.3c0.2-0.7,0.9-0.9,1.6-0.7
			c0.5,0.1,0.9,0.3,1.4,0.5c7.6,4.3,13,1.5,17.7-5C704.8,418.8,707,416,710.7,415z"/>
		<path d="M709.3,429.4c4.7-3.8,7.8-9,11.2-13.9c0.5-0.7,1.2-1.3,2.1-0.6c0.7,0.5,0.4,1.2,0,1.8c-3.1,5-6.2,10.1-11.3,13.5
			C710.8,430.5,710.1,430.4,709.3,429.4z"/>
		<path d="M299,522.4c-10.5-13.4-14.9-28.7-14.4-45.7c0.2-7-0.5-14-0.7-21c0-1.9-0.6-4.1,1.6-5.5c2.2,1.5,1.5,3.9,1.6,5.9
			c0.7,11.3-0.3,22.6,1.2,33.9c2.1,15.6,9.5,28.1,20.9,38.6c1.9,1.7,5.9,3.6,4.5,5.6c-1.6,2.3-4.6-1-6.7-2.2
			c-17.5-10.2-26.2-26.6-32.2-45.2c-5.3-16.3-8.4-33.1-10.8-50c-0.2-1.3-0.9-3.6,1-3.8c2.2-0.2,1.5,2.2,1.6,3.4
			c2.6,17.7,5.9,35.3,11.8,52.3C282.7,501.5,288.4,513.4,299,522.4z"/>
		<path d="M424.2,585.5c-2.5-5-2.5-4.6-12.9-5.4c-5.3-0.4-9.2,2.7-14.4,4.5c1.1-2.8,3.6-4.9,6.6-5.5c7.1-1.8,14.4-3.2,20.9,1.6
			c1.8,1.3,3.8,3,1.6,5.8c-2.2,2.8-3.9,1.5-5.7-0.3c-1.7-1.6-3.6-1.7-6-1.1c-6.7,1.9-13.1,4.8-19,8.5c-1.6,1-3.2,2.3-5.3,2.5
			c-0.8-2.1,0.7-2.5,1.7-3.2c6.6-4.3,14-6.9,21.1-10C417.2,580.8,420.5,582.7,424.2,585.5z"/>
		<path d="M396,575.8c-6.8-4.4-11.1-11-18.6-12.8c-7.3-1.7-14.3-0.6-22.3,1.1C365.4,554.4,391.4,561.9,396,575.8z"/>
		<path d="M671.5,141.3c2.9,4.2,2.4,9.1,3.7,13.6c0.6,2.1,0.6,4.4,1.6,6.2c3.5,6.1,2.4,12.1,0.2,18.2c-3.6,9.8-0.2,15.6,10,18.4
			c2.3,0.6,7-0.3,4.7,5.1c-0.5,1.1,1.1,0.7,1.8,0.9c6.5,2.2,13.4,2,20.2,3.4c-0.6,2.5-2.5,2.1-4,1.9c-6.4-0.9-12.8-1.9-19.2-2.9
			c-1.2-0.2-2.8-0.8-2.6-1.9c1.1-4.4-2.5-4.2-4.8-5.2c-9.6-4.2-12.5-10.6-8.8-20.3c2.2-5.8,2.8-11.2,0.1-17.3
			C671.7,155.3,671.3,148.3,671.5,141.3z"/>
		<path d="M682.4,184.5c4.4-4,10.7-5.3,12.2-11.5c1.3-5.2,2.8-10.3,4.4-16.4C703.1,168.6,693,185.5,682.4,184.5z"/>
		<path d="M728.4,177.6c-2.8,9.1-14.1,12-23.3,6.3C713.6,184.6,722.5,186.7,728.4,177.6z"/>
		<path d="M713.6,165.7c-0.5,6.9-8.2,16.2-13.8,17.3c-0.6,0.1-1.3,0-1.8-0.3c-0.4-0.4-0.5-1-0.1-1.4c0.1-0.1,0.2-0.2,0.4-0.3
			C705.3,177.9,709.6,172,713.6,165.7z"/>
		<path d="M299.8,231.5c1.2-4.3,3.7-8.2,7.3-11c12.1-9.5,26.3-13.9,41.3-15.8c5.4-0.7,10.9-0.8,16.4-1c1.6-0.1,3.6-0.5,4.2,1.7
			c0.5,2-1.4,2.8-2.6,3.8c-0.8,0.6-1.6,1.2-2.5,1.7c-17.7,9.8-35.7,19.2-54.8,26.1C303.6,238.9,299.5,236.7,299.8,231.5z
			 M363.1,207.5c-12.8-0.7-23.7,1.7-34.6,4.9c-4.6,1.4-7.5,3.9-8.3,8.8c-0.4,2.7-3.3,5.9-1,7.7c1.7,1.4,4.8-1.3,7.1-2.5
			C338.3,220.3,350.8,215.3,363.1,207.5z M318.2,217.3c-6.2,3.2-11.5,6.3-14.3,12.4c-0.8,1.7-1.5,3.6,0.8,4.7
			c2,0.9,9.7-2.8,10.4-5.1C316.2,225.6,317.1,221.7,318.2,217.3L318.2,217.3z"/>
	</g>
</g>
<g id="图层_1_1_">
	<g>
		<path d="M304,1025h2c0.2-0.3,0.3-0.7,0.5-1h-2.4C304.1,1024.3,304,1024.7,304,1025z"/>
		<path d="M312,1025h4c0.1-0.3,0.2-0.7,0.4-1h-3.8C312.4,1024.3,312.2,1024.7,312,1025z"/>
		<path d="M131,1025h7c0.3-0.3,0.5-0.7,0.8-1h-7.2C131.4,1024.3,131.2,1024.7,131,1025z"/>
		<path d="M648,1025h2c0.1-0.3,0.2-0.7,0.3-1H648C648,1024.3,648,1024.6,648,1025z"/>
		<path d="M544,1025h2c0.2-0.3,0.3-0.7,0.5-1h-2.2C544.2,1024.3,544.1,1024.7,544,1025z"/>
		<path d="M678,1025h4c-0.1-0.4-0.2-0.7-0.4-1h-5.1C677,1024.3,677.5,1024.7,678,1025z"/>
		<path d="M871,1025h3c0.1-0.3,0.2-0.7,0.3-1h-3C871.2,1024.3,871.1,1024.7,871,1025z"/>
		<path d="M408,1025h3c-0.2-0.3-0.5-0.7-0.7-1h-3.1C407.5,1024.3,407.7,1024.6,408,1025z"/>
		<path d="M400,1025h2c0.2-0.4,0.4-0.7,0.6-1h-2.4C400.1,1024.3,400,1024.7,400,1025z"/>
		<path d="M397,1025h2c-0.1-0.3-0.1-0.7-0.2-1h-2.1C396.8,1024.3,396.9,1024.7,397,1025z"/>
		<path d="M687,1025h3c0.2-0.3,0.3-0.7,0.5-1h-3.1C687.3,1024.3,687.1,1024.7,687,1025z"/>
		<path fill="#3D3533" d="M348.8,553.5c5.3-5.6,11.4-10.3,18.8-12.7c3.4-1.1,3.1-2.3,1.7-4.9c-6.3-11.4-12.7-22.6-19.8-33.5
			c-7.1-10.6-15.5-20.3-25-28.8c0.3,3,0.5,5,0.8,6.9c1.6,9.3,2.6,18.8,8.5,26.8c3.7,4.8,8.3,8.6,13,12.4c0.9,0.8,2.9,1.3,2.1,2.9
			c-0.9,1.9-2.7,0.8-4,0.4c-5.3-1.5-10.2-4.3-14.1-8.1c-2.3-2.3-4.3-4.8-6.4-7.2c-0.9,2-1.1,4.2-0.4,6.3c2.2,6.9,6.4,12.9,12,17.4
			c1,0.8,2.7,1.7,1.9,3.1c-1,1.7-2.4,0.2-3.4-0.4c-9.9-6.9-18.9-14.6-23.9-26.1c-12.1-28.1-20.4-57.6-24.9-87.8
			c-2.8-18.8-5.5-37.7-8.3-56.6c-0.3-2.1-1.7-5.5,0.3-5.7c2.7-0.3,2.2,3.5,2.5,5.5c3.1,24.3,6.8,48.6,11.2,72.7
			c4.7,25.2,12.3,49.7,22.9,73c2.2,4.9,5,9.4,10.1,13c-2-3.9-3.3-8.2-4-12.5c-0.6-5.3-1.5-10.5-2.8-15.6c-4.3-15.5-7-31.4-8.1-47.5
			c-0.7-9.3-0.5-18.6-0.9-27.9c-1.9-38.6-1.2-77.3,2-115.7c0.2-2.8,0.6-4.7-3.6-5.8c-9.5-2.4-9.8-4.8-2.7-11.7
			c2.3-2.3,6-3.8,6.3-7.4c0.5-7-0.3-14.1,1.4-21.7c-4.8,2.4-7.4,6-10.9,8.4c-1.7,1.2-3.2,2.3-5.4,0.7c-4.1-3.2-8.2-6.5-10.3-11.4
			c-4.7-10.7-5.7-22.7-3-34.1c1.3-5.6,4.2-9.3,9.6-11.1c5.7-1.9,11.3-4.9,17.1-5.3c11.7-0.8,15.9-7.4,19.1-17.9
			c7.5-24.8,19.6-47.2,37.6-66.2c17.4-18.3,38.1-32.1,60.1-44.1c17.1-9.4,35.6-14.7,54.8-17.2c12.9-1.8,26-1.9,38.9-0.3
			c-24.4-12.4-60.9-17.7-86.5-11.9c-45.7,10.3-82.7,34.8-112.5,70.4c-12.6,15-21,32.7-29.8,50.1c-19.4,37.8-30.9,79.1-34,121.5
			c-2.3,31.8-0.8,63.9,0.3,95.9c1.1,30.1,2.5,60.1,4.1,90.2c1,22.5,3.8,45,8.2,67.1c3.3,16,9.1,31.3,17.1,45.5
			c0.6,1.2,0.8,3.7,3.4,1.9c4.3-3.1,9.1-5.4,12.7-9.6c4.9-5.6,10.5-10.8,15.2-16.6c5.4-6.6,12.6-5.6,19.7-5.8
			C341.4,556.2,345.7,556.8,348.8,553.5z M313.6,534.2c-1.6,2.3-4.6-1-6.7-2.2c-17.5-10.2-26.2-26.6-32.2-45.2
			c-5.3-16.3-8.4-33.1-10.8-50c-0.2-1.3-0.9-3.6,1-3.8c2.2-0.2,1.5,2.2,1.6,3.4c2.6,17.7,5.9,35.3,11.8,52.3
			c4.4,12.7,10.1,24.6,20.7,33.6c-10.5-13.4-14.9-28.7-14.4-45.7c0.2-7-0.5-14-0.7-21c0-1.9-0.6-4.1,1.6-5.5
			c2.2,1.5,1.5,3.9,1.6,5.9c0.7,11.3-0.3,22.6,1.2,33.9c2.1,15.6,9.5,28.1,20.9,38.6C311,530.3,315,532.2,313.6,534.2z"/>
		<path fill="#FFE6D2" d="M323.1,561.4c-4.3,3.8-8.1,8.1-11.5,12.7c5-3.1,11-4.8,14.1-10.5c0.5-1,2-1.9,0.9-3
			C325.4,559.4,324,560.5,323.1,561.4z"/>
		<path fill="#FFE6D2" d="M330.5,562.4c2.6-0.1,4.1-1.4,6.4-3C333.7,559.1,331.6,559.2,330.5,562.4z"/>
		<path fill="#3D3533" d="M461,64.2c-66.1,23-115.9,62.6-134.2,134.8c4.2-0.6,8.1-1.3,12-1.8c10.5-1.4,21.1-3.7,31.7-2
			c4.4,0.7,6.2-0.5,8-4.2c10-21.2,20.1-42.4,32.3-62.4C425,105.2,438.8,81.4,461,64.2z"/>
		<path fill="#FFE6D2" d="M671.8,463.5c0.4-2.7,2.2-3.6,4.9-3.9c19.1-2,35-9.8,46.6-25.6c1.6-1.9,2.4-4.3,2.3-6.8
			c-0.8-15-1.4-29.9-2.2-44.9c-0.2-4.3-0.9-8.6-1.3-12.9c-0.5,4.1-1.1,8-5,10.3c-0.7,0.5-1.5,0.9-2.2,0.2c-0.5-0.4-0.5-1.1-0.1-1.6
			c0-0.1,0.1-0.1,0.2-0.2c3.9-2.2,2.8-6.3,4-9.5c1.4-3.6-0.4-4.9-2.2-6.7c-2.2-2.1-4-0.3-5.7,0.9c-8.7,5.9-15.1,14-21.5,22.1
			c-1.4,1.8-0.6,3,0.5,4.4c4.2,4.9,3.8,10,0.5,15.2c-1.7,2.7-3.2,5.6-5.4,7.8c-4.6,4.6-6.4,9.6-4.2,15.8c0.5,0.9,0.2,2.1-0.7,2.6
			c-0.9,0.1-1.7-0.5-1.8-1.4c-1.6-5.4-2.3-10.7,1.6-15.6c2.3-2.9,4.5-5.8,6.6-8.8c3.4-5,4.5-10-0.1-15c-1.8-2-2.1-4.3-0.3-6.3
			c6.4-7.2,11.7-15.4,19.7-21.2c4.9-3.6,9.5-8,15.4-0.2c0-3.9,0.1-6.6,0-9.2c-0.1-1.2-0.4-2.3-0.7-3.4c-1-4.8-4.8-7.2-9.5-5.8
			c-1.6,0.5-3.1,1.2-4.5,2.1c-13.7,8.5-24.5,19.4-28.9,35.5c-0.3,1.1-0.2,3-1.8,3.2c-1.9,0.2-1.3-2-2.2-2.8
			c-0.3-0.5-0.9-0.6-1.3-0.3l-0.1,0.1c0,1.2-0.1,2.5,0,3.8c1.1,19,1.7,37.9-0.1,56.9c-1.8,18.8-6,36.7-16.8,52.6
			c-4.9,7.3-14.1,9.9-21.8,5.8c-1.4-0.7-3.8-1.2-3.3-3.2s2.8-1.5,4.3-1.3c7.8,1.2,12.6-2.7,16.3-8.9c1.8-2.6,3-5.6,3.6-8.7
			c2-12.1,3.7-24.3,4.4-36.6c1.4-23.4,1.5-46.8-1.5-70.1c-1.3-10.5-7.6-19-11.3-28.7c-0.2,2.5,0,5.1,0.5,7.5
			c2.6,17.8,3.7,35.6,0.8,53.6c-2.7,16.7-10,30.5-21.4,42.4c-4,4.5-10,6.6-15.8,5.5c-1.4-0.2-3.4-0.5-3.5-2.2
			c-0.1-1.9,2-1.9,3.3-2.2c5.6-1.3,10.2-4.1,13.1-9.2c7.2-12.7,8.5-27,10.9-41c-7.6,13.2-8.1,14.2-15.8,19.6
			c-2.7,1.9-4.9,4.4-6.3,7.3c-8.1,15.9-27.6,22.2-43.5,14.1c-3.4-1.7-6.5-4.1-9.1-6.9c-5.7-6.3-10-13.8-12.5-21.9
			c-0.8-2.6-4-5.6-0.7-8.1c2.7-2.1,5.2,0.9,7.7,1.8c1.4,0.5,3.4,2.2,3.8-0.7c0.4-2.5,3.5-5.8,0.1-7.5c-3.1-1.6-7.2-3.2-10.4,0.8
			c-2.3,2.9-3.7,1.9-4.7-1.2c-1.2-3.4-1-6.9-0.8-10.4c0.3-4.1-1.1-4.5-4.5-2.8c-9,4.7-17.2,10.9-24.1,18.4c-2.8,2.9-5.4,5.9-8.1,8.9
			c-2.7,2.9-3,0.6-3.3-1.7c-1.9,1.5-2.6,4.4-6.5,4.4c6.9-14.1,14-27,26.8-35.5c3.1-1.9,5.2-5.2,5.5-8.8c2.7-20.8,5.5-41.6,4.1-62.6
			c-0.3-5-0.9-10-1.4-15c-1.3,7-1.9,14-3,20.8c-3.5,21.9-8.5,43.5-19.3,63.1c-7.6,13.8-18.1,24.7-34.5,28c-2,0.4-4.1,1-6.1-0.3
			c1-2.4,3.1-2.9,4.7-4c4.1-2.9,7.3-6.4,8.5-11.4c1.5-6.7,1.7-13.6,0.6-20.3c-1.8-13.6-5.8-26.9-6.6-40.8c-0.3-4.5-0.9-9-1.3-13.5
			c-2.5,5.5-4.4,11.2-5.8,17.1c-7.3,36-26.8,64.4-54.2,87.9c-1,0.9-2,3-3.6,1.6c-1.3-1,0-2.5,0.7-3.5c6.1-9,10.3-19,14.9-28.8
			c14.8-31.1,21.6-64.2,25.3-98.1c2.1-19,2.2-38.2,2.5-57.4c0.1-4.3,0.4-8.5,0.6-12.8c-4,8.1-7.4,16.5-10.3,25.1
			c-15.2,44.1-36.7,85.8-63.9,123.7c-7.9,11.2-16.5,21.8-25.8,31.8c-0.9,0.9-1.8,2.6-3.2,1.7c-1.2-0.7-0.7-2.4-0.1-3.7
			c0.5-1.2,1.1-2.4,1.6-3.6c4.5-9.5,8.8-19,13.5-28.4c14.7-29.9,21.3-61.6,21.7-94.8c-0.5,1-1,2.1-1.4,3.1
			c-14.7,36.2-29.4,72.4-44.1,108.5c-6,14.8-11.9,29.6-17.8,44.4c-0.5,1.2-2,2.8-0.4,4c1.2,0.9,2.9,0.5,4.3-0.1
			c2.4-1.1,4.8-2.3,7.1-3.5c2.7-1.4,3.7-2.9,0.2-4.6c-1.1-0.5-3-1.1-2.6-2.6c0.6-2,2.7-1.1,3.9-0.7c7,2.3,13.6,1,20.4-0.8
			c16.1-4.1,31.2-1.4,45.4,7.5c6.3,3.9,11.6,10.3,20.1,10.1c0.9-0.1,1.7,0.5,1.9,1.4c0,0.1,0,0.3,0,0.4c-0.1,1.2-1.2,1.6-2.2,1.6
			c-3.2,0.1-6.3,0.3-9.5,0.2c-3.8-0.2-3.8,1-2.2,4c3.9,7.3,7.4,14.9,9,23.1c2.7,13.8-4.6,24-18.4,26.1c-6.4,1-13,0.2-19.1-2.2
			c-2.5-0.9-5.5-0.8-7.3-2.9c-4.6-5.7-9-11.4-13.3-17.4c-2.3-3.5-4.4-7.1-6.3-10.8c-0.9-1.6-2.2-3.6-0.5-5c1.6-1.2,2.8,1,4.1,2
			c1.1,1,2.3,1.9,3.5,2.7c4.2,2,3.7-2.5,5.2-4.2c1.3-1.3,1.4-3-0.7-3.4c-3.9-0.8-7.5-3.1-11.6-2c-3.7,0.9-4.9-1.2-5.1-4.3
			c-0.2-2.9,0-5.9,0-9.3c-6.1,2.7-12,4.9-17.3,8.4c-6.3,4.2-12.2,8.5-9.1,17.5c0.1,0.7,0.2,1.3,0,2c-0.4,3.5,1.1,6,3.6,8.3
			c6.1,5.7,11.7,11.8,16.9,18.4c11.1,14,19.8,29.6,28.3,45.2c0.9,1.7,1.4,4,3.9,4.2c4.9,0.3,9.7,1.6,14.8-0.2
			c8.7-3.2,17.6-2.8,26.4,0.3c1.2,0.6,2.5,0.8,3.9,0.6c8.2-1.8,15.8,0.2,23,4.2c2.3,1.3,4.8,2.2,7.4,2.4c6.1,0.3,11.7,3.4,15.2,8.4
			c2.2,3.1,4.3,6.4,6.2,9.7c2.3,4.2,5.6,5.6,10.2,5.7c10.8,0.2,20.6-3.2,30.1-7.8c1.2-0.6,3-2.2,3.9-0.4c0.9,1.7-1.4,2.3-2.6,3
			c-8.8,5.1-18.5,7.4-28.5,8.6c-2.8,0.3-3.5,0.8-2,3.5c2.6,4.6,5.6,9.1,7.3,14.1c4.1,12.3,7.3,24.9,8,38c0.1,1.3-0.1,3,1.3,3.6
			c5.8,2.3,11,6.3,17.3,7.4c8.6,1.6,14.4-3.6,20.7-8c27.8-19.7,54.4-40.7,78.4-64.9c16.1-16.2,30.2-33.8,38.7-55.3
			C661.9,495.8,669.4,480.5,671.8,463.5z M720.5,415.5c0.5-0.7,1.2-1.3,2.1-0.6c0.7,0.5,0.4,1.2,0,1.8c-3.1,5-6.2,10.1-11.3,13.5
			c-0.5,0.4-1.3,0.2-2.1-0.8C714,425.6,717,420.4,720.5,415.5z M683.8,426c0.5,0.1,0.9,0.3,1.4,0.5c7.6,4.3,13,1.5,17.7-5
			c1.9-2.7,4.1-5.5,7.9-6.5c-3.6,5.9-8.2,11.1-13.5,15.4c-2.3,1.8-12.5-0.2-14.6-2.5c-0.3-0.3-0.5-0.8-0.5-1.3
			C682.4,425.9,683.1,425.8,683.8,426z M675.1,446.8c2.4-4.1,6-6.8,10.7-7.3c5.8-0.6,11.5-1.4,16.6-4.5c0.6-0.3,1.3-0.2,2.2,1
			c-3.6,2.9-7.6,4.9-12.2,5.3c-6.2,0.5-11.9,1.5-15.5,7.2c-0.4,0.7-1.1,1.5-2,0.8C673.6,448.5,674.6,447.5,675.1,446.8z"/>
		<path d="M554.4,689.5c-2-1-3.1-2.6-5.2-2.8C549.9,691.1,549.9,691.1,554.4,689.5z"/>
		<path fill="#FFE6D2" d="M625.3,589.7c7.8-11.6,14.6-23.8,21.4-36c4.2-7.5,4.2-15.1,3.7-24.2c-2.4,3.7-4,6.4-5.8,9
			c-19,26.9-43.5,48.4-68.8,69.1c-9.1,7.5-18.9,14.1-28.3,21.3c-1.9,1.5-4.8,2.4-3.7,6.1c3.4,12,6,24.1,7.8,36.4
			c1.1,7.1,5.6,9.5,11.6,11.2c11.4,3.1,20.7-2.1,30.1-7.2c2.5-1.4,3.4-3.2,3.3-6c-0.1-8.5,0.7-16.9,2.6-25.2
			C603.7,624.1,613.9,606.5,625.3,589.7z"/>
		<path fill="#BAE2EC" d="M640.9,185.6c0.7-1.4,2.4-2.4,0.5-4.2c-2-1.8-3.6-0.7-5.4,0.2c-2.3,1.1-2.9,3.3-3.1,5.4
			c-0.4,4-1.4,6.2-6,4.3c-2.3-0.9-4.5,0.3-6.6,1.5c-1.1,0.7-2,1.5-0.8,2.7c2.7,2.8,5.7,5.2,9.9,5c5.1-0.2,5.1-0.3,5,4.8
			c0,3.4,3.2,7.1,6.5,7c3.6-0.1,5.9-2.2,5.8-6.1c-0.2-2.3,0.4-4.7,1.8-6.6c1.5-2,1.3-3.1-1.6-3.5c-4.2-0.5-7.2-4.4-6.6-8.6
			C640.3,187,640.5,186.2,640.9,185.6z"/>
		<path fill="#56850C" d="M364.4,198.2c-11.6-0.3-21.4,1.5-31.2,3.1c-13.3,2.1-26.3,5.3-39,9.6c-4.5,1.6-7.9,4.3-8.8,9.3
			c-1.1,5.4-1.5,10.9-1,16.4c0.9,8.7,3.6,16.8,10,23.3c2.4,2.4,4.1,2.8,6.9,0.1c7.3-6.6,15.2-12.4,23.7-17.3
			c17.2-10.2,33.8-21.2,50.2-32.4c1.6-1,3-2.1,4.2-3.4c3.2-3.8,2.4-6-2.3-7.5C372.5,197.8,367.6,198.6,364.4,198.2z M366.3,209.2
			c-0.8,0.6-1.6,1.2-2.5,1.7c-17.7,9.8-35.7,19.2-54.8,26.1c-5.5,2-9.5-0.2-9.3-5.4c1.2-4.3,3.7-8.2,7.3-11
			c12.1-9.5,26.3-13.9,41.3-15.8c5.4-0.7,10.9-0.8,16.4-1c1.6-0.1,3.6-0.5,4.2,1.7C369.5,207.4,367.6,208.2,366.3,209.2z"/>
		<path fill="#3D3533" d="M328.5,212.4c-4.6,1.4-7.5,3.9-8.3,8.8c-0.4,2.7-3.3,5.9-1,7.7c1.7,1.4,4.8-1.3,7.1-2.5
			c11.9-6.1,24.5-11.1,36.8-19C350.4,206.8,339.4,209.2,328.5,212.4z"/>
		<path fill="#5B3C2F" d="M633.4,150.9c-7.7-7.2-15.2-14.4-23.4-20.9c-12.6-10.1-26.6-17.9-42-24.5l0,0c0.3,0.8,0.6,1.6,0.9,2.4
			c9.5,16.6,19,33.2,28.5,49.8c0.8,1.4,2.1,2.6,3.6,3.3c10.6,5.5,21.2,11.1,31.8,16.6c1.2,0.6,2.6,1.8,4.1,0.4
			c1.3-1.3,0.8-2.7,0.3-4.2c-1.6-5.3-2-10.8-1.3-16.3C636.3,155,635.3,152.5,633.4,150.9z"/>
		<path fill="#5E361C" d="M365.8,461c-2.6,2.7-4.6-0.7-7.1-1.6c2.5,5.8,6.3,10.4,9.7,15.3c8,11.4,18.8,15.7,32.4,14.1
			c9.3-1.1,15.4-6.5,15.9-14.9c0.9-14.3-6.4-25.8-13.5-37.2c-0.6-0.9-1.9-1.3-2.9-1.9c-10.8-6.8-22.5-5.9-34.2-3.9
			c-3.1,0.5-6.2,1.1-9.2,2c-5.1,1.6-4.4,5.9-4.5,9.9c0,4.4,3.3,2.6,5.4,3c3.8,0.6,7.4,1.7,11,3.1c1.2,0.5,2.4,1.3,2.2,2.4
			C370.2,454.8,368.4,458.3,365.8,461z"/>
		<path fill="#523726" d="M440.2,353.4c-5.7,19.2-14.5,37.2-23.7,56.2c6.9-4.5,11.1-10.3,15.8-15.7c12.5-14.4,22.7-29.9,27.6-48.6
			c3.1-11.7,6.7-23.3,9.9-35c1.2-4.1,2.7-8.2,2.9-12.6c0.9-24.9,1.8-49.8,3.8-74.7c2.1-26.2,6.8-51.9,11.7-77.6
			c1.5-7.8,3.1-15.7,4.6-23.5c-0.9,0.3-1.6,0.9-2,1.8c-11.9,26.7-23.2,53.7-33.4,81.1c-0.7,1.9-1,3.8-1.1,5.8
			c-0.9,27.3-0.9,54.6-3.9,81.8C450.1,313,446,333.4,440.2,353.4z"/>
		<path fill="#5B3C2F" d="M534.9,690.8c1.3,0,10.8-6.6,10.6-7.8c-0.8-5.5,0-11,2.2-16.1c0-0.2,0-0.3,0-0.5
			c-1.6-9.8-3.7-19.5-6.4-29.1c-0.6-2.2-1.6-2.6-3.5-1.1c-2.9,2.5-6.2,4.5-9.8,5.9c-8,2.9-14.9,0-21.8-3.8c-5.5-3-6.1-2.4-6.9,3.8
			c-1,7.9-3,15.5-1.2,23.7c0.9,4.1,0.2,8.6,0.2,13l0,0c0,5.7,0.1,11.3,0,17c-0.1,2.9,1,3.8,3.4,2.2c5.5-3.7,11-3.1,16.9-0.8
			c5.3,2.1,5.7,1.4,4.3-4.2c-2.1-8.4-3.1-17-4.2-25.5c-0.2-1.7-1.2-4.7,1.2-5.1c2.1-0.4,2,2.5,2.5,4.2c0.3,1.1,0.6,2.2,0.9,3.4
			c1.9,6.8,4.3,13.3,8.9,18.8C533.1,689.5,533.4,690.8,534.9,690.8z"/>
		<path fill="#56850C" d="M370.4,229.9c-1.8-1-2.7,0-3.5,0.7c-2.9,2.5-5.7,5.1-8.5,7.7c-18.2,16-35.2,33.4-52.8,50.1
			c-0.9,0.8-3.1,1.8-1.2,3.5c1.4,1.3,3.3,2.6,5.2,0.4c0.7-0.7,1.4-1.5,2-2.2c7.2-8.7,15-16.9,23.4-24.5c10.3-9.4,20.2-19.2,30.2-29
			C367.2,234.7,369.4,232.9,370.4,229.9z"/>
		<path fill="#3D3533" d="M315.3,290.8c-1.2,1.4-1.9,3.2-1.9,5c-1,19.1-2.5,38.2-2.8,57.3c-0.5,35.3-0.7,70.6,2.9,105.7
			c1.2,13.2,4,26.2,8.1,38.9c3,8.7,9.4,14.6,17.1,19.2c-7.2-6.4-12.1-14.3-13.8-23.8c-5.8-32.6-7.5-65.3-2.3-98.1
			c5.4-34.4,12.4-68.5,22.2-102c4.3-14.6,9.2-29,14-44c-1,0.2-1.4,0.1-1.6,0.3C343,262.9,327.9,275.6,315.3,290.8z"/>
		<path fill="#523726" d="M303.9,229.8c-0.8,1.7-1.5,3.6,0.8,4.7c2,0.9,9.7-2.8,10.4-5.1c1.1-3.7,2-7.5,3.1-12l0,0
			C312,220.5,306.7,223.7,303.9,229.8z"/>
		<path fill="#FEFDE6" d="M439.3,1017.8c4.2,0.8,6.6-0.9,8.1-4.8c1.6-3.8,3.3-7.6,5.3-11.3c1.9-3.5,0.4-4.1-2.8-3.6
			c-5.4,0.8-10.9,1.3-16.3,2.4c-10,2.1-19.1,6.6-28.3,11c-2.4,1.1-2.4,3-2.1,5c0.4,2.4,2.3,1.3,3.6,1.3
			C417.8,1017.1,428.6,1015.6,439.3,1017.8z"/>
		<path fill="#FEFDE6" d="M566.5,984c0.9-1.4,1.8-2.8,0.1-4.4c-1.5-1.4-2.7-1-3.9-0.1s-2.8,1.4-3.7,0.9c-6.4-3.4-8.6,2-11.8,5.3
			c-1.6,1.7-3.1,3.5-4.8,5c-10.2,9.1-21.9,12.5-35.5,9.7c-11.9-2.4-17.7-10-20.7-20.9c-1.4-4.9-3.7-5.4-8.4-3
			c-9.9,5-19.9,10.1-29.9,15c-7.5,3.7-15.3,6.6-23.9,5.8c-11.3-1-21.3-4.3-25.8-16.2c-2-5.6-3.4-11.5-4-17.4c-0.5-4-1.6-4.1-4.9-2.6
			c-10,4.8-20.5,6.9-31.5,4c-3.3-0.9-4.9,0.3-6.6,2.7c-5.3,7.6-11.1,15-16.1,22.8c-6.8,10.8-14.3,21.3-18.6,33.4h80.4
			c-0.3-1.3-0.6-2.5-0.8-3.8c-0.7-7.2-2.3-9.2-9.6-10.7c-3.1-0.6-6.2-1-9.4-1.1c-2.8-0.2-3.7-1.1-2.3-3.7c2.3-4.6,4.6-9.2,6.9-13.8
			c1.4-2.8,3.5-2.5,5.9-1.6c7.1,2.7,11.9,7.3,14.2,14.8c1.8,6,2.2,5.9,7.9,3c13.3-6.9,28-10.8,42.9-11.3c5.4-0.2,5.6,0.3,3.3,5.2
			c-2.5,5.2-5.1,10.5-7.5,15.7c-1.3,2.7-3.1,3.7-6.3,3.5c-10.7-0.8-21.5-1.8-32.3,0.2c-0.5,0.1-1,0.3-1.5,0.5
			c0.8,1.1,1.5,2.2,2.2,3.2h134c1.4-4.3,3.8-8,5.8-12C554.9,1002.3,560.7,993.1,566.5,984z"/>
		<path fill="#FF6E23" d="M558.1,960.4c-39.1-0.2-78.1,1.5-116.1,12.3c-1.7,0.7-3.6,0.4-5.1-0.6c-19.8-14.3-40.2-27.8-60.8-40.9
			c-4.6-2.9-9.1-6.1-14.3-8c-6.2-2.3-8.7-1.3-11.4,4.5c-2.8,6.2-5.6,12.4-8.4,18.6c-0.7,1.5-1.6,3-0.5,4.7
			c3.8,5.6,8.2,10.4,15.3,11.8c11.4,2.3,22.1,0.6,32.5-4.2c6.3-2.9,6.2-2.8,7,3.9c0.7,5.6,1.9,11.1,3.6,16.5
			c1.7,5.9,6,10.6,11.6,12.9c8.8,3.9,18.8,4,27.7,0.4c12.1-4.7,23.6-10.8,35.1-16.8c9.1-4.8,11.5-3.8,14.9,5.9
			c1.9,5.4,3.9,10.7,9.4,13.6c10.4,5.3,26.8,6.3,38.2-2.8c5.2-4.1,9.9-9,13.7-14.4c1-1.4,2-4.3,4.5-1.7c2.7,2.8,5.3,2.2,7.9,0.1
			c2.1-1.8,3.6-1.6,5.1,1c1.4,2.3,3.6,3.2,6.4,1.4c3.4-2.2,4.6-0.5,4.3,2.8c-0.4,4.3,0.2,8.6,0.3,12.9c0.2,15.7,18.7,27.2,33.7,24.9
			c6.9-1,12.4-4.5,17.6-8.8c2.2-1.8,3.5-2.4,4,1.4c0.6,4.4,3.5,4.1,6.6,2.6c2.2-1,4.3-1.9,2.7,2c-0.5,1.4,0.1,2.1,1.3,1.9
			c5.9-1.1,6.1,1.9,5.2,5.7h26.3c-23.1-15.5-45.1-32.6-68.3-48.1C593.5,965.8,576,960.4,558.1,960.4z"/>
		<path fill="#57463F" d="M527.6,695.7c1.3-0.3,2.5-0.9,3.4-1.9c1.2-1.1-0.1-2.1-0.7-3c-2.4-3.3-4.7-6.7-6.7-10.2
			c0.8,4,1.6,8,2.5,12C526.3,693.8,525.6,695.9,527.6,695.7z"/>
		<path fill="#FEFDE6" d="M644.3,1020.7c-3.4-0.3-8.1-1.5-9.7-4c-3.4-5.3-5.6-1.9-8.4-0.2c-21.3,13.4-47.6,0.4-49.6-24.5
			c-0.2-2.5-0.5-5-0.5-7.5c0-3.4-1.7-3.3-4.2-2.5c-1.8,0.6-2.5,2.1-3.4,3.4c-8.3,12.3-15.1,25.3-21.9,38.4H648
			C648,1022.1,647.3,1021,644.3,1020.7z"/>
		<path fill="#FEFDE6" d="M395.6,997.4c-5.5-7.6-11.2-7.2-15,0.6c-3.6,7.4-3.6,7.4,4.6,8.7c4.5,0.6,8.7,2.5,12.1,5.4
			c2.5,2.2,0.6,6,1.1,9c0.2,1,0.3,1.9,0.5,2.9h1.3c0-0.3,0.1-0.6,0.1-0.9C401.5,1014,401.2,1005.1,395.6,997.4z"/>
		<path fill="#FFE6D2" d="M349.1,922.9c15.6-34.2,30.7-68.6,51.4-100.2c7-10.7,12.4-22.4,17.2-34.3c9.8-24,13.5-50,23.5-74.4
			c-33.7,7.6-65.1,3.2-94.3-18.3c1.1,1.9,1.6,2.5,2,3.3c0.5,1.1,2.1,2.5,0.7,3.5c-1.7,1.2-2.5-0.8-3.3-1.9
			c-2.3-2.9-3.2-6.7-2.6-10.4c1.9-14.9,7.4-28.9,9.9-43.7c0.3-2.1,1.9-3.5,2.9-5.1c4.1-6.3,8.3-12.4,12.4-18.7
			c2.4-3.7,4.2-7.6,3.6-12.2c0-0.2-0.3-0.5-0.4-0.7c-1.4,0.2-1.7,2.8-3.8,1.6c0.8-2.1,1.7-4.2,2.5-6.4c0.7-1.8,0.2-3.5-1.5-4.2
			c-1.6-0.7-2.2,1.1-2.9,2.1c-4.3,5.9-7.3,13-13,17.6c-8.9,7.1-15.2,16.9-18.2,27.8c-0.3,1-0.6,1.9-1.1,2.8
			c-6.9,12.9-8.8,27.9-16.6,40.5c-1.8,3-3.8,5.9-3.4,9.7c0.1,0.8-0.1,1.8-1.3,1.8c-1.1,0-1.1-1-1.3-1.8c-0.5-3.5,0.7-6.5,2.4-9.5
			c2.4-4.2,5.1-8.2,6.6-12.8c0.6-1.8,1-3.4-0.7-5c-4.2-3.8-6.2-9-9.3-13.5c-6.6-9.5-7.2-19-3.3-30c4.3-12.1,8.5-23.7,19.4-31.6
			c2.8-2.1,5.3-4.6,7.5-7.3c2.5-2.9,5.1-5.9,5.9-9.9c-2.5-0.6-4.1,2.3-6.6,0.7c0.7-1.9,2.6-2.1,3.9-2.9c1.9-1.1,3.9-1.9,5-4
			c0.7-1.4,2.1-3.2,0.7-4.6c-1.4-1.3-2.6,0.6-3.8,1.3c-13.7,7.6-25.6,17.9-38.3,27c-1.7,1.3-3.1,3.1-3.8,5.1
			c-5.4,13-10.5,26.2-15.2,39.5c-3.1,9-1.2,15.6,4.8,22.2c6.2,6.9,12.3,14.2,15.3,23.2c1.8,5.3,2.3,10.9,7.3,14.6
			c1.1,0.8,1.5,2.9,1.8,4.5c1.1,5.4,2,10.8,2.9,16.2c3.4,21,5.6,42.1,7.8,63.3c0.9,8.7,1.5,16.8-5.3,24.1
			c-4.7,5.1-7.7,11.6-10.1,18.3c-3.6,10.4-8.6,20.2-14.8,29.3c-1.3,1.7-1.7,4-1.1,6c3.4,12.1,8.1,23.6,15.2,34
			c4.2,6.2,7.6,13.8,17.4,12.1c0.8-0.2,1.6,0.2,1.9,1c0,0.1,0,0.1,0,0.2c0.2,1-0.6,1.5-1.3,1.9c-2.7,1.4-5.8,1.9-8.7,1.4
			c-14.5-1.9-25.2-8.8-30.6-22.9c-1.7-4.5-3.6-8.8-5.6-13.9c-5.3,6.6-9.9,12.9-15.1,18.7c-3.5,4-4.8,8.2-5.3,13.4
			c-2.8,30.3,7.1,55.9,27.6,77.9c2.9,3.1,6,5.8,10.1,7.1c1.3,0.4,3.5,0.3,3.1,2.4c-0.4,2.2-2.6,1.5-4.1,1.7c-4,0.6-7.5-1.5-12.8-2.4
			c4,3.7,7,6.3,9.8,9c0.9,0.8,2.6,1.6,1.5,3.2c-0.8,1.1-2.1,0.3-3.2,0.3c-8.9-0.3-14.3-6.6-20.1-12c-16.8-15.6-25.9-35.6-32.1-57.1
			c-1.1-3.7-2.1-7.4-3.3-11.7c-10.4,11.5-20.3,22.3-31.3,32c-1.9,1.6-2.2,3.6-2.2,5.8c-0.1,10.6,2.8,20,11,27.3
			c1,0.9,3.1,2.1,1.8,3.6c-1.5,1.8-3-0.4-4.1-1.3c-7.3-5.6-12.2-12.7-13.8-21.9c-0.2-1.4,0.2-3.5-1.3-4c-1.7-0.6-2.9,1.4-4,2.5
			c-6.6,6.3-13.1,12.7-19.7,19c-5.1,4.9-11.5,8.4-16.2,13.9c-5.2,6.2-11.7,11-16.8,17.3h165.3c0.4-2,1.4-3.7,2.2-5.5
			C320.6,986.6,334.7,954.7,349.1,922.9z M362.2,724.5c1.7-1,2.3,0.8,2.8,1.9c6.3,13,13.2,25.7,17.4,39.7c1.4,4.7,3.4,9.2,3.3,14.3
			c-3.2-3.7-3.9-8.4-5.4-12.6c-4.5-12.9-10.6-25.1-16.6-37.3c-0.4-0.9-0.8-1.8-1.3-2.7C361.9,726.6,361.1,725.3,362.2,724.5z"/>
		<path fill="#FEFDE6" d="M348,961.6c-2.8-1.6-5.1-3.9-6.7-6.6c-1.9-2.9-2.8-2-3.9,0.5c-3.7,8.4-7.4,16.7-11.2,25.1
			c-6.6,14.5-12.3,29.4-19.7,43.5h6c10.8-19.7,22-39.1,36.3-56.5C351,964.9,351.5,963.4,348,961.6z"/>
		<path d="M402.6,1024h4.7C404.7,1020.8,404.4,1020.8,402.6,1024z"/>
		<path fill="#5B3C2F" d="M735.7,577c-0.7,6.3-4,12.2-2.9,18.8c3.7-10.5,7.2-21,10.5-31.6c8.5-26.7,13-54.2,15.2-82.1
			c1.4-15.6,1.5-31.3,0.4-46.9c-1-13.4-2-26.8-4.6-40c-9.9-49.5-29.2-95.7-48.5-142c-0.5-1.2-0.8-2.8-3-2.4
			c-8.3,1.2-8.3,1.1-10.4-6.8c-1.7-6.7-3.8-7.6-9.7-3.6c-2.5,1.7-5.2,3.1-7.8,1.1c-2.3-1.8-2.6-0.2-3.4,1.2c-2.1,3.7-4.3,3-6.5,0.1
			c-3.3-4.4-3.1-9.5-1.8-14.3c0.9-3.4-0.5-4.5-3.1-4.7c-5.3-0.4-8.6-2.9-10.2-8c-0.6-2-1.6-3.4-4.4-2.1c-6.2,2.9-12.2,0-13.6-6.7
			c-0.6-2.7-1.4-3.6-4.1-3.6c-3.3-0.1-6.1-1.8-9-4c3.8,9.3,7.6,18.2,11.1,27.2c0.8,2.5,2.6,4.6,5,5.8c11,5.8,22,11.7,33,17.8
			c1.9,1,6,1.9,4.7,3.9c-1.4,2.4-4.3-0.7-6.2-1.7c-9.4-4.9-18.8-10-28.2-15.1c-1.4-0.7-2.6-2.1-5-1.5c3.8,11.8,6.3,24,7.6,36.3
			c0.4,3.7,2.4,5.5,5.5,6.8c5.3,2.3,10.4,5.2,15.8,7.3c14.3,5.7,30.2,6.1,44.8,1.2c3.9-1.3,3.5-2.6,1-4.9c-4-3.6-8.7-6.1-13.4-8.7
			c-1-0.6-3.1-1-2.1-2.6c0.8-1.4,2.4-0.3,3.5,0.3c5.5,2.8,10.8,5.9,15.3,10.3c4.9,4.9,4.9,5.3-1.5,7.5c-18.1,6.5-35.9,5.5-53.3-2.4
			c-4.8-2.2-9.5-4.5-14.9-7.1c1.3,6.7,0.4,12.8,1.3,18.9c1.3,8.2,11.3,15.6,19.7,14.5c9.8-1.2,19.1-4.2,28.6-6.6
			c1.5-0.4,3-1.4,4.6,0.1c-0.8,2.2-2.9,2.2-4.5,2.6c-5.7,1.6-11.6,2.9-17.3,4.6c-10.3,3.1-19.9,3-28.6-4.4c-0.5-0.4-1.2-0.6-2.1,0.2
			c0,1.7,0,3.7,0,5.7c0.2,19.6-0.8,39.3-3,58.8c-1.5,14-3.9,27.9-6.9,41.7c-3.1,13.3-5.5,26.8-19.5,33.9c7.7-1,13.1-5.4,17.2-11.5
			c12.1-18.3,16.5-38.6,15.8-60.3c-0.4-11.7-1.6-23.2-2.9-34.8c-0.2-1.4-0.8-3.4,1-4c1.7-0.6,2.4,1.4,3.3,2.5c0.5,0.7,1,1.4,1.3,2.1
			c5.4,12.9,11,25.6,11.8,39.9c1.8,30.3,1.3,60.6-3.3,90.6c-0.6,3.9-2.3,7.6-3.7,11.4c-1.3,3.6-3.6,6.8-6.6,9.2
			c-3,2.3-6.7,3.6-10.5,3.8c6.3,2,11.6,0.2,15.9-4.4c4.6-4.9,7.5-10.9,9.6-17.3c6.1-18.2,7.8-37,8.1-56c0.3-14-1-27.9-1.7-41.9
			c-0.1-2.1-1.4-5.4,1.4-6.1c2.1-0.5,2.2,2.9,3.4,4.3c0.4,0.5,0.8,1,1.2,1.4c1.1-0.6,1.8-1.7,2-3c3.8-13.7,13.8-22.4,24.6-30.5
			c5.4-4,11.3-6.3,18.7-3.4c-1.4-11.5-2.8-22.5-4.3-34.8c-2.2,3.3-3.5,5.2-4.8,7.1c-5.4,8-10.6,16.2-17.5,23
			c-8.2,8.1-23.8,8.4-30.8,0.6c-4.9-5.5-8.1-12.1-11.2-18.8c-0.4-0.8-1.1-2.1,0-2.7c1.5-0.8,2,0.7,2.4,1.7
			c2.4,5.3,5.2,10.4,8.5,15.2c4.7,6.6,11.3,8.8,19.3,7c6.3-1.4,10.6-5.2,14.4-10c6.5-8.3,12.2-17,18-25.8c0.7-1,1.1-2.7,2.8-2.3
			c1.5,0.4,0.9,1.9,1.1,3c4.2,25.4,6.3,51,7.9,76.7c1.3,20.7,2,41.5,2.9,62.3c0.6,13.7-0.3,27.3-0.7,40.9c-0.5,15.8-1,31.6-4.2,47.1
			c-3.9,19.1-7.4,38.5-24.7,51.2c-0.1,0.1,0,0.5,0.1,0.7c13.2-8.7,21.7-21.8,30.9-34.6c1.5,2.7,0.3,3.9-0.5,5
			c-2.8,3.8-4.2,8.2-5.5,12.7c-2,7-3.7,14.2-6.4,20.9c-6.1,15.2-13.6,29.4-31.7,34.9c8.9,2.7,16.7,2.5,23.7-3.2
			c7.9-6.5,13.9-14.9,17.5-24.5c2.9-7.4,5-15.1,6.2-23c0.2-1.3,0.4-3.2,1.9-3.1c2.1,0.2,0.9,2.1,0.8,3.2
			C736.3,574,735.9,575.5,735.7,577z"/>
		<path fill="#FFDDC1" d="M893.1,886.6c1.1-23.8-2.2-47.5-9.7-70.1c-5.2-15.6-13.5-28.9-29.1-36.3c-2.5-1.2-5-2.7-6.4-5.3
			c1.8-3.4-1.4-3.5-3-3.9c-1.7-0.4-0.5,1.3-0.7,2.1c-3.9-1.4-7.6-3.3-11-5.8c-2.2-1.9-5.3-2.3-7.9-1.1c-10.5,4.1-21.3,7.6-31.5,12.3
			c-31.5,14.5-56.7,36.9-79.8,62.1c-5.3,5.8-10.1,11.9-13.5,19.1c-7.9,16.8-16.1,33.6-23.8,50.5c-12,26.4-24.9,52.6-30.7,81.4
			c-0.9,4.6,0.3,7,3.6,9.6c8.9,6.9,18.5,13.1,27.7,19.5c1.4,1,3.4,1.5,4.2,3.2h5.8c8.2-19.2,12.5-39.4,15-60
			c1.4-11.8,2.2-23.8,3.3-35.7c0.1-1.1-0.5-3.1,1.5-3c1.5,0.1,1,1.9,1,2.9c-2.1,32-4.5,63.9-16.8,94.1c-0.2,0.6-0.5,1.1-0.8,1.7
			h180.7c0.4-1.4,0.7-2.9,1.1-4.3C882.6,975.9,891.2,931.8,893.1,886.6z"/>
		<path fill="#FFE6D2" d="M548,701.4c-1.4,0-3.4-0.8-3.8,1.2c-0.4,1.7,1.6,2.4,2.8,3.1c9.9,6,21.4,8.7,32.9,7.8
			c2.2-0.2,4.6-0.6,5.6-3.3c2-5.2,4.1-10.4,6.6-16.6c-7.5,2.4-14.5,1.3-21.4,2.6C563,697.6,555.9,701.1,548,701.4z"/>
		<path fill="#790310" d="M592.6,680.5c1.6-0.9,3.8-0.9,5.4-3.8c-6.2,3.2-11.3,6.2-16.9,8.1c-6.2,2.1-12.3,2-18.6,0.7
			c-6.5-1.3-11.3-4.4-14-11.8c-0.3,7.9-0.2,8.2,5.4,11.6c1.4,0.9,3,1.5,4.3,2.5c1.7,1.2,1.9,2.7,0.2,4.1c-3.2,2.7-9.4,2.5-12.4-0.5
			c-10.6,10.2-9.6,18.3,3.3,23.3c8.7,3.4,17.9,6.3,27.5,5.3c1.7-0.2,5,0.4,4.7-2.4c-0.3-2.7-3.3-1.3-4.9-1.2
			c-11.7,0.5-23.3-2.7-33.1-9.2c-2.3-1.5-3.7-3.6-2.7-6.3c0.9-2.5,3.3-3.1,5.7-3c3.9,0.1,7.5-0.8,11.2-1.8
			c7.2-1.8,14.1-4.3,21.9-3.9c4.9,0.1,9.8-1,14.2-3.2c-3-1.3-6-1.3-6.1-4.3C587.7,681.7,590.7,681.6,592.6,680.5z"/>
		<path fill="#BAE2EC" d="M0,0v1024h131.7c5.8-8.9,13-16.7,19.4-25.1c14.2-18.7,27.8-37.8,40.2-57.8c7.8-12.6,15.4-25.1,19.7-39.6
			c3.3-11,11.7-19.6,17.5-29.5c10.2-17.4,23.4-32.9,33.3-50.4c6.3-11.2,11.1-23.1,15.4-35.1c2.1-5.8,1.5-12.2,1.5-18.3v-23.4
			c-1.1-0.5-1.3,0.2-1.5,0.8c-3.6,10.2-7.4,20.3-10.9,30.6c-7,20.5-21.4,31.8-42.6,35c-0.6,0-1.2-0.1-1.8-0.3
			c-0.2-1.9,1.1-2,2.1-2.3c5.8-2.1,11.3-4.9,16.5-8.3c8-5,11-13.5,14.3-21.7c4.2-10.5,4.9-21.7,6.1-32.8c0.4-3.3,0.7-6.6,0.7-10
			c-1.1,3.5-3.3,6.4-5.1,9.5c-3.6,6.3-9,10.1-15.9,12c-1.1,0.3-2.3,1.1-3.2-0.1c-1.1-1.5,0.3-2.5,1.3-3.3c5.8-5,10.4-11,12.7-18.2
			c2.4-7.5,4.6-15.3,5.2-23.1c2.8-34.7,2.6-69.5,3.6-104.3c0.3-13.3-0.1-26.7-1.3-39.9c-0.2-2.2-0.4-4.4-2-6
			c-5.1-5.7-10.2-11.4-15.6-16.8c-5.3-5.4-7.8-12.4-10.2-19.3c-5.1-14.9-7.1-30.4-8.4-46c-0.9-10.1-2.1-20.2-2-30.4
			c0-2.1-0.9-3.8-2-5.6c-12.1-20.4-15.7-42.4-13.4-65.8c2.2-22.6,7.4-44.5,12.5-66.6c3.1-13.3,9.7-25.1,13.9-37.9
			c6.1-18.4,9.3-37.5,15.1-55.9c13.6-42.9,32.9-82.5,63.8-115.8c11-11.9,23.8-21.8,36.4-31.9c5.6-4.5,11.1-9,16.8-13.3
			c7.7-5.8,16.2-10.5,25.2-13.9c23.2-8.8,47-15.5,70.9-21.6c14.7-3.7,29.7-3.2,44.7-1.7c16.4,1.7,32.9,1.9,49.4,0.5
			c17.2-1.5,34-0.1,50.2,5.4c21,7.1,41.7,15.1,60.5,27c22.4,14.2,39.5,34.1,56,54.4c3.5,4.3,6.8,8.6,10.4,12.8
			c1.7,2,3.7,3.8,6.1,0.8c12.5-15.7,30-22.5,48.8-27c1.9-0.5,3.8-1.1,5.7-1.7c1.4-0.4,2.7-0.3,3.3,1.2c0.5,1.3-0.1,2.3-1.2,3
			c-0.7,0.5-1.4,0.9-2.2,1.2c-8.3,3.1-12.5,9.5-14.6,17.7c-2,8-7,13.4-14.3,16.9c-1.1,0.4-2.1,1-2.9,1.8c-0.4,0.7-0.5,1.6-0.3,2.3
			c0.1,1.2,1.1,1.1,1.9,0.8c13.8-5.9,26.7,0.4,39.9,3.1c2.8,0.7,5.6,0.8,8.4,0.3c5.9-0.9,12-1.2,17.9-0.7c3.8,0.2,9.9-2.3,10.8,1.8
			c1,4.5-5.7,4.8-9.1,6.7c-6.2,3.5-12.8,6.5-19.2,9.7c-3.9,2-7.2,4.3-9.8,8.2c-3.8,6-10.3,6.6-16.5,2.2c0.1,0.6,0.4,1.2,0.2,1.5
			c-4.5,5.6,1.4,8.4,3,12.5c4.5,11.2,11.3,20.9,18.3,30.6c5.2,7.3,5.8,16.2,6.8,24.8c1.8,16,3,32.1,3.4,48.2
			c0.4,14.6-1.8,28.9-2,43.4c-0.1,12-0.9,24-2.2,35.9c-0.8,7.1,0.7,13.9,2.8,20.6c5.5,17.8,10.4,35.8,14.5,53.9
			c3.9,17.1,11.8,32.9,17,49.6c4.8,15.6,9.1,31.3,12.9,47.2c2,8.3,2.6,17.5-0.1,25.2c-3.9,10.8-8.5,21.6-14.9,31.4
			c-3,4.6-5.9,9.3-9.2,13.7c-1.7,2.3-1.9,3.3,1,4.7c4.3,1.9,8.8,2.9,13.2,4.2c1.5,0.5,3.4,0.1,4.7,2.2c-5.4,1.7-10.9,2.6-15.6-0.1
			c-6.8-3.8-12.6-3.5-19.4,0.4c-9,5.1-18.9,8.5-29.7,5.8c-1.9-0.5-5.2,0.5-5.1-2.5c0.1-2.4,3.2-1.8,5-1.9c9.4-0.4,17.9-3.7,26.2-7.6
			c1.9-0.9,3.8-2.1,1.1-4.3c-9.6-7.6-12-19.3-16.7-29.7c-2.3-5.1-3.7-10.6-5.5-16c-2,0.3-1.7,2-2,3.1c-3.5,12.2-6.5,24.5-10.4,36.5
			c-2.6,8.3-0.6,16.1,0.5,24.1c2.2,16.5,5.8,33.1,2.4,49.6c-3.6,17-13.3,26.4-31.2,29.9c-3.1,0.5-7.8,0-9.1,2
			c0.3,0.1,0.5,0.3,0.8,0.4c0.6,0.3,0.1,1.1-0.5,0.9c-0.2-0.1-0.4-0.2-0.6-0.3c-0.2,2.8,4.9,4,7.6,5.6c10.1,6.2,20.3,12,30.4,18.2
			c1.9,1.4,4.4,1.6,6.5,0.7c2-0.7,4.1-1.3,6.3-1.7c7-1.4,13.1-0.6,17.9,5.5c5.4,6.8,11.3,13.1,16.9,19.7c4,4.8,9.1,8.4,14.9,10.6
			c4.1,1.6,7.9,3.6,9.6,8.1c0.8,1.7,2.1,3.1,3.9,3.8c16.1,7.5,23.8,21.4,29.1,37.4c8.7,26.3,10.9,53.1,9.1,80.8
			c-2.7,40.6-9.9,80.4-19.4,119.9c-0.6,2.4-1.3,4.8-2,7.1H1024V0H0z"/>
		<path fill="#5B3C2F" d="M856.8,547.5c-1.4-15-5.6-29.3-10.2-43.6c0.9,5.7,1.9,11.3,3.2,16.9c2.8,12.5,5.3,25,2.9,38
			c-3.1,16.2-13.1,29-21.3,42.6c-3.7,6.1-8.1,5.7-12.1-0.6c-0.9-1.6-1.7-3.3-2.1-5c-3.4-11.8-6.8-23.7-9.9-35.6
			c-4.9-18.7-7.2-37.2-1.9-56.5c3.2-12,3.9-24.5,2-36.7c-3.6-24.1-3-48.1-1.1-72.2c0.2-3.1-0.2-6.6,2.6-11
			c5.1,16.6,9.8,32,14.5,47.4c0.3-1.1,0.2-2.3-0.1-3.5c-3.7-16.4-9.5-32.2-13.8-48.4c-0.7-2.7-2-5.4-1.6-8.3
			c2.3-16.2,2.5-32.5,3.8-48.8c2.1-26.8,0.7-53.6-2-80.3c-1.3-13.3-3.8-26.5-13.6-36.7c-3.1-3.2-5.5-7.1-7-11.3
			c-2.4-6.8-5.4-13.2-10.9-18.2c-4.1-3.8,4.5-5.2,2.3-9.2c-2.8,1-5.2,3-8,4.2c-0.9,3.4-3.1,6.4-6.7,9.1c-3.9,2.9-3.3,7.8-4.4,12.4
			c2.8-0.8,3.5-2.4,4.6-3.6c5.7-6.1,9.7-5.2,12.5,2.7c2,5.6,1.6,11.4,1.3,17.3c-0.4,7.4-1.9,14.7-0.7,22.3c1,6.3,2.3,13,0.5,19.5
			c-1.4-2.7-1.7-5.4-2-8.3c-0.5-8.3-1.5-16.5-2.9-24.7c-0.5-2.6-1.8-5-3.8-6.9c-0.7-0.7-1.5-1.5-2.6-1.1c-1.3,0.5-0.9,1.6-0.8,2.5
			c0.1,1.8,0.3,3.9-0.9,5.3c-3.5,4.2-1,7.6,1.6,10.5c2.2,2.5,3.6,5.6,3.9,9c0.5,4,0.9,7.9,1.1,11.9c1.4,27.4,2.7,54.9,4,82.3
			c1.7,36.4,3.7,72.8,4.8,109.2c0.8,27.8,2.2,55.6,0.4,83.4c-1.9,29.8-6.9,58.5-23.2,84.3c1.1-0.2,2.3-0.4,3.4-0.7
			c8.9-3,13.8-10.1,17.8-17.9c5.1-10,7-21.1,10.3-31.7c0.4-1.2,0.7-2.9,2.2-3c1.7-0.1,1.8,1.7,2.2,2.9c2.1,6.5,3.7,13.2,6.4,19.4
			c4.3,10.4,7.4,21.5,17,28.9c4.6,3.5,4.6,3.9-0.4,7.2c-5.8,3.9-12.6,5.7-18.8,8.8c9.1-2.2,17.6-6,26-10c2.1-0.9,3.9-2.4,5.3-4.2
			c9.3-13.1,17.6-26.7,22.8-42C855.4,559.7,857.4,553.7,856.8,547.5z"/>
		<path fill="#357003" d="M772.8,169.5c2.7-1.3,5-3.2,7.9-4c0.6-0.7,1.9-1.5,3-1.4c1,0.1,1.9,0.5,2.7,1.1c5.6,3.7,8.6,3.2,12.2-2.5
			c1.6-2.5,3.9-4.6,6.5-5.9c8.4-4.3,16.7-8.6,26.3-13.5c-5.8,0-10.3-0.4-14.7,0.1c-10.8,1.2-21.1-0.3-31.4-3.8
			c-7.7-2.6-15.5-2.7-23.4,1.4c5.1,5.4,7.9,11.8,10,18.5C773,163,773.4,166.4,772.8,169.5z"/>
		<path fill="#BAE2EC" d="M807.8,417.3c-1,10.4-1.5,21,0.2,31.4c3.1,18.9,4,37.7-0.5,56.5c-3.1,12.5-3.7,25.4-1.7,38.1
			c2.4,14.2,6.3,27.9,10.7,41.5c1.5,4.7,3.2,9.5,5,14.1c2,5,4.7,5.6,7.7,1.2c3.3-4.7,6.4-9.6,9.6-14.4c13.6-20.9,14.6-43.6,8.2-66.8
			c-6.9-25-14.8-49.7-22.5-74.4c-4.8-15.7-9.9-31.3-14.9-47C807.6,404.1,808.4,410.8,807.8,417.3z"/>
		<path fill="#5B3C2F" d="M832.9,460.7c1.5,8.3,3.5,16.2,7.7,23.4C838.1,476.3,835.5,468.5,832.9,460.7z"/>
		<path fill="#FFE6D2" d="M345.6,563.4c0.6-1.3,1.7-2.6,0.2-4s-2.8-0.4-4.1,0.3c-16.1,9.4-32,19.1-47.5,29.5c-2,1.2-3.4,3.2-3.9,5.5
			c-2.4,11.7-5.3,23.3-8.8,34.7c-1,3.3-2.7,6.5-1.8,11.2c4.9-12.4,9.5-23.9,14-35.4c1.2-3.3,3.3-6.2,6-8.4
			c13.7-10.3,27.4-20.6,42.1-29.4C343.5,566.4,344.8,565,345.6,563.4z"/>
		<path fill="#523726" d="M277.6,648.2c0.3-1.5,0.3-3-0.2-4.4c-1-3.9-1-7.9,0.2-11.8c3.1-11.2,6-22.4,8.9-33.7
			c0.5-1.8,1.6-4-0.6-5.9c-14.3-12.5-22.1-28.8-26.5-47c-0.4-1.7-1.7-3.6,0.7-6.4c5.6,15.8,8.3,32.2,21.9,44.7
			c-4.7-9.6-8.6-17.9-11.2-26.9c-6.9-24.1-10.1-48.7-11.9-73.6c-1.3-17.9-2.2-35.8-2.9-53.8c-0.9-22.1-1.5-44.2-2.1-66.4
			c-0.1-4.7-0.1-9.3-0.3-14c-1-26.8-1.5-53.6,2.5-80.2c5.5-36.9,17.1-71.7,32.8-105.6c22.3-48.1,56.7-83.6,104.1-106.8
			c29.2-14.3,59.8-19.2,92-13c18.7,3.6,36,11.1,53,19.4c3.9,1.9,7.1,4.9,10.4,7.8c0.9,0.8,2.6,1.8,1.1,3.2c-1.1,1-2.1-0.4-2.9-1.2
			c-4.9-4.8-11-8.2-17.6-10c-13.9-3.7-27.8-3.8-42-2.5c-14.5,1.3-26.4,7.3-36.5,17.4c-5.7,5.9-10.9,12.2-15.6,18.8
			c-21.8,30.2-38.7,63.2-54.6,96.8c-0.9,2-1,3.3,1.1,4.5c3.9,2,3.4,5.2,2.1,8.6c-1.1,2.8-3.3,4.5-5.7,6.1
			c-19.1,13.3-38.8,25.7-58.7,37.9c-1.7,1-4.3,1.8-4.4,3.7c-0.6,7-2.5,13.9-0.8,21.5c1.2-1,2-1.5,2.7-2.2
			c15.7-15.4,31.7-30.5,48.1-45.2c3.2-2.8,6-3.1,8.7-0.3c2.8,2.8-0.1,5.1-1.9,6.6c-5.9,4.9-8.8,11.5-11,18.5
			c-4.1,12.8-8.3,25.6-12.3,38.4c-10.2,33-16.8,66.9-22.7,100.9c-1.6,9.1-2.3,18.3-3.4,27.4c0.7-0.2,1.3-0.8,1.6-1.5
			c14.3-35.6,28.7-71.2,43-106.8c6.3-15.6,12.7-31.1,19.2-46.6c0.6-1.5,1-3.8,3-3.6c2.5,0.3,2,3,1.9,4.5c-0.4,6.5-0.5,12.9-1.2,19.4
			c-2.4,24.6-7.4,48.5-17.9,71.1c-5.2,11.1-10.1,22.3-15.7,34.7c1-0.8,1.9-1.7,2.8-2.6c4.9-6.1,10-12.1,14.7-18.3
			c36.8-48.3,59.3-103.6,79.3-160.2c11.5-32.6,24.3-64.7,39.9-95.6c5.7-11.3,11.9-22.4,21.3-31.1c8.1-7.5,19.6-9.7,28.6-5.5
			c1.3,0.6,3.5,1.1,2.9,2.7c-0.8,2-2.6,0.4-3.8-0.1c-6.6-3.2-14.4-2.7-20.5,1.3c-11.9,7.5-20.5,18.7-23.4,31.9
			c-8.1,36.7-15.7,73.6-18.7,111.2c-1.9,23.7-2.7,47.5-3.6,71.3c-0.8,21.9,3.4,43.3,7.3,64.7c2.4,13.4,4.1,26.9-7.8,38.2
			c0.8,0,1.6-0.1,2.4-0.3c11-3.6,18.8-11.3,25-20.5c10.5-15.4,15.2-33.1,19.2-51c3.8-17.2,5.8-34.8,6-52.4c0-2.2-0.1-4.5,1.6-6.3
			c0.9,0.3,1.6,1.2,1.6,2.2c1,10.2,2.4,20.4,3,30.7c0.7,11.6,0.9,23.3-0.3,34.9c-1.2,10.7-2.3,21.5-4.2,32.1c-0.5,2.7,0.5,3.1,3,2.3
			c4.8-1.5,7.2-4.3,8.5-9.6c6.3-25,10.5-50.4,12.6-76.1c0.7-8.6,1.1-17.2-4.2-24.9c-1.1-1.5-2.6-3.5-0.7-7.4
			c9.2,19.8,18.2,38.6,39.8,46.1c0.7-1.9-0.5-2.9-1-4c-14.8-28.1-26.7-57.2-32.4-88.6c-5.5-30.5-12.9-60.8-10.4-92.1
			c0.7-9.3,2-18.5,3-27.7c0.1-1,0.1-2.2,1.4-2.2c1.4,0,1.2,1.4,1.2,2.3c-0.3,4-0.7,7.9-1.2,11.9c-2.6,17.6-2.8,35.5-0.5,53.2
			c3,22,6.8,43.9,11.8,65.5c8.7,37.7,25,72.1,46.4,104.1c4.4,6.5,10.2,11.9,16.8,17.5c0.1-2,0.1-4,0-6c-2.2-14.8-4.5-29.5-6.8-44.2
			c-5.9-37.4-13.3-74.4-24.1-110.7c-7.2-24.4-14.2-48.8-27.8-70.7c-2.8-4.5-5.4-9.2-8.1-13.8c-0.6-1-1.7-2.1-0.3-3
			c1.3-0.8,2,0.6,2.7,1.5s1.3,1.9,1.8,3c2,4.7,5.8,7.2,10.3,9.4c13.7,6.9,27.4,13.6,39.4,23.3c8,6.5,15.8,13.3,23.2,20.5
			c0.9,0.9,2.3,4,4,0.8c4.1-7.6,10.6-10.5,19.8-9.9c-3.2-2.3-5.7-3.9-8-5.7c-7.2-5.6-8.1-11.4-3-19c0.8-1.3,1.7-2.4,2.8-3.5
			c1.9-1.7,2.1-3.1,0-4.8c-13.2-11-25.2-23.3-40.5-31.6c-11.4-6.2-23.2-10.9-36.6-7.8c-5.5,1.3-9.9,4.6-14.3,7.9
			c-0.9,0.7-2.1,1.7-3,0.3c-0.6-1,0.5-1.8,1.3-2.4c4.7-3.7,9.5-7.2,15.6-8.5c12.3-2.6,23.4,0.5,34.1,6.2
			c10.4,5.7,20.2,12.4,29.1,20.2c5.6,4.8,11.1,9.5,16.6,14.4c2.2,1.9,3.8,0.9,5.7-0.4c2.2-1.4,1.1-2.7,0.2-4.1
			c-16.6-25.1-37.6-45.2-65.8-57c-7.7-3.3-16.1-4.6-24.4-3.8c-10.2,1.1-19.5,5.4-28.8,9.4c-1.7,0.7-3.3,2.5-5.5,1.1
			c2-2.5,2-2.4,8.5-5.5c22.1-10.5,43.3-10,64.6,2.9C627.7,60,644.9,77,658.8,97.4c1.9,2.8,3.5,3.3,6.8,2.4c8-2.2,16.4-2.5,24.4-0.7
			c2.1,0.4,3.7,2,4,4.1c0.3,3.1,1.8,3.7,4.6,3.6c5.7-0.2,9.8,2.5,12.3,7.7c2.7,5.7,6,11.1,9.8,16.2c0.7,0.9,1.2,2.5,2.4,2.3
			c3.1-0.7,4.6-3.6,6.7-5.7c1.7-1.7,0.1-2.9-0.9-4.3c-12.1-15.7-24.3-31.3-38.4-45.3c-10.4-10.4-21.4-20.4-34.4-27.1
			c-17.5-9.1-35.4-17.8-54.8-22.7c-13.1-3.3-26.1-6.1-39.9-4.8c-8.9,0.9-17.9,1.2-26.9,1.2c-13.6-0.2-27.2-0.6-40.9-1.7
			c-20.2-1.6-39.7,2.3-58.7,9.3c-10,3.7-20.5,5.6-30.6,8.8c-19.5,6.2-36.9,16.5-52.6,29.9c-14.1,12.2-29.5,23-41.9,37
			c-29,32.9-47.9,71.3-60.7,113c-6.6,21.6-10,44.1-19.1,64.9c-2.6,6.1-4.7,12.4-7,18.6c1.6-1.9,2.4-4,3.5-6.1c0.9-1.7,1.2-4.4,3.8-4
			c2.9,0.5,1.4,3.2,1.7,5c0.1,1.2,0.1,2.3-0.1,3.5c-3.5,25.5-5.3,51.2-7.8,76.8c-2.3,22.9-0.7,45.8-0.6,68.7c0.1,19.8,2,39.5,5.6,59
			c2.5,13.6,5.4,27.1,15.4,37.8c4.8,5.1,9,10.7,13.8,15.8c2.4,2.4,3.7,5.6,3.7,8.9c0.3,11.3,0.6,22.6,1.1,34c0.4,10-1,20-1,30
			c-0.1,27.3-0.3,54.6-3.2,81.8c-1.4,13.1-4.7,25.5-13.8,35.7c-0.5,0.5-1.5,1.1-0.4,2.1c3.6-1.3,6.6-3.9,8.5-7.3
			c3.5-6.3,5.8-13.1,8.2-19.8c0.6-1.7,0.8-4.3,3.1-3.8c2.8,0.5,1.5,3.2,1.3,5c-1.1,7.7-2.1,15.5-2.7,23.3
			c-1.3,16.8-4.6,33-15.1,46.8c-0.3,0.4-0.6,0.8,0.1,1.1c7.4-5.5,10.3-9,13.2-17c5.3-14.4,10.4-28.8,15.6-43.1
			c0.7-1.8,0.7-5.1,3.5-4.6c2.2,0.4,1.6,3.4,1.6,5.3c-0.1,11.7,0,23.3-0.5,35c-0.2,4.8,0.6,9.8-1.4,14.3
			c-7.6,17.9-15.3,35.8-26.8,51.7c-16.6,22.9-32.8,46-43.1,72.8c-5.4,14-10.8,27.9-11.5,43.1c0.8-3.9,1.3-7.9,2.4-11.8
			c7.8-26.6,20.6-50.8,36.3-73.4c13.6-19.5,27.5-38.8,37.8-60.3c0.7-1.4,1.1-3.6,3.3-3c2,0.5,2.5,2.5,2.4,4.4
			c-0.1,1.3-0.4,2.6-0.7,3.9c-2.1,7.2-5,14.1-8.7,20.6c-8.6,15.4-17,30.8-25.8,46.1c-5.7,9.9-8.9,20.5-8.6,31.8
			c0.8,24.8,9.3,47.3,22.6,68.1c0.6-3.5,2.5-4.4,5.5-2.2c2.8,2,5.4,4.5,8.1,6.7c5.4,4.4,10.4,9.4,18.5,11.2
			c-2.7-2.2-4.9-3.5-6.6-5.3c-18.2-19.1-29.1-41.3-29.9-68.2c-0.7-23.2,5-44.8,14.7-65.5c1-2.2,1.3-6.3,4.3-5.8
			c2.8,0.4,2.2,4.4,2.7,6.8c2.7,13.2,7.2,26,13.2,38c4.1,8.2,11,12.4,20.6,14c-0.8-1.3-1.2-2-1.6-2.6c-11.6-15-19-31.9-23.5-50.2
			c-4.7-18.9-6.5-37.7,0.7-56.3c6-15.5,13.1-30.3,27.8-39.7c1.8-1.1,1.7-2.4,1.5-4.2c-1.9-13.1-3.4-26.3-5.5-39.4
			c-1.1-6.5-0.8-13.8-7.8-18c-1.4-0.8-1.8-2.8-1.8-4.5c-0.2-5.4-2.5-9.9-5.3-14.3c-3.8-5.9-8-11.4-12.7-16.7
			C278.5,660.7,275,655.4,277.6,648.2z M561,75.7c2.3-0.2,4.7-0.1,8.5-0.1c16.2-1.7,29.8,7.3,43.1,17.1c9.4,6.9,17.5,15.4,26.2,23.1
			c0.9,0.8,2.7,1.8,1.4,3.1c-1.3,1.4-2.3-0.4-3.2-1.2c-7.1-7-14.4-13.8-22.1-20.2C599.2,84.7,582.1,76,561,78.3
			c-1.6,0.2-4.8,1-4.8-0.9C556.1,74.6,559.2,75.9,561,75.7z M246.1,526.6c-1.5,0.5-1.9-0.9-2.6-1.8c-5.3-7-7.4-15.2-7.8-23.8
			c-0.8-14.6-1.6-29.3,0-43.9c1.2-10.7,2.8-21.4,4.3-32c0.2-1.2,0.3-3.1,2-3c1.9,0.1,1.3,2.1,1.3,3.2c0.1,7.5,0,15,0,24.7
			c-0.3,21.1,1.6,44.3,3.1,67.5c0.1,2,0.7,3.9,0.8,5.9C247.3,524.7,247.5,526.1,246.1,526.6z M290.5,773.5c-0.4-1.3-0.8-2-0.7-2.5
			c8.2-32,3.8-63.8-2.3-95.6C297.6,685.9,299.6,758.1,290.5,773.5z"/>
		<path fill="#FFE6D2" d="M313.9,620.9c-1.6,5.3-3.2,10.6-4.8,15.9c-0.9,2.8-2.6,5.8-1.7,8.7c3.1,9.7,7.9,18.7,14.4,26.6
			c2.7-5,2.6-5,0.9-8.6C316.2,650.1,313.6,636,313.9,620.9z"/>
		<path fill="#FFBA45" d="M481.3,678.2c7.8-11.1,14.2-23.1,15.2-36.9c1.6-21.4-3.7-41.5-13.2-60.6c-1.2-2.4-2.3-5-4.6-6.5
			c-5.7-3.7-9.1-9.2-12-15c-3.5-6.9-9.2-10.3-16.7-10.8c-2.3-0.1-4.5-0.9-6.4-2.2c-5.4-3.4-11.6-5.2-18-4.9c-2.7,0.1-4,0.9-2.4,4
			c2.3,4.5,2.7,9.7,1.2,14.6c-0.5,1.8-0.7,5.2-2.5,4.6c-2.6-0.8-0.2-3.4,0.2-5c2.2-9.5-0.7-16.9-8.6-19.1c-8.2-2.3-17-1.7-24.8,1.9
			c7,5.8,10.3,13,11.9,21.3c-2.4-3.7-4.5-7.5-6.4-11.4c-2.8-5.3-6.6-9.2-12.9-9.8c-12.8-1.3-22.4,4.5-30.5,13.7
			c-0.9,1.2-1.5,2.6-1.6,4.1c-1.1,5.4-2.4,10.8-3.6,16.1c-2.3,10.2-8.5,18-16.3,24.4c-7.3,5.9-13,12.4-11.3,22.7
			c0,0.8-0.2,1.7-0.4,2.5c-0.9,12.8,2.8,24.5,7.4,36.1c0.5,0,1,0,1.4,0c3.7-9,7.5-18,11.1-27.1c0.8-2.5,2.3-4.8,4.2-6.6
			c8.9-7.7,16-16.8,22.2-26.8c1.2-1.9,2.3-4.6,5-4.3c3.1,0.4,4.5,3.1,5.3,6c2.7,9,0.5,17-4.8,24.5c-7.1,10.1-13.7,20.4-16.2,33
			c-1.7,8.7-4.2,17.4-6,26.2c-0.7,2.6,0.3,5.4,2.5,7.1c4.2,3.5,8.8,6.5,13.7,9c14.4,7.3,30.3,11.2,46.5,11.4
			c14.9,0.2,29.2-1.1,42.2-9C463.9,698.4,473.7,689.2,481.3,678.2z M355,564c10.4-9.6,36.4-2.1,41,11.8c-6.8-4.4-11.1-11-18.6-12.8
			C370.1,561.2,363,562.4,355,564z M426.1,586.3c-2.2,2.8-3.9,1.5-5.7-0.3c-1.7-1.6-3.6-1.7-6-1.1c-6.7,1.9-13.1,4.8-19,8.5
			c-1.6,1-3.2,2.3-5.3,2.5c-0.8-2.1,0.7-2.5,1.7-3.2c6.6-4.3,14-6.9,21.1-10c4.3-1.9,7.5,0.1,11.3,2.8c-2.5-5-2.5-4.6-12.9-5.4
			c-5.3-0.4-9.2,2.7-14.4,4.5c1.1-2.8,3.6-4.9,6.6-5.5c7.1-1.8,14.4-3.2,20.9,1.6C426.3,581.8,428.2,583.5,426.1,586.3z"/>
		<path d="M243.1,518.9c-1.3-25.8-2.7-51.6-2.6-77.4C237.2,467.5,234.4,493.4,243.1,518.9z"/>
		<path fill="#FFE6D2" d="M273.7,858.9L273.7,858.9c-5.5,13-10.6,24.8-12.4,37.7c5.5-6.4,10.6-13.1,15.7-19.7
			c0.7-0.9,0.9-2.2,0.6-3.3C276.4,869.2,275.2,864.8,273.7,858.9z"/>
		<path d="M260.1,982.1c6.9,8.3,13.6,16.9,23.5,22C276.1,996.4,268.9,988.4,260.1,982.1z"/>
		<path d="M198.5,965.7c0.1-3.2,0.3-6.4,0.4-9.6C197.8,959.3,198.5,962.5,198.5,965.7z"/>
		<path fill="#FFE6D2" d="M309,771c-11.5,12.6-19.3,28.1-22.6,44.8c-2.8,13.9-1.3,27.6,2.8,42.1c5.1-6.7,9.2-14,12.1-21.9
			c3.9-11,9.4-21.3,16.3-30.7c1.6-1.9,2.3-4.4,2.1-6.9c-0.8-8.1-1.4-16.2-2-24.3c-0.2-2.7,0.5-6.7-2-7.6
			C313.3,765.7,310.9,768.9,309,771z"/>
		<path fill="#57463F" d="M495.5,697.9c0.1-7.6,0-15.1,0-22.7c-0.3,0-0.7,0-1,0c-2.4,9.4-4.9,18.7-7.3,28.2
			C494.4,701.9,495.4,701.3,495.5,697.9z"/>
		<path fill="#FFE6D2" d="M271.4,829.9c1.3-2.5,2.4-5.1,3.4-7.8c1-2.4,1.8-4.9,2.7-7.3c-10.1,19.8-23.1,37.4-35.8,55.3
			c-14.6,20.5-26.3,42.9-34.8,66.6c-2.8,7.2-4.4,14.9-4.6,22.7c11.8-10.3,21.2-21,30.9-31.6c1.7-1.9,1.6-4,1.4-6.1
			c-1.4-15.2,2.1-30.4,9.9-43.5C253.8,862.4,262.5,846.1,271.4,829.9z"/>
		<path fill="#BAE2EC" d="M728.5,697.3c1,1.2,2.5,1.8,4,1.6c5.3-1,10.6-2.2,14.6-5.9c9-8.4,13.4-19.1,15.3-31.2
			c-5.1,9.5-8.7,19.9-21.3,22.5c-11.2,2.3-21.2-0.5-31.2-5C716.4,685,722.5,691.1,728.5,697.3z"/>
		<path d="M635.2,695.6c14-13.3,18.5-31.2,24.4-48.5C653.1,664,647,681.2,635.2,695.6z"/>
		<path fill="#FFDDC1" d="M607.8,722.4c-10,10.8-16.6,24.3-19.2,38.8c-0.4,2-1.4,4.8,2.5,4.2c6-1,12-0.5,17.9-0.5
			c3.1,0,4.5-0.5,4-4.2c-1.4-9.8,0.4-19.6,2.3-29.2c2.4-12.2,8.9-22.4,16.8-31.9c-0.5-0.5-1-1.1-1.5-1.6
			C623,706.1,615.3,714.2,607.8,722.4z"/>
		<path fill="#FEFDE6" d="M807.7,735.9c-2.4-2.6-5.5-3-8.8-2.4c-7.3,1.4-14.7,2.3-21.4,6.2c-6,3.5-12.4,6.4-18.6,9.7
			c-45.6,24.2-81.7,57.2-103.4,105.5c-16.5,36.9-33.3,73.6-49.1,110.8c-1.5,3.6-0.9,5.6,2.4,7.7C619,980,629,986.9,639,993.8
			c2.4,1.7,3.1,1.4,3.8-1.6c2.2-10,4.6-20.1,8.2-29.7c10.7-28.3,23.8-55.6,36.9-83c5.2-10.9,9.3-22.6,16.8-32.2
			c13.1-16.7,28.5-31.2,44.9-44.6c23.6-19.1,50.6-31.6,79.7-40.6c-5.7-8.8-13.2-15.6-19.4-23.6C809.3,737.5,808.5,736.7,807.7,735.9
			z"/>
		<path fill="#FFE6D2" d="M436.3,739.7c5.8-7,11.6-12.2,16.2-18.8C440.7,722.2,439.1,724,436.3,739.7z"/>
		<path fill="#5B3C2F" d="M616.3,763.6c1.1,12.7,7.2,21.7,18.7,25.6c-5.9-6.1-3.9-12.9-2.8-19.5c0.5-3.1,2.4-2.7,4-0.5
			c1.4,2,2.2,4.5,6.2,5.5c-4-5.1-5.3-10.2-5.8-15.6c-0.1-0.8,0.4-2.1-1.1-2.1c-2.8-0.1-2.9-0.1-2.4-2.1c4.6-22.7,8.3-45.6,14.8-69.1
			c-1.3,1.8-1.9,2.8-2.6,3.6c-0.8,1.1-1.7,2.1-2.6,3C622.1,711.8,613.8,735.7,616.3,763.6z"/>
		<path fill="#FEFDE6" d="M416.5,811.5c25.1-30.2,48.7-61.7,74.8-91.1c6.9-7.9,14.1-15.3,21.8-22.4c-2.3,0-3.1-0.2-3.6,0
			c-14.9,7-30.7,11.7-46.5,16.4c-1.4,0.4-2.7,1.3-3.5,2.6c-6.7,9.4-14.5,17.8-22.5,26c-1.7,1.6-2.9,3.6-3.5,5.9
			c-7.8,34.2-23.1,65-42,94.3c-14.5,22.6-24,47.8-35.6,71.9c-0.9,1.9-1.4,3.3,1.7,3.6c3.8,0.5,7.5,1.9,10.6,4.1
			c2.6,1.7,3.6,1,4.5-1.7c4.6-15.6,9-31.3,14.2-46.7C394.1,852.4,400.9,830.2,416.5,811.5z"/>
		<path fill="#57463F" d="M450.3,709.9c-3.9,2.1-6.1,4.8-7.4,10.3c4.8-2.6,10.2-1.5,13.3-4.6c3.1-3.1,6.6-4.2,10.4-5.4
			c4.6-1.5,9.2-3,13.8-4.3c1.6-0.3,3-1.5,3.5-3.1c4.8-12.5,6.7-25.7,9.7-38.7c-1.2,1.8-2.3,3.7-3.3,5.6
			C481.1,686.7,467.2,700.7,450.3,709.9z"/>
		<path fill="#57463F" d="M780.2,633.9c-1.4-12.2-6.7-24.3-0.9-36.9c-5.2,7.3-11.5,12.4-20.2,13.7c-3.7,0.5-6.2,2.5-8.6,5.3
			c-9.6,11.1-19.6,21.7-32.4,29.4c-6.4,3.9-13.1,3.1-19.8,2.8c-1.2-0.1-2.4-0.8-2.2-2.2s1.4-0.9,2.4-0.8c5.8,0.1,10.7-1.9,14.3-6.6
			c4.6-5.9,8.5-12.4,11.5-19.3c2.3-5.5,4.6-11.2,4.3-18.5c-4.4,7.9-9,14.4-14.9,19.8c-8.6,8-21.4,9.3-31.4,3.2
			c-1.2-0.7-3.3-1.1-3-2.8c0.4-2,2.5-1.2,3.8-1.2c7.1,0.1,12.6-2.7,17.6-7.8c12.1-12.5,16.7-28.2,20.6-44.4
			c-4.3,5.1-8.9,9.9-13.9,14.3c-4.3,3.9-9.3,7-14.8,9.1c-1.3,0.5-2.7,1.1-3.6-0.3c-0.7-1.2,0.6-2.1,1.4-2.9c2-1.8,4-3.5,6-5.3
			c7.2-6.6,14.8-13,18-22.9c5.9-18,9.4-36.7,10.6-55.6c0.7-11.1,0.5-22.3,1.4-33.4c1.1-11.2,0.7-22.6-1.1-33.7
			c-4.4,5.1-9.2,9.8-14.4,14.1c-8.8,7.2-19.6,9.6-30.5,11.3c-4.2,0.7-5.9,2.3-6.1,6.2c-0.1,1.7-0.5,3.3-1,4.8
			c-4,12.3-8.3,24.6-13.7,36.3c-3.9,8.3-6,16.8-5.6,25.9c0.2,3.9,0.8,8.2-1.3,11.8c-8.9,15.2-16.4,31.2-26.5,45.8
			c-13.3,19.1-23.6,39.9-25.5,63.6c-0.5,5.6-2.6,11.5,0.4,17.2c0.8,1.5,0,3.2-0.5,4.8c-3.8,13.3-9.7,25.8-14.8,38.6
			c-9.3,23.3-16.4,47.1-14.4,72.7c0.7,8.8,1.8,17.5,5.3,25.7c1.2,2.8,2.5,5.6,6.8,7.5c-9-12.5-8.7-26-9.8-39.1
			c-0.1-1.6-0.2-3.8,1.8-4.1c2.2-0.4,2.3,1.9,2.8,3.4c2.4,8.1,4.6,16.3,7.1,24.4c1.4,4.3,3,8.6,8,12.1c-1.3-2.4-2-3.8-2.7-5.1
			c-5.2-9.7-8.3-19.8-8.1-31c0.3-15.7,4.1-30.7,9.3-45.2c6.9-19.4,15.4-38.3,25.3-56.4c8.6-15.6,16.2-31.7,22.9-48.2
			c4.9-12,9.8-24,14.8-36c0.6-1.5,1-4.7,2.9-3.8c2.3,1,0,3.3-0.5,5c-0.1,0.3-0.2,0.6-0.3,0.9c-12.5,31.2-25.3,62.2-41.8,91.6
			c-6.1,11.1-11.2,22.8-15.3,34.8c6.5-7.4,13-14.8,20.4-21.3c5.2-4.6,10.5-9.3,14.7-15c11-14.8,17.4-31.7,22.6-49.1
			c2.3-7.6,4.1-15.4,6.1-23.1c0.4-1.7,1-3.4,3.1-3.3c2.5,0.2,2.5,2.2,2.6,4.1c0.2,3.2-1,6.2-1.5,9.3c-3.9,20.8-13.1,40-18.2,60.5
			c-4.8,19.2-8.6,38.5-12.3,58c0.5-0.9,0.9-1.8,1.2-2.8c3.2-11.8,9.5-21.3,19.7-28.5c10.4-7.2,20.4-14.9,30-23.3
			c5.9-5.2,11-11.1,17.3-15.9c2.3-1.8,4-1.8,6.3-0.5c4.2,2.7,8.9,4.5,13.9,5.3c15.6,2,24.2-0.2,30.3-14.3c2.4-5.7,5.2-11.2,7.3-16.9
			c0.4-1.2,0.7-3,2.4-2.8c2.2,0.2,1.6,2.2,1.6,3.6c-0.1,13.1-4.1,25.8-11.4,36.6c-4.3,6.2-10.5,10.8-17.8,13c-2,0.6-3.8,1-5.6,1
			c1,0.9,2,1.6,3.1,2.4c1.3,0.9,2.6,1.9,3.8,2.9c0.4-0.1,0.8-0.3,1.1-0.4c3.6-1.9,7.6-2.3,11.5-3c16.9-2.9,26.3-12.7,28.7-29.7
			C782.6,660,781.7,647,780.2,633.9z"/>
		<path fill="#FFDDC1" d="M740.1,711.1c-1.1-0.7-2.7-1-2.8-2.6c0-1,0.5-1.4,1.1-1.7c-2.5-2-5.2-3.6-7.4-5.8
			c-2.3-0.4-4.6-1.6-6.7-3.9c-4.9-5.4-10.7-10-16.1-14.9c-1.9-1.8-3.4-2-5.4,0.1c-13.4,14.6-29.4,26.1-45.1,37.8
			c-12.3,9.2-16.9,22.3-18.2,36.8c-0.7,7.7,0.5,8.6,8.1,8.7c1.2,0,2.3,0.1,3.5,0.1c12.8,0,25.6,1.6,38.3-1.2
			c6.4-1.4,12.3-4.1,18.2-6.7c5.2-2.3,10.6-3.9,16.6-3.7c-0.1,1-1,1.8-2.1,1.8c-6.6,1.1-12.9,3.3-18.8,6.3c-7.4,3.8-15.7,5.8-24,5.9
			c-10.8,0-21.7-0.2-32.5-0.2c-1.4,0-3.4-0.8-4.1,0.7c-0.9,1.8,1.1,2.9,2.2,4c0.5,0.5,1,0.8,1.6,1.3s1.4,1,1.1,2c-0.3,1-1.2,1-2,1.1
			c-4,0.2-8.1,0.6-10.5-4.8c-1.1,10.2-0.9,10.9,3.2,16.1c0.9,1.1,2.6,2.2,1.3,3.8c-1.1,1.4-2.7,0.5-4.2,0.1
			c-10.7-3.4-17.6-10.4-20.4-21.3c-0.5-2.1-1-3.9-3.7-3.8c-6.5,0.1-13,0-19.5,0.2c-3.1,0.1-4.7,1.8-5.2,4.9
			c-1.5,9.5-1.5,19,1.2,28.2c2.3,7.6,4.3,15.5,11.7,20.3c1.3,0.8,3.9,1,3,3.1c-0.7,1.9-2.9,0.9-4.5,0.6c-8.4-1.8-12.2-8.2-15-15.3
			c-2.1-5.1-3.4-10.6-5.1-15.9c0,3.2,0.2,6.4,0.8,9.5c0.4,2.6,1,5.2,1.8,7.8c1.5,5.4,3.2,10.7,9.4,12.5c0.8,0.2,1.6,0.7,1.3,1.7
			c-0.3,0.9-1.3,0.9-2.1,1.1c-6.2,1.4-13.4-2.6-15.5-9.6c-4.3-14.6-6.6-29.5-5.1-44.8c1.5-15.2,5.3-29.7,10.3-44
			c1.2-3.4,0.4-4.4-3.2-4.2c-9.7,0.4-18.8-2.1-27.6-5.7c-12-4.9-17.9-16.9-5.8-26.7c0.2-0.2,0.3-0.5,0.7-1.4
			c-3.7,2.5-6.8,4.6-9.9,6.8c-5.2,3.7-10.6,7.2-16.8,8.6c-8.4,1.9-13.8,7.4-19.1,13.4c-26.7,30.2-51.8,61.7-76.6,93.5
			c-6.2,8-13.2,15.3-17.1,25c-10.2,25.5-17.9,51.8-25.9,78c-1.2,3.8-3.7,8-2.9,11.3c1,3.9,6.6,4.5,10,6.8c17,11.5,34.1,22.8,51,34.3
			c2.8,1.9,4.5,2.1,7.1-0.5c7.5-7.6,16.1-14,25.7-18.8c2.7-1.4,5-3.7,8.6-3.4c-10.6,7.7-22.9,13.1-32,24.2
			c34.7-9.2,69.1-11,103.8-10.9c17.5,0,35.1,0.3,50.9,9.5c3.4,2,3.8-1,4.7-3.1c13.4-33,27.7-65.6,43-97.7
			c6.2-13.3,11.8-27.2,19.7-40c11.9-19.2,28.1-34.6,44.8-49.5c18.8-16.8,41.2-28,63.7-39c1.5-0.7,3.6-0.8,4.6-3.1
			c-1.7-1.1-3.4-2.1-5.1-3.1C763.4,724.8,751.8,717.9,740.1,711.1z M521.7,770.1c0.6-10.8-5.9-14.8-14.9-17
			c-6.3-1.6-12.2-4.3-17.6-7.9c-2.9-1.9-5.7-4.3-6.3-8.3c0.6-0.1,1.1-0.3,1.2-0.2c7.2,9.8,18.5,12.2,29,16c6.7,2.4,10.3,7,10.7,14
			C524,767.8,524.2,769,521.7,770.1z"/>
		<path fill="#5E361C" d="M558.1,407.5c-1.4,0.6-2.6-0.2-3.8-0.6c-2.1-0.8-3.8-2.6-6.8-2.9c2.3,9.6,7,18.5,13.7,25.8
			c8.1,9,18.5,12.1,30.3,9c13-3.4,18.8-13.3,22.2-25.2c3.6-12.9,2.2-26,1.1-39.1c-0.2-2.9-2.1-2.9-4.2-3
			c-18.3-0.1-36.5,0.5-54.5,4.1c-11.8,2.3-12.9,3.9-11.6,15.7c0.3,2.4,0.5,3.7,3.1,1.6c2.5-2,10.5-1.2,12.9,1
			C562.5,395.8,560.8,406.3,558.1,407.5z"/>
		<path fill="#FFE6D2" d="M159.2,998.8c13.4-8.7,22.6-22,34.9-31.9c2-1.6,1.8-3.9,1.5-6c-1.1-7.2,0.8-14.1,1.4-21.4
			c-11.9,21.3-26,41.1-40.9,60.5C157.2,999.8,158.3,999.4,159.2,998.8z"/>
		<path fill="#FFE6D2" d="M594.6,307c-1.5-2.8-4-4.9-7-5.9c-6-2.4-11.8-5.2-16.8-9.7c-5.1-4.6-9.1-10.1-13.9-15.9
			c-0.9,9.1-1.8,17.4-2.5,25.6c-1.8,20.1-6.2,39.6-11.1,59.1c-0.5,1.9-2.2,3.9-0.6,5.6c1.6,1.7,3.8,0,5.6-0.5
			c18.6-5,37.5-7,56.8-4.9c5.3,0.6,10.4,2,15.7,2.4c2,0.1,4.5,0.9,5.7-1.7c1.3-2.8-2-18.2-4.4-20.3C611.1,331.1,601.6,320,594.6,307
			z"/>
		<path fill="#5B3C2F" d="M708.9,646.1c6.1-1.6,10-4.4,14-7.1c11-7.5,19.1-17.9,28.4-27.3c6.3-6.4,11.6-13.2,14.9-21.6
			c9.1-22.6,14-46.6,14.4-71c0.6-35.8-0.8-71.5-2.7-107.3c-1.2-23.2-2-46.5-3.1-69.8c-1.3-25.3-2-50.5-3.2-75.8
			c-0.4-9.6-1.3-19.2-2-28.8c-0.1-2-0.4-4.1-2.6-5.9c-0.8,2.5-1.2,4.6-2.1,6.5c-1.7,3.4-3.4,7.2-8.1,7.2c-3,0-5,1.3-7.1,3.1
			c-7.6,6.5-12.2,4.9-14.2-5.1c-1.2-6.3-4.7-11.3-9.1-15.6c-1.3-1.3-2.1-1.9-3.7,0.4c-2.1,3.2-3.9,6.7-5.3,10.3
			c-0.8,2.6-3,4.5-5.6,5.1c-3.9,1-5.3,4.6-3.8,8.4c1.5,3.9,3,7.8,4.6,11.6c12.9,30.1,25.1,60.4,34.3,91.9
			c6.9,23.5,12.6,47.2,14.1,71.6c1,15.9,1.7,31.8,0.4,47.9c-1.2,18.2-3.5,36.4-6.7,54.3c-5.8,30.6-16.2,59.9-27.2,88.9
			C723.8,628.3,718.3,637.8,708.9,646.1z"/>
		<path fill="#5B3C2F" d="M766.9,206.4c4.8-0.2,7.1,3.5,10.5,7.3c0.3-8.6,1.3-16.1-2.2-23.3c-0.7-1.5-1.4-3.6-4-2.6
			c-4.8,1.8-8.3,14.1-5.2,18.2C766.2,206.2,766.5,206.4,766.9,206.4z"/>
		<path fill="#357003" d="M745.7,128c6.8,5.5,12,3.1,17.9-0.3c5-2.8,8.6-7.5,10-13c1.6-5.6,3.7-11,8.5-15.9
			c-14.8,3.1-27.3,8.9-37.5,19C738.6,123.6,739.3,122.8,745.7,128z"/>
		<path fill="#5B3C2F" d="M627.2,188.7c4.2,0.1,2.6-3.8,3.9-5.7c1-1.5,1.1-2.7-0.8-3.7c-9.4-4.8-18.7-9.7-29.3-15.2
			c4.3,8.5,8.3,15.5,11.5,22.9c2,4.7,4.3,5.7,8.5,2.8C622.8,188.5,625,188.6,627.2,188.7z"/>
		<path fill="#FF8F3F" d="M725.9,135.2c-2.2,2.4-4.2,2.4-6-0.5c-3.1-5-6.8-9.6-9-14.9c-3-7.4-7.3-11.7-15.7-10.5
			c-2.5,0.3-4.8-0.2-3.8-3.9c0.6-2.2-0.9-3.3-2.9-3.9c-6.7-1.7-13.4,0.8-20.1,0.1c-0.4,0-0.9,0.3-1.4,0.5c-6.7,2.7-12.6,7.1-17,12.7
			c-5.2,6.5-4.5,11,2.1,16c4.3,3.2,8.9,5.8,13.9,7.9c1.1,0.5,2.4,1,1.9,2.5c-0.5,1.6-1.8,0.8-2.9,0.6c-3.8-0.8-7.6-0.5-11.5-0.3
			c-5.2,0.2-9.2,2.9-11.9,7.2c-4.7,7.3-3.3,24.5,2.4,31.2c1.8,2.1,3.3,4,0.5,6.8c-2.5,2.5-0.7,6.3,2.7,7c6.7,1.3,6.9,1.9,3.8,7.9
			c-3.2,6.1,1.9,18.1,8.3,18.9c9.1,1.1,7.9,3,6.5,10.1c-0.8,3.8-0.6,7.2,2.2,10.5c2.3-1.8,3-7,5.8-4.5c4,3.6,6.2,1.5,9.4-0.2
			c6.1-3.1,8.3-2,10.5,4.5c0.6,1.9,1.3,3.7,2,5.5c0.9,2.8,2.8,3.1,5.1,1.8c2.2-1.1,4.5-2.2,5.6-4.7c0.5-1.4,1.7-2.5,3.2-2.9
			c4.8-1.4,7.1-4.9,6.2-9.5c-0.5-2.4-0.2-3.5,2.4-3.5c1.2,0,1.8-0.9,2.1-1.8c1.8-4.6,4.6-3.6,7.4-1.3c5.4,4.6,9.6,9.9,10.8,17.3
			c0.4,2.5,0.3,5.7,3.4,6.7c3,0.9,5-1.3,6.9-3.2c2-2.1,3.9-4.1,7.3-2.8c1.5,0.6,2.8-0.5,3.8-1.8c4.3-4.9,5.3-12.5,2-18.1
			c-1.2-2-1.3-3.4,0.4-4.7c2.9-2.3,3.1-5,1.4-7.9c-1-1.8-1.3-3.8-0.9-5.8c0.5-3-0.2-6.1-2.2-8.4c-3.1-4.3-1.8-14.2,2.3-17.7
			c7.5-6.4,8.9-11.3,5.4-20.5c-5.3-13.8-15.7-22.7-28.4-29.5c-3.9-2.1-6.7-1.9-9.2,2C729.4,132,727.4,133.5,725.9,135.2z
			 M713.6,165.7c-0.5,6.9-8.2,16.2-13.8,17.3c-0.6,0.1-1.3,0-1.8-0.3c-0.4-0.4-0.5-1-0.1-1.4c0.1-0.1,0.2-0.2,0.4-0.3
			C705.3,177.9,709.6,172,713.6,165.7z M694.6,173c1.3-5.2,2.8-10.3,4.4-16.4c4.1,12-6.1,28.9-16.6,27.9
			C686.9,180.5,693.1,179.1,694.6,173z M709.8,209.1c-6.4-0.9-12.8-1.9-19.2-2.9c-1.2-0.2-2.8-0.8-2.6-1.9c1.1-4.4-2.5-4.2-4.8-5.2
			c-9.6-4.2-12.5-10.6-8.8-20.3c2.2-5.8,2.8-11.2,0.1-17.3c-2.9-6.3-3.3-13.3-3-20.3c2.9,4.2,2.4,9.1,3.7,13.6
			c0.6,2.1,0.6,4.4,1.6,6.2c3.5,6.1,2.4,12.1,0.2,18.2c-3.6,9.8-0.2,15.6,10,18.4c2.3,0.6,7-0.3,4.7,5.1c-0.5,1.1,1.1,0.7,1.8,0.9
			c6.5,2.2,13.4,2,20.2,3.4C713.1,209.7,711.3,209.3,709.8,209.1z M705.1,183.9c8.5,0.6,17.4,2.8,23.3-6.3
			C725.6,186.7,714.4,189.7,705.1,183.9z"/>
		<path fill="#FFE6D2" d="M621.1,406.4c4.7-10.1,7.2-21.1,7.6-32.2c0-1.3,0.8-3.2-1.5-3.6c-7.6-1.4-10.3,1.5-9.4,9.2
			c1.5,12,1,24.1-1.3,35.9C618,412.6,619.7,409.5,621.1,406.4z"/>
		<path fill="#5B3C2F" d="M629.2,357.3c0.3,2.8,0.4,4.7,4.1,4.5c3.6-0.2,6.1-0.7,6.3-5c0.3-9.3,0.9-18.6,1-27.9
			c0.1-12.2,0-24.3-0.8-36.4c-1-14.6-2.2-29.2-5.8-43.3c-10.1-39.4-30.5-74.2-50.1-109.2c6.6,19.3,12.3,38.7,17.3,58.3
			C614.8,250.5,622.6,303.8,629.2,357.3z"/>
		<path fill="#523726" d="M227.5,304.7c-11,34.5-18.6,69.6-15.1,106.2c0.7,7.9,5,19.7,8.2,23.2c-3.3-43.8,4.3-86.9,7.8-130.7
			C227.9,304.2,227.6,304.4,227.5,304.7z"/>
		<path fill="#5B3C2F" d="M637.1,367.3c-2.5,0.8-5.7,0.7-5.9,4.8c-0.4,13.3-3.6,26.4-9.4,38.4c11.4-11.4,15-26,16.7-41.4
			C638.7,368.2,638.6,366.8,637.1,367.3z"/>
	</g>
</g>
</svg>
