<?xml version="1.0" encoding="utf-8"?>
<!-- Generator: Adobe Illustrator 24.1.0, SVG Export Plug-In . SVG Version: 6.00 Build 0)  -->
<svg version="1.1" baseProfile="tiny" id="图层_1"
	 xmlns="http://www.w3.org/2000/svg" xmlns:xlink="http://www.w3.org/1999/xlink" x="0px" y="0px" viewBox="0 0 838 1024"
	 xml:space="preserve">
<g id="图层_1_x5F_复制">
	<path d="M692,1025c7.2-23.6,12.8-47.6,14.1-72.3c0.6-10.6,1.7-21.3-1.1-31.8c-4.2-16.6-12.3-32-23.8-44.7
		c-21.6-23.8-46.4-43.9-72.1-63.1c-11-8.2-22.7-8.8-35.4-7.6c-14.8,1.4-29,5.8-43.7,7.8c-1.2,0.2-2.2,0.6-3.2,1.2
		c-13.9,8-26.9,17.5-38.9,28.3c15.6,8.7,31.3,10.3,47.9,5.4s28.1-16,37.3-30.2c-0.3,4.6-3.1,7.6-5.5,10.9c-1.7,2-3.1,4.3-4.2,6.7
		c-9.7,24.7-27.9,34.4-54,28.9c-9.8-2.1-19.3-5.1-28.5-9c-2.6-1.1-4.2-1.3-6.2,1.4c-6.4,9.1-12.8,18.3-18.8,27.7
		c-1.3,1.9-1.8,4.3-1.2,6.5c2.5,12.3,2.9,24.8,2.3,37.3c-0.5,10.1-5.5,18-13.2,24.3c-0.6,0.5-1.3,1.2-2.3,0c0-1.8,1.8-2.4,2.9-3.4
		c8.5-7.9,11.6-17.5,10.1-28.9c-1-7.4-1.6-14.9-2.5-22.3c-0.2-1.4,0.2-3-1.2-4.3c-2.1,2-3.2,4.6-4.5,7
		c-21.3,38.2-37.7,78.6-50.8,120.3c-0.4,1.3-0.9,2.5-1.4,3.7h-2c13.8-45.2,31.4-88.8,55-129.7c2.7-4.2,3.2-9.4,1.5-14
		c-6.4-20.2-19.4-36.3-31.9-52.7c-0.7-1-1.3-1.7-2.9-1.2c-4.3,1.4-7.6,6.3-6.2,10.5c1.5,4.7-0.3,6.2-4.6,6c-5.2-0.2-8.1,2.7-9.4,7.3
		c-2,6.2-4.7,12.1-8,17.7c-2.7,5-5.1,10.1-7.2,15.3c-14.9,35.5-32.2,69.8-50.1,103.8c-1.1,2.2-3,4-1.6,6.9c0.5,1-0.2,2.4-1.4,1.5
		c-2-1.5-2.3,0.3-2.9,1.2c-7,8.7-7,8.7-3.2,19.4c1,2.7,2,5.3,2.9,8h-3c0.4-1.9-0.7-3.6-1.3-5.2c-1.5-4.3-3.9-8.4-5-12.7
		c-2.4-8.8-6.1-17-8.9-26.2c-4.8,6.2-9.2,12-13.8,17.7c-1.4,1.8-0.4,3.1,0.3,4.5c3.5,7.3,7.1,14.6,10.6,21.9h-3
		c-2.5-8-7.1-14.9-10.6-23.1c-7,8.2-14.4,15.9-22.4,23.2h-3c7.8-9.5,19.9-15.3,23.7-28.2c0.1-0.2,0.6-0.5,0.8-0.4
		c3.1,1.7,3.6-1.5,4.8-2.8c6.3-7.4,11.4-15.6,16.7-23.7c3.1-4.8,5.9-9.8,8.5-14.8c8.2-15.5,14.1-32,17.5-49.2
		c4.6-24.2,7-48.8,11-73.1c0.9-5.2,1.5-10.5,2.2-15.7c-3.8,20-7.7,39.9-12.1,59.7c-10,45.3-28,87-57.1,123.5
		c-3.1,3.9-5.6,8.3-9.1,11.6c-4.5,4.2-8.6,8.7-12.7,13.2h-3c3.4-3.7,6.5-7.6,10.2-10.9s3.9-6.6,2.5-11
		c-5.9-20.1-14.1-39.5-24.2-57.8c-9.4-17-19.7-33.6-27.1-51.7c-3.2-7.9-6.2-15.9-9.4-24.4c-1.2,1.6-2.2,2.7-3,3.9
		c-9.7,13.8-19.2,27.6-29,41.2c-2.1,3-3.4,6.4-3.8,10.1c-2.8,21.9-6.8,43.7-11.8,65.3c-2.7,11.8-5.6,23.6-8.4,35.3h-3
		c11.2-37.8,18.1-76.5,22.9-115.6c1.9-15.2,3.6-30.4,5.6-45.6c1.1-8.6,2.3-17.2,3.6-25.7c1.2-8.7,2.3-17.5,3.8-26.2
		c1.4-8.2,1.4-16.5,2.8-24.6c1.3-7.3,0.6-15,1.4-22.3c1-9.4,1.8-18.8,3-28.2c0.6-4.3-2.2-8.5-1.4-12c3.7-16.6,3.5-33.4,3.9-50.2
		c1.4-58.7-1.8-117.2-6.3-175.8c-4.5-57.6-9.5-115.2-15.1-172.7c-0.1-1.3-0.8-2.9,0.8-4c1.7,1.1,1.2,2.8,1.4,4.1
		c1.3,12.4,2.5,24.9,3.6,37.3c2.5,28.2,5,56.4,7.4,84.6c3,34.4,5.7,68.7,7.7,103.2c1.8,31.6,3.1,63.2,3,94.9c0,1.2-0.9,3.5,1.4,3.4
		c2-0.1,5,0.8,5.7-2.5c0.6-2.9,1.2-5.7,0.8-8.8c-3.5-23.4-5.7-47-7-70.6c-1.8-32.4-2.9-64.8-1.4-97.3c0.9-19.1,0.7-38.3,2.4-57.4
		c0.5-6.3,0.5-12.7,2.7-19.6c1.7,2.2,1,3.8,0.9,5.3c-0.9,10.5-2,20.9-2.6,31.4c-1.6,33.6-1.9,67.2,3.8,100.6
		c2.5,14.6,4.4,29.3,5.7,44.1c1.1,13.1,5.5,25.8,2.6,39.3c-2.5,12-3.6,24.3-5.7,36.3c-2.3,12.9-4.3,25.9-7.2,38.6
		c-4.2,17.9-4.3,36.2-4.7,54.5c9.4-37.3,19.7-74.5,22.1-113.4c0.1,2.3,2.2,3.6,2.3,5.9c0.6,11.3,3.4,22.3,5.3,33.5
		c1.9,12,6.9,23.4,14.6,32.8c15.9,19.1,36.5,22.8,57.9,10.3c7.6-4.5,8.2-5.8,6.1-15.1c-6.3,6.1-14,10.5-22.4,12.8
		c-14.3,4.1-25,0.5-32.8-11c-3.4-5-5.7-10.5-8-16.1c-6.2-15-8.1-31-11.8-46.6c-2.5-10.8-7.3-21-8-32.4c-0.7-10.5-4.4-20.9-4.8-31.4
		c-1.3-34.5,1-69,2.2-103.4c1.4-42.3,3-84.6,4.5-126.9c0.1-1.8,0.2-3.5-0.9-5.3c-9-13.8-10.9-30.2-15.9-45.5
		c-0.3-1.1-0.3-2.3-0.2-3.5c0.2-4.4,2.8-7.4,7-6.3c5.7,1.5,5.4-1.6,5.6-5.3c1.9-39.8,5.2-79.4,9.4-119c2.3-22.2,4.9-44.3,12.9-65.4
		c5.6-14.5,11.9-28.6,20.2-41.7c1.2-1.9,2.6-4.4,5.5-3.4s2.4,3.7,2.3,6c-0.2,3.9-1,7.8-0.4,11.8c1.7-0.3,1.6-1.8,2.1-2.7
		c7.3-15.7,16.4-30.6,27.1-44.2c4.7-5.9,9.6-11.5,14.4-17.3h3c-1,1.3-2,2.6-3.1,3.8c-21,22.7-37,48.5-47,77.8
		c-12.2,36-16,73-12.6,110.8c3.8,41.6,12.4,82.2,24.6,122.1c2.8,9,4.2,9.4,11.3,3.2c1.2-1.1,2-2.7,2-4.3c0.8-8.8,1.6-17.6,2.4-26.4
		c0.4-4.3-0.1-8.6-1.3-12.8c-12.8-46.7-18.6-94-11.4-142.3c7.5-49.9,23.5-96,61.1-132h3c-6.3,6.8-12.8,13.5-18.7,20.8
		c-20.9,25.6-31.4,55.8-38.7,87.3c-13.1,56.3-8.1,111.8,7.3,166.9c0.1,0.5,0.4,1,0.8,1.3c-1-19-2.4-38-1.3-58c2.3,2,1.8,3.8,1.8,5.2
		c-0.2,31.1,1.7,62,7.1,92.6c7.5,42.7,10.5,85.8,14.1,129c2.6,31.7,7.7,63.1,12.3,94.6c3,20.7,6.3,41.4,9.5,62.2c1.6-1,1-3.2,3.2-4
		c0.1,0.2,0.6,0.8,0.5,1c-4.4,9.7-0.9,19.3,0.5,28.8c2.1,14.4,4.5,28.8,6.9,43.1c0.3,1.5,0.7,2.9,1.2,4.3c0.6-1.2-0.3-3.1,1.5-2.9
		c1.5,0.2,0.9,1.9,0.9,3c0,14.8,0.1,29.5,1.2,44.2s2.8,29.5,2.2,44.4c3.4-30.4,3.1-61,1.5-91.5c2.6,0,2.2,1.5,2.3,2.5
		c1.7,31.3,1.2,62.7-1.5,93.9C351,812.1,343.8,853.9,338,896c-3,21.3-9.8,41.9-20,60.9c-1.5,2.5-1.8,5.7-0.8,8.5
		c2.6,7.5,4.9,15.2,7.4,23.1c2.1-0.9,2.6-2.8,3.4-4.3c17.3-34.1,35-68.1,49.5-103.6c3-7.3,7.2-13.9,10.5-21c1.2-2.6,2.2-5.2,3-7.9
		c1.9-6,5.1-10.1,12-9.8c1.9,0.1,3.4-0.2,2.5-2.8c-2-5.6,0.6-9.6,5.1-12.1c3.5-1.9,2.3-3.3,0.6-5.6c-11.4-16-22.6-32.2-30.3-50.4
		c-10.2-24.3-15.6-49.4-15.2-75.8c0.1-6.1,1-12.4-2.2-18.1c-1.6-2.9,2.6-2.8,2.1-5.5c-0.9-4.5-0.6-9.3-1.1-13.9
		c-1.7-17.6-2.1-35.2-2.7-52.9c-0.1-2.4,1.4-6-4.9-4.4c5.5-2.2,4.8-5.9,4.7-9.3c-0.3-15.7-0.3-31.3,0.3-47c0.1-2.5,0.3-4.7-3.6-5.4
		c3.7-0.5,4.3-2.3,4.5-5.1c2-25,1.9-49.9-3.6-74.5c-0.1-0.7-0.2-1.3-0.2-2c0-0.2,0.4-0.5,1-1.1c2.6,5,2.9,10.2,3.7,15.3
		c2.2,14.8,3.8,29.8,10.1,43.6c2.1,4.7,4.6,9.2,6.9,13.8c0.4,0.8,0.8,2.1,2.1,1.6c1.7-0.6,0.9-1.9,0.5-2.9c-0.8-2.4-1.7-4.7-2.6-7
		c-6.5-16.6-7.8-34.4-12-51.5c-1.3-5.4-3.2-10.7-3.7-16.8c2.5,0.8,2.4,2.6,2.8,4.1c3.6,13.9,6.5,27.9,8.9,42
		c1.8,10.5,5.6,20.5,9.4,30.5c0.9,2.3,1.5,2.9,3.5,0.6c5.2-6,10.8-11.8,16.3-17.6c1.6-1.7,2-3,0.5-5.1c-39.1-54.8-65-115.5-80.1-181
		c-0.1-0.3-0.4-0.5-1-1.5c-1.6,4.1-3.1,7.8-4.6,11.5s-2.9,7.7-4.3,11.5c-2.3-0.8-1.7-2.1-1.4-3.4c7.3-30.6,15.8-60.9,26.7-90.4
		c1.1-2.4,1.2-5.2,0.4-7.7c-9.3-26-18.4-52.1-27.7-78.1c-1.6-4.4-3.7-8.5-5.6-12.8c-0.7-1.6-1.4-3.5,0.8-4.1
		c1.7-0.5,1.8,1.6,2.2,2.7c9.9,26.6,23.9,51.2,36.7,76.5c0.5,0.9,1.1,1.7,1.7,2.5c1.4-3.1,2.6-5.8,3.9-8.5
		c10.5-22.5,23.2-43.9,38-63.9c6.2-8.3,11.8-16.7,13-27.4c0.3-2.4,0.7-5.2,2.5-7.1c0.8,0.1,1.3,0.9,1.2,1.7c0,0.2-0.1,0.3-0.1,0.4
		c-11.5,38.1-8.8,76.1,0.6,114c2.5,10.2,2.2,9.9,11.5,5c4.3-2.3,5.6-4.9,5.5-9.7c-1.2-53.5-2.9-106.9-5.2-160.4
		c-0.2-4.8-2.3-6.5-6.1-7.6c0.3-0.6,0.5-1.1,0.6-1.1c5.1,1.2,5.4-1.4,4.8-5.5c-0.5-3.9-1-7.9,0-12.3c2.8,2.3,1.8,5.2,1.8,7.4
		c-0.1,7.7,1.4,13.4,9.9,16.9c9,3.7,15.1,11.8,20.7,21.1c-0.7-6.4-4-11.1-4.4-16.5c2.1-0.5,2.1,1.1,2.4,2c1.6,4.4,3.2,8.8,4.4,13.2
		c5.5,21,14.1,40.8,24.6,59.8c7.3,13.3,12.6,27.5,18.6,41.4c1.9,4.4,2.4,10,7.7,12.8c0.8,0.4,0.2,4.2,1.4,6.4
		c4.9,8.9,9.6,17.9,13.6,27.2c0.3,0.7,0.8,1.4,1.8,3.4c-5.1-36.2-15.3-69.7-26.1-103.5c3,0.2,2.9,2.1,3.2,3.3
		c5,20.4,15.2,38.6,24.5,57.2c1.4,2.7,2.6,3.7,5.7,2.6c3.3-1.2,6.7-1.9,10.2-2.3c3.7-0.4,3.9-1.7,2.7-4.8
		c-6.4-16.6-13.4-33-20.9-49.1c-0.8-1.7-2.3-3.2-1.6-5.8c2.3,0.5,2.5,2.5,3.1,3.9c7.6,15.9,14.7,32.1,20.7,48.7
		c1.7,4.6,3.6,6.5,8.8,6.1c8.7-0.6,17.2,1,25.6,3.6c1.4,0.4,2.8,0.6,4.1,2.1c-1.9,1.9-3.6,0.3-5.1-0.1c-8.3-2.4-17-3.6-25.6-3.6
		c-3.2,0-4.7,0.4-3.1,4.1c2,4.6,3.4,9.3,5.7,13.8c17.1,33.8,29.6,69.1,35.5,106.6c0.2,1.1,0.5,2.3,0.8,3.5c1.6-0.2,1.5-1.5,1.9-2.4
		c8.8-21.9,12.4-45.5,10.5-69c-0.4-5.3-1.2-10.6-1.3-15.9c-0.2-6.9-2-13.6-5.5-19.5c-0.6-1.1-1.8-2.1-0.7-3.8c2.2,0,1.9,2.8,3.7,3.6
		c-4.9-50-16.5-97.5-46.5-139c2.9-0.1,3.4,1.8,4.3,3.2c20.6,30.3,34.1,64.8,39.5,101c2.1,13.8,4,27.7,6,41.5c0,0.8,0.2,1.6,0.4,2.4
		c3.2,8,5.7,16.3,7.7,24.8c1.8,8.3,2.6,16.7,3.4,26.5c4.4-54-1.6-105.2-20.5-154.6c-3.6-9.4-6.9-19.3-12.5-27.6
		c-9.3-13.8-18.6-27.6-29.2-40.5c-18.1-22.1-39-41.6-62.3-58.1c-1-0.8-2-1.7-2.9-2.6h4c0.6,0.7,1.3,1.4,2,2
		c27,19.4,50.8,42.9,70.5,69.6c0.5,0.7,0.8,1.8,2.6,1.9c-5.9-9.7-12.6-18.5-19.8-28.3c3.7,0.4,4.2,2.2,5.1,3.4
		c14,18.1,25.9,37.6,35.7,58.3c2.7,5.7,4.7,11.7,8.4,17c12.4,17,21.8,35.9,27.8,56c0.4,1.2,0.1,3.2,2.2,3.4
		c-0.9,1.4-0.5,2.9-0.2,4.3c1.4,6.8,2.8,13.6,4.2,20.4c-0.4-8.4-0.4-16.8-4.1-24.7c3.1-4.3-1.4-9,0.4-13.6c2.1,1.5,1.9,3.4,2.2,5.1
		c1.3,8.7,3,17.3,6.2,25.6c5.2,14,8.9,28.6,11,43.4c2.2,14,3.6,28,5.4,42.1c0.6-1.6,1-3.2,1.3-4.8c3.3-17.2,5.4-34.5,6.4-52
		c1.1-19.2,0.2-38.2-1.5-57.3c-1.8-19.3-11.8-35.8-17.4-53.8c-3.1-10.1-8.5-19.5-13.8-28.7c-19-33-38.8-65.3-70-88.7
		c-0.2-0.2-0.3-0.5-0.5-0.8h3c9,7.8,18.4,15.2,27,23.5c17.6,17.1,33.8,35.5,48.5,55.1c10.6,14.2,19,29.8,29.4,44
		c17,23.2,30.4,48.1,38.7,75.6c5.2,17.5,9.9,35.2,12.8,53.3c2.2,13.9,3.8,27.8,5.5,41.8c1.6-14.5,8.2-28.6,2.9-43.5
		c-0.3-0.9-0.6-2.7,0.3-2.4c5.3,1.7,2.6-2.7,2.6-3.7c1.1-60.7-16.7-115.4-53.9-163.6c-0.6-0.8-1.2-1.6-1.8-2.4s-0.9-1.5,0-2.1
		c0.8-0.5,1.2,0.2,1.6,0.7c0.8,0.9,1.5,1.8,2.2,2.8c35.7,46.5,54,99,54,157.6c0,11.9,0.7,23.4,3.5,34.9c4.1,17.3,4.5,35,3,52.7
		c-0.4,4.6-0.8,9.2-1.2,13.8c5.2-8,8.2-16.6,10.6-25.4c2.5-8.9,4-18.1,4.3-27.4c3,5,2.1,10.7,2.6,16c0.6,5.6,0.1,11.3,0.1,16.9
		c9.3-31.5,16.1-63.2,12-96.1c-1.2-9.4,0.2-20.2-10.4-26.1c2.3-1.6,3.7,1.7,6.2,1c-1.8-6.8-3.5-13.6-5.5-21c2.3,0.7,2.5,1.9,2.7,2.7
		c3,11.5,7.1,22.8,12.1,33.6c6.2,13.1,9.7,27.2,12.3,41.5c1.7,9.4,4.5,18.6,8.3,27.4c0.4-13.8,1.1-27.6-1-41.3
		c-5.8-37.6-18.7-72.8-37.3-105.8c-9.8-17.4-20-34.7-34.6-48.7c-6.5-6.2-13.2-12.2-19.8-18.3c-0.6-0.6-2-1.2-0.8-2.3
		c0.8-0.8,1.5,0.1,2.1,0.6s1,0.9,1.5,1.3c42.2,37.4,78.6,79.6,107.6,128.1c0.7,1.2,1.1,2.7,2.9,3.5c-5-21.4-11.3-41.9-23.1-60.5
		c-19.8-31.3-45.4-56.9-75-78.9C690,44.4,667,32.2,644.5,19.2c-9.8-5.7-19.8-11-28.5-18.2h4c8.3,6.7,17.7,11.8,26.9,17
		c25.4,14.6,51.2,28.5,74.2,47c27.4,21.9,51.4,46.9,69.3,77.3c8.7,14.8,14,30.9,18.4,47.3c3.3,12.4,6.7,24.7,9.9,37.1
		c0.4,1.5,1.8,3.3-0.1,5.5c-2.6-4.5-3.2-9.3-4.4-13.8c-1.4-5.3-3.5-10.4-6.3-15.1c-18.7-32.3-40.9-62.5-66.2-90
		c-1-1.2-2.1-2.3-3.5-3.1c39.3,61.2,60.8,126.8,50.7,201.1c-1.8-2.2-1.2-4.2-1-6c1-9.5-0.3-19-3.9-27.8
		c-5.9-15.3-7.1-31.8-12.3-47.3c-2.4-7.2-4.7-14.5-8.5-21.3c8.4,46.4-3.1,90.2-17,133.7c-0.3-6.3,2.6-12.1,2.4-18.4s0-12.7,0-20.1
		c-0.6,1.4-1.1,2.8-1.6,4.2c-3.5,16.5-10.1,32.2-19.5,46.2c-1.6,2.3-1.4,4.1-0.5,6.4c3.9,9.4,8.4,18.5,13.6,27.2
		c19.4,33.3,29,69.6,33.1,107.5c0.7,6.8,0.8,13.6,1.2,20.4c0.1,1.5,0.3,3.2-0.8,4.9c-2-1-1.3-2.7-1.3-4c0.1-16.5-3.6-32.9-10.9-47.8
		c-6.6-14-12.7-28.2-19.1-42.3c-1.2-2.5-2.6-4.9-4.2-7.2c11,42.4,19.3,85.1,19.3,129.1c0,11.5-0.6,23-1.9,34.4
		c-0.1,0.6-0.1,1.3-1.5,1.7c-0.8-6.4-2.5-12.6-4.6-20.3c-2.2,11.5-3.9,21.5-6,31.4s-4.5,19.5-8.5,29.5c-0.7-1.1-1.2-1.6-1.1-1.9
		c4.3-10.5,2.3-21.4,1.4-32.1c-2.2-24.7-8.3-49-18-71.9c-0.3-0.8-0.8-1.5-1.2-2.4c-3.7,6-5.3,11.8-3.2,18.9c4,14,5.6,28.4,6.5,42.9
		c0.1,1.9,0.8,3.9-1.2,5.9c-2-17.4-3.5-34.9-8.4-51.9c-1.7,0.2-1.8,1.5-2.2,2.4c-7.2,14.5-14.9,28.7-23.4,42.4
		c-1.5,2.2-1.9,4.9-1,7.4c8.3,24.7,8.4,51.3,0.5,76.1c-0.5,1.5-2,3.2,0.3,4.9c13,9.4,19.6,23.1,23.5,37.9
		c8.6,32.7,20.9,64.2,30.4,96.6c1.9,6.4,3.4,12.9,4.7,19.4c4.5,22.3,16.8,40,32.7,55.5c7,6.9,14.6,13.1,22,19.7
		c18.8,16.6,23,37.8,18.8,61.4c-1.9,10.7,0.2,20,7.5,28.3c6.9,7.8,10.8,17.5,14.8,27v7c-1.5-1.3-1.4-3.3-2-5
		c-3.2-9.9-7.5-19.4-14.3-27.2c-8-9.2-10.3-19.5-8.1-31.1c4.7-25.5-2.3-46.7-22.9-63.1c-2.4-2-3.7-2.3-5.7,0.4
		c-6.3,8.4-9.5,17.5-7.5,28c1.8,8.8,0.1,17.9-4.7,25.4c-3.2,5.2-6.7,10.3-10.3,15.3c-7.1,9.9-12.9,20.6-17.4,31.9
		c-4.1,10.5-8.7,20.9-13.1,31.3h-2c10.4-24.7,18.5-50.6,35.9-72c2.5-3.3,4.7-6.9,6.5-10.6c2.8-5.2,4.3-11,3.4-16.8
		c-1.4-8.3-1.3-16.5,1.2-24.6c2.1-3.1,3.9-6.6,6.4-9.3s1.6-4.1-0.8-6.1c-14.6-12-26.7-26-35-43.1c-0.2-0.5-0.5-1.2-1.9-0.9
		c2.9,12.8,2.8,26.1-0.2,38.9c-0.3,1.4,0.3,3,0.3,4.5c0,4.5,3.2,5.3,6.7,5.7s6.6,0.3,8.4-3.6c3-6.6,7.3-7,12.2-1.4
		c3.9,4.5,4.3,9.9,4.1,15.5c-4.3,5.5-6.2,6.1-13.2,3.8c-5.9-1.8-11.3-5.1-15.4-9.7c-2.1-2.3-4-4.8-7.1-5.7c0.5-1.7,3.1-1.4,2.4-3.9
		c-1.4-4.8,0-9.5,1-14.2c0.7-3.4,1.7-6.9,0.1-10.9c-12.2,27.4-24.1,54.2-36,81.1c-0.6,1.7-0.9,3.5-0.8,5.4
		c-1.7,26.7-6.4,52.8-14.9,78.1L692,1025z M649.8,299.7c-3.6-32.2-5.8-64.6-17.4-95.2c1.4,24.1,0.6,48.2-0.5,72.3
		c-1-50.1-3.4-99.6-33.5-142.8c11.1,31.6,17.6,64.6,19.3,98s-1,66.9-7.8,99.6c-0.5-9,1.4-17.8,1.3-26.9c-0.1-11.8,1.4-23.6-0.3-35.4
		c-1.1-7.8-2.3-15.5-5.7-23.9c-0.1,0.9-0.2,1.7-0.2,2.6c0.1,2.7,0.3,5.3,0.5,8c2.2,25.1-0.7,49.6-10.3,73
		c-2.3,5.5-3.9,10.9-2.3,16.9c0.2,0.9,0.7,2.4-1.1,3c-1.9-1.6-0.5-4.5-2.1-6.1c-1.8,0.7-1.5,3.6-4,3.9c-0.6-1.9,0.5-3.1,1.2-4.3
		c2.3-3.6,2.6-7.4,1.9-11.5c-4-25.2-10.7-49.8-20-73.6c-2.8-7.1-5.8-14-9-21.5c-0.6,1.1-0.7,2.5-0.2,3.7c3.4,13,6.1,26.3,7.9,39.6
		c1.6,11.1,0,22.5,3,33.5c0.2,0.8,0.6,3.8-1.6,4.1c-1.5,0.2-2-1.5-1.9-2.9s-0.9-2-2-2.5c-10.2-4.8-21.2-7.6-32.5-8
		c5.5,3.7,8.5,7.6,9.7,12.6c5,20.6,6.6,41.8,7.8,62.8c0.5,8.8-3.9,13.3-12.7,15.3c-5.3,1.2-10.8,2-16,4c-9.4,3.5-18,2.1-26.6-3.3
		c-15.4-9.6-30.7-19.4-47.3-26.8c-2.4-1.1-4.4-2.5-7,0.3c-2.4,2.5-2.5,4.6-1.4,7.6c15.2,42.7,40.4,78.5,74.9,108
		c1.9,1.6,4.7,2,6.7,5.6c-39.7-11.5-66.3-36.4-84.2-71.7c2,9,4.5,17.9,7.4,26.6c7.8,23,18.4,45.1,31.4,65.6c0.6,1,2.5,2.2,1,3.3
		s-2-1-2.6-1.9c-9.7-13-18-26.8-26.5-40.5c-3.5-5.6-6.9-11.4-10.4-17.2c-0.8,1.4-0.1,2.3,0.1,3.2c8.2,30.1,21.6,57.9,37.7,84.5
		c1.6,2.8,4.4,4.9,7.6,5.6c22.6,6.2,45.2,13,66.5,23c23.7,11.1,46,24.3,61.6,46.3c1.6,2.3,3.4,1.9,5.7,1.2
		c15.9-4.9,31.6-10.4,48.4-11.8c5.5-0.5,9.1-3.8,10.1-9.5c0.8-4.3,2.3-8.4,4.5-12.1c9.5-16.2,19.2-32.3,27.3-49.3
		c1.4-3,4.1-5.9,2.4-9.8c-0.2-0.6,0-1.2,0.7-1.6c4.7-3.3,6-7,4.7-12.7c-0.2-0.8-0.5-2.2,0.3-2c4.9,1.2,3.5-3.1,4.2-5
		c1.8-5.2,3.1-10.5,4.4-15.9c4.7-19.1,4.3-37.8-3.2-56.4c-4-9.9-7.4-20-12.1-29.6c-8.5-17.5-10.5-36.5-10.5-55.2
		c0.2-10-1.5-19.9-5-29.2c-1-2.5-2.3-5.7-6.7-4.9c1,1.9,1.8,3.5,2.5,5.1c3.2,6.8,5.8,14,4,21.2c-3.5,13.7-5,27.8-8.7,41.4
		c-0.6,2.1-1.1,3.6,1.9,3.6c1,0,2.1-0.1,1.8,2.1c-4.4-1.2-7.4,1-9.3,5.1c-2.2-2.7,3.2-5.4-1.4-7.6c-6.7-3.1-9.2-9.3-10-16.3
		c-1.1-10.8-1.4-21.6-0.9-32.5c0.4-11.6,3-22.3,9.6-32.2c7.5-11.1,14.2-12.5,24.5-4c0.6,0.3,1.1,0.6,1.7,0.9
		c-0.1-2.4-0.1-4.8,0.1-7.2c0.6-4.3-1.3-6.2-5.2-7.5c-7-2.4-14.6-2.1-21.5,0.7c-1.1,0.4-2.8,2.5-3.7,0.2c-0.5-1.4,1.7-1.7,2.8-2.2
		c7.5-3.4,16.2-3.6,23.8-0.5c3.1,1.2,3.8,0.4,3.5-2.6c-0.3-3.5-0.5-7-0.7-10.5c-1.5-31.4-6.1-62.3-15.8-92.2
		c-2.2-6.9-5.2-13.7-7.9-20.5c-1-2.6-1.7-5.4-4.4-8c2.3,13.2,4.5,25.6,6.6,38.1c3.3,19.3,5.2,38.6,1.6,58.1
		c-1.5,7.9-4.8,15.3-5.9,23.2c-0.7,4.6-2.9,7.2-6.2,9.9c7.6-19.3,3.5-39.1,2.4-58.6c-1.1-20-4.8-39.6-12.9-58.1
		C664.7,208.3,661,254.2,649.8,299.7z M453.5,477.8c0.3-3.2-0.7-4.4-1.3-5.7c-6.6-15.1-12.2-30.6-16.6-46.5
		c-2.5-8.9-3.6-18.2-7.6-26.8c-11.2-23.6-19.9-48.3-26.1-73.7c-0.2-1.5-0.8-2.9-1.8-4c-11.5-12.1-22.8-24.2-32.9-37.4
		c-6-7.8-11.8-15.7-17.6-23.5c-1.4,0.8-1.5,2.2-2,3.4c-6.4,17.3-12.7,34.7-19.1,52c-1,2.7-0.7,5.2-0.1,7.8c2.8,12.3,6,24.5,9.6,36.7
		c18.7,62.2,47.7,118.9,88.9,169.2c1.7,2.1,3.4,6,6.8,0.2c-1.8,5.5,0.4,8.6,3.7,11.5c3.6,3.1,6.8,6.6,10.4,9.8
		c18.5,16.6,39.1,30.4,59.3,45c0.3,0.2,0.8,0.1,1.6,0.2c-14.2-18.7-27.3-38.3-39.3-58.5c-12-20.6-23.2-41.6-30.1-64.5
		c-5.8-19.5-12.1-38.7-23-56c-0.6-0.9-2-2.2,0.4-3.7l11.4,21c1.1-1.7-1.2-3.5,1.8-5.5C432.1,447.5,444.8,460.9,453.5,477.8z
		 M479.3,548.5c10.7,19.5,24.7,35.3,34.9,53.9c-25.4-17.5-51.1-34.2-73.6-55.4c-1.6,2.1-3,4-4.4,5.8c-9.6,11.5-19.4,13.1-32,5.1
		c-5.5-3.5-7.6-2.7-9.7,3.6c-0.3,1.3-0.5,2.6-0.5,3.9c-0.2,2.7-0.8,5.4-2.8,7.3c-7.7,7-11.3,17.9-21.5,22.8
		c4.4,1.2,8.6,1.9,12.8,2.8c13.6,2.8,25.6,9,36.6,17.5c13.4,10.4,28.1,17.7,45.5,18.7c7.2,0.4,13.7,3.2,18.5,8.7
		c5.9,7.1,13.6,12.4,22.3,15.3c2.8,1,5.5,2.3,8.1,3.8c2.4,1.4,4.4,1.3,6.9,0c11.3-6.1,23.9-9.5,36.8-10c11.3-0.4,22.6-0.3,33.9-2.2
		c17.6-2.9,35.4-4.5,53.2-2.2c1,0.1,2.3,0.8,3.1-0.8c-4.5-5.9-11-9-17.3-12.2c-10.1-5.2-18.6-12.2-24.9-21.8
		c-2.4-3.4-5.2-6.5-8.3-9.3c-11.1-10.1-23.4-18.8-36.7-25.8c-20.5-11-42.4-18.3-64.6-25C490.4,551.6,485.3,550.2,479.3,548.5z
		 M559.8,837.7c-23.2,17.3-47.1,20.7-72.5,7.3c-11.8-6.2-23.2-13.1-34.6-19.9c-17.6-10.5-31-25.6-43.6-41.5
		c-0.6-0.8-1.4-1.5-0.5-2.6c1-1.3,1.6-0.2,2.3,0.5c8.2,7.8,18,13.1,28.1,17.9c2.4,1.2,4.9,4,8.1,1.3c0.4-0.3,1-0.2,1.3,0.3
		c0.1,0.2,0.2,0.3,0.2,0.5c-0.7,3.6,2.5,3,4.1,3.6c28.5,10.5,57.6,9.3,86.9,4.3c16.2-2.8,32.2-7.2,48.9-6.4c2.4,0.1,4.4-1.1,7.3-0.4
		c5.7,1.4,11.9,1.3,17.9,1.4c1.8,0,3.4-0.6,5.6,0c7.2,1.7,14.7,2.3,22.1,3.3c-1.3-2.6-3-4.9-5.1-6.9c-20.4-20.7-45.2-33.2-73.4-39.1
		c-25-5.2-50.4-4.6-75.7-3.5c-13.5,0.6-27,1.1-40.3-2c-25.9-6-46-21.2-62.5-41.4c-1.6-2-3-3.5-4.7-2.7c-1.2-8.5-8.2-13.9-10.9-21.3
		c-0.5,0.5-0.7,1.2-0.7,1.9c-0.6,24.5,3.7,48.9,12.5,71.8c13.5,35.5,39.1,63,60.1,93.9c0.1-0.6,0.3-1,0.2-1.2
		c-9.1-17.5-18.6-34.6-33.6-48c-0.5-0.4-1-0.8-1.5-1.3c-0.7-0.9-0.8-2.2-0.1-3.2c1.3-1.5,2,0.2,2.7,0.9c3.4,4.1,7.4,7.7,11.7,10.8
		c1.5,1,2.7,3.3,5,0.9c0.8-0.9,1.9,0.4,1.6,0.8c-2.5,3.7,1.2,4.2,2.8,5.5c15.9,13.4,34.1,22.7,53.1,30.8c11,4.8,22.6,8.1,34.5,9.7
		C536,866.1,553.4,855.8,559.8,837.7z M649.7,753.7c0-2,0-3,0-4c0.1-6.9-1.7-11.7-9.6-14.1c-8.1-2.4-14-9.3-21.3-13.7
		c-35.4-21.3-72.2-39.9-108.9-58.8c-19.1-9.9-40-15.2-60.7-21c-15.7-4.4-31.8-7.3-46.4-15.1c-3.8-1.9-8.1-2.5-12.2-1.5
		c-8.2,1.7-13.6,7.2-18.7,13.3c-4.4,5.2-7.1,10.7-5.2,17.8c0.4,2.1,0.5,4.3,0.4,6.5c-0.3,14.5,2.5,28.1,11.6,39.8
		c0.1,0.1,0.2,0.3,0.3,0.4c1.4,2.7,2.8,4.1,6.1,2c3-1.9,6.8-1.8,10.2-1c3.9,0.9,7.9,1.3,11.9,1.3c13.7,0.2,27.3,0.3,41,0.4
		c21.2,0.1,42.5-0.4,63.2,4.4c16.8,3.9,33.5,7.2,50.7,8.2c16.2,1,31.9,5.6,46.1,13.4C621.8,739.3,636.9,743.5,649.7,753.7z
		 M624.2,807.1c-0.1,0.3-0.3,0.6-0.4,0.8c1.4,1.1,2.8,2.2,4.3,3.2c9.1,6.4,19.3,10.4,29.7,13.9c8.6,2.9,16.9,6.2,23.7,12.5
		c0.6,0.6,1.2,1.8,2.2,1.2c1.5-7.5-0.5-13.2-6.3-18.6c-7.2-6.6-13.6-14.2-19.8-21.8c-10.3-12.8-23-23.3-37.5-31
		c-1-0.5-2.7-0.6-2.5-2.6c2.1-1,3.5,0.7,4.9,1.5c13.7,7.3,25.8,17.3,35.6,29.4c1.3,1.6,2.2,3.9,4.7,0.9c10.1-12.1,6.3-29.9-8.1-36.3
		c-0.3-0.1-0.6-0.4-0.9-0.4c-2.3,0-2.4,0.1-3.4-2.3c-0.9-2-2.8-2.8-4.4-3.9c-17-11.3-36.3-18-54.6-26.7c-6.2-3-13-4-19.8-5
		c-13.7-2-27.7-1.3-41.1-4.9c-23.3-6.4-47.1-8.5-71.2-8.7c-22.3-0.2-44.6,1.4-66.8-2.1c-1.3-0.2-2.7-0.1-4,0.3
		c-5.4,1.2-5.8,2.3-2.4,6.6c24.9,30.4,56.4,45.7,96.2,42.7c20.3-1.6,40.7-1.5,60.9,0.3c26.7,2.5,51.5,10.3,73.8,25.4
		c11.6,7.8,21.5,17.5,31.2,28.9L624.2,807.1z M267.1,788c-1.9,2.1-2.8,3.1-3.7,4c-19.2,21.2-35.2,44.7-52,67.8
		c-3.3,4.6-3.9,9.1-2.1,14.5c6.9,20.3,16.6,39.2,27.3,57.7c11.8,20.4,22.2,41.3,29.2,63.9c1.1,3.6,1.6,7.3,3.6,11
		c5.6-6.2,10.4-12.6,15.1-19c1.5-1.9,2.1-4.5,1.6-6.9c-6-38.2-6.5-76.6-3-115.1c0.3-2.6-0.2-5.3-1.5-7.6
		c-5.4-10.5-9.4-21.6-11.8-33.2C267.2,813.2,266.6,801.3,267.1,788z M313,936c16.4-37.3,24.2-76.8,30.8-116.7
		c6.6-40.1,7.7-80.2,2-120.7c-7.3,3.9-11.7,10.6-15.5,17.6c-4.4,8.3-11.5,14.9-20,18.8c-2.5,1.1-3,2.1-3.2,4.4
		c-1.6,14.9-3.9,29.7-6.4,44.5c-5.3,29.2-8.4,58.7-9.5,88.3c-0.2,3.5,0.7,6.9,2.7,9.8c7.3,11,12.6,23.2,15.6,36
		C310.8,924,311.8,930,313,936z M649.1,732.5c1.1,5.6,4.1,4.6,7.2,3c4.1-2.1,6.3-6,8-9.8c3.8-8.7,7.5-17.4,11.9-25.8
		c0.6-1.2,1.3-2.5,0.9-3.8c-2.8-11.4-4.7-23.3-16.6-29.7c-0.4-0.2-1.1-0.5-1.1-0.8c-0.6-5.1-4.4-8.2-6.9-12.2
		c-1-1.5-2.7-2.5-4.5-2.6c-11.1-1.6-22.2-2-33.4-1.2c-19.2,1.7-38.2,5.7-57.7,5.1c-7.2-0.2-14.3,1.4-21.1,3.6
		c-5.4,1.8-10.8,3.6-16.1,7.3c13.3,7,26,13.5,38.6,20.3c25.8,13.8,52,27,75.9,44.1c3,2.1,6.4,3.5,9.6,5.3
		C646.3,736.5,648.2,736.4,649.1,732.5z M309,540c2.1,7.5,7,4.4,10.8,4.6c2.2,0.1,3.1-1,2.7-3.5c-1.2-6.5-2-13.2-2.9-19.8
		c-3.7-25.9-7.5-51.7-9.6-77.8c-2.8-34.2-5.1-68.4-10.1-102.4c-0.5-3-0.2-6.4-2.3-9.7c-0.6,1.8-1,3.1-1.4,4.3
		c-11.6,36.5-18.3,74.2-26,111.7c-4.7,23-8.3,46.2-7.9,69.8c0,3.7,0.3,7.2,3.5,9.8c8.5,7,17.7,12.7,28.8,14.6
		c2.8,0.5,5.6,1.1,8.3,1.8S308.1,544.8,309,540z M285.5,320.3c-6.3,5-12.4,6.5-18.6,7.9c-3.6,0.9-6.7,3.1-8.7,6.3
		c-2.1,3.4-5.2,6.1-8.9,7.8c-3.7,1.7-6.6,4.8-6.8,8.7c-0.3,5.3-2.8,9.5-5.6,13.2c-5.2,7-8.5,15.2-9.5,23.8c-1.2,9-4.9,18-2.8,27.1
		c3.3,14.2,4.2,28.6,5.7,43c0.9,8.7,1.8,17.6,5.9,25.6c0.6,1.2,0.9,3.6,2.6,3c2.9-1.1,2.3,0.7,2.1,2c-0.2,1.7,0.3,3.3,1.4,4.6
		c2.5,3.7,4.7,7.7,6.5,11.8c1.5,3.5,3.6,6.8,6.1,9.8c4.2-33.1,8.2-65.2,12.2-97.4S281.2,354.2,285.5,320.3z M438.3,127.2
		c2.1,1.4,2.8,3.7,3.6,5.7c13.6,33.9,28.2,67.4,35,103.6c1.2,5.8,3.2,11.5,6.1,16.7c0-2.6,0.1-3.8,0-4.9
		c-1.4-27.1-4.9-54.1-10.6-80.6c-3.8-17.4-5.4-35.6-14.9-51.4c-0.2-0.6-0.4-1.3-0.4-1.9c-1.5-9.8-5.7-18.9-12-26.5
		c-5.6-7.1-13-12.5-21.4-15.7c-1,1.9-0.5,3.6-0.4,5.2c1.8,37.3,3.1,74.6,4,111.9c0.4,15.8,0.9,31.6,1.2,47.5
		c0.1,3.8,0.6,5.2,4.6,2.7c8-4.9,16-9.5,24.4-13.7c3.8-1.9,4.6-4.3,4.4-8.2c-0.8-20-5.5-39.2-11.4-58.2c-3.1-9.3-6.9-18.4-11.3-27.1
		C438.5,130.6,436.8,129.4,438.3,127.2z M256.9,316.7c-0.2-2.4-0.1-3.3-0.3-4.2c-2.4-14.5-4-29-4.8-43.6
		c-1.1-20.9-1.3-41.8-4.2-62.7c-4.7-32.9-3.3-66.4,3.9-98.8c3.8-17.2,12.9-33.3,10.9-51.8c0-0.8,0.1-1.7,0.2-2.5
		c0-1.3,0.4-2.7-1.1-3.7c-3.2,2.1-4.6,5.5-6.4,8.7c-16.8,29.6-25.4,61.4-28.6,95.3c-3.6,38.8-6.8,77.6-9.7,116.4
		c-0.7,9.9,1,15.7,10.8,20.1C239.6,295.2,248.9,304.6,256.9,316.7z M547.9,374.7c-0.5-4.7-1.4-11.2-2-17.6
		c-1.1-12.4-2.7-24.8-4.9-37.1c-2-10.8-11.5-19.3-22-16.4c-5.2,1.5-10.9,1.8-16,3.6c-16.9,6-32.8,13.4-41.1,30.8
		c-4.1,8.6-8.6,16.9-15.3,23.9c-1.6,1.7-1.5,2.5,0.7,3.5c18,7.9,34.4,18.8,51.3,28.9c5.8,3.5,11.7,4.5,18.2,2.6
		c6.2-1.8,12.4-3.6,18.8-4.9C545.1,390.2,548,386.3,547.9,374.7L547.9,374.7z M755,571.4c0.3-5.3,0.7-10.6,0.8-15.9
		c0.8-40.4-5.7-79.9-15.5-119c-3.1-12.4-5.3-25-12.3-36.2c-8.9-14.2-17.3-28.8-26-43.2c-0.4-0.8-0.5-2-2.2-1.7
		c-0.6,15.1,3,29.3,8.7,43.1c3.7,9.1,7.8,18,11.1,27.2c4.3,11.9,8.9,23.7,8.4,36.7c-0.7,15.3-3.6,30.4-8.7,44.9
		c-1.4,3.7-1.3,7.8,0.3,11.4c7.2,16.8,12.4,34.5,15.6,52.5c2,10.9,2.7,21.9,4.2,32.9c1.7-5.6,3.1-11.2,4.2-16.9
		c2.7-15.3,6.9-30.7,0.7-46.2c-0.3-0.8-0.2-1.7,1.2-2c1.8,2.4,1,6.1,2.8,8.1c1.3,1.4,2.9,2,2.5,4.3
		C749.8,558.5,752.7,564.9,755,571.4z M400.8,153.1c-4.2,5.4-6.1,10-6.6,15.7c-3.9,44.4-2.6,88.6,5.1,132.4
		c1.4,8.1,0.5,17.3,7.9,23.5c0.6,0.5,0.5,1.6-0.1,1.6c-5.1,0-1.6,3.2-1.3,4.3c8.1,31.6,20.4,61.5,35.5,90.4
		c7.3,14,16.2,26.8,27.9,37.5c11.3,10.6,24.7,18.7,39.2,24c-1-1.4-2.3-2.7-3.6-3.9c-28.8-26.5-50.7-57.7-65.1-94.1
		c-0.7-1.8,0.6-7.1-4.9-5c-0.7,0.3-0.8-1.3-0.5-2c1.5-4.1,0.1-7.8-1.1-11.6c-3.5-10.8-6.7-21.6-9.3-32.6
		c-5.5-23.4-8.1-47.2-12.4-70.8c-1.2-6.8-1.3-6.8-7.3-3.7c-0.8,0.4-1.7,1.3-2.7,0.1c-0.3-1.5,1.1-1.9,2-2.3c5.5-2,6-5.5,4.7-10.9
		c-3.8-16-7.2-32.1-8.6-48.6C398.5,182.5,398.9,167.7,400.8,153.1z M199.6,724.9c-8.3,22.1-11.4,45.2-13.3,68.4
		c-0.1,1.2,0.2,2.3,0.8,3.3c4.3,7.2,13.9,11.7,21.9,10c2.5-0.5,5.5-0.5,5.8-4.3c0.1-1.1,1.3-1.6,1.7-0.8c1.9,3.9,3.8,0.5,5-0.2
		c16.3-9.7,32.3-19.9,48.8-29.3c10.7-6.1,19.7-14.8,26.2-25.2c2.8-4.3,3.9-9.4,3.2-14.4c-1.6,0.9-2.7,1.5-3.8,2.2
		c-11.6,7.4-24.1,12.9-37.8,15C227.7,754.2,213,749.8,199.6,724.9z M698.6,838.1c0.5-0.7,1-1.4,1.4-2.2c10.3-20.7,18.7-42.3,25-64.5
		c0.6-2.2,0.4-4.6-0.5-6.8c-5.2-16-10.8-31.8-15.4-47.9c-5.6-19.4-9.6-39.3-29.7-50.4c-5.6-3.1-10.9-4.2-17.4-5.3
		c1.4,2.8,3.6,5.1,6.5,6.5c15.4,8.6,22.7,23.8,19.9,41.1c-1.4,8.7-3.2,17.3-4.2,26.1c-0.7,6.9-0.8,13.8-0.2,20.6
		c1.6,20.5,0.9,40.9,1.6,61.4c0.2,6.3,1.3,11.2,6.8,14.8C694.7,832.9,696.3,835.5,698.6,838.1L698.6,838.1z M261.5,619.2
		c-7.3,7.9-15.5,14.9-24.5,20.9c-7.4,4.8-7.3,4.8-5.8,13.5c2.6,15.4,6.9,30.1,15,43.6c5.1,8.5,12.5,13.5,22.7,12.6
		c11.6-1,22.4-6.1,30.4-14.6c1-0.8,1.7-2.1,1.7-3.4c0-15.5,0-30.9,0-46.5C282.2,650.4,273,644,261.5,619.2z M727.6,773.5
		c-0.9,1.2-1.3,1.5-1.4,2c-6.4,21.9-14.9,43.1-25.2,63.4c-0.8,1.5-0.8,3.2,0,4.7c2.8,6.9,2.9,14.5,0.4,21.5
		c-0.9,2.5-0.8,5.2,0.1,7.7c3,9.2,5.2,18.8,4.5,28.5c-0.9,11.8,2.5,22.9,3.5,35.2c0.8-1.4,1.2-2.1,1.5-2.8c10.2-23,20-46,30.6-68.8
		c3.7-7.8,4.8-16.6,2.9-25c-1.2-5.9-3.5-11.6-3.9-17.4C739.4,805.2,732.1,790.2,727.6,773.5z M436.4,368c0.7-2.6,1.1-4.2,1.5-5.8
		c2.9-13.8,5.9-27.6,8.9-41.4c5.1-23.9,10.7-47.7,13.8-72c0.9-7.4,1.9-15,1-22.6c-0.5,0-0.9,0.1-1.4,0.2
		c-6.4,3.6-12.5,7.9-19.2,10.5c-10.2,4.1-14.2,10.7-12,21.4c0.4,1.7,1.1,4.1-1.4,5.8c-1.2-3.2-0.5-6.2-0.8-9.2s0.5-5.9-0.9-8.9
		c-1.5,0.8-2.9,1.5-4.1,2.2c-9.4,5.5-9.5,5.5-7.6,16.2c4.2,24.1,6.9,48.4,12.9,72.2C429.6,347.3,432.7,357.7,436.4,368z
		 M300.2,711.8c-2.9,1.6-5.7,3.3-8.6,4.7c-20.2,10.1-39,6.7-54.5-9.6c-10.1-10.6-15.6-23.5-18.1-37.7l-3.9-21.7
		c-4.3,23.2-8.4,46.1-13.9,68.7c-0.5,1.4-0.7,2.9-0.5,4.4c2.5,12,16.9,25.5,29.2,27.3c25.1,3.7,47.3-3.9,68.1-17.4
		c1.3-0.9,2.3-1.8,2.3-3.6C300.2,722,300.2,717.1,300.2,711.8z M240.5,495.2c-1.2,1-1.2,2.1-1.4,3.2c-4.9,29.3-9.9,58.7-14.8,88
		c-1.9,11.5-5.6,23-1.2,34.9c2,5.7,3.5,11.4,4.7,17.3c0.7,3.3,1.6,3.8,4.5,2c9.6-6,18.4-13.2,26.3-21.3c2-2,2-3.8,1.2-6.2
		c-4.1-13-6-26.6-5.9-40.3c0.1-14.2-0.2-28.3,0.1-42.4c0.2-7.7-0.5-14.6-5.5-21C245.2,505.1,244.3,499.3,240.5,495.2z M566.7,309.8
		c-1.5-9.9-4.4-19.5-8.5-28.6c-1.1-2.5-2.7-3-5.1-3c-8-0.3-16,0-23.9,0.9c-27.8,3.1-52.5,13-72.5,33.2c-5.1,5.1-8.6,10.7-9.7,18
		c-0.8,5.9-2.5,11.7-3.8,17.6c-1.2,5.5-2.3,11.1-3.5,16.6c8.8-6.9,14.7-15.4,18.9-25c4.9-11.1,12.9-19.2,23.3-25.2
		c8.6-5,18-8.7,27.7-11c4.8-1.1,9.7-2.8,14.5-2.7C538.6,300.9,552.8,302.5,566.7,309.8z M450.7,314c28.8-30.2,64.8-39.1,104.8-38.1
		c-1.1-2.1-1.7-3.5-2.4-4.8c-6.2-11.8-6.2-11.6-19.2-9.8c-4.2,0.6-5.4,1.9-3.7,5.7c0.5,1,1.1,2.3-1,2.8c-0.5-0.8-0.9-1.7-1.2-2.6
		c-0.4-4.3-2.8-4.7-6.5-4.3c-11.2,1.3-21.9,3.7-32.1,8.7c-2.3,1.1-3.5,2.4-3.8,5.1s-0.2,5.8-2.8,8.6c-1.2-3.8,1.2-6.7,0.2-10
		c-4.4,2.1-7.9,5.1-11.6,7.8c-0.8,0.6-1.7,2.3-2.8,0.8c-1-1.4,0.8-2,1.5-2.6c3.2-2.4,6.2-5.1,9.8-6.9c3.7-1.9,4.3-4.5,3.6-8.1
		c-2.8-14.9-10.4-28.5-11.8-43.7c-0.1-1.1-0.9-2.1-2-1.4c-2.5,1.5-5.9,1.7-5.9,6.2c0.2,18.1-2.9,35.8-6.5,53.4
		C455.3,292,453,303,450.7,314L450.7,314z M391.4,171.2c-12.3,23.6-24.2,47.2-35.1,71.3c-1.1,2.5,0.2,4.1,1.4,5.9
		c13.6,21.1,26.7,42.6,39.3,64.4c0.7,1.1,1,2.7,2.7,3.2C390,268,387.7,219.8,391.4,171.2z M171.9,912l33.9-48.1
		c0.7-1.1,1.1-2.4,1.2-3.8c1.9-14.7,3.9-29.4,5.9-44c0.3-2.5,1.5-5.6,0.5-7.2c-1.4-2.2-4.5,0.2-6.9,0.3c-8.4,0.2-14.6-3.8-20.7-10.4
		C180.8,837.1,174.7,874.2,171.9,912z M683.3,654.8c6.7-23.4,5.8-46.5-2.2-70.4c-2.1,3.3-3.6,6.9-4.5,10.7
		c-2.1,9.4-5.8,12.2-15.4,13.2c-16.2,1.7-31.5,7.1-47.5,12.2c3.1,3.7,6.9,6.8,11.2,9.1c12.7,6.5,24.7,13.8,32.2,26.6
		c1.2,2.1,2.5,1.6,4,0.2c13.1-11.9,21.3-25.9,18.4-44.4c-0.3-1.9-1-4.2,1.4-4.5c3-0.4,2,2.5,2,4
		C683.1,625.9,685.5,640.3,683.3,654.8z M208.9,284.1c-4.1,0.1-5.8,2.8-4.4,7.8c3,10.9,6.1,21.8,9.4,32.6c3.7,12,12.2,20,22.6,26.3
		c2.2,1.3,3.4,1.3,4.2-1.5c0.8-3.5,3.1-6.4,6.2-8.1c4.7-2.2,7.9-5.9,11.1-9.7c2-2.4,1.9-4,0.7-6.6c-7.9-16.7-21.1-28-37.2-36.2
		c-1.7-0.8-3.8-4-5.9,0c-0.4,0.7-1.5,0-1.5-1.1C213.9,283.7,210.6,284.9,208.9,284.1z M674.4,257.4c3.9-11.3,5.7-23.2,5.5-35.2
		c-0.3-21.2-4.6-42-8.6-62.7c-1.8-9.3-2.7-18.7-7.1-27.4c-4.8-9.6-11.3-18.2-16.6-27.5C637,85.8,623.3,69.1,609.1,53
		c-4.3-4.9-8.4-9.9-13.6-13.9c14,19.2,26.5,39.5,37.5,60.7c7.9,15.4,13.6,31.8,21.1,47.4c10.1,21.2,16.3,44.1,18.2,67.6
		C673.5,228.9,674.2,243.1,674.4,257.4z M703.8,906.3c0-0.8,0.1-1.5,0.1-2.3c-0.1-11.6-2.1-23.2-5.9-34.1
		c-3.6-10.3-8.3-19.6-15.3-27.8c-6.8-7.9-16-11.7-25.6-14.9c-11.4-3.8-22.9-7.8-32.1-15.7c-7-6.1-14.7-5.4-22.7-5.4
		c15.5,9.1,28.8,20.9,42.4,32.4C667.6,858,690.8,877.5,703.8,906.3z M768.2,478l0.7-0.2c0.1-0.9,0.1-1.9,0-2.8
		c-4.4-24.5-10.7-48.4-22.1-70.6c-9.8-19-20.5-37.6-27.9-57.8c-0.5-1.4-0.3-4.3-3.5-3.8c-0.9,0.1-1-0.9-1-1.8
		c-0.6-8-6.7-12.4-11.2-18.9c-2.5,15.7-5.2,30.2,5.8,43c2.8,3.2,4.4,7.4,6.7,11.1c4,6.6,8,13.2,12.6,20.7c0-2-0.4-3.1,0.5-3.4
		c1.8-0.5,1.8,1.2,2,2.1c2.4,10.4,8.3,19.1,13,28.5c3.3,6.5,6.2,13.2,9.2,19.9C758.2,455.3,763.2,466.6,768.2,478z M307.2,687
		c0.1,0.3,0.4,0.7,0.3,0.9c-3.7,5.8-7.9,11.6-2.2,18.5c0.1,0.2-0.2,1-0.6,1.2c-2.4,1.6-1.8,4.1-1.8,6.4c-0.4,9.5-0.3,19-1.1,28.5
		c-2.7,30.5-7.8,60.7-12.4,91c-6.1,41-8.4,82.1-4.2,123.5c0.8,8,1.5,16,3.4,24.2c0.5-0.5,1-1,1.4-1.6c2.5-3.9,4.9-8,7.5-11.8
		c1.9-2.7,2-5.3,1.3-8.4c-7.2-29.9-10.9-60.1-9.8-90.9c0.7-20.3,2.5-40.5,5.5-60.6c3.5-24,8.1-47.9,10.7-72.1c2.2-20,4-40,5.5-60.1
		c0.9-12.1,1.3-24.2,2-36.4c-9.7,3.6-9.7,3.6-9.7,12.5c0,10.3,0,20.7,0,31c0,2.2-0.5,4.5,0.4,6.6C305.2,688.9,305.1,686.3,307.2,687
		z M366.6,642.5c2.7-4,5.8-7.8,9.3-11.2c10.1-9.5,20.2-10.8,32.4-4.3c3.1,1.7,6.3,3,9.6,4c19.8,5.7,39.6,11.3,59.5,16.9
		c3,0.9,6,1.9,9.5,3c-6.8-9.7-15.5-14.5-26.6-14.8c-1.7-0.1-3.3-0.4-4.9-0.7c-15.4-2.2-28-10.4-39.9-19.6
		c-13.9-10.8-29.9-15.6-47-17.7c-3.7-0.5-4.5,0.8-4.4,4.3c0.5,11.3,0.8,22.6,1.2,34C365.4,638.3,365.2,640.3,366.6,642.5
		L366.6,642.5z M263.2,528.6c-1.1,23.2,2.7,45.4,5.2,67.7c1,8.8,3,10.7,11.6,12.9c4.4,1,9,0.9,13.3-0.4c3-0.8,3.8-2.3,3.2-5.4
		c-3.5-20.9-9.2-41.3-17-60.9c-0.7-1.7-1-3.5-2.7-4.6C272.5,534.9,268.1,531.9,263.2,528.6z M525.5,260.3
		c-1.4-6.2-3.6-12.2-6.3-17.9s-5.3-11.5-8.2-17.1c-2.6-5-3.9-12.4-8.5-14c-4.3-1.5-10.3,2.4-15.6,3.6c-3.2,0.7-4.2,1.9-3.9,5.4
		c1.1,11.4,1.9,22.9,2.7,34.3c0.4,5.2,0.5,10.4,0.7,16.2C498.9,264.1,511.9,261.6,525.5,260.3z M283.5,857.1
		c2.3-7.6,15.3-103.3,14.9-109.6c-6.6,9.7-12.8,19.1-20.5,27c-7.3,7.4-9.4,15.7-9,25.7C269.9,820,274.1,838.7,283.5,857.1z
		 M693.5,200.3c2.7,13.7,4.9,27.3,6.5,41c1.7,13.9,2.6,27.9,2.9,41.9c0,2,2,3,1.3,5.4c-1.8,6.2-2.1,12.6,0.8,18.8
		c0.4,0.8,1.5,2,0.2,2.6c-4.6,2.4-2.8,6.8-1.3,9c3.7,5.5,8.1,10.7,12,16.7c7.9-16.2,14.8-58.5,11.1-69.8c-0.9,6.3-1.8,11.5-2.4,16.7
		c-1,9.1-4.9,17.7-4.4,27c0.2,3.8-1,5.2-3.7,5.2C718.1,274.4,712.3,236,693.5,200.3z M682.9,823.3c0-14.1,0.1-27,0-40
		c0-6.2-1.2-12.4-0.5-18.4c1.5-12.7-4.6-20.9-14.1-27.9c-3.5-2.5-5.8-5.3-9.5-0.6c-1.1,1.4-3.5,1.7-5.3,2.4c-0.8,0.3-1.9,0-2.4,1.3
		c-1.1,2.9,2.2,16,4.6,18.1c4.9,4.2,9.6,8.7,14,13.5c1.1,0.9,1.7,2.3,1.7,3.8c-0.2,8.6-2,16.5-7.7,23.2c-0.9,1.1-1.7,1.9-0.3,3.3
		C669.7,808.9,676.1,815.9,682.9,823.3L682.9,823.3z M219.9,599.8c5.9-35.4,11.9-70.7,17.8-106.1c0.3-1.8-0.2-3.7-1.4-5.1
		c-3.4-5.4-5.6-11.4-6.5-17.6c-0.8-4.7-1.5-9.4-2.2-14.1c-5.4,35.1-9.2,70.3-12.4,105.6C214.1,575.1,216.7,587.5,219.9,599.8
		L219.9,599.8z M278.6,769.9c-20.3,11.8-39.9,24.5-60.3,35.7c-1.7,1-2.1,2.3-2.3,4c-1.2,9.4-2.6,18.8-3.8,28.2
		c-0.8,6.1-1.5,12.3-2.3,18.4l1.2,0.5C231.9,826.5,254.4,797.5,278.6,769.9L278.6,769.9z M256.1,521.7v5.3c0,14.7,0.1,29.3,0,44
		c-0.2,10.5,0.8,21,3.1,31.2c3,13.2,7.2,26,16.8,36.2c6.5,6.9,15.4,8.5,23.3,4.7c5.7-2.7,11.3-5.5,16.2-9.6
		c5.7-4.8,9.8-10.8,13.9-16.9c4.9-7.1,2.4-14.1,0.8-21.4c-5.3,15.6-15.4,27.4-27.6,37.8c-9.7,8.3-16,8.2-23.7-2
		c-7.1-9.4-10.9-20.3-12.2-32c-2.5-22.3-6.2-44.5-5.8-67.2C260.9,528.3,260.8,524.2,256.1,521.7z M301.8,629.9
		c10.4-7.3,10.4-7.3,9.5-18.4c-0.3-3.6-0.3-7.2-0.5-10.8c-0.9-17.1-1.7-34.2-2.6-51.4c-0.1-1.2-0.1-2.5-1.6-2.8
		c-8.1-1.9-16.3-3.7-25.1-5.7C292.7,569.9,300,599,301.8,629.9z M522.4,814.2c-4.5,0.3-7.7,0.6-10.8,0.8
		c-21.8,0.9-43.2-0.9-63.7-9.2c-4.7-1.9-6.9,2.3-8.9,4.6s1.8,3.5,3.3,4.8c12.7,10.4,27.9,16.8,41.7,25.5c2.3,1.4,3.4-0.3,4.6-1.5
		c7-6.1,14.4-11.9,22.1-17.1C514.2,819.6,517.7,817.3,522.4,814.2z M364.1,595.3c13.4-4.8,18-17.3,26.6-25.9c0.7-0.9,1.1-2.1,1-3.3
		c-0.1-4.1,1.3-8,4.1-11c1.6-1.8,1.2-3-0.4-4.6c-4.3-4.2-8.2-8.8-11.5-13.8c-1.3-2-2.5-2.1-4.4-0.8c-3.5,2.4-7.5,3.7-11.7,3.9
		c-2.4,0.1-3.2,1.1-3.3,3.3C363.6,560.5,363.8,577.8,364.1,595.3z M214,546c0.3-0.5,0.6-1.1,0.8-1.7c2.5-26,5.5-52,9-77.9
		c1.7-13.1,5.2-26.2,1.1-39.4c-3.4-10.8-3.1-21.5-0.9-32.5c2.3-11.6,4-23.3,12.1-32.8c1.1-1.3,1.6-3.3,2.3-4.9
		c0.4-0.9,0.9-2-0.3-2.6c-6-3.1-11.2-7.3-16.8-12.4C218.8,410.2,216.4,477.6,214,546z M566.1,292.8c0-1,0-2,0-3
		c-1.2-20.5-5.7-40.5-11.6-60.1c-2.1-6.9-5.1-13.3-7.7-19.9c-2.4-6.2-1.5-6.5-8-5.2c-2,0.4-3.9,1-5.8,1.3c-4.1,0.7-5.8,1.9-3.2,6.4
		c8.3,14.6,10.8,31.9,21.2,45.6c-0.9,6.4,4.4,10.3,6.1,15.7c0.7,2.2,3.9,2.5,3.7,4.1C560,283.6,564.4,287.6,566.1,292.8L566.1,292.8
		z M689.9,334.1c-0.2-5.4-2.1-11.5-5-17.4c-1.4-2.8-2.7-3.2-5.2-1.1c-7.7,6.3-11.2,14.9-12.3,24.3c-1,9.1,0,18.3,1,27.4
		c0.6,5.9,2.8,10.9,8.2,14.1c2.5,1.5,4,1.2,4.6-1.7c3-14.6,6-29.2,8.9-43.9C689.9,335.6,689.9,335.5,689.9,334.1L689.9,334.1z
		 M307.8,734.1c8.7-4.5,15.2-9.9,19.7-17.5c3.1-5.1,5.3-11.5,10.4-14.4c9.2-5.4,8.8-12.7,6.5-21.1c-0.9-3.3-1.2-6.7-1.8-10.3
		c-0.6,0.2-1.1,0.5-1.6,0.9c-9.4,9.4-18.8,18.8-28.3,28.2c-0.9,0.7-1.6,1.7-1.8,2.9C309.9,712.8,308.9,723,307.8,734.1L307.8,734.1z
		 M453.2,884.1c6.7-9.7,12.8-18.8,19.3-27.5c2.3-3.2,1.4-4.1-1.6-5.5c-15.2-6.8-29.4-15.5-42.4-25.9c-1.5-1.2-3-2.2-4.5-3.4
		C436.2,841.4,447.7,860.9,453.2,884.1L453.2,884.1z M291.9,290l-1.1,0.2c-0.2,2.3-0.5,4.6-0.6,6.9c-0.8,12.8-2.3,25.5-4.6,38.1
		c-6.5,34.5-15.7,68.4-19,103.4c-0.9,10-2.4,19.9-3.5,29.9c2.1-7.2,3.6-14.5,5-21.9c7.7-38.3,14.6-76.8,26.8-114
		c1.8-5,2.2-10.4,1.2-15.6C294.3,308.1,293.2,299.1,291.9,290z M313.1,675.2l1,0.3c7.8-9.3,15.5-18.7,23.3-28c1-1.1,1.4-2.7,1-4.1
		c-1.6-9.6-3.1-19.3-4.8-30.2c-4.9,9.2-10.2,16.7-17.5,22.7c-0.6,0.6-0.9,1.3-0.9,2.2C314.4,650.4,313.7,662.8,313.1,675.2
		L313.1,675.2z M468.5,137.1c5.9,25.3,10.5,51,13.8,76.8c5.7-1.7,11.1-3.4,16.5-4.7c2.8-0.7,2.8-1.7,1.8-4.1c-4-8.9-7.7-18-11.6-27
		C482.9,164,476,150.4,468.5,137.1z M301.9,960.4c2.5-4.9,4.9-9.5,7.2-14c1.2-2,1.8-4.3,1.7-6.6c-1.6-19.4-7.1-37.5-17.3-54.2
		c-0.5-0.8-0.6-2.3-2.2-2C290.7,903.2,296.9,948.5,301.9,960.4z M512.5,183.3c6,23.3,11.2,46.8,14.1,70.7c0.6,4.6,2.2,7,7.4,5.2
		c2.7-0.8,5.5-1.2,8.4-1.1c3.3-0.1,4-1.1,2.6-4.2c-2.4-5.3-4.6-10.7-6.7-16.1C530.8,219.1,522.2,200.9,512.5,183.3z M313,599.5
		c6.2-4,11-9.8,13.9-16.6c1-2.1,1.3-4.5,0.9-6.8c-1.1-6.7-2-13.5-3.1-20.2c-1.5-9.4-1.5-9.3-11.1-8.9c-2.3,0.1-3.2,0.6-3.1,3.1
		C311.4,566.4,312.2,582.6,313,599.5z M388.8,169.6c-32.9,44.8-50.8,96.1-64.2,149.4C341.9,267.4,363.8,217.8,388.8,169.6z
		 M195.4,508.2c0,41.3,2.7,82.5,8.2,123.4c1.2-10.5,5.6-20.6,4.2-31.3C203.8,569.5,199.5,538.8,195.4,508.2z M270.6,607.8
		c2.5,10.3,6.3,19,13.5,25.8c1.3,1.2,2.9,2.2,4.6,2.8c4.4,1.6,11.1-2.2,10.9-6.3c-0.4-6-1.1-11.9-1.7-17.9c-0.2-1.6-0.8-2.5-2.6-1.9
		C287,613.5,279.1,612.1,270.6,607.8L270.6,607.8z M311.7,697.4c10-9.9,19.7-19.5,29.5-29.2c0.5-0.5,0.7-1.1,0.7-1.8
		c-0.8-5.4-1.6-10.9-2.7-17.6c-7,8.5-12.6,16.2-19.2,22.8C312.7,678.9,311.1,687.4,311.7,697.4z M253.5,248.9
		c-0.1,12.2,0.5,24.4,1.8,36.5c1.1,12.6,3,25.1,5.5,37.5c0.3,1.6,0.1,4.4,2.6,4.1c3.1-0.4,6.6-0.9,8.9-2.7c1.9-1.5-0.7-4.5-1.2-6.8
		c0-0.2-0.1-0.3-0.1-0.5C264,294.5,258.4,271.7,253.5,248.9L253.5,248.9z M725,354.2c7.4-9.4,10.6-56,5.3-72.4
		c-1.6,18.1-5.4,35.9-11.3,53.1c-0.7,1.9-1.4,3.6-0.4,5.7C720.7,344.9,722.7,349.3,725,354.2z M699.3,333l0.6-0.2
		c0.3-7.8,0.8-15.6,1-23.4c0.2-6.5-3.6-11.5-10-13.7c-4.4-1.5-8.3,0.2-12.6,5.7c-2.1,2.6-3.6,5.6-4.4,8.8c-0.3,1.1-0.4,2.7-1.2,3.2
		c-4.9,3.1-3,8.2-4.3,12.4c2.7-4.4,5.5-8.4,9.4-11.6c8.2-6.7,13.2-5.6,17,4.2C696.7,323.1,697.8,328.2,699.3,333L699.3,333z
		 M680.6,745.4c2.9-10.8,0.9-35.3-3.3-42.7c-5,8.4-8,17.5-12.2,26.2c-0.7,1-0.5,2.3,0.5,3.1C670.6,736.3,675.5,740.8,680.6,745.4z
		 M390.4,306.7c-11.2-20-23-39.6-36.1-59.3c-1.1,4.3-5.3,7.2-2.4,11.5C363.2,276,376.1,292,390.4,306.7z M429.7,535.7
		c-6.6-7.5-12.5-14.9-18.1-22.5c-0.7-0.9-1.3-2.8-2.9-1.1c-4.9,5.3-9.8,10.6-15.1,16.4C405.9,531.2,417.4,533.8,429.7,535.7
		L429.7,535.7z M314.5,963.8c-3.1,4.9-5.7,9-8.4,13.2c-0.6,1-0.7,2.2-0.2,3.3c2.8,7.8,5.6,15.5,8.7,24.2c2.5-3.4,4.5-6.2,6.5-9
		c1.1-1.6,2.5-3.2,1.8-5.4C320.1,981.5,317.4,973.1,314.5,963.8z M420.2,536.5c-9.4-2-17.7-3.8-26.1-5.5c-3.2-0.6-5.8,0.9-4.6,4.3
		c1.8,5.2,4.6,10,8.3,14.1c0.8,0.9,1.6,1.6,2.8,0.4C406.1,544.6,412.8,541,420.2,536.5z M749.9,892.3c5.1,6.1,12.3,10.2,20.1,11.5
		c2.7,0.5,4.3-1,5.3-3.5c1.9-5-1-13.2-5.8-15.7c-2-1.1-4.2-1.5-4.9,1.2C762.5,893.2,757,893.5,749.9,892.3z M367.2,504
		c-1.2,10.5-0.8,21-2.1,31.3c-0.1,0.9-0.3,2,1,2.5c2.1,0.8,12.7-2.9,13.8-4.9c0.6-1.1,0-1.9-0.5-2.7
		C374.3,522,370.7,513.1,367.2,504z M661.9,658.6c5.9,0.8,10.8,1.6,15.4,3.5c1,0.4,2.2,1.2,2.6-0.8c1.7-10.2,2.6-20.4,1.4-30.8
		C677.5,641.6,670.8,651.2,661.9,658.6z M671.7,141.1c5.3,11.9,10.9,23.6,14.6,36c3.7,12.7,11.3,23.6,16.4,35.6
		C696.3,187.2,686.9,162.9,671.7,141.1z M409.3,556c8.7-1.4,13.9-7.1,18.5-13.9c2.3-3.4,0.5-4.2-2.5-4.5c-1.6-0.2-2.9,0.6-4.2,1.3
		c-5.8,2.9-11.3,6.4-16.4,10.4c-1.2,1-3.4,1.7-2.9,3.5c0.4,1.5,2.5,2.1,4.1,2.5C407,555.6,408.1,555.9,409.3,556z M686.2,829.3
		c0,4.9-1.4,9.8,0.7,13.3c4.1,6.9,8.5,13.7,11.8,21.6C704.3,853.5,698.5,837,686.2,829.3L686.2,829.3z M670.2,671.7
		c4.6,7.4,6.9,14.2,8.8,21.2c1.6-0.2,1.5-2.7,3.3-1.8c-2.3,9.9-1.8,18.5,1.7,26.8C690.7,699.9,685.2,679.9,670.2,671.7L670.2,671.7z
		 M344.6,245.1c3.1-5.8,5.4-10.3,1.4-16.2s-6.9-12.9-10.2-19.4c-3-5.9-6.1-11.9-9.1-17.9l-0.9,0.4L344.6,245.1z M410.1,558.4
		c6.5,3.1,9.7,3.2,15.2,0.5c4.1-2,7.1-5.3,10.1-8.6c3.3-3.6,3.1-6.1-0.6-9.3c-2.4-2-3.1-1.8-4.5,0.8
		C426,549.8,419.9,555.8,410.1,558.4z M328.7,586c-4,6.2-8.5,11.7-14.3,15.9c-1,0.7-1.4,1.9-1.2,3.1c0.3,4.1,0.5,8.2,0.9,13.8
		C322.3,608.2,327.8,598.1,328.7,586z M442.8,803.7c-8.2-3.8-16.3-8-24.1-12.5c4.2,5.6,8.9,10.9,14,15.8c2.2,2.2,4,2.6,6.2,0.2
		C439.9,806.1,441.1,805.2,442.8,803.7z M194.1,688.8c2-11,4-21.9,5.8-32.9c0.2-1.5,2-4.2-1.9-4.2c-2.9,0-4,0.9-3.9,4
		C194.2,666.7,194.1,677.7,194.1,688.8z M464.2,221.8c2.5-2.1,6.7-1.6,5.9-5.1c-1.9-9-4.8-17.8-8.7-26.1
		C462.7,200.6,463.7,210.6,464.2,221.8z M260,520.5c-0.2-10.7,0.1-21.2,0.7-31.6c-1.4,8.3-2.6,16.7-3.6,25.1
		C256.8,516.4,256.2,519.1,260,520.5z"/>
	<path d="M85,1025c-0.7-5.5,2.4-11.2-0.6-16.6c6.1-45.2,4.8-90.9,10.6-136.1c3.8-30.2,9.5-60,15.4-89.7c3.4-17.1,4-34.4,5.4-51.6
		c3.6-46.8,6.2-93.7,7.6-140.7c1.5-51.1,2.1-102.3,1.1-153.4c-0.2-13.2-0.5-26.3-0.9-39.5c0-2.1,0.3-4.3-1.2-7
		c-4.8,14.3-9.5,27.9-14,41.6c-6.7,20.4-11.7,41.3-18.9,61.5c-0.9,2.6-0.9,5.6-1,8.4c-1,31.5,0.3,63,0.5,94.5
		c0.1,12.8-0.5,25.7-1.7,38.5c-2.3,25-3,50-3.3,75c-0.3,32.3-3.1,64.5-5.7,96.8c-3.1,39.9-6.3,79.7-9.4,119.6
		c-2.6,32.9-3,65.9-3,98.9h-2c-0.6-45.8,1.7-91.6,5.6-137.3c3.2-37.7,6.1-75.4,9.3-113c0.9-10.3-2.5-19.8-4.3-29.5
		c-6.8-36.7-10-74-9.6-111.3c0.2-2.4-0.8-4.9-2.6-6.4c-2.9-2.7-5.4-5.9-7.2-9.5c-1.8-3.4-3.2-6.9-4.9-10.4c-1.8,0.6-1.5,2.5-1.9,3.7
		c-13.3,46-24.9,92.7-31,140.5c-5,38.7-7.8,77.6-8.3,116.5c-0.6,49.8,12,96.5,32.5,141.4c2.3,5,4.3,10,6.5,15.1h-2
		c-5.3-10.9-9.9-22.2-14.5-33.4c-13.6-32.9-22.4-66.8-24-102.5c-0.9-24.8-0.5-49.6,1.3-74.4c2.3-34.5,6.5-68.9,12.6-103
		c8.2-44.9,21-88.6,34-132.3c2.4-8.2,5.1-16.4,7.6-24.6c-5.8,11.6-10.9,23.5-15.3,35.7C31.7,637,18.1,684.3,7,732.3
		c-2.4,10.2-4,20.5-6,30.7v-14c0.3-0.4,0.5-0.8,0.7-1.3c10.2-53,26.3-104.4,43-155.7c0.7-2,0.8-4.2,0.5-6.3
		c-3.6-22.5-4.2-45.5-1.7-68.2c3.1-26.6,10.4-52.1,19.8-77.1s17.4-50.2,22.5-76.5c-1.4,0.2-1.7,1.3-2.2,2.1
		C55,411.1,30.4,458.1,14,509.2C9.7,522.8,5.3,536.4,1,550v-8c0.6-1.7,1.4-3.3,1.9-5.1c6-20.5,13.1-40.5,20.6-60.4
		c15.4-40.7,37.2-78,60.1-114.8c1.8-3,3.7-5.9,4.3-9.5c5.9-37.5,11.9-74.9,17.8-112.4c1-6.3,1.5-12.8,2.2-19.1
		c-3.9,15.9-7.7,31.7-9.2,48c-1.8,20.1-5.1,39.9-12.3,58.9c-17.1,45-38.9,88-65,128.5C15.1,466.1,8.8,476,1,485v-4
		c1.3-0.2,1.8-1.5,2.4-2.4c33.8-47.2,60.6-98.3,81.3-152.5c7.2-18.8,10.1-38.6,12-58.5c2-20.8,7-41,11.3-61.3
		c4.6-21.8,8.2-43.9,15.4-65c15.3-44.8,44.9-78.4,82.8-105.6c9.9-7.1,20.1-13.6,30.7-19.6c10-5.6,20.5-10.5,31.1-15.1h5
		c-8.9,4.4-17.8,9-26.8,13.2c-8.5,3.9-15.3,9.8-21.4,16.9c-9.4,10.8-17.9,22.4-25.4,34.6c-1.3,2.1-2.8,4.1-2.8,7.1
		c14.8-13.3,28-28.5,43.2-41.5c1.5,1.8,0.6,2.5,0,3.3c-8.6,13.1-17.7,25.9-27.4,38.2c-22.2,28.1-35,60.2-42.1,95
		c-10.9,53.7-23.6,106.9-37.6,159.8c-14.4,54.4-28.4,108.8-46.4,162.1c-2.8,8.3-6.1,16.5-9,24.8c-0.5,1.5-1.6,2.9-0.9,5.8
		c3.6-9.2,8.1-17.1,9.6-26c0.6-3.8,3.1-6.2,4.1-9.5c10.1-33.8,20.5-67.5,31.9-100.9c2.8-8.3,6.6-16.1,9-24.6
		c2.4-8.6,5.7-17,8.6-25.5c1-3,2-6,1.5-9.3c-0.2-1.5-0.8-3.3,2.1-3.4c1.3,0,1.4-2.4,1.8-3.8c10.8-32.5,20.5-65.3,29.6-98.3
		c0.4-1.6,0.5-3.3,2-4.7c2.3,1.8,0.5,3.8,0,5.3c-5.7,20.2-11.3,40.4-17.5,60.4c-3.2,10.4-3.2,21-3.9,31.6
		c-5.8,89.9-6.3,179.8-3.8,269.8c1.5,55.5,2.6,111,2.6,166.4c0,41.4-1.2,82.7-4.2,124c-1.8,24.9-5,49.7-9.1,74.4
		c-4.3,25.8-9.7,51.3-16,76.7c-0.3,0.8-0.6,1.6-0.9,2.3h-2c3.2-13.4,6.8-26.8,9.2-41.2c-12.3,5.6-23.1,12.1-34.1,18.3
		c-6.3,3.6-10.5,7.5-9.4,15.4c0.3,2.4-0.3,5-0.6,7.4H85V1025z M74,514.5l0.9,0.2c3.7-10.5,7.4-20.9,11-31.4
		c18.6-54.4,32.3-110.1,47.1-165.6c13.3-50,25.1-100.4,35.4-151.1c7.2-35.3,20.3-67.8,43-96.1c5.9-7.4,11.2-15.3,16.8-23
		c0.7-1,2.2-1.7,1.4-3.2c-8.4,8.3-16.9,16.5-25.3,24.8c-2,2-4.1,3.9-6.3,5.7c-0.9,0.8-2.3,0.9-3.3,0.2c-1-0.7-1.3-2.1-0.7-3.2
		c0.7-2,1.6-3.9,2.7-5.8c5.8-9.7,12.3-19,19.4-27.8c2.9-3.5,5.8-7,8.7-10.5c-1.7,0.1-3.3,0.7-4.7,1.7C207,37.5,194.6,46.8,183,57
		c-41.3,36.2-62.9,82.7-69.6,136.1c-5,39.6-10.2,79.2-16.8,118.6c-3.2,19-7.1,38-8.4,57.3c-2.2,33.8-6,67.3-9.7,100.9
		C76.9,484.8,75.5,499.7,74,514.5z M126,722.3c-8.7,27.7-10.2,56.3-17.8,83.7c-3.3,12-4.4,24.5-6.8,36.8c-1.2,5.8-0.9,11.9,1,17.6
		c7.6,22.9,15.8,45.5,25.6,67.6c3,6.8,6.1,13.5,9.2,20.3c2.5-9.9,4.4-20,5.6-30.1c6.9-52.8,8.6-105.8,9.1-159c0-2,0.2-3.9-1.2-5.7
		C142.5,743.2,134.4,732.8,126,722.3L126,722.3z M142.3,334.5c-0.6,1-1.2,2-1.7,3c-4.9,14.2-9.7,28.3-14.6,42.5
		c-0.7,2.2-0.9,4.6-0.7,6.9c0.5,17.5,1.2,35,1.4,52.5c1.3,95.9-1,191.6-8.5,287.2c-0.6,7-1,14-1.4,21.1c1.9-4.6,3.2-9.4,4.1-14.3
		c1-5,1.6-10.2,2.6-15.2c8.7-43,13.9-86.7,15.6-130.5c0.8-20.5,1.2-41,2.3-61.4c2.7-49.2,6.3-98.5,3.6-147.8
		C144.1,364.1,143.2,350,142.3,334.5z M99.1,858c-6.7,49.3-7.9,97.9-10.9,146.8c0.9-0.4,1.8-0.8,2.6-1.2c12.3-8,25.1-15.1,38.4-21.3
		c2-0.8,3.4-2.7,3.6-4.9c1.1-6,2-12.2,3.4-18.1c0.9-3.7,0.5-7.6-1.3-11c-8.6-17.5-16.2-35.4-22.9-53.6
		C107.7,882.9,103.7,871,99.1,858z M151,750.2l1-0.5c0-2.2,0-4.3,0-6.5c-0.4-32-1.2-64-0.7-95.9c0.2-10.2-5.2-15.2-11.6-20.9
		c-0.3,0.6-0.6,0.8-0.6,1.1c-3.2,29.8-7.1,59.5-12.7,88.9c-0.3,1.1-0.1,2.4,0.7,3.3C135,729.9,143,740.1,151,750.2z M81,428.1
		C60,463,48.9,525.9,57.9,559.3c3.2-8,6.1-15.6,9.1-23.1c2.2-5.6,4.2-11.1,4.7-17.2c1.2-14.9,2.7-29.8,4.2-44.8
		C77.5,459,79.2,443.8,81,428.1z M84.4,381.4c-0.3,1.1-0.8,2.1-1,3.2c-4.9,19-10.8,37.7-17.8,56.1c-11.1,29.2-19.1,59.2-21,90.5
		c-1,17.5-0.2,35.1,2.6,52.5c5.8-9.2,8.1-17.4,7.5-26.7c-1-16.1-0.9-32.3-0.6-48.4c0.3-18,3.9-35.3,11.4-51.8
		c3.4-7.4,6.3-15.1,9.9-22.3C83.9,417.6,83.6,399.5,84.4,381.4L84.4,381.4z M67.1,632.2c-0.6,41.8,3.6,83.5,12.4,124.3
		c3.9-37.8,1.5-75.9,5.1-113.8c0.3-1.2-0.5-2.5-1.7-2.8c-0.1,0-0.2,0-0.3-0.1C77.3,638.3,72.6,635.6,67.1,632.2z M150.4,633.2
		c-1.1-60.3-2.9-120-2.7-179.8c-0.6,8.3-1,16.6-1.6,24.9c-2.9,44-3.3,88.2-6.3,132.2c-0.7,9.8,1.8,16.5,9.3,22
		C149.3,632.6,149.4,632.7,150.4,633.2L150.4,633.2z M84.9,638.2c0.4-6,0.6-11.5,1.2-16.9c0.3-2.9-0.8-4.5-3.1-6.1
		c-10.9-7.6-19-18.5-23.3-31c-0.4-1.2-0.2-3.1-2-3.6c-4.5,12-8.9,23.6-0.8,36.1C63.7,627.2,72.4,634.6,84.9,638.2L84.9,638.2z
		 M85.1,505c-3.8,9.5-7.6,19-11.6,28.4c-1.1,2.6-1.5,5.4-1.3,8.2c1.1,20.6,5.2,40.9,12.1,60.4c0.4,1.2,0.3,3.1,2.6,3.8
		C86.9,572.1,85.2,538.7,85.1,505z M85.7,613.7c-8.5-22.1-13.8-45.3-16-68.9c-4,9.5-7.4,19.2-10.1,29.1c-0.1,0.5-0.1,1,0,1.5
		C63,591.7,71.5,604.6,85.7,613.7L85.7,613.7z M153.9,299.5c-6.2,11.6-9.9,28.9-9,40.7c0.5,6.3,0.9,12.6,1.2,18.9
		c0.9,18.8,1.7,37.5,2.5,56.2C149.5,376.8,151.5,338.3,153.9,299.5L153.9,299.5z"/>
	<path d="M36,1025c-6.8-26.8-17.1-52.4-25.5-78.6C7.1,936,4.1,925.5,1,915v-9c3.5,12.2,6.9,24.5,10.6,36.7
		c7.8,25.3,18,49.9,24.9,75.6c0.6,2.2,1,4.5,1.5,6.8L36,1025L36,1025z"/>
	<path d="M653.4,524.1c-7.4-0.1-10.5-5.4-6.7-11.8c3.7-6.1,8.8-11.3,14.9-15.2c3.4-2.3,9.4,0.2,10.4,4.4
		C673.9,509.4,661.8,524.2,653.4,524.1z M654.7,521.9c2-0.4,3.9-1.2,5.6-2.4c1.9-1.2-2.1-3.2,0.5-3.9c5.3-1.4,5.9-6.6,8.5-10.2
		c1.2-1.5,1-3.6-0.3-5c-1.1-1.4-3-1.8-4.5-1c-6.3,3.3-12.3,7-15.8,13.7C645.9,518.4,647.9,522,654.7,521.9z"/>
	<path d="M658.8,385.5c1.9,1.2,2,3.1,2.5,4.8c2.3,7.1,6.1,12.8,13.2,16c4.8,2.1,8.9,5.2,10.7,10.5c0.3,1,1.1,2.1-1,3.8
		c-1.6-8.7-8.9-10.9-14.9-14.9C662.1,401,659.4,393.6,658.8,385.5z"/>
	<path d="M528.1,358.6c0.2,4.3-0.6,8.5-2.3,12.4c-3.8,8.7-14,12.6-22.6,8.8c-13.1-5.8-20-16.7-22-30.5c-0.8-5.4,1.8-10.1,5.8-13.8
		c13.6-12.8,34.2-7.3,39.5,10.5C527.6,350.1,528.2,354.3,528.1,358.6z M525.9,358.2c-0.1-4.2-0.7-8.3-2-12.3
		c-2.5-7.9-7.4-14.1-16-14.4c-7.6-0.2-15.6-0.1-20.4,8.7c-4.3,7.9-4.9,15.4,1.1,24.2c5.7,8.3,12.3,15.5,23.9,14.3
		c0.5-0.1,1-0.2,1.5-0.4C522.1,376.2,526,369.4,525.9,358.2z"/>
</g>
<g id="图层_1_1_">
	<g>
		<path d="M839.1,1012c-0.4-0.8-0.7-1.7-1.1-2.5v8c0.2,0.5,0.6,1.1,1.1,1.5V1012z"/>
		<path fill="#BDA18D" d="M410.2,558.4c6.5,3.1,9.7,3.2,15.2,0.5c4.1-2,7.1-5.3,10.2-8.6c3.3-3.6,3.1-6.1-0.7-9.3
			c-2.4-2-3.1-1.8-4.5,0.8C426,549.8,419.9,555.8,410.2,558.4z"/>
		<path fill="#8A5745" d="M662.1,660.9c1.4,2.8,3.6,5.1,6.5,6.5c15.4,8.6,22.7,23.8,19.9,41.1c-1.4,8.7-3.2,17.3-4.2,26.1
			c-0.7,6.9-0.8,13.8-0.2,20.6c1.6,20.5,0.9,40.9,1.6,61.4c0.2,6.3,1.3,11.2,6.8,14.8c2.3,1.5,3.9,4.1,6.2,6.6l0,0
			c0.5-0.7,1-1.4,1.4-2.2c10.3-20.7,18.7-42.3,25-64.5c0.6-2.2,0.4-4.6-0.5-6.8c-5.2-16-10.8-31.8-15.4-47.9
			c-5.6-19.4-9.6-39.3-29.7-50.4C673.9,663.2,668.5,662,662.1,660.9z"/>
		<path fill="#BDA18D" d="M425.3,537.6c-1.6-0.2-2.9,0.6-4.2,1.3c-5.8,2.9-11.3,6.4-16.4,10.4c-1.2,1-3.4,1.7-2.9,3.5
			c0.4,1.5,2.5,2.1,4.1,2.5c1.1,0.3,2.3,0.5,3.5,0.7c8.7-1.4,13.9-7.1,18.5-13.9C430.1,538.7,428.3,537.9,425.3,537.6z"/>
		<path fill="#FBEAD0" d="M634.3,729.9c3,2.1,6.4,3.5,9.6,5.3c2.5,1.4,4.3,1.3,5.2-2.6c1.1,5.6,4.1,4.6,7.2,3c4.1-2.1,6.3-6,8-9.8
			c3.8-8.7,7.5-17.4,11.9-25.8c0.6-1.2,1.3-2.5,0.9-3.8c-2.8-11.4-4.7-23.3-16.6-29.7c-0.4-0.2-1.1-0.5-1.1-0.8
			c-0.6-5.1-4.4-8.2-6.9-12.2c-1-1.5-2.7-2.5-4.5-2.6c-11.1-1.6-22.2-2-33.4-1.2c-19.2,1.7-38.2,5.7-57.7,5.1
			c-7.2-0.2-14.3,1.4-21.1,3.6c-5.4,1.8-10.8,3.6-16.1,7.3c13.3,7,26,13.5,38.6,20.3C584.2,699.6,610.3,712.8,634.3,729.9z"/>
		<path fill="#FBEAD0" d="M394.5,561.4c-0.3,1.3-0.5,2.6-0.5,3.9c-0.2,2.7-0.8,5.4-2.8,7.3c-7.7,7-11.3,17.9-21.5,22.8
			c4.4,1.2,8.6,1.9,12.8,2.8c13.6,2.8,25.6,9,36.6,17.5c13.4,10.4,28.1,17.7,45.5,18.7c7.2,0.4,13.7,3.2,18.5,8.7
			c5.9,7.1,13.6,12.4,22.3,15.3c2.8,1,5.5,2.3,8.1,3.8c2.4,1.4,4.4,1.3,6.9,0c11.3-6.1,23.9-9.5,36.8-10c11.3-0.4,22.6-0.3,33.9-2.2
			c17.6-2.9,35.4-4.5,53.2-2.2c1,0.1,2.3,0.8,3.1-0.8c-4.5-5.9-11-9-17.3-12.2c-10.1-5.2-18.6-12.2-24.9-21.8
			c-2.4-3.4-5.2-6.5-8.3-9.3c-11.1-10.1-23.4-18.8-36.7-25.8c-20.5-11-42.4-18.3-64.6-25c-5-1.5-10.1-2.9-16.1-4.6
			c10.7,19.5,24.7,35.3,34.9,53.9c-25.4-17.5-51.1-34.2-73.6-55.4c-1.6,2.1-3,4-4.4,5.8c-9.6,11.5-19.3,13.1-32,5.1
			C398.7,554.4,396.5,555.2,394.5,561.4z"/>
		<path fill="#A499C4" d="M278.6,769.9c-20.3,11.8-39.9,24.5-60.3,35.7c-1.7,1-2.1,2.3-2.3,4c-1.2,9.4-2.6,18.8-3.8,28.2
			c-0.8,6.1-1.5,12.3-2.3,18.4l1.2,0.5C231.9,826.5,254.4,797.5,278.6,769.9L278.6,769.9z"/>
		<path fill="#E2C7B6" d="M283.1,865.8c0.3-2.6-0.2-5.3-1.5-7.6c-5.4-10.5-9.4-21.6-11.8-33.2c-2.5-11.8-3.1-23.7-2.6-37
			c-1.9,2.1-2.8,3.1-3.7,4c-19.2,21.2-35.2,44.7-52,67.8c-3.3,4.6-3.9,9.1-2.1,14.5c6.9,20.3,16.6,39.2,27.3,57.7
			c11.8,20.4,22.2,41.3,29.2,63.9c1.1,3.6,1.6,7.3,3.6,11c5.6-6.2,10.4-12.6,15.1-19c1.5-1.9,2.1-4.5,1.6-6.9
			C280.1,942.7,279.6,904.3,283.1,865.8z"/>
		<path fill="#CFD0E7" d="M289.1,868.5c0.7-20.3,2.5-40.5,5.5-60.6c3.5-24,8.1-47.9,10.7-72.1c2.2-20,4-40,5.5-60.1
			c0.9-12.1,1.3-24.2,2-36.4c-9.7,3.6-9.7,3.6-9.7,12.5c0,10.3,0,20.7,0,31c0,2.2-0.5,4.5,0.4,6.6c1.7-0.4,1.6-3,3.7-2.4
			c0.1,0.3,0.4,0.7,0.3,0.9c-3.7,5.8-7.9,11.6-2.2,18.5c0.1,0.2-0.2,1-0.6,1.2c-2.4,1.6-1.8,4.1-1.8,6.4c-0.4,9.5-0.3,19-1.2,28.5
			c-2.7,30.5-7.8,60.7-12.3,91c-6.1,41-8.4,82.1-4.2,123.5c0.8,8,1.5,16,3.4,24.2c0.5-0.5,1-1,1.4-1.6c2.5-3.9,4.9-8,7.5-11.8
			c1.9-2.7,2-5.3,1.3-8.4C291.6,929.6,288,899.3,289.1,868.5z"/>
		<path fill="#FFFFFF" d="M213.4,808.9c-1.5-2.2-4.5,0.2-6.9,0.3c-8.4,0.2-14.6-3.8-20.7-10.4c-5.1,38.2-11.1,75.4-13.9,113.1
			l33.9-48.1c0.7-1.1,1.1-2.4,1.2-3.8c1.9-14.7,3.9-29.4,5.9-44C213.2,813.7,214.5,810.5,213.4,808.9z"/>
		<path fill="#E2C7B6" d="M293.5,885.6c-0.5-0.8-0.6-2.3-2.2-2c-0.5,19.6,5.7,64.9,10.7,76.8c2.5-4.9,4.9-9.5,7.2-14
			c1.2-2,1.8-4.3,1.7-6.6C309.1,920.4,303.7,902.2,293.5,885.6z"/>
		<path fill="#E2C7B6" d="M345.8,698.7c-7.3,3.9-11.7,10.6-15.5,17.6c-4.4,8.3-11.5,14.9-20,18.8c-2.5,1.1-3,2.1-3.2,4.4
			c-1.6,14.9-3.8,29.7-6.4,44.5c-5.3,29.2-8.4,58.7-9.5,88.3c-0.2,3.5,0.7,6.9,2.7,9.8c7.3,11,12.6,23.2,15.6,36
			c1.4,6,2.4,12,3.6,18c16.4-37.3,24.2-76.8,30.8-116.7C350.4,779.2,351.5,739.1,345.8,698.7z"/>
		<path fill="#E2C7B6" d="M314.5,963.8c-3.1,4.9-5.7,9-8.4,13.2c-0.6,1-0.7,2.2-0.2,3.3c2.8,7.8,5.6,15.5,8.7,24.2
			c2.5-3.4,4.5-6.2,6.5-9c1.2-1.6,2.5-3.2,1.8-5.4C320.1,981.5,317.4,973.1,314.5,963.8z"/>
		<path fill="#8A5745" d="M686.8,842.6c4.1,6.9,8.5,13.7,11.8,21.6c5.7-10.8-0.1-27.2-12.4-34.9
			C686.2,834.2,684.8,839.1,686.8,842.6z"/>
		<path fill="#0B323B" d="M684.9,316.7c-1.4-2.8-2.7-3.2-5.2-1.1c-7.7,6.3-11.2,14.9-12.3,24.3c-1,9.1,0,18.3,1,27.4
			c0.6,5.9,2.8,10.9,8.2,14.1c2.5,1.5,4,1.2,4.6-1.7c3-14.6,6-29.2,8.9-43.9c-0.1-0.1-0.1-0.3-0.1-1.7l0,0
			C689.8,328.7,687.8,322.6,684.9,316.7z"/>
		<path fill="#281E4B" d="M700.9,309.4c0.2-6.5-3.6-11.5-10-13.7c-4.4-1.5-8.3,0.2-12.6,5.7c-2.1,2.6-3.6,5.6-4.4,8.8
			c-0.3,1.1-0.4,2.7-1.2,3.2c-4.9,3.1-3,8.2-4.3,12.4c2.7-4.3,5.5-8.4,9.4-11.6c8.2-6.7,13.2-5.6,17,4.2c1.8,4.7,3,9.7,4.4,14.6
			l0.6-0.2C700.2,325,700.7,317.2,700.9,309.4z"/>
		<path fill="#A9A1B8" d="M715.5,342.7c-0.9,0.1-1-0.9-1-1.8c-0.6-8-6.7-12.4-11.2-18.9c-2.5,15.7-5.2,30.2,5.8,43
			c2.8,3.2,4.4,7.4,6.7,11.1c4,6.6,8,13.2,12.6,20.7c0-2-0.4-3.1,0.5-3.4c1.8-0.5,1.8,1.2,2,2.1c2.4,10.4,8.3,19.1,13,28.5
			c3.3,6.5,6.2,13.2,9.2,19.9c5.1,11.3,10.1,22.6,15.2,34l0.7-0.2c0.1-0.9,0.1-1.9,0-2.8c-4.4-24.5-10.7-48.4-22.1-70.6
			c-9.8-19-20.5-37.6-27.9-57.8C718.4,345.1,718.6,342.3,715.5,342.7z"/>
		<path fill="#E2C7B6" d="M663.3,802c6.4,7,12.8,13.9,19.6,21.4l0,0c0-14.1,0.1-27,0-40c0-6.2-1.2-12.4-0.5-18.4
			c1.5-12.7-4.6-20.9-14.1-27.9c-3.5-2.5-5.8-5.3-9.5-0.6c-1.1,1.4-3.5,1.7-5.3,2.4c-0.8,0.3-1.9,0-2.4,1.3
			c-1.1,2.9,2.2,16,4.6,18.1c4.9,4.2,9.6,8.7,14,13.5c1.1,0.9,1.7,2.3,1.7,3.8c-0.2,8.6-2,16.5-7.7,23.2
			C662.8,799.8,662,800.6,663.3,802z"/>
		<path fill="#A9A1B8" d="M699.9,241.3c1.7,13.9,2.6,27.9,2.9,41.9c0,2,2,3,1.3,5.3c-1.8,6.2-2.1,12.6,0.8,18.8
			c0.4,0.8,1.5,2,0.2,2.6c-4.6,2.4-2.8,6.8-1.3,9c3.7,5.5,8.1,10.7,12,16.7c7.9-16.2,14.8-58.5,11.1-69.8
			c-0.9,6.3-1.8,11.5-2.4,16.7c-1,9.1-4.9,17.7-4.4,27c0.2,3.8-1,5.2-3.7,5.2c1.7-40.2-4.2-78.6-23-114.3
			C696.2,214,698.3,227.6,699.9,241.3z"/>
		<path fill="#FFFFFF" d="M718.6,340.7c2.1,4.3,4.1,8.6,6.4,13.5c7.4-9.4,10.6-56,5.3-72.3c-1.6,18.1-5.4,35.9-11.3,53.1
			C718.3,336.8,717.6,338.6,718.6,340.7z"/>
		<path fill="#A9A1B8" d="M702,357.1c-0.4-0.8-0.5-2-2.2-1.7c-0.6,15.1,3,29.3,8.7,43.1c3.7,9.1,7.8,18,11.1,27.2
			c4.3,11.9,8.9,23.7,8.4,36.7c-0.7,15.3-3.6,30.4-8.7,44.9c-1.4,3.7-1.3,7.8,0.3,11.4c7.2,16.8,12.4,34.5,15.6,52.5
			c2,10.9,2.7,21.9,4.2,32.9c1.7-5.6,3.1-11.2,4.2-16.9c2.7-15.3,6.9-30.7,0.7-46.2c-0.3-0.8-0.2-1.7,1.2-2c1.8,2.4,1,6.1,2.8,8.1
			c1.3,1.4,2.9,2,2.5,4.3c-1.1,7,1.9,13.4,4.1,19.9c0.3-5.3,0.7-10.6,0.8-15.9c0.8-40.4-5.7-79.9-15.5-119
			c-3.1-12.4-5.3-25-12.3-36.2C719,386.1,710.7,371.5,702,357.1z"/>
		<path fill="#E2C7B6" d="M670.2,671.7L670.2,671.7c4.6,7.4,6.9,14.2,8.8,21.2c1.6-0.2,1.5-2.7,3.3-1.8c-2.3,9.9-1.8,18.5,1.7,26.8
			C690.7,699.9,685.2,679.9,670.2,671.7z"/>
		<path fill="#E2C7B6" d="M680.6,745.4c2.9-10.8,0.9-35.3-3.3-42.7c-5,8.4-8,17.5-12.2,26.2c-0.7,1-0.5,2.3,0.5,3.1
			C670.6,736.3,675.5,740.8,680.6,745.4z"/>
		<path fill="#A9A1B8" d="M702.7,212.7c-6.4-25.6-15.8-49.8-31-71.6c5.3,11.9,10.9,23.6,14.6,36C690,189.8,697.6,200.7,702.7,212.7z
			"/>
		<path fill="#E2C7B6" d="M646,753.7c-17-11.3-36.3-18-54.6-26.7c-6.2-3-13-4-19.8-5c-13.7-2-27.7-1.3-41.1-4.9
			c-23.3-6.4-47.1-8.5-71.2-8.7c-22.3-0.2-44.6,1.4-66.8-2.1c-1.3-0.2-2.7-0.1-4,0.3c-5.4,1.2-5.8,2.3-2.4,6.6
			c24.9,30.4,56.4,45.7,96.2,42.7c20.3-1.6,40.7-1.5,60.9,0.3c26.7,2.5,51.5,10.3,73.8,25.4c11.6,7.8,21.5,17.5,31.2,28.9l-24.1-3.1
			c-0.1,0.3-0.3,0.6-0.4,0.8c1.4,1.1,2.8,2.2,4.3,3.2c9.1,6.4,19.3,10.4,29.7,13.9c8.6,2.9,16.9,6.2,23.7,12.5
			c0.6,0.6,1.2,1.8,2.2,1.2c1.5-7.5-0.5-13.2-6.3-18.6c-7.2-6.6-13.6-14.2-19.8-21.8c-10.3-12.8-23-23.3-37.5-31
			c-1-0.5-2.7-0.6-2.5-2.6c2.1-1,3.5,0.7,4.9,1.5c13.7,7.3,25.8,17.3,35.6,29.4c1.3,1.6,2.2,3.9,4.7,0.9
			c10.1-12.1,6.3-29.9-8.1-36.3c-0.3-0.1-0.6-0.4-0.9-0.4c-2.3,0-2.4,0.1-3.4-2.3C649.5,755.6,647.6,754.7,646,753.7z"/>
		<path fill="#58557D" d="M676.7,595c-2.1,9.4-5.8,12.2-15.4,13.2c-16.2,1.7-31.5,7.1-47.5,12.2c3.1,3.7,6.9,6.8,11.2,9.1
			c12.7,6.5,24.7,13.8,32.2,26.6c1.2,2.1,2.5,1.6,4,0.2c13.1-11.9,21.3-25.9,18.4-44.4c-0.3-1.9-1-4.2,1.4-4.5c3-0.4,2,2.5,2,4
			c0.2,14.4,2.5,28.8,0.4,43.3c6.7-23.4,5.8-46.5-2.2-70.4C679,587.6,677.5,591.2,676.7,595z"/>
		<path fill="#FFFFFF" d="M679.9,661.4c1.7-10.2,2.6-20.4,1.4-30.8c-3.7,11-10.4,20.6-19.3,28c5.9,0.8,10.8,1.6,15.4,3.5
			C678.3,662.6,679.5,663.4,679.9,661.4z"/>
		<path fill="#7384AB" d="M314.4,601.9c-1,0.7-1.4,1.9-1.2,3.1c0.3,4.1,0.5,8.2,0.9,13.8c8.2-10.5,13.6-20.6,14.6-32.7
			C324.7,592.2,320.2,597.7,314.4,601.9z"/>
		<path fill="#7384AB" d="M284.1,633.6c1.3,1.2,2.9,2.2,4.6,2.8c4.4,1.6,11.1-2.2,10.9-6.3c-0.4-6-1.2-11.9-1.7-17.9
			c-0.2-1.6-0.8-2.5-2.6-1.9c-8.3,3.2-16.2,1.8-24.7-2.6C273.1,618.1,276.9,626.8,284.1,633.6z"/>
		<path fill="#7384AB" d="M313.6,547c-2.3,0.1-3.2,0.6-3.1,3.1c0.9,16.3,1.7,32.5,2.5,49.3c6.2-4,11-9.8,13.9-16.6
			c1-2.1,1.3-4.5,0.8-6.8c-1.1-6.7-2-13.5-3.1-20.2C323.1,546.5,323.1,546.5,313.6,547z"/>
		<path fill="#BDA18D" d="M316.1,635.8c-0.6,0.6-0.9,1.3-0.9,2.2c-0.7,12.4-1.4,24.8-2,37.2l1,0.3c7.8-9.3,15.5-18.7,23.3-28
			c1-1.1,1.4-2.7,1-4.1c-1.6-9.6-3.1-19.3-4.8-30.2C328.7,622.4,323.4,629.9,316.1,635.8z"/>
		<path fill="#CFD0E7" d="M311.3,611.6c-0.3-3.6-0.3-7.2-0.5-10.8c-0.9-17.1-1.7-34.2-2.6-51.4c-0.1-1.2-0.1-2.5-1.6-2.8
			c-8.1-1.9-16.3-3.7-25.1-5.7c11.1,29,18.4,58,20.2,89C312.2,622.6,312.2,622.6,311.3,611.6z"/>
		<path fill="#E3D7E3" d="M270.1,447.5c-4.7,23-8.3,46.2-7.9,69.8c0,3.7,0.3,7.2,3.5,9.8c8.5,7,17.7,12.7,28.8,14.6
			c2.8,0.5,5.6,1.1,8.3,1.8c2.7,0.7,5.3,1.3,6.2-3.5c2.1,7.5,7,4.4,10.8,4.6c2.2,0.1,3.1-1,2.7-3.5c-1.2-6.5-2-13.2-2.9-19.8
			c-3.7-25.9-7.5-51.7-9.6-77.8c-2.8-34.2-5.1-68.4-10.1-102.3c-0.5-3-0.2-6.4-2.3-9.7c-0.6,1.8-1,3.1-1.4,4.3
			C284.5,372.4,277.8,410,270.1,447.5z"/>
		<path fill="#E1E1F3" d="M207.8,600.2c-4-30.7-8.2-61.4-12.4-92.1c0,41.3,2.7,82.5,8.2,123.4C204.8,621.1,209.2,611,207.8,600.2z"
			/>
		<path fill="#E1E1F3" d="M263,468.5c2.1-7.2,3.6-14.5,5-21.9c7.7-38.3,14.7-76.8,26.8-114c1.8-5,2.2-10.4,1.2-15.6
			c-1.7-8.9-2.7-17.9-4.1-27l-1.1,0.2c-0.2,2.3-0.5,4.6-0.7,6.9c-0.8,12.8-2.3,25.5-4.6,38.1c-6.5,34.5-15.7,68.4-19,103.4
			C265.6,448.6,264.2,458.5,263,468.5z"/>
		<path fill="#FFFFFF" d="M69.5,887.8c3.2-37.7,6.1-75.4,9.3-113c0.9-10.3-2.5-19.8-4.3-29.5c-6.8-36.7-10-74-9.6-111.3
			c0.2-2.4-0.8-4.9-2.6-6.4c-2.9-2.7-5.4-5.9-7.2-9.5c-1.8-3.4-3.2-6.9-4.9-10.4c-1.8,0.6-1.5,2.5-1.9,3.7
			c-13.3,46.1-25,92.8-31,140.6c-5,38.7-7.8,77.6-8.3,116.5c-0.5,49.8,12,96.5,32.5,141.4c2.3,5,4.3,10,6.5,15.1h15.9
			C63.3,979.2,65.6,933.5,69.5,887.8z"/>
		<path fill="#E1E1F3" d="M98.7,268.7c-1.8,20.1-5.1,39.9-12.3,58.9c-17.1,45-38.9,88-65,128.5C15.1,466.1,8.8,476,1,485v-3.4
			c-0.3,0.2-0.7,0.4-1,0.6v60c0.4-0.5,0.9-1.1,1.3-1.6c0.1-0.1,0.2-0.2,0.3-0.3c0.5-1.1,0.9-2.2,1.3-3.4c6-20.5,13.1-40.5,20.6-60.4
			c15.4-40.7,37.2-78,60.1-114.8c1.9-3,3.7-5.9,4.3-9.5c5.9-37.5,11.9-74.9,17.8-112.4c1-6.3,1.5-12.8,2.2-19.1
			C104,236.6,100.2,252.4,98.7,268.7z"/>
		<path fill="#E1E1F3" d="M21.4,711.7c8.2-44.9,21-88.6,34-132.3c2.4-8.2,5.1-16.4,7.6-24.6c-5.8,11.6-10.9,23.5-15.3,35.7
			C31.7,637,18.1,684.3,7,732.3c-1.5,6.6-2.8,13.2-4,19.8c0.2,0.3,0.1,0.7-0.2,1c-0.6,3.3-1.2,6.6-1.9,9.9v-9
			c-0.3,0.1-0.7,0.3-1,0.4v156.5c0.3,0.2,0.7,0.3,1,0.5V906c0.6,2,1.1,4,1.7,6c0.1,0.1,0.3,0.1,0.4,0.2c1,0.3,0.9,1.6,0.2,2
			c2.7,9.5,5.4,19.1,8.3,28.5c7.8,25.3,18,49.9,24.9,75.6c0.6,2.2,1,4.4,1.5,6.7h8c-5.3-10.9-9.9-22.2-14.5-33.4
			c-13.6-32.9-22.4-66.8-24-102.5c-0.9-24.8-0.5-49.6,1.3-74.4C11.1,780.2,15.3,745.8,21.4,711.7z"/>
		<path fill="#FFFFFF" d="M34.5,1019.6C34.5,1019.6,34.5,1019.5,34.5,1019.6c-6.7-24.9-16.2-48.7-24-73.1C7.1,936,4.1,925.5,1,915
			v-1.4c-0.3-0.1-0.7-0.3-1-0.4V1025h33.1C33.6,1023.2,34,1021.4,34.5,1019.6z"/>
		<path fill="#FFFFFF" d="M83.7,366C55,411.1,30.3,458.1,14,509.2C9.7,522.8,5.3,536.4,1,550v-5.7c-0.3,0.4-0.7,0.8-1,1.2v206.6
			c0.3-0.1,0.7-0.3,1-0.4V749c0.3-0.4,0.5-0.8,0.7-1.3c10.2-53,26.3-104.4,43-155.7c0.7-2,0.8-4.2,0.5-6.3
			c-3.6-22.5-4.2-45.5-1.6-68.2c3.1-26.6,10.4-52.1,19.8-77.1c9.3-25,17.4-50.2,22.5-76.5C84.5,364.1,84.2,365.2,83.7,366z"/>
		<path fill="#FFFFFF" d="M0,0v479.7c1.7-1.1,3.4-2.3,5-3.4c33.1-46.6,59.3-96.9,79.7-150.2c7.2-18.8,10.1-38.6,12-58.5
			c2-20.8,7-41,11.3-61.3c4.5-21.8,8.2-43.9,15.4-65c15.3-44.8,44.9-78.4,82.8-105.6c9.9-7.1,20.1-13.6,30.7-19.6
			c8.4-4.7,17.2-8.9,26.1-12.9c-0.1-0.4,0.1-0.8,0.5-1c1.6-0.7,3.2-1.5,4.8-2.2H0z"/>
		<path fill="#FBEAD0" d="M778,901.2c-4.2,5.2-6.1,5.7-12.9,3.5c-5.9-1.8-11.3-5.1-15.4-9.7c-2.1-2.3-4-4.8-7.1-5.7
			c0.5-1.7,3.1-1.4,2.4-3.9c-1.4-4.8,0-9.5,1-14.2c0.7-3.4,1.7-6.9,0.1-10.9c-12.2,27.4-24.1,54.2-36,81.1c-0.6,1.7-0.9,3.5-0.8,5.4
			c-1.6,25.2-5.9,49.8-13.5,73.7c0,1.5,0,3.1,0.1,4.6h35.9c0-0.1,0-0.2,0-0.3h-0.7c0.2-0.5,0.4-1,0.6-1.6c0-1.4,0-2.8,0.2-4.2
			c0.1-1,1.3-1.2,1.8-0.8c0.1-0.2,0.2-0.5,0.3-0.7c0.3-1.2,0.7-2.4,1.1-3.6c0.1-0.3,0.3-0.5,0.6-0.7c8.4-21.1,16.5-42.5,31.2-60.6
			c2.5-3.3,4.7-6.9,6.5-10.6c2.8-5.2,4.3-11,3.4-16.8C775.5,917.2,775.6,909.2,778,901.2z"/>
		<path fill="#FBEAD0" d="M837.1,1014c-1.6-2.2-2.6-4.8-3.2-7.4c-0.1-0.3,0-0.6,0.2-0.9c-2.8-6.9-6.4-13.4-11.3-19.1
			c-8-9.2-10.3-19.5-8.1-31.1c4.7-25.5-2.3-46.7-22.9-63.1c-2.4-2-3.7-2.3-5.7,0.4c-6.3,8.4-9.5,17.5-7.5,28
			c1.8,8.8,0.1,17.9-4.7,25.4c-3.2,5.2-6.7,10.3-10.3,15.3c-7.1,9.9-12.9,20.6-17.4,31.9c-3.1,7.9-6.4,15.7-9.8,23.5
			c-0.8,2.7-1.5,5.4-2.1,8.1H838v-7.6C837.5,1016.4,837.4,1015.1,837.1,1014z"/>
		<path fill="#CFD0E7" d="M335.3,876.8c-10,45.3-28,87-57.2,123.5c-3.1,3.9-5.6,8.3-9.1,11.6c-3.4,3.1-6.5,6.5-9.6,9.8
			c0.1,0.1,0.1,0.3,0.1,0.5c-0.1,0.9-0.2,1.9-0.2,2.8h5.9c0,0,0-0.1,0-0.1c0,0,0,0,0,0h-3c7.8-9.5,19.9-15.3,23.7-28.2
			c0.1-0.2,0.6-0.5,0.8-0.4c3.1,1.7,3.6-1.5,4.8-2.8c6.3-7.4,11.4-15.6,16.7-23.7c3.1-4.8,5.9-9.8,8.5-14.8
			c8.2-15.5,14.1-32,17.5-49.2c4.7-24.2,7-48.8,11-73.1c0.9-5.2,1.5-10.5,2.2-15.7C343.6,837.1,339.7,857,335.3,876.8z"/>
		<path fill="#E2C7B6" d="M296.4,1021.2c0-0.2,0.1-0.3,0.2-0.5c-2.6-6.3-6.2-12.2-9.1-18.9c-6.1,7.2-12.6,14-19.5,20.5
			c-0.3,0.9-0.5,1.9-0.7,2.8h28.3C295.9,1023.8,296.2,1022.5,296.4,1021.2z"/>
		<path fill="#CFD0E7" d="M298,1024.3c-0.1,0.3-0.1,0.6-0.2,0.8h19.9c0.3-1.3,0.6-2.7,0.9-4c-0.2-0.5-0.4-0.9-0.6-1.4
			c-1.5-4.3-3.9-8.4-5-12.7c-2.4-8.8-6.1-17-8.9-26.2c-4.8,6.2-9.2,12-13.8,17.7c-1.4,1.8-0.4,3.1,0.3,4.5
			c3.5,7.3,7.1,14.6,10.6,21.9h-3C298.1,1024.7,298,1024.5,298,1024.3z"/>
		<path fill="#839CD5" d="M705.3,921c-4.2-16.6-12.3-32-23.8-44.7c-21.6-23.8-46.4-43.9-72.1-63.1c-11-8.2-22.7-8.8-35.4-7.6
			c-14.8,1.4-29,5.8-43.7,7.8c-1.2,0.2-2.2,0.6-3.2,1.2c-13.9,8-26.9,17.5-38.9,28.3c15.6,8.7,31.3,10.3,47.9,5.4s28.1-16,37.3-30.2
			c-0.3,4.6-3.1,7.6-5.5,10.9c-1.7,2-3.1,4.3-4.2,6.7c-9.7,24.7-27.9,34.4-54,28.9c-9.8-2.1-19.3-5.1-28.5-9
			c-2.6-1.1-4.2-1.3-6.2,1.4c-6.4,9.1-12.8,18.3-18.8,27.7c-1.3,1.9-1.8,4.3-1.2,6.5c2.5,12.3,2.9,24.8,2.3,37.3
			c-0.5,10.1-5.5,18-13.2,24.3c-0.6,0.5-1.3,1.2-2.3,0c0-1.8,1.8-2.4,2.9-3.4c8.5-7.9,11.6-17.5,10.1-28.9c-1-7.4-1.6-14.9-2.5-22.3
			c-0.2-1.4,0.2-3-1.2-4.3c-2.1,2-3.2,4.6-4.5,7c-21.1,37.8-37.4,77.8-50.4,119.1c0.1,0.1,0.2,0.2,0.2,0.4c0.3,1.6,0.6,3.2,1.1,4.7
			h294.8c0.5-1.6,1-3.1,1.4-4.7c0-0.2,0-0.3,0-0.5c0-0.4,0.2-0.6,0.4-0.8c6.3-21.7,11.1-43.7,12.3-66.3
			C707,942.2,708.1,931.5,705.3,921z"/>
		<path fill="#839CD5" d="M319.9,1025.1h75.4c-0.1-0.5-0.3-1-0.4-1.5c-0.2,0.4-0.3,0.9-0.5,1.3h-2c13.8-45.2,31.3-88.8,55-129.7
			c2.7-4.2,3.2-9.4,1.5-14c-6.4-20.2-19.4-36.3-31.9-52.7c-0.7-1-1.3-1.7-2.9-1.2c-4.3,1.4-7.6,6.3-6.2,10.5c1.5,4.7-0.3,6.2-4.7,6
			c-5.2-0.2-8.1,2.7-9.4,7.3c-2,6.2-4.7,12.1-8,17.7c-2.7,5-5.1,10.1-7.2,15.3c-14.9,35.5-32.2,69.8-50.1,103.8
			c-1.1,2.2-3,4-1.6,6.9c0.5,1-0.2,2.4-1.4,1.5c-2-1.5-2.3,0.3-2.9,1.2c-7,8.7-7,8.7-3.2,19.4c0.4,1.1,0.8,2.1,1.2,3.2
			c0.1,0.2,0.2,0.3,0.2,0.5c0.5,1.4,1,2.8,1.5,4.3h-2.4C319.9,1025,319.9,1025,319.9,1025.1z"/>
		<path fill="#E1E1F3" d="M131.1,983.8c-12.3,5.6-23.1,12.1-34.1,18.3c-6.3,3.6-10.5,7.5-9.4,15.4c0.3,2.4-0.3,5-0.6,7.4h-2
			c-0.7-5.5,2.4-11.2-0.6-16.6c6.1-45.2,4.8-90.9,10.6-136.1c3.8-30.2,9.5-60,15.4-89.7c3.4-17.1,4-34.4,5.4-51.6
			c3.6-46.8,6.2-93.7,7.6-140.7c1.5-51.1,2-102.3,1.1-153.4c-0.2-13.2-0.5-26.3-0.9-39.5c0-2.1,0.3-4.3-1.2-7
			c-4.8,14.3-9.5,27.9-14,41.6c-6.7,20.4-11.7,41.3-18.9,61.5c-0.9,2.6-0.9,5.6-1,8.4c-1,31.5,0.3,63,0.5,94.5
			c0.1,12.8-0.5,25.7-1.7,38.5c-2.3,25-3,50-3.3,75c-0.3,32.3-3.1,64.5-5.7,96.8c-3.1,39.9-6.3,79.7-9.4,119.6
			c-2.6,32.9-3,65.8-3,98.8h56C125.1,1011.6,128.7,998.2,131.1,983.8z"/>
		<path fill="#E1E1F3" d="M277.9,710.4c-14.3,4.1-25,0.5-32.8-11c-3.4-5-5.7-10.5-8-16.1c-6.2-15-8.1-31-11.8-46.6
			c-2.5-10.8-7.3-21-8-32.4c-0.7-10.5-4.4-20.9-4.8-31.4c-1.3-34.5,1-69,2.2-103.4c1.4-42.3,3-84.6,4.5-126.9
			c0.1-1.8,0.2-3.5-0.9-5.3c-9-13.8-10.9-30.2-15.9-45.5c-0.3-1.1-0.3-2.3-0.2-3.5c0.2-4.4,2.8-7.4,7-6.3c5.7,1.5,5.4-1.6,5.6-5.3
			c1.9-39.8,5.2-79.4,9.4-119c2.3-22.2,4.8-44.3,12.9-65.4c5.6-14.5,11.9-28.6,20.2-41.7c1.2-1.9,2.7-4.4,5.5-3.4s2.4,3.7,2.3,6
			c-0.2,3.9-1,7.8-0.4,11.8c1.7-0.3,1.6-1.8,2.1-2.7c7.3-15.7,16.4-30.6,27.1-44.2c4.4-5.5,8.9-10.7,13.3-16
			c0.5-0.7,1.1-1.4,1.7-2.1h-35.6c-0.7,0.3-1.3,0.6-2,0.9h1.7c-8.9,4.4-17.8,9-26.8,13.2c-8.5,3.9-15.3,9.8-21.4,16.9
			c-9.4,10.8-17.9,22.4-25.4,34.6c-1.3,2.1-2.8,4.1-2.8,7.1c14.8-13.3,28-28.5,43.2-41.5c1.5,1.8,0.6,2.5,0,3.3
			c-8.5,13.1-17.7,25.9-27.4,38.2c-22.2,28.1-35,60.2-42.1,95c-10.9,53.7-23.6,106.9-37.6,159.8c-14.4,54.4-28.4,108.8-46.4,162.1
			c-2.8,8.3-6,16.5-9,24.8c-0.5,1.5-1.6,2.9-0.9,5.8c3.6-9.2,8.1-17.1,9.6-26c0.6-3.8,3.1-6.2,4.1-9.5
			c10.1-33.8,20.5-67.5,31.9-100.9c2.8-8.3,6.6-16.1,9-24.6c2.4-8.6,5.7-17,8.6-25.5c1-3,2-6,1.5-9.3c-0.2-1.5-0.8-3.3,2.1-3.4
			c1.3,0,1.4-2.4,1.8-3.8c10.8-32.5,20.5-65.3,29.6-98.3c0.4-1.6,0.5-3.3,2-4.7c2.3,1.8,0.5,3.8,0,5.3
			c-5.7,20.2-11.3,40.4-17.5,60.4c-3.2,10.4-3.2,21-3.9,31.6c-5.8,89.9-6.3,179.8-3.8,269.8c1.5,55.5,2.6,111,2.6,166.4
			c0,41.4-1.2,82.7-4.2,124c-1.8,24.9-5,49.7-9.1,74.4c-4.3,25.8-9.7,51.3-16,76.7c-0.3,0.8-0.6,1.6-0.9,2.3h22.5
			c11.2-37.8,18-76.5,22.9-115.6c1.9-15.2,3.7-30.4,5.6-45.6c1.1-8.6,2.3-17.2,3.6-25.7c1.2-8.7,2.3-17.5,3.8-26.2
			c1.4-8.2,1.4-16.5,2.8-24.6c1.3-7.3,0.7-15,1.4-22.3c1-9.4,1.8-18.8,3-28.2c0.6-4.3-2.2-8.5-1.4-12c3.7-16.6,3.5-33.4,3.9-50.2
			c1.4-58.7-1.8-117.2-6.3-175.8c-4.5-57.6-9.5-115.2-15.1-172.7c-0.1-1.3-0.8-2.9,0.8-4c1.7,1.1,1.2,2.8,1.4,4.1
			c1.3,12.4,2.5,24.9,3.6,37.3c2.5,28.2,5,56.4,7.4,84.6c3,34.4,5.7,68.7,7.7,103.2c1.8,31.6,3.2,63.2,3,94.9c0,1.2-0.9,3.5,1.5,3.4
			c2-0.1,5,0.8,5.7-2.5c0.6-2.9,1.2-5.7,0.8-8.8c-3.5-23.4-5.7-47-7-70.6c-1.8-32.4-2.9-64.8-1.4-97.3c0.9-19.1,0.7-38.3,2.4-57.4
			c0.5-6.3,0.5-12.7,2.7-19.6c1.7,2.2,1,3.8,0.9,5.3c-0.9,10.5-2,20.9-2.5,31.4c-1.6,33.6-1.9,67.2,3.8,100.6
			c2.5,14.6,4.4,29.3,5.7,44.1c1.1,13.1,5.5,25.8,2.6,39.3c-2.5,12-3.6,24.3-5.7,36.3c-2.3,12.9-4.3,25.9-7.2,38.6
			c-4.2,17.9-4.3,36.2-4.7,54.5c9.4-37.3,19.7-74.5,22.1-113.4c0.1,2.3,2.2,3.6,2.3,5.9c0.6,11.3,3.4,22.3,5.3,33.5
			c1.9,12,6.9,23.4,14.6,32.8c15.9,19.1,36.5,22.8,57.9,10.3c7.7-4.5,8.2-5.8,6.1-15.1C294,703.7,286.3,708.1,277.9,710.4z"/>
		<path fill="#E3D7E3" d="M276.1,132.7c7.5-49.9,23.5-96,61.1-132h0.3c0.2-0.2,0.5-0.5,0.8-0.7h-26.6c-0.2,0.3-0.4,0.5-0.7,0.8h0.3
			c-1,1.3-2,2.6-3.1,3.8c-0.5,0.5-0.9,1-1.3,1.5c-0.2,0.2-0.4,0.5-0.5,0.7c-0.1,0.2-0.3,0.3-0.5,0.4c-19.8,22.1-35,47-44.6,75.2
			c-12.2,36-16,73-12.7,110.8c3.8,41.6,12.4,82.2,24.6,122.1c2.8,9,4.2,9.4,11.3,3.2c1.2-1.1,2-2.7,2-4.3c0.8-8.8,1.6-17.6,2.4-26.4
			c0.4-4.3-0.1-8.6-1.3-12.8C274.7,228.3,268.9,181,276.1,132.7z"/>
		<path fill="#E2C7B6" d="M380.9,771c-10.2-24.3-15.6-49.4-15.2-75.8c0.1-5.8,0.9-11.7-1.7-17.2c-2,8.1-2.4,17.1-6.8,24.3
			c0.3,22.4-0.5,44.8-2.4,67.1c-3.8,42.7-11,84.5-16.8,126.6c-3,21.3-9.8,41.9-20,60.9c-1.5,2.5-1.8,5.7-0.8,8.5
			c2.6,7.5,4.9,15.2,7.4,23.1c2.1-0.9,2.6-2.8,3.3-4.3c17.3-34.1,35-68.1,49.5-103.6c3-7.3,7.2-13.9,10.5-21c1.2-2.6,2.2-5.2,3-7.9
			c1.9-6,5.1-10.1,12-9.8c1.9,0.1,3.4-0.2,2.5-2.8c-2-5.6,0.6-9.6,5.2-12.1c3.5-1.9,2.3-3.3,0.6-5.6
			C399.8,805.4,388.6,789.2,380.9,771z"/>
		<path fill="#CFD0E7" d="M593.9,129.9c-3.6-9.4-6.9-19.3-12.5-27.6c-9.3-13.8-18.6-27.6-29.2-40.5C535.1,41,515.6,22.4,493.9,6.5
			c-0.2,0-0.3-0.1-0.5-0.3c0,0-0.1-0.1-0.1-0.1c-1.1-0.8-2.3-1.6-3.4-2.5c-1-0.8-2-1.7-2.9-2.6h1.8c-0.3-0.4-0.7-0.7-1-1.1H341.4
			c-1.4,1.3-2.9,2.7-4.3,4.1c-5.3,5.7-10.6,11.3-15.6,17.4c-20.9,25.6-31.4,55.8-38.7,87.3c-13.1,56.3-8.1,111.8,7.3,166.9
			c0.1,0.5,0.4,1,0.8,1.3c-1-19-2.4-38-1.3-58c2.3,2,1.8,3.8,1.8,5.2c-0.2,31,1.7,62,7.1,92.6c7.5,42.7,10.5,85.8,14.1,129
			c2.6,31.7,7.7,63.1,12.3,94.6c3,20.7,6.3,41.4,9.5,62.2c1.6-1,1-3.2,3.2-4c0.1,0.2,0.6,0.8,0.5,1c-4.3,9.7-0.9,19.3,0.5,28.8
			c2.1,14.4,4.5,28.8,6.9,43.1c0.3,1.5,0.7,2.9,1.2,4.3c0.6-1.2-0.3-3.1,1.5-2.9c1.5,0.2,0.9,1.9,0.9,3c0,14.8,0.1,29.5,1.2,44.2
			c1.1,14.7,2.8,29.5,2.2,44.4c2.3-20.2,2.9-40.6,2.6-60.9c-0.4-0.3-0.7-0.8-0.3-1.4c0.1-0.2,0.2-0.3,0.3-0.5
			c-0.2-9.6-0.5-19.2-1-28.8c2.6,0,2.2,1.5,2.3,2.5c0.4,7.4,0.7,14.8,0.8,22.2c1.1-2.8,1.8-5.7,2.4-8.7c1-4.6,1.6-9.3,3-13.8
			c0.2-0.7,0.8-0.8,1.3-0.7c0.8-0.8,2-1.4,1.8-2.9c-0.9-4.5-0.6-9.3-1.1-13.9c-1.7-17.6-2.1-35.2-2.7-52.9c-0.1-2.4,1.4-6-4.9-4.4
			c5.5-2.2,4.8-5.9,4.7-9.3c-0.3-15.7-0.3-31.3,0.3-47c0.1-2.5,0.3-4.7-3.6-5.4c3.7-0.5,4.3-2.3,4.5-5.1c2-25,1.9-49.9-3.7-74.5
			c-0.1-0.7-0.2-1.3-0.2-2c0-0.2,0.4-0.5,1-1.1c2.6,5,2.9,10.2,3.7,15.3c2.2,14.8,3.8,29.8,10.1,43.6c2.1,4.7,4.6,9.2,6.9,13.8
			c0.4,0.8,0.8,2.1,2.1,1.6c1.7-0.6,0.9-1.9,0.5-2.9c-0.8-2.4-1.7-4.7-2.6-7c-6.5-16.6-7.8-34.4-12-51.5c-1.3-5.4-3.2-10.7-3.7-16.8
			c2.5,0.8,2.4,2.6,2.8,4.1c3.6,13.8,6.5,27.9,8.9,42c1.8,10.5,5.6,20.5,9.4,30.5c0.9,2.3,1.5,2.9,3.5,0.6
			c5.2-6,10.8-11.8,16.3-17.6c1.6-1.7,2-3,0.5-5.1c-39.1-54.8-65-115.5-80.1-181c-0.1-0.3-0.4-0.5-1-1.5c-1.6,4.1-3.2,7.8-4.6,11.5
			c-1.4,3.7-2.9,7.7-4.3,11.5c-2.3-0.8-1.7-2.1-1.4-3.4c7.3-30.6,15.8-60.9,26.7-90.4c1.1-2.4,1.2-5.2,0.4-7.7
			c-9.3-26-18.4-52.1-27.7-78.1c-1.6-4.4-3.7-8.5-5.6-12.8c-0.7-1.6-1.4-3.5,0.8-4.2c1.7-0.5,1.8,1.6,2.2,2.7
			c9.9,26.6,23.9,51.2,36.7,76.5c0.5,0.9,1.1,1.7,1.7,2.5c1.4-3.2,2.6-5.8,3.9-8.5c10.5-22.5,23.2-43.9,38-63.9
			c6.2-8.3,11.8-16.7,13-27.3c0.3-2.4,0.7-5.2,2.5-7.1c0.8,0.1,1.3,0.9,1.2,1.7c0,0.2-0.1,0.3-0.1,0.4c-11.5,38.1-8.8,76.1,0.6,114
			c2.5,10.2,2.2,9.9,11.5,5c4.3-2.3,5.6-4.9,5.5-9.7c-1.2-53.5-2.9-106.9-5.2-160.4c-0.2-4.8-2.3-6.5-6.1-7.6
			c0.3-0.6,0.5-1.1,0.6-1.1c5.1,1.2,5.4-1.4,4.8-5.5c-0.5-3.9-1-7.9,0-12.3c2.8,2.3,1.8,5.2,1.8,7.4c-0.1,7.7,1.4,13.4,9.9,16.8
			c9,3.7,15.1,11.8,20.7,21.1c-0.7-6.4-4-11.1-4.4-16.5c2.1-0.5,2.1,1.1,2.4,2c1.6,4.4,3.2,8.8,4.4,13.2c5.5,21,14.1,40.8,24.6,59.8
			c7.3,13.3,12.6,27.5,18.6,41.4c1.9,4.5,2.4,10,7.7,12.8c0.8,0.4,0.2,4.2,1.4,6.4c4.9,8.9,9.6,17.9,13.6,27.2
			c0.3,0.7,0.8,1.4,1.8,3.4c-5.1-36.2-15.3-69.7-26.1-103.5c3,0.2,2.9,2,3.2,3.3c5,20.4,15.2,38.6,24.5,57.2
			c1.4,2.7,2.6,3.7,5.7,2.6c3.3-1.2,6.7-1.9,10.2-2.3c3.7-0.4,3.9-1.7,2.7-4.8c-6.4-16.6-13.4-33-20.9-49.2
			c-0.8-1.7-2.3-3.2-1.6-5.8c2.3,0.5,2.5,2.5,3.1,3.9c7.6,15.9,14.7,32.1,20.7,48.7c1.7,4.6,3.6,6.5,8.8,6.2
			c8.7-0.6,17.2,1,25.6,3.6c1.4,0.4,2.8,0.7,4.1,2.1c-1.9,1.9-3.6,0.3-5.1-0.1c-8.3-2.4-17-3.6-25.6-3.6c-3.2,0-4.7,0.4-3.1,4.1
			c2,4.6,3.4,9.3,5.7,13.8c17.1,33.8,29.6,69.1,35.5,106.6c0.2,1.1,0.5,2.3,0.8,3.5c1.6-0.2,1.5-1.5,1.9-2.4
			c8.8-21.9,12.4-45.5,10.5-69c-0.4-5.3-1.2-10.6-1.3-15.9c-0.2-6.9-2-13.6-5.5-19.5c-0.6-1-1.8-2.1-0.7-3.8c2.2,0,1.9,2.8,3.7,3.5
			c-4.9-50-16.5-97.5-46.5-139c2.9-0.1,3.4,1.9,4.3,3.2c20.6,30.3,34.1,64.8,39.5,101c2.1,13.8,4,27.7,6,41.5c0,0.8,0.2,1.6,0.4,2.4
			c3.2,8,5.7,16.3,7.7,24.8c1.8,8.3,2.6,16.7,3.4,26.5C618.8,230.5,612.8,179.3,593.9,129.9z"/>
		<path fill="#CFD0E7" d="M639.5,119.1c-3.1-10.1-8.5-19.5-13.8-28.7c-18.2-31.6-37.1-62.5-66-85.6c-0.1,0-0.1-0.1-0.2-0.1
			c-0.4-0.4-0.9-0.7-1.3-1.1c-0.8-0.6-1.6-1.3-2.4-1.9c0,0-0.1-0.1-0.1-0.2c-0.7-0.5-1.3-1-2-1.5h-62.9c1.2,1.3,2.4,2.6,3.5,4
			c26.5,19.2,49.9,42.4,69.3,68.7c0.5,0.7,0.8,1.8,2.6,1.9c-5.9-9.7-12.6-18.5-19.8-28.3c3.7,0.4,4.2,2.2,5.1,3.4
			c14,18.1,25.9,37.6,35.7,58.3c2.7,5.7,4.7,11.7,8.4,17c12.4,17,21.8,35.9,27.8,56c0.4,1.2,0.1,3.2,2.2,3.4c3-4.3-1.4-9,0.4-13.6
			c2.1,1.5,1.9,3.4,2.2,5.1c1.3,8.7,3,17.3,6.2,25.6c5.2,14,8.9,28.6,11,43.4c2.2,14,3.6,28,5.4,42.1c0.6-1.6,1-3.2,1.3-4.8
			c3.3-17.2,5.4-34.5,6.4-52c1.1-19.2,0.2-38.2-1.5-57.3C655.1,153.6,645.1,137.1,639.5,119.1z"/>
		<path fill="#CFD0E7" d="M714.6,252.5c2.2,13.9,3.8,27.8,5.5,41.8c1.6-14.5,8.2-28.6,2.9-43.5c-0.3-0.9-0.6-2.7,0.3-2.4
			c5.3,1.7,2.6-2.7,2.6-3.7C727,184,709.2,129.4,672,81.1c-0.6-0.8-1.2-1.6-1.8-2.4c-0.6-0.8-0.9-1.5,0-2.1c0.8-0.5,1.2,0.2,1.6,0.7
			c0.8,0.9,1.5,1.8,2.2,2.8c35.7,46.5,54,99,54,157.6c0,11.9,0.7,23.4,3.5,34.9c4.1,17.3,4.5,35,3,52.7c-0.4,4.6-0.8,9.2-1.2,13.8
			c5.2-8,8.2-16.6,10.6-25.4c2.5-8.9,4-18.1,4.3-27.4c3,5,2.1,10.7,2.6,16c0.6,5.6,0.1,11.3,0.1,16.9c9.3-31.5,16.1-63.2,12-96.1
			c-1.2-9.4,0.2-20.2-10.4-26.1c2.3-1.6,3.7,1.7,6.2,1c-1.8-6.8-3.5-13.6-5.5-21c2.3,0.7,2.5,1.9,2.7,2.7c3,11.5,7.1,22.8,12.1,33.5
			c6.2,13.1,9.7,27.2,12.3,41.5c1.7,9.4,4.5,18.6,8.3,27.4c0.4-13.8,1.1-27.6-1-41.3c-5.8-37.6-18.7-72.8-37.3-105.8
			c-9.8-17.4-20-34.6-34.6-48.7c-6.5-6.2-13.2-12.2-19.8-18.3c-0.6-0.6-2-1.2-0.8-2.3c0.8-0.8,1.5,0.1,2.1,0.6s1,0.9,1.5,1.3
			c42.2,37.4,78.6,79.6,107.6,128.1c0.7,1.2,1.1,2.7,2.9,3.5c-5-21.3-11.3-41.9-23.1-60.5c-19.8-31.3-45.4-56.9-75-78.9
			C690,44.4,667,32.2,644.5,19.2c-8-4.6-16-9-23.5-14.3c-0.1,0-0.1-0.1-0.2-0.1c-1.7-1.2-3.3-2.4-4.9-3.7h1.3c-0.3-0.3-0.7-0.7-1-1
			H557c0.4,0.3,0.8,0.6,1.2,0.9h0c0.1,0.1,0.1,0.1,0.2,0.2c0.9,0.7,1.7,1.4,2.5,2.1c0.1,0.1,0.2,0.2,0.3,0.3
			c8.1,6.9,16.3,13.5,24,21C602.8,41.6,619,60,633.7,79.6c10.6,14.2,19,29.8,29.4,44c17,23.2,30.4,48.1,38.7,75.6
			C707,216.7,711.7,234.4,714.6,252.5z"/>
		<path fill="#FFFFFF" d="M619.3,0c0.5,0.5,1.1,1.1,1.6,1.7C628.9,8,638,13,646.9,18c25.4,14.6,51.2,28.5,74.2,47
			c27.4,21.9,51.4,46.9,69.3,77.3c8.7,14.8,14,30.9,18.4,47.3c3.3,12.4,6.7,24.7,9.9,37.1c0.4,1.5,1.8,3.3-0.1,5.5
			c-2.6-4.5-3.2-9.3-4.4-13.8c-1.4-5.3-3.5-10.4-6.3-15.1c-18.7-32.3-40.9-62.5-66.2-90c-1-1.2-2.1-2.3-3.5-3.1
			c39.3,61.2,60.8,126.8,50.7,201.1c-1.8-2.2-1.2-4.2-1-6c1-9.5-0.3-19-3.9-27.8c-5.9-15.3-7.1-31.8-12.3-47.3
			c-2.4-7.2-4.7-14.5-8.5-21.3c8.4,46.4-3.1,90.2-17,133.7c-0.3-6.3,2.6-12.1,2.4-18.4s0-12.7,0-20.2c-0.6,1.4-1.1,2.8-1.6,4.2
			c-3.5,16.5-10.1,32.2-19.5,46.2c-1.6,2.3-1.4,4.1-0.5,6.4c3.9,9.4,8.4,18.5,13.6,27.2c19.4,33.3,29,69.6,33.1,107.5
			c0.7,6.8,0.8,13.6,1.2,20.4c0.1,1.5,0.3,3.2-0.8,4.9c-2-1-1.3-2.7-1.3-4c0.1-16.5-3.6-32.9-10.9-47.8c-6.6-14-12.7-28.2-19.1-42.3
			c-1.2-2.5-2.6-4.9-4.2-7.2c11,42.4,19.3,85.1,19.3,129.1c0,11.5-0.6,23-1.9,34.4c-0.1,0.6-0.1,1.3-1.5,1.7
			c-0.8-6.4-2.5-12.6-4.6-20.3c-2.2,11.5-3.9,21.5-6,31.4s-4.5,19.5-8.5,29.5c-0.7-1.1-1.2-1.6-1.1-1.9c4.3-10.5,2.3-21.4,1.4-32.1
			c-2.2-24.7-8.3-49-18-71.9c-0.3-0.8-0.8-1.5-1.2-2.4c-3.7,6-5.3,11.8-3.2,18.9c4,14,5.6,28.4,6.5,42.9c0.1,1.9,0.8,3.9-1.2,5.9
			c-2-17.4-3.5-34.9-8.4-51.9c-1.7,0.2-1.8,1.5-2.2,2.4c-7.2,14.5-14.9,28.7-23.4,42.4c-1.5,2.2-1.9,4.9-1,7.4
			c8.3,24.7,8.4,51.3,0.5,76.1c-0.5,1.5-2,3.2,0.3,4.9c13,9.4,19.6,23.1,23.5,37.9c8.6,32.7,20.9,64.2,30.4,96.6
			c1.9,6.4,3.4,12.9,4.7,19.4c4.5,22.3,16.8,40,32.7,55.5c7,6.9,14.6,13.1,22,19.7c18.8,16.6,23,37.8,18.8,61.4
			c-1.9,10.7,0.2,20,7.5,28.3c6.3,7.2,10.1,15.8,13.8,24.5V0H619.3z"/>
		<path fill="#E2C7B6" d="M263.5,1014.2c3.7-3.3,3.9-6.6,2.5-11c-5.9-20.1-14.1-39.5-24.2-57.8c-9.4-17-19.7-33.6-27.1-51.7
			c-3.2-7.9-6.2-15.9-9.4-24.4c-1.2,1.6-2.2,2.7-3,3.9c-9.7,13.8-19.2,27.6-29,41.2c-2.1,3-3.4,6.4-3.8,10.1
			c-2.8,21.9-6.8,43.7-11.8,65.3c-2.7,11.8-5.6,23.6-8.4,35.3h104C256.7,1021.4,259.8,1017.5,263.5,1014.2z"/>
		<path fill="#CFD0E7" d="M311.7,697.4c10-9.9,19.7-19.5,29.5-29.2c0.5-0.5,0.7-1.1,0.7-1.8c-0.8-5.4-1.6-10.9-2.7-17.6
			c-7,8.5-12.6,16.2-19.2,22.8C312.7,678.9,311.1,687.4,311.7,697.4z"/>
		<path fill="#BDA18D" d="M312.8,699.8c-0.9,0.7-1.6,1.7-1.8,2.9c-1,10.2-2.1,20.4-3.2,31.5l0,0c8.7-4.5,15.2-9.9,19.7-17.5
			c3.1-5.1,5.3-11.5,10.4-14.4c9.2-5.4,8.8-12.7,6.5-21.1c-0.9-3.3-1.2-6.7-1.8-10.3c-0.6,0.2-1.1,0.5-1.6,0.9
			C331.6,680.9,322.2,690.3,312.8,699.8z"/>
		<path fill="#BDA18D" d="M194,688.8c2-11,4-21.9,5.8-32.9c0.2-1.5,2-4.2-1.9-4.2c-2.9,0-4,0.9-3.9,4
			C194.2,666.7,194,677.7,194,688.8z"/>
		<path fill="#BDA18D" d="M209,806.6c2.5-0.5,5.5-0.5,5.8-4.3c0.1-1.1,1.3-1.6,1.7-0.8c1.9,3.9,3.8,0.5,5-0.2
			c16.3-9.7,32.3-19.9,48.8-29.3c10.7-6.1,19.7-14.8,26.2-25.2c2.8-4.3,3.9-9.4,3.2-14.4c-1.6,0.9-2.7,1.5-3.8,2.2
			c-11.7,7.4-24.1,12.9-37.8,15c-30.4,4.7-45.2,0.2-58.5-24.6c-8.3,22.1-11.4,45.2-13.3,68.4c-0.1,1.2,0.2,2.3,0.8,3.3
			C191.5,803.8,201,808.2,209,806.6z"/>
		<path fill="#BDA18D" d="M261.5,619.2c-7.3,7.9-15.5,14.9-24.5,20.9c-7.4,4.8-7.3,4.8-5.8,13.5c2.6,15.4,6.9,30.1,15,43.6
			c5.1,8.5,12.5,13.5,22.7,12.6c11.6-1,22.4-6.1,30.4-14.6c1-0.8,1.7-2.1,1.7-3.4c0-15.5,0-30.9,0-46.5
			C282.2,650.4,273,644,261.5,619.2z"/>
		<path fill="#E3D7E3" d="M258.2,334.5c-2.1,3.4-5.2,6.1-8.9,7.8c-3.7,1.7-6.6,4.8-6.8,8.7c-0.3,5.3-2.8,9.5-5.6,13.2
			c-5.2,7-8.5,15.2-9.5,23.8c-1.2,9-4.9,18-2.8,27.1c3.3,14.2,4.2,28.6,5.7,43c0.9,8.7,1.8,17.6,5.8,25.6c0.6,1.2,0.9,3.6,2.6,3
			c3-1.2,2.3,0.7,2.1,2c-0.2,1.7,0.3,3.3,1.4,4.6c2.5,3.7,4.7,7.7,6.5,11.8c1.5,3.5,3.6,6.8,6.1,9.8c4.2-33.1,8.2-65.2,12.2-97.4
			s14.2-63.2,18.5-97.1c-6.3,5-12.4,6.5-18.6,7.9C263.3,329.1,260.2,331.3,258.2,334.5z"/>
		<path fill="#CFD0E7" d="M329.3,616.6c4.9-7.1,2.4-14.1,0.8-21.4c-5.3,15.6-15.4,27.4-27.6,37.8c-9.7,8.3-16,8.2-23.7-2
			c-7.1-9.4-10.9-20.3-12.2-32c-2.5-22.3-6.2-44.5-5.8-67.2c0-3.6-0.1-7.7-4.8-10.2v5.3c0,14.7,0.1,29.3,0,44
			c-0.2,10.5,0.8,21,3.1,31.2c3,13.2,7.2,26,16.8,36.2c6.5,6.9,15.4,8.5,23.3,4.7c5.7-2.7,11.3-5.5,16.2-9.6
			C321.1,628.7,325.2,622.7,329.3,616.6z"/>
		<path fill="#BDA18D" d="M229.8,747.9c25.1,3.7,47.3-3.9,68.1-17.4c1.3-0.9,2.3-1.8,2.3-3.6c0-5,0-9.9,0-15.2
			c-2.9,1.6-5.7,3.3-8.6,4.7c-20.2,10.1-39,6.7-54.5-9.6c-10.1-10.6-15.6-23.5-18.1-37.7l-3.9-21.7c-4.3,23.2-8.5,46.1-13.9,68.7
			c-0.5,1.4-0.7,2.9-0.5,4.4C203.1,732.6,217.5,746.1,229.8,747.9z"/>
		<path fill="#7384AB" d="M236.4,488.6c-3.4-5.4-5.6-11.4-6.5-17.6c-0.8-4.7-1.5-9.4-2.2-14.2c-5.4,35.1-9.2,70.3-12.4,105.6
			c-1.1,12.7,1.4,25,4.7,37.4l0,0c5.9-35.4,11.9-70.7,17.8-106.1C238,491.9,237.5,490.1,236.4,488.6z"/>
		<path fill="#E2C7B6" d="M283.5,857.1c2.3-7.6,15.3-103.3,14.9-109.6c-6.6,9.7-12.8,19.1-20.5,27c-7.3,7.4-9.4,15.7-9,25.7
			C269.9,820,274.1,838.7,283.5,857.1z"/>
		<path fill="#7384AB" d="M258.6,619.3c2-2,2-3.8,1.2-6.2c-4.1-13-6-26.6-5.9-40.3c0.1-14.2-0.2-28.3,0.1-42.4
			c0.2-7.7-0.5-14.6-5.5-21c-3.3-4.2-4.2-10-8.1-14.2c-1.2,1-1.2,2.1-1.4,3.2c-4.9,29.3-9.9,58.7-14.8,88c-1.9,11.5-5.6,23-1.2,34.9
			c2,5.7,3.5,11.4,4.7,17.3c0.7,3.3,1.6,3.8,4.5,2C241.8,634.5,250.7,627.4,258.6,619.3z"/>
		<path fill="#CFD0E7" d="M257.1,514c-0.3,2.4-0.9,5,2.9,6.5c-0.2-10.7,0.1-21.2,0.7-31.6C259.3,497.3,258.2,505.7,257.1,514z"/>
		<path fill="#281E4B" d="M260.7,322.8c0.3,1.6,0.1,4.4,2.6,4.1c3.1-0.4,6.7-0.9,8.9-2.7c1.9-1.5-0.7-4.5-1.2-6.8
			c0-0.2-0.1-0.3-0.1-0.5c-6.9-22.4-12.5-45.1-17.5-68c-0.1,12.2,0.5,24.4,1.8,36.5C256.3,297.9,258.2,310.4,260.7,322.8z"/>
		<path fill="#D2D3E8" d="M227.7,289.9c11.9,5.3,21.2,14.7,29.2,26.8c-0.2-2.4-0.2-3.3-0.3-4.2c-2.4-14.5-4-29-4.8-43.7
			c-1.1-20.9-1.3-41.8-4.2-62.7c-4.7-32.9-3.3-66.4,3.9-98.8c3.8-17.2,13-33.3,10.9-51.8c0-0.8,0.1-1.7,0.2-2.5
			c0-1.3,0.4-2.7-1.1-3.7c-3.2,2.1-4.6,5.5-6.4,8.7c-16.8,29.6-25.5,61.4-28.6,95.3c-3.6,38.8-6.8,77.6-9.7,116.4
			C216.1,279.7,217.9,285.6,227.7,289.9z"/>
		<path fill="#E1E1F3" d="M224.9,427c-3.4-10.8-3.1-21.5-0.9-32.5c2.3-11.6,4-23.3,12.1-32.8c1.1-1.3,1.6-3.3,2.3-4.9
			c0.4-0.9,0.9-2-0.3-2.6c-6-3.1-11.2-7.3-16.8-12.4c-2.5,68.5-4.9,135.9-7.2,204.3c0.3-0.5,0.6-1.1,0.8-1.7c2.5-26,5.5-52,9-77.9
			C225.5,453.3,229,440.2,224.9,427z"/>
		<path fill="#E3D7E3" d="M236.5,350.7c2.2,1.3,3.4,1.3,4.2-1.5c0.8-3.5,3.1-6.4,6.2-8.1c4.7-2.2,7.9-5.8,11.1-9.7
			c2-2.4,1.9-4,0.7-6.6c-7.9-16.7-21.1-28-37.2-36.2c-1.7-0.8-3.8-4-5.9,0c-0.4,0.7-1.5,0-1.5-1.1c-0.1-3.9-3.4-2.8-5.1-3.5
			c-4.1,0.1-5.8,2.8-4.5,7.8c3,10.9,6.1,21.8,9.5,32.6C217.6,336.5,226.1,344.4,236.5,350.7z"/>
		<path fill="#7384AB" d="M280.1,609.2c4.4,1,9,0.9,13.3-0.4c3-0.8,3.8-2.3,3.2-5.4c-3.5-20.9-9.2-41.3-17-60.9
			c-0.7-1.7-1-3.5-2.7-4.6c-4.4-2.9-8.8-5.9-13.7-9.2c-1.1,23.2,2.7,45.4,5.2,67.7C269.5,605.2,271.5,607,280.1,609.2z"/>
		<path fill="#E2C7B6" d="M740.6,822.3c-1.2-17-8.5-32.1-12.9-48.8c-0.9,1.2-1.3,1.5-1.4,2c-6.4,21.9-14.9,43.1-25.2,63.4
			c-0.8,1.5-0.8,3.2,0,4.7c2.8,6.9,2.9,14.5,0.4,21.5c-0.9,2.5-0.8,5.2,0.1,7.7c3,9.2,5.2,18.8,4.5,28.5
			c-0.9,11.8,2.5,22.9,3.5,35.2c0.8-1.4,1.2-2.1,1.5-2.8c10.2-23,20-46,30.6-68.8c3.7-7.8,4.8-16.6,2.9-25
			C743.3,833.8,741,828.1,740.6,822.3z"/>
		<path fill="#8A5745" d="M682.7,842.1c-6.8-7.9-16-11.7-25.6-14.9c-11.4-3.8-22.9-7.8-32.1-15.7c-7-6.1-14.7-5.4-22.7-5.4
			c15.5,9.1,28.8,20.9,42.4,32.4c23,19.6,46.1,39.1,59.1,67.9c0-0.8,0.1-1.5,0.1-2.3c-0.1-11.6-2.1-23.2-5.9-34.1
			C694.4,859.5,689.7,850.2,682.7,842.1z"/>
		<path fill="#D2D2E8" d="M619.2,803.9c7.2,1.7,14.7,2.3,22.1,3.3c-1.3-2.6-3-4.9-5.1-6.9c-20.4-20.7-45.2-33.2-73.4-39.1
			c-25-5.2-50.4-4.6-75.7-3.5c-13.5,0.6-27,1.1-40.3-2c-25.9-6-46-21.2-62.5-41.4c-1.6-2-3-3.5-4.7-2.7c-1.2-8.5-8.2-13.9-10.9-21.3
			c-0.5,0.5-0.7,1.2-0.7,1.9c-0.6,24.5,3.7,48.9,12.5,71.8c13.5,35.5,39.1,63,60.1,93.9c0.1-0.6,0.3-1,0.2-1.2
			c-9.1-17.5-18.6-34.6-33.6-48c-0.5-0.4-1-0.8-1.5-1.3c-0.7-0.9-0.8-2.2-0.2-3.2c1.3-1.5,2,0.2,2.7,0.9c3.4,4.1,7.4,7.7,11.7,10.8
			c1.5,1,2.7,3.3,5,0.9c0.8-0.9,1.9,0.4,1.6,0.8c-2.5,3.7,1.2,4.2,2.8,5.5c15.9,13.4,34.1,22.7,53.1,30.8c11,4.8,22.6,8.1,34.5,9.7
			c19,2.5,36.4-7.8,42.8-25.9c-23.2,17.3-47.1,20.7-72.5,7.3c-11.8-6.2-23.2-13.1-34.6-19.9c-17.6-10.5-31-25.6-43.6-41.5
			c-0.6-0.8-1.4-1.5-0.5-2.6c1-1.3,1.6-0.2,2.3,0.5c8.2,7.8,18,13.1,28.1,17.9c2.4,1.2,4.9,4,8.1,1.3c0.4-0.3,1-0.2,1.3,0.3
			c0.1,0.2,0.2,0.3,0.2,0.5c-0.7,3.6,2.5,3,4.1,3.6c28.5,10.5,57.7,9.3,86.9,4.3c16.2-2.8,32.2-7.2,48.9-6.4
			c2.4,0.1,4.4-1.1,7.3-0.4c5.7,1.4,11.9,1.3,17.9,1.4C615.4,803.9,617,803.3,619.2,803.9z"/>
		<path fill="#E1E1F3" d="M116.8,747.6c1.9-4.6,3.2-9.4,4.1-14.3c1-5,1.6-10.2,2.6-15.2c8.7-43,13.9-86.7,15.6-130.5
			c0.8-20.5,1.2-41,2.3-61.4c2.7-49.2,6.3-98.5,3.6-147.8c-0.8-14.1-1.7-28.2-2.6-43.8c-0.6,1-1.2,2-1.7,3
			c-4.9,14.2-9.7,28.3-14.6,42.5c-0.7,2.2-0.9,4.6-0.7,6.9c0.5,17.5,1.1,35,1.4,52.5c1.4,95.9-1,191.6-8.5,287.2
			C117.7,733.6,117.2,740.6,116.8,747.6z"/>
		<path fill="#8A5745" d="M783.6,885.4c-14.6-12-26.7-26-35-43.1c-0.2-0.5-0.5-1.2-1.9-0.9c2.9,12.8,2.8,26.1-0.2,38.9
			c-0.3,1.4,0.3,3,0.3,4.5c0,4.5,3.2,5.3,6.7,5.7s6.6,0.3,8.4-3.6c3-6.6,7.3-7,12.2-1.4c3.8,4.4,4.3,9.7,4.1,15.2
			c2.1-3.1,3.8-6.4,6.3-9.1C787,888.7,786.1,887.4,783.6,885.4z"/>
		<path fill="#8A5745" d="M769.5,884.6c-2-1.1-4.2-1.5-4.9,1.2c-2.1,7.5-7.6,7.7-14.7,6.6c5.1,6.1,12.3,10.2,20.1,11.5
			c2.7,0.5,4.3-1,5.3-3.5C777.2,895.4,774.3,887.2,769.5,884.6z"/>
		<path fill="#8A5745" d="M442.8,803.7c-8.2-3.8-16.3-8-24.1-12.5c4.2,5.6,8.9,10.9,14,15.8c2.2,2.2,4,2.6,6.2,0.2
			C439.9,806.1,441.1,805.2,442.8,803.7z"/>
		<path fill="#BDA18D" d="M366.6,642.5c2.7-4,5.8-7.8,9.3-11.2c10.1-9.5,20.2-10.8,32.4-4.3c3.1,1.7,6.3,3,9.6,4
			c19.8,5.7,39.6,11.3,59.5,16.9c3,0.9,6,1.9,9.5,3c-6.8-9.7-15.5-14.5-26.6-14.8c-1.7-0.1-3.3-0.4-4.9-0.7
			c-15.4-2.2-28-10.4-39.9-19.6c-13.9-10.8-29.9-15.6-47-17.7c-3.7-0.5-4.5,0.8-4.4,4.3c0.5,11.3,0.8,22.6,1.2,34
			C365.4,638.3,365.2,640.3,366.6,642.5L366.6,642.5z"/>
		<path fill="#CFD0E7" d="M674.4,257.4c3.9-11.3,5.7-23.2,5.5-35.2c-0.3-21.2-4.6-42-8.6-62.7c-1.8-9.3-2.7-18.7-7.1-27.4
			c-4.8-9.6-11.3-18.2-16.6-27.5C637,85.8,623.3,69.1,609.1,53c-4.3-4.9-8.4-9.9-13.6-13.9c14,19.2,26.5,39.5,37.5,60.7
			c7.9,15.4,13.6,31.8,21.1,47.4c10.1,21.2,16.3,44.1,18.2,67.6C673.5,228.9,674.2,243.1,674.4,257.4z"/>
		<path fill="#E2C7B6" d="M378.8,702.9c0.1,0.1,0.2,0.3,0.3,0.4c1.4,2.7,2.8,4.1,6.1,2c3-1.9,6.8-1.8,10.2-1
			c3.9,0.9,7.9,1.3,11.9,1.3c13.7,0.2,27.3,0.3,41,0.4c21.2,0.1,42.5-0.4,63.2,4.4c16.8,3.9,33.5,7.2,50.7,8.2
			c16.2,1,31.9,5.6,46.1,13.4c13.6,7.3,28.7,11.4,41.5,21.7c0-2,0-3,0-4c0.1-6.9-1.7-11.7-9.6-14.1c-8.1-2.4-14-9.3-21.3-13.7
			c-35.4-21.3-72.2-39.9-108.8-58.8c-19.2-9.9-40-15.2-60.7-21c-15.7-4.4-31.8-7.3-46.4-15.1c-3.8-1.9-8.1-2.5-12.2-1.5
			c-8.2,1.7-13.6,7.2-18.7,13.3c-4.4,5.2-7.1,10.7-5.2,17.8c0.4,2.1,0.5,4.3,0.4,6.5C366.8,677.6,369.7,691.1,378.8,702.9z"/>
		<path fill="#839CD5" d="M447.9,805.7c-4.7-1.9-6.9,2.3-8.9,4.6s1.8,3.5,3.3,4.8c12.7,10.4,27.9,16.8,41.7,25.5
			c2.3,1.4,3.4-0.3,4.7-1.5c7-6.1,14.4-11.9,22.1-17.1c3.5-2.4,7.1-4.7,11.7-7.8c-4.5,0.3-7.7,0.6-10.8,0.8
			C489.8,815.8,468.4,814,447.9,805.7z"/>
		<path fill="#839CD5" d="M470.9,851.1c-15.2-6.8-29.4-15.5-42.4-25.9c-1.5-1.2-3-2.2-4.5-3.4c12.2,19.6,23.7,39.1,29.2,62.4v-0.1
			c6.7-9.7,12.8-18.8,19.3-27.5C474.9,853.4,474,852.5,470.9,851.1z"/>
		<path fill="#FFFFFF" d="M67,536.2c2.2-5.6,4.2-11.1,4.7-17.2c1.2-14.9,2.7-29.8,4.2-44.8c1.5-15.2,3.3-30.4,5-46.1
			c-21,34.9-32.1,97.8-23.1,131.2C61.1,551.3,64,543.7,67,536.2z"/>
		<path fill="#E1E1F3" d="M65.6,456.7c3.4-7.4,6.3-15.1,9.9-22.3c8.3-16.7,8-34.8,8.8-52.9c-0.3,1-0.7,2-0.9,3
			c-4.9,19-10.8,37.7-17.8,56.1c-11.1,29.2-19.1,59.2-21,90.5c-1,17.5-0.2,35.1,2.6,52.5c5.8-9.2,8.1-17.4,7.5-26.7
			c-1-16.1-0.9-32.3-0.6-48.4C54.5,490.5,58,473.2,65.6,456.7z"/>
		<path fill="#BDA18D" d="M139.7,626.5c-0.3,0.6-0.6,0.8-0.6,1.1c-3.2,29.8-7.1,59.5-12.7,88.9c-0.3,1.1-0.1,2.4,0.7,3.3
			c8,10.1,16,20.3,24,30.4l1-0.5c0-2.2,0-4.3,0-6.5c-0.3-32-1.2-64-0.7-95.9C151.4,637.1,146,632.1,139.7,626.5z"/>
		<path fill="#FFFFFF" d="M82.6,639.8c-5.3-1.5-10-4.3-15.5-7.7c-0.6,41.8,3.6,83.5,12.4,124.3c3.9-37.8,1.5-75.9,5.1-113.8
			c0.3-1.2-0.5-2.5-1.7-2.8C82.8,639.9,82.7,639.9,82.6,639.8z"/>
		<path fill="#E3D7E3" d="M366.1,537.8c2.1,0.8,12.7-2.9,13.8-4.9c0.6-1.1,0-1.9-0.5-2.7c-5.1-8.2-8.7-17.1-12.2-26.2
			c-1.2,10.5-0.8,21-2.1,31.3C365,536.2,364.8,537.3,366.1,537.8z"/>
		<path fill="#FFFFFF" d="M59.6,575.4c3.4,16.3,12,29.2,26.1,38.3c-8.5-22.1-13.8-45.3-16-68.9c-4,9.5-7.4,19.2-10.1,29.1
			C59.5,574.4,59.5,574.9,59.6,575.4z"/>
		<path fill="#E1E1F3" d="M85.1,505c-3.8,9.5-7.6,19-11.6,28.4c-1.1,2.6-1.5,5.4-1.3,8.2c1.1,20.6,5.2,40.9,12.1,60.4
			c0.4,1.2,0.3,3.1,2.6,3.8C86.9,572.1,85.2,538.7,85.1,505z"/>
		<path fill="#E1E1F3" d="M196.7,66c5.8-9.7,12.3-19,19.4-27.8c2.9-3.5,5.8-7,8.7-10.5c-1.7,0.1-3.3,0.7-4.7,1.7
			C207,37.5,194.6,46.8,183,57c-41.3,36.2-62.9,82.7-69.6,136.1c-5,39.7-10.2,79.2-16.8,118.6c-3.2,19-7.1,38-8.4,57.3
			c-2.2,33.8-6,67.3-9.7,100.9c-1.7,14.9-3,29.7-4.5,44.6l0.9,0.2c3.7-10.5,7.4-20.9,11-31.4c18.6-54.3,32.3-110.1,47.1-165.6
			c13.3-50,25.1-100.4,35.4-151.1c7.2-35.3,20.3-67.8,43-96.1c5.9-7.4,11.2-15.3,16.8-23c0.7-1,2.2-1.7,1.4-3.2
			c-8.4,8.3-16.9,16.5-25.3,24.8c-2,2-4.1,3.9-6.3,5.7c-0.9,0.8-2.3,0.9-3.3,0.2c-1-0.7-1.3-2.1-0.7-3.2
			C194.7,69.8,195.6,67.9,196.7,66z"/>
		<path fill="#E1E1F3" d="M144.9,340.2c0.5,6.3,0.9,12.6,1.2,18.9c0.9,18.8,1.7,37.5,2.5,56.2c0.9-38.6,2.9-77.1,5.3-115.9
			C147.7,311.1,144,328.4,144.9,340.2z"/>
		<path fill="#E1E1F3" d="M146.2,478.3c-2.9,44-3.3,88.2-6.3,132.2c-0.7,9.8,1.8,16.5,9.3,22c0.1,0.1,0.3,0.1,1.3,0.6
			c-1.1-60.2-2.9-120-2.7-179.7C147.1,461.7,146.7,470,146.2,478.3z"/>
		<path fill="#E1E1F3" d="M86.1,621.3c0.3-2.9-0.8-4.5-3.1-6.1c-10.9-7.6-19-18.5-23.3-31c-0.4-1.2-0.2-3.1-2-3.6
			c-4.5,12-8.9,23.6-0.8,36.1c6.8,10.5,15.5,17.8,28.1,21.5l0,0C85.3,632.2,85.5,626.8,86.1,621.3z"/>
		<path fill="#FFFFFF" d="M101.4,842.8c-1.2,5.8-0.9,11.9,1,17.6c7.6,22.9,15.8,45.5,25.6,67.6c3,6.8,6.1,13.5,9.2,20.3
			c2.5-9.9,4.4-20,5.6-30.1c6.9-52.8,8.6-105.8,9.1-159c0-2,0.2-3.9-1.2-5.7c-8.2-10.2-16.4-20.6-24.7-31.1h-0.1
			c-8.7,27.7-10.2,56.3-17.8,83.7C104.9,818,103.8,830.5,101.4,842.8z"/>
		<path fill="#FFFFFF" d="M88.3,1004.8c0.9-0.4,1.8-0.8,2.6-1.2c12.3-8,25.1-15.1,38.4-21.3c2-0.8,3.4-2.7,3.6-4.9
			c1.1-6,2-12.2,3.4-18.1c0.9-3.7,0.5-7.6-1.3-11c-8.6-17.5-16.2-35.4-22.9-53.6c-4.4-11.8-8.4-23.7-13-36.7
			C92.5,907.3,91.2,955.9,88.3,1004.8z"/>
		<path fill="#7384AB" d="M390.7,569.5c0.7-0.9,1.1-2.1,1-3.3c-0.1-4.1,1.3-8,4.1-11c1.6-1.8,1.2-3-0.4-4.6
			c-4.3-4.2-8.2-8.8-11.5-13.8c-1.3-2-2.5-2.1-4.4-0.8c-3.5,2.4-7.5,3.7-11.7,3.9c-2.4,0.1-3.2,1.1-3.3,3.3
			c-0.8,17.3-0.6,34.6-0.3,52.1C377.5,590.6,382.1,578.1,390.7,569.5z"/>
		<path fill="#7DC196" d="M487.5,340.2c-4.3,7.9-4.9,15.4,1.1,24.2c5.7,8.3,12.3,15.5,23.9,14.3c0.5-0.1,1-0.2,1.5-0.4
			c8.1-2.1,12-8.9,11.9-20.2c-0.1-4.2-0.7-8.3-2-12.3c-2.5-7.9-7.4-14.1-16-14.4C500.4,331.3,492.3,331.4,487.5,340.2z"/>
		<path fill="#0B323B" d="M503,307.3c-16.9,6-32.8,13.4-41.1,30.8c-4.1,8.6-8.6,16.9-15.3,23.9c-1.6,1.7-1.5,2.5,0.7,3.5
			c18,7.9,34.4,18.8,51.3,28.9c5.8,3.5,11.7,4.5,18.2,2.6c6.2-1.8,12.4-3.6,18.8-4.9c9.5-1.9,12.4-5.8,12.3-17.4l0,0
			c-0.5-4.7-1.4-11.2-2-17.6c-1.1-12.4-2.7-24.8-4.9-37.1c-2-10.8-11.5-19.3-22-16.4C513.8,305.1,508.1,305.5,503,307.3z M526.4,346
			c1.2,4.1,1.8,8.3,1.7,12.5c0.2,4.3-0.6,8.5-2.3,12.4c-3.8,8.7-14,12.6-22.6,8.8c-13.1-5.8-20-16.7-22-30.5
			c-0.8-5.4,1.8-10.1,5.8-13.8C500.5,322.7,521,328.2,526.4,346z"/>
		<path fill="#FEF4EA" d="M533.9,259.2c2.7-0.8,5.5-1.2,8.4-1.1c3.3-0.1,4-1.1,2.6-4.2c-2.4-5.3-4.6-10.7-6.7-16.1
			c-7.4-18.7-16-36.9-25.7-54.5c6,23.3,11.2,46.8,14.1,70.7C527.2,258.6,528.8,261,533.9,259.2z"/>
		<path fill="#CFD0E7" d="M550.8,257.8c-0.9,6.4,4.4,10.3,6.1,15.7c0.7,2.2,3.9,2.5,3.7,4.1c-0.7,6,3.7,10,5.4,15.1l0,0c0-1,0-2,0-3
			c-1.2-20.5-5.7-40.5-11.6-60.1c-2.1-6.9-5.1-13.3-7.7-20c-2.4-6.2-1.5-6.5-8-5.2c-2,0.4-3.9,1-5.8,1.3c-4.1,0.7-5.8,1.9-3.2,6.4
			C538,226.8,540.5,244.2,550.8,257.8z"/>
		<path fill="#281E4B" d="M443.3,347.8c-1.2,5.5-2.3,11.1-3.5,16.6c8.8-6.9,14.7-15.4,18.9-25c4.9-11.1,12.9-19.2,23.3-25.2
			c8.6-5,18-8.7,27.7-11c4.8-1.1,9.7-2.8,14.5-2.7c14.3,0.4,28.5,2,42.5,9.3c-1.5-9.9-4.4-19.5-8.5-28.6c-1.1-2.5-2.7-3-5.1-3
			c-8-0.3-16,0-23.9,0.9c-27.8,3.1-52.5,13-72.5,33.2c-5.1,5.1-8.7,10.7-9.7,18C446.3,336.2,444.6,341.9,443.3,347.8z"/>
		<path fill="#CFD0E7" d="M629.5,209.2c-0.4-8.4-0.4-16.8-4.1-24.6c-0.9,1.4-0.5,2.8-0.2,4.2C626.7,195.6,628.1,202.4,629.5,209.2z"
			/>
		<path fill="#FEF4EA" d="M486.8,214.9c-3.2,0.7-4.2,1.9-3.9,5.4c1.1,11.4,1.9,22.9,2.7,34.3c0.4,5.2,0.5,10.4,0.7,16.2
			c12.6-6.8,25.6-9.2,39.1-10.6c-1.4-6.2-3.6-12.2-6.3-17.9s-5.3-11.5-8.2-17.1c-2.6-5-3.9-12.4-8.5-14
			C498.1,209.8,492.1,213.7,486.8,214.9z"/>
		<path fill="#FFD5CC" d="M654.7,521.9c2-0.4,3.9-1.2,5.6-2.4c1.9-1.2-2.1-3.2,0.5-3.9c5.3-1.4,5.9-6.6,8.5-10.2
			c1.2-1.5,1-3.6-0.3-5c-1.1-1.4-3-1.8-4.5-1c-6.3,3.3-12.3,7-15.8,13.7C645.9,518.4,647.9,522,654.7,521.9z"/>
		<path fill="#FEF4EA" d="M470.1,216.6c-1.9-9-4.8-17.8-8.7-26.1c1.3,10.1,2.3,20.1,2.8,31.3C466.7,219.7,470.9,220.2,470.1,216.6z"
			/>
		<path fill="#7384AB" d="M397.8,549.4c0.8,0.9,1.6,1.6,2.8,0.4c5.5-5.2,12.2-8.9,19.6-13.4c-9.4-2-17.7-3.8-26.1-5.5
			c-3.2-0.6-5.8,0.9-4.6,4.3C391.3,540.5,394.1,545.3,397.8,549.4z"/>
		<path fill="#FEF4EA" d="M567.5,279.2c1.6,11.1,0,22.5,3,33.5c0.2,0.8,0.6,3.8-1.6,4.1c-1.5,0.2-2-1.5-1.9-2.9s-0.9-2-2-2.5
			c-10.2-4.8-21.2-7.6-32.5-8c5.5,3.7,8.5,7.6,9.7,12.6c5,20.6,6.6,41.8,7.8,62.8c0.5,8.8-3.9,13.3-12.7,15.3c-5.3,1.2-10.8,2-16,4
			c-9.4,3.5-18,2.1-26.6-3.3c-15.4-9.6-30.7-19.4-47.3-26.8c-2.4-1.1-4.4-2.5-7,0.3c-2.3,2.5-2.5,4.6-1.4,7.6
			c15.2,42.7,40.4,78.5,74.9,108c1.9,1.6,4.7,2,6.7,5.6c-39.7-11.5-66.3-36.4-84.2-71.7c2,9,4.5,17.9,7.4,26.6
			c7.8,23,18.4,45.1,31.4,65.6c0.6,1,2.5,2.2,1,3.3s-2-1-2.6-1.9c-9.7-13-18-26.8-26.5-40.5c-3.5-5.6-6.9-11.3-10.4-17.2
			c-0.8,1.4-0.1,2.3,0.1,3.2c8.2,30.1,21.6,57.9,37.7,84.5c1.6,2.8,4.4,4.9,7.6,5.6c22.6,6.2,45.2,13,66.5,23
			c23.7,11.1,46,24.3,61.6,46.3c1.6,2.3,3.4,1.9,5.7,1.2c15.9-4.9,31.6-10.4,48.4-11.8c5.5-0.5,9.1-3.8,10.1-9.5
			c0.8-4.3,2.3-8.4,4.5-12.1c9.5-16.2,19.2-32.3,27.3-49.3c1.4-3,4.1-5.9,2.4-9.8c-0.2-0.6,0-1.2,0.7-1.6c4.7-3.3,6-7,4.7-12.7
			c-0.2-0.8-0.5-2.2,0.3-2c4.9,1.2,3.5-3.1,4.2-5c1.8-5.2,3.1-10.5,4.4-15.9c4.7-19.1,4.3-37.8-3.2-56.4c-4-9.9-7.4-20-12.1-29.6
			c-8.5-17.5-10.5-36.5-10.5-55.2c0.2-10-1.5-19.9-5-29.2c-1-2.5-2.3-5.7-6.7-4.8c1,1.9,1.8,3.5,2.5,5.1c3.2,6.8,5.8,14,4,21.2
			c-3.5,13.7-5,27.8-8.7,41.4c-0.6,2.1-1.1,3.6,1.9,3.6c1,0,2.1-0.1,1.8,2.1c-4.4-1.2-7.4,1-9.3,5.1c-2.2-2.7,3.2-5.4-1.4-7.6
			c-6.7-3.1-9.2-9.3-10-16.3c-1.1-10.8-1.4-21.6-0.9-32.5c0.4-11.6,3-22.3,9.6-32.2c7.5-11.1,14.2-12.5,24.5-4
			c0.6,0.3,1.1,0.6,1.7,0.9c-0.1-2.4-0.1-4.8,0.1-7.2c0.6-4.3-1.3-6.2-5.2-7.5c-7-2.4-14.6-2.1-21.5,0.7c-1.1,0.4-2.8,2.5-3.7,0.2
			c-0.5-1.4,1.7-1.7,2.8-2.2c7.5-3.4,16.2-3.6,23.8-0.5c3.1,1.2,3.8,0.4,3.5-2.6c-0.3-3.5-0.5-7-0.7-10.5
			c-1.5-31.4-6.1-62.3-15.8-92.2c-2.2-7-5.2-13.7-7.9-20.5c-1-2.6-1.7-5.4-4.4-8c2.3,13.2,4.5,25.6,6.6,38.1
			c3.3,19.3,5.2,38.6,1.6,58.1c-1.5,7.9-4.8,15.3-5.9,23.2c-0.7,4.7-2.9,7.2-6.2,9.9c7.6-19.3,3.5-39.1,2.4-58.6
			c-1.1-20-4.8-39.5-12.9-58.1c7.2,46.5,3.5,92.3-7.7,137.8c-3.6-32.2-5.8-64.6-17.4-95.2c1.4,24.1,0.6,48.2-0.5,72.3
			c-1-50.1-3.4-99.6-33.5-142.8c11.1,31.6,17.6,64.6,19.3,98s-1,66.9-7.8,99.6c-0.5-9,1.4-17.8,1.3-26.9
			c-0.1-11.8,1.4-23.6-0.3-35.4c-1.1-7.8-2.3-15.5-5.7-23.9c-0.1,0.9-0.2,1.7-0.2,2.6c0.1,2.7,0.3,5.3,0.5,8
			c2.2,25.1-0.7,49.6-10.3,73c-2.3,5.5-3.9,10.9-2.3,16.9c0.2,0.9,0.7,2.3-1.1,3c-1.9-1.6-0.5-4.5-2.1-6.2c-1.8,0.7-1.5,3.6-4,3.9
			c-0.6-1.9,0.5-3.1,1.2-4.3c2.3-3.6,2.6-7.4,1.9-11.5c-4-25.2-10.7-49.8-20-73.5c-2.8-7-5.8-14-9-21.5c-0.6,1.1-0.7,2.5-0.2,3.7
			C563,252.6,565.7,265.8,567.5,279.2z M661.3,390.3c2.3,7.1,6.1,12.8,13.2,16c4.8,2.1,8.9,5.2,10.7,10.5c0.3,1,1.1,2.1-1,3.8
			c-1.6-8.7-8.9-10.9-14.9-14.9c-7.2-4.6-9.9-12.1-10.5-20.2C660.7,386.7,660.8,388.5,661.3,390.3z M646.7,512.3
			c3.7-6.1,8.8-11.3,14.9-15.2c3.4-2.3,9.4,0.2,10.4,4.4c1.9,8-10.1,22.8-18.5,22.6C646.1,523.9,643,518.7,646.7,512.3z"/>
		<path fill="#FEF4EA" d="M450.8,314L450.8,314c28.8-30.1,64.8-39,104.8-38.1c-1.1-2.1-1.7-3.5-2.4-4.8c-6.2-11.8-6.2-11.6-19.2-9.8
			c-4.2,0.6-5.4,1.8-3.7,5.7c0.5,1,1.1,2.3-1,2.8c-0.5-0.8-0.9-1.7-1.2-2.6c-0.4-4.3-2.8-4.7-6.5-4.3c-11.2,1.3-21.9,3.7-32.1,8.7
			c-2.3,1.1-3.5,2.4-3.8,5.1s-0.2,5.8-2.8,8.6c-1.2-3.8,1.2-6.7,0.2-10c-4.4,2.1-7.9,5.1-11.6,7.8c-0.8,0.6-1.7,2.3-2.8,0.8
			c-1-1.4,0.8-2,1.5-2.6c3.2-2.4,6.2-5.1,9.8-6.9c3.7-1.9,4.3-4.5,3.6-8.1c-2.8-14.9-10.4-28.5-11.8-43.7c-0.1-1.1-0.9-2.1-2-1.4
			c-2.5,1.5-5.9,1.7-5.9,6.2c0.2,18.1-2.9,35.8-6.5,53.4C455.3,292,453,303,450.8,314z"/>
		<path fill="#A9A1B8" d="M356.3,242.5c-1.1,2.5,0.2,4.1,1.4,5.9c13.6,21.1,26.7,42.6,39.3,64.4c0.7,1.1,1,2.7,2.7,3.2
			c-9.7-48-12-96.2-8.4-144.8C379,194.8,367.1,218.4,356.3,242.5z"/>
		<path fill="#7384AB" d="M411.6,513.2c-0.7-0.9-1.3-2.8-2.9-1.1c-4.9,5.3-9.8,10.6-15.1,16.4c12.3,2.6,23.7,5.3,36.1,7.1
			C423.1,528.2,417.2,520.8,411.6,513.2z"/>
		<path fill="#393748" d="M351.9,258.9c11.4,17,24.3,33,38.5,47.8c-11.2-20-23-39.6-36.1-59.3C353.2,251.7,349,254.6,351.9,258.9z"
			/>
		<path fill="#B9B7D0" d="M433.9,529.5c-1.8,5.5,0.4,8.6,3.7,11.5c3.6,3.1,6.8,6.6,10.4,9.8c18.5,16.6,39.2,30.4,59.3,45
			c0.3,0.2,0.8,0.1,1.6,0.2c-14.2-18.7-27.3-38.3-39.3-58.5c-12-20.6-23.2-41.7-30.1-64.5c-5.8-19.5-12.1-38.7-23-56
			c-0.6-0.9-2-2.2,0.4-3.7l11.4,21c1.1-1.7-1.2-3.5,1.8-5.5c2.1,19,14.8,32.3,23.5,49.3c0.3-3.2-0.7-4.3-1.3-5.7
			c-6.6-15.1-12.2-30.6-16.6-46.5c-2.5-8.9-3.6-18.2-7.6-26.8c-11.2-23.6-19.9-48.3-26.1-73.7c-0.2-1.5-0.8-2.9-1.8-4
			c-11.5-12.1-22.8-24.2-32.9-37.4c-6-7.8-11.8-15.7-17.6-23.5c-1.4,0.8-1.5,2.2-2,3.4c-6.4,17.3-12.7,34.7-19.1,52
			c-1,2.7-0.7,5.2-0.1,7.8c2.8,12.3,6,24.5,9.7,36.7c18.7,62.2,47.7,118.9,88.9,169.2C428.8,531.4,430.5,535.3,433.9,529.5z"/>
		<path fill="#393748" d="M324.6,318.9c17.2-51.6,39.2-101.1,64.2-149.3C355.9,214.4,338,265.7,324.6,318.9z"/>
		<path fill="#393748" d="M346.1,228.9c-3.9-5.9-6.9-12.9-10.2-19.4c-3-5.9-6.1-11.9-9.1-17.9l-0.9,0.4l18.8,53.1
			C347.7,239.3,350,234.8,346.1,228.9z"/>
		<path fill="#FEF4EA" d="M498.8,209.1c2.8-0.7,2.8-1.7,1.8-4.1c-4-8.9-7.7-18-11.6-27c-6.1-14-12.9-27.7-20.5-41
			c5.9,25.3,10.5,51,13.8,76.8C488,212.2,493.3,210.5,498.8,209.1z"/>
		<path fill="#A9A1B8" d="M407.2,324.7c0.6,0.5,0.5,1.6-0.1,1.6c-5.1,0-1.6,3.2-1.3,4.3c8.1,31.6,20.4,61.5,35.5,90.4
			c7.3,14,16.2,26.8,27.9,37.5c11.3,10.6,24.7,18.7,39.2,24c-1-1.4-2.3-2.7-3.6-3.9c-28.8-26.5-50.7-57.7-65.1-94.1
			c-0.7-1.8,0.6-7.1-4.9-5c-0.7,0.3-0.8-1.3-0.5-2c1.5-4.1,0.1-7.8-1.1-11.6c-3.5-10.8-6.7-21.6-9.3-32.6
			c-5.5-23.4-8.1-47.2-12.4-70.8c-1.2-6.8-1.3-6.8-7.3-3.7c-0.8,0.4-1.7,1.3-2.7,0.1c-0.3-1.5,1.1-1.9,2-2.3c5.5-2,6-5.5,4.7-10.9
			c-3.8-16-7.2-32.1-8.6-48.6c-1.2-14.7-0.8-29.5,1.2-44.1c-4.2,5.4-6.1,10-6.6,15.7c-3.9,44.4-2.6,88.6,5.1,132.4
			C400.7,309.3,399.9,318.5,407.2,324.7z"/>
		<path fill="#CFD0E7" d="M428.5,236.5c0.1,3.8,0.6,5.2,4.6,2.7c8-4.9,16-9.5,24.4-13.7c3.8-1.9,4.6-4.3,4.4-8.2
			c-0.8-20-5.5-39.2-11.4-58.2c-3.1-9.3-6.9-18.4-11.3-27.1c-0.6-1.4-2.3-2.7-0.8-4.8c2.1,1.4,2.8,3.7,3.6,5.7
			c13.6,33.9,28.2,67.4,35,103.6c1.2,5.8,3.2,11.5,6.1,16.7c0-2.6,0.1-3.8,0-4.9c-1.4-27.1-4.9-54.1-10.6-80.6
			c-3.8-17.4-5.4-35.6-14.9-51.4c-0.2-0.6-0.4-1.3-0.4-1.9c-1.5-9.8-5.7-18.9-12-26.5c-5.6-7.1-13-12.5-21.4-15.7
			c-1,1.9-0.5,3.6-0.4,5.2c1.8,37.3,3.1,74.6,4,111.9C427.7,204.9,428.2,220.7,428.5,236.5z"/>
		<path fill="#CFD0E7" d="M427,336.7c2.6,10.6,5.7,21.1,9.4,31.3c0.7-2.6,1.1-4.2,1.5-5.8c2.9-13.8,5.9-27.6,8.9-41.4
			c5.1-23.9,10.7-47.7,13.8-72c0.9-7.4,1.9-15,1-22.6c-0.5,0-0.9,0.1-1.4,0.2c-6.4,3.6-12.5,7.8-19.2,10.5
			c-10.2,4.1-14.2,10.7-12,21.4c0.3,1.7,1.1,4.1-1.4,5.8c-1.2-3.2-0.5-6.2-0.8-9.2c-0.3-2.9,0.5-5.9-0.9-8.9
			c-1.5,0.8-2.9,1.5-4.1,2.2c-9.4,5.5-9.5,5.5-7.6,16.2C418.4,288.5,421,312.9,427,336.7z"/>
	</g>
</g>
</svg>
