<?xml version="1.0" encoding="utf-8"?>
<!-- Generator: Adobe Illustrator 24.1.0, SVG Export Plug-In . SVG Version: 6.00 Build 0)  -->
<svg version="1.1" id="图层_1" xmlns="http://www.w3.org/2000/svg" xmlns:xlink="http://www.w3.org/1999/xlink" x="0px" y="0px"
	 viewBox="0 0 761.8 479.6" style="enable-background:new 0 0 761.8 479.6;" xml:space="preserve">
<style type="text/css">
	.st0{fill:#FFFFFF;stroke:#000000;stroke-miterlimit:10;}
</style>
<g>
	<path id="X66FFFFM1Color16" class="st0" d="M680.6,96.9c-4.1,19.7-8,38.3-12,56.8c-0.6,2.9-0.9,5.5,0.6,8.6
		c2.4,4.7-0.1,8.3-5.3,8.8c-24.4,2.3-48.8,4.6-73.1,6.9c-5.3,0.5-8.4-2.8-6.8-8c0.7-2.4,0.5-4.9-0.6-7.2
		c-6.1-14.8-12.3-29.5-18.3-44.3c-0.5-1.2-2.6-2.7-0.4-4.3c2.1-1.6,3.3-0.2,4.5,1.3c0.1,0.1,0.2,0.3,0.4,0.3c2.1,1,4.6,3.3,6.1,2.8
		c2-0.7,2.7-4.1,2.7-6.4c0-2.8,0.6-4.2,3.5-4.8c2.2-0.5,6.4-1.1,5.7-3.4c-0.8-2.8-4.1-6.1-7.5-5.6c-4,0.6-3.9-1-4.1-3.7
		c-0.1-2.1,0.5-5.4-1.5-5.8s-4.4,1.7-6.2,3.4c-1.1,1-0.5,3.9-3.7,2.9c-3.1-1-1.8-3-2-4.9c-0.3-1.6-0.8-3.2-1.6-4.7
		c-0.9-2.3-2.3-2.6-4.1-0.7c-1,1.3-2.2,2.5-3.5,3.6c-3.4,2.3-7,3.1-10.5,0.1c-4.2-3.4-8.1-7.2-11.6-11.2c2.1,0.7,4.2,1.6,6.2,2.7
		c5.5,3.4,10.1,2,14.3-2.4c2-2.1,3.7-3.3,5.9-0.2c0.9,1.2,2.5,1.6,3.9,2c2,0.6,3.3,0.4,2.9-2.2c-0.5-3.3,0.4-5.9,3.3-7.8
		c1.9-1.2,1.4-2.7,0.7-4.4c-1.4-3.3-2.7-6.6-4.3-10.4c1,0.4,1.4,0.4,1.5,0.6c1.5,2,2.7,5.2,4.5,5.7c2.3,0.6,2.6-3.8,5.5-4.7
		c1.4,3.4,2.9,6.9,6.7,9.3c-5.9,2.4-5,7-4.9,11.2c0.1,3.4,2.8,2.3,4.5,2.2c4.8-0.2,6.7,0.2,10.4,2.8c1,0.7,1.9,1.3,2.9,1.9
		c0.4,0.3,0.9,0.4,1.3,0.6c1.5-0.6,1.1-2,1.4-3c2.1-6.5,3.6-8.7,9.3-13c0.9-0.7,1.9-1.2,1.1-2.7c-2.3-4.2-7-6.6-11.8-6
		c1.1-5,0.4-10.3-1.9-14.9c-1.7-3.5-0.7-7.5,3.2-10c3.8-2.6,7.8-5,12-7c-2.3,3.1-5,6.1-6.8,9.4c-2.1,3.8,0.5,7.3,1.7,11.2
		c5.5-3.6,10.9-5.9,17.3-4.3c1.5,0.4,4,0.4,2.6,2.8c-1,1.8,2.8,5.9-2.7,5.6c-3-0.2-4.5,3-7.4,3.2c0.1,0.5,0.3,0.9,0.5,1.4
		c1.9,3,7.8,3.7,7.8,5.2c-0.1,3.6,1.4,6.2,2.4,9.2c0.7,2.1,1.6,1.4,2.9,0.8c2.9-1.5,4.8-4,7-6.5c2,2.1,3.7,4.2,7.2,3.5
		c4.6-1,5.1-1.5,3.1-5.8c-1.1-2.4-3.3-3.7-6-5.6c4.5-1.5,5.7-5.2,7.3-8.9c-3.3-0.9-6.8-0.6-10,0.8c-1,0.4-2.3,1.8-3,0.3
		c-0.8-1.6,1-2.1,2.2-2.7c6.7-3.4,15-2.6,22,2.4c-2.4,2.2-5.2,3.8-8.2,4.8c0.8,1.1,1.4,1.8,2,2.6c2.4,3,8.9,3.5,8.9,5.2
		c-0.1,3.8,0.3,7,2.2,10.2c1,1.6,0.7,4,3.9,2.4c1.5-0.8,2.8,1,4.2,2.4c-3.2,2-7,2.6-8.7,6.5c-2.4-3.7-4.9-6.5-9.3-6.2
		c-2.1,0.1-3.1,0.6-2.4,3c0.7,2.7,0.1,5.8,2.8,7.7c1.4,1,0.5,1.6-0.4,2.2c-0.7,0.5-1.4,0.9-2.1,1.4c-1.8,1.5-3,3.5-2.5,5.7
		s3.1,1.4,4.7,1.6c3.8,0.5,7.2,2.7,9.3,6c1,1.5,1.4,4.7,3.4,4.2c2.6-0.6,4-3.3,4.3-6.2c0.2-1.6,0-3.3,0-5.5
		C673.6,99.4,676.7,98.7,680.6,96.9z"/>
	<path id="X930000M2Gra4Co5_1_" class="st0" d="M148.2,191.3c70.8,0,132,50.9,145.1,120.4c0.7,3.8,0,4.7-3.8,3.9
		c-4.4-0.9-8.9-1.4-13.4-1.7c-3.2-0.2-4.4-1.7-5.2-4.7c-10-38.6-32.9-66.8-68.6-84.3c-75.4-37.1-168.2,12-179.5,95.4
		c-1.2,8.9-4.2,13.6-12.6,16.6c-10.8,3.9-10.6,4.6-9.9-7C4.8,252.1,69.8,191.2,148.2,191.3z"/>
	<path id="X930000M2Gra4Co5" class="st0" d="M644.9,191c-6.7,9-12.7,16.8-18.5,24.7c-1.7,2.3-3.9,1.5-5.9,1.5
		c-46,0.2-81.7,19.6-106.1,58.5c-17.2,27.5-21.5,57.7-14.6,89.4c0.7,3,0.2,4.9-1.9,7.1c-6.4,6.5-12.6,13.2-19.5,20.6
		c-18-53.6-12.3-103.1,22.6-147C537.6,200,586.3,183.4,644.9,191z"/>
	<path id="X1111D1M2Gra1Co10_9_" class="st0" d="M531.1,387.7c-2.2-1.1-2.6-3.6-3.6-5.6c-1.3-2.6,1.2-2.6,2.5-3.2
		c21-10.5,42-21,63-31.5c1.3-0.7,2.7-1.4,4-2c2-0.9,4-1.6,3.1-4.7c-0.8-2.9,0.5-6.1-4.2-7.7c-23.3-7.4-46.5-15.4-69.7-23.2
		c-4.2-1.4-5.1-5-2.2-8.5c1.4-1.7,2.8-0.3,4,0.1c23.2,7.7,46.4,15.6,69.6,23.3c2.3,0.8,4.5,2.5,6.9-0.8c2.3-3.1,3.9-5,1.7-9.3
		c-11.1-21.5-21.6-43.2-32.5-64.7c-1.6-3.1-1.8-4.6,1.8-6.5c3.6-1.8,4.5-0.3,5.8,2.4c10.8,21.9,21.7,43.8,32.7,65.7
		c0.9,1.9,1.2,4.7,4.8,3.7c3.1-0.8,6.4,0.6,8-4.5c7.4-23.3,15.5-46.4,23.1-69.7c1.2-3.6,2.5-4.1,5.9-3c3.8,1.2,3.1,3,2.2,5.9
		c-7.9,23.3-15.7,46.7-23.6,70.1c-0.9,2.6-1,4.2,1.5,5.9c2.5,1.6,3.9,4.2,8,2.1c21.9-11.3,44.1-22,66.1-33.1c3-1.5,4.4-1.6,6,1.8
		c1.4,3.1,1.3,4.3-2,5.9c-22,10.7-43.9,21.7-65.7,32.7c-2,1-4.9,1.3-4,5.1c0.7,3.3-0.1,6.3,4.7,7.8c23.3,7.4,46.4,15.4,69.7,23.1
		c3.2,1,4.1,2.1,2.9,5.6c-1.2,3.5-2.6,3.7-5.8,2.6c-23.2-7.9-46.4-15.6-69.6-23.4c-2.4-0.8-4.4-1.8-6.4,1.2c-1.8,2.7-4.1,4.4-2,8.5
		c11,21.5,21.7,43.2,32.4,64.8c1.3,2.5,3.4,4.6-1.2,6.9c-4.7,2.3-5.2-0.6-6.6-3.3c-10.7-21.5-21.4-42.9-32.1-64.4
		c-0.9-1.8-0.9-5-4.6-4.1c-3.2,0.8-6.7-0.5-8.4,4.8c-7.2,23-15.2,45.8-22.8,68.7c-1,2.9-1.2,5.5-5.9,3.8s-3-4-2.1-6.8
		c7.7-22.9,15.2-45.8,23.2-68.6c1.7-4.9-1.6-5.9-3.7-8.4c-2.3-2.9-4.1-0.8-6,0.1c-21.9,10.9-43.8,21.8-65.7,32.7
		C533.4,386.6,532.4,387.1,531.1,387.7z"/>
	<path id="XBF0202M2Gra4Co4_2_" class="st0" d="M53.7,300.7c1.5,0.5,2.6,0.9,3.7,1.3c23,7.7,46.1,15.5,69.1,23.2
		c2.1,0.7,4.2,2.3,6-0.9c1.5-2.8,4.8-4,2.3-8.7c-11.3-21.7-21.9-43.8-32.9-65.7c-1.4-2.8-1.9-4.3,1.6-6c3.6-1.8,4.6-0.8,6.1,2.3
		c10.9,22.1,21.9,44.2,32.9,66.2c0.9,1.9,1.4,4.1,4.6,3.2c2.9-0.8,6.2,0.6,7.7-4.1c7.5-23.5,15.6-46.7,23.3-70.1c1-3.2,2-4.3,5.5-3
		c3.3,1.2,3.9,2.4,2.7,5.7c-8,23.3-15.8,46.7-23.6,70.1c-0.6,1.9-2.3,3.9,0.7,5.6c2.8,1.5,4.1,5.1,8.8,2.7
		c21.7-11.3,43.8-21.9,65.6-33c3-1.5,4.6-1.9,6.4,1.8c2,3.9,0,4.7-2.7,6.1c-21.6,10.7-43.2,21.7-64.9,32.1c-4.5,2.2-4,5-4.1,8.6
		c-0.1,3.8,2.7,3.7,4.9,4.5c22.9,7.7,45.7,15.5,68.7,23c3.9,1.3,4.8,2.8,3.3,6.6c-1.1,2.9-2.4,2.8-4.8,2
		c-21.9-7.4-43.9-14.8-65.8-22.1c-1.1-0.4-2.2-0.7-3.3-1.1c-5-1.6-8.4-0.2-10.7,4.3c-0.9,1.8,0.4,2.9,1,4.1
		c10.9,21.9,21.8,43.8,32.7,65.7c1.4,2.9,2.7,4.6-1.5,6.9c-4.7,2.6-5-0.8-6.2-3.2c-10.7-21.4-21.3-43-32.1-64.4
		c-1-1.9-0.9-5.1-4.9-4.3c-3.7,0.7-6.8,0.4-8.4,5.4c-7.3,23-15.2,45.8-22.8,68.7c-1,2.9-1.7,4.5-5.4,3.2c-3.7-1.3-3.9-2.8-2.7-6.1
		c7.9-23,15.5-46.1,23.3-69.1c0.8-2.3,2.3-4.4-0.9-6.5c-2.8-1.8-4.2-4.6-8.8-2.2c-21.7,11.3-43.8,21.9-65.6,33c-3,1.5-4.4,1.4-6-1.8
		c-1.6-3.2-0.9-4.4,2.2-5.9c22-10.8,43.8-21.9,65.8-32.5c4.1-2,3.5-4.5,3.7-7.9c0.2-3.9-2.4-4.2-4.9-5
		c-23.4-7.8-46.7-15.7-70.1-23.5c-1.7-0.6-3.9-0.9-2.6-3.5C51.6,304.1,51,301.2,53.7,300.7z"/>
	<path id="X1111D1M2Gra1Co10_8_" class="st0" d="M761.8,348.2c-1.7,43.8-24.7,84.7-70.2,112.6c-3.6,2.2-5,1.5-6.5-2.1
		c-1.5-3.8-5.3-7.7-4.9-11.2c0.5-3.6,6.2-4.8,9.6-7.1c41-27.7,61.2-77.1,51.5-126.1c-9.4-47.3-47.2-85.4-94.9-95.4
		c-6.7-1.4-6.7-1.4-2.6-6.9c0.4-0.5,0.8-1.1,1.2-1.6c7-9.3,7-9.3,18-5.9C721.8,223,761.7,277.3,761.8,348.2z"/>
	<path id="XBF0202M2Gra4Co4_1_" class="st0" d="M425,411.2c-3.5,0-7-0.1-10.5,0c-3.6,0.1-5.6-1.5-5-5c0.5-3.4-1.6-4.3-3.8-6
		c-7.7-6-14.2-7-22.4,0.3c-6.7,6-16.3,6.1-25.3,5.5c-1.9-0.1-3.3-0.7-3.4-2.8c-0.2-3-1.6-4.1-4.7-4.4c-4.9-0.4-8.6-2.9-9.4-8.1
		c-0.3-2.1-1.7-2.6-3.2-3.3c-3.2-1.5-5.2-4.1-4.7-7.5c0.7-5.1-1.8-10.3-0.7-14.6c2.2-8.2-3.4-10.1-8.1-13.3
		c-4.8-3.2-9.6-6.7-14.4-9.9c-3.6-2.4-4.7-5.7-4.8-9.8c-0.1-3.5,1-4.7,4.6-4.2c13.2,1.9,26.4,3.6,39.6,5.4c7.3,1,14.5,2.7,21.7,3.2
		c18.5,1.3,34.2,17.1,29.9,41.8c-0.6,3.6,0,5.5,3.1,7.3c5.6,3.4,10.9,7,16.3,10.7c4,2.8,9,3.9,13.7,2.9c5.1-0.9,7.6,1.2,7.8,5.8
		c0.1,4.2-2,5.9-7.2,5.9C431,411.2,428,411.2,425,411.2z"/>
	<path id="X1111D1M2Gra1Co10_7_" class="st0" d="M443.8,9.8c7.5,0.7,14.8-0.7,21.7-6C473-2,477.4-1,484.8,5.6
		c1.7,1.5,3.6,1.5,5.6,1.5c6,0.1,12,0,17.9,1.3c4.1,0.9,6.9,2.9,8.3,6.9c4.3,11.9,6.3,24.6,5.7,37.3c-0.3,5.1-1.3,10-7.5,11.6
		c-2.5,0.6-2.4,3-2.1,5c1.5,10.3,5.9,19.7,9.4,29.5c0.4,1.1,1.5,1.9,2.7,1.8c4.6,0.1,5.9,3.3,6.9,7.1c6.9,25.2,13.9,50.4,21.2,75.5
		c1.3,4.6,0.2,7-3.6,9.3c-8.6,5.2-8.9,5.3-12.1-4.1c-8.5-24.7-17.1-49.4-25.6-74.1c-0.7-1.9-1.8-4-0.6-5.8c2.8-3.8,0.9-7.3-0.3-10.8
		c-1.8-5.4-3.6-10.7-5.4-16.1c-1.1-3.1-2.7-6-4.7-8.6c-4-5.4-4.9-10.6,1.2-14.6c1.8-1.2,3.3-2.9,5.2-3.9c4.2-2.2,3.6-5.4,2.1-8.8
		c-1.7-3.9-4.7-2.2-7.3-1.6c-4.1,1-7.8,2.3-8.8,7.4c-0.9,4.5-5.6,5.7-9.2,5.4c-11.1-0.8-20.4,3.6-30,8c-7.5,3.4-11.2,1.2-13.1-6.1
		c-0.5-2.2-0.3-3.3,2.1-4c5.4-1.7,10.7-3.7,16.1-5.5c6.2-2.2,11.7-5.2,16-10.5c3.8-4.8,8.9-5.2,14.2-2.1c1.5,0.9,3,1.6,4.6,0.6
		c4.5-2.6,9.5-3.1,14.5-2.7c2.7,0.3,3.4-0.7,3.5-3.3c0.6-10.6-1.9-13.3-12.7-13.4c-2.2,0-4.3,0-6.5,0c-3.2-0.1-5.3,0.1-7.1,4.1
		c-2.2,5.1-8.8,6.2-13.1,4.5c-13.8-5.3-27.6-2.9-41.4-1.5c-4.4,0.4-6-2.4-6.9-5.8c-1-3.8,0.8-6.5,4.4-7.9
		C433.1,9.3,438.2,10.1,443.8,9.8z"/>
	<path id="X1111D1M2Gra1Co10_6_" class="st0" d="M504.6,380.7c5.6,11.1,10.4,20.3,16.5,29c33.6,47.9,97.5,65.2,150.7,40.8
		c3-1.4,4.9-1.6,6,2c0.2,0.6,0.5,1.2,0.9,1.8c5.5,11.1,5.5,11.1-5.9,15.6C604,497,526,466.2,494.1,399.5c-1.5-3.2-1.3-5.2,1.2-7.7
		C498.8,388.3,501.6,384.4,504.6,380.7z"/>
	<path id="X1111D1M2Gra1Co10_5_" class="st0" d="M148.1,475.1C79.3,475.1,21.3,426.3,9,358.3c-0.8-4.4-0.4-6.8,4.5-8.5
		c8.1-2.8,8-3.2,9.4,5.2c13.6,81.2,99.5,128.2,175.2,95.7c4.5-1.9,5.9-0.8,7.7,3c3.6,7.8,3.8,7.7-4,10.9
		C184.7,471.5,166.5,475.1,148.1,475.1z"/>
	<path id="XBF0202M2Gra4Co4" class="st0" d="M264.3,117.2c12.7,0,25.3,0,38,0c7.2,0,13.3,3,18.6,7.6c4.7,4.1,4.4,7.3-0.8,10.8
		c-7.3,4.8-15.5,7.6-23.7,10.5c-5,1.8-10.1,3.4-15.2,5c-3.1,1-5.3,2.3-2.9,6.1c1.8,2.8,0.9,4.4-2.4,5.2c-7.6,2-14.9,2.2-21.5-2.8
		c-1.6-1.2-2.4,0.1-3.4,0.8c-2.6,1.8-5.7,2.7-8.9,2.8c-2.6,0.2-4-1-5.1-3.2c-1.5-3.2,2.6-6.9-1.1-10.1c-0.6-0.5,1.8-2,3.2-2.5
		c1.5-0.5,3.5-0.5,3.5-2.8s-1.4-3.6-3.2-4.6c-3.3-1.8-6.9-2.3-10.6-2.7c-1-0.1-2-0.1-3-0.2c-3.4-0.5-7.7,1.4-9.2-3.7
		c-1.7-5.2-0.5-10.9,3-15c1.3-1.7,3.3-1.3,5.1-1.3c13.2,0,26.3,0,39.5,0L264.3,117.2L264.3,117.2z"/>
	<path id="X1111D1M2Gra1Co10_4_" class="st0" d="M528.5,175.8c2,5.8,3.6,10.9,5.5,15.8c1.1,2.8-1,4-2.3,5.5
		c-24,26.6-48,53.1-72.1,79.6c-18,19.9-36.1,39.7-53.9,59.6c-2.6,2.9-4.3,3.6-6.7,0.2c-0.6-0.8-1.4-1.5-2.2-2.1
		c-6-5.1-5.9-5.1-0.5-11.2c43.2-48.2,86.4-96.5,129.6-144.7C526.6,177.9,527.3,177.2,528.5,175.8z"/>
	<path id="X1111D1M2Gra1Co10_3_" class="st0" d="M336.5,292.4c22.9,13.2,50.7-1,60-18.4c11.7-22,21.3-45.1,32.2-67.6
		c8.8-18.2,18.9-35.5,32.6-50.6c10.6-11.5,23.8-18.5,38.2-23.6c2-0.7,3.2-0.7,3.6,1.6c0.1,0.3,0.2,0.6,0.3,1c2.9,8.5,3,8.7-5.5,11.5
		c-14.7,4.8-25.7,14.3-34.9,26.3c-12.6,16.4-21.1,35-29.6,53.6c-7.7,16.8-14.4,34.1-23.8,50c-8.8,14.8-20.2,26.8-37.7,31.6
		c-8.9,2.4-17.8,2.1-26.7,0.6c-1.5-0.1-2.8-1.1-3.3-2.5C340.2,301.7,338.5,297.5,336.5,292.4z"/>
	<path id="X1111D1M2Gra1Co10_2_" class="st0" d="M118.6,174c-23.2,0-46.3,0-69.5,0c-5.5,0-7.1-1.6-7.2-7c-0.1-5.7,1.6-7.5,7.2-7.5
		c46.5,0,93,0,139.5,0c2.6,0,5.6-0.7,6.9,2.6c1.4,3.3,1.2,7-0.5,10.1c-1.3,2.4-3.8,1.7-5.9,1.7C165.5,174,142,174,118.6,174z"/>
	<path id="X1111D1M2Gra1Co10_1_" class="st0" d="M274.8,338.2c0.1-10.4,0.1-10.2,10-9.2c3.8,0.4,4,2.2,4,5.2
		c-0.2,35.1-11.7,65.9-34.5,92.5c-10.7,12.3-23.5,22.8-37.8,30.8c-3.1,1.8-4.4,1.3-5.9-1.9c-4.1-8.6-4.2-8.4,3.7-13.4
		C252.3,417.9,272,382.9,274.8,338.2z"/>
	<path id="X1111D1M2Gra1Co10" class="st0" d="M288,214.9c-5.4,4.6-10.7,8.9-15.7,13.5c-4.3,3.9-5.1-1.2-7.2-2.6
		c-2.9-1.9-1.1-3.4,0.7-4.9c4.7-4,9-8.4,13.9-12.2c3.4-2.6,4.3-5,2.5-9.2c-3.3-7.6-5.7-15.6-8.8-23.3c-1.3-3.2-0.2-3.8,2.6-4.7
		c4.7-1.6,7-0.8,9,4.4c17.9,45.2,37,89.8,54.3,135.2c0.9,2.5,1.9,4.9,2.8,7.3c-0.4,0.2-0.8,0.4-1.2,0.5c-8.9,0.5-12.9-4.2-16-12.4
		c-11-29.1-23-57.8-34.6-86.7C289.5,218.3,288.8,216.9,288,214.9z"/>
	<path id="X05E8E2M2Color11_7_" class="st0" d="M672.9,39.9c2.6,2.9,4.5,6,8.1,2.9c0.5-0.4,1.1-0.4,1.5,0.1c0.2,0.2,0.3,0.5,0.3,0.8
		c-0.3,3.4,1.4,5,5.3,5.2c-3.2,1.6-4.4,4-5.8,6.3c-1.2,2.2-2.9,4.1-5.1,5.4c-2,1.3-4.6,1.3-6.6-0.1c-1.9-1.3-2.6-3.6-1.9-5.8
		C669.9,50,671.3,45.4,672.9,39.9z"/>
	<path id="X05E8E2M2Color11_6_" class="st0" d="M544,52.4c0.2,2.4,1.1,4.8,2.7,6.6c1.6,1.9,2.7,4.2,3.3,6.6c0.6,2.7,0,5-2.2,6.7
		c-2.3,1.8-4.8,1.2-6.9-0.4c-3.6-2.9-7.1-5.9-10.7-8.8c0.3-1.7,1.5-1.7,2.6-2c0.8-0.2,2.2-0.5,2.2-0.5
		C533.2,52.1,543.2,57.6,544,52.4z"/>
	<path id="X05E8E2M2Color11_5_" class="st0" d="M627.3,22.9c3.5,0.5,6.6,2.1,8.5-1.4c0.4-0.2,0.9-0.1,1.3,0.1c1.6,4.1,5,3.6,9,2.8
		c-2.1,4.2-3.8,7.8-5.6,11.2c-1.6,3.1-4.2,4.8-7.8,3.7c-3.8-1.2-4.8-4.3-4.5-7.9C628.2,28.7,629.6,26,627.3,22.9z"/>
	<path id="X05E8E2M2Color11_4_" class="st0" d="M700.3,87.3c-7.2,0-14.2,2.7-21.3,1.7c-5.3-0.7-6.5-2.6-4.2-6.4
		c1.7-2.7,4.4-2.8,5.6,0.2c2,4.9,4.5,4.2,8,1.6C693.2,80.9,696.3,86,700.3,87.3z"/>
	<path id="X05E8E2M2Color11_3_" class="st0" d="M686.3,66.3c1.3,0,2.3,0.3,2.4,1.8c0.1,2.4-5.3,6.7-8.4,6.7c-1.3,0-2.3-0.3-2.4-1.8
		C677.7,70.7,683.2,66.3,686.3,66.3z"/>
	<path id="X05E8E2M2Color11_2_" class="st0" d="M560.7,106.8c-3.4-0.7-7-1.6-8.1-5.4c-0.6-2,1.6-2.1,3.1-2c3.5,0.5,7.1,1.5,8.2,5.3
		C564.5,106.7,562.3,106.7,560.7,106.8z"/>
	<path id="X05E8E2M2Color11_1_" class="st0" d="M574.4,32.2c2.7,0,7.4,5.9,7,8.7c0,0.9-0.7,1.7-1.7,1.7c-0.1,0-0.2,0-0.3,0
		c-2.8,0-7.4-5.8-7-8.7C572.7,32.7,573.2,32,574.4,32.2z"/>
	<path id="X05E8E2M2Color11" class="st0" d="M588.4,52.2c-0.9,0.9-0.3,3.4-2.3,3c-1.1-0.2-3.4-0.7-2.9-2.5c0.4-1.6,2.5-1.9,4.1-2.1
		C588.4,50.4,588.7,51,588.4,52.2z"/>
</g>
</svg>
