<?xml version="1.0" encoding="utf-8"?>
<!-- Generator: Adobe Illustrator 24.1.0, SVG Export Plug-In . SVG Version: 6.00 Build 0)  -->
<svg version="1.1" id="图层_1" xmlns="http://www.w3.org/2000/svg" xmlns:xlink="http://www.w3.org/1999/xlink" x="0px" y="0px"
	 viewBox="0 0 822 648.6" style="enable-background:new 0 0 822 648.6;" xml:space="preserve">
<style type="text/css">
	.st0{fill:#FFFFFF;stroke:#000000;stroke-miterlimit:10;}
</style>
<path id="XE79CFFM2Gra1OT16_2_" class="st0" d="M818.1,622.5c0.1,2.9-1.4,3.5-3.4,2c-11.6-8.8-25.7-12.4-38.7-18.2
	c-7.9-3.5-16.7-5.4-25.1-8c-13-4.1-26-8.2-39.4-11c-10.4-2.2-21-3.4-31.6-4.9c-43.9-6.2-88-5.4-132.1-4.4
	c-8.8,0.2-17.7-0.1-26.5,0.9c-13,1.5-26,3.6-38.9,6c-14.9,2.8-29.6,6.1-44.5,9.3c-1.6,0.3-3.2,1-4.8,1.4c-1.4,0.4-2.9,1.1-4.2-0.2
	s-1-3.2-0.2-4.7c2.5-4.3,4-9.1,6.6-13.4c6.7-10.9,12.7-22.2,17.8-33.9c9.8-22.9,23.8-42.6,40.2-60.7c10.2-11.2,21.7-21.2,35-28.7
	c2.7-1.6,5.7-2.8,8.8-3.6c16.5-3.8,32.9-8.5,50-8.8c8-0.1,16-0.1,23.8,2c6,1.5,12.2,2,18.3,1.5c15.9-0.7,31.6,1.8,47.1,4.7
	c13.4,2.4,25.7,8.7,37.5,15.9c20.2,12.4,37.9,28.4,52.2,47.3c9.1,12,15.2,25.7,23.1,38.3c5.9,9.5,9.5,20.2,15,29.8
	c1.7,2.9,2,6.7,2.7,10.1c2.2,9.8,8.8,18,10.3,28C817.5,620.3,817.8,621.4,818.1,622.5z"/>
<path id="XE79CFFM2Gra1OT16_1_" class="st0" d="M628.1,304c17.9-2.2,36,2.3,54.1,5.8c8.8,1.7,17.2,5.1,25.6,8.2
	c4.3,1.6,8.9,1.4,13.1,3.2c10.6,4.5,20.5,10.3,30.3,16.2c17.8,10.6,33.3,24.3,48.4,38.3c6.2,5.8,10,13.1,12.4,21.6
	c4,14.1,5.5,28.4,7.1,42.7c2.3,20.1,4.6,40.4,1.2,60.7c-0.5,3.3-0.1,6.6,0,10c0.1,1.5-0.3,3.1-1.9,3.8c-1.9,0.8-2.6-0.7-3.6-1.9
	c-14.9-18.4-32.4-34.5-51.9-47.9c-5.9-4-10.6-9.8-17.3-12.5c-15.1-6.2-28.7-15.5-43.8-21.5c-11.5-4.8-23.6-8.2-35.9-10.3
	c-8.7-1.4-17.2-4-25.9-5.4c-28.7-4.4-57.3-5.5-86,0.1c-18.5,3.6-36.8,7.6-54.5,14.2c-3.8,1.4-5.8,0-6.4-3.8
	c-3.6-22.5-7.1-45.1-10.7-67.6c-1-6.3,0.3-8.5,6.1-10.8c9.2-3.6,16.5-10.6,25.1-15.2c10.6-5.7,21-11.4,33-13.8
	c5.5-1.1,10.6-3.9,16-5.6C583.8,306.1,605.2,302.3,628.1,304z"/>
<path id="XE79CFFM2Gra1OT16" class="st0" d="M603.5,172.8c27.5-1,55,3.6,80.6,13.5c16.5,6.3,31.5,15,46.1,24.6
	c7.6,5,14.8,10.7,22.1,16.2c0.8,0.6,1.5,1.4,1.8,2.3c2.9,11.1,12.3,18.9,15.5,30c0.9,3.3,3.2,6.2,5.1,9.1c2.5,4,4.6,8,5.3,12.8
	c1.1,7.2,5.8,13,8.1,19.8c2,5.6,2.8,11.7,5.8,17c0.8,1.2,0.7,2.7-0.3,3.7c-1.4,1.2-2.8,0.5-4.2-0.2c-9.6-4.3-19-9-28.7-12.9
	c-14.7-6-29.5-11.7-45.3-15.1c-18.7-4-37.4-8.3-56.4-10.2c-17.4-1.8-34.8-2.5-52.4-1c-12.6,1.1-25.2,1.8-37.7,4.1
	c-9.8,1.8-19.5,4.3-29.2,6.4c-11.4,2.4-22.7,5.3-33.3,10.2c-9.5,4.4-19.6,7.5-28.6,13.1c-2.5,1.5-5.5,2.3-8.3,3.3
	c-5.5,1.9-9.9,0.5-14-3.7c-10-10.5-22-18.7-33.1-28.1c-4.5-3.8-5.2-5.6-1.8-10.4c6.8-9.8,12.8-20.5,21.2-28.8
	c11-10.9,21.3-22.6,34.6-31.3c8.4-5.5,17-11,25.1-17c7.4-5.5,16.5-7,24.7-10.5C550.8,179,577,173.4,603.5,172.8z"/>
<path id="XE79CFFM2Gra4OT16_2_" class="st0" d="M555.8,44.1c3.3-0.1,6.6,0.7,9.5,2.3c9.2,5,17.2,12.3,26.8,16.3
	c9,3.8,16.5,9.3,23.7,15.2c13.1,10.7,27.4,20.1,38.5,33.2c2.7,3.1,6.8,4.8,9.3,8.3c0.8,1,2.2,1.9,1.5,3.4c-0.7,1.5-2.2,1.2-3.5,1.1
	c-27.4-1.7-54.6,0.3-81.2,7.4c-14.1,3.8-28.4,7.3-42,12.6c-12,4.6-23.2,10.8-33.6,18.4c-4.8,3.5-10.6,4.7-15.4,8.2
	c-8.1,5.9-15.2,13-23.3,18.8c-12.8,9-23.1,20.7-32.5,32.7c-10.9,13.9-23,27.3-29.9,44c-1.2,3-3.2,3.1-5.6,1.8
	c-3.1-1.6-6.1-3.4-9-5.3c-9-6.3-18.4-12-27.8-17.6c-3.3-1.9-4.3-4.5-3.4-8.8c3.6-17.7,9.9-34.5,17.1-51
	c7.5-17.1,15.9-33.5,27.3-48.5c6.8-8.9,13.3-17.8,21.7-25.2c4-3.5,6.7-8.4,10.7-11.9c14.9-13.1,31-25.3,49-33.2
	c18.7-8.2,37.4-17.7,58.4-19.4C547,46.5,551.7,44.1,555.8,44.1z"/>
<path id="XE79CFFM2Gra4OT16_1_" class="st0" d="M309.8,237.6c-7.2-0.3-15.3,1.7-23.5,0.9c-5.6-0.6-6.8-1.8-5.9-7.1
	c0.5-2.6,0.8-5.3,0.8-7.9c-0.7-16.4,1.1-32.6,3.3-48.8c0.7-5.2,2.7-10.3,3.9-15.5c3.5-15,8.1-29.8,13.8-44.2c1.6-4,3.2-8,3.8-12.4
	c0.8-5.9,4.6-10.6,7-15.9c6.4-14.4,14-28.2,22.7-41.3c10.4-15.4,22-30.5,36.6-42.6c4.3-3.6,10.2-2.8,15.4-2.6
	c13.8,0.6,27.6,1.1,41.3,3.4c22,3.7,43.9,7.3,65.6,12.6c3.7,1.1,7.3,2.4,10.8,3.9c1.4,0.5,2.9,1.3,2.9,3.1s-1.6,2.3-3,2.8
	c-14.3,5.5-28.6,10.7-42.4,17.6c-4.1,2.2-8,4.8-11.6,7.8c-9.4,7.8-20.4,13.1-29.8,20.9c-16.7,13.7-31.8,29.4-44.8,46.7
	c-13.1,17.5-24.6,36-33.5,55.9c-8.1,17.7-13.6,36.6-16.1,55.9c-0.8,6.3-1.6,6.9-7.9,6.8C316.4,237.6,313.6,237.6,309.8,237.6z"/>
<path id="XE79CFFM2Gra4OT16" class="st0" d="M197.6,138.6c-1.8-16.4,3.1-32,5.8-47.9c2.7-15.6,8.6-29.6,15.4-43.6
	c2.9-6,7.1-11.3,11-16.6c1.2-1.6,2.8-2.9,4.7-3.6c25.9-11.2,53.3-16.6,81.1-20.3c3-0.4,5.8-1.3,8.8-1.9c1.8-0.4,3.8-0.5,4.7,1.7
	c0.8,1.8-0.2,3.2-1.5,4.4c-14.8,14-24.5,31.7-35.2,48.6c-9.7,15.3-14.7,32.5-21.4,49.2c-13.3,33.2-17.3,67.8-16.4,103.2
	c0.2,8.8,0,17.7,1.1,26.5c0.5,4-0.9,6.9-4.8,8.8c-5.2,2.7-10.1,5.9-14.5,9.7c-2.6,2.1-5,1.9-6.4-1.4c-4.8-11.2-11.1-21.6-16.4-32.5
	c-6.7-13.8-7.8-28.8-11.9-43.1C197.8,166.2,198.2,152.4,197.6,138.6z"/>
<path id="XE79CFFM2Gra1OT17_2_" class="st0" d="M167.9,331.8c-0.5,12.3-4.7,23.8-6.9,35.7c-0.7,3.7-3.6,2.6-6,1.7
	c-12-4.6-23.6-10-35.2-15.4c-17.8-8.4-34.4-18.9-49.7-31.2c-7.2-5.8-14.1-11.5-19.6-18.9c-4.6-6.1-11.7-9.8-16.2-16.1
	c-2.3-3.1-4.3-6.3-6.2-9.6c-0.3-0.9-0.8-1.8-1.5-2.6c-12.9-12.5-7.1-26.9-4.3-41c2-10.1,6.9-19.4,8.7-29.6c0.5-2.7,2.1-5.2,3.5-7.7
	c7.5-13.5,15.3-26.9,25-39c0.8-1,1.5-2.4,3.1-2c1.3,0.4,2.3,1.6,2.4,2.9c2.3,15.4,9.1,29.5,14,44.1c5.3,15.9,14.4,30,22.6,44.7
	c9,16.1,21.4,29.5,32,44.3c4.5,6.2,11.2,10.9,16.8,16.3c5,4.8,9,10.5,15.3,14C168.8,324.4,168,328.5,167.9,331.8z"/>
<path id="XE79CFFM2Gra1OT17_1_" class="st0" d="M170.7,60.9c2.5,0.4,2.4,2,2,3.8c-0.7,3.1-1,6.3-2,9.2c-5.9,18.1-4.9,37.1-7.1,55.7
	c-0.3,2.3-0.2,4.7,0.3,7c2.6,11.1,1.2,22.7,3.8,33.7c2.3,10,2.7,20.3,6.5,30c2.3,6,3.2,12.5,5.3,18.7c3.9,11.9,9.5,23.1,16.6,33.3
	c4.7,6.7,7.5,14.4,12.8,20.8c1.4,1.7,1.1,3.9-0.4,5.5c-3.8,4.2-6.5,9.2-11.3,12.5c-2.7,1.9-4.8,4.6-7,7.1c-2.6,2.8-5.1,3-7.6,0
	c-8.4-9.9-16.9-19.7-25-29.8c-2.6-3.2-4.2-7.1-6.1-10.8c-4.5-8.6-11.2-15.7-15.8-24.2c-4.1-7.6-7.7-15.4-11-23.4
	c-3.5-8.5-8.9-16-11.8-24.8c-4.1-12.3-7.5-24.7-10.2-37.4c-1.7-8.4-4.8-16.6-5.7-25.3c-0.5-5,1-8.4,4.2-12.8
	c10-13.4,25.1-20.2,37.7-30c9.1-7.1,18.4-15.3,30.3-18.4C169.6,61.4,170.2,61.2,170.7,60.9z"/>
<path id="XE79CFFM2Gra1OT17" class="st0" d="M88.3,457.4C67.4,458.1,48,455.9,29,450c-0.9-0.4-1.9-0.6-2.9-0.7
	c-11.3,0-15-6.8-17-16.8c-6.7-32.4-10.3-65.1-8.7-98.2c0.2-3.1-0.4-6.3-0.4-9.5c0-1.5,0.4-3.2,2.3-3.4c1.7-0.2,2,1.4,2.6,2.6
	c4.3,9.4,10.5,17.8,18.2,24.6c4.6,4,7.3,9.8,11.8,14.2c7.1,7,15.9,11.5,24.3,16.5c11,6.5,22.5,12.3,34.9,15.9
	c3.4,1,6.6,2.4,10.1,2.7c14.6,0.9,29.1,3.7,43.7,3.2c3-0.1,5.9-1.1,8.8-1.4c4.4-0.5,7.5,0.9,8.4,5.7c1.5,8.5,3.6,16.9,6.2,25.2
	c2.5,7.9,1,8.9-6.2,12.1c-18.8,8.5-39,10.4-59,13.8C99.9,457.3,93.5,457.1,88.3,457.4z"/>
<path id="XFF00FFM2Gra4Co7_3_" class="st0" d="M288.7,495.4c2.2,0,4.3,0,6.5,0c6.3-0.1,7.7,1.1,7.8,7.5c0,11.2-1.3,22.3-3.9,33.1
	c-4.6,20.2-12.9,38.7-21.7,57.2c-4.9,10.3-13.2,18.3-19.6,27.7c-7.2,10.5-18.1,17-27.2,25.4c-1.4,1.3-3.3,1.3-5.2,1.1
	c-15.2-1.6-29.5-6.6-43.7-12.1c-6.1-2.3-12-4.8-18.1-7.2c-1.4-0.6-3-1-3.2-2.7s1.3-2.5,2.7-3.1c6.9-3.2,12.6-7.8,18.1-13
	c5.9-5.5,13.7-8.8,19.4-14.8c7.8-8.2,17.1-15.1,24.2-23.7c10.9-13.2,22.3-26.2,31.3-41.1c6.1-10.1,12.3-20.2,17.5-30.8
	c1-2.2,3.2-3.5,5.6-3.4C282.3,495.4,285.5,495.4,288.7,495.4z"/>
<path id="XFF00FFM2Gra4Co7_2_" class="st0" d="M373.6,588.9c-2,10.5-0.1,22-3,33.1c-1.1,4.5-3.5,7-7.9,8.7
	c-15.2,5.8-30.5,11.7-46.4,15.5c-4.5,1.1-9.2,1.7-13.8,2.3c-3.9,0.5-5.6-1.5-3.7-5c8.1-14.6,10.9-31,15.1-46.8
	c6.2-23.4,8.7-47.5,7.5-71.7c-0.6-12.5-1.2-24.9-2.5-37.3c-0.3-2.5,0.6-5,2.6-6.6c2.4-2.1,4.5-4.4,6.5-6.9c2.4-3,4.5-3.2,7.4-0.5
	c3.4,3.1,5.7,6.9,8,10.8c5,8.4,9.8,16.8,13,26.2c5.2,15.1,10.6,30.2,13.2,46C371.5,567.1,373.3,577.6,373.6,588.9z"/>
<path id="XFF00FFM2Gra4Co7_1_" class="st0" d="M237.6,489.7c-1.2,2.7-2.8,5.8-4.2,9c-7.5,17.8-19.9,32.4-32.6,46.3
	c-12.2,13.3-24.7,26.6-40.8,36.2c-9.9,5.9-19.6,12.5-29.4,18.7c-7.5,4.8-8.3,5.3-14.6-0.6c-11.7-11.1-23-22.6-34.4-34
	c-1.6-1.6-3.6-3.5-2.6-6.1c1-2.4,3.6-2,5.7-2.3c21.3-3.5,40.9-11.5,59.8-21.7c8.6-4.7,17.9-8.2,25.9-13.9
	c11-7.8,21.4-16.4,32.6-23.8c0.9-0.7,1.7-1.6,2.3-2.6c4.8-6.8,10.9-10.5,19.6-8.5c2.8,0.5,5.7,0.5,8.4-0.2
	C235.7,485.6,237.3,486.5,237.6,489.7z"/>
<path id="XFF00FFM2Gra4Co7" class="st0" d="M68.2,529.5c-2,0.1-4,0.2-6,0.5c-3.9,0.6-7.7-1.1-10-4.3c-7.7-9.8-14.5-20.4-20.1-31.5
	c-1.4-3-2.3-6.2-2.9-9.5c-0.7-3.9,2.2-4,4.8-3.6c6.4,1.1,12.9,1.2,19.4,1.8c14.8,1.4,29.9,1.5,44.3-1.2c23.9-4.5,48.9-4.5,71.3-16
	c5.1-2.6,11.1-3.4,15.9-7c0.9-0.5,1.9-0.7,2.8-0.5c5.1,1.2,8.3,11.6,4.5,15.2c-8.6,7.9-14.8,18.3-25,24.2
	c-11.6,6.7-22,15.5-34.6,20.6c-9.6,3.8-19.3,7.3-29.5,9.1C91.5,529.2,79.8,528.8,68.2,529.5z"/>
<path id="XBD54E0M2Gra2OT1_2_" class="st0" d="M393.2,558.8c1-6.3-2.9-11.9-4.4-18c-3-11.9-6.2-24-11.3-35
	c-4.7-10.2-9.7-20.5-16.6-29.5c-5-6.6-7.1-15.1-14.1-20.3c-1.2-0.7-1.6-2.3-0.8-3.5c0,0,0,0,0-0.1c1.1-1.4,2.4-0.4,3.6,0.1
	c8.3,3.5,17.1,5.8,24.8,10.5c12.6,7.8,25.7,14.9,33,28.7c1.5,2.4,3.2,4.7,5.2,6.7c7.3,8.2,10.1,18.3,12.2,28.6
	c1,5.1-3.3,9.2-5.5,13.5c-4.8,9.1-13.2,15.3-18.8,23.8c-1.1,1.7-2.9,3.1-5.1,1.9C392.3,564.7,393.3,561.7,393.2,558.8z"/>
<path id="XBD54E0M2Gra2OT1_1_" class="st0" d="M386.3,424.7c17,0.1,32.8,3.9,46.4,15c2.2,1.8,4.8,2.8,7,4.8c7.8,7,7.2,16.1,6.1,25
	c-1.1,8.8-3.9,17.2-6.5,25.6c-0.5,1.4-1.2,2.7-2.2,3.9c-2.4,3.1-5.4,3.2-6.4-0.5c-4.6-16.3-17.9-26.5-26.9-39.8
	c-2.4-3.8-5.8-7-9.7-9.2c-9.5-5-15.8-14.3-25.6-18.9c-1.2-0.4-1.8-1.7-1.4-2.8c0,0,0,0,0-0.1c0.5-1.4,1.9-1.8,3.2-2
	C375.7,425,381,424.6,386.3,424.7z"/>
<path id="XBD54E0M2Gra2OT1" class="st0" d="M449.3,407.2c0.2,5.4-1.1,10.6-2.5,15.7c-0.9,3.4-2.8,4.7-6.3,3c-4.4-2-8.5-4.4-12.3-7.3
	c-7.3-5.9-16.4-8.9-24.9-12.4c-10.8-4.5-22-7.3-33.8-7.5c-1.3,0-2.9-0.1-3.4-1.6c-0.6-1.8,1-2.7,2.2-3.4c22-13.4,45.4-17,70.3-10.1
	c2.2,0.6,4.1,1.6,5,3.7C446.2,393.7,449.8,399.9,449.3,407.2z"/>
<path id="XEC2AFFM2Gra4OT31_8_" class="st0" d="M379.6,358.9c-9.3,1.3-17.5-0.9-25.2,2.2c-1.3,0.6-2.8,0.1-3.4-1.2c0,0,0,0,0,0
	c-0.7-1.6,0.3-2.8,1.4-3.9c6.5-6.8,15.1-10.1,22.9-14.8c14.2-8.5,30.1-8.6,45.9-9.3c4-0.2,6.6,1.3,9,4.9c3.8,5.7,6.5,11.5,6.2,18.5
	c-0.2,5.4-1.5,6.5-6.8,7c-7.5,0.7-14.4-2-21.7-2.8C397.9,358.2,388,361.2,379.6,358.9z"/>
<path id="XEC2AFFM2Gra4OT31_7_" class="st0" d="M300.9,334.3c0.8-5.8-0.4-12.9,3.7-19c0.4-0.6,0.5-1.2,0.5-1.9
	c-1.5-13.5,8.4-21.8,14.7-31.7c3.8-5.9,10.6-6.3,17-6.1c7.4,0.3,14.5,1.7,20.8,6c3.2,2.2,3.6,4.2,0.5,6.6c-2.4,2.1-4.9,4-7.6,5.6
	c-8.2,4.5-15.5,10.4-21.5,17.6c-6.3,7.5-13.3,14.4-19.3,22.2c-2.1,2.7-3,5.9-4.1,9c-0.4,1.1-0.9,2.4-2.2,2.3c-1.8,0-2-1.5-2.1-2.9
	C301.1,339.8,301,337.5,300.9,334.3z"/>
<path id="XEC2AFFM2Gra4OT31_6_" class="st0" d="M278.2,277.9c9.5-0.2,12.6,3.8,9.1,12.2c-5.2,12.6-5,25.7-4.9,38.7
	c0,6.1,1.2,12.2,1.8,18.3c0.2,1.6,0.8,3.5-0.9,4.6c-1.9,1.2-2.9-0.8-4.2-1.6c-11.3-7.6-18.7-18.2-22.5-31.2
	c-2.4-8-1.4-16.5-1.1-24.8c0.1-3.1,3.3-4.5,5.2-6.4C265.8,282.4,272.8,280.6,278.2,277.9z"/>
<path id="XEC2AFFM2Gra4OT31_5_" class="st0" d="M402.5,308.9c-0.2,2.7-2.4,3.5-4.5,3.8c-11.1,1.8-21.6,5.9-31.6,10.5
	c-12.5,5.8-24.8,12.7-35,22.5c-1.6,1.6-3.4,3.3-5.6,1.8c-2.5-1.7-1.2-4.1,0-6.2c2.6-4.1,4.5-8.6,5.5-13.3c0.5-2.3,1.6-4.4,3.3-6.1
	c8.1-8.8,16.7-17.4,27.1-23.2c7.6-4.3,16.4-6.6,25-0.6c3.9,2.8,8.5,4.6,12.7,6.9C400.9,306,402.2,307,402.5,308.9z"/>
<path id="XEC2AFFM2Gra4OT31_4_" class="st0" d="M221.6,318.7c0.5-3.1,1.7-6.1,3.6-8.7c2.9-4.4,6.9-7.7,10.5-11.4
	c1.5-1.5,2.9-3.5,5.5-2.6s3.1,3.3,3,5.8c-0.2,9.2,3.2,17.6,6.9,25.6c5.7,12.4,13,23.9,23,33.4c1.2,1.1,3.7,2.2,2.4,4.3
	c-1.2,1.9-3.3,0.5-5,0.2c-11.5-1.8-21.3-7.7-29.1-15.5c-6.9-6.9-14.4-13.9-18.7-23.1C222.3,324.3,221.7,321.5,221.6,318.7z"/>
<path id="XEC2AFFM2Gra4OT31_3_" class="st0" d="M265.6,388.1c-6.5-0.3-12.9,0.8-19.4,0.3c-12-1-23.5-4.6-33.9-10.7
	c-2.9-1.7-4-3.9-4.1-7.3c-0.2-6.1,0.1-12.3,0.8-18.4c0.2-1.8,0.2-3.9,2.3-4.6s3.3,1,4.4,2.5c4.3,5.7,9.7,9.8,15.8,13.5
	c10.5,6.4,21.8,11.3,32.5,17.3c2.4,1.4,5.2,2.3,8,2.5c1.8,0.1,4.3,0.1,4.3,2.4c0,2.8-2.8,2.3-4.7,2.4S267.6,388.1,265.6,388.1z"/>
<path id="XEC2AFFM2Gra4OT31_2_" class="st0" d="M220.7,399.7c10.8,2.6,21.4,2.4,32,2.1c8.5-0.1,16.9-1.5,25-4.1
	c1.9-0.6,4.5-2,5.8,0.6c1.3,2.6-1.1,3.8-2.6,5.4c-10.5,11.6-24,18.6-38,25c-2,1-4.3,0.7-6-0.8c-8.1-6.2-15.6-12.9-19.1-23
	C216.7,401.8,217.1,399.7,220.7,399.7z"/>
<path id="XEC2AFFM2Gra4OT31_1_" class="st0" d="M309.2,411.2c0,15.1-6.1,27.5-17.9,36.7c-6.5,5.1-14.4,2.8-21.5,0.7
	c-3.6-1.1-9-2.1-9.3-6.3s5.3-3.3,8.2-4.8c6.7-3.5,12.8-7.6,17.8-13.4c2.6-3,5.6-5.6,8.4-8.5c3.5-3.5,6.9-7.1,8.2-12.3
	c0.4-1.5,1.3-2.8,3.1-2.7c1.8,0.1,2.4,1.6,2.6,3.1C309.1,406.3,309.1,408.8,309.2,411.2z"/>
<path id="XEC2AFFM2Gra4OT31" class="st0" d="M343.6,405.9c0.4,8-3.2,14.9-6.3,21.9c-2.7,6.1-8.6,8.5-13.8,11.7
	c-1.3,1-3.1,0.8-4.1-0.4c-1-1.2-0.5-2.6,0.2-3.7c9.6-15.6,8.8-33,8.4-50.3c-0.1-2.6-1.1-4.8-2.2-7.1c-0.7-1.6-1.1-3.3,0.7-4.4
	c1.6-1,2.9-0.1,4,1.1C338.7,383,343.4,394.2,343.6,405.9z"/>
</svg>
