<?xml version="1.0" encoding="utf-8"?>
<!-- Generator: Adobe Illustrator 21.0.0, SVG Export Plug-In . SVG Version: 6.00 Build 0)  -->
<svg version="1.1" baseProfile="tiny" id="图层_1"
	 xmlns="http://www.w3.org/2000/svg" xmlns:xlink="http://www.w3.org/1999/xlink" x="0px" y="0px" viewBox="0 0 285.8 832.5"
	 xml:space="preserve">
<title>Anime10_13_750</title>
<g>
	<path id="X990000M1Gra8OT24" fill="#FFFFFF" stroke="#000000" stroke-miterlimit="10" d="M164,832.1c-35.7-2.1-63.1-5.8-89.4-16
		c-17.5-6.8-33.6-15.3-46.8-28.6c-21.9-22-31-48.3-26.8-79.1c2.4-18,14.2-27.7,30-33.2c12-4.2,24.2-8.5,37.4-8.2h2
		c8.5,0.1,10.6,2.5,8.8,10.7c-2.6,11.4-7.3,21.4-17.4,28.7s-18.3,12.3-24.2,22.1c-3.4,5.6-5.4,11.4-4.7,18s5,12.3,12.3,14.6
		s14.1,1.3,21.1-0.8c19.7-5.9,46.5,7.4,51.3,25.2c1.1,4,3,7.7,4.6,11.6c2.5,5.8,10.3,10.6,17.2,9.7c11.5-1.6,23.3-7.2,23.4-23.1
		c0-10.8,2.9-21,5.5-31.4c5.2-21.2,30.8-25.9,45.3-11.8c2.1,2,6.5,3.3,5.7,6.3s-5,0.3-7.6,1c-4.2,1.2-7.1,3.2-8.1,7.8
		c-2.9,12.7,4.6,26.3,18.1,32.1c4,1.7,8.2,2.9,12.2,4.4s6.5,4.8,5.4,9.7s-5.1,10.2-10.6,13.1C205.9,826.6,182.2,834.1,164,832.1z"/>
	<path id="X960570M1Gra2OT21" fill="#FFFFFF" stroke="#000000" stroke-miterlimit="10" d="M12.5,663.2c2.4-7.6,6.7-13.7,11.2-19.8
		C34.3,629,43.6,613.9,47.4,596c1.3-6.2,0-12.4-1.6-18.3c-4.6-17.3-11.7-33.7-21.1-48.9c-11.6-18.4-15.1-39.2-16.5-60.5
		s4.5-38.1,15.7-54.5c3.3-4.8,7.3-8.6,12.8-10.8s13.3,0.1,15.8,7c2.4,6.2,3.3,12.9,2.7,19.6c-0.9,10-1.2,19.9,1.9,29.7
		c4.5,14.2,21.7,26.2,35.8,24.5c4.7-0.5,9.1-2.6,12.3-6.1c0.8-0.9,1.6-2.7,3.1-1.8s0.6,2.4,0.5,3.7c-0.7,7.9-4.5,13.6-11.1,18
		c-12,8-25.7,7.9-37.3-0.7c-3.5-2.6-6.9-6.5-11.9-2.6s-5.8,11-3.5,16.1c3.2,7,8.4,12.4,14.6,16.7s15.5,10,21.3,17.1
		c11.6,14.2,19.1,30.3,17.4,49.1c-1.5,16.2-10.6,28.6-22,39.7s-28.2,18.5-44.8,22.7C24.8,657.6,18.5,659.6,12.5,663.2z"/>
	<path id="XE51F1FM1Gra4OT28" fill="#FFFFFF" stroke="#000000" stroke-miterlimit="10" d="M130,324.1c3.1,1.3,3,3.4,3.7,5
		s1.9,5.6,4,8c3.8,4.1,7.8,7.6,13.9,5.6c5.8-1.7,9.9-6.9,10.2-12.9c1.1-12.3,1.9-24.6,2.5-36.9c0.9-19.6-0.6-39.3-0.8-58.9
		c-0.1-13.8,0.2-27.6-0.6-41.4c-0.4-7.5-0.7-15-2.6-22.3c-2.9-11-11-13.3-19.3-5.8c-1,0.9-1.7,3-3.5,2.1s-0.6-2.4-0.6-3.7
		c0-6.5-0.2-13,0.2-19.5c0.6-9.3-3.1-16.5-9.7-22.5c-1.3-1.2-3.5-2.3-2.7-4.3s2.9-0.6,4.5-0.6c12.1,0.3,25.2-9.6,30.5-23
		c4.3-10.9,5.6-22.2,5.4-33.8c0-1.5-1.3-3.5,0.8-4.4s3.1,0.9,4.4,1.8c10.8,8.4,16.5,19.8,19.2,32.9c0.7,3.6,1,7.2,1.5,10.9
		c0.5,3.7-0.7,3.7-2.5,5c-2.8,1.8-5.5,3.8-8,6c-5.1,4.3-7.9,10.6-7.8,17.2c0.3,38.1,0.1,76.3,0.9,114.4c0.5,27.8,0.4,55.6,0,83.4
		c-0.5,37.6-1.4,75.2-1.1,112.9c0,3.5,0.5,7,0.7,10.5c0.1,1,0.3,2.1-0.7,2.7s-2.1-0.5-2.8-1.3c-1.2-1.4-2.4-2.7-3.7-4
		c-5.1-4.3-11.3-4.1-16.2,0.6c-10.7,10.2-13.1,31.8-4.9,44.3c3.4,5,9.8,7,15.4,4.6c1.2-0.5,2.3-1.8,3.6-0.8s0.8,2.8,0.4,4.2
		c-1.5,4.4-1.5,9.3-4.6,13.1c-7.3,9.1-24.2,7.9-31.3-2.1c-4.9-6.9-7-15.3-5.9-23.7c1-7.8,1.4-15.6,1.3-23.4
		c-0.3-13.4,2.3-26.5,2.7-39.9c0.9-27.6,2.2-55.2,3.3-82.9C130.2,335.6,130,330,130,324.1z"/>
	<path id="X990000M1Gra2OT24" fill="#FFFFFF" stroke="#000000" stroke-miterlimit="10" d="M249.8,624.4c-8.3-8.7-9.8-19.2-8.1-30.5
		c1.3-8.9,4.7-16.9,9.2-24.6c8-13.5,14.8-27.7,17.2-43.4c1.8-11.5,0.4-22.9-2.6-34.1c-0.8-3-2.4-5.6-5.7-6.3
		c-3.3-0.7-5.1,1.9-6.8,4.2c-3.8,5.4-7.9,10.7-12.1,15.9c-7.9,9.9-18.4,13.6-30.5,12.4c-7.5-0.7-15.1-2-21.1-7.7
		c1.4-1.6,2.7-0.6,3.8-0.3c24.1,6.7,40.2-5.1,49.8-25.6c2.1-4.3,3.3-9.1,5.3-13.4c3.6-7.8,8.4-9.1,15.5-4.4
		c12.6,8.3,16.1,21.4,17.8,35.3c2.6,20.7-5.2,38.5-15,55.9c-6.3,11.2-12.4,22.4-16.8,34.5S244.7,613.6,249.8,624.4z"/>
	<path id="X990000M1Gra4OT24" fill="#FFFFFF" stroke="#000000" stroke-miterlimit="10" d="M258.8,662.6c6,6.8,9.6,14.8,13.2,22.8
		c6.3,14.3,10.7,29.5,12.9,45c2.2,15.3,0.1,29.8-7.1,43.6c-2.7,5-6.8,9.1-11.8,11.8c-3.8,2.2-7.4,1.2-10.4-1.9
		c-3.2-3.5-5.4-7.7-6.6-12.2c-3.7-13-10-24.6-18.1-35.3c-1.2-1.2-1.7-2.8-1.5-4.5l15.6,8.7c17.6,9.9,24.2,0.1,24.8-14.5
		c0.8-18.6-2.5-36.8-8.9-54.3C259.7,668.8,258.3,666,258.8,662.6z"/>
	<path id="X66FF00M1Gra5Co17" fill="#FFFFFF" stroke="#000000" stroke-miterlimit="10" d="M131.1,79.3c0.9-2.8,1.7-5.6,2.7-8.4
		c5.8-16.1,11.4-32.3,17.5-48.3c4.2-10.9,12.2-18.1,23.3-21.7c8.6-2.8,15.5,0.7,21,6.8c13.4,14.8,6.6,33-7.9,39.2
		c-5.4,2.3-10.4,1.4-15.4-1c-1.5-0.7-3.1-1.8-2.9-3.7s2.2-1.4,3.6-1.5s4.8-1.5,6.9-2.7c5.2-3,7-7.1,4.9-10.9
		c-2.9-5.3-8.2-7.3-13.5-4.8c-4.5,2.2-8.5,5.3-11.6,9.2c-9.2,11.2-15.8,23.8-21.6,36.9C136.5,72.4,134.8,76.3,131.1,79.3z"/>
</g>
</svg>
