<?xml version="1.0" encoding="utf-8"?>
<!-- Generator: Adobe Illustrator 24.1.0, SVG Export Plug-In . SVG Version: 6.00 Build 0)  -->
<svg version="1.1" id="图层_1" xmlns="http://www.w3.org/2000/svg" xmlns:xlink="http://www.w3.org/1999/xlink" x="0px" y="0px"
	 viewBox="0 0 661 850" style="enable-background:new 0 0 661 850;" xml:space="preserve">
<style type="text/css">
	.st0{fill:#FFFFFF;stroke:#000000;stroke-miterlimit:10;}
</style>
<g>
	<path id="X05E8E2M2Color11_2_" class="st0" d="M0,636c1.8-7,1-14.2,1.3-21.4c1.1-24.5,1.8-48.9,2.5-73.4c0.1-4.5-0.8-8.9-1.1-13.4
		c-0.1-2,0-4.3,1.7-5.5c1.9-1.3,3.3,0.8,4.8,1.7c35.3,21.8,69.1,45.9,103.6,68.9c3.2,2.1,2.5,3.4,0.4,5.5
		c-4.9,5.1-10.9,8.7-16.8,12.6c-3.8,2.5-7.4,5.2-10.7,8.1c-2.6,2.3-3.2,4.1-0.6,7.3c17.5,20.8,37.2,39.6,58.8,56.1
		c33.5,25.4,70.1,46.3,109.1,62.1c4.8,1.9,9.9,2.9,14.7,4.7c3.2,1.2,4.4,0,5.4-2.9c3.5-9.9,5.9-20.2,7.2-30.6
		c4.8-35.5,13.3-70.3,21.7-105.1c12.4-51.7,21.1-104.1,30.7-156.3c3-16.5,6.9-32.9,11.2-49.2c2-7.7,5.7-12.2,14.4-12.2
		c6.8,0,12.8-3.5,18.8-6.2c3.8-1.7,7.6-3.4,11.3-5.4c4.3-2.4,5-0.3,4.9,3.4c-0.1,13.1-3.4,25.7-6.2,38.4
		c-7.9,36.1-13.7,72.6-20,109.1c-8.3,47.4-17.6,94.6-26.8,141.9c-5.1,26.6-10.1,53.3-15.3,79.9c-0.9,4.4,0.7,5.9,4.5,6.9
		c10,2.7,20.1,2.4,30.3,1.7c23.5-1.5,46.6-6,69.5-11.2c4-0.9,79.8-20.5,111.1-34.9c2.1-1,4.1-2.2,6.3-3c3.1-1.1,3.1-2.7,1.8-5.3
		c-3-6.2-7-11.7-10.9-17.3c-3.3-4.6-6-9.6-7.9-15c-0.8-2.4-0.7-3.5,2.2-4c41.9-8,83.4-17.8,125.5-24.8c1.2-0.1,2.3-0.2,3.5-0.2v2
		c-0.3,0.4-0.6,0.8-0.8,1.2c-7.2,26.4-17.9,51.6-27.8,77c-7.8,19.8-16.9,39.2-20.7,60.4c-0.4,2.4-1.9,4.6-3,6.8
		c-1.3,2.7-2.9,2.6-5,0.7c-4.8-4.3-8.1-9.7-11-15.4c-2.9-5.6-5.7-11.3-9.5-16.4c-2.1-2.8-3.9-3.6-7.4-1.9c-12,5.8-23.8,12-35.2,19
		C485.7,813.8,426.3,835,363,845.6c-9.3,1.6-18.7,2.9-28,4.4h-24c-7.7-1.4-15.3-1.9-23,0h-10c-9.1-7-19.4-11.4-30.2-14.8
		c-1.6-0.6-3.1-1.3-4.5-2.1c-81.8-40.9-149.6-97.7-200-174.6c-1.7-2.7-3.2-3-6.1-2c-7.8,2.8-13.6,8.2-19.8,13.3
		C12.2,674.2,7,678.7,0,680V636z"/>
	<path id="X05E8E2M2Color11_1_" class="st0" d="M434,0c9.8,2.5,19.8,4.2,29.1,8.3c17.6,7.8,32.6,18.7,43.4,34.8
		c2.2,3.1,3.9,6.4,5.1,10c-11.1-2.4-20.9,1.6-30.9,4.3c-6.7,1.8-12.6,0.6-17.5-4.3c-17.1-17.3-37.6-17.6-58.3-9.5
		c-20.7,8-30.8,25.2-33.1,46.8c-3.3,30.2,12.7,53.4,42,61.5c2.7,0.8,3.2,1.8,3.2,4.4c-0.1,15,3.3,29.1,11.1,41.9
		c2,3.2,1.1,6.1,0.5,9.1c-2.5,13.4-5.3,26.8-7.8,40.2c-0.8,4.9-1.4,9.9-1.7,14.9c-0.5,5.8,1.2,7.6,7.1,8.4c3.8,0.5,7.6,0.9,11.4,1.6
		c1.2,0.2,2.9,0.7,3,2.2c0.1,1.4-1.4,2.2-2.6,2.8c-1.2,0.7-2.4,1.1-3.7,1.4c-5.2,0.7-9.9,3.6-12.9,7.9c-7.9,11.4-19,16.5-32.5,18
		c-8.9,1-17.7,2.6-25.9,7.8c-1.1-5.3,0.2-9.8,0.8-14.3c0.7-4.8-0.8-7.2-5.5-8.9c-12.2-4.3-24.9-5.9-37.6-7.8
		c-20.1-2.9-40-7-59.7-12.2c-9.2-2.5-17.3-2.2-24.9,5c-13.9,13-32.1,12.9-46.5,0.7c-12.7-10.8-14.8-29.4-5-45
		c12.3-19.7,38.7-22,54.3-4.8c0.6,0.6,1.2,1.2,1.7,1.9c4.8,9.4,13,12.1,23,13.6c34,5.4,68,11.6,101.9,17.7c3.1,0.6,4.4-0.2,5.5-3.1
		c5.7-14.2,7.5-29.3,9.8-44.3c1.2-8.1,2.6-16.1,4.1-24.1c1-5.4-2.6-8-6.3-9.5c-17.7-7.5-28.5-21.9-36.6-38.1
		c-14.1-28.1-12-56.7,0.4-84.9c4.6-10.4,10-21,18.8-28C375.7,15,390.7,3.8,409.8,0.8c0.8-0.2,1.5-0.5,2.2-0.8H434z"/>
	<path id="X05E8E2M2Color11" class="st0" d="M607.3,314.8c0.3,23.9-20.7,37.6-42,35.6c-16.8-1.6-28.8-9.7-33.1-26.9
		c-0.7-2.7-2.6-3.3-4.7-3.6c-5.3-0.6-10.6-1-15.9-1.6c-2-0.3-3.9-0.7-5.8-1.2s-2.5-1.5-0.7-3c8.1-6.5,15.1-14.1,20.9-22.7
		c1.4-2.1,3.3-1.2,4.9-0.9c5.2,1.2,9.7,0.1,12.9-4.3c6.8-8.9,16.2-11.1,26.6-10.4C590.5,276.9,607.4,294.9,607.3,314.8z"/>
	<path id="XA34F1FM2Color24_25_" class="st0" d="M240.9,683.6c-13.2,4.5-30.2-0.7-40.1-13.4c-15.9-20.4-18.6-43.1-9.8-67.4
		c1.4-3.8,3.4-3.7,5.8-1.2c1.2,1.1,2.3,2.5,3,4c3,7.3,8.1,13,13.9,18c8.3,7.2,12.5,16.6,15.3,26.9
		C232,661.7,234.2,673.2,240.9,683.6z"/>
	<path id="XA34F1FM2Color24_24_" class="st0" d="M202.7,451.5c5.5,0.3,11.1,0.9,16.5,1.8c3.7,0.7,3.6,2.1,2.2,5
		c-6.1,12.4-15.6,21.4-27.4,28.2c-15.1,8.8-31.8,13.4-48.7,17.2c-3.6,0.8-3.1-1.7-3.1-3.4c-0.3-13,4.2-24.1,14.1-32.8
		C169.5,455.9,185.3,451.9,202.7,451.5z"/>
	<path id="XA34F1FM2Color24_23_" class="st0" d="M217.6,437.9c-10,0.2-20,0-29.9,1.6c-3.2,0.5-2.9-0.7-2.2-2.9
		c3.1-10.2,10.4-18.6,20-23.2c24.2-12.3,49.1-11.1,74.2-3.2c2.7,0.8,2.2,2.2,1.2,4.1c-4.9,9.3-12.4,15.4-22.3,18.8
		C245.3,437.6,231.4,437.6,217.6,437.9z"/>
	<path id="XA34F1FM2Color24_22_" class="st0" d="M579,8.7c4.9,0.3,7,3.6,8.3,7.2c1.2,3.6,2.2,7.3,2.9,11.1c0.7,3.1,2.2,3.6,5,2.4
		c3.5-1.5,5.9-4.3,8.2-7.2c2.2-2.9,4.4-5.8,8.5-6.9c0.9,5-0.8,9.3-2.6,13.6c-1.4,3.4-2.9,6.7-4.4,10c-2,4.2,0.1,5.5,3.9,5.4
		c3.3-0.1,6.6-0.5,10-0.6c2.2-0.1,4.8,0,5.5,2.5c0.6,2.2-1.8,3.3-3.4,4.4c-4.1,2.7-9,3.5-13.5,5.1c-3.8,1.3-8.9,2.7-9.3,6.6
		c-0.5,3.9,4.9,5.1,8.1,6.9c4.4,2.6,9.3,4.6,12.3,9.1c1.8,2.7,1.8,4.5-1.8,5.2s-7.2,1.5-10.8,2.1c-3.3,0.6-6.6,0.9-9.9,1.6
		c-8.4,1.8-8.6,2-11.9-6.3c-3.1-7.7-5.8-15.6-8.7-23.4c-2.2-6-4.7-11.8-8.6-16.8c-1.7-2.2-1.9-3.6,0.5-5.1c0.3-0.2,0.5-0.4,0.7-0.7
		C575.6,28,581.2,20.1,579,8.7z"/>
	<path id="XA34F1FM2Color24_21_" class="st0" d="M400.5,657.9c-11.2-0.1-21.7-2.5-31.4-8.3c-3.1-1.9-4-4-3.2-7.4
		c1.7-6.8,5.3-12.7,9.3-18c2.7-3.6,8-3.6,12.5-3.8c8.5-0.5,16.5,1.8,24.4,4.3c11.1,3.5,22.2,7.2,34.2,5.2c1.9-0.3,4.5-0.2,5.4,1.6
		c0.9,1.7-1,3.4-2,4.8c-9.1,12.6-22.3,17.8-36.9,20.5C408.8,657.7,404.7,658.1,400.5,657.9z"/>
	<path id="XA34F1FM2Color24_20_" class="st0" d="M184.8,570.2c-0.5,13.6-3.3,25.4-6.7,37.1c-2.7,9.6-3.9,19.6-3.4,29.6
		c0.1,2.5,0.9,6.2-1.4,7.2c-2.2,0.9-4.8-1.8-6.8-3.5c-11.9-10.1-17.3-23.4-18.7-38.4c-2.1-21.8,9.2-37,29.5-48.3
		c3.5-1.9,4.5,1.1,5.6,3.1C185.2,561.5,184.7,566.6,184.8,570.2z"/>
	<path id="XA34F1FM2Color24_19_" class="st0" d="M290.8,371c16.1,0.3,31.7,3,46.6,9.4c4.4,1.9,3.7,3.3,0.7,5.8
		c-11.6,9.9-25.3,13.6-40.1,14.4c-12.4,0.7-24.6-0.2-36.3-5c-4.1-1.5-8.5-2-12.8-1.4c-1.3,0.1-2.7,0.2-4,0.1
		c-2.1-0.1-4.2-0.6-5.1-2.5c-1.1-2.1,1.1-3.3,2.2-4.5c8.8-9.6,20.4-13.3,32.8-15.3C280.2,371.2,285.5,370.9,290.8,371z"/>
	<path id="XA34F1FM2Color24_18_" class="st0" d="M189.6,506c-0.6,17.1-9.1,30.3-21,41.7c-8.5,8.1-18.1,14.6-27.3,21.7
		c-2.8,2.2-3.3,0.3-4-1.7c-6.2-17.1-2-32.2,9.4-45.4c6.7-7.7,14-14.6,24.7-16.6c4.4-0.8,8-4.1,12.6-4.7
		C189.1,500.2,190,501.1,189.6,506z"/>
	<path id="XA34F1FM2Color24_17_" class="st0" d="M346.8,340.4c17.9,0.8,32.3,5.3,46.4,11c1.9,0.8,4.6,1.4,4.6,3.9
		c0.1,2.4-2.3,3.6-4.1,4.6c-18.7,10.2-38.3,13.6-59.2,7.9c-9.8-2.7-19.6-5.3-29.8-6.1c-3.2-0.3-3.1-1.5-1.5-3.7
		c4.4-6.2,10.4-10.3,17.3-13C328.9,341.8,337.9,340.2,346.8,340.4z"/>
	<path id="XA34F1FM2Color24_16_" class="st0" d="M542.7,214.5c-0.2,29.4-16.4,47-47.4,51.6c-4.3,0.6-8.6,0.9-12.9,1.3
		c-4.5,0.4-6.4-1.5-4.6-5.7c2-4.7,4.2-9.6,7.6-13.2c11.1-11.3,23.3-21.3,36.5-30c5.5-3.7,11.8-6.9,16.1-12.4c0.7-0.9,1.4-2,2.8-1.4
		c1.5,0.5,1.9,1.7,1.8,3.2C542.6,210.1,542.7,212.3,542.7,214.5z"/>
	<path id="XA34F1FM2Color24_15_" class="st0" d="M462.2,312.1c-9.3,0-18.6-1.8-27.3-5.3c-3.3-1.3-3.4-2.9-1.9-5.6
		c3.2-6,8.2-10,14.2-12.8c12-5.5,25-6.6,37.9-8.3c7.4-1,14.9-1.8,22.1-3.8c3.9-1.1,3.7,0.5,3.2,3.4c-2,11.5-8.4,19.7-18.5,25.3
		C482.8,310.1,472.7,312.1,462.2,312.1z"/>
	<path id="XA34F1FM2Color24_14_" class="st0" d="M466.1,523.5c4.7-1.1,6.8,1.5,8.8,4.2c1.9,2.5,3.6,5.2,5.5,7.7
		c0.8,1,1.8,2.3,3.3,1.8c1.6-0.6,2-2.3,2-3.7c-0.1-2.6-0.6-5.3-0.9-7.9c-0.4-3.4,1.3-3.8,3.8-2.4c3.1,1.6,4.3,4.6,4.9,7.8
		c1,5.2,1.7,10.5,2.3,15.8c0.3,2.7,1.1,3.6,3.8,2.3c2.1-1,4.5-2.3,6.5-0.3c2.2,2.1,0.6,4.7-0.1,7c-0.5,1.9-1.3,3.8-1.7,5.7
		c-0.9,4.5,0.6,6.5,5.1,6.9c6,0.6,11.9,1.5,17.1,4.8c1.8,1.2,4,2.5,3.2,5.1c-0.8,2.4-3.3,1.9-5.2,1.6c-2.9-0.4-5.1,1-7.5,2.3
		c-2.4,1.5-4.9,2.7-7.5,3.8c-4.9,1.8-8.9,1.5-12.6-3.4c-7.2-9.6-17.2-16.7-25.6-25.2c-2.9-2.9-4.9-5.2-2.8-10.2
		C471.8,539.3,469.6,531.3,466.1,523.5z"/>
	<path id="XA34F1FM2Color24_13_" class="st0" d="M430.1,113.7c0-12.4,9-22.4,23.6-24.4c11.8-1.7,23.3-0.1,33.9,5.4
		c4.7,2.5,6.8,7.4,8.7,12.1c1,2.4-0.8,3.5-3,4.2c-6.9,2.1-13.9,3.3-20.9,4.7c-12.7,2.5-25.7,4.3-36.6,12.2c-1.9,1.4-2.7,0-3.4-1.3
		C430.7,122.9,430,119,430.1,113.7z"/>
	<path id="XA34F1FM2Color24_12_" class="st0" d="M460.1,325.3c-9.5,8.5-20.6,12.4-32.4,14.4c-18.5,3.1-37.5,1.4-55.1-5.1
		c-4.7-1.7-4.9-2.6-1.5-6.4c2.9-3,6.5-5.2,10.6-6.4c25.6-8,50.9-6.3,76,2.2C458.5,324.3,459.3,324.8,460.1,325.3z"/>
	<path id="XA34F1FM2Color24_11_" class="st0" d="M508,214.3c-1.3-9.5-0.8-19.2,1.3-28.6c4-17.7,13.1-33.4,20.5-49.7
		c1.6-3.6,2.9-0.6,3.7,0.5c8.5,10.7,11.6,23,8.7,36.1C538.1,191.8,524.1,203.5,508,214.3z"/>
	<path id="XA34F1FM2Color24_10_" class="st0" d="M491.8,599.8c-0.3,3.5-2.3,6-4.8,8c-3.9,3.1-8,5.9-11.9,9c-1.1,1.1-2.9,1.1-4,0.1
		c-1.6-1-3-2.1-4.4-3.3c-7.9-8.1-15.9-16-24.3-23.6c-6.3-5.7-5.8-10.3,0.6-15.9c3.2-2.8,6.7-5.4,10-8.3c1.4-1.2,2.2-0.9,3.4,0.1
		c10.2,8.5,21.2,16.1,30.5,25.6C489.2,593.9,491.7,596.2,491.8,599.8z"/>
	<path id="XA34F1FM2Color24_9_" class="st0" d="M569.5,100.4c-1.7,0.4-3.4-0.5-4.1-2.1c-4.6-9.2-13-12.4-22.4-13.7
		c-2.8-0.4-4.4-0.8-4-4.5c0.6-6-3.6-10.1-7.5-14.1c-5.1-5.3-5.1-5.3,0.5-10.1c4.5-3.9,9.6-6.5,14.8-9.3c1.5-0.8,2.6-0.9,3.9,0.5
		c13,13.6,21.8,29.7,28.3,47.2c0.6,1.6,0.1,2.4-1.2,3.3C575.4,99.2,572.5,100.2,569.5,100.4z"/>
	<path id="XA34F1FM2Color24_8_" class="st0" d="M436.4,153.1c10.4,7.4,22.2,8.4,33.9,9.9c4.9,0.6,9.9,1.3,14.8,1.9
		c1.6,0.2,2.7,0.3,2.3,2.7c-2.7,14.8-19.7,27.1-34.5,24.8c-4-0.6-7.6-2.5-10.4-5.4C434.7,179.2,431.8,163.8,436.4,153.1z"/>
	<path id="XA34F1FM2Color24_7_" class="st0" d="M510,71.1c5.3-0.2,10.6,1.1,15.1,3.8c5.2,3.2,7.1,7.8,4.7,13.1
		c-4.3,9.7-12.6,15.2-21.9,19.2c-2.4,1-2.4-1.1-2.9-2.3c-2-5.3-4.6-10.3-7.7-15c-3-4.8-6.9-7.9-12.6-8.6c-3-0.4-7.3-0.9-7.3-4.5
		c0-2.2,4.4-2,6.8-2.6C492.6,72.2,501.3,71.1,510,71.1z"/>
	<path id="XA34F1FM2Color24_6_" class="st0" d="M521,125.3c-0.6,13.7-7.8,26.5-19.7,36.9c-1.9,1.6-3,2.2-4-0.8
		c-3.6-10-8.1-19.7-12.6-29.3c-0.7-1.5-2-3.1,1.1-3.4c8.6-1,16-5.3,23.6-9.1c1.3-0.7,2.7-1.2,4.1-1.8
		C520.8,114.7,521.1,115,521,125.3z"/>
	<path id="XA34F1FM2Color24_5_" class="st0" d="M236.2,638.9c12.6,0.6,23.4,3.7,34,7.7c2,0.7,2.4,1.8,2,3.8
		c-2.2,11.8-4.3,23.5-6.4,35.3c-0.5,3-1.8,3-4,1.4c-5-3.6-8.4-8.5-11-13.9C245.7,662.3,243.4,650.1,236.2,638.9z"/>
	<path id="XA34F1FM2Color24_4_" class="st0" d="M549.1,147.6c-1.2-9.6-5.7-17.3-12.1-24c-0.5-0.4-0.9-1-1-1.7
		c-0.2-6.1-3.5-11-6.1-16.1c-2.2-4.3-1.3-6,3.4-7c10.7-2.4,19.6,2,24,11.9C562.8,123.2,559.2,140.3,549.1,147.6z"/>
	<path id="XA34F1FM2Color24_3_" class="st0" d="M443.9,619.7c-12.8-0.6-25.8-3.4-38.5-7.4c-2.7-0.8-2.6-1.8-1.3-3.8
		c2.2-3.4,5.3-6,9-7.6c12.3-5.4,30.3-0.3,38,10.6c1.4,2,3.6,4.4,2.6,6.7c-0.9,2.2-4.1,1.1-6.3,1.5
		C446.2,619.8,445.1,619.8,443.9,619.7z"/>
	<path id="XA34F1FM2Color24_2_" class="st0" d="M473.4,152.5c-6.2-0.1-11.6-2.5-17.1-5c-3-1.4-5.9-3.2-9.1-4c-4-1-3.5-3.3-2.4-5.9
		c2.4-5.6,7.2-8.5,12.7-10.5c12.3-4.6,12.3-4.6,16.2,7.5c1.3,4.1,2.7,8.2,4.1,12.3C479.5,152.3,479.3,152.6,473.4,152.5z"/>
	<path id="XA34F1FM2Color24_1_" class="st0" d="M358.3,680.4c0.3-5.8,1.6-11.5,4-16.7c1-2.3,2.1-3.7,5.2-2.3
		c6.9,3,14.5,3.8,21.7,5.7c5.6,1.5,5.8,2,1.9,6.5c-4.8,5.6-11.3,8.6-18.1,11.1c-2.6,1-5.4,1.8-8.1,2.5
		C358.3,689.1,358.2,689.1,358.3,680.4z"/>
	<path id="XA34F1FM2Color24" class="st0" d="M486.4,199.3c-2-0.1-4.6,0.2-5.4-1.7c-0.8-1.7,1.5-3.1,2.6-4.4
		c3.9-4.7,9.1-8.3,11.4-14.2c0.3-1,1.3-1.5,2.3-1.2h0.1c1.3,0.5,2.2,1.5,2.5,2.9C502.4,188,494.2,199.3,486.4,199.3z"/>
</g>
</svg>
