<?xml version="1.0" encoding="utf-8"?>
<!-- Generator: Adobe Illustrator 21.0.0, SVG Export Plug-In . SVG Version: 6.00 Build 0)  -->
<svg version="1.1" id="图层_1" xmlns="http://www.w3.org/2000/svg" xmlns:xlink="http://www.w3.org/1999/xlink" x="0px" y="0px"
	 viewBox="0 0 806 484.8" style="enable-background:new 0 0 806 484.8;" xml:space="preserve">
<style type="text/css">
	.st0{fill:#FFFFFF;stroke:#000000;stroke-miterlimit:10;}
</style>
<title>Anime10_13_194</title>
<g>
	<path id="X0014AAM2Gra8OT24_7_" class="st0" d="M679.6,476.5c-15.5-1.3-31.8-1.3-47.3-6.5c-10.2-3.4-20-7.8-28.8-14.3
		c-12.8-9.4-25-19.3-34.3-32.4c-12.6-17.7-19.8-37.5-22.2-59c-0.2-1.6-0.1-3.2,1.5-3.9c3.8-1.7,7.9-1.2,11.8-1.1
		c3.9,0.1,5.5,4.3,6.6,8.4c2.2,8.5,5.3,16.8,9.3,24.6c6.8,13.4,13.8,26.5,25.5,36.5s26.3,19.3,42.6,23.4c20.7,5.1,41.5,6.3,61.9-0.2
		c12.6-4,23.9-11.1,34.5-19.5s19-18.6,27.4-28.8c5.2-6.4,6.8-14.8,9.9-22.3c4-9.5,5.2-19.6,5-29.8c-0.1-3.6,1.1-4.8,4.5-4.7
		s9.3,0,14-0.1c2.8,0,4.4,1.2,4.4,4.1c0.1,4.5-0.1,9-0.8,13.4c-2.5,14.2-6.4,28-12.8,40.8c-14.1,27.6-37.9,49.1-66.8,60.4
		c-5.6,2.2-12.1,3.2-17.3,5.8C699.1,476.1,689.6,475.1,679.6,476.5z"/>
	<path id="X0014AAM2Gra8OT24_6_" class="st0" d="M166.1,484.9c-15.6-1.8-33.3-0.8-50.1-8.1c-24.4-10.5-44.7-25.4-59.7-47.7
		c-4-5.9-8.8-11.7-11.1-18.2c-3.7-10.8-8.8-21.3-10-32.8c-1-9.2-0.8-8.6,8.6-9.6c5.3-0.6,6.7,0.8,8.4,5.7c2.7,7.8,4,16.1,7.4,23.8
		c11,25,27.7,44.1,52.2,56.8c20.4,10.6,42.1,15.4,64.2,11s42.2-12,58.7-28.8c12.1-12.3,20.3-26.5,27.4-41.7
		c2.5-5.5,3.4-11.8,4.6-17.8c0.8-4.1,2.7-5.9,6.8-5.5l3,0.2c9.9,0.1,10.5,1.4,8.4,10.9c-3.9,16.9-10.8,32.2-20.1,46.9
		c-9.3,14.7-23.9,26.6-39,36.8c-10.2,7-21.7,10.7-33,14.8C184.8,484.6,176.3,484.5,166.1,484.9z"/>
	<path id="XE79CFFM2Gra2OT16" class="st0" d="M319,111.9c-14.2-1.2-29.2,2.1-44.2,5c-18.7,3.6-37.4,4-56-0.1
		c-5.6-1.2-10.3-5.5-13.9-9.9c-4-5-6.8-10.8-8.3-17c-1.4-5.4,1-9,6.1-11.2c14.6-6.4,29.7-5.1,44.7-3c24.2,3.3,48.6,5.4,72.9,8.4
		c7.2,0.9,14.7-0.4,21.3,4c3.4,2.3,6.6,4.6,7.4,8.9c1.6,8.1-4.6,14.9-13.6,14.9C335.4,111.9,319,111.9,319,111.9z"/>
	<path id="X3FD6FFM2Gra3OT21_3_" class="st0" d="M162.9,204c15.9-2.1,33.1,4.8,51,7.7c1.1,0.3,2.2,0.8,3.2,1.4
		c8.1,4.1,7.3,3.5,2.1,10.4s-8.3,5.5-14.6,3.7c-26.6-7.3-53.7-8.3-80.5-1.4c-18.5,4.6-35.9,12.8-51.2,24.1
		c-13.3,9.9-23.2,22.7-30.2,38c-4,8.6-8.5,17-11.8,25.8s-4.8,19.4-8.5,28.7c-3.7,9.3-5.4,18.1-16.2,21c-1.7,0.5-3.5,2-5,0.3
		s-1.5-4.3-0.1-6.1c5.3-7.4,6.6-16.1,8.7-24.6c4.3-17.4,9.2-34.4,18-50.4c10.2-18.4,24-33.3,39.7-46.8
		c19.2-16.6,42.4-23.9,66.5-29.3C142.6,204.5,151.3,203.7,162.9,204z"/>
	<path id="X0014AAM2Gra8OT24_5_" class="st0" d="M672,217c27.5-0.3,54.5,7.9,77.3,23.4c18.5,12.1,33.2,29.1,42.6,49.1
		c4.4,9.4,8.6,19.1,11.1,29.4c1.3,5.3,0.4,10.9,1.8,16.3c0.6,2.4-1.6,4-4.1,4.1c-4.3,0.2-8.6,0.2-12.9,0.8s-5.1-2.1-5.7-5.6
		c-4.3-26-12.3-50.5-34-67.3s-45.1-30.8-74.6-28.3c-7.1,0.6-14.3-0.3-21.4,1c-3.3,0.6-5.2-1.1-5.3-4.4c-0.2-3.3-0.9-6.6-2-9.7
		c-1.6-4.9-0.3-6.9,4.9-7.5C657.9,217.5,666,216.4,672,217z"/>
	<path id="X0014AAM2Gra8OT24_4_" class="st0" d="M31.6,354.6c1.6-12.5,2.9-25.1,7.7-37c3.6-9.1,7.9-17.9,12.8-26.3
		c2.9-4.8,7.6-8.2,10.8-13c7.6-11.7,19.6-18.3,30.5-26.5c10.9-8.2,21.9-10,33.2-14.1c18.5-6.6,37.5-6.9,56.7-4.6
		c1.7,0,3.3,0.6,4.7,1.6c2.7,2.3,5.4,3.3,9.1,2.5s5.3,2.7,3.4,6.1c-1.9,3.4-5.2,7.3-7.8,10.9c-0.8,1.1-2.4,1.5-3.6,0.8
		c-15.7-5.8-31.9-4.2-47.9-2.2c-13.6,1.8-26.3,6.9-38.5,12.9c-3.3,1.6-5.9,4.8-8.8,7.2c-24.1,19.8-37,45.8-42.6,75.8
		c-0.3,1.7-0.5,3.3-0.5,5c-0.2,5.7-1.9,7.6-7.5,7.3c-3-0.3-5.9-0.9-8.8-1.7C32.1,358.6,31.5,356.7,31.6,354.6z"/>
	<path id="X2382D6M2Gra4OT14_1_" class="st0" d="M343.8,274.6c-8.1-0.1-9.6-0.7-9.3-10.2c0.1-2.5,1.1-3.6,3.6-3.6
		c13.2,0.1,25.8-2.9,38-7.4c7.7-2.8,14.8-7.5,22.3-10.9c14.5-6.5,25.8-17.2,37.8-27.2c8.7-7.3,18.5-13.4,26.7-21.4
		c13.4-13.2,28.1-24.9,42.5-37c7.6-6.5,16-11.9,25-16.1c6.5-3,12.6-6.8,19.2-9.5c8.6-3.4,12.8-0.5,12.4,8.8
		c-0.1,2.5-1.1,3.7-3.6,5.1c-17.6,9.6-35.9,18-51.3,31.3c-20.8,17.9-42.1,35-63.4,52.3c-11.3,9.3-23.5,17.3-36.5,24.1
		c-9.5,4.9-19.3,9.3-29.3,13.5c-9.6,4.1-19.7,6.8-30.1,8.1C346.5,274.6,345.1,274.6,343.8,274.6z"/>
	<path id="X2382D6M2Gra4OT14" class="st0" d="M567.5,158c5.4,0.1,5,5,6.7,8.1s-0.6,3.7-2.6,4.8c-12.9,7.1-24.7,16-35.1,26.4
		c-6.9,6.9-13.5,14.1-18.3,22.7c-1.8,2.8-3.8,5.5-6,8c-6.4,7.9-10.5,17.4-16.4,25.4c-7.3,10-10.3,21.7-16.4,32s-12.4,23.1-20.8,33.2
		c-6.1,7.6-13.1,14.6-20.7,20.7c-2.3,1.8-5,4.2-7.8,1c-4.5-5.2-4.6-8.4-1.7-12.2c4.9-6.3,12-10.7,16-17.7c5.4-9.4,13-17.2,18.3-26.6
		c4.1-7.2,7.8-14.5,11.9-21.7c2.9-5.1,6-9.9,9-14.9c6.2-10.4,11.1-21.5,18-31.5c8.2-12,18.4-22.2,28.5-32.5
		c5.6-5.7,11.6-11,18.1-15.6C554,163.5,560.1,159.1,567.5,158z"/>
	<path id="X0014AAM2Gra3OT24_2_" class="st0" d="M244.4,365.5h-50.8c-7,0-7.9-1-7.2-7.8c0.2-2,0.4-4-0.8-5.8c-2.5-3.9-1-5.1,3.1-5.5
		c15.6-1.3,31.2-2.3,46.8-3.6c24.7-2.1,49.4-2.1,74.2-1.8c2.9,0,4.4,1.1,4.5,4c0,4.8,0,9.6,0,14.5s-2.1,5-5.7,5.3
		C287,366,265.7,365.4,244.4,365.5z"/>
	<path id="X2382D6M2Gra8OT13" class="st0" d="M277.6,194c1.2,11.2-4.2,19-12.1,25.2c-8.4,6.5-16.4,13.5-24,20.9
		c-10.1,9.8-19.6,20.2-29.2,30.6c-9.6,10.4-17.5,22.2-23.3,35.1c-3.7,8-6.7,16.3-8.9,24.8c-1.2,5-3.4,7.1-7.2,6.4
		c-5.9-1-7.3-3.2-6.3-8.9c1.9-10.8,7.3-20.3,11.8-30s8.5-17.2,12.7-25.9c5.3-10.9,13.7-19.5,21.2-28.8c13.4-16.6,30.9-28.6,47.1-42
		c4.7-3.9,10.5-7.1,12.4-13.7c0.4-1.5,1.5-3.8,3.8-3.1s1.8,2.7,1.9,4.3C277.6,190.5,277.6,192.6,277.6,194z"/>
	<path id="X3FD6FFM2Gra3OT21_2_" class="st0" d="M600.3,223.8c-0.3,3.4-0.8,6.1-3,7.1c-8.8,3.9-14,11.7-19.9,18.5
		c-12.2,14-23.3,29.1-31.1,46c-4.1,8.8-7.9,17.6-9.6,27.5c-1.7,9.9-2.5,19.2-6.5,28c-2.3,5.1-4.8,10.4-11.4,11.4
		c-1.7,0.3-3.4,0.6-4.6-1c-1.2-1.6,0.3-2.7,0.9-4.1c2.9-7,3.5-14.4,4.3-21.8c2.5-22.3,6.7-44,18.2-63.8c7.5-13,15.6-25.8,25.9-36.5
		c8.4-8.8,18.6-16.1,29.1-22.6c1.7-1,3.1-0.6,3.7,0.9C598,217.2,599.3,220.9,600.3,223.8z"/>
	<path id="X2382D6M2Gra1OT14_7_" class="st0" d="M294.8,180.3c6.8-0.2,6.4-0.1,8,6.9c3.7,15.5,6.9,31.1,11.8,46.4
		s8.6,32.1,12.4,48.3c1.5,6.4,4.7,12.3,4.8,19.2c0.1,4.3-0.4,7.9-4.1,10.6c-0.5,0.4-0.9,1-1.4,1.4s-2,5.4-5.4,4.1s-3.1-4.4-3.9-7.1
		c-4-14.4-8.2-28.7-12.3-43.1c-1.4-4.8-2.6-9.6-3.8-14.4c-5.2-19.9-11-39.7-15.3-59.9C283.2,181.6,283.7,180.6,294.8,180.3z"/>
	<path id="X7FF9FFM2Gra1OT7_2_" class="st0" d="M633.7,150.2c-2.9,0.2-4.7-0.1-5.8-1.4c-3.5-3.9-5.7-8.9-9.5-12.7
		c-1.6-1.5-0.5-3.8,2-4.5c16-4.5,31.4-10.7,47.5-14.9c6.4-1.7,12.7-3.9,19-5.9c7.8-2.4,15.8-3.7,23.9-3.8c3.5,0,6.9-0.7,10.2-1.9
		c3.5-1.4,5,0.2,4,3.5c-2.3,7.5-5.5,14.6-9.7,21.2c-1.2,1.9-3.3,2-5.3,2.4c-9.5,1.9-18.9,4.2-28.4,5.5s-16.3,4.8-24.6,6.3
		S640.9,148.8,633.7,150.2z"/>
	<path id="X0014AAM2Gra8OT24_3_" class="st0" d="M555.4,351.9c-1.5,0-3,0.1-4.5,0c-6.6-0.6-6.6-0.9-5.5-7.6
		c0.8-4.6,0.8-9.3,1.3-13.9c1.7-15.1,7.4-28.7,14-42.3c7.7-15.9,19.7-28.2,31-41.2c1.5-1.6,3.2-2.9,5-4.1c2.3-1.6,4.8-1.8,6.7,0.7
		c2.2,2.9,4.9,5.4,8.1,7.3c3.2,1.9,3,4.4-0.3,6.5c-14.3,9-23.9,21.9-31.9,36.7c-8,14.8-11.8,32.2-14.3,49.3
		C563.8,351.3,564.1,351.4,555.4,351.9z"/>
	<path id="X2382D6M2Gra1OT14_6_" class="st0" d="M631.4,257.4c2.6,0.9,4.9,0.6,7.4-2.2s4.4-0.4,5.1,2.2c1.6,6.3,3.6,12.5,4.3,18.9
		c1.7,17.1,8,32.7,14.4,48.3c1.9,4.7,4.8,9.5,12.2,8.5s12.5,6,13.2,13.6c0.5,5.4-3.9,11-10,12.5s-13.3-0.1-15.8-6.6
		s-6.8-10.5-10.5-15.5c-6.9-9.4-13.8-19.1-16.6-30.3c-2.8-11.2-6.6-21.9-8.4-33.3c-0.4-2.5-1.1-4.9-1.9-7.2
		C622.3,259.3,623.4,257.6,631.4,257.4z"/>
	<path id="X3FD6FFM2Gra3OT21_1_" class="st0" d="M670.4,190c18.6,0.9,35.4,4,52.1,8.2c11.5,2.9,22.9,7.2,35.1,6.6
		c3.8-0.2,4.4,1.7,2.8,5.2c-4.6,9.7-13.2,8.9-21.5,8c-14-1.6-27.6-5.3-41.3-8.2c-17.7-3.8-35.3-3.2-53,0.3
		c-7.7,1.5-8.6,1.3-11.8-5.8s-3.6-7.8,5.6-9c6.1-0.8,12-2.3,18.1-3.3S666.7,190.4,670.4,190z"/>
	<path id="X2382D6M2Gra7OT13" class="st0" d="M551.7,72.6c0.3-15.3,6.6-22.4,13.8-28.9c2.8-2.6,5.2-5.7,6.9-9.1
		c2.2-4.5-2.3-10.1-8.4-10c-8.1,0-15.8-2.3-23.6-3.7c-5.6-1-7-3.4-6.4-8.2c0.3-2.7,1.7-4,4.3-3.8c13.9,0.8,27.9,0.8,41.5,4.7
		c7,2,11.3,6.8,13.7,13.4c1.4,3.8-0.9,9.2-4.7,10.9c-13.2,5.9-22.9,22.6-16.7,38.3c1.4,3.6,2.3,7.3,3.5,10.9
		c0.5,1.5,0.8,3.1-0.5,4.2c-4.1,3.5-9.1,5.3-14.3,6.4c-1.3,0.3-2.6-0.9-2.9-2.3C555.8,86.2,551.9,77.4,551.7,72.6z"/>
	<path id="X7FF9FFM2Gra1OT7_1_" class="st0" d="M623.3,95.9c5,0.9,10.1-0.2,14.3-2.9c5.2-3.1,11.4-3.4,17.3-3.8
		c7.5-0.4,14.9-0.2,21.9-3.8c3.4-1.7,5.6,1.1,6.5,3.6c1.3,3.8,2.9,7.4,4.8,10.9c1.7,2.9,0.3,4.4-2.8,5.3
		c-15.3,4.3-30.6,8.8-45.6,14.2c-6.3,2.2-12.5,5.3-19.5,5.5c-1.1,0.1-2.2,0.5-3.2,1.1c-2.4,1.3-3.8,0.3-4.7-1.9
		c-2.9-6.4-4-13.4-7.2-19.6c-0.8-1.6-0.2-3.9,1.6-4.1C613,99.6,618,93.8,623.3,95.9z"/>
	<path id="X0014AAM2Gra8OT24_2_" class="st0" d="M268.5,334.4c-3.1,0.3-4.9-1.2-5.8-4.2c-4.7-15-13.1-28.1-20.7-41.7
		c-3.4-6.1-8.5-10.5-13.4-15.3c-0.5-0.5-1.3-0.7-1.6-1.2c-3.3-6.2,2.9-8.8,5.2-12.7c2.3-3.9,4.5-4.6,7.6-2.2
		c7.6,6,14.9,12.3,20.3,20.6c4.2,6.4,8,13,12.1,19.4c6,9.5,8.9,20,11.3,30.7c0.8,3.8-0.7,5.7-4.6,5.8
		C275,333.7,272,334.2,268.5,334.4z"/>
	<path id="X0014AAM2Gra8OT24_1_" class="st0" d="M371.1,402.4c-19.2-0.9-34.2-9.8-43.7-26.1c-6.5-11.3-7.9-24.5-5.5-37.6
		c0.7-3.6,3.2-7.1,5.3-10c6.7-9.1,13.9-17.3,25.5-21.6c9.8-3.7,19.4-3.6,29.3-3.5c4.7,0.1,5.2,1.8,3.2,6.1c-2,4.3-5,6.2-9.7,6.4
		c-7.3,0.3-14.6,1.4-21.6,3.4c-8.3,2.4-13.6,8.3-16.4,15.6c-2.8,7.3-5.4,16-5,24.8s3.7,14.3,9,19.9c7.2,7.6,16,11.9,26.2,13.8
		c3.1,0.5,6.4,0.1,9.3-1.1c2.9-1,4.8-0.4,5.9,2.6s0.4,4.6-2.6,5.9C377.4,402.3,374.2,402.8,371.1,402.4z"/>
	<path id="X3FD6FFM2Gra3OT21" class="st0" d="M301.3,333.8c-3.8,0-6.9-0.6-7.6-5c-2.3-13.7-9.5-25.2-16.2-37.1
		c-6.2-11-13.7-21.1-22.3-30.3c-3.4-3.7-6.6-7.8-11.2-10.5c-2.2-1.3-2.4-3.1,0.2-4.5c1.5-0.8,2.9-1.6,4.2-2.6
		c8-6.5,8.2-6.8,15.7,0.5c8.5,8.6,16.1,18.1,22.5,28.4c7.1,11.2,11.6,23.4,16.5,35.6c2.8,7,2.5,14.4,3.8,21.5
		C307.8,334.2,303.8,333.5,301.3,333.8z"/>
	<path id="X2382D6M2Gra1OT14_5_" class="st0" d="M625.9,250.9c-5.6,1.2-9.3-3.1-12.6-7.2c-3.1-3.7-5.2-8.2-6.1-13
		c-1.7-11.3-5.2-22.3-5.2-33.8c0-5.9,0.3-7.1,5.5-10.5s6.4-2.7,7.6,2.4c1.2,5.1,6.3,8.9,8.6,13.8c4,8.6,10.3,15.7,14.4,24.3
		c2.2,4.7,2.3,9.7,2.9,14.5c0.4,3.1-7,9.1-10.9,9.4L625.9,250.9z"/>
	<path id="XBD54E0M2Gra8OT1" class="st0" d="M241.9,170.5c-5.4-0.6-9.6,2.5-14,4.7l-21.3,10.6c-2.1,1.1-4.7,1.7-6.6-0.1
		s0.2-3.7,1.1-5.3c7.3-12.3,7-24.5-0.6-36.6c-0.7-1.2-1.7-2.2-0.7-3.6s3-1.5,4.5-0.8c10.4,5,20.5,10.6,27.3,20.3
		c3,4.2,6.6,5.1,11.2,4.6c8.7-0.8,16.5,1.2,22.2,8.3s1.3,16.9-6.1,19c-1.3,0.4-2.8,0-3.7-1c-1.5-1.4-2.2-3.3-1.2-5
		c2-3.4,3.8-6.4,0.7-10.4S246.7,170.8,241.9,170.5z"/>
	<path id="X1100AAM2Gra3OT6" class="st0" d="M732.6,151.2c0.2,7.8-6.7,17.1-14.1,19.8c-12.4,4.5-25.3,6-38.3,7.5s-24.8,2.4-37.1,4.5
		c-4.6,0.7-9.1,2.2-13.1,4.6c-2,1.3-4.5,3.7-6.3,0.4c-1.4-2.7-0.4-6,2.3-7.4c0.1-0.1,0.2-0.1,0.4-0.2c9.1-3,17.2-8.3,27.4-8.6
		c18.8-0.4,37.5-3.7,55.3-9.8c6-2.1,10-6.7,14.3-10.9c0.3-0.4,0.4-0.9,0.4-1.4c-0.1-2.5-0.9-5.6,3-5.5s4.7,3.3,5.7,6.1
		C732.6,150.6,732.6,150.9,732.6,151.2z"/>
	<path id="X1100AAM2Gra1OT6_1_" class="st0" d="M487.9,2.3c7.2,0.9,14.3-1.2,20.8,3c2.1,1.3,4.6,0.1,6.2-1.9c1.5-2,3.9-3.2,6.4-3.3
		c3.3-0.2,5.3,1,5.7,4.6c0.8,6.7-1,13.2-1.5,19.8c-0.2,2.4-1.9,3.8-4.3,4.2c-2,0.5-4.1-0.7-4.7-2.7c-1-2.6-2.9-3.4-5.5-3.3
		c-10.9,0.6-21.5-1.7-32.2-2.7s-12.8-7-7.7-15.6c1.1-1.9,2.9-2.1,4.7-2.1C475.8,2.3,487.9,2.3,487.9,2.3z"/>
	<path id="X7FF9FFM2Gra1OT7" class="st0" d="M652.2,166.1c-3.7,1.1-8.5-4.1-13.8-7.1c-2.7-1.5-0.6-3.3,1.5-4.1s6.5-2.7,9.9-3.4
		c14.4-3.1,28.3-8.1,43.1-9.7c5.2-0.6,10.3-2.3,15.7-2.2c1.9,0,3.8-0.1,4.8,1.8s-0.5,3.1-1.4,4.5c-3.5,5.7-7.9,10-14.8,11.6
		C683.5,160.7,669.8,163.9,652.2,166.1z"/>
	<path id="X0031BFM2Gra1OT25" class="st0" d="M426.7,415.2c5.1,0,14.4,6.7,15.7,11.1s-2.4,7.5-5,10c-5.2,5-11.7,8.2-18.6,10.5
		c-8.3,2.8-19.8-6.4-18.9-14.9c0.2-2.1,0.8-4.2,2.8-4.9c7-2.7,12.8-7.7,19.7-10.5C423.8,416,425.2,415.5,426.7,415.2z"/>
	<path id="X0014AAM2Gra3OT24_1_" class="st0" d="M412.8,413.7c0.2,2.3-1.4,4.3-3.7,4.6c-2.4,0.6-4.5,1-6-1.8
		c-4.8-8.7-9.4-17.5-14.5-26s-10.5-16.4-15.7-24.5c-1.4-2.1-2.8-4.1-4.1-6.3c-2.1-3.7-0.2-6.3,2.6-8.6c2.8-2.3,5.3-1.1,7.6,0.9
		c4,3.6,6.2,8.6,9,13.1c8.8,14.1,14.2,30,23.1,44C411.9,410.4,412.9,411.9,412.8,413.7z"/>
	<path id="X0014AAM2Gra8OT24" class="st0" d="M420.2,356.5c-0.8,6.6-2.6,15.8-9.3,23.2c-1.7,1.9-3.3,3.6-5.8,1.5s-3.3-4.7-1.6-7.6
		c10-17.3,9.2-28.2-2-44c-3-3.9-6.2-7.6-9.7-11.1c-1.9-2-3.2-3.4-0.6-5.6s4-6.9,8.3-3.6c7.7,5.9,14.2,12.7,16.9,22.7
		C418.4,339.2,420.6,346.2,420.2,356.5z"/>
	<path id="X2382D6M2Gra1OT14_4_" class="st0" d="M603.1,155.2c-0.2,2-1.6,2.7-3,3.2c-3.3,1.1-6.4,2.7-9.2,4.9
		c-2.6,2.1-4.2,0.8-5.2-1.9c-4.2-10.6-8.5-21.2-14.5-31c-2.6-4.2-1.6-6.8,2.8-8.7c2.5-1,4.8-2.3,7-3.8c2.9-2.1,5.1-2.2,6.9,1.9
		c4.9,11.2,8.8,22.9,14.6,33.8C602.7,154.1,602.9,154.7,603.1,155.2z"/>
	<path id="X2382D6M2Gra1OT14_3_" class="st0" d="M297.9,149.4c8.1-0.1,11.9,3.2,12.6,10.2s-2,9.8-8.9,11.5s-11.5,1.4-17.3,2.1
		c-3.8,0.5-7.7-0.7-9.5-4.2s-1.6-8.7-0.5-13.2c0.3-0.7,1-1.3,1.8-1.5L297.9,149.4z"/>
	<path id="XFFCC33M2Gra1Co2" class="st0" d="M177.9,161.9c-0.2-3.7,1.3-7.9,2.6-12.2s4.6-6.3,8-6.3s6.1,2.4,7.9,6
		c4.5,9.4,4.6,18.7-0.8,27.5c-4.3,7.1-8.2,6.9-13.3,0.4C179,173,177.7,168.6,177.9,161.9z"/>
	<path id="X2382D6M2Gra6OT13_14_" class="st0" d="M166,385.3c-0.1-3.2,0.6-5,3.1-5.2s2.8,1.6,3.4,3.5c4.4,16.3,8.7,32.7,13.3,49
		c1.4,5.1,1.1,10.6,4.3,15.2c1.2,1.8-0.2,3.5-2.1,4.3c-1.9,0.8-3.9-0.2-4.6-2.4c-1.8-5.5-4.1-11-5.1-16.7c-1.9-10.8-6.2-21-7.6-32
		c-0.5-4.1-2.4-7.9-3.6-11.9C166.6,387.6,166.2,386,166,385.3z"/>
	<path id="X2382D6M2Gra6OT13_13_" class="st0" d="M150.6,376.1c2.8,0,3.8,3,2.1,6.7s-4.9,9.4-7.4,14.1
		c-5.8,10.8-11.6,21.6-17.2,32.4c-2,4-3.6,8.1-5.4,12.2c-0.9,2.2-2,4.3-4.3,5.2c-2.3,0.9-3.7,0.6-5-1.1s0.2-2.6,0.9-3.9
		c7.5-13.3,15.2-26.4,21.9-40.1c3.7-7.6,7.6-15.2,11.4-22.7C148.2,377.6,148.8,376.1,150.6,376.1z"/>
	<path id="X2382D6M2Gra6OT13_12_" class="st0" d="M78.6,310.5c0.9,0.2,1.7,0.5,2.5,0.8l33.9,16.6c8.9,4.4,17.3,9.9,26.9,12.7
		c2.8,0.8,3.1,3,2.3,5.1s-3.5,2.2-5.5,1.2c-7.7-3.9-15.2-8.2-22.9-12c-12.4-6-24.5-12.7-37.3-17.8c-1.9-0.8-3.8-1.7-3.5-4.2
		C75.3,310.4,76.6,310.7,78.6,310.5z"/>
	<path id="X2382D6M2Gra6OT13_11_" class="st0" d="M681.1,435.3c-3.6-16.7-2.8-33.8-5.4-50.5c-0.4-2.8-1.1-5.6-1.4-8.4
		s-0.1-5.1,2.9-5.4s3.5,2.2,3.6,4.5c0.8,18.1,4.5,36,6.1,54c0.2,1.5,0.5,3,1,4.4c0.7,2.3,1.1,4.6-0.8,6.5c-1.2,1.3-3.1,1.6-4.6,0.7
		C680.1,439.8,680.8,437.4,681.1,435.3z"/>
	<path id="X2382D6M2Gra6OT13_10_" class="st0" d="M243.9,405.1c-4.3-1.8-9.1-3.7-13.8-5.7l-45.3-20.3c-1.1-0.4-2.1-1-3-1.7
		c-1.3-1.2-2.2-2.7-1.3-4.4s2.9-2,4.8-1c6.3,3.1,12.5,6.2,18.8,9.1l38,17.2c1.4,0.6,2.7,1.3,3.9,2.2c1.1,0.8,2.2,1.7,1.5,3.3
		C246.8,405.4,245.6,404.7,243.9,405.1z"/>
	<path id="X0014AAM2Gra3OT24" class="st0" d="M373.7,297.2c-3.9-0.5-7.9-0.8-11.8-0.9c-3,0-5.5-2-6.7-5.2s-0.8-5.3,3.1-6.2
		c8.3-1.9,16.8-1.9,25.1-2.9c3.5-0.4,7.3,1.4,7.4,5.1s-1.2,6.8-5.5,7.8S378.8,297.4,373.7,297.2z"/>
	<path id="X2382D6M2Gra6OT13_9_" class="st0" d="M71.7,385.8c-1.9,0.2-3,0-3.3-1.4c-0.4-1.1,0-2.4,1-3.1c1.3-0.6,2.7-1.1,4.2-1.4
		c20.9-5.6,41.9-10.6,62.5-17.2c2.1-0.7,5-2,5.8,1.3s-1.4,4.4-4.2,5.1c-18,4.1-35.6,9.3-53.4,14.2C79.9,384.4,75.5,385,71.7,385.8z"
		/>
	<path id="X2382D6M2Gra6OT13_8_" class="st0" d="M617.8,356.9c-11-0.5-21.9,2.1-32.9,0.8c-1.7-0.2-3.5,0.8-5.3,1.2
		c-1.5,0.5-3.1,0-4-1.3c-1-1.4-0.6-2.9,0.1-4.3c0.7-1.4,1.9-1.6,3.4-1.5c21,1.2,41.9-0.2,62.7-3c2.1-0.3,4.3-0.7,6.4,0.3
		s3.6,1.6,3.3,3.9s-2.5,2.5-4.3,2.5L617.8,356.9z"/>
	<path id="X2382D6M2Gra6OT13_7_" class="st0" d="M132,268.1c-0.1-1.6,0.1-2.7,1.3-3.3c1.2-0.6,2.8-0.2,3.5,1c0.9,1.2,1.6,2.6,2,4
		c4.4,16.6,10,32.8,13.1,49.7c0.7,4,2.6,7.8,4,11.7c0.8,2.2,1.4,4.6-1.4,5.5c-2.8,0.9-3.9-1.4-4.4-3.6c-3.3-14.8-8.6-29-11.7-43.9
		c-1.3-6-3.5-11.7-5.3-17.6C132.8,270.3,132.3,269.1,132,268.1z"/>
	<path id="X1100AAM2Gra1OT6" class="st0" d="M516.9,33.7c6.3,4.1,11-0.2,15.6-4.5c1.4-1.5,3.4-2.2,5.4-1.8l17.7,2.9
		c1.4,0.2,3.4,0.2,3.6,2.1c0.2,1.9-1.9,2.4-3.4,3c-1.9,0.7-3.8,1.3-5.7,1.8c-3.2,0.7-5.2,2-6.2,5.5s-4.7,4.1-6.6,0.9
		c-1.9-3.2-3.4-3-6.5-2.4c-5.2,1.1-10.7,0.6-15.6-1.5c-1.8-0.8-3.1-2.3-2.5-4.3S514.7,33.6,516.9,33.7z"/>
	<path id="XFF3366M2Color4_5_" class="st0" d="M676.3,67.7c0.1-2.6,0.3-5.9,3.4-8.2c1.3-0.9,1.7-2.7,1-4.1c-1.6-4.2,0.8-6.9,3.8-8.8
		c2.5-1.6,4.8-3.4,7-5.4c3-2.8,5.1,0.7,7,2.4c1.1,0.8,1.3,2.3,0.5,3.4c-0.4,0.5-1,0.9-1.7,0.9c-6.9,1.3-6,7.4-7.6,11.9
		c-0.4,1.1,0.1,2.5-0.5,3.4c-3,4.3-4.5,8.1,0.8,11.9c1.2,0.9,0.9,2.8,0.1,4.2s-1.8,1.3-3.1,1.1C678.6,79.3,676.3,76.6,676.3,67.7z"
		/>
	<path id="X2382D6M2Gra6OT13_6_" class="st0" d="M736.3,347.7h-25.4c-3.5-0.2-7,0.3-10.3,1.4c-1.6,0.6-3.3,0.8-4.7-0.6
		c-0.9-0.9-1.1-2.2-0.6-3.3c0.9-2,2.8-1.2,4.4-1.5c20-2.6,40.2-1.3,60.2-2.8c2-0.3,3.9-0.8,5.8-1.4c2.6-0.7,5.4-1.1,6.1,2.2
		c0.7,3.3-2.1,4.6-5,4.6h-30.5V347.7z"/>
	<path id="X2382D6M2Gra6OT13_5_" class="st0" d="M690.3,333.1c-1.1,0.1-2.1-0.5-2.5-1.5c-0.9-1.5-0.5-2.7,0.5-4.1
		c6.5-7.9,12.7-16.1,19.4-23.9s14.4-17.7,21.2-26.9c1.4-1.9,3.1-3.7,5.2-1.8s0.8,4-0.7,5.8c-8.7,10.8-17.8,21.3-26,32.4
		c-3.9,5.3-8.9,9.7-12.1,15.5C694.1,330.6,692.4,332.1,690.3,333.1z"/>
	<path id="XFF3366M2Color4_4_" class="st0" d="M710.7,99.4c-0.8,0-1.8-0.3-2.5,0c-7.4,4.5-11.4-0.6-15.8-5.3c-2.9-3.1-2.4-6-0.4-9
		s4.9-3.4,7.9-1.7c1.6,1,3.5,1.1,5.2,0.5c1.2-0.4,2.6-0.6,3.3,0.4c2.4,3.1,5.5,3.7,9.3,3.4s3.7,1.7,2.9,4.4
		C719.3,96.8,715.7,99.5,710.7,99.4z"/>
	<path id="X2382D6M2Gra1OT14_2_" class="st0" d="M281.9,146.4c-2.9,0.3-3.9-1.6-4.4-3.8c-0.9-4.5-0.4-9.3-3-13.5
		c-0.7-1.2,0.2-2.5,1.2-3.5c3.8-3.8,8.6-4,13.5-3.6c2.5,0.2,3,3,3.2,5.1c0.3,3.8,1,7.5,2,11.2c1,3.1-0.4,5.5-3.8,6.3L281.9,146.4z"
		/>
	<path id="X2382D6M2Gra6OT13_4_" class="st0" d="M675.8,319c-0.2,1.8,0.6,4.7-2.8,4.5s-3.5-1.8-3.3-4.2c0.7-9-1.3-17.8-2.4-26.6
		c-1.5-11.5-3.7-22.9-5.6-34.4c-0.4-2.3-0.2-4.7,2.4-5.3s4,1.6,4.2,3.9C669.8,277.8,673.8,298.2,675.8,319z"/>
	<path id="X2382D6M2Gra6OT13_3_" class="st0" d="M691.8,361c2.5,1.7,5.3,3.3,7.9,5.4c16.4,13.2,33.4,25.6,50.5,37.9
		c1.3,0.9,2.7,1.8,1.8,3.6s-2.7,2-4.3,1.3c-1.5-0.6-2.9-1.5-4.2-2.6c-11.2-9.9-23.9-17.9-35.5-27.3l-16.4-13
		c-1.2-0.9-2.4-1.9-2.1-3.7S690.5,361.2,691.8,361z"/>
	<path id="X2382D6M2Gra6OT13_2_" class="st0" d="M173.9,357.2c-0.3,6.9-5.1,11.5-11.7,11.3c-5-0.2-10.5-6.2-10.1-11.2
		s6.1-10.8,10.1-10.7C169.6,346.8,174.1,350.9,173.9,357.2z"/>
	<path id="X2382D6M2Gra6OT13_1_" class="st0" d="M619.5,422.5c2-4.6,6-9.1,9.5-13.8c6.1-8,12.4-15.9,18.5-24
		c4.3-5.7,8.4-11.5,12.7-17.2c1-1.3,2-3.2,3.9-1.8s1.2,3.2-0.2,4.7c-9.5,10.7-16.7,23.1-25.2,34.4L623.3,425
		c-0.7,0.9-1.4,2.1-2.8,1.5S619.3,424.8,619.5,422.5z"/>
	<path id="X2382D6M2Gra1OT14_1_" class="st0" d="M558.8,111.3c-0.2-3.1,2.6-5.2,5.3-6.6c5.7-2.9,10.9-8,18.3-4.8
		c1.7,0.7,3.2,1.8,4.4,3.2c1.7,2.1,1.7,4.1-0.6,5.5c-6.9,4-14.2,7.2-21.7,9.7C562.1,119.1,558.7,115,558.8,111.3z"/>
	<path id="X2382D6M2Gra1OT14" class="st0" d="M603.6,164.6c5.7-0.7,8.4,1,9.5,4.6s-0.5,6.6-3.6,8.5s-5.4,3.5-8.4,4.2
		s-6.8,3.7-10.1,0.3c-6-6.2-6.2-6.4,0.7-11.8C595.6,167.2,600.6,165.8,603.6,164.6z"/>
	<path id="XBF0202M2Gra1Co4_2_" class="st0" d="M629.1,89.1c-6.4-0.2-8.9-2.4-8.8-6.9c0.1-2.1,0.5-3.9,2.9-4.6s2.2-0.7,2.6-1.4
		c3.3-6.5,8.9-3.1,13.5-2.9c3,0.2,4.1,3.7,4.8,6.4s-1.3,3.4-3,4.6C637.4,86.6,633.4,88.3,629.1,89.1z"/>
	<path id="XFF3366M2Color4_3_" class="st0" d="M726.5,56.1c-6.4-1.5-12.4-4.5-17.5-8.7c-1.5-1.2-2.5-2.9-0.8-4.7s2.8-3.8,5.4-2.3
		s7.2,2.5,10.3-1.7c1.5-2.1,3.3,0,3.7,1.4c1.1,3.9,1.8,7.8,3.7,11.6S730.6,56.5,726.5,56.1z"/>
	<path id="X2382D6M2Gra6OT13" class="st0" d="M633.7,321.6c-1,3-3.6,3-5.5,1.4c-6-4.9-13.1-8-19.2-12.4c-6.1-4.4-10.3-6.1-15-9.9
		c-1.2-0.9-2.3-1.9-3.3-3c-1-1.2-1-3,0-4.2c1.4-1.5,2.7-0.4,4,0.5l24.8,17.7c3.3,2.4,7.5,3.1,10.9,5.6
		C632,318.4,633.4,319.4,633.7,321.6z"/>
	<path id="XFF3366M2Color4_2_" class="st0" d="M733.5,87.8c-2.6-0.5-3-1.9-1.7-3.6c4.9-6.8,6.8-13.9,3.4-22
		c-1.4-3.4,1.3-4.2,3.9-3.6s5.8,4.4,6.3,8.1c0.2,2.8,0.8,5.6,1.8,8.2c1,2.2,0.8,4.7-1.7,5.5c-3.6,1.3-6.9,3.4-9.5,6.2
		C735.2,87.1,734.4,87.5,733.5,87.8z"/>
	<path id="X3FD6FFM2Gra7OT21_4_" class="st0" d="M658.5,83.9c-4.1-0.6-8.3-2.1-9.5-7.3c-0.6-2.5-4.3-4.6-2-7s5.2,0.6,7.6,1.5
		c3.1,1.1,6.5,1.3,9.8,0.7c3.1-0.4,5.8,0.3,6.8,3.5S669.4,80,667,81S662.1,83.9,658.5,83.9z"/>
	<path id="X0014AAM2Gra1OT23_4_" class="st0" d="M391.1,330.1c-2.4,3.7-2.1,8.7-2.9,13.3c-0.4,2-1.8,2.5-3.7,2.3
		c-4.1-0.4-6.9-3-9.4-5.9c-1.1-1.2-1-3,0.2-4.1c0.1-0.1,0.3-0.2,0.4-0.3c3.1-2.2,4.7-5.5,6.6-8.6s2-4.2,4.8-3.2
		S390.9,326.8,391.1,330.1z"/>
	<path id="X0014AAM2Gra1OT23_3_" class="st0" d="M355.5,365.9c-2.7-0.4-5.2,0.4-7.8,1.1s-6.4,0.8-7.8-3.1c-0.7-1.7-0.4-3.8,0.8-5.2
		c1.3-1.5,2.7-0.8,4.1-0.2c4.1,1.6,6.1-1.5,8.4-3.7s4.3-3.1,6.2,1.3c0.2,0.6,0.4,1.2,0.7,1.8c1.3,2,4,3.9,2.3,6.5
		C360.7,367,357.9,365.9,355.5,365.9z"/>
	<path id="XBF0202M2Gra1Co4_1_" class="st0" d="M615.6,87.7c0.1,2.6-5.7,6.8-9.6,6.1c-6.2-1.1-2.5-8-5.8-11.3
		c-1.2-1.2,7-6.2,11.1-6.2C615.4,76.3,615.4,79.5,615.6,87.7z"/>
	<path id="X3FD6FFM2Gra7OT21_3_" class="st0" d="M697.5,20.7c0-2,0.1-3.5,1.9-4.1c1.4-0.6,3.1-0.1,4,1.1c2.6,3,4.7,6.4,6,10.2
		c1.1,3.8-1.7,8.7-5.4,9.5s-4-1.7-4.8-3.9c-0.1-0.3-0.1-0.7-0.1-1C699.1,28.5,698.6,24.5,697.5,20.7z"/>
	<path id="X3FD6FFM2Gra7OT21_2_" class="st0" d="M677.7,42c-1.6,2.1,0.1,7.1-4.2,7.1s-5.4-3.9-5.3-8c0.1-3.6-0.6-7.3-2.1-10.6
		c-0.5-1-1-2.2,0.1-3.2c1.1-0.8,2.6-0.9,3.7-0.1C673,28.8,678.1,38.3,677.7,42z"/>
	<path id="X0014AAM2Gra1OT23_2_" class="st0" d="M353.5,327.2c1.5-0.1,3,0.5,4,1.7c2.6,3.3,5.5,6.2,8.8,8.8c2.1,1.6,2,3.5-0.2,5.4
		c-6,5.2-7,5-9.8-2.3c-1.2-3.1-2-6.4-5.3-8.1c-1.3-0.7-1.6-2.1-1-3.5C350.6,327.8,351.9,327.2,353.5,327.2z"/>
	<path id="XFF3366M2Color4_1_" class="st0" d="M694.3,68.1c0.8-5.4,1-11.5,6.5-15.4c1.3-1,2.6-2.5,4.2-0.8c1.2,1.1,1.2,3,0.1,4.2
		c-0.1,0.1-0.2,0.2-0.3,0.3c-3.8,3-2.8,7.5-4,11.4c-0.7,2.1,0.6,3.7,2.4,4.9s2.9,2.7,1.3,4.5s-3.1,0.3-4.4-0.7S694,72.9,694.3,68.1z
		"/>
	<path id="X3FD6FFM2Gra7OT21_1_" class="st0" d="M665.9,66.9c-3.6,0-6.4-0.9-7.5-5s-2.6-6.4-3.9-9.7c-0.6-1.4,0-3,1.3-3.6
		c0.1,0,0.2-0.1,0.3-0.1c1.8-0.7,3.5-0.6,4.2,1.4c1.4,4.5,5,6.8,8.4,9.5c1.5,1.2,2.4,2.9,1.5,4.8C669.5,66,667.8,67.1,665.9,66.9z"
		/>
	<path id="XFF3366M2Color4" class="st0" d="M731,68.5c-0.1,6.4-6.6,13.9-12.2,14.9c-1,0.2-2-0.4-2.4-1.3c-0.7-1-0.6-2.3,0.2-3.2
		c1.4-1.6,2.6-3.8,4.4-4.6c4.6-2.2,4.1-5.8,3.5-9.7c-0.2-1.3-1.5-3.1,0.7-3.8s2.7,0.9,3.6,2.1C730.1,64.5,730.9,66.4,731,68.5z"/>
	<path id="XBF0202M2Gra1Co4" class="st0" d="M627.3,63c-0.3,4-2.4,6.3-5,8.2c-1,0.9-2.5,0.8-3.4-0.2c-0.2-0.2-0.3-0.4-0.4-0.7
		c-1.1-1.9-2.4-3.9-1.6-6.1c1-3.2,1.5-6.5,1.4-9.8c-0.2-1.2,0.5-2.4,1.6-2.9c1.4-0.4,2.8,0.2,3.5,1.4C625.3,56,626.6,59.4,627.3,63z
		"/>
	<path id="XF37FFFM2Gra2OT20" class="st0" d="M718.4,64.9c0.1,3.7-3.1,8.3-6,8s-5.1-3.4-5.5-6.7s3.9-8.2,5.9-8.2
		S718.3,61.1,718.4,64.9z"/>
	<path id="X05D166M2Gra8OT18" class="st0" d="M650.4,41.5c0.3,0.2,0.9,0.6,1.1,1.1s1.5,3.9,0,5.2c-4.3,3.8-2.5,7.3,0,10.9
		c1.2,1.7,1.4,3.5-0.3,4.9s-2.8-0.4-3.7-1.3c-1.7-1.8-3.2-3.8-4.6-5.9C641.8,54.6,648,41.7,650.4,41.5z"/>
	<path id="X0014AAM2Gra1OT23_1_" class="st0" d="M402.4,359.6c-0.1,1.1-0.3,2.3-0.6,3.4c-0.5,1.7-0.8,3.8-3,4.1s-3.3-1.3-4.4-2.8
		s-2.9-4-4.2-6.1c-1-1.3-1-3-0.2-4.3c1.2-1.6,2.6-0.5,4,0c1.8,0.8,3.7,1.4,5.7,1.8C402,356,402.5,357.2,402.4,359.6z"/>
	<path id="X0014AAM2Gra1OT23" class="st0" d="M369.2,385.7c-4.5,0-6.1-2-5-6.6c0.4-1.8,0.7-3.6,1-5.3s0-2.5,1.5-2.7s2.1,1.1,2.5,2
		c1.4,3,2.6,6.1,3.5,9.2C373.4,384.9,371.5,385.8,369.2,385.7z"/>
	<path id="X3FD6FFM2Gra7OT21" class="st0" d="M745.4,45.2c2.4,1,7.3-1.2,6.9,3.6s-5,3.1-8,3.3c-0.8,0-1.6-0.2-2.4-0.4
		c-1.9-0.4-3.6-1.2-3.6-3.4s2-2.7,3.9-2.9L745.4,45.2z"/>
</g>
</svg>
