<?xml version="1.0" encoding="utf-8"?>
<!-- Generator: Adobe Illustrator 21.0.0, SVG Export Plug-In . SVG Version: 6.00 Build 0)  -->
<svg version="1.1" id="图层_1" xmlns="http://www.w3.org/2000/svg" xmlns:xlink="http://www.w3.org/1999/xlink" x="0px" y="0px"
	 viewBox="0 0 812.2 475.6" style="enable-background:new 0 0 812.2 475.6;" xml:space="preserve">
<style type="text/css">
	.st0{fill:#FFFFFF;stroke:#000000;stroke-miterlimit:10;}
</style>
<title>Anime10_13_221</title>
<g>
	<path id="X0014AAM2Gra3OT23" class="st0" d="M209.2,253.6c-2.2-2.2-3.2-4.8-4.2-7.4c-5.5-12.5-13.7-22.8-25.6-29.8
		c-17.5-10.3-38.5-5.9-53.6,9.4s-20,33.7-23.9,53.3c-0.7,3.5,1,4.9,4.3,5.1c4.2,0.1,8.4,0.5,12.5,1.2c5.1,1,7.9-0.8,9.4-5.6
		c1.9-5.7,5.5-10.8,10.3-14.5c9.1-7.4,18-6.7,27.2,3.1c4.5,4.8,7,10.9,8.7,17.2c0.7,2.4,1.9,3.6,4.5,3.8c14.6,0.7,29.3,1.3,43.9,2.3
		c20.1,1.3,37.4-5.2,53.2-17.5c13.8-10.8,28.3-20.7,43.3-29.6c7.9-4.7,16-9,24-13.3c1.7-0.9,3.3-2.3,5.9-2.1
		c-0.6,2.7-2.8,3.6-4.6,4.9c-23.5,17-44.8,36.2-62.1,59.7c-3.7,5.1-7.2,10.4-8.3,16.9c-0.7,4.3,0.3,7.9,3.7,10.7
		c3.8,3.2,8.2,5.7,13,7.1c14,4.2,28.3,6.2,42.8,7.1c18.8,1.1,37.7,1.3,56.5,0.4c21.7-0.9,40.7-9.3,58.4-21.2
		c11.8-7.9,22.4-17.4,31.5-28.3c0.8-1,1.5-2.3,3.8-2.2c-1.4,4.5-4.5,7.8-7.1,11.1c-9.7,12.3-19.8,24.2-31.5,34.8
		s-23.9,15.8-39.1,18.1c-28.2,4.5-56.5,3.3-84.8,2.5c-13.8-0.4-27.4-3-40.9-6.5c-19.5-5.1-39.4-8.2-59.3-11.2
		c-15.3-2.3-30.7-3.8-46.1-5.4c-3.7-0.4-5.8,0.5-8,3.4s-5.8,6.9-10.2,8.6c-8.9,3.6-18.6,0.3-24.3-9.3c-3.2-5.3-7.1-7.3-12.9-7.4
		s-8.6-0.8-12.9-1.2c-2.3-0.2-4.3,0.1-3.5,3.1c4.8,19.5,12.2,37.8,28.7,50.2c18.5,13.9,31.6,13.5,48.4,1.3
		c6.9-5,13.3-10.6,19.1-16.8c10.9-11.6,24.8-13.3,39.6-10.8l1.4,0.4c20.4,5,19.8,13.3,9.8,27c-18.1,24.9-42.6,39-73.9,38.8
		c-19.7-0.1-36.2-8.7-51.1-21.1c-20-16.6-31.3-38.6-37.7-63.5c-0.5-1.8-0.8-3.6-1.3-5.4c-0.9-3.6-2.9-5.3-7-5.7
		c-19.9-1.7-39.9-3-59.2-8.6c-9-2.6-19.5-15.6-20-24.9c-0.2-5,2.7-8.2,8.4-8.3c13.2-0.2,26.3,0.4,39.4,2c9.9,1.2,19.9,1.7,29.9,2.6
		c2.8,0.3,4.2-1.1,4.4-3.6c0.8-10.7,4.2-20.9,8.1-30.7c2.7-6.9,6.2-13.5,10.4-19.6c5.7-8,11.6-15.5,19.6-21.4
		c15.8-11.6,33-13.6,51.1-6.9c23.1,8.5,33.5,27,38.6,49.6c0.2,0.8,0.2,1.7,0.1,2.5C210,252.4,209.6,252.8,209.2,253.6z M46.1,284
		c1,2,2.7,1.8,4,1.9l51.6,6.2l90.3,10.6c7.5,0.9,14.9,2.1,22.4,0.3c2-0.5,4.9-0.6,4.9-3.3s-3-2.6-5.1-2.8c-22.5-2-45.1-4.2-67.6-5.9
		c-25.9-1.9-51.8-4.3-77.6-6.8C61.4,283.3,53.8,284,46.1,284z"/>
	<path id="XEC2AFFM2Gra4OT31_1_" class="st0" d="M257.5,159c0.9-1.4,2.1-1.2,3.3-1.2c36.8,0.2,70.3-11.3,102.1-28.7
		c18.6-10.1,36.1-21.9,54.6-32.3c21-11.8,43.1-20.1,67.8-19.2c12.7,0.5,24.5,3.7,30.9,15.8c9.9,18.6,7.2,42-14.4,55.3
		c-14.8,9.1-31.1,9.9-47.8,9.3c-9.5-0.3-19-1.2-28.4-2.4c-21.4-2.8-42.5-0.1-63.5,4c-23.4,4.5-46.9,8.5-70.9,6.3
		c-10.3-0.9-20.5-2.2-30.5-5.1C259.6,160.5,258.3,160.5,257.5,159z M465.8,102.6c-0.4,3.3,0.2,6.7,1.9,9.6c0.6,1,0.9,2.5,2.3,2.2
		s1.6-2.1,1.4-3.3c-0.9-5.9,1.5-10.7,4.5-15.4c1.2-1.8,2.2-3.7,3.3-5.5c2.1-3.3,1.1-5.8-2.9-6.4c-1.5-0.2-3-0.2-4.5,0
		c-24.5,2.3-45,14.4-65.3,26.8c-0.8,0.5-1.9,1.2-1.3,2.3c0.6,1.1,2.1,0.7,3.1,0.3c4.2-1.5,8.3-3.4,12.6-4.7
		c12.7-3.8,25.2-5.5,35.9,5.1c1.1,1.1,2.5,2,4,0.8s1.1-2.7,0.5-4.1c-1.1-2.6-1.2-5.6-0.2-8.3c0.7-2,0.4-5.7,3.3-5.3
		C467.3,97.1,465.4,100.6,465.8,102.6z"/>
	<path id="X0014AAM2Gra8OT24_1_" class="st0" d="M229.4,200.7c12.1-0.5,23.6-0.4,35-1.7c14.9-1.6,29.7-4.1,44.3-7.6
		c23.5-5.6,46-14.6,69.2-21c22.4-6.1,45.7-7.9,68.8-5.4c29.7,3.1,56.6,14.2,82.9,27.5c2.5,1.3,2.8,2.9,0.6,4.5
		c-10.9,8.5-17.6,20.3-23.9,32.1c-2.3,4.3-2.7,9.6-4.2,14.3c-0.5,1.5-0.6,3.7-2.6,3.9s-1.9-2.3-2.9-3.4c-6.2-6.7-10.4-14.8-16.1-22
		s-11.7-13.4-17.4-20.5s-14.8-13.9-24.5-16.6c-9.3-2.5-19.1-3.2-28.7-2c-21.8,2.6-42.4,9.8-63.4,15.5c-11.5,3.2-23.3,5.6-35.1,7.2
		c-16.8,2.3-33.4,2.2-50.2,1.5c-8.7-0.4-17.1-2.5-25.8-3.1C233.5,203.8,231.2,203.6,229.4,200.7z M466,174.5l16.6,8.6
		c8.8,4.7,15.5,11.3,18.4,21.1c1.2,3.9,4.9,4.7,8.2,1.9c6.4-5.3,5.5-14.5-2.6-18.2C493.7,182.1,480.6,176.5,466,174.5L466,174.5z"/>
	<path id="X0014AAM2Gra4OT23_6_" class="st0" d="M606.6,420.2l12.1,11.1c11.6,10.6,24.5,19.1,39.3,24.3c13.1,4.6,26.8,4.6,40.5,2.5
		c30.2-4.6,48.8-23.2,60.4-50.1c3.6-8.4,7-16.8,8.8-25.9s7.6-13.2,16.8-13.2h4.5c8.5,0.4,11.2-1.4,13.5-9.8c1.5-5.3,2.4-10.7,3.7-16
		c0.5-2.1,1.1-4.9,3.7-4.5s2.1,3.3,2.1,5.3c0.8,32.6-8.6,62.4-27.2,88.7c-20,28.2-48.2,42.1-82.8,42.9s-63.3-15.3-86.3-41.1
		c-2.7-3-5.2-6.1-7.7-9.2C607.1,424.1,605.5,423,606.6,420.2z"/>
	<path id="X0031BFM2Gra4OT25_4_" class="st0" d="M209,228.8c-4.5-7.6-6.2-15.8-9.9-23.1c-7.3-14.5-16.1-27.7-32-34.1
		c-12.2-4.9-24.1-2.6-36,1.9c-17.6,6.7-29,20.5-40.9,34.1c-9.2,10.6-17.7,21.6-26,32.8c-2.4,3.2-5.3,6-8.6,8.3
		c-4.2,2.9-7.6,1.2-8.2-4c-0.1-2,0.2-4,0.8-5.9c4.4-17.9,14.1-33.3,23.6-48.8c11-18.1,22.2-36.1,38-50.5
		c12.5-11.5,27.4-16.6,44.5-15.4c13.4,0.9,26.3,4.3,39.1,8c2.5,0.7,4.1,2.3,2.2,4.7c-9.8,12.7-7.1,25.9-1.6,39.2
		c6.2,14.9,11.7,30.1,15.3,45.9C209.8,224.6,209.9,224.7,209,228.8z M155,154.6h4c4.5,0.4,9-0.5,10.2-5.2s-2.8-7.4-6.4-9.6
		c-0.6-0.4-1.2-0.7-1.8-0.9c-8.6-2.8-17.8-2.9-26.5-0.4c-14.2,4.1-24.5,13.8-33.8,24.7c-12.2,14.2-21.4,30.5-31.1,46.4
		c-1,1.7-4,4.1-2.1,5.4s3.6-2.1,4.8-3.7c10-13.5,21.4-26,34-37.1C120.3,162.1,135.7,153.7,155,154.6z M180.6,144.2
		c-0.2-3.3-2.2-6.3-5.3-7.6c-1.3-0.6-2.7-0.8-3.6,0.6c-0.9,1.4-0.1,2.3,0.8,3.1c1.9,1.7,2.9,4.2,2.6,6.7c-0.1,1.4-0.5,3.3,1.6,3.6
		s2.4-1.5,3-2.8C180.1,146.6,180.4,145.4,180.6,144.2L180.6,144.2z"/>
	<path id="X0069A9M2Gra3OT12" class="st0" d="M158.2,82.3c6.3,0.8,12.5,1.5,18.2,3.6c16.3,6.1,33.2,6,50.3,5.5
		c13.5-0.4,27,0.6,38.8,8.5c3.4,2.1,6.3,5,8.3,8.5c1.6,3,0.9,5-2.4,6.2c-2.7,1-5.5,1.4-8.3,1.4c-13.3-0.1-26.6,1.1-39.7,3.6
		c-5,1.1-9.9,2.8-14.6,5c-5.4,2.6-11.7,2.9-17.4,1c-19-6.3-38.4-9.2-58.5-7.4c-4.6,0.4-9.9,1.1-12.6-3.8s-1.1-10.2,2.1-14.5
		C131.2,87.8,144,83.4,158.2,82.3z"/>
	<path id="X0014AAM2Gra8OT24" class="st0" d="M400.6,194.5c7.5,0.3,12.8-0.2,18.1,1.2c5.3,1.4,9,5.2,8.7,11.6
		c-0.7,11.6-4.7,22.4-8.3,33.3c-6.3,19.5-14.2,38.4-26.8,54.9c-9.6,12.6-21,22.8-36.8,26.6l-2.9,0.6c-1.1,0.2-2.6,0.5-3.1-0.8
		s1-2.2,2.2-2.7c7.2-3.1,13.8-7.4,19.6-12.7c13.7-12.4,18.6-27.3,14-45.5c-2.8-11.2-7.9-21.5-11.4-32.4c-1.3-4-2.7-7.9-3.6-11.9
		c-3.1-13.4,2.3-18.1,13.7-20.6C390,194.7,396.5,194.8,400.6,194.5z"/>
	<path id="X0031BFM2Gra4OT25_3_" class="st0" d="M526.2,66.4c-16.7-0.4-29.6-8.5-40-20.6c-7.3-8.6-15.1-16.9-23.3-24.6
		c-5.9-5.4-12.6-9.4-21.2-8c-1.6,0.3-3.6,0.3-4.6,1.7c-6.2,8.8-16.3,11.9-25,16.8c-23.7,13.3-48,25.3-72.3,37.4
		c-2.8,1.4-5.6,3.1-9,1.8c-7-2.6-7.9-10.5-1.5-15.5s10.6-8,16.1-11.7c20.6-13.8,41.3-27.4,63.2-39.2c1.9-1,4-1.7,5.8-2.9
		c4.2-2.9,7.9-1.9,11.4,1c3.2,2.9,7.7,3.7,11.7,2.3c10.6-3.4,19.4-0.5,27.5,6.9c8.5,7.7,16.6,15.9,24.1,24.6
		c11,12.8,25.3,19.7,41.1,24.1l2.4,0.8c1.3,0.6,2.3,1.5,2.2,3c-0.1,1.5-1.6,2-3,2L526.2,66.4z"/>
	<path id="X0014AAM2Gra4OT23_5_" class="st0" d="M748,394.5c10.3-21.5,12.5-43.8,7.7-66.9c-5.3-25.6-17.3-47.7-37.9-64
		c-15.9-12.6-34.6-17.3-55-12.9c-6.9,1.5-12.2-1.4-14.6-8c-1.9-5,0.6-9.6,6.6-12.7c13.7-7.3,27.8-6.6,41.5-0.9
		c34.4,14.4,52.8,42.2,62.7,76.7c4.1,14.3,6.5,29,5.3,43.9s-4.3,27.2-11.3,39.5C751.9,391.4,750.2,393.3,748,394.5z"/>
	<path id="X0014AAM2Gra2OT23" class="st0" d="M768.7,218.6c4.2,1.2,7.1,4.3,10.3,6.8s5.4,4.6,4.1,8.4s-4.7,5.2-8.2,5.6
		c-5.2,0.6-10.4,0.3-15.4-1c-15-3.8-29.4-9.8-42.8-17.6c-11.5-6.8-23.8-11.6-37.5-12.4c-11.8-0.8-23.7,0.9-34.8,5
		c-8,2.9-10.4,8-9.3,16.6c0.6,4.5,2.9,8.7,2.7,14.3c-3.2-2.5-4.2-5.3-5.4-7.9c-2.7-6.2-6-11.8-12.5-15c-3-1.5-2.6-3.3-0.1-5.3
		c11.3-9.4,24.6-16.2,38.8-19.9c21.8-5.5,44.7-5.5,66.5-0.1c14.2,3.5,27.2,10.5,39.5,18.4c0.2,0.1,0.1,0.6,0.2,1
		c-1.5,1.3-2.8,0.2-4-0.5c-14.2-7.8-29.4-13.2-44.4-19c-1.5-0.6-3.2-0.9-3.8,0.9s0.9,2.4,2.1,2.9c2.8,1.1,5.7,2,8.4,3.2
		c10.4,4.6,19.6,11.5,27.1,20.1c5.8,6.8,12.5,11.5,22,10.2c2.3-0.3,4.9-0.1,5.8-2.9s-0.9-4.1-2.5-5.6L768.7,218.6z"/>
	<path id="X0014AAM2Gra4OT23_4_" class="st0" d="M674.7,406.5c-8.6,0.7-16.8-3.1-24-8.1c-13.7-9.6-23.6-22.3-27.9-38.9
		c-0.3-1.1-0.5-2.2-0.6-3.4c0-1.8-0.2-4,2.1-4.5s2.9,1.2,3.8,2.6c3.4,5.4,6.6,10.8,10.2,16c5.6,8.4,13.5,15,22.7,19
		c14,6,26,2,36.3-7.5c14.1-13.1,18.5-30,16.2-48.7c-1.6-13.3-4.7-26.3-12.8-37.4c-0.7-0.9-1.6-2.2-0.4-3.1s2.4,0.4,3.3,1.3
		c7.5,7.2,13.1,16.1,16.3,26c5.7,17.5,6.6,35.1,1,53S695.9,406.7,674.7,406.5z"/>
	<path id="X0014AAM2Gra4OT23_3_" class="st0" d="M535.9,227.2c-1.7,7.5-4.6,13.3-6.8,19.3c-6,16.6-10.1,33.8-13.5,51.1
		c-3.9,19.7-7.1,39.6-10.5,59.4c-0.9,5.1-1.1,10.2-3.7,14.9c-2.6,4.7-5.9,7.9-11,8.7c-17.4,2.7-34.9,5.6-52.6,3.3
		c-1.9-0.2-4.6,0-5-2.3s2.5-3.1,4.4-3.8l39.2-14.6c3.1-1.2,6.1-2.6,9-4.2c4.8-2.4,8.3-7,9.3-12.3c3.1-14,6.2-27.9,9.6-41.8
		c6-25.1,14.9-49.4,26.6-72.4c0.7-1.3,1.6-2.5,2.5-3.7C534.2,228.2,535,227.6,535.9,227.2z"/>
	<path id="X0014AAM2Gra4OT23_2_" class="st0" d="M660.3,321.1c-2.4-3.8-4.9-7.6-7.1-11.5c-12.1-21.7-24-43.4-36.1-65
		c-22-39.3-44.1-78.7-66.2-118c-6.6-11.7-12.9-23.7-22.6-33.3c-0.6-0.6-1.2-1.2-1.8-1.7c-5.9-4.4-5.9-5.1,0.8-8.7s13-2.8,16.9,4.8
		c19.1,38.1,38.2,76.1,57.3,114.2c17.6,34.9,34.9,70,53.2,104.5c2.4,4.6,4.5,9.4,6.8,14L660.3,321.1z"/>
	<path id="XEC2AFFM2Gra4OT31" class="st0" d="M236.3,145.1c-5.6,0.4-11.9-1.5-18.1-3.2c-6.2-1.7-6.6-5.7-2.1-9.9s13.1-7.8,20.6-9.5
		c23.6-5.3,46.2-0.7,68.4,7.7c2.6,1,5.4,1.8,8,2.8s3.4,0.6,3,2.6s-2.1,1.4-3.3,1.5c-15.2,1.8-30.4,3.8-45.6,5.1
		C257.1,143.1,247.3,145.3,236.3,145.1z"/>
	<path id="X0014AAM2Gra4OT23_1_" class="st0" d="M576.6,281.5c1.2,3.7,0.6,7.1-0.2,10.5c-2.6,10.5-2.2,21.1-0.9,31.7
		c0.8,6.3,1.5,12.5,1.1,18.9c-0.6,9.3-5.2,16.3-12.5,21.6c-2.3,1.7-4.8,2.7-7.4,1.2c-2.6-1.5-3-4.2-2.6-7c1.5-10.5,3.3-21,6.5-31.2
		c4.5-14.4,9.2-28.8,13.8-43.2C574.7,283.1,574.7,281.9,576.6,281.5z"/>
	<path id="XE51F1FM1Gra7OT28_3_" class="st0" d="M601.6,115.7c-0.6-0.8-1.2-1.2-1.4-1.8c-3.1-14.7-4.4-29.5,1.5-43.7
		c4.8-11.4,14.2-17.2,26.6-17.8c8-0.4,15.5,1.7,23.1,3.7c1.7,0.4,4.8,1.2,4.4,3.2s-3.4,1-5.3,0.8c-14.7-1.5-27.2,2.9-36.2,14.7
		c-7.2,9.5-10.8,20.5-11.3,32.5C603,110,603.6,112.9,601.6,115.7z"/>
	<path id="X0031BFM2Gra4OT25_2_" class="st0" d="M587.2,31.9c-4.3-0.9-8.4,1.4-11.9,5.1c-5,5.3-11.1,8.3-17.9,10.2
		c-1.1,0.3-2.3,0.7-3.2-0.5c-0.5-0.9-0.4-2,0.2-2.8c2.6-4.2,3.1-9.1,4.7-13.6c2.7-7.7,8-11.5,15.7-12.5c7.9-0.9,16-0.3,23.7,1.7
		c3.4,0.8,4.1,2.9,2.9,6C599,31.7,593.8,32.2,587.2,31.9z"/>
	<path id="XE51F1FM1Gra7OT28_2_" class="st0" d="M615.8,106.7c2.2,2,3.9,4.5,5,7.3c0.5,1.1,0.8,2.2,1.3,3.2
		c6.4,12.4,15.5,13.3,24.3,2.4c6.4-8,9.5-17.4,12.6-26.9c0.3-1.1,0.2-2.4,1.5-3.1c1.9,1.2,1.6,3.3,1.3,4.9
		c-2,11.6-4.1,23.3-10.7,33.5c-1.5,2.4-3.4,4.5-5.6,6.3c-5.7,4.7-12.9,4.9-18-0.3C620.5,126.8,617.4,117.8,615.8,106.7z"/>
	<path id="X1100AAM2Gra2OT6" class="st0" d="M182.7,230.3c-13.5-2.8-26.7-3.3-39.2,3.6s-18.6,18.4-25.7,29.6
		c4-15.1,10.7-28.3,24.5-37C152.2,220.3,173.5,221.7,182.7,230.3z"/>
	<path id="X0014AAM2Gra4OT23" class="st0" d="M665,369.8c0.6-1.1,1.6-1,2.6-1.1c13.8-1.5,23.1-13.5,21.7-27.6
		c-0.8-8.7-5.3-16.7-12.3-22c-1.1-0.8-3.2-1.5-1.8-3.3s2.5-0.1,3.6,0.6c17.6,12.3,20,36.4,9.3,50.3
		C683.2,372.9,670.1,375.5,665,369.8z"/>
	<path id="X0031BFM2Gra4OT25_1_" class="st0" d="M568.6,75.3c-1.5,0.1-2.5,0.2-2.9-0.6c-0.4-0.8,0.5-1.8,1.3-2.4
		c7.7-5.6,15.7-10.5,24.9-13.4l12.4-3.9c0.9-0.3,2.1-0.7,2.8,0.2s-0.2,2.2-1.1,2.9c-3.6,3.1-6.8,6.8-9.5,10.8c-1,1.6-2.6,2.7-4.4,3
		C584,72.8,575.7,72.2,568.6,75.3z"/>
	<path id="XE51F1FM1Gra7OT28_1_" class="st0" d="M638,96.1h4.5c8-0.1,9.7,2.2,7.5,9.9c-1.2,4.1-4.1,5.5-8,3.8
		c-2.3-1-4.5-2.2-6.7-3.3s-4.9-3.3-4.9,1.9c0,0.9-0.8,1.7-1.7,1.7c-0.2,0-0.3,0-0.5-0.1c-4.2-0.9-5.1-4.5-5.8-7.9s1.4-4.5,4.2-4.8
		S635.1,95.9,638,96.1z"/>
	<path id="X0031BFM2Gra4OT25" class="st0" d="M662.1,189.9c-2.6-0.7-3-2.5-3.8-3.9c-4.6-7.7-9.1-15.5-13.7-23.1
		c-2.3-3.8-4.5-7.8-9.5-9c-2.4-0.6-1.6-2.1,0-3.1c3.6-2.4,8-1.2,10.6,3c5.3,8.7,9.2,18,13.6,27.1
		C660.6,183.6,662.8,186.1,662.1,189.9z"/>
	<path id="XE51F1FM1Gra7OT28" class="st0" d="M652.1,68.7c-11-0.2-19.6,4.1-26.9,11.7c-1,1.1-2.1,3.5-3.8,2.1s0.3-3,1.2-4.3
		c6.2-9.3,14.5-15,26.2-14.5c1,0,2,0.1,3,0.3c2.4,0.5,6.1,1,5.9,3.5S653.6,67.7,652.1,68.7z"/>
</g>
</svg>
