<?xml version="1.0" encoding="utf-8"?>
<!-- Generator: Adobe Illustrator 24.1.0, SVG Export Plug-In . SVG Version: 6.00 Build 0)  -->
<svg version="1.1" id="图层_1" xmlns="http://www.w3.org/2000/svg" xmlns:xlink="http://www.w3.org/1999/xlink" x="0px" y="0px"
	 viewBox="0 0 597.1 788.4" style="enable-background:new 0 0 597.1 788.4;" xml:space="preserve">
<style type="text/css">
	.st0{fill:#FFFFFF;stroke:#000000;stroke-miterlimit:10;}
</style>
<g>
	<path id="XFF99FFM1Gra1Co8_1_" class="st0" d="M166.1,240.6c0,13.5-0.2,26.9,0.8,40.4c0.3,3.9-2.4,4.7-4.7,3.2
		c-10-6.1-21.2-9.9-30.7-16.9c-9.6-7-16-16.7-21.8-26.8c-6.1-10.8-12.3-21.5-18.5-32.2c-7.3-12.5-13.1-25.9-20.1-38.6
		c-3-5.4-4.1-11.5-6.9-17c-0.9-1.7-1.3-3.8,0.8-4.8c1.9-1,2.4,1,3.3,2.2c5,6.5,11.5,11.7,18.9,15.3c0.6,0.3,1.2,0.8,1.7,0.3
		c1-0.9,0.2-1.8-0.3-2.6c-5.1-7.4-10.3-14.7-15.2-22.1c-5.3-8-10.6-16.1-10.6-26.2c0-1.8-0.8-4,1.5-4.8c2-0.7,2.9,1,3.7,2.5
		c0.9,1.6,3.1,2,3.7,4c0.5,1.5,1.6,2.2,3.1,1.3c1.8-1.1,1.2-2.5,0.3-3.9c-1.6-2.5-2.7-5.4-4.3-7.8c-6.2-9.5-8.1-20.3-11.2-30.9
		c-3.9-13.7-13.1-23.8-23.9-32.6c-5.1-4.1-10.5-7.9-15.8-11.8c-0.9-0.7-2.4-1.1-1.5-2.5c0.8-1.1,2.2-1.4,3.3-0.6
		c0.1,0.1,0.2,0.1,0.2,0.2c2.6,2,5.8,2.2,8.7,3.3C47.7,37.8,65,43.6,81.3,52.3c14,7.5,25.8,17.3,36.4,28.8
		c7.3,7.9,12.3,17.5,17.7,26.8c7.4,12.5,12.9,26,16.5,40.1c2.2,8.8,3.9,17.8,7.1,26.2C167.1,195.8,166.3,218.2,166.1,240.6z"/>
	<path id="X6AA9FFM1Gra5OT29_1_" class="st0" d="M170,677.9c4.5-1.7,10.1-2.5,14.6-6.2c1.1-0.9,2.3-1.6,3.6-0.7
		c1.4,1,0.7,2.3,0.1,3.6c-3.7,7.3-7.2,14.8-11.1,22.1c-6.5,12-14.9,22.6-26.6,30.1c-6.9,4.4-15.1,5.5-22.7,7.9
		c-3.6,1.1-4.3-1.5-3.8-4.4c1.8-9.1,3.7-18.2,5.5-27.4c2.4-11.9,5.1-23.7,6.4-35.8c1.5-14.8,3.5-29.8,7.9-44.1
		c3.7-12.2,8-24.4,9.8-36.9c1.6-11.3,3.7-22.6,4.6-34.1c0.9-10.7,6.9-18.5,14.9-24.7c14.1-11,30.2-18.7,46.4-26
		c8.7-3.9,17.8-6.8,26.2-11.3c0.7-0.5,1.6-0.5,2.3-0.1c0.9,0.6,1.1,1.8,0.6,2.7c-0.8,1.6-1.9,3.1-2.8,4.6c-4.6,7.5-6.9,15.7-8,24.3
		c-0.7,6.8-3.6,13.2-8.4,18c-9.8,10.2-21.5,17.6-33.3,25c-4.5,2.8-8.9,5.7-13.7,7.8c-1,0.3-1.6,1.3-1.4,2.4c0.3,1,1.3,1.7,2.3,1.5
		c2.1-0.2,4.4-0.2,6.4-1c11-4.3,21.9-9.1,31.6-16.1c3.1-2.2,6.5-4.1,9.1-6.9c0.7-0.7,1.4-1.6,2.5-0.9c0.8,0.6,1.3,1.6,1.1,2.6
		c0,1.2-0.2,2.3-0.6,3.4c-3.2,6-4.4,12.8-7.2,19c-4.9,11.1-9.8,22.2-16.4,32.5c-4.2,6.5-7.8,13.5-12.7,19.5
		c-7.1,8.7-15.9,15.5-24.1,22.8c-1,0.9-3.4,1-2.3,3.1c0.9,1.7,3.4,1.7,4.5,0.8c4.6-3.7,11-2.6,15.5-6.3c0.9-0.7,2-1.1,3.2-1.4
		c0.8-0.3,1.7,0.2,2.1,1c0.7,1.4,0,2.4-1,3.5c-8,8.6-16.8,16.2-27.3,21.7c-1.3,0.7-3.9,0.9-3,3.1C165.3,678.3,167.5,677.7,170,677.9
		z"/>
	<path id="X6AA9FFM1Gra5OT29" class="st0" d="M65.6,452.9c-2.6-7.3-3.7-14.8-5.1-22.1c-1.8-9.3-2.7-18.8-4-28.2
		c-0.2-1.3-0.2-2.7-0.1-4c0.2-1.6-0.3-4.1,1.6-4.2c2.1-0.1,1.7,2.4,2,3.9c2.7,14.5,11,32,20.6,43.2c0.8-0.1,1.4-0.9,1.3-1.7
		c0-0.2-0.1-0.4-0.2-0.6c-3.4-9-6.1-18.2-8.8-27.3c-3-10.3-6.6-20.5-6.4-31.8c0.4-23.5,5.9-46.6,5.4-70.1c0-0.8,0.1-1.7,0.3-2.5
		c0.2-1.3,0.5-2.9,2.2-2.8c1.5,0.1,1.5,1.5,1.7,2.6c1.5,8.4,2.3,16.8,3.5,25.2c1.4,9.6,2.7,19.3,5.7,28.7c2.3,7.6,5,15,8.3,22.2
		c8.4,17.9,19.8,33,35.7,44.9c7,5.2,13.2,11.4,19.7,17.2c1.7,1.4,2.5,3.6,2.3,5.8c-0.1,1.2-0.2,2.3-0.4,3.5
		c-2.6,14.7-4.4,29.6-8.2,44c-3.5,13.5-6.8,27-9.4,40.6c-2.5,13.2-3.6,26.7-5.3,40.1c-0.3,2.3,0.5,5.8-1.7,6.3
		c-2.7,0.7-2.7-3.2-3.8-5c-2.6-4.3-3.5-9.4-4.8-14c-2.7-9.3-8.8-16.3-14.1-23.8C95.7,532.1,86,522.6,77,512.4
		c-4.5-5-7.3-11.3-9.6-17.7c-1.5-4.3-4-8.3-6-12.4c-1.4-3-5.1-6.2,1.2-8.4c2.2-0.8,1.4-3.3,0.6-4.8c-2.4-4.3-3.3-9.1-5.2-13.5
		c-0.6-1.4-1.5-2.9-0.4-4.2c1.5-1.7,2.5,0.7,3.9,0.8C62.7,452.4,63.8,453.6,65.6,452.9z"/>
	<path id="XFF99FFM1Gra1Co8" class="st0" d="M85.6,269.2c0-13.6,0-27.3,0-40.9c0-0.8,0-1.7,0-2.5c0.1-1.4,0.4-2.8,2.1-3
		s2.1,1.2,2.6,2.5c4,10.7,9.1,21,15.2,30.6c5.9,9.5,14.3,15.7,23.5,21.8c10.8,7.1,22.7,12.9,31.9,22.4c3.1,3.2,5.3,6.9,5.4,12.2
		c0.1,15.9-3.7,31.4-4,47.2c-0.4,18.1-4,36-4.3,54.2c-0.1,6.4-3.1,12.6-3.2,19.1c-0.1,2.6-1.8,3.5-4,1.5
		c-10.8-9.8-22.1-19.2-32.1-29.8c-5.5-5.9-9.9-12.6-13.3-19.9c-16-33.9-19.8-69.9-19-106.8c0.1-2.8,0-5.7,0-8.5L85.6,269.2z"/>
	<path id="XE79CFFM2Gra5OT17_1_" class="st0" d="M411.8,127.5c2.5-0.7,4.9-1.4,7.3-2.1c0.9-0.3,2.4-0.5,2.7-1.1
		c2.2-5.7,6.2-11.1,5.7-17.3c-0.4-4.3-0.5-7.7,2.5-11.1c2.8-3.2,4.3-7.3,4.2-11.5c0-1.8,0-4.2,2.5-4.2c2.6,0,2.3,2.5,2.1,4.3
		c-0.7,8.9,2.4,16.8,6.3,24.6c2.3,4.7,3.1,10.2,4.4,15.3c1.1,5.4,2.6,10.6,4.5,15.8c2.2,5.5,5.5,10.5,9.7,14.7
		c3.2,3.3,5.8,6.3,5.8,11.5c0,4.3,3.7,8,3.9,12.7c0.1,2.4,1.9,1.2,3.2,0.1c3.2-2.8,4.9-6.7,7.1-10.1c4.9-7.5,10.3-12.5,20.1-9.1
		c2.3,0.8,5.3-0.1,7.9-0.1c1.3,0,2.9-0.1,3.5,1.4c0.5,1.4-1,1.9-1.8,2.7c-3.2,3-6.9,5.7-9.2,9.6c-0.9,1.5-2,2.9-0.7,4.5
		c1.2,1.5,2.7,0.6,4.2,0.3c8.7-2.2,17.6-3.2,26.6-4.2c8.3-0.8,16.4-2.5,24.3-5c8.1-2.6,16.3-3.2,24.5-3.4c3.3-0.1,6-2.2,9.2-2.1
		c1.9,0,4.7-1.1,5,1.6c0.3,2.5-2.6,2-4.3,1.9c-4.3-0.3-6.8,3.2-10,5c-4.7,2.7-9.8,4.9-15,6.4c-1.8,0.5-3.8,1-3.2,3.5
		c0.3,1.8,2,3,3.8,2.7c0.1,0,0.3-0.1,0.4-0.1c4.9-1.2,10.3,2.1,14.9-1.7c0.8-0.5,1.9-0.3,2.4,0.5c0.1,0.1,0.1,0.2,0.1,0.3
		c0.6,1.6-0.8,1.9-1.8,2.5c-8.8,5.2-18.8,7.7-29,7.4c-2.1-0.1-5.4-1.2-6.2,1.6c-0.7,2.7,1.8,4.7,4.2,6.1c0.8,0.5,2.3,0.7,1.8,1.9
		c-0.7,1.6-2.4,1.2-3.4,0.3c-2.6-2.2-5.8-1.1-8.6-1.9c-1-0.3-2.6-0.2-2.5,1.5c0.1,1.2,1.2,1.4,2.2,1.6c0.5,0,1,0,1.5,0
		c1.9-0.1,4.6-1.2,4.7,1.7c0.1,2.2-2.7,1.8-4.5,2c-4,0.5-8,0.5-12,0.1c-2.5-0.5-5.1,0-7.3,1.3c-2.7,1.7-5.1,1.9-7.8-0.1
		c-1-0.9-2.6-0.8-3.5,0.2l-0.1,0.1c-1,1.3,0.3,2.1,1.2,2.8c1.1,1,1.9,2.1,0.5,3.3c-1.3,1.2-3,1.7-4.5,0.5c-2.5-2-4.8-4.3-5,1.5
		c-0.1,1.8-1.5,1.9-3,1.3c-0.3-0.1-0.6-0.3-0.8-0.5c-6.8-8.5-14.3-4.1-21.3-0.7c-5.1,2.5-11.3,1-16.1,4.6c-0.4,0.3-1.7-0.1-2.3-0.5
		c-4.5-3.8-6.8-0.7-9.2,2.7c-4.6,6.6-6.2,14.6-10.6,21.3c-3,4.5-7.6,8.1-8.9,13.8c-0.3,0.5-0.9,0.8-1.6,0.8
		c-1.1-0.3-1.3-1.4-1.4-2.4c-0.1-1.2,0.5-2.9-1.2-3.4c-1.8-0.5-1.9,1.5-2.9,2.2c-1.4,1.1-3,2-3.9,3.7c-0.5,0.9-1.6,1.2-2.5,0.8
		c-0.2-0.1-0.4-0.3-0.5-0.4c-1.1-1-0.9-2.1,0.1-3c0.7-0.7,1.8-1.2,2.1-2c0.4-0.9,0.4-1.9,0-2.9c-0.5-1.2-1.7-0.8-2.6-0.3
		c-3.5,1.8-7.1,1.1-10.7,0.4c-1-0.2-2.2-0.3-2.2-1.6c0.1-0.9,0.8-1.5,1.7-1.5c4.3-0.2,7.4-3.8,11.7-4c1.1,0,2.6-0.3,2.4-1.9
		c-0.2-1.5-1.6-1.4-2.8-1.5c-2.7,0-5.3,0.6-7.7,2c-5.5,3.1-11.4,1.7-17.1,1.7c-1.6,0-3.9-0.1-3.7-2.4c0.2-2.2,2.5-1.8,4.1-1.8
		c2.8-0.2,5.7-0.2,8.5-0.2c1.3,0,3.1,0.6,3.5-1.1c0.5-2.2-1.6-2-2.9-2.5c-0.6-0.3-1.1-0.6-1.6-1c2.7-2.9,6.2-1.9,9.3-2.2
		c3.5-0.4,7-0.4,9.5-3.4c0.7-0.9,2.1-1.5,1.5-2.8c-0.7-1.5-2.3-1.4-3.5-0.8c-4.7,2.6-9.9,0.1-14.6,1.7c-1,0.3-2,0-2.8-0.6
		c-1.1-1.4,0.6-1.8,1.3-2.6c0.3-0.3,0.9-1,0.8-1.2c-1.3-2.5-3-5,2-4.9c2.3,0,3-4.6,6.2-2.3c0.5,0.4,1.3,0.3,1.7-0.3
		c0,0,0-0.1,0.1-0.1c0.6-1,0.2-1.9-0.3-2.8c-0.6-1.2-1.7-2.1-2.9-2.6c-1.5-0.5-3.8-0.7-3-3.1c0.6-2,2.8-1.6,4.4-1.5
		c5.5,0.3,11,1.1,16.5,0c8.7-1.7,17.5-3,25.5-7.3c0.9-0.5,2.1-0.7,2-1.9c-0.1-1.6-1.5-1.6-2.7-1.6c-3.6-0.2-6.8,1.6-10.2,2.1
		c-1.3,0.2-2.6,0.8-3.9,1c-2.3,0.3-5.8,1.2-6.3-1.1c-0.6-2.7,3.2-1.6,4.9-2.5c2.3-1.2,4.6-2.6,6.7-4.2c1.6-1.2,0.3-2.1-0.9-3
		c-4.2-3.1-9.2-4.4-13.8-6.7c-1.2-0.6-2.9-0.8-3.1-2.3c-0.2-1.7,1.8-1.6,2.8-2.3c3.4-2.3,3.7-5.9,0-7.2c-3.1-1.1-4.7-4.2-8.1-4.7
		c-1.3-0.2-2.2-1.1-1.4-2.5c0.7-1.3,2-1,3.1-0.3c5.1,3,10.4,3,15.8,0.9c1.4-0.6,3-1.1,3.1-2.9c0.1-1.9-1.6-2.2-3-2.7
		c-6-2.3-12-4.7-18-7c-1-0.4-2-0.7-2-1.9c-0.1-1.2,0.9-1.6,1.8-2.1c3.6-1.7,3.8-4.1,0.7-6.3c-2.3-1.6-2.3-3-0.5-4.8
		c1.5-1.5,1.7-3.6-0.6-3.6C416.3,133.4,414.5,130.1,411.8,127.5z"/>
	<path id="X6AA9FFM1Gra6OT29" class="st0" d="M120.6,606.5c-0.3,3.2-0.9,6.3-1.7,9.4c-4.1,17.8-7.9,35.6-10.2,53.7
		c-1.3,9.7-2.3,19.7-5.5,29.3c-1.5,4.5-1.6,9.5-2.6,14.2c-1.5,6.5-3.3,7.1-7.8,2.6c-9.1-9.2-16.4-20-21.8-31.8
		c-4-8.7-8.9-17-13.5-25.5c-0.5-0.8-1-1.7-1.3-2.7c-0.4-1.1-0.7-2.4,0.4-3.2c1-0.7,2.4-0.5,3.1,0.5l0,0c0.9,1.2,2.4,1.9,3.9,1.9
		c2.1-0.2,4.7,1.1,6.3-0.6c2.1-2.3-1.3-3.2-2-4.9c-4.8-12-11.8-22.9-17.8-34.3c-2-3.9-4.9-7.6-5.1-12.3c-0.1-1.3-0.3-2.9,1.4-3.4
		c1.5-0.4,1.7,1.2,2.3,2.2c3.1,5.2,8.1,8.4,13,11.4c9,5.4,18.4,10.2,28.1,14.3c1.3,0.5,2.6,1.4,3.6,0c1.1-1.4-0.2-2.6-1.2-3.4
		c-5.8-4.8-11.6-9.8-18-13.8c-8.6-5.3-15.7-12.8-20.6-21.7c-3.1-5.9-4.9-12.4-5.3-19.1c-0.1-3.3,0.2-6.8-0.8-9.9
		c-3.7-11.9-0.7-23.5,1.6-35c1.5-7.5,4.8-14.8,7.4-22.1c1-2.8,2.5-1.8,4-0.2c2.6,2.8,2.7,6.7,4.8,9.8c6.7,9.7,15.5,17.5,23,26.5
		c5.5,6.6,11.6,12.8,16,20.1c3.2,5.4,5.5,11.6,7.5,17.7c2.4,7.2,5.9,14.1,7.3,21.7C119.8,600.9,120.2,603.7,120.6,606.5z"/>
	<path id="XE79CFFM2Gra5OT17" class="st0" d="M37.1,0.4C50.3-1.1,65.7,2.2,80.8,5c20.4,3.8,40.6,8.8,60.2,16.7
		c17.1,6.9,30.7,17.8,44,29.8c1.8,1.7,3.6,3.4,5.3,5.1c3.3,3.2,2.9,5.7-1.2,8c-0.9,0.3-1.8,0.8-2.7,1.3c-2,1.8-2.8,4.2-1.8,6.8
		c1.2,2.8,3.5,2.6,5.9,1.9c4.8-1.4,11.8,2.4,12.7,7c0.5,2.2-1.5,2.4-2.9,2.3c-3.4-0.1-5.9,1.4-8.5,3.5c-2.2,1.7-3.7,3.6-3.1,6.3
		c0.7,2.9,3.2,5,6.2,5.1c5.1,0.6,10.4-0.2,15.1-2.3c1.5-0.7,3.2-2.1,4.4-0.2c1.3,1.9-1.3,2.2-2,3.3c-3.2,5.6-8,9.6-13.1,13.2
		c-3.3,2.3-6.8,4.9-11.1,5.1c-4.5,0.2-7.7,2.9-10.8,5.5s-5.8,2.5-7.1-1.3c-4.1-12.2-10.3-23.4-16.2-34.7
		c-6.9-13.2-17.1-23.7-27.6-34.2c-8-8.3-17.4-15.2-27.5-20.7c-7.1-4-14.5-7.2-22.2-9.6c-7.9-2.4-15.3-6.2-23.3-8.6
		c-13.8-4.1-27.7-7-42.1-6.3C8.5,8.1,5.6,8.3,2.8,8.4C1.6,8.4,0.3,8.3,0,6.9c-0.3-1.7,1-2.1,2.4-2.6C12.8,0.1,23.7-0.1,37.1,0.4z"/>
	<path id="XCC66FFM1Gra3Co10" class="st0" d="M267,460.2c0.5,1.6,1.7,1.4,2.5,1.8c2.7,1.1,3,2.4,0.4,4.1
		c-5.7,3.6-11.2,7.6-17.2,10.6c-3.8,1.9-8.4,2.3-12.6,3.9c-10.1,3.8-20.3,7.4-30.5,11.3c-12.6,4.9-23.9,11.7-34.9,19.4
		c-3,2.1-5.7,4.6-8.6,6.8c-0.7,0.5-1.5,0.9-2.3,0.4c-0.7-0.5-0.8-1.5-0.4-2.2c3.4-7.5,3.2-15.9,5.2-23.7c1.7-6.7,3.3-13.6,5-20.3
		c1.9-7.5,7.5-12.6,13.1-17.4c3.4-3,4.8-6.8,1.9-9.8c-5.2-5.3-7.5-12.1-10.6-18.3c-3.4-6.9-1.6-14.7-0.3-22.1
		c0.1-0.6,0.8-1.5,1.2-1.5c5.7,0.4,2.9-3.1,2.6-5.5c-0.2-1.2-0.3-2.4,1-3.1c1.1-0.6,1.7,0.8,2.5,1c8.5,1.9,7.4,10.5,10.4,15.9
		c2.9,5.5,6.5,10.5,10.7,15c3.9,3.9,9.3,5.9,11,12.2c0.5,1.9,4.1,2.3,5.6,0.3c3.3-4.7,8.7-2.4,12.8-4.3c1.6-0.7,2,1.2,2,2.6
		c0,1.5-0.3,3-0.3,4.5c0,1.2,0.3,2.4,1.6,2.8c1.1,0.4,2.3-0.2,2.6-1.3c0-0.1,0.1-0.2,0.1-0.3c0.6-2.2,2.5-3.7,4.7-3.7
		c2.2-0.2,2.6-2.3,3.3-4c1.1-2.8,2.4-5.5,3.6-8.2c0.4-0.9,0.9-2,2.1-1.6c1.1,0.3,1.1,1.5,1.2,2.5c0.3,2.5-1.6,6.4,1.4,7.2
		c2.9,0.8,4-3.5,5.2-5.6c2.5-4.1,7.7-5,9.8-9.5c0.7-1.5,2.9-0.2,3.9,0.8c2,1.9,4.4,3.9,3.2,7.2c-1.7,4.8-3.6,9.6-6.6,13.7
		c-1.1,1.5-2.6,3.3-0.6,4.7c1.9,1.3,2.3-0.9,2.8-2.2c0.6-1.5,1.9-2.1,3.2-1c1.4,1.2,1.1,2.8,0.1,4.1
		C275.5,452.1,272.9,457.9,267,460.2z"/>
	<path id="X0069A9M2Gra6OT12_1_" class="st0" d="M233.4,279.3c1.6-6.6,0.8-7.5-4.8-6.5c-0.6,0.2-1.3,0.3-2,0.3
		c-2.2-0.1-5.3,1.5-6.2-1.3c-0.8-2.5,2.7-2.2,4.1-3.5c0.4-0.3,0.9-0.6,1.1-1c1-1.8,4.9-1.3,4.1-4.2c-0.7-2.5-3.5-1.1-5.3-1.4
		c-3.2-0.5-4.5-4-7.5-4.6c-0.6-0.1-0.7-1.1-0.3-1.7c0.5-0.7,1.5-0.9,2.3-0.4c8.5,4.7,16.6,0,24.8-1.1c2.8-0.3,5-2.5,5.2-5.3
		c0.1-2.8-2.2-4.8-4.6-5.3c-9.5-1.9-16.4-8.2-23.9-13.5c-4-2.9-8.5-5.1-11.2-9.5c-0.4-0.7-1.2-1.4-0.5-2.2c0.9-1.1,1.6-0.1,2.4,0.5
		c2.4,1.5,5.1,2.5,7.8,3.1c-7.8-8.3-16.5-15.7-21.8-25.9c2.1-1.9,4.5,2.7,5.9-0.9c1.1-2.9-1.1-4.2-2.9-5.7
		c-6.5-5.2-10.6-12.9-11.2-21.2c-0.3-2.5-1.7-4.2-3-6.1c-1-1.3-0.8-3.1,0.3-4.1c1.7-1.3,2.1,0.7,2.9,1.7c3.7,4.7,7.4,9.4,11.2,14
		c1.2,1.5,2.6,3.3,4.4,4c7.6,2.8,12.1,8.5,16.4,15.1c6.9,10.6,17.4,17.4,28.3,23.5c4.6,2.6,7.5,6.8,11.3,10.2
		c3,2.7,5.7,5.1,10.1,5.6c4.7,0.6,9.6,0.7,14.1,2.8c3.4,1.6,6.8-0.1,9-2.7c4.7-5.7,11.5-9.3,18.8-10.2c7.9-1.1,13-7.1,19.6-10.4
		c4.5-2.3,8.7-5.5,13.7-6.5c2.4-0.5,4-2.4,6.1-3.2c1.8-0.7,4.4-1.4,5.2,1c0.7,2.2-1.9,2.1-3.3,2.8c-5,2.8-9.9,5.9-13.3,10.7
		c-1,1.4-1.7,3-0.7,4.6c1.1,1.8,2.6,0.7,3.9,0c1.3-0.6,2.8-0.9,3.4,0.7c0.7,1.7-0.7,2.3-2.1,2.6c-3.6,1-6.1,4.3-10.2,4.5
		c-2,0.1-2.1,2.3-1.6,4.1c1.2,4.5-0.9,6.1-5.1,6.5c-6.5,0.6-12.3,4-18.9,4.3c-3.5,0.2-3.3,3.2-1.8,5.2c1.5,2.1,2.6,4.6,5,6.1
		c1.8,1.1,2.2,3.7,0.1,4.4c-3.4,1.3-7.1,3.4-11,1.1c-1.9-1.1-4.3-1.2-6-2.4c-7.4-5-15.8-2.2-23.6-3.4c-5.9-0.9-11,5.7-9.4,11.5
		c1.4,5.4,1.1,11.3,5.3,15.8c0.7,0.9,0.6,2.3-0.4,3c-0.1,0.1-0.1,0.1-0.2,0.1c-1.3,0.8-2.2-0.1-2.7-1.3c-1.3-2.8-2.5-2.8-4-0.1
		c-1.5,2.8-2.9,2-4.3-0.3c-2.1-3.6-4.8-3.6-7.6-0.7c-0.7,0.8-1.3,1.8-2.3,0.8c-0.9-1,0.1-1.7,0.8-2.4c2.5-2.5,0.8-3.5-1.6-3.8
		C241.6,276.5,237.8,277.5,233.4,279.3z"/>
	<path id="XE79CFFM2Gra6OT17_3_" class="st0" d="M351.9,346.1c3,0.2,5.7,1.6,7.5,3.9c1.7,1.9,3.6,4.7-1.9,4.8
		c-4,0.1-7.5,2.3-9.4,5.8c-2.7,4.7-7.1,7.5-11.4,10.6c-3.8,2.7-4.9,12.3-1.7,15.8c0.9,1,2.1,2,1.2,3.4c-1.2,1.7-2.7,0.6-4-0.2
		c-1.7-0.8-2.9-2.4-3.3-4.2c-0.3-1.2-0.4-2.9-2.2-2.9c-1.6,0-1.9,1.6-2.6,2.7c-0.7,0.9-1.3,1.9-1.8,3c-1.2,3.2-1.7,7.2-6.3,2.6
		c-1.3-1.3-3.5,0-5.2,0.7c-1.2,0.5-2.4,2.1-3.5,0.8c-1.5-1.8,1.3-2.1,1.7-3.4c0.6-2.3,2.8-2.6,4.5-3.5c1.7-1,3.5-2.6,2.7-4.8
		c-0.7-1.9-2.9-1.4-4.4-1.1c-4.8,1.1-9.8,1.6-13.4,5.6c-0.9,1-2,1.4-3,0.3c-0.7-0.9-0.3-1.8,0.4-2.6c5.3-6.6,11.8-10.7,20.5-11.1
		c1.8-0.1,3.6-0.5,5.3-1.2c2.3-0.8,3.8-2.9,3.9-5.4c0.1-2.4-1.3-3.9-3.5-4.9c-5.3-2.6-10-6.2-13.8-10.7c-1.7-1.9-4.1-2.1-6.1-3
		c-4.8-2.3-7.1-6.5-9.8-10.4c-1.7-2.5-3.6-4.3-6.4-1.9s-3.2,5.7-1.9,9.1c0.3,0.9,1.4,1.5,1.9,2.3c0.9,1.5,1.5,3.3,0.4,4.7
		c-1.5,1.9-2.5-0.3-3.7-0.9c-4-1.7-7.6-1.6-10,2.5c-1.8,3.1-4.5,4.2-7.8,4.7c-3,0.5-6,0.4-8.7,2.8c-2.5,2.2-12.4-1.6-13.7-4.6
		c-0.6-1.5,0.4-2.3,1.6-2.4c1.5-0.1,3,0.4,4.4,0.5c2.6,0,6.3,0.3,6.6-2.7c0.3-2.7-2.3-5.1-5.5-5.3c-4.1-0.3-7.6-2-9.7-5.3
		c-1.7-2.7-3.9-5.4-5.1-8c-2.7-6-8-8.7-12.5-12.4c-1.9-1.6-3.7-2.7-3.5-5.4c0.1-1.9-1.4-2.4-2.6-3.2c-1.1-0.7-1.6-1.8-0.7-3
		c0.7-0.9,1.9-1.2,2.9-0.5c0.1,0.1,0.2,0.1,0.2,0.2c6.6,5.8,14.2,9.8,22.4,13c7.1,2.7,11,9.8,16.1,15c5,5.2,10.5,4.3,16.4,3.9
		c0.3,0,0.8-0.3,0.8-0.5c0.2-5.5,6.2-8.3,6.2-13.7c0-2.4,0.9-3,3-2.4c1.2,0.3,2.4,0.4,3-1c0.7-1.5-0.3-2.3-1.3-3.3
		c-2.7-2.6-5.1-5.5-7.6-8.2c-0.6-0.7-1.2-1.3-0.6-2.1c0.5-0.8,1.5-1,2.3-0.5c0.1,0.1,0.2,0.1,0.3,0.2c4,3.5,9.4,4.8,12.6,10
		c3.6,5.9,10.6,9.1,16.9,11.6c7.8,3,13.2,7.7,15.9,15.6c0.4,1.2,0.8,2.9,2.6,2.4c1.6-0.4,1.6-2.1,1.4-3.4s-0.3-2.8-1.1-3.8
		c-2.3-2.8-2.7-6-3.2-9.3c-0.6-3.9-0.9-7.9-2.7-11.6c-0.7-1.5-1.2-3.7,0.3-4.7c3.4-2.2,2.7-5.3,2.6-8.4c-0.1-3.2,0.2-5.9,3.3-8.2
		c2-1.5,4.5-3.5,4.8-6.7c0.1-0.9,0.5-2.1,1.8-1.8c1.2,0.3,1.1,1.5,1.1,2.5s-0.1,2-0.4,2.9c-4.1,12.1-0.9,22.6,6,32.9
		c3,4.4,6.2,9.3,6.1,15.1C347.6,346.2,348.9,347.3,351.9,346.1z"/>
	<path id="XFF00FFM2Gra3Co7_2_" class="st0" d="M363.9,430.8c1.1-0.8,2.2-1.5,3.4-2c0.9-0.3,2.1-0.4,2.5,0.8
		c0.3,0.8-0.1,1.7-0.9,2.1c-6,4-11.1,9.3-17.7,12.4c-0.8,0.4-1.8,0.7-1.7,1.6c1.2,7.8-6.1,7.9-10,10.9c-1.8,1.4-3.3-1-4.8-1.7
		c-4.5-1.9-5.8-1.4-6,3.5c-0.2,3.6-1.3,5.2-5.1,4.8c-2.5-0.3-4.4,1.2-6.1,3c-0.9,1-2,2.1-3.4,0.9c-1.2-0.9-2.7-1.8-2.4-3.5
		c0.9-5.1-2.4-7.8-6-10.2c-2.7-1.6-5.2-3.6-7.5-5.8c-1.9-2-2.8-3.7,1-4.3c2.8-0.5,3.5-1.4,1.3-3.8c-3.2-3.5-7.7-6.5-2.7-12.4
		c1.6-1.9,0-6.4,0.3-9.7c0.1-1.6-0.2-4.4,2.2-4.3c1.9,0.1,1.5,2.6,1.9,4.2c0.7,4.5,3.8,8.3,8.1,10c0.5,0.1,1,0.3,1.4,0.6
		c2.8,2.4,5.3,5.2,9.4,5c4.3-0.2,5.3-4.5,7.9-6.8c0.7-0.6,1.3-1.1,2.1-0.8c1.1,0.4,1.3,1.4,1.3,2.4c0.1,1.6-0.6,3.6,1.6,4.3
		c2,0.6,2.8-1.5,3.9-2.6c3.7-3.6,8.2-6.3,11.5-10.3c1-1.3,3-2.8,4.3-1.7c3.8,3.1,5.1-0.3,7.1-2.1c3-2.8,6-5.7,9.1-8.5
		c0.9-0.8,2.1-1.5,3-0.2c0.7,1-0.3,1.7-0.9,2.5c-2.7,3.5-5,7.4-7.8,10.7C361.2,423.5,365.6,426.6,363.9,430.8z"/>
	<path id="XCCFFCCM1Color20_3_" class="st0" d="M19.4,15c8.8,0.9,17.4,2.6,25.8,5.3c6.7,2,13.6,3.1,20,6.1
		C73,30.2,81,33.7,88.9,37.1c9.5,4.2,17.6,10.1,25.6,16.4c8.6,6.8,14.6,15.9,21.7,24.1c9.6,11.2,16.3,23.9,22.8,36.9
		c2.6,5.1,3.3,10.7,6,15.7c2.6,4.9,1.4,9.6-2.7,13.6c-0.7,0.7-1.3,1.6-2.5,1.1c-0.9-0.4-1.5-1.4-1.5-2.4
		c-1.6-13.3-8.5-24.4-14.3-36.1c-8-16.2-18.9-30.7-32.2-42.8c-12.2-11.1-26.4-19-41.7-25.3c-10.8-4.5-21.7-8.9-32.8-12.5
		c-6.9-2.2-13.9-4.1-20.8-6.2c-1.7-0.5-4.9,0-4.5-2.6c0.3-2.1,3.2-1.7,5.2-1.9C17.8,15,18.3,15,19.4,15z"/>
	<path id="XCCFFCCM1Color20_2_" class="st0" d="M170.4,441.6c-1.7,12.3-4.3,24.3-6.7,36.5c-1.6,8.3-3.9,16.4-5.6,24.7
		c-4.2,21.3-5.9,43-10.3,64.3c-1.8,8.4-2.9,17-4.4,25.6c-1.2,7-4.5,13.6-4.6,20.8c0.1,1.9-1.3,3.5-3.1,3.6c-0.1,0-0.2,0-0.3,0
		c-2.4,0-2.6-2-3.4-3.6c-3.8-7.9-0.5-15.5,1.4-22.8c1.8-7.1,3-14.3,4.3-21.4c1.8-9.6,4.1-19.1,5.2-28.9c1.3-11.7,3.9-23.1,6.4-34.6
		c1.3-6.2,2.7-12.3,4-18.5c2.8-13.2,4.8-26.5,6.1-39.9c0.8-7.7,2.8-15.3,3.1-23.1c0-1.1,0.2-2.6,1.6-2.8c1.4-0.2,1.8,1.2,2.5,2.1
		C170.7,429.2,169.6,435.5,170.4,441.6z"/>
	<path id="XCCFFCCM1Color20_1_" class="st0" d="M131.8,644.4c-1.7,10.7-3,20.7-5,30.7c-0.8,4.1-1.5,8.2-2.2,12.2
		c-2.4,12.9-4,25.8-7,38.6c-0.7,3.6-1.1,7.2-1.2,10.9c-0.4,14.1-1.6,28.2-2.3,42.3c-0.2,4.5-3.1,6.5-5.8,8.6c-1.9,1.5-4,0.3-3.9-2.5
		c0.7-19.1-1.1-38.3,1.4-57.3c1.1-8.6,2.6-17.4,4.6-25.9c2.8-11.8,4.7-23.8,6.3-35.8c1.7-13.1,2.9-26.4,7.4-39
		c0.4-1.1,0.6-2.4,2.1-2.4c0.9,0.1,1.5,0.9,1.5,1.7C127.8,633,131.6,638.6,131.8,644.4z"/>
	<path id="XE79CFFM2Gra6OT17_2_" class="st0" d="M307,132.9c10-0.6,18.5,3.6,26.5,9c4.2,2.8,7,2.6,9-1.7c1.4-2.9,4.1-3.8,6.1-5.5
		c2.2-1.9,2.5,0.9,2.8,2.4c0.7,3.2,1.4,3.7,4.5,1.5c4.2-3.1,8.7-6.3,14.4-6c2.6,0.1,4.3-1.6,6.4-2.6c1.5-0.7,3.3-1.5,4.5,0.2
		c1.2,1.8-0.5,2.4-1.7,3.4c-2.4,2-1.3,3.4,1.1,4.3c1.2,0.5,2.9,0.4,2.6,2.4c-0.2,1.7-1.4,3.1-3,3.7c-7.9,2.9-15.5,6.4-22.9,10.6
		c-0.3,0.2-0.6,0.3-0.9,0.4c-9.1,0-12.5,7.4-16.9,13.3c-2.1,2.9-5.4,4.4-7.8,6.9c-1,1-2.4,1.6-3,3.1c-0.5,1.2-1.1,2.9-2.8,1.9
		c-1.4-0.9-1.5-3.2-0.2-3.9c2.4-1.3,2.5-4.3,4.8-5.5c0.9-0.5,1.7-1.2,1.1-2.4c-0.7-1.3-2.1-1.1-3.1-0.5c-2.7,1.5-5.3,3.2-7.9,5
		c-0.9,0.7-1.6,2-2.8,0.7c-1-1.2,0.2-2,0.8-3c2.3-3.1,5.7-4.9,8.5-7.4c6-5.2,5.9-5.6-1.1-9.2c-2.5-1.3-5.3-1.9-8.1-1.9
		c-7.7-0.2-14.7-2.1-20.6-7.5c-2-1.8-2.9-2.9,0.3-4c1.9-0.6,3.4-1.4,0.8-3.1c-1-0.6-2.3-1.2-1.8-2.6c0.6-1.6,2.1-2.1,3.7-2.1
		C302.6,132.6,304.8,132.8,307,132.9z"/>
	<path id="XE79CFFM2Gra6OT17_1_" class="st0" d="M250.2,59c8.8-2,15.4,3.4,20.5,11.1c2.9,4.3,5.6,3,8.7,1.1c1.3-0.8,2.2-2.1,3.8-2.2
		c1.8-0.2,4-0.6,4.9,1.4c0.8,1.9-1.5,2.2-2.5,3.1c-1.4,1.2-3.4,2.7-2.9,4.3c0.7,2.2,3.1,1.1,4.8,0.9c8.9-1.1,16.1,3.5,18.9,11.9
		c0.6,1.4,1.2,2.7,1.9,4c1.9,4.1,0.2,4.3-3.4,6.1c-7.5,3.8-9.5,0.8-12.3-5.7c-2.5-5.7-8.9-8.2-14.6-10.4c-4-1.6-7.7-0.7-9.7,3.5
		c-0.8,1.8-2.6,2.6-3.4,4.2c-1.5,2.7-2.7,3.7-4.8,0.4c-1.6-2.5-3.4-0.7-5.1,0.4c-1.3,0.9-2.8,2.7-4.3,1c-1.2-1.5,1-2,1.7-2.9
		c1.9-2.3,0.2-3.2-1.7-3.9c-0.8-0.3-1.8-0.4-1.8-1.4c-0.1-1.3,1-1.6,2-1.9c3.7-1,6.3-4.2,10.5-4.4c2.3-0.1,2.3-1.7,1.1-3.6
		c-3.3-5.2-10-7.3-15.6-4.8c-3.4,1.5-5,1.4-5.8-2.7C239.1,59.9,238.9,59.9,250.2,59z"/>
	<path id="XCCFFCCM1Color20" class="st0" d="M175.7,239.5c0.6-14.2-0.3-28.5-2.6-42.5c-1.3-8.7-3.3-17.3-6-25.7
		c-1.4-4.2-2.9-8.5-1.5-13.1c0.6-2.4,2.7-4,5.1-4c2.7,0,1.8,2.7,2.2,4.3c2.6,11,5.5,21.9,7.3,33c1.5,9.3,2,18.9,2.5,28.3
		c0.9,18,1.5,35.9,2.2,53.9c0.1,3.2,0,6.3-0.1,9.5c-0.1,2.1-0.9,3.9-3.5,4.1c-2.3,0.3-4.4-1.3-4.7-3.6l0,0c-0.6-4.3-1-8.6-1-12.9
		C175.6,261.5,175.7,252.2,175.7,239.5z"/>
	<path id="X4200A0M1Gra4OT23" class="st0" d="M195.2,335c-2.6,2.3-2.8,5.1-5.3,7c-3.2,2.4-1.8,8.7,2,10.4c2.3,1,4.7,1.8,6.9,2.9
		c1.6,0.8,4.5,0.9,3.5,3.8c-0.8,2.3-1.7,4.9-4.9,4.9c-3.7,0-6.5,0.3-1.9,4.1c1.1,0.9,1.3,2.5,0.5,3.7c-0.9,1.6-2.3,0.9-3.5,0.2
		c-1.3-0.8-2.8-1-4.3-0.6c-3.2,0.7-5.5-0.5-6.9-3.5c-1.4-2.9-2.8-3.3-4.1,0c-0.8,2.1-2.3,3.5-4.5,3c-2.9-0.6-1.9-3.2-1.7-5
		c1.6-14.5,2.6-29.1,2.8-43.6c0-1.7,0.3-3.4,2.3-3.9c2.3-0.6,3.2,1,4.2,2.6c1.2,2.2,1.8,4.7,1.6,7.2c-0.2,8.6,3.3,10.8,11,7.1
		C193.7,335.1,194.4,335,195.2,335z"/>
	<path id="XFF00FFM2Gra3Co7_1_" class="st0" d="M398.1,475.6c-7.6-3.1-13.9-7.2-18.5-13.6c-0.5-0.7-1.2-1.2-0.8-2.1
		c0.3-0.8,1.2-1.1,2-0.8c0,0,0.1,0,0.1,0.1c7.4,3.9,15.6,2.5,23.4,3.2c2.8,0.3,4.3,1,4.5,4c0.2,3.6,2.7,5.4,5.9,5.7
		c6.8,0.6,9.7,4.7,7.6,11.2c-0.8,2.4-2,4.5-2.2,7.1c0.1,1.2-0.9,2.3-2.1,2.4c-1.5,0.1-2.1-1.1-2.2-2.2c-0.4-4.8-4.7-6.1-7.6-8.6
		c-1.3-1.1-2.9-0.8-3.9,0.7c-1.2,1.6-2.2,3.3-3,5.1c-1.2,2.9-1.6,8-5.1,1.2c-0.3-0.8-1.3-1.3-2.1-0.9c-0.1,0.1-0.3,0.1-0.4,0.2
		c-3.9,2.3-9.2-0.6-12.6,3.5c-0.6,0.5-1.5,0.5-2-0.1c-0.1-0.1-0.1-0.2-0.2-0.3c-0.4-0.7-0.2-1.6,0.4-2c0.1,0,0.1-0.1,0.2-0.1
		c3.6-2.3,2.4-3.4-1-4c-1.3-0.2-3,0-3-1.8c0-2,2-1.8,3.3-2.3C385.1,479.1,391.2,476.4,398.1,475.6z"/>
	<path id="XFF00FFM2Gra3Co7" class="st0" d="M239.8,375.5c2.4,0,4.6-0.1,6.1,1.3c3.4,3.1,7.8,3.5,11.9,4.9c1.5,0.5,3.1,1.1,2.8,3
		c-0.4,2-2.1,1.5-3.7,1.4c-3.7-0.2-5,1.6-3,4.7c2.1,3.2,3.2,7,3,10.9c-0.2,1.7,0.4,3.4,1.7,4.5c0.9,0.8,1.6,1.9,0.5,3
		s-2.2,0.1-3.2-0.4c-5.4-3-7.6-8.1-8.3-13.9c-0.2-1.8,0-3.5-2.4-3.5c-2,0-3,1.3-3.3,3.1c-1.2,6.7-5.4,10-12,11.6
		c-3.7,0.9-7.2,3.1-10.7,5c-1.2,0.6-2.3,1.9-3.4,0.4c-0.9-1.2,0.2-2.2,1.1-2.9c5.4-4.3,10.3-9.2,14.5-14.7c1.3-1.7,2.6-3.1,1.9-5.3
		c-0.8-2.2-3.1-1.4-4.7-2.1c-5.2-2.3-10.2-2.6-15.5,0.1c-1.5,0.8-3.6,0.6-5.4,0.7c-1.6,0-3.2-0.3-3.3-2.3c-0.1-1.9,1.3-2.8,2.9-2.7
		c5.9,0,11.4-2.1,17.1-2.8C230.1,378.9,234.5,374.7,239.8,375.5z"/>
	<path id="XE79CFFM2Gra6OT17" class="st0" d="M436.4,348.3c-3.4,0.5-6.1-1.7-8.7-4.1c-0.8-0.8-1.3-2.2-2.7-1.7
		c-1.4,0.4-1.3,1.8-1.4,2.9c-0.2,1.6,0.1,3.7-1.7,4.3c-1.8,0.6-2.3-1.5-3.3-2.5c-1.7-1.7-3.8-1.9-6-2.2c-1.1-0.2-2.6-0.1-2.5-1.8
		c0-1.3,1.3-1.4,2.3-1.4c5.6-0.2,6.2-2.6,3.6-7.1c-2-3.6-4-7.4-3.4-11.8c0.1-1,0.2-2.2,1.1-2.6c1.2-0.6,1.7,0.5,2.3,1.3
		c1.6,2.3,2.4,1.4,3.4-0.6c1.6-3.5,3.2-2.7,4.6,0.2c2.8,5.4,8.1,8.2,12.7,11.7c1.5,1.2,3.6,0.5,5.1-0.7c1.6-1.3,3.4-2.7,5.2-0.6
		c1.6,1.8,2.4,3.9,1.1,6.4c-1.8,3.6-6.5,5-7,9.7C440.9,348.8,438.4,348.3,436.4,348.3z"/>
	<path id="X0069A9M2Gra6OT12" class="st0" d="M389.4,225.9c0-1.6,1-2.1,2.2-2c1.5,0.1,3.2,0.3,3.6,2c0.3,1.6-1.2,1.7-2.3,1.8
		C391.3,227.9,389.9,227.7,389.4,225.9z"/>
</g>
</svg>
