<?xml version="1.0" encoding="utf-8"?>
<!-- Generator: Adobe Illustrator 21.0.0, SVG Export Plug-In . SVG Version: 6.00 Build 0)  -->
<svg version="1.1" baseProfile="tiny" id="图层_1"
	 xmlns="http://www.w3.org/2000/svg" xmlns:xlink="http://www.w3.org/1999/xlink" x="0px" y="0px" viewBox="0 0 755.3 846.3"
	 xml:space="preserve">
<title>Anime10_13_573</title>
<g>
	<path id="X0069A9M2Gra4OT12_28_" fill="#FFFFFF" stroke="#000000" stroke-miterlimit="10" d="M554.6,0c0,6.8,2.6,12.9,4.6,19.2
		c1.3,4.4,1.8,8.8,0,13.1s-2.7,5.6-6.3,5.4s-4.8-3.1-5.5-6.1c-1.4-6,0.4-11.4,2.6-16.9s4.5-9.3,3.7-14.7C553.7,0,554.6,0,554.6,0z"
		/>
	<path id="XBD54E0M2Gra4OT1_2_" fill="#FFFFFF" stroke="#000000" stroke-miterlimit="10" d="M378.4,136c0.8,0.2,9.8,7.9,14.6,11.8
		c46.8,37,90.2,77.1,120,129.7c10.8,19.1,21.3,38.4,29,59.1c2.6,6.5,4.2,13.3,4.8,20.3c-13.5-5.6-27.6-9.9-41.9-12.9
		c-44.8-9.3-90.2-11.3-135.7-10.6c-51.4,0.8-101.2,10.8-150.1,25.9c-6.7,2.2-13.3,4.9-19.7,7.9c5.5-14.9,10.2-29,15.9-42.8
		c25-60.8,62.4-112.7,112.3-155.7c12.4-10.6,24.9-21.1,37.3-31.7C368.9,133.2,375,135,378.4,136z"/>
	<path id="XBD54E0M2Gra4OT1_1_" fill="#FFFFFF" stroke="#000000" stroke-miterlimit="10" d="M0,394c3.3-11.2,8-20.9,12.2-30.9
		c22.5-54,60.1-95.9,105.2-131.7c28-22.2,57.5-42.2,90-57.4c28.4-13.3,58.6-21,88.7-28.9c22.5-5.8,43.9-9.9,67.2-11
		c0.4,1.3-0.9,2.8-2.7,4.2c-51.2,39.2-94.6,81.9-127.4,138.2c-14.2,24.3-24.2,50.4-33.6,76.8c-1.9,5.3-4.1,10.6-5.9,15.9
		c-0.9,2.5-2,3.2-4.8,2.4c-27.2-7.8-54.9-9.9-83.1-7.7c-30.6,2.5-59.5,11-87.7,22.6L0,394z"/>
	<path id="XBD54E0M2Gra4OT1" fill="#FFFFFF" stroke="#000000" stroke-miterlimit="10" d="M380.6,135.3c-0.8-1.2,0.2-1.4,1.7-1.4
		c10.7-0.1,21.1,2.7,31.7,4c46.9,5.6,92.2,18,136.2,34.7c56.5,21.5,103.3,57,141.4,103.6c22.2,27.1,42.4,55.6,58,87.2
		c2.2,4.4,3.9,9.1,5.7,13.2c-55.2-36.4-114.5-42.9-177.3-25.9c-7.7,2.1-15,5.5-22.3,8.8c-2.1,1-3.3,1.1-3.6-1.8
		c-2-19-10.6-35.5-18.4-52.5c-23.5-50.5-59.7-91-100.7-127.7c-16.2-14.4-31.5-28.8-49.8-40.4C382.1,136.4,380.6,135.3,380.6,135.3z"
		/>
	<path id="XE655FFM2Gra4OT30_5_" fill="#FFFFFF" stroke="#000000" stroke-miterlimit="10" d="M383,339.7c0-3,0.7-4.1,3.8-4
		c30.2,0.3,60.3,1.5,90.2,5.2c3.7,0.4,5.4,2.4,7.2,5.2c12.6,19.9,19.1,42,23.8,64.8c1,4.6,1.9,9.1,3.1,13.6c1.2,4.5,0.2,4.2-3.5,3.5
		c-20.8-3.6-41.3-8.8-62.1-12.9c-18.7-3.6-37.5-5.8-56.6-4.9c-3.9,0.2-4.9-1-4.8-4.7c0.2-11,0.1-22,0.1-33
		C384.2,372.5,383.2,350.7,383,339.7z"/>
	<path id="XE655FFM2Gra4OT30_4_" fill="#FFFFFF" stroke="#000000" stroke-miterlimit="10" d="M669.7,401.3
		c-69.3-7-94.7-2.1-153.1,30c-7.5-30.4-10.6-62.3-31.6-88.9c9.7,1.2,19.4,3,28.9,5.5c12,2.9,23.7,6.8,35,11.7c2.1,1,4.6,1.1,6.7,0.1
		c16.9-7,34.6-12,52.7-14.9c10.6-1.7,18.6,0.6,26,8.2C648.2,367.4,659,383.9,669.7,401.3z"/>
	<path id="XE655FFM2Gra4OT30_3_" fill="#FFFFFF" stroke="#000000" stroke-miterlimit="10" d="M98.5,421.6
		c5.4-10.6,11.8-20.7,19.1-30.2c6.1-7.9,13.1-15.1,20-22.3c3.5-3.7,7.4-4.8,12.5-4.3c14.6,1.6,29,4.2,43.2,8c1.8,0.5,3.5,1.3,5.2,0
		c12.9-8.9,27.8-12.5,42.5-16.7s31.1-8.6,47-11.8l3.5-0.5c-14.9,23.9-21.8,50.1-28.7,76.3c-0.9,3.3-0.2,8.2-3,9.4
		c-2.8,1.2-5.9-2.1-9-3.2c-28.7-10.5-57.9-19-89-17.6c-19.7,0.9-39.1,4.6-57.7,11L98.5,421.6z"/>
	<path id="XE655FFM2Gra4OT30_2_" fill="#FFFFFF" stroke="#000000" stroke-miterlimit="10" d="M369,373.9c0,11,0,22,0,33
		c0,2.4-0.1,4-3.3,4.2c-32.4,2-63,11.9-93.8,21.1c-6.7,2-7.3,1.6-6.2-5.2c4.6-27.8,12.3-54.5,26.4-79.2c1.7-3.4,5-5.7,8.8-6.2
		c21.1-3.5,42.3-5,63.6-5.7c3.7-0.1,4.4,1.3,4.4,4.6c-0.1,11.2-0.1,22.3-0.1,33.5L369,373.9z"/>
	<path id="XE655FFM2Gra6OT30" fill="#FFFFFF" stroke="#000000" stroke-miterlimit="10" d="M363.8,751.9c-0.2-13.3,0.3-26.7-0.7-40
		c-0.2-2.4,0.9-4.6,2.9-5.9c4.7-3.5,13.7-3.8,18.5-0.4c1.6,1.1,2.8,2.3,2.7,4.5c-1.5,24.5,1.8,49,0.3,73.5
		c-0.7,12.3-2.4,24.6-6.9,36.2c-8.3,21.5-32.5,32.2-54.1,23.9c-7-2.7-13.1-7.2-17.7-13.1c-9.6-12-12.6-26.2-13.9-41
		c-0.7-8.3-1.1-16.6,0.9-24.9c0.4-1.9,1-3.9,1.8-5.7c1.6-3.8,3.7-7.4,8.5-7.2s8,3.2,9.6,7.6s1.5,9.2,1.2,13.8
		c-0.7,8.5-1.3,16.9-0.2,25.4c1.9,13.7,9.3,22.1,21.9,24.6c8.8,1.8,15.6-1.5,19.8-9.7s4.7-14.9,5.2-22.7
		C364.5,777.9,363.7,764.9,363.8,751.9z"/>
	<path id="XE655FFM2Gra4OT30_1_" fill="#FFFFFF" stroke="#000000" stroke-miterlimit="10" d="M624.7,346.1
		c47.7-0.8,92.7,7.3,130.6,39.2c-9.3,0.7-18.3,0.5-27.4,1.5c-14.4,1.7-28.4,5.9-41.3,12.5c-2.4,1.2-4.6,2.7-6.7,4.4
		c-5,4-5,4.1-8.5-1.7c-8.1-13.2-15.9-26.5-26.5-38.1C638.8,357.3,632.7,350.9,624.7,346.1z"/>
	<path id="XEC2AFFM2Gra1OT31" fill="#FFFFFF" stroke="#000000" stroke-miterlimit="10" d="M379.7,495.2c0,83.4,0,142.1,0,200.7
		c0,1.6,1.1,4.2-1.2,4.7c-2.6,0.6-5.3,0.7-7.9,0.1c-1.3-0.3-0.7-2.7-0.7-4.1c0.1-29.6,0.2-59.3,0.4-88.9c0.8-86.1-1-172.2-2.1-258.3
		c0-1.5-0.1-3-0.2-4.5c-0.4-6.7-0.4-6.5,6.4-6.7c3.5-0.1,4.4,1,4.4,4.5C378.8,401.8,380.1,460.9,379.7,495.2z"/>
	<path id="XE655FFM2Gra4OT30" fill="#FFFFFF" stroke="#000000" stroke-miterlimit="10" d="M140.9,364.5
		c-19.4,14.5-31.8,33-43.9,51.7c-1.8,2.8-3,3-5.7,1.6c-9.2-4.6-18.5-9.1-28-13.2c-19-8.3-38.8-10.2-59.3-7.6
		C46.9,376.4,90.9,361.2,140.9,364.5z"/>
	<path id="X0069A9M2Gra4OT12_27_" fill="#FFFFFF" stroke="#000000" stroke-miterlimit="10" d="M312.3,71.7
		c0.9,10.1,5.5,19.1,7.5,28.8c1,4.8,0.8,9.6-1.8,14c-1.6,2.8-3.7,5.5-7.3,5.1s-5.6-3.3-6.7-6.6c-1.4-4.8-1.4-9.9,0.1-14.7
		c0.8-2.7,1.7-5.4,2.8-8C309.4,84.4,312.1,78.5,312.3,71.7z"/>
	<path id="X0069A9M2Gra4OT12_26_" fill="#FFFFFF" stroke="#000000" stroke-miterlimit="10" d="M165.2,77.7c0.5,7.8,3,15,5.4,22.2
		c1.8,5.2,3.1,10.6,1.9,16.2c-0.4,2.3-1.3,4.5-2.7,6.4c-4.2,5.5-9.6,5-12.4-1.3c-2.8-6.3-2.3-11.4-0.4-17.1s4.2-10.9,6-16.4
		C163.9,84.4,164.6,81.1,165.2,77.7z"/>
	<path id="X0069A9M2Gra4OT12_25_" fill="#FFFFFF" stroke="#000000" stroke-miterlimit="10" d="M488.4,20c0.8,10.2,5.8,19.3,7.5,29.2
		c0.8,4.9,0.4,9.6-2.4,13.9c-1.5,2.4-3.6,4.7-6.8,4.3c-3.2-0.4-5.2-2.7-6.4-5.6c-2.2-5.5-1.7-11.1,0-16.6c1.2-3.8,2.8-7.4,4.3-11.1
		S488.1,25.1,488.4,20z"/>
	<path id="X0069A9M2Gra4OT12_24_" fill="#FFFFFF" stroke="#000000" stroke-miterlimit="10" d="M100.5,171.3
		c0.6,8.2,3.3,15.7,5.8,23.3c1.8,5.3,2.6,10.7,1.3,16.2s-5.3,9.5-8.8,8.9c-5.1-0.9-6.7-5-7.5-9.5c-1.1-6.7,0.7-12.9,3.3-18.9
		S100.2,178.4,100.5,171.3z"/>
	<path id="X0069A9M2Gra4OT12_23_" fill="#FFFFFF" stroke="#000000" stroke-miterlimit="10" d="M553.1,108c0.5,8.4,3.5,16.1,5.9,23.8
		c1.8,5.7,2.7,11.4,0.6,17.1c-1.4,3.8-3.6,7.7-8.3,7.3s-6.4-4.4-7.2-8.5c-1.2-6.1-0.1-11.9,2.2-17.6C549.1,123,552.7,116,553.1,108z
		"/>
	<path id="X0069A9M2Gra4OT12_22_" fill="#FFFFFF" stroke="#000000" stroke-miterlimit="10" d="M253.1,2.9c0.8,8.4,3.5,16.2,6,24
		c1.8,5.6,2.6,11.4,0.6,17.2c-1.3,3.7-3.5,7.4-7.9,7.4s-6.6-3.9-7.6-8.1c-1.5-6.6-0.1-12.9,2.4-19S252.8,10.6,253.1,2.9z"/>
	<path id="X0069A9M2Gra4OT12_21_" fill="#FFFFFF" stroke="#000000" stroke-miterlimit="10" d="M629.1,79.9
		c0.5,8.2,3.2,15.7,5.7,23.3c1.6,5,2.5,10,1.6,15.2s-5.2,10.3-8.9,10.1s-7.2-4.8-7.8-10.8s1.1-12.5,3.7-18.3S628.6,86.7,629.1,79.9z
		"/>
	<path id="XBD54E0M2Gra3OT1_1_" fill="#FFFFFF" stroke="#000000" stroke-miterlimit="10" d="M376.6,106.4c0,3.2-0.2,6.3,0,9.5
		s-1.1,3.8-3.9,4.3c-4.5,0.9-5.7-0.6-5.7-4.9c0-8.6-2.2-17.2-0.6-25.9c0.7-3.4,1.2-8.6,4.1-8.7s3.8,5.2,4.8,8.4
		C377.1,94.7,377,100.6,376.6,106.4z"/>
	<path id="X0069A9M2Gra4OT12_20_" fill="#FFFFFF" stroke="#000000" stroke-miterlimit="10" d="M293.1,39.2c0.9,6.4,3.1,12.4,5,18.4
		c1.7,4.6,1.4,9.7-0.7,14.1c-1.2,2.4-3,4.2-5.8,3.9c-2.8-0.3-4.3-2.2-5.1-4.8c-1.6-5.4-0.7-10.5,1.3-15.6S292.3,44.9,293.1,39.2z"/>
	<path id="X0069A9M2Gra4OT12_19_" fill="#FFFFFF" stroke="#000000" stroke-miterlimit="10" d="M226.9,84.5c1.2,6.5,3.9,12.6,5.5,19
		c0.9,3.6,0.6,7.4-0.8,10.8c-1.2,2.9-2.9,5.5-6.6,5s-4.5-3-5.2-6c-0.9-4.8-0.4-9.7,1.5-14.2C223.3,94.3,225.7,89.7,226.9,84.5z"/>
	<path id="X0069A9M2Gra4OT12_18_" fill="#FFFFFF" stroke="#000000" stroke-miterlimit="10" d="M638,164.2c0.4,6.6,2.9,12.6,4.8,18.8
		c1.3,3.8,1.4,7.9,0.2,11.7c-1.1,3.2-2.6,6.5-6.7,6.2s-5.1-3.7-5.6-7.2c-0.6-4.3-0.1-8.7,1.6-12.7
		C634.6,175.6,636.9,170.1,638,164.2z"/>
	<path id="X0069A9M2Gra4OT12_17_" fill="#FFFFFF" stroke="#000000" stroke-miterlimit="10" d="M418.1,62.3c0.6,6.5,3,12.4,4.8,18.4
		s1.5,9.5-0.6,14.1c-1.1,2.3-2.8,4.2-5.7,4s-4.6-2.3-5.3-5.1c-1.2-5.2-0.7-10.6,1.5-15.5C414.9,73,417.1,67.9,418.1,62.3z"/>
	<path id="X0069A9M2Gra4OT12_16_" fill="#FFFFFF" stroke="#000000" stroke-miterlimit="10" d="M389,8.3c0.5,6.2,2.9,11.9,4.7,17.8
		s1.7,8.8-0.1,13.2s-2.9,5.5-6.5,5.1s-4.8-3.3-5.3-6.3c-0.8-4.4-0.3-9,1.4-13.2C385.3,19.4,387.8,14.1,389,8.3z"/>
	<path id="X0069A9M2Gra4OT12_15_" fill="#FFFFFF" stroke="#000000" stroke-miterlimit="10" d="M586,48.1c0.6,6.4,3.2,12.3,4.9,18.3
		s1.5,9.5-0.9,14c-1.2,2.4-3,4-5.9,3.7s-4-2.1-4.7-4.5c-1.4-4.8-1.1-10,0.8-14.6C582.2,59.4,584.8,54,586,48.1z"/>
	<path id="X0069A9M2Gra4OT12_14_" fill="#FFFFFF" stroke="#000000" stroke-miterlimit="10" d="M504.5,90.1
		c1.1,6.5,3.6,12.5,5.4,18.7c1.3,4.3,0.8,9-1.3,13c-1.2,2.4-3.1,3.9-6,3.5s-4-2.3-4.7-4.6c-1.5-5.1-0.8-10.2,1-15.1
		S503.4,95.6,504.5,90.1z"/>
	<path id="X0069A9M2Gra4OT12_13_" fill="#FFFFFF" stroke="#000000" stroke-miterlimit="10" d="M198.9,120.3
		c1.3,6.4,3.8,12.3,5.5,18.5c1.1,3.9,0.8,8-0.8,11.7c-1.2,2.7-3,4.9-6.4,4.6c-3.4-0.3-4.4-2.8-5-5.5c-1-4.7-0.6-9.7,1.2-14.2
		C195.3,130.4,197.7,125.7,198.9,120.3z"/>
	<path id="X0069A9M2Gra4OT12_12_" fill="#FFFFFF" stroke="#000000" stroke-miterlimit="10" d="M162.8,9.5c1,6.4,3.5,12.1,5.2,18.2
		s1.1,9.5-1.5,13.9c-1.2,2-2.9,3.3-5.3,3.1c-2.4-0.2-4.2-1.9-4.9-4.3c-1.2-3.8-1.3-7.9-0.3-11.8C157.6,22.1,161.3,16.3,162.8,9.5z"
		/>
	<path id="X0069A9M2Gra4OT12_11_" fill="#FFFFFF" stroke="#000000" stroke-miterlimit="10" d="M118.6,57.1c1.3,6,3.6,11.5,5.2,17.3
		c1.2,3.9,1,8-0.5,11.8c-1.2,2.9-2.8,5.4-6.5,5.1s-4.6-3-5.2-5.9c-0.9-4.5-0.5-9.1,1.2-13.3C114.7,67.1,117,62.3,118.6,57.1z"/>
	<path id="XBD54E0M2Gra3OT1" fill="#FFFFFF" stroke="#000000" stroke-miterlimit="10" d="M352.9,132.1c4.5-7,11-9.6,18.4-9.6
		s13.6,2.3,18,9.6H352.9z"/>
	<path id="X0069A9M2Gra4OT12_10_" fill="#FFFFFF" stroke="#000000" stroke-miterlimit="10" d="M614.7,23.9c1.5,5.1,2.7,9.5,4.1,13.9
		c1,3.2,0.7,6.7-0.7,9.7c-0.8,1.8-1.8,3.8-4.3,3.5s-3.5-1.9-4.2-3.8c-0.9-2.5-1-5.2-0.3-7.8C610.9,34.3,612.7,29.4,614.7,23.9z"/>
	<path id="X0069A9M2Gra4OT12_9_" fill="#FFFFFF" stroke="#000000" stroke-miterlimit="10" d="M595.4,141l4,13.2
		c1.2,3.5,0.9,7.4-0.8,10.7c-0.7,1.5-1.7,3.1-3.6,3.1s-3.4-1.4-4.2-3.1c-1.5-3.4-1.6-7.2-0.3-10.7C592,149.9,593.7,145.8,595.4,141z
		"/>
	<path id="X0069A9M2Gra4OT12_8_" fill="#FFFFFF" stroke="#000000" stroke-miterlimit="10" d="M343.5,21c1.5,5,2.8,9.5,4.1,13.9
		c1,3.2,0.6,6.7-0.9,9.7c-0.8,1.7-1.8,3.4-4,3.2c-1.9-0.2-3.4-1.5-4-3.3c-1.7-3.9-1.1-7.9,0.3-11.7S341.8,25.3,343.5,21z"/>
	<path id="X0069A9M2Gra4OT12_7_" fill="#FFFFFF" stroke="#000000" stroke-miterlimit="10" d="M656.4,123.9
		c1.6,5.7,3.3,10.7,4.4,15.8s0.1,8-3.3,10.9c-1.1,0.9-2.7,0.8-3.7-0.2c-3.8-2.9-3.7-7.1-2.7-10.9
		C652.1,135.7,654.4,129.5,656.4,123.9z"/>
	<path id="X0069A9M2Gra4OT12_6_" fill="#FFFFFF" stroke="#000000" stroke-miterlimit="10" d="M530.1,49.9c1.4,4.6,2.8,9.2,4.1,13.7
		c1,3.1,0.8,6.4-0.5,9.3c-0.9,2-1.8,4.2-4.5,3.9c-2.7-0.3-3.7-2.2-4.3-4.4c-0.8-3.6-0.6-7.4,0.8-10.8L530.1,49.9z"/>
	<path id="X0069A9M2Gra4OT12_5_" fill="#FFFFFF" stroke="#000000" stroke-miterlimit="10" d="M204.2,36.5c0.6,5.8,2.4,10,3.6,14.2
		c1,3.2,0.9,6.6-0.4,9.7c-0.8,1.8-1.6,3.9-4.1,3.8s-4.1-2.1-4.7-4.5c-0.8-3.2-0.7-6.7,0.5-9.8C200.6,45.9,202.2,41.9,204.2,36.5z"/>
	<path id="X0069A9M2Gra4OT12_4_" fill="#FFFFFF" stroke="#000000" stroke-miterlimit="10" d="M456.1,101.3l4,13.4
		c1.1,3.4,0.9,7-0.6,10.2c-0.8,1.7-1.7,3.4-3.9,3.3c-2.1-0.2-3.8-1.6-4.3-3.6c-1.2-3.9-1-8,0.6-11.7L456.1,101.3z"/>
	<path id="X0069A9M2Gra4OT12_3_" fill="#FFFFFF" stroke="#000000" stroke-miterlimit="10" d="M89.3,124c1.5,5.3,2.8,9.8,4.2,14.2
		c1.1,3.4,0.8,7-0.7,10.2c-0.8,1.7-1.7,3.4-3.9,3.3c-2.1-0.2-3.8-1.7-4.3-3.7c-1.2-3.8-1-8,0.6-11.7C86.7,132.4,88.4,128.7,89.3,124
		z"/>
	<path id="X0069A9M2Gra4OT12_2_" fill="#FFFFFF" stroke="#000000" stroke-miterlimit="10" d="M136.4,148c1.4,4.6,2.6,8.9,3.9,13.2
		c1.1,3.3,1,7-0.5,10.2c-0.8,1.9-1.8,3.8-4.2,3.5c-2.1-0.3-3.7-1.8-4.2-3.8c-1-3.4-0.9-7,0.3-10.3
		C133.2,156.6,134.8,152.4,136.4,148z"/>
	<path id="X0069A9M2Gra4OT12_1_" fill="#FFFFFF" stroke="#000000" stroke-miterlimit="10" d="M265.9,110.2c1.4,4.8,2.6,9.1,3.9,13.4
		c1.1,3.4,0.9,7-0.7,10.2c-0.8,1.7-1.7,3.4-3.9,3.3c-2.2-0.1-3.6-1.7-4.3-3.6c-1.2-3.3-1.1-7,0.1-10.3
		C262.4,119,264.1,114.9,265.9,110.2z"/>
	<path id="X0069A9M2Gra4OT12" fill="#FFFFFF" stroke="#000000" stroke-miterlimit="10" d="M445.3,24.4l3.9,12.9
		c1.1,3.3,1,7-0.4,10.2c-0.8,1.9-1.7,3.8-4.2,3.7s-3.8-1.9-4.5-4.1c-1-3.7-0.7-7.7,0.8-11.2L445.3,24.4z"/>
</g>
</svg>
