<?xml version="1.0" encoding="utf-8"?>
<!-- Generator: Adobe Illustrator 24.1.0, SVG Export Plug-In . SVG Version: 6.00 Build 0)  -->
<svg version="1.1" baseProfile="tiny" id="图层_1"
	 xmlns="http://www.w3.org/2000/svg" xmlns:xlink="http://www.w3.org/1999/xlink" x="0px" y="0px" viewBox="0 0 747.2 1025.4"
	 xml:space="preserve">
<g>
	<path d="M0,684.2c2.7-0.6,2.5-3.1,2.7-4.8c2.2-20.2,6.5-40.1,8.9-60.3c1.3-11.2,1.9-22.6,4-33.7c0.3-1.8,1-3.5,1.6-5.4
		c1.6,1.2-0.1,3,1.5,4.2c0.2-0.7,0.3-1.2,0.4-1.8c4.7-23.7,9.9-47.2,14-71c4.5-26.1,7.5-52.4,10-78.7c2.3-24,3.3-48.2,8.9-71.8
		c3.7-15.5,1.4-31.2,1.9-46.7c1.3-43.9,3.9-87.5,16.2-130c13-44.7,34.2-85,67.7-117.8C176.7,28.5,223.4,6.2,278.2,2
		c16.9-1.3,33.9-2.5,50.9-1.8c11.5,0.5,22.6,3,33,8.6c-4.8-1.2-9.6-2.5-14.4-3.6c-31.1-7.5-60.4-1.7-88.6,12.2
		c-41.2,20.2-70.4,52.4-91.8,92.3c-16,29.8-24.2,62.1-29.2,95.5c-3.7,24.5-3.6,49.1-5,73.7c-0.4,6.2-0.2,12.7-6.9,16.6
		c0.7-5.4,3.9-10.2,4-15.7c-1.3-0.3-2.5,0.4-3,1.6c-3.2,7.8-10.3,13.7-11.2,22.6c-0.4,4.1-2.9,7.4-4,11.2c-1.5,4.8-1.9,9.8-1.1,14.8
		c0.2,1.2,0,3,1.8,3.1c1.9,0.1,1.9-1.6,2-2.9c0.4-7,2.6-13.7,3.5-20.7c0.5-3.9,1.7-7.5,5.6-10.1c-1.8,6-3.6,11.6-5,17.2
		c-4.6,19.2-3.3,38.3,1.2,57.4c0.9,3.7,3,3.6,5.5,2.6c2.6-1.1,7-0.7,5.3-5.8c-4-11.3-5.6-23.4-4.8-35.4c0.3-5.9,2.1-11.5,5.3-16.5
		c4-6.1,4.2-12.1,1-18.4c-0.6-1.2-1.2-2.4-1.6-3.7c-0.7-2.1,0.5-4.5,2.6-5.2c0,0,0.1,0,0.1,0c2.6-0.8,1.9,2.2,2.3,3.4
		c0.9,2.8,1.7,5.7,2.3,8.7c0.8,3.3,2.5,4.3,5.9,2.8c9.1-4,17.7-1.3,24.8,4.2c19.5,15.3,25.5,36.5,24,60.4c-0.1,2-0.3,4-0.7,6
		c-2,9.7-1.4,9,7.3,12.6c11.7,4.9,11.9,4.9,13-7.8c2.6-29.3-2.6-56.7-20.3-81c-9.5-13-21.9-20.6-38.6-19.9
		c-6.5,0.3-12.1,3.1-18.1,5.4c3.1-3.8,7.5-5.1,12-6.2c6.6-1.6,13.3-0.9,19.8,0.7c4.3,1.1,6-0.1,5.9-4.8c-0.6-36.8,2.3-73.3,11.1-109
		c10.5-43,29.6-81.6,61.3-113.2c22.3-22.5,50.8-37.9,81.9-44.1c9.2-1.9,18.6-2.1,27.8-0.4c9.7,1.8,19.5,3,29.4,3.6
		c5.2,0.3,10.3,1.3,15.1,3.1c24.9,9,47,22,62.9,43.8c3.5,4.7,7.9,8.5,13,11.4c56.1,33,93.1,81.5,114.3,142.6
		c6.8,20,11.8,40.6,14.9,61.5c0.8,5.9,0.9,12,0.4,17.9c-1.1,15.3-2.1,30.5-0.1,45.8c0.3,2,0.7,4.3-2.4,5.2c-1.6,0.4-0.9,2.3-1.1,3.5
		c-3.4,19.4-8.2,38.4-19.4,55.1c-0.8,1.2-1.3,2.7-3.7,2.9c2.2-4.2,4.4-7.9,6.3-11.9c0.8-1.7,2.6-3.7-0.5-5.4
		c-1.2-0.7-0.3-2.5,0.2-3.7c9.6-21.2,7.9-43.4,5.9-65.6c-0.4-4.7-0.7-9.5-2.7-15.5c-2,12.5-3.5,23.5-4.5,34.6
		c-1.1,13.6-4.1,27-8.9,39.8c-1.3,3.4,1.1,6.2-0.2,9.3c-1.7,4.1-3.8,8.1-6.3,11.9c-1.7,2.5-3.1,5.3-5.3,7.2
		c-5.4,5-5.1,10.4-3.5,17.1c13,51.9,32,101.5,55.9,149.2c0.7,1.3,1.3,2.7,1.9,4.1c0.9,2.2,2,3.6,4.8,2.8c2.2-0.6,4.3,0.3,5.2,3.2
		c-2.3,0.2-4.3-2.5-6.5-0.5c0.5,3.7,2.7,5,6.3,4.4c2.1-0.3,4.3-0.7,6.4-0.8c1.2-0.1,3.1-0.7,2.8,1.6c-0.2,1.8-1.9,1.7-3.2,1.2
		c-2-0.7-4.2-0.9-6.4-0.6c-2.1,0.3-2.4,1.2-1.3,3c7.1,11.8,14.2,23.7,21.3,35.5c0.4,0.9,1.2,1.6,2.2,1.9c3.6,0.5,7,1,3.7,6.1
		c-1,1.6,1.4,1.7,2.6,1.8c2.4,0.2,4.8-1.1,7.2-0.2c0,0.7,0,1.2-0.1,1.2c-6.8,3.5-6.8,3.4-2.9,9.8c6.5,10.7,13,21.3,19.4,32
		c1,1.7,3,3.4,0.1,5.4c-1.2,0.8-0.1,2.1,0.2,3.2c6.1,20.2,14.5,39.3,26.4,56.8c13.3,19.5,20.4,41.1,24.4,64.3
		c3.3,19.4,7.6,38.8,14,57.6c2.3,6.6,3.5,13.6,3.6,20.6c0,1.4,0.7,3.4-1.6,3.5c-2.2,0.1-1.8-1.9-1.9-3.3c-0.4-4.4-0.5-8.9-2.4-13.2
		c0.4,6.2,0.7,12.4,1.1,18.6c1.1,16.1,0,32.3-3.3,48.2c-0.6,2.8-1,5.7-2.2,8.2c-6.7,13.2-7.3,27.8-9.5,42
		c-1.4,8.9-2.4,17.8-4.7,26.5c-1.2,4.4-0.9,7.3,4.6,7.3h-31c-0.2-8.5,2.1-16.5,4.7-24.4c6.4-19.5,12.7-38.9,14.9-59.4
		c1.2-11.7,2-23.5,0.6-35.7c-2.2,2.1-3.3,5-3,8c0.7,12.3-0.1,24.7-2.2,36.8c-2,12.1-5.2,24-9.6,35.4c2.7-21.1,2.2-42.3,2.7-64.4
		c-11.6,7.9-20.9,16.1-22,30.4c-0.8,10.8,0.9,21.5,0.8,32.3c-0.1,13.7,3.2,27.3,5.1,41h-4c-0.1-5.6-1.5-11.1-4.1-16.1
		c-9-16.7-19.2-32.3-32.2-46.1c-8.7-9-18.2-17.2-28.4-24.6c10.6,2.7,15.6,5.8,21.3,13c0.7,0.9,1.5,2.6,2.6,1.7
		c3.5-2.9,3.9,0.9,4.8,2.3c10.5,17.2,24.1,32.4,33.8,50.3c-1.1-7.3-1.2-14.6-3.5-21.7c-6-18.1-16.4-33.8-26.7-49.5
		c-1.5-2.4-3.4-2.7-6.1-1.4c8.9,11.8,16.8,24.4,23.4,37.6c-2.3-0.6-4.2-2.2-5.1-4.4c-3.9-11-13.8-18.3-18.1-29.1
		c-1.5-3.8-5-5.1-9.4-5.3c-9.8-0.4-19.6-1-29.2-3.4c-19-4.7-34.4-15.5-48.3-28.9c-4.9-4.8-9.5-9.9-15.1-15.8
		c7,22.8,14,44.4,22.4,65.5c0.6-1.2,0.8-2.4,0.7-3.7c-1.2-11.1-0.8-22.3-3.1-33.3c-0.2-1.1-1-2.6,0.5-3.1c1.9-0.6,2,1.3,2.4,2.5
		c0.4,1.1,0.6,2.3,0.6,3.4c1.2,12.9,2.6,25.8,2.3,38.9c-0.1,3.7,0.4,7.3,1.5,10.8c6.6,20.6,15.6,40.3,23.7,60.3h-12
		c0.5-1.4-0.1-2.6-0.6-3.8c-2.9-7.1-5.8-14.1-8.5-21.3c-1.5-3.9-3.3-4.2-6.7-2.1c-17.1,10.5-35.6,17.9-54.6,24.2
		c-1.5,0.5-3.2,0.5-4.7,2.2c9.9,1,19.6-0.5,29.1,0.8H200c0.8-12.8-1.9-25.5-2.1-38.3c-0.1-0.5-0.3-0.9-0.6-1.3
		c-4.1,0.9-2.6-2.7-2.9-4.1c-1.2-5.2-2-10.5-2.5-15.8c-1.1-17.4-0.3-34.9-1.9-52.3c-0.1-1.2-0.6-3.2,1.3-3.1
		c2.2,0.1,1.5,2.2,1.5,3.5c-0.2,15.5,1.7,30.9,1.2,46.4c-0.1,3.1,0.1,6.6,4.6,2.3c2.1,9.2,3.2,18.7,3.3,28.1
		c0.3,10.1,0.8,20.3,1.1,30.4c0.1,4.7,3.5,3.6,6.1,3.5c3.8-0.1,1.8-2.9,1.5-4.4c-1.3-5.3-2.2-10.8-2.8-16.2
		c-1.7-20.8,0.5-41.6,0-62.4c-0.2-10.5-0.3-21-2.7-31.3c-5.6-23.5-13.7-46.2-22.8-68.5c-1-2.5-1.8-5.3-4.7-8.1
		c1.2,7.8,1.8,15.7,1.8,23.6c-0.6,32.8-0.4,65.6,0,98.4c0.2,14.8,1.2,29.6,3.1,44.3c1.1,8.4,3.6,16.6,3.3,25.2h-39
		c0.9-5.1,0.1-10.3-0.1-15.4c-1.1-22.6-2.7-45.3,0.3-67.8c2.4-17.9-0.5-36,2.6-53.9c-3.9-11,2.1-21.9,0.4-32.9
		c-0.5-3.1-0.4-6.3-0.6-9.8c-1.3,0.6-2.1,1.9-2.1,3.4c-0.8,7.7-3.4,15.3-1.9,23.3c0.5,3.5,0.1,7-1.4,10.3c-2,4.9-3.3,10.1-3.8,15.4
		c-0.3,3.7-1.1,7.4-1.9,11.9c-0.6-1.3-1-1.7-0.9-2c1.5-14.1,1.9-28.2,4-42.3c1.8-12.5,6.9-24.4,7.6-37.1c0.7-12.5,1.7-24.9,2.6-37.4
		c0.1-1.5-0.4-3.4,1.5-4.5c0.2,0.5,0.5,0.9,0.6,1.3c4.6,11.6,2.4,23.6,2.1,35.6c-1.1,40.3-2.8,80.5-6.4,120.7
		c-2.2,24.2-2.4,48.6-0.6,72.9c0.2,1.9,0.1,4,2.8,5.3c-3-73.6,8.1-146.3,8.1-219.4c0.9,10.5,1.1,21.1,0.7,31.7
		c-2.1,42.7-4.5,85.4-6.8,128.2c-1,18.5-1.7,36.9,0,55.4c0.2,2.2-0.3,6.3,1.8,6c2.9-0.4,1.1-4.1,0.9-6.3
		c-0.8-10.6-1.5-21.3-1.5-31.9c0-0.5,0.1-0.7,0.5-0.5c0.8,1.1-0.3,2.7,1.2,3.8c0.4-2.3,1.1-4.4,1-6.5c-0.6-16.5,2.4-32.9,2-49.4
		c-0.3-12.4,1.8-24.6,2.6-36.8c0.2-3.2-0.9-7.3,2.8-9.8c1.9,3.3,0.6,6.7,0.4,10.1c-2,24.7-5,49.4-4.7,74.2c0.1,8,0.5,16.3-1.2,23.8
		c-1.5,6.8-2.4,13.1-0.7,19.6c0.9,3.4-1.5,8.3,2,10c2.9,1.5,7.2,0.4,10.8,0.5c0.5,0,1,0,1.5,0c2.3,0.1,3.1-0.7,3-3.2
		c-0.5-18.6,4.4-37.5-4.5-56c2.4,1.5,2.5,4.1,5.1,4.5c0.7-9-0.3-17.7-0.7-26.4c-1-20.4-3.7-40.8-2.4-61.3
		c0.9-14.6,1.3-29.3,1.6-43.9c0-2.7,2.4-4.8,0.9-8c-15.8-34.5-28.9-70.1-44.3-104.8c-2.7-6-5.5-11.9-8.2-17.8
		c-1.4,5.2-2.2,10.6-2.5,16c-3.2,51.1-10.6,101.6-18.7,152.1c-6.8,42.8-12,85.8-10.7,129.3c0,1.2,0.2,2.3,0.3,3.5c0.6,0,1.1,0,1.7,0
		c1.6-34.8,0.4-69.7,6.7-104.1c-0.5,12.7-1,25.4-1.7,38.1c-1.5,26.2-1.3,52.3,3,78.2c0.4,2.2,0.6,3.9,3.1,4.4H75
		c-3.7-18.8-6.4-37.8-4.7-57.1c3.3-38.7,10.4-76.8,17.2-115c5.3-29.5,11.2-58.8,15.7-88.5c4.3-28.3,7-56.8,9.6-85.4
		c1.1-12.2,3.4-24.4-0.6-36.6c-1.1-3.4-0.8-7.3-1-10.9c-0.7-18.4,1.7-36.6,3.4-54.8c0.8-8.5,1.5-17,6.9-24.1c2-2.5,2.9-5.6,2.7-8.7
		c-0.5-13.1-1.7-26.3-3.6-39.3c-6-41.4-16.8-81.8-25.9-122.7c-1.6,1.2,0,3-1.6,4.5c-24.4-81.3-25.5-162.8-5.1-244.5
		c-5.9,11.7-10.2,24.3-14.1,37c-13.5,43.1-16.7,87.5-17.5,132.2c-0.8,48.5,2.8,96.8,1,145.4c-2,52-4.9,103.8-12.3,155.3
		c-8.7,60-20.9,119.3-37.9,177.5c-2.6,8.9-6.5,17.5-6,27.1c0.4,7.8,0.1,15.6,0.1,23.4c1.2-1.5,2.2-3.2,2.7-5
		c12.7-37.9,24.3-76,33.7-114.9c11.2-46.5,20.9-93.2,25.2-140.9c6.1-67.1,6.3-134.4,4.9-201.7c-0.6-27.6-4.9-55.1-6.2-82.7
		c-0.8-17.7-1-35.4,1.1-53.1c0.4,1.8,0.5,3.6,0.4,5.4c-1.2,62,5.7,123.3,16.1,184.3c5.5,32,8.4,64.4,8.7,96.9
		c0.4,54.3-9.4,107.3-24.5,159.4c-15.7,54.4-37.2,106.7-55,160.4c-4.4,13.4-7.7,26.6-7.6,40.9c0.2,43.3,0.8,86.6-0.3,130
		c-0.1,2.5,0.4,4.6,2.5,6.2c-3.4,0.9-3-1.3-3-3.5c0-33.5,0-67,0-100.5V684.2z M446.1,842.2c-5.4,0.9-7.1,5.7-8.8,9.5
		c-3.4,7.6-7,15-11.7,21.9c-2.7,4-2.6,8.2-0.7,12.9c1.9-1.8,3.1-4.3,3.3-6.9c1.1-8.5,7.4-14.4,11.7-21c3.5-5.4,6.8-9.9,6.1-16.4
		c2.8,0.4,4.5-1.2,5.3-3.5c2-5.8,2.4-12.1,5.4-17.6c0.5-1,0.2-2.2-0.8-2.7c-0.1-0.1-0.2-0.1-0.4-0.2c-1.3-0.4-1.5,0.9-1.9,1.8
		c-1.8,4.1-3.8,8.1-5.5,12.3C446.9,835.4,445.2,838.6,446.1,842.2z M136.3,425.7c-4.9-2.9-6.6-8.6-10.8-12.3
		c13.7,39.6,19.5,80.3,18.7,122c2.5-0.1,3.6-1.8,5.3-2.3c6.3-1.9,7.7-6.3,7.3-12.4c-0.9-14.6-1.2-29.3-3.2-43.8
		c-2.1-15.7-3.1-31.9-11.8-46c3.2,2.2,6.5,4.4,9.7,6.7c1.2-1.4-1.9-2.6,0-4c0.5,0.9,1.1,1.7,1.7,2.5c1.6,1.6,2.9,5.4,5.5,3.3
		c1.9-1.7,0.8-5.3-0.9-7.8c-0.6-0.8-1.5-1.4-2.4-1.7c-3.9-1.5-4.9-7.7-10.4-6.2c-1-7.3-8.4-10-11.5-15.9c-1-1.8-2.3-3-4.2-0.8
		c-1.6,1.9-2.3,0.2-2.9-0.8c-1.3-2.1-0.6-4.1,0.2-6.2c0.5-1.2,0.8-3.6-0.4-3.4c-4.9,0.6-2.4-2.6-2.6-4.4c-0.3-3-1.1-5.9-2.3-8.6
		c-3.5-7.6-5.7-15.7-6.6-23.9c-0.7-6.8-1.1-13.6-1.7-20.4c-0.1-1.5-0.3-3.2-2.4-3.1c-2.4,0.1-1.4,2.1-1.6,3.5c0,0.3,0,0.7,0.1,1
		c3,12.6-1.2,26.5,6.4,38.4c0.3,0.5,0.2,1.3,0.3,2c1.2,12.8,6.2,25,14.4,35C133,418.8,135,422.1,136.3,425.7z M616,673.1
		c-3.8-3.2-6.9-7.1-9.2-11.5c-7-13.4-12.6-27.5-16.9-42c-5.1-17.2-9.2-34.7-16.7-51.1c-1.2-2.6-2.2-5.3-5.1-6.4
		c3.7-4.4,7.4-8.9,11.2-13.3c1.1-1.2,1.9-2.7,2.5-4.2c3.4-9.1,0.3-17-5.5-23.4c-10.4-11.7-22.8-21.3-35.3-30.7
		c-13.6-10.2-28.4-18.3-42.9-27.1c3.5,0.5,4.3-0.8,2.9-4c-0.5-1.2-0.7-2.5-1.2-3.8c-0.4-1-0.8-2.5-2.4-1.7c-2,1.1-4.6,1.3-5.5,3.8
		c-0.5,1.6,0.8,2.2,2,2.9c1.5,0.8,3.6,0.9,4.3,2.9c-1.7-0.7-3.4-1.3-5.1-2c-4.4-1.9-9.1-3.2-13.9-4c-1.6-0.2-3,0.1-3.8,1.7
		c-0.7,1.5,0.5,2.1,1.4,2.8c6,4.7,12.1,9.2,14.8,17.1c1.9,5.6,5.7,10.5,8.6,15.7c1.6,2.9,3.6,5.1,7.3,5.3c4.3,0.2,5.6,2.7,4.2,6.4
		c-1.2,3.5-0.4,6.5,1.4,9.5c2,3.3,3.5,6.9,5.9,9.8c7,8.5,3.7,16.1-1.5,23.6c-2.2,3.2-5.1,5.8-8.4,7.8c-2.1,1.3-4.1,2.7-3.9,5.8
		c1.6-1,3.2-1.9,4.9-2.8c1.8-0.8,3.3-0.4,3.5,2c0.2,4.3,2.5,7.9,4.2,11.6c1.6,3.4,3.6,6.8,2.8,11.1c-2.7-7.4-5.8-14.5-11.5-20.5
		c-1.4,2.2-0.4,3.9,0.3,5.7c0.8,2,2.6,4.9,1.4,6c-3.3,3.1-0.8,5.7,0,8.3c1.7,5.4,3.7,10.7,5.4,16.1c0.7,2,1.4,4.1-0.3,6.5
		c-2.5-2.4-4.1-5.7-4.3-9.2c-0.4-4.9-0.8-9.1-7.3-10c-3.6-0.5-2.9-4.7-3.6-7.5c-0.3-1.3,0.2-2.4,1.8-2.2c3,0.4,3.6-1.7,3.5-3.7
		c-0.1-2.2,1-5.1-1.3-6.3c-2-1.1-3.6,1.1-5.1,2.3c0.5-3.7,2.7-6.7,4.1-10.1c1-2.4,2.1-4.1,5.1-5.2c8.1-2.9,13.6-14.5,11.4-22.3
		c-1.8-6.5-5.8-11.6-10.1-17.2c-0.8,1.9-1.3,3.3-1.9,4.6c-1-4.6-0.2-8.8,1-13c0.6-2,1.4-3.9-1.2-5.2c-3.1-1.5-5.9-0.5-8.3,1.5
		c-1.9,1.6-1.7,3.6-0.3,5.3c3.1,3.7,4.5,8.2,5.8,12.6c1.5,5.1,3.9,9.2,9.7,10.2c2.2,0.4,2.9,2,2.9,4.1c0,0.7-0.1,2.1-1.3,1
		c-3-2.8-2.4,0.5-2.6,1.6c-0.5,5.1-2.6,9.9-6.1,13.7c0.1-1-0.1-1.6,0.2-1.9c4.5-7.6,5.6-14.9-1.4-21.8c-0.8-0.8-1.1-2.1-1.6-3.1
		c-4.3-8.6-8.4-17.4-13-25.9c-3.1-5.9-8.1-5.6-11.5,0.3c5,1.7,10.1,4.1,10.6,9.9c0.6,7,4.2,11.7,9.3,15.8c1,0.8,2.8,1.3,2.6,3.5
		c-4.5-2.2-8.5-5.4-11.5-9.5c-4.7-6.4-9.5-12.9-14.3-19.2c-2.2-3-5.1-5.3-9-3.3c-6.7,3.5-13.2,7.5-18.6,12.9l0.1-0.2
		c-6.5-1.4-10.7,1.9-14,7c-3.4,5.2-6.7,10.3-10.2,15.4c-1.1,1.6-1.8,3.6-4.2,5c0-0.9,0.2-1.7,0.5-2.6c4.9-7.7,9.8-15.5,15.5-22.6
		c2.5-3.1,5.7-5,9.9-4.7c3.9,0.2,6.2-1.7,6.7-5.7c3.2,2.3,4.7-0.6,6.7-2.1c4.6-3.6,9-7.5,15.5-3.5c2.2,1.4,4.8-0.1,7.1-1.1
		c2.7-1.3,2.9-2.8,0.9-5c-4.8-5.1-16.7-4.7-21.4,0.6c-3.1,3.6-5,8.1-8.8,11.2c-0.4,0.2-0.9,0.1-1.1-0.3c-0.1-0.2-0.1-0.4-0.1-0.6
		c2.8-7,2.6-14.7,5.4-21.7c2.5-6.1,6.9-7.3,13.4-4.2c-7.2,1.6-10.9,5.8-11.7,12.9c3.4-0.5,5.5-4.7,8.8-4.2c4.4,0.8,8.6,0.2,12.9,0.4
		c1.6,0.1,3.7,0.1,4.2,2.1c1.5,6.5,7.9,9.8,10.2,15.8c0.3,0.7,0.8,1.6,1.8,1.2c1.2-0.4,1.2-1.5,0.8-2.5c-0.7-1.7-1.5-3.3-2.4-4.9
		c-5.8-9.7-12.8-18.7-20.8-26.8c-5-5.1-5.6-5-10.8,0.1c-18.1,17.7-37.8,33.7-58.7,48c-4.4,3.2-9.9,4.2-15.1,2.7
		c-14.2-3.6-28.1-8.1-41.7-13.5c-2.3-0.9-4.4-2-5.6,1.4c-2.1,5.9-3.7,11.8-2.5,18.1c1-4.4,1.8-8.7,2.6-13.1c0.2-1.2,0.7-2.4,2.2-2.1
		c0.8,0.1,0.8,0.9,0.6,1.6c-1.8,6-3.8,12.1-2.9,18.5c0,0.3-0.1,0.7-0.3,0.9c-5.8,4-0.7,4.5,1.9,5.3c20.8,6.5,42.3,8.7,64,9.7
		c4.8,0.2,8.8-1.5,11.2-6c0.5-0.9,1.1-1.7,2.3-0.9c-0.4,2.6-3.9,3.5-3.8,6.6c4.6-0.6,9.2-2.2,13.4-1.5c4.3,0.7,7.6,4.5,9.5,8.8
		c-5.8-5.4-12.5-7.2-20.5-6.2c-24.4,3-48-2.3-71.6-7.2c-2.3-0.5-6-3.6-6.8-0.6c-1.3,4.4,3.9,3.1,6.3,4.1c3.5,1.4,7.7,0.9,10.5,4.1
		c-6.7-0.3-13.3-1.2-19.6-3.9c-1.1-0.5-1.8-1.6-1.9-2.8c-0.1-3.6-2.6-4.6-5.5-5.5c-20.1-6.4-40.3-12.6-59.7-20.8
		c-1-0.4-2.2-1.4-3.2-0.5c-2.2,1.9-3.2,0.2-4.3-1.3c-2.4-3.4-6.4-5.3-10.6-5c1.8-4.1,4.4,0.1,7-0.7c-1.7-6.2-7.6-6.8-12.1-9.2
		c1.7,3.3,3.4,6.6,5.1,9.9c1.8,1,2.6,2.9,3.9,4.5c7.7,9.8,15.6,19.2,29,21.1c0.1,0,0.2,0.5,0.3,0.7c-4.3,1.1-8.8-1-13.3,0.6
		c0.7,1.2,1.8,2.2,3.1,2.8c9.2,5.6,18.4,11.4,27.7,16.9c27,16.2,54,32.4,76.3,55c4,4.1,8.7,5.4,14.1,2.5c1-0.6,2.3-1.4,3.1-0.1
		c0.8,1.3-0.2,2.6-1.4,3.3c-2.8,1.8-5.6,3.7-9.2,2.7c-2.8-0.8-4.4,0.5-5.4,3.1c-6.1,15.7-10.7,31.9-13.7,48.4
		c-0.7,3.8,0.8,5,4.4,5.3c7.6,0.7,15.3,0.7,22.9,0.2c7.4-0.4,14.5-2.7,20.7-6.7c3.7-2.4,4.8-4.7,1.5-8.3c-3.7-4-3.4-8.3-0.5-12.8
		c2.7-4.2,5.4-8.4,9.3-11.6c2.9-2.4,2.9-4.6,0.2-7c-6.2-5.5-6.8-12.2-4.3-19.6c2.4-7.3,4.6-14.6,7.3-21.8c3.1-8.6,4.7-17.7,9.5-25.7
		c1.6-2.7,2.3-5.3,1.4-8.4c3.3,2.3,3.6,4.8,0.8,7.8c-1,1.1-1.7,2.5-2.2,3.9c-6,15.7-11,31.7-15.8,47.8c-1.7,4.8-0.3,10.3,3.6,13.7
		c3.4,3.3,5.9,7.3,7.3,11.7c2,5.9,1.9,5.8,7.4,3.3c11.4-5.3,22.8-10.8,33.5-17.4c-10.5,11-42.6,26.7-52,24.7
		c2.2-0.9,4.2-1.7,6.2-2.5c4.2-1.7,5.5-6.3,2.6-9.7c-0.7-1.1-2.1-1.4-3.2-0.7c-0.1,0.1-0.2,0.1-0.2,0.2
		c-10.8,6.5-13.2,17.7-5.9,27.8c2.6,3.7,5.3,7.3,7.9,11c4.1,5.7,7.4,11.9,9.8,18.5c2.1,6,3.3,6.5,8.9,3.5c-0.8-1.6-3.8-0.6-3.9-3.4
		c4.9,0.9,9.7,2.1,14.8,1.5c23.4-2.5,42-14.1,57.9-30.6c8.5-8.8,8.4-8.9-1.1-16.6c-12.8-10.3-23.9-21.6-22.3-39.9
		c0.2-2.7-1.6-3.8-3.9-4.3c-2.4-0.5-5-1.4-6.9,1.1c-1.8,2.3-1.3,4.5,0.2,6.6c2.7-0.4,2.1-3.7,5.1-4.3c-2.9,6.9-7.7,12.8-13.8,17.2
		c3.6-5.5,8.6-10.4,5.9-18c-0.2-0.5,0.3-1.3,0.6-1.9c4.9-9.9,9.9-19.9,14.9-29.8c-1.8,6.7,0.1,12.5,3.7,18.4
		c5.6,9.2,10.7,18.8,13,29.6c0.2,0.8,0.2,2.2,1.7,1.8c2.6-5.9-0.4-12.7,3.5-18.3c2.9-4.1,10.3-11.3,13.2-12.9
		c-2.1,4.5-5.7,7.5-9,10.7c-3,3-4.5,6.5-3.7,10.8c0.5,2.6,0,5.4-1.3,7.7c-3.3,6.6-3,13.5-1.6,20.5c0.2,1.2,0.3,3.1,2.2,2.7
		c1.9-0.5,0.4-1.8,0.3-2.8c-0.1-0.6,0.1-1.3,0.5-1.8c6-5.6,6.6-13.2,6.9-20.4c0.2-4.9,1.8-8.1,5.5-10.9c9.1-6.8,16.1-15.3,20.4-26
		c3.3-8.2,8.4-15.5,15-21.5c0,2.7,0.6,5.3,1.5,7.8c6.1,17.6,13.2,34.8,17.9,52.9c4.3,16.6,12.8,31.7,16.5,48.6
		c4.5,20.7,9.9,41.1,21.7,59.2c2.2,3.4,3.1,7.5,2.6,11.5c-0.3,1.7,0.4,3.4,1.8,4.3c5.1,3.9,10.2,7.9,15.4,11.9
		c0.1-0.5,0.3-0.8,0.2-1.1c-0.8-2.3-2.1-4.6-2.5-7c-0.5-2.5-4.4-5.7-1.1-7.2c2.2-1,3.9,3.5,4.7,6c5.6,15.7,15.1,28.8,26.1,41
		c1.5,1.6,2.7,4.9,5.3,3.4c2.6-1.6,0.2-4.2-0.5-6.2c-0.7-2-1.9-3.9-2.8-5.9c-0.7-1.6-1.8-3.2-0.6-5.4c6.8,12.9,9.6,27.1,16.8,39.6
		c2.2-1.8,2.6-3.6,1-6.1c-1-1.7-1.7-3.6-2.3-5.5c-9.6-25.8-23.3-49.9-40.6-71.3c-3.5-4.3-7-8.6-9.4-13.5
		c-7.4-15.6-14.5-31.4-24.3-45.7c5.7,4.8,9.3,11.1,12.7,17.6c6.6,12.7,11.7,26.3,19.8,38.3c1-0.1,1.5,0.5,2,1.1
		c10.9,12.5,19.4,26.5,26.9,41.1c6.5,12.7,11.9,26,17.8,39c0.7,1.4,0.7,3.3,3.5,4.4c-5.5-14.7-6.7-30-13.3-43.7
		c-6.5-13.6-9.6-28.3-14.2-42.5c-0.6-1.7-2-4,0.3-5.9c3.7,4.9,3.8,10.8,6,16c14,32.4,19.5,67.3,30.2,100.7c0.7,2.1,0.1,4.6,2.1,6.5
		c0.9-2.8,0.9-2.8,0.6-4.3c-5-30.4-13.1-60.2-24.2-88.9c-0.5-1.3-1.7-2.6-0.8-4.2c0.1-0.2,0.9-0.2,1.3-0.1c2,0.7,2.1,2.4,2,4.1
		c-0.1,2.9,1,5.5,2,8.2c7.4,18.5,13.2,37.6,17.1,57.1c3,14.6,5.3,29.4,9.5,43.8c2.7,9,3.1,18.4,2.4,27.7c-0.3,3.1-0.9,6.2-1,9.4
		c-0.6,10.5,2,20.5,4.5,30.5c2.4,9.7,4.3,19.5,3.2,29.6c-0.2,1.6-0.5,3.8-2.6,3.7c-2.4-0.1-1.8-2.4-1.8-3.9c0.2-6.3,0.6-12.6,0.9-19
		c0.1-1.5,0.4-3.5-1.5-3.8c-2.2-0.4-1.8,1.9-2.1,3.2c-0.3,1.3-0.5,2.6-0.8,3.9c-5.3,24.2-11.6,48.2-11.7,73.3c0,1.5-0.1,3.2-1.9,4.3
		c-3-6.9,2.7-13.7-0.3-21c-4.1,8.2-4,16.7-6.4,24.6c0.3,0.2,0.7,0.3,1.1,0.4c4.3,0,8.7-0.3,13,0.2c5.4,0.6,7.8-1.2,8.9-6.8
		c5.8-30.4,8.8-60.9,7.4-91.9c-2.6-54.2-11.9-107-29.4-158.5c-20.2-59.6-51-114.5-77.2-171.4c-0.6-1.2-1.1-3.4-3.1-1.9
		c-1.8,1.3-0.1,2.6,0.6,3.8c2.7,4.3,2.7,4.3,1.9,7.7c-11.6-17.8-20.9-36.9-28-57c4.2,7.9,8.6,15.8,12,24.1c2.4,6,7.2,10.2,10.2,15.7
		c0.9,1.7,2.9,2.6,4.8,2.2c-2.8-5.3-5.4-10.4-7.7-15.7c-6.1-13.8-13.2-27.3-19.9-40.8c-1.9-3.5-3.5-7.2-4.6-11
		c-2.5-10.3-7.2-19.9-10-30.1c-3.9-14.3-9.4-28.1-13.3-42.4c-3.1-11.3-6.1-22.7-9.3-34.8c-7.7,7.8-14.7,15.3-18.7,25
		c-1,2.5-1.1,5.3-0.2,7.8c4.2,14.2,8.3,28.4,12.4,42.6c0.7,2.3,1.5,4.4,3.5,5.9c9,6.9,16.7,15.3,25.5,22.4c6.3,5.1,8.3,11.6,9,19.2
		c0.2,2.4-0.4,5-1.8,6c-6.6,4.4-4.7,9-2.6,15.4c8.7,25.6,19.6,50.2,31,74.6c14.1,30.3,29.3,60.1,41.1,91.4c0.8,2.1,2.3,4,1.6,7.1
		c-2.6-2.2-4.5-5.1-8.1-4.4c1.7-1.2,1-3,0.9-4.6c-0.6-6.1-2.3-12.1-4.9-17.7c-8.9-19.5-18-38.9-27.1-58.3c-0.7-1.5-1.2-3.1-2.8-4.1
		c-1.8,0.7-1.4,3.5-4.1,3.8c-3.1-10.9-9.6-20.8-9.9-32.7c-0.2-0.8-0.6-1.5-1.3-2c-1.8-1.6-2.3-3.7-2.4-5.8c-0.2-3-1-5.3-4.1-6.7
		c-2.2-1.1-3.4-3.6-2.8-6c1.1-4.4,2.8-8.5-3.3-10.5c-0.3-0.1-0.5-0.9-0.4-1.3c1.5-5.7-4.7-9.8-3.2-15.6c0.3-1.2-0.4-2.3-1.6-2.6
		c-0.2,0-0.3-0.1-0.5-0.1c-3.8,0.1-4.4-0.4-2.8-3.5c1.3-2.3,1.3-5.1-0.1-7.4c-6.6,4.6-7.2,6.2-4.6,11.4c4.9,10,8.9,20.4,11.8,31.2
		C592.3,623.2,599.8,649.8,616,673.1z M534.1,171.1c-2.2,1.9-0.3,3.8,0.3,5.4c16.6,43.6,27.1,89.3,31.2,135.8
		c2.2,26,2.8,51.9-2.6,77.6c-0.9,4.4-2,8.8-3.1,13.2c5.2-6.9,9.3-14.7,12.1-22.9c12.8-37,12.5-75.1,8.2-113.1
		c-3.6-32.1-15.4-61.8-30.4-90.3c-11.6-22-26.4-41.8-43.1-60.1c-0.7,0.6-0.4,1-0.2,1.4c8.9,15.8,16,32.6,25.4,48.1
		c0.9,1.5,2.3,3,2,5L534.1,171.1z M208.9,412.5c0-0.5,0.1-1,0.3-1.5c15-33,11.5-65.5-2.5-97.7c-6.5-15-17.4-26.4-32.1-34.2
		c-1.1,3.6,1.2,4.8,3.3,6.2c8.3,5.7,15.2,13.1,20.2,21.8c15.4,26.3,19.7,54.5,14.6,84.2c-2.1,12-6.4,23-15.6,31.7
		c-3,2.8-5,3.3-7.2-0.9c-2.7-5.2-5.8-10.1-8.7-15.1c-0.8-1.4-1.1-3.3-3.4-3c-2.1,0.2-3.8,1.6-4.4,3.5c-0.5,1.9-0.3,4,0.5,5.9
		c0.7,2,2.2,4,0.5,6.6c-1.8-2.1-2.9-4.6-3.3-7.3c-0.6-3.2-2.3-4.9-5.6-5.3c-9.7-1.1-17-6.3-22.6-14.1c-1.9-2.7-3.8-5.5-6-8
		c-1.7-2-3.8-2.3-5.1,0.6c-2.3,5.2-3.3,10.4,0,15.7c4,6.4,8.6,12.3,14.5,17.1c11.3,9.1,23.6,15.7,38.9,12.6
		c5.7-1.2,10.1-4.9,15.2-7.2c-7,8.4-16.6,10-26.8,10.6c6.6-0.3,13.1,3.6,19.4-0.5c1.3-0.8,3.2-1.7,3.8-0.1c0.7,1.8-1.5,2.2-2.9,2.6
		c-2.1,0.6-3.7,1.6-3.7,4c0,2.4,1.5,4.6,3.7,5.4c1.2,0.5,2.6,0.5,3.6,1.6c-0.5-0.1-1-0.4-1.4-0.3c-5.8,1.5-9.7,0.8-9.9-6.6
		c-0.1-3.1-3.6-3-6-3.3c-2.7-0.3-2.5,2-2.7,3.8c-0.1,1.4-0.2,2.9-1.9,3.1c-1.9,0.3-2.4-1.3-2.9-2.8c-1.5-4-4.5-6.7-8.3-9.6
		c-0.5,5.1-2.8,10.4,2.3,13.2c9.7,5.4,20.1,7.6,30.8,2.4c4.1-1.5,9.1-1,12.3-5c-0.8-0.9-2.4,0-2.9-1.4c2.1-1.6,4.3-1.6,6.4-1.9
		c2.4-0.4,4.7-1.2,5.7-3.5c3.5-7.7,9.8-13.9,11.8-22.4c1.3-5.2,5.5-8.6,8.8-12.5c-0.2,3.6-2.6,6-4.3,8.8c-2.5,4.1-2.7,5.1-1.6,8.9
		c1.7-1.5,2.1-3.8,3.3-5.5c7.4-10.4,7-22.9,8.6-34.5c4.3-32.4-1.7-63.2-20.6-90.3c-8-11.5-18.6-20.8-32.5-25.3
		c-4.1-1.3-8.4-2-11.2,2.3c-2.2,3.4,0,11.8,3.4,14.6c0.9-1.6,0.1-3.9,2.2-5.4c0.9,2.3,1.6,4.4,2.6,6.5c0.4,1.2,1.4,2,2.6,2
		c1.6-0.1,1.5-1.5,1.8-2.6c0.8-3,2.7-5.5,5.3-7c-1.7,3.6-3.3,6.2-3.2,9.2c0.1,4.1,4.7,7.8,1.2,12.3c-0.2,0.3,0.9,1.7,1.5,2.4
		c6.2,8.1,11.1,17.1,14.4,26.7c1.3,3.6,2,7.3,4.2,10.5l-0.2-0.2c-0.9,1.8-0.1,3.6,0.3,5.3c4.5,21.5,4.8,42.8-3.5,63.7
		c-0.4,0.9-1.8,2.2-0.2,3c3.7,1.7,1.7,4.3,0.4,5.6c-5.6,6-3.4,12,0.5,17.1c2.5,3.3-4.2,2.1-1.4,4.4c-1.5,1.3-2-0.5-2.6-1.1
		c-3.2-3.3-6.2-3.4-9.2,0.3c-0.8,1-1.8,2-3.6,1c1.8-3.6,3.4-7.2,8.4-6.7c1.6,0.2,2.1-0.5,2.1-1.9c-0.1-5.2,1.4-10.3,4.3-14.6
		c0.7-0.8,0.6-1.9-0.2-2.6c-0.1-0.1-0.2-0.1-0.3-0.2C210.7,409,210.9,411.5,208.9,412.5z M239.7,306.7L239.7,306.7
		c0.9,10.5,6,20,7.4,31.3c1.3-2.1,1.7-4.6,1.1-7.1c-1.5-9.6-1.7-19.2,0.9-28.7c0.6-2.8,1-5.6,1-8.4c0.9-17.8,3.1-35.4,5.6-53.1
		c2.4-17.1,9.8-33.4,9-51.1c7.1-20.8,14.5-41.5,27.3-59.7c0.5-0.7,0.8-1.9,3-1.3c-34.3,63.6-39.8,133.5-45.7,203.7
		c1.9-5.6,7.5-7.2,11-10.7c-2.2-2.3-7.4,1.1-6.9-4.7c0.6-7.5,0.7-14.9,2.1-22.3c4.1-20.6,11-40.4,18.3-60.1
		c6.5-17.6,10-36.3,17.9-53.4c18-39.4,42.7-74.5,72.6-105.7c12.2-12.7,26.1-23.7,44.9-27.1c-4.3-6.8-10.9,1.8-15.5-2.4
		c1.6-1.7,4.6-0.4,6-2.7c-13.7-1.6-26,0.8-37.4,8.4c2.1,2.1,5.3,1.7,6.9,4.1c-2.1,2.1-4.7,3.2-7.3,4.3c-7.7,3.2-15.3,6.4-21.7,12
		c-3.6,3.2-8.4,4.3-13.5,4.9c1.3-2.7,3.2-4.3,5-6c8.2-8.5,18.5-14.5,27.8-21.5c12.8-9.6,28.1-12,44.2-10.8
		c-3.8-6.3-9.1-9.2-16.3-8.6c-22.1,1.5-43.2,9.6-60.6,23.2c-1.3,1-2.5,2.2-3.8,3.3c7.9-3.2,14.2-8.9,22.4-11
		c-1.1,1.2-2.4,2.3-3.9,3.1C328.8,56,316.9,64.8,305,73.2c-12.9,9.2-22.1,22.5-31,35.7c-29.2,43-46.7,90.5-53.8,142
		c-1,7.1-2.5,14.2-1.2,21.5c1.1-7.3,2.2-14.5,3.3-21.8c0.7,3.3,0.7,6.7,0.2,10c-1.6,11.4-2.3,22.5,7.4,31.2c0.4,0.5,0.8,1.1,1.1,1.7
		C233.9,297.8,235.7,303,239.7,306.7z M379.5,269c4.2-6.5,10.2-11.3,15.3-17c11.6-13,21.8-26.4,25-44.5c5-27.9,11.3-55.4,9.1-84
		c-0.5-4-0.2-8,0.8-11.9c0.5-1.6,0.3-3.4-0.5-4.9c-2.3-4.6-2.5-9.6-2.3-14.6c0.4-10.3,0.1-20.7-3.1-30.6c-0.6-2-0.8-4.5-4.1-5.9
		c6,24.8,5.3,50.7-2.1,75.1c-1-1.7-0.4-2.6-0.1-3.5c4.2-17,3.6-34.3,3-51.6c0-1.3,0.2-2.8-1.5-3.3c-1.3-0.4-2.7,0.3-3.2,1.6
		c0,0,0,0,0,0.1c-3.7,8.6-8.5,16.8-11.4,25.8l0,0c-1.3,0.4-1.4,1.8-1.9,2.7c-13.6,27.7-28.1,54.8-45.2,80.5
		c-1.4,2.1-3.1,4.2-2.7,7.4l9.7-13.1l1.2,0.9c-16.6,23-32.3,46.7-50.6,68.6c4.5-6.6,8.9-13.1,13.4-19.7l-1.1-0.7
		c-12.7,17-24.9,34.3-39.3,50.9c13.2-4.9,16-6.7,23.4-16.3c8.9-11.7,21.1-19.8,31.8-29.5c5.5-5,11-9.9,16.5-14.8
		c-3,7.7-8.9,13.1-14.5,18.5c-5.6,5.4-13.2,9.3-17.3,15.6c-4.5,7-12.9,8.6-17.3,15c11.9-4.2,23.7-8.1,36.1-9.6
		c1.8-0.2,2.9-1.5,4.1-2.7c27.8-30,50.1-63.4,63.4-102.4c4.5-13.6,8-27.5,10.5-41.5c1.5,1.3,0.8,2.5,0.6,3.6
		c-1.7,12.9-4.8,25.5-9.2,37.8c-5,14.3-9,29.2-17.1,41.9c-10.6,16.7-21.9,33-35,48c-4.1,4.7-8.4,9.4-12.9,14.4
		c7.4,1.7,14.7,1.9,21.6,5.8c-0.7,0.2-1.4,0.4-2.1,0.5c-24.1-0.9-46.7,5.6-69.2,13.2c-19.7,6.6-32.2,21.9-45.3,36.5
		c-0.9,1.1-1.5,2.3-0.2,3.5c1.6,1.4,2.3-0.1,3.2-1.1c1.1-1.2,1.9-2.9,4.1-3.1c-1.2,3.9-5,5-7,7.8c1.7,1.4,3.5,0.8,5.1,1
		c9.5,1,18.7-1.4,27.8-2.9c29.5-4.9,54.8-18.8,77.9-37.4c1.4-1.1,2.5-2.7,4.6-2.8c-5.6,6.2-12.2,11.3-18.7,16.5
		c-14.4,11.6-32,15.9-49,21.7c-2.5,0.9-5,1.6-7.5,2.4l0.2,1.3c12.9-2,25.7-5.9,40-2c-6.1,0.7-11.2,0.2-16.4,1.9
		c14,2.1,16.6,1.6,23.3-4.3c0.7,1.2-0.8,3.4,2,3.7c3.3,0.4,6.5,1.5,9.7,2.2c4.4,0.9,8.9-0.6,11.8-3.9c16-17.2,29.8-35.8,35.2-59.4
		c0.6-2.6,1-5.4,3.2-7.6c3.7,11.3-21.6,55.3-41.9,73.2c2.2,0.8,4.3,1.8,6.3,2.9c3.4,2.2,5.2,1.5,7.2-2.1
		c11.4-20.4,20.6-41.8,28.8-63.6c3.1-8.4,5.4-17.1,6.9-26c-8.4,10.6-16.2,21.6-23.3,33.1c-12.9,20.8-30.5,36.3-53.2,45.9
		c-1.6,0.7-3.2,1.9-6,0.6c11.9-6.3,23.1-12.7,33-21c12.2-10,23.4-23.3,24.5-29C384.8,264.5,382.7,267.5,379.5,269L379.5,269z
		 M510.4,441c-5,15.5-0.8,26.8,13.2,35.4c5.1,3.1,10.3,6.1,14.9,10c0.9,0.8,1.7,2.1,3.5,1.3c-2.4-9.1-5.4-18-6.5-27.4
		c2.8,8.7,5.2,17.5,7.5,26.3c0.9,3.4,0.9,3.4,4,5c-4.5-15.2-8.8-30.1-13.3-45.1c-3.1,1.7-4.5,4.3-6.3,6.4c-1.7,2-2.7,5-6.2,5.2
		c9.8-9.1,12.5-19.6,7.8-31.9c-0.8-2-1-4.3-1.8-7.6c-1.7,3.1-2.5,5.1-3.7,6.9c-2.7,4.1-4.7,8.9-9.7,10.9c0.8-1.3,1.5-2.6,2.4-3.8
		c11.7-15.9,20-33.5,23.7-52.9c12.4-64.4,9.5-128.2-9.8-191c-0.6-1.9-2.1-3.8-0.9-6.8c0.7,1.9,1.3,3.2,1.7,4.5
		c2.4,8,4.9,15.9,7,23.9c8,31.3,13.2,63.2,18,95.1c0.5,3.6,1.5,7.1,0.7,10.9c-1.4,7.4-1.9,14.9-1.4,22.4c0.8,15.6,0.1,31.3-1.9,46.8
		c-0.9,6.5-0.7,12.8,2.3,19.3c0.6-1.6,1.1-2.6,1.4-3.7c8.9-26.8,9.2-54.3,6.4-82c-1.1-11-2.1-22.1-4.8-33.1
		c-2-8.1-2.7-16.9-4.4-25.4c-9-45.1-21.7-88.8-43.3-129.7c-10.2-19.4-22.2-37.1-41-49.4c-6.8-4.4-12-10.7-17.7-16.5
		c8.4,3.6,16,8.8,22.5,15.2c7.3,7.5,14.5,15.2,21.8,22.7c44.6,46.1,75.9,99.2,85.3,163.7c0.6,3.8,2.3,5.9,5.9,8.1
		c2.4,1.5,0.3,7,2.7,10.2c0.9,1.2,0.8,3.1,3,4.3c-1.3-8.8-2.5-17.2-3.8-25.6c-0.5-3-0.5-2.9,2.1-5.3c0.5-0.4,0.3-1.5,0.3-2.3
		c0-1.3-1.5-2.3-0.4-3.9c2.6,2.7,2.9,5.6,1.2,8.7c-1.3,2.4-1.2,4.7-0.6,7.2c1.9,7.6,3.3,15.3,4,23c0.5,5.7,0.1,11.7,3.5,17.3
		c1.6-3.9,1.5-7.6,1.7-11.2c0.8-16.4-1.5-32.6-4.1-48.5c-4.2-25.4-13.4-49.4-25.3-72.2c-27.2-52.1-66.9-91.2-120.7-115.5
		c-4.1-1.8-8.5-2.9-12.7-4.5c-2.3-0.9-2.7,1.1-3.8,2c-1.5,1.2,0.2,2,0.8,2.8c1.8,2.4,3.9,4.6,5.7,6.9c9.3,11.8,18,23.9,21.4,39
		c3.7,16.4,6.5,33,8.2,49.7c0.3,3.1,0.7,6.3,0.9,9.4c0.2,2.9,0,5.8,0,8.8c-1.3-17.8-5.7-34.8-10-51.9c-4.9-20-11-39.5-23.8-56.1
		c-1.7-2.2-1.7-2.2-4.4-1c-0.4,0.2-1.2-0.2-1.7-0.5c-2-1.1-2.9-3.4-2.2-5.6c0.7-2.4-1-3.2-2.7-4.1c-0.9-0.4-1.9-1.2-2.7-0.3
		c-1,1.4-0.1,2.9,0.4,4.3c6.2,18.4,7.7,37.5,7.6,56.7c-0.2,30.4-4,60.4-10.6,90.1c-10.2,46.3-25.4,90.6-52,130.4
		c-0.3,0.5-1,1-0.2,2.1c8-5.3,15.7-10.9,23.3-16.8c7.6-5.9,14.5-12.7,21.6-19.1c-5.1,9-11.5,17.3-18.8,24.5c-4,3.9-7.9,8.2-13.5,9.9
		c-0.1-3.4-1.9-2.9-4-1.7c-1.9,1.1-3.6,2.4-5.5,3.5c-5.6,3.5-5.6,3.5-1.5,8.4c0.7,0.9,2.3,1.6,1.1,3.5c-0.8-0.6-1.6-1.2-2.4-1.8
		c-0.8-0.6-1.5-1.4-2.7-0.6c0.4,1,0.7,2.1,1.5,4.3c-9.6-8.9-21.9-14.4-34.9-15.4c3.8,10.3,3.7,20.3,3.1,30.3
		c-0.8,14-6.5,21.3-20,25.1c-1.8,0.5-2.7,2.3-5.3,1.8c-8.2-1.3-16-4.7-22.6-9.8c-1.4-1.1-3-2.4-4.7-2.8c-5.1-1-7.5-4.6-9.6-8.7
		c-1.2-2.4-2.4-4.7-3.5-7.2c-1.7-3.8-4.2-5.3-8.4-3.7c-3.5,1.4-6.8,0.6-9.7-2c4.2,1.4,7.8-0.3,11.5-1.6c1.3-0.4,2.7-0.7,2.6-2.5
		c0.1-1-0.5-2-1.5-2.4c-1.5-0.5-2.2,0.5-2.8,1.5c-2.4,3.6-5.5,2.2-8.5,1.3c-0.6-0.2-1.1-0.7-1.3-1.2c-0.2-1,0.8-1.2,1.5-1.6
		c3.1-1.2,6.2-2.5,9.2-3.8c1.4-0.6,2.7-1.6,2.7-3.3c-0.1-2-2-1.8-3.4-2.1c-5-1.2-6.5-2.3-8-6.1c5.9,3,12.9,3,18.9,0.2
		c3-1.4,5.7-3.4,8.7-4.9c7.4-3.8,7.4-3.7,3.5-10.6c-0.1-0.2,0.1-0.6,0.3-2.1c14.6,10.3,29.4-0.1,44.2,1.7
		c-17.6-1.6-35.2-1.7-52.8-2.3c-11.9-0.4-19.2,6.3-26,14.2c-2.3,2.7-3,6-3.1,9.7c-0.1,9.8,1.5,19.7-0.2,29.4
		c-2.8,16.2-3.3,32.4-3.3,48.7c-0.1,3.3,1,6.6,3,9.2c4.3,5.6,8.5,11.4,12.7,17.1c-4.7-2.3-6.5-7.7-11-10.8
		c-3.6,19.7,0.4,36.8,13.3,51.8c7.9,9.1,16,17.8,28.8,19.8c-9,0.5-17.4-1.8-26-4.8c1,3.3,2.2,5.5,5.2,6.7
		c20.5,7.8,41.1,15.3,62.1,21.6c3.4,1,4.5,0.3,4.5-3.3c0-7.4,0.9-14.7,3.7-21.5c1.7-4.2,0.9-5.9-3.4-7.7
		c-26.1-11.3-50.5-25.3-71.4-44.9c-2.2-2.1-5.2-3.6-6-7c4,2.4,6.8,6.2,10.4,9.2c34.5,29.2,74.4,47.4,117.6,59
		c6.8,1.8,12.6,0.7,18.3-3.4c17.1-12.2,33.5-25.3,49.2-39.2c15.8-13.9,24.6-31.8,30.6-51.5c2.5-8.2,1.9-16.8,3.8-25.1
		c2.6-11.1,4.9-22.4,10.3-32.6c0.2,3-1.9,5.7-1,9.4c1.7-4.4,3-9,3.9-13.7c-1.2,1.3-1.7,1.9-2.3,2.4c0.5-3.6,1.9-7.1,4.2-10
		c0.8-1,2-2.8-0.2-3.8c-1.5-0.7-3.3-1.1-4.4,0.8c-0.6,1-0.9,2.2-1.5,3.2c-3,5.2-6.1,10.4-9.2,15.6c-1.1-9.2,4.9-19.4-5.5-26.3
		c-0.4,2.5-0.5,5-0.2,7.5c0.8,8.2-0.5,16.4-3.6,23.9c-5.2,12.6-14.9,18.8-26.6,19.5c-8.6,0.5-13-3.1-14.9-11.5
		c-1.9-8.8-1.8-18,0.5-26.7c1.1-4.6,3.4-9,8.3-11.2c-6.4,9.5-9.8,19.9-8.9,31.5c0.7,9.1,6.8,16.4,13.7,16.3c4.2,0,8.3-1,12-2.9
		c14.5-7.7,22.9-30.4,16.8-45.9c-1.7-4.4-5-6.3-9.5-6.8c-9.3-1-17.4,1.4-24.3,7.9c4.8-6.9,11.7-11.5,19.3-17.1
		c-7.9,0.7-15.1-0.9-19.5,6.3c-0.3,0.8-1.2,1.1-1.9,0.8c-0.2-0.1-0.4-0.2-0.6-0.4c-0.8-0.8-0.2-1.5,0.3-2.1c0.6-0.7,1.9-0.9,1.1-2.4
		c-7.6,0.2-15.2,1.7-22.9,1.1c-8.3-0.7-16.6,1.2-23.8,5.6c-7.5,4.5-15.7,7.9-24.9,4.5c2.1-1.1,3.8-3.3,6.6-3.6
		c2,0.7,3.8,0.3,5.7-0.3c12.8-4.1,24.4-11.4,33.7-21.2c1.2-1.3,2.2-2.9,4.2-3.3c-3,3.5-6,7.1-9.2,10.5c-2.4,2.5-0.6,3.5,1.4,3.7
		c3.6,0.4,7.3,0,10.9,0.2c3.8,0.2,6.6-0.7,7.4-5.1c-0.9,0.4-1.8,0.8-2.8,1.1c-0.8,0.2-1.5,1.5-2.8,0c13.2-11.1,18.9-26.4,23.7-43
		c-8.8,11.6-18.5,22.5-28.8,32.8c0.1-1.8,1.3-3,2.4-4.3c4.5-5.6,8.4-11.6,11.7-18c13.8-27,21.1-55.9,24.3-85.9
		c0.7-6.7,1.6-13.4,0.8-20.2c-2,17.2-4,34.3-8.6,51c1.8-7.3-0.2-15,1.9-22.3c5.7-20.2,5.8-40.7,4.3-61.4c-0.4-5.7-1-11.3-1.4-16.9
		c14.7,54.8,3.1,106.5-18.8,157c24-28.8,40.8-60.4,40.2-99.2c2.6,4.6,1.1,9.2,1.1,13.7c-0.1,17.2-1.6,34.3-4.7,51.2
		c-0.3,1.6,0.1,4.7-2.2,4.2c-2.7-0.7-0.4-3,0.1-4.4c1.3-4.4,2.2-8.7,1-13.6c-6.1,5.6-8.7,10.8-12.7,22.8
		c-6.1,18.6-14.5,36.1-27.2,51.3c-0.4,0.5-1.1,0.9-0.4,1.7c0.1,0,0.3,0.1,0.4,0c17.8-11.6,29.9-28.2,40.5-46.1c1.3-2.3-0.1-3-2-3.2
		c-2.5-0.3-5-0.3-7.9-1.5c3.7-2.1,7.2-2.3,10.7-2.4c1.8,0,3.2-0.4,4.1-2.2c6.7-13.4,14.3-26.6,15.2-41.9c0.6-8.9,2.1-17.7,4.5-26.3
		c-1.8,22.8-1.4,45.7-6.2,68.2c-1.2-8.8-0.9-17.8,0.8-26.5c-6.2,10.6-4.8,22.1-4.4,33.5c0.1,2.2,2.8,3.1,5.1,3.3
		c2.1,0.2,2.2-1.5,2.5-3c7.5-34.4,8.6-69,2.1-103.7c-5.5-29.8-17.1-56.6-38.6-78.5c-6.6-6.8-13.6-13.3-18.9-21.3
		c-1.2-1.8-2.2-3.6-3.3-5.4c16.4,9.8,28.1,23.7,37.8,39.5c23.1,37.5,30.7,78.6,29.1,122c-0.2,6.3-0.3,12.6,1.2,18.8
		c7.2,30,9.5,60.5,9.1,91.2c0,2.6,0.7,5.7-2.5,9c1.1-5.9,0.4-10.5,0.4-15.2c-0.1-10.7-0.2-21.3-1.1-31.9c-0.4-4.5-2.1-7.8-6.7-9.3
		c-0.1,0.4-0.1,0.8-0.1,1.2c2,17.2,5,34.2,5.1,51.6c0,2.3-0.5,5.4,0.7,6.8c1.9,2.2,1.4,3.6,0.4,5.6c-0.3,1.1-0.3,2.3,0,3.4
		c0.8,7.5,0.7,15-0.3,22.4c-2.1,17.3-8.5,33.5-13.3,50.1c-0.4,1.3-0.7,3-2.2,3.2c0.8-14.6-3.4-28.8-3.4-44.2
		c-2.7,2.5-2.3,4.7-2.4,6.6c-0.4,10.2,0.2,20.3,1.7,30.4c0.5,3,0,6.7,1.6,8.7c2.4,3,0.5,3.9-0.8,6.1c-2.6-9.6-3.8-18.8-5-28
		c-0.7,2.9-1.2,5.9-1.5,8.9c-1.1,9.9-1.6,20-7.1,28.8c-1.1,1.8-3.9,3.3-1.1,5.9c2.6,2.4,5.4,3.1,8.7,1.3c3.6-2,5.5-5.4,6.4-9.2
		c1-3.9,2.4-7.6,4.3-11.1c3.1-6.2,5.9-12.7,8.1-19.3c3.5-9.9,6.3-20,8.3-30.3c2-10.1,3.4-20.3,5.3-31.4c0.1,20.8-1,41.5-3.5,62.2
		c7.7-23.3,7.6-47.7,9.9-71.8c0.9,5.9,1.1,11.8,0.7,17.7c-1,10.7,3.2,21.1,0.4,32.1c-3.9,15.3-9.7,29.2-19.9,41.4
		c6.2-11.9,7.7-24.4,6.6-37.5c-5,16.9-6.4,34.9-17.9,50.6C504.7,447,506.7,442.8,510.4,441z M445.8,777c1.7-0.1,2.7,1.1,3.9,1.9
		c29.6,19.6,54.3,44,73,74.2c14.3,23.2,34.2,42.5,58,56c6.8,3.9,13.6,7.8,21.3,9.7c2.4,0.6,4.9-0.6,7.1,1.2c6.4,5.3,14,7.5,22.2,7.7
		c8.5,0.1,17.1,0,26.5,0c-8.1-1.5-15.3-2-22.6-2.7c-5.8-0.5-11.8,0.1-17.2-2.5c-8.8-4.2-16.2-10.4-23.4-16.9
		c-0.7-0.7-1.3-1.5-1.7-2.4c-0.4-0.9,0-2,0.8-2.4c0.1,0,0.1-0.1,0.2-0.1c0.7-0.4,2.2-0.8,2.2-0.2c0.5,3.6,4.4,4.1,6,6.8
		c3.8,6.6,11.3,9,17,13.6c0.8,0.3,1.6,0.4,2.4,0.2c9.2-1.3,18.2,1.8,27.4,1.2c2.2,0,4.3,0.6,6.2,1.5c2.3,1,4.8,1.5,7.3,1.2
		c2.7-0.3,5.2,0.6,7.7,1.6c6.4,2.5,15.5,1.3,18-7.6c1.9-6.6,4.4-12.9,6.6-19.3c0.7-1.8,0.4-3.9-0.8-5.4c-3.5-4.9-2.8-10.7-2.3-16.4
		c0-1,0.7-1.8,1.7-1.8c0.1,0,0.2,0,0.3,0c1.1-0.1,2,0.7,2.1,1.7c0.1,1.3-0.1,2.6-0.3,3.9c-0.7,4.1-1.2,8.2,0.8,12.9
		c0.7-1.6,1.1-2.6,1.5-3.6c3.2-9,3.5-18.1,2.3-27.5c-0.5-3.9-1.1-4.4-4.1-1.6c-0.1-1.3-0.1-2.1-0.2-2.9c-0.6-12.8,2.7-26-6.5-37.8
		c-4.3-5.5-7.5-12.3-12.5-17.1c-10.1-9.5-18.7-19.8-25.1-32.1c-4.4-8.4-11.6-14.1-19.4-19.1c6.2,8.3,12.3,16.6,17.5,25.5
		c5.3,9.1,10.7,18,20.2,23.5c0.1,0-0.1,0.5-0.2,0.9c-2.1-0.5-4-1.5-5.6-2.9c-5.4-3.9-21.1-27.1-24.6-33.4c-5.3-9.4-13.5-16-25-19.7
		c1.6,3.6,2.4,6.6,3.9,9c5,7.7,8.6,16.2,14.2,23.5c0.9,1.2,2.3,2.8,0.7,3.9c-2,1.3-2.3-1.1-2.9-2.2c-6.5-10.9-14-21.3-18-33.3
		c-4.1-12.3-11.8-21.8-19.7-31.4c-0.8-1-1.3-2.7-3-2.2c-1.3,0.4-1.2,1.9-1.5,2.9c-5.6,21.8-15.6,41.7-26.8,61
		c-2.5,4.3-4.3,7.2-0.8,12.5c6.1,9.4,10.1,20.2,14.2,30.7c0.4,1.1,1.7,2.2,0.5,3.6c-2.1-0.4-2.4-2.1-3-3.6c-0.4-1.1-0.5-2.5-2.2-2
		c-4.5,1.3-3.7-3-5.3-4.9c-1.7-2-0.3-3.2,1.5-4.2c1.7-1,0.8-2.2,0.1-3.4c-1.2-1.9-1.7-0.3-2.5,0.4c-1.7,1.6-2.5,0-2.8-1.2
		c-1.5-5.8-6-10.6-5.3-18.1c-3.8,5.1-5.3,9.9-6.7,14.6c-0.9,2.9-2,5.9-4.7,7.4c-10.3,5.9-21.2,9.7-33.2,9.1
		c-2.5-0.1-4.4-1.3-4.4-3.8c0.3-10.7-2.3-21.4,0.6-33.7c-2.9,5-3.7,2.8-4.7,0.3c-2.6-6.5-5.1-13-7.9-19.4c-2.8-6.5-6.9-12.3-12-17
		c-1-0.9-1.7-2.3-3.3-1.5c-1.7,0.8-1.7,2.3-1.6,3.9c0.2,1.8,0.8,3.6,0.9,5.4c0,1.8,2.2,4.6-0.1,5.3c-2.1,0.6-2.1-2.7-3-4.3
		c-0.7-1.3-1.1-3.2-3.1-2.2c-1.5,0.7-2.2,2.4-1.5,3.9c0.1,0.1,0.1,0.2,0.2,0.3c0.9,1.6,1.5,3.3,1.7,5.2c0.5,10.3,7,18.1,11,26.9
		c0.7,1.4,2.2,2.5,3.5,3.5c0.6,0.5,1.5,1.4,2.3-0.3c1.4-3.3,2.8-1,3.8,0.3c3.3,4.8,6.5,9.7,9.7,14.6c0.7,1.2,2.2,2.8,0.5,3.9
		c-1.9,1.2-2.3-1.2-3.1-2.2c-3.1-3.9-5.1-8.7-8.9-12.5c-1.4,3.5-0.8,6.4,1.4,8.3c5.3,4.5,9,10.2,12.6,16.1c0.9,1.5,2.2,3.1,3.9,2.2
		c3.7-2,4.6,0.9,6.1,3c11.9,16.7,19.7,36.2,35.3,50.5c5.6,5.1,10,10.8,17.1,14.8c12.3,6.8,23.4,15.4,33.2,25.4
		c-1.3-0.3-2.6-0.6-3.9-1c-1.7-0.6-3.4-1.4-5-2.2c-26.3-13.9-48-32.9-64-58.1c-6.1-9.6-12.4-19-19.8-27.6
		c-12.5-14.4-24.1-29.3-31-47.3c-1.2-3.2-3.2-6.2-4.6-9.4c-2.1-4.5-3.3-9.5-3.6-14.5c-0.1-2,0.1-3.6,1.5-5
		c3.4-3.7,6.8-7.3,10.1-11.1c1.5-1.8,2.5-1.8,3.6,0.4c5.2,11,13.2,20,21.2,28.8c2.7,3,4.7,6.2,4.4,10.7c7.2-8.8,13.8-18,19.7-27.8
		c1.7-2.9,4.5-7.1,3.5-9.3c-2.2-4.9-2.2-10.1-4-14.8c-0.4-1-1.7-2.1,0-2.8c1.1-0.5,1.6,0.9,2.1,1.7c2.8,4.4,4.3,9.4,4.4,14.5
		c5.9-9,10.3-18.8,13.2-29.1c0.1-0.5,0.5-1.1,0.3-1.4c-3.1-4.5-1.7-9.7-2.2-14.5c-0.8-8-0.9-16.1-1.3-24.2l1.7-0.2
		c-1,11.9,5.4,22.8,3.5,34.9c4.2-7.8,6.1-16,3.3-24.5c-4.4-13.4-11.7-25.3-20.2-36.5c-1.3-1.7-3-3-5.1-2.1c-2.3,0.9-4.4,2.4-5.3,4.9
		c-0.7,1.8,0.6,2.8,2,3.5c1.7,0.8,1.7-0.9,2.3-1.8c0.8-1.1,0.4-3.1,2.4-3.4c0.8,1.8,0,3.3-0.8,4.8c-7.8,13.8-13.4,28.6-21.2,42.4
		c-4.9,8.8-9.1,18.2-17.6,24.5c-0.8,0.8-1.5,1.7-1.9,2.7c3.4,2.8-0.4,4.2-1.4,5.5c-11.1,14.6-24.5,27.4-39.7,37.6
		c-8.8,5.9-8.9,5.8-2.3,13.1c-6.7-4-14.9-4.4-21.9-1.1c-3.7,1.6-4.6,3.7-4.5,7.2c0.2,5.7,0.5,11.3,0.3,17c-0.1,3.3,1.2,4.5,4.1,4.9
		c4.6,0.6,9.2,1.4,13.8,2.1c12.5,1.7,16.9-1.8,18.1-14.2c0.1-1.5,0.3-2.8,2.1-2.6c1.7,0.2,1.1,1.6,1.2,2.7
		c0.6,7.1-3.7,11.8-7.7,16.7c-1,1-2.4,1.4-3.7,1.1c-6.3-0.7-12.6-1.4-18.9-0.1c-1.9,0.2-3.7-0.4-5.1-1.7c-3.6-3-4-0.9-3.9,2.3
		c0.1,7.2,0.1,14.3,0.1,21.5c0,7,0.8,7.6,7.3,5c3.3-1.3,6.4-3.5,11.2-3.8c-3.3,3.4-6.8,4.3-9.9,5.9c-3.4,1.8-7.2,3.7-7.9,7.8
		c-1.5,8.4,0.3,16.7,1.4,25.1c6.7-11.7,15.2-22.4,18.6-35.7c0.6-2.5,1.5-4.8,3.5-6.5c2.5-2.2,4.5-5,5.7-8
		c4.1-9.1,8.1-18.2,12.3-27.3c1.5-3.4,0.9-5.6-2.3-7.5C454.8,784.9,449.7,781.6,445.8,777z M302.2,747.1c3.9,1.2,1.7-1.7,1.5-2.4
		c-3.4-10.8-6.8-21.6-10.6-32.2c-8.4-23.7-17.6-47-29.4-69.3c-2.7-5-5.4-10.1-9.9-14C258,641.6,265,653,269,666.4
		c-2.9-2.4-3.7-5.1-4.9-7.7c-5-11.2-9.9-22.5-15.8-33.4c-12.7-23.5-29.5-43.1-53.5-55.7c-15.8-8.3-32.5-14.6-48.2-23
		c-5.4-2.9-12.7-4.9-18.4,0.3c-6.3,5.8-10.4,12.9-11.2,21.7c-1.2,13.6-2.8,27.2-3.8,40.8c-1.3,16.7-0.8,33.2,4.5,49.4
		c5.2,15.8,9.8,31.8,14.7,47.7c0.5,1.7,1,3.4,1.4,5.2c-6.2-12.7-9.3-26.3-14.3-39.3c0.3,16.4,2.2,32.3,11.6,46.3
		c3,4.4,4.9,9.4,6.7,14.4c9.2,24.6,18.8,49.1,29.6,73c12,26.5,24.7,52.7,32.8,80.8c6.9,23.9,15.6,47,29,68.2
		c3.8,5.9,6.2,12.6,7.2,19.6c1,7.6,3.9,14.4,7.5,21c4.7,8.6,11.2,16.1,16.4,24.4c2.3,3.6,4.6,4.8,8.8,4.7c49.5-0.1,99-0.1,148.5-0.1
		c0.8,0,1.7,0,2.5,0c3.1,0.3,4-0.9,2.5-3.6c-2.4-4.5-5-9-7.4-13.6c-6.6-12.9-15-24.8-20.5-38.2c-3.2-7.7-6.6-15.2-10.1-22.8
		c-8-17.4-15.6-35.1-32.5-46.3c-2.3-1.4-3.5-4.1-3-6.8c6.8,4.8,11.1,11.7,17.5,16.5c-13.5-17.7-28.9-34.1-37.6-56.4
		c2.9,1.8,3.6,3.8,4.9,5.2c9,10.3,11.4,25.4,24.1,33c0.5,0.4,0.9,1,1.2,1.6c9.1,15.3,18.4,30.5,26.2,46.5
		c13.1,26.7,22,55.4,38.7,80.4c1,1.5,1.4,5.1,3.6,3.8c2.6-1.5-0.4-3.7-1.3-5.3c-12.8-23.8-24.8-47.9-32.3-73.9
		c-4-13.9-7-28.1-13-41.3c-17.6-38.4-34.6-77.1-49.4-116.7c-2.5-6.8-6.9-12.5-11.7-17.8c-6.4-7-12.9-13.8-18.3-21.6L302.2,747.1z
		 M302.9,728c0.5-0.3,1.1-0.6,1.6-0.9c5.6,8.5,11.9,16.7,16.6,25.7c7.4,14,15.5,27.6,24.3,40.7c2,2.9,3.6,6,4.7,9.3
		c0.4,1.3,0.8,2.8-1.1,3.3c-2,0.5-2.8-0.9-2.7-2.6c0-2.4,0.1-4.7-1.7-6.5c-0.8-0.8-1.7-1.9-3-1.4c-1.4,0.6-0.9,1.9-0.6,3
		c2,8.1,3.4,16.7,8.5,23.3c6.4,8.4,9.4,18.3,13.4,27.7c2.6,6.1,5.2,12.3,8.1,18.2c2.4,4.8,6.3,9,4.7,15.1c-0.2,0.9,0.6,2.2,1.1,3.3
		c8.8,18.2,15.2,37.2,20.3,56.7c1.4,5.4,3.7,10.3,7.7,14.3c3.3,3,4.5,7.7,3.3,11.9c-0.7,2.7-0.2,4.8,2.2,6.5c1.3,0.8,2.3,2,2.9,3.3
		c3.9,10.9,12.3,20,12.7,32.3c0.1,0.7,0.4,1.3,0.9,1.8c2.3,2.7,3.6,6,5,9.2c1.5,3.4,3.2,3.5,5.6,0.9c0.1-0.1-0.2-1.8,0.4-0.4
		c1.4,3.1,4.3,2.5,5.9,1.6c1.9-1.1,0.3-3.6-0.2-5.4c-16.6-59.4-23.5-120.1-25.1-181.5c-0.6-24-0.2-48-0.2-72
		c0-6.3-1.5-11.8-6.3-16.2c-3.4-3.2-7.2-6-11.2-8.3c-11-6.5-21.2-14.5-30.1-23.7c-4.9-4.9-7.1-10.5-6.5-17.5
		c2.1-26.7,7.5-52.7,17.5-77.6c2.8-6.9,2.3-8.9-3.1-14.1c-14-13.3-29.4-25.1-45.9-35.2c-29-17.9-58.4-35.3-86.6-54.5
		c-24-16.3-48-32.6-68.1-53.7c-5-5.3-5-5.9-0.1-11.1c0.5-0.4,0.6-1.1,0.2-1.6c0-0.1-0.1-0.1-0.1-0.2c-5.8,1-7.9,5.6-7.6,13.8
		c0.2,6.9,5.7,10,8.9,15l-5.7-3.8c-0.5,2.2-0.4,4.6,0.5,6.7c3.1,7.8,3.8,16.2,6.1,24.1c3,10.5-1.4,19.3-5.1,28.3
		c-0.1,0.2-0.8,0.3-1.2,0.3c-6.5-0.6-12.4,1.5-18.3,3.8c-2.3,0.9-5,1.8-6.2,5.1c2.4,0.2,4.6,0.4,6.4,1.7c5,3.7,10.7,6.1,16.4,8.3
		c29.8,11.2,53.8,30.2,73.9,54.5c14.6,17.8,23.8,38.8,33.9,59.2c11.8,23.6,18.7,49.1,26.3,74.2c3.5,11.6,10.9,19.8,19.8,27.3
		C318.4,755.8,309.1,742.7,302.9,728L302.9,728z M121.1,286.5c2-2.8,2.8-4.8,4.4-5.9c6.2-4.6,6.2-11,6.2-17.9
		c0.1-21,1.8-41.9,5.1-62.7c1.5-9.9,3.4-19.8,5.1-29.7c-2.4,3.4-4,7.3-4.8,11.4c-5.2,29.2-10.8,58.3-9.7,88.2
		c0.1,3.2-0.5,6.5-4.1,8.5c-0.8-12.3,0.2-24,1.2-35.8c1.6-17.6,6.9-34.6,7.9-52.3c0.3-6,1.1-12.1,4-17.8c4.7-9.2,9.5-18.4,13.3-28
		c4.7-11.8,9-23.7,15.1-34.8c26.6-48.6,62.6-86.8,117-104.2c1-0.3,2.4-0.2,2.8-2c-8.3,0.3-16.5,1.2-24.7,2.7
		c-31.5,5.7-61,16.5-87.3,35.1c-1.3,0.9-3.7,2.2-3.6,3.2c0.4,5-3.4,7.3-6,10.3c-14.4,16.6-26.8,34.3-34.2,55.3
		c-1.4,3.9-2.9,7.7-5.9,10.8c7.3-25.8,18.9-49.3,37.9-69.4c-4.3,1-4.6,1-6.8,2.9C121.4,81.6,97.6,114.4,87,156
		c-13.2,51.7-10.6,103.7-4.4,155.9c4.3,35.6,13.6,70.2,22.1,105c8.9,36.6,16.9,73.3,19.8,111c0.4,5.8,0.1,11.8,1.9,17.6
		c2.4-0.9,4.3-1.8,6.4-2.4c8.4-2.4,9.2-3.4,9.4-12c0.9-45-7.7-88.5-23.2-130.5c-6.5-17.6-11.1-35-11.1-53.7c0-8.6,1.3-17.4,0-25.9
		c-2.1-13.7-3-27.4-3.8-41.2c-3.3-51.1,0.5-102.4,11.2-152.5c3.1-14.6,7.5-28.9,14.8-42.2c-21.8,63.3-28.6,128.3-22.4,195.7l1.1-3.3
		c1.4,10.2,3.4,20.1,2.8,30.2c2.2-4.4,3.8-8.9,5.8-13.1c1.5-3.1,1.8-6.7,0.9-10.1c-7.8-35.3-10.1-71.7-6.8-107.7
		c0.4-4,0-8.3,2.8-13.3C108.9,205.2,116.2,245.2,121.1,286.5L121.1,286.5z M369.4,30.8c4.9-0.8,9.8-1.6,14.7-2.5
		c0.9-0.2,2.2,0.2,2.6-0.9c0.6-1.4-0.8-2-1.5-2.9c-3.9-4.5-9.1-7.4-14.9-8.4c-19.2-3.1-38.2-1.2-56.9,3.6
		c-35.8,9.1-63.3,29.9-84.3,60c-9.4,13.5-17.5,27.5-22.9,43c-0.4,1.2-1.3,2.8-0.9,3.8c1.3,3.2,1.6,3.3-0.4,5.3
		c-2.7,2.8-3.9,6.1-4.6,9.8c-0.6,3.4-1.1,7-2.4,10.2c-7,17.1-9.9,35.2-12.3,53.4c-2,15.5-3.2,31.1-4.3,46.7c-0.4,5.3,3.3,8.4,10,8.3
		c5.2-0.1,3.4-4.5,3.5-7.1c0.7-23.2,4.3-46.1,10.5-68.4c3-10.9,7.6-21.3,9.2-32.6c0.8-4.9,3-9.4,6.3-13
		c-3.5,12.3-7.5,24.4-11.1,36.7c-7.1,24.3-11.6,49.3-13.4,74.5c-0.5,6.4,0.8,12.5,7.2,15.8c2.8,1.4,5.5,3.1,7.9,5.2
		c1,0.9,2.1,2.3,3.4,1.8c1.7-0.6,1.2-2.5,1.3-4c1.4-14.6,3.6-29.1,6.6-43.4c12-56.2,37.5-106.1,72.1-151.6
		c18.1-23.7,41.6-39.5,70.8-46.3c5-1.2,10.1-2.3,16-1.2C377.3,28.8,372.7,27.6,369.4,30.8z M272.8,290.1c-0.8-1.8-2.7,0.3-2.4-0.7
		c0.5-1.9,1.2-4.7,3.8-4.4c2.7,0.4,4.2-1,5.5-2.5c9.7-11.4,20.3-22.3,28.5-34.7c7.2-11,15.1-21.4,23.7-31.4
		c4.2-4.9,8.1-10.2,11.6-15.6c21.2-32.5,41.1-65.8,57.5-101c5.8-12.5,12.7-24.6,15.7-38.2c0.5-2.3,3.7-5.3,0.8-7.2
		c-2.3-1.4-5.9-0.8-8.8,0.2c-1.9,0.6-3.7,1.4-5.5,2.3c-6.7,3.3-13,7.4-18.8,12.3c-27.7,23.5-50.5,51.2-69.5,82
		c-24.5,39.7-40.4,83-53.1,127.7c-2.6,9.2-4.8,18.5-5.6,28.5C261.9,301.6,267.4,295.8,272.8,290.1z M438.2,990
		c1.7-2.7,2.7-4.3,3.7-6.1c25.7-45.9,45.8-94.4,65.2-143.3c1.2-3.1,0.7-5.6-1.3-8.3c-8.7-11.4-19-21.4-29.5-31.1
		c-2.9-2.7-4.2-1.8-5.7,1.4c-13.2,28.1-27.2,55.9-41.8,83.3c-3.5,6.5-4.5,13.4-4,20.7c0.9,13,2.4,25.8,4.5,38.6
		C431.5,959.9,434.3,974.4,438.2,990L438.2,990z M461.3,1024.3l0,0.3c4.3,0,8.8,0.6,13-0.1c31.6-5.2,61.6-15.4,89.2-31.8
		c5.4-3.2,5.6-4,2.8-9.5c-5.3-10.2-9.9-20.7-13.7-31.5c-1.4-4.2-3-4.8-7.2-3.1c-23.1,10-46.2,20-70.7,25.6
		c-13.6,3.1-22.9,9.3-28.8,21.9c-2.5,5.3-4.5,9.8-2.1,15.4c1.7,4.1,0.5,10.4,3.9,12.3C451.2,1025.8,456.7,1024.3,461.3,1024.3
		L461.3,1024.3z M70.9,398.2c0,8.6,0,17.2,0,25.8c0.2,39.8-0.3,79.6-2.8,119.3c-2.5,39.6-6.6,79-14.7,117.8
		c-12.9,62.6-30,124.2-51,184.5c-1.1,2.6-1.1,5.6-0.2,8.3c1.7-3.9,2.9-7.8,4.2-11.7c8.9-27.6,20.3-54.2,31.2-81
		c1.5-3.7-1-7.1,1.3-10.7c2.5-3.9,3.8-8.5,5.5-12.8c27.3-67.1,41.2-138.9,41.1-211.3c0-27.8-1.9-55.6-5.7-83.1
		C77.8,428.2,75.2,413.1,70.9,398.2z M89.3,908.4c0.1,0.6,0.2,1.3,0.2,1.9c-1.1,18.1-2.4,36.2-2.5,54.4c-0.1,18.5-0.8,37,1.9,55.4
		c0.2,1.5-0.5,4.3,1.6,4c2.4-0.3,0.9-3,0.8-4.6c-0.3-6.1-0.8-12.3-1.1-18.4c-1.8-36.8,2.9-73.1,8.1-109.4
		c7.4-51.4,16.4-102.6,20.3-154.4c0.9-11.9,2.9-23.8,1.9-35.9c-1.1-12.2-4-24.3-2.7-36.7c0.2-1.4-0.7-2.8-2-3.3
		c-0.2,2.7-0.4,5.1-0.5,7.4c-1.3,26-3.9,51.8-7.5,77.5c-7,48.9-17,97.4-25.1,146.1c-4.5,26.8-9.1,53.5-10.4,80.7
		c-0.9,16.2,0.8,32.4,5.1,48c1,3.5,3,3.8,5.9,3.6c3.6-0.3,2-2.9,1.8-4.6c-1.6-14.1-1.4-28.3-1.4-42.4c0.2-2.6-0.1-5.2-0.8-7.8
		c-1.8,0.3-1.2,2.3-3.3,3.2C82.7,951.2,83.3,929.4,89.3,908.4z M516.6,817.3c7.7-0.4,15-2.6,22.1-5.6c4.2-1.7,7.5-5.2,8.9-9.5
		c3.6-9.7,8.2-18.9,13.8-27.6c11.8-18.7,19.4-39.3,26.3-60.2c1.8-5.4,1-10.8-4-14.3c-9.2-6.4-15.9-15-21.9-24.3
		c-1.1-1.7-2.2-3.4-4.4-3.7c-1.2-0.2-2.5-1.4-3.7,0c-1.2,1.5,0.2,2.5,1.1,3.3c2.3,2.1,2.7,4.7,2.7,7.7c0.2,12.4-3.4,24-8.1,35.2
		c-9.4,22.4-22.3,42.7-37,61.9c-3.3,4.3-4.9,8.7-4.1,14.3c0.7,5.1,0.5,10.3,0.5,15.4C508.9,817.2,509.3,817.6,516.6,817.3z
		 M128,343.6c0,13.9,3.6,27,9.8,39.3c3.9,8.2,10.2,15,18,19.5c9.1,5.2,18.3,3.7,25.3-4c4-4.3,6.7-9.6,7.8-15.4
		c3.9-18.7,2.1-36.8-6.5-53.9c-4.9-9.8-12-17.6-22.8-21.1c-12.5-4-22.5,0.5-27.6,12.6C128.9,328,128,335.7,128,343.6z M460.8,971.3
		c0.6,0.1,1.3,0.2,1.9,0.1c27.9-7.7,55.2-17.6,81.6-29.4c3.8-1.7,3.8-4.4,2.6-7.8c-5.2-14.4-9.5-29.1-13-44
		c-0.9-3.9-2.8-4.9-6.4-2.8c-7.6,4.4-15.8,7.9-24.3,10.3c-7,2.1-12.7,6.4-14.8,13.6c-3.3,10.9-8.5,21-13.4,31.1
		C470.4,952.1,465.6,961.5,460.8,971.3z M54.7,360.1c-1.6,3.4-1.1,5.7-1.1,8c-0.2,27.5-2.6,54.9-5.9,82.2
		c-4.5,38-12.4,75.5-19,113.2c-6.7,38.1-11,76.4-11.4,115.2c-0.2,15.2-0.4,30.3-0.7,45.5c-0.1,3.5-0.3,7-0.3,10.5
		c-0.1,3.5,0,7,0,10.4C48.5,619.1,59.7,491.2,54.7,360.1z M566.5,566.8c-9.4,6.7-12.7,15.3-10.1,25.5c0.7,2.7,1.2,5.5,1.6,8.3
		c3.8,24,6.6,48.1,5.5,72.5c-0.1,2,0,4.2,2.6,4.8c2.7,0.6,3.7,2.5,3.9,5.1c0.2,2.8,2,5.1,4.5,5.2c3.1,0.1,5.6,4,9.1,1.5
		c0,0,1.2,1,1.1,1.3c-1.8,5.9,3.6,9.3,4.7,14.3c1.2,4.9,4.1,9.2,8.1,12.2c3.8,3.1,7.3,6.7,8.9,11.3c2.9,8,9.3,10.7,16.7,12.9
		c-1.5-5.5-2.8-11-4.5-16.4c-0.6-1.7-0.9-5.1-4-3.9c-3.3,1.3-1,4-0.5,6c0.3,1.1,1.2,2,1.7,3c0.7,1.7,1.8,3.5,0.1,5.7
		c-3.4-3.6-5.5-8.3-6-13.2c-1-10.3-3.5-20.3-7.5-29.9c-2.5-6.2-4.9-12.5-5.3-19.2c-1-17.4-5.1-34.5-12-50.6c-1.3-3-2.2-6.2-4-9.1
		c-1.2-1.6-1.8-3.6-1.6-5.6c0.5-4.4-1.1-8.1-3.1-11.8c-2.4-4.5-4.4-9.2-5.7-14.1C569.2,577.4,567.5,572.2,566.5,566.8z M335.6,362.2
		c0.8-6.1-1.1-13.2-2.2-20.4c-0.6-4.1-2.6-5.4-6.2-5.4c-4.8,0-9.7-0.3-14.4,0.1c-10.8,0.9-20.9,3.8-29.5,10.6
		c-8.9,7-10.6,24.1-2.1,30.6c6.9,5.3,14.1,10.6,22.7,13.1c16.3,4.7,30.2-5.3,31.2-22.3C335.1,366.8,335.3,365.2,335.6,362.2
		L335.6,362.2z M276.3,506c-6.6-5.6-12.5-12-17.5-19.1c-0.5-0.7-1-2.2-2.2-1.3c-3.1,2.4-3.1-0.5-3.9-2.1c-0.8-1.6-1.4-3.2-3.1-4.4
		c-9.1-6.5-16.1-14.9-21.9-24.3c-0.7-1.1-1.3-3-2.3-3.1c-4.5-0.8-5.6-4.4-6.7-7.8c-1-3.1-2.1-2.5-4.4-1.2c-5.4,3.1-10.4,7.1-17,7.7
		c-2.5,0.2-2.2,2-1.6,3.7c1.8,5.2,3.5,10.4,5.5,15.5c1.6,4,3.2,8,6.2,11.2c-0.7-3.2-1.6-6.4-2.6-9.6c-0.9-3-1.9-6-2.6-9.1
		c-0.7-3.1-2-6.1-0.6-10.6c3.5,11.9,6.5,22.8,10.8,33.2c0.9,2.2-1.1,1.8-1.5,2.7c-0.7,1.7-1.6,0-2-0.5c-2.3-2.3-3.6-5.1-5.1-8
		c-4.1-7.9-7.5-16.2-10-24.8c-4.6,5.5-7.1,11.3-4,17.5c4.3,8.6,12.5,13.7,20.3,18.6c2.7,1.7,5.7,2.8,7.7,5.5c1.4,1.9,3.1,3.5,5,4.8
		c13.8,9.3,27.5,18.7,41.3,28c1.9,1.3,3.9,2.8,7,2.5c-4.8-6.8-12.9-9.5-17.2-16.3c1.7-0.7,2,1.7,3.8,0.9
		c-7.4-7.8-10.9-18.1-17.4-27.5c-1.2,3.4,1.9,4.7-0.3,7.1c-4.1-11.9-12.4-20.7-19.4-30.3c-3-4.2-5.4-8.8-7-13.7
		c-0.5-1.5-2.1-3.5,0.1-4.3c2.2-0.9,2.4,1.8,3,3.1c7.3,16.8,15.9,32.4,31.5,43.3C256.8,499.3,266.3,503.1,276.3,506z M730.8,936.2
		c2.5-15.3,3.8-30.7,4.2-46.2c0.3-10.3,2-20.8,0.4-30.9c-2.8-18.4-6.7-36.6-11.7-54.6c-7-25.5-15.6-50.5-31-72.6
		c-3.4-4.7-6.1-10-8-15.5c-4.7-14.5-11.5-28-18.8-41.2c-1.5-2.8-3.1-7.6-2.4-8.9c1.7-3.4-0.3-4.9-1.5-6.9
		c-6.5-10.8-13.2-21.6-19.8-32.4c-1.3-2.1-2.6-3.5-5.4-3c1,2.1,1.9,4.1,2.9,6c16.1,32.5,32.6,64.8,46.6,98.3
		c26.2,62.8,41.6,128,43.8,196.2C730.4,928.4,730.6,932.3,730.8,936.2z M367.9,710.1c1.2,4.3,4,4.3,6.9,3.9
		c4.9-0.6,9.9-1.2,14.8-1.8c15.9-1.9,31.4-5.4,45.9-12.7c5.2-2.6,5.7-4.2,3.4-9.5c-3.3-7.5-8.4-13.9-12.5-20.9
		c-1.9-3.2-3.5-3.1-6.1-0.8c-4.3,3.7-9.5,6.2-15.1,7.2c-10,2.1-20.2,2.4-30.3,1.1c-3.5-0.5-6.4-0.4-6.8,4.1
		c-0.6,6.8-1.2,13.6-2,20.3c-0.4,3.2,0.9,5.1,3.9,5.9c2.6,0.7,5.2,1.5,7.3,4C374,711.8,371.2,711.2,367.9,710.1z M395.8,717.9
		c-5.1,0.7-9.9,1.4-14.8,2.2c-1.1,0.2-2.6-0.3-3,1.1c-0.5,1.6,1.1,2.2,2.1,3c8.5,7.5,18.3,13.3,27.8,19.4
		c8.4,5.4,13.2,12.5,12.1,22.8c-0.4,4,1.3,4.2,4.6,3.9c16.8-1.2,25.9-26.3,15.7-37.4c-3.9-4.2-4-8.7-2.5-13.9
		c1.5-5.1,2.3-10.5,3.5-16.4c-11.4,4.5-21.6,9.2-32.7,11.8c-4.3,1-8.4,1.9-12.5-0.6c-1.8-1.1-3.9-0.8-5.8,0.5
		C392,716.3,394.6,715.4,395.8,717.9z M507.8,681.7c-5.4,2.9-11.6,2.7-16.1,6.2c-8.3,6.5-18.2,10.7-28.6,12.2
		c-7.9,1.1-12.6,4.4-13.3,12.7c-0.1,1.3,0.2,3.9-2.6,3.3c-2.7-0.6-2.7-2.7-2-4.8c1.4-4.3,3.1-8.4,7.9-10.7c-6.8-1.5-9.4-1-10.3,2.8
		c-1.9,8.4-3.4,13.3,2.6,16c1.3,0.6,3,0.9,3,2.9c0,1.3,0.1,3-1.1,3.6c-2.2,1.2-3.6-1.1-5.3-1.7c-1-0.3-1.7-2-2.9-1.1
		c-1.3,1-0.9,2.4-0.3,3.6c4.4,8.2,9.1,16.3,15.4,23.2c0.9,1,1.7,2,3.3,0.6c5.4-5,10.5-10.2,15.3-15.7c1.5-1.6,0.7-2.3-1-2.5
		c-3.2-0.2-6.3-0.1-9.4,0.5c-4.1,0.6-8.2,0.6-11.6-3c7.9-1.7,12.5-1.6,22,0.3c1.5,0.3,3.1,1.5,4.6-0.3c2.2-2.7,4.4-5.4,7.4-9
		c-6,1.7-10.7,2.7-15.3,4.2c-6.7,2.2-12.5,0.7-18.4-4.1c11.9-0.5,22.2-4.8,32.9-7.7c6.4-1.8,11.3-5.1,14.1-11.4
		C501,695,504.5,688.3,507.8,681.7z M465,298.2c1.2-1.1,2.5-2,3.6-3.2c5.3-5.5,11-10.7,14.3-17.8c0.6-1.3,2-2.6,3.6-1.5
		c1.5,1,0.6,2.4-0.2,3.5c-0.7,1.1-1.4,2.3-2.3,3.3c-10.9,13.5-22.2,26.5-35.8,37.5c-2.3,1.8-4.5,3.7-6.7,5.5
		c6.6,0.3,12.7,0.6,18.4-3.1c5.2-3.6,11.4-5.6,17.8-5.7c-4.5,3.6-10.8,3.2-15.9,7.6c5.9,0,11-0.6,15.8,0.1c7.5,1.2,13.2-2,18.8-6.1
		c1.5-1.1,2.7-2.4,4.1-3.6c-0.2,1.3-0.7,2.6-1.4,3.8c-1.8,3.5-7.6,6.3-6.4,9.1c1.3,3,6.8,4.1,10.5,6c0.6,0.3,1.2,0.6,1.8,0.7
		c5.1,1.2,7.3-0.6,6.9-5.8c-0.6-7.3-1.2-14.6-2.3-21.8c-1.1-7.3-3.4-14.2-8.1-20.2c-12.3,28.8-13.2,30.4-21.5,34.5
		c0.3-0.8,0.5-1.4,0.8-2c5-12.6,7-25.9,9.2-39.2c0.8-4.6-2.3-5.4-5.5-6.8c-3.6-1.6-4.3,1-5.6,3C474.5,283.4,469.7,290.6,465,298.2z
		 M210.2,919.8c-0.5,0.1-0.9,0.2-1.4,0.3c2.3,23.4,1.5,46.9,1.8,70.3c0.2,10.3,1.3,20.6,3.2,30.7c0.4,2.3,1,3.6,3.7,3.6
		c8-0.1,16,0,24,0c2.3,0,3.1-0.7,1.8-3c-1.6-2.9-3-5.9-4.4-8.9c-8.9-19.7-13.2-40.7-18.9-61.4C217.1,940.7,213.5,930.3,210.2,919.8z
		 M532.4,627c-0.9-4,0.5-6.9,0.7-9.8c0.1-1.5,1.3-3.9-0.7-4.4c-2.6-0.6-2.5,2.2-2.7,3.8c-0.8,7.5,0.6,14.9,0.9,22.4
		c0.1,0.8,0.4,1.6,1.1,2.1c8.4,5.5,12,14.4,16.7,22.5c0.8,1.5,0.9,3.6,3,4.2c5.8-15.7,5.1-64.8-1.2-75.4c-1.6,2.4-4.1,4.1-3.4,7.5
		c0.4,1.9-1,2.6-2.4,3.3c-4,1.9-5,5.1-3.8,9.1c2.9,10.1,5.9,20.1,8.7,30.2c0.9,3.2,2.4,6.3,1.3,10.9c-4.4-15-10.8-28.1-13.8-42.5
		C534.8,615.9,535,621.3,532.4,627z M567.9,980.5c-1.5-8.6,1.1-17.7-2.3-26.1c-7.5-18.4-13.3-37.3-18.6-56.3
		c-3.6-13-11.3-23.8-19.7-34.1C541.3,902.6,547.3,944,567.9,980.5z M1.6,797c0.4,0,0.8,0,1.2,0c1.8-6.2,3.7-12.4,5.4-18.6
		c2.4-8.8,5.8-17.4,5.3-26.8c-1-20.3-1-40.6,0.1-60.9c1.4-29.9,3.4-59.8,7.3-89.5c0.2-1.8,0.5-3.6,0.7-5.5c0.2-1.8,0.9-3.6-0.1-6.2
		c-5.4,27.3-10.9,53.8-12,81c-0.9,22-2.6,43.9-1.8,65.9c0.6,13.6,0.1,26.9-4.6,39.8C0.6,783.1,1.8,790.1,1.6,797z M441.8,999.7
		c4.6-6.1,8.6-12.5,12.1-19.3c10.6-20.2,19.6-41.1,29.4-61.6c7.6-15.8,13.3-32.2,19.5-48.5c1.5-3.4,1-7.3-1.3-10.3
		c-6.1,18.9-14.2,36.5-22.5,54c-0.4,0.8-0.6,1.5-0.9,2.3c-4.3,15.1-12.8,28.2-19.7,42c-4.9,9.9-10.7,19.5-16.5,29
		C439.7,991.2,439.2,995.1,441.8,999.7z M170.7,449.3c-7.7-2.7-14.4-6.5-22.3-10.8c5.6,18.1,7.6,35.5,9.2,53.1
		c1.2-14.3-0.2-28.7-0.3-43c2.1,6.1,2.5,12.4,2.6,18.7c0.2,18.5,0.6,37-0.7,55.5c-0.1,1.5-1,3.8,1.4,4.2c2,0.3,3.3-1.5,4.1-3.2
		c0.4-1.1,0.7-2.2,0.7-3.4c1-7.3,1.6-14.6,3-21.8c1.7-8.3,1.5-16.9-0.7-25.1C165.5,465.5,164.8,457,170.7,449.3z M534.5,439.8
		c7.4-11,11.9-23.1,14.5-35.9c5-25,5.3-50.3,4.7-75.6c-0.4-16.6-2.1-33.2-4.1-50.3c-1.1,3.1-0.7,5.6-0.6,8.1
		c0.5,10.8,0.7,21.6,0.4,32.5c-0.6,19.1-4.1,38.1-3.4,57.3c0.2,6.3-0.7,12.6-1.5,18.9C542.4,410,539.9,425.2,534.5,439.8z
		 M394.7,29.4c4.9,1.6,8.7,3.8,12.5,5.8c1.1,0.6,3.4,7.1,5.4,0.3c0.7,0.1,1.5,0.3,2.2,0.5c2.2,1,4.4,2.3,5.2,4.5c3,8.2,9.5,9.1,17,9
		c5.6-0.1,11.1,0.9,16.8,5.4c-10.1-1.5-18.9-2.7-27.7-4.1c-3-0.5-5-2.3-6.1-5.2c-0.8-2.7-3.1-4.8-5.9-5.3c1.5,2.4,3,4,3.7,6
		c2,5.3,6,7.3,11.2,7.4c8.6,0.3,16.6,2.9,24.5,6.1c2.4,1,4.6,2.5,8.2,2.4c-5.4-7.1-10.6-13.5-17-19c-9.3-8-19.5-14.4-31.6-17.5
		C406.6,24,400.6,24.3,394.7,29.4z M227.7,432l-1.6-0.2c-1.3,1.5-2.6,3.1-4,4.4c-1.5,1.4-1.7,3.1-0.6,4.5c6.2,7.8,10,17.2,16.6,24.7
		c3.6,4.1,6.8,8.6,12.1,12.1c-7.7-24.8-5.9-49.8-6.8-74.7c-2.7,7-5.2,13.9-9.7,19.7c-3.5,4.6-3.2,9-1.5,14
		c3.4,10.4,6.7,20.8,11.2,31.7c-3.5-2.2-4.3-5-5-7.6C235.5,450.8,227,443.3,227.7,432z M496.8,894.6c10.2-4.7,20.3-9.5,30.5-14.2
		c1.6-0.6,2.4-2.3,1.9-3.9c0-0.1-0.1-0.1-0.1-0.2c-4.2-10.9-5.6-23.1-15.1-31.9C507.4,860.6,502.9,877.6,496.8,894.6L496.8,894.6z
		 M212.7,99.5c-0.3,0.3-0.7,0.5-0.9,0.9c-2.7,5.2-5.4,10.3-7.9,15.6c-23.3,49.3-28.4,102.1-29.4,155.6c-0.1,3,1.4,4.6,4.3,5.3
		C178.8,215.5,187.5,155.9,212.7,99.5z M654,933.4c4.7,7.9,9.2,15,13.3,22.4c4.1,7.4,7.8,15.1,11.7,22.6c-0.2-10.7,3-21.2,0.5-31.7
		c-0.7-3.2-1.9-7,3.2-8.1c1-0.2,1.1-1.2,1.1-2c0-1.6-1.1-1.2-2.1-1.1c-3.5,0.4-6.9-0.7-10.3-1.5C665.8,932.8,660.2,932.2,654,933.4z
		 M514.7,641.4c1.4-16.5-9.2-45.5-20.2-56.1c-1.9,3.7-3.8,7.4-5.7,11.1c-1.6,3.1-1.5,4.9,2.7,5c4.6,0.1,6.8,2.7,6.8,7.4
		c0,3.3,0.3,6.6,0.8,9.9C500.7,628.4,505.7,635.9,514.7,641.4z M502.1,417.5l1.1,0c1.8-6.2,3.6-12.3,5.4-18.5
		c4-14.3,6.6-28.8,5-43.7c-0.2-1.4,0.5-3.5-1.3-3.8c-2-0.3-1.8,1.9-2.2,3.2c-3.3,11.6-6.6,23.3-10,34.9c-1,3-1.3,6.2-0.9,9.3
		C500.1,405.1,501.1,411.3,502.1,417.5z M198.6,419c0.6-0.5,1.1-1,1.6-1.5c3.7-5,6.4-10.5,8.1-16.5c0.7-2.1-0.6-3.1-2.1-3.9
		c-3.8-2-7.7-4-11.5-6c-2.6-1.4-5.2-1.8-6.9,1.2c-1.8,2.9-5.4,5.4-2.2,9.7c3.6,5,7,10.1,10.6,15.1
		C196.7,417.9,197.2,418.8,198.6,419L198.6,419z M572,974.2c-0.4,3.8-4.5,6.6-3.1,10.4c5,13,11.9,25.2,16.2,38.5
		c0.9,2.9,4.1,1.7,6.1,1.3c2-0.4,0.8-2.2,0.4-3.3C585,1005.6,578.3,990.1,572,974.2z M543.7,374c-2.7,11.6-5.2,23.3-11.1,33.5
		c-5.8,10-1.2,18.7,0.8,28C540,415.6,543.4,394.9,543.7,374z M220.1,943.1c2.7,10.2,5.4,20.5,8.1,30.7c4.4,16.4,8.9,32.7,16.7,47.9
		c0.7,1.4,1.4,3.6,3.4,2.7c2-0.9,0.5-2.6-0.1-3.8c-8.9-18-13.9-37.3-18.4-56.7C228.3,956.2,225,949.1,220.1,943.1z M177.9,515.9
		c-5.9,6.1-12.3,10.2-18.8,14.1c-5.1,3-10.3,6-15.4,9.1c-1.3,0.8-3.5,1.5-2.1,3.7c1.1,1.7,3,1.3,4.4,0.2c5.8-4.8,13-6.5,19.9-8.6
		C174.7,531.7,178.3,526.4,177.9,515.9z M346.8,322.4c-1.8,0-3.7,0-5.5,0c-1.5,0-2.8,0.3-3,1.9c-0.3,2.1,1.6,1.7,2.7,2
		c7.2,2,14.3,4.3,20.3,9c5,4,5.1,4,8.5-1.5c1.5-2.4,4.6-5.8-2.1-4.5c-0.8,0.1-1.6-0.2-2.2-0.8C360.6,322.3,353.6,322.7,346.8,322.4z
		 M349.4,36.5c-25.5,7.8-43.1,25.4-58.1,46.4C308.1,64.4,327.7,48.7,349.4,36.5L349.4,36.5z M509,243.8c-2.5,2.3-2.1,5.1-2.5,7.6
		c-1.7,9.4-2,18.8,1.6,28c1.3,3.3,2.7,6.6,7.1,7.8C512.9,272.4,508.2,258.6,509,243.8z M713.5,900.1c3.3-16.4,0.9-32.3-3.7-48
		C708.4,868.3,710.2,884.2,713.5,900.1z M558.7,632.8c-0.5,11.4-1.6,22.8-3.4,34.1c-0.6,3.6,2.4,3.8,4.3,4.1
		c2.9,0.6,2.4-2.1,2.4-3.8c0-6.5,0.1-13-0.2-19.5C561.5,642.7,561.6,637.5,558.7,632.8z M404,53.6c-20.2,6.3-34.2,20.8-47.5,36.2
		C372.7,78.3,386,63,404,53.6z M691.1,924.4c5.8-1.4,8.8-4.1,11-8.4c5.8-11.5,3.6-23.7,3.7-35.8c-1.8,3-2.7,6.3-2.6,9.8
		C703.5,902.6,700.9,914.2,691.1,924.4L691.1,924.4z M469.6,799.2c0.2-2.8-0.6-4.6-2.7-5.3c-2.9-1.1-2.7,1.7-3.3,3.1
		c-1.8,3.9-3.3,7.9-5.1,11.8c-1,2.3-0.9,4.9,0.1,7.2c0.6,1.6,2.3,2.1,3,0.6C464.5,810.7,468.1,805.1,469.6,799.2z M376.4,15.5
		c5.2,1.8,8.1,6.2,11.7,9.7c0.9,0.9,2.3,3.2,3.4,1c2-4,6-5.3,9.7-7.8C392.8,15.5,384.9,13.9,376.4,15.5z M486.7,308.4
		c5.3-8.2,8.3-17.5,11.1-26.8c0.9-2.9-1.1-3.8-3.4-4.4c-3.1-0.8-2.7,1.6-2.8,3.2C490.7,289.9,489,299.2,486.7,308.4L486.7,308.4z
		 M4.5,708.7c-0.4,0-0.8,0-1.2,0c-1.1,19.3-1.9,38.5-1.2,57.9c2.8-3.1,3.5-6.8,3.4-10.6c-0.2-5.5-0.8-11-0.9-16.4
		C4.4,729.2,4.5,719,4.5,708.7z M169.6,520.4c4.3-2.6,8.1-4.6,8.1-8.9c0.1-7.7-1.4-15.3-5.5-22.2
		C172.1,499.5,173.9,509.6,169.6,520.4z M186.8,468.6c-0.6-6.1,1.9-11.2,5.6-17.1c-4.5,1.5-8.8-1.6-11.1,2.3
		c-2.1,3.7-0.2,7.7,1.9,11.2C184,466.3,184.5,468.1,186.8,468.6L186.8,468.6z M708.6,951.6c2.8-12.3,4.4-23.1,0.1-34.2
		c-2,1.3-3.2,2.3-1.7,4.6c1.9,2.9,1.6,5.9,0.6,9.1C705.7,937.5,706.5,943.9,708.6,951.6L708.6,951.6z M354.5,11.9
		c-20.5-3.2-39.3,2.4-57.5,11C315.6,16.2,334.6,11.9,354.5,11.9z M449,757.6c6.2-3.8,6.2-4.7,0.8-10.1c-1.6-1.6-2.4-1.5-3.1,0.5
		c-2,5.3-3.9,10.6-6,16.6c6.5-2.5,4.8-9,8.3-13V757.6z M245.2,1002.6c0,2.6-0.3,4,0.1,5.1c1.9,5.6,6.8,9.8,7.8,16
		c0.3,1.8,3.3,1.3,4.9,0.6c1.1-0.5,1.6-1.8,1.1-2.9c-0.2-0.4-0.4-0.7-0.7-0.9C252.2,1016.3,250,1009.4,245.2,1002.6z M734.4,947.6
		c4.4-16.9,5.5-34.2,4.2-51.7C737.6,913.1,736.1,930.3,734.4,947.6z M510.5,468.6c-1.7-6.1-3-10.8-4.4-15.5
		c-0.4-1.4-0.1-3.9-2.5-3.5c-2.3,0.4-3,2.5-2.6,4.7C502.2,459.8,504.9,464.3,510.5,468.6z M589.3,292.5c3.6,12.2,4.9,24.7,6.5,37.2
		C597.8,316.9,595.5,303.8,589.3,292.5z M510.6,336.3c-2.2,1-5.6,1.4-6.8,3.2c-1.5,2.2,2,3.6,3.4,5.1c1.1,1,2.4,1.8,3.8,2.3
		c1,0.5,2.5-0.2,1.9-1.2c-1.6-2.5-1.2-4.8-0.5-7.4C512.6,337.4,512.1,336.4,510.6,336.3z M657.9,776c3,9.5,11.8,20.4,17.6,23.1
		C669.4,791.1,663.7,783.5,657.9,776z M546,422.3c7.8-8.3,9.4-14.9,5.4-20.9C549.7,408,548,414.7,546,422.3z M491,255.8l-1.3-0.4
		c-1.6,3.1-3.2,6.3-4.9,9.4c-0.7,1.2-0.6,2.2,0.7,2.9c1.4,0.7,2.8,2,4.6,1.4c1.6-0.5,0.8-1.9,0.9-3C491.1,262.7,491,259.2,491,255.8
		z M581.5,912.6c8.6,6,17.8,10.9,28.4,12.2C600.9,919.7,590.8,917.2,581.5,912.6z M611.4,739.8c3.5,6.5,10.2,7.5,16.1,9.8
		C622.2,746.2,618,741,611.4,739.8z M384.5,331.2c7.8,0.1,10.8-6.3,14.8-11.7C394.4,323.5,389.5,327.4,384.5,331.2z M703.7,916.4
		c8.2-6.3,7-13.8,5.7-21.2C708.8,902.6,706.9,909.8,703.7,916.4z M334,261.5c-7,0.3-13.8,2.1-20,5.4
		C320.9,266,327.6,264.2,334,261.5z M673.5,932.2c3.3,1.6,6.5,2.4,9.8,1.4c1-0.3,1.9-0.7,1.7-2c-0.3-1.6-1.4-0.9-2.3-0.8
		C679.6,931.3,676.5,931.8,673.5,932.2z M703.1,841c0.4,7.5,0.7,15,1.1,22.5C705.4,855.8,705.6,848.3,703.1,841z M83.8,332.2
		l-1.2,0.2c1.2,6.1,2.4,12.2,3.7,18.4l1-0.2L83.8,332.2z M412.1,46.4c0.9,2.7,1.3,5.2,4.3,5.4c0.9,0.1,1.7-0.5,1.5-1.5
		C417.2,47.8,415.2,46.9,412.1,46.4L412.1,46.4z M596.4,353.3c1.9-4,2.1-5.8,0.9-10.9C595.5,345.9,596.1,349.4,596.4,353.3
		L596.4,353.3z M466.1,747.2c3.9-2.5,7.4-5.4,9.2-9.9C472.3,740.6,469.2,743.9,466.1,747.2z M518.1,671c-3.5,3.4-5.3,7.7-6.4,12.3
		L518.1,671z"/>
	<path d="M11,1025.2c2.9-0.5,3-1.9,2.1-4.5c-4.5-12.9-7.5-26.3-9-39.8c-0.3-2.2-0.1-4.4,0.5-6.5c1.4,7.9,2.8,15.8,4.3,23.6
		c1.5,7.3,3.5,14.5,6,21.6c1.2,3.8,3.1,5.6,7.2,4.9c1.5-0.2,3-0.2,4.5,0c3,0.3,3.6-0.8,3-3.8c-1.7-8-3.5-15.9-4.6-24
		c-3-21-0.7-41.9,2.5-62.6c5.3-34.4,14-68.1,20.3-102.3c0.3-1.6,0.4-3.2,1.9-4.3c1.6,1,0.5,2.2,0.3,3.1
		c-9.5,43.6-19.5,87-23.6,131.6c-1.8,19.2-0.7,38.3,5.6,56.7c0.4,1.3,0.8,2.5,1.3,3.8c1.1,2.6,3.4,1.8,5.2,1.6
		c2.5-0.3,1.4-2.3,1.1-3.5c-12.1-48-5.9-95.6,2.9-143.1c7-37.8,18.4-74.6,27.7-111.9c7.8-31,14.6-62.3,18.7-93.9
		c2.8-21.5,7-42.7,8.9-64.3c2.7-30.1,2.1-60.2,0.4-90.3c-0.8-14.1-1.1-28.3-1.6-42.4c-0.2-0.9,0.2-1.9,0.9-2.4
		c1.8,1.1,1.7,3,1.7,4.7c-0.2,27.5,2.6,54.9,2.1,82.4c-0.1,7.5-0.4,15.1,0.4,22.5c1.7,15.1-2.7,29.4-4.4,44.1
		c-8,70.5-24.1,139.2-42.8,207.5C41.3,882.2,35,932.6,36.1,983.1c0.2,8.2,0.7,16.7,4.3,23.9c3,5.9,4.7,12,6.7,18.2H11z"/>
	<path d="M109,1025.2c-0.1-27,0.9-54,2.2-80.9c1.7-35.9,3.5-71.8,5.4-107.8c1.6-29.1,3.4-58.2,5.3-87.3c0.5-8.1,2.1-16.2,3.3-24.9
		c2.8,4.7,4.2,9.2,3.9,14.1c-1,19.9-2,39.9-3.1,60.8c-2.8-4.4-2.5-8.3-1.6-11.8c2.7-10.8,0.6-22,2.5-32.8c0.2-1.1,0.2-2.7-1.2-2.9
		c-2.2-0.3-2.2,1.8-2.3,3.1c-0.5,8.6-0.9,17.3-1.4,25.9c-1.5,26.8-3.7,53.5-4.5,80.3c-1.2,37.4-3.5,74.9,0.6,112.3
		c1.7,15.9,3.5,31.8,10.7,46.5c0.9,1.6,1.3,3.5,1.2,5.3H109z M111.1,1002.1c0.4,6.9,0.6,13.1,1.1,19.2c0.5,6,5.3,2.9,8.2,3.3
		c3.2,0.4,2.4-2.1,2.2-4.1c-1.7-13.2-5-26.1-6-39.4c-0.1-1.1,0-2.5-1.6-2.7c-2-0.2-2,1.4-2.1,2.7
		C112.2,988.3,111.6,995.6,111.1,1002.1z"/>
	<path d="M133,1025.2c0.7-17.9-1.6-35.6-3.6-53.2c-1.2-11,1.5-21.9-0.1-32.8c6.8-14.5,3.1-30.1,4.4-45.1c1.4-15.4,1.1-30.9,1.4-46.4
		c0.2-7.3,0-14.4,4.5-21c3.1-4.4,2.4-10.2,2.8-15.5c0.1-1.4-0.6-3,1.2-4.4c1.3,7.4-0.2,14.4-1,21.3c-4.3,36.9-7,73.9-9.4,110.9
		c-0.2,2.9-0.5,6,1.2,8.7c0.3,0.4,0.7,1.1,0.5,1.3c-4.2,6.2-0.5,13.1-1.9,19.8c-2.7,13.2,1.1,26.7,3.9,39.9c6.4,3.9,4.7,10.7,6,16.4
		H133z"/>
	<path d="M66,1025.2c-1.3-3.2-2.6-6.4-4.2-10.4c1.3,1,1.9,1.5,3.1,2.5c-0.6-5.7-2.6-10.5-3.9-15.5c-1.7-6.3-3.7-12.4-3.5-19.1
		c0-0.7,0.1-1.6-0.3-1.9c-6.7-6.5-3.4-14.9-4.3-22.4c-0.2-2.5,0.2-5,1.2-7.4c2.3,12.5,3,25.3,6.1,37.7c3.1,12.4,7.8,24.3,11.8,36.5
		H66z"/>
	<path d="M54,1025.2c-4.6-4.6-6.4-8.4-8.3-18.8c1.2,2.9,2.5,5.9,3.7,8.8c-0.8-10.5-1.8-20.8-4.9-30.8c-3.9-12.5-3.9-25.2-2-38
		c0.3,27.1,6.7,53.1,14.4,78.8H54z"/>
	<path d="M538,1025.2c3.5-7.7,8.8-13.3,16.1-16.7c-2.1,5-5.5,8.4-8.6,12.1c-1.3,1.5-3.2,2.4-3.5,4.6H538z"/>
	<path d="M669.2,346.2c2.5-1.2,4.5-2.3,6.6-3.1c7.7-3.1,14.7,1,15.6,9.2c0.5,4,0.1,8-1.2,11.8c-7.3,20.3-20.4,34.8-41.4,41.3
		c-5.4,1.7-6.8,0.9-8.2-4.5c-5.5-20.8-6.6-41.7,0.5-62.4c1.8-5.2,4.1-10.2,8.2-14.1c6.1-5.7,13.3-4.7,17.6,2.4
		c2.4,4.2,3.4,9.1,2.8,14C669.6,342.5,669.4,344.1,669.2,346.2z M666.7,351.7c1.4-7.5,1.6-13.6,0.3-19.7c-0.8-4.1-2.5-7.7-7-8.9
		c-4.6-1.2-8.1,0.8-11,4.2c-1.8,2.2-3.3,4.6-4.3,7.3c-8.7,20.5-7.9,41.5-3,62.7c1.6,6.7,2.7,7.6,9.2,5.3c19-6.6,30.9-20.2,37.3-38.8
		c1.5-3.9,1.9-8.2,1.1-12.3c-1.2-5.8-5-8.4-10.9-7.5C674,344.7,670.9,347.7,666.7,351.7z"/>
	<path d="M182.6,294.7c-6.1,3.4-8.6,10.5-15.5,13.6c0.4-6.8,2.6-12.7,3.9-18.8c0.4-1.9,1.7-1.8,3.1-1
		C176.9,290.2,180,291.5,182.6,294.7z"/>
	<path d="M166.9,217.3c-11.9-11.4-16.1-26.4-19.7-41.7C153.1,189.8,159.1,203.9,166.9,217.3z"/>
	<path d="M208.1,385.3c-0.2,1.8-1.2,1.6-2.5,1.2c-2.8-0.9-5.7-1.7-8.6-2.6c-2.9-0.9-2.6-3.3-1.9-5.3c0.8-2.4,2.7-1.1,4.2-0.6
		c2.7,0.9,5.1,2.4,7.2,4.3C207.5,383,208.1,384.1,208.1,385.3z"/>
	<path d="M607.5,311.9c1.2,16.6,0.9,33.2-3.1,50.7C605.5,344.9,607.1,328.5,607.5,311.9z"/>
	<path d="M625.4,389.2c-5.2-5.5-8.7-3.4-12.3-0.2c-2.7,2.4-5.1,5.3-8.8,6.3c-1.8,0.5-3.5,0.8-6.7-1.2c7.9,0.4,11.7-4.1,16.1-7.9
		C619.1,381.6,622.8,382.3,625.4,389.2z"/>
	<path d="M165.5,287.2c0.8,5.4-0.3,11-3.1,15.7C160.1,297.1,162.1,292,165.5,287.2z"/>
	<path d="M207.5,342.7c-2.4-0.4-1.6-2.6-2-4c-1.8-5.9-3.5-6.7-9.4-4.8c-1.6,0.5-3,2.1-6.2,1c4.4-3.1,9-3.9,13.2-5.3
		c1.3-0.4,1.8,1.6,2,2.9c0.7,3.4,1.5,6.8,2.3,10.1L207.5,342.7z"/>
	<path d="M207.4,342.8c1.9,9.4,0.9,10.8-8.9,11.7c-0.9-0.1-1.8-0.3-2.6-0.6C202.3,351.8,209.4,351.4,207.4,342.8
		C207.5,342.7,207.4,342.8,207.4,342.8z"/>
	<path d="M54.8,756.9c-1.8,7.4-3.6,14.8-5.4,22.1c-8.6,34.4-19.5,68.1-28.8,102.3c-10.4,38.2-11.3,76.9-4.1,115.8
		c0.3,1.8,1,3.5,0.1,6.4c-2.2-7.8-3.7-15.7-4.5-23.8c-1.4-12.1-2.1-24.2-2.4-36.4c0-1.8,2.6-6.9-3.6-5.4c-1.4,0.3-1-1.7-1.2-2.8
		c-1.7-10.4,0.2-20.6,2.3-30.7c1.4-6.7,2-13.7,4.6-19.9c4.6-10.8,7.8-22,11.9-32.9c5.1-13.5,10.2-27.1,15.3-40.6
		c1.1-3,1.6-5.7-1-8.2c-1.5-1.5-1.2-3.4-0.6-5.2c4.3-14.1,10.5-27.5,15.9-41.2C53.8,756.6,54.3,756.8,54.8,756.9z"/>
	<path d="M75.2,187c-2.3,18.4-4.2,35.5-5,52.6c-1.5,31,1.2,61.9,3.2,92.8c2.9,43.9,10,87.3,14.2,131.1c0.9,9.3,2,18.5,1,27.9
		c-1.4-14.6-2.1-29.2-4.5-43.7C79,416,76.4,384,70.8,352.3c-3.1-17.6-1.9-35.5-2.8-53.3c-0.9-19.3,0.3-38.6-0.8-57.9
		c-0.3-5.3,1.7-10.8-0.3-16.1C72.9,213.4,70,200.1,75.2,187z"/>
	<path d="M66.9,959c-3.7-30-4.2-59.8,3.9-89.2C74.4,899.7,70.7,929.4,66.9,959z"/>
	<path d="M61.6,531.9c-2.1-1.5-2.4-2.9-2.1-4.4c1.5-7.3,0.6-14.6,0.1-21.9c-0.5-7.5-0.4-14.9,1.7-22.2c1.2-4.1,0.3-8.3,0.2-12.4
		c-0.2-26-0.9-51.9-0.3-77.9c0.3-15.2,0.9-30.4,1.2-45.6C65.4,408.8,64.6,470.1,61.6,531.9z"/>
	<path d="M52.2,894.5c0.1-15.1,0.9-30.2,5.3-45.4c3.6,4.3,4.2,2.6,4.6-1.5c1.5-14.1,4.1-28.1,7.7-41.8
		C71.1,817.1,59.3,876.7,52.2,894.5z"/>
	<path d="M59.2,789c5.9-31.2,14-61.8,22.6-92.2C75.4,727.9,68.4,758.8,59.2,789z"/>
	<path d="M82,363c2.9,12.1,5.8,24.1,8.6,36.2c2.6,11.5,5,23,7.3,34.6c0.3,1.5,1.2,3.7-1.1,4.2c-2.1,0.5-2.6-1.6-2.8-3.3
		c-2.7-23.5-8.5-46.4-12.8-69.5c-0.1-0.6-0.1-1.3,0-1.9L82,363z"/>
	<path d="M29.7,864.4c6.2-22.4,12.8-44.7,19-67.9c2.5,2.6,4,4.7,2.6,7.5c-9.7,18.6-12.5,39.6-20.7,58.7
		C30.3,863.3,30,863.8,29.7,864.4z"/>
	<path d="M51.3,977.8c-3.5-6-1.6-12.4-6.1-16.6c-0.3-0.2-0.2-1-0.1-1.4c4.6-15.1,2.3-31,5.8-46.2c0.3-1.4-0.2-3.1,2.3-4.1
		C51.3,932.1,46.7,954.3,51.3,977.8z"/>
	<path d="M117.5,502.7c2.8,15,5,29.3,2.6,43.8c0,0.7-0.1,1.3-0.3,2c-0.3,1-0.3,2.7-1.8,2.5c-1.7-0.1-1.1-1.8-1.1-2.8
		c0.2-7.6,0.5-15.3,0.6-22.9C117.6,518,117.5,510.8,117.5,502.7z"/>
	<path d="M93.2,692.9c-2.7,24-7,47.9-12.6,71.4c1.1-12,3.1-24,5.5-35.8C88.4,716.6,90.8,704.8,93.2,692.9z"/>
	<path d="M20.5,771.7c2.1-9.5,4.2-19.1,6.3-28.6c0.7-2.9,1.4-5.8,0.4-8.8c-0.6-1.9-0.3-4.1,1-5.7c3-4.3,3.9-9.1,3.5-14.2
		c-0.1-1.8,0.2-3.5,2.7-5.3c-2.9,21.2-7.1,42.2-12.5,62.9C21.4,771.9,20.9,771.8,20.5,771.7z"/>
	<path d="M110.9,563.5l-4.8-55.7C109.4,511.3,113.3,554,110.9,563.5z"/>
	<path d="M68.1,699.7c1.1,8.4-2.5,15.7-5.4,23.2C63.1,714.9,67.1,707.6,68.1,699.7z"/>
	<path d="M37.6,781.5c-1.7,8.9-4.1,17.7-7.2,26.2C31.7,798.7,34.6,790.1,37.6,781.5z"/>
	<path d="M124.5,817.1c-0.3,39.4,8.6,77.3,4.9,115.9c-0.4-3.2-0.8-6.3-1.3-9.5c-1-6.1-0.5-12.6-4.4-18.1c-0.5-0.9-0.8-1.9-0.7-2.9
		c-0.4-15.3-3.1-30.4-0.4-45.8c2-11,0.6-22.3,0.6-33.4C123.3,821.6,122.6,819.8,124.5,817.1z"/>
	<path d="M105.8,1012.2c-4-13.1-4.6-26.5-4.6-40.8c1,2,1.5,4.2,1.4,6.4c0.1,2.2,0.3,4.3,0.3,6.5c0,3.2,0.3,6.2,2.5,8.9
		c1.7,2.1,1.2,5.1,1.1,7.7C106.2,1004.6,106,1008.4,105.8,1012.2z"/>
	<path d="M134.1,742.5c2.7,8.7,1.7,17.1-1.8,25.3C132.9,759.4,133.5,751,134.1,742.5z"/>
	<path d="M162.8,994.1c2,8,2.3,16.2,2.1,24.5C161.6,1010.8,162.9,1002.4,162.8,994.1z"/>
	<path d="M612.5,968c1.4-4.1-0.1-7.8,1.2-11.4c3.9,17.8,5,36.1,9.3,54.1c-1.9-0.4-1.9-1.6-2.1-2.6c-3.1-17.4-10.3-33.3-19.1-48.4
		c-5.4-9.2-9.5-19-13.8-28.7c-0.5-1.1-1.8-2.6-0.2-3.5c1.9-1,2.5,1.1,3.1,2.3c4.9,10,9.8,20,14.6,30C607,963.1,609.4,966,612.5,968z
		"/>
	<path d="M641.7,999.8c-4.2-11.6-8.5-23.3-10.2-35.6C635.6,975.8,640.2,987.4,641.7,999.8z"/>
	<path d="M183.2,920.5c-1.2-9.9-1.6-19.8,0.4-30.8C185.8,900.8,184.6,910.6,183.2,920.5z"/>
	<path d="M690.7,1012.5c0-5.1-2.5-9.9-0.9-14.8c0.6-1.8,0.4-4.5,3.4-3.7c2.5,0.7,3.3,3.1,2.6,5.2
		C694.4,1003.8,692.5,1008.1,690.7,1012.5z"/>
	<path d="M196,862.3c22.4,29,42.6,59.7,60.4,91.7c-1.8-2.7-3.6-5.5-5.5-8.1c-2-2.8-4.1-5.6-7.2-7.5c-2.6,2.7,2,4.9-0.4,8.4
		c-5.9-10-13.8-18.3-18.1-30.2c4.1,2.2,5.2,5.2,6.9,7.8c0.8,1.3,1.9,2.8,3.5,1.4c1.4-1.3-0.1-2.5-1.1-3.2
		c-6.2-4.5-7.9-12.5-13.2-17.7c-5-4.8-6.6-11.2-9.1-17.1c-0.9-1.8-2.1-3.4-3.5-4.8c-0.6-0.5-1.4-0.7-2.2-0.5
		c-0.8,0.4-0.7,1.5-0.3,2.2c4.2,8,4.2,17.5,8.9,25.3c0.8,1.3,1,3,2.1,4c7.4,7.1,9.4,16.6,12.3,25.8c2.5,8.1,6.8,15.5,10.4,23.2
		c2.6,5.6,6.7,10.3,9,15.8c3.8,9.3,6.2,19.2,8.8,29c-5.3-8.8-11.9-16.9-14.7-27.1c-4.4-16.3-11.4-31.6-19.8-46.2
		c-10.7-18.8-16.3-39.6-23-60C198.7,870.4,197.4,866.3,196,862.3z"/>
	<path d="M245.4,686.2c3.6,0.6,4.3,2.4,5.2,3.9c7,11.2,14.8,21.8,23.4,31.7c10,11.8,21.3,22.7,29.8,35.5
		c6.5,9.9,13.2,20.2,16.7,31.9c3.9,12.9,10.3,24.8,15.8,37.1c1.7,3.8,3.6,7.4,4.3,11.6c-1.9,0.4-1.9-1.2-2.4-2
		c-17.9-26.7-34.5-54.1-51-81.7c-1.7-2.8-5.1-6,1-7.9c0.3-0.3,0.6-0.7,0.6-1.1c-2.9-2.9-2.8-7.6-5.7-10.3
		C268.2,720.9,257.6,703.7,245.4,686.2z M292.3,748.2c-2.8,0.9-2.5,2.9-1.6,5.1c4.9,11.7,13.9,20.6,20.6,31.1
		c0.6,0.9,1.5,1.5,2.5,0.7c1-0.8,0.5-1.9,0.1-2.8c-2.4-5.3-3.8-11.1-7.3-15.8c-1.4-1.8-0.7-4.8-3.9-5.8c-3.3-1.1-5.3-3.8-5.8-7.5
		C296.5,750.8,294.6,749.3,292.3,748.2z"/>
	<path d="M278,817.8c7.2,5.8,11.4,13,17.2,18.8c8.6,8.6,17.4,17,24.8,26.7c1.3,1.6,2.8,2.9,4.4,4c7.5,5.3,14.2,11.6,19.9,18.8
		c1.9,2.3,5.8,4.4,1.8,8.4c-1.3,1.3,0.7,3.3,1.5,5c0.4,0.9,0.8,2-0.5,2.5c-1,0.4-1.4-0.5-1.9-1.2c-2.2-2.6-3.8-5.4-2.8-9.6
		c-2,1-3.1,2.3-5,0c-18.9-22.8-38-45.5-57.1-68.2C278.9,821.7,278,819.8,278,817.8z"/>
	<path d="M179,766.3c-10-13.2-18.7-26-25.7-39.8c-5.6-11-11-22-16.5-33c-0.7-1.5-1.3-3.5-2.9-3.9c-3.4-1-6.7-1.5-2.8-5.9
		c0.6-0.7,0-1.7-0.7-2.1c-3.5-1.7-3.7-5.2-4.9-8.3c-6.5-15.8-8.2-32.4-8.5-49.3c-0.5-19,0.6-38,3.3-56.8c0.3-1,0.6-1.9,1.1-2.9
		c2.2,1.7,2.1,3.8,1.6,6c-3.2,14-5.3,28.3-3.8,42.5c1.3,11.8-0.5,23.6,1.3,35.4c2.2,14.1,9.2,26.2,15.3,38.8
		c8.3,17.1,16.4,34.2,26,50.6c3.8,6.7,8.2,13,13,18.9C176.9,759,178.8,761.7,179,766.3z"/>
	<path d="M301.9,747.3c-4.4-3.6-7.4-8.4-11.1-12.7c-8.5-9.8-17-19.6-25.4-29.5c-2.4-2.8-4.8-5.5-5.9-9.2c6,6.6,14.3,10.1,21.1,15.6
		c1.2,1,1.8,2,1.1,3.4c-0.7,1.3-0.9,2.9-0.6,4.4c0.8,3,3.1,5.4,5.9,5.1c1.9-0.2,2-3.4,2-5.6c0-1.2-0.2-2.3-0.7-3.4
		c-5.2-13.3-9.7-26.9-16.4-39.6c-0.7-1.3-2.8-2.9-0.3-4.1c1.7-0.8,3.7,0.3,4.5,2.2c2,4.4,4,8.8,5.6,13.3c5.8,17.3,11.5,34.7,17,52.1
		c0.9,2.7,2.4,5.1,3.4,7.7L301.9,747.3z"/>
	<path d="M313.5,817.2c1.8,0.5,2.8,0.7,3.9,1c-9-8.5-16.2-18.9-28.3-23.4c-3.8-1.4-7-4-9.3-7.3c-6.9-10-14.8-19.3-23.8-27.5
		c-0.6-0.6-1-1.4-1.4-2.1c2-1.4,3.1,0.3,3.9,1.2c19.7,21.6,43.1,39.2,63.1,60.3c12.4,13,22,28.4,32.2,43.2c1.7,2.7,3,5.6,3.8,8.6
		c0.2,0.8,0.5,1.7-0.4,2.2c-1.2,0.7-1.9-0.2-2.2-1.2c-6.3-16.7-19.7-28.7-28.9-43.4C323,824.1,317.6,822.1,313.5,817.2z"/>
	<path d="M188.1,816.4c3.5,10.5,9.5,19,15.5,27.5c-13.4-9.8-16.6-26.3-25.2-39.3c18.5,13.8,35.5,29.4,50.9,46.5
		c-3.3,0.5-4.7-1.2-6.2-2.7c-9.3-9.3-18.6-18.5-27.9-27.9C193.4,818.7,191.6,816.7,188.1,816.4z"/>
	<path d="M388.6,935.7c-3.6-5.3-6.5-11.1-8.5-17.2c-8.4-24.2-17.6-48-29.7-70.7c-5.9-11.1-9.4-23.3-12.5-35.7c1.6,0,1.7,1.2,1.9,1.9
		c7.5,25.7,20.1,49.2,31.6,73.1C378.9,902.6,383.7,919.2,388.6,935.7z"/>
	<path d="M210,641.4c-7.3-8.3-16-14.9-24.7-21.6c-1.2-0.9-2.1-2.7-3.6-2.3c-5.1,1-6.3-2.5-8.9-5.8c-3.9-4.9-7.2-10.4-12.4-14.1
		c-0.9-0.7-2.2-1.5-1.1-2.8c0.9-1.1,1.8,0,2.5,0.6c16.4,14.1,33.6,27.3,48.3,43.4c0.4,0.5,0.7,1.1,0.9,1.6L210,641.4z"/>
	<path d="M337.4,967.1c-5.2-4.5-10.5-9.2-12.5-15.7c-3.4-11.2-10.8-19.8-17.3-29c-1.4-1.7-2.5-3.7-3.1-5.8
		C318.7,931.3,327,949.9,337.4,967.1z"/>
	<path d="M170.7,806.1c-7.6-18.8-15.2-37.5-22.9-56.3c11.7,17.1,16.5,37,24.1,55.8L170.7,806.1z"/>
	<path d="M269.1,730.3c-13.2-10.1-28.2-17.8-40.8-28.9C242.6,709.9,257.6,717.5,269.1,730.3z"/>
	<path d="M249.9,869.7c16,13.1,30.3,27.9,43.7,43.6C278.3,899.5,263.7,884.9,249.9,869.7z"/>
	<path d="M165.8,561.7c4.5,0.6,35.5,28.8,39,35.8C189.4,587,180,571.8,165.8,561.7z"/>
	<path d="M130.9,622.2c2.6,13.2,9.1,24.8,15.3,36.6C136.6,648.4,131.7,636.1,130.9,622.2z"/>
	<path d="M203.3,861.1c-7.5-9.1-14-19-19.3-29.6C191.2,840.9,198.3,850.3,203.3,861.1z"/>
	<path d="M239.6,821.1c-7.9-8.2-14-17.7-20.7-27.2C222.5,795.6,237.2,814.7,239.6,821.1z"/>
	<path d="M213.5,588.9c7.4,7.4,13.4,15.8,19.1,24.5C225,606.3,218.6,598.1,213.5,588.9z"/>
	<path d="M317.8,771.8c9.6,7.9,11.8,19.9,17.1,30.2C327.6,792.8,326.3,780.2,317.8,771.8z"/>
	<path d="M381.3,997.7c-2.7-2.5-3.2-5-3.9-7.2c-1.8-5-3.2-10.1-5.5-14.9c-0.4-0.8-1-1.9,0.2-2.6c1-0.5,1.5,0.3,1.8,1.1
		C376.6,981.6,379.8,988.9,381.3,997.7z"/>
	<path d="M184.2,772.9c5.2,4.4,7.3,11.2,12.2,15.8C189.5,785.6,187.1,779,184.2,772.9z"/>
	<path d="M165.6,646.1c6.1,5.8,12.1,11.7,18.2,17.5C176.7,659,170.6,653,165.6,646.1z"/>
	<path d="M362.6,1004.8c-3.6-3-6.5-6.9-8.3-11.2C358.1,996.6,360.5,1000.6,362.6,1004.8z"/>
	<path d="M374.5,774.3c4.4,14,5.9,27.6,8.1,41c1.4,8.6,6.2,15.7,10.1,23.3c4.3,8.3,8.8,16.4,13.3,24.6c2.5,4.5,3.5,9.8,3,14.9
		c-11.7-16.3-17.1-34.4-25.1-51.3c-3.3,3.8-2.7,7.2-1.1,11.3c7.4,18.8,11.3,38.6,15,58.4c1.4,7.3,3.9,14.1,9.6,19.3
		c0.9,0.9,0.8,1,1.3,4.2c-2.2-0.2-3-1.9-3.8-3.4c-1.1-2-2.7-3.8-4.6-5.2c-3.6-2.5-4.9-5.8-5.2-10.2c-0.4-6.4-2.3-12.7-3.7-19
		c-2.7-12.8-7.3-25.1-9.7-38c0-0.6-0.5-1.1-1.1-1c-0.1,0-0.2,0-0.3,0c-1.7,0.4-1.2,1.7-0.9,2.8c2,8.1,4.1,16.1,6,24.2
		c4.3,18.1,9,36.1,12.1,54.5c0.2,1,0.8,2.1-0.4,3.7c-4-13.7-8.7-26.8-10.9-40.6c-5.9-36.9-16.8-72.6-27-108.4
		c-0.1-0.9-0.1-1.9,0-2.8c4.3,10.2,7.8,19.3,9,28.9c1,8.5,6.9,15.2,7.7,23.6c0.1,0.8,0.6,1.3,1.3,1c0.6-0.2,1.1-0.7,1.4-1.3
		c1.4-3.6,1.6-7.6,0.4-11.3c-0.8-2.5-3.2-0.7-4.8-2.1c2.8-1.5,2.7-4.1,2.9-6.8c0.8-8.9-3.3-17.1-3.5-25.5
		c-0.2-11.1-4.5-20.5-8.1-30.3c-1.1-3-1.7-6.2-3.5-9.3c-0.4,6.8-0.8,13.6-1.2,20.4c-0.9-8.4-1.4-16.8-0.6-25.2
		c0.3-3.4,0.1-6.3-2.8-8.5c-1.3-1-1.7-3.1-0.2-2.8c6.2,1.1,3-3.6,3.8-5.7c0.5-1.3,0-3-0.2-4.4c-0.1-0.9-1.1-1.9,0.1-2.7
		c1-0.6,2.3-0.6,3.3,0.1c2.8,1.7,4.5,4.4,6.9,7.1c-3.7,0.9-5.1-1.4-6.7-3.4c-0.3,0.2-0.6,0.3-0.8,0.5c-3.8,2.4,4.1,5.8-1.2,9.2
		c-3,1.9,0.9,7,2,10.5c2.5,7.6,5.3,15.1,8,22.7c0.1,0,0.5,0,0.6-0.1c3.9-6.7,3.8-6.7,8-0.3c2.4,3.7,5.1,7.2,10.4,5.8
		c1-0.3,1.6-0.2,1.6,1c0,1-0.3,2.2,1.3,2.1c1.6,0,1.6-1.4,1.9-2.5c1.7-5.4-0.3-11.3-5-14.6c-4.8-3.4-9-3.3-14.3,0.1
		c-1,0.7-1.7,2.1-3.2,2c3.6-6.9,9.8-8.8,16.7-5.2c7.3,3.9,10.6,13.5,7.1,20.6C393.7,778.4,385.7,779.9,374.5,774.3z M375.2,767.1
		c0.4,3.7,1.8,6.8,5.5,8.2c2.1,0.8,4.3,2.1,6.2-0.5c2.8-3.7,2-6.1-3.1-7.5c-2.3-0.7-5-0.2-4.4-4.3c0.3-1.7-1.6-1.9-2.8-0.6
		C375.7,763.8,375.2,765.4,375.2,767.1L375.2,767.1z"/>
	<path d="M333,708.3c7.8,9.4,9.3,20.4,8.3,32.3c-0.9-1.4-1.7-2.9-2.3-4.4c-11-28-27.6-52.6-44.7-77.1
		c-11.2-15.9-23.7-30.9-37.3-44.9c1.2,0,3.4,0.5,1.4-1.7c-7.8-9.1-15.7-18.1-23.6-27.1c2.2,7.7,8.5,12.4,12.3,18.9
		c-18.4-18.3-35.4-38-55.7-54.6c6.8,4.9,15,7.5,21.5,12.8c22.7,18.3,43.1,39.4,60.7,62.7c18.5,24.7,38.2,48.8,51.7,77
		c3.5,7.3,7.9,14.2,12.4,21C338.7,717.3,334,713.3,333,708.3L333,708.3z"/>
	<path d="M333.1,708.2c-3.4-3-4.9-7.3-7.3-11c-1.1-1.7-0.2-2.8,0.9-3.9c2.7-2.7,2.3-5.2-1.3-6.1c-2.8-0.7-4.4-1.2-2.5-4.4
		c1.2-1.9-1-3.6-1.1-5.7c-0.2-5.4-1.8-10.7-0.5-16.3c1.3-5.7,2-11.4,4.3-16.8c2.4-5.6,6.1-10.3,9.9-14.9c1.7-2,3.5-4,5-6.2
		c1.4-2.1,0.3-3.8-1.4-5.2c-1.8-1.4-3-0.3-4.2,1c-2.8,3-4.5,6.9-7.9,9.4l0.1,0.1c0.9-3.5,1.7-6.8,1.1-10.6
		c-1-6.5,6.5-11.9,13.2-10.1c7.7,2.1,12,11.9,8.4,19c-1.7,3.3-4.4,5.2-8.1,4.7c-4.5-0.6-7.2,1.4-9.4,5.1c-12.4,20.7-12,39.9,3,60.5
		c7.3,10,12.4,20.8,14.3,33.1c0.7,4.2,1.1,7.9-2.1,11.6c-3.2,3.7-1.5,7.7,1.9,11.2c1.3-2.6-0.9-4-1.3-5.8c-0.3-0.8,0-1.7,0.7-2.2
		c0.8-0.5,1.2,0.2,1.5,0.7c2.2,3.6,5,7,5,12c-3.3-3.2-3.3-3.2-4.8,2c-2.5-4.9-4.7-9.3-6.8-13.7c-0.3-0.6-0.4-1.2-0.2-1.8
		c6.4-11.7,2.1-22.4-2.4-33.3c-1.6-4.4-5.1-7.8-9.5-9.4C329.7,704.2,333.4,705.8,333.1,708.2L333.1,708.2z M334.4,617.1
		c3.2-4.8,5.8-2.4,7.5-0.3c2.8,3.4,3.7,8.1,2.2,12.3c4.5-1.6,4.9-4.9,4.8-8.5c-0.1-5.1-2.1-9-7.2-10.9
		C336.2,607.7,334,609.4,334.4,617.1z"/>
	<path d="M348.4,792.7c-11.5-32-22.7-63.1-33.9-94.3c3.8,3.4,5.9,7.8,7.7,12.1c3.7,9.1,7.2,18.2,10.6,27.4c1.2,3.2,2.2,6.3,5.4,8
		c1.1,0.7,2,1.8,2.3,3.1c2.4,6.4,5,12.7,7.2,19.1c1.3,3.8,3.1,7.8-0.8,11.5c-1.6,1.5-0.4,3.8,0,5.7
		C347.6,787.5,349.3,789.4,348.4,792.7z"/>
	<path d="M357.2,688.6c-2.5,5.8-1.9,11.4-2.8,16.8c-0.3,1.7,1.4,2.4,2.9,3c1.6,0.7,3.7,0.7,5.1,3.5c-8.1-2.8-15.4-5.4-22.7-10.4
		c3.9,0.2,6.2,1.9,8.7,3.1c2.1,1,4,1.3,4.5-1.7c0.8-5.8,1.5-11.5,2.1-17.3c0.4-3.2-0.8-6.4-3.2-8.5c-1.4-1-2.3-2.5-2.5-4.2
		c-0.5-5.6-5.3-8.2-8.3-12.1c-0.5-0.7-1.5-0.9-2.3-0.4c-1.5,1-0.7,2.4-0.3,3.6c2.6,7.9,5.2,15.8,7.8,23.7c0.6,2,1.2,3.9,2,6.5
		c-0.9-0.5-1.1-0.5-1.1-0.7c-6.6-15.9-14.3-31.4-15.2-49.1c-0.1-1.1-0.6-2.6,1-2.9c1.3-0.3,2,1.1,2.6,2.1c3.2,5.4,6.6,10.8,9.6,16.3
		c4.6,8.2,10,16,13.9,24.6c2.8,6.1,2.3,12.2,1.2,19.8C357.8,698.5,360.8,693.3,357.2,688.6z"/>
	<path d="M324.7,624.5c-3.1-4.5-5.8-8.5-8.4-12.4c-15.1-22.7-32.9-42.7-57.1-56.1c-1.4-0.9-2.9-1.6-4.5-2.1
		c-17.2-4.3-29.7-16.1-43.2-26.3c-0.1-0.1,0-0.3,0-0.5c0.9-0.5,1.6,0.2,2.2,0.7c12.9,9.2,26.7,16.7,41.1,23.4
		c18.1,8.4,33.5,20.2,45.3,36.5c7.3,10.1,16.2,19,22.7,29.7C324,619.2,325.6,621.1,324.7,624.5z"/>
	<path d="M421.8,977.7c-3.3-3.5-4-7.9-4.8-12.3c-3.8-22.4-3.1-45.1-4.9-67.6c-0.6-7.9-1.4-15.8-1.7-23.8c6.3,9.4,8.9,19.9,9.4,31.1
		c-1.8-6-3.4-12-6.2-17.7c-0.9,10,1.1,19.8,1.5,29.7c0.4,10.3,0.9,20.6,1.5,30.9C417.3,958,419.1,968,421.8,977.7z"/>
	<path d="M398.6,752.6c9.8,5,14.4,12.2,13.3,21.1c-2.6,19.9-2.5,39.8-1.7,59.8c0.4,8.8,0.1,17.7-0.9,26.4c-0.3-9.7-0.6-19.5-1-29.2
		c-0.9-19.5,0.4-38.9,1.8-58.3c0.4-6.3-1.4-10.9-6.6-14.5C401.2,756.7,399.6,754.8,398.6,752.6z"/>
	<path d="M185.3,520.3c13.9,19.3,32.7,33.4,50.5,48.5C222.6,564.7,190.5,534.3,185.3,520.3z"/>
	<path d="M322.6,583.1c-27.9-19-57.4-35.6-85.3-54.6C266.3,545.7,295.6,562.6,322.6,583.1z"/>
	<path d="M333.3,589.2c10.7,7,20.7,13.5,30.7,20c4.1,2.7,5.8,6.2,4.2,11.1c-1.5,4.6-1.3,9.8-3.6,14.2c-0.4-4.3,0.6-8.5,1.5-12.6
		c1.3-6.2-0.6-10.5-6.1-13.8c-8-4.7-15.7-9.9-23.6-15C335.1,592.4,333.5,591.9,333.3,589.2z"/>
	<path d="M327,628.1c-2.1,4.3-4.3,8.5-6.2,12.9c-6.1,13.9-6.5,29.5-1.2,43.7c0.5,1.2,0.8,2.4,0.9,3.7c-4.8-7-5.4-15.1-5.7-23.2
		c-0.6-12.2,2.8-24.3,9.6-34.4C325.1,629.9,325.5,628.4,327,628.1L327,628.1z"/>
	<path d="M373.4,632.5c-0.6-1.7-0.5-3.7,0.3-5.3c3.8-10.3,2.3-15-6.5-21.2c-1.6-1.1-5.9-1.8-3.9-4.3c1.8-2.3,3.4,1.8,5.3,2.9
		c0.3,0.2,0.5,0.4,0.8,0.6C380.1,615.1,380.7,618.7,373.4,632.5z"/>
	<path d="M285.8,617.7c-1.1,0.6-2.4,0.2-2.9-0.9c0,0,0,0,0,0c-4.5-7-10.7-12.7-16.1-19c-0.6-0.7-1.8-1.5-1-2.5
		c1.2-1.4,2.1,0.1,2.8,0.8C275,602.6,280.4,610,285.8,617.7z"/>
	<path d="M357.6,675.1c-1.4-9,1.2-25.3,5.4-33.4C361.1,652.9,359.4,663.6,357.6,675.1z"/>
	<path d="M206.7,502.9c9,7.4,18,14.9,27,22.3c-0.3,0.4-0.7,0.8-1,1.3c-8.9-7.5-17.9-15-26.8-22.5
		C206.2,503.6,206.5,503.2,206.7,502.9z"/>
	<path d="M386.5,742.3c-6-3.7-11.7-7.8-17.1-12.3l0.8-1.1c5.7,4.1,11.3,8.3,17,12.4C386.9,741.6,386.7,741.9,386.5,742.3z"/>
	<path d="M182.4,482.1c5.9,5.1,11.8,10.3,17.8,15.4l-0.8,0.9c-6-5.1-12-10.2-18-15.3L182.4,482.1z"/>
	<path d="M262.7,440.7c-1.4-7.4-4.5-14.2-5.3-21.7c3.9,10.9,8,21.6,12.7,32.6c-14.5-9-25.3-32.7-21.7-47.6c1.8,6.6,3.3,13,5.2,19.2
		C255.6,429.6,258.2,435.7,262.7,440.7z"/>
	<path d="M391.7,468.5c-5,0.2-11.2-1-17.4-2.2c-1.1-0.2-2.6-0.3-2.5-1.8c0.2-1.7,1.6-1.2,2.8-0.9c16.3,4.4,32.5,4.4,48.5-1.4
		c0.7-0.3,1.7-0.7,2,0.5c0.4,1.3-0.6,1.9-1.6,2c-8.4,1.7-16.8,4.2-25.5,3.8C396.3,468.5,394.6,468.5,391.7,468.5z"/>
	<path d="M482.4,799.7c-11.4-8.5-22.9-17.1-34.4-25.5c-2.8-2-2.4-3.2,0.1-5.2c7.6-5.8,17.3-4.5,22.6,3.8
		C476,781.1,479.4,790.3,482.4,799.7z M476.1,792.2c-1.1-5.5-2.3-10.4-4.7-14.7c-2.8-5.5-8.5-8.9-14.6-8.8c-1.7,0-3.6,0.4-4.4,1.9
		c-0.9,1.8,0.6,3.1,1.8,4.2C461,781.2,468.4,787,476.1,792.2z"/>
	<path d="M552,808.7c13.5,22.3,21.8,46.9,33.5,70C571.6,856.6,562.5,832.3,552,808.7z"/>
	<path d="M618.1,767.9c5.1,7.1,9.6,13.5,14.3,19.8c4.7,6.2,9.6,12.3,14.7,18.7C636.3,800.1,620.6,779.4,618.1,767.9z"/>
	<path d="M627.8,825.6c5.9,9.5,14.6,16.9,19.2,27.3C641.1,843.4,628.4,838.9,627.8,825.6z"/>
	<path d="M663.9,868c8.3,6.9,16.1,14.4,23.1,22.6c0.8,0.9,1.5,1.9,0.2,3c-0.7,0.6-1.7,0.6-2.4-0.1c-0.1-0.1-0.2-0.2-0.2-0.3
		c-5.4-8.9-13.9-15.2-20.1-23.4C664.3,869.2,664,868.6,663.9,868z"/>
	<path d="M688.5,869.1c-3.2-9.8-8.5-18.4-12.2-27.6C684.8,847.2,691.1,861.6,688.5,869.1z"/>
	<path d="M592.3,775.6c4.6,6.2,7.4,13.5,13.1,18.7c0.8,0.6,0.9,1.8,0.3,2.5c-0.1,0.2-0.3,0.3-0.5,0.5c-1.5,1.1-2.6,0.3-3.4-0.8
		C597.4,790.2,594.2,783.1,592.3,775.6z"/>
	<path d="M523,703.7c-2.4-2.1-5.9-3.3-5.3-7.4c0.2-1.1,0-2-1.2-2.3c-1.6-0.5-1.1,1.8-2.7,2c0-0.8,0.1-1.6,0.2-2.5
		c0.7-2.7,1-6.9,3.8-6.8c2.6,0.1,1.8,4.3,2.1,6.8C520.3,697.1,522,700.3,523,703.7z"/>
	<path d="M476.2,147.7c2.6,0.9,1.9,4.2,4.7,4.9c0.6-2.5,0.6-5-0.6-7.1c-2.6-4.6-2.5-10.4-7-14.1c-1.7-1.4,0.1-2.2,1.2-2.7
		c1.4-0.7,3.4-2.1,4,0.4c2.7,10.8,9.2,20.8,7.1,32.8c-0.8,4.8,0.5,9.6,1.7,14.3c1,4.2,2.2,8.4,1.4,12.8c-0.5,2.7,1.1,4.2,3.3,5.6
		c-3.5,2.2-5.3,1.6-6.2-2c-0.7-3-1-6.3-3.8-8.4c-1.3-1-0.5-2.4-0.1-3.7c1.7-6.7,0.7-13.8-2.9-19.7
		C476.7,156.6,476.3,152.3,476.2,147.7z"/>
	<path d="M432.8,81c3.9,3.1,5.2,5.6,3.1,9c-0.8,1.3-1.5,2.8,0,4c3.3,2.7,2.8,5.8,1.8,9.4c-1.7,6.1-0.5,12.2,0.5,19.7
		c2.4-6.9,2-12.9,3.3-19.5c2.2,3.9,2.1,7.4,1.9,10.8c-1.1,17.8-6,34.9-10.1,52.1C435.5,138.4,437,110.2,432.8,81z"/>
	<path d="M460.1,88.7c22.8,28.4,42,58.5,42.8,96.7c-2.7-17.7-8.4-34.6-15.7-50.9C480,118.1,469.5,103.7,460.1,88.7z"/>
	<path d="M508.3,165.5c11.3,32.7,23.7,65.2,25.5,101.1c-2.3-3.4-2.3-6.7-2.8-9.8c-1-7.1-1.9-14.2-2.9-21.2c-0.1-1-0.3-2-0.7-2.9
		c-9.1-18.1-9.5-38.9-17.5-57.3c-1.3-3-1.9-6.3-2.9-9.4L508.3,165.5z"/>
	<path d="M534,369.4c-0.3-29.2,3.4-58.3,1.8-87.5C539.6,311,539,340.5,534,369.4z"/>
	<path d="M437.2,75.3c11.5,21.4,17.4,44.7,21.3,68.6l-1.2,0.4L437.2,75.3z"/>
	<path d="M471.2,200.7c0.4,2.7,0.6,5.4,2.1,7.7c0.9,1.6,1.1,3.5,0.6,5.3c-2.2,11.2-4.4,22.5-6.8,33.7c-0.9,5.1-3.2,9.8-6.7,13.7
		C465.4,241.2,469.9,221.3,471.2,200.7z"/>
	<path d="M543,139.8c-2,0-3.9-0.8-5.3-2.2c-8.2-9.2-16.7-18.1-25.6-26.5c-0.9-0.9-2.2-1.7-1.6-3.8c3.7,1.4,7.1,3.4,10,6
		c5.4,4.6,10.9,9.2,14.2,15.8c1.3,2.5,3.1,4.7,5.5,6.4c1.6,1,2.6,2.6,2.7,4.4L543,139.8z"/>
	<path d="M438.2,261.3l-4.9,18.5l-0.7-0.1c-0.1-1.7-0.2-3.3-0.3-5c-6,8.7-12,17.2-20,24.1C421.1,286.4,429.5,273.9,438.2,261.3z"/>
	<path d="M395.5,300.8c7.6-15.1,18-28.5,26.1-43.2C416.2,274,406.7,287.9,395.5,300.8z"/>
	<path d="M560.3,314c1.8,18,3,35.9,1.1,53.9C561.5,349.9,558.5,332,560.3,314z"/>
	<path d="M574.6,193.9c-8.5-4.9-11.9-12.5-11.9-21.9C568.7,178.3,571.4,186.2,574.6,193.9z"/>
	<path d="M436.8,194.7c1.4,6,0.7,12.4-1.9,18c-1.5-2.4-0.9-4.4-1.1-6.3c-0.1-1,0.2-2.5-1-2.4c-5.2,0.3-3.3-3.4-3.2-5.7
		c0.2-4.2,0.4-8.5,2.7-12.9c1.5,3.7-0.7,6.7-0.5,9.9c0.1,1.6-0.9,3.8,1.2,4.3c2.1,0.5,2.2-1.9,2.8-3.4
		C436.2,195.7,436.5,195.2,436.8,194.7z"/>
	<path d="M543,139.8l-0.2,0.2c1.3-0.5,2.7,0.1,3.4,1.3c4.5,7.2,9.1,14.3,13.5,21.5c1.4,2,2.2,4.4,2.3,6.8c-1.5,0.9-2.3,0-2.5-0.9
		c-2.1-8.8-8.5-14.9-13.7-21.7C544.2,145.1,541.2,143.2,543,139.8z"/>
	<path d="M491.8,114.8c1.9-0.9,3.3-0.6,3.8,0.4c4.2,8.7,8.2,17.5,11.6,26.5C501.7,133,497.7,123.5,491.8,114.8z"/>
	<path d="M524.8,242.6c3.3,7.1,4.4,15.1,3.1,22.9C525.1,260.3,523.6,250.1,524.8,242.6z"/>
	<path d="M485,248.8c2.7-6.9,5.4-13.8,8.1-20.6C492.6,235.9,489.5,242.6,485,248.8z"/>
	<path d="M531.2,222.4c-2.4-8-4.7-16-7.1-24C528.3,205.8,530.2,213.9,531.2,222.4z"/>
	<path d="M531.9,137c4.1,2.8,7.1,6.9,8.4,11.6C537.5,144.7,534.7,140.9,531.9,137z"/>
	<path d="M116.6,438.4c-3.5-7.7-5.6-16-6-24.4c-1.5-23.4-9.9-45-17.1-66.9c-2.4-7.4-3.6-15.2-3.4-23c0.1-8.2-2.2-16.4-2.7-24.7
		c-2.4-41.5-1.3-82.8,6.9-123.7c0.3-1.6,0.8-3.2,1.2-4.8c0.2-0.8,0.6-1.6,1.2-2.3c-7.2,62-5.5,123.5,8,184.5
		c-5.8-17.2-9.1-35-11.1-53c-2-17.8-2.7-35.7-3.7-53.6c-1.3,11.7-1.5,23.5-0.6,35.3c1.5,20.9,2.3,42.3,8.5,62.2
		c9,28.6,12.3,58.2,18.9,87.1c0.4,1.9,0.7,3.9,0.9,5.9C117.7,437.3,117.3,437.6,116.6,438.4z"/>
	<path d="M150.6,97.8c5.6-5,11.1-10,16.7-15c1.1-1,1.9-2.4,3.5-2.7c1-0.2,2.1-0.3,2.8,0.6c0.6,0.8-0.1,1.5-0.5,2.3
		c-1.3,2.4-2.9,4.6-5.5,5.6c-7.4,2.9-12.5,8.5-17.5,14.4c-2.8,3.4-5.5,6.9-9.6,9.1C152.4,87.3,167.5,65,188,46.6
		c7.8-7,15-14.7,23.1-21.4c2.6-2.2,3.9-2,4.2,2c6.4-8.4,16.8-8.5,24.7-14.1c0.2,2.9-1.5,3.6-3.1,4.4c-17.1,8.9-32.4,20.3-47.6,31.9
		c-15.9,12.1-27.8,28-37.1,45.8c-0.4,1-0.8,2.1-1.1,3.2L150.6,97.8z"/>
	<path d="M149.8,115.6c-6,17.4-15.8,31.8-20.1,48.4c-4.3,16.6-8.9,33.1-8.7,50.5c-2.8-1.1-2.1-3.1-2.1-4.8
		c0.5-16.8,2.6-33.5,6.2-49.9c0.9-4.1,2.6-7.9,5-11.4c6-9,11.2-18.5,15.5-28.4C146.4,118.1,147.9,116.5,149.8,115.6z"/>
	<path d="M94.7,154.9c1.8-6.4,3.6-12.8,5.5-19.2l-0.8-0.3l-3.7,5.7c2.8-12.9,9-23.9,17.9-33.6c-6.2,16-11.7,32.2-17.9,48.2
		L94.7,154.9z"/>
	<path d="M116.4,408.1c2.5,3.4,2.6,6.6,3.6,9.5c3.9,11.6,6.7,23.6,9.6,35.6c0.4,1.7,1.5,4-1,4.7c-2.4,0.7-3.6-1.5-4-3.5
		c-0.8-4.2-1.1-8.5-1.9-12.8c-1.9-9.9-4-19.9-5.9-29.8C116.5,410.5,116.4,409.3,116.4,408.1z"/>
	<path d="M140.9,119.1c-1.8,8.5-7.5,15.3-10.3,23.4C130.8,133.3,134.6,125.7,140.9,119.1z"/>
	<path d="M108,137c-1.1,8-2.2,15.9-3.4,23.9C104.7,152.8,105.8,144.8,108,137z"/>
	<path d="M425.1,135.3c2.7,8.7,1.4,17.3,0.6,25.8c-1.9,20.3-6.6,39.9-13,59.2c-2.3,6.9-9.2,10.4-10.5,17.6l-1.2-0.6
		c2.4-6.1,4-12.6,7.3-18.2c11.7-20.2,12.3-42.8,14.7-65C423.7,147.8,424.4,141.5,425.1,135.3z"/>
	<path d="M357.7,264.1c-5,9.8-10.9,18.6-20.3,24.5c4.5-5.9,9-11.8,13.5-17.7c-11.1,7.9-21.2,16.8-32.7,24
		c-11.5,7.2-23.1,14.2-36.7,16.9c6.4-1.6,11.3-6.7,17.9-8c3.4-0.7,6.3-3,9.1-5.1c12.9-9.6,25.8-19.4,38.8-28.9
		C350.5,267.4,354.3,265.9,357.7,264.1z"/>
	<path d="M398,151.8c1.5-7.9,2.9-15.6,4.3-23.3c1.3-7.4,3.8-14.4,6.3-21.4c0.5-1.4,1.1-3,3.1-2.6c2,0.4,1.9,2,1.7,3.5
		c-1.9,14.7-6.4,28.9-13.2,42C399.8,151,399,151.7,398,151.8z"/>
	<path d="M407.8,141.4c-1.1,5.6-1.1,11.5,0.2,17.1c0.1,1.3-0.3,2.7-1.2,3.7c-5.3,6.5-8.8,14-12.8,21.3c-0.4,0.6-1.1,1.1-1.8,1.2
		C398.2,170.5,401.1,155.3,407.8,141.4z"/>
	<path d="M335.7,267.4c-6.6,8.4-13.5,15.6-21.7,21.3c-1,0.7-2.3,2.1-3.5,0.9c-1.1-1.2,0.2-2.5,1.1-3.4c5.8-5.7,11.7-11.3,17.6-17
		C330.7,267.8,332.7,267.6,335.7,267.4z"/>
	<path d="M404.4,99.6c0.4,1.5,2.1,2.2,1.3,4.3c-4,10.5-9.2,20.5-15.5,29.8C395.2,122.4,401.6,111.8,404.4,99.6
		C404.4,99.6,404.4,99.6,404.4,99.6z"/>
	<path d="M361.9,234.8c-5.7,5.9-9.2,13.8-16.1,18.6l-1-0.9c5.3-6.2,10.6-12.5,15.9-18.7L361.9,234.8z"/>
	<path d="M280.4,296.6c3.1-5,7.1-9.4,11.7-12.9C289.5,289,285.3,293.1,280.4,296.6z"/>
	<path d="M233.2,251l-1.4,4c-0.9-8.5,0.9-16.7,1.5-25c0.9-12.8,4.5-25.2,5-38c0.3-4.2,1.3-8.3,3-12.1c3.9-9.5,7.8-18.9,12.5-28.2
		c-14,46.4-17.4,94-18.3,142c-2.4-14.1-1.1-28.3-0.9-42.5L233.2,251z"/>
	<path d="M239.7,306.7c-1.7-8.6-0.8-17.3,0.6-25.7c4.9-29.1,13.6-57.2,22.2-85.3c0.5-0.9,1-1.7,1.6-2.5c-1,4.9-1.7,8.4-2.5,11.9
		c-0.8,3.6-1.8,7.1-2.7,10.6c-7.4,28.5-13.9,57.2-17.6,86.5C241.2,303.8,240.6,305.4,239.7,306.7
		C239.6,306.7,239.6,306.7,239.7,306.7z"/>
	<path d="M279.8,139.7c8.2-18.8,20.5-34.8,34.9-49.3C303.4,107.1,289.3,121.8,279.8,139.7z"/>
	<path d="M386.5,47.5c-3.8,5.5-8,10.6-13.5,14.4c-2.8,2-6.1,3.2-6.6,7.4c-0.2,1.2-1.3,2-2.5,1.9c-0.4-0.1-0.7-0.2-1-0.4
		c-1.7-1.1-1.2-2.5,0-3.7c1.5-1.8,3.1-3.4,4.8-5c2.6-2,4.6-4.6,6.1-7.5C376.2,49.6,382.2,49.8,386.5,47.5z"/>
	<path d="M331.8,63.6c4.8-4.7,9.5-9,13.9-13.6c2.2-2.3,5,0.1,7.5-1.6c5.4-3.5,11.3-6.2,17.1-9.2c1.9-1,3.9-1.8,5.9-2.6
		c1.2-0.5,3-1.2,3.5,0.2c0.7,1.8-1.4,1.8-2.5,2.3c-3.5,1.5-7.1,2.7-10.6,4.2c-11.3,4.9-21.8,11.3-31.3,19.1
		C334.5,63.1,334,64.4,331.8,63.6z"/>
	<path d="M288,177.7c-1.8,4.1-1.8,9.2-4.8,13.2c-1.7,2.2-3.6,4.1-3.6,7.2c0,1.2-0.9,2.2-2.1,2.2c-0.2,0-0.5,0-0.7-0.1
		c-1.4-0.5-0.5-2-0.1-3c0.8-2.9,1.8-5.6,3.1-8.3c2-3.6,4.4-7,4.4-11.4c-0.2-1.1,0.6-2.1,1.7-2.3c0.3,0,0.6,0,0.8,0.1
		C287.9,175.4,288.2,176.4,288,177.7z"/>
	<path d="M310.7,134.8c-3.2,8.8-8.6,16.2-15.5,24.2c1-4.4,1.5-7.5,2.5-10.5c0.7-1.9,3.5-1.1,4.7-3.2
		C304.8,141.7,307.9,138.4,310.7,134.8z"/>
	<path d="M276.4,136.4c5.2-13.1,12.8-25.1,22.2-35.5C290.6,112.4,283.2,124.2,276.4,136.4z"/>
	<path d="M269.1,240.3c-2.8,8.4-5.6,16.8-8.5,25.2C261.3,256.5,264.2,247.8,269.1,240.3z"/>
	<path d="M446.1,629.9c-4.1-3.7-5.3-8.7-7.3-13.5c-0.5-1.4-1.2-2.7-1.9-4.1c-0.6-1.1-1.9-1.6-3-1c-1.4,0.6-1.4,1.8-0.9,2.9
		c1.2,2.9,1.6,5.7-0.3,8.9c-2.9-4.8-3.2-9.6-2.2-14.6c3.2-15.9,7.3-31.5,14.7-46c2.4-4.6,2.5-8.3-1.8-11.9c-3.2-2.7-5.5-6.2-9.4-8.1
		c-2.6-1.3-2.2-3.8-2.7-6.2c2.8-0.2,3.6,2,4.6,3.4c3.2,4.5,6.3,9,11.9,11c2,0.7,2.5,2.4,1.9,4.5c-1.3,4.5-2.1,9.1-4,13.4
		c-4.8,10.9-6,22.4-6.8,34.1c-0.5,7.2,1.9,13.8,4.4,20.3C444.2,625.3,445.1,627.6,446.1,629.9z"/>
	<path d="M438.6,516.8c3.6,4.7,6.8,8.4,12.8,8.5c2.5,0.1,5,2.5,7.4,3.9c4.3,2.7,8.6,5.6,13.1,8.5c-6.3,3.5-12.3,3.6-18.2,0
		c-4.2-2.4-8.2-5.1-12-8.1c-3.8-3.1-6.8-2.7-9.9,0.8c-1.6,1.9-3.3,3.6-5.2,5.2c1.5-4.5,5-8.1,9.5-9.9c4.2-1.8,6.7,1.4,9.6,3.7
		c5.8,4.7,13.5,5.1,19.7,9c-0.7-3.7-3.3-5.1-5.9-5.9c-6.5-2.2-12.2-6.1-18.4-8.8C437.8,522.4,437.3,520.3,438.6,516.8z"/>
	<path d="M367.6,522c0,3.5,0,6.9,0,10.4c-0.1,2.9,1,4.2,4.2,3.9c2.8-0.2,5.7-0.1,8.4,0.4c7.4,0.9,9.8-0.4,12.4-7.5
		c0.3-0.9,0.2-2.1,1.8-2.5c0.1,4.8-1.7,9-3.5,13.1c-0.6,1.4-1.6,2.2-3,0.6c-1.8-2-4.2-1.8-6.5-1.3c-4.8,1-9.6-0.1-14.4-0.1
		c-3.2,0-4.1-1.8-3.9-4.5C363.3,530,364.8,525.6,367.6,522z"/>
	<path d="M466.1,581.5c0.3,15.9-9.8,29.6-9.1,46.2C452.6,620.9,455.4,606.8,466.1,581.5z"/>
	<path d="M419.5,515.6c-2-1.2-4,1.9-6.2,0c2.2-2.2,5.1-2.2,7.8-2.9c2.3-0.5,1.8,1.2,1.7,2.5c-1.3,11.1-10.9,20.8-21.6,21.8
		c-1.1,0.1-2.6,0.7-2.8-1c-0.2-1.2,1.1-1.4,2.1-1.6C411.6,531.5,416,527.1,419.5,515.6z"/>
	<path d="M450.2,510c12.6,3.7,22.1,12.5,32.5,20c-12.3-4.2-22.5-11.8-32.3-20.1C450.3,509.8,450.2,510,450.2,510z"/>
	<path d="M479.8,521.8c-4.3,0.1-5.8-2.2-7.2-4.7c-2-3.7-4.3-7-9.3-7.2c-1.8,0.1-3.3-1.3-3.4-3.1c0-0.2,0-0.3,0-0.5
		c0.2-2.3,2.1-3.3,3.8-4.1c2-0.9,2.9,0.8,3.7,2.3C470.9,510.8,475,516.6,479.8,521.8z"/>
	<path d="M480.2,617.2c-6.1-6.7-3.6-18.1,4.7-25.5C481.3,599.4,479,607.4,480.2,617.2z"/>
	<path d="M494.9,561.1c1.4-4,2.7-8.1,4.1-12.1c0.3-0.9,0.9-1.7,1.8-3.6C500.2,552,498.3,556.9,494.9,561.1z"/>
	<path d="M208.6,266.3c-6.9-21.4-4.2-43.3-1.2-64.3c6.6-45.3,21.8-87.7,53.6-122.5C219.9,135.1,204.3,197.9,208.6,266.3z"/>
	<path d="M334.5,22.1c-21.4,9.1-37.9,24.6-54.7,40c10-17.1,26.3-26.6,42.8-35.9c-24.8,5.5-71.2,26.7-100.9,77.1
		c1.9-12.4,36.5-53.8,53-62.4l-4.6,4.9l0.6,1.2C289.6,32.3,310.6,23.4,334.5,22.1z"/>
	<path d="M375.8,22.5c-8.5,2.4-16,1.5-23.4,1.7c-1.9,0.1-1.7,0.2-2.9,2.3c-0.5,0.9-2.2,1.3-3.4,1.8c-19.4,8.7-38.4,18.3-55.4,31.2
		c-2.9,2.2-5.7,4.5-8.8,6.6c2.5-4.4,6.6-7.4,10.3-10.7C307,42.2,323.2,31,341.9,23.8C352.7,19.6,363.6,20.4,375.8,22.5z"/>
	<path d="M196.6,172.5c-1.6,11.4-3.6,21.7-4.7,32.1c-1.4,14.7,0.4,29.3,0.2,43.9c0,1.3,0,2.7-0.1,4c0,0.9-0.3,1.7-1.4,1.7
		c-0.9,0-1.6-0.6-1.7-1.5c-0.2-1.2-0.2-2.3-0.4-3.5c-3.1-25.5,0-50.4,6.5-75.1C195.3,173.8,195.6,173.6,196.6,172.5z"/>
	<path d="M284.4,78.4c-16.9,21.5-27.9,46.3-39.8,70.6c-1.3,2.6-2.8,5-5.5,6.2c-1.1,0.5-2.6,0.5-3.1-0.8c-0.6-1.5,0.7-2.1,2-2.1
		c3.4,0.2,4.5-2.2,5.6-4.8c6.3-15,14.3-29.3,21.2-44C269.1,94.4,275.2,84.8,284.4,78.4z"/>
	<path d="M219.8,132.2c-1.9,3.9-3.4,7.4-6.1,10c-1.8-1.5,3.2-8.9-4.7-4c1.9-5.4,1.3-11,5.3-15.2c1.2,1.1,0.5,2,0.2,2.9
		C212.7,132.4,212.7,132.4,219.8,132.2z"/>
	<path d="M625.1,620.8c6.4,12.9,12.9,25.8,19.3,38.8c1.5,3,0.9,6.4,1.4,9.5c3.3,18.3,10.9,35.2,15.9,52.8c3.1,10.7,6.7,21.2,10,31.8
		c0.5,1.4,0.6,2.9,0.2,4.3C656.9,712,640.1,666.7,625.1,620.8z"/>
	<path d="M548.8,439.8c-3.5,13.8,0.1,26.5,6,40.1c0.7-6.4-1.9-11-2.3-15.9c2.4,3.5,2.8,7.7,4,11.7c1.5,4.9,2.7,9.9,4.1,14.9
		c0.3,1.1,1.3,2.5,0,3.1c-1.4,0.6-3.1,1.5-4.7,0.1c-4.5-4-7.4-9.6-8.1-15.6c-0.1-0.5-0.1-1,0.2-1.4c2-2.4,1.8-2.2,0.4-4.6
		c-2-3.4-6.5-6.2-2.7-11.3c0.9-1.2-1.1-3.2-2.1-4.8c-2.4-4.2-2.9-8.4-0.5-12.8C544.2,441.2,545.7,439.5,548.8,439.8z"/>
	<path d="M581.6,514.8c-3.6,0.5-4.9-1.1-5.6-3.3c-8.2-23.6-15.1-47.5-21.7-71.5c-0.2-0.8-0.3-1.6,1.2-2.7
		C563.5,463.4,569.8,489.8,581.6,514.8z"/>
	<path d="M655.2,682c5.9,12.6,11.7,25.3,16.1,38.5c-0.6,0.3-1.2,0.5-1.9,0.8c-5.2-12.9-10.4-25.8-15.5-38.7L655.2,682z"/>
	<path d="M317.3,197.2c-9.2,17-16.1,34.1-22.8,51.2c-4.4,11.5-10.6,22.3-18.4,31.9c0.8-1.5,1.7-3.1,2.5-4.6c0.7-1.7,1.6-3.3,2.5-4.9
		c7.4-10.8,9.6-24,16.2-35.3c0.8-1.5,1-3.2,0.8-4.9c-0.1-1.7-1.2-3.2-2.9-3.6c-1.7-0.6-2.7,0.4-3.7,1.7c-4.5,5.6-8.3,11.7-11.4,18.1
		c-2.1,4.4-6.4,7.8-6.3,13.3c0.1,0.7-0.5,1.3-1.2,1.4c-0.2,0-0.3,0-0.4,0c-1.6-0.5-1.2-1.8-0.7-2.9c1.7-4.3,3.5-8.6,5.2-12.9
		c1.1-2.6,2.1-5.2,3.2-7.8c0.3-0.8,0.5-1.9,1.1-2.2c8-4,10.9-12.8,17.4-18.3c6.7-5.7,11.9-13,17.6-19.7
		C316,197.5,316.3,197.5,317.3,197.2z"/>
	<path d="M399.7,82.9c-0.4,2.6-1.6,4.9-3.3,6.8c-9.6,10.6-19.9,20.5-31.7,28.7c-1.2,0.8-2.5,2.5-3.9,1.5c-1.6-1.1-0.2-2.8,0.3-4.1
		c3.6-8.9,7.2-17.9,13.1-25.6c0.9-1.1,1.8-3.4,3.8-2.2c2,1.2,1.1,3.3,0.3,4.9c-2,4.6-5.6,8.2-8.8,12c-1,1.2-3.6,2.2-2.1,3.8
		c2.1,2.1,3.3-0.6,4.6-2c7.7-8.2,16.2-15.8,25.2-22.6C398.1,83.7,398.9,83.3,399.7,82.9z"/>
	<path d="M376.9,83.5c-0.7,0.2-1.4,0.3-1.6-0.6c-0.1-0.6,0.1-1.3,0.6-1.8c7.9-7,15.7-14.3,25.2-19.2c1.1-0.6,1.9-0.4,2.3,0.8
		c0.4,1,0.4,2.3-0.9,2.3c-9.7,0.1-13.1,8.5-18.8,13.9C381.7,80.9,379.9,83.1,376.9,83.5z"/>
	<path d="M404.3,83.8c1.3-4.6,2.7-9.1,4-13.7c1-3.3,2.4-6.5,2-10.1c-0.1-1.5,0.3-2.8,2.1-2.6c1.6,0.2,2.1,1.6,1.7,3
		c-2.2,8.2-4.5,16.4-8.7,23.8L404.3,83.8z"/>
	<path d="M361.4,162.6c3.1-9.5,8.8-17.3,15.2-24.7C372.7,146.9,367.1,154.8,361.4,162.6z"/>
	<path d="M357.2,100.5c4.7-6.1,9.3-12.5,16-16.6l1.3,1.3L357.2,100.5z"/>
	<path d="M311.9,183.8c-0.6,2.9-2,5.6-3.9,7.8c-0.7,0.8-1.7,1.9-2.9,1.3c-1.3-0.6-0.7-2-0.7-3.1
		C304.6,185.6,308.2,185.2,311.9,183.8z"/>
	<path d="M317.7,164.5c1.2,5.4-0.5,9.6-2.7,13.8C312.9,173.1,313.3,170.8,317.7,164.5z"/>
	<path d="M373.8,580.9c1-4.5,3.1-5.6,6-5.9c5.8-0.5,11.6-1.3,17.3-1.8c4.2-0.4,5.7-2.4,5.2-6.7c-0.5-4.2-2.1-8.3-1-12.8
		c6.1,4.5,6.7,20.5,0.9,22.4c-5.8,1.9-11.7,3.7-18,3.4C381,579.2,377.6,578.2,373.8,580.9z"/>
	<path d="M292.3,537.9c0.5,0.2,1.1,0.5,1.6,0.7c9.6,6.1,20.4,10.5,28.1,19.4c0.9,1,1.3,1.6,2.3-0.3c0.9-1.7,2.3,0,3.2,0.8
		c1,0.9,1.3,2.4,0.7,3.7c-0.7,1.5-2,1.2-2.9,0.6c-10.6-7.7-23.3-12.1-33.2-21c-0.9-0.8-2-1.5-1.8-2.8
		C290.2,538,291.1,537.8,292.3,537.9z"/>
	<path d="M380.8,595.5c7.4-1.7,14.3-3.2,21.1-4.9c4.5-1.1,9-2.3,13.5-3.4c1.3-0.3,3.2-1.1,3.8,1c0.5,1.7-1.2,2.3-2.3,2.8
		c-8.4,3.8-17.4,5.3-26.5,6C387.5,597.3,384.2,598.5,380.8,595.5z"/>
	<path d="M367.1,590.8c-2.2-5.5-0.8-10.3,0-15.1c0.3-1.5,0.7-2.9,1.4-4.2c3.2-6.7,3.9-13.2-0.3-19.9c-0.8-1.2-2.6-3.6,0-4.6
		c2-0.8,2.3,1.8,3,3.2c3.8,6.4,4,14.4,0.6,21c-1.2,2.7-1.9,5.7-2,8.6C369.6,583.2,370,587,367.1,590.8z"/>
	<path d="M356.3,573.6c-7.4-0.8-14.1-3.4-20.7-6.6c-1.3-0.6-2.7-1.6-1.8-3.5c0.3-0.9,1.3-1.5,2.2-1.2c0.2,0.1,0.4,0.2,0.6,0.3
		c6.3,3.9,13.5,5.5,20.4,7.7c1,0.3,2.4,0.9,1.9,2.4C358.4,574,357.3,573.7,356.3,573.6z"/>
	<path d="M388.6,642.3c2.1-1.9,4.9-3.1,7.7-3.3c5-0.6,8.3-2.9,9.1-8.2c0.2-1,0.1-2.6,1.8-2.5c1.4,0.1,1.7,1.4,2.1,2.5
		c1.2,3.4,0.8,6-3,7.5C400.6,640.7,395,643.2,388.6,642.3z"/>
	<path d="M420.9,593.7c-2,5.7-1.7,11.5-2.1,17.2c-0.4,6.3-4.6,9.1-10.6,10.6C419.7,615.2,414.4,602,420.9,593.7z"/>
	<path d="M320.7,536.2c-8.8-2.1-18.1-1.8-26.5-5.8C303.6,530,312.2,532.8,320.7,536.2z"/>
	<path d="M413.8,666.5c-0.1,1.2-1,1.7-2.3,1.5c-2.9-0.3-9.1-6.7-9.3-9.6c-0.1-1.2-0.2-2.4,1.6-2.2
		C405.1,656.5,413.7,665,413.8,666.5z"/>
	<path d="M410.7,578.8c4-8,8.5-13.3,17.8-15.4C422.5,569.1,418.1,574.5,410.7,578.8z"/>
	<path d="M400.6,629.3c-1.7,3.4-4.6,5.9-8.2,7.1c-3,1.1-6.5,1.3-8.5,4.7c-0.9,1.6-2.5,0.7-3.3-0.4c-1.1-1.4,0.3-2.1,1.3-2.6
		C387.7,635.3,393.5,632.6,400.6,629.3z"/>
	<path d="M431.7,568.8c-0.6,2.2,1.2,5-1.3,6.3c-5.9,2.9-10.7,8-17.7,8.9C419.8,579.9,426.5,575.5,431.7,568.8z"/>
	<path d="M397.7,654.9c-5.6,6.9-12.1,6.9-20.1,7.3C383.7,658.3,390.6,655.8,397.7,654.9z"/>
	<path d="M332,545.7c-0.1,3-0.3,5.4-3.2,5.4c-3.2,0.1-4.1-2.5-4.4-5c-0.2-1.5,0.2-4.2,2.2-3.4C328.5,543.2,332.9,541.5,332,545.7z"
		/>
	<path d="M461,835c2.7,5.5,1.3,10.6,0.5,15.5c-1.9,12.7-6.8,24.6-8.8,37.3c-2.4,15.8-5.1,31.5-7.8,47.2c-0.6,3.6-1.3,7.2-3.9,10.1
		c1.3-6.9,2.4-13.9,3.8-20.8c2.3-11.1,2.6-22.4,3.8-33.7c0.6-5.1,1.8-10.1,3.7-15c4-11,5.3-22.5,6.4-34
		C459.1,839.6,459.1,837.5,461,835z"/>
	<path d="M497.7,844.6c-4.3-7.6-6.7-15.9-8.4-24.3C494.7,827.5,496.4,836,497.7,844.6z"/>
	<path d="M464.9,824.8c1.9-4.8,4.2-9.5,6-14.3C471.3,816.2,468.9,820.8,464.9,824.8z"/>
	<path d="M535.2,589.7c0.1-4,1.9-5.7,3.2-7.5c9.9-13.6,20.3-26.8,29.5-40.9c2.9-4.5,2.7-7.9-1-12c-12.1-13.4-27-23.2-41.9-32.9
		c-5.8-3.8-11.7-7.6-17.5-11.4c0.9-0.8,1.5-0.3,2,0c21.3,13,42.9,25.7,59.9,44.5c3.6,3.9,3.9,6.9,0.9,11.3
		c-7.8,11.8-16,23.4-24.7,34.5C542.3,579.7,539.2,584.2,535.2,589.7z"/>
	<path d="M539,570.8c1.1-8.3-3.4-13.9-6.6-20.1c-0.9-1.8-2.6-1.8-4.2-2.2c-2.1-0.4-3.3-1.6-3.2-3.7c0.1-2.1-1-5,1.1-5.9
		c2.4-1,3.3,2,4.5,3.6c4.7,6.5,8.1,13.7,11.1,21.1C542.8,566.2,542.9,568.6,539,570.8z"/>
	<path d="M505.4,471.3c-14.9-2.6-19.1-4.9-19-10C493.1,463.9,499.5,467.3,505.4,471.3z"/>
	<path d="M472.5,1021.9c14.1-14.2,29.8-26.9,46.8-37.7c-4.1,4.9-8.9,9.1-14.3,12.4c-3.3,2.1-6.2,4.4-6.9,8.6
		c-0.1,0.8-0.5,1.6-1.1,2.2C489.5,1013.4,481.6,1018.5,472.5,1021.9z"/>
	<path d="M547,959.6c-8.9,16.4-16.4,33.5-26.1,49.4c2.4-9.3,6.6-17.8,9.4-26.9C533.2,973.2,540.3,966.4,547,959.6z"/>
	<path d="M80.1,509.7c1.1,36.1-0.7,72.1-7.7,107.6C76.4,581.6,77.5,545.6,80.1,509.7z"/>
	<path d="M44.2,709.6c-1.8,15.3-4.6,30.4-10.5,44.7C37.2,739.4,40.7,724.5,44.2,709.6z"/>
	<path d="M487,620.7c1.9,0.1,1.9,1.5,2.3,2.8c1.7,6.6,4.6,12.8,7,19.1c1.4,4.1,4.6,7.4,8.7,9c3.8,1.3,7.1,3.7,9.7,6.8
		c0.6,0.8,1.5,1.6,0.8,2.6c-0.8,1.2-1.8,0.5-2.6-0.1c-12.4-8.2-23.1-17.9-27.6-32.8C484.4,625.4,484.1,622.6,487,620.7z"/>
	<path d="M474.9,686.1c-3.2,0.3-4.9-1.7-6.2-4c-4.7-8-9.3-16.1-13.9-24.1c-0.6-1.1-1.6-2.5-0.1-3.5c1-0.6,2,0.2,2.3,1.2
		c3.5,11.2,11.6,19.6,17.8,29.2C474.9,685.1,474.8,685.5,474.9,686.1z"/>
	<path d="M444.1,675.3c-4.9-5.7-9.6-10.9-14-16.2c-2.2-2.6-3.1-5.7,0.4-8.2c0.9-0.6,2.3-1.6,2.5,0.5c0.7,7.2,5.6,12.2,9.3,17.9
		C443.3,670.9,444.5,672.6,444.1,675.3z"/>
	<path d="M486.3,652.8c6.9,2.6,11.4,7.6,14.3,14.2c0.4,0.9,1,1.9,0.2,2.8c-0.9,0.9-1.9,0.2-2.5-0.6c-4.3-5.1-8.6-10.3-13-15.4
		C485.6,653.4,485.9,653.1,486.3,652.8z"/>
	<path d="M240.6,344.9c-5.7-0.3-11,0-16.3,2.4c-2.3,1.1-0.2-3.1-2.7-3.5c-1-0.2,0.5-1.4,1.2-1.8C227.8,338.8,236,339.9,240.6,344.9z
		"/>
	<path d="M217.4,334.5c-0.4-0.6-0.7-1.5,0-1.8c3.3-1.7,4-3.7,1.7-6.9c-1.2-1.6-0.2-2.8,1.9-2.8c4.4,0,8.7,0,13.2,0.4
		c-5.4,0.6-10,4-12.3,8.9c-1,2-2.6,2.4-4.6,2C217.3,334.4,217.4,334.5,217.4,334.5z"/>
	<path d="M222.5,387.4c5.6-1.6,8.1,3.7,12,5.6c1.6,0.8-0.1,2-1.6,2.3C226.5,396.3,224.3,394.8,222.5,387.4z"/>
	<path d="M225.6,350.1c1,4.5,4.1,2.9,6.6,3c1.5,0.1,3,0,4.4,0.2c0.8,0,1.4,0.7,1.4,1.5c0,0.1,0,0.1,0,0.2c-0.1,0.7-0.7,1.2-1.4,1.1
		c0,0,0,0,0,0c-4.3-0.3-8.6,0.7-12.4,2.7c-1.5,0.8-2.3-0.4-1.9-1.8C223,354.9,223.2,352.5,225.6,350.1z"/>
	<path d="M107.2,793.2c-1.9-5.8-1.3-12.4,1.7-20.2C109.8,775.9,109.1,785.7,107.2,793.2z"/>
	<path d="M536.1,753.6c-2.4,6.9-6,13.3-10.6,18.9c8.7-3.1,14.9-1.1,19.2,6c3.6,6,1.7,13.8-4.2,18.7c-5.9,4.9-11.3,4.9-17.5-0.1
		c-5.9-4.7-7.9-11.1-3.8-17.1C525.1,771.5,529,761.6,536.1,753.6z M524.8,794.2c4.9,4.8,9.4,5.3,14,2.3c4.9-3.3,7.2-10.8,4.9-16.4
		c-2-5-7.7-7.8-13.6-6.7c-6,1-10.5,6.2-10.6,12.3c1.6,0.2,1.1-3.2,3.3-2c4.6,2.6,9.6,3.9,15.1,5.7
		C533.8,792.5,530.2,794.7,524.8,794.2z"/>
	<path d="M561.4,683.5c7.3,7.7,12.5,16.3,21.6,20.9c2.2,1.1,2.6,3.6,1.8,6.1c-1.5,0.3-1.5-2.1-2.8-1.5c-1.5,0.7-0.5,2-0.4,3.1
		c0.2,1.7,1.4,4.2-1.2,4.5c-2.2,0.2-2.2-2.4-2.5-4.2c-1.1-7-4.7-12.7-9.5-17.8c-3.1-3.3-5.2-2.8-7,1.4c-1,2.4-1.3,5.1-3.2,7.4
		C559.3,696.7,560.3,690.4,561.4,683.5z"/>
	<path d="M547.6,734.3c2.1,8.3,1.1,16.1,2.2,23.7c0.5,3.9,0.3,7.9,0.5,11.9c0.1,1.5,0.5,3.3-1.6,3.4c-2.5,0.1-1.8-1.9-1.5-3.3
		c1.7-9.1-2.3-17.7-2.5-26.6C544.6,740.3,544.6,737.4,547.6,734.3z"/>
	<path d="M517.6,813.1c-6-1.2-7.3-10.9-3.8-24.2C515,797.4,509.8,806.2,517.6,813.1z"/>
	<path d="M164.9,343.2l-2.8,25.9l-1.3,0.3c-3.6-4.7-7.1-9.4-10.8-14.1c-1-1.5-2.2-2.9-3.6-4.1c-3.1-2.3-6.2-0.9-8.6,1.2
		c-2.7,2.4,0.1,4.2,1.4,5.8c6.4,8.1,12.9,16,19.3,24.1c1.9,2.4,4,3.9,7.3,2.7c2.9-0.9,5-3.6,5.1-6.7c1.3-11.9,2.2-23.8,4.5-35.6
		c0.5-2.8-0.8-3.5-2.8-3.1c-2.2,0.6-4.4,1.3-6.5,2.2c2.8-2.7,6.4-5.9,9.9-4.3c3.8,1.8,1,6.4,0.7,9.6c-1,10.7-2.6,21.4-3.8,32.2
		c-0.4,3.8-1.8,6.6-5.8,7.8c-3.9,1.2-6.7,0.1-9.2-2.9c-7.7-8.9-14.9-18.3-22-27.7c-2-2.6-1.8-4.1,1.4-5.6c8.3-3.9,8.2-4,13.8,3.3
		c2.8,3.7,5.7,7.2,9.3,11.8c0.6-5.5,1-9.9,1.6-14.2C162.5,348.9,162.2,345.6,164.9,343.2z"/>
	<path d="M549.7,201.2c2.5,4.9,5.4,9.7,7.5,14.8c3.6,8.8,11.5,15.2,13.9,24.6c0.5,2.1,1.9,3.9-1,5.5c-1.8,1-0.9,2.8-0.4,4.5
		c3.1,10,6.2,20,9.1,30c1.1,3.1,1.3,6.4,0.6,9.6c-9.8-30.4-17-60.6-31-88.4L549.7,201.2z"/>
	<path d="M568.8,289.9c4.7,24.7,5.7,49.4,1,74.2C572.6,339.3,570.6,314.6,568.8,289.9z"/>
	<path d="M534,171.2c6,8.3,9.3,18,13.4,27.3c-5.2-8.8-10.1-17.7-13.3-27.4L534,171.2z"/>
	<path d="M540.5,170.5c-4-4.9-7.4-10.3-9.8-16.2C535.4,158.7,538.8,164.3,540.5,170.5z"/>
	<path d="M533.6,903.4c1.2,7.5-0.2,15.2-4.1,21.8c-4.9,8.2-11.6,15-20.6,18.9c-4.2,1.8-7.6,4.6-11.1,7.4c-4.8,3.8-9.9,7.2-16,9
		c7.6-5.4,15.3-10.8,23-16.3c-1.6-1.3-2.8,0.6-4.1-0.2c0.1-0.2,0-0.6,0.2-0.6c9.7-5.4,17.2-13.5,25.3-20.9
		C531.7,917.3,532.3,910.2,533.6,903.4z"/>
	<path d="M22.6,698.8c-0.2-55,4.3-109.5,16.2-163.3C42.9,590.8,35.5,645.1,22.6,698.8z M25.3,672.8c2.4-2.3,2.5-4.5,2.9-6.6
		c2.3-14.9,4.6-29.9,7.1-44.8c2.3-13.7,3.4-27.4,1.7-41.2c-0.7-6-0.8-6.7-2.8-9.4C29.2,604.6,26.2,638.6,25.3,672.8L25.3,672.8z"/>
	<path d="M571.5,628c1.2,18.1,7.4,35,12.2,52.2c0.2,0.6,0.3,1.3,0.2,2c-0.3,1.6-0.7,3.7-2.7,3.5c-1.9-0.2-1.5-2.2-1.3-3.7
		c0.8-5.4-0.4-10.6-2.1-15.7c-0.4-1.2-0.6-2.6-2.4-3.6c-0.9,2.7-0.3,5,0.3,7.3c0.6,2.4,0.1,4.7-2.5,5.2c-2.7,0.6-2.2-2.4-2.7-3.8
		c-2.3-6.5-1.4-13.1-0.6-19.7C570.7,643.8,571.2,635.9,571.5,628z"/>
	<path d="M252.6,455.6c3.9,5.1,8.2,10,11.7,15.4c6,9.1,14.5,12.2,24.8,11.7c1.3-0.1,2.7-0.2,4-0.3c1-0.1,2.2-0.1,2.4,1.2
		c0.2,1.2-0.8,1.7-1.8,2.1c-6.9,3.6-21.7,0.7-26.9-5.3c-0.9-1-1.6-2.1-2.3-3.3C260.6,470,255.3,463.7,252.6,455.6z"/>
	<path d="M271.1,488.5c5.5,1.5,11.1,2,16.8,1.6c1.2-0.1,2.5-0.1,2.9,1.3c0.3,1.1-0.6,1.9-1.4,2.4c-3.6,2.4-3.3,5-0.4,7.7
		c0.7,0.7,1.4,1.6,0.6,2.6c-1,1.2-2.2,0.6-3.1-0.1c-1.4-1.1-2.7-2.4-3.8-3.9C279.5,495.6,276,491.4,271.1,488.5z"/>
	<path d="M621.5,687.6c7.4,16,10.6,33.6,24.3,46c-3.2,0.3-3.6-3.2-6-3.3c-1.7,0.9,0.4,4.1-2.5,4c-2.4-0.1-3.4-1.9-4.3-3.7
		c-0.8-1.3-1.3-2.7-1.5-4.2c-0.1-12.1-6.5-22.5-9.4-33.9C621.8,691.2,620.7,689.9,621.5,687.6z"/>
	<path d="M612.3,686.2c-1.1-4.8-2.2-9.6-3.4-15.1c3.3,2.3,4.8,5.2,6.8,7.7c2.9,3.6-4.8,3.7-1.1,7.8
		C613.8,686.5,613,686.3,612.3,686.2z"/>
	<path d="M207.4,452.2c3,2,3.5,5.2,4.8,8c1.9,4.3,2.7,9.2,7.9,11.5c2.1,1,1.7,3.9,1.4,6.4C215.8,473.6,208,459.1,207.4,452.2z"/>
	<path d="M387.7,697.5c-0.8,0.1-1.5,0-1.6-0.9c-0.1-1,0.7-1.5,1.5-1.8c7.3-2.9,13.5-7.9,20.9-10.5c3-0.9,5.7-2.7,7.8-5.1
		c2.3-2.8,4.1-2.8,6.9-0.5c4.8,3.9,9.6,7.7,12.1,13.6c0.6,1.4,1.5,3,0,4c-1.9,1.2-2.5-0.9-3.3-2c-2.1-2.8-4-5.7-5.9-8.6
		c-3.4-5.2-4.3-5.5-10.1-2.6c-8.3,4.2-16.5,8.5-24.8,12.7C390,696.5,388.8,697,387.7,697.5z"/>
	<path d="M359.6,303.3c0.7,2.3-3.6,3.5-1.2,5.1c2.3,1.7,4.2-0.9,5.9-2.4c4.2-3.8,7.6-8.4,11-12.8c1.8-2.6,4.3-4.6,7.1-6
		c-4.5,8.1-10.9,14.6-17.8,20.7c-2.2,2-4.7,3.7-6.8,5.8c-2.9,2.9-5.9,3.4-9.8,0.5C351.9,310.9,354.9,306.3,359.6,303.3z"/>
	<path d="M385.8,282.6c-2.6-6.5,4.7-7.2,6.1-11.3c1.5-4.3,2.1-9.1,5.4-13C397.3,264.1,391.3,276.7,385.8,282.6z"/>
	<path d="M396.9,721.1c2.8-2.1,6.1-3.1,9.6-2.8c4.1,0.2,8.3,0.5,12.4,0.8c6,0.4,11.2-1,14.8-6.2c0.7-1,1.5-2.3,2.7-1.6
		c1.7,1,0.2,2.3-0.2,3.4c-2.6,6.8-5,8.5-12.2,8.6C415.3,723.3,406.8,722.1,396.9,721.1z"/>
	<path d="M441.4,747.5c-3.2-4.6-7.2-4.3-11.3-3.7c-4.1,0.6-8.2,1.3-12.3,1.8c-1.3,0.2-3,0.3-3.3-1.4c-0.4-1.8,1.3-2.1,2.6-2.2
		c6.4-0.6,12.9-1.4,19.4-1.4C439.4,740.6,442.3,742.5,441.4,747.5z"/>
	<path d="M218.2,960.3c-4.9-7.3-5.5-15.1-4.9-24.6C215.1,944.8,216.6,952.6,218.2,960.3z"/>
	<path d="M627.9,676.4c0.3,1.3-0.5,2.6-1.8,3c-1.4,0.5-2.2-0.3-2.8-1.4c-1.7-3.4-3.4-6.8-5.1-10.1c-0.8-1.1-0.5-2.6,0.6-3.4
		c0,0,0.1,0,0.1-0.1c0.9-0.7,1.7-1.7,3-1.5c2.1,0.4,1.1,2.1,1.2,3.2c0.1,2.1,1.5,3.5,2.6,5.2C626.5,673,627.3,674.7,627.9,676.4z"/>
	<path d="M147.5,518.9c-1.4-13-2.9-26-4.3-39C146.2,492.7,148.1,505.6,147.5,518.9z"/>
	<path d="M521,454.7c-0.7-5.2-1.3-9.6-1.8-14.1c-0.1-1.1-0.4-2.6,1.1-2.9c1.5-0.3,1.8,1,2.1,2.2C523.3,444.6,524.7,449.4,521,454.7z
		"/>
	<path d="M534.5,480.6c-3.8-6.6-5.2-13.9-7.4-21C530.4,461.3,534.6,472.8,534.5,480.6z"/>
	<path d="M508.5,885.4c0.8-2.2,1.5-4,2.2-5.8c0.5-1.4,0.9-3.1-0.5-4.1c-3.4-2.5-2.1-4.9-0.3-7.6C514.8,874.4,514.4,881,508.5,885.4z
		"/>
</g>
</svg>
