<?xml version="1.0" encoding="utf-8"?>
<!-- Generator: Adobe Illustrator 24.1.0, SVG Export Plug-In . SVG Version: 6.00 Build 0)  -->
<svg version="1.1" baseProfile="tiny" id="图层_1"
	 xmlns="http://www.w3.org/2000/svg" xmlns:xlink="http://www.w3.org/1999/xlink" x="0px" y="0px" viewBox="0 0 1024 1024"
	 xml:space="preserve">
<g id="图层_1_1_">
	<path d="M1025,197c-5.5,0.8-10.4,3.2-15.6,5.1c-57.1,20.1-115.3,37.1-172.4,57.1c-18.4,6.4-36.7,12.8-55.1,19.3
		c-1.3,0.5-2.7,0.8-3.6,2.3c-9.3,14.6-18.6,29.2-28.1,43.6c-2.1,3.1-1.8,5.3-0.1,8.5c21.7,41.4,54.8,71.7,93.9,96
		c26.1,16.3,54,29.7,79.6,46.9c22.8,15.1,44.4,31.9,64.7,50.2c13.7,12.4,25.1,27.3,33.5,43.8c1.5,3,1.5,6.5,3.3,9.3v17
		c-2.7,1.9-3-1-3.9-2.2c-6.2-9.3-13.3-18-22.1-25c-7.3-5.8-14.1-12.2-20.2-19.3c-7.6-8.9-17-16.1-27.5-21.3
		c-5.9-3-12.3-5.5-17.6-9.4c-24.7-18.1-53.3-29.1-80.2-45.6c1.2,1.5,1.6,2.1,2.1,2.6c31.9,34.7,62.5,70.5,92.8,106.6
		c12.1,14.4,25.1,28,36.1,43.4c10.8,15.1,20.3,30.9,26.2,48.6c1.5,4.3,3.5,5,7.3,3.1c2.2-1.1,4.6-1.8,6.9-2.7v2
		c-2.5,1.3-5,2.4-7.7,3.4c-3,1-3.1,2.3-1.3,4.5c3,3.7,6,7.4,9,11.1v6c-2.6-5.4-7-9.6-9.9-14.7s-6.2-5.4-10.8-2.7
		c5.7,8,11.4,15.8,16.9,23.9c2,3,2.7,0.4,3.9-0.5v5c-1.4,1.2-2.4,2.5-4-0.3c-5.2-8.7-11.5-16.7-17.5-24.9c-1.3-2.1-3.8-3.3-6.2-2.9
		c-6.3,0.5-12.7,0.3-18.9-0.7c-10.3-1.7-20.6-3.6-31.2-3.3c-16-0.9-32-1.9-48.1-2.7c-6.5-0.3-13.1,0-19.9,0
		c23.6,62.2,42.5,126.2,58.3,191.6c0.8-0.5,1.6-1.1,2.4-1.7c14.8-14,30.3-27.1,45.8-40.3c2.6-2.2,3-4,2-7.2
		c-5.6-17.2-11-34.5-16.3-51.9c-8.5-27.6-16.9-55.3-25.3-83c-0.4-1.5-3.1-4.2,1.1-4.9c13.5,46.5,28.1,92.6,42.5,138.8
		c1.2,3.8,2.4,2.4,4.2,0.7c10.2-9.9,19.4-20.7,27.5-32.2c1-1.5,1.6-3.3,3.6-4v4c-1.8,0.6-2.3,2.3-3.2,3.6
		c-10.2,13.8-21.3,26.6-34.4,37.7c-21,18-42.2,35.8-61.5,55.7c-18,18.6-33.9,38.7-45.5,62c-3.6,7.3-5.8,14.6-2.9,23
		c8.8-28,16.8-37.7,42.3-51.5c3.1-1.7,6.2-3.3,9.2-5c17.4-9.6,33-21.3,45.1-37.3c17.5-23.2,34.5-46.5,47.2-72.8
		c0.8-1.6,1.3-3.5,3.7-3.4v2c-7.7,14-14.9,28.2-24.1,41.3c-2,2.8-2.1,5.2-1.2,8.3c7.8,27,15.5,54,23.3,81c0.5,1.6,0.5,3.3,2,4.4v7
		c-1.6-2.4-2.8-5.2-3.5-8c-4.9-17.1-9.7-34.2-14.7-51.3c-3.3-11.4-6.6-22.8-9.9-34.4c-0.7,0.4-1.1,0.5-1.2,0.7c-1,1.3-2,2.7-3,4
		c-12.5,17-24,34.9-41.7,47.3c-1.4,1-1.7,2-1.2,3.8c5,18.1,9.8,36.2,14.8,54.3c0.3,1.2,0.2,3.3,2.7,2.7c8-2,12.8,3.2,17.7,8
		c5.2,5,11,4.9,14.9-1.2c4.3-6.8,10.4-9.2,17.8-8.4c2.7,0.3,5.5-0.6,7.5-2.5v3c-1.1,1.5-2.9,2.3-4.8,2c-8.7-1.3-15.5,1.2-20.2,9.3
		c-2,3.5-7,3.5-10.7,4.5c-2.4,0.6-3.3-2.4-4.8-3.8c-2.9-2.8-5.6-5.7-9.2-7.7c-2.6-1.5-5.6-2.4-8-0.5c-2.3,1.8,0.2,4.1,0.4,6.3
		c0.2,3.2,2.8,6.1,0.8,9.6c-1.6-4-2.9-8-4-12.1c-0.5-1.7-0.6-3.6-3.3-3.6c-7,0-12.8-2.9-18.1-7.3c-3.1-2.6-6.7-3.9-10.6-1.7
		c-6,3.4-13.1,5-17.5,11c-1.6,2-3.9,3.3-6.4,3.7c-3.7,0.9-7.2,2.7-10.1,5.2c-3.7,2.9-8.1,4.6-12.3,6.6c-3.8,1.8-7.8,6.3-11.9,1.2
		c-4.8-6.1-7.8,3.5-12,0.9c-1.2-0.7-2.4-1.1-3.8-1.3c-2.7-0.5-5-2.5-8.1-1.7c-7.7,2.1-8.9,1.5-12.7-6c-0.9-1.9-2-3.5-4.3-3.6
		c-6.2-0.1-10-6.1-16.2-6.3c-2-0.1-1.4-2.2-1.2-3.7c0.2-1,0.2-2.2-0.7-2.7c-1.1-0.6-1.8,0.4-2.4,1.2c-2.1,2.7-4.4,3.2-7.3,1
		s-4.8-1.4-5.7,2.2c-1.9,7.2-4.1,14.4-5.8,21.7c-3.1,12.7-6.8,25.4-8.2,38.5h-3c2.9-14,5.9-28,9.5-41.8
		c8.4-31.8,19.7-62.9,23.9-95.8c0.7-5.6,3.6-11.3,2.1-16.7c-4-14.4-7-29.2-14.4-42.4c-8.8-15.8-21.3-28-37.8-35
		c-11-4.7-22.2-9-32.9-14.3c-2.4-1.2-4.8-2.7-8.2-2.8c0.8,1,1.1,1.5,1.5,2c15.1,16.2,25.5,35.3,34.7,55.2c4.6,9.6,5.8,20.4,3.6,30.7
		c-0.3,1.5-0.2,3.3-2.9,4c0.3-2.3,0.4-4.3,0.8-6.2c1.8-8.8,0.5-17.2-2.8-25.5c-3.3-8.4-7.3-16.4-12-24.1
		c-15.5-24.9-30.7-50.3-60.8-60.6c-0.3-0.1-0.6-0.3-0.9-0.5c-16.3-8.2-32.6-9.2-49.2-0.9c-6.8,3.3-13.9,6.2-21.6,3.6
		c-4.6-1.7-9.7-1.1-13.8,1.5c-3.3,2-6.7,3.7-10.2,5.3c-1,0.5-2.3,1.8-3.8-0.5c4.9-3.2,10.7-4.9,15.5-8.8c-19-5.9-38.3-7.4-57.4-11.3
		c9.4,8.1,16.2,17.7,22.1,28c5.8,10.1,13.2,19.3,22,27c7.8,6.9,14.5,14.8,21.1,22.7c7.2,8.7,13.7,18.3,22.1,25.8
		c18.5,16.6,35.1,35,52.6,52.5c21.7,21.6,42.2,44.4,61.4,68.4c6.4,8,11.3,16.9,13.4,27.1c2.2,11.1,4.9,22.3-0.6,33.2h-2
		c1.7-5.4,3.2-10.8,2.8-16.6c-1-16-5.7-30.7-16.1-43.2c-8.7-10.5-17.5-21-26.3-31.5c-18.8-22.3-41.7-40.7-59.9-63.7
		c-2.8-3.5-6.5-6.3-10-9c-10-7.7-19.1-16.7-27-26.6c-12.1-15.1-24.4-30-38.8-42.9c-5.6-5-10.6-10.9-13.8-17.6
		c-7.9-16.8-23.4-27.6-33.2-42.8c-1.5-2.4-3.5-2.3-5.2,0c-1,1.4-1.8,2.8-2.6,4.2c-12.1,22.2-16.1,46.3-15.9,71.2
		c0.1,12,0.3,24-1.1,35.9c-0.7,6-1.3,12-0.7,17.9c2.3,21.8,4.7,43.7,8.3,65.4c3.8,22.7,12.5,44.1,18.2,66.3
		c3,11.7,8.6,22.2,14.1,32.8h-2c-5.8-8.6-10.2-18-13.1-27.9c-2.5-8.1-4.8-16.2-7.1-24.4c-0.8-3-2.4-3.8-5.4-3.5
		c-8,0.9-15.6,4-21.9,9c-4.8,3.8-9.6,7.8-15.1,10.5c-2.7,1.3-3.3,3.2-3.4,5.9c-0.3,10.2,0.4,20.4,2,30.4h-2
		c-1.9-9.8-2.5-19.8-2-29.8c0.1-3.2-1.1-3.2-3.5-2.1s-2,2.8-1.8,4.6c0.8,9.1,1.5,18.2,2.3,27.4h-2c-5.7-38.4-3-76.8,1.5-115.1
		c2.3-19.7,7-39,7.3-58.9c0.3-25.2,2.3-50.3,6.2-75.1c0.4-2.7,1.8-5.7-2.6-6.5c-3.9-0.8-7.7-4.2-11,1.7c-9.6,16.9-20,33.4-29.5,50.4
		c-12.3,22.1-29.7,41.1-38.9,65c-0.2,0.5-0.5,0.9-0.8,1.3c-1.7,2.6-3.9,4.8-6.9,2.3c-2.3-1.9-6.4-3-3.6-8.2
		c8.9-16.3,19.4-31.5,29.6-46.8c11.6-17.4,22.8-35.2,33.3-53.4c2.3-4,5.7-8,2.3-13.2c-0.2-0.7-0.2-1.4,0.1-2c1.1-3.1,0-6-0.3-9.7
		c-1.4,1.2-2.9,2.4-4.5,3.5c-3.3,2-5.8,0.4-7.6-2.4s-0.8-4.8,2-6.1c3.4-1.5,5.9-4.5,6.8-8.1c1.2-3.9,4-6.9,7-9.5
		c3.8-3.2,7.3-6.8,10.4-10.7c2.9-3.8,6.9-5.1,11.6-4.1c4.1,0.8,8.4,0.9,12.5,0.4c-0.5-2.5-1.4-4.8-0.9-7.4
		c2.1-10.2,4.7-20.3,5.7-30.7c2.5-26,4.6-52.1,9.3-77.8c0.4-2,2-4.8-2-5.3c-3.1-0.4-6.9-1.4-8,2.8c-1.4,5.1-5,8.6-7.6,12.8
		c-3.4,5.3-7.8,9.1-14.4,9.8c-3.6,0.3-6.7,2.4-8.5,5.4c-1.6,2.5-3.7,4.8-6.5,5.2c-7.7,1-11.5,5.7-13.8,12.5
		c-0.7,2.2-2.3,4.1-3.3,6.2c-9.7,19.6-23.1,37-34.4,55.6c-19.6,32.5-39.1,65.1-52.8,100.7c-4.7,12.2-9.3,24.4-10.8,37.5
		c-0.3,2.6-1.2,6.2-4.9,5.9c-3.2-0.2-3.6-3.5-4.2-6.1c-1.9-8.5-2.4-17.1-2.9-25.8c-1-17.9,2.9-35.1,6.5-52.4c1.9-9.3,4-18.7,6-28
		c-1.1,0.3-2,1-2.7,1.9c-16.8,19.6-22.5,43.9-28.5,67.9c-6.5,26.2-1.7,52.3,2.6,78.3c1.9,11.4,7.6,21.8,9.2,33.1
		c3.4,22.9,9.9,45.2,14.1,67.9c0.6,3.1,0.8,6.3,4.6,7.6c0.9,0.3,1.9,1.9,0.4,2c-4.4,0.4-1.7,2.8-1.4,4.2c1.8,7.5,5.8,14.1,8.2,21.3
		h-2c-4.1-7.8-7.4-16-9.7-24.5c-0.5-2.1-1.9-3.9-3.8-4.9C274.3,954.2,230.9,893.2,211,815.3c-9.6-37.7-13.6-76.3-13.2-115.3
		c0.3-34.5,7.1-68.1,15.5-101.5c2.2-8.7,4.4-17.4,6.5-26.1c0.6-1.7,0.7-3.6,0.2-5.3c-13.1-37.1-21.2-75.6-30.4-113.7
		c-1.8-7.6-3.9-15.1-5.8-22.7c-0.3-1.2-1.3-2.5,0.1-3.9c2,0.8,1.9,2.7,2.3,4.3c7.6,30.7,15.1,61.4,22.9,92
		c3.4,13.5,7.6,26.9,12.4,40.6c2.2-3.8,2.6-7.7,3.6-11.2c4.6-15.3,9.1-30.6,13.8-45.9c0.9-2.9,1-6,0.4-9
		c-5.4-28.7-13.6-56.8-20.6-85.2c-0.2-0.9-0.4-1.9-0.4-2.9c0-0.2,0.4-0.4,1.5-1.2c8.6,28.7,13.6,58,22.9,86.2
		c14.3-44.2,29.5-88.2,44.4-132.8c-4.7,3.2-9.5,6.1-14,9.6c-19.9,15.6-41.2,28.2-64.1,39.3c-25.6,12.4-50.2,26.8-73.5,43.2
		c-56.8,40-90.2,96.2-105.9,163c-6.9,29.4-1.9,58.3,11.2,85.6c1.1,2.2,2.8,4.1,4.9,5.5c12.6,8.8,27.5,14,42.9,14.8
		c17.4,1.2,34.8,3.2,52.1,6c10.8,1.6,20.2,8,25.6,17.4c4,6.9,8.9,13.3,14.6,18.9c0.8,0.7,2.9,1.6,1.2,3c-1.2,1-1.9-0.7-2.7-1.4
		c-1.2-0.9-2.2-2.1-3.2-3.1l-0.2-0.1l0.2,0.2c1.3,6.4,1,12.8,0,19.3c-1,6.7-4.6,11.3-10.7,14c-0.8,0.3-1.9,1.3-2.4-0.3
		c-0.4-1.1,0.7-1.4,1.4-1.8c13.6-8,9.6-24,0.4-30.7c-9.7-7.1-20.4-7.2-31.5-5.2c-11.9,2.2-23.7,3-35.7-0.1c-3.5-1-7.3-1.2-10.9-0.5
		c-2.1,0.4-4.2,0-6.1-1.1c-4.3-2.1-9.1-3.2-13.6-4.9C36.3,740.8,15.9,719,3.9,688.8C3.1,687.1,2,685.1,1,683v-6
		c1.7,0.9,1.6,2.8,2.2,4.2c4.4,11.7,10.1,22.8,17,33.2c14.2,21.2,35,32.4,58.7,39.6l0.8,0.2l-0.8-0.2c-4.3-3.6-9-6.7-12.5-11.3
		c-5.1-6.8-10.5-13.4-15.6-20.2c-22.7-30.4-31.1-65.1-24-101.6c11.7-60.6,41.1-112.1,87.5-153.4c28.6-25.6,64.2-40.1,96.1-60.4
		c2.5-1.6,5.4-2.5,8.2-3.6c9.8-4.1,19.2-9.3,28-15.4c14-9.6,27-20.7,41.5-29.6c1.9-1.2,2.4-3,3.1-4.9c5.8-15.2,11.6-30.5,17.4-45.7
		c8.3-21.6,15.7-43.5,20.9-66c-4.6,6.8-8.5,14.1-11.6,21.8c-4.3,10.1-8.6,20.2-15.4,29c-7.9,10.2-13.8,21.5-18.9,33.4
		c-4.1,9.4-10,17.8-17.4,24.8c-10.3,9.9-20.7,19.8-31,29.8c-8.5,8.5-17.9,16-28,22.5c-27.9,17.2-55.2,35.6-83.2,52.5
		c-26.7,16.1-50.1,35.8-71.5,58.1c-8.1,8.4-15.2,17.7-21.1,27.8C20.8,559.8,7.4,576.5,1,597v-7c8.8-22,22.3-41.4,35.9-60.4
		c19.5-27.1,44.2-49.4,72.6-67.1c22.3-13.9,43.8-29.1,66.5-42.5c2.6-1.5,2.7-3,2.2-5.6c-5-26.2-13.4-51.5-19.8-77.3
		c-3-12.1-6.4-24.1-9.5-36.2c-1.1-4.4-3.2-5-6.6-2.4c-7.7,5.7-16,10.1-25.5,12.1c-3.9,0.8-7.1,3.6-10.5,5.6
		c-5.8,3.4-11.7,3.9-17.4,0c-4.2-2.8-8.7-4.9-13.6-6.2c-2.2-0.6-4.8-1.3-5.2-4.1c-0.3-2.5,2.3-3.4,3.8-4.9c0.3-0.4,0.7-0.7,1.2-0.9
		c4.8-1.6,4.6-4.8,4.2-9.3c-0.5-7.4,1.5-14.7,5.5-20.8c3.4-5.3,3.3-10.4-0.3-14.8c-12.3-15.3-17-33.2-18.7-52.2
		c-0.1-0.5-0.3-0.9-0.5-1.3c-3.5,2.5-4.3,6.5-6.5,9.6c-1.1,1.6-1.8,4.3-4.2,3.4c-2.8-1-1.5-3.6-0.9-5.6c4.9-17.5,7.8-35.4,8.7-53.6
		c-0.1-1.3,0.4-2.6,1.4-3.5c5.9-4.8,11.6-10,17.8-14.4c12.5-9,22.6-20.1,31.3-32.7c9.3-13.4,19-26.5,28.9-40.4
		c-32.4,7.8-64.5,14.1-96.3,21.9c0.8-2.1,2.4-2.2,4-2.7c29-8,58.8-13,87.8-20.9c21.4-5.8,42.4-12.4,63.7-18.5
		c3.2-0.9,3.2-1.9,1.5-4.3c-3.9-5.5-8-10.7-14.2-13.8C177.8,21.1,173.4,12.4,174,1h2c0,11,4.3,19.3,14.6,24c3.7,1.7,6.5,4.6,9.1,7.7
		c6.6,7.7,11.5,16.8,14.5,26.5c2.7,8.8,8.3,16.5,16,21.6c4.3,3,8.5,6.2,11.1,10.6c3,5.2,5.9,4.4,10.3,1.8c21.9-13,42.3-28.2,64-41.6
		c6.9-4.2,12.8-9,16.6-16.5c2.4-4.7,6-8.7,9.2-13c5.8-7.7,13.1-14,19.6-21.1h4c-3.9,4.1-8.6,7.3-11.9,12l-1.1,1.1
		c-1.1,0.9-2.2,1.9-3.3,3c-12.8,14.3-22.6,31-28.9,49.1c-6,17.4-11,34.9-12.9,53.2c-2.6,24.9-3.4,49.9-3.8,74.8
		c-0.2,12.8,1.1,25.7,4,38.2c2.2,9.6,4.8,19.1,9.3,28.7c3.8-8.3,8-16.3,12.7-24.1c1.4-2.4,3.4-4.3,4-7.3
		c4.9-24.5,12.6-48.2,19.9-72.1c3.2-10.9,8.1-21.2,14.5-30.5c5.4-7.7,12-13.8,21.2-16.6c5.8-1.8,6-2.4,2.1-7.4c-1.7-1.9-3-4-4.1-6.2
		c-2.8-7.3,0.1-12.2,7.7-12.9c8.8-0.9,13.1,2.7,12.5,10.3c-0.1,2.6-1.5,4.9-3.7,6.2c-2.7,1.6-2.5,4.1-2.3,6.6c0.3,3,2.8,1.6,4.3,1.9
		c4.6,0.8,9.1,2.1,13.4,3.9c1.6,0.7,3,1.4,3.3,3.3c-2.1,0.2-3.8-1-5.7-1.7c-18.9-7.4-35.1-2.7-46.9,13.9c-2.4,3.4-4.6,7-6.4,10.7
		c-9.6,20.3-15.6,41.8-21,63.4c-8.9,35.7-17.6,71.4-31.3,105.7c-9.4,23.7-18.2,47.5-26.6,71.6c-24.8,71.3-50.4,142.4-67.9,216.1
		c-6.2,26.2-12.4,52.5-14.9,79.4c-2,22.9-1.8,46,0.4,68.9c3,32.1,7.6,63.9,18.1,94.4c22.3,65,61.8,116.6,121,152.4
		c1.4,0.9,2.7,2.4,5,2c-0.1-1.1-0.2-2.1-0.4-3c-3.7-21.3-10.9-41.9-13-63.5c-0.2-2.5-2.1-3.6-4-4.7c-15-9-29.3-19.1-42.7-30.4
		c-14.8-12.5-29.6-25.2-39.9-41.8c-14.7-24.2-26.8-49.9-36.2-76.6c-5.7-16-6.9-32.7-7.2-49.7c-0.7-38.9,4.8-76.6,19.5-112.9
		c7.1-17.8,13.2-35.9,18.3-54.4c6.5-23.3,16.6-45.4,30.1-65.5c8.2-12.3,16-24.9,22-38.6c10.4-23.9,23.7-46.2,37.9-68
		c11.2-17.3,22.5-34.7,33.8-52c0.6-1,1.2-2,1.9-2.9c1.6-2.1,0.4-3.9-0.9-5.4c-1.6-1.9-2.7,0.3-3.6,1c-8.5,6.1-18,10.8-28.1,13.9
		c-2.4,0.7-4.8,1.2-7.3,1.5c-1.4,0.3-2.8-0.5-3.2-1.8c-0.4-1.3,0.4-2.3,1.4-3c1.8-1.2,3.6-2.4,5.5-3.5c6.1-3.8,12-7.8,17-13
		c5.3-5.4,8.9-11.1,6.2-19c-0.7-2-0.5-4.3-0.7-6.4c-2-21.5-2.2-42.9,1-64.3c5.2-34.6,23.7-62.5,44.3-89.4c6.9-9,15.4-16.6,24.5-23.4
		c14.1-11.7,27.9-23.9,45-32.4c-2.1-1.2-3.5-2-5-2.8c-36.1-19.7-71.3-40.7-105.7-63.2c-1.6-1.1-3.6-1.8-4.6-3.7l1.1-1.2
		c36.9,24,74.4,46.7,113.1,67.6c2.5,1.6,5.6,1.8,8.4,0.7c12.9-4.7,26.4-7.1,40.1-7.3c8.4-0.1,16.7-0.8,24.6-3.9
		c2.7-0.9,5.5-1.3,8.3-1.1c8.7,0.1,17.6-1.8,26,2.2c0.4,0.2,1-0.1,1.5-0.2l0.2,0.3L575,71c-1.1-1.4-2.2-2.9-3.4-4.2
		c-19.8-20.7-39.9-41-60.3-61c-1.6-1.5-3.4-2.7-4.3-4.8h3c0.4,0.5,0.8,1.1,1.2,1.5c22.9,22.4,45.3,45.2,67.4,68.3
		c1.4,1.4,3,2.6,4.8,3.4c10.7,5.7,22.2,9.8,34.1,12.4c6.8,1.5,12.5,4.4,17.1,9.6c3.8,4.4,8.3,5.9,13.9,3.5c4.7-2,8.8-0.5,12.5,2.6
		c2.9,2.5,5.4,5.5,7.2,8.9c5.6,9.5,11.9,18.5,18.4,27.4c4.4,6.1,8,12.7,10.6,19.7c5.8,16,12.2,31.7,19.4,47
		c4.3,9.3,6.8,19.2,7.5,29.4c0.7,9.3,1.5,18.6,0.9,28c-1.2,20.6,7.7,38,17.6,55.6c9.8-14.5,19.2-28.6,28.8-42.5
		c1.7-2.4,2-4.3,0.8-7.1c-13.1-32.2-24.9-64.9-35.5-98C719.4,116.2,703,61.5,683,8.1c-0.9-2.3-2.4-4.4-2-7.1h2
		c0.3,1,0.6,1.9,0.9,2.8c12.5,34.2,24.5,68.6,35.3,103.3c16.2,52.1,32.3,104.2,52.9,154.8c0.7,1.8,1,3.8,3.2,5.7
		c2.6-11.4,5.2-22.4,7.6-33.4c4.8-22.3,7-45,10.6-67.5c6.4-39.6,16.5-78.4,23-118c2.6-15.9,5.8-31.7,7.5-47.8h3
		c-0.3,1-0.5,1.9-0.7,2.9c-4.4,28.8-9.3,57.4-15.1,86c-5.7,27.9-12.2,55.5-16.3,83.7c-3.6,25.4-7,50.7-12.8,75.7
		c-1.4,6.3-4,12.3-3.8,18.9H778l0.2,0.1c1.2-1.4,2.4-2.8,3.7-4.1c32.2-34.2,63.7-69.1,94.4-104.6c37.9-43.9,73.5-89.7,111.5-133.5
		c7.2-8.4,14.9-16.3,21.3-25.2h3c-0.9,2.6-3.1,4.3-4.8,6.3c-11.7,13.7-23.6,27.2-35.2,40.9c-33.7,39.6-65.7,80.5-99.8,119.7
		c-30,34.4-60.7,68.2-92,101.4c-1.7,1.8-2.8,3.2-1.3,5.9s3,0.7,4.1,0.3C862.9,246,944.8,222.7,1025,194V197z M433,381.8l-0.1-0.2
		L433,381.8l1.3,1c0.1,0.6-0.1,1.4,0.2,1.9c5.3,8.1,11.2,15.8,17.5,23c1.4,1.5,3.9,0.7,4.4,2.4c1.7,5.5,7.1,6.8,10.8,10
		c-1.1-4.6-3.1-8.9-3.1-13.5c0-2.8-1.3-3.6-3.3-4.7c-9.7-5.1-18.7-11.5-26.7-19.1C433.8,382.5,433.4,382.2,433,381.8z M784,383.9
		l-0.1-0.2L784,383.9l1.2,1c0.2,2.7,2.3,4.4,3.8,6.3c13.3,17.5,27.1,34.6,40,52.4c13,18.1,30.5,32.4,50.7,41.8
		c15.5,7.3,30.9,14.9,45,24.8c7.5,5.3,15.4,9.9,23.6,13.9c9.9,4.8,19.6,10.2,27.1,18.5c9.2,10.3,19.2,19.9,29.9,28.7
		c5.5,4.6,9.9,10.3,14.2,16.1c0.8,1.1,1.3,2.7,3,3.3c1.5-8-0.9-15.2-4.3-21.9c-7.3-14.6-17.3-27.8-29.4-38.8
		c-33.1-30.6-69.7-56.2-109.3-77.7c-34.2-18.5-67.3-38.7-94.4-67.2L784,383.9z M615,592.9c-0.4,0.1-0.5,0-0.1-0.3L615,592.9
		c1.3-0.4,1.6,0,1,1.2c0.7-0.1,1.3,0,1.2,0.9l1.1,0.9c-0.2,0.6,0,1,0.7,1.1c2,3.6,4.7,6.8,7.9,9.4c2.8,2.1,5.4,4.4,3.5,8.3
		c-1.9,4.1-5.8,5.3-9.7,4.1c-5-1.6-10.2-3.3-12.8-8.8c-1.5-3.2-5.5-4.4-8.2-4.3c-1.9,0-3.1,4.2-2.8,7.3c0.5,3.4-0.9,6.8-3.7,8.8
		c-2.1,1.7-3.6,4-4.2,6.6c-3.7,11.9-7.5,23.8-10.1,36c-2.8,13-5.9,25.9-10.5,38.5c-3.8,10.5-6,21.5-6.5,32.7c-0.2,4,1.1,5.8,4.9,6.1
		c12,1.2,23.6,4,35.2,7c5.9,1.5,12,1.7,17.9,3.4c5.7,1.6,11.7-1.6,17.1-4.2c16.4-8,32.7-7,48.9,0.5c7.8,3.6,15.5,7.2,23.6,11
		c-1.9-8.6-5.4-16.9-10.3-24.2c-3.4-5.2-5.8-11-4.2-17c3.2-12.5-1.1-23-7.3-33.1c-5.9-9.7-11.6-19.5-17-29.4
		c-7.9-14.5-13.7-30-17.3-46.1c-0.3-1.2-1.2-2.6,0.7-3.3c1.3,0.8,1.4,2.2,1.7,3.4c3.8,17.1,10.2,33.5,19,48.6
		c6.2,10.8,12.7,21.5,18.6,32.5c4.1,7.6,6.7,15.7,4.3,24.5c-1.7,6-0.6,12.5,2.9,17.7c4.8,7.4,8.5,15.5,10.9,24
		c0.7,2.4,1.5,4.8,3.7,6.3c9.7,6.7,20,12,31.6,14.3c7.3,1.4,13.4-0.7,18.3-6.5c4.4-5.1,7.2-11.1,9.5-17.4c3.2-8.8,3.9-18.2,5.3-27.4
		c5.3-33.5,4.4-67.1,1-100.6c-1.5-14.8-4.1-29.6-5.3-44.5c-0.5-8.3-2.6-16.4-6.2-23.9c-4.8-9.8-9.7-19.7-14.4-29.6
		c-5.2-10.8-13.5-18.4-24.2-23.6c-9.7-4.7-20-5.8-30.6-5.7c-7.5,0.1-15.1,0.3-22.2-2.6c-3.1-1.2-5.2-0.5-7.6,1.7
		c-11.4,10.3-21.2,22.3-28.9,35.5c-6.8,11.8-13.6,23.7-21.7,34.7c-2.3,3.2-6,6.4,0.5,9.1c0.4,0.3,0.7,0.7,0.9,1.2
		c1.9,7.1,8.4,10.5,12.3,16c1.3,1.8,3.2,3.2,1.6,5.6c-1.3,2.3-4.2,3.2-6.5,1.9c-3.3-1.4-6.6-3-10-4.5c-0.2-0.4-0.5-0.8-0.8-1.1
		l-1.1-0.9c-0.4-0.3-0.7-0.6-1.1-0.9L615,592.9z M614.9,307l2.3-0.9c4.3-2.5,8.9-4.6,13.6-6.1c6.9-2.2,6.9-2.2,6.1-9.3
		c-0.1-0.6-0.3-1.2-0.4-1.8c-9.9,2.5-17.2,8.9-25.1,15.6c2.6,0.5,5.5-3.1,6,1.6L614.9,307l-0.3,0.1L614.9,307z M721,770.1l-0.1-0.3
		L721,770.1c1,1.3,2.4,1.9,5.3,2.7C723.8,771.3,722.7,770.2,721,770.1z M518,604c2.7,1.8,4.5,0.5,6-1.9c-0.1-0.8,0.2-1.2,1.1-1.2
		c2.9-1.6,1.8-3.8,1.1-6.1c-3.5-11.7-9.6-22.7-10.8-35.2c-0.6-6.3-1.6-12.5-2.8-18.7c-1.7-8.3-2-16.9-0.9-25.3
		c0.8-5.6,2.1-11.3,0.7-18.4c-1.8,4.4-3.2,7.5-4.4,10.7c-1.7,4.6-3.5,9.1-7.8,11.8c-4.7,3-7.8,6.5-5.6,12.5c0,0.1-0.5,0.3-0.8,0.6
		c-1.8-0.5-1.1-2.9-2.8-3.9c-2.4,3.7-4.2,7.7-7.5,10.5c-2.4,2-2.8,4.2-2.4,7c1.4,10.9,1.1,22-0.8,32.8c-2,12.4-1.7,24.5,3.9,36.1
		c2.5,5.3,4.6,5.8,8.4,1.1c3.9-4.9,8.3-9.5,10.1-15.8c0.8-2.7,2.6-4.5,5.3-4.7c6.2-0.3,12.2,0.4,17.1,4.9c0.1,0.8-0.4,1.1-1.1,1.2
		c-2,0.4-6.4-6.4-5.9,1.9L518,604L518,604z M615.1,89l-0.7-0.3L615.1,89c7.1,3.8,14.1,7.8,21.1,11.7l0.8,1.3
		c10.4,8.7,18.7,19.6,24.5,31.8c2.6,5.2,5.5,10.3,8.7,15.1c14.5,22,24.7,46,32.7,71c6.3,19.7,12.6,39.6,13,60.3
		c0.8,38.2-6.3,74.8-25.4,108.5c-0.7,1.3-1.3,2.2-0.2,3.9c4.9,7.4,9.2,15.2,14.2,22.5c8,11.7,17.5,22.3,28.4,31.5
		c35.6,30.1,71.1,60.4,109.4,87.2c52.3,36.4,100,79,142.2,126.7c5.5,6.2,10.7,12.8,15.9,19.3c2.8,3.6,6,1.2,8.6,0.3s0.3-3.2-0.2-4.7
		c-7.3-21.2-18.8-40.2-33-57.3c-25.2-30.4-50.6-60.7-76.7-90.3c-31.8-36.1-64.3-71.6-93.2-110.3c-29.1-38.9-57.9-77.8-77.5-122.6
		c-0.1-0.3-0.7-0.5-1.2-0.8c0,13.3-1.9,26.4-5.7,39.1c-2.3-2.5-1-4-0.7-5.6c2.9-13.1,4.9-26.2,3.8-39.6c-0.8-10-2-19.9-2-29.9
		c0.2-21-1.8-41.6-11.8-60.6c-4.9-9.5-9-19.3-12.3-29.4c-3.2-9.3-6.9-18.4-12.6-26.6c-7.1-10.1-14.3-20.1-20.6-30.7
		c-1.7-2.9-3.9-5.5-6.5-7.5c-2.5-1.8-5.2-3.4-8.3-2.1c-4.3,1.8-9.2,2-13.6,0.6l-0.8-1.3C630.2,94.9,624.3,89.1,615.1,89z M489,508
		l-0.2-0.1h0.3c0,5,2.2,9.5,3.5,14.8c2.7-2.1,5-3.9,7.2-5.8c1.6-1.3,1.4-2.4-0.4-3.3C495.9,511.8,492.5,509.9,489,508z M472,298.1
		c-5.1,1.5-8.4,5.8-12.8,8.4c-1.1,0.7-0.9,1.6-0.9,2.6c0.3,4.7,0.6,9.5,0.9,14.7c3.1-4.3,3.4-9.4,6-13.1
		C467.9,306.6,470.1,302.4,472,298.1l0.2-0.2L472,298.1z M575.2,564.1c5-0.1,10-0.1,15-0.3c1.2,0,2.8,0.6,3.7-0.9
		c2.5-4.3,5-8.6,7.4-12.9c-5.7,3.3-11.3,5.9-16.7,8.8C581.4,560.5,577.7,561.1,575.2,564.1L575.2,564.1z M489.8,299.8
		c1.1,0,2.3,0.1,3.5,0.1c8.5-0.2,17,1.3,24.9,4.5c4.4,1.7,8.6,4,13.2,5.2l-0.2,0.4c0,0,0.1,0,0.1,0.1v-0.4
		c-8.3-6.6-16.3-13.7-27.2-15.9c-9.2-1.9-9.1-2-14.1,6.1L489.8,299.8z M563,628c-5.5,5-11.7,9-15.9,15.5
		c-13.6,21.1-25.1,43.5-39.4,64.2c-1.2,1.7-1.3,2.9,0.5,4.2c2.8,2.1,3-0.9,3.9-2C530.9,683.8,545.2,654.8,563,628l0.3-0.1L563,628z
		 M545,642c-6.9,4.1-14,7.2-22.5,6.2c-8.8-1.1-11.8,1.7-12.3,10.5c-0.8,12.4-1.6,24.8-4.8,37c-1.2,4-1.6,8.3-1,12.5
		c1.6-2.4,2.7-3.8,3.7-5.3c10.3-15.3,19-31.6,28.7-47.3C539.6,651.1,542.9,646.9,545,642c0.1-0.1,0.2-0.1,0.3-0.2c0,0,0-0.2,0.1-0.3
		L545,642z M470,454c-0.2-0.1,0.1-0.9-0.6-0.5L470,454c-0.1,6.9,2.5,13.2,4.3,19.8c0.3,1.1,2.3,2.4,0.7,3.4s-2.5-1-3.5-1.9
		c-7.1-7-13.3-14.7-18.7-23.1c-1.6,3.1-3.5,5.6-4.1,8.3c-0.7,3.1-2.8,6.5,0.1,9.8c14.8,16.9,32.3,30.2,51.7,41.3
		c1.8,1,2.9,1,3.8-1.2c1.9-5,4.1-9.8,6.1-14.8c1-2.4,0.9-5-0.2-7.3c-2.2-5.1-6-9.3-10.7-12c-0.8,1.2,0.1,2.1,0.5,2.9
		c2.4,5.2,3.3,10.8,4.4,16.3c0.3,1.3,0.1,2.6-0.9,3c-1.9,0.9-1.3-1.2-1.9-2c-0.7-0.9-1.5-1.8-2.4-2.5c-8.3-7.9-15.5-17-21.2-27
		C475.4,462.8,473.4,458,470,454z M563,566.8c10.4-5.3,20.9-10.3,31-15.8c7-3.8,12.8-9,16.6-16.4s8.9-14.4,13.4-21.6
		c4.1-6.4,8.3-12.8,12.7-19.7c-7.4-1.4-14-3.3-20.1-6.8c-1.5,1.6-1,4.4-3.3,5.4c-1.6-1.7-0.2-3,0.1-4.3c1.1-5.5-1.8-10.2-6.5-10.3
		c-1,0-2.5-0.5-2.9,1.1c-0.3,1.3,0.8,1.7,1.7,2c5,1.8,5,5.4,2.8,9.2c-5,8.5-8.5,18.1-15.2,25.6C579.7,530.3,572,549,563,566.9
		l-0.1,0.2L563,566.8z M474,730.8c6.7-1.3,13.3-2.7,20.2-1c3.8,1,7.2-0.4,9.8-3.5c0.5-0.6,1.1-1.5,2-0.8c1.2,0.9,0.2,1.7-0.5,2.5
		c-2.9,3.6-7.6,5.2-12.1,4.1c-10.1-2.3-18-0.1-24,9.1c-3.8,5.7-5.7,14.4-2.7,20.8c0.7-4.2,2.3-8.1,2.3-12.6
		c-0.1-8.7,5.5-12.9,14.2-11.2c4.2,0.9,8.4,2,12.8,1.3c0.9-0.1,1.6,0.2,1.6,1.6c-5.2,2.1-10.3,0.3-15.4-0.7
		c-7.1-1.3-11.1,2.2-10.6,9.4c4.8-3.6,9.9-2,14.8-0.6c3.9,1.1,7.7,2.2,11.7,0.8c0.6-0.2,1.3,0.3,1.3,1.3c-1.9,2-4.4,2-6.8,1.6
		c-3.9-0.6-7.8-1.8-11.6-2.6c-4.2-0.9-7.1,0.2-9.3,4.4s-1.8,9.3-5.5,12.7c-0.4,0.4-0.1,1.5-0.2,3.3c2.3-3.3,4-5.7,5.8-8.1
		c0.5-0.7,1.4-2.2,2.2-1.1c2.8,3.8,7.2,2.8,10.8,4c7.7,2.6,15.8,4.3,18.7,13.7c1,3,3.6,5.7,7.1,8.4c1.3-17.7,4.7-33.9,13.1-48.6
		c2.5-4.4,2.1-7.9-2.1-11.1c-1.9-1.5-3.2-3.8-4.7-5.8c-3.3-4.1-4.9-4.2-8.9-0.7c-0.6,0.6-1.1,1.2-2,1c-6.2-1.6-12.6,0.5-18.8-1.2
		c-3.5-0.9-6.5,0.6-8.8,3.4C477.1,727,475.6,729,474,730.8c-5.1,4-10.4,7.9-12.6,14.3c-1,3.5-3.4,6.5-6.7,8.2
		c-1.4,0.7-3.5,1.3-1.8,3.6c1.4,1.8,3,2.5,5,0.7c2.8-2.4,6-4.3,5.1-9.1c-0.6-2.9,1.6-5.2,3.5-7.4C469.2,737.9,472.7,735.2,474,730.8
		L474,730.8z M315,70.8c-20,19.2-35.2,42-49.5,65.5c-1,1.7-0.9,2.8,0.3,4.4c8.7,12.2,17.8,24.1,27.4,35.6c1.2,1.4,2.7,2.5,4.3,3.3
		c2.3,1.3,3.5,0.8,3.6-2.2c0.1-6.1,0.5-12.3,0.8-18.5c1-18.8,1.3-37.6,5.2-56.1C309.4,92.1,312.3,81.5,315,70.8L315,70.8l0.1,0.1
		L315,70.8z M510.8,484.2h0.2H510.8c0.4-1.4,0.4-3-0.1-4.4c-2.5-12.5-6.7-24.7-12.6-36c-2.1-4.1-4.6-6.1-9-7s-8.8-2.4-12.1-5.5
		c-5.5-5.4-12.3-9.1-18-14.2c-3-2.6-5.7-4.9-10-3.1c-1.5,0.4-3,0.3-4.4-0.4c-9.1-4.2-19.6-3.2-28.7-7.5c0-1-0.8-1.1-1.5-1.3
		c-0.1,0.1-0.2,0.2-0.2,0.4c0.2,1.1,1.2,0.6,1.8,0.8c1.8,5.7,6.3,9.2,10.7,12.9c7.4,6.2,13.1,13.5,15.5,23.2c1.1,4.7,3.7,9,6,14.2
		c3.5-8,3.8-15.5,3.5-23.1c5,6-0.5,14,4.6,20.1c4.6,5.6,8.6,11.6,14.4,17.7c-2-9.7-4.8-18-3.8-26.9c10.6,16.4,18.5,34.4,33.5,47.6
		c0.3-0.6,0.6-0.8,0.5-1.1c-1.2-6.8-3-13.4-8.5-18c-1.2-0.7-1.6-2.2-1-3.4c0.4-0.9,1.2-1,2-0.3C499.1,474.2,507,476.8,510.8,484.2z
		 M416,438.8l-0.1-0.2L416,438.8c0.6,2.2,1,4.3,1.6,6.3c11,34.9,20,70.4,27.5,106.2c1.5,6.9,1.4,6.9,7.9,3.5
		c3.5-1.8,7.2-3.5,10.8-5.2c5.2-2.5,10.2-5.6,14.9-9c5.3-3.9,8.7-9.4,11.2-15c1.5-3.5-1.6-7.6-2.3-11.5c-0.2-1.3-0.8-2.5-1-3.9
		c-0.6-3.7-2.6-6.1-5.7-8.2c-12.8-8.7-24.4-19.1-34.5-30.9C436.9,459.8,426.6,449.2,416,438.8z M424.9,596.9
		c-13.9,18-25.2,37.9-33.6,59.1c-4.1,10.1-8.6,19.7-14.9,28.6c-14.6,20.5-30.9,39.6-48,58.1c-28.6,31.1-29,62.6-11.5,100.1
		c-0.2-12,0.6-23.5,3.4-34.6s6.4-22,9.8-33c4.2-13.4,11.3-25.7,20.7-36.1c2.6-2.9,4.5-6.5,5.3-10.4c4.2-17.7,13-32.6,29.3-41.7
		c14.1-7.8,27.2-17.4,41.7-24.6c6.8-3.4,6.6-3.7,2.2-9.6c-0.3-0.4-0.6-0.8-0.8-1.2c-3.2-9-6-17.9-6.5-27.6
		C421.4,614.8,423.1,605.9,424.9,596.9h0.2H424.9z M738,778l-0.6-0.6l-0.2,0.4L738,778c6.7,4.6,14.2,8.1,22,10.3
		c16.6,4.6,28.5,15.5,39.1,28c9.7,11.4,14.1,25.5,18,39.7c0.7,2.7,1.1,5.6,3.2,8.6c3.3-16.3,5.1-32.8,5.5-49.4
		c0.6-30.7-7.5-60-14.6-89.3c-4-16.6-7.8-33-8.5-50c-0.6-14.9-2.8-29.7-8.9-43.6c-4-8.8-7.2-17.9-9.7-27.3c-0.8-3.1-0.9-3.1-3.8-5.7
		c3.2,21.2,5.2,42.7,5.9,64.1c0.6,25.5-1.1,51-5.2,76.1c-1.8,11.1-5.3,21.7-12,30.9c-6,8.3-14,11.4-24.1,9
		C742.6,778.8,740.3,778.5,738,778z M462.9,361.3h0.2l-0.2-0.1c0.4-2.9-0.4-5.7-2.2-8c-3.4-4.2-3.5-8.8-3.6-13.6
		c-0.3-7,0.1-14-0.4-21c-1.6-22-0.1-44,4.5-65.5c0.9-4,1.1-8.4,4.2-11.9c-4,20.5-7.5,41.1-7.1,63.4c5.6-5.1,12.8-7.1,16.3-11.9
		c5.5-7.7,9.6-16.9,10.3-26.7c1.7-27.3,5.6-54.3,13.7-80.5c5-16.4,10.2-32.7,13-49.7c2.4-14.3,7.8-27.1,19-36.9
		c2.4-2.1,4.2-4.8,5.2-7.8c2.5-7.4,4.9-14.8,12-19.8c-10,1.7-20,3-28.8,7.3c-19.1,9.5-33.7,24.4-44.7,42.5
		c-34.5,57.1-49,117.9-34,184.4C444.8,325.5,448.9,345.3,462.9,361.3z M588.8,302.7c5.2-5.3,7.6-12.2,10.4-18.8
		c9.1-21.6,15.5-44,14.4-67.8c-0.5-12.1-1.2-24.3-0.9-36.4c0.3-7.2-0.2-14.3-1.5-21.4c-3.1-16.5-8.7-32.4-12.6-48.8
		c-1.6-6.9-5.2-13.1-10.3-18c-6.1-5.7-12.2-11.3-18.1-17.2c-4.2-4.2-9.3-5.4-15-2.9c3,5.4,2.8,5.9,3.1,10.5
		c1.2,20.6-3.2,40.7-5.7,61c-2.5,19.4-3.7,38.8-1.7,58.3c1.4,13.4,3.5,26.8,1.8,40.3c-2.3,19-3.8,38.1-4.3,57.3
		c-0.4,15.3-5.8,27.8-16.7,38.1l0.2,0.2l-0.1-0.2c1.8,0.1,3.1-1,4.5-2c11.6-7.8,22-17.3,30.9-28.1c18.1-21.9,32.2-45.3,29.5-75.4
		c-0.1-0.9-0.3-2.1,1.8-2.1c1.3,4.8,2.2,10.6,1.7,14.9c-2.1,19.8-5.2,39.5-11.4,58.6c0,0.2-0.1,0.5-0.1,0.7L588.8,302.7z M505,84
		c-13.2,3.6-25.9,8.7-37.9,15.3c-40.8,22.1-67,55.4-76.6,101.1c-2,9.4-2.5,19.1-3,28.8c-1.2,26.5-0.1,52.8,9.1,78.1
		c4.6,12.5,9.6,24.8,14.5,37.2c3.6,9.1,7.6,18.2,13.9,25.8c11.9,14.2,27,25.5,43.9,33.1c9.3,4.3,19.3,7.1,29.4,8.3
		c-1.3-1-2.6-1.9-4.1-2.7c-12-7.1-23.1-15.5-30-27.9c-12.8-23.1-22.7-47.5-28.4-73.3c-6.9-31-5.8-62.4,0-93.3
		C445.6,164,463.7,117.8,505,84l0.2-0.2L505,84z M455.2,354.8H455H455.2c0,0.6-0.1,1.3,0,2c8.8,24.9,24.1,43.8,49,54.2
		c2.4,1,4.8,1.8,7.5,4.2c-16.4,0-30.8-4.2-45.1-10.2c0.5,14.1,9.7,27,23.5,29.7c7,1.4,13.2,4.5,19.1,8.3c7.7,4.9,16.2,8.6,25,11
		c16.1,4.7,32.5,8.5,48.2,14.7c7.3,2.9,15.4,0,18.1-7.1c1.7-4.4,4.4-7.2,7.4-10.3c5.9-6.1,11.8-12.3,18.8-17.2
		c12.5-8.6,24-17.7,31.4-31.9c7.5-14.4,12.9-28.8,10-45.2c-1.7-9.9-1.7-19.4,2.5-28.9c2.4-5.5,4-11.5,3-17.5
		c-2-12.1-5.9-23.8-7.4-36.1c-0.9,3-0.8,6.1-1.7,8.8c-2.4,7.1-2.2,13.4,3.5,18.9c1,1,1.5,2.6,2.2,3.9c0.4,0.7,0.9,2,0,2.2
		c-3.7,1-3.9,4.4-4.6,7c-3.4,12.5-11.5,21.8-20.5,30.7c-4.7,4.7-10.2,6-16.5,4.2c-6.6-1.8-11.2-5.7-12.8-12.6
		c-1.4-5.8-0.7-11.6-0.9-17.4c-0.1-3,0.7-6.1-0.6-9.4c-1.4,1-2.6,1.7-3.6,2.5c-1.3,1-2.4,1.7-3.8,0s-0.1-2.4,1-3.2
		c1.3-1,1.9-1.8,0.6-3.5s0.2-3.1,1.5-4.2c5.9-4.9,11.6-10,18.7-13.3c8.7-4.1,8.8-4.1,6.1-13.4c-0.8-2.9-1.8-5.7-3-8.5
		c-4.4-10-7.2-20.4-9.8-30.9c-1.6-6.7-3.4-13.4-5.1-20.1c-2.2,40.5-25.6,103-42.2,108c4.9-6.2,9-11.5,10.6-18.3
		c1.6-6.5,3.8-12.7,5.5-19.2s2.8-13,4.2-19.4c-0.8,0.4-1.4,1.2-1.8,2c-11.2,27.1-29.8,48.2-53.1,65.6c-2.5,1.7-5,3.2-7.7,4.6
		c-1.1,0.6-2.5,0.1-3.1-1c-0.5-0.9-0.3-1.9,0.4-2.6c1.2-1.4,2.4-2.8,3.6-4.1c7.7-8,12.2-18.5,12.6-29.7c0.8-20.8,2.2-41.6,4.6-62.3
		c1.1-9.6-0.1-26.9-2.5-32.5c-4.2,29.6-11.3,58-12.5,87.3c-3-21.7-6.7-43.2-11.8-65.3c-6.3,9.3-11.3,19.4-14.6,30.1
		c-3,9.2-5.6,18.5-10.7,26.8c-2,3.2-0.8,3.9,2.3,4.2c12.6,1.3,22.1,8.7,31.2,16.5c3.6,3.1,4.3,6.6,3.1,10.9
		c-4.9-4.8-9.2-10.4-17-10.6c0.5,2.1,1,4,1.5,5.9c2.5,10,2.4,19.8-1.4,29.4c-4.6,11.6-14.6,18.3-25.4,17.1
		c-9.9-1.1-20.9-11.9-22.8-22.4c-1.8-10-1.6-19.8,3-30.3c-1.8,1.2-2.6,1.5-3,2.1c-6,9.7-11.7,19.5-9.5,31.7
		c1.5,9.2,4.5,18.1,8.9,26.4c0.7,1.3,2.1,2.6,0.4,4.6C464.8,366.1,459.2,361.2,455.2,354.8z M881.9,983c-4.8-4-6.3-9.6-7.6-15.3
		c-0.7-3.2-2-6.8-1.3-9.8c1.1-4.6,3.5-9,5.7-13.2c13.7-26.3,32.2-48.9,53.5-69.2c2.7-2.6,3.2-4.9,2.3-8.3c-2.7-10-5.1-20-7.7-30
		c-13.6-52.8-30-104.9-49-156.1c-1.2-3.2-2.8-4.3-6-4.5c-6.5-0.4-12.9-1.2-19.4-2.1c-15-2-29.8-4.9-44.5-8.5
		c-1.4-0.3-3.8-2.2-3.5,1.7c0.9,11.6,0.8,23.3,3.4,34.8c4.5,19.9,9.9,39.7,14,59.7c5.2,24.8,8.4,49.7,4.8,74.9
		c-5.6,39.5-11.1,79.1-23.5,117.3c-0.4,1.3-2.6,3.8,0.3,4.5c2.6,0.6,5.2,5.6,8.3,0.5c1.2-1.9,4.7-2.3,5-0.7c1.1,5.9,5.1,7.5,9.9,8.7
		c0.5,0.1,0.8,1,1.2,1.5c1,1.2,2.4,1.9,3.9,1.9c4.9-0.3,7.2,2.5,8.7,6.6c0.9,2.5,3.2,5.2,5.4,4.1c6-2.9,11,0,16.2,1.7
		c2.3,0.7,4-0.4,5.5-1.5c3-2.3,5.3-2.3,7.5,0.9c1.9,2.7,4.2,3.1,6.5,0.4c10.8-3.5,19.2-11.9,30-15.2c0.6-0.2,1.2-0.6,1.6-1.2
		c3.6-5.2,9.6-6.8,14.7-9.9c7-4.2,12.9-3.2,18.6,1.9c3.7,3.3,8.3,4.7,13.2,5.3c2,0.2,3.2-0.1,2.3-2.7s-1.5-5.4-2.2-8.2
		c-4-14.6-7.9-29.2-12-43.8c-0.4-1.4,0-4.7-3-2.6c-12.8,8.8-27.4,14.4-39.8,23.8c-11,8.4-19.8,18.4-23.2,32.1
		c-1.5,6.2-5.7,12.7,0.6,18.7C882.8,981.5,882.2,982.5,881.9,983z M352.8,354.5c-0.4,0.3-0.8,0.7-1.1,1.1
		c-19.2,29.8-39.6,58.9-54.2,91.4c-6.5,14.6-14.3,28.6-23.1,41.9c-10.4,15.7-20,31.9-25.9,50s-11.2,36.2-17.6,54.1
		c-12.7,35.6-25.7,71-25.4,109.7c0.2,19.5-1,38.9,3.5,58.2c4.6,19.5,13.6,37.2,22,55c8.1,17.3,16.6,34.5,30,48.7
		c20,20.8,42.5,39,67.2,54c0.7,0.4,1.4,1.4,2.6,0.8c0.1-0.5,0.1-1,0-1.5c-7.4-19.8-10.6-40.5-13.4-61.2c-1.5-11-6.6-20.9-9.9-31.3
		c-7.5-23.6-6.1-46.2,6.8-67.8c6.1-10.3,14.1-18.9,22.7-27.2c2.2-2.1,2.8-4.1,2-7c-1.2-4.5-2.1-9.1-3-13.6
		c-4.6-22.5-5.3-45.2-6.6-68c-2.1-36.5-2-72.9,5.1-109c9.8-50.1,21-99.9,33.1-149.6c0.4-1.8,1.1-3.6,0-5.3
		C362.7,370,357.8,362.3,352.8,354.5z M150.1,148.6c-12.2,0.8-23.2,1.5-34.2,1.3c-2.2-0.1-4.3-0.3-6.4-0.7c-1.2-0.1-2.2-0.9-2.4-2.1
		c-0.3-1.6,0.7-2.5,2-3.1s2.5-0.9,3.8-1.3c15.3-5.3,31.4-7.7,47.6-7.1c14.1,0.5,25.4-6.3,37-15.5c-3.4,0.5-5.7,1.2-7.9,1.2
		c-20.5-0.5-39.5,5-58.4,12.6c-17.1,6.9-35.7,9.4-53.9,12.1c-5.7,0.9-11.8,7.5-12.4,13.1c-0.8,6.3-1.4,12.6-2.3,18.8
		c-1.4,10.6-3.4,21.1-5.9,31.5c1.9-2.4,3.3-5.1,5-7.5c1.2-1.7,2.1-4.5,4.7-3.6c2.1,0.7,1.7,3.3,1.9,5.2c2,18.1,6.2,35.3,18,49.9
		c4.9,6,4.6,11.2,0.6,17.9c-3.4,5.7-5.7,12.3-5,18.5c0.7,6.5,0,10.4-6.1,13.1c-1.2,0.5-3.1,1.4-2.6,3.1c0.4,1.5,2.4,1.6,3.8,2.1
		c3.9,1.3,8,2.4,11.3,5c6.1,4.7,12.2,4.4,18.5,0.2c3.7-2.5,7.6-4.9,12.1-5.8c7.2-1.4,13.3-4.9,19.3-9c9.7-6.7,11.4-6.2,14.2,5.3
		c8.9,36.5,20.4,72.4,28,109.2c0.6,2.9,1.4,3.6,4.1,1.9c8.7-5.6,17.4-11.2,26.2-16.5c2.9-1.8,3.5-3.9,3.2-7
		c-1-10.1-2.8-20.2-6.4-29.7c-9.6-24.8-16.4-50.7-20.1-77.1c-0.8-5.2,1.2-7,5.2-8.1c2.1-0.6,4.3-0.8,6.4-0.7
		c7.4,0.6,13.2-2.7,18.4-7.5c4-3.8,7.5-8.1,10.2-12.9c5.9-9.6,13.5-17.7,21.8-25.3c0.8-0.7,1.4-2.2,2.8-1.7c6,2.1,10.6-1.2,15.3-3.8
		c8.2-4.6,14.6-2.9,18.8,5.6c1.3,2.7,2.3,5.5,2.9,8.5c1.6,8.7,3,17.4,4.3,26.1s2.8,17.7,7.5,26c6.6-7.7,10.2-16.6,13.9-25.5
		c0.5-1.2-0.2-2.3-0.7-3.3c-9.6-23.3-14.1-48.5-13-73.7c0.1-3.7-0.7-5.8-4.5-6.8c-2.4-0.6-4.2-2.6-5.8-4.6
		c-7.5-9.6-15.5-18.7-22.3-28.9c-1.6-2.4-3.5-4.7-5.5-7.3c-1.1,1.6-1.8,2.8-2.7,3.7c-1.8,2-2.7,6.4-5.9,4.7
		c-3.6-1.8-1.2-5.7,0.1-7.9c4.6-7.5,3.3-13.9-2.3-20c-0.2-0.2-0.3-0.6-0.5-0.8c-1.3-1.1-1.6-4.7-4.2-2.8c-2.9,2.2-8.5,1.9-8,7.4
		c2.2,23.4,4.5,46.7,6.9,70.1c0.1,1.8,0.5,3.6,1.4,5.2c2.9,5.1,1.1,9.3-4.6,10.4c-3.1,0.6-6.1,1.3-8.8,3.3s-4.4,0.6-5.4-2
		c-0.6-1.6-0.9-3.2-0.9-4.9c0.8-15.2-2.6-29.8-5.4-44.5c-1.7-8.9-2.7-18-4-27.4c-5.2,2.6-10.4,6.8-15.6,4.4
		c-7-3.2-11.6-0.4-16.7,3.2c-1.2,0.9-2.5,1.6-4,2c-10.6,2.3-17.9,8.8-23.9,17.5c-3.9,5.7-9.9,8.8-16.7,10.2
		c-3.9,0.8-6.3-1.3-4.5-3.9C141.9,162.8,143.1,154.7,150.1,148.6z M859.2,668.9c-1.7-16.9-5.1-33.5-10-49.7
		c-9.1-29.3-16.7-58.9-19.1-89.6c-0.1-1.7-1.1-2.3-2.1-3c-28.7-20.1-55.2-43-82-65.5c-16.2-13.5-31.9-27.4-43.9-44.8
		c-1.6-2.3-2.6-2.5-4.2,0c-3.5,5.3-7,10.5-10.9,15.6c-2.3,3-2.5,5.9-1.6,9.3c4.4,17.8,11.6,34.8,21.4,50.4c2.2,3.5,4.7,4.9,8.7,5.5
		c18.6,3.1,33.3,12.2,41.9,29.6c4.9,9.8,9.7,19.7,14.4,29.6c1.9,4,4.4,8.2,4.8,12.5c1.4,12.8,3.8,24.9,9.7,36.7
		c3.8,7.5,5.4,16.4,8.9,24.3c4,9,6.7,18.5,8,28.2c0.4,3.4,1.8,5.1,5.3,5.9c15.1,3.4,30.2,6.5,45.6,8.6
		C858.2,672.9,860.6,673.1,859.2,668.9z M341.8,725c2.9-3.3,5-6.1,7.5-8.5c2.9-2.8,3.6-5.8,3-9.8c-0.9-6.1-1-12.3-1.3-18.4
		c-2.4-39.9-1.1-80,3.9-119.7c3.8-31.1,11.8-61.5,23.9-90.4c0.5-1.1,0.5-2.7,2.4-2.7c1.3,2-0.4,3.5-0.9,5c-3,8.6-8,16.8-8.4,26
		c-1.6,34.1-0.6,68,9.4,101c3.3,11.4,7.8,22.5,13.3,33.1c3.8-3.8,4.5-7.4,2.8-12.4c-7.6-23.1-11.4-47.3-11.5-71.7
		c-0.3-39,1.6-77.9,4.1-116.9c0.6-9.4,1.9-18.8,3-28.1c0.8-6.5,2-13,3.7-19.4c0.8-2.2,0.6-4.7-0.3-6.8
		c-5.4-11.2-10.8-22.2-16.2-33.3c-0.3-0.6-0.6-1.2-1.6-0.8c-0.4,1.5-0.9,3-1.4,4.6c-14,50.9-24.8,102.5-35.9,154
		c-6.5,30.2-11.6,60.5-11,91.5c0.4,18.8,1.3,37.6,2.1,56.4C333.2,680.4,336.3,703,341.8,725z M216,393.4c2.8-0.6,4.3-2.3,5.9-3.7
		c14.1-13.2,28.2-26.5,42.2-39.8c7.8-7.3,14-16.2,18.2-26c4.3-9.8,8.7-19.5,15.3-28c1.2-1.2,1.4-3.1,0.6-4.5
		c-7-13.8-7.4-29.2-10.3-44c-1.1-5.7-1.2-11.6-4.3-16.8c-3.8-6.6-8.5-7.9-14.9-3.9c-4.5,2.9-9.6,4.7-14.9,5.2
		c-2.5,0.2-4.7,1.4-6.4,3.2c-8.4,7.9-15,17.3-21.5,26.8c-7,10.1-15.8,17.7-29.4,16.3c-1,0-2,0.1-3,0.4c-2.9,0.7-4.3,2-3.8,5.6
		c1.7,12.5,4.4,24.9,7.1,37.2C202.1,345.6,215.4,367.7,216,393.4z M672.3,387.2c-0.3,0.4-0.5,0.8-0.8,1.2c-0.7,0.8-1.1,2.6-2.3,2
		c-1.9-1-0.1-2.2,0.4-3.3c0.4-0.7,0.8-1.5,1.3-2.1c8.7-14.9,14.3-31.5,16.2-48.7c1.4-12.2,1-24.6,2.5-36.9c1.9-13.4,1.5-27-1.2-40.2
		c-4.3-19.7-12.3-38.5-23.6-55.2c-0.6-1-2.4-2.1-0.8-3.3c1.3-1,1.9,0.8,2.4,1.6c15.9,23.7,26,49.4,26.7,78.3
		c0.3,11.2-1.7,22.2-2.3,33.4c-0.6,10.8-0.5,21.7-2.7,32.3c-0.8,3.6-2,7-2,10.8c-0.2,13.2-2.6,26.2-7.1,38.6
		c-0.6,1.8-1.8,3.6-0.7,5.7c1.9-0.4,2.5-2.2,3.4-3.5c12.1-16.7,19.8-35.3,24.6-55.3c5.7-23.9,10.3-48.1,6.2-72.7
		c-6.9-41.7-20.4-81.3-43-117.3c-4.2-6.6-8.1-13.4-11.7-20.4c-9.6-19.7-25-32.9-45-41.2c-1.2-0.5-3-0.7-3.6-1.6
		c-3.3-5.3-9.3-4.5-14.5-7.4c5.6,9.8,11.9,19.2,18.8,28.1c10.1,13,20,26.2,28.7,40.2c7.4,11.7,12.8,24.5,16,38
		c6.7,28.3,4.8,57.6,10.6,86c1.6,7.8,1.9,16,4.4,23.5c4,12,3.2,23.5-1.8,35c-2.4,5.5-3.4,11.3-2,17.1c4.2,18.3,0.5,35.3-8,51.6
		c-0.7,1.3-1.7,2.6-1.3,4.2c2.9,11.2,6.3,22.3,10.3,33.2c1.5-2.4,2.3-4.3,3.6-5.7c5.2-6,5.8-12.6,3.5-19.9c-1.5-4.2-2.4-8.6-2.7-13
		C674.6,395.9,673.8,391.5,672.3,387.2L672.3,387.2z M395.1,415.8c-1.1,9.7-2.3,18.4-3,27.2c-2.1,26.1-2.7,52.2-3.6,78.3
		c-0.8,23.5-1.1,46.9,2.6,70.3c2,13.1,5.1,25.9,9.4,38.4c1.6-0.3,1.8-1.5,2.2-2.3c6.7-13.2,14.2-26,24.3-37c1.3-1.5,2-3.5,2-5.5
		c0.4-9.5,4.9-16.9,12.4-22.3c2.8-2,3.2-4.1,2.5-7.2c-7.8-35.9-17.1-71.4-27.2-106.8C412.7,435.6,405,426,395.1,415.8z M499,440.7
		c3.6,6.3,6.6,12.8,9,19.6c10.3,31.5,18.3,63.6,24.1,96.2c1.6,9,3.7,17.9,7.3,26.4c0.7,1.6,1.2,3.9,3.6,1.4
		c7.7-7.7,16.3-14.2,21.1-24.8c7.1-15.6,14.3-31.2,26.1-44.1c6-6.6,9.9-14.6,13.8-22.5c0.5-1.1,1.1-2.1,0.6-3.3
		c-3-7.3-3.8-14.9-3.9-23.5c-6.2,5.8-12.7,7.5-19.8,4.5c-13.1-5.5-26.9-8.8-40.5-12.5c-12.3-3.4-24.1-7.5-34.8-14.6
		C503.7,442.1,501.4,441.1,499,440.7z M78.8,142.5c0.8,0.2,1.6,0.3,2.4,0.4c19.9-3.2,39.9-6.5,58.4-14.6c13.1-5.7,26.3-9,40.6-8.7
		c9.7,0.3,19.3-2,27.9-6.7c6.4-3.5,13.1-6.5,20-9c3.7-1.4,7.4-3,11.1-4.3c3.3-1.2,4.2-2.4,1.5-5.4c-3.5-4-7-8-11.5-11
		c-8.6-5.8-14.6-13.5-17.5-23.6c-1-3.3-2.7-6.4-3.9-9.7c-1.3-3.6-3.3-4.2-6.9-3.1c-17.7,5.4-35.4,10.5-53.1,15.8
		c-1.3,0.2-2.4,0.8-3.2,1.8c-11.2,15.9-22.6,31.7-34,47.5c-6.8,9.7-15.2,18.2-24.8,25.2C83.7,138.6,81.6,140.3,78.8,142.5z
		 M919.9,676.8c-3.7-14.3-8.2-28.4-13.4-42.2c-7.4-19.6-14.8-39.2-20.1-59.5c-1.1-4.6-3.9-8.6-7.8-11.2
		c-14.5-10.6-28.9-21.4-43.4-32c-0.7-0.5-1.4-1.5-2.7-0.8c1.8,19.3,5.3,38.5,10.3,57.2c6.6,24.2,14.9,48,18,73
		c0.5,3.9-0.6,8.8,2.2,11.4s7.7,1.3,11.6,1.6C889.5,675.3,904.4,676,919.9,676.8z M573.7,73.8c3.6,4.5,6.6,7.8,10.2,10.5
		c9.8,7.3,15.4,17.3,18.3,28.9c2,7.7,3.5,15.6,6,23.2c5.2,15.7,7.4,32.2,6.7,48.7c-0.2,5-0.7,10.2,0.4,14.9
		c3.4,15.2,7.2,30.4,11.3,45.5c4.7,17.4,13.7,33.7,13.5,52.4c0,0.8,0.4,1.6,1.1,2.1c1.1,0.6,1.7-0.6,2.3-1.3c0.8-1,1.6-2.2,2.1-3.4
		c10.2-23.7,18.3-47.6,15.5-74.3c-3.2-29.7-10.5-57.3-28.6-81.8c-13-17.5-27-34.3-38.2-53.1C590,78.9,582.6,76,573.7,73.8z
		 M348,850.9c2.3-2,3.6-4.9,3.5-8c-0.3-3,0.5-5.5,1.2-8.2c4.5-16.2,10.5-31.9,17.7-47.1c17.3-36.2,37.3-71,60-104.1
		c7.1-10.4,12.7-21.6,18.6-32.6c-18,13.5-37.9,23.6-57.1,34.7c-16.7,9.7-28.3,22.5-32.8,41.2c-3.2,12.9-5.8,26-8.6,39
		c-4.7,22-9.5,44-6.3,66.7C345,838.6,344.8,845,348,850.9z M569.5,588.7c4.3-4.1,9.1-3.4,11.1,1.3c1.8,4.2,4.1,4.3,7.7,3.3
		c3.8-1.1,7.3-0.5,9.5,3.3c2.5,4.2,4.9,8.3,10.2,9.5c1.3,0.3,1.7,1.9,2.4,3.1c2.6,4.9,7.5,6.4,12.3,7.5c2.4,0.5,4.8-0.8,5.7-3.2
		c1.1-2.5-0.9-3.6-2.4-4.9s-3.2-2.9-4.7-4.4c-6.2-6.5-11.7-13.7-16.2-21.5c-2.3-4.1-5.8-5.8-10.5-4.3c-2.9,1-5.6,0.1-8.2-1.2
		c-0.9-0.5-2.6-0.7-1.8-2.3c0.6-1.3,1.8-0.3,2.6,0.1c2.8,1.6,5.7,1.5,8.7,0.8c3.5-1,7.2,0.3,9.3,3.3c3,4.2,7.3,7.2,10.5,11.3
		c3.5,4.3,8.3,6.5,13.2,8.7c1.4,0.6,2.9,1.3,4-0.3c1.4-1.9-0.9-2.5-1.6-3.6c-3.1-4.9-8.9-7.7-11-13.4c-0.9-2.7-2.9-4.8-5.6-5.8
		c-2.6-1.1-5.1-2.5-7.4-4.1c-4.1-2.9-8.8-4.8-13.8-5.5c-13.6-1.6-26.7,0.4-37.4,9.2c-9.3,7.5-18.2,15.6-26.5,24.2
		c-3.1,3.3-5.6,8.2-11.6,7.3c-1.8-0.3-1.3,1.7-1.4,2.6c-1,5.2-1.7,10.5-2.7,15.7c-1.6,7.7-2.6,15.5-3,23.4c3.9-3.5,7.7-3.6,11.8-3
		c6,1,12.2-0.3,17.1-3.8c8.4-6,17.6-10.9,24-19.3c0.4-0.6,1.2-0.7,1.8-0.3l0.1,0.1c2.2,7.9-6.2,11.5-8.1,18.2
		c4-0.6,7.2-1.2,10.5-1.6c1.9-0.1,3.5-1.3,4.1-3.1c0.8-2.4,1.8-4.7,3-6.8c1.2-2.3,1.1-4.6-0.8-6.5c-3.6-3.6-4.7-8.3-6-13
		c-0.5-1.6-2-3.8,0.4-4.8c2.1-0.9,3.8,0.7,5,2.4c1.3,2,2.7,3.6,5.2,4.3c6,1.7,6.3,3.1,2,7.9c-2.3,2.6-1.1,5.2,0.8,7.1
		c2.3,2.4,3.3-0.4,4.6-1.7c2.9-3,3.8-7,5.8-10.4s1.2-5.9-1.1-8.6c-1.5-1.8-3.3-3.3-5.3-4.5c-2.9-1.3-5.2-3.9-6-7
		C578.7,589.7,576,587.2,569.5,588.7L569.5,588.7z M517.6,76c-24,1-45.7,5.4-64.8,18.9c-12.1,8.6-23.5,18.1-34.8,27.6
		c-23.7,20-40,45.6-52.5,73.3c-11.7,25.8-13.5,53.7-11.9,81.8c0.5,9.2,1,18.4,2.9,27.6c0.6-0.3,1-0.4,1.2-0.6
		c1.2-1.8,2.4-3.6,3.5-5.5c9-14.7,15.1-30.7,20.8-46.9c2.4-6.7,2.8-13.4,3.1-20.3c0.7-14.6,1.5-29.4,5.5-43.5
		c8.5-29.9,25.9-54.2,49.2-74.3C460,97,484.3,87.9,509.2,79.9C511.7,79.1,514.3,78.7,517.6,76z M998.5,682.4
		c-11.2-19.6-95.8-103.5-110.7-109.7c2,6.5,3.8,12.7,5.8,18.8c8.8,27.7,20.7,54.4,28,82.6c0.8,3,2.6,2.8,4.8,2.9
		c15.8,1.1,31.6,1.1,47.2,4C981.6,682.5,989.7,683.5,998.5,682.4z M424.1,619.9c-0.2,4.5,0.2,9,1.2,13.4c1.4,7,3,14,7.5,19.9
		c2.1,2.8,4.1,3.8,7.2,1c5.7-5.1,11.3-10.2,16.5-15.8c6.2-6.7,16.1-10,23.4-16.3c0.1-0.1,0.3-0.1,0.5-0.1c3.5-0.3,3.4-1.9,2-4.6
		c-5.4-10.9-6.7-22.5-5-34.5c1.6-11.4,3-22.8,1.5-34.3c-0.4-3.2-0.4-4.8-4.1-2.4c-4.5,2.8-9.2,5.3-14.1,7.5
		c-6.4,3.2-12.8,6.4-18.4,11c-6.5,5.3-10.9,11.7-11.2,20.3c-0.2,3.5-1,6.9-2.5,10C425.3,603,424.3,611.3,424.1,619.9z M368.3,515.6
		c-17,63.3-18.6,127.5-12.9,192.5c12.8-18.1,28.8-33.9,34.9-56.1c1.8-6.5,1.7-11.3-1.1-17.2c-11.9-25.5-17.9-52.4-19.4-80.5
		C369.1,541.4,369,528.5,368.3,515.6z M579,627.4c-1.5,3.4-3.4,6.2-4.3,9.4c-0.7,2.3-2.6,4-5,4.3c-3.8,0.7-7.5,1.6-11.3,1.8
		c-1.8-0.1-3.5,0.9-4.2,2.6c-12.1,23-26.1,44.9-40.7,66.4c-1.8,2.7-1.6,4,1.5,5c4,1.3,7.4,3.1,8.8,7.9c0.8,2.6,4.2,3.7,6.7,2.7
		c4-1.6,6.5,0.3,7.8,3.2c2.5,5.5,6.9,6.9,12.3,7.2c3,0.2,5.8,1.1,8.9,1.7c0.3-4.3,0.5-8.5,0.9-12.6c1.3-13.4,6.5-25.7,10.3-38.5
		c4.9-16.4,7.2-33.5,12.6-49.8c1.5-4.5,4.1-9.1-3.2-10.9C579.8,627.8,579.4,627.6,579,627.4z M509.5,825.6
		c-6.2,2.2-11.4,5.8-16.9,8.7c-3.8,2-5.4,4.5-5.3,9c0.3,16.9-1.9,33.5-4.8,50.1c-3.4,19-5.1,38.2-6.2,57.5c-0.2,3.3,0.3,4.6,3.9,3
		c6.6-2.8,13.6-4.5,20.7-5.3c5.4-0.6,10.8-1.8,16.2-2.6c2.7-0.4,3.4-1.6,2.8-4c-4.5-16.8-6.2-34-8.4-51.1c-2.4-18-5-35.9-2.5-54.2
		C509.4,833.2,510.2,829.5,509.5,825.6z M531.2,102.1c-6.7,5.7-11.7,13.3-14.2,21.8c-3,9.5-4.3,19.4-6.5,29.2
		c-4,17.9-11.2,34.8-14.9,52.8c-5.5,26.1-9.4,52.4-8.1,79.2c0.1,1.7-0.8,4.3,2.1,4.9c2.6,0.5,4.6-0.2,6.1-2.9c3.9-7,6.9-14.4,9.2-22
		c4-13.1,9.3-25.6,16.9-37.1c1.1-1.5,1.7-3.2,1.6-5.1c-1.5-29.2,1-58.2,4.1-87.2C528.7,124.9,529.9,114.2,531.2,102.1L531.2,102.1z
		 M534.5,271.4l0.7-0.1c0.3-1.3,0.6-2.5,0.8-3.8c2.7-16.6,5.4-33.2,8-49.8c1.2-8,4.4-15.7,4-24c-1.3-22.8,0.8-45.3,4.8-67.6
		c2.7-15.2,3.2-30.4,3.3-45.7c0-2.8-0.6-5.6-3.3-6.8s-4.4,1.2-6,2.7c-7.3,6.9-10.9,16.6-12.4,25.5c-5.5,34.5-8.6,69.4-9.2,104.4
		c-0.2,8.2,0.4,16.5,1.8,24.6C529.1,244.3,531.9,257.8,534.5,271.4L534.5,271.4z M254.8,145.7l1.6,0.9c4.8-7.9,9.4-16,14.6-23.8
		c12-17.8,23.5-36.2,39.5-50.7c7-6.4,9.6-14.2,13.2-22.3c-2.3,0.1-3.4,1.4-4.7,2.3c-15.8,10.4-31.6,21-47.5,31.4
		c-10.7,7.1-21.4,14.5-33.4,18.9c-17.2,6.3-33.4,15-48.1,25.9c-9.1,6.9-20.5,10.4-31.9,9.7c-15.4-0.8-30.1,2.1-44.6,7
		c-1.1,0.4-2.6,0.1-3.1,1.9c4.9,1.1,9.7,0.8,14.5,0.6c9-0.3,18-0.3,26.9-1.5c0.9-0.1,2.1-0.4,2.7,0.6s-0.4,1.9-1.1,2.4
		c-7.7,5.2-9.1,14.3-13.8,21.6c7.7-0.6,13.9-4.4,19.2-11.6c4.3-5.9,8.8-11.5,16.1-13.6c5.8-1.6,11.2-4.3,16-7.9
		c2.5-1.8,5.4-3.2,8.4-1.5c6.4,3.9,12,1.4,17.1-2.2c12.4-8.7,25.6-16.1,38.9-23.2c12.1-6.5,23.8-13.5,32.3-24.6
		c0.5-0.7,1.2-1.2,1.7-1.8c1-1.1,1.9-1,3,0s0.9,2-0.1,3s-1.9,1.8-3,2.7C271.5,104.8,264.6,126.1,254.8,145.7z M174.8,773.5
		c0.1-5.3-1.5-10.5-4.6-14.9c-0.8-1-1.5-2.2-2-3.4c-5.2-13-14.2-21.8-28.2-24s-28-3.9-42.1-5c-16.6-1.3-32.8-3.3-47.4-12.1
		c-1.2-0.7-2.2-2.1-4.2-1.7c6.4,10,14.2,18.6,21.1,28c1.6,2.1,3.4,4.1,5.3,5.9c2.9,2.8,6.3,5.1,10,6.5c9.2,3.6,19.1,4,28.7,5.9
		c8.5,1.7,17.2-0.9,25.7-2.3C153.6,753.6,165.7,758.8,174.8,773.5z M657.8,407.5c-7.7,13.9-19.9,21.5-31.4,29.8
		c-6.2,4.7-11.9,10.1-17,16.1c-4.6,5.2-7,11.1-6.2,18.3c0.3,2.5,0.8,3.5,3.5,3.2c3.7-0.4,6.8,1.3,8.1,4.7c1.4,3.8,4.2,5.4,7.3,6.9
		c4.1,1.8,8.4,3.1,12.8,3.9c2.5,0.5,3.9-0.2,5.3-2.4c9-14.6,18-29.1,27.1-43.6c1.1-1.4,1.4-3.3,0.8-5
		C664.7,429.2,661.5,419.1,657.8,407.5L657.8,407.5z M470.9,326.5c0.3,3,0.8,5.9,1,8.9c0.5,6.3,3.5,11.1,8.1,15.5
		c14.5,13.6,29.3,5.2,34.9-6.8s4.7-23.9,0.5-36c-0.7-2-2.3-2.6-4-3.4c-9.6-4.4-19.2-1.7-28.9-0.3c-5.1,0.7-7.6,3.3-9,7.8
		C471.9,316.8,471,321.6,470.9,326.5z M420.4,430.5c0.6-12.9-7-21.3-11.4-30.9c-4.9-10.7-6.3-21.3-4-32.5c1-5,3.8-8.6,9.4-8.3
		c-7.5-19-14.9-37.9-22.2-56.8c-1.4-3.5-2.5-1.3-3.7-0.2c-6.2,6.1-12.7,11.8-19.5,17.1c-2.6,1.9-1.6,3.4-0.5,5.5
		c4.8,9.1,9.6,18.2,14.3,27.3c5.9,11.5,11.5,23.2,17.1,34.9C406.7,400.7,415.4,414,420.4,430.5L420.4,430.5z M671.1,494.4
		c-8.2-2.3-15.2-0.5-22.1-0.4c-1.2,0-1.6,1.1-2.1,1.9c-14.2,20.3-28.8,40.4-40,62.6c-4.2,8.3-4.3,8.2,4,12.9c2.1,1.2,3.1,1,4.4-1
		c3.6-5.4,7.6-10.5,11-16.1C639.2,533.2,650.5,510.9,671.1,494.4L671.1,494.4z M475.3,974.6h-0.1c0,4.3,0.1,8.7,0,13
		c-0.1,3.2,0.9,3.7,3.8,2.4c7-3.2,13.5-7.3,19.4-12.2c7.5-6.2,15.9-10.2,25.7-10.8c2-0.1,2.6-0.6,2-2.6c-1.5-4.6-2.8-9.2-4-13.9
		c-0.5-2.1-1.6-2.8-3.6-2.3c-9.8,2.5-20.1,2.5-29.9,5.3c-12.7,3.6-12.7,3.6-13.1,16.6C475.3,971.6,475.3,973.1,475.3,974.6z
		 M236.9,123.7c-5,3-9.4,5.6-13.8,8.2c-1.5,0.9-1.7,2.2-1.5,3.8c0.8,5.9,1.3,11.9,2.1,17.8c2.4,17.7,8.1,35,6.9,53.2
		c0,1.3,0.2,2.7,0.5,3.9c0.3,1.3,1,2.4,2.4,1.2c3-2.5,6.7-2.7,10.2-3.7c2.3-0.6,4.3-2.6,2.6-4.7c-1.6-1.9-1.7-3.9-1.9-5.9
		c-1.2-11.4-2.3-22.8-3.4-34.2C239.6,150.5,238.3,137.5,236.9,123.7z M326,337l0.4,1c2.2-0.6,4.5-1.1,6.6-1.8
		c11.2-3.9,21.6-9.7,31-17c8.2-6.4,15.9-13.3,23.7-20c1.6-1.4,2.7-2.8,2.2-5.1c-3.2-13.6-4.3-27.5-5.2-42.8c-1.2,3.5-2,5.6-2.7,7.8
		c-5.2,15.8-12.3,30.9-21.1,45c-1.8,2.9-4.7,5.3-3.7,9.4c0.2,0.7-0.5,1.7-0.9,1.4c-4-2.5-4.2,1.8-5.6,3.2
		c-4.6,5.1-9.8,9.5-15.5,13.2L326,337z M644.8,321.5c0-5.4-1-10.7-2.8-15.7c-1.4-3.7-3.7-5.7-8-4.3c-4.8,1.4-9.4,3.4-13.8,5.7
		c-1.4,0.8-3.1,1.4-3,3.6c0.4,8.5-1,17,0.6,25.4c1.3,7.2,6.9,11.9,14.1,12.7c2.5,0.2,3.6-1,4.8-2.7C642,339,644.8,330.3,644.8,321.5
		L644.8,321.5z M451.6,410.5c-5.9-6.3-11.4-13.1-16.2-20.3c-5-7.2-9.9-14.6-15.3-21.6c-2.1-2.8-3.1-8.1-7.9-7.1
		c-5.3,1.1-5.4,6.5-5.7,10.6c-1.6,24.4,5.9,33.2,24.8,35.6c4,0.4,7.9,1.3,11.6,2.8C445.6,411.6,448.4,412.9,451.6,410.5z
		 M529.8,595.9c2.3-2.1,4.8-4.4,7.3-6.5c1.1-0.9,1.8-1.7,1-3.4c-7.5-15.9-8.5-33.4-12.4-50.2c-3.4-14.9-6.7-29.8-11.4-44.4
		c2.4,10.2,0.1,20.2-1,30.3c-0.4,2.8-0.4,5.7,0,8.5C516.8,552.4,518.6,575.1,529.8,595.9L529.8,595.9z M488.2,833.8
		c6.9-3.7,13.4-7.3,20-10.6c1.8-0.9,1.6-2.3,1.6-3.7c0-8.6-0.7-17.3,0-25.9c0.2-1.2-0.2-2.3-0.9-3.2c-4.1-4.8-8-9.7-10.6-15.6
		c-0.6-1.3-1.8-2.7-3.5-2.4s-1.3,2.2-1.4,3.4c-1.5,11-3.1,22-4.2,33.1C488.5,816.9,487.4,825.2,488.2,833.8z M694,404.9
		c-1.3,2.1-2.3,3.7-3.3,5.4c-7,11.5-14,23.1-21,34.6c-7,11.4-14,22.6-21,34c-6.8,11.2-14.1,22.1-21.2,33.1
		c-10.1,15.7-19.8,31.6-28.9,47.9c-0.7,1.3-3.8,3-0.7,4.8c2.8,1.6,3.6-0.8,4.6-2.7c7.4-14.9,15.9-29.3,25.4-42.9
		c12.9-18.2,25.4-36.7,36.6-56c9.3-16,19.4-31.5,30.4-46.4C698.2,412.2,698.5,408.9,694,404.9z M650,491.6
		c5.8-0.7,11.7-0.9,17.5-0.5c5.9,0.3,11.3,2.7,17,4c4.4,1,9,1.2,13.5,0.6c-11.2-12.1-19.8-26.5-25-42.2
		C665,466.6,657.7,478.8,650,491.6L650,491.6z M477.5,766.3c-6.9,0.8-8.4,2.4-8.7,8.6c0,0.7-0.1,1.6-0.7,1.6c-3.6-0.3-3.4,3-4.5,4.8
		c-2.5,4.1-4.3,8.7-7,12.6c-14.3,21.1-26.8,43.2-41.7,63.9c-5.1,7.1-9,15.1-13.6,22.7c-1.9,3.1-2,6,1.3,7.6s4-2,4.9-4
		c3.8-7.7,6.6-16,11.8-23c14-18.9,25.5-39.4,37.6-59.4C463.9,790.2,470.5,778.4,477.5,766.3z M369.2,375.7c2.7-9.7,5-18.2,7.3-26.7
		c0.4-1.3,0.5-2.6,0.1-3.9c-2.4-5.1-5.1-10-8-15.6c-4.8,7.2-9,13.8-13.3,20.3c-0.8,0.9-0.9,2.2-0.3,3.2
		C359.4,360.8,364.1,368.4,369.2,375.7z M706.7,495.4c-11.4-17.1-19.2-35.8-24.2-56.5c-2.7,4.2-4.8,7.4-6.8,10.6
		c-0.7,0.8-1,2-0.6,3.1c5.5,15.2,13.2,29,24.2,41C701.2,495.7,703.3,496.6,706.7,495.4z M444.6,464.9l1.5-0.7
		c-3.4-17.8-8.1-34.9-25.4-46.9c2.1,9,3.6,17.1,3.5,25.4c0.1,0.8,0.5,1.6,1.1,2.1C431.8,451.5,438.2,458.2,444.6,464.9z M657,318.2
		c-1.7-1.9-1-3.8-0.9-5.5c0.3-7.6,0.3-7.6-7.2-9.8c-0.3-0.1-0.6-0.2-1-0.3c-1.1-0.4-2.3-1.1-3.3-0.3c-1.3,1.1-0.2,2.4,0.1,3.6
		c4.3,14.1,3.1,27.6-4.9,40.2c-0.1,0.1,0.2,0.4,0.6,1.1c7.4-8.1,16.3-14.8,20.2-25.6c1.4-3.9,0.8-7.3-1.3-10.9
		C657.3,313,659.2,316,657,318.2z M419.6,439.2c-3.4-17.2-11.7-32-20.5-48.2c-1.1,7.2-2.1,13.2-3,19.2c-0.2,1.5,0.3,3,1.4,4.1
		C404.9,422.7,412.3,431,419.6,439.2L419.6,439.2z M746.5,325.4l29-44.4c0.3-0.4,0.5-0.9,0.6-1.4c0.6-1.5,1.5-3.5-0.2-4.4
		c-1.6-0.8-2.4,1.4-3.2,2.5c-9.1,13.4-18,26.8-27.2,40.1C743.5,320.9,744.2,323,746.5,325.4z M397.3,86.2c-2.4,0.9-6.4-0.9-8.3,2.8
		c-2.1,4.2-0.1,7.7,2.4,11c1.6,2.1,3.3,4.1,4.2,6.6c0.3,0.8,0.2,2.3,1.6,2s1.7-1.6,1.5-2.7c-0.5-3.6,1.2-5.9,3.9-7.9
		s2.5-5.2,1.4-8.1S400.8,86,397.3,86.2z M273.8,103.3c-6.5,3.9-13.4,7.2-20.1,10.7c-1.5,0.8-2.5,1.5-1.3,3.3
		c2.4,3.5,4.7,7.1,7.4,11.2L273.8,103.3z M687.4,394.9c-8.1,7.1-10.7,15.1-5.7,24.8c0.2-0.1,0.6-0.3,0.8-0.5
		c2.2-3.5,4.3-7.1,6.5-10.6C693.3,401.3,693.3,401.3,687.4,394.9z M660.1,290.3c3.5-9.4,4.9-31.9,2.5-37.9c-1.5,6.2-4.1,12.1-4.1,18
		C658.4,276.6,660.3,282.8,660.1,290.3z M471.7,304.6c4.6-1,8.3-1.8,12-2.7c4.2-1.1,2.2-4.6,2.1-7c-0.1-3.1-2.6-1.6-4.2-1.4
		C475.5,294.4,474.3,299.6,471.7,304.6z M682.6,367.4c-3.5,7.9-9.9,15.1-5.2,25.5C680.4,384.7,682.1,376.1,682.6,367.4z M584.8,597
		c4.1,2.9,7.9,5.8,10.7,10.2c3.1-3.2,2.8-6,0.5-9.3C592.5,593.1,588.7,596.3,584.8,597z M656.4,302.6c1.6-7.2,0.6-10.4-4.6-10.7
		c-4.2-0.3-3.2,5.1-5.7,7.6L656.4,302.6z M663.5,313c4.6-8.1,4.5-9-1.9-15.1C656.5,303.7,661.4,308.1,663.5,313L663.5,313z
		 M656.4,275c-1.3,3.4-2.2,5.9-3.1,8.3c-2.2,6-2.2,6,4.4,8.1C658.1,285.9,657.7,280.4,656.4,275z M571.3,608.3
		c1.3,4.9,1.7,10,6.1,13.2c0.9-1.6,1.3-3.4,3-4.5c1.8-1.2,1.9-2.6-0.3-2.9C576.2,613.6,573.7,611.2,571.3,608.3z M478.7,291.4
		c7.5-1.4,7.6-1.8,5.6-13.2L478.7,291.4z M504.8,712.4c-1.2,0.7-2.9,0.8-2.5,2.6s0.9,4,3.5,4.1c1.5,0,3.7-0.6,3.5-1.9
		C508.8,714.9,506.6,713.6,504.8,712.4z M488.4,296.1c2-0.5,2.6-2,3.1-3.8C487.8,291.4,487.8,293.4,488.4,296.1z M606.6,488.2
		c1.2-2.6,1.8-4-0.3-5c-0.2-0.1-0.5,0.2-1.1,0.4C605.6,484.8,605.9,486,606.6,488.2z M727.5,773.7l0.2-0.2h-0.2V773.7z"/>
	<path d="M72.8,137.1c-0.6,1.5-1.2,1.9-2.3,1s-2.3-1.9-3.5-2.9c-11.2-9.7-21.2-20.6-29.8-32.7c-0.7-1.1-2.9-2.4-1.3-3.7
		s2.3,1.1,3,2.1c9,12.6,19.5,24,31.4,34C71.2,135.7,72,136.4,72.8,137.1z"/>
	<path d="M582.1,409.7c3.3-0.8,8.7,1.8,13.8-1c0.4-0.2,0.9-0.1,1.3,0.1c0.7,0.5,0.5,1.1,0,1.7c-3.8,4-4.8,9.4-7.5,14
		c-6.1,10.3-23.7,11.8-31.9,2.9c-1.3-1.4-2-3.1-1.9-5c-0.1-3.4,2.4-5.9,3-8.8c1.1-5.2,5-2.5,7.4-3
		C570.8,409.7,575.6,410,582.1,409.7z M592.5,412.2c-5.9,0-11.3-0.1-16.7,0c-3.5,0.1-7,0.3-10.4,0.7c-3.8,0.5-5.4,3.5-6.6,6.7
		c-0.9,2.3-0.8,4.5,1.1,6.5c7.8,8,23.5,6,28.5-3.8C589.8,419.2,590.9,415.9,592.5,412.2L592.5,412.2z"/>
</g>
<g id="图层_1_x5F_复制">
	<g>
		<path d="M358,1024.9h2c-0.1-0.3-0.2-0.6-0.3-0.9h-2.1C357.7,1024.3,357.8,1024.6,358,1024.9z"/>
		<path d="M476,1025h2c0-0.3-0.1-0.7-0.1-1h-2C476,1024.3,476,1024.7,476,1025z"/>
		<path d="M1025,197v-3c-0.3,0.1-0.7,0.2-1,0.4v2.8C1024.3,197.1,1024.7,197.1,1025,197z"/>
		<path d="M1025,676.9v-2c-0.3,0.1-0.7,0.3-1,0.4v2.1C1024.3,677.3,1024.7,677.1,1025,676.9z"/>
		<path d="M1025.1,701.9v-6c-0.4-0.4-0.7-0.9-1.1-1.3v5.3C1024.4,700.6,1024.7,701.3,1025.1,701.9z"/>
		<path d="M1025,596v-17c-0.4-0.7-0.8-1.4-1-2.2v19.7C1024.3,596.4,1024.6,596.3,1025,596z"/>
		<path d="M483,1025h2c-0.1-0.3-0.1-0.7-0.1-1h-2C482.9,1024.3,482.9,1024.7,483,1025z"/>
		<path d="M1025,788v-4c-0.4,0.1-0.7,0.3-1,0.5v4C1024.3,788.3,1024.6,788.1,1025,788z"/>
		<path d="M1025,943.9v-7c-0.4-0.3-0.8-0.7-1-1.1v6.4C1024.3,942.8,1024.6,943.4,1025,943.9z"/>
		<path d="M1025,801.9v-2c-0.4,0-0.7,0-1,0.1v3.7C1024.3,803.2,1024.7,802.5,1025,801.9z"/>
		<path d="M1025.1,712.9v-5c-0.4,0.3-0.7,0.8-1.1,1.2v4.7C1024.3,713.6,1024.7,713.3,1025.1,712.9z"/>
		<path d="M549,1024.9h2c-0.2-0.3-0.3-0.6-0.5-0.9h-2.1C548.6,1024.3,548.8,1024.6,549,1024.9z"/>
		<path d="M758,1025h2c0.2-0.3,0.3-0.7,0.4-1h-2.1C758.3,1024.3,758.2,1024.7,758,1025z"/>
		<path d="M1025,962v-3c-0.3,0.3-0.7,0.6-1,0.8v3.2C1024.4,962.7,1024.7,962.4,1025,962z"/>
		<path d="M783,1025h3c0-0.3,0.1-0.6,0.1-1h-2.9C783.1,1024.3,783.1,1024.6,783,1025z"/>
		<path fill="#241C2C" d="M471.7,304.6c4.6-1,8.3-1.8,12-2.7c4.2-1.1,2.2-4.6,2.1-7c-0.1-3.1-2.6-1.6-4.2-1.4
			C475.5,294.4,474.3,299.6,471.7,304.6z"/>
		<path fill="#874541" d="M588.3,422.2c1.6-3,2.7-6.3,4.2-10c-5.9,0-11.3-0.1-16.7,0c-3.5,0.1-7,0.3-10.4,0.7
			c-3.8,0.5-5.4,3.5-6.6,6.7c-0.9,2.3-0.8,4.5,1.1,6.5C567.5,434,583.2,432,588.3,422.2z"/>
		<path fill="#C79499" d="M543,584.4c7.7-7.7,16.3-14.2,21.1-24.8c7.1-15.6,14.3-31.2,26.1-44.1c6-6.6,9.9-14.6,13.8-22.5
			c0.5-1.1,1.1-2.1,0.6-3.3c-3-7.3-3.8-14.9-3.9-23.5c-6.2,5.8-12.7,7.5-19.8,4.5c-13.1-5.5-26.9-8.8-40.5-12.5
			c-12.3-3.4-24.1-7.5-34.8-14.6c-1.9-1.5-4.2-2.5-6.6-2.9c3.6,6.3,6.6,12.8,9,19.6c10.3,31.5,18.3,63.6,24.1,96.2
			c1.6,9,3.7,17.9,7.3,26.4C540,584.6,540.5,586.9,543,584.4z"/>
		<path fill="#C79499" d="M455.3,354.9c-0.1,0.6-0.1,1.2-0.1,1.8c8.8,24.9,24.1,43.8,49,54.2c2.4,1,4.8,1.8,7.5,4.2
			c-16.4,0-30.8-4.2-45.1-10.2c0.5,14.1,9.7,27,23.5,29.7c7,1.4,13.2,4.5,19.1,8.3c7.7,4.9,16.2,8.6,25,11
			c16.1,4.7,32.5,8.5,48.2,14.7c7.3,2.9,15.4,0,18.1-7.1c1.7-4.4,4.4-7.2,7.4-10.3c5.9-6.1,11.8-12.3,18.8-17.2
			c12.5-8.6,24-17.7,31.4-31.9c7.5-14.4,12.9-28.8,10-45.2c-1.7-9.9-1.7-19.4,2.5-28.9c2.4-5.5,4-11.5,3-17.5
			c-2-12.1-5.9-23.8-7.4-36.1c-0.9,3-0.8,6.1-1.7,8.8c-2.4,7.1-2.2,13.4,3.5,18.9c1,1,1.5,2.6,2.2,3.9c0.4,0.7,0.9,2,0,2.2
			c-3.7,1-3.9,4.4-4.6,7c-3.4,12.5-11.5,21.8-20.5,30.7c-4.7,4.7-10.2,6-16.5,4.2c-6.6-1.8-11.2-5.7-12.8-12.6
			c-1.4-5.8-0.7-11.6-0.9-17.4c-0.1-3,0.7-6.1-0.6-9.4c-1.4,1-2.6,1.7-3.6,2.5c-1.3,1-2.4,1.7-3.8,0s-0.1-2.4,1-3.2
			c1.3-1,1.9-1.8,0.6-3.5c-1.4-1.7,0.2-3.1,1.5-4.2c5.9-4.9,11.6-10,18.7-13.3c8.7-4.1,8.8-4.1,6.1-13.4c-0.8-2.9-1.8-5.7-3-8.5
			c-4.4-10-7.2-20.4-9.8-30.9c-1.6-6.7-3.4-13.4-5.1-20.1c-2.2,40.5-25.6,103-42.2,108c4.9-6.2,9-11.5,10.6-18.3
			c1.6-6.5,3.8-12.7,5.5-19.2s2.8-13,4.2-19.4c-0.8,0.4-1.4,1.2-1.8,2c-11.2,27.1-29.8,48.2-53.1,65.6c-2.5,1.7-5,3.2-7.7,4.6
			c-1.1,0.6-2.5,0.1-3.1-1c-0.5-0.9-0.3-1.9,0.4-2.6c1.2-1.4,2.4-2.8,3.6-4.1c7.7-8,12.2-18.5,12.6-29.7c0.8-20.8,2.2-41.6,4.6-62.3
			c1.1-9.6-0.1-26.9-2.5-32.5c-4.2,29.6-11.3,58-12.5,87.3c-3-21.7-6.7-43.2-11.8-65.3c-6.3,9.3-11.3,19.4-14.6,30.1
			c-3,9.2-5.6,18.5-10.7,26.8c-2,3.2-0.8,3.9,2.3,4.2c12.6,1.3,22.1,8.7,31.2,16.5c3.6,3.1,4.3,6.6,3.1,10.8
			c-4.9-4.8-9.2-10.3-17-10.6c0.5,2.1,1,4,1.5,5.9c2.5,10,2.4,19.8-1.4,29.4c-4.6,11.6-14.6,18.3-25.4,17.1
			c-9.9-1.1-20.9-11.9-22.8-22.4c-1.8-10-1.6-19.8,3-30.3c-1.8,1.2-2.6,1.5-3,2.1c-6,9.7-11.7,19.5-9.5,31.7
			c1.5,9.2,4.5,18.1,8.9,26.3c0.7,1.3,2.1,2.6,0.4,4.6C464.8,366.2,459.3,361.2,455.3,354.9z M558.8,413.6c1.1-5.2,5-2.5,7.4-3
			c4.6-0.8,9.3-0.6,15.8-0.9c3.3-0.8,8.7,1.8,13.8-1c0.4-0.2,0.9-0.1,1.3,0.1c0.7,0.5,0.5,1.2,0,1.7c-3.8,4-4.8,9.4-7.5,14
			c-6.1,10.3-23.7,11.8-31.9,2.9c-1.3-1.4-2-3.1-1.9-5C555.8,419,558.2,416.5,558.8,413.6z"/>
		<path fill="#241C2C" d="M490,299.8c1.1,0,2.2,0.1,3.3,0.1c8.5-0.2,17,1.3,24.8,4.5c4.4,1.7,8.5,3.9,13.1,5.2
			c-8.3-6.6-16.3-13.6-27.1-15.8C495,291.9,494.9,291.8,490,299.8z"/>
		<path fill="#6F4D3F" d="M531.2,102.1c-6.7,5.7-11.7,13.3-14.2,21.8c-3,9.5-4.3,19.5-6.5,29.2c-4,17.9-11.2,34.8-14.9,52.8
			c-5.5,26.1-9.4,52.4-8.1,79.2c0.1,1.7-0.8,4.3,2.1,4.9c2.6,0.5,4.6-0.2,6.1-2.9c3.9-7,6.9-14.4,9.2-22c4-13.1,9.3-25.6,16.9-37.1
			c1.1-1.5,1.7-3.2,1.6-5.1c-1.5-29.2,1-58.2,4.1-87.2C528.7,124.9,529.9,114.2,531.2,102.1z"/>
		<path d="M531.3,309.7l-0.1,0.3c0,0,0.1,0,0.1,0.1V309.7z"/>
		<polygon points="425,596.9 424.9,596.9 424.8,596.9 		"/>
		<path fill="#AEAFCC" d="M428.9,585.1c0.4-9.5,4.8-16.9,12.3-22.3c2.8-2,3.2-4.1,2.5-7.2c-7.8-35.9-17.1-71.4-27.2-106.8
			c-3.8-13.3-11.5-22.8-21.4-33c-1.1,9.7-2.3,18.4-3,27.2c-2.1,26.1-2.7,52.2-3.6,78.3c-0.8,23.5-1.1,46.9,2.6,70.3
			c2,13.1,5.1,25.9,9.4,38.4c1.6-0.3,1.8-1.5,2.2-2.3c6.7-13.2,14.2-26,24.3-37C428.2,589.1,428.9,587.1,428.9,585.1z"/>
		<path fill="#6F4D3F" d="M397.4,628.1c-7.6-23.1-11.4-47.3-11.5-71.7c-0.3-39,1.6-77.9,4.1-116.9c0.6-9.4,1.9-18.8,3-28.1
			c0.8-6.5,2-13,3.7-19.4c0.8-2.2,0.6-4.7-0.3-6.8c-5.5-11.2-10.8-22.2-16.2-33.3c-0.3-0.6-0.6-1.2-1.7-0.8c-0.4,1.5-0.9,3-1.4,4.6
			c-14,50.9-24.8,102.5-35.9,154c-6.5,30.2-11.6,60.5-11,91.5c0.4,18.8,1.3,37.6,2.1,56.4c0.8,22.7,3.9,45.2,9.4,67.3
			c2.9-3.3,5-6.1,7.5-8.5c2.9-2.8,3.6-5.8,3-9.8c-0.9-6.1-1-12.3-1.3-18.4c-2.4-39.9-1.1-80,3.9-119.7c3.8-31.1,11.8-61.5,23.9-90.4
			c0.5-1.1,0.5-2.7,2.4-2.7c1.3,2-0.4,3.5-0.9,5c-3,8.6-8,16.8-8.4,26c-1.6,34.1-0.6,68,9.4,101c3.3,11.4,7.8,22.5,13.3,33.1
			C398.3,636.6,399,633.1,397.4,628.1z"/>
		<path fill="#AEAFCC" d="M368.3,515.6c-17,63.3-18.6,127.5-12.9,192.5c12.8-18.1,28.8-33.9,34.8-56.1c1.8-6.5,1.7-11.3-1.1-17.2
			c-11.9-25.5-17.9-52.4-19.4-80.5C369.1,541.4,369,528.5,368.3,515.6z"/>
		<path fill="#6F4D3F" d="M356.3,314.8c-4-2.5-4.2,1.8-5.6,3.2c-4.6,5.1-9.8,9.5-15.5,13.2L326,337l0.4,1c2.2-0.6,4.5-1.1,6.6-1.8
			c11.2-3.9,21.6-9.7,31-17c8.2-6.4,15.9-13.3,23.7-20c1.6-1.3,2.7-2.8,2.2-5.1c-3.2-13.6-4.3-27.5-5.2-42.8c-1.2,3.5-2,5.6-2.7,7.8
			c-5.2,15.8-12.3,30.9-21.1,45c-1.8,2.9-4.7,5.3-3.7,9.4C357.4,314,356.7,315,356.3,314.8z"/>
		<path fill="#C79499" d="M484.3,278.2l-5.6,13.2C486.1,290.1,486.3,289.7,484.3,278.2z"/>
		<path fill="#241C2C" d="M636.5,289c-9.9,2.5-17.2,8.9-25.1,15.6c2.6,0.5,5.5-3,6,1.6c4.3-2.5,8.8-4.5,13.5-6.1
			c6.9-2.2,6.9-2.2,6.1-9.3C636.8,290.1,636.6,289.5,636.5,289z"/>
		<path fill="#432958" d="M634,301.5c-4.8,1.4-9.4,3.4-13.8,5.7c-1.4,0.8-3.1,1.4-3,3.6c0.4,8.5-1,17,0.6,25.4
			c1.3,7.2,6.9,11.9,14.1,12.7c2.5,0.2,3.6-1,4.8-2.7c5.2-7.2,8.1-15.8,8.1-24.7l0,0c0-5.4-1-10.7-2.8-15.7
			C640.6,302.1,638.3,300,634,301.5z"/>
		<path fill="#241C2C" d="M663.5,313L663.5,313c4.6-8.1,4.5-9-1.9-15.1C656.5,303.7,661.4,308.1,663.5,313z"/>
		<path fill="#20020C" d="M626.4,437.3c-6.2,4.7-11.9,10.1-17,16.1c-4.6,5.2-7,11.1-6.2,18.3c0.3,2.5,0.8,3.5,3.5,3.2
			c3.7-0.4,6.8,1.3,8.1,4.7c1.4,3.8,4.2,5.4,7.3,6.9c4.1,1.8,8.4,3.1,12.8,3.9c2.5,0.5,3.9-0.2,5.3-2.4c9-14.6,18-29.1,27.1-43.6
			c1.1-1.4,1.4-3.3,0.8-5c-3.4-10-6.6-20.2-10.3-31.8C650.2,421.4,637.9,429,626.4,437.3z"/>
		<path fill="#6F4D3F" d="M662.6,252.4c-1.5,6.2-4.1,12.1-4.1,18c0,6.2,1.8,12.4,1.6,19.9C663.6,281,665,258.4,662.6,252.4z"/>
		<path fill="#241C2C" d="M488.4,296.1c2-0.5,2.7-2,3.1-3.8C487.8,291.4,487.8,293.4,488.4,296.1z"/>
		<polygon points="614.6,307.1 614.9,307 616.1,306.5 614.9,307 		"/>
		<path fill="#432958" d="M473.5,312.2c-1.6,4.6-2.4,9.4-2.5,14.3c0.3,3,0.8,5.9,1,8.9c0.5,6.3,3.5,11.1,8.1,15.5
			c14.5,13.6,29.3,5.2,34.9-6.8c5.6-12,4.7-23.9,0.5-36c-0.7-2-2.3-2.6-4-3.4c-9.6-4.4-19.2-1.7-28.9-0.3
			C477.4,305.1,474.9,307.7,473.5,312.2z"/>
		<path fill="#E1D1F2" d="M644.6,302.4c-1.3,1.1-0.2,2.4,0.1,3.6c4.3,14.1,3.1,27.6-4.9,40.2c-0.1,0.1,0.2,0.4,0.6,1.1
			c7.4-8.1,16.3-14.8,20.2-25.6c1.4-3.9,0.8-7.3-1.3-10.9c-2.1,2.2-0.2,5.2-2.4,7.4c-1.7-1.9-1-3.8-0.9-5.5c0.3-7.6,0.3-7.6-7.2-9.8
			c-0.3-0.1-0.6-0.2-1-0.3C646.8,302.3,645.6,301.6,644.6,302.4z"/>
		<path fill="#241C2C" d="M459.2,306.5c-1.1,0.7-0.9,1.7-0.8,2.6c0.3,4.7,0.6,9.5,0.9,14.7c3.1-4.3,3.4-9.4,6-13.1
			c2.6-4,4.9-8.2,6.8-12.6l0.1-0.2l-0.2,0.2C466.9,299.6,463.6,303.9,459.2,306.5z"/>
		<path fill="#241C2C" d="M646.1,299.5l10.3,3.1c1.6-7.2,0.6-10.4-4.6-10.7C647.6,291.6,648.6,297,646.1,299.5z"/>
		<path fill="#C79499" d="M656.4,275c-1.3,3.4-2.2,5.8-3.1,8.3c-2.2,6-2.2,6,4.4,8.1C658.1,285.9,657.7,280.4,656.4,275z"/>
		<path fill="#475069" d="M1021.1,712.7c-5.2-8.7-11.5-16.7-17.5-24.9c-1.3-2.1-3.8-3.3-6.2-2.9c-6.3,0.5-12.7,0.3-18.9-0.7
			c-10.3-1.7-20.6-3.6-31.2-3.3c-16-0.9-32-1.9-48.1-2.7c-6.5-0.3-13.1,0-19.9,0c23.6,62.2,42.5,126.2,58.3,191.6
			c0.8-0.5,1.6-1.1,2.4-1.7c14.8-14,30.3-27.1,45.8-40.3c2.6-2.2,3-4,2-7.2c-5.6-17.2-11-34.5-16.3-51.9
			c-8.5-27.6-16.9-55.3-25.3-83c-0.4-1.5-3.1-4.2,1.1-4.9c13.5,46.5,28.1,92.6,42.5,138.8c1.2,3.8,2.4,2.4,4.2,0.7
			c10.2-9.9,19.4-20.7,27.5-32.2c0.8-1.2,1.4-2.6,2.6-3.5v-70.7C1023.1,714.5,1022.2,714.7,1021.1,712.7z"/>
		<path fill="#6A79B7" d="M1020.2,964c-8.7-1.3-15.5,1.2-20.2,9.3c-2,3.5-7,3.5-10.7,4.5c-2.4,0.6-3.3-2.4-4.8-3.8
			c-2.9-2.8-5.6-5.7-9.2-7.7c-2.6-1.5-5.6-2.4-8-0.5c-2.3,1.8,0.2,4.1,0.4,6.3c0.2,3.2,2.8,6.1,0.8,9.6c-1.6-4-2.9-8-4-12.1
			c-0.5-1.7-0.6-3.6-3.3-3.6c-7,0-12.8-2.9-18.1-7.3c-3.1-2.6-6.7-3.9-10.6-1.7c-6,3.4-13.1,5-17.5,11c-1.6,2-3.9,3.3-6.4,3.7
			c-3.7,0.9-7.2,2.7-10.1,5.2c-3.7,2.9-8.1,4.6-12.3,6.6c-3.8,1.8-7.8,6.3-11.9,1.2c-4.8-6.1-7.8,3.5-12,0.9
			c-1.2-0.7-2.4-1.1-3.8-1.3c-2.7-0.5-5-2.5-8.1-1.7c-7.7,2.1-8.9,1.5-12.7-6c-0.9-1.9-2-3.5-4.3-3.6c-6.2-0.1-10-6.1-16.2-6.3
			c-2-0.1-1.4-2.2-1.2-3.7c0.2-1,0.2-2.2-0.7-2.7c-1.1-0.6-1.8,0.4-2.4,1.2c-2.1,2.7-4.4,3.2-7.3,1s-4.8-1.4-5.7,2.2
			c-1.9,7.2-4.1,14.4-5.8,21.7c-3,12.4-6.6,24.7-8,37.5H1024v-61C1022.9,963.8,1021.6,964.2,1020.2,964z"/>
		<path fill="#E1D1F2" d="M816.5,887.3c0.7-5.6,3.6-11.3,2.1-16.7c-4-14.4-7-29.2-14.4-42.4c-8.8-15.8-21.3-28-37.8-35
			c-11-4.7-22.2-9-32.9-14.3c-2.4-1.2-4.8-2.7-8.2-2.8c0.8,1,1.1,1.5,1.5,2c15.1,16.2,25.5,35.3,34.7,55.2
			c4.6,9.6,5.8,20.4,3.6,30.7c-0.3,1.5-0.2,3.3-2.9,4c0.3-2.3,0.4-4.3,0.8-6.2c1.8-8.8,0.5-17.2-2.8-25.5c-3.3-8.4-7.3-16.4-12-24.1
			c-15.5-24.9-30.7-50.3-60.8-60.6c-0.3-0.1-0.6-0.3-0.9-0.5c-16.3-8.2-32.6-9.2-49.2-0.9c-6.8,3.3-13.9,6.2-21.6,3.6
			c-4.6-1.7-9.7-1.1-13.8,1.5c-3.3,2-6.7,3.7-10.2,5.3c-1,0.5-2.3,1.8-3.8-0.5c4.9-3.2,10.7-4.9,15.5-8.8
			c-19-5.9-38.3-7.4-57.4-11.3c9.4,8.1,16.2,17.7,22.1,28c5.8,10.1,13.2,19.3,22,27c7.8,6.9,14.5,14.8,21.1,22.7
			c7.2,8.7,13.7,18.3,22.1,25.8c18.5,16.6,35.1,35,52.6,52.5c21.7,21.6,42.2,44.4,61.4,68.4c6.4,8,11.3,16.9,13.4,27.1
			c2.2,10.8,4.7,21.6-0.2,32.3h22.7c2.8-13.7,5.8-27.3,9.3-40.9C801,951.3,812.3,920.2,816.5,887.3z"/>
		<path fill="#E1D1F2" d="M760.9,1008.4c-1-16-5.7-30.7-16.1-43.2c-8.7-10.5-17.5-21-26.3-31.5c-18.8-22.3-41.7-40.7-59.9-63.7
			c-2.8-3.5-6.5-6.3-10-9c-10-7.7-19.1-16.7-27-26.6c-12.1-15.1-24.4-30-38.8-42.9c-5.6-5-10.6-10.9-13.8-17.6
			c-7.9-16.8-23.4-27.6-33.2-42.8c-1.5-2.4-3.5-2.3-5.2,0c-1,1.4-1.8,2.8-2.6,4.2c-12.1,22.2-16.1,46.3-15.9,71.2
			c0.1,12,0.3,24-1.1,35.9c-0.7,6-1.3,12-0.7,17.9c2.3,21.8,4.7,43.7,8.3,65.4c3.8,22.7,12.5,44.1,18.2,66.3
			c2.9,11.4,8.3,21.6,13.7,31.9h207.8C759.9,1018.9,761.2,1013.8,760.9,1008.4z"/>
		<path fill="#550000" d="M1006.8,884.7c-3.3-11.4-6.6-22.8-9.9-34.4c-0.7,0.4-1.1,0.5-1.2,0.7c-1,1.3-2,2.7-3,4
			c-12.5,17-24,34.9-41.7,47.3c-1.4,1-1.7,2-1.2,3.8c5,18.1,9.8,36.2,14.8,54.3c0.3,1.2,0.2,3.3,2.7,2.7c8-2,12.8,3.2,17.7,8
			c5.2,5,11,4.9,14.9-1.2c4.3-6.8,10.4-9.2,17.8-8.4c2.3,0.3,4.6-0.3,6.5-1.7v-17.5c-1.1-2-2-4.1-2.6-6.4
			C1016.6,918.8,1011.7,901.7,1006.8,884.7z"/>
		<path fill="#59647D" d="M999.7,851.6c7.8,27,15.5,54,23.3,81c0.3,1.1,0.4,2.3,1,3.3V803.8c-7.3,13.4-14.3,27-23.1,39.4
			C998.9,846,998.8,848.4,999.7,851.6z"/>
		<path fill="#204143" d="M1021.8,791.6c-10.2,13.8-21.3,26.6-34.4,37.7c-21,18-42.2,35.8-61.5,55.7c-18,18.6-33.9,38.7-45.5,62
			c-3.6,7.3-5.8,14.6-2.9,23c8.8-28,16.8-37.7,42.3-51.5c3.1-1.7,6.2-3.3,9.2-5c17.4-9.6,33-21.3,45.1-37.3
			c17.5-23.2,34.5-46.5,47.2-72.8c0.6-1.3,1.2-2.9,2.7-3.3v-11.5C1023,789.3,1022.5,790.6,1021.8,791.6z"/>
		<path fill="#76688E" d="M528.8,972.6c-0.8-3-2.4-3.8-5.4-3.5c-8,0.9-15.6,4-21.9,9c-4.8,3.8-9.6,7.8-15.1,10.5
			c-2.7,1.3-3.3,3.2-3.4,5.9c-0.3,9.8,0.3,19.7,1.8,29.4h63.6c-5.5-8.3-9.7-17.4-12.5-27C533.4,988.9,531,980.8,528.8,972.6z"/>
		<path fill="#20020C" d="M1021.2,593.8c-6.2-9.3-13.3-18-22.1-25c-7.3-5.8-14.1-12.2-20.2-19.3c-7.6-8.9-17-16.1-27.5-21.3
			c-5.9-3-12.3-5.5-17.6-9.4c-24.7-18.1-53.3-29.1-80.2-45.6c1.2,1.5,1.6,2.1,2.1,2.6c31.9,34.7,62.5,70.5,92.8,106.6
			c12.1,14.4,25.1,28,36.1,43.4c10.8,15.1,20.3,30.9,26.2,48.6c1.5,4.3,3.5,5,7.3,3.1c1.9-0.9,3.9-1.6,5.9-2.3v-78.8
			C1022.2,597.1,1021.9,594.8,1021.2,593.8z"/>
		<path fill="#20020C" d="M837,259.1c-18.4,6.4-36.7,12.8-55.1,19.3c-1.3,0.5-2.7,0.8-3.6,2.3c-9.3,14.6-18.6,29.2-28.1,43.7
			c-2.1,3.1-1.8,5.3-0.1,8.5c21.7,41.4,54.8,71.7,93.9,96c26.1,16.3,54,29.7,79.6,46.9c22.8,15.1,44.4,31.9,64.7,50.2
			c13.7,12.4,25.1,27.3,33.5,43.8c1.2,2.3,1.4,4.8,2.2,7.1V197.2c-5.1,0.9-9.8,3.2-14.6,4.9C952.3,222.2,894.2,239.2,837,259.1z"/>
		<path fill="#391215" d="M481,995.2c0.1-3.2-1.1-3.2-3.5-2.1c-2.4,1-2,2.8-1.8,4.6c0.7,8.8,1.5,17.6,2.2,26.4h4.9
			C481.1,1014.5,480.5,1004.8,481,995.2z"/>
		<path fill="#475069" d="M1016.1,684.8c2.6,3.3,5.3,6.5,7.9,9.8v-17.2c-2.2,1.1-4.4,2-6.6,2.9
			C1014.4,681.3,1014.3,682.6,1016.1,684.8z"/>
		<path fill="#6F4D3F" d="M317.8,263.8c-4.3,10.1-8.6,20.2-15.4,29c-7.9,10.2-13.8,21.5-18.9,33.4c-4.1,9.4-10,17.8-17.4,24.8
			c-10.3,9.9-20.7,19.8-31,29.8c-8.5,8.5-17.9,16-28,22.5c-27.9,17.2-55.2,35.6-83.2,52.5c-26.7,16.1-50.1,35.8-71.5,58.1
			c-8.1,8.4-15.2,17.7-21.1,27.8c-8.5,14.6-18.9,28.4-25.9,43.9c0.1,0.2,0.1,0.5,0,0.8c-1.4,5-3.2,9.8-5.4,14.5V680
			c0.3,0.5,0.7,1,1,1.6V677c1.7,0.9,1.6,2.8,2.2,4.2c4.4,11.7,10.1,22.8,17,33.2c14.1,21.1,34.9,32.3,58.4,39.5
			c-4.2-3.5-8.8-6.6-12.3-11.1c-5.1-6.8-10.5-13.4-15.6-20.2C28,692.2,19.6,657.5,26.7,621c11.7-60.6,41.1-112.1,87.5-153.4
			c20.3-18.1,44-30.7,67.5-43.7c0.1-0.5,0.5-0.9,0.9-1c0.3-0.1,0.6,0,0.8,0.1c9.1-5,18.1-10.2,26.9-15.8c2.1-1.3,4.5-2.2,6.8-3.1
			c0.1-0.1,0.1-0.1,0.2-0.2c0.2-0.1,0.4-0.2,0.6-0.2c0.2-0.1,0.4-0.2,0.6-0.2c9.8-4.1,19.2-9.3,28-15.4c12.4-8.5,24-18.1,36.5-26.4
			l8.1-8.1c0,0,0,0,0,0c5.8-15.2,11.6-30.5,17.4-45.7c8.3-21.6,15.7-43.5,20.9-66C324.8,248.8,320.9,256.1,317.8,263.8z"/>
		<path fill="#700300" d="M218.8,412.8c-0.2-0.9-0.4-1.9-0.4-2.9c0-0.1,0.2-0.3,0.7-0.6c0-0.1-0.1-0.1-0.1-0.2
			c-0.5-0.8-0.9-1.5-1.4-2.3c-2.8,1.4-5.6,2.8-8.5,4.2c-8.4,4.1-16.7,8.4-24.9,12.9c0.6,1.5,1.1,3.1,1.4,4.7c0.5,0.9,0.5,2,0.8,2.9
			c7.6,30.7,15.1,61.4,22.9,92c3.4,13.5,7.6,26.9,12.4,40.6c2.2-3.8,2.6-7.7,3.6-11.2c4.6-15.3,9.1-30.6,13.8-45.9
			c0.9-2.9,1-6,0.4-9C233.9,469.3,225.8,441.2,218.8,412.8z"/>
		<path fill="#B7C9EC" d="M284.2,364.1c-0.1,0.1-0.3,0.2-0.5,0.3c-3.6,2.3-7.1,4.6-10.5,7.3c-16.7,13.1-34.5,24.2-53.4,33.9
			c1.2,1.9,2.4,3.8,3.1,5.9c0.2,0.7-0.3,1.3-0.9,1.5c-0.3,0.1-0.6,0-0.9-0.1c7.8,27.3,12.8,55.1,21.6,81.9
			c14.3-44.2,29.5-88.2,44.4-132.8C286.2,362.8,285.2,363.4,284.2,364.1L284.2,364.1z"/>
		<path fill="#AEAFCC" d="M348.3,1000.4c-0.5-2.1-1.9-3.9-3.8-4.9C274.4,954.6,231,893.6,211.1,815.7
			c-9.6-37.7-13.6-76.3-13.2-115.3c0.3-34.5,7.1-68.1,15.5-101.5c2.2-8.7,4.3-17.4,6.5-26.1c0.6-1.7,0.7-3.6,0.2-5.3
			c-13.1-37.1-21.2-75.6-30.4-113.7c-1.3-5.6-2.8-11.2-4.3-16.8c-0.3,0.4-0.9,0.5-1.3,0.4c-0.7-0.2-1-0.9-0.9-1.5
			c0.6-3.7,0-7.3-1.3-10.8c-15.9,8.9-31.4,18.6-46.4,29.1c-56.8,40-90.2,96.2-105.9,163c-6.9,29.4-1.9,58.3,11.2,85.6
			c1.1,2.2,2.8,4.1,4.9,5.5c12.6,8.8,27.5,14,42.8,14.8c17.4,1.2,34.8,3.2,52.1,6c10.8,1.6,20.2,8,25.5,17.4
			c4,6.9,8.9,13.3,14.6,18.9c0.8,0.7,2.9,1.6,1.2,3c-1.2,1-1.9-0.7-2.7-1.4c-1.2-0.9-2.2-2.1-3.2-3.1l-0.2-0.1l0.2,0.2
			c1.3,6.4,1,12.8,0,19.3c-1,6.7-4.6,11.3-10.7,14c-0.8,0.3-1.9,1.3-2.4-0.3c-0.4-1.1,0.7-1.4,1.4-1.8c13.6-8,9.6-24,0.4-30.7
			c-9.7-7.1-20.4-7.2-31.5-5.2c-11.9,2.2-23.7,3-35.7-0.1c-3.5-1-7.3-1.2-10.9-0.5c-2.1,0.4-4.2,0-6.1-1.1
			c-4.3-2.1-9.1-3.2-13.6-4.9c-30.8-11.5-51.2-33.3-63.2-63.5c0,0,0,0,0-0.1c-0.5,0.2-1,0-1.4-0.5c-0.8-1.3-1.6-2.6-2.4-3.9V1024
			h357.5C353.6,1016.5,350.5,1008.5,348.3,1000.4z"/>
		<path fill="#FFFFFF" d="M359.3,1.9c0.5-0.6,1-1.3,1.6-1.9H176.2c0.1,2.2,0.2,4.4,0.3,6.6c0,0.2,0,0.3-0.1,0.5
			c1.4,8,5.8,14.1,14,17.9c3.7,1.7,6.5,4.6,9.1,7.7c6.6,7.7,11.5,16.8,14.5,26.5c2.7,8.8,8.3,16.5,16,21.6c4.3,3,8.5,6.2,11.1,10.6
			c3,5.2,5.9,4.4,10.3,1.8c21.9-13,42.3-28.2,64-41.6c6.9-4.2,12.8-9,16.7-16.5c2.4-4.7,6-8.7,9.2-13c5.2-6.9,11.6-12.7,17.6-19
			C358.9,2.7,358.9,2.3,359.3,1.9z"/>
		<path fill="#6F3134" d="M736.7,170.5C719.4,116.2,703,61.5,683,8.1c-0.9-2.2-2.2-4.2-2-6.7c-0.3-0.4-0.5-0.9-0.8-1.4h-174
			c0.4,0.3,0.9,0.6,1.3,0.9h2.5c0.4,0.5,0.8,1.1,1.2,1.5c1.6,1.5,3.1,3.1,4.6,4.6c0,0,0,0,0.1,0c0.1,0.1,0.2,0.2,0.3,0.3
			c21.2,20.8,41.9,42,62.4,63.4c1.4,1.4,3,2.6,4.8,3.4c10.7,5.7,22.2,9.8,34.1,12.4c6.8,1.5,12.5,4.4,17.1,9.6
			c3.8,4.4,8.3,5.9,13.9,3.5c4.7-2,8.8-0.5,12.5,2.5c2.9,2.5,5.4,5.5,7.2,8.9c5.6,9.5,11.9,18.5,18.4,27.4c4.4,6.1,8,12.7,10.6,19.7
			c5.8,16,12.2,31.7,19.4,47c4.3,9.3,6.8,19.2,7.5,29.4c0.7,9.3,1.5,18.6,0.9,28c-1.2,20.6,7.7,38,17.6,55.6
			c9.8-14.5,19.2-28.6,28.8-42.5c1.7-2.4,2-4.3,0.8-7.1C759.1,236.3,747.3,203.6,736.7,170.5z"/>
		<path fill="#20020C" d="M793.5,166.7c6.4-39.6,16.5-78.4,23-118c2.4-14.7,5.3-29.2,7.1-44.1c-0.4-0.2-0.8-0.5-0.8-1.1
			c0-1.2,0-2.4,0-3.5H683c0.4,0.7,0.9,1.4,1.4,2.1c0.5,0.7,0.1,1.4-0.5,1.7c12.5,34.2,24.5,68.6,35.3,103.3
			c16.2,52.1,32.3,104.2,52.9,154.8c0.7,1.8,1,3.8,3.2,5.7c2.6-11.4,5.2-22.4,7.6-33.4C787.7,211.9,789.9,189.2,793.5,166.7z"/>
		<path fill="#20020C" d="M1011.1,0.8h1c-0.9,2.6-3.1,4.3-4.8,6.3c-11.7,13.7-23.6,27.2-35.2,40.9c-33.7,39.6-65.7,80.5-99.8,119.7
			c-30,34.4-60.7,68.2-92,101.4c-1.7,1.8-2.8,3.2-1.3,5.9c1.5,2.7,3,0.7,4.1,0.3c79.6-29.3,161.2-52.6,241.1-81.1V0h-12.5
			C1011.5,0.3,1011.3,0.5,1011.1,0.8z"/>
		<path fill="#20020C" d="M781.9,264.1c32.2-34.2,63.7-69.1,94.4-104.6c37.9-43.9,73.5-89.7,111.5-133.5
			c5.9-6.9,12.1-13.3,17.6-20.4c-0.2-0.3-0.3-0.8,0-1.2c1-1.5,2-3,3.1-4.4H825.3c0,0.3,0,0.6,0,0.9h1.7c-0.3,1-0.5,1.9-0.7,2.9
			c-4.4,28.8-9.3,57.4-15.1,86c-5.7,27.9-12.2,55.5-16.3,83.7c-3.6,25.4-7,50.7-12.8,75.7c-1.4,6.3-4,12.3-3.8,18.9
			C779.5,266.7,780.6,265.4,781.9,264.1z"/>
		<path fill="#6F3134" d="M515,9.3c-0.1,0-0.2-0.1-0.3-0.2c-4.2-3.2-8.5-6.2-12.9-9.2H364c-0.3,0.3-0.6,0.7-0.8,1h1.8
			c-3.9,4.1-8.6,7.2-11.8,11.9c36.8,24,74.4,46.6,113,67.5c2.5,1.6,5.6,1.8,8.4,0.7c12.9-4.7,26.4-7.1,40.1-7.3
			c8.4-0.1,16.7-0.8,24.6-3.9c2.7-0.9,5.5-1.3,8.3-1.1c8.7,0.1,17.6-1.8,26,2.2c0.4,0.2,0.9-0.1,1.4-0.2c-1.1-1.4-2.2-2.9-3.4-4.1
			C553,47.3,534.1,28.2,515,9.3z"/>
		<path fill="#D8E0EF" d="M188.4,26.2C179.7,22,175.2,15.5,174.2,7c-0.1-0.1-0.1-0.3-0.1-0.4c0-0.4,0-0.8-0.1-1.3c0-0.2,0-0.4,0-0.6
			c-0.1-1.6-0.2-3.1-0.2-4.7H0v594.7c0.3-0.9,0.7-1.7,1-2.6V590c8.8-22,22.3-41.4,35.9-60.4c19.5-27.1,44.2-49.4,72.6-67.1
			c22.3-13.9,43.8-29.1,66.5-42.5c2.6-1.5,2.7-3,2.2-5.6c-5-26.2-13.4-51.5-19.8-77.3c-3-12.1-6.4-24.1-9.5-36.2
			c-1.1-4.4-3.2-5-6.6-2.4c-7.7,5.7-16,10.1-25.5,12.1c-3.9,0.8-7.1,3.6-10.5,5.6c-5.8,3.4-11.7,3.9-17.4,0
			c-4.2-2.8-8.7-4.9-13.5-6.2c-2.2-0.6-4.8-1.3-5.2-4.1c-0.3-2.5,2.3-3.4,3.8-4.9c0.3-0.4,0.7-0.7,1.2-0.9c4.8-1.6,4.5-4.8,4.2-9.3
			c-0.5-7.4,1.5-14.7,5.5-20.8c3.4-5.3,3.3-10.4-0.3-14.8c-12.4-15.3-17-33.2-18.7-52.2c-0.1-0.5-0.3-0.9-0.5-1.3
			c-3.5,2.5-4.3,6.5-6.5,9.6c-1.1,1.5-1.8,4.3-4.2,3.4c-2.8-1-1.5-3.6-0.9-5.6c4.9-17.5,7.8-35.4,8.7-53.6c-0.1-1.3,0.4-2.6,1.4-3.5
			c5.9-4.8,11.6-10,17.8-14.4c12.5-9,22.6-20.1,31.3-32.7c9.3-13.4,19-26.5,28.9-40.4c-32.4,7.8-64.5,14.1-96.3,21.9
			c0.8-2.1,2.4-2.2,4-2.7c29-8,58.8-13,87.8-20.9c21.4-5.8,42.5-12.4,63.7-18.5c3.2-0.9,3.2-1.9,1.5-4.3
			C198.7,34.5,194.6,29.3,188.4,26.2z M70.3,134.9c0.9,0.8,1.7,1.5,2.5,2.2c-0.5,1.5-1.2,2-2.3,1c-1.1-0.9-2.3-1.9-3.5-2.9
			c-11.2-9.7-21.2-20.6-29.8-32.7c-0.7-1-2.9-2.4-1.3-3.7c1.6-1.3,2.3,1.1,3,2.1C47.9,113.5,58.4,124.9,70.3,134.9z"/>
		<path fill="#E1D1F2" d="M477.6,909.9c2.3-19.7,7-39,7.3-58.9c0.3-25.2,2.3-50.3,6.2-75.1c0.4-2.7,1.8-5.7-2.6-6.5
			c-3.9-0.8-7.7-4.2-11,1.7c-9.6,16.9-20,33.4-29.5,50.4c-12.3,22.1-29.7,41.1-38.9,65c-0.2,0.5-0.5,0.9-0.8,1.3
			c-1.7,2.6-3.9,4.8-6.9,2.3c-2.3-1.9-6.4-3-3.6-8.2c8.9-16.3,19.4-31.5,29.6-46.8c11.7-17.4,22.8-35.2,33.3-53.4
			c2.3-4,5.7-8,2.3-13.2c-0.2-0.7-0.2-1.4,0.1-2c1.1-3.1,0-6-0.3-9.7c-1.4,1.2-2.9,2.4-4.5,3.5c-3.3,2-5.8,0.4-7.6-2.4
			s-0.8-4.8,2-6.1c3.4-1.5,5.9-4.5,6.8-8.1c1.2-3.9,4-6.9,7-9.5c3.8-3.2,7.3-6.8,10.4-10.7c2.8-3.8,6.9-5.1,11.6-4.1
			c4.1,0.8,8.4,0.9,12.5,0.4c-0.5-2.5-1.4-4.8-0.9-7.4c2.1-10.2,4.7-20.3,5.7-30.7c2.5-26,4.6-52.1,9.3-77.8c0.4-2,2-4.8-2-5.3
			c-3.1-0.4-6.9-1.4-8,2.8c-1.4,5.1-5,8.6-7.6,12.8c-3.4,5.3-7.8,9.1-14.4,9.8c-3.6,0.3-6.7,2.4-8.5,5.4c-1.6,2.5-3.7,4.8-6.5,5.2
			c-7.7,1-11.5,5.7-13.8,12.5c-0.7,2.2-2.3,4.1-3.3,6.2c-9.7,19.6-23.1,37-34.4,55.6c-19.6,32.5-39.1,65.1-52.8,100.7
			c-4.7,12.2-9.3,24.4-10.8,37.5c-0.3,2.6-1.2,6.2-4.9,5.9c-3.2-0.2-3.6-3.5-4.2-6.1c-1.9-8.5-2.4-17.1-2.9-25.8
			c-1-17.9,2.9-35.1,6.5-52.4c1.9-9.3,4-18.7,6-28c-1.1,0.3-2,1-2.7,1.9c-16.8,19.6-22.5,43.9-28.5,67.9
			c-6.5,26.2-1.7,52.3,2.6,78.3c1.9,11.4,7.6,21.8,9.2,33.1c3.4,22.9,9.9,45.2,14.1,67.9c0.6,3.1,0.8,6.3,4.6,7.6
			c0.8,0.3,1.9,1.9,0.4,2c-4.4,0.4-1.7,2.8-1.4,4.2c1.7,7.1,5.4,13.5,7.9,20.4h116.2C470.4,985.9,473.1,947.9,477.6,909.9z"/>
		<path fill="#6F514A" d="M706.7,495.4c-11.4-17.2-19.2-35.8-24.2-56.5c-2.7,4.2-4.8,7.4-6.8,10.6c-0.7,0.8-1,2-0.6,3.1
			c5.5,15.2,13.2,29,24.2,41C701.2,495.7,703.3,496.6,706.7,495.4z"/>
		<path fill="#7C62A0" d="M649,494c-1.2,0-1.6,1.1-2.1,1.9c-14.2,20.3-28.8,40.4-40,62.6c-4.2,8.3-4.3,8.2,4,12.9
			c2.1,1.2,3.1,1,4.4-1c3.6-5.4,7.6-10.5,11-16.1c12.9-21.1,24.1-43.4,44.8-59.9C662.9,492.1,655.9,493.9,649,494z"/>
		<path fill="#20020C" d="M698,495.6c-11.2-12.1-19.8-26.5-25-42.2c-8,13.2-15.3,25.4-23,38.1c5.8-0.7,11.7-0.9,17.5-0.5
			c5.9,0.3,11.3,2.7,17,4C688.9,496,693.5,496.2,698,495.6z"/>
		<path fill="#6F4D3F" d="M642.3,150.3c7.4,11.7,12.8,24.5,16,38c6.7,28.3,4.8,57.6,10.6,86c1.6,7.8,1.9,16,4.4,23.5
			c4,12,3.2,23.5-1.8,35c-2.4,5.5-3.4,11.3-2,17.1c4.2,18.3,0.5,35.3-8,51.6c-0.7,1.3-1.7,2.6-1.3,4.2c2.9,11.2,6.3,22.3,10.3,33.2
			c1.5-2.4,2.3-4.3,3.6-5.7c5.2-6,5.8-12.6,3.5-19.9c-1.5-4.2-2.4-8.6-2.7-13c-0.3-4.5-1.1-8.8-2.5-13.1l0,0
			c-0.3,0.4-0.5,0.8-0.8,1.2c-0.7,0.8-1.1,2.7-2.3,2c-1.9-1-0.1-2.2,0.4-3.3c0.4-0.7,0.8-1.5,1.3-2.1c8.7-14.9,14.3-31.5,16.2-48.7
			c1.4-12.2,1-24.6,2.5-36.9c1.9-13.4,1.5-27-1.2-40.2c-4.3-19.7-12.3-38.5-23.6-55.2c-0.6-1-2.4-2.1-0.8-3.3c1.3-1,1.9,0.8,2.4,1.6
			c15.9,23.7,26,49.4,26.7,78.3c0.3,11.2-1.7,22.2-2.3,33.4c-0.6,10.8-0.5,21.7-2.7,32.3c-0.8,3.6-2,7-2,10.8
			c-0.2,13.2-2.6,26.2-7.1,38.6c-0.6,1.8-1.8,3.6-0.7,5.7c1.9-0.4,2.5-2.2,3.4-3.5c12.1-16.7,19.8-35.3,24.6-55.3
			c5.7-23.9,10.3-48.1,6.2-72.7c-6.9-41.7-20.4-81.3-43-117.3c-4.2-6.6-8.1-13.4-11.7-20.4c-9.6-19.7-25-32.9-45-41.2
			c-1.2-0.5-3-0.7-3.6-1.6c-3.3-5.3-9.3-4.5-14.5-7.4c5.6,9.8,11.9,19.2,18.8,28.1C623.7,123.1,633.6,136.3,642.3,150.3z"/>
		<path fill="#E1D1F2" d="M538.1,586c-7.5-15.9-8.5-33.4-12.4-50.2c-3.4-14.9-6.7-29.8-11.4-44.4c2.4,10.2,0.1,20.2-1,30.3
			c-0.4,2.8-0.4,5.7,0,8.5c3.5,22.3,5.4,45,16.6,65.9c2.3-2.1,4.8-4.4,7.3-6.5C538.2,588.4,538.9,587.7,538.1,586z"/>
		<path fill="#20020C" d="M715.4,496.9c18.6,3.1,33.3,12.2,41.9,29.6c4.9,9.8,9.7,19.7,14.4,29.6c1.9,4,4.4,8.2,4.8,12.5
			c1.4,12.8,3.8,24.9,9.7,36.7c3.8,7.5,5.4,16.4,8.9,24.3c4,9,6.7,18.5,8,28.2c0.4,3.4,1.8,5.1,5.3,5.9c15.1,3.4,30.2,6.5,45.6,8.6
			c4.1,0.5,6.5,0.7,5.1-3.5c-1.7-16.9-5.1-33.5-10-49.7c-9.1-29.3-16.7-58.9-19.1-89.6c-0.1-1.7-1.1-2.3-2.1-3
			c-28.7-20.1-55.2-43-82-65.5c-16.2-13.5-31.9-27.4-43.9-44.8c-1.6-2.3-2.6-2.5-4.2,0c-3.5,5.3-7,10.5-10.9,15.6
			c-2.3,3-2.5,5.9-1.6,9.3c4.4,17.8,11.6,34.8,21.4,50.3C708.9,494.8,711.4,496.3,715.4,496.9z"/>
		<path fill="#241C2C" d="M694,404.9c-1.3,2.1-2.3,3.7-3.3,5.4c-7,11.5-14,23.1-21,34.6c-7,11.4-14,22.6-21,34
			c-6.8,11.2-14.1,22.1-21.2,33.1c-10.1,15.7-19.8,31.6-28.9,47.9c-0.7,1.3-3.8,3-0.7,4.8c2.8,1.6,3.6-0.8,4.6-2.7
			c7.4-14.9,15.9-29.3,25.4-42.9c12.9-18.2,25.4-36.7,36.6-56c9.3-16,19.4-31.5,30.4-46.4C698.2,412.2,698.5,408.9,694,404.9z"/>
		<path fill="#241C2C" d="M775.5,281.1c0.3-0.4,0.5-0.9,0.6-1.4c0.6-1.5,1.5-3.5-0.2-4.4c-1.6-0.8-2.4,1.4-3.2,2.5
			c-9.1,13.4-18,26.8-27.2,40.1c-2.1,3-1.4,5.1,1,7.5L775.5,281.1z"/>
		<path fill="#6F514A" d="M789,391.2c13.3,17.5,27.1,34.6,40,52.4c13,18.1,30.5,32.4,50.7,41.8c15.5,7.3,30.9,14.9,45,24.8
			c7.5,5.3,15.4,9.9,23.6,13.9c9.9,4.8,19.6,10.2,27.1,18.5c9.2,10.3,19.2,19.9,29.9,28.7c5.5,4.6,9.9,10.3,14.2,16.1
			c0.8,1.1,1.3,2.7,3,3.3c1.5-8-0.9-15.2-4.3-21.9c-7.3-14.6-17.3-27.8-29.4-38.8c-33.1-30.6-69.7-56.2-109.3-77.7
			c-34.2-18.5-67.1-38.6-94.2-67C785.6,387.7,787.6,389.3,789,391.2z"/>
		<path d="M635.6,100.4c-5.6-5.7-11.4-11.2-20.2-11.4C622.1,92.8,628.8,96.6,635.6,100.4z"/>
		<path fill="#949D75" d="M72.8,746.3c2.9,2.8,6.3,5.1,10,6.5c9.2,3.6,19.1,4,28.6,5.9c8.5,1.7,17.2-0.9,25.7-2.3
			c16.3-2.8,28.5,2.4,37.6,17.1c0.1-5.3-1.5-10.5-4.6-14.9c-0.8-1-1.5-2.2-2-3.4c-5.2-13-14.2-21.8-28.2-24s-28-3.9-42.1-5
			c-16.6-1.3-32.8-3.3-47.4-12.1c-1.2-0.7-2.2-2.1-4.2-1.7c6.4,10,14.2,18.6,21.1,28C69.1,742.5,70.9,744.5,72.8,746.3z"/>
		<polygon points="784.3,384.2 784,383.9 783.9,383.7 784,384 		"/>
		<path fill="#392A23" d="M510.7,479.8c-2.5-12.5-6.7-24.7-12.6-36c-2.2-4.1-4.6-6.1-9-7s-8.8-2.4-12.1-5.5
			c-5.5-5.4-12.3-9.1-18-14.2c-3-2.6-5.7-4.9-10-3.1c-1.5,0.4-3,0.3-4.4-0.4c-9.1-4.2-19.5-3.3-28.6-7.4c1.8,5.6,6.3,9.1,10.6,12.7
			c7.4,6.2,13.1,13.5,15.5,23.2c1.1,4.7,3.7,9,6,14.2c3.5-8,3.8-15.5,3.5-23.1c5,6-0.5,14,4.6,20.1c4.6,5.6,8.6,11.6,14.4,17.7
			c-2-9.7-4.8-18-3.8-26.9c10.6,16.4,18.5,34.4,33.5,47.6c0.3-0.6,0.6-0.8,0.5-1.1c-1.2-6.8-3-13.3-8.5-18c-1.2-0.7-1.6-2.2-1-3.4
			c0.4-0.9,1.2-1,2-0.3c5.7,5.2,13.5,7.8,17.3,15.1C511.2,482.7,511.1,481.2,510.7,479.8z"/>
		<path fill="#3F2325" d="M190,128.3c-9.1,6.9-20.5,10.4-31.9,9.7c-15.4-0.8-30.1,2.1-44.6,7c-1.1,0.4-2.6,0.1-3.1,1.9
			c4.9,1.1,9.7,0.8,14.5,0.6c9-0.3,18-0.3,26.9-1.5c0.9-0.1,2.1-0.4,2.7,0.6c0.6,1-0.4,1.9-1.2,2.4c-7.7,5.2-9.1,14.3-13.8,21.6
			c7.7-0.6,13.9-4.4,19.2-11.7c4.3-5.9,8.8-11.5,16.1-13.6c5.8-1.6,11.2-4.3,16-7.8c2.5-1.8,5.4-3.2,8.4-1.5
			c6.4,3.9,12,1.4,17.1-2.2c12.4-8.7,25.6-16.1,38.9-23.2c12.1-6.5,23.8-13.5,32.3-24.6c0.5-0.7,1.2-1.2,1.7-1.8c1-1.1,1.9-1,3,0
			s0.9,2-0.1,3s-1.9,1.8-3,2.7c-17.6,14.8-24.5,36.1-34.4,55.7l1.6,0.9c4.8-7.9,9.4-16,14.6-23.8c12-17.8,23.5-36.1,39.5-50.7
			c7-6.4,9.6-14.2,13.2-22.3c-2.3,0.1-3.4,1.4-4.7,2.3c-15.8,10.4-31.6,21-47.5,31.4c-10.7,7.1-21.4,14.5-33.4,18.9
			C220.9,108.7,204.7,117.4,190,128.3z"/>
		<path fill="#241C2C" d="M508.2,711.9c2.8,2.1,3-0.9,3.9-2c18.9-26.2,33.2-55.2,51.1-81.9l0.2-0.1L563,628c-5.5,5-11.7,9-15.9,15.5
			c-13.6,21.1-25.1,43.5-39.4,64.2C506.5,709.5,506.4,710.6,508.2,711.9z"/>
		<path d="M615,593C615,592.9,615,592.9,615,593L615,593C615,592.9,615,592.9,615,593L615,593z"/>
		<path fill="#6979A3" d="M584.8,597c4.1,2.9,7.9,5.8,10.7,10.2c3.1-3.2,2.8-6,0.5-9.3C592.5,593.1,588.7,596.3,584.8,597z"/>
		<path d="M545.1,641.9c0.1,0,0.2,0,0.2-0.1c0,0,0-0.2,0.1-0.3L545.1,641.9z"/>
		<path fill="#6979A3" d="M580.1,614.2c-4-0.6-6.4-3-8.8-5.9c1.3,4.9,1.7,10,6.1,13.2c0.9-1.6,1.3-3.4,3-4.5
			C582.3,615.9,582.3,614.5,580.1,614.2z"/>
		<path fill="#550000" d="M473.9,731c-5.1,3.9-10.4,7.7-12.5,14.1c-1,3.5-3.4,6.5-6.7,8.2c-1.4,0.7-3.5,1.3-1.8,3.6
			c1.4,1.8,3,2.5,5,0.7c2.8-2.4,6-4.3,5.1-9.1c-0.6-2.9,1.6-5.2,3.5-7.4C469.2,737.9,472.6,735.3,473.9,731z"/>
		<path fill="#C79499" d="M505.7,719c1.5,0,3.7-0.6,3.5-1.9c-0.4-2.2-2.5-3.6-4.4-4.8c-1.2,0.7-2.9,0.8-2.5,2.6
			C502.6,716.8,503.2,719,505.7,719z"/>
		<path fill="#E1D1F2" d="M508.2,702.9c10.3-15.3,19-31.6,28.7-47.3c2.7-4.5,6-8.6,8-13.5c-6.9,4.1-13.9,7.1-22.3,6.1
			c-8.8-1.1-11.8,1.7-12.3,10.5c-0.8,12.4-1.6,24.8-4.8,37c-1.2,4-1.6,8.3-1,12.5C506.1,705.8,507.2,704.3,508.2,702.9z"/>
		<path fill="#E1D1F2" d="M385.3,687.1c14.1-7.8,27.2-17.4,41.7-24.6c6.8-3.4,6.6-3.7,2.2-9.6c-0.3-0.4-0.6-0.8-0.8-1.2
			c-3.2-9-6-17.9-6.5-27.6c-0.4-9.2,1.2-18.1,2.9-27c-13.8,18-25.1,37.8-33.4,58.9c-4.1,10.1-8.6,19.7-14.9,28.6
			c-14.6,20.5-30.9,39.6-48,58.1c-28.6,31.1-29,62.6-11.5,100.1c-0.2-12,0.6-23.5,3.4-34.6s6.4-22,9.8-33
			c4.2-13.4,11.3-25.7,20.7-36.1c2.6-2.9,4.5-6.5,5.3-10.4C360.2,711,369,696.1,385.3,687.1z"/>
		<path fill="#E1D1F2" d="M477.5,582.8c1.6-11.4,3-22.8,1.5-34.3c-0.4-3.2-0.4-4.8-4.1-2.4c-4.5,2.8-9.2,5.3-14.1,7.5
			c-6.4,3.2-12.8,6.4-18.4,11c-6.5,5.3-10.9,11.7-11.2,20.3c-0.2,3.5-1,6.9-2.5,10c-3.4,8-4.4,16.3-4.6,24.9
			c-0.2,4.5,0.2,9,1.2,13.4c1.4,7,3,14,7.5,19.9c2.1,2.8,4.1,3.8,7.2,1c5.7-5.1,11.3-10.2,16.5-15.8c6.2-6.7,16.1-10,23.4-16.3
			c0.1-0.1,0.3-0.1,0.5-0.1c3.5-0.3,3.4-1.9,2-4.6C477.1,606.4,475.8,594.9,477.5,582.8z"/>
		<path d="M618.8,596.9c-0.2-0.3-0.3-0.5-0.5-0.8C618.2,596.5,618.4,596.7,618.8,596.9z"/>
		<path fill="#241C2C" d="M468.8,774.9c0,0.7-0.1,1.6-0.7,1.6c-3.6-0.3-3.4,3-4.5,4.8c-2.5,4.1-4.3,8.7-7,12.6
			c-14.3,21.1-26.8,43.2-41.7,63.9c-5.1,7.1-9,15.1-13.6,22.7c-1.9,3.1-2,6,1.3,7.6s4-2,4.9-4c3.8-7.7,6.6-16,11.8-23
			c14-18.9,25.5-39.4,37.6-59.4c7-11.5,13.5-23.3,20.5-35.3C470.6,767.1,469.1,768.7,468.8,774.9z"/>
		<path fill="#E1D1F2" d="M359,726.8c-3.2,12.9-5.8,26-8.6,39c-4.7,22-9.5,44-6.3,66.7c0.8,6,0.6,12.5,3.8,18.4c2.3-2,3.6-4.9,3.5-8
			c-0.3-3,0.5-5.5,1.2-8.2c4.5-16.2,10.5-31.9,17.7-47.1c17.3-36.2,37.3-71,60-104.1c7.1-10.4,12.7-21.6,18.6-32.6
			c-18,13.5-37.9,23.6-57.1,34.7C375.2,695.3,363.6,708.1,359,726.8z"/>
		<path fill="#C79499" d="M523,645.8c6,1,12.2-0.3,17.1-3.8c8.4-6,17.6-10.9,24-19.3c0.4-0.6,1.2-0.7,1.8-0.3l0.1,0.1
			c2.2,7.9-6.2,11.5-8.1,18.2c4-0.6,7.2-1.2,10.5-1.6c1.9-0.1,3.5-1.3,4.1-3.1c0.8-2.4,1.8-4.7,3-6.8c1.2-2.3,1.1-4.6-0.8-6.5
			c-3.6-3.6-4.7-8.3-6-13c-0.5-1.6-2-3.8,0.4-4.8c2.1-0.9,3.8,0.7,5,2.4c1.3,2,2.7,3.6,5.2,4.3c6,1.7,6.3,3.1,2,7.9
			c-2.3,2.6-1.1,5.2,0.8,7.1c2.3,2.4,3.3-0.4,4.6-1.7c2.9-3,3.8-7,5.8-10.4s1.2-5.9-1.1-8.6c-1.5-1.8-3.3-3.3-5.3-4.5
			c-2.9-1.3-5.2-3.9-6-7c-1.3-4.6-4-7-10.4-5.6l0,0c4.3-4.1,9.1-3.4,11.1,1.3c1.8,4.2,4.1,4.3,7.7,3.3c3.8-1.1,7.3-0.5,9.5,3.3
			c2.5,4.2,4.9,8.3,10.2,9.5c1.3,0.3,1.7,1.9,2.4,3.1c2.6,4.9,7.5,6.4,12.3,7.5c2.4,0.5,4.8-0.8,5.7-3.2c1.1-2.5-0.9-3.6-2.4-4.9
			s-3.2-2.9-4.7-4.4c-6.2-6.5-11.7-13.7-16.2-21.5c-2.3-4.1-5.8-5.8-10.5-4.3c-2.9,1-5.6,0.1-8.2-1.2c-0.9-0.5-2.6-0.7-1.8-2.3
			c0.6-1.3,1.8-0.3,2.6,0.1c2.8,1.6,5.7,1.5,8.7,0.8c3.5-1,7.2,0.3,9.3,3.3c3,4.2,7.3,7.2,10.5,11.3c3.5,4.3,8.3,6.5,13.2,8.7
			c1.4,0.6,2.9,1.3,4-0.3c1.4-1.9-0.9-2.5-1.6-3.6c-3.1-4.9-8.9-7.7-11-13.4c-0.9-2.7-2.9-4.8-5.6-5.8c-2.6-1.1-5.1-2.5-7.4-4.1
			c-4.1-2.9-8.8-4.8-13.8-5.5c-13.6-1.6-26.7,0.4-37.4,9.2c-9.3,7.5-18.2,15.6-26.5,24.2c-3.1,3.3-5.6,8.2-11.6,7.3
			c-1.8-0.3-1.3,1.7-1.4,2.6c-1,5.2-1.7,10.5-2.7,15.7c-1.6,7.7-2.6,15.5-3,23.4C515,645.2,518.8,645.2,523,645.8z"/>
		<path fill="#E1D1F2" d="M526.2,594.9c-3.5-11.7-9.6-22.7-10.8-35.2c-0.6-6.3-1.6-12.5-2.8-18.7c-1.7-8.3-2-16.9-0.8-25.3
			c0.8-5.6,2.1-11.3,0.7-18.4c-1.8,4.3-3.2,7.5-4.4,10.7c-1.7,4.6-3.5,9.1-7.8,11.8c-4.7,3-7.8,6.5-5.6,12.5c0,0.1-0.5,0.3-0.8,0.6
			c-1.8-0.5-1.1-2.9-2.8-3.9c-2.4,3.7-4.2,7.7-7.5,10.5c-2.3,2-2.8,4.2-2.4,7c1.4,10.9,1.1,22-0.8,32.8c-2,12.4-1.7,24.5,3.9,36.1
			c2.5,5.3,4.6,5.8,8.4,1.1c3.9-4.9,8.3-9.5,10.1-15.8c0.8-2.7,2.6-4.5,5.3-4.7c6.2-0.3,12.2,0.4,17.1,4.9
			C527.9,599.3,526.9,597.1,526.2,594.9z"/>
		<path fill="#E1D1F2" d="M524,602.2c-2,0.3-6.4-6.3-5.9,1.9C520.8,605.7,522.5,604.5,524,602.2z"/>
		<path fill="#20020C" d="M887.8,572.6c2,6.5,3.8,12.7,5.8,18.8c8.8,27.7,20.7,54.4,28,82.6c0.8,3,2.6,2.8,4.8,2.9
			c15.8,1.1,31.6,1.1,47.2,4c8,1.6,16.1,2.5,24.9,1.4C987.3,662.8,902.7,578.9,887.8,572.6z"/>
		<polygon points="737.4,777.4 737.2,777.8 737.9,777.9 		"/>
		<path fill="#475069" d="M871.9,676.6c-6.5-0.4-12.9-1.2-19.4-2.1c-15-2-29.8-4.9-44.5-8.5c-1.4-0.3-3.8-2.2-3.5,1.7
			c0.9,11.6,0.8,23.3,3.4,34.8c4.5,19.9,9.9,39.7,14,59.7c5.2,24.8,8.4,49.7,4.8,74.9c-5.6,39.5-11.1,79.1-23.5,117.3
			c-0.4,1.3-2.6,3.8,0.3,4.5c2.6,0.6,5.2,5.6,8.3,0.5c1.2-1.9,4.7-2.3,5-0.7c1.1,5.9,5.1,7.5,9.9,8.7c0.5,0.1,0.8,1,1.2,1.5
			c1,1.2,2.4,1.9,3.9,1.9c4.9-0.3,7.2,2.5,8.7,6.6c0.9,2.5,3.2,5.2,5.4,4.1c6-2.9,11,0,16.2,1.7c2.3,0.7,4-0.4,5.5-1.5
			c3-2.3,5.3-2.3,7.5,0.9c1.9,2.7,4.2,3.1,6.5,0.4l0,0c-4.7-4-6.3-9.6-7.5-15.2c-0.7-3.2-2-6.8-1.3-9.8c1.1-4.6,3.5-9,5.7-13.2
			c13.7-26.3,32.2-48.9,53.5-69.2c2.7-2.6,3.2-4.9,2.3-8.3c-2.7-10-5.1-20-7.7-30c-13.6-52.8-30-104.9-49-156.1
			C876.7,677.9,875.1,676.8,871.9,676.6z"/>
		<path fill="#8C6254" d="M508.2,823.2c1.8-0.9,1.7-2.3,1.6-3.7c0-8.6-0.7-17.3,0-25.9c0.2-1.2-0.2-2.3-0.9-3.2
			c-4.1-4.8-8-9.7-10.6-15.6c-0.6-1.3-1.8-2.7-3.5-2.4s-1.3,2.2-1.4,3.4c-1.5,11-3.1,22-4.2,33.1c-0.7,8.2-1.9,16.4-1.1,25.1
			C495.1,830.1,501.6,826.6,508.2,823.2z"/>
		<path fill="#6979A3" d="M825.8,815.2c0.6-30.7-7.5-60-14.6-89.3c-4-16.6-7.8-33-8.5-50c-0.6-14.9-2.8-29.7-8.9-43.6
			c-4-8.8-7.2-17.9-9.7-27.3c-0.8-3.1-0.9-3.1-3.8-5.7c3.2,21.2,5.2,42.7,5.9,64.1c0.6,25.5-1.1,51-5.2,76.1
			c-1.8,11.1-5.3,21.7-12,30.9c-6,8.3-14,11.4-24.1,9c-2.2-0.5-4.4-0.9-6.6-1.3c6.6,4.6,13.9,8.1,21.7,10.2
			c16.6,4.6,28.5,15.5,39.1,28c9.7,11.4,14.1,25.5,18,39.7c0.7,2.7,1.1,5.6,3.2,8.6C823.6,848.3,825.4,831.8,825.8,815.2z"/>
		<path fill="#20020C" d="M886.3,575.1c-1.1-4.6-3.9-8.6-7.8-11.2c-14.5-10.6-28.9-21.4-43.4-32c-0.7-0.5-1.4-1.5-2.7-0.8
			c1.8,19.3,5.3,38.5,10.3,57.2c6.6,24.2,14.9,48,18,73c0.5,3.9-0.6,8.8,2.2,11.4s7.7,1.3,11.6,1.6c14.9,1,29.8,1.6,45.3,2.4
			c-3.7-14.3-8.2-28.4-13.4-42.2C899.1,615,891.7,595.4,886.3,575.1z"/>
		<path fill="#6F514A" d="M1015.1,687.2c-2.9-5-6.2-5.4-10.8-2.7c5.7,8,11.4,15.8,16.9,23.9c1.4,2,2.1,1.5,2.8,0.6v-9
			C1021.4,695.5,1017.7,691.7,1015.1,687.2z"/>
		<path fill="#6F514A" d="M1008.7,675.7c-7.3-21.2-18.8-40.2-33-57.3c-25.2-30.4-50.6-60.7-76.7-90.3
			c-31.8-36.1-64.3-71.6-93.2-110.3c-29.1-38.9-57.9-77.8-77.5-122.6c-0.1-0.3-0.7-0.5-1.2-0.8c0,13.3-1.9,26.4-5.7,39.1
			c-2.3-2.5-1-4-0.7-5.6c2.9-13.1,4.9-26.2,3.8-39.6c-0.8-10-2-19.9-2-29.9c0.2-21-1.8-41.6-11.8-60.6c-4.9-9.5-9-19.3-12.3-29.4
			c-3.2-9.3-6.9-18.5-12.6-26.5c-7.1-10.1-14.3-20.1-20.6-30.7c-1.7-2.9-3.9-5.5-6.5-7.5c-2.5-1.8-5.2-3.4-8.3-2.1
			c-4.2,1.7-8.9,2-13.2,0.7c10.2,8.7,18.5,19.4,24.2,31.6c2.6,5.2,5.5,10.3,8.7,15.1c14.5,22,24.7,46,32.7,71
			c6.3,19.7,12.6,39.6,13,60.3c0.8,38.2-6.3,74.8-25.4,108.5c-0.7,1.3-1.3,2.2-0.2,3.9c4.9,7.4,9.2,15.2,14.2,22.5
			c8,11.7,17.5,22.3,28.4,31.5c35.6,30.1,71.1,60.4,109.4,87.2c52.3,36.4,100,79,142.2,126.7c5.5,6.2,10.7,12.8,15.9,19.3
			c2.8,3.6,6,1.2,8.6,0.3S1009.2,677.1,1008.7,675.7z"/>
		<path fill="#AEAFCC" d="M307.4,825.2c-7.5-23.6-6.1-46.2,6.8-67.8c6.2-10.3,14.1-18.9,22.7-27.2c2.2-2.1,2.8-4.1,2-7
			c-1.2-4.5-2.1-9.1-3-13.6c-4.6-22.5-5.3-45.2-6.7-68c-2.1-36.5-2-72.9,5.1-109c9.8-50.1,21-99.9,33.1-149.6c0.4-1.8,1.1-3.6,0-5.3
			c-4.8-7.7-9.7-15.5-14.7-23.3c-0.4,0.3-0.8,0.7-1.2,1.1c-19.2,29.8-39.6,58.9-54.2,91.4c-6.5,14.6-14.3,28.6-23.1,41.9
			c-10.4,15.7-20,31.9-25.9,50s-11.2,36.2-17.6,54.1c-12.7,35.6-25.7,71-25.4,109.7c0.2,19.5-1,38.9,3.5,58.2
			c4.5,19.5,13.6,37.2,22,55c8.1,17.3,16.5,34.5,30,48.7c20,20.8,42.5,39,67.2,54c0.7,0.4,1.4,1.4,2.6,0.8c0.1-0.5,0.1-1,0-1.5
			c-7.4-19.8-10.6-40.5-13.4-61.2C315.8,845.6,310.7,835.7,307.4,825.2z"/>
		<path fill="#475069" d="M882,982.9c10.7-3.5,19-11.8,29.8-15.2c0.6-0.2,1.2-0.6,1.6-1.2c3.6-5.2,9.6-6.8,14.7-9.9
			c7-4.2,12.9-3.2,18.6,1.9c3.7,3.3,8.3,4.7,13.2,5.3c2,0.2,3.2-0.1,2.3-2.7s-1.5-5.4-2.2-8.2c-4-14.6-7.9-29.2-12-43.8
			c-0.4-1.4,0-4.7-3-2.6c-12.8,8.8-27.4,14.4-39.8,23.8c-11,8.4-19.8,18.4-23.2,32.1c-1.5,6.2-5.7,12.7,0.6,18.7
			C882.8,981.5,882.3,982.3,882,982.9z"/>
		<path fill="#C79499" d="M521.8,728.1c-1.9-1.5-3.2-3.8-4.7-5.8c-3.3-4.1-4.9-4.2-8.9-0.7c-0.6,0.6-1.1,1.2-2,1
			c-6.2-1.6-12.6,0.5-18.8-1.2c-3.5-0.9-6.5,0.6-8.8,3.4c-1.5,2-2.9,3.9-4.4,5.8c6.6-1.3,13.2-2.7,20-1c3.8,1,7.2-0.4,9.8-3.5
			c0.5-0.6,1.1-1.5,2-0.8c1.2,0.9,0.2,1.7-0.5,2.5c-2.9,3.6-7.6,5.2-12.1,4.1c-10.1-2.3-18-0.1-24,9.1c-3.8,5.7-5.7,14.4-2.7,20.8
			c0.7-4.2,2.3-8.1,2.3-12.6c-0.1-8.7,5.5-12.9,14.2-11.2c4.2,0.9,8.4,2,12.8,1.3c0.9-0.1,1.7,0.2,1.7,1.6
			c-5.2,2.1-10.3,0.3-15.4-0.7c-7.1-1.3-11.1,2.2-10.6,9.4c4.8-3.6,9.9-2,14.8-0.6c3.9,1.1,7.7,2.2,11.7,0.8
			c0.6-0.2,1.3,0.3,1.3,1.3c-1.8,2-4.4,2-6.8,1.6c-3.9-0.6-7.8-1.8-11.7-2.6c-4.2-0.9-7.1,0.2-9.3,4.4s-1.8,9.3-5.5,12.7
			c-0.4,0.4-0.1,1.5-0.2,3.3c2.3-3.3,4-5.7,5.8-8.1c0.5-0.7,1.4-2.2,2.2-1.1c2.8,3.8,7.2,2.8,10.8,4c7.7,2.6,15.8,4.3,18.7,13.7
			c1,3,3.6,5.7,7.1,8.4c1.3-17.7,4.7-33.9,13.1-48.6C526.4,734.8,526,731.3,521.8,728.1z"/>
		<path fill="#8C6254" d="M508.9,836.7c0.5-3.6,1.3-7.2,0.6-11.1c-6.2,2.2-11.4,5.8-16.9,8.7c-3.8,2-5.4,4.5-5.3,9
			c0.3,16.9-1.9,33.5-4.8,50.1c-3.4,19-5.1,38.2-6.2,57.5c-0.2,3.3,0.3,4.6,3.9,3c6.6-2.8,13.6-4.5,20.7-5.3
			c5.4-0.6,10.8-1.8,16.2-2.6c2.7-0.4,3.4-1.6,2.8-4c-4.5-16.8-6.2-34-8.4-51.1C509,872.9,506.4,855,508.9,836.7z"/>
		<path fill="#76688E" d="M518.4,948.2c-9.8,2.5-20.1,2.5-29.9,5.3c-12.7,3.6-12.7,3.6-13.1,16.6c-0.2,1.5-0.1,3-0.1,4.5h-0.1
			c0,4.3,0.1,8.7,0,13c-0.1,3.2,0.9,3.7,3.8,2.4c7-3.2,13.5-7.3,19.4-12.2c7.5-6.2,15.9-10.2,25.7-10.8c2-0.1,2.6-0.6,2-2.6
			c-1.5-4.6-2.8-9.2-4-13.9C521.5,948.5,520.4,947.7,518.4,948.2z"/>
		<polygon points="727.5,773.7 727.6,773.5 727.4,773.5 		"/>
		<path fill="#E1D1F2" d="M765.4,771c4.4-5.1,7.2-11.1,9.5-17.4c3.2-8.8,3.9-18.2,5.3-27.4c5.3-33.5,4.4-67.1,1-100.6
			c-1.5-14.8-4.1-29.6-5.3-44.5c-0.5-8.3-2.6-16.4-6.2-23.9c-4.8-9.8-9.7-19.7-14.4-29.6c-5.2-10.8-13.5-18.4-24.2-23.6
			c-9.7-4.7-20-5.8-30.6-5.7c-7.5,0.1-15.1,0.3-22.2-2.6c-3.1-1.2-5.2-0.5-7.6,1.7c-11.4,10.3-21.2,22.3-28.9,35.5
			c-6.8,11.8-13.6,23.7-21.7,34.7c-2.3,3.2-6,6.4,0.5,9.1c0.4,0.3,0.7,0.7,0.9,1.2c1.9,7.1,8.4,10.5,12.3,16
			c1.3,1.8,3.2,3.2,1.6,5.6c-1.3,2.3-4.2,3.2-6.5,1.9c-3.3-1.4-6.5-2.9-9.7-4.4c2,3.5,4.6,6.6,7.8,9.2c2.8,2.1,5.4,4.4,3.5,8.3
			c-1.9,4.1-5.8,5.3-9.7,4.1c-5-1.6-10.2-3.3-12.8-8.8c-1.5-3.2-5.5-4.4-8.2-4.3c-1.9,0-3.1,4.2-2.8,7.3c0.5,3.4-0.9,6.8-3.7,8.8
			c-2.1,1.7-3.6,4-4.2,6.6c-3.7,11.9-7.5,23.8-10.1,36c-2.8,13-5.9,25.9-10.5,38.5c-3.8,10.5-6,21.5-6.5,32.7
			c-0.2,4,1.1,5.8,4.9,6.1c12,1.2,23.6,4,35.2,7c5.9,1.5,12,1.7,17.9,3.4c5.7,1.6,11.7-1.6,17.1-4.2c16.4-8,32.7-7,48.9,0.5
			c7.8,3.6,15.5,7.2,23.6,11c-1.9-8.6-5.4-16.9-10.3-24.2c-3.4-5.2-5.8-11-4.2-17c3.2-12.5-1.1-23-7.3-33.1
			c-5.9-9.7-11.6-19.5-17-29.4c-7.9-14.5-13.7-30-17.3-46.1c-0.3-1.2-1.2-2.6,0.7-3.3c1.3,0.8,1.4,2.2,1.7,3.4
			c3.8,17.1,10.2,33.5,19,48.6c6.2,10.8,12.7,21.5,18.6,32.5c4.1,7.6,6.7,15.7,4.3,24.5c-1.7,6-0.6,12.5,2.9,17.7
			c4.8,7.4,8.5,15.5,10.9,24c0.7,2.4,1.5,4.8,3.7,6.3c9.7,6.7,20,12,31.6,14.3C754.4,778.9,760.5,776.7,765.4,771z"/>
		<path fill="#E1D1F2" d="M583.4,638.9c1.5-4.5,4.1-9.1-3.2-10.9c-0.4-0.2-0.8-0.4-1.2-0.6c-1.5,3.4-3.4,6.2-4.3,9.4
			c-0.7,2.3-2.6,4-5,4.3c-3.8,0.7-7.5,1.6-11.3,1.8c-1.8-0.1-3.5,0.9-4.2,2.6c-12.1,23-26.1,44.9-40.7,66.4c-1.8,2.7-1.6,4,1.5,5
			c4,1.3,7.4,3.1,8.8,7.9c0.8,2.6,4.2,3.7,6.7,2.7c4-1.6,6.5,0.3,7.8,3.2c2.5,5.5,6.9,6.9,12.3,7.2c3,0.2,5.8,1.1,8.9,1.7
			c0.3-4.3,0.5-8.5,0.9-12.6c1.3-13.4,6.5-25.7,10.3-38.5C575.6,672.3,578,655.2,583.4,638.9z"/>
		<path d="M469.4,453.5l0.5,0.3C469.9,453.6,469.9,453.2,469.4,453.5z"/>
		<path fill="#700300" d="M453.1,554.9c3.5-1.8,7.2-3.5,10.8-5.2c5.2-2.5,10.2-5.6,14.9-9c5.3-3.9,8.7-9.4,11.2-15
			c1.5-3.5-1.6-7.6-2.3-11.5c-0.2-1.3-0.8-2.5-1-3.9c-0.6-3.7-2.6-6.1-5.7-8.2c-12.8-8.7-24.4-19.1-34.5-30.9
			c-9.6-11.4-19.9-22-30.5-32.4l-0.1-0.2l0.1,0.2c0.5,2.1,0.9,4.2,1.6,6.2c11,34.9,20,70.4,27.5,106.2
			C446.6,558.3,446.6,558.2,453.1,554.9z"/>
		<path fill="#700300" d="M504.4,510.5c1.9-5,4.1-9.8,6.1-14.8c1-2.4,0.9-5-0.2-7.3c-2.2-5.1-6-9.3-10.7-12
			c-0.8,1.2,0.1,2.1,0.5,2.9c2.4,5.2,3.3,10.8,4.4,16.3c0.3,1.3,0.1,2.6-0.9,3c-1.9,0.9-1.3-1.2-1.9-2c-0.7-0.9-1.5-1.8-2.3-2.5
			c-8.3-7.9-15.5-17-21.2-27c-2.6-4.3-4.6-9-7.9-13c-0.2,6.9,2.5,13.2,4.2,19.7c0.3,1.2,2.3,2.4,0.7,3.4c-1.5,1-2.5-1-3.5-1.9
			c-7.1-7-13.3-14.7-18.7-23.1c-1.6,3.1-3.5,5.6-4.1,8.3c-0.7,3.1-2.8,6.5,0.1,9.8c14.8,16.9,32.3,30.2,51.7,41.3
			C502.4,512.7,503.5,512.7,504.4,510.5z"/>
		<path fill="#404958" d="M499.8,516.9c1.6-1.3,1.4-2.4-0.4-3.3c-3.4-1.8-6.8-3.7-10.3-5.6c0,4.9,2.2,9.3,3.5,14.7
			C495.2,520.6,497.6,518.8,499.8,516.9z"/>
		<path fill="#700300" d="M396.1,410.3c-0.2,1.5,0.3,3,1.4,4.1c7.4,8.3,14.8,16.6,22.2,24.9l0,0c-3.4-17.2-11.7-32-20.5-48.2
			C397.9,398.3,397,404.3,396.1,410.3z"/>
		<path fill="#700300" d="M355.1,353c4.3,7.8,9,15.4,14.2,22.7c2.7-9.7,5-18.2,7.3-26.7c0.4-1.3,0.5-2.6,0.1-3.9
			c-2.4-5.1-5.1-10-8-15.6c-4.8,7.2-9,13.8-13.3,20.3C354.6,350.7,354.5,352,355.1,353z"/>
		<path fill="#7C62A0" d="M593.9,563c2.5-4.3,5-8.6,7.4-12.9c-5.7,3.3-11.3,5.9-16.7,8.8c-3.1,1.7-6.8,2.3-9.2,5.2
			c5-0.1,9.9-0.1,14.9-0.3C591.5,563.8,593,564.4,593.9,563z"/>
		<path fill="#7C62A0" d="M606.2,483.2c-0.2-0.1-0.5,0.2-1.1,0.4c0.4,1.2,0.7,2.4,1.4,4.6C607.8,485.6,608.4,484.2,606.2,483.2z"/>
		<path fill="#20020C" d="M681.7,419.7c0.2-0.2,0.6-0.3,0.8-0.5c2.2-3.5,4.3-7.1,6.5-10.7c4.4-7.2,4.3-7.2-1.5-13.6
			C679.4,402,676.7,410.1,681.7,419.7z"/>
		<path fill="#7C62A0" d="M610.6,534.6c3.9-7.4,8.9-14.4,13.4-21.6c4.1-6.4,8.3-12.8,12.7-19.7c-7.4-1.4-14-3.3-20.1-6.8
			c-1.5,1.7-1,4.4-3.3,5.4c-1.6-1.7-0.2-3,0.1-4.3c1.1-5.5-1.8-10.2-6.5-10.3c-1,0-2.5-0.5-2.9,1.1c-0.3,1.3,0.8,1.7,1.7,2
			c5,1.8,5,5.4,2.8,9.2c-5,8.5-8.5,18.1-15.2,25.6c-13.7,15.1-21.4,33.7-30.4,51.6c10.3-5.2,20.8-10.2,30.9-15.8
			C601,547.1,606.8,542,610.6,534.6z"/>
		<path fill="#79534A" d="M434.5,384.7c5.3,8.1,11.2,15.8,17.5,23c1.4,1.5,3.9,0.7,4.4,2.4c1.7,5.5,7.1,6.8,10.8,10
			c-1.2-4.6-3.1-8.9-3.1-13.5c0-2.8-1.3-3.6-3.3-4.7c-9.7-5.1-18.6-11.4-26.6-19C434.4,383.6,434.2,384.3,434.5,384.7z"/>
		<path fill="#C79499" d="M412.2,361.5c-5.3,1.1-5.4,6.5-5.7,10.6c-1.6,24.4,5.9,33.2,24.8,35.6c4,0.4,7.9,1.3,11.6,2.8
			c2.7,1.1,5.6,2.4,8.7,0c-5.9-6.3-11.4-13.1-16.2-20.3c-5-7.2-9.9-14.6-15.3-21.6C418,365.8,417,360.5,412.2,361.5z"/>
		<path fill="#700300" d="M420.8,417.3c2.1,9,3.6,17.1,3.5,25.4c0.1,0.8,0.5,1.6,1.1,2.1c6.4,6.7,12.8,13.5,19.2,20.2l1.5-0.7
			C442.7,446.4,438,429.3,420.8,417.3z"/>
		<path fill="#6F4D3F" d="M382.8,351.7c5.9,11.5,11.5,23.2,17.1,34.9c6.8,14.1,15.5,27.5,20.5,43.9l0,0c0.6-12.9-7-21.3-11.4-30.8
			c-4.9-10.7-6.3-21.3-4-32.5c1-5,3.8-8.6,9.4-8.3c-7.5-19-14.9-37.8-22.2-56.8c-1.3-3.5-2.5-1.3-3.7-0.2
			c-6.2,6.1-12.7,11.8-19.5,17.1c-2.6,1.9-1.6,3.4-0.5,5.5C373.3,333.4,378.1,342.5,382.8,351.7z"/>
		<path fill="#6F4D3F" d="M436,214.4c9.6-50.4,27.7-96.6,69-130.4c-13.2,3.6-25.9,8.7-37.8,15.3c-40.8,22.1-67,55.4-76.6,101.1
			c-2,9.5-2.5,19.1-3,28.8c-1.2,26.5-0.2,52.8,9.1,78.1c4.6,12.5,9.6,24.8,14.5,37.2c3.6,9.1,7.6,18.2,13.9,25.8
			c11.9,14.2,27,25.5,43.9,33.1c9.3,4.3,19.3,7.1,29.4,8.3c-1.3-1-2.6-1.9-4.1-2.7c-12-7.1-23.1-15.5-30-27.9
			c-12.8-23.1-22.7-47.5-28.4-73.3C429.2,276.7,430.2,245.3,436,214.4z"/>
		<path d="M433,381.8l-0.1-0.2L433,381.8l0.3,0.3C433.2,382,433.1,381.9,433,381.8z"/>
		<path fill="#6F4D3F" d="M534.3,101.7c-5.5,34.5-8.6,69.4-9.2,104.4c-0.2,8.2,0.4,16.5,1.8,24.6c2.2,13.6,5,27.1,7.6,40.7l0.6-0.1
			c0.3-1.3,0.6-2.5,0.8-3.8c2.7-16.6,5.4-33.2,8-49.8c1.2-8,4.4-15.7,4-24c-1.3-22.8,0.8-45.3,4.8-67.6c2.7-15.2,3.2-30.4,3.3-45.7
			c0-2.8-0.6-5.6-3.3-6.8s-4.4,1.2-6,2.7C539.4,83.1,535.8,92.7,534.3,101.7z"/>
		<path fill="#FFFFFF" d="M231.1,210.8c0.3,1.3,1,2.4,2.3,1.2c3-2.5,6.7-2.7,10.2-3.7c2.3-0.6,4.3-2.6,2.6-4.7
			c-1.6-1.9-1.7-3.9-1.9-5.9c-1.2-11.4-2.3-22.8-3.4-34.2c-1.3-13-2.6-26-4-39.8c-5,3-9.4,5.6-13.8,8.2c-1.5,0.9-1.7,2.2-1.5,3.8
			c0.8,5.9,1.3,11.9,2.1,17.8c2.4,17.7,8,35,6.9,53.2C230.6,208.1,230.7,209.5,231.1,210.8z"/>
		<path fill="#FFFFFF" d="M265.5,136.3c-1,1.7-0.9,2.8,0.3,4.4c8.7,12.2,17.8,24.1,27.4,35.6c1.2,1.4,2.7,2.5,4.3,3.3
			c2.3,1.3,3.5,0.8,3.6-2.2c0.1-6.2,0.5-12.3,0.8-18.5c1-18.8,1.3-37.6,5.2-56.1c2.3-10.7,5.2-21.3,7.9-31.9l0.1-0.1l0,0
			C295,90,279.8,112.8,265.5,136.3z"/>
		<path fill="#FFFFFF" d="M252.4,117.4c2.4,3.5,4.7,7.1,7.4,11.2l14-25.3c-6.5,3.9-13.4,7.2-20.1,10.7
			C252.2,114.8,251.2,115.5,252.4,117.4z"/>
		<path fill="#DFE6F8" d="M139.6,128.2c13.1-5.7,26.3-9,40.5-8.7c9.7,0.3,19.3-2,27.9-6.7c6.4-3.5,13.1-6.5,20-9
			c3.7-1.4,7.4-3,11.2-4.3c3.3-1.2,4.2-2.4,1.5-5.4c-3.5-4-7-8-11.5-11c-8.5-5.9-14.5-13.5-17.5-23.6c-1-3.3-2.7-6.4-3.9-9.7
			c-1.3-3.6-3.3-4.2-6.9-3.1c-17.7,5.4-35.4,10.5-53.1,15.8c-1.3,0.2-2.4,0.8-3.2,1.8c-11.2,15.9-22.6,31.7-34,47.5
			c-6.8,9.7-15.2,18.2-24.8,25.2c-2.2,1.6-4.4,3.3-7.1,5.5c0.8,0.2,1.6,0.3,2.4,0.4C101.1,139.6,121.1,136.3,139.6,128.2z"/>
		<path fill="#6F3134" d="M353.1,157.7c3.2-10.9,8.1-21.2,14.5-30.5c5.4-7.7,12-13.8,21.2-16.6c5.8-1.8,6-2.4,2.1-7.4
			c-1.7-1.9-3-4-4.1-6.2c-2.8-7.3,0.1-12.1,7.7-12.9c8.8-0.9,13.1,2.7,12.5,10.3c-0.1,2.6-1.5,4.9-3.7,6.2c-2.7,1.6-2.5,4.1-2.3,6.6
			c0.3,3,2.8,1.6,4.3,1.9c4.6,0.8,9.1,2.1,13.4,3.9c1.6,0.7,3,1.4,3.3,3.3c14.1-11.7,27.9-23.8,44.9-32.4c-2.1-1.2-3.5-2-5-2.8
			c-36.1-19.7-71.3-40.7-105.7-63.2c-1.6-1-3.5-1.7-4.5-3.6c-1.1,0.9-2.2,1.9-3.2,3c-12.8,14.3-22.6,31-28.9,49.1
			c-6,17.4-11,34.9-12.9,53.2c-2.6,24.9-3.4,49.9-3.8,74.8c-0.2,12.8,1.1,25.7,4,38.2c2.2,9.6,4.8,19.1,9.3,28.7
			c3.8-8.3,8-16.3,12.7-24.1c1.4-2.4,3.4-4.3,4-7.3C338.1,205.3,345.8,181.5,353.1,157.7z"/>
		<path fill="#B7C9EC" d="M287.8,247.4c-1.1-5.7-1.2-11.6-4.3-16.8c-3.8-6.5-8.5-7.9-14.9-3.9c-4.5,2.9-9.6,4.7-14.9,5.2
			c-2.5,0.2-4.7,1.4-6.4,3.2c-8.5,7.9-15,17.3-21.5,26.8c-7,10.1-15.8,17.7-29.4,16.3c-1,0-2,0.1-3,0.4c-2.9,0.7-4.3,2-3.8,5.6
			c1.7,12.5,4.4,24.9,7.1,37.2c5.4,24.3,18.8,46.3,19.4,72c2.8-0.6,4.3-2.3,5.9-3.7c14.1-13.2,28.2-26.5,42.2-39.8
			c7.8-7.3,14-16.2,18.2-26c4.3-9.8,8.7-19.5,15.3-28c1.2-1.2,1.4-3.1,0.6-4.5C291.2,277.6,290.8,262.2,287.8,247.4z"/>
		<path fill="#FF6F38" d="M301.1,188.4c0.1-3.7-0.7-5.8-4.5-6.8c-2.4-0.6-4.2-2.6-5.8-4.6c-7.5-9.6-15.5-18.7-22.3-28.9
			c-1.6-2.5-3.5-4.7-5.5-7.3c-1.1,1.6-1.8,2.8-2.7,3.7c-1.8,2-2.7,6.4-5.9,4.7c-3.6-1.8-1.2-5.7,0.1-7.9c4.6-7.5,3.3-13.9-2.3-20
			c-0.2-0.2-0.3-0.6-0.5-0.8c-1.3-1.1-1.6-4.7-4.2-2.8c-2.9,2.2-8.5,1.9-8,7.4c2.2,23.4,4.5,46.7,6.9,70.1c0.1,1.8,0.5,3.6,1.4,5.2
			c2.9,5,1,9.3-4.6,10.4c-3.1,0.6-6.1,1.3-8.8,3.3c-2.6,2-4.4,0.6-5.4-2c-0.6-1.6-0.9-3.2-0.9-4.9c0.8-15.2-2.6-29.8-5.4-44.5
			c-1.7-8.9-2.7-18-4-27.4c-5.2,2.6-10.3,6.8-15.6,4.4c-7-3.2-11.7-0.4-16.7,3.2c-1.2,0.9-2.5,1.6-4,2c-10.6,2.3-17.9,8.8-23.8,17.5
			c-3.9,5.7-10,8.8-16.7,10.2c-3.9,0.8-6.3-1.3-4.5-3.9c4.3-6.3,5.5-14.4,12.5-20.5c-12.2,0.8-23.2,1.5-34.2,1.3
			c-2.2-0.1-4.3-0.3-6.4-0.7c-1.2-0.1-2.2-0.9-2.4-2.1c-0.3-1.6,0.7-2.5,2-3.1s2.5-0.9,3.8-1.3c15.3-5.3,31.4-7.7,47.6-7.1
			c14.1,0.5,25.4-6.3,37-15.5c-3.5,0.5-5.7,1.2-7.9,1.1c-20.5-0.5-39.5,5-58.4,12.6c-17.1,6.9-35.7,9.4-53.9,12.1
			c-5.7,0.9-11.8,7.5-12.4,13.1c-0.8,6.3-1.4,12.6-2.3,18.8C61,188,59,198.5,56.5,208.9c1.9-2.4,3.3-5.1,5-7.5
			c1.1-1.7,2.1-4.5,4.7-3.6c2.1,0.7,1.7,3.3,1.9,5.2c2,18.1,6.2,35.3,18,49.9c4.9,6,4.6,11.2,0.6,17.9c-3.4,5.7-5.7,12.3-5,18.5
			c0.7,6.5,0,10.4-6,13.1c-1.2,0.5-3.1,1.4-2.6,3.1c0.4,1.5,2.4,1.6,3.8,2.1c3.9,1.3,8,2.4,11.4,5c6.1,4.7,12.2,4.4,18.5,0.2
			c3.7-2.5,7.6-4.9,12.1-5.8c7.2-1.4,13.4-4.9,19.3-9c9.7-6.7,11.4-6.2,14.2,5.3c8.9,36.5,20.4,72.4,28,109.2
			c0.6,2.9,1.4,3.6,4.1,1.9c8.7-5.6,17.4-11.2,26.2-16.5c2.9-1.8,3.5-3.9,3.2-7c-1-10.1-2.8-20.2-6.4-29.7
			c-9.6-24.8-16.4-50.7-20.1-77.1c-0.8-5.2,1.2-7,5.2-8.1c2.1-0.6,4.3-0.8,6.4-0.7c7.4,0.6,13.2-2.7,18.4-7.5
			c4-3.8,7.5-8.1,10.2-12.8c5.9-9.6,13.5-17.7,21.8-25.3c0.8-0.7,1.4-2.2,2.8-1.7c6,2.1,10.6-1.2,15.3-3.8
			c8.2-4.6,14.6-2.9,18.8,5.6c1.3,2.7,2.3,5.5,2.9,8.5c1.6,8.7,3,17.4,4.3,26.1c1.4,8.7,2.8,17.7,7.5,26
			c6.6-7.7,10.2-16.6,13.9-25.5c0.5-1.2-0.2-2.3-0.7-3.3C304.5,238.8,300,213.7,301.1,188.4z"/>
		<path fill="#6F4D3F" d="M552.6,143c-2.5,19.4-3.7,38.8-1.7,58.3c1.4,13.4,3.5,26.8,1.8,40.3c-2.3,19-3.8,38.1-4.3,57.3
			c-0.4,15.3-5.8,27.8-16.7,38.1l0.2,0.2l-0.1-0.2c1.8,0.1,3.1-1,4.5-2c11.6-7.8,22-17.3,30.9-28.1c18.1-21.8,32.2-45.3,29.5-75.4
			c-0.1-0.9-0.3-2.1,1.8-2.1c1.3,4.8,2.2,10.5,1.7,14.9c-2.1,19.7-5.1,39.3-11.3,58.2c5.1-5.3,7.4-12.1,10.2-18.6
			c9.1-21.7,15.5-44,14.4-67.8c-0.5-12.1-1.2-24.3-0.9-36.4c0.3-7.2-0.2-14.3-1.5-21.4c-3.1-16.5-8.7-32.4-12.6-48.8
			c-1.6-6.9-5.2-13.1-10.3-18c-6.1-5.7-12.2-11.3-18.1-17.2c-4.2-4.2-9.3-5.4-15-2.9c3,5.4,2.8,5.9,3.1,10.5
			C559.5,102.6,555.2,122.7,552.6,143z"/>
		<path fill="#20020C" d="M677.3,392.8c3.1-8.2,4.8-16.8,5.2-25.5C679.1,375.3,672.7,382.5,677.3,392.8z"/>
		<path fill="#6F4D3F" d="M418,122.5c-23.7,20-40,45.6-52.5,73.3c-11.7,25.8-13.5,53.7-11.9,81.8c0.5,9.2,1,18.4,2.9,27.6
			c0.6-0.3,1-0.4,1.2-0.6c1.2-1.8,2.4-3.6,3.5-5.5c9-14.7,15.1-30.7,20.8-46.9c2.3-6.7,2.8-13.4,3.1-20.3
			c0.7-14.6,1.5-29.4,5.5-43.5c8.5-29.9,25.9-54.2,49.2-74.3C460,97,484.3,87.9,509.2,79.9c2.5-0.8,5.2-1.2,8.5-3.9
			c-24,1-45.7,5.4-64.8,18.9C440.7,103.5,429.3,113,418,122.5z"/>
		<path fill="#6F4D3F" d="M583.9,84.4c9.8,7.3,15.4,17.3,18.3,28.9c2,7.7,3.5,15.6,6,23.2c5.2,15.7,7.4,32.2,6.7,48.7
			c-0.2,5-0.7,10.2,0.4,14.9c3.4,15.2,7.2,30.4,11.3,45.5c4.7,17.4,13.7,33.7,13.5,52.4c0,0.8,0.4,1.6,1.1,2.1
			c1.1,0.6,1.7-0.6,2.3-1.3c0.8-1,1.6-2.2,2.1-3.4c10.2-23.7,18.3-47.6,15.5-74.3c-3.2-29.7-10.5-57.3-28.6-81.8
			c-13-17.5-27-34.3-38.2-53.1c-4.3-7.2-11.7-10.1-20.6-12.3C577.3,78.3,580.3,81.7,583.9,84.4z"/>
		<path fill="#FF6F38" d="M402.7,98c2.8-2,2.5-5.2,1.4-8.1c-1.1-3-3.3-3.9-6.8-3.7c-2.4,0.9-6.4-0.9-8.3,2.8
			c-2.1,4.2-0.1,7.7,2.4,11c1.6,2.1,3.3,4.1,4.2,6.6c0.3,0.8,0.2,2.3,1.6,2s1.7-1.6,1.5-2.7C398.3,102.4,400,100.1,402.7,98z"/>
		<path fill="#6F4D3F" d="M286,891.3c-14.8-12.5-29.6-25.2-39.9-41.8c-14.7-24.2-26.8-49.9-36.2-76.6c-5.7-16-6.9-32.7-7.2-49.7
			c-0.7-38.9,4.8-76.6,19.5-112.9c7.1-17.8,13.2-35.9,18.3-54.4c6.5-23.3,16.6-45.4,30.1-65.5c8.2-12.3,16-24.9,22-38.6
			c10.4-23.9,23.7-46.2,37.9-68c11.2-17.3,22.5-34.7,33.8-52c0.6-1,1.2-2,1.9-2.9c1.6-2.1,0.4-3.9-0.9-5.4c-1.6-1.9-2.7,0.3-3.7,1
			c-8.5,6.1-18,10.8-28.1,13.9c-2.4,0.7-4.8,1.2-7.3,1.5c-1.4,0.3-2.8-0.5-3.2-1.8c-0.4-1.3,0.4-2.3,1.4-3c1.8-1.2,3.6-2.4,5.5-3.5
			c6.1-3.8,12-7.8,17-13c5.3-5.4,8.9-11.1,6.2-19c-0.7-2-0.5-4.3-0.7-6.4c-2-21.5-2.2-42.9,1-64.3c5.2-34.6,23.7-62.5,44.3-89.4
			c6.9-9,15.4-16.6,24.5-23.4l0,0c-2.1,0.1-3.8-1-5.6-1.7c-18.9-7.4-35.1-2.7-46.9,13.9c-2.4,3.4-4.6,7-6.4,10.7
			c-9.6,20.3-15.6,41.8-21,63.4c-8.9,35.7-17.6,71.4-31.3,105.7c-9.4,23.7-18.2,47.5-26.6,71.6C259.6,451,234,522.1,216.5,595.8
			c-6.2,26.2-12.4,52.5-14.9,79.4c-2,22.9-1.8,46,0.4,68.9c3,32.1,7.6,63.9,18.1,94.4c22.3,65,61.8,116.6,121,152.4
			c1.4,0.9,2.7,2.4,5,2c-0.1-1.1-0.2-2.1-0.3-3c-3.7-21.3-10.9-41.9-13-63.5c-0.2-2.5-2.1-3.6-4-4.7
			C313.7,912.8,299.4,902.6,286,891.3z"/>
		<path fill="#6F4D3F" d="M474.3,121.1c-34.5,57.1-49,117.9-34,184.4c4.5,20,8.6,39.7,22.5,55.7h0.2l-0.2-0.1c0.4-2.9-0.4-5.7-2.2-8
			c-3.4-4.2-3.5-8.8-3.6-13.6c-0.3-7,0.1-14-0.4-21c-1.6-22-0.1-44,4.5-65.5c0.9-4,1.1-8.4,4.2-11.9c-4,20.5-7.5,41.1-7.1,63.4
			c5.6-5.1,12.8-7.1,16.3-11.9c5.5-7.7,9.6-16.9,10.3-26.7c1.7-27.3,5.7-54.3,13.7-80.5c5-16.4,10.2-32.7,13-49.7
			c2.4-14.3,7.8-27.1,19-36.9c2.4-2.1,4.2-4.8,5.2-7.8c2.5-7.4,4.9-14.8,12-19.8c-10,1.7-20,3-28.8,7.3
			C499.9,88.2,485.3,103,474.3,121.1z"/>
	</g>
</g>
</svg>
