<?xml version="1.0" encoding="UTF-8" standalone="no"?>
<svg
   xmlns:dc="http://purl.org/dc/elements/1.1/"
   xmlns:cc="http://creativecommons.org/ns#"
   xmlns:rdf="http://www.w3.org/1999/02/22-rdf-syntax-ns#"
   xmlns:svg="http://www.w3.org/2000/svg"
   xmlns="http://www.w3.org/2000/svg"
   xmlns:sodipodi="http://sodipodi.sourceforge.net/DTD/sodipodi-0.dtd"
   xmlns:inkscape="http://www.inkscape.org/namespaces/inkscape"
   version="1.0"
   width="850.000000pt"
   height="850.000000pt"
   viewBox="0 0 850.000000 850.000000"
   preserveAspectRatio="xMidYMid meet"
   id="svg418"
   sodipodi:docname="bible273.svg"
   inkscape:version="0.92.2 5c3e80d, 2017-08-06">
  <defs
     id="defs422" />
  <sodipodi:namedview
     pagecolor="#ffffff"
     bordercolor="#666666"
     borderopacity="1"
     objecttolerance="10"
     gridtolerance="10"
     guidetolerance="10"
     inkscape:pageopacity="0"
     inkscape:pageshadow="2"
     inkscape:window-width="1920"
     inkscape:window-height="978"
     id="namedview420"
     showgrid="false"
     inkscape:zoom="1.1779567"
     inkscape:cx="844.26784"
     inkscape:cy="708.93554"
     inkscape:window-x="0"
     inkscape:window-y="1"
     inkscape:window-maximized="1"
     inkscape:current-layer="svg418" />
  <metadata
     id="metadata2">
Created by potrace 1.14, written by Peter Selinger 2001-2017
<rdf:RDF>
  <cc:Work
     rdf:about="">
    <dc:format>image/svg+xml</dc:format>
    <dc:type
       rdf:resource="http://purl.org/dc/dcmitype/StillImage" />
  </cc:Work>
</rdf:RDF>
</metadata>
  <g
     transform="translate(0.000000,850.000000) scale(0.100000,-0.100000)"
     fill="#000000"
     stroke="none"
     id="g416">
    <path
       d="M0 4250 l0 -4250 4250 0 4250 0 0 4250 0 4250 -4250 0 -4250 0 0 -4250z m6951 3120 c90 -41 177 -59 276 -60 28 0 58 -6 65 -13 7 -7 33 -13 58 -13 45 -1 193 -46 217 -66 7 -6 13 -29 13 -52 0 -22 7 -81 16 -131 30 -177 31 -166 -16 -212 -44 -42 -46 -63 -5 -63 13 0 46 -5 74 -12 72 -16 68 -36 -26 -122 -164 -153 -237 -229 -353 -371 -13 -16 -50 -55 -81 -86 -32 -31 -59 -67 -61 -80 -1 -13 -15 -30 -30 -38 -23 -13 -36 -13 -105 -1 -181 31 -182 31 -231 -14 -24 -22 -78 -83 -120 -135 -42 -53 -79 -98 -82 -101 -3 -3 -35 -41 -72 -85 -70 -85 -151 -165 -224 -220 l-44 -34 58 -11 c31 -6 80 -15 107 -21 28 -5 86 -16 130 -25 138 -29 131 -28 138 -2 4 12 7 52 7 88 0 64 15 264 28 370 19 154 99 -14 141 -295 6 -38 16 -106 22 -150 7 -44 17 -85 23 -91 13 -13 167 -52 331 -84 33 -7 95 -24 139 -38 63 -22 73 -28 51 -30 -44 -6 -206 25 -401 74 -197 51 -412 101 -489 114 -315 56 -389 69 -442 75 -40 4 -63 3 -63 -3 0 -5 15 -12 33 -15 52 -9 91 -18 112 -27 11 -4 40 -14 65 -21 25 -7 49 -16 55 -21 5 -4 17 -8 27 -8 10 0 26 -4 36 -10 43 -24 316 -92 487 -122 105 -18 168 -28 245 -39 147 -21 196 -28 275 -39 44 -6 105 -15 135 -20 30 -4 75 -11 100 -15 62 -8 119 -24 158 -44 29 -14 34 -14 42 -1 22 34 15 38 -142 71 -29 6 -63 15 -76 20 -13 5 -34 9 -47 9 -14 0 -25 5 -25 11 0 11 4 11 145 -10 183 -27 188 -28 206 -50 30 -37 41 -112 25 -183 -25 -118 -75 -205 -187 -323 -80 -84 -75 -63 -48 -215 6 -36 14 -109 17 -163 7 -97 15 -116 50 -117 24 0 88 -48 135 -100 166 -184 211 -588 104 -930 -26 -84 -69 -170 -123 -246 -47 -67 -185 -200 -248 -240 -34 -21 -44 -36 -60 -83 -31 -97 -122 -274 -173 -335 -88 -107 -204 -148 -291 -102 l-34 17 -53 -48 c-143 -130 -185 -154 -305 -172 -104 -17 -270 7 -270 39 0 12 44 46 81 62 16 7 29 15 29 18 0 3 -18 25 -40 49 -36 38 -60 46 -60 21 0 -35 -116 -172 -189 -222 l-24 -17 23 -146 c31 -192 18 -209 -73 -92 -90 115 -131 156 -162 161 -17 2 -48 7 -70 11 l-41 6 -13 -50 c-16 -64 -59 -131 -107 -167 -33 -26 -45 -29 -109 -29 -59 1 -79 5 -117 28 -47 27 -118 101 -118 122 0 6 -5 16 -11 22 -8 8 -28 -6 -76 -55 l-64 -66 34 -133 c29 -113 32 -135 20 -144 -11 -10 -32 7 -112 91 l-98 104 -39 -11 c-117 -34 -276 -23 -381 27 -81 38 -177 134 -227 229 -20 39 -41 71 -46 71 -5 0 -42 5 -82 10 -62 9 -81 8 -119 -6 -24 -9 -83 -18 -131 -19 -60 -2 -94 -8 -110 -19 -13 -9 -62 -46 -111 -81 -86 -64 -117 -78 -117 -52 0 8 18 58 40 112 22 54 39 99 38 100 -46 26 -121 77 -146 99 -19 16 -55 40 -80 53 -43 22 -48 23 -57 7 -5 -9 -53 -76 -105 -148 -53 -72 -110 -152 -128 -178 -47 -69 -83 -63 -62 9 5 21 17 101 25 178 8 77 17 155 20 173 3 17 2 32 -3 32 -5 0 -31 -28 -58 -62 -81 -105 -152 -188 -256 -300 -119 -128 -149 -167 -213 -275 -27 -45 -64 -97 -82 -115 -32 -31 -39 -33 -97 -32 -35 1 -79 6 -97 12 -19 5 -61 15 -94 22 -219 45 -448 111 -478 138 -16 14 -17 26 -12 87 6 58 3 78 -14 118 -12 27 -21 59 -21 72 0 19 -15 30 -87 66 -125 62 -234 170 -293 292 -40 80 -46 88 -81 97 -69 19 -120 68 -165 158 -22 45 -42 84 -45 86 -2 2 -2 -72 0 -165 2 -124 0 -173 -9 -184 -10 -12 -16 -13 -26 -4 -8 6 -14 15 -14 20 0 5 -9 28 -19 52 -11 23 -36 78 -56 122 -20 44 -46 95 -58 112 -21 32 -24 33 -96 33 -40 0 -90 5 -111 11 -35 11 -41 9 -101 -29 -69 -44 -92 -43 -72 6 40 98 42 84 -14 146 -50 56 -127 198 -157 288 -60 182 -61 377 -2 486 8 15 26 70 41 122 14 52 47 138 74 191 45 92 47 98 33 124 -19 38 -28 67 -62 224 -34 153 -36 186 -15 195 20 7 117 -91 180 -183 27 -39 52 -71 57 -71 5 0 38 25 73 55 35 30 83 64 105 75 l40 20 -6 54 c-13 108 44 295 117 387 17 22 51 51 75 65 24 14 44 30 44 35 0 12 -107 229 -143 290 -23 39 -25 48 -13 58 8 7 25 9 41 5 40 -10 133 -57 194 -98 29 -20 58 -36 65 -36 6 0 41 30 76 66 128 130 229 181 402 199 32 4 61 12 65 18 5 7 8 54 8 106 0 58 4 95 11 98 6 2 37 -15 70 -37 32 -22 63 -40 68 -40 5 0 37 11 70 24 34 14 92 31 130 38 l69 14 17 60 c38 136 88 184 110 107 6 -21 13 -64 17 -96 3 -32 10 -60 14 -63 5 -3 37 -10 71 -15 35 -6 100 -23 146 -38 45 -16 84 -26 86 -22 2 3 2 37 1 76 l-3 70 97 115 c104 125 402 429 465 476 39 28 42 29 160 28 180 -1 411 -40 591 -99 39 -13 102 -31 140 -40 39 -9 131 -34 205 -55 154 -44 283 -76 520 -127 91 -19 175 -37 187 -40 15 -4 37 5 65 26 23 17 58 34 78 38 29 5 49 22 114 97 90 104 159 178 333 359 68 71 123 132 123 137 0 9 -14 13 -117 40 -78 19 -189 40 -217 40 -43 0 -104 21 -123 42 -19 22 -19 22 58 83 13 11 38 38 54 60 94 127 190 236 229 262 28 17 45 36 46 47 0 19 79 118 130 163 36 32 82 31 310 -8 36 -6 90 -18 120 -26 85 -23 124 -33 132 -33 4 0 38 37 77 83 38 45 97 111 131 147 33 36 81 95 107 133 56 81 62 82 184 27z"
       id="path4"
       style="fill:none" />
    <path
       d="M6803 7324 c-71 -87 -216 -259 -236 -281 -11 -13 -17 -26 -14 -30 8 -8 65 50 275 280 26 28 42 54 38 62 -9 24 -22 18 -63 -31z"
       id="path6"
       style="fill:#cd853f" />
    <path
       d="M6877 7320 c-25 -36 -187 -212 -265 -287 -61 -61 -71 -74 -55 -79 10 -3 28 -10 41 -15 43 -17 58 -9 132 74 41 45 120 128 174 185 55 56 97 104 95 105 -13 11 -80 37 -92 37 -9 0 -22 -9 -30 -20z"
       id="path8"
       style="fill:#8b4513" />
    <path
       d="M6876 7137 c-196 -207 -211 -227 -166 -227 11 0 40 -6 66 -12 l45 -13 47 51 c111 121 262 317 262 341 0 9 -16 13 -54 13 l-54 0 -146 -153z"
       id="path10"
       style="fill:#a0522d" />
    <path
       d="M7167 7275 c-9 -8 -44 -55 -79 -103 -34 -48 -67 -92 -73 -98 -5 -7 -26 -31 -44 -54 -19 -23 -40 -48 -46 -54 -37 -40 -64 -79 -59 -87 3 -5 23 -9 44 -9 35 0 42 5 71 46 17 25 63 79 102 120 84 88 154 179 162 212 7 29 8 28 -31 36 -22 5 -36 2 -47 -9z"
       id="path12"
       style="fill:#a0522d" />
    <path
       d="M7289 7235 c-14 -7 -48 -44 -77 -82 -28 -37 -75 -93 -104 -124 -77 -82 -111 -122 -125 -147 -12 -20 -10 -22 25 -27 20 -4 45 -9 54 -11 12 -4 35 19 78 77 73 97 112 141 207 235 53 53 69 74 60 83 -15 15 -86 13 -118 -4z"
       id="path14"
       style="fill:#8b4513" />
    <path
       d="M7344 7123 c-53 -54 -128 -138 -166 -187 -60 -78 -67 -91 -52 -99 13 -8 50 24 197 169 100 99 184 180 187 182 9 6 -33 32 -52 32 -10 0 -61 -44 -114 -97z"
       id="path16"
       style="fill:#cd853f" />
    <path
       d="M7372 6997 c-89 -89 -162 -166 -162 -170 0 -4 11 -7 23 -7 17 0 42 22 91 79 37 44 99 108 139 143 40 35 75 67 79 73 10 13 10 45 0 45 -4 0 -80 -73 -170 -163z"
       id="path18"
       style="fill:#cd853f" />
    <path
       d="M7439 6988 c-121 -118 -158 -166 -138 -179 20 -13 45 -11 61 4 7 7 40 32 73 55 117 81 125 91 125 155 0 41 -4 57 -13 57 -7 0 -56 -42 -108 -92z"
       id="path20"
       style="fill:#8b4513" />
    <path
       d="M5893 7006 c-55 -48 -85 -98 -78 -129 6 -21 0 -27 -48 -50 -55 -26 -144 -115 -199 -200 -46 -71 -81 -112 -124 -146 -14 -11 -23 -24 -20 -30 3 -5 39 -12 78 -16 93 -9 137 -18 278 -55 63 -17 159 -39 212 -50 53 -11 129 -31 169 -45 77 -26 138 -32 156 -14 16 16 224 -67 230 -92 4 -12 18 -20 42 -24 20 -3 61 -10 91 -15 148 -26 176 -30 209 -30 20 0 69 -7 109 -17 80 -19 92 -14 92 34 0 15 11 28 31 38 42 22 132 114 202 207 63 85 121 145 247 258 70 63 80 75 64 81 -11 4 -122 24 -249 44 -244 38 -427 70 -485 85 -19 5 -48 12 -65 15 -100 20 -192 41 -285 65 -146 38 -306 72 -420 89 -74 11 -148 23 -165 26 -25 5 -37 0 -72 -29z m235 -107 c-29 -48 -192 -270 -271 -366 -55 -68 -77 -87 -77 -63 0 29 211 329 294 417 63 68 91 74 54 12z m183 -70 c-30 -49 -31 -53 -17 -83 20 -43 46 -159 46 -207 0 -53 18 -50 55 8 52 83 285 341 285 316 0 -16 -80 -132 -150 -218 -31 -38 -74 -95 -95 -125 -82 -116 -156 -193 -172 -177 -2 3 2 16 10 29 29 45 35 136 16 248 -10 57 -23 108 -28 113 -14 14 -49 -30 -164 -209 -51 -79 -104 -131 -119 -116 -14 14 50 105 234 335 37 46 73 96 80 113 15 35 30 46 42 34 6 -6 -3 -29 -23 -61z m500 -36 c-7 -13 -2 -28 21 -60 16 -24 38 -64 49 -88 18 -41 23 -45 55 -45 117 0 -127 -85 -333 -115 -24 -4 -45 -11 -48 -15 -3 -5 3 -24 13 -42 10 -18 22 -49 25 -68 l7 -35 -23 27 c-12 15 -31 39 -41 54 l-20 28 -53 -60 c-29 -32 -53 -62 -53 -65 0 -4 -7 -10 -16 -13 -9 -4 14 28 51 69 59 67 67 79 61 105 -4 25 -2 30 14 30 10 0 29 15 41 33 41 58 141 181 188 230 45 47 82 65 62 30z m489 -65 c0 -14 -61 -97 -118 -162 -88 -99 -342 -350 -348 -344 -7 7 5 24 82 115 68 80 139 157 205 223 30 30 79 83 108 118 52 61 71 74 71 50z"
       id="path22"
       style="fill:#008080" />
    <path
       d="M6707 6658 c-31 -40 -65 -83 -76 -95 -41 -43 -30 -44 97 -14 92 22 127 37 126 54 -3 25 -66 127 -80 127 -6 0 -36 -33 -67 -72z"
       id="path24"
       style="fill:#2f4f4f" />
    <path
       d="M7553 6933 c-18 -7 -16 -23 2 -23 8 0 15 7 15 15 0 8 -1 15 -2 14 -2 0 -9 -3 -15 -6z"
       id="path26" />
    <path
       d="M7520 6859 c-32 -41 -53 -79 -42 -79 4 0 30 25 56 55 36 42 43 55 29 55 -10 0 -29 -14 -43 -31z"
       id="path28"
       style="fill:#8b4513" />
    <path
       d="M7442 6845 c-54 -37 -58 -48 -22 -58 20 -5 29 5 74 81 11 18 6 16 -52 -23z"
       id="path30"
       style="fill:#cd853f" />
    <path
       d="M5882 6267 c-20 -17 -64 -62 -97 -100 -33 -37 -75 -85 -93 -105 -19 -20 -48 -53 -65 -72 -30 -33 -127 -145 -192 -220 -16 -19 -60 -66 -97 -104 -68 -70 -73 -80 -62 -110 10 -27 29 -18 64 32 38 53 176 192 264 266 32 27 92 90 133 140 124 150 156 187 195 230 44 49 47 62 13 69 -19 3 -36 -4 -63 -26z"
       id="path32"
       style="fill:#8b4513" />
    <path
       d="M5964 6228 c-27 -29 -65 -73 -84 -97 -19 -24 -39 -48 -45 -55 -5 -6 -43 -50 -84 -99 -40 -48 -101 -111 -134 -140 -167 -144 -307 -298 -307 -335 0 -23 16 -45 28 -41 25 10 455 432 518 509 16 19 31 37 34 40 32 28 162 248 155 261 -12 19 -34 7 -81 -43z"
       id="path34"
       style="fill:#cd853f" />
    <path
       d="M6056 6227 c-15 -19 -26 -37 -26 -40 0 -10 -69 -117 -114 -177 -58 -77 -115 -138 -246 -264 -347 -335 -340 -327 -306 -355 12 -10 19 -6 38 22 41 60 110 129 258 258 190 165 351 342 463 509 l37 55 -27 12 c-42 18 -50 16 -77 -20z"
       id="path36"
       style="fill:#a0522d" />
    <path
       d="M6183 6221 c-5 -3 -25 -28 -44 -56 -115 -165 -292 -361 -454 -500 -131 -113 -150 -130 -189 -170 -44 -46 -71 -84 -64 -90 2 -3 18 0 34 5 16 5 48 14 70 19 32 9 48 21 69 54 104 157 276 353 429 487 65 57 123 118 155 164 28 41 51 76 51 79 0 8 -48 14 -57 8z"
       id="path38"
       style="fill:#cd853f" />
    <path
       d="M6278 6212 c-8 -2 -21 -14 -28 -27 -7 -14 -17 -25 -22 -25 -4 0 -8 -5 -8 -10 0 -19 -80 -118 -118 -147 -135 -102 -482 -497 -482 -548 0 -7 14 -9 36 -7 28 4 42 14 74 56 21 28 68 80 105 116 37 36 119 126 183 200 63 74 145 165 181 201 95 95 181 186 181 192 0 4 -76 4 -102 -1z"
       id="path40"
       style="fill:#8b4513" />
    <path
       d="M6245 6039 c-82 -88 -154 -165 -160 -172 -77 -93 -138 -162 -233 -260 -63 -65 -112 -120 -109 -123 3 -3 22 2 42 10 21 9 52 16 69 16 28 0 38 10 111 117 44 64 85 121 90 127 6 6 33 40 60 76 27 36 113 130 192 209 79 79 143 147 143 152 0 5 -12 9 -27 8 -23 0 -57 -32 -178 -160z"
       id="path42"
       style="fill:#cd853f" />
    <path
       d="M6342 6043 c-76 -76 -168 -174 -204 -218 -86 -106 -201 -272 -196 -286 2 -6 44 36 93 93 49 57 172 192 274 301 102 108 189 203 193 211 5 8 2 19 -7 26 -12 10 -38 -12 -153 -127z"
       id="path44"
       style="fill:#a0522d" />
    <path
       d="M6451 6020 c-101 -109 -111 -131 -22 -47 31 28 74 68 97 87 52 45 61 60 36 60 -11 0 -57 -41 -111 -100z"
       id="path46"
       style="fill:#cd853f" />
    <path
       d="M6618 6101 c-46 -16 -353 -312 -458 -441 -90 -110 -132 -169 -125 -180 3 -5 33 -10 65 -10 59 0 59 0 90 44 16 25 30 47 30 51 0 24 120 174 225 280 69 70 142 148 163 174 20 25 40 48 45 49 12 6 8 29 -5 35 -7 2 -21 1 -30 -2z"
       id="path48"
       style="fill:#8b4513" />
    <path
       d="M6638 6023 c-31 -38 -110 -124 -178 -193 -133 -136 -263 -310 -230 -310 19 0 206 194 327 340 66 80 135 161 151 180 38 43 39 50 8 50 -17 0 -39 -18 -78 -67z"
       id="path50"
       style="fill:#8b4513" />
    <path
       d="M3503 5963 c9 -2 23 -2 30 0 6 3 -1 5 -18 5 -16 0 -22 -2 -12 -5z"
       id="path52" />
    <path
       d="M3625 5938 c22 -5 67 -16 100 -24 83 -20 197 -54 217 -65 10 -5 25 -9 33 -9 8 0 24 -4 35 -10 11 -5 29 -14 40 -20 11 -5 27 -10 35 -10 8 0 24 -4 35 -10 11 -5 29 -14 40 -20 11 -5 27 -10 35 -10 8 0 23 -4 33 -10 36 -20 314 -102 417 -122 28 -5 70 -14 95 -19 114 -23 191 -33 265 -33 73 -1 80 1 83 19 3 19 -8 23 -90 42 -51 12 -118 27 -148 33 -286 54 -344 69 -630 160 -180 58 -255 78 -330 90 -41 6 -99 15 -129 21 -30 5 -82 9 -115 8 l-61 -1 40 -10z"
       id="path54"
       style="fill:#a0522d" />
    <path
       d="M3302 5924 c-39 -27 -31 -38 51 -74 12 -5 92 -12 177 -14 166 -5 239 -13 254 -27 6 -5 20 -9 33 -9 13 0 31 -4 41 -9 9 -5 40 -16 67 -24 28 -9 88 -30 135 -47 47 -18 166 -59 265 -92 99 -34 189 -64 200 -68 11 -4 54 -18 95 -30 41 -13 94 -29 116 -36 38 -12 191 -54 274 -75 56 -14 57 -14 54 54 -2 34 -3 65 -4 70 0 4 -24 7 -54 7 -30 0 -76 4 -103 9 -26 6 -79 15 -118 21 -156 25 -481 110 -570 150 -11 5 -38 14 -60 21 -22 7 -44 16 -50 19 -5 4 -30 12 -55 20 -25 7 -49 17 -54 22 -6 4 -20 8 -32 8 -13 0 -26 5 -29 10 -3 6 -17 10 -30 10 -13 0 -26 4 -29 9 -3 5 -18 11 -33 14 -16 3 -74 17 -130 31 -189 48 -367 61 -411 30z"
       id="path56"
       style="fill:#8b4513" />
    <path
       d="M3187 5812 l-58 -59 23 -15 c45 -30 122 -49 252 -63 128 -15 202 -25 329 -45 150 -24 369 -70 482 -101 22 -5 56 -14 75 -19 94 -22 351 -99 405 -120 11 -4 36 -13 55 -20 19 -7 44 -16 55 -20 11 -4 47 -18 80 -30 33 -12 74 -28 90 -35 89 -38 102 -40 144 -20 23 10 41 23 41 29 0 18 -74 86 -92 86 -9 0 -20 5 -23 10 -3 6 -21 10 -40 10 -19 0 -37 5 -40 10 -3 6 -16 10 -27 10 -12 0 -35 4 -52 10 -17 5 -71 21 -121 35 -108 31 -282 84 -310 95 -11 4 -38 13 -60 19 -22 7 -49 16 -60 21 -11 5 -74 28 -140 50 -66 23 -176 62 -245 86 -69 24 -134 44 -146 44 -11 0 -24 4 -30 9 -14 14 -92 22 -259 27 -132 4 -156 8 -203 29 -29 14 -56 25 -60 25 -4 0 -34 -26 -65 -58z"
       id="path58"
       style="fill:#a0522d" />
    <path
       d="M5410 5803 c-19 -19 -51 -47 -70 -61 -62 -46 -90 -75 -90 -94 0 -10 6 -18 13 -18 20 0 187 181 187 202 0 11 -1 11 -40 -29z"
       id="path60"
       style="fill:#556b2f" />
    <path
       d="M6115 5668 c-82 -88 -115 -133 -115 -158 1 -18 29 14 115 125 33 43 66 84 74 92 7 8 11 16 9 19 -3 3 -40 -33 -83 -78z"
       id="path62"
       style="fill:#cd853f" />
    <path
       d="M6737 5740 c-3 -8 -11 -85 -17 -170 -6 -85 -14 -165 -17 -177 -6 -25 13 -38 71 -49 l39 -7 -6 64 c-15 167 -58 372 -70 339z"
       id="path64"
       style="fill:#6b8e23" />
    <path
       d="M3057 5682 c-20 -21 -37 -40 -37 -43 0 -6 71 -23 140 -34 19 -3 60 -10 90 -15 30 -6 82 -14 115 -20 33 -5 85 -14 115 -19 30 -5 73 -12 95 -16 22 -3 58 -10 80 -15 44 -9 107 -22 230 -46 87 -16 315 -70 355 -83 14 -5 45 -14 70 -21 82 -23 115 -33 135 -40 11 -4 88 -29 170 -56 83 -26 181 -60 219 -76 38 -15 76 -28 85 -28 22 0 110 43 115 57 3 7 -28 24 -77 43 -45 18 -91 36 -102 40 -11 5 -38 14 -60 21 -22 7 -44 17 -49 21 -6 4 -19 8 -31 8 -12 0 -25 4 -30 8 -6 5 -30 14 -55 21 -25 7 -54 17 -65 21 -38 15 -248 74 -355 101 -284 69 -519 111 -780 139 -141 16 -210 29 -252 51 -55 28 -79 24 -121 -19z"
       id="path66"
       style="fill:#cd853f" />
    <path
       d="M5183 5637 c-6 -13 -14 -57 -18 -98 l-7 -75 37 -49 c21 -27 47 -58 57 -69 37 -39 88 -169 88 -224 0 -10 18 -57 40 -104 31 -67 38 -92 34 -120 -4 -21 -2 -38 5 -42 6 -4 8 -24 4 -51 -4 -32 0 -58 15 -97 12 -29 23 -62 26 -73 8 -30 -3 123 -13 178 -7 40 -5 52 11 72 24 31 23 64 -6 133 -13 31 -31 82 -40 112 -10 30 -26 72 -37 93 l-20 37 25 0 c14 0 28 5 31 10 9 14 45 12 45 -2 1 -13 144 -85 260 -130 14 -6 33 -14 42 -19 10 -5 27 -9 37 -9 11 0 23 -4 26 -10 3 -5 17 -10 30 -10 13 0 26 -4 29 -9 3 -5 18 -11 33 -14 16 -3 44 -10 63 -15 101 -29 197 -52 465 -114 50 -11 98 -24 107 -29 10 -5 26 -9 35 -9 10 0 38 -8 63 -16 25 -9 59 -20 75 -24 17 -5 91 -29 165 -55 221 -78 262 -87 420 -91 l125 -4 48 42 c72 66 75 64 -118 106 -94 21 -172 34 -315 52 -224 29 -283 39 -480 86 -152 35 -273 69 -302 85 -10 5 -27 9 -37 9 -11 0 -23 5 -26 10 -3 6 -17 10 -30 10 -13 0 -27 5 -30 10 -3 6 -17 10 -30 10 -13 0 -27 5 -30 10 -3 6 -16 10 -29 10 -12 0 -26 4 -31 8 -9 8 -73 29 -300 98 -44 14 -94 29 -111 34 -40 13 -100 13 -125 -1 -16 -8 -23 -7 -32 4 -7 8 -26 18 -43 21 -26 6 -32 3 -44 -19 -13 -25 -15 -25 -27 -9 -19 26 -16 34 12 34 14 0 25 5 25 11 0 7 14 8 40 4 26 -4 40 -3 40 4 0 6 8 11 17 11 10 0 35 6 58 14 22 8 74 19 115 26 41 6 89 15 106 21 17 5 39 9 49 9 12 0 15 3 9 9 -5 6 -30 6 -59 1 -27 -4 -88 -13 -135 -20 -96 -13 -158 -28 -244 -59 -46 -16 -62 -18 -68 -8 -5 8 -1 13 12 15 26 4 25 8 -10 77 -39 77 -43 79 -35 20 l6 -50 -37 75 c-27 56 -37 89 -38 127 -1 58 -7 65 -23 30z m114 -259 c-3 -8 -6 -5 -6 6 -1 11 2 17 5 13 3 -3 4 -12 1 -19z"
       id="path68"
       style="fill:#556b2f" />
    <path
       d="M2961 5578 c-38 -40 -38 -46 -3 -59 15 -7 36 -15 47 -20 33 -13 114 -28 235 -43 194 -25 266 -35 390 -56 93 -17 152 -28 285 -55 17 -3 46 -10 65 -15 19 -5 85 -21 145 -35 61 -15 142 -35 180 -46 39 -11 88 -24 110 -30 22 -6 49 -15 60 -19 11 -4 40 -13 65 -20 25 -6 53 -16 62 -21 10 -5 27 -9 37 -9 11 0 23 -4 26 -10 3 -5 16 -10 29 -10 12 0 27 -5 33 -11 18 -18 85 -15 116 5 33 22 35 42 5 49 -13 3 -86 27 -163 55 -77 27 -174 59 -215 72 -41 12 -84 26 -95 30 -51 19 -93 30 -113 30 -11 0 -23 4 -26 9 -3 5 -20 11 -38 14 -31 5 -75 16 -158 37 -70 18 -275 60 -447 91 -29 5 -79 14 -110 20 -32 5 -87 15 -123 20 -36 6 -87 14 -115 19 -53 9 -170 28 -221 37 -26 4 -37 -1 -63 -29z"
       id="path70"
       style="fill:#8b4513" />
    <path
       d="M5120 5573 c-7 -16 -15 -55 -17 -88 -5 -58 -4 -62 31 -105 50 -63 135 -187 143 -208 4 -9 15 -28 26 -42 l20 -25 -7 30 c-22 95 -39 134 -81 185 -92 110 -105 134 -105 194 0 30 5 58 10 61 12 8 13 25 2 25 -5 0 -15 -12 -22 -27z"
       id="path72"
       style="fill:#6b8e23" />
    <path
       d="M2856 5456 c-25 -30 -46 -57 -46 -59 0 -20 279 -71 650 -118 85 -11 175 -23 200 -28 81 -15 204 -41 240 -50 19 -5 58 -14 85 -19 28 -6 73 -16 100 -21 28 -6 94 -18 147 -26 54 -9 130 -25 170 -36 102 -27 153 -37 231 -44 54 -5 66 -9 57 -20 -33 -40 85 -9 145 39 20 15 20 15 -2 16 -12 0 -23 -4 -25 -9 -1 -4 -21 -11 -43 -15 -28 -5 -35 -4 -25 3 8 5 12 11 10 13 -28 18 -53 28 -69 28 -11 0 -23 5 -26 10 -3 6 -17 10 -30 10 -13 0 -27 5 -30 10 -3 6 -15 10 -26 10 -10 0 -27 4 -37 9 -9 5 -37 15 -62 21 -25 7 -58 17 -75 22 -56 16 -280 76 -310 82 -16 4 -48 11 -70 17 -22 5 -62 14 -90 19 -27 6 -70 15 -95 20 -186 40 -412 76 -625 99 -94 11 -149 23 -229 51 -33 11 -62 20 -66 20 -4 0 -28 -24 -54 -54z"
       id="path74"
       style="fill:#a0522d" />
    <path
       d="M5853 5493 c-13 -2 -23 -8 -23 -13 0 -8 71 -20 79 -14 5 5 -20 34 -28 33 -3 -1 -16 -4 -28 -6z"
       id="path76"
       style="fill:#cd853f" />
    <path
       d="M5798 5463 c7 -3 16 -2 19 1 4 3 -2 6 -13 5 -11 0 -14 -3 -6 -6z"
       id="path78" />
    <path
       d="M5966 5454 c-5 -12 -2 -15 10 -10 8 3 18 6 20 6 2 0 4 5 4 10 0 16 -27 11 -34 -6z"
       id="path80" />
    <path
       d="M5848 5443 c7 -3 16 -2 19 1 4 3 -2 6 -13 5 -11 0 -14 -3 -6 -6z"
       id="path82" />
    <path
       d="M2364 5413 c-3 -10 -10 -28 -15 -41 -15 -38 -11 -52 15 -52 32 0 35 6 29 63 -6 48 -19 62 -29 30z"
       id="path84"
       style="fill:#00ff00" />
    <path
       d="M5890 5411 c-8 -5 -32 -12 -54 -15 -61 -11 -40 -24 94 -56 19 -4 62 -16 95 -25 72 -20 354 -93 408 -106 20 -5 56 -14 80 -20 23 -6 57 -13 75 -16 18 -3 35 -9 38 -14 3 -5 15 -9 26 -9 12 0 35 -4 52 -9 17 -5 49 -14 71 -19 22 -6 60 -16 85 -22 25 -6 63 -16 85 -22 22 -5 56 -14 75 -19 35 -8 169 -40 345 -80 122 -28 165 -39 201 -50 65 -20 99 -12 138 31 20 22 36 44 36 49 0 24 -55 46 -160 63 -108 16 -181 27 -255 38 -172 24 -271 38 -385 55 -36 6 -97 17 -197 36 -171 33 -449 110 -538 149 -11 4 -31 11 -45 15 -14 3 -41 11 -60 16 -32 9 -178 39 -190 38 -3 0 -12 -3 -20 -8z"
       id="path86"
       style="fill:#a0522d" />
    <path
       d="M5675 5355 c-22 -8 -48 -15 -58 -15 -37 0 -9 -26 49 -43 32 -10 111 -34 174 -54 63 -19 123 -39 132 -44 10 -5 27 -9 37 -9 11 0 23 -4 26 -10 3 -5 16 -10 29 -10 12 0 26 -4 32 -8 5 -5 29 -14 54 -21 25 -7 53 -17 62 -22 10 -5 27 -9 37 -9 11 0 23 -4 26 -10 3 -5 17 -10 30 -10 13 0 26 -4 29 -9 3 -5 18 -11 33 -14 16 -2 64 -15 108 -27 44 -12 107 -29 140 -36 168 -39 190 -42 515 -84 146 -19 286 -47 394 -80 35 -10 40 -9 64 12 50 43 48 45 -48 64 -14 3 -41 9 -60 14 -19 5 -64 16 -100 24 -216 49 -388 90 -455 107 -22 6 -58 15 -80 21 -22 5 -54 14 -71 19 -17 5 -40 9 -52 9 -11 0 -24 5 -27 10 -3 6 -21 10 -40 10 -19 0 -36 4 -39 9 -3 5 -20 11 -38 14 -18 3 -52 10 -75 16 -24 6 -60 15 -80 20 -48 11 -237 61 -368 96 -55 15 -115 30 -133 32 -18 3 -35 9 -38 14 -3 5 -18 9 -33 9 -15 0 -31 4 -36 9 -19 17 -99 21 -140 6z"
       id="path88"
       style="fill:#cd853f" />
    <path
       d="M2774 5349 c-10 -17 20 -40 63 -49 182 -39 340 -70 398 -80 39 -6 93 -15 120 -20 28 -5 82 -14 120 -19 39 -6 86 -13 105 -16 62 -10 143 -23 220 -35 41 -6 102 -16 135 -21 33 -5 87 -14 120 -19 33 -5 89 -14 125 -20 234 -38 294 -45 286 -31 -4 6 -19 11 -33 11 -15 0 -40 4 -57 9 -17 6 -58 15 -91 21 -33 6 -78 15 -100 20 -22 5 -65 13 -95 19 -150 29 -190 37 -410 90 -83 20 -187 35 -310 46 -102 8 -198 17 -215 20 -217 33 -306 54 -329 76 -14 12 -43 11 -52 -2z"
       id="path90"
       style="fill:#cd853f" />
    <path
       d="M5460 5320 c0 -5 7 -10 15 -10 8 0 15 5 15 10 0 6 -7 10 -15 10 -8 0 -15 -4 -15 -10z"
       id="path92" />
    <path
       d="M2780 5261 c0 -37 14 -47 75 -55 28 -4 75 -12 105 -17 88 -15 216 -33 410 -59 393 -52 405 -54 560 -79 148 -23 325 -59 430 -88 30 -8 69 -18 85 -23 55 -14 130 -42 139 -51 6 -5 19 -9 29 -9 17 0 16 -4 -9 -34 -16 -18 -43 -51 -61 -72 -17 -21 -41 -50 -53 -64 -12 -14 -59 -70 -104 -125 -88 -109 -225 -275 -260 -315 -12 -14 -93 -110 -181 -215 -87 -104 -175 -208 -194 -231 -20 -22 -61 -69 -91 -104 -30 -36 -109 -126 -174 -200 -66 -74 -135 -152 -153 -173 -54 -61 -39 -74 43 -36 60 29 115 86 194 200 36 51 115 146 176 209 77 79 140 158 204 255 52 77 98 145 104 151 6 6 25 28 41 50 126 161 379 452 588 676 75 81 137 150 137 153 0 3 -22 -6 -50 -20 -57 -29 -67 -31 -50 -10 11 13 9 15 -13 15 -14 0 -28 -7 -31 -16 -4 -11 -10 -13 -19 -6 -13 10 -89 25 -217 42 -41 5 -104 15 -140 20 -36 6 -94 15 -130 21 -36 5 -92 14 -125 19 -72 12 -210 33 -385 60 -41 6 -100 16 -130 20 -30 5 -84 14 -120 20 -217 35 -288 47 -375 65 -44 9 -116 25 -160 36 -100 24 -95 24 -95 -10z"
       id="path94"
       style="fill:#8b4513" />
    <path
       d="M2203 5240 c-73 -19 -185 -70 -249 -114 -37 -25 -31 -36 22 -36 33 0 119 -34 164 -65 20 -14 58 -52 85 -84 44 -53 51 -58 70 -48 11 6 54 11 95 11 69 1 82 -3 172 -47 150 -73 268 -194 347 -357 32 -65 42 -94 68 -179 5 -19 73 47 124 121 44 65 48 93 25 218 -22 122 -47 183 -122 295 -54 83 -73 96 -140 98 -33 2 -64 6 -70 10 -6 3 -14 29 -18 56 -6 47 -8 50 -59 74 -141 66 -362 87 -514 47z m835 -462 c22 -27 41 -258 26 -315 -11 -40 -32 -25 -93 65 -33 48 -69 98 -80 112 -11 14 -20 32 -20 40 0 64 131 141 167 98z"
       id="path96"
       style="fill:#556b2f" />
    <path
       d="M2931 4714 c-26 -33 -26 -49 -3 -66 10 -7 35 -35 55 -61 l37 -49 0 49 c0 26 -3 72 -6 101 -6 49 -8 52 -35 52 -18 0 -35 -9 -48 -26z"
       id="path98"
       style="fill:#008000" />
    <path
       d="M5086 5216 c-86 -43 -121 -66 -100 -66 6 0 14 3 18 7 15 15 81 32 90 23 13 -13 36 -13 36 -1 0 5 -6 11 -12 14 -7 2 -2 2 11 0 27 -5 81 14 81 28 0 12 -27 11 -35 -1 -3 -5 -14 -10 -22 -10 -14 0 -13 4 5 20 20 18 27 30 19 30 -1 0 -42 -20 -91 -44z"
       id="path100"
       style="fill:#6b8e23" />
    <path
       d="M5400 5235 c0 -27 52 -95 84 -109 86 -38 317 -121 491 -176 55 -18 108 -36 117 -41 10 -5 25 -9 33 -9 8 0 23 -4 33 -9 9 -5 37 -15 62 -21 60 -17 89 -25 190 -54 88 -26 150 -43 280 -77 41 -11 91 -25 110 -30 19 -6 46 -13 60 -15 14 -3 34 -9 45 -14 11 -5 31 -11 45 -13 14 -3 61 -15 105 -27 44 -12 98 -26 120 -31 22 -6 55 -19 73 -30 34 -19 62 -25 62 -11 0 4 18 27 40 51 23 25 39 50 36 57 -3 9 -38 14 -108 17 -105 5 -157 12 -193 27 -11 4 -40 13 -65 20 -25 7 -54 16 -65 21 -31 13 -355 116 -405 129 -25 6 -61 15 -80 20 -19 5 -53 13 -75 19 -22 5 -62 15 -90 21 -27 6 -122 29 -210 51 -88 23 -172 43 -188 46 -15 3 -30 9 -33 14 -3 5 -15 9 -28 9 -12 0 -26 4 -32 8 -5 4 -27 14 -49 21 -22 7 -53 19 -70 26 -16 7 -52 23 -80 35 -27 12 -80 37 -118 56 -74 37 -97 42 -97 19z"
       id="path102"
       style="fill:#cd853f" />
    <path
       d="M1920 5205 c0 -33 1 -34 25 -23 14 6 25 17 25 23 0 6 -11 17 -25 23 -24 11 -25 10 -25 -23z"
       id="path104"
       style="fill:#00ff00" />
    <path
       d="M2800 5172 c0 -30 15 -36 105 -44 44 -4 121 -12 170 -17 50 -6 133 -15 185 -20 52 -6 138 -15 190 -21 52 -6 131 -15 175 -20 308 -34 464 -73 621 -155 64 -34 97 -45 130 -45 25 0 77 -5 115 -11 53 -8 73 -8 84 1 8 7 12 16 9 21 -9 15 -86 45 -171 68 -211 55 -388 90 -618 122 -163 23 -204 28 -285 39 -47 6 -116 15 -155 20 -186 24 -266 36 -405 59 -148 25 -150 25 -150 3z"
       id="path106"
       style="fill:#cd853f" />
    <path
       d="M5211 5167 c-1 -13 -6 -17 -20 -12 -11 3 -29 1 -40 -5 -12 -5 -30 -15 -41 -20 -11 -6 -31 -8 -45 -4 -26 6 -36 -10 -12 -20 6 -3 -5 -3 -26 0 -50 8 -152 -29 -143 -52 2 -6 -10 -27 -27 -46 -144 -154 -261 -281 -298 -323 -24 -27 -53 -59 -64 -71 -21 -22 -31 -33 -135 -154 -114 -132 -175 -205 -243 -290 -7 -8 -23 -31 -37 -50 -13 -19 -27 -37 -30 -40 -4 -3 -44 -61 -90 -129 -51 -76 -121 -162 -182 -225 -55 -55 -136 -153 -181 -216 -90 -126 -148 -188 -196 -212 l-32 -15 50 -37 c28 -20 53 -36 55 -36 2 0 61 78 132 173 70 94 146 195 168 223 23 28 55 68 71 90 43 55 136 170 160 198 6 6 39 45 75 86 70 82 142 161 259 285 192 203 291 326 427 530 126 189 155 240 148 258 -5 13 0 17 20 17 14 0 26 -2 26 -4 0 -8 -128 -214 -192 -309 -87 -130 -191 -264 -285 -367 -17 -19 -41 -46 -53 -60 -12 -14 -56 -61 -98 -105 -43 -44 -114 -120 -157 -170 -44 -49 -82 -92 -85 -95 -18 -18 -232 -279 -303 -370 -7 -8 -77 -102 -156 -208 l-144 -194 16 -34 c9 -19 22 -34 29 -34 21 0 254 246 383 405 31 39 67 81 78 95 12 14 42 52 67 85 25 33 47 62 50 65 7 5 88 115 166 223 98 137 253 347 304 413 14 17 34 44 45 60 16 22 89 115 168 214 90 113 173 206 310 346 86 88 118 127 114 140 -4 18 -5 18 -6 1z m-204 -83 c-3 -3 -12 -4 -19 -1 -8 3 -5 6 6 6 11 1 17 -2 13 -5z"
       id="path108"
       style="fill:#8b4513" />
    <path
       d="M4945 5140 c-3 -5 -1 -10 4 -10 6 0 11 5 11 10 0 6 -2 10 -4 10 -3 0 -8 -4 -11 -10z"
       id="path110" />
    <path
       d="M5114 5007 c-163 -166 -287 -312 -473 -557 -40 -52 -77 -102 -84 -110 -7 -8 -23 -31 -37 -50 -13 -19 -29 -40 -35 -46 -5 -6 -41 -55 -80 -109 -66 -92 -295 -402 -322 -435 -85 -107 -198 -246 -202 -250 -4 -3 -35 -39 -71 -80 -35 -41 -102 -113 -147 -159 -46 -47 -83 -86 -83 -88 0 -1 25 -10 56 -19 l57 -16 26 28 c40 43 79 104 161 249 40 72 84 144 97 161 12 17 23 34 23 38 0 16 124 143 221 226 126 108 272 259 404 420 38 47 72 87 75 90 27 24 352 446 420 545 19 28 42 59 52 69 10 11 18 25 18 32 0 7 3 14 8 16 4 2 25 27 46 56 33 45 37 58 32 87 -4 19 -10 37 -15 39 -4 3 -70 -59 -147 -137z"
       id="path112"
       style="fill:#a0522d" />
    <path
       d="M4905 5120 c-3 -5 -1 -10 4 -10 6 0 11 5 11 10 0 6 -2 10 -4 10 -3 0 -8 -4 -11 -10z"
       id="path114" />
    <path
       d="M2804 5101 c4 -6 22 -11 39 -11 44 0 165 -24 272 -55 145 -41 241 -55 385 -55 82 0 161 -6 200 -15 61 -13 80 -18 170 -44 19 -5 51 -14 70 -20 100 -28 163 -40 245 -47 78 -6 88 -5 75 7 -34 33 -209 99 -329 124 -76 15 -250 39 -401 55 -58 6 -141 15 -185 20 -388 46 -551 58 -541 41z"
       id="path116"
       style="fill:#a0522d" />
    <path
       d="M4860 5099 c0 -5 5 -7 10 -4 6 3 10 8 10 11 0 2 -4 4 -10 4 -5 0 -10 -5 -10 -11z"
       id="path118" />
    <path
       d="M5460 5106 c0 -2 10 -22 22 -45 14 -27 33 -45 57 -54 20 -8 63 -27 96 -42 183 -83 198 -89 315 -133 58 -21 130 -44 160 -51 70 -15 91 -21 285 -77 237 -69 331 -91 425 -99 73 -6 213 -38 326 -75 45 -15 127 -13 122 2 -10 28 -91 59 -258 98 -19 5 -53 14 -75 20 -22 6 -51 14 -65 16 -14 3 -34 9 -45 14 -11 5 -31 11 -45 14 -14 2 -43 10 -65 16 -22 7 -55 14 -73 17 -18 3 -35 9 -38 14 -3 5 -18 9 -34 9 -16 0 -31 4 -34 9 -3 5 -20 11 -38 14 -29 4 -122 30 -338 95 -222 67 -600 200 -662 233 -18 9 -38 12 -38 5z"
       id="path120"
       style="fill:#a0522d" />
    <path
       d="M7777 5011 c-25 -37 -27 -49 -27 -136 0 -52 4 -95 9 -95 23 0 61 122 61 195 0 74 -12 84 -43 36z"
       id="path122"
       style="fill:#cd853f" />
    <path
       d="M1750 5034 c-54 -10 -147 -48 -195 -80 -94 -62 -200 -177 -256 -279 -81 -146 -89 -167 -89 -237 l0 -66 47 14 c83 25 128 65 217 192 129 184 257 257 451 257 111 0 138 -10 191 -67 41 -43 51 -74 26 -80 -17 -5 -18 -11 -9 -84 10 -94 3 -266 -14 -323 -9 -31 -9 -47 -1 -64 33 -65 54 -159 59 -266 6 -107 7 -112 22 -92 43 57 94 247 110 415 21 208 10 449 -22 511 -5 11 -36 52 -67 90 -101 124 -166 155 -335 160 -60 2 -121 1 -135 -1z"
       id="path124"
       style="fill:#556b2f" />
    <path
       d="M5285 5032 c-17 -12 -75 -90 -75 -101 0 -5 -4 -11 -8 -13 -5 -1 -23 -25 -42 -53 -75 -111 -328 -442 -416 -545 -12 -14 -68 -81 -125 -150 -141 -170 -191 -222 -354 -368 -153 -139 -185 -170 -224 -222 -14 -19 -29 -37 -32 -40 -7 -6 -129 -214 -149 -255 -8 -16 -19 -33 -25 -37 -5 -4 -7 -10 -4 -13 6 -5 38 27 154 150 110 116 202 213 285 300 191 202 350 374 489 533 201 229 581 728 581 764 0 20 -43 59 -55 50z"
       id="path126"
       style="fill:#a0522d" />
    <path
       d="M3030 5025 c0 -3 14 -26 31 -51 17 -25 39 -64 50 -88 13 -31 27 -46 46 -51 15 -3 45 -15 67 -26 23 -11 44 -15 49 -10 11 11 32 149 24 157 -3 4 -23 10 -44 14 -45 9 -180 45 -205 55 -10 4 -18 4 -18 0z"
       id="path128"
       style="fill:#008000" />
    <path
       d="M4503 5023 c15 -2 37 -2 50 0 12 2 0 4 -28 4 -27 0 -38 -2 -22 -4z"
       id="path130" />
    <path
       d="M4605 5010 c3 -5 18 -10 33 -10 21 0 24 2 12 10 -20 13 -53 13 -45 0z"
       id="path132"
       style="fill:#6b8e23" />
    <path
       d="M5522 4940 c3 -58 -13 -51 171 -80 148 -23 147 -23 147 -10 0 6 -4 10 -10 10 -5 0 -39 14 -75 30 -36 17 -68 30 -70 30 -3 0 -39 16 -81 35 -41 19 -78 35 -80 35 -3 0 -3 -23 -2 -50z"
       id="path134"
       style="fill:#cd853f" />
    <path
       d="M3357 4953 c-3 -5 -10 -42 -17 -83 -43 -262 -250 -587 -448 -703 -127 -74 -294 -115 -421 -102 l-67 7 -12 -60 c-14 -68 -67 -204 -94 -244 -19 -27 -18 -27 4 -42 70 -46 203 -59 318 -32 54 12 55 13 58 52 2 22 12 49 24 61 38 41 138 41 138 -1 0 -42 14 -50 51 -30 74 37 157 99 207 152 103 111 250 348 320 517 37 91 78 259 87 360 14 156 15 155 -74 155 -38 0 -72 -3 -74 -7z m-112 -563 c23 -25 23 -91 1 -126 -10 -14 -33 -32 -51 -40 -58 -24 -165 -14 -165 15 0 13 99 116 139 146 42 30 53 31 76 5z"
       id="path136"
       style="fill:#556b2f" />
    <path
       d="M3154 4330 c-66 -69 -66 -74 -8 -67 53 6 74 25 74 66 0 55 -15 55 -66 1z"
       id="path138"
       style="fill:#008000" />
    <path
       d="M3566 4953 c-10 -10 -7 -83 3 -83 9 0 75 70 69 75 -9 7 -66 13 -72 8z"
       id="path140"
       style="fill:#008000" />
    <path
       d="M5309 4888 c-42 -61 -98 -138 -122 -168 -7 -8 -23 -31 -37 -50 -14 -19 -30 -42 -37 -50 -7 -8 -58 -73 -114 -145 -56 -71 -105 -132 -108 -135 -3 -3 -28 -32 -56 -65 -27 -33 -64 -76 -82 -95 -17 -19 -40 -45 -51 -58 -22 -26 -167 -185 -197 -217 -11 -12 -51 -55 -90 -96 -38 -41 -144 -153 -235 -249 -152 -161 -235 -249 -319 -340 -48 -52 -113 -149 -106 -160 3 -5 33 21 67 58 34 37 102 110 152 162 126 132 267 288 356 395 41 49 89 106 106 125 59 66 319 355 360 400 24 25 53 59 65 75 13 17 26 32 29 35 4 3 39 46 78 97 40 50 128 141 195 201 182 164 237 231 237 285 -1 24 -22 57 -37 57 -6 0 -30 -28 -54 -62z"
       id="path142"
       style="fill:#8b4513" />
    <path
       d="M3676 4919 c-15 -12 -49 -47 -75 -79 -45 -54 -49 -64 -66 -154 -19 -110 -14 -131 48 -162 38 -20 137 -43 187 -44 l35 0 85 173 c46 94 88 180 92 189 6 14 -5 21 -65 39 -40 11 -83 25 -97 29 -14 5 -38 11 -55 13 -16 3 -37 8 -46 12 -8 3 -27 -4 -43 -16z"
       id="path144"
       style="fill:#6b8e23" />
    <path
       d="M7678 4886 c-21 -30 -23 -43 -20 -130 2 -53 7 -96 12 -96 5 0 21 17 35 37 21 32 25 49 25 108 0 76 -7 115 -21 115 -4 0 -19 -15 -31 -34z"
       id="path146"
       style="fill:#8b4513" />
    <path
       d="M1120 4876 c0 -3 15 -37 33 -78 39 -84 54 -125 60 -153 2 -15 9 -8 27 30 13 28 32 62 42 77 l18 27 -42 29 c-64 44 -138 80 -138 68z"
       id="path148"
       style="fill:#00ff00" />
    <path
       d="M2332 4850 c-18 -8 -21 -15 -16 -37 4 -16 11 -32 15 -37 5 -6 9 -21 9 -35 0 -15 5 -33 10 -41 7 -12 13 -11 36 10 36 33 84 100 84 116 0 13 -60 34 -95 33 -11 0 -30 -4 -43 -9z"
       id="path150"
       style="fill:#228b22" />
    <path
       d="M5520 4832 c0 -11 6 -24 13 -30 11 -9 88 -28 212 -52 64 -13 147 -30 193 -40 23 -6 62 -14 87 -20 25 -5 65 -14 90 -20 25 -5 64 -14 88 -19 23 -6 60 -14 82 -19 22 -6 72 -17 112 -26 121 -26 366 -86 399 -96 17 -6 39 -10 50 -10 11 0 25 -5 31 -11 6 -6 28 -9 49 -7 31 2 40 7 42 25 4 25 -22 35 -148 57 -104 19 -174 33 -220 45 -19 6 -51 14 -70 19 -19 6 -77 24 -128 41 -113 38 -183 53 -377 86 -246 42 -444 79 -487 91 -13 4 -18 0 -18 -14z"
       id="path152"
       style="fill:#cd853f" />
    <path
       d="M4036 4824 c-3 -9 -6 -17 -6 -20 0 -5 33 8 55 23 18 12 17 13 -12 13 -19 0 -33 -6 -37 -16z"
       id="path154"
       style="fill:#6b8e23" />
    <path
       d="M4270 4813 c-8 -2 -21 -7 -29 -9 -12 -4 -9 -10 10 -28 38 -35 130 -96 145 -96 12 0 55 34 113 88 18 17 6 27 -51 41 -47 11 -160 14 -188 4z"
       id="path156"
       style="fill:#008000" />
    <path
       d="M7563 4768 l-52 -53 9 -65 c11 -77 20 -110 30 -110 4 0 26 20 49 45 l41 45 0 95 c0 71 -3 95 -13 95 -7 0 -36 -24 -64 -52z"
       id="path158"
       style="fill:#cd853f" />
    <path
       d="M2501 4767 c-29 -43 -83 -96 -117 -115 -15 -9 -15 -14 5 -71 12 -35 27 -97 33 -139 6 -42 14 -80 18 -85 10 -12 70 39 116 100 24 32 65 100 90 151 l47 93 -23 24 c-20 22 -121 85 -134 85 -3 0 -18 -20 -35 -43z"
       id="path160"
       style="fill:#228b22" />
    <path
       d="M1878 4794 c-17 -16 -1 -103 25 -138 13 -17 17 -15 59 29 33 36 50 46 63 41 15 -5 17 -14 11 -59 -4 -28 -11 -65 -16 -82 -25 -86 -23 -102 16 -145 20 -22 40 -40 45 -40 16 0 20 67 9 173 -15 146 -26 178 -72 200 -40 20 -129 33 -140 21z"
       id="path162"
       style="fill:#006400" />
    <path
       d="M5484 4770 c16 -97 18 -159 6 -194 -17 -54 -6 -54 19 -1 31 66 25 144 -17 210 -12 18 -12 16 -8 -15z"
       id="path164"
       style="fill:#6b8e23" />
    <path
       d="M1792 4763 c5 -25 28 -28 28 -4 0 12 -6 21 -16 21 -9 0 -14 -7 -12 -17z"
       id="path166" />
    <path
       d="M3165 4733 c8 -27 15 -65 15 -85 0 -20 5 -40 10 -43 12 -8 62 100 58 124 -2 9 -19 24 -38 33 -56 27 -61 24 -45 -29z"
       id="path168"
       style="fill:#008000" />
    <path
       d="M4053 4740 c-52 -24 -83 -45 -83 -54 0 -38 151 -166 195 -166 35 0 195 97 195 118 0 4 -12 13 -28 19 -15 7 -57 37 -94 68 -36 30 -74 55 -85 55 -10 0 -55 -18 -100 -40z"
       id="path170"
       style="fill:#008000" />
    <path
       d="M5559 4765 c-11 -11 4 -66 21 -75 55 -29 321 -101 490 -132 30 -5 75 -14 100 -19 52 -10 142 -27 218 -40 77 -13 151 -27 207 -38 28 -6 73 -15 100 -20 28 -6 70 -15 95 -20 142 -31 144 -31 152 -19 14 22 4 53 -17 56 -11 1 -37 7 -57 12 -160 42 -454 112 -586 141 -45 10 -78 17 -177 39 -25 6 -65 15 -90 20 -25 6 -65 15 -90 20 -138 31 -169 37 -280 59 -27 5 -57 12 -66 15 -8 4 -17 4 -20 1z"
       id="path172"
       style="fill:#a0522d" />
    <path
       d="M1679 4721 c-24 -15 -57 -42 -73 -59 -32 -35 -34 -33 54 -50 44 -8 121 -38 182 -70 4 -2 14 10 22 26 13 26 13 32 1 48 -12 16 -16 17 -24 5 -14 -22 -32 -2 -61 68 -15 38 -31 61 -41 61 -8 0 -35 -13 -60 -29z"
       id="path174"
       style="fill:#006400" />
    <path
       d="M5340 4711 c-19 -20 -80 -77 -135 -126 -154 -137 -287 -279 -455 -485 -45 -56 -265 -316 -285 -336 -33 -36 -106 -116 -220 -244 -71 -80 -137 -152 -145 -160 -8 -8 -51 -55 -94 -105 -44 -49 -104 -116 -135 -147 -30 -32 -53 -59 -50 -62 11 -11 112 25 129 47 38 48 174 225 240 312 25 33 173 177 219 214 41 33 127 127 216 236 97 119 198 230 334 365 181 181 183 183 280 330 49 75 125 160 142 160 11 0 12 27 2 33 -5 3 -24 -12 -43 -32z"
       id="path176"
       style="fill:#a0522d" />
    <path
       d="M5338 4642 c-24 -26 -76 -95 -115 -153 -52 -77 -113 -148 -230 -265 -169 -169 -246 -254 -364 -399 -80 -99 -172 -193 -292 -299 -43 -37 -106 -105 -140 -150 -33 -44 -66 -86 -72 -92 -5 -6 -50 -65 -100 -130 -49 -65 -113 -141 -142 -167 -47 -44 -51 -51 -41 -73 6 -13 14 -24 18 -24 14 0 456 457 533 550 99 120 103 125 306 400 31 41 60 80 66 86 5 6 39 48 75 92 65 81 322 341 415 421 28 24 80 63 118 88 49 34 67 52 67 68 0 34 -28 95 -44 95 -7 0 -33 -21 -58 -48z"
       id="path178"
       style="fill:#a0522d" />
    <path
       d="M7432 4647 c-40 -41 -51 -65 -35 -81 14 -13 33 -82 33 -118 0 -21 3 -38 8 -38 4 1 25 24 46 52 l39 50 -12 67 c-19 104 -21 111 -29 111 -4 0 -27 -19 -50 -43z"
       id="path180"
       style="fill:#8b4513" />
    <path
       d="M5572 4658 c-15 -19 -26 -98 -13 -98 38 0 224 -23 261 -32 25 -6 106 -30 180 -54 211 -67 288 -83 550 -114 105 -13 287 -38 337 -47 25 -4 34 -1 39 12 10 26 -9 49 -47 56 -19 4 -59 12 -89 19 -96 21 -289 58 -390 75 -32 5 -63 11 -195 36 -27 5 -84 16 -125 24 -41 9 -100 20 -130 26 -30 6 -86 19 -125 30 -38 11 -88 24 -110 31 -75 21 -110 32 -121 40 -6 5 -16 3 -22 -4z"
       id="path182"
       style="fill:#8b4513" />
    <path
       d="M2698 4597 l-28 -62 35 -103 c38 -114 44 -162 20 -162 -20 0 -114 60 -139 88 l-18 21 -50 -40 c-27 -21 -56 -39 -64 -39 -16 0 -20 -18 -29 -112 l-7 -68 94 0 c136 1 269 38 365 103 47 32 48 33 47 85 -2 56 -46 162 -105 249 -34 51 -79 103 -88 103 -3 0 -18 -29 -33 -63z"
       id="path184"
       style="fill:#228b22" />
    <path
       d="M1931 4579 c-23 -29 -41 -57 -40 -63 0 -18 57 -58 64 -46 4 6 10 36 15 68 4 31 11 65 15 75 14 34 -14 16 -54 -34z"
       id="path186"
       style="fill:#006400" />
    <path
       d="M3900 4567 c-53 -95 -56 -91 52 -85 52 3 102 9 112 15 15 8 12 13 -23 36 -22 15 -52 42 -68 62 -15 19 -30 35 -33 35 -3 0 -21 -28 -40 -63z"
       id="path188"
       style="fill:#008000" />
    <path
       d="M1529 4563 c-8 -10 -28 -37 -43 -61 -16 -23 -46 -58 -68 -77 -42 -38 -40 -40 33 -50 143 -19 314 -140 381 -269 53 -104 70 -168 71 -271 0 -138 -34 -238 -119 -347 -48 -62 -45 -68 24 -41 36 14 45 14 52 3 12 -19 3 -32 -79 -124 -73 -81 -79 -93 -61 -127 15 -26 34 -24 85 11 106 73 243 317 294 522 26 105 29 290 6 386 -49 209 -234 394 -446 446 -84 21 -112 20 -130 -1z"
       id="path190"
       style="fill:#6b8e23" />
    <path
       d="M1133 4527 c-76 -82 -128 -220 -135 -355 -4 -70 -3 -73 17 -69 11 3 47 12 80 21 33 8 77 15 98 16 l38 0 -16 31 c-45 86 -69 276 -44 347 18 53 5 56 -38 9z"
       id="path192"
       style="fill:#6b8e23" />
    <path
       d="M7332 4535 c-37 -42 -37 -42 -14 -68 13 -15 17 -39 19 -106 0 -47 2 -90 2 -96 1 -5 17 14 36 42 30 45 35 60 35 111 0 61 -14 118 -35 140 -10 11 -18 6 -43 -23z"
       id="path194"
       style="fill:#8b4513" />
    <path
       d="M5380 4507 c-123 -83 -359 -308 -507 -482 -67 -80 -195 -246 -268 -350 -27 -38 -52 -72 -55 -75 -3 -3 -17 -21 -31 -40 -15 -19 -35 -45 -45 -57 -11 -12 -37 -43 -59 -70 -80 -96 -217 -242 -379 -403 -91 -91 -166 -168 -166 -172 0 -19 29 -4 75 40 28 26 102 91 165 144 136 114 171 150 239 243 28 39 55 75 60 81 4 5 14 21 21 35 7 13 16 26 20 29 3 3 25 32 48 65 51 75 65 92 356 431 267 310 353 403 434 466 89 70 145 124 141 135 -2 7 -23 -2 -49 -20z"
       id="path196"
       style="fill:#8b4513" />
    <path
       d="M5513 4501 c-7 -11 -25 -22 -42 -26 -16 -3 -40 -15 -53 -27 -13 -11 -34 -29 -47 -39 -23 -19 -24 -20 -8 -57 8 -20 19 -50 22 -67 l7 -30 30 35 c62 73 151 214 141 224 -13 12 -39 5 -50 -13z"
       id="path198"
       style="fill:#006400" />
    <path
       d="M2361 4446 c-2 -114 -27 -301 -53 -401 -32 -121 -68 -201 -130 -292 -15 -23 -31 -57 -35 -75 l-6 -33 23 20 c28 25 88 114 118 175 71 148 112 320 111 470 -1 58 -7 128 -14 155 l-13 50 -1 -69z"
       id="path200"
       style="fill:#006400" />
    <path
       d="M3469 4453 c-13 -32 -29 -69 -36 -83 -21 -41 -16 -54 51 -127 97 -104 226 -163 359 -163 l65 0 44 54 c24 29 101 119 172 200 70 81 126 149 124 151 -2 3 -38 -6 -79 -19 -211 -67 -504 -58 -631 21 -21 13 -39 23 -42 23 -2 0 -14 -26 -27 -57z"
       id="path202"
       style="fill:#6b8e23" />
    <path
       d="M5617 4488 c-43 -70 -87 -146 -87 -152 0 -3 27 -6 61 -6 45 0 74 7 116 27 54 27 143 97 143 113 0 10 -75 27 -157 35 -57 6 -62 5 -76 -17z"
       id="path204"
       style="fill:#006400" />
    <path
       d="M7030 4497 c0 -25 30 -55 62 -60 18 -3 56 -11 83 -17 28 -6 66 -12 85 -13 30 -2 35 1 32 18 -6 32 -43 55 -92 55 -25 0 -70 7 -100 15 -67 18 -70 18 -70 2z"
       id="path206"
       style="fill:#8b4513" />
    <path
       d="M2615 4444 c-17 -26 -17 -27 19 -62 19 -20 38 -33 41 -30 7 7 -24 106 -35 113 -4 3 -16 -7 -25 -21z"
       id="path208"
       style="fill:#008000" />
    <path
       d="M5850 4409 c-30 -27 -88 -66 -129 -87 -66 -32 -82 -36 -147 -36 l-74 1 0 -33 c0 -53 55 -91 170 -120 79 -19 111 -17 186 11 80 30 168 92 248 174 l60 60 -28 11 c-15 5 -33 10 -39 10 -7 0 -50 14 -97 30 -47 16 -87 30 -90 29 -3 0 -30 -22 -60 -50z"
       id="path210"
       style="fill:#6b8e23" />
    <path
       d="M7498 4413 c-19 -27 -47 -67 -61 -90 -30 -48 -92 -113 -108 -113 -12 0 -10 -15 15 -150 9 -47 19 -129 22 -182 l4 -98 44 -46 43 -47 51 39 c70 53 74 74 76 329 1 217 -17 405 -39 405 -6 0 -27 -21 -47 -47z"
       id="path212"
       style="fill:#6b8e23" />
    <path
       d="M6982 4390 c-21 -67 -17 -80 22 -80 19 0 37 4 41 9 6 11 -29 104 -41 108 -5 2 -15 -15 -22 -37z"
       id="path214"
       style="fill:#cd853f" />
    <path
       d="M7070 4407 c0 -21 17 -29 126 -66 49 -16 93 -26 98 -21 5 5 6 20 2 33 -4 19 -14 26 -43 31 -42 7 -112 21 -155 32 -22 5 -28 3 -28 -9z"
       id="path216"
       style="fill:#cd853f" />
    <path
       d="M2040 4355 c26 -38 35 -46 38 -32 2 11 -5 26 -15 35 -49 45 -55 44 -23 -3z"
       id="path218" />
    <path
       d="M6194 4338 c-60 -69 -59 -58 -8 -124 25 -32 48 -61 50 -63 2 -2 4 44 4 102 0 115 -8 129 -46 85z"
       id="path220"
       style="fill:#008000" />
    <path
       d="M5241 4294 c-81 -81 -83 -107 -8 -156 28 -19 83 -63 120 -97 38 -34 71 -60 73 -58 3 2 -9 39 -25 80 -17 42 -40 117 -52 166 -32 137 -35 138 -108 65z"
       id="path222"
       style="fill:#008000" />
    <path
       d="M6292 4196 c6 -170 1 -187 -44 -138 -14 15 -44 54 -66 87 -52 75 -68 95 -76 95 -3 0 -33 -22 -66 -48 -151 -122 -283 -145 -456 -81 -53 20 -126 78 -136 109 -4 13 -8 12 -26 -4 l-21 -18 26 -67 c71 -183 87 -251 63 -266 -6 -4 -60 41 -120 99 -61 58 -117 106 -125 106 -8 0 -40 -7 -72 -15 -31 -8 -82 -15 -113 -15 l-56 0 -106 -127 c-58 -71 -115 -137 -125 -148 -15 -16 -121 -141 -212 -250 -9 -11 -58 -81 -108 -155 -124 -182 -156 -216 -357 -384 -95 -80 -178 -151 -185 -159 -22 -27 13 -85 101 -166 82 -77 113 -100 135 -101 7 0 27 26 46 58 46 78 64 77 87 -9 9 -36 20 -71 24 -77 9 -15 65 -15 103 -1 30 11 155 128 148 139 -7 11 -35 199 -35 234 0 63 38 54 125 -28 33 -31 61 -56 62 -56 2 0 3 7 3 16 0 33 61 141 102 183 108 107 245 129 353 55 21 -14 41 -22 44 -17 4 4 17 35 30 68 36 92 70 147 89 143 15 -3 18 -26 26 -166 l9 -162 51 0 c32 0 73 -10 111 -26 94 -41 94 -41 151 29 79 98 100 79 65 -58 -20 -75 -20 -79 -4 -98 36 -39 46 -38 113 14 74 58 166 111 230 132 27 9 66 35 97 66 55 53 121 92 191 110 47 13 50 21 23 77 -24 50 -51 189 -51 260 0 53 -3 58 -74 152 -40 53 -92 127 -115 163 -73 117 -56 128 102 65 62 -25 118 -46 123 -46 5 0 24 29 41 64 18 35 46 80 62 99 17 19 31 39 31 44 0 5 -16 39 -35 75 -39 74 -79 182 -90 245 -5 35 -11 42 -37 47 -64 13 -61 21 -56 -148z"
       id="path224"
       style="fill:none" />
    <path
       d="M7092 4339 c5 -16 40 -27 88 -28 l35 0 -31 13 c-52 23 -97 30 -92 15z"
       id="path226"
       style="fill:#a0522d" />
    <path
       d="M1242 4320 c-26 -11 -24 -29 13 -120 28 -66 58 -87 93 -64 37 24 180 64 255 71 66 6 67 6 50 25 -9 11 -51 35 -92 55 -68 33 -82 36 -185 39 -61 2 -121 0 -134 -6z"
       id="path228"
       style="fill:#006400" />
    <path
       d="M6448 4325 c-8 -8 72 -280 90 -305 2 -2 14 9 26 25 41 52 60 70 116 114 30 24 55 46 55 50 -1 3 -6 24 -13 47 l-12 40 -92 12 c-51 7 -109 15 -128 18 -20 3 -38 2 -42 -1z"
       id="path230"
       style="fill:#006400" />
    <path
       d="M7220 4304 c0 -5 16 -17 35 -26 28 -14 35 -15 35 -4 0 8 -8 16 -17 19 -10 2 -26 8 -35 12 -10 4 -18 3 -18 -1z"
       id="path232" />
    <path
       d="M6770 4274 c0 -38 14 -46 48 -29 36 19 50 35 29 35 -8 0 -29 3 -46 6 -26 5 -31 3 -31 -12z"
       id="path234"
       style="fill:#228b22" />
    <path
       d="M6978 4255 c-72 -20 -185 -79 -261 -136 -58 -44 -68 -55 -63 -75 5 -19 -2 -28 -37 -52 -103 -71 -169 -177 -203 -324 -24 -99 -24 -289 -1 -387 30 -124 58 -161 123 -161 54 0 158 -24 219 -50 26 -11 50 -20 55 -20 4 0 -8 37 -27 83 -50 118 -83 252 -93 375 -5 59 -12 121 -15 138 -9 43 17 101 52 116 15 7 53 29 83 49 88 58 162 81 260 81 81 0 185 -26 215 -53 17 -17 25 -9 25 27 0 38 -15 152 -30 224 -5 25 -14 70 -20 101 -10 53 -13 57 -49 68 -50 14 -173 13 -233 -4z"
       id="path236"
       style="fill:#556b2f" />
    <path
       d="M3370 4250 c0 -6 -20 -44 -45 -85 -25 -41 -48 -80 -51 -88 -6 -16 -5 -16 167 -38 95 -12 209 -6 209 11 0 5 -31 25 -69 45 -63 33 -150 108 -173 149 -10 18 -38 22 -38 6z"
       id="path238"
       style="fill:#008000" />
    <path
       d="M5096 4143 l-36 -38 57 -3 c73 -4 86 9 46 48 l-31 31 -36 -38z"
       id="path240"
       style="fill:#008000" />
    <path
       d="M1580 4153 c-41 -8 -163 -42 -167 -47 -3 -2 22 -22 55 -45 60 -41 98 -79 128 -130 15 -25 24 -29 83 -34 36 -3 88 -15 114 -26 68 -29 71 -28 64 22 -14 100 -67 205 -122 241 -27 18 -111 28 -155 19z"
       id="path242"
       style="fill:#006400" />
    <path
       d="M1124 4080 c-206 -41 -412 -220 -537 -468 -63 -125 -81 -186 -112 -386 -6 -36 18 -142 46 -201 31 -66 99 -127 193 -174 82 -41 101 -46 129 -35 13 5 11 14 -13 57 -15 29 -40 87 -55 130 -34 95 -45 86 -45 -35 0 -49 -4 -88 -9 -88 -15 0 -34 175 -27 251 21 213 103 378 259 525 44 41 100 89 125 106 79 55 190 86 207 58 3 -5 1 -10 -4 -10 -17 0 -13 -29 8 -58 32 -47 68 -125 81 -180 10 -44 16 -53 39 -58 44 -11 120 -53 160 -89 21 -19 43 -35 49 -35 36 0 42 287 7 385 -33 93 -58 137 -109 187 -100 100 -252 145 -392 118z m379 -248 c22 -24 38 -151 30 -239 -10 -113 -31 -116 -83 -13 -54 108 -60 172 -19 239 21 35 48 40 72 13z"
       id="path244"
       style="fill:#556b2f" />
    <path
       d="M1455 3766 c-16 -24 -16 -32 -5 -69 7 -23 18 -53 26 -67 12 -23 13 -18 13 55 1 97 -9 119 -34 81z"
       id="path246"
       style="fill:#006400" />
    <path
       d="M544 4055 c4 -11 11 -42 16 -70 8 -44 31 -137 46 -187 8 -27 16 -22 57 31 l36 50 -59 79 c-33 43 -69 87 -82 98 -21 19 -21 19 -14 -1z"
       id="path248"
       style="fill:#00ff00" />
    <path
       d="M7638 3938 c-2 -62 -3 -114 -2 -116 1 -2 31 13 68 33 71 40 91 38 82 -5 -6 -30 -71 -143 -116 -200 -15 -19 -40 -57 -55 -85 -15 -27 -42 -77 -60 -110 l-33 -60 25 -105 c23 -94 26 -126 26 -300 1 -139 -4 -216 -15 -267 -8 -40 -11 -73 -6 -73 17 0 175 166 215 225 123 184 170 372 160 629 -4 110 -11 160 -31 229 -44 147 -106 249 -180 292 -72 42 -74 40 -78 -87z"
       id="path250"
       style="fill:#556b2f" />
    <path
       d="M3685 4007 c-32 -17 -59 -23 -135 -25 l-95 -4 -39 -53 c-55 -76 -91 -109 -112 -101 -15 6 -16 18 -12 96 4 72 3 90 -9 94 -33 13 -51 3 -93 -55 -77 -106 -194 -197 -299 -234 -45 -15 -52 -41 -49 -165 2 -75 -1 -95 -12 -95 -7 0 -39 44 -69 97 -31 53 -59 99 -62 102 -3 4 -23 -1 -45 -10 -101 -42 -233 -37 -347 13 l-58 26 -15 -21 c-16 -24 -20 -28 -92 -95 -62 -57 -96 -119 -88 -156 22 -90 36 -172 36 -209 0 -65 -21 -65 -88 1 l-57 56 -57 -54 c-32 -29 -73 -59 -93 -66 -41 -15 -44 -24 -12 -33 35 -9 47 -7 47 9 0 43 61 23 187 -61 l84 -56 59 31 c126 68 215 63 294 -14 25 -25 52 -45 60 -45 8 0 32 25 53 55 46 66 73 73 72 18 0 -21 -4 -64 -8 -95 -7 -58 0 -88 22 -88 14 0 123 86 225 176 l72 65 0 54 c0 29 -7 108 -16 175 -16 124 -12 149 19 137 19 -7 113 -133 135 -180 13 -29 22 -37 37 -33 51 12 111 32 125 41 14 9 122 136 534 629 23 27 47 56 55 63 19 19 13 22 -55 28 -49 4 -66 1 -99 -18z"
       id="path252"
       style="fill:none" />
    <path
       d="M3339 3998 c-6 -17 -4 -100 2 -103 4 -3 22 15 39 40 l31 45 -26 10 c-25 10 -44 13 -46 8z"
       id="path254"
       style="fill:#008000" />
    <path
       d="M1653 3829 c3 -13 11 -42 18 -64 6 -22 14 -101 18 -175 l6 -135 24 25 c67 70 127 192 133 269 3 33 0 36 -54 64 -31 16 -78 32 -104 35 -45 5 -47 4 -41 -19z"
       id="path256"
       style="fill:#006400" />
    <path
       d="M6993 3838 c-68 -10 -122 -36 -205 -99 -51 -38 -68 -57 -68 -75 0 -13 2 -24 5 -24 3 0 29 12 58 28 43 22 65 27 127 27 96 0 135 -18 220 -104 134 -135 194 -311 194 -571 0 -238 -42 -388 -156 -556 -26 -39 -48 -77 -48 -85 0 -32 -32 -135 -60 -192 -16 -33 -27 -64 -24 -68 9 -15 92 -21 126 -10 36 12 99 66 140 121 68 90 151 291 195 470 24 95 26 123 26 295 -1 132 -6 215 -17 270 -33 166 -25 193 129 428 31 49 55 91 52 94 -7 6 -113 -64 -179 -118 -26 -22 -52 -39 -58 -39 -6 0 -43 32 -83 71 -113 110 -239 157 -374 137z"
       id="path258"
       style="fill:#6b8e23" />
    <path
       d="M2731 3767 c-9 -18 -9 -31 4 -67 9 -25 23 -56 32 -70 9 -14 23 -36 30 -50 11 -22 13 -14 13 70 0 123 -5 140 -39 140 -18 0 -32 -8 -40 -23z"
       id="path260"
       style="fill:#008000" />
    <path
       d="M1210 3733 c0 -51 37 -195 53 -205 11 -6 51 -2 69 9 19 10 -88 233 -113 233 -5 0 -9 -17 -9 -37z"
       id="path262"
       style="fill:#006400" />
    <path
       d="M6217 3741 c48 -76 114 -161 122 -157 5 3 11 27 15 53 13 90 14 87 -24 93 -19 3 -50 14 -69 23 -53 27 -67 23 -44 -12z"
       id="path264"
       style="fill:#008000" />
    <path
       d="M1081 3710 c-71 -56 -75 -82 -34 -262 9 -43 20 -78 24 -78 4 0 14 11 22 23 16 25 68 76 101 100 18 14 18 15 -3 78 -12 35 -24 90 -28 122 -4 36 -10 57 -19 57 -6 0 -35 -18 -63 -40z"
       id="path266"
       style="fill:#006400" />
    <path
       d="M6795 3638 c-16 -6 -36 -15 -42 -21 -29 -22 -8 -187 47 -372 17 -55 90 -238 99 -248 5 -5 20 6 35 24 26 31 26 32 9 58 -90 136 -124 203 -113 216 17 21 18 20 85 -30 70 -53 86 -56 80 -17 -28 182 -44 249 -73 313 -11 24 -23 54 -26 67 -8 25 -47 29 -101 10z"
       id="path268"
       style="fill:#006400" />
    <path
       d="M6950 3635 c0 -3 4 -13 10 -23 10 -19 44 -120 55 -167 5 -16 15 -81 24 -144 16 -113 17 -115 45 -122 37 -10 46 -24 46 -74 0 -57 -33 -123 -64 -131 -27 -6 -38 -3 -68 18 -14 10 -20 8 -36 -12 l-19 -24 48 -59 c57 -67 79 -108 105 -189 10 -32 21 -58 26 -58 12 0 34 50 54 125 27 100 27 451 1 575 -30 138 -40 162 -84 207 -50 51 -143 101 -143 78z"
       id="path270"
       style="fill:#006400" />
    <path
       d="M958 3593 c-22 -25 -24 -128 -4 -205 23 -87 51 -161 63 -165 21 -7 23 71 2 157 -12 47 -26 118 -32 159 -12 71 -13 73 -29 54z"
       id="path272"
       style="fill:#006400" />
    <path
       d="M861 3467 c-32 -53 -70 -143 -77 -185 -7 -45 10 -173 32 -238 85 -253 273 -458 481 -524 63 -20 69 -13 77 82 6 77 26 179 41 220 7 18 -2 24 -112 66 l-52 20 -27 -23 c-38 -33 -69 -38 -105 -20 -38 20 -59 68 -59 135 0 41 -6 58 -34 98 -65 90 -126 263 -126 357 0 54 -11 57 -39 12z"
       id="path274"
       style="fill:#6b8e23" />
    <path
       d="M1239 3461 c-42 -14 -75 -39 -103 -80 -29 -42 -33 -56 -12 -48 24 9 35 -15 41 -88 8 -83 25 -153 42 -167 17 -14 17 4 1 48 -10 27 -8 36 10 66 27 44 88 73 135 64 18 -3 47 -20 65 -39 32 -34 82 -134 82 -167 0 -33 19 -33 57 1 20 17 57 41 81 51 41 19 44 22 38 51 -21 103 -122 231 -221 282 -59 30 -165 43 -216 26z"
       id="path276"
       style="fill:#6b8e23" />
    <path
       d="M1983 3364 c-11 -16 -22 -34 -26 -40 -3 -6 15 -28 40 -49 l46 -38 -7 47 c-4 26 -13 61 -20 78 l-13 30 -20 -28z"
       id="path278"
       style="fill:#008000" />
    <path
       d="M1683 3358 c-38 -13 -39 -15 -13 -48 l19 -25 30 35 c17 19 30 38 31 43 0 9 -27 7 -67 -5z"
       id="path280"
       style="fill:#006400" />
    <path
       d="M2990 3261 c0 -50 3 -91 8 -91 15 1 62 50 62 65 0 18 -46 101 -61 111 -5 3 -9 -34 -9 -85z"
       id="path282"
       style="fill:#00ff00" />
    <path
       d="M1081 3264 c0 -11 3 -14 6 -6 3 7 2 16 -1 19 -3 4 -6 -2 -5 -13z"
       id="path284" />
    <path
       d="M3190 3226 c-54 -19 -115 -64 -225 -167 -237 -222 -479 -398 -610 -444 -41 -14 -131 -34 -156 -35 -19 0 -28 -7 -33 -22 -8 -32 -7 -211 2 -224 12 -17 99 -37 135 -30 57 11 169 70 261 140 92 69 118 92 327 295 179 173 247 221 368 260 40 13 155 15 179 2 9 -4 29 -11 44 -15 27 -6 27 -5 21 26 -10 55 -55 137 -94 173 -58 52 -144 69 -219 41z"
       id="path286"
       style="fill:#556b2f" />
    <path
       d="M1062 3180 c0 -19 2 -27 5 -17 2 9 2 25 0 35 -3 9 -5 1 -5 -18z"
       id="path288" />
    <path
       d="M1296 3197 c-24 -18 -38 -98 -30 -179 7 -73 2 -68 107 -102 63 -21 71 -20 86 8 23 42 -42 224 -95 265 -31 24 -44 26 -68 8z"
       id="path290"
       style="fill:#006400" />
    <path
       d="M7261 3046 c-1 -158 -11 -233 -44 -331 -20 -60 -57 -128 -77 -140 -5 -3 -10 -26 -10 -51 0 -25 4 -43 9 -40 19 12 80 133 100 201 38 120 55 285 41 390 -6 50 -13 97 -15 105 -1 8 -3 -52 -4 -134z"
       id="path292"
       style="fill:#008000" />
    <path
       d="M6960 3163 c1 -5 14 -30 31 -58 16 -27 35 -60 41 -72 22 -44 58 -16 58 44 0 38 -10 50 -45 59 -17 4 -42 13 -57 21 -16 7 -28 10 -28 6z"
       id="path294"
       style="fill:#008000" />
    <path
       d="M1117 3133 c-13 -20 -19 -168 -8 -195 15 -39 58 -48 83 -18 21 26 17 45 -18 101 -12 19 -29 55 -37 79 -8 23 -17 38 -20 33z"
       id="path296"
       style="fill:#006400" />
    <path
       d="M427 3104 c-10 -27 17 -176 48 -267 47 -141 138 -285 180 -287 6 0 15 10 20 23 16 35 48 33 80 -4 21 -26 26 -40 22 -66 -5 -31 -4 -33 30 -39 90 -17 296 21 320 59 4 6 -6 20 -22 31 -49 35 -144 127 -182 177 -36 48 -36 48 -84 42 -151 -18 -363 152 -399 320 -6 28 -7 29 -13 11z"
       id="path298"
       style="fill:#6b8e23" />
    <path
       d="M5256 3010 c-20 -62 -36 -120 -36 -129 0 -32 30 -62 58 -59 21 2 28 10 34 38 8 39 -1 228 -12 249 -5 8 -21 -29 -44 -99z"
       id="path300"
       style="fill:#008000" />
    <path
       d="M6425 3065 c-38 -6 -83 -17 -100 -24 -37 -15 -115 -64 -115 -72 0 -3 34 -4 75 -1 74 5 159 -7 240 -33 50 -16 168 -79 211 -112 47 -35 99 -119 129 -204 23 -67 27 -60 9 14 -6 24 -4 28 11 25 20 -3 45 -73 45 -126 0 -123 -154 -218 -274 -168 -61 26 -125 115 -126 177 0 14 -2 28 -5 31 -8 8 -149 -32 -156 -44 -4 -6 -12 -37 -19 -70 -30 -139 52 -344 170 -428 27 -19 32 -20 57 -6 31 16 188 146 215 177 38 44 89 -7 96 -96 2 -30 7 -55 9 -55 15 0 86 92 112 144 46 91 66 177 65 286 0 268 -143 482 -379 565 -23 8 -175 35 -190 34 -5 -1 -41 -7 -80 -14z"
       id="path302"
       style="fill:#6b8e23" />
    <path
       d="M1700 3063 c-127 -20 -227 -180 -270 -429 -16 -92 -8 -308 15 -394 52 -195 157 -322 335 -408 116 -56 236 -96 320 -107 l55 -7 -56 59 c-31 32 -71 85 -89 116 -27 48 -41 62 -88 85 -75 36 -172 132 -209 207 -54 108 -68 180 -68 370 0 153 2 175 22 217 33 72 93 95 168 64 58 -25 41 -62 -20 -45 -16 5 -38 6 -48 3 -13 -4 -5 -12 35 -31 29 -15 65 -35 80 -45 37 -26 57 -23 64 10 3 15 7 33 10 40 2 7 -7 39 -19 70 -13 31 -29 76 -36 99 -16 48 -73 111 -108 118 -47 10 -69 12 -93 8z"
       id="path304"
       style="fill:#556b2f" />
    <path
       d="M1915 3043 c3 -10 20 -57 37 -105 17 -48 34 -85 39 -82 5 3 18 22 29 42 11 20 27 47 35 58 15 20 14 23 -22 44 -111 66 -130 73 -118 43z"
       id="path306"
       style="fill:#008000" />
    <path
       d="M3545 3043 c3 -10 9 -39 12 -65 4 -30 11 -48 19 -48 24 0 145 63 141 73 -7 21 -92 56 -136 57 -37 0 -42 -2 -36 -17z"
       id="path308"
       style="fill:#006400" />
    <path
       d="M4965 3048 c-50 -18 -113 -66 -144 -111 -35 -51 -76 -136 -68 -143 3 -3 25 3 49 14 67 31 139 53 240 76 22 5 27 12 30 44 4 44 19 44 34 -1 15 -44 59 -51 74 -12 18 47 12 73 -22 98 -61 45 -130 57 -193 35z"
       id="path310"
       style="fill:#008000" />
    <path
       d="M2249 3025 c-107 -39 -159 -83 -208 -174 -44 -83 -69 -190 -83 -353 -30 -361 77 -669 264 -764 45 -23 49 -23 55 -7 3 10 15 31 26 46 16 23 25 28 54 25 29 -2 39 -10 54 -37 27 -51 31 -52 73 -28 53 29 55 43 9 51 -116 22 -219 108 -290 242 -50 97 -70 155 -89 259 -57 323 63 640 270 715 28 10 28 11 10 25 -23 18 -97 18 -145 0z"
       id="path312"
       style="fill:#556b2f" />
    <path
       d="M2564 2967 c-9 -24 6 -44 18 -22 7 11 6 21 -1 28 -7 7 -12 6 -17 -6z"
       id="path314" />
    <path
       d="M2354 2938 c-61 -42 -125 -132 -153 -218 -25 -80 -26 -90 -4 -90 40 0 153 36 213 67 85 46 190 121 190 137 0 20 -159 136 -187 136 -6 0 -32 -15 -59 -32z"
       id="path316"
       style="fill:#6b8e23" />
    <path
       d="M3265 2946 c-22 -7 -59 -22 -81 -34 -57 -29 -194 -139 -194 -156 0 -38 108 -257 169 -342 62 -87 132 -162 215 -233 112 -93 250 -191 269 -191 9 0 42 -9 73 -21 75 -28 159 -23 234 14 60 30 270 182 270 196 0 9 -72 21 -130 21 -44 0 -144 32 -220 70 -228 115 -388 364 -390 606 0 55 -2 62 -25 72 -34 15 -139 14 -190 -2z"
       id="path318"
       style="fill:#556b2f" />
    <path
       d="M3643 2897 c-50 -23 -95 -45 -98 -49 -9 -8 14 -118 24 -118 5 0 35 30 68 68 33 37 74 82 92 101 17 18 31 35 31 37 0 10 -32 -1 -117 -39z"
       id="path320"
       style="fill:#006400" />
    <path
       d="M6235 2910 c-363 -60 -706 -441 -797 -885 -55 -273 -51 -327 31 -412 63 -66 163 -83 228 -39 68 47 100 115 110 232 3 51 11 88 19 95 19 15 20 183 2 177 -22 -8 -118 -140 -154 -213 -19 -38 -38 -90 -42 -115 -10 -62 -36 -62 -40 1 -6 96 64 220 240 425 169 198 301 312 426 370 233 107 445 108 539 1 17 -19 33 -33 36 -30 11 10 -7 80 -36 142 -70 150 -224 240 -437 254 -41 3 -97 2 -125 -3z m5 -38 c0 -26 -114 -238 -155 -287 -55 -68 -138 -83 -184 -33 -59 62 -44 153 32 204 23 15 89 52 146 81 109 56 161 67 161 35z"
       id="path322"
       style="fill:#556b2f" />
    <path
       d="M6051 2766 c-58 -29 -115 -64 -128 -76 -47 -45 -15 -120 51 -120 24 0 42 9 69 37 36 35 121 187 115 204 -2 5 -50 -15 -107 -45z"
       id="path324"
       style="fill:#008000" />
    <path
       d="M3696 2794 c-52 -57 -84 -100 -80 -107 4 -7 20 -30 34 -52 45 -66 70 -122 70 -155 0 -17 4 -40 10 -50 20 -37 178 -137 243 -154 31 -7 33 0 16 72 -46 194 -171 542 -195 542 -6 0 -50 -43 -98 -96z"
       id="path326"
       style="fill:#6b8e23" />
    <path
       d="M5354 2839 c-5 -18 -21 -41 -36 -52 -33 -25 -69 -17 -111 25 l-31 30 -83 -7 c-142 -12 -282 -66 -428 -165 -115 -79 -210 -188 -290 -335 -15 -27 -31 -54 -36 -59 -18 -19 -9 -33 16 -28 55 10 23 -29 -76 -94 -56 -37 -116 -79 -133 -94 -96 -83 -219 -147 -301 -156 -30 -4 -55 -10 -55 -14 0 -9 61 -35 130 -56 58 -18 161 -18 228 0 181 49 437 262 513 430 14 29 5 46 -13 28 -15 -15 -38 -16 -38 -1 0 26 109 166 165 211 86 71 222 134 317 148 156 23 376 -35 452 -119 11 -12 24 -21 30 -21 6 0 32 29 58 63 26 34 61 75 78 92 16 16 30 34 30 40 0 14 -83 71 -161 110 -61 32 -139 55 -185 55 -26 0 -32 -5 -40 -31z"
       id="path328"
       style="fill:#556b2f" />
    <path
       d="M5661 2856 c-8 -10 -8 -16 2 -25 16 -13 27 -5 27 21 0 21 -13 23 -29 4z"
       id="path330" />
    <path
       d="M4584 2800 c2 -36 9 -75 13 -87 l8 -23 38 25 c20 14 37 30 37 36 0 6 -23 34 -51 62 l-51 52 6 -65z"
       id="path332"
       style="fill:#008000" />
    <path
       d="M1716 2741 c-13 -20 -30 -251 -20 -278 7 -20 28 -38 79 -65 39 -20 82 -39 96 -43 l26 -6 7 103 c4 57 9 121 12 143 l5 40 -91 58 c-93 58 -105 64 -114 48z"
       id="path334"
       style="fill:#6b8e23" />
    <path
       d="M2896 2671 c-36 -37 -37 -41 -23 -61 8 -12 38 -42 67 -66 41 -35 55 -42 66 -33 8 6 14 17 14 23 0 15 -73 176 -80 176 -3 0 -23 -18 -44 -39z"
       id="path336"
       style="fill:#006400" />
    <path
       d="M3991 2543 c11 -38 27 -97 36 -133 9 -36 21 -85 27 -110 l12 -45 81 -14 c45 -8 88 -11 96 -8 14 5 137 201 137 217 0 4 -36 10 -80 14 -140 11 -214 43 -308 133 -7 7 -15 13 -17 13 -2 0 5 -30 16 -67z"
       id="path338"
       style="fill:#6b8e23" />
    <path
       d="M2730 2513 c-52 -47 -114 -98 -138 -115 -24 -16 -42 -34 -40 -40 10 -29 156 -88 273 -109 75 -14 378 -19 391 -7 11 12 -23 44 -96 93 -77 52 -246 197 -275 235 l-20 27 -95 -84z"
       id="path340"
       style="fill:#6b8e23" />
    <path
       d="M5100 2516 c0 -81 1 -86 31 -115 39 -39 95 -72 188 -111 118 -48 120 -47 179 70 l50 99 -38 35 c-21 19 -53 42 -70 51 -54 28 -182 55 -262 55 l-78 0 0 -84z"
       id="path342"
       style="fill:#006400" />
    <path
       d="M5023 2580 c-38 -9 -125 -53 -173 -88 -77 -56 -99 -83 -111 -141 -13 -63 -51 -146 -96 -212 -60 -87 -195 -211 -283 -260 -22 -13 -40 -26 -40 -31 0 -17 108 -7 181 16 248 79 412 232 514 481 18 45 55 195 55 225 0 22 0 22 -47 10z"
       id="path344"
       style="fill:#6b8e23" />
    <path
       d="M4210 2561 c-14 -26 -13 -28 10 -34 24 -6 34 6 25 33 -8 25 -21 26 -35 1z"
       id="path346"
       style="fill:#6b8e23" />
    <path
       d="M6586 2528 c25 -94 102 -144 184 -119 46 13 47 18 21 69 -34 66 -95 102 -174 102 l-44 0 13 -52z"
       id="path348"
       style="fill:#006400" />
    <path
       d="M684 2506 c-14 -31 -24 -60 -21 -63 10 -9 76 37 83 59 4 14 -1 27 -15 41 l-20 21 -27 -58z"
       id="path350"
       style="fill:#00ff00" />
    <path
       d="M1190 2491 c0 -20 55 -141 82 -182 31 -46 83 -89 107 -89 10 0 12 9 7 33 -4 17 -9 66 -13 107 -6 84 -15 100 -49 100 -14 0 -49 9 -79 19 -30 11 -55 16 -55 12z"
       id="path352"
       style="fill:#008000" />
    <path
       d="M6223 2462 c-70 -42 -238 -183 -254 -214 -10 -19 -9 -20 33 -13 129 19 245 97 284 190 15 37 19 75 7 75 -5 0 -36 -17 -70 -38z"
       id="path354"
       style="fill:#006400" />
    <path
       d="M3032 2478 c2 -6 15 -18 28 -27 l24 -16 -18 28 c-18 27 -41 38 -34 15z"
       id="path356" />
    <path
       d="M1065 2445 c-16 -7 -38 -16 -48 -19 -18 -6 -18 -8 3 -41 12 -19 37 -65 55 -103 l34 -67 0 123 c1 67 -2 122 -6 121 -5 0 -21 -6 -38 -14z"
       id="path358"
       style="fill:#00ff00" />
    <path
       d="M1710 2357 c0 -38 24 -110 37 -114 13 -5 73 54 73 70 -1 6 -25 26 -55 44 l-55 31 0 -31z"
       id="path360"
       style="fill:#006400" />
    <path
       d="M5059 2313 c-44 -110 -102 -195 -201 -295 l-97 -98 32 -22 c27 -19 45 -23 107 -23 83 1 148 22 255 84 102 58 268 204 263 230 -3 13 -95 50 -126 51 -7 0 -42 -25 -78 -56 -71 -60 -111 -81 -127 -65 -10 10 15 102 40 151 7 14 13 32 13 41 0 14 -39 59 -52 59 -3 0 -16 -26 -29 -57z"
       id="path362"
       style="fill:#006400" />
    <path
       d="M2446 2305 c-22 -13 -79 -64 -127 -114 -89 -93 -94 -104 -64 -145 17 -23 55 -17 133 19 86 40 222 154 222 186 0 5 -17 17 -38 28 -21 11 -44 27 -51 35 -17 20 -27 19 -75 -9z"
       id="path364"
       style="fill:#006400" />
    <path
       d="M6260 2303 c-75 -74 -189 -123 -286 -123 -36 -1 -67 -6 -78 -15 -18 -13 -18 -19 -8 -66 20 -83 14 -154 -23 -275 -5 -15 0 -23 20 -32 37 -17 67 -15 137 9 120 40 257 155 313 261 l28 54 -27 68 c-15 38 -30 84 -33 103 -7 43 -13 46 -43 16z"
       id="path366"
       style="fill:#6b8e23" />
    <path
       d="M1818 2240 c-27 -26 -48 -52 -48 -58 0 -5 21 -38 46 -72 46 -60 118 -119 131 -106 3 3 -3 46 -15 96 -12 49 -22 105 -22 124 0 80 -24 84 -92 16z"
       id="path368"
       style="fill:#006400" />
    <path
       d="M5158 2240 c-9 -28 -14 -50 -11 -50 13 0 83 63 83 75 0 13 -21 25 -43 25 -7 0 -19 -23 -29 -50z"
       id="path370"
       style="fill:#006400" />
    <path
       d="M2178 2274 c-6 -5 17 -98 29 -117 5 -9 103 81 103 94 0 4 -21 9 -47 11 -27 3 -55 8 -64 12 -8 3 -18 4 -21 0z"
       id="path372"
       style="fill:#006400" />
    <path
       d="M2653 2219 c-55 -68 -93 -105 -147 -143 -63 -44 -146 -86 -170 -86 -7 0 -19 -6 -25 -13 -8 -11 0 -25 37 -63 120 -126 229 -112 385 49 56 58 143 210 131 229 -3 4 -17 8 -32 8 -30 1 -135 24 -151 34 -6 4 -18 -3 -28 -15z"
       id="path374"
       style="fill:#6b8e23" />
    <path
       d="M3214 2199 c-18 -5 -36 -20 -44 -36 -8 -16 -28 -48 -45 -73 -16 -25 -32 -54 -35 -65 -4 -12 -18 -22 -39 -26 -21 -4 -53 -27 -88 -60 -56 -55 -263 -322 -263 -339 0 -6 -4 -10 -8 -10 -4 0 -15 -12 -24 -27 -9 -16 -28 -41 -42 -58 -32 -37 -41 -64 -27 -78 6 -6 12 -9 14 -6 2 2 28 40 57 83 65 97 79 115 204 243 66 69 113 108 140 119 41 15 47 23 240 265 32 41 36 51 26 64 -14 17 -21 17 -66 4z"
       id="path376"
       style="fill:#8b4513" />
    <path
       d="M2915 2176 c-3 -9 -7 -23 -10 -31 -5 -17 39 -51 80 -61 l28 -7 -26 44 c-33 55 -64 79 -72 55z"
       id="path378"
       style="fill:#a0522d" />
    <path
       d="M3055 2156 c-15 -22 -15 -27 0 -55 8 -17 19 -31 24 -31 9 0 71 91 71 103 0 4 -18 7 -40 7 -31 0 -43 -5 -55 -24z"
       id="path380"
       style="fill:#a0522d" />
    <path
       d="M6751 2103 c-81 -76 -143 -118 -225 -154 -31 -13 -56 -27 -56 -31 0 -28 208 -15 273 18 89 45 132 143 93 212 -13 24 -13 24 -85 -45z"
       id="path382"
       style="fill:#008000" />
    <path
       d="M3326 2132 c-16 -26 -59 -355 -48 -367 4 -3 121 148 181 234 22 31 23 34 7 43 -10 5 -42 30 -72 54 -57 47 -60 48 -68 36z"
       id="path384"
       style="fill:#008000" />
    <path
       d="M2850 2028 c-43 -67 -146 -170 -186 -187 -17 -7 -37 -24 -45 -38 -20 -37 -115 -121 -142 -125 -18 -2 -22 -9 -21 -40 2 -58 9 -68 52 -68 39 0 40 1 164 168 69 92 153 201 186 242 44 55 57 78 50 88 -17 19 -23 15 -58 -40z"
       id="path386"
       style="fill:#a0522d" />
    <path
       d="M5349 2047 c-93 -80 -120 -100 -178 -134 -178 -104 -331 -122 -419 -48 -17 14 -34 25 -40 25 -5 0 -38 -13 -73 -29 -35 -16 -92 -37 -126 -46 -35 -10 -63 -22 -63 -27 0 -19 87 -144 128 -184 88 -86 214 -121 372 -103 158 18 315 121 379 251 26 51 31 73 31 130 0 38 5 89 11 113 16 64 10 79 -22 52z"
       id="path388"
       style="fill:#6b8e23" />
    <path
       d="M2928 2001 c-58 -61 -217 -262 -304 -384 -52 -73 -63 -106 -38 -114 6 -2 30 25 54 59 24 35 47 65 50 68 3 3 37 48 75 100 83 114 157 202 207 248 40 36 41 46 9 55 -13 3 -30 -7 -53 -32z"
       id="path390"
       style="fill:#8b4513" />
    <path
       d="M2879 1722 c-63 -64 -135 -146 -159 -182 -24 -36 -46 -67 -49 -70 -7 -6 -28 -42 -49 -83 -10 -21 -11 -32 -3 -40 13 -13 26 2 72 88 54 101 73 126 179 240 56 61 109 120 117 133 36 53 0 24 -108 -86z"
       id="path392"
       style="fill:#8b4513" />
    <path
       d="M3809 1764 c-11 -26 -17 -49 -15 -52 7 -6 96 66 96 78 0 7 -33 20 -53 20 -4 0 -17 -21 -28 -46z"
       id="path394"
       style="fill:#008000" />
    <path
       d="M6073 1764 c-18 -8 -33 -17 -33 -22 0 -11 90 -112 100 -112 4 0 6 8 4 18 -2 9 -8 43 -14 75 -6 31 -14 57 -18 56 -4 0 -22 -7 -39 -15z"
       id="path396"
       style="fill:#008000" />
    <path
       d="M2320 1738 c-11 -12 -20 -24 -20 -28 0 -3 25 -30 55 -60 59 -58 68 -54 44 21 -31 98 -42 107 -79 67z"
       id="path398"
       style="fill:#006400" />
    <path
       d="M1885 1680 c-2 -4 2 -22 11 -39 12 -24 14 -46 9 -92 -7 -62 2 -89 32 -89 13 0 14 11 9 68 -13 135 -17 150 -37 155 -10 3 -21 2 -24 -3z"
       id="path400"
       style="fill:#a0522d" />
    <path
       d="M1956 1664 c-3 -9 -2 -44 4 -78 5 -33 11 -78 12 -99 3 -36 7 -40 43 -53 22 -7 44 -14 49 -14 8 0 4 73 -10 193 -5 41 -10 48 -33 53 -14 3 -33 8 -42 10 -9 3 -19 -3 -23 -12z"
       id="path402"
       style="fill:#8b4513" />
    <path
       d="M2170 1666 c31 -17 130 -31 130 -19 0 15 -63 33 -111 33 -43 -1 -43 -1 -19 -14z"
       id="path404"
       style="fill:#006400" />
    <path
       d="M2074 1619 c4 -24 10 -75 13 -114 6 -73 22 -105 54 -105 10 0 30 -5 44 -12 14 -6 28 -8 31 -5 4 3 0 58 -7 121 l-13 116 -40 14 c-92 33 -90 34 -82 -15z"
       id="path406"
       style="fill:#a0522d" />
    <path
       d="M2224 1598 c-3 -5 -1 -46 5 -91 6 -45 12 -93 14 -107 2 -20 11 -28 52 -42 28 -9 63 -17 79 -17 27 -1 28 1 22 32 -4 17 -9 66 -13 108 -8 99 -20 116 -96 121 -32 3 -60 1 -63 -4z"
       id="path408"
       style="fill:#a0522d" />
    <path
       d="M2499 1525 c-5 -4 6 -101 19 -164 8 -38 35 -62 51 -46 7 7 4 32 -9 75 -11 36 -20 82 -20 103 0 29 -4 37 -18 37 -10 0 -21 -2 -23 -5z"
       id="path410"
       style="fill:#a0522d" />
    <path
       d="M5150 1510 l-25 -19 38 -36 c21 -20 41 -34 44 -32 5 5 -17 88 -26 99 -3 4 -17 -2 -31 -12z"
       id="path412"
       style="fill:#008000" />
    <path
       d="M2406 1448 c7 -83 21 -117 50 -124 37 -10 57 2 44 25 -5 11 -10 37 -10 58 0 61 -10 83 -36 83 -12 0 -26 5 -29 10 -16 26 -24 5 -19 -52z"
       id="path414"
       style="fill:#a0522d" />
  </g>
</svg>
