<?xml version="1.0" encoding="UTF-8" standalone="no"?>
<svg
   xmlns:dc="http://purl.org/dc/elements/1.1/"
   xmlns:cc="http://creativecommons.org/ns#"
   xmlns:rdf="http://www.w3.org/1999/02/22-rdf-syntax-ns#"
   xmlns:svg="http://www.w3.org/2000/svg"
   xmlns="http://www.w3.org/2000/svg"
   xmlns:sodipodi="http://sodipodi.sourceforge.net/DTD/sodipodi-0.dtd"
   xmlns:inkscape="http://www.inkscape.org/namespaces/inkscape"
   version="1.0"
   width="850.000000pt"
   height="850.000000pt"
   viewBox="0 0 850.000000 850.000000"
   preserveAspectRatio="xMidYMid meet"
   id="svg158"
   sodipodi:docname="bible257.svg"
   inkscape:version="0.92.2 5c3e80d, 2017-08-06">
  <defs
     id="defs162" />
  <sodipodi:namedview
     pagecolor="#ffffff"
     bordercolor="#666666"
     borderopacity="1"
     objecttolerance="10"
     gridtolerance="10"
     guidetolerance="10"
     inkscape:pageopacity="0"
     inkscape:pageshadow="2"
     inkscape:window-width="1920"
     inkscape:window-height="978"
     id="namedview160"
     showgrid="false"
     inkscape:zoom="0.83294118"
     inkscape:cx="660.45253"
     inkscape:cy="703.14829"
     inkscape:window-x="0"
     inkscape:window-y="1"
     inkscape:window-maximized="1"
     inkscape:current-layer="svg158" />
  <metadata
     id="metadata2">
Created by potrace 1.14, written by Peter Selinger 2001-2017
<rdf:RDF>
  <cc:Work
     rdf:about="">
    <dc:format>image/svg+xml</dc:format>
    <dc:type
       rdf:resource="http://purl.org/dc/dcmitype/StillImage" />
  </cc:Work>
</rdf:RDF>
</metadata>
  <g
     transform="translate(0.000000,850.000000) scale(0.100000,-0.100000)"
     fill="#000000"
     stroke="none"
     id="g156">
    <path
       d="M0 4250 l0 -4250 4250 0 4250 0 0 4250 0 4250 -4250 0 -4250 0 0 -4250z m4482 4124 c115 -13 182 -84 182 -194 0 -153 -95 -231 -263 -216 -41 4 -80 11 -86 16 -13 11 13 379 28 398 7 9 23 11 46 8 20 -3 62 -8 93 -12z m-508 -14 c18 -6 26 -17 26 -32 0 -40 -13 -48 -71 -46 -63 2 -79 -5 -79 -32 0 -23 30 -44 87 -61 23 -6 56 -25 73 -42 26 -25 30 -37 30 -81 0 -39 -5 -58 -20 -74 -32 -34 -86 -52 -156 -52 -69 0 -84 12 -84 64 0 26 0 26 68 20 50 -4 72 -2 86 8 31 24 12 53 -52 79 -76 30 -100 47 -118 80 -44 85 29 176 143 178 23 1 53 -3 67 -9z m-358 -125 c12 -38 32 -104 44 -145 13 -41 28 -93 36 -115 15 -47 6 -61 -42 -71 -34 -6 -28 -18 -86 174 -7 23 -16 42 -20 42 -5 0 -8 -54 -8 -119 0 -113 -1 -121 -22 -135 -12 -9 -32 -16 -44 -16 -24 0 -31 8 -114 129 -30 44 -56 77 -57 73 -2 -4 12 -54 31 -112 18 -58 31 -110 29 -117 -5 -14 -58 -27 -72 -19 -5 3 -21 45 -36 94 -15 48 -40 129 -56 181 -20 65 -26 98 -19 106 14 16 95 39 109 31 6 -4 32 -39 57 -79 26 -39 62 -91 80 -116 l34 -44 1 54 c1 30 4 98 8 153 l6 98 35 13 c68 25 81 18 106 -60z m1418 54 c91 -34 135 -109 120 -207 -7 -49 -33 -115 -56 -143 -60 -75 -192 -79 -281 -9 -41 32 -57 72 -57 138 0 106 43 191 114 223 53 24 93 24 160 -2z m379 -125 c18 -9 34 -18 36 -20 6 -6 30 -212 30 -268 1 -42 3 -47 16 -36 8 7 15 16 15 21 0 5 18 48 40 95 22 47 40 90 40 95 0 13 54 11 68 -3 16 -16 15 -39 -2 -74 -23 -46 -96 -205 -117 -252 -10 -23 -25 -45 -33 -48 -9 -3 -35 5 -58 18 l-43 23 -15 153 c-8 83 -17 152 -20 152 -3 0 -27 -50 -54 -111 -28 -61 -56 -113 -64 -116 -21 -8 -62 14 -62 34 0 10 34 93 77 186 83 181 84 182 146 151z m-2374 -201 c58 -54 125 -116 148 -137 24 -22 43 -44 43 -50 0 -12 -54 -46 -73 -46 -6 0 -26 14 -44 31 l-32 32 -55 -29 -56 -29 0 -56 c0 -53 -1 -56 -34 -72 -45 -21 -51 -13 -66 88 -7 44 -16 103 -21 130 -5 28 -11 82 -15 122 l-7 72 34 20 c19 12 42 21 53 21 10 0 66 -44 125 -97z m2806 -29 c35 -23 31 -38 -21 -79 -51 -38 -74 -43 -98 -19 -15 14 -12 20 26 65 45 53 56 57 93 33z m-3213 -71 c29 -26 21 -45 -32 -83 -27 -19 -50 -39 -50 -44 0 -6 10 -20 22 -33 l21 -23 50 36 c27 19 54 33 61 31 6 -3 18 -17 26 -32 14 -26 13 -29 -10 -44 -14 -9 -37 -27 -52 -41 l-28 -25 29 -34 28 -34 58 44 57 43 19 -23 c11 -13 19 -31 18 -40 0 -14 -146 -128 -176 -138 -12 -4 -243 300 -243 319 0 13 157 137 174 138 5 0 18 -7 28 -17z m1682 4 c16 -12 17 -33 14 -253 -3 -258 -6 -274 -54 -274 -44 0 -48 28 -38 285 7 192 12 238 24 245 20 13 33 12 54 -3z m1755 -90 c61 -48 111 -93 111 -99 0 -7 -10 -22 -22 -35 l-21 -23 -31 23 c-17 13 -36 27 -43 30 -10 6 -69 -63 -194 -226 l-16 -20 -37 22 c-20 12 -36 28 -36 34 0 7 28 46 61 87 33 41 77 97 97 124 l36 49 -37 32 c-20 18 -37 36 -37 40 0 12 43 56 51 53 4 -2 57 -43 118 -91z m-2055 47 c9 -8 18 -27 22 -42 3 -15 9 -45 14 -67 5 -22 14 -69 20 -105 12 -71 22 -117 40 -198 10 -43 10 -59 -1 -78 -27 -52 -71 -18 -89 72 -5 27 -18 90 -29 139 -58 277 -55 254 -36 275 22 24 38 25 59 4z m681 -17 c4 -13 -17 -94 -50 -202 -31 -99 -64 -202 -72 -230 -8 -27 -20 -56 -25 -62 -14 -18 -43 -16 -58 2 -11 13 -1 57 55 253 38 130 73 243 78 250 5 6 22 12 38 12 21 0 30 -6 34 -23z m-1001 -53 c9 -9 25 -34 35 -57 11 -23 38 -82 61 -132 67 -142 100 -226 100 -250 0 -32 -23 -49 -48 -36 -25 13 -222 410 -222 446 0 13 37 45 52 45 3 0 14 -7 22 -16z m1320 -26 c10 -17 3 -37 -42 -113 -9 -16 -44 -75 -76 -130 -88 -150 -136 -223 -151 -229 -8 -3 -21 2 -30 10 -17 18 -13 41 15 89 10 17 29 50 42 75 123 225 162 292 175 306 19 19 52 15 67 -8z m-1605 -136 c52 -54 223 -278 240 -312 12 -24 12 -32 1 -45 -7 -8 -21 -15 -31 -15 -25 0 -258 273 -299 349 -11 22 -10 27 10 43 31 25 38 23 79 -20z m-1025 -41 c22 -23 31 -43 36 -78 6 -53 -4 -48 133 -74 33 -6 57 -16 57 -23 0 -7 -13 -25 -30 -41 -29 -28 -30 -28 -87 -16 -32 7 -69 16 -83 21 -63 18 -66 -15 -5 -71 25 -23 45 -46 45 -52 0 -17 -42 -57 -59 -57 -9 1 -79 61 -156 135 l-139 135 64 66 c36 36 79 72 95 80 43 20 94 10 129 -25z m2930 13 c9 -8 16 -24 16 -34 0 -22 -310 -331 -345 -344 -17 -7 -29 -6 -37 2 -22 22 -15 31 258 325 65 70 82 78 108 51z m-2152 -191 c46 -38 116 -94 155 -126 78 -63 94 -90 69 -115 -13 -13 -20 -13 -42 -3 -40 18 -312 229 -324 251 -15 28 4 60 35 60 15 0 56 -26 107 -67z m3292 28 c33 -22 83 -92 93 -129 7 -28 -9 -42 -47 -42 -20 0 -30 10 -50 48 -16 30 -33 48 -47 50 -30 4 -37 -26 -23 -108 10 -62 10 -74 -7 -107 -22 -47 -79 -78 -123 -68 -40 9 -86 49 -122 104 -32 52 -35 72 -10 94 32 29 44 23 76 -38 27 -53 34 -60 61 -60 33 0 33 -2 24 136 -3 34 1 65 9 81 30 56 111 75 166 39z m-863 -11 c11 -6 19 -21 19 -36 0 -21 -25 -42 -175 -139 -188 -124 -225 -138 -225 -85 0 25 10 36 73 79 39 28 109 77 154 110 122 88 121 88 154 71z m-901 -168 c388 -100 463 -121 470 -129 16 -18 30 -79 30 -129 0 -73 -27 -94 -118 -94 l-64 0 7 -67 c4 -38 12 -73 18 -79 7 -7 35 -19 64 -28 120 -39 152 -91 153 -249 0 -61 4 -89 13 -91 6 -2 46 -8 88 -13 130 -17 340 -130 433 -234 65 -72 119 -196 145 -329 6 -30 15 -79 21 -109 6 -30 15 -165 20 -300 22 -561 51 -950 90 -1231 5 -36 14 -103 20 -150 6 -47 15 -116 20 -155 5 -38 14 -122 20 -185 16 -160 46 -344 82 -485 68 -273 60 -800 -16 -1040 -83 -261 -316 -445 -617 -489 l-84 -11 1 -50 c0 -28 4 -100 8 -162 l9 -112 31 -10 c17 -5 58 -15 91 -22 37 -8 69 -22 84 -37 23 -23 24 -28 18 -128 -3 -57 -11 -112 -16 -123 -7 -13 -29 -23 -63 -30 -68 -13 -325 -47 -448 -59 -110 -11 -1795 -9 -1885 2 -109 13 -410 57 -428 62 -38 11 -50 50 -51 159 -1 81 2 108 14 119 9 9 58 26 110 39 l95 23 7 70 c3 38 9 112 13 164 l8 96 -89 11 c-293 37 -530 224 -619 488 -68 201 -83 772 -26 986 45 170 77 355 96 559 8 85 22 205 30 265 71 513 90 752 115 1395 6 146 15 294 21 330 29 178 84 341 145 423 44 61 145 135 259 191 121 59 139 65 220 73 l70 8 11 115 c6 63 16 125 22 136 20 37 71 73 125 89 29 8 57 19 63 23 11 7 35 132 27 145 -2 4 -30 7 -61 7 -74 0 -122 27 -122 68 0 59 20 137 39 153 11 9 59 26 108 38 48 11 122 30 163 42 83 23 410 105 450 112 14 3 93 4 175 2 147 -2 155 -4 385 -63z m-2567 -2 c127 -62 172 -175 112 -288 -31 -59 -77 -124 -90 -129 -12 -4 -328 207 -332 222 -4 15 68 124 106 160 62 58 131 70 204 35z m789 -34 c35 -18 132 -68 215 -110 84 -42 159 -86 167 -98 17 -23 7 -55 -21 -65 -9 -4 -113 44 -250 113 -242 122 -272 144 -243 179 20 24 63 18 132 -19z m2908 -46 c6 -12 8 -29 5 -39 -6 -21 -22 -30 -185 -96 -63 -26 -161 -67 -218 -91 -111 -47 -133 -52 -151 -30 -27 32 3 55 164 126 22 10 65 29 95 43 249 115 272 121 290 87z m855 -73 c47 -26 94 -99 102 -155 5 -38 4 -39 -27 -45 -42 -9 -48 -4 -61 49 -20 77 -83 98 -166 55 -89 -45 -107 -110 -48 -178 42 -49 43 -57 10 -79 -23 -15 -27 -15 -50 0 -14 9 -38 40 -55 69 -63 110 -27 214 95 275 57 28 65 30 115 31 29 0 59 -7 85 -22z m-3972 -151 c51 -14 142 -38 202 -55 206 -55 270 -73 343 -91 83 -21 102 -33 102 -65 0 -57 -11 -56 -540 86 -63 17 -142 37 -175 46 -54 13 -95 41 -95 63 0 16 31 40 52 40 11 0 61 -11 111 -24z m3298 -36 c26 -15 25 -56 -3 -74 -19 -11 -555 -131 -678 -151 -43 -7 -63 5 -58 36 4 33 57 49 498 149 52 12 118 28 145 35 66 16 73 17 96 5z m911 -250 c9 -19 17 -43 18 -52 0 -20 -309 -288 -325 -282 -6 3 -17 21 -24 41 -13 36 -13 37 23 70 20 18 36 38 36 43 0 5 -11 35 -25 66 l-25 57 -38 -6 c-20 -4 -42 -3 -48 1 -16 10 -34 48 -34 71 0 18 7 21 83 24 45 2 140 3 212 3 l130 -1 17 -35z m-5125 11 c18 -12 37 -35 44 -55 9 -25 18 -35 29 -31 73 23 166 43 173 36 4 -4 1 -26 -8 -48 -16 -39 -19 -41 -88 -58 -106 -24 -107 -25 -107 -43 0 -12 18 -24 57 -37 68 -24 81 -41 62 -81 -19 -37 -28 -36 -169 15 -63 23 -135 49 -160 57 -76 26 -78 31 -40 124 43 107 74 140 132 140 25 0 56 -8 75 -19z m973 -72 c388 -20 429 -24 448 -42 13 -13 14 -21 6 -35 -9 -14 -30 -18 -115 -20 -126 -5 -684 16 -719 26 -33 10 -37 45 -9 73 20 20 27 21 113 15 50 -4 174 -11 276 -17z m3448 -91 c20 -20 14 -56 -10 -69 -30 -16 -834 -4 -855 12 -16 14 -17 41 -1 57 17 17 849 17 866 0z m809 -180 c13 -21 32 -119 32 -171 1 -43 -3 -53 -33 -83 -30 -30 -41 -34 -84 -34 -36 0 -57 6 -77 22 l-28 22 -64 -67 c-35 -37 -68 -67 -73 -67 -5 0 -15 18 -21 41 l-12 40 68 69 c54 55 67 72 57 82 -9 9 -25 9 -73 -1 -74 -15 -92 -5 -87 48 l3 36 85 17 c47 10 123 27 170 37 104 23 127 25 137 9z m-4183 -41 c34 -25 12 -52 -52 -66 -119 -26 -139 -30 -197 -40 -33 -5 -87 -15 -120 -20 -33 -6 -90 -13 -127 -17 -66 -7 -67 -6 -79 20 -16 35 8 61 64 69 23 4 119 17 212 31 94 14 188 27 210 29 22 2 47 4 56 5 8 1 23 -4 33 -11z m-1184 -21 c151 -28 169 -35 203 -76 23 -27 27 -41 27 -95 0 -110 -43 -173 -124 -182 -42 -5 -189 15 -279 38 -38 10 -39 11 -32 47 4 20 10 41 15 45 4 5 57 -1 117 -12 145 -28 187 -27 207 1 19 27 21 68 3 92 -14 19 -83 37 -252 65 -43 6 -53 26 -41 77 8 29 2 29 156 0z m4406 -31 c97 -14 178 -25 180 -25 1 0 10 -7 18 -16 21 -20 20 -38 -1 -59 -19 -19 -46 -17 -217 15 -223 43 -246 53 -225 92 13 24 33 23 245 -7z m-3432 -240 c15 -40 -18 -57 -232 -125 -128 -40 -134 -41 -153 -24 -25 23 -24 50 4 68 31 21 294 95 338 95 24 1 39 -4 43 -14z m3456 -55 c14 -5 64 -21 113 -35 113 -35 135 -56 104 -99 -10 -14 -22 -17 -43 -14 -23 5 -191 63 -266 93 -23 9 -32 43 -17 61 13 16 55 14 109 -6z m1021 -75 c4 -22 8 -74 10 -115 l4 -75 -37 -3 c-35 -3 -37 -1 -42 30 -3 18 -7 49 -8 68 -3 33 -5 35 -38 35 l-35 0 0 -64 c0 -61 -1 -65 -28 -74 -42 -14 -57 5 -57 69 l0 54 -45 0 -44 0 -3 -72 -3 -73 -35 0 -35 0 -10 108 c-8 87 -8 111 3 120 7 6 65 14 129 19 64 4 119 11 122 14 3 2 37 3 75 2 l71 -3 6 -40z m-5369 -83 c25 -11 56 -35 69 -53 21 -30 24 -45 24 -121 0 -81 -2 -88 -31 -125 -78 -98 -282 -92 -358 10 -15 21 -22 47 -24 101 -6 111 35 177 128 205 49 15 139 7 192 -17z m818 -121 c0 -26 -24 -44 -135 -100 -106 -54 -126 -59 -145 -37 -35 43 7 79 164 143 84 33 116 32 116 -6z m3650 -49 c74 -37 96 -52 98 -70 4 -27 -14 -52 -36 -52 -21 0 -198 88 -213 106 -6 8 -8 25 -5 39 9 37 45 32 156 -23z m918 -249 c-3 -46 -3 -46 -70 -81 -38 -20 -68 -40 -67 -46 0 -6 31 -26 70 -45 l69 -33 0 -43 c0 -23 -3 -45 -7 -48 -3 -4 -40 12 -82 35 -156 86 -161 88 -236 88 -78 0 -95 9 -95 52 0 37 24 48 107 48 64 1 74 4 173 59 133 75 142 76 138 14z m-4578 -8 c20 -24 7 -47 -50 -92 -78 -60 -115 -77 -140 -63 -26 14 -26 52 0 75 33 30 144 95 161 95 9 0 22 -7 29 -15z m-1002 -61 c59 -31 111 -61 117 -65 5 -5 44 -9 87 -9 l78 0 0 -45 0 -45 -72 0 c-78 0 -81 -1 -241 -89 -88 -48 -100 -46 -95 15 3 37 6 41 71 75 38 20 69 40 69 44 0 4 -31 24 -69 44 -61 32 -68 39 -71 69 -3 35 3 62 13 62 4 0 55 -25 113 -56z m4553 27 c94 -63 124 -121 61 -121 -41 0 -162 77 -162 103 0 15 31 47 45 47 6 0 31 -13 56 -29z m-3547 -263 c14 -22 -18 -58 -51 -58 -29 0 -39 23 -24 56 8 19 17 25 38 22 14 -2 31 -11 37 -20z m3563 -17 c24 -49 -32 -84 -71 -45 -19 18 -20 28 -5 55 15 28 60 22 76 -10z m877 -43 c90 -25 146 -98 145 -188 -1 -80 -31 -134 -94 -171 -33 -20 -54 -24 -120 -24 -85 1 -125 15 -165 58 -47 49 -62 130 -39 208 29 96 156 150 273 117z m-5507 -226 c7 -4 13 -36 15 -72 l3 -65 45 0 45 0 3 63 3 63 37 -3 37 -3 3 -62 3 -62 72 -3 72 -3 3 -48 3 -47 -203 2 -203 3 -3 109 c-3 111 4 136 37 136 9 0 21 -4 28 -8z m5643 -307 c0 -55 2 -54 -180 -58 l-135 -2 -13 -28 c-15 -32 -10 -68 14 -91 12 -13 41 -16 152 -16 75 0 143 -4 150 -9 8 -5 12 -23 10 -47 l-3 -39 -160 0 c-183 0 -199 5 -235 79 -40 84 -18 188 49 233 32 22 44 23 192 23 l159 0 0 -45z m-5300 -100 l0 -45 -202 2 -203 3 -3 28 c-7 58 -10 57 208 57 l200 0 0 -45z m-118 -506 c59 -29 105 -75 136 -134 21 -41 25 -64 26 -130 0 -94 -22 -150 -82 -207 -64 -62 -116 -83 -207 -83 -64 0 -89 5 -125 23 -60 31 -112 83 -141 140 -35 68 -34 187 1 255 27 53 95 121 138 139 84 33 184 33 254 -3z m5276 -10 c71 -16 130 -49 167 -92 57 -67 70 -103 70 -197 0 -62 -5 -95 -18 -121 -62 -126 -200 -197 -325 -169 -102 22 -182 91 -222 190 -19 47 -17 165 4 213 35 81 120 151 210 173 66 16 60 16 114 3z m-5197 -960 c12 -48 30 -262 22 -270 -8 -7 -37 -12 -60 -10 -7 0 -15 23 -19 52 l-7 51 -41 -7 c-81 -13 -270 -25 -278 -17 -4 4 -9 23 -10 41 -4 42 3 44 172 61 67 6 128 14 136 17 10 4 12 15 8 44 -8 47 8 71 44 67 18 -2 28 -11 33 -29z m5169 1 c98 -11 185 -23 195 -26 12 -5 14 -14 9 -38 -10 -50 -16 -53 -96 -44 -40 4 -76 4 -79 0 -4 -4 -9 -36 -11 -72 l-3 -65 80 -10 c79 -10 80 -10 83 -40 2 -16 -3 -38 -10 -47 -14 -18 9 -19 -293 16 l-100 11 -3 43 c-4 52 5 56 84 43 32 -5 63 -6 68 -1 4 4 10 37 13 73 l6 64 -49 7 c-98 14 -104 16 -104 42 0 25 16 64 26 64 3 0 85 -9 184 -20z m-5117 -411 c2 -32 1 -33 -60 -49 -34 -9 -65 -18 -68 -22 -8 -8 15 -127 25 -133 5 -3 36 2 70 11 70 18 82 13 94 -39 8 -35 7 -35 -207 -87 -186 -45 -197 -44 -197 15 0 36 16 45 103 61 21 3 41 12 44 20 7 20 -16 122 -30 127 -7 2 -34 -2 -62 -9 -27 -7 -62 -13 -77 -14 -23 0 -28 5 -34 37 -5 29 -3 39 11 50 11 7 26 13 34 13 9 0 86 18 171 39 171 42 180 41 183 -20z m4922 -39 c17 -19 17 -21 -1 -62 -43 -95 -9 -167 90 -188 64 -15 98 -3 126 42 29 47 26 66 -12 76 -31 9 -34 7 -47 -24 -14 -35 -29 -41 -62 -24 -23 13 -24 35 -3 106 13 44 19 54 37 54 24 0 162 -35 177 -45 14 -9 12 -110 -2 -158 -17 -57 -73 -112 -128 -127 -36 -10 -55 -9 -109 4 -77 19 -100 33 -138 83 -25 33 -28 44 -28 112 1 58 6 87 24 124 25 52 47 59 76 27z m-4772 -444 l41 -99 -23 -18 c-13 -11 -29 -19 -35 -19 -12 0 -56 85 -56 108 0 15 -35 16 -60 2 -19 -10 -19 -11 0 -61 26 -65 25 -73 -6 -88 -33 -15 -46 -5 -69 54 -12 32 -22 45 -36 45 -16 0 -53 -14 -67 -25 -1 -1 7 -23 18 -49 27 -63 25 -84 -5 -98 -34 -15 -44 -4 -84 97 -36 91 -38 115 -13 122 9 2 85 33 167 68 83 35 158 63 169 62 13 -1 29 -29 59 -101z m4729 8 c133 -60 171 -89 189 -141 34 -104 -82 -252 -179 -228 -15 3 -82 32 -149 62 -132 60 -142 72 -105 120 l17 23 80 -36 c194 -87 212 -89 245 -31 18 33 5 73 -30 92 -32 18 -167 80 -203 94 -15 6 -27 18 -27 26 0 16 27 75 34 75 3 0 60 -25 128 -56z m-4643 -203 c12 -16 21 -33 21 -38 0 -6 -18 -38 -40 -72 -22 -34 -40 -64 -40 -66 0 -3 37 -5 83 -5 l82 0 23 -36 c17 -26 21 -39 12 -44 -6 -4 -71 -10 -144 -13 -129 -6 -133 -7 -191 -41 -32 -20 -63 -36 -67 -36 -12 0 -47 61 -42 74 2 6 31 26 63 45 50 28 67 47 107 110 84 137 94 151 103 151 6 0 19 -13 30 -29z m4460 -216 c18 -9 52 -36 75 -59 84 -83 82 -179 -4 -267 -55 -57 -107 -76 -166 -60 -105 28 -194 124 -194 208 0 68 54 157 113 187 39 21 129 16 176 -9z m-4252 -107 c36 -34 30 -54 -24 -72 -26 -9 -56 -16 -66 -16 -21 0 -57 26 -57 41 0 7 105 67 119 69 3 0 15 -10 28 -22z m141 -173 c72 -76 91 -125 69 -178 -18 -42 -61 -70 -112 -73 -22 -1 -43 -2 -46 -3 -4 -1 -9 -18 -12 -38 -24 -146 -35 -162 -77 -115 -29 34 -32 67 -10 112 5 8 11 36 15 63 7 42 5 47 -12 47 -10 0 -37 -18 -58 -40 -21 -22 -47 -40 -56 -40 -22 0 -61 49 -51 64 4 7 45 48 92 92 47 44 108 101 135 127 28 26 53 47 56 47 4 0 34 -29 67 -65z m3831 -154 c72 -76 131 -145 131 -154 0 -8 -16 -27 -36 -42 -43 -33 -55 -32 -211 17 -62 20 -115 33 -118 30 -2 -3 33 -45 80 -93 47 -49 85 -93 85 -100 0 -13 -40 -48 -56 -49 -6 0 -34 26 -62 58 -28 31 -85 93 -126 137 -42 44 -75 88 -76 97 0 21 60 68 86 68 10 0 75 -18 144 -39 69 -21 127 -37 129 -35 2 2 -33 44 -77 93 -45 49 -82 93 -82 97 0 10 41 54 51 54 4 0 66 -62 138 -139z m-3450 -185 c9 -11 7 -19 -11 -41 l-24 -27 -54 41 -55 42 -22 -26 c-13 -14 -23 -29 -23 -33 0 -4 21 -22 45 -41 50 -37 55 -55 24 -82 -24 -20 -26 -19 -82 25 l-39 31 -24 -28 c-31 -36 -30 -51 2 -72 68 -44 79 -68 45 -99 -23 -21 -22 -21 -120 54 -50 39 -71 61 -71 77 0 12 4 24 9 27 5 3 47 57 94 118 47 62 97 126 111 141 l26 28 78 -60 c44 -33 84 -67 91 -75z m2994 -6 l18 -29 -56 -37 c-30 -20 -55 -42 -55 -48 0 -6 9 -22 19 -35 l18 -24 47 31 c54 37 64 38 82 15 24 -31 16 -51 -31 -79 -25 -14 -45 -30 -45 -35 0 -17 30 -69 40 -69 5 0 32 14 60 32 56 34 76 32 91 -10 8 -20 -1 -28 -79 -79 -48 -31 -94 -56 -102 -57 -17 -1 -221 302 -217 324 2 14 163 128 182 129 6 1 19 -12 28 -29z m-2693 -170 c44 -23 44 -21 61 -195 5 -60 13 -113 17 -117 4 -4 27 39 51 95 55 128 60 134 100 117 17 -7 31 -18 31 -25 0 -11 -48 -122 -121 -282 -10 -24 -19 -47 -19 -52 0 -5 -6 -14 -14 -20 -17 -14 -102 21 -110 47 -3 9 -10 69 -16 134 -5 64 -14 126 -18 138 -8 22 -9 21 -22 -11 -7 -19 -24 -57 -37 -86 -13 -28 -27 -63 -33 -78 -5 -14 -16 -28 -23 -31 -20 -7 -67 13 -67 30 0 29 153 356 167 356 7 0 31 -9 53 -20z m2234 -86 c3 -8 3 -26 0 -40 -5 -18 -13 -24 -33 -24 -37 -1 -107 -35 -120 -58 -18 -33 -13 -113 9 -149 28 -47 63 -67 104 -59 46 9 59 26 46 60 -9 24 -13 26 -45 20 -30 -5 -36 -3 -46 19 -6 14 -9 32 -7 39 7 17 138 63 148 51 4 -4 12 -24 19 -43 7 -19 17 -44 21 -55 31 -78 33 -85 19 -101 -18 -22 -98 -61 -152 -75 -116 -29 -227 81 -227 227 0 62 14 96 58 137 57 54 192 88 206 51z m-1673 -105 c47 -16 96 -54 114 -89 20 -38 19 -134 -1 -193 -20 -58 -69 -109 -123 -127 -82 -27 -204 28 -237 106 -41 98 14 261 99 298 40 18 103 20 148 5z m1263 -16 c4 -9 21 -78 38 -152 55 -245 55 -228 -5 -238 -40 -6 -36 -16 -76 157 -11 47 -27 116 -36 154 -17 70 -15 81 20 89 39 9 53 7 59 -10z m-852 -52 c118 -8 131 -15 118 -60 -6 -24 -11 -26 -56 -26 l-49 0 -8 -70 c-4 -38 -11 -110 -15 -160 l-7 -90 -35 -3 c-63 -4 -64 0 -50 144 16 163 13 188 -20 192 -61 7 -70 12 -70 40 0 38 18 54 53 46 16 -3 78 -9 139 -13z m590 7 c22 -6 48 -23 59 -36 22 -29 25 -90 5 -117 -12 -17 -10 -22 15 -48 51 -51 35 -149 -30 -181 -32 -16 -167 -39 -201 -35 -22 4 -25 10 -36 89 -25 174 -37 287 -32 301 3 9 32 18 79 25 103 15 97 15 141 2z"
       id="path4"
       style="fill:#2f4f4f" />
    <path
       d="M4427 8283 c-3 -10 -8 -66 -12 -124 -6 -94 -5 -107 10 -113 24 -9 89 10 109 33 26 29 38 95 26 142 -12 44 -37 64 -92 74 -30 6 -37 4 -41 -12z"
       id="path6"
       style="fill:#2f4f4f" />
    <path
       d="M4917 8209 c-29 -17 -57 -88 -57 -145 0 -65 29 -97 88 -97 22 0 45 3 51 7 25 16 53 90 54 143 1 49 -2 58 -26 79 -30 26 -79 31 -110 13z"
       id="path8"
       style="fill:#2f4f4f" />
    <path
       d="M2925 7905 c4 -27 12 -58 17 -68 8 -16 11 -16 38 -2 17 9 30 19 30 23 0 4 -21 28 -46 52 l-46 45 7 -50z"
       id="path10"
       style="fill:#2f4f4f" />
    <path
       d="M2252 7474 c-29 -20 -28 -35 6 -67 28 -27 29 -27 52 -9 14 11 23 29 23 46 0 45 -39 59 -81 30z"
       id="path12"
       style="fill:#2f4f4f" />
    <path
       d="M4095 7180 c-152 -37 -156 -39 -146 -58 5 -10 6 -24 1 -31 -11 -19 -40 -6 -40 19 0 11 -3 20 -7 20 -13 0 -233 -56 -335 -85 -87 -25 -98 -30 -98 -50 0 -29 17 -35 96 -35 55 0 66 -3 78 -22 11 -17 13 -33 7 -63 -5 -22 -12 -63 -15 -92 -6 -46 -4 -53 14 -63 11 -6 20 -17 20 -25 0 -25 -42 -55 -77 -55 -35 0 -128 -31 -159 -54 -16 -12 -20 -32 -26 -128 -4 -62 -12 -169 -17 -238 -6 -69 -15 -202 -21 -297 -12 -186 -8 -213 33 -213 12 0 69 -13 127 -28 89 -23 105 -31 105 -47 0 -17 -9 -21 -65 -25 l-64 -5 -8 -39 c-5 -22 -7 -112 -6 -200 l3 -160 45 -16 c61 -22 132 -68 127 -83 -2 -7 -26 -13 -55 -15 l-52 -3 0 -62 c0 -63 -18 -185 -44 -292 -8 -33 -26 -109 -41 -170 -50 -212 -87 -360 -96 -390 -21 -71 -140 -559 -160 -660 -32 -158 -31 -384 0 -509 29 -111 71 -214 119 -288 46 -72 71 -85 38 -20 -48 95 -66 169 -66 272 0 77 3 100 16 111 14 11 20 9 43 -17 34 -40 84 -74 109 -74 15 0 23 13 36 58 21 78 21 84 -13 104 -17 9 -42 35 -56 58 -51 81 -57 112 -65 335 -7 200 -17 265 -42 265 -4 0 -8 9 -8 20 0 25 24 26 89 1 62 -23 190 -112 236 -162 19 -22 39 -39 43 -39 13 0 29 63 42 160 6 46 14 88 16 92 8 13 68 9 114 -7 67 -24 72 -21 50 28 -10 23 -24 72 -31 110 -30 163 41 317 241 522 60 62 76 74 86 63 10 -10 9 -27 -3 -83 -20 -87 -11 -139 54 -297 76 -187 83 -211 83 -265 l0 -53 63 0 c38 0 88 -9 131 -24 l68 -23 14 33 c8 18 26 45 41 59 41 40 262 205 273 205 16 0 36 -49 58 -140 56 -229 31 -314 -105 -363 l-62 -23 40 -57 c22 -31 44 -57 48 -57 4 0 16 9 27 21 29 32 65 48 170 74 70 17 104 31 124 50 21 20 34 25 50 20 18 -6 21 -4 17 12 -3 10 -12 47 -21 83 -16 68 -121 489 -137 550 -5 19 -13 53 -19 75 -5 22 -14 58 -20 80 -5 22 -14 58 -20 80 -5 22 -14 58 -20 80 -5 22 -14 58 -19 80 -5 22 -17 76 -27 120 -9 44 -18 119 -18 167 l-1 88 -52 0 c-44 0 -53 3 -53 18 0 20 67 65 125 84 l40 13 3 197 2 198 -22 5 c-13 2 -45 6 -73 7 -42 3 -50 6 -50 23 0 17 16 24 120 49 66 15 127 32 135 36 12 6 15 32 13 146 -1 77 -6 195 -12 264 -6 69 -16 196 -22 283 -10 120 -16 160 -28 170 -25 21 -121 57 -152 57 -49 0 -79 20 -79 52 0 18 5 28 15 28 18 0 18 12 4 117 -15 114 -10 121 89 125 75 3 77 4 80 30 3 24 -1 28 -37 38 -28 7 -47 8 -60 1 -14 -8 -22 -7 -32 5 -21 26 -36 30 -349 111 -152 39 -192 45 -305 49 -106 3 -145 0 -210 -16z m120 -60 c0 -30 -35 -40 -55 -15 -10 12 -10 18 0 30 20 25 55 15 55 -15z m195 -25 c10 -12 10 -18 0 -30 -25 -30 -61 -7 -46 30 3 8 12 15 19 15 8 0 20 -7 27 -15z m168 -33 c2 -7 -3 -12 -12 -12 -9 0 -16 7 -16 16 0 17 22 14 28 -4z m136 3 c3 -9 -1 -18 -10 -22 -19 -7 -39 11 -30 26 10 16 33 13 40 -4z m85 -59 c9 -10 9 -16 1 -21 -17 -11 -40 3 -34 20 8 19 18 19 33 1z m-899 -11 c19 -23 8 -50 -20 -50 -16 0 -26 6 -28 18 -4 18 14 47 28 47 4 0 13 -7 20 -15z m174 -1 c8 -21 -1 -34 -24 -34 -22 0 -34 15 -26 35 7 20 42 19 50 -1z m-344 -14 c0 -13 -7 -20 -20 -20 -13 0 -20 7 -20 20 0 13 7 20 20 20 13 0 20 -7 20 -20z m755 -15 c44 -14 88 -34 98 -42 23 -21 22 -56 -3 -78 -19 -17 -22 -17 -72 -1 -29 10 -75 20 -103 23 -46 4 -55 1 -111 -35 -50 -32 -67 -50 -87 -94 -59 -124 -43 -253 43 -338 66 -67 106 -82 211 -82 75 0 95 4 144 29 53 26 59 32 76 82 23 67 35 81 70 81 36 0 44 -26 29 -93 -22 -92 -68 -175 -134 -241 -72 -72 -148 -112 -257 -134 -66 -14 -89 -14 -151 -4 -321 54 -504 390 -369 677 40 86 83 138 156 190 140 98 288 118 460 60z m233 -50 c4 -20 -15 -36 -35 -28 -17 6 -17 40 0 46 19 8 32 2 35 -18z m-910 -47 c-2 -12 -11 -26 -21 -32 -15 -9 -21 -7 -33 8 -18 25 -18 31 2 50 21 21 57 3 52 -26z m1040 -50 c-4 -27 -33 -36 -42 -13 -8 22 1 35 25 35 15 0 20 -6 17 -22z m-468 -51 c0 -8 -3 -17 -7 -20 -9 -9 -34 13 -27 24 8 14 34 11 34 -4z m-572 -59 c-7 -19 -38 -22 -38 -4 0 10 9 16 21 16 12 0 19 -5 17 -12z m478 -53 c7 -18 -13 -45 -33 -45 -17 0 -27 24 -19 45 7 20 45 19 52 0z m239 -25 c0 -29 -38 -41 -48 -16 -10 26 4 47 27 44 15 -2 21 -10 21 -28z m-764 -55 c-1 -15 -24 -12 -29 3 -3 9 2 13 12 10 10 -1 17 -7 17 -13z m1121 -7 c8 -21 -2 -38 -23 -38 -19 0 -27 29 -12 43 11 11 31 8 35 -5z m-1357 -33 c0 -25 -40 -33 -49 -10 -9 24 2 37 27 33 14 -2 22 -10 22 -23z m112 -1 c8 -20 -8 -36 -26 -25 -15 10 -8 41 9 41 6 0 13 -7 17 -16z m1483 -40 c11 -12 10 -18 -3 -32 -16 -15 -18 -15 -33 0 -19 18 -12 48 9 48 8 0 20 -7 27 -16z m-1382 -17 c2 -10 -3 -17 -12 -17 -18 0 -29 16 -21 31 9 14 29 6 33 -14z m636 17 c22 -8 20 -31 -2 -43 -13 -7 -23 -6 -30 1 -16 16 -15 35 1 41 6 3 13 6 14 6 1 1 8 -2 17 -5z m177 -20 c17 -21 0 -49 -31 -49 -31 0 -48 28 -31 49 8 9 21 16 31 16 10 0 23 -7 31 -16z m409 -19 c0 -8 -7 -15 -15 -15 -8 0 -15 7 -15 15 0 8 7 15 15 15 8 0 15 -7 15 -15z m-1416 -71 c9 -23 -5 -44 -29 -44 -30 0 -40 28 -19 51 17 19 39 16 48 -7z m174 -25 c-2 -6 -8 -10 -13 -10 -5 0 -11 4 -13 10 -2 6 4 11 13 11 9 0 15 -5 13 -11z m1290 -22 c4 -20 -25 -34 -40 -19 -15 15 -1 44 19 40 10 -2 19 -11 21 -21z m95 8 c1 -5 -6 -11 -15 -13 -11 -2 -18 3 -18 13 0 17 30 18 33 0z m-1460 -45 c22 -119 20 -114 67 -137 53 -25 56 -40 15 -63 -38 -21 -63 -70 -70 -140 -3 -30 -10 -62 -16 -70 -14 -23 -39 15 -39 59 0 20 -5 53 -11 74 -8 30 -18 41 -57 60 -59 28 -64 56 -12 70 59 15 57 12 75 150 5 38 10 48 23 45 11 -2 20 -18 25 -48z m1257 -40 c0 -21 -24 -28 -35 -10 -8 14 3 30 21 30 8 0 14 -9 14 -20z m-1082 -13 c4 -22 -27 -35 -38 -16 -10 15 7 42 24 36 6 -2 12 -11 14 -20z m1277 -7 c0 -8 -10 -16 -22 -18 -18 -3 -23 2 -23 18 0 16 5 21 23 18 12 -2 22 -10 22 -18z m-1645 -40 c0 -11 -4 -20 -9 -20 -14 0 -23 18 -16 30 10 17 25 11 25 -10z m1590 -41 c0 -25 -33 -22 -38 4 -2 12 3 17 17 17 15 0 21 -6 21 -21z m-117 -12 c3 -8 8 -39 12 -70 9 -67 22 -87 66 -102 44 -15 43 -37 0 -67 -39 -26 -59 -72 -60 -136 -1 -44 -15 -82 -30 -82 -14 0 -31 59 -31 110 0 54 -20 82 -75 101 -26 10 -35 19 -35 36 0 17 7 23 36 29 45 8 62 34 69 109 4 33 8 66 11 73 5 16 31 15 37 -1z m-189 -52 c5 -14 -17 -45 -33 -45 -15 0 -33 30 -27 45 7 19 52 20 60 0z m369 -17 c7 -21 -4 -38 -23 -38 -23 0 -32 13 -24 34 7 19 40 21 47 4z m-1139 -24 c7 -19 -10 -44 -29 -44 -19 0 -38 28 -31 45 7 20 52 19 60 -1z m-478 -25 c10 -17 -13 -36 -27 -22 -12 12 -4 33 11 33 5 0 12 -5 16 -11z m1054 -43 c0 -8 -5 -18 -11 -22 -14 -8 -33 11 -25 25 10 16 36 13 36 -3z m-420 -21 c0 -18 -5 -25 -19 -25 -11 0 -23 5 -26 10 -11 18 3 40 25 40 15 0 20 -7 20 -25z m1014 9 c20 -8 21 -60 1 -68 -8 -3 -22 -3 -30 0 -18 7 -20 60 -2 67 6 3 13 6 14 6 1 1 8 -2 17 -5z m-836 -37 c2 -12 -3 -17 -17 -17 -12 0 -21 6 -21 13 0 31 32 34 38 4z m-465 -19 c7 -21 -4 -38 -23 -38 -23 0 -34 16 -26 35 7 18 43 20 49 3z m866 -2 c9 -11 8 -17 -4 -30 -19 -18 -45 -11 -45 13 0 32 28 42 49 17z m-1209 -36 c13 -24 -2 -60 -25 -60 -24 0 -31 51 -10 67 24 16 22 17 35 -7z m706 -26 c-6 -17 -8 -17 -24 0 -15 15 -15 18 -2 26 19 12 35 -3 26 -26z m211 25 c17 -17 4 -39 -23 -39 -37 0 -31 44 7 49 3 1 10 -4 16 -10z m157 -14 c7 -20 -3 -45 -18 -45 -23 0 -36 22 -25 42 12 22 35 24 43 3z m-554 -15 c0 -5 -7 -10 -15 -10 -8 0 -15 5 -15 10 0 6 7 10 15 10 8 0 15 -4 15 -10z m1088 -94 c-2 -13 -10 -21 -23 -21 -23 0 -33 34 -14 45 20 13 40 -1 37 -24z m-1460 1 c2 -12 -3 -17 -17 -17 -12 0 -21 6 -21 13 0 31 32 34 38 4z m490 11 c18 -18 14 -42 -9 -57 -19 -11 -24 -10 -41 7 -16 16 -18 23 -9 41 13 23 40 28 59 9z m567 -33 c0 -13 -8 -21 -22 -23 -19 -3 -23 1 -23 23 0 22 4 26 23 23 14 -2 22 -10 22 -23z m-867 -7 c30 -30 0 -78 -37 -58 -32 17 -21 70 14 70 6 0 16 -5 23 -12z m670 -34 c4 -29 -28 -41 -45 -18 -10 13 -10 21 -1 31 16 19 42 12 46 -13z m278 -19 c-3 -9 -14 -15 -23 -13 -22 4 -30 38 -11 49 18 11 43 -15 34 -36z m-805 -26 c14 -26 -8 -53 -34 -43 -20 7 -23 50 -4 57 21 9 26 7 38 -14z m135 -57 c14 -81 30 -107 73 -115 44 -9 47 -34 7 -58 -43 -25 -66 -60 -66 -98 0 -41 -22 -131 -31 -131 -15 0 -26 34 -32 92 -7 75 -20 96 -73 119 -57 26 -59 53 -6 70 53 17 59 24 66 77 16 117 18 123 34 120 11 -2 19 -24 28 -76z m237 66 c7 -21 -4 -38 -23 -38 -23 0 -34 16 -26 35 7 18 43 20 49 3z m513 -49 c8 -14 -18 -31 -30 -19 -9 9 0 30 14 30 5 0 12 -5 16 -11z m-221 -54 c0 -13 -8 -21 -22 -23 -17 -3 -23 2 -23 16 0 10 3 22 7 26 13 13 38 1 38 -19z m383 -39 c5 -24 -10 -38 -31 -30 -17 6 -23 35 -10 48 12 12 38 1 41 -18z m-1368 -1 c17 -20 5 -45 -20 -45 -11 0 -23 7 -26 15 -6 15 11 45 26 45 4 0 13 -7 20 -15z m218 -18 c4 -20 -25 -34 -39 -20 -14 14 1 45 20 41 9 -2 17 -11 19 -21z m515 -1 c7 -18 -1 -26 -25 -26 -18 0 -25 20 -11 33 11 12 31 8 36 -7z m372 -51 c0 -13 -8 -21 -22 -23 -19 -3 -23 1 -23 23 0 22 4 26 23 23 14 -2 22 -10 22 -23z m189 -61 c8 -21 -1 -34 -25 -34 -14 0 -19 7 -19 25 0 29 34 36 44 9z m-1156 -25 c4 -19 -27 -34 -41 -20 -14 14 0 43 20 39 10 -2 19 -10 21 -19z m837 -4 c0 -23 -34 -33 -45 -14 -13 20 1 40 24 37 13 -2 21 -10 21 -23z m-940 -96 c0 -7 -8 -15 -17 -17 -18 -3 -25 18 -11 32 10 10 28 1 28 -15z m610 -24 c0 -23 -34 -33 -45 -14 -13 20 1 40 24 37 13 -2 21 -10 21 -23z m458 12 c8 -21 -7 -39 -26 -31 -20 7 -22 30 -4 37 20 9 25 8 30 -6z m-773 -97 c0 -28 -27 -45 -45 -30 -20 16 -19 37 2 48 22 13 43 4 43 -18z m608 -82 c7 -7 12 -35 12 -64 0 -61 23 -97 75 -114 45 -15 44 -33 0 -59 -43 -25 -61 -64 -70 -154 -6 -55 -11 -67 -24 -65 -10 2 -19 19 -23 46 -5 23 -11 61 -15 85 -7 38 -13 45 -58 68 -63 32 -68 59 -12 72 48 12 63 36 70 114 7 81 18 98 45 71z m-333 -38 c11 -17 -5 -32 -21 -19 -7 6 -11 15 -8 20 7 12 21 11 29 -1z m-265 -129 c0 -27 -19 -36 -37 -18 -18 18 -9 37 18 37 12 0 19 -7 19 -19z m-335 -51 c0 -16 -6 -26 -18 -28 -19 -4 -32 20 -23 44 9 25 41 13 41 -16z m1245 5 c20 -25 8 -50 -25 -50 -24 0 -31 5 -33 24 -6 37 34 55 58 26z m-1000 -351 c11 -12 10 -18 -3 -32 -16 -15 -18 -15 -34 0 -13 14 -14 20 -3 32 7 9 16 16 20 16 4 0 13 -7 20 -16z m655 -54 c0 -18 -6 -26 -23 -28 -13 -2 -25 3 -28 12 -10 26 4 48 28 44 17 -2 23 -10 23 -28z m335 -139 c0 -27 -19 -36 -37 -18 -18 18 -9 37 18 37 12 0 19 -7 19 -19z m-370 -321 c0 -5 -4 -10 -10 -10 -5 0 -10 5 -10 10 0 6 5 10 10 10 6 0 10 -4 10 -10z m-60 -40 c0 -5 -7 -10 -15 -10 -8 0 -15 5 -15 10 0 6 7 10 15 10 8 0 15 -4 15 -10z m140 -21 c0 -5 -4 -9 -10 -9 -5 0 -10 7 -10 16 0 8 5 12 10 9 6 -3 10 -10 10 -16z m-940 -79 c0 -5 -4 -10 -10 -10 -5 0 -10 5 -10 10 0 6 5 10 10 10 6 0 10 -4 10 -10z m-15 -100 c0 -7 -6 -15 -12 -17 -8 -3 -13 4 -13 17 0 13 5 20 13 18 6 -3 12 -11 12 -18z m1465 -60 c0 -5 -7 -10 -16 -10 -8 0 -12 5 -9 10 3 6 10 10 16 10 5 0 9 -4 9 -10z m-1800 -301 c0 -11 -4 -17 -10 -14 -5 3 -10 13 -10 21 0 8 5 14 10 14 6 0 10 -9 10 -21z m38 -116 c-4 -22 -22 -20 -26 1 -2 10 3 16 13 16 10 0 15 -7 13 -17z m132 -233 c0 -5 -7 -10 -16 -10 -8 0 -12 5 -9 10 3 6 10 10 16 10 5 0 9 -4 9 -10z m-200 -84 c0 -3 -4 -8 -10 -11 -5 -3 -10 -1 -10 4 0 6 5 11 10 11 6 0 10 -2 10 -4z"
       id="path14"
       style="fill:#0000ff" />
    <path
       d="M4123 6879 c-75 -37 -152 -116 -190 -197 -24 -50 -27 -69 -28 -162 0 -103 1 -108 37 -182 68 -137 192 -219 342 -226 86 -5 133 5 212 44 49 24 123 89 113 99 -3 2 -22 0 -44 -6 -21 -6 -79 -9 -129 -7 -73 2 -101 8 -140 28 -65 33 -136 103 -166 165 -22 44 -25 63 -25 160 0 98 3 116 26 165 24 51 64 97 114 135 19 13 18 14 -20 14 -24 0 -64 -12 -102 -30z"
       id="path16"
       style="fill:#ffa500" />
    <path
       d="M3235 6259 c-129 -23 -350 -152 -408 -237 -33 -47 -60 -112 -85 -199 -40 -140 -51 -240 -62 -568 -15 -442 -36 -740 -76 -1050 -39 -301 -44 -343 -55 -475 -14 -175 -44 -377 -74 -500 -14 -58 -29 -132 -32 -166 -5 -58 -4 -61 18 -67 13 -4 82 -7 152 -7 93 0 129 3 132 13 6 15 74 373 85 447 42 274 75 532 89 710 40 487 47 584 71 1020 18 336 25 400 51 495 6 22 13 51 16 64 6 26 52 75 151 163 59 53 63 59 71 114 5 33 12 100 15 150 6 103 5 105 -59 93z m-5 -54 c15 -18 10 -45 -12 -59 -14 -8 -22 -6 -40 11 -21 22 -21 23 -3 43 21 24 38 25 55 5z m-12 -102 c3 -18 -8 -28 -61 -54 -153 -74 -230 -204 -280 -474 -9 -44 -18 -93 -21 -110 -5 -27 -29 -383 -56 -835 -22 -364 -38 -494 -120 -955 -20 -117 -83 -408 -108 -505 -19 -73 -32 -105 -42 -105 -24 0 -24 83 0 182 21 87 73 339 91 441 5 28 14 78 19 110 11 57 21 117 40 235 28 173 45 364 75 852 25 414 36 570 41 574 2 2 -3 13 -12 22 -16 17 -15 20 3 36 13 12 25 43 33 88 17 94 65 237 101 306 41 75 110 141 194 184 77 39 98 41 103 8z m-180 -21 c2 -7 -3 -12 -12 -12 -9 0 -16 7 -16 16 0 17 22 14 28 -4z m217 -102 c0 -18 -6 -26 -23 -28 -13 -2 -25 3 -28 12 -10 26 4 48 28 44 17 -2 23 -10 23 -28z m-417 -153 c3 -21 -1 -27 -17 -27 -27 0 -34 15 -21 40 15 28 34 21 38 -13z m176 -22 c8 -21 -3 -45 -20 -45 -18 0 -28 24 -20 45 3 8 12 15 20 15 7 0 16 -7 20 -15z"
       id="path18"
       style="fill:#0000ff" />
    <path
       d="M5273 6257 c-8 -13 -5 -105 7 -217 8 -72 13 -87 32 -100 13 -8 39 -32 58 -53 30 -33 39 -38 66 -32 33 6 52 -13 33 -32 -7 -7 -2 -23 14 -46 52 -76 74 -239 97 -712 6 -115 15 -264 20 -330 5 -66 14 -194 20 -285 10 -156 14 -202 41 -465 25 -249 100 -722 151 -948 l10 -48 144 3 c83 2 147 7 154 14 11 11 1 77 -44 284 -32 150 -54 304 -66 465 -5 72 -19 198 -30 280 -55 400 -100 993 -100 1309 0 308 -65 591 -160 700 -52 59 -157 126 -280 179 -79 34 -157 50 -167 34z m125 -136 c9 -5 35 -17 56 -27 57 -27 151 -118 185 -178 76 -132 132 -398 151 -711 12 -205 26 -438 40 -670 15 -233 32 -380 67 -585 8 -47 18 -110 23 -140 8 -54 65 -337 115 -580 20 -96 24 -130 15 -148 -5 -13 -15 -22 -21 -20 -28 9 -157 624 -213 1018 -31 216 -52 487 -86 1105 -18 324 -60 537 -136 687 -31 61 -57 91 -115 134 -53 39 -74 43 -82 14 -6 -24 -29 -26 -47 -5 -10 12 -10 18 -1 29 9 11 10 20 1 36 -9 16 -8 25 1 36 13 16 23 17 47 5z m160 0 c20 -12 10 -46 -14 -49 -25 -4 -40 24 -23 44 13 16 19 17 37 5z m202 -208 c0 -20 -4 -24 -22 -21 -25 3 -37 36 -17 48 20 13 39 0 39 -27z m-245 -13 c-5 -8 -11 -8 -17 -2 -6 6 -7 16 -3 22 5 8 11 8 17 2 6 -6 7 -16 3 -22z m85 -151 c0 -5 -7 -9 -15 -9 -15 0 -20 12 -9 23 8 8 24 -1 24 -14z m200 -49 c0 -13 -7 -20 -18 -20 -24 0 -32 8 -25 26 8 22 43 17 43 -6z"
       id="path20"
       style="fill:#0000ff" />
    <path
       d="M3211 5777 c-58 -46 -66 -60 -90 -167 -15 -69 -25 -172 -36 -380 -23 -442 -35 -635 -45 -755 -5 -60 -14 -168 -20 -240 -31 -374 -81 -735 -160 -1140 -67 -346 -80 -443 -80 -578 0 -198 55 -291 198 -339 71 -24 489 -95 499 -85 4 4 10 33 13 64 6 53 5 59 -21 83 -44 41 -62 88 -62 161 0 60 -3 71 -29 101 -51 58 -146 205 -183 283 -109 231 -124 504 -46 850 17 77 130 540 147 600 76 283 149 597 164 704 13 99 7 139 -25 151 -37 14 -42 57 -34 295 3 121 4 223 0 226 -3 3 -24 11 -47 17 -51 15 -84 68 -84 136 0 25 -4 46 -9 46 -4 0 -27 -15 -50 -33z m109 -230 c0 -14 -22 -44 -59 -81 -48 -48 -63 -57 -87 -54 -23 2 -30 8 -32 31 -3 23 5 37 40 69 64 60 98 79 120 67 10 -5 18 -20 18 -32z m24 -193 c9 -8 16 -19 16 -24 0 -11 -104 -149 -160 -213 -34 -38 -48 -47 -69 -45 -22 2 -27 9 -29 37 -2 19 0 37 5 40 4 3 48 52 96 108 103 119 113 126 141 97z m53 -389 c6 -17 -21 -71 -109 -220 -169 -286 -150 -260 -188 -260 -66 0 -56 32 82 262 143 238 159 259 188 243 12 -6 24 -18 27 -25z m-84 -436 c8 -13 4 -33 -18 -80 -73 -165 -120 -252 -143 -267 -23 -15 -25 -15 -44 7 -12 16 -16 31 -12 45 10 33 139 275 158 297 19 23 44 22 59 -2z"
       id="path22"
       style="fill:#191970" />
    <path
       d="M5295 5756 c-8 -71 -39 -117 -85 -129 -54 -13 -58 -22 -49 -117 4 -47 8 -153 8 -236 1 -159 -2 -170 -50 -187 -32 -11 -31 -100 2 -252 16 -75 68 -295 79 -335 21 -78 212 -848 221 -890 41 -200 52 -448 25 -577 -43 -201 -128 -377 -252 -521 -35 -41 -38 -47 -39 -115 -2 -80 -19 -124 -61 -154 -25 -19 -26 -22 -19 -86 7 -66 8 -67 37 -67 16 0 48 4 71 9 23 6 89 17 147 26 155 24 269 53 316 80 168 99 179 270 55 905 -100 517 -137 811 -181 1435 -6 83 -15 209 -20 280 -5 72 -12 182 -15 245 -16 341 -26 468 -46 553 -20 87 -24 95 -71 140 -28 26 -54 47 -58 47 -4 0 -11 -25 -15 -54z m42 -282 c83 -75 97 -96 89 -130 -12 -44 -49 -31 -132 48 -81 78 -97 102 -82 131 16 31 49 18 125 -49z m-28 -334 c89 -103 96 -116 82 -146 -9 -20 -17 -25 -38 -22 -21 2 -41 21 -80 73 -71 94 -84 123 -70 147 20 32 44 20 106 -52z m-62 -239 c31 -47 66 -102 78 -121 93 -147 116 -183 149 -243 34 -60 37 -72 27 -93 -9 -20 -17 -25 -39 -22 -23 3 -38 21 -96 118 -134 221 -236 404 -236 421 0 21 28 39 47 32 7 -3 39 -44 70 -92z m133 -546 c95 -171 97 -178 70 -205 -34 -34 -55 -11 -127 138 -85 180 -86 181 -72 199 28 33 51 10 129 -132z"
       id="path24"
       style="fill:#191970" />
    <path
       d="M4107 4426 c-107 -128 -143 -193 -158 -286 -19 -119 19 -240 106 -335 25 -27 51 -62 58 -77 16 -37 31 -35 48 5 23 54 14 143 -28 263 -34 99 -37 118 -36 209 1 67 7 122 21 168 21 72 18 88 -11 53z"
       id="path26"
       style="fill:#228b22" />
    <path
       d="M4155 4276 c-12 -80 2 -183 40 -291 25 -73 35 -117 35 -163 0 -55 2 -63 17 -60 12 2 20 16 24 40 3 20 12 44 19 53 9 11 11 35 7 83 -5 59 -21 110 -74 232 -20 46 -28 67 -46 115 l-15 40 -7 -49z"
       id="path28"
       style="fill:#228b22" />
    <path
       d="M4789 3981 c-86 -64 -129 -109 -129 -136 0 -3 28 -18 61 -35 69 -34 89 -32 119 9 28 40 76 226 61 236 -4 2 -54 -31 -112 -74z"
       id="path30"
       style="fill:#228b22" />
    <path
       d="M4931 3928 c-20 -98 -59 -158 -128 -196 -12 -7 -13 -13 -4 -31 15 -27 34 -26 97 3 44 21 54 31 69 70 16 42 17 55 5 119 -17 100 -24 106 -39 35z"
       id="path32"
       style="fill:#228b22" />
    <path
       d="M4353 3828 c-27 -13 -30 -38 -5 -38 10 0 49 -19 87 -43 68 -42 166 -87 189 -87 7 0 27 -13 46 -30 19 -16 40 -29 45 -30 6 0 28 -20 48 -45 21 -25 47 -50 59 -56 l22 -12 -23 34 c-32 49 -76 138 -90 182 -14 41 -20 46 -106 77 -174 62 -224 71 -272 48z"
       id="path34"
       style="fill:#ff0000" />
    <path
       d="M3805 3818 c-2 -7 -6 -37 -10 -67 -3 -29 -17 -88 -30 -130 -14 -42 -25 -92 -25 -111 l0 -35 16 30 c44 85 106 115 239 115 58 0 65 2 65 19 0 59 -78 130 -183 170 -68 25 -67 25 -72 9z"
       id="path36"
       style="fill:#ff0000" />
    <path
       d="M3470 3745 c0 -3 17 -32 39 -63 49 -73 74 -123 96 -194 16 -52 30 -67 66 -68 4 0 4 33 2 73 -6 83 -28 125 -97 180 -58 47 -106 79 -106 72z"
       id="path38"
       style="fill:#228b22" />
    <path
       d="M4259 3689 c-35 -23 -82 -56 -104 -73 -59 -47 -89 -57 -197 -65 -81 -6 -102 -12 -122 -30 -35 -33 -49 -92 -35 -143 7 -24 16 -47 20 -52 4 -4 40 12 81 36 144 87 300 148 377 148 92 0 315 -51 379 -87 l45 -25 -7 46 c-9 58 -29 107 -53 128 -10 9 -52 29 -93 45 -41 16 -104 48 -139 71 -35 23 -69 42 -76 42 -7 0 -41 -19 -76 -41z"
       id="path40"
       style="fill:#ff0000" />
    <path
       d="M3430 3537 c0 -123 4 -165 19 -210 28 -85 79 -152 100 -131 9 8 6 119 -4 183 -7 46 -6 56 9 66 16 12 16 16 1 52 -21 51 -107 193 -117 193 -4 0 -8 -69 -8 -153z"
       id="path42"
       style="fill:#228b22" />
    <path
       d="M5219 3580 c-8 -5 -48 -16 -89 -26 -40 -9 -88 -23 -106 -30 -54 -23 -70 -72 -36 -114 16 -20 21 -21 67 -9 28 6 64 20 80 31 28 19 125 136 125 151 0 10 -22 8 -41 -3z"
       id="path44"
       style="fill:#228b22" />
    <path
       d="M5329 3464 c-7 -145 -41 -186 -166 -200 -34 -3 -63 -9 -63 -13 1 -3 23 -31 51 -61 93 -102 98 -140 28 -207 -60 -56 -96 -133 -64 -133 15 0 79 30 110 52 48 33 97 87 115 125 37 78 38 330 2 498 -7 34 -9 26 -13 -61z m-64 -373 c-9 -16 -25 -3 -18 15 4 10 9 12 15 6 6 -6 7 -15 3 -21z m-26 -145 c9 -11 8 -15 -5 -20 -23 -9 -24 -8 -24 14 0 23 13 26 29 6z"
       id="path46"
       style="fill:#0000ff" />
    <path
       d="M5226 3451 c-39 -52 -119 -101 -163 -101 -25 0 -29 -10 -11 -28 26 -26 173 -5 203 28 19 21 35 150 18 150 -5 0 -26 -22 -47 -49z"
       id="path48"
       style="fill:#228b22" />
    <path
       d="M4766 3368 c3 -51 10 -115 16 -141 7 -35 7 -76 -1 -145 -23 -183 -56 -284 -133 -401 -21 -33 -21 -34 -3 -27 11 4 43 10 70 13 51 6 87 27 153 88 32 30 34 35 43 139 5 60 19 147 31 195 12 47 22 113 22 147 1 52 -3 66 -28 98 -22 30 -153 126 -170 126 -3 0 -2 -42 0 -92z"
       id="path50"
       style="fill:#ff0000" />
    <path
       d="M4185 3367 c-44 -64 -50 -78 -50 -124 0 -73 15 -85 54 -40 49 55 91 71 180 64 104 -7 179 -37 229 -91 48 -52 66 -103 58 -162 l-6 -44 29 15 c27 13 30 21 37 81 9 85 0 194 -19 231 -21 39 -55 67 -103 86 -59 22 -245 57 -307 57 l-52 -1 -50 -72z"
       id="path52"
       style="fill:#8b0000" />
    <path
       d="M4015 3354 c-179 -90 -189 -106 -183 -283 5 -129 17 -184 60 -266 38 -73 106 -130 183 -155 22 -7 49 -19 61 -26 45 -30 138 -54 206 -54 128 0 219 67 291 215 71 145 69 155 -20 75 -66 -58 -161 -110 -257 -139 -85 -26 -138 -27 -190 -1 -35 17 -48 32 -84 103 -23 46 -67 114 -97 150 -72 87 -72 108 -5 182 27 30 63 83 79 117 16 35 39 78 51 96 30 44 15 41 -95 -14z"
       id="path54"
       style="fill:#8b0000" />
    <path
       d="M3606 3344 c15 -67 7 -144 -31 -289 -22 -86 -34 -149 -30 -165 4 -14 33 -52 64 -85 32 -33 83 -99 113 -146 43 -66 63 -89 88 -98 59 -20 313 -11 280 11 -3 2 -36 19 -75 38 -170 84 -230 205 -244 490 -5 107 -12 155 -25 182 -19 39 -74 83 -120 94 l-29 7 9 -39z"
       id="path56"
       style="fill:#ff0000" />
    <path
       d="M4273 3195 c-20 -8 -39 -28 -49 -49 -15 -31 -16 -39 -3 -72 19 -51 35 -53 43 -6 3 21 15 51 27 65 17 23 28 27 72 27 60 -1 112 -24 140 -62 20 -26 20 -28 3 -73 -48 -124 -150 -169 -241 -107 -24 17 -65 65 -103 122 -34 52 -68 104 -75 114 -13 19 -15 18 -50 -20 -54 -57 -55 -68 -10 -117 43 -47 70 -88 116 -179 28 -55 37 -64 70 -72 45 -11 112 3 203 44 49 22 70 39 102 83 90 122 97 143 60 209 -27 48 -70 76 -146 94 -73 17 -119 17 -159 -1z"
       id="path58"
       style="fill:#8b0000" />
    <path
       d="M5006 3098 c-15 -62 -31 -162 -35 -221 -10 -117 -12 -121 -86 -188 -22 -21 -38 -39 -35 -42 5 -5 106 -11 142 -8 29 2 39 37 42 139 4 115 22 166 84 230 47 49 49 57 26 92 -21 32 -96 110 -105 110 -4 0 -19 -51 -33 -112z"
       id="path60"
       style="fill:#ff0000" />
    <path
       d="M4340 3085 c-6 -8 -14 -41 -17 -75 l-6 -60 31 0 c36 0 86 45 96 87 6 21 3 31 -16 45 -28 21 -71 23 -88 3z"
       id="path62"
       style="fill:#8b0000" />
    <path
       d="M3390 2959 c0 -13 67 -112 141 -209 64 -85 126 -147 135 -137 10 10 -50 97 -101 147 -52 50 -76 89 -84 138 -5 27 -14 36 -48 52 -24 10 -43 14 -43 9z"
       id="path64"
       style="fill:#ff0000" />
    <path
       d="M2424 2919 c-11 -18 33 -27 152 -33 112 -6 133 -4 144 9 7 8 10 18 7 21 -8 8 -298 10 -303 3z"
       id="path66"
       style="fill:#4b0082" />
    <path
       d="M5842 2905 c3 -19 10 -20 128 -17 141 3 170 7 170 25 0 9 -38 12 -150 12 -145 0 -151 -1 -148 -20z"
       id="path68"
       style="fill:#4b0082" />
    <path
       d="M3370 2868 c0 -14 10 -50 22 -79 50 -121 109 -214 202 -313 l45 -49 118 7 c76 5 132 14 158 25 l40 18 -94 7 c-75 5 -105 13 -152 37 -78 39 -169 130 -254 254 -85 125 -85 125 -85 93z"
       id="path70"
       style="fill:#ff0000" />
    <path
       d="M5193 2831 l-91 -46 -4 -50 c-3 -27 -1 -54 4 -60 5 -5 34 17 71 55 69 72 133 151 120 149 -4 -1 -49 -23 -100 -48z"
       id="path72"
       style="fill:#ff0000" />
    <path
       d="M2410 2807 c0 -30 21 -35 176 -44 110 -6 112 -5 119 17 4 12 3 26 -2 30 -4 4 -72 11 -150 14 l-143 7 0 -24z"
       id="path74"
       style="fill:#4b0082" />
    <path
       d="M5950 2821 c-67 -4 -95 -10 -94 -18 4 -49 -4 -46 122 -39 156 8 172 12 172 42 0 27 4 27 -200 15z"
       id="path76"
       style="fill:#4b0082" />
    <path
       d="M2406 2701 c-4 -6 -5 -20 -1 -30 4 -15 20 -20 76 -25 126 -13 246 12 213 43 -15 15 -280 25 -288 12z"
       id="path78"
       style="fill:#4b0082" />
    <path
       d="M5947 2703 c-74 -4 -78 -5 -75 -26 2 -17 12 -23 43 -29 51 -9 149 -9 200 0 34 6 40 11 43 35 l3 27 -68 -2 c-37 -1 -103 -4 -146 -5z"
       id="path80"
       style="fill:#4b0082" />
    <path
       d="M5120 2630 c-56 -34 -109 -50 -165 -50 -34 0 -64 -2 -66 -4 -3 -3 -3 -23 -1 -45 4 -40 5 -41 42 -41 75 0 142 36 200 110 30 38 26 51 -10 30z"
       id="path82"
       style="fill:#ff0000" />
    <path
       d="M4610 2554 c-75 -51 -170 -84 -244 -84 -29 0 -100 9 -159 20 -120 22 -150 17 -169 -26 -11 -24 -9 -28 28 -59 21 -19 54 -41 72 -50 31 -16 35 -15 99 15 79 37 141 38 238 0 54 -20 67 -21 122 -12 77 12 168 53 183 81 6 12 14 43 17 70 5 41 2 51 -18 69 -38 37 -92 29 -169 -24z"
       id="path84"
       style="fill:#ff0000" />
    <path
       d="M2415 2478 c17 -270 63 -418 162 -528 71 -79 172 -146 283 -187 44 -17 204 -53 233 -53 4 0 7 13 7 29 0 27 -2 29 -57 36 -130 15 -254 64 -328 128 -34 30 -38 37 -26 50 12 15 22 12 106 -33 99 -54 162 -74 262 -85 53 -7 64 -5 69 9 4 9 4 19 2 22 -3 2 -41 11 -84 19 -120 23 -133 26 -144 40 -18 22 0 47 29 42 14 -2 68 -12 119 -21 52 -10 101 -14 110 -10 17 7 0 12 -108 33 -29 5 -35 11 -35 31 0 22 4 25 35 24 19 -1 72 -7 116 -14 76 -12 145 -8 130 8 -4 3 -60 14 -126 24 -138 19 -248 50 -301 84 -61 38 -109 85 -130 126 -30 59 -59 185 -59 261 l0 67 -136 0 -136 0 7 -102z m153 -271 c4 -20 -25 -34 -40 -19 -15 15 -1 44 19 40 10 -2 19 -11 21 -21z m65 -139 c17 -36 12 -58 -13 -58 -32 0 -61 60 -40 85 16 19 35 9 53 -27z m233 15 c-10 -10 -19 5 -10 18 6 11 8 11 12 0 2 -7 1 -15 -2 -18z m-119 -9 c9 -23 -13 -40 -32 -24 -12 10 -13 16 -4 26 15 18 28 18 36 -2z m228 -24 c4 -6 1 -18 -6 -26 -11 -13 -14 -13 -27 0 -8 8 -11 19 -8 25 9 14 33 14 41 1z m-102 -34 c6 -15 -11 -36 -28 -36 -17 0 -34 21 -28 36 3 8 15 14 28 14 13 0 25 -6 28 -14z"
       id="path86"
       style="fill:#0000ff" />
    <path
       d="M5880 2500 c0 -214 -87 -349 -265 -410 -67 -23 -260 -60 -313 -60 -23 0 -32 -4 -29 -12 5 -16 119 -15 200 3 51 10 60 10 74 -4 26 -26 2 -43 -82 -58 -46 -8 -71 -17 -66 -22 9 -9 38 -5 233 30 20 4 30 0 34 -11 13 -34 -19 -48 -173 -77 -65 -12 -69 -15 -54 -38 7 -10 24 -12 72 -6 104 11 217 52 304 111 11 8 30 14 42 14 41 0 27 -34 -29 -73 -77 -53 -156 -85 -255 -103 -117 -21 -115 -21 -111 -46 3 -21 8 -23 47 -20 75 6 191 40 276 82 230 113 335 296 360 625 3 50 9 105 12 123 l5 32 -141 0 -141 0 0 -80z m157 -286 c10 -26 -14 -41 -35 -21 -15 16 -15 19 -2 27 21 14 30 12 37 -6z m-323 -125 c-8 -14 -24 -10 -24 6 0 9 6 12 15 9 8 -4 12 -10 9 -15z m276 -18 c0 -26 -29 -61 -51 -61 -26 0 -25 39 2 74 17 21 24 24 35 15 8 -6 14 -19 14 -28z m-135 -6 c0 -11 -8 -21 -17 -23 -14 -3 -18 3 -18 23 0 20 4 26 18 23 9 -2 17 -12 17 -23z m-227 -28 c2 -11 -3 -17 -16 -17 -24 0 -32 8 -25 26 7 20 37 13 41 -9z m120 -29 c4 -19 -35 -35 -50 -20 -6 6 -8 18 -4 27 8 21 50 16 54 -7z"
       id="path88"
       style="fill:#0000ff" />
    <path
       d="M3905 2401 c-9 -9 -55 -13 -297 -27 -87 -5 -98 -8 -98 -25 0 -37 29 -40 273 -31 129 5 239 12 246 16 7 5 2 15 -16 30 -52 43 -89 56 -108 37z"
       id="path90"
       style="fill:#ff0000" />
    <path
       d="M4788 2357 l-43 -32 118 -9 c137 -9 183 -4 190 24 3 10 2 21 -1 24 -3 3 -39 6 -81 6 -42 0 -90 4 -108 9 -27 8 -37 5 -75 -22z"
       id="path92"
       style="fill:#ff0000" />
    <path
       d="M4148 2243 c-32 -2 -58 -8 -58 -12 0 -17 92 -30 280 -40 223 -11 272 -22 345 -80 115 -92 126 -98 196 -103 37 -3 72 -3 77 1 7 4 8 20 2 46 -5 22 -10 66 -10 98 0 37 -4 59 -12 61 -36 11 -735 35 -820 29z"
       id="path94"
       style="fill:#a0522d" />
    <path
       d="M3695 2221 l-110 -6 -5 -90 c-5 -83 -22 -135 -42 -135 -15 0 -8 -28 16 -70 l24 -42 38 73 c55 104 111 156 245 223 l112 56 -84 -2 c-46 -1 -133 -4 -194 -7z"
       id="path96"
       style="fill:#a0522d" />
    <path
       d="M3913 2115 c-51 -24 -112 -57 -137 -74 -42 -29 -106 -114 -106 -141 0 -9 31 -11 138 -8 l137 4 109 59 110 59 120 6 c103 6 134 12 210 40 84 32 88 34 60 42 -16 5 -119 12 -229 17 -151 6 -209 12 -239 24 -55 24 -70 22 -173 -28z"
       id="path98"
       style="fill:#ffd700" />
    <path
       d="M4498 1987 c-36 -12 -70 -26 -74 -30 -4 -4 2 -17 13 -30 11 -12 44 -58 73 -102 31 -47 99 -126 164 -190 91 -90 123 -130 174 -217 89 -151 96 -176 90 -319 l-5 -119 77 0 78 0 4 73 c2 39 11 88 20 107 40 86 41 105 13 161 -14 28 -54 84 -89 123 -98 110 -124 159 -162 306 -14 51 -20 68 -59 153 -20 43 -54 80 -88 95 -43 19 -153 13 -229 -11z"
       id="path100"
       style="fill:#ffd700" />
    <path
       d="M3358 1937 c-37 -14 -35 -28 5 -52 17 -10 56 -44 85 -74 l52 -56 0 56 c0 75 -40 140 -85 138 -16 -1 -42 -6 -57 -12z"
       id="path102"
       style="fill:#ffd700" />
    <path
       d="M4180 1931 c-25 -10 -83 -38 -129 -62 l-84 -44 -151 -5 c-207 -7 -226 -18 -245 -135 -20 -117 -38 -159 -143 -317 -95 -142 -101 -155 -101 -203 0 -52 17 -95 61 -152 23 -31 29 -33 83 -33 l58 0 6 48 c10 71 23 107 82 224 29 59 53 110 53 113 0 4 14 27 31 53 48 71 145 162 245 229 49 33 110 85 136 115 55 65 110 87 231 95 l78 6 -22 23 c-50 53 -125 71 -189 45z"
       id="path104"
       style="fill:#ffd700" />
    <path
       d="M5190 1910 c5 -17 6 -61 3 -98 -3 -48 0 -77 11 -104 18 -42 173 -238 188 -238 6 0 8 14 5 33 -3 17 -9 55 -12 82 -16 136 -36 228 -58 273 -11 22 -73 60 -124 76 -20 7 -21 5 -13 -24z"
       id="path106"
       style="fill:#ffd700" />
    <path
       d="M4932 1919 c-26 -8 -32 -14 -27 -27 7 -16 40 -115 67 -202 22 -72 50 -117 124 -200 105 -117 119 -146 118 -242 0 -43 3 -78 7 -78 21 0 88 79 98 115 25 91 11 130 -94 257 -94 115 -117 172 -113 277 l3 75 -35 18 c-38 19 -97 21 -148 7z"
       id="path108"
       style="fill:#ffd700" />
    <path
       d="M3232 1853 c-10 -21 -28 -92 -37 -143 l-5 -35 97 0 c81 0 106 -4 142 -23 51 -25 71 -17 54 20 -18 39 -115 140 -162 170 -52 32 -77 35 -89 11z"
       id="path110"
       style="fill:#ffd700" />
    <path
       d="M4227 1729 c-57 -13 -92 -35 -125 -76 -16 -21 -66 -60 -111 -86 -44 -26 -93 -64 -109 -83 -54 -65 -76 -179 -52 -265 23 -84 72 -122 166 -131 44 -3 44 -4 21 77 -28 104 25 239 117 299 117 76 330 86 441 21 50 -29 77 -58 105 -112 24 -46 28 -84 16 -158 l-7 -50 30 35 c48 55 74 114 66 152 -12 59 -127 218 -156 218 -5 0 -37 24 -71 53 -94 80 -112 89 -201 103 -45 8 -84 13 -87 13 -3 -1 -22 -5 -43 -10z"
       id="path112"
       style="fill:#ff8c00" />
    <path
       d="M3212 1600 c-33 -14 -41 -46 -52 -198 -6 -76 -13 -153 -15 -172 -5 -27 4 -56 37 -129 37 -81 47 -96 72 -102 16 -5 33 -6 37 -3 4 2 -3 29 -17 59 -27 62 -32 146 -12 192 7 15 54 91 105 167 51 77 93 145 93 152 0 7 -17 18 -37 24 -52 16 -183 22 -211 10z"
       id="path114"
       style="fill:#ffd700" />
    <path
       d="M4345 1440 c-11 -4 -34 -13 -52 -20 -17 -7 -60 -36 -94 -66 -34 -30 -68 -54 -75 -54 -20 0 -44 -41 -44 -74 0 -16 18 -66 39 -110 22 -45 45 -93 50 -108 9 -24 16 -28 47 -28 19 0 34 3 32 8 -24 45 -37 87 -43 135 -6 50 -3 64 20 111 32 66 73 90 155 90 67 1 108 -25 151 -92 25 -40 29 -56 29 -119 0 -51 -5 -81 -16 -98 -14 -22 -14 -25 -1 -31 8 -3 30 -4 49 -2 l33 3 2 135 c1 74 3 142 4 150 9 66 -30 117 -119 157 -54 23 -128 30 -167 13z"
       id="path116"
       style="fill:#ff8c00" />
    <path
       d="M3672 1189 c-31 -65 -56 -131 -59 -160 l-6 -49 122 0 c132 0 128 -3 85 55 -27 38 -57 131 -69 218 -3 26 -9 47 -13 47 -4 0 -31 -50 -60 -111z"
       id="path118"
       style="fill:#ffd700" />
    <path
       d="M5377 1224 c-14 -27 -36 -59 -50 -72 l-25 -24 61 -58 c67 -66 61 -65 207 -36 l55 11 8 53 c10 59 -1 82 -38 82 -44 0 -150 41 -172 67 l-21 26 -25 -49z"
       id="path120"
       style="fill:#ffd700" />
    <path
       d="M4289 1204 c-7 -9 -15 -42 -17 -74 -4 -48 0 -64 17 -89 23 -32 63 -46 104 -36 30 8 47 47 47 110 0 48 -20 72 -78 92 -48 17 -57 16 -73 -3z"
       id="path122"
       style="fill:#ff8c00" />
    <path
       d="M4803 1146 c-44 -65 -53 -86 -53 -122 l0 -44 45 0 c60 0 66 15 63 142 l-3 103 -52 -79z"
       id="path124"
       style="fill:#ffd700" />
    <path
       d="M3010 1190 c-14 -4 -38 -11 -53 -14 -27 -6 -28 -8 -25 -69 l3 -62 56 -11 c98 -19 149 -23 149 -10 0 7 -9 30 -19 52 -11 23 -26 59 -33 82 -14 44 -26 49 -78 32z"
       id="path126"
       style="fill:#cd853f" />
    <path
       d="M5176 1093 c-3 -3 -6 -31 -6 -61 l0 -55 38 7 c20 3 48 6 62 6 14 0 32 4 40 10 25 15 -18 50 -121 97 -3 1 -9 0 -13 -4z"
       id="path128"
       style="fill:#ffd700" />
    <path
       d="M1959 7109 c-16 -17 -29 -37 -29 -44 0 -18 187 -138 205 -131 19 7 35 47 35 86 0 16 -11 42 -26 60 -58 68 -137 81 -185 29z"
       id="path130"
       style="fill:#2f4f4f" />
    <path
       d="M6694 6548 c10 -53 21 -54 77 -9 l52 41 -68 0 -67 0 6 -32z"
       id="path132"
       style="fill:#2f4f4f" />
    <path
       d="M1681 6547 c-6 -8 -12 -24 -13 -37 -2 -19 4 -26 35 -38 33 -13 40 -13 48 -1 13 20 11 63 -3 77 -16 16 -53 15 -67 -1z"
       id="path134"
       style="fill:#2f4f4f" />
    <path
       d="M6884 6190 c-28 -11 -21 -55 12 -76 40 -27 81 10 68 62 -7 26 -38 31 -80 14z"
       id="path136"
       style="fill:#2f4f4f" />
    <path
       d="M1555 5667 c-68 -21 -87 -96 -37 -147 57 -56 191 -48 221 14 18 38 5 93 -29 117 -33 24 -106 31 -155 16z"
       id="path138"
       style="fill:#2f4f4f" />
    <path
       d="M6862 4868 c-79 -17 -104 -101 -47 -157 21 -21 33 -24 99 -24 66 0 79 3 101 23 19 18 25 34 25 65 0 54 -22 83 -68 90 -20 4 -44 8 -52 10 -8 1 -34 -2 -58 -7z"
       id="path140"
       style="fill:#2f4f4f" />
    <path
       d="M1502 3771 c-62 -21 -85 -41 -120 -100 -20 -35 -26 -57 -26 -105 1 -131 89 -219 221 -220 106 0 187 66 213 173 26 108 -44 223 -153 256 -63 19 -70 19 -135 -4z m156 -78 c98 -72 95 -192 -7 -260 -62 -42 -157 -21 -205 44 -30 41 -33 113 -6 161 44 78 150 105 218 55z"
       id="path142"
       style="fill:#2f4f4f" />
    <path
       d="M6836 3730 c-85 -43 -126 -108 -126 -200 0 -226 293 -306 407 -112 22 37 27 58 27 111 0 41 -6 78 -16 96 -56 106 -192 154 -292 105z m181 -76 c66 -50 84 -140 40 -205 -30 -47 -101 -82 -147 -74 -77 14 -140 84 -140 155 0 42 37 108 72 130 50 30 131 28 175 -6z"
       id="path144"
       style="fill:#2f4f4f" />
    <path
       d="M6365 1466 c-25 -20 -30 -31 -30 -69 0 -34 6 -52 24 -71 30 -32 99 -66 132 -66 26 0 71 40 82 73 16 44 -38 112 -112 143 -46 19 -61 18 -96 -10z"
       id="path146"
       style="fill:#2f4f4f" />
    <path
       d="M2328 1191 c-27 -25 -31 -33 -22 -48 6 -10 23 -22 37 -27 51 -18 77 38 38 83 l-19 22 -34 -30z"
       id="path148"
       style="fill:#2f4f4f" />
    <path
       d="M3542 467 c-43 -46 -57 -157 -24 -196 24 -30 84 -38 117 -17 54 35 76 170 35 214 -30 31 -98 31 -128 -1z"
       id="path150"
       style="fill:#2f4f4f" />
    <path
       d="M4544 416 c-3 -9 -3 -28 0 -42 6 -24 10 -26 43 -21 80 13 83 69 4 75 -30 2 -43 -1 -47 -12z"
       id="path152"
       style="fill:#2f4f4f" />
    <path
       d="M4583 273 c-18 -3 -23 -11 -23 -33 0 -60 16 -71 79 -49 25 9 31 16 31 40 0 18 -7 32 -19 39 -20 10 -29 11 -68 3z"
       id="path154"
       style="fill:#2f4f4f" />
  </g>
</svg>
