<?xml version="1.0" encoding="UTF-8" standalone="no"?>
<svg
   xmlns:dc="http://purl.org/dc/elements/1.1/"
   xmlns:cc="http://creativecommons.org/ns#"
   xmlns:rdf="http://www.w3.org/1999/02/22-rdf-syntax-ns#"
   xmlns:svg="http://www.w3.org/2000/svg"
   xmlns="http://www.w3.org/2000/svg"
   xmlns:sodipodi="http://sodipodi.sourceforge.net/DTD/sodipodi-0.dtd"
   xmlns:inkscape="http://www.inkscape.org/namespaces/inkscape"
   version="1.0"
   width="850.000000pt"
   height="850.000000pt"
   viewBox="0 0 850.000000 850.000000"
   preserveAspectRatio="xMidYMid meet"
   id="svg228"
   sodipodi:docname="bible242.svg"
   inkscape:version="0.92.2 5c3e80d, 2017-08-06">
  <defs
     id="defs232" />
  <sodipodi:namedview
     pagecolor="#ffffff"
     bordercolor="#666666"
     borderopacity="1"
     objecttolerance="10"
     gridtolerance="10"
     guidetolerance="10"
     inkscape:pageopacity="0"
     inkscape:pageshadow="2"
     inkscape:window-width="1920"
     inkscape:window-height="978"
     id="namedview230"
     showgrid="false"
     inkscape:zoom="0.41647059"
     inkscape:cx="400.69384"
     inkscape:cy="597.99743"
     inkscape:window-x="0"
     inkscape:window-y="1"
     inkscape:window-maximized="1"
     inkscape:current-layer="svg228" />
  <metadata
     id="metadata2">
Created by potrace 1.14, written by Peter Selinger 2001-2017
<rdf:RDF>
  <cc:Work
     rdf:about="">
    <dc:format>image/svg+xml</dc:format>
    <dc:type
       rdf:resource="http://purl.org/dc/dcmitype/StillImage" />
  </cc:Work>
</rdf:RDF>
</metadata>
  <g
     transform="translate(0.000000,850.000000) scale(0.100000,-0.100000)"
     fill="#000000"
     stroke="none"
     id="g226">
    <path
       d="M0 8015 c0 -267 3 -485 6 -485 6 0 129 104 144 120 3 4 73 64 155 135 83 71 152 132 155 135 3 3 37 32 75 65 39 33 72 62 75 65 3 3 43 39 90 79 47 41 86 80 88 87 2 8 -35 53 -81 101 -47 49 -102 109 -123 135 l-39 47 -272 0 -273 1 0 -485z"
       id="path4"
       style="fill:#66cdaa" />
    <path
       d="M682 8480 c-11 -18 -5 -28 65 -102 168 -176 363 -359 553 -519 152 -128 524 -394 539 -385 3 3 28 40 55 83 27 43 70 112 96 153 27 41 99 156 161 255 l114 180 3 178 3 177 -788 0 c-778 0 -788 0 -801 -20z"
       id="path6"
       style="fill:#2e8b57" />
    <path
       d="M2425 8483 c4 -10 29 -79 56 -153 104 -281 130 -339 252 -565 44 -82 136 -301 202 -480 20 -55 45 -124 56 -152 10 -29 28 -77 38 -105 11 -29 45 -132 76 -228 31 -96 60 -186 65 -200 10 -29 65 -215 73 -245 3 -11 21 -78 41 -148 20 -70 58 -216 85 -325 33 -132 61 -221 85 -269 20 -40 36 -75 36 -78 0 -4 12 -31 26 -61 24 -52 26 -62 22 -172 -4 -112 -6 -121 -45 -202 -68 -141 -92 -232 -113 -417 -14 -122 2 -308 42 -493 32 -152 125 -460 138 -460 10 0 38 72 95 251 39 121 60 180 85 244 4 11 27 60 50 110 64 138 86 217 104 370 19 176 104 471 227 795 16 41 29 86 29 101 0 37 -41 154 -111 314 -79 180 -75 172 -93 225 -24 75 -36 157 -46 315 -11 166 -31 318 -62 470 -34 171 -39 191 -78 325 -11 41 -25 89 -30 105 -9 34 -44 142 -126 395 -31 96 -72 229 -90 295 -36 123 -94 392 -94 433 l0 22 -501 0 c-473 0 -501 -1 -494 -17z m1575 -3053 c0 -6 -12 -16 -27 -23 -16 -6 -54 -28 -85 -48 -81 -52 -133 -64 -194 -47 -33 9 -50 20 -52 32 -3 16 0 18 19 11 79 -25 135 -16 214 34 71 46 80 50 103 50 12 1 22 -4 22 -9z m-482 -772 c56 -59 72 -113 88 -296 8 -92 19 -178 25 -191 10 -25 -1 -48 -19 -37 -16 10 -32 91 -32 163 -1 92 -22 230 -44 275 -10 20 -29 49 -42 63 -23 25 -32 55 -16 55 4 0 22 -15 40 -32z"
       id="path8"
       style="fill:#cd853f" />
    <path
       d="M3490 8496 c0 -3 11 -65 25 -138 24 -134 82 -350 134 -508 16 -47 58 -179 95 -295 36 -115 71 -223 76 -240 70 -221 138 -606 155 -880 12 -198 33 -277 130 -490 34 -74 50 -113 78 -185 l25 -64 20 39 c52 105 102 293 102 390 0 51 -42 273 -70 372 -11 40 -30 105 -41 145 -57 198 -71 296 -154 1068 -39 366 -42 652 -9 768 l6 22 -286 0 c-157 0 -286 -2 -286 -4z"
       id="path10"
       style="fill:#f4a460" />
    <path
       d="M4135 8490 c-5 -9 -35 -235 -35 -269 0 -30 12 0 46 110 19 63 39 126 44 142 8 25 7 27 -20 27 -16 0 -32 -4 -35 -10z"
       id="path12"
       style="fill:#4169e1" />
    <path
       d="M4197 8388 c-19 -62 -40 -138 -47 -168 -7 -30 -19 -75 -27 -100 -11 -33 -13 -70 -8 -140 7 -116 27 -291 32 -286 5 5 49 124 77 211 42 126 64 208 91 330 14 66 34 153 44 193 l18 72 -72 0 -73 0 -35 -112z"
       id="path14"
       style="fill:#800080" />
    <path
       d="M4406 8483 c-6 -23 -29 -122 -56 -243 -35 -157 -94 -355 -165 -548 -19 -52 -32 -105 -30 -120 2 -15 9 -81 15 -147 14 -145 18 -165 30 -165 6 0 10 4 10 9 0 4 20 44 45 89 25 44 59 118 75 166 36 106 61 154 94 185 l26 24 0 271 c0 339 -8 496 -26 496 -7 0 -15 -8 -18 -17z"
       id="path16"
       style="fill:#191970" />
    <path
       d="M4520 7985 c0 -657 -18 -1005 -86 -1625 -36 -338 -49 -412 -89 -536 -24 -72 -160 -421 -199 -509 -21 -47 -41 -98 -85 -217 -51 -136 -78 -254 -97 -418 -20 -175 -29 -208 -97 -350 -32 -69 -90 -217 -127 -330 -103 -309 -120 -349 -219 -512 -116 -191 -138 -247 -182 -458 -6 -30 -15 -185 -19 -345 l-7 -290 -43 -125 c-74 -222 -82 -339 -29 -460 69 -157 245 -209 357 -107 42 39 50 100 57 452 4 214 10 334 17 343 6 7 21 12 32 10 20 -3 21 -11 26 -123 l5 -120 25 3 c35 5 40 12 49 71 10 66 22 78 57 62 24 -11 26 -15 20 -49 -30 -169 -37 -246 -43 -482 -6 -251 -5 -264 11 -247 74 74 186 16 186 -97 0 -33 -2 -36 -29 -36 -17 0 -33 5 -36 10 -8 13 -82 13 -90 0 -3 -5 -17 -10 -31 -10 -19 0 -24 -5 -24 -24 0 -31 20 -47 67 -53 54 -7 120 13 139 42 11 17 18 68 24 187 5 90 12 187 15 216 4 28 1 95 -5 147 -25 197 28 422 86 364 14 -14 14 -23 3 -75 -8 -38 -13 -155 -14 -334 -1 -151 -5 -300 -9 -330 -12 -95 42 -171 109 -154 28 7 82 61 71 71 -4 5 -42 8 -84 9 l-77 0 -3 29 c-8 69 40 145 93 145 31 0 83 -65 86 -107 1 -10 5 -4 9 12 4 17 5 66 2 111 -8 131 36 463 69 527 12 21 42 22 59 2 9 -11 7 -32 -9 -97 -37 -151 -56 -408 -31 -423 6 -3 10 2 10 13 0 27 32 52 68 52 39 0 74 -46 76 -98 l1 -37 -55 -8 c-30 -4 -67 -8 -82 -8 -20 0 -28 -5 -28 -18 0 -14 12 -22 43 -29 56 -15 110 1 153 45 44 44 49 89 30 252 -15 119 -15 143 -1 247 17 131 30 168 63 172 33 5 36 -18 18 -117 -9 -49 -16 -105 -16 -125 0 -34 1 -35 25 -24 19 8 31 8 50 0 22 -10 25 -18 25 -59 -1 -64 -19 -88 -61 -79 l-32 6 6 -41 c11 -86 42 -78 98 27 68 129 119 320 119 450 0 91 -22 169 -60 209 -30 32 -23 69 12 73 22 3 32 -4 54 -37 15 -23 30 -41 34 -41 12 0 49 170 62 282 20 169 -13 332 -97 478 -60 106 -61 119 -25 280 49 217 53 249 54 390 1 135 -1 150 -28 224 -27 74 -55 133 -114 236 -37 63 -41 152 -30 575 5 195 21 334 48 420 54 168 88 265 145 410 143 363 188 498 263 795 50 197 59 246 72 405 27 331 50 560 61 625 11 61 54 272 69 338 6 23 15 62 20 87 6 25 15 65 20 90 19 87 29 131 45 196 8 36 15 71 15 77 0 9 -82 12 -329 12 l-329 0 -10 -42 c-11 -45 -55 -263 -72 -358 -17 -97 -29 -182 -40 -285 -14 -126 -33 -245 -66 -410 -8 -44 -26 -147 -39 -229 -25 -160 -42 -200 -71 -162 -8 12 -14 42 -14 73 0 46 10 98 61 328 15 69 37 215 49 335 16 163 54 413 85 560 14 69 29 140 32 158 l6 32 -152 0 -151 0 0 -515z m-58 -2067 c3 -7 -6 -43 -19 -81 -22 -66 -86 -323 -133 -532 -65 -291 -136 -494 -225 -640 -34 -57 -46 -68 -59 -55 -5 5 1 21 13 39 47 66 143 288 173 401 5 19 14 51 19 70 6 19 14 51 18 70 5 19 27 118 51 220 91 403 143 565 162 508z m250 -1422 c71 -98 98 -212 98 -419 0 -281 -34 -614 -101 -987 -30 -165 -39 -235 -45 -328 -9 -134 -29 -135 -29 -1 1 85 8 147 34 294 74 410 102 671 103 985 1 193 -1 223 -21 295 -13 48 -36 98 -57 127 -33 46 -38 73 -11 62 7 -3 20 -15 29 -28z m-306 -62 c-19 -18 -20 -14 -4 23 9 22 12 24 15 11 3 -10 -3 -25 -11 -34z m76 -79 c-3 -33 0 -60 7 -68 6 -8 8 -17 4 -20 -12 -13 -32 28 -33 66 0 28 16 77 26 77 0 0 -1 -25 -4 -55z m-115 -35 c23 -20 39 -58 29 -67 -3 -3 -15 11 -27 32 -12 20 -31 41 -43 45 -21 9 -21 9 0 9 11 1 30 -8 41 -19z m-27 -303 c80 -41 139 -155 125 -244 -12 -78 -82 -174 -151 -205 -35 -16 -30 -27 29 -53 40 -17 63 -37 91 -74 20 -29 52 -59 70 -68 19 -9 39 -27 45 -40 14 -30 14 -76 1 -89 -5 -5 -12 -30 -16 -54 -5 -39 -1 -51 26 -92 34 -51 37 -91 6 -96 -30 -6 -65 19 -78 55 -7 19 -28 44 -50 58 -34 23 -38 30 -38 68 0 33 -6 49 -25 67 -31 29 -32 17 -4 -47 17 -40 20 -60 15 -119 -5 -69 -4 -73 25 -110 24 -31 29 -46 27 -78 -3 -35 -7 -42 -27 -44 -39 -6 -108 36 -127 77 -17 34 -16 38 4 98 26 73 26 74 7 119 l-15 35 -30 -34 c-16 -19 -30 -44 -30 -56 0 -11 -11 -28 -25 -37 -33 -21 -107 -11 -135 19 -40 42 -23 83 59 145 17 13 31 27 31 30 0 4 -11 20 -25 36 -34 40 -33 84 5 131 52 66 37 105 -42 105 -52 0 -143 35 -169 66 -24 28 -46 92 -53 156 -12 96 35 179 129 227 141 73 263 89 345 48z m-810 -1106 c-12 -81 -37 -170 -51 -186 -13 -14 -11 14 5 60 8 23 19 79 26 125 6 47 14 92 17 100 13 32 15 -24 3 -99z m150 -127 c0 -31 5 -64 10 -75 6 -11 8 -24 4 -31 -4 -7 -12 -2 -20 13 -16 28 -19 163 -4 154 6 -3 10 -31 10 -61z m259 -174 c-23 -41 -41 -48 -21 -7 6 12 17 36 23 52 9 23 13 26 16 13 3 -10 -6 -36 -18 -58z m161 -20 c0 -53 -4 -90 -10 -90 -6 0 -10 37 -10 90 0 53 4 90 10 90 6 0 10 -37 10 -90z m636 -7 c16 -21 19 -153 4 -153 -6 0 -10 28 -10 64 0 36 -4 68 -10 71 -11 7 -14 35 -4 35 4 0 13 -8 20 -17z m-301 -65 c-10 -103 -28 -124 -21 -26 4 73 10 98 23 98 3 0 2 -33 -2 -72z m-889 -447 c52 -32 69 -81 69 -203 0 -88 -3 -110 -17 -125 -17 -16 -21 -16 -90 8 -40 13 -107 26 -148 29 l-75 5 3 77 c4 112 36 177 107 216 32 18 116 14 151 -7z"
       id="path18"
       style="fill:#cd853f" />
    <path
       d="M4192 4003 c-26 -4 -39 -15 -72 -63 -22 -32 -40 -61 -40 -65 0 -3 -25 -44 -55 -91 -31 -47 -56 -90 -58 -96 -4 -20 85 -47 155 -47 60 -1 69 2 83 23 19 29 31 69 50 166 26 129 18 188 -23 178 -4 0 -22 -3 -40 -5z"
       id="path20"
       style="fill:#c71585" />
    <path
       d="M4306 3968 c-3 -13 -8 -52 -11 -88 -6 -61 -24 -142 -40 -182 -14 -35 34 -19 79 25 37 38 44 51 50 100 10 75 -1 123 -31 147 -33 26 -42 25 -47 -2z"
       id="path22"
       style="fill:#c71585" />
    <path
       d="M4070 3970 c-8 -4 -31 -15 -50 -24 -69 -30 -120 -102 -120 -170 0 -36 22 -72 38 -63 11 7 162 250 162 261 0 8 -12 7 -30 -4z"
       id="path24"
       style="fill:#c71585" />
    <path
       d="M4428 3840 c-20 -51 -30 -101 -24 -117 6 -14 11 -9 22 25 14 40 16 127 2 92z"
       id="path26" />
    <path
       d="M4325 3674 c-16 -13 -52 -33 -80 -43 -51 -19 -73 -55 -42 -67 23 -9 111 34 148 72 29 30 31 36 19 48 -13 13 -19 11 -45 -10z"
       id="path28"
       style="fill:#c71585" />
    <path
       d="M3926 3651 c-10 -15 34 -61 72 -77 21 -8 65 -18 100 -21 56 -5 62 -4 62 13 0 34 -14 41 -82 46 -40 3 -84 14 -107 26 -22 12 -43 17 -45 13z"
       id="path30"
       style="fill:#c71585" />
    <path
       d="M4218 3484 c-16 -8 -28 -21 -28 -29 0 -7 -11 -26 -24 -42 -39 -47 -41 -69 -11 -113 36 -51 28 -80 -30 -120 -36 -25 -45 -37 -45 -60 0 -33 23 -44 76 -38 22 2 30 9 32 28 2 14 14 35 28 48 22 20 23 28 17 83 -7 67 8 109 38 109 10 0 24 -9 32 -21 14 -20 16 -18 36 36 27 71 26 81 -4 110 -28 29 -75 32 -117 9z"
       id="path32"
       style="fill:#9400d3" />
    <path
       d="M4390 3423 c0 -11 -7 -37 -15 -56 -20 -49 -20 -49 20 -90 28 -29 35 -44 35 -76 0 -36 5 -44 35 -63 19 -13 41 -39 49 -60 9 -20 20 -39 26 -43 19 -12 10 18 -16 56 -23 33 -25 44 -20 91 4 29 8 75 9 102 2 48 1 50 -38 71 -21 13 -49 38 -62 56 -19 28 -23 30 -23 12z"
       id="path34"
       style="fill:#9400d3" />
    <path
       d="M4295 3250 c-4 -6 5 -35 19 -65 14 -29 26 -61 26 -69 0 -8 5 -18 10 -21 17 -10 11 32 -12 101 -23 63 -31 74 -43 54z"
       id="path36"
       style="fill:#9400d3" />
    <path
       d="M4323 3033 c-7 -15 -13 -44 -13 -64 0 -30 6 -42 28 -57 71 -49 90 -27 42 47 -17 28 -35 61 -38 75 l-7 25 -12 -26z"
       id="path38"
       style="fill:#9400d3" />
    <path
       d="M3393 2040 c-38 -23 -58 -59 -67 -120 -4 -25 -9 -57 -12 -72 -5 -27 -4 -28 37 -28 23 0 82 -12 131 -27 48 -14 91 -23 95 -19 4 3 7 48 7 100 0 75 -4 100 -20 127 -35 60 -109 77 -171 39z"
       id="path40"
       style="fill:#ffdead" />
    <path
       d="M5635 8478 c-2 -13 -14 -61 -25 -108 -21 -90 -75 -334 -91 -410 -5 -25 -17 -85 -28 -135 -58 -276 -64 -326 -101 -815 -14 -181 -20 -213 -81 -437 -71 -264 -125 -421 -254 -748 -135 -343 -175 -503 -175 -705 0 -168 26 -282 92 -415 52 -105 58 -104 58 10 0 103 14 195 51 325 11 41 24 89 29 105 28 103 154 531 201 683 10 34 28 90 38 125 77 255 314 974 431 1307 64 181 139 397 150 430 4 14 31 90 60 170 28 80 66 188 85 240 52 149 92 259 118 333 l25 67 -289 0 -289 0 -5 -22z"
       id="path42"
       style="fill:#f4a460" />
    <path
       d="M6310 8487 c0 -7 123 -379 274 -827 189 -564 278 -816 289 -818 8 -2 41 6 73 17 107 37 179 63 209 76 17 7 91 39 165 70 357 152 905 452 905 497 0 9 -74 107 -165 219 -91 112 -232 287 -315 389 -82 102 -185 227 -227 279 -43 51 -78 97 -78 102 0 5 -235 9 -565 9 -454 0 -565 -3 -565 -13z"
       id="path44"
       style="fill:#3cb371" />
    <path
       d="M7530 8494 c0 -13 112 -144 124 -144 7 0 48 34 92 75 l79 74 -147 1 c-82 0 -148 -2 -148 -6z"
       id="path46"
       style="fill:#2e8b57" />
    <path
       d="M7890 8461 c-19 -20 -70 -68 -113 -108 l-79 -71 202 -249 c111 -136 244 -301 296 -365 52 -65 99 -120 103 -122 4 -3 51 25 104 62 l97 67 0 413 0 412 -287 -1 -288 -2 -35 -36z"
       id="path48"
       style="fill:#20b2aa" />
    <path
       d="M2340 7357 c0 -952 2 -1122 15 -1182 8 -39 22 -104 31 -145 38 -185 94 -308 155 -341 20 -10 21 -9 15 12 -18 64 -47 216 -60 321 -37 279 -80 1146 -79 1588 0 258 6 369 30 548 5 38 0 59 -27 127 -4 11 -23 57 -40 103 -18 45 -34 82 -36 82 -2 0 -4 -501 -4 -1113z"
       id="path50"
       style="fill:#00008b" />
    <path
       d="M6237 8338 c-8 -24 -33 -95 -56 -158 -22 -63 -56 -160 -76 -215 l-35 -100 0 -609 c0 -334 2 -612 5 -616 11 -18 679 140 707 169 10 9 -502 1545 -520 1563 -6 6 -16 -8 -25 -34z"
       id="path52"
       style="fill:#2e8b57" />
    <path
       d="M739 8068 c-58 -51 -183 -160 -279 -243 -95 -82 -234 -203 -307 -267 -74 -65 -138 -118 -143 -118 -6 0 -10 -49 -10 -118 0 -110 2 -120 22 -139 13 -11 162 -160 332 -332 169 -171 313 -311 320 -311 6 0 34 32 61 71 28 39 66 93 85 119 19 27 105 145 190 262 84 117 184 254 220 303 157 213 232 318 236 329 3 7 -41 47 -98 91 -57 44 -105 82 -108 85 -3 3 -18 16 -34 28 -58 44 -200 173 -343 310 -13 12 -27 22 -31 22 -5 0 -55 -42 -113 -92z"
       id="path54"
       style="fill:#20b2aa" />
    <path
       d="M2461 8022 c-14 -109 -15 -715 -1 -959 5 -98 14 -270 20 -383 37 -721 58 -840 235 -1374 99 -300 150 -477 185 -645 11 -58 25 -112 30 -120 6 -10 10 108 10 315 l0 330 -34 105 c-93 291 -166 576 -207 814 -6 33 -15 83 -20 110 -15 82 -45 291 -59 405 -15 131 -42 353 -66 545 -25 201 -23 540 3 651 l19 81 -45 106 c-26 59 -49 107 -52 107 -4 0 -11 -40 -18 -88z"
       id="path56"
       style="fill:#4169e1" />
    <path
       d="M2234 7960 c-55 -79 -317 -504 -321 -521 -5 -17 30 -42 167 -119 154 -88 182 -102 186 -97 2 2 3 179 2 393 l-3 389 -31 -45z"
       id="path58"
       style="fill:#3cb371" />
    <path
       d="M2596 7829 c-27 -77 -36 -424 -16 -590 6 -46 15 -122 20 -169 51 -435 61 -525 71 -590 21 -148 46 -305 59 -365 5 -22 14 -67 20 -100 11 -58 34 -157 63 -280 33 -137 101 -366 113 -382 11 -15 13 37 14 320 0 325 -1 343 -24 430 -26 104 -38 177 -76 482 -23 182 -46 289 -104 480 -62 203 -66 275 -25 462 18 85 11 111 -71 258 -29 52 -38 62 -44 44z"
       id="path60"
       style="fill:#483d8b" />
    <path
       d="M4402 7622 c-11 -26 -32 -82 -46 -123 -14 -42 -52 -123 -85 -180 -33 -57 -63 -116 -66 -131 -7 -26 21 -273 32 -292 3 -4 22 23 42 60 53 99 67 119 110 147 l39 26 6 133 c18 422 14 468 -32 360z"
       id="path62"
       style="fill:#483d8b" />
    <path
       d="M5968 7575 c-34 -104 -90 -261 -98 -280 -10 -22 -158 -457 -256 -755 l-64 -195 0 -577 c0 -318 4 -578 8 -578 5 0 15 19 22 43 8 23 17 47 20 52 13 18 59 208 69 285 5 41 15 192 20 335 11 264 25 454 41 535 50 265 79 366 189 648 l71 182 -2 178 -3 177 -17 -50z"
       id="path64"
       style="fill:#6a5acd" />
    <path
       d="M1325 7303 c-110 -152 -245 -338 -300 -414 -116 -160 -389 -537 -452 -624 -24 -33 -108 -149 -188 -257 -80 -108 -145 -201 -145 -206 0 -15 311 -219 510 -335 190 -111 429 -237 450 -237 10 0 43 57 100 173 46 94 160 327 253 517 93 190 200 408 237 485 37 77 134 275 215 440 81 165 151 310 156 322 7 20 0 26 -74 68 -45 25 -102 57 -127 71 -75 43 -378 245 -391 260 -6 8 -19 14 -28 14 -10 0 -96 -110 -216 -277z"
       id="path66"
       style="fill:#48d1cc" />
    <path
       d="M8415 7529 c-175 -125 -409 -267 -650 -394 -38 -20 -73 -40 -78 -44 -6 -6 216 -488 259 -564 9 -16 15 -14 70 21 33 22 64 41 70 43 5 2 72 42 149 88 77 46 154 92 170 101 17 10 45 26 62 36 l33 19 0 373 c0 204 -3 372 -7 372 -5 -1 -39 -23 -78 -51z"
       id="path68"
       style="fill:#48d1cc" />
    <path
       d="M2736 7493 c-25 -190 -19 -271 35 -433 59 -179 85 -306 114 -560 23 -201 32 -257 44 -277 7 -13 10 105 11 410 l0 428 -36 97 c-69 187 -148 382 -155 382 -4 0 -10 -21 -13 -47z"
       id="path70"
       style="fill:#4169e1" />
    <path
       d="M5967 7118 c-11 -23 -30 -72 -44 -108 -13 -36 -29 -73 -34 -82 -5 -10 -9 -27 -9 -37 0 -11 -4 -22 -9 -25 -5 -3 -11 -16 -14 -28 -3 -13 -10 -40 -16 -60 -24 -84 -32 -118 -56 -234 -31 -153 -55 -367 -55 -492 0 -230 -25 -511 -56 -627 -7 -27 -16 -61 -19 -75 -8 -30 -11 -38 -61 -155 l-39 -90 -3 -238 -3 -237 23 -9 c55 -21 83 -83 82 -180 -1 -86 -19 -147 -70 -238 -42 -76 -48 -143 -11 -143 76 -1 83 -89 18 -219 l-41 -82 0 -138 c0 -76 3 -141 7 -145 14 -14 92 283 117 449 10 61 23 254 31 431 14 335 21 386 74 577 59 208 61 223 60 608 -1 614 36 941 126 1118 25 51 25 52 23 276 l-3 226 -18 -43z"
       id="path72"
       style="fill:#483d8b" />
    <path
       d="M2114 6903 c-64 -131 -165 -337 -224 -458 -59 -121 -156 -319 -215 -440 -340 -693 -394 -808 -389 -817 8 -13 186 -97 329 -155 61 -25 124 -51 140 -58 170 -73 505 -186 511 -172 2 7 3 534 2 1172 -3 1090 -4 1160 -20 1163 -14 3 -42 -47 -134 -235z"
       id="path74"
       style="fill:#20b2aa" />
    <path
       d="M0 6533 c0 -315 4 -573 8 -573 5 0 42 -25 82 -55 75 -56 94 -64 103 -42 2 6 38 57 79 112 41 55 97 132 125 170 27 39 89 124 136 190 48 66 87 125 87 132 0 6 -139 152 -310 325 l-309 313 -1 -572z"
       id="path76"
       style="fill:#00ffff" />
    <path
       d="M4365 7033 c-45 -59 -96 -164 -102 -212 -3 -23 7 -78 27 -151 17 -63 39 -143 48 -177 27 -105 31 -91 52 162 6 72 15 171 21 222 12 117 12 203 -1 203 -5 0 -25 -21 -45 -47z"
       id="path78"
       style="fill:#483d8b" />
    <path
       d="M7475 6997 c-61 -29 -131 -60 -155 -70 -25 -11 -58 -25 -75 -32 -16 -7 -50 -21 -75 -30 -25 -9 -54 -21 -65 -26 -11 -4 -93 -33 -183 -63 -90 -31 -167 -58 -172 -61 -6 -3 -6 -15 0 -28 5 -12 22 -60 39 -107 53 -153 141 -402 211 -595 38 -104 94 -262 125 -350 31 -88 63 -178 71 -200 9 -22 29 -78 44 -125 16 -47 47 -137 70 -200 23 -63 55 -155 72 -205 17 -49 36 -96 42 -102 18 -20 455 134 801 282 39 16 84 37 200 90 30 14 55 32 55 39 0 8 -50 119 -111 248 -61 128 -128 269 -149 313 -21 44 -62 132 -92 195 -31 63 -74 156 -98 205 -23 50 -76 159 -116 244 -41 84 -74 155 -74 157 0 2 -35 76 -78 166 -43 90 -93 196 -112 236 -22 47 -38 72 -49 71 -9 -1 -66 -24 -126 -52z"
       id="path80"
       style="fill:#66cdaa" />
    <path
       d="M3010 6416 c0 -411 6 -499 34 -518 17 -12 22 -10 57 19 33 28 119 195 119 230 0 17 -68 264 -106 383 -40 127 -96 295 -100 299 -2 2 -4 -183 -4 -413z"
       id="path82"
       style="fill:#800080" />
    <path
       d="M8260 6611 c-129 -77 -244 -146 -254 -154 -20 -14 -20 -14 1 -63 12 -27 58 -125 103 -219 45 -93 95 -198 111 -232 15 -35 31 -63 34 -63 4 0 55 34 115 75 60 41 113 75 119 75 8 0 11 107 11 360 0 198 -1 360 -2 360 -2 0 -109 -63 -238 -139z"
       id="path84"
       style="fill:#00ffff" />
    <path
       d="M6465 6645 c-93 -24 -198 -49 -233 -55 -57 -12 -63 -15 -58 -34 10 -35 135 -520 181 -701 24 -93 59 -231 79 -305 19 -74 51 -198 71 -275 21 -77 41 -158 46 -180 5 -22 13 -56 18 -75 5 -19 31 -120 58 -225 43 -165 52 -190 70 -193 43 -6 623 144 646 167 9 9 5 25 -23 96 -4 11 -13 34 -18 50 -6 17 -27 77 -47 135 -21 58 -51 143 -67 190 -16 47 -38 108 -48 135 -11 28 -58 160 -105 295 -47 135 -95 269 -106 298 -42 114 -59 160 -87 242 -77 218 -144 408 -156 440 -9 21 -21 36 -32 37 -11 0 -95 -18 -189 -42z"
       id="path86"
       style="fill:#20b2aa" />
    <path
       d="M5969 6585 c-69 -167 -103 -543 -104 -1155 -1 -265 -4 -335 -17 -380 -34 -117 -78 -287 -88 -340 -6 -30 -15 -183 -20 -340 -9 -257 -24 -431 -49 -545 -5 -22 -14 -62 -20 -90 -10 -46 -18 -79 -40 -160 -5 -16 -24 -70 -42 -120 l-34 -90 -3 -252 c-1 -139 1 -253 5 -253 14 0 115 179 148 264 75 186 85 256 125 841 5 77 14 201 20 275 5 74 10 199 10 277 0 201 18 435 40 526 11 43 35 109 55 148 l35 70 -2 682 c-3 643 -4 680 -19 642z"
       id="path88"
       style="fill:#800080" />
    <path
       d="M6070 5519 l0 -1041 24 6 c13 3 54 10 92 16 81 11 139 22 352 61 l64 11 -4 37 c-3 20 -30 135 -62 256 -32 121 -73 279 -91 350 -18 72 -52 200 -74 285 -22 85 -63 245 -91 355 -28 110 -65 252 -82 315 -16 63 -33 131 -37 150 -5 19 -16 64 -25 100 -10 36 -22 82 -27 103 -6 21 -16 37 -24 37 -13 0 -15 -135 -15 -1041z"
       id="path90"
       style="fill:#3cb371" />
    <path
       d="M5458 6060 c-4 -14 -16 -55 -27 -92 -71 -230 -175 -570 -201 -663 -9 -30 -12 -41 -45 -160 -36 -131 -66 -253 -75 -309 -11 -69 0 -85 59 -86 83 0 171 53 236 144 79 112 75 75 74 643 0 468 -6 593 -21 523z"
       id="path92"
       style="fill:#6a5acd" />
    <path
       d="M3200 6004 c-18 -36 -50 -84 -72 -106 -35 -35 -44 -39 -79 -36 l-39 4 0 -387 c0 -384 0 -386 23 -419 30 -45 42 -47 77 -10 57 61 68 112 110 487 11 106 38 205 70 259 17 30 17 33 -13 152 -17 67 -34 122 -38 122 -5 0 -22 -30 -39 -66z"
       id="path94"
       style="fill:#800080" />
    <path
       d="M2341 5444 c-1 -574 0 -614 18 -670 84 -260 166 -795 191 -1244 17 -310 6 -872 -19 -917 -7 -15 -8 -42 -1 -95 37 -270 44 -343 65 -643 17 -250 20 -269 48 -345 17 -48 107 -196 127 -210 19 -14 92 -139 120 -208 18 -42 36 -81 41 -87 5 -5 9 81 9 211 l0 220 -43 69 c-122 199 -145 300 -157 685 -5 157 -14 303 -20 325 -23 80 -23 85 -7 85 9 0 50 -72 110 -194 53 -107 101 -197 107 -201 19 -12 12 243 -10 352 -38 190 -58 251 -137 422 -84 182 -91 216 -103 516 -5 121 -13 243 -19 270 -9 46 -14 68 -42 165 -6 19 -15 53 -21 75 -6 22 -14 155 -18 295 -8 270 -14 329 -54 590 -61 387 -81 593 -73 721 5 84 4 92 -24 146 -16 32 -41 103 -54 158 -14 55 -27 105 -29 110 -3 6 -5 -265 -5 -601z"
       id="path96"
       style="fill:#778899" />
    <path
       d="M8388 5882 c-54 -37 -98 -71 -98 -77 0 -11 43 -103 142 -304 l67 -136 0 293 c1 160 -2 292 -6 291 -5 0 -52 -30 -105 -67z"
       id="path98"
       style="fill:#00ced1" />
    <path
       d="M0 5600 c0 -254 1 -271 18 -267 9 3 44 10 77 16 33 6 105 19 160 30 55 11 132 25 170 31 39 7 83 16 99 21 16 5 42 9 57 9 15 0 30 4 33 9 3 5 -38 37 -92 71 -150 97 -298 197 -400 273 -51 37 -100 71 -108 74 -12 4 -14 -35 -14 -267z"
       id="path100"
       style="fill:#3cb371" />
    <path
       d="M3297 5733 c-26 -51 -57 -228 -57 -325 -1 -115 -38 -274 -83 -351 -38 -64 -70 -77 -129 -52 -17 7 -18 -22 -18 -526 0 -512 1 -535 20 -566 42 -69 95 -76 118 -16 41 109 76 233 92 328 6 39 16 89 21 112 5 23 9 69 9 102 0 32 9 88 20 123 11 34 20 90 20 123 0 73 24 200 58 310 7 24 5 38 -13 70 -54 99 -64 252 -26 388 11 42 21 103 21 134 0 64 -20 173 -32 173 -4 0 -14 -12 -21 -27z"
       id="path102"
       style="fill:#6a5acd" />
    <path
       d="M2493 5503 c5 -187 14 -272 57 -533 10 -65 23 -153 41 -285 5 -38 14 -191 18 -340 7 -202 13 -285 26 -330 10 -33 21 -73 25 -90 5 -16 15 -56 24 -87 10 -37 19 -141 26 -295 13 -295 25 -359 92 -503 43 -92 108 -261 108 -280 0 -9 7 -25 15 -36 13 -17 15 68 12 786 -3 548 -8 823 -15 860 -7 30 -17 87 -23 125 -6 39 -15 84 -19 100 -4 17 -13 57 -20 90 -33 155 -138 524 -170 600 -5 11 -27 76 -50 145 -23 69 -46 136 -52 150 -14 29 -78 100 -91 100 -5 0 -7 -76 -4 -177z"
       id="path104"
       style="fill:#6495ed" />
    <path
       d="M3430 5572 c0 -15 -9 -59 -19 -97 -40 -146 -43 -177 -28 -260 20 -102 31 -112 59 -49 17 37 23 73 25 149 2 55 9 110 16 123 9 18 7 33 -7 70 -10 26 -21 57 -23 70 -7 31 -23 28 -23 -6z"
       id="path106"
       style="fill:#800080" />
    <path
       d="M530 5359 c-124 -25 -267 -52 -413 -80 l-117 -22 0 -439 c0 -242 4 -437 9 -434 8 5 25 31 211 321 57 88 122 189 145 225 159 244 275 430 275 442 0 10 7 10 -110 -13z"
       id="path108"
       style="fill:#7fffd4" />
    <path
       d="M728 5363 c-8 -10 -44 -65 -80 -123 -36 -58 -132 -208 -214 -335 -81 -126 -208 -324 -282 -440 -74 -115 -138 -211 -143 -213 -5 -2 -9 -86 -9 -188 l0 -183 33 -17 c17 -9 50 -29 72 -44 78 -54 384 -224 602 -337 l223 -115 11 29 c34 84 176 463 288 768 29 77 65 174 81 215 26 67 78 207 186 495 19 50 34 96 34 103 0 7 -19 21 -42 31 -159 69 -452 215 -622 310 -60 34 -113 61 -116 61 -4 0 -14 -8 -22 -17z"
       id="path110"
       style="fill:#00ced1" />
    <path
       d="M5966 5140 c-49 -118 -56 -170 -66 -490 -5 -151 -14 -338 -19 -415 -6 -77 -15 -214 -21 -305 -42 -660 -66 -761 -249 -1053 l-61 -98 0 -1204 c0 -662 4 -1206 8 -1209 5 -3 14 23 21 57 7 34 17 80 23 102 6 23 13 294 19 650 4 336 11 626 14 645 3 19 15 98 26 175 19 133 49 312 69 400 4 22 14 67 20 100 6 33 15 78 20 100 27 130 61 335 80 475 28 223 60 365 110 490 l30 75 -2 775 c-3 767 -3 775 -22 730z"
       id="path112"
       style="fill:#00008b" />
    <path
       d="M8470 5119 c-8 -5 -55 -27 -105 -50 -49 -22 -99 -44 -110 -49 -11 -6 -63 -28 -115 -49 -60 -25 -94 -45 -92 -53 3 -14 216 -513 258 -606 13 -29 24 -55 24 -57 0 -2 11 -28 24 -57 13 -29 45 -102 70 -162 26 -60 53 -120 61 -135 12 -23 14 53 15 602 0 345 -3 627 -7 626 -5 0 -15 -4 -23 -10z"
       id="path114"
       style="fill:#48d1cc" />
    <path
       d="M1595 4938 c-8 -25 -168 -454 -191 -513 -12 -33 -60 -159 -104 -280 -45 -121 -131 -352 -192 -513 -60 -162 -108 -295 -106 -296 16 -10 297 -136 303 -136 2 0 33 -13 67 -29 35 -15 144 -59 243 -95 99 -37 189 -72 200 -77 45 -20 417 -139 435 -139 20 0 20 8 18 928 l-3 927 -109 37 c-168 56 -271 94 -422 154 -119 48 -132 51 -139 32z"
       id="path116"
       style="fill:#48d1cc" />
    <path
       d="M5441 4889 c-35 -55 -87 -106 -140 -137 -39 -23 -57 -27 -125 -27 l-78 0 7 -80 c9 -108 33 -157 90 -184 52 -25 90 -26 136 -7 47 19 86 52 120 99 l29 40 0 156 c0 86 -4 161 -8 167 -4 8 -16 -2 -31 -27z"
       id="path118"
       style="fill:#191970" />
    <path
       d="M7853 4860 c-104 -46 -600 -202 -828 -260 -27 -7 -53 -16 -57 -19 -5 -4 -2 -31 6 -61 7 -30 23 -95 34 -145 12 -49 32 -137 46 -195 41 -177 96 -411 112 -480 8 -36 24 -102 35 -147 37 -160 60 -258 69 -298 5 -22 23 -96 39 -165 16 -69 33 -143 37 -165 17 -98 22 -88 94 175 28 102 58 208 65 235 28 96 164 582 234 835 39 140 75 271 81 290 37 129 110 398 110 408 0 17 -28 14 -77 -8z"
       id="path120"
       style="fill:#00ffff" />
    <path
       d="M4828 4854 c-12 -20 -19 -129 -13 -190 6 -55 13 -71 40 -100 19 -19 60 -89 93 -156 l60 -120 18 28 c20 30 33 152 17 163 -6 3 -33 36 -61 73 -55 73 -106 172 -132 257 -10 30 -19 50 -22 45z"
       id="path122"
       style="fill:#f4a460" />
    <path
       d="M7971 4733 c-13 -49 -27 -101 -32 -118 -5 -16 -23 -79 -39 -140 -17 -60 -35 -126 -40 -145 -6 -19 -44 -156 -85 -305 -41 -148 -84 -301 -95 -340 -12 -38 -26 -88 -32 -110 -6 -22 -15 -53 -20 -70 -18 -62 -157 -563 -178 -640 -11 -44 -23 -88 -26 -97 -7 -24 11 -23 126 8 287 79 581 173 822 262 l128 47 0 313 c0 176 -4 312 -9 312 -5 0 -16 19 -26 43 -20 51 -181 430 -201 472 -7 17 -67 156 -133 310 -66 154 -124 281 -128 282 -5 2 -19 -36 -32 -84z"
       id="path124"
       style="fill:#00ced1" />
    <path
       d="M2341 4065 l-1 -630 44 -176 c48 -193 106 -466 106 -504 0 -42 19 -37 24 7 13 104 16 453 7 674 -16 352 -53 679 -110 964 -5 25 -14 70 -20 100 -49 245 -49 240 -50 -435z"
       id="path126"
       style="fill:#483d8b" />
    <path
       d="M5550 4410 c0 -99 4 -180 9 -180 12 0 49 95 61 158 16 85 -17 202 -56 202 -11 0 -14 -33 -14 -180z"
       id="path128"
       style="fill:#483d8b" />
    <path
       d="M6680 4520 c-91 -20 -196 -42 -235 -49 -134 -24 -180 -32 -228 -42 -27 -5 -64 -9 -82 -9 -69 0 -65 16 -65 -286 0 -254 1 -274 18 -274 9 0 46 5 82 10 233 35 697 102 760 111 41 6 78 14 83 18 7 7 -25 161 -73 351 -27 108 -50 201 -50 205 0 10 -48 2 -210 -35z"
       id="path130"
       style="fill:#48d1cc" />
    <path
       d="M5444 4489 c-41 -45 -102 -71 -167 -72 -59 -1 -127 19 -127 35 0 5 -4 8 -9 8 -4 0 -11 -26 -15 -57 -7 -64 -37 -137 -68 -170 -17 -18 -20 -30 -15 -63 7 -52 11 -56 42 -42 36 17 104 15 172 -5 87 -24 169 -28 198 -9 l25 16 0 185 c0 101 -4 186 -9 189 -4 3 -17 -4 -27 -15z"
       id="path132"
       style="fill:#483d8b" />
    <path
       d="M3301 4410 c-10 -106 -40 -261 -81 -405 -33 -120 -76 -185 -119 -185 -10 0 -35 11 -55 25 l-36 24 0 -761 c0 -713 1 -762 18 -774 34 -26 64 -10 98 51 16 28 80 292 94 385 27 177 74 404 101 479 10 30 17 56 15 58 -2 2 -27 -9 -57 -24 -116 -60 -171 -67 -213 -28 -30 28 -35 81 -12 136 18 44 40 68 98 107 47 32 84 74 106 122 6 14 38 107 72 207 l60 182 -19 73 c-10 40 -24 102 -31 138 -27 154 -38 204 -39 190z"
       id="path134"
       style="fill:#191970" />
    <path
       d="M5093 4094 c-31 -15 -32 -18 -38 -102 -13 -153 -20 -137 58 -140 76 -3 92 3 261 103 71 41 98 63 102 81 9 36 -4 44 -52 34 -33 -8 -62 -4 -143 15 -119 29 -145 30 -188 9z"
       id="path136"
       style="fill:#4169e1" />
    <path
       d="M5557 4023 c-9 -8 -9 -158 0 -167 8 -8 53 100 53 129 0 33 -34 58 -53 38z"
       id="path138"
       style="fill:#800080" />
    <path
       d="M5409 3937 c-30 -18 -92 -52 -139 -77 -78 -41 -91 -45 -160 -45 l-75 -1 -11 -60 c-6 -32 -14 -68 -17 -79 -10 -30 87 -161 117 -158 37 3 130 25 176 41 48 17 143 99 166 144 16 30 20 253 5 262 -4 3 -32 -9 -62 -27z"
       id="path140"
       style="fill:#800080" />
    <path
       d="M3341 3765 c-29 -90 -64 -181 -78 -202 -14 -21 -55 -61 -91 -88 -70 -53 -86 -76 -97 -137 -10 -50 21 -83 71 -74 43 9 224 95 224 107 0 5 25 51 57 102 93 152 89 126 42 273 -22 71 -44 140 -48 153 -4 14 -11 26 -17 28 -5 1 -33 -71 -63 -162z"
       id="path142"
       style="fill:#483d8b" />
    <path
       d="M6959 3916 c-2 -2 -69 -13 -149 -25 -80 -11 -224 -32 -320 -47 -96 -14 -229 -34 -295 -43 l-120 -17 0 -639 0 -640 30 2 c47 3 224 23 290 33 33 5 94 14 135 21 197 30 437 75 585 109 22 5 74 17 115 26 41 10 78 22 81 27 4 5 2 25 -2 46 -5 20 -13 54 -18 76 -7 34 -41 180 -162 695 -19 81 -30 128 -65 278 -24 107 -21 102 -63 102 -21 0 -40 -2 -42 -4z"
       id="path144"
       style="fill:#7fffd4" />
    <path
       d="M0 3448 c0 -208 4 -338 9 -332 9 9 95 159 163 284 82 151 101 185 109 194 19 21 6 34 -73 80 -46 27 -107 64 -135 82 -29 19 -57 34 -63 34 -7 0 -10 -117 -10 -342z"
       id="path146"
       style="fill:#7fffd4" />
    <path
       d="M5418 3598 c-54 -54 -90 -72 -173 -88 -73 -15 -115 -30 -115 -41 0 -5 13 -37 28 -71 16 -35 39 -97 51 -138 27 -87 47 -113 101 -129 59 -17 109 11 144 81 25 50 26 58 26 232 0 100 -4 186 -8 191 -4 6 -26 -9 -54 -37z"
       id="path148"
       style="fill:#483d8b" />
    <path
       d="M313 3508 c-21 -40 -97 -178 -167 -305 -71 -128 -132 -233 -137 -233 -5 0 -9 -309 -9 -732 l1 -733 82 -33 c45 -19 153 -63 241 -99 87 -35 164 -62 170 -60 6 3 49 101 94 218 46 118 111 280 143 361 32 81 66 169 75 195 9 26 20 53 24 58 4 6 10 19 12 30 3 11 90 231 192 490 102 258 186 474 186 480 0 6 -48 33 -107 60 -137 62 -553 270 -658 329 -44 25 -85 45 -91 46 -6 0 -29 -33 -51 -72z"
       id="path150"
       style="fill:#66cdaa" />
    <path
       d="M4976 3535 c-12 -33 -6 -91 14 -125 43 -73 89 -177 106 -240 26 -93 24 -339 -4 -465 -11 -49 -18 -93 -15 -97 2 -5 18 -8 35 -8 43 0 92 -26 132 -70 36 -40 79 -140 74 -174 -3 -22 -3 -22 -88 -7 -25 5 -66 6 -92 2 -82 -13 -124 -55 -139 -138 -11 -55 0 -71 67 -102 62 -29 150 -29 195 2 67 44 92 150 70 294 -16 98 -29 143 -79 268 -43 109 -56 171 -73 345 -16 163 -42 256 -111 395 -22 44 -50 93 -62 108 -20 25 -24 26 -30 12z"
       id="path152"
       style="fill:#f4a460" />
    <path
       d="M5967 3480 c-40 -120 -67 -251 -92 -450 -22 -176 -35 -249 -100 -580 -109 -557 -114 -609 -125 -1315 -4 -308 -13 -587 -18 -620 -13 -73 -48 -206 -68 -253 -9 -23 -14 -72 -14 -148 l0 -114 83 0 84 0 11 82 c7 46 12 184 12 308 1 212 19 538 40 695 30 224 33 299 35 740 2 454 5 515 36 670 23 118 59 225 105 318 l34 69 -2 326 -3 327 -18 -55z"
       id="path154"
       style="fill:#6495ed" />
    <path
       d="M2340 2771 c0 -471 1 -508 19 -560 30 -89 39 -141 66 -391 33 -302 47 -387 97 -600 18 -75 58 -199 105 -319 64 -168 77 -233 69 -365 -3 -61 -10 -138 -15 -171 -11 -75 -41 -324 -41 -347 0 -16 14 -18 150 -18 l150 0 0 263 c0 288 -4 315 -61 424 -34 64 -60 101 -130 183 -26 30 -56 71 -66 90 -25 46 -48 118 -40 126 12 12 37 -6 37 -26 0 -37 39 -105 111 -190 39 -47 85 -111 102 -142 18 -32 35 -58 40 -58 4 0 7 47 7 104 0 93 -4 115 -36 207 -49 144 -82 208 -169 330 -129 180 -149 234 -164 452 -33 458 -66 756 -112 992 -12 65 -39 200 -49 245 -4 19 -15 71 -24 115 -44 206 -45 198 -46 -344z"
       id="path156"
       style="fill:#778899" />
    <path
       d="M5432 3129 c-18 -16 -45 -29 -60 -30 -47 -2 -86 3 -104 12 -16 9 -18 5 -18 -33 0 -122 28 -264 73 -379 25 -63 49 -127 52 -142 8 -29 25 -37 25 -12 0 8 18 55 40 104 l40 89 0 205 c0 113 -3 208 -8 211 -4 2 -22 -9 -40 -25z"
       id="path158"
       style="fill:#4169e1" />
    <path
       d="M1231 2967 c-23 -61 -52 -131 -62 -154 -10 -24 -19 -46 -19 -50 0 -12 -153 -397 -162 -407 -4 -6 -8 -16 -8 -23 0 -7 -9 -32 -19 -56 -10 -23 -81 -199 -156 -392 -76 -192 -157 -399 -181 -460 -48 -119 -53 -149 -27 -160 213 -85 665 -233 1008 -331 105 -29 204 -58 220 -63 17 -5 98 -26 180 -45 83 -20 166 -41 186 -46 20 -6 46 -10 58 -10 l21 0 0 376 0 376 -53 86 c-30 48 -102 164 -162 257 -59 94 -120 190 -135 215 -15 25 -70 113 -121 195 -52 83 -187 297 -299 477 -113 180 -209 328 -215 328 -5 0 -30 -51 -54 -113z"
       id="path160"
       style="fill:#00ced1" />
    <path
       d="M1419 3018 c21 -35 78 -126 126 -203 49 -77 109 -174 135 -215 389 -624 577 -920 585 -920 3 0 5 245 5 545 l0 545 -22 9 c-13 5 -100 34 -195 65 -173 55 -363 124 -548 197 -55 21 -106 39 -112 39 -7 0 4 -27 26 -62z"
       id="path162"
       style="fill:#afeeee" />
    <path
       d="M8345 2953 c-82 -30 -154 -58 -159 -63 -5 -5 17 -69 52 -152 33 -79 65 -156 71 -171 6 -16 22 -53 36 -83 14 -30 25 -57 25 -59 0 -2 11 -28 24 -57 13 -29 38 -89 56 -133 18 -44 37 -84 41 -90 5 -5 9 185 9 428 0 240 -1 437 -2 436 -2 0 -70 -25 -153 -56z"
       id="path164"
       style="fill:#7fffd4" />
    <path
       d="M8000 2834 c-182 -60 -629 -182 -785 -215 -27 -6 -66 -15 -85 -19 -105 -23 -300 -62 -405 -80 -163 -28 -175 -30 -175 -40 0 -6 121 -82 279 -176 74 -44 492 -295 631 -379 80 -49 192 -116 250 -150 58 -34 222 -133 365 -220 143 -87 274 -166 290 -175 17 -9 53 -31 80 -48 l50 -31 3 320 2 321 -28 61 c-44 94 -56 122 -106 246 -26 62 -55 132 -66 156 -10 23 -28 66 -40 95 -12 29 -29 72 -39 94 -10 23 -40 92 -66 154 -33 80 -52 112 -63 111 -10 0 -51 -11 -92 -25z"
       id="path166"
       style="fill:#00ffff" />
    <path
       d="M5954 2725 c-96 -248 -120 -442 -110 -914 7 -300 0 -476 -24 -666 -28 -227 -40 -402 -40 -600 0 -207 -14 -488 -26 -527 -5 -16 2 -18 59 -18 l65 0 12 87 c22 164 41 248 71 306 l29 58 -2 1177 -3 1177 -31 -80z"
       id="path168"
       style="fill:#800080" />
    <path
       d="M3221 2598 c-63 -258 -98 -316 -178 -304 l-33 5 0 -442 0 -442 23 -26 c79 -92 132 -43 146 135 5 58 15 116 25 133 15 30 14 33 -19 99 -71 140 -68 282 11 525 43 134 47 153 52 277 2 72 3 132 0 132 -2 0 -14 -42 -27 -92z"
       id="path170"
       style="fill:#6a5acd" />
    <path
       d="M5457 2614 c-3 -11 -15 -46 -27 -79 -19 -51 -23 -83 -24 -205 -2 -152 -9 -183 -56 -242 -12 -15 -19 -31 -17 -35 10 -16 39 -171 53 -278 34 -265 5 -783 -61 -1110 -48 -232 -97 -386 -186 -573 -21 -46 -39 -86 -39 -88 0 -2 62 -4 138 -4 l137 1 50 72 50 72 3 1228 c1 679 -2 1235 -6 1244 -8 13 -10 13 -15 -3z"
       id="path172"
       style="fill:#00008b" />
    <path
       d="M5074 2561 c-14 -6 -25 -28 -37 -70 -15 -55 -23 -151 -13 -151 3 0 22 10 43 23 32 18 53 22 126 22 48 0 87 4 87 8 0 25 -56 121 -83 141 -36 28 -92 40 -123 27z"
       id="path174"
       style="fill:#ffdead" />
    <path
       d="M6223 2447 l-153 -20 0 -968 c0 -532 3 -970 8 -972 4 -3 50 -1 102 4 438 42 500 50 500 65 0 7 -4 35 -9 61 -5 26 -15 84 -21 128 -13 96 -27 183 -40 268 -5 34 -30 199 -55 367 -25 168 -50 333 -55 368 -6 34 -14 90 -20 125 -10 64 -35 227 -50 332 -5 33 -14 95 -20 139 -10 71 -25 128 -32 125 -2 -1 -72 -11 -155 -22z"
       id="path176"
       style="fill:#afeeee" />
    <path
       d="M2764 2353 c3 -54 8 -169 12 -256 7 -215 27 -307 101 -469 61 -133 63 -126 63 201 l0 289 -79 160 c-44 88 -85 163 -91 167 -8 5 -10 -20 -6 -92z"
       id="path178"
       style="fill:#6495ed" />
    <path
       d="M6470 2420 c0 -5 4 -31 9 -57 5 -26 15 -84 21 -128 6 -44 16 -109 21 -145 22 -143 29 -188 39 -260 6 -41 15 -100 20 -130 5 -30 14 -89 20 -130 6 -41 16 -102 21 -135 5 -33 34 -226 64 -430 31 -203 58 -387 61 -407 5 -36 8 -38 42 -38 52 0 529 70 672 99 25 5 74 15 110 21 36 6 83 15 105 20 22 4 63 13 90 19 229 48 612 136 665 154 8 3 27 8 43 11 l27 6 0 163 0 163 -257 154 c-141 85 -272 165 -292 176 -20 12 -101 61 -181 109 -80 48 -215 129 -300 180 -85 51 -272 163 -415 250 -290 176 -396 239 -440 265 -16 9 -53 31 -81 48 -55 34 -64 37 -64 22z"
       id="path180"
       style="fill:#00ced1" />
    <path
       d="M3747 2188 c-15 -11 -18 -38 -23 -198 -6 -214 -14 -261 -55 -312 -26 -33 -29 -44 -29 -111 0 -224 81 -472 210 -642 67 -88 203 -190 313 -234 70 -29 167 -32 213 -8 114 59 323 427 381 669 22 91 24 282 4 351 -14 50 -31 63 -31 24 0 -60 -99 -161 -172 -176 -28 -6 -33 -12 -35 -36 -14 -188 -57 -449 -84 -511 -36 -86 -106 -128 -204 -122 -99 6 -185 61 -232 148 -31 57 -44 109 -51 210 l-7 95 -51 5 c-59 6 -97 28 -125 73 -17 27 -19 44 -14 107 3 41 9 203 13 360 5 157 10 291 13 299 6 19 -13 24 -34 9z"
       id="path182"
       style="fill:#6a5acd" />
    <path
       d="M2341 1573 l-1 -563 41 -92 c89 -199 93 -216 93 -388 0 -102 -6 -186 -17 -244 -10 -49 -20 -134 -24 -188 l-6 -98 91 0 90 0 6 87 c6 85 17 168 37 282 21 123 10 359 -21 436 -80 200 -101 261 -133 385 -56 217 -76 347 -118 745 -6 61 -17 130 -24 155 -12 39 -14 -35 -14 -517z"
       id="path184"
       style="fill:#6495ed" />
    <path
       d="M4734 2025 c-21 -31 -11 -57 18 -53 18 2 24 11 26 34 4 42 -22 53 -44 19z"
       id="path186" />
    <path
       d="M4935 2003 c-30 -83 -88 -185 -122 -218 l-33 -32 15 -57 c36 -136 15 -321 -58 -511 -65 -171 -200 -402 -278 -476 -50 -48 -118 -79 -173 -79 -110 0 -286 92 -397 207 -83 87 -107 120 -157 216 -71 135 -122 337 -122 489 0 31 -4 59 -9 62 -5 3 -26 -1 -46 -10 -21 -8 -61 -17 -89 -19 l-51 -3 -4 -54 c-1 -29 2 -96 8 -148 30 -249 64 -339 216 -565 171 -254 293 -385 417 -446 97 -49 119 -54 228 -54 146 1 178 19 346 196 227 241 326 424 386 719 28 139 30 432 4 590 -23 141 -46 240 -55 240 -5 0 -16 -21 -26 -47z"
       id="path188"
       style="fill:#483d8b" />
    <path
       d="M5004 2034 c9 -22 32 -133 48 -224 8 -46 12 -158 12 -290 0 -211 -8 -288 -44 -415 -6 -22 -14 -51 -17 -65 -10 -44 -77 -192 -120 -265 -89 -152 -326 -412 -420 -463 -71 -37 -163 -53 -245 -42 -224 31 -392 177 -632 549 -147 226 -187 351 -201 624 l-8 138 -31 16 c-17 9 -46 27 -65 42 -31 23 -34 24 -46 8 -6 -9 -17 -69 -24 -133 -17 -152 -40 -194 -111 -194 -20 0 -45 7 -56 15 -10 8 -22 15 -26 15 -5 0 -8 -105 -8 -232 l0 -233 91 -120 c50 -66 137 -181 192 -255 131 -174 239 -282 409 -408 l137 -102 373 0 372 0 72 75 c121 125 202 268 269 470 30 88 36 112 90 325 47 190 80 307 105 375 45 124 48 249 11 435 -30 153 -41 222 -41 277 0 63 0 63 -36 78 -46 19 -58 19 -50 -1z"
       id="path190"
       style="fill:#191970" />
    <path
       d="M5250 2025 c-19 -7 -55 -14 -79 -14 l-43 -1 5 -107 c3 -60 11 -133 17 -163 7 -30 16 -75 21 -100 26 -120 21 -291 -11 -375 -20 -55 -82 -275 -110 -390 -87 -369 -181 -602 -302 -746 -34 -41 -72 -82 -85 -92 -13 -10 -23 -23 -23 -28 0 -5 87 -9 209 -9 l210 0 39 83 c95 196 135 318 191 570 17 74 43 253 62 432 17 151 17 641 1 725 -7 36 -18 90 -24 120 -22 115 -23 116 -78 95z"
       id="path192"
       style="fill:#4169e1" />
    <path
       d="M4476 1768 c-16 -22 -21 -50 -11 -60 3 -2 24 -2 47 2 36 4 42 9 40 25 -5 25 -31 55 -48 55 -7 0 -20 -10 -28 -22z"
       id="path194"
       style="fill:#ffdead" />
    <path
       d="M4218 1683 c-21 -25 -38 -59 -38 -77 0 -13 12 -16 61 -16 l62 0 -7 32 c-6 30 -41 78 -56 78 -4 0 -14 -8 -22 -17z"
       id="path196"
       style="fill:#ffdead" />
    <path
       d="M3891 1613 c-11 -10 -24 -33 -28 -52 -6 -33 -5 -34 18 -26 30 10 67 10 97 0 19 -6 22 -4 22 17 0 31 -42 78 -68 78 -11 0 -29 -8 -41 -17z"
       id="path198"
       style="fill:#ffdead" />
    <path
       d="M4390 1521 c-10 -20 -33 -50 -52 -68 -58 -55 -117 -67 -180 -35 l-35 18 -40 -35 c-21 -20 -54 -44 -71 -53 -29 -15 -32 -21 -32 -64 0 -71 20 -174 42 -219 26 -53 85 -113 127 -131 18 -8 65 -14 104 -14 134 0 172 60 207 330 16 118 30 283 25 291 -3 4 -21 9 -41 11 -32 4 -37 1 -54 -31z"
       id="path200"
       style="fill:#483d8b" />
    <path
       d="M92 1376 c-4 -6 -19 -42 -32 -81 -12 -38 -31 -88 -42 -109 -16 -36 -18 -70 -18 -383 0 -209 4 -343 9 -343 33 0 324 -434 304 -453 -3 -4 115 -7 263 -7 l270 0 22 68 c23 72 78 236 220 650 81 233 89 263 74 271 -9 5 -93 35 -187 66 -212 71 -456 162 -692 258 -126 51 -186 71 -191 63z"
       id="path202"
       style="fill:#00ced1" />
    <path
       d="M1246 951 c-3 -4 -28 -75 -55 -157 -27 -82 -84 -248 -126 -369 -42 -121 -89 -258 -105 -305 -15 -47 -31 -93 -35 -102 -7 -17 13 -18 338 -18 l344 0 42 153 c23 83 48 175 56 202 79 275 115 407 115 423 0 22 9 18 -285 102 -77 22 -169 49 -205 60 -74 23 -77 23 -84 11z"
       id="path204"
       style="fill:#3cb371" />
    <path
       d="M2340 458 l0 -458 23 0 c22 0 24 5 35 108 7 59 17 134 22 167 26 161 30 197 30 266 -1 41 -7 101 -14 134 -12 56 -64 191 -86 225 -6 10 -10 -142 -10 -442z"
       id="path206"
       style="fill:#00008b" />
    <path
       d="M3010 633 l0 -186 54 -101 c54 -103 92 -161 181 -279 l50 -66 238 -1 c130 0 237 2 237 5 0 3 -35 31 -77 62 -149 110 -231 184 -310 278 -51 61 -62 76 -257 333 -60 78 -110 142 -112 142 -2 0 -4 -84 -4 -187z"
       id="path208"
       style="fill:#4169e1" />
    <path
       d="M8325 772 c-188 -47 -427 -100 -610 -136 -66 -13 -133 -27 -150 -30 -272 -54 -805 -131 -1117 -162 -79 -8 -78 -5 -53 -139 9 -44 23 -118 31 -165 8 -47 17 -97 20 -113 l6 -27 814 0 c715 0 814 2 814 15 0 20 83 175 133 250 61 90 138 184 217 266 l71 72 -3 106 -3 106 -170 -43z"
       id="path210"
       style="fill:#e0ffff" />
    <path
       d="M1880 706 c-11 -39 -25 -89 -32 -111 -6 -22 -15 -53 -19 -70 -45 -152 -139 -499 -139 -510 0 -13 42 -15 290 -15 l290 0 0 339 c0 259 -3 341 -12 348 -7 5 -47 17 -88 26 -41 9 -119 27 -172 40 l-98 24 -20 -71z"
       id="path212"
       style="fill:#afeeee" />
    <path
       d="M8449 444 c-106 -112 -191 -231 -257 -359 l-42 -80 172 -3 c94 -1 173 -1 175 1 2 2 2 114 1 247 l-3 244 -46 -50z"
       id="path214"
       style="fill:#afeeee" />
    <path
       d="M6195 423 c-33 -2 -75 -5 -92 -8 l-33 -6 0 -204 0 -205 151 0 152 0 -6 43 c-11 88 -58 343 -67 365 -5 12 -17 21 -27 20 -10 -1 -45 -3 -78 -5z"
       id="path216"
       style="fill:#3cb371" />
    <path
       d="M5960 301 c-11 -37 -20 -80 -20 -94 0 -14 -4 -48 -9 -74 -5 -26 -12 -67 -14 -91 l-5 -42 39 0 39 0 0 185 c0 102 -2 185 -5 185 -2 0 -13 -31 -25 -69z"
       id="path218"
       style="fill:#ba55d3" />
    <path
       d="M0 183 l0 -183 153 1 c83 0 148 2 142 4 -5 2 -21 6 -35 9 -17 3 -34 20 -50 48 -28 52 -150 231 -184 273 l-25 30 -1 -182z"
       id="path220"
       style="fill:#7fffd4" />
    <path
       d="M3010 183 l0 -183 120 0 c66 0 120 2 120 5 0 3 -22 33 -48 68 -45 57 -106 150 -167 252 l-24 40 -1 -182z"
       id="path222"
       style="fill:#00008b" />
    <path
       d="M5441 41 c-27 -38 -27 -41 9 -41 27 0 30 3 30 29 0 42 -15 46 -39 12z"
       id="path224"
       style="fill:#ba55d3" />
  </g>
</svg>
