<?xml version="1.0" standalone="no"?>
<!DOCTYPE svg PUBLIC "-//W3C//DTD SVG 20010904//EN"
 "http://www.w3.org/TR/2001/REC-SVG-20010904/DTD/svg10.dtd">
<svg version="1.0" xmlns="http://www.w3.org/2000/svg"
 width="850.000000pt" height="850.000000pt" viewBox="0 0 850.000000 850.000000"
 preserveAspectRatio="xMidYMid meet">
<metadata>
Created by potrace 1.14, written by Peter Selinger 2001-2017
</metadata>
<g transform="translate(0.000000,850.000000) scale(0.100000,-0.100000)"
fill="#000000" stroke="none">
<path d="M449 6778 c-1 -948 -5 -2029 -8 -2403 -5 -598 -8 -679 -21 -676 -22
6 -307 30 -367 30 -29 1 -53 -3 -53 -8 0 -13 51 -20 220 -27 85 -4 173 -13
195 -20 22 -7 43 -10 46 -6 4 4 10 1093 14 2420 7 2213 6 2412 -9 2412 -15 0
-16 -146 -17 -1722z"/>
<path d="M500 6081 l0 -2419 89 -7 c49 -4 93 -10 98 -14 6 -3 15 -85 22 -182
10 -158 27 -308 46 -426 l8 -43 -36 0 c-19 0 -59 -5 -89 -11 -29 -5 -73 -14
-98 -19 -330 -65 -540 -134 -540 -179 0 -27 3 -27 84 14 66 33 176 64 427 119
136 30 252 33 379 10 51 -10 155 -17 260 -18 96 -2 184 -7 195 -11 11 -5 46
-26 77 -47 31 -21 59 -38 62 -38 3 0 27 -13 53 -28 51 -30 215 -100 298 -127
28 -9 59 -20 70 -25 11 -5 37 -15 59 -22 21 -7 55 -27 75 -45 43 -39 41 -39
-106 -18 -137 19 -195 40 -418 150 -209 103 -299 135 -387 137 -69 2 -94 -15
-84 -56 7 -29 38 -47 111 -65 71 -18 96 -31 131 -68 40 -42 49 -75 29 -113
-21 -40 -19 -54 9 -87 39 -46 87 -57 218 -48 197 13 407 11 483 -5 63 -13 225
-18 340 -10 54 4 430 -24 665 -49 52 -6 145 -15 205 -21 61 -5 128 -13 150
-17 35 -6 37 -7 15 -13 -31 -7 -37 -33 -13 -59 46 -48 242 -162 348 -201 59
-22 152 -38 325 -55 261 -26 357 -48 384 -90 42 -64 3 -98 -204 -175 -190 -70
-251 -113 -293 -209 -27 -61 -25 -122 5 -221 44 -143 50 -186 45 -325 -7 -180
-27 -271 -92 -425 -42 -100 -55 -149 -56 -220 -1 -92 -21 -194 -42 -218 -10
-11 -42 -30 -72 -43 -30 -13 -55 -27 -55 -31 0 -29 162 20 200 60 26 28 110
74 170 91 158 48 167 53 186 97 8 19 18 34 22 34 11 0 184 28 247 40 28 5 79
14 115 20 67 12 116 21 210 39 30 5 84 15 120 21 36 7 88 16 115 21 28 5 138
25 245 44 107 20 215 39 240 44 53 11 139 27 213 41 98 18 152 28 207 39 128
26 569 113 615 122 28 5 70 13 95 19 25 6 65 14 90 19 25 5 92 19 150 31 108
23 163 34 215 45 33 7 90 19 158 35 23 5 139 30 257 55 118 25 253 55 300 66
47 11 103 24 125 29 22 5 49 11 60 13 11 3 28 8 38 12 14 6 17 2 17 -23 0 -17
-4 -33 -9 -36 -5 -3 -7 -23 -4 -45 6 -43 -1 -50 -56 -62 -20 -4 -58 -12 -86
-18 -27 -5 -126 -26 -220 -46 -93 -19 -215 -45 -270 -56 -120 -25 -171 -36
-227 -48 -24 -4 -122 -25 -218 -45 -96 -20 -220 -46 -275 -58 -55 -11 -119
-24 -142 -29 -96 -20 -131 -27 -183 -39 -30 -7 -74 -16 -97 -21 -24 -5 -62
-13 -85 -18 -24 -5 -68 -14 -98 -20 -30 -6 -73 -15 -95 -20 -22 -5 -62 -14
-90 -19 -298 -63 -406 -86 -440 -92 -22 -4 -65 -13 -95 -20 -59 -13 -106 -23
-185 -40 -27 -5 -70 -14 -95 -20 -25 -6 -67 -14 -95 -20 -27 -5 -93 -19 -145
-30 -52 -12 -194 -42 -315 -67 -121 -25 -238 -49 -260 -54 -22 -5 -62 -13 -90
-19 -27 -5 -93 -19 -145 -30 -52 -11 -110 -23 -128 -27 -56 -10 -46 -23 20
-23 35 0 115 11 178 25 63 14 136 30 163 35 129 27 155 32 187 40 19 5 62 14
95 20 33 7 71 16 85 20 22 6 34 -3 97 -67 52 -53 79 -73 97 -73 35 0 33 12 -5
34 -34 20 -109 93 -109 107 0 12 21 22 65 30 73 13 149 28 245 49 52 11 151
32 220 46 69 15 143 30 165 35 22 5 63 14 90 19 28 5 70 14 95 20 25 6 68 15
95 20 28 6 68 15 90 19 170 36 256 54 360 76 224 48 250 53 253 50 8 -7 -42
-131 -76 -188 -48 -80 -158 -189 -255 -252 -80 -52 -91 -65 -56 -65 31 0 157
91 230 168 97 100 149 185 180 292 7 25 15 48 19 53 4 4 31 12 61 17 30 6 72
14 94 19 46 10 207 44 340 72 50 10 166 34 260 54 93 19 174 35 180 35 6 0 30
-29 52 -63 70 -106 182 -181 316 -211 83 -19 124 -20 199 -2 33 8 60 10 63 5
4 -5 1 -34 -4 -66 -6 -31 -11 -78 -11 -104 0 -27 -4 -70 -9 -96 -6 -26 -12
-76 -14 -110 -3 -56 -1 -63 15 -63 10 0 18 6 18 13 0 6 6 70 14 142 19 169 48
473 66 685 6 69 16 165 22 213 l11 89 46 -7 c25 -4 50 -9 55 -12 5 -3 5 -31 1
-62 -3 -31 -11 -123 -16 -206 -5 -82 -14 -215 -19 -295 -6 -80 -14 -219 -19
-310 -5 -91 -12 -182 -16 -202 -5 -24 -3 -38 6 -43 23 -15 39 26 39 100 0 39
4 129 10 201 5 71 19 273 30 449 11 176 23 330 25 341 4 17 19 25 69 38 36 9
70 16 77 16 8 0 10 -54 6 -207 -8 -302 -25 -720 -33 -778 l-6 -50 24 23 c22
21 23 31 29 200 19 530 33 817 41 820 12 5 10 42 -3 42 -18 0 -152 -31 -177
-41 -32 -13 -58 -11 -70 4 -9 10 2 16 51 26 34 7 76 17 92 21 17 5 49 14 73
20 25 6 42 17 42 25 0 20 -19 19 -114 -5 -68 -17 -112 -20 -320 -20 -477 1
-1260 48 -1344 81 -13 5 -33 9 -44 9 -12 0 -35 4 -52 9 -17 5 -51 15 -76 21
-25 7 -56 16 -70 20 -14 4 -45 13 -70 20 -58 16 -249 78 -275 89 -11 5 -36 14
-55 21 -19 7 -46 17 -60 22 -14 6 -36 15 -50 21 -14 5 -33 13 -42 18 -10 5
-25 9 -33 9 -8 0 -23 4 -33 9 -23 12 -60 26 -102 41 -19 7 -44 16 -55 20 -49
20 -243 80 -360 111 -22 6 -51 15 -65 19 -14 4 -45 13 -70 20 -25 6 -59 16
-76 21 -17 5 -41 9 -54 9 -15 0 -21 3 -14 10 9 9 43 5 299 -33 55 -9 150 -20
210 -27 122 -12 187 -24 335 -60 19 -4 59 -13 88 -19 117 -24 152 -32 269 -61
67 -16 157 -41 200 -55 43 -14 94 -30 113 -36 19 -6 44 -14 55 -18 65 -27 187
-58 319 -81 76 -13 369 -13 438 0 133 26 164 33 183 40 11 5 36 11 55 15 19 3
58 10 85 16 71 14 143 26 195 33 25 4 74 11 110 16 36 5 101 14 145 20 44 6
137 21 208 32 112 18 127 23 127 41 0 14 -4 17 -17 12 -10 -4 -45 -11 -78 -17
-129 -21 -173 -28 -242 -38 -319 -44 -342 -47 -403 -58 -30 -6 -113 -24 -185
-42 -170 -41 -368 -56 -550 -40 -157 13 -240 32 -455 103 -91 29 -185 60 -210
67 -25 7 -56 16 -70 20 -14 4 -50 13 -80 19 -30 7 -91 20 -135 31 -44 10 -138
30 -210 46 -140 29 -178 45 -103 43 28 -1 54 3 64 12 12 10 44 14 103 14 67 1
109 8 193 33 59 17 151 39 205 48 54 9 119 20 146 25 26 5 68 13 95 18 26 5
74 14 107 21 33 7 81 16 108 21 26 5 71 14 100 19 131 25 337 39 577 40 245 0
313 -5 530 -41 133 -22 191 -30 285 -39 55 -5 110 -12 122 -15 37 -9 103 6
103 23 0 11 -9 14 -37 10 -21 -3 -92 -1 -158 3 -114 8 -152 13 -305 39 -36 6
-90 16 -120 21 -99 17 -342 29 -485 24 -146 -5 -147 0 -5 29 145 30 175 37
215 48 52 14 154 47 180 58 208 88 482 177 600 196 59 10 115 27 115 35 0 12
-14 11 -95 -6 -171 -37 -228 -52 -300 -76 -59 -20 -73 -25 -127 -48 -16 -6
-39 -15 -53 -21 -14 -5 -36 -14 -50 -20 -14 -5 -36 -14 -50 -20 -14 -5 -35
-14 -47 -19 -13 -5 -41 -15 -63 -22 -22 -6 -49 -15 -60 -19 -40 -15 -354 -79
-545 -111 -36 -6 -81 -14 -100 -19 -19 -5 -60 -13 -90 -19 -30 -6 -68 -13 -85
-16 -16 -3 -55 -11 -85 -16 -69 -13 -136 -26 -197 -39 -27 -5 -73 -14 -103
-19 -30 -5 -70 -13 -87 -17 -39 -8 -40 -2 -12 51 37 71 56 85 113 85 37 0 69
9 116 32 36 17 85 34 110 38 52 9 156 36 185 49 22 10 101 42 180 73 80 32
346 109 515 148 19 5 71 18 115 30 44 12 98 26 120 30 22 5 94 26 160 46 66
20 132 39 148 41 15 3 30 9 33 14 3 5 15 9 28 9 12 0 26 4 32 8 5 4 27 14 49
21 22 7 50 17 63 22 12 5 32 13 45 18 12 4 42 18 65 30 24 11 50 21 58 21 8 0
14 7 14 15 0 19 -4 19 -48 -1 -21 -9 -47 -20 -59 -25 -13 -5 -34 -13 -48 -19
-14 -5 -36 -14 -50 -20 -14 -5 -35 -14 -47 -20 -35 -15 -205 -69 -288 -91 -78
-22 -115 -32 -177 -50 -21 -6 -54 -14 -73 -19 -19 -4 -106 -26 -193 -49 -87
-23 -168 -40 -180 -40 -19 1 -20 2 -3 6 10 3 33 13 50 22 17 10 65 28 106 40
241 75 345 118 560 233 97 52 295 171 298 180 2 4 8 8 13 8 17 0 139 85 139
98 0 18 -14 15 -45 -12 -15 -13 -40 -30 -54 -38 -14 -7 -28 -15 -31 -18 -17
-17 -309 -189 -357 -211 -18 -7 -33 -17 -33 -21 0 -5 -6 -8 -14 -8 -8 0 -38
-13 -67 -28 -105 -55 -296 -128 -307 -118 -3 3 2 6 11 6 8 0 17 4 19 8 2 4 21
18 43 31 22 13 76 50 120 82 44 33 145 103 225 156 150 99 312 226 413 322 32
31 63 58 68 59 11 4 12 32 1 32 -5 0 -21 -14 -38 -31 -100 -106 -467 -390
-483 -374 -2 3 16 31 41 62 48 62 84 117 223 338 48 77 103 164 122 193 19 29
42 68 52 85 10 18 35 60 55 94 33 57 47 113 28 113 -5 0 -17 -17 -29 -37 -114
-212 -438 -721 -513 -807 -129 -149 -272 -252 -513 -369 -64 -31 -120 -57
-123 -57 -3 0 3 16 15 36 12 19 21 43 21 52 0 9 9 28 20 42 11 14 20 30 20 37
0 21 52 53 87 53 38 0 83 25 83 46 0 8 -3 14 -8 14 -4 0 -24 15 -45 33 -31 27
-38 39 -35 63 l3 29 143 3 c152 3 184 12 197 53 7 21 -18 69 -36 69 -36 0
-169 86 -169 109 0 21 54 40 140 50 59 7 99 16 109 26 14 14 13 18 -10 41 -14
14 -43 31 -64 39 -73 24 -54 35 62 35 71 0 113 4 121 12 20 20 14 55 -15 73
-23 15 -41 17 -132 11 -126 -7 -294 -23 -336 -31 -274 -52 -438 -103 -642
-202 -40 -19 -77 -32 -83 -28 -12 8 7 20 75 47 63 25 225 105 280 138 28 17
57 33 65 37 8 3 26 14 40 24 105 72 232 121 355 138 170 23 197 31 340 96 81
38 158 56 267 63 102 7 103 7 106 33 2 19 -4 33 -23 47 -53 42 -71 122 -41
181 8 15 44 49 79 75 35 25 89 78 121 116 32 39 63 70 67 70 5 0 9 9 9 20 0
33 -16 23 -77 -47 -90 -103 -105 -118 -148 -145 -53 -34 -71 -56 -90 -107 -20
-57 -5 -118 42 -169 l34 -37 -58 -2 c-118 -5 -193 -25 -313 -80 -98 -46 -147
-61 -250 -73 -47 -6 -101 -13 -120 -16 l-35 -5 39 24 c21 14 65 31 98 38 32 7
64 19 70 26 15 18 -8 43 -40 43 -25 0 -25 1 -9 17 13 13 40 19 109 23 69 4 93
9 101 21 17 28 1 49 -38 49 -37 0 -43 8 -23 28 16 16 139 16 169 0 14 -7 40
-25 60 -40 42 -33 60 -35 83 -9 16 18 15 21 -15 72 -63 106 -69 120 -69 152 0
18 6 39 13 48 19 25 84 59 112 59 13 0 27 5 30 10 3 6 15 10 25 10 22 0 91 37
165 87 27 19 69 43 92 54 43 20 58 49 26 49 -10 0 -45 -16 -78 -36 -129 -78
-204 -105 -312 -111 -68 -4 -73 -3 -73 16 0 11 5 23 10 26 5 3 10 14 10 24 0
31 30 79 72 116 61 52 133 75 231 75 94 0 157 9 157 21 0 12 -147 11 -227 0
-35 -5 -83 -20 -108 -32 -45 -23 -125 -98 -125 -118 0 -18 -18 -12 -23 7 -3 9
-3 -2 0 -25 6 -43 -10 -61 -21 -25 -3 9 -3 -4 0 -29 5 -46 5 -47 -29 -53 -44
-8 -87 8 -87 32 0 37 20 124 37 159 26 55 128 158 179 183 82 38 191 60 302
60 61 0 102 4 102 10 0 6 -45 10 -115 10 -215 0 -350 -58 -447 -192 -24 -32
-45 -58 -49 -58 -8 0 -23 423 -17 485 l3 40 313 3 c196 1 312 6 312 12 0 6
-114 10 -314 10 l-314 0 -6 43 c-3 23 -10 173 -16 332 -10 301 -23 596 -41
944 l-10 204 23 24 c96 103 482 345 620 390 58 18 75 33 38 33 -25 0 -139 -45
-210 -84 -121 -65 -353 -223 -425 -288 -33 -31 -45 -35 -45 -14 0 7 -3 27 -6
44 -8 38 19 65 146 151 128 87 287 160 435 199 22 6 59 15 83 22 46 12 60 37
15 26 -16 -4 -46 -11 -68 -16 -69 -15 -225 -70 -294 -103 -87 -41 -151 -80
-237 -144 -40 -29 -74 -53 -77 -53 -3 0 -8 48 -11 108 -4 59 -12 169 -18 244
-6 76 -8 141 -4 145 4 5 65 11 134 15 70 4 190 12 267 18 77 5 184 13 238 16
88 6 97 9 97 26 0 16 -5 19 -24 14 -13 -3 -100 -11 -192 -16 -93 -6 -248 -17
-344 -24 -180 -13 -200 -13 -200 8 0 7 -9 32 -21 55 -11 24 -19 44 -17 45 3 3
186 19 423 37 72 5 173 14 225 19 52 6 107 10 123 10 18 0 27 5 27 16 0 15
-10 16 -82 10 -46 -4 -144 -11 -218 -17 -137 -10 -305 -23 -440 -35 l-75 -7
-55 74 c-30 41 -139 159 -243 262 -103 104 -185 192 -182 197 3 5 40 11 83 14
42 4 120 11 172 16 52 6 226 22 385 35 160 14 333 30 385 35 52 5 128 12 169
15 86 7 101 12 101 32 0 11 -7 13 -27 9 -16 -3 -86 -11 -158 -17 -71 -6 -170
-14 -220 -19 -49 -5 -144 -13 -210 -19 -66 -6 -168 -16 -227 -21 -60 -6 -156
-14 -215 -20 -60 -5 -149 -13 -199 -16 l-92 -7 -133 135 c-199 200 -450 458
-486 501 -30 35 -63 49 -63 27 0 -14 186 -207 656 -680 233 -234 435 -441 451
-460 15 -19 31 -37 34 -40 4 -3 25 -39 47 -80 64 -119 73 -172 93 -525 40
-718 83 -1761 95 -2292 l7 -293 -55 0 c-31 0 -69 3 -85 6 -28 5 -31 10 -37 57
-4 29 -11 149 -17 267 -5 118 -14 301 -19 405 -5 105 -14 289 -19 410 -6 121
-15 308 -21 415 -5 107 -14 294 -19 415 -42 918 -48 1003 -70 1040 -57 97
-413 472 -611 645 -52 46 -111 97 -130 114 -19 17 -53 46 -75 65 -173 146
-409 357 -508 455 -78 77 -117 103 -117 77 0 -7 134 -139 256 -251 27 -25 152
-135 277 -243 127 -110 222 -199 215 -202 -7 -2 -143 -15 -303 -29 -159 -14
-333 -30 -385 -36 -52 -5 -147 -14 -210 -20 -63 -5 -142 -12 -175 -16 -63 -6
-172 -16 -370 -34 -66 -6 -163 -15 -215 -20 -52 -5 -144 -14 -205 -19 -60 -6
-159 -15 -220 -21 -60 -6 -157 -14 -215 -19 -58 -5 -163 -15 -235 -22 -71 -8
-163 -14 -204 -14 l-74 0 -28 130 c-15 72 -33 155 -40 185 -6 30 -15 67 -19
81 -4 14 -4 46 2 70 8 38 6 55 -17 119 -43 122 -47 148 -40 262 l6 106 -34 0
c-32 0 -35 -3 -41 -36 -3 -21 -6 -58 -6 -83 0 -53 -18 -116 -51 -181 -17 -33
-10 -162 10 -204 24 -48 8 -59 -27 -19 -21 25 -23 35 -19 94 2 36 14 102 26
146 24 91 26 146 10 228 -10 46 -16 57 -31 57 -15 0 -18 -4 -13 -17 30 -70 26
-195 -8 -303 -29 -92 -29 -176 1 -217 13 -18 20 -38 17 -44 -4 -6 -30 -103
-59 -217 l-51 -207 -80 -7 c-77 -6 -206 -18 -420 -39 -229 -21 -343 -28 -400
-23 -44 4 -80 0 -135 -15 -41 -12 -93 -21 -115 -21 -22 0 -76 -4 -120 -10 -89
-10 -205 -21 -530 -50 -121 -11 -244 -22 -272 -26 l-53 -5 0 600 c0 594 0 601
-20 601 -20 0 -20 -7 -20 -1449 l0 -1448 -48 -43 c-82 -75 -254 -233 -318
-292 -33 -32 -64 -58 -67 -58 -4 0 -7 740 -7 1645 0 1456 -2 1645 -15 1645
-13 0 -15 -193 -15 -1676 l0 -1675 -28 -42 c-59 -87 -111 -232 -142 -392 -6
-33 -15 -78 -20 -100 -39 -187 -70 -524 -70 -771 0 -89 -3 -165 -8 -168 -4 -2
-45 -2 -90 1 l-82 6 0 2408 c0 1599 -3 2409 -10 2409 -7 0 -10 -813 -10 -2419z
m3365 2074 c19 -46 28 -95 17 -95 -17 0 -30 24 -35 65 -3 22 -8 56 -12 75 -6
38 -4 36 30 -45z m-50 -16 c4 -28 5 -52 4 -54 -2 -2 -16 -6 -32 -10 -26 -7
-27 -6 -27 31 0 22 5 57 11 79 10 36 12 38 24 21 7 -9 16 -40 20 -67z m47
-125 c10 -18 26 -67 34 -110 9 -44 20 -95 24 -114 4 -19 13 -60 20 -90 7 -30
16 -73 21 -95 42 -187 66 -350 75 -520 6 -95 4 -115 -12 -150 -15 -32 -25 -41
-50 -43 -54 -5 -61 18 -68 238 -6 220 -30 497 -50 585 -2 11 -9 45 -15 75 -25
131 -35 167 -52 197 -18 29 -18 32 -3 48 24 23 55 15 76 -21z m-91 -105 c13
-6 18 -17 14 -28 -3 -9 -10 -62 -16 -117 -5 -54 -14 -133 -19 -174 -5 -41 -14
-113 -19 -160 -6 -47 -15 -121 -20 -165 -11 -86 -31 -246 -34 -281 -4 -31 -26
-54 -51 -54 -13 0 -33 -12 -47 -26 l-24 -26 -7 34 c-7 31 1 124 22 248 5 30
14 87 20 125 11 63 27 149 51 260 5 22 22 94 39 160 18 66 36 138 41 159 15
60 18 63 50 45z m47 -171 c26 -124 35 -199 26 -208 -5 -5 -25 -13 -43 -16
l-34 -7 7 69 c4 38 9 102 12 142 4 39 9 72 14 72 4 0 12 -24 18 -52z m3110
-25 c82 -72 272 -263 380 -381 l82 -90 -27 -7 c-16 -4 -91 -11 -168 -17 -151
-10 -284 -20 -495 -37 -457 -37 -662 -52 -730 -54 l-65 -2 -6 96 c-7 106 -18
135 -55 150 -31 11 -269 -4 -859 -56 -407 -35 -508 -44 -657 -55 -179 -13
-172 -6 -165 -151 6 -132 3 -139 -61 -139 l-29 0 -11 163 c-7 89 -16 187 -21
217 -5 30 -12 76 -16 101 l-7 46 38 7 c22 4 91 12 154 17 63 5 158 14 210 19
52 5 147 14 210 20 63 6 160 15 215 20 125 11 286 26 435 39 63 6 162 15 220
21 58 6 179 17 270 25 91 8 215 19 275 25 61 6 164 15 230 21 66 6 161 14 210
19 50 5 148 13 219 19 71 6 131 13 134 16 12 12 28 2 90 -52z m-3061 -383 c6
-80 12 -189 12 -242 l1 -98 -25 0 c-14 0 -33 -4 -43 -9 -27 -14 -102 -32 -110
-27 -5 3 -1 60 9 128 9 68 22 170 28 228 22 188 15 172 69 168 l47 -3 12 -145z
m-283 98 c-3 -18 -9 -51 -14 -73 -7 -35 -14 -74 -35 -215 -3 -19 -10 -73 -16
-120 -6 -47 -12 -87 -15 -89 -8 -9 -102 -20 -169 -20 l-70 -1 -45 65 c-25 36
-54 79 -65 97 -11 18 -53 66 -94 107 -40 41 -92 99 -114 129 -22 29 -48 57
-59 63 -10 5 -18 13 -18 18 0 4 116 18 258 30 141 13 282 26 312 31 30 4 76 8
102 9 l48 1 -6 -32z m-949 -81 c-71 -60 -343 -331 -426 -423 -78 -88 -101
-126 -135 -229 -14 -41 -22 -56 -19 -35 11 76 23 120 48 169 15 28 27 59 27
70 0 58 94 194 243 349 80 83 189 140 272 141 l40 1 -50 -43z m-275 -25 c-339
-162 -316 -145 -392 -290 -24 -45 -72 -120 -108 -166 l-65 -83 -65 -8 c-107
-12 -244 -22 -252 -18 -5 2 -8 118 -8 257 l0 253 68 7 c245 24 377 36 606 55
72 7 132 14 135 16 2 3 34 5 70 4 l66 0 -55 -27z m357 11 c3 -10 15 -30 25
-45 20 -29 17 -48 -8 -48 -8 0 -22 -4 -32 -9 -9 -5 -30 -15 -47 -22 -16 -8
-32 -16 -35 -19 -3 -3 -18 -12 -35 -20 -41 -20 -158 -138 -178 -179 -9 -19
-17 -49 -17 -66 0 -18 -7 -48 -15 -66 -14 -33 -14 -31 -15 59 0 57 5 100 13
113 15 24 204 217 271 277 54 47 64 50 73 25z m3085 -63 c7 -71 17 -212 38
-545 5 -82 14 -217 19 -300 6 -82 15 -229 20 -325 6 -96 13 -199 16 -228 10
-97 -10 -107 -215 -116 -74 -3 -252 -12 -396 -21 -323 -18 -855 -38 -861 -32
-2 3 1 14 8 25 29 46 -20 106 -68 81 -34 -18 -40 -54 -14 -90 l22 -29 -34 0
c-19 0 -40 6 -46 14 -7 8 -16 79 -21 168 -21 343 -30 497 -49 793 -11 171 -23
363 -26 427 -8 138 -27 123 170 138 198 16 517 44 700 60 192 18 326 29 474
39 79 6 147 13 150 16 3 3 28 5 56 3 l50 -3 7 -75z m-2957 45 c11 -3 31 -21
44 -41 l23 -37 -23 8 c-13 4 -39 9 -57 12 -28 5 -72 45 -72 67 0 5 32 1 85 -9z
m3023 -142 c15 -194 27 -382 47 -708 8 -137 20 -308 25 -380 13 -166 13 -275
0 -275 -5 0 -10 1 -10 3 -1 1 -5 74 -11 162 -5 88 -14 225 -19 305 -6 80 -14
213 -20 295 -5 83 -14 224 -20 315 -17 248 -25 431 -21 436 14 14 19 -12 29
-153z m-3539 78 c-8 -10 -40 -49 -72 -87 -80 -94 -132 -171 -147 -219 -7 -22
-19 -58 -27 -80 -8 -22 -23 -62 -33 -90 -11 -30 -23 -105 -29 -187 -9 -102
-19 -160 -41 -230 -81 -252 -113 -400 -114 -517 0 -66 4 -85 34 -146 18 -38
46 -88 60 -110 45 -68 43 -72 -7 -19 -110 115 -136 232 -137 604 -1 190 2 234
18 285 10 33 21 74 26 90 4 17 14 50 23 75 8 25 27 86 42 135 115 382 111 376
298 466 114 54 126 57 106 30z m591 -59 c65 -37 190 -169 229 -241 18 -34 30
-65 26 -69 -3 -3 -9 -1 -13 5 -53 84 -114 144 -181 178 -86 43 -161 109 -161
141 0 21 3 24 28 18 15 -3 47 -18 72 -32z m-176 -13 c-23 -45 -107 -126 -189
-184 -38 -27 -83 -62 -100 -77 l-30 -28 -3 24 c-6 49 53 133 142 201 48 37
157 94 179 95 16 0 17 -2 1 -31z m4724 -33 c25 -37 30 -51 20 -57 -7 -4 -92
-12 -188 -19 -201 -13 -362 -25 -575 -40 -608 -45 -718 -53 -765 -54 l-45 -1
-6 48 c-3 31 -1 51 7 58 6 5 74 14 150 19 154 11 266 20 759 59 66 5 192 15
280 21 88 6 165 13 170 15 6 2 44 3 85 2 l75 -2 33 -49z m-4686 -17 c-9 -21
-90 -137 -117 -165 -5 -5 -46 -34 -90 -64 -211 -140 -223 -156 -231 -321 -8
-158 -45 -309 -75 -309 -5 0 -9 69 -9 154 0 182 9 213 103 344 63 87 92 115
222 211 77 57 137 114 180 174 22 31 32 17 17 -24z m89 -24 c21 -19 69 -50
106 -69 79 -40 94 -55 132 -140 28 -61 35 -98 31 -161 -2 -21 -6 -10 -16 37
-28 140 -101 233 -212 268 -42 13 -92 62 -92 88 0 19 10 14 51 -23z m-81 -66
c-10 -21 -69 -69 -86 -69 -3 0 5 13 18 28 12 16 32 40 43 55 23 31 41 21 25
-14z m4690 5 c0 -3 -19 -41 -43 -83 -44 -78 -96 -183 -140 -281 -13 -30 -54
-145 -91 -255 -78 -232 -73 -220 -118 -309 -59 -117 -127 -187 -228 -236 -25
-13 -53 -26 -62 -31 -26 -13 -205 -11 -247 2 -157 51 -253 108 -362 218 -91
93 -223 265 -233 306 -4 17 -12 102 -17 190 -5 88 -12 208 -15 267 l-7 106 44
6 c24 2 222 16 439 31 217 14 447 30 510 35 105 8 360 27 470 34 25 1 57 3 73
4 15 1 27 -1 27 -4z m-4626 -13 c3 -4 32 -18 64 -29 32 -12 69 -33 82 -47 28
-30 18 -32 -36 -6 -21 10 -63 29 -91 41 -29 13 -53 30 -53 37 0 14 26 18 34 4z
m4652 -181 c-5 -85 -62 -265 -143 -450 -22 -52 -151 -310 -171 -345 -10 -16
-31 -52 -47 -80 -62 -106 -139 -222 -177 -265 -46 -52 -136 -119 -160 -120 -9
0 -20 -4 -23 -10 -15 -25 -243 -6 -271 23 -4 4 -13 7 -21 7 -21 0 -151 87
-205 138 -100 93 -241 272 -297 376 -27 50 -31 67 -29 118 l3 60 68 -85 c118
-149 248 -270 357 -329 96 -53 165 -70 279 -70 160 -1 245 35 346 143 79 86
136 210 216 469 49 160 128 341 219 505 9 17 23 41 30 55 14 25 14 25 23 -20
4 -25 6 -79 3 -120z m-5172 83 c-10 -120 -22 -168 -58 -243 -20 -40 -36 -79
-36 -86 0 -7 -5 -25 -11 -41 -33 -87 -42 145 -9 246 28 84 91 191 113 191 4 0
5 -30 1 -67z m504 47 c33 -18 106 -50 115 -50 21 0 93 -61 108 -91 34 -71 38
-86 42 -172 l5 -88 -59 -29 c-62 -32 -109 -87 -109 -128 0 -31 38 -190 51
-215 17 -30 13 -76 -7 -98 -15 -16 -26 -19 -54 -14 -19 3 -55 8 -80 12 -53 6
-65 20 -45 50 21 32 -3 43 -27 13 -19 -23 -19 -44 -4 -81 8 -18 6 -19 -102
-49 -34 -10 -79 -29 -100 -43 -122 -83 -257 -7 -223 127 6 25 11 74 11 110 0
78 17 89 23 14 l3 -53 2 62 c1 34 9 82 17 106 8 23 21 76 30 116 8 41 29 101
45 135 36 75 214 299 272 343 46 35 59 38 86 23z m-174 -56 c-47 -43 -74 -59
-74 -44 0 5 5 10 10 10 6 0 26 16 46 35 19 19 40 35 46 35 6 0 -7 -16 -28 -36z
m1230 2 c8 -18 24 -40 36 -49 21 -14 21 -16 3 -25 -10 -5 -54 -15 -98 -22 -44
-7 -102 -21 -130 -31 -70 -26 -99 -25 -113 6 -16 35 -15 56 4 83 12 18 25 22
64 22 27 0 52 5 55 10 3 6 21 10 38 10 18 0 41 7 51 15 11 8 32 15 48 15 22 0
31 -7 42 -34z m276 -30 l0 -53 -87 -6 c-89 -6 -111 -3 -81 14 9 5 27 27 39 49
22 39 36 46 97 49 l32 1 0 -54z m-904 -51 c61 -92 65 -108 75 -285 6 -101 16
-190 28 -230 42 -152 51 -210 31 -210 -5 0 -10 18 -10 39 0 22 -4 43 -10 46
-5 3 -10 15 -10 26 0 11 -16 68 -36 126 -31 92 -36 118 -35 195 1 74 -3 98
-25 151 -15 34 -35 91 -46 127 -11 36 -22 74 -26 85 -5 18 -4 18 9 5 8 -8 33
-42 55 -75z m-1341 23 c-3 -13 -10 -36 -15 -53 -4 -16 -29 -97 -54 -179 -26
-82 -53 -178 -61 -213 -30 -128 -11 -576 29 -707 24 -79 81 -153 231 -301 79
-77 156 -160 172 -185 34 -50 88 -164 122 -255 41 -109 47 -123 80 -197 12
-26 21 -50 21 -52 0 -17 217 -367 239 -386 3 -3 21 -26 39 -52 47 -67 82 -148
82 -188 0 -29 -5 -37 -27 -46 -16 -6 -58 -23 -95 -38 -37 -16 -72 -25 -77 -21
-14 8 -46 79 -116 260 -32 83 -71 173 -85 200 -50 94 -72 130 -91 151 -10 11
-19 25 -19 31 0 6 -3 13 -7 15 -5 2 -21 21 -37 43 -17 22 -80 103 -141 180
-104 130 -215 285 -215 301 0 3 -8 18 -19 32 -10 15 -41 86 -69 158 -28 72
-60 150 -72 172 -24 46 -91 118 -158 170 -49 39 -58 65 -42 118 6 22 15 91 20
154 12 151 20 180 138 476 116 291 116 290 177 372 50 66 61 75 50 40z m1595
3 c0 -11 5 -23 10 -26 6 -3 10 -14 10 -25 0 -14 -10 -19 -52 -25 -29 -3 -71
-8 -94 -11 -38 -5 -41 -4 -68 36 -15 23 -24 46 -19 50 11 11 53 17 141 19 65
1 72 -1 72 -18z m-946 -62 c-4 -7 -28 -40 -55 -75 -53 -70 -103 -170 -113
-224 -16 -91 -25 -121 -45 -152 -20 -28 -22 -29 -16 -8 12 43 24 131 30 222 6
80 9 89 41 127 19 22 62 58 97 80 67 45 72 47 61 30z m638 -56 c50 -86 58
-109 58 -162 0 -46 -20 -104 -41 -116 -5 -4 -9 9 -9 27 0 19 -12 58 -26 87
-22 44 -27 68 -28 137 -1 46 2 84 6 84 4 0 22 -26 40 -57z m969 45 c0 -7 4
-80 10 -163 5 -82 14 -222 19 -310 35 -563 41 -638 54 -654 12 -15 2 -15 556
11 140 7 313 12 384 13 l129 0 35 -70 c45 -91 47 -95 107 -285 40 -124 83
-222 126 -285 56 -83 170 -175 217 -175 15 0 15 -2 2 -10 -9 -6 -377 -10 -987
-10 l-972 0 -65 133 c-77 155 -169 297 -240 370 l-50 52 -15 110 c-9 68 -15
207 -16 365 -2 268 -6 300 -55 420 -32 77 -41 134 -48 298 -6 122 -5 142 8
143 8 0 51 4 95 8 64 7 85 6 112 -7 31 -15 37 -14 101 7 49 16 108 25 216 32
82 5 152 12 155 14 2 3 31 5 63 5 39 0 58 -4 59 -12z m-2422 -87 c-6 -17 -16
-35 -23 -40 -14 -12 -242 -34 -257 -26 -14 10 -10 65 5 71 16 6 167 20 238 23
l47 1 -10 -29z m418 -3 c-3 -7 -5 -2 -5 12 0 14 2 19 5 13 2 -7 2 -19 0 -25z
m-40 -15 c-3 -10 -5 -4 -5 12 0 17 2 24 5 18 2 -7 2 -21 0 -30z m5397 -274 c7
-45 -2 -61 -231 -367 -160 -214 -285 -362 -306 -362 -4 0 23 46 61 103 62 91
104 160 165 267 40 70 155 308 177 365 4 11 12 32 19 48 30 74 62 158 83 222
12 38 13 34 20 -100 3 -77 9 -156 12 -176z m-5379 16 c10 -33 21 -84 26 -113
5 -30 10 -57 11 -60 4 -16 -14 -99 -26 -121 -11 -21 -13 -12 -12 70 1 75 -4
108 -23 164 -19 54 -24 90 -24 160 0 134 15 164 25 50 4 -49 14 -117 23 -150z
m-435 178 c0 -4 -37 -99 -81 -212 -97 -245 -109 -288 -109 -389 -1 -42 -8
-104 -17 -137 -9 -33 -15 -82 -14 -110 2 -59 -5 -95 -19 -95 -7 0 -9 164 -8
468 l3 467 35 6 c49 9 210 10 210 2z m463 -48 c3 -22 16 -80 31 -130 33 -115
35 -218 5 -255 -17 -20 -20 -21 -14 -5 19 52 15 105 -14 219 -17 65 -31 144
-31 174 0 63 15 61 23 -3z m992 3 c28 -48 24 -112 -11 -183 l-29 -60 -9 53
c-7 40 -5 70 9 127 9 40 14 78 10 84 -3 6 -2 11 2 11 5 0 17 -14 28 -32z m-81
-96 c-8 -12 -21 -16 -43 -14 -18 2 -43 -4 -57 -12 -18 -13 -24 -13 -24 -3 0
18 112 68 125 56 6 -6 6 -16 -1 -27z m-1017 -92 c-3 -41 -14 -85 -30 -120
l-26 -55 -1 46 c0 44 24 196 36 229 12 31 26 -35 21 -100z m1213 4 c0 -8 4
-22 10 -32 11 -20 42 -115 61 -187 19 -71 17 -312 -3 -395 -14 -57 -26 -99
-68 -245 -5 -16 -18 -59 -29 -95 l-21 -65 5 70 c3 39 9 93 14 120 30 174 33
207 28 300 -3 55 -10 123 -16 150 -24 120 -31 190 -31 307 0 135 12 175 37
117 7 -17 13 -38 13 -45z m-229 10 c8 0 20 -2 27 -2 20 -3 15 -110 -10 -179
-12 -35 -25 -63 -29 -63 -9 0 -57 147 -61 189 -3 30 1 36 22 42 14 4 19 7 13
8 -7 1 -13 7 -13 15 0 21 24 26 31 7 3 -9 12 -16 20 -17z m143 -61 c3 -21 6
-63 6 -93 1 -30 7 -100 15 -155 7 -55 19 -142 26 -192 13 -97 8 -166 -25 -348
-8 -44 -17 -143 -19 -220 -4 -124 -27 -298 -41 -312 -8 -8 -15 55 -19 177 -4
85 -10 129 -26 170 -22 58 -28 110 -11 110 6 0 10 -4 10 -10 0 -5 9 -10 20
-10 17 0 20 7 20 53 0 40 8 69 32 118 29 58 33 73 32 149 0 54 -6 94 -14 110
-10 17 -15 65 -17 155 -1 72 -5 176 -9 233 -4 66 -3 102 3 102 6 0 13 -17 17
-37z m-1081 -58 c5 -30 4 -65 -3 -94 -7 -25 -17 -72 -23 -103 -6 -32 -13 -58
-16 -58 -11 0 -31 79 -31 122 -1 51 41 189 55 185 5 -2 13 -25 18 -52z m5386
-93 c-184 -324 -465 -584 -858 -794 -89 -47 -172 -112 -231 -179 -199 -229
-317 -309 -482 -326 -50 -5 -151 24 -191 56 -53 41 -116 111 -146 162 -45 75
-121 270 -121 308 0 11 -4 23 -10 26 -5 3 -10 15 -10 26 0 10 -4 27 -9 37 -5
9 -13 28 -19 42 -5 14 -24 54 -41 89 -21 44 -28 68 -21 75 18 18 30 -7 86
-175 91 -273 126 -355 189 -441 63 -87 172 -148 262 -148 73 0 187 55 273 131
19 17 46 40 60 53 39 34 211 169 250 196 19 13 37 27 40 30 8 11 270 183 355
235 181 110 238 169 430 446 28 40 55 77 60 83 6 6 22 27 35 46 13 19 27 37
30 40 3 3 17 21 30 40 13 19 33 46 44 58 l21 24 3 -41 c2 -32 -4 -55 -29 -99z
m-5189 -33 c-16 -113 7 -179 73 -202 9 -4 22 -17 27 -29 5 -14 9 -17 9 -8 1
12 14 16 57 16 30 1 60 6 67 13 6 6 24 11 39 11 15 0 28 5 28 10 0 6 17 10 38
10 36 0 84 -31 94 -60 5 -16 46 -24 116 -23 38 0 62 -4 62 -10 0 -6 19 10 43
36 23 26 45 47 47 47 12 0 -10 -211 -24 -238 -20 -38 -79 -89 -84 -72 -4 10
-6 10 -12 0 -4 -7 -25 -19 -46 -26 -41 -14 -85 -7 -130 23 -11 7 -23 10 -27 7
-3 -4 -19 -2 -34 4 -15 5 -50 16 -77 23 -26 7 -62 24 -79 38 -16 14 -36 26
-44 27 -35 5 -92 83 -149 204 -49 103 -54 118 -54 174 0 51 8 70 55 123 16 18
18 -12 5 -98z m-296 -94 c15 -44 34 -109 42 -144 19 -80 43 -127 104 -206 54
-70 121 -172 167 -255 61 -112 77 -137 144 -235 37 -55 96 -129 129 -165 120
-128 199 -227 279 -350 45 -69 84 -135 88 -148 3 -13 -4 -56 -16 -95 -15 -53
-21 -99 -21 -175 0 -114 -11 -147 -58 -181 -32 -22 -42 -19 -42 13 0 28 -21
86 -43 119 -9 14 -17 29 -17 32 0 5 -53 78 -86 118 -32 40 -163 258 -202 338
-23 46 -64 143 -92 214 -88 224 -116 273 -263 460 -93 118 -179 248 -211 318
-21 46 -26 73 -26 135 0 89 31 247 73 372 l11 35 7 -60 c4 -33 19 -96 33 -140z
m1123 3 c4 -59 2 -87 -13 -127 -10 -28 -21 -51 -25 -51 -7 0 -22 230 -15 250
2 8 7 29 11 45 l7 30 15 -35 c8 -19 17 -69 20 -112z m4413 -188 c6 -124 15
-317 21 -430 21 -434 25 -565 14 -572 -14 -11 -1536 -8 -1560 2 -19 8 -19 9 1
9 25 1 113 46 176 89 41 28 106 93 249 246 77 82 116 110 257 183 196 102 351
218 514 384 101 103 227 264 275 350 l28 49 7 -42 c4 -24 12 -144 18 -268z
m-4520 225 c0 -26 -3 -33 -15 -29 -17 7 -21 34 -5 34 6 0 10 7 10 15 0 8 2 15
5 15 3 0 5 -16 5 -35z m-840 -59 c0 -24 9 -66 21 -93 14 -33 21 -69 21 -113 0
-68 15 -156 31 -177 6 -8 6 -13 -1 -13 -6 0 -29 26 -51 57 -29 41 -41 69 -41
93 -1 19 -7 53 -15 75 -20 54 -19 137 2 180 22 47 33 44 33 -9z m3805 15 c8
-16 54 -78 103 -138 217 -265 373 -364 573 -365 50 0 87 -3 82 -8 -4 -4 -66
-47 -138 -96 -164 -112 -388 -283 -469 -359 -72 -67 -183 -124 -243 -125 -45
0 -134 35 -179 71 -49 39 -108 118 -139 186 -14 29 -51 131 -84 225 -32 95
-66 192 -74 216 -15 43 -15 43 10 53 13 5 73 9 133 9 60 0 156 5 212 11 189
20 192 23 189 209 -1 77 0 140 3 140 3 0 12 -13 21 -29z m-3756 -36 c97 -233
190 -329 366 -376 47 -12 90 -28 97 -36 12 -15 -2 -73 -34 -131 -21 -37 -24
-119 -5 -142 7 -9 29 -29 50 -45 41 -30 67 -71 67 -104 0 -34 18 -33 36 1 l17
32 16 -42 c23 -59 39 -72 57 -48 8 11 14 26 14 33 0 7 4 13 9 13 4 0 11 -98
15 -217 3 -120 9 -235 12 -255 4 -25 2 -38 -5 -38 -6 0 -11 5 -11 11 0 6 -27
50 -60 97 -57 84 -105 141 -255 310 -103 116 -116 134 -214 300 -50 83 -59
106 -51 122 24 45 2 126 -50 185 -31 35 -40 62 -40 121 0 58 -2 68 -39 177
-11 32 -17 66 -13 75 5 15 7 14 10 -3 2 -11 7 -29 11 -40z m748 25 l24 -19
-38 -6 c-21 -4 -50 -11 -65 -17 -20 -7 -41 -7 -72 1 -25 6 -59 11 -75 11 -34
0 -42 14 -13 23 9 3 35 13 57 21 51 21 148 13 182 -14z m437 -182 c-4 -96 -2
-162 10 -237 20 -131 20 -277 1 -439 -20 -165 -19 -162 -60 -162 -28 0 -37 6
-49 29 -17 32 -65 56 -95 46 -24 -7 -25 0 -12 54 5 20 15 61 21 91 7 30 16 69
21 85 68 228 113 399 129 490 6 39 16 84 21 101 5 17 9 40 9 52 0 12 2 22 5
22 2 0 2 -60 -1 -132z m-364 -24 c-12 -49 -11 -118 5 -274 l5 -55 -29 81 c-25
71 -27 87 -19 125 6 24 14 82 17 129 4 47 12 96 17 110 8 22 9 20 12 -20 2
-25 -2 -68 -8 -96z m-100 112 c0 -29 -117 -50 -166 -30 -63 26 -53 38 27 31
42 -4 81 -2 89 3 22 14 50 12 50 -4z m219 -116 c14 -79 9 -125 -21 -183 -28
-57 -32 -39 -8 37 l22 66 -21 55 c-16 42 -18 61 -11 80 15 39 25 24 39 -55z
m-1039 -7 c0 -19 -17 -16 -23 5 -2 9 -8 26 -12 37 -7 17 -5 16 13 -4 12 -13
22 -30 22 -38z m995 -41 c3 -21 1 -58 -5 -82 -7 -25 -14 -63 -17 -85 -5 -32
-7 -36 -14 -20 -11 30 -11 183 1 206 16 29 28 23 35 -19z m1275 -21 c0 -3 -7
-15 -15 -25 -12 -16 -17 -17 -30 -6 -18 15 -20 41 -3 58 9 9 16 8 30 -5 10 -9
18 -19 18 -22z m-2822 -111 c28 -22 65 -64 84 -93 39 -60 52 -88 99 -212 44
-116 132 -273 204 -364 339 -423 371 -474 491 -781 26 -69 60 -148 75 -177 29
-56 27 -62 -25 -90 -27 -15 -106 -4 -139 19 -32 23 -93 111 -125 181 -137 296
-239 479 -340 611 -73 94 -163 252 -277 483 -105 211 -155 328 -155 360 0 19
41 103 50 103 4 0 30 -18 58 -40z m749 -84 c3 -22 2 -36 -5 -36 -19 0 -42 50
-42 92 l0 43 21 -32 c11 -17 23 -48 26 -67z m678 17 c22 -71 23 -153 3 -182
-15 -22 -16 -21 -23 21 -12 75 -17 218 -8 218 5 0 18 -26 28 -57z m-70 -20 c0
-32 4 -75 9 -95 12 -54 -5 -47 -31 13 -27 60 -29 87 -7 117 23 34 29 27 29
-35z m-161 -15 c-1 -23 -13 -56 -35 -89 -18 -29 -36 -70 -39 -93 l-5 -40 -19
29 c-20 31 -17 52 24 140 10 22 21 53 25 68 4 22 11 28 28 25 18 -2 22 -9 21
-40z m96 7 c0 -19 4 -43 9 -53 40 -75 65 -143 65 -172 0 -35 -50 -160 -64
-160 -17 0 -19 50 -5 104 23 86 19 122 -21 207 -38 81 -39 109 -4 109 16 0 20
-6 20 -35z m-1424 -22 c9 -36 39 -101 157 -343 117 -239 201 -380 338 -561 32
-42 51 -78 186 -347 78 -154 146 -277 174 -312 l47 -58 -24 -11 c-36 -16 -75
-14 -97 7 -10 9 -37 22 -60 27 -30 8 -45 19 -59 44 -11 18 -25 40 -33 48 -8 7
-23 33 -33 56 -10 23 -52 78 -91 122 -40 43 -87 100 -104 125 -17 25 -74 97
-126 160 -92 110 -136 172 -266 375 -80 124 -119 170 -190 220 -77 55 -144 84
-201 87 -24 2 -44 6 -44 9 0 15 394 379 411 379 5 0 12 -12 15 -27z m1404
-127 c12 -40 5 -116 -11 -116 -5 0 -9 6 -9 13 0 6 -7 24 -14 39 -19 37 -30
111 -21 145 l7 28 19 -35 c10 -19 23 -52 29 -74z m-71 -62 c28 -82 21 -114
-13 -63 -22 33 -31 69 -28 112 4 35 20 15 41 -49z m306 -29 c4 -16 11 -100 16
-185 5 -85 11 -184 15 -220 l5 -65 -43 -36 c-24 -20 -52 -55 -63 -77 -11 -23
-24 -40 -30 -39 -6 3 -10 106 -10 283 l0 279 39 63 c35 55 40 60 51 45 7 -10
15 -31 20 -48z m454 -58 c11 -29 27 -85 36 -125 22 -101 45 -158 93 -229 47
-69 48 -73 27 -73 -8 0 -50 37 -94 82 -57 59 -91 85 -118 93 l-38 11 3 59 c2
33 8 78 13 100 4 22 9 61 9 87 0 25 3 54 6 63 6 15 8 15 24 0 10 -9 27 -40 39
-68z m179 -229 c66 -127 109 -240 122 -322 6 -37 18 -88 26 -113 18 -52 16
-70 -19 -168 -15 -42 -21 -74 -16 -80 6 -5 13 -5 19 1 8 8 40 93 66 173 3 10
23 -5 62 -45 32 -32 84 -81 115 -108 65 -57 75 -91 31 -102 -49 -12 -177 5
-264 36 -57 20 -104 30 -143 30 -56 0 -58 1 -51 23 7 24 58 149 98 242 14 33
26 77 26 97 0 52 -38 152 -86 223 -57 84 -74 125 -95 228 -11 49 -19 93 -19
96 1 12 80 -119 128 -211z m-2683 46 c8 -71 -1 -274 -15 -339 -4 -22 -14 -71
-20 -110 -7 -38 -16 -86 -21 -105 -4 -19 -24 -109 -44 -200 -20 -91 -41 -183
-46 -206 -18 -69 -5 -200 44 -434 26 -124 54 -259 62 -300 40 -198 51 -226
107 -260 109 -66 180 26 257 335 4 17 22 60 39 98 26 55 51 86 137 169 104
101 169 185 217 283 27 53 84 207 90 239 2 16 14 8 62 -42 61 -64 116 -138
116 -158 0 -12 -78 -94 -205 -214 -88 -84 -137 -153 -200 -285 -58 -123 -85
-183 -85 -192 0 -15 -82 -178 -113 -223 -16 -25 -46 -62 -65 -82 l-36 -38
-116 0 c-63 -1 -155 -8 -205 -16 -156 -26 -189 -28 -203 -11 -19 23 -46 244
-63 517 -12 197 -6 575 12 739 32 299 87 586 139 723 36 97 100 177 142 178 3
0 10 -30 13 -66z m134 29 c22 -17 34 -46 59 -138 32 -123 61 -236 72 -290 5
-22 16 -65 23 -95 54 -204 45 -340 -32 -525 -23 -55 -31 -98 -31 -161 1 -96
26 -124 90 -98 46 20 190 169 216 224 43 91 44 97 44 315 0 168 3 213 13 209
15 -6 144 -163 173 -211 18 -29 20 -41 12 -71 -21 -82 -52 -162 -101 -262 -48
-98 -60 -114 -179 -233 -157 -157 -173 -186 -240 -432 -21 -79 -59 -158 -88
-182 -18 -15 -55 -16 -81 -3 -38 21 -57 79 -101 305 -5 28 -14 69 -19 93 -22
104 -28 130 -38 182 -6 30 -16 78 -23 105 -17 66 -16 276 1 345 7 30 17 71 22
90 15 64 27 114 39 170 7 30 16 73 21 95 40 180 63 391 56 504 -3 49 -3 91 -1
94 8 8 67 -11 93 -30z m2105 -59 c9 -8 16 -23 16 -33 0 -18 -96 -118 -105
-109 -3 2 4 27 14 54 11 27 22 61 25 77 7 30 27 35 50 11z m-1964 -41 c39 -45
88 -116 219 -320 l53 -82 -4 -243 -3 -243 -30 -60 c-30 -60 -141 -184 -199
-220 -28 -18 -29 -18 -42 0 -27 36 -12 123 46 280 28 75 50 177 50 230 -1 71
-31 214 -120 565 -41 162 -39 171 30 93z m2130 -28 l55 -13 -41 -1 c-36 -1
-77 -21 -104 -51 -3 -3 -32 -28 -65 -55 -125 -102 -160 -145 -120 -145 8 0 15
4 15 8 0 4 30 32 66 62 89 75 84 70 133 113 47 42 59 43 154 14 37 -12 86 -52
75 -62 -3 -3 -25 -1 -49 4 -24 6 -54 11 -66 11 -36 0 -203 -156 -203 -190 0
-29 11 -24 43 17 15 21 58 61 95 90 51 42 72 53 92 49 131 -25 140 -28 141
-44 1 -15 2 -15 6 1 5 20 43 23 43 4 0 -23 -85 -57 -143 -57 -40 0 -46 -5
-130 -92 -82 -85 -117 -132 -117 -158 0 -22 26 -8 41 23 8 17 38 47 65 65 27
18 69 49 93 70 62 53 141 80 141 48 0 -17 -96 -106 -106 -97 -4 3 -4 0 0 -7 5
-8 -3 -27 -21 -50 -87 -110 -95 -129 -132 -321 -23 -117 -58 -201 -104 -250
-118 -125 -809 -621 -866 -621 -12 0 25 124 38 128 6 2 7 10 5 17 -3 8 3 56
14 107 34 158 45 253 33 276 -9 17 -6 24 22 44 40 30 141 78 227 108 82 29
132 60 160 101 20 28 24 49 30 173 4 77 12 152 17 166 19 47 33 96 33 121 1
38 23 111 45 147 11 18 47 54 80 80 33 26 93 77 133 114 79 73 85 75 172 53z
m4151 -147 c1 -3 14 -288 25 -532 l7 -159 -29 7 c-130 29 -505 59 -604 48 -59
-7 -70 -5 -120 21 -30 15 -62 40 -71 54 -27 48 -64 61 -169 62 -100 1 -149
-11 -224 -53 -94 -53 -122 -70 -141 -86 -11 -10 -40 -28 -63 -42 -36 -21 -48
-24 -71 -15 -54 20 -90 -7 -141 -107 -8 -16 -24 -34 -35 -40 -10 -6 -28 -21
-38 -33 -24 -29 -48 -29 -127 2 -103 41 -123 37 -252 -52 -202 -137 -238 -179
-238 -278 -1 -53 -9 -93 -35 -172 -7 -22 -7 -22 -47 10 -35 28 -47 32 -96 31
-65 -1 -108 -20 -168 -73 -70 -62 -79 -68 -122 -74 -30 -5 -45 -3 -56 8 -10
10 -35 15 -75 15 -34 0 -69 4 -79 9 -38 20 -153 71 -161 71 -4 0 -26 -9 -49
-20 -22 -11 -55 -20 -72 -20 -20 0 -52 -14 -89 -39 -80 -54 -103 -59 -121 -26
-18 34 -18 86 0 122 19 36 85 137 103 154 22 24 97 125 97 133 0 4 9 19 20 33
33 43 26 84 -39 206 -56 105 -97 209 -121 303 -8 33 -26 55 -92 114 -139 123
-194 201 -222 317 -8 32 -18 68 -22 81 l-6 22 1871 0 c1029 0 1871 -1 1872 -2z
m-3843 -135 c-2 -37 -8 -58 -17 -61 -11 -4 -12 2 -6 24 4 16 8 44 8 62 0 17 4
32 9 32 5 0 8 -26 6 -57z m-43 7 c-3 -5 -13 -10 -21 -10 -8 0 -12 5 -9 10 3 6
13 10 21 10 8 0 12 -4 9 -10z m-15 -80 c0 -5 -5 -10 -10 -10 -7 0 -7 -8 1 -22
14 -27 14 -74 0 -103 -6 -11 -25 -63 -43 -115 -29 -88 -32 -106 -33 -240 -1
-80 -7 -165 -13 -190 -15 -59 -15 -70 2 -70 16 0 26 21 26 58 0 15 7 49 15 76
8 28 13 58 9 68 -15 50 72 -19 107 -83 20 -38 39 -121 39 -174 1 -67 40 -235
60 -255 3 -3 19 -29 37 -57 34 -56 29 -64 -24 -41 -24 11 -185 109 -246 151
-11 6 -40 41 -65 77 -26 36 -55 74 -64 84 -10 12 -16 29 -13 40 3 12 2 15 -1
9 -10 -22 -25 -14 -21 10 2 12 2 16 0 10 -5 -14 -23 -18 -23 -5 0 4 -25 23
-55 41 -31 19 -58 38 -61 42 -3 5 4 19 16 31 27 29 80 139 80 166 0 12 5 24
10 27 6 3 10 21 10 40 0 45 18 54 23 13 2 -20 4 -9 5 27 5 152 24 211 62 187
24 -14 57 -16 65 -2 3 5 -7 12 -22 16 -52 13 -55 22 -16 72 35 47 122 131 136
132 4 0 7 -4 7 -10z m161 -357 c100 -33 126 -37 216 -38 81 0 103 -3 107 -15
23 -69 52 -133 100 -225 31 -59 56 -116 56 -126 0 -21 -15 -25 -25 -8 -10 15
-45 27 -160 56 -123 31 -165 51 -234 107 -53 44 -120 81 -235 131 -47 20 -57
28 -51 42 4 10 9 33 12 51 7 37 36 62 74 62 14 0 77 -17 140 -37z m2879 22
c17 -9 30 -20 30 -25 0 -19 -42 -10 -72 15 -27 23 -28 25 -8 25 11 0 34 -7 50
-15z m-112 -4 c9 -5 -3 -10 -35 -15 -77 -11 -146 -24 -170 -31 -13 -4 -23 -3
-23 2 0 24 199 63 228 44z m45 -44 c54 -23 82 -108 74 -223 -22 -298 -31 -336
-93 -398 -42 -42 -90 -65 -173 -82 -110 -23 -217 -16 -291 19 -57 27 -130 81
-159 118 -32 38 -33 39 -100 39 -101 0 -132 37 -96 114 31 65 109 79 197 35
21 -11 47 -19 59 -19 19 0 21 4 15 31 -3 17 -19 50 -36 72 -34 47 -37 57 -14
57 11 0 14 5 9 18 -17 39 -15 50 8 77 l24 29 61 -23 c56 -21 65 -22 112 -10
66 17 70 41 4 27 -84 -18 -72 6 23 47 90 39 125 49 227 66 33 5 62 11 64 14
10 9 53 5 85 -8z m153 -59 c59 -71 80 -143 89 -323 4 -60 10 -119 15 -130 24
-56 40 -245 21 -245 -6 0 -11 13 -11 29 0 17 -4 32 -9 35 -10 7 -19 50 -29
146 -5 39 -19 89 -37 125 -25 52 -30 76 -36 176 -5 85 -12 128 -28 163 -24 55
-24 56 -12 56 5 0 22 -15 37 -32z m89 -33 c45 -46 65 -104 65 -189 0 -134 22
-232 84 -381 35 -82 31 -150 -9 -190 -15 -15 -74 -41 -146 -64 -45 -14 -303
-15 -294 -1 4 6 55 10 120 10 65 0 116 4 120 10 3 6 14 10 23 10 24 1 57 31
83 76 37 64 32 200 -12 312 -5 13 -9 70 -9 127 0 135 -20 215 -72 292 -48 71
-30 67 47 -12z m-125 -14 c5 -20 10 -68 10 -107 0 -99 16 -173 50 -235 24 -44
30 -66 30 -117 0 -34 4 -70 9 -80 34 -66 40 -149 15 -188 -17 -25 -72 -54
-103 -54 -11 0 -6 8 15 25 83 65 82 205 -2 417 -34 85 -38 105 -44 223 -4 72
-11 141 -15 155 -8 22 -7 24 8 11 9 -7 21 -30 27 -50z m515 18 c132 -10 179
-16 340 -43 50 -8 151 -20 225 -26 74 -6 139 -12 144 -14 5 -1 -4 -14 -20 -29
-38 -36 -319 -227 -333 -227 -6 0 -11 -4 -11 -9 0 -5 -8 -11 -17 -14 -10 -3
-56 -30 -102 -59 -66 -41 -95 -67 -130 -117 -45 -63 -102 -114 -89 -81 14 38
-24 215 -52 240 -3 3 -18 23 -34 45 -16 22 -44 56 -61 76 -18 20 -40 62 -50
93 -15 46 -29 67 -77 110 -32 29 -58 56 -58 59 0 3 19 8 43 10 43 4 62 3 282
-14z m-244 -127 c16 -25 29 -52 29 -60 0 -18 52 -127 95 -201 54 -92 61 -127
40 -213 -23 -93 -53 -176 -76 -209 -12 -17 -69 -52 -151 -93 -164 -81 -197
-85 -309 -31 -114 54 -212 42 -267 -32 -17 -23 -24 -26 -38 -17 -50 30 -38 82
25 112 43 20 235 22 304 3 45 -13 269 -10 322 4 39 10 91 66 99 108 17 81 26
187 20 235 -3 30 -23 96 -45 148 -22 53 -51 130 -65 172 -21 67 -33 96 -52
135 -3 5 5 4 17 -3 12 -6 36 -32 52 -58z m-3162 -35 c72 -62 115 -82 251 -117
89 -24 143 -45 154 -62 14 -23 -8 -66 -75 -148 -74 -90 -118 -161 -135 -216
-13 -43 -12 -50 8 -96 18 -42 19 -51 7 -59 -21 -13 -59 -11 -59 4 0 19 -47
114 -80 162 -80 117 -130 245 -130 335 0 69 -30 184 -60 233 -17 27 -30 50
-30 53 0 12 103 -50 149 -89z m4244 76 c-7 -2 -21 -2 -30 0 -10 3 -4 5 12 5
17 0 24 -2 18 -5z m-68 -21 c-10 -3 -34 -19 -52 -37 -54 -54 -48 -90 43 -242
10 -17 16 -35 12 -39 -10 -10 -51 3 -74 23 -41 36 -64 43 -146 43 -88 -1 -126
-15 -114 -45 6 -16 12 -19 58 -29 19 -4 26 -11 22 -21 -5 -12 -24 -15 -84 -15
-81 0 -185 -31 -177 -54 2 -6 22 -15 45 -20 23 -5 42 -12 42 -15 0 -7 -72 -31
-93 -31 -7 0 -44 -19 -82 -43 -39 -23 -83 -49 -100 -57 -16 -8 -32 -17 -35
-20 -3 -3 -18 -12 -35 -20 -16 -8 -43 -23 -58 -33 -54 -37 -35 -10 68 93 58
58 105 110 105 115 0 30 141 136 247 189 13 6 23 14 23 19 0 4 4 7 10 7 5 0
54 29 110 65 95 62 125 84 155 112 30 28 109 72 119 65 7 -4 3 -8 -9 -10z
m-5990 -77 c16 -35 14 -85 -5 -110 -13 -18 -76 -208 -90 -270 -7 -33 -23 -91
-36 -129 -28 -82 -29 -86 -8 -86 20 0 37 44 73 182 31 121 54 195 76 243 7 17
20 47 29 68 13 33 19 38 43 35 27 -3 28 -4 25 -61 -1 -33 -7 -67 -12 -77 -6
-10 -10 -56 -10 -102 0 -105 -16 -213 -36 -258 -46 -100 -137 -277 -149 -289
-11 -11 -25 -11 -77 -2 -88 15 -149 14 -221 -5 -62 -16 -153 -58 -217 -100
-31 -20 -42 -23 -63 -15 -15 6 -27 13 -27 17 0 3 15 23 33 44 49 58 102 153
153 275 130 313 217 445 359 550 50 38 54 42 89 88 16 20 34 37 41 37 7 0 20
-16 30 -35z m3690 -35 c11 -4 35 -13 52 -20 l33 -12 -35 -41 c-19 -22 -35 -46
-35 -52 0 -20 -58 -68 -74 -62 -10 4 -16 1 -16 -7 0 -20 -47 -59 -64 -53 -11
4 -16 0 -16 -12 0 -10 -10 -30 -21 -45 -20 -25 -21 -35 -15 -114 l7 -87 -95 0
c-77 0 -96 3 -100 15 -2 9 -4 6 -5 -7 -2 -49 -91 -67 -91 -19 1 11 9 46 20 76
11 30 20 78 20 105 1 117 40 164 243 294 116 74 113 74 192 41z m272 3 l15
-22 -46 18 c-61 23 -69 33 -22 29 26 -2 43 -10 53 -25z m1003 -75 c23 -64 54
-139 71 -170 5 -10 9 -68 8 -130 0 -73 -3 -106 -9 -93 -5 11 -9 31 -9 45 -1
14 -21 70 -45 126 -36 84 -45 116 -51 192 -4 58 -4 92 3 92 5 0 20 -28 32 -62z
m-3740 27 c7 -9 28 -22 46 -31 29 -14 87 -70 134 -130 38 -48 49 -115 51 -324
l1 -125 -27 -3 c-16 -2 -43 -1 -61 2 l-32 7 -6 122 c-5 138 -14 205 -27 213
-5 3 -9 14 -9 25 0 10 -4 27 -9 37 -89 177 -106 222 -81 222 4 0 13 -7 20 -15z
m-839 -5 c24 -13 25 -71 4 -196 -21 -116 -78 -333 -106 -399 -4 -11 -15 -40
-23 -65 -28 -87 -48 -129 -64 -135 -21 -8 -225 5 -241 14 -8 5 10 49 54 137
89 174 105 226 105 339 0 51 5 117 11 146 6 30 14 70 18 89 6 34 8 35 61 42
30 4 71 14 90 22 42 18 65 20 91 6z m825 -118 c70 -147 82 -194 93 -352 4 -69
5 -128 2 -132 -3 -3 -28 -8 -56 -10 l-50 -3 -13 65 c-7 36 -23 85 -36 110 -89
169 -126 249 -128 277 -3 28 4 38 62 86 36 30 70 52 75 50 6 -2 29 -43 51 -91z
m3499 16 c41 -113 43 -118 56 -194 17 -103 -6 -165 -73 -200 -36 -19 -35 -12
2 26 51 52 51 139 0 275 -25 69 -38 165 -22 165 6 0 22 -33 37 -72z m-973 -63
c17 -22 27 -25 87 -25 64 0 69 -2 102 -36 18 -20 59 -53 89 -73 53 -35 72 -45
133 -70 33 -13 226 -15 259 -2 13 5 41 14 63 21 22 7 62 28 88 47 27 19 51 33
52 31 2 -2 -6 -23 -18 -47 -33 -66 -101 -120 -233 -186 -66 -34 -135 -76 -156
-97 -45 -45 -67 -47 -158 -14 -152 56 -178 65 -236 77 -64 13 -59 8 -94 94
-40 99 -50 133 -50 169 0 52 29 136 47 136 3 0 14 -11 25 -25z m1435 -17 c-3
-8 -6 -5 -6 6 -1 11 2 17 5 13 3 -3 4 -12 1 -19z m-4175 -15 c17 -43 74 -161
113 -233 39 -73 62 -175 44 -197 -7 -7 -19 -13 -28 -13 -9 0 -34 -7 -56 -15
-22 -8 -45 -14 -51 -15 -9 0 -62 105 -110 218 -8 17 -20 47 -28 65 -21 49 -46
109 -46 112 0 1 26 22 58 46 31 23 59 46 60 51 8 18 33 6 44 -19z m2668 20 c0
-13 -42 -77 -64 -98 -11 -11 -33 -36 -47 -55 -15 -19 -30 -32 -35 -28 -16 17
22 94 69 141 43 42 77 60 77 40z m1029 -82 c13 -39 14 -61 3 -61 -8 0 -32 71
-32 97 0 24 15 5 29 -36z m485 -146 c-19 -28 -40 -34 -29 -7 8 18 22 75 33
132 6 29 7 24 10 -32 2 -50 -1 -74 -14 -93z m-1529 -9 l-9 -49 -13 29 c-16 38
-16 127 -1 142 20 20 35 -62 23 -122z m1013 86 c2 -21 -4 -43 -18 -62 -25 -35
-97 -80 -129 -80 -19 0 -15 7 28 49 28 27 58 67 68 90 21 50 47 51 51 3z
m-3813 -64 c21 -51 55 -129 75 -173 60 -127 60 -124 -10 -144 -25 -7 -56 -17
-70 -21 -14 -5 -42 -11 -62 -13 -43 -6 -44 -5 -58 105 -14 108 -25 151 -48
197 -21 39 -21 42 -4 56 34 29 117 84 128 84 6 1 28 -41 49 -91z m741 51 c21
-11 63 -37 93 -58 67 -44 104 -61 136 -61 43 0 57 -12 86 -73 16 -34 27 -62
26 -63 -1 -1 -26 -4 -55 -5 l-53 -3 -140 134 c-155 149 -174 175 -93 129z m89
-170 c21 -19 51 -45 65 -59 l25 -25 -130 -6 c-71 -4 -133 -5 -137 -2 -5 2 -8
63 -8 136 l0 131 73 -70 c39 -39 90 -86 112 -105z m1929 69 c22 -51 21 -61 -6
-52 -34 10 -47 34 -48 85 0 58 22 85 31 37 4 -18 14 -50 23 -70z m1076 28 c0
-21 -61 -76 -86 -76 -12 0 -26 -4 -29 -10 -3 -5 -19 -10 -34 -10 -15 0 -31 -4
-36 -9 -6 -5 -30 -11 -55 -14 -25 -2 -55 -8 -67 -12 -13 -4 -23 -3 -23 1 0 12
72 34 109 34 17 0 33 5 36 10 3 6 16 10 29 10 34 0 81 27 113 64 28 32 43 37
43 12z m-1535 -46 c22 -21 54 -45 72 -56 28 -16 35 -16 58 -4 19 10 28 11 37
2 7 -7 36 -12 65 -12 58 0 119 -24 167 -65 35 -30 25 -31 -79 -4 -44 11 -98
25 -120 31 -22 5 -114 16 -204 23 -90 7 -168 18 -173 23 -5 5 -8 20 -6 32 4
27 99 82 126 73 9 -3 35 -23 57 -43z m-2508 9 c21 -44 44 -142 50 -218 6 -72
6 -73 -15 -62 -41 22 -108 13 -257 -33 -62 -19 -170 -32 -164 -20 17 34 54
129 73 187 3 9 14 20 23 23 44 13 125 58 189 103 38 28 74 49 79 47 6 -1 15
-14 22 -27z m2323 4 c-28 -23 -32 -31 -27 -65 l5 -38 -64 0 c-36 0 -64 4 -64
10 0 6 5 10 10 10 6 0 29 17 51 37 49 45 89 73 107 73 8 0 -1 -12 -18 -27z
m740 -44 c0 -17 -4 -28 -10 -24 -5 3 -10 17 -10 31 0 13 5 24 10 24 6 0 10
-14 10 -31z m1303 -33 c-26 -35 -43 -43 -98 -48 -28 -3 -42 -3 -32 -1 9 2 17
9 17 14 0 5 7 9 15 9 31 0 103 57 106 85 1 6 4 0 6 -12 2 -12 -4 -33 -14 -47z
m-2555 33 c26 -12 62 -28 81 -36 34 -15 102 -73 85 -73 -5 0 -20 6 -34 14
-111 60 -144 76 -161 76 -26 0 -69 21 -63 31 9 15 42 10 92 -12z m1212 -1 c0
-16 -3 -19 -11 -11 -6 6 -8 16 -5 22 11 17 16 13 16 -11z m-100 -25 c73 -24
133 -38 235 -52 28 -4 77 -18 110 -30 122 -46 197 -71 218 -72 19 -1 18 -3 -8
-15 -22 -10 -50 -12 -102 -8 -40 4 -89 3 -108 0 l-36 -7 2 -51 c3 -47 0 -52
-37 -84 -54 -46 -74 -45 -74 5 0 22 -4 43 -10 46 -5 3 -10 15 -10 26 0 42 -48
102 -105 131 -22 12 -42 24 -45 27 -3 4 -21 18 -40 31 -19 13 -37 27 -40 30
-15 16 -68 30 -117 30 -62 0 -63 16 -3 22 50 6 85 0 170 -29z m-1197 -2 c6 -6
21 -11 33 -11 28 0 174 -74 192 -97 17 -24 15 -33 -9 -33 -26 0 -168 50 -239
84 -30 14 -71 26 -91 26 -51 0 -62 25 -19 43 22 9 121 0 133 -12z m307 -21 c0
-5 -13 -10 -30 -10 -16 0 -30 5 -30 10 0 6 14 10 30 10 17 0 30 -4 30 -10z
m-475 -20 c3 -5 21 -10 40 -10 35 0 185 -66 185 -81 0 -5 11 -7 25 -3 15 4 25
2 25 -4 0 -13 -63 -26 -88 -19 -9 3 -55 19 -102 36 -47 17 -103 31 -125 31
-22 1 -48 5 -58 9 -15 6 -12 9 17 21 20 7 36 17 36 22 0 12 38 10 45 -2z
m3649 -6 c9 -3 16 -12 16 -19 0 -20 -24 -25 -128 -25 -98 -1 -139 -14 -130
-41 2 -6 31 -21 63 -33 38 -13 61 -27 63 -38 3 -15 -4 -18 -49 -18 -73 0 -185
-38 -196 -66 -11 -29 48 -86 129 -123 60 -28 78 -41 78 -57 0 -39 -38 -48
-169 -40 -127 7 -165 -1 -176 -35 -8 -25 21 -85 54 -110 25 -20 25 -21 7 -35
-11 -8 -32 -14 -47 -14 -43 0 -79 -21 -86 -49 -3 -14 -13 -37 -23 -51 -9 -14
-22 -44 -30 -68 -16 -51 -45 -73 -200 -154 -160 -83 -322 -144 -412 -155 -54
-7 -60 3 -34 60 23 52 24 60 8 100 -26 68 0 94 116 118 78 16 93 31 63 62 -11
13 -21 31 -21 39 0 21 87 109 125 127 60 28 146 51 190 51 28 0 31 11 13 39
-16 26 -1 44 52 61 30 10 51 11 85 3 92 -21 101 43 12 85 -86 40 -213 38 -377
-6 -41 -12 -86 -24 -100 -27 -24 -6 -33 -10 -93 -34 -62 -25 -72 -8 -32 51 15
22 25 51 25 71 0 43 21 66 90 99 231 110 455 179 690 214 109 16 397 28 424
18z m-2516 -22 c23 -7 59 -16 80 -21 20 -5 53 -14 72 -19 19 -6 68 -19 108
-30 82 -22 97 -32 116 -76 31 -70 37 -95 34 -132 -3 -35 -6 -39 -33 -42 -84
-7 -101 -26 -116 -128 -5 -37 -20 -92 -33 -123 -14 -31 -27 -68 -30 -82 -5
-22 -10 -25 -31 -22 -40 8 -75 47 -75 86 0 21 -11 48 -30 74 -28 37 -32 53
-40 150 -11 128 -34 181 -95 222 -55 37 -93 48 -210 61 -145 17 -189 27 -310
76 -35 14 86 21 325 19 132 -1 243 -7 268 -13z m936 -26 c-3 -9 -10 -16 -15
-16 -5 0 -9 -6 -9 -14 0 -20 -13 -27 -30 -16 -12 7 -11 12 4 29 11 12 25 21
33 21 7 0 13 5 13 12 0 6 2 9 5 6 3 -3 3 -13 -1 -22z m-2167 -37 c20 -11 61
-36 90 -55 29 -19 56 -34 59 -34 13 0 124 -82 147 -109 45 -54 67 -132 69
-245 1 -72 -2 -107 -12 -123 -58 -91 -140 -14 -163 154 -7 48 -19 97 -27 109
-16 22 -308 216 -375 249 -48 24 -150 26 -320 7 -231 -26 -340 -45 -467 -81
-21 -6 -53 -15 -70 -20 -18 -5 -58 -16 -88 -25 -327 -95 -429 -110 -623 -91
-120 11 -101 23 106 66 28 6 68 15 88 20 20 5 49 9 64 9 15 0 44 4 64 9 20 5
63 15 96 21 49 10 252 73 425 132 40 13 294 23 653 26 233 2 249 0 284 -19z
m533 11 c0 -5 -4 -10 -10 -10 -5 0 -10 5 -10 10 0 6 5 10 10 10 6 0 10 -4 10
-10z m145 -8 c63 -39 105 -87 105 -123 1 -19 7 -52 15 -74 19 -53 19 -53 -12
-23 -16 13 -43 35 -60 47 -30 20 -33 27 -33 70 0 37 -6 54 -25 75 -13 14 -29
26 -35 26 -5 0 -10 5 -10 10 0 15 22 12 55 -8z m-510 -22 c23 -10 55 -21 73
-25 21 -4 42 -20 59 -43 42 -57 103 -113 171 -157 34 -22 64 -46 67 -54 3 -7
-5 -36 -19 -65 -45 -96 -48 -110 -44 -226 3 -110 3 -112 -23 -134 -18 -16 -70
-33 -162 -55 -75 -18 -141 -39 -147 -46 -6 -8 -33 -22 -58 -32 -39 -15 -78
-18 -232 -18 -125 0 -192 4 -206 12 -12 7 -50 17 -85 22 -75 12 -108 34 -125
82 -23 62 -18 125 23 301 20 88 12 129 -35 176 -60 60 -154 77 -272 48 -86
-21 -97 -26 -240 -94 -58 -28 -130 -61 -160 -75 -30 -13 -95 -43 -145 -67
-107 -50 -171 -79 -205 -92 -14 -6 -33 -14 -42 -19 -10 -5 -25 -9 -35 -9 -9 0
-30 -4 -47 -9 -17 -6 -78 -16 -135 -22 -99 -12 -107 -12 -175 10 -39 13 -81
27 -94 32 -13 5 -34 9 -48 9 -13 0 -32 4 -42 9 -9 5 -60 30 -112 56 -135 66
-301 167 -297 179 6 18 81 24 284 25 122 1 228 7 291 17 83 13 115 13 193 4
164 -21 231 -23 319 -10 89 13 298 64 410 100 179 57 341 91 525 110 55 6 136
14 181 19 104 11 171 0 242 -40 103 -59 312 -201 327 -222 9 -12 15 -44 15
-73 0 -83 27 -152 78 -201 43 -41 72 -42 111 -3 37 37 46 90 37 204 -12 143
-43 201 -150 275 -41 28 -77 51 -80 51 -11 0 -106 65 -106 72 0 10 70 -3 115
-22z m2329 -19 c37 -17 74 -31 82 -31 24 0 15 -17 -17 -30 -26 -11 -36 -10
-77 7 -90 39 -103 43 -159 43 -63 0 -62 13 0 37 45 18 93 10 171 -26z m-1540
-6 c96 -9 160 -31 202 -67 45 -40 64 -86 64 -160 0 -73 17 -144 43 -181 10
-15 25 -51 32 -79 15 -55 48 -98 76 -98 28 0 28 -22 0 -67 -25 -41 -44 -53
-55 -34 -6 9 -129 71 -142 71 -4 0 -29 14 -56 31 -39 25 -50 39 -59 72 -5 23
-15 56 -20 73 -5 17 -9 40 -9 52 0 11 -4 31 -9 44 -5 13 -15 43 -22 68 -25 89
-99 223 -143 259 -23 19 -20 32 7 27 12 -3 53 -8 91 -11z m-306 -9 c7 -4 12
-28 12 -53 0 -44 3 -49 80 -122 80 -76 103 -119 58 -108 -137 35 -158 33 -158
-11 0 -22 9 -37 35 -56 69 -53 73 -81 26 -181 -11 -22 -25 -60 -32 -85 l-12
-45 -84 -2 c-76 -1 -84 0 -77 15 8 19 8 32 -2 125 -7 74 1 113 44 204 34 73
26 92 -55 146 -38 25 -90 68 -116 96 -41 43 -46 52 -30 57 10 3 29 11 43 18
27 13 247 15 268 2z m1481 -9 c13 -6 24 -16 23 -22 0 -16 -81 -60 -252 -137
-115 -52 -167 -79 -186 -96 -41 -38 -85 -64 -99 -58 -31 11 -13 34 53 66 189
94 236 154 166 209 -41 32 -22 42 69 35 48 -3 92 -2 107 4 34 15 90 14 119 -1z
m-1268 -59 c62 -80 113 -204 139 -343 6 -33 22 -103 35 -155 36 -140 45 -206
40 -290 l-4 -75 -51 -3 -50 -3 0 129 c0 116 -2 132 -21 156 -32 41 -79 36
-126 -14 -33 -34 -89 -130 -107 -183 -7 -22 -36 -34 -46 -18 -8 14 9 95 36
174 21 59 55 112 114 177 56 61 71 94 77 159 4 51 1 63 -41 145 -25 49 -46
100 -46 115 0 14 -4 41 -9 58 -9 32 -9 32 12 18 12 -8 34 -29 48 -47z m1612 0
c38 -21 42 -27 45 -66 3 -44 -30 -132 -49 -132 -17 0 -9 -86 11 -128 25 -52
26 -49 -10 -127 -16 -36 -30 -71 -31 -78 -1 -16 -27 54 -28 76 -1 24 -39 104
-75 157 -36 54 -39 104 -7 148 62 88 -16 94 -139 12 -65 -43 -98 -56 -165 -65
-133 -17 -182 -27 -293 -58 -67 -19 -96 -40 -120 -87 -21 -39 -54 -73 -95 -98
-64 -37 -68 -27 -25 63 10 22 24 72 29 110 13 83 30 103 91 103 24 0 37 -3 29
-6 -8 -3 -29 -18 -47 -35 -28 -25 -31 -32 -21 -48 18 -28 62 -23 115 13 26 17
49 35 52 39 3 3 50 28 105 54 218 103 271 129 295 146 22 15 97 33 170 42 45
5 120 -11 163 -35z m-3923 12 c33 -10 22 -13 -130 -39 -107 -19 -227 -45 -370
-80 -125 -32 -159 -35 -345 -37 -110 -1 -248 -5 -307 -9 -122 -9 -134 -1 -67
40 125 79 155 87 309 82 69 -2 195 -9 280 -16 159 -12 304 -5 385 19 22 6 56
16 75 21 85 26 133 31 170 19z m3287 -36 c8 -21 -30 -59 -101 -100 -81 -48
-88 -38 -11 16 35 25 70 57 77 73 14 30 26 34 35 11z m480 -91 c-2 -5 -14 -30
-26 -57 -26 -56 -22 -73 38 -166 42 -64 63 -117 50 -126 -5 -3 -9 2 -9 10 0 9
-4 16 -10 16 -5 0 -10 8 -10 18 0 10 -15 35 -32 54 -28 30 -52 42 -153 73 -66
21 -126 42 -132 48 -20 15 -5 27 32 27 35 0 50 7 159 74 54 33 103 48 93 29z
m-5162 -14 c32 -6 70 -19 84 -29 14 -10 58 -37 96 -61 39 -23 108 -65 155 -94
47 -28 100 -58 118 -66 29 -13 43 -29 24 -29 -14 0 -184 71 -253 106 -38 18
-99 53 -136 77 -100 63 -118 67 -313 67 -95 0 -170 3 -166 8 10 10 167 29 257
31 41 0 102 -4 134 -10z m2188 -10 c21 -5 52 -25 68 -42 29 -30 31 -35 25 -92
-3 -33 -10 -82 -16 -110 -15 -71 -24 -197 -16 -238 4 -19 17 -51 30 -70 l24
-34 -87 -12 c-110 -15 -477 -16 -556 -2 -33 6 -83 11 -112 11 -28 0 -55 5 -59
11 -9 16 52 75 103 99 34 16 63 20 139 20 92 0 97 1 125 29 33 34 36 52 12 91
-27 47 -49 52 -174 47 -151 -7 -315 -32 -504 -76 -22 -5 -71 -17 -110 -25 -38
-9 -93 -23 -121 -31 -72 -21 -177 -20 -195 2 -8 9 -36 34 -62 55 -44 34 -44
52 1 29 9 -5 37 -15 62 -22 25 -7 50 -17 57 -22 20 -14 299 6 318 24 5 5 21 9
36 9 15 0 31 5 34 10 3 6 15 10 26 10 10 0 27 4 37 10 9 5 51 25 92 44 41 18
145 67 230 109 228 111 328 152 405 170 39 9 150 7 188 -4z m3734 -50 c94 -38
96 -49 6 -49 -51 0 -77 -5 -103 -21 -48 -28 -61 -48 -50 -69 8 -15 5 -19 -18
-23 -137 -27 -234 -82 -283 -162 -23 -36 -24 -52 -4 -71 24 -24 19 -29 -47
-43 -34 -7 -75 -22 -91 -33 -15 -11 -31 -17 -35 -14 -9 10 25 160 47 207 30
61 35 103 18 137 -18 37 -13 46 38 63 22 7 45 16 50 19 6 4 30 12 55 19 25 7
53 17 62 22 10 5 32 9 50 10 18 0 42 4 53 9 30 13 220 12 252 -1z m-2223 -171
c-9 -18 -35 -54 -58 -79 -53 -59 -72 -83 -79 -100 -4 -10 -6 -9 -6 4 -1 10 10
40 24 67 16 32 25 66 25 98 0 44 -4 52 -45 92 -25 24 -45 48 -45 52 0 13 33 9
90 -12 73 -27 88 -26 97 8 6 21 9 14 11 -35 2 -43 -2 -72 -14 -95z m1059 115
c-7 -2 -19 -2 -25 0 -7 3 -2 5 12 5 14 0 19 -2 13 -5z m149 -39 c40 -14 96
-31 123 -38 82 -21 115 -43 137 -93 11 -24 28 -53 38 -63 24 -24 50 -74 50
-95 0 -27 -29 -73 -49 -80 -60 -19 -232 104 -281 200 -13 26 -37 56 -53 67
-28 20 -37 20 -181 14 -83 -4 -168 -10 -188 -13 -45 -7 -51 11 -15 44 22 21
65 33 192 53 68 11 148 26 152 29 0 0 34 -11 75 -25z m-5027 -33 c83 -26 116
-40 305 -133 91 -44 174 -84 185 -88 11 -4 32 -12 47 -18 15 -6 78 -18 140
-27 139 -20 189 -35 258 -80 30 -19 67 -35 82 -35 15 0 30 -5 34 -11 8 -13
-180 -6 -271 11 -127 23 -221 29 -320 19 -210 -21 -244 -22 -291 -9 -33 9 -52
22 -65 43 -17 29 -17 31 2 69 17 34 18 41 5 71 -16 40 -59 83 -101 101 -66 29
-87 36 -106 36 -30 0 -79 38 -72 55 8 21 94 19 168 -4z m4987 -96 c15 -14 35
-41 44 -61 10 -21 33 -52 51 -71 37 -37 30 -40 -36 -17 -57 19 -74 29 -128 70
-25 19 -57 37 -71 40 -95 21 -108 51 -24 57 136 8 136 8 164 -18z m-4345 -1
c-3 -3 -12 -4 -19 -1 -8 3 -5 6 6 6 11 1 17 -2 13 -5z m4096 -24 c26 -16 56
-30 67 -30 10 0 22 -4 25 -10 3 -5 14 -10 24 -10 10 0 28 -12 42 -26 29 -31
75 -56 166 -88 37 -13 97 -36 133 -51 41 -18 86 -28 124 -30 56 -2 59 -4 72
-35 25 -58 20 -66 -66 -109 -44 -23 -85 -41 -90 -41 -6 0 -39 13 -73 30 -34
16 -91 37 -127 46 -80 20 -115 38 -135 67 -21 33 -45 116 -45 158 0 34 -29 79
-51 79 -5 0 -33 -13 -63 -29 -33 -17 -91 -35 -152 -46 -148 -27 -218 -63 -244
-125 -7 -16 -18 -31 -26 -34 -8 -3 -14 -4 -14 -3 0 8 58 137 74 163 17 28 103
94 123 94 5 0 35 13 68 30 76 37 109 37 168 0z m-2789 -36 c32 -32 33 -57 4
-84 -19 -17 -35 -20 -123 -20 -94 0 -104 -2 -146 -29 -24 -15 -57 -43 -74 -61
-37 -39 -66 -51 -105 -43 -37 7 -27 23 27 42 69 24 92 60 53 81 -22 12 -95 -1
-230 -40 -168 -49 -335 -51 -388 -4 l-27 23 36 1 c20 0 69 9 110 19 41 11 108
28 149 39 41 10 102 25 135 31 33 7 69 15 80 17 31 8 132 23 213 33 40 5 76
11 79 15 4 3 45 6 93 6 81 0 89 -2 114 -26z m2870 -60 c9 -8 16 -32 16 -52 1
-121 83 -222 181 -222 16 0 37 -4 47 -9 9 -5 32 -16 50 -23 17 -7 32 -16 32
-20 0 -5 9 -8 19 -8 11 0 23 -4 26 -10 13 -21 100 -7 125 21 10 11 102 50 107
45 3 -3 -4 -26 -16 -51 -11 -24 -21 -54 -21 -65 0 -16 -14 -27 -57 -47 -49
-21 -67 -24 -113 -19 -30 4 -95 10 -145 14 -49 4 -96 11 -104 16 -7 5 -42 30
-77 57 -35 26 -92 61 -126 77 -102 48 -159 73 -201 88 -46 16 -154 18 -191 4
-34 -13 -33 0 7 51 43 56 84 76 213 101 60 11 129 31 154 44 53 28 54 28 74 8z
m-638 -50 c98 -47 114 -59 114 -79 0 -13 -4 -27 -10 -30 -5 -3 -10 -24 -10
-46 0 -21 5 -39 10 -39 6 0 10 -7 10 -15 0 -18 -66 -21 -104 -4 -22 10 -66 82
-66 109 0 13 -51 104 -62 108 -9 4 -11 52 -2 52 3 0 57 -25 120 -56z m-300 -2
c26 -17 34 -56 34 -165 l0 -114 -39 -11 c-21 -7 -53 -12 -71 -12 -35 0 -106
35 -114 56 -4 12 18 70 46 119 6 11 16 29 22 40 37 69 91 108 122 87z m-2316
-37 c0 -8 -7 -15 -15 -15 -16 0 -82 -35 -106 -56 -13 -11 -33 -12 -103 -5 -48
5 -90 11 -93 15 -4 3 1 6 11 6 10 0 52 12 94 26 68 23 140 39 195 43 9 0 17
-6 17 -14z m2024 -11 c3 -8 -5 -35 -19 -60 -14 -25 -25 -51 -25 -58 0 -18 -42
-36 -150 -66 -43 -12 -72 -22 -116 -42 -11 -5 -35 -23 -53 -40 l-33 -31 -117
1 c-77 1 -128 6 -151 16 -62 25 -228 60 -460 95 -36 6 -95 15 -131 21 -37 5
-86 11 -110 12 -49 2 60 13 233 24 74 4 117 3 136 -5 45 -19 207 -28 322 -19
116 9 165 21 195 48 18 16 88 38 190 60 22 5 81 20 130 34 108 29 151 32 159
10z m516 -67 c0 -9 5 -27 12 -40 6 -12 14 -29 18 -37 3 -8 23 -23 43 -33 20
-10 37 -22 37 -27 0 -4 -17 -10 -37 -14 -21 -3 -53 -9 -70 -12 l-33 -6 0 113
c0 101 1 111 15 93 8 -10 15 -27 15 -37z m-490 -36 c-6 -23 -15 -41 -20 -41
-21 0 -21 25 1 68 27 51 37 37 19 -27z m870 -25 c0 -2 -32 -13 -71 -26 -59
-18 -73 -20 -80 -9 -6 10 2 17 29 25 35 11 122 18 122 10z m172 -52 c45 -20
97 -42 113 -50 40 -17 115 -72 115 -84 0 -14 -104 -81 -185 -120 l-70 -33
-175 -2 c-184 -2 -189 -3 -312 -41 -66 -20 -85 -22 -125 -13 -27 5 -97 19
-157 29 -103 19 -141 30 -103 30 26 0 20 17 -9 24 -17 5 -35 1 -51 -9 -49 -33
-243 -32 -243 0 0 19 11 19 36 0 21 -16 44 -20 44 -7 0 5 -11 15 -25 22 -14 8
-22 17 -17 22 4 4 48 20 97 34 91 26 122 48 103 72 -11 13 -23 8 -23 -11 0 -6
-47 -26 -103 -43 -57 -18 -113 -40 -123 -50 -19 -17 -21 -17 -57 4 -47 27 -49
48 -3 44 29 -2 32 0 22 12 -16 19 -6 36 20 36 23 0 150 59 161 74 4 6 8 21 8
34 0 22 0 22 33 6 17 -9 52 -31 77 -48 l45 -31 153 3 c165 4 213 12 476 81 65
17 126 36 135 41 28 16 57 11 143 -26z m-1088 -9 c4 -14 4 -29 2 -34 -8 -13
-89 -49 -144 -65 -33 -10 -64 -27 -82 -46 l-28 -30 -46 22 c-25 12 -46 25 -46
29 0 18 55 50 77 44 18 -4 23 -1 23 13 0 19 11 24 130 57 30 8 62 20 70 25 25
16 37 11 44 -15z m-1201 -22 c-13 -2 -33 -2 -45 0 -13 2 -3 4 22 4 25 0 35 -2
23 -4z m-38 -24 c28 -7 118 -13 200 -14 280 -5 454 -69 593 -219 57 -62 65
-82 30 -71 -42 13 -112 26 -183 35 -38 5 -101 14 -140 19 -38 6 -101 13 -140
16 -67 6 -115 16 -180 37 -116 39 -335 171 -335 201 0 17 6 18 53 14 28 -3 75
-11 102 -18z m160 11 c14 -6 4 -9 -38 -9 -36 -1 -56 3 -52 9 7 12 62 12 90 0z
m756 -146 c41 -20 108 -59 149 -87 l75 -51 190 -8 c184 -8 281 -20 317 -39 23
-12 123 -12 146 0 9 5 35 14 57 19 22 6 59 15 82 21 47 13 323 12 323 -1 0 -4
-4 -8 -9 -8 -5 0 -12 -8 -16 -19 -8 -28 -38 -59 -66 -70 -40 -15 -448 -25
-505 -13 -50 11 -125 24 -249 41 -38 6 -101 15 -140 20 -38 6 -139 13 -223 17
l-153 7 -29 42 c-16 23 -59 70 -97 104 l-67 61 70 0 c61 0 81 -5 145 -36z
m1679 29 c0 -13 52 -33 84 -34 l31 0 -30 -14 c-16 -7 -57 -18 -90 -25 -33 -6
-80 -15 -104 -21 -57 -13 -62 -5 -14 20 21 11 54 33 73 50 35 30 50 37 50 24z
m200 -72 c0 -5 -18 -41 -41 -80 -39 -68 -42 -71 -77 -71 -21 0 -73 -11 -116
-24 -145 -45 -145 -45 -209 17 l-55 54 107 26 c58 14 142 33 186 42 44 9 103
22 130 30 61 17 75 18 75 6z m-461 -175 c41 -42 36 -53 -13 -35 -32 12 -39 11
-65 -9 -21 -15 -44 -22 -73 -22 l-43 1 38 20 c20 11 49 37 63 59 30 45 38 44
93 -14z m-1149 -6 c19 -5 76 -19 125 -30 145 -35 225 -54 280 -70 22 -6 51
-14 65 -16 14 -3 34 -9 45 -14 11 -4 49 -16 85 -25 55 -15 177 -52 350 -108
19 -6 39 -15 45 -19 5 -4 17 -8 27 -8 10 0 27 -4 38 -10 11 -5 29 -14 40 -20
11 -5 28 -10 38 -10 10 0 22 -4 27 -8 6 -4 28 -14 50 -21 22 -7 49 -16 60 -21
164 -68 535 -185 628 -197 20 -3 37 -10 37 -15 0 -7 -27 -8 -77 -4 -207 16
-833 93 -898 110 -11 3 -51 12 -90 22 -99 23 -147 40 -245 88 -99 49 -149 77
-207 117 -23 16 -44 29 -48 29 -4 0 -25 13 -48 29 -23 15 -81 49 -129 74 -76
40 -127 60 -244 97 -17 6 -71 10 -122 10 -85 0 -111 8 -97 29 6 11 215 4 265
-9z m293 -37 c-7 -2 -21 -2 -30 0 -10 3 -4 5 12 5 17 0 24 -2 18 -5z m-343
-17 c132 -33 199 -65 435 -211 168 -103 210 -127 305 -168 98 -43 275 -83 483
-108 42 -5 113 -13 157 -19 465 -58 588 -69 940 -80 162 -5 392 -13 510 -19
118 -5 310 -13 425 -17 116 -5 200 -10 188 -12 -30 -5 -41 -21 -45 -67 -3 -44
16 -36 -203 -84 -55 -13 -116 -27 -135 -31 -19 -5 -57 -14 -85 -20 -27 -6 -66
-15 -85 -20 -166 -40 -423 -37 -720 9 -63 9 -85 14 -250 45 -66 13 -175 37
-305 67 -22 5 -65 14 -95 20 -30 6 -75 15 -100 20 -198 40 -288 49 -555 58
-132 5 -252 13 -267 19 -15 6 -54 36 -86 66 -33 29 -77 62 -98 71 -22 10 -88
41 -149 70 -105 50 -182 78 -288 105 -51 14 -44 4 -105 140 -43 96 -70 169
-64 174 10 11 137 5 192 -8z m-207 -68 c8 -18 27 -62 42 -98 15 -36 36 -85 47
-110 11 -25 26 -58 33 -75 8 -16 44 -97 80 -179 66 -150 97 -202 166 -286 20
-25 40 -55 43 -66 7 -24 -7 -32 -99 -56 -67 -18 -257 -17 -279 1 -35 29 -86
178 -86 252 -1 92 -19 201 -36 221 -24 25 -59 23 -78 -7 -13 -20 -16 -58 -16
-232 0 -279 -26 -485 -75 -603 -19 -48 -28 -90 -32 -160 -3 -52 -9 -101 -13
-109 -4 -7 -54 -28 -111 -45 -57 -18 -133 -49 -168 -69 l-63 -38 7 28 c4 15 9
71 11 123 5 99 14 147 45 217 22 49 82 238 98 306 14 61 14 337 0 391 -6 22
-20 73 -32 111 -28 92 -28 167 2 224 41 79 84 108 261 176 115 44 195 82 211
101 17 21 25 17 42 -18z m292 -293 c28 -9 92 -37 143 -61 51 -24 99 -44 106
-44 8 0 16 -3 18 -7 2 -5 28 -21 58 -37 30 -16 70 -45 87 -66 55 -64 90 -72
338 -81 280 -11 421 -27 665 -79 25 -5 59 -12 75 -15 28 -6 54 -11 160 -35
143 -33 335 -70 425 -83 216 -32 267 -37 354 -37 106 0 103 -11 -9 -34 -44 -9
-114 -23 -155 -32 -82 -17 -267 -15 -390 6 -36 6 -117 15 -180 20 -130 10
-193 18 -230 30 -14 4 -45 13 -70 20 -25 7 -54 16 -65 20 -39 15 -136 33 -330
60 -88 13 -183 31 -290 55 -38 9 -144 25 -235 35 -91 11 -187 24 -215 30 -95
21 -150 30 -201 36 -35 4 -54 12 -63 26 -7 11 -10 22 -7 25 3 3 34 0 69 -6 95
-16 186 -15 193 4 4 8 1 21 -5 29 -14 17 -124 71 -176 87 -22 6 -50 15 -63 20
-13 5 -36 9 -52 9 -16 0 -32 6 -37 12 -16 25 -51 113 -47 119 5 8 66 -4 129
-26z m-398 -124 c7 -11 17 -77 23 -148 6 -70 15 -141 21 -158 31 -85 49 -125
68 -148 20 -24 75 -47 115 -48 27 0 22 -4 -34 -27 -96 -39 -171 -84 -226 -136
-52 -48 -71 -57 -59 -28 18 42 27 166 32 417 3 166 9 275 15 282 15 18 31 16
45 -6z m408 -18 c40 -6 77 -20 153 -56 88 -41 71 -53 -55 -38 -136 17 -137 17
-155 59 -18 41 -14 57 11 47 9 -4 30 -9 46 -12z m130 -194 c28 -4 71 -13 98
-19 26 -5 68 -15 95 -20 26 -6 103 -14 172 -19 69 -5 145 -15 170 -21 93 -23
116 -28 170 -39 30 -6 120 -21 200 -31 168 -24 217 -34 320 -68 97 -32 148
-41 295 -52 66 -4 154 -14 195 -20 41 -7 102 -15 135 -18 l60 -7 -45 -12 c-25
-7 -56 -14 -70 -16 -32 -6 -173 -35 -225 -46 -44 -10 -84 -18 -279 -56 -178
-35 -325 -37 -471 -5 -98 21 -196 31 -414 40 -129 6 -264 15 -300 20 -36 6
-100 15 -141 21 l-74 12 29 23 c17 13 34 24 39 24 5 0 22 14 39 31 48 51 33
100 -73 233 -42 54 -43 71 -1 61 14 -4 49 -11 76 -16z m-46 -269 c-62 -35
-119 -84 -149 -129 -31 -46 -44 -56 -110 -83 -130 -54 -165 -81 -314 -237 -27
-28 -53 -51 -59 -51 -18 0 1 101 30 159 46 91 134 171 255 230 56 28 111 51
120 51 9 0 20 5 23 10 3 6 15 10 26 10 10 0 27 4 37 9 9 5 37 14 62 21 25 7
54 16 65 20 25 9 36 2 14 -10z m-206 -7 c-7 -2 -19 -2 -25 0 -7 3 -2 5 12 5
14 0 19 -2 13 -5z m3393 -90 c-4 -49 -12 -131 -18 -183 l-11 -96 -38 -12 c-49
-15 -202 -16 -248 0 -114 36 -211 106 -271 194 -17 23 -30 45 -30 47 0 8 32
18 90 29 30 5 74 14 98 19 23 5 61 13 85 18 23 5 67 14 97 21 52 12 92 20 185
39 71 15 67 20 61 -76z m-3177 -28 c129 -22 275 -36 506 -46 116 -5 235 -13
265 -18 30 -5 84 -14 120 -20 141 -22 108 -26 -208 -26 -304 0 -395 -5 -662
-35 -104 -12 -380 -56 -420 -67 -24 -6 -24 -5 5 18 32 27 66 44 155 79 63 25
86 43 107 85 15 28 31 44 43 45 3 0 43 -7 89 -15z m851 -136 c-14 -6 -50 -15
-80 -21 -30 -5 -75 -14 -100 -18 -104 -20 -168 -32 -210 -40 -25 -4 -71 -13
-102 -19 -148 -28 -488 -89 -793 -141 -60 -10 -126 -22 -145 -26 l-35 -7 41
39 c22 22 53 57 68 77 28 37 41 42 146 66 122 27 540 80 645 82 38 1 97 5 130
9 96 12 465 11 435 -1z"/>
<path d="M5629 7235 c-3 -2 -63 -10 -135 -16 -71 -6 -165 -15 -209 -20 -130
-13 -293 -30 -395 -39 -52 -5 -144 -14 -205 -19 -60 -6 -155 -15 -210 -20 -55
-5 -129 -13 -164 -17 l-64 -7 7 -121 c4 -67 11 -182 16 -256 10 -154 24 -373
40 -635 5 -99 13 -190 15 -202 5 -22 10 -23 97 -23 51 0 142 4 202 10 61 5
201 14 311 20 609 33 870 54 892 71 12 11 14 24 8 64 -3 27 -11 118 -16 200
-18 295 -29 462 -39 605 -5 80 -12 197 -16 260 -4 63 -11 123 -16 133 -7 13
-21 17 -62 17 -29 0 -55 -2 -57 -5z m97 -27 c4 -6 11 -73 16 -147 12 -195 28
-445 38 -601 16 -243 28 -475 24 -481 -6 -10 -293 -32 -759 -59 -315 -19 -487
-29 -591 -36 l-101 -7 -6 48 c-11 79 -8 113 10 123 14 9 14 11 -5 21 -19 10
-22 20 -22 84 0 40 -5 110 -10 156 -8 59 -8 87 0 96 6 8 7 16 2 19 -9 5 -15
72 -29 298 -6 107 -6 108 18 117 23 9 23 10 2 10 -18 1 -23 9 -29 49 -5 26 -8
76 -9 112 l0 65 65 7 c36 4 117 13 180 19 174 16 284 27 403 38 59 6 155 16
215 21 59 6 145 15 192 19 47 5 143 14 215 21 71 6 132 13 134 16 9 9 40 4 47
-8z"/>
<path d="M5669 7190 c-4 -76 -3 -261 2 -262 4 -2 12 -86 19 -187 11 -174 11
-185 -6 -198 -15 -11 -15 -13 -2 -13 23 0 29 -36 35 -215 5 -176 20 -315 34
-315 5 0 9 10 9 23 0 33 -48 779 -60 937 -6 74 -10 153 -10 175 0 39 -19 89
-21 55z"/>
<path d="M5577 7013 c-11 -20 -17 -83 -8 -83 5 0 11 -21 13 -47 2 -27 8 -48
13 -48 6 0 11 21 13 48 2 33 7 47 18 47 7 0 14 4 14 9 0 4 -12 6 -27 3 -26 -5
-26 -4 -19 37 3 24 2 41 -3 41 -6 0 -12 -3 -14 -7z"/>
<path d="M4980 6961 c0 -28 5 -51 10 -51 6 0 10 20 10 44 0 25 -4 48 -10 51
-6 4 -10 -13 -10 -44z"/>
<path d="M5385 6980 c-3 -5 1 -23 10 -40 11 -21 14 -42 9 -67 -5 -28 -4 -35 7
-31 8 3 16 18 19 34 5 28 8 29 63 32 60 3 80 21 25 23 -53 2 -83 -2 -86 -12
-8 -20 -22 4 -22 37 0 33 -12 45 -25 24z"/>
<path d="M4470 6908 c0 -29 -6 -64 -13 -78 -9 -18 -10 -38 -4 -67 14 -73 26
-48 26 54 0 64 4 99 12 104 13 8 5 39 -11 39 -5 0 -10 -23 -10 -52z"/>
<path d="M4614 6947 c-5 -14 11 -67 21 -67 3 0 5 18 5 40 0 38 -15 54 -26 27z"/>
<path d="M4790 6917 c0 -35 -4 -47 -17 -50 -10 -3 -3 -5 15 -6 31 -1 32 0 32
38 0 22 -6 44 -15 51 -13 11 -15 6 -15 -33z"/>
<path d="M5355 6920 c-3 -5 1 -10 9 -10 9 0 16 5 16 10 0 6 -4 10 -9 10 -6 0
-13 -4 -16 -10z"/>
<path d="M5105 6911 c-39 -7 -39 -7 26 -15 38 -5 84 -4 110 2 l44 10 -41 1
c-23 1 -54 3 -70 5 -16 2 -47 1 -69 -3z"/>
<path d="M4533 6883 c-22 -8 -14 -39 11 -51 15 -7 26 -21 28 -37 2 -14 8 -26
13 -26 16 0 18 33 4 42 -8 4 -14 14 -15 21 0 7 -2 23 -2 36 -2 21 -13 26 -39
15z"/>
<path d="M4851 6862 c-25 -36 -29 -74 -6 -66 8 4 15 15 15 26 0 12 8 27 18 34
13 9 14 16 6 24 -9 9 -17 4 -33 -18z"/>
<path d="M4960 6879 c0 -5 5 -7 10 -4 6 3 10 8 10 11 0 2 -4 4 -10 4 -5 0 -10
-5 -10 -11z"/>
<path d="M5000 6835 c0 -51 2 -56 15 -45 19 16 17 91 -2 98 -10 3 -13 -12 -13
-53z"/>
<path d="M4405 6860 c-3 -5 -16 -11 -28 -11 -15 -1 -17 -3 -6 -6 9 -2 22 -16
28 -30 l12 -26 15 27 c8 16 14 35 14 42 0 16 -26 19 -35 4z"/>
<path d="M4636 6854 c-10 -26 4 -37 25 -18 10 9 16 21 13 25 -9 15 -31 10 -38
-7z"/>
<path d="M4908 6863 c7 -3 16 -2 19 1 4 3 -2 6 -13 5 -11 0 -14 -3 -6 -6z"/>
<path d="M4601 6844 c0 -11 3 -14 6 -6 3 7 2 16 -1 19 -3 4 -6 -2 -5 -13z"/>
<path d="M5606 6562 c-3 -6 -1 -14 5 -17 15 -10 25 3 12 16 -7 7 -13 7 -17 1z"/>
<path d="M5432 6547 c-8 -9 -4 -15 15 -24 21 -10 24 -10 19 3 -3 9 -6 20 -6
25 0 13 -16 11 -28 -4z"/>
<path d="M5177 6533 c-12 -11 -8 -23 8 -23 8 0 15 7 15 15 0 16 -12 20 -23 8z"/>
<path d="M4766 6521 c-4 -5 -2 -12 3 -15 5 -4 12 -2 15 3 4 5 2 12 -3 15 -5 4
-12 2 -15 -3z"/>
<path d="M4971 6509 c-12 -20 -11 -21 5 -15 10 4 21 1 26 -6 5 -8 7 -4 5 11
-5 33 -19 36 -36 10z"/>
<path d="M5518 6513 c6 -2 18 -2 25 0 6 3 1 5 -13 5 -14 0 -19 -2 -12 -5z"/>
<path d="M5345 6500 c-3 -5 -1 -10 4 -10 6 0 11 5 11 10 0 6 -2 10 -4 10 -3 0
-8 -4 -11 -10z"/>
<path d="M4714 6485 c-10 -8 -14 -14 -9 -14 6 0 19 6 29 14 11 8 15 15 10 15
-6 0 -19 -7 -30 -15z"/>
<path d="M5105 6480 c-3 -5 -1 -10 4 -10 6 0 11 5 11 10 0 6 -2 10 -4 10 -3 0
-8 -4 -11 -10z"/>
<path d="M5230 6478 c0 -4 16 -8 35 -8 19 0 35 2 35 4 0 2 -16 6 -35 8 -19 2
-35 0 -35 -4z"/>
<path d="M4520 6461 c0 -5 7 -11 14 -14 10 -4 13 -1 9 9 -6 15 -23 19 -23 5z"/>
<path d="M4675 6460 c-3 -5 -1 -10 4 -10 6 0 11 5 11 10 0 6 -2 10 -4 10 -3 0
-8 -4 -11 -10z"/>
<path d="M5456 6245 c-3 -9 -6 -39 -6 -65 0 -35 -5 -52 -16 -58 -12 -7 -13
-11 -5 -16 21 -13 50 36 51 84 0 52 -13 82 -24 55z"/>
<path d="M5035 6200 c-4 -7 -1 -16 6 -21 17 -10 26 8 11 23 -6 6 -12 6 -17 -2z"/>
<path d="M5192 6188 c6 -18 28 -21 28 -4 0 9 -7 16 -16 16 -9 0 -14 -5 -12
-12z"/>
<path d="M5360 6190 c0 -5 7 -10 15 -10 8 0 15 5 15 10 0 6 -7 10 -15 10 -8 0
-15 -4 -15 -10z"/>
<path d="M4873 6166 c9 -7 17 -18 17 -25 0 -6 11 -11 25 -11 14 0 25 -4 25
-10 0 -5 8 -10 18 -10 15 1 15 2 -2 15 -11 8 -28 15 -37 15 -10 0 -21 9 -24
20 -3 11 -14 20 -23 20 -16 -1 -16 -2 1 -14z"/>
<path d="M5590 6176 c0 -2 7 -6 15 -10 8 -3 15 -1 15 4 0 6 -7 10 -15 10 -8 0
-15 -2 -15 -4z"/>
<path d="M5021 6144 c0 -11 3 -14 6 -6 3 7 2 16 -1 19 -3 4 -6 -2 -5 -13z"/>
<path d="M5235 6150 c3 -5 8 -10 11 -10 2 0 4 5 4 10 0 6 -5 10 -11 10 -5 0
-7 -4 -4 -10z"/>
<path d="M5535 6152 c-11 -11 -4 -22 14 -22 10 0 24 6 30 14 9 11 6 14 -13 14
-14 0 -28 -3 -31 -6z"/>
<path d="M5631 6156 c11 -9 69 -14 69 -6 0 6 -16 10 -37 10 -20 0 -34 -2 -32
-4z"/>
<path d="M4685 6140 c-3 -5 -1 -10 4 -10 6 0 11 5 11 10 0 6 -2 10 -4 10 -3 0
-8 -4 -11 -10z"/>
<path d="M5303 6133 c9 -2 23 -2 30 0 6 3 -1 5 -18 5 -16 0 -22 -2 -12 -5z"/>
<path d="M4423 6103 c-3 -10 -8 -22 -11 -27 -3 -5 0 -6 7 -2 6 4 18 3 25 -3
10 -8 13 -4 13 19 0 33 -23 42 -34 13z"/>
<path d="M4649 6103 c-13 -16 -12 -17 4 -4 9 7 17 15 17 17 0 8 -8 3 -21 -13z"/>
<path d="M4718 6113 c6 -2 18 -2 25 0 6 3 1 5 -13 5 -14 0 -19 -2 -12 -5z"/>
<path d="M5088 6113 c7 -3 16 -2 19 1 4 3 -2 6 -13 5 -11 0 -14 -3 -6 -6z"/>
<path d="M5146 6101 c12 -13 22 -17 28 -11 12 12 8 15 -22 25 -23 7 -23 6 -6
-14z"/>
<path d="M5521 6104 c0 -11 3 -14 6 -6 3 7 2 16 -1 19 -3 4 -6 -2 -5 -13z"/>
<path d="M5480 6089 c0 -26 12 -59 21 -59 14 0 10 33 -6 54 -11 14 -15 16 -15
5z"/>
<path d="M4500 6081 c0 -13 27 -21 45 -15 8 4 12 10 9 15 -7 12 -54 12 -54 0z"/>
<path d="M4990 6080 c0 -5 5 -10 11 -10 5 0 7 5 4 10 -3 6 -8 10 -11 10 -2 0
-4 -4 -4 -10z"/>
<path d="M4810 6070 c0 -5 7 -7 15 -4 8 4 15 8 15 10 0 2 -7 4 -15 4 -8 0 -15
-4 -15 -10z"/>
<path d="M5778 5883 c7 -3 16 -2 19 1 4 3 -2 6 -13 5 -11 0 -14 -3 -6 -6z"/>
<path d="M5712 5850 c0 -14 2 -19 5 -12 2 6 2 18 0 25 -3 6 -5 1 -5 -13z"/>
<path d="M5100 5850 l-35 -7 33 -2 c31 -1 36 -8 33 -43 -1 -10 3 -18 8 -18 6
0 11 14 11 30 0 17 0 33 1 37 1 11 -11 11 -51 3z"/>
<path d="M5630 5839 c0 -24 23 -21 28 4 2 10 -3 17 -12 17 -10 0 -16 -9 -16
-21z"/>
<path d="M4850 5830 c0 -5 12 -10 28 -10 21 0 24 2 12 10 -20 13 -40 13 -40 0z"/>
<path d="M4972 5829 c2 -6 8 -10 13 -10 5 0 11 4 13 10 2 6 -4 11 -13 11 -9 0
-15 -5 -13 -11z"/>
<path d="M5795 5830 c-3 -5 1 -10 9 -10 9 0 16 5 16 10 0 6 -4 10 -9 10 -6 0
-13 -4 -16 -10z"/>
<path d="M4972 5784 c-19 -21 4 -27 53 -15 37 8 38 9 10 10 -17 1 -35 5 -40
10 -6 6 -15 4 -23 -5z"/>
<path d="M5250 5790 c0 -5 4 -10 9 -10 6 0 13 5 16 10 3 6 -1 10 -9 10 -9 0
-16 -4 -16 -10z"/>
<path d="M2594 6532 c-33 -11 -74 -48 -74 -67 0 -14 7 -16 38 -12 118 18 142
19 142 9 0 -6 -39 -23 -87 -39 -49 -15 -88 -32 -88 -38 0 -5 21 -11 48 -13 28
-2 47 1 47 7 0 6 10 11 23 11 12 0 30 7 40 14 24 18 57 9 57 -16 0 -19 -4 -20
-49 -14 -32 4 -52 3 -56 -5 -5 -8 11 -9 56 -5 35 3 79 6 97 6 43 0 42 20 -3
54 -45 35 -44 45 4 43 37 -1 71 15 71 34 0 5 -14 9 -31 9 -17 0 -38 4 -48 9
-23 13 -160 22 -187 13z m165 -28 c10 -9 -10 -12 -95 -15 -68 -3 -90 -1 -87 8
3 6 17 13 31 15 29 4 144 -2 151 -8z"/>
<path d="M2761 5804 c0 -11 3 -14 6 -6 3 7 2 16 -1 19 -3 4 -6 -2 -5 -13z"/>
<path d="M2800 5723 c0 -6 8 -17 18 -24 16 -13 16 -13 2 6 -8 11 -16 22 -17
24 -2 2 -3 0 -3 -6z"/>
<path d="M2841 5664 c0 -11 3 -14 6 -6 3 7 2 16 -1 19 -3 4 -6 -2 -5 -13z"/>
<path d="M3266 4626 c-7 -29 2 -58 17 -53 15 5 15 69 1 74 -7 2 -14 -7 -18
-21z"/>
<path d="M3431 4384 c0 -11 3 -14 6 -6 3 7 2 16 -1 19 -3 4 -6 -2 -5 -13z"/>
<path d="M3370 4225 c0 -8 2 -15 4 -15 2 0 6 7 10 15 3 8 1 15 -4 15 -6 0 -10
-7 -10 -15z"/>
<path d="M3357 4183 c-4 -3 -7 -11 -7 -17 0 -6 5 -5 12 2 6 6 9 14 7 17 -3 3
-9 2 -12 -2z"/>
<path d="M3337 4137 c-11 -29 -9 -43 4 -30 6 6 9 19 7 29 -3 18 -4 18 -11 1z"/>
<path d="M3316 4075 c-3 -8 -1 -15 4 -15 6 0 10 7 10 15 0 8 -2 15 -4 15 -2 0
-6 -7 -10 -15z"/>
<path d="M3452 4080 c0 -14 2 -19 5 -12 2 6 2 18 0 25 -3 6 -5 1 -5 -13z"/>
<path d="M3451 3884 c0 -11 3 -14 6 -6 3 7 2 16 -1 19 -3 4 -6 -2 -5 -13z"/>
<path d="M6379 4122 c-32 -27 -19 -48 35 -55 88 -12 133 -52 145 -125 8 -45
37 -56 47 -17 15 61 -36 169 -96 200 -40 21 -103 19 -131 -3z m113 -16 c34
-15 69 -46 51 -46 -5 0 -28 9 -51 20 -22 11 -53 20 -67 20 -15 0 -24 4 -20 10
9 14 47 12 87 -4z"/>
<path d="M6090 4053 c0 -5 6 -15 13 -22 10 -10 9 -15 -5 -25 -23 -17 -23 -21
4 -46 24 -22 87 -27 106 -8 17 17 15 48 -2 48 -8 0 -18 -9 -21 -21 -5 -14 -14
-19 -28 -17 -19 3 -22 9 -22 48 0 39 -3 45 -22 48 -13 2 -23 -1 -23 -5z"/>
<path d="M6395 4050 c-3 -5 -1 -10 4 -10 6 0 11 5 11 10 0 6 -2 10 -4 10 -3 0
-8 -4 -11 -10z"/>
<path d="M6350 4020 c-13 -9 -12 -12 4 -25 11 -8 34 -15 51 -15 17 0 40 -8 51
-17 47 -42 94 -56 94 -28 0 8 -6 15 -13 15 -7 0 -32 16 -54 35 -43 37 -107 54
-133 35z"/>
<path d="M5918 3856 c-24 -18 -23 -26 3 -26 11 0 29 -10 39 -22 25 -32 33 -18
15 25 -16 39 -29 44 -57 23z"/>
<path d="M7388 3953 c6 -2 18 -2 25 0 6 3 1 5 -13 5 -14 0 -19 -2 -12 -5z"/>
<path d="M5660 3865 c0 -8 5 -15 10 -15 6 0 10 7 10 15 0 8 -4 15 -10 15 -5 0
-10 -7 -10 -15z"/>
<path d="M5691 3774 c0 -11 3 -14 6 -6 3 7 2 16 -1 19 -3 4 -6 -2 -5 -13z"/>
<path d="M5501 3654 c0 -11 3 -14 6 -6 3 7 2 16 -1 19 -3 4 -6 -2 -5 -13z"/>
<path d="M5200 2045 c0 -3 7 -17 17 -31 19 -30 39 -13 20 18 -11 16 -37 26
-37 13z"/>
<path d="M8333 4433 c9 -2 25 -2 35 0 9 3 1 5 -18 5 -19 0 -27 -2 -17 -5z"/>
<path d="M8218 4413 c6 -2 18 -2 25 0 6 3 1 5 -13 5 -14 0 -19 -2 -12 -5z"/>
<path d="M8168 4393 c7 -3 16 -2 19 1 4 3 -2 6 -13 5 -11 0 -14 -3 -6 -6z"/>
<path d="M585 2764 c-40 -9 -100 -26 -120 -34 -11 -4 -36 -13 -55 -20 -42 -15
-79 -29 -102 -41 -10 -5 -25 -9 -33 -9 -8 0 -23 -4 -33 -9 -31 -16 -66 -29
-147 -57 -82 -27 -103 -39 -93 -50 8 -8 141 37 200 67 10 5 25 9 33 9 8 0 23
4 33 9 23 12 60 26 102 41 19 7 44 16 55 21 105 45 267 65 315 39 11 -6 34
-31 51 -56 122 -178 373 -340 579 -375 124 -21 147 -26 182 -43 63 -30 61
-106 -4 -147 -30 -19 -41 -20 -123 -13 -225 20 -533 9 -815 -27 -194 -25 -241
-30 -330 -39 -52 -6 -137 -13 -187 -16 -139 -10 -117 -28 24 -21 136 7 285 23
573 61 219 29 447 39 584 27 249 -22 299 -12 344 67 16 29 15 45 -5 81 -23 39
-79 66 -168 80 -246 41 -447 151 -586 320 -108 134 -108 133 -185 137 -38 1
-78 1 -89 -2z"/>
<path d="M170 2445 c-85 -35 -159 -66 -165 -68 -6 -2 -7 -8 -2 -12 4 -5 82 21
174 58 91 36 170 64 175 61 5 -3 20 -23 33 -44 31 -50 65 -81 143 -131 39 -26
62 -48 62 -60 0 -26 -59 -82 -116 -110 -57 -27 -155 -37 -206 -20 -98 32 -268
30 -268 -5 0 -17 5 -17 30 -4 31 16 130 14 194 -5 42 -12 82 -16 140 -13 95 5
143 26 212 92 64 62 60 86 -26 138 -78 47 -134 100 -158 148 -12 25 -24 36
-42 37 -14 1 -95 -27 -180 -62z"/>
<path d="M2620 2299 c-125 -10 -205 -23 -350 -59 -25 -6 -57 -14 -73 -17 -15
-3 -30 -9 -33 -14 -3 -5 -15 -9 -28 -9 -12 0 -25 -3 -28 -6 -4 -3 -48 -20
-100 -38 -51 -18 -111 -41 -133 -50 -48 -22 -83 -36 -110 -46 -30 -11 -78 -31
-97 -41 -10 -5 -27 -9 -37 -9 -11 0 -23 -4 -26 -10 -3 -5 -15 -10 -26 -10 -10
0 -27 -4 -37 -9 -30 -15 -88 -31 -113 -31 -14 0 -29 -4 -34 -9 -6 -5 -28 -11
-50 -15 -22 -3 -71 -10 -110 -15 -203 -30 -394 -43 -775 -51 -228 -5 -425 -9
-437 -9 -14 -1 -23 -7 -23 -16 0 -13 13 -15 88 -11 48 3 222 8 387 11 453 9
705 34 965 96 19 4 49 11 65 14 17 4 39 10 50 14 11 5 52 18 90 30 71 22 84
27 145 53 19 8 96 39 170 67 74 29 143 56 152 62 10 5 27 9 37 9 11 0 22 4 25
9 3 5 20 11 38 14 18 3 53 11 78 17 161 40 235 50 424 56 152 6 161 5 205 -17
25 -13 48 -26 51 -30 39 -46 397 -239 444 -239 8 0 17 -4 20 -9 3 -5 16 -11
28 -14 13 -3 41 -11 63 -17 173 -49 262 -61 470 -65 218 -5 253 -9 237 -28
-11 -13 -63 -29 -159 -48 -63 -12 -223 -9 -483 10 -593 42 -598 42 -760 26
-210 -20 -247 -28 -570 -118 -262 -74 -292 -77 -586 -75 -251 1 -301 -3 -419
-34 -80 -21 -110 -31 -127 -39 -10 -5 -25 -9 -33 -9 -8 0 -23 -4 -33 -9 -16
-8 -43 -19 -94 -40 -81 -32 -229 -97 -343 -151 -237 -112 -360 -164 -475 -199
-41 -13 -83 -27 -92 -32 -10 -5 -27 -9 -38 -9 -11 0 -20 -4 -20 -10 0 -19 78
-6 132 21 10 5 23 9 30 9 7 0 54 16 103 35 119 46 127 50 348 154 71 34 130
61 132 61 2 0 39 16 82 35 100 46 127 57 196 84 12 4 33 13 47 19 14 5 45 15
70 22 25 7 54 16 65 20 11 4 47 13 80 20 33 6 79 16 102 21 23 5 155 9 294 9
140 0 280 5 313 11 62 11 276 62 331 79 17 5 48 14 70 20 22 6 56 16 75 21
125 36 192 47 363 61 145 11 414 2 702 -23 197 -17 515 -22 574 -9 79 17 161
50 161 65 0 6 -9 20 -21 31 -19 17 -39 19 -218 20 -181 1 -289 11 -367 35 -17
5 -42 9 -57 9 -14 0 -29 5 -32 10 -3 6 -19 10 -35 10 -16 0 -32 5 -35 10 -3 6
-15 10 -26 10 -10 0 -27 4 -37 9 -9 5 -28 13 -42 19 -102 40 -243 116 -342
183 -64 43 -123 79 -131 79 -7 0 -17 4 -22 9 -15 14 -167 20 -285 10z"/>
<path d="M2725 1661 c-24 -22 -179 -101 -280 -142 -113 -45 -371 -112 -540
-140 -33 -5 -82 -14 -110 -19 -82 -14 -220 -36 -377 -59 -69 -10 -139 -24
-318 -60 -89 -18 -343 -94 -405 -121 -11 -5 -81 -32 -155 -61 -74 -28 -151
-59 -170 -67 -19 -8 -45 -19 -57 -23 -13 -5 -35 -14 -50 -20 -16 -7 -39 -16
-53 -22 -14 -5 -34 -13 -45 -18 -11 -4 -38 -13 -60 -20 -22 -7 -44 -17 -49
-21 -6 -4 -20 -8 -33 -8 -13 0 -23 -6 -23 -13 0 -15 56 -11 66 4 3 5 14 9 25
9 10 0 27 4 37 9 18 9 64 29 97 41 73 28 317 125 352 141 24 10 47 19 53 19 6
0 18 4 28 9 23 12 60 26 102 41 19 7 44 16 55 20 11 4 40 13 65 20 25 7 56 16
70 21 65 21 384 84 550 109 41 6 98 15 125 20 28 5 68 12 90 15 97 13 105 14
315 56 113 22 210 45 250 58 14 5 45 14 70 22 25 7 49 16 55 21 5 4 15 8 22 8
23 0 164 66 266 123 102 59 126 35 61 -62 -53 -79 -132 -156 -279 -270 -71
-56 -137 -108 -145 -114 -8 -7 -31 -23 -50 -37 -19 -14 -42 -30 -50 -37 -8 -7
-53 -40 -100 -74 -47 -35 -112 -83 -145 -107 -33 -24 -199 -137 -369 -249
-170 -113 -316 -211 -325 -218 -165 -132 -252 -219 -391 -392 -45 -56 -44 -53
-24 -53 11 1 35 24 59 58 55 78 263 286 355 354 41 30 212 147 380 260 721
484 1074 769 1138 922 19 45 3 76 -41 76 -18 0 -37 -4 -42 -9z"/>
<path d="M3405 1598 c-35 -12 -74 -31 -165 -81 -36 -19 -112 -49 -170 -67
-238 -74 -257 -86 -396 -237 -173 -189 -303 -309 -508 -468 -22 -16 -73 -57
-115 -90 -197 -158 -425 -321 -551 -395 -171 -101 -255 -145 -377 -196 -60
-25 -112 -49 -117 -55 -13 -12 36 -12 50 0 5 4 41 20 79 35 74 29 281 135 327
167 14 11 29 19 32 19 7 0 202 127 246 160 19 15 100 75 180 135 363 272 593
474 805 706 56 62 116 109 175 137 20 9 135 45 255 80 11 3 45 19 75 35 30 16
65 34 77 41 13 6 23 14 23 19 0 4 9 7 19 7 11 0 21 5 23 11 3 8 33 12 80 13
73 1 77 0 102 -29 30 -35 30 -29 26 -207 -2 -125 8 -228 30 -318 5 -19 14 -57
21 -85 7 -27 37 -108 66 -179 56 -134 66 -199 43 -270 -5 -17 -21 -83 -35
-146 -14 -63 -38 -163 -52 -223 -14 -59 -23 -110 -20 -114 11 -10 19 3 28 44
24 110 69 298 93 386 32 117 21 205 -44 352 -79 179 -117 386 -106 578 10 166
-5 204 -93 234 -42 15 -64 15 -106 1z"/>
<path d="M8028 963 c6 -2 18 -2 25 0 6 3 1 5 -13 5 -14 0 -19 -2 -12 -5z"/>
<path d="M7938 943 c6 -2 18 -2 25 0 6 3 1 5 -13 5 -14 0 -19 -2 -12 -5z"/>
<path d="M7838 923 c6 -2 18 -2 25 0 6 3 1 5 -13 5 -14 0 -19 -2 -12 -5z"/>
<path d="M3214 764 c-65 -35 -125 -84 -206 -170 -130 -138 -205 -183 -533
-322 -60 -26 -384 -190 -414 -210 -14 -10 -38 -24 -53 -32 -16 -7 -28 -17 -28
-22 0 -17 30 -7 95 33 65 40 324 172 395 202 344 146 384 170 550 332 110 108
199 175 248 187 16 5 29 0 43 -15 19 -20 20 -31 15 -142 -6 -135 -14 -194 -45
-310 -26 -94 -51 -229 -51 -267 0 -17 5 -28 14 -28 10 0 15 20 18 72 3 40 19
129 36 198 49 203 52 226 52 351 0 114 -1 121 -25 144 -31 32 -50 31 -111 -1z"/>
<path d="M800 718 c-82 -17 -124 -29 -260 -74 -297 -98 -458 -144 -510 -144
-20 0 -30 -5 -30 -15 0 -16 12 -15 120 7 53 10 314 90 355 108 25 11 111 40
150 50 17 5 55 15 85 23 30 9 87 19 127 22 67 7 72 6 83 -15 13 -25 4 -176
-11 -186 -5 -3 -9 -13 -9 -23 0 -10 -28 -72 -62 -137 -152 -293 -170 -334
-144 -334 9 0 16 7 16 16 0 17 52 130 85 184 50 81 117 221 134 280 40 141 41
186 6 224 -26 28 -53 31 -135 14z"/>
<path d="M6128 563 c6 -2 18 -2 25 0 6 3 1 5 -13 5 -14 0 -19 -2 -12 -5z"/>
<path d="M6048 543 c7 -3 16 -2 19 1 4 3 -2 6 -13 5 -11 0 -14 -3 -6 -6z"/>
<path d="M5958 523 c6 -2 18 -2 25 0 6 3 1 5 -13 5 -14 0 -19 -2 -12 -5z"/>
<path d="M5873 503 c9 -2 23 -2 30 0 6 3 -1 5 -18 5 -16 0 -22 -2 -12 -5z"/>
<path d="M5788 483 c7 -3 16 -2 19 1 4 3 -2 6 -13 5 -11 0 -14 -3 -6 -6z"/>
<path d="M5698 463 c6 -2 18 -2 25 0 6 3 1 5 -13 5 -14 0 -19 -2 -12 -5z"/>
<path d="M4248 163 c6 -2 18 -2 25 0 6 3 1 5 -13 5 -14 0 -19 -2 -12 -5z"/>
<path d="M4178 143 c6 -2 18 -2 25 0 6 3 1 5 -13 5 -14 0 -19 -2 -12 -5z"/>
<path d="M4108 123 c7 -3 16 -2 19 1 4 3 -2 6 -13 5 -11 0 -14 -3 -6 -6z"/>
<path d="M4038 103 c7 -3 16 -2 19 1 4 3 -2 6 -13 5 -11 0 -14 -3 -6 -6z"/>
</g>
</svg>
