<?xml version="1.0" encoding="UTF-8" standalone="no"?>
<svg
   xmlns:dc="http://purl.org/dc/elements/1.1/"
   xmlns:cc="http://creativecommons.org/ns#"
   xmlns:rdf="http://www.w3.org/1999/02/22-rdf-syntax-ns#"
   xmlns:svg="http://www.w3.org/2000/svg"
   xmlns="http://www.w3.org/2000/svg"
   xmlns:sodipodi="http://sodipodi.sourceforge.net/DTD/sodipodi-0.dtd"
   xmlns:inkscape="http://www.inkscape.org/namespaces/inkscape"
   version="1.0"
   width="850.000000pt"
   height="850.000000pt"
   viewBox="0 0 850.000000 850.000000"
   preserveAspectRatio="xMidYMid meet"
   id="svg304"
   sodipodi:docname="bible62.svg"
   inkscape:version="0.92.2 5c3e80d, 2017-08-06">
  <defs
     id="defs308" />
  <sodipodi:namedview
     pagecolor="#ffffff"
     bordercolor="#666666"
     borderopacity="1"
     objecttolerance="10"
     gridtolerance="10"
     guidetolerance="10"
     inkscape:pageopacity="0"
     inkscape:pageshadow="2"
     inkscape:window-width="1920"
     inkscape:window-height="978"
     id="namedview306"
     showgrid="false"
     inkscape:zoom="0.41647059"
     inkscape:cx="463.35242"
     inkscape:cy="656.67768"
     inkscape:window-x="0"
     inkscape:window-y="1"
     inkscape:window-maximized="1"
     inkscape:current-layer="svg304" />
  <metadata
     id="metadata2">
Created by potrace 1.14, written by Peter Selinger 2001-2017
<rdf:RDF>
  <cc:Work
     rdf:about="">
    <dc:format>image/svg+xml</dc:format>
    <dc:type
       rdf:resource="http://purl.org/dc/dcmitype/StillImage" />
  </cc:Work>
</rdf:RDF>
</metadata>
  <g
     transform="translate(0.000000,850.000000) scale(0.100000,-0.100000)"
     fill="#000000"
     stroke="none"
     id="g302">
    <path
       d="M0 8250 l0 -250 33 0 c42 0 83 41 102 101 l14 44 0 -34 c1 -19 -8 -54 -19 -77 -17 -34 -27 -43 -55 -48 -19 -4 -35 -11 -35 -16 0 -5 18 -41 39 -82 22 -40 47 -103 55 -140 13 -58 40 -120 66 -153 4 -5 17 -27 29 -47 12 -21 30 -54 41 -73 23 -42 26 -88 6 -104 -19 -16 -153 -4 -181 15 -14 10 -15 14 -5 14 8 0 27 15 42 34 15 19 43 40 63 46 19 6 35 14 35 16 0 3 -13 24 -29 47 -45 66 -67 116 -95 211 -25 88 -61 161 -90 186 -14 11 -16 -16 -16 -272 l0 -284 57 -27 c74 -33 127 -47 179 -47 87 0 163 -47 206 -127 32 -58 44 -93 87 -259 6 -23 11 -84 11 -135 0 -100 -18 -171 -58 -226 -40 -55 -242 -240 -307 -281 -44 -28 -130 -62 -157 -62 -16 0 -18 -11 -18 -95 0 -52 3 -95 6 -95 3 0 18 8 32 19 50 35 137 85 266 151 103 54 131 73 143 99 9 17 38 51 64 75 82 74 190 96 269 56 26 -13 49 -18 69 -14 33 7 38 22 19 54 -17 26 -8 32 54 37 29 2 62 8 73 12 67 27 124 61 164 97 26 23 58 44 71 46 19 2 26 11 31 38 8 48 29 93 79 175 24 39 57 96 73 128 28 53 29 59 14 74 -21 21 -38 8 -55 -44 -30 -86 -51 -130 -100 -205 -84 -130 -224 -228 -375 -262 -151 -35 -254 -9 -245 60 2 20 15 33 52 53 61 33 102 83 156 191 23 47 46 93 51 102 5 10 9 27 9 37 0 11 4 23 10 26 5 3 10 19 10 35 0 16 4 32 10 35 6 3 10 19 10 35 0 16 5 32 10 35 6 3 10 19 10 35 0 16 4 31 9 34 5 3 11 20 14 38 15 91 30 137 65 192 54 89 82 153 82 191 0 14 5 25 10 25 6 0 10 -6 10 -12 -1 -25 -25 -103 -42 -135 -21 -42 -9 -43 68 -6 73 34 142 105 206 212 66 108 112 154 214 213 110 63 135 87 173 158 18 33 56 92 85 130 63 85 91 178 70 234 -9 23 -71 22 -78 -1 -18 -56 -160 -91 -231 -57 -21 9 -40 26 -43 36 -3 14 -8 15 -23 8 -16 -9 -39 -52 -102 -190 -50 -110 -159 -225 -252 -265 l-64 -28 -4 -121 c-5 -145 -13 -185 -61 -281 -37 -75 -74 -115 -107 -115 -18 0 -59 48 -59 69 0 6 -4 19 -9 29 -5 9 -14 37 -21 62 -6 25 -16 59 -21 76 -5 17 -9 47 -9 67 0 20 -5 37 -11 37 -20 0 1 -253 22 -266 5 -3 9 -14 9 -24 0 -11 10 -36 21 -57 18 -31 22 -55 22 -136 1 -63 -3 -101 -11 -109 -7 -7 -12 -20 -12 -29 0 -28 -81 -174 -144 -261 -60 -83 -109 -102 -120 -46 -2 13 -9 50 -15 83 -9 50 -57 142 -91 175 -18 17 -30 56 -30 95 0 42 -2 45 -27 46 -24 2 -25 2 -6 6 13 2 30 18 40 34 24 40 33 36 22 -8 -20 -85 -1 -173 36 -173 7 0 69 58 137 129 68 72 140 137 160 147 24 11 35 21 29 28 -32 41 -68 211 -74 346 -2 55 -2 55 -33 54 -32 -2 -100 -30 -121 -50 -7 -7 -13 -22 -13 -33 0 -45 -48 -6 -69 57 -23 65 -26 259 -6 349 22 99 71 204 130 276 l46 57 -144 0 -145 0 31 -57 c28 -51 32 -67 32 -134 0 -43 -6 -88 -12 -100 -12 -26 -27 -79 -62 -215 -14 -53 -14 -244 0 -280 19 -51 -6 -90 -104 -168 -21 -15 -37 -37 -37 -47 0 -10 -4 -19 -8 -19 -10 0 -32 60 -32 86 1 18 1 18 12 -1 6 -11 12 -21 14 -23 3 -4 33 21 87 70 44 41 46 50 27 154 -16 93 4 225 65 429 35 116 31 170 -16 248 l-34 56 -212 1 -213 0 0 -250z m167 -52 c-2 -18 -4 -6 -4 27 0 33 2 48 4 33 2 -15 2 -42 0 -60z m169 -284 c-4 -17 -21 -53 -39 -80 -30 -46 -32 -53 -32 -145 0 -54 -3 -95 -6 -93 -8 5 -21 81 -21 122 1 27 -3 32 -22 32 -13 0 -31 8 -40 19 -27 30 -56 117 -55 164 1 23 3 33 5 22 16 -79 46 -156 67 -173 16 -14 24 -8 69 48 44 55 67 110 70 164 l1 41 4 -45 c3 -24 2 -59 -1 -76z m841 24 c-3 -7 -5 -2 -5 12 0 14 2 19 5 13 2 -7 2 -19 0 -25z m0 -190 c-2 -13 -4 -5 -4 17 -1 22 1 32 4 23 2 -10 2 -28 0 -40z m-621 -353 l-15 -40 0 37 c-1 20 5 50 12 65 l12 28 3 -25 c1 -14 -4 -43 -12 -65z m-232 60 c3 -8 1 -15 -4 -15 -6 0 -10 7 -10 15 0 8 2 15 4 15 2 0 6 -7 10 -15z m67 -112 c13 -16 12 -17 -3 -4 -17 13 -22 21 -14 21 2 0 10 -8 17 -17z"
       id="path4"
       style="fill:#556b2f" />
    <path
       d="M729 8439 c-93 -138 -135 -250 -146 -395 -6 -80 8 -199 28 -236 10 -18 12 -17 41 7 33 28 91 55 117 55 10 0 26 6 36 14 18 13 19 15 3 33 -18 20 -58 90 -58 101 0 3 12 -11 27 -33 47 -70 63 -72 63 -7 1 48 20 135 33 148 4 4 7 -7 7 -24 0 -17 -4 -34 -10 -37 -12 -8 -13 -162 -1 -169 5 -3 63 21 129 53 l120 59 -9 44 c-19 90 -21 115 -10 122 7 5 11 -2 11 -16 0 -13 7 -43 16 -68 8 -24 13 -52 11 -62 -3 -10 -1 -21 4 -24 5 -3 9 2 9 10 0 8 8 14 18 14 32 -3 90 33 145 90 77 79 94 102 128 179 37 85 72 156 79 163 43 42 58 40 -358 40 l-391 0 -42 -61z m163 -291 c-7 -7 -12 -8 -12 -2 0 14 12 26 19 19 2 -3 -1 -11 -7 -17z"
       id="path6"
       style="fill:#2f4f4f" />
    <path
       d="M1600 8493 c1 -62 173 -71 226 -11 17 17 13 18 -104 18 -67 0 -122 -3 -122 -7z"
       id="path8"
       style="fill:#556b2f" />
    <path
       d="M1978 8428 c-6 -84 -26 -130 -99 -225 -26 -35 -56 -80 -65 -100 -10 -21 -28 -50 -42 -65 l-24 -26 28 -15 c52 -26 178 -51 254 -51 71 1 82 4 190 57 63 31 120 57 125 57 17 0 59 42 115 115 30 39 67 85 82 103 46 54 35 92 -59 190 -7 7 -13 18 -13 23 0 5 -100 9 -244 9 l-243 0 -5 -72z"
       id="path10"
       style="fill:#2f4f4f" />
    <path
       d="M2519 8472 c11 -16 27 -35 36 -42 23 -19 45 -65 45 -92 0 -20 -40 -92 -60 -108 -3 -3 -28 -33 -54 -68 -64 -84 -89 -108 -133 -128 -21 -9 -85 -39 -143 -67 -95 -46 -111 -50 -175 -50 -75 0 -145 13 -236 44 -30 10 -64 19 -75 19 -43 -1 -234 -130 -234 -159 0 -4 19 -14 43 -21 23 -7 56 -17 72 -22 17 -5 64 -12 105 -15 70 -5 78 -4 105 19 49 41 67 47 166 52 126 7 173 14 244 38 170 59 285 158 391 339 58 98 142 191 220 245 l57 39 -34 3 c-29 2 -42 -4 -77 -38 -24 -22 -49 -40 -58 -40 -19 0 -110 48 -125 66 -7 8 -30 14 -56 14 l-44 0 20 -28z"
       id="path12"
       style="fill:#556b2f" />
    <path
       d="M2630 8491 c0 -11 63 -41 87 -41 21 0 63 27 63 41 0 5 -34 9 -75 9 -41 0 -75 -4 -75 -9z"
       id="path14" />
    <path
       d="M2948 8492 c-1 -5 -30 -23 -63 -42 -88 -49 -182 -149 -248 -261 -69 -119 -139 -196 -231 -258 -127 -85 -242 -121 -383 -121 -102 0 -143 -11 -193 -52 -52 -42 -134 -38 -291 14 -30 10 -60 18 -66 18 -6 0 -33 -35 -59 -77 -63 -102 -127 -163 -211 -202 -139 -64 -137 -62 -154 -116 -9 -27 -29 -97 -44 -155 -15 -58 -30 -116 -35 -130 -4 -14 -13 -45 -20 -70 -17 -61 -21 -71 -71 -173 -48 -100 -99 -162 -164 -204 -52 -33 -56 -52 -16 -76 36 -21 99 -22 185 -2 190 44 327 156 416 342 22 44 40 85 40 90 0 6 7 24 15 40 14 29 12 63 -4 63 -4 0 -18 23 -31 50 -22 47 -26 50 -61 50 -50 0 -109 56 -109 104 0 24 3 27 10 16 5 -8 10 -25 10 -37 0 -30 46 -63 87 -63 28 0 33 3 29 18 -12 38 -21 139 -15 172 5 25 7 13 8 -42 0 -42 6 -80 11 -83 6 -3 10 -17 10 -30 0 -23 51 -130 73 -152 7 -7 27 -15 44 -19 30 -6 33 -4 52 37 10 24 24 64 31 89 6 25 15 58 20 73 7 24 5 32 -22 55 -39 34 -78 121 -77 170 0 35 2 33 18 -23 20 -71 32 -94 61 -120 22 -19 22 -19 36 0 10 13 14 48 14 114 0 53 5 103 10 111 14 20 7 -188 -8 -250 -12 -48 -24 -99 -42 -169 -14 -57 -11 -64 24 -46 15 8 33 15 38 15 5 0 35 18 68 40 57 38 112 111 139 183 14 36 29 34 23 -3 -3 -24 -1 -30 14 -30 14 0 11 -5 -13 -19 -17 -11 -35 -27 -41 -36 -35 -63 -190 -175 -242 -175 -24 0 -70 -45 -70 -69 0 -22 -67 -154 -81 -159 -5 -2 -9 -10 -9 -18 0 -8 -4 -14 -10 -14 -5 0 -10 -5 -10 -11 0 -6 -8 -23 -19 -37 -24 -35 -48 -130 -35 -140 5 -4 26 -14 47 -21 37 -12 40 -12 69 16 31 29 147 170 228 277 108 144 204 225 330 284 133 62 247 89 546 127 214 28 312 41 414 55 36 5 99 13 140 19 41 5 136 20 210 31 74 12 162 26 195 31 105 15 215 36 220 41 2 2 -16 31 -40 64 -82 108 -142 251 -117 276 7 7 17 -2 33 -33 29 -58 113 -154 166 -190 75 -52 113 -34 172 81 37 71 81 222 81 275 0 15 4 44 9 64 21 80 34 211 24 233 -6 13 -39 38 -74 57 -75 39 -168 107 -176 127 -4 12 -69 14 -408 14 -222 0 -405 -4 -407 -8z"
       id="path16"
       style="fill:#2f4f4f" />
    <path
       d="M3790 8494 c0 -15 160 -124 183 -124 5 0 23 -10 39 -22 l30 -21 -6 -86 c-3 -47 -10 -108 -15 -136 -5 -27 -14 -75 -20 -105 -28 -151 -49 -220 -93 -300 -46 -84 -64 -100 -114 -100 -38 0 -50 6 -104 56 -33 31 -68 69 -77 85 -19 31 -33 38 -33 15 0 -46 128 -216 163 -216 12 0 57 7 100 15 43 8 80 15 81 15 7 0 74 109 105 170 19 36 41 73 50 83 20 24 68 44 126 52 l45 7 0 -62 c0 -51 5 -68 28 -101 30 -43 50 -55 66 -39 7 7 6 14 -2 22 -17 17 -15 121 2 163 21 49 47 63 196 105 65 18 100 30 147 51 63 28 77 24 123 -31 24 -28 44 -49 46 -48 2 2 -3 22 -11 43 -8 22 -14 63 -15 91 0 43 4 54 23 67 40 28 102 91 150 154 27 35 67 74 90 88 73 42 128 115 87 115 -10 0 -21 -9 -25 -19 -16 -50 -135 -134 -165 -116 -5 3 -10 27 -9 53 1 45 1 46 9 14 4 -18 10 -35 13 -38 11 -11 50 8 88 43 61 55 54 63 -55 63 l-95 0 1 -82 c1 -97 -15 -139 -82 -205 -73 -72 -215 -133 -310 -133 -62 0 -69 15 -70 138 0 152 -16 129 -40 -58 -14 -107 -18 -120 -38 -120 -10 0 -22 -4 -27 -8 -6 -5 -30 -15 -55 -22 -25 -8 -49 -17 -55 -20 -19 -14 -113 -20 -139 -10 -22 8 -25 13 -17 29 14 25 29 162 37 344 l7 147 -30 0 c-24 0 -32 -5 -37 -25 -4 -14 -17 -32 -29 -40 -21 -13 -30 -13 -90 6 -36 12 -75 30 -86 40 -18 17 -91 28 -91 13z"
       id="path18"
       style="fill:#556b2f" />
    <path
       d="M3900 8495 c0 -7 45 -25 90 -36 45 -11 70 -3 70 22 0 17 -8 19 -80 19 -44 0 -80 -2 -80 -5z"
       id="path20" />
    <path
       d="M4173 8458 c6 -44 -17 -381 -29 -430 -6 -27 -5 -28 39 -28 25 0 59 5 74 11 15 6 39 16 53 21 14 6 33 14 42 19 10 5 24 9 31 9 9 0 17 29 26 93 13 93 26 147 42 179 5 10 9 23 9 29 0 16 60 99 72 99 6 0 8 -12 4 -32 -4 -18 -11 -55 -17 -83 -18 -91 -22 -184 -9 -215 15 -37 40 -39 131 -9 138 45 229 113 265 198 14 34 19 118 8 159 l-6 22 -371 0 -370 0 6 -42z"
       id="path22"
       style="fill:#2f4f4f" />
    <path
       d="M5215 8468 c-23 -41 -71 -86 -121 -116 -22 -13 -56 -47 -77 -77 -21 -30 -65 -78 -98 -107 -34 -29 -65 -63 -70 -76 -11 -27 24 -143 51 -167 15 -13 22 -12 71 11 78 38 252 109 339 138 92 30 267 66 325 66 51 0 61 16 44 69 -18 56 -100 154 -167 201 -64 43 -21 33 54 -14 96 -59 118 -58 139 9 9 29 25 0 25 -48 0 -56 27 -104 82 -147 l48 -39 98 2 c62 1 131 -6 190 -18 79 -16 95 -17 102 -5 10 16 0 32 -54 90 -52 57 -87 132 -93 201 l-6 59 -431 0 -432 0 -19 -32z"
       id="path24"
       style="fill:#2f4f4f" />
    <path
       d="M6126 8448 c9 -71 43 -141 104 -213 87 -102 63 -137 -72 -106 -101 24 -243 37 -251 24 -4 -6 25 -15 66 -22 264 -44 496 -131 676 -254 39 -27 48 -29 100 -23 31 3 68 8 82 12 22 5 36 -3 82 -45 68 -60 109 -72 164 -45 25 13 46 34 62 62 26 48 49 45 31 -4 -25 -64 -84 -104 -155 -104 -25 0 -45 -3 -45 -7 0 -21 42 -73 71 -87 83 -41 232 -8 264 60 19 41 35 44 35 7 0 -17 -13 -38 -39 -63 l-38 -36 26 -12 c14 -7 53 -37 86 -67 54 -50 139 -95 179 -95 23 0 120 -52 164 -87 50 -41 81 -86 110 -163 48 -127 152 -318 221 -405 107 -135 128 -185 141 -330 5 -66 14 -147 20 -180 5 -33 7 -81 4 -107 -5 -40 -3 -51 19 -80 47 -61 77 -133 77 -183 0 -59 -17 -74 -82 -75 -39 0 -52 5 -77 31 l-31 31 0 -44 c1 -98 82 -187 172 -188 57 0 92 26 112 85 18 50 38 60 29 13 -10 -53 -30 -84 -69 -108 -29 -19 -45 -22 -90 -17 -46 5 -54 3 -54 -11 1 -25 33 -92 72 -148 32 -47 41 -64 67 -127 14 -35 14 -120 1 -161 -80 -248 -141 -418 -176 -495 -38 -82 -44 -103 -44 -161 0 -75 -13 -96 -52 -85 -92 26 -201 120 -287 249 -68 101 -84 137 -117 271 -40 167 -76 228 -183 313 -25 19 -25 20 -10 78 8 33 14 103 13 156 0 104 -14 138 -57 138 -16 0 -18 -5 -13 -27 16 -66 18 -126 6 -171 -28 -101 -77 -131 -151 -92 -39 20 -42 20 -55 3 -7 -10 -14 -21 -14 -24 0 -9 69 -37 125 -50 94 -23 157 -78 203 -178 14 -30 27 -73 30 -96 4 -37 1 -44 -23 -63 -34 -27 -125 -30 -186 -6 -35 15 -42 15 -55 2 -12 -12 -6 -16 48 -27 131 -26 269 -119 345 -231 16 -25 55 -95 86 -156 31 -60 72 -128 91 -150 35 -41 98 -78 148 -89 57 -11 68 -38 68 -157 0 -96 -3 -114 -27 -165 -23 -51 -27 -71 -28 -163 -1 -58 -5 -141 -9 -186 -10 -93 2 -130 60 -188 33 -33 111 -76 138 -76 16 0 29 -27 16 -35 -8 -5 -25 0 -99 32 -18 8 -51 31 -72 50 -22 20 -42 34 -44 31 -11 -11 9 -102 29 -131 33 -48 111 -76 214 -77 62 0 83 -3 80 -12 -10 -30 -171 -19 -259 16 -13 6 -16 -5 -17 -70 -1 -42 -6 -90 -11 -107 -5 -18 -15 -68 -20 -112 -24 -175 -16 -184 128 -139 48 15 15 -21 -50 -54 -35 -18 -65 -36 -66 -40 -2 -4 9 -20 23 -37 35 -41 99 -151 124 -215 24 -60 42 -126 70 -245 29 -124 36 -147 55 -190 26 -55 86 -143 126 -184 l34 -34 3 2361 2 2361 -26 26 c-34 35 -82 138 -95 209 -12 64 -7 110 22 205 24 80 24 124 -1 175 -19 39 -56 73 -67 62 -3 -3 0 -20 8 -38 8 -18 14 -61 14 -95 0 -51 -4 -66 -24 -87 -56 -59 -147 -19 -229 100 -38 56 -121 226 -116 239 3 7 15 18 27 24 31 17 78 93 104 171 19 55 22 88 23 215 0 217 -27 332 -101 431 -59 77 -61 146 -10 269 5 11 13 31 19 45 l11 25 0 -27 c1 -15 -3 -30 -9 -33 -5 -3 -10 -16 -10 -29 0 -12 -5 -27 -11 -33 -7 -7 -12 -43 -13 -80 -1 -61 2 -73 26 -101 22 -27 57 -92 88 -167 17 -40 30 -164 33 -305 2 -144 2 -146 -33 -238 -26 -71 -45 -103 -76 -134 -46 -46 -47 -52 -4 -133 15 -27 38 -70 51 -95 32 -60 96 -122 141 -138 32 -11 41 -11 63 4 22 15 25 23 25 80 0 45 -7 78 -21 109 -12 25 -19 48 -16 52 15 15 78 -10 106 -42 54 -62 63 -128 29 -226 -16 -46 -22 -88 -22 -149 0 -75 4 -93 31 -150 67 -142 62 -211 63 868 l0 972 -242 0 -243 0 -16 -28 c-20 -36 -79 -65 -115 -56 -14 4 -44 24 -67 45 -24 24 -50 39 -65 39 -23 0 -24 -1 -8 -22 95 -133 192 -288 242 -388 60 -121 76 -187 71 -297 -6 -121 -11 -143 -50 -223 -40 -80 -52 -88 -103 -65 -363 162 -410 194 -550 381 -47 63 -102 127 -122 142 -95 73 -95 73 -93 139 3 103 -28 194 -98 285 l-36 47 -62 1 c-35 0 -63 -4 -63 -8 0 -4 20 -28 45 -52 25 -24 45 -50 45 -57 0 -7 4 -13 8 -13 12 0 52 -123 52 -161 0 -19 -7 -52 -14 -74 -13 -37 -13 -42 4 -60 10 -11 24 -33 30 -49 9 -25 8 -34 -8 -55 -38 -51 -114 -49 -227 5 -67 32 -108 54 -253 138 -35 20 -66 36 -69 36 -10 0 -129 84 -151 107 -26 26 -111 161 -133 211 -12 28 -19 32 -52 32 l-38 0 7 -52z"
       id="path26"
       style="fill:#556b2f" />
    <path
       d="M6220 8490 c0 -20 90 -161 137 -215 25 -29 93 -74 203 -135 52 -29 115 -64 140 -78 137 -78 195 -102 251 -102 86 0 104 38 47 97 -30 31 -31 34 -17 59 8 17 14 54 13 98 0 86 -23 136 -98 214 -28 29 -52 58 -54 63 -5 12 -622 12 -622 -1z"
       id="path28"
       style="fill:#2f4f4f" />
    <path
       d="M7030 8491 c0 -5 7 -14 16 -22 63 -52 113 -179 114 -286 0 -64 3 -74 22 -84 42 -23 121 -105 192 -199 119 -160 159 -192 381 -299 72 -34 138 -66 147 -72 54 -29 82 12 127 187 19 73 15 117 -22 249 -20 70 -93 206 -189 349 -51 77 -100 150 -108 163 l-15 23 -332 0 c-185 0 -333 -4 -333 -9z"
       id="path30"
       style="fill:#2f4f4f" />
    <path
       d="M7838 8470 c41 -38 89 -40 120 -7 12 13 22 26 22 30 0 4 -39 7 -87 7 l-88 -1 33 -29z"
       id="path32" />
    <path
       d="M4485 8340 c-3 -5 -1 -10 4 -10 6 0 11 5 11 10 0 6 -2 10 -4 10 -3 0 -8 -4 -11 -10z"
       id="path34" />
    <path
       d="M5675 8333 c-45 -10 -47 -12 -25 -35 30 -32 60 -93 60 -122 0 -29 16 -36 83 -36 l52 1 -44 41 c-56 53 -91 104 -91 134 0 13 -3 23 -7 23 -5 -1 -17 -3 -28 -6z"
       id="path36" />
    <path
       d="M5515 8071 c-183 -35 -317 -85 -625 -233 -223 -107 -374 -172 -495 -211 -120 -38 -256 -72 -390 -98 -33 -6 -80 -15 -105 -20 -25 -5 -173 -29 -330 -54 -157 -25 -294 -50 -305 -55 -62 -27 414 2 690 41 264 39 670 146 797 210 10 5 22 9 28 9 9 0 32 10 175 75 28 13 115 54 195 93 359 172 508 220 713 229 87 4 116 8 107 17 -7 7 -73 12 -183 13 -134 2 -194 -2 -272 -16z"
       id="path38"
       style="fill:#a0522d" />
    <path
       d="M4725 8011 c-6 -5 -39 -18 -75 -30 -101 -33 -122 -39 -165 -47 -101 -18 -138 -58 -139 -149 -1 -68 10 -105 32 -105 34 0 194 65 404 164 87 41 97 51 69 65 -10 6 -35 33 -55 61 -35 49 -52 59 -71 41z"
       id="path40"
       style="fill:#2f4f4f" />
    <path
       d="M5750 8004 c-155 -29 -312 -87 -585 -219 -391 -188 -662 -284 -988 -350 -147 -29 -392 -65 -451 -65 -49 0 -79 -15 -50 -24 144 -44 559 -57 769 -23 138 21 324 67 447 108 144 48 279 105 513 214 309 144 639 173 912 78 91 -31 203 -88 292 -149 20 -13 39 -24 44 -24 13 0 -69 112 -122 167 -134 137 -277 216 -471 262 -84 20 -261 34 -310 25z"
       id="path42"
       style="fill:#8b4513" />
    <path
       d="M6215 7981 c108 -49 134 -63 186 -98 138 -93 239 -206 320 -358 24 -44 45 -82 49 -85 3 -3 27 -31 53 -63 51 -64 97 -154 117 -232 7 -27 24 -73 36 -101 116 -257 92 -513 -67 -723 -22 -29 -38 -55 -35 -58 2 -3 28 3 56 12 104 35 199 167 252 350 19 69 23 103 22 240 0 136 -3 172 -22 239 -86 300 -313 578 -627 768 -33 20 -80 44 -105 53 -25 9 -54 20 -65 25 -11 4 -40 13 -65 20 -25 7 -58 16 -74 21 -54 17 -74 10 -31 -10z"
       id="path44"
       style="fill:#8b4513" />
    <path
       d="M1010 7927 c-47 -23 -100 -47 -119 -54 -26 -10 -32 -16 -26 -30 6 -16 11 -40 30 -153 4 -19 10 -44 15 -55 4 -11 14 -40 21 -65 14 -50 35 -80 55 -80 30 0 93 115 133 241 6 19 11 81 11 137 0 122 3 121 -120 59z"
       id="path46"
       style="fill:#556b2f" />
    <path
       d="M4145 7836 c-38 -17 -57 -38 -92 -106 -41 -77 -56 -102 -72 -123 -8 -9 -11 -20 -8 -24 6 -6 67 5 152 27 17 4 57 13 90 20 33 7 64 17 69 21 5 4 -3 22 -18 39 -28 34 -34 52 -38 115 -3 35 -6 40 -28 42 -14 2 -38 -3 -55 -11z"
       id="path48"
       style="fill:#2f4f4f" />
    <path
       d="M6783 7833 c-24 -2 -43 -7 -43 -11 0 -4 32 -34 71 -67 87 -74 205 -206 266 -299 62 -94 138 -257 155 -330 12 -54 17 -61 63 -91 96 -62 157 -150 188 -274 18 -70 48 -110 104 -136 45 -22 79 -12 99 27 15 28 15 39 4 82 -18 71 -44 115 -111 186 -32 35 -56 67 -53 72 9 14 44 -12 137 -104 95 -94 126 -164 136 -301 8 -113 14 -127 78 -182 22 -19 52 -59 67 -88 24 -49 34 -59 99 -92 39 -21 84 -46 99 -57 42 -29 50 -24 45 30 -6 64 -26 241 -37 325 -10 76 -42 140 -112 217 -22 25 -52 63 -67 85 -35 50 -155 295 -173 353 -31 102 -125 183 -260 227 -107 35 -121 43 -196 114 -69 65 -99 77 -169 66 -103 -15 -223 53 -223 128 0 26 -10 42 -50 80 -27 26 -55 46 -62 45 -7 -1 -32 -3 -55 -5z"
       id="path50"
       style="fill:#2f4f4f" />
    <path
       d="M5750 7713 c-127 -27 -250 -71 -405 -143 -212 -98 -292 -132 -431 -179 -67 -23 -129 -41 -138 -41 -9 0 -16 -4 -16 -10 0 -27 245 18 490 91 375 111 483 136 659 154 270 28 542 -40 760 -188 24 -16 74 -59 112 -95 38 -35 69 -59 69 -52 0 23 -87 136 -150 193 -147 137 -341 235 -539 272 -95 19 -322 18 -411 -2z"
       id="path52"
       style="fill:#a0522d" />
    <path
       d="M5920 7544 c-152 -17 -268 -44 -610 -142 -349 -99 -429 -114 -658 -117 -97 -1 -258 -11 -356 -21 -170 -17 -188 -17 -350 -1 -94 9 -184 19 -201 22 l-30 7 28 -16 c27 -15 157 -60 242 -85 86 -24 246 -50 380 -61 206 -17 423 3 685 61 25 6 61 14 80 19 140 37 390 94 506 115 168 32 415 44 546 26 320 -43 538 -199 617 -440 31 -96 30 -282 -4 -412 -13 -54 -32 -116 -41 -139 -17 -42 -17 -43 7 -61 13 -10 32 -19 41 -19 23 0 100 99 137 175 88 184 80 420 -21 605 -120 221 -354 388 -641 459 -83 20 -278 34 -357 25z"
       id="path54"
       style="fill:#8b4513" />
    <path
       d="M205 7448 c-70 -25 -74 -54 -9 -64 59 -8 84 11 66 51 -13 28 -14 28 -57 13z"
       id="path56" />
    <path
       d="M724 7248 l-142 -141 23 -46 c31 -61 45 -109 45 -154 0 -29 4 -37 18 -37 37 0 111 105 195 275 11 22 23 48 28 57 5 10 9 29 9 42 0 14 5 37 10 52 13 34 -4 94 -28 94 -8 0 -80 -64 -158 -142z"
       id="path58"
       style="fill:#2f4f4f" />
    <path
       d="M0 7045 c0 -173 2 -315 5 -315 2 0 18 20 34 44 67 96 155 164 276 212 77 30 145 69 145 83 0 19 -42 107 -66 138 -35 46 -69 61 -179 77 -67 10 -116 24 -156 45 l-59 30 0 -314z"
       id="path60"
       style="fill:#2f4f4f" />
    <path
       d="M2950 7349 c0 -3 46 -19 103 -34 56 -15 120 -33 142 -40 22 -7 74 -22 115 -34 101 -30 397 -126 600 -195 214 -73 214 -73 290 -91 189 -45 335 -54 491 -31 114 18 137 23 409 84 243 55 426 80 661 89 332 13 556 -51 723 -206 l39 -36 -7 30 c-32 147 -219 337 -379 387 -124 38 -274 49 -393 28 -156 -28 -193 -36 -614 -136 -268 -63 -419 -83 -625 -83 -319 0 -623 70 -910 210 l-120 58 -263 3 c-144 2 -262 0 -262 -3z"
       id="path62"
       style="fill:#a0522d" />
    <path
       d="M2760 7333 c-14 -1 -62 -7 -107 -13 -202 -25 -253 -32 -340 -46 -238 -38 -389 -102 -511 -217 -53 -49 -115 -118 -110 -122 2 -2 37 21 78 52 231 170 487 253 780 253 116 0 164 -5 320 -31 180 -31 413 -109 651 -217 35 -17 91 -42 124 -57 102 -46 196 -65 322 -65 111 0 253 16 253 29 0 4 -25 12 -56 20 -63 14 -198 58 -464 149 -245 85 -531 171 -765 232 -38 10 -77 20 -85 23 -27 9 -65 14 -90 10z"
       id="path64"
       style="fill:#8b4513" />
    <path
       d="M6220 7292 c0 -4 21 -18 47 -32 58 -31 153 -118 204 -187 22 -30 55 -60 76 -70 80 -37 159 -142 177 -232 9 -50 -15 -25 -38 38 -10 28 -31 68 -46 90 -31 43 -97 97 -107 88 -3 -3 2 -25 12 -49 19 -48 45 -141 45 -164 0 -8 9 -33 19 -57 21 -46 29 -74 62 -219 21 -95 33 -127 43 -117 3 3 17 48 31 99 34 126 44 291 22 376 -51 199 -199 345 -417 412 -79 25 -130 34 -130 24z"
       id="path66"
       style="fill:#8b4513" />
    <path
       d="M2420 7189 c-277 -27 -503 -127 -742 -332 -97 -82 -218 -202 -218 -215 0 -5 21 -12 48 -15 26 -3 72 -9 104 -13 81 -10 102 -1 133 52 60 102 223 234 385 311 102 49 130 57 142 45 7 -7 -24 -28 -109 -70 -66 -32 -147 -77 -180 -100 -75 -51 -225 -191 -217 -203 7 -12 37 4 234 124 474 288 461 282 670 282 188 -1 278 -24 510 -133 114 -53 524 -190 694 -231 169 -42 262 -52 454 -52 158 0 274 9 422 32 127 19 448 83 605 119 575 134 835 133 1042 -1 80 -53 123 -103 178 -214 49 -98 55 -92 25 29 -27 105 -63 169 -135 241 -147 146 -339 208 -635 208 -256 -1 -496 -35 -875 -123 -44 -10 -105 -23 -135 -29 -30 -6 -68 -13 -85 -16 -16 -4 -124 -10 -240 -15 -115 -4 -246 -15 -290 -23 -228 -43 -414 -27 -586 51 -24 11 -80 37 -124 57 -293 134 -564 213 -815 235 -127 11 -138 11 -260 -1z"
       id="path68"
       style="fill:#a0522d" />
    <path
       d="M395 6991 c-38 -20 -97 -47 -130 -61 -68 -27 -174 -126 -220 -204 -15 -25 -31 -46 -36 -46 -5 0 -9 -93 -9 -215 l0 -214 33 6 c47 9 127 47 166 80 77 62 209 184 240 220 66 77 91 183 72 300 -13 84 -31 154 -40 164 -3 3 -37 -10 -76 -30z"
       id="path70"
       style="fill:#2f4f4f" />
    <path
       d="M2540 7005 c-89 -20 -144 -45 -279 -127 -360 -218 -463 -278 -505 -292 -55 -19 -121 -20 -232 -5 -99 14 -118 10 -169 -36 l-40 -35 175 6 c103 4 237 2 325 -5 l150 -12 20 27 c89 121 121 157 194 216 185 149 385 207 714 208 105 1 101 8 -23 39 -113 29 -246 35 -330 16z"
       id="path72"
       style="fill:#8b4513" />
    <path
       d="M7257 6838 c-3 -84 -8 -169 -11 -188 -6 -33 -4 -37 45 -70 28 -19 71 -64 97 -100 l47 -64 6 29 c11 50 10 195 -2 264 -16 92 -59 181 -113 235 -25 25 -50 46 -55 46 -5 0 -12 -68 -14 -152z"
       id="path74"
       style="fill:#8b4513" />
    <path
       d="M2770 6894 c-42 -8 -83 -26 -126 -56 -55 -36 -74 -91 -74 -207 0 -140 44 -235 190 -416 120 -148 200 -296 238 -440 6 -22 17 -62 24 -90 18 -69 15 -505 -4 -517 -27 -17 -33 2 -40 118 -8 146 -39 285 -80 361 -36 69 -41 73 -93 73 -61 1 -196 37 -285 77 -19 8 -106 51 -194 95 -87 44 -160 77 -162 75 -3 -2 21 -23 53 -47 89 -66 232 -216 295 -310 157 -236 218 -451 204 -726 -7 -155 -14 -202 -70 -524 -40 -226 -59 -461 -52 -630 3 -80 9 -162 12 -182 l6 -37 57 43 c31 24 89 65 129 91 57 38 72 53 72 73 0 38 22 112 51 176 10 20 8 29 -8 53 -42 60 -30 90 15 38 27 -31 42 -31 71 -1 17 18 25 45 35 122 19 150 43 187 182 283 96 67 96 67 98 466 1 229 -3 343 -13 400 -48 286 -54 315 -91 447 -38 133 -62 191 -149 364 -38 77 -77 166 -87 199 -20 70 -22 172 -5 232 17 63 70 134 125 168 46 28 56 30 146 30 90 0 100 -2 145 -30 27 -17 69 -56 93 -88 41 -54 46 -58 76 -52 51 11 279 88 301 102 19 13 19 13 -2 13 -12 0 -32 4 -45 9 -13 5 -57 19 -98 31 -41 13 -163 51 -270 86 -235 77 -241 79 -310 94 -30 7 -68 17 -85 22 -34 10 -237 19 -275 12z"
       id="path76"
       style="fill:#a9a9a9" />
    <path
       d="M2560 6880 c-14 -5 -51 -16 -82 -25 -70 -20 -174 -74 -242 -125 -88 -66 -218 -212 -199 -223 18 -10 218 16 313 41 77 20 109 54 129 136 16 67 43 115 85 155 50 48 49 58 -4 41z"
       id="path78"
       style="fill:#8b4513" />
    <path
       d="M5900 6834 c-128 -10 -260 -34 -550 -99 -107 -24 -222 -49 -255 -55 -33 -7 -78 -16 -100 -21 -22 -4 -83 -15 -135 -24 -52 -8 -108 -18 -125 -21 -67 -12 -326 -34 -405 -34 -59 0 -91 -5 -104 -15 -17 -13 -18 -15 -3 -15 24 0 21 -15 -11 -52 -67 -78 -143 -210 -129 -225 4 -3 25 6 47 21 52 34 95 32 123 -6 19 -25 19 -32 8 -95 -54 -308 -73 -434 -67 -449 4 -9 15 -14 28 -12 46 6 182 247 248 438 52 152 129 214 327 260 127 30 156 35 336 61 126 17 202 29 252 39 28 5 72 13 98 18 71 13 76 23 44 82 -49 90 -25 95 62 14 l60 -56 88 22 c126 31 273 37 365 15 40 -9 93 -27 118 -38 107 -49 373 -245 430 -317 78 -99 105 -244 76 -405 -25 -140 -78 -216 -185 -267 -61 -30 -73 -32 -171 -32 -112 0 -154 10 -285 67 -222 96 -307 92 -477 -24 -54 -37 -100 -72 -314 -239 -39 -30 -86 -66 -104 -80 -18 -14 -81 -63 -139 -108 -58 -46 -116 -88 -128 -93 -45 -17 -84 14 -103 80 l-7 26 -21 -35 c-38 -60 -25 -108 47 -173 49 -44 83 -54 119 -36 28 14 183 118 192 129 3 4 28 22 55 40 28 19 77 55 110 80 235 180 394 259 465 232 23 -8 19 -11 -35 -22 -114 -23 -175 -56 -392 -211 -270 -193 -363 -258 -398 -274 l-40 -18 40 -18 c28 -13 34 -19 19 -19 -12 0 -38 14 -59 30 -21 17 -53 40 -72 51 -52 32 -93 99 -93 151 0 36 6 50 30 73 17 16 30 37 30 48 0 15 3 17 14 8 10 -9 15 -8 19 1 10 26 207 263 305 366 19 21 14 32 -16 32 -56 0 -151 82 -197 170 -7 14 -19 53 -26 87 -16 76 0 160 35 194 21 20 23 29 19 83 -3 34 -13 69 -21 79 -22 25 -2 43 29 26 32 -16 39 -28 39 -65 0 -27 27 -129 47 -174 3 -8 5 -19 4 -23 -2 -10 50 -116 70 -143 8 -11 56 -57 107 -103 95 -86 116 -121 89 -148 -13 -14 -16 -13 -26 6 -16 28 -31 27 -31 -3 0 -34 -18 -42 -26 -11 -3 14 -10 25 -15 25 -33 0 -363 -390 -375 -442 -7 -33 17 -78 43 -78 13 0 99 58 139 95 6 6 64 51 128 100 65 50 175 134 244 189 337 262 412 282 660 177 153 -65 213 -81 305 -81 159 0 271 78 313 218 22 73 25 269 5 327 -32 93 -97 165 -246 274 -33 25 -76 56 -95 71 -19 15 -73 46 -120 69 -103 50 -188 66 -320 58 -101 -6 -240 -35 -240 -50 0 -5 18 -39 39 -75 53 -89 85 -178 110 -305 26 -129 28 -227 6 -227 -9 0 -20 11 -25 24 -4 13 -23 35 -40 48 -30 23 -36 39 -75 194 -43 170 -86 294 -109 313 -9 8 -29 7 -67 -3 -30 -7 -88 -19 -129 -25 -41 -7 -86 -14 -100 -17 -14 -3 -59 -9 -100 -15 -363 -50 -515 -91 -595 -161 -43 -38 -69 -83 -99 -172 -33 -96 -87 -208 -153 -317 -72 -118 -123 -148 -159 -94 -17 25 -17 17 16 215 53 313 52 310 35 337 -15 22 -17 23 -45 8 -50 -26 -120 -136 -120 -188 0 -16 3 -18 12 -9 7 7 16 12 20 12 14 0 8 -20 -18 -59 -31 -48 -56 -145 -41 -160 8 -8 4 -23 -12 -51 -30 -54 -44 -147 -26 -176 11 -16 11 -24 2 -33 -9 -9 -8 -14 3 -21 12 -7 9 -18 -14 -64 -15 -30 -26 -65 -24 -78 5 -25 3 -28 30 45 6 15 14 27 18 27 18 0 18 -34 0 -102 -10 -40 -18 -74 -16 -75 1 -1 27 16 57 38 58 44 75 53 183 95 l68 26 71 -21 c89 -26 110 -41 150 -99 18 -25 58 -76 90 -113 31 -37 57 -77 57 -88 0 -11 5 -23 10 -26 6 -3 10 -18 10 -32 0 -22 20 -67 71 -163 8 -14 38 -48 67 -76 l52 -50 0 -65 c0 -52 -5 -73 -29 -115 -40 -69 -69 -81 -222 -92 -126 -9 -186 -28 -218 -66 -17 -20 -16 -20 99 5 277 59 372 69 649 69 247 0 296 6 376 47 47 24 140 95 204 156 94 89 192 153 286 185 17 6 75 20 130 32 102 20 176 45 247 81 l39 20 -30 38 c-65 81 -256 247 -327 284 -30 15 -52 46 -36 48 48 8 129 6 146 -3 35 -18 158 -122 203 -171 23 -25 56 -70 73 -101 20 -35 36 -53 43 -49 7 3 73 47 147 97 170 114 255 197 301 291 31 65 34 77 34 170 0 108 -19 175 -75 260 -48 74 -55 96 -55 171 l0 73 -35 6 c-109 19 -179 89 -273 278 -45 90 -85 155 -117 190 -54 59 -141 111 -225 132 -56 15 -234 26 -315 19z m-1320 -343 c0 -5 -24 -20 -54 -35 -29 -14 -74 -44 -98 -66 l-45 -39 -6 -98 c-9 -135 -47 -275 -117 -429 -22 -48 -47 -71 -35 -33 4 13 16 44 27 69 32 72 36 82 57 145 28 86 41 157 48 263 l6 93 48 43 c26 23 71 55 101 69 57 29 68 32 68 18z m709 -253 c23 -12 41 -25 41 -30 0 -4 5 -8 10 -8 12 0 56 -36 126 -105 81 -78 93 -159 38 -246 -14 -23 -35 -41 -51 -45 -15 -4 -38 -13 -52 -20 -33 -17 -37 -12 -18 29 17 35 13 71 -12 114 -8 14 -10 9 -11 -30 0 -61 -16 -77 -74 -77 -52 0 -78 12 -118 54 -40 40 -35 41 20 2 57 -41 109 -53 137 -32 29 21 28 135 -2 191 -27 51 -92 125 -137 156 -34 22 -45 47 -29 62 14 15 93 6 132 -15z m-393 -103 c-14 -14 -28 -25 -32 -25 -4 0 3 11 16 25 13 14 27 25 32 25 5 0 -2 -11 -16 -25z m-59 -97 c-3 -8 -6 -5 -6 6 -1 11 2 17 5 13 3 -3 4 -12 1 -19z m-20 -145 c-2 -21 -4 -4 -4 37 0 41 2 58 4 38 2 -21 2 -55 0 -75z m20 -95 c-2 -13 -4 -5 -4 17 -1 22 1 32 4 23 2 -10 2 -28 0 -40z m20 -140 c-2 -18 -4 -4 -4 32 0 36 2 50 4 33 2 -18 2 -48 0 -65z m-449 -135 c-10 -2 -28 -2 -40 0 -13 2 -5 4 17 4 22 1 32 -1 23 -4z m325 0 c-7 -2 -19 -2 -25 0 -7 3 -2 5 12 5 14 0 19 -2 13 -5z m-100 -20 c-13 -2 -35 -2 -50 0 -16 2 -5 4 22 4 28 0 40 -2 28 -4z m142 -113 c4 -6 -6 -10 -23 -10 -33 0 -57 -23 -67 -62 -4 -16 -12 -28 -17 -28 -17 0 0 62 24 87 22 24 72 31 83 13z m18 -137 c-7 -2 -21 -2 -30 0 -10 3 -4 5 12 5 17 0 24 -2 18 -5z m818 -5 c27 -23 65 -82 82 -128 9 -25 42 -73 72 -107 63 -71 77 -113 25 -81 -15 10 -22 10 -32 0 -14 -14 -88 -17 -88 -3 0 4 18 8 40 8 22 0 44 3 47 7 4 3 -16 28 -44 54 -28 26 -64 74 -81 107 -16 33 -42 71 -56 84 -30 28 -33 41 -10 41 10 0 14 6 10 15 -7 18 14 20 35 3z m-71 -16 c0 -5 -15 -15 -32 -23 -29 -12 -33 -18 -32 -52 2 -45 18 -67 36 -49 23 23 60 13 99 -28 59 -62 63 -74 34 -106 -32 -35 -66 -27 -119 29 -57 60 -107 177 -76 177 6 0 10 6 10 14 0 8 10 22 22 30 24 17 58 21 58 8z m387 -52 c31 -27 69 -52 84 -55 40 -9 45 -23 13 -35 -15 -6 -39 -22 -53 -36 -33 -33 -78 -56 -99 -52 -13 3 -8 13 26 47 23 24 42 45 42 47 0 1 -18 24 -40 50 -35 43 -52 84 -34 84 3 0 31 -22 61 -50z"
       id="path80"
       style="fill:#ffebcd" />
    <path
       d="M5182 6241 c-10 -6 -6 -14 15 -32 102 -89 160 -159 207 -252 52 -103 71 -117 100 -75 24 34 20 104 -9 154 -20 33 -140 140 -220 195 -18 12 -80 19 -93 10z"
       id="path82"
       style="fill:#8b4513" />
    <path
       d="M7720 6712 c0 -74 -17 -106 -65 -122 -36 -12 -91 4 -127 37 -10 9 -18 14 -19 12 -1 -2 -2 -31 -4 -64 -2 -64 6 -85 36 -85 23 0 106 -44 137 -73 14 -12 42 -49 64 -82 23 -33 58 -78 80 -101 34 -36 38 -44 29 -66 -11 -29 -19 -36 -76 -61 l-40 -18 99 6 c91 6 102 5 150 -19 69 -34 122 -88 153 -153 35 -73 92 -102 136 -69 28 21 23 52 -26 154 -29 60 -115 141 -198 184 -88 46 -105 61 -135 120 -13 26 -44 64 -68 84 -56 47 -76 95 -76 182 0 64 -17 142 -39 180 -8 13 -10 2 -11 -46z"
       id="path84"
       style="fill:#556b2f" />
    <path
       d="M3185 6663 c-113 -24 -194 -134 -195 -260 0 -95 18 -147 133 -383 89 -183 103 -222 156 -440 46 -193 66 -308 81 -480 7 -69 14 -127 17 -130 9 -9 -4 382 -15 430 -10 45 -20 92 -47 230 -12 65 -44 156 -162 460 -49 126 -56 162 -57 270 0 95 3 110 28 160 32 65 67 104 107 120 16 7 29 16 29 21 0 9 -39 10 -75 2z"
       id="path86"
       style="fill:#87cefa" />
    <path
       d="M1175 6598 c-67 -66 -159 -108 -237 -108 -39 0 -48 -3 -48 -17 1 -41 12 -44 101 -24 46 11 108 24 138 30 52 11 168 79 206 121 16 17 15 19 -4 29 -11 6 -41 10 -68 10 -42 -1 -53 -7 -88 -41z"
       id="path88"
       style="fill:#2f4f4f" />
    <path
       d="M2510 6606 c0 -22 -83 -91 -126 -104 -21 -6 -79 -19 -131 -29 -51 -9 -93 -20 -93 -23 0 -4 37 -21 83 -38 224 -86 438 -264 584 -489 56 -86 143 -270 143 -303 0 -10 5 -22 10 -25 6 -3 11 -18 11 -33 2 -23 2 -24 6 -5 6 29 -21 173 -48 254 -11 35 -39 100 -61 145 -37 75 -68 120 -209 305 -86 113 -133 212 -145 299 -6 46 -24 81 -24 46z"
       id="path90"
       style="fill:#a0522d" />
    <path
       d="M3275 6603 c-35 -9 -66 -35 -91 -79 -14 -24 -23 -48 -19 -54 3 -5 23 -8 43 -6 135 17 220 30 235 38 18 9 18 11 -5 35 -50 54 -111 79 -163 66z"
       id="path92"
       style="fill:#87cefa" />
    <path
       d="M3930 6596 c-187 -71 -347 -122 -465 -146 -85 -17 -238 -39 -277 -40 -48 0 -55 -22 -38 -117 14 -83 19 -100 115 -343 77 -195 88 -226 107 -330 5 -30 13 -73 18 -95 33 -167 40 -223 40 -345 0 -206 -42 -576 -75 -662 -13 -32 7 -19 89 60 78 75 181 142 239 156 34 8 34 18 -2 92 -109 228 -100 364 43 666 25 53 46 102 46 108 0 13 -17 13 -26 -1 -13 -22 -96 -49 -149 -49 -46 0 -60 5 -89 30 -63 56 -116 259 -116 446 0 137 16 181 95 259 80 81 128 99 265 99 106 1 118 -1 150 -23 19 -14 39 -31 43 -38 13 -21 27 -15 38 15 27 72 69 140 117 191 28 30 52 56 52 57 0 4 -57 13 -120 18 -43 4 -77 1 -100 -8z"
       id="path94"
       style="fill:#deb887" />
    <path
       d="M7204 6523 c-31 -77 -56 -123 -91 -168 -19 -25 -33 -48 -31 -49 1 -1 28 -15 60 -29 122 -59 198 -198 214 -389 6 -64 9 -77 19 -66 41 43 69 328 45 451 -13 69 -58 168 -92 207 -26 29 -91 80 -102 80 -4 0 -14 -17 -22 -37z"
       id="path96"
       style="fill:#8b4513" />
    <path
       d="M1385 6459 c-469 -46 -869 -179 -1267 -422 l-117 -72 -1 -123 c0 -136 -4 -132 65 -77 193 154 524 334 780 424 50 18 101 37 115 42 78 28 272 72 445 100 109 18 468 18 560 0 299 -59 527 -176 739 -380 67 -66 94 -86 83 -66 -51 101 -220 276 -352 365 -260 175 -635 250 -1050 209z"
       id="path98"
       style="fill:#778899" />
    <path
       d="M7495 6433 c-4 -21 -11 -60 -17 -88 -7 -35 -7 -68 1 -109 29 -155 -5 -348 -94 -531 -24 -49 -54 -124 -68 -165 -14 -41 -31 -90 -38 -108 -13 -31 -12 -34 11 -52 35 -27 76 -26 95 4 24 36 34 123 23 186 -16 89 -15 95 10 98 12 2 38 -2 57 -8 26 -9 37 -20 46 -48 17 -51 17 -185 0 -256 -14 -56 -14 -59 6 -75 56 -44 71 -58 90 -86 48 -70 65 -111 95 -230 40 -163 110 -289 222 -398 61 -60 133 -107 162 -107 11 0 14 16 14 68 0 57 5 79 34 138 46 93 68 149 133 344 49 145 56 175 56 245 0 90 -12 126 -68 200 -42 55 -75 126 -75 162 0 13 -15 44 -34 67 -48 58 -58 89 -58 183 1 78 -1 82 -34 121 -19 22 -58 52 -86 66 -49 24 -59 26 -138 20 -98 -8 -188 10 -279 54 -63 31 -53 40 21 18 94 -26 140 -29 185 -11 54 22 62 45 27 82 -14 15 -45 57 -69 93 -51 79 -74 101 -141 134 -70 35 -82 34 -89 -11z"
       id="path100"
       style="fill:#2f4f4f" />
    <path
       d="M4098 6433 c-15 -15 -38 -50 -51 -78 -27 -54 -62 -164 -54 -171 2 -3 18 11 36 31 22 25 31 46 31 70 0 32 16 69 56 130 24 37 12 49 -18 18z"
       id="path102"
       style="fill:#8b4513" />
    <path
       d="M628 6410 c-15 -4 -43 -18 -62 -30 -36 -21 -90 -79 -83 -87 3 -2 40 10 83 28 44 17 105 40 137 50 78 25 87 32 57 40 -34 10 -99 9 -132 -1z"
       id="path104"
       style="fill:#2f4f4f" />
    <path
       d="M3612 6329 c-60 -23 -141 -98 -169 -157 -15 -30 -18 -60 -17 -160 1 -68 7 -145 14 -170 26 -105 32 -128 41 -144 5 -10 9 -24 9 -31 0 -7 13 -28 28 -47 26 -30 34 -34 80 -34 66 0 130 33 186 95 35 39 48 65 69 141 29 103 87 383 87 421 0 30 -32 73 -70 92 -44 23 -191 19 -258 -6z"
       id="path106"
       style="fill:#faf0e6" />
    <path
       d="M1420 6294 c-124 -17 -270 -47 -365 -74 -22 -6 -52 -14 -68 -17 -15 -3 -30 -9 -33 -14 -3 -5 -14 -9 -25 -9 -10 0 -27 -4 -37 -9 -9 -5 -55 -24 -102 -42 -229 -86 -598 -298 -730 -417 -14 -12 -33 -25 -42 -28 -16 -5 -18 -24 -18 -220 0 -123 4 -214 9 -214 5 0 11 3 13 8 3 7 84 81 143 132 240 204 652 444 947 551 152 55 248 72 408 72 227 0 435 -43 585 -121 91 -48 199 -156 292 -293 114 -167 166 -281 200 -433 20 -94 20 -347 -1 -481 -9 -55 -21 -131 -27 -170 -6 -38 -15 -97 -20 -130 -12 -79 -35 -258 -48 -370 -15 -132 -36 -623 -27 -632 4 -5 27 14 49 41 l42 49 -3 266 c-4 289 5 388 58 686 14 79 30 175 41 240 17 101 23 382 9 460 -43 248 -158 464 -350 655 -96 96 -190 163 -332 240 -54 28 -98 56 -98 61 0 16 62 10 135 -13 38 -12 158 -66 265 -119 282 -140 294 -145 410 -174 66 -17 120 -19 120 -4 0 5 -53 63 -117 128 -208 206 -419 325 -686 383 -124 27 -446 34 -597 12z"
       id="path108"
       style="fill:#a9a9a9" />
    <path
       d="M7096 6212 c58 -51 110 -135 133 -212 7 -25 17 -58 22 -74 5 -16 9 -74 9 -130 0 -198 -54 -355 -181 -527 -27 -37 -49 -69 -49 -73 0 -14 56 45 110 116 175 232 220 544 111 773 -43 89 -113 155 -163 155 -22 -1 -22 -1 8 -28z"
       id="path110"
       style="fill:#a0522d" />
    <path
       d="M6931 6194 c-31 -39 -27 -88 14 -164 101 -190 100 -187 103 -300 3 -88 0 -115 -17 -160 -12 -30 -21 -68 -21 -85 0 -43 -24 -125 -51 -181 -56 -111 -175 -194 -279 -194 -28 0 -50 4 -50 8 0 4 28 14 63 22 54 11 128 50 162 85 18 17 70 98 83 128 26 60 12 60 -50 1 -105 -101 -347 -264 -488 -330 -97 -46 -114 -51 -257 -83 -176 -39 -231 -70 -393 -217 -106 -95 -169 -138 -244 -165 -129 -45 -249 -119 -277 -171 -9 -16 -3 -28 39 -72 27 -29 53 -62 56 -74 11 -32 30 -27 44 12 52 143 258 315 557 465 253 127 402 185 663 261 79 22 169 52 199 66 75 33 188 148 280 285 109 163 147 284 146 464 0 93 -4 122 -27 189 -62 181 -193 288 -255 210z m100 -187 c44 -69 81 -149 95 -202 16 -59 19 -225 4 -225 -6 0 -10 34 -10 83 0 45 -7 106 -14 135 -16 60 -66 169 -96 212 -21 30 -25 40 -12 40 4 0 19 -19 33 -43z"
       id="path112"
       style="fill:#8b4513" />
    <path
       d="M4011 6148 c-37 -50 -60 -112 -61 -167 0 -21 3 -20 35 15 19 22 35 48 35 58 0 11 9 46 21 79 11 32 19 61 16 64 -3 2 -23 -20 -46 -49z"
       id="path114"
       style="fill:#8b4513" />
    <path
       d="M4956 6003 c-4 -37 -3 -88 2 -113 8 -45 8 -45 45 -42 31 3 42 -2 67 -30 17 -18 42 -45 56 -59 30 -31 28 -59 -4 -75 l-22 -11 20 -18 c17 -15 27 -17 58 -9 64 16 48 61 -53 144 -17 14 -41 48 -54 75 -13 28 -32 63 -43 78 -11 16 -26 49 -32 75 -18 69 -33 63 -40 -15z"
       id="path116"
       style="fill:#000080" />
    <path
       d="M3961 5929 c-28 -34 -71 -138 -71 -174 0 -5 22 13 50 40 35 35 51 59 55 85 3 19 8 47 10 63 6 37 -4 34 -44 -14z"
       id="path118"
       style="fill:#8b4513" />
    <path
       d="M1380 5953 c-224 -34 -519 -160 -830 -353 -160 -100 -282 -190 -432 -322 l-117 -103 0 -280 0 -280 45 50 c101 111 188 263 289 502 43 103 97 197 142 248 31 35 132 114 173 135 61 31 183 69 272 85 101 18 288 19 344 2 96 -29 174 -104 217 -209 19 -47 22 -71 21 -213 0 -184 -5 -208 -117 -545 -94 -284 -102 -325 -101 -515 1 -190 15 -252 119 -527 155 -405 187 -554 154 -710 -23 -109 -61 -152 -238 -270 -327 -219 -491 -454 -538 -770 -15 -94 -15 -120 -3 -205 26 -191 82 -312 204 -438 153 -157 297 -233 741 -391 220 -78 309 -122 374 -184 176 -169 121 -378 -164 -617 l-50 -42 425 0 425 -1 19 33 c56 97 100 247 94 322 -2 32 -8 42 -31 53 -37 18 -117 1 -214 -44 -40 -19 -108 -50 -150 -69 -43 -20 -117 -56 -164 -80 -95 -49 -139 -57 -139 -26 0 12 13 24 38 35 34 14 148 77 183 101 17 11 38 54 76 152 35 93 37 215 4 288 -40 90 -135 170 -241 203 -19 7 -78 16 -130 22 -232 26 -469 90 -656 179 -158 76 -362 222 -351 254 8 25 39 17 84 -22 133 -118 360 -233 569 -290 63 -17 86 -18 205 -10 321 22 487 128 371 238 -40 38 -76 52 -238 90 -104 25 -152 48 -241 115 -39 30 -88 64 -109 76 -47 24 -125 26 -204 5 -83 -22 -157 -20 -197 8 -18 12 -33 27 -33 34 0 6 -37 23 -83 37 -88 27 -195 93 -253 157 -17 19 -42 43 -57 54 -15 11 -36 39 -47 63 l-21 43 23 20 c57 49 308 157 417 180 231 48 336 49 611 9 170 -25 154 -26 194 16 82 87 118 212 118 410 -1 221 -46 408 -192 794 -69 179 -139 400 -166 515 -24 105 -28 141 -28 290 -1 181 5 220 56 390 65 217 96 333 107 400 42 256 28 484 -40 631 -38 81 -108 146 -214 195 -73 35 -262 91 -290 88 -5 -1 -21 -3 -35 -6z"
       id="path120"
       style="fill:#778899" />
    <path
       d="M1669 5940 c109 -48 170 -86 224 -143 66 -69 100 -156 122 -311 19 -128 19 -213 1 -356 -20 -155 -30 -198 -108 -450 -57 -186 -69 -256 -69 -410 0 -226 44 -412 191 -800 149 -393 200 -605 200 -825 0 -168 -30 -284 -99 -385 -23 -33 -41 -62 -41 -64 0 -2 33 -10 73 -16 39 -7 126 -23 192 -36 66 -12 121 -21 124 -19 5 5 -12 84 -59 285 -26 112 -27 113 -78 350 -78 359 -86 420 -85 675 0 219 2 243 42 505 39 256 71 471 91 615 24 162 32 291 26 415 -8 200 -43 340 -131 526 -113 242 -282 403 -455 434 -89 16 -190 22 -161 10z"
       id="path122"
       style="fill:#778899" />
    <path
       d="M2150 5794 c0 -6 7 -18 16 -25 26 -22 112 -154 154 -237 51 -100 105 -264 125 -377 37 -212 31 -350 -35 -780 -16 -104 -34 -224 -40 -265 -6 -41 -15 -102 -20 -135 -5 -33 -14 -91 -19 -130 -6 -38 -15 -103 -22 -144 -14 -91 -14 -460 0 -521 6 -25 11 -61 11 -80 0 -19 7 -46 15 -60 14 -24 14 -24 15 20 0 49 17 112 48 181 17 39 20 76 26 324 8 349 27 550 91 950 42 268 47 327 43 476 -8 226 -44 331 -186 549 -70 106 -221 279 -222 254z"
       id="path124"
       style="fill:#87cefa" />
    <path
       d="M3901 5716 c-28 -30 -51 -60 -51 -66 0 -6 -9 -30 -20 -52 -11 -23 -18 -43 -16 -45 2 -3 26 12 53 32 94 70 93 68 93 129 0 31 -2 56 -4 56 -2 0 -26 -24 -55 -54z"
       id="path126"
       style="fill:#8b4513" />
    <path
       d="M954 5596 c-174 -29 -305 -84 -398 -168 -72 -64 -120 -137 -170 -255 -69 -164 -110 -250 -152 -323 -53 -92 -127 -190 -180 -240 l-54 -51 0 -287 1 -287 49 53 c27 29 78 101 112 159 99 167 180 245 286 273 35 9 53 8 97 -5 93 -27 149 -93 175 -208 21 -91 3 -172 -85 -387 -77 -185 -90 -266 -58 -362 16 -51 40 -80 157 -188 57 -53 73 -81 81 -146 8 -61 -15 -164 -54 -238 -15 -28 -98 -155 -183 -281 -254 -376 -329 -558 -327 -790 0 -96 16 -205 32 -221 4 -4 7 -16 7 -26 0 -10 4 -26 9 -36 4 -9 34 -69 65 -134 31 -64 88 -165 128 -225 262 -398 344 -567 368 -769 24 -199 -21 -309 -166 -401 l-76 -48 591 -3 591 -2 93 72 c165 129 248 238 263 348 14 105 -62 213 -196 279 -82 41 -110 52 -352 140 -227 82 -404 165 -508 239 -60 43 -182 158 -222 209 -38 49 -98 173 -118 243 -31 107 -38 289 -16 401 34 167 93 297 202 443 81 107 196 208 369 324 191 128 217 177 201 381 -9 114 -43 243 -111 426 -158 420 -167 454 -169 640 -1 127 10 219 34 295 4 14 13 45 20 70 8 25 38 119 67 210 91 278 108 355 107 505 0 110 -3 138 -21 184 -41 101 -86 146 -175 179 -57 20 -213 24 -314 8z"
       id="path128"
       style="fill:#a9a9a9" />
    <path
       d="M3825 5513 c-91 -91 -172 -284 -163 -388 l3 -40 18 32 c9 18 41 60 71 92 43 49 55 71 65 117 6 32 11 68 11 80 0 12 16 53 35 90 19 37 35 68 35 70 0 14 -25 -4 -75 -53z"
       id="path130"
       style="fill:#8b4513" />
    <path
       d="M3882 5436 c-27 -44 -33 -62 -30 -100 l3 -46 29 23 c24 19 30 35 40 100 15 94 4 100 -42 23z"
       id="path132"
       style="fill:#d2b48c" />
    <path
       d="M4275 5459 c-172 -27 -272 -112 -367 -309 -85 -179 -98 -202 -124 -231 -13 -14 -24 -28 -24 -32 0 -13 30 -7 69 12 53 27 95 79 138 169 62 130 96 163 197 193 27 8 68 31 93 53 85 74 148 70 237 -19 57 -56 116 -88 116 -63 0 5 -18 30 -39 56 -22 26 -55 67 -73 92 -52 70 -122 95 -223 79z"
       id="path134"
       style="fill:#a0522d" />
    <path
       d="M4304 5318 c-16 -12 -31 -25 -34 -28 -16 -19 -72 -49 -115 -64 -64 -21 -91 -39 -111 -78 -16 -32 -12 -50 8 -30 14 14 128 16 128 3 0 -5 -18 -16 -39 -25 -39 -15 -74 -45 -92 -78 -9 -16 -4 -17 51 -11 66 7 80 -6 33 -31 -19 -10 -22 -15 -11 -16 11 0 18 -10 20 -27 l3 -28 19 22 c44 49 62 -16 26 -94 -16 -36 -17 -43 -4 -43 8 0 25 7 38 16 17 10 26 12 31 4 9 -14 -4 -69 -22 -97 -14 -21 -14 -23 4 -23 11 0 34 7 51 16 37 18 56 11 46 -18 -6 -20 -4 -21 52 -13 126 16 191 25 228 31 36 6 38 5 31 -15 -8 -26 -5 -26 40 -1 91 51 101 64 63 79 -17 7 -26 5 -35 -6 -23 -29 -60 -5 -155 102 -106 120 -126 152 -137 223 -4 28 -15 62 -24 76 -10 14 -17 35 -17 47 0 14 -5 19 -13 16 -8 -3 -20 -1 -27 3 -19 12 2 56 31 65 39 13 67 -13 79 -72 17 -79 62 -182 104 -238 20 -26 44 -62 53 -78 9 -17 26 -40 39 -50 13 -10 31 -25 40 -34 34 -34 21 19 -19 79 -14 21 -16 31 -8 47 18 33 13 48 -21 57 -23 7 -38 22 -59 59 -15 28 -28 57 -28 66 -1 9 -12 29 -26 45 -14 16 -25 39 -25 51 0 12 -19 41 -45 67 -38 39 -51 46 -84 46 -24 0 -49 -8 -67 -22z m34 -362 c45 -87 89 -135 142 -156 54 -21 59 -44 11 -48 -52 -5 -87 15 -135 79 -45 60 -91 163 -81 180 14 21 32 5 63 -55z"
       id="path136"
       style="fill:#deb887" />
    <path
       d="M3870 5271 c-158 -120 -215 -225 -179 -330 26 -74 72 -26 169 176 73 149 94 203 82 203 -4 0 -36 -22 -72 -49z"
       id="path138"
       style="fill:#8b4513" />
    <path
       d="M7151 5239 c-118 -134 -253 -219 -431 -274 -216 -66 -410 -130 -489 -162 -104 -42 -353 -162 -401 -195 -19 -13 -43 -27 -52 -31 -72 -27 -288 -203 -288 -234 0 -8 13 -33 29 -56 36 -52 71 -115 71 -126 0 -5 7 -24 15 -44 14 -34 15 -35 47 -23 111 39 228 136 228 190 0 8 7 17 16 20 13 5 14 1 9 -25 -18 -79 -75 -165 -102 -154 -8 3 -36 -6 -62 -19 -63 -33 -115 -50 -134 -43 -8 3 -20 23 -27 44 -16 52 -49 120 -83 171 -28 42 -29 43 -44 23 -13 -19 -11 -28 21 -93 20 -40 45 -113 56 -163 20 -88 53 -200 70 -240 25 -61 32 -89 32 -137 -1 -50 2 -55 51 -108 29 -31 64 -69 78 -85 14 -17 37 -39 51 -50 34 -28 60 -68 119 -181 28 -54 61 -112 74 -128 38 -51 65 -105 65 -131 0 -29 -30 -47 -110 -65 -30 -7 -62 -15 -70 -18 -26 -9 61 -21 158 -21 104 -1 106 -2 177 -95 140 -184 235 -278 343 -338 28 -17 52 -33 52 -37 0 -18 -36 -60 -90 -105 -19 -16 -26 -26 -15 -21 11 5 51 11 89 13 l68 4 81 -82 c99 -100 178 -158 283 -205 186 -85 226 -108 277 -158 86 -84 163 -265 126 -293 -23 -17 -89 -33 -171 -40 -139 -12 -78 -35 93 -35 96 0 101 -1 134 -30 47 -41 140 -205 195 -344 83 -207 130 -379 130 -478 0 -70 -9 -75 -93 -58 -67 14 -141 46 -207 91 -25 16 -49 30 -55 30 -12 -1 -59 -103 -80 -174 -14 -47 -20 -116 -10 -116 3 0 20 16 38 36 29 32 39 36 84 37 50 1 83 -15 135 -66 36 -35 87 -67 108 -67 40 0 100 -23 124 -46 48 -49 86 -157 86 -248 l0 -56 275 0 275 0 0 154 0 154 -37 -37 c-53 -53 -128 -108 -179 -131 -81 -37 -94 -41 -115 -29 -23 12 -93 119 -128 194 -13 28 -27 58 -32 67 -5 10 -9 26 -9 36 0 10 -4 22 -8 27 -13 14 -48 175 -82 375 -44 256 -47 267 -116 357 -63 82 -78 143 -50 206 18 40 47 71 139 144 119 95 167 162 54 75 -74 -56 -207 -125 -233 -120 -10 1 -21 15 -24 29 -7 24 -27 73 -54 128 -14 31 -13 238 3 254 6 6 11 21 11 34 0 13 4 31 9 41 28 54 77 250 91 367 6 50 15 125 20 168 6 50 17 88 29 106 18 24 87 65 156 91 11 4 36 15 55 24 35 16 34 16 -46 10 -113 -9 -132 2 -155 92 -10 38 -34 130 -54 204 -48 183 -64 401 -40 525 2 11 14 30 25 43 20 22 20 22 1 22 -23 0 -57 43 -88 110 -105 228 -120 247 -110 151 6 -57 5 -64 -18 -86 l-24 -25 27 -6 c34 -8 89 -59 106 -99 35 -79 38 -95 33 -192 -3 -54 -11 -129 -16 -168 -6 -38 -14 -93 -17 -122 l-7 -51 -61 -5 c-119 -9 -174 -38 -99 -52 115 -21 185 -110 253 -319 19 -60 17 -231 -4 -291 -45 -130 -92 -153 -180 -87 -59 44 -106 65 -133 60 -13 -3 -4 -11 31 -28 121 -61 182 -154 174 -264 -6 -77 -77 -270 -101 -274 -10 -2 -17 3 -17 12 0 18 -83 104 -119 124 -13 8 -40 23 -60 34 -58 31 -76 58 -88 134 -14 81 -33 274 -33 326 0 20 -4 40 -10 43 -6 3 -10 -5 -10 -19 0 -14 -4 -28 -10 -31 -18 -11 -11 32 12 74 25 48 53 56 45 14 -6 -30 18 -336 32 -418 7 -38 16 -56 42 -77 18 -15 37 -28 42 -28 14 0 99 -60 139 -98 l37 -35 10 24 c51 129 56 147 56 214 0 62 -3 75 -32 116 -42 61 -108 104 -195 128 -27 8 -48 17 -48 20 0 21 31 31 91 31 64 0 71 -3 134 -46 82 -55 110 -56 137 -2 50 96 60 206 29 328 -27 105 -65 185 -117 240 -46 49 -70 60 -184 81 -67 12 -130 48 -130 75 0 18 9 18 50 -3 29 -14 43 -15 104 -4 39 6 89 14 111 17 89 11 85 8 85 77 0 34 4 77 9 94 5 18 6 35 1 38 -13 8 -81 -32 -109 -62 l-23 -27 -48 27 c-57 32 -60 32 -60 8 0 -10 -7 -34 -15 -54 -25 -61 -97 -97 -194 -97 -62 0 -81 11 -81 47 0 13 -3 23 -6 23 -19 0 -75 -41 -149 -109 -62 -58 -95 -75 -149 -81 -39 -4 -52 -9 -54 -23 -7 -35 27 -46 136 -47 111 0 123 -8 66 -41 -32 -19 -89 -25 -79 -9 3 6 16 10 28 10 18 0 19 2 7 10 -8 5 -41 10 -72 10 -31 0 -69 5 -83 12 -24 11 -26 16 -22 57 3 26 10 64 17 86 6 22 15 79 19 127 4 48 10 90 13 93 2 3 31 10 64 16 32 6 67 15 76 20 10 5 25 9 33 9 8 0 15 5 15 10 0 6 -29 10 -68 10 -88 0 -103 11 -114 86 -5 33 -13 86 -18 119 -6 33 -14 107 -19 165 -6 58 -13 128 -17 155 -5 46 -4 53 21 78 38 37 53 34 20 -5 -24 -28 -26 -37 -21 -87 3 -31 10 -103 15 -161 5 -58 12 -116 15 -130 2 -14 10 -59 17 -100 7 -41 17 -81 22 -87 14 -19 146 -17 193 3 21 9 52 27 70 41 33 25 58 24 48 -1 -3 -8 -31 -32 -62 -53 -76 -52 -122 -72 -207 -94 -27 -6 -54 -15 -58 -19 -5 -4 -13 -43 -18 -86 -4 -44 -11 -96 -15 -116 l-6 -38 36 0 c46 0 91 26 157 90 30 29 71 63 92 77 32 22 41 24 62 15 17 -8 25 -20 25 -37 0 -23 3 -25 48 -25 71 0 142 29 170 70 13 19 20 41 16 49 -21 51 18 66 80 32 47 -27 48 -26 84 7 16 16 48 34 70 41 40 13 40 15 47 71 14 119 -18 229 -78 274 -23 17 -43 20 -125 21 -87 0 -102 3 -143 27 -74 44 -75 82 -1 53 27 -11 65 -15 128 -13 l89 3 5 105 c3 58 10 113 14 123 14 30 38 16 42 -25 1 -20 12 -54 22 -75 11 -21 26 -51 35 -68 8 -16 23 -48 32 -70 62 -144 72 -155 120 -127 70 42 195 67 195 40 0 -7 -44 -35 -98 -63 -121 -62 -142 -89 -142 -182 l0 -65 40 3 c51 4 57 -3 31 -39 -23 -33 -27 -63 -11 -91 14 -27 34 -32 145 -41 55 -4 108 -11 118 -15 25 -11 22 14 -10 82 -27 57 -28 62 -26 223 3 286 12 400 35 450 14 31 22 73 25 140 6 104 -5 150 -35 150 -36 0 -122 53 -166 101 -25 28 -75 110 -115 188 -57 109 -85 152 -132 200 -74 74 -170 124 -286 148 -49 10 -83 22 -83 29 0 7 18 27 41 45 l41 32 35 -19 c46 -24 159 -27 173 -4 14 21 3 63 -33 139 -36 75 -84 114 -166 137 -46 12 -94 31 -131 51 -3 2 -30 -24 -59 -58z m-1276 -764 c35 -34 108 -75 135 -75 11 0 22 -4 25 -10 3 -5 18 -10 32 -10 25 0 61 -9 127 -33 32 -12 86 -63 86 -81 0 -6 -12 -17 -27 -23 -39 -17 -103 -72 -103 -87 0 -9 20 -16 57 -20 98 -12 159 -53 196 -135 14 -32 18 -56 13 -88 -12 -86 -51 -124 -172 -164 -155 -52 -259 -169 -149 -169 35 0 37 3 66 65 17 36 35 65 41 65 6 0 8 -8 5 -17 -3 -10 -10 -40 -17 -68 -7 -27 -25 -77 -40 -110 -15 -33 -38 -87 -51 -119 -14 -36 -25 -52 -27 -42 -2 10 1 23 7 29 6 6 11 19 11 29 0 10 5 18 10 18 6 0 10 12 10 28 0 27 -1 26 -43 -20 -23 -25 -52 -51 -65 -58 -35 -17 -77 17 -182 146 -57 71 -114 175 -140 259 -7 22 -16 50 -21 63 -5 13 -9 51 -9 86 0 63 0 64 48 107 71 64 93 81 100 75 3 -3 -12 -21 -33 -38 -61 -52 -86 -79 -95 -102 -23 -62 54 -283 137 -393 87 -114 146 -173 174 -173 29 0 85 53 113 108 17 33 13 42 -19 42 -29 0 -45 19 -45 51 0 48 153 159 220 159 10 0 22 5 25 10 3 6 14 10 24 10 28 0 79 55 90 97 13 47 13 49 1 94 -21 74 -100 129 -200 139 -48 4 -55 8 -58 28 -3 16 8 34 38 62 24 22 48 40 55 40 15 0 24 19 18 37 -9 24 -71 52 -169 76 -55 13 -116 32 -135 41 -44 21 -115 93 -124 126 l-7 25 18 -25 c10 -14 32 -38 49 -55z m710 5 c28 -55 59 -173 52 -199 -3 -9 -5 -4 -6 10 -1 21 -7 28 -30 32 -16 3 -36 13 -44 22 -26 25 -28 17 -5 -22 45 -79 59 -116 61 -156 2 -41 1 -42 -33 -44 l-35 -2 33 10 c33 10 39 26 23 57 -5 9 -17 34 -25 54 -9 21 -31 57 -49 80 -77 101 -116 168 -98 168 5 0 39 -31 77 -70 37 -38 71 -70 76 -70 18 0 -2 114 -25 136 -8 8 -10 44 -2 44 2 0 16 -22 30 -50z m85 -275 c9 -23 22 -62 40 -122 19 -61 49 -57 140 21 31 26 35 28 38 12 5 -25 -78 -98 -95 -85 -7 6 -13 6 -17 1 -9 -14 -67 -21 -71 -8 -36 129 -55 206 -54 221 1 19 1 19 6 0 2 -11 8 -29 13 -40z m-205 -53 c11 -17 48 -47 81 -67 69 -40 108 -78 122 -115 14 -39 13 -250 -2 -256 -6 -2 -30 0 -51 5 l-40 9 42 1 41 1 0 112 c0 74 -5 121 -13 138 -15 28 -50 60 -65 60 -6 0 -10 4 -10 9 0 5 -8 11 -17 14 -20 7 -72 37 -88 52 -17 15 -45 58 -45 68 0 17 25 0 45 -31z m44 -438 c14 -13 35 -24 47 -24 42 0 110 -68 132 -134 12 -33 11 -50 -3 -120 -28 -130 -34 -168 -34 -218 -1 -79 0 -78 -115 -78 l-101 0 25 -20 c32 -24 58 -37 92 -44 36 -8 58 -32 58 -63 0 -25 -56 -135 -72 -141 -4 -2 -8 -8 -8 -14 0 -19 -72 -98 -90 -98 -19 0 -163 138 -232 223 -25 31 -54 81 -64 109 -9 28 -34 79 -55 111 -39 61 -47 90 -29 117 7 11 10 4 10 -26 0 -27 5 -44 14 -47 14 -6 109 23 123 36 3 4 15 7 25 7 10 0 26 4 36 9 9 5 32 16 50 23 17 7 32 16 32 20 0 5 1 11 3 16 1 4 -18 9 -43 12 -38 4 -46 9 -48 28 -5 34 14 51 105 94 89 42 96 48 87 72 -5 13 -24 16 -103 17 -63 0 -89 3 -76 9 11 5 52 9 91 9 58 1 76 -3 98 -20 37 -29 24 -45 -86 -104 -109 -58 -126 -85 -54 -85 40 0 46 -3 52 -24 10 -43 -3 -51 -166 -107 -52 -18 -97 -34 -99 -36 -3 -2 2 -16 11 -31 9 -16 27 -54 39 -86 12 -32 37 -76 56 -96 l34 -38 57 20 c31 12 81 21 110 22 45 1 56 -3 72 -24 11 -14 20 -41 20 -62 0 -21 4 -38 9 -38 12 0 61 102 61 128 0 16 -10 24 -42 33 -62 18 -178 98 -178 122 0 10 61 1 70 -11 3 -4 48 -6 101 -4 l96 3 6 87 c3 48 15 128 27 177 18 74 19 97 10 128 -17 58 -68 101 -162 137 -89 34 -128 55 -128 69 0 15 103 -21 129 -45z m-274 -144 c-3 -5 -13 -10 -21 -10 -8 0 -12 5 -9 10 3 6 13 10 21 10 8 0 12 -4 9 -10z m585 -690 c-8 -5 -38 -10 -65 -10 -41 0 -57 -6 -88 -31 -48 -39 -77 -97 -84 -164 l-6 -53 84 -84 c46 -46 102 -110 124 -141 22 -31 45 -56 51 -57 14 0 31 37 37 82 9 58 58 150 74 134 4 -3 2 -27 -5 -51 -7 -25 -12 -65 -12 -90 0 -52 -17 -61 -22 -12 l-4 32 -8 -30 c-16 -62 -37 -95 -62 -95 -6 0 -35 33 -65 73 -29 39 -89 107 -132 150 l-80 78 7 64 c8 77 37 136 90 181 37 32 44 34 110 34 50 0 66 -3 56 -10z m335 -648 c14 -79 -48 -108 -118 -54 -35 26 -46 42 -29 42 5 0 17 -8 28 -19 37 -34 62 -43 84 -29 23 15 25 47 10 129 -7 32 -8 79 -3 114 l8 60 6 -100 c4 -55 10 -119 14 -143z m-225 58 c0 -18 9 -31 31 -44 17 -10 28 -20 26 -23 -6 -5 -44 15 -64 34 -7 6 -13 29 -13 50 0 28 3 34 10 23 5 -8 10 -26 10 -40z"
       id="path140"
       style="fill:#2f4f4f" />
    <path
       d="M6385 3000 c-3 -5 -19 -10 -35 -10 -16 0 -32 -4 -35 -10 -3 -5 -15 -10 -26 -10 -10 0 -19 -3 -19 -6 0 -32 141 -174 173 -174 28 0 47 46 47 114 0 60 -2 66 -29 85 -31 22 -66 27 -76 11z"
       id="path142"
       style="fill:#2f4f4f" />
    <path
       d="M4540 5205 c0 -21 92 -66 106 -52 11 11 -14 34 -44 40 -15 3 -35 9 -44 12 -10 4 -18 4 -18 0z"
       id="path144" />
    <path
       d="M4582 5118 c6 -18 52 -33 73 -24 17 6 17 7 -1 21 -24 18 -77 20 -72 3z"
       id="path146" />
    <path
       d="M4012 5070 c-12 -12 -31 -39 -42 -61 -48 -93 -123 -149 -201 -149 -22 0 -39 -4 -39 -9 0 -25 93 -28 148 -5 56 23 91 62 127 140 18 39 38 74 44 78 6 4 11 11 11 17 0 16 -25 10 -48 -11z"
       id="path148"
       style="fill:#8b4513" />
    <path
       d="M4622 5048 c6 -16 33 -22 56 -13 15 6 15 8 -3 15 -31 13 -57 12 -53 -2z"
       id="path150" />
    <path
       d="M4690 4954 c0 -14 4 -23 10 -19 6 3 10 15 10 26 0 10 -4 19 -10 19 -5 0 -10 -12 -10 -26z"
       id="path152" />
    <path
       d="M4012 4928 c-47 -75 -132 -127 -209 -128 -48 0 -56 -15 -24 -44 15 -14 29 -16 63 -11 63 10 127 60 161 128 16 31 33 59 38 62 12 8 12 25 0 25 -5 0 -18 -15 -29 -32z"
       id="path154"
       style="fill:#8b4513" />
    <path
       d="M4722 4908 c-7 -20 -8 -36 -2 -42 9 -9 30 31 30 60 0 25 -15 15 -28 -18z"
       id="path156" />
    <path
       d="M4068 4894 c-35 -22 -77 -84 -57 -84 24 0 91 43 101 66 17 37 -2 45 -44 18z"
       id="path158"
       style="fill:#d2b48c" />
    <path
       d="M4150 4862 c-26 -31 -73 -59 -135 -80 -33 -12 -82 -32 -110 -46 -27 -14 -60 -26 -72 -26 -13 0 -23 -4 -23 -8 0 -38 114 -44 188 -10 61 29 115 71 147 119 29 41 33 84 5 51z"
       id="path160"
       style="fill:#a0522d" />
    <path
       d="M4815 4827 c6 -35 3 -53 -9 -72 -49 -74 -134 -113 -296 -135 -76 -11 -92 -17 -148 -57 -35 -25 -89 -56 -120 -69 l-57 -23 58 -1 c67 0 109 16 155 60 50 48 95 62 228 70 147 9 174 21 210 92 32 62 29 127 -6 162 l-21 21 6 -48z"
       id="path162"
       style="fill:#a0522d" />
    <path
       d="M4757 4853 c-4 -3 -7 -19 -7 -35 0 -21 5 -28 20 -28 20 0 26 22 14 54 -7 17 -16 20 -27 9z"
       id="path164" />
    <path
       d="M4160 4753 c-14 -3 -41 -17 -60 -31 -57 -44 -115 -69 -174 -76 -31 -4 -56 -11 -56 -15 0 -44 148 -40 237 5 38 20 68 44 91 77 33 46 33 47 10 46 -12 -1 -34 -4 -48 -6z"
       id="path166"
       style="fill:#a0522d" />
    <path
       d="M3662 4690 c-65 -29 -128 -76 -227 -169 -49 -46 -129 -110 -177 -143 -102 -68 -149 -112 -168 -157 -15 -37 -10 -47 18 -32 31 16 119 14 125 -3 3 -8 0 -19 -6 -24 -11 -9 -102 -24 -139 -24 -19 1 -23 -10 -33 -91 -5 -36 -14 -55 -39 -80 l-33 -32 29 -39 28 -40 12 32 c28 73 39 8 12 -71 -20 -61 -85 -133 -145 -161 -149 -73 -386 -277 -445 -386 -55 -100 -59 -115 -35 -139 24 -24 28 -71 7 -71 -8 0 -16 10 -18 23 -7 49 -23 12 -26 -59 -7 -175 88 -308 256 -364 103 -33 173 -36 291 -10 136 29 210 21 211 -23 0 -5 -19 -6 -42 -3 -45 6 -124 -7 -98 -16 8 -3 44 -11 80 -18 36 -6 103 -25 150 -41 286 -101 402 -129 524 -129 135 1 289 55 357 127 22 23 49 71 69 123 19 47 50 121 71 165 120 260 119 258 139 337 12 45 10 113 -5 172 -8 28 -7 29 21 22 128 -32 231 -152 270 -314 7 -31 18 -140 24 -242 17 -281 33 -347 138 -560 66 -132 67 -135 67 -216 0 -77 -2 -85 -31 -121 -16 -21 -50 -48 -75 -61 -62 -33 -172 -27 -253 12 -185 90 -289 349 -273 675 9 171 36 278 116 453 39 86 51 134 51 206 0 90 -15 87 -22 -5 -7 -84 -21 -124 -114 -336 -100 -226 -125 -312 -131 -457 -17 -379 110 -711 314 -817 85 -44 140 -56 235 -51 200 12 379 131 469 312 22 45 43 101 46 124 7 50 -4 65 -90 124 -76 52 -111 90 -142 152 -39 80 -44 133 -37 391 12 476 9 499 -101 759 -41 96 -43 99 -92 121 -152 69 -184 85 -222 113 -61 46 -97 112 -97 181 0 31 2 70 3 86 2 17 -4 50 -14 75 -22 60 -13 120 26 164 20 23 29 44 29 68 0 19 7 43 15 54 8 10 15 24 15 30 0 15 -57 71 -109 107 l-45 31 -135 -3 c-116 -2 -146 1 -200 19 -113 38 -224 124 -287 225 -33 51 -46 54 -112 25z m203 -224 c102 -24 223 -114 265 -197 84 -163 59 -333 -67 -470 l-54 -58 16 -31 c21 -41 17 -143 -6 -148 -13 -2 -18 9 -23 48 -7 52 -24 100 -36 100 -3 0 -24 -8 -46 -18 -53 -26 -109 -39 -242 -57 -200 -28 -249 -64 -347 -256 -120 -237 -156 -300 -207 -367 -58 -75 -133 -138 -208 -175 -58 -29 -75 -32 -160 -33 -52 -1 -102 -3 -110 -5 -10 -3 -15 3 -15 17 0 12 -19 40 -42 62 -63 61 -77 95 -77 182 -1 131 61 227 239 370 212 171 374 308 414 349 74 78 84 107 92 271 3 80 10 154 14 165 45 125 130 185 355 253 37 11 194 10 245 -2z m-192 -1046 c9 -23 18 -30 39 -30 15 0 30 5 33 10 11 17 55 11 88 -12 85 -59 111 -127 87 -230 -5 -24 -12 -55 -15 -69 -10 -51 -123 -83 -212 -59 -101 27 -220 96 -185 107 6 3 12 11 12 18 0 36 44 125 84 168 40 43 44 51 39 87 -7 49 13 55 30 10z m-143 -402 c99 -30 230 -111 261 -161 13 -22 19 -46 17 -76 -3 -37 -9 -49 -39 -73 -34 -27 -41 -29 -130 -29 -156 1 -262 46 -329 141 -34 48 -33 131 2 167 50 50 122 60 218 31z"
       id="path168"
       style="fill:#ffe4c4" />
    <path
       d="M3655 4449 c-116 -28 -184 -55 -255 -103 -53 -35 -58 -40 -89 -84 -20 -29 -24 -50 -32 -182 -14 -237 -35 -274 -267 -461 -70 -57 -129 -106 -132 -109 -3 -3 -39 -33 -80 -65 -118 -92 -213 -193 -246 -260 -24 -49 -29 -73 -29 -130 0 -62 3 -75 31 -115 18 -25 44 -56 58 -69 24 -22 29 -23 65 -13 55 17 70 15 80 -12 9 -21 13 -22 54 -16 108 16 222 104 317 245 28 41 83 141 123 222 121 243 142 273 230 316 53 25 91 34 272 63 176 27 298 109 362 242 25 51 28 68 28 162 0 90 -3 112 -24 155 -75 157 -289 255 -466 214z"
       id="path170"
       style="fill:#cd853f" />
    <path
       d="M3757 3373 c-26 -7 -16 -25 28 -48 21 -11 56 -42 77 -68 21 -27 38 -43 38 -35 0 80 -82 166 -143 151z"
       id="path172"
       style="fill:#000080" />
    <path
       d="M3630 3308 c-46 -48 -70 -101 -70 -152 0 -44 1 -46 48 -68 34 -16 71 -23 132 -26 75 -3 88 -1 113 18 15 12 27 28 27 36 0 19 -28 30 -43 15 -6 -6 -31 -11 -55 -11 -87 0 -130 87 -82 166 21 33 21 33 1 43 -30 16 -37 14 -71 -21z"
       id="path174"
       style="fill:#000080" />
    <path
       d="M3364 2994 c-55 -27 -71 -101 -35 -161 21 -34 100 -93 125 -93 8 0 17 -4 20 -9 7 -11 62 -21 154 -28 88 -6 133 11 152 57 10 24 10 36 0 60 -23 55 -135 132 -247 169 -74 25 -126 26 -169 5z"
       id="path176"
       style="fill:#ff6347" />
    <path
       d="M4240 4660 c-8 -5 -25 -10 -36 -10 -12 0 -32 -9 -46 -19 -31 -25 -142 -61 -186 -61 -29 0 -33 -2 -22 -15 19 -23 54 -20 180 16 54 16 117 49 141 75 21 23 21 24 3 24 -10 0 -26 -5 -34 -10z"
       id="path178"
       style="fill:#a0522d" />
    <path
       d="M4518 4663 c6 -2 18 -2 25 0 6 3 1 5 -13 5 -14 0 -19 -2 -12 -5z"
       id="path180" />
    <path
       d="M4255 4596 c-60 -30 -127 -57 -147 -61 -43 -8 -42 -20 0 -28 25 -5 53 -1 139 18 12 3 43 22 70 42 26 21 68 48 93 60 l45 22 -45 1 c-35 0 -71 -13 -155 -54z"
       id="path182"
       style="fill:#8b4513" />
    <path
       d="M4960 4516 c0 -8 47 -38 108 -68 l107 -54 60 61 60 62 -119 7 c-183 9 -216 8 -216 -8z"
       id="path184"
       style="fill:#8b4513" />
    <path
       d="M4800 4513 c-49 -6 -277 -52 -322 -65 -21 -6 -38 -14 -38 -17 0 -4 13 -15 30 -24 16 -10 51 -38 77 -62 27 -25 54 -45 61 -45 7 0 43 -18 79 -40 73 -43 163 -75 328 -115 140 -34 166 -43 244 -83 35 -18 65 -31 67 -29 10 10 -19 118 -46 173 -36 74 -83 115 -200 175 -88 44 -161 90 -194 121 -11 10 -27 17 -35 16 -9 0 -32 -3 -51 -5z"
       id="path186"
       style="fill:#fff5ee" />
    <path
       d="M410 4417 c-70 -33 -148 -120 -225 -250 -65 -109 -151 -217 -175 -217 -7 0 -10 -636 -10 -1975 l0 -1975 269 0 270 0 85 53 c170 104 201 153 201 322 0 145 -37 274 -124 435 -19 36 -39 74 -45 86 -6 11 -54 87 -106 167 -52 81 -112 175 -134 210 -163 263 -237 537 -196 725 6 26 16 70 22 97 17 79 80 223 143 331 56 96 200 313 256 384 75 97 139 247 139 326 0 78 -21 114 -116 200 -111 100 -134 147 -134 267 0 97 14 149 82 310 81 194 93 267 62 375 -37 127 -152 183 -264 129z"
       id="path188"
       style="fill:#778899" />
    <path
       d="M4579 4229 c-20 -39 -3 -83 42 -107 52 -28 58 -28 32 1 -30 32 -43 62 -43 96 0 36 -14 40 -31 10z"
       id="path190" />
    <path
       d="M5413 4227 c-23 -29 -36 -110 -30 -185 6 -73 9 -83 61 -162 107 -165 146 -220 156 -220 13 0 13 67 0 75 -5 3 -10 15 -10 26 0 10 -4 27 -10 37 -12 22 -45 125 -58 182 -27 114 -37 149 -60 198 -28 59 -36 67 -49 49z"
       id="path192"
       style="fill:#2f4f4f" />
    <path
       d="M4650 4193 c0 -10 7 -26 14 -36 15 -19 108 -57 140 -57 11 0 33 -4 50 -9 17 -5 51 -15 76 -22 230 -62 313 -114 480 -301 42 -48 60 -58 60 -37 0 25 -114 191 -158 229 -68 60 -147 93 -346 144 -98 25 -208 59 -244 76 -76 35 -72 35 -72 13z"
       id="path194"
       style="fill:#f4a460" />
    <path
       d="M4510 4066 c-9 -27 -9 -45 -1 -69 23 -70 90 -109 305 -182 237 -79 255 -92 534 -380 173 -179 213 -382 132 -665 -11 -36 -24 -117 -30 -180 -16 -174 -41 -292 -70 -328 -26 -31 -82 -62 -114 -62 -41 0 -103 39 -129 80 -39 62 -47 100 -47 232 0 151 11 215 67 388 80 243 80 333 2 446 -77 112 -185 187 -374 261 -66 25 -134 56 -151 67 -51 33 -79 82 -80 140 0 37 -4 51 -15 51 -23 0 -23 -68 0 -113 31 -61 91 -105 219 -162 159 -71 219 -116 323 -240 100 -119 110 -185 59 -387 -83 -330 -93 -378 -97 -493 -4 -101 -2 -122 17 -173 28 -74 64 -116 143 -164 113 -70 158 -85 271 -92 86 -6 91 -7 94 -29 l4 -24 -104 4 c-57 2 -112 8 -122 13 -17 7 -18 5 -12 -21 4 -16 14 -71 23 -123 l17 -94 15 46 c22 62 54 93 111 107 74 18 122 -7 193 -102 71 -94 101 -155 121 -246 18 -80 41 -155 59 -190 6 -13 11 -59 12 -102 0 -70 -2 -80 -24 -99 -13 -12 -25 -21 -26 -21 -1 0 -25 -4 -54 -10 -98 -18 -197 18 -245 92 -24 35 -38 80 -56 168 -10 51 -72 260 -91 305 -4 12 -8 -38 -9 -120 0 -77 -7 -182 -14 -232 -13 -91 -12 -93 11 -134 98 -174 324 -309 516 -309 97 0 189 44 233 110 25 38 74 200 74 246 0 13 -32 54 -82 105 -50 51 -102 116 -130 164 -78 134 -228 441 -228 466 0 6 -18 73 -40 149 -45 157 -60 281 -60 520 0 169 13 321 40 474 11 60 20 149 20 198 l0 88 -71 77 c-40 43 -87 99 -106 126 -31 42 -39 47 -73 47 -34 0 -43 6 -87 57 -26 32 -59 70 -73 86 -45 52 -170 130 -275 171 -59 23 -268 76 -299 76 -44 0 128 -63 244 -90 96 -22 191 -72 249 -131 82 -83 201 -228 201 -245 0 -31 -33 -28 -61 6 -26 31 -31 32 -54 22 -32 -15 -90 -15 -115 -2 -11 6 -54 35 -96 65 -96 69 -179 108 -313 147 -114 32 -163 59 -205 109 -24 28 -27 40 -24 83 3 46 1 51 -19 54 -16 2 -24 -4 -33 -32z"
       id="path196"
       style="fill:#ffdead" />
    <path
       d="M4698 4083 c7 -3 16 -2 19 1 4 3 -2 6 -13 5 -11 0 -14 -3 -6 -6z"
       id="path198" />
    <path
       d="M4597 4051 c-15 -59 51 -128 143 -151 147 -36 292 -100 385 -169 81 -59 103 -71 133 -71 51 0 58 23 20 67 -136 157 -160 172 -388 234 -76 20 -132 41 -251 93 -35 14 -37 14 -42 -3z"
       id="path200"
       style="fill:#ffdead" />
    <path
       d="M2941 3872 c-19 -36 -50 -167 -41 -176 16 -16 31 5 25 35 -9 38 34 83 71 76 30 -5 30 4 2 48 -26 39 -43 44 -57 17z"
       id="path202"
       style="fill:#000080" />
    <path
       d="M4587 3833 c-22 -21 10 -92 56 -127 18 -13 84 -43 147 -67 63 -23 135 -54 160 -67 118 -64 214 -160 269 -268 26 -52 31 -73 31 -132 0 -77 -10 -122 -63 -282 -55 -168 -62 -211 -62 -375 1 -170 11 -205 68 -249 56 -43 138 -29 168 26 21 39 38 127 50 254 7 75 26 184 45 263 40 157 43 233 14 347 -34 131 -84 212 -174 281 -28 21 -87 72 -131 114 -122 116 -183 153 -340 205 -44 14 -112 39 -153 55 -82 33 -76 31 -85 22z"
       id="path204"
       style="fill:#ffdead" />
    <path
       d="M4910 3437 c0 -10 5 -28 11 -39 18 -33 67 -174 86 -246 14 -54 18 -103 17 -250 -1 -101 -1 -182 1 -180 1 2 17 62 34 133 18 72 37 150 44 175 6 25 12 77 12 115 0 68 -2 73 -47 135 -60 85 -158 181 -158 157z"
       id="path206"
       style="fill:#deb887" />
    <path
       d="M5777 3331 c-4 -44 -15 -133 -26 -198 -11 -65 -23 -157 -26 -205 -6 -81 -4 -92 20 -145 14 -32 30 -60 36 -64 5 -3 30 13 55 36 25 23 63 51 84 61 48 23 46 36 -6 46 -133 27 -183 45 -167 61 3 4 44 7 89 7 46 0 93 4 106 9 13 5 42 15 66 22 23 7 42 16 42 20 0 11 -36 74 -72 126 -16 24 -53 89 -82 146 -49 96 -90 157 -106 157 -4 0 -10 -36 -13 -79z"
       id="path208"
       style="fill:#5f9ea0" />
    <path
       d="M7725 3361 c-14 -23 24 -249 70 -416 19 -66 36 -134 40 -152 7 -37 17 -40 117 -35 l66 4 5 106 c3 59 10 130 16 157 6 28 14 71 17 97 6 41 4 47 -17 59 -13 7 -70 16 -126 19 -90 5 -105 9 -128 30 -22 21 -26 32 -23 65 3 22 6 47 9 55 5 17 -36 27 -46 11z"
       id="path210"
       style="fill:#5f9ea0" />
    <path
       d="M4471 3294 c18 -22 17 -180 -1 -225 -7 -19 -28 -65 -45 -104 -90 -198 -126 -393 -105 -572 26 -228 69 -344 162 -435 70 -70 135 -98 227 -98 131 0 191 55 191 177 0 63 -4 76 -75 217 -41 83 -82 178 -90 211 -26 99 -44 243 -45 357 0 141 -21 248 -68 343 -29 58 -115 145 -144 145 -18 0 -19 -2 -7 -16z"
       id="path212"
       style="fill:#deb887" />
    <path
       d="M5965 2816 c-38 -18 -92 -53 -120 -78 l-50 -46 19 -34 c23 -39 116 -166 154 -211 77 -89 117 -132 224 -242 64 -66 148 -145 187 -175 l70 -55 78 -1 c149 -2 253 -81 338 -259 l45 -93 55 -18 c31 -9 58 -21 61 -25 8 -14 18 -11 41 11 66 61 137 77 172 38 17 -18 25 -20 43 -11 50 23 80 33 100 33 16 0 19 4 14 25 -13 51 -79 147 -128 186 -46 36 -78 53 -178 96 -148 63 -248 131 -369 253 -79 80 -76 80 -201 50 -115 -27 -330 -34 -330 -10 0 3 44 12 98 19 152 19 207 39 261 95 19 20 33 37 30 39 -2 2 -31 21 -64 42 -76 50 -184 157 -260 260 -104 139 -111 145 -169 145 -36 -1 -71 -10 -121 -34z"
       id="path214"
       style="fill:#5f9ea0" />
    <path
       d="M2380 2810 c0 -22 63 -305 138 -620 l17 -75 55 -12 c30 -6 56 -10 58 -9 1 2 -11 39 -29 82 -43 108 -64 184 -99 359 -26 128 -34 154 -59 180 -15 16 -40 48 -55 70 -14 22 -26 33 -26 25z"
       id="path216"
       style="fill:#87cefa" />
    <path
       d="M5710 2671 c0 -15 14 -55 31 -87 31 -59 143 -234 172 -270 8 -10 39 -48 68 -84 28 -36 93 -108 144 -160 51 -52 96 -105 100 -117 4 -17 -1 -30 -20 -49 -23 -23 -31 -25 -70 -20 -40 6 -45 5 -65 -24 -14 -20 -24 -52 -27 -91 l-6 -59 85 6 c72 6 90 4 129 -14 89 -40 124 -89 138 -194 15 -112 40 -155 136 -243 104 -94 121 -130 112 -243 -10 -128 -64 -250 -159 -361 -16 -18 -27 -35 -25 -37 2 -2 38 -13 80 -24 43 -10 105 -33 139 -50 35 -16 66 -30 70 -30 4 0 -12 18 -35 40 -99 90 -121 214 -59 321 29 51 32 64 32 137 0 95 -22 163 -81 255 -43 66 -47 92 -23 138 44 87 268 95 410 15 26 -15 50 -24 53 -20 10 9 -80 81 -142 114 -53 27 -68 30 -152 30 -75 0 -109 -5 -179 -28 -71 -24 -88 -27 -97 -16 -21 26 -1 41 98 71 128 41 183 53 233 53 38 0 41 2 34 23 -11 37 -50 109 -83 154 -65 90 -176 136 -273 113 -60 -14 -118 -41 -164 -76 -35 -27 -59 -31 -67 -10 -7 17 49 70 99 94 19 8 34 20 34 26 0 6 -21 26 -46 45 -153 115 -474 476 -570 639 -40 68 -54 77 -54 33z m834 -832 c22 -6 55 -26 73 -44 83 -83 8 -186 -113 -156 -21 5 -65 16 -97 24 -64 16 -86 37 -87 82 0 39 22 70 68 95 39 21 74 21 156 -1z"
       id="path218"
       style="fill:#708090" />
    <path
       d="M6394 1777 c-16 -15 -25 -30 -22 -39 8 -18 94 -40 168 -42 45 -1 55 2 58 17 8 41 -65 87 -137 87 -27 0 -48 -7 -67 -23z"
       id="path220"
       style="fill:#b0c4de" />
    <path
       d="M7970 2671 c-153 -58 -175 -82 -185 -200 -17 -204 -36 -293 -136 -617 -13 -42 -11 -177 2 -211 7 -15 20 -47 30 -70 11 -24 19 -50 19 -58 0 -22 26 -18 84 12 129 69 218 145 248 215 21 45 41 36 33 -14 -14 -83 -72 -162 -177 -240 -72 -55 -73 -57 -36 -88 l33 -28 -20 -57 c-18 -55 -18 -58 -1 -70 13 -10 38 -12 88 -8 l70 6 -6 -51 c-3 -29 -9 -74 -12 -102 -4 -37 -3 -50 7 -50 7 0 47 22 88 49 93 61 153 85 186 77 36 -9 33 -55 -6 -112 -42 -61 -48 -105 -18 -133 20 -18 35 -21 112 -21 48 0 97 -5 108 -10 18 -10 19 -7 19 85 0 52 -4 95 -8 95 -10 0 -79 122 -163 290 -35 69 -65 127 -67 130 -1 2 -28 4 -59 3 -43 -1 -66 -8 -105 -33 -53 -33 -66 -33 -50 -3 24 44 122 113 161 113 35 0 42 23 21 69 -13 26 -21 65 -23 109 l-2 67 57 30 c31 16 60 27 63 24 3 -4 -2 -22 -11 -42 -15 -32 -15 -39 -1 -88 8 -30 21 -81 28 -114 7 -33 16 -64 21 -70 4 -5 8 -16 8 -25 0 -8 9 -30 21 -49 l20 -34 44 44 45 44 0 105 0 105 -53 57 c-66 70 -128 172 -156 258 -38 117 -41 126 -41 145 0 10 -4 32 -9 49 -5 17 -15 51 -21 76 -18 65 -50 148 -78 200 -43 77 -102 160 -115 159 -7 0 -32 -8 -57 -18z"
       id="path222"
       style="fill:#5f9ea0" />
    <path
       d="M2558 2635 c-3 -3 -2 -23 3 -43 4 -20 18 -82 30 -137 34 -158 99 -336 132 -363 8 -7 49 -17 91 -22 42 -6 109 -14 150 -20 130 -17 190 -28 236 -44 25 -9 48 -16 53 -16 4 0 7 38 7 85 0 47 -2 85 -4 85 -3 0 -22 -10 -43 -22 -32 -19 -52 -23 -123 -23 -72 1 -93 5 -135 27 -128 67 -209 195 -262 417 -8 31 -15 38 -68 58 -68 27 -60 24 -67 18z"
       id="path224"
       style="fill:#c0c0c0" />
    <path
       d="M2735 2543 c11 -62 53 -173 84 -222 74 -115 162 -171 267 -171 123 0 170 38 214 175 17 55 36 106 42 113 6 7 8 15 5 18 -18 19 -246 84 -327 94 -52 6 -125 15 -162 21 -37 5 -81 9 -98 9 -30 0 -31 -1 -25 -37z"
       id="path226"
       style="fill:#c0c0c0" />
    <path
       d="M5720 2471 c0 -60 2 -66 62 -154 78 -117 162 -221 259 -319 62 -63 82 -78 107 -78 58 0 48 26 -52 128 -112 115 -200 225 -292 365 -37 56 -71 106 -76 112 -4 5 -8 -19 -8 -54z"
       id="path228"
       style="fill:#708090" />
    <path
       d="M4063 2435 c-94 -49 -117 -54 -263 -62 -97 -5 -203 6 -270 27 -98 31 -143 41 -150 34 -13 -13 -62 -165 -55 -172 3 -3 23 4 44 16 30 17 55 22 110 22 90 0 147 -25 216 -95 65 -65 103 -132 176 -312 68 -169 116 -254 189 -336 109 -121 233 -196 415 -252 205 -63 262 -93 367 -193 61 -58 109 -139 128 -217 11 -43 10 -59 -4 -108 -17 -60 -15 -77 10 -77 8 0 25 -7 38 -16 23 -14 29 -13 103 24 43 22 98 45 122 52 38 10 42 14 36 33 -4 12 -11 85 -15 162 -7 147 -13 171 -58 238 -57 86 -63 120 -33 189 22 52 62 91 114 113 21 9 41 23 44 32 8 21 -13 308 -24 328 -6 11 -17 -3 -43 -51 -42 -80 -125 -173 -199 -223 -236 -158 -483 -153 -667 12 -165 149 -246 382 -248 719 -1 87 -1 158 -1 157 0 0 -37 -20 -82 -44z"
       id="path230"
       style="fill:#deb887" />
    <path
       d="M5740 2289 c0 -17 63 -234 86 -299 27 -72 122 -268 135 -275 17 -11 29 15 29 63 0 43 35 132 51 132 20 0 6 28 -39 75 -66 69 -149 169 -202 240 -59 80 -60 81 -60 64z"
       id="path232"
       style="fill:#708090" />
    <path
       d="M3421 2263 c-37 -8 -102 -54 -112 -81 -5 -13 -9 -64 -9 -114 l0 -91 37 -31 c146 -121 202 -202 314 -448 140 -309 203 -404 319 -478 51 -33 63 -56 34 -67 -23 -8 -60 14 -132 82 -99 92 -163 198 -273 450 -90 209 -166 321 -267 395 -92 67 -165 91 -357 115 -219 27 -499 71 -675 105 -243 47 -324 61 -449 80 -73 11 -160 20 -193 20 -56 0 -58 -1 -48 -20 9 -18 21 -20 94 -20 97 0 256 -26 446 -73 74 -19 162 -39 195 -46 33 -7 78 -16 100 -21 22 -5 67 -13 100 -19 157 -28 317 -64 388 -87 87 -29 160 -79 165 -112 5 -30 -52 -65 -93 -57 -16 3 -75 10 -130 15 -55 5 -144 14 -197 20 -233 24 -302 31 -451 46 -182 17 -274 39 -378 87 -132 62 -171 78 -175 74 -13 -13 -7 -61 10 -71 10 -6 41 -28 69 -49 57 -43 124 -76 177 -89 19 -4 188 -24 375 -43 633 -64 620 -62 675 -99 23 -15 53 -46 68 -70 l28 -43 34 19 c26 14 47 18 83 14 77 -8 122 -50 188 -176 21 -41 61 -91 107 -136 80 -79 88 -102 43 -133 -65 -47 -181 -14 -280 78 -30 28 -62 51 -72 51 -16 0 -17 -4 -8 -32 47 -147 57 -163 125 -200 28 -16 32 -16 60 0 22 12 53 16 124 16 84 0 105 -4 180 -34 114 -45 152 -70 237 -156 95 -97 118 -104 244 -74 145 34 222 16 320 -75 72 -67 110 -67 264 0 27 12 79 28 114 35 59 12 64 16 78 49 22 52 12 146 -22 208 -69 128 -202 222 -385 273 -235 65 -378 155 -511 320 -56 69 -91 134 -143 265 -104 260 -165 353 -266 405 -43 22 -124 33 -169 23z"
       id="path234"
       style="fill:#deb887" />
    <path
       d="M1370 2189 c-97 -19 -147 -32 -205 -51 -79 -26 -260 -112 -270 -128 -7 -12 22 -61 41 -67 5 -2 34 15 64 38 69 51 129 82 211 107 121 38 175 36 167 -4 -2 -15 -15 -20 -53 -25 -108 -14 -232 -66 -305 -128 l-35 -30 21 -21 c20 -20 24 -21 50 -7 16 8 67 26 114 41 139 45 228 93 296 161 54 53 82 104 66 120 -8 8 -111 4 -162 -6z"
       id="path236"
       style="fill:#ffdead" />
    <path
       d="M1546 2112 c-24 -46 -109 -117 -184 -152 -88 -43 -106 -49 -239 -86 -80 -21 -82 -40 -10 -77 150 -76 179 -75 265 6 74 70 146 116 195 126 30 6 32 10 35 56 4 55 -13 129 -34 146 -10 8 -16 4 -28 -19z"
       id="path238"
       style="fill:#ffdead" />
    <path
       d="M1640 2132 c0 -5 7 -33 16 -62 16 -55 36 -79 66 -80 9 0 33 -9 55 -19 161 -80 195 -88 521 -121 56 -5 148 -15 205 -20 56 -6 147 -15 202 -21 55 -5 134 -14 175 -19 118 -16 180 -13 180 6 0 9 -8 23 -17 31 -26 19 -102 54 -143 65 -95 25 -202 48 -365 77 -146 27 -211 41 -395 86 -280 69 -500 103 -500 77z"
       id="path240"
       style="fill:#ffdead" />
    <path
       d="M5471 1876 c-13 -7 -30 -24 -37 -37 -16 -29 -18 -101 -4 -143 48 -148 63 -199 81 -279 11 -50 28 -110 38 -133 36 -80 136 -125 229 -103 90 22 101 67 52 220 -17 52 -35 111 -40 132 -26 97 -35 125 -53 162 -24 49 -121 171 -147 185 -26 14 -90 12 -119 -4z"
       id="path242"
       style="fill:#faf0e6" />
    <path
       d="M1541 1863 c-19 -9 -67 -47 -106 -84 -40 -37 -83 -73 -96 -79 l-23 -13 23 -18 c30 -24 73 -24 169 2 87 23 158 22 212 -4 19 -10 71 -44 115 -77 104 -77 145 -96 274 -125 103 -23 181 -51 211 -77 92 -78 77 -193 -32 -249 -73 -37 -40 -36 179 7 192 38 273 88 273 170 0 50 -46 196 -87 274 -34 67 9 57 -443 100 -302 29 -348 41 -449 110 -127 87 -154 95 -220 63z"
       id="path244"
       style="fill:#778899" />
    <path
       d="M8234 1794 c-8 -33 10 -122 35 -175 11 -23 18 -45 15 -50 -2 -5 -21 -11 -41 -15 -42 -8 -85 -28 -77 -37 3 -3 18 -1 34 5 54 18 79 -7 154 -154 37 -73 84 -160 104 -193 l37 -60 3 184 c1 101 0 187 -4 190 -3 3 -23 -14 -44 -38 -37 -43 -37 -43 -56 -23 -17 19 -41 76 -72 173 -7 19 -12 52 -12 72 0 20 -4 38 -9 41 -5 4 -12 29 -16 56 -5 40 -11 50 -26 50 -12 0 -21 -9 -25 -26z"
       id="path246"
       style="fill:#2f4f4f" />
    <path
       d="M6080 1663 c-94 -5 -95 -6 -68 -54 22 -39 25 -41 61 -36 55 8 101 -9 136 -48 53 -61 63 -141 36 -296 -34 -193 -83 -277 -195 -331 -66 -32 -247 -31 -340 1 -143 50 -272 146 -352 263 -63 93 -70 116 -52 173 7 27 14 66 14 87 0 36 -2 39 -22 33 -13 -4 -38 -23 -55 -42 -28 -31 -33 -44 -33 -86 0 -41 6 -58 36 -100 53 -74 64 -114 64 -241 0 -175 7 -188 106 -215 69 -18 119 -62 154 -137 l32 -67 182 6 c99 4 273 17 386 31 l205 23 58 63 c98 107 165 277 154 388 -7 63 -32 101 -106 157 -90 69 -132 149 -146 280 -6 51 -12 65 -44 96 -34 34 -96 61 -131 57 -8 -1 -44 -3 -80 -5z m329 -467 c39 -21 87 -77 101 -122 8 -23 10 -63 7 -106 -7 -87 -45 -144 -134 -204 -81 -55 -176 -79 -311 -79 l-104 0 -29 33 c-16 18 -29 38 -29 45 0 23 44 56 111 83 191 77 197 83 225 214 22 105 23 109 46 130 26 24 77 26 117 6z"
       id="path248"
       style="fill:#87cefa" />
    <path
       d="M6318 1158 c-8 -7 -22 -50 -31 -96 -30 -153 -50 -173 -245 -251 -89 -36 -100 -53 -52 -79 51 -27 258 2 351 49 60 30 127 112 135 165 14 95 -9 156 -76 202 -37 25 -59 28 -82 10z"
       id="path250"
       style="fill:#708090" />
    <path
       d="M2709 1579 c49 -108 71 -188 71 -257 0 -54 -4 -71 -26 -99 -64 -84 -261 -136 -654 -174 -47 -5 94 -18 197 -18 199 -1 338 25 525 99 119 47 149 75 156 149 6 66 -10 114 -74 222 -77 127 -78 128 -157 136 l-67 6 29 -64z"
       id="path252"
       style="fill:#87cefa" />
    <path
       d="M7130 1610 c-14 -11 -31 -20 -37 -20 -23 0 -14 -20 15 -31 29 -11 190 -7 256 8 43 9 68 35 50 53 -7 7 -28 6 -70 -6 -101 -28 -102 -28 -116 -5 -17 27 -64 27 -98 1z"
       id="path254"
       style="fill:#2f4f4f" />
    <path
       d="M2906 1598 c4 -7 19 -31 34 -53 15 -22 41 -70 59 -106 35 -76 42 -163 16 -225 -14 -34 -11 -64 6 -64 16 0 49 -64 49 -93 0 -28 0 -28 48 -21 26 3 49 8 51 10 2 2 -3 21 -12 41 -15 36 -32 91 -79 258 -35 124 -68 192 -109 230 -38 34 -78 49 -63 23z"
       id="path256"
       style="fill:#c0c0c0" />
    <path
       d="M6914 1557 c111 -70 164 -124 326 -332 191 -245 205 -352 72 -555 -30 -47 -63 -99 -73 -117 -30 -54 -59 -153 -59 -205 l0 -48 52 -25 c29 -14 58 -23 65 -21 9 4 13 31 13 90 0 128 20 209 84 346 65 140 69 276 11 389 -29 59 -157 219 -270 338 -66 71 -101 100 -150 123 -62 30 -109 41 -71 17z"
       id="path258"
       style="fill:#b0c4de" />
    <path
       d="M3112 1508 l-21 -23 28 -95 c28 -94 29 -95 77 -123 27 -16 69 -48 94 -71 61 -57 88 -69 161 -70 49 -1 64 3 73 17 9 15 3 25 -42 64 -45 39 -132 149 -132 168 0 18 -73 110 -103 131 -47 32 -106 32 -135 2z"
       id="path260"
       style="fill:#cd853f" />
    <path
       d="M6083 1515 c-5 -16 81 -125 105 -133 18 -6 15 64 -4 94 -17 24 -62 54 -84 54 -6 0 -13 -7 -17 -15z"
       id="path262" />
    <path
       d="M7180 1453 c8 -11 48 -59 88 -105 171 -198 218 -282 228 -400 4 -43 2 -103 -5 -142 l-12 -67 28 -22 c46 -38 105 -68 180 -93 100 -34 103 -33 103 22 0 63 -21 146 -87 338 -41 118 -88 234 -114 280 -6 10 -20 35 -31 55 -11 20 -36 57 -54 82 l-34 47 -108 6 c-59 3 -127 8 -152 12 -43 6 -44 6 -30 -13z"
       id="path264"
       style="fill:#5f9ea0" />
    <path
       d="M6675 1433 c-35 -10 -65 -35 -71 -59 -5 -18 5 -41 35 -87 59 -90 82 -165 84 -267 1 -80 -1 -89 -36 -154 -55 -102 -47 -171 31 -257 49 -55 156 -112 200 -107 41 5 42 52 3 123 -20 36 -31 71 -31 95 0 49 20 61 136 83 91 17 168 50 189 80 41 59 1 114 -134 187 -46 24 -90 54 -98 66 -21 32 0 69 53 94 32 14 44 26 44 42 0 39 -48 86 -126 124 -66 31 -85 36 -167 39 -50 2 -101 1 -112 -2z"
       id="path266"
       style="fill:#b0c4de" />
    <path
       d="M7780 1380 c-25 -25 -27 -88 -3 -133 9 -18 33 -54 54 -82 52 -71 74 -141 109 -365 19 -122 41 -243 50 -270 4 -14 13 -45 20 -70 25 -93 99 -244 144 -296 32 -37 33 -38 67 -24 71 29 149 82 213 144 l66 65 0 253 0 254 -33 12 c-18 7 -65 12 -104 12 -75 0 -115 14 -140 49 -18 27 -5 75 38 138 47 67 36 94 -29 71 -33 -11 -139 -72 -168 -96 -24 -21 -57 -33 -71 -28 -13 5 -15 18 -9 74 3 37 9 82 12 101 l7 33 -61 -7 c-66 -7 -97 2 -107 34 -6 19 -3 27 24 79 10 19 9 28 -4 48 -19 29 -48 31 -75 4z"
       id="path268"
       style="fill:#5f9ea0" />
    <path
       d="M7120 1276 c0 -36 -37 -77 -81 -91 -37 -12 -15 -39 66 -83 108 -57 156 -106 162 -164 5 -40 2 -49 -26 -80 -37 -43 -95 -71 -176 -87 -121 -25 -135 -30 -135 -55 0 -12 13 -47 30 -77 21 -38 30 -68 30 -102 0 -44 -2 -48 -35 -64 -31 -15 -41 -15 -83 -4 -85 24 -88 23 -32 -14 71 -47 226 -123 268 -131 31 -6 32 -5 32 24 0 80 39 182 115 298 156 239 152 291 -41 552 -46 61 -86 112 -89 112 -3 0 -5 -15 -5 -34z"
       id="path270"
       style="fill:#b0c4de" />
    <path
       d="M2900 1103 c-149 -67 -314 -110 -452 -119 -124 -8 -126 -9 -86 -41 59 -49 98 -97 126 -153 24 -50 27 -65 26 -160 0 -81 -6 -118 -22 -164 -12 -33 -20 -61 -17 -64 7 -7 94 69 157 136 31 33 75 95 98 139 88 159 152 236 249 297 34 22 41 32 41 59 0 18 -7 43 -16 55 -27 39 -45 42 -104 15z"
       id="path272"
       style="fill:#778899" />
    <path
       d="M3103 975 c-114 -35 -214 -126 -293 -265 -72 -127 -100 -168 -166 -239 l-56 -60 74 26 c40 14 86 37 102 52 15 14 70 90 122 167 125 191 190 244 293 244 37 0 53 5 69 23 30 31 28 43 -9 56 -41 14 -83 13 -136 -4z"
       id="path274"
       style="fill:#87cefa" />
    <path
       d="M3413 971 c-84 -21 -157 -104 -197 -223 -8 -24 -27 -110 -41 -193 -46 -261 -99 -385 -224 -517 l-35 -38 35 0 c28 0 43 9 80 48 57 58 74 84 133 197 46 87 48 95 57 207 17 215 69 342 171 417 36 27 50 31 105 31 88 0 141 -27 206 -105 63 -76 127 -120 204 -140 50 -14 76 -14 188 -4 150 13 195 6 249 -42 56 -49 71 -109 71 -279 -1 -158 -14 -222 -60 -292 -40 -60 -5 -47 42 15 108 143 147 321 103 469 -17 57 -72 130 -123 162 -64 39 -115 47 -196 29 -36 -8 -91 -17 -122 -20 -71 -7 -117 15 -185 90 -76 82 -133 121 -227 155 -91 33 -183 46 -234 33z"
       id="path276"
       style="fill:#87cefa" />
    <path
       d="M3095 841 c-50 -31 -85 -71 -163 -191 -42 -63 -89 -132 -105 -152 -22 -29 -25 -38 -13 -38 9 0 30 -13 48 -29 31 -27 33 -33 31 -91 -2 -82 -27 -180 -68 -265 -35 -74 -30 -94 17 -58 108 84 188 197 229 325 19 61 27 98 64 292 15 78 34 145 60 209 6 14 1 17 -31 17 -22 0 -52 -8 -69 -19z"
       id="path278"
       style="fill:#778899" />
    <path
       d="M3398 821 c-72 -64 -138 -239 -138 -368 l0 -35 44 39 c71 63 125 86 200 86 106 -1 183 -43 256 -140 99 -132 135 -150 314 -162 74 -5 144 -15 157 -21 41 -21 78 -62 90 -98 10 -30 13 -33 21 -17 36 63 49 256 26 369 -10 47 -21 69 -49 97 -45 45 -87 53 -216 38 -199 -22 -297 11 -415 142 -81 89 -116 109 -193 109 -47 0 -57 -4 -97 -39z"
       id="path280"
       style="fill:#778899" />
    <path
       d="M5230 710 c-30 -10 -77 -31 -103 -45 -40 -23 -47 -31 -41 -49 14 -46 18 -47 54 -20 82 62 172 80 244 50 64 -27 96 -79 121 -197 13 -60 13 -86 4 -148 -10 -65 -9 -83 5 -124 9 -26 16 -77 16 -112 0 -36 4 -65 9 -65 14 0 22 71 28 250 6 181 -5 270 -42 355 -51 114 -158 153 -295 105z"
       id="path282"
       style="fill:#87cefa" />
    <path
       d="M4735 630 c-55 -22 -122 -43 -148 -46 -44 -6 -48 -9 -42 -28 53 -169 17 -369 -91 -513 -29 -39 -30 -43 -3 -43 13 0 38 18 61 45 22 25 53 52 69 61 27 13 29 19 29 69 0 158 84 311 198 362 76 33 137 28 204 -19 35 -25 38 -23 38 17 0 51 -22 87 -68 113 -62 34 -127 30 -247 -18z"
       id="path284"
       style="fill:#87cefa" />
    <path
       d="M5237 606 c-75 -27 -124 -77 -137 -141 -8 -39 -35 -44 -68 -12 -64 59 -154 78 -218 44 -50 -26 -103 -88 -125 -147 -27 -70 -46 -187 -33 -200 5 -5 88 -11 184 -12 l175 -3 110 52 c173 82 239 98 300 74 35 -15 45 6 45 93 0 128 -37 223 -96 251 -39 18 -86 19 -137 1z"
       id="path286"
       style="fill:#778899" />
    <path
       d="M6195 554 c-205 -24 -450 -45 -515 -43 -51 2 -65 -1 -65 -12 0 -30 419 -20 570 14 28 6 115 11 195 11 143 1 146 1 210 -31 36 -18 81 -46 100 -64 153 -137 199 -162 390 -219 41 -13 101 -36 134 -52 63 -32 151 -108 161 -139 5 -14 16 -19 41 -19 l35 0 -17 32 c-23 45 -98 122 -154 158 -26 17 -101 50 -166 74 -141 51 -173 67 -324 159 -233 142 -328 163 -595 131z"
       id="path288"
       style="fill:#708090" />
    <path
       d="M6758 503 c7 -3 16 -2 19 1 4 3 -2 6 -13 5 -11 0 -14 -3 -6 -6z"
       id="path290" />
    <path
       d="M3415 480 c-78 -41 -130 -102 -205 -245 -60 -112 -98 -171 -129 -199 -11 -11 -21 -23 -21 -28 0 -4 274 -8 609 -8 l609 0 7 40 c5 29 2 50 -12 77 -27 56 -71 73 -223 83 -161 10 -202 28 -277 121 -122 149 -152 170 -253 176 -52 3 -73 0 -105 -17z"
       id="path292"
       style="fill:#a9a9a9" />
    <path
       d="M6175 469 c-78 -13 -195 -22 -336 -26 l-215 -6 4 -117 c3 -80 -1 -148 -12 -213 -9 -52 -16 -97 -16 -101 0 -3 41 -6 91 -6 l91 0 -50 55 c-90 98 -94 218 -9 273 41 26 44 27 167 23 267 -9 286 -7 390 34 148 58 230 58 301 -2 87 -74 98 -232 24 -341 l-25 -37 371 -3 c205 -1 374 0 376 2 9 9 -23 45 -73 81 -55 40 -116 66 -244 105 -131 40 -208 83 -305 170 -114 102 -160 122 -305 126 -71 2 -144 -3 -225 -17z"
       id="path294"
       style="fill:#778899" />
    <path
       d="M7460 442 c-27 -13 -42 -33 -66 -82 -17 -36 -34 -83 -37 -106 -6 -38 -4 -43 44 -95 29 -30 65 -78 81 -106 l30 -53 204 0 204 0 0 38 c0 53 -27 159 -51 202 -22 39 -64 70 -96 70 -46 0 -98 25 -150 72 -44 40 -105 78 -125 78 -2 0 -19 -8 -38 -18z"
       id="path296"
       style="fill:#5f9ea0" />
    <path
       d="M6385 381 c-16 -5 -55 -18 -85 -31 -127 -52 -200 -60 -359 -39 -165 23 -231 -6 -231 -101 0 -65 15 -93 85 -158 l57 -52 339 0 339 0 30 47 c17 26 38 71 47 101 36 115 -31 227 -142 237 -28 2 -63 0 -80 -4z"
       id="path298"
       style="fill:#a9a9a9" />
    <path
       d="M5275 211 c-27 -9 -88 -36 -135 -58 -47 -23 -100 -46 -119 -52 -43 -14 -147 -14 -226 -1 -42 7 -75 7 -110 -1 -60 -13 -131 -52 -145 -79 -11 -20 -5 -20 470 -20 l480 0 0 65 c0 87 -19 132 -64 150 -45 19 -88 18 -151 -4z"
       id="path300"
       style="fill:#a9a9a9" />
  </g>
</svg>
