<?xml version="1.0" encoding="UTF-8" standalone="no"?>
<svg
   xmlns:dc="http://purl.org/dc/elements/1.1/"
   xmlns:cc="http://creativecommons.org/ns#"
   xmlns:rdf="http://www.w3.org/1999/02/22-rdf-syntax-ns#"
   xmlns:svg="http://www.w3.org/2000/svg"
   xmlns="http://www.w3.org/2000/svg"
   xmlns:sodipodi="http://sodipodi.sourceforge.net/DTD/sodipodi-0.dtd"
   xmlns:inkscape="http://www.inkscape.org/namespaces/inkscape"
   version="1.0"
   width="850.000000pt"
   height="850.000000pt"
   viewBox="0 0 850.000000 850.000000"
   preserveAspectRatio="xMidYMid meet"
   id="svg170"
   sodipodi:docname="bible558.svg"
   inkscape:version="0.92.2 5c3e80d, 2017-08-06">
  <defs
     id="defs174" />
  <sodipodi:namedview
     pagecolor="#ffffff"
     bordercolor="#666666"
     borderopacity="1"
     objecttolerance="10"
     gridtolerance="10"
     guidetolerance="10"
     inkscape:pageopacity="0"
     inkscape:pageshadow="2"
     inkscape:window-width="1920"
     inkscape:window-height="978"
     id="namedview172"
     showgrid="false"
     inkscape:zoom="0.41647059"
     inkscape:cx="573.75086"
     inkscape:cy="526.38762"
     inkscape:window-x="0"
     inkscape:window-y="1"
     inkscape:window-maximized="1"
     inkscape:current-layer="svg170" />
  <metadata
     id="metadata2">
Created by potrace 1.14, written by Peter Selinger 2001-2017
<rdf:RDF>
  <cc:Work
     rdf:about="">
    <dc:format>image/svg+xml</dc:format>
    <dc:type
       rdf:resource="http://purl.org/dc/dcmitype/StillImage" />
  </cc:Work>
</rdf:RDF>
</metadata>
  <g
     transform="translate(0.000000,850.000000) scale(0.100000,-0.100000)"
     fill="#000000"
     stroke="none"
     id="g168">
    <path
       d="M0 4250 l0 -4250 4250 0 4250 0 0 4250 0 4250 -4250 0 -4250 0 0 -4250z m3886 3613 c154 -45 232 -102 255 -185 62 -232 -373 -460 -881 -460 -282 -1 -503 83 -550 208 -65 169 175 360 550 438 172 35 165 35 355 31 153 -2 180 -6 271 -32z m2632 -360 c36 -17 79 -55 105 -92 l16 -24 42 38 c23 20 70 51 106 67 54 26 73 30 120 26 50 -4 60 -9 94 -45 85 -92 52 -248 -88 -418 -56 -68 -256 -235 -282 -235 -21 0 -230 216 -281 290 -130 191 -119 353 27 406 42 15 90 11 141 -13z m-2073 -389 c39 -10 126 -47 195 -83 281 -146 257 -136 335 -135 97 1 150 26 149 69 0 17 -2 37 -5 45 -7 25 39 23 86 -4 87 -51 125 -138 91 -204 -13 -26 -49 -56 -104 -88 -2 -1 11 -17 29 -35 184 -197 256 -425 215 -684 -42 -269 -50 -360 -38 -417 17 -74 62 -119 121 -120 55 -1 74 16 68 61 -2 20 -7 43 -11 53 -11 24 25 32 66 15 41 -17 104 -87 130 -144 l19 -43 147 0 c232 0 454 31 988 136 200 40 221 34 189 -54 -53 -143 -388 -343 -745 -446 l-55 -16 90 5 c50 2 144 14 210 26 156 27 290 23 353 -10 39 -20 43 -25 37 -49 -14 -57 -83 -105 -218 -154 -78 -28 -273 -93 -347 -115 -32 -10 -28 -11 44 -12 59 -1 91 -6 123 -22 44 -21 79 -69 69 -94 -2 -7 -42 -32 -88 -54 -105 -52 -195 -70 -533 -112 -44 -5 -105 -7 -135 -4 l-55 5 45 -21 c59 -27 196 -66 276 -79 257 -41 482 -208 604 -450 123 -242 127 -645 10 -986 -11 -31 -20 -60 -20 -64 0 -4 21 -15 47 -25 57 -22 138 -99 178 -172 l29 -52 89 0 c48 0 106 -5 129 -12 108 -29 223 -100 292 -181 100 -116 132 -269 86 -406 -13 -37 -30 -78 -39 -92 -94 -151 -251 -278 -427 -345 -88 -35 -276 -45 -364 -22 l-55 15 -35 -38 c-25 -27 -42 -61 -57 -112 -36 -121 -91 -160 -228 -161 -96 -1 -141 20 -246 112 -37 32 -83 68 -103 81 l-37 22 -17 -23 c-61 -87 -191 -184 -323 -240 -280 -120 -672 -193 -903 -169 -94 10 -214 31 -247 45 -14 5 -16 -6 -11 -112 4 -113 3 -121 -22 -170 -58 -116 -130 -167 -236 -168 -116 0 -197 66 -243 200 -16 44 -37 99 -49 122 -18 38 -23 41 -41 32 -45 -25 -249 -77 -343 -89 -121 -14 -229 -2 -313 36 l-54 24 -111 -44 c-263 -105 -588 -132 -821 -70 -144 39 -304 135 -395 237 l-35 39 -135 -17 c-227 -29 -399 -9 -552 64 -217 103 -366 285 -414 505 -20 93 -15 244 11 341 41 153 133 278 251 345 33 18 95 68 139 110 159 151 298 220 509 255 150 24 323 7 435 -44 l45 -20 53 49 c116 106 237 168 349 177 l60 5 12 83 c10 70 10 92 -3 141 -8 32 -15 76 -15 97 l0 40 -44 -41 c-81 -75 -166 -102 -318 -102 -66 0 -81 3 -99 21 -11 11 -18 27 -15 36 3 8 6 18 6 21 0 4 14 23 31 42 52 59 120 153 114 158 -3 3 -15 -4 -28 -15 -81 -73 -258 -143 -359 -143 -100 0 -194 51 -181 99 7 29 51 65 127 106 81 43 164 105 222 167 49 51 114 136 114 148 0 5 -28 -9 -62 -32 -93 -62 -261 -143 -368 -177 -119 -38 -133 -41 -250 -47 -104 -6 -172 8 -178 38 -6 31 66 95 161 144 86 44 222 132 215 140 -2 1 -36 -6 -77 -16 -81 -22 -169 -33 -376 -51 -148 -12 -262 -3 -334 27 -31 13 -33 17 -27 46 12 59 61 96 171 129 l60 17 -45 1 c-96 2 -349 23 -421 36 -94 16 -143 38 -170 77 -20 28 -20 30 -4 48 58 64 138 87 421 120 250 29 266 35 109 43 -207 9 -491 74 -629 144 -97 49 -156 110 -156 161 0 24 12 26 320 46 316 21 455 34 580 52 114 16 311 57 355 74 54 20 233 60 272 60 122 0 248 -67 402 -214 58 -55 118 -111 132 -124 l26 -22 1 64 c0 36 5 74 12 85 10 20 8 21 -32 21 -55 0 -141 40 -191 88 -43 41 -110 165 -128 236 -16 63 -4 77 59 69 75 -9 117 15 148 81 30 65 31 141 2 231 -10 33 -32 138 -48 234 -85 499 8 864 290 1141 182 179 399 276 669 301 109 10 135 9 179 -4 l52 -15 -20 33 c-14 22 -17 36 -10 40 18 11 162 7 215 -6 58 -14 155 -60 174 -83 11 -13 19 -8 64 40 51 56 137 114 170 114 29 0 30 -26 3 -69 -14 -22 -26 -43 -26 -46 0 -4 26 14 58 38 76 58 105 73 188 91 84 19 201 15 299 -10z m3764 -2218 c39 -37 75 -126 68 -168 -23 -157 -107 -310 -259 -473 l-65 -69 -77 48 c-105 66 -209 149 -279 225 -126 137 -146 254 -58 342 52 52 103 66 172 45 30 -8 77 -32 103 -53 46 -35 48 -36 59 -18 19 36 102 110 147 133 64 33 148 27 189 -12z"
       id="path4"
       style="fill:none" />
    <path
       d="M3415 7840 c-27 -4 -74 -11 -104 -15 -163 -21 -392 -118 -484 -204 -149 -139 -78 -264 188 -332 77 -20 115 -23 255 -23 142 0 183 4 293 28 252 54 441 148 508 254 84 133 -29 245 -291 287 -99 16 -278 18 -365 5z m331 -85 c106 -19 168 -52 192 -101 16 -34 15 -37 -6 -77 -64 -120 -363 -218 -667 -218 -236 0 -370 56 -367 153 4 159 505 302 848 243z"
       id="path6"
       style="fill:#7cfc00" />
    <path
       d="M3420 7714 c-326 -60 -499 -145 -466 -229 3 -9 32 -28 63 -43 57 -27 62 -27 258 -27 186 0 208 2 306 27 139 36 246 86 287 132 37 42 37 44 17 73 -30 43 -125 65 -290 68 -82 2 -161 1 -175 -1z"
       id="path8"
       style="fill:none" />
    <path
       d="M6385 7466 c-95 -41 -95 -181 2 -325 41 -63 230 -261 248 -261 22 0 140 96 205 168 113 122 167 237 153 326 -9 57 -50 96 -100 96 -53 0 -153 -50 -213 -106 -28 -26 -52 -45 -53 -43 -2 2 -13 20 -25 39 -31 52 -72 87 -121 105 -52 18 -57 18 -96 1z m241 -193 c21 -14 26 -13 57 11 51 39 119 37 158 -5 33 -35 36 -66 13 -114 -23 -48 -101 -122 -160 -151 l-51 -25 -39 22 c-91 52 -144 121 -144 190 0 63 7 79 43 94 33 14 82 5 123 -22z"
       id="path10"
       style="fill:#dc143c" />
    <path
       d="M6725 7248 c-11 -6 -32 -22 -47 -36 l-28 -26 -24 23 c-29 27 -94 47 -108 33 -30 -30 35 -143 102 -177 24 -12 31 -12 66 6 56 29 124 105 124 138 0 47 -39 65 -85 39z"
       id="path12"
       style="fill:#dc143c" />
    <path
       d="M4109 7057 c-108 -37 -217 -123 -249 -194 l-18 -41 26 8 c15 4 50 17 77 28 28 11 82 25 122 31 92 14 563 14 654 0 39 -6 73 -9 75 -6 8 7 -258 145 -326 168 -49 17 -93 23 -180 26 -100 3 -124 0 -181 -20z"
       id="path14"
       style="fill:#191970" />
    <path
       d="M3776 6965 l-63 -65 -24 19 c-69 53 -203 96 -283 89 l-38 -3 45 -61 c44 -59 46 -61 99 -67 30 -3 88 -19 129 -37 44 -19 82 -29 96 -25 32 8 73 64 93 126 10 30 21 62 25 72 15 35 -17 16 -79 -48z"
       id="path16"
       style="fill:#00008b" />
    <path
       d="M5180 6941 c0 -10 -15 -32 -33 -48 -44 -39 -164 -62 -235 -45 -26 6 -48 9 -50 7 -5 -5 150 -81 204 -100 52 -18 52 -18 108 5 63 25 86 50 86 93 0 35 -24 83 -49 97 -27 14 -31 13 -31 -9z"
       id="path18"
       style="fill:#191970" />
    <path
       d="M3045 6933 c-83 -18 -189 -47 -234 -64 -229 -84 -419 -254 -527 -470 -86 -172 -116 -319 -113 -562 2 -166 8 -172 28 -32 14 96 60 255 99 345 136 313 262 450 547 593 157 79 284 126 405 150 l105 22 -50 11 c-48 12 -220 16 -260 7z"
       id="path20"
       style="fill:#00008b" />
    <path
       d="M3275 6846 c-204 -43 -488 -173 -635 -292 -172 -139 -307 -388 -377 -694 -23 -103 -26 -136 -26 -320 -1 -163 3 -217 16 -265 30 -104 17 -189 -40 -263 l-26 -34 24 7 c81 24 228 161 249 232 6 21 15 95 20 165 11 160 25 251 63 403 115 466 415 879 751 1036 92 43 89 47 -19 25z"
       id="path22"
       style="fill:#191970" />
    <path
       d="M4095 6840 c-63 -10 -163 -39 -170 -49 -2 -5 57 -11 133 -13 191 -7 551 -80 709 -143 211 -85 380 -258 459 -470 15 -38 51 -118 80 -178 30 -59 55 -120 55 -135 1 -15 7 1 16 38 8 40 14 128 15 225 1 150 0 165 -26 240 -67 194 -132 270 -287 334 -57 24 -143 63 -190 88 -122 63 -188 73 -494 71 -137 0 -272 -4 -300 -8z"
       id="path24"
       style="fill:#191970" />
    <path
       d="M3367 6796 c-191 -79 -370 -236 -520 -457 -65 -96 -185 -324 -176 -334 12 -11 192 160 284 271 126 150 203 227 285 285 77 54 237 143 332 184 76 33 76 46 3 64 -70 18 -144 13 -208 -13z"
       id="path26"
       style="fill:#00008b" />
    <path
       d="M3675 6725 c-69 -20 -262 -115 -363 -181 -110 -72 -168 -127 -322 -309 -71 -82 -158 -174 -195 -204 -164 -134 -257 -356 -257 -621 -1 -132 17 -212 64 -288 27 -43 33 -35 11 14 -12 27 -16 66 -16 129 0 107 32 203 112 343 99 174 403 571 542 711 64 63 375 314 478 384 49 34 51 37 25 36 -16 0 -51 -7 -79 -14z"
       id="path28"
       style="fill:#191970" />
    <path
       d="M3945 6722 c26 -26 387 -258 435 -280 30 -13 120 -47 200 -74 80 -27 181 -67 226 -89 80 -39 214 -140 214 -160 0 -6 13 -27 30 -45 54 -62 111 -196 130 -307 l17 -102 14 60 c7 33 13 107 12 165 -2 200 -81 387 -223 530 -128 127 -283 195 -580 254 -191 39 -496 69 -475 48z"
       id="path30"
       style="fill:#00008b" />
    <path
       d="M3844 6658 c-35 -102 -19 -234 51 -419 18 -47 49 -110 68 -140 19 -30 49 -83 68 -119 18 -36 50 -85 71 -109 61 -71 109 -177 116 -257 l5 -68 33 38 c53 62 69 103 68 181 -1 59 -6 80 -34 135 -18 36 -49 85 -68 109 -43 53 -16 42 46 -18 23 -23 42 -38 42 -34 0 4 -12 45 -26 92 -36 120 -112 270 -207 413 -75 112 -188 248 -207 248 -5 0 -16 -24 -26 -52z"
       id="path32"
       style="fill:#191970" />
    <path
       d="M4086 6548 c5 -7 36 -56 70 -108 124 -192 182 -341 221 -570 8 -42 11 -47 63 -72 40 -20 87 -31 176 -43 239 -30 380 -95 461 -213 35 -50 38 -52 44 -31 13 47 9 185 -7 240 -26 86 -68 161 -121 212 -65 63 -105 88 -191 122 -39 16 -70 30 -68 33 10 9 153 -41 197 -69 26 -16 70 -54 98 -84 28 -29 51 -52 51 -49 0 3 -10 24 -21 47 -58 114 -171 221 -289 274 -30 14 -120 47 -199 75 -181 63 -262 101 -386 183 -55 36 -101 65 -103 65 -2 0 0 -6 4 -12z"
       id="path34"
       style="fill:#00008b" />
    <path
       d="M3746 6449 c-32 -145 -36 -185 -43 -391 -6 -207 -6 -208 20 -265 42 -96 62 -197 50 -254 -13 -66 1 -64 74 9 106 105 153 201 153 312 0 66 -12 96 -80 201 -59 92 -139 314 -141 394 -1 73 -16 71 -33 -6z"
       id="path36"
       style="fill:#00008b" />
    <path
       d="M3465 6433 c-134 -103 -226 -198 -372 -380 -231 -288 -370 -503 -419 -650 -21 -64 -25 -91 -22 -158 3 -69 9 -92 45 -166 31 -66 50 -93 79 -113 21 -14 39 -24 41 -23 1 2 -6 21 -17 42 -56 111 -63 284 -16 430 31 97 62 137 165 209 157 111 290 255 392 427 22 37 69 133 105 215 35 82 78 170 94 197 16 26 28 47 27 47 -1 0 -47 -35 -102 -77z"
       id="path38"
       style="fill:#00008b" />
    <path
       d="M3588 6438 c-20 -35 -62 -121 -93 -193 -133 -311 -285 -504 -532 -677 -81 -57 -113 -106 -138 -209 -18 -79 -19 -208 -1 -274 26 -99 118 -245 153 -245 8 0 37 10 64 21 l49 21 -32 17 c-39 19 -78 91 -85 155 -7 58 19 134 66 194 21 26 83 86 137 132 155 132 222 202 250 265 32 70 54 148 54 197 0 94 97 509 145 625 23 54 2 38 -37 -29z"
       id="path40"
       style="fill:#00008b" />
    <path
       d="M3672 6438 c-55 -141 -104 -343 -128 -528 -17 -136 -39 -231 -65 -282 -20 -40 -25 -88 -9 -88 17 0 100 113 138 189 l37 75 7 240 c5 216 21 373 43 429 4 9 5 17 2 17 -2 0 -14 -24 -25 -52z"
       id="path42"
       style="fill:#191970" />
    <path
       d="M5275 5815 c-8 -99 -27 -180 -86 -364 -21 -68 -39 -127 -39 -132 0 -5 19 -9 43 -9 43 0 77 -17 109 -55 17 -20 17 -19 12 15 -3 19 -7 44 -9 54 -2 10 3 96 12 189 17 180 12 282 -20 358 -14 34 -14 33 -22 -56z"
       id="path44"
       style="fill:#00008b" />
    <path
       d="M4048 5803 c-11 -112 -97 -250 -210 -335 -40 -31 -59 -38 -94 -38 -55 0 -66 19 -35 60 30 41 29 136 -3 220 l-23 63 -36 -75 c-55 -115 -176 -246 -213 -231 -8 3 -17 23 -20 44 l-7 39 -31 -41 c-18 -22 -84 -87 -146 -145 -183 -168 -222 -233 -201 -328 16 -68 34 -91 74 -91 29 0 32 -3 30 -30 -3 -40 -31 -76 -80 -101 l-42 -21 27 -37 c34 -48 44 -152 18 -191 -26 -40 -60 -33 -109 23 -84 95 -113 118 -170 136 -90 28 -158 5 -176 -59 -21 -77 45 -232 139 -325 113 -113 232 -141 292 -69 l28 33 0 -26 c0 -27 -9 -22 183 -104 180 -76 349 -119 436 -111 111 11 192 35 230 70 82 74 210 127 306 127 28 0 108 -11 176 -26 328 -67 321 -67 400 -13 202 137 329 331 329 502 0 61 -8 96 -55 232 -66 190 -85 291 -85 446 0 160 -4 174 -58 211 -63 44 -161 74 -299 93 -71 10 -139 26 -172 41 -29 13 -55 24 -56 24 -2 0 -6 -19 -10 -42 -15 -88 -74 -179 -153 -235 -80 -58 -117 -38 -80 43 16 37 19 58 14 97 -7 50 -57 162 -93 206 l-20 24 -5 -60z m755 -257 c77 -37 140 -121 101 -133 -5 -1 -21 14 -36 35 -14 21 -47 48 -73 61 -40 20 -60 23 -149 22 -57 -1 -118 -6 -137 -11 -49 -14 -59 -12 -59 10 0 14 11 22 43 30 23 6 47 13 52 15 6 2 53 3 105 2 82 -2 103 -6 153 -31z m-964 -155 c7 -5 11 -15 9 -22 -3 -10 -28 -14 -89 -14 -111 -1 -180 -28 -259 -102 -33 -30 -69 -70 -80 -89 -22 -34 -50 -46 -50 -20 0 24 79 134 119 166 21 16 64 43 96 60 51 27 66 30 149 30 50 0 97 -4 105 -9z m1088 -237 c6 -17 -54 -98 -93 -124 -73 -49 -274 -36 -282 18 -4 27 16 28 97 6 55 -16 62 -16 115 1 42 13 66 29 92 58 18 22 34 45 34 50 0 12 32 5 37 -9z m-577 -180 c8 -19 15 -24 30 -19 24 7 73 -17 94 -47 9 -13 16 -43 16 -71 0 -43 -5 -54 -35 -84 -28 -28 -41 -34 -67 -31 -50 5 -49 34 1 42 44 7 61 27 61 73 -1 75 -80 92 -127 27 -30 -41 -48 -22 -23 26 11 22 20 55 20 75 0 41 16 46 30 9z m-292 -16 c5 -28 -79 -121 -138 -151 -50 -26 -62 -28 -140 -25 -92 5 -145 25 -189 72 -19 20 -22 29 -13 38 9 9 16 8 29 -5 63 -57 207 -76 283 -37 21 11 60 45 86 75 47 54 76 66 82 33z m971 -124 c41 -52 23 -152 -38 -209 -28 -26 -40 -30 -107 -33 -84 -5 -124 7 -154 46 -47 60 -10 129 99 185 58 29 85 37 127 37 45 0 56 -4 73 -26z m-1319 -200 c168 -39 236 -138 158 -228 -55 -62 -162 -80 -319 -52 -134 24 -184 66 -176 149 11 121 151 175 337 131z m-884 -15 c35 -21 84 -93 84 -122 0 -12 -9 -17 -29 -17 -16 0 -34 -6 -40 -14 -17 -20 3 -64 35 -78 22 -10 28 -10 39 6 8 10 18 15 24 11 15 -9 14 -21 -6 -40 -37 -38 -133 19 -133 79 0 31 24 66 47 66 22 0 15 26 -16 59 -20 21 -38 31 -58 31 -38 0 -53 -16 -53 -57 0 -35 -14 -44 -24 -17 -14 36 -6 73 20 93 34 27 68 27 110 0z m1454 -28 c3 -13 13 -29 21 -34 25 -15 69 0 79 28 10 26 34 33 45 14 22 -34 -40 -99 -93 -99 -54 0 -114 65 -98 106 9 23 39 13 46 -15z"
       id="path46"
       style="fill:#deb887" />
    <path
       d="M4909 4801 c-20 -4 -57 -21 -83 -37 -66 -41 -75 -93 -21 -114 36 -14 105 -12 133 4 51 28 80 114 50 144 -13 13 -24 13 -79 3z"
       id="path48"
       style="fill:#ff4500" />
    <path
       d="M3512 4592 c-34 -5 -92 -65 -92 -95 0 -59 100 -99 245 -100 129 -1 195 37 178 103 -9 34 -110 79 -201 89 -77 9 -88 10 -130 3z"
       id="path50"
       style="fill:#ff4500" />
    <path
       d="M5640 5517 c0 -44 -40 -93 -86 -106 -37 -10 -95 7 -130 40 -20 19 -24 20 -24 6 0 -41 118 -137 167 -137 27 1 94 34 132 67 l34 29 -20 44 c-11 25 -32 56 -47 69 l-26 24 0 -36z"
       id="path52"
       style="fill:#0000ff" />
    <path
       d="M5031 5425 c1 -55 4 -122 7 -149 7 -47 7 -48 25 -28 10 10 25 46 33 80 15 59 15 61 -10 109 -51 101 -55 100 -55 -12z"
       id="path54"
       style="fill:#0000ff" />
    <path
       d="M6995 5505 c-65 -18 -292 -68 -425 -94 -200 -40 -418 -63 -597 -65 l-172 -1 -11 -64 c-6 -35 -20 -81 -30 -101 -33 -64 -124 -130 -180 -130 -17 0 -20 -6 -20 -41 0 -35 2 -40 18 -34 46 21 154 35 325 44 218 12 378 41 555 102 258 89 504 233 583 342 45 62 41 65 -46 42z"
       id="path56"
       style="fill:#87ceeb" />
    <path
       d="M5360 5320 c0 -23 17 -82 40 -139 49 -123 65 -240 56 -393 l-7 -107 45 -6 c95 -15 166 42 166 134 l0 29 -29 -29 c-36 -36 -70 -37 -102 -3 -23 24 -24 32 -25 157 -1 129 -2 134 -38 221 -33 79 -89 176 -101 176 -3 0 -5 -18 -5 -40z"
       id="path58"
       style="fill:#0000ff" />
    <path
       d="M5687 5313 c-54 -36 -117 -49 -170 -35 -21 6 -37 9 -37 8 0 -1 18 -43 39 -92 38 -88 39 -89 72 -86 82 7 154 101 147 194 l-3 43 -48 -32z"
       id="path60"
       style="fill:#0000ff" />
    <path
       d="M5155 5259 c-53 -16 -95 -64 -95 -108 0 -28 2 -27 43 14 22 22 45 35 61 35 31 0 66 -36 66 -69 0 -27 -7 -24 -24 11 -17 34 -42 33 -76 0 -37 -37 -38 -51 -5 -44 16 3 33 -2 45 -13 21 -19 27 -60 10 -70 -5 -3 -10 3 -10 13 0 11 -7 25 -15 32 -19 16 -45 -3 -45 -33 0 -26 42 -157 50 -157 14 0 80 79 104 124 31 59 36 157 10 211 -12 27 -68 69 -86 64 -1 0 -16 -5 -33 -10z"
       id="path62"
       style="fill:#deb887" />
    <path
       d="M2485 5150 c-21 -47 -123 -146 -190 -185 -32 -19 -67 -29 -118 -34 -71 -7 -72 -8 -42 -21 45 -21 171 -16 253 9 52 15 83 33 120 66 28 25 54 54 57 65 3 11 -7 42 -28 79 l-34 61 -18 -40z"
       id="path64"
       style="fill:#00008b" />
    <path
       d="M2592 4996 c-14 -32 -87 -89 -147 -115 -62 -28 -196 -46 -269 -37 -33 5 -70 17 -91 32 -44 30 -47 30 -34 2 13 -27 80 -72 139 -93 57 -20 177 -19 226 1 62 26 191 113 225 152 l32 36 -29 23 c-36 28 -38 28 -52 -1z"
       id="path66"
       style="fill:#00008b" />
    <path
       d="M5309 4968 c-13 -29 -48 -76 -77 -106 l-54 -53 -2 -97 c-2 -80 -7 -108 -30 -161 -31 -73 -64 -126 -120 -194 l-39 -48 53 31 c125 74 129 81 175 280 15 63 47 162 72 220 40 92 65 180 51 180 -3 0 -15 -23 -29 -52z"
       id="path68"
       style="fill:#0000ff" />
    <path
       d="M6675 5005 c-328 -51 -377 -53 -485 -25 -76 20 -188 24 -245 10 -20 -5 -23 -8 -10 -9 137 -9 399 -62 433 -87 16 -13 16 -15 -3 -29 -40 -32 -368 -114 -456 -116 -46 -1 -145 -16 -119 -18 57 -5 190 -97 190 -132 0 -36 -45 -50 -250 -73 -76 -9 -98 -14 -78 -19 56 -15 286 -28 373 -22 201 13 517 80 571 120 18 13 18 15 1 32 -15 16 -44 19 -245 24 -151 5 -245 12 -282 22 l-55 15 63 1 c105 2 493 114 752 217 59 23 120 63 120 79 0 26 -137 31 -275 10z"
       id="path70"
       style="fill:#87ceeb" />
    <path
       d="M5645 4964 c-38 -9 -76 -20 -82 -26 -17 -14 -16 -70 1 -93 12 -16 16 -17 30 -6 9 8 16 28 16 47 0 29 3 34 24 34 38 0 76 -52 76 -106 l0 -44 95 0 c67 0 136 9 233 29 140 30 281 67 290 76 14 14 -233 66 -388 80 -80 8 -163 16 -185 19 -22 3 -71 -2 -110 -10z"
       id="path72"
       style="fill:#add8e6" />
    <path
       d="M5384 4943 c-4 -16 -20 -57 -36 -93 -39 -85 -64 -164 -88 -278 -11 -51 -29 -114 -40 -140 -12 -27 -19 -56 -15 -70 7 -28 21 -21 28 15 3 16 33 60 65 100 85 103 92 126 99 324 6 160 2 204 -13 142z"
       id="path74"
       style="fill:#0000ff" />
    <path
       d="M2699 4924 c-27 -52 -190 -161 -289 -194 -73 -25 -169 -23 -234 4 -69 29 -31 -11 42 -44 29 -13 63 -20 102 -19 52 1 59 4 69 27 17 36 24 20 11 -25 -21 -72 -27 -147 -20 -252 6 -86 12 -116 34 -159 26 -51 91 -132 106 -132 12 0 20 152 9 172 -16 30 6 20 31 -14 40 -55 103 -130 139 -165 54 -55 177 -128 263 -159 l40 -14 -7 33 c-4 17 -18 49 -31 70 -13 20 -21 37 -17 37 5 0 40 -25 78 -54 39 -30 87 -64 108 -76 l39 -21 51 40 c29 22 71 50 95 64 l42 24 -72 28 c-40 16 -115 48 -166 72 -87 39 -96 42 -115 28 -12 -9 -44 -15 -73 -15 -151 0 -344 196 -380 388 -29 153 38 225 194 209 l55 -6 -46 47 c-26 26 -47 51 -47 55 0 15 86 -59 192 -165 58 -60 109 -108 112 -108 3 0 6 24 6 53 0 72 -32 125 -85 143 -22 7 -48 24 -58 38 -9 13 -43 39 -75 56 -31 18 -64 39 -73 46 -14 12 -17 11 -30 -12z"
       id="path76"
       style="fill:#00008b" />
    <path
       d="M1700 4740 c-25 -5 -99 -25 -165 -45 -135 -40 -377 -91 -475 -99 -36 -4 -112 -11 -170 -16 -58 -6 -216 -13 -352 -17 -137 -3 -248 -9 -248 -14 0 -10 66 -66 99 -83 105 -55 350 -121 498 -136 289 -27 400 -22 663 30 80 16 179 32 220 36 148 13 246 -33 395 -186 186 -191 307 -263 710 -423 139 -55 128 -55 165 5 18 29 43 64 56 77 30 30 30 33 -5 52 -24 14 -28 14 -27 2 2 -32 -27 -36 -100 -14 -125 37 -309 163 -367 251 -16 25 -16 24 -16 -31 -1 -74 -17 -89 -65 -60 -67 42 -144 151 -170 242 -15 50 -22 60 -84 105 -37 27 -113 95 -169 152 -83 83 -115 109 -175 137 -80 37 -148 48 -218 35z"
       id="path78"
       style="fill:#87ceeb" />
    <path
       d="M5669 4692 c-37 -54 -86 -75 -165 -70 -56 3 -63 2 -67 -17 -2 -11 -8 -29 -12 -39 -8 -18 -3 -19 156 -13 148 5 324 27 349 42 18 11 10 25 -31 55 -42 30 -119 63 -174 74 -26 5 -33 1 -56 -32z"
       id="path80"
       style="fill:#add8e6" />
    <path
       d="M5455 4519 c11 -7 37 -22 57 -33 61 -34 145 -113 157 -146 9 -28 8 -34 -14 -56 -15 -15 -36 -24 -57 -25 l-33 -1 33 -11 c27 -8 40 -7 70 8 68 33 205 75 244 75 48 0 49 12 1 29 -21 8 -108 47 -193 88 -130 62 -166 75 -220 79 -54 4 -62 3 -45 -7z"
       id="path82"
       style="fill:#add8e6" />
    <path
       d="M5355 4463 c-52 -63 -80 -112 -70 -121 3 -4 61 -17 128 -29 177 -33 227 -30 227 11 0 34 -85 108 -192 169 l-47 27 -46 -57z"
       id="path84"
       style="fill:#add8e6" />
    <path
       d="M1735 4360 c-119 -26 -453 -164 -541 -224 l-39 -26 172 0 c185 0 344 17 458 50 132 38 136 22 12 -42 -87 -45 -187 -132 -187 -162 0 -17 8 -18 103 -11 95 6 328 51 391 74 78 30 73 9 -23 -93 -81 -85 -127 -157 -117 -182 10 -27 78 -15 193 35 61 27 136 62 167 79 53 28 56 29 56 10 0 -11 -29 -89 -65 -172 -36 -83 -65 -155 -65 -160 0 -5 25 -6 55 -4 73 6 148 57 230 156 42 50 61 67 64 56 4 -23 -15 -121 -46 -231 -32 -112 -27 -123 54 -123 39 0 69 8 111 29 66 33 85 52 103 104 14 39 36 53 24 15 -3 -13 -9 -45 -11 -73 l-5 -50 40 85 c21 47 56 114 76 149 20 34 35 64 33 65 -1 1 -61 24 -133 50 -182 67 -399 175 -496 248 -46 33 -137 114 -204 178 -143 140 -192 168 -297 174 -40 3 -91 1 -113 -4z"
       id="path86"
       style="fill:#add8e6" />
    <path
       d="M5115 4328 c-47 -35 -134 -80 -189 -98 -40 -13 -115 -59 -116 -72 0 -13 102 -19 284 -14 222 7 239 14 201 84 -31 57 -33 59 -49 37 -12 -17 -16 -17 -31 -5 -9 7 -26 32 -38 55 l-22 42 -40 -29z"
       id="path88"
       style="fill:#87ceeb" />
    <path
       d="M1434 4309 c-39 -6 -90 -24 -140 -50 -114 -59 -222 -84 -438 -99 -76 -6 -166 -17 -198 -26 -63 -16 -128 -44 -128 -54 0 -18 86 -42 198 -55 294 -35 693 -38 750 -6 48 26 73 -15 28 -44 -14 -9 -60 -22 -103 -30 -116 -19 -363 -82 -401 -102 -18 -9 -38 -25 -43 -34 -8 -15 -2 -19 42 -28 73 -16 190 -13 394 8 193 21 302 47 445 106 117 49 120 54 18 30 -69 -16 -256 -24 -276 -11 -35 21 4 89 91 158 l52 41 -55 -7 c-30 -5 -84 -12 -120 -17 -36 -4 -136 -8 -222 -9 -219 0 -255 18 -155 77 65 40 225 114 295 137 28 10 52 19 52 22 0 5 -6 4 -86 -7z"
       id="path90"
       style="fill:#87ceeb" />
    <path
       d="M5308 4258 c36 -63 40 -98 14 -121 -15 -14 -40 -17 -123 -17 l-104 0 40 -21 c46 -23 88 -68 117 -123 l20 -39 101 99 c56 54 103 99 104 100 2 0 -23 27 -55 60 -32 32 -65 69 -73 81 -8 12 -28 25 -44 29 l-28 7 31 -55z"
       id="path92"
       style="fill:#87ceeb" />
    <path
       d="M5905 4264 c-103 -16 -267 -92 -376 -173 -129 -97 -285 -283 -434 -515 -90 -140 -91 -140 -228 -10 -114 107 -285 251 -334 279 -27 16 -38 17 -70 7 -21 -6 -59 -14 -85 -17 -32 -5 -54 -16 -72 -34 l-27 -28 43 -12 c167 -50 401 -187 611 -359 74 -60 79 -63 93 -45 8 10 35 47 61 83 251 346 383 482 548 565 113 56 186 75 295 75 188 0 369 -85 517 -243 113 -121 162 -237 170 -404 11 -217 -77 -465 -267 -751 -262 -393 -689 -761 -1030 -887 -103 -39 -204 -37 -405 5 -315 66 -495 141 -771 322 -358 235 -572 469 -688 751 -13 33 -17 36 -38 28 -13 -6 -49 -17 -80 -26 -32 -8 -58 -18 -58 -20 0 -33 117 -266 184 -367 l51 -77 96 -41 c179 -76 285 -150 366 -257 14 -18 49 -77 77 -130 l51 -97 105 -58 c58 -32 111 -56 119 -53 8 3 25 -2 38 -10 21 -14 25 -14 40 0 9 10 26 15 40 12 17 -3 33 4 54 26 26 25 35 29 66 24 20 -4 47 -17 60 -29 22 -20 24 -29 20 -73 -3 -27 -8 -59 -12 -71 -6 -18 4 -24 102 -57 59 -20 148 -48 197 -63 88 -26 89 -26 167 -10 90 18 155 20 217 6 42 -10 45 -9 195 76 296 169 489 310 695 509 299 288 478 587 572 954 36 137 50 360 32 501 -40 318 -222 557 -503 661 -77 29 -95 32 -229 34 -80 2 -158 1 -175 -1z"
       id="path94"
       style="fill:#ff1493" />
    <path
       d="M5455 4221 c45 -49 62 -55 92 -35 l26 17 -54 17 c-30 10 -63 21 -74 25 -16 6 -13 1 10 -24z"
       id="path96"
       style="fill:#add8e6" />
    <path
       d="M4086 4196 c-56 -21 -132 -76 -199 -143 -76 -77 -86 -93 -87 -127 0 -28 2 -27 39 25 35 48 140 149 155 149 15 0 1 -21 -54 -84 -88 -98 -148 -226 -106 -226 7 0 67 55 131 123 68 70 120 117 122 109 3 -7 -9 -28 -25 -46 -17 -19 -41 -69 -56 -113 -28 -85 -32 -113 -15 -113 6 0 59 46 117 101 104 99 145 129 158 116 4 -4 -7 -19 -23 -34 -38 -35 -65 -88 -61 -116 5 -38 37 -32 87 16 40 40 53 47 101 53 64 7 135 36 167 66 17 16 23 18 23 7 0 -8 -5 -20 -11 -26 -8 -8 3 -20 38 -44 77 -53 210 -166 310 -263 51 -49 94 -88 96 -85 29 46 186 275 209 307 l32 43 -22 43 c-30 55 -87 110 -132 125 -19 7 -91 17 -159 22 -180 14 -279 32 -431 79 -118 37 -150 43 -250 46 -84 3 -125 0 -154 -10z"
       id="path98"
       style="fill:#deb887" />
    <path
       d="M3330 3999 c-97 -48 -200 -143 -265 -244 -51 -79 -166 -305 -194 -380 -12 -33 -49 -111 -82 -173 -75 -141 -109 -242 -109 -319 0 -128 41 -252 96 -288 20 -13 41 -16 88 -13 77 6 159 53 242 140 l58 60 -27 15 c-37 19 -34 30 6 25 30 -3 38 1 66 37 26 33 40 41 79 47 26 4 64 15 85 26 69 34 39 68 -62 68 -92 0 -93 23 -1 87 51 36 83 83 67 99 -4 4 -48 -6 -97 -22 -93 -31 -114 -28 -57 6 34 21 77 35 140 45 45 7 50 33 11 64 -36 28 -116 28 -168 0 -46 -24 -53 -21 -26 14 25 31 75 47 148 47 28 0 52 4 52 9 0 15 -60 61 -88 67 -15 3 -33 7 -40 10 -18 5 -82 -23 -109 -48 -28 -26 -29 -19 -4 30 30 60 31 102 1 132 -34 34 -40 24 -40 -67 0 -68 -7 -110 -30 -188 -37 -124 -47 -230 -27 -302 8 -29 11 -53 7 -53 -18 0 -53 109 -58 178 -2 39 -7 72 -11 72 -3 0 -42 -26 -86 -58 -55 -39 -92 -76 -119 -115 -21 -32 -41 -56 -44 -53 -10 11 58 132 95 169 21 21 72 61 113 90 68 48 76 57 92 107 11 35 17 90 17 152 1 53 4 103 7 112 9 24 75 21 108 -5 l26 -20 10 25 c5 14 15 38 20 53 38 97 193 269 300 334 l63 37 -39 12 c-94 27 -123 24 -214 -21z"
       id="path100"
       style="fill:#d2b48c" />
    <path
       d="M3675 3977 c-195 -81 -338 -222 -410 -404 -37 -94 -39 -103 -18 -103 42 0 97 -24 133 -56 l39 -36 7 29 c37 169 150 327 277 387 54 25 70 47 46 62 -17 10 -5 88 20 123 21 29 21 31 4 31 -10 0 -54 -15 -98 -33z"
       id="path102"
       style="fill:#ff1493" />
    <path
       d="M5758 3986 c-128 -46 -222 -108 -326 -217 -52 -55 -245 -303 -344 -442 -55 -78 -78 -84 -124 -36 -76 80 -342 262 -492 338 -93 47 -232 92 -312 101 -70 8 -76 7 -103 -16 -22 -19 -39 -24 -66 -22 -31 3 -39 9 -56 44 l-20 42 -35 -24 c-37 -25 -79 -31 -97 -13 -18 18 -99 -25 -156 -84 -64 -66 -117 -171 -142 -287 -25 -114 -26 -284 -2 -365 95 -319 297 -561 682 -817 259 -172 452 -255 735 -317 262 -57 325 -53 502 33 144 69 308 184 465 325 381 344 639 762 682 1102 30 238 -83 454 -311 591 -111 68 -159 82 -293 85 -106 3 -128 1 -187 -21z m259 -217 c83 -40 161 -127 205 -229 31 -73 32 -79 32 -215 0 -135 -1 -143 -33 -220 -84 -205 -335 -528 -653 -840 -161 -159 -277 -259 -351 -304 -38 -23 -39 -23 -103 -8 -292 72 -950 455 -1183 688 -125 125 -198 306 -188 464 17 264 216 420 491 385 227 -29 407 -117 674 -332 68 -55 125 -98 127 -96 1 2 24 37 50 78 180 283 434 551 591 625 113 53 236 55 341 4z"
       id="path104"
       style="fill:#c71585" />
    <path
       d="M5760 3727 c-176 -50 -451 -344 -684 -729 -9 -16 -24 -28 -34 -28 -9 1 -66 44 -127 96 -194 168 -345 261 -520 320 -101 35 -119 38 -225 38 -111 1 -118 0 -182 -32 -115 -57 -181 -172 -181 -317 1 -166 79 -313 240 -451 243 -207 754 -499 1034 -590 l79 -26 44 26 c142 83 541 487 743 752 182 240 243 371 243 531 0 185 -58 306 -183 381 -46 28 -68 34 -129 38 -43 2 -92 -1 -118 -9z m-100 -488 c54 -33 89 -69 118 -124 24 -44 27 -61 27 -150 0 -96 -2 -104 -37 -176 -21 -42 -74 -124 -119 -183 -150 -197 -426 -465 -497 -483 -86 -21 -569 241 -741 402 -95 90 -136 177 -136 290 0 71 3 86 31 135 106 187 392 161 666 -59 l86 -70 22 36 c43 74 176 237 236 291 94 84 154 112 239 112 53 0 78 -5 105 -21z"
       id="path106"
       style="fill:#8b008b" />
    <path
       d="M5500 3191 c-97 -31 -314 -262 -393 -417 -9 -17 -23 -34 -31 -37 -9 -4 -53 26 -115 76 -197 163 -389 231 -508 182 -81 -34 -117 -96 -111 -194 8 -147 100 -248 377 -415 123 -75 292 -159 362 -181 l56 -18 49 34 c69 47 276 256 366 369 157 197 194 275 186 395 -8 123 -70 199 -169 210 -24 2 -55 1 -69 -4z"
       id="path108"
       style="fill:#9400d3" />
    <path
       d="M2043 3978 c-31 -12 -86 -50 -139 -95 -174 -149 -268 -216 -415 -296 -69 -38 -97 -62 -85 -75 4 -4 40 -7 79 -7 124 1 322 60 482 145 78 42 82 46 40 46 -47 0 -78 30 -71 67 8 38 58 111 125 180 61 62 60 64 -16 35z"
       id="path110"
       style="fill:#87ceeb" />
    <path
       d="M2303 3817 c-18 -12 -40 -40 -49 -62 -50 -126 -196 -280 -358 -380 -134 -82 -141 -94 -68 -115 121 -33 269 14 445 141 37 27 72 49 79 49 20 0 1 -74 -35 -135 -19 -33 -56 -84 -82 -114 -25 -29 -44 -59 -42 -65 3 -7 34 -11 88 -10 127 2 220 47 332 160 65 65 64 69 -8 69 -106 0 -124 34 -84 156 12 35 30 90 40 122 l18 58 -60 -65 c-72 -78 -160 -126 -232 -126 -54 0 -77 7 -77 25 0 10 120 281 137 308 8 13 -11 6 -44 -16z"
       id="path112"
       style="fill:#87ceeb" />
    <path
       d="M2757 3399 c-56 -42 -94 -165 -81 -258 l7 -44 59 118 c48 97 58 127 56 162 -1 24 -4 43 -7 43 -3 0 -19 -10 -34 -21z"
       id="path114"
       style="fill:#87cefa" />
    <path
       d="M3366 3075 l-29 -24 34 -9 c19 -5 35 -9 36 -8 1 1 -2 15 -5 33 l-7 31 -29 -23z"
       id="path116"
       style="fill:#ff1493" />
    <path
       d="M2545 2805 c-5 -2 -35 -11 -65 -20 -90 -28 -277 -162 -255 -183 6 -5 28 -15 50 -22 69 -21 382 -176 445 -221 33 -23 63 -39 67 -36 3 4 8 51 11 104 l4 98 -35 17 c-19 9 -47 32 -61 51 -31 41 -66 137 -66 184 0 32 -1 33 -42 32 -24 0 -47 -2 -53 -4z"
       id="path118"
       style="fill:#db7093" />
    <path
       d="M3188 2761 l-27 -49 22 -6 c12 -3 36 -6 54 -6 l31 0 -21 55 c-12 30 -24 55 -27 55 -3 0 -17 -22 -32 -49z"
       id="path120"
       style="fill:#db7093" />
    <path
       d="M6740 2718 c-16 -64 -60 -162 -94 -207 -14 -19 -26 -35 -26 -35 0 -1 57 -1 128 -1 132 -1 234 -17 447 -71 103 -27 323 -92 339 -102 23 -13 -34 65 -72 99 -101 89 -211 129 -377 138 l-110 6 -2 27 c-5 69 -132 198 -194 198 -24 0 -28 -5 -39 -52z"
       id="path122"
       style="fill:#db7093" />
    <path
       d="M3069 2623 c-58 -50 -132 -88 -192 -99 -36 -6 -38 -9 -32 -33 4 -14 8 -27 10 -29 1 -2 20 8 40 23 36 24 75 33 75 18 0 -5 -18 -16 -40 -26 -22 -10 -49 -32 -61 -49 -25 -35 -40 -101 -32 -137 l6 -24 14 27 c20 38 162 140 229 165 87 33 185 47 244 35 27 -6 50 -9 50 -6 0 2 -21 41 -46 87 l-46 82 -52 7 c-98 11 -109 9 -167 -41z"
       id="path124"
       style="fill:#db7093" />
    <path
       d="M1690 2644 c-144 -22 -304 -96 -424 -194 -47 -39 -86 -75 -86 -79 0 -5 29 -11 64 -15 228 -23 437 -109 551 -225 21 -23 43 -41 47 -41 5 0 26 13 49 29 22 17 65 35 95 42 47 11 63 10 108 -4 30 -10 70 -28 90 -42 20 -14 39 -25 42 -25 2 0 33 24 68 54 95 80 191 124 301 137 50 6 113 8 140 4 32 -4 46 -3 40 3 -11 10 -280 154 -411 220 -94 47 -303 118 -389 132 -57 9 -232 11 -285 4z"
       id="path126"
       style="fill:#db7093" />
    <path
       d="M3145 2426 c-99 -32 -164 -68 -209 -115 -38 -39 -39 -41 -33 -98 14 -121 24 -149 64 -173 55 -32 125 -95 178 -159 42 -51 58 -62 105 -76 66 -20 179 -56 200 -63 10 -4 8 5 -8 32 -27 45 -23 54 12 31 28 -18 65 -90 89 -171 52 -175 158 -338 336 -514 105 -104 140 -145 153 -180 15 -42 17 -43 17 -15 1 17 6 37 11 45 7 11 10 6 10 -22 0 -50 18 -133 41 -185 49 -115 229 -139 313 -41 57 67 69 117 61 266 -7 132 -2 175 35 257 10 22 27 63 40 90 46 106 34 212 -29 249 -69 40 -289 28 -341 -19 -17 -16 -42 -20 -53 -8 -4 3 3 11 16 17 30 16 32 73 2 68 -11 -2 -31 -14 -44 -27 -23 -22 -23 -26 -12 -68 11 -36 10 -49 0 -68 -10 -17 -14 -68 -14 -171 0 -81 -3 -150 -7 -153 -13 -14 -21 92 -16 233 3 81 1 162 -4 181 -10 33 -8 37 29 72 21 20 45 38 53 41 9 3 -12 52 -76 174 -49 93 -94 178 -100 188 -10 17 -13 16 -49 -9 -27 -18 -49 -25 -72 -23 -43 4 -38 20 6 24 36 3 71 28 71 51 0 69 -168 177 -486 312 -140 59 -180 63 -289 27z m1209 -1116 c-26 -58 -49 -88 -59 -78 -3 3 10 37 30 76 19 39 35 87 35 105 0 52 15 54 18 3 2 -33 -4 -63 -24 -106z"
       id="path128"
       style="fill:#d2b48c" />
    <path
       d="M6452 2283 c-66 -82 -150 -177 -186 -212 -36 -34 -66 -66 -66 -70 0 -15 36 -39 126 -85 l91 -46 89 37 c109 47 186 115 203 180 30 111 82 173 146 173 32 0 75 -41 75 -72 0 -14 9 -27 21 -33 12 -6 29 -31 40 -59 10 -27 27 -58 38 -70 19 -20 19 -26 6 -133 -17 -148 -35 -181 -140 -251 -44 -29 -81 -57 -83 -61 -1 -5 14 -11 35 -15 194 -32 427 54 595 220 135 134 181 276 138 434 -8 31 -17 40 -53 53 -84 32 -460 119 -572 133 -27 3 -79 10 -115 15 -36 5 -111 9 -167 9 l-102 0 -119 -147z"
       id="path130"
       style="fill:#d8bfd8" />
    <path
       d="M1120 2294 c-94 -17 -105 -23 -160 -90 -85 -103 -149 -264 -150 -376 0 -35 2 -38 28 -38 38 0 233 -54 311 -85 35 -15 118 -53 184 -86 l119 -60 35 28 c19 15 49 38 67 51 52 39 176 98 266 127 79 26 97 28 250 28 124 1 180 -4 227 -16 57 -16 66 -16 130 -1 109 25 323 15 433 -21 97 -31 207 -89 288 -151 l57 -42 70 38 c40 23 99 45 140 53 66 13 69 14 46 27 -13 7 -69 27 -123 46 l-99 33 22 -30 c47 -66 4 -34 -125 95 -74 74 -155 148 -180 165 -50 35 -215 101 -251 101 -13 0 -27 5 -31 12 -5 8 13 9 72 5 43 -4 91 -10 106 -13 l27 -6 -14 46 c-19 64 -55 92 -126 99 -145 16 -321 -46 -429 -149 -32 -31 -66 -54 -78 -54 -12 0 -42 14 -66 32 -34 23 -59 32 -100 36 -83 7 -123 -4 -171 -49 -23 -21 -47 -39 -52 -39 -5 0 -29 23 -52 50 -82 97 -221 173 -394 214 -137 33 -188 36 -277 20z"
       id="path132"
       style="fill:#d8bfd8" />
    <path
       d="M6811 2196 c-12 -13 -37 -63 -57 -112 -50 -127 -86 -159 -254 -227 -95 -39 -170 -55 -170 -38 0 6 5 11 10 11 28 0 2 22 -68 58 -43 23 -86 50 -96 61 -18 19 -19 19 -116 -57 -145 -112 -173 -133 -303 -216 -115 -73 -117 -75 -85 -80 204 -33 325 -69 412 -120 22 -14 75 -54 116 -91 96 -84 157 -115 227 -115 103 0 169 49 188 140 17 85 90 171 200 237 97 59 123 82 146 129 16 34 20 55 15 87 -11 70 -23 78 -37 24 -16 -65 -78 -131 -177 -190 -52 -30 -88 -60 -102 -82 -25 -40 -47 -38 -26 3 18 35 49 62 111 97 82 46 110 72 140 127 20 36 29 67 29 101 1 43 -3 52 -32 78 -18 16 -39 29 -47 29 -8 0 -15 5 -15 11 0 7 11 9 26 6 22 -4 28 0 40 29 38 91 -16 163 -75 100z"
       id="path134"
       style="fill:#d2b48c" />
    <path
       d="M6912 2095 c-31 -52 -13 -76 28 -35 24 24 24 30 7 54 -13 17 -15 16 -35 -19z"
       id="path136"
       style="fill:#f4a460" />
    <path
       d="M6950 2025 c-19 -20 -20 -25 -7 -25 17 0 47 26 47 41 0 16 -16 10 -40 -16z"
       id="path138" />
    <path
       d="M7000 2004 c0 -5 -12 -17 -27 -26 -18 -11 -22 -18 -12 -18 19 0 55 37 46 47 -4 3 -7 2 -7 -3z"
       id="path140" />
    <path
       d="M6985 1941 c-3 -5 -1 -12 5 -16 5 -3 10 1 10 9 0 18 -6 21 -15 7z"
       id="path142" />
    <path
       d="M4525 1776 c-15 -22 -15 -27 0 -55 14 -28 14 -34 0 -62 -9 -17 -15 -32 -13 -33 2 -1 15 -7 30 -13 26 -12 27 -11 52 53 32 78 32 88 4 114 -29 27 -54 25 -73 -4z"
       id="path144"
       style="fill:#f4a460" />
    <path
       d="M4178 1753 c5 -10 11 -23 13 -30 3 -9 9 -8 22 2 18 13 17 15 -13 30 -30 15 -31 15 -22 -2z"
       id="path146" />
    <path
       d="M1990 1744 c-14 -3 -61 -12 -105 -20 -103 -20 -278 -105 -358 -174 -38 -32 -68 -50 -84 -50 -15 0 -67 24 -117 54 -104 62 -155 86 -276 128 -76 26 -230 60 -238 53 -12 -10 27 -145 63 -220 121 -251 341 -388 645 -402 94 -4 293 16 309 32 2 3 -5 23 -17 44 -31 54 -27 59 11 14 51 -60 188 -190 230 -219 71 -48 202 -103 297 -126 131 -30 350 -31 497 0 123 26 294 83 322 109 3 2 -20 29 -50 60 l-54 56 55 -40 c74 -54 90 -62 199 -95 74 -22 114 -28 185 -28 80 0 220 21 234 34 3 3 -5 28 -16 55 -25 57 -36 144 -25 185 8 25 1 41 -53 125 -95 149 -131 178 -260 211 l-75 19 -54 -26 c-60 -30 -45 -34 -147 43 -116 89 -273 149 -415 160 -53 4 -144 2 -219 -6 -113 -11 -138 -10 -204 4 -77 17 -235 28 -280 20z m515 -295 c63 -29 203 -114 272 -166 l71 -54 38 26 c79 54 285 98 315 68 25 -25 2 -43 -55 -43 -79 0 -245 -67 -271 -110 -11 -18 -41 -11 -66 16 -28 31 -120 96 -204 146 -67 40 -163 73 -245 83 -68 8 -236 -10 -327 -35 -59 -16 -70 -17 -83 -4 -13 12 -13 16 0 28 22 21 113 47 193 56 109 12 326 6 362 -11z"
       id="path148"
       style="fill:#db7093" />
    <path
       d="M4425 1740 c-4 -6 -1 -17 5 -25 7 -9 10 -28 6 -45 -4 -25 -2 -30 14 -30 24 0 50 26 50 51 0 38 -59 76 -75 49z"
       id="path150"
       style="fill:#f4a460" />
    <path
       d="M4310 1721 c0 -6 5 -13 11 -17 6 -3 9 -18 6 -33 -5 -22 -2 -26 19 -27 17 -1 30 7 41 23 16 24 16 26 -6 44 -24 20 -71 26 -71 10z"
       id="path152"
       style="fill:#f4a460" />
    <path
       d="M4218 1696 c-27 -20 -21 -76 8 -76 25 0 64 23 70 42 12 40 -40 63 -78 34z"
       id="path154"
       style="fill:#f4a460" />
    <path
       d="M3451 1571 c14 -5 35 -14 48 -20 20 -11 22 -10 19 6 -2 14 -13 18 -48 20 -36 2 -40 0 -19 -6z"
       id="path156" />
    <path
       d="M5533 1541 c-22 -14 -56 -34 -74 -44 l-33 -18 185 -80 c101 -45 192 -83 201 -86 22 -6 105 55 149 110 17 21 29 40 28 42 -14 13 -149 49 -247 65 -64 11 -128 24 -142 28 -19 7 -35 3 -67 -17z"
       id="path158"
       style="fill:#d8bfd8" />
    <path
       d="M4634 1473 c1 -84 -1 -93 -46 -195 -25 -59 -48 -121 -50 -139 -3 -33 -3 -33 67 -53 60 -17 101 -20 280 -20 191 -1 222 2 340 26 218 46 389 100 510 160 l59 30 -49 20 c-120 47 -453 160 -516 174 -63 14 -77 14 -144 1 -95 -20 -222 -102 -266 -174 -22 -35 -37 -41 -57 -21 -19 19 25 83 96 141 20 17 30 28 22 25 -8 -3 -42 -13 -75 -23 -33 -9 -72 -24 -86 -32 -30 -18 -59 -12 -59 11 0 18 68 59 127 78 l42 12 -92 33 c-51 18 -95 33 -98 33 -3 0 -5 -39 -5 -87z"
       id="path160"
       style="fill:#d8bfd8" />
    <path
       d="M3750 1124 c0 -65 42 -158 67 -150 10 2 37 10 61 17 23 7 42 15 42 18 0 6 -44 49 -132 131 l-38 34 0 -50z"
       id="path162"
       style="fill:#db7093" />
    <path
       d="M8025 4851 c-48 -28 -94 -72 -142 -137 l-21 -29 -44 41 c-58 56 -97 74 -161 74 -56 0 -79 -14 -106 -67 -29 -56 10 -167 88 -255 40 -45 205 -171 279 -214 l32 -18 48 53 c124 142 206 290 217 396 18 159 -66 227 -190 156z m112 -85 c25 -22 28 -30 27 -84 -1 -45 -8 -72 -30 -113 -33 -61 -166 -197 -201 -205 -29 -8 -174 63 -232 113 -71 60 -71 152 -1 188 38 19 76 14 140 -22 l45 -24 15 23 c63 96 126 147 182 148 15 0 40 -11 55 -24z"
       id="path164"
       style="fill:#dc143c" />
    <path
       d="M8060 4733 c-28 -10 -81 -68 -116 -125 -20 -32 -41 -58 -49 -58 -7 0 -36 16 -65 35 -53 36 -97 44 -118 23 -35 -35 12 -95 119 -149 43 -21 82 -39 87 -39 15 0 93 72 133 122 21 27 45 72 54 100 13 46 13 54 0 75 -16 24 -20 25 -45 16z"
       id="path166"
       style="fill:#dc143c" />
  </g>
</svg>
