<?xml version="1.0" encoding="UTF-8" standalone="no"?>
<svg
   xmlns:dc="http://purl.org/dc/elements/1.1/"
   xmlns:cc="http://creativecommons.org/ns#"
   xmlns:rdf="http://www.w3.org/1999/02/22-rdf-syntax-ns#"
   xmlns:svg="http://www.w3.org/2000/svg"
   xmlns="http://www.w3.org/2000/svg"
   xmlns:sodipodi="http://sodipodi.sourceforge.net/DTD/sodipodi-0.dtd"
   xmlns:inkscape="http://www.inkscape.org/namespaces/inkscape"
   version="1.0"
   width="850.000000pt"
   height="850.000000pt"
   viewBox="0 0 850.000000 850.000000"
   preserveAspectRatio="xMidYMid meet"
   id="svg306"
   sodipodi:docname="bible311.svg"
   inkscape:version="0.92.2 5c3e80d, 2017-08-06">
  <defs
     id="defs310" />
  <sodipodi:namedview
     pagecolor="#ffffff"
     bordercolor="#666666"
     borderopacity="1"
     objecttolerance="10"
     gridtolerance="10"
     guidetolerance="10"
     inkscape:pageopacity="0"
     inkscape:pageshadow="2"
     inkscape:window-width="1920"
     inkscape:window-height="978"
     id="namedview308"
     showgrid="false"
     inkscape:zoom="0.83294118"
     inkscape:cx="501.70484"
     inkscape:cy="504.8769"
     inkscape:window-x="0"
     inkscape:window-y="1"
     inkscape:window-maximized="1"
     inkscape:current-layer="svg306" />
  <metadata
     id="metadata2">
Created by potrace 1.14, written by Peter Selinger 2001-2017
<rdf:RDF>
  <cc:Work
     rdf:about="">
    <dc:format>image/svg+xml</dc:format>
    <dc:type
       rdf:resource="http://purl.org/dc/dcmitype/StillImage" />
  </cc:Work>
</rdf:RDF>
</metadata>
  <g
     transform="translate(0.000000,850.000000) scale(0.100000,-0.100000)"
     fill="#000000"
     stroke="none"
     id="g304">
    <path
       d="M0 4250 l0 -4250 4250 0 4250 0 0 4250 0 4250 -4250 0 -4250 0 0 -4250z m5744 3924 c3 -9 6 -76 6 -149 l0 -134 113 -3 112 -3 3 -73 c2 -46 -2 -79 -9 -88 -8 -10 -38 -14 -115 -14 l-104 0 1 -177 c1 -98 5 -261 8 -363 l7 -185 73 -205 c77 -220 203 -587 306 -895 35 -104 109 -323 165 -485 55 -162 125 -367 155 -455 30 -88 75 -218 100 -290 55 -159 57 -156 -90 -155 -55 1 -106 1 -113 1 -10 -1 -12 -48 -10 -218 l3 -218 63 -3 c73 -3 56 14 198 -212 129 -205 270 -428 360 -569 184 -286 268 -417 278 -436 6 -11 57 -92 113 -180 108 -172 118 -199 105 -294 l-7 -54 -102 -41 -103 -41 0 -801 0 -802 -65 -11 c-36 -6 -94 -16 -130 -21 -131 -20 -193 -30 -315 -49 -108 -18 -545 -86 -710 -111 -30 -5 -86 -14 -125 -20 -38 -6 -97 -15 -130 -20 -33 -5 -89 -14 -125 -20 -36 -6 -94 -15 -130 -20 -36 -5 -92 -14 -125 -20 -221 -38 -267 -41 -379 -30 -169 16 -299 28 -426 40 -112 10 -208 19 -420 39 -58 6 -161 15 -230 21 -69 6 -165 15 -215 20 -49 5 -119 12 -155 15 -36 3 -111 9 -167 15 -57 5 -255 23 -440 40 -186 16 -383 34 -438 39 -105 11 -250 24 -437 41 -243 22 -327 30 -420 40 -53 6 -114 10 -135 10 -74 0 -68 -73 -68 857 l0 838 -45 3 c-24 2 -50 8 -57 14 -9 7 -13 44 -13 121 l0 110 67 91 c37 50 90 123 118 161 29 39 114 157 191 264 76 107 160 224 187 260 26 36 61 86 79 111 36 53 134 188 228 315 37 50 97 134 134 188 37 53 74 97 82 97 12 0 14 109 14 755 l0 755 -713 2 -712 3 -3 236 -2 237 22 6 c13 3 335 6 716 6 l692 0 0 629 c0 346 3 636 6 645 5 14 38 16 263 16 144 0 263 -4 271 -10 13 -8 16 -94 20 -642 l5 -633 677 -5 c584 -4 679 -7 692 -20 11 -12 15 -59 18 -232 2 -142 -1 -221 -7 -227 -7 -7 -237 -12 -695 -13 l-685 -3 -3 -744 -2 -744 397 6 c723 12 1293 26 1303 32 6 4 10 79 10 196 l0 189 -24 0 c-40 0 -76 18 -76 38 0 10 20 72 45 137 25 66 82 217 126 335 44 118 93 249 109 290 16 41 54 143 85 225 73 194 115 305 125 330 9 23 12 29 127 335 47 124 93 248 103 275 10 28 49 129 85 225 37 96 69 185 72 198 3 12 9 25 14 28 5 3 9 12 9 20 0 8 9 33 20 57 19 41 20 60 18 377 l-3 335 -90 2 c-141 4 -135 1 -135 87 0 48 4 77 13 84 7 6 58 13 113 14 l99 3 3 148 3 147 83 0 c67 0 85 -3 90 -16z"
       id="path4"
       style="fill:none" />
    <path
       d="M5606 8153 c-3 -3 -6 -69 -6 -145 0 -116 2 -138 15 -138 13 0 15 22 15 139 0 127 -6 162 -24 144z"
       id="path6"
       style="fill:#8fbc8f" />
    <path
       d="M5663 8153 c-10 -3 -13 -46 -13 -163 l0 -159 -97 -3 -98 -3 0 -40 0 -40 100 -5 100 -5 3 -354 c1 -244 6 -357 13 -362 6 -3 20 -4 31 -1 18 4 19 16 18 346 -1 187 -1 349 0 359 0 15 12 17 105 17 102 0 105 1 111 24 14 57 7 61 -103 64 -67 2 -105 7 -112 16 -6 7 -12 75 -13 162 -3 154 -6 164 -45 147z"
       id="path8"
       style="fill:#8fbc8f" />
    <path
       d="M5382 7793 c2 -35 7 -48 18 -48 24 0 21 89 -3 93 -16 3 -18 -3 -15 -45z"
       id="path10"
       style="fill:#8fbc8f" />
    <path
       d="M2555 7300 c-8 -14 17 -50 36 -50 24 0 29 10 17 36 -11 24 -42 32 -53 14z"
       id="path12"
       style="fill:#d2691e" />
    <path
       d="M2652 7283 c3 -24 8 -28 33 -28 25 0 30 4 30 25 0 21 -5 26 -33 28 -31 3 -33 2 -30 -25z"
       id="path14"
       style="fill:#ff7f50" />
    <path
       d="M2744 7296 c-13 -33 4 -47 48 -44 38 3 43 6 43 28 0 22 -5 25 -43 28 -31 2 -44 -1 -48 -12z"
       id="path16"
       style="fill:#d2691e" />
    <path
       d="M2882 7298 c-32 -32 17 -70 51 -40 28 24 22 52 -11 52 -15 0 -33 -5 -40 -12z"
       id="path18"
       style="fill:#ff7f50" />
    <path
       d="M2517 7223 c-9 -8 -9 -1185 -1 -1207 3 -9 10 -16 15 -16 11 0 12 1200 1 1218 -5 7 -11 9 -15 5z"
       id="path20"
       style="fill:#ff7f50" />
    <path
       d="M2603 7193 c-10 -4 -13 -140 -13 -633 0 -621 0 -629 -20 -640 -11 -6 -25 -8 -30 -5 -6 4 -24 4 -41 0 l-30 -7 3 -96 3 -97 47 -3 c25 -2 51 -9 57 -16 8 -9 12 -264 13 -822 l3 -809 30 0 30 0 3 1559 c2 1241 0 1561 -10 1568 -14 9 -27 9 -45 1z"
       id="path22"
       style="fill:#d2691e" />
    <path
       d="M2700 5637 c0 -860 2 -1566 5 -1569 3 -2 19 -2 36 0 l32 5 -6 171 c-3 94 -11 240 -18 324 -15 175 -6 261 36 348 39 80 67 91 95 39 7 -13 17 -22 22 -19 12 8 10 431 -2 439 -5 3 -10 -3 -10 -13 0 -27 -46 -185 -72 -244 -26 -61 -53 -65 -67 -10 -39 148 -40 282 -6 597 31 289 31 413 0 759 -28 315 -31 489 -10 626 8 52 15 98 15 103 0 4 -11 7 -25 7 l-25 0 0 -1563z"
       id="path24"
       style="fill:#deb887" />
    <path
       d="M2791 7179 c-33 -83 -39 -400 -12 -644 5 -44 15 -169 22 -278 13 -197 7 -357 -22 -597 -18 -153 -22 -401 -6 -465 l14 -60 21 70 c20 70 24 90 43 195 16 92 39 301 40 375 1 39 5 84 9 100 l7 30 6 -35 c4 -19 8 -62 10 -95 l2 -60 88 -3 89 -3 -38 33 c-41 36 -73 98 -74 140 0 24 -5 28 -42 35 l-43 9 0 234 0 235 -27 35 c-70 92 -93 206 -85 421 4 85 11 195 16 244 9 90 1 130 -18 84z"
       id="path26"
       style="fill:#cd853f" />
    <path
       d="M2856 7168 c-14 -90 -36 -331 -36 -393 1 -129 48 -315 80 -315 7 0 9 112 8 368 l-3 367 -22 3 c-18 3 -23 -3 -27 -30z"
       id="path28"
       style="fill:#8b4513" />
    <path
       d="M5656 6958 c-3 -7 -7 -38 -10 -68 -6 -55 -16 -130 -35 -270 -6 -41 -24 -176 -40 -300 -17 -124 -40 -290 -51 -370 -11 -80 -25 -183 -31 -230 -6 -47 -14 -112 -19 -145 -5 -33 -14 -98 -20 -145 -6 -47 -15 -112 -20 -145 -5 -33 -14 -98 -20 -145 -6 -47 -15 -114 -20 -150 -5 -36 -17 -121 -26 -190 -9 -69 -19 -150 -24 -180 -4 -30 -6 -58 -3 -62 5 -9 1187 -11 1195 -2 3 3 -46 157 -109 342 -63 185 -132 389 -153 452 -22 63 -80 234 -130 380 -50 146 -120 351 -155 455 -35 105 -107 316 -160 470 -53 154 -99 288 -102 298 -6 20 -61 24 -67 5z m207 -609 c4 -19 13 -52 18 -74 5 -22 14 -56 19 -75 4 -19 52 -206 105 -415 53 -209 100 -396 105 -415 27 -118 100 -405 121 -474 11 -37 11 -66 0 -66 -14 0 -17 12 -108 370 -81 319 -91 360 -112 448 -5 20 -44 172 -86 337 -103 402 -105 410 -83 403 7 -3 16 -20 21 -39z"
       id="path30"
       style="fill:#a0522d" />
    <path
       d="M5603 6948 c-8 -11 -39 -92 -163 -428 -16 -41 -66 -176 -113 -300 -112 -297 -117 -312 -127 -335 -4 -11 -22 -56 -38 -100 -65 -172 -126 -334 -162 -430 -21 -55 -68 -181 -105 -280 -36 -99 -71 -191 -77 -205 -13 -31 -21 -51 -46 -120 -11 -30 -31 -84 -45 -120 -14 -36 -23 -68 -20 -72 2 -5 134 -8 293 -8 l290 0 4 23 c3 12 10 63 16 112 6 50 15 117 20 150 16 107 29 204 100 735 33 242 45 333 61 450 5 41 14 104 19 140 5 36 14 103 20 150 6 47 15 114 20 150 5 36 14 99 19 140 6 41 15 111 21 155 14 99 27 205 24 205 -1 0 -6 -6 -11 -12z"
       id="path32"
       style="fill:#a0522d" />
    <path
       d="M2960 6011 c0 -34 3 -41 19 -41 32 0 34 18 7 51 l-26 31 0 -41z"
       id="path34"
       style="fill:#d2691e" />
    <path
       d="M1140 6000 c0 -18 40 -30 104 -30 66 0 83 10 47 30 -25 13 -151 13 -151 0z"
       id="path36"
       style="fill:#ff7f50" />
    <path
       d="M1330 6002 c0 -23 30 -32 107 -32 82 0 94 5 71 28 -13 13 -178 17 -178 4z"
       id="path38"
       style="fill:#ff7f50" />
    <path
       d="M1557 6003 c-4 -3 -2 -12 4 -20 17 -19 239 -19 239 1 0 8 -7 17 -16 20 -21 8 -219 8 -227 -1z"
       id="path40"
       style="fill:#ff7f50" />
    <path
       d="M1825 6000 c-15 -24 12 -30 131 -30 114 0 125 2 122 18 -3 15 -18 17 -125 20 -76 2 -124 -1 -128 -8z"
       id="path42"
       style="fill:#ff7f50" />
    <path
       d="M2121 6001 c-28 -18 1 -31 70 -31 62 0 69 2 69 20 0 18 -7 20 -62 20 -35 0 -69 -4 -77 -9z"
       id="path44"
       style="fill:#d2691e" />
    <path
       d="M2307 6003 c-4 -3 -7 -12 -7 -20 0 -10 23 -13 99 -13 99 0 129 10 92 29 -21 12 -174 15 -184 4z"
       id="path46"
       style="fill:#ff7f50" />
    <path
       d="M3037 6004 c-4 -4 -7 -13 -7 -21 0 -10 19 -13 76 -13 66 0 75 2 72 18 -3 14 -16 18 -69 20 -35 2 -68 0 -72 -4z"
       id="path48"
       style="fill:#ff7f50" />
    <path
       d="M3205 6000 c-12 -20 7 -30 56 -30 42 0 49 3 49 20 0 17 -7 20 -49 20 -28 0 -53 -4 -56 -10z"
       id="path50"
       style="fill:#ff7f50" />
    <path
       d="M3360 5991 c0 -17 6 -21 36 -21 28 0 35 3 32 18 -2 11 -14 18 -36 20 -27 3 -32 0 -32 -17z"
       id="path52"
       style="fill:#ff7f50" />
    <path
       d="M3475 6000 c-13 -21 9 -30 79 -30 77 0 88 4 79 26 -6 17 -148 20 -158 4z"
       id="path54"
       style="fill:#ff7f50" />
    <path
       d="M3680 5990 c0 -17 7 -20 45 -20 38 0 45 3 45 20 0 17 -7 20 -45 20 -38 0 -45 -3 -45 -20z"
       id="path56"
       style="fill:#ff7f50" />
    <path
       d="M3815 6000 c-13 -21 9 -30 76 -30 62 0 69 2 69 20 0 18 -7 20 -69 20 -39 0 -73 -4 -76 -10z"
       id="path58"
       style="fill:#ff7f50" />
    <path
       d="M3997 6003 c-4 -3 -7 -12 -7 -20 0 -10 18 -13 70 -13 63 0 70 2 70 20 0 18 -7 20 -63 20 -35 0 -67 -3 -70 -7z"
       id="path60"
       style="fill:#d2691e" />
    <path
       d="M4171 5997 c-15 -19 -4 -27 41 -27 42 0 78 14 78 30 0 15 -106 12 -119 -3z"
       id="path62"
       style="fill:#ff7f50" />
    <path
       d="M4317 5935 c-42 -29 -41 -41 4 -47 34 -5 42 5 37 46 l-3 26 -38 -25z"
       id="path64"
       style="fill:#deb887" />
    <path
       d="M1080 5941 c0 -12 49 -43 62 -39 6 2 1 14 -12 26 -24 22 -50 29 -50 13z"
       id="path66"
       style="fill:#ff7f50" />
    <path
       d="M1213 5913 c-9 -3 -13 -34 -13 -104 l0 -100 42 3 c39 3 43 6 51 38 13 49 4 149 -14 161 -15 9 -46 11 -66 2z"
       id="path68"
       style="fill:#d2691e" />
    <path
       d="M1327 5913 c-2 -4 -3 -51 -2 -103 l2 -95 67 -3 67 -3 -3 103 -3 103 -62 3 c-34 2 -63 -1 -66 -5z"
       id="path70"
       style="fill:#cd853f" />
    <path
       d="M1512 5912 c-9 -6 -12 -34 -10 -103 l3 -94 63 -3 c60 -3 62 -2 62 22 0 14 -4 28 -10 31 -5 3 -10 19 -10 35 0 16 -4 32 -10 35 -5 3 -10 21 -10 39 0 26 -5 35 -22 40 -30 8 -40 7 -56 -2z"
       id="path72"
       style="fill:#cd853f" />
    <path
       d="M1613 5902 c-7 -18 31 -157 49 -179 11 -14 118 -18 118 -5 0 4 -9 36 -20 72 -11 36 -20 77 -20 92 0 31 -19 40 -80 36 -25 -1 -44 -8 -47 -16z"
       id="path74"
       style="fill:#d2691e" />
    <path
       d="M1787 5913 c-17 -17 -6 -92 25 -175 l10 -28 107 0 106 0 -31 22 c-36 25 -63 65 -88 128 -10 25 -23 48 -29 52 -15 10 -91 10 -100 1z"
       id="path76"
       style="fill:#cd853f" />
    <path
       d="M1951 5911 c-17 -11 -2 -59 39 -125 24 -37 35 -47 53 -44 20 3 22 9 25 82 2 57 -1 82 -10 87 -17 11 -89 11 -107 0z"
       id="path78"
       style="fill:#d2691e" />
    <path
       d="M2116 5908 c-3 -7 -6 -55 -8 -106 l-3 -93 85 3 85 3 -1 45 c0 25 -5 70 -10 100 l-9 55 -68 3 c-49 3 -68 0 -71 -10z"
       id="path80"
       style="fill:#d2691e" />
    <path
       d="M2292 5911 c-11 -6 -11 -20 -3 -67 6 -32 12 -75 13 -94 l3 -35 73 -3 72 -3 0 99 c0 95 -1 100 -22 106 -34 9 -121 7 -136 -3z"
       id="path82"
       style="fill:#cd853f" />
    <path
       d="M3023 5913 c-25 -10 -5 -85 34 -129 46 -53 139 -50 194 7 33 34 57 108 39 119 -24 15 -46 -3 -70 -56 -30 -66 -43 -75 -84 -61 -38 13 -53 31 -61 77 -8 43 -23 55 -52 43z"
       id="path84"
       style="fill:#ff7f50" />
    <path
       d="M3102 5911 c-17 -10 -5 -61 17 -78 30 -23 50 -14 71 29 15 32 17 44 8 50 -17 10 -79 10 -96 -1z"
       id="path86"
       style="fill:#d2691e" />
    <path
       d="M3335 5908 c-33 -95 -51 -130 -82 -162 l-37 -37 94 3 95 3 3 96 c3 93 2 97 -20 103 -35 9 -48 7 -53 -6z"
       id="path88"
       style="fill:#deb887" />
    <path
       d="M3447 5913 c-16 -4 -17 -15 -15 -101 l3 -97 61 -3 61 -3 6 51 c3 27 3 72 0 99 -4 39 -10 51 -27 55 -24 6 -62 6 -89 -1z"
       id="path90"
       style="fill:#8b4513" />
    <path
       d="M3594 5913 c-8 -6 -9 -38 -5 -103 l6 -95 48 -3 48 -3 -3 103 -3 103 -40 3 c-22 1 -45 -1 -51 -5z"
       id="path92"
       style="fill:#deb887" />
    <path
       d="M3734 5907 c-3 -8 -4 -54 -2 -103 l3 -89 73 -3 c71 -3 72 -3 72 22 0 14 -7 59 -16 100 -14 60 -21 75 -38 80 -38 10 -87 6 -92 -7z"
       id="path94"
       style="fill:#cd853f" />
    <path
       d="M3894 5906 c-3 -9 -1 -30 5 -47 6 -18 11 -41 11 -53 0 -12 5 -38 11 -58 l10 -38 64 0 65 0 0 83 c-1 108 -10 120 -95 125 -53 4 -66 1 -71 -12z"
       id="path96"
       style="fill:#8b4513" />
    <path
       d="M4071 5911 c-9 -6 -10 -14 -5 -22 5 -8 13 -50 19 -94 l10 -80 65 0 65 0 3 96 c3 93 2 97 -20 103 -34 9 -121 7 -137 -3z"
       id="path98"
       style="fill:#d2691e" />
    <path
       d="M1080 5851 c0 -23 6 -30 25 -35 47 -12 62 21 23 48 -34 24 -48 20 -48 -13z"
       id="path100"
       style="fill:#ff7f50" />
    <path
       d="M4287 5864 c-4 -4 -7 -22 -7 -40 0 -27 6 -35 32 -48 17 -9 35 -16 40 -16 4 0 8 23 8 50 0 33 -4 50 -12 50 -7 0 -22 3 -33 6 -11 3 -24 2 -28 -2z"
       id="path102"
       style="fill:#deb887" />
    <path
       d="M1082 5763 c2 -22 8 -27 23 -25 11 2 26 10 34 17 12 12 11 16 -13 25 -41 15 -48 13 -44 -17z"
       id="path104"
       style="fill:#d2691e" />
    <path
       d="M4280 5727 c0 -18 11 -34 33 -51 19 -15 37 -26 40 -26 12 0 7 67 -6 78 -6 6 -24 13 -40 17 -24 6 -27 4 -27 -18z"
       id="path106"
       style="fill:#deb887" />
    <path
       d="M1098 5706 c-10 -7 -18 -23 -18 -35 l0 -23 29 24 c46 36 34 69 -11 34z"
       id="path108"
       style="fill:#ff7f50" />
    <path
       d="M1162 5648 c-23 -23 -12 -28 62 -28 54 0 75 4 79 14 3 8 3 17 0 20 -12 11 -129 6 -141 -6z"
       id="path110"
       style="fill:#ff7f50" />
    <path
       d="M1340 5640 c0 -19 5 -21 67 -18 55 2 68 6 71 21 3 15 -5 17 -67 17 -65 0 -71 -2 -71 -20z"
       id="path112"
       style="fill:#ff7f50" />
    <path
       d="M1520 5640 c0 -18 7 -20 80 -20 45 0 80 4 80 10 0 18 -39 30 -99 30 -54 0 -61 -2 -61 -20z"
       id="path114"
       style="fill:#ff7f50" />
    <path
       d="M1729 5640 c18 -16 38 -20 93 -20 61 0 69 2 66 18 -3 14 -17 17 -93 19 l-90 3 24 -20z"
       id="path116"
       style="fill:#ff7f50" />
    <path
       d="M1920 5651 c0 -21 41 -31 120 -31 72 0 81 2 78 18 -3 14 -17 17 -101 20 -60 2 -97 -1 -97 -7z"
       id="path118"
       style="fill:#ff7f50" />
    <path
       d="M2162 5643 c3 -15 14 -18 68 -18 51 0 65 3 65 15 0 12 -16 16 -68 18 -62 3 -68 1 -65 -15z"
       id="path120"
       style="fill:#ff7f50" />
    <path
       d="M2320 5640 c0 -18 7 -20 78 -20 72 0 102 9 102 32 0 4 -40 8 -90 8 -83 0 -90 -1 -90 -20z"
       id="path122"
       style="fill:#ff7f50" />
    <path
       d="M3000 5652 c0 -21 29 -32 88 -32 54 0 63 2 58 16 -3 9 -6 18 -6 20 0 2 -31 4 -70 4 -38 0 -70 -4 -70 -8z"
       id="path124"
       style="fill:#d2691e" />
    <path
       d="M3170 5652 c0 -22 29 -32 92 -32 61 0 68 2 68 20 0 18 -7 20 -80 20 -44 0 -80 -4 -80 -8z"
       id="path126"
       style="fill:#ff7f50" />
    <path
       d="M3370 5640 c0 -18 7 -20 85 -20 78 0 85 2 85 20 0 18 -7 20 -85 20 -78 0 -85 -2 -85 -20z"
       id="path128"
       style="fill:#d2691e" />
    <path
       d="M3565 5650 c-14 -22 10 -30 86 -30 72 0 79 2 79 20 0 18 -7 20 -79 20 -44 0 -83 -4 -86 -10z"
       id="path130"
       style="fill:#ff7f50" />
    <path
       d="M3772 5643 c3 -15 16 -18 86 -21 77 -3 82 -2 82 18 0 19 -6 20 -86 20 -76 0 -85 -2 -82 -17z"
       id="path132"
       style="fill:#d2691e" />
    <path
       d="M3967 5654 c-3 -3 -3 -12 0 -20 4 -10 23 -14 69 -14 57 0 64 2 64 20 0 18 -7 20 -63 20 -35 0 -66 -3 -70 -6z"
       id="path134"
       style="fill:#ff7f50" />
    <path
       d="M4135 5650 c-3 -5 -3 -14 0 -20 7 -12 135 -14 135 -2 0 25 -121 45 -135 22z"
       id="path136"
       style="fill:#ff7f50" />
    <path
       d="M2960 5621 c0 -25 6 -27 13 -6 4 8 2 17 -3 20 -6 4 -10 -3 -10 -14z"
       id="path138" />
    <path
       d="M2523 5609 c-10 -10 -13 -179 -13 -775 0 -709 4 -819 25 -762 3 7 4 359 3 781 -2 614 -5 766 -15 756z"
       id="path140"
       style="fill:#cd853f" />
    <path
       d="M2812 4883 c-26 -56 -27 -65 -26 -218 0 -191 19 -583 28 -592 21 -21 23 43 14 365 -11 347 -9 386 20 369 5 -4 12 -127 15 -274 9 -345 17 -465 31 -460 16 5 21 717 6 772 -31 113 -49 121 -88 38z"
       id="path142"
       style="fill:#8b4513" />
    <path
       d="M4770 4071 l0 -428 108 -12 c59 -6 148 -16 197 -21 108 -12 255 -27 348 -36 l67 -6 0 466 0 466 -360 0 -360 0 0 -429z"
       id="path144"
       style="fill:#8b4513" />
    <path
       d="M5527 4493 c-4 -3 -7 -206 -7 -450 0 -381 2 -443 15 -443 8 0 58 33 112 73 54 41 197 147 318 238 l220 164 55 0 55 0 0 210 0 210 -381 3 c-209 1 -383 -1 -387 -5z"
       id="path146"
       style="fill:#8b4513" />
    <path
       d="M4215 4039 c-187 -4 -560 -12 -830 -18 -269 -6 -588 -14 -707 -17 l-217 -7 -43 -61 c-23 -34 -57 -81 -76 -105 -18 -24 -29 -47 -25 -52 4 -4 548 -4 1208 -1 l1200 7 0 130 0 130 -85 1 c-47 1 -238 -2 -425 -7z"
       id="path148"
       style="fill:#a52a2a" />
    <path
       d="M6036 3887 c-94 -70 -182 -136 -196 -147 -203 -152 -327 -240 -339 -240 -8 0 -42 4 -75 9 -34 5 -113 15 -176 21 -359 35 -494 52 -507 62 -8 7 -13 37 -13 84 l0 74 -1223 0 -1223 0 -108 -151 c-61 -84 -105 -154 -100 -159 5 -4 167 -11 359 -14 339 -6 722 -15 1585 -36 389 -10 837 -20 1510 -36 l285 -7 83 89 c179 192 537 544 552 544 15 0 60 -42 60 -56 0 -3 14 -25 30 -49 17 -24 30 -48 30 -54 0 -6 3 -11 8 -11 4 0 12 -10 18 -23 6 -12 41 -71 78 -132 93 -149 173 -281 206 -335 15 -25 50 -81 77 -125 137 -218 410 -661 442 -717 9 -16 19 -28 24 -28 21 0 1 54 -50 135 -75 120 -240 381 -268 425 -99 153 -155 242 -155 246 0 3 -5 10 -10 17 -10 12 -210 324 -303 472 -27 44 -64 103 -82 130 -18 28 -41 66 -53 85 l-21 35 -137 10 -137 10 -171 -128z"
       id="path150"
       style="fill:#a52a2a" />
    <path
       d="M6315 3778 c-71 -73 -224 -230 -340 -348 -642 -655 -972 -994 -984 -1014 -12 -20 -10 -29 23 -94 20 -40 40 -72 45 -72 7 0 154 160 411 450 46 52 87 97 90 100 3 3 23 25 44 50 31 35 149 166 221 244 6 6 116 130 246 276 130 146 248 276 262 288 l25 24 49 -69 c26 -38 127 -190 223 -336 96 -147 275 -419 398 -605 123 -185 227 -343 231 -351 7 -12 19 -11 71 9 34 13 64 29 67 37 3 7 -13 41 -35 76 -21 34 -83 134 -137 222 -125 205 -157 256 -241 390 -38 60 -74 119 -80 130 -6 11 -26 45 -46 75 -19 30 -79 127 -133 215 -102 167 -188 306 -238 388 -16 26 -32 47 -36 47 -4 0 -65 -60 -136 -132z"
       id="path152"
       style="fill:#8b0000" />
    <path
       d="M6231 3460 c-68 -76 -131 -147 -140 -157 -97 -109 -183 -206 -217 -243 -22 -25 -67 -74 -100 -110 l-59 -65 97 -3 c87 -2 99 -5 109 -23 14 -27 2 -174 -16 -189 -8 -7 -61 -10 -141 -8 l-129 3 -3 53 c-2 28 -7 52 -11 52 -4 0 -37 -33 -72 -72 -66 -76 -320 -359 -329 -368 -3 -3 -18 -20 -33 -38 l-27 -34 0 -954 0 -954 29 0 c16 0 143 18 283 40 139 22 276 43 303 47 95 11 85 -82 85 830 0 443 1 808 4 810 2 2 154 9 338 14 183 5 342 11 352 14 11 2 28 0 38 -6 17 -9 18 -42 18 -764 0 -414 3 -756 8 -758 4 -3 32 -1 62 3 146 22 468 71 493 76 l27 6 0 467 0 468 -118 6 c-64 3 -125 9 -135 12 -15 6 -17 21 -17 106 0 117 -9 111 155 107 l110 -3 3 233 2 232 -76 123 c-42 67 -91 145 -109 172 -18 28 -81 127 -140 220 -59 94 -132 208 -162 255 -29 47 -104 164 -164 260 -163 257 -178 280 -187 280 -4 -1 -63 -63 -131 -140z m161 -323 c70 -53 99 -87 140 -168 66 -127 81 -209 77 -416 -3 -109 -8 -165 -17 -175 -10 -13 -51 -14 -300 -10 -208 3 -291 8 -300 16 -20 19 -27 181 -13 288 25 187 86 330 180 421 53 51 134 97 159 90 10 -2 43 -23 74 -46z m558 -528 c14 -25 2 -174 -14 -188 -7 -6 -77 -11 -155 -12 -110 -1 -146 2 -152 13 -14 21 -10 161 5 180 13 18 52 23 218 26 79 2 88 0 98 -19z m168 -301 c17 -17 16 -169 -1 -192 -10 -14 -40 -19 -173 -28 -89 -6 -168 -8 -177 -5 -14 5 -17 21 -17 89 0 115 10 128 98 129 37 1 94 5 127 9 94 11 130 11 143 -2z m-1531 -40 c18 -15 18 -168 0 -192 -13 -17 -26 -18 -171 -13 -98 4 -163 10 -172 18 -19 15 -20 179 -1 198 9 10 46 12 172 6 88 -3 165 -11 172 -17z m171 -556 c12 -16 17 -157 6 -186 -5 -14 -30 -16 -173 -16 -117 0 -171 4 -179 12 -8 8 -12 46 -12 105 0 83 2 94 19 101 11 4 89 6 173 4 127 -3 155 -6 166 -20z m-251 -472 c84 0 93 -11 93 -109 0 -116 5 -113 -188 -109 -131 2 -165 6 -172 18 -15 23 -12 183 3 199 9 10 35 12 107 7 52 -3 123 -6 157 -6z m245 -277 c15 -13 18 -32 18 -103 0 -65 -4 -91 -15 -100 -18 -15 -322 -4 -342 12 -17 14 -18 179 -1 196 8 8 60 12 167 12 130 0 157 -3 173 -17z m1312 -59 c3 -9 6 -49 6 -89 0 -110 -1 -111 -195 -124 -194 -14 -189 -16 -186 95 1 43 6 85 11 93 9 18 149 37 281 40 62 1 78 -2 83 -15z"
       id="path154"
       style="fill:#483d8b" />
    <path
       d="M6276 3131 c-4 -5 3 -7 14 -4 12 3 36 -5 60 -21 22 -14 40 -23 40 -19 0 5 -16 18 -35 31 -36 23 -70 29 -79 13z"
       id="path156" />
    <path
       d="M6207 3030 c-53 -48 -105 -135 -122 -203 l-7 -27 101 0 101 0 0 140 c0 78 -4 140 -9 140 -5 0 -34 -23 -64 -50z"
       id="path158"
       style="fill:#4169e1" />
    <path
       d="M6320 2941 l0 -138 88 -5 c48 -3 92 -3 98 -1 31 11 -39 164 -106 235 -75 78 -80 72 -80 -91z"
       id="path160"
       style="fill:#4169e1" />
    <path
       d="M6063 2748 c-10 -17 -17 -249 -9 -283 6 -25 7 -25 110 -25 l103 0 6 83 c12 148 9 224 -9 231 -31 12 -192 7 -201 -6z"
       id="path162"
       style="fill:#4169e1" />
    <path
       d="M6315 2604 c-4 -82 -3 -150 2 -155 4 -4 53 -10 108 -11 l100 -3 9 74 c4 40 5 111 1 157 l-7 84 -103 0 -103 0 -7 -146z"
       id="path164"
       style="fill:#4169e1" />
    <path
       d="M6573 2475 c0 -27 2 -38 4 -22 2 15 2 37 0 50 -2 12 -4 0 -4 -28z"
       id="path166" />
    <path
       d="M6745 2581 l-90 -6 -3 -61 c-2 -44 1 -63 10 -65 7 -2 69 -2 138 1 l125 5 0 65 0 65 -45 1 c-25 0 -85 -2 -135 -5z"
       id="path168"
       style="fill:#deb887" />
    <path
       d="M6935 2268 c-71 -5 -136 -11 -142 -13 -9 -3 -13 -26 -13 -70 l0 -65 138 7 c185 8 184 7 180 85 -2 47 -7 63 -18 64 -8 1 -73 -3 -145 -8z"
       id="path170"
       style="fill:#a52a2a" />
    <path
       d="M5259 2238 c-2 -35 0 -120 3 -123 2 -1 71 -4 153 -6 l150 -4 3 66 3 66 -68 6 c-118 12 -243 9 -244 -5z"
       id="path172"
       style="fill:#d2691e" />
    <path
       d="M5438 1689 c-5 -3 -8 -35 -6 -70 l3 -64 153 -3 153 -3 -3 68 -3 68 -144 5 c-78 3 -147 2 -153 -1z"
       id="path174"
       style="fill:#a52a2a" />
    <path
       d="M5268 1199 c-5 -3 -8 -35 -6 -70 l3 -64 153 -3 152 -3 0 70 0 70 -146 3 c-80 2 -150 0 -156 -3z"
       id="path176"
       style="fill:#a52a2a" />
    <path
       d="M5435 934 c-12 -5 -7 -115 5 -128 4 -4 74 -10 154 -13 l146 -4 0 69 0 69 -37 7 c-42 6 -252 7 -268 0z"
       id="path178"
       style="fill:#a52a2a" />
    <path
       d="M6813 868 l-93 -10 0 -63 c0 -35 3 -66 8 -68 8 -6 256 10 290 18 20 5 22 11 22 70 l0 65 -67 -1 c-38 -1 -110 -6 -160 -11z"
       id="path180"
       style="fill:#d2691e" />
    <path
       d="M1973 3319 c-92 -124 -136 -190 -131 -194 8 -8 344 -25 488 -25 80 0 258 -4 395 -10 247 -9 478 -16 1490 -45 286 -9 640 -20 787 -25 146 -6 314 -10 371 -10 l106 0 143 146 c130 132 156 162 146 165 -1 1 -185 5 -408 10 -223 5 -594 13 -825 19 -419 10 -901 21 -1685 39 -228 5 -503 13 -611 17 l-196 7 -70 -94z"
       id="path182"
       style="fill:#8b0000" />
    <path
       d="M1742 2997 c-37 -51 -79 -108 -92 -127 -13 -19 -30 -41 -38 -49 -31 -31 -7 -36 224 -43 126 -3 373 -11 549 -17 176 -7 457 -16 625 -21 168 -5 440 -14 605 -20 349 -11 794 -26 1225 -40 l305 -10 150 152 150 152 -135 7 c-125 7 -293 12 -1226 40 -186 5 -481 14 -654 19 -173 6 -468 14 -655 20 -187 5 -416 12 -510 15 -93 3 -234 7 -313 9 l-143 5 -67 -92z"
       id="path184"
       style="fill:#ff6347" />
    <path
       d="M5671 2831 c-9 -6 -16 -33 -19 -71 l-4 -61 123 3 124 3 0 65 0 65 -105 3 c-58 1 -111 -2 -119 -7z"
       id="path186"
       style="fill:#d2691e" />
    <path
       d="M1502 2666 c-34 -46 -62 -88 -62 -94 0 -6 65 -12 168 -16 576 -21 728 -27 1002 -36 168 -6 420 -15 560 -20 140 -5 397 -14 570 -20 173 -6 425 -15 560 -20 135 -5 330 -12 433 -16 l189 -6 91 93 c110 112 115 107 -113 108 -85 0 -261 5 -390 11 -129 5 -388 14 -575 20 -187 6 -470 15 -630 20 -159 6 -576 19 -925 30 -349 11 -676 22 -725 25 l-91 5 -62 -84z"
       id="path188"
       style="fill:#ff6347" />
    <path
       d="M1400 2456 c0 -62 1 -66 23 -66 12 0 112 -5 222 -10 188 -9 342 -16 885 -40 124 -6 320 -15 435 -20 116 -6 311 -15 435 -20 124 -6 322 -15 440 -20 118 -6 314 -14 435 -20 121 -5 334 -14 474 -20 139 -6 255 -9 258 -7 2 3 -13 39 -34 81 -32 66 -41 77 -68 81 -16 3 -174 10 -350 15 -338 11 -695 23 -1165 40 -157 5 -481 17 -720 25 -658 23 -960 34 -1122 41 l-148 7 0 -67z"
       id="path190"
       style="fill:#8b0000" />
    <path
       d="M1547 2313 c-4 -3 -7 -16 -7 -29 0 -19 8 -23 63 -33 35 -6 85 -11 111 -11 47 0 84 -13 98 -34 4 -6 8 -45 8 -87 0 -106 -11 -116 -115 -100 -42 6 -96 11 -120 11 l-45 0 2 -552 3 -553 60 -8 c33 -5 74 -9 90 -10 l30 -2 7 260 c13 508 76 810 198 947 l38 43 29 -32 c47 -51 92 -152 121 -273 48 -202 57 -298 57 -662 0 -403 9 -376 -117 -360 -45 6 -131 13 -190 16 l-108 6 0 -69 c0 -83 -15 -106 -64 -97 -17 3 -59 8 -93 12 -53 5 -63 4 -63 -9 0 -16 26 -21 210 -37 58 -5 231 -21 385 -35 154 -14 328 -30 388 -36 113 -10 267 -24 432 -39 55 -6 152 -15 215 -20 265 -24 330 -30 425 -40 165 -15 319 -29 433 -39 59 -6 283 -26 497 -46 557 -52 588 -54 597 -49 10 6 11 1864 1 1864 -4 0 -16 -9 -28 -20 -11 -11 -30 -21 -40 -22 -22 -3 -288 8 -560 22 -99 5 -290 14 -425 20 -135 6 -335 15 -445 20 -768 36 -1977 90 -2036 90 -20 0 -39 -3 -42 -7z m1565 -230 c72 -76 122 -230 160 -488 9 -61 13 -202 13 -436 0 -373 -2 -387 -51 -375 -12 3 -94 10 -181 16 -87 5 -168 13 -180 16 -18 5 -23 16 -29 62 -8 69 3 456 16 567 24 189 32 245 52 325 28 118 137 340 167 340 4 0 19 -12 33 -27z m1126 -55 c41 -60 60 -100 83 -171 59 -184 80 -375 83 -747 l1 -184 85 -13 c47 -6 117 -12 155 -13 104 0 115 -11 115 -109 0 -58 -4 -82 -15 -91 -24 -20 -331 6 -367 31 -21 15 -58 20 -191 29 -91 5 -172 13 -181 16 -19 7 -25 -16 -28 -111 l-3 -70 -40 -4 c-66 -5 -304 21 -316 35 -6 7 -13 46 -16 86 -5 62 -3 77 13 96 l19 23 155 -14 c85 -7 158 -12 163 -10 4 2 7 111 7 241 0 304 18 484 70 707 36 148 123 315 165 315 8 0 27 -19 43 -42z m-1834 -9 c55 -5 105 -14 113 -20 9 -8 13 -37 13 -95 0 -118 1 -117 -200 -98 -85 8 -159 19 -166 25 -18 15 -28 142 -13 170 22 43 11 42 253 18z m2526 -82 c137 -14 142 -20 133 -127 -8 -92 -13 -95 -120 -81 -49 6 -118 11 -154 11 -93 0 -105 11 -112 107 -4 49 -2 82 5 90 13 16 92 16 248 0z m-1320 -37 c61 -4 117 -13 125 -20 11 -9 15 -34 15 -95 0 -110 -2 -112 -125 -97 -52 7 -116 12 -143 12 -27 0 -63 5 -81 11 -30 11 -31 12 -33 77 -3 132 -1 136 79 127 29 -4 102 -10 163 -15z m-970 -144 c80 -8 153 -17 163 -21 14 -6 17 -21 17 -95 0 -106 -8 -116 -78 -106 -26 4 -98 11 -161 15 -102 6 -115 9 -132 30 -25 31 -27 151 -3 175 18 19 12 19 194 2z m2058 -37 c155 -14 152 -11 152 -121 -1 -112 -5 -115 -138 -100 -59 7 -131 12 -158 12 -69 0 -82 16 -84 105 -1 39 -2 78 -1 88 1 21 36 36 71 31 14 -2 85 -8 158 -15z m-923 -100 c78 -8 126 -17 138 -27 23 -20 25 -163 2 -182 -20 -17 -320 5 -352 26 -21 13 -23 22 -23 100 0 78 2 85 23 94 12 4 38 7 57 5 19 -2 89 -9 155 -16z m-1346 -103 c147 -15 151 -17 151 -119 0 -106 -4 -110 -108 -102 -150 11 -244 24 -258 36 -15 12 -21 179 -7 192 9 10 79 8 222 -7z m2438 -96 c73 -5 141 -14 153 -20 18 -9 20 -20 20 -94 0 -63 -4 -87 -15 -96 -22 -19 -332 6 -357 28 -14 12 -18 31 -18 93 0 109 -9 105 217 89z m-1315 -230 c160 -11 158 -10 158 -119 0 -65 -4 -92 -15 -101 -11 -9 -49 -9 -176 3 -193 17 -189 14 -189 128 0 69 2 80 23 94 14 11 32 14 52 10 17 -3 82 -10 147 -15z m-1032 -71 c119 -13 130 -23 130 -116 0 -89 -9 -103 -68 -103 -91 1 -291 26 -306 39 -24 20 -23 176 2 190 17 11 59 9 242 -10z"
       id="path192"
       style="fill:#483d8b" />
    <path
       d="M3040 2015 c-17 -25 -29 -53 -27 -63 4 -15 5 -15 6 1 0 10 12 30 26 45 32 34 50 25 85 -44 36 -68 49 -115 79 -284 33 -184 40 -776 9 -806 -10 -9 -42 -10 -133 -3 -66 5 -133 12 -150 17 l-30 8 -3 145 c-3 124 7 343 23 564 7 88 -10 31 -24 -80 -17 -136 -34 -528 -26 -600 l6 -64 52 -5 c111 -11 293 -22 303 -18 16 5 28 330 20 529 -10 241 -36 411 -83 552 -19 60 -74 151 -90 151 -6 0 -26 -20 -43 -45z"
       id="path194"
       style="fill:#006400" />
    <path
       d="M3037 1900 c-16 -39 -33 -96 -44 -152 -5 -26 -3 -28 30 -28 l35 0 4 98 c6 115 -1 137 -25 82z"
       id="path196"
       style="fill:#32cd32" />
    <path
       d="M2991 1914 c0 -11 3 -14 6 -6 3 7 2 16 -1 19 -3 4 -6 -2 -5 -13z"
       id="path198" />
    <path
       d="M3095 1908 c-3 -13 -5 -61 -3 -108 l3 -85 37 -3 37 -3 -6 38 c-5 34 -21 100 -39 161 -3 12 -10 22 -15 22 -5 0 -11 -10 -14 -22z"
       id="path200"
       style="fill:#7cfc00" />
    <path
       d="M2972 1860 c0 -14 2 -19 5 -12 2 6 2 18 0 25 -3 6 -5 1 -5 -13z"
       id="path202" />
    <path
       d="M2952 1790 c0 -14 2 -19 5 -12 2 6 2 18 0 25 -3 6 -5 1 -5 -13z"
       id="path204" />
    <path
       d="M2930 1693 c0 -43 5 -41 13 5 4 18 2 32 -3 32 -6 0 -10 -16 -10 -37z"
       id="path206" />
    <path
       d="M2982 1678 c-6 -6 -12 -26 -12 -43 0 -17 -5 -58 -11 -90 -12 -68 -7 -75 59 -75 l43 0 -3 108 -3 107 -30 3 c-17 2 -36 -3 -43 -10z"
       id="path208"
       style="fill:#7cfc00" />
    <path
       d="M3090 1570 l0 -110 52 0 51 0 -6 93 c-8 122 -10 127 -58 127 l-39 0 0 -110z"
       id="path210"
       style="fill:#7cfc00" />
    <path
       d="M2945 1353 c-3 -43 -7 -96 -8 -118 l-2 -39 47 -9 c79 -15 79 -14 76 120 l-3 118 -52 3 -51 3 -7 -78z"
       id="path212"
       style="fill:#7cfc00" />
    <path
       d="M3087 1413 c-9 -8 -9 -206 -1 -227 5 -12 20 -16 60 -16 l54 0 0 115 c0 115 0 116 -26 125 -29 11 -78 13 -87 3z"
       id="path214"
       style="fill:#7cfc00" />
    <path
       d="M2937 1143 c-13 -12 -8 -218 5 -231 7 -7 34 -12 60 -12 48 0 48 0 48 33 0 19 3 67 6 108 3 41 2 79 -3 85 -9 13 -106 27 -116 17z"
       id="path216"
       style="fill:#7cfc00" />
    <path
       d="M3085 1117 c-3 -7 -4 -60 -3 -118 l3 -104 52 -3 51 -3 7 83 c4 46 5 99 3 118 -3 35 -3 35 -56 38 -37 2 -54 -1 -57 -11z"
       id="path218"
       style="fill:#7cfc00" />
    <path
       d="M4171 1993 c-17 -21 -31 -42 -31 -48 0 -5 7 1 16 13 25 36 53 24 83 -33 56 -106 83 -235 102 -475 12 -162 9 -613 -4 -627 -11 -10 -132 -6 -234 9 l-82 11 -6 71 c-11 119 14 565 41 735 5 29 4 42 -3 38 -6 -4 -13 -28 -16 -54 -3 -27 -11 -79 -17 -118 -18 -119 -29 -312 -30 -511 l0 -191 63 -6 c34 -4 117 -9 183 -13 l122 -7 7 109 c4 60 5 222 2 359 -8 343 -40 550 -108 690 -43 90 -50 94 -88 48z"
       id="path220"
       style="fill:#006400" />
    <path
       d="M4121 1914 c0 -11 3 -14 6 -6 3 7 2 16 -1 19 -3 4 -6 -2 -5 -13z"
       id="path222" />
    <path
       d="M4210 1785 l0 -115 36 0 36 0 -6 48 c-9 63 -47 182 -57 182 -5 0 -9 -52 -9 -115z"
       id="path224"
       style="fill:#32cd32" />
    <path
       d="M4146 1850 c-18 -45 -37 -114 -39 -145 -2 -17 4 -20 33 -20 l35 0 3 103 c1 58 -1 102 -7 102 -5 0 -16 -18 -25 -40z"
       id="path226"
       style="fill:#32cd32" />
    <path
       d="M4101 1864 c0 -11 3 -14 6 -6 3 7 2 16 -1 19 -3 4 -6 -2 -5 -13z"
       id="path228"
       style="fill:#008000" />
    <path
       d="M4082 1810 c0 -14 2 -19 5 -12 2 6 2 18 0 25 -3 6 -5 1 -5 -13z"
       id="path230" />
    <path
       d="M4062 1735 c0 -16 2 -22 5 -12 2 9 2 23 0 30 -3 6 -5 -1 -5 -18z"
       id="path232" />
    <path
       d="M4091 1628 c-4 -13 -11 -60 -15 -105 l-7 -82 46 -6 c25 -4 48 -6 50 -4 1 2 5 51 7 109 l3 105 -38 3 c-31 3 -38 0 -46 -20z"
       id="path234"
       style="fill:#7cfc00" />
    <path
       d="M4202 1533 l3 -108 53 -3 52 -3 -6 73 c-4 40 -9 89 -13 108 -6 33 -9 35 -49 38 l-43 3 3 -108z"
       id="path236"
       style="fill:#7cfc00" />
    <path
       d="M4055 1274 c-4 -63 -5 -117 -4 -119 2 -1 29 -5 59 -6 l55 -4 3 123 3 122 -54 0 -55 0 -7 -116z"
       id="path238"
       style="fill:#7cfc00" />
    <path
       d="M4202 1258 l3 -123 53 -3 53 -3 -3 123 -3 123 -53 3 -53 3 3 -123z"
       id="path240"
       style="fill:#008000" />
    <path
       d="M4044 1065 c-3 -25 -3 -79 1 -120 7 -74 7 -74 40 -81 18 -3 43 -4 56 -2 23 3 24 6 27 116 l3 112 -26 10 c-15 6 -41 10 -60 10 -32 0 -34 -2 -41 -45z"
       id="path242"
       style="fill:#008000" />
    <path
       d="M4197 1083 c-3 -4 -5 -54 -6 -110 -2 -114 3 -123 73 -123 44 0 48 11 44 140 l-3 95 -52 3 c-28 2 -53 -1 -56 -5z"
       id="path244"
       style="fill:#7cfc00" />
    <path
       d="M4410 815 c0 -41 1 -75 3 -76 6 -1 245 -21 272 -22 l30 -2 0 75 0 74 -35 7 c-19 4 -88 9 -152 13 l-118 6 0 -75z"
       id="path246"
       style="fill:#a52a2a" />
    <path
       d="M3640 717 l0 -65 88 -8 c48 -5 119 -8 157 -9 l70 0 3 61 c4 75 12 71 -180 80 l-138 7 0 -66z"
       id="path248"
       style="fill:#8b0000" />
    <path
       d="M2180 1928 l0 -65 108 -11 c59 -7 131 -12 160 -12 l52 0 0 60 c0 76 -2 77 -185 86 l-135 7 0 -65z"
       id="path250"
       style="fill:#8b0000" />
    <path
       d="M4722 1913 c-5 -10 -10 -42 -11 -70 -2 -47 0 -54 21 -62 39 -17 270 -32 285 -19 17 14 18 124 1 135 -7 4 -62 11 -123 15 -60 4 -122 10 -137 14 -20 4 -29 1 -36 -13z"
       id="path252"
       style="fill:#d2691e" />
    <path
       d="M3411 1877 c-7 -10 -11 -38 -9 -74 l3 -58 40 -7 c69 -12 249 -27 257 -22 4 3 8 36 8 74 l0 69 -42 5 c-24 3 -79 7 -123 10 -44 3 -89 8 -101 12 -12 3 -25 -1 -33 -9z"
       id="path254"
       style="fill:#d2691e" />
    <path
       d="M2475 1718 c-3 -13 -5 -46 -3 -73 l3 -49 90 -13 c50 -7 119 -12 155 -11 l65 3 3 58 c2 32 -2 64 -8 71 -6 8 -49 15 -113 19 -56 4 -121 9 -144 13 -39 6 -42 5 -48 -18z"
       id="path256"
       style="fill:#8b0000" />
    <path
       d="M4502 1623 l3 -68 95 -7 c52 -4 122 -9 155 -10 l60 -3 0 65 0 64 -35 7 c-19 4 -90 10 -158 13 l-123 7 3 -68z"
       id="path258"
       style="fill:#d2691e" />
    <path
       d="M3580 1531 l0 -69 38 -6 c89 -14 257 -25 265 -17 4 4 7 37 5 72 l-3 63 -35 7 c-19 4 -88 10 -152 13 l-118 7 0 -70z"
       id="path260"
       style="fill:#d2691e" />
    <path
       d="M2230 1426 c0 -36 4 -67 9 -70 5 -3 73 -10 151 -16 165 -13 162 -14 158 70 l-3 55 -100 12 c-55 6 -126 12 -157 12 l-58 1 0 -64z"
       id="path262"
       style="fill:#d2691e" />
    <path
       d="M4697 1393 c-12 -12 -8 -120 6 -131 6 -5 50 -12 97 -16 47 -4 111 -9 143 -13 l58 -6 -3 74 -3 74 -65 6 c-158 15 -227 19 -233 12z"
       id="path264"
       style="fill:#a52a2a" />
    <path
       d="M3368 1154 c-10 -10 -10 -106 0 -120 4 -6 54 -14 112 -18 58 -3 126 -9 153 -12 l47 -7 0 70 0 70 -47 6 c-94 12 -258 19 -265 11z"
       id="path266"
       style="fill:#8b0000" />
    <path
       d="M2300 1032 l0 -69 98 -11 c87 -11 164 -16 200 -13 10 1 12 19 10 68 l-3 68 -55 6 c-30 4 -99 10 -152 13 l-98 6 0 -68z"
       id="path268"
       style="fill:#d2691e" />
    <path
       d="M1540 2146 c0 -75 -7 -70 115 -82 141 -13 130 -18 133 52 2 41 -1 64 -10 71 -7 6 -64 13 -125 17 l-113 7 0 -65z"
       id="path270"
       style="fill:#8b0000" />
    <path
       d="M1941 2071 c-12 -16 -21 -35 -21 -42 0 -8 7 -3 16 9 8 12 21 22 28 22 15 0 66 -72 66 -94 0 -8 5 -18 10 -21 6 -3 10 -17 10 -30 0 -13 4 -26 9 -29 4 -3 11 -25 15 -48 3 -24 10 -68 16 -98 28 -160 43 -716 22 -810 l-8 -35 -75 2 c-119 4 -214 14 -229 23 -28 17 -20 361 16 740 3 34 2 39 -5 20 -25 -71 -51 -397 -51 -635 0 -168 -2 -165 105 -165 36 0 109 -5 161 -12 65 -8 98 -8 105 -1 15 15 14 602 0 728 -26 218 -57 352 -102 431 -48 86 -56 90 -88 45z"
       id="path272"
       style="fill:#006400" />
    <path
       d="M6180 2050 c-85 -4 -188 -8 -227 -9 l-73 -1 0 -791 0 -790 28 3 27 3 5 760 5 760 140 6 c77 4 216 10 308 14 138 7 170 6 177 -5 6 -10 10 -7 15 12 4 15 4 32 0 37 -7 12 -147 12 -405 1z"
       id="path274"
       style="fill:#20b2aa" />
    <path
       d="M1978 1879 c-2 -83 0 -116 10 -126 18 -18 51 -16 59 3 7 19 -17 153 -29 160 -4 3 -8 13 -8 22 0 9 -7 25 -15 36 -12 16 -14 5 -17 -95z"
       id="path276"
       style="fill:#7cfc00" />
    <path
       d="M6401 1979 c-57 -4 -110 -10 -117 -13 -12 -5 -14 -118 -12 -723 l3 -718 35 1 c41 1 195 23 216 31 12 4 14 107 14 707 0 688 -2 732 -29 725 -4 -1 -53 -5 -110 -10z m88 -156 c-1 -135 -10 -237 -23 -250 -18 -18 -23 30 -18 172 2 84 2 160 -1 168 -4 11 -16 13 -58 6 -32 -5 -57 -5 -63 1 -15 15 32 29 102 29 l62 1 -1 -127z m-39 -458 c9 -11 15 -92 20 -273 5 -141 12 -314 16 -384 6 -112 5 -128 -9 -128 -19 0 -24 53 -33 375 -3 127 -9 264 -13 305 l-6 75 -52 3 c-45 3 -53 6 -53 23 0 17 7 19 59 19 40 0 63 -5 71 -15z"
       id="path278"
       style="fill:#2f4f4f" />
    <path
       d="M1926 1940 c-26 -63 -46 -131 -46 -156 0 -16 8 -23 28 -27 15 -3 31 -2 35 2 4 4 6 57 5 117 l-3 109 -19 -45z"
       id="path280"
       style="fill:#7cfc00" />
    <path
       d="M5985 1958 c-3 -7 -4 -344 -3 -748 3 -728 3 -735 23 -733 29 2 186 24 213 29 l22 4 0 730 0 730 -125 0 c-91 0 -127 -3 -130 -12z m213 -187 c2 -114 -1 -156 -10 -162 -7 -4 -16 -5 -20 -3 -4 3 -8 70 -8 149 0 162 4 155 -86 155 -31 0 -54 4 -54 10 0 7 32 10 88 8 l87 -3 3 -154z m-7 -491 c4 -41 9 -227 13 -413 5 -268 3 -338 -7 -334 -9 3 -14 82 -19 323 -3 175 -9 352 -13 392 l-7 73 -59 -2 c-67 -2 -83 6 -54 27 14 10 39 14 80 12 l60 -3 6 -75z"
       id="path282"
       style="fill:#2f4f4f" />
    <path
       d="M1841 1834 c0 -11 3 -14 6 -6 3 7 2 16 -1 19 -3 4 -6 -2 -5 -13z"
       id="path284" />
    <path
       d="M6958 1784 c-5 -4 -8 -35 -8 -69 l0 -62 116 -7 c64 -3 120 -4 125 -1 11 7 12 122 2 128 -15 9 -228 19 -235 11z"
       id="path286"
       style="fill:#deb887" />
    <path
       d="M1822 1750 c0 -19 2 -27 5 -17 2 9 2 25 0 35 -3 9 -5 1 -5 -18z"
       id="path288" />
    <path
       d="M1866 1718 c-11 -39 -27 -180 -22 -193 4 -11 20 -15 56 -15 l50 0 0 104 c0 85 -3 105 -16 110 -27 10 -64 7 -68 -6z"
       id="path290"
       style="fill:#008000" />
    <path
       d="M1977 1713 c-10 -9 -9 -201 1 -206 4 -3 27 -7 52 -8 l45 -4 -3 95 c-4 113 -11 130 -56 130 -18 0 -36 -3 -39 -7z"
       id="path292"
       style="fill:#7cfc00" />
    <path
       d="M1837 1463 c-3 -5 -8 -58 -12 -119 -8 -125 -9 -124 76 -124 36 0 36 1 43 46 3 26 6 79 6 119 0 57 -3 74 -16 79 -22 9 -92 7 -97 -1z"
       id="path294"
       style="fill:#7cfc00" />
    <path
       d="M1977 1454 c-4 -4 -7 -60 -7 -125 l0 -117 56 -4 c31 -1 58 -1 60 1 7 8 4 230 -3 234 -16 10 -98 18 -106 11z"
       id="path296"
       style="fill:#008000" />
    <path
       d="M1822 1063 l3 -118 55 0 55 0 0 115 0 115 -58 3 -58 3 3 -118z"
       id="path298"
       style="fill:#008000" />
    <path
       d="M1968 1060 c-2 -66 1 -115 7 -120 6 -4 30 -10 55 -12 l45 -3 8 113 c5 63 7 116 4 118 -3 3 -30 8 -60 11 l-56 6 -3 -113z"
       id="path300"
       style="fill:#7cfc00" />
    <path
       d="M1540 816 c0 -64 0 -65 33 -75 17 -5 59 -11 92 -13 l60 -3 3 66 3 65 -64 12 c-35 7 -78 12 -96 12 l-31 0 0 -64z"
       id="path302"
       style="fill:#8b0000" />
  </g>
</svg>
