<?xml version="1.0" encoding="UTF-8" standalone="no"?>
<svg
   xmlns:dc="http://purl.org/dc/elements/1.1/"
   xmlns:cc="http://creativecommons.org/ns#"
   xmlns:rdf="http://www.w3.org/1999/02/22-rdf-syntax-ns#"
   xmlns:svg="http://www.w3.org/2000/svg"
   xmlns="http://www.w3.org/2000/svg"
   xmlns:sodipodi="http://sodipodi.sourceforge.net/DTD/sodipodi-0.dtd"
   xmlns:inkscape="http://www.inkscape.org/namespaces/inkscape"
   version="1.0"
   width="850.000000pt"
   height="850.000000pt"
   viewBox="0 0 850.000000 850.000000"
   preserveAspectRatio="xMidYMid meet"
   id="svg502"
   sodipodi:docname="bible424.svg"
   inkscape:version="0.92.2 5c3e80d, 2017-08-06">
  <defs
     id="defs506" />
  <sodipodi:namedview
     pagecolor="#ffffff"
     bordercolor="#666666"
     borderopacity="1"
     objecttolerance="10"
     gridtolerance="10"
     guidetolerance="10"
     inkscape:pageopacity="0"
     inkscape:pageshadow="2"
     inkscape:window-width="1920"
     inkscape:window-height="978"
     id="namedview504"
     showgrid="false"
     inkscape:zoom="0.41647059"
     inkscape:cx="648.34441"
     inkscape:cy="651.70478"
     inkscape:window-x="0"
     inkscape:window-y="1"
     inkscape:window-maximized="1"
     inkscape:current-layer="svg502" />
  <metadata
     id="metadata2">
Created by potrace 1.14, written by Peter Selinger 2001-2017
<rdf:RDF>
  <cc:Work
     rdf:about="">
    <dc:format>image/svg+xml</dc:format>
    <dc:type
       rdf:resource="http://purl.org/dc/dcmitype/StillImage" />
  </cc:Work>
</rdf:RDF>
</metadata>
  <g
     transform="translate(0.000000,850.000000) scale(0.100000,-0.100000)"
     fill="#000000"
     stroke="none"
     id="g500">
    <path
       d="M0 8353 c1 -106 4 -143 11 -130 5 9 20 17 32 17 38 1 104 37 145 79 42 43 82 117 82 150 0 11 6 22 13 24 6 3 -54 6 -135 6 l-148 1 0 -147z"
       id="path4"
       style="fill:#8b4513" />
    <path
       d="M1054 8443 c12 -104 99 -251 204 -344 71 -63 180 -131 214 -133 31 -1 29 -6 67 119 6 17 13 50 16 75 7 45 6 46 -31 64 -93 44 -162 135 -179 236 l-7 40 -145 0 -146 0 7 -57z"
       id="path6"
       style="fill:#483d8b" />
    <path
       d="M1410 8473 c1 -42 33 -104 74 -143 80 -76 99 -63 104 69 l4 101 -91 0 -91 0 0 -27z"
       id="path8"
       style="fill:#8fbc8f" />
    <path
       d="M1667 8413 c-8 -120 -30 -255 -56 -345 -19 -66 -30 -112 -27 -115 1 -2 87 96 190 217 103 121 203 237 222 257 70 77 78 73 -134 73 l-189 0 -6 -87z"
       id="path10"
       style="fill:#b8860b" />
    <path
       d="M2140 8493 c0 -5 -14 -24 -31 -43 -17 -19 -88 -102 -158 -184 -69 -82 -210 -249 -314 -370 -103 -121 -200 -243 -216 -271 -29 -50 -138 -201 -172 -239 -11 -11 -19 -23 -19 -28 0 -4 17 11 38 34 20 24 56 63 78 88 23 25 88 101 145 170 244 297 263 318 488 559 64 68 123 132 131 141 8 10 39 43 68 74 28 31 52 61 52 67 0 11 -90 13 -90 2z"
       id="path12"
       style="fill:#8fbc8f" />
    <path
       d="M2311 8476 c-22 -39 3 -91 56 -117 50 -24 60 -20 103 39 17 23 42 47 55 52 15 6 25 17 25 30 0 19 -6 20 -113 20 -109 0 -114 -1 -126 -24z"
       id="path14"
       style="fill:#808080" />
    <path
       d="M2610 8468 c0 -29 56 -298 62 -303 2 -1 24 -8 50 -14 73 -20 106 -4 229 114 63 61 121 108 142 116 39 14 41 19 31 82 l-7 37 -253 0 -254 0 0 -32z"
       id="path16"
       style="fill:#d3d3d3" />
    <path
       d="M3181 8483 c1 -40 46 -247 51 -238 9 15 58 215 58 236 0 16 -8 19 -55 19 -46 0 -55 -3 -54 -17z"
       id="path18"
       style="fill:#d3d3d3" />
    <path
       d="M3374 8473 c-3 -16 -10 -41 -15 -57 -5 -16 -9 -40 -9 -53 0 -23 2 -24 48 -18 26 4 70 10 97 15 28 5 78 14 113 20 34 5 88 15 120 20 31 6 140 24 242 40 345 57 341 58 -152 59 l-438 1 -6 -27z"
       id="path20"
       style="fill:#808080" />
    <path
       d="M4520 8490 c-8 -5 -73 -20 -145 -35 -71 -14 -170 -34 -220 -45 -205 -46 -348 -71 -475 -85 -206 -23 -342 -43 -350 -52 -4 -4 -18 -51 -30 -103 -69 -288 -139 -504 -216 -669 -30 -63 -54 -118 -54 -124 0 -6 25 -7 68 -3 172 18 281 56 455 159 43 26 80 47 82 47 2 0 41 23 87 52 46 28 92 56 103 62 110 61 394 247 510 335 136 103 405 403 405 452 0 17 -8 19 -102 18 -57 0 -110 -4 -118 -9z"
       id="path22"
       style="fill:#556b2f" />
    <path
       d="M4981 8458 c5 -24 12 -59 15 -78 13 -68 27 -68 41 1 6 35 12 76 12 92 1 25 -2 27 -38 27 l-38 0 8 -42z"
       id="path24"
       style="fill:#8fbc8f" />
    <path
       d="M5117 8493 c-3 -5 -8 -22 -11 -39 -7 -30 -5 -32 47 -58 36 -17 81 -55 136 -112 111 -117 160 -141 239 -113 24 8 34 20 42 47 16 58 60 253 60 268 0 12 -46 14 -254 14 -140 0 -257 -3 -259 -7z"
       id="path26"
       style="fill:#808080" />
    <path
       d="M5770 8492 c0 -4 11 -24 25 -45 20 -28 33 -37 54 -37 38 0 81 35 81 66 0 23 -2 24 -80 24 -44 0 -80 -3 -80 -8z"
       id="path28"
       style="fill:#d3d3d3" />
    <path
       d="M6087 8485 c5 -8 99 -113 210 -232 217 -236 299 -330 425 -487 189 -234 429 -495 807 -876 176 -178 296 -288 201 -184 -26 27 -89 94 -140 149 -153 162 -364 398 -609 680 -60 69 -322 377 -396 465 -107 128 -364 429 -392 460 -13 14 -23 28 -23 32 0 5 -20 8 -45 8 -38 0 -45 -3 -38 -15z"
       id="path30"
       style="fill:#8fbc8f" />
    <path
       d="M6271 8483 c22 -28 440 -516 460 -537 13 -15 39 -21 106 -26 48 -4 92 -4 96 0 4 4 2 25 -6 46 -46 128 -71 242 -88 412 l-13 122 -284 0 c-269 0 -284 -1 -271 -17z"
       id="path32"
       style="fill:#b8860b" />
    <path
       d="M6919 8483 c-3 -25 0 -79 7 -140 5 -48 8 -53 30 -53 35 0 116 84 132 136 22 75 23 74 -78 74 -78 0 -90 -2 -91 -17z"
       id="path34"
       style="fill:#8b4513" />
    <path
       d="M7166 8484 c-3 -9 -6 -24 -6 -35 0 -35 -47 -124 -85 -161 -20 -20 -57 -46 -81 -59 -51 -26 -53 -33 -24 -139 40 -147 41 -148 129 -99 167 93 308 259 345 405 29 111 38 104 -128 104 -122 0 -145 -2 -150 -16z"
       id="path36"
       style="fill:#8fbc8f" />
    <path
       d="M8221 8493 c10 -2 19 -19 23 -41 13 -84 104 -180 190 -203 23 -6 47 -18 54 -27 10 -13 12 12 12 131 l0 147 -147 -1 c-82 -1 -141 -3 -132 -6z"
       id="path38"
       style="fill:#8b4513" />
    <path
       d="M5682 8468 c-7 -7 -12 -18 -12 -26 0 -16 -115 -487 -125 -513 -5 -12 4 -23 32 -39 21 -11 49 -36 61 -54 54 -78 103 -97 158 -61 19 12 24 24 24 56 0 63 28 271 56 406 13 67 24 125 24 128 0 3 -18 2 -40 -1 -42 -7 -45 -4 -130 94 -22 25 -31 27 -48 10z"
       id="path40"
       style="fill:#9370db" />
    <path
       d="M5966 8422 c-9 -32 -16 -65 -16 -73 0 -8 39 -52 87 -99 64 -64 113 -126 194 -250 167 -256 216 -324 282 -390 57 -58 147 -120 175 -120 9 0 12 26 12 96 0 110 6 98 -128 262 -73 89 -266 308 -312 352 -8 8 -71 75 -139 148 -68 72 -127 132 -131 132 -4 0 -15 -26 -24 -58z"
       id="path42"
       style="fill:#9370db" />
    <path
       d="M347 8462 c-9 -2 -17 -11 -17 -20 0 -9 -14 -44 -30 -77 -16 -33 -30 -65 -30 -70 0 -17 434 -445 451 -445 9 0 37 11 62 26 97 54 202 77 362 80 87 1 141 6 143 13 2 6 -32 45 -76 88 -111 110 -179 217 -218 346 -12 37 -24 57 -34 57 -150 3 -601 4 -613 2z"
       id="path44"
       style="fill:#8fbc8f" />
    <path
       d="M7547 8462 c-10 -2 -21 -20 -28 -45 -34 -131 -158 -318 -258 -392 -28 -20 -40 -37 -39 -50 3 -19 9 -20 108 -17 146 5 274 -22 390 -80 30 -16 61 -28 70 -28 8 0 114 99 235 220 l219 220 -26 52 c-14 29 -31 68 -38 86 -7 17 -18 32 -24 32 -218 3 -597 4 -609 2z"
       id="path46"
       style="fill:#483d8b" />
    <path
       d="M4744 8327 c-71 -73 -160 -166 -199 -207 -63 -68 -104 -113 -295 -325 -86 -95 -121 -135 -180 -205 -30 -36 -61 -71 -68 -79 -26 -27 -169 -207 -187 -235 l-19 -28 45 7 c24 4 76 15 114 25 258 68 561 48 785 -52 47 -20 65 -27 157 -59 l93 -31 107 43 c60 24 147 62 194 85 l86 42 6 49 c16 130 19 193 9 193 -6 0 -14 -9 -17 -21 -12 -36 -75 -99 -100 -99 -34 0 -53 23 -106 135 -85 177 -150 378 -235 732 -21 90 -44 163 -50 163 -6 0 -69 -60 -140 -133z"
       id="path48"
       style="fill:#483d8b" />
    <path
       d="M2079 8223 c-96 -103 -183 -196 -194 -207 -46 -47 -232 -266 -281 -332 l-54 -71 0 -91 c0 -83 2 -92 18 -92 32 0 135 74 190 136 54 60 170 224 213 301 54 96 159 233 241 315 49 49 88 93 88 98 0 21 -34 130 -40 130 -3 0 -85 -84 -181 -187z"
       id="path50"
       style="fill:#808080" />
    <path
       d="M2496 8360 c-40 -55 -70 -68 -123 -52 -35 11 -35 11 -28 -16 31 -115 66 -323 80 -480 8 -79 20 -95 81 -108 26 -5 35 -1 60 27 51 58 99 104 118 114 18 10 18 13 2 75 -41 157 -65 252 -86 345 -37 168 -46 176 -104 95z"
       id="path52"
       style="fill:#9370db" />
    <path
       d="M5087 8348 c-3 -13 -12 -62 -18 -110 -14 -96 -16 -82 48 -318 41 -153 73 -239 131 -357 14 -29 30 -53 34 -53 13 0 58 78 111 189 50 109 78 187 142 399 6 21 4 22 -50 22 -81 0 -117 21 -225 132 -112 114 -162 142 -173 96z"
       id="path54"
       style="fill:#556b2f" />
    <path
       d="M3090 8330 c-19 -10 -72 -57 -118 -105 -99 -104 -149 -130 -229 -122 -61 6 -59 19 -22 -103 64 -212 90 -280 156 -412 41 -82 80 -148 87 -148 22 0 121 231 156 365 5 17 23 84 40 150 l32 120 -17 115 c-18 119 -29 160 -42 160 -5 -1 -24 -9 -43 -20z"
       id="path56"
       style="fill:#9370db" />
    <path
       d="M5926 8258 c-2 -13 -9 -48 -15 -78 -6 -30 -16 -92 -23 -138 l-12 -83 90 -92 c118 -120 132 -139 319 -422 126 -191 175 -256 244 -325 81 -81 172 -143 187 -128 4 4 1 76 -5 160 -6 84 -11 183 -11 219 0 66 0 67 -32 80 -135 53 -232 156 -409 429 -62 96 -128 195 -147 220 -39 53 -162 180 -173 180 -5 0 -11 -10 -13 -22z"
       id="path58"
       style="fill:#808080" />
    <path
       d="M155 8210 c-28 -14 -65 -32 -83 -38 l-32 -11 0 -314 0 -315 73 -24 c113 -38 230 -112 324 -205 46 -46 89 -83 96 -83 10 0 13 30 13 128 1 147 23 248 82 370 l35 74 -214 214 c-118 119 -221 219 -229 223 -9 5 -34 -2 -65 -19z"
       id="path60"
       style="fill:#483d8b" />
    <path
       d="M8074 8020 c-120 -121 -220 -224 -222 -230 -2 -6 9 -37 26 -68 59 -111 97 -302 86 -426 -4 -50 -3 -75 5 -80 7 -4 38 21 77 62 99 107 262 211 369 236 57 14 55 5 55 326 0 289 -3 330 -21 330 -5 0 -34 12 -66 27 -32 15 -65 30 -74 34 -13 6 -69 -45 -235 -211z"
       id="path62"
       style="fill:#8fbc8f" />
    <path
       d="M2221 8134 c-50 -53 -122 -152 -228 -313 -181 -275 -263 -367 -375 -420 -64 -30 -68 -34 -68 -66 0 -19 -5 -114 -11 -210 -6 -97 -8 -179 -5 -182 11 -11 105 60 177 134 79 82 152 181 312 425 101 153 210 291 294 369 l50 47 -13 88 c-7 49 -17 113 -23 143 -6 29 -11 55 -11 57 0 19 -37 -9 -99 -72z"
       id="path64"
       style="fill:#9370db" />
    <path
       d="M987 7885 c-175 -35 -281 -122 -345 -282 -25 -64 -26 -78 -26 -228 -1 -127 3 -173 18 -222 27 -92 31 -93 133 -38 49 26 96 55 107 65 18 17 18 20 2 66 -49 144 26 305 173 371 56 25 115 27 236 8 36 -6 41 -4 56 22 9 15 35 60 58 99 23 39 39 77 36 86 -7 18 -57 34 -168 54 -99 17 -189 17 -280 -1z"
       id="path66"
       style="fill:#8b4513" />
    <path
       d="M7235 7885 c-96 -17 -156 -36 -162 -51 -5 -14 2 -29 66 -137 46 -79 46 -79 81 -72 19 4 69 9 110 12 91 5 146 -14 216 -79 65 -60 96 -132 96 -225 0 -39 -5 -81 -11 -92 -17 -31 -13 -55 12 -70 63 -41 174 -101 184 -101 20 0 40 50 57 139 43 223 -4 440 -120 555 -110 110 -323 159 -529 121z"
       id="path68"
       style="fill:#8b4513" />
    <path
       d="M5873 7875 c-11 -27 -10 -450 1 -593 l9 -113 58 -46 c61 -47 105 -105 162 -212 61 -114 107 -169 164 -197 74 -37 100 -31 132 32 60 118 76 115 131 -21 54 -134 93 -179 204 -236 47 -24 88 -41 91 -37 4 3 -5 37 -18 75 -26 73 -62 240 -73 338 l-6 61 -65 34 c-126 67 -240 192 -401 440 -155 239 -216 322 -298 408 -73 78 -83 85 -91 67z"
       id="path70"
       style="fill:#556b2f" />
    <path
       d="M5527 7853 c-8 -15 -26 -109 -37 -198 -7 -49 -16 -120 -21 -157 -5 -37 -9 -100 -9 -142 l0 -74 67 -59 c36 -32 122 -122 191 -201 68 -79 126 -141 128 -139 2 2 -1 41 -7 88 -19 158 -28 334 -29 546 l0 213 -26 -10 c-61 -24 -83 -14 -159 65 -68 71 -88 85 -98 68z"
       id="path72"
       style="fill:#556b2f" />
    <path
       d="M6816 7848 c6 -11 109 -133 124 -148 3 -3 30 -34 60 -70 30 -36 57 -67 60 -70 3 -3 32 -36 65 -75 141 -164 289 -331 304 -343 21 -17 116 -44 137 -40 11 2 -18 29 -80 77 -179 136 -343 335 -456 552 -66 128 -66 129 -163 129 -44 0 -56 -3 -51 -12z"
       id="path74"
       style="fill:#8b4513" />
    <path
       d="M2304 7795 c-90 -91 -159 -182 -295 -390 -151 -229 -181 -270 -267 -358 -65 -67 -151 -137 -168 -137 -5 0 -19 -8 -31 -18 -18 -14 -24 -34 -33 -117 -17 -148 -47 -272 -87 -363 -8 -19 -12 -36 -10 -39 7 -6 112 42 168 78 60 38 89 81 140 207 50 123 66 130 112 45 26 -49 31 -53 65 -53 89 1 162 64 245 214 65 115 109 173 172 223 l53 42 8 118 c11 151 8 539 -4 578 l-9 30 -59 -60z"
       id="path76"
       style="fill:#556b2f" />
    <path
       d="M2662 7771 c-15 -15 -42 -45 -60 -64 -38 -43 -72 -54 -124 -40 l-38 10 0 -231 c0 -232 -10 -403 -31 -549 -6 -43 -9 -80 -7 -83 3 -2 52 48 108 113 57 65 144 157 193 206 l90 88 -6 107 c-4 59 -16 170 -27 247 -34 234 -44 255 -98 196z"
       id="path78"
       style="fill:#556b2f" />
    <path
       d="M3765 7608 c-41 -16 -130 -64 -196 -109 -64 -43 -407 -229 -423 -229 -7 0 -7 -3 0 -10 21 -21 413 -48 499 -36 32 5 53 16 69 34 13 15 61 69 106 120 44 52 90 108 101 125 24 40 25 86 2 103 -21 16 -116 17 -158 2z"
       id="path80"
       style="fill:#778899" />
    <path
       d="M6764 7490 c15 -266 15 -265 50 -280 17 -7 63 -45 101 -84 55 -56 82 -95 129 -186 107 -209 166 -278 263 -306 64 -19 120 -16 114 6 -2 8 -5 72 -6 141 l-1 127 -203 208 c-112 115 -251 263 -309 329 -162 185 -145 180 -138 45z"
       id="path82"
       style="fill:#d3d3d3" />
    <path
       d="M1095 7567 c-117 -45 -188 -159 -165 -264 11 -46 24 -59 49 -47 57 26 281 258 281 290 0 30 -107 43 -165 21z"
       id="path84"
       style="fill:#b8860b" />
    <path
       d="M7278 7568 c-16 -5 -28 -16 -28 -23 0 -30 182 -222 267 -283 l32 -22 15 22 c10 14 16 43 16 75 0 156 -165 282 -302 231z"
       id="path86"
       style="fill:#483d8b" />
    <path
       d="M1373 7402 c-61 -70 -208 -228 -327 -350 l-217 -222 2 -67 c3 -99 9 -107 79 -100 71 6 150 46 191 97 16 19 63 101 104 181 85 166 120 210 204 265 53 34 60 43 65 79 9 66 19 245 14 245 -3 0 -55 -58 -115 -128z"
       id="path88"
       style="fill:#808080" />
    <path
       d="M7 7453 c-4 -3 -7 -71 -7 -150 l0 -143 30 0 c87 0 202 -79 245 -168 24 -51 42 -53 165 -17 114 34 119 40 86 102 -100 182 -274 330 -436 369 -64 15 -74 16 -83 7z"
       id="path90"
       style="fill:#8fbc8f" />
    <path
       d="M8415 7446 c-150 -38 -294 -151 -398 -312 -72 -111 -71 -120 13 -147 154 -50 175 -48 207 13 12 25 41 62 64 82 42 38 131 78 175 78 l25 0 -3 147 c-3 166 0 160 -83 139z"
       id="path92"
       style="fill:#8b4513" />
    <path
       d="M1189 7323 c-2 -4 -47 -45 -99 -89 -52 -45 -108 -97 -124 -115 -26 -30 -213 -236 -226 -249 -3 -3 -54 -59 -115 -125 -60 -66 -114 -123 -120 -127 -6 -5 -6 -8 1 -8 12 0 458 450 610 616 48 52 84 97 81 100 -2 3 -7 2 -8 -3z"
       id="path94"
       style="fill:#8fbc8f" />
    <path
       d="M4170 7270 c-47 -4 -119 -15 -160 -24 -41 -10 -115 -26 -165 -38 -142 -32 -392 -35 -630 -9 -280 31 -347 27 -353 -22 -3 -25 0 -27 30 -27 19 0 106 -13 193 -29 267 -49 283 -49 600 -6 428 58 752 36 1074 -72 167 -55 256 -64 406 -38 138 23 303 45 348 45 49 0 48 15 -8 70 l-44 44 -133 -35 c-115 -29 -149 -34 -248 -34 -124 1 -131 3 -342 86 -129 51 -233 78 -348 89 -103 10 -97 10 -220 0z"
       id="path96"
       style="fill:#0000ff" />
    <path
       d="M1404 7151 c-58 -45 -86 -86 -174 -256 -74 -142 -99 -177 -156 -218 -59 -41 -108 -57 -180 -57 l-61 0 -13 -62 c-19 -100 -60 -248 -86 -312 l-24 -59 104 6 c145 9 270 37 418 94 72 28 74 30 116 138 52 133 85 298 107 535 17 174 18 230 8 230 -5 0 -31 -18 -59 -39z"
       id="path98"
       style="fill:#9370db" />
    <path
       d="M6780 7153 c0 -31 28 -286 39 -353 30 -184 110 -411 149 -423 9 -3 44 -15 77 -27 33 -13 75 -27 93 -31 17 -5 49 -13 70 -19 91 -24 322 -49 322 -35 0 3 -16 56 -36 118 -20 61 -42 130 -48 152 l-13 40 -69 6 c-153 12 -225 80 -359 340 -46 90 -73 128 -127 182 -68 67 -98 82 -98 50z"
       id="path100"
       style="fill:#9370db" />
    <path
       d="M0 7006 l0 -96 54 0 c51 0 155 15 164 25 11 10 -10 53 -43 86 -39 41 -89 68 -141 76 l-34 6 0 -97z"
       id="path102"
       style="fill:#8fbc8f" />
    <path
       d="M2803 7088 c-33 -11 -122 -99 -223 -218 -30 -36 -87 -99 -126 -140 -79 -83 -83 -89 -112 -175 -54 -161 -66 -266 -58 -512 6 -200 13 -303 36 -498 24 -217 31 -373 20 -522 -14 -193 -18 -224 -83 -543 -74 -363 -97 -553 -104 -860 -5 -219 -1 -297 39 -620 16 -134 19 -211 16 -414 l-3 -249 71 -23 c94 -29 145 -56 229 -119 67 -50 100 -83 310 -318 48 -53 107 -111 132 -128 55 -38 73 -78 73 -163 0 -36 3 -67 8 -69 4 -3 43 1 87 9 44 7 147 20 229 30 182 21 243 15 596 -57 488 -99 485 -99 624 -99 205 0 406 42 678 139 74 27 246 71 276 71 42 0 156 104 321 293 181 206 272 276 425 329 44 16 114 31 154 35 l72 6 0 33 c0 65 -41 213 -100 359 -76 188 -125 355 -161 540 -17 88 -18 445 -1 535 6 36 16 101 22 145 6 44 15 114 20 155 96 711 97 736 41 1120 -47 316 -44 478 18 835 12 66 24 161 29 211 8 96 -4 333 -17 347 -5 5 -37 10 -72 11 -100 5 -245 58 -345 127 -52 35 -182 162 -259 253 l-59 68 -80 -6 c-45 -4 -160 -18 -256 -32 -96 -14 -219 -26 -272 -25 -87 0 -110 4 -233 45 -255 84 -442 111 -715 103 -181 -6 -227 -10 -460 -41 -193 -26 -300 -21 -535 25 -77 15 -216 19 -252 7z m264 -288 c48 -22 67 -37 79 -63 16 -33 16 -37 -2 -72 -11 -21 -31 -44 -45 -53 -25 -14 -32 -14 -81 2 -88 27 -119 6 -153 -104 -23 -72 -33 -416 -16 -517 13 -71 53 -173 69 -173 6 0 20 21 32 48 19 40 24 69 28 190 5 136 4 142 -15 142 -26 0 -63 36 -63 60 0 36 35 60 90 60 83 0 120 -30 120 -98 0 -15 4 -33 9 -41 6 -9 11 9 16 55 4 38 18 125 32 194 51 254 127 351 281 353 115 2 150 -41 178 -213 24 -145 14 -475 -18 -630 -17 -81 -54 -156 -96 -190 -74 -61 -205 -32 -288 63 -41 46 -84 149 -85 202 0 17 -4 39 -8 50 -6 15 -10 4 -15 -40 -19 -166 -52 -252 -115 -307 -77 -66 -204 -81 -285 -34 -110 64 -152 178 -162 441 -11 270 22 416 124 549 83 110 192 172 282 161 24 -3 73 -18 107 -35z m882 -48 c53 -32 91 -98 142 -243 30 -84 34 -105 34 -204 0 -60 -5 -123 -11 -140 -7 -16 -17 -50 -24 -75 -26 -94 -71 -216 -95 -256 -14 -24 -45 -59 -69 -79 -78 -64 -191 -56 -235 16 -19 30 -19 49 -16 368 3 277 8 357 24 454 23 133 35 166 71 185 38 20 126 7 179 -26z m726 -63 c35 -67 7 -246 -60 -379 -30 -59 -35 -80 -33 -123 l3 -52 30 59 c17 33 53 83 81 112 43 44 58 53 99 60 84 12 121 -25 132 -132 3 -30 10 -57 14 -60 4 -2 26 15 49 40 53 58 119 88 191 90 65 1 91 -15 116 -74 12 -29 14 -68 10 -223 -6 -225 0 -342 18 -327 7 6 18 38 25 73 16 76 41 137 75 181 30 40 31 56 5 124 -51 134 -2 286 104 327 55 21 88 14 127 -25 23 -23 29 -37 29 -74 0 -47 -14 -70 -53 -82 -29 -9 -37 -22 -37 -61 0 -40 10 -41 94 -13 80 27 108 25 140 -7 46 -46 34 -64 -69 -98 -106 -35 -108 -39 -76 -158 24 -88 27 -175 7 -231 -19 -56 -60 -103 -96 -111 -50 -11 -147 5 -184 30 l-33 22 -39 -23 c-56 -34 -105 -32 -148 6 -19 17 -40 47 -46 65 -11 33 -14 35 -53 34 -81 -2 -89 -8 -125 -94 -18 -44 -43 -90 -54 -103 -51 -53 -143 -45 -185 17 -37 54 -31 152 32 581 9 57 14 111 13 120 -4 19 -61 -101 -76 -160 -17 -64 -32 -202 -32 -288 0 -114 -35 -172 -105 -172 -44 0 -73 24 -99 83 -40 89 -60 157 -77 265 -6 39 -14 72 -17 72 -4 0 -16 -7 -26 -15 -24 -18 -68 -19 -84 -3 -25 25 -13 80 42 182 54 100 64 130 86 256 26 150 54 221 106 275 68 70 147 77 179 14z m-857 -1365 c28 -31 28 -64 1 -98 -15 -19 -30 -26 -55 -26 -30 0 -36 -5 -58 -47 -27 -54 -72 -230 -62 -241 4 -4 22 2 39 12 18 10 55 20 84 23 48 5 54 3 82 -24 17 -18 33 -46 37 -69 4 -21 1 -134 -7 -251 -15 -209 -15 -213 -44 -254 -17 -23 -50 -56 -73 -73 -39 -27 -52 -31 -112 -31 -61 0 -72 3 -107 31 -49 39 -106 152 -135 264 -18 69 -22 115 -22 250 -1 185 14 271 63 368 59 116 129 173 233 191 72 13 109 6 136 -25z m381 8 c46 -24 97 -90 112 -145 21 -78 -7 -359 -42 -430 l-22 -41 33 -167 c29 -148 31 -170 19 -195 -12 -24 -21 -29 -49 -29 -43 0 -71 37 -89 121 -27 126 -42 164 -61 164 -28 0 -32 -13 -40 -135 -10 -142 -22 -169 -74 -173 -52 -4 -81 24 -90 85 -6 47 15 475 35 718 12 139 34 206 81 240 29 21 135 14 187 -13z m488 14 c85 -15 123 -37 123 -71 0 -45 -42 -65 -136 -65 -45 0 -85 -3 -87 -7 -3 -5 -8 -32 -12 -60 l-7 -53 75 0 c76 0 131 -13 156 -36 13 -12 13 -17 0 -40 -21 -40 -64 -62 -138 -69 -36 -4 -73 -8 -81 -11 -13 -3 -18 -36 -28 -172 -7 -92 -12 -205 -12 -251 l0 -83 25 6 c13 3 51 9 83 12 54 6 60 5 76 -17 20 -30 21 -73 1 -93 -20 -19 -61 -30 -202 -52 -104 -16 -113 -16 -137 -1 -36 24 -40 65 -27 245 7 87 16 276 21 422 4 146 11 282 15 302 18 95 114 126 292 94z m459 -11 c44 -34 54 -54 75 -155 9 -47 24 -119 32 -160 24 -114 46 -254 57 -365 6 -55 18 -148 26 -206 19 -123 12 -149 -36 -149 -37 0 -45 15 -75 137 -13 52 -25 97 -27 99 -2 2 -47 6 -100 10 l-96 7 -10 -34 c-6 -19 -19 -67 -28 -108 -21 -91 -55 -134 -103 -134 -39 0 -83 31 -92 64 -10 41 38 305 112 609 63 256 96 341 151 384 42 33 72 33 114 1z m665 -13 c35 -39 35 -42 9 -75 -21 -27 -73 -47 -121 -47 l-26 0 -7 -182 c-7 -177 -18 -371 -32 -568 -7 -101 -21 -143 -55 -161 -31 -16 -85 -2 -109 28 -21 26 -21 35 -19 447 l1 420 -46 11 c-93 24 -113 79 -50 135 l37 32 194 -4 195 -3 29 -33z m-2808 4 c25 -27 48 -99 76 -236 33 -165 34 -186 14 -220 -35 -60 -92 -48 -123 26 -11 24 -24 44 -31 44 -6 0 -32 -22 -58 -50 -26 -28 -56 -50 -67 -50 -32 0 -64 37 -64 73 0 34 66 226 115 336 44 97 94 125 138 77z m196 -1143 c67 -34 101 -90 101 -165 0 -79 -59 -168 -111 -168 -30 0 -59 -36 -59 -74 0 -45 -33 -86 -69 -86 -62 0 -81 69 -81 298 0 202 19 238 120 227 25 -3 69 -17 99 -32z m503 -55 c21 -31 23 -42 21 -151 l-2 -117 38 6 c31 5 43 2 66 -18 30 -26 37 -67 15 -93 -21 -26 -173 -60 -217 -49 -46 12 -63 68 -63 211 1 191 19 243 86 243 25 0 38 -7 56 -32z m811 1 c43 -20 81 -108 123 -283 22 -93 14 -129 -30 -134 -30 -4 -71 26 -82 60 -4 14 -15 18 -53 18 -54 0 -80 -18 -107 -76 -34 -71 -99 -65 -124 11 -13 40 -3 78 72 270 39 98 47 112 78 127 40 20 88 23 123 7z m908 -21 c11 -13 24 -32 29 -43 11 -29 -9 -375 -24 -405 -14 -30 -51 -38 -76 -15 -10 9 -27 40 -37 68 -12 36 -35 68 -72 105 -29 28 -58 52 -62 52 -5 0 -9 -26 -9 -57 0 -92 -40 -153 -91 -140 -49 13 -67 79 -70 265 -2 104 0 125 16 141 33 37 112 39 151 3 33 -31 117 -92 125 -92 4 0 11 17 14 38 10 57 15 71 31 87 22 21 50 19 75 -7z m-1144 -477 c16 -16 35 -47 41 -68 15 -49 16 -190 2 -298 -27 -214 -43 -396 -47 -555 -5 -193 2 -239 36 -221 30 17 88 112 109 182 11 35 25 105 32 154 30 235 61 340 111 376 35 25 85 24 127 -1 58 -36 58 -36 21 -370 -18 -163 -22 -323 -10 -368 12 -43 13 -44 33 -25 11 10 26 29 33 43 16 31 35 160 35 238 0 95 31 308 66 452 36 150 75 234 140 302 118 125 282 69 283 -97 1 -78 -47 -230 -126 -405 -49 -105 -49 -108 -15 -144 36 -38 82 -116 82 -139 0 -10 4 -17 9 -17 4 0 11 51 14 113 15 280 120 448 273 435 76 -6 124 -42 163 -119 74 -149 15 -304 -138 -358 l-46 -17 -3 -76 c-2 -62 1 -85 19 -122 25 -55 55 -67 104 -43 49 23 84 73 116 167 40 115 61 135 93 88 23 -32 20 -67 -13 -162 -56 -161 -116 -227 -234 -257 -95 -23 -207 29 -272 127 -21 31 -38 54 -39 52 -1 -2 1 -46 4 -98 13 -235 -21 -415 -112 -592 -50 -97 -92 -128 -174 -128 -64 0 -100 17 -130 63 -58 90 -84 224 -84 443 l0 131 -52 -14 c-76 -19 -143 -4 -201 47 -24 22 -50 54 -57 72 -8 18 -15 35 -17 37 -1 2 -27 -21 -56 -51 -67 -70 -120 -98 -187 -98 -120 0 -206 97 -240 271 -11 54 -11 94 -1 205 13 156 27 285 41 389 6 39 17 126 25 195 11 91 22 139 41 177 52 107 141 144 201 84z m-1303 -144 c10 -7 18 -27 18 -44 1 -21 5 -30 12 -26 6 4 26 17 45 30 42 29 134 32 170 7 14 -10 26 -13 30 -7 15 24 49 31 125 26 98 -7 110 -13 136 -63 26 -51 25 -100 -1 -153 l-22 -41 23 -42 c27 -51 23 -84 -11 -103 -33 -18 -80 -2 -99 35 -18 32 -36 30 -48 -5 -12 -34 -55 -66 -77 -57 -9 3 -23 22 -31 42 l-15 37 -32 -30 c-41 -38 -78 -53 -128 -53 -74 0 -114 45 -125 144 -4 31 -10 56 -14 56 -22 0 -58 -44 -65 -77 -11 -62 -30 -83 -74 -83 -23 0 -44 6 -52 16 -15 18 -30 102 -35 204 -2 41 -6 94 -10 116 -5 34 -3 45 15 63 19 19 32 21 134 21 76 0 119 -4 131 -13z m1750 -33 c72 -73 -10 -206 -92 -148 -32 22 -55 71 -47 103 17 70 90 94 139 45z m-1912 -529 c24 -25 48 -45 54 -45 6 0 21 11 34 24 19 21 98 66 115 66 2 0 11 -13 20 -30 13 -24 19 -28 37 -21 29 11 85 -5 123 -34 l31 -23 32 29 c18 16 40 29 50 29 38 0 46 -17 50 -97 1 -43 6 -89 9 -103 l6 -25 7 25 c5 14 8 59 9 101 1 91 12 105 70 95 26 -4 57 1 96 14 71 24 98 25 131 4 67 -44 78 -163 23 -238 l-22 -30 27 -82 c31 -91 29 -120 -11 -130 -34 -9 -53 4 -81 54 -23 42 -42 54 -42 29 0 -22 -36 -49 -61 -45 -22 3 -40 28 -53 71 -5 16 -10 14 -33 -15 -16 -18 -37 -41 -48 -50 -21 -18 -62 -23 -81 -10 -20 12 -54 76 -54 100 0 32 -15 27 -40 -13 -47 -76 -129 -112 -187 -82 -40 21 -53 39 -73 100 l-17 52 -7 -77 c-9 -91 -31 -128 -76 -128 -16 0 -32 6 -37 13 -4 6 -10 66 -13 133 -5 115 -6 122 -35 158 -73 93 -84 112 -85 145 0 41 33 81 66 81 14 0 40 -17 66 -45z m1083 -595 c8 -16 15 -45 15 -64 0 -32 4 -36 33 -44 52 -14 71 -77 47 -164 -13 -47 -34 -54 -60 -21 -22 28 -22 28 -39 -5 -10 -18 -18 -22 -36 -18 -13 3 -27 1 -31 -5 -8 -13 -83 -4 -131 16 -21 9 -35 10 -39 4 -3 -6 -18 -7 -33 -4 -19 4 -32 1 -41 -10 -16 -19 -29 -19 -52 2 -11 9 -18 11 -18 5 0 -16 -33 -15 -48 0 -10 10 -16 7 -28 -10 -21 -31 -43 -27 -56 9 l-11 31 -24 -31 c-39 -50 -95 -40 -127 23 l-15 29 -12 -26 c-14 -31 -21 -33 -54 -11 -14 9 -25 12 -25 6 0 -40 -94 -57 -139 -26 -17 12 -26 13 -34 5 -6 -6 -23 -11 -37 -11 -66 0 -97 71 -41 93 25 9 30 17 33 56 3 37 -1 52 -20 79 -28 37 -21 54 31 71 41 14 89 1 102 -27 7 -17 18 -22 45 -22 23 0 45 -8 58 -21 l22 -20 29 20 c34 25 86 28 95 6 4 -11 11 -13 30 -6 35 14 63 3 80 -32 12 -27 16 -29 22 -14 10 27 60 50 83 37 11 -5 38 -10 60 -10 28 0 43 -5 50 -17 9 -16 11 -16 31 2 l22 20 26 -30 27 -30 28 29 c24 24 34 28 67 23 36 -5 38 -3 44 25 3 17 6 41 6 55 0 32 17 63 35 63 8 0 21 -13 30 -30z m-217 -22 c20 -20 14 -48 -14 -60 -29 -14 -57 -2 -62 26 -8 37 48 62 76 34z m500 -68 c12 -12 22 -25 22 -31 0 -6 13 -1 29 10 49 35 81 25 120 -39 26 -44 27 -90 2 -139 -35 -67 -95 -90 -116 -44 -7 17 -15 21 -30 16 -31 -10 -110 -7 -133 6 -29 15 -28 33 5 93 25 47 26 51 10 63 -21 15 -22 34 -1 63 19 28 63 29 92 2z m492 -20 c17 -17 20 -33 20 -105 0 -82 -1 -85 -25 -91 -14 -3 -32 -1 -39 6 -12 9 -19 7 -36 -10 -19 -19 -24 -20 -43 -7 -19 12 -22 25 -25 96 -2 44 2 90 8 101 12 22 40 26 58 8 10 -9 16 -8 29 5 22 22 29 21 53 -3z"
       id="path104"
       style="fill:#6495ed" />
    <path
       d="M2863 6761 c-55 -25 -124 -90 -164 -152 -78 -123 -104 -272 -89 -519 17 -280 91 -396 243 -376 148 20 206 129 207 392 0 121 -6 154 -30 154 -3 0 -4 -71 -2 -157 2 -103 -1 -173 -9 -203 -33 -122 -96 -173 -146 -117 -72 80 -100 265 -83 552 12 211 44 299 124 339 36 18 41 18 98 2 46 -13 63 -14 74 -5 28 23 16 48 -37 74 -69 36 -133 41 -186 16z"
       id="path106"
       style="fill:#20b2aa" />
    <path
       d="M3385 6715 c-102 -36 -158 -174 -196 -483 -31 -250 54 -435 210 -458 127 -18 181 145 180 546 0 209 -8 289 -38 363 -18 46 -80 59 -156 32z m134 -69 c18 -21 43 -352 36 -461 -19 -271 -60 -385 -140 -385 -54 0 -82 47 -114 192 -14 61 -14 296 0 356 5 26 15 67 21 92 14 63 48 150 71 184 37 53 92 63 126 22z"
       id="path108"
       style="fill:#20b2aa" />
    <path
       d="M3432 6583 c-23 -33 -45 -94 -69 -195 -13 -54 -18 -112 -17 -223 1 -155 15 -239 49 -291 16 -25 17 -25 36 -8 58 53 85 337 57 622 -12 131 -20 145 -56 95z"
       id="path110"
       style="fill:#6495ed" />
    <path
       d="M3780 6708 c-29 -70 -44 -210 -46 -428 -1 -124 -5 -276 -9 -338 -8 -130 0 -152 60 -172 31 -10 40 -9 77 12 79 43 115 111 185 348 49 169 32 305 -61 493 -25 51 -39 66 -76 85 -24 12 -61 22 -82 22 -30 0 -40 -5 -48 -22z m145 -69 c71 -86 108 -207 108 -359 0 -149 -48 -298 -122 -383 -38 -43 -57 -46 -72 -14 -15 34 4 752 21 772 19 23 35 18 65 -16z"
       id="path112"
       style="fill:#20b2aa" />
    <path
       d="M3896 6468 c-3 -50 -6 -184 -6 -297 l1 -206 23 45 c82 156 89 339 21 508 -9 23 -21 42 -25 42 -4 0 -10 -41 -14 -92z"
       id="path114"
       style="fill:#6495ed" />
    <path
       d="M4558 6655 c-20 -13 -45 -39 -56 -57 -21 -35 -52 -155 -72 -277 -9 -53 -27 -104 -66 -182 -30 -59 -54 -113 -54 -119 0 -7 18 4 40 24 63 56 71 47 90 -99 21 -162 69 -303 110 -325 19 -10 26 -9 43 8 18 18 21 39 28 169 8 165 17 214 60 323 50 126 101 187 134 160 15 -13 17 -29 11 -130 -3 -63 -10 -137 -15 -165 -16 -88 -39 -267 -44 -356 -6 -97 4 -128 45 -143 49 -17 83 19 120 128 18 55 59 96 95 96 40 0 46 9 22 29 -56 45 -51 240 9 357 23 45 86 104 112 104 42 0 49 -45 29 -199 -22 -176 -29 -198 -72 -241 l-39 -40 37 0 c38 0 64 -20 65 -49 0 -8 11 -29 26 -48 18 -24 33 -33 55 -33 34 0 35 4 10 31 -28 30 -33 91 -29 346 3 209 1 231 -16 257 -17 26 -22 28 -66 23 -97 -12 -161 -67 -212 -185 -29 -69 -33 -86 -31 -162 1 -47 4 -113 8 -147 6 -54 3 -73 -20 -133 -30 -78 -57 -105 -88 -89 -17 10 -18 18 -12 92 3 45 13 134 22 197 9 63 19 142 24 175 36 265 14 344 -82 304 -36 -15 -91 -77 -118 -134 -15 -32 -51 -181 -51 -211 0 -2 -11 -4 -24 -4 -31 0 -41 28 -56 148 -13 112 -8 147 35 232 45 90 64 164 67 254 2 59 -1 79 -12 86 -21 13 -21 13 -62 -15z"
       id="path116"
       style="fill:#20b2aa" />
    <path
       d="M5534 6321 c-37 -23 -74 -96 -74 -148 0 -21 11 -69 25 -107 31 -86 31 -94 -1 -142 -46 -67 -61 -97 -73 -154 -7 -30 -17 -71 -23 -90 -7 -22 -7 -35 -1 -37 6 -2 25 -15 43 -28 19 -14 36 -22 39 -19 3 3 1 8 -5 12 -6 4 -17 24 -23 44 -16 50 0 132 42 211 42 79 60 76 110 -23 36 -71 38 -79 35 -152 -3 -64 -1 -73 9 -55 24 45 25 109 2 207 -32 139 -34 167 -14 190 17 19 17 20 -6 20 -14 0 -35 7 -47 16 -18 13 -22 25 -22 74 0 76 15 108 54 118 36 10 45 36 20 63 -22 24 -50 24 -90 0z"
       id="path118"
       style="fill:#20b2aa" />
    <path
       d="M5123 6097 c-36 -46 -56 -124 -56 -211 1 -43 6 -83 11 -88 15 -15 52 48 52 86 0 16 5 57 11 91 6 33 9 81 7 105 l-3 45 -22 -28z"
       id="path120"
       style="fill:#6495ed" />
    <path
       d="M5507 5783 c-29 -81 -20 -141 24 -156 29 -10 42 9 43 65 0 61 -21 138 -39 138 -6 0 -19 -21 -28 -47z"
       id="path122"
       style="fill:#6495ed" />
    <path
       d="M3660 5287 c-73 -18 -161 -119 -192 -222 -18 -59 -38 -201 -38 -271 0 -67 6 -116 32 -244 14 -70 69 -188 102 -219 28 -27 103 -39 132 -22 18 10 18 10 1 11 -57 1 -117 233 -117 451 0 163 28 305 81 411 30 60 52 78 92 78 30 0 40 10 26 27 -13 15 -55 15 -119 0z"
       id="path124"
       style="fill:#20b2aa" />
    <path
       d="M3743 4887 c-48 -18 -48 -24 -1 -31 24 -4 53 -17 65 -28 l23 -21 0 31 c0 21 -7 36 -22 46 -26 18 -23 18 -65 3z"
       id="path126"
       style="fill:#20b2aa" />
    <path
       d="M3640 4711 c0 -148 40 -321 74 -321 6 0 17 9 23 19 16 25 40 368 27 380 -5 5 -35 11 -66 13 l-58 5 0 -96z"
       id="path128"
       style="fill:#6495ed" />
    <path
       d="M4031 5287 c-33 -41 -41 -93 -61 -408 -25 -401 -26 -502 -4 -520 21 -17 34 3 34 56 0 81 21 210 37 227 13 15 14 20 3 33 -24 29 4 516 32 573 17 33 51 27 96 -15 55 -53 66 -111 54 -281 -10 -143 -26 -187 -86 -240 -41 -36 -43 -42 -18 -42 34 0 53 -37 84 -157 45 -182 67 -177 28 6 -33 157 -36 210 -11 264 12 26 23 66 26 89 25 224 26 258 15 295 -17 54 -57 103 -96 119 -42 18 -118 18 -133 1z"
       id="path130"
       style="fill:#20b2aa" />
    <path
       d="M4106 5148 c-27 -285 -32 -398 -18 -398 11 0 47 39 63 70 8 16 14 76 17 170 3 133 2 148 -17 178 -11 17 -25 32 -30 32 -5 0 -12 -24 -15 -52z"
       id="path132"
       style="fill:#6495ed" />
    <path
       d="M4483 5288 c-12 -6 -27 -25 -32 -42 -5 -17 -12 -137 -16 -266 -3 -129 -12 -321 -20 -427 -8 -105 -12 -199 -9 -207 7 -19 25 -19 114 -6 116 18 160 31 160 47 0 10 -5 13 -17 8 -10 -4 -48 -10 -84 -12 -64 -5 -68 -4 -85 22 -16 25 -17 40 -5 228 15 259 19 305 31 327 13 24 53 38 129 43 106 9 99 27 -10 27 -61 0 -99 4 -107 12 -17 17 -15 152 3 187 19 37 31 41 128 42 l82 1 -55 13 c-65 17 -176 18 -207 3z"
       id="path134"
       style="fill:#20b2aa" />
    <path
       d="M5051 5276 c-43 -46 -116 -299 -185 -646 -51 -257 -52 -276 -26 -290 32 -17 54 8 70 78 25 111 41 160 57 174 12 9 45 12 127 10 117 -4 143 -11 155 -44 31 -84 1 197 -49 452 -40 207 -49 241 -73 268 -26 28 -48 28 -76 -2z m87 -223 c10 -27 22 -74 43 -173 6 -25 14 -61 19 -80 5 -19 12 -59 16 -87 10 -77 1 -83 -112 -83 -87 0 -95 2 -109 24 -15 22 -13 35 26 192 22 93 47 184 54 202 18 41 48 43 63 5z"
       id="path136"
       style="fill:#20b2aa" />
    <path
       d="M5071 4826 c-36 -146 -36 -146 41 -146 54 0 61 7 49 46 -5 16 -14 56 -21 89 -7 33 -18 78 -24 100 l-12 39 -33 -128z"
       id="path138"
       style="fill:#6495ed" />
    <path
       d="M5423 5302 c-12 -2 -27 -10 -34 -18 -18 -21 4 -34 58 -34 23 0 45 -6 50 -12 4 -7 6 -200 5 -428 -4 -443 -1 -474 40 -468 16 2 24 12 29 37 7 32 31 420 45 715 7 150 16 166 87 166 48 0 77 14 62 29 -9 9 -294 20 -342 13z"
       id="path140"
       style="fill:#20b2aa" />
    <path
       d="M2942 5277 c-35 -44 -148 -355 -134 -369 6 -6 19 3 38 27 31 39 71 65 102 65 21 0 62 -39 62 -61 0 -8 7 -22 14 -32 22 -28 37 0 26 48 -5 22 -18 88 -30 147 -29 148 -54 205 -78 175z"
       id="path142"
       style="fill:#20b2aa" />
    <path
       d="M3046 4144 c-9 -28 -10 -314 -1 -357 9 -48 29 -43 33 8 5 54 34 91 84 107 107 33 118 177 19 228 -23 11 -61 23 -85 26 -37 6 -45 4 -50 -12z m139 -87 c12 -19 13 -30 4 -58 -16 -47 -28 -59 -55 -59 -47 0 -64 61 -32 123 13 26 64 22 83 -6z"
       id="path144"
       style="fill:#20b2aa" />
    <path
       d="M3626 4091 c-4 -5 -7 -74 -9 -154 -2 -170 3 -183 68 -173 58 9 105 26 105 38 0 6 -18 7 -49 3 -38 -5 -52 -3 -65 10 -19 19 -19 15 -6 129 8 63 7 99 0 123 -11 32 -32 43 -44 24z"
       id="path146"
       style="fill:#20b2aa" />
    <path
       d="M4408 4068 c-18 -14 -118 -276 -118 -308 0 -35 19 -31 39 7 25 51 83 83 148 83 50 0 65 -9 98 -55 l14 -20 0 20 c0 27 -53 215 -69 246 -7 13 -18 27 -24 31 -18 12 -71 9 -88 -4z m95 -83 c23 -49 21 -74 -5 -84 -53 -19 -65 -20 -84 -7 -19 14 -18 15 8 70 33 67 56 73 81 21z"
       id="path148"
       style="fill:#20b2aa" />
    <path
       d="M5376 4052 c-3 -4 -8 -33 -12 -63 -8 -61 -19 -89 -37 -89 -7 0 -55 34 -107 75 -77 62 -100 75 -125 73 l-30 -3 3 -133 c3 -134 13 -189 32 -177 5 3 10 41 10 83 0 79 14 125 41 130 20 4 136 -88 171 -134 15 -20 33 -53 39 -72 10 -31 13 -33 19 -17 13 35 23 322 12 329 -6 3 -13 3 -16 -2z"
       id="path150"
       style="fill:#20b2aa" />
    <path
       d="M4155 3568 c-43 -51 -55 -93 -75 -263 -5 -44 -14 -118 -20 -165 -44 -346 -49 -521 -19 -615 51 -155 171 -207 275 -119 l29 25 -31 -6 c-47 -9 -79 22 -93 91 -13 69 -14 230 -2 322 5 37 14 119 21 182 6 63 16 160 22 215 13 118 16 269 5 307 -18 64 -70 76 -112 26z"
       id="path152"
       style="fill:#20b2aa" />
    <path
       d="M5079 3463 c-81 -55 -136 -174 -178 -388 -26 -127 -51 -339 -51 -430 0 -81 -19 -160 -49 -209 l-22 -35 23 -3 c23 -3 23 -6 30 -183 5 -99 12 -216 18 -260 13 -102 57 -197 100 -215 39 -16 96 -5 126 25 23 23 84 139 98 186 48 164 60 269 53 441 -5 97 -3 146 5 164 11 24 10 28 -15 46 -15 11 -27 26 -27 33 0 30 -44 113 -80 150 -54 57 -56 73 -20 152 123 265 168 451 123 512 -26 33 -94 41 -134 14z m113 -40 c35 -31 19 -153 -33 -255 -5 -10 -9 -22 -9 -28 0 -5 -11 -33 -24 -62 -13 -29 -33 -74 -44 -100 -28 -65 -68 -82 -84 -37 -6 16 12 184 31 291 18 102 81 208 124 208 11 0 29 -7 39 -17z m-187 -758 c21 -10 59 -20 83 -23 69 -8 76 -27 80 -212 3 -139 1 -167 -21 -256 -34 -136 -87 -251 -123 -264 -58 -22 -84 13 -110 152 -12 64 -15 123 -11 263 7 253 26 376 56 362 3 -2 24 -12 46 -22z"
       id="path154"
       style="fill:#20b2aa" />
    <path
       d="M5117 3323 c-14 -27 -30 -79 -36 -118 -7 -38 -14 -81 -17 -95 -5 -24 -5 -24 9 -5 21 30 74 174 82 223 9 57 -8 55 -38 -5z"
       id="path156"
       style="fill:#6495ed" />
    <path
       d="M4966 2609 c-10 -35 -26 -245 -26 -339 0 -157 31 -320 60 -320 19 0 65 87 91 175 37 123 52 352 29 437 -10 33 -14 36 -53 41 -23 3 -54 8 -69 12 -20 5 -29 3 -32 -6z"
       id="path158"
       style="fill:#6495ed" />
    <path
       d="M4577 3137 c-20 -31 -57 -156 -57 -194 0 -16 -4 -54 -9 -84 -5 -30 -15 -85 -22 -124 -10 -60 -24 -108 -53 -176 -6 -13 -2 -16 17 -12 21 4 26 -2 46 -55 25 -70 70 -118 123 -133 50 -13 62 -5 45 29 -8 15 -20 59 -27 99 -13 72 -12 93 20 383 17 154 24 235 21 250 -7 43 -79 54 -104 17z"
       id="path160"
       style="fill:#20b2aa" />
    <path
       d="M5443 3140 c-40 -24 -73 -76 -102 -160 -18 -50 -25 -98 -30 -207 -5 -116 -9 -145 -24 -161 -18 -19 -17 -20 12 -41 16 -12 33 -31 37 -44 23 -72 99 -138 175 -152 49 -9 114 10 152 46 l32 29 -48 -20 c-64 -27 -89 -25 -127 7 -52 43 -73 103 -74 209 -1 106 10 127 78 145 22 6 53 20 68 30 32 23 68 79 68 105 0 14 -4 11 -16 -11 -22 -43 -44 -64 -86 -86 -47 -24 -70 -24 -99 0 -33 26 -31 94 6 184 35 85 71 115 121 99 43 -13 44 2 2 28 -42 25 -104 26 -145 0z"
       id="path162"
       style="fill:#20b2aa" />
    <path
       d="M5536 3038 c-18 -29 -46 -113 -46 -139 0 -30 25 -34 60 -9 57 40 79 120 42 153 -25 23 -39 21 -56 -5z"
       id="path164"
       style="fill:#6495ed" />
    <path
       d="M2757 3443 c-14 -4 -17 -10 -12 -26 4 -12 11 -69 15 -127 8 -118 16 -153 33 -147 7 2 15 22 20 45 6 30 18 50 43 70 19 15 34 30 34 34 0 4 -13 15 -30 25 -40 23 -40 57 0 78 16 8 35 15 43 15 8 0 20 6 26 14 9 11 8 15 -5 20 -18 7 -139 6 -167 -1z"
       id="path166"
       style="fill:#20b2aa" />
    <path
       d="M3146 3400 c32 -21 48 -49 59 -108 11 -53 28 -23 19 34 -8 57 -40 94 -81 94 l-28 0 31 -20z"
       id="path168"
       style="fill:#40e0d0" />
    <path
       d="M3297 3413 c-9 -8 -9 -278 0 -286 3 -4 14 11 24 33 24 53 56 54 100 5 40 -43 55 -45 33 -4 -9 18 -14 46 -12 65 2 19 4 34 3 34 0 0 -18 -9 -40 -20 -57 -29 -72 -26 -84 18 -17 58 -13 100 9 122 12 12 18 25 15 30 -7 11 -38 13 -48 3z"
       id="path170"
       style="fill:#00fa9a" />
    <path
       d="M3080 3400 c-13 -8 -12 -10 3 -10 9 0 17 5 17 10 0 12 -1 12 -20 0z"
       id="path172"
       style="fill:#00fa9a" />
    <path
       d="M3428 3388 c16 -18 22 -36 22 -68 0 -44 0 -44 17 -21 15 22 15 28 2 65 -11 31 -20 42 -39 44 l-25 4 23 -24z"
       id="path174"
       style="fill:#00fa9a" />
    <path
       d="M3035 3363 c-33 -42 -47 -94 -42 -150 8 -75 26 -107 62 -111 l30 -4 -21 24 c-48 55 -59 148 -24 220 24 49 22 57 -5 21z"
       id="path176"
       style="fill:#00fa9a" />
    <path
       d="M2931 3361 c-7 -5 -10 -14 -7 -20 11 -17 24 -13 36 9 12 22 -3 27 -29 11z"
       id="path178"
       style="fill:#00fa9a" />
    <path
       d="M3370 3320 c0 -21 4 -30 13 -27 6 2 12 14 12 27 0 13 -6 25 -12 28 -9 2 -13 -7 -13 -28z"
       id="path180"
       style="fill:#6495ed" />
    <path
       d="M3084 3305 c-17 -41 -18 -62 -3 -104 15 -42 38 -37 62 11 15 31 16 43 6 82 -14 58 -43 63 -65 11z"
       id="path182"
       style="fill:#20b2aa" />
    <path
       d="M4643 3404 c-7 -20 8 -48 29 -52 19 -4 29 19 21 47 -6 25 -41 28 -50 5z"
       id="path184"
       style="fill:#20b2aa" />
    <path
       d="M2735 2899 c-7 -10 12 -41 77 -127 32 -42 33 -48 36 -148 2 -57 7 -104 11 -104 5 0 11 48 15 106 6 95 14 133 42 199 8 19 7 19 -19 2 -39 -26 -51 -22 -97 33 -43 51 -54 58 -65 39z"
       id="path186"
       style="fill:#20b2aa" />
    <path
       d="M3640 2885 c0 -3 9 -15 20 -27 12 -14 21 -37 22 -62 1 -39 1 -40 5 -7 6 47 -4 78 -27 91 -11 6 -20 8 -20 5z"
       id="path188"
       style="fill:#00fa9a" />
    <path
       d="M3048 2831 c-33 -39 -58 -107 -58 -160 0 -64 40 -131 78 -131 12 0 11 4 -6 23 -59 63 -54 188 11 243 33 28 54 30 86 8 22 -16 23 -15 19 2 -3 18 -58 52 -85 54 -6 0 -26 -18 -45 -39z"
       id="path190"
       style="fill:#20b2aa" />
    <path
       d="M3521 2859 c-14 -5 -37 -7 -53 -4 -28 6 -28 6 -28 -39 0 -50 6 -56 26 -28 10 13 17 15 31 6 15 -9 18 -27 21 -110 1 -54 7 -103 12 -108 7 -7 10 4 10 29 1 72 41 94 70 39 18 -33 27 -30 26 9 0 17 4 40 9 51 7 16 6 17 -14 7 -12 -7 -36 -11 -54 -9 -32 3 -32 3 -35 67 -2 36 2 69 7 74 25 25 12 32 -28 16z"
       id="path192"
       style="fill:#20b2aa" />
    <path
       d="M3280 2798 c1 -85 18 -196 35 -226 9 -15 13 -18 9 -7 -5 11 -10 80 -12 153 -3 106 -6 132 -18 132 -10 0 -14 -14 -14 -52z"
       id="path194"
       style="fill:#20b2aa" />
    <path
       d="M3600 2795 c0 -22 4 -34 10 -30 6 3 10 17 10 30 0 13 -4 27 -10 30 -6 4 -10 -8 -10 -30z"
       id="path196"
       style="fill:#00fa9a" />
    <path
       d="M3097 2749 c-19 -26 -24 -124 -7 -134 14 -9 50 55 50 91 0 16 -6 38 -13 49 -13 17 -15 17 -30 -6z"
       id="path198"
       style="fill:#6495ed" />
    <path
       d="M3641 2594 c0 -11 3 -14 6 -6 3 7 2 16 -1 19 -3 4 -6 -2 -5 -13z"
       id="path200" />
    <path
       d="M3344 2109 c-16 -17 -16 -22 -4 -29 24 -16 30 -12 30 20 0 36 -1 36 -26 9z"
       id="path202" />
    <path
       d="M3063 2093 c9 -2 25 -2 35 0 9 3 1 5 -18 5 -19 0 -27 -2 -17 -5z"
       id="path204" />
    <path
       d="M5899 7096 c-4 -4 -1 -52 16 -214 8 -70 10 -75 49 -107 23 -18 68 -47 101 -63 91 -46 269 -87 187 -44 -60 33 -117 99 -185 218 -38 66 -76 128 -86 139 -30 35 -77 75 -82 71z"
       id="path206"
       style="fill:#2f4f4f" />
    <path
       d="M8435 7088 c-66 -24 -144 -96 -145 -134 0 -27 18 -32 128 -41 l82 -6 0 97 c0 106 -1 107 -65 84z"
       id="path208"
       style="fill:#483d8b" />
    <path
       d="M2293 7007 c-28 -29 -58 -69 -68 -88 -45 -86 -111 -188 -149 -227 -46 -48 -81 -68 -135 -78 -47 -9 -51 -12 -44 -29 14 -39 216 8 329 76 90 54 98 69 113 200 7 63 14 130 17 150 3 21 1 40 -4 43 -5 3 -32 -18 -59 -47z"
       id="path210"
       style="fill:#9370db" />
    <path
       d="M7578 6973 c115 -130 570 -588 577 -581 12 11 -62 214 -125 343 -6 11 -25 58 -44 104 l-33 84 -79 32 c-44 17 -102 44 -131 58 -45 23 -65 27 -139 27 l-86 0 60 -67z"
       id="path212"
       style="fill:#b8860b" />
    <path
       d="M590 6943 c-71 -28 -91 -33 -195 -58 -38 -10 -75 -19 -81 -20 -12 -3 -44 -60 -44 -76 0 -5 -28 -70 -61 -146 -60 -134 -87 -203 -115 -291 -12 -39 -12 -42 4 -33 39 21 622 624 622 643 0 15 -65 6 -130 -19z"
       id="path214"
       style="fill:#b8860b" />
    <path
       d="M8070 6882 c0 -6 13 -39 29 -74 89 -193 132 -321 156 -458 25 -142 17 -147 -229 -155 -93 -3 -172 -7 -174 -10 -3 -2 2 -19 11 -37 8 -18 25 -55 37 -83 59 -133 295 -592 316 -615 12 -12 14 -6 14 41 0 31 4 94 10 140 5 46 15 127 21 179 5 52 15 127 20 165 19 140 69 491 78 545 9 54 8 56 -28 110 -44 65 -73 117 -100 182 -14 33 -27 49 -43 52 -13 3 -34 7 -48 10 -14 2 -35 8 -47 11 -14 5 -23 3 -23 -3z"
       id="path216"
       style="fill:#8b4513" />
    <path
       d="M160 6813 c0 -35 1 -36 15 -17 19 25 19 54 0 54 -11 0 -15 -11 -15 -37z"
       id="path218" />
    <path
       d="M8290 6832 c0 -19 50 -123 73 -150 15 -19 24 8 33 93 7 65 7 65 -18 65 -14 0 -40 3 -57 6 -27 6 -31 4 -31 -14z"
       id="path220"
       style="fill:#b8860b" />
    <path
       d="M7470 6771 c0 -73 18 -174 45 -257 24 -70 87 -214 95 -214 3 0 19 28 35 63 39 81 59 85 108 21 41 -53 42 -53 51 67 l5 66 -160 159 c-88 88 -164 161 -169 162 -6 2 -10 -26 -10 -67z"
       id="path222"
       style="fill:#808080" />
    <path
       d="M86 6764 c2 -39 9 -84 14 -100 16 -53 11 54 -5 116 l-15 55 6 -71z"
       id="path224" />
    <path
       d="M8466 6798 c-7 -40 -52 -345 -66 -443 -40 -295 -58 -437 -79 -630 -24 -209 -31 -289 -41 -445 -17 -258 -36 -452 -90 -890 -45 -360 -56 -467 -74 -730 -29 -407 -46 -574 -96 -915 -12 -79 -65 -374 -81 -450 -6 -27 -15 -68 -20 -90 -48 -224 -100 -422 -160 -609 -21 -64 -26 -103 -10 -76 31 53 213 615 234 720 2 14 11 59 20 100 43 219 96 622 177 1370 15 130 35 338 60 623 6 59 14 155 20 215 5 59 14 159 20 222 81 931 124 1390 161 1695 39 332 43 365 37 365 -3 0 -8 -15 -12 -32z"
       id="path226"
       style="fill:#8fbc8f" />
    <path
       d="M1 6672 c-1 -90 2 -117 14 -129 26 -25 29 -8 16 84 -22 159 -29 169 -30 45z"
       id="path228" />
    <path
       d="M603 6607 l-163 -162 7 -87 c3 -49 10 -88 14 -88 4 0 22 20 40 45 45 62 65 58 103 -22 17 -35 33 -63 36 -63 18 0 105 236 124 340 17 86 21 200 9 200 -5 -1 -81 -74 -170 -163z"
       id="path230"
       style="fill:#d3d3d3" />
    <path
       d="M6429 6668 c-6 -13 -20 -33 -31 -45 -19 -20 -20 -26 -8 -88 27 -143 16 -368 -30 -620 -53 -286 -52 -454 4 -830 36 -245 39 -320 21 -485 -10 -85 -21 -182 -26 -215 -4 -33 -12 -96 -18 -140 -9 -74 -17 -128 -41 -305 -5 -36 -14 -99 -20 -140 -57 -412 -19 -707 143 -1100 58 -143 87 -244 117 -419 11 -62 45 -131 65 -131 6 0 16 18 23 40 6 22 26 62 43 90 31 50 31 51 19 118 -35 197 -114 404 -227 597 -157 269 -196 413 -174 647 20 223 88 580 151 798 67 230 71 351 25 725 -19 153 -19 345 -1 466 17 113 20 128 70 339 38 161 45 206 55 326 11 137 7 160 -33 204 -41 44 -58 73 -81 133 -22 58 -30 64 -46 35z"
       id="path232"
       style="fill:#0000ff" />
    <path
       d="M1780 6573 c-17 -52 -55 -118 -88 -149 -15 -14 -103 -64 -197 -111 -182 -91 -192 -97 -267 -187 l-50 -59 36 -12 c46 -16 61 -29 106 -90 102 -141 168 -295 200 -467 7 -38 17 -68 22 -68 23 0 456 242 531 296 l47 34 0 173 c0 162 15 346 40 482 6 33 13 74 17 92 l5 31 -83 -24 c-99 -28 -170 -31 -205 -7 -14 9 -39 36 -55 60 -16 23 -34 43 -39 43 -5 0 -14 -17 -20 -37z"
       id="path234"
       style="fill:#778899" />
    <path
       d="M2268 6582 c-31 -19 -40 -41 -62 -157 -32 -165 -40 -275 -40 -570 -1 -223 4 -350 18 -495 35 -359 20 -692 -44 -980 -32 -142 -71 -309 -79 -335 -77 -253 -96 -536 -53 -780 53 -300 53 -457 3 -895 -4 -41 -7 -76 -6 -78 1 -1 15 9 31 23 19 17 41 25 65 25 20 0 42 6 48 14 7 8 13 87 17 207 6 190 2 260 -30 534 -8 66 -20 198 -27 293 -13 183 -5 363 27 627 22 188 34 258 118 670 13 66 29 167 36 225 15 132 9 468 -13 650 -31 262 -37 357 -37 545 0 214 21 361 66 480 8 19 -4 19 -38 -3z"
       id="path236"
       style="fill:#0000ff" />
    <path
       d="M7855 6460 c-11 -18 6 -168 20 -180 8 -7 53 -10 115 -8 l103 3 -74 62 c-41 34 -93 78 -116 98 -26 22 -44 31 -48 25z"
       id="path238"
       style="fill:#800080" />
    <path
       d="M1 6410 l1 -45 11 33 c7 24 7 36 -1 44 -9 9 -12 1 -11 -32z"
       id="path240" />
    <path
       d="M6637 6373 c-3 -32 -3 -61 1 -64 8 -7 292 -22 292 -15 0 7 -262 136 -275 136 -7 0 -15 -23 -18 -57z"
       id="path242"
       style="fill:#2f4f4f" />
    <path
       d="M300 6323 c-41 -35 -90 -76 -108 -91 -18 -14 -28 -30 -24 -34 5 -5 54 -5 110 -2 l102 7 6 35 c11 56 10 145 -1 148 -5 1 -44 -27 -85 -63z"
       id="path244"
       style="fill:#d3d3d3" />
    <path
       d="M7666 6276 c-17 -37 -64 -81 -96 -91 -25 -8 -25 -7 0 -138 10 -59 17 -114 14 -122 -7 -16 -59 -21 -68 -6 -3 5 -36 23 -73 41 l-67 33 -34 -39 c-43 -51 -113 -157 -139 -214 -25 -54 -63 -179 -63 -207 0 -62 358 -792 381 -777 10 6 50 90 70 149 26 75 17 258 -21 435 -28 131 -34 176 -34 290 -1 132 0 136 31 201 41 83 99 149 177 201 33 23 62 42 64 43 5 4 -80 200 -95 217 -22 25 -28 23 -47 -16z"
       id="path246"
       style="fill:#9370db" />
    <path
       d="M6621 6179 c-7 -46 -17 -100 -22 -119 -4 -19 -16 -64 -25 -100 -33 -134 -50 -217 -64 -320 -16 -112 -23 -104 78 -96 108 8 460 53 472 61 5 3 16 31 25 62 36 123 159 326 225 369 43 28 53 28 148 -1 19 -6 22 -4 22 18 0 53 -21 126 -38 131 -9 3 -51 8 -92 12 -41 3 -120 17 -175 29 -80 19 -143 25 -321 30 l-220 7 -13 -83z"
       id="path248"
       style="fill:#483d8b" />
    <path
       d="M8482 6170 c-14 -103 -47 -454 -72 -755 -5 -66 -13 -132 -16 -147 -8 -37 9 -29 64 32 l42 47 -2 459 c-3 422 -4 451 -16 364z"
       id="path250"
       style="fill:#b8860b" />
    <path
       d="M526 6209 c-10 -17 -39 -44 -64 -60 -40 -25 -55 -29 -120 -29 l-75 0 6 -72 c3 -40 11 -109 17 -153 16 -120 30 -249 37 -353 3 -51 10 -91 15 -90 19 7 328 615 328 646 0 12 -9 23 -20 27 -20 6 -80 84 -80 104 0 22 -26 10 -44 -20z"
       id="path252"
       style="fill:#808080" />
    <path
       d="M0 5777 l0 -365 33 -34 c17 -18 54 -57 81 -86 26 -29 50 -51 53 -48 2 2 0 39 -6 83 -5 43 -15 139 -21 213 -11 138 -24 269 -40 421 -6 47 -10 102 -10 122 0 41 -2 43 -53 52 l-37 7 0 -365z"
       id="path254"
       style="fill:#8b4513" />
    <path
       d="M910 6123 c-82 -8 -120 -15 -120 -22 0 -4 16 -15 36 -24 20 -10 60 -40 90 -69 36 -34 55 -46 58 -37 9 26 26 120 26 139 0 21 -6 22 -90 13z"
       id="path256"
       style="fill:#9370db" />
    <path
       d="M160 6106 c0 -7 7 -80 15 -162 29 -298 57 -601 85 -934 6 -69 15 -170 20 -225 5 -55 14 -156 20 -225 29 -333 46 -512 80 -840 42 -403 57 -533 91 -795 27 -203 35 -233 60 -208 8 8 3 65 -15 204 -29 220 -50 437 -66 684 -15 243 -39 480 -80 793 -43 331 -63 525 -90 887 -11 149 -25 311 -30 360 -13 109 -27 233 -39 340 -12 105 -20 135 -37 135 -8 0 -14 -6 -14 -14z"
       id="path258"
       style="fill:#8fbc8f" />
    <path
       d="M747 6063 c-23 -38 -227 -450 -227 -458 1 -5 25 -27 55 -47 100 -70 164 -172 185 -294 11 -70 2 -180 -30 -349 -38 -200 -44 -274 -31 -350 18 -107 61 -212 82 -199 16 10 126 161 194 268 l66 104 -34 69 c-80 159 -87 277 -33 560 19 98 37 210 41 249 14 141 -34 275 -129 361 -57 52 -132 98 -139 86z"
       id="path260"
       style="fill:#9370db" />
    <path
       d="M7754 5987 c-106 -78 -154 -150 -175 -265 -16 -85 -5 -191 51 -467 42 -212 31 -325 -50 -485 -16 -33 -30 -65 -30 -71 0 -11 125 -208 139 -219 3 -3 31 -38 60 -77 30 -40 60 -73 66 -73 16 0 63 127 75 204 12 73 4 155 -30 342 -68 364 -35 509 146 646 57 43 63 55 40 91 -8 12 -60 110 -115 217 -55 107 -104 196 -109 198 -5 1 -35 -17 -68 -41z"
       id="path262"
       style="fill:#808080" />
    <path
       d="M1110 5954 c-36 -19 -73 -37 -83 -41 -20 -6 -19 -9 9 -83 30 -79 30 -206 -1 -370 -15 -80 -31 -165 -36 -190 -18 -82 -22 -239 -9 -299 17 -73 70 -185 82 -173 19 19 175 326 238 467 12 28 28 64 35 80 8 17 28 61 44 99 37 82 37 93 10 182 -31 101 -88 214 -139 278 -42 52 -73 86 -79 86 -3 0 -35 -16 -71 -36z"
       id="path264"
       style="fill:#9370db" />
    <path
       d="M2065 5631 c-16 -10 -93 -51 -170 -91 -265 -140 -312 -165 -332 -180 -20 -15 -20 -16 -2 -190 21 -217 27 -261 46 -328 23 -83 12 -128 -60 -235 -34 -51 -73 -107 -86 -124 -14 -18 -22 -35 -19 -38 3 -3 25 4 49 15 24 11 56 20 71 20 31 0 36 6 140 180 103 172 173 302 282 525 140 286 142 294 138 413 -2 57 -9 61 -57 33z"
       id="path266"
       style="fill:#483d8b" />
    <path
       d="M478 5542 c-8 -9 -40 -63 -71 -119 l-57 -101 0 -89 c0 -137 21 -351 86 -868 19 -154 38 -288 42 -298 6 -16 24 -2 114 90 59 59 116 120 128 135 l20 26 -31 66 c-65 139 -73 250 -34 471 58 319 58 408 6 518 -31 65 -94 132 -158 169 -29 17 -31 17 -45 0z"
       id="path268"
       style="fill:#d3d3d3" />
    <path
       d="M7019 5545 c-3 -2 -36 -10 -75 -16 -38 -6 -94 -15 -124 -20 -54 -9 -159 -23 -270 -37 l-55 -7 -4 -40 c-5 -61 21 -335 33 -344 20 -16 342 28 442 60 30 9 32 13 38 77 4 37 14 117 22 177 21 148 20 147 8 152 -5 2 -12 1 -15 -2z"
       id="path270"
       style="fill:#778899" />
    <path
       d="M8034 5492 c-56 -41 -97 -91 -130 -158 -47 -96 -45 -221 7 -494 40 -210 33 -336 -26 -475 l-38 -87 54 -56 c142 -147 189 -184 189 -148 0 8 18 158 40 333 65 520 80 675 80 814 l0 101 -56 99 c-31 54 -62 99 -69 99 -6 0 -30 -13 -51 -28z"
       id="path272"
       style="fill:#d3d3d3" />
    <path
       d="M1410 5322 c-59 -137 -177 -366 -255 -498 -78 -131 -223 -352 -255 -389 -32 -37 -31 -43 15 -69 70 -41 72 -50 49 -219 -4 -29 -2 -53 4 -59 16 -16 313 287 414 422 47 63 100 139 118 169 35 61 35 68 7 221 -8 47 -20 139 -27 205 -14 147 -30 289 -34 292 -1 2 -18 -32 -36 -75z"
       id="path274"
       style="fill:#556b2f" />
    <path
       d="M2081 5280 c-62 -133 -147 -380 -138 -404 9 -23 49 -19 137 12 l75 27 -2 180 c0 99 -5 207 -10 239 l-8 60 -54 -114z"
       id="path276"
       style="fill:#2f4f4f" />
    <path
       d="M7110 5382 c0 -5 -4 -44 -10 -88 -5 -43 -14 -131 -20 -194 -6 -63 -19 -153 -27 -200 -28 -151 -28 -154 4 -213 50 -92 203 -286 325 -412 101 -104 119 -119 135 -109 21 13 22 63 4 134 -17 63 -7 105 33 135 18 14 38 25 45 25 30 0 17 36 -46 132 -151 226 -322 537 -403 731 -22 54 -40 80 -40 59z"
       id="path278"
       style="fill:#808080" />
    <path
       d="M0 4697 c0 -583 1 -613 18 -622 10 -6 70 -45 134 -87 63 -43 121 -78 128 -78 10 0 11 16 6 68 -3 37 -11 110 -16 162 -5 52 -14 145 -20 205 -19 193 -44 464 -60 650 -6 74 -16 138 -24 150 -22 33 -148 165 -157 165 -5 0 -9 -269 -9 -613z"
       id="path280"
       style="fill:#b8860b" />
    <path
       d="M8448 5208 c-64 -69 -66 -75 -78 -218 -6 -74 -15 -178 -20 -230 -5 -52 -14 -144 -19 -205 -6 -60 -15 -159 -21 -220 -6 -60 -15 -150 -20 -200 -4 -49 -12 -120 -16 -157 -5 -51 -4 -68 6 -68 6 0 59 30 116 68 l104 67 0 603 c0 331 -3 602 -6 602 -4 0 -24 -19 -46 -42z"
       id="path282"
       style="fill:#8b4513" />
    <path
       d="M6875 4903 c-49 -37 -151 -128 -225 -203 l-135 -135 -47 -195 c-99 -406 -132 -580 -109 -580 11 0 150 85 224 138 80 56 244 190 310 251 l58 56 -10 45 c-18 77 -14 153 9 178 26 28 58 28 121 1 27 -12 52 -19 55 -17 3 3 -6 18 -19 34 -14 16 -54 72 -90 125 -76 112 -85 148 -63 241 24 102 28 128 19 128 -4 0 -48 -31 -98 -67z"
       id="path284"
       style="fill:#2f4f4f" />
    <path
       d="M2040 4813 c-206 -110 -249 -144 -354 -283 -54 -73 -56 -77 -56 -139 0 -157 -66 -463 -177 -821 -25 -80 -53 -172 -63 -205 -10 -33 -34 -114 -54 -180 -20 -66 -48 -157 -61 -201 -29 -95 -31 -119 -11 -107 30 17 156 131 252 229 150 151 293 334 401 513 24 39 33 65 33 97 0 24 5 63 10 86 6 24 26 108 45 188 104 438 115 493 140 705 19 157 19 165 -2 164 -10 0 -56 -21 -103 -46z"
       id="path286"
       style="fill:#778899" />
    <path
       d="M7603 4415 c-52 -31 -58 -50 -39 -116 20 -67 20 -112 0 -151 l-16 -31 67 -66 c63 -63 67 -65 80 -47 19 25 19 48 0 110 -24 78 -20 95 29 141 l44 41 -54 69 c-29 39 -57 71 -61 72 -4 2 -27 -8 -50 -22z"
       id="path288"
       style="fill:#d3d3d3" />
    <path
       d="M1470 4373 c-143 -81 -204 -121 -273 -179 -42 -36 -77 -69 -77 -74 0 -5 25 -21 55 -35 65 -32 110 -80 126 -135 11 -36 9 -53 -16 -148 -38 -144 -41 -189 -16 -229 12 -18 24 -33 28 -33 5 0 28 25 52 56 36 46 51 80 83 183 67 222 112 421 123 549 7 71 7 72 -16 71 -13 0 -44 -12 -69 -26z"
       id="path290"
       style="fill:#9370db" />
    <path
       d="M7004 4338 c15 -149 54 -324 121 -542 25 -81 45 -150 45 -152 0 -2 6 -4 13 -4 19 0 37 44 37 88 0 21 -11 71 -24 112 -34 108 -39 151 -25 199 14 48 68 101 134 133 25 12 45 25 45 29 0 10 -111 88 -180 126 -30 17 -72 41 -93 52 -21 12 -47 21 -58 21 -20 0 -21 -4 -15 -62z"
       id="path292"
       style="fill:#808080" />
    <path
       d="M828 4337 c-8 -7 -36 -38 -63 -70 -46 -55 -48 -60 -30 -70 11 -6 33 -24 49 -39 30 -31 30 -29 10 -176 -11 -75 8 -75 83 0 50 50 64 70 56 80 -20 25 -23 66 -8 122 27 104 22 122 -47 150 -28 12 -38 13 -50 3z"
       id="path294"
       style="fill:#800080" />
    <path
       d="M7768 4234 c-44 -23 -51 -46 -33 -106 19 -65 19 -109 0 -134 -8 -10 -15 -25 -15 -32 0 -8 45 -62 99 -120 54 -59 125 -138 157 -175 40 -48 60 -64 65 -55 4 7 12 79 18 159 6 80 14 159 17 175 5 28 -4 40 -131 165 -75 74 -139 135 -143 136 -4 1 -19 -4 -34 -13z"
       id="path296"
       style="fill:#8fbc8f" />
    <path
       d="M593 4087 c-47 -45 -92 -88 -100 -96 -8 -8 -12 -23 -9 -36 3 -12 11 -89 17 -170 15 -203 14 -201 78 -124 29 35 76 89 105 119 93 100 88 92 71 135 -15 34 -15 43 1 110 16 68 16 75 1 98 -9 14 -30 30 -47 36 -31 10 -34 8 -117 -72z"
       id="path298"
       style="fill:#808080" />
    <path
       d="M7341 4142 c-24 -9 -62 -33 -85 -53 -41 -36 -41 -37 -41 -105 1 -43 9 -94 23 -136 29 -88 29 -168 0 -219 l-21 -38 26 -33 c15 -18 44 -53 65 -77 36 -40 39 -42 55 -27 9 9 22 35 29 58 11 36 9 51 -11 122 -53 189 -51 237 13 300 22 23 67 53 98 66 32 14 57 29 55 33 -4 13 -141 127 -152 126 -5 0 -30 -8 -54 -17z"
       id="path300"
       style="fill:#9370db" />
    <path
       d="M1002 4028 c-31 -29 -63 -59 -71 -66 -12 -12 -12 -15 0 -23 8 -5 19 -9 25 -9 6 0 38 -18 72 -39 67 -44 102 -96 102 -153 0 -18 -14 -86 -32 -150 -28 -104 -30 -122 -20 -157 7 -21 21 -50 31 -63 l20 -23 53 59 c83 93 80 85 50 147 -17 34 -27 69 -26 94 1 38 23 127 45 183 5 13 9 46 9 74 0 39 -6 59 -25 84 -24 31 -132 94 -162 94 -8 0 -40 -24 -71 -52z"
       id="path302"
       style="fill:#808080" />
    <path
       d="M6913 4009 c-67 -93 -56 -121 38 -99 l51 12 -7 52 c-9 59 -21 96 -32 95 -5 0 -27 -27 -50 -60z"
       id="path304"
       style="fill:#556b2f" />
    <path
       d="M0 3591 l0 -418 91 -74 c50 -41 105 -84 123 -97 17 -12 40 -29 50 -38 28 -24 137 -87 142 -82 3 4 -1 44 -26 248 -5 41 -23 203 -40 360 -17 157 -33 299 -35 315 -4 25 -16 36 -68 64 -34 19 -93 55 -132 81 -117 78 -105 120 -105 -359z"
       id="path306"
       style="fill:#8b4513" />
    <path
       d="M7560 3983 c-57 -19 -124 -60 -145 -87 -33 -43 -33 -106 0 -216 32 -108 32 -163 0 -225 -14 -26 -23 -55 -20 -64 8 -27 122 -134 134 -127 19 12 51 83 51 113 0 16 -12 64 -26 108 -14 44 -28 106 -31 137 -5 49 -2 63 20 100 29 49 60 75 135 108 28 13 52 27 52 30 0 13 -128 130 -142 129 -7 0 -20 -3 -28 -6z"
       id="path308"
       style="fill:#d3d3d3" />
    <path
       d="M8469 3952 c-34 -22 -71 -67 -95 -117 -16 -33 -19 -62 -19 -160 0 -66 6 -151 13 -190 44 -242 46 -327 10 -418 -6 -15 -8 -30 -5 -33 3 -3 33 16 66 42 l61 47 0 424 c0 232 -1 423 -2 423 -2 0 -15 -8 -29 -18z"
       id="path310"
       style="fill:#483d8b" />
    <path
       d="M863 3895 c-11 -8 -41 -38 -67 -69 l-47 -55 59 -30 c70 -35 128 -97 137 -145 8 -39 -2 -102 -35 -216 -27 -97 -20 -138 37 -209 4 -6 143 131 143 141 0 4 -13 29 -30 55 -39 62 -39 106 2 256 l32 119 -24 46 c-38 69 -166 136 -207 107z"
       id="path312"
       style="fill:#800080" />
    <path
       d="M8293 3850 c-37 -22 -35 -12 -63 -275 -23 -219 -55 -496 -69 -605 -5 -41 -7 -78 -5 -82 8 -13 105 45 129 77 37 50 67 144 72 230 4 61 -2 116 -22 230 -33 181 -38 338 -12 399 9 21 17 40 17 42 0 9 -17 3 -47 -16z"
       id="path314"
       style="fill:#b8860b" />
    <path
       d="M6875 3764 c-71 -25 -140 -48 -153 -51 -12 -3 -25 -9 -28 -14 -3 -5 -12 -9 -19 -9 -29 0 -309 -134 -336 -161 -31 -31 8 -213 73 -343 52 -105 190 -356 197 -360 4 -3 47 43 97 102 49 59 156 185 239 281 222 257 201 224 183 290 -68 240 -93 311 -107 310 -9 0 -74 -20 -146 -45z"
       id="path316"
       style="fill:#483d8b" />
    <path
       d="M7668 3778 c-53 -28 -67 -41 -87 -82 l-24 -48 28 -107 c45 -171 44 -208 -12 -293 l-18 -28 70 -70 70 -71 28 33 c23 27 27 41 27 93 0 34 -9 86 -21 120 -29 83 -36 173 -16 211 24 46 67 85 125 111 28 14 52 28 52 31 0 4 -25 35 -56 70 -65 73 -77 75 -166 30z"
       id="path318"
       style="fill:#800080" />
    <path
       d="M656 3666 c-31 -35 -56 -68 -56 -73 0 -6 16 -18 35 -28 47 -21 102 -71 121 -106 22 -43 17 -110 -18 -230 -34 -120 -33 -145 15 -212 l20 -29 72 72 73 72 -32 51 c-27 44 -31 59 -30 116 0 36 8 89 18 116 43 123 42 187 -6 234 -27 27 -125 81 -147 81 -5 0 -34 -29 -65 -64z"
       id="path320"
       style="fill:#8fbc8f" />
    <path
       d="M7855 3608 c-72 -37 -115 -90 -115 -141 0 -14 13 -71 30 -128 38 -132 38 -161 -2 -238 l-32 -61 100 -104 c96 -99 122 -122 131 -112 8 8 39 279 53 466 5 69 12 145 15 170 6 43 4 47 -46 108 -59 69 -72 73 -134 40z"
       id="path322"
       style="fill:#8fbc8f" />
    <path
       d="M540 3527 c-17 -18 -20 -30 -15 -62 3 -22 10 -96 15 -165 15 -198 46 -465 55 -479 3 -5 37 24 75 63 l70 73 -35 58 c-44 73 -44 98 -3 248 30 112 31 120 17 159 -15 45 -62 88 -121 113 -36 14 -38 14 -58 -8z"
       id="path324"
       style="fill:#800080" />
    <path
       d="M1295 3438 c-21 -24 -79 -87 -129 -142 -50 -54 -92 -101 -94 -105 -1 -4 10 -14 25 -21 16 -8 43 -27 61 -44 27 -25 32 -37 33 -75 0 -26 3 -39 6 -31 2 8 8 24 13 35 5 11 13 36 19 55 16 57 72 240 92 304 10 33 17 61 15 63 -2 2 -20 -16 -41 -39z"
       id="path326"
       style="fill:#8fbc8f" />
    <path
       d="M7225 3465 c4 -11 11 -33 15 -50 5 -16 17 -59 28 -95 61 -198 115 -385 133 -460 30 -125 64 -164 91 -104 10 21 7 39 -16 109 -38 114 -24 155 65 201 l51 26 -103 106 c-57 59 -142 148 -187 197 -46 50 -80 81 -77 70z"
       id="path328"
       style="fill:#808080" />
    <path
       d="M7155 3362 c-9 -6 -46 -47 -209 -232 -155 -176 -306 -365 -306 -383 0 -8 11 -43 24 -78 13 -35 35 -115 49 -178 14 -62 28 -115 30 -117 6 -6 58 17 206 90 141 70 307 130 410 148 36 6 70 14 74 18 5 4 -11 26 -36 49 -44 42 -54 63 -77 171 -12 58 -21 90 -96 340 -52 174 -55 182 -69 172z"
       id="path330"
       style="fill:#778899" />
    <path
       d="M1927 3202 c-21 -40 -45 -76 -53 -79 -22 -8 -35 16 -28 53 7 38 -10 74 -34 74 -9 0 -48 -28 -87 -62 -38 -33 -96 -84 -128 -111 -31 -28 -126 -104 -209 -169 -122 -94 -158 -128 -176 -164 -13 -25 -22 -48 -19 -50 2 -2 39 -13 83 -25 43 -11 120 -36 169 -56 146 -57 130 -62 204 71 35 64 70 116 77 116 8 0 14 -4 14 -10 0 -26 58 -4 154 58 l106 67 -1 55 c0 59 -14 186 -27 260 l-8 45 -37 -73z"
       id="path332"
       style="fill:#2f4f4f" />
    <path
       d="M982 3108 c-23 -21 -42 -42 -42 -47 0 -4 18 -17 40 -30 47 -26 80 -69 80 -105 0 -14 -9 -49 -20 -78 -25 -65 -26 -123 -4 -132 31 -12 53 -5 78 25 30 35 32 57 11 85 -20 27 -18 85 5 146 11 29 20 65 20 79 0 35 -41 72 -98 89 -24 6 -34 2 -70 -32z"
       id="path334"
       style="fill:#800080" />
    <path
       d="M7600 3043 c-103 -35 -117 -65 -80 -170 23 -67 25 -108 5 -143 -8 -14 -14 -30 -15 -37 0 -17 100 -85 116 -79 20 8 17 66 -6 121 -30 71 -27 127 10 164 17 16 46 36 65 42 19 7 35 16 35 20 0 12 -89 89 -102 88 -7 0 -20 -3 -28 -6z"
       id="path336"
       style="fill:#8fbc8f" />
    <path
       d="M0 2921 c0 -66 4 -121 8 -123 5 -1 28 -52 51 -113 24 -60 49 -120 57 -132 26 -41 36 -27 29 41 -6 57 -5 65 14 83 22 21 99 33 209 33 60 0 69 10 55 67 -7 32 -16 41 -78 72 -39 20 -99 58 -135 84 -114 84 -153 107 -182 107 l-28 0 0 -119z"
       id="path338"
       style="fill:#b8860b" />
    <path
       d="M747 2882 c-99 -99 -137 -144 -137 -161 0 -15 19 -43 54 -78 l54 -54 26 45 c42 72 67 86 152 86 l74 0 0 28 c0 16 9 55 20 87 25 72 25 117 2 138 -17 16 -83 47 -99 47 -5 0 -70 -62 -146 -138z"
       id="path340"
       style="fill:#808080" />
    <path
       d="M8443 2987 c-42 -48 -58 -111 -45 -178 17 -86 25 -160 24 -217 -1 -52 12 -67 28 -31 4 8 17 34 28 59 20 41 22 61 22 223 0 197 -3 205 -57 144z"
       id="path342"
       style="fill:#8b4513" />
    <path
       d="M1170 2951 c0 -11 -4 -23 -10 -26 -5 -3 -10 -16 -10 -28 0 -32 17 -8 25 36 4 20 4 37 1 37 -3 0 -6 -9 -6 -19z"
       id="path344" />
    <path
       d="M8289 2888 c-89 -61 -98 -92 -76 -248 10 -63 17 -136 17 -162 0 -27 3 -48 6 -48 12 0 112 60 123 74 22 26 24 121 6 237 -9 62 -14 130 -11 151 3 21 4 38 2 38 -2 0 -32 -19 -67 -42z"
       id="path346"
       style="fill:#8fbc8f" />
    <path
       d="M7705 2899 c-71 -38 -77 -61 -45 -149 22 -61 26 -121 9 -152 -9 -17 -6 -24 22 -48 29 -24 32 -30 20 -44 -11 -13 -34 -16 -122 -16 -60 0 -109 -2 -109 -5 0 -2 18 -28 40 -57 57 -74 178 -323 225 -462 13 -39 27 -72 32 -73 15 -5 107 408 157 707 l23 135 -90 93 c-50 50 -98 92 -106 92 -9 0 -34 -10 -56 -21z"
       id="path348"
       style="fill:#800080" />
    <path
       d="M1929 2829 c-79 -64 -185 -166 -250 -240 l-49 -57 103 -51 c92 -47 142 -86 167 -131 11 -19 20 -10 55 57 24 47 28 70 41 254 9 120 11 206 6 211 -6 6 -35 -12 -73 -43z"
       id="path350"
       style="fill:#556b2f" />
    <path
       d="M8145 2811 c-3 -5 -12 -54 -20 -108 -15 -99 -26 -166 -46 -270 -19 -106 -22 -133 -13 -133 5 1 30 20 56 43 65 58 77 103 57 223 -8 49 -14 126 -14 172 0 76 -5 96 -20 73z"
       id="path352"
       style="fill:#8b4513" />
    <path
       d="M345 2607 c22 -18 74 -62 117 -99 42 -38 79 -68 82 -68 11 0 6 149 -6 175 -11 25 -13 25 -122 25 l-111 -1 40 -32z"
       id="path354"
       style="fill:#800080" />
    <path
       d="M870 2636 c0 -2 11 -28 24 -57 23 -52 40 -112 74 -251 l16 -66 76 -4 c147 -7 212 -64 330 -290 76 -144 145 -235 202 -264 17 -9 32 -13 35 -11 2 3 -1 61 -7 129 -27 310 -63 478 -137 640 -24 51 -31 59 -77 77 -65 26 -167 56 -231 70 -27 6 -71 15 -97 21 -44 9 -208 14 -208 6z"
       id="path356"
       style="fill:#9370db" />
    <path
       d="M769 2553 c-24 -54 -46 -83 -64 -83 -7 0 -28 20 -46 45 -19 24 -37 45 -40 45 -3 0 -9 -39 -13 -87 l-6 -88 162 -162 c90 -89 166 -163 171 -163 12 0 8 120 -7 195 -22 115 -100 324 -126 340 -6 4 -20 -15 -31 -42z"
       id="path358"
       style="fill:#800080" />
    <path
       d="M0 2367 c0 -134 3 -177 12 -177 7 0 37 12 66 27 43 22 53 31 49 48 -8 32 -105 257 -117 269 -7 7 -10 -46 -10 -167z"
       id="path360"
       style="fill:#8fbc8f" />
    <path
       d="M252 2483 c11 -41 58 -163 89 -231 32 -69 134 -323 149 -370 l14 -44 40 7 c23 3 110 9 194 13 l153 7 -93 100 c-131 141 -541 555 -549 555 -4 0 -3 -17 3 -37z"
       id="path362"
       style="fill:#8fbc8f" />
    <path
       d="M7211 2485 c-52 -18 -101 -41 -108 -51 -31 -42 -92 -226 -114 -339 -29 -159 -61 -495 -45 -495 18 0 96 100 164 213 42 70 93 149 112 175 44 57 122 118 173 134 31 9 37 16 37 39 0 39 -26 158 -58 266 -32 109 -25 107 -161 58z"
       id="path364"
       style="fill:#9370db" />
    <path
       d="M1570 2457 c0 -3 8 -25 18 -49 29 -66 77 -273 84 -362 3 -24 15 -36 71 -70 146 -89 210 -162 438 -501 85 -126 166 -243 179 -260 58 -70 164 -174 171 -169 11 7 11 469 0 584 -8 78 -11 86 -37 105 -63 44 -122 116 -179 219 -65 118 -123 192 -164 208 -14 6 -50 14 -79 18 l-54 6 -23 -46 c-47 -93 -69 -89 -109 18 -42 112 -74 167 -115 200 -52 42 -201 115 -201 99z"
       id="path366"
       style="fill:#556b2f" />
    <path
       d="M160 2434 c1 -5 7 -20 15 -34 13 -24 14 -24 15 -4 0 12 -7 27 -15 34 -8 7 -15 9 -15 4z"
       id="path368" />
    <path
       d="M8285 2379 c-121 -74 -179 -116 -225 -163 -29 -31 -39 -55 -66 -156 -18 -68 -27 -120 -21 -120 6 0 65 53 131 118 67 65 144 137 172 160 49 39 69 74 121 210 9 21 -9 13 -112 -49z"
       id="path370"
       style="fill:#b8860b" />
    <path
       d="M8484 2382 c-6 -10 -37 -78 -69 -152 -31 -74 -65 -153 -75 -175 -81 -184 -128 -288 -152 -334 -15 -30 -26 -56 -25 -58 2 -1 59 4 128 12 68 8 143 15 167 15 l42 0 0 355 c0 195 -1 355 -3 355 -1 0 -7 -8 -13 -18z"
       id="path372"
       style="fill:#483d8b" />
    <path
       d="M6890 2344 c-118 -62 -142 -89 -195 -219 -24 -61 -51 -114 -59 -119 -20 -13 -42 7 -72 66 -28 56 -50 61 -123 28 -62 -29 -107 -81 -176 -206 -58 -104 -128 -190 -198 -239 -27 -20 -28 -23 -37 -155 -17 -252 -11 -520 12 -520 12 0 82 70 150 151 31 37 126 172 211 300 216 324 295 412 433 482 l51 26 12 78 c12 75 22 129 36 183 16 64 24 89 44 138 14 36 17 52 8 51 -6 0 -50 -20 -97 -45z"
       id="path374"
       style="fill:#556b2f" />
    <path
       d="M7487 2308 c47 -225 67 -487 53 -706 -6 -81 -13 -164 -16 -184 -3 -21 -2 -38 2 -38 10 0 109 66 121 82 5 7 29 73 52 146 49 153 49 156 -6 322 -38 117 -171 396 -201 423 -18 17 -18 16 -5 -45z"
       id="path376"
       style="fill:#808080" />
    <path
       d="M2057 2253 c-15 -14 -5 -22 36 -28 77 -12 160 -75 205 -155 92 -163 120 -207 159 -247 25 -25 48 -41 53 -37 8 9 -22 284 -34 314 -15 37 -174 121 -281 149 -45 12 -128 15 -138 4z"
       id="path378"
       style="fill:#2f4f4f" />
    <path
       d="M701 2172 c69 -72 163 -172 283 -302 150 -161 582 -658 801 -920 116 -139 613 -719 694 -810 42 -47 86 -97 97 -113 17 -21 30 -27 59 -27 l37 0 -19 29 c-18 29 -205 257 -259 316 -15 17 -48 53 -73 80 -25 28 -100 108 -165 178 -66 71 -127 136 -135 146 -9 10 -50 56 -92 102 -81 89 -129 147 -274 324 -190 233 -394 453 -775 837 -129 131 -239 238 -244 238 -5 0 24 -35 65 -78z"
       id="path380"
       style="fill:#b8860b" />
    <path
       d="M994 2205 c-4 -8 -4 -30 0 -48 3 -17 2 -57 -3 -87 -5 -30 -6 -60 -2 -67 3 -6 98 -105 211 -220 113 -114 256 -266 319 -338 62 -71 118 -132 123 -134 6 -2 7 26 4 75 -3 44 -8 117 -12 164 l-5 86 -42 22 c-91 49 -140 109 -225 274 -98 191 -140 241 -231 273 -57 20 -130 20 -137 0z"
       id="path382"
       style="fill:#808080" />
    <path
       d="M68 2173 l-68 -37 0 -221 0 -221 138 -12 c75 -7 153 -17 172 -22 85 -20 90 -20 90 -8 0 7 -18 51 -40 96 -47 96 -130 280 -130 287 0 5 -57 134 -68 154 -13 24 -24 22 -94 -16z"
       id="path384"
       style="fill:#8fbc8f" />
    <path
       d="M6400 2180 c-53 -9 -130 -35 -183 -61 -48 -23 -124 -79 -132 -98 -3 -8 -10 -53 -15 -100 -5 -47 -12 -114 -16 -148 -4 -39 -3 -63 3 -63 23 0 95 77 137 146 25 42 46 79 46 83 1 3 22 38 48 76 54 79 123 132 184 141 22 4 37 12 35 18 -4 14 -49 16 -107 6z"
       id="path386"
       style="fill:#2f4f4f" />
    <path
       d="M8234 2099 c-37 -42 -219 -201 -260 -226 -36 -23 -45 -37 -68 -101 -14 -41 -24 -77 -21 -80 15 -15 189 95 246 155 34 36 139 257 127 268 -3 3 -13 -5 -24 -16z"
       id="path388"
       style="fill:#8b4513" />
    <path
       d="M7372 2064 c-62 -31 -109 -83 -181 -201 -107 -175 -141 -222 -200 -279 l-61 -58 -1 -61 c0 -33 -4 -98 -9 -145 -4 -47 -6 -87 -3 -90 2 -2 21 16 41 40 65 79 231 261 370 405 l135 140 -6 121 c-6 119 -12 154 -26 154 -4 0 -30 -12 -59 -26z"
       id="path390"
       style="fill:#d3d3d3" />
    <path
       d="M2560 2012 c0 -7 7 -77 16 -155 11 -95 17 -236 18 -424 0 -156 3 -283 5 -283 3 0 19 5 36 11 56 21 111 -9 160 -84 10 -15 30 -34 45 -42 27 -14 28 -13 38 13 29 76 80 484 68 546 -4 22 -31 56 -90 113 -46 46 -115 118 -152 160 -112 127 -144 159 -144 145z"
       id="path392"
       style="fill:#2f4f4f" />
    <path
       d="M1684 1918 c3 -18 8 -89 11 -158 9 -207 15 -250 34 -250 30 0 131 -65 187 -120 77 -75 123 -136 254 -340 62 -96 124 -188 137 -205 48 -59 166 -174 173 -170 9 6 24 90 40 214 l10 85 -93 95 c-115 119 -119 124 -308 406 -85 127 -168 246 -184 264 -83 96 -103 115 -164 161 -80 60 -104 65 -97 18z"
       id="path394"
       style="fill:#9370db" />
    <path
       d="M5924 1863 c-43 -49 -130 -140 -193 -203 l-114 -114 6 -131 c4 -71 11 -155 16 -185 5 -30 15 -91 21 -135 20 -135 42 -164 88 -112 99 112 109 120 143 121 19 0 44 -3 57 -7 l22 -8 0 258 c1 231 16 478 36 571 3 17 4 32 1 32 -3 0 -40 -39 -83 -87z"
       id="path396"
       style="fill:#778899" />
    <path
       d="M6844 1870 c-31 -12 -134 -99 -184 -155 -70 -77 -96 -114 -252 -350 -143 -217 -246 -347 -328 -415 l-43 -34 7 -81 c9 -117 30 -228 44 -233 6 -2 47 32 91 76 59 60 118 138 236 318 183 278 268 373 378 424 l65 31 6 127 c4 70 9 166 12 215 6 88 5 92 -32 77z"
       id="path398"
       style="fill:#d3d3d3" />
    <path
       d="M683 1799 c-16 -16 -16 -41 -2 -90 17 -55 59 -100 171 -186 57 -43 113 -95 131 -121 18 -26 48 -60 67 -76 19 -17 87 -82 151 -147 l116 -116 99 -7 c54 -4 119 -9 143 -13 37 -5 42 -3 35 10 -10 17 -272 323 -482 564 -114 130 -139 154 -180 168 -62 22 -232 32 -249 14z"
       id="path400"
       style="fill:#483d8b" />
    <path
       d="M578 1793 c-45 -7 -48 -22 -21 -93 14 -36 29 -77 35 -92 8 -21 36 -39 135 -87 69 -34 128 -61 131 -61 4 0 -7 10 -23 23 -156 121 -205 186 -205 274 0 28 -4 42 -12 42 -7 -1 -25 -4 -40 -6z"
       id="path402"
       style="fill:#8fbc8f" />
    <path
       d="M8015 1684 c-33 -18 -81 -41 -108 -50 -43 -14 -67 -37 -67 -63 0 -5 44 6 98 25 53 18 98 34 99 34 5 0 44 82 41 85 -2 2 -30 -12 -63 -31z"
       id="path404"
       style="fill:#8b4513" />
    <path
       d="M7425 1678 c-15 -18 -64 -72 -109 -119 -203 -213 -303 -328 -511 -585 -72 -88 -235 -275 -275 -314 -43 -42 -297 -320 -385 -420 -141 -161 -185 -216 -185 -229 0 -6 15 -11 34 -11 28 0 41 9 87 62 61 69 71 81 139 158 58 67 457 534 555 650 153 182 498 583 632 735 35 38 63 75 63 82 0 26 -19 22 -45 -9z"
       id="path406"
       style="fill:#8fbc8f" />
    <path
       d="M13 1604 c-9 -4 -13 -32 -13 -91 l0 -86 40 6 c56 7 126 51 157 98 23 34 24 42 12 53 -14 14 -173 30 -196 20z"
       id="path408"
       style="fill:#8fbc8f" />
    <path
       d="M8370 1603 c-89 -9 -98 -22 -54 -80 34 -44 93 -81 143 -89 l41 -7 0 86 c0 104 0 104 -130 90z"
       id="path410"
       style="fill:#8fbc8f" />
    <path
       d="M286 1556 c-9 -14 -16 -29 -16 -33 0 -5 -14 -26 -31 -46 -51 -61 -104 -90 -212 -112 l-27 -5 0 -145 0 -145 33 0 c159 1 394 185 497 389 21 41 21 46 5 57 -9 7 -51 21 -93 32 -136 36 -137 36 -156 8z"
       id="path412"
       style="fill:#b0c4de" />
    <path
       d="M8100 1558 c-41 -11 -85 -22 -97 -25 -55 -13 -51 -44 22 -152 69 -103 166 -197 258 -249 49 -28 152 -62 189 -62 l28 0 0 145 0 145 -27 6 c-118 26 -195 79 -239 165 -28 56 -28 56 -134 27z"
       id="path414"
       style="fill:#8fbc8f" />
    <path
       d="M5475 1559 c-73 -18 -118 -31 -265 -79 -298 -99 -501 -136 -695 -127 -112 5 -313 41 -777 141 -100 22 -270 29 -383 17 -187 -21 -205 -24 -205 -32 0 -5 4 -9 10 -9 5 0 22 -21 37 -47 34 -60 39 -63 77 -51 17 5 94 10 171 10 153 0 239 -16 535 -103 158 -46 338 -85 437 -94 67 -7 191 9 263 34 14 5 52 17 85 26 33 10 123 42 200 72 77 30 169 64 205 74 82 25 242 49 318 49 l59 0 -4 53 c-5 61 -10 77 -20 76 -4 -1 -26 -5 -48 -10z"
       id="path416"
       style="fill:#0000ff" />
    <path
       d="M7419 1503 c-20 -21 -78 -87 -130 -148 -123 -144 -122 -143 -228 -265 -50 -58 -91 -109 -91 -114 0 -5 27 -6 61 -2 34 3 72 6 85 6 16 0 37 20 75 68 29 37 95 110 147 162 69 69 97 105 103 130 10 42 24 200 17 200 -2 0 -20 -17 -39 -37z"
       id="path418"
       style="fill:#b8860b" />
    <path
       d="M1710 1343 l0 -126 43 -56 c141 -185 655 -748 669 -733 3 4 17 46 29 94 l23 88 -81 79 c-85 84 -144 157 -208 259 -155 245 -205 313 -284 393 -52 51 -105 94 -133 107 -26 12 -50 22 -53 22 -3 0 -5 -57 -5 -127z"
       id="path420"
       style="fill:#d3d3d3" />
    <path
       d="M3023 1463 c-8 -3 -13 -25 -13 -61 l0 -57 26 40 c15 22 36 50 47 63 l20 22 -34 -1 c-19 0 -40 -3 -46 -6z"
       id="path422"
       style="fill:#2f4f4f" />
    <path
       d="M662 1447 c-47 -57 -66 -386 -28 -497 57 -168 155 -258 327 -301 70 -18 102 -21 204 -16 152 7 259 33 263 65 3 21 -60 148 -97 193 l-18 22 -66 -18 c-81 -22 -140 -16 -216 22 -134 68 -201 224 -155 364 20 61 18 64 -87 123 -96 54 -113 60 -127 43z"
       id="path424"
       style="fill:#483d8b" />
    <path
       d="M7722 1404 c-51 -31 -96 -62 -99 -71 -3 -9 0 -31 7 -51 20 -57 15 -162 -12 -218 -30 -64 -88 -120 -155 -151 -76 -35 -122 -39 -200 -18 l-66 18 -18 -24 c-38 -51 -91 -155 -93 -183 -1 -28 2 -30 69 -49 132 -36 329 -34 440 5 198 68 305 240 305 486 0 133 -41 312 -72 312 -7 -1 -55 -26 -106 -56z"
       id="path426"
       style="fill:#8b4513" />
    <path
       d="M6799 1374 c-103 -52 -200 -163 -348 -402 -115 -184 -160 -243 -267 -347 l-92 -90 23 -90 c12 -50 26 -90 32 -90 11 0 360 369 481 508 48 56 117 140 154 187 l65 85 7 127 c3 70 3 129 -1 131 -5 3 -29 -6 -54 -19z"
       id="path428"
       style="fill:#808080" />
    <path
       d="M3087 1348 c-52 -89 -117 -232 -146 -321 -51 -155 -71 -220 -71 -229 0 -4 23 -8 50 -8 76 0 127 -30 221 -129 80 -84 146 -130 168 -117 6 4 12 21 15 39 3 18 10 64 16 102 12 75 15 61 -55 320 -40 150 -138 385 -160 385 -7 0 -24 -19 -38 -42z"
       id="path430"
       style="fill:#556b2f" />
    <path
       d="M5233 1360 c-87 -23 -130 -37 -253 -85 -257 -100 -463 -153 -542 -140 -36 6 -45 2 -126 -57 -48 -36 -116 -85 -152 -110 -119 -83 -160 -126 -160 -163 0 -53 20 -65 108 -65 155 0 339 30 497 81 168 54 372 174 555 327 98 81 220 205 220 222 0 15 -68 11 -147 -10z"
       id="path432"
       style="fill:#483d8b" />
    <path
       d="M3307 1330 c-20 -4 -40 -10 -43 -13 -4 -3 14 -61 39 -129 25 -68 55 -157 67 -198 12 -41 26 -86 30 -100 5 -14 18 -65 30 -115 13 -49 26 -94 31 -99 19 -22 428 188 619 317 73 49 194 141 202 152 5 6 -7 13 -30 18 -101 23 -275 68 -337 87 -249 77 -473 106 -608 80z"
       id="path434"
       style="fill:#483d8b" />
    <path
       d="M5389 1233 c-59 -126 -118 -311 -163 -508 -11 -50 -6 -122 16 -213 9 -37 14 -42 32 -36 47 14 75 36 157 121 96 99 141 127 212 127 26 0 47 4 47 10 0 6 -16 63 -36 126 -20 63 -39 127 -44 141 -9 31 -112 241 -140 287 -11 17 -24 32 -30 32 -6 0 -29 -39 -51 -87z"
       id="path436"
       style="fill:#556b2f" />
    <path
       d="M7963 1304 c-3 -8 -2 -42 1 -74 14 -123 -33 -340 -96 -445 -10 -16 -18 -37 -18 -45 0 -15 429 -450 443 -450 4 0 24 8 45 19 20 10 56 25 80 32 29 8 44 19 48 33 2 12 3 156 2 321 l-3 300 -55 18 c-79 25 -134 52 -215 107 -67 45 -195 164 -195 180 0 16 -31 19 -37 4z"
       id="path438"
       style="fill:#483d8b" />
    <path
       d="M455 1243 c-92 -101 -220 -185 -340 -223 -22 -7 -47 -16 -55 -20 -13 -6 -15 -52 -15 -325 l0 -317 64 -23 c35 -13 68 -28 74 -34 6 -6 17 -11 25 -11 14 0 452 434 452 448 0 4 -16 39 -35 77 -56 113 -78 219 -78 368 -1 153 -5 156 -92 60z"
       id="path440"
       style="fill:#483d8b" />
    <path
       d="M932 1232 c-37 -162 126 -317 288 -275 65 17 54 38 -93 187 -157 158 -176 167 -195 88z"
       id="path442"
       style="fill:#b0c4de" />
    <path
       d="M7394 1146 c-102 -102 -134 -140 -134 -160 0 -21 6 -26 36 -32 138 -26 272 76 282 214 4 65 -10 112 -34 112 -9 0 -76 -60 -150 -134z"
       id="path444"
       style="fill:#8fbc8f" />
    <path
       d="M2613 1108 c-18 -9 -22 -24 -32 -112 -14 -122 -28 -217 -47 -313 -19 -99 -19 -100 16 -95 51 7 77 -6 107 -53 23 -38 65 -67 77 -54 2 2 30 112 64 244 59 238 60 240 40 255 -27 20 -66 59 -104 103 -25 30 -38 37 -65 36 -19 0 -44 -5 -56 -11z"
       id="path446"
       style="fill:#808080" />
    <path
       d="M5150 1059 c-273 -196 -456 -295 -640 -349 -102 -30 -218 -47 -490 -71 -115 -10 -228 -24 -385 -48 -142 -22 -145 -23 -145 -42 0 -33 110 -443 137 -512 l15 -37 653 0 653 0 21 62 c11 35 57 206 100 381 80 318 151 571 177 633 8 18 14 36 14 39 0 15 -34 -2 -110 -56z"
       id="path448"
       style="fill:#9370db" />
    <path
       d="M5816 995 c-33 -37 -70 -71 -83 -76 -12 -5 -23 -15 -23 -22 0 -7 24 -110 54 -228 40 -157 58 -215 70 -217 15 -3 29 9 85 78 26 31 33 34 76 32 40 -1 46 1 41 16 -5 16 -15 77 -36 202 -5 30 -12 97 -16 147 -4 51 -12 100 -18 108 -6 9 -30 19 -52 22 -39 5 -41 3 -98 -62z"
       id="path450"
       style="fill:#9370db" />
    <path
       d="M1370 993 c0 -5 14 -28 31 -53 29 -43 30 -40 13 23 -8 28 -44 53 -44 30z"
       id="path452" />
    <path
       d="M1463 953 c17 -103 101 -211 289 -373 189 -163 302 -274 365 -357 29 -40 58 -73 63 -73 14 0 143 31 152 36 9 6 -5 24 -97 129 -181 206 -431 494 -496 572 -85 100 -91 103 -218 103 l-64 0 6 -37z"
       id="path454"
       style="fill:#b8860b" />
    <path
       d="M6955 911 l-50 -6 -130 -152 c-71 -83 -141 -164 -155 -180 -14 -15 -70 -80 -125 -143 -55 -63 -112 -128 -126 -145 -97 -110 -139 -161 -139 -167 0 -8 17 -13 95 -28 33 -6 80 -16 104 -21 49 -11 61 -3 61 42 0 41 55 141 108 195 26 27 92 86 147 131 153 124 177 153 265 322 44 84 80 155 80 157 0 5 -71 2 -135 -5z"
       id="path456"
       style="fill:#483d8b" />
    <path
       d="M2892 740 c-19 -4 -37 -12 -41 -16 -12 -14 -50 -173 -84 -347 -1 -8 13 -11 46 -9 73 6 137 -30 225 -128 71 -78 131 -120 170 -120 16 0 23 21 52 152 18 84 36 168 41 186 7 30 5 34 -19 43 -59 21 -80 37 -162 120 -116 118 -151 136 -228 119z"
       id="path458"
       style="fill:#9370db" />
    <path
       d="M1528 703 c54 -109 110 -315 133 -492 l12 -93 196 5 c108 3 209 9 224 14 l28 8 -38 52 c-76 101 -114 137 -398 383 -54 46 -111 101 -128 122 -39 49 -53 49 -29 1z"
       id="path460"
       style="fill:#8fbc8f" />
    <path
       d="M487 462 c-119 -119 -217 -224 -217 -233 0 -8 5 -20 11 -26 6 -6 21 -39 34 -74 l23 -64 317 0 317 0 27 75 c52 146 134 264 259 373 58 50 47 57 -93 57 -166 0 -289 27 -392 86 -23 13 -48 24 -55 24 -7 0 -111 -98 -231 -218z"
       id="path462"
       style="fill:#b0c4de" />
    <path
       d="M5580 669 c-14 -5 -70 -54 -125 -109 -68 -67 -116 -106 -148 -119 -48 -21 -48 -21 -41 -58 12 -68 55 -258 60 -262 2 -2 22 2 44 9 28 9 66 40 130 106 109 113 135 128 218 128 76 -1 74 -8 30 169 -28 112 -35 130 -56 138 -30 11 -80 11 -112 -2z"
       id="path464"
       style="fill:#808080" />
    <path
       d="M7717 648 c-98 -52 -222 -78 -369 -78 -154 0 -157 -4 -67 -87 112 -104 200 -241 235 -363 l17 -60 318 0 317 0 13 38 c6 20 22 58 36 85 17 34 21 52 14 65 -18 32 -428 432 -442 431 -8 0 -40 -14 -72 -31z"
       id="path466"
       style="fill:#8fbc8f" />
    <path
       d="M3377 569 c-33 -181 -55 -287 -83 -402 -19 -76 -34 -145 -34 -153 0 -11 25 -14 144 -14 l144 0 -9 35 c-5 19 -13 50 -18 68 -42 149 -55 200 -87 327 -37 150 -50 180 -57 139z"
       id="path468"
       style="fill:#808080" />
    <path
       d="M1384 521 c-44 -27 -111 -80 -148 -117 -116 -115 -172 -218 -183 -340 l-6 -64 144 0 144 0 13 66 c21 109 73 184 159 229 58 30 58 31 31 130 -25 92 -45 140 -58 143 -8 1 -51 -20 -96 -47z"
       id="path470"
       style="fill:#8fbc8f" />
    <path
       d="M7012 553 c-5 -10 -17 -45 -27 -78 -9 -33 -21 -73 -26 -89 -16 -52 -11 -63 45 -94 90 -51 156 -150 156 -233 0 -59 0 -59 156 -59 l144 0 0 39 c0 57 -34 157 -77 228 -62 102 -162 196 -285 268 -68 40 -74 41 -86 18z"
       id="path472"
       style="fill:#483d8b" />
    <path
       d="M2525 532 c-25 -16 -34 -31 -49 -89 l-18 -71 102 -121 c56 -66 106 -121 111 -121 5 0 9 13 9 29 0 16 5 51 10 78 6 26 16 80 24 118 l13 70 -33 15 c-18 8 -49 36 -69 63 -39 52 -55 56 -100 29z"
       id="path474"
       style="fill:#d3d3d3" />
    <path
       d="M5135 372 c-21 -86 -51 -201 -66 -254 -16 -54 -29 -102 -29 -108 0 -6 46 -10 125 -10 69 0 125 3 125 8 0 4 -9 45 -21 92 -35 145 -79 363 -79 391 0 69 -20 26 -55 -119z"
       id="path476"
       style="fill:#d3d3d3" />
    <path
       d="M5929 474 c-18 -27 -46 -52 -65 -60 -19 -8 -34 -18 -34 -22 0 -4 12 -61 25 -127 14 -66 25 -133 25 -150 0 -37 15 -64 29 -50 5 6 52 61 104 124 l95 113 -14 47 c-8 25 -19 67 -25 94 -8 36 -17 51 -39 62 -48 25 -66 19 -101 -31z"
       id="path478"
       style="fill:#d3d3d3" />
    <path
       d="M6875 490 c-4 -6 -43 -40 -88 -76 -183 -147 -263 -249 -255 -328 3 -30 5 -31 63 -37 33 -4 98 -7 145 -8 l86 -1 12 123 c8 67 18 142 23 167 14 61 30 131 36 153 5 18 -12 24 -22 7z"
       id="path480"
       style="fill:#8b4513" />
    <path
       d="M2767 308 c-16 -12 -29 -71 -44 -200 -5 -39 -2 -52 18 -77 l24 -30 213 0 212 -1 10 26 c15 39 13 42 -32 55 -34 10 -66 36 -146 116 -57 57 -115 108 -128 114 -36 13 -107 11 -127 -3z"
       id="path482"
       style="fill:#d3d3d3" />
    <path
       d="M5642 307 c-12 -7 -69 -58 -125 -114 -71 -69 -113 -103 -135 -107 -39 -9 -45 -18 -37 -56 l7 -30 244 0 244 0 0 39 c0 22 -4 61 -10 88 -5 26 -15 77 -21 111 -10 52 -16 65 -36 73 -34 13 -104 11 -131 -4z"
       id="path484"
       style="fill:#d3d3d3" />
    <path
       d="M0 149 l0 -149 153 1 c83 1 145 3 136 6 -10 2 -18 18 -22 41 -14 111 -85 188 -210 231 l-57 20 0 -150z"
       id="path486"
       style="fill:#8fbc8f" />
    <path
       d="M8447 280 c-121 -46 -189 -121 -203 -224 -5 -35 -11 -46 -28 -49 -11 -2 48 -5 132 -6 l152 -1 0 150 c0 83 -1 150 -2 149 -2 0 -25 -9 -51 -19z"
       id="path488"
       style="fill:#8fbc8f" />
    <path
       d="M1480 193 c-49 -49 -70 -97 -70 -160 l0 -33 90 0 90 0 -1 88 c-2 119 -9 146 -37 150 -17 3 -37 -10 -72 -45z"
       id="path490"
       style="fill:#483d8b" />
    <path
       d="M6936 231 c-10 -15 -27 -193 -21 -212 6 -17 17 -19 96 -19 l89 0 0 34 c0 70 -44 151 -104 187 -34 21 -52 24 -60 10z"
       id="path492"
       style="fill:#8fbc8f" />
    <path
       d="M2310 127 c-39 -10 -45 -16 -48 -41 -2 -15 2 -41 8 -57 l12 -29 110 0 c124 0 122 -5 45 84 -51 59 -56 61 -127 43z"
       id="path494"
       style="fill:#483d8b" />
    <path
       d="M2150 89 c-119 -21 -294 -39 -382 -39 -98 0 -98 0 -98 -25 l0 -25 280 0 280 0 -5 25 c-3 14 -7 36 -10 50 -3 14 -9 24 -13 24 -4 -1 -27 -5 -52 -10z"
       id="path496" />
    <path
       d="M6153 40 c-13 -15 -23 -31 -23 -34 0 -3 52 -6 115 -6 91 0 115 3 115 14 0 9 -30 21 -87 35 -49 11 -90 21 -93 20 -3 0 -15 -13 -27 -29z"
       id="path498"
       style="fill:#b8860b" />
  </g>
</svg>
