<?xml version="1.0" encoding="UTF-8" standalone="no"?>
<svg
   xmlns:dc="http://purl.org/dc/elements/1.1/"
   xmlns:cc="http://creativecommons.org/ns#"
   xmlns:rdf="http://www.w3.org/1999/02/22-rdf-syntax-ns#"
   xmlns:svg="http://www.w3.org/2000/svg"
   xmlns="http://www.w3.org/2000/svg"
   xmlns:sodipodi="http://sodipodi.sourceforge.net/DTD/sodipodi-0.dtd"
   xmlns:inkscape="http://www.inkscape.org/namespaces/inkscape"
   version="1.0"
   width="850.000000pt"
   height="850.000000pt"
   viewBox="0 0 850.000000 850.000000"
   preserveAspectRatio="xMidYMid meet"
   id="svg240"
   sodipodi:docname="bible460.svg"
   inkscape:version="0.92.2 5c3e80d, 2017-08-06">
  <defs
     id="defs244" />
  <sodipodi:namedview
     pagecolor="#ffffff"
     bordercolor="#666666"
     borderopacity="1"
     objecttolerance="10"
     gridtolerance="10"
     guidetolerance="10"
     inkscape:pageopacity="0"
     inkscape:pageshadow="2"
     inkscape:window-width="1920"
     inkscape:window-height="978"
     id="namedview242"
     showgrid="false"
     inkscape:zoom="0.41647059"
     inkscape:cx="568.77796"
     inkscape:cy="356.31434"
     inkscape:window-x="0"
     inkscape:window-y="1"
     inkscape:window-maximized="1"
     inkscape:current-layer="svg240" />
  <metadata
     id="metadata2">
Created by potrace 1.14, written by Peter Selinger 2001-2017
<rdf:RDF>
  <cc:Work
     rdf:about="">
    <dc:format>image/svg+xml</dc:format>
    <dc:type
       rdf:resource="http://purl.org/dc/dcmitype/StillImage" />
  </cc:Work>
</rdf:RDF>
</metadata>
  <g
     transform="translate(0.000000,850.000000) scale(0.100000,-0.100000)"
     fill="#000000"
     stroke="none"
     id="g238">
    <path
       d="M0 4250 l0 -4250 4250 0 4250 0 0 4250 0 4250 -4250 0 -4250 0 0 -4250z m4711 4066 c42 -18 83 -56 106 -99 16 -28 19 -72 23 -356 l5 -325 90 -36 c312 -125 555 -299 757 -540 44 -52 108 -139 144 -192 65 -99 171 -309 194 -383 7 -22 17 -46 23 -52 7 -10 68 -13 241 -13 222 0 232 -1 268 -23 20 -12 46 -34 58 -49 49 -64 50 -70 50 -504 0 -276 -4 -419 -11 -445 -16 -53 -60 -103 -114 -128 -41 -19 -61 -21 -269 -21 l-223 0 -23 -62 c-61 -172 -198 -411 -320 -558 -126 -152 -287 -292 -460 -400 -88 -55 -275 -150 -297 -150 -16 0 -17 -78 -4 -234 6 -61 15 -181 21 -266 6 -85 15 -213 20 -285 5 -71 14 -193 19 -270 6 -77 15 -203 21 -280 6 -77 17 -235 25 -352 46 -653 88 -1240 116 -1608 5 -71 12 -183 16 -247 6 -114 5 -117 -21 -163 -17 -28 -46 -58 -74 -76 l-46 -29 -794 0 c-565 0 -800 3 -815 11 -45 23 -97 83 -113 131 -14 42 -14 66 -5 171 5 67 15 190 21 272 21 305 46 647 60 835 5 74 21 302 35 505 14 204 29 429 35 500 5 72 14 198 20 280 6 83 15 211 20 285 5 74 14 205 20 290 6 85 15 207 20 272 14 168 13 258 -3 258 -7 0 -69 28 -137 63 -449 226 -771 588 -944 1060 l-18 47 -217 0 c-136 0 -231 4 -252 11 -51 18 -97 55 -122 102 -22 41 -22 49 -25 454 -2 277 1 426 8 453 13 47 67 112 112 135 25 12 75 15 258 15 172 0 230 3 238 13 6 7 18 35 27 62 32 95 124 273 203 391 81 120 240 307 303 355 19 15 48 39 64 53 124 111 383 259 563 322 l52 19 0 292 c0 335 6 377 58 435 61 68 50 66 528 67 355 1 438 -2 465 -13z"
       id="path4"
       style="fill:none" />
    <path
       d="M3816 8184 l-26 -27 0 -666 c0 -644 1 -667 20 -698 55 -91 75 -232 46 -339 -40 -151 -160 -274 -315 -323 -46 -15 -194 -14 -245 1 -22 7 -64 25 -93 40 l-51 28 -570 0 -569 0 -27 -25 -26 -24 0 -414 0 -414 23 -21 23 -22 571 0 571 0 79 40 c68 35 92 42 164 47 145 10 256 -32 348 -133 140 -153 156 -359 41 -532 -42 -63 -41 -55 -70 -482 -6 -85 -15 -211 -20 -280 -5 -69 -14 -192 -20 -275 -6 -82 -15 -211 -20 -285 -5 -74 -14 -202 -20 -285 -6 -82 -15 -211 -20 -285 -6 -74 -26 -360 -45 -635 -19 -275 -39 -561 -44 -635 -6 -74 -15 -205 -21 -290 -10 -145 -14 -208 -40 -545 -5 -71 -12 -183 -16 -247 -6 -116 -6 -117 20 -142 l25 -26 761 0 762 0 29 29 c32 33 33 36 20 164 -6 51 -15 169 -21 262 -6 94 -15 226 -20 295 -9 110 -19 244 -60 828 -5 78 -15 206 -21 285 -5 78 -14 205 -19 282 -5 77 -14 202 -20 278 -16 217 -29 401 -40 552 -5 77 -14 204 -20 282 -5 79 -14 205 -20 280 -5 76 -14 201 -20 278 -6 77 -17 229 -24 338 -14 198 -14 198 -48 250 -32 51 -43 72 -67 130 -6 15 -11 68 -11 117 0 180 86 317 249 394 62 29 73 31 176 31 109 0 111 0 195 -42 l86 -43 570 0 571 0 24 26 24 26 0 410 0 410 -28 24 -28 24 -568 0 -568 0 -45 -25 c-70 -39 -136 -55 -230 -55 -340 0 -552 357 -394 660 l26 50 0 665 0 666 -26 24 -27 25 -407 0 -407 0 -27 -26z m818 -66 c14 -20 16 -97 16 -639 l0 -617 -30 -64 c-45 -96 -65 -213 -50 -297 22 -133 67 -221 159 -310 86 -84 225 -140 352 -141 67 0 191 30 242 59 37 21 48 21 582 21 l545 0 15 -24 c14 -20 15 -71 13 -379 -3 -343 -4 -357 -23 -371 -17 -13 -93 -15 -552 -16 l-532 0 -50 30 c-154 90 -361 86 -512 -10 -139 -90 -229 -252 -229 -414 0 -103 21 -168 99 -304 14 -24 21 -62 25 -140 4 -59 11 -170 16 -247 5 -77 14 -228 20 -335 6 -107 15 -262 20 -345 5 -82 14 -233 20 -335 10 -174 16 -282 40 -672 5 -90 14 -248 20 -353 6 -104 13 -216 15 -248 4 -52 2 -61 -20 -83 l-24 -24 -559 0 c-667 0 -607 -13 -604 131 1 52 4 112 7 134 3 22 12 166 20 320 8 154 19 350 25 435 5 85 14 236 20 335 6 99 15 252 20 340 5 88 14 241 20 340 15 267 28 475 38 610 8 115 10 122 46 175 46 69 67 134 73 234 7 98 -8 170 -54 258 -128 245 -424 335 -671 203 l-66 -35 -531 0 c-457 1 -533 3 -550 16 -19 14 -20 27 -20 378 0 293 3 366 14 379 12 15 64 17 560 17 301 0 551 -4 556 -8 15 -14 94 -43 155 -58 168 -41 353 14 476 142 76 78 118 160 141 271 15 71 16 91 4 160 -7 43 -28 111 -47 152 l-34 74 0 616 c0 542 2 619 16 639 l15 22 369 0 369 0 15 -22z m-485 -6364 c148 -59 300 -134 360 -178 76 -56 150 -141 182 -210 94 -200 30 -443 -147 -562 -212 -143 -469 -27 -469 211 0 85 27 137 83 160 31 14 38 14 59 0 25 -17 31 -45 9 -45 -7 0 -25 -9 -40 -21 -22 -18 -26 -28 -26 -75 0 -30 6 -69 14 -87 29 -67 122 -127 197 -127 15 0 53 9 83 20 68 26 127 88 168 178 28 61 30 72 26 166 -3 89 -7 109 -35 169 -79 166 -262 277 -453 277 -83 -1 -139 -14 -216 -51 -34 -16 -66 -29 -72 -29 -6 0 -8 25 -5 63 5 57 3 64 -21 86 -52 48 -136 20 -136 -46 0 -29 41 -73 70 -73 27 0 26 -22 -5 -88 -35 -76 -146 -262 -156 -262 -11 0 -11 58 5 319 16 273 -4 251 234 251 l175 0 116 -46z m698 22 c17 -21 21 -64 38 -362 l19 -338 -45 -85 c-93 -180 -193 -286 -324 -348 -56 -26 -69 -28 -185 -28 -116 0 -129 2 -180 27 -158 78 -251 234 -237 399 15 177 155 296 306 259 72 -17 119 -77 100 -127 -11 -30 -37 -29 -49 2 -12 32 -66 65 -106 65 -44 0 -117 -50 -139 -96 -30 -61 -32 -175 -4 -249 95 -254 454 -277 637 -41 149 193 146 452 -9 638 -21 26 -39 51 -39 56 0 5 28 12 61 14 71 5 99 28 99 82 0 48 -24 76 -67 76 -45 0 -73 -24 -73 -62 0 -16 -6 -31 -14 -34 -26 -10 -143 32 -298 106 -88 41 -103 52 -91 64 3 3 136 6 294 6 l288 0 18 -24z m-557 -218 c115 -34 229 -131 278 -235 39 -85 43 -198 9 -274 -28 -63 -86 -133 -128 -155 -16 -8 -52 -14 -81 -14 -90 0 -158 62 -158 145 0 19 4 35 8 35 5 0 27 -18 50 -40 36 -36 46 -40 90 -40 177 0 222 261 70 413 -26 26 -74 60 -106 74 -48 23 -71 27 -152 27 -87 0 -101 -3 -161 -32 -119 -57 -205 -152 -251 -278 -17 -47 -21 -83 -22 -174 -1 -138 21 -215 90 -317 25 -35 42 -68 39 -73 -3 -5 -19 -5 -38 1 -17 5 -53 9 -80 9 -38 0 -53 -5 -72 -25 -43 -42 -30 -114 24 -133 23 -8 35 -6 60 9 26 15 31 25 31 55 l0 37 43 -6 c23 -3 67 -16 97 -28 68 -28 220 -118 220 -130 0 -5 -124 -9 -284 -9 -245 0 -285 2 -297 16 -10 12 -10 49 -1 192 7 97 15 233 18 302 l7 125 60 120 c109 218 195 322 315 378 91 43 227 53 322 25z m7 -139 c117 -50 193 -188 163 -297 -19 -73 -96 -114 -144 -77 -20 16 -15 45 8 45 8 0 28 14 45 31 58 57 35 149 -50 206 -38 25 -51 28 -128 28 -96 0 -140 -17 -210 -80 -79 -71 -123 -215 -101 -330 33 -173 153 -315 315 -371 58 -20 242 -24 288 -5 16 6 73 14 128 17 l99 7 0 -46 c0 -37 5 -49 26 -66 32 -25 52 -26 80 -3 79 63 39 145 -77 158 -33 4 -62 11 -65 15 -3 5 20 35 52 66 49 49 145 180 156 215 2 6 12 9 21 5 14 -5 17 -19 17 -69 0 -35 5 -147 12 -250 10 -153 9 -189 -1 -202 -12 -14 -53 -16 -323 -16 l-309 0 -62 31 c-160 80 -306 199 -370 299 -57 92 -77 162 -77 277 0 147 36 238 132 329 110 105 250 136 375 83z"
       id="path6"
       style="fill:#6495ed" />
    <path
       d="M3963 8033 c-27 -73 -25 -214 5 -271 22 -41 77 -102 92 -102 4 0 10 9 13 21 4 14 -5 35 -28 65 -50 66 -64 133 -46 219 5 24 12 30 32 31 63 2 65 34 4 63 -25 12 -47 21 -49 21 -2 0 -13 -21 -23 -47z"
       id="path8"
       style="fill:#0000ff" />
    <path
       d="M4195 8048 c-26 -17 -72 -56 -101 -87 -43 -43 -54 -61 -54 -87 0 -51 15 -49 56 7 50 68 130 131 163 128 30 -2 61 9 61 22 0 9 -58 49 -71 49 -3 0 -27 -14 -54 -32z"
       id="path10"
       style="fill:#0000ff" />
    <path
       d="M4445 8049 c-98 -51 -158 -100 -149 -124 10 -24 30 -18 100 30 37 25 74 45 82 43 9 -2 19 -18 23 -37 9 -43 40 -111 51 -111 16 0 8 119 -13 175 -11 30 -23 55 -27 55 -4 0 -34 -14 -67 -31z"
       id="path12"
       style="fill:#0000ff" />
    <path
       d="M4190 7915 c-9 -11 -7 -19 15 -42 15 -15 47 -58 72 -96 38 -59 46 -66 63 -57 17 9 18 14 8 38 -29 66 -111 172 -134 172 -6 0 -17 -7 -24 -15z"
       id="path14"
       style="fill:#0000cd" />
    <path
       d="M4412 7907 c-8 -9 -3 -24 17 -57 39 -64 67 -143 80 -230 9 -61 9 -91 -4 -164 -15 -83 -14 -90 1 -108 10 -10 21 -15 25 -11 12 13 39 159 39 213 0 60 -24 183 -46 237 -23 57 -74 133 -89 133 -7 0 -17 -6 -23 -13z"
       id="path16"
       style="fill:#0000cd" />
    <path
       d="M4161 7772 c-33 -64 -60 -160 -67 -237 -8 -89 -2 -110 25 -96 15 8 21 26 26 78 8 77 28 154 57 220 15 35 17 47 8 59 -19 22 -28 17 -49 -24z"
       id="path18"
       style="fill:#0000ff" />
    <path
       d="M4381 7688 c-36 -19 -70 -28 -101 -28 -49 0 -70 -13 -70 -42 0 -15 8 -18 43 -18 78 0 197 47 197 78 0 35 -15 37 -69 10z"
       id="path20"
       style="fill:#0000ff" />
    <path
       d="M3946 7673 c-25 -87 -13 -231 31 -362 34 -100 114 -255 134 -259 35 -6 29 32 -20 132 -76 154 -92 212 -98 353 -5 100 -9 125 -23 138 -17 15 -19 15 -24 -2z"
       id="path22"
       style="fill:#0000cd" />
    <path
       d="M4371 7571 c-9 -6 -14 -39 -16 -117 -3 -107 -23 -192 -61 -265 -11 -22 -11 -29 0 -44 7 -10 18 -15 25 -11 13 9 48 82 67 145 26 86 31 301 6 301 -4 0 -13 -4 -21 -9z"
       id="path24"
       style="fill:#0000cd" />
    <path
       d="M4154 7404 c-54 -19 -84 -48 -77 -74 6 -23 25 -26 42 -6 17 20 97 46 142 46 36 0 50 13 42 38 -6 17 -97 14 -149 -4z"
       id="path26"
       style="fill:#0000cd" />
    <path
       d="M4445 7317 c-9 -22 -3 -47 29 -122 21 -50 26 -76 26 -152 0 -87 -1 -93 -21 -93 -11 0 -29 5 -40 11 -24 12 -52 -5 -47 -29 3 -13 107 -62 133 -62 7 0 17 26 24 57 28 140 -1 288 -73 378 -21 26 -25 28 -31 12z"
       id="path28"
       style="fill:#0000cd" />
    <path
       d="M4132 7278 c-7 -7 -12 -16 -12 -20 0 -38 123 -232 143 -225 31 10 29 34 -7 81 -34 45 -86 145 -86 166 0 14 -24 12 -38 -2z"
       id="path30"
       style="fill:#0000ff" />
    <path
       d="M3962 7174 c-27 -50 -21 -269 7 -297 22 -22 241 94 241 127 0 32 -26 36 -61 10 -48 -36 -104 -64 -129 -64 -19 0 -20 6 -20 94 0 103 -19 166 -38 130z"
       id="path32"
       style="fill:#0000cd" />
    <path
       d="M4405 7171 c-3 -10 -30 -60 -60 -110 -58 -95 -63 -112 -42 -130 11 -8 20 -1 44 32 61 86 94 156 91 189 -3 36 -23 48 -33 19z"
       id="path34"
       style="fill:#0000cd" />
    <path
       d="M4202 6928 c-14 -14 -9 -24 72 -132 104 -137 150 -251 159 -389 4 -60 25 -96 47 -82 9 6 11 31 6 96 -7 98 -33 187 -77 268 -39 71 -171 251 -184 251 -6 0 -16 -5 -23 -12z"
       id="path36"
       style="fill:#0000cd" />
    <path
       d="M4140 6769 c-87 -127 -120 -231 -120 -374 0 -136 32 -260 102 -400 45 -90 55 -105 73 -105 29 0 22 34 -25 127 -132 263 -131 498 0 702 43 67 47 82 26 100 -12 10 -22 1 -56 -50z"
       id="path38"
       style="fill:#0000ff" />
    <path
       d="M4175 6312 c-34 -6 -40 -11 -40 -32 0 -24 0 -24 90 -21 169 5 279 -40 402 -165 76 -78 100 -94 116 -78 23 24 -127 183 -218 231 -100 52 -253 81 -350 65z"
       id="path40"
       style="fill:#0000cd" />
    <path
       d="M3894 6191 c-137 -111 -214 -272 -214 -448 0 -103 10 -133 46 -133 21 0 25 3 19 18 -4 9 -10 51 -12 92 -11 173 83 358 230 455 19 12 27 25 25 39 -5 35 -30 29 -94 -23z"
       id="path42"
       style="fill:#0000cd" />
    <path
       d="M4399 6143 c-31 -97 -87 -194 -162 -282 -44 -52 -46 -56 -30 -73 16 -18 17 -17 46 9 85 81 220 325 203 368 -11 30 -44 17 -57 -22z"
       id="path44"
       style="fill:#0000ff" />
    <path
       d="M2167 6050 c-27 -5 -51 -11 -55 -14 -21 -21 77 -248 109 -254 31 -6 29 29 -6 98 -46 91 -46 116 -1 123 40 6 88 35 80 48 -6 11 -60 10 -127 -1z"
       id="path46"
       style="fill:#0000ff" />
    <path
       d="M5850 6049 c-30 -4 -81 -17 -113 -29 -72 -27 -181 -99 -185 -123 -6 -33 27 -30 83 8 102 67 159 87 261 93 74 4 97 9 110 23 14 15 14 19 3 23 -29 9 -106 12 -159 5z"
       id="path48"
       style="fill:#0000cd" />
    <path
       d="M6139 6045 c-54 -17 -136 -85 -125 -103 12 -19 51 -14 72 9 39 45 144 64 210 39 23 -9 26 -14 20 -42 -6 -30 6 -58 26 -58 9 0 48 83 48 105 0 18 -89 54 -151 60 -34 3 -71 -1 -100 -10z"
       id="path50"
       style="fill:#0000ff" />
    <path
       d="M2408 6035 c-54 -15 -124 -53 -151 -83 -15 -17 -16 -24 -7 -42 11 -21 11 -21 50 10 21 17 59 40 84 51 61 26 193 36 280 19 53 -10 69 -10 81 0 24 20 18 28 -39 44 -66 19 -230 20 -298 1z"
       id="path52"
       style="fill:#0000ff" />
    <path
       d="M5432 6033 c-13 -2 -26 -11 -29 -18 -6 -18 11 -73 49 -152 36 -75 48 -87 72 -70 16 11 14 18 -19 85 -48 95 -45 106 27 110 54 3 91 23 74 40 -9 8 -141 12 -174 5z"
       id="path54"
       style="fill:#0000cd" />
    <path
       d="M2893 6015 c-59 -18 -133 -63 -133 -80 0 -23 41 -18 105 11 35 16 77 27 109 28 49 1 51 0 48 -25 -2 -28 20 -55 37 -45 8 5 41 101 41 120 0 11 -165 5 -207 -9z"
       id="path56"
       style="fill:#0000ff" />
    <path
       d="M3525 5985 c-5 -2 -35 -10 -65 -19 -113 -33 -248 -115 -368 -222 -40 -36 -42 -41 -29 -59 14 -19 16 -18 52 10 217 173 326 228 481 243 61 6 69 9 72 30 3 21 0 22 -65 21 -37 0 -72 -2 -78 -4z"
       id="path58"
       style="fill:#0000ff" />
    <path
       d="M4660 5947 c-82 -25 -163 -63 -225 -105 -42 -30 -50 -49 -25 -65 12 -7 33 2 85 35 188 120 386 141 608 64 47 -17 153 -70 171 -87 15 -13 42 -11 55 5 17 20 -98 94 -204 131 -151 52 -334 61 -465 22z"
       id="path60"
       style="fill:#0000ff" />
    <path
       d="M3821 5942 c-11 -21 2 -42 26 -42 39 0 183 -94 272 -176 51 -47 64 -54 76 -44 8 7 15 18 15 25 0 33 -187 177 -290 223 -73 33 -88 35 -99 14z"
       id="path62"
       style="fill:#0000ff" />
    <path
       d="M2455 5940 c-4 -6 6 -36 21 -66 18 -36 30 -80 33 -123 5 -57 9 -66 26 -66 18 0 20 7 20 75 0 90 -39 190 -74 190 -11 0 -23 -5 -26 -10z"
       id="path64"
       style="fill:#0000ff" />
    <path
       d="M6153 5938 c-7 -9 5 -26 41 -58 61 -54 121 -122 148 -170 l20 -34 14 24 c7 14 13 32 14 41 0 9 -42 60 -92 113 -92 95 -123 113 -145 84z"
       id="path66"
       style="fill:#0000ff" />
    <path
       d="M2903 5914 c-22 -9 -15 -29 16 -47 16 -9 48 -33 72 -53 43 -36 82 -42 86 -14 3 17 -117 114 -144 117 -10 1 -24 -1 -30 -3z"
       id="path68"
       style="fill:#0000ff" />
    <path
       d="M5738 5913 c-23 -6 -23 -15 3 -65 11 -22 23 -65 26 -95 4 -38 11 -57 24 -63 24 -14 33 2 30 58 -3 91 -45 174 -83 165z"
       id="path70"
       style="fill:#0000cd" />
    <path
       d="M2587 5893 c-15 -24 21 -46 83 -54 39 -4 86 -19 123 -38 60 -31 61 -31 80 -12 19 19 19 19 -25 45 -24 14 -64 32 -88 41 -56 20 -165 31 -173 18z"
       id="path72"
       style="fill:#0000ff" />
    <path
       d="M5840 5881 c0 -27 10 -31 92 -37 53 -4 90 -14 137 -36 46 -22 69 -28 80 -21 28 17 22 29 -27 56 -63 34 -152 57 -224 57 -51 0 -58 -2 -58 -19z"
       id="path74"
       style="fill:#0000ff" />
    <path
       d="M4768 5784 c10 -168 -37 -286 -167 -414 -56 -55 -85 -91 -83 -102 5 -25 17 -23 67 12 97 67 188 199 220 320 15 55 21 224 9 254 -3 9 -16 16 -29 16 -22 0 -23 -2 -17 -86z"
       id="path76"
       style="fill:#0000cd" />
    <path
       d="M2369 5832 c-60 -39 -119 -91 -119 -107 0 -7 7 -18 15 -25 13 -10 22 -6 59 28 24 22 62 50 84 63 44 25 50 37 30 57 -16 16 -18 16 -69 -16z"
       id="path78"
       style="fill:#0000ff" />
    <path
       d="M5623 5815 c-68 -46 -107 -93 -92 -111 16 -20 33 -17 55 7 10 12 42 39 71 60 33 25 50 44 47 53 -10 27 -32 24 -81 -9z"
       id="path80"
       style="fill:#0000ff" />
    <path
       d="M5370 5769 c-131 -114 -315 -205 -467 -231 -59 -10 -73 -16 -82 -35 -10 -22 -9 -23 38 -23 120 0 288 66 454 179 126 86 145 105 127 126 -18 21 -30 18 -70 -16z"
       id="path82"
       style="fill:#0000cd" />
    <path
       d="M5947 5793 c-11 -11 -8 -113 5 -157 25 -86 54 -117 94 -102 12 5 12 10 -5 33 -28 37 -51 117 -51 174 0 33 -5 49 -16 53 -19 7 -19 7 -27 -1z"
       id="path84"
       style="fill:#0000ff" />
    <path
       d="M2122 5770 c-6 -11 -12 -26 -12 -34 0 -15 105 -135 163 -186 33 -29 41 -31 62 -22 24 11 23 13 -64 99 -49 49 -96 105 -104 126 -18 42 -27 46 -45 17z"
       id="path86"
       style="fill:#0000ff" />
    <path
       d="M2680 5729 c0 -74 40 -169 71 -169 29 0 33 23 9 67 -11 22 -23 65 -27 94 -6 53 -15 69 -40 69 -9 0 -13 -19 -13 -61z"
       id="path88"
       style="fill:#0000ff" />
    <path
       d="M2914 5759 c-16 -17 -48 -42 -71 -57 -44 -27 -56 -58 -28 -68 30 -12 169 103 159 130 -10 27 -32 25 -60 -5z"
       id="path90"
       style="fill:#0000ff" />
    <path
       d="M4300 5775 c-26 -31 132 -168 266 -232 76 -36 104 -38 104 -5 0 14 -14 24 -47 37 -63 23 -163 90 -240 159 -33 31 -63 56 -66 56 -2 0 -10 -7 -17 -15z"
       id="path92"
       style="fill:#0000ff" />
    <path
       d="M6189 5754 c-13 -14 -50 -42 -81 -61 -32 -20 -58 -38 -58 -40 0 -2 5 -13 10 -24 10 -18 12 -18 43 -3 40 21 134 95 141 112 7 17 -4 42 -18 42 -7 0 -23 -12 -37 -26z"
       id="path94"
       style="fill:#0000cd" />
    <path
       d="M2351 5687 c-22 -22 -9 -39 52 -66 106 -48 241 -67 253 -36 11 29 -15 42 -90 47 -54 4 -91 13 -139 35 -47 23 -68 28 -76 20z"
       id="path96"
       style="fill:#0000ff" />
    <path
       d="M2982 5688 c-14 -14 -16 -54 -3 -62 14 -9 51 -93 51 -116 0 -17 -7 -20 -52 -20 -51 -1 -88 -16 -88 -37 0 -13 90 -24 133 -17 90 15 89 13 56 108 -18 49 -74 156 -83 156 -1 0 -7 -5 -14 -12z"
       id="path98"
       style="fill:#0000ff" />
    <path
       d="M3180 5685 c-17 -21 -3 -36 75 -79 252 -141 552 -139 776 6 76 48 84 58 59 75 -16 11 -27 8 -82 -26 -122 -77 -286 -120 -411 -108 -119 12 -257 59 -344 117 -50 34 -56 35 -73 15z"
       id="path100"
       style="fill:#0000ff" />
    <path
       d="M5429 5684 c-12 -14 -9 -20 21 -46 19 -16 54 -43 77 -59 36 -25 46 -28 69 -19 15 6 25 12 23 14 -32 29 -161 126 -168 126 -5 0 -15 -7 -22 -16z"
       id="path102"
       style="fill:#00008b" />
    <path
       d="M5626 5684 c-9 -24 1 -34 69 -65 64 -29 184 -55 209 -46 21 8 8 46 -18 52 -11 2 -42 7 -68 10 -26 3 -73 19 -105 35 -67 34 -79 36 -87 14z"
       id="path104"
       style="fill:#0000cd" />
    <path
       d="M6260 5685 c-10 -12 -6 -28 25 -90 43 -89 43 -119 0 -123 -17 -2 -44 -14 -60 -28 l-30 -25 87 3 c108 4 117 11 100 76 -14 56 -82 194 -98 199 -6 2 -17 -3 -24 -12z"
       id="path106"
       style="fill:#0000ff" />
    <path
       d="M4234 5652 c-79 -96 -174 -267 -174 -313 0 -22 15 -39 35 -39 2 0 24 42 48 94 40 85 91 166 149 238 18 23 19 30 8 43 -19 23 -32 18 -66 -23z"
       id="path108"
       style="fill:#0000ff" />
    <path
       d="M2885 5581 c-106 -75 -208 -111 -316 -111 -69 0 -97 -13 -78 -37 16 -18 143 -17 215 2 63 16 134 51 202 97 31 22 42 36 40 51 -4 30 -18 30 -63 -2z"
       id="path110"
       style="fill:#0000ff" />
    <path
       d="M2131 5539 c-11 -29 -21 -57 -21 -63 0 -20 112 -56 175 -56 69 0 124 22 174 69 27 26 31 34 21 46 -17 21 -33 19 -56 -6 -48 -53 -139 -73 -211 -47 -32 12 -34 15 -28 46 6 31 -6 62 -25 62 -4 0 -17 -23 -29 -51z"
       id="path112"
       style="fill:#0000ff" />
    <path
       d="M4303 5569 c-20 -20 -16 -33 32 -122 84 -156 115 -299 96 -446 -16 -123 -54 -230 -113 -318 -32 -47 -35 -71 -12 -80 21 -8 53 32 98 122 68 137 81 194 81 355 0 163 -13 216 -85 365 -50 102 -80 141 -97 124z"
       id="path114"
       style="fill:#0000ff" />
    <path
       d="M5432 5552 c-17 -44 -32 -94 -32 -105 0 -15 169 -2 224 18 59 20 116 56 116 72 0 23 -38 23 -86 -1 -57 -28 -148 -51 -169 -42 -10 4 -13 14 -9 35 5 23 2 32 -14 40 -17 9 -21 7 -30 -17z"
       id="path116"
       style="fill:#0000cd" />
    <path
       d="M6200 5556 c-56 -60 -230 -101 -330 -78 -68 16 -105 15 -119 -2 -15 -18 -7 -23 64 -42 140 -36 321 -4 415 74 29 25 31 31 21 50 -15 28 -22 28 -51 -2z"
       id="path118"
       style="fill:#0000ff" />
    <path
       d="M3771 5461 c-20 -13 4 -49 86 -128 103 -100 257 -163 398 -163 64 0 125 17 125 35 0 24 -21 29 -115 26 -164 -4 -286 48 -398 169 -67 72 -72 76 -96 61z"
       id="path120"
       style="fill:#0000cd" />
    <path
       d="M4014 5144 c-9 -34 3 -170 20 -242 35 -144 96 -254 224 -402 34 -39 41 -43 56 -31 9 7 16 17 16 21 0 4 -32 45 -71 91 -121 143 -188 316 -191 487 -1 68 -4 85 -19 93 -25 13 -28 12 -35 -17z"
       id="path122"
       style="fill:#0000cd" />
    <path
       d="M3881 4500 c-6 -18 -11 -79 -11 -136 0 -81 5 -116 24 -173 26 -76 71 -161 86 -161 24 0 22 52 -3 98 -14 26 -32 75 -41 108 -16 61 -22 188 -10 218 8 21 40 20 91 -3 39 -18 42 -18 57 -2 9 10 16 20 16 23 0 11 -103 49 -149 55 -47 5 -48 5 -60 -27z"
       id="path124"
       style="fill:#0000ff" />
    <path
       d="M4491 4510 c-53 -19 -170 -89 -190 -114 -8 -9 -6 -17 7 -29 17 -16 21 -15 58 12 56 42 155 91 181 91 31 0 37 -30 31 -146 -5 -81 -3 -98 12 -117 18 -22 18 -22 30 23 16 57 16 218 0 264 -10 31 -16 36 -43 36 -18 -1 -56 -9 -86 -20z"
       id="path126"
       style="fill:#0000ff" />
    <path
       d="M4134 4447 c-81 -100 -144 -198 -144 -221 0 -22 16 -54 23 -46 2 3 21 32 42 65 21 33 64 94 96 136 61 78 69 99 46 118 -11 8 -25 -3 -63 -52z"
       id="path128"
       style="fill:#0000ff" />
    <path
       d="M4202 4368 c-19 -19 -15 -27 54 -96 58 -59 134 -167 134 -191 0 -18 26 -31 38 -19 24 24 6 75 -56 158 -32 43 -143 160 -152 160 -3 0 -11 -5 -18 -12z"
       id="path130"
       style="fill:#0000ff" />
    <path
       d="M4401 4346 c-9 -11 -3 -27 31 -77 131 -198 187 -394 188 -655 0 -125 -19 -293 -45 -403 -14 -59 -14 -65 1 -82 23 -26 31 -24 38 9 44 198 56 303 56 476 0 273 -48 456 -171 652 -62 99 -74 109 -98 80z"
       id="path132"
       style="fill:#0000ff" />
    <path
       d="M4139 4228 c-39 -54 -92 -163 -118 -247 -62 -192 -66 -527 -10 -743 11 -41 15 -44 41 -25 15 12 15 19 3 78 -71 335 -21 692 125 904 53 77 14 108 -41 33z"
       id="path134"
       style="fill:#0000ff" />
    <path
       d="M4459 4034 c-66 -72 -156 -100 -263 -82 -56 9 -69 9 -77 -3 -15 -23 -5 -33 47 -47 107 -28 250 6 317 76 22 23 27 35 21 56 -8 33 -14 33 -45 0z"
       id="path136"
       style="fill:#0000ff" />
    <path
       d="M3877 3993 c-70 -239 -64 -567 18 -878 20 -76 90 -265 122 -328 19 -39 28 -48 46 -45 29 4 27 15 -21 124 -82 186 -131 367 -152 566 -19 181 -10 348 27 506 16 71 16 73 -3 92 -19 20 -20 20 -37 -37z"
       id="path138"
       style="fill:#0000ff" />
    <path
       d="M4466 3904 c-18 -13 -18 -19 -8 -96 30 -217 24 -360 -23 -563 -27 -113 -54 -189 -114 -319 -41 -88 -42 -90 -23 -108 19 -19 20 -18 54 54 34 70 61 130 78 173 4 11 12 31 18 45 15 32 46 154 63 245 26 135 11 560 -20 579 -3 2 -15 -2 -25 -10z"
       id="path140"
       style="fill:#0000ff" />
    <path
       d="M4105 3695 c-10 -60 13 -203 40 -257 23 -46 75 -88 109 -88 36 0 82 36 103 81 23 49 43 170 43 255 l0 56 -42 -9 c-53 -10 -149 -10 -205 0 l-42 7 -6 -45z m231 -110 c-9 -127 -43 -185 -98 -172 -38 10 -67 81 -75 178 l-6 79 93 0 93 0 -7 -85z"
       id="path142"
       style="fill:#00bfff" />
    <path
       d="M4122 3190 c-66 -24 -122 -58 -122 -73 0 -7 4 -18 9 -26 7 -11 19 -8 62 16 78 43 137 57 218 49 59 -5 70 -3 75 11 11 29 -12 38 -102 40 -65 2 -100 -2 -140 -17z"
       id="path144"
       style="fill:#0000ff" />
    <path
       d="M4501 3099 c-7 -20 -1 -32 35 -72 79 -89 124 -188 139 -310 7 -53 6 -56 -16 -62 -13 -3 -58 -1 -99 4 -65 9 -77 8 -87 -6 -7 -9 -13 -20 -13 -24 0 -14 108 -30 186 -27 l79 3 3 68 c6 147 -66 314 -180 416 l-38 33 -9 -23z"
       id="path146"
       style="fill:#0000ff" />
    <path
       d="M4085 3064 c-19 -14 -19 -15 -1 -67 45 -128 111 -235 175 -286 45 -36 57 -38 66 -12 4 14 -10 34 -53 77 -57 58 -97 128 -137 239 -23 64 -26 67 -50 49z"
       id="path148"
       style="fill:#0000ff" />
    <path
       d="M3859 2978 c-66 -120 -92 -216 -87 -313 l3 -60 80 -3 c102 -4 182 11 272 53 53 25 71 38 67 49 -10 26 -30 25 -113 -9 -93 -37 -221 -55 -246 -35 -24 20 -1 147 42 233 15 31 21 56 17 72 -9 35 -21 39 -35 13z"
       id="path150"
       style="fill:#0000ff" />
    <path
       d="M4500 2965 c0 -8 -4 -23 -9 -33 -5 -9 -34 -69 -64 -133 -30 -64 -74 -147 -96 -184 -42 -68 -50 -98 -30 -111 15 -9 30 8 86 101 53 88 111 202 142 281 18 46 18 54 5 73 -18 25 -34 28 -34 6z"
       id="path152"
       style="fill:#0000ff" />
    <path
       d="M4135 2606 c-17 -12 -15 -17 35 -90 29 -42 70 -96 91 -119 35 -39 39 -41 54 -25 16 15 14 21 -44 96 -33 45 -70 97 -82 116 -23 40 -27 42 -54 22z"
       id="path154"
       style="fill:#0000ff" />
    <path
       d="M3756 2477 c-9 -71 -29 -488 -23 -493 13 -13 203 110 302 195 81 71 175 173 175 191 0 9 -5 21 -12 28 -8 8 -27 -6 -75 -58 -96 -104 -291 -260 -325 -260 -14 0 0 342 15 356 6 6 75 -20 160 -61 71 -34 80 -36 94 -22 8 8 13 20 9 25 -10 17 -158 84 -278 127 l-37 14 -5 -42z"
       id="path156"
       style="fill:#0000ff" />
    <path
       d="M4670 2493 c-143 -52 -369 -174 -370 -200 0 -17 35 -34 46 -23 42 40 329 179 342 165 14 -14 29 -355 16 -355 -20 0 -124 74 -208 147 -54 48 -55 48 -80 30 -17 -13 -16 -16 24 -53 94 -88 313 -234 327 -220 8 7 -17 507 -26 521 -4 7 -29 3 -71 -12z"
       id="path158"
       style="fill:#0000ff" />
    <path
       d="M4193 2264 c-4 -12 7 -27 38 -52 80 -65 211 -200 204 -211 -9 -15 -361 -15 -371 0 -4 7 26 43 70 86 64 61 75 77 66 89 -7 7 -19 14 -26 14 -7 0 -67 -55 -134 -122 l-120 -123 165 -3 c91 -1 239 -1 330 0 l166 3 -118 120 c-195 197 -254 241 -270 199z"
       id="path160"
       style="fill:#0000ff" />
    <path
       d="M3545 7387 c-160 -69 -283 -142 -413 -246 -238 -191 -427 -441 -540 -713 -38 -90 -39 -108 -11 -108 15 0 25 11 37 43 28 71 97 208 142 282 191 312 491 570 814 700 70 28 81 37 84 59 2 14 0 26 -5 26 -4 0 -53 -20 -108 -43z"
       id="path162"
       style="fill:#4169e1" />
    <path
       d="M4844 7415 c-11 -27 2 -40 57 -59 120 -42 321 -160 454 -266 67 -54 190 -179 252 -255 104 -128 218 -324 275 -472 12 -32 22 -43 37 -43 28 0 27 17 -10 108 -99 250 -287 500 -528 706 -106 91 -323 215 -479 275 -45 18 -53 19 -58 6z"
       id="path164"
       style="fill:#4169e1" />
    <path
       d="M4966 7228 c-27 -130 -32 -143 -57 -142 -13 1 -34 5 -46 9 -17 5 -23 3 -23 -7 0 -7 29 -28 64 -45 l65 -32 18 82 c13 57 23 83 34 85 24 4 149 -77 149 -97 0 -9 -22 -39 -50 -66 -27 -27 -50 -55 -50 -61 0 -6 12 -20 28 -29 15 -10 61 -47 103 -82 43 -34 81 -63 85 -63 5 0 25 30 44 67 20 36 40 68 47 70 12 4 37 -18 96 -85 46 -52 42 -59 -45 -103 -32 -16 -58 -34 -58 -39 0 -6 24 -43 54 -83 29 -40 61 -86 70 -104 9 -17 21 -35 27 -39 6 -3 36 18 68 50 31 31 62 56 68 56 16 0 88 -143 81 -161 -5 -13 -35 -23 -130 -43 -16 -4 -28 -13 -28 -21 0 -21 37 -28 86 -16 24 6 64 16 89 22 30 8 45 17 45 28 1 21 -95 210 -125 247 l-22 28 -61 -63 c-34 -35 -66 -60 -72 -56 -5 3 -28 33 -51 66 -47 70 -46 73 42 121 33 18 59 38 59 46 0 28 -192 227 -212 220 -8 -4 -30 -36 -49 -72 -19 -36 -40 -66 -48 -66 -18 0 -121 88 -121 103 0 6 25 37 56 68 32 32 53 62 50 68 -13 20 -246 161 -267 161 -5 0 -11 -10 -13 -22z"
       id="path166"
       style="fill:#1e90ff" />
    <path
       d="M3399 7184 c-101 -60 -159 -101 -159 -112 1 -4 30 -29 65 -57 35 -27 64 -55 64 -61 1 -12 -113 -104 -129 -104 -5 0 -31 31 -56 70 -38 57 -50 68 -64 60 -32 -17 -200 -207 -200 -226 0 -5 33 -23 73 -40 39 -17 73 -38 75 -46 4 -19 -76 -128 -94 -128 -7 0 -40 23 -74 52 l-62 52 -17 -23 c-21 -27 -116 -216 -125 -248 -6 -19 -3 -23 26 -27 18 -2 63 -9 100 -15 70 -12 93 -8 102 14 7 19 4 20 -86 35 -69 11 -78 15 -78 34 0 23 69 148 85 153 6 1 35 -20 65 -47 30 -27 60 -50 66 -50 6 0 39 43 73 95 35 52 69 99 77 106 24 20 16 29 -61 65 -41 19 -75 39 -75 45 0 17 112 129 129 129 9 0 35 -30 59 -66 39 -59 45 -64 60 -51 41 35 151 124 178 144 l29 22 -64 59 c-39 35 -61 63 -57 70 9 15 138 92 153 92 7 0 22 -33 34 -72 12 -40 25 -77 29 -81 10 -11 120 44 120 60 0 16 -12 16 -44 2 -36 -17 -49 -2 -75 81 -12 39 -28 70 -35 70 -6 0 -55 -25 -107 -56z"
       id="path168"
       style="fill:#1e90ff" />
    <path
       d="M3592 7208 c-34 -34 6 -90 48 -68 35 19 20 80 -20 80 -9 0 -21 -5 -28 -12z"
       id="path170"
       style="fill:#87cefa" />
    <path
       d="M4844 7206 c-3 -8 -4 -25 -2 -38 2 -18 9 -23 32 -23 36 0 56 27 40 53 -14 22 -62 28 -70 8z"
       id="path172"
       style="fill:#87cefa" />
    <path
       d="M3405 7100 c-16 -18 -17 -23 -5 -45 23 -42 80 -28 80 20 0 45 -44 59 -75 25z"
       id="path174"
       style="fill:#87cefa" />
    <path
       d="M5037 7102 c-30 -33 -15 -72 28 -72 43 0 59 44 27 73 -24 22 -35 21 -55 -1z"
       id="path176"
       style="fill:#87cefa" />
    <path
       d="M3226 6984 c-19 -18 -20 -28 -6 -55 20 -37 80 -15 80 30 0 14 -29 41 -45 41 -7 0 -21 -7 -29 -16z"
       id="path178"
       style="fill:#87cefa" />
    <path
       d="M5205 6980 c-17 -18 -17 -21 -1 -45 28 -43 76 -27 76 26 0 41 -44 53 -75 19z"
       id="path180"
       style="fill:#87cefa" />
    <path
       d="M3585 6962 c-244 -135 -454 -352 -576 -592 -19 -38 -17 -50 10 -50 11 0 32 27 60 76 121 212 312 401 524 517 43 24 57 37 57 54 0 30 -14 29 -75 -5z"
       id="path182"
       style="fill:#191970" />
    <path
       d="M4840 6971 c0 -17 47 -61 64 -61 11 0 89 -53 171 -116 127 -97 271 -259 331 -369 45 -84 62 -105 86 -105 24 0 23 10 -8 67 -78 142 -160 248 -281 364 -102 98 -311 239 -353 239 -5 0 -10 -9 -10 -19z"
       id="path184"
       style="fill:#191970" />
    <path
       d="M3076 6831 c-23 -25 -13 -59 21 -67 36 -10 60 17 47 53 -12 34 -44 41 -68 14z"
       id="path186"
       style="fill:#87cefa" />
    <path
       d="M5365 6830 c-37 -41 24 -97 63 -58 17 17 15 42 -6 61 -24 22 -35 21 -57 -3z"
       id="path188"
       style="fill:#87cefa" />
    <path
       d="M3568 6781 c-150 -101 -266 -217 -360 -360 -47 -72 -58 -101 -38 -101 6 0 45 -17 88 -37 70 -35 84 -38 162 -38 73 0 93 4 142 28 80 39 139 108 166 194 33 105 26 168 -32 277 -14 27 -26 57 -26 67 0 30 -23 23 -102 -30z"
       id="path190"
       style="fill:#a9a9a9" />
    <path
       d="M4830 6810 c0 -11 -13 -45 -29 -77 -46 -92 -57 -151 -42 -220 25 -111 87 -195 179 -240 49 -24 69 -28 142 -28 79 0 91 3 175 42 50 24 89 48 87 55 -10 38 -130 196 -207 273 -87 87 -261 215 -291 215 -8 0 -14 -9 -14 -20z"
       id="path192"
       style="fill:#a9a9a9" />
    <path
       d="M5508 6679 c-36 -20 -13 -79 31 -79 21 0 42 32 35 54 -11 35 -34 44 -66 25z"
       id="path194"
       style="fill:#87cefa" />
    <path
       d="M2930 6665 c-16 -19 -9 -45 16 -62 19 -12 24 -11 45 6 21 16 22 22 11 45 -13 29 -52 36 -72 11z"
       id="path196"
       style="fill:#87cefa" />
    <path
       d="M2832 6488 c-39 -39 17 -100 58 -63 25 22 25 37 2 58 -22 20 -43 22 -60 5z"
       id="path198"
       style="fill:#87cefa" />
    <path
       d="M5606 6478 c-13 -19 -14 -25 -2 -43 26 -39 76 -26 76 19 0 46 -48 62 -74 24z"
       id="path200"
       style="fill:#87cefa" />
    <path
       d="M3360 5240 c-19 -5 -74 -29 -122 -53 l-86 -44 28 -49 c77 -136 230 -296 372 -392 56 -38 66 -39 78 -8 5 14 24 46 42 73 44 63 58 106 58 182 0 117 -75 230 -183 274 -47 20 -142 29 -187 17z"
       id="path202"
       style="fill:#a9a9a9" />
    <path
       d="M5010 5241 c-137 -29 -240 -156 -240 -296 0 -66 24 -132 72 -202 20 -29 38 -58 40 -65 6 -17 32 -3 113 58 99 73 222 202 292 306 37 54 65 99 62 101 -2 2 -47 24 -99 50 -100 49 -170 63 -240 48z"
       id="path204"
       style="fill:#a9a9a9" />
    <path
       d="M2564 5118 c8 -39 88 -209 145 -306 162 -278 437 -532 738 -681 112 -56 133 -61 133 -31 0 15 -24 32 -102 71 -283 141 -507 339 -684 604 -69 104 -174 307 -174 337 0 20 -21 38 -43 38 -17 0 -19 -5 -13 -32z"
       id="path206"
       style="fill:#4169e1" />
    <path
       d="M2680 5143 c0 -17 46 -123 53 -123 4 0 37 23 73 50 36 28 69 50 75 50 11 0 69 -117 69 -141 0 -12 -21 -25 -71 -45 -38 -15 -72 -31 -75 -36 -3 -5 5 -25 17 -46 40 -66 150 -212 160 -212 5 0 23 19 40 43 58 81 64 87 79 86 21 -1 111 -106 104 -121 -2 -7 -31 -33 -64 -58 -33 -24 -60 -49 -60 -55 0 -13 135 -129 196 -168 23 -16 47 -26 52 -23 5 3 17 27 26 53 34 92 38 103 47 103 16 0 139 -83 139 -94 0 -6 -20 -37 -45 -68 -25 -32 -45 -63 -45 -70 0 -11 47 -37 118 -65 7 -3 12 3 12 15 0 12 -11 24 -30 32 -16 7 -30 19 -30 28 0 8 18 39 41 68 46 61 46 82 -3 103 -18 8 -67 38 -110 67 -84 58 -86 57 -108 -11 -18 -56 -39 -95 -51 -95 -18 0 -139 100 -139 115 0 7 26 32 58 56 31 24 60 48 64 54 4 5 -27 43 -68 85 -41 41 -81 85 -90 98 -24 34 -40 27 -84 -38 -22 -33 -47 -60 -54 -60 -25 0 -110 118 -104 146 2 11 27 26 68 41 36 13 69 28 74 33 5 5 0 21 -12 37 -11 15 -36 61 -56 101 -36 71 -37 72 -76 72 -27 0 -54 -9 -81 -27 l-41 -27 -22 27 c-20 25 -46 36 -46 20z"
       id="path208"
       style="fill:#1e90ff" />
    <path
       d="M2990 5144 c0 -17 87 -164 136 -230 107 -146 257 -285 396 -367 71 -42 88 -45 88 -18 0 14 -25 37 -77 72 -206 137 -353 291 -456 479 -28 51 -41 66 -61 68 -14 2 -26 0 -26 -4z"
       id="path210"
       style="fill:#191970" />
    <path
       d="M5421 5076 c-96 -175 -251 -341 -430 -460 -72 -47 -101 -73 -99 -84 6 -29 45 -15 141 51 175 119 341 301 436 475 22 41 41 79 41 84 0 4 -11 8 -24 8 -20 0 -32 -14 -65 -74z"
       id="path212"
       style="fill:#191970" />
    <path
       d="M5535 5044 c-31 -59 -52 -110 -48 -114 4 -4 39 -15 76 -25 38 -10 71 -25 74 -32 6 -15 -53 -108 -89 -139 -20 -19 -21 -18 -79 46 l-59 65 -47 -55 c-26 -30 -68 -76 -95 -101 -26 -26 -48 -51 -48 -56 0 -5 29 -27 65 -48 76 -44 81 -50 63 -72 -24 -30 -129 -102 -141 -97 -7 2 -23 29 -35 59 -42 95 -39 94 -118 43 -38 -25 -88 -57 -111 -72 -24 -14 -43 -33 -43 -41 0 -12 33 -56 78 -104 18 -19 11 -34 -26 -50 -39 -18 -47 -57 -9 -46 23 8 93 43 115 58 9 7 -2 26 -43 72 -30 35 -55 68 -55 73 0 13 112 82 134 82 10 0 29 -28 51 -75 41 -85 35 -84 122 -18 83 63 163 135 163 147 -1 6 -32 30 -70 54 -39 24 -70 49 -70 56 0 13 101 116 114 116 9 0 16 -8 82 -85 28 -32 38 -37 51 -29 24 15 174 235 170 248 -2 6 -37 21 -77 33 -40 12 -77 28 -81 34 -10 17 53 133 75 137 9 2 46 -15 82 -39 35 -23 66 -40 69 -38 7 7 45 100 45 110 0 18 -25 8 -46 -18 l-22 -27 -41 27 c-27 18 -54 27 -80 27 l-39 0 -57 -106z"
       id="path214"
       style="fill:#1e90ff" />
    <path
       d="M5882 5108 c-32 -85 -122 -255 -178 -338 -178 -266 -408 -467 -683 -601 -81 -40 -100 -53 -101 -72 0 -21 34 -15 97 14 408 196 722 525 895 941 20 47 34 89 31 92 -4 3 -15 6 -25 6 -14 0 -25 -13 -36 -42z"
       id="path216"
       style="fill:#4169e1" />
    <path
       d="M5623 5052 c-24 -15 -20 -69 7 -77 48 -15 85 51 41 75 -23 12 -32 12 -48 2z"
       id="path218"
       style="fill:#87cefa" />
    <path
       d="M2820 5029 c-9 -16 -8 -26 5 -45 8 -13 21 -24 29 -24 17 0 46 32 46 51 0 40 -62 53 -80 18z"
       id="path220"
       style="fill:#87cefa" />
    <path
       d="M2948 4869 c-21 -12 -24 -49 -6 -67 20 -20 54 -14 68 13 12 22 11 27 -5 45 -20 22 -32 24 -57 9z"
       id="path222"
       style="fill:#87cefa" />
    <path
       d="M5500 4860 c-17 -17 -18 -24 -8 -45 12 -27 45 -34 66 -13 18 18 14 56 -7 68 -26 13 -28 13 -51 -10z"
       id="path224"
       style="fill:#87cefa" />
    <path
       d="M3082 4694 c-38 -26 -22 -74 25 -74 24 0 48 33 39 55 -10 26 -41 35 -64 19z"
       id="path226"
       style="fill:#87cefa" />
    <path
       d="M5372 4698 c-7 -7 -12 -21 -12 -33 0 -48 49 -60 76 -20 16 24 16 27 -1 45 -20 23 -45 26 -63 8z"
       id="path228"
       style="fill:#87cefa" />
    <path
       d="M3238 4559 c-36 -21 -16 -79 27 -79 43 0 59 44 27 73 -21 19 -30 20 -54 6z"
       id="path230"
       style="fill:#87cefa" />
    <path
       d="M5209 4551 c-21 -16 -22 -22 -11 -45 9 -19 19 -26 41 -26 43 0 59 60 22 80 -25 13 -25 13 -52 -9z"
       id="path232"
       style="fill:#87cefa" />
    <path
       d="M3412 4424 c-37 -26 -23 -74 23 -74 43 0 61 50 28 76 -23 17 -24 17 -51 -2z"
       id="path234"
       style="fill:#87cefa" />
    <path
       d="M5036 4418 c-13 -19 -14 -25 -2 -43 26 -39 76 -26 76 19 0 46 -48 62 -74 24z"
       id="path236"
       style="fill:#87cefa" />
  </g>
</svg>
