<?xml version="1.0" standalone="no"?>
<!DOCTYPE svg PUBLIC "-//W3C//DTD SVG 20010904//EN"
 "http://www.w3.org/TR/2001/REC-SVG-20010904/DTD/svg10.dtd">
<svg version="1.0" xmlns="http://www.w3.org/2000/svg"
 width="850.000000pt" height="850.000000pt" viewBox="0 0 850.000000 850.000000"
 preserveAspectRatio="xMidYMid meet">
<metadata>
Created by potrace 1.14, written by Peter Selinger 2001-2017
</metadata>
<g transform="translate(0.000000,850.000000) scale(0.100000,-0.100000)"
fill="#000000" stroke="none">
<path d="M190 8492 c0 -5 21 -16 48 -24 205 -67 610 -253 861 -395 324 -184
474 -286 1069 -731 397 -296 681 -492 894 -615 316 -183 618 -309 927 -387 40
-10 75 -21 78 -24 3 -2 -6 -36 -18 -75 l-23 -71 -185 0 c-355 1 -659 40 -891
117 -404 132 -843 443 -1410 997 -413 404 -615 550 -955 691 -116 48 -568 215
-582 215 -2 0 -3 -8 -3 -19 0 -13 9 -20 27 -24 25 -4 132 -42 358 -125 247
-91 418 -173 568 -274 181 -120 271 -198 612 -525 278 -268 434 -403 632 -552
409 -306 732 -447 1148 -501 169 -21 306 -30 480 -30 128 0 176 -3 168 -11 -6
-6 -39 -28 -73 -49 -62 -38 -64 -39 -98 -24 -19 8 -66 14 -106 14 -65 0 -79
-4 -161 -46 -65 -34 -105 -48 -147 -51 -56 -6 -58 -5 -107 40 -64 56 -201 116
-287 124 -87 8 -126 -8 -211 -88 -55 -53 -79 -69 -101 -69 -39 0 -139 68 -229
158 -40 39 -80 72 -88 72 -25 0 -119 -47 -145 -72 -14 -14 -43 -51 -64 -84
-46 -72 -124 -138 -143 -123 -19 16 -66 106 -103 200 -81 201 -156 278 -414
431 -228 135 -262 162 -476 378 -175 177 -215 212 -275 242 -38 20 -82 38 -97
42 -21 5 -42 29 -84 94 -70 107 -221 259 -328 331 -74 50 -242 151 -252 151
-2 0 -4 -8 -4 -18 0 -12 15 -25 42 -37 72 -32 271 -171 351 -245 174 -162 264
-339 297 -580 9 -67 46 -422 70 -665 28 -283 40 -322 156 -516 88 -147 89
-149 28 -114 -144 84 -346 225 -407 284 -39 37 -104 117 -148 183 -81 120
-153 192 -207 204 -39 10 -47 18 -83 87 -51 99 -80 147 -90 147 -15 0 -10 -26
15 -71 14 -24 40 -73 60 -109 31 -58 40 -67 82 -82 72 -26 112 -64 194 -186
110 -163 177 -227 390 -369 207 -138 563 -333 760 -417 25 -11 69 -30 99 -43
29 -14 128 -54 220 -90 91 -35 182 -72 201 -80 19 -8 44 -19 55 -23 11 -4 36
-15 55 -23 19 -9 60 -25 90 -37 147 -57 457 -207 550 -265 69 -44 102 -89 172
-235 38 -80 73 -153 78 -162 16 -29 12 -34 -32 -33 -30 0 -56 9 -83 27 -45 31
-125 58 -170 58 -40 0 -90 -32 -109 -69 -15 -28 -17 -29 -76 -24 -35 4 -78 1
-105 -7 -44 -12 -47 -12 -73 12 -42 40 -203 146 -367 243 -82 48 -211 124
-285 168 -246 144 -378 245 -530 404 -52 54 -135 141 -185 192 -49 51 -106
105 -128 119 -21 14 -54 50 -74 80 -47 69 -109 116 -263 195 -136 69 -255 119
-395 165 -130 42 -155 47 -155 28 0 -10 16 -19 43 -26 178 -45 416 -144 582
-241 79 -46 163 -114 154 -124 -3 -2 -28 4 -56 15 -28 10 -81 24 -119 31 -58
10 -79 20 -136 64 -93 71 -212 128 -342 164 -126 36 -126 36 -126 17 0 -8 20
-19 47 -26 237 -61 369 -133 542 -296 89 -84 175 -185 372 -439 182 -235 273
-337 514 -575 222 -220 273 -278 340 -388 39 -65 41 -81 7 -63 -47 25 -134 0
-194 -56 l-26 -25 -42 33 c-41 33 -45 34 -135 34 -63 0 -97 4 -108 14 -9 7
-40 16 -68 20 -47 6 -52 9 -64 41 -7 19 -18 62 -25 95 -19 99 -50 207 -72 249
-11 22 -68 90 -127 151 -111 115 -135 154 -172 270 -56 181 -99 264 -161 314
-17 13 -71 42 -121 63 -205 87 -225 104 -304 263 -30 61 -66 126 -80 145 -34
46 -105 120 -115 120 -18 0 -6 -28 23 -56 40 -38 105 -139 155 -239 26 -54 58
-99 99 -140 53 -53 72 -65 172 -103 173 -67 227 -127 282 -312 12 -41 26 -85
32 -98 15 -39 11 -42 -34 -23 -23 10 -76 24 -117 32 -91 15 -117 26 -198 84
-73 52 -142 75 -224 75 -57 0 -146 33 -163 60 -9 15 -35 12 -35 -4 0 -8 25
-28 56 -46 47 -26 74 -33 151 -41 100 -9 161 -32 232 -88 55 -43 78 -53 176
-72 125 -24 178 -50 225 -113 21 -28 70 -82 110 -121 126 -123 132 -136 206
-485 5 -21 -1 -30 -35 -52 l-40 -26 -48 25 c-38 19 -59 24 -98 20 -27 -2 -57
-8 -66 -11 -12 -5 -26 5 -50 39 -18 25 -56 60 -83 79 -71 46 -130 60 -218 52
-40 -3 -89 -2 -108 3 -150 42 -168 45 -209 33 -22 -7 -53 -24 -69 -37 -23 -20
-41 -25 -81 -25 -37 0 -51 -4 -51 -14 0 -10 17 -15 58 -18 52 -4 59 -2 82 22
54 58 95 63 215 24 70 -22 90 -24 162 -18 95 7 159 -9 219 -57 69 -55 107
-135 85 -178 -9 -16 -6 -23 20 -43 16 -14 36 -42 44 -64 13 -38 29 -52 104
-91 45 -23 53 -45 14 -37 -22 4 -35 -1 -62 -25 -19 -17 -44 -31 -55 -31 -10 0
-27 -7 -37 -16 -15 -13 -24 -14 -49 -6 -17 6 -37 9 -45 6 -8 -4 -29 6 -47 21
-25 21 -39 26 -64 22 -42 -7 -121 33 -146 73 -16 27 -23 31 -61 29 -23 -1 -53
3 -67 8 -14 6 -37 7 -53 2 -24 -7 -36 -3 -68 23 -21 17 -39 35 -39 39 0 18
-46 49 -73 49 -17 0 -42 11 -59 26 -32 26 -73 29 -73 5 0 -8 11 -15 24 -16 13
-1 31 -12 41 -25 13 -17 24 -22 45 -18 22 5 33 0 52 -21 68 -76 116 -112 134
-100 19 12 66 11 74 -1 4 -7 24 -8 51 -4 43 6 44 6 59 -29 11 -27 22 -36 48
-41 19 -4 42 -15 52 -26 13 -15 22 -17 36 -10 30 17 50 11 80 -21 27 -29 32
-31 54 -19 20 11 28 10 50 -4 26 -17 28 -17 49 3 12 12 33 21 47 21 14 0 36
13 52 30 29 31 51 38 62 20 10 -16 33 -12 55 10 27 27 62 25 90 -5 15 -16 30
-23 44 -20 14 3 34 -6 58 -28 l37 -32 -41 -60 c-22 -33 -69 -95 -104 -138 -87
-107 -87 -106 30 -205 20 -17 25 -28 20 -45 -12 -39 -96 -150 -167 -220 -56
-56 -73 -68 -90 -62 -12 4 -35 9 -52 11 -16 2 -41 6 -55 10 -20 4 -33 -2 -58
-25 -18 -17 -43 -31 -56 -31 -14 0 -28 -4 -31 -10 -3 -5 -30 -10 -60 -10 -43
0 -60 -5 -84 -25 -29 -25 -31 -26 -62 -10 -22 12 -45 15 -73 11 -74 -10 -139
0 -162 25 -9 10 -25 19 -34 19 -10 0 -30 16 -44 35 -24 30 -33 35 -70 35 -27
0 -48 6 -56 15 -16 19 -50 19 -50 0 0 -8 6 -15 14 -15 8 0 23 -12 34 -27 18
-25 20 -25 42 -10 29 20 53 9 75 -33 11 -21 23 -30 39 -30 15 0 32 -11 44 -26
15 -22 22 -25 38 -16 15 8 26 6 51 -9 28 -17 33 -18 46 -4 24 24 80 19 111
-10 32 -30 56 -32 56 -7 0 31 32 50 90 55 99 9 157 28 169 55 9 18 16 22 29
16 9 -4 32 -8 51 -8 34 -1 52 -18 32 -31 -6 -3 -11 -19 -11 -34 0 -31 58 -91
118 -123 18 -9 32 -24 32 -33 0 -29 -122 -145 -220 -210 -123 -81 -151 -111
-157 -168 -6 -50 24 -128 73 -192 63 -82 223 -172 352 -197 31 -6 61 -14 66
-19 12 -11 -26 -169 -41 -169 -3 0 -28 25 -56 55 -27 30 -58 55 -67 55 -9 0
-27 12 -41 26 -21 23 -30 25 -71 21 -33 -3 -52 0 -59 9 -6 8 -27 14 -46 14
-20 0 -43 8 -55 20 -31 29 -70 25 -108 -10 -23 -21 -42 -30 -66 -30 -27 0 -37
-5 -46 -25 -13 -28 -19 -30 -37 -12 -11 10 -17 7 -33 -14 -19 -25 -22 -26 -52
-14 -39 17 -106 79 -106 98 0 34 -98 97 -132 84 -7 -2 -25 2 -41 10 -18 9 -33
11 -45 4 -12 -6 -23 -5 -37 5 -10 8 -22 14 -27 14 -15 0 -8 -25 11 -42 10 -8
21 -22 23 -29 4 -11 9 -10 25 3 26 24 33 23 60 -9 l23 -28 6 23 c4 12 14 22
24 22 25 0 90 -63 90 -87 0 -11 11 -25 25 -31 13 -6 27 -23 31 -37 5 -19 13
-25 34 -25 15 0 39 -9 53 -20 33 -26 47 -25 47 4 0 30 16 42 35 26 18 -15 33
-5 45 26 10 24 34 32 45 14 11 -18 23 -11 45 25 30 48 63 55 100 20 23 -22 34
-26 58 -20 25 5 31 3 37 -14 8 -25 14 -26 49 -7 34 17 61 11 85 -20 10 -13 28
-24 40 -24 13 0 26 -11 36 -30 9 -16 22 -30 29 -30 12 0 23 -19 40 -72 8 -25
25 -22 36 6 13 34 51 57 90 54 29 -3 35 1 40 22 5 23 11 25 67 28 54 3 63 0
77 -20 9 -12 16 -33 16 -46 0 -39 18 -62 49 -62 16 0 39 -8 52 -19 21 -17 25
-17 46 -4 15 10 36 14 58 10 19 -3 37 -1 40 4 10 15 56 11 110 -10 28 -10 92
-29 143 -41 l92 -22 0 -77 c0 -79 -16 -121 -46 -121 -22 0 -227 -105 -261
-134 -24 -20 -42 -26 -79 -26 -27 0 -84 -11 -127 -25 -102 -33 -150 -32 -266
7 -87 29 -107 32 -211 32 -106 -1 -124 -4 -220 -37 -132 -46 -325 -68 -612
-70 -141 -1 -198 -5 -198 -13 0 -27 256 -28 525 -3 130 12 184 23 285 56 86
29 233 44 318 33 31 -4 88 -19 127 -34 84 -31 149 -33 231 -7 86 27 164 44
171 37 4 -4 7 -26 8 -50 1 -58 40 -117 98 -145 29 -14 103 -30 213 -46 260
-38 295 -49 420 -126 38 -23 91 -55 119 -70 l49 -28 -29 -12 c-45 -18 -194
-23 -286 -9 -73 10 -161 31 -429 101 -231 60 -355 73 -607 65 -114 -3 -242
-10 -283 -15 -156 -19 -247 -31 -315 -41 -233 -34 -474 -60 -552 -60 -57 0
-63 -2 -63 -21 0 -18 4 -20 38 -15 20 3 73 8 117 11 93 8 224 23 535 64 330
43 428 51 596 51 227 0 370 -24 724 -120 95 -26 192 -45 301 -60 145 -20 274
18 319 93 21 34 51 44 205 68 103 16 838 5 925 -14 159 -35 317 -89 475 -162
50 -23 100 -39 135 -42 106 -9 112 -13 40 -35 -290 -86 -565 -146 -865 -188
-44 -6 -107 -15 -140 -20 -33 -5 -94 -14 -135 -19 -326 -46 -682 -120 -965
-201 -16 -5 -58 -16 -92 -26 -35 -9 -63 -20 -63 -25 0 -15 68 -10 128 10 31
11 122 36 202 56 80 20 161 40 180 45 47 12 113 26 180 39 30 6 78 15 105 20
28 5 80 15 118 20 37 6 95 15 130 21 34 5 145 21 247 35 102 14 223 33 270 41
47 8 108 19 135 24 169 29 615 143 667 171 10 6 78 19 151 29 171 25 201 34
502 145 99 36 218 80 265 97 190 70 200 160 31 261 -44 27 -84 53 -87 59 -7
11 57 9 331 -8 l90 -6 245 298 c275 335 410 501 434 535 24 34 42 12 21 -27
-8 -16 -15 -34 -15 -41 0 -7 -6 -16 -14 -20 -29 -17 -38 -51 -21 -83 9 -17 13
-35 10 -40 -3 -5 1 -26 10 -46 21 -51 20 -54 -26 -54 -32 0 -48 -7 -72 -30
-18 -17 -42 -40 -55 -52 -28 -26 -28 -48 -1 -82 12 -15 20 -29 18 -31 -2 -1
-27 -20 -55 -42 -48 -36 -409 -398 -452 -453 -11 -14 -46 -75 -77 -135 -111
-213 -159 -255 -356 -310 -258 -74 -310 -94 -444 -168 -94 -53 -415 -268 -415
-279 0 -28 66 4 218 105 253 170 361 221 590 282 244 64 329 128 431 325 30
58 68 125 85 150 48 71 435 452 487 479 44 23 46 23 72 6 l27 -18 -50 -53
c-69 -73 -96 -138 -130 -307 -49 -247 -83 -304 -217 -368 -117 -56 -144 -78
-203 -166 -40 -59 -230 -422 -230 -439 0 -2 10 -4 23 -4 19 1 35 27 105 170
86 174 145 274 191 324 14 15 62 45 107 66 169 78 220 157 265 407 28 160 50
212 116 284 62 66 84 81 128 86 102 10 156 20 167 31 7 7 27 12 44 12 19 0 44
10 61 23 15 12 41 29 58 36 16 7 35 21 43 32 7 10 19 19 25 19 7 0 30 19 52
43 l40 42 6 -45 c9 -61 2 -116 -32 -239 -34 -123 -36 -171 -10 -273 23 -87 59
-162 134 -280 79 -122 84 -141 97 -333 12 -179 30 -377 35 -392 2 -7 13 -13
24 -13 18 0 20 5 16 43 -10 96 -26 270 -35 395 -12 151 -30 212 -94 312 -154
241 -177 350 -116 567 33 118 38 194 15 268 -8 27 -13 50 -12 52 11 10 133 41
139 35 9 -9 38 -153 58 -282 44 -282 165 -452 535 -753 88 -72 222 -192 299
-266 134 -132 326 -345 326 -362 0 -5 9 -9 20 -9 11 0 20 3 20 8 0 8 -137 168
-250 291 -86 93 -231 225 -406 367 -187 154 -240 203 -314 291 -116 139 -168
251 -196 427 -20 128 -32 192 -51 263 -13 51 -14 68 -4 92 11 24 10 35 -2 63
-8 18 -18 44 -21 58 -5 22 -29 50 -118 138 -16 15 -35 48 -44 74 -21 63 -92
157 -143 188 -22 14 -39 29 -37 35 1 5 20 13 42 16 22 4 66 16 98 28 41 14 64
18 76 11 56 -30 163 -198 210 -330 6 -19 15 -44 19 -55 24 -67 118 -242 159
-296 121 -159 311 -309 587 -465 189 -106 257 -150 353 -228 64 -52 82 -63 82
-47 0 33 -190 175 -360 268 -281 154 -420 253 -551 390 -123 129 -165 198
-249 409 -71 178 -116 260 -178 324 -29 30 -50 60 -48 67 11 28 56 25 135 -7
229 -92 394 -238 542 -479 128 -209 261 -322 551 -467 149 -75 158 -78 158
-54 0 11 -6 20 -12 20 -22 0 -279 134 -358 186 -107 70 -212 174 -277 273
-121 186 -146 221 -203 284 -74 80 -182 163 -280 214 -71 37 -95 48 -163 73
l-28 10 23 29 c29 38 39 38 89 1 22 -16 77 -41 121 -55 115 -37 162 -61 219
-113 60 -53 155 -174 231 -292 89 -139 140 -173 313 -210 98 -21 218 -53 263
-71 33 -13 64 -11 60 3 -5 13 -172 63 -358 108 -146 35 -158 45 -280 225 -159
235 -245 310 -429 377 -57 21 -119 48 -137 60 -32 22 -32 23 -31 98 2 75 2 76
-55 172 -32 53 -58 101 -58 107 0 31 143 -13 205 -62 19 -15 74 -80 121 -143
140 -188 226 -244 579 -383 223 -88 320 -133 390 -181 51 -35 55 -36 55 -12
-1 38 -177 124 -500 244 -110 42 -277 129 -345 181 -43 33 -93 85 -132 138
-140 188 -170 212 -310 250 -43 11 -83 26 -90 32 -27 28 -54 169 -34 181 4 3
44 -6 87 -19 157 -50 217 -63 441 -95 39 -5 87 -10 106 -10 76 0 136 -45 159
-121 15 -51 -1 -103 -47 -158 -44 -53 -49 -73 -31 -109 15 -29 44 -47 121 -75
44 -16 342 -139 390 -161 63 -29 159 -66 172 -66 7 0 13 7 13 15 0 8 -6 15
-13 15 -8 0 -27 6 -43 14 -16 8 -103 44 -194 81 -91 37 -183 75 -205 85 -22
10 -76 32 -120 50 -44 17 -84 35 -89 40 -19 19 -7 61 27 99 83 92 68 221 -33
289 -40 27 -35 26 -220 47 -80 9 -178 23 -218 31 -65 13 -261 70 -269 77 -1 2
18 18 44 36 44 31 48 32 87 21 186 -53 238 -62 381 -69 83 -5 159 -12 170 -17
11 -4 53 -30 94 -56 61 -40 82 -48 120 -48 99 0 160 -33 182 -97 15 -48 -1
-84 -73 -160 -68 -72 -75 -104 -30 -153 27 -31 50 -40 278 -121 127 -44 124
-44 124 -24 0 8 -15 18 -32 24 -18 5 -71 23 -118 41 -47 17 -110 40 -140 51
-72 25 -104 50 -108 83 -3 22 8 40 56 89 70 74 89 120 72 175 -25 76 -102 122
-208 122 -36 0 -57 8 -105 41 -91 62 -113 69 -284 79 -87 6 -175 15 -198 21
-40 10 -62 16 -147 40 -48 13 -56 24 -39 57 5 9 13 30 17 46 12 40 46 50 79
24 17 -13 34 -18 50 -14 14 4 43 -2 70 -14 26 -11 61 -20 79 -20 21 0 40 -8
52 -21 15 -16 27 -20 56 -16 24 3 41 0 48 -9 7 -7 43 -23 81 -35 67 -21 78
-21 176 -3 25 5 49 -3 110 -34 43 -21 89 -43 103 -47 14 -4 37 -16 52 -26 14
-11 43 -19 63 -19 45 0 105 -44 105 -78 0 -48 67 -132 105 -132 14 0 2 31 -14
39 -25 14 -61 76 -61 106 0 37 -113 117 -141 99 -5 -3 -24 3 -42 14 -17 11
-43 23 -57 27 -14 4 -62 25 -108 47 -67 33 -88 39 -115 33 -91 -20 -204 -1
-250 43 -21 20 -30 23 -39 14 -18 -18 -46 -14 -60 8 -9 14 -24 20 -51 20 -21
0 -54 7 -74 15 -19 8 -49 15 -66 15 -16 0 -45 9 -64 21 -18 12 -41 18 -50 15
-20 -8 -43 11 -43 35 0 24 -31 79 -93 164 -103 141 -157 223 -157 239 0 22 35
38 78 34 32 -3 41 -10 70 -53 32 -50 32 -50 90 -51 55 -2 58 0 99 42 46 47 82
56 124 32 17 -10 23 -10 26 0 3 6 18 12 33 12 16 0 32 5 35 10 3 5 16 10 28
10 12 0 40 7 62 15 22 8 55 14 73 15 29 0 34 -5 49 -41 12 -30 25 -45 50 -55
19 -8 39 -11 46 -7 7 4 50 10 97 13 l85 5 5 35 c8 50 18 61 44 54 14 -3 27 1
35 10 16 19 110 22 178 4 35 -8 50 -8 64 0 27 17 37 15 45 -10 10 -36 22 -46
49 -40 28 5 34 32 7 32 -10 0 -26 14 -36 31 -16 26 -22 30 -45 24 -14 -4 -44
-6 -66 -5 -79 6 -191 3 -230 -6 -34 -8 -43 -16 -64 -56 l-23 -48 -53 0 c-30 0
-66 -5 -81 -10 -36 -14 -68 7 -84 55 -17 50 -35 57 -111 39 -35 -8 -77 -18
-94 -21 -16 -3 -35 -10 -42 -15 -7 -5 -44 -10 -84 -9 -77 1 -115 -13 -146 -52
-13 -17 -32 -25 -66 -29 -47 -6 -48 -5 -78 38 -16 24 -38 48 -49 54 -28 15
-93 12 -116 -5 -10 -8 -22 -15 -26 -15 -7 0 -68 124 -68 139 0 4 15 21 33 39
26 25 41 32 73 32 31 0 56 10 101 39 83 54 176 69 310 52 97 -13 108 -11 115
24 4 24 96 72 154 81 31 4 54 1 89 -15 26 -12 51 -21 55 -21 4 0 36 19 71 43
99 67 113 71 230 72 99 0 109 2 145 27 34 24 44 26 74 19 19 -5 56 -12 83 -16
37 -5 47 -3 47 8 0 10 -20 18 -63 26 -92 16 -124 14 -157 -10 -25 -19 -44 -22
-137 -24 -95 -1 -114 -4 -159 -28 -28 -14 -65 -37 -82 -51 -34 -30 -59 -32
-120 -11 -74 26 -178 -4 -244 -69 -33 -33 -34 -33 -107 -27 -41 4 -113 3 -159
-1 -74 -6 -93 -12 -151 -48 -68 -41 -108 -50 -116 -27 -2 6 -6 34 -8 61 -4 44
-2 53 24 78 27 27 31 28 92 22 64 -6 65 -6 103 30 35 33 42 36 100 35 57 -1
67 2 124 41 65 44 58 43 165 24 22 -4 50 3 98 25 70 32 124 39 158 20 52 -27
196 -8 397 53 l104 32 63 -17 c77 -21 75 -21 75 -2 0 8 -12 17 -27 21 -16 3
-38 10 -51 15 -34 13 -81 11 -132 -7 -48 -18 -63 -22 -185 -53 -124 -32 -164
-35 -225 -17 -76 23 -102 20 -183 -15 -66 -29 -75 -31 -115 -20 -66 17 -85 14
-148 -29 -54 -37 -65 -40 -124 -40 -62 0 -68 -2 -104 -36 -37 -35 -40 -36 -95
-29 -50 6 -60 4 -95 -20 -21 -14 -39 -25 -40 -23 -42 73 -56 109 -44 113 7 2
39 11 71 20 31 8 82 22 112 30 30 8 79 21 109 29 62 17 107 38 125 60 10 11
31 16 75 16 69 0 206 21 281 43 104 31 214 49 329 55 l118 7 39 44 38 45 34
-19 c33 -18 36 -18 105 0 67 18 73 18 90 2 21 -19 42 -22 42 -6 0 12 -29 45
-156 179 -50 52 -101 113 -114 135 -41 70 -72 96 -176 145 -71 33 -123 68
-179 116 -148 128 -168 152 -195 234 -17 50 -37 87 -61 112 -24 26 -32 41 -25
48 21 21 60 10 98 -27 24 -23 55 -42 81 -48 36 -9 48 -20 90 -80 59 -87 119
-145 149 -145 13 0 50 14 83 30 33 17 67 30 76 30 9 0 46 -13 82 -30 37 -16
83 -30 103 -30 50 0 144 31 144 47 0 16 -14 16 -65 -2 -60 -22 -105 -18 -178
15 -37 17 -76 30 -87 30 -11 0 -47 -13 -80 -30 -33 -16 -68 -30 -78 -30 -23 0
-80 59 -125 132 -39 61 -64 83 -112 94 -16 3 -46 22 -67 41 -20 19 -51 38 -70
42 l-33 7 45 24 c34 18 61 24 110 24 69 0 103 -14 297 -118 98 -52 186 -72
280 -62 104 11 163 26 163 42 0 17 9 17 -91 -2 -150 -29 -244 -8 -419 91 -128
72 -209 94 -280 76 -37 -10 -58 -10 -78 -3 -92 36 -249 70 -467 101 -169 24
-499 33 -860 23 -223 -7 -429 -7 -540 -2 -228 11 -325 20 -324 28 0 4 29 30
64 57 85 66 90 84 36 139 l-42 43 193 6 c192 7 387 17 713 37 943 57 1515 54
1940 -10 138 -21 155 -22 155 -8 0 16 -129 37 -435 70 -157 17 -1071 17 -1315
0 -164 -11 -275 -18 -680 -42 -91 -5 -265 -13 -387 -16 l-222 -7 -53 40 c-46
35 -57 50 -81 114 -15 41 -65 157 -111 259 -46 102 -81 188 -80 191 2 4 57
-19 121 -51 65 -32 147 -70 183 -85 36 -15 89 -38 118 -51 29 -13 57 -24 62
-24 6 0 18 -4 28 -10 59 -33 385 -126 527 -150 39 -7 93 -16 120 -22 28 -5
154 -12 280 -15 265 -6 487 6 870 47 453 49 701 64 903 54 140 -6 152 -5 152
11 0 16 -23 17 -322 12 -178 -3 -368 -10 -423 -16 -55 -5 -146 -14 -202 -20
-712 -75 -1018 -80 -1348 -25 -286 48 -575 147 -930 319 l-170 83 -100 229
c-155 357 -191 430 -220 449 -33 22 -145 30 -185 14 -45 -19 -85 -70 -132
-170 -24 -49 -47 -89 -51 -90 -13 0 -174 131 -442 361 -267 229 -426 351 -625
484 -321 212 -632 374 -630 328 1 -5 58 -36 128 -70 152 -74 305 -162 464
-265 211 -138 335 -235 745 -585 111 -94 236 -197 278 -229 41 -31 75 -58 75
-60 0 -2 -29 -83 -65 -179 -35 -96 -67 -186 -71 -200 -3 -14 -11 -28 -16 -31
-5 -3 -37 13 -71 37 -71 49 -356 268 -463 356 -705 575 -1029 805 -1623 1150
-133 77 -188 99 -179 72 2 -5 41 -31 88 -56 291 -157 749 -453 1066 -689 83
-62 304 -236 491 -388 187 -151 412 -327 499 -392 87 -64 163 -121 168 -125 9
-9 -10 -84 -40 -157 l-13 -32 -108 39 c-146 52 -190 72 -388 172 -298 151
-483 269 -1085 699 -203 144 -253 179 -400 277 -266 177 -564 340 -810 443
-154 64 -148 62 -245 98 -44 17 -129 50 -190 73 -114 43 -175 58 -175 42 0 -5
17 -15 38 -22 20 -7 46 -16 57 -21 11 -4 70 -27 130 -50 703 -267 901 -379
1750 -986 422 -301 726 -491 1000 -623 99 -48 352 -151 370 -151 6 0 19 -6 29
-13 18 -13 17 -20 -23 -140 -24 -70 -46 -129 -49 -131 -20 -11 -436 118 -582
180 -94 41 -393 194 -475 244 -244 149 -440 286 -865 605 -517 388 -679 499
-999 685 -119 69 -461 242 -566 286 -286 122 -405 162 -405 136z m4466 -963
c7 -12 44 -147 44 -163 0 -9 -189 -1 -198 9 -8 7 47 106 76 138 26 28 65 36
78 16z m105 0 c17 -9 69 -106 69 -129 0 -9 -54 -30 -75 -30 -8 0 -19 29 -28
68 -9 37 -19 75 -22 85 -6 13 -2 17 15 17 12 0 30 -5 41 -11z m109 -209 c11
-21 20 -41 20 -44 0 -9 -86 -56 -103 -56 -10 0 -19 15 -25 47 -12 52 -9 63 16
63 9 1 28 7 42 15 14 8 26 14 27 15 2 0 12 -18 23 -40z m-166 -10 c4 -5 11
-29 13 -54 l6 -46 -74 0 c-111 0 -209 11 -209 24 0 6 9 30 19 52 l19 42 109
-5 c59 -3 112 -9 117 -13z m222 -116 c8 -20 14 -37 12 -39 -26 -23 -134 -83
-139 -78 -4 5 -10 26 -13 48 l-7 40 58 31 c32 17 62 32 66 33 4 0 15 -15 23
-35z m-4156 -46 c35 -21 125 -102 250 -229 209 -211 243 -238 420 -344 332
-198 380 -249 490 -517 32 -79 95 -174 257 -387 50 -67 133 -192 183 -279 90
-156 132 -217 261 -382 72 -92 163 -230 156 -236 -2 -2 -64 27 -138 65 -74 39
-181 91 -239 116 -58 25 -118 52 -135 60 -16 7 -122 50 -235 94 -113 45 -214
85 -225 90 -59 26 -95 42 -144 61 -153 60 -510 234 -608 296 -12 7 -35 40 -52
73 -17 33 -51 95 -77 137 -56 92 -97 183 -112 244 -9 43 -20 125 -43 355 -5
55 -14 138 -19 185 -5 47 -14 132 -20 190 -20 190 -40 313 -64 383 l-23 69 31
-6 c17 -4 56 -21 86 -38z m3879 17 c46 -3 85 -6 86 -7 1 -2 5 -23 9 -47 l7
-44 -172 6 c-94 3 -176 10 -181 15 -6 6 -5 25 3 52 l13 42 75 -6 c42 -4 114
-9 160 -11z m338 -105 l22 -50 -32 -24 c-18 -13 -56 -36 -86 -51 -52 -26 -55
-26 -68 -9 -7 10 -13 37 -13 61 0 36 4 45 23 53 12 5 42 23 67 39 25 17 50 31
55 31 6 0 20 -23 32 -50z m-236 -39 c8 -7 29 -103 24 -111 -4 -6 -338 7 -402
16 -24 3 -43 9 -43 14 0 4 9 29 19 54 l20 45 188 -6 c103 -3 191 -8 194 -12z
m298 -103 c13 -31 15 -47 8 -56 -12 -15 -185 -132 -196 -132 -8 0 -36 129 -30
134 2 1 23 10 45 19 23 9 63 30 90 46 26 17 52 31 56 31 5 0 17 -19 27 -42z
m-479 -48 c112 -6 207 -13 211 -18 13 -12 28 -116 19 -126 -12 -12 -479 -1
-511 12 l-27 11 22 58 c28 77 33 84 59 78 12 -3 114 -9 227 -15z m579 -192 c1
-30 -143 -123 -228 -148 -29 -8 -30 -7 -40 38 -23 111 -23 112 10 130 17 9 68
43 113 75 l81 57 32 -67 c17 -38 32 -76 32 -85z m-594 3 l260 -6 17 -80 c9
-44 13 -84 8 -89 -30 -30 -586 -4 -642 30 -3 2 2 28 12 57 39 111 39 110 63
102 12 -4 139 -10 282 -14z m658 -139 c16 -40 27 -78 24 -86 -7 -17 -260 -146
-286 -146 -15 0 -21 13 -30 63 -7 34 -15 71 -17 83 -5 18 3 24 55 43 34 12 94
44 134 71 39 27 76 48 82 46 5 -1 22 -35 38 -74z m-888 -74 c50 -7 190 -13
312 -13 l222 0 16 -73 c9 -40 14 -80 11 -89 -6 -15 -36 -16 -285 -10 -238 6
-468 21 -479 32 -3 3 45 153 54 167 3 5 18 7 32 4 15 -3 68 -11 117 -18z m961
-95 c34 -82 33 -84 -53 -130 -43 -24 -111 -61 -150 -83 -40 -22 -77 -40 -82
-40 -9 0 -51 112 -51 136 0 6 12 15 27 19 35 8 251 114 259 126 12 20 35 7 50
-28z m-976 -123 c69 -5 231 -10 362 -10 l236 0 22 -66 c11 -37 18 -69 15 -73
-12 -12 -371 -13 -560 -1 -174 10 -314 25 -323 35 -2 2 6 34 18 70 l22 67 42
-6 c22 -4 97 -11 166 -16z m1157 -85 c35 -31 63 -62 63 -68 0 -11 -130 -118
-221 -183 l-36 -25 -50 48 c-27 27 -80 68 -116 92 -37 24 -67 47 -67 51 0 5
69 47 152 94 l153 85 29 -19 c17 -10 58 -44 93 -75z m-3028 -36 c25 -28 68
-67 96 -87 l50 -37 -200 -6 c-110 -3 -202 -4 -204 -3 -6 5 57 98 81 121 27 24
97 62 117 63 7 0 34 -23 60 -51z m680 -49 c53 -21 131 -58 131 -63 0 -1 -66
-2 -147 -2 l-148 0 -89 -37 c-91 -38 -126 -46 -126 -28 0 6 3 10 8 10 4 0 39
31 78 69 40 38 82 72 95 74 44 10 143 -2 198 -23z m1036 -6 c84 -11 230 -17
483 -20 l362 -3 58 -39 c93 -64 162 -122 162 -136 0 -8 -8 -18 -17 -22 -29
-13 -594 -16 -867 -5 -289 12 -401 25 -468 53 -54 23 -61 43 -25 75 28 27 168
113 182 113 5 0 64 -7 130 -16z m-379 -35 c24 -6 44 -13 44 -15 0 -3 -12 -22
-26 -44 -21 -31 -33 -40 -54 -40 -18 0 -47 -15 -80 -42 -103 -85 -119 -93
-178 -93 -54 0 -57 1 -83 40 -49 73 -47 79 23 95 35 7 92 29 128 48 67 36 132
60 163 61 10 1 38 -4 63 -10z m-535 -62 c57 -12 89 -30 89 -51 0 -32 54 -119
113 -183 81 -89 106 -136 153 -294 20 -68 45 -142 56 -164 12 -22 65 -83 119
-135 76 -74 104 -110 128 -160 41 -88 62 -117 105 -146 l36 -25 0 -147 c-1
-141 -2 -148 -25 -174 -13 -16 -28 -28 -32 -27 -4 0 -21 19 -38 41 -16 23 -46
50 -65 60 -73 40 -196 0 -224 -74 -7 -18 -18 -28 -31 -28 -21 0 -120 62 -143
89 -17 20 -43 77 -53 116 -4 17 -21 75 -37 130 -17 55 -46 152 -65 215 -42
141 -65 187 -113 230 -61 53 -223 117 -419 165 -257 62 -321 110 -354 263 -15
74 -43 124 -92 166 -41 35 -155 96 -181 96 -7 0 -4 6 7 13 13 7 87 13 211 15
188 4 191 4 265 -24 90 -34 139 -35 204 -5 27 13 68 29 90 36 51 16 223 17
296 2z m-1094 -58 c154 -62 229 -120 250 -196 6 -21 19 -64 28 -97 20 -70 77
-137 145 -170 25 -13 108 -40 185 -60 187 -50 243 -68 355 -119 107 -48 136
-87 183 -248 14 -46 49 -163 77 -259 56 -188 75 -230 121 -257 36 -21 37 -33
4 -33 -31 0 -49 -38 -42 -92 3 -20 0 -41 -5 -46 -17 -17 -81 0 -130 35 -26 18
-52 33 -56 33 -5 0 -17 8 -26 19 -16 18 -46 30 -141 61 -56 17 -139 84 -169
133 -13 23 -37 56 -53 72 -17 17 -44 59 -62 94 -40 80 -70 124 -187 276 -106
139 -179 250 -253 387 -47 85 -89 145 -274 386 l-41 54 25 19 c29 22 30 22 66
8z m3324 2 c120 -21 494 -30 844 -21 540 15 895 -9 1171 -80 64 -17 117 -30
120 -30 31 0 -183 -185 -251 -217 -88 -41 -185 -25 -289 46 -25 18 -81 50
-123 72 -101 51 -157 53 -249 7 -69 -34 -67 -34 -142 13 -90 58 -210 33 -361
-76 -118 -85 -204 -103 -331 -70 -94 24 -177 17 -225 -19 -48 -37 -66 -29
-138 61 -69 86 -84 99 -127 110 l-35 9 -3 75 c-3 73 -3 74 30 102 37 31 35 30
109 18z m-1658 -39 c38 -26 115 -48 192 -54 l30 -3 3 -482 c1 -266 0 -483 -3
-483 -26 0 -63 46 -98 120 -35 74 -53 98 -142 185 -107 105 -121 126 -155 240
-61 205 -81 252 -141 320 -32 36 -31 39 21 50 38 8 65 25 148 92 62 51 88 53
145 15z m1477 -630 l0 -587 -103 -103 c-56 -56 -106 -102 -110 -102 -4 0 -6
300 -5 668 l3 667 67 7 c38 5 83 14 100 22 18 8 36 15 41 15 4 1 7 -263 7
-587z m-1160 561 c0 -5 1 -174 3 -376 2 -314 4 -369 17 -377 9 -6 168 -10 381
-10 335 0 369 2 388 18 21 17 21 24 24 372 l2 355 40 0 40 0 3 -675 2 -675
-45 45 -45 46 -6 234 c-3 128 -7 237 -10 242 -3 4 -176 8 -384 8 -336 0 -380
-2 -395 -16 -14 -14 -16 -43 -14 -201 1 -163 -1 -186 -16 -203 -10 -11 -22
-20 -27 -20 -9 0 -11 1223 -1 1233 9 9 43 9 43 0z m160 -348 c0 -190 1 -348 3
-352 1 -5 -24 -9 -55 -11 l-58 -3 0 356 0 355 55 0 55 0 0 -345z m337 318 c3
-7 -12 -16 -35 -23 -22 -5 -74 -28 -115 -50 -41 -22 -89 -40 -106 -40 l-31 0
0 65 0 66 142 -3 c98 -2 143 -7 145 -15z m153 7 c0 -5 -9 -10 -20 -10 -11 0
-23 0 -27 -1 -4 0 -9 4 -11 10 -2 6 10 11 27 11 17 0 31 -4 31 -10z m110 -340
l0 -350 -30 0 -30 0 0 343 c0 189 3 347 7 350 3 4 17 7 30 7 l23 0 0 -350z
m-100 245 c0 -31 -4 -55 -10 -55 -13 0 -16 11 -24 68 -6 37 -4 42 14 42 18 0
20 -7 20 -55z m-82 23 c7 -7 12 -20 12 -30 0 -15 -9 -18 -50 -18 -41 0 -50 3
-50 18 0 25 20 42 50 42 14 0 31 -5 38 -12z m-130 -34 c0 -22 -10 -50 -24 -71
-13 -20 -24 -48 -24 -64 0 -56 -5 -59 -101 -59 l-89 0 0 75 0 75 33 0 c18 0
65 18 107 39 41 22 80 40 87 40 6 1 11 -14 11 -35z m1905 25 c21 -6 59 -24 85
-40 25 -16 52 -29 60 -29 8 0 41 14 74 30 39 20 73 30 103 30 50 0 60 -10 91
-90 10 -25 33 -64 51 -88 38 -50 41 -62 15 -62 -11 0 -27 -9 -37 -20 -10 -11
-23 -20 -30 -20 -7 0 -43 27 -80 60 -89 79 -128 91 -198 62 -78 -33 -123 -29
-161 12 -47 49 -65 56 -114 45 -22 -5 -57 -16 -76 -26 -29 -13 -38 -14 -51 -3
-25 21 -18 36 33 68 65 41 139 72 192 81 3 1 22 -4 43 -10z m-1053 -71 c100
-113 134 -143 181 -155 64 -17 99 -60 149 -189 32 -81 40 -115 35 -138 -3 -17
-9 -86 -13 -153 -4 -67 -10 -124 -13 -128 -4 -3 -38 25 -75 62 -142 141 -285
274 -324 299 l-40 27 0 207 c0 114 3 210 7 213 18 19 51 3 93 -45z m1545 5
c19 -11 19 -12 1 -32 -26 -28 -42 -26 -54 7 -5 15 -13 35 -17 44 -6 16 -4 17
21 5 16 -6 38 -17 49 -24z m619 -15 c21 -22 41 -58 56 -103 12 -38 36 -87 52
-108 17 -21 28 -40 26 -42 -8 -8 -122 13 -126 23 -10 32 -46 61 -87 71 -50 13
-65 35 -65 97 0 26 8 41 33 64 42 38 71 38 111 -2z m-2846 -25 c17 -32 46
-203 36 -213 -10 -10 -261 -16 -271 -7 -3 4 6 20 20 36 14 17 28 50 32 73 18
122 23 128 110 128 51 0 66 -4 73 -17z m2329 -21 c78 -45 113 -56 183 -56 46
1 77 7 108 23 23 12 47 19 52 16 6 -3 10 -24 10 -45 0 -45 29 -74 84 -84 25
-5 41 -16 56 -41 25 -40 30 -42 136 -51 l81 -6 81 -73 c60 -53 102 -81 159
-105 108 -47 128 -63 180 -144 25 -39 85 -108 132 -154 94 -91 94 -92 10 -111
-34 -8 -51 -7 -73 5 -45 22 -59 18 -103 -31 l-40 -45 -99 2 c-71 1 -112 -4
-143 -16 -61 -23 -101 -20 -162 11 -45 24 -64 27 -143 28 l-91 0 -78 53 c-42
29 -97 61 -121 71 -38 17 -45 25 -60 72 -10 29 -33 84 -53 122 -24 48 -36 87
-38 124 -2 45 -11 65 -58 136 -73 110 -89 142 -81 171 4 17 -3 36 -21 65 l-27
40 28 25 c16 14 32 26 36 26 4 0 29 -13 55 -28z m-882 -32 c10 -11 27 -20 37
-20 10 0 36 9 58 20 62 31 97 26 153 -24 l47 -42 -21 -45 c-12 -24 -22 -55
-22 -69 0 -56 24 -209 43 -270 26 -85 35 -202 20 -260 -23 -86 -23 -118 -2
-152 l20 -32 -25 -50 c-14 -28 -31 -54 -37 -58 -19 -13 -116 -9 -144 6 -15 8
-38 26 -51 40 -30 31 -58 33 -137 6 -32 -11 -66 -20 -74 -20 -8 0 -73 58 -144
129 l-128 128 11 54 c6 29 9 73 5 97 -4 30 -1 69 11 117 l18 72 -33 94 c-47
132 -63 161 -115 207 l-46 41 25 16 c31 21 123 17 241 -9 l80 -18 85 30 c103
37 103 37 125 12z m-5505 -51 c114 -33 201 -99 366 -276 285 -305 394 -388
864 -656 195 -110 457 -287 467 -314 9 -24 -14 -40 -37 -25 -11 6 -36 12 -55
12 -65 0 -115 -38 -155 -120 -12 -25 -24 -47 -25 -48 -2 -2 -23 8 -48 22 -60
35 -83 33 -147 -15 -31 -24 -56 -37 -58 -30 -18 53 -233 324 -278 349 -30 17
-297 288 -388 393 -50 58 -167 204 -260 323 -93 119 -209 259 -257 310 -49 52
-89 96 -89 99 0 3 12 2 28 -2 15 -5 47 -15 72 -22z m6030 16 c17 -9 53 -36 81
-61 68 -60 92 -69 131 -47 29 17 31 17 42 -1 6 -10 41 -65 77 -121 60 -91 67
-107 66 -151 0 -39 9 -68 45 -139 49 -99 83 -214 93 -315 8 -89 0 -99 -59 -66
-59 33 -103 33 -169 0 -29 -15 -87 -40 -130 -55 l-78 -28 -23 27 c-13 15 -63
73 -110 130 -48 56 -94 102 -101 102 -8 0 -19 -17 -25 -40 -13 -48 -27 -59
-38 -29 -6 15 -2 43 10 82 26 84 23 163 -12 297 -16 63 -30 132 -30 152 0 21
-5 57 -12 81 -10 40 -9 47 18 97 23 43 36 56 59 60 17 4 44 14 60 23 38 21 68
21 105 2z m-2220 -66 c0 -6 -9 -22 -20 -36 -42 -53 -15 -83 74 -83 58 0 64 -2
74 -26 10 -21 18 -25 50 -22 27 2 40 9 47 26 7 15 18 22 37 22 l28 0 0 -115 0
-115 -225 0 -225 0 0 180 0 180 80 0 c51 0 80 -4 80 -11z m180 -119 c0 -5 -5
-10 -11 -10 -5 0 -7 5 -4 10 3 6 8 10 11 10 2 0 4 -4 4 -10z m711 -162 c21
-17 39 -35 39 -39 0 -8 -84 -69 -94 -69 -3 0 -6 32 -6 70 0 43 4 70 11 70 5 0
28 -14 50 -32z m176 -160 c7 -12 -38 -56 -141 -136 -100 -78 -96 -80 -96 31
l0 95 67 50 67 50 48 -40 c26 -22 51 -45 55 -50z m-677 -224 c0 -102 -4 -184
-8 -182 -5 2 -77 75 -161 163 -83 88 -160 164 -170 168 -13 6 -36 -3 -87 -36
-38 -24 -85 -52 -104 -62 -19 -10 -68 -50 -107 -88 l-73 -70 0 146 0 147 355
0 355 0 0 -186z m797 104 c40 -40 73 -76 73 -80 0 -12 -367 -293 -734 -563
l-149 -109 -39 44 c-57 65 -73 91 -62 98 6 4 29 32 53 63 37 51 107 109 129
109 4 0 23 -16 42 -35 19 -19 41 -35 49 -35 9 0 75 60 148 132 l133 133 0 47
c0 44 3 49 53 92 104 89 212 174 222 175 5 1 42 -32 82 -71z m-1108 -32 c21
-21 31 -41 28 -50 -7 -17 -117 -102 -156 -119 -21 -10 -27 -7 -62 33 -21 25
-37 49 -36 54 4 11 166 113 183 115 5 1 25 -14 43 -33z m2797 -104 c109 -77
123 -82 218 -82 110 0 181 -30 109 -46 -16 -3 -41 -10 -58 -14 -49 -14 -170
-30 -227 -30 -32 0 -62 -6 -76 -16 -12 -8 -30 -13 -40 -10 -16 5 -18 18 -18
89 0 45 -3 99 -7 120 -7 32 -6 37 11 37 10 0 50 -22 88 -48z m-2684 -18 c24
-26 43 -50 43 -54 0 -8 -153 -139 -172 -147 -11 -4 -34 17 -86 83 -17 23 -17
23 40 63 32 21 74 53 93 70 19 16 36 30 37 31 2 0 22 -21 45 -46z m1166 -22
l51 -59 -72 -55 c-40 -31 -128 -107 -196 -169 -153 -141 -209 -186 -364 -290
-67 -46 -148 -109 -180 -140 l-58 -58 -23 27 c-50 56 -106 127 -106 133 0 3
156 123 348 267 191 143 388 292 437 331 50 39 95 71 101 71 6 0 34 -26 62
-58z m-1454 -70 c77 -95 486 -588 1094 -1320 l303 -365 -21 -21 -21 -21 -17
20 c-231 279 -1397 1635 -1406 1635 -7 0 -340 -340 -741 -755 -400 -415 -731
-755 -735 -755 -3 0 -21 18 -39 40 l-32 39 756 801 c416 440 762 800 768 800
7 -1 48 -45 91 -98z m2264 1 c113 -194 184 -368 212 -522 14 -74 14 -74 -11
-94 -34 -28 -117 -65 -164 -72 -33 -6 -44 -3 -59 13 -15 18 -16 26 -7 54 20
64 30 236 20 362 -10 120 -36 302 -45 318 -3 4 -1 8 5 8 6 0 28 -30 49 -67z
m-67 -26 c34 -232 41 -343 28 -459 -7 -65 -16 -124 -21 -130 -5 -9 -35 15
-100 79 l-92 92 47 109 c66 151 82 199 97 278 21 116 28 121 41 31z m-1752
-44 c39 -42 71 -80 71 -84 0 -4 -20 -22 -44 -40 -25 -17 -61 -56 -81 -85 -19
-30 -41 -54 -49 -54 -18 0 -159 167 -154 182 4 12 168 156 180 157 3 1 38 -34
77 -76z m1166 -24 l70 -70 -70 -67 c-38 -37 -139 -114 -224 -171 -199 -134
-364 -267 -532 -429 -32 -30 -61 -53 -67 -51 -12 5 -122 139 -122 149 0 18
139 134 263 219 147 101 196 141 364 295 102 93 229 196 242 196 4 0 38 -32
76 -71z m1196 24 c38 -21 69 -41 69 -45 0 -8 -27 -16 -205 -63 -77 -20 -147
-39 -156 -41 -11 -3 -28 10 -49 36 -18 23 -31 42 -29 44 2 2 52 23 111 46 59
23 110 46 113 51 13 20 78 8 146 -28z m-947 -12 c31 -32 110 -57 151 -47 34 9
41 -11 14 -40 -30 -32 -80 -31 -153 2 -45 21 -66 25 -100 20 -37 -6 -45 -4
-70 23 -22 23 -26 32 -15 35 122 44 137 45 173 7z m-2375 -28 c28 -21 73 -82
69 -94 -6 -15 -673 -714 -681 -714 -5 0 -17 19 -26 41 -21 54 -39 74 -66 74
-34 0 -85 29 -79 45 3 8 13 15 21 17 9 2 21 18 27 37 8 27 22 40 59 58 50 25
54 32 35 63 -10 15 -9 23 6 39 11 12 25 21 32 21 22 0 27 20 9 40 -11 12 -15
31 -13 60 4 61 38 85 121 85 84 0 91 6 84 71 -6 62 10 90 47 80 12 -4 47 -9
78 -12 56 -7 57 -7 64 22 14 61 71 97 143 90 24 -2 55 -13 70 -23z m2615 -45
c-20 -60 -98 -246 -108 -255 -8 -8 -56 37 -56 53 0 7 22 43 50 79 27 37 66 96
87 131 42 73 53 70 27 -8z m363 -77 c83 -125 106 -182 101 -247 -4 -51 -31
-100 -48 -89 -4 2 -10 29 -14 59 -8 70 -56 217 -106 324 -22 46 -40 88 -40 91
1 11 50 -52 107 -138z m-2482 -215 l-7 -262 73 -75 c79 -81 140 -177 219 -341
60 -126 82 -207 78 -290 -3 -67 -8 -60 -26 47 -7 40 -36 110 -87 210 -128 254
-194 335 -274 335 -49 0 -86 -25 -152 -101 -112 -129 -196 -280 -217 -389 -17
-87 -20 -446 -4 -462 8 -8 52 -16 115 -20 56 -3 156 -11 222 -16 193 -17 398
-19 403 -4 2 7 8 10 13 6 5 -3 8 -58 7 -122 -1 -105 -2 -110 -7 -45 -3 40 -11
77 -16 83 -6 5 -80 13 -164 17 -126 5 -154 4 -162 -8 -5 -8 -9 -222 -9 -476 0
-430 1 -463 18 -471 17 -10 218 -32 285 -32 28 0 37 4 38 18 1 11 4 8 8 -8 5
-14 4 -29 0 -34 -4 -5 -47 -4 -101 2 -51 6 -147 16 -213 23 -255 24 -454 47
-465 54 -15 9 -14 1445 1 1517 24 115 177 393 263 478 28 27 62 57 75 67 l24
16 -6 292 c-7 326 -4 341 47 284 l28 -32 -7 -261z m-1256 250 c40 -14 83 -33
95 -43 11 -11 38 -30 58 -44 21 -13 38 -27 38 -30 0 -4 -10 -13 -23 -22 -32
-21 -110 -17 -136 7 -13 12 -28 16 -42 13 -12 -3 -30 -2 -40 4 -16 8 -89 148
-89 170 0 4 15 0 33 -11 17 -10 65 -30 106 -44z m3158 -6 c23 -11 56 -20 73
-20 16 0 30 -2 30 -5 0 -4 -63 -90 -76 -104 -7 -8 -144 133 -144 148 0 18 60
9 117 -19z m-2062 -552 c-31 -28 -78 -83 -104 -122 -47 -70 -148 -249 -167
-295 l-10 -25 -270 3 c-276 3 -349 9 -344 26 2 6 213 227 469 493 l466 483 9
-256 8 -257 -57 -50z m1979 468 l76 -84 -31 -32 c-18 -17 -66 -54 -108 -82
-42 -28 -112 -86 -156 -129 -55 -52 -108 -92 -167 -124 -49 -26 -120 -76 -161
-113 -41 -37 -100 -80 -132 -96 -32 -16 -88 -49 -123 -73 -35 -25 -68 -41 -71
-36 -74 87 -101 122 -101 130 0 15 145 151 287 269 65 55 193 150 285 212 92
62 197 142 235 177 37 35 73 64 79 65 6 0 46 -38 88 -84z m-1337 -457 c230
-270 420 -496 422 -502 2 -7 -18 -8 -65 -4 -38 4 -156 7 -262 7 l-193 0 -32
73 c-79 182 -170 330 -254 413 l-53 54 0 230 c0 142 4 229 9 225 6 -3 198
-226 428 -496z m-2047 445 c66 -23 98 -45 111 -76 12 -29 39 -39 39 -14 0 18
25 27 48 19 9 -4 43 -26 75 -50 59 -43 117 -66 142 -57 7 3 16 0 21 -7 4 -7 2
-15 -4 -17 -20 -6 -43 -60 -37 -84 5 -19 -1 -27 -30 -43 -20 -10 -45 -35 -55
-55 -10 -19 -28 -43 -39 -52 -12 -10 -21 -26 -21 -37 0 -11 -19 -35 -42 -54
l-42 -35 -29 24 c-38 32 -86 32 -126 -2 -24 -20 -37 -24 -60 -19 -31 7 -77
-11 -101 -40 -17 -21 -75 -10 -113 21 -16 13 -38 24 -50 24 -48 0 -69 16 -142
101 -41 49 -81 89 -88 89 -7 0 -23 -32 -36 -72 -28 -90 -46 -118 -72 -118 -29
0 -96 -39 -114 -67 -11 -17 -25 -23 -49 -23 -22 0 -45 -9 -64 -25 -17 -14 -41
-25 -54 -25 -13 0 -33 -7 -44 -15 -10 -8 -31 -15 -45 -15 -15 0 -38 -9 -53
-21 -24 -18 -30 -20 -56 -9 -24 10 -36 10 -60 0 -36 -15 -43 -10 -127 93 -66
80 -64 99 7 107 38 4 45 9 51 33 4 16 33 53 63 83 84 83 157 105 209 64 33
-27 47 -25 47 5 0 30 65 101 103 110 19 5 39 0 71 -19 67 -39 78 -35 110 34
47 101 127 139 189 90 33 -26 33 -26 52 13 26 55 63 70 163 66 l85 -4 8 30
c17 61 74 79 159 49z m333 -65 c11 -15 23 -20 47 -17 40 4 62 -21 44 -49 -17
-25 -61 -19 -109 15 -56 39 -57 62 -3 71 4 0 13 -8 21 -20z m3219 -96 c32 -32
58 -62 58 -68 -1 -15 -87 -113 -150 -171 -120 -110 -336 -276 -436 -336 -84
-50 -126 -84 -206 -166 -55 -57 -104 -100 -108 -95 -4 4 -42 51 -85 103 l-78
94 34 28 c19 16 75 51 126 78 52 28 121 77 160 113 40 36 106 83 153 108 57
30 112 70 170 125 47 44 119 103 160 131 41 28 88 65 104 82 17 17 32 31 35
31 3 0 31 -26 63 -57z m165 -165 l62 -61 -126 -121 c-69 -67 -178 -161 -242
-211 -71 -54 -194 -168 -317 -293 l-201 -204 -72 85 c-39 46 -71 88 -71 93 0
5 46 55 103 111 72 72 130 118 197 158 107 65 122 76 311 232 127 105 269 244
269 264 0 22 29 4 87 -53z m-5222 -43 c36 -25 38 -26 84 -10 42 14 51 14 93 0
60 -21 87 -49 70 -73 -7 -9 -18 -29 -25 -44 -9 -22 -18 -28 -43 -28 -18 0 -38
-8 -49 -20 -10 -11 -27 -20 -37 -20 -10 0 -20 -6 -22 -12 -22 -69 -60 -157
-70 -161 -8 -3 -29 8 -47 23 -19 16 -44 29 -57 30 -13 0 -36 10 -52 21 -23 18
-37 20 -70 15 -31 -5 -42 -3 -46 9 -3 8 -31 29 -61 46 -43 24 -59 41 -73 74
-10 24 -28 49 -39 57 -18 13 -20 21 -13 53 6 31 13 40 37 47 45 13 111 1 152
-27 l37 -25 26 24 c40 37 61 45 116 46 39 0 60 -6 89 -25z m5604 -30 c32 -77
106 -197 194 -312 89 -118 116 -168 124 -234 7 -59 -15 -125 -54 -160 l-26
-24 8 25 c16 51 17 129 1 182 -9 32 -51 108 -105 189 -148 224 -211 355 -184
382 13 14 20 6 42 -48z m-79 2 c0 -24 93 -193 176 -320 124 -189 128 -198 129
-292 0 -68 -3 -85 -24 -113 -32 -45 -55 -52 -176 -52 -86 0 -104 3 -109 16
-16 41 -36 251 -37 379 0 77 -4 191 -7 253 -4 63 -3 120 1 128 10 17 47 19 47
1z m-82 -54 c4 -40 -2 -41 -33 -6 -26 31 -23 46 8 41 17 -2 23 -11 25 -35z
m-85 -9 c20 -20 37 -40 37 -44 0 -6 -595 -584 -818 -795 l-63 -59 -25 29 c-13
17 -33 42 -44 57 l-21 27 213 214 c124 125 253 243 310 286 53 39 123 98 155
130 80 80 203 191 212 191 3 0 23 -16 44 -36z m-4318 -41 c111 -178 225 -475
225 -590 0 -47 -133 -113 -225 -113 -35 0 -37 2 -32 28 28 148 37 218 37 282
0 99 -40 415 -55 440 -3 5 -2 10 4 10 5 0 26 -26 46 -57z m-57 -68 c26 -186
34 -295 28 -377 -6 -96 -33 -238 -46 -252 -18 -18 -160 14 -211 47 -27 18 -49
35 -49 39 0 5 16 30 35 57 19 26 35 51 35 54 0 4 11 30 24 59 89 199 120 280
136 363 6 33 14 71 16 84 8 39 20 11 32 -74z m842 40 c8 -9 21 -13 36 -9 19 5
25 0 39 -33 39 -91 52 -71 -225 -363 -137 -145 -250 -267 -250 -271 0 -16 106
-129 121 -129 9 0 55 41 103 90 48 50 89 90 91 90 10 0 5 -379 -5 -385 -15 -9
-69 -17 -129 -19 l-54 -1 -74 100 c-40 55 -98 150 -130 212 l-57 112 37 36
c50 48 63 100 43 169 -21 73 -68 156 -142 257 -35 48 -64 89 -64 92 0 12 40
-7 61 -29 14 -15 34 -24 51 -24 16 0 39 -5 50 -11 19 -10 25 -7 47 19 32 37
58 45 90 28 23 -13 27 -11 56 20 41 44 77 45 115 4 31 -33 48 -38 56 -15 8 20
84 74 105 75 9 0 22 -7 29 -15z m3629 -260 c1 -115 24 -345 36 -365 13 -22
-11 -21 -208 6 -26 4 -50 11 -53 16 -4 5 -5 64 -5 130 2 99 6 130 23 167 11
25 27 72 35 106 13 53 24 69 87 133 l71 73 6 -73 c4 -40 7 -127 8 -193z
m-2350 200 c62 -53 241 -381 259 -477 18 -92 24 -178 12 -178 -5 0 -10 6 -10
13 0 21 -41 59 -57 53 -49 -19 -113 -101 -113 -146 0 -58 77 -138 125 -129 11
2 30 19 42 38 l23 34 0 -52 0 -51 -112 0 c-99 0 -188 7 -495 36 -69 6 -72 8
-78 35 -9 41 5 58 22 26 7 -15 24 -29 37 -33 51 -12 126 57 126 116 0 22 3 20
26 -16 35 -53 81 -84 128 -84 68 0 88 24 155 182 13 33 31 54 61 73 45 29 60
57 60 117 0 54 -23 99 -75 147 -33 30 -45 49 -50 83 -15 91 -59 157 -123 185
-30 12 -37 12 -70 -4 -48 -23 -97 -90 -106 -142 -5 -34 -14 -47 -59 -79 -28
-22 -54 -35 -55 -30 -7 16 102 171 168 240 75 78 106 87 159 43z m-2249 0 c0
-26 -101 -177 -204 -305 -88 -111 -94 -135 -43 -182 17 -17 49 -42 69 -56 54
-35 56 -53 14 -123 -41 -68 -144 -199 -157 -199 -20 0 -143 193 -161 253 -10
34 -10 40 5 49 9 5 24 23 33 40 31 60 5 152 -72 261 -19 26 -34 51 -34 56 0
15 46 18 76 6 26 -10 32 -9 57 12 16 12 41 23 57 23 15 0 33 7 40 15 8 9 26
15 46 13 26 -2 38 4 55 26 19 24 27 27 59 22 34 -5 40 -3 61 29 26 38 99 82
99 60z m31 -67 c-13 -35 -31 -82 -42 -105 -10 -24 -19 -45 -19 -48 0 -2 -11
-28 -24 -57 -13 -29 -31 -69 -39 -89 -21 -51 -65 -119 -82 -125 -22 -9 -75 34
-75 59 0 12 42 75 95 142 52 66 117 160 146 208 28 48 54 85 57 83 3 -3 -5
-34 -17 -68z m330 -48 c97 -137 129 -204 129 -272 0 -45 -5 -62 -23 -84 l-23
-26 -14 68 c-24 122 -61 227 -126 357 -38 74 -12 55 57 -43z m-996 -105 c66
-133 105 -251 105 -317 0 -35 -3 -38 -62 -67 -37 -19 -77 -31 -101 -31 -38 0
-39 1 -33 28 31 127 31 238 0 512 -5 43 -4 44 11 25 9 -11 45 -78 80 -150z
m-102 -140 c2 -176 -10 -261 -40 -272 -26 -10 -126 17 -160 43 l-34 26 23 31
c27 37 33 49 89 177 47 109 69 169 69 190 0 8 5 33 12 55 l11 40 14 -60 c8
-35 15 -130 16 -230z m2897 230 l0 -55 -40 0 c-22 0 -40 5 -40 11 0 25 53 99
72 99 4 0 8 -25 8 -55z m87 28 c11 -16 24 -41 31 -56 14 -32 3 -41 -45 -35
-27 3 -28 6 -31 61 -3 66 13 77 45 30z m2152 -35 c0 -7 -6 -29 -14 -48 l-13
-35 -7 27 c-4 14 -2 35 5 47 12 23 30 28 29 9z m-5265 -159 c-20 -46 -45 -104
-56 -129 -28 -63 -61 -110 -77 -110 -18 0 -51 29 -51 45 0 7 32 52 71 101 39
48 87 115 107 148 49 79 52 50 6 -55z m353 -28 c48 -80 62 -136 43 -181 -7
-16 -15 -30 -19 -30 -4 0 -13 28 -20 63 -13 59 -66 211 -81 232 -4 6 -10 19
-13 30 -11 33 43 -35 90 -114z m4832 17 l-2 -113 -12 70 c-6 39 -15 80 -19 93
-6 17 -3 29 10 43 9 10 19 19 21 19 1 0 2 -51 2 -112z m-2159 -193 c0 -228 -2
-265 -15 -265 -19 0 -70 71 -86 118 -19 60 -46 107 -89 157 -32 37 -40 54 -40
85 0 55 15 82 65 113 24 15 49 34 55 42 8 10 31 15 61 15 l49 0 0 -265z m135
246 c3 -11 23 -34 43 -52 68 -58 97 -129 76 -184 -4 -8 -25 -29 -48 -45 -27
-18 -49 -44 -61 -72 -53 -125 -65 -147 -84 -157 l-21 -12 0 271 0 270 44 0
c35 0 46 -4 51 -19z m1925 -304 c-4 -147 -10 -270 -13 -273 -3 -3 -8 19 -12
48 -20 153 -47 289 -71 348 l-16 41 58 53 c33 30 59 53 60 52 1 0 -2 -122 -6
-269z m-2971 213 c57 -5 192 -10 301 -10 110 0 201 -4 204 -8 2 -4 1 -14 -4
-22 -7 -11 -42 -12 -187 -7 -131 5 -183 3 -191 -5 -7 -7 -12 -43 -12 -84 0
-70 1 -73 44 -125 94 -116 166 -280 206 -464 17 -78 23 -148 27 -323 6 -247 0
-226 73 -234 15 -2 26 -10 28 -22 4 -18 -1 -19 -99 -12 -57 4 -167 11 -244 16
-315 20 -448 31 -456 36 -5 3 -9 18 -9 34 0 25 4 29 32 32 l33 3 11 152 c18
228 63 431 126 558 36 74 134 210 171 239 27 22 28 24 25 112 l-3 89 -134 3
-134 3 28 29 c16 17 36 28 44 25 9 -2 63 -9 120 -15z m698 -184 c23 -26 46
-60 52 -77 l10 -30 -37 31 c-45 37 -78 39 -94 5 -23 -51 -31 -26 -25 78 8 135
15 153 36 89 10 -27 36 -71 58 -96z m1236 106 c26 -23 21 -31 -25 -34 l-43 -3
-3 -58 c-3 -54 -1 -61 31 -96 187 -207 290 -553 286 -963 0 -81 2 -152 6 -157
3 -6 24 -11 46 -11 26 0 42 -5 46 -15 3 -9 3 -18 0 -21 -3 -3 -90 -1 -194 5
-103 7 -262 16 -353 21 -351 20 -360 21 -360 39 0 9 13 22 30 28 27 10 30 16
30 55 0 117 34 376 65 501 54 214 127 353 256 491 59 63 59 64 59 125 0 55 -2
61 -22 65 -13 3 -111 7 -218 11 -186 5 -209 10 -210 37 0 3 125 4 278 1 229
-5 280 -8 295 -21z m-1895 -66 c3 -55 1 -60 -33 -93 -55 -54 -156 -210 -188
-293 -59 -152 -107 -405 -107 -568 0 -46 -3 -63 -12 -60 -10 4 -14 114 -16
498 l-2 494 40 41 41 42 137 -2 137 -2 3 -57z m437 46 c7 -4 10 -205 10 -575
l0 -568 -25 3 -25 3 -2 175 c-4 343 -71 579 -225 795 -51 70 -58 86 -58 128
l0 47 158 0 c86 0 162 -4 167 -8z m2409 -232 c13 -80 29 -190 36 -245 6 -55
15 -131 20 -170 5 -38 12 -104 15 -145 l6 -75 -103 -122 c-57 -67 -107 -122
-111 -122 -10 -1 -2 242 19 574 18 297 41 497 61 528 11 18 30 -57 57 -223z
m150 128 c46 -640 45 -609 10 -655 -14 -18 -29 -33 -35 -33 -11 0 -11 113 -2
503 3 157 9 284 13 282 4 -2 10 -46 14 -97z m-1276 57 c6 -3 12 -19 12 -36 0
-24 -12 -45 -52 -88 -73 -79 -162 -214 -199 -302 -63 -152 -110 -388 -125
-621 -3 -60 -10 -108 -15 -108 -5 0 -9 254 -9 583 l0 584 188 -4 c103 -3 193
-6 200 -8z m1002 -71 c-15 -96 -39 -374 -41 -469 0 -44 -4 -100 -8 -125 l-7
-45 -7 45 c-3 25 -11 97 -17 160 -14 140 -39 305 -51 339 -9 22 -3 32 63 98
39 40 73 71 75 69 2 -2 -1 -34 -7 -72z m-621 -106 l140 -163 1 -438 0 -438
-27 3 -28 3 -6 210 c-12 382 -87 630 -260 858 -35 46 -59 88 -59 102 0 23 4
25 50 25 l50 0 139 -162z m-2931 13 c24 -49 75 -135 115 -191 40 -56 93 -131
119 -168 26 -36 52 -85 59 -109 16 -59 7 -135 -22 -178 -29 -42 -54 -48 -39
-9 17 45 11 135 -13 194 -13 30 -60 110 -105 177 -109 163 -186 314 -178 348
4 14 10 25 14 25 4 -1 26 -41 50 -89z m4032 56 c88 -15 81 11 56 -222 -20
-191 -34 -304 -46 -365 -5 -25 -12 -91 -16 -148 l-6 -103 -54 3 -54 3 -5 412
c-3 227 -2 419 1 427 4 10 14 14 28 11 11 -3 55 -11 96 -18z m-4975 -79 c20
-40 59 -104 87 -142 44 -61 55 -96 29 -96 -11 0 -98 134 -140 219 -27 53 -34
91 -18 91 3 0 21 -33 42 -72z m426 56 c22 -11 29 -20 24 -32 -3 -9 -10 -37
-15 -62 -25 -132 -109 -291 -196 -371 -40 -37 -120 -79 -149 -79 -25 0 -85 63
-85 90 0 8 47 59 105 113 107 100 220 239 255 315 11 23 23 42 26 42 3 0 19
-7 35 -16z m463 -87 c27 -56 91 -166 142 -245 85 -130 134 -232 134 -282 0
-37 -34 -111 -62 -135 -28 -23 -36 -25 -143 -25 l-113 0 -11 48 c-16 73 -30
256 -36 496 -6 218 -2 247 29 246 6 -1 33 -47 60 -103z m4387 68 c-2 -11 -6
-94 -8 -185 -4 -145 -2 -176 16 -248 22 -84 64 -210 83 -249 6 -12 8 -28 5
-35 -11 -29 -215 -78 -327 -78 l-53 0 6 88 c4 48 15 148 26 222 11 74 25 189
31 255 14 159 24 227 34 243 5 9 33 12 99 10 86 -3 92 -4 88 -23z m93 -40 c4
-71 46 -177 125 -310 81 -138 79 -191 -11 -290 -53 -58 -71 -66 -86 -37 -8 15
-53 144 -82 237 -23 77 -34 234 -22 331 14 110 25 137 53 132 17 -3 21 -12 23
-63z m-2927 33 c43 -40 23 -138 -29 -138 -26 0 -41 45 -33 100 11 69 22 76 62
38z m-2854 -3 c42 -41 -74 -299 -166 -369 -18 -14 -49 -32 -69 -41 -35 -14
-38 -14 -67 11 -17 14 -31 34 -31 44 0 10 32 46 70 80 76 68 190 203 215 257
18 37 27 40 48 18z m365 -62 c21 -43 60 -111 85 -151 26 -40 47 -76 47 -80 0
-4 -25 -29 -55 -55 -41 -36 -55 -55 -55 -75 0 -35 49 -95 106 -128 24 -14 44
-29 44 -34 0 -13 -41 -20 -117 -20 -63 0 -74 3 -83 21 -16 28 -28 160 -36 380
-9 251 -1 269 64 142z m650 67 c24 0 24 -1 18 -52 -20 -149 -57 -306 -88 -368
-47 -92 -143 -218 -171 -225 -13 -4 -40 0 -60 8 -69 29 -167 81 -167 88 0 5
16 15 35 25 113 53 249 246 285 404 7 30 17 72 22 94 l9 39 46 -7 c25 -3 57
-6 71 -6z m157 -2 c2 -7 9 -141 15 -297 6 -156 17 -321 25 -365 8 -44 12 -82
9 -85 -12 -12 -373 55 -407 76 -5 3 2 17 16 32 74 80 154 219 180 311 14 52
22 91 51 255 11 66 14 70 42 76 48 11 64 10 69 -3z m2205 -89 c0 -95 -26 -111
-77 -50 -7 8 -13 32 -13 54 0 30 7 46 31 70 30 30 32 30 45 12 9 -12 14 -45
14 -86z m-3228 62 c8 -7 -14 -142 -38 -236 -16 -63 -83 -180 -134 -233 -35
-37 -36 -37 -137 9 -64 28 -77 45 -45 56 36 13 94 67 136 127 54 76 80 134 96
211 18 80 23 86 74 79 22 -4 44 -9 48 -13z m113 7 c4 -11 20 -323 28 -538 l2
-44 -45 2 c-90 6 -260 47 -260 63 0 5 21 35 47 67 79 97 103 161 143 379 11
60 17 73 34 76 39 8 47 7 51 -5z m4427 -580 l-4 -552 -72 -84 -71 -84 -3 558
-2 558 77 78 c43 43 78 78 78 78 0 0 -1 -248 -3 -552z m92 267 c35 -322 45
-425 52 -540 l7 -100 -54 -64 -54 -63 -3 323 c-4 358 6 695 19 682 4 -4 19
-111 33 -238z m-286 -791 l-3 -869 -60 4 c-33 2 -132 6 -220 10 -151 6 -160 7
-160 26 0 19 8 20 205 25 l205 5 2 830 c2 457 5 836 8 844 22 58 25 -64 23
-875z m-2708 348 c0 -235 -4 -433 -8 -440 -14 -22 -102 -41 -102 -23 0 5 -22
46 -49 90 -55 91 -118 235 -127 290 -8 51 9 87 50 106 51 24 113 96 126 147
17 60 6 138 -26 198 -30 56 -27 69 12 51 17 -7 30 -8 38 -2 12 10 66 19 79 13
4 -2 7 -195 7 -430z m1622 382 c5 -3 8 -206 8 -450 l0 -446 -77 8 c-43 4 -100
10 -128 13 l-50 6 -3 430 c-1 237 0 436 3 444 4 11 27 12 123 6 64 -3 120 -9
124 -11z m-3548 -137 c18 -13 18 -16 -8 -60 -33 -57 -149 -166 -201 -191 -36
-18 -134 -45 -163 -46 -24 0 -2 19 93 80 86 56 235 195 235 220 0 14 23 12 44
-3z m120 -43 c34 -10 65 -20 70 -25 12 -10 -57 -217 -106 -317 -31 -63 -55
-95 -102 -138 -61 -55 -166 -114 -204 -114 -30 0 -136 102 -172 166 -24 41
-30 63 -28 96 l3 43 50 7 c127 20 172 38 247 101 82 69 95 83 139 150 17 26
34 47 37 47 3 0 33 -7 66 -16z m5236 -286 l0 -263 -135 -168 c-125 -156 -500
-613 -532 -647 -11 -12 -13 31 -13 270 l1 285 205 235 c113 129 264 306 336
393 72 86 133 157 135 157 1 0 3 -118 3 -262z m-5020 236 c53 -8 60 -16 50
-58 -5 -17 -14 -83 -20 -146 l-13 -115 -47 -51 c-27 -28 -53 -67 -58 -86 -11
-41 -1 -112 23 -157 8 -17 15 -33 15 -37 0 -10 -234 4 -284 17 -89 23 -176 53
-176 60 0 4 26 20 57 36 33 16 87 57 128 98 83 82 124 159 180 339 l37 118 32
-6 c17 -3 51 -9 76 -12z m380 -7 c0 -17 -29 -57 -41 -57 -15 0 -10 32 8 52 19
21 33 23 33 5z m84 -12 c20 -8 36 -17 36 -20 0 -2 -16 -31 -35 -63 -53 -92
-207 -234 -280 -259 -54 -19 -109 -32 -160 -38 l-50 -6 35 31 c19 17 78 59
130 92 101 64 238 194 261 247 16 36 15 36 63 16z m-239 -77 c-4 -46 -8 -89
-10 -95 -5 -14 -138 -103 -154 -103 -7 0 -9 17 -5 48 13 117 27 218 31 225 2
4 36 7 74 7 l70 0 -6 -82z m82 35 c2 -29 -3 -48 -18 -67 -33 -42 -43 -33 -35
31 10 89 48 114 53 36z m308 -14 c94 -28 101 -32 97 -63 -5 -48 -83 -270 -128
-365 -52 -111 -95 -166 -173 -224 -72 -53 -179 -107 -213 -107 -50 0 -182 124
-225 212 -37 73 -48 123 -34 156 11 27 18 30 78 36 146 15 213 44 324 143 82
72 117 113 155 180 16 29 33 53 39 53 5 0 41 -9 80 -21z m245 -60 c104 -15
103 -15 96 -63 -7 -48 -22 -181 -36 -321 -6 -55 -15 -125 -20 -155 -6 -30 -14
-108 -20 -174 -5 -65 -12 -121 -15 -124 -8 -8 -187 -3 -285 9 -126 14 -340 77
-340 98 0 4 19 15 43 26 65 28 183 113 231 166 38 42 75 107 130 229 20 45 96
276 96 293 0 20 23 38 40 31 8 -3 44 -10 80 -15z m322 -49 c-2 -14 -6 -92 -9
-175 -6 -173 -1 -202 64 -399 45 -135 46 -139 28 -153 -43 -31 -236 -68 -321
-61 l-39 3 3 85 c2 47 12 139 22 205 10 66 22 158 25 205 8 107 33 299 41 311
3 6 47 8 97 7 92 -3 92 -3 89 -28z m91 -4 c-10 -63 46 -208 141 -366 53 -87
59 -136 26 -201 -23 -44 -95 -119 -115 -119 -14 0 -56 100 -96 230 -22 67 -24
94 -24 255 0 199 8 235 49 235 22 0 24 -3 19 -34z m3960 -48 c-3 -24 -19 -81
-34 -128 -16 -47 -29 -93 -29 -102 0 -22 -3 -22 -41 -2 -17 8 -37 13 -45 10
-12 -4 -14 18 -14 129 l0 135 84 0 84 0 -5 -42z m142 21 c57 -30 130 -104 162
-165 26 -50 25 -88 -1 -52 -7 10 -29 24 -48 32 -19 8 -40 22 -48 30 -7 9 -20
16 -29 16 -10 0 -27 10 -39 23 -12 13 -42 34 -67 46 -46 23 -49 29 -39 69 8
29 55 30 109 1z m-55 -114 c22 -14 40 -32 40 -40 0 -10 10 -15 28 -15 18 0 37
-9 50 -25 12 -14 30 -25 40 -25 10 0 29 -11 42 -25 13 -14 34 -25 47 -25 13 0
29 -10 38 -23 8 -13 26 -29 40 -35 14 -6 25 -17 25 -23 0 -7 11 -22 25 -35 14
-13 22 -29 19 -38 -3 -8 4 -28 17 -45 l22 -30 -25 -33 c-19 -25 -41 -37 -86
-50 -34 -10 -68 -18 -76 -18 -19 0 -36 30 -36 63 0 14 -8 35 -19 48 -14 17
-17 33 -13 61 4 34 0 43 -42 93 -26 30 -56 55 -65 55 -10 0 -30 9 -44 20 -30
24 -35 24 -58 4 -19 -17 -73 -12 -85 8 -10 15 46 158 62 158 8 0 32 -11 54
-25z m-3430 -75 c80 -5 226 -14 325 -20 99 -6 190 -13 203 -16 21 -4 22 -9 22
-102 l0 -97 -85 -35 c-47 -18 -91 -40 -96 -47 -7 -7 -21 -10 -35 -7 -15 4 -43
-5 -86 -28 -98 -53 -118 -68 -124 -97 -11 -45 -43 -71 -86 -71 -28 0 -53 -9
-85 -31 -47 -33 -61 -34 -180 -13 l-33 6 0 290 0 290 58 -6 c31 -4 122 -11
202 -16z m3252 -107 c16 -14 22 -14 43 -3 22 12 30 11 62 -4 29 -14 38 -15 44
-4 5 7 9 16 9 21 0 14 27 7 44 -12 10 -11 30 -21 44 -23 15 -2 31 -12 38 -25
6 -13 18 -31 27 -41 20 -22 22 -43 6 -59 -9 -9 -5 -20 15 -44 20 -24 26 -39
21 -57 -4 -17 0 -30 14 -44 26 -24 30 -98 5 -98 -8 0 -20 -13 -25 -30 -6 -16
-18 -30 -26 -30 -8 0 -24 -11 -35 -25 -11 -14 -30 -25 -43 -25 -15 0 -32 -11
-45 -30 -17 -24 -29 -30 -58 -30 -20 0 -46 -7 -56 -15 -11 -8 -41 -15 -66 -15
-25 0 -51 -5 -58 -12 -9 -9 -17 -9 -35 1 -17 9 -30 9 -51 1 -25 -9 -33 -7 -62
15 -18 14 -37 25 -42 25 -15 0 -62 41 -62 54 0 20 41 58 56 52 9 -4 18 4 24
19 8 21 16 25 50 25 23 0 46 5 53 10 7 6 21 17 31 24 22 15 14 36 -14 36 -21
0 -30 19 -30 61 0 16 -7 40 -15 53 -15 22 -14 25 10 44 14 11 25 29 25 40 0
10 9 31 21 46 20 25 20 28 5 45 -45 49 26 100 76 54z m-1537 -13 c94 -5 267
-14 385 -21 118 -6 221 -13 228 -15 9 -3 12 -82 12 -354 l0 -350 -102 0 c-57
0 -140 3 -185 7 -73 5 -82 8 -85 27 -2 17 -11 22 -45 24 l-43 3 0 44 c0 68 -5
73 -70 81 l-59 6 -3 47 c-3 42 -5 46 -33 51 -28 5 -30 9 -33 51 l-3 45 -71 15
-71 14 -11 45 c-11 45 -15 48 -83 66 -10 2 -13 35 -13 118 l0 114 58 -4 c31
-2 134 -8 227 -14z m-2020 -229 c-4 -111 -6 -121 -30 -147 -14 -15 -25 -30
-25 -34 0 -15 -80 -39 -177 -54 -54 -9 -112 -18 -130 -21 -18 -3 -45 -16 -60
-29 -21 -17 -53 -27 -126 -39 -62 -10 -122 -27 -163 -46 -37 -17 -70 -31 -75
-31 -15 0 -11 117 5 133 10 10 55 16 163 21 81 3 173 13 203 21 89 24 178 73
235 130 49 49 62 74 92 170 7 25 14 30 35 27 15 -1 29 2 33 8 18 29 24 -1 20
-109z m-1697 64 c6 -3 12 -18 12 -35 0 -32 -4 -34 -61 -31 -29 2 -41 -3 -57
-23 -24 -31 -62 -35 -62 -7 0 10 5 33 11 52 6 19 12 39 14 45 3 10 111 9 143
-1z m136 -55 c32 -33 85 -79 119 -103 l62 -42 -50 -6 c-27 -3 -54 -7 -60 -9
-5 -2 -31 6 -57 18 -37 17 -48 26 -48 45 0 12 -13 38 -30 57 -37 45 -41 100
-6 100 6 0 38 -27 70 -60z m2866 6 c427 -44 440 -46 440 -58 0 -6 -13 -8 -32
-4 -18 3 -134 14 -258 25 -124 12 -272 25 -330 30 -58 6 -136 13 -175 16 -124
10 -158 17 -144 27 17 11 71 8 499 -36z m-379 -31 c90 -8 218 -20 284 -25 221
-20 339 -31 419 -40 44 -6 83 -10 88 -10 4 0 8 -11 8 -25 0 -23 -3 -25 -47
-25 -27 0 -124 9 -218 20 -93 11 -206 20 -250 20 -44 0 -156 12 -250 26 -93
14 -187 28 -207 31 -28 4 -38 10 -38 24 0 23 0 23 211 4z m-253 -32 c4 -27 0
-26 170 -54 79 -13 139 -25 133 -27 -14 -5 -403 36 -444 46 -27 7 -27 8 25 35
64 33 111 33 116 0z m1117 -53 c-6 -9 -9 -9 -16 1 -10 17 0 34 13 21 6 -6 7
-16 3 -22z m-1105 -45 c341 -37 824 -84 1035 -100 107 -9 115 -12 115 -42 0
-25 -2 -25 -47 -19 -50 6 -182 20 -363 36 -58 6 -152 14 -210 20 -58 5 -152
14 -210 19 -99 10 -324 33 -452 47 -66 7 -94 23 -85 48 5 13 15 15 44 11 21
-3 99 -12 173 -20z m353 8 c-7 -2 -19 -2 -25 0 -7 3 -2 5 12 5 14 0 19 -2 13
-5z m850 -45 c-21 -22 -36 -28 -67 -28 -62 0 -595 50 -646 60 -69 14 179 2
308 -15 59 -8 146 -15 193 -17 80 -3 87 -1 116 23 29 25 35 26 78 16 l45 -10
-27 -29z m-1888 -54 c-7 -42 9 -74 39 -74 34 0 38 -11 11 -32 -13 -10 -25 -30
-27 -45 -2 -19 -17 -36 -53 -59 -27 -18 -71 -49 -97 -69 l-48 -35 0 -78 c0
-42 4 -82 8 -88 15 -24 192 -50 507 -74 149 -12 276 -27 745 -91 162 -22 328
-44 368 -49 69 -10 133 -18 307 -41 166 -22 200 -26 210 -22 6 2 69 75 140
163 72 87 136 159 143 159 13 1 117 -57 185 -103 30 -21 37 -32 37 -59 0 -20
-7 -40 -17 -49 -20 -17 -383 -155 -588 -223 -169 -55 -255 -68 -440 -64 l-150
4 -115 52 c-126 56 -256 104 -352 129 -151 39 -223 44 -638 44 -365 0 -412 -2
-473 -19 -37 -10 -67 -15 -67 -10 0 4 27 24 60 44 128 78 132 133 17 242 -96
90 -147 185 -147 274 0 78 27 103 125 118 200 31 246 44 279 80 25 28 39 16
31 -25z m437 37 c6 -18 250 -46 968 -112 63 -6 151 -14 195 -19 44 -5 124 -12
178 -16 65 -4 97 -11 94 -18 -2 -6 -17 -12 -34 -14 -33 -3 -427 36 -988 99
-198 22 -384 43 -412 46 -55 6 -61 11 -41 31 14 14 35 16 40 3z m1482 -52
c-52 -54 -62 -30 -11 27 26 30 33 34 35 20 2 -10 -9 -31 -24 -47z m-1601 -98
c33 -12 161 -29 352 -47 290 -26 703 -69 900 -94 44 -5 130 -15 191 -22 l112
-11 82 74 c71 65 128 97 144 81 3 -2 -32 -45 -77 -95 l-82 -90 -110 7 c-60 3
-150 11 -200 16 -49 5 -137 15 -195 20 -58 6 -139 15 -180 20 -41 5 -120 14
-175 20 -55 6 -138 15 -185 21 -177 20 -257 30 -330 39 -41 5 -159 19 -262 32
-104 12 -188 26 -188 29 0 4 39 32 88 63 l87 55 3 -55 c3 -46 7 -56 25 -63z
m-1146 94 c9 -3 11 -59 4 -157 -1 -5 -43 -8 -94 -8 l-92 0 3 78 c2 42 5 83 7
89 3 10 25 11 82 7 43 -3 83 -7 90 -9z m973 -15 c0 -12 -44 -12 -80 0 -20 6
-14 8 28 9 28 1 52 -3 52 -9z m280 -4 c287 -34 852 -96 1170 -127 124 -12 231
-27 238 -32 6 -5 12 -18 12 -30 0 -18 -4 -19 -42 -13 -24 4 -79 11 -123 17
-44 5 -118 14 -165 19 -190 23 -561 61 -815 85 -358 33 -365 34 -365 72 0 21
4 24 23 20 12 -3 42 -8 67 -11z m1550 -2 c-8 -8 -23 -20 -34 -26 -19 -10 -18
-8 3 16 26 27 53 37 31 10z m40 -41 c0 -17 -107 -133 -122 -133 -4 0 -8 9 -8
20 0 19 105 130 122 130 5 0 8 -8 8 -17z m-2493 -65 c-9 -32 10 -117 40 -177
14 -30 62 -92 109 -142 46 -48 84 -96 84 -106 -1 -27 -19 -45 -83 -83 -68 -40
-127 -101 -127 -130 0 -34 -40 -24 -135 36 -177 111 -203 120 -465 158 -240
35 -290 61 -290 151 0 56 26 78 174 151 102 50 117 54 181 54 110 1 196 17
270 52 77 36 151 56 209 57 34 1 38 -1 33 -21z m1178 -87 c50 -6 128 -15 175
-21 47 -6 128 -15 180 -21 52 -5 131 -14 175 -19 330 -37 569 -60 626 -60 54
0 72 -16 67 -57 -3 -28 -4 -28 -63 -26 -154 6 -1762 194 -1786 209 -9 5 -13
57 -4 65 2 3 125 -10 272 -28 147 -17 309 -37 358 -42z m1445 35 c0 -22 -52
-86 -156 -196 l-24 -25 0 35 c0 30 12 48 81 123 44 48 85 87 90 87 5 0 9 -11
9 -24z m-2113 -55 c12 -19 18 -20 266 -51 42 -6 112 -14 155 -20 209 -27 856
-101 1222 -140 107 -11 212 -23 234 -25 42 -6 42 -6 198 163 64 68 98 89 98
59 0 -7 -27 -45 -60 -83 -33 -38 -86 -101 -117 -141 -32 -39 -62 -74 -68 -76
-5 -2 -39 -1 -75 4 -36 4 -144 17 -240 28 -96 12 -209 25 -250 31 -41 5 -115
14 -165 20 -95 11 -194 23 -322 40 -186 24 -989 120 -1004 120 -22 0 -3 20 51
54 67 41 63 40 77 17z m2193 -105 c0 -29 -18 -57 -117 -177 -115 -140 -135
-154 -116 -80 6 24 217 291 230 291 2 0 3 -15 3 -34z m-2126 -31 c335 -40 615
-74 699 -85 128 -17 227 -29 322 -40 50 -6 124 -15 165 -20 94 -12 285 -35
460 -55 219 -25 200 -18 200 -75 0 -34 -4 -50 -12 -50 -7 0 -44 5 -83 10 -110
15 -311 41 -450 60 -38 5 -236 32 -440 59 -472 63 -511 68 -745 86 -204 16
-277 26 -322 44 -23 9 -28 17 -28 44 0 31 6 47 18 47 3 0 100 -11 216 -25z"/>
<path d="M3977 2786 c-10 -27 -8 -881 2 -908 8 -22 19 -25 112 -37 57 -7 129
-14 159 -15 l55 -1 3 476 c2 443 1 477 -15 483 -9 4 -83 10 -163 13 -133 5
-147 4 -153 -11z m281 -41 c9 -4 12 -100 12 -439 0 -239 -3 -437 -8 -439 -4
-3 -54 1 -112 9 -58 7 -111 14 -117 14 -10 0 -13 94 -13 436 l0 435 113 -6
c61 -4 118 -8 125 -10z"/>
<path d="M4055 2698 c-8 -29 -15 -754 -6 -767 11 -17 148 -32 174 -19 16 8 17
37 17 394 l0 384 -26 10 c-38 15 -154 13 -159 -2z m127 -38 c20 0 20 -6 16
-349 -2 -193 -7 -353 -11 -357 -4 -4 -28 -3 -54 2 l-47 9 3 345 c1 190 5 349
8 354 3 4 19 5 35 2 17 -3 39 -6 50 -6z"/>
<path d="M3465 3078 c-120 -140 -192 -354 -224 -668 -24 -225 -25 -211 29
-233 91 -38 445 -50 485 -17 16 14 17 28 11 165 -10 233 -44 400 -116 575 -38
91 -117 220 -135 220 -7 0 -30 -19 -50 -42z m104 -109 l45 -85 -50 -82 c-27
-45 -51 -82 -54 -82 -3 0 -27 43 -54 96 -48 94 -48 97 -33 128 25 52 77 118
90 113 7 -2 32 -42 56 -88z m-133 -203 l48 -94 -36 -79 c-21 -43 -40 -91 -44
-106 -8 -36 -13 -30 -54 72 l-34 85 21 80 c23 87 40 136 47 136 3 0 26 -42 52
-94z m204 51 c0 -1 9 -34 20 -72 43 -145 43 -149 -3 -233 l-40 -75 -19 67
c-10 37 -27 85 -38 106 -11 22 -20 46 -20 55 0 21 79 155 91 155 5 0 9 -1 9
-3z m-96 -285 c30 -92 44 -171 48 -272 l3 -75 -95 4 c-52 2 -98 5 -101 7 -8 4
18 175 36 244 22 79 66 181 75 175 5 -3 20 -40 34 -83z m-198 -75 c26 -74 26
-82 17 -163 -6 -47 -13 -87 -16 -90 -3 -3 -20 -1 -38 4 l-34 9 3 84 c3 110 22
253 32 242 5 -4 20 -43 36 -86z m376 -143 l3 -118 -35 -7 c-19 -4 -38 -4 -42
0 -4 4 -9 47 -10 96 -3 84 -1 94 31 160 l34 70 8 -42 c4 -23 9 -95 11 -159z"/>
<path d="M5201 3103 c-22 -26 -65 -95 -95 -153 -96 -188 -127 -311 -162 -650
-18 -177 -17 -180 41 -204 83 -35 515 -50 546 -19 17 17 12 280 -8 413 -19
135 -53 266 -93 366 -53 133 -149 294 -175 294 -7 0 -32 -21 -54 -47z m87 -56
c15 -24 40 -70 55 -103 l29 -59 -58 -93 c-31 -51 -60 -90 -65 -85 -15 16 -109
196 -109 210 0 32 90 173 110 173 6 0 23 -19 38 -43z m-119 -284 c28 -54 51
-105 51 -113 0 -9 -13 -41 -29 -71 -16 -30 -37 -80 -47 -112 -10 -31 -21 -54
-25 -50 -3 5 -25 51 -47 103 -36 85 -39 100 -32 140 14 77 58 200 70 200 4 0
30 -44 59 -97z m254 -15 c55 -180 55 -174 2 -272 -26 -48 -49 -85 -52 -82 -2
2 -11 30 -19 63 -9 32 -29 88 -46 125 l-31 68 54 90 c30 49 57 90 61 90 3 0
17 -37 31 -82z m-144 -200 c37 -94 61 -210 68 -332 l6 -119 -114 7 c-62 4
-116 9 -118 12 -7 7 19 173 40 259 22 87 76 225 89 225 4 0 17 -24 29 -52z
m-184 -218 c3 -19 -1 -73 -8 -120 l-13 -85 -39 3 c-52 4 -64 16 -59 55 2 18
11 99 20 182 8 82 18 153 21 158 7 12 72 -147 78 -193z m402 -42 l6 -176 -44
-4 c-24 -3 -48 -2 -53 3 -4 4 -9 54 -10 111 -1 100 0 105 37 182 25 53 41 76
47 70 6 -6 13 -89 17 -186z"/>
<path d="M4461 2662 c-7 -14 -11 -145 -11 -396 0 -314 2 -377 14 -389 10 -9
48 -17 102 -22 78 -6 89 -5 101 11 15 21 17 171 6 552 -5 209 -8 242 -22 246
-9 3 -53 8 -98 11 -75 6 -82 5 -92 -13z m167 -399 l2 -363 -65 0 -65 0 0 363
c0 200 2 366 4 368 3 2 31 2 63 -1 l58 -5 3 -362z"/>
<path d="M3990 8491 c0 -5 42 -33 93 -62 177 -102 500 -313 924 -605 602 -415
1188 -782 1483 -930 310 -154 513 -213 851 -243 223 -21 600 -6 1004 40 146
16 155 19 155 36 0 12 -7 14 -37 10 -287 -46 -861 -76 -1093 -58 -216 17 -366
45 -535 99 -110 35 -349 145 -500 229 -268 151 -806 496 -1345 863 -404 276
-536 364 -720 478 -80 50 -167 104 -194 121 -47 30 -86 40 -86 22z"/>
<path d="M4752 8491 c2 -5 77 -58 168 -119 229 -152 397 -277 687 -509 430
-345 568 -440 808 -558 545 -268 1194 -343 2003 -233 60 8 82 15 82 26 0 11
-9 13 -46 7 -94 -14 -215 -25 -449 -41 -207 -15 -268 -15 -440 -5 -407 25
-658 76 -960 193 -294 115 -510 252 -935 597 -297 241 -550 430 -765 570 -55
36 -101 69 -103 73 -5 11 -54 10 -50 -1z"/>
<path d="M5920 8491 c0 -9 360 -278 525 -393 353 -245 718 -414 1075 -497 256
-59 400 -80 777 -111 166 -14 203 -13 203 4 0 10 -40 16 -172 25 -736 51
-1167 173 -1653 464 -147 88 -691 477 -710 507 -8 13 -45 13 -45 1z"/>
<path d="M6630 8491 c0 -5 17 -16 38 -24 20 -8 78 -34 127 -57 200 -94 463
-213 510 -232 28 -11 64 -26 80 -33 17 -8 68 -28 115 -46 300 -110 574 -167
888 -185 94 -5 112 -3 112 9 0 18 -49 27 -148 27 -40 0 -106 5 -145 10 -179
26 -217 33 -302 50 -173 37 -425 120 -590 195 -16 8 -75 34 -130 58 -135 60
-302 137 -446 206 -65 31 -109 40 -109 22z"/>
</g>
</svg>
