<?xml version="1.0" standalone="no"?>
<!DOCTYPE svg PUBLIC "-//W3C//DTD SVG 20010904//EN"
 "http://www.w3.org/TR/2001/REC-SVG-20010904/DTD/svg10.dtd">
<svg version="1.0" xmlns="http://www.w3.org/2000/svg"
 width="850.000000pt" height="850.000000pt" viewBox="0 0 850.000000 850.000000"
 preserveAspectRatio="xMidYMid meet">
<metadata>
Created by potrace 1.14, written by Peter Selinger 2001-2017
</metadata>
<g transform="translate(0.000000,850.000000) scale(0.100000,-0.100000)"
fill="#000000" stroke="none">
<path d="M7705 7931 c-106 -48 -163 -158 -135 -261 23 -86 139 -170 234 -170
110 0 206 100 206 215 0 90 -50 164 -142 211 -56 29 -108 30 -163 5z m171 -56
c62 -36 89 -86 89 -161 0 -85 -18 -104 -97 -104 -70 0 -112 19 -133 60 -18 34
-19 64 -4 91 13 25 55 42 82 33 20 -6 19 -7 -6 -21 -34 -17 -35 -47 -3 -68 47
-31 98 22 75 76 -22 53 -87 73 -139 43 -62 -37 -79 -122 -36 -184 26 -39 48
-53 116 -75 l45 -14 -71 2 c-77 3 -119 23 -159 76 -30 40 -28 154 3 199 52 72
159 94 238 47z"/>
<path d="M4129 7875 c-29 -16 -59 -56 -59 -79 0 -13 -10 -15 -60 -9 -58 6 -60
5 -96 -31 -30 -30 -35 -42 -32 -69 3 -17 8 -39 12 -48 6 -13 0 -18 -28 -23
-48 -9 -96 -65 -96 -112 0 -42 14 -72 46 -99 l24 -21 -21 -42 c-21 -41 -21
-44 -4 -87 17 -45 36 -62 84 -75 20 -5 26 -13 27 -39 1 -18 12 -43 25 -58 20
-21 31 -24 67 -20 27 3 42 1 42 -7 1 -16 32 -51 57 -65 33 -17 82 -13 114 10
l29 20 32 -23 c68 -48 158 -15 180 67 11 41 13 43 44 38 42 -7 101 22 121 60
10 20 14 46 11 79 -5 46 -3 50 23 64 36 18 59 62 59 110 0 30 -7 44 -40 75
l-40 38 20 33 c51 84 -4 188 -100 188 -26 0 -30 4 -30 26 0 17 -14 40 -39 65
-33 33 -45 39 -83 39 -42 0 -84 -19 -101 -47 -7 -11 -17 -6 -48 22 -43 39 -92
46 -140 20z m112 -54 c44 -44 38 -57 -28 -64 -32 -4 -67 -8 -78 -9 -42 -6 -26
74 18 92 38 15 58 11 88 -19z m231 -11 c25 -26 29 -36 24 -63 -4 -17 -13 -38
-21 -47 -14 -13 -18 -12 -43 3 -15 10 -44 25 -64 33 -47 20 -49 43 -7 78 41
34 73 33 111 -4z m-432 -78 l22 -18 -50 -52 -51 -53 -15 23 c-28 46 -29 66 -2
93 30 29 65 32 96 7z m220 -16 c0 -2 -26 -13 -58 -25 -125 -45 -191 -122 -199
-234 -4 -54 -1 -69 24 -117 71 -136 253 -163 354 -53 42 44 59 87 59 145 -1
175 -204 240 -318 102 -98 -119 54 -294 186 -214 38 24 65 79 56 115 -8 34
-59 75 -93 75 -44 0 -81 -41 -81 -88 0 -45 18 -65 52 -60 28 4 39 54 14 64
-26 10 -18 24 13 24 41 0 57 -22 41 -59 -23 -55 -93 -63 -144 -16 -78 73 -7
185 117 185 40 0 54 -5 77 -28 35 -35 45 -85 31 -140 -35 -130 -188 -175 -284
-84 -43 40 -57 75 -57 140 0 111 76 187 216 217 102 22 119 20 162 -19 141
-128 111 -360 -59 -445 -137 -69 -299 -21 -373 109 -26 47 -30 64 -30 125 2
141 81 241 219 275 33 9 75 12 75 6z m357 -21 c27 -19 38 -67 22 -97 -15 -29
-49 -57 -71 -58 -19 0 -81 107 -72 122 6 9 81 47 94 48 3 0 15 -7 27 -15z
m-685 -134 c5 -5 -6 -84 -18 -128 -5 -20 -52 -15 -74 7 -42 42 -31 108 23 130
21 8 55 4 69 -9z m702 -81 c34 -13 60 -54 52 -84 -10 -41 -33 -56 -87 -56
l-50 0 6 63 c4 34 8 68 10 75 5 14 34 16 69 2z m-690 -172 c27 -59 28 -62 10
-75 -10 -7 -26 -13 -36 -13 -28 0 -68 45 -68 76 0 28 34 74 54 74 6 0 24 -28
40 -62z m641 -33 c74 -73 -35 -174 -112 -103 l-21 20 34 45 c19 24 34 49 34
54 0 18 41 8 65 -16z m-521 -108 c8 -12 5 -22 -14 -42 -26 -27 -49 -32 -68
-13 -18 18 -14 49 10 75 19 20 24 21 42 10 11 -8 24 -21 30 -30z m350 -15 c3
-5 8 -27 12 -49 5 -34 2 -45 -15 -62 -45 -45 -125 -12 -119 51 3 26 9 32 53
48 62 22 63 22 69 12z m-231 -23 c60 -12 64 -19 47 -63 -14 -37 -51 -52 -89
-37 -32 14 -43 39 -34 82 6 33 2 32 76 18z"/>
<path d="M6544 7640 c-30 -10 -96 -72 -106 -101 -3 -10 -16 -4 -46 23 -69 63
-141 69 -211 19 -34 -25 -65 -98 -59 -140 l4 -29 -62 -4 c-117 -7 -198 -94
-198 -212 1 -68 19 -112 66 -163 l30 -31 -41 -50 c-47 -55 -75 -131 -65 -177
12 -61 51 -112 106 -139 28 -14 62 -26 74 -26 23 0 23 -1 8 -37 -36 -84 -13
-191 49 -235 46 -33 142 -37 200 -9 55 27 57 27 57 -8 0 -71 88 -141 178 -141
84 0 171 58 188 126 7 29 5 29 57 2 50 -26 137 -29 182 -5 37 19 78 62 100
106 17 34 18 126 1 164 -7 14 -3 17 18 17 56 0 134 57 155 113 25 66 9 132
-46 189 l-35 36 30 16 c64 33 100 119 81 191 -16 60 -82 120 -140 129 l-46 7
13 37 c7 20 13 47 14 60 1 55 -54 138 -112 168 -40 21 -127 18 -166 -6 -18
-11 -36 -20 -40 -20 -4 0 -15 19 -26 41 -34 73 -130 114 -212 89z m133 -60
c32 -19 67 -72 56 -84 -4 -3 -15 -6 -26 -6 -23 0 -87 -62 -87 -84 0 -26 -17
-18 -30 14 -15 36 -50 60 -89 60 -39 0 -44 10 -23 49 37 68 131 93 199 51z
m-338 -26 c15 -9 37 -31 50 -50 l23 -33 -21 -30 c-12 -16 -21 -43 -21 -60 0
-17 -2 -31 -5 -31 -3 0 -24 12 -47 28 -33 21 -53 27 -94 26 -51 0 -53 1 -59
32 -7 40 14 95 46 118 30 20 93 21 128 0z m641 -62 c67 -33 93 -128 56 -200
-14 -28 -21 -33 -39 -27 -48 16 -95 16 -131 1 -37 -15 -37 -15 -29 7 4 12 8
50 8 84 0 51 -4 66 -24 87 l-23 25 33 20 c42 26 102 27 149 3z m-199 -71 c49
-50 37 -130 -39 -251 -19 -30 -36 -57 -37 -58 -2 -2 -20 2 -39 9 l-36 13 0 81
c0 79 21 176 43 204 12 14 44 29 65 30 8 1 27 -12 43 -28z m-252 9 c33 -17 51
-83 51 -189 l0 -99 -35 -6 c-20 -4 -40 -4 -46 0 -6 3 -28 43 -50 87 -46 95
-53 163 -19 197 21 21 69 26 99 10z m-400 -69 c10 -7 11 -13 1 -31 -7 -14 -10
-46 -8 -81 3 -46 11 -69 36 -104 l32 -45 -50 0 c-61 0 -94 -12 -125 -46 -29
-32 -42 -25 -82 43 -22 37 -25 53 -21 107 4 73 34 122 90 149 35 18 104 22
127 8z m195 -42 c41 -37 126 -179 126 -211 -1 -7 -11 -26 -24 -41 l-23 -28
-65 26 c-72 29 -140 81 -163 126 -31 60 -13 151 34 167 39 13 67 3 115 -39z
m651 -93 c40 -17 55 -42 55 -91 0 -55 -33 -79 -150 -107 l-100 -25 -21 36
c-17 30 -19 38 -8 58 26 48 84 106 123 124 50 22 57 23 101 5z m200 -26 c28
-23 45 -67 45 -116 0 -42 -4 -51 -40 -86 -47 -43 -55 -46 -70 -18 -6 11 -25
27 -43 36 -18 9 -34 18 -36 20 -2 2 6 15 18 30 23 29 29 106 11 134 -7 11 -5
17 7 21 23 8 89 -5 108 -21z m-499 -131 c53 -32 83 -116 64 -174 -36 -108
-150 -156 -244 -102 -96 54 -107 187 -22 266 37 34 41 21 11 -34 -57 -108 -6
-225 99 -225 71 0 116 51 116 131 0 33 -6 47 -34 75 -39 39 -67 43 -114 14
l-32 -20 26 51 c25 50 26 51 62 44 20 -4 51 -15 68 -26z m-371 -42 c75 -26 71
-20 67 -100 -2 -32 -5 -34 -62 -50 -145 -41 -290 0 -290 82 0 40 18 77 44 90
33 17 162 5 241 -22z m335 -47 c13 -13 20 -33 20 -60 0 -79 -74 -107 -131 -51
-21 21 -29 39 -28 63 0 18 3 26 6 18 20 -56 84 -77 119 -39 22 24 10 52 -25
57 -11 2 -21 10 -21 18 0 21 37 17 60 -6z m418 -6 c17 -11 22 -24 22 -54 0
-84 -65 -99 -225 -52 -58 17 -60 19 -63 54 l-3 35 63 17 c112 28 161 28 206 0z
m-1038 -108 c28 -23 86 -46 118 -46 17 0 16 -4 -18 -40 -16 -17 -32 -48 -35
-68 -4 -20 -8 -43 -10 -49 -11 -35 -124 8 -155 59 -17 26 -20 45 -18 95 4 56
8 67 38 98 l35 36 7 -30 c5 -16 22 -41 38 -55z m1163 -37 c43 -82 -26 -199
-118 -199 -23 0 -25 4 -25 41 0 44 -11 72 -43 107 l-20 22 27 0 c43 0 94 29
108 61 11 25 15 27 33 15 11 -7 28 -28 38 -47z m-770 -16 c24 -33 25 -38 12
-64 -20 -38 -132 -137 -182 -160 -135 -62 -173 135 -39 205 36 18 146 54 172
55 6 1 23 -15 37 -36z m422 7 c128 -44 174 -91 161 -165 -11 -59 -66 -81 -125
-51 -32 17 -88 77 -127 135 l-26 40 22 31 c12 16 25 30 29 30 4 0 34 -9 66
-20z m-297 -205 c-3 -76 -10 -120 -21 -142 -40 -76 -177 -41 -177 45 0 41 38
108 97 172 51 55 57 58 80 47 25 -11 25 -12 21 -122z m192 66 c86 -145 84
-232 -7 -262 -43 -14 -83 1 -106 40 -20 34 -39 152 -35 217 3 46 4 48 43 60
22 6 45 12 52 13 7 1 30 -30 53 -68z m-604 -116 c45 -41 102 -41 174 2 3 2 5
-18 5 -45 0 -33 7 -57 23 -79 l23 -32 -42 -28 c-56 -37 -140 -43 -187 -14 -37
24 -52 55 -52 109 0 36 17 112 25 112 2 0 16 -11 31 -25z m736 -5 c42 -25 82
-25 118 0 l28 20 11 -32 c39 -111 -40 -222 -156 -220 -43 1 -103 27 -110 47
-2 6 7 15 19 20 50 23 75 97 54 163 -9 27 -5 27 36 2z m-246 -162 c11 -9 31
-21 46 -27 25 -9 26 -13 18 -42 -46 -158 -302 -135 -288 26 l3 39 48 -3 c45
-2 51 0 85 36 l37 39 16 -25 c9 -14 25 -34 35 -43z"/>
<path d="M1635 7511 c-38 -23 -61 -49 -74 -84 -10 -27 -12 -27 -33 -12 -92 64
-222 20 -264 -90 -15 -42 -15 -62 2 -121 5 -19 0 -22 -33 -29 -118 -22 -173
-157 -103 -253 17 -23 33 -42 38 -42 4 0 13 -4 21 -9 12 -8 8 -17 -22 -50 -91
-101 -41 -247 93 -271 24 -4 34 -11 31 -21 -23 -78 -10 -149 37 -201 65 -72
151 -89 229 -44 l43 25 19 -44 c52 -119 237 -138 309 -32 12 18 22 45 22 60 0
33 4 33 70 4 32 -14 49 -27 42 -31 -7 -4 -12 -18 -12 -32 0 -27 -12 -31 -30
-9 -14 17 -43 19 -71 5 -25 -14 -25 -65 1 -108 13 -21 16 -32 8 -29 -65 27
-87 30 -113 13 -29 -19 -32 -51 -9 -84 15 -22 14 -23 -15 -33 -70 -25 -64
-119 7 -119 29 0 28 -7 -8 -40 -37 -35 -40 -77 -7 -108 13 -12 31 -22 41 -22
14 0 16 -6 11 -30 -5 -23 -1 -35 19 -55 31 -31 44 -31 90 0 20 13 36 23 36 21
0 -2 -6 -21 -14 -42 -7 -22 -11 -45 -9 -51 3 -7 -4 -16 -14 -19 -10 -3 -32
-12 -49 -21 -30 -14 -34 -14 -79 12 -51 31 -64 25 -65 -25 0 -41 -22 -73 -51
-76 -70 -7 -117 -56 -128 -133 -6 -45 -7 -46 -46 -51 -22 -3 -40 -10 -40 -17
0 -6 21 -28 48 -48 26 -20 47 -37 47 -39 0 -2 -7 -20 -16 -41 -20 -49 -11 -87
33 -136 l35 -39 -22 -36 c-29 -46 -16 -57 56 -50 39 5 55 2 64 -9 7 -9 10 -18
6 -22 -9 -9 -107 -9 -137 0 -38 12 -82 -27 -83 -75 l-1 -36 -51 5 c-43 5 -55
2 -73 -16 -23 -23 -26 -46 -11 -85 7 -20 5 -38 -10 -77 -11 -27 -20 -54 -20
-59 0 -19 40 -50 65 -50 22 0 24 -3 15 -19 -16 -31 4 -68 42 -79 18 -5 50 -26
71 -47 31 -31 42 -36 65 -30 32 8 72 43 72 63 0 7 6 12 13 9 27 -9 6 -42 -128
-199 -77 -89 -162 -192 -189 -228 -26 -36 -123 -210 -215 -385 -193 -370 -239
-455 -249 -455 -4 0 -16 7 -26 15 -43 33 -109 1 -121 -58 -11 -47 -14 -49 -42
-27 -41 32 -95 27 -128 -12 -30 -35 -28 -63 6 -110 l20 -28 -38 0 c-47 0 -93
-40 -93 -82 0 -34 39 -78 70 -78 28 0 26 -4 -21 -47 -52 -49 -57 -94 -14 -131
24 -20 37 -23 74 -20 l46 5 -3 -41 c-7 -86 71 -115 135 -51 40 40 43 41 43 19
0 -23 55 -74 79 -74 32 0 26 -31 -20 -120 -35 -66 -41 -86 -36 -116 7 -44 49
-91 89 -99 16 -4 27 -10 26 -13 -27 -49 -38 -89 -33 -111 4 -14 32 -53 64 -86
44 -46 60 -72 70 -110 34 -135 73 -187 151 -200 33 -6 51 -2 91 18 l50 24 11
-21 c39 -77 87 -90 165 -46 50 29 62 31 107 26 149 -19 163 -19 194 3 16 11
35 35 42 53 8 18 15 35 16 37 2 2 15 -6 30 -18 32 -25 109 -29 141 -6 11 8 38
44 59 79 23 40 54 76 81 95 52 37 78 89 68 138 l-6 33 62 0 c98 0 135 -15 159
-66 48 -99 163 -165 302 -174 l88 -5 19 -38 c10 -20 17 -37 15 -37 -1 0 -29 7
-60 15 -62 16 -90 13 -146 -18 -98 -53 -85 -163 26 -220 l30 -14 -38 -18
c-134 -64 -114 -259 27 -260 23 0 54 3 69 8 l28 7 -26 -47 c-44 -83 -19 -172
58 -201 47 -18 101 -3 155 43 l41 35 11 -47 c8 -28 25 -59 46 -80 30 -30 39
-33 89 -33 50 0 60 4 92 33 31 28 37 42 42 85 l4 51 29 -14 c70 -37 156 -8
185 61 19 46 18 78 -6 124 -11 22 -20 41 -20 42 0 2 18 4 40 5 50 2 111 36
133 73 10 15 17 46 17 69 0 33 -6 47 -35 75 -20 20 -49 38 -69 41 l-34 7 43
41 c24 23 46 56 50 72 11 52 14 55 37 55 13 0 75 -18 138 -40 160 -56 233 -56
296 2 21 19 22 19 69 -7 59 -31 106 -32 235 -5 52 11 123 20 157 20 62 0 63
-1 77 -33 7 -18 32 -49 55 -69 l42 -36 -37 -7 c-43 -8 -99 -59 -109 -98 -20
-79 54 -157 150 -159 l44 -1 -19 -38 c-36 -70 -21 -151 36 -194 25 -19 114
-19 140 0 21 14 22 13 28 -30 11 -82 58 -125 136 -125 23 0 55 7 70 17 34 19
70 80 70 117 0 33 10 33 41 0 26 -29 93 -63 122 -64 35 0 88 32 104 64 22 42
19 109 -6 152 -12 19 -21 37 -21 39 0 1 18 -2 40 -7 59 -15 104 -3 139 38 26
29 31 43 31 84 0 41 -5 55 -31 85 -18 20 -45 43 -61 51 l-30 15 44 28 c58 37
84 88 68 136 -27 82 -134 117 -248 80 l-23 -8 18 39 c9 22 18 40 19 42 0 1 21
-7 47 -18 106 -47 214 -46 322 4 63 29 139 102 154 149 9 27 19 35 56 45 75
20 136 16 175 -13 19 -14 47 -25 62 -25 34 0 34 -2 6 -41 -17 -23 -23 -44 -23
-86 0 -51 2 -57 40 -90 22 -19 52 -46 67 -60 15 -13 35 -40 44 -59 9 -18 32
-48 52 -65 31 -28 40 -31 84 -27 26 3 56 12 66 22 27 23 37 20 47 -16 6 -19
24 -42 45 -56 38 -26 60 -26 171 -1 55 12 58 12 117 -19 34 -18 71 -32 83 -32
21 0 92 62 101 89 3 12 10 11 35 -7 22 -15 46 -22 80 -22 86 0 141 54 164 160
17 81 33 111 88 164 46 43 51 53 51 91 0 27 -7 51 -20 68 -26 32 -25 37 4 37
14 0 40 14 60 34 51 47 50 94 -4 191 -37 68 -40 78 -40 154 0 78 1 81 19 71
33 -17 76 -12 99 13 24 25 30 86 12 131 -5 14 -8 26 -6 26 2 0 24 -11 47 -25
55 -31 70 -31 97 -2 28 30 28 66 -2 109 l-24 36 41 5 c57 8 91 36 95 79 2 29
-2 40 -23 57 -15 11 -42 23 -61 27 l-33 6 24 36 c30 45 31 62 4 96 -35 45
-114 31 -181 -32 l-28 -26 0 56 c0 96 -33 148 -93 148 -34 0 -77 -33 -77 -58
0 -23 -18 -11 -71 46 -127 137 -298 365 -553 737 -87 127 -174 247 -194 268
-36 37 -36 37 -11 37 14 0 33 -8 43 -19 22 -25 123 -23 138 2 5 9 17 17 26 17
22 0 42 19 42 39 0 8 6 22 14 30 22 25 30 116 11 131 -8 7 -15 20 -15 30 0 18
-30 50 -46 50 -5 0 -18 9 -27 21 -13 15 -25 19 -42 15 -13 -3 -27 -2 -30 4 -9
15 -41 12 -55 -5 -7 -9 -15 -14 -17 -12 -9 9 74 87 93 87 33 0 58 34 51 70 -6
26 -4 30 17 30 28 0 56 29 56 59 0 12 -7 36 -16 53 -15 29 -15 55 1 105 5 16
0 29 -20 49 -23 23 -32 26 -76 22 l-49 -5 0 32 c0 42 -28 77 -60 76 -14 -1
-60 -2 -103 -4 -69 -2 -81 -5 -98 -26 -10 -13 -19 -30 -19 -38 0 -10 -6 -13
-16 -9 -9 3 -19 6 -23 6 -3 0 -6 21 -6 47 l0 48 55 22 c30 12 55 26 55 32 0 6
-16 19 -35 29 -25 12 -34 23 -32 37 17 94 -3 143 -71 180 -36 20 -37 21 -37
83 0 69 -3 71 -71 51 -36 -11 -40 -10 -74 20 -44 39 -105 42 -171 10 l-42 -22
-56 32 c-31 17 -58 31 -60 31 -3 0 -8 -27 -12 -61 -6 -53 -10 -62 -33 -70 -82
-30 -106 -66 -97 -145 5 -47 4 -55 -16 -68 -12 -9 -27 -16 -33 -16 -5 0 -28
28 -50 63 -53 83 -111 145 -151 162 -30 12 -33 18 -40 71 -5 47 -1 256 9 434
2 29 -2 36 -24 44 -34 12 -107 -22 -130 -60 l-16 -26 -20 33 c-11 19 -23 54
-27 79 -9 61 -42 164 -66 209 -18 34 -41 165 -55 313 -8 87 -21 99 -80 70 -76
-37 -124 -146 -112 -253 4 -27 2 -47 -2 -44 -18 11 -62 97 -131 256 -80 185
-94 209 -116 209 -27 0 -74 -40 -96 -83 -33 -61 -30 -186 5 -282 42 -116 55
-156 72 -235 9 -41 34 -112 56 -157 21 -45 39 -88 39 -95 0 -7 11 -60 25 -117
14 -57 24 -106 21 -108 -2 -2 -56 23 -121 56 -64 34 -126 61 -138 61 -12 0
-80 -32 -152 -71 -71 -38 -171 -90 -221 -114 l-91 -45 -48 -105 c-26 -58 -51
-105 -55 -105 -4 0 -10 32 -12 70 -6 84 -8 86 -137 183 -52 39 -149 124 -216
189 -99 95 -128 118 -151 118 -16 0 -67 -21 -113 -45 -46 -25 -86 -44 -88 -41
-2 2 2 28 11 57 8 30 17 71 21 91 3 21 17 62 31 92 26 57 74 234 74 275 0 13
14 53 32 89 28 57 32 75 32 146 0 62 -6 98 -24 145 -25 68 -81 134 -108 129
-23 -4 -51 -66 -107 -238 -27 -80 -54 -152 -60 -160 -7 -8 -24 -35 -38 -60
l-27 -45 0 76 c0 102 -23 172 -75 226 -49 51 -90 58 -105 19 -5 -13 -18 -95
-29 -182 -11 -88 -31 -202 -45 -254 -13 -52 -27 -124 -31 -159 -6 -51 -25
-103 -51 -140 -2 -1 -20 11 -42 28 -46 38 -108 52 -118 28 -3 -9 4 -73 17
-143 20 -111 21 -135 11 -202 -6 -43 -20 -107 -32 -144 -18 -58 -27 -72 -63
-97 -54 -37 -130 -118 -191 -203 -26 -38 -51 -68 -55 -68 -4 0 -26 20 -50 44
l-42 43 20 34 c32 52 28 104 -12 143 -17 18 -38 35 -46 37 -11 4 -11 15 -1 63
10 50 10 59 -4 69 -13 11 -13 14 0 32 14 19 16 19 25 3 5 -10 18 -22 28 -28
26 -13 71 22 71 57 0 20 4 24 18 18 40 -17 54 -17 72 0 25 23 25 59 0 100
l-20 32 45 -15 c41 -13 47 -13 70 2 30 20 32 45 4 80 l-20 26 29 0 c35 0 72
36 72 71 0 31 -38 69 -68 69 -29 0 -28 6 8 37 47 39 37 100 -18 117 -10 3 -41
0 -70 -7 l-51 -14 29 34 c31 35 39 80 18 101 -16 16 -60 15 -84 -3 -28 -21
-35 -18 -24 11 25 64 -46 110 -96 63 -20 -18 -24 -19 -24 -6 0 22 -37 46 -61
40 -11 -3 -25 -17 -33 -30 l-13 -25 -17 27 c-10 15 -16 28 -14 29 2 1 18 8 36
16 18 7 42 26 53 42 38 52 41 101 14 201 -7 25 -5 27 21 27 44 0 106 41 131
85 42 74 24 173 -41 234 -32 30 -32 42 -5 67 37 34 62 95 62 154 0 114 -85
200 -198 200 l-45 0 0 48 c0 142 -180 195 -266 79 -11 -15 -18 -18 -21 -9 -9
25 -56 73 -84 87 -40 21 -117 19 -154 -4z m138 -35 c61 -25 90 -96 39 -96 -35
0 -68 -23 -88 -62 l-16 -32 -13 31 c-15 35 -60 73 -86 73 -22 0 -23 7 -5 39
16 29 71 60 109 61 15 0 42 -6 60 -14z m318 -46 c26 -26 30 -36 27 -77 l-3
-47 -45 2 c-37 3 -53 -2 -88 -27 l-42 -31 0 24 c0 13 -11 40 -25 61 l-26 37
44 44 c38 38 50 44 86 44 34 0 49 -6 72 -30z m-588 -47 l27 -14 -22 -30 c-24
-32 -30 -88 -15 -146 l8 -33 -28 15 c-33 18 -86 19 -115 4 -18 -10 -25 -8 -39
9 -50 62 -22 168 53 202 46 21 80 19 131 -7z m146 -70 c25 -31 41 -106 41
-191 0 -67 0 -68 -32 -80 -30 -11 -34 -10 -50 10 -36 48 -78 138 -83 180 -12
95 71 150 124 81z m228 1 c22 -22 24 -31 19 -67 -7 -44 -74 -197 -86 -197 -4
0 -21 3 -38 6 -28 6 -31 10 -37 58 -9 72 9 174 36 203 30 31 73 30 106 -3z
m220 -59 c28 -20 39 -76 24 -125 -15 -50 -86 -113 -157 -140 -67 -25 -65 -25
-88 6 -17 24 -17 30 -5 67 32 97 130 207 184 207 11 0 30 -7 42 -15z m193 -8
c73 -48 94 -142 52 -223 -33 -64 -48 -72 -80 -42 -32 30 -94 52 -128 45 -14
-2 -23 -2 -21 2 44 82 59 127 54 165 -3 23 -9 50 -13 59 -10 28 93 24 136 -6z
m-795 -131 c19 -15 48 -47 65 -72 l31 -45 -20 -33 -21 -33 -82 19 c-103 25
-133 40 -145 75 -34 100 80 158 172 89z m-212 -37 c-5 -51 -3 -64 15 -89 l21
-28 -30 -12 c-16 -7 -34 -21 -40 -31 -12 -24 -37 -24 -65 -1 -48 38 -58 112
-24 168 22 34 56 52 102 53 l28 1 -7 -61z m484 -96 c9 -21 19 -42 21 -48 3 -5
-4 -2 -15 8 -22 19 -74 23 -104 7 -24 -13 -49 -61 -49 -95 0 -34 24 -80 52
-99 12 -9 40 -16 61 -16 32 0 46 7 78 39 33 32 39 45 39 80 0 25 -10 62 -25
91 -27 54 -23 63 14 29 53 -49 65 -135 29 -189 -52 -75 -118 -96 -192 -60
-117 56 -125 214 -13 269 63 31 84 28 104 -16z m425 -3 c95 -27 88 -139 -10
-168 -54 -17 -134 -15 -198 4 -48 14 -54 18 -54 42 0 15 -3 37 -6 48 -5 19 2
24 58 43 55 18 128 36 163 40 6 0 27 -4 47 -9z m-457 -60 c3 -6 -5 -14 -20
-20 -53 -20 -39 -70 20 -70 31 0 56 19 68 50 3 8 6 0 6 -18 2 -62 -74 -105
-122 -69 -10 6 -20 29 -23 49 -5 30 -2 41 19 62 28 28 42 32 52 16z m-253 -16
c55 -16 58 -18 58 -49 0 -33 -1 -33 -82 -55 -91 -25 -154 -22 -175 6 -21 29
-16 81 9 98 29 21 115 21 190 0z m875 -88 c10 -20 14 -47 11 -84 -4 -46 -10
-60 -36 -83 -32 -29 -102 -54 -113 -41 -3 4 -11 25 -17 48 -7 23 -23 53 -38
69 -14 15 -24 28 -22 30 2 1 24 8 50 14 49 14 91 50 103 89 7 23 7 23 27 5 11
-10 27 -31 35 -47z m-1115 -21 c12 -26 63 -55 97 -55 20 0 20 -1 -4 -36 -16
-24 -25 -51 -25 -75 0 -36 -2 -39 -30 -39 -47 0 -78 20 -100 65 -29 61 -25 98
18 148 20 23 30 22 44 -8z m767 -30 c94 -30 136 -62 152 -114 9 -31 8 -43 -5
-70 -25 -47 -58 -59 -103 -37 -47 22 -151 113 -169 148 -13 24 -12 30 9 62 12
19 25 35 29 36 4 0 43 -11 87 -25z m-421 -17 c20 -33 12 -51 -56 -128 -71 -81
-141 -98 -171 -41 -14 25 -14 77 -1 101 13 24 66 56 132 80 65 23 75 22 96
-12z m142 -162 c0 -146 -40 -216 -116 -202 -98 19 -99 117 -3 268 l30 46 45
-15 44 -15 0 -82z m1734 101 c17 -13 17 -16 -10 -71 -27 -55 -67 -96 -81 -83
-9 10 49 167 62 167 6 0 19 -6 29 -13z m-1596 -48 c101 -111 119 -189 51 -224
-30 -16 -67 -19 -94 -9 -28 11 -44 60 -51 159 -6 88 -5 99 11 111 28 21 33 18
83 -37z m1664 -106 c14 -83 -2 -179 -37 -222 -14 -16 -24 -46 -28 -83 -8 -64
-59 -228 -86 -273 -10 -17 -21 -53 -24 -80 -8 -52 -49 -168 -70 -196 -20 -27
-142 -101 -300 -184 l-147 -77 -135 -148 c-128 -141 -240 -248 -250 -239 -5 6
106 152 152 200 19 20 51 41 71 47 31 10 45 24 88 94 28 46 77 133 109 193 94
180 154 282 180 307 14 13 25 31 25 41 0 28 103 250 155 333 26 41 58 82 71
91 17 11 23 21 18 35 -3 10 0 41 7 69 12 44 16 50 49 59 38 10 76 45 106 97
23 41 29 31 46 -64z m1294 1 c40 -85 40 -105 3 -76 -31 25 -83 118 -75 137 13
34 38 13 72 -61z m-1756 -10 c0 -36 -21 -114 -30 -114 -8 0 -5 43 6 118 6 37
24 34 24 -4z m1743 -81 c19 -17 45 -34 56 -38 12 -3 21 -12 21 -19 0 -22 92
-195 171 -321 80 -128 103 -172 115 -220 4 -16 16 -36 26 -43 30 -22 91 -119
182 -291 47 -90 85 -165 84 -167 -2 -1 -34 4 -71 12 -80 16 -169 52 -327 131
l-115 58 -6 45 c-3 25 -15 70 -27 100 -13 31 -22 77 -22 107 0 41 -4 54 -19
63 -28 14 -81 160 -97 264 -7 49 -21 100 -29 113 -30 45 -65 153 -65 199 0 24
7 61 15 81 l15 36 28 -39 c16 -21 45 -53 65 -71z m-3310 37 c-6 -60 -6 -60 35
-99 l41 -39 -27 -18 c-66 -43 -164 -22 -210 46 -20 29 -23 45 -20 92 2 32 7
61 11 64 3 4 18 -1 31 -10 33 -21 74 -20 111 3 17 11 31 20 32 20 0 1 -1 -26
-4 -59z m697 34 c6 -14 10 -47 10 -74 0 -41 -5 -56 -29 -82 -27 -30 -34 -33
-88 -33 -48 0 -67 5 -101 27 l-41 28 25 37 c18 27 24 48 22 71 -2 17 -3 32 -2
32 1 0 19 -7 39 -16 45 -19 95 -12 120 16 24 26 34 25 45 -6z m940 -36 c23
-50 27 -182 9 -286 -12 -69 -91 -243 -145 -322 -17 -25 -57 -94 -87 -155 -34
-67 -57 -101 -57 -87 0 45 32 178 56 231 14 30 29 84 34 121 11 75 39 190 50
205 4 6 10 39 13 74 3 41 12 73 25 91 26 35 47 85 56 133 9 48 22 47 46 -5z
m2054 -70 c9 -78 8 -94 -5 -81 -14 14 -25 133 -12 133 6 0 13 -24 17 -52z
m-43 -68 c7 -19 23 -49 35 -66 13 -17 28 -55 34 -84 6 -29 21 -76 34 -104 29
-64 41 -103 57 -190 6 -38 22 -85 35 -103 21 -31 72 -218 62 -228 -2 -2 -21
26 -42 63 -39 69 -109 169 -131 187 -10 9 -62 121 -141 305 -38 90 -29 251 18
308 10 12 14 9 20 -19 4 -19 13 -50 19 -69z m-3368 55 c30 -30 42 -35 81 -35
l46 0 0 -46 c0 -37 -5 -51 -28 -74 -56 -56 -155 -49 -212 16 -32 37 -41 84
-15 84 19 0 85 58 85 76 0 20 4 18 43 -21z m341 -154 c13 -14 21 -53 30 -143
7 -67 12 -125 10 -126 -6 -8 -42 75 -63 142 -36 116 -24 179 23 127z m115 5
c9 -11 7 -40 -9 -128 -12 -62 -24 -120 -27 -128 -10 -24 -22 119 -16 185 7 78
26 103 52 71z m121 -11 c10 -12 9 -24 -5 -63 -21 -53 -74 -146 -104 -183 l-21
-24 6 35 c14 82 48 187 71 218 27 36 35 39 53 17z m-349 -37 c12 -13 39 -61
61 -108 73 -157 72 -162 -17 -60 -81 93 -109 143 -95 169 14 27 24 26 51 -1z
m467 -60 c2 -18 -8 -34 -40 -64 -44 -41 -171 -134 -182 -134 -7 0 86 133 118
169 26 29 78 62 91 58 6 -2 11 -15 13 -29z m-522 -78 c56 -32 162 -125 153
-134 -3 -3 -58 15 -123 40 -120 47 -147 70 -133 108 9 24 46 19 103 -14z m628
-36 c9 -8 16 -19 16 -23 0 -14 -44 -49 -81 -64 -56 -23 -190 -49 -234 -45
l-40 3 65 41 c36 23 86 50 110 61 25 11 56 24 70 31 36 16 76 14 94 -4z m-611
-85 c129 -43 134 -48 52 -51 -106 -3 -199 3 -212 14 -20 17 -15 48 10 58 36
14 53 12 150 -21z m225 -86 c14 -12 14 -13 0 -13 -21 0 -41 26 -32 42 6 9 9 9
12 -2 2 -8 11 -21 20 -27z m418 16 c18 -15 18 -34 -2 -53 -23 -24 -93 -20
-224 13 -127 31 -126 33 25 49 103 11 181 8 201 -9z m-386 1 c0 -5 -2 -10 -4
-10 -3 0 -8 5 -11 10 -3 6 -1 10 4 10 6 0 11 -4 11 -10z m-120 -4 c0 -2 -30
-21 -67 -41 -38 -21 -89 -51 -115 -67 -62 -39 -102 -36 -106 8 -4 40 32 71 91
78 23 3 71 9 107 14 88 12 90 13 90 8z m663 -52 c9 -44 1 -92 -13 -78 -5 5
-12 36 -16 68 -6 47 -4 58 7 54 7 -2 17 -22 22 -44z m-649 14 c-4 -7 -34 -48
-66 -90 -79 -105 -126 -136 -156 -106 -19 19 -14 53 13 78 20 18 202 130 213
130 2 0 0 -6 -4 -12z m3406 -20 c0 -13 -3 -46 -6 -75 -7 -55 -22 -62 -43 -17
-15 34 -14 65 5 92 20 29 44 29 44 0z m-3360 9 c0 -2 -9 -44 -19 -93 -33 -152
-62 -214 -101 -214 -28 0 -43 26 -35 62 12 54 125 248 145 248 5 0 10 -1 10
-3z m254 -29 c89 -24 144 -62 133 -93 -13 -32 -92 -5 -209 73 -38 25 -68 47
-68 50 0 6 46 -3 144 -30z m405 18 c16 -20 16 -35 -3 -156 -10 -58 -19 -118
-22 -135 -2 -16 -12 -40 -22 -53 -18 -23 -18 -20 -14 100 3 95 8 127 21 141
10 12 16 37 16 68 0 51 5 58 24 35z m-509 -55 c108 -84 156 -143 144 -175 -7
-18 -27 -20 -54 -6 -21 11 -90 105 -136 184 -30 53 -25 53 46 -3z m-94 -106
c23 -131 3 -195 -46 -150 -15 13 -20 31 -20 65 0 41 5 76 27 200 l6 35 8 -30
c5 -16 16 -70 25 -120z m3234 30 c8 -9 23 -21 35 -25 19 -7 20 -16 20 -149 0
-77 -3 -141 -6 -141 -3 0 -16 19 -29 41 -15 28 -25 68 -31 123 -4 44 -15 110
-24 146 -13 54 -14 71 -4 95 l13 30 5 -51 c4 -28 13 -59 21 -69z m-1780 6 c52
-54 149 -140 215 -191 66 -51 123 -98 127 -104 12 -21 11 -189 -1 -219 -6 -16
-11 -53 -11 -83 0 -30 -3 -54 -7 -54 -5 0 -31 13 -59 30 -68 39 -111 92 -125
155 -10 46 -9 57 10 100 25 57 25 55 7 55 -8 0 -23 -13 -33 -30 -21 -36 -23
-36 -72 -6 -52 33 -87 78 -108 137 -20 56 -36 59 -41 8 -4 -30 -13 -40 -90
-91 -108 -71 -166 -97 -214 -98 -31 0 -38 -4 -38 -20 0 -11 7 -20 15 -20 23 0
19 -9 -31 -62 -118 -126 -157 -372 -90 -572 14 -42 37 -93 50 -114 56 -87 159
-154 256 -166 237 -31 396 -59 432 -77 134 -69 218 -217 221 -394 3 -119 -12
-142 -30 -50 -16 78 -34 118 -71 157 -51 55 -124 45 -141 -18 -6 -20 -8 -41
-5 -46 8 -13 -2 -10 -46 13 -30 16 -40 27 -40 45 0 32 -18 31 -26 -1 -8 -33
-32 -32 -45 3 l-11 27 -15 -22 c-16 -23 -43 -31 -43 -13 0 13 -27 13 -32 -1
-2 -7 -48 -11 -123 -13 -142 -2 -147 -4 -498 -174 l-222 -107 -240 0 c-217 0
-333 9 -390 31 -10 4 -15 0 -15 -14 0 -28 19 -40 78 -48 28 -3 52 -10 52 -14
0 -4 -14 -25 -31 -46 -83 -104 -230 -393 -309 -607 -35 -93 -47 -116 -59 -112
-60 23 -114 3 -150 -55 l-18 -31 -21 35 c-48 82 -115 90 -224 27 -90 -52 -166
-73 -231 -65 l-48 7 19 21 c36 39 45 65 32 96 -25 60 -101 61 -176 4 -24 -19
-46 -34 -49 -34 -32 0 182 471 326 716 133 227 364 529 535 701 56 56 111 121
123 145 11 23 87 113 168 198 82 86 179 199 218 253 51 72 75 97 91 97 38 0
135 84 240 206 124 145 141 160 229 215 443 271 648 389 678 389 6 0 55 -44
107 -99z m-1334 -108 c8 -18 14 -37 14 -42 0 -16 -31 -42 -42 -35 -14 9 -37
65 -59 146 -31 112 -24 121 27 38 26 -41 53 -89 60 -107z m2443 22 c62 -30
190 -97 285 -149 185 -102 199 -107 355 -131 114 -18 187 -45 214 -78 10 -12
38 -53 63 -90 33 -50 43 -74 38 -91 -4 -19 -1 -26 16 -31 11 -4 35 -25 51 -48
25 -35 29 -47 24 -79 -12 -68 49 -148 111 -148 16 0 52 -38 133 -139 203 -255
356 -413 461 -473 106 -62 272 -261 485 -582 127 -193 279 -404 393 -545 29
-35 52 -67 52 -71 0 -4 -14 -10 -30 -14 -56 -11 -69 -87 -24 -137 13 -15 11
-17 -26 -23 -73 -12 -114 -83 -73 -128 31 -34 -27 -21 -102 23 -115 68 -199
62 -240 -16 l-18 -32 -42 43 c-53 56 -101 60 -157 14 l-36 -30 -15 23 c-8 13
-54 102 -102 198 -232 463 -403 754 -514 872 -36 38 -28 49 19 22 34 -20 50
-18 50 4 0 25 -16 36 -70 49 -55 13 -284 38 -480 52 -286 20 -332 28 -458 76
-153 59 -192 66 -305 53 -184 -21 -197 -22 -197 -10 0 20 -17 11 -29 -15 -11
-25 -13 -25 -30 -10 -23 21 -28 20 -34 -4 -7 -27 -23 -25 -43 5 -18 27 -34 25
-34 -5 0 -21 -48 -59 -80 -62 -17 -2 -24 5 -33 32 -7 19 -24 41 -38 49 -55 31
-153 -28 -181 -108 l-12 -36 -7 40 c-9 54 8 84 93 168 109 108 215 167 298
167 29 0 39 5 43 19 5 20 51 36 231 80 177 43 292 116 352 223 27 50 29 60 29
163 0 103 -2 114 -33 179 -68 145 -207 305 -338 391 -46 31 -94 69 -106 85
-26 35 -44 38 -53 9 -10 -30 -77 -56 -167 -64 l-76 -7 -7 31 c-3 16 -13 35
-22 43 -14 11 -15 6 -9 -47 7 -58 6 -62 -32 -121 -65 -101 -139 -147 -207
-130 -34 9 -33 46 5 107 35 57 64 151 55 179 -9 29 12 86 38 103 92 60 399
207 432 207 11 0 71 -25 134 -55z m-2623 -122 c10 -7 25 -13 33 -14 20 -1 -27
-17 -55 -18 -13 -1 -29 9 -38 24 -16 24 -16 27 6 57 l22 32 7 -34 c4 -19 15
-40 25 -47z m-207 -78 c24 -23 24 -26 12 -79 -8 -38 -17 -56 -28 -56 -8 0 -27
-7 -43 -16 -26 -16 -30 -16 -73 5 -63 31 -68 58 -30 171 8 25 17 51 19 58 4
14 100 -42 143 -83z m74 82 c18 -8 38 -21 45 -29 11 -13 7 -19 -28 -35 l-40
-20 -40 38 c-36 34 -38 39 -22 48 23 14 47 13 85 -2z m197 -64 c0 -5 -9 -45
-18 -89 -21 -94 -40 -129 -77 -138 -21 -5 -31 0 -56 29 -17 19 -42 38 -55 41
-28 7 -30 21 -10 69 19 45 56 67 135 81 85 16 81 15 81 7z m1392 -24 c7 -11
45 -44 83 -74 63 -47 72 -58 84 -103 27 -107 104 -188 207 -218 29 -8 58 -21
64 -29 7 -8 21 -15 31 -15 15 0 19 7 19 33 0 32 1 32 49 33 41 0 57 7 100 39
59 45 106 101 126 149 17 39 19 41 137 59 48 8 99 22 113 31 25 17 27 16 63
-12 20 -16 71 -52 113 -80 114 -76 253 -259 307 -405 29 -75 29 -175 2 -236
-58 -126 -147 -178 -445 -256 -55 -15 -113 -34 -130 -44 -16 -9 -52 -25 -80
-36 -99 -37 -257 -144 -320 -218 l-34 -39 -7 28 c-15 64 -64 152 -113 206 -85
92 -171 125 -386 144 -95 8 -180 30 -239 62 -101 55 -190 171 -215 283 -28
119 -1 294 61 412 43 79 96 133 183 185 39 22 95 59 125 81 62 46 84 50 102
20z m2676 -12 c13 -13 8 -18 -38 -40 l-53 -26 -30 30 c-16 17 -28 32 -25 34
26 27 119 28 146 2z m-209 -20 c73 -36 103 -79 99 -137 -3 -32 -6 -35 -40 -41
-21 -3 -46 -13 -56 -22 -27 -25 -59 -21 -79 10 -14 21 -18 45 -16 101 1 78 9
122 21 122 4 -1 36 -15 71 -33z m-4343 7 c-3 -9 -6 -30 -6 -49 0 -29 -4 -33
-32 -38 -18 -3 -41 -8 -50 -12 -32 -13 -23 51 11 86 33 32 88 42 77 13z m4674
-106 c-1 -57 -5 -99 -13 -109 -7 -8 -34 -21 -60 -28 -47 -11 -49 -11 -78 19
-17 16 -34 30 -39 30 -13 0 0 103 15 118 10 11 140 58 168 61 4 1 7 -41 7 -91z
m-4142 22 c30 -29 36 -61 18 -104 -8 -20 -17 -36 -20 -36 -6 0 -76 41 -76 44
0 1 9 21 20 44 11 22 20 48 20 57 0 20 12 19 38 -5z m1850 -68 c-24 -48 -48
-66 -48 -36 0 25 64 116 68 98 2 -8 -7 -36 -20 -62z m1832 34 c0 -18 3 -47 6
-63 5 -26 3 -29 -26 -31 -17 -1 -36 -3 -42 -5 -6 -1 -14 11 -19 26 -14 50 20
107 63 107 14 0 18 -8 18 -34z m-4149 -28 c28 -16 38 -26 33 -38 -4 -8 -9 -30
-13 -49 -5 -28 -12 -36 -44 -47 -50 -18 -84 -4 -156 63 l-54 49 54 21 c73 28
132 28 180 1z m202 0 c9 -7 19 -29 23 -48 l6 -35 -21 33 c-16 25 -28 32 -53
32 -41 0 -78 -34 -78 -73 0 -39 48 -87 88 -87 35 0 78 39 91 84 l9 31 1 -32
c1 -37 -41 -90 -74 -94 -44 -6 -94 12 -119 42 -30 36 -32 49 -9 96 24 52 98
79 136 51z m4501 -29 c24 -29 36 -86 20 -102 -4 -3 -25 4 -48 16 -22 12 -42
23 -44 23 -9 4 24 94 34 94 7 0 24 -14 38 -31z m-2440 -129 c7 -69 6 -74 -9
-59 -18 18 -31 105 -20 146 6 25 8 26 15 8 4 -11 10 -54 14 -95z m-2104 81 c0
-23 28 -35 46 -20 23 19 17 -8 -6 -31 -26 -26 -36 -25 -66 5 -20 20 -23 28
-14 45 14 25 40 26 40 1z m245 -10 c37 -17 124 -96 114 -104 -26 -21 -139 -69
-164 -70 -34 -1 -82 24 -91 48 -3 7 4 26 15 42 12 15 22 42 23 58 4 50 35 58
103 26z m4000 5 c50 -21 79 -89 59 -141 -16 -41 -127 -61 -171 -30 -28 20 -46
75 -35 105 8 21 10 19 15 -21 11 -85 91 -117 148 -60 16 16 29 39 29 51 0 26
-51 80 -76 80 -10 0 -28 -10 -41 -22 -29 -27 -30 -10 -2 26 24 30 28 31 74 12z
m-201 -26 c22 -8 24 -13 19 -44 -3 -19 0 -50 6 -68 11 -29 9 -35 -10 -50 -12
-10 -38 -18 -60 -18 -34 0 -48 8 -102 57 -34 31 -63 60 -65 63 -4 11 131 70
160 70 15 0 38 -4 52 -10z m-4344 -40 c14 -11 31 -20 38 -20 8 0 12 -3 10 -7
-43 -90 -56 -99 -82 -61 -16 23 -21 64 -10 92 8 20 13 20 44 -4z m4822 -10
c76 -50 76 -54 13 -90 -75 -43 -124 -49 -164 -21 -28 20 -30 26 -28 73 4 59
14 66 88 67 35 1 56 -6 91 -29z m-279 -2 c14 -21 2 -46 -28 -60 -21 -9 -28 -8
-45 7 -24 22 -29 65 -5 45 18 -15 45 -6 45 16 0 19 19 14 33 -8z m-4344 -19
l28 -20 -20 -40 c-33 -66 -115 -119 -185 -119 -20 0 -20 1 4 62 26 68 44 92
89 119 38 24 49 24 84 -2z m184 -77 c12 -21 17 -41 12 -59 -6 -31 -70 -123
-84 -123 -5 0 -24 24 -42 52 -25 38 -34 64 -34 94 0 57 13 69 77 68 48 0 54
-3 71 -32z m317 32 c0 -8 -95 -128 -115 -144 -13 -11 -13 -8 -4 19 6 18 9 43
6 57 -4 23 1 29 47 50 53 25 66 28 66 18z m3940 -64 c33 -17 60 -76 69 -147 5
-37 6 -71 4 -76 -7 -12 -82 35 -114 70 -26 30 -49 87 -49 124 0 16 32 37 58
38 7 1 22 -3 32 -9z m-4090 -32 c0 -15 -10 -39 -23 -54 -18 -21 -32 -27 -65
-27 -54 0 -59 6 -44 46 7 19 12 40 12 48 0 11 15 14 60 14 58 0 60 -1 60 -27z
m3927 15 c67 -12 57 -91 -20 -158 -28 -25 -54 -45 -58 -45 -8 0 -36 74 -45
116 -4 20 0 42 10 62 18 34 32 43 61 36 11 -3 35 -7 52 -11z m-231 -8 c16 -8
39 -15 52 -15 20 0 22 -5 22 -49 0 -31 -5 -51 -13 -54 -25 -9 -67 5 -87 31
-19 24 -27 82 -13 95 8 9 6 9 39 -8z m574 -26 c0 -31 -38 -79 -63 -79 -7 0
-17 18 -23 43 l-9 42 40 16 c48 19 55 16 55 -22z m-4593 -40 c26 -41 29 -51
17 -56 -27 -10 -88 6 -112 31 l-24 24 38 26 c21 14 41 26 44 25 3 0 19 -23 37
-50z m4911 -4 c2 -43 -1 -54 -21 -73 -20 -19 -28 -21 -52 -12 -15 6 -35 8 -44
5 -27 -8 -83 56 -79 91 3 28 4 29 56 26 29 -1 60 2 70 8 9 5 28 9 42 7 23 -2
25 -7 28 -52z m-4620 -63 c-174 -202 -203 -231 -206 -209 -2 12 -17 36 -33 55
-16 18 -29 41 -29 52 0 27 -42 52 -74 44 -23 -5 -26 -3 -26 20 0 23 2 25 26
16 14 -6 42 -7 63 -4 34 5 39 3 45 -17 6 -23 8 -22 51 25 41 46 46 49 70 38
36 -16 87 -15 111 3 35 26 36 16 2 -23z m4414 0 c36 -34 39 -41 29 -60 -6 -11
-11 -30 -11 -40 0 -21 -43 -42 -84 -42 -29 0 -86 36 -86 54 0 8 11 27 25 42
13 14 27 36 31 48 15 47 43 47 96 -2z m-357 -19 l28 -36 -22 -19 c-27 -21 -80
-24 -106 -4 -19 14 -18 16 25 55 25 22 46 40 46 41 1 0 14 -16 29 -37z m695
27 c15 0 19 -28 8 -62 -8 -28 -7 -42 10 -79 34 -74 -5 -91 -94 -39 -45 25 -52
34 -58 69 -4 26 -2 49 6 62 15 25 87 61 106 54 8 -3 17 -5 22 -5z m-476 -13
c-2 -7 -13 -18 -24 -25 -16 -10 -20 -10 -20 1 0 11 24 29 47 36 1 1 0 -5 -3
-12z m-4744 -19 c78 3 87 -25 31 -95 -18 -23 -31 -31 -46 -27 -11 3 -34 0 -50
-6 -24 -9 -32 -8 -48 8 -24 25 -34 96 -16 118 10 12 21 14 43 8 17 -4 56 -7
86 -6z m4641 -71 c31 -12 71 -35 89 -50 30 -26 31 -29 16 -46 -26 -29 -19 -55
27 -98 23 -21 52 -51 64 -66 28 -33 72 -36 98 -7 l19 21 13 -25 c8 -14 27 -33
43 -41 30 -15 30 -16 13 -43 -10 -15 -26 -33 -36 -41 -11 -8 -17 -23 -16 -40
2 -14 -3 -37 -10 -50 -14 -25 -2 -71 19 -71 7 0 9 -8 5 -20 -4 -12 -1 -28 7
-37 11 -14 11 -16 -2 -8 -45 26 -318 267 -400 352 -110 114 -224 259 -211 268
5 3 12 1 16 -5 3 -5 23 -14 43 -20 46 -12 101 1 127 30 10 11 19 20 19 20 1 0
26 -10 57 -23z m356 8 c7 -21 -4 -32 -19 -17 -17 17 -28 15 -28 -6 0 -23 19
-42 42 -42 23 0 52 45 44 67 -5 14 -4 15 4 7 6 -6 10 -24 8 -40 -3 -32 -38
-55 -69 -47 -28 8 -52 48 -44 73 8 24 53 28 62 5z m-4825 -46 c9 -19 23 -41
32 -48 9 -8 16 -24 16 -38 0 -34 -59 -58 -113 -46 -36 7 -41 12 -55 56 -15 46
-14 48 9 73 49 53 87 54 111 3z m-369 7 c56 -24 77 -55 70 -104 -5 -41 -9 -45
-66 -73 -88 -45 -132 -27 -91 36 13 19 15 38 10 79 -6 46 -5 56 11 65 24 14
28 13 66 -3z m5135 -56 c27 -22 24 -56 -9 -121 -24 -49 -45 -55 -72 -23 -12
15 -35 39 -50 54 -43 42 -34 71 28 92 65 21 75 21 103 -2z m183 -25 c56 -42
70 -72 43 -92 -10 -7 -23 -13 -30 -13 -7 0 -26 -17 -42 -37 -27 -34 -33 -37
-58 -28 -35 13 -48 51 -40 118 7 50 20 65 75 86 2 0 25 -15 52 -34z m-5101
-31 c0 -31 -25 -54 -60 -54 -16 0 -36 7 -44 16 -18 17 -21 50 -6 59 6 3 10 -2
10 -13 0 -46 69 -66 84 -25 9 23 -9 39 -28 24 -15 -13 -29 -2 -18 15 21 32 62
17 62 -22z m92 -70 c83 -24 86 -44 14 -118 l-55 -58 -25 25 c-13 13 -31 48
-40 77 -15 51 -15 53 7 71 27 23 28 23 99 3z m-160 -38 c4 -6 8 -38 8 -70 0
-97 -46 -126 -96 -61 -14 19 -34 35 -44 35 -9 0 -25 9 -35 20 -17 19 -17 21 1
41 10 12 36 35 58 50 37 28 39 28 70 12 17 -9 34 -21 38 -27z m5178 -96 c0 -5
-4 -10 -10 -10 -5 0 -10 5 -10 10 0 6 5 10 10 10 6 0 10 -4 10 -10z m70 -21
c0 -6 -4 -7 -10 -4 -5 3 -10 11 -10 16 0 6 5 7 10 4 6 -3 10 -11 10 -16z
m-130 1 c0 -5 -4 -10 -10 -10 -5 0 -10 5 -10 10 0 6 5 10 10 10 6 0 10 -4 10
-10z m188 -39 c3 -8 -1 -12 -9 -9 -7 2 -15 10 -17 17 -3 8 1 12 9 9 7 -2 15
-10 17 -17z m-238 -15 c0 -3 -4 -8 -10 -11 -5 -3 -10 -1 -10 4 0 6 5 11 10 11
6 0 10 -2 10 -4z m155 -12 c13 -8 30 -33 39 -55 14 -35 14 -43 1 -68 -17 -34
-33 -41 -87 -41 -55 0 -98 42 -98 97 0 21 5 45 11 53 8 12 9 10 4 -8 -9 -30
12 -90 35 -102 32 -17 78 -12 100 12 26 28 25 56 -2 85 -26 28 -49 29 -73 3
-15 -16 -16 -22 -5 -36 12 -14 15 -13 30 6 15 19 18 20 29 6 16 -19 9 -41 -19
-56 -17 -9 -24 -7 -45 14 -60 61 7 138 80 90z m113 -32 c2 -7 -3 -12 -12 -12
-9 0 -16 7 -16 16 0 17 22 14 28 -4z m-288 -47 c0 -8 -4 -15 -10 -15 -5 0 -10
7 -10 15 0 8 5 15 10 15 6 0 10 -7 10 -15z m280 -20 c0 -8 -4 -15 -10 -15 -5
0 -10 7 -10 15 0 8 5 15 10 15 6 0 10 -7 10 -15z m-242 -64 c3 -8 -1 -12 -9
-9 -7 2 -15 10 -17 17 -3 8 1 12 9 9 7 -2 15 -10 17 -17z m212 -1 c0 -5 -4
-10 -10 -10 -5 0 -10 5 -10 10 0 6 5 10 10 10 6 0 10 -4 10 -10z m-130 -40 c0
-5 -4 -10 -9 -10 -6 0 -13 5 -16 10 -3 6 1 10 9 10 9 0 16 -4 16 -10z m65 0
c-3 -5 -10 -10 -16 -10 -5 0 -9 5 -9 10 0 6 7 10 16 10 8 0 12 -4 9 -10z
m-2949 -79 c35 -22 72 -92 80 -155 10 -69 -9 -66 -87 11 -60 60 -69 74 -69
106 0 24 6 39 18 46 23 14 22 14 58 -8z m1149 -52 c55 -26 108 -49 118 -53 25
-8 201 -24 417 -36 293 -17 333 -26 412 -98 129 -116 334 -474 528 -922 35
-80 71 -154 82 -166 10 -11 18 -25 18 -30 0 -14 -34 -32 -71 -38 -19 -3 -51
-8 -71 -11 -21 -3 -52 -18 -69 -33 l-33 -27 8 25 c5 14 10 57 13 97 8 115 -30
208 -121 291 -110 102 -252 123 -379 57 -27 -14 -53 -25 -58 -25 -4 0 -30 14
-56 30 -117 75 -275 90 -379 37 -54 -27 -113 -78 -131 -112 -11 -18 -13 -17
-51 17 -21 19 -44 37 -51 39 -7 3 -2 22 15 54 37 71 29 132 -37 288 -81 191
-89 242 -52 330 20 46 12 55 -30 38 -141 -59 -226 -65 -374 -30 -168 41 -271
25 -338 -53 l-34 -41 -39 35 c-51 46 -116 70 -282 102 -87 17 -156 38 -194 56
-33 17 -61 30 -63 30 -2 0 -15 -26 -29 -57 -30 -69 -60 -102 -179 -198 -167
-135 -200 -185 -200 -307 l0 -76 -36 -16 c-35 -16 -101 -80 -125 -121 -10 -18
-14 -17 -58 22 -121 107 -301 111 -460 12 l-49 -30 -66 30 c-85 39 -136 46
-203 31 -73 -17 -123 -44 -179 -97 -49 -46 -109 -148 -109 -187 0 -39 -11 -44
-77 -36 -61 8 -99 26 -138 70 -19 21 -19 22 15 123 70 206 240 502 362 628 62
65 56 63 308 75 172 7 222 20 372 97 155 79 327 152 404 171 73 18 303 27 364
14 75 -17 121 -43 205 -118 93 -83 110 -92 175 -86 53 5 97 25 199 91 37 24
93 54 122 65 30 12 58 25 64 29 5 5 34 11 63 14 29 4 68 11 85 16 69 22 206
40 287 38 78 -2 93 -6 185 -48z m-785 21 c39 -39 27 -65 -55 -120 -109 -74
-109 -74 -102 -12 8 72 29 106 79 131 53 26 53 26 78 1z m-446 -250 c25 -10
105 -31 178 -46 166 -33 226 -55 272 -100 20 -19 36 -38 36 -42 0 -4 -19 -16
-42 -26 -23 -11 -64 -41 -90 -67 l-49 -47 -55 33 c-203 123 -546 18 -653 -199
-27 -55 -41 -48 -41 19 1 85 57 162 197 272 92 72 153 136 177 188 10 19 19
35 21 35 2 0 24 -9 49 -20z m866 -91 c106 -27 245 -29 309 -5 24 9 45 16 47
16 2 0 1 -17 -2 -39 -9 -56 9 -127 67 -259 61 -138 74 -223 44 -285 -21 -44
-26 -45 -42 -9 -38 84 -136 151 -236 161 l-60 6 -21 65 c-53 163 -171 255
-345 268 l-84 7 29 34 c15 18 42 40 59 47 45 20 139 17 235 -7z m-115 -153
c28 -13 67 -37 86 -54 37 -32 99 -137 99 -166 0 -15 -3 -15 -32 1 -52 27 -149
22 -228 -11 -36 -15 -69 -28 -74 -29 -5 -1 -23 25 -40 58 -17 33 -35 63 -41
67 -9 7 -36 -17 -54 -49 -6 -12 -17 -9 -56 16 -27 17 -55 31 -62 31 -21 0 -15
18 21 58 94 104 252 136 381 78z m-539 -74 c22 -11 46 -28 53 -36 12 -14 9
-16 -20 -16 -106 0 -239 -131 -239 -235 0 -18 -21 -18 -107 0 -38 9 -43 -4
-18 -51 8 -16 15 -39 15 -50 0 -19 -7 -22 -64 -26 -84 -5 -134 -37 -169 -108
l-26 -52 -16 39 c-65 151 -30 319 89 438 51 51 132 97 203 115 21 5 88 8 148
6 88 -2 118 -7 151 -24z m159 -118 c21 -11 40 -25 42 -31 2 -6 -18 -26 -44
-44 -63 -42 -111 -88 -129 -121 l-14 -27 -34 20 c-19 11 -58 22 -86 24 -28 2
-53 5 -56 7 -2 3 3 25 11 50 19 54 78 114 131 134 50 18 130 13 179 -12z m201
-108 c52 -86 72 -141 61 -170 -5 -12 -12 -11 -44 5 -45 23 -91 24 -140 4 -48
-20 -71 -41 -95 -89 l-19 -38 -25 23 c-31 29 -49 87 -40 131 7 40 49 83 149
152 38 27 71 54 74 62 10 26 25 10 79 -80z m319 38 c34 -16 65 -65 65 -102 0
-28 -39 -152 -48 -152 -4 0 -33 9 -65 20 -31 11 -81 20 -112 20 l-55 0 0 33
c0 17 -12 56 -25 86 -14 30 -22 58 -18 62 4 4 31 17 58 28 61 24 154 27 200 5z
m216 -59 c59 -20 114 -66 142 -118 17 -34 22 -59 22 -127 0 -95 -19 -146 -83
-221 -31 -37 -62 -51 -62 -29 0 18 -63 81 -102 101 -38 19 -38 20 -24 48 8 15
26 36 40 45 33 21 33 34 -1 47 -16 6 -42 17 -60 25 l-32 13 21 48 c16 34 22
68 23 115 l0 68 36 0 c19 0 56 -7 80 -15z m-1556 -138 c0 -94 3 -108 30 -164
l30 -61 -51 -55 c-148 -159 -163 -387 -37 -555 30 -40 26 -47 -21 -38 -64 12
-100 74 -141 238 -26 104 -49 158 -89 205 l-25 30 29 28 c32 31 51 81 74 191
30 142 79 238 137 267 62 30 64 28 64 -86z m-338 49 c26 -13 65 -42 86 -63
l38 -40 -12 -49 c-6 -27 -14 -55 -16 -63 -2 -9 -11 -2 -22 20 -10 18 -35 47
-55 63 -49 40 -141 48 -200 17 l-40 -21 -30 32 c-17 17 -48 39 -69 48 l-38 17
23 15 c26 16 101 45 138 52 54 10 149 -3 197 -28z m-2187 -6 c45 -24 50 -128
10 -218 -18 -39 -22 -44 -34 -31 -20 21 -56 137 -56 181 0 25 7 45 20 58 23
23 33 24 60 10z m1665 -21 c58 -22 68 -34 36 -44 -11 -3 -33 -21 -50 -40 l-30
-35 -53 25 c-64 30 -110 32 -153 5 -51 -31 -69 -75 -63 -152 5 -64 5 -66 -24
-83 -17 -9 -39 -33 -51 -52 -17 -30 -21 -33 -30 -18 -18 32 -3 175 23 229 76
150 245 221 395 165z m1462 10 c33 -12 73 -47 73 -64 0 -7 -20 -11 -50 -12
-66 -1 -120 -36 -149 -95 -26 -54 -26 -65 -1 -105 26 -43 10 -42 -29 2 -39 45
-61 120 -61 212 l0 73 94 0 c52 0 107 -5 123 -11z m1719 -30 c27 -11 59 -25
69 -33 18 -13 17 -15 -16 -29 -20 -8 -52 -29 -72 -46 -35 -31 -37 -32 -61 -16
-13 9 -49 19 -79 22 -75 8 -138 -22 -177 -84 l-28 -44 -21 47 -21 47 21 33
c71 115 233 158 385 103z m1948 -14 c33 -33 32 -141 -2 -211 -25 -54 -38 -44
-72 59 -32 99 -18 167 36 167 12 0 29 -7 38 -15z m-1462 -27 c97 -45 172 -142
189 -248 8 -47 1 -150 -10 -150 -4 0 -15 14 -25 31 -10 17 -34 40 -53 51 -24
15 -32 25 -28 37 27 66 5 155 -46 191 -47 34 -89 36 -154 6 l-58 -26 -43 40
c-24 22 -49 40 -56 40 -24 0 10 22 64 42 70 24 146 20 220 -14z m-5478 -18
c31 -28 94 -155 82 -167 -22 -22 -162 64 -191 119 -19 36 -19 37 -1 57 27 30
69 27 110 -9z m2013 11 c26 -12 52 -35 70 -62 25 -38 28 -51 28 -128 0 -94
-10 -122 -72 -198 -31 -38 -37 -41 -61 -32 -14 6 -43 7 -63 4 -36 -6 -40 -4
-70 37 -117 159 -103 310 36 382 40 21 81 20 132 -3z m1707 -20 c57 -57 34
-151 -46 -192 l-39 -20 -21 26 c-23 29 -68 55 -97 55 -29 0 -33 15 -16 57 18
42 59 90 90 104 37 16 96 3 129 -30z m299 -37 c87 -37 100 -51 72 -74 -8 -6
-29 -50 -46 -97 -45 -118 -99 -181 -99 -114 0 62 -90 141 -161 141 l-27 0 20
38 c14 27 18 50 15 85 -3 36 0 50 12 58 29 18 123 2 214 -37z m-3625 24 c7 -7
12 -24 12 -39 0 -35 -42 -71 -117 -99 -118 -44 -141 -24 -67 59 68 76 141 110
172 79z m2625 -48 c4 -30 16 -69 27 -87 l19 -33 -32 -14 c-38 -15 -95 -77
-109 -118 -5 -15 -14 -28 -18 -28 -14 0 -72 72 -86 106 -49 117 27 237 146
231 l45 -2 8 -55z m1492 18 c33 -34 52 -68 89 -165 36 -93 58 -134 91 -171
l43 -48 -46 -35 c-30 -22 -73 -74 -122 -146 -41 -61 -84 -121 -95 -133 -23
-25 -94 -64 -102 -56 -3 3 -1 31 6 62 27 135 7 258 -54 339 -19 25 -35 47 -35
48 0 2 18 22 40 45 21 23 50 61 64 85 31 52 60 161 52 193 -10 38 21 30 69
-18z m2253 22 c18 -11 41 -34 52 -52 25 -41 54 -127 46 -136 -11 -10 -112 45
-156 84 -44 40 -52 74 -23 106 21 23 40 23 81 -2z m-4453 -10 c47 -23 72 -60
77 -115 3 -40 3 -40 -30 -37 -43 4 -130 -22 -176 -53 l-37 -25 6 54 c5 34 2
75 -5 106 -7 28 -10 54 -7 56 10 11 82 33 106 34 14 0 43 -9 66 -20z m2860 1
c79 -36 115 -95 115 -186 0 -67 -10 -94 -62 -172 l-42 -61 -65 -4 c-65 -4 -67
-3 -99 32 -123 132 -100 344 43 395 52 18 62 18 110 -4z m-3469 -7 c45 -22 46
-25 32 -78 -9 -34 -9 -56 -1 -86 5 -22 9 -40 8 -40 -2 0 -22 9 -46 20 -27 12
-66 20 -101 20 l-57 0 -7 36 c-8 46 10 109 39 129 28 20 90 19 133 -1z m1685
-20 c48 -46 47 -65 -7 -116 l-47 -45 -52 12 c-28 7 -61 18 -73 24 -48 25 -35
107 22 143 45 28 117 20 157 -18z m3799 -9 c18 -22 4 -61 -33 -88 -50 -37
-167 -79 -184 -66 -19 16 -17 21 24 69 75 88 160 125 193 85z m-2287 -22 c21
-10 27 -19 22 -31 -17 -39 -24 -105 -16 -147 5 -25 6 -45 4 -45 -3 0 -18 9
-33 20 -42 30 -106 50 -161 50 l-49 0 0 35 c0 113 123 175 233 118z m-4058 -9
c24 -26 52 -125 40 -144 -3 -5 -18 -10 -33 -10 -37 0 -110 -54 -112 -82 0 -4
-4 -18 -10 -33 -10 -25 -10 -25 -29 -6 -52 52 -144 45 -212 -16 l-40 -36 -24
23 c-14 13 -32 42 -41 65 -14 38 -14 46 -1 78 20 47 47 63 137 82 41 9 95 27
120 42 129 74 164 81 205 37z m4641 11 c30 -20 46 -65 42 -116 l-3 -44 -68 -7
c-37 -3 -82 -15 -100 -25 l-32 -20 0 71 c0 39 -4 81 -8 92 -16 44 120 84 169
49z m-4352 -55 c67 -61 74 -64 161 -78 l49 -7 18 -80 19 -79 -34 -34 -33 -33
-45 25 c-74 43 -157 29 -238 -39 -28 -24 -33 -26 -28 -9 18 61 18 94 -1 137
-11 25 -32 53 -46 62 -29 19 -33 46 -15 109 15 53 50 86 93 86 28 0 46 -11
100 -60z m-1154 -18 c47 -20 66 -33 68 -49 3 -18 -3 -21 -63 -28 -108 -11
-185 8 -185 47 0 62 74 75 180 30z m401 -43 c-17 -17 -31 -37 -31 -45 0 -8 -4
-14 -10 -14 -14 0 -122 29 -128 35 -10 10 120 53 166 54 l34 1 -31 -31z m3168
18 c13 -6 33 -24 44 -39 19 -26 19 -28 2 -54 -40 -61 -100 -100 -136 -89 -74
24 -59 132 18 123 17 -2 29 -10 31 -21 3 -15 -2 -18 -30 -15 -41 4 -45 -19 -6
-41 52 -30 106 26 80 84 -6 13 -26 28 -47 35 -31 10 -41 9 -74 -7 -44 -22 -46
-7 -3 20 32 20 87 22 121 4z m3224 -24 c46 -21 57 -30 57 -49 0 -24 -1 -24
-104 -24 -86 0 -108 3 -126 18 -17 14 -21 25 -17 44 14 53 85 57 190 11z
m-6605 15 c7 -7 12 -16 12 -22 0 -6 -5 -5 -12 2 -13 13 -48 16 -48 4 0 -4 5
-13 12 -20 9 -9 8 -12 -5 -12 -23 0 -33 26 -17 45 15 18 42 19 58 3z m2616
-54 c10 -25 40 -67 66 -94 l47 -49 -18 -41 c-10 -23 -28 -53 -39 -67 -22 -28
-13 -53 20 -53 10 0 34 -7 55 -16 28 -11 35 -19 30 -32 -32 -75 -36 -97 -25
-142 13 -53 50 -104 93 -130 l30 -19 -27 -7 c-80 -20 -206 26 -291 107 -155
146 -161 385 -13 545 22 24 43 44 47 44 3 0 14 -21 25 -46z m1384 -10 c51 -43
65 -80 60 -152 -6 -90 -65 -153 -153 -163 -26 -3 -30 0 -33 21 -4 46 -24 105
-44 133 l-19 27 29 25 c16 14 42 54 57 89 31 73 40 75 103 20z m-1773 26 c11
-17 -25 -58 -66 -74 -21 -9 -39 -20 -39 -25 0 -5 19 -23 43 -38 42 -29 79 -83
92 -135 6 -23 2 -29 -27 -45 -68 -37 -310 -11 -324 35 -3 9 -12 31 -20 48 -15
31 -15 32 23 82 47 63 116 117 180 142 52 21 128 26 138 10z m4553 -2 c7 -7
12 -19 12 -27 -1 -13 -2 -13 -11 2 -5 9 -16 17 -24 17 -20 0 -30 -21 -14 -31
7 -4 10 -11 7 -14 -10 -11 -28 4 -28 24 0 19 18 41 35 41 6 0 16 -5 23 -12z
m310 0 c17 -17 15 -53 -3 -68 -8 -7 -36 -12 -63 -12 -61 0 -194 32 -189 45 11
34 226 64 255 35z m-5553 -32 c21 -11 65 -52 96 -89 l58 -68 -25 -36 c-15 -22
-24 -50 -24 -73 0 -46 -8 -50 -110 -50 -114 0 -178 16 -216 54 -55 55 -69 162
-30 221 48 73 159 91 251 41z m1419 25 c3 -4 -4 -17 -16 -27 -11 -11 -27 -33
-34 -51 -40 -93 22 -182 130 -187 23 -1 40 -5 38 -9 -1 -4 -5 -21 -9 -37 -7
-40 -52 -64 -104 -57 -34 4 -212 79 -232 97 -5 4 -2 18 6 31 8 13 27 58 42 99
36 95 86 150 138 150 20 0 38 -4 41 -9z m744 -16 c37 -31 46 -64 32 -115 -23
-86 -103 -102 -201 -40 -46 30 -50 36 -45 63 3 16 6 44 6 62 0 27 5 34 33 43
17 5 58 10 89 11 47 1 62 -3 86 -24z m2580 -24 c38 -23 86 -43 112 -46 76 -11
139 -35 160 -62 36 -46 22 -120 -32 -170 l-23 -22 -34 34 c-59 60 -152 69
-210 19 l-29 -24 -6 31 c-9 46 -65 97 -115 105 -38 6 -41 9 -41 38 0 53 19
104 48 126 38 30 86 22 170 -29z m-334 29 c29 -11 50 -47 67 -114 l12 -47 -36
-30 c-44 -36 -60 -88 -51 -161 l7 -51 -39 30 c-21 16 -54 36 -72 43 -45 18
-126 8 -163 -19 -17 -13 -32 -21 -33 -19 -1 1 -12 27 -25 55 -14 29 -35 62
-48 74 -12 13 -23 28 -23 35 0 24 60 63 108 69 84 11 94 15 151 69 81 77 98
84 145 66z m-2809 -8 c6 -4 10 -32 11 -62 0 -30 4 -65 8 -76 7 -18 1 -25 -36
-43 -109 -52 -208 3 -179 99 14 47 29 60 89 76 54 15 93 17 107 6z m-3245 -21
c0 -19 -140 -139 -169 -146 -39 -8 -68 1 -82 26 -19 36 28 86 109 115 42 15
142 19 142 5z m238 -11 c23 -10 45 -27 48 -37 3 -10 12 -30 20 -45 l15 -28
-50 0 c-47 0 -52 3 -95 51 -25 28 -46 57 -46 65 0 20 57 17 108 -6z m4491 5
c68 -24 146 -82 192 -142 42 -56 42 -57 26 -86 -10 -16 -17 -37 -17 -47 0 -13
-15 -23 -52 -36 -97 -33 -298 -21 -298 18 0 21 81 94 128 115 31 13 52 29 49
36 -2 6 -21 21 -41 32 -40 21 -101 98 -91 115 9 14 56 12 104 -5z m-3860 -9
c69 -36 66 -157 -9 -322 -26 -58 -31 -63 -59 -62 -29 1 -32 5 -62 87 -42 114
-49 212 -20 259 32 51 94 66 150 38z m2480 -88 c46 -42 107 -34 163 19 15 15
30 24 34 21 11 -11 -58 -77 -93 -89 -90 -29 -188 56 -156 138 6 14 9 8 14 -21
4 -27 17 -49 38 -68z m2140 74 c57 -29 76 -64 76 -141 0 -57 -4 -74 -27 -109
-23 -34 -38 -44 -82 -57 -59 -17 -195 -24 -238 -12 -24 6 -28 13 -28 43 0 20
-10 53 -21 74 l-22 39 41 48 c52 63 90 97 127 116 41 22 131 21 174 -1z
m-5452 -14 c-3 -13 -9 -48 -13 -78 -12 -100 -57 -159 -110 -146 -51 13 -24
101 59 192 52 58 73 68 64 32z m100 -47 c31 -59 32 -65 18 -92 -8 -15 -15 -46
-15 -69 0 -40 -5 -45 -35 -34 -30 12 -45 60 -45 144 0 82 12 124 33 118 7 -2
27 -32 44 -67z m6643 46 c0 -7 -16 -29 -36 -48 -27 -25 -38 -30 -42 -20 -3 8
-16 25 -28 38 -13 13 -24 26 -24 28 0 4 48 10 103 13 16 1 27 -3 27 -11z m251
-18 c71 -35 110 -109 75 -138 -20 -17 -71 6 -123 57 -52 51 -77 88 -68 102 9
14 69 3 116 -21z m-211 -23 c0 -38 -31 -171 -42 -182 -8 -6 -31 -9 -55 -7 -42
5 -42 5 -29 32 7 14 16 40 20 56 7 28 81 115 98 115 4 0 8 -6 8 -14z m107 -63
c59 -128 48 -213 -24 -188 -46 16 -65 66 -61 160 3 45 8 86 12 93 17 28 39 9
73 -65z m-6314 37 c26 -21 31 -32 91 -202 l34 -97 -25 -17 c-22 -14 -32 -15
-67 -4 -74 22 -163 71 -203 112 -33 34 -38 45 -37 86 0 54 24 96 69 123 40 25
105 25 138 -1z m3659 -105 c7 -22 12 -80 12 -130 -2 -163 -66 -304 -157 -351
-80 -42 -207 -56 -290 -33 l-37 10 27 47 c22 36 28 60 28 104 0 32 1 58 2 58
1 0 21 -7 43 -16 24 -10 45 -13 50 -8 4 5 13 49 20 99 6 49 12 90 13 91 1 1
25 6 52 13 91 22 159 89 180 176 l7 30 19 -25 c10 -14 25 -43 31 -65z m-2923
33 c7 -23 20 -52 28 -65 15 -22 15 -25 -5 -39 -37 -26 -62 -78 -62 -130 0 -83
46 -136 138 -159 43 -11 47 -15 54 -50 5 -20 18 -50 29 -67 12 -16 19 -31 16
-34 -14 -14 -153 17 -196 43 -116 72 -166 284 -101 431 22 49 66 112 79 112 4
0 13 -19 20 -42z m2268 13 c80 -58 94 -111 45 -161 -54 -53 -131 -48 -175 12
-25 33 -36 128 -15 128 7 0 29 11 48 25 45 31 49 31 97 -4z m293 -3 c16 -27
20 -51 20 -124 0 -50 -3 -112 -6 -138 -7 -45 -8 -47 -33 -40 -14 4 -71 8 -126
9 -73 1 -109 6 -132 18 -42 22 -41 33 2 47 54 18 95 74 95 130 0 46 0 46 44
58 28 7 53 22 67 41 31 39 45 38 69 -1z m-3560 9 c21 -11 24 -18 21 -62 -3
-58 24 -107 76 -140 38 -24 41 -35 10 -35 -54 0 -128 -32 -171 -73 -43 -41
-71 -103 -59 -133 8 -21 -24 -28 -69 -15 -30 9 -43 20 -54 46 -16 39 -10 61
43 164 32 61 34 70 28 128 -4 40 -2 69 5 83 23 43 117 64 170 37z m850 -16
c14 -10 24 -25 23 -32 -5 -29 -36 -145 -43 -159 -13 -27 -89 -62 -168 -76
-104 -18 -125 -17 -139 5 -10 16 -8 30 16 83 75 164 220 248 311 179z m751 0
c53 -53 34 -137 -37 -167 -29 -12 -39 -12 -66 -1 -18 8 -38 20 -44 28 -16 21
-26 69 -14 69 5 0 10 -9 10 -19 0 -23 54 -71 79 -71 33 0 86 44 89 73 5 43
-22 77 -62 77 -42 0 -75 -33 -59 -58 15 -24 37 -21 41 6 2 12 6 22 8 22 14 0
44 -22 44 -32 0 -20 -32 -48 -56 -48 -48 0 -67 50 -43 119 9 27 16 31 46 31
25 0 43 -8 64 -29z m1421 -16 c38 -11 43 -16 46 -45 9 -84 -49 -150 -117 -135
-51 11 -81 42 -81 83 0 58 69 143 97 120 7 -5 32 -16 55 -23z m2862 20 c72
-35 83 -126 33 -280 -32 -97 -34 -100 -64 -103 -29 -3 -34 1 -56 45 -35 69
-67 178 -67 228 0 62 15 94 52 110 43 18 63 18 102 0z m-574 -71 c41 -58 60
-124 60 -204 0 -111 -32 -199 -92 -257 -44 -42 -95 -63 -176 -70 l-66 -6 22
30 c11 16 26 50 32 75 11 43 14 46 51 51 76 10 139 83 139 162 0 44 -12 69
-53 113 -29 30 -30 34 -17 55 19 31 38 69 44 90 7 24 19 16 56 -39z m-574 38
c19 -12 34 -81 24 -107 -14 -37 -46 -50 -76 -30 -26 17 -31 44 -12 63 18 18
26 15 30 -10 4 -28 41 -32 46 -5 5 26 -26 57 -59 57 -30 0 -69 -40 -69 -70 0
-29 39 -69 74 -76 46 -8 74 9 97 59 14 32 19 37 19 19 0 -62 -63 -112 -123
-97 -65 17 -97 107 -57 158 31 40 79 57 106 39z m1441 -62 c35 -21 73 -85 73
-122 0 -56 -61 -116 -170 -167 -83 -39 -120 -46 -144 -26 -19 14 -19 18 22
147 33 105 48 139 72 161 37 33 99 37 147 7z m296 -19 c3 -14 1 -18 -9 -14
-15 6 -18 16 -7 26 9 10 10 9 16 -12z m-4708 -22 c33 -6 85 -16 115 -21 99
-18 148 -103 121 -206 -22 -80 -92 -134 -176 -134 -99 0 -175 85 -210 233
l-14 62 29 34 c17 19 30 39 30 45 0 6 9 8 23 4 12 -3 49 -11 82 -17z m275 -21
c6 -24 16 -58 22 -76 19 -62 -13 -54 -39 9 -8 22 -27 48 -41 59 -14 11 -23 22
-21 23 8 6 54 26 61 26 4 1 12 -18 18 -41z m-847 5 l88 -16 -36 -30 c-39 -32
-95 -121 -95 -151 0 -30 -83 -17 -121 20 -50 48 -51 116 -2 174 21 26 31 30
52 25 14 -4 66 -14 114 -22z m5245 0 c32 -20 42 -52 35 -115 -4 -48 -1 -61 41
-142 25 -50 46 -100 46 -112 0 -37 -40 -75 -86 -81 l-41 -5 -5 47 c-4 31 -15
59 -35 83 -39 48 -125 92 -180 92 -24 0 -43 3 -43 8 1 4 18 19 39 33 49 34 75
88 68 146 -5 47 -1 52 47 64 38 9 83 2 114 -18z m-4955 -52 c16 -6 41 -11 57
-11 25 0 30 -5 36 -35 15 -81 -32 -208 -101 -275 -32 -31 -42 -35 -104 -38
-90 -5 -140 19 -170 81 -54 112 4 238 141 306 l62 31 25 -24 c14 -14 39 -30
54 -35z m4114 40 c59 -27 117 -90 158 -172 34 -67 35 -72 20 -95 -11 -17 -22
-23 -38 -19 -12 2 -54 9 -92 14 -88 11 -154 42 -200 92 -30 33 -35 46 -35 87
0 40 5 53 28 74 46 43 92 49 159 19z m-2949 -11 c29 -11 72 -20 97 -20 37 0
45 -3 45 -19 0 -10 13 -45 30 -77 32 -64 30 -73 -21 -100 -70 -36 -179 -4
-227 66 -19 29 -23 44 -20 87 4 47 20 83 37 83 3 0 30 -9 59 -20z m1604 -6
l30 -16 -25 -26 c-14 -15 -33 -44 -42 -64 -11 -28 -21 -38 -38 -38 -32 0 -67
11 -67 21 0 14 91 139 101 139 6 0 24 -7 41 -16z m339 -6 c6 -13 20 -33 31
-45 18 -19 19 -26 9 -75 -16 -75 -62 -169 -99 -200 -135 -113 -336 15 -291
185 20 78 66 109 182 123 32 3 77 12 100 20 56 17 55 17 68 -8z m-1474 -2 c4
-8 24 -23 43 -33 29 -17 34 -24 32 -49 -8 -66 -52 -100 -178 -139 -97 -30 -94
-29 -94 -7 0 9 -21 58 -46 109 -29 57 -44 98 -40 109 6 15 9 15 29 -4 62 -58
184 -54 217 8 13 23 26 26 37 6z m2098 -16 c20 -21 29 -42 32 -77 6 -66 -24
-112 -87 -130 -51 -15 -70 -11 -70 13 0 32 -45 107 -88 144 l-42 38 67 7 c38
4 84 13 103 20 51 18 53 18 85 -15z m-319 -19 c97 -44 164 -137 164 -227 0
-121 -105 -198 -226 -164 -98 28 -183 184 -167 308 6 41 7 42 42 42 39 0 91
23 104 46 11 19 34 17 83 -5z m-4056 -36 c0 -8 -9 -15 -20 -15 -22 0 -27 15
-7 23 21 9 27 7 27 -8z m-615 -9 c80 -21 95 -32 95 -70 0 -30 -7 -38 -67 -78
-154 -102 -296 -119 -332 -41 -58 126 122 238 304 189z m275 -17 c14 -26 12
-82 -4 -104 -17 -24 -74 -25 -110 -2 -34 23 -43 60 -22 93 23 34 43 40 66 19
24 -22 26 -63 5 -72 -25 -9 -31 6 -9 22 16 12 17 16 5 24 -22 14 -51 -5 -51
-33 0 -54 74 -63 99 -12 12 25 11 33 -2 62 -14 29 -14 32 -1 27 8 -3 19 -14
24 -24z m332 -30 c10 -5 18 -17 18 -27 1 -17 33 -88 60 -129 13 -20 12 -24 -9
-46 -12 -14 -35 -27 -51 -31 -61 -12 -188 42 -277 119 -34 30 -36 33 -27 70
l10 40 69 8 c39 4 75 9 80 12 15 7 106 -5 127 -16z m2543 -18 l80 -6 3 -52 c6
-103 -50 -157 -155 -151 -50 3 -71 10 -105 34 -23 16 -49 42 -58 56 -14 26
-13 28 26 62 23 19 47 49 54 65 l12 30 32 -16 c17 -10 66 -19 111 -22z m-1257
1 c15 -15 38 -34 51 -43 l24 -15 -29 -19 c-26 -17 -154 -36 -154 -22 0 2 7 18
15 33 8 16 15 44 15 62 0 28 3 32 26 32 15 0 37 -11 52 -28z m1992 -12 c10 -6
33 -12 51 -14 29 -3 34 -8 45 -47 7 -24 15 -55 20 -68 7 -24 7 -24 -51 -17
-65 7 -115 33 -145 76 -11 15 -20 30 -20 33 0 7 63 47 73 47 5 0 17 -5 27 -10z
m1368 -73 l24 -15 -44 -19 c-53 -24 -108 -84 -109 -121 -1 -15 -2 -34 -3 -42
-2 -30 -139 -54 -176 -30 -18 11 -15 13 39 29 83 24 162 123 186 235 l6 29 27
-25 c15 -14 38 -32 50 -41z m-3853 22 c24 -45 81 -105 115 -119 17 -7 30 -20
30 -29 0 -35 -38 -79 -84 -96 -44 -17 -48 -17 -91 0 -27 10 -56 31 -72 51
l-26 35 21 22 c25 26 82 133 82 153 0 22 8 17 25 -17z m823 -71 c44 -16 74
-19 135 -16 l77 5 0 -26 c0 -69 47 -183 103 -255 35 -44 131 -109 185 -126 20
-6 43 -14 51 -16 11 -3 9 -10 -9 -29 -36 -38 -100 -34 -245 16 -107 37 -125
41 -189 36 -39 -2 -79 -8 -88 -12 -16 -6 -18 -1 -18 43 0 61 -18 105 -82 200
-83 123 -101 177 -78 237 l10 26 46 -32 c25 -17 71 -40 102 -51z m-183 -88
c10 -19 40 -68 67 -108 27 -41 56 -89 64 -108 13 -32 13 -35 -3 -40 -10 -2
-39 -15 -64 -28 l-46 -22 5 62 c6 74 -8 113 -50 149 -59 50 -151 25 -204 -54
l-26 -40 -25 35 c-16 24 -21 40 -14 48 18 21 43 128 37 157 l-5 29 52 0 c55 0
142 35 169 67 11 14 14 7 19 -48 3 -35 14 -80 24 -99z m1735 125 c33 -54 112
-95 183 -95 l57 0 0 -60 c0 -50 -3 -60 -17 -60 -30 0 -81 -37 -98 -71 l-17
-32 -24 41 c-20 33 -44 54 -101 87 -1 0 4 23 12 49 16 53 8 108 -21 154 -8 12
-10 22 -5 22 5 0 19 -16 31 -35z m-3622 5 c38 -23 38 -9 -4 -186 -30 -127 -46
-167 -80 -193 -38 -30 -69 -36 -114 -22 -104 31 -117 160 -28 273 37 47 162
148 183 148 6 0 25 -9 43 -20z m2494 -30 c-4 -49 -15 -49 125 -7 l83 25 33
-47 c50 -68 123 -106 208 -105 l66 0 -12 -45 c-49 -188 -218 -275 -408 -212
-148 48 -255 189 -260 341 l-2 55 53 6 c29 4 62 14 75 22 33 23 42 15 39 -33z
m1830 -94 c21 -32 38 -62 38 -66 0 -4 -18 -24 -39 -43 -78 -70 -175 -56 -217
31 -16 34 -16 37 1 47 60 36 99 71 123 114 l27 49 14 -36 c8 -21 31 -63 53
-96z m1567 117 c28 -9 67 -31 86 -50 30 -29 35 -41 35 -79 0 -59 -12 -80 -56
-94 -67 -23 -159 3 -279 77 -64 40 -69 46 -71 78 -1 41 -1 40 69 66 65 23 149
24 216 2z m-2313 -60 c10 -55 -4 -97 -59 -173 -116 -160 -154 -219 -167 -261
-7 -24 -15 -45 -16 -47 -1 -2 -19 7 -41 21 -86 54 -202 66 -323 32 -89 -25
-213 -26 -237 -2 -16 16 -16 17 14 17 52 0 143 40 189 82 45 42 82 109 104
191 11 43 16 48 34 41 48 -16 211 -16 268 1 75 21 146 70 177 121 23 38 28 41
38 27 7 -9 16 -31 19 -50z m1876 55 c-31 -31 1 -118 43 -118 21 0 57 38 53 57
-4 23 -32 37 -54 29 -19 -7 -19 -8 0 -22 22 -15 16 -30 -9 -21 -19 8 -19 36 1
65 19 28 32 28 61 0 58 -55 -8 -145 -92 -124 -26 7 -45 40 -45 79 0 26 26 67
43 67 8 0 8 -3 -1 -12z m-5222 -65 c104 -79 130 -118 130 -193 0 -46 -4 -56
-34 -86 -29 -29 -41 -34 -80 -34 -72 0 -123 34 -159 105 -23 46 -36 134 -30
202 6 66 4 64 71 72 7 0 53 -29 102 -66z m5057 26 c43 -6 81 -14 84 -17 4 -4
9 -22 12 -40 6 -30 3 -35 -51 -77 -110 -87 -219 -125 -287 -99 -40 16 -58 109
-31 163 37 70 119 91 273 70z m-5689 -59 c32 -8 57 -8 93 -1 28 6 52 11 54 11
2 0 -12 -26 -31 -57 -60 -101 -43 -201 45 -260 19 -13 44 -23 57 -23 39 0 37
-19 -4 -60 -34 -34 -46 -40 -81 -40 -81 0 -112 32 -141 145 -20 75 -43 116
-94 161 -58 52 -63 94 -16 144 l31 33 22 -21 c12 -11 42 -25 65 -32z m1992 12
c0 -98 -54 -180 -152 -232 -56 -30 -72 -34 -143 -34 -44 0 -98 6 -120 13 -55
18 -127 67 -153 105 -37 55 -36 61 10 74 24 7 48 15 53 17 6 3 20 -10 32 -29
26 -41 95 -76 149 -76 65 0 125 46 150 115 9 25 18 31 53 37 24 4 57 16 74 27
44 27 47 26 47 -17z m-1000 -6 c6 -8 33 -23 58 -32 66 -24 72 -31 72 -79 0
-45 -5 -51 -78 -111 -18 -15 -44 -48 -57 -74 -29 -57 -67 -90 -105 -90 -31 0
-85 34 -112 71 -19 25 -19 26 3 63 26 45 29 128 5 175 l-16 31 58 -6 c64 -7
112 10 135 46 14 24 21 25 37 6z m3427 -56 c28 0 35 -5 48 -37 30 -73 86 -113
155 -113 56 0 99 20 139 65 32 36 35 38 65 27 18 -7 40 -12 49 -12 47 0 -15
-94 -94 -142 -40 -25 -128 -48 -184 -48 -101 0 -209 54 -259 130 -29 44 -54
136 -43 163 5 14 11 14 49 -8 24 -14 58 -25 75 -25z m1651 -30 c102 -71 172
-172 172 -247 0 -13 -9 -41 -19 -61 -42 -83 -155 -90 -209 -15 -23 32 -78 215
-88 291 -5 44 -4 48 23 64 15 9 33 17 39 17 6 1 43 -22 82 -49z m-185 -4 c15
-21 2 -208 -17 -246 -53 -102 -140 -144 -216 -105 -58 30 -78 124 -42 195 9
20 56 66 107 107 83 67 93 72 125 66 19 -3 39 -11 43 -17z m-5382 -167 c59
-59 146 -86 189 -59 41 26 57 -75 18 -117 -25 -27 -57 -29 -139 -8 -66 17
-111 11 -164 -25 -67 -45 -125 -13 -125 68 0 54 3 60 47 90 35 24 77 104 89
167 l7 40 20 -59 c13 -38 33 -72 58 -97z m5968 117 c12 -13 24 -39 28 -59 5
-33 1 -40 -50 -90 -54 -54 -63 -71 -96 -194 -31 -112 -137 -149 -212 -73 -39
38 -37 56 6 64 46 9 101 58 116 103 17 54 6 126 -28 182 l-31 49 77 -5 c70 -5
79 -3 111 20 44 32 52 32 79 3z m-4239 -6 c23 -12 40 -61 40 -114 0 -50 -25
-107 -76 -175 -35 -47 -41 -51 -69 -46 -63 13 -62 11 -69 91 -10 130 9 199 67
234 35 22 78 26 107 10z m1799 -5 c51 -26 71 -86 71 -207 l0 -106 -47 -12
c-48 -12 -48 -11 -76 22 -43 50 -75 108 -85 156 -10 41 -8 45 34 102 47 64 58
69 103 45z m1441 -70 c19 -3 54 -2 77 3 l42 10 -14 -29 c-23 -43 -19 -144 6
-186 l21 -34 -27 -34 c-45 -60 -108 -81 -152 -50 -12 8 -36 40 -54 71 -19 34
-50 69 -80 90 -64 47 -78 86 -51 147 16 36 30 49 72 70 l53 27 36 -39 c23 -25
49 -42 71 -46z m-1179 43 c6 -13 25 -37 41 -55 24 -25 29 -37 24 -60 -7 -31
-66 -124 -115 -183 l-29 -35 -37 18 -38 18 7 92 c4 51 12 109 18 130 24 81
102 126 129 75z m-2317 -31 c18 -26 32 -96 41 -192 l6 -70 -37 -20 -37 -20
-43 50 c-40 46 -104 151 -104 171 0 5 20 17 44 27 23 10 56 31 71 47 34 36 40
37 59 7z m4002 -206 c10 -17 35 -42 55 -55 27 -18 38 -34 43 -61 19 -100 -50
-144 -139 -90 -47 29 -98 32 -180 10 -63 -16 -94 -9 -119 27 -16 22 -21 64
-11 90 4 11 20 13 64 10 99 -7 181 54 218 163 l17 50 16 -56 c9 -31 25 -70 36
-88z m-2116 88 c0 -6 -4 -7 -10 -4 -5 3 -10 11 -10 16 0 6 5 7 10 4 6 -3 10
-11 10 -16z m-1430 -16 c-1 -10 -7 -29 -15 -43 -19 -36 -2 -54 34 -36 14 8 41
17 59 21 29 6 32 4 32 -17 0 -27 -48 -77 -95 -101 -28 -14 -186 -57 -210 -57
-6 0 -19 14 -29 30 l-18 31 42 54 c75 97 201 171 200 118z m1460 -80 c88 -93
85 -87 59 -122 -25 -35 -36 -35 -151 -4 -50 13 -55 17 -43 30 8 8 15 23 15 33
0 11 9 44 21 75 24 64 28 64 99 -12z m-2132 11 c29 -14 77 -49 107 -78 l56
-52 -15 -35 c-8 -19 -22 -35 -34 -37 -29 -5 -204 33 -247 54 -76 36 -82 112
-13 154 44 27 84 25 146 -6z m2781 6 c77 -39 69 -115 -16 -159 -27 -14 -197
-51 -233 -51 -21 0 -29 7 -39 36 -13 35 -12 37 25 76 68 70 146 115 202 117
12 1 40 -8 61 -19z m-881 -44 c33 -17 78 -64 69 -72 -8 -8 -93 52 -100 71 -8
19 -3 19 31 1z m-1530 -83 c19 -16 20 -23 11 -68 -15 -69 -38 -98 -79 -98 -36
0 -51 17 -48 53 4 32 38 41 38 10 0 -16 5 -21 21 -18 12 2 27 11 33 21 9 15 6
23 -17 43 -32 28 -57 25 -94 -9 -31 -28 -30 -77 1 -114 19 -22 32 -28 66 -28
35 0 47 6 71 33 16 17 34 53 40 78 13 52 29 43 29 -17 0 -76 -78 -145 -154
-135 -112 13 -154 150 -71 233 29 29 40 33 83 33 33 0 57 -6 70 -17z m2046 -4
c33 -26 48 -61 48 -115 0 -56 -24 -98 -66 -118 -43 -20 -79 -20 -123 0 -53 26
-90 98 -77 151 9 34 18 28 31 -20 23 -84 88 -125 149 -92 65 35 69 111 7 148
-30 17 -34 17 -63 2 -25 -13 -31 -22 -28 -43 4 -35 47 -45 55 -13 6 25 16 27
33 6 15 -18 4 -52 -22 -66 -45 -24 -92 28 -105 116 -5 41 -3 46 18 54 44 18
114 13 143 -10z m-1647 -74 c21 -9 41 -21 45 -28 16 -25 8 -76 -16 -104 -21
-24 -32 -28 -92 -30 -60 -3 -80 1 -149 30 l-80 33 4 45 c1 24 4 45 6 47 5 5
135 19 193 21 29 0 69 -6 89 -14z m1357 -3 c25 -7 29 -13 32 -53 l4 -46 -80
-31 c-126 -50 -224 -42 -256 19 -27 54 -8 101 49 119 34 10 203 5 251 -8z
m-2050 -40 c46 -7 50 -10 62 -44 12 -36 12 -38 -16 -58 -51 -36 -174 -90 -221
-96 -39 -5 -49 -3 -74 19 -59 50 -25 152 60 176 36 11 121 12 189 3z m2692
-11 c51 -23 74 -55 74 -101 0 -47 -23 -78 -63 -85 -45 -9 -151 26 -225 75 -57
37 -62 42 -56 67 13 54 25 58 164 61 45 1 78 -4 106 -17z m-2153 -159 c25 -22
57 -86 57 -112 0 -60 -57 -105 -114 -89 -46 13 -76 48 -118 138 l-39 84 27 28
26 27 71 -29 c39 -16 80 -37 90 -47z m1600 50 l26 -27 -23 -50 c-13 -28 -31
-67 -41 -88 -39 -84 -135 -117 -182 -62 -40 46 -27 120 31 174 21 19 130 75
157 80 3 1 17 -11 32 -27z m-2010 -22 l35 -21 -21 -80 c-16 -66 -27 -88 -64
-129 -51 -57 -100 -78 -142 -60 -72 30 -65 129 16 204 29 28 128 102 140 105
1 1 17 -8 36 -19z m2335 -29 c109 -74 159 -158 130 -218 -27 -58 -93 -65 -154
-18 -44 34 -79 95 -99 175 l-17 65 29 22 c33 27 35 26 111 -26z m-2137 -86
c49 -114 54 -191 14 -231 -21 -21 -33 -25 -77 -22 -73 4 -92 31 -92 135 0 43
5 94 11 113 6 19 14 47 17 62 5 21 13 28 39 31 17 2 36 3 40 3 5 -1 26 -42 48
-91z m1933 85 c19 0 24 -9 39 -73 29 -124 19 -235 -23 -257 -32 -17 -95 -12
-123 10 -52 41 -46 113 18 254 27 59 39 77 51 72 9 -3 26 -6 38 -6z"/>
<path d="M5211 7172 c-15 -15 -30 -34 -32 -41 -4 -12 -9 -12 -29 2 -32 22 -52
21 -84 -4 -32 -25 -34 -66 -5 -98 l21 -23 -26 -27 c-34 -35 -34 -73 0 -100 29
-23 55 -26 85 -11 16 9 19 7 19 -14 0 -44 52 -76 90 -56 24 13 44 56 33 73 -4
7 0 8 11 4 46 -18 63 -17 89 3 30 24 35 55 11 81 -14 15 -13 19 10 42 41 41 8
97 -56 97 -23 0 -28 4 -28 25 0 29 -40 75 -65 75 -9 0 -29 -12 -44 -28z m77
-41 c2 -13 -2 -35 -9 -48 -10 -19 -20 -23 -43 -21 -37 4 -46 36 -21 74 22 34
68 30 73 -5z m-125 -53 c17 -22 18 -30 7 -43 -17 -21 -42 -19 -74 6 -25 20
-34 48 -19 63 16 15 67 0 86 -26z m222 -38 c0 -23 -3 -25 -49 -25 -58 0 -70
17 -29 39 42 23 78 17 78 -14z m-135 -20 c0 -5 -2 -10 -4 -10 -3 0 -8 5 -11
10 -3 6 -1 10 4 10 6 0 11 -4 11 -10z m-85 -61 c7 -23 -15 -55 -46 -64 -24 -8
-59 11 -59 32 0 48 91 76 105 32z m180 1 c57 -22 33 -79 -25 -58 -36 12 -52
31 -44 52 7 18 31 20 69 6z m-105 -49 c27 -51 1 -111 -35 -81 -25 21 -13 100
15 100 5 0 14 -9 20 -19z"/>
<path d="M2942 7137 c-12 -13 -22 -29 -22 -35 0 -15 -26 -16 -35 -2 -10 17
-71 11 -88 -8 -23 -26 -21 -75 3 -97 l20 -18 -25 -27 c-56 -59 -17 -129 65
-116 37 6 40 5 40 -17 0 -50 70 -76 103 -39 10 10 17 31 17 46 0 24 2 26 20
16 32 -17 71 -8 94 23 20 27 20 30 4 57 -15 27 -15 29 3 46 10 9 19 27 19 40
0 29 -47 67 -77 61 -19 -4 -23 0 -23 23 0 33 -38 70 -71 70 -14 0 -35 -10 -47
-23z m78 -22 c13 -16 8 -51 -12 -77 -9 -12 -22 -15 -40 -11 -22 4 -28 11 -28
32 0 55 51 91 80 56z m-145 -41 c24 -10 47 -58 32 -73 -28 -28 -97 2 -97 43 0
12 3 26 7 29 8 9 36 9 58 1z m240 -48 c26 -19 12 -44 -29 -52 -68 -12 -93 25
-33 51 40 18 39 18 62 1z m-214 -98 c10 -19 8 -25 -15 -45 -32 -27 -58 -29
-80 -7 -12 11 -13 20 -6 34 23 43 82 53 101 18z m171 2 c39 -11 55 -35 37 -56
-15 -18 -33 -18 -69 1 -28 14 -39 43 -23 58 8 9 11 9 55 -3z m-86 -75 c8 -47
-1 -67 -28 -63 -18 2 -24 11 -26 36 -4 45 3 62 27 62 15 0 22 -9 27 -35z"/>
<path d="M615 7046 c-60 -28 -97 -66 -124 -126 -26 -57 -26 -105 -2 -161 58
-130 203 -170 331 -91 150 93 131 307 -35 383 -54 25 -110 23 -170 -5z m182
-47 c46 -29 83 -95 83 -150 0 -97 -73 -168 -184 -176 -46 -4 -66 -2 -66 6 0 6
12 11 26 11 64 0 138 62 150 126 8 43 -18 106 -52 129 -39 25 -91 19 -125 -14
-33 -33 -36 -56 -13 -89 18 -26 56 -29 79 -6 21 22 16 46 -15 61 -21 10 -22
13 -7 19 33 12 68 -5 83 -41 36 -88 -60 -163 -179 -141 -28 5 -38 13 -46 38
-58 165 120 317 266 227z"/>
<path d="M5887 6292 c-10 -10 -17 -31 -17 -47 l0 -28 -23 21 c-32 30 -72 29
-93 -3 -16 -24 -15 -28 9 -76 19 -40 21 -49 8 -43 -9 4 -33 12 -55 18 -35 10
-40 9 -57 -13 -23 -28 -24 -49 -4 -78 15 -21 14 -23 -19 -37 -23 -10 -38 -24
-42 -40 -9 -37 1 -55 41 -72 l36 -15 -30 -28 c-38 -36 -41 -78 -8 -109 13 -12
31 -22 40 -22 13 0 15 -6 11 -29 -5 -23 -1 -35 19 -55 32 -32 45 -32 92 0 31
21 36 22 30 7 -4 -10 -10 -37 -12 -61 -7 -50 15 -82 54 -82 24 0 72 42 74 64
0 6 9 -8 19 -31 29 -64 87 -71 116 -14 l11 22 17 -26 c30 -45 96 -21 96 34 0
18 4 22 18 16 40 -17 54 -17 73 1 24 22 21 74 -7 105 -15 17 -14 18 40 12 83
-9 110 24 65 81 l-20 26 24 0 c36 0 77 36 77 69 0 32 -33 66 -72 76 l-28 7 33
22 c34 23 42 43 33 82 -12 45 -69 52 -151 18 -15 -6 -12 1 13 29 40 47 43 89
7 113 -23 15 -27 15 -60 -5 -46 -27 -45 -27 -35 8 10 35 -6 71 -37 82 -17 6
-30 2 -53 -17 -23 -19 -30 -22 -30 -10 0 21 -37 45 -61 39 -12 -3 -25 -16 -31
-29 l-11 -23 -27 29 c-32 35 -50 37 -73 12z m65 -52 c12 -24 20 -71 23 -140
l6 -105 -20 37 c-28 50 -73 207 -65 230 9 29 37 18 56 -22z m107 26 c9 -10 8
-31 -3 -87 -8 -41 -18 -95 -22 -122 -10 -75 -22 -64 -29 28 -12 138 15 228 54
181z m119 -13 c5 -9 6 -28 2 -42 -17 -60 -115 -229 -127 -218 -6 7 32 164 51
209 16 37 41 68 56 68 5 0 13 -7 18 -17z m-347 -34 c12 -12 31 -44 44 -72 12
-29 34 -76 49 -106 14 -30 24 -56 21 -59 -4 -5 -84 80 -123 132 -37 48 -52 88
-41 108 13 23 24 23 50 -3z m476 -56 c6 -19 -54 -79 -142 -143 -46 -33 -86
-60 -89 -60 -11 0 109 163 142 191 34 31 81 37 89 12z m-531 -82 c53 -31 168
-130 160 -138 -4 -4 -107 33 -207 74 -40 16 -65 52 -56 77 9 24 46 19 103 -13z
m635 -42 c17 -33 -20 -63 -114 -93 -88 -28 -235 -47 -224 -29 10 16 136 88
202 116 77 32 120 34 136 6z m-614 -80 c48 -17 92 -35 98 -40 13 -13 -232 -12
-256 1 -24 13 -25 46 -1 59 29 17 66 12 159 -20z m229 -90 c16 -6 15 -8 -7 -8
-28 -1 -45 22 -32 42 4 7 9 4 13 -8 4 -10 15 -22 26 -26z m411 18 c21 -21 8
-53 -28 -66 -22 -8 -50 -5 -117 10 -48 11 -111 24 -140 31 -29 6 -50 13 -47
16 9 9 227 31 274 27 23 -1 50 -10 58 -18z m-517 -5 c0 -4 -21 -18 -47 -32
-27 -13 -75 -41 -109 -62 -84 -52 -129 -49 -122 7 5 48 44 66 165 80 59 7 109
13 111 14 1 0 2 -2 2 -7z m24 -34 c-24 -42 -128 -167 -153 -186 -34 -25 -52
-27 -69 -10 -36 36 7 87 133 157 98 56 99 57 89 39z m40 -40 c-27 -147 -64
-252 -96 -272 -24 -15 -52 3 -56 36 -5 39 122 268 148 268 5 0 7 -15 4 -32z
m184 21 c145 -34 223 -76 209 -113 -13 -34 -70 -14 -199 67 -99 62 -100 67
-10 46z m-6 -76 c77 -61 118 -110 118 -142 0 -27 -22 -36 -49 -22 -22 12 -90
104 -137 185 -32 56 -27 54 68 -21z m-116 -92 c22 -135 8 -182 -45 -145 -25
18 -27 57 -10 179 19 139 27 135 55 -34z m59 43 c56 -89 76 -140 65 -169 -21
-56 -59 2 -96 149 -13 50 -24 92 -24 94 -1 10 13 -8 55 -74z"/>
<path d="M1315 5978 c-11 -6 -27 -21 -37 -32 l-17 -21 -16 23 c-23 32 -83 31
-115 -3 -19 -20 -22 -31 -16 -66 6 -40 6 -41 -19 -35 -14 4 -40 0 -60 -8 -56
-24 -66 -79 -20 -114 l23 -17 -30 -34 c-24 -27 -29 -40 -24 -65 8 -39 30 -56
73 -56 30 0 33 -2 23 -19 -15 -30 -12 -56 11 -85 25 -32 66 -34 102 -6 l26 20
6 -20 c19 -59 93 -79 133 -37 12 13 22 31 22 41 0 14 6 16 33 11 25 -5 39 -1
61 16 26 20 28 27 23 69 -5 45 -5 47 25 56 17 5 41 22 52 37 19 26 19 30 6 54
-8 14 -24 31 -35 37 -11 6 -22 12 -24 14 -3 1 5 11 17 22 32 30 30 83 -5 110
-27 21 -50 22 -95 5 -15 -6 -18 -2 -18 25 0 22 -9 41 -29 61 -32 31 -45 35
-76 17z m61 -43 c31 -47 -17 -158 -66 -153 -23 3 -25 8 -28 60 -3 64 8 95 41
108 32 13 35 12 53 -15z m-158 -8 c27 -29 41 -129 22 -152 -12 -14 -16 -13
-37 7 -30 28 -63 90 -63 117 0 17 33 51 50 51 4 0 16 -10 28 -23z m316 -99
c21 -34 -77 -98 -151 -98 -44 0 -20 59 42 101 36 23 93 22 109 -3z m-421 -19
c56 -29 95 -87 69 -103 -4 -2 -39 3 -76 12 -84 21 -110 48 -77 81 23 23 51 27
84 10z m205 -87 c3 -23 3 -23 -22 -7 -34 23 -66 6 -66 -35 0 -60 79 -65 106
-7 l14 32 -2 -29 c-4 -38 -47 -71 -82 -62 -80 20 -63 142 18 134 24 -2 32 -8
34 -26z m229 -38 c35 -48 -54 -81 -130 -49 -30 12 -38 21 -35 38 2 16 12 24
38 29 54 10 113 2 127 -18z m-247 -15 c0 -5 -9 -9 -20 -9 -11 0 -20 6 -20 14
0 9 7 12 20 9 11 -3 20 -9 20 -14z m-122 -1 c7 -7 12 -17 12 -23 0 -17 -93
-65 -127 -65 -56 0 -71 44 -27 79 30 24 122 29 142 9z m225 -62 c45 -19 69
-49 65 -82 -8 -66 -73 -52 -108 24 -32 67 -19 85 43 58z m-175 -9 c30 -36 -39
-151 -87 -145 -60 7 -47 78 23 128 48 34 50 34 64 17z m102 -59 c22 -47 26
-98 8 -116 -7 -7 -25 -12 -40 -12 -22 0 -31 6 -39 28 -10 24 -5 94 8 128 11
29 42 14 63 -28z"/>
<path d="M7035 5884 c-16 -8 -34 -22 -41 -32 -11 -15 -13 -15 -31 5 -30 36
-65 39 -103 7 -30 -26 -32 -31 -26 -72 6 -43 5 -44 -19 -38 -32 8 -90 -16
-105 -44 -14 -26 -5 -54 25 -78 l24 -19 -29 -28 c-54 -52 -27 -125 46 -125 31
0 34 -2 24 -19 -15 -30 -12 -56 11 -85 25 -32 66 -34 103 -5 l26 20 9 -24 c15
-38 40 -57 76 -57 38 0 75 31 75 62 0 16 5 18 33 13 25 -5 39 -1 61 16 26 21
28 26 23 71 -6 45 -5 48 17 48 27 0 76 45 76 70 0 23 -38 70 -56 70 -8 0 -14
5 -14 10 0 6 4 10 8 10 5 0 17 15 27 33 14 27 15 38 6 55 -25 48 -65 59 -125
36 -12 -5 -16 0 -16 19 0 68 -53 108 -105 81z m60 -34 c37 -41 -14 -163 -65
-158 -24 3 -25 6 -25 71 0 61 3 70 25 87 32 25 43 25 65 0z m-141 -34 c20 -42
21 -119 2 -135 -11 -9 -20 -4 -45 26 -63 76 -63 143 -1 143 22 0 31 -7 44 -34z
m290 -68 c11 -15 12 -26 5 -40 -24 -44 -134 -83 -164 -58 -12 10 -10 17 13 48
24 32 89 71 119 72 6 0 19 -10 27 -22z m-406 -32 c15 -8 39 -27 55 -43 22 -24
25 -32 15 -45 -12 -14 -20 -14 -76 -2 -74 15 -92 27 -92 60 0 41 49 56 98 30z
m201 -86 c3 -25 3 -25 -18 -6 -45 41 -98 -25 -55 -68 28 -29 68 -16 92 29 6
11 12 14 12 7 1 -44 -52 -79 -94 -62 -72 27 -48 135 28 128 24 -2 32 -8 35
-28z m206 -20 c58 -22 32 -80 -36 -80 -92 0 -149 67 -69 81 55 10 77 10 105
-1z m-225 -31 c0 -5 -9 -9 -20 -9 -11 0 -20 6 -20 14 0 9 7 12 20 9 11 -3 20
-9 20 -14z m-141 5 c49 -10 40 -38 -21 -68 -76 -38 -128 -32 -128 15 0 44 70
68 149 53z m248 -69 c43 -18 62 -41 63 -75 0 -51 -42 -66 -77 -27 -46 49 -65
117 -33 117 6 0 27 -7 47 -15z m-179 -8 c31 -37 -38 -151 -87 -145 -60 7 -48
74 22 126 48 36 51 37 65 19z m122 -133 c0 -38 -20 -57 -57 -52 -22 2 -29 9
-34 38 -10 48 8 128 29 133 21 4 62 -74 62 -119z"/>
<path d="M8075 5091 c-45 -20 -69 -59 -72 -119 -5 -67 16 -110 69 -142 90 -55
208 20 208 131 0 40 -6 53 -38 89 -35 39 -43 43 -92 46 -30 2 -64 0 -75 -5z
m143 -66 c27 -31 29 -85 5 -125 -39 -67 -138 -66 -174 1 -18 35 33 98 82 99
30 0 49 -17 49 -43 0 -15 -3 -17 -14 -8 -22 18 -48 2 -44 -28 2 -20 9 -27 31
-29 66 -8 90 67 38 119 -36 35 -77 38 -115 8 -32 -25 -47 -18 -21 11 40 45
121 42 163 -5z"/>
<path d="M1266 4411 c-3 -5 -15 -7 -26 -4 -13 4 -30 -2 -43 -14 -12 -11 -32
-26 -44 -32 -13 -6 -23 -20 -23 -30 0 -10 -7 -24 -15 -31 -22 -18 -15 -128 8
-145 9 -7 17 -19 17 -27 0 -18 20 -38 37 -38 7 0 21 -8 31 -18 24 -24 120 -23
134 2 5 9 22 16 38 16 31 0 50 22 50 58 0 11 7 25 15 32 17 14 20 56 4 65 -6
4 -7 19 -4 35 5 22 0 35 -22 59 -15 16 -34 37 -41 45 -7 9 -24 16 -37 16 -13
0 -27 5 -30 10 -8 12 -42 13 -49 1z m34 -31 c0 -5 -4 -10 -10 -10 -5 0 -10 5
-10 10 0 6 5 10 10 10 6 0 10 -4 10 -10z m-60 -10 c0 -5 -7 -10 -16 -10 -8 0
-12 5 -9 10 3 6 10 10 16 10 5 0 9 -4 9 -10z m125 -10 c3 -5 1 -10 -4 -10 -6
0 -11 5 -11 10 0 6 2 10 4 10 3 0 8 -4 11 -10z m-185 -29 c0 -6 -4 -13 -10
-16 -5 -3 -10 1 -10 9 0 9 5 16 10 16 6 0 10 -4 10 -9z m154 -53 c6 -18 6 -38
0 -55 -8 -23 -15 -28 -44 -28 -32 0 -35 3 -35 29 0 16 6 31 13 34 6 2 12 -3
12 -12 0 -9 8 -16 20 -16 13 0 20 7 20 18 0 23 -19 42 -42 42 -23 0 -68 -43
-68 -65 0 -27 46 -65 78 -65 43 0 71 28 81 80 7 42 8 43 15 18 5 -15 3 -42 -4
-63 -33 -100 -203 -80 -187 22 9 54 53 95 97 91 28 -2 37 -9 44 -30z m81 22
c3 -5 1 -10 -4 -10 -6 0 -11 5 -11 10 0 6 2 10 4 10 3 0 8 -4 11 -10z m-265
-35 c0 -8 -4 -15 -9 -15 -13 0 -22 16 -14 24 11 11 23 6 23 -9z m277 -57 c-3
-8 -6 -5 -6 6 -1 11 2 17 5 13 3 -3 4 -12 1 -19z m-267 -13 c0 -8 -4 -15 -9
-15 -13 0 -22 16 -14 24 11 11 23 6 23 -9z m30 -66 c0 -5 -4 -9 -10 -9 -5 0
-10 7 -10 16 0 8 5 12 10 9 6 -3 10 -10 10 -16z m208 9 c-2 -6 -10 -14 -16
-16 -7 -2 -10 2 -6 12 7 18 28 22 22 4z m-148 -48 c0 -5 -4 -10 -9 -10 -6 0
-13 5 -16 10 -3 6 1 10 9 10 9 0 16 -4 16 -10z m70 0 c0 -5 -4 -10 -10 -10 -5
0 -10 5 -10 10 0 6 5 10 10 10 6 0 10 -4 10 -10z"/>
<path d="M587 4335 c-106 -37 -138 -148 -66 -230 58 -66 143 -68 203 -6 63 66
51 188 -23 225 -44 22 -74 25 -114 11z m82 -36 c27 -10 51 -34 51 -53 0 -3
-15 3 -32 14 -47 28 -84 26 -119 -9 -34 -35 -38 -72 -8 -102 28 -28 73 -23 77
10 5 32 -11 46 -37 32 -18 -10 -21 -9 -21 7 0 51 67 58 111 11 36 -38 36 -58
3 -90 -36 -33 -102 -34 -138 0 -51 48 -42 135 18 172 36 22 51 23 95 8z"/>
<path d="M7473 3673 c-35 -7 -73 -59 -73 -100 0 -25 8 -43 29 -64 88 -87 228
40 144 130 -29 30 -61 41 -100 34z m-14 -63 c-20 -27 -21 -32 -9 -57 23 -45
23 -50 1 -24 -12 13 -21 33 -21 45 0 24 26 66 41 66 5 0 0 -13 -12 -30z m107
-14 c14 -59 -49 -91 -82 -41 -15 23 -12 45 7 45 5 0 9 -7 9 -15 0 -8 9 -15 20
-15 23 0 28 38 8 59 -11 11 -9 11 9 2 13 -6 25 -22 29 -35z"/>
<path d="M1740 1105 c-86 -39 -140 -122 -140 -215 0 -203 224 -283 377 -135
82 80 93 164 33 259 -42 66 -98 99 -174 103 -40 2 -73 -2 -96 -12z m160 -45
c125 -64 134 -236 16 -305 -50 -29 -134 -43 -162 -27 -17 10 -16 11 11 12 109
2 190 110 152 202 -36 86 -155 96 -188 16 -24 -59 37 -113 82 -72 26 23 21 58
-9 62 -31 5 -17 22 17 22 74 0 90 -111 23 -159 -62 -43 -162 -39 -187 9 -19
36 -19 101 -1 143 15 38 88 104 120 110 49 10 89 6 126 -13z"/>
<path d="M6032 949 c-77 -39 -132 -124 -132 -208 0 -42 25 -99 58 -135 31 -32
116 -76 150 -76 12 0 22 -4 22 -10 0 -5 7 -10 15 -10 8 0 15 5 15 10 0 6 11
10 24 10 36 0 117 60 139 104 60 116 11 257 -108 312 -63 30 -126 31 -183 3z
m191 -55 c69 -45 99 -124 77 -203 -12 -47 -36 -61 -101 -61 -71 0 -139 54
-139 110 0 40 35 80 70 80 35 0 49 -17 18 -22 -45 -6 -31 -78 15 -78 57 0 78
82 31 119 -52 41 -127 22 -159 -39 -44 -84 21 -193 123 -207 50 -7 46 -23 -6
-23 -133 0 -232 108 -202 220 23 85 107 145 190 135 24 -3 62 -17 83 -31z"/>
</g>
</svg>
