<?xml version="1.0" standalone="no"?>
<!DOCTYPE svg PUBLIC "-//W3C//DTD SVG 20010904//EN"
 "http://www.w3.org/TR/2001/REC-SVG-20010904/DTD/svg10.dtd">
<svg version="1.0" xmlns="http://www.w3.org/2000/svg"
 width="850.000000pt" height="850.000000pt" viewBox="0 0 850.000000 850.000000"
 preserveAspectRatio="xMidYMid meet">
<metadata>
Created by potrace 1.14, written by Peter Selinger 2001-2017
</metadata>
<g transform="translate(0.000000,850.000000) scale(0.100000,-0.100000)"
fill="#000000" stroke="none">
<path d="M3925 8069 c-22 -6 -77 -9 -122 -6 -53 3 -87 1 -97 -7 -21 -16 -31
-367 -28 -916 3 -401 -11 -884 -25 -900 -3 -3 -172 -6 -376 -6 -407 -1 -761
-15 -904 -35 -74 -10 -115 -11 -201 -1 -59 7 -159 12 -222 12 -62 0 -142 5
-177 11 -49 9 -67 8 -78 -1 -13 -10 -15 -56 -16 -274 0 -143 -4 -380 -8 -526
-5 -146 -6 -270 -4 -276 17 -47 668 -72 963 -38 168 20 249 23 672 27 l337 3
4 -211 c2 -115 9 -433 17 -705 10 -388 11 -537 1 -690 -28 -480 -31 -607 -27
-1445 2 -600 7 -919 16 -1004 9 -96 9 -168 1 -322 -12 -201 -8 -293 13 -307 6
-4 83 -10 171 -14 88 -3 193 -10 234 -14 90 -8 217 8 325 42 71 23 88 25 175
19 53 -4 129 -16 170 -26 41 -11 89 -19 108 -19 39 0 42 13 17 81 -14 39 -15
99 -10 509 4 256 1 769 -5 1140 -6 371 -15 927 -19 1235 -3 308 -12 639 -19
735 -13 171 -13 952 0 964 19 20 325 28 1119 29 l875 2 18 65 c19 69 20 48
-13 356 -7 70 -7 109 0 128 7 19 7 33 -1 48 -11 21 -1 200 21 363 13 99 -14
132 -99 120 -98 -13 -419 -16 -721 -6 -260 9 -328 15 -390 31 -41 11 -140 25
-219 31 -123 9 -157 8 -225 -6 -57 -11 -123 -15 -226 -13 l-145 3 -2 225 c0
124 -4 414 -8 645 -4 271 -3 452 4 510 15 128 25 348 18 377 -12 45 -49 52
-230 42 -184 -10 -372 -8 -467 7 -114 17 -154 18 -195 8z m150 -50 c6 -6 12
-64 13 -129 4 -115 3 -120 -16 -120 -12 0 -37 15 -56 34 l-36 33 0 96 c0 83 2
96 18 100 22 6 64 -2 77 -14z m-150 -74 l0 -80 -36 -3 c-51 -4 -62 13 -53 88
7 65 22 82 69 77 18 -2 20 -9 20 -82z m-127 -18 c-4 -79 -9 -100 -30 -131 -14
-21 -28 -34 -30 -29 -2 4 -2 63 0 131 l4 122 30 0 31 0 -5 -93z m415 80 c27
-19 37 -245 13 -281 -22 -35 -81 -37 -90 -3 -8 30 -8 282 1 290 11 11 58 8 76
-6z m435 -123 c4 -181 -13 -217 -65 -141 -21 30 -23 45 -23 149 0 125 1 128
55 125 l30 -2 3 -131z m118 100 c9 -48 -4 -222 -19 -254 -7 -14 -22 -26 -35
-28 l-22 -3 0 160 0 161 35 0 c31 0 35 -3 41 -36z m-402 -1 c2 -10 7 -43 11
-73 l6 -55 -45 -38 c-25 -20 -47 -37 -50 -37 -3 0 -6 50 -6 110 l0 110 39 0
c29 0 41 -5 45 -17z m151 -58 l0 -70 -32 -3 c-56 -5 -73 11 -73 71 0 64 13 79
65 75 l40 -3 0 -70z m-596 -116 c17 -6 71 -42 119 -80 48 -38 98 -72 110 -76
45 -11 99 16 177 87 62 58 80 70 109 70 36 0 38 -2 109 -100 40 -55 82 -72
155 -64 l52 5 0 -61 c0 -55 -3 -65 -30 -91 l-30 -30 -41 23 c-22 12 -57 41
-77 63 -65 71 -113 105 -151 105 -29 0 -44 -10 -107 -76 l-73 -76 -47 7 c-71
10 -131 42 -172 92 -41 49 -81 73 -123 73 -22 0 -40 -15 -91 -74 -79 -93 -93
-96 -86 -18 9 96 83 214 141 225 12 2 22 5 23 6 1 0 15 -4 33 -10z m32 -195
c24 -12 30 -21 27 -42 -3 -23 -8 -28 -38 -30 -19 -2 -41 -9 -48 -15 -29 -23
-53 54 -27 83 22 24 46 25 86 4z m507 -36 c3 -27 1 -28 -38 -28 -28 0 -43 5
-47 16 -8 22 24 46 57 42 19 -2 26 -10 28 -30z m122 -96 c78 -81 99 -121 80
-157 -8 -15 -11 -40 -7 -68 12 -85 -20 -114 -66 -61 -12 15 -36 41 -52 60 -17
18 -36 53 -44 78 -12 42 -11 49 10 92 21 45 22 49 6 77 -42 71 -9 62 73 -21z
m-510 16 c0 -6 14 -39 32 -74 l32 -63 -22 -24 c-25 -27 -28 -65 -7 -93 14 -19
20 -66 9 -76 -3 -3 -20 -1 -38 4 -35 11 -57 46 -91 148 -19 57 -19 84 0 100 9
8 15 30 15 60 0 25 3 49 6 53 9 9 64 -21 64 -35z m-231 10 c32 -82 34 -106 16
-154 -17 -46 -100 -152 -120 -153 -6 -1 -10 41 -10 107 0 82 4 115 18 143 37
75 79 100 96 57z m521 -13 c0 -12 5 -36 11 -53 8 -23 8 -51 -1 -104 -11 -61
-18 -77 -51 -112 -36 -39 -39 -40 -55 -24 -12 11 -18 31 -17 55 1 21 -5 49
-14 62 -24 37 0 105 56 162 48 48 71 53 71 14z m112 -8 c12 -19 9 -34 -8 -41
-10 -4 -18 0 -21 13 -3 11 -14 22 -25 24 -12 4 -17 10 -13 17 8 14 56 4 67
-13z m-514 -31 c-2 -15 -11 -22 -33 -24 l-30 -3 24 19 c17 13 22 25 17 37 -5
15 -4 16 9 5 9 -7 15 -23 13 -34z m245 -7 c10 -8 -12 -89 -24 -89 -12 0 -39
67 -39 96 0 22 2 23 28 12 15 -7 31 -15 35 -19z m540 -46 c7 -44 -5 -63 -31
-47 -21 14 -27 50 -12 70 21 24 37 16 43 -23z m-283 -90 c0 -35 -3 -36 -35
-24 -16 6 -19 15 -16 47 1 21 8 45 14 53 9 11 14 8 24 -15 7 -16 12 -44 13
-61z m-511 0 c11 -29 17 -53 13 -53 -14 0 -92 45 -92 53 0 18 43 68 51 60 4
-4 17 -32 28 -60z m194 -23 c-7 -28 23 -37 47 -15 19 17 20 17 20 -3 0 -24
-36 -53 -55 -46 -17 7 -39 60 -30 73 11 18 23 12 18 -9z m602 -5 c0 -12 -8
-21 -20 -24 -16 -3 -17 -1 -7 12 11 13 10 17 -5 26 -16 10 -15 11 7 9 17 -2
25 -9 25 -23z m-807 -76 c30 -23 84 -56 121 -75 111 -57 183 -42 300 60 40 34
74 56 88 56 16 0 45 -21 88 -65 59 -61 66 -65 108 -65 29 0 53 7 70 20 14 11
28 20 32 20 4 0 5 -28 2 -62 -5 -57 -9 -66 -43 -96 -45 -39 -54 -35 -25 11 21
34 15 57 -14 57 -13 0 -113 -68 -147 -100 -45 -42 -51 -19 -8 30 16 19 29 41
30 49 0 29 -131 -9 -174 -50 -6 -5 -17 -9 -25 -9 -10 0 -6 9 12 28 51 53 26
79 -45 48 -18 -8 -51 -22 -72 -32 -22 -9 -62 -37 -90 -63 -28 -25 -44 -37 -36
-26 8 11 22 27 31 35 22 21 40 56 32 64 -24 23 -163 -31 -220 -87 -45 -43 -42
-22 3 24 47 48 41 69 -18 69 -24 0 -56 -8 -73 -18 -32 -20 -115 -121 -115
-140 0 -7 -4 -12 -9 -12 -4 0 -11 46 -14 103 -5 91 -4 105 13 127 11 14 26 39
34 55 15 36 70 85 93 85 9 0 41 -19 71 -41z m802 18 c0 -7 -37 -47 -44 -47
-16 0 -3 32 17 40 27 11 27 11 27 7z m-510 -47 c8 -15 6 -21 -9 -30 -29 -15
-71 -12 -77 5 -16 40 65 64 86 25z m60 -172 c0 -7 -9 -27 -19 -44 -35 -58 -35
-123 0 -109 8 3 23 22 34 42 21 39 96 103 121 103 11 0 14 -12 11 -53 -2 -29
-6 -58 -11 -65 -4 -6 -4 -16 -1 -22 13 -20 44 -9 64 23 11 18 44 53 72 77 l52
44 -7 -47 c-8 -52 -1 -87 17 -87 7 0 33 23 59 52 25 29 50 49 54 45 10 -9 22
-200 23 -354 1 -111 1 -113 -23 -119 -36 -9 -60 -1 -64 19 -6 32 7 64 28 70
17 4 21 13 20 44 -1 21 2 55 6 76 5 28 3 37 -7 38 -8 0 -36 4 -64 8 -70 12
-85 2 -85 -58 0 -76 9 -108 36 -120 27 -12 33 -51 10 -70 -9 -7 -38 -11 -73
-9 -55 3 -58 4 -61 31 -3 23 0 27 22 27 32 0 38 20 34 120 l-3 75 -71 3 c-52
2 -73 -1 -75 -10 -3 -7 -3 -52 -1 -100 3 -86 4 -88 28 -88 20 0 24 -5 24 -29
0 -29 0 -29 -74 -36 -41 -4 -79 -4 -85 -1 -20 13 -11 42 17 52 27 10 27 11 27
105 l0 94 -70 7 c-38 4 -72 4 -75 2 -3 -3 -5 -49 -5 -102 0 -96 0 -97 28 -110
20 -10 27 -20 25 -35 -3 -20 -10 -22 -85 -25 l-83 -3 0 41 c0 37 2 41 23 39
40 -6 47 8 47 84 0 116 -1 117 -77 114 -82 -4 -91 -14 -89 -108 1 -60 4 -73
23 -87 12 -9 23 -30 25 -47 l3 -30 -76 -3 c-72 -3 -77 -1 -82 19 -8 29 0 41
23 34 29 -9 35 16 30 112 l-5 88 -51 3 c-27 2 -62 -2 -77 -7 -26 -10 -27 -13
-27 -85 0 -91 5 -106 36 -106 20 0 24 -5 24 -30 0 -23 -5 -31 -24 -36 -13 -3
-33 -1 -44 5 -19 10 -20 18 -15 148 6 168 12 193 62 269 52 77 61 87 94 109
38 25 43 14 13 -30 -37 -54 -48 -133 -20 -142 6 -2 34 25 62 60 33 43 67 73
102 91 l52 27 -7 -23 c-4 -13 -14 -35 -21 -50 -16 -30 -19 -84 -5 -92 5 -3 35
24 67 61 52 59 133 123 156 123 4 0 8 -6 8 -12z m-205 -353 c0 -59 -1 -60 -29
-63 -35 -4 -46 10 -46 65 0 45 18 65 55 60 18 -2 20 -9 20 -62z m416 18 c8
-60 -4 -85 -38 -81 -26 3 -28 7 -31 52 -4 65 2 78 35 74 25 -3 29 -8 34 -45z
m177 35 c17 -17 15 -58 -5 -80 -18 -20 -48 -24 -58 -7 -11 16 3 23 19 10 11
-9 15 -8 20 5 9 23 -2 36 -25 29 -14 -5 -19 -2 -19 14 0 33 45 52 68 29z
m-393 -9 c4 -5 4 -37 0 -70 -7 -56 -8 -59 -35 -59 -32 0 -47 32 -24 54 18 19
18 32 -2 40 -22 8 -13 29 17 37 35 10 37 10 44 -2z m-422 -6 c3 -5 8 -34 11
-65 7 -58 7 -58 -19 -58 -48 0 -65 17 -65 63 0 24 5 48 12 55 13 13 54 16 61
5z m866 -252 c7 -5 10 -14 6 -21 -5 -9 -66 -10 -242 -6 -130 3 -238 8 -241 11
-3 3 10 6 29 6 19 1 95 5 169 8 204 11 264 12 279 2z m-622 -17 c-7 -7 -380
-34 -386 -28 -11 11 17 20 82 25 100 8 312 10 304 3z m629 -67 c25 -24 -36
-29 -512 -36 -275 -4 -503 -4 -508 1 -17 14 40 26 160 36 139 11 849 11 860
-1z m4 -92 c0 -7 -14 -15 -31 -19 -17 -3 -247 -6 -511 -6 -379 0 -479 3 -476
13 4 9 105 14 439 19 239 4 457 9 484 10 65 4 95 -1 95 -17z m818 -56 c12 -5
22 -13 22 -18 0 -17 -57 -156 -94 -230 l-35 -68 -71 3 c-40 2 -78 8 -85 14 -7
5 -20 32 -30 58 -10 26 -35 80 -56 120 -22 41 -39 87 -39 102 0 25 4 29 33 33
50 6 329 -5 355 -14z m-2329 -25 c9 -8 -86 -258 -101 -268 -22 -13 -32 -3 -20
21 15 29 55 212 49 227 -12 31 -84 -10 -100 -57 -2 -7 -18 1 -42 21 -51 45
-60 33 -45 -60 15 -99 27 -126 64 -145 l31 -17 -25 -6 c-14 -4 -29 -5 -35 -3
-12 4 -35 51 -35 72 0 8 -9 42 -20 75 -34 101 -40 122 -40 134 0 16 300 22
319 6z m1461 8 c0 -12 -197 -221 -343 -364 -94 -92 -123 -115 -136 -109 -9 5
-45 40 -81 78 -36 37 -108 101 -161 140 -70 53 -113 95 -158 155 l-62 83 28 7
c15 5 106 8 201 7 95 -1 176 2 179 5 10 9 533 7 533 -2z m177 -30 c-4 -20 -16
-56 -27 -79 -11 -23 -20 -47 -20 -54 0 -7 -16 -62 -36 -123 -50 -152 -55 -241
-21 -362 14 -49 29 -109 32 -134 4 -25 15 -72 25 -105 11 -33 21 -76 22 -95 3
-31 0 -35 -22 -38 -14 -2 -44 7 -67 20 -51 28 -493 455 -493 477 0 8 32 45 72
81 87 79 292 288 342 350 57 69 103 99 155 100 l44 0 -6 -38z m240 26 c-3 -9
-26 -12 -83 -10 -114 5 -118 22 -5 22 70 0 92 -3 88 -12z m-1427 -23 c28 -15
52 -40 97 -105 39 -56 96 -110 196 -185 90 -68 197 -178 197 -203 0 -17 -50
-70 -140 -147 -25 -21 -103 -95 -175 -164 -71 -70 -143 -137 -159 -149 -30
-23 -90 -30 -101 -12 -7 11 6 85 35 190 11 41 23 102 26 135 3 33 13 90 21
126 17 75 15 94 -37 254 -52 161 -80 267 -74 277 7 11 80 0 114 -17z m2130 5
c74 -5 137 -9 140 -10 2 0 -1 -5 -8 -12 -17 -17 -332 -25 -332 -9 0 30 22 53
43 46 12 -3 83 -10 157 -15z m-2952 -2 c-6 -18 -66 -27 -185 -27 -80 -1 -103
2 -103 12 0 8 3 17 7 20 3 4 69 7 146 7 106 0 138 -3 135 -12z m657 1 c4 -6 5
-12 3 -14 -7 -7 -226 -10 -233 -3 -20 20 14 28 115 28 66 0 111 -4 115 -11z
m-1010 -9 c3 -5 -13 -45 -35 -88 -22 -44 -40 -83 -40 -88 0 -5 14 -29 31 -54
16 -25 43 -71 60 -103 33 -65 33 -66 -32 -154 -22 -29 -39 -59 -39 -68 0 -8
27 -45 60 -80 33 -35 60 -69 60 -74 0 -5 -22 -38 -50 -72 -27 -34 -50 -66 -50
-72 0 -5 16 -37 35 -71 45 -81 45 -98 3 -94 -28 3 -37 12 -70 68 -21 36 -38
75 -38 87 0 11 20 53 44 93 l45 72 -55 64 c-66 79 -68 99 -14 170 55 74 53
102 -20 198 -32 42 -40 61 -40 95 0 44 33 120 70 159 21 22 64 30 75 12z
m-720 -37 c19 -20 35 -40 35 -44 0 -4 3 -14 6 -23 9 -24 -16 -20 -59 9 -31 21
-37 32 -37 60 0 19 5 35 10 35 6 0 26 -17 45 -37z m112 25 c9 -13 41 -109 61
-183 26 -101 42 -370 23 -417 -5 -13 -19 -57 -32 -98 -49 -157 -126 -280 -175
-280 -13 0 -24 3 -24 8 0 4 20 32 45 62 96 117 145 266 145 442 0 169 -32 327
-86 423 -13 24 -24 46 -24 49 0 12 58 6 67 -6z m117 -15 c25 -49 58 -272 63
-428 5 -143 4 -153 -21 -224 -14 -41 -26 -81 -26 -88 0 -32 -62 -171 -92 -206
-31 -35 -61 -47 -72 -29 -2 4 14 39 36 77 90 156 128 276 128 405 -1 157 -18
311 -45 393 -31 96 -32 127 -5 127 11 0 25 -12 34 -27z m206 21 c17 -4 34 -13
37 -20 2 -7 -14 -40 -36 -73 -23 -33 -41 -64 -41 -70 0 -24 44 -109 71 -135
40 -39 38 -75 -11 -157 -22 -37 -40 -76 -40 -86 1 -10 23 -47 50 -83 28 -36
50 -72 50 -80 0 -8 -27 -48 -60 -88 -33 -41 -60 -79 -60 -85 0 -6 18 -29 39
-52 21 -22 42 -50 45 -61 6 -18 1 -22 -31 -28 -71 -11 -231 -1 -249 16 -3 4 5
23 18 45 38 60 73 155 103 278 13 52 17 109 16 221 -1 142 -5 178 -32 322 -6
31 -13 76 -16 100 l-6 42 60 0 c33 0 75 -3 93 -6z m146 -8 c3 -8 -13 -43 -35
-79 -23 -35 -41 -70 -41 -77 0 -8 22 -45 48 -84 75 -112 79 -121 59 -159 -10
-17 -33 -57 -52 -87 -19 -30 -35 -58 -35 -62 0 -4 11 -17 24 -30 14 -13 39
-41 56 -63 37 -46 35 -64 -15 -138 -19 -29 -35 -60 -35 -70 0 -11 16 -45 36
-78 39 -62 39 -89 1 -89 -23 0 -67 32 -67 49 0 5 -13 25 -30 46 -42 53 -39 77
21 140 60 64 64 87 23 146 -79 113 -78 109 -24 189 22 32 40 68 40 80 0 11
-22 54 -50 95 -60 88 -62 114 -18 187 52 88 82 115 94 84z m3766 -64 c32 -82
35 -70 -42 -187 -21 -33 -39 -68 -39 -77 -1 -9 17 -38 39 -63 72 -83 72 -89 0
-195 -22 -32 -40 -64 -40 -71 0 -7 23 -36 50 -65 28 -29 50 -62 50 -72 0 -11
-15 -42 -33 -68 -19 -27 -42 -64 -51 -82 -13 -24 -23 -32 -38 -30 -34 5 -31
20 17 93 25 38 45 73 45 78 0 5 -28 35 -62 67 -71 66 -71 66 2 165 22 30 40
65 40 78 0 24 -32 78 -70 119 -30 32 -25 56 31 146 41 68 49 88 44 112 -4 16
-11 33 -17 36 -15 10 -40 73 -32 85 3 6 22 9 42 7 35 -3 37 -5 64 -76z m344
64 c3 -8 -9 -47 -27 -88 -57 -130 -73 -329 -44 -563 8 -66 24 -154 36 -195 37
-136 47 -120 -75 -120 -72 0 -106 4 -106 11 0 6 18 38 40 70 62 91 62 100 -4
169 -31 32 -56 62 -56 67 0 5 20 38 45 73 25 35 45 74 45 86 0 13 -22 51 -50
85 -27 34 -50 66 -50 71 0 5 23 40 50 76 28 37 53 77 56 88 3 13 -7 46 -26 84
-17 34 -29 68 -26 75 9 24 183 34 192 11z m295 -59 c-1 -60 -3 -63 -48 -106
-26 -24 -49 -39 -51 -33 -1 5 13 46 33 90 19 44 35 84 35 89 0 12 22 34 29 28
2 -3 4 -33 2 -68z m-546 33 c26 -47 55 -114 55 -128 0 -15 -49 -90 -92 -140
-15 -18 -28 -37 -28 -42 0 -4 22 -32 49 -62 26 -29 51 -63 55 -75 8 -25 -16
-78 -63 -137 -17 -21 -31 -44 -31 -51 0 -6 27 -37 60 -69 33 -32 60 -63 60
-70 0 -6 -20 -38 -45 -71 -25 -33 -45 -65 -45 -72 0 -16 -38 -36 -56 -29 -22
9 -17 30 26 94 22 33 40 71 40 85 0 15 -18 47 -45 79 -25 30 -45 58 -45 62 0
4 20 42 45 85 53 91 52 101 -16 183 -49 57 -48 71 11 149 52 70 55 84 31 150
-12 30 -21 62 -21 72 0 27 38 18 55 -13z m355 18 c0 -7 -15 -60 -34 -118 -47
-147 -59 -215 -60 -343 -1 -135 15 -240 55 -356 36 -101 40 -134 19 -138 -37
-7 -42 8 -105 282 -21 93 -24 340 -5 443 10 59 66 199 91 229 14 16 39 17 39
1z m102 -20 c-2 -15 -18 -65 -37 -110 -48 -119 -69 -245 -63 -381 5 -102 10
-125 58 -270 40 -118 51 -160 42 -169 -34 -34 -91 92 -142 318 -22 101 -9 296
31 439 37 133 43 150 62 178 24 36 53 33 49 -5z m-1529 8 c8 -20 -16 -27 -113
-33 -94 -5 -143 6 -134 32 9 21 239 22 247 1z m-2261 -39 c4 -7 8 -15 8 -18 0
-5 -304 -34 -359 -34 -30 0 -36 14 -18 39 12 16 34 20 133 27 139 8 225 3 236
-14z m633 3 c16 -14 4 -16 -126 -21 -145 -5 -172 -1 -151 23 16 20 253 18 277
-2z m-421 -32 c-9 -55 -30 -98 -50 -98 -8 0 -22 16 -30 35 -19 46 -18 59 4 50
34 -14 46 -10 55 23 14 46 28 39 21 -10z m2875 21 c55 -34 28 -43 -158 -53
-178 -9 -261 -4 -261 18 0 30 33 41 149 47 219 11 233 11 270 -12z m-791 -31
c29 -29 12 -35 -137 -42 -82 -3 -156 -4 -165 0 -9 3 -16 15 -16 25 0 17 11 19
118 22 64 1 133 4 153 5 19 1 40 -3 47 -10z m-3403 -44 c35 -16 82 -78 95
-125 11 -39 -6 -38 -56 2 -22 17 -51 37 -66 45 -23 12 -28 21 -28 54 0 44 7
47 55 24z m1780 -5 c4 -11 4 -23 2 -26 -8 -8 -332 -7 -345 1 -6 4 -9 13 -6 21
7 17 46 21 216 23 120 2 127 1 133 -19z m-645 -14 c0 -22 -4 -25 -39 -25 -21
0 -103 -7 -181 -15 -151 -16 -191 -11 -198 26 -4 22 103 36 286 38 l132 1 0
-25z m3075 -5 c13 -22 -15 -49 -58 -54 -83 -11 -420 -11 -424 -1 -2 6 3 19 10
29 11 16 34 20 143 26 199 11 322 11 329 0z m-765 -33 c0 -23 -4 -24 -97 -30
-124 -9 -247 -9 -267 -1 -16 6 -22 35 -9 47 3 4 89 7 190 7 l183 0 0 -23z
m1530 -26 c0 -21 -84 -101 -106 -101 -28 0 -13 33 34 76 51 48 72 55 72 25z
m-3173 -17 c7 -10 12 -23 10 -29 -4 -12 -408 -28 -420 -16 -4 4 -3 20 2 34 10
25 14 26 103 30 51 2 138 3 192 2 84 -2 101 -5 113 -21z m-629 -11 c6 -9 9
-20 4 -25 -4 -4 -92 -11 -194 -14 -145 -6 -191 -4 -203 6 -24 20 -18 28 26 35
160 27 345 26 367 -2z m-1157 -40 c25 -16 54 -33 65 -39 10 -6 19 -20 19 -30
0 -16 -8 -19 -51 -19 -72 1 -104 24 -104 75 0 48 10 50 71 13z m1317 -8 c3
-24 1 -28 -9 -17 -7 6 -30 12 -50 12 -32 0 -39 -4 -53 -34 -19 -40 -21 -77 -4
-94 7 -7 31 -12 53 -12 44 0 66 16 84 60 9 23 10 22 10 -13 1 -30 -6 -45 -28
-68 -16 -16 -38 -29 -48 -29 -56 0 -120 83 -108 140 9 40 80 92 120 88 25 -3
31 -8 33 -33z m2136 27 c2 -4 -3 -17 -12 -29 -16 -19 -30 -21 -220 -27 -178
-6 -203 -5 -208 9 -4 8 -1 22 6 30 12 14 17 15 342 23 48 1 89 -2 92 -6z m676
-4 c-1 -25 -25 -45 -61 -52 -21 -3 -112 -8 -204 -9 -149 -2 -169 0 -179 15
-22 35 5 41 201 48 104 4 200 7 216 8 16 1 27 -3 27 -10z m-515 -32 c36 -38
47 -83 33 -132 -11 -43 -33 -59 -77 -58 -63 2 -96 26 -108 78 -13 58 6 101 57
128 48 25 58 23 95 -16z m-1878 -22 c76 -6 82 -9 88 -32 3 -13 5 -26 3 -27 -6
-6 -381 -22 -404 -17 -27 5 -41 37 -24 57 6 8 24 16 38 18 46 7 213 7 299 1z
m3213 -34 c0 -45 -13 -55 -79 -66 -36 -6 -41 -4 -41 13 0 19 85 92 108 93 7 0
12 -14 12 -40z m-3830 10 c0 -27 -2 -27 -162 -35 -131 -6 -137 -5 -148 15 -6
11 -8 25 -5 30 4 6 71 10 161 10 148 0 154 -1 154 -20z m180 -14 c0 -44 -60
-64 -68 -23 -5 25 16 47 44 47 19 0 24 -5 24 -24z m2104 8 c16 -6 22 -49 9
-57 -5 -3 -101 -8 -215 -12 l-208 -7 0 26 c0 34 13 37 213 46 89 4 167 8 174
8 6 1 18 -1 27 -4z m751 -40 c45 -45 27 -49 -231 -52 l-235 -4 3 34 3 33 75 6
c41 3 139 6 217 7 141 2 142 2 168 -24z m-4183 -13 c13 -6 45 -13 71 -16 37
-5 47 -10 45 -23 -4 -20 -132 -44 -148 -28 -11 11 -13 37 -4 60 7 19 7 19 36
7z m1173 -35 c15 -20 14 -21 -22 -28 -66 -13 -383 -22 -383 -11 0 41 92 61
283 61 98 0 109 -2 122 -22z m695 -4 c0 -5 -6 -16 -12 -25 -11 -13 -47 -17
-235 -23 -200 -6 -223 -5 -223 9 0 9 10 23 22 31 19 13 59 16 235 16 117 0
213 -4 213 -8z m1604 -37 c14 -21 13 -22 -87 -34 -56 -7 -158 -11 -226 -9
-103 2 -126 6 -135 20 -5 9 -8 20 -5 23 14 13 136 23 282 22 149 -1 158 -2
171 -22z m1516 -15 c0 -50 -16 -58 -78 -38 -34 10 -48 20 -50 34 -2 17 5 23
40 31 82 20 88 18 88 -27z m-750 3 c0 -5 -9 -19 -19 -33 l-19 -24 -250 -4
-250 -4 -12 22 c-23 44 -8 46 318 48 127 1 232 -1 232 -5z m-3034 -47 c-5 -21
-15 -25 -81 -35 -95 -14 -320 -14 -346 -1 -33 18 -23 38 24 45 68 9 351 24
359 19 4 -3 16 -1 25 5 21 12 28 1 19 -33z m1442 -167 c108 -110 227 -223 265
-251 73 -55 84 -81 47 -118 -40 -40 -47 -17 -12 38 13 20 13 25 1 33 -8 5 -17
9 -22 9 -4 0 -44 -35 -90 -77 -79 -75 -82 -76 -85 -50 -2 16 5 39 18 57 17 24
26 28 50 24 20 -4 34 -1 46 10 15 16 14 20 -12 57 -32 47 -164 165 -249 222
-33 22 -78 62 -100 88 -22 26 -48 50 -57 54 -21 8 -73 -16 -114 -52 -18 -16
-95 -84 -173 -152 -78 -69 -140 -129 -138 -135 8 -23 92 -10 162 23 39 19 104
46 145 62 78 30 81 30 190 -3 41 -12 155 -86 188 -120 l22 -24 -55 -53 c-59
-56 -67 -51 -34 23 38 87 0 89 -105 5 -43 -33 -80 -58 -83 -55 -3 3 11 27 31
54 50 68 48 86 -5 77 -62 -11 -105 -31 -149 -71 -48 -43 -53 -29 -8 21 26 30
29 38 17 46 -30 19 -60 7 -129 -52 -39 -34 -73 -59 -76 -57 -2 3 9 22 25 42
53 66 13 89 -63 37 -45 -32 -101 -95 -137 -156 -20 -33 -24 -35 -30 -19 -7 18
-3 114 7 163 7 32 479 499 507 500 4 1 96 -89 205 -200z m-2524 177 c-5 -14
-130 -76 -152 -76 -7 0 -12 15 -12 35 0 37 4 39 75 48 71 9 94 7 89 -7z m1202
4 c16 0 26 -11 39 -42 9 -24 25 -61 35 -83 21 -46 73 -190 91 -253 17 -60 8
-65 -120 -58 -57 3 -131 6 -164 6 l-59 0 6 38 c4 20 20 80 35 132 16 52 34
127 41 165 16 91 26 108 53 101 12 -3 32 -6 43 -6z m2279 -9 c38 -6 42 -9 79
-86 22 -44 43 -89 46 -100 4 -11 13 -33 20 -50 7 -16 16 -39 20 -50 5 -11 15
-36 24 -57 28 -64 25 -68 -61 -69 -43 0 -127 -4 -188 -8 -60 -5 -113 -6 -117
-2 -8 7 3 55 43 191 24 85 37 135 54 223 5 23 10 27 23 21 9 -4 35 -10 57 -13z
m-1765 -15 c0 -23 -4 -25 -72 -31 -40 -3 -138 -5 -218 -3 -137 3 -145 4 -145
23 0 19 8 20 145 25 311 12 290 13 290 -14z m1634 -14 c3 -5 3 -18 0 -29 -5
-19 -16 -20 -200 -26 -202 -7 -238 -2 -232 31 3 15 24 18 163 22 88 3 183 7
212 8 28 1 54 -2 57 -6z m1514 -45 c9 -9 12 -33 10 -71 l-3 -57 -53 47 c-53
47 -87 97 -78 113 7 11 106 -15 124 -32z m-828 -1 c0 -6 -7 -19 -14 -29 -11
-14 -39 -20 -137 -28 -206 -18 -278 -5 -279 52 0 15 23 16 215 16 150 0 215
-3 215 -11z m-4050 -11 c0 -10 -10 -15 -29 -15 -23 0 -30 -6 -35 -26 -8 -29
-52 -74 -72 -74 -16 0 -18 38 -5 59 12 19 101 69 124 70 9 1 17 -6 17 -14z
m1069 -10 c5 -3 7 -13 4 -23 -4 -16 -23 -20 -151 -29 -142 -10 -148 -10 -169
10 -44 40 -32 46 95 50 126 4 207 1 221 -8z m651 -9 c0 -28 -29 -34 -200 -37
-165 -4 -175 -3 -178 15 -2 10 2 22 10 27 7 5 93 9 191 9 144 0 177 -3 177
-14z m1624 -23 c15 -38 -13 -45 -200 -46 -179 -2 -179 -2 -182 21 -3 20 1 22
40 23 38 2 235 12 309 17 17 1 29 -4 33 -15z m-1034 -61 l0 -59 -47 -20 c-27
-12 -73 -31 -103 -43 -30 -11 -72 -30 -93 -41 -66 -36 -60 -16 15 48 40 34 99
87 131 117 31 31 66 56 77 56 18 0 20 -7 20 -58z m1760 -1 c19 -16 31 -33 27
-38 -5 -4 -96 -9 -202 -11 -191 -3 -193 -3 -209 19 -10 15 -12 27 -6 33 5 5
85 12 177 16 92 4 170 7 173 8 3 1 21 -12 40 -27z m-2369 1 c4 -4 3 -16 -1
-28 -8 -20 -18 -21 -151 -27 -78 -3 -148 -3 -155 0 -17 6 -27 34 -16 45 21 21
304 29 323 10z m760 -54 c108 -84 189 -159 189 -177 0 -13 -46 16 -90 57 -30
28 -113 72 -136 72 -26 0 -74 59 -74 91 0 16 4 29 9 29 5 0 51 -32 102 -72z
m-1411 40 c0 -26 -17 -36 -70 -42 -101 -12 -310 -18 -310 -9 0 5 10 19 23 31
25 24 56 28 235 30 92 2 122 -1 122 -10z m-1125 -66 c-14 -26 -37 -61 -50 -77
l-24 -30 -1 47 c0 43 3 49 47 88 26 23 49 37 51 31 2 -6 -8 -32 -23 -59z
m4933 15 c42 -43 49 -65 36 -114 -10 -37 -32 -27 -44 20 -13 49 -13 51 -34
100 -9 20 -13 37 -8 37 4 0 27 -19 50 -43z m-1544 24 c3 -4 0 -15 -7 -24 -10
-13 -41 -18 -153 -23 -138 -7 -142 -6 -164 16 -18 18 -20 24 -9 31 18 11 326
12 333 0z m-1648 -62 c3 -6 2 -15 -4 -21 -12 -12 -198 -29 -230 -21 -38 9 -23
37 23 44 71 11 203 10 211 -2z m2464 3 c0 -5 -9 -17 -20 -27 -17 -15 -47 -20
-177 -26 -165 -9 -204 -3 -211 33 -2 12 5 18 25 21 54 8 383 7 383 -1z m-3110
-14 c-1 -39 -49 -51 -241 -65 -82 -5 -87 -5 -99 16 -23 45 -10 50 132 54 73 1
150 4 171 5 24 1 37 -2 37 -10z m2265 -19 c6 -6 6 -16 -1 -27 -10 -15 -29 -17
-140 -17 -125 0 -129 1 -132 22 -3 20 2 22 75 28 43 3 83 8 88 9 19 5 100 -6
110 -15z m-1635 -65 c0 -22 -61 -44 -120 -44 -38 0 -55 5 -72 22 l-23 23 30 6
c17 4 65 7 108 8 63 1 77 -2 77 -15z m2420 -1 c0 -5 -7 -16 -14 -25 -11 -15
-29 -18 -107 -18 -94 0 -169 13 -169 30 0 5 12 11 28 13 50 7 262 7 262 0z
m-3092 -20 c-3 -18 -10 -20 -178 -38 -53 -6 -68 -4 -78 8 -20 24 0 30 113 37
55 4 110 8 123 8 17 2 23 -3 20 -15z m2282 -13 c0 -6 -42 -10 -105 -10 -63 0
-105 4 -105 10 0 6 42 10 105 10 63 0 105 -4 105 -10z m-940 -74 c0 -2 -11
-28 -24 -58 -33 -74 -41 -121 -24 -135 17 -15 36 0 66 48 24 40 109 115 119
105 3 -3 1 -30 -6 -59 -25 -103 4 -139 51 -65 31 49 82 108 93 108 4 0 4 -22
0 -49 -7 -51 0 -91 15 -91 4 0 34 27 66 60 74 77 86 78 78 5 -9 -70 9 -73 60
-10 21 25 42 45 47 45 6 0 9 -34 7 -82 l-3 -83 -42 -6 c-24 -3 -44 -7 -46 -10
-2 -2 -16 -21 -31 -41 -16 -21 -33 -38 -39 -38 -5 0 -32 23 -58 50 -30 32 -56
50 -71 50 -30 0 -80 -31 -116 -72 -36 -40 -87 -44 -111 -9 -39 57 -59 71 -101
71 -49 0 -84 -17 -124 -59 -17 -17 -37 -31 -46 -31 -8 0 -42 13 -75 30 -78 38
-113 38 -154 0 -17 -17 -31 -25 -32 -18 -6 71 25 141 128 287 25 36 27 10 3
-41 -23 -50 -31 -119 -13 -125 6 -2 30 23 52 55 47 70 123 152 141 152 6 0 10
-3 8 -7 -2 -5 -14 -30 -27 -58 -31 -64 -34 -120 -7 -120 10 0 24 9 30 20 60
107 131 185 169 185 9 0 17 -2 17 -4z m-19 -351 c70 -74 124 -74 203 0 27 25
56 45 64 45 7 0 35 -22 62 -50 68 -71 93 -68 163 19 21 26 70 26 75 -1 3 -16
-7 -27 -83 -92 -39 -34 -72 -27 -139 25 -59 47 -71 46 -144 -23 -61 -58 -71
-58 -165 -2 -80 47 -126 47 -178 -1 -33 -29 -47 -35 -84 -35 -25 0 -62 7 -82
15 -46 19 -84 19 -128 -2 -19 -9 -38 -14 -42 -10 -8 9 11 46 49 91 34 41 44
41 143 -6 33 -15 68 -28 78 -28 10 0 40 23 67 50 62 64 84 65 141 5z m350
-110 c62 -49 114 -49 167 0 43 38 52 37 52 -7 0 -43 -24 -91 -53 -107 -25 -13
-30 -12 -76 16 -26 17 -65 36 -85 43 -34 11 -40 10 -77 -14 -21 -15 -39 -31
-39 -36 0 -14 -41 -33 -71 -32 -15 0 -51 12 -81 25 -54 25 -142 57 -156 57 -4
0 -32 -18 -62 -41 -50 -38 -58 -41 -99 -35 -24 3 -49 10 -55 14 -15 11 -88 32
-113 32 -11 0 -28 -9 -38 -20 -10 -11 -22 -20 -27 -20 -18 0 -7 50 18 79 32
38 61 40 148 9 55 -19 68 -20 102 -10 22 6 53 25 71 42 42 40 76 38 143 -5 94
-60 144 -59 213 5 23 22 49 40 58 40 9 0 36 -16 60 -35z m-397 -142 c9 -58 7
-126 -5 -181 -10 -42 -9 -58 5 -100 26 -81 16 -162 -21 -162 -28 0 -48 462
-20 473 27 11 35 5 41 -30z m427 21 c10 -12 14 -58 15 -169 1 -84 5 -175 9
-204 7 -50 6 -51 -18 -51 -39 0 -47 40 -47 251 0 154 3 189 14 189 7 0 20 -7
27 -16z m-340 -20 c25 -13 30 -20 27 -47 -3 -28 -7 -32 -35 -35 -28 -3 -33 1
-39 22 -6 26 1 76 12 76 3 0 19 -7 35 -16z m259 -67 c1 -40 5 -116 10 -171 11
-125 2 -184 -35 -228 -15 -18 -32 -33 -38 -33 -6 0 -12 82 -15 221 l-4 221 32
36 c18 20 36 34 41 31 5 -3 9 -38 9 -77z m-645 56 c4 -10 11 -110 15 -223 9
-214 5 -239 -32 -225 -21 8 -28 86 -28 296 0 159 1 169 19 169 10 0 22 -8 26
-17z m915 -20 c0 -20 2 -119 5 -218 4 -150 2 -185 -10 -201 -24 -31 -32 -4
-45 165 -10 120 -10 168 -1 210 18 84 51 112 51 44z m-985 -230 c8 -158 -3
-243 -30 -243 -9 0 -14 49 -19 184 -7 182 -4 242 17 281 10 18 12 14 18 -25 4
-25 10 -114 14 -197z m164 215 c9 -24 20 -390 14 -420 -3 -10 -8 -18 -11 -18
-25 1 -33 26 -43 151 -19 226 -21 260 -15 285 8 31 43 32 55 2z m104 -60 c32
-409 32 -413 -17 -406 -18 3 -22 12 -27 73 -4 39 -7 143 -8 232 -1 144 1 163
16 172 10 5 20 8 24 5 3 -2 9 -36 12 -76z m621 70 c3 -7 7 -100 10 -205 6
-200 0 -229 -30 -157 -32 77 -30 374 2 374 8 0 16 -6 18 -12z m-300 -14 c18
-18 23 -154 6 -154 -5 0 -10 9 -10 20 0 10 -16 35 -35 54 -37 38 -38 39 -29
74 7 26 45 30 68 6z m-69 -111 c39 -59 30 -120 -23 -142 -59 -25 -99 26 -87
109 8 56 20 70 56 70 21 0 34 -9 54 -37z m80 -205 c-4 -57 -11 -107 -16 -112
-17 -19 -47 37 -48 90 0 42 4 55 24 74 14 13 25 29 25 37 0 7 5 13 11 13 8 0
9 -30 4 -102z m-115 -13 c0 -20 -5 -25 -24 -25 -15 0 -26 7 -29 19 -6 25 0 31
30 31 18 0 23 -5 23 -25z m38 -121 l43 -45 -42 -55 c-23 -30 -47 -54 -54 -54
-19 0 -133 103 -134 121 -1 19 22 41 64 63 51 27 76 20 123 -30z m282 35 c0
-29 -101 -128 -312 -307 -23 -20 -47 -9 -116 51 -32 29 -94 78 -136 111 -72
54 -95 82 -48 57 12 -6 38 -11 59 -11 33 0 46 -8 103 -65 49 -49 75 -67 102
-71 35 -6 38 -4 94 65 37 45 70 75 89 81 18 6 55 31 84 55 51 44 81 56 81 34z
m20 -167 c-62 -59 -130 -119 -152 -134 -59 -40 -130 -99 -151 -125 -24 -30
-41 -29 -85 7 -97 78 -131 102 -179 124 -29 14 -74 39 -100 57 -46 30 -163
138 -163 149 0 3 9 11 21 18 18 11 25 9 67 -26 26 -21 70 -52 97 -67 87 -50
158 -101 212 -154 29 -28 60 -51 70 -51 15 0 60 30 95 62 7 7 63 58 123 113
60 55 124 117 143 137 l34 37 40 -20 39 -20 -111 -107z m187 36 c5 -43 4 -46
-38 -78 -24 -19 -87 -71 -139 -116 -211 -181 -294 -244 -324 -244 -34 0 -141
56 -203 107 -39 32 -149 103 -160 103 -8 0 -137 92 -165 119 -30 26 -38 77
-16 99 9 9 27 -4 78 -51 40 -37 98 -78 146 -102 43 -22 88 -48 99 -59 11 -10
36 -30 55 -44 19 -15 54 -43 77 -64 56 -50 79 -49 133 8 25 25 70 64 100 87
30 22 87 71 125 107 39 36 100 90 137 120 37 30 68 59 68 65 0 28 23 -20 27
-57z m-7 -141 c0 -23 -363 -357 -388 -357 -5 0 -16 7 -23 16 -12 15 -9 21 26
52 22 19 58 48 80 64 22 16 58 46 80 67 60 55 206 171 216 171 5 0 9 -6 9 -13z
m-992 -44 c15 -10 29 -20 32 -24 3 -3 34 -22 70 -43 59 -33 190 -124 279 -193
32 -25 33 -27 16 -40 -25 -17 -37 -17 -61 5 -10 10 -100 71 -199 136 -99 65
-183 123 -187 129 -6 10 7 47 18 47 2 0 17 -8 32 -17z m992 -85 c-1 -28 -9
-39 -53 -71 -29 -20 -77 -61 -108 -90 -108 -102 -130 -117 -150 -106 -11 5
-19 13 -19 18 0 8 39 45 165 156 44 39 93 82 109 98 39 37 56 35 56 -5z m-974
-43 c27 -20 90 -62 139 -94 50 -32 107 -73 128 -91 36 -31 37 -34 21 -51 -16
-18 -19 -18 -43 -2 -14 9 -50 29 -80 45 -48 25 -114 71 -208 144 -24 18 -33
33 -33 54 0 40 16 38 76 -5z m974 -92 c0 -33 -8 -45 -65 -100 -36 -34 -81 -74
-101 -89 l-35 -27 -25 25 -25 24 111 102 c62 56 118 102 126 102 10 0 14 -12
14 -37z m-898 -91 c132 -88 128 -85 128 -99 0 -35 -44 -17 -153 62 -23 17 -61
42 -84 55 -42 23 -60 50 -48 70 7 12 11 10 157 -88z m504 -41 c81 -41 168
-114 161 -134 -2 -7 -34 -15 -73 -18 -38 -3 -93 -14 -123 -23 -53 -17 -56 -17
-100 2 -33 15 -78 22 -156 27 -60 3 -114 10 -118 14 -5 5 9 16 30 26 21 10 52
29 69 42 17 12 36 23 42 23 6 0 12 3 14 8 2 4 25 22 52 40 67 43 104 42 202
-7z m-579 -8 c33 -21 75 -50 94 -65 28 -22 31 -29 20 -42 -15 -18 -23 -15
-128 53 -54 34 -72 52 -73 69 0 31 17 28 87 -15z m973 -17 c0 -30 -8 -41 -56
-80 -62 -51 -89 -57 -100 -24 -5 17 1 28 27 50 54 46 111 88 121 88 4 0 8 -16
8 -34z m-1003 -71 c38 -19 67 -51 58 -64 -10 -17 -23 -13 -71 19 -66 46 -56
80 13 45z m1003 -52 c0 -28 -44 -83 -66 -83 -7 0 -16 10 -20 22 -5 17 1 29 30
55 43 40 56 41 56 6z m-1025 -29 c20 -15 20 -15 1 -30 -31 -22 -46 -17 -46 16
0 33 14 38 45 14z m433 -16 c38 -11 33 -20 -20 -37 -50 -16 -110 -61 -128 -97
-30 -59 -92 -154 -101 -154 -4 0 -30 14 -56 30 -26 17 -52 30 -59 30 -17 0
-116 109 -112 123 5 14 93 75 153 106 36 19 51 21 165 15 69 -3 140 -10 158
-16z m445 -24 c23 -25 61 -57 84 -71 24 -14 43 -28 43 -31 -1 -15 -28 -40 -82
-75 -31 -21 -62 -44 -68 -52 -18 -22 -34 -18 -52 13 -9 15 -57 69 -107 119
l-91 93 38 17 c20 9 66 20 102 23 36 4 71 8 78 8 7 1 32 -19 55 -44z m-269
-65 c59 -46 176 -190 176 -218 0 -20 -111 -127 -194 -186 l-65 -46 -133 89
c-184 123 -177 113 -131 201 43 82 106 154 155 175 18 8 60 15 92 15 52 1 64
-3 100 -30z m-636 -111 c15 -15 15 -40 0 -73 -18 -40 -28 -29 -28 30 0 56 6
65 28 43z m1062 -3 c0 -9 -6 -12 -15 -9 -8 4 -12 10 -9 15 8 14 24 10 24 -6z
m-32 -51 c40 -19 45 -48 6 -34 -42 16 -64 30 -64 40 0 15 23 12 58 -6z m-935
-21 c12 -11 -96 -163 -116 -163 -6 0 -7 16 -4 40 8 64 93 151 120 123z m895
-37 c59 -30 74 -47 70 -80 l-3 -25 -61 32 c-92 48 -108 61 -101 80 9 24 39 21
95 -7z m-818 -13 c-1 -36 -168 -243 -197 -243 -39 0 22 99 141 228 33 35 56
42 56 15z m781 -84 c42 -21 86 -50 98 -65 21 -26 27 -55 15 -67 -10 -10 -66
17 -118 57 -26 19 -63 43 -82 52 -39 18 -50 35 -40 60 7 19 26 14 127 -37z
m-697 19 c12 -20 -60 -111 -198 -250 l-91 -93 -3 40 c-3 32 1 42 22 58 14 10
49 48 78 85 101 127 155 185 172 179 5 -2 14 -10 20 -19z m96 -79 c0 -18 -105
-132 -241 -262 -142 -137 -144 -138 -147 -108 -3 27 15 50 168 215 162 175
173 184 196 174 13 -6 24 -15 24 -19z m525 -17 c141 -84 185 -116 191 -139 12
-45 -8 -42 -109 19 -222 133 -231 141 -210 161 15 16 53 4 128 -41z m-442 -26
c9 -7 17 -18 17 -23 0 -16 -218 -224 -355 -338 -33 -27 -71 -60 -85 -72 -29
-27 -50 -30 -50 -7 0 13 437 454 450 454 3 -1 13 -7 23 -14z m339 -34 c24 -15
74 -45 112 -66 38 -21 96 -58 128 -82 47 -37 58 -51 58 -75 0 -35 -4 -36 -42
-4 -17 14 -49 35 -71 47 -32 16 -292 181 -306 193 -1 2 0 9 4 15 12 19 69 5
117 -28z m-18 -111 c66 -44 157 -99 200 -123 125 -68 121 -57 120 -334 0 -128
-3 -236 -6 -240 -4 -3 -32 15 -64 40 -143 117 -290 170 -469 170 -207 -1 -337
-49 -468 -174 -45 -43 -84 -77 -88 -74 -3 2 -10 76 -14 163 -8 186 -9 184 99
273 33 28 113 99 176 158 63 59 142 131 175 159 58 49 62 51 106 45 30 -4 49
-2 53 5 16 26 63 8 180 -68z m-187 -603 c-8 -79 -39 -205 -51 -209 -5 -2 -13
9 -17 25 -13 47 -31 216 -25 232 4 9 21 14 52 14 l47 0 -6 -62z m-151 21 c7
-13 19 -76 27 -139 8 -63 18 -124 23 -135 7 -18 6 -19 -10 -5 -51 41 -171 268
-152 287 7 7 77 21 91 19 6 -2 15 -13 21 -27z m286 17 c71 -19 88 -26 88 -38
0 -6 -36 -48 -79 -94 -44 -46 -95 -109 -113 -139 -18 -30 -36 -55 -40 -55 -11
0 -10 24 1 52 5 13 19 68 31 123 20 94 44 165 54 165 3 0 29 -6 58 -14z m-413
-118 c21 -46 59 -110 84 -143 25 -33 44 -62 42 -64 -3 -2 -19 3 -37 12 -18 8
-57 25 -87 37 -59 23 -124 65 -159 103 -23 24 -23 26 -7 50 9 14 28 34 43 43
27 18 74 44 80 44 1 0 20 -37 41 -82z m627 16 c30 -20 54 -42 54 -49 0 -7 -24
-21 -52 -30 -29 -9 -103 -41 -165 -73 -61 -31 -115 -54 -119 -50 -4 4 6 24 22
45 46 62 176 193 192 193 7 0 38 -16 68 -36z m-789 -123 c24 -22 95 -64 156
-94 62 -30 121 -65 132 -77 11 -12 31 -28 45 -35 23 -12 32 -10 80 14 192 97
230 117 276 147 59 37 184 80 207 71 22 -8 48 -50 58 -94 4 -21 5 -127 2 -236
l-6 -197 -39 -12 c-37 -11 -55 -27 -84 -74 -11 -18 -13 -17 -22 8 -12 28 -39
48 -68 48 -23 0 -64 -39 -64 -61 0 -33 -15 -27 -35 13 -21 45 -65 85 -101 94
-65 17 -118 -31 -165 -149 -18 -45 -39 -90 -47 -99 -19 -22 -55 -23 -73 -2
-13 16 -18 24 -54 83 -49 82 -113 131 -170 131 -39 0 -115 -58 -135 -104 l-18
-39 -13 24 c-9 18 -13 92 -14 279 -1 273 3 296 57 373 26 36 42 34 95 -12z
m560 -550 c11 -11 37 -53 57 -94 53 -110 119 -157 175 -126 18 10 32 36 52 94
29 82 66 129 94 119 23 -9 18 -53 -7 -75 l-23 -20 23 -15 c17 -13 22 -26 22
-60 0 -45 -3 -50 -66 -99 -17 -13 -48 -54 -69 -90 -23 -38 -45 -65 -55 -65
-23 0 -54 32 -96 98 -47 74 -70 92 -120 92 -47 0 -68 -18 -141 -125 -43 -63
-52 -70 -85 -73 -46 -4 -77 12 -151 77 -69 60 -113 81 -172 81 -35 0 -48 -5
-67 -29 -14 -15 -30 -42 -37 -60 -24 -58 -34 -36 -27 59 7 99 14 119 64 199
79 127 129 123 221 -17 56 -85 72 -99 128 -108 57 -9 83 18 133 136 23 55 50
105 59 110 26 15 66 11 88 -9z m198 -56 c0 -23 -4 -30 -20 -30 -21 0 -31 25
-21 51 11 28 41 12 41 -21z m37 -62 c14 -8 -22 -63 -41 -63 -16 0 -49 29 -64
56 -6 10 89 17 105 7z m-204 -194 c11 -11 22 -37 26 -57 7 -47 8 -220 0 -248
-6 -24 -50 -49 -59 -34 -3 5 -8 88 -12 184 -6 158 -5 176 10 176 9 0 25 -9 35
-21z m352 -173 c0 -118 -4 -187 -10 -191 -6 -4 -21 0 -34 8 -22 15 -23 23 -29
159 -5 140 -4 144 20 176 48 64 53 50 53 -152z m-933 22 c3 -68 3 -145 -1
-171 -6 -41 -10 -47 -31 -47 -25 0 -27 6 -41 201 -6 88 7 140 38 152 24 9 29
-10 35 -135z m495 -59 l3 -152 -28 -10 c-16 -5 -31 -6 -35 -2 -10 9 -15 207
-8 259 4 25 17 57 28 72 21 26 22 26 29 6 4 -11 9 -89 11 -173z m-406 160 c16
-18 19 -41 23 -166 2 -92 -1 -149 -7 -155 -6 -6 -22 -8 -36 -4 l-25 6 0 170
c-1 181 4 195 45 149z m122 -102 c6 -7 15 -64 18 -126 l7 -112 -34 3 -34 3 -3
133 c-2 127 -2 133 16 123 10 -5 24 -16 30 -24z m489 1 c6 -7 13 -51 14 -98 3
-69 1 -85 -11 -87 -36 -7 -45 14 -48 117 -4 98 -3 101 15 91 11 -5 24 -16 30
-23z m113 -94 c0 -93 -1 -95 -22 -92 -22 3 -23 9 -26 87 -2 61 1 87 10 92 33
21 38 10 38 -87z m-920 -19 c0 -85 -3 -105 -14 -105 -21 0 -27 13 -31 68 -6
67 16 140 43 142 1 0 2 -47 2 -105z m485 63 c3 -18 5 -67 3 -108 l-3 -75 -46
-3 -47 -3 -7 96 c-4 54 -3 101 1 105 9 8 41 16 76 19 12 1 19 -9 23 -31z"/>
<path d="M3875 7769 c-10 -15 3 -25 16 -12 7 7 7 13 1 17 -6 3 -14 1 -17 -5z"/>
<path d="M4420 7760 c0 -5 7 -10 15 -10 8 0 15 5 15 10 0 6 -7 10 -15 10 -8 0
-15 -4 -15 -10z"/>
<path d="M3956 7733 c-11 -11 -6 -23 9 -23 8 0 15 4 15 9 0 13 -16 22 -24 14z"/>
<path d="M3810 7715 c0 -8 9 -15 20 -15 11 0 20 7 20 15 0 8 -9 15 -20 15 -11
0 -20 -7 -20 -15z"/>
<path d="M4366 7713 c-12 -12 -6 -33 9 -33 8 0 15 6 15 14 0 17 -14 28 -24 19z"/>
<path d="M4485 7691 c-7 -12 12 -24 25 -16 11 7 4 25 -10 25 -5 0 -11 -4 -15
-9z"/>
<path d="M3752 7648 c7 -19 38 -22 38 -4 0 10 -9 16 -21 16 -12 0 -19 -5 -17
-12z"/>
<path d="M4037 7654 c-8 -8 1 -24 14 -24 5 0 9 7 9 15 0 15 -12 20 -23 9z"/>
<path d="M4270 7641 c0 -17 18 -21 24 -6 3 9 0 15 -9 15 -8 0 -15 -4 -15 -9z"/>
<path d="M4572 7608 c7 -19 38 -22 38 -4 0 10 -9 16 -21 16 -12 0 -19 -5 -17
-12z"/>
<path d="M4703 7608 c2 -7 10 -13 17 -13 7 0 15 6 18 13 2 7 -5 12 -18 12 -13
0 -20 -5 -17 -12z"/>
<path d="M4104 7589 c-3 -6 -1 -16 5 -22 9 -9 14 -8 21 3 9 15 4 30 -10 30 -5
0 -12 -5 -16 -11z"/>
<path d="M4204 7589 c-3 -6 -1 -16 5 -22 9 -9 14 -8 21 3 9 15 4 30 -10 30 -5
0 -12 -5 -16 -11z"/>
<path d="M4652 7556 c1 -10 8 -17 13 -17 15 1 12 24 -3 29 -9 3 -13 -2 -10
-12z"/>
<path d="M4024 6659 c-3 -6 0 -15 7 -20 22 -14 29 -11 29 11 0 21 -24 27 -36
9z"/>
<path d="M4443 6654 c-8 -20 8 -36 26 -25 15 10 8 41 -9 41 -6 0 -13 -7 -17
-16z"/>
<path d="M3810 6639 c0 -25 33 -22 38 4 2 12 -3 17 -17 17 -15 0 -21 -6 -21
-21z"/>
<path d="M5240 6146 c0 -13 9 -45 19 -72 11 -27 22 -66 26 -86 3 -21 9 -39 13
-41 4 -3 27 -2 51 2 41 6 45 9 57 46 7 22 19 63 28 90 9 28 16 56 16 63 0 23
-44 12 -78 -20 l-34 -33 -31 38 c-37 43 -67 49 -67 13z m160 -58 c0 -21 -26
-88 -38 -100 -19 -19 -38 -1 -55 48 -17 52 -14 70 7 41 17 -23 43 -22 58 3 14
23 28 26 28 8z"/>
<path d="M3836 6161 c-13 -20 25 -71 83 -110 32 -22 70 -54 82 -71 13 -17 54
-65 92 -106 37 -41 67 -79 67 -83 0 -5 14 -14 30 -21 28 -12 33 -10 57 11 14
13 47 56 74 95 26 40 69 89 95 110 73 60 154 144 154 160 0 18 -25 18 -58 0
-15 -8 -47 -22 -72 -31 -24 -9 -69 -31 -100 -49 -103 -60 -112 -61 -209 -20
-47 20 -114 54 -148 76 -63 40 -135 60 -147 39z m193 -103 c69 -34 134 -68
144 -76 13 -12 17 -30 17 -79 0 -34 -3 -63 -7 -63 -15 1 -108 96 -140 142 -17
26 -44 55 -60 64 -35 23 -96 74 -87 74 4 0 64 -28 133 -62z m393 -11 c-21 -18
-70 -71 -108 -118 -38 -48 -72 -85 -76 -82 -12 7 -9 89 3 117 9 20 81 66 104
66 2 0 25 13 51 30 59 37 77 29 26 -13z"/>
<path d="M4182 6133 c4 -22 43 -25 43 -3 0 8 -11 16 -23 18 -19 3 -23 0 -20
-15z"/>
<path d="M4748 6111 c-17 -25 -215 -247 -254 -286 -17 -16 -60 -56 -97 -88
-37 -32 -67 -62 -67 -66 0 -16 411 -416 427 -416 37 0 36 29 -5 116 -40 83
-50 112 -91 256 -32 111 -30 123 56 298 56 115 78 178 69 194 -10 16 -23 14
-38 -8z m-58 -148 c0 -5 -19 -44 -41 -88 -23 -44 -50 -104 -61 -132 l-19 -53
-57 0 c-100 0 -98 5 36 141 67 68 122 126 122 131 0 4 5 8 10 8 6 0 10 -3 10
-7z m-74 -334 c7 -13 13 -36 14 -50 0 -14 9 -52 20 -85 33 -99 28 -102 -52
-32 -118 103 -178 164 -178 182 0 14 11 16 92 12 83 -4 92 -6 104 -27z"/>
<path d="M3673 6054 c-3 -9 8 -52 24 -97 47 -130 53 -149 59 -218 4 -35 11
-69 16 -76 5 -7 7 -26 3 -44 -13 -57 -85 -273 -102 -305 -16 -31 -13 -64 6
-64 12 0 36 27 124 140 41 52 116 132 166 178 50 46 94 94 97 107 11 45 -13
74 -185 218 -25 21 -75 70 -111 108 -67 71 -86 81 -97 53z m278 -279 c19 -11
35 -30 37 -42 3 -20 -1 -21 -70 -21 -40 0 -81 2 -90 5 -18 4 -51 99 -64 183
l-7 45 80 -75 c44 -41 95 -84 114 -95z m35 -118 c4 -3 -27 -39 -68 -79 -41
-40 -90 -93 -110 -118 -20 -25 -38 -43 -42 -40 -8 9 70 231 85 242 15 10 124
6 135 -5z"/>
<path d="M2126 6111 c-10 -16 5 -42 23 -39 21 4 21 42 -1 46 -9 2 -19 -1 -22
-7z"/>
<path d="M2164 5785 c-9 -22 22 -53 37 -38 15 15 7 47 -14 51 -9 2 -20 -4 -23
-13z"/>
<path d="M2170 5444 c-11 -12 -11 -18 1 -30 13 -12 18 -12 34 0 16 12 17 16 6
30 -17 20 -25 20 -41 0z"/>
<path d="M2090 5211 c0 -24 25 -34 40 -16 15 18 5 35 -21 35 -12 0 -19 -7 -19
-19z"/>
<path d="M6360 6095 c-11 -13 -11 -19 3 -33 20 -19 41 -5 35 24 -4 24 -22 28
-38 9z"/>
<path d="M6312 5862 c-17 -12 -4 -42 18 -42 22 0 32 24 17 39 -13 13 -18 13
-35 3z"/>
<path d="M6300 5486 c0 -8 5 -18 10 -21 13 -8 42 14 34 26 -9 15 -44 10 -44
-5z"/>
<path d="M6350 5249 c0 -25 33 -22 38 4 2 12 -3 17 -17 17 -15 0 -21 -6 -21
-21z"/>
<path d="M5306 5798 c-36 -51 -9 -128 45 -128 65 0 100 51 79 114 -11 35 -13
36 -60 36 -39 0 -52 -4 -64 -22z m83 -35 c12 -23 -4 -53 -29 -53 -25 0 -33 15
-26 46 7 28 40 33 55 7z"/>
<path d="M4166 5221 c-8 -13 20 -45 32 -37 20 12 14 46 -7 46 -11 0 -22 -4
-25 -9z"/>
<path d="M3040 5534 c-6 -15 -14 -54 -19 -88 -5 -33 -18 -85 -30 -114 -24 -59
-28 -122 -8 -122 6 0 26 17 43 37 l31 37 19 -23 c23 -27 66 -51 92 -51 23 0
34 21 22 41 -5 7 -14 45 -20 84 -27 166 -100 278 -130 199z m64 -92 c22 -71
40 -161 33 -169 -4 -3 -16 6 -28 20 -14 18 -30 27 -50 27 -33 0 -34 4 -14 53
8 20 15 54 15 75 0 69 21 66 44 -6z"/>
<path d="M5324 5518 c-4 -7 -13 -42 -20 -78 -7 -36 -20 -91 -29 -124 -21 -77
-7 -96 36 -48 l30 33 37 -31 c42 -34 77 -39 92 -11 8 15 1 38 -30 106 -22 48
-40 96 -40 107 0 33 -19 58 -45 58 -13 0 -27 -5 -31 -12z m69 -128 c20 -43 37
-83 37 -89 0 -20 -16 -11 -39 20 -18 24 -28 29 -47 25 -21 -6 -24 -3 -24 20 0
31 21 104 29 103 3 0 23 -35 44 -79z"/>
<path d="M4225 4294 c-14 -15 -15 -19 -2 -32 18 -17 37 -8 37 18 0 27 -16 33
-35 14z"/>
<path d="M4235 3365 c-16 -13 -53 -31 -81 -40 -62 -18 -85 -55 -35 -55 9 0 43
-13 76 -30 33 -16 65 -30 71 -30 6 0 21 12 35 26 13 15 43 35 67 46 53 24 54
44 2 59 -22 7 -47 20 -56 31 -23 24 -43 23 -79 -7z m59 -35 c14 -5 26 -14 26
-20 0 -17 -50 -43 -82 -42 -54 1 -57 22 -8 55 29 20 31 20 64 7z"/>
<path d="M3935 3150 c-11 -4 -49 -13 -85 -20 -65 -12 -100 -31 -100 -56 0 -7
28 -32 63 -56 34 -23 67 -49 74 -57 18 -24 46 -2 55 42 4 20 19 55 33 77 43
68 26 98 -40 70z m-2 -46 c3 -4 -3 -18 -13 -32 -11 -13 -20 -31 -20 -38 0 -21
-18 -17 -56 13 -39 29 -35 41 18 53 43 10 63 11 71 4z"/>
<path d="M4457 3135 c-3 -18 4 -36 22 -59 14 -19 34 -48 43 -65 14 -25 23 -31
50 -31 34 0 98 32 98 50 0 5 -9 14 -19 20 -11 5 -29 26 -42 46 -24 39 -70 64
-118 64 -23 0 -30 -5 -34 -25z m85 -26 c30 -14 61 -56 54 -75 -10 -25 -30 -15
-58 30 -38 59 -37 65 4 45z"/>
<path d="M4193 3060 c-34 -17 -73 -43 -88 -58 -27 -26 -75 -115 -75 -139 0 -7
30 -27 66 -45 36 -18 86 -52 110 -75 24 -24 49 -43 55 -43 6 0 39 29 73 65 33
35 73 69 89 75 15 5 30 17 33 25 12 30 -97 165 -163 202 l-40 23 -60 -30z
m128 -67 c28 -26 58 -61 66 -77 l15 -29 -70 -70 -71 -70 -36 31 c-19 18 -52
40 -73 51 -20 10 -45 28 -55 39 -19 20 -18 22 4 61 27 49 111 110 152 111 10
0 41 -21 68 -47z"/>
<path d="M4232 2993 c5 -26 38 -29 38 -4 0 15 -6 21 -21 21 -14 0 -19 -5 -17
-17z"/>
<path d="M4183 2954 c-8 -21 13 -42 28 -27 13 13 5 43 -11 43 -6 0 -13 -7 -17
-16z"/>
<path d="M4292 2948 c2 -12 10 -23 18 -23 22 0 19 39 -3 43 -15 3 -18 -1 -15
-20z"/>
<path d="M4124 2905 c-4 -10 -1 -21 7 -26 20 -12 34 -5 34 17 0 24 -33 31 -41
9z"/>
<path d="M4330 2890 c0 -11 7 -20 15 -20 8 0 15 9 15 20 0 11 -7 20 -15 20 -8
0 -15 -9 -15 -20z"/>
<path d="M4230 2811 c0 -15 6 -21 21 -21 14 0 19 5 17 17 -5 26 -38 29 -38 4z"/>
<path d="M4160 2483 c-143 -101 -325 -262 -392 -346 -36 -47 -38 -52 -38 -124
0 -73 11 -113 31 -113 5 0 39 24 75 54 117 97 299 170 424 170 117 1 205 -39
380 -172 103 -79 132 -42 113 151 -15 165 -41 200 -217 307 -228 139 -272 147
-376 73z m255 -54 c120 -61 138 -79 143 -150 3 -39 1 -59 -7 -59 -6 0 -11 4
-11 8 0 5 -15 15 -32 24 -40 19 -144 101 -177 140 -39 46 -62 38 -159 -55 -97
-92 -214 -187 -231 -187 -6 0 -11 8 -11 19 0 42 25 82 83 132 34 30 73 65 87
79 43 44 99 82 133 90 50 12 96 2 182 -41z m-21 -152 c61 -51 126 -103 144
-116 24 -17 32 -30 32 -52 0 -27 -2 -29 -27 -23 -47 11 -65 24 -162 116 -51
49 -105 95 -118 101 -23 10 -28 8 -57 -28 -74 -94 -123 -139 -183 -166 -34
-16 -64 -29 -67 -29 -18 0 0 20 52 57 31 24 100 85 152 138 52 52 101 95 109
95 7 0 64 -42 125 -93z m241 -19 c3 -13 8 -67 13 -121 8 -95 2 -121 -20 -99
-12 12 -32 208 -23 229 7 21 24 15 30 -9z m-335 -35 l44 -38 -84 -6 c-47 -3
-86 -5 -88 -4 -6 4 64 84 74 84 6 1 30 -16 54 -36z m-402 -123 c-3 -37 -6 -45
-23 -45 -17 0 -20 8 -23 48 -2 29 2 55 9 64 21 24 40 -13 37 -67z m821 -63 c1
-27 -3 -37 -11 -34 -9 2 -12 26 -11 78 1 41 3 76 4 79 3 10 18 -86 18 -123z
m-913 15 c11 -40 10 -50 -3 -64 -24 -27 -33 -12 -33 51 0 88 16 93 36 13z"/>
<path d="M3768 1679 c-11 -6 -18 -30 -23 -79 -8 -77 3 -105 36 -95 10 3 43 -1
74 -10 46 -14 55 -20 49 -33 -9 -22 -11 -170 -2 -185 4 -6 38 -13 76 -15 61
-4 71 -2 79 14 7 15 10 134 4 176 -1 3 -14 9 -31 13 -47 10 -35 25 19 25 52 0
65 8 55 33 -7 18 -74 47 -108 47 -13 0 -57 22 -98 49 -104 67 -111 71 -130 60z
m99 -90 c37 -22 80 -43 95 -46 16 -3 31 -10 34 -14 12 -21 -34 -21 -102 -1
-41 12 -83 22 -94 22 -16 0 -20 7 -20 33 0 30 6 47 17 47 2 0 33 -18 70 -41z
m153 -179 c0 -11 -4 -20 -10 -20 -5 0 -14 9 -20 20 -9 17 -8 20 10 20 13 0 20
-7 20 -20z m-40 -42 c16 -22 30 -45 30 -49 0 -15 -50 -22 -65 -9 -17 14 -21
100 -5 100 5 0 23 -19 40 -42z"/>
<path d="M4635 1683 c-11 -2 -69 -28 -130 -57 -60 -29 -123 -59 -138 -65 -19
-7 -27 -17 -25 -29 3 -15 17 -17 123 -16 66 0 156 5 200 10 l80 9 0 51 c-1 87
-32 114 -110 97z m59 -49 c18 -46 8 -60 -52 -72 -66 -14 -172 -16 -172 -4 0
13 72 50 137 72 72 23 79 24 87 4z"/>
<path d="M4566 1404 c3 -49 11 -93 16 -99 5 -5 43 -9 86 -8 83 1 109 17 95 57
-4 12 -7 40 -5 62 1 27 -3 46 -13 54 -8 7 -53 15 -100 18 l-86 5 7 -89z m144
11 c0 -19 -2 -35 -5 -35 -13 0 -57 34 -66 51 -9 17 -6 19 31 19 39 0 40 -1 40
-35z m-55 -51 l30 -25 -35 3 c-28 2 -36 8 -38 26 -4 28 6 27 43 -4z"/>
<path d="M4356 1454 c-20 -20 -22 -132 -2 -159 11 -15 22 -17 65 -12 28 3 64
12 79 19 25 13 27 17 27 81 0 49 -4 70 -15 77 -26 16 -136 12 -154 -6z m122
-47 c4 -33 -11 -35 -32 -5 -12 17 -13 24 -3 30 19 12 32 4 35 -25z m-38 -64
c0 -14 -10 -16 -34 -7 -10 4 -16 18 -16 37 l0 30 25 -23 c14 -13 25 -29 25
-37z"/>
<path d="M3728 1449 c-15 -8 -18 -24 -18 -87 0 -42 4 -82 8 -88 4 -7 34 -13
67 -15 l60 -4 3 87 3 87 -30 16 c-34 17 -68 19 -93 4z m82 -80 c0 -46 -13 -50
-30 -9 -15 35 -7 62 15 54 10 -4 15 -19 15 -45z m-58 -34 c3 -13 1 -22 -3 -19
-9 5 -13 44 -5 44 2 0 6 -11 8 -25z"/>
<path d="M4118 1454 c-5 -4 -8 -45 -8 -90 l0 -83 53 -5 c28 -3 70 -7 92 -9
l40 -2 0 45 c1 25 4 61 9 82 7 32 5 38 -14 48 -26 14 -162 25 -172 14z m130
-79 l2 -40 -25 28 c-32 36 -33 60 -2 55 18 -2 22 -10 25 -43z m-38 -58 c0 -5
-10 -7 -22 -5 -18 2 -24 10 -26 38 l-2 35 25 -30 c14 -16 25 -34 25 -38z"/>
<path d="M4105 1182 c-11 -2 -26 -9 -32 -14 -16 -13 -17 -62 -2 -91 36 -68
109 -39 109 44 0 47 -29 71 -75 61z m36 -59 c6 -17 6 -30 0 -36 -16 -16 -41 0
-41 26 0 44 25 51 41 10z"/>
<path d="M4315 1090 c-4 -7 -3 -16 3 -22 14 -14 45 -2 40 15 -6 16 -34 21 -43
7z"/>
<path d="M4390 1075 c-13 -16 -6 -35 15 -35 18 0 26 15 19 34 -8 20 -18 20
-34 1z"/>
<path d="M3825 1050 c-4 -7 -3 -16 3 -22 14 -14 45 -2 40 15 -6 16 -34 21 -43
7z"/>
<path d="M3905 1040 c-4 -7 -3 -16 3 -22 14 -14 45 -2 40 15 -6 16 -34 21 -43
7z"/>
<path d="M4723 1033 c-22 -8 -15 -43 7 -43 13 0 20 7 20 19 0 22 -9 30 -27 24z"/>
<path d="M4461 987 c-14 -17 -4 -47 15 -47 22 0 29 29 12 46 -13 13 -16 13
-27 1z"/>
<path d="M4250 945 c0 -20 4 -26 18 -23 9 2 17 12 17 23 0 11 -8 21 -17 23
-14 3 -18 -3 -18 -23z"/>
<path d="M3752 933 c4 -22 43 -25 43 -3 0 8 -11 16 -23 18 -19 3 -23 0 -20
-15z"/>
<path d="M3994 939 c-10 -17 13 -36 27 -22 12 12 4 33 -11 33 -5 0 -12 -5 -16
-11z"/>
<path d="M4640 900 c0 -13 7 -20 20 -20 13 0 20 7 20 20 0 13 -7 20 -20 20
-13 0 -20 -7 -20 -20z"/>
<path d="M4537 894 c-9 -10 4 -34 19 -34 8 0 14 9 14 20 0 19 -19 27 -33 14z"/>
<path d="M4074 865 c-4 -9 -2 -21 3 -26 14 -14 45 1 41 20 -4 22 -37 26 -44 6z"/>
<path d="M4170 840 c0 -13 7 -20 20 -20 13 0 20 7 20 20 0 13 -7 20 -20 20
-13 0 -20 -7 -20 -20z"/>
<path d="M4591 841 c-16 -11 -2 -43 18 -39 9 2 17 10 19 19 3 19 -19 31 -37
20z"/>
</g>
</svg>
