<?xml version="1.0" standalone="no"?>
<!DOCTYPE svg PUBLIC "-//W3C//DTD SVG 20010904//EN"
 "http://www.w3.org/TR/2001/REC-SVG-20010904/DTD/svg10.dtd">
<svg version="1.0" xmlns="http://www.w3.org/2000/svg"
 width="850.000000pt" height="850.000000pt" viewBox="0 0 850.000000 850.000000"
 preserveAspectRatio="xMidYMid meet">
<metadata>
Created by potrace 1.14, written by Peter Selinger 2001-2017
</metadata>
<g transform="translate(0.000000,850.000000) scale(0.100000,-0.100000)"
fill="#000000" stroke="none">
<path d="M3415 7894 c-198 -29 -399 -92 -519 -162 -383 -224 -177 -515 364
-514 437 0 851 178 885 381 8 46 -8 109 -35 144 -35 44 -120 90 -224 120 -91
26 -118 30 -271 32 -93 2 -183 1 -200 -1z m365 -59 c152 -24 259 -74 300 -140
89 -144 -137 -320 -517 -401 -110 -24 -151 -28 -293 -28 -140 0 -178 3 -255
23 -266 68 -337 193 -188 332 92 86 321 183 484 204 30 4 77 11 104 15 87 13
266 11 365 -5z"/>
<path d="M3384 7755 c-319 -41 -538 -176 -475 -292 34 -66 167 -104 356 -104
304 0 603 98 667 218 21 40 22 43 6 77 -47 97 -269 137 -554 101z m424 -65
c54 -19 92 -48 92 -72 0 -4 -14 -24 -32 -44 -41 -46 -148 -96 -287 -132 -98
-25 -120 -27 -306 -27 -196 0 -201 0 -258 27 -31 15 -60 34 -63 43 -33 84 140
169 466 229 14 2 93 3 175 1 124 -2 161 -6 213 -25z"/>
<path d="M6377 7516 c-146 -53 -157 -215 -27 -406 51 -74 260 -290 281 -290
26 0 226 167 282 235 140 170 173 326 88 418 -34 36 -44 41 -94 45 -47 4 -66
0 -120 -26 -36 -16 -83 -47 -106 -67 l-42 -38 -16 24 c-62 89 -167 134 -246
105z m104 -51 c49 -18 90 -53 121 -105 12 -19 23 -37 25 -39 1 -2 25 17 53 43
60 56 160 106 213 106 50 0 91 -39 100 -96 14 -89 -40 -204 -153 -326 -65 -72
-183 -168 -205 -168 -18 0 -207 198 -248 261 -97 144 -97 284 -2 325 39 17 44
17 96 -1z"/>
<path d="M6503 7295 c-36 -15 -43 -31 -43 -94 0 -69 53 -138 144 -190 l39 -22
51 25 c59 29 137 103 160 151 23 48 20 79 -13 114 -39 42 -107 44 -158 5 -31
-24 -36 -25 -57 -11 -41 27 -90 36 -123 22z m295 -47 c7 -7 12 -24 12 -39 0
-33 -68 -109 -124 -138 -35 -18 -42 -18 -66 -6 -67 34 -132 147 -102 177 14
14 79 -6 108 -33 l24 -23 28 26 c51 47 95 61 120 36z"/>
<path d="M4146 7124 c-83 -18 -112 -33 -188 -91 -32 -24 -58 -42 -58 -38 0 3
12 24 26 46 27 43 26 69 -3 69 -33 0 -119 -58 -170 -114 -45 -48 -53 -53 -64
-40 -19 23 -116 69 -174 83 -53 13 -197 17 -215 6 -7 -4 -4 -18 10 -40 l20
-33 -52 15 c-44 13 -70 14 -179 4 -270 -25 -487 -122 -669 -301 -282 -277
-375 -642 -290 -1141 16 -96 38 -201 48 -234 29 -90 28 -166 -2 -231 -31 -66
-73 -90 -148 -81 -63 8 -75 -6 -59 -69 18 -71 85 -195 128 -236 50 -48 136
-88 191 -88 40 0 42 -1 32 -21 -7 -11 -12 -49 -12 -85 l-1 -64 -26 22 c-14 13
-74 69 -132 124 -154 147 -280 214 -402 214 -39 0 -218 -40 -272 -60 -44 -17
-241 -58 -355 -74 -125 -18 -264 -31 -580 -52 -308 -20 -320 -22 -320 -46 0
-51 59 -112 156 -161 138 -70 422 -135 629 -144 157 -8 141 -14 -109 -43 -283
-33 -363 -56 -421 -120 -16 -18 -16 -20 4 -48 27 -39 76 -61 170 -77 72 -13
325 -34 421 -36 l45 -1 -60 -17 c-110 -33 -159 -70 -171 -129 -6 -29 -4 -33
27 -46 72 -30 186 -39 334 -27 207 18 295 29 376 51 41 10 75 17 77 16 7 -8
-129 -96 -215 -140 -95 -49 -167 -113 -161 -144 6 -30 74 -44 178 -38 117 6
131 9 250 47 107 34 275 115 368 177 34 23 62 37 62 32 0 -12 -65 -97 -114
-148 -58 -62 -141 -124 -222 -167 -76 -41 -120 -77 -127 -106 -13 -48 81 -99
181 -99 101 0 278 70 359 143 13 11 25 18 28 15 6 -5 -62 -99 -114 -158 -17
-19 -31 -38 -31 -42 0 -3 -3 -13 -6 -21 -3 -9 4 -25 15 -36 18 -18 33 -21 99
-21 152 0 237 27 318 102 l44 41 0 -40 c0 -21 7 -65 15 -97 13 -49 13 -71 3
-141 l-12 -83 -60 -5 c-112 -9 -233 -71 -349 -177 l-53 -49 -45 20 c-112 51
-285 68 -435 44 -211 -35 -350 -104 -509 -255 -44 -42 -106 -92 -139 -110
-118 -67 -210 -192 -251 -345 -26 -97 -31 -248 -11 -341 35 -158 139 -322 266
-418 189 -142 407 -189 700 -151 l135 17 35 -39 c91 -102 251 -198 395 -237
233 -62 558 -35 821 70 l111 44 54 -24 c84 -38 192 -50 313 -36 94 12 298 64
343 89 18 9 23 6 41 -32 12 -23 33 -78 49 -122 46 -134 127 -200 243 -200 106
1 178 52 236 168 25 49 26 57 22 170 -5 106 -3 117 11 112 33 -14 153 -35 247
-45 231 -24 623 49 903 169 132 56 262 153 323 240 l17 23 37 -22 c20 -13 66
-49 103 -81 105 -92 150 -113 246 -112 137 1 192 40 228 161 15 51 32 85 57
112 l35 38 55 -15 c88 -23 276 -13 364 22 176 67 333 194 427 345 9 14 26 55
39 92 46 137 14 290 -86 406 -69 81 -184 152 -292 181 -23 7 -81 12 -129 12
l-89 0 -29 52 c-40 73 -121 150 -178 172 -26 10 -47 21 -47 25 0 4 9 33 20 64
117 341 113 744 -10 986 -122 242 -347 409 -604 450 -80 13 -217 52 -276 79
l-45 21 55 -5 c30 -3 91 -1 135 4 338 42 428 60 533 112 46 22 86 47 88 54 10
25 -25 73 -69 94 -32 16 -64 21 -123 22 -72 1 -76 2 -44 12 74 22 269 87 347
115 135 49 204 97 218 154 6 24 2 29 -37 49 -63 33 -197 37 -353 10 -66 -12
-160 -24 -210 -26 l-90 -5 55 16 c269 77 544 219 674 346 54 54 94 132 83 163
-9 21 -58 19 -201 -9 -534 -105 -756 -136 -988 -136 l-147 0 -19 43 c-26 57
-89 127 -130 144 -41 17 -77 9 -66 -15 4 -10 9 -33 11 -53 6 -45 -13 -62 -68
-61 -59 1 -104 46 -121 120 -12 57 -4 148 38 417 41 259 -31 487 -215 684 -18
18 -31 34 -29 35 55 32 91 62 104 88 34 66 -4 153 -91 204 -47 27 -93 29 -86
4 3 -8 5 -28 5 -45 1 -43 -52 -68 -149 -69 -78 -1 -54 -11 -335 135 -69 36
-156 73 -195 83 -98 25 -215 29 -299 10z m324 -73 c68 -23 334 -161 326 -168
-2 -3 -36 0 -75 6 -91 14 -562 14 -654 0 -40 -6 -94 -20 -122 -31 -27 -11 -62
-24 -77 -28 l-26 -8 18 41 c32 71 141 157 249 194 57 20 81 23 181 20 87 -3
131 -9 180 -26z m-615 -38 c-4 -10 -15 -42 -25 -72 -20 -62 -61 -118 -93 -126
-14 -4 -52 6 -96 25 -41 18 -99 34 -129 37 -53 6 -55 8 -99 67 l-45 61 38 3
c80 7 214 -36 283 -89 l24 -19 63 65 c62 64 94 83 79 48z m1356 -63 c25 -14
49 -62 49 -97 0 -43 -23 -68 -86 -93 -56 -23 -56 -23 -108 -5 -54 19 -209 95
-204 100 2 2 24 -1 50 -7 71 -17 191 6 235 45 18 16 33 38 33 48 0 22 4 23 31
9z m-1906 -24 l50 -11 -105 -22 c-121 -24 -248 -71 -405 -150 -285 -143 -411
-280 -547 -593 -39 -90 -85 -249 -99 -345 -20 -140 -26 -134 -28 32 -3 243 27
390 113 562 108 216 298 386 527 470 45 17 151 46 234 64 40 9 212 5 260 -7z
m55 -70 c0 -2 -29 -18 -66 -35 -107 -50 -203 -120 -304 -221 -300 -301 -477
-725 -510 -1218 -5 -70 -14 -144 -20 -165 -21 -71 -168 -208 -249 -232 l-24
-7 26 34 c57 74 70 159 40 263 -13 48 -17 102 -16 265 0 184 3 217 26 320 70
306 205 555 377 694 147 119 431 249 635 292 68 14 85 16 85 10z m1364 -21
c55 -10 106 -28 165 -58 47 -25 133 -64 190 -88 155 -64 220 -140 287 -334 26
-75 27 -90 26 -240 -1 -97 -7 -185 -15 -225 -9 -37 -15 -53 -16 -38 0 15 -25
76 -55 135 -29 60 -65 140 -80 178 -79 212 -248 385 -459 470 -158 63 -518
136 -709 143 -76 2 -135 8 -133 13 7 10 107 39 170 49 93 14 543 11 629 -5z
m-1149 -26 c73 -18 73 -31 -3 -64 -95 -41 -255 -130 -332 -184 -82 -58 -159
-135 -285 -285 -92 -111 -272 -282 -284 -271 -9 10 111 238 176 334 150 221
329 378 520 457 64 26 138 31 208 13z m154 -106 c-103 -70 -414 -321 -478
-384 -139 -140 -443 -537 -542 -711 -80 -140 -112 -236 -112 -343 0 -63 4
-102 16 -129 22 -49 16 -57 -11 -14 -47 76 -65 156 -64 288 0 265 93 487 257
621 37 30 124 122 195 204 70 83 152 173 182 202 137 129 464 298 582 302 26
1 24 -2 -25 -36z m511 2 c208 -30 413 -80 525 -128 276 -119 455 -387 458
-687 1 -58 -5 -132 -12 -165 l-14 -60 -17 102 c-19 111 -76 245 -130 307 -17
18 -30 39 -30 45 0 20 -134 121 -214 160 -45 22 -146 62 -226 89 -80 27 -170
61 -200 74 -48 22 -409 254 -435 280 -12 13 157 3 295 -17z m-303 -58 c78 -83
209 -281 271 -409 41 -85 102 -252 102 -281 0 -4 -19 11 -42 34 -62 60 -89 71
-46 18 19 -24 50 -73 68 -109 28 -55 33 -76 34 -135 1 -78 -15 -119 -68 -181
l-33 -38 -5 68 c-7 80 -55 186 -116 257 -21 24 -53 73 -71 109 -19 36 -49 89
-68 119 -70 109 -137 327 -137 441 0 63 27 170 44 170 4 0 34 -28 67 -63z
m248 -152 c124 -82 205 -120 386 -183 79 -28 169 -61 199 -75 118 -53 231
-160 289 -274 11 -23 21 -44 21 -47 0 -3 -23 20 -51 49 -28 30 -72 68 -98 84
-44 28 -187 78 -197 69 -2 -3 29 -17 68 -33 164 -64 263 -170 312 -334 16 -55
20 -193 7 -240 -6 -21 -9 -19 -44 31 -81 118 -222 183 -461 213 -89 12 -136
23 -176 43 -52 25 -55 30 -63 72 -39 229 -97 378 -221 570 -76 117 -78 120
-74 120 2 0 48 -29 103 -65z m-406 -40 c2 -80 82 -302 141 -394 68 -105 80
-135 80 -201 0 -111 -47 -207 -153 -312 -73 -73 -87 -75 -74 -9 12 57 -8 158
-50 254 -26 57 -26 58 -20 265 7 206 11 246 43 391 17 77 32 79 33 6z m-239 8
c-16 -27 -59 -115 -94 -197 -36 -82 -83 -178 -105 -215 -102 -172 -235 -316
-392 -427 -103 -72 -134 -112 -165 -209 -47 -146 -40 -319 16 -430 11 -21 18
-40 17 -42 -2 -1 -20 9 -41 23 -29 20 -48 47 -79 113 -75 158 -61 287 53 490
105 186 389 561 540 711 57 58 265 230 277 230 1 0 -11 -21 -27 -47z m85 4
c-48 -116 -145 -531 -145 -625 0 -49 -22 -127 -54 -197 -28 -63 -95 -133 -250
-265 -54 -46 -116 -106 -137 -132 -47 -60 -73 -136 -66 -194 7 -64 46 -136 85
-155 l32 -17 -49 -21 c-27 -11 -56 -21 -64 -21 -35 0 -127 146 -153 245 -18
66 -17 195 1 274 25 103 57 152 138 209 247 173 399 366 532 677 57 131 123
255 137 255 4 0 1 -15 -7 -33z m70 6 c-22 -56 -38 -213 -43 -429 l-7 -240 -37
-75 c-38 -76 -121 -189 -138 -189 -16 0 -11 48 9 88 26 51 48 146 65 282 17
127 56 309 87 410 26 84 60 170 66 170 3 0 2 -8 -2 -17z m1627 -713 c9 -61 8
-110 -5 -247 -9 -93 -14 -179 -12 -189 2 -10 6 -35 9 -54 5 -34 5 -35 -12 -15
-32 38 -66 55 -109 55 -24 0 -43 4 -43 9 0 5 18 64 39 132 59 184 78 265 86
364 8 89 8 90 22 56 8 -18 19 -68 25 -111z m-1196 -11 c45 -90 52 -152 26
-213 -37 -81 0 -101 80 -43 79 56 138 147 153 235 4 23 8 42 10 42 1 0 27 -11
56 -24 33 -15 101 -31 172 -41 138 -19 236 -49 299 -93 54 -37 58 -51 58 -211
0 -155 19 -256 85 -446 47 -136 55 -171 55 -232 0 -171 -127 -365 -329 -502
-79 -54 -72 -54 -400 13 -68 15 -148 26 -176 26 -96 0 -224 -53 -306 -127 -38
-35 -119 -59 -230 -70 -87 -8 -256 35 -436 111 -192 82 -183 77 -183 104 l0
26 -28 -33 c-103 -124 -363 60 -426 302 -33 127 40 192 171 151 57 -18 86 -41
170 -136 49 -56 83 -63 109 -23 26 39 16 143 -18 191 l-27 37 42 21 c49 25 77
61 80 101 2 27 -1 30 -30 30 -40 0 -58 23 -74 91 -21 95 18 160 201 328 62 58
128 123 146 145 l31 41 7 -39 c3 -21 12 -41 20 -44 37 -15 158 116 213 231
l36 75 23 -63 c32 -84 33 -179 3 -220 -31 -41 -20 -60 35 -60 35 0 54 7 94 38
113 85 199 223 210 335 l5 60 20 -24 c10 -13 34 -54 53 -90z m1587 -289 l20
-44 -34 -29 c-38 -33 -105 -66 -132 -67 -49 0 -167 96 -167 137 0 14 4 13 24
-6 35 -33 93 -50 130 -40 46 13 86 62 86 106 l0 36 26 -24 c15 -13 36 -44 47
-69z m-627 -23 c25 -48 25 -50 10 -109 -8 -34 -23 -70 -33 -80 -18 -20 -18
-19 -25 28 -3 27 -6 94 -7 149 0 112 4 113 55 12z m1984 75 c0 -18 -59 -90
-101 -124 -119 -97 -318 -200 -511 -267 -177 -61 -337 -90 -555 -102 -171 -9
-279 -23 -325 -44 -16 -6 -18 -1 -18 34 0 35 3 41 20 41 56 0 147 66 180 130
10 20 24 66 30 101 l11 64 172 1 c179 2 397 25 597 65 133 26 360 76 425 94
61 16 75 18 75 7z m-1671 -195 c16 -24 47 -84 67 -133 36 -87 37 -92 38 -221
1 -125 2 -133 25 -157 32 -34 66 -33 102 3 l29 29 0 -29 c0 -92 -71 -149 -166
-134 l-45 6 7 107 c9 153 -7 270 -56 393 -34 85 -53 179 -35 179 2 0 17 -20
34 -43z m318 -111 c-27 -59 -72 -94 -126 -98 -33 -3 -34 -2 -72 86 -21 49 -39
91 -39 92 0 1 16 -2 37 -8 53 -14 116 -1 170 35 l48 32 3 -43 c2 -29 -5 -59
-21 -96z m-492 48 c45 -21 65 -67 65 -147 0 -50 -6 -75 -26 -113 -24 -45 -90
-124 -104 -124 -8 0 -50 131 -50 157 0 30 26 49 45 33 8 -7 15 -21 15 -32 0
-10 5 -16 10 -13 17 10 11 51 -10 70 -12 11 -29 16 -45 13 -33 -7 -32 7 5 44
34 33 59 34 76 0 17 -35 24 -38 24 -11 0 33 -35 69 -66 69 -16 0 -39 -13 -61
-35 -41 -41 -43 -42 -43 -14 0 54 47 97 128 118 2 1 19 -6 37 -15z m-2660
-204 c-3 -11 -29 -40 -57 -65 -37 -33 -68 -51 -120 -66 -82 -25 -208 -30 -253
-9 -30 13 -29 14 42 21 51 5 86 15 118 34 67 39 169 138 190 185 l18 40 34
-61 c21 -37 31 -68 28 -79z m79 -53 l29 -23 -32 -36 c-34 -39 -163 -126 -225
-152 -49 -20 -169 -21 -226 -1 -59 21 -126 66 -139 93 -13 28 -10 28 34 -2 21
-15 58 -27 91 -32 73 -9 207 9 269 37 60 26 133 83 147 115 14 29 16 29 52 1z
m2694 -15 c-3 -20 -26 -84 -51 -142 -25 -58 -57 -157 -72 -220 -46 -199 -50
-206 -175 -280 l-53 -31 39 48 c56 68 89 121 120 194 23 53 28 81 30 161 l2
97 54 53 c29 30 64 77 77 106 14 29 26 52 29 52 3 0 2 -17 0 -38z m1575 32
c20 -4 37 -12 37 -19 0 -16 -61 -56 -120 -79 -259 -103 -647 -215 -752 -217
l-63 -1 55 -15 c37 -10 131 -17 282 -22 201 -5 230 -8 245 -24 17 -17 17 -19
-1 -32 -54 -40 -370 -107 -571 -120 -87 -6 -317 7 -373 22 -20 5 2 10 78 19
205 23 250 37 250 73 0 35 -133 127 -190 132 -26 2 73 17 119 18 88 2 416 84
456 116 19 14 19 16 3 29 -34 25 -296 78 -433 87 -13 1 -10 4 10 9 57 14 169
10 245 -10 108 -28 157 -26 485 25 92 14 183 18 238 9z m-973 -59 c155 -14
402 -66 388 -80 -9 -9 -150 -46 -290 -76 -97 -20 -166 -29 -233 -29 l-95 0 0
44 c0 54 -38 106 -76 106 -21 0 -24 -5 -24 -34 0 -19 -7 -39 -16 -47 -14 -11
-18 -10 -30 6 -17 23 -18 79 -1 93 21 17 149 42 192 36 22 -3 105 -11 185 -19z
m-543 -154 c-7 -198 -14 -221 -99 -324 -32 -40 -62 -84 -65 -100 -7 -36 -21
-43 -28 -15 -4 14 3 43 15 70 11 26 29 89 40 140 24 114 49 193 88 278 16 36
32 77 36 93 15 62 19 18 13 -142z m-2595 89 c32 -17 66 -43 75 -56 10 -14 36
-31 58 -38 53 -18 85 -71 85 -143 0 -29 -3 -53 -6 -53 -3 0 -54 48 -112 108
-106 106 -192 180 -192 165 0 -4 21 -29 47 -55 l46 -47 -55 6 c-156 16 -223
-56 -194 -209 36 -192 229 -388 380 -388 29 0 61 6 73 15 19 14 28 11 115 -28
51 -24 126 -56 166 -72 l72 -28 -42 -24 c-24 -14 -66 -42 -95 -64 l-51 -40
-39 21 c-21 12 -69 46 -108 76 -38 29 -73 54 -78 54 -4 0 4 -17 17 -37 13 -21
27 -53 31 -70 l7 -33 -40 14 c-86 31 -209 104 -263 159 -36 35 -99 110 -139
165 -25 34 -47 44 -31 14 11 -20 3 -172 -9 -172 -15 0 -80 81 -106 132 -44 86
-50 287 -14 411 13 45 6 61 -11 25 -10 -23 -17 -26 -69 -27 -39 -1 -73 6 -102
19 -73 33 -111 73 -42 44 65 -27 161 -29 234 -4 99 33 262 142 289 194 13 23
16 24 30 12 9 -7 42 -28 73 -46z m-884 -185 c60 -28 92 -54 175 -137 56 -57
132 -125 169 -152 62 -45 69 -55 84 -105 26 -91 103 -200 170 -242 48 -29 64
-14 65 60 0 55 0 56 16 31 58 -88 242 -214 367 -251 73 -22 102 -18 100 14 -1
12 3 12 27 -2 35 -19 35 -22 5 -52 -13 -13 -38 -48 -56 -77 -37 -60 -26 -60
-165 -5 -403 160 -524 232 -710 423 -149 153 -247 199 -395 186 -41 -4 -140
-20 -220 -36 -263 -52 -374 -57 -663 -30 -148 15 -393 81 -498 136 -33 17 -99
73 -99 83 0 5 111 11 248 14 136 4 294 11 352 17 58 5 134 12 170 16 98 8 340
59 475 99 214 65 264 66 383 10z m3888 -7 c55 -20 134 -72 134 -87 0 -6 -4
-13 -10 -16 -25 -15 -201 -37 -349 -42 -159 -6 -164 -5 -156 13 4 10 10 28 12
39 4 19 11 20 67 17 79 -5 128 16 165 70 29 42 40 43 137 6z m-86 -251 c85
-41 172 -80 193 -88 48 -17 47 -29 -1 -29 -39 0 -176 -42 -244 -75 -30 -15
-43 -16 -70 -8 l-33 11 33 1 c21 1 42 10 57 25 22 22 23 28 14 56 -12 33 -96
112 -157 146 -82 46 -82 46 -12 40 54 -4 90 -17 220 -79z m-190 -5 c63 -45
110 -95 110 -118 0 -41 -50 -44 -227 -11 -67 12 -125 25 -128 29 -10 9 18 58
70 121 l46 57 47 -27 c26 -14 63 -37 82 -51z m-3558 -108 c32 -16 99 -72 173
-144 67 -64 158 -145 204 -178 97 -73 314 -181 496 -248 72 -26 132 -49 133
-50 2 -1 -13 -31 -33 -65 -20 -35 -55 -102 -76 -149 l-40 -85 5 50 c2 28 8 60
11 73 12 38 -10 24 -24 -15 -18 -52 -37 -71 -103 -104 -42 -21 -72 -29 -111
-29 -81 0 -86 11 -54 123 31 110 50 208 46 231 -3 11 -22 -6 -64 -56 -82 -99
-157 -150 -230 -156 -30 -2 -55 -1 -55 4 0 5 29 77 65 160 36 83 65 161 65
172 0 19 -3 18 -56 -10 -31 -17 -106 -52 -167 -79 -115 -50 -183 -62 -193 -35
-10 25 36 97 117 182 96 102 101 123 23 93 -63 -23 -296 -68 -391 -74 -95 -7
-103 -6 -103 11 0 30 100 117 187 162 124 64 120 80 -12 42 -114 -33 -273 -50
-458 -50 l-172 0 39 26 c88 60 422 198 541 224 70 15 179 3 237 -26z m3243
-74 c15 -12 19 -12 31 5 16 22 18 20 49 -37 38 -70 21 -77 -201 -84 -182 -5
-284 1 -284 14 1 13 76 59 116 72 55 18 142 63 189 98 l40 29 22 -42 c12 -23
29 -48 38 -55z m-3695 56 c0 -3 -24 -12 -52 -22 -70 -23 -230 -97 -295 -137
-100 -59 -64 -77 155 -77 86 1 186 5 222 9 36 5 90 12 120 17 l55 7 -52 -41
c-87 -69 -126 -137 -91 -158 20 -13 207 -5 276 11 102 24 99 19 -18 -30 -143
-59 -252 -85 -445 -106 -204 -21 -321 -24 -394 -8 -44 9 -50 13 -42 28 5 9 25
25 43 34 38 20 285 83 401 102 43 8 89 21 103 30 45 29 20 70 -28 44 -57 -32
-456 -29 -750 6 -112 13 -198 37 -198 55 0 10 65 38 128 54 32 9 122 20 198
26 216 15 324 40 438 99 50 26 101 44 140 50 80 11 86 12 86 7z m3829 -39 c8
-12 41 -49 73 -81 32 -33 57 -60 55 -60 -1 -1 -48 -46 -104 -100 l-101 -99
-20 39 c-29 55 -71 100 -117 123 l-40 21 104 0 c83 0 108 3 123 17 26 23 22
58 -14 121 l-31 55 28 -7 c16 -4 36 -17 44 -29z m960 -46 c281 -104 463 -343
503 -661 18 -141 4 -364 -32 -501 -94 -367 -273 -666 -572 -954 -206 -199
-399 -340 -695 -509 -150 -85 -153 -86 -195 -76 -62 14 -127 12 -217 -6 -78
-16 -79 -16 -167 10 -49 15 -138 43 -197 63 -98 33 -108 39 -102 57 4 12 9 44
12 71 4 44 2 53 -20 73 -13 12 -40 25 -60 29 -31 5 -40 1 -66 -24 -21 -22 -37
-29 -54 -26 -14 3 -31 -2 -40 -12 -15 -14 -19 -14 -40 0 -13 8 -30 13 -38 10
-8 -3 -61 21 -119 53 l-105 58 -51 97 c-28 53 -63 112 -77 130 -81 107 -187
181 -366 257 l-96 41 -51 77 c-67 101 -184 334 -184 367 0 2 26 12 58 20 31 9
67 20 80 26 21 8 25 5 38 -28 116 -282 330 -516 688 -751 276 -181 456 -256
771 -322 201 -42 302 -44 405 -5 222 82 477 262 717 506 135 138 219 240 313
381 190 286 278 534 267 751 -8 167 -57 283 -170 404 -148 158 -329 243 -517
243 -109 0 -182 -19 -295 -75 -165 -83 -297 -219 -548 -565 -26 -36 -53 -73
-61 -83 -14 -18 -19 -15 -93 45 -210 172 -444 309 -611 359 l-43 12 27 28 c18
18 40 29 72 34 26 3 64 11 85 17 32 10 43 9 70 -7 49 -28 220 -172 334 -279
137 -130 138 -130 228 10 245 382 459 581 715 662 90 29 106 31 270 27 134 -2
152 -5 229 -34z m-790 -11 l54 -17 -26 -17 c-30 -20 -47 -14 -92 35 -23 25
-26 30 -10 24 11 -4 44 -15 74 -25z m-1029 -60 c152 -47 251 -65 431 -79 68
-5 140 -15 159 -22 45 -15 102 -70 132 -125 l22 -43 -32 -43 c-23 -32 -180
-261 -209 -307 -2 -3 -45 36 -96 85 -100 97 -233 210 -310 263 -35 24 -46 36
-38 44 6 6 11 18 11 26 0 11 -6 9 -23 -7 -32 -30 -103 -59 -167 -66 -48 -6
-61 -13 -101 -53 -50 -48 -82 -54 -87 -16 -4 28 23 81 61 116 16 15 27 30 23
34 -13 13 -54 -17 -158 -116 -58 -55 -111 -101 -117 -101 -17 0 -13 28 15 113
15 44 39 94 56 113 16 18 28 39 25 46 -2 8 -54 -39 -122 -109 -64 -68 -124
-123 -131 -123 -42 0 18 128 106 226 55 63 69 84 54 84 -15 0 -120 -101 -155
-149 -37 -52 -39 -53 -39 -25 0 16 7 38 15 49 32 43 132 137 181 171 83 57
114 65 244 60 100 -3 132 -9 250 -46z m-946 -140 l39 -12 -63 -37 c-107 -65
-262 -237 -300 -334 -5 -15 -15 -39 -20 -53 l-10 -25 -26 20 c-33 26 -99 29
-108 5 -3 -9 -6 -59 -7 -112 0 -62 -6 -117 -17 -152 -16 -50 -24 -59 -92 -107
-41 -29 -92 -69 -113 -90 -37 -37 -105 -158 -95 -169 3 -3 23 21 44 53 27 39
64 76 119 115 44 32 83 58 86 58 4 0 9 -33 11 -72 5 -69 40 -178 58 -178 4 0
1 24 -7 53 -20 72 -10 178 27 302 23 78 30 120 30 188 0 91 6 101 40 67 30
-30 29 -72 -1 -132 -25 -49 -24 -56 4 -30 27 25 91 53 109 48 7 -3 25 -7 40
-10 28 -6 88 -52 88 -67 0 -5 -24 -9 -52 -9 -73 0 -123 -16 -148 -47 -27 -35
-20 -38 26 -14 52 28 132 28 168 0 39 -31 34 -57 -11 -64 -63 -10 -106 -24
-140 -45 -57 -34 -36 -37 57 -6 49 16 93 26 97 22 16 -16 -16 -63 -67 -99 -92
-64 -91 -87 1 -87 101 0 131 -34 62 -68 -21 -11 -59 -22 -85 -26 -39 -6 -53
-14 -79 -47 -28 -36 -36 -40 -66 -37 -40 5 -43 -6 -6 -25 l27 -15 -58 -60
c-83 -87 -165 -134 -242 -140 -47 -3 -68 0 -88 13 -55 36 -96 160 -96 288 0
77 34 178 109 319 33 62 70 140 82 173 28 75 143 301 194 380 65 101 168 196
265 244 91 45 120 48 214 21z m225 -41 c-25 -35 -37 -113 -20 -123 24 -15 8
-37 -46 -62 -127 -60 -240 -218 -277 -387 l-7 -29 -39 36 c-36 32 -91 56 -133
56 -21 0 -19 9 18 103 51 130 158 260 274 334 61 39 205 103 234 103 17 0 17
-2 -4 -31z m2352 3 c294 -117 463 -374 428 -651 -43 -340 -301 -758 -682
-1102 -157 -141 -321 -256 -465 -325 -177 -86 -240 -90 -502 -33 -283 62 -476
145 -735 317 -385 256 -587 498 -682 817 -24 81 -23 251 2 365 25 116 78 221
142 287 57 59 138 102 156 84 18 -18 60 -12 97 13 l35 24 20 -42 c17 -35 25
-41 56 -44 27 -2 44 3 66 22 27 23 33 24 103 16 80 -9 219 -54 312 -101 150
-76 416 -258 492 -338 46 -48 69 -42 124 36 99 139 292 387 344 442 104 109
198 171 326 217 59 22 81 24 187 21 95 -2 131 -7 176 -25z m-4062 -39 c-67
-69 -117 -142 -125 -180 -7 -37 24 -67 71 -67 42 0 38 -4 -40 -46 -160 -85
-358 -144 -482 -145 -39 0 -75 3 -79 7 -12 13 16 37 85 75 147 80 241 147 415
296 75 64 155 111 201 116 5 0 -16 -25 -46 -56z m288 -110 c-17 -27 -137 -298
-137 -308 0 -18 23 -25 77 -25 72 0 160 48 232 126 l60 65 -18 -58 c-10 -32
-28 -87 -40 -122 -40 -122 -22 -156 84 -156 72 0 73 -4 8 -69 -112 -113 -205
-158 -332 -160 -54 -1 -85 3 -88 10 -2 6 17 36 42 65 26 30 63 81 82 114 36
61 55 135 35 135 -7 0 -42 -22 -79 -49 -176 -127 -324 -174 -445 -141 -73 21
-66 33 68 115 162 100 308 254 358 380 9 22 31 50 49 62 33 22 52 29 44 16z
m451 -456 c2 -35 -8 -65 -56 -162 l-59 -118 -7 44 c-8 56 7 146 33 197 17 34
64 81 82 82 3 0 6 -19 7 -43z m609 -343 c-1 -1 -17 3 -36 8 l-34 9 29 24 29
23 7 -31 c3 -18 6 -32 5 -33z m-767 -257 c0 -47 35 -143 66 -184 14 -19 42
-42 61 -51 l35 -17 -4 -98 c-3 -53 -8 -100 -11 -104 -4 -3 -34 13 -67 36 -63
45 -376 200 -445 221 -22 7 -44 17 -50 22 -22 21 165 155 255 183 30 9 60 18
65 20 6 2 29 4 53 4 41 1 42 0 42 -32z m607 -22 l21 -55 -31 0 c-18 0 -42 3
-54 6 l-22 6 27 49 c15 27 29 49 32 49 3 0 15 -25 27 -55z m3583 -2 c70 -46
140 -135 143 -181 l2 -27 110 -6 c166 -9 276 -49 377 -138 38 -34 95 -112 72
-99 -16 10 -236 75 -339 102 -213 54 -315 70 -447 71 -71 0 -128 0 -128 1 0 0
12 16 26 35 34 45 78 143 94 207 11 47 15 52 39 52 14 0 38 -7 51 -17z m-3594
-89 l52 -7 46 -82 c25 -46 46 -85 46 -87 0 -3 -23 0 -50 6 -59 12 -157 -2
-244 -35 -67 -25 -209 -127 -229 -165 l-14 -27 -6 24 c-8 36 7 102 32 137 12
17 39 39 61 49 22 10 40 21 40 26 0 15 -39 6 -75 -18 -20 -15 -39 -25 -40 -23
-2 2 -6 15 -10 29 -6 24 -4 27 32 33 60 11 134 49 192 99 58 50 69 52 167 41z
m-1261 -24 c86 -14 295 -85 389 -132 131 -66 400 -210 411 -220 6 -6 -8 -7
-40 -3 -27 4 -90 2 -140 -4 -110 -13 -206 -57 -301 -137 -35 -30 -66 -54 -68
-54 -3 0 -22 11 -42 25 -20 14 -60 32 -90 42 -45 14 -61 15 -108 4 -30 -7 -73
-25 -95 -42 -23 -16 -44 -29 -49 -29 -4 0 -26 18 -47 41 -114 116 -323 202
-551 225 -35 4 -64 10 -64 15 0 4 39 40 86 79 120 98 280 172 424 194 53 7
228 5 285 -4z m1459 -241 c318 -135 486 -243 486 -312 0 -23 -35 -48 -71 -51
-44 -4 -49 -20 -6 -24 23 -2 45 5 72 23 36 25 39 26 49 9 6 -10 51 -95 100
-188 64 -122 85 -171 76 -174 -8 -3 -32 -21 -53 -41 -37 -35 -39 -39 -29 -72
5 -19 7 -100 4 -181 -5 -141 3 -247 16 -233 4 3 7 72 7 153 0 103 4 154 14
171 10 19 11 32 0 68 -11 42 -11 46 12 68 13 13 33 25 44 27 30 5 28 -52 -2
-68 -13 -6 -20 -14 -16 -17 11 -12 36 -8 53 8 52 47 272 59 341 19 63 -37 75
-143 29 -249 -13 -27 -30 -68 -40 -90 -37 -82 -42 -125 -35 -257 8 -149 -4
-199 -61 -266 -84 -98 -264 -74 -313 41 -23 52 -41 135 -41 185 0 28 -3 33
-10 22 -5 -8 -10 -28 -11 -45 0 -28 -2 -27 -17 15 -13 35 -48 76 -153 180
-178 176 -284 339 -336 514 -24 81 -61 153 -89 171 -35 23 -39 14 -12 -31 16
-27 18 -36 8 -32 -21 7 -134 43 -200 63 -47 14 -63 25 -105 76 -53 64 -123
127 -178 159 -40 24 -50 52 -64 173 -6 57 -5 59 33 98 45 47 110 83 209 115
109 36 149 32 289 -27z m3406 22 c36 -5 88 -12 115 -15 112 -14 488 -101 572
-133 36 -13 45 -22 53 -53 20 -75 22 -125 6 -194 -64 -273 -443 -508 -739
-460 -21 4 -36 10 -35 15 2 4 39 32 83 61 105 70 123 103 140 251 13 107 13
113 -6 133 -11 12 -28 43 -38 70 -11 28 -28 53 -40 59 -12 6 -21 19 -21 33 0
31 -43 72 -75 72 -64 0 -116 -62 -146 -173 -17 -65 -94 -133 -203 -180 l-89
-37 -91 46 c-90 46 -126 70 -126 85 0 4 30 36 66 70 36 35 120 130 186 212
l119 147 102 0 c56 0 131 -4 167 -9z m-5443 -147 c173 -41 312 -117 394 -214
23 -27 47 -50 52 -50 5 0 29 18 52 39 48 45 88 56 171 49 41 -4 66 -13 100
-36 24 -18 54 -32 66 -32 12 0 46 23 78 54 108 103 284 165 429 149 71 -7 107
-35 126 -99 l14 -46 -27 6 c-15 3 -63 9 -106 13 -59 4 -77 3 -72 -5 4 -7 18
-12 31 -12 36 0 201 -66 251 -101 25 -17 106 -91 180 -165 129 -129 172 -161
125 -95 l-22 30 99 -33 c54 -19 110 -39 123 -46 23 -13 20 -14 -46 -27 -41 -8
-100 -30 -140 -53 l-70 -38 -57 42 c-81 62 -191 120 -288 151 -110 36 -324 46
-433 21 -64 -15 -73 -15 -130 1 -47 12 -103 17 -227 16 -153 0 -171 -2 -250
-28 -90 -29 -214 -88 -266 -127 -18 -13 -48 -36 -67 -51 l-35 -28 -119 60
c-66 33 -149 71 -184 86 -78 31 -273 85 -311 85 -26 0 -28 3 -28 38 1 112 65
273 150 376 55 67 66 73 160 90 89 16 140 13 277 -20z m5487 -70 c20 -19 20
-64 2 -108 -12 -29 -18 -33 -40 -29 -15 3 -26 1 -26 -6 0 -6 7 -11 15 -11 8 0
29 -13 47 -29 29 -26 33 -35 32 -78 0 -34 -9 -65 -29 -101 -30 -55 -58 -81
-140 -127 -62 -35 -93 -62 -111 -97 -21 -41 1 -43 26 -3 14 22 50 52 102 82
99 59 161 125 177 190 14 54 26 46 37 -24 5 -32 1 -53 -15 -87 -23 -47 -49
-70 -146 -129 -110 -66 -183 -152 -200 -237 -19 -91 -85 -140 -188 -140 -70 0
-131 31 -227 115 -144 126 -239 164 -528 211 -32 5 -30 7 85 80 130 83 158
104 303 216 97 76 98 76 116 57 10 -11 53 -38 96 -61 70 -36 96 -58 68 -58 -5
0 -10 -5 -10 -11 0 -17 75 -1 170 38 168 68 204 100 254 227 49 124 89 161
130 120z m76 -116 c0 -11 -38 -48 -49 -48 -21 0 -20 20 1 55 20 35 22 36 35
19 7 -10 13 -21 13 -26z m30 -47 c0 -15 -30 -41 -47 -41 -13 0 -12 5 7 25 24
26 40 32 40 16z m5 -61 c-10 -11 -25 -20 -34 -20 -10 0 -6 7 12 18 15 9 27 21
27 26 0 5 3 6 7 3 3 -4 -2 -16 -12 -27z m5 -46 c0 -8 -5 -12 -10 -9 -6 4 -8
11 -5 16 9 14 15 11 15 -7z m-2402 -154 c28 -26 28 -36 -4 -114 -25 -64 -26
-65 -52 -53 -15 6 -28 12 -30 13 -2 1 4 16 13 33 14 28 14 34 0 62 -15 28 -15
33 0 55 19 29 44 31 73 4z m-385 -55 c-13 -10 -19 -11 -22 -2 -2 7 -8 20 -13
30 -9 17 -8 17 22 2 30 -15 31 -17 13 -30z m-1943 -1 c66 -14 91 -15 204 -4
75 8 166 10 219 6 142 -11 299 -71 415 -160 102 -77 87 -73 147 -43 l54 26 75
-19 c129 -33 165 -62 260 -211 54 -84 61 -100 53 -125 -11 -41 0 -128 25 -185
11 -27 19 -52 16 -55 -14 -13 -154 -34 -234 -34 -71 0 -111 6 -185 28 -109 33
-125 41 -199 95 l-55 40 54 -56 c30 -31 53 -58 50 -60 -28 -26 -199 -83 -322
-109 -147 -31 -366 -30 -497 0 -95 23 -226 78 -297 126 -42 29 -179 159 -230
219 -38 45 -42 40 -11 -14 12 -21 19 -41 17 -44 -16 -16 -215 -36 -309 -32
-304 14 -524 151 -645 402 -36 75 -75 210 -63 220 8 7 162 -27 238 -53 121
-42 172 -66 276 -128 50 -30 102 -54 117 -54 16 0 46 18 84 50 80 69 255 154
358 174 44 8 91 17 105 20 45 8 203 -3 280 -20z m2210 6 c11 -11 20 -29 20
-39 0 -25 -26 -51 -50 -51 -16 0 -18 5 -14 30 4 17 1 36 -6 45 -28 33 18 47
50 15z m-99 -19 c22 -18 22 -20 6 -44 -11 -16 -24 -24 -41 -23 -21 1 -24 5
-19 27 3 15 0 30 -6 33 -19 12 -12 26 13 26 13 0 34 -8 47 -19z m-91 -16 c16
-20 4 -50 -26 -63 -45 -21 -64 -10 -64 35 0 36 66 57 90 28z m-772 -138 c3
-16 1 -17 -19 -6 -13 6 -34 15 -48 20 -21 6 -17 8 19 6 35 -2 46 -6 48 -20z
m2224 -27 c98 -16 233 -52 247 -65 1 -2 -11 -21 -28 -42 -44 -55 -127 -116
-149 -110 -9 3 -100 41 -201 86 l-185 80 33 18 c18 10 52 30 74 44 32 20 48
24 67 17 14 -4 78 -17 142 -28z m-1005 -3 l92 -33 -42 -12 c-59 -19 -127 -60
-127 -78 0 -23 29 -29 59 -11 14 8 53 23 86 32 33 10 67 20 75 23 8 3 -2 -8
-22 -25 -71 -58 -115 -122 -96 -141 20 -20 35 -14 57 21 44 72 171 154 266
174 67 13 81 13 144 -1 63 -14 396 -127 516 -174 l49 -20 -59 -30 c-121 -60
-292 -114 -510 -160 -118 -24 -149 -27 -340 -26 -179 0 -220 3 -280 20 -70 20
-70 20 -67 53 2 18 25 80 50 139 45 102 47 111 46 195 0 48 2 87 5 87 3 0 47
-15 98 -33z m-864 -467 c26 -24 47 -47 47 -51 0 -3 -19 -11 -42 -18 -24 -7
-51 -15 -61 -17 -25 -8 -67 85 -67 150 l0 50 38 -34 c20 -19 58 -55 85 -80z"/>
<path d="M4545 5575 c-5 -2 -29 -9 -52 -15 -32 -8 -43 -16 -43 -30 0 -22 10
-24 59 -10 19 5 80 10 137 11 89 1 109 -2 149 -22 26 -13 59 -40 73 -61 15
-21 31 -36 36 -35 39 12 -24 96 -101 133 -50 25 -71 29 -153 31 -52 1 -99 0
-105 -2z"/>
<path d="M3585 5370 c-32 -17 -75 -44 -96 -60 -40 -32 -119 -142 -119 -166 0
-26 28 -14 50 20 11 19 47 59 80 89 79 74 148 101 259 102 61 0 86 4 89 14 8
23 -20 31 -114 31 -83 0 -98 -3 -149 -30z"/>
<path d="M4890 5163 c0 -5 -16 -28 -34 -50 -26 -29 -50 -45 -92 -58 -53 -17
-60 -17 -115 -1 -81 22 -101 21 -97 -6 5 -32 67 -50 164 -46 66 2 87 7 118 28
39 26 99 107 93 124 -5 14 -37 21 -37 9z"/>
<path d="M4320 4965 c0 -20 -9 -53 -20 -75 -25 -48 -7 -67 23 -26 26 36 62 50
90 35 29 -16 37 -28 37 -62 0 -46 -17 -66 -61 -73 -50 -8 -51 -37 -1 -42 26
-3 39 3 67 31 30 30 35 41 35 84 0 28 -7 58 -16 71 -21 30 -70 54 -94 47 -15
-5 -22 0 -30 19 -14 37 -30 32 -30 -9z"/>
<path d="M3976 4925 c-26 -30 -65 -64 -86 -75 -76 -39 -220 -20 -283 37 -13
13 -20 14 -29 5 -9 -9 -6 -18 13 -38 44 -47 97 -67 189 -72 78 -3 90 -1 140
25 59 30 143 123 138 151 -6 33 -35 21 -82 -33z"/>
<path d="M4829 4823 c-109 -56 -146 -125 -99 -185 30 -39 70 -51 154 -46 67 3
79 7 107 33 61 57 79 157 38 209 -17 22 -28 26 -73 26 -42 0 -69 -8 -127 -37z
m159 -25 c30 -30 1 -116 -50 -144 -28 -16 -97 -18 -133 -4 -95 36 15 148 156
159 8 0 20 -4 27 -11z"/>
<path d="M3475 4631 c-63 -29 -97 -72 -102 -128 -8 -83 42 -125 176 -149 157
-28 264 -10 319 52 78 90 10 189 -158 228 -89 21 -185 20 -235 -3z m167 -42
c91 -10 192 -55 201 -89 17 -66 -49 -104 -178 -103 -145 1 -245 41 -245 100 0
30 58 90 92 95 42 7 53 6 130 -3z"/>
<path d="M2716 4619 c-26 -20 -34 -57 -20 -93 10 -27 24 -18 24 17 0 41 15 57
53 57 20 0 38 -10 58 -31 31 -33 38 -59 16 -59 -23 0 -47 -35 -47 -66 0 -60
96 -117 133 -79 20 19 21 31 6 40 -6 4 -16 -1 -24 -11 -11 -16 -17 -16 -39 -6
-32 14 -52 58 -35 78 6 8 24 14 40 14 37 0 38 19 4 76 -28 47 -79 84 -117 84
-14 0 -37 -9 -52 -21z"/>
<path d="M4234 4606 c-16 -41 44 -106 98 -106 53 0 115 65 93 99 -11 19 -35
12 -45 -14 -10 -28 -54 -43 -79 -28 -8 5 -18 21 -21 34 -7 28 -37 38 -46 15z"/>
<path d="M5779 3800 c-109 -19 -240 -108 -387 -265 -91 -96 -232 -277 -307
-395 -26 -41 -49 -76 -50 -78 -2 -2 -59 41 -127 96 -267 215 -447 303 -674
332 -275 35 -474 -121 -491 -385 -10 -158 63 -339 188 -464 233 -233 891 -616
1183 -688 64 -15 65 -15 103 8 74 45 190 145 351 304 318 312 569 635 653 840
32 77 33 85 33 220 0 136 -1 142 -32 215 -84 193 -255 294 -443 260z m228
-102 c125 -75 183 -196 183 -381 0 -160 -61 -291 -243 -531 -202 -265 -601
-669 -743 -752 l-44 -26 -79 26 c-280 91 -791 383 -1034 590 -161 138 -239
285 -240 451 0 145 66 260 181 317 64 32 71 33 182 32 106 0 124 -3 225 -38
175 -59 326 -152 520 -320 61 -52 118 -95 127 -96 10 0 25 12 34 28 153 253
352 502 494 616 129 104 191 128 308 122 61 -4 83 -10 129 -38z"/>
<path d="M5432 3232 c-30 -16 -82 -53 -116 -84 -60 -54 -193 -217 -236 -291
l-22 -36 -86 70 c-274 220 -560 246 -666 59 -28 -49 -31 -64 -31 -135 0 -162
84 -274 321 -431 131 -86 365 -210 464 -244 42 -15 75 -21 92 -17 71 18 347
286 497 483 45 59 98 141 119 183 35 72 37 80 37 176 0 89 -3 106 -27 150 -29
55 -64 91 -118 124 -55 33 -159 30 -228 -7z m214 -63 c54 -33 86 -98 92 -184
8 -120 -29 -198 -186 -395 -90 -113 -297 -322 -366 -369 l-49 -34 -56 18 c-70
22 -239 106 -362 181 -277 167 -369 268 -377 415 -10 161 102 237 290 198 81
-17 219 -94 329 -186 62 -50 106 -80 115 -76 8 3 22 20 31 37 79 155 296 386
393 417 37 12 108 2 146 -22z"/>
<path d="M4368 1454 c-5 -4 -8 -22 -8 -41 0 -18 -16 -66 -35 -105 -35 -70 -39
-92 -12 -69 30 24 68 129 65 177 -2 25 -6 42 -10 38z"/>
<path d="M2143 1460 c-80 -9 -171 -35 -193 -56 -13 -12 -13 -16 0 -28 13 -13
24 -12 83 4 91 25 259 43 327 35 82 -10 178 -43 245 -83 84 -50 176 -115 204
-146 25 -27 55 -34 66 -16 26 43 192 110 271 110 57 0 80 18 55 43 -30 30
-236 -14 -315 -68 l-38 -26 -71 54 c-69 52 -209 137 -272 166 -36 17 -253 23
-362 11z"/>
<path d="M8020 4908 c-45 -23 -128 -97 -147 -133 -11 -18 -13 -17 -59 18 -26
21 -73 45 -103 53 -69 21 -120 7 -172 -45 -88 -88 -68 -205 58 -342 70 -76
174 -159 279 -225 l77 -48 65 69 c152 163 236 316 259 473 7 42 -29 131 -68
168 -41 39 -125 45 -189 12z m153 -49 c63 -49 60 -174 -8 -314 -45 -93 -84
-151 -167 -246 l-48 -53 -32 18 c-74 43 -239 169 -279 214 -78 88 -117 199
-88 255 27 53 50 67 106 67 64 0 103 -18 161 -74 l44 -41 21 29 c48 65 94 109
142 137 60 35 111 38 148 8z"/>
<path d="M8015 4767 c-35 -20 -73 -61 -115 -125 l-15 -23 -45 24 c-64 36 -102
41 -140 22 -70 -36 -70 -128 1 -188 58 -50 203 -121 232 -113 35 8 168 144
201 205 22 41 29 68 30 113 1 54 -2 62 -27 84 -35 30 -70 30 -122 1z m90 -50
c32 -49 -31 -171 -136 -260 -23 -20 -46 -37 -51 -37 -5 0 -44 18 -87 39 -107
54 -154 114 -119 149 21 21 65 13 118 -23 29 -19 58 -35 65 -35 8 0 29 26 49
58 45 75 101 127 138 131 4 1 14 -9 23 -22z"/>
</g>
</svg>
