<?xml version="1.0" standalone="no"?>
<!DOCTYPE svg PUBLIC "-//W3C//DTD SVG 20010904//EN"
 "http://www.w3.org/TR/2001/REC-SVG-20010904/DTD/svg10.dtd">
<svg version="1.0" xmlns="http://www.w3.org/2000/svg"
 width="850.000000pt" height="850.000000pt" viewBox="0 0 850.000000 850.000000"
 preserveAspectRatio="xMidYMid meet">
<metadata>
Created by potrace 1.14, written by Peter Selinger 2001-2017
</metadata>
<g transform="translate(0.000000,850.000000) scale(0.100000,-0.100000)"
fill="#000000" stroke="none">
<path d="M4030 7894 c-184 -11 -425 -46 -595 -85 -179 -42 -433 -122 -550
-173 -22 -10 -49 -22 -60 -26 -75 -32 -273 -129 -349 -172 -323 -183 -572
-374 -831 -639 -206 -211 -340 -381 -520 -664 -39 -60 -195 -364 -228 -442
-108 -254 -190 -521 -232 -753 -51 -285 -59 -380 -59 -690 0 -310 8 -405 59
-690 31 -168 115 -469 165 -585 4 -11 15 -38 23 -60 31 -84 64 -155 147 -320
237 -468 563 -869 975 -1198 262 -210 624 -421 920 -536 61 -24 119 -47 130
-52 153 -66 523 -152 825 -191 126 -16 674 -16 800 0 356 46 645 118 930 232
863 342 1555 984 1955 1813 125 258 197 456 260 712 78 318 100 508 100 875 0
299 -7 389 -46 620 -32 186 -115 505 -158 605 -5 11 -15 36 -22 55 -118 325
-335 705 -567 996 -117 147 -369 403 -521 530 -490 409 -1120 699 -1726 795
-176 28 -314 39 -530 43 -132 2 -265 2 -295 0z m580 -99 c206 -22 314 -41 490
-83 171 -42 411 -121 540 -179 477 -215 779 -420 1126 -767 342 -343 582 -695
764 -1119 193 -453 280 -886 280 -1397 0 -579 -108 -1053 -355 -1555 -145
-296 -271 -490 -471 -730 -107 -128 -351 -371 -474 -471 -505 -413 -1131 -689
-1755 -773 -197 -27 -263 -31 -494 -31 -399 0 -682 40 -1041 147 -477 141
-966 416 -1334 749 -412 372 -685 751 -919 1274 -80 180 -168 467 -212 692
-87 444 -88 929 -5 1373 33 175 137 543 161 570 5 5 9 15 9 22 0 7 11 36 24
65 13 29 40 91 61 138 96 224 257 487 445 732 122 158 436 473 595 596 117 91
300 217 380 263 168 96 224 125 325 170 63 29 139 62 168 75 29 13 58 24 65
24 7 0 17 4 22 9 14 13 286 97 390 121 185 43 236 52 360 70 171 23 238 27
475 29 158 1 293 -4 380 -14z"/>
<path d="M4075 7454 c-448 -26 -869 -139 -1260 -336 -197 -100 -400 -230 -580
-374 -146 -116 -389 -361 -499 -504 -393 -508 -595 -1001 -678 -1650 -15 -121
-15 -554 0 -685 74 -627 307 -1183 703 -1678 104 -129 333 -359 466 -465 482
-388 1002 -611 1631 -699 148 -20 611 -23 752 -4 259 35 453 79 675 152 91 30
109 37 155 57 14 6 68 30 120 53 136 59 284 139 432 235 496 323 906 789 1155
1314 53 112 62 133 83 185 6 14 14 35 19 48 18 42 70 202 94 292 45 162 74
311 99 505 16 127 16 567 -1 700 -93 756 -398 1387 -925 1916 -516 516 -1162
832 -1886 919 -117 14 -445 26 -555 19z m495 -99 c74 -8 161 -19 193 -25 31
-5 81 -14 110 -19 170 -31 461 -124 636 -203 217 -98 519 -274 573 -334 18
-20 68 -210 88 -334 6 -41 16 -97 21 -123 5 -26 9 -125 9 -220 -1 -277 -30
-358 -235 -653 -62 -89 -326 -424 -377 -478 -43 -46 -162 -210 -209 -288 -27
-45 -59 -114 -71 -153 -11 -38 -24 -74 -29 -79 -4 -5 -36 -4 -73 1 -42 6 -71
6 -83 -1 -22 -12 -327 -249 -525 -408 -81 -65 -151 -118 -156 -118 -4 0 -18
55 -31 123 -12 67 -31 167 -42 222 -10 55 -20 118 -22 139 -2 38 0 40 54 70
253 139 406 408 475 831 9 60 18 194 21 331 l5 232 87 32 c176 67 261 145 261
240 0 156 -270 283 -720 339 -164 20 -291 31 -369 31 l-79 0 -11 128 c-33 373
-42 697 -19 720 17 17 347 15 518 -3z m-610 -225 c0 -120 4 -262 9 -316 5 -55
13 -145 16 -201 l7 -103 -54 0 c-61 0 -307 -24 -416 -39 -336 -49 -574 -148
-632 -262 -55 -107 3 -197 177 -281 l88 -41 0 -278 0 -277 -57 54 c-73 70 -95
71 -137 6 -46 -72 -108 -210 -122 -274 -8 -32 -17 -58 -22 -58 -5 0 -43 24
-85 54 -141 98 -288 181 -367 206 -22 7 -71 32 -110 55 -38 23 -124 70 -190
105 -66 34 -140 77 -165 96 -90 66 -290 291 -290 326 0 23 31 69 151 229 418
556 1029 966 1699 1140 115 30 137 35 305 63 92 16 174 24 188 18 4 -2 7 -101
7 -222z m2484 -665 c257 -256 424 -481 585 -790 l53 -100 -48 -43 c-185 -168
-562 -396 -904 -547 -209 -92 -252 -116 -320 -184 -81 -82 -129 -171 -161
-306 l-23 -97 -61 7 c-33 4 -88 10 -122 14 -34 4 -65 9 -68 12 -9 9 24 107 57
167 57 105 197 290 406 537 44 52 155 199 208 275 154 222 214 351 236 512 24
178 -9 527 -69 732 -11 40 61 -20 231 -189z m-1964 -63 c30 -5 93 -15 140 -22
237 -35 434 -105 512 -182 46 -46 47 -67 8 -111 -86 -98 -322 -170 -716 -217
-118 -15 -610 -15 -728 0 -419 50 -667 131 -729 237 -17 29 -17 34 -3 62 16
31 74 75 136 103 135 62 418 121 680 142 88 7 646 -3 700 -12z m-1090 -571
c58 -11 115 -23 128 -26 22 -5 22 -7 22 -196 0 -178 -1 -191 -17 -184 -10 3
-38 10 -63 15 -63 13 -160 38 -191 51 -23 9 -27 18 -32 65 -3 31 -3 112 0 181
6 120 7 125 27 120 12 -3 68 -14 126 -26z m1424 -159 c-1 -125 -5 -167 -15
-177 -8 -7 -54 -22 -104 -35 -49 -12 -107 -26 -128 -31 -22 -6 -41 -8 -44 -5
-3 3 0 56 6 118 7 62 13 144 14 183 l2 69 70 13 c39 7 86 17 105 22 19 5 49 8
65 7 l30 -1 -1 -163z m-3232 111 c27 -46 204 -229 268 -276 33 -25 104 -68
157 -95 54 -28 136 -72 183 -99 l85 -49 6 -114 c9 -173 40 -314 90 -411 10
-21 19 -41 19 -44 0 -3 -15 -5 -33 -5 -76 0 -228 -75 -242 -120 -10 -32 23
-79 129 -186 147 -148 288 -233 471 -285 44 -13 82 -24 84 -26 2 -1 -32 -36
-76 -77 -82 -78 -114 -124 -106 -156 5 -18 64 -48 138 -70 90 -25 142 -38 187
-44 26 -4 50 -11 53 -16 3 -5 -13 -19 -36 -30 -23 -12 -62 -43 -86 -69 l-45
-48 -32 16 c-47 24 -199 22 -251 -4 -93 -46 -175 -167 -175 -260 0 -23 -5 -35
-17 -39 -10 -3 -90 -10 -178 -17 -245 -17 -505 2 -756 55 -170 36 -161 29
-187 132 -74 296 -102 519 -102 806 1 521 112 975 352 1441 34 64 66 117 72
117 7 0 19 -12 28 -27z m2378 -9 c140 -3 308 -2 374 3 96 7 119 6 124 -5 5
-15 -15 -277 -26 -332 l-7 -35 -115 -12 c-214 -22 -639 -8 -669 22 -6 6 -14
93 -17 194 l-7 184 44 -7 c24 -3 159 -9 299 -12z m3192 -368 c92 -224 165
-511 199 -776 17 -131 23 -525 10 -660 -19 -200 -53 -386 -102 -555 l-9 -31
-63 8 c-34 4 -154 13 -267 19 -113 7 -207 13 -209 15 -2 2 6 15 18 30 20 26
21 35 16 173 -18 463 -27 616 -36 627 -11 13 -83 26 -249 44 -58 6 -136 15
-175 20 -38 5 -110 14 -160 19 -431 49 -405 45 -405 74 0 76 57 216 120 296
53 67 103 99 264 171 75 33 194 89 264 124 115 57 148 75 223 118 152 87 386
247 479 327 19 17 39 29 44 27 6 -1 22 -33 38 -70z m-3813 -25 c36 -10 95 -24
131 -31 36 -7 71 -17 78 -23 6 -5 12 -28 12 -51 0 -55 45 -313 70 -406 36
-130 98 -280 142 -342 24 -35 10 -37 -56 -8 -231 99 -393 352 -450 705 -30
183 -29 175 -10 175 9 0 47 -8 83 -19z m1456 -28 c-34 -199 -76 -350 -126
-459 -56 -121 -159 -245 -259 -313 -81 -55 -179 -98 -168 -73 2 4 31 63 65
132 82 168 147 378 183 595 16 92 20 99 66 106 54 9 133 27 169 38 17 5 40 10
53 10 21 1 22 -2 17 -36z m-815 -50 c166 -3 305 -1 350 6 41 5 78 7 82 3 4 -4
3 -25 -2 -47 -4 -22 -14 -67 -21 -100 -15 -77 -46 -195 -67 -260 -20 -61 -64
-172 -90 -225 -31 -64 -110 -192 -125 -202 -20 -12 -97 -19 -143 -12 -41 6
-50 12 -89 64 -95 130 -164 321 -204 570 -37 224 -37 227 8 215 14 -4 150 -9
301 -12z m-873 -60 c43 -55 96 -161 127 -255 63 -192 132 -304 260 -425 66
-62 75 -75 72 -100 -3 -15 -10 -68 -17 -118 -7 -49 -15 -94 -20 -99 -11 -13
-265 148 -373 236 l-29 24 -2 225 c-2 196 -17 385 -41 502 -6 31 3 35 23 10z
m-98 -100 c7 -54 17 -131 22 -171 5 -40 9 -145 9 -234 l0 -160 -42 33 c-111
87 -486 479 -532 557 -17 29 160 -81 301 -186 79 -59 113 -65 125 -22 4 14 16
64 26 111 22 93 58 183 71 175 5 -3 14 -50 20 -103z m-554 -100 c79 -100 353
-383 444 -458 33 -27 60 -53 60 -57 1 -5 -65 -8 -146 -8 -134 0 -275 13 -453
40 -36 5 -68 10 -72 10 -5 0 -8 4 -8 9 0 13 91 31 158 31 94 0 102 22 42 112
-45 68 -87 189 -100 293 -12 88 -12 115 -2 115 4 0 39 -39 77 -87z m30 -589
c74 -10 190 -16 352 -18 l241 -1 84 -62 c94 -69 221 -154 268 -178 16 -8 30
-19 30 -24 0 -5 -37 -23 -82 -41 -46 -17 -92 -36 -103 -40 -79 -34 -467 -152
-474 -144 -3 3 -1 8 5 12 5 4 44 33 87 66 112 85 105 108 -39 131 -116 19
-201 48 -302 102 -84 45 -204 135 -257 193 l-30 33 55 -6 c30 -4 105 -14 165
-23z m1279 -71 c-1 -15 -7 -55 -13 -88 -6 -33 -14 -80 -17 -103 -4 -24 -12
-46 -19 -48 -12 -5 -84 32 -96 49 -4 5 0 41 7 80 8 40 14 84 14 99 0 15 4 38
10 52 l9 25 53 -19 c48 -17 53 -21 52 -47z m489 20 c6 -9 100 -509 101 -537 1
-26 -244 -219 -259 -205 -6 6 -11 145 -13 363 l-3 352 78 16 c43 9 81 16 85
17 4 0 9 -2 11 -6z m-265 -29 c9 -2 12 -61 12 -247 0 -134 -3 -246 -6 -250 -3
-3 -25 8 -48 24 -26 18 -66 35 -104 42 -34 6 -62 17 -62 23 0 18 67 383 75
411 4 11 95 9 133 -3z m1309 -23 c26 -5 98 -14 158 -21 61 -6 144 -15 185 -20
41 -6 174 -21 295 -35 121 -14 252 -30 290 -35 39 -5 117 -14 175 -20 58 -6
135 -16 173 -22 l67 -10 0 -47 0 -46 -152 -131 c-260 -223 -805 -692 -964
-829 -83 -71 -170 -147 -195 -168 -48 -41 -41 -41 -169 -14 -41 8 -86 17 -100
20 -14 3 -273 55 -577 116 -303 61 -558 108 -567 105 -8 -3 -18 -14 -21 -23
-6 -21 12 -431 21 -454 6 -17 37 -28 134 -46 62 -12 142 -27 215 -41 45 -9
287 -56 410 -79 28 -6 136 -26 240 -46 105 -20 234 -45 289 -56 54 -10 102
-19 107 -19 7 0 133 101 149 120 3 3 84 73 180 155 96 82 177 152 180 155 3 3
163 140 355 305 193 165 352 302 355 305 15 17 118 100 124 100 3 0 6 -15 6
-33 0 -29 -12 -45 -92 -122 -374 -357 -552 -528 -678 -651 -172 -167 -353
-342 -430 -413 -54 -51 -56 -52 -105 -47 -27 3 -70 10 -95 16 -25 5 -67 14
-95 19 -27 6 -135 28 -240 50 -104 22 -269 56 -365 75 -96 20 -238 49 -315 65
-77 16 -210 43 -295 61 -85 17 -158 35 -162 38 -7 7 -43 631 -37 636 2 1 38
29 79 62 41 33 156 123 255 200 99 77 250 196 335 263 85 68 200 158 255 201
55 43 183 144 285 224 184 145 185 146 237 146 29 0 74 -4 100 -9z m-1660
-272 l65 -31 -7 -45 c-10 -67 -9 -66 -95 -108 l-79 -39 -23 30 c-42 54 -80 84
-129 101 -27 10 -49 20 -49 23 0 6 220 97 239 99 7 0 42 -13 78 -30z m3009
-391 c-6 -9 -128 -117 -271 -239 -143 -122 -276 -236 -295 -253 -19 -17 -127
-110 -240 -206 -113 -96 -218 -187 -235 -201 -69 -61 -272 -235 -289 -249 -22
-17 -49 -15 -181 10 -55 11 -219 42 -365 70 -146 28 -296 57 -335 65 -38 7
-146 28 -240 45 -93 17 -177 35 -185 39 -12 6 -17 42 -23 166 -5 86 -6 159 -4
161 2 3 299 -54 658 -126 483 -97 659 -128 674 -121 11 5 63 46 115 91 52 45
119 103 149 129 30 25 59 51 65 56 6 6 74 64 151 130 77 66 153 132 170 146
16 15 134 116 260 224 127 109 257 221 290 250 33 29 74 64 90 78 l30 25 11
-136 c8 -99 8 -142 0 -154z m-3597 195 c-13 -21 -29 -47 -34 -58 -8 -15 -19
-19 -45 -17 -57 5 -143 27 -147 38 -3 8 238 86 246 78 2 -1 -7 -20 -20 -41z
m292 23 c19 -8 44 -24 56 -36 69 -64 80 -186 21 -209 -13 -5 -38 -21 -57 -35
l-34 -25 -38 34 c-45 40 -81 60 -129 70 -66 13 -70 15 -70 43 0 34 31 102 56
123 56 49 131 62 195 35z m539 -66 c83 -42 120 -106 120 -206 l0 -64 -51 -40
-52 -41 -25 38 c-60 91 -136 143 -238 164 -61 12 -62 13 -52 40 12 35 66 91
109 112 48 23 140 22 189 -3z m-729 -221 c47 -15 104 -61 125 -102 18 -34 23
-142 8 -168 -5 -9 -24 -29 -42 -44 l-33 -28 -47 25 c-46 24 -111 45 -162 50
-16 2 -26 10 -28 23 -4 25 -21 62 -44 97 -23 34 -23 48 5 78 33 37 53 51 94
66 47 16 75 17 124 3z m511 -25 c80 -27 170 -125 152 -166 -9 -22 -117 -102
-135 -101 -10 1 -30 10 -45 20 -48 31 -96 43 -178 43 -68 0 -77 2 -72 16 3 9
1 34 -4 56 -14 50 -8 68 35 97 76 51 164 64 247 35z m-924 -87 c24 -7 59 -25
78 -41 34 -27 74 -92 74 -120 0 -8 -24 -28 -53 -44 -78 -44 -133 -115 -161
-204 -13 -44 -127 -2 -175 64 -68 92 -58 211 22 292 60 59 133 77 215 53z
m4400 -195 c40 -5 75 -12 79 -15 21 -21 -192 -512 -268 -618 -10 -15 -19 -30
-19 -34 0 -14 -162 -245 -246 -350 -102 -127 -291 -325 -311 -325 -20 0 -227
143 -363 250 -113 89 -280 245 -280 261 0 7 128 134 445 439 265 255 360 347
395 380 l35 32 230 -6 c127 -3 263 -10 303 -14z m-3575 -25 c29 -13 65 -39 80
-56 24 -29 27 -41 27 -105 0 -40 3 -100 6 -132 6 -58 5 -60 -31 -97 -68 -72
-177 -97 -262 -62 -59 25 -74 42 -61 73 6 15 11 61 11 102 1 61 -4 86 -26 134
-15 32 -27 65 -27 72 0 16 68 63 114 80 52 19 112 16 169 -9z m-456 -50 c90
-47 143 -131 143 -227 -1 -187 -192 -305 -360 -222 -197 97 -180 381 27 458
47 18 147 13 190 -9z m-1732 -2 c226 -53 416 -69 705 -61 129 3 251 9 270 12
33 5 36 3 59 -41 39 -73 125 -136 207 -150 41 -6 42 -8 58 -64 38 -135 135
-226 268 -251 28 -6 54 -12 57 -15 10 -11 -78 -89 -169 -150 -81 -53 -207
-119 -360 -188 -116 -52 -477 -177 -511 -177 -40 0 -271 296 -397 510 -117
199 -291 590 -262 590 5 0 38 -7 75 -15z m2096 -500 c67 0 84 4 139 33 35 17
66 32 70 32 4 0 10 -50 12 -112 7 -128 14 -140 90 -152 24 -4 74 -14 111 -22
l69 -16 -6 -34 c-31 -163 -56 -540 -63 -936 l-6 -378 -28 0 c-15 0 -51 5 -81
11 -29 6 -78 15 -108 21 -400 75 -816 243 -1140 461 -187 126 -528 414 -509
431 2 2 54 19 114 39 320 103 583 221 755 338 52 36 140 114 228 203 l144 144
66 -31 c57 -27 79 -32 143 -32z m780 -295 c106 -23 259 -54 339 -70 80 -16
244 -50 365 -75 121 -25 276 -57 344 -71 l124 -25 31 30 c18 17 37 31 43 31
14 0 28 -39 63 -180 31 -120 78 -257 116 -333 39 -80 97 -167 116 -175 5 -2 8
-11 8 -21 0 -12 -41 -38 -142 -88 -206 -103 -381 -170 -593 -228 -148 -41
-317 -72 -511 -94 -110 -13 -543 -14 -563 -2 -12 8 -13 70 -8 392 7 389 14
519 42 779 15 139 20 170 28 170 2 0 91 -18 198 -40z m1461 -72 c134 -133 296
-263 481 -387 59 -39 107 -76 107 -81 0 -12 -183 -156 -309 -242 l-103 -70
-22 23 c-95 103 -168 269 -231 524 -15 60 -36 130 -47 154 l-19 44 43 44 c23
24 43 43 44 43 2 0 27 -24 56 -52z"/>
<path d="M5375 4070 c-101 -101 -98 -100 -219 -70 -98 25 -132 25 -144 3 -19
-35 2 -59 64 -72 33 -7 74 -18 93 -23 l33 -10 -151 -152 c-83 -83 -151 -158
-151 -167 0 -21 20 -39 44 -39 13 0 83 63 191 169 l170 169 119 -26 c126 -27
148 -25 154 16 4 28 -28 47 -103 62 -106 20 -104 14 -26 95 39 40 71 80 71 88
0 18 -26 47 -43 47 -7 0 -53 -40 -102 -90z"/>
</g>
</svg>
