<?xml version="1.0" standalone="no"?>
<!DOCTYPE svg PUBLIC "-//W3C//DTD SVG 20010904//EN"
 "http://www.w3.org/TR/2001/REC-SVG-20010904/DTD/svg10.dtd">
<svg version="1.0" xmlns="http://www.w3.org/2000/svg"
 width="850.000000pt" height="850.000000pt" viewBox="0 0 850.000000 850.000000"
 preserveAspectRatio="xMidYMid meet">
<metadata>
Created by potrace 1.14, written by Peter Selinger 2001-2017
</metadata>
<g transform="translate(0.000000,850.000000) scale(0.100000,-0.100000)"
fill="#000000" stroke="none">
<path d="M1265 8383 c-478 -821 -854 -1362 -1204 -1733 l-61 -65 0 -227 c0
-129 4 -228 9 -228 23 0 317 404 554 760 71 107 133 199 138 204 9 10 285
-171 620 -407 263 -184 258 -180 259 -190 0 -5 -31 -43 -69 -85 -210 -234
-416 -549 -548 -838 -56 -122 -150 -365 -160 -415 -3 -17 -11 -33 -17 -35 -6
-2 -181 34 -390 81 -208 47 -382 85 -387 85 -5 0 -9 -49 -9 -109 l0 -109 92
-21 c51 -11 212 -47 358 -79 239 -52 265 -60 264 -77 -1 -11 -8 -60 -17 -110
-60 -338 -73 -828 -30 -1141 l5 -42 -106 -71 c-58 -39 -179 -115 -268 -169
-90 -54 -193 -118 -230 -143 l-68 -44 0 -147 c0 -82 4 -148 8 -148 5 0 89 49
188 108 208 126 519 302 533 302 6 0 15 -19 21 -42 29 -114 127 -396 181 -522
73 -168 152 -314 264 -491 l82 -130 6 -405 c4 -271 11 -440 21 -509 11 -77 12
-110 4 -125 -23 -44 -210 -276 -221 -276 -7 0 -54 9 -104 20 -173 38 -522 89
-926 135 l-57 6 0 -90 0 -90 58 -6 c192 -22 435 -62 657 -111 227 -49 238 -53
231 -70 -6 -16 -167 -242 -281 -394 -39 -52 -81 -110 -94 -128 l-23 -32 36
-15 c49 -21 281 -21 289 -1 6 14 74 111 384 541 348 482 357 494 383 499 14 3
287 8 607 12 l582 7 25 -54 c37 -77 229 -503 353 -781 l106 -238 113 0 c87 0
114 3 114 13 0 7 -23 71 -51 142 -28 72 -71 184 -94 250 -24 66 -84 215 -135
330 -107 246 -126 293 -119 299 3 3 549 6 1214 6 1064 1 1210 0 1213 -13 3
-17 -87 -354 -204 -760 -41 -142 -74 -260 -74 -262 0 -3 49 -5 108 -5 l109 0
87 292 c48 161 117 392 153 513 36 121 70 225 77 231 7 8 126 14 377 19 l366
6 174 -162 c210 -195 599 -586 764 -767 l120 -132 127 0 c109 0 128 2 128 16
0 13 -181 214 -460 509 -52 55 -144 154 -205 220 -60 66 -148 161 -195 210
-47 50 -129 139 -184 198 l-98 107 7 300 7 300 65 82 c306 387 518 804 648
1271 9 32 19 56 23 53 5 -3 28 -38 52 -78 169 -284 936 -1491 950 -1496 6 -2
10 72 10 203 0 202 0 207 -24 238 -46 61 -341 534 -522 837 -122 203 -180 308
-173 315 6 6 142 10 365 10 l354 0 0 107 0 107 -32 5 c-18 3 -132 15 -253 26
-389 38 -628 69 -644 85 -16 16 -16 45 -1 205 12 128 12 458 0 595 l-8 100
196 192 c117 114 203 191 212 189 8 -2 126 -33 261 -70 135 -36 251 -66 257
-66 8 0 12 27 12 83 l0 83 -52 13 c-58 14 -298 126 -298 139 0 5 79 89 175
188 l174 179 1 133 c0 72 -3 132 -6 132 -3 0 -99 -83 -212 -184 -390 -346
-770 -671 -777 -664 -3 2 -16 49 -30 104 -95 368 -264 747 -474 1059 l-80 119
15 35 c37 88 728 1348 862 1574 26 42 50 77 54 77 5 0 29 -15 55 -33 27 -19
143 -98 258 -177 116 -79 233 -161 262 -182 29 -21 57 -38 63 -38 6 0 10 42
10 118 -1 116 -1 117 -28 137 -15 10 -76 60 -137 111 -98 81 -443 344 -691
524 -49 35 -124 95 -166 132 l-77 68 -181 0 c-103 0 -180 -4 -178 -9 11 -30
302 -270 511 -421 42 -30 76 -61 76 -69 1 -13 -142 -282 -401 -756 -63 -115
-195 -357 -293 -537 -97 -181 -180 -328 -182 -328 -3 0 -80 75 -172 168 -227
229 -444 400 -697 550 -62 37 -115 72 -117 77 -7 16 29 250 69 455 36 189 170
821 180 853 5 15 -4 17 -95 17 -113 0 -103 8 -121 -100 -29 -172 -222 -1116
-230 -1124 -5 -5 -49 9 -102 31 -289 125 -542 196 -868 245 -164 24 -663 36
-830 20 -67 -7 -108 -8 -116 -1 -14 11 -39 134 -59 294 -14 111 -45 526 -45
602 l0 33 -111 0 -111 0 9 -222 c13 -354 9 -696 -8 -742 l-14 -40 -145 -41
c-479 -138 -860 -337 -1262 -662 -71 -57 -134 -103 -141 -103 -15 0 -216 136
-337 229 -173 132 -539 423 -555 440 -15 18 -9 30 101 212 64 107 167 275 228
374 192 309 306 512 306 545 0 6 -35 10 -89 10 l-88 0 -68 -117z m2294 -1458
c23 -126 61 -345 85 -485 199 -1138 199 -1141 241 -1216 19 -34 35 -67 35 -73
0 -8 -133 -11 -450 -11 -267 0 -450 4 -450 9 0 5 22 34 50 64 l49 54 16 134
c19 163 42 301 100 591 24 123 89 455 145 738 55 283 104 522 107 530 8 19 21
-42 72 -335z m946 290 c372 -49 708 -150 1020 -306 152 -77 162 -86 104 -93
-413 -49 -705 -53 -1014 -14 -280 36 -443 48 -656 48 -109 0 -180 4 -184 10
-6 10 -65 314 -65 337 0 41 528 53 795 18z m-1225 -108 c0 -7 -11 -76 -25
-153 -14 -76 -25 -143 -25 -147 0 -5 -42 -6 -93 -2 -76 6 -115 3 -211 -15 -97
-19 -142 -22 -252 -18 -74 2 -137 7 -140 11 -15 15 26 41 202 128 115 57 246
113 351 150 183 63 193 65 193 46z m1270 -447 c465 -32 550 -34 913 -15 417
21 470 19 523 -18 81 -56 213 -172 338 -295 150 -149 203 -210 190 -221 -11
-11 -219 -48 -373 -67 -150 -18 -362 -18 -542 1 -342 37 -547 56 -734 70 -223
17 -754 20 -880 6 -44 -5 -83 -7 -86 -3 -4 4 -16 70 -28 147 -12 77 -31 187
-42 245 -10 58 -19 119 -19 137 l0 32 83 4 c130 5 359 -3 657 -23z m-2102 -71
c79 -8 164 -7 375 5 308 18 337 19 354 8 9 -6 3 -55 -26 -202 -22 -107 -42
-206 -46 -220 l-6 -25 -267 -1 c-204 -1 -309 -6 -447 -22 -437 -51 -655 -56
-655 -15 0 20 335 353 435 432 79 63 79 63 130 57 27 -3 96 -11 153 -17z m612
-618 c0 -5 -20 -97 -45 -203 -25 -106 -51 -217 -57 -246 -14 -65 -4 -61 -243
-112 -402 -87 -857 -152 -1255 -179 -85 -6 -176 -13 -203 -16 -41 -4 -47 -2
-47 15 0 60 221 489 337 655 l28 39 280 2 c242 1 473 14 860 47 93 8 345 6
345 -2z m1565 -1 c88 -6 257 -22 375 -36 118 -13 276 -32 350 -40 74 -8 257
-18 405 -21 276 -6 432 2 700 34 225 27 211 30 268 -52 54 -79 197 -327 197
-342 0 -11 -8 -13 -220 -44 -261 -39 -377 -50 -595 -56 -235 -6 -373 3 -567
37 -509 91 -791 99 -1352 40 -104 -11 -191 -19 -192 -17 -2 2 -15 82 -29 178
-14 96 -29 199 -34 229 -7 39 -6 58 2 67 26 26 436 39 692 23z m309 -630 c93
-5 298 -25 455 -44 628 -76 949 -75 1475 6 131 20 140 20 152 4 17 -24 124
-347 124 -376 l0 -23 -127 6 c-121 7 -300 23 -513 47 -545 62 -828 53 -1315
-41 -100 -19 -209 -27 -222 -16 -7 5 -13 26 -13 47 0 33 3 38 33 46 29 9 32
13 32 49 0 38 -2 40 -35 45 -33 5 -35 7 -38 47 -3 37 -7 44 -29 49 -37 10 -57
-7 -63 -52 -4 -33 -9 -39 -32 -42 -36 -4 -50 -24 -46 -64 3 -30 6 -33 40 -36
31 -3 38 -7 43 -32 4 -16 3 -39 0 -51 -7 -22 -9 -22 -189 -15 -223 8 -568 35
-578 45 -4 3 1 30 12 59 33 85 27 127 -27 211 -32 51 -42 75 -34 80 23 14 481
55 666 59 33 1 136 -3 229 -8z m-2084 -85 c0 -3 -18 -31 -39 -63 -22 -31 -45
-69 -52 -84 -15 -34 -5 -48 58 -85 l43 -25 0 -83 c0 -54 -4 -86 -13 -93 -20
-17 -209 -41 -417 -53 -143 -8 -291 -8 -555 1 -548 17 -786 27 -792 34 -8 8
45 216 59 233 7 9 38 13 92 13 162 0 650 45 926 86 117 17 502 87 595 108 67
15 95 19 95 11z m1043 -689 l-6 -435 41 -54 c23 -30 42 -56 42 -59 0 -3 -86
-8 -191 -12 -234 -9 -819 3 -819 17 0 5 22 35 48 67 l49 58 7 237 c3 130 3
322 0 426 l-7 189 421 0 421 0 -6 -434z m2065 289 c-2 -3 -45 -21 -93 -40 -49
-19 -152 -72 -229 -119 -138 -82 -218 -117 -303 -131 l-43 -7 -87 84 c-49 45
-89 88 -91 94 -2 7 30 13 90 18 146 10 318 34 503 71 153 30 267 44 253 30z
m877 -80 c99 -19 218 -39 265 -45 47 -6 88 -16 91 -22 17 -27 59 -366 59 -475
0 -69 -6 -74 -48 -44 -15 10 -65 38 -112 62 -107 54 -177 123 -254 249 -71
115 -151 216 -211 267 -25 20 -45 41 -45 46 0 9 4 8 255 -38z m-2445 -25 c63
-5 168 -10 232 -10 70 0 119 -4 123 -10 9 -15 -18 -48 -221 -270 -99 -108
-205 -224 -236 -259 -32 -36 -61 -62 -64 -59 -13 14 -114 548 -114 607 0 24 0
24 83 17 45 -4 134 -11 197 -16z m1896 -1 c31 -12 79 -40 107 -63 58 -47 173
-183 164 -192 -4 -4 -35 12 -69 34 -83 54 -106 58 -162 33 -37 -16 -51 -29
-65 -62 -11 -23 -17 -48 -14 -56 4 -9 12 -1 23 24 23 51 43 66 93 67 36 1 50
-5 92 -41 53 -44 91 -63 130 -63 15 0 39 -17 69 -51 25 -28 46 -55 46 -59 0
-12 -22 -26 -74 -46 -27 -10 -88 -46 -135 -81 -131 -97 -200 -114 -236 -60
-12 19 -13 33 -4 82 13 69 5 95 -56 179 -19 27 -38 67 -42 89 -5 33 -8 37 -14
22 -12 -31 1 -85 38 -157 35 -66 35 -66 24 -135 -14 -79 -6 -109 35 -142 18
-14 41 -21 71 -21 l44 0 -6 -47 c-10 -75 -24 -111 -52 -133 -34 -27 -77 -25
-151 5 -34 14 -76 25 -94 25 -27 1 -48 14 -108 70 -74 67 -75 69 -50 78 41 16
78 64 100 126 23 67 35 85 67 97 23 8 33 39 13 39 -17 0 -64 -26 -82 -46 -9
-11 -24 -39 -34 -64 -24 -63 -59 -97 -106 -105 -32 -6 -44 -3 -71 18 -51 39
-177 158 -177 167 0 5 17 4 37 -2 54 -15 144 -6 175 17 15 11 46 50 70 87 41
64 80 98 111 98 21 0 32 19 19 32 -29 29 -126 -32 -162 -101 -42 -83 -98 -105
-196 -76 -65 19 -134 51 -134 63 0 4 28 22 63 39 34 17 123 78 197 137 74 59
155 118 179 133 111 65 225 80 327 42z m-5061 -119 c336 -26 403 -31 640 -45
322 -19 635 -19 822 0 81 9 151 14 157 12 7 -3 9 -35 6 -93 l-5 -89 -40 -6
c-89 -15 -617 -21 -870 -10 -408 18 -879 62 -902 85 -10 9 -10 27 -1 81 11 69
21 87 42 79 6 -2 74 -8 151 -14z m3821 -122 c98 -92 230 -215 844 -787 91 -85
168 -160 172 -166 11 -18 14 -89 5 -93 -16 -7 -537 455 -915 810 -122 115
-228 208 -235 206 -19 -5 -421 -430 -790 -835 -62 -68 -115 -123 -119 -123 -5
0 -8 16 -8 34 0 38 -11 24 261 330 422 476 650 724 665 725 6 1 60 -45 120
-101z m49 -324 c148 -139 398 -360 710 -626 88 -75 187 -160 220 -191 l60 -54
3 -281 4 -281 -23 -5 c-35 -7 -524 -26 -664 -26 l-121 0 -147 166 -148 166 3
52 c3 50 4 51 36 54 31 3 33 6 30 35 -2 27 -8 33 -32 37 -23 4 -32 12 -38 38
-8 29 -13 33 -36 30 -21 -2 -29 -11 -37 -35 -7 -25 -15 -33 -32 -33 -15 0 -27
-8 -32 -22 -12 -32 -5 -43 32 -54 30 -8 32 -13 35 -56 l3 -47 -103 -113 c-57
-62 -125 -136 -153 -165 l-50 -53 -305 -2 -305 -3 -3 319 -2 318 31 37 c17 20
64 70 103 111 87 91 648 688 729 777 35 37 64 60 70 56 7 -4 80 -71 162 -149z
m-3706 86 c494 -48 608 -58 724 -66 59 -3 109 -10 112 -14 7 -11 -81 -66 -152
-95 -33 -13 -107 -36 -164 -50 -159 -40 -221 -61 -295 -99 -87 -44 -121 -69
-213 -159 -86 -85 -158 -190 -236 -346 -32 -65 -60 -110 -65 -105 -12 12 -55
229 -75 374 -16 120 -33 546 -22 574 8 21 17 21 386 -14z m5414 -24 c30 -19
84 -50 121 -68 36 -18 65 -37 63 -43 -2 -5 -18 -14 -36 -19 -52 -15 -120 -83
-155 -155 -37 -77 -63 -96 -110 -77 -22 9 -35 24 -46 52 -22 60 -48 94 -70 94
-23 0 -26 -13 -6 -29 8 -7 20 -34 26 -62 23 -94 101 -140 177 -103 29 15 46
34 73 85 42 80 63 105 110 129 57 29 106 35 135 16 43 -28 155 -211 155 -253
0 -10 -5 -25 -10 -33 -7 -12 -13 -11 -34 9 -42 39 -108 40 -193 2 -81 -35
-113 -38 -154 -14 -50 30 -54 -10 -4 -43 38 -25 100 -21 172 10 75 31 102 33
137 5 32 -26 66 -89 61 -115 -2 -10 -11 -61 -21 -112 -9 -51 -20 -94 -24 -97
-4 -2 -22 7 -40 20 -68 50 -121 45 -200 -20 -84 -69 -119 -60 -150 38 -23 73
-41 31 -19 -47 26 -95 95 -108 195 -37 31 23 67 41 79 41 12 0 44 -16 70 -36
44 -34 47 -39 41 -73 -3 -20 -14 -60 -23 -90 l-18 -55 -60 -2 c-33 -1 -78 -5
-101 -9 -50 -8 -62 4 -66 70 -2 36 -7 50 -18 50 -25 0 -35 -74 -16 -118 21
-50 20 -51 -15 -60 -53 -14 -96 8 -124 63 -39 76 -83 97 -143 66 -15 -8 -57
-44 -92 -81 -66 -68 -109 -95 -154 -95 -63 0 -76 84 -26 159 17 24 30 50 30
56 0 28 26 36 70 20 84 -30 145 -12 175 52 20 41 26 106 10 111 -5 2 -15 -18
-23 -45 -23 -84 -61 -99 -153 -62 -70 27 -100 22 -119 -18 -8 -18 -18 -33 -22
-33 -10 0 -9 109 0 167 9 53 96 153 135 153 13 0 51 -18 83 -40 80 -54 122
-55 174 -2 38 38 59 95 46 128 -8 20 -26 8 -26 -18 0 -30 -35 -83 -65 -96 -30
-14 -46 -9 -110 39 -80 59 -123 62 -180 13 l-30 -26 -3 31 c-3 24 -22 47 -98
112 -52 45 -92 84 -89 87 2 3 27 -5 54 -17 29 -12 71 -21 100 -21 42 0 56 5
85 30 38 34 51 66 61 149 3 30 10 62 16 72 16 31 169 143 253 185 44 22 82 42
83 42 2 1 27 -13 56 -32z m-3973 -48 c-1 -25 -46 -66 -100 -93 -50 -25 -59
-27 -98 -16 -54 14 -62 14 -62 -3 0 -17 59 -46 93 -46 39 0 40 -14 4 -52 -25
-28 -45 -38 -90 -48 -50 -10 -61 -9 -83 5 -14 9 -29 27 -34 41 -12 29 -30 23
-30 -10 0 -28 39 -72 77 -87 16 -6 50 -8 79 -4 74 9 113 -10 142 -68 19 -38
23 -67 29 -190 6 -144 6 -145 -16 -152 -58 -18 -109 13 -126 75 -15 58 -29 82
-57 96 -25 13 -37 14 -79 3 -65 -17 -82 -7 -91 56 -8 59 -3 70 25 50 12 -8 33
-15 47 -15 44 0 117 57 97 76 -2 3 -22 -4 -43 -15 -49 -26 -78 -19 -105 26
-41 66 -92 71 -181 19 -25 -14 -55 -26 -67 -26 -27 0 -81 30 -81 45 0 6 33 21
73 32 116 35 214 107 327 241 l45 52 120 9 c180 12 185 12 185 -1z m-814 -369
c73 -77 150 -88 234 -34 30 19 60 35 67 35 18 0 33 -60 31 -129 -2 -59 1 -66
27 -89 26 -22 35 -24 92 -19 72 7 73 6 88 -80 l7 -43 -61 0 c-60 0 -61 0 -80
38 -40 78 -85 98 -156 71 -28 -10 -56 -19 -63 -19 -7 0 -24 25 -38 55 -14 30
-41 66 -59 80 -60 45 -75 26 -25 -31 16 -19 34 -52 40 -75 13 -48 50 -89 81
-89 12 0 44 8 71 18 l50 17 24 -28 c13 -16 22 -32 19 -36 -2 -5 -42 -11 -87
-14 l-83 -7 -85 -90 c-47 -50 -93 -90 -102 -90 -10 0 -26 16 -38 39 -10 22
-35 52 -55 68 l-35 29 41 54 c54 72 74 86 105 72 15 -7 25 -8 29 -2 9 14 -3
30 -31 41 -37 14 -83 -10 -132 -69 -44 -52 -109 -87 -143 -77 -10 3 -32 24
-49 45 -46 58 -81 61 -175 16 -122 -59 -124 -49 -19 81 80 98 159 174 208 200
28 15 31 14 48 -7 10 -12 18 -30 18 -39 0 -34 22 -93 42 -113 14 -14 27 -18
46 -13 31 7 82 52 82 72 0 18 -6 17 -41 -9 -42 -31 -60 -16 -75 58 -6 32 -14
66 -18 75 -4 10 -2 20 6 25 10 6 134 40 159 43 3 1 18 -13 35 -30z m1872 -94
c6 -6 6 -146 1 -349 -4 -187 -13 -745 -19 -1240 -7 -496 -13 -902 -15 -904 -6
-7 -833 -15 -859 -8 l-29 7 7 137 c3 75 13 594 21 1152 9 558 18 1061 21 1118
l6 104 429 -4 c268 -2 431 -7 437 -13z m-2213 -322 l42 -47 69 2 c46 1 75 -3
90 -13 20 -13 84 -129 84 -152 0 -5 -18 -26 -39 -47 l-40 -39 -37 18 c-33 15
-46 16 -96 7 -33 -6 -66 -8 -74 -5 -18 7 -17 36 1 88 29 79 14 115 -56 135
-49 14 -56 -3 -9 -24 46 -20 48 -30 20 -104 -27 -69 -25 -98 6 -129 24 -24 30
-25 94 -19 72 6 100 1 100 -18 0 -6 -34 -49 -76 -96 -122 -137 -105 -127 -154
-91 -50 36 -85 39 -140 11 -70 -36 -107 -18 -89 44 18 62 11 102 -22 130 -31
26 -69 35 -69 16 0 -6 11 -15 25 -20 31 -12 42 -52 25 -99 -20 -55 -15 -93 15
-118 31 -27 96 -30 135 -8 14 8 34 14 46 15 23 0 68 -43 63 -59 -8 -22 -172
-201 -185 -201 -23 0 -214 412 -214 462 0 11 14 47 32 80 27 51 34 58 52 52
12 -4 48 -8 80 -8 64 -1 67 -3 85 -73 15 -56 54 -100 100 -114 32 -10 43 -8
79 10 23 12 42 29 42 37 0 12 -5 14 -17 8 -10 -4 -36 -9 -58 -12 -54 -5 -90
29 -100 96 -14 91 -47 122 -116 108 -33 -6 -69 8 -69 27 0 7 18 40 40 73 l39
62 48 -1 c36 -1 62 7 103 30 78 44 96 42 145 -14z m1189 -199 c18 -17 19 -24
10 -48 -5 -14 -33 -16 -208 -16 l-202 0 -27 28 c-49 51 -45 52 192 52 186 0
222 -2 235 -16z m-532 -111 c106 -126 279 -338 391 -481 71 -91 97 -131 97
-152 0 -16 -4 -31 -9 -34 -5 -3 -112 115 -238 262 -127 147 -251 290 -275 317
l-46 50 -22 -20 c-27 -24 -337 -365 -463 -509 -49 -56 -93 -102 -98 -104 -5
-2 -9 12 -9 31 0 27 10 46 43 83 62 70 444 529 492 591 22 29 45 52 52 53 6 0
45 -39 85 -87z m4327 25 c44 -87 136 -109 237 -57 22 11 63 26 92 34 50 13 55
12 73 -6 15 -15 17 -23 8 -46 -70 -185 -92 -233 -106 -233 -9 0 -37 23 -63 52
-51 57 -55 58 -176 43 -58 -7 -61 -6 -82 20 -13 16 -22 42 -22 61 0 43 -26 46
-35 4 -8 -37 19 -95 57 -124 29 -21 68 -24 135 -12 40 8 44 7 70 -25 16 -18
42 -47 60 -64 l31 -30 -41 -80 c-38 -73 -46 -81 -85 -95 -61 -21 -79 -8 -101
77 -13 48 -48 73 -100 73 -48 0 -130 20 -146 37 -8 8 -15 32 -15 54 0 43 -14
52 -24 17 -12 -46 -6 -84 17 -105 23 -22 114 -53 156 -53 34 0 61 -27 61 -62
0 -53 43 -107 85 -108 39 -1 48 -14 32 -47 -32 -62 -38 -61 -139 19 -51 41
-152 120 -225 176 l-131 101 -7 83 c-4 46 -5 100 -3 121 l3 39 52 3 c70 5 96
21 180 110 61 64 77 76 100 73 22 -2 33 -13 52 -50z m-3795 -54 c17 -7 23 -88
8 -98 -5 -3 -61 -6 -125 -7 l-116 -2 -44 49 c-25 27 -43 52 -40 57 5 8 294 10
317 1z m2132 -169 c49 -38 454 -502 454 -521 0 -9 -16 -35 -36 -57 l-37 -40 4
-370 4 -371 -92 -1 c-62 -2 -94 1 -95 9 0 6 -2 160 -2 341 -1 288 -4 337 -19
383 -22 64 -77 128 -132 153 -48 22 -151 25 -198 5 -42 -17 -92 -67 -120 -120
-21 -40 -22 -53 -27 -406 l-5 -365 -92 -3 -92 -3 2 365 2 366 -44 44 -43 44
104 123 c153 184 403 449 422 449 5 0 24 -11 42 -25z m-2118 -29 c5 -26 -15
-35 -76 -35 -40 1 -60 7 -79 23 -15 13 -24 27 -21 32 4 5 44 7 89 4 72 -4 84
-8 87 -24z m-515 -103 c243 -272 364 -408 405 -455 l42 -50 0 -444 0 -444
-165 0 -165 0 0 385 c0 408 -5 460 -47 533 -50 88 -163 136 -263 112 -76 -18
-123 -58 -162 -137 l-33 -68 -3 -412 -3 -413 -154 0 c-117 0 -155 3 -156 13
-1 6 0 203 1 437 l2 425 26 31 c15 18 126 144 247 280 121 137 235 268 254
292 19 23 40 42 47 42 7 0 64 -57 127 -127z m520 -25 c3 -24 2 -47 -2 -51 -8
-8 -81 71 -81 87 0 3 17 6 39 6 38 0 38 -1 44 -42z m3317 -183 c52 -42 123
-94 158 -117 34 -23 62 -45 62 -50 0 -4 -82 -8 -182 -9 -101 0 -284 -4 -408
-8 -124 -4 -230 -6 -236 -4 -14 5 -217 233 -212 238 5 5 430 21 598 23 l125 2
95 -75z m-1685 45 c9 -15 -143 -209 -169 -215 -11 -3 -95 -4 -186 -3 l-165 3
-3 99 c-2 64 1 103 9 112 9 11 59 14 260 14 154 0 250 -4 254 -10z m525 -229
c39 -20 74 -66 91 -120 15 -49 22 -387 12 -606 l-8 -180 -190 0 -190 0 -8 345
c-6 236 -6 364 2 404 11 64 46 126 86 152 55 36 138 38 205 5z m-2710 -52 c89
-50 104 -148 94 -622 l-7 -327 -191 2 -191 3 -3 404 -2 404 24 52 c23 51 71
97 111 108 39 11 125 -2 165 -24z m2059 -90 l34 -31 -7 -381 c-5 -278 -10
-384 -19 -389 -7 -4 -99 -8 -204 -8 l-193 0 0 420 0 420 178 0 178 0 33 -31z
m1899 19 c6 -8 11 -158 13 -403 l4 -390 -399 -8 c-219 -4 -402 -4 -407 0 -9 9
-27 780 -19 794 4 5 141 10 305 12 165 1 343 3 396 5 68 1 100 -2 107 -10z
m-1588 -773 c0 -12 -17 -15 -95 -15 -87 0 -107 5 -88 23 3 4 46 7 95 7 72 0
88 -3 88 -15z m688 3 c-3 -9 -34 -14 -96 -16 -77 -2 -92 0 -92 13 0 12 16 15
96 15 72 0 95 -3 92 -12z m-138 -73 c0 -13 -38 -15 -284 -15 -254 0 -327 6
-284 23 7 3 138 6 291 6 240 1 277 -1 277 -14z m169 -42 c23 -31 41 -60 41
-65 0 -5 -15 -8 -32 -6 -27 2 -39 13 -70 58 -20 30 -34 58 -32 62 3 5 16 8 29
8 18 0 35 -15 64 -57z m-819 39 c0 -5 -18 -37 -40 -70 -34 -54 -44 -62 -71
-62 -36 0 -36 -2 16 78 33 51 45 62 68 62 15 0 27 -4 27 -8z m704 -94 c5 -9 8
-19 5 -22 -3 -3 -161 -9 -352 -12 -309 -6 -347 -6 -347 8 0 40 43 44 449 44
209 -1 235 -3 245 -18z"/>
<path d="M3432 4805 c-17 -14 -41 -47 -54 -73 -21 -43 -23 -63 -26 -235 -2
-103 -1 -198 2 -212 l7 -26 117 3 117 3 0 210 c0 235 -9 282 -66 330 -38 32
-60 32 -97 0z m88 -80 c12 -24 15 -71 15 -220 l0 -190 -60 0 -60 0 -3 155 c-3
158 5 222 35 266 21 33 53 28 73 -11z"/>
<path d="M4840 3850 c-55 -26 -105 -72 -133 -125 -18 -32 -22 -56 -22 -125 1
-95 12 -124 73 -192 48 -53 102 -78 172 -78 86 0 130 16 180 69 106 109 106
285 0 391 -75 75 -185 99 -270 60z m178 -69 c94 -48 134 -151 101 -262 -28
-92 -106 -138 -211 -126 -154 19 -222 222 -115 344 18 20 45 42 62 49 44 19
120 17 163 -5z"/>
<path d="M3380 3644 c-80 -35 -123 -106 -124 -205 0 -53 5 -74 27 -111 94
-162 339 -126 376 54 22 103 -27 219 -109 260 -43 22 -122 23 -170 2z m159
-71 c85 -63 80 -222 -8 -268 -60 -30 -154 -11 -186 39 -40 60 -36 157 8 205
49 53 132 63 186 24z"/>
<path d="M3255 2913 c-50 -50 -58 -84 -63 -268 -5 -199 -7 -194 89 -199 114
-5 109 -14 109 186 0 192 -8 238 -50 280 -35 35 -50 35 -85 1z m65 -69 c6 -15
9 -95 8 -183 l-3 -156 -35 0 -35 0 0 150 c0 154 12 215 41 215 8 0 19 -12 24
-26z"/>
<path d="M3585 2907 c-18 -18 -38 -51 -43 -73 -16 -61 -26 -338 -13 -361 8
-17 23 -22 78 -25 119 -8 113 -19 113 197 0 203 -6 235 -55 273 -36 29 -41 28
-80 -11z m66 -59 c13 -25 25 -281 15 -322 -6 -24 -11 -27 -44 -24 l-37 3 -3
125 c-3 121 8 201 30 227 15 19 26 16 39 -9z"/>
<path d="M3407 2201 c-57 -64 -67 -114 -67 -347 0 -191 1 -204 19 -214 28 -14
184 -13 199 2 9 9 12 74 12 233 0 248 -9 295 -62 340 -41 34 -60 32 -101 -14z
m75 -38 c30 -33 38 -97 38 -286 l0 -188 -62 3 -63 3 0 165 c1 187 7 242 35
288 23 37 31 39 52 15z"/>
<path d="M4842 2738 c-232 -241 -342 -363 -340 -378 8 -39 41 -18 160 103 149
150 195 179 281 180 90 1 127 -23 258 -165 63 -68 120 -124 127 -126 16 -4 42
16 42 32 0 22 -398 456 -418 456 -6 0 -55 -46 -110 -102z"/>
<path d="M5990 2183 c-35 -2 -69 -8 -76 -14 -8 -7 -10 -59 -7 -187 2 -97 6
-187 9 -200 4 -22 7 -23 111 -20 l107 3 8 30 c10 33 0 356 -12 374 -8 15 -56
19 -140 14z m103 -103 c4 -30 6 -102 5 -160 l-3 -105 -66 -3 -66 -3 -6 152
c-4 107 -3 157 5 166 8 10 29 13 67 11 l56 -3 8 -55z"/>
<path d="M5592 2168 c-17 -17 -17 -368 1 -391 10 -15 27 -17 112 -15 l100 3 3
194 c2 134 -1 198 -9 207 -15 18 -189 20 -207 2z m173 -160 c4 -68 5 -139 3
-158 l-3 -35 -65 0 -65 0 -3 158 -3 157 65 0 64 0 7 -122z"/>
</g>
</svg>
