<?xml version="1.0" standalone="no"?>
<!DOCTYPE svg PUBLIC "-//W3C//DTD SVG 20010904//EN"
 "http://www.w3.org/TR/2001/REC-SVG-20010904/DTD/svg10.dtd">
<svg version="1.0" xmlns="http://www.w3.org/2000/svg"
 width="850.000000pt" height="850.000000pt" viewBox="0 0 850.000000 850.000000"
 preserveAspectRatio="xMidYMid meet">
<metadata>
Created by potrace 1.14, written by Peter Selinger 2001-2017
</metadata>
<g transform="translate(0.000000,850.000000) scale(0.100000,-0.100000)"
fill="#000000" stroke="none">
<path d="M431 8493 c0 -5 37 -37 82 -73 219 -176 337 -418 325 -670 -5 -110
-15 -124 -53 -75 -15 20 -60 61 -101 91 -40 30 -78 64 -84 75 -19 35 -40 112
-40 149 -1 48 -24 176 -42 227 -25 69 -68 135 -136 206 -64 66 -86 76 -127 61
-14 -6 -14 -8 3 -20 16 -11 20 -31 25 -141 6 -128 28 -244 65 -341 11 -28 17
-53 15 -56 -6 -5 -84 24 -141 53 -32 16 -41 28 -56 76 -27 88 -43 153 -56 243
-7 45 -16 82 -20 82 -3 0 -13 -11 -20 -25 -11 -21 -11 -40 4 -128 10 -56 22
-110 28 -120 5 -10 8 -28 6 -40 -3 -20 -8 -18 -55 27 l-53 49 0 -42 c0 -22 4
-41 9 -41 4 0 31 -18 58 -39 45 -36 153 -96 217 -121 30 -11 35 -30 8 -30 -31
0 -143 -40 -220 -78 l-72 -36 0 -51 c0 -49 1 -50 37 -63 81 -28 121 -34 198
-29 64 4 99 13 178 45 105 44 202 67 246 57 50 -11 141 -123 141 -172 0 -39
-112 -246 -215 -398 -60 -88 -137 -202 -172 -254 -35 -52 -65 -96 -67 -99 -2
-2 -36 20 -75 50 -63 47 -253 168 -266 168 -3 0 -5 -12 -4 -27 0 -24 9 -32 62
-58 64 -31 198 -126 231 -163 19 -22 19 -23 -17 -100 -76 -163 -93 -244 -78
-376 11 -107 23 -253 42 -559 18 -279 -3 -433 -83 -592 -30 -61 -122 -165
-145 -165 -8 0 -13 -13 -13 -35 l0 -36 44 30 c83 58 161 169 201 285 32 97 45
199 45 356 0 151 -3 203 -36 613 -21 264 -16 292 77 480 24 48 85 149 136 225
309 456 321 478 375 635 28 81 32 108 36 229 3 109 1 153 -14 210 -43 177
-115 297 -264 442 -88 84 -104 96 -135 96 -19 0 -35 -3 -34 -7z m-53 -128 c74
-84 114 -187 131 -342 7 -56 16 -115 21 -132 5 -17 5 -32 2 -35 -4 -2 -26 5
-49 15 -30 12 -48 29 -61 56 -27 53 -58 154 -77 243 -16 82 -20 230 -6 230 5
0 23 -16 39 -35z m126 -552 c33 -14 68 -32 76 -40 12 -11 11 -13 -8 -13 -13 0
-82 -23 -154 -51 -118 -46 -138 -50 -213 -50 -64 -1 -92 4 -130 22 l-48 23 24
19 c38 30 108 63 184 85 135 40 187 41 269 5z"/>
<path d="M650 8495 c0 -3 20 -31 43 -62 24 -32 68 -94 97 -138 81 -121 157
-211 190 -225 25 -10 34 -9 62 7 33 19 41 34 92 174 19 52 114 222 127 227 22
9 6 22 -26 22 -19 0 -35 -5 -35 -10 0 -6 -20 -46 -44 -88 -24 -42 -59 -117
-77 -167 -34 -93 -53 -125 -75 -125 -27 0 -110 108 -273 353 -19 28 -31 37
-53 37 -15 0 -28 -2 -28 -5z"/>
<path d="M1374 8451 c-59 -65 -128 -168 -149 -221 -9 -25 -27 -85 -39 -134
l-22 -89 -47 -12 c-26 -7 -57 -20 -68 -31 -80 -71 -91 -322 -24 -533 13 -41
22 -78 19 -83 -3 -4 -22 -8 -42 -8 -72 -1 -173 -65 -208 -132 -9 -17 -14 -57
-14 -106 0 -84 -14 -113 -62 -127 -42 -12 -84 -34 -101 -52 -31 -36 -49 -94
-42 -140 6 -38 2 -50 -24 -91 -68 -106 -116 -250 -141 -421 -14 -96 -25 -502
-16 -565 6 -35 16 -58 37 -79 27 -26 35 -29 75 -24 l45 5 29 -59 c31 -60 36
-88 21 -105 -4 -5 -48 -110 -96 -234 -100 -257 -145 -352 -220 -465 -71 -107
-197 -230 -263 -256 -16 -6 -22 -17 -22 -39 l0 -30 38 21 c102 58 201 151 277
264 55 81 147 263 194 385 18 47 37 94 41 105 4 11 27 68 50 128 23 59 45 107
49 107 4 0 20 -14 37 -31 16 -17 59 -51 97 -76 45 -30 69 -53 74 -71 11 -47
-16 -111 -100 -235 -173 -257 -224 -362 -248 -519 -28 -180 19 -304 180 -474
80 -85 151 -185 199 -279 l30 -60 -20 -25 c-11 -14 -41 -47 -67 -75 -130 -139
-260 -301 -300 -373 -8 -13 -16 -12 -62 10 -73 35 -123 48 -191 48 -56 0 -59
1 -82 38 -38 61 -144 142 -186 142 -18 0 -11 -50 8 -56 63 -21 119 -70 154
-137 16 -33 21 -59 21 -117 -1 -65 -6 -88 -43 -175 -37 -87 -42 -110 -43 -175
-1 -67 3 -82 33 -138 37 -69 101 -133 168 -165 23 -12 41 -26 39 -32 -2 -5
-39 -13 -83 -16 -87 -7 -148 -29 -208 -78 -21 -17 -43 -31 -47 -31 -5 0 -9
-19 -9 -42 l0 -41 46 47 c62 62 137 96 213 96 67 0 120 16 182 56 61 38 140
44 198 15 51 -26 87 -60 129 -122 28 -42 30 -50 20 -80 -6 -19 -13 -40 -14
-47 -5 -20 -107 -63 -178 -75 -51 -9 -94 -6 -245 12 -163 21 -191 22 -267 10
-83 -12 -84 -13 -84 -41 0 -15 1 -28 3 -28 1 0 24 7 51 15 63 19 156 19 282 0
188 -28 327 -17 420 36 19 10 40 19 46 19 16 0 88 -76 88 -92 0 -17 -79 -100
-155 -163 -33 -28 -62 -52 -65 -55 -3 -3 -34 -28 -70 -54 -123 -93 -215 -118
-293 -81 -19 9 -71 49 -116 89 -75 69 -114 94 -169 111 -19 6 -22 3 -22 -24 0
-26 4 -31 23 -31 31 0 90 -40 166 -113 64 -61 67 -67 51 -95 -14 -26 -47 -148
-60 -227 -13 -78 -8 -340 8 -415 18 -82 49 -184 75 -247 60 -145 206 -349 318
-443 167 -140 284 -281 256 -309 -8 -8 2 -11 41 -11 51 0 52 0 33 19 -11 11
-27 35 -35 53 -25 51 -98 133 -217 241 -129 117 -185 178 -243 265 -114 174
-174 341 -197 556 -19 168 3 337 63 499 10 26 13 27 57 22 74 -10 73 -7 36
-88 -47 -102 -82 -227 -94 -342 -34 -298 90 -563 376 -805 210 -178 356 -353
337 -404 -5 -14 4 -16 70 -16 62 0 74 3 70 15 -22 57 161 409 281 540 l36 40
-5 -80 c-5 -81 -30 -188 -61 -260 -9 -22 -49 -72 -88 -111 -40 -39 -88 -87
-106 -107 l-35 -37 48 0 c37 0 47 3 43 14 -3 8 21 39 58 76 50 50 72 64 106
70 45 8 121 0 194 -22 77 -23 184 -93 185 -120 0 -15 9 -18 50 -18 l50 0 -63
58 c-35 31 -86 69 -113 84 -54 29 -183 68 -226 68 -16 0 -28 3 -28 8 1 19 205
126 311 162 l65 22 45 -22 c56 -29 141 -95 198 -154 53 -54 57 -47 -74 -160
-16 -15 -48 -35 -70 -46 l-40 -20 72 0 c54 0 71 3 68 13 -5 11 92 104 100 96
1 -2 8 -22 14 -44 9 -34 8 -42 -6 -53 -14 -10 37 -12 263 -10 l279 3 -237 2
-237 3 -10 38 c-27 109 -28 104 49 224 142 221 234 444 283 685 26 126 61 208
145 338 86 134 227 286 265 285 7 0 20 -19 31 -41 27 -60 111 -139 194 -182
l72 -38 -15 -28 c-66 -128 14 -274 164 -300 19 -3 36 -11 38 -17 2 -5 -22 -36
-52 -67 -42 -42 -83 -71 -158 -108 -188 -95 -321 -203 -409 -332 -84 -124
-113 -225 -105 -363 4 -66 2 -94 -6 -98 -7 -2 12 -5 42 -5 46 -1 52 1 38 12
-24 18 -38 125 -26 195 20 112 28 118 48 35 14 -60 48 -136 85 -188 11 -16 20
-36 18 -42 -2 -10 21 -13 93 -13 77 0 95 3 95 15 0 19 99 69 212 106 130 42
132 42 125 -27 -3 -31 -11 -62 -16 -67 -20 -20 -11 -27 31 -27 29 0 39 3 32
10 -7 7 -8 30 -2 68 12 72 2 175 -24 255 -11 34 -52 127 -91 207 -84 172 -91
218 -42 253 17 12 53 43 82 70 l52 49 14 -29 c36 -68 101 -103 194 -103 l69 0
60 -63 c133 -137 270 -324 381 -519 59 -105 79 -164 61 -185 -8 -11 61 -13
368 -11 l379 3 -335 2 c-301 3 -336 5 -347 20 -30 40 -6 95 133 309 99 153
173 248 300 387 l53 57 71 0 c107 0 188 51 205 130 4 16 10 30 14 30 13 0 130
-122 177 -183 25 -34 57 -83 70 -108 27 -54 26 -54 -53 -87 -29 -11 -73 -35
-97 -52 -95 -65 -125 -136 -133 -318 -4 -89 -11 -134 -23 -158 l-18 -34 157 2
156 2 -120 6 c-113 5 -120 6 -117 25 1 11 7 82 12 159 13 211 47 264 210 330
35 14 65 26 66 26 1 0 8 -17 16 -37 8 -24 13 -86 13 -168 0 -105 -5 -147 -24
-220 -13 -50 -30 -98 -39 -107 -14 -17 -10 -18 81 -18 73 0 96 3 99 14 2 7 38
50 80 95 56 60 83 81 102 81 43 0 137 28 205 62 36 18 70 34 75 36 27 13 -73
-212 -113 -255 -29 -30 -27 -33 20 -33 25 0 38 4 34 10 -4 6 -2 16 3 23 26 34
74 135 95 204 54 171 59 314 17 480 l-21 81 25 89 c42 148 75 332 94 523 l7
75 35 2 c184 12 367 50 494 103 l69 29 -9 -77 c-15 -134 -10 -435 9 -561 23
-143 66 -312 113 -438 35 -97 41 -111 84 -208 25 -55 27 -77 11 -117 -13 -33
-76 -104 -145 -161 l-50 -42 -410 -5 -411 -5 453 -3 c388 -2 452 0 452 12 0 8
24 36 53 61 30 25 64 63 78 85 13 22 27 40 30 40 6 0 46 -120 51 -155 1 -11
-1 -26 -5 -32 -6 -10 3 -13 34 -13 32 0 39 3 31 13 -5 6 -15 35 -21 62 -6 28
-14 61 -17 74 -10 36 9 20 66 -56 39 -51 47 -69 39 -79 -9 -12 -2 -14 42 -14
44 1 51 3 38 13 -8 7 -34 39 -56 72 -22 34 -77 101 -122 150 -92 101 -127 166
-190 349 -91 263 -116 426 -115 731 2 279 10 325 64 338 234 59 424 158 573
297 l68 63 47 -44 c25 -24 49 -46 52 -49 61 -59 215 -162 315 -209 122 -58
193 -82 303 -101 39 -7 72 -16 72 -20 0 -4 -12 -35 -26 -71 -47 -112 -74 -228
-75 -314 -1 -121 -20 -163 -99 -221 -102 -74 -229 -185 -302 -262 -69 -74 -98
-134 -98 -207 0 -54 30 -147 72 -224 23 -42 52 -96 66 -121 13 -25 40 -68 58
-96 19 -28 34 -54 34 -57 0 -4 -141 -8 -312 -10 -198 -1 -148 -2 137 -3 248 0
405 2 350 3 -88 3 -102 6 -118 25 -20 24 -18 27 36 57 92 52 115 65 157 94
128 88 226 227 244 345 5 32 20 60 56 103 27 33 53 58 57 57 5 -2 9 31 10 72
l2 75 -20 -44 c-22 -50 -86 -141 -99 -141 -5 0 -12 9 -15 20 -3 11 -12 26 -18
33 -24 25 -113 131 -135 161 -36 49 -53 120 -41 173 12 57 53 142 89 184 l26
32 20 -34 c12 -19 50 -68 86 -110 36 -41 75 -90 87 -109 l21 -35 0 63 c0 45
-4 62 -13 62 -17 0 -82 69 -126 133 -35 51 -36 67 -13 147 6 19 20 69 31 110
19 75 30 114 71 264 12 44 28 86 36 94 10 10 14 44 14 134 0 67 -2 119 -5 116
-3 -3 -16 -47 -29 -99 -14 -52 -57 -213 -96 -359 -40 -146 -75 -274 -78 -285
-2 -11 -17 -33 -32 -50 -15 -16 -34 -41 -43 -55 l-17 -24 0 39 c0 63 66 267
135 420 16 36 41 109 62 185 22 75 21 295 0 370 -9 30 -19 66 -22 80 -4 14
-10 34 -15 45 -49 124 -69 167 -119 256 -32 57 -105 176 -162 264 -255 389
-322 554 -368 905 -37 278 -49 360 -62 425 -44 212 -95 352 -171 463 -17 24
-28 45 -26 46 1 2 46 7 98 13 69 8 97 8 102 0 4 -6 21 -63 39 -127 111 -407
172 -536 307 -662 55 -50 165 -116 222 -133 84 -25 246 -123 269 -163 8 -13
10 -6 11 31 0 26 -4 47 -9 47 -5 0 -41 20 -81 44 -39 25 -119 63 -177 87 -57
23 -130 61 -162 84 -130 96 -230 281 -306 573 -14 53 -35 128 -47 165 -16 52
-18 71 -9 76 32 20 273 55 381 56 130 0 184 -12 280 -62 73 -38 101 -59 118
-88 10 -17 11 -12 12 33 0 40 -3 52 -15 52 -9 0 -32 10 -53 23 -167 104 -311
116 -628 56 -104 -20 -115 -20 -137 -6 -51 33 -71 129 -44 207 7 19 46 84 86
144 75 111 110 178 111 208 0 9 4 28 9 41 l10 25 73 -19 c105 -29 244 -28 322
1 73 28 139 87 173 155 31 62 61 95 79 88 11 -4 14 12 14 81 0 64 -3 86 -12
85 -7 -2 -29 4 -48 12 -72 32 -155 42 -233 31 -221 -34 -256 -36 -320 -23 -74
15 -148 50 -200 94 -36 31 -38 34 -31 75 4 24 12 49 19 55 6 7 74 30 151 51
144 39 290 92 300 107 11 18 56 8 98 -20 91 -63 141 -126 225 -281 l51 -95 0
73 c0 51 -4 72 -12 72 -7 0 -28 26 -46 58 -46 80 -122 163 -189 208 -32 20
-59 38 -61 39 -1 2 8 23 22 49 46 87 55 192 30 361 -5 36 -1 46 36 95 22 30
51 68 63 85 40 54 130 145 144 145 9 0 13 14 13 47 l0 47 -65 -64 c-36 -36
-96 -104 -132 -152 -37 -49 -70 -88 -74 -88 -15 0 -31 143 -24 213 14 149 30
204 81 280 67 101 176 234 197 240 13 4 17 16 17 59 l0 53 -18 -27 c-9 -14
-44 -57 -77 -95 -33 -37 -74 -87 -90 -110 -33 -47 -51 -56 -40 -20 14 43 18
326 6 390 -29 151 -81 283 -160 404 l-40 62 26 63 c43 107 38 103 86 64 23
-18 69 -47 103 -64 64 -32 172 -67 181 -59 13 13 -20 45 -59 57 -106 33 -232
112 -249 158 -11 28 -59 32 -59 4 0 -21 -28 -105 -55 -168 -15 -33 -35 -51
-107 -97 -49 -31 -93 -57 -98 -57 -16 0 -22 66 -18 204 3 134 3 136 -18 136
-20 0 -23 -7 -29 -70 -4 -38 -4 -125 0 -193 l7 -123 -70 -57 c-39 -31 -75 -57
-79 -57 -18 0 -133 169 -173 255 -33 71 -60 164 -60 208 0 34 -2 37 -28 37
l-29 0 13 -68 c29 -156 60 -216 228 -457 7 -9 -9 -34 -58 -86 -154 -168 -243
-331 -277 -506 -11 -61 -8 -250 6 -305 l7 -28 -68 0 c-104 0 -109 3 -139 78
-59 148 -150 278 -289 417 -150 150 -283 238 -472 314 -86 34 -126 68 -181
151 -47 72 -72 134 -104 259 -16 64 -39 142 -51 174 -20 50 -26 57 -50 57 -18
0 -28 -5 -28 -14 0 -16 -73 -64 -140 -90 -69 -28 -149 -45 -213 -46 l-58 0
-47 74 c-42 68 -50 75 -79 75 -39 1 -40 -2 -12 -32 11 -12 37 -47 57 -77 l37
-55 -1 -110 c-1 -103 -23 -228 -43 -248 -19 -19 -216 85 -296 156 l-50 45 18
29 c42 65 77 152 90 221 l14 72 -29 0 c-26 0 -28 -3 -28 -39 0 -63 -50 -190
-88 -224 -20 -18 -21 -18 -62 43 -52 77 -90 157 -90 193 0 24 -4 27 -31 27
-27 0 -30 -3 -24 -22 53 -184 159 -326 325 -438 54 -36 126 -73 204 -104 36
-15 38 -18 32 -49 -4 -17 -11 -54 -16 -82 -20 -112 -65 -237 -116 -325 -35
-60 -143 -170 -167 -170 -9 0 -17 14 -22 38 -10 56 -76 115 -146 130 -30 7
-69 9 -87 6 -29 -6 -38 -2 -74 32 -48 47 -168 187 -224 264 -83 113 -92 127
-134 195 -102 165 -113 192 -105 251 8 70 40 185 64 235 l19 39 -31 0 c-32 0
-32 -1 -59 -93 -15 -50 -32 -123 -39 -162 -13 -82 -17 -92 -84 -205 -82 -140
-217 -330 -307 -431 -69 -79 -109 -119 -117 -119 -5 0 -32 18 -60 40 -56 44
-142 154 -188 241 -79 146 -122 355 -102 499 11 75 20 94 86 176 18 23 33 44
33 48 0 3 -13 6 -29 6 -25 0 -37 -13 -103 -112 -80 -120 -105 -166 -215 -378
-173 -334 -270 -470 -422 -592 -67 -54 -176 -118 -201 -118 -5 0 5 21 24 48
31 44 58 105 70 162 4 17 24 36 63 60 81 49 250 220 312 314 28 43 88 151 132
240 99 195 151 286 190 330 16 19 29 36 29 40 0 3 -16 6 -35 6 -19 0 -35 -4
-35 -9 0 -5 -18 -36 -39 -68 -22 -33 -85 -149 -141 -258 -55 -109 -116 -221
-135 -249 -80 -121 -186 -231 -289 -300 -45 -30 -56 -32 -56 -10 0 9 -21 62
-47 118 -44 97 -46 105 -47 196 -1 147 4 160 82 221 112 88 194 184 251 296
27 54 26 63 -3 63 -17 0 -27 -9 -36 -32 -25 -63 -100 -166 -165 -227 -90 -83
-109 -95 -134 -82 -31 17 -54 13 -137 -20 -71 -28 -83 -30 -156 -23 -43 4 -78
10 -78 14 0 4 7 14 16 21 22 18 86 115 108 163 21 45 34 85 45 144 8 41 8 42
-19 42 -25 0 -28 -4 -33 -50 -8 -63 -63 -181 -116 -247 -25 -30 -77 -75 -129
-108 -48 -32 -113 -80 -144 -107 -57 -48 -57 -48 -69 -26 -18 33 -15 228 4
308 9 36 30 102 46 148 l30 82 -27 0 c-25 0 -29 -7 -60 -101 -18 -56 -40 -147
-48 -202 -15 -100 -13 -130 13 -277 l6 -35 -40 40 c-21 23 -54 45 -73 51 -38
11 -55 36 -87 134 -34 100 -45 176 -45 288 l0 102 -57 -1 c-54 -1 -58 -3 -97
-48z m109 -103 c3 -68 10 -136 15 -153 5 -16 16 -50 23 -75 7 -25 20 -63 30
-86 l17 -40 -117 -23 c-112 -23 -119 -23 -173 -7 -32 9 -60 21 -63 26 -3 5 -1
27 4 47 5 21 15 61 22 88 22 96 76 192 151 271 39 41 74 74 78 74 4 0 10 -55
13 -122z m4447 78 c0 -8 52 -203 71 -267 11 -36 37 -96 59 -133 22 -38 40 -72
40 -76 0 -8 -165 47 -280 92 -128 51 -244 138 -288 217 -27 48 -27 47 68 54
82 6 185 40 253 83 46 30 77 42 77 30z m-2590 -361 c14 -97 41 -186 85 -282
42 -90 81 -147 157 -228 39 -42 55 -66 47 -69 -8 -2 -27 -7 -44 -11 -68 -15
-135 -92 -135 -155 0 -36 0 -36 -62 -49 -34 -7 -80 -25 -103 -41 -79 -54 -106
-171 -60 -260 l16 -31 -44 -19 c-96 -43 -179 -119 -237 -216 -18 -30 -20 -31
-62 -24 -52 10 -94 26 -102 38 -3 5 6 19 20 31 37 32 57 87 50 135 -11 69 -67
130 -186 202 -103 62 -175 125 -168 146 2 6 22 18 44 27 123 49 273 169 381
303 69 87 177 269 273 458 41 80 83 161 94 180 l21 35 2 -45 c1 -25 7 -81 13
-125z m2314 11 c74 -47 156 -83 302 -132 40 -13 94 -34 120 -46 l49 -23 -115
-3 c-145 -4 -291 14 -480 59 -19 4 -48 11 -63 15 -23 5 -27 11 -22 28 23 77
34 139 35 196 l0 64 61 -63 c34 -35 85 -77 113 -95z m2356 4 c-19 -120 -62
-316 -82 -369 -9 -24 -10 -23 -32 20 -47 93 -91 146 -185 221 l-21 18 37 33
c37 33 170 128 248 179 l40 25 3 -26 c2 -14 -1 -60 -8 -101z m114 20 c40 -74
86 -194 86 -226 0 -15 -17 -32 -57 -57 -32 -20 -85 -58 -118 -86 -33 -27 -61
-49 -62 -47 -1 1 5 24 13 51 24 80 74 342 74 389 0 44 8 62 21 49 4 -5 23 -37
43 -73z m-5711 -58 c-85 -81 -192 -209 -249 -299 -69 -106 -154 -294 -184
-403 -12 -43 -31 -102 -35 -108 -2 -2 -21 4 -43 13 l-40 16 -11 82 c-5 45 -15
134 -21 197 -11 119 -27 240 -36 275 -7 29 101 140 206 212 72 49 115 58 213
44 87 -12 144 -2 207 34 14 8 36 14 50 15 22 0 14 -10 -57 -78z m1807 -217
c-22 -77 -112 -243 -159 -294 l-46 -49 -107 -6 c-60 -3 -108 -1 -108 4 0 5 35
48 78 97 124 142 208 259 326 453 l21 35 3 -100 c2 -55 -2 -118 -8 -140z m166
75 c85 -130 197 -276 283 -369 22 -25 38 -47 35 -50 -3 -3 -51 -5 -107 -3
l-102 3 -48 51 c-47 52 -121 189 -151 281 -17 50 -23 249 -8 232 5 -6 49 -71
98 -145z m-1910 75 c-10 -84 9 -174 57 -273 36 -76 42 -96 42 -152 -1 -109
-60 -205 -171 -276 -94 -60 -378 -134 -407 -105 -9 9 -6 32 11 102 44 169 132
359 237 509 58 82 210 250 227 250 7 0 8 -19 4 -55z m-1324 -75 c10 -59 24
-93 65 -158 39 -63 79 -103 200 -203 125 -104 209 -191 238 -248 31 -62 31
-72 1 -100 l-25 -23 -118 42 c-65 23 -174 60 -243 82 -69 22 -135 44 -147 49
-17 6 -29 31 -55 111 -31 97 -33 111 -33 253 0 136 2 154 22 192 13 23 31 44
40 46 37 10 47 2 55 -43z m93 25 c52 -18 134 -18 210 0 33 8 89 14 125 15 58
0 69 -3 102 -30 49 -41 73 -108 87 -250 6 -63 16 -153 21 -200 24 -218 24
-197 -4 -204 -13 -3 -30 -8 -38 -11 -10 -4 -24 13 -44 51 -38 74 -120 163
-254 274 -126 105 -182 165 -216 233 -21 41 -44 137 -33 137 2 0 22 -7 44 -15z
m6455 -26 c57 -40 122 -120 155 -192 41 -90 41 -111 1 -215 -48 -126 -108
-252 -116 -247 -3 2 -24 39 -46 82 -32 64 -61 100 -162 201 l-122 123 32 47
c52 78 190 232 206 232 4 0 27 -14 52 -31z m-2095 -33 c152 -33 329 -48 520
-44 l150 3 125 -62 c69 -35 157 -86 195 -115 90 -68 216 -194 283 -283 49 -66
132 -214 147 -262 8 -30 -15 -30 -87 -2 -103 40 -172 19 -227 -71 -127 -207
-81 -446 116 -601 91 -71 122 -149 59 -149 -46 0 -163 -47 -262 -106 -180
-107 -234 -128 -323 -129 -92 0 -102 6 -142 87 -48 95 -111 178 -202 265 -88
83 -159 133 -291 204 -93 49 -99 54 -124 107 -35 75 -113 150 -198 192 -38 19
-71 36 -73 37 -2 1 4 19 14 39 54 114 6 235 -111 280 -24 9 -44 18 -44 20 0 2
29 32 64 67 105 106 175 256 213 464 l18 95 30 -5 c16 -3 84 -16 150 -31z
m2629 -93 c3 -16 9 -69 12 -119 8 -112 1 -129 -61 -138 -61 -10 -151 -40 -230
-78 -36 -17 -68 -29 -70 -26 -3 3 8 43 25 89 26 75 36 90 92 142 60 55 201
157 218 157 4 0 10 -12 14 -27z m-3934 -92 c41 -84 78 -143 124 -195 14 -16
22 -34 19 -40 -4 -6 -31 -46 -60 -89 -30 -43 -69 -110 -88 -148 -20 -38 -39
-69 -43 -69 -4 0 -29 43 -55 95 -26 52 -68 121 -92 154 -25 32 -45 61 -45 64
0 3 16 25 36 49 47 56 92 127 128 205 16 35 31 61 33 59 2 -2 21 -40 43 -85z
m3198 -179 c83 -81 150 -172 182 -248 29 -66 26 -85 -18 -112 -33 -21 -49 -38
-110 -120 l-17 -23 -45 24 c-26 15 -71 28 -107 32 l-63 7 -11 41 c-30 110 -6
312 53 448 25 59 27 59 136 -49z m732 -58 c0 -20 -5 -55 -11 -78 -6 -22 -15
-58 -20 -78 -16 -61 -47 -71 -229 -72 -85 -1 -161 -5 -167 -9 -21 -14 -15 21
12 72 22 40 38 53 113 93 98 52 218 96 295 107 4 1 7 -15 7 -35z m-4467 -37
c126 -59 211 -153 302 -336 40 -80 125 -313 125 -342 0 -7 -30 28 -66 77 -159
215 -372 385 -562 449 -76 26 -84 40 -55 101 21 46 87 84 146 84 22 0 68 -14
110 -33z m1191 4 c38 -24 56 -58 56 -105 0 -31 -3 -34 -45 -45 -61 -15 -205
-92 -285 -151 -85 -63 -244 -227 -300 -310 -57 -83 -63 -63 -20 68 43 131 128
303 189 382 119 157 297 227 405 161z m-891 -43 c26 -35 74 -117 107 -184 l61
-120 -3 -140 -3 -139 -33 100 c-65 195 -179 394 -273 479 -28 25 -55 46 -61
46 -5 0 -6 5 -3 10 3 6 41 10 84 10 l78 0 46 -62z m587 55 c0 -5 -25 -30 -55
-56 -99 -87 -212 -283 -281 -487 -28 -83 -29 -84 -32 -45 -2 22 -2 87 0 145 3
97 6 111 41 180 48 98 79 150 129 216 l40 54 79 0 c44 0 79 -3 79 -7z m-3365
-183 c335 -115 329 -112 323 -151 -3 -22 -9 -25 -78 -30 -44 -4 -104 -18 -145
-34 -163 -63 -245 -70 -388 -35 -153 38 -161 42 -169 91 -9 50 4 106 31 141
21 26 91 65 131 71 60 11 161 -7 295 -53z m1197 -50 c33 -51 105 -108 186
-149 62 -31 129 -96 142 -137 17 -50 5 -99 -29 -124 -23 -16 -45 -20 -108 -20
-197 0 -446 85 -616 211 -67 49 -68 50 -61 87 9 48 21 62 53 62 82 0 290 58
353 99 18 11 36 21 40 21 4 0 22 -23 40 -50z m1111 5 c135 -55 317 -195 426
-329 66 -81 111 -145 111 -158 0 -5 -35 21 -77 58 -197 167 -409 234 -656 206
-96 -10 -103 -10 -122 9 -15 15 -20 33 -20 83 0 77 19 109 86 144 59 31 155
26 252 -13z m1587 9 c18 -10 42 -31 53 -46 28 -37 33 -114 10 -158 l-18 -35
-60 5 c-109 9 -269 5 -335 -10 -138 -29 -279 -105 -395 -213 -33 -30 -62 -53
-64 -51 -8 8 87 138 154 211 119 130 284 249 418 300 77 29 185 28 237 -3z
m-3271 -12 c51 -25 60 -79 29 -167 -19 -52 -37 -65 -88 -65 -33 0 -55 -6 -74
-21 -14 -11 -31 -17 -37 -13 -23 14 -89 128 -89 153 0 97 157 165 259 113z
m6267 -19 c-3 -10 -10 -61 -16 -113 -9 -77 -8 -114 5 -197 8 -57 15 -109 15
-117 0 -22 -115 -171 -191 -247 -119 -118 -264 -207 -368 -224 l-44 -7 6 28
c2 16 12 67 22 114 23 117 18 401 -10 475 -10 28 -18 60 -17 73 3 34 57 108
105 143 79 58 99 62 267 65 85 1 166 6 180 12 38 16 52 14 46 -5z m-1216 -126
l94 -32 24 -80 c55 -191 65 -223 88 -285 13 -36 49 -110 80 -165 87 -154 134
-271 122 -306 -2 -6 -24 -12 -48 -13 -36 -2 -55 5 -96 31 -56 37 -180 83 -225
83 -22 0 -29 5 -29 19 0 35 -28 87 -67 123 -21 19 -62 57 -91 83 -33 31 -64
71 -85 114 -30 61 -32 72 -32 171 0 99 2 110 33 172 35 72 81 118 115 118 12
-1 65 -15 117 -33z m-5357 -41 c27 -11 67 -53 67 -70 0 -2 -30 -21 -67 -42
-189 -104 -350 -239 -418 -348 -9 -14 -15 -15 -63 -2 -70 19 -97 37 -159 104
l-52 57 -108 0 c-118 1 -149 12 -171 61 -31 67 -1 122 87 161 31 14 66 34 79
46 22 20 23 20 78 3 132 -42 172 -49 274 -49 97 0 112 2 201 36 151 58 199 66
252 43z m5867 -22 c70 -41 108 -161 109 -347 2 -180 -31 -321 -96 -424 -53
-84 -62 -83 -75 9 -8 63 -44 145 -142 325 -24 44 -53 107 -65 140 -17 49 -91
305 -91 315 0 2 73 3 163 3 145 0 166 -2 197 -21z m-5436 -53 c145 -109 368
-195 563 -216 l63 -7 -5 -56 c-11 -115 -16 -135 -40 -166 -14 -18 -49 -46 -77
-62 -48 -26 -62 -29 -148 -29 -92 1 -113 5 -227 47 l-53 19 0 68 c0 113 -48
227 -147 349 -34 41 -34 44 -19 67 9 14 22 25 28 25 6 0 34 -17 62 -39z m1620
-12 c142 -37 184 -55 269 -112 62 -41 197 -163 197 -178 0 -5 -24 1 -52 13
-129 52 -176 61 -333 61 -139 1 -156 -1 -232 -27 l-82 -28 -53 54 c-76 78
-166 98 -268 59 -27 -11 -50 -16 -50 -11 0 4 21 26 46 50 50 46 148 96 227
115 65 16 276 19 331 4z m1531 -4 c81 -19 193 -76 234 -119 19 -20 32 -38 30
-40 -3 -3 -27 1 -54 9 -58 18 -105 19 -157 3 -43 -13 -128 -82 -128 -104 0
-20 -19 -18 -107 13 -71 24 -92 27 -223 27 -153 0 -213 -11 -332 -59 -32 -13
-58 -20 -58 -16 0 4 33 39 73 77 117 113 221 171 372 209 70 18 276 18 350 0z
m-3249 -79 c127 -166 157 -296 99 -422 -8 -16 -60 -79 -115 -140 -113 -122
-170 -218 -178 -304 -4 -48 -6 -50 -36 -50 -52 1 -152 26 -198 50 -87 45 -118
93 -135 209 -11 72 -15 64 73 120 84 53 172 142 232 234 60 92 88 163 109 272
9 44 17 86 19 93 3 9 17 12 41 10 32 -3 43 -11 89 -72z m-203 40 c20 -15 18
-45 -9 -141 -46 -158 -188 -337 -329 -414 -41 -23 -47 -23 -72 -10 -43 23
-101 82 -108 112 -4 15 -2 49 5 75 23 84 221 257 414 363 59 31 74 34 99 15z
m1541 -160 c43 -18 74 -51 97 -104 24 -55 24 -96 0 -147 -34 -73 -102 -115
-186 -115 -110 0 -184 73 -201 198 -7 60 6 93 50 127 69 53 171 70 240 41z
m2130 -3 c27 -10 66 -35 87 -55 32 -32 39 -45 39 -78 0 -88 -63 -193 -133
-219 -79 -30 -185 1 -241 72 -25 32 -30 46 -30 100 -2 153 124 235 278 180z
m-4750 -34 c28 -16 50 -20 113 -19 43 1 88 1 100 1 12 -1 42 -23 70 -52 58
-61 98 -86 169 -109 30 -9 54 -21 54 -26 -1 -5 -43 -56 -94 -114 -178 -202
-312 -374 -434 -557 -87 -129 -122 -166 -150 -156 -39 15 -41 32 -42 253 0
300 24 482 82 630 30 76 82 170 94 170 1 0 19 -9 38 -21z m2120 -5 c26 -15 71
-32 99 -38 l52 -11 8 -65 c20 -162 108 -252 251 -256 47 -1 71 -6 76 -15 4 -8
13 -65 21 -127 26 -227 -25 -483 -144 -717 -47 -92 -138 -230 -194 -294 l-39
-44 -28 56 c-78 161 -270 183 -407 47 -40 -40 -59 -68 -70 -103 -13 -47 -15
-48 -46 -42 -19 3 -47 0 -69 -10 -20 -8 -39 -14 -41 -12 -1 2 -10 54 -18 115
-37 285 -150 558 -274 664 -43 37 -115 78 -136 78 -40 0 -34 87 12 178 15 29
69 99 121 155 51 56 104 120 118 143 l24 41 103 -34 c82 -28 119 -35 187 -36
117 -2 179 20 245 87 57 57 75 103 75 188 0 30 5 59 12 66 15 15 7 17 62 -14z
m1053 -61 c67 -115 173 -391 230 -602 23 -83 26 -111 22 -206 -12 -341 21
-575 111 -771 39 -86 40 -84 -50 -148 -45 -33 -85 -55 -89 -50 -4 5 -14 43
-22 84 -10 56 -13 153 -12 385 4 420 -16 587 -96 820 -58 168 -154 353 -242
471 -22 28 -39 54 -39 57 0 4 36 7 80 7 l79 0 28 -47z m1043 42 c0 -3 -17 -29
-38 -58 -137 -187 -233 -397 -291 -632 -43 -177 -46 -217 -43 -555 2 -312 -5
-440 -30 -537 -6 -24 -14 -43 -18 -43 -17 0 -160 112 -160 125 0 8 11 38 24
67 92 205 133 467 115 720 -11 147 1 220 77 453 47 146 161 409 196 453 10 12
168 18 168 7z m3336 -20 c3 -14 5 -67 2 -118 -6 -149 -59 -234 -178 -283 -37
-16 -315 -96 -339 -98 -8 -1 -19 18 -27 44 -17 57 -17 60 1 60 24 0 139 55
201 96 76 51 207 177 269 258 27 36 53 66 57 66 4 0 10 -11 14 -25z m-4201
-20 c135 -50 232 -114 220 -144 -14 -33 -46 -161 -76 -296 -39 -181 -39 -179
-55 -120 -55 189 -123 372 -185 497 -22 43 -39 82 -39 88 0 14 58 4 135 -25z
m635 29 c0 -3 -15 -38 -34 -77 -64 -136 -94 -213 -141 -357 -75 -229 -66 -216
-87 -114 -18 86 -81 345 -92 374 -8 22 2 33 64 71 67 42 89 52 165 78 84 28
125 36 125 25z m-993 -84 c110 -152 215 -373 263 -555 51 -193 54 -229 55
-620 1 -351 6 -430 34 -550 6 -22 9 -40 8 -40 -1 -1 -15 -11 -32 -22 -63 -42
-143 -80 -190 -91 -227 -52 -512 -32 -775 54 -68 23 -253 115 -256 129 -2 6
16 22 40 36 28 17 54 45 72 75 15 27 44 67 64 89 180 197 302 423 366 679 33
131 44 389 21 506 -13 65 -13 76 -1 83 31 18 85 79 99 114 8 19 15 61 15 93
l0 58 48 20 c26 11 61 21 79 21 29 1 38 -7 90 -79z m1382 58 c51 -21 52 -22
46 -54 -3 -20 1 -57 11 -90 43 -148 225 -218 360 -139 72 42 110 104 123 200
8 62 14 61 128 -2 171 -96 321 -242 409 -399 32 -57 38 -79 46 -161 13 -149
66 -249 203 -387 74 -73 153 -134 222 -170 29 -15 32 -20 26 -49 -11 -55 -67
-180 -112 -247 -47 -69 -148 -180 -166 -180 -6 0 -19 19 -30 42 -27 57 -64 82
-121 83 l-45 0 -30 62 c-52 110 -160 177 -272 172 -43 -3 -49 0 -99 50 -131
131 -351 243 -560 285 -228 46 -350 46 -595 0 -31 -6 -33 -5 -33 23 0 32 22
182 39 272 39 199 168 477 304 659 46 60 64 64 146 30z m-3841 -253 c6 -14 29
-37 51 -52 22 -16 40 -32 40 -38 0 -5 -48 -48 -105 -95 -119 -96 -266 -246
-354 -361 -60 -80 -170 -254 -170 -272 0 -21 -30 17 -46 59 l-17 44 54 85
c117 187 492 655 523 655 7 0 18 -11 24 -25z m3115 -150 c19 -82 40 -184 47
-225 6 -41 17 -100 23 -130 15 -80 14 -391 -2 -475 -31 -161 -95 -365 -116
-365 -13 0 -57 112 -85 216 -50 192 -63 398 -35 594 25 180 32 221 65 365 37
161 47 192 59 179 5 -5 24 -76 44 -159z m2738 11 c60 -15 119 -39 161 -68 24
-17 26 -23 25 -86 0 -54 5 -77 26 -119 15 -28 31 -54 37 -58 26 -16 8 -43
-132 -193 -48 -51 -96 -107 -105 -124 -20 -33 -95 -75 -203 -114 -92 -34 -194
-33 -262 1 -132 67 -298 235 -352 358 -28 61 -50 167 -38 179 4 4 25 3 46 -3
76 -21 243 30 358 109 162 112 305 150 439 118z m-5710 -79 c13 -89 40 -136
104 -185 62 -47 126 -69 251 -85 137 -18 187 -41 261 -121 134 -142 226 -424
240 -729 l6 -138 -70 -69 c-134 -131 -360 -261 -531 -306 -79 -21 -92 -19 -92
14 0 79 -70 233 -166 368 -130 183 -277 319 -456 425 -104 61 -145 92 -182
136 l-26 30 29 54 c91 176 203 321 372 484 105 102 237 210 245 202 2 -2 9
-38 15 -80z m6264 62 c26 -21 27 -25 23 -104 -2 -67 -8 -92 -33 -140 -51 -99
-113 -125 -199 -84 -79 37 -133 144 -107 212 12 30 39 35 101 17 55 -16 92 2
134 65 20 30 40 55 45 55 4 0 21 -10 36 -21z m80 -314 c100 -83 249 -112 424
-84 183 30 316 13 372 -47 24 -25 24 -26 4 -40 -46 -33 -76 -69 -106 -124 -34
-64 -56 -88 -109 -117 -86 -48 -210 -54 -355 -16 l-70 19 -43 88 c-37 76 -57
103 -138 183 l-95 93 32 40 c18 22 34 40 36 40 3 0 24 -16 48 -35z m-285 -67
c22 -7 40 -16 40 -21 0 -4 -11 -34 -25 -67 -26 -62 -63 -172 -86 -255 -19 -67
-19 -307 -1 -355 59 -152 131 -246 257 -334 11 -8 17 -17 14 -21 -4 -3 -71 -6
-150 -7 -163 0 -221 12 -310 65 -64 38 -119 113 -119 162 0 18 8 53 18 77 31
71 33 102 12 180 -24 89 -24 119 -5 185 20 68 71 142 175 254 47 51 94 105
105 120 23 33 23 33 75 17z m176 -50 c131 -113 198 -214 210 -319 8 -76 -13
-132 -103 -267 -93 -139 -117 -198 -111 -269 3 -38 1 -53 -8 -53 -22 0 -122
120 -152 183 -44 90 -54 140 -54 252 1 117 28 235 93 397 22 56 43 106 45 110
10 16 33 7 80 -34z m-2421 -188 c125 -28 207 -56 299 -102 93 -46 208 -123
255 -172 l34 -35 -45 -43 c-78 -73 -97 -157 -57 -243 21 -45 64 -89 106 -108
13 -6 22 -15 20 -21 -9 -28 -260 -137 -377 -164 -116 -27 -143 -32 -254 -43
-89 -8 -148 -8 -240 0 -159 15 -208 29 -306 87 -66 40 -81 52 -77 69 34 145
37 189 37 471 l0 292 73 16 c112 24 122 25 287 21 109 -3 182 -10 245 -25z
m1840 -152 c-17 -83 -17 -109 4 -176 26 -88 26 -90 -4 -179 -37 -107 -25 -161
56 -240 53 -53 133 -91 232 -111 47 -9 77 -20 77 -28 0 -7 -27 -39 -59 -73
-162 -164 -313 -171 -593 -30 -129 65 -358 238 -358 270 0 5 33 42 73 82 114
112 189 238 230 382 l14 50 75 7 c73 7 155 30 214 61 43 22 47 20 39 -15z
m-4210 -222 c51 -39 75 -82 75 -136 0 -83 -72 -160 -158 -167 -55 -5 -124 25
-156 69 -25 35 -33 124 -16 184 11 39 19 49 54 66 61 28 152 21 201 -16z
m3153 18 c45 -18 62 -46 69 -121 8 -74 -17 -136 -67 -169 -77 -51 -163 -41
-224 26 -79 87 -50 217 59 266 41 18 116 17 163 -2z m-4936 -43 c41 -31 128
-111 171 -158 l28 -30 -21 -64 c-12 -35 -31 -76 -42 -92 l-21 -29 -38 102
c-21 57 -59 145 -84 197 -25 52 -45 97 -45 99 0 10 18 1 52 -25z m-43 -103
c54 -118 105 -248 99 -254 -3 -3 -26 9 -50 25 -51 35 -167 91 -186 91 -26 0
-23 30 7 74 17 25 43 68 57 96 14 27 27 50 30 50 2 0 22 -37 43 -82z m5130
-50 c25 -137 -53 -303 -185 -400 -58 -42 -211 -124 -219 -116 -3 2 13 25 36
49 66 71 112 161 128 249 5 30 12 37 51 51 94 35 160 122 160 213 0 46 17 19
29 -46z m-3615 14 c11 -85 70 -152 157 -181 32 -10 38 -18 49 -59 19 -75 75
-182 125 -239 26 -29 42 -53 36 -53 -6 0 -52 21 -103 47 -212 109 -334 303
-299 476 7 31 16 57 20 57 5 0 11 -22 15 -48z m-96 -49 c5 -10 12 -45 16 -77
17 -151 139 -302 320 -398 l81 -43 -83 -3 c-76 -3 -87 0 -140 28 -138 76 -261
200 -310 313 -24 55 -13 138 22 173 28 27 82 31 94 7z m3846 6 c14 -7 33 -28
42 -47 56 -119 -89 -332 -308 -452 -53 -28 -64 -31 -140 -28 l-83 3 85 45
c187 99 320 278 320 432 0 57 27 73 84 47z m-4927 -126 c93 -126 146 -236 164
-347 9 -56 9 -60 -22 -107 -38 -59 -108 -123 -169 -154 -48 -24 -146 -52 -155
-44 -2 3 2 46 9 95 22 139 28 262 16 347 -9 76 -9 80 15 111 14 18 38 62 55
99 17 37 32 67 34 67 2 0 26 -30 53 -67z m-447 7 c94 -38 211 -117 229 -156
23 -45 26 -221 6 -349 -9 -60 -19 -113 -23 -117 -4 -4 -24 8 -44 27 -79 75
-282 194 -401 236 -37 13 -38 15 -32 49 13 73 157 340 183 340 4 0 41 -14 82
-30z m3483 -27 c35 -27 76 -57 92 -69 l29 -21 -35 -74 c-37 -76 -130 -189
-155 -189 -31 0 -135 136 -168 220 l-18 45 28 20 c15 11 55 41 88 67 34 26 64
47 68 47 4 1 36 -20 71 -46z m-2092 -99 l31 -56 -48 -49 c-54 -55 -152 -122
-229 -157 -45 -21 -63 -23 -175 -20 l-124 3 106 52 c126 61 225 126 328 216
41 37 76 66 77 67 1 0 16 -25 34 -56z m584 10 c218 -112 431 -163 680 -164
123 -1 137 -2 115 -14 -46 -25 -180 -66 -280 -86 -30 -7 -69 -16 -86 -21 -17
-5 -78 -9 -137 -9 -89 0 -112 3 -144 21 -100 56 -174 135 -219 237 -24 52 -31
87 -16 80 4 -2 43 -22 87 -44z m2975 36 c0 -5 -12 -39 -26 -74 -34 -85 -121
-181 -203 -225 -60 -32 -63 -32 -174 -28 -120 4 -232 26 -387 76 -144 47 -143
51 10 51 243 1 460 51 664 155 113 58 116 59 116 45z m594 -54 c115 -100 262
-193 411 -258 27 -12 18 -13 -97 -16 -114 -2 -132 0 -175 20 -93 43 -212 128
-254 182 -19 24 -19 25 8 80 16 30 29 55 31 56 2 0 36 -29 76 -64z m-2338 -53
c28 -60 98 -165 133 -197 17 -17 31 -35 31 -40 0 -6 -16 -31 -35 -55 -37 -47
-115 -194 -115 -217 0 -22 -16 -17 -76 22 -96 61 -301 154 -440 200 -74 24
-141 44 -149 44 -8 0 -15 5 -15 10 0 6 8 10 18 10 65 0 409 140 542 220 36 22
70 39 77 40 7 0 20 -17 29 -37z m489 17 c102 -68 379 -190 518 -226 62 -17 88
-34 52 -34 -9 0 -70 -18 -138 -41 -131 -44 -347 -143 -440 -202 -59 -38 -77
-44 -77 -27 0 23 -73 162 -113 216 l-45 58 54 59 c29 33 71 95 94 138 23 44
46 79 53 79 7 0 26 -9 42 -20z m2913 -92 c22 -35 47 -79 55 -98 76 -179 101
-287 148 -655 33 -259 85 -493 129 -575 7 -14 -11 -20 -118 -39 -150 -28 -298
-76 -390 -127 -72 -39 -202 -139 -202 -154 0 -18 -28 -10 -107 31 -269 142
-485 335 -652 583 -49 72 -141 245 -141 264 0 6 13 13 30 17 61 13 119 90 120
157 0 48 188 203 350 289 85 46 211 94 280 109 58 12 94 21 173 41 27 7 74 29
105 49 55 35 162 142 162 161 0 23 21 4 58 -53z m-5100 -12 c29 -30 81 -74
117 -98 35 -23 65 -45 65 -48 0 -3 -28 -24 -62 -47 -35 -23 -88 -66 -118 -97
l-56 -56 -59 55 c-33 31 -92 75 -132 98 -40 23 -72 44 -73 48 0 3 19 14 43 26
55 27 159 105 188 143 13 16 26 30 29 30 3 0 29 -25 58 -54z m4053 -98 c33
-20 66 -39 72 -42 9 -5 9 -7 0 -12 -50 -24 -144 -89 -197 -136 l-63 -57 -54
55 c-30 31 -82 74 -116 96 -35 22 -63 44 -63 47 0 4 28 25 63 48 34 23 86 66
116 97 l54 55 63 -57 c35 -31 91 -74 125 -94z m-5696 -80 c39 -19 89 -46 113
-60 66 -39 197 -145 211 -171 11 -21 6 -50 -34 -217 -26 -106 -49 -199 -52
-207 -6 -16 -23 -18 -23 -2 0 6 -24 48 -53 92 -48 74 -92 127 -195 237 -39 41
-82 110 -100 160 -15 44 -27 169 -18 203 6 25 7 26 44 13 20 -8 69 -29 107
-48z m925 -28 c157 -52 277 -117 415 -225 108 -84 140 -122 149 -176 13 -81
83 -144 153 -137 33 3 36 1 53 -42 10 -25 34 -64 54 -87 20 -23 36 -51 36 -62
0 -28 -42 -138 -75 -197 -91 -163 -230 -296 -401 -382 -97 -49 -311 -103 -325
-81 -3 6 -9 40 -13 76 -11 104 -44 212 -90 293 -60 105 -259 311 -360 371 -31
19 -56 38 -56 42 0 5 27 39 60 75 126 139 235 337 261 473 16 87 16 89 32 89
8 0 56 -14 107 -30z m406 0 c71 -38 137 -87 187 -138 l38 -39 -28 -56 c-15
-31 -32 -56 -36 -56 -5 -1 -37 24 -70 55 -79 71 -197 149 -314 208 -51 25 -93
48 -93 51 0 3 58 5 129 5 124 0 131 -1 187 -30z m704 22 c0 -4 -26 -20 -57
-36 -109 -53 -209 -151 -260 -254 -14 -30 -33 -91 -42 -135 -17 -87 -25 -96
-77 -83 -53 14 -83 122 -52 193 21 49 85 137 130 179 38 37 129 102 183 132
23 13 175 16 175 4z m576 -1 c16 -5 54 -14 84 -21 63 -14 161 -45 205 -66 27
-12 19 -14 -100 -14 -239 0 -472 -55 -674 -157 -58 -29 -106 -53 -108 -53 -10
0 1 40 26 94 39 80 91 140 165 188 l59 38 157 0 c86 0 170 -4 186 -9z m2270
-22 c66 -42 90 -64 134 -129 34 -50 76 -147 67 -156 -2 -2 -48 18 -103 45
-212 105 -457 160 -719 161 l-100 1 55 23 c48 19 111 38 250 75 19 5 109 10
201 10 l165 1 50 -31z m420 -20 c193 -126 301 -304 250 -412 -20 -40 -62 -63
-101 -53 -22 6 -25 11 -25 55 0 143 -134 330 -297 415 -40 20 -73 39 -73 42 0
2 38 4 84 4 l83 0 79 -51z m784 46 c0 -2 -46 -27 -101 -55 -120 -60 -196 -110
-302 -198 -43 -35 -79 -63 -81 -61 -2 2 -16 28 -31 58 l-27 54 44 44 c51 53
113 98 188 135 51 25 64 27 183 28 70 0 127 -2 127 -5z m-2448 -121 c37 -63
68 -136 68 -158 0 -11 -122 -111 -152 -124 -15 -7 -158 112 -158 131 0 30 77
180 117 227 l37 43 27 -31 c15 -16 42 -56 61 -88z m-1538 54 c-66 -70 -92
-114 -124 -212 -26 -77 -29 -81 -64 -91 -79 -22 -141 -95 -152 -177 -4 -27
-10 -48 -15 -48 -4 0 -13 26 -20 58 -28 138 56 316 196 412 53 36 195 109 214
110 8 0 -8 -24 -35 -52z m2979 0 c213 -109 327 -290 295 -468 -11 -63 -28 -90
-28 -44 0 59 -30 122 -77 164 -25 22 -52 40 -60 40 -31 0 -73 31 -73 54 0 58
-68 186 -138 259 -26 26 -40 47 -33 47 7 0 58 -23 114 -52z m-4343 -28 c0 -39
-76 -206 -133 -290 -79 -117 -307 -353 -324 -336 -8 7 96 436 110 453 5 7 25
15 46 19 67 12 146 46 209 91 35 25 66 51 69 59 6 16 23 19 23 4z m2311 -76
c75 -14 191 -68 253 -118 28 -22 28 -23 16 -77 -7 -29 -16 -72 -21 -94 -19
-89 -39 -350 -38 -504 1 -124 -2 -166 -12 -172 -23 -14 -160 -22 -264 -16
-269 17 -541 141 -756 345 l-83 79 27 60 c34 75 34 115 2 180 -29 57 -44 72
-98 101 l-38 20 28 20 c94 66 298 142 463 173 168 30 369 32 521 3z m1474 1
c122 -19 224 -45 330 -87 96 -38 197 -90 202 -103 2 -6 -13 -19 -33 -30 -20
-11 -52 -40 -71 -65 -19 -25 -63 -74 -97 -110 -89 -93 -158 -178 -222 -277
-57 -86 -170 -298 -193 -363 -7 -19 -17 -44 -21 -55 -21 -48 -70 -207 -89
-285 -41 -175 -55 -306 -55 -520 0 -221 13 -332 60 -510 51 -193 54 -213 36
-228 -29 -23 -110 -62 -129 -62 -19 0 -34 24 -113 180 -123 240 -224 572 -259
845 -6 44 -15 115 -21 158 -5 43 -10 289 -10 548 0 464 -3 522 -37 694 -30
153 -38 132 75 198 87 50 111 59 188 71 120 19 337 19 459 1z m-1069 -222 c35
-26 64 -52 64 -58 0 -6 -11 -44 -24 -85 -91 -282 -142 -778 -117 -1130 12
-166 4 -248 -48 -475 -71 -315 -199 -710 -240 -743 -12 -10 -35 -12 -85 -8
-39 4 -71 8 -73 9 -1 2 24 55 56 118 33 63 74 148 91 189 18 41 36 84 41 95
35 81 101 310 128 440 54 261 62 378 65 965 3 443 7 520 40 655 3 11 7 32 11
48 3 15 10 27 16 27 6 0 40 -21 75 -47z m287 20 c4 -16 11 -50 16 -78 32 -155
40 -317 39 -761 -2 -384 0 -467 15 -573 55 -381 153 -699 304 -981 25 -47 49
-89 54 -94 18 -19 8 -25 -57 -31 -99 -11 -104 -7 -157 137 -91 249 -146 444
-197 698 -41 207 -42 217 -32 400 20 356 -26 812 -110 1087 -38 126 -38 123
33 176 35 26 68 47 75 47 6 0 14 -12 17 -27z m-1665 -70 c97 -78 96 -193 -3
-269 -50 -38 -133 -45 -197 -16 -39 17 -46 25 -58 66 -17 60 -9 149 16 184 55
75 171 92 242 35z m3129 16 c66 -32 88 -70 88 -154 0 -93 -16 -129 -66 -149
-184 -74 -351 119 -226 261 57 65 127 79 204 42z m-1635 -145 c75 -263 110
-546 110 -899 1 -264 -1 -287 -42 -595 -18 -137 -74 -438 -83 -447 -9 -9 -39
137 -76 367 -43 274 -61 469 -61 672 0 287 32 560 96 831 26 110 40 127 56 71z
m1346 -56 c56 -178 279 -223 417 -83 28 27 58 65 67 84 18 37 15 40 66 -62
154 -311 435 -594 765 -772 48 -26 87 -49 87 -52 0 -3 -9 -17 -19 -32 -22 -31
-85 -158 -95 -192 -25 -86 -35 -133 -41 -201 l-7 -78 -51 -15 c-163 -46 -465
-59 -692 -29 -174 22 -379 69 -550 125 -158 52 -425 177 -484 226 l-33 28 26
110 c89 370 242 670 480 936 22 26 43 47 46 48 3 1 11 -18 18 -41z m-4396 -99
c64 -44 217 -190 263 -252 25 -34 26 -40 15 -68 -15 -36 -61 -72 -110 -87 -19
-6 -83 -16 -142 -21 -129 -13 -178 -31 -222 -83 l-34 -39 -33 20 c-45 28 -92
26 -181 -5 -89 -33 -149 -40 -188 -24 -17 7 -30 14 -30 17 0 22 137 202 238
312 42 46 83 92 90 102 7 10 43 38 80 62 37 25 85 61 107 81 48 43 63 42 147
-15z m1644 -87 c224 -219 480 -345 778 -382 92 -12 166 -10 280 6 l49 7 -6
-254 c-6 -263 -12 -325 -54 -544 -39 -208 -84 -358 -166 -557 -53 -128 -154
-317 -173 -325 -17 -6 -64 11 -114 43 l-36 22 4 69 c5 89 -9 119 -111 240
-209 247 -436 380 -721 420 -93 13 -128 13 -216 3 -99 -11 -211 -36 -275 -60
-37 -14 -43 -6 -60 75 -18 83 -50 127 -117 161 -56 28 -172 59 -260 69 -32 4
-58 10 -58 15 0 5 8 24 18 42 31 57 62 188 62 264 0 31 1 32 56 39 131 16 321
91 426 167 161 117 303 307 349 468 7 25 15 48 18 52 4 4 26 0 51 -8 52 -18
133 -14 177 10 15 8 31 15 34 16 3 0 32 -26 65 -58z m-1300 -294 c58 -112 89
-350 65 -495 -35 -205 -168 -336 -458 -448 -99 -38 -107 -32 -101 86 5 111 39
182 138 294 127 143 171 243 172 391 l0 92 47 20 c25 10 60 35 76 55 17 19 33
36 37 36 4 1 15 -13 24 -31z m-228 -143 c9 -128 -43 -251 -164 -392 -118 -138
-154 -220 -154 -354 0 -58 -14 -63 -30 -13 -13 39 -8 184 8 264 46 217 52 285
39 381 -8 52 -6 58 19 88 14 17 40 39 58 48 34 18 119 32 181 29 l40 -1 3 -50z
m-996 34 c65 -14 148 -55 148 -73 0 -7 -7 -33 -16 -57 -11 -29 -17 -76 -18
-139 0 -117 29 -213 103 -337 l49 -83 -52 0 c-32 0 -67 -8 -91 -20 -51 -26
-57 -26 -128 12 -124 67 -194 176 -184 288 3 30 21 93 40 140 46 116 59 172
51 231 -6 48 -6 49 19 49 14 0 50 -5 79 -11z m7428 -16 c-8 -31 -33 -99 -75
-211 -16 -41 -37 -79 -49 -87 -40 -26 -184 -48 -265 -41 -114 9 -271 59 -271
84 0 14 90 91 140 120 66 39 92 51 165 79 71 27 109 37 270 72 22 5 52 9 67
10 24 1 26 -1 18 -26z m63 -243 c1 -143 -13 -260 -31 -260 -15 0 -102 153
-102 179 0 6 13 39 29 73 15 35 34 81 41 103 7 22 20 56 28 75 l15 35 9 -25
c6 -14 11 -95 11 -180z m-6878 166 c53 -53 56 -143 10 -367 -26 -126 -36 -275
-23 -339 l8 -35 -62 -24 -62 -24 -15 24 c-9 13 -41 51 -72 84 -91 98 -174 232
-214 350 -24 68 -31 193 -15 253 19 69 23 72 76 54 52 -17 108 -10 204 26 76
29 134 29 165 -2z m7002 -146 c33 -52 96 -151 140 -220 193 -301 273 -515 273
-728 0 -98 -15 -169 -60 -295 l-32 -87 -44 0 c-83 0 -225 45 -359 113 -111 56
-189 109 -275 184 -113 98 -111 90 -39 175 146 174 237 345 291 548 14 54 21
123 25 248 3 95 9 170 13 165 4 -4 34 -51 67 -103z m-737 -136 c103 -30 200
-36 300 -20 52 8 96 13 98 11 11 -10 -94 -201 -204 -372 l-53 -81 -84 -7 c-93
-8 -260 7 -322 28 -39 13 -40 16 -43 63 -8 106 51 286 129 401 l29 41 52 -25
c29 -14 73 -31 98 -39z m460 -43 c0 -6 25 -47 56 -92 l57 -82 -23 -66 c-40
-119 -144 -297 -229 -391 -18 -19 -39 -45 -48 -57 -23 -34 -38 -28 -63 25 -16
33 -24 73 -28 133 l-5 86 38 54 c43 61 143 231 195 332 32 61 50 82 50 58z
m-2605 -125 c146 -102 511 -249 720 -290 17 -3 53 -11 80 -16 335 -72 683 -77
919 -15 32 8 61 13 64 10 9 -8 22 -278 16 -330 -9 -75 -50 -201 -92 -280 -30
-56 -45 -74 -78 -90 -101 -50 -170 -73 -314 -107 -81 -19 -453 -16 -545 5
-106 23 -206 52 -240 68 -28 13 -30 19 -36 84 -6 74 -21 112 -65 164 -86 103
-257 105 -361 6 -26 -25 -50 -42 -54 -38 -11 12 -37 138 -54 259 -18 128 -20
386 -3 502 6 45 14 82 17 82 4 0 15 -6 26 -14z m-3280 -130 c74 -19 137 -49
165 -79 31 -32 66 -176 47 -193 -7 -6 -43 -20 -82 -32 -183 -55 -439 -92 -631
-92 l-121 0 -13 63 c-6 34 -16 69 -21 78 -11 21 3 34 57 53 118 42 252 120
329 192 l40 37 90 -7 c50 -3 113 -12 140 -20z m2330 -196 c9 -76 41 -257 76
-430 l29 -144 -33 -34 c-44 -46 -136 -108 -211 -142 -58 -26 -126 -46 -126
-37 0 2 14 42 31 88 70 191 138 417 171 569 6 25 14 63 19 85 5 22 12 60 16
84 7 53 18 38 28 -39z m295 -4 c0 -10 4 -35 10 -55 5 -20 21 -85 36 -146 43
-180 141 -487 174 -547 17 -31 12 -41 -17 -34 -95 22 -243 107 -311 178 l-33
34 31 155 c36 182 80 434 81 469 1 24 1 24 14 -5 8 -16 14 -38 15 -49z m2584
-2 c34 -7 116 -13 184 -14 79 0 122 -4 122 -11 0 -15 -107 -153 -215 -277 -88
-102 -235 -252 -235 -241 0 2 9 31 21 64 40 114 50 204 37 345 -11 128 -8 167
14 154 6 -4 39 -13 72 -20z m-5940 -22 c40 -37 49 -73 50 -195 1 -113 0 -120
-23 -138 -35 -28 -92 -25 -125 7 -14 15 -26 38 -26 51 0 34 -22 72 -69 118
-28 27 -41 48 -41 66 0 37 50 86 103 99 23 6 47 13 52 15 17 7 59 -6 79 -23z
m1566 -7 c207 -36 386 -129 548 -284 34 -33 62 -64 62 -70 0 -6 -15 -7 -34 -4
-57 9 -130 -15 -179 -58 -53 -46 -86 -116 -94 -202 -5 -59 -8 -64 -45 -92
-113 -84 -250 -266 -345 -457 -44 -88 -62 -113 -96 -136 -88 -60 -152 -72
-375 -72 -195 0 -251 -8 -327 -48 -46 -23 -169 -110 -203 -141 -29 -29 -42
-19 -42 32 -1 119 -74 316 -172 461 l-41 59 24 66 c32 89 33 219 1 306 -12 32
-22 63 -22 67 0 4 32 8 70 8 141 0 372 65 461 129 158 115 143 109 263 113
107 3 108 3 137 36 52 58 28 128 -60 176 -80 43 -79 53 15 81 151 44 313 55
454 30z m4766 -214 c13 -24 24 -49 24 -57 0 -31 -198 -179 -327 -244 -69 -34
-232 -94 -239 -88 -1 2 50 57 114 123 125 131 239 262 323 375 l53 72 14 -69
c7 -37 24 -88 38 -112z m-5305 94 c95 -61 109 -74 109 -105 0 -43 -29 -55
-140 -56 -106 0 -124 -7 -211 -76 -95 -77 -123 -89 -294 -133 -89 -23 -159
-31 -244 -27 -46 2 -44 0 -135 110 l-43 53 18 37 c11 20 19 51 19 69 l0 33
108 0 c216 1 527 49 692 109 30 11 58 20 61 20 4 1 31 -15 60 -34z m-1157
-235 c37 -63 -2 -187 -129 -410 -75 -132 -135 -282 -135 -337 0 -31 -10 -29
-47 9 -72 78 -114 150 -141 245 -30 102 -34 171 -11 194 11 11 24 19 29 19 29
0 226 149 334 251 33 32 66 58 71 59 6 0 19 -14 29 -30z m219 -95 c99 -123
144 -251 134 -381 -9 -123 -56 -193 -187 -282 -142 -97 -200 -179 -200 -286 0
-44 -15 -66 -53 -79 -28 -10 -84 18 -101 51 -18 35 -40 238 -33 303 9 72 51
181 124 318 122 231 125 238 157 383 5 21 13 28 39 31 60 8 71 3 120 -58z
m2125 26 c54 -28 89 -70 103 -123 11 -40 10 -55 -4 -100 -45 -143 -193 -182
-333 -87 -52 35 -68 74 -60 136 17 120 92 193 198 193 38 0 72 -7 96 -19z
m2149 -7 c61 -40 103 -122 103 -205 0 -29 -8 -45 -35 -72 -104 -104 -268 -102
-337 4 -52 81 -46 179 16 239 45 45 80 58 151 59 50 1 69 -4 102 -25z m-1982
-312 c148 -90 363 -98 546 -19 45 20 84 35 86 33 7 -7 -103 -100 -169 -143
-37 -24 -109 -58 -160 -75 -88 -30 -101 -32 -248 -32 -138 -1 -162 2 -220 23
-81 29 -141 63 -191 108 -49 44 -50 58 -3 38 22 -9 67 -15 113 -15 68 0 82 3
122 29 24 15 51 38 59 50 18 26 27 26 65 3z m674 -44 c-178 -279 -527 -522
-710 -494 -127 19 -193 127 -142 233 15 33 18 35 57 29 23 -3 82 -8 132 -12
227 -16 454 71 629 243 33 33 62 58 64 57 2 -2 -12 -27 -30 -56z m337 53 c5
-5 45 -22 89 -39 106 -40 214 -52 319 -36 87 13 113 21 194 62 l54 27 20 -28
c11 -15 40 -39 64 -53 39 -23 51 -25 126 -22 46 3 98 10 117 16 l35 12 -35
-36 c-49 -50 -118 -92 -201 -122 -65 -23 -89 -26 -218 -26 -183 -1 -287 25
-410 102 -61 38 -178 133 -179 145 -1 10 13 9 25 -2z m1183 -10 c88 -30 186
-52 316 -70 l119 -16 -2 -55 c-10 -205 -97 -607 -135 -623 -140 -58 -523 -197
-542 -197 -1 0 -21 33 -45 73 -51 85 -100 148 -188 237 l-64 65 29 6 c144 30
220 168 159 291 -9 17 -16 32 -16 34 0 2 31 19 69 39 82 43 171 128 200 191
12 24 26 44 33 44 6 0 37 -9 67 -19z m-1036 -185 c64 -38 176 -76 285 -97 59
-11 203 -8 294 7 34 6 39 3 57 -27 43 -70 14 -172 -60 -209 -22 -12 -62 -24
-88 -27 -139 -16 -404 137 -578 335 -73 85 -143 179 -143 194 0 5 38 -25 85
-65 47 -40 113 -90 148 -111z m-454 13 c-97 -289 -222 -470 -377 -546 -110
-54 -226 -32 -265 51 -28 59 -21 76 43 98 198 67 435 253 573 450 23 33 46 67
52 74 22 31 14 -10 -26 -127z m-3707 36 c29 -86 72 -157 140 -233 77 -87 84
-102 91 -198 7 -97 18 -129 59 -171 54 -55 149 -57 187 -4 12 17 25 58 31 100
16 114 37 141 183 239 39 27 81 59 91 71 11 11 23 21 27 21 14 0 84 -110 122
-191 42 -89 73 -205 82 -309 l7 -76 -67 -79 c-127 -154 -233 -335 -290 -500
-15 -44 -31 -84 -36 -89 -4 -5 -18 13 -30 40 -13 27 -39 74 -60 104 -36 53
-178 200 -249 256 -69 56 -193 180 -241 244 -60 78 -123 203 -146 285 -20 74
-22 286 -4 365 16 70 50 179 64 205 l11 20 4 -20 c2 -11 13 -47 24 -80z m4065
-125 c140 -147 322 -270 461 -311 39 -11 42 -15 42 -47 0 -78 -60 -127 -155
-126 -147 0 -295 129 -404 348 -65 132 -121 286 -121 336 0 20 8 12 45 -42 24
-37 84 -108 132 -158z m-293 -149 c-58 -129 -96 -193 -163 -283 l-35 -48 -91
0 -90 1 25 20 c147 119 249 289 342 574 l23 70 3 -149 c2 -121 -1 -156 -14
-185z m112 188 c64 -186 194 -400 281 -464 67 -49 64 -55 -32 -55 l-84 0 -52
73 c-28 39 -73 117 -100 172 l-49 100 0 129 c0 71 2 127 5 124 3 -2 17 -38 31
-79z m-52 -251 c7 -29 109 -201 149 -251 29 -37 29 -38 11 -60 -11 -12 -22
-24 -25 -27 -19 -16 -94 -137 -119 -194 -17 -36 -34 -66 -38 -66 -4 0 -25 40
-47 88 -22 48 -60 112 -84 142 -24 30 -48 61 -54 67 -6 9 5 31 38 75 25 34 69
104 97 155 27 51 53 93 58 93 4 0 10 -10 14 -22z m3859 -180 c12 -38 39 -79
93 -143 109 -128 107 -124 102 -203 -3 -55 -11 -84 -41 -143 -40 -80 -109
-165 -124 -156 -6 4 -13 35 -17 69 -14 138 -107 329 -205 422 -34 33 -37 42
-18 60 22 22 181 146 187 146 4 0 14 -24 23 -52z m-5748 -15 c-101 -158 -235
-315 -315 -370 -46 -31 -158 -76 -170 -68 -4 2 0 41 8 87 13 68 13 97 3 165
-6 45 -18 98 -27 118 -8 21 -12 41 -7 45 4 5 100 10 213 13 147 3 218 9 250
20 62 21 65 21 45 -10z m75 -56 c-46 -176 -138 -381 -239 -534 -33 -51 -62
-93 -64 -93 -2 0 -32 28 -68 61 -35 34 -88 77 -116 97 -29 19 -53 36 -53 37 0
1 28 13 62 25 35 13 81 34 103 48 58 36 185 167 235 242 24 36 46 67 49 70 3
3 19 23 34 46 32 48 67 87 73 81 2 -2 -5 -38 -16 -80z m-618 -37 c45 -130 25
-370 -31 -370 -29 0 -225 -85 -295 -128 -63 -39 -68 -40 -63 -20 31 132 47
225 47 283 l0 71 48 45 c88 85 232 182 261 177 8 -2 23 -28 33 -58z m2219 -81
c46 -50 134 -212 158 -294 7 -23 11 -82 9 -140 l-3 -100 -21 35 c-85 140 -115
186 -177 269 -65 88 -150 192 -204 251 -13 14 -23 28 -23 32 0 4 48 5 108 2
l107 -6 46 -49z m642 54 c3 -5 -26 -44 -65 -88 -97 -111 -223 -281 -294 -397
l-59 -98 -3 111 c-3 108 -2 112 34 196 51 118 78 164 130 222 l45 50 77 4 c42
1 89 4 104 5 15 1 29 -1 31 -5z m3224 -71 c49 -60 93 -129 93 -147 0 -8 -15
-21 -32 -30 -65 -31 -144 -93 -183 -143 -22 -28 -44 -51 -48 -51 -4 -1 -19 24
-33 54 -31 72 -33 159 -3 217 30 58 131 160 152 152 9 -3 33 -27 54 -52z
m-2007 17 c0 -25 -102 -220 -161 -309 l-64 -95 -7 160 c-5 119 -4 163 5 171 7
6 46 23 87 38 42 15 82 31 90 36 21 13 50 12 50 -1z m-2814 -103 c-25 -42 -46
-81 -46 -88 0 -7 -7 -21 -14 -31 -12 -16 -14 -15 -20 14 -3 17 -6 49 -6 69 0
36 4 41 61 79 34 23 64 39 66 37 3 -2 -16 -38 -41 -80z m138 59 c4 -14 18 -51
32 -81 14 -31 24 -57 22 -58 -2 -1 -28 -8 -58 -16 -30 -7 -75 -21 -99 -32 -24
-10 -46 -16 -49 -13 -8 8 65 147 99 188 36 44 45 46 53 12z m2748 -66 c5 -41
8 -112 5 -159 -6 -97 -10 -103 -114 -152 -64 -30 -163 -61 -171 -53 -3 3 13
29 34 60 68 98 115 177 168 287 28 59 55 103 59 99 5 -5 13 -42 19 -82z m-358
-35 c3 -26 6 -111 6 -190 l0 -143 -49 -58 c-26 -32 -78 -86 -114 -121 -100
-95 -105 -89 -66 68 33 133 37 239 14 351 -9 40 -14 73 -13 74 8 7 185 64 199
64 12 1 18 -12 23 -45z m-2658 -51 c4 -21 13 -55 22 -76 13 -34 13 -48 -1
-135 -9 -53 -19 -136 -23 -185 -4 -48 -10 -90 -15 -92 -12 -8 -68 79 -95 146
-12 33 -28 93 -35 134 -12 72 -12 74 13 112 33 50 107 133 118 133 5 0 12 -17
16 -37z m5101 -95 c12 -40 25 -103 28 -139 8 -80 7 -82 -126 -153 l-92 -49
-16 22 c-40 53 -83 152 -77 175 10 39 107 137 177 179 35 20 68 37 74 37 6 0
20 -33 32 -72z m-4718 -2 c17 -35 40 -99 52 -142 20 -75 20 -78 3 -91 -10 -7
-25 -13 -35 -13 -34 0 -177 -53 -273 -101 l-98 -49 6 42 c3 24 11 83 16 133
20 182 28 199 110 234 52 22 144 49 171 50 11 1 28 -22 48 -63z"/>
<path d="M7975 3771 c-146 -90 -149 -296 -8 -536 20 -33 44 -73 53 -90 10 -16
77 -127 150 -245 192 -311 263 -436 295 -517 15 -40 30 -73 32 -73 1 0 3 38 3
85 0 69 -3 85 -15 85 -8 0 -15 3 -15 8 0 4 -23 45 -51 92 -28 47 -59 99 -69
115 -9 17 -48 80 -85 140 -37 61 -112 182 -166 271 -174 284 -216 410 -176
524 39 113 115 144 224 94 62 -29 264 -166 310 -210 l43 -41 0 49 c0 34 -4 48
-12 46 -7 -1 -42 18 -78 43 -107 76 -206 138 -255 159 -60 26 -140 26 -180 1z"/>
<path d="M0 426 c0 -47 4 -67 16 -77 23 -19 52 -89 74 -179 13 -49 27 -81 41
-93 12 -10 24 -16 26 -14 2 2 -3 38 -11 79 -17 89 -53 181 -96 244 l-31 46 28
-6 c15 -4 66 -26 113 -50 l85 -43 3 -69 c2 -60 -8 -127 -34 -211 -8 -27 22
-45 37 -22 15 24 38 112 45 177 4 41 11 62 20 62 27 0 194 -216 194 -251 0 -5
-37 -10 -82 -12 -71 -2 -65 -3 35 -5 l118 -2 -20 29 c-12 16 -21 32 -21 36 0
4 -23 40 -51 81 -59 85 -157 180 -241 234 -46 30 -223 110 -243 110 -3 0 -5
-29 -5 -64z"/>
<path d="M653 3 c31 -2 83 -2 115 0 31 2 5 3 -58 3 -63 0 -89 -1 -57 -3z"/>
<path d="M948 3 c7 -3 16 -2 19 1 4 3 -2 6 -13 5 -11 0 -14 -3 -6 -6z"/>
<path d="M1388 3 c72 -2 192 -2 265 0 72 1 13 3 -133 3 -146 0 -205 -2 -132
-3z"/>
<path d="M2068 3 c12 -2 30 -2 40 0 9 3 -1 5 -23 4 -22 0 -30 -2 -17 -4z"/>
<path d="M2823 3 c15 -2 37 -2 50 0 12 2 0 4 -28 4 -27 0 -38 -2 -22 -4z"/>
<path d="M3178 3 c39 -2 105 -2 145 0 39 1 7 3 -73 3 -80 0 -112 -2 -72 -3z"/>
<path d="M3668 3 c100 -2 264 -2 365 0 100 1 18 2 -183 2 -201 0 -283 -1 -182
-2z"/>
<path d="M5588 3 c39 -2 105 -2 145 0 39 1 7 3 -73 3 -80 0 -112 -2 -72 -3z"/>
<path d="M6878 3 c23 -2 61 -2 85 0 23 2 4 4 -43 4 -47 0 -66 -2 -42 -4z"/>
<path d="M7118 3 c7 -3 16 -2 19 1 4 3 -2 6 -13 5 -11 0 -14 -3 -6 -6z"/>
</g>
</svg>
