<?xml version="1.0" encoding="UTF-8" standalone="no"?>
<svg
   xmlns:dc="http://purl.org/dc/elements/1.1/"
   xmlns:cc="http://creativecommons.org/ns#"
   xmlns:rdf="http://www.w3.org/1999/02/22-rdf-syntax-ns#"
   xmlns:svg="http://www.w3.org/2000/svg"
   xmlns="http://www.w3.org/2000/svg"
   xmlns:sodipodi="http://sodipodi.sourceforge.net/DTD/sodipodi-0.dtd"
   xmlns:inkscape="http://www.inkscape.org/namespaces/inkscape"
   version="1.0"
   width="850.000000pt"
   height="850.000000pt"
   viewBox="0 0 850.000000 850.000000"
   preserveAspectRatio="xMidYMid meet"
   id="svg406"
   sodipodi:docname="bible164.svg"
   inkscape:version="0.92.2 5c3e80d, 2017-08-06">
  <defs
     id="defs410" />
  <sodipodi:namedview
     pagecolor="#ffffff"
     bordercolor="#666666"
     borderopacity="1"
     objecttolerance="10"
     gridtolerance="10"
     guidetolerance="10"
     inkscape:pageopacity="0"
     inkscape:pageshadow="2"
     inkscape:window-width="1920"
     inkscape:window-height="978"
     id="namedview408"
     showgrid="false"
     inkscape:zoom="0.58897835"
     inkscape:cx="608.24623"
     inkscape:cy="580.38156"
     inkscape:window-x="0"
     inkscape:window-y="1"
     inkscape:window-maximized="1"
     inkscape:current-layer="svg406" />
  <metadata
     id="metadata2">
Created by potrace 1.14, written by Peter Selinger 2001-2017
<rdf:RDF>
  <cc:Work
     rdf:about="">
    <dc:format>image/svg+xml</dc:format>
    <dc:type
       rdf:resource="http://purl.org/dc/dcmitype/StillImage" />
  </cc:Work>
</rdf:RDF>
</metadata>
  <g
     transform="translate(0.000000,850.000000) scale(0.100000,-0.100000)"
     fill="#000000"
     stroke="none"
     id="g404">
    <path
       d="M0 4250 l0 -4250 4250 0 4250 0 0 1882 0 1882 -20 -22 c-20 -21 -29 -22 -200 -22 l-179 0 -20 29 c-12 16 -21 31 -21 34 0 2 -31 57 -70 121 -38 64 -70 120 -70 126 0 6 17 39 38 73 21 35 41 70 45 77 3 8 26 47 49 85 l43 70 182 3 c176 2 182 2 202 -20 l21 -22 0 2102 0 2102 -4250 0 -4250 0 0 -4250z m3723 3874 c48 -80 87 -152 87 -160 0 -7 -13 -35 -29 -61 -15 -27 -54 -91 -85 -144 -31 -53 -64 -98 -74 -100 -9 -2 -94 -2 -189 1 l-172 5 -87 144 c-74 124 -85 147 -78 170 5 15 45 86 88 159 l79 132 186 0 187 0 87 -146z m2758 -141 c29 -49 61 -104 71 -123 11 -19 24 -39 29 -44 20 -22 5 -62 -72 -191 l-80 -135 -174 0 -174 0 -69 118 c-95 159 -98 166 -83 200 20 43 143 246 155 254 6 4 86 8 178 8 l167 0 52 -87z m-3469 -30 c30 -34 168 -275 168 -293 0 -10 -39 -84 -87 -164 l-87 -146 -182 0 -183 0 -19 28 c-35 49 -162 271 -162 284 0 12 103 192 152 266 l29 42 178 0 c157 0 180 -2 193 -17z m-1650 -5 c9 -7 55 -78 102 -158 l85 -144 -18 -31 c-10 -16 -50 -85 -90 -151 -39 -67 -78 -125 -87 -128 -9 -3 -89 -6 -178 -6 -148 0 -164 2 -180 19 -27 30 -176 282 -176 298 0 7 19 44 41 81 23 37 62 101 86 142 25 41 50 78 56 82 21 14 341 9 359 -4z m4180 -323 c-3 -38 -65 -181 -102 -235 -9 -14 -51 -90 -92 -170 -41 -80 -84 -161 -95 -180 -11 -19 -28 -57 -38 -84 -19 -49 -39 -76 -56 -76 -21 0 -6 47 54 168 35 70 83 179 106 242 73 200 146 350 179 370 33 19 47 7 44 -35z m-651 11 c9 -19 4 -46 -32 -151 -50 -144 -58 -139 -39 25 15 134 44 185 71 126z m-681 -18 c18 -30 20 -51 20 -228 0 -107 -3 -320 -7 -473 -6 -274 -7 -278 -27 -275 -20 3 -21 11 -27 143 -15 317 -19 841 -7 853 18 18 27 15 48 -20z m-2354 -61 c22 -25 51 -70 65 -101 20 -47 27 -56 44 -52 11 3 37 6 58 6 35 0 37 2 31 25 -8 31 10 55 42 55 18 0 28 -9 40 -37 14 -36 14 -61 0 -108 -5 -15 0 -24 22 -36 30 -17 62 -73 62 -108 0 -28 -34 -45 -60 -31 -11 6 -20 17 -20 25 0 26 -21 27 -41 2 -10 -14 -29 -27 -42 -29 -16 -2 -21 -9 -19 -23 2 -11 8 -51 14 -90 14 -88 5 -140 -32 -177 -40 -40 -105 -40 -143 0 -29 30 -47 78 -47 126 0 26 -2 28 -27 22 -116 -27 -205 -15 -264 36 -34 30 -43 59 -34 115 5 38 16 56 58 98 30 30 72 59 99 69 l46 18 -29 55 c-33 62 -36 100 -13 144 19 38 47 50 104 45 38 -4 51 -11 86 -49z m5452 -23 c29 -20 28 -55 -3 -92 -14 -17 -25 -32 -25 -36 0 -3 18 -10 39 -16 23 -6 52 -24 70 -45 l30 -35 83 63 c177 133 326 142 390 24 21 -40 23 -95 3 -134 -20 -40 -95 -109 -142 -130 -21 -10 -40 -18 -42 -20 -2 -1 18 -28 44 -60 66 -80 97 -151 103 -234 9 -126 -34 -205 -122 -228 -116 -29 -229 7 -337 107 -31 28 -61 52 -66 52 -5 0 -17 -14 -27 -32 -76 -127 -193 -177 -281 -117 -64 44 -83 131 -49 221 18 45 104 166 148 207 32 30 33 44 2 60 -28 16 -46 51 -46 91 0 37 -13 38 -52 5 -34 -29 -46 -31 -76 -9 -34 24 -30 75 9 108 45 38 82 55 134 63 42 5 45 8 45 35 0 40 32 99 75 136 40 36 60 39 93 16z m-2535 -328 c6 -14 2 -33 -27 -141 -40 -147 -68 -226 -82 -232 -8 -3 -17 -3 -19 -1 -3 3 4 45 16 94 11 49 26 128 34 177 7 48 18 94 25 102 16 19 46 19 53 1z m-1289 -19 c12 -12 34 -62 50 -112 37 -123 126 -387 136 -405 4 -8 11 -37 15 -65 l6 -50 -25 29 c-13 16 -31 46 -39 65 -26 61 -64 163 -92 241 -15 41 -37 98 -50 125 -32 70 -63 168 -58 183 7 19 32 14 57 -11z m2934 11 c7 -7 8 -17 2 -27 -7 -13 -129 -126 -250 -232 -65 -56 -101 -64 -60 -12 44 56 271 283 283 283 7 0 18 -5 25 -12z m-3368 -260 c39 -60 49 -91 31 -102 -4 -3 -15 2 -24 12 -24 27 -77 121 -77 137 0 33 33 11 70 -47z m-1720 -124 c17 -15 45 -47 63 -73 28 -40 32 -54 32 -112 0 -72 -13 -97 -67 -125 -41 -21 -115 -18 -149 7 -63 45 -76 122 -33 206 24 48 93 123 113 123 5 0 23 -12 41 -26z m1098 10 c27 -19 28 -40 3 -54 -29 -15 -62 -12 -83 7 -18 16 -24 44 -11 56 12 13 68 7 91 -9z m3622 2 c0 -16 -37 -46 -57 -46 -18 0 -16 20 4 42 19 22 53 24 53 4z m-1390 -84 c0 -22 -42 -112 -53 -112 -15 0 -20 33 -9 51 7 10 12 25 12 32 0 19 30 58 41 52 5 -4 9 -14 9 -23z m-2130 -40 c51 -35 340 -329 340 -346 0 -9 -7 -19 -15 -22 -17 -7 -73 39 -216 178 -54 51 -113 106 -133 121 -37 29 -45 54 -24 75 16 16 18 15 48 -6z m3370 -16 c0 -22 -40 -66 -61 -66 -27 0 -24 19 8 52 29 30 53 37 53 14z m-2594 -111 c33 -33 30 -78 -4 -83 -29 -4 -48 11 -55 46 -6 29 7 62 24 62 5 0 21 -11 35 -25z m1312 -64 c57 -40 62 -120 10 -171 -52 -53 -144 -52 -198 1 -54 55 -36 154 35 185 41 19 116 12 153 -15z m2102 -16 c7 -8 9 -24 5 -37 -8 -27 -44 -68 -59 -68 -15 0 -177 -70 -206 -90 -14 -9 -78 -42 -144 -74 -90 -44 -121 -55 -130 -46 -13 14 -22 8 180 140 149 98 308 190 330 190 6 0 17 -7 24 -15z m-2806 -21 c13 -5 16 -22 16 -84 0 -72 -2 -79 -25 -94 -17 -11 -25 -26 -25 -45 0 -54 8 -61 66 -61 l54 0 0 51 c0 42 -3 52 -19 56 -17 4 -20 16 -23 85 -2 43 1 83 6 89 11 10 354 13 380 3 13 -5 16 -23 16 -89 l0 -84 -37 -3 -38 -3 -3 -177 -2 -177 37 -3 38 -3 0 -85 0 -85 -197 -3 -198 -2 0 84 c0 76 2 87 21 96 16 9 20 19 17 53 l-3 42 -52 3 c-45 3 -52 0 -58 -18 -10 -32 4 -77 26 -83 18 -5 20 -13 17 -89 l-3 -83 -203 -3 -203 -2 3 87 3 88 38 3 37 3 -2 177 -3 177 -37 3 -38 3 0 83 c0 45 3 86 7 89 8 9 366 9 387 1z m-538 -41 c20 -27 18 -73 -4 -73 -26 0 -42 20 -42 50 0 43 22 54 46 23z m-1679 -154 c15 -6 62 -32 103 -58 41 -27 118 -68 170 -93 99 -47 160 -90 160 -114 0 -8 -2 -14 -4 -14 -2 0 -89 41 -193 91 -103 50 -207 100 -230 111 -44 21 -83 53 -83 67 0 23 32 27 77 10z m3405 -18 c20 -12 39 -28 42 -36 10 -26 25 -16 28 18 l3 32 90 3 c108 3 115 -3 115 -92 0 -98 -4 -105 -64 -108 l-51 -3 42 -23 c24 -12 50 -33 59 -47 22 -34 29 -96 15 -138 -15 -43 -71 -96 -112 -104 -37 -7 -48 -23 -17 -23 67 0 468 59 613 90 22 5 67 14 100 20 33 7 74 16 90 20 17 4 57 13 90 20 33 7 71 16 85 20 89 28 211 53 220 44 9 -9 -8 -301 -25 -418 -5 -34 -3 -38 12 -33 134 41 310 87 334 87 26 0 30 -3 27 -22 -4 -30 -47 -50 -128 -59 -76 -8 -207 -37 -232 -50 -26 -14 -22 -58 10 -104 86 -126 169 -245 196 -279 l30 -39 306 8 c301 7 306 6 330 -14 l25 -21 -25 -21 c-25 -21 -29 -22 -308 -15 -282 7 -284 7 -277 -13 5 -17 0 -22 -32 -30 -21 -6 -69 -19 -108 -30 -78 -21 -208 -51 -330 -77 -44 -9 -100 -21 -125 -26 -44 -9 -62 -12 -230 -42 -285 -50 -716 -99 -992 -112 -142 -6 -153 -11 -122 -45 9 -10 19 -33 23 -50 5 -24 17 -38 45 -54 21 -12 63 -42 94 -67 51 -40 64 -46 120 -51 71 -6 108 -26 123 -65 13 -35 4 -85 -21 -107 -23 -21 -25 -36 -8 -68 6 -12 14 -29 18 -37 4 -8 21 -16 38 -18 43 -4 92 -54 92 -93 0 -40 -27 -79 -67 -95 -30 -13 -33 -18 -33 -59 0 -32 4 -45 14 -45 8 0 31 -15 50 -34 26 -24 36 -42 36 -64 0 -37 -40 -87 -76 -96 -23 -6 -25 -11 -22 -49 2 -34 8 -44 30 -55 35 -17 68 -59 68 -88 0 -50 -25 -79 -82 -98 -22 -7 -25 -66 -4 -66 7 0 46 14 87 30 136 57 420 148 559 180 315 73 692 130 866 130 l64 0 0 -53 c0 -121 45 -369 85 -464 l14 -33 83 0 c46 0 89 -4 96 -8 9 -6 12 -37 10 -116 l-3 -107 -355 -3 c-342 -4 -423 -9 -680 -46 -166 -24 -378 -67 -495 -99 -16 -5 -48 -13 -70 -19 -225 -61 -650 -219 -697 -260 -10 -8 -18 -26 -18 -40 0 -14 -7 -34 -17 -44 -15 -17 -38 -18 -320 -18 -290 0 -304 1 -323 20 -11 11 -20 33 -20 50 0 28 -6 33 -67 61 -289 133 -630 241 -978 309 -331 64 -509 81 -908 86 -191 2 -352 6 -357 9 -6 4 -10 51 -10 105 0 119 1 120 117 120 90 0 85 -5 121 125 32 113 43 183 50 305 l7 115 55 3 c54 4 186 -8 348 -30 45 -6 84 -9 87 -6 3 3 -2 19 -11 37 -14 28 -15 40 -5 73 13 41 75 118 96 118 16 0 85 -76 85 -94 0 -8 5 -18 10 -21 25 -15 5 -82 -35 -116 -24 -21 -23 -22 95 -45 128 -24 158 -31 240 -54 96 -26 140 -34 140 -26 0 4 -18 39 -41 78 l-41 70 18 39 c11 21 22 39 27 39 4 0 7 5 7 10 0 12 51 92 65 102 5 4 56 8 113 8 87 0 105 -3 121 -19 27 -27 101 -156 101 -176 0 -17 -35 -82 -82 -152 -28 -41 -30 -42 -91 -45 -62 -3 -62 -4 -2 -28 61 -23 271 -101 280 -103 6 -1 11 10 13 25 3 24 -3 30 -44 49 -97 46 -91 138 14 184 24 11 32 20 32 40 0 37 -17 65 -39 65 -21 0 -66 47 -76 79 -10 33 22 81 69 102 40 17 43 21 42 56 -1 32 -6 39 -41 57 -21 12 -47 35 -57 53 -17 28 -17 35 -5 65 18 43 39 60 84 67 32 5 39 12 56 54 l20 48 -29 30 c-74 77 -3 169 130 169 31 0 51 9 95 43 31 24 73 53 94 66 30 18 37 29 37 53 0 16 9 43 21 60 12 16 20 31 18 33 -3 2 -60 6 -129 10 -125 6 -360 26 -520 44 -47 6 -114 13 -149 17 l-64 7 16 -24 c25 -35 21 -57 -18 -96 -34 -34 -44 -53 -27 -53 16 0 52 -78 52 -112 0 -39 -28 -75 -65 -84 -27 -7 -74 8 -117 38 -34 23 -39 23 -62 -9 -19 -25 -19 -26 0 -62 10 -20 34 -60 52 -89 18 -28 35 -58 38 -66 3 -8 -13 -44 -35 -81 -23 -37 -41 -70 -41 -75 0 -4 -12 -20 -27 -35 -28 -27 -28 -28 -127 -21 -55 3 -105 11 -111 16 -21 17 -105 166 -105 186 0 17 69 142 98 177 12 13 31 17 85 17 62 0 68 2 62 18 -4 9 -9 24 -12 32 -5 18 20 75 49 112 20 26 20 28 4 53 -11 17 -23 24 -33 21 -20 -8 -43 11 -36 30 3 8 21 23 39 32 19 10 42 33 52 52 11 23 25 36 41 38 21 3 23 1 18 -25 -5 -24 -1 -31 21 -44 25 -14 29 -13 75 18 27 18 58 33 70 33 48 0 1 12 -139 35 -159 26 -417 76 -524 101 -239 56 -363 91 -367 101 -3 7 11 35 31 63 20 27 36 53 36 57 0 3 -133 3 -295 0 -162 -4 -301 -4 -310 -1 -22 9 -19 31 8 48 18 11 73 13 327 7 l305 -7 20 25 c33 41 154 214 171 245 17 30 14 96 -17 376 -14 129 -12 200 5 200 8 0 66 -13 128 -29 236 -60 465 -108 671 -140 37 -6 95 -15 130 -21 114 -18 420 -49 602 -61 338 -23 959 -12 1210 21 l60 7 -51 2 c-65 1 -110 16 -156 52 -20 16 -39 29 -42 29 -3 0 -6 -13 -6 -30 l0 -30 -109 0 c-126 0 -121 -4 -121 103 0 116 1 117 79 118 l66 0 -50 20 c-63 26 -81 42 -96 86 -15 45 -4 95 28 134 43 51 105 69 218 65 61 -2 89 -8 117 -25z m-442 0 c5 -11 10 -84 10 -166 0 -138 1 -147 20 -152 18 -5 20 -14 20 -83 0 -50 -4 -81 -12 -87 -25 -19 -109 -35 -159 -31 -101 10 -129 58 -137 236 -4 97 -7 114 -23 123 -16 8 -19 22 -19 89 0 53 4 80 13 83 6 3 71 6 144 6 121 1 133 -1 143 -18z m-3589 -13 c9 -7 26 -31 39 -53 49 -86 60 -105 144 -244 47 -79 86 -147 86 -150 0 -4 -20 -39 -44 -78 -24 -39 -45 -75 -47 -80 -9 -21 -154 -260 -167 -275 -14 -16 -40 -18 -276 -18 -144 0 -266 4 -272 8 -13 9 -264 431 -264 444 0 9 174 305 247 421 l23 37 258 0 c192 0 262 -3 273 -12z m5027 -145 c-7 -37 -175 -103 -172 -68 1 16 78 66 115 75 53 12 61 11 57 -7z m1112 -69 c78 -66 115 -163 90 -238 -31 -96 -164 -121 -237 -44 -25 26 -28 36 -28 96 0 48 6 75 20 97 27 43 97 115 111 115 7 0 26 -12 44 -26z m268 -319 c59 -67 52 -143 -16 -172 -34 -14 -39 -14 -71 3 -58 31 -62 104 -9 168 37 45 58 45 96 1z m-5745 -15 c59 -16 114 -30 123 -30 8 0 31 -8 52 -19 20 -10 64 -24 97 -31 60 -12 171 -43 213 -60 26 -11 31 -44 5 -36 -10 3 -47 10 -83 16 -123 21 -175 32 -200 45 -14 7 -52 16 -85 20 -33 4 -82 13 -110 20 -27 7 -84 21 -126 30 -92 19 -119 35 -100 59 21 25 94 20 214 -14z m6518 -309 c22 -34 39 -65 39 -68 0 -2 14 -24 30 -48 17 -24 30 -46 30 -50 0 -4 14 -26 30 -50 17 -24 30 -46 30 -49 0 -3 14 -27 30 -53 17 -26 30 -55 30 -64 0 -17 -228 -408 -258 -441 -14 -16 -40 -18 -271 -18 -141 0 -261 4 -267 8 -9 6 -53 75 -94 147 -9 17 -51 87 -94 157 -42 71 -76 136 -76 146 0 16 131 244 232 405 l30 47 271 -2 270 -3 38 -64z m-6875 -282 c24 -6 47 -16 50 -21 16 -25 -86 -59 -112 -37 -8 6 -14 24 -14 40 0 33 8 35 76 18z m-308 -36 c11 -10 56 -80 101 -156 l81 -138 -28 -52 c-67 -122 -136 -233 -155 -249 -17 -16 -41 -18 -187 -18 l-168 0 -22 28 c-27 33 -170 277 -170 289 0 4 34 64 75 132 41 68 75 126 75 130 0 4 9 17 20 29 20 21 29 22 189 22 146 0 171 -2 189 -17z m898 -273 c23 -5 63 -6 91 -1 58 9 116 -5 121 -30 3 -14 -19 -17 -172 -23 -176 -7 -216 -2 -216 27 0 7 5 18 12 25 14 14 106 15 164 2z m3723 -241 c11 -17 33 -40 51 -50 34 -21 38 -55 7 -53 -10 1 -25 -9 -33 -22 -15 -22 -14 -26 9 -54 35 -41 43 -82 22 -114 -13 -19 -14 -28 -5 -38 7 -7 35 -51 64 -98 l52 -85 109 -5 109 -5 58 -95 c32 -52 58 -98 58 -102 0 -4 -17 -35 -37 -70 -21 -35 -45 -76 -54 -93 l-16 -30 -121 -3 c-121 -3 -121 -3 -142 -31 -11 -16 -20 -32 -20 -35 0 -3 -16 -30 -35 -61 l-36 -55 -119 0 -119 0 -37 63 c-79 134 -76 127 -62 156 7 14 32 58 56 98 23 39 42 74 42 78 0 4 -19 39 -42 78 -65 109 -64 100 -12 191 25 45 53 88 60 96 10 10 42 17 94 20 l80 5 -23 28 -22 29 -45 -26 c-25 -14 -57 -26 -72 -26 -66 0 -90 84 -44 152 l24 35 -29 28 c-41 38 -38 78 5 102 24 13 71 -1 103 -30 20 -17 27 -19 49 -8 17 8 24 17 20 27 -16 43 27 45 53 3z m861 -94 c10 -12 9 -16 -5 -21 -19 -8 -46 5 -53 24 -5 17 43 15 58 -3z m118 -16 c59 -13 93 -29 86 -41 -7 -11 -51 -9 -104 5 -51 14 -70 24 -70 38 0 12 30 11 88 -2z m237 -43 c31 -23 12 -46 -38 -46 -50 0 -83 19 -74 44 8 20 85 22 112 2z m-4377 -40 c41 -47 50 -91 25 -125 -42 -55 -111 -53 -145 6 -18 29 -18 34 -3 70 20 46 53 83 76 83 9 0 30 -15 47 -34z m-1657 -59 c27 -43 49 -80 49 -82 0 -3 18 -32 40 -66 22 -34 40 -67 40 -72 0 -6 -41 -80 -92 -164 l-92 -153 -177 0 c-155 0 -178 2 -191 18 -17 19 -178 287 -178 296 0 5 96 167 153 259 l29 47 186 -2 185 -3 48 -78z m1410 7 c17 -21 -3 -34 -52 -34 -20 0 -67 -6 -105 -14 -38 -8 -114 -22 -169 -31 -55 -8 -136 -22 -180 -30 -104 -19 -121 -19 -129 2 -14 35 6 40 277 73 142 17 312 42 316 46 9 9 29 3 42 -12z m-762 -80 c55 -11 34 -53 -35 -68 -59 -13 -87 42 -32 64 29 11 29 11 67 4z m1953 -163 l57 -94 -25 -46 c-91 -172 -78 -161 -203 -161 -124 0 -112 -8 -183 113 -53 90 -53 96 -7 164 16 23 29 45 29 49 0 4 12 22 26 41 l26 34 111 -3 111 -3 58 -94z m-1031 -33 c26 -42 50 -86 54 -97 4 -15 -10 -48 -52 -116 l-57 -95 -106 0 c-58 0 -110 4 -116 8 -17 10 -114 174 -114 192 0 22 103 189 119 192 7 2 61 1 119 -2 l106 -5 47 -77z m5395 34 c10 -6 38 -50 94 -147 10 -16 34 -58 54 -92 20 -34 36 -64 36 -68 0 -4 -19 -39 -42 -78 -23 -40 -49 -84 -58 -98 -8 -14 -28 -49 -45 -78 l-30 -51 -189 2 -189 3 -68 114 c-38 62 -69 116 -69 118 0 3 -9 18 -20 34 -25 33 -27 28 78 204 96 161 67 145 266 145 94 0 176 -4 182 -8z m-6410 -30 c11 -7 157 -246 176 -287 7 -17 -8 -49 -82 -173 l-91 -152 -184 0 -183 0 -92 153 -92 152 19 35 c59 105 157 266 167 272 6 4 88 8 181 8 94 0 175 -4 181 -8z m5351 -19 c4 -9 26 -49 50 -87 24 -39 43 -78 43 -89 0 -19 -33 -81 -82 -154 l-29 -43 -114 0 c-130 0 -112 -11 -194 125 -36 59 -41 73 -31 89 7 10 21 35 32 55 11 20 28 47 38 61 9 14 20 33 23 43 6 15 21 17 132 17 109 0 126 -2 132 -17z m-3693 -146 c83 -130 88 -146 56 -187 -11 -14 -20 -29 -20 -33 0 -4 -16 -32 -35 -62 l-35 -55 -113 0 -113 0 -50 82 c-75 126 -76 107 15 256 l33 52 114 0 114 0 34 -53z m3293 -117 c27 -30 39 -83 27 -118 -5 -14 -24 -34 -42 -45 -27 -16 -37 -17 -63 -8 -44 15 -58 38 -59 93 0 41 5 52 40 89 43 46 47 45 97 -11z m1385 -520 c48 -80 87 -150 88 -157 0 -7 -40 -79 -89 -160 l-88 -148 -184 0 -183 0 -27 40 c-50 75 -159 267 -155 273 2 4 43 73 91 155 l87 147 186 -2 186 -3 88 -145z m-6276 -46 c103 -110 96 -244 -13 -290 -44 -19 -77 -17 -123 6 -97 49 -92 184 10 291 49 52 73 50 126 -7z m6477 -312 c79 -85 103 -160 72 -226 -46 -96 -178 -114 -240 -32 -30 39 -34 112 -10 170 16 38 104 136 122 136 6 0 31 -22 56 -48z m-6482 -453 c46 -78 96 -162 112 -188 56 -94 67 -120 59 -138 -13 -32 -242 -411 -258 -427 -13 -14 -52 -16 -264 -16 -137 0 -255 3 -264 6 -9 3 -55 72 -103 153 -47 80 -106 179 -130 218 -23 40 -43 78 -43 84 0 6 8 23 19 37 10 15 20 32 22 37 2 6 53 92 113 193 l109 182 272 0 271 0 85 -141z m5971 53 c72 -77 95 -137 77 -204 -33 -126 -214 -140 -265 -20 -18 43 -13 96 16 150 22 43 97 122 115 122 7 0 33 -22 57 -48z m-502 -14 c38 -26 62 -84 58 -137 -3 -38 -12 -45 -83 -59 -27 -6 -63 -13 -78 -17 -24 -5 -29 -2 -38 25 -15 41 -29 38 -29 -8 0 -48 16 -70 55 -74 26 -3 30 -8 44 -61 9 -36 11 -61 5 -66 -5 -6 -52 -20 -104 -32 -151 -34 -183 -40 -191 -32 -4 5 -12 32 -18 62 -10 46 -9 57 5 72 14 15 14 23 2 65 -10 38 -19 49 -38 54 -19 4 -27 15 -32 40 -3 19 -9 45 -13 56 -9 27 -1 32 92 55 106 27 123 26 123 -8 l0 -28 24 35 c13 20 34 40 47 46 86 41 122 43 169 12z m-4785 -15 c54 -20 102 -57 121 -95 15 -28 15 -71 3 -143 -3 -16 4 -22 34 -29 33 -8 37 -13 37 -40 -1 -51 -40 -119 -80 -138 -68 -33 -160 14 -160 83 0 36 -10 36 -49 0 -38 -35 -85 -45 -144 -30 -133 33 -146 174 -23 230 30 13 36 19 24 24 -22 9 -41 58 -33 84 9 28 63 68 100 74 45 6 125 -3 170 -20z m3704 -94 c6 -18 11 -40 11 -50 0 -15 8 -17 79 -12 79 6 80 5 86 -19 4 -13 5 -44 3 -69 l-3 -44 -50 -6 c-81 -10 -95 -17 -95 -47 1 -15 7 -40 14 -57 l14 -30 7 32 c7 30 10 32 67 38 32 4 62 4 65 1 3 -3 6 -37 7 -75 0 -61 -3 -74 -24 -97 -37 -38 -87 -56 -160 -58 -52 -1 -71 3 -96 21 -40 28 -65 81 -73 152 -9 72 -14 81 -49 72 -22 -6 -26 -13 -24 -33 4 -35 -13 -44 -94 -52 -137 -12 -164 -24 -99 -46 28 -9 47 -9 88 1 28 7 56 16 62 21 5 4 17 8 26 8 13 0 18 -11 21 -52 3 -29 0 -61 -5 -71 -5 -11 -34 -30 -64 -44 -44 -20 -72 -26 -132 -26 -97 0 -149 24 -192 90 -25 41 -29 56 -29 122 0 92 28 148 93 184 115 66 224 51 290 -38 27 -37 29 -38 25 -13 -6 31 4 43 44 53 38 10 58 46 58 104 0 56 3 57 107 70 6 0 16 -13 22 -30z m-3316 -1 c69 -11 91 -28 68 -51 -6 -6 -11 -16 -11 -21 0 -6 4 -5 9 3 5 7 32 21 60 31 84 28 176 1 201 -60 16 -40 5 -114 -23 -145 l-22 -26 -87 17 -88 16 0 40 c0 48 -15 42 -30 -13 -14 -52 -6 -79 26 -79 20 0 24 -5 24 -31 0 -18 -5 -49 -12 -71 -11 -37 -14 -39 -42 -35 -239 40 -256 43 -267 54 -15 15 11 125 31 130 16 4 40 61 40 95 0 9 -10 22 -22 30 -22 15 -22 17 -9 69 18 71 18 72 55 65 17 -4 62 -12 99 -18z m3864 -5 c42 -19 69 -57 85 -116 9 -36 9 -50 1 -58 -12 -12 -66 -24 -156 -36 -55 -7 -66 -17 -36 -33 27 -15 107 -4 156 21 47 24 56 16 61 -58 l4 -58 -45 -28 c-125 -77 -260 -73 -340 11 -53 55 -72 166 -41 240 48 117 194 171 311 115z m-3212 -88 c63 -28 95 -82 95 -157 0 -82 -1 -83 -119 -68 -56 7 -104 10 -108 6 -26 -26 104 -61 164 -44 47 13 55 2 46 -63 -7 -49 -12 -56 -43 -71 -42 -21 -162 -24 -224 -6 -60 18 -118 81 -134 145 -32 125 47 255 168 276 38 7 121 -3 155 -18z m558 -59 c18 -7 42 -23 53 -34 24 -22 34 -19 34 10 0 15 8 18 44 18 24 0 58 -3 75 -6 l31 -6 0 -74 0 -74 -30 -6 -30 -6 30 -28 c26 -24 30 -35 30 -78 0 -39 -6 -57 -25 -80 -25 -30 -98 -62 -140 -62 -39 0 -115 32 -134 56 l-20 25 -3 -23 c-3 -20 -9 -23 -58 -26 -30 -2 -70 -1 -87 3 l-33 6 0 73 c0 80 7 92 55 98 27 4 28 5 10 13 -85 37 -82 146 4 192 51 27 142 31 194 9z m1320 -1 c73 -30 107 -81 107 -159 l0 -54 -100 -4 c-109 -3 -145 -18 -94 -39 27 -10 61 -8 178 13 16 2 22 -5 29 -41 14 -72 4 -85 -106 -130 -39 -15 -148 -14 -188 3 -90 37 -132 105 -133 207 0 56 4 73 27 107 63 96 183 138 280 97z m-783 -65 c0 -56 15 -57 36 -5 l17 46 46 -3 c45 -3 46 -4 66 -55 11 -29 23 -53 27 -53 5 0 8 25 8 55 l0 55 135 0 135 0 0 -68 c0 -59 -3 -68 -22 -77 -26 -12 -25 -12 -78 -147 -23 -59 -48 -112 -56 -119 -17 -14 -159 -5 -178 10 -6 5 -18 31 -25 57 l-14 48 -16 -46 c-9 -26 -21 -52 -27 -58 -7 -7 -45 -10 -99 -8 l-88 3 -43 115 c-24 63 -44 121 -44 127 0 7 -13 19 -30 28 -28 14 -30 20 -30 70 0 36 5 57 14 62 8 4 71 7 140 5 l126 -3 0 -39z m3064 -261 c75 -127 87 -154 79 -172 -20 -43 -166 -282 -177 -289 -6 -4 -88 -8 -183 -8 l-172 0 -19 28 c-23 32 -133 216 -155 259 -18 33 -16 37 105 236 l60 97 186 0 187 0 89 -151z m-4826 -16 l3 -43 43 0 c35 0 47 -5 60 -25 9 -13 16 -37 16 -53 0 -38 10 -46 27 -22 12 17 12 24 3 35 -19 23 11 61 53 69 69 13 137 -24 137 -74 0 -10 10 -20 22 -23 29 -8 35 -1 20 23 -7 11 -12 31 -12 45 0 23 3 25 50 25 32 0 50 -4 50 -12 0 -9 3 -9 12 0 7 7 29 12 50 12 31 0 40 -5 52 -28 8 -16 16 -55 18 -87 3 -56 2 -60 -23 -69 -15 -5 -35 -6 -45 -1 -25 10 -173 10 -198 0 -11 -5 -28 -2 -46 8 -24 14 -29 15 -46 2 -23 -18 -68 -19 -94 -3 -15 10 -22 10 -32 0 -13 -13 -64 -17 -71 -4 -6 8 -160 5 -220 -4 -55 -9 -87 15 -87 65 0 22 -6 44 -15 51 -22 18 -18 44 7 55 13 6 25 19 27 30 7 41 46 47 63 10 8 -18 19 -25 39 -25 19 0 30 -6 34 -20 8 -27 -11 -50 -41 -50 -12 0 -26 -4 -29 -10 -4 -6 8 -10 27 -10 19 0 39 -5 46 -12 9 -9 12 3 12 54 0 37 -4 70 -10 73 -14 9 -13 38 2 53 7 7 30 12 53 10 39 -3 40 -4 43 -45z m5484 0 c37 -42 179 -288 175 -304 -3 -9 -42 -80 -88 -157 -54 -91 -90 -143 -103 -146 -12 -3 -92 -6 -178 -6 -140 0 -160 2 -176 18 -16 16 -137 214 -170 278 -10 18 1 41 74 165 47 79 93 150 102 157 11 8 64 12 182 12 146 0 169 -2 182 -17z m-4361 -184 c136 -44 211 -124 250 -265 38 -139 15 -291 -60 -390 -66 -88 -156 -132 -288 -141 -163 -12 -310 66 -370 195 -45 97 -52 252 -16 362 39 122 114 197 238 238 41 14 204 15 246 1z m758 -101 c24 -51 47 -103 52 -115 5 -13 13 -33 18 -45 5 -13 15 -41 22 -63 6 -22 15 -49 20 -60 4 -11 10 -31 12 -45 2 -14 5 30 6 96 1 129 -1 134 -50 134 -17 0 -19 8 -19 95 l0 95 188 -2 187 -3 0 -90 0 -90 -40 -5 -40 -5 -3 -287 -2 -288 -155 0 -154 0 -39 58 c-67 98 -152 285 -152 334 0 9 -5 20 -10 23 -7 4 -10 -31 -8 -107 l3 -113 35 -5 35 -5 0 -90 0 -90 -197 -3 -198 -2 0 94 0 95 43 3 42 3 0 190 0 190 -40 5 -40 5 -3 93 -3 92 224 0 223 0 43 -92z m1236 -73 l0 -160 -101 -3 -101 -3 -5 46 c-7 60 -28 82 -88 90 -79 11 -90 3 -90 -61 0 -40 4 -54 14 -54 8 0 17 14 21 30 7 33 31 44 81 38 l29 -3 3 -143 3 -143 -53 3 c-50 3 -53 5 -58 33 -3 18 -11 30 -20 30 -11 0 -15 -13 -15 -55 l0 -55 65 -3 c85 -3 130 21 130 70 0 55 8 59 101 56 l84 -3 0 -155 0 -155 -387 -3 -388 -2 0 94 0 95 43 3 42 3 3 187 2 188 -22 4 c-13 3 -32 7 -43 8 -18 3 -20 12 -23 96 l-3 92 388 -2 388 -3 0 -160z m493 90 c4 -82 -3 -115 -23 -115 -22 0 -28 -19 -13 -38 21 -25 38 -69 39 -100 0 -21 4 -15 17 24 9 28 25 62 35 77 17 27 17 27 -6 36 -13 5 -27 17 -31 26 -8 21 -8 113 0 143 l6 22 230 0 229 0 -3 -92 -3 -93 -43 -6 c-50 -6 -50 -7 -182 -169 -97 -121 -100 -126 -98 -170 l3 -45 60 -5 60 -5 0 -90 0 -90 -265 0 -265 0 0 90 0 90 35 3 c74 5 80 9 80 52 0 32 -11 53 -67 127 -37 48 -69 90 -72 93 -4 3 -24 29 -46 58 -39 52 -51 59 -110 64 l-30 3 -3 79 c-2 44 -1 85 2 93 5 11 49 13 233 11 l228 -3 3 -70z m-4283 -60 c23 -38 83 -140 133 -224 l91 -155 -31 -55 c-18 -31 -78 -132 -133 -226 l-102 -170 -254 -3 c-140 -1 -263 0 -274 2 -11 3 -27 18 -36 33 -9 15 -66 114 -128 218 -100 168 -112 193 -103 216 5 14 65 119 132 233 l123 206 270 -2 270 -3 42 -70z m815 -19 c0 -85 -2 -94 -20 -99 -16 -4 -20 -14 -20 -47 l0 -41 58 3 57 3 3 38 c3 32 0 39 -17 44 -19 5 -21 13 -21 99 l0 94 215 0 215 0 0 -94 0 -95 -42 -3 -43 -3 0 -160 0 -160 43 -3 42 -3 0 -95 0 -94 -215 0 -215 0 0 94 c0 86 2 94 21 99 16 4 20 12 17 39 l-3 33 -55 0 -55 0 -3 -33 c-3 -27 1 -35 17 -39 19 -5 21 -13 21 -99 l0 -94 -217 2 -218 3 0 90 0 90 45 5 45 5 0 160 0 160 -45 5 -45 5 -3 79 c-2 44 -1 85 2 93 4 10 50 13 221 13 l215 0 0 -94z m-1769 -69 c49 -81 89 -152 89 -157 0 -9 -68 -128 -137 -240 l-40 -65 -179 -2 c-98 -2 -184 0 -189 5 -6 4 -50 73 -99 154 l-88 147 84 138 c45 76 85 142 87 148 9 22 33 25 205 22 l179 -2 88 -148z m6595 -85 c24 -16 184 -296 179 -313 -3 -10 -43 -80 -89 -156 l-83 -138 -185 -3 -185 -2 -80 132 c-45 73 -86 143 -92 156 -11 20 -3 38 70 160 44 75 88 145 97 155 13 15 36 17 186 17 94 0 176 -4 182 -8z m726 -392 c48 -80 87 -150 88 -156 0 -15 -169 -296 -184 -306 -6 -4 -88 -8 -182 -8 -150 0 -173 2 -186 18 -14 16 -134 215 -164 271 -15 28 -18 21 95 209 l73 122 186 -2 187 -3 87 -145z m-1252 -70 c22 -12 160 -240 160 -265 0 -9 -25 -58 -56 -108 -31 -51 -66 -107 -77 -125 l-19 -32 -161 2 -161 3 -78 131 -79 131 78 131 c43 72 85 133 93 136 32 8 282 5 300 -4z m-2840 -75 c8 -22 16 -25 62 -26 29 -1 67 -1 83 0 37 2 56 -17 75 -76 23 -74 29 -73 -301 -73 l-289 0 -1 28 -1 27 -10 -27 c-9 -27 -13 -28 -74 -28 -59 0 -64 2 -70 24 -3 13 0 34 6 46 9 18 9 28 0 45 -7 13 -10 35 -6 49 6 25 10 26 72 26 50 0 73 -5 94 -20 23 -16 46 -20 141 -21 90 -2 114 1 117 12 2 8 5 20 7 27 3 7 21 12 45 12 34 0 42 -4 50 -25z m375 3 c19 -9 28 -9 37 0 16 16 71 15 86 0 9 -9 15 -9 24 0 19 19 76 14 108 -9 l29 -22 45 22 c51 23 86 27 103 10 9 -9 19 -9 42 1 18 7 44 10 63 6 39 -8 50 -8 106 0 36 5 47 3 68 -17 20 -18 24 -32 24 -77 0 -72 -17 -92 -80 -92 -25 0 -51 5 -57 11 -8 8 -17 8 -31 0 -13 -7 -133 -10 -358 -8 l-339 2 -3 28 c-2 16 2 34 8 42 7 9 8 15 0 20 -5 3 -10 19 -10 36 0 23 6 32 33 43 40 18 69 19 102 4z m-2107 -16 c15 -10 182 -289 182 -305 0 -14 -148 -267 -173 -295 -20 -21 -27 -22 -183 -22 -89 0 -169 3 -178 6 -9 3 -48 61 -87 128 -40 66 -80 135 -90 152 l-19 31 86 144 c47 79 91 150 96 157 12 14 344 18 366 4z m4039 -102 c51 -82 73 -120 97 -167 6 -13 14 -23 19 -23 17 0 5 -49 -23 -93 -16 -26 -30 -49 -30 -51 0 -5 -99 -168 -111 -182 -9 -11 -50 -14 -190 -14 l-178 0 -19 28 c-19 27 -85 136 -135 224 -15 26 -27 52 -27 58 0 12 124 228 162 283 l20 27 181 -2 181 -3 53 -85z"
       id="path4"
       style="fill:#6495ed" />
    <path
       d="M3271 8209 c-7 -12 -21 -36 -31 -54 -10 -18 -39 -67 -65 -109 -25 -42 -45 -82 -43 -88 4 -10 121 179 140 223 4 9 17 24 30 33 21 15 21 16 3 16 -11 0 -26 -10 -34 -21z"
       id="path6"
       style="fill:#d8bfd8" />
    <path
       d="M3414 8215 c4 -11 -1 -15 -18 -15 -66 0 -82 -10 -121 -78 -21 -37 -51 -86 -67 -109 -34 -51 -34 -57 -3 -119 14 -27 22 -56 20 -66 -5 -14 9 -46 46 -107 13 -20 22 -21 153 -21 l139 0 39 40 c21 23 38 47 38 55 0 18 16 20 24 3 3 -7 3 -1 0 15 -6 27 9 38 20 15 3 -7 3 -3 0 10 -3 13 -1 29 6 37 6 7 22 35 35 62 13 26 24 40 24 31 1 -10 6 -18 11 -18 22 0 17 10 -79 173 l-64 107 -105 0 c-88 0 -103 -2 -98 -15z"
       id="path8"
       style="fill:#ff00ff" />
    <path
       d="M3730 7925 c0 -8 5 -15 10 -15 6 0 10 7 10 15 0 8 -4 15 -10 15 -5 0 -10 -7 -10 -15z"
       id="path10" />
    <path
       d="M3715 7890 c3 -5 8 -10 11 -10 2 0 4 5 4 10 0 6 -5 10 -11 10 -5 0 -7 -4 -4 -10z"
       id="path12" />
    <path
       d="M3200 7840 c0 -5 5 -10 10 -10 6 0 10 5 10 10 0 6 -4 10 -10 10 -5 0 -10 -4 -10 -10z"
       id="path14" />
    <path
       d="M6093 8011 c-13 -13 -23 -27 -23 -31 0 -4 -25 -48 -55 -98 -30 -50 -55 -99 -55 -109 0 -9 12 8 27 38 15 29 30 56 35 57 4 2 8 8 8 12 0 5 19 38 41 74 l41 66 87 -1 c92 -1 80 -16 -14 -18 l-51 -1 -64 -107 c-35 -60 -65 -111 -67 -115 -2 -4 3 -22 12 -39 10 -19 14 -42 11 -58 -5 -19 -4 -22 4 -11 8 12 10 11 10 -8 0 -28 34 -96 60 -122 17 -17 33 -20 108 -19 87 1 229 15 183 18 l-25 1 22 20 c11 11 33 41 48 66 20 34 29 42 36 32 7 -9 8 -8 4 5 -8 25 4 43 16 26 7 -10 8 -5 4 14 -6 27 7 38 18 15 3 -7 4 -1 1 14 -5 27 10 49 18 26 2 -7 4 2 5 21 0 24 -12 56 -41 105 -23 38 -51 86 -63 105 l-21 36 -149 5 c-147 5 -149 5 -171 -19z"
       id="path16"
       style="fill:#7fffd4" />
    <path
       d="M2642 7903 c-18 -27 -70 -114 -118 -199 -13 -23 -20 -44 -17 -48 3 -3 11 4 18 17 23 43 58 102 74 127 9 14 23 37 30 52 8 15 22 37 33 47 20 22 23 31 9 31 -5 0 -18 -12 -29 -27z"
       id="path18"
       style="fill:#d8bfd8" />
    <path
       d="M2815 7913 c-27 -8 -68 -18 -90 -21 -37 -7 -42 -12 -106 -117 -71 -116 -75 -125 -59 -153 24 -45 41 -92 36 -101 -6 -9 32 -88 57 -119 8 -10 43 -13 148 -10 129 3 139 4 163 27 14 14 26 30 26 38 0 7 3 13 8 13 4 0 12 10 18 23 34 68 104 179 104 165 0 -10 5 -18 10 -18 22 0 10 27 -85 190 -57 98 -60 100 -124 99 -31 0 -78 -8 -106 -16z"
       id="path20"
       style="fill:#ee82ee" />
    <path
       d="M3092 7604 c-7 -8 -12 -20 -10 -26 2 -6 12 1 21 16 19 28 11 35 -11 10z"
       id="path22" />
    <path
       d="M3065 7550 c3 -5 8 -10 11 -10 2 0 4 5 4 10 0 6 -5 10 -11 10 -5 0 -7 -4 -4 -10z"
       id="path24" />
    <path
       d="M2570 7540 c0 -5 5 -10 11 -10 5 0 7 5 4 10 -3 6 -8 10 -11 10 -2 0 -4 -4 -4 -10z"
       id="path26" />
    <path
       d="M3031 7484 c0 -11 3 -14 6 -6 3 7 2 16 -1 19 -3 4 -6 -2 -5 -13z"
       id="path28" />
    <path
       d="M1013 7905 c-7 -8 -13 -17 -13 -20 0 -4 -13 -26 -30 -50 -16 -24 -30 -46 -30 -50 0 -4 -13 -25 -28 -48 -47 -72 -57 -96 -44 -109 9 -9 12 -8 12 5 0 16 17 54 30 67 5 5 11 15 68 115 52 92 56 95 126 94 101 -2 123 -14 39 -22 -39 -4 -78 -9 -85 -12 -13 -5 -37 -42 -122 -188 l-28 -49 26 -54 c29 -59 30 -64 16 -64 -5 0 -10 7 -10 16 0 8 -4 13 -9 9 -9 -5 55 -121 87 -157 13 -15 32 -18 121 -17 58 0 129 4 156 7 45 6 50 10 47 30 -1 13 11 43 28 67 16 24 30 48 30 54 0 15 18 14 23 -1 2 -7 2 -3 0 10 -2 13 6 36 17 52 11 15 20 32 20 36 0 4 7 15 16 25 15 16 10 27 -58 141 l-73 123 -160 2 c-129 2 -162 0 -172 -12z m327 -505 c0 -5 -10 -10 -22 -10 -19 0 -20 2 -8 10 19 13 30 13 30 0z"
       id="path30"
       style="fill:#7fffd4" />
    <path
       d="M1470 7625 c0 -8 5 -15 10 -15 6 0 10 7 10 15 0 8 -4 15 -10 15 -5 0 -10 -7 -10 -15z"
       id="path32" />
    <path
       d="M896 7578 c12 -22 19 -28 22 -18 3 7 0 16 -6 18 -7 2 -12 10 -12 18 0 8 -5 14 -10 14 -6 0 -3 -15 6 -32z"
       id="path34" />
    <path
       d="M1711 7549 c-26 -28 -26 -49 -2 -97 39 -74 71 -102 126 -108 78 -8 84 2 51 80 -52 121 -127 176 -175 125z"
       id="path36"
       style="fill:#9acd32" />
    <path
       d="M1973 7352 c-22 -17 -22 -18 -6 -72 20 -71 28 -80 61 -71 25 7 39 31 41 73 1 17 -54 88 -68 88 -3 0 -16 -8 -28 -18z"
       id="path38"
       style="fill:#d2691e" />
    <path
       d="M1774 7304 c4 -10 21 -58 38 -106 17 -49 34 -88 39 -88 4 0 16 10 26 23 10 13 30 31 46 41 30 20 34 49 15 103 -11 31 -15 33 -59 33 -25 0 -61 3 -79 7 -30 5 -33 4 -26 -13z m98 -26 c32 -37 38 -96 10 -106 -13 -4 -38 47 -49 99 -7 35 11 39 39 7z"
       id="path40"
       style="fill:#d2691e" />
    <path
       d="M1663 7298 c-20 -9 -21 -13 -8 -22 16 -12 75 -166 75 -197 0 -19 16 -24 43 -14 11 5 7 26 -25 110 -21 58 -38 112 -38 120 0 17 -15 18 -47 3z"
       id="path42"
       style="fill:#d2691e" />
    <path
       d="M1572 7223 c-56 -81 -28 -141 79 -168 l27 -7 -37 101 c-20 55 -39 101 -43 101 -4 0 -15 -12 -26 -27z"
       id="path44"
       style="fill:#d2691e" />
    <path
       d="M1916 7139 c-41 -49 -50 -82 -41 -149 12 -89 75 -130 121 -79 39 43 8 269 -36 269 -5 0 -24 -19 -44 -41z"
       id="path46"
       style="fill:#9acd32" />
    <path
       d="M7668 7405 c-70 -26 -238 -153 -238 -180 0 -24 78 -59 158 -71 50 -7 113 13 180 59 84 56 104 126 53 178 -24 23 -38 29 -73 28 -24 0 -60 -7 -80 -14z"
       id="path48"
       style="fill:#9acd32" />
    <path
       d="M7300 7314 c-14 -8 -32 -11 -41 -8 -22 6 -89 -57 -89 -84 0 -12 -5 -33 -12 -47 -11 -24 -9 -29 18 -50 38 -32 52 -31 95 8 20 17 56 48 80 68 l44 37 -22 24 c-13 13 -23 29 -23 35 0 22 -25 30 -50 17z"
       id="path50"
       style="fill:#d2691e" />
    <path
       d="M7324 7131 c-55 -54 -59 -61 -46 -78 24 -31 52 -99 62 -153 30 -156 244 -297 382 -251 63 21 73 41 72 145 0 81 -3 97 -28 141 -48 84 -159 185 -205 185 -9 0 -47 16 -85 35 -37 19 -73 35 -80 35 -6 0 -38 -27 -72 -59z m183 -28 c4 -11 -134 -138 -151 -138 -6 0 -11 6 -10 13 1 6 2 20 3 30 2 30 54 82 96 97 43 15 57 15 62 -2z m136 -49 c15 -14 27 -29 25 -34 -5 -12 -240 -230 -249 -230 -9 0 -49 55 -49 68 0 10 226 222 238 222 4 0 20 -12 35 -26z m101 -116 c9 -12 16 -32 16 -43 0 -27 -187 -204 -216 -205 -32 0 -69 33 -58 52 11 18 226 217 236 218 4 0 14 -10 22 -22z"
       id="path52"
       style="fill:#d2691e" />
    <path
       d="M7157 6978 c-73 -78 -111 -136 -132 -199 -16 -46 -16 -51 2 -87 60 -124 197 -47 273 154 9 25 8 41 -5 81 -20 62 -51 113 -67 113 -7 0 -39 -28 -71 -62z"
       id="path54"
       style="fill:#9acd32" />
    <path
       d="M1250 6759 c-67 -84 -79 -157 -34 -203 21 -21 36 -26 73 -26 49 1 71 12 89 47 27 49 8 120 -48 181 -36 40 -49 40 -80 1z"
       id="path56"
       style="fill:#ff00ff" />
    <path
       d="M4482 6495 c-30 -13 -52 -47 -52 -80 0 -7 12 -27 26 -44 22 -27 33 -31 73 -31 105 0 138 117 44 157 -40 16 -49 16 -91 -2z"
       id="path58"
       style="fill:#6a5acd" />
    <path
       d="M3560 6390 c0 -44 3 -50 21 -50 11 0 29 -5 40 -10 18 -10 19 -23 19 -208 0 -213 -2 -222 -52 -222 -27 0 -28 -2 -28 -50 l0 -50 165 0 165 0 0 45 c0 34 -5 48 -20 57 -17 11 -20 24 -20 90 l0 78 90 0 90 0 0 -79 c0 -71 -2 -80 -20 -86 -16 -5 -20 -15 -20 -56 l0 -49 165 0 165 0 0 50 c0 48 -1 50 -28 50 -50 0 -52 9 -52 220 0 211 2 220 52 220 27 0 28 2 28 50 l0 50 -165 0 -165 0 0 -49 c0 -41 4 -51 20 -56 19 -6 21 -14 18 -93 l-3 -87 -85 0 -85 0 -3 87 c-3 79 -1 87 18 93 16 5 20 15 20 56 l0 49 -165 0 -165 0 0 -50z"
       id="path60"
       style="fill:#6a5acd" />
    <path
       d="M4868 6243 c-16 -2 -44 -19 -63 -37 -28 -27 -35 -41 -35 -70 0 -82 41 -104 212 -115 129 -8 148 -16 148 -67 0 -45 -22 -64 -76 -64 -35 0 -44 -3 -44 -18 0 -51 69 -92 155 -92 127 0 213 84 182 177 -19 57 -55 73 -191 82 -90 6 -120 11 -136 26 -26 23 -26 59 1 86 17 17 30 20 65 16 36 -4 44 -2 44 12 0 18 -40 52 -74 63 -23 7 -145 7 -188 1z"
       id="path62"
       style="fill:#6a5acd" />
    <path
       d="M5210 6197 c0 -47 -14 -73 -45 -80 -11 -3 23 -4 75 -4 l95 2 3 63 3 62 -66 0 -65 0 0 -43z"
       id="path64"
       style="fill:#6a5acd" />
    <path
       d="M5052 6128 c-25 -25 -7 -48 39 -48 12 0 19 7 19 18 0 20 -18 42 -35 42 -6 0 -16 -5 -23 -12z"
       id="path66"
       style="fill:#6495ed" />
    <path
       d="M5020 5962 c0 -38 46 -56 70 -27 18 21 -4 45 -41 45 -21 0 -29 -5 -29 -18z"
       id="path68"
       style="fill:#6495ed" />
    <path
       d="M4787 5933 c-4 -3 -7 -35 -7 -70 l0 -64 78 3 77 3 5 55 c4 48 8 55 28 58 12 2 20 8 17 13 -7 10 -188 13 -198 2z"
       id="path70"
       style="fill:#483d8b" />
    <path
       d="M2464 5799 c4 -60 13 -173 21 -251 7 -78 10 -149 7 -157 -6 -16 -126 -192 -227 -333 -30 -42 -55 -81 -55 -85 0 -9 287 -80 480 -118 249 -50 305 -61 405 -75 44 -6 105 -15 135 -20 30 -5 100 -14 155 -20 55 -6 134 -15 175 -20 462 -57 1249 -56 1750 1 200 22 269 31 328 39 122 18 208 32 252 40 25 5 72 13 105 19 308 56 661 141 658 159 -1 6 -66 101 -144 212 l-142 202 12 137 c6 75 17 189 23 254 6 64 9 119 7 121 -2 3 -29 -2 -59 -10 -249 -67 -675 -149 -945 -183 -374 -47 -514 -55 -965 -55 -470 -1 -584 6 -975 55 -179 22 -460 70 -630 108 -22 5 -74 16 -115 25 -41 9 -117 27 -169 40 l-94 25 7 -110z m3825 -166 c10 -37 24 -100 35 -155 7 -33 1 -37 -89 -58 l-70 -17 45 -12 c97 -28 134 -51 160 -101 19 -35 17 -128 -4 -168 -40 -78 -139 -132 -241 -132 -62 0 -98 13 -137 49 -16 13 -28 21 -29 15 0 -5 -1 -27 -2 -48 -2 -39 -2 -40 -57 -53 -30 -7 -73 -17 -95 -22 -46 -11 -61 -3 -68 37 -2 15 -12 64 -22 109 -9 46 -15 89 -12 97 3 7 20 16 39 19 112 20 124 23 98 30 -14 3 -45 8 -69 11 -56 6 -90 31 -118 86 -49 95 -13 190 92 243 34 17 147 47 176 47 33 0 116 -30 137 -50 26 -24 33 -16 26 30 l-6 37 48 12 c27 7 63 16 79 21 61 17 73 13 84 -27z m-3614 6 c28 -6 69 -14 93 -20 23 -5 53 -9 66 -9 59 0 65 -16 45 -110 -10 -46 -13 -50 -40 -50 -33 0 -33 3 -14 -75 8 -33 15 -78 15 -99 0 -38 1 -37 48 55 42 81 46 95 33 103 -25 15 -28 25 -20 64 5 20 11 50 14 66 7 32 -3 31 145 6 36 -7 86 -15 113 -19 67 -11 72 -18 56 -92 -12 -54 -18 -64 -39 -69 -18 -5 -24 -12 -22 -26 2 -10 8 -52 14 -91 6 -40 14 -73 18 -73 5 0 13 14 19 31 6 16 24 50 41 75 37 55 37 60 4 68 -24 6 -25 10 -19 49 9 62 25 107 37 107 10 0 274 -46 317 -56 23 -5 23 -8 17 -62 l-7 -57 43 42 c64 63 125 86 226 85 73 0 91 -4 148 -32 45 -22 75 -45 95 -73 55 -75 63 -103 63 -217 0 -91 -4 -112 -26 -161 -29 -64 -74 -110 -138 -141 -68 -33 -214 -31 -290 4 -142 66 -198 204 -155 383 19 79 20 75 -20 75 -36 0 -36 0 -125 -155 -9 -16 -32 -55 -50 -85 -18 -30 -44 -75 -58 -100 -44 -81 -51 -85 -124 -71 -152 29 -173 34 -180 45 -4 6 -8 34 -8 61 -1 28 -4 68 -8 89 -8 44 -2 52 -61 -78 -27 -59 -34 -67 -54 -63 -12 3 -66 13 -120 22 -110 20 -111 20 -127 120 -13 80 -28 165 -40 230 -6 33 -14 78 -17 100 -7 47 -19 65 -43 65 -31 0 -39 21 -29 84 6 33 12 63 15 68 6 9 61 4 149 -13z m2795 -166 c66 -29 102 -64 135 -130 26 -52 29 -68 29 -163 1 -81 -3 -112 -16 -136 -60 -109 -141 -150 -343 -173 -55 -7 -135 -16 -179 -22 -54 -7 -82 -7 -89 0 -6 6 -11 41 -11 78 -1 67 -1 68 27 71 32 4 33 14 16 167 -16 149 -15 145 -49 145 -38 0 -50 23 -50 94 0 66 -12 61 175 81 172 18 297 14 355 -12z m-780 -25 c30 -7 63 -23 80 -39 34 -33 54 -98 45 -145 -7 -38 -49 -94 -71 -94 -25 0 -15 -16 19 -28 19 -7 46 -26 61 -43 20 -23 31 -28 39 -20 16 16 62 13 77 -4 17 -21 5 -135 -18 -177 -37 -66 -153 -98 -233 -64 -68 28 -99 85 -99 178 0 37 -5 50 -22 62 -40 28 -49 21 -46 -36 3 -46 6 -53 28 -58 24 -6 25 -9 25 -75 l0 -70 -50 -7 c-27 -3 -109 -7 -181 -7 l-131 -1 -7 64 c-8 80 -2 96 35 96 l29 0 0 150 c0 145 -1 150 -21 150 -48 0 -59 16 -59 90 0 39 1 71 3 71 1 1 83 5 182 8 99 4 199 8 222 9 23 1 65 -3 93 -10z"
       id="path72"
       style="fill:#1e90ff" />
    <path
       d="M6181 5625 c-35 -8 -66 -17 -69 -20 -3 -3 1 -30 8 -60 10 -41 10 -59 2 -67 -15 -15 -41 -3 -51 25 -5 13 -27 34 -48 47 -31 19 -52 23 -115 23 -66 0 -85 -5 -144 -34 -84 -42 -108 -79 -100 -154 6 -54 29 -92 67 -113 24 -13 126 -12 275 4 49 5 63 3 77 -11 25 -24 21 -62 -9 -90 -34 -32 -65 -32 -103 1 l-31 26 -101 -18 c-56 -10 -103 -23 -105 -29 -2 -6 4 -51 14 -100 l18 -90 35 1 c62 3 121 17 126 30 2 7 -1 38 -7 70 -10 46 -10 58 2 65 22 14 27 11 55 -35 32 -54 76 -76 147 -76 166 0 282 136 218 259 -28 55 -87 81 -183 81 -44 0 -100 -5 -123 -11 -60 -15 -106 8 -106 51 0 68 80 93 132 43 27 -25 30 -26 76 -16 26 7 71 17 100 23 28 7 54 15 56 19 8 12 -33 172 -43 170 -3 0 -35 -7 -70 -14z"
       id="path74"
       style="fill:#2e8b57" />
    <path
       d="M5973 5433 c-7 -2 -13 -16 -13 -29 0 -22 4 -24 51 -24 48 0 50 1 43 23 -10 34 -43 46 -81 30z"
       id="path76"
       style="fill:#1e90ff" />
    <path
       d="M5985 5245 c-22 -7 -35 -13 -28 -14 6 -1 14 -10 18 -20 7 -23 39 -33 71 -21 26 10 32 38 12 58 -14 14 -22 14 -73 -3z"
       id="path78"
       style="fill:#1e90ff" />
    <path
       d="M2540 5590 c-11 -42 -7 -60 14 -60 35 0 45 -27 76 -210 31 -186 46 -252 59 -280 8 -15 109 -38 173 -39 35 -1 39 2 57 42 10 23 28 63 40 90 37 82 65 60 74 -58 3 -45 9 -88 12 -96 3 -9 32 -19 78 -28 146 -25 130 -27 160 18 15 22 27 43 27 47 0 3 8 18 19 32 10 15 28 44 40 65 11 20 29 52 40 70 10 17 37 64 59 102 39 68 41 70 76 67 30 -2 36 0 36 16 0 11 3 33 6 49 5 28 3 31 -28 36 -18 3 -60 11 -93 17 -176 32 -179 32 -187 -28 -4 -30 -1 -34 29 -47 18 -8 33 -17 33 -21 0 -3 -13 -23 -28 -43 -45 -57 -76 -121 -96 -196 -8 -30 -16 -40 -31 -40 -18 0 -21 9 -26 110 -6 101 -15 151 -34 198 -6 14 -1 17 29 17 38 0 40 3 50 56 4 28 2 33 -22 42 -15 6 -49 13 -77 17 -27 4 -72 11 -100 15 -61 9 -75 0 -75 -50 0 -32 4 -39 25 -44 31 -8 32 -25 4 -57 -29 -33 -62 -101 -88 -181 -23 -71 -26 -74 -51 -58 -11 7 -14 26 -11 84 2 52 -3 97 -18 150 -12 42 -21 78 -21 81 0 3 17 5 39 5 38 0 38 1 44 43 3 23 2 45 -2 50 -4 4 -32 12 -62 17 -30 5 -92 16 -139 24 -47 9 -88 16 -92 16 -4 0 -12 -18 -18 -40z"
       id="path80"
       style="fill:#2e8b57" />
    <path
       d="M3803 5450 c-85 -18 -146 -69 -184 -155 -27 -62 -33 -219 -10 -275 40 -96 121 -149 241 -158 205 -14 320 106 308 322 -7 128 -58 208 -159 250 -45 18 -144 27 -196 16z m123 -154 c24 -20 28 -32 32 -90 2 -36 1 -86 -2 -110 -14 -88 -89 -126 -141 -70 -22 24 -25 36 -25 103 0 87 18 147 50 173 30 24 53 23 86 -6z"
       id="path82"
       style="fill:#2e8b57" />
    <path
       d="M3854 5276 c-30 -21 -52 -141 -35 -196 14 -46 41 -66 70 -51 42 23 64 164 34 221 -21 40 -39 47 -69 26z"
       id="path84"
       style="fill:#1e90ff" />
    <path
       d="M5209 5466 c-2 -3 -56 -9 -118 -15 -63 -6 -118 -14 -123 -19 -5 -5 -5 -26 0 -48 7 -35 11 -39 40 -42 18 -2 35 -9 37 -15 7 -18 35 -267 35 -308 0 -33 -3 -37 -30 -42 -28 -6 -30 -10 -30 -51 0 -48 8 -55 55 -50 199 21 248 27 295 36 168 32 240 113 240 267 0 149 -59 240 -177 276 -43 13 -213 21 -224 11z m167 -131 c36 -46 57 -222 32 -268 -26 -46 -101 -78 -125 -54 -6 7 -19 86 -29 176 -19 186 -19 185 56 177 33 -3 50 -11 66 -31z"
       id="path86"
       style="fill:#2e8b57" />
    <path
       d="M5274 5273 c26 -259 25 -254 74 -229 38 20 45 49 36 156 -8 106 -28 140 -81 140 l-36 0 7 -67z"
       id="path88"
       style="fill:#1e90ff" />
    <path
       d="M4380 5421 l-155 -6 -3 -47 c-3 -46 -3 -47 30 -50 l33 -3 8 -95 c4 -52 6 -133 5 -180 l-3 -85 -30 -5 c-28 -5 -30 -8 -30 -50 l0 -45 125 -3 c69 -2 140 0 158 3 32 6 33 7 30 53 -3 40 -6 47 -28 52 -23 5 -25 10 -28 78 l-3 72 44 0 c64 0 87 -28 87 -107 0 -100 49 -153 142 -153 103 0 158 54 158 155 0 38 -3 45 -20 45 -14 0 -20 -7 -20 -24 0 -34 -24 -51 -44 -31 -9 9 -16 26 -16 38 0 50 -65 97 -132 97 -25 0 -29 4 -26 22 2 16 14 25 42 33 76 22 105 90 72 170 -29 68 -87 78 -396 66z m218 -127 c28 -19 29 -65 2 -89 -14 -13 -37 -19 -68 -19 l-47 -1 -3 49 c-2 27 -1 55 2 62 7 19 86 18 114 -2z"
       id="path90"
       style="fill:#2e8b57" />
    <path
       d="M4512 5248 c3 -29 7 -33 32 -33 32 0 53 23 43 49 -4 11 -18 16 -42 16 -35 0 -36 -1 -33 -32z"
       id="path92"
       style="fill:#1e90ff" />
    <path
       d="M3127 4660 c-55 -35 -59 -54 -16 -69 43 -15 43 -15 78 15 35 29 40 59 12 74 -25 13 -20 14 -74 -20z"
       id="path94"
       style="fill:#ff4500" />
    <path
       d="M2967 4612 c-23 -26 -21 -49 5 -58 29 -9 75 40 57 62 -16 19 -43 18 -62 -4z"
       id="path96"
       style="fill:#ff4500" />
    <path
       d="M4079 4579 c-21 -29 -21 -34 -8 -58 28 -50 41 -51 367 -49 l304 3 19 24 c25 31 24 65 -3 91 -21 19 -34 20 -339 20 l-318 0 -22 -31z"
       id="path98"
       style="fill:#9370db" />
    <path
       d="M3021 4557 c-12 -14 -19 -30 -15 -40 4 -13 11 -10 34 16 21 24 32 29 40 21 8 -8 3 -18 -19 -37 -17 -14 -31 -34 -31 -43 0 -13 12 -7 45 26 25 24 45 47 45 50 0 8 -47 30 -64 30 -7 0 -22 -11 -35 -23z"
       id="path100"
       style="fill:#ff4500" />
    <path
       d="M3108 4468 c-27 -28 -45 -54 -42 -60 6 -10 114 89 114 104 0 19 -29 2 -72 -44z"
       id="path102"
       style="fill:#ff4500" />
    <path
       d="M2954 4493 c-37 -32 -57 -82 -45 -109 18 -40 54 -26 85 35 12 23 12 30 -3 59 -17 32 -17 32 -37 15z"
       id="path104"
       style="fill:#ff4500" />
    <path
       d="M4761 4464 l-34 -24 -300 0 c-288 0 -301 1 -338 22 -34 19 -41 20 -66 7 -40 -20 -112 -73 -113 -81 0 -5 234 -8 520 -8 286 0 520 3 520 6 0 13 -107 89 -135 97 -12 3 -33 -4 -54 -19z"
       id="path106"
       style="fill:#483d8b" />
    <path
       d="M3161 4426 c-18 -19 -30 -39 -26 -45 7 -13 75 49 75 68 0 19 -15 12 -49 -23z"
       id="path108"
       style="fill:#ff4500" />
    <path
       d="M3700 4318 c-26 -29 -25 -59 3 -86 l23 -22 700 0 c777 0 744 -3 744 64 0 70 42 66 -743 66 l-706 0 -21 -22z"
       id="path110"
       style="fill:#483d8b" />
    <path
       d="M2841 4300 c-62 -9 -60 -8 -107 -85 -41 -69 -42 -98 -3 -180 l24 -50 70 -3 c121 -5 127 -2 181 90 l48 81 -24 41 c-62 109 -69 116 -103 115 -17 -1 -56 -5 -86 -9z"
       id="path112"
       style="fill:#8a2be2" />
    <path
       d="M3747 4168 c-19 -15 -40 -66 -31 -79 8 -13 1434 -12 1434 1 0 6 -5 20 -12 33 -6 12 -14 29 -18 37 -6 13 -94 15 -682 18 -529 2 -678 -1 -691 -10z"
       id="path114"
       style="fill:#9370db" />
    <path
       d="M3608 4039 c-38 -28 -39 -79 -2 -108 27 -21 33 -21 818 -21 771 0 792 1 824 20 32 20 40 47 26 85 -18 45 -15 45 -851 45 -779 -1 -788 -1 -815 -21z"
       id="path116"
       style="fill:#483d8b" />
    <path
       d="M4417 3882 l-738 -2 3 -43 3 -42 740 -3 c407 -1 745 0 750 2 14 5 6 84 -8 88 -7 2 -344 2 -750 0z"
       id="path118"
       style="fill:#9370db" />
    <path
       d="M3610 3747 c-35 -18 -40 -77 -9 -106 23 -21 25 -21 825 -21 796 0 801 0 828 21 30 23 34 63 10 94 -15 20 -28 20 -822 22 -636 2 -812 0 -832 -10z"
       id="path120"
       style="fill:#483d8b" />
    <path
       d="M2601 3706 c-44 -46 -47 -121 -7 -148 18 -13 71 -9 91 6 28 20 25 82 -5 128 -29 44 -48 47 -79 14z"
       id="path122"
       style="fill:#8a2be2" />
    <path
       d="M3292 3723 c-37 -4 -47 -10 -77 -51 -19 -26 -35 -53 -35 -59 0 -7 -4 -13 -9 -13 -5 0 -12 -13 -16 -28 -7 -32 38 -148 65 -169 24 -20 140 -16 175 5 33 20 105 133 105 164 0 11 -18 51 -40 89 -45 77 -37 73 -168 62z"
       id="path124"
       style="fill:#ffff00" />
    <path
       d="M3682 3548 l3 -43 750 0 750 0 3 43 3 42 -756 0 -756 0 3 -42z"
       id="path126"
       style="fill:#9370db" />
    <path
       d="M3620 3463 c-41 -15 -55 -87 -22 -116 17 -16 89 -17 828 -17 802 0 810 0 832 20 28 26 28 71 1 96 -20 18 -50 19 -823 21 -440 1 -808 -1 -816 -4z"
       id="path128"
       style="fill:#9370db" />
    <path
       d="M2156 3418 c-8 -52 -3 -55 94 -63 41 -3 102 -10 135 -15 33 -5 101 -14 150 -20 225 -29 452 -76 502 -105 27 -15 26 -16 -42 -10 -38 3 -99 10 -135 15 -36 5 -114 14 -175 20 -60 6 -141 15 -180 20 -151 20 -356 33 -364 24 -5 -5 -11 -26 -14 -46 -7 -44 -6 -44 108 -53 158 -12 593 -64 670 -80 106 -22 35 -29 -179 -17 -288 17 -577 32 -604 32 -23 0 -41 -30 -57 -92 l-6 -25 198 -7 c373 -12 655 -52 1023 -142 218 -53 359 -99 574 -186 151 -61 374 -167 474 -226 111 -66 103 -65 158 -30 68 43 358 187 484 241 219 93 567 199 810 247 282 57 448 76 785 93 267 13 251 7 219 82 l-14 35 -128 -5 c-70 -3 -217 -10 -327 -15 -110 -6 -242 -12 -293 -15 -71 -3 -93 -2 -89 8 2 6 26 15 53 19 27 3 85 11 129 17 106 14 439 51 540 59 78 7 80 8 83 34 2 15 -2 36 -8 47 -10 19 -17 20 -103 16 -86 -5 -124 -9 -347 -34 -47 -6 -130 -15 -185 -21 -55 -6 -133 -16 -172 -21 -97 -14 -130 2 -52 24 120 34 335 73 529 97 52 6 125 16 162 21 37 5 85 9 107 9 l41 0 0 50 c0 35 -4 52 -14 56 -33 13 -434 -39 -641 -83 -566 -118 -1043 -311 -1483 -600 l-142 -94 -93 64 c-161 113 -394 244 -577 325 -118 52 -151 66 -225 93 -44 17 -102 39 -130 49 -27 11 -102 35 -165 54 -320 96 -557 143 -895 181 -190 21 -181 23 -189 -27z"
       id="path130"
       style="fill:#7b68ee" />
    <path
       d="M3694 3286 c-3 -8 -4 -26 -2 -41 l3 -26 740 0 740 0 0 38 0 38 -738 3 c-630 2 -738 0 -743 -12z"
       id="path132"
       style="fill:#483d8b" />
    <path
       d="M3795 3180 c-3 -5 49 -38 117 -72 l123 -63 395 0 395 0 127 65 c81 41 123 67 115 72 -18 12 -1265 10 -1272 -2z"
       id="path134"
       style="fill:#483d8b" />
    <path
       d="M4115 3006 c11 -8 87 -60 170 -115 139 -93 151 -99 170 -86 65 48 276 185 283 185 6 0 12 7 16 15 5 13 -36 15 -326 15 -292 0 -330 -2 -313 -14z"
       id="path136"
       style="fill:#483d8b" />
    <path
       d="M4400 6185 c0 -48 2 -55 20 -55 19 0 20 -7 20 -121 0 -202 20 -234 139 -227 87 5 97 13 93 76 -3 39 -8 51 -23 55 -18 5 -19 16 -19 166 l0 161 -115 0 -115 0 0 -55z"
       id="path138"
       style="fill:#6a5acd" />
    <path
       d="M547 6178 c-87 -141 -217 -367 -217 -377 0 -6 25 -53 55 -103 30 -50 55 -93 55 -95 0 -3 14 -24 30 -48 17 -24 30 -46 30 -49 0 -2 14 -27 31 -55 l32 -51 241 0 242 0 31 53 c151 251 203 341 203 349 0 6 -8 22 -19 36 -10 15 -20 32 -22 37 -2 6 -46 81 -98 168 l-94 157 -243 0 c-242 0 -244 0 -257 -22z m343 -8 c-19 -5 -91 -13 -159 -19 -69 -6 -126 -13 -127 -14 -3 -4 -86 -140 -104 -172 -10 -16 -37 -63 -60 -103 l-43 -73 57 -114 c59 -119 65 -136 41 -111 -8 8 -15 19 -15 25 0 6 -4 11 -10 11 -5 0 -10 7 -10 15 0 8 -4 15 -10 15 -5 0 -10 4 -10 9 0 5 -18 39 -40 75 -22 36 -40 72 -40 80 0 14 191 338 218 369 13 15 35 17 181 16 109 -1 154 -4 131 -9z"
       id="path140"
       style="fill:#7fffd4" />
    <path
       d="M7133 5988 c-68 -74 -84 -167 -38 -213 37 -37 106 -35 146 4 47 47 38 111 -28 199 -28 38 -52 41 -80 10z"
       id="path142"
       style="fill:#ff00ff" />
    <path
       d="M7396 5687 c-29 -38 -34 -88 -11 -107 23 -19 77 -14 93 7 18 24 8 80 -19 109 -29 31 -33 30 -63 -9z"
       id="path144"
       style="fill:#ff00ff" />
    <path
       d="M7693 5398 c-16 -19 -218 -360 -225 -380 -5 -11 31 -79 103 -199 60 -101 117 -191 126 -201 15 -16 38 -18 242 -18 124 0 231 4 237 8 6 4 63 94 127 201 l116 194 -24 46 c-13 25 -66 116 -118 201 l-95 155 -239 3 c-185 2 -243 -1 -250 -10z m245 -18 c40 0 61 -4 57 -10 -3 -6 -48 -10 -99 -10 -135 0 -146 -4 -183 -61 -18 -27 -33 -51 -33 -55 0 -3 -13 -25 -30 -49 -16 -24 -30 -46 -30 -49 0 -3 -18 -34 -40 -68 -22 -35 -40 -71 -40 -82 0 -10 23 -61 50 -114 52 -99 57 -112 40 -112 -5 0 -10 7 -10 15 0 8 -4 15 -10 15 -5 0 -10 7 -10 15 0 8 -4 15 -10 15 -5 0 -10 5 -10 11 0 6 -10 24 -21 41 -12 16 -32 50 -45 75 l-23 46 27 46 c121 208 199 331 212 335 8 3 44 3 80 1 36 -3 93 -5 128 -5z"
       id="path146"
       style="fill:#7fffd4" />
    <path
       d="M725 5042 c-6 -4 -36 -50 -67 -102 -30 -52 -65 -112 -78 -132 -12 -21 -17 -38 -12 -38 10 0 22 19 56 87 6 13 14 23 19 23 4 0 7 4 7 9 0 16 74 132 90 141 9 5 54 6 101 1 l84 -7 -82 -8 c-55 -6 -87 -14 -96 -25 -8 -9 -42 -62 -76 -118 l-61 -101 20 -47 c11 -26 18 -56 15 -66 -5 -14 -2 -17 9 -13 11 4 13 0 9 -14 -5 -20 39 -109 62 -124 5 -4 78 -8 161 -8 134 0 153 2 167 18 10 10 17 21 17 24 0 3 29 53 65 112 36 58 65 113 65 121 0 13 -99 185 -142 248 l-19 27 -152 0 c-84 0 -157 -4 -162 -8z"
       id="path148"
       style="fill:#ff00ff" />
    <path
       d="M5473 4543 c-21 -8 -15 -50 10 -66 41 -27 97 -26 97 2 0 28 -78 74 -107 64z"
       id="path150"
       style="fill:#ff4500" />
    <path
       d="M5625 4490 c-4 -7 -2 -17 4 -23 18 -18 13 -28 -9 -15 -30 19 -34 2 -7 -34 13 -18 27 -48 30 -65 13 -68 67 -111 82 -64 8 26 -8 61 -44 96 -36 36 -39 51 -9 58 20 6 20 7 6 29 -17 26 -43 35 -53 18z"
       id="path152"
       style="fill:#ff4500" />
    <path
       d="M5540 4435 c0 -12 64 -75 76 -75 21 0 17 8 -22 46 -33 31 -54 42 -54 29z"
       id="path154"
       style="fill:#ff4500" />
    <path
       d="M5497 4403 c-8 -12 80 -99 90 -90 4 4 -14 28 -39 53 -25 26 -48 42 -51 37z"
       id="path156"
       style="fill:#ff4500" />
    <path
       d="M5490 4311 c19 -16 37 -25 38 -20 5 12 -39 48 -58 49 -8 0 1 -13 20 -29z"
       id="path158" />
    <path
       d="M5596 4201 c-54 -8 -67 -21 -118 -117 -35 -66 -35 -62 17 -168 l20 -41 93 -3 c87 -3 94 -1 115 22 12 13 29 37 37 53 8 15 17 30 20 33 12 12 30 51 30 65 0 17 -39 91 -72 138 -21 29 -40 32 -142 18z"
       id="path160"
       style="fill:#0000ff" />
    <path
       d="M5967 3998 c-81 -10 -98 -17 -117 -55 -8 -15 -27 -48 -42 -72 -19 -30 -24 -48 -18 -60 4 -9 16 -38 25 -65 26 -72 44 -86 113 -86 105 0 122 10 175 99 26 43 47 82 47 86 0 19 -85 154 -99 157 -9 2 -47 0 -84 -4z"
       id="path162"
       style="fill:#0000ff" />
    <path
       d="M5560 3811 c-16 -4 -42 -32 -73 -76 -37 -55 -46 -76 -42 -99 8 -43 56 -146 69 -147 6 0 47 0 91 1 90 1 114 12 138 62 9 18 25 47 37 63 28 42 26 55 -22 135 l-42 70 -66 -1 c-36 -1 -76 -4 -90 -8z"
       id="path164"
       style="fill:#0000ff" />
    <path
       d="M2451 4344 c-23 -29 -28 -83 -9 -102 21 -21 66 -14 84 13 14 21 14 30 4 56 -14 33 -36 59 -50 59 -5 0 -18 -12 -29 -26z"
       id="path166"
       style="fill:#8a2be2" />
    <path
       d="M456 4323 c-70 -110 -143 -239 -139 -246 5 -8 103 148 103 165 0 4 3 8 8 8 4 0 13 13 20 28 31 70 61 81 172 63 l45 -7 -69 -8 c-38 -4 -75 -10 -82 -13 -16 -6 -144 -216 -144 -236 0 -16 20 -69 43 -112 9 -18 8 -19 -6 -6 -24 19 -21 9 13 -51 17 -29 36 -63 42 -75 11 -22 15 -23 172 -23 l161 0 54 88 c30 48 66 110 82 138 l28 50 -59 98 c-33 54 -60 100 -60 104 0 3 -11 20 -26 39 l-25 33 -154 0 -155 0 -24 -37z"
       id="path168"
       style="fill:#ee82ee" />
    <path
       d="M3290 4129 c-53 -8 -69 -15 -87 -37 -13 -15 -23 -33 -23 -39 0 -7 -3 -13 -7 -13 -5 0 -17 -18 -27 -40 -20 -42 -20 -43 26 -147 l18 -43 95 0 c108 0 106 -2 165 101 l41 69 -37 65 c-20 36 -43 72 -51 80 -16 16 -19 17 -113 4z"
       id="path170"
       style="fill:#8a2be2" />
    <path
       d="M2315 4093 c-123 -14 -113 -9 -161 -84 -52 -81 -53 -107 -6 -194 l27 -50 65 -3 c85 -4 133 10 150 45 8 16 27 47 42 70 15 23 28 49 28 58 0 33 -84 166 -103 164 -7 -1 -25 -4 -42 -6z"
       id="path172"
       style="fill:#8a2be2" />
    <path
       d="M7489 4023 c-8 -10 -21 -29 -28 -43 -8 -14 -39 -65 -68 -114 -30 -49 -53 -96 -51 -105 2 -11 8 -7 18 14 8 17 44 79 79 138 l64 107 91 0 c63 0 86 -3 76 -10 -8 -5 -43 -10 -77 -10 l-62 0 -31 -44 c-16 -25 -30 -48 -30 -51 0 -4 -8 -19 -19 -33 -31 -45 -61 -102 -61 -118 0 -8 9 -33 19 -54 11 -22 17 -50 13 -62 -3 -14 -1 -19 6 -14 7 4 10 2 7 -6 -3 -7 10 -38 28 -68 l33 -55 132 -3 c111 -2 133 0 138 13 3 8 12 15 19 15 7 0 28 23 45 51 24 37 35 47 42 37 5 -8 6 -3 2 15 -6 27 9 39 20 15 3 -7 3 -2 1 12 -3 14 2 34 10 45 14 17 17 18 25 5 7 -10 8 -4 4 20 -5 34 -5 34 11 15 17 -20 17 -19 11 7 -5 22 -3 26 9 21 12 -4 9 8 -11 43 -54 99 -128 219 -138 226 -6 4 -79 8 -162 8 -132 0 -153 -2 -165 -17z"
       id="path174"
       style="fill:#ffff00" />
    <path
       d="M1002 3874 c-45 -75 -79 -141 -76 -146 3 -5 12 1 19 14 33 62 130 225 143 241 12 14 31 17 106 16 97 0 96 -17 -1 -18 -39 -1 -58 -6 -76 -23 -32 -29 -137 -204 -137 -227 0 -10 7 -32 16 -50 9 -18 14 -42 10 -54 -3 -11 -1 -26 3 -31 5 -6 23 -36 39 -66 l31 -55 165 -3 c98 -1 166 1 166 7 0 5 -9 7 -20 4 -27 -7 -25 5 5 29 14 11 25 24 25 29 0 5 15 33 34 62 18 28 46 75 62 102 21 38 29 45 32 31 3 -14 6 -15 12 -6 5 8 -11 43 -41 92 -27 44 -49 81 -49 83 0 2 -14 26 -31 54 l-32 51 -162 0 -162 0 -81 -136z"
       id="path176"
       style="fill:#ffff00" />
    <path
       d="M1530 3704 c0 -8 5 -12 10 -9 6 4 8 11 5 16 -9 14 -15 11 -15 -7z"
       id="path178" />
    <path
       d="M960 3670 c0 -5 5 -10 11 -10 5 0 7 5 4 10 -3 6 -8 10 -11 10 -2 0 -4 -4 -4 -10z"
       id="path180" />
    <path
       d="M1510 3670 c0 -5 5 -10 10 -10 6 0 10 5 10 10 0 6 -4 10 -10 10 -5 0 -10 -4 -10 -10z"
       id="path182" />
    <path
       d="M980 3640 c0 -5 5 -10 10 -10 6 0 10 5 10 10 0 6 -4 10 -10 10 -5 0 -10 -4 -10 -10z"
       id="path184" />
    <path
       d="M1490 3639 c0 -5 5 -7 10 -4 6 3 10 8 10 11 0 2 -4 4 -10 4 -5 0 -10 -5 -10 -11z"
       id="path186" />
    <path
       d="M1441 3544 c0 -11 3 -14 6 -6 3 7 2 16 -1 19 -3 4 -6 -2 -5 -13z"
       id="path188" />
    <path
       d="M6650 4013 c-69 -7 -79 -13 -117 -71 -70 -104 -69 -98 -29 -185 l35 -77 94 0 c108 0 110 1 170 111 l37 65 -21 40 c-12 21 -33 57 -48 79 -28 42 -43 47 -121 38z"
       id="path190"
       style="fill:#ffff00" />
    <path
       d="M2895 3893 c-32 -4 -71 -53 -111 -137 -19 -38 -19 -36 27 -131 l24 -50 76 -3 c42 -1 87 2 101 7 16 6 42 37 71 87 l46 78 -20 35 c-64 120 -60 116 -125 117 -32 1 -73 -1 -89 -3z"
       id="path192"
       style="fill:#8a2be2" />
    <path
       d="M6291 3743 c-43 -53 -35 -116 15 -126 64 -12 95 55 54 121 -24 39 -42 40 -69 5z"
       id="path194"
       style="fill:#ff7f50" />
    <path
       d="M7282 3280 c-23 -39 -42 -75 -42 -80 0 -6 -4 -10 -10 -10 -5 0 -10 -5 -10 -10 0 -6 -12 -28 -26 -50 -14 -21 -24 -44 -22 -51 4 -11 121 177 140 224 11 25 38 33 110 28 48 -3 57 -6 38 -12 -14 -4 -43 -7 -65 -8 -40 -1 -40 -1 -107 -112 -38 -61 -68 -119 -68 -128 0 -10 9 -35 19 -57 21 -43 20 -54 -4 -34 -20 17 -19 5 2 -20 13 -15 19 -17 26 -7 5 7 6 3 2 -11 -4 -14 0 -32 12 -50 10 -15 25 -39 33 -54 l13 -28 126 0 c108 0 131 3 159 20 17 11 32 24 32 30 0 14 18 12 23 -2 2 -7 2 -1 0 15 -5 27 12 39 20 15 2 -7 2 -1 0 15 -5 27 10 38 21 15 3 -7 4 -4 1 8 -5 21 77 173 83 154 2 -6 8 -10 13 -10 13 0 -7 40 -82 165 l-65 110 -165 3 -165 2 -42 -70z"
       id="path196"
       style="fill:#adff2f" />
    <path
       d="M7775 3050 c3 -5 8 -10 11 -10 2 0 4 5 4 10 0 6 -5 10 -11 10 -5 0 -7 -4 -4 -10z"
       id="path198" />
    <path
       d="M7640 2819 c0 -5 5 -7 10 -4 6 3 10 8 10 11 0 2 -4 4 -10 4 -5 0 -10 -5 -10 -11z"
       id="path200" />
    <path
       d="M1383 3168 c-43 -46 -63 -90 -63 -138 0 -56 44 -100 100 -100 28 0 46 8 69 29 36 34 41 78 15 139 -14 34 -70 102 -84 102 -3 0 -20 -15 -37 -32z"
       id="path202"
       style="fill:#ff00ff" />
    <path
       d="M7857 2831 c-43 -55 -59 -100 -51 -139 17 -83 117 -110 180 -48 17 17 25 64 19 100 -7 37 -73 129 -96 134 -8 1 -31 -20 -52 -47z"
       id="path204"
       style="fill:#00fa9a" />
    <path
       d="M766 2325 c-64 -107 -116 -199 -116 -205 0 -10 37 -76 152 -267 l80 -133 243 0 243 0 116 193 c64 107 116 199 116 206 0 6 -53 99 -117 206 l-117 195 -242 0 -241 0 -117 -195z m364 166 c73 -10 39 -18 -93 -24 -80 -4 -102 -8 -116 -23 -10 -11 -60 -90 -111 -177 l-93 -159 52 -105 c29 -58 51 -109 49 -115 -4 -10 -128 186 -135 213 -3 10 33 80 84 165 48 81 96 161 106 178 9 17 25 37 34 44 18 13 131 15 223 3z m440 -373 c0 -13 -9 -34 -20 -48 -11 -14 -20 -28 -20 -31 0 -4 -28 -53 -62 -110 -35 -57 -69 -116 -77 -131 -17 -33 -48 -68 -61 -68 -17 0 -40 12 -40 21 0 5 8 9 18 9 26 0 40 18 127 165 43 72 86 142 96 157 11 14 19 33 19 42 0 9 5 16 10 16 6 0 10 -10 10 -22z"
       id="path206"
       style="fill:#7fffd4" />
    <path
       d="M7356 2449 c-67 -79 -79 -160 -32 -207 21 -22 35 -27 71 -26 115 2 135 120 41 232 -34 40 -47 40 -80 1z"
       id="path208"
       style="fill:#00fa9a" />
    <path
       d="M6825 2445 c-51 -18 -85 -60 -85 -104 0 -32 1 -33 18 -18 28 25 50 21 68 -14 12 -25 20 -30 37 -24 12 4 39 9 59 12 50 7 61 22 53 78 -12 77 -63 101 -150 70z"
       id="path210"
       style="fill:#2e8b57" />
    <path
       d="M6635 2394 c-11 -3 -39 -10 -63 -16 -42 -11 -43 -12 -40 -47 2 -29 8 -37 26 -39 26 -4 38 -29 53 -106 7 -40 6 -53 -7 -67 -13 -15 -14 -23 -4 -53 13 -41 9 -39 64 -25 22 6 57 14 76 19 121 29 121 29 114 58 -11 50 -13 52 -45 50 -33 -3 -38 3 -53 73 -5 23 -11 27 -38 25 l-33 -1 -3 68 c-3 68 -4 69 -47 61z"
       id="path212"
       style="fill:#2e8b57" />
    <path
       d="M1970 2437 c-49 -23 -63 -62 -34 -91 24 -25 71 -20 90 9 21 32 47 32 73 -1 24 -30 27 -66 9 -86 -7 -7 -13 -28 -14 -46 -1 -26 1 -30 12 -21 30 24 43 3 42 -66 -1 -84 15 -105 83 -105 41 0 51 4 67 28 28 38 39 102 19 102 -8 0 -17 -9 -20 -20 -6 -22 -41 -28 -53 -9 -3 6 -2 28 4 48 33 117 31 153 -12 199 -52 58 -198 90 -266 59z"
       id="path214"
       style="fill:#2e8b57" />
    <path
       d="M2042 2330 c-17 -28 -16 -30 18 -30 31 0 35 6 24 34 -8 22 -27 20 -42 -4z"
       id="path216" />
    <path
       d="M1925 2267 c-67 -26 -92 -65 -74 -116 15 -44 52 -63 120 -64 61 0 88 14 111 56 13 25 6 30 -26 16 -22 -10 -29 -9 -46 6 -11 10 -20 26 -20 35 0 19 40 60 61 61 8 0 6 4 -6 9 -28 12 -85 11 -120 -3z"
       id="path218"
       style="fill:#228b22" />
    <path
       d="M2034 2216 c-15 -12 -17 -17 -6 -27 10 -11 15 -10 29 4 24 23 4 43 -23 23z"
       id="path220" />
    <path
       d="M5798 2352 c-25 -3 -28 -8 -28 -38 0 -56 -24 -100 -64 -119 -24 -11 -36 -24 -36 -37 0 -16 5 -19 24 -14 34 8 43 -8 56 -103 15 -102 42 -139 107 -148 59 -8 136 13 167 46 23 24 27 36 24 77 -3 49 -3 49 -38 49 -28 0 -37 -5 -48 -27 -9 -19 -21 -28 -37 -28 -30 0 -41 20 -49 93 -6 55 -5 58 20 67 14 6 42 10 63 10 54 0 72 17 62 60 -8 38 -3 37 -108 24 l-52 -7 -12 47 c-13 52 -14 53 -51 48z"
       id="path222"
       style="fill:#2e8b57" />
    <path
       d="M5339 2191 c-97 -61 -116 -189 -43 -288 50 -67 179 -82 280 -33 45 23 49 28 49 60 0 32 -2 35 -25 32 -14 -2 -56 -6 -95 -8 -85 -5 -106 7 -110 63 -2 21 -6 45 -9 54 -5 10 2 27 17 44 19 23 29 27 51 21 34 -8 55 -49 36 -71 -12 -14 -7 -16 51 -13 l64 3 3 42 c3 37 -1 46 -37 82 -40 40 -42 41 -114 41 -63 0 -79 -4 -118 -29z"
       id="path224"
       style="fill:#2e8b57" />
    <path
       d="M5425 2099 c-10 -16 1 -22 26 -14 17 6 19 9 8 16 -19 12 -26 11 -34 -2z"
       id="path226" />
    <path
       d="M2436 2339 c-17 -53 -16 -68 5 -79 18 -10 20 -17 14 -53 -16 -103 -18 -108 -40 -117 -27 -10 -39 -64 -17 -82 7 -7 35 -15 60 -19 26 -4 76 -12 112 -18 35 -5 65 -9 66 -8 2 1 4 20 6 41 3 35 0 40 -22 46 -24 6 -25 9 -22 68 4 61 3 62 -22 62 -21 0 -26 5 -26 25 0 14 7 42 15 62 21 49 15 59 -37 67 -23 4 -53 9 -65 13 -14 3 -24 0 -27 -8z"
       id="path228"
       style="fill:#2e8b57" />
    <path
       d="M2644 2266 c-19 -19 -34 -42 -34 -52 0 -14 3 -15 12 -6 31 31 79 3 75 -43 -2 -19 18 -27 95 -38 44 -7 55 6 64 77 6 40 4 47 -21 70 -24 22 -37 26 -92 26 -61 0 -67 -2 -99 -34z"
       id="path230"
       style="fill:#228b22" />
    <path
       d="M6249 2334 c-57 -17 -115 -77 -125 -129 -17 -90 12 -170 79 -217 45 -32 162 -32 227 -1 73 36 83 47 75 82 -8 36 -5 36 -86 15 -98 -25 -159 -2 -159 61 0 17 -5 36 -12 43 -16 16 20 66 51 70 29 5 61 -24 61 -55 0 -20 -5 -23 -37 -24 -21 -1 -30 -3 -21 -6 26 -7 160 15 168 27 9 15 0 60 -18 88 -20 31 -83 62 -124 61 -18 0 -54 -7 -79 -15z"
       id="path232"
       style="fill:#2e8b57" />
    <path
       d="M6287 2223 c-13 -12 -7 -23 13 -23 11 0 20 7 20 15 0 15 -21 21 -33 8z"
       id="path234" />
    <path
       d="M3012 2245 c-71 -39 -104 -96 -105 -179 -1 -128 72 -189 224 -189 41 0 85 5 96 11 19 11 36 65 25 77 -3 3 -31 5 -63 5 -91 0 -149 32 -149 82 0 22 6 31 22 36 l22 5 -22 8 c-28 11 -28 24 3 54 29 30 49 31 75 5 25 -25 26 -58 3 -76 -16 -12 -12 -13 32 -14 28 0 60 -3 73 -6 21 -6 22 -3 22 46 0 64 -31 112 -87 135 -42 18 -139 18 -171 0z"
       id="path236"
       style="fill:#2e8b57" />
    <path
       d="M3085 2140 c-3 -6 1 -13 10 -16 19 -8 30 0 20 15 -8 14 -22 14 -30 1z"
       id="path238" />
    <path
       d="M3603 2182 c-55 -17 -85 -72 -64 -118 6 -14 19 -27 28 -30 10 -3 27 -10 38 -14 11 -5 51 -11 89 -14 75 -6 116 -26 116 -56 0 -29 -39 -51 -77 -44 -31 6 -32 5 -24 -22 9 -36 47 -62 91 -64 96 -5 112 -1 146 36 41 43 44 80 10 117 -26 28 -34 31 -145 47 -80 11 -101 22 -101 50 0 31 35 53 74 46 31 -6 34 -5 29 13 -9 34 -52 54 -122 57 -36 2 -76 0 -88 -4z"
       id="path240"
       style="fill:#2e8b57" />
    <path
       d="M3877 2163 c-4 -3 -7 -21 -7 -39 0 -24 -5 -34 -22 -40 -17 -6 -6 -9 41 -11 84 -5 91 -2 91 45 0 36 -3 40 -31 46 -41 8 -64 8 -72 -1z"
       id="path242"
       style="fill:#228b22" />
    <path
       d="M3745 2080 c-10 -16 4 -30 32 -30 19 0 24 4 19 16 -3 9 -6 18 -6 20 0 9 -39 4 -45 -6z"
       id="path244" />
    <path
       d="M3720 1956 c0 -13 20 -26 41 -26 5 0 9 9 9 20 0 15 -7 20 -25 20 -15 0 -25 -6 -25 -14z"
       id="path246" />
    <path
       d="M3540 1952 c-6 -2 -10 -28 -10 -58 l0 -54 60 0 60 0 0 35 c0 24 6 37 20 45 11 6 20 15 20 20 0 8 -130 19 -150 12z"
       id="path248"
       style="fill:#228b22" />
    <path
       d="M4941 2183 c-23 -3 -48 -19 -81 -52 -37 -37 -48 -56 -53 -91 -15 -119 32 -198 134 -226 59 -15 132 -7 197 22 28 13 32 19 32 56 0 39 -1 40 -27 33 -68 -18 -137 -16 -169 4 -30 18 -32 22 -32 85 0 60 2 68 24 82 22 15 26 15 48 0 34 -22 43 -56 20 -73 -16 -11 -11 -13 40 -13 66 0 96 12 96 41 0 31 -36 94 -65 113 -28 18 -105 27 -164 19z"
       id="path250"
       style="fill:#2e8b57" />
    <path
       d="M4970 2060 c0 -5 9 -10 20 -10 11 0 20 5 20 10 0 6 -9 10 -20 10 -11 0 -20 -4 -20 -10z"
       id="path252" />
    <path
       d="M4060 2117 c0 -29 5 -45 18 -53 9 -6 23 -29 30 -50 7 -21 17 -48 22 -59 5 -11 19 -49 32 -85 l24 -65 77 -3 76 -3 16 58 c9 32 18 64 21 71 2 8 12 12 21 10 12 -2 22 -23 34 -68 l16 -65 82 -3 c53 -2 81 1 81 8 0 6 9 30 20 52 11 23 20 45 20 50 0 5 9 27 19 51 11 23 22 52 26 65 4 12 17 30 31 38 27 18 32 55 10 77 -11 10 -40 14 -113 13 l-98 -1 -3 -42 c-3 -37 0 -43 17 -43 30 0 31 -10 12 -91 -12 -50 -23 -75 -34 -77 -16 -3 -17 0 -49 123 -33 128 -71 168 -101 108 -20 -40 -54 -142 -61 -185 -12 -66 -51 -58 -59 12 -3 25 -9 60 -12 78 -6 28 -5 32 14 32 18 0 21 6 21 45 l0 45 -105 0 -105 0 0 -43z"
       id="path254"
       style="fill:#2e8b57" />
    <path
       d="M4270 2015 c0 -14 4 -25 9 -25 5 0 11 11 13 25 4 17 1 25 -8 25 -8 0 -14 -11 -14 -25z"
       id="path256" />
    <path
       d="M4500 2015 c0 -28 15 -34 24 -9 10 25 7 34 -9 34 -9 0 -15 -9 -15 -25z"
       id="path258" />
    <path
       d="M6863 1893 c-79 -135 -95 -164 -89 -170 4 -4 37 48 116 184 14 23 33 52 42 63 14 16 15 20 3 20 -7 0 -40 -44 -72 -97z"
       id="path260"
       style="fill:#adff2f" />
    <path
       d="M7065 1976 c-11 -7 -40 -16 -63 -20 -38 -6 -72 -24 -72 -39 0 -3 -25 -46 -55 -95 -30 -50 -55 -97 -55 -106 0 -9 11 -39 24 -66 13 -27 22 -58 19 -69 -7 -27 54 -120 83 -127 14 -4 77 -4 140 -2 113 4 116 5 143 34 15 16 30 34 32 39 2 6 26 48 53 94 42 70 51 81 58 65 6 -14 7 -11 3 9 -7 35 5 59 16 31 7 -18 8 -18 8 -1 1 16 -17 50 -101 192 -10 17 -23 40 -30 53 -10 20 -18 22 -97 22 -56 0 -93 -5 -106 -14z"
       id="path262"
       style="fill:#adff2f" />
    <path
       d="M7350 1654 c0 -8 5 -12 10 -9 6 4 8 11 5 16 -9 14 -15 11 -15 -7z"
       id="path264" />
    <path
       d="M7330 1620 c0 -5 5 -10 10 -10 6 0 10 5 10 10 0 6 -4 10 -10 10 -5 0 -10 -4 -10 -10z"
       id="path266" />
    <path
       d="M6840 1600 c0 -5 5 -10 10 -10 6 0 10 5 10 10 0 6 -4 10 -10 10 -5 0 -10 -4 -10 -10z"
       id="path268" />
    <path
       d="M7315 1590 c-3 -5 -1 -10 4 -10 6 0 11 5 11 10 0 6 -2 10 -4 10 -3 0 -8 -4 -11 -10z"
       id="path270" />
    <path
       d="M2477 1873 c-2 -4 -1 -30 2 -58 6 -47 7 -49 19 -27 15 27 12 84 -5 89 -6 2 -13 0 -16 -4z"
       id="path272"
       style="fill:#00fa9a" />
    <path
       d="M2313 1803 c-16 -34 -17 -115 -1 -131 25 -25 98 -9 98 20 0 5 -9 4 -19 -2 -34 -18 -51 -2 -51 46 0 41 2 44 28 45 l27 0 -24 10 c-13 5 -29 16 -35 24 -9 12 -13 10 -23 -12z"
       id="path274"
       style="fill:#00ffff" />
    <path
       d="M2575 1778 c4 -13 10 -43 14 -68 5 -36 10 -46 28 -48 21 -3 22 -1 16 50 -7 67 -18 88 -45 88 -17 0 -19 -4 -13 -22z"
       id="path276"
       style="fill:#00ffff" />
    <path
       d="M2795 1778 c4 -13 13 -33 21 -45 8 -12 14 -29 14 -36 0 -20 27 -40 41 -31 8 5 7 9 -5 16 -10 6 -16 22 -16 47 0 24 -7 44 -18 54 -27 25 -45 22 -37 -5z"
       id="path278"
       style="fill:#00fa9a" />
    <path
       d="M3055 1778 c4 -13 10 -42 12 -66 5 -42 25 -64 43 -46 12 12 -7 116 -22 126 -26 16 -41 9 -33 -14z"
       id="path280"
       style="fill:#00fa9a" />
    <path
       d="M2720 1780 c0 -5 5 -10 10 -10 6 0 10 5 10 10 0 6 -4 10 -10 10 -5 0 -10 -4 -10 -10z"
       id="path282" />
    <path
       d="M2950 1730 c0 -57 1 -60 25 -60 20 0 25 5 25 24 0 13 -7 29 -15 36 -8 7 -15 23 -15 36 0 13 -4 24 -10 24 -6 0 -10 -27 -10 -60z"
       id="path284"
       style="fill:#00fa9a" />
    <path
       d="M2480 1727 c0 -14 -3 -32 -6 -41 -5 -12 0 -16 20 -16 21 0 26 5 26 23 0 13 -9 32 -20 42 -20 18 -20 17 -20 -8z"
       id="path286" />
    <path
       d="M2551 1724 c0 -11 3 -14 6 -6 3 7 2 16 -1 19 -3 4 -6 -2 -5 -13z"
       id="path288" />
    <path
       d="M3032 1720 c0 -14 2 -19 5 -12 2 6 2 18 0 25 -3 6 -5 1 -5 -13z"
       id="path290" />
    <path
       d="M2704 1695 c-8 -21 4 -35 30 -35 33 0 37 9 15 31 -23 23 -38 24 -45 4z"
       id="path292" />
    <path
       d="M7646 1790 c-14 -22 -26 -42 -26 -44 0 -3 -23 -42 -51 -87 -41 -67 -49 -87 -43 -108 l8 -26 4 30 c2 16 12 41 23 56 10 15 19 30 19 34 0 3 14 26 30 50 17 24 30 48 30 54 0 6 3 11 8 11 4 0 13 14 20 30 13 29 15 30 88 30 43 0 74 -4 74 -10 0 -6 -26 -10 -59 -10 l-59 0 -42 -66 c-99 -151 -107 -169 -91 -207 8 -18 14 -45 15 -62 1 -30 32 -96 68 -147 l19 -28 130 0 131 0 39 41 c21 22 39 45 39 50 0 5 12 28 27 50 24 36 28 39 35 23 6 -14 7 -11 3 8 -5 27 10 49 18 26 2 -7 3 -4 1 7 -4 21 16 75 28 75 3 0 9 -8 11 -17 3 -12 5 -10 6 7 1 15 -28 73 -72 145 l-73 120 -165 3 -166 2 -27 -40z m-26 -351 c0 -5 -4 -9 -10 -9 -5 0 -10 7 -10 16 0 8 5 12 10 9 6 -3 10 -10 10 -16z"
       id="path294"
       style="fill:#ffff00" />
    <path
       d="M8040 1389 c0 -5 5 -7 10 -4 6 3 10 8 10 11 0 2 -4 4 -10 4 -5 0 -10 -5 -10 -11z"
       id="path296" />
    <path
       d="M8020 1360 c0 -5 5 -10 10 -10 6 0 10 5 10 10 0 6 -4 10 -10 10 -5 0 -10 -4 -10 -10z"
       id="path298" />
    <path
       d="M8007 1333 c-4 -3 -7 -11 -7 -17 0 -6 5 -5 12 2 6 6 9 14 7 17 -3 3 -9 2 -12 -2z"
       id="path300" />
    <path
       d="M3469 1660 c-182 -31 -289 -173 -289 -381 0 -164 66 -281 188 -336 50 -23 72 -26 168 -27 75 0 121 4 140 13 16 8 40 19 53 25 50 23 108 86 137 148 27 58 29 72 29 178 -1 97 -5 125 -25 175 -33 84 -115 165 -190 187 -71 21 -153 28 -211 18z m113 -191 c37 -20 58 -85 58 -185 0 -103 -15 -152 -54 -178 -54 -35 -115 -4 -135 70 -14 50 -14 168 0 218 20 71 76 104 131 75z"
       id="path302"
       style="fill:#4b0082" />
    <path
       d="M3490 1418 c-16 -27 -20 -50 -20 -131 0 -110 14 -153 55 -163 43 -11 70 17 85 85 15 71 8 147 -17 199 -14 30 -24 38 -50 40 -28 3 -36 -2 -53 -30z"
       id="path304"
       style="fill:#4169e1" />
    <path
       d="M3967 1643 c-4 -3 -7 -35 -7 -70 l0 -63 39 0 c32 0 40 -4 45 -22 8 -33 7 -391 -2 -405 -4 -6 -23 -13 -42 -15 l-35 -3 0 -70 0 -70 165 0 165 0 3 67 c3 67 3 67 -25 74 -15 3 -34 7 -40 10 -19 5 -18 317 1 333 31 26 56 -8 56 -76 0 -60 72 -233 141 -339 l39 -61 126 -7 c69 -3 129 -4 135 -1 5 4 9 121 9 280 0 150 3 280 6 289 4 11 19 16 46 16 l39 0 -3 68 -3 67 -140 3 c-192 4 -187 6 -183 -71 l3 -62 35 -5 35 -5 0 -165 c0 -164 0 -165 -23 -168 -12 -2 -24 3 -26 10 -2 7 -9 38 -16 68 -13 62 -44 158 -67 210 -52 118 -84 178 -98 184 -22 8 -370 8 -378 -1z"
       id="path306"
       style="fill:#4b0082" />
    <path
       d="M4917 1643 c-4 -3 -7 -35 -7 -69 l0 -63 43 -3 42 -3 3 -217 2 -217 -42 -3 -43 -3 0 -70 0 -70 355 0 355 0 3 133 3 132 -66 0 -65 0 0 -31 c0 -22 -9 -40 -31 -60 -30 -28 -35 -29 -124 -29 -65 0 -94 4 -97 13 -9 23 -8 132 0 145 6 8 24 12 48 10 36 -3 39 -6 42 -35 3 -29 7 -33 33 -33 l30 0 -3 113 c-3 107 -4 112 -25 115 -16 2 -28 -7 -48 -37 -18 -29 -32 -41 -49 -41 -27 0 -31 11 -35 92 -4 83 8 98 75 98 30 0 70 -6 89 -14 40 -17 75 -68 75 -109 l0 -28 73 3 72 3 0 140 0 140 -351 3 c-193 1 -353 -1 -357 -5z"
       id="path308"
       style="fill:#4b0082" />
    <path
       d="M5717 1643 c-4 -3 -7 -35 -7 -70 l0 -63 33 0 c39 0 50 -8 102 -75 22 -27 45 -57 52 -65 132 -163 133 -166 133 -234 l0 -65 -52 -3 -53 -3 0 -70 0 -70 235 0 235 0 0 70 0 70 -57 3 -58 3 0 67 0 67 101 125 c149 185 144 180 184 180 l35 0 0 70 0 70 -197 -2 -198 -3 -3 -67 c-3 -66 -3 -67 25 -70 35 -4 42 -32 15 -61 -31 -34 -42 -63 -50 -125 -6 -52 -9 -57 -33 -60 -26 -3 -27 -1 -34 58 -5 45 -16 74 -41 112 -19 27 -34 54 -34 59 0 5 15 12 33 17 31 8 32 10 35 67 2 40 -1 61 -10 66 -15 10 -382 12 -391 2z"
       id="path310"
       style="fill:#4b0082" />
    <path
       d="M1254 1463 c-31 -54 -84 -143 -117 -198 -33 -55 -60 -105 -60 -110 0 -6 21 -46 47 -89 27 -44 56 -93 66 -110 9 -17 41 -70 70 -119 l52 -87 241 2 240 3 98 165 c54 91 103 173 109 183 5 9 15 25 22 36 9 15 7 24 -10 49 -12 16 -22 32 -22 34 0 2 -44 78 -98 168 l-99 165 -240 3 -241 2 -58 -97z m396 58 c-8 -5 -71 -11 -140 -14 -69 -3 -133 -9 -142 -12 -17 -7 -218 -331 -218 -350 0 -5 20 -51 45 -102 25 -50 45 -100 45 -110 0 -15 -2 -15 -13 4 -6 12 -36 60 -64 108 -29 47 -53 92 -53 101 0 14 106 200 192 337 l30 47 167 0 c94 0 160 -4 151 -9z m335 -399 c-11 -20 -29 -53 -41 -72 -12 -19 -54 -90 -93 -157 -40 -66 -78 -124 -86 -126 -7 -3 -26 -2 -41 2 l-28 7 42 17 c23 9 42 21 42 27 0 6 15 34 34 63 62 97 156 260 156 272 0 18 13 26 24 15 7 -7 4 -22 -9 -48z"
       id="path312"
       style="fill:#7fffd4" />
    <path
       d="M2277 1584 c-12 -12 -8 -119 5 -132 7 -7 27 -12 45 -12 l33 0 0 -185 0 -185 -39 0 c-44 0 -51 -10 -51 -75 0 -79 -9 -75 190 -75 204 0 203 -1 198 82 -2 44 -7 55 -25 63 -20 8 -23 17 -23 66 0 43 4 58 16 63 28 11 140 6 152 -6 7 -7 12 -34 12 -60 0 -42 -3 -50 -25 -60 -24 -11 -26 -15 -23 -77 l3 -66 185 0 185 0 0 70 0 70 -35 3 c-19 2 -38 9 -42 15 -4 7 -8 84 -8 172 0 88 4 165 8 172 4 6 23 13 42 15 l35 3 0 70 0 70 -185 0 -185 0 -3 -66 c-3 -62 -1 -66 23 -77 22 -10 25 -17 25 -64 0 -77 -4 -79 -96 -76 l-79 3 -3 66 c-3 62 -1 66 23 77 24 11 26 16 23 75 l-3 62 -186 3 c-102 1 -188 -1 -192 -4z"
       id="path314"
       style="fill:#4b0082" />
    <path
       d="M473 1554 c-7 -3 -13 -9 -13 -14 0 -4 -29 -55 -63 -113 -77 -125 -79 -131 -67 -159 8 -22 9 -22 9 5 1 15 19 57 41 93 22 36 40 68 40 70 0 2 16 29 36 59 l37 55 91 0 c62 0 86 -3 76 -10 -8 -5 -37 -10 -65 -10 -27 0 -61 -6 -74 -13 -14 -7 -52 -59 -89 -121 -62 -106 -64 -111 -52 -140 8 -17 13 -49 13 -71 0 -27 2 -34 6 -21 5 12 10 16 14 9 4 -6 5 -17 2 -25 -3 -7 8 -39 26 -71 l31 -57 149 0 c100 0 148 3 144 10 -4 6 3 18 14 28 21 18 121 177 121 193 0 5 5 9 10 9 6 0 10 -8 10 -17 0 -15 2 -16 10 -3 6 9 5 17 -2 21 -6 4 -8 15 -3 25 7 18 8 18 16 -1 8 -16 9 -14 5 10 -3 17 -36 82 -74 145 l-69 115 -159 2 c-87 1 -165 -1 -171 -3z"
       id="path316"
       style="fill:#ffff00" />
    <path
       d="M900 1214 c0 -8 5 -12 10 -9 6 4 8 11 5 16 -9 14 -15 11 -15 -7z"
       id="path318" />
    <path
       d="M880 1179 c0 -5 5 -7 10 -4 6 3 10 8 10 11 0 2 -4 4 -10 4 -5 0 -10 -5 -10 -11z"
       id="path320" />
    <path
       d="M860 1150 c0 -5 5 -10 10 -10 6 0 10 5 10 10 0 6 -4 10 -10 10 -5 0 -10 -4 -10 -10z"
       id="path322" />
    <path
       d="M840 1120 c0 -5 5 -10 10 -10 6 0 10 5 10 10 0 6 -4 10 -10 10 -5 0 -10 -4 -10 -10z"
       id="path324" />
    <path
       d="M805 1050 c-3 -5 -1 -10 4 -10 6 0 11 5 11 10 0 6 -2 10 -4 10 -3 0 -8 -4 -11 -10z"
       id="path326" />
    <path
       d="M7158 1313 c-35 -42 -149 -246 -145 -261 3 -13 6 -11 14 9 15 34 131 230 151 252 8 9 11 17 5 17 -5 0 -17 -8 -25 -17z"
       id="path328"
       style="fill:#adff2f" />
    <path
       d="M7295 1321 c51 -5 56 -7 30 -13 -16 -4 -51 -10 -76 -14 -25 -3 -50 -9 -55 -12 -6 -4 -40 -58 -76 -120 l-66 -113 24 -50 c14 -28 22 -58 19 -68 -3 -10 10 -43 32 -80 l36 -61 165 2 c124 2 166 6 168 16 1 7 0 8 -3 2 -6 -13 -43 -13 -43 -1 0 5 9 13 20 16 11 3 20 10 20 15 0 5 28 54 62 111 50 82 63 98 69 83 6 -14 8 -15 9 -4 5 36 -3 68 -26 102 -13 21 -24 40 -24 43 0 4 -13 26 -30 50 -16 24 -30 48 -30 52 0 5 -9 19 -20 31 -19 21 -29 22 -143 20 -94 -1 -108 -3 -62 -7z"
       id="path330"
       style="fill:#ffff00" />
    <path
       d="M7600 1004 c0 -8 5 -12 10 -9 6 4 8 11 5 16 -9 14 -15 11 -15 -7z"
       id="path332" />
    <path
       d="M7580 970 c0 -5 5 -10 10 -10 6 0 10 5 10 10 0 6 -4 10 -10 10 -5 0 -10 -4 -10 -10z"
       id="path334" />
    <path
       d="M7560 935 c0 -8 -4 -15 -10 -15 -5 0 -10 -8 -10 -17 0 -15 4 -13 20 7 22 28 25 40 10 40 -5 0 -10 -7 -10 -15z"
       id="path336" />
    <path
       d="M7515 859 c-4 -11 -4 -23 -1 -26 3 -4 6 1 6 10 0 10 5 17 10 17 6 0 10 5 10 10 0 18 -19 10 -25 -11z"
       id="path338" />
    <path
       d="M7799 1079 c-8 -5 -56 -80 -101 -159 -11 -19 -29 -47 -39 -62 -20 -28 -25 -68 -9 -68 6 0 10 8 10 19 0 10 29 67 65 126 36 59 65 110 65 115 0 15 31 20 113 19 84 -1 76 -16 -10 -18 -23 -1 -48 -4 -57 -7 -17 -7 -153 -233 -148 -248 2 -6 12 -30 23 -54 11 -24 18 -50 15 -58 -3 -8 3 -29 13 -47 10 -17 27 -47 37 -64 l19 -33 165 1 c91 1 155 4 143 6 -28 5 -29 10 -3 31 11 10 49 67 85 127 36 61 65 101 65 91 0 -26 13 -12 15 16 2 20 -110 223 -140 256 -9 10 -53 14 -164 15 -84 1 -157 -1 -162 -4z"
       id="path340"
       style="fill:#00fa9a" />
    <path
       d="M8230 760 c0 -5 5 -10 10 -10 6 0 10 5 10 10 0 6 -4 10 -10 10 -5 0 -10 -4 -10 -10z"
       id="path342" />
    <path
       d="M7680 730 c0 -5 5 -10 11 -10 5 0 7 5 4 10 -3 6 -8 10 -11 10 -2 0 -4 -4 -4 -10z"
       id="path344" />
    <path
       d="M8215 730 c-3 -5 -1 -10 4 -10 6 0 11 5 11 10 0 6 -2 10 -4 10 -3 0 -8 -4 -11 -10z"
       id="path346" />
    <path
       d="M7700 700 c0 -5 5 -10 10 -10 6 0 10 5 10 10 0 6 -4 10 -10 10 -5 0 -10 -4 -10 -10z"
       id="path348" />
    <path
       d="M6689 862 c-11 -7 -19 -21 -18 -30 0 -14 2 -14 6 -2 10 25 25 30 102 30 88 0 88 -8 0 -18 l-64 -7 -58 -95 c-61 -99 -59 -93 -40 -182 3 -16 10 -28 15 -28 5 0 7 -4 3 -9 -3 -5 8 -33 24 -63 l30 -53 108 0 c133 1 162 5 156 22 -7 17 14 17 21 1 2 -7 4 -2 3 12 -1 14 3 24 9 23 7 -1 11 5 10 15 0 9 4 16 10 15 8 -1 10 6 6 19 -4 17 -2 20 12 15 14 -6 16 -3 11 13 -4 14 -2 20 9 20 10 0 13 6 9 17 -5 12 -2 15 9 11 11 -5 14 -1 10 18 -3 19 -1 23 11 18 27 -10 3 53 -57 152 l-53 89 -133 5 c-100 4 -137 2 -151 -8z"
       id="path350"
       style="fill:#adff2f" />
    <path
       d="M6631 764 c0 -11 3 -14 6 -6 3 7 2 16 -1 19 -3 4 -6 -2 -5 -13z"
       id="path352" />
    <path
       d="M6611 734 c0 -11 3 -14 6 -6 3 7 2 16 -1 19 -3 4 -6 -2 -5 -13z"
       id="path354" />
    <path
       d="M6591 704 c0 -11 3 -14 6 -6 3 7 2 16 -1 19 -3 4 -6 -2 -5 -13z"
       id="path356" />
    <path
       d="M6570 669 c0 -5 5 -7 10 -4 6 3 10 8 10 11 0 2 -4 4 -10 4 -5 0 -10 -5 -10 -11z"
       id="path358" />
    <path
       d="M6550 634 c0 -8 5 -12 10 -9 6 3 10 10 10 16 0 5 -4 9 -10 9 -5 0 -10 -7 -10 -16z"
       id="path360" />
    <path
       d="M4068 814 c-4 -3 -2 -16 4 -29 13 -29 3 -75 -16 -75 -8 0 -16 10 -20 23 -7 30 -43 47 -75 36 -16 -6 -21 -14 -17 -25 4 -9 2 -22 -4 -29 -14 -17 -2 -45 21 -45 10 0 19 5 19 10 0 14 37 12 43 -2 3 -10 9 -8 23 4 17 16 19 16 36 1 28 -25 39 -4 36 68 -3 56 -6 64 -23 67 -12 2 -24 0 -27 -4z"
       id="path362"
       style="fill:#00fa9a" />
    <path
       d="M3645 801 c-3 -5 -1 -12 5 -16 14 -9 13 -68 -2 -83 -17 -17 7 -33 42 -30 21 3 25 8 22 31 -2 22 1 27 21 27 12 0 28 5 35 12 9 9 15 8 26 -8 8 -10 11 -23 6 -28 -5 -5 -6 -15 -3 -22 4 -10 10 -11 24 -4 13 7 25 7 39 -2 29 -18 49 6 43 52 l-5 36 -59 -2 c-32 0 -59 3 -59 7 0 4 -7 15 -16 23 -17 18 -109 23 -119 7z m85 -36 c0 -8 -4 -15 -10 -15 -5 0 -10 7 -10 15 0 8 5 15 10 15 6 0 10 -7 10 -15z"
       id="path364"
       style="fill:#00fa9a" />
    <path
       d="M4150 762 c-6 -2 -6 -10 1 -23 7 -14 7 -24 0 -33 -8 -10 -7 -17 4 -26 24 -20 45 -4 45 32 0 23 3 29 9 19 5 -8 7 -19 5 -25 -2 -6 5 -17 17 -24 16 -10 24 -10 35 -1 11 9 17 9 29 -1 20 -16 35 -4 35 28 0 50 -13 57 -95 57 -41 0 -79 -1 -85 -3z m140 -42 c0 -5 -4 -10 -10 -10 -5 0 -10 5 -10 10 0 6 5 10 10 10 6 0 10 -4 10 -10z"
       id="path366"
       style="fill:#00ffff" />
    <path
       d="M4683 803 c-24 -16 -31 -47 -13 -58 6 -4 5 -13 -2 -25 -11 -16 -9 -22 7 -34 28 -22 48 -19 73 7 22 23 29 71 14 93 -6 10 -46 35 -54 33 -2 0 -13 -7 -25 -16z m47 -58 c0 -23 -5 -35 -14 -35 -10 0 -14 11 -13 35 1 22 6 35 14 35 8 0 13 -13 13 -35z"
       id="path368"
       style="fill:#00fa9a" />
    <path
       d="M5007 804 c-23 -13 -27 -21 -27 -58 0 -66 40 -94 88 -60 17 12 22 25 22 59 0 38 -4 46 -28 59 -24 12 -31 12 -55 0z m41 -62 c2 -23 -1 -32 -12 -32 -21 0 -29 17 -22 46 9 34 30 25 34 -14z"
       id="path370"
       style="fill:#00fa9a" />
    <path
       d="M5143 808 c-27 -13 -29 -30 -8 -48 12 -10 15 -10 15 4 0 31 18 16 22 -19 3 -24 0 -35 -9 -35 -7 0 -13 5 -13 10 0 12 -10 13 -30 0 -12 -7 -12 -12 4 -29 21 -23 47 -27 76 -11 26 14 22 107 -5 126 -22 16 -23 16 -52 2z"
       id="path372"
       style="fill:#00ffff" />
    <path
       d="M4438 798 c-31 -11 -36 -23 -13 -32 20 -7 19 -53 -1 -64 -9 -5 -14 -14 -10 -21 9 -13 75 -14 96 -1 13 8 12 12 -7 25 -18 13 -23 26 -23 61 0 47 -1 48 -42 32z"
       id="path374"
       style="fill:#00fa9a" />
    <path
       d="M4563 800 c-26 -11 -30 -28 -8 -36 8 -4 15 -17 15 -30 0 -14 -7 -27 -15 -30 -8 -4 -15 -12 -15 -20 0 -10 13 -14 44 -14 49 0 67 14 42 33 -8 7 -16 31 -18 56 -3 48 -11 55 -45 41z"
       id="path376"
       style="fill:#00fa9a" />
    <path
       d="M4878 798 c-31 -11 -36 -23 -13 -32 21 -8 19 -53 -2 -65 -16 -9 -16 -12 -3 -21 20 -13 77 -13 85 1 4 5 -1 19 -10 29 -9 10 -16 31 -15 47 4 58 4 58 -42 41z"
       id="path378"
       style="fill:#00ffff" />
    <path
       d="M4792 761 c-11 -7 -10 -10 3 -15 20 -7 38 1 30 15 -7 11 -16 11 -33 0z"
       id="path380"
       style="fill:#00ffff" />
    <path
       d="M4800 700 c-13 -9 -13 -11 0 -20 18 -11 39 5 24 20 -6 6 -15 6 -24 0z"
       id="path382" />
    <path
       d="M2062 768 c-10 -13 -119 -195 -140 -235 -8 -14 -9 -29 -3 -45 l10 -23 0 26 c1 28 22 79 34 79 4 0 7 7 7 15 0 8 4 15 9 15 5 0 11 8 14 18 8 23 58 107 79 132 19 21 41 23 138 11 l55 -7 -81 -7 -82 -8 -46 -69 c-25 -39 -46 -72 -46 -75 0 -4 -11 -23 -25 -43 -29 -43 -30 -56 -10 -96 9 -17 14 -41 12 -55 -2 -14 -2 -20 0 -13 8 24 22 12 18 -15 -4 -20 5 -44 28 -83 l34 -55 161 0 c89 0 162 3 162 7 0 5 -12 8 -27 8 l-28 1 25 13 c14 8 38 37 55 65 20 36 32 47 38 38 6 -8 7 -6 3 6 -8 25 24 73 36 55 7 -9 8 -8 4 6 -6 19 13 76 26 76 3 0 9 -8 11 -17 3 -12 5 -10 6 7 1 21 -56 130 -136 258 -13 21 -18 22 -172 22 -115 0 -161 -3 -169 -12z"
       id="path384"
       style="fill:#ee82ee" />
    <path
       d="M1961 414 c0 -11 3 -14 6 -6 3 7 2 16 -1 19 -3 4 -6 -2 -5 -13z"
       id="path386" />
    <path
       d="M6015 705 c-19 -30 -35 -58 -35 -61 0 -3 -13 -25 -30 -49 -16 -24 -30 -48 -30 -54 0 -6 -4 -11 -9 -11 -13 0 -21 -42 -11 -59 8 -14 9 -13 10 4 0 23 64 141 126 235 26 39 28 40 83 39 31 -1 70 -4 86 -8 24 -6 15 -8 -43 -13 -39 -4 -77 -10 -82 -13 -12 -7 -140 -221 -140 -234 0 -5 10 -30 22 -57 12 -27 23 -60 23 -74 0 -14 14 -49 30 -77 l30 -53 165 1 c99 1 153 4 135 9 -26 7 -27 9 -10 14 24 8 84 98 154 231 13 26 16 27 19 10 3 -10 -1 -21 -7 -23 -6 -2 -11 -11 -11 -20 1 -15 3 -14 15 2 26 35 16 69 -58 191 l-72 120 -162 3 -162 2 -36 -55z"
       id="path388"
       style="fill:#adff2f" />
    <path
       d="M6470 409 c0 -5 5 -7 10 -4 6 3 10 8 10 11 0 2 -4 4 -10 4 -5 0 -10 -5 -10 -11z"
       id="path390" />
    <path
       d="M5960 370 c0 -5 5 -10 10 -10 6 0 10 5 10 10 0 6 -4 10 -10 10 -5 0 -10 -4 -10 -10z"
       id="path392" />
    <path
       d="M6430 350 c0 -5 5 -10 10 -10 6 0 10 5 10 10 0 6 -4 10 -10 10 -5 0 -10 -4 -10 -10z"
       id="path394" />
    <path
       d="M6401 284 c0 -11 3 -14 6 -6 3 7 2 16 -1 19 -3 4 -6 -2 -5 -13z"
       id="path396" />
    <path
       d="M8101 4271 c-12 -16 -21 -31 -21 -34 0 -2 -25 -45 -55 -95 -35 -58 -55 -102 -54 -119 2 -27 2 -27 6 -3 3 14 14 37 24 51 10 15 19 32 19 38 0 6 5 11 10 11 6 0 10 5 10 11 0 6 8 23 19 37 10 15 30 47 44 72 l25 45 71 3 c39 2 79 -2 89 -7 13 -8 1 -10 -49 -11 -36 0 -72 -6 -81 -12 -16 -12 -104 -150 -135 -211 -13 -25 -12 -32 11 -79 14 -28 24 -61 21 -72 -3 -13 9 -43 28 -76 l33 -55 165 -2 c90 -1 153 2 139 6 -22 7 -23 9 -7 16 10 4 34 32 52 61 l35 54 0 159 c0 156 -1 160 -27 200 l-27 41 -162 0 -163 0 -20 -29z"
       id="path398"
       style="fill:#adff2f" />
    <path
       d="M8031 3914 c0 -11 3 -14 6 -6 3 7 2 16 -1 19 -3 4 -6 -2 -5 -13z"
       id="path400" />
    <path
       d="M8482 3843 c-17 -30 -15 -37 4 -19 8 9 14 22 11 29 -2 7 -8 4 -15 -10z"
       id="path402" />
  </g>
</svg>
