<?xml version="1.0" standalone="no"?>
<!DOCTYPE svg PUBLIC "-//W3C//DTD SVG 20010904//EN"
 "http://www.w3.org/TR/2001/REC-SVG-20010904/DTD/svg10.dtd">
<svg version="1.0" xmlns="http://www.w3.org/2000/svg"
 width="850.000000pt" height="850.000000pt" viewBox="0 0 850.000000 850.000000"
 preserveAspectRatio="xMidYMid meet">
<metadata>
Created by potrace 1.14, written by Peter Selinger 2001-2017
</metadata>
<g transform="translate(0.000000,850.000000) scale(0.100000,-0.100000)"
fill="#000000" stroke="none">
<path d="M1610 8490 c0 -6 55 -79 123 -163 180 -223 312 -395 467 -612 119
-166 400 -592 400 -605 0 -14 -14 -13 -84 9 -104 33 -168 43 -256 39 -80 -4
-174 -24 -230 -49 -14 -7 -34 -15 -45 -20 -67 -28 -191 -83 -292 -130 -116
-54 -188 -87 -265 -123 -43 -20 -80 -36 -82 -36 -4 0 -113 -50 -231 -105 -27
-13 -72 -33 -100 -45 -27 -12 -88 -40 -135 -63 -177 -85 -314 -271 -389 -527
-7 -25 -17 -55 -22 -68 -5 -13 -9 -34 -9 -47 0 -39 -27 -30 -40 13 -30 94
-169 324 -276 459 -64 79 -131 153 -138 153 -3 0 -6 -11 -6 -25 0 -17 26 -56
77 -118 169 -203 294 -424 329 -582 27 -120 18 -203 -55 -510 -21 -92 -66
-285 -91 -395 -18 -81 -16 -80 -85 -59 -57 17 -175 23 -175 10 0 -7 22 -11 56
-11 68 0 163 -26 171 -47 3 -9 1 -39 -6 -67 -83 -349 -103 -449 -121 -611 -18
-164 -6 -306 40 -445 4 -14 13 -45 20 -70 7 -25 23 -77 36 -115 52 -164 98
-377 119 -556 18 -150 39 -265 61 -332 9 -27 14 -51 11 -53 -3 -3 -31 4 -64
14 -71 24 -203 37 -273 27 -84 -12 -56 -20 68 -21 94 0 131 -5 190 -24 78 -25
87 -33 95 -96 2 -23 12 -56 20 -75 8 -19 25 -56 36 -83 27 -62 98 -162 149
-208 22 -19 73 -55 113 -78 81 -46 226 -139 243 -155 6 -5 57 -49 113 -98 94
-81 111 -101 219 -265 153 -232 188 -277 231 -297 38 -18 108 -15 161 7 50 22
119 77 146 118 14 22 31 40 37 40 7 0 48 -33 93 -73 242 -216 383 -329 484
-386 145 -83 406 -171 504 -171 16 0 28 -4 28 -9 0 -8 -48 -110 -56 -120 -2
-2 -40 14 -86 36 -144 69 -235 93 -478 124 -104 13 -497 7 -630 -10 -300 -38
-575 -39 -735 -2 -98 23 -159 39 -190 51 -11 4 -40 13 -65 20 -25 6 -53 16
-62 21 -10 5 -29 9 -42 9 -14 0 -27 4 -30 9 -3 5 -20 11 -38 14 -18 3 -55 11
-83 18 -74 18 -329 23 -396 8 -59 -13 -98 -34 -86 -46 4 -3 17 -1 30 5 44 21
85 26 237 25 158 -1 238 -8 255 -24 5 -5 18 -9 29 -9 18 0 62 -12 111 -30 11
-4 40 -13 65 -20 25 -7 54 -16 65 -20 47 -19 178 -50 273 -65 129 -22 384 -16
677 14 473 49 874 5 1105 -121 66 -36 70 -41 70 -98 0 -58 37 -135 86 -181 48
-45 142 -109 160 -109 7 0 34 -33 59 -73 26 -39 70 -96 98 -124 41 -43 58 -53
84 -53 l33 0 -77 78 c-51 51 -90 102 -112 144 -31 61 -33 72 -29 140 4 83 35
161 86 219 l31 36 118 -40 c111 -37 125 -40 243 -41 106 -1 136 3 200 23 77
24 129 28 156 13 13 -7 14 -11 2 -23 -7 -8 -25 -30 -38 -49 -13 -19 -27 -37
-31 -40 -4 -3 -21 -34 -39 -69 -23 -44 -34 -83 -38 -128 -4 -56 -8 -66 -34
-85 -16 -11 -50 -27 -75 -34 -25 -8 -64 -31 -88 -53 -23 -21 -54 -46 -68 -56
-36 -23 -34 -35 6 -35 26 0 42 10 77 45 24 25 50 45 58 45 22 0 138 59 157 81
32 34 45 24 45 -36 0 -75 25 -135 56 -135 23 0 24 16 4 45 -4 6 -11 54 -14
109 -7 93 -6 101 20 155 54 112 52 111 160 111 127 0 253 30 382 92 73 35 164
114 182 158 7 16 15 30 19 30 3 0 44 -7 91 -15 107 -19 262 -19 323 -1 43 13
47 12 65 -8 35 -39 60 -81 75 -126 8 -24 19 -46 24 -47 12 -4 4 55 -8 63 -5 3
-9 12 -9 21 0 9 -16 38 -35 64 -19 27 -35 52 -35 54 0 3 22 28 49 55 82 82
121 183 121 312 l0 76 53 30 c69 39 131 103 174 179 35 64 74 103 100 103 15
0 61 -43 100 -95 13 -16 25 -26 29 -22 6 6 -25 55 -58 91 -24 26 -23 36 4 36
24 0 103 -79 146 -147 26 -42 42 -54 42 -32 0 18 -57 94 -113 152 -28 30 -58
67 -66 83 -7 16 -17 37 -22 46 -5 10 -9 27 -9 37 0 11 -4 22 -9 25 -5 3 -11
20 -14 38 -4 18 -12 65 -19 103 -22 122 -15 341 14 416 29 78 294 142 562 137
l149 -3 15 -65 c7 -36 18 -73 23 -82 5 -10 9 -23 9 -29 0 -21 87 -134 129
-168 23 -19 41 -38 41 -43 0 -28 -421 -611 -604 -838 -174 -214 -262 -298
-486 -460 -223 -161 -389 -288 -500 -381 -69 -57 -168 -138 -220 -179 -94 -75
-94 -75 -62 -78 28 -3 47 8 130 74 53 43 99 81 102 84 13 16 278 227 380 302
155 114 228 162 270 177 19 7 44 17 55 21 11 5 34 11 50 15 17 3 55 11 85 18
74 15 429 15 505 0 95 -19 147 -31 190 -42 239 -64 436 -61 630 9 236 86 450
140 553 140 106 0 256 -37 412 -102 14 -6 35 -15 48 -19 12 -5 32 -13 45 -18
49 -21 144 -51 160 -51 9 0 17 5 17 10 0 6 -8 10 -18 10 -19 0 -95 27 -247 88
-98 39 -194 69 -288 91 -57 13 -196 14 -246 2 -20 -5 -61 -15 -91 -22 -63 -14
-257 -75 -282 -89 -10 -6 -25 -10 -33 -10 -8 0 -23 -4 -33 -9 -9 -5 -36 -14
-59 -20 -24 -6 -60 -15 -80 -21 -62 -16 -183 -20 -268 -11 -77 9 -118 17 -215
41 -94 23 -127 30 -210 46 -114 22 -344 21 -470 -1 -52 -10 -111 -19 -130 -22
l-35 -4 40 33 c205 167 449 468 832 1023 53 77 97 142 99 144 2 2 18 -9 36
-24 44 -37 126 -75 163 -75 24 0 48 19 140 113 61 61 142 150 180 197 87 109
117 124 235 116 80 -5 107 -9 228 -37 75 -17 249 -23 285 -9 62 23 72 28 122
51 28 13 52 27 53 32 2 4 10 7 18 7 7 0 28 8 46 18 44 24 167 62 201 62 15 0
27 5 27 10 0 32 -168 -15 -310 -87 -63 -32 -133 -64 -155 -71 -46 -15 -200
-11 -280 7 -124 29 -166 35 -257 35 -60 1 -98 5 -98 11 0 6 11 27 25 48 30 44
129 112 280 192 154 81 212 123 287 204 98 106 125 170 164 386 9 50 25 135
35 190 22 113 113 651 129 765 6 41 15 102 20 135 5 33 14 92 19 130 6 39 15
102 21 142 13 95 13 253 -2 310 -10 43 -10 47 13 64 13 9 43 20 66 24 24 3 43
10 43 16 0 13 -17 11 -74 -6 -62 -19 -76 -19 -76 0 0 27 -81 168 -155 270
-205 283 -352 569 -434 845 -12 41 -26 85 -32 98 -5 13 -9 37 -9 55 0 28 22
54 183 215 l183 183 170 -4 c93 -3 186 -8 207 -12 20 -4 37 -3 37 2 0 18 -111
33 -250 33 l-145 1 96 92 c52 51 141 124 197 162 79 55 101 75 102 94 0 31 -9
27 -127 -55 -120 -84 -166 -126 -442 -406 -123 -126 -230 -228 -236 -228 -7 0
-15 17 -19 38 -3 20 -10 65 -16 100 -5 34 -15 90 -20 125 -6 34 -13 79 -16
100 -4 20 -10 40 -15 43 -5 3 -9 14 -9 25 0 10 -4 27 -8 37 -71 147 -98 197
-129 238 -55 72 -171 184 -191 184 -11 0 3 -18 40 -50 31 -28 80 -81 110 -118
58 -73 158 -262 158 -298 0 -13 4 -25 9 -28 5 -3 11 -23 15 -43 3 -21 10 -67
16 -103 6 -36 13 -87 16 -115 4 -27 10 -55 15 -61 5 -6 6 -14 2 -17 -3 -4 -20
10 -37 31 -43 52 -125 130 -167 158 -20 14 -51 46 -70 71 -50 70 -155 179
-223 231 -62 46 -230 132 -260 132 -9 0 -24 4 -34 9 -29 14 -87 31 -110 31
-11 0 -24 5 -27 10 -3 6 -19 10 -34 10 -15 0 -31 3 -35 8 -16 16 -190 44 -381
62 -110 10 -256 30 -325 45 -178 38 -223 45 -330 51 -92 6 -144 -2 -269 -42
-35 -11 -25 8 49 90 80 87 161 159 263 232 67 48 106 91 278 305 110 136 239
292 286 346 130 147 328 340 418 408 l80 60 -38 3 c-32 3 -45 -3 -95 -44 -122
-102 -372 -362 -537 -559 -78 -94 -100 -105 -250 -136 -125 -25 -452 -10 -490
23 -5 4 -21 8 -36 8 -15 0 -31 5 -34 10 -3 6 -17 10 -30 10 -13 0 -26 4 -29 9
-3 5 -18 11 -33 14 -16 3 -46 11 -68 17 -220 63 -431 52 -800 -41 -110 -28
-205 -47 -305 -60 -94 -13 -341 -7 -380 9 -14 5 -43 15 -65 21 -41 12 -56 18
-110 41 -16 7 -39 16 -50 20 -11 5 -37 15 -58 25 -110 48 -224 81 -346 100
-118 19 -183 19 -302 0 -139 -21 -231 -50 -353 -111 -60 -30 -112 -53 -117
-52 -4 2 -63 77 -131 168 -69 91 -158 208 -199 260 -191 244 -214 270 -236
270 -13 0 -23 -5 -23 -10z m1356 -545 c57 -9 145 -29 196 -46 98 -31 106 -34
178 -67 293 -132 510 -147 870 -61 25 5 59 13 75 15 17 3 39 9 50 14 11 5 34
11 50 14 17 3 53 10 80 16 129 28 191 34 335 34 144 -1 186 -6 283 -33 20 -6
54 -16 75 -22 54 -15 86 -24 187 -55 82 -24 104 -27 250 -26 150 0 182 4 330
38 25 6 28 5 19 -7 -81 -106 -212 -268 -228 -283 -12 -10 -66 -52 -121 -94
-114 -86 -252 -222 -310 -307 -33 -47 -52 -63 -110 -92 -153 -77 -280 -190
-366 -323 -77 -120 -72 -114 -96 -101 -26 13 -98 15 -139 2 -16 -5 -49 -15
-74 -22 -25 -7 -49 -16 -55 -20 -32 -21 -187 -34 -239 -19 -106 30 -179 55
-266 90 -87 34 -133 49 -246 79 -53 14 -185 14 -238 0 -96 -25 -124 -34 -175
-56 -29 -13 -55 -23 -56 -23 -2 0 -39 46 -83 103 -114 148 -241 257 -380 326
l-73 36 -74 120 c-40 66 -144 224 -230 350 -87 127 -158 236 -159 244 -2 20
145 96 254 131 100 32 238 57 329 59 29 0 100 -6 157 -14z m-551 -821 c39 -8
81 -18 95 -21 14 -3 30 -9 35 -13 6 -4 22 -10 37 -14 15 -3 42 -19 60 -35 18
-16 58 -41 88 -57 l55 -29 -80 -7 c-44 -4 -105 -12 -135 -18 -30 -6 -70 -13
-88 -17 -18 -3 -35 -9 -38 -14 -3 -5 -16 -9 -30 -9 -13 0 -32 -4 -42 -9 -9 -5
-37 -15 -62 -21 -25 -7 -65 -19 -90 -27 -83 -27 -225 -53 -287 -53 -34 0 -65
-4 -68 -10 -10 -15 120 -12 203 5 64 14 101 23 217 55 17 5 46 14 65 20 190
63 381 92 468 70 70 -17 190 -126 307 -277 112 -146 178 -275 407 -793 11 -25
32 -70 45 -100 14 -30 40 -89 58 -130 18 -41 44 -101 59 -132 14 -32 38 -84
52 -115 104 -229 172 -415 200 -546 8 -39 18 -75 23 -81 39 -47 131 -271 131
-319 0 -34 -199 -211 -217 -193 -3 2 4 17 16 32 11 15 21 34 21 43 -1 10 -13
1 -33 -24 -85 -105 -158 -162 -191 -149 -10 4 -2 18 30 49 24 25 44 52 44 62
0 12 -15 2 -48 -34 -78 -86 -176 -135 -207 -104 -6 5 -37 24 -70 42 -33 17
-71 42 -85 54 -51 45 -117 83 -200 114 -115 44 -191 81 -197 98 -3 7 9 29 26
48 46 53 153 215 142 215 -13 0 -18 -7 -87 -105 -65 -93 -103 -135 -121 -135
-7 0 -27 -9 -45 -20 -48 -29 -135 -27 -190 4 -47 26 -108 105 -108 140 -1 11
-2 201 -4 421 -3 410 -4 427 -50 660 -9 44 -20 94 -25 110 -4 17 -14 50 -21
75 -57 198 -101 308 -214 527 -11 23 -26 31 -26 15 0 -5 22 -51 48 -103 84
-163 158 -363 192 -519 7 -30 16 -66 20 -80 5 -14 13 -61 20 -105 6 -44 16
-100 21 -125 6 -25 13 -196 16 -382 l6 -336 -27 -82 c-42 -131 -144 -261 -181
-230 -11 9 -13 28 -9 78 7 82 -12 67 -22 -18 -11 -90 -14 -94 -171 -237 -50
-46 -106 -107 -124 -135 -19 -29 -49 -66 -68 -83 -103 -90 -222 -287 -257
-425 -23 -91 -26 -95 -98 -130 -95 -45 -100 -43 -92 33 4 34 9 100 12 147 6
103 11 130 24 130 5 0 18 6 27 14 10 8 33 27 51 42 18 15 59 61 91 103 64 83
148 166 199 196 32 19 42 35 21 35 -33 0 -151 -108 -229 -210 -59 -77 -111
-129 -149 -149 -32 -18 -35 2 -16 131 27 188 28 198 16 198 -6 0 -11 -12 -11
-27 0 -37 -18 -85 -63 -171 -37 -72 -51 -109 -78 -203 -15 -54 -34 -84 -47
-75 -18 11 -42 98 -42 150 0 28 -7 73 -15 100 -21 69 -19 155 6 220 23 62 18
87 -12 60 -10 -9 -19 -25 -19 -34 0 -9 -3 -20 -7 -24 -5 -4 -19 -51 -32 -104
-21 -84 -25 -127 -29 -312 -2 -133 1 -264 9 -345 20 -206 17 -348 -10 -418
-13 -33 -32 -62 -44 -69 -12 -6 -41 -28 -65 -49 -24 -21 -56 -41 -73 -44 -35
-8 -48 -25 -19 -25 28 0 88 32 124 66 l29 27 126 -130 c117 -120 219 -244 252
-303 8 -14 16 -27 19 -30 21 -21 87 -155 127 -261 54 -141 70 -195 101 -344
17 -79 23 -253 13 -338 -11 -92 -34 -124 -116 -163 -89 -42 -92 -39 -99 73 -7
135 -29 287 -46 328 -4 11 -14 36 -21 55 -27 74 -132 197 -191 223 -16 6 -28
15 -28 19 0 14 -66 8 -98 -8 -44 -21 -74 -67 -76 -114 0 -22 -5 -40 -9 -40 -4
0 -37 25 -73 55 -69 59 -185 138 -299 203 -101 58 -155 112 -155 156 0 51 36
137 75 178 14 15 25 33 25 40 -1 7 -18 -6 -40 -30 -37 -41 -61 -91 -75 -155
-5 -24 -8 -27 -21 -17 -19 17 -74 133 -74 158 0 11 16 37 35 58 48 50 38 69
-10 21 -36 -36 -40 -38 -52 -21 -18 24 -17 141 1 159 31 31 89 55 151 61 38 4
62 11 58 17 -7 12 -127 1 -156 -16 -11 -7 -30 -20 -41 -29 -42 -38 -51 -22
-80 137 -8 44 -20 127 -26 185 -20 178 -56 339 -126 568 -130 418 -128 540 26
1192 12 52 26 112 31 133 5 20 13 54 18 75 5 20 14 60 20 87 6 28 31 138 56
245 58 245 75 335 75 384 0 82 135 317 254 444 152 160 309 244 513 273 103
14 214 3 308 -32 59 -22 55 -22 55 -9 0 25 -180 70 -279 70 -64 0 -185 -22
-251 -45 -59 -21 -154 -67 -158 -77 -2 -4 -9 -8 -15 -8 -36 -1 -236 -199 -302
-299 -26 -40 -63 -102 -80 -137 -18 -35 -35 -61 -39 -57 -9 10 -7 92 3 127 6
17 24 78 42 136 60 199 147 349 253 438 50 43 204 122 416 215 19 9 79 36 134
61 54 25 100 46 103 46 2 0 34 14 71 31 37 17 90 42 117 54 28 13 84 39 125
58 163 76 281 127 293 127 7 0 17 4 23 8 5 5 29 14 54 21 25 8 56 17 70 21 43
14 172 11 245 -6z m3315 -59 c47 -7 141 -26 210 -40 117 -25 204 -36 428 -51
51 -4 95 -10 97 -14 2 -4 -21 -10 -53 -14 -234 -29 -256 -33 -292 -48 -14 -6
-34 -14 -45 -18 -11 -4 -60 -28 -110 -52 -49 -25 -116 -55 -147 -68 -32 -12
-58 -26 -58 -31 0 -19 31 -7 222 85 64 31 124 56 132 56 8 0 17 4 20 9 6 9 39
15 129 26 23 3 80 10 127 16 86 11 271 0 330 -20 14 -5 45 -14 70 -21 137 -38
246 -83 317 -131 55 -36 248 -227 239 -236 -3 -4 -27 4 -53 17 -151 72 -324
110 -507 110 -158 0 -280 22 -354 62 -23 13 -33 15 -30 6 6 -22 107 -65 167
-72 31 -3 130 -10 221 -16 283 -15 433 -60 615 -181 89 -59 215 -182 215 -209
0 -6 3 -10 8 -10 9 0 42 -74 42 -96 0 -25 49 -193 87 -294 99 -268 202 -461
385 -716 126 -177 174 -273 193 -388 8 -49 15 -108 15 -132 0 -36 -68 -527
-100 -729 -5 -27 -13 -79 -19 -115 -5 -36 -15 -92 -21 -125 -6 -33 -15 -85
-20 -115 -17 -110 -71 -384 -77 -393 -3 -5 -9 -45 -14 -87 -5 -55 -19 -104
-45 -165 -62 -144 -149 -224 -379 -346 -55 -29 -117 -63 -137 -76 -50 -31 -60
-32 -63 -5 -2 22 -30 51 -51 52 -23 0 -134 -81 -197 -145 -78 -80 -86 -95
-138 -272 -44 -151 -69 -203 -86 -181 -6 7 -20 41 -32 75 -19 55 -22 78 -18
180 2 65 9 138 15 163 6 25 15 63 20 85 19 78 97 299 141 400 91 204 253 485
300 522 9 7 28 13 44 13 15 0 27 5 27 10 0 6 -12 10 -26 10 -19 0 -25 5 -22
18 7 36 113 25 196 -20 18 -10 40 -18 50 -18 26 1 -23 35 -73 51 -22 7 -44 16
-49 21 -6 4 -31 8 -56 8 l-46 0 -12 83 c-16 109 -15 179 4 252 9 33 20 79 26
103 6 25 18 47 30 53 22 12 153 18 200 9 15 -3 27 0 27 5 1 19 -54 26 -150 21
l-96 -6 -16 118 c-30 207 -15 488 33 627 16 46 71 139 116 194 7 9 28 36 46
61 20 28 52 54 82 69 48 24 49 39 1 27 -36 -9 -82 -52 -127 -120 -23 -33 -45
-63 -48 -66 -16 -12 -178 -260 -207 -317 -17 -35 -36 -87 -43 -116 -6 -28 -16
-68 -22 -87 -14 -45 -103 -180 -161 -245 l-45 -50 -39 41 c-60 63 -75 103 -67
174 4 38 3 60 -4 60 -5 0 -13 -29 -17 -65 -5 -53 -10 -65 -24 -65 -41 0 -121
60 -168 125 -12 16 -24 27 -28 23 -11 -11 54 -94 94 -122 20 -14 53 -32 73
-40 61 -26 59 -40 -3 -33 -99 12 -207 81 -330 209 -44 46 -59 57 -59 40 0 -22
170 -178 242 -221 52 -31 131 -52 184 -50 42 3 47 0 89 -47 49 -55 49 -54 34
-107 l-10 -38 -46 7 c-55 8 -53 -11 2 -22 20 -3 38 -10 41 -15 8 -14 -55 -154
-79 -176 -44 -40 -203 -83 -304 -83 -39 0 -75 -4 -78 -10 -9 -14 132 -13 192
1 27 7 80 22 120 34 61 20 72 21 77 8 3 -8 6 -81 6 -163 0 -147 0 -149 -25
-168 -29 -23 -32 -32 -10 -32 9 0 15 -9 15 -25 0 -33 -34 -50 -146 -71 -111
-21 -127 -26 -95 -32 21 -3 105 9 164 25 28 7 19 -9 -44 -77 -128 -139 -246
-347 -289 -510 -6 -25 -16 -59 -21 -76 -5 -17 -9 -49 -9 -72 0 -22 -5 -51 -10
-64 -11 -23 -13 -23 -198 -24 -202 -1 -321 -19 -436 -68 -22 -9 -41 -15 -43
-12 -7 7 67 74 118 107 29 18 47 35 40 37 -17 6 -91 -41 -131 -82 -44 -45 -70
-45 -108 -1 -40 45 -53 89 -59 201 -4 73 -1 106 16 168 34 125 51 148 144 210
144 95 268 237 331 380 53 119 70 194 70 306 -1 127 -19 183 -102 304 -30 45
-73 119 -95 166 -57 124 -117 204 -167 224 -26 10 -40 22 -40 34 0 10 -4 22
-9 28 -5 5 -11 27 -15 49 -3 22 -10 67 -16 100 -16 87 -29 187 -39 300 -10
114 -19 155 -33 155 -7 0 -8 -16 -3 -42 4 -24 11 -86 17 -138 11 -112 23 -203
38 -285 6 -33 13 -78 17 -100 3 -22 9 -45 14 -51 5 -6 6 -19 3 -29 -6 -16 -17
-17 -88 -12 -94 7 -146 21 -176 45 -33 27 -43 138 -35 417 3 132 6 263 5 290
-1 28 0 93 0 145 4 266 3 310 -10 375 -17 88 -19 360 -2 480 19 137 30 205 42
260 6 28 14 65 17 83 3 18 9 35 14 38 12 7 12 64 0 64 -5 0 -11 -12 -14 -27
-3 -16 -11 -46 -17 -68 -30 -103 -59 -292 -80 -516 -9 -102 -3 -187 26 -353
15 -89 16 -115 5 -246 -9 -96 -10 -158 -4 -181 6 -21 6 -85 1 -169 -5 -74 -7
-222 -4 -327 4 -174 0 -223 -19 -193 -4 7 -16 4 -33 -8 -87 -59 -172 -84 -312
-88 -253 -9 -477 -106 -668 -289 -44 -41 -82 -75 -85 -75 -15 0 -86 128 -155
280 -16 36 -47 90 -67 120 -57 82 -59 72 105 570 23 69 73 247 111 395 68 263
121 455 139 505 5 14 23 72 40 130 94 309 134 427 181 528 95 205 244 360 427
444 37 18 90 47 117 65 100 65 248 86 415 58z m-2054 -414 c16 -5 54 -14 84
-21 30 -7 116 -37 190 -67 74 -29 143 -53 152 -53 9 0 19 -4 22 -9 13 -21 241
-40 259 -22 6 6 23 11 37 11 14 0 30 4 35 8 6 5 30 14 55 21 25 7 53 17 62 22
26 13 122 11 142 -4 16 -12 16 -15 -4 -62 -28 -65 -85 -235 -153 -460 -93
-303 -119 -394 -193 -685 -55 -214 -46 -184 -139 -475 -42 -132 -82 -258 -89
-279 l-12 -39 -17 36 c-9 20 -25 54 -34 75 -9 20 -29 57 -44 82 -14 25 -34 82
-44 125 -20 90 -81 274 -121 362 -34 76 -27 61 -224 501 -252 565 -313 696
-366 783 -19 31 -34 59 -34 63 0 9 89 51 135 63 22 7 56 16 75 21 45 13 188
15 226 3z m3789 -2136 c-16 -118 -20 -366 -6 -430 5 -22 12 -68 16 -102 6 -56
5 -64 -12 -69 -88 -30 -169 -82 -161 -104 2 -7 15 -1 32 13 41 35 124 73 136
61 6 -6 0 -42 -15 -99 -27 -97 -32 -195 -15 -284 12 -63 1 -91 -35 -91 -14 0
-33 -4 -43 -9 -9 -5 -30 -15 -47 -22 -16 -7 -43 -24 -59 -37 -26 -21 -30 -22
-38 -7 -19 32 -20 158 -3 230 37 158 37 165 21 231 -19 76 -20 121 -2 194 17
69 20 75 74 190 37 79 45 104 44 150 -2 71 16 124 80 239 24 43 39 63 45 58 2
-2 -3 -53 -12 -112z m-4930 8 c-18 -113 -42 -210 -57 -230 -9 -12 -134 -53
-161 -53 -12 0 -13 6 -7 28 5 15 14 48 21 75 9 37 15 46 29 42 27 -9 82 36
130 107 25 37 46 67 48 68 2 0 0 -17 -3 -37z m49 -21 c10 -30 73 -91 112 -107
21 -8 66 -15 106 -15 63 0 69 -2 57 -16 -29 -35 -83 -51 -189 -57 -58 -3 -118
-9 -134 -13 -32 -8 -32 -9 -6 96 6 25 13 64 17 88 6 43 27 57 37 24z m384
-120 c30 -21 70 -39 157 -72 94 -35 155 -64 155 -74 0 -4 -10 -5 -22 -1 -25 7
-73 21 -128 36 -67 18 -195 39 -242 39 -34 0 -46 4 -42 13 5 12 82 77 91 77 3
0 17 -8 31 -18z m2565 -11 c11 -18 17 -50 17 -85 0 -65 5 -64 -130 -42 -88 15
-180 45 -180 58 0 4 12 10 28 14 72 16 131 36 172 58 58 33 72 32 93 -3z
m-1326 -113 c23 -46 53 -109 68 -141 14 -32 44 -85 65 -119 22 -34 40 -67 40
-75 0 -8 -13 -34 -29 -57 -34 -49 -76 -139 -86 -186 -9 -41 -35 -50 -140 -50
-91 0 -105 8 -105 61 0 31 -18 79 -67 181 -82 170 -79 200 36 293 39 31 71 60
71 64 0 4 8 16 18 27 26 30 42 61 42 82 0 58 34 26 87 -80z m-107 87 c0 -41
-52 -104 -162 -197 -84 -69 -85 -125 -7 -280 51 -102 69 -154 69 -205 l0 -43
-44 0 c-43 0 -43 0 -57 48 -20 72 -64 152 -124 224 -48 59 -140 143 -183 167
-31 18 9 42 83 51 39 5 79 17 94 27 14 11 51 32 81 47 73 38 126 75 186 130
53 49 64 54 64 31z m1571 -40 c35 -8 92 -15 125 -15 66 0 77 -7 88 -55 21 -87
18 -112 -9 -86 -12 12 -174 57 -235 66 -60 9 -70 20 -70 70 0 46 7 60 25 45 6
-5 40 -16 76 -25z m-3371 -3 c0 -15 -4 -32 -9 -37 -5 -6 -11 -18 -13 -28 -3
-19 -208 -134 -208 -117 0 5 39 44 86 87 48 43 96 88 108 100 28 29 36 28 36
-5z m2945 -55 c88 -34 136 -44 320 -68 344 -44 568 -191 655 -430 23 -61 26
-155 8 -208 -19 -56 -86 -179 -127 -235 -35 -47 -139 -151 -187 -186 -64 -47
-148 -87 -254 -120 -77 -24 -116 -30 -204 -32 l-109 -3 -22 85 c-12 47 -29
102 -38 122 -23 54 -89 148 -131 186 -39 35 -183 132 -197 132 -21 0 -7 20 19
26 72 17 131 106 118 176 -21 110 -145 172 -235 117 -41 -25 -54 -37 -71 -68
-17 -33 -15 -128 3 -149 28 -34 30 -42 5 -33 -14 5 -24 18 -26 33 -2 20 -11
26 -45 34 l-41 9 4 55 c2 30 4 78 5 105 l0 50 -42 3 c-30 2 -43 -1 -43 -10 -2
-33 -27 -218 -31 -222 -6 -5 -267 19 -274 26 -9 8 23 96 58 158 114 205 319
367 567 450 143 48 182 48 315 -3z m718 -1 c45 -47 132 -206 112 -206 -4 0
-125 77 -132 84 -11 10 -43 115 -43 138 0 39 14 35 63 -16z m-3016 14 c267
-35 517 -143 710 -307 81 -69 185 -215 166 -234 -4 -4 -64 -9 -133 -12 -69 -2
-154 -11 -190 -19 -43 -11 -71 -13 -83 -6 -24 12 -165 -2 -182 -19 -9 -9 -12
-24 -8 -43 7 -37 -5 -38 -33 -2 -22 26 -25 27 -110 25 -110 -3 -118 -10 -104
-82 6 -34 6 -59 0 -70 -8 -13 -9 -11 -10 10 0 35 -56 91 -109 109 -33 10 -48
11 -86 0 -55 -15 -111 -69 -120 -116 -9 -49 -22 -42 -30 15 -8 62 -22 75 -67
63 -32 -8 -33 -10 -33 -63 l0 -54 -36 -3 c-38 -3 -49 10 -49 65 0 30 -14 36
-62 28 l-40 -7 6 -52 c28 -223 35 -246 73 -246 47 0 55 12 52 71 l-4 54 40 0
c40 0 40 0 48 -47 10 -52 17 -58 64 -51 38 6 46 24 33 78 -12 52 -12 75 0 75
6 0 10 -7 10 -17 0 -27 49 -82 87 -98 41 -17 96 -19 124 -5 28 16 24 -1 -17
-61 -42 -62 -105 -193 -123 -259 -7 -25 -17 -55 -22 -68 -5 -13 -9 -35 -9 -50
0 -15 -7 -38 -17 -51 -16 -24 -17 -24 -162 -18 -173 7 -256 26 -380 90 -124
63 -281 170 -334 226 -50 54 -64 90 -76 203 -51 474 349 893 909 951 77 8 233
6 307 -3z m4262 -220 c-21 -69 -22 -71 -43 -57 -32 22 -30 38 14 87 22 24 40
49 41 55 0 5 3 5 5 -2 3 -6 -5 -43 -17 -83z m-47 -82 c29 -20 30 -22 12 -35
-28 -20 -64 -17 -64 6 0 22 10 51 17 51 3 0 19 -10 35 -22z m-5894 -60 c6 -24
15 -74 18 -113 4 -38 15 -89 25 -112 35 -77 49 -163 49 -300 0 -79 8 -193 21
-283 21 -154 20 -221 -5 -255 -12 -17 -16 -17 -64 -2 -28 10 -57 17 -64 17 -8
0 -23 6 -33 14 -18 13 -18 15 -2 39 9 14 24 58 33 99 17 75 17 75 -6 358 -10
130 -13 523 -4 558 9 33 18 27 32 -20z m215 -145 c-15 -13 -31 -23 -35 -23
-19 0 4 89 40 154 l17 31 3 -70 c3 -66 2 -71 -25 -92z m5707 88 c0 -37 -10
-51 -61 -80 -51 -31 -74 -40 -76 -33 -2 4 10 41 25 82 25 66 31 76 57 81 40 7
55 -6 55 -50z m10 -91 c-9 -18 -71 -68 -116 -96 -11 -7 -16 -15 -11 -20 4 -4
35 11 68 35 34 23 64 40 67 37 2 -3 -3 -27 -11 -54 -9 -26 -19 -68 -23 -93 -7
-48 -32 -94 -77 -146 -61 -70 -62 -69 -64 113 -1 119 2 164 10 165 7 0 39 18
72 39 69 44 102 52 85 20z m-2220 -30 c43 -43 11 -120 -49 -120 -56 0 -79 65
-40 114 25 31 61 34 89 6z m-3470 -12 c0 -12 -5 -83 -11 -158 l-12 -137 -32
-12 c-48 -17 -55 -14 -55 21 0 18 -5 68 -12 113 -11 79 -11 81 15 122 40 63
107 95 107 51z m2340 -37 c17 -33 12 -60 -12 -65 -180 -33 -284 -59 -390 -101
-14 -5 -17 0 -20 32 -3 38 -3 38 -45 38 -53 0 -58 17 -8 31 20 5 43 18 51 28
21 29 159 54 296 55 106 1 118 -1 128 -18z m710 -105 c115 -19 131 -23 234
-58 103 -34 145 -54 239 -114 134 -87 225 -215 235 -332 5 -64 -16 -184 -49
-269 -9 -23 -14 -34 -41 -100 -7 -18 -16 -33 -20 -33 -5 0 -8 -5 -8 -10 0 -23
-101 -158 -162 -218 -77 -76 -153 -129 -256 -177 -42 -20 -85 -41 -94 -46 -10
-5 -25 -9 -33 -9 -8 0 -23 -4 -33 -9 -26 -14 -194 -49 -302 -63 -131 -17 -513
-17 -620 0 -316 51 -558 189 -696 397 -72 109 -84 151 -73 250 23 190 122 366
283 503 77 66 79 67 152 110 183 108 429 173 739 196 101 8 422 -4 505 -18z
m-1440 -21 c0 -21 -19 -28 -36 -15 -10 9 -11 16 -3 26 12 15 39 8 39 -11z
m124 -41 c13 -97 12 -98 -69 -159 -101 -77 -205 -198 -260 -304 -23 -46 -65
-162 -65 -182 0 -30 -25 -47 -79 -54 l-53 -7 5 48 c6 56 15 100 27 129 4 11
20 50 35 87 42 105 100 198 177 282 l37 41 10 -27 c8 -21 17 -28 38 -28 42 0
51 11 55 60 3 41 5 44 38 52 42 11 80 50 80 84 0 42 17 26 24 -22z m-389 1
c57 -57 2 -155 -67 -119 -50 26 -47 113 5 134 32 13 36 12 62 -15z m549 -20
c-21 -16 -54 -20 -54 -6 0 10 22 18 54 20 20 1 20 1 0 -14z m-1724 -124 l0
-108 -43 -41 c-48 -43 -113 -79 -125 -67 -8 8 -6 218 3 246 4 10 14 19 23 19
9 0 42 13 72 29 30 15 58 29 63 30 4 0 7 -48 7 -108z m1318 72 c-2 -9 -8 -18
-15 -20 -7 -3 -9 3 -6 16 6 25 26 28 21 4z m4173 -51 c2 -29 -2 -57 -7 -62
-15 -15 -125 -70 -140 -70 -34 0 -4 58 71 134 33 34 63 60 67 57 4 -4 8 -30 9
-59z m-992 -48 c-77 -170 -226 -329 -381 -407 -146 -73 -417 -152 -440 -129
-5 5 -8 38 -6 73 l3 64 120 11 c121 12 149 18 240 49 173 60 346 199 441 354
43 72 58 62 23 -15z m-4696 -82 c-4 -111 -8 -129 -25 -144 -11 -10 -24 -18
-28 -18 -14 0 -30 98 -30 186 0 72 3 85 18 90 9 3 24 9 32 13 35 19 39 3 33
-127z m5945 122 c-3 -18 -68 -44 -110 -44 -14 0 -28 -6 -31 -12 -4 -10 -7 -10
-18 0 -11 10 -10 12 4 12 9 0 17 3 17 8 0 4 15 13 33 20 17 7 39 17 47 22 26
15 62 12 58 -6z m-44 -82 c-12 -8 -108 -163 -157 -252 -101 -185 -162 -327
-218 -505 -12 -38 -25 -79 -30 -90 -4 -11 -10 -33 -14 -50 -3 -16 -11 -50 -17
-75 -15 -64 -22 -310 -9 -323 6 -6 11 -19 11 -28 0 -9 10 -35 21 -57 12 -22
19 -47 16 -56 -14 -36 -101 -9 -163 51 -73 71 -104 166 -104 323 0 247 68 454
254 765 102 172 180 246 321 306 46 19 121 12 89 -9z m-229 -18 c-123 -92
-282 -339 -387 -603 -79 -201 -109 -444 -73 -596 8 -32 12 -62 9 -65 -9 -8
-79 78 -105 129 -38 75 -47 149 -33 271 31 273 140 497 351 720 52 56 85 81
143 109 41 19 77 39 78 43 2 5 11 8 20 8 14 -1 14 -3 -3 -16z m-5435 -131 c0
-2 -21 -12 -47 -24 -27 -12 -70 -32 -97 -45 -56 -26 -66 -24 -66 11 0 19 10
29 43 44 23 11 64 38 91 61 l50 41 13 -43 c7 -24 13 -44 13 -45z m20 -62 c0
-19 -82 -101 -120 -119 -14 -7 -38 -14 -54 -15 -26 -2 -31 2 -37 33 -4 19 -5
38 -2 43 2 4 39 24 81 43 42 20 84 39 92 44 18 9 40 -6 40 -29z m-250 -16 c0
-14 -8 -29 -20 -35 -37 -20 -55 13 -24 44 23 24 44 20 44 -9z m424 -70 c52
-36 99 -65 105 -65 6 0 11 -3 11 -7 0 -5 10 -13 23 -19 12 -6 47 -24 77 -40
128 -68 261 -96 440 -93 l105 2 3 -93 3 -93 -86 7 c-48 4 -121 16 -163 27
-175 45 -471 225 -559 341 -42 55 -68 98 -58 98 3 0 47 -29 99 -65z m-124 3
c73 -113 169 -193 376 -312 142 -81 251 -119 382 -131 40 -4 74 -11 77 -15 2
-4 0 -34 -6 -66 -5 -32 -14 -92 -18 -132 -5 -40 -11 -76 -14 -79 -3 -2 -32 4
-64 16 -168 59 -394 96 -536 88 -86 -4 -88 -4 -106 22 -10 14 -21 33 -24 41
-16 36 -125 196 -154 225 -16 17 -16 18 3 32 14 11 43 13 119 10 55 -2 112 -8
128 -12 39 -11 34 9 -6 23 -43 15 -221 16 -250 1 -19 -11 -25 -7 -54 26 -17
20 -46 66 -63 102 -33 68 -30 93 12 93 23 0 92 46 132 89 17 17 30 31 31 31 1
0 17 -24 35 -52z m-292 0 c17 -17 15 -68 -5 -90 -19 -22 -10 -36 12 -18 13 11
18 10 30 -6 8 -10 15 -25 15 -32 0 -12 19 -51 30 -62 3 -3 11 -17 19 -32 8
-16 18 -28 23 -28 4 0 8 -9 8 -20 0 -19 -59 -56 -77 -48 -4 1 -38 35 -76 74
l-67 71 15 49 c8 27 15 70 15 95 0 25 3 49 7 52 10 11 38 8 51 -5z m3786 -353
c-46 -192 -160 -340 -374 -487 -177 -122 -379 -205 -620 -255 -109 -22 -151
-26 -320 -26 -163 -1 -213 3 -305 22 -124 25 -239 59 -320 96 -113 52 -296
212 -364 320 -53 83 -128 304 -89 264 7 -8 19 -26 26 -40 8 -14 23 -37 35 -51
12 -14 36 -43 52 -64 34 -42 183 -164 201 -164 7 0 14 -4 16 -8 4 -10 133 -72
150 -72 8 0 18 -4 24 -8 26 -22 175 -55 329 -73 165 -20 557 0 720 35 357 79
607 262 751 551 27 54 44 103 86 245 13 44 13 41 16 -85 2 -96 -2 -148 -14
-200z m471 188 c-88 -211 -63 -494 48 -536 29 -11 16 -38 -31 -64 l-43 -24
-28 30 c-16 17 -39 53 -52 81 -22 46 -39 64 -39 40 0 -18 47 -105 74 -136 l24
-30 -54 -48 c-34 -30 -55 -43 -58 -34 -16 61 -34 103 -72 167 -48 81 -50 89
-30 129 28 56 57 153 54 180 -3 16 -6 21 -9 12 -3 -8 -19 -55 -35 -105 -18
-54 -36 -91 -44 -92 -14 -3 -147 161 -143 175 1 4 8 40 17 81 16 78 25 91 67
91 30 0 249 61 299 83 48 21 64 21 55 0z m-4440 -24 c111 -42 256 -219 399
-489 92 -175 111 -259 137 -611 12 -167 9 -229 -14 -247 -9 -8 -12 21 -14 129
-1 142 -9 190 -54 362 -20 74 -61 190 -91 255 -15 34 -28 65 -28 67 0 3 -18
35 -40 71 -22 36 -40 68 -40 71 0 17 -157 210 -241 297 -54 57 -99 106 -99
110 0 11 28 6 85 -15z m1515 -108 c0 -50 -4 -92 -9 -95 -4 -3 -34 -8 -65 -12
l-56 -7 0 91 c0 87 1 92 23 96 115 25 107 30 107 -73z m-1120 -88 c105 -133
174 -257 225 -409 53 -154 66 -231 71 -419 l4 -160 -49 53 c-63 69 -77 104
-90 237 -19 180 -38 249 -100 373 -46 93 -77 148 -102 184 -11 14 -19 29 -19
33 0 3 -18 33 -41 66 -50 73 -42 90 41 98 8 0 35 -25 60 -56z m1128 -70 c5
-10 12 -35 16 -55 6 -34 3 -42 -34 -82 -22 -24 -74 -67 -115 -96 l-75 -51 0
28 c1 38 35 241 42 248 5 5 78 17 145 24 7 0 16 -7 21 -16z m2579 -182 c71
-98 133 -217 133 -254 0 -18 -11 -34 -32 -50 -39 -28 -134 -52 -174 -44 -16 3
-49 10 -74 15 -83 17 -280 101 -280 119 0 5 31 35 68 68 89 78 161 165 203
243 l34 62 30 -36 c17 -20 58 -75 92 -123z m2029 82 c8 -30 -1 -48 -85 -170
-62 -90 -110 -149 -200 -248 -80 -88 -93 -97 -80 -53 13 41 25 83 37 128 19
70 52 153 69 173 81 94 205 195 240 196 7 1 16 -11 19 -26z m-4562 -45 c3 -13
6 -37 6 -55 0 -17 5 -35 10 -38 6 -3 10 -14 10 -24 0 -50 133 -258 235 -370
44 -47 106 -91 130 -91 17 0 21 -45 5 -55 -12 -7 -14 -35 -2 -35 4 0 17 16 30
36 20 31 27 35 50 29 15 -3 41 -9 57 -13 17 -4 39 -12 50 -19 16 -9 17 -13 6
-27 -19 -23 -5 -33 17 -13 10 10 25 17 33 17 8 0 64 -24 124 -54 61 -29 128
-59 150 -67 22 -7 44 -17 50 -21 5 -4 21 -8 36 -8 15 0 31 -4 34 -10 3 -5 21
-10 40 -10 19 0 36 -4 39 -9 3 -5 23 -11 43 -15 89 -13 113 -19 113 -27 0 -4
-9 -24 -21 -43 -21 -36 -36 -44 -54 -28 -35 31 -245 90 -355 99 -55 5 -87 13
-120 33 -94 55 -242 103 -475 155 -11 2 -33 26 -50 52 -85 137 -261 329 -377
412 -46 33 -62 61 -35 61 15 0 132 88 171 129 35 37 42 38 50 9z m-614 -75
c41 -8 93 -20 115 -25 22 -5 52 -12 68 -15 15 -3 30 -9 33 -14 3 -5 13 -9 23
-9 56 0 219 -118 348 -254 125 -131 176 -210 115 -177 -34 18 -140 13 -206
-10 -156 -56 -313 -204 -388 -366 -17 -38 -32 -69 -34 -71 -2 -4 -192 119
-224 145 -13 10 -38 31 -56 46 l-33 28 -4 177 c-3 97 -10 202 -16 232 -7 30
-14 70 -18 88 -3 18 -9 35 -14 38 -5 3 -9 14 -9 25 0 10 -4 27 -9 37 -24 45
-51 126 -44 133 5 4 17 9 28 12 35 10 247 -3 325 -20z m780 -156 c41 -44 104
-101 140 -128 60 -45 176 -109 198 -109 5 0 14 -6 20 -13 8 -10 0 -22 -35 -50
-25 -20 -53 -37 -62 -37 -49 1 -135 68 -211 166 -88 113 -170 254 -170 290 1
15 5 13 22 -11 12 -16 56 -65 98 -108z m2725 -29 c-13 -84 -11 -307 3 -378 7
-36 16 -80 19 -98 3 -18 9 -35 14 -38 5 -3 9 -15 9 -28 0 -12 5 -27 12 -34 21
-21 0 -24 -34 -5 -18 10 -35 21 -38 24 -3 3 -19 12 -36 19 -20 9 -40 30 -55
59 -13 25 -50 74 -82 108 l-59 62 31 62 c17 34 31 74 31 88 0 27 27 78 58 111
29 30 116 100 126 100 5 0 5 -22 1 -52z m-710 -58 c55 -27 109 -50 121 -50 11
0 24 -3 28 -7 10 -10 113 -32 155 -32 41 -1 104 16 149 41 l32 18 0 -30 c0
-37 -36 -134 -55 -150 -12 -10 -30 -5 -92 28 -136 70 -235 106 -378 136 -58
12 -115 40 -115 57 0 8 40 39 50 39 3 0 50 -23 105 -50z m-177 -26 l23 -16
-26 -14 c-15 -8 -34 -14 -41 -14 -8 0 -22 -4 -32 -9 -9 -5 -42 -21 -72 -35
-63 -30 -112 -59 -169 -100 l-40 -28 -46 17 c-25 10 -48 21 -50 25 -2 4 42 22
98 41 56 19 151 59 212 90 60 31 112 57 115 58 3 0 16 -6 28 -15z m72 -54 c0
-5 -5 -10 -10 -10 -15 0 -109 -63 -114 -77 -8 -19 8 -16 40 10 75 59 164 82
226 58 13 -5 41 -14 63 -20 56 -17 66 -22 187 -80 86 -41 120 -65 180 -124
132 -128 181 -276 114 -346 -54 -57 -106 -73 -221 -69 l-102 3 -84 75 c-46 41
-90 80 -97 87 -7 7 -26 20 -42 30 -17 9 -30 21 -30 25 0 4 -7 8 -15 8 -8 0
-15 5 -15 10 0 6 -5 10 -11 10 -6 0 -30 14 -55 30 -51 35 -237 132 -336 174
-38 16 -68 33 -68 37 0 23 176 123 285 162 48 17 105 21 105 7z m-3632 -62
c84 -57 152 -146 187 -243 31 -83 67 -407 48 -426 -20 -20 -75 45 -209 245
-75 110 -152 223 -171 249 -55 74 -44 154 26 191 41 22 69 18 119 -16z m2205
-55 c5 -3 7 -14 4 -24 -6 -22 -3 -23 23 -7 10 7 22 9 25 6 9 -8 -66 -77 -84
-78 -16 0 -71 16 -115 34 l-29 12 48 37 c42 32 53 36 84 31 20 -4 40 -9 44
-11z m909 -30 c24 -9 47 -20 52 -24 11 -10 -12 -59 -28 -59 -6 0 -54 18 -106
39 l-94 39 34 10 c53 15 95 14 142 -5z m-474 -19 l232 -4 97 -36 c54 -20 138
-56 188 -79 49 -24 135 -62 190 -85 206 -87 461 -209 522 -251 174 -119 238
-235 213 -382 -14 -77 -38 -120 -80 -142 -27 -14 -57 -16 -188 -12 -86 3 -179
10 -207 15 -106 22 -104 22 -110 61 -27 166 -66 248 -163 344 -37 37 -90 83
-119 102 -72 48 -213 120 -269 136 -55 17 -72 33 -52 52 35 35 110 77 158 89
61 16 86 45 29 33 -52 -10 -90 -26 -139 -59 -25 -16 -47 -32 -50 -36 -22 -28
-53 -37 -93 -28 -23 5 -59 12 -80 15 -20 3 -40 9 -43 14 -3 5 -17 9 -31 9 -39
0 -84 15 -238 79 -148 62 -190 85 -190 101 0 8 20 29 45 48 41 32 48 34 95 27
27 -4 155 -9 283 -11z m-981 -35 c80 -45 83 -59 10 -59 -98 0 -244 -48 -321
-105 -29 -22 -9 -32 22 -11 94 61 233 102 318 93 101 -11 339 -72 457 -119 75
-30 103 -48 73 -48 -14 0 -115 -52 -145 -74 -47 -36 -172 -170 -195 -209 -38
-64 -66 -145 -66 -189 0 -28 -5 -38 -20 -43 -28 -9 -277 25 -325 45 -11 4 -36
14 -55 21 -47 17 -151 88 -226 154 -29 25 -53 43 -97 73 -26 18 -47 39 -47 46
0 8 19 51 42 97 33 67 59 102 132 174 86 85 129 114 246 163 46 19 155 14 197
-9z m1601 -5 c184 -82 451 -225 472 -253 3 -3 31 -26 63 -49 32 -24 57 -46 54
-48 -2 -3 -58 21 -123 53 -66 32 -146 70 -179 85 -33 15 -90 41 -128 57 -37
17 -70 31 -72 31 -2 0 -29 11 -59 25 -30 14 -66 29 -81 35 -37 14 -43 39 -16
62 28 22 25 22 69 2z m-2634 -141 c44 -51 56 -71 51 -87 -4 -12 -9 -32 -12
-46 -9 -35 -36 -81 -56 -94 -13 -8 -21 -6 -37 9 -17 18 -18 25 -9 60 11 39 7
173 -7 208 -13 34 14 15 70 -50z m3834 -115 c41 -28 54 -48 30 -48 -18 0 -107
64 -108 77 0 16 24 7 78 -29z m-3712 -3 c16 -15 120 -89 194 -137 66 -43 73
-58 55 -100 -4 -11 -3 -18 4 -18 7 0 17 13 22 30 l11 30 46 -32 c26 -18 87
-64 135 -104 149 -122 245 -159 477 -184 94 -11 120 -21 120 -46 0 -8 5 -14
10 -14 6 0 10 9 10 20 0 11 6 20 14 20 35 0 203 -45 264 -71 12 -5 32 -13 45
-18 62 -24 109 -44 217 -94 106 -50 243 -98 330 -117 30 -6 71 -16 91 -21 46
-12 237 -12 275 0 16 5 49 14 74 22 25 7 49 16 54 21 14 11 26 10 26 -3 0 -17
-61 -70 -97 -85 -17 -8 -63 -18 -102 -24 -124 -20 -393 18 -716 100 -280 71
-465 100 -635 100 -144 0 -279 37 -470 128 -59 27 -204 124 -257 169 -17 16
-97 84 -177 153 -80 69 -145 130 -146 136 0 6 7 17 15 24 17 14 45 67 45 86 0
7 5 24 12 38 11 27 16 26 54 -9z m1508 -29 c-53 -38 -109 -94 -101 -102 4 -4
24 8 45 28 71 67 94 78 165 78 259 0 660 -211 806 -424 45 -65 68 -123 82
-210 9 -55 10 -82 2 -94 -12 -20 -116 -65 -186 -81 -61 -14 -204 -14 -281 0
-77 15 -212 55 -290 86 -80 32 -105 43 -263 114 -27 12 -58 25 -70 30 -13 5
-33 13 -45 19 -42 17 -128 42 -206 59 l-77 17 -3 40 c-6 64 25 141 95 236 89
122 281 251 342 230 10 -4 5 -11 -15 -26z m643 -7 c15 -6 37 -15 48 -19 121
-46 280 -141 356 -212 65 -61 116 -136 144 -213 12 -34 32 -145 27 -150 -8 -8
-41 -6 -60 4 -9 5 -43 20 -76 32 -54 22 -61 29 -91 87 -78 148 -212 273 -399
373 -50 26 -53 43 -13 87 24 25 26 26 64 11z m1531 -1 c8 -8 9 -15 1 -25 -18
-21 -39 -15 -39 12 0 27 18 33 38 13z m-128 -148 c0 -18 -70 -88 -119 -119
-46 -30 -91 -41 -91 -22 0 4 -18 29 -40 54 -22 25 -40 48 -40 51 0 3 46 6 103
6 79 1 110 5 137 19 42 22 50 24 50 11z m-916 -450 c8 0 18 -4 21 -10 3 -5 16
-10 27 -10 35 0 47 -27 34 -77 -6 -23 -13 -44 -16 -45 -10 -3 -125 22 -140 32
-13 8 -33 125 -23 142 1 3 21 -2 43 -13 21 -10 46 -19 54 -19z m211 -62 c28
-6 130 -12 229 -15 l179 -4 -29 -30 c-71 -74 -182 -94 -369 -65 -128 20 -127
19 -119 75 8 59 12 64 38 56 11 -4 44 -11 71 -17z m-1672 -93 c50 -8 105 -19
121 -23 l28 -8 -39 -27 -39 -27 -100 49 c-54 28 -91 50 -81 51 9 0 59 -7 110
-15z m-107 -24 c84 -35 154 -72 154 -82 0 -4 -11 -21 -25 -37 -46 -54 -86
-155 -92 -231 -4 -47 -10 -71 -18 -71 -25 0 -150 106 -172 145 -35 62 -32 157
8 241 37 76 44 78 145 35z m1550 4 c32 -8 62 -19 67 -24 13 -13 -29 -71 -79
-110 -80 -61 -186 -105 -337 -140 -49 -11 -207 -15 -207 -5 0 8 62 98 73 105
4 3 52 9 106 12 140 9 225 52 281 143 25 39 21 39 96 19z m-1004 -75 c89 -22
168 -40 177 -40 9 0 23 -5 31 -10 13 -9 13 -11 1 -19 -26 -17 -172 -34 -239
-27 -118 10 -297 66 -289 90 2 6 21 21 43 34 47 27 56 26 276 -28z m463 -90
c4 -6 -13 -41 -38 -78 -25 -37 -62 -98 -83 -137 -43 -79 -61 -102 -88 -117
-18 -10 -19 -7 -13 38 10 84 61 180 151 282 20 23 60 30 71 12z"/>
<path d="M5395 6949 c-81 -10 -128 -22 -132 -35 -3 -8 9 -9 39 -2 88 19 216
29 311 23 56 -3 97 -2 97 3 0 21 -186 28 -315 11z"/>
<path d="M5095 3790 c-3 -6 2 -36 13 -68 30 -87 62 -196 62 -209 0 -6 14 -16
32 -22 27 -10 35 -9 50 6 18 19 148 250 148 264 0 13 -72 23 -89 12 -9 -5 -29
-37 -45 -71 -16 -34 -33 -62 -36 -62 -4 0 -15 33 -25 73 -9 39 -22 75 -29 79
-16 11 -74 10 -81 -2z"/>
<path d="M5422 3754 c-5 -11 -15 -75 -21 -143 -10 -102 -10 -126 1 -136 7 -7
48 -16 91 -19 76 -7 77 -6 87 18 14 38 4 52 -43 62 -49 11 -51 30 -3 26 38 -4
59 16 54 50 -2 18 -11 24 -41 29 -66 11 -64 35 3 31 34 -2 42 1 51 22 17 36 6
53 -38 60 -126 19 -131 19 -141 0z"/>
<path d="M3736 3105 c-8 -8 -18 -25 -21 -38 -4 -12 -15 -44 -25 -72 -73 -199
-72 -195 -60 -210 26 -31 110 -4 110 35 0 6 24 10 54 10 49 0 54 -2 60 -25 4
-15 16 -27 31 -31 32 -8 75 3 75 19 0 28 -100 302 -114 312 -23 18 -92 17
-110 0z m76 -160 c2 -21 -2 -30 -15 -33 -23 -5 -30 18 -17 53 13 33 27 24 32
-20z"/>
<path d="M4001 3106 c-8 -9 -11 -63 -9 -167 l3 -154 50 0 50 0 3 155 c2 137 1
156 -15 167 -22 17 -68 16 -82 -1z"/>
<path d="M4160 3110 c-33 -5 -35 -7 -35 -45 0 -38 2 -40 32 -43 l32 -3 3 -117
3 -117 44 -3 c28 -2 47 1 52 10 5 7 9 61 9 121 l0 107 29 0 c39 0 58 54 29 78
-15 11 -146 19 -198 12z"/>
<path d="M4402 3108 c-13 -13 -18 -281 -6 -312 6 -17 69 -22 91 -8 6 4 13 32
15 62 l3 55 40 0 c40 0 40 0 43 -40 5 -81 8 -85 56 -85 31 0 46 5 50 16 3 9 6
81 6 160 l0 144 -25 12 c-18 8 -35 9 -53 2 -25 -9 -27 -15 -30 -67 l-3 -57
-44 0 -45 0 0 55 c0 43 -4 56 -19 65 -26 14 -64 13 -79 -2z"/>
<path d="M3427 2964 c-8 -174 -4 -186 56 -182 l42 3 3 58 3 57 37 0 c51 0 64
11 60 51 -3 33 -5 34 -50 37 -32 2 -48 8 -48 16 0 17 22 26 48 19 36 -9 64 14
60 50 l-3 32 -101 3 -101 3 -6 -147z"/>
<path d="M4350 1620 c0 -5 -5 -10 -12 -10 -12 0 -68 -59 -68 -72 0 -14 9 -9
51 32 23 22 48 40 55 40 8 0 14 5 14 10 0 6 -9 10 -20 10 -11 0 -20 -4 -20
-10z"/>
</g>
</svg>
