<?xml version="1.0" standalone="no"?>
<!DOCTYPE svg PUBLIC "-//W3C//DTD SVG 20010904//EN"
 "http://www.w3.org/TR/2001/REC-SVG-20010904/DTD/svg10.dtd">
<svg version="1.0" xmlns="http://www.w3.org/2000/svg"
 width="850.000000pt" height="850.000000pt" viewBox="0 0 850.000000 850.000000"
 preserveAspectRatio="xMidYMid meet">
<metadata>
Created by potrace 1.14, written by Peter Selinger 2001-2017
</metadata>
<g transform="translate(0.000000,850.000000) scale(0.100000,-0.100000)"
fill="#000000" stroke="none">
<path d="M430 8494 c0 -4 14 -30 32 -57 44 -69 48 -127 13 -242 -61 -204 -81
-336 -65 -429 19 -104 17 -113 -27 -154 -54 -49 -84 -74 -87 -70 -2 2 -8 12
-14 23 -11 19 -11 19 -12 1 0 -26 22 -86 32 -86 4 0 8 9 8 19 0 10 16 32 37
47 98 78 123 117 104 168 -14 36 -14 227 0 280 35 136 50 189 62 215 6 12 12
57 12 100 0 66 -4 83 -30 131 -16 30 -38 56 -47 58 -10 2 -18 0 -18 -4z"/>
<path d="M705 8443 c-59 -72 -108 -177 -130 -276 -20 -90 -17 -284 6 -349 21
-63 69 -102 69 -57 0 11 6 26 13 33 21 20 89 48 121 50 31 1 31 1 33 -54 6
-135 42 -305 74 -346 6 -7 -5 -17 -29 -28 -20 -10 -92 -75 -160 -147 -68 -71
-130 -129 -137 -129 -37 0 -56 88 -36 173 11 44 2 48 -22 8 -10 -16 -27 -32
-40 -34 -19 -4 -18 -4 6 -6 25 -1 27 -4 27 -46 0 -39 12 -78 30 -95 34 -33 82
-125 91 -175 6 -33 13 -70 15 -83 11 -56 60 -37 120 46 63 87 144 233 144 261
0 9 5 22 12 29 8 8 12 46 11 109 0 81 -4 105 -22 136 -11 21 -21 46 -21 57 0
10 -4 21 -9 24 -21 13 -42 266 -22 266 6 0 11 -17 11 -37 0 -20 4 -50 9 -67 5
-17 15 -51 21 -76 7 -25 16 -53 21 -62 5 -10 9 -23 9 -29 0 -21 41 -69 59 -69
33 0 70 40 107 115 48 96 56 136 61 281 l4 121 64 28 c93 40 202 155 252 265
63 138 86 181 102 190 15 7 20 6 23 -8 3 -10 22 -27 43 -36 67 -32 189 -6 227
49 21 29 -5 34 -36 6 -61 -54 -204 -54 -221 1 -4 10 -16 18 -29 18 -37 0 -62
-38 -135 -203 -34 -77 -51 -100 -128 -179 -55 -57 -113 -93 -145 -90 -10 0
-18 -6 -18 -14 0 -8 -4 -13 -9 -10 -5 3 -7 14 -4 24 2 10 -3 38 -11 62 -9 25
-16 55 -16 68 0 14 -4 21 -11 16 -11 -7 -9 -32 10 -122 l9 -44 -120 -59 c-66
-32 -124 -56 -129 -53 -12 7 -11 161 1 169 6 3 10 20 10 37 0 17 -3 28 -7 24
-13 -13 -32 -100 -33 -148 0 -65 -16 -63 -63 7 -15 22 -27 36 -27 33 0 -11 40
-81 58 -101 16 -18 15 -20 -3 -33 -10 -8 -26 -14 -36 -14 -26 0 -84 -27 -117
-55 -29 -24 -31 -25 -41 -7 -20 37 -34 156 -28 236 11 145 53 257 146 395 52
77 37 79 -24 4z m425 -575 c0 -56 -5 -118 -11 -137 -40 -126 -103 -241 -133
-241 -20 0 -41 30 -55 80 -7 25 -17 54 -21 65 -5 11 -11 36 -15 55 -19 113
-24 137 -30 153 -6 14 0 20 26 30 19 7 72 31 119 54 123 62 120 63 120 -59z
m-220 -512 c7 -23 8 -41 0 -60 -5 -15 -10 -38 -10 -52 0 -13 -4 -32 -9 -42 -5
-9 -17 -35 -28 -57 -84 -170 -158 -275 -195 -275 -14 0 -18 8 -18 37 0 45 -14
93 -45 154 l-23 46 142 141 c78 78 150 142 158 142 10 0 21 -14 28 -34z"/>
<path d="M1947 8464 c10 -62 -15 -137 -73 -213 -29 -39 -67 -98 -85 -131 -38
-71 -63 -95 -173 -158 -102 -59 -148 -105 -214 -213 -64 -107 -133 -178 -206
-212 -77 -37 -89 -36 -68 6 17 32 41 110 42 135 0 6 -4 12 -10 12 -5 0 -10
-11 -10 -25 0 -38 -28 -102 -82 -191 -35 -55 -50 -101 -65 -192 -3 -18 -9 -35
-14 -38 -5 -3 -9 -18 -9 -34 0 -16 -5 -32 -10 -35 -6 -3 -10 -19 -10 -35 0
-16 -4 -32 -10 -35 -5 -3 -10 -19 -10 -35 0 -16 -4 -32 -10 -35 -5 -3 -10 -15
-10 -26 0 -10 -4 -27 -9 -37 -5 -9 -28 -55 -51 -102 -54 -108 -95 -158 -156
-191 -37 -20 -50 -33 -52 -53 -9 -69 94 -95 245 -60 151 34 291 132 375 262
49 75 70 119 100 205 17 52 34 65 55 44 15 -15 14 -21 -14 -74 -16 -32 -49
-89 -73 -128 -50 -82 -71 -127 -79 -175 -5 -27 -12 -36 -31 -38 -13 -2 -45
-23 -71 -46 -40 -36 -97 -70 -164 -97 -11 -4 -44 -10 -73 -12 -62 -5 -71 -11
-54 -37 19 -32 14 -47 -19 -54 -20 -4 -43 1 -69 14 -79 40 -187 18 -269 -56
-26 -24 -55 -58 -64 -75 -12 -26 -40 -45 -143 -98 -111 -58 -181 -98 -281
-162 -15 -9 -23 -24 -23 -41 0 -16 3 -28 6 -28 4 0 53 29 109 64 332 209 706
346 1105 405 504 75 919 11 1215 -189 132 -89 301 -264 352 -365 11 -20 -16 0
-83 66 -212 204 -440 321 -739 380 -92 18 -451 18 -560 0 -173 -28 -367 -72
-445 -100 -14 -5 -65 -24 -115 -42 -207 -73 -425 -183 -620 -312 -143 -95
-225 -160 -225 -179 0 -10 4 -18 9 -18 7 0 57 35 71 50 14 15 157 113 240 165
116 71 355 191 470 234 47 18 93 37 102 42 10 5 27 9 37 9 11 0 22 4 25 9 3 5
18 11 33 14 16 3 46 11 68 17 104 30 245 57 385 76 165 21 443 15 577 -14 266
-58 478 -176 686 -383 64 -65 117 -123 117 -128 0 -15 -54 -13 -120 4 -116 29
-128 34 -410 174 -107 53 -227 107 -265 119 -73 23 -135 29 -135 13 0 -5 44
-33 98 -61 142 -77 236 -144 332 -240 192 -191 307 -407 350 -655 14 -78 8
-359 -9 -460 -10 -58 -23 -135 -42 -242 -53 -305 -61 -394 -57 -684 l3 -266
-42 -49 c-22 -27 -45 -46 -49 -41 -9 9 12 500 27 632 13 112 36 291 48 370 5
33 14 92 20 130 6 39 18 115 27 170 21 134 21 387 1 481 -34 152 -86 266 -200
433 -137 202 -258 298 -447 355 -208 62 -490 79 -665 38 -230 -54 -522 -191
-829 -389 -85 -55 -251 -175 -266 -193 -3 -3 -21 -18 -40 -34 -105 -86 -150
-135 -150 -166 0 -16 2 -30 6 -30 3 0 52 42 109 94 198 178 431 337 697 474
224 116 389 176 554 202 52 8 74 6 158 -15 205 -52 340 -140 395 -259 68 -147
82 -375 40 -631 -11 -67 -42 -183 -107 -400 -51 -170 -57 -209 -56 -390 0
-149 4 -185 28 -290 27 -115 97 -336 166 -515 146 -386 191 -573 192 -794 0
-198 -36 -323 -118 -410 -40 -42 -24 -41 -194 -16 -275 40 -380 39 -611 -9
-109 -23 -360 -131 -417 -180 l-23 -20 21 -43 c11 -24 32 -52 47 -63 15 -11
40 -35 57 -54 58 -64 165 -130 253 -157 46 -14 83 -31 83 -37 0 -7 15 -22 33
-35 40 -27 114 -29 197 -7 79 21 157 19 204 -5 21 -12 70 -46 109 -76 89 -67
137 -90 241 -115 162 -38 198 -52 238 -90 116 -110 -50 -216 -371 -238 -119
-8 -142 -7 -205 10 -209 57 -436 172 -569 290 -45 39 -76 47 -84 22 -11 -32
193 -178 351 -254 187 -89 424 -153 656 -179 52 -6 111 -15 130 -22 106 -33
201 -113 241 -203 33 -73 31 -195 -4 -288 -38 -98 -59 -141 -76 -152 -35 -24
-149 -87 -183 -101 -25 -11 -38 -23 -38 -35 0 -31 44 -23 139 26 47 24 121 60
163 80 43 19 111 50 151 69 39 18 98 39 129 45 108 23 136 -17 107 -154 -14
-65 -58 -181 -83 -217 -22 -31 -20 -38 9 -38 21 0 30 11 59 72 43 91 67 183
69 265 2 61 0 66 -31 94 -18 16 -39 29 -48 29 -12 0 -9 9 13 38 16 20 63 89
105 152 106 163 158 210 232 210 32 0 37 -3 31 -17 -26 -64 -45 -131 -60 -209
-37 -194 -45 -231 -64 -292 -41 -127 -141 -272 -215 -311 -38 -21 -32 -31 17
-31 37 0 48 5 78 38 125 132 178 256 224 517 37 212 61 277 131 348 58 59 88
71 174 70 59 0 94 -8 163 -33 98 -36 154 -74 231 -157 68 -75 114 -97 185 -90
31 3 86 12 122 20 81 18 132 10 196 -29 147 -92 185 -314 87 -519 -18 -38 -50
-91 -70 -117 l-36 -48 34 0 c34 0 57 24 105 110 74 131 92 304 48 446 -6 19
-2 22 41 28 27 3 94 24 150 46 122 48 185 52 246 18 46 -26 68 -62 68 -113 0
-40 -3 -42 -38 -17 -67 47 -128 52 -204 19 -114 -51 -198 -204 -198 -362 0
-50 -3 -56 -28 -69 -16 -8 -46 -34 -68 -58 -37 -41 -38 -43 -16 -46 15 -2 32
7 50 26 56 60 152 88 247 72 79 -13 184 -13 226 1 19 6 76 31 128 56 155 74
211 86 277 58 45 -18 64 -63 64 -150 0 -58 2 -65 20 -65 18 0 20 7 20 65 0 35
-7 86 -16 112 -14 41 -15 59 -5 124 17 112 -14 248 -71 309 -67 71 -192 66
-298 -14 -36 -27 -40 -26 -54 20 -6 18 1 26 41 49 67 37 155 65 206 65 126 0
195 -75 226 -245 13 -70 10 -349 -4 -442 -7 -41 -6 -43 18 -43 23 0 26 5 39
73 7 39 13 138 13 218 l0 147 205 5 c139 3 253 12 355 27 278 41 374 21 520
-110 97 -87 174 -130 305 -170 170 -51 281 -111 311 -167 13 -23 59 -33 59
-13 0 6 -20 33 -45 59 -53 57 -148 109 -255 141 -190 56 -237 82 -390 219 -19
18 -64 46 -100 64 -64 32 -67 32 -210 31 -80 0 -167 -5 -195 -11 -151 -34
-570 -44 -570 -14 0 11 15 14 70 13 70 -2 236 11 543 44 139 15 174 16 238 5
99 -17 185 -53 324 -138 148 -91 192 -113 320 -158 58 -20 125 -49 150 -63 60
-35 136 -107 167 -159 20 -35 30 -43 55 -43 l29 0 -27 50 c-15 27 -51 75 -80
107 -51 54 -53 59 -47 98 3 22 20 69 37 105 24 51 39 69 68 83 33 16 40 16 71
3 19 -7 60 -37 90 -64 52 -47 104 -72 150 -72 32 0 74 -31 96 -70 24 -43 51
-149 51 -202 0 -27 4 -38 15 -38 12 0 15 13 15 56 0 91 -38 199 -86 248 -24
23 -84 46 -124 46 -21 0 -72 32 -108 67 -52 51 -85 67 -135 66 -45 -1 -55 -5
-84 -37 -18 -20 -35 -36 -38 -36 -10 0 -4 69 10 116 21 71 68 173 80 174 6 0
30 -14 55 -30 66 -45 140 -77 207 -91 84 -17 93 -12 93 58 0 99 -47 271 -130
478 -55 139 -148 303 -195 344 -33 29 -38 30 -134 30 -171 0 -232 23 -93 35
82 7 148 23 171 40 37 28 -40 209 -126 293 -51 50 -91 73 -277 158 -105 47
-184 105 -283 205 l-81 82 -68 -4 c-38 -2 -78 -8 -89 -13 -11 -5 -4 5 15 21
54 45 90 87 90 105 0 4 -24 20 -52 37 -108 60 -203 154 -343 338 -71 93 -73
94 -177 95 -97 0 -184 12 -158 21 8 3 40 11 70 18 80 18 110 36 110 65 0 26
-27 80 -65 131 -13 16 -46 74 -74 128 -59 113 -85 153 -119 181 -14 11 -37 33
-51 50 -14 16 -49 54 -78 85 -49 53 -52 58 -51 108 0 48 -7 76 -32 137 -17 40
-50 152 -70 240 -11 50 -36 123 -56 163 -32 65 -34 74 -21 93 15 20 16 19 44
-23 34 -51 67 -119 83 -171 7 -21 19 -41 27 -44 19 -7 71 10 134 43 26 13 54
22 62 19 27 -11 84 75 102 154 5 26 4 30 -9 25 -9 -3 -16 -12 -16 -20 0 -54
-117 -151 -228 -190 -32 -12 -33 -11 -47 23 -8 20 -15 39 -15 44 0 11 -35 74
-71 126 -16 23 -29 48 -29 56 0 31 216 207 288 234 9 4 33 18 52 31 48 33 297
153 401 195 79 31 266 93 488 162 179 55 297 129 419 261 l69 74 39 -20 c21
-11 64 -26 95 -35 82 -22 130 -61 166 -136 36 -76 47 -118 33 -139 -14 -23
-127 -20 -173 4 l-35 19 -41 -32 c-23 -18 -41 -38 -41 -45 0 -7 34 -19 83 -29
116 -24 212 -74 286 -148 47 -48 75 -91 132 -200 40 -78 90 -160 115 -188 44
-48 130 -101 166 -101 30 0 41 -46 35 -150 -3 -67 -11 -109 -25 -140 -23 -50
-32 -164 -35 -450 -2 -161 -1 -166 26 -223 32 -68 35 -93 10 -82 -10 4 -63 11
-118 15 -55 4 -110 12 -122 18 -39 21 -44 69 -12 114 26 36 20 43 -31 39 l-40
-3 0 65 c0 93 21 120 142 182 54 28 98 56 98 63 0 27 -125 2 -195 -40 -48 -28
-58 -17 -120 127 -9 22 -24 54 -32 70 -9 17 -24 47 -35 68 -10 21 -21 55 -22
75 -4 41 -28 55 -42 25 -4 -10 -11 -65 -14 -123 l-5 -105 -89 -3 c-63 -2 -101
2 -128 13 -74 29 -73 -9 1 -53 41 -24 56 -27 143 -27 82 -1 102 -4 125 -21 61
-45 93 -159 78 -277 -7 -53 -8 -55 -47 -68 -22 -7 -54 -25 -70 -41 -36 -33
-37 -34 -84 -7 -62 34 -101 19 -80 -32 4 -8 -3 -30 -16 -49 -28 -41 -99 -70
-170 -70 -45 0 -48 2 -48 25 0 17 -8 29 -25 37 -21 9 -30 7 -62 -15 -21 -14
-62 -48 -92 -77 -66 -64 -111 -90 -157 -90 l-36 0 6 38 c4 20 11 72 15 116 5
43 13 82 18 86 4 4 31 13 58 19 85 22 131 42 207 94 31 21 59 45 62 53 10 25
-15 26 -48 1 -18 -14 -49 -32 -70 -41 -47 -20 -179 -22 -193 -3 -5 6 -15 46
-22 87 -7 41 -15 86 -17 100 -3 14 -10 72 -15 130 -5 58 -12 130 -15 161 -5
50 -3 59 21 87 33 39 18 42 -20 5 -25 -25 -26 -32 -21 -78 4 -27 11 -97 17
-155 5 -58 13 -132 19 -165 5 -33 13 -86 18 -119 11 -75 26 -86 114 -86 39 0
68 -4 68 -10 0 -5 -7 -10 -15 -10 -8 0 -23 -4 -33 -9 -9 -5 -44 -14 -76 -20
-33 -6 -62 -13 -64 -16 -3 -3 -9 -45 -13 -93 -4 -48 -13 -105 -19 -127 -7 -22
-14 -60 -17 -86 -4 -41 -2 -46 22 -57 14 -7 52 -12 83 -12 31 0 64 -5 72 -10
12 -8 11 -10 -7 -10 -12 0 -25 -4 -28 -10 -10 -16 47 -10 79 9 57 33 45 41
-66 41 -109 1 -143 12 -136 47 2 14 15 19 54 23 54 6 87 23 149 81 74 68 130
109 149 109 3 0 6 -10 6 -23 0 -36 19 -47 81 -47 97 0 169 36 194 97 8 20 15
44 15 54 0 24 3 24 60 -8 l48 -27 23 27 c28 30 96 70 109 62 5 -3 4 -20 -1
-38 -5 -17 -9 -60 -9 -94 0 -69 4 -66 -85 -77 -22 -3 -72 -11 -111 -17 -61
-11 -75 -10 -104 4 -41 21 -50 21 -50 3 0 -27 63 -63 130 -75 114 -21 138 -32
184 -81 52 -55 90 -135 117 -240 31 -122 21 -232 -29 -328 -27 -54 -55 -53
-137 2 -63 43 -70 46 -134 46 -60 0 -91 -10 -91 -31 0 -3 21 -12 48 -20 87
-24 153 -67 195 -128 29 -41 32 -54 32 -116 0 -67 -5 -85 -56 -214 l-10 -24
-37 35 c-40 38 -125 98 -139 98 -5 0 -24 13 -42 28 -26 21 -35 39 -42 77 -14
82 -38 388 -32 418 8 42 -20 34 -45 -14 -23 -42 -30 -85 -12 -74 6 3 10 17 10
31 0 14 4 22 10 19 6 -3 10 -23 10 -43 0 -52 19 -245 33 -326 12 -76 30 -103
88 -134 20 -11 47 -26 60 -34 36 -20 119 -106 119 -124 0 -9 7 -14 17 -12 24
4 95 197 101 274 8 110 -53 203 -174 264 -35 17 -44 25 -31 28 27 5 74 -16
133 -60 88 -66 135 -43 180 87 21 60 23 231 4 291 -68 209 -138 298 -253 319
-75 14 -20 43 99 52 l61 5 7 51 c3 29 11 84 17 122 5 39 13 114 16 168 5 97 2
113 -33 192 -17 40 -72 91 -106 99 l-27 6 24 25 c23 22 24 29 18 86 -10 96 5
77 110 -151 31 -67 65 -110 88 -110 19 0 19 0 -1 -22 -11 -13 -23 -32 -25 -43
-24 -124 -8 -342 40 -525 20 -74 44 -166 54 -204 23 -90 42 -101 155 -92 80 6
81 6 46 -10 -19 -9 -44 -20 -55 -24 -69 -26 -138 -67 -156 -91 -12 -18 -23
-56 -29 -106 -5 -43 -14 -118 -20 -168 -14 -117 -63 -313 -91 -367 -5 -10 -9
-28 -9 -41 0 -13 -5 -28 -11 -34 -16 -16 -17 -223 -3 -254 27 -55 47 -104 54
-128 3 -14 14 -28 24 -29 26 -5 159 64 233 120 113 87 65 20 -54 -75 -92 -73
-121 -104 -139 -144 -28 -63 -13 -124 50 -206 69 -90 72 -101 116 -357 34
-200 69 -361 82 -374 4 -6 8 -18 8 -28 0 -10 4 -26 9 -36 5 -9 19 -39 32 -67
35 -75 105 -182 128 -194 21 -12 34 -8 115 29 81 36 216 152 216 184 0 9 -2
16 -5 16 -3 0 -32 -27 -66 -60 -58 -58 -138 -111 -208 -140 -34 -14 -35 -13
-67 24 -45 52 -119 203 -144 296 -7 25 -16 56 -20 70 -9 27 -31 148 -50 270
-35 224 -57 294 -109 365 -54 72 -71 109 -71 155 0 70 62 107 95 56 12 -19 14
-29 6 -45 -6 -12 -16 -30 -21 -42 -6 -11 -8 -29 -5 -40 10 -32 41 -41 107 -34
l61 7 -7 -33 c-3 -19 -9 -64 -12 -101 -6 -56 -4 -69 9 -74 14 -5 47 7 71 28
29 24 135 85 168 96 65 23 76 -4 29 -71 -43 -63 -56 -111 -38 -138 25 -35 65
-49 143 -49 40 0 85 -5 99 -12 31 -14 47 -1 21 18 -14 10 -48 14 -111 14 -79
0 -94 3 -114 21 -30 28 -24 72 18 133 39 57 42 103 6 112 -33 8 -93 -16 -186
-77 -41 -27 -81 -49 -88 -49 -10 0 -11 13 -7 50 3 28 9 73 12 102 l6 51 -70
-6 c-50 -4 -75 -2 -88 8 -17 12 -17 15 1 70 l20 57 -33 28 c-37 31 -36 33 36
88 105 78 163 157 177 240 8 50 -12 59 -33 14 -30 -70 -119 -146 -248 -215
-58 -30 -84 -34 -84 -12 0 8 -8 34 -19 58 -10 23 -23 55 -30 70 -13 34 -15
169 -2 211 100 324 119 413 136 617 8 97 28 129 97 162 62 29 134 57 148 57
10 0 74 -91 112 -160 28 -52 60 -135 78 -200 6 -25 16 -59 21 -76 5 -17 9 -39
9 -49 0 -44 59 -205 101 -275 41 -69 124 -170 140 -170 21 0 6 37 -27 70 -42
40 -102 126 -129 185 -19 43 -26 66 -55 190 -28 119 -46 185 -70 245 -25 64
-89 174 -124 215 -14 17 -25 33 -23 37 1 4 31 22 66 40 65 33 98 69 50 54
-144 -45 -152 -36 -128 139 5 44 15 94 20 112 5 17 10 65 11 107 1 65 4 76 17
70 88 -35 249 -46 259 -16 3 9 -18 12 -80 12 -103 1 -181 29 -214 77 -20 29
-40 120 -29 131 2 3 22 -11 44 -31 21 -19 54 -42 72 -50 74 -32 91 -37 99 -32
13 8 0 35 -16 35 -27 0 -105 43 -138 76 -58 58 -70 95 -60 188 4 45 8 128 9
186 1 92 5 112 28 163 24 51 27 69 27 165 0 119 -11 146 -68 157 -50 11 -113
48 -148 89 -19 22 -60 90 -91 150 -31 61 -70 131 -86 156 -76 112 -214 205
-345 231 -54 11 -60 15 -48 27 13 13 20 13 55 -2 61 -24 152 -21 186 6 24 19
27 26 23 63 -3 23 -16 66 -30 96 -46 100 -109 155 -203 178 -56 13 -125 41
-125 50 0 3 7 14 14 24 13 17 16 17 55 -3 74 -39 123 -9 151 92 12 45 10 105
-6 171 -5 22 -3 27 13 27 43 0 57 -34 57 -138 1 -53 -5 -123 -13 -156 -15 -58
-15 -59 10 -78 107 -85 143 -146 183 -313 33 -134 49 -170 117 -271 86 -129
195 -223 287 -249 39 -11 52 10 52 85 0 58 6 79 44 161 35 77 96 247 176 495
28 86 5 183 -68 288 -39 56 -71 123 -72 148 0 14 8 16 54 11 86 -9 142 35 159
125 9 47 -11 37 -29 -13 -20 -59 -55 -85 -112 -85 -90 1 -171 90 -172 188 l0
44 31 -31 c25 -26 38 -31 77 -31 65 1 82 16 82 75 0 50 -30 122 -77 183 -22
29 -24 40 -19 80 3 26 1 74 -4 107 -6 33 -15 114 -20 180 -13 145 -34 195
-141 330 -69 87 -173 278 -221 405 -29 77 -60 122 -110 163 -44 35 -141 87
-164 87 -40 0 -125 45 -179 95 -33 30 -72 60 -86 67 l-26 12 38 36 c26 25 39
46 39 63 0 37 -16 34 -35 -7 -32 -68 -181 -101 -264 -60 -29 14 -71 66 -71 87
0 4 20 7 45 7 71 0 130 40 155 104 18 49 -5 52 -31 4 -16 -28 -37 -49 -62 -62
-55 -27 -96 -15 -164 45 -46 42 -60 50 -82 45 -14 -4 -51 -9 -82 -12 -52 -6
-61 -4 -100 23 -180 123 -412 210 -676 254 -41 7 -70 16 -66 22 8 13 150 0
251 -24 135 -31 159 4 72 106 -52 62 -100 149 -100 183 0 37 -13 82 -23 82 -6
0 -8 -22 -4 -59 6 -69 41 -144 93 -201 54 -58 64 -74 54 -90 -7 -12 -23 -11
-102 5 -59 12 -128 19 -190 18 l-98 -2 -48 39 c-55 43 -82 91 -82 147 0 48
-16 77 -25 48 -21 -67 -43 -68 -139 -9 -75 47 -118 57 -54 14 67 -47 149 -145
167 -201 17 -53 7 -69 -44 -69 -58 0 -233 -36 -325 -66 -87 -29 -261 -100
-339 -138 -49 -23 -56 -24 -71 -11 -27 24 -62 140 -51 167 5 13 36 47 70 76
33 29 77 77 98 106 21 30 56 66 78 80 72 46 77 50 106 93 33 48 35 53 14 53
-9 0 -19 -10 -24 -22 -11 -28 -53 -67 -104 -97 -20 -13 -58 -50 -84 -84 -48
-63 -110 -126 -150 -154 -19 -13 -23 -24 -23 -67 1 -28 7 -69 15 -91 8 -21 13
-41 11 -43 -2 -1 -22 20 -46 48 -46 55 -60 59 -123 31 -47 -21 -82 -33 -147
-51 -149 -42 -175 -56 -196 -105 -17 -42 -19 -146 -2 -163 8 -8 9 -15 2 -22
-16 -16 -36 -4 -66 39 -23 33 -28 50 -28 101 l0 62 -45 -7 c-58 -8 -106 -28
-126 -52 -9 -10 -31 -47 -50 -83 -31 -61 -98 -170 -105 -170 -1 0 -38 -7 -81
-15 -43 -8 -88 -15 -100 -15 -35 0 -163 170 -163 216 0 23 14 16 33 -15 9 -16
44 -54 77 -85 54 -50 66 -56 104 -56 50 0 68 16 114 100 44 80 65 149 93 300
6 30 15 78 20 105 5 28 12 89 15 136 l6 86 -30 21 c-16 12 -34 22 -39 22 -15
0 -155 90 -173 111 -18 20 -40 26 -40 9 0 -16 103 -92 176 -130 37 -19 71 -45
77 -57 10 -23 -3 -154 -24 -234 -5 -20 -9 -49 -9 -64 0 -53 -44 -204 -81 -275
-59 -115 -97 -133 -172 -81 -53 36 -137 132 -166 190 -16 31 -26 40 -33 33
-25 -25 35 -168 117 -276 24 -33 42 -62 40 -64 -5 -5 -115 -26 -220 -41 -33
-5 -121 -19 -195 -31 -74 -11 -169 -26 -210 -31 -41 -6 -104 -14 -140 -19
-102 -14 -200 -27 -414 -55 -512 -65 -671 -140 -876 -411 -81 -107 -197 -248
-228 -277 -29 -28 -32 -28 -69 -16 -21 7 -42 17 -47 21 -13 10 11 105 35 140
11 14 19 31 19 37 0 6 5 11 10 11 6 0 10 6 10 14 0 8 4 16 9 18 14 5 81 137
81 159 0 24 46 69 70 69 52 0 207 112 242 175 6 9 24 25 41 36 24 14 27 19 13
19 -15 0 -17 6 -14 30 6 37 -9 39 -23 3 -27 -72 -82 -145 -139 -183 -33 -22
-63 -40 -68 -40 -5 0 -23 -7 -38 -15 -35 -18 -38 -11 -24 46 18 70 30 121 42
169 15 62 22 270 8 250 -5 -8 -10 -58 -10 -111 0 -66 -4 -101 -14 -114 -14
-19 -14 -19 -36 0 -29 26 -41 49 -61 120 -16 56 -18 58 -18 23 -1 -49 38 -136
77 -170 27 -23 29 -31 22 -55 -5 -15 -14 -48 -20 -73 -7 -25 -21 -65 -31 -89
-19 -41 -22 -43 -52 -37 -17 4 -37 12 -44 19 -22 22 -73 129 -73 152 0 13 -4
27 -10 30 -5 3 -11 41 -11 83 -1 55 -3 67 -8 42 -6 -33 3 -134 15 -172 4 -15
-1 -18 -29 -18 -41 0 -87 33 -87 63 0 12 -5 29 -10 37 -7 11 -10 8 -10 -16 0
-48 59 -104 109 -104 35 0 39 -3 61 -50 13 -27 27 -50 31 -50 16 0 18 -34 4
-63 -8 -16 -15 -34 -15 -40 0 -5 -18 -46 -40 -90 -89 -186 -226 -298 -416
-342 -86 -20 -149 -19 -185 2 -40 24 -36 43 16 76 65 42 116 104 164 204 50
102 54 112 71 173 7 25 16 56 20 70 5 14 20 72 35 130 15 58 35 128 44 155 17
54 15 52 154 116 84 39 148 100 211 202 26 42 53 77 59 77 6 0 36 -8 66 -18
90 -30 148 -42 204 -42 43 0 59 5 87 28 50 41 91 52 193 52 141 0 256 36 383
121 92 62 162 139 231 258 67 114 162 213 250 262 35 19 63 37 63 42 0 21 -59
2 -114 -37 -84 -60 -161 -146 -220 -245 -107 -181 -221 -280 -391 -339 -71
-24 -118 -31 -244 -38 -99 -5 -117 -11 -166 -52 -27 -23 -35 -24 -105 -19 -41
3 -88 10 -105 15 -16 5 -49 15 -72 22 -24 7 -43 17 -43 21 0 29 191 158 234
159 11 0 45 -9 75 -19 91 -31 161 -44 236 -44 64 0 80 4 175 50 58 28 122 58
143 67 44 20 69 44 133 128 26 35 51 65 54 68 4 3 19 23 33 45 29 43 33 78 14
111 -23 39 -91 114 -104 114 -17 0 -17 -15 0 -32 94 -98 105 -136 59 -190 -15
-18 -52 -64 -82 -103 -56 -73 -98 -115 -115 -115 -5 0 -62 -26 -125 -57 -108
-53 -119 -56 -190 -57 -76 0 -202 25 -254 51 l-28 15 24 26 c14 15 32 44 42
65 9 20 39 65 65 100 73 95 93 141 99 225 4 68 3 72 -16 72 -18 0 -20 -4 -15
-36z m3763 -148 c0 -30 35 -81 91 -134 l44 -41 -52 -1 c-67 0 -83 7 -83 36 0
29 -30 90 -60 122 -23 24 -14 31 53 41 4 0 7 -10 7 -23z m260 -242 c9 -9 -20
-13 -107 -17 -205 -9 -354 -57 -713 -229 -80 -39 -167 -80 -195 -93 -143 -65
-166 -75 -175 -75 -6 0 -18 -4 -28 -9 -127 -64 -533 -171 -797 -210 -276 -39
-752 -68 -690 -41 11 5 148 30 305 55 157 25 305 49 330 54 25 5 72 14 105 20
134 26 270 60 390 98 121 39 272 104 495 211 237 114 292 137 435 184 159 52
269 68 462 65 110 -1 176 -6 183 -13z m-1174 -104 c20 -28 45 -55 55 -61 28
-14 18 -24 -69 -65 -210 -99 -370 -164 -404 -164 -22 0 -33 37 -32 105 1 91
38 131 139 149 43 8 64 14 165 47 36 12 69 25 75 30 19 18 36 8 71 -41z m1264
9 c194 -46 337 -125 471 -262 53 -55 135 -167 122 -167 -5 0 -24 11 -44 24
-89 61 -201 118 -292 149 -273 95 -603 66 -912 -78 -234 -109 -369 -166 -513
-214 -123 -41 -309 -87 -447 -108 -210 -34 -625 -21 -769 23 -29 9 1 24 50 24
22 0 104 9 182 20 293 41 536 100 787 192 156 57 264 104 470 203 273 132 430
190 585 219 49 9 226 -5 310 -25z m186 12 c16 -5 49 -14 74 -21 25 -7 54 -16
65 -20 11 -5 40 -16 65 -25 95 -36 250 -141 368 -250 175 -163 306 -368 364
-571 19 -67 22 -103 22 -239 1 -137 -3 -171 -22 -240 -53 -183 -148 -315 -252
-350 -28 -9 -54 -15 -56 -12 -3 3 13 29 35 58 159 210 183 466 67 723 -12 28
-29 74 -36 101 -20 78 -66 168 -117 232 -26 32 -50 60 -53 63 -4 3 -25 41 -49
85 -81 152 -182 265 -320 358 -52 35 -78 49 -186 98 -43 20 -23 27 31 10z
m-2018 -186 c4 -63 10 -81 38 -115 15 -17 23 -35 18 -39 -5 -4 -36 -14 -69
-21 -33 -7 -73 -16 -90 -20 -85 -22 -146 -33 -152 -27 -3 4 0 15 8 24 16 21
31 46 72 123 15 30 36 63 45 74 23 25 72 46 102 43 22 -2 25 -7 28 -42z m2672
-12 c40 -38 50 -54 50 -80 0 -75 120 -143 223 -128 70 11 100 -1 169 -66 75
-71 89 -79 196 -114 135 -44 229 -125 260 -227 18 -58 138 -303 173 -353 15
-22 45 -60 67 -85 70 -77 102 -141 112 -217 11 -84 31 -261 37 -325 5 -54 -3
-59 -45 -30 -15 11 -60 36 -99 57 -65 33 -75 43 -99 92 -15 29 -45 69 -67 88
-64 55 -70 69 -78 182 -10 137 -41 207 -136 301 -93 92 -128 118 -137 104 -3
-5 21 -37 53 -72 67 -71 93 -115 111 -186 11 -43 11 -54 -4 -82 -20 -39 -54
-49 -99 -27 -56 26 -86 66 -104 136 -31 124 -92 212 -188 274 -46 30 -51 37
-63 91 -17 73 -93 236 -155 330 -61 93 -179 225 -266 299 -39 33 -71 63 -71
67 0 4 19 9 43 11 23 2 48 4 55 5 7 1 35 -19 62 -45z m-739 -78 c198 -37 392
-135 539 -272 63 -57 150 -170 150 -193 0 -7 -31 17 -69 52 -38 36 -88 79
-112 95 -218 148 -490 216 -760 188 -176 -18 -284 -43 -659 -154 -148 -44
-261 -71 -365 -87 -108 -16 -125 -17 -125 -4 0 6 7 10 16 10 9 0 71 18 138 41
139 47 219 81 431 179 155 72 278 116 405 143 89 20 316 21 411 2z m116 -196
c287 -71 521 -238 641 -459 51 -93 73 -175 79 -292 9 -169 -32 -304 -132 -430
-48 -62 -66 -68 -104 -39 -24 18 -24 19 -7 61 9 23 28 85 41 139 34 130 35
316 4 412 -42 130 -118 228 -236 306 -74 49 -119 70 -216 99 -273 82 -608 53
-1217 -106 -270 -70 -541 -98 -765 -80 -134 11 -294 37 -380 61 -85 25 -215
70 -242 85 l-28 16 30 -7 c17 -3 107 -13 201 -22 162 -16 180 -16 350 1 98 10
259 20 356 21 229 3 309 18 658 117 342 98 458 125 610 142 79 9 274 -5 357
-25z m-2682 -228 c287 -140 591 -210 910 -210 206 0 357 20 625 83 421 100
458 108 614 136 119 21 269 10 393 -28 160 -50 347 -240 379 -387 l7 -30 -39
36 c-167 155 -391 219 -723 206 -235 -9 -418 -34 -661 -89 -272 -61 -295 -66
-409 -84 -156 -23 -302 -14 -491 31 -76 18 -76 18 -290 91 -203 69 -499 165
-600 195 -41 12 -93 27 -115 34 -22 7 -86 25 -142 40 -57 15 -103 31 -103 34
0 3 118 5 262 3 l263 -3 120 -58z m-745 32 c8 -3 47 -13 85 -23 234 -61 520
-147 765 -232 266 -91 401 -135 464 -149 31 -8 56 -16 56 -20 0 -13 -142 -29
-253 -29 -126 0 -220 19 -322 65 -33 15 -89 40 -124 57 -238 108 -471 186
-651 217 -156 26 -204 31 -320 31 -293 0 -549 -83 -780 -253 -41 -31 -76 -54
-78 -52 -5 4 57 73 110 122 122 115 273 179 511 217 87 14 138 21 340 46 45 6
93 12 107 13 25 4 63 -1 90 -10z m3500 -55 c218 -67 366 -213 417 -412 22 -85
12 -250 -22 -376 -14 -51 -28 -96 -31 -99 -10 -10 -22 22 -43 117 -33 145 -41
173 -62 219 -10 24 -19 49 -19 57 0 23 -26 116 -45 164 -10 24 -15 46 -12 49
10 9 76 -45 107 -88 15 -22 36 -62 46 -90 23 -63 47 -88 38 -38 -18 90 -97
195 -177 232 -21 10 -54 40 -76 70 -51 69 -146 156 -204 187 -84 45 -47 48 83
8z m-3670 -78 c251 -22 522 -101 815 -235 44 -20 100 -46 124 -57 172 -78 358
-94 586 -51 44 8 175 19 290 23 116 5 224 11 240 15 17 3 55 10 85 16 30 6 91
19 135 29 379 88 619 122 875 123 296 0 488 -62 635 -208 72 -72 108 -136 135
-241 30 -121 24 -127 -25 -29 -55 111 -98 161 -178 214 -207 134 -467 135
-1042 1 -157 -36 -478 -100 -605 -119 -148 -23 -264 -32 -422 -32 -192 0 -285
10 -454 52 -170 41 -580 178 -694 231 -232 109 -322 132 -510 133 -209 0 -196
6 -670 -282 -197 -120 -227 -136 -234 -124 -8 12 142 152 217 203 33 23 114
68 180 100 85 42 116 63 109 70 -12 12 -40 4 -142 -45 -162 -77 -325 -209
-385 -311 -31 -53 -52 -62 -133 -52 -32 4 -78 10 -104 13 -27 3 -48 10 -48 15
0 13 121 133 218 215 239 205 465 305 742 332 122 12 133 12 260 1z m190 -201
c124 -31 128 -38 23 -39 -329 -1 -529 -59 -714 -208 -73 -59 -105 -95 -194
-216 l-20 -27 -150 12 c-88 7 -222 9 -325 5 l-175 -6 40 35 c51 46 70 50 169
36 111 -15 177 -14 232 5 42 14 145 74 505 292 135 82 190 107 279 127 84 19
217 13 330 -16z m4456 -45 c54 -54 97 -143 113 -235 12 -69 13 -214 2 -264
l-6 -29 -47 64 c-26 36 -69 81 -97 100 -49 33 -51 37 -45 70 3 19 8 104 11
188 2 84 9 152 14 152 5 0 30 -21 55 -46z m-4281 -62 c17 -5 55 -15 85 -22 69
-15 75 -17 310 -94 107 -35 229 -73 270 -86 41 -12 85 -26 98 -31 13 -5 33 -9
45 -9 21 0 21 0 2 -13 -22 -14 -250 -91 -301 -102 -30 -6 -35 -2 -76 52 -24
32 -66 71 -93 88 -45 28 -55 30 -145 30 -90 0 -100 -2 -146 -30 -55 -34 -108
-105 -125 -168 -17 -60 -15 -162 5 -232 10 -33 49 -122 87 -199 87 -173 111
-231 149 -364 37 -132 43 -161 91 -447 10 -57 14 -171 13 -400 -2 -399 -2
-399 -98 -466 -139 -96 -163 -133 -182 -283 -10 -77 -18 -104 -35 -122 -29
-30 -44 -30 -71 1 -45 52 -57 22 -15 -38 16 -24 18 -33 8 -53 -29 -64 -51
-138 -51 -176 0 -20 -15 -35 -72 -73 -40 -26 -98 -67 -129 -91 l-57 -43 -6 37
c-3 20 -9 102 -12 182 -7 169 12 404 52 630 56 322 63 369 70 524 14 275 -47
490 -204 726 -63 94 -206 244 -295 310 -32 24 -56 45 -53 47 2 2 75 -31 162
-75 88 -44 175 -87 194 -95 89 -40 224 -76 285 -77 52 0 57 -4 93 -73 41 -76
72 -215 80 -361 7 -116 13 -135 40 -118 19 12 22 448 4 517 -7 28 -18 68 -24
90 -38 144 -118 292 -238 440 -146 181 -190 276 -190 416 0 116 19 171 74 207
43 30 84 48 126 56 38 7 241 -2 275 -12z m-445 0 c0 -4 -16 -24 -36 -43 -42
-40 -69 -88 -85 -155 -20 -82 -52 -116 -129 -136 -95 -25 -295 -51 -313 -41
-19 11 111 157 199 223 68 51 172 105 242 125 31 9 68 20 82 25 34 11 40 11
40 2z m3615 -67 c84 -21 171 -73 225 -132 32 -35 72 -100 117 -190 94 -189
164 -259 273 -278 l35 -6 0 -73 c0 -75 7 -97 55 -171 56 -85 75 -152 75 -260
0 -93 -3 -105 -34 -170 -46 -94 -131 -177 -301 -291 -74 -50 -140 -94 -147
-97 -7 -4 -23 14 -43 49 -17 31 -50 76 -73 101 -45 49 -168 153 -203 171 -17
9 -98 11 -146 3 -16 -2 6 -33 36 -48 71 -37 262 -203 327 -284 l30 -38 -39
-20 c-71 -36 -145 -61 -247 -81 -55 -12 -113 -26 -130 -32 -94 -32 -192 -96
-286 -185 -64 -61 -157 -132 -204 -156 -80 -41 -129 -47 -376 -47 -277 0 -372
-10 -649 -69 -115 -25 -116 -25 -99 -5 32 38 92 57 218 66 153 11 182 23 222
92 24 42 29 63 29 115 l0 65 -52 50 c-29 28 -59 62 -67 76 -51 96 -71 141 -71
163 0 14 -4 29 -10 32 -5 3 -10 15 -10 26 0 11 -26 51 -57 88 -32 37 -72 88
-90 113 -40 58 -61 73 -150 99 l-71 21 -68 -26 c-108 -42 -125 -51 -183 -95
-30 -22 -56 -39 -57 -38 -2 1 6 35 16 75 18 68 18 102 0 102 -4 0 -12 -12 -18
-27 -27 -73 -25 -70 -30 -45 -2 13 9 48 24 78 23 46 26 57 14 64 -11 7 -12 12
-3 21 9 9 9 17 -2 33 -18 29 -4 122 26 176 16 28 20 43 12 51 -15 15 10 112
41 160 26 39 32 59 18 59 -4 0 -13 -5 -20 -12 -9 -9 -12 -7 -12 9 0 52 70 162
120 188 28 15 30 14 45 -8 17 -27 18 -24 -35 -337 -33 -198 -33 -190 -16 -215
19 -29 46 -32 82 -9 48 32 180 272 230 420 73 216 166 261 694 333 41 6 86 12
100 15 14 3 59 10 100 17 41 6 99 18 129 25 38 10 58 11 67 3 23 -19 66 -143
109 -313 39 -155 45 -171 75 -194 17 -13 36 -35 40 -48 5 -13 16 -24 25 -24
22 0 20 98 -6 227 -25 127 -57 216 -110 305 -21 36 -39 70 -39 75 0 15 139 44
240 50 132 8 217 -8 320 -58 47 -23 101 -54 120 -69 19 -15 62 -46 95 -71 149
-109 214 -181 246 -274 20 -58 17 -254 -5 -327 -42 -140 -154 -218 -313 -218
-92 0 -152 16 -305 81 -248 105 -323 85 -660 -177 -69 -55 -179 -139 -244
-189 -64 -49 -122 -94 -128 -100 -40 -37 -126 -95 -139 -95 -26 0 -50 45 -43
78 12 52 342 442 375 442 5 0 12 -11 15 -25 8 -31 26 -23 26 11 0 30 15 31 31
3 10 -19 13 -20 26 -6 27 27 6 62 -89 148 -51 46 -99 92 -107 103 -20 27 -72
133 -70 143 1 4 -1 15 -4 23 -20 45 -47 147 -47 174 0 37 -7 49 -39 65 -31 17
-51 -1 -29 -26 8 -10 18 -45 21 -79 4 -54 2 -63 -19 -83 -35 -34 -51 -118 -35
-194 7 -34 19 -73 26 -87 46 -88 141 -170 197 -170 30 0 35 -11 16 -32 -98
-103 -295 -340 -305 -366 -4 -9 -9 -10 -19 -1 -11 9 -14 7 -14 -8 0 -11 -13
-32 -30 -48 -24 -23 -30 -37 -30 -73 0 -52 41 -119 93 -151 19 -11 51 -34 72
-51 21 -16 47 -30 59 -30 15 0 9 6 -19 19 l-40 18 40 18 c35 16 128 81 398
274 217 155 278 188 392 211 54 11 58 14 35 22 -71 27 -230 -52 -465 -232 -33
-25 -82 -61 -110 -80 -27 -18 -52 -36 -55 -40 -9 -11 -164 -115 -192 -129 -36
-18 -70 -8 -119 36 -72 65 -85 113 -47 173 l21 35 7 -26 c19 -66 58 -97 103
-80 12 5 70 47 128 93 58 45 121 94 139 108 18 14 65 50 104 80 39 31 112 88
163 127 208 162 286 203 391 203 69 0 107 -11 237 -67 131 -57 173 -67 285
-67 98 0 110 2 171 32 107 51 160 127 185 267 29 161 2 306 -76 405 -57 72
-323 268 -430 317 -25 11 -78 29 -118 38 -92 22 -239 16 -365 -15 l-88 -22
-60 56 c-87 81 -111 76 -62 -14 32 -59 27 -69 -44 -82 -26 -5 -70 -13 -98 -18
-50 -10 -126 -22 -252 -39 -180 -26 -209 -31 -336 -61 -198 -46 -275 -108
-327 -260 -66 -191 -202 -432 -248 -438 -13 -2 -24 3 -28 12 -6 15 13 141 67
449 11 63 11 70 -8 95 -28 38 -71 40 -123 6 -22 -15 -43 -24 -47 -21 -14 15
62 147 129 225 32 37 35 52 11 52 -15 0 -14 2 3 15 13 10 45 15 104 15 79 0
338 22 405 34 17 3 73 13 125 21 52 9 113 20 135 24 22 5 67 14 100 21 33 6
148 31 255 55 290 65 422 89 550 99 81 7 259 -4 315 -19z m1540 -122 c8 -27
15 -78 15 -115 0 -87 20 -135 76 -182 24 -20 55 -58 68 -84 30 -59 47 -74 135
-120 83 -43 169 -124 198 -184 49 -102 54 -133 26 -154 -44 -33 -101 -4 -136
69 -31 65 -84 119 -153 153 -48 24 -59 25 -150 19 l-99 -6 40 18 c57 25 65 32
76 61 9 22 5 30 -29 66 -22 23 -57 68 -80 101 -22 33 -50 70 -64 82 -31 29
-114 73 -137 73 -30 0 -38 21 -36 85 2 33 3 62 4 64 1 2 9 -3 19 -12 36 -33
91 -49 127 -37 48 16 65 48 65 122 1 70 10 65 35 -19z m-4495 -32 c0 -5 -13
-14 -29 -21 -40 -16 -75 -55 -107 -120 -25 -50 -28 -65 -28 -160 1 -108 8
-144 57 -270 118 -304 150 -395 162 -460 27 -138 37 -185 47 -230 11 -48 24
-439 15 -430 -3 3 -10 61 -17 130 -15 172 -35 287 -81 480 -53 218 -67 257
-156 440 -92 189 -102 211 -119 278 -41 156 11 290 136 349 45 21 120 30 120
14z m-1929 -32 c19 -10 20 -12 4 -29 -38 -42 -154 -110 -206 -121 -30 -6 -92
-19 -138 -30 -89 -20 -100 -17 -101 24 0 14 9 17 48 17 78 0 170 42 237 108
35 34 46 40 88 41 27 0 57 -4 68 -10z m1203 -69 c12 -87 59 -186 145 -299 141
-185 172 -230 209 -305 22 -45 50 -110 61 -145 27 -81 54 -225 48 -254 -4 -19
-4 -18 -6 5 0 15 -5 30 -11 33 -5 3 -10 15 -10 25 0 33 -87 217 -143 303 -146
225 -360 403 -584 489 -46 17 -83 34 -83 38 0 3 42 14 93 23 52 10 110 23 131
29 43 13 126 82 126 104 0 35 18 0 24 -46z m856 20 c14 -10 36 -29 48 -43 23
-24 23 -26 5 -35 -15 -8 -100 -21 -235 -38 -20 -2 -40 1 -43 6 -9 14 39 94 68
112 46 31 111 30 157 -2z m733 14 c15 -3 27 -6 27 -8 0 -1 -24 -27 -52 -57
-48 -51 -90 -119 -117 -191 -11 -30 -25 -36 -38 -15 -4 7 -24 24 -43 38 -32
22 -44 24 -150 23 -100 0 -121 -3 -165 -24 -64 -31 -144 -111 -173 -172 -60
-129 2 -527 94 -608 29 -25 43 -30 89 -30 53 0 136 27 149 49 9 14 26 14 26 1
0 -6 -21 -55 -46 -108 -143 -302 -152 -438 -43 -666 36 -74 36 -84 2 -92 -58
-14 -161 -81 -239 -156 -82 -79 -102 -92 -89 -60 33 86 75 456 75 662 0 122
-7 178 -40 345 -5 22 -13 65 -18 95 -19 104 -30 135 -107 330 -96 243 -101
260 -115 343 -17 95 -10 117 38 117 39 1 192 23 277 40 118 24 278 75 465 146
33 13 117 12 193 -2z m3146 -61 c20 -15 46 -39 59 -53 34 -39 79 -138 92 -207
24 -123 -4 -408 -45 -451 -10 -11 -13 2 -19 66 -16 191 -92 330 -214 389 -32
14 -59 28 -60 29 -2 1 12 24 31 49 35 45 60 91 91 168 8 20 18 37 22 37 4 0
23 -12 43 -27z m315 -89 c67 -33 90 -55 141 -134 24 -36 55 -78 69 -93 35 -37
27 -60 -27 -82 -45 -18 -91 -15 -185 11 -74 22 -84 13 -21 -18 91 -44 181 -62
279 -54 79 6 89 4 138 -20 28 -14 67 -44 86 -66 33 -39 35 -43 34 -121 0 -94
10 -125 58 -183 19 -23 34 -54 34 -67 0 -36 33 -107 75 -162 56 -74 68 -110
68 -200 0 -70 -7 -100 -56 -245 -65 -195 -87 -251 -133 -344 -29 -59 -34 -81
-34 -138 0 -52 -3 -68 -14 -68 -29 0 -101 47 -162 107 -112 109 -182 235 -222
398 -30 119 -47 160 -95 230 -19 28 -34 42 -90 86 -20 16 -20 19 -6 75 17 71
17 205 0 256 -9 28 -20 39 -46 48 -19 6 -45 10 -57 8 -25 -3 -26 -9 -10 -98
11 -63 1 -150 -23 -186 -19 -30 -60 -31 -95 -4 -23 18 -24 21 -11 52 7 18 24
67 38 108 14 41 44 116 68 165 89 183 123 376 94 531 -8 41 -8 74 -1 109 6 28
13 67 17 88 7 45 19 46 89 11z m-3468 -29 c-40 -61 -56 -98 -56 -130 0 -24 -9
-45 -31 -70 -18 -20 -34 -34 -36 -31 -8 7 27 117 54 171 27 55 76 112 81 95 2
-6 -3 -21 -12 -35z m-3356 -4 c30 -8 21 -15 -57 -40 -32 -10 -93 -33 -137 -50
-43 -18 -80 -30 -83 -28 -7 8 47 66 83 87 59 37 131 49 194 31z m3110 -76 c38
-19 70 -62 70 -92 0 -38 -58 -318 -87 -421 -21 -76 -34 -102 -69 -141 -56 -62
-120 -95 -186 -95 -46 0 -54 4 -80 34 -15 19 -28 40 -28 47 0 7 -4 21 -9 31
-9 16 -15 39 -41 144 -7 25 -13 102 -14 170 -1 144 8 171 84 247 67 67 129 90
243 90 59 1 97 -4 117 -14z m3273 -117 c49 -34 76 -68 108 -133 109 -229 64
-541 -111 -773 -54 -71 -110 -130 -110 -116 0 4 22 36 49 73 127 172 181 329
181 527 0 56 -4 114 -9 130 -5 16 -15 49 -22 74 -23 77 -75 161 -133 212 -30
27 -30 27 -8 28 13 0 38 -10 55 -22z m-115 -12 c63 -33 122 -116 158 -222 47
-136 37 -318 -27 -488 -31 -84 -151 -259 -240 -348 -89 -91 -124 -109 -331
-168 -261 -76 -410 -134 -663 -261 -299 -150 -505 -322 -557 -465 -14 -39 -33
-44 -44 -12 -3 12 -29 45 -56 74 -42 44 -48 56 -39 72 28 52 148 126 277 171
75 27 138 70 244 165 162 147 217 178 393 217 143 32 160 37 257 83 141 66
383 229 488 330 62 59 76 59 50 -1 -13 -30 -65 -111 -83 -128 -34 -35 -108
-74 -162 -85 -35 -8 -63 -18 -63 -22 0 -4 22 -8 50 -8 104 0 223 83 279 194
27 56 51 138 51 181 0 17 9 55 21 85 17 45 20 72 17 160 -3 113 -2 110 -103
300 -41 76 -45 125 -14 164 23 29 56 33 97 12z m-2987 -73 c-12 -33 -21 -68
-21 -79 0 -10 -16 -36 -35 -58 -32 -35 -35 -36 -35 -15 1 55 24 117 61 167 23
29 43 51 46 49 3 -3 -5 -32 -16 -64z m955 -115 c6 -26 21 -59 32 -75 11 -15
30 -50 43 -78 13 -27 37 -61 54 -75 101 -83 117 -128 53 -144 -31 -8 -41 -6
-58 9 l-20 18 22 11 c32 16 34 44 4 75 -14 14 -39 41 -56 59 -25 28 -36 33
-67 30 -37 -3 -37 -3 -45 42 -11 57 0 182 15 177 6 -2 16 -24 23 -49z m-991
-75 c-2 -16 -7 -44 -10 -63 -4 -26 -20 -50 -55 -85 -28 -27 -50 -45 -50 -40 0
36 43 140 71 174 40 48 50 51 44 14z m-2175 -13 c88 -16 175 -65 255 -144 86
-85 143 -167 200 -290 135 -286 163 -539 105 -941 -20 -144 -52 -359 -91 -615
-40 -262 -42 -286 -42 -505 -1 -255 7 -316 85 -675 51 -237 52 -238 78 -350
47 -201 64 -280 59 -285 -3 -2 -58 7 -124 19 -66 13 -153 29 -192 36 -40 6
-73 14 -73 16 0 2 18 31 41 64 69 101 99 217 99 385 0 220 -51 432 -200 825
-147 388 -191 574 -191 800 0 154 12 224 69 410 78 252 88 295 108 450 18 143
18 228 -1 356 -36 254 -110 351 -346 454 -29 12 72 6 161 -10z m542 -390 c142
-218 178 -323 186 -549 4 -149 -1 -208 -43 -476 -64 -400 -83 -601 -91 -950
-6 -248 -9 -285 -26 -324 -31 -69 -48 -132 -48 -181 -1 -44 -1 -44 -15 -20 -8
14 -15 41 -15 60 0 19 -5 55 -11 80 -14 61 -14 430 0 521 7 41 16 106 22 144
5 39 14 97 19 130 5 33 14 94 20 135 6 41 24 161 40 265 66 430 72 568 35 780
-20 113 -74 277 -125 377 -42 83 -128 215 -154 237 -9 7 -16 19 -16 25 1 25
152 -148 222 -254z m1588 174 c0 -61 1 -59 -93 -129 -27 -20 -51 -35 -53 -32
-2 2 5 22 16 45 11 22 20 46 20 52 0 10 98 120 106 120 2 0 4 -25 4 -56z m-60
-148 c0 -2 -16 -33 -35 -70 -19 -37 -35 -78 -35 -90 0 -12 -5 -48 -11 -80 -10
-46 -22 -68 -65 -117 -30 -32 -62 -74 -71 -92 l-18 -32 -3 40 c-5 59 29 175
84 285 28 58 154 185 154 156z m24 -153 c-10 -65 -16 -81 -40 -100 l-29 -23
-3 46 c-3 38 3 56 30 100 46 77 57 71 42 -23z m506 28 c19 -9 50 -36 68 -61
18 -25 51 -66 73 -92 21 -26 39 -51 39 -56 0 -25 -59 7 -116 63 -89 89 -152
93 -237 19 -25 -22 -66 -45 -93 -53 -101 -30 -135 -63 -197 -193 -43 -90 -85
-142 -138 -169 -39 -19 -69 -25 -69 -12 0 4 11 18 24 32 26 29 39 52 124 231
80 166 147 237 272 284 95 36 184 38 250 7z m25 -147 c26 -26 45 -55 45 -67 0
-12 11 -35 25 -51 14 -16 25 -36 26 -45 0 -9 13 -38 28 -66 21 -37 36 -52 59
-59 34 -9 39 -24 21 -57 -8 -16 -6 -26 8 -47 40 -60 53 -113 19 -79 -9 9 -27
24 -40 34 -13 10 -30 33 -39 50 -9 16 -33 52 -53 78 -42 56 -87 159 -104 238
-12 59 -40 85 -79 72 -29 -9 -50 -53 -31 -65 7 -4 19 -6 27 -3 8 3 13 -2 13
-16 0 -12 7 -33 17 -47 9 -14 20 -48 24 -76 11 -71 31 -103 137 -223 95 -107
132 -131 155 -102 9 11 18 13 35 6 38 -15 28 -28 -63 -79 -45 -25 -48 -25 -40
1 7 20 5 21 -31 15 -37 -6 -102 -15 -228 -31 -56 -8 -58 -7 -52 13 10 29 -9
36 -46 18 -17 -9 -40 -16 -51 -16 -18 0 -18 2 -4 23 18 28 31 83 22 97 -5 8
-14 6 -31 -4 -13 -9 -30 -16 -38 -16 -13 0 -12 7 4 43 36 78 18 143 -26 94
l-19 -22 -3 28 c-2 17 -9 27 -20 27 -11 1 -8 6 11 16 47 25 33 38 -33 31 -55
-6 -60 -5 -51 11 18 33 53 63 92 78 21 9 39 20 39 25 0 13 -114 11 -128 -3
-20 -20 -24 -2 -8 30 20 39 47 57 111 78 43 15 99 45 115 64 25 29 68 50 101
50 33 0 46 -7 84 -46z m-515 -1 c-16 -54 -152 -325 -177 -354 -34 -38 -58 -37
-72 2 -36 105 21 210 179 330 36 27 68 49 72 49 4 0 3 -12 -2 -27z m662 -100
c30 -6 55 -29 44 -40 -8 -8 -76 15 -93 33 -18 18 -16 27 5 19 9 -3 29 -9 44
-12z m52 -78 c18 -14 18 -15 1 -21 -21 -9 -67 6 -73 24 -5 17 48 15 72 -3z
m-594 -34 c0 -6 -5 -13 -11 -17 -6 -4 -26 -39 -44 -78 -36 -78 -71 -117 -127
-140 -55 -23 -148 -20 -148 5 0 5 17 9 39 9 78 0 153 56 201 149 11 22 30 49
42 61 23 21 48 27 48 11z m615 -31 c18 -7 18 -9 3 -15 -23 -9 -50 -3 -56 13
-4 14 22 15 53 2z m35 -89 c0 -11 -4 -23 -10 -26 -6 -4 -10 5 -10 19 0 14 5
26 10 26 6 0 10 -9 10 -19z m-660 -10 c0 -6 -4 -12 -9 -16 -5 -3 -22 -31 -38
-62 -34 -68 -98 -118 -161 -128 -34 -5 -48 -3 -63 11 -32 29 -24 44 24 44 77
1 162 53 209 128 19 31 38 42 38 23z m700 -25 c0 -29 -21 -69 -30 -60 -6 6 -5
22 2 42 13 33 28 43 28 18z m-638 -50 c-10 -23 -77 -66 -101 -66 -20 0 22 62
57 84 42 27 61 19 44 -18z m33 -65 c-32 -48 -86 -90 -147 -119 -74 -34 -188
-28 -188 10 0 4 10 8 23 8 12 0 45 12 72 26 28 14 77 34 110 46 62 21 109 49
135 80 28 33 24 -10 -5 -51z m712 -23 c4 -35 -1 -56 -21 -96 -36 -71 -63 -83
-210 -92 -133 -8 -178 -22 -228 -70 -46 -44 -88 -60 -155 -60 l-58 1 57 23
c31 13 85 44 120 69 56 40 72 46 148 57 162 22 247 61 296 135 12 19 15 37 9
72 l-6 48 21 -21 c14 -14 24 -39 27 -66z m-73 56 c12 -32 6 -54 -14 -54 -15 0
-20 7 -20 28 0 41 22 58 34 26z m-586 -131 c-23 -33 -53 -57 -91 -77 -89 -45
-237 -49 -237 -5 0 4 25 11 56 15 59 7 117 32 174 76 34 25 59 34 108 37 23 1
23 0 -10 -46z m-424 -48 c63 -101 174 -187 287 -225 54 -18 84 -21 200 -19
l135 3 45 -31 c52 -36 109 -92 109 -107 0 -6 -7 -20 -15 -30 -8 -11 -15 -35
-15 -54 0 -24 -9 -45 -29 -68 -39 -44 -48 -104 -26 -164 10 -25 16 -58 14 -75
-1 -16 -3 -55 -3 -86 0 -69 36 -135 97 -181 38 -28 70 -44 222 -113 49 -22 51
-25 92 -121 110 -260 113 -283 101 -759 -7 -258 -2 -311 37 -391 31 -62 66
-100 142 -152 86 -59 97 -74 90 -124 -3 -23 -24 -79 -46 -124 -90 -181 -269
-300 -469 -312 -95 -5 -150 7 -235 51 -204 106 -331 438 -314 817 6 145 31
231 131 457 93 212 107 252 114 336 7 92 22 95 22 5 0 -72 -12 -120 -51 -206
-80 -175 -107 -282 -116 -453 -16 -326 88 -585 273 -675 81 -39 191 -45 253
-12 25 13 59 40 75 61 29 36 31 44 31 121 0 81 -1 84 -67 216 -105 213 -121
279 -138 560 -6 102 -17 211 -24 242 -39 162 -142 282 -270 314 -28 7 -29 6
-21 -22 15 -59 17 -127 5 -172 -20 -79 -19 -77 -139 -337 -21 -44 -52 -118
-71 -165 -20 -52 -47 -100 -69 -123 -68 -72 -222 -126 -357 -127 -122 0 -238
28 -524 129 -47 16 -114 35 -150 41 -36 7 -72 15 -80 18 -26 9 53 22 98 16 23
-3 42 -2 42 3 -1 44 -75 52 -211 23 -118 -26 -188 -23 -291 10 -168 56 -263
189 -256 364 3 71 19 108 26 59 2 -13 10 -23 18 -23 21 0 17 47 -7 71 -24 24
-20 39 35 139 59 109 296 313 445 386 60 28 125 100 145 161 27 79 16 144 -12
71 l-12 -32 -28 40 -29 39 33 32 c25 25 34 44 39 80 10 81 14 92 33 91 37 0
128 15 139 24 6 5 9 16 6 24 -6 17 -94 19 -125 3 -28 -15 -33 -5 -18 32 19 45
66 89 168 157 48 33 128 97 177 143 99 93 162 140 227 169 66 29 79 26 112
-25z m497 -19 c-24 -26 -87 -59 -141 -75 -126 -36 -161 -39 -180 -16 -11 13
-7 15 22 15 44 0 155 36 186 61 14 10 34 19 46 19 11 0 28 5 36 10 8 5 24 10
34 10 18 0 18 -1 -3 -24z m272 17 c-7 -2 -19 -2 -25 0 -7 3 -2 5 12 5 14 0 19
-2 13 -5z m-133 -36 c-25 -12 -67 -39 -93 -60 -27 -20 -58 -39 -70 -42 -86
-19 -114 -23 -139 -18 -42 8 -43 20 0 28 20 4 87 31 147 61 84 41 120 54 155
54 l45 -1 -45 -22z m766 -103 l119 -7 -60 -62 -60 -61 -107 54 c-163 81 -152
90 108 76z m-290 -22 c33 -31 106 -77 194 -121 117 -60 164 -101 200 -175 27
-55 56 -163 46 -173 -2 -2 -32 11 -67 29 -78 40 -104 49 -244 83 -165 40 -255
72 -328 115 -36 22 -72 40 -79 40 -7 0 -34 20 -61 45 -26 24 -61 52 -77 62
-17 9 -30 20 -30 24 0 9 60 25 200 53 110 22 148 28 211 34 8 1 24 -6 35 -16z
m-276 -283 c0 -34 13 -64 43 -96 26 -29 20 -29 -32 -1 -45 24 -62 68 -42 107
17 30 31 26 31 -10z m852 -41 c23 -49 33 -84 60 -198 13 -57 46 -160 58 -182
6 -10 10 -27 10 -37 0 -11 5 -23 10 -26 13 -8 13 -75 0 -75 -10 0 -49 55 -156
220 -52 79 -55 89 -61 162 -7 97 20 210 47 193 4 -3 19 -28 32 -57z m-740 2
c36 -17 146 -51 244 -76 199 -51 278 -84 346 -144 44 -38 158 -204 158 -229 0
-21 -18 -11 -60 37 -167 187 -250 239 -480 301 -25 7 -59 17 -76 22 -17 5 -39
9 -50 9 -32 0 -125 38 -140 57 -12 16 -19 53 -10 53 2 0 33 -14 68 -30z m-160
-136 c-3 -43 0 -55 24 -83 42 -50 91 -77 205 -109 134 -39 217 -78 313 -147
42 -30 85 -59 96 -65 25 -13 83 -13 115 2 23 10 28 9 54 -22 28 -34 61 -37 61
-6 0 17 -119 162 -201 245 -58 59 -153 109 -249 131 -116 27 -288 90 -244 90
31 0 240 -53 299 -76 105 -41 230 -119 275 -171 14 -16 47 -54 73 -86 44 -51
53 -57 87 -57 34 0 42 -5 73 -47 19 -27 66 -83 106 -126 l71 -77 0 -88 c0 -49
-9 -138 -20 -198 -27 -153 -40 -305 -40 -474 0 -239 15 -363 60 -520 22 -76
40 -143 40 -149 0 -25 150 -332 228 -466 28 -48 80 -113 130 -164 50 -51 82
-92 82 -105 0 -46 -49 -208 -74 -246 -31 -48 -84 -82 -148 -98 -201 -50 -483
89 -601 297 -23 41 -24 43 -11 134 7 50 14 155 14 232 1 82 5 132 9 120 19
-45 81 -254 91 -305 18 -88 32 -133 56 -168 48 -74 147 -110 245 -92 29 6 53
10 54 10 1 0 13 9 26 21 22 19 24 29 24 99 -1 43 -6 89 -12 102 -18 35 -41
110 -59 190 -20 91 -50 152 -121 246 -71 95 -119 120 -193 102 -57 -14 -89
-45 -111 -107 l-15 -46 -17 94 c-9 52 -19 107 -23 123 -6 26 -5 28 12 21 10
-5 65 -11 122 -13 l104 -4 -4 24 c-3 22 -8 23 -94 29 -113 7 -158 22 -271 92
-79 48 -115 90 -143 164 -19 51 -21 72 -17 173 4 115 14 163 97 493 51 202 41
268 -59 387 -104 124 -164 169 -323 240 -128 57 -188 101 -219 162 -23 45 -23
113 0 113 11 0 15 -14 15 -51 1 -58 29 -107 80 -140 17 -11 85 -42 151 -67
189 -74 297 -149 374 -261 78 -113 78 -203 -2 -446 -56 -173 -67 -237 -67
-388 0 -132 8 -170 47 -232 26 -41 88 -80 129 -80 32 0 88 31 114 62 29 36 54
154 70 328 6 63 19 144 30 180 44 156 52 268 24 387 -24 108 -70 188 -156 278
-170 176 -225 228 -278 264 -79 54 -100 64 -256 116 -215 73 -282 112 -305
182 -15 47 4 105 34 101 20 -3 22 -8 19 -54z m155 40 c-3 -3 -12 -4 -19 -1 -8
3 -5 6 6 6 11 1 17 -2 13 -5z m23 -73 c36 -15 103 -38 150 -50 228 -62 252
-77 388 -234 38 -44 31 -67 -20 -67 -30 0 -52 12 -133 71 -93 69 -238 133
-385 169 -92 23 -158 92 -143 151 5 17 7 17 42 3 20 -9 65 -28 101 -43z
m-1742 -156 c28 -44 28 -53 -2 -48 -37 7 -80 -38 -71 -76 4 -18 2 -32 -5 -36
-25 -15 -28 13 -9 84 33 123 48 136 87 76z m1674 -44 c41 -16 109 -41 153 -55
157 -52 218 -89 340 -205 44 -42 103 -93 131 -114 90 -69 140 -150 174 -281
29 -114 26 -190 -14 -347 -19 -79 -38 -188 -45 -263 -12 -127 -29 -215 -50
-254 -30 -55 -112 -69 -168 -26 -57 44 -67 79 -68 249 0 164 7 207 62 375 53
160 63 205 63 282 0 59 -5 80 -31 132 -55 108 -151 204 -269 268 -25 13 -97
44 -160 67 -63 24 -129 54 -147 67 -46 35 -78 106 -56 127 9 9 3 11 85 -22z
m396 -531 c45 -62 47 -67 47 -135 0 -38 -6 -90 -12 -115 -7 -25 -26 -103 -44
-175 -17 -71 -33 -131 -34 -133 -2 -2 -2 79 -1 180 1 147 -3 196 -17 250 -19
72 -68 213 -86 246 -6 11 -11 29 -11 39 0 24 98 -72 158 -157z m752 103 c13
-15 47 -74 76 -130 29 -57 66 -122 82 -146 36 -52 72 -115 72 -126 0 -4 -19
-13 -42 -20 -24 -7 -53 -17 -66 -22 -13 -5 -60 -9 -106 -9 -45 0 -86 -3 -89
-7 -16 -16 34 -34 167 -61 52 -10 54 -23 6 -46 -21 -10 -59 -38 -84 -61 -25
-23 -50 -39 -55 -36 -6 4 -22 32 -36 64 -24 53 -26 64 -20 145 3 48 15 140 26
205 11 65 22 154 26 198 3 43 9 79 13 79 3 0 17 -12 30 -27z m1951 -33 c-3 -8
-6 -33 -9 -55 -3 -33 1 -44 23 -65 23 -21 38 -25 128 -30 56 -3 113 -12 126
-19 21 -12 23 -18 17 -59 -3 -26 -11 -69 -17 -97 -6 -27 -13 -98 -16 -157 l-5
-106 -66 -4 c-100 -5 -110 -2 -117 35 -4 18 -21 86 -40 152 -46 167 -84 393
-70 416 10 16 51 6 46 -11z m-3223 -88 c96 -92 142 -235 142 -440 1 -114 19
-258 45 -357 8 -33 49 -128 90 -211 71 -141 75 -154 75 -217 0 -122 -60 -177
-191 -177 -182 0 -316 141 -367 385 -54 254 -28 476 83 720 17 39 38 85 45
104 18 45 19 203 1 225 -12 14 -11 16 7 16 11 0 42 -22 70 -48z m1618 -444
c16 -18 56 -69 89 -113 76 -103 184 -210 260 -260 33 -21 62 -40 64 -42 3 -2
-11 -19 -30 -39 -54 -56 -109 -76 -261 -95 -54 -7 -98 -16 -98 -19 0 -24 215
-17 330 10 125 30 122 30 201 -50 121 -122 221 -190 369 -253 100 -43 132 -60
178 -96 49 -39 115 -135 128 -186 5 -21 2 -25 -14 -25 -20 0 -50 -10 -100 -33
-18 -9 -26 -7 -43 11 -35 39 -106 23 -172 -38 -23 -22 -33 -25 -41 -11 -3 4
-30 16 -61 25 l-55 18 -45 93 c-85 178 -189 257 -338 259 l-78 1 -70 55 c-39
30 -123 109 -187 175 -107 110 -147 153 -224 242 -38 45 -131 172 -154 211
l-19 34 50 46 c68 61 175 111 241 112 45 0 54 -4 80 -32z m-3705 -103 c25 -26
33 -52 59 -180 35 -175 56 -251 99 -359 18 -43 30 -80 29 -82 -2 -1 -28 3 -58
9 l-55 12 -17 75 c-75 315 -138 598 -138 620 0 8 12 -3 26 -25 15 -22 40 -54
55 -70z m3303 -77 c96 -163 417 -524 570 -639 25 -19 46 -39 46 -45 0 -6 -15
-18 -34 -26 -50 -24 -106 -77 -99 -94 8 -21 32 -17 67 10 189 143 380 95 491
-124 12 -25 26 -55 29 -67 7 -21 4 -23 -34 -23 -50 0 -105 -12 -233 -53 -99
-30 -119 -45 -98 -71 9 -11 26 -8 97 16 70 23 104 28 179 28 84 0 99 -3 152
-30 62 -33 152 -105 142 -114 -3 -4 -27 5 -53 20 -66 37 -139 54 -231 54 -96
0 -156 -23 -179 -69 -24 -46 -20 -72 23 -138 59 -92 81 -160 81 -255 0 -73 -3
-86 -32 -137 -62 -107 -40 -231 59 -321 23 -22 39 -40 35 -40 -4 0 -35 14 -70
30 -34 17 -96 40 -139 50 -42 11 -78 22 -80 24 -2 2 9 19 25 37 95 111 149
233 159 361 9 113 -8 149 -112 243 -96 88 -121 131 -136 243 -14 105 -49 154
-138 194 -39 18 -57 20 -129 14 l-85 -6 6 59 c3 39 13 71 27 91 20 29 25 30
65 24 39 -5 47 -3 70 20 19 19 24 32 20 49 -4 12 -49 65 -100 117 -51 52 -116
124 -144 160 -29 36 -60 74 -68 84 -29 36 -141 211 -172 270 -29 56 -41 116
-22 116 4 0 25 -28 45 -62z m-3139 -21 c53 -20 60 -27 68 -58 53 -222 134
-350 262 -417 42 -22 63 -26 135 -27 71 0 91 4 123 23 21 12 40 22 43 22 2 0
4 -38 4 -85 0 -47 -3 -85 -7 -85 -5 0 -28 7 -53 16 -46 16 -106 27 -236 44
-41 6 -108 14 -150 20 -42 5 -83 15 -91 22 -33 27 -98 205 -132 363 -12 55
-26 117 -30 137 -7 30 -6 48 4 48 0 0 27 -10 60 -23z m233 -46 c37 -6 110 -15
162 -21 81 -10 309 -75 327 -94 3 -3 1 -11 -5 -18 -6 -7 -25 -58 -42 -113 -44
-137 -91 -175 -214 -175 -105 0 -193 56 -267 171 -31 49 -73 160 -84 222 -6
36 -5 37 25 37 17 0 61 -4 98 -9z m2946 -158 c92 -140 180 -250 292 -365 100
-102 110 -128 52 -128 -25 0 -45 15 -107 78 -97 98 -181 202 -259 319 -60 88
-62 94 -62 154 0 35 4 59 8 54 5 -6 39 -56 76 -112z m-1658 -91 c2 -337 83
-570 248 -719 184 -165 431 -170 667 -12 74 50 157 143 199 223 26 48 37 62
43 51 11 -20 32 -307 24 -328 -3 -9 -23 -23 -44 -32 -52 -22 -92 -61 -114
-113 -30 -69 -24 -103 33 -189 45 -67 51 -91 58 -238 4 -77 11 -150 15 -162 6
-19 2 -23 -36 -33 -24 -7 -79 -30 -122 -52 -74 -37 -80 -38 -103 -24 -13 9
-30 16 -38 16 -25 0 -27 17 -10 77 14 49 15 65 4 108 -19 78 -67 159 -128 217
-105 100 -162 130 -367 193 -182 56 -306 131 -415 252 -73 82 -121 167 -189
336 -73 180 -111 247 -176 312 -69 70 -126 95 -216 95 -55 0 -80 -5 -110 -22
-21 -12 -41 -19 -44 -16 -7 7 42 159 55 172 7 7 52 -3 150 -34 94 -30 289 -37
413 -15 27 5 202 86 202 94 0 1 0 -70 1 -157z m1654 -97 c53 -71 136 -171 202
-240 45 -47 59 -75 39 -75 -16 0 -51 -89 -51 -132 0 -48 -12 -74 -29 -63 -13
7 -108 203 -135 275 -23 65 -86 282 -86 299 0 17 1 16 60 -64z m-2210 15 c101
-52 162 -145 266 -405 52 -131 87 -196 143 -265 133 -165 276 -255 511 -320
183 -51 316 -145 385 -273 34 -62 44 -156 22 -208 -14 -33 -19 -37 -78 -49
-35 -7 -87 -23 -114 -35 -154 -67 -192 -67 -264 0 -98 91 -175 109 -320 75
-126 -30 -149 -23 -244 74 -85 86 -123 111 -237 156 -75 30 -96 34 -180 34
-71 0 -102 -4 -124 -16 -28 -16 -32 -16 -60 0 -68 37 -78 53 -125 200 -9 28
-8 32 8 32 10 0 42 -23 72 -51 99 -92 215 -125 280 -78 45 31 37 54 -43 133
-46 45 -86 95 -107 136 -66 126 -111 168 -188 176 -36 4 -57 0 -83 -14 l-34
-19 -28 43 c-15 24 -45 55 -68 70 -55 37 -42 35 -675 99 -187 19 -356 39 -375
43 -53 13 -120 46 -177 89 -28 21 -59 43 -69 49 -17 10 -23 58 -10 71 4 4 43
-12 175 -74 104 -48 196 -70 378 -87 149 -15 218 -22 451 -46 53 -6 142 -15
197 -20 55 -5 114 -12 130 -15 41 -8 98 27 93 57 -5 33 -78 83 -165 112 -71
23 -231 59 -388 87 -33 6 -78 14 -100 19 -22 5 -67 14 -100 21 -33 7 -121 27
-195 46 -190 47 -349 73 -446 73 -73 0 -85 2 -94 20 -10 19 -8 20 48 20 33 0
120 -9 193 -20 125 -19 206 -33 449 -80 176 -34 456 -78 675 -105 192 -24 265
-48 357 -115 101 -74 177 -186 267 -395 110 -252 174 -358 273 -450 72 -68
109 -90 132 -82 29 11 17 34 -34 67 -116 74 -179 169 -319 478 -112 246 -168
327 -314 448 l-37 31 0 91 c0 50 4 101 9 114 10 27 75 73 112 81 45 10 126 -1
169 -23z m-2058 -45 c16 -16 -12 -67 -66 -120 -68 -68 -157 -116 -296 -161
-47 -15 -98 -33 -114 -41 -26 -14 -30 -13 -50 7 l-21 21 35 30 c73 62 197 114
305 128 38 5 51 10 53 25 8 40 -46 42 -167 4 -82 -25 -142 -56 -211 -107 -30
-23 -59 -40 -64 -38 -19 6 -48 55 -41 67 10 16 191 102 270 128 58 19 108 32
205 51 51 10 154 14 162 6z m67 -118 c7 -23 11 -65 9 -92 -3 -46 -5 -50 -35
-56 -49 -10 -121 -56 -195 -126 -86 -81 -115 -82 -265 -6 -72 37 -70 56 10 77
133 37 151 43 239 86 75 35 160 106 184 152 19 37 36 26 53 -35z m202 49 c121
-19 163 -28 339 -71 184 -45 249 -59 395 -86 163 -29 270 -52 365 -77 41 -11
117 -46 143 -65 9 -8 17 -22 17 -31 0 -19 -62 -22 -180 -6 -41 5 -120 14 -175
19 -55 6 -146 15 -202 21 -57 5 -149 15 -205 20 -326 33 -360 41 -521 121 -22
10 -46 19 -55 19 -30 1 -50 25 -66 80 -9 29 -16 57 -16 62 0 12 55 10 161 -6z
m3789 -246 c26 -14 123 -136 147 -185 18 -37 27 -65 53 -162 5 -21 23 -80 40
-132 49 -153 38 -198 -52 -220 -93 -22 -193 23 -229 103 -10 23 -27 83 -38
133 -18 80 -33 131 -81 279 -14 42 -12 114 4 143 7 13 24 30 37 37 29 16 93
18 119 4z m-3931 -14 c15 -8 61 -38 102 -66 101 -69 147 -81 449 -110 452 -43
409 -33 443 -100 41 -78 87 -224 87 -274 0 -65 -41 -102 -153 -140 -74 -25
-324 -72 -333 -63 -3 3 12 15 34 26 109 56 124 171 32 249 -30 26 -108 54
-211 77 -129 29 -170 48 -274 125 -44 33 -96 67 -115 77 -54 26 -125 27 -212
4 -96 -26 -139 -26 -169 -2 l-23 18 23 13 c13 6 56 42 96 79 106 98 160 119
224 87z m4556 -207 c22 -6 56 -28 76 -48 32 -31 38 -45 44 -96 14 -131 56
-211 146 -280 74 -56 99 -94 106 -157 11 -111 -56 -281 -154 -388 l-58 -63
-205 -23 c-113 -14 -287 -27 -386 -31 l-182 -6 -32 67 c-35 75 -85 119 -154
137 -99 27 -106 40 -106 215 0 127 -11 167 -64 241 -30 42 -36 59 -36 100 0
42 5 55 33 86 17 19 42 38 55 42 20 6 22 3 22 -33 0 -21 -7 -60 -14 -87 -18
-57 -11 -80 52 -173 80 -117 209 -213 352 -263 93 -32 274 -33 340 -1 112 54
161 138 195 331 27 155 17 235 -36 296 -35 39 -81 56 -136 48 -36 -5 -39 -3
-61 36 -27 48 -26 49 68 54 36 2 72 4 80 5 8 1 33 -3 55 -9z m-3384 -46 c31
-33 129 -207 140 -247 16 -59 7 -128 -22 -165 -17 -22 -53 -42 -127 -71 -187
-74 -326 -100 -525 -99 -103 0 -244 13 -197 18 393 38 590 90 654 174 48 63
32 186 -45 356 l-29 64 67 -6 c45 -5 73 -12 84 -24z m4397 -4 c14 -23 15 -23
116 5 42 12 63 13 70 6 18 -18 -7 -44 -50 -53 -66 -15 -227 -19 -256 -8 -29
11 -38 31 -15 31 6 0 23 9 37 20 34 26 81 26 98 -1z m-4259 -34 c41 -38 74
-106 109 -230 47 -167 64 -222 79 -258 9 -20 14 -39 12 -41 -2 -2 -25 -7 -51
-10 -48 -7 -48 -7 -48 21 0 29 -33 93 -49 93 -17 0 -20 30 -6 64 26 62 19 149
-16 225 -18 36 -44 84 -59 106 -42 62 -43 65 -26 65 9 0 33 -16 55 -35z m4016
-35 c49 -23 84 -52 150 -123 113 -119 241 -279 270 -338 58 -113 54 -249 -11
-389 -64 -137 -84 -218 -84 -346 0 -59 -4 -86 -13 -90 -7 -2 -36 7 -65 21
l-52 25 0 48 c0 52 29 151 59 205 10 18 43 70 73 117 133 203 119 310 -72 555
-162 208 -215 262 -326 332 -38 24 9 13 71 -17z m-3738 -34 c30 -21 103 -113
103 -131 0 -19 87 -129 132 -168 45 -39 51 -49 42 -64 -9 -14 -24 -18 -73 -17
-73 1 -100 13 -161 70 -25 23 -67 55 -94 71 -48 28 -49 29 -77 123 l-28 95 21
23 c29 30 88 30 135 -2z m2892 10 c15 -8 35 -26 45 -40 19 -30 22 -100 4 -94
-24 8 -110 117 -105 133 8 19 20 19 56 1z m1223 -62 l108 -6 34 -47 c18 -25
43 -62 54 -82 11 -20 25 -45 31 -55 26 -46 73 -162 114 -280 41 -121 49 -147
76 -250 17 -64 14 -134 -5 -134 -50 0 -206 68 -267 117 l-28 22 12 67 c7 39 9
99 5 142 -10 118 -57 202 -228 400 -113 131 -110 126 -58 118 25 -4 93 -9 152
-12z m-408 -58 c78 -38 126 -85 126 -124 0 -16 -12 -28 -44 -42 -53 -25 -74
-62 -53 -94 8 -12 52 -42 98 -66 135 -73 175 -128 134 -187 -21 -30 -98 -63
-189 -80 -116 -22 -136 -34 -136 -83 0 -24 11 -59 31 -95 39 -71 38 -118 -3
-123 -44 -5 -151 52 -200 107 -78 86 -86 155 -31 257 35 65 37 74 36 154 -2
102 -25 177 -84 267 -45 69 -47 99 -6 126 36 23 56 26 154 22 82 -3 101 -8
167 -39z m260 -198 c100 -135 129 -186 145 -254 20 -81 -1 -139 -104 -298 -76
-116 -115 -218 -115 -298 0 -29 -1 -30 -32 -24 -42 8 -197 84 -268 131 -56 37
-53 38 32 14 42 -11 52 -11 83 4 33 16 35 20 35 64 0 34 -9 64 -30 102 -17 30
-30 65 -30 77 0 25 14 30 135 55 81 16 139 44 176 87 28 31 31 40 26 80 -6 58
-54 107 -162 164 -81 44 -103 71 -66 83 44 14 81 55 81 91 0 19 2 34 5 34 3 0
43 -51 89 -112z m-4210 -110 c9 -12 16 -37 16 -55 0 -27 -7 -37 -41 -59 -97
-61 -161 -138 -249 -297 -23 -44 -67 -106 -98 -139 -63 -67 -150 -143 -157
-136 -3 3 5 31 17 64 16 46 22 83 22 164 1 95 -2 110 -26 160 -28 56 -67 104
-126 153 -40 32 -38 33 86 41 138 9 303 52 452 119 59 27 77 24 104 -15z m235
-109 c37 -13 39 -25 9 -56 -16 -18 -32 -23 -69 -23 -103 0 -168 -53 -293 -244
-52 -77 -107 -153 -122 -167 -16 -15 -62 -38 -102 -52 l-74 -26 56 60 c66 71
94 112 166 239 113 200 296 315 429 269z m2135 -374 c59 -28 96 -123 96 -251
0 -87 -10 -108 -45 -93 -61 24 -127 8 -300 -74 l-110 -52 -175 3 c-96 1 -179
7 -184 12 -13 13 6 130 33 200 22 59 75 121 125 147 64 34 154 15 218 -44 33
-32 60 -27 68 12 10 45 27 71 65 101 68 52 150 67 209 39z m1403 -101 c-3 -3
-12 -4 -19 -1 -8 3 -5 6 6 6 11 1 17 -2 13 -5z"/>
<path d="M4512 6473 c-30 -14 -75 -46 -101 -69 l-48 -43 -6 -93 c-7 -106 -20
-177 -48 -263 -21 -63 -25 -73 -57 -145 -11 -25 -23 -56 -27 -69 -12 -38 13
-15 35 33 70 154 108 294 117 429 l6 98 45 39 c24 22 69 52 98 66 30 15 54 30
54 35 0 14 -11 11 -68 -18z"/>
<path d="M5157 6253 c-16 -15 -5 -40 29 -62 45 -31 110 -105 137 -156 30 -56
31 -170 2 -191 -28 -21 -80 -9 -137 32 -55 39 -60 38 -20 -2 40 -42 66 -54
118 -54 58 0 74 16 74 77 1 39 3 44 11 30 25 -43 29 -79 12 -114 -19 -41 -15
-46 18 -29 14 7 37 16 52 20 16 4 37 22 51 45 55 87 43 168 -38 246 -70 69
-114 105 -126 105 -5 0 -10 4 -10 8 0 5 -18 18 -41 30 -39 21 -118 30 -132 15z
m118 -22 c80 -55 200 -162 220 -195 29 -50 33 -120 9 -154 -29 -42 -48 -28
-100 75 -47 93 -105 163 -207 252 -21 18 -25 26 -15 32 13 9 75 2 93 -10z"/>
<path d="M4880 6135 c-13 -14 -20 -25 -16 -25 4 0 18 11 32 25 14 14 21 25 16
25 -5 0 -19 -11 -32 -25z"/>
<path d="M4831 6044 c0 -11 3 -14 6 -6 3 7 2 16 -1 19 -3 4 -6 -2 -5 -13z"/>
<path d="M4813 5930 c0 -41 2 -58 4 -37 2 20 2 54 0 75 -2 20 -4 3 -4 -38z"/>
<path d="M4833 5815 c0 -22 2 -30 4 -17 2 12 2 30 0 40 -3 9 -5 -1 -4 -23z"/>
<path d="M4853 5690 c0 -36 2 -50 4 -32 2 17 2 47 0 65 -2 17 -4 3 -4 -33z"/>
<path d="M4368 5523 c12 -2 30 -2 40 0 9 3 -1 5 -23 4 -22 0 -30 -2 -17 -4z"/>
<path d="M4708 5523 c6 -2 18 -2 25 0 6 3 1 5 -13 5 -14 0 -19 -2 -12 -5z"/>
<path d="M4583 5503 c15 -2 37 -2 50 0 12 2 0 4 -28 4 -27 0 -38 -2 -22 -4z"/>
<path d="M4692 5377 c-24 -25 -41 -87 -24 -87 5 0 13 12 17 28 10 39 34 62 67
62 17 0 27 4 23 10 -11 18 -61 11 -83 -13z"/>
<path d="M4763 5253 c9 -2 23 -2 30 0 6 3 -1 5 -18 5 -16 0 -22 -2 -12 -5z"/>
<path d="M5576 5245 c4 -9 0 -15 -10 -15 -23 0 -20 -13 10 -41 14 -13 40 -51
56 -84 17 -33 53 -81 81 -107 28 -26 48 -51 44 -54 -3 -4 -25 -7 -47 -7 -22 0
-40 -4 -40 -8 0 -14 74 -11 88 3 10 10 17 10 32 0 52 -32 38 10 -25 81 -30 34
-63 82 -72 107 -17 46 -55 105 -82 128 -21 17 -42 15 -35 -3z"/>
<path d="M5482 5224 c-12 -8 -22 -22 -22 -30 0 -8 -4 -14 -10 -14 -31 0 19
-117 76 -177 53 -56 87 -64 119 -29 29 32 25 44 -34 106 -39 41 -76 51 -99 28
-18 -18 -34 4 -36 49 -1 34 3 40 32 52 17 8 32 18 32 23 0 13 -34 9 -58 -8z"/>
<path d="M5860 5212 c0 -9 18 -39 40 -66 22 -26 40 -49 40 -50 0 -2 -19 -23
-42 -47 -34 -34 -39 -44 -26 -47 21 -4 66 19 99 52 14 14 38 30 53 36 32 12
27 26 -13 35 -15 3 -53 28 -84 55 -30 28 -58 50 -61 50 -3 0 -6 -8 -6 -18z"/>
<path d="M6990 6044 c0 -3 9 -19 20 -34 30 -43 80 -152 96 -212 7 -29 14 -90
14 -135 0 -49 4 -83 10 -83 15 0 12 166 -4 225 -14 53 -51 133 -95 202 -23 38
-41 54 -41 37z"/>
<path d="M4275 5011 c-10 -17 36 -120 81 -180 48 -64 83 -84 135 -79 48 4 43
27 -11 48 -53 21 -97 69 -142 156 -31 60 -49 76 -63 55z"/>
<path d="M3620 4468 c-190 -57 -299 -124 -335 -203 -25 -58 -27 -71 -34 -215
-8 -164 -18 -193 -92 -271 -40 -41 -202 -178 -414 -349 -113 -91 -171 -155
-208 -230 -27 -55 -32 -74 -31 -140 0 -87 14 -121 77 -182 23 -22 42 -50 42
-62 0 -14 5 -20 15 -17 8 2 58 4 110 5 85 1 102 4 160 33 75 37 150 100 208
175 51 67 87 130 207 367 98 192 147 228 347 256 133 18 189 31 242 57 22 10
43 18 46 18 12 0 29 -48 36 -100 5 -39 10 -50 23 -48 23 5 27 107 6 148 l-16
31 54 58 c126 137 151 307 67 470 -42 83 -163 173 -265 197 -51 12 -208 13
-245 2z m207 -19 c101 -24 157 -53 217 -112 82 -80 101 -130 101 -257 0 -94
-3 -111 -28 -162 -64 -133 -186 -215 -362 -242 -181 -29 -219 -38 -272 -63
-88 -43 -109 -73 -230 -316 -40 -81 -95 -181 -123 -222 -95 -141 -209 -229
-317 -245 -41 -6 -45 -5 -54 16 -10 27 -25 29 -80 12 -36 -10 -41 -9 -65 13
-14 13 -40 44 -58 69 -28 40 -31 53 -31 115 0 57 5 81 29 130 33 67 128 168
246 260 41 32 77 62 80 65 3 3 62 52 132 109 232 187 253 224 267 461 9 152
16 175 66 225 39 40 153 101 230 123 120 34 177 39 252 21z"/>
<path d="M3643 3410 c5 -36 1 -44 -39 -87 -40 -43 -84 -132 -84 -168 0 -7 -6
-15 -12 -18 -35 -11 84 -80 185 -107 89 -24 202 8 212 59 3 14 10 45 15 69 24
103 -2 171 -87 230 -33 23 -77 29 -88 12 -3 -5 -18 -10 -33 -10 -21 0 -30 7
-39 30 -17 45 -37 39 -30 -10z m205 -73 c29 -28 52 -79 52 -115 0 -8 -17 8
-38 35 -21 26 -56 57 -77 68 -44 23 -54 41 -28 48 29 7 56 -3 91 -36z m-147
-8 c20 -10 20 -10 -1 -43 -48 -79 -5 -166 82 -166 24 0 49 5 55 11 15 15 43 4
43 -15 0 -8 -12 -24 -27 -36 -25 -19 -38 -21 -113 -18 -61 3 -98 10 -132 26
-47 22 -48 24 -48 68 0 51 24 104 70 152 34 35 41 37 71 21z"/>
<path d="M3376 3025 c-65 -23 -89 -54 -90 -117 0 -42 5 -62 24 -88 67 -95 173
-140 329 -141 89 0 96 2 130 29 30 24 36 36 39 73 3 59 -22 97 -95 146 -132
89 -261 126 -337 98z m157 -36 c112 -37 224 -114 247 -169 10 -24 10 -36 0
-60 -19 -46 -64 -63 -152 -57 -92 7 -147 17 -154 28 -3 5 -12 9 -20 9 -25 0
-104 59 -125 93 -36 60 -20 134 35 161 43 21 95 20 169 -5z"/>
<path d="M6388 1840 c-46 -25 -68 -56 -68 -95 1 -45 23 -66 87 -82 32 -8 76
-19 97 -24 121 -30 196 73 113 156 -54 54 -170 77 -229 45z m145 -54 c41 -17
70 -49 65 -73 -3 -15 -13 -18 -58 -17 -74 2 -160 24 -168 42 -3 9 6 24 22 39
31 27 88 31 139 9z"/>
<path d="M6292 1190 c-23 -21 -24 -25 -46 -130 -28 -131 -34 -137 -225 -214
-67 -27 -111 -60 -111 -83 0 -7 13 -27 29 -45 l29 -33 104 0 c135 0 230 24
311 79 89 60 127 117 134 204 7 82 -6 129 -50 178 -56 65 -132 84 -175 44z
m108 -42 c67 -46 90 -107 76 -202 -8 -53 -75 -135 -135 -165 -93 -47 -300 -76
-351 -49 -48 26 -37 43 52 79 195 78 215 98 245 251 21 111 47 131 113 86z"/>
<path d="M2599 8486 c15 -18 105 -66 124 -66 15 0 87 58 87 71 0 16 -18 10
-44 -16 -14 -14 -35 -25 -47 -25 -26 0 -89 29 -89 41 0 5 -10 9 -21 9 -17 0
-19 -3 -10 -14z"/>
<path d="M3870 8491 c0 -24 154 -75 181 -60 34 18 51 69 24 69 -8 0 -15 -9
-15 -19 0 -36 -57 -36 -134 0 -44 21 -56 23 -56 10z"/>
<path d="M4146 8353 c-8 -182 -23 -319 -37 -344 -8 -16 -5 -21 17 -29 26 -10
120 -4 139 10 6 3 30 12 55 20 25 7 49 17 55 22 5 4 17 8 27 8 20 0 24 13 38
120 24 187 40 210 40 58 1 -123 8 -138 70 -138 134 0 315 103 370 211 28 54
33 209 7 209 -11 0 -13 -16 -10 -72 5 -84 -7 -121 -60 -184 -54 -62 -229 -144
-307 -144 -51 0 -62 89 -31 245 6 28 13 65 17 83 4 20 2 32 -4 32 -12 0 -72
-83 -72 -99 0 -6 -4 -19 -9 -29 -16 -32 -29 -86 -42 -179 -9 -64 -17 -93 -26
-93 -7 0 -21 -4 -31 -9 -9 -5 -28 -13 -42 -19 -14 -5 -38 -15 -53 -21 -15 -6
-49 -11 -74 -11 -44 0 -45 1 -39 28 12 49 35 386 29 430 -11 79 -20 42 -27
-105z m354 -13 c0 -5 -5 -10 -11 -10 -5 0 -7 5 -4 10 3 6 8 10 11 10 2 0 4 -4
4 -10z"/>
<path d="M5130 8486 c0 -17 -70 -82 -100 -91 -26 -8 -30 -5 -40 37 -8 32 -8
31 -9 -14 -1 -26 4 -50 9 -53 27 -17 112 36 153 95 21 30 21 40 2 40 -8 0 -15
-6 -15 -14z"/>
<path d="M6200 8490 c0 -20 101 -188 137 -226 24 -27 144 -114 156 -114 3 0
34 -16 69 -36 145 -84 186 -106 253 -138 113 -54 189 -56 227 -5 16 21 17 30
8 55 -6 16 -20 38 -30 49 -17 18 -17 23 -4 60 7 22 14 55 14 74 0 34 -36 151
-50 161 -4 3 -9 10 -11 17 -8 22 -100 113 -115 113 -22 0 -15 -12 42 -72 75
-78 98 -128 98 -214 1 -44 -5 -81 -13 -98 -14 -25 -13 -28 17 -59 57 -59 39
-97 -48 -97 -55 0 -113 24 -250 102 -25 14 -88 49 -140 78 -110 61 -178 106
-203 135 -31 36 -113 159 -128 193 -13 31 -29 43 -29 22z"/>
<path d="M7010 8494 c0 -3 15 -24 34 -47 65 -81 98 -177 95 -280 -2 -66 -2
-66 93 -139 20 -15 75 -79 122 -142 140 -187 187 -219 550 -381 51 -23 63 -15
103 65 39 80 44 102 50 223 5 110 -11 176 -71 297 -80 160 -246 410 -273 410
-19 0 -16 -15 11 -47 86 -102 258 -399 283 -488 37 -132 41 -176 22 -249 -45
-175 -73 -216 -127 -187 -9 6 -75 38 -147 72 -222 107 -262 139 -381 299 -71
94 -150 176 -192 199 -19 10 -22 20 -22 84 -1 110 -36 198 -119 295 -19 21
-31 28 -31 16z"/>
<path d="M7790 8491 c0 -13 59 -61 88 -72 13 -5 34 -6 48 -3 27 7 84 56 84 73
0 20 -21 11 -47 -19 -18 -22 -33 -30 -59 -30 -23 0 -44 9 -67 30 -36 31 -47
36 -47 21z"/>
<path d="M8045 8465 c-4 -16 -11 -34 -15 -40 -4 -5 -15 -36 -25 -68 -24 -82
-16 -136 34 -201 74 -99 101 -214 101 -431 -1 -127 -4 -160 -23 -215 -26 -78
-73 -154 -104 -171 -12 -6 -24 -17 -27 -24 -5 -13 78 -183 116 -239 82 -119
173 -159 229 -100 20 21 24 36 24 87 0 34 -6 77 -14 95 -8 18 -11 35 -8 38 11
11 48 -23 67 -62 25 -51 25 -95 1 -175 -29 -95 -34 -141 -22 -205 18 -94 96
-242 117 -221 5 4 0 20 -10 35 -9 15 -31 56 -49 92 -27 57 -31 75 -31 150 0
61 6 103 22 149 34 98 25 164 -29 226 -28 32 -91 57 -106 42 -3 -4 4 -27 16
-52 14 -31 21 -64 21 -109 0 -57 -3 -65 -25 -80 -22 -15 -31 -15 -63 -4 -45
16 -109 78 -141 138 -13 25 -36 68 -51 95 -43 81 -42 87 4 133 31 31 50 63 76
134 35 92 35 94 33 238 -3 141 -16 265 -33 305 -31 75 -66 140 -88 167 -24 28
-27 40 -26 101 1 37 6 73 13 80 6 6 11 20 11 32 0 12 5 26 11 32 6 6 9 21 7
34 -4 23 -5 22 -13 -6z"/>
<path d="M163 8225 c0 -33 2 -45 4 -27 2 18 2 45 0 60 -2 15 -4 0 -4 -33z"/>
<path d="M887 8163 c-4 -3 -7 -11 -7 -17 0 -6 5 -5 12 2 6 6 9 14 7 17 -3 3
-9 2 -12 -2z"/>
<path d="M137 8107 c-12 -56 -61 -107 -103 -107 -29 0 -34 -3 -34 -24 0 -13 7
-29 16 -36 29 -25 65 -98 90 -186 28 -95 50 -145 95 -211 16 -23 29 -44 29
-47 0 -2 -16 -10 -35 -16 -20 -6 -48 -27 -63 -46 -15 -19 -34 -34 -42 -34 -10
0 -9 -4 5 -14 28 -19 162 -31 181 -15 20 16 17 62 -6 104 -11 19 -29 52 -41
73 -12 20 -25 42 -29 47 -26 33 -53 95 -66 153 -8 37 -33 100 -55 140 -21 41
-39 77 -39 82 0 5 16 12 35 16 28 5 38 14 55 50 13 25 20 57 18 76 l-3 33 -8
-38z m125 -672 c18 -40 -7 -59 -66 -51 -65 10 -61 39 9 64 43 15 44 15 57 -13z"/>
<path d="M332 7994 c-3 -54 -26 -109 -70 -164 -45 -56 -53 -62 -69 -48 -21 17
-51 94 -67 173 -2 11 -4 1 -5 -22 -1 -47 28 -134 55 -164 9 -11 27 -19 40 -19
19 0 23 -5 22 -32 0 -41 13 -117 21 -122 3 -2 6 39 6 93 0 92 2 99 32 145 37
55 46 91 40 156 l-4 45 -1 -41z"/>
<path d="M1172 7950 c0 -14 2 -19 5 -12 2 6 2 18 0 25 -3 6 -5 1 -5 -13z"/>
<path d="M1173 7765 c0 -22 2 -30 4 -17 2 12 2 30 0 40 -3 9 -5 -1 -4 -23z"/>
<path d="M553 7457 c-7 -15 -13 -45 -12 -65 l0 -37 15 40 c8 22 13 51 12 65
l-3 25 -12 -28z"/>
<path d="M310 7455 c0 -8 4 -15 10 -15 5 0 7 7 4 15 -4 8 -8 15 -10 15 -2 0
-4 -7 -4 -15z"/>
<path d="M2 7368 c9 -27 116 -69 213 -84 110 -16 144 -31 179 -77 24 -31 66
-119 66 -138 0 -14 -68 -53 -145 -83 -122 -48 -197 -105 -274 -210 -38 -51
-53 -96 -32 -96 5 0 20 19 34 43 47 79 133 163 199 195 181 86 223 105 227
104 9 -2 28 -79 42 -162 19 -121 -5 -225 -72 -303 -31 -36 -163 -158 -240
-220 -36 -30 -130 -77 -153 -77 -25 0 -46 -12 -46 -26 0 -19 25 -18 85 4 87
32 149 79 313 236 79 76 99 104 123 169 22 59 26 212 8 281 -43 166 -55 201
-87 259 -43 80 -119 127 -206 127 -52 0 -106 14 -174 46 -60 28 -65 29 -60 12z"/>
<path d="M370 7356 c0 -2 8 -10 18 -17 15 -13 16 -12 3 4 -13 16 -21 21 -21
13z"/>
<path d="M920 5635 c-89 -16 -173 -42 -245 -74 -57 -26 -158 -100 -198 -146
-45 -51 -99 -145 -142 -248 -101 -240 -177 -373 -282 -494 -47 -54 -68 -103
-45 -103 15 0 116 112 159 176 83 122 123 200 219 427 73 173 165 278 299 342
177 85 451 119 583 72 89 -31 134 -77 175 -178 18 -46 21 -74 21 -184 1 -150
-16 -227 -107 -505 -29 -91 -59 -185 -67 -210 -7 -25 -16 -56 -20 -70 -24 -76
-35 -168 -34 -295 2 -186 11 -220 169 -640 68 -183 102 -312 111 -426 16 -204
-10 -253 -201 -381 -173 -116 -288 -217 -369 -324 -157 -210 -224 -412 -213
-648 6 -144 31 -239 88 -344 49 -90 57 -100 144 -187 141 -143 308 -235 643
-356 28 -10 77 -28 107 -39 295 -107 383 -165 426 -280 51 -135 -31 -283 -251
-450 l-85 -65 38 -3 c32 -3 45 3 95 44 281 234 337 446 161 614 -65 62 -154
106 -374 184 -444 158 -588 234 -741 391 -122 126 -178 247 -204 438 -12 85
-12 111 3 205 47 316 211 551 538 770 177 118 215 161 238 270 33 156 1 305
-154 710 -104 275 -118 337 -119 527 -1 190 7 231 101 515 112 337 117 361
117 545 1 142 -2 166 -21 213 -43 105 -121 180 -217 209 -51 16 -258 15 -346
-2z"/>
<path d="M5815 4530 c9 -33 80 -105 124 -126 19 -9 80 -28 135 -41 98 -24 160
-52 169 -76 6 -18 -3 -37 -18 -37 -7 0 -31 -18 -55 -40 -30 -28 -41 -46 -38
-62 3 -20 10 -24 58 -28 100 -10 179 -65 200 -139 12 -45 12 -47 -1 -94 -11
-42 -62 -97 -90 -97 -10 0 -21 -4 -24 -10 -3 -5 -15 -10 -25 -10 -67 0 -220
-111 -220 -159 0 -32 16 -51 45 -51 32 0 36 -9 19 -42 -28 -55 -84 -108 -113
-108 -28 0 -87 59 -174 173 -83 110 -160 331 -137 393 9 23 34 50 95 102 21
17 36 35 33 38 -7 6 -29 -11 -100 -75 -48 -43 -48 -44 -48 -107 0 -35 4 -73 9
-86 5 -13 14 -41 21 -63 26 -84 83 -188 140 -259 105 -129 147 -163 182 -146
13 7 42 33 65 58 42 46 43 47 43 20 0 -16 -4 -28 -10 -28 -5 0 -10 -8 -10 -18
0 -10 -5 -23 -11 -29 -6 -6 -9 -19 -7 -29 2 -10 13 6 27 42 13 32 36 86 51
119 15 33 33 83 40 110 7 28 14 58 17 68 3 9 1 17 -5 17 -6 0 -24 -29 -41 -65
-29 -62 -31 -65 -66 -65 -110 0 -6 117 149 169 121 40 160 78 172 164 5 32 1
56 -13 88 -37 82 -98 123 -196 135 -37 4 -57 11 -57 20 0 15 64 70 103 87 15
6 27 17 27 23 0 18 -54 69 -86 81 -66 24 -102 33 -127 33 -14 0 -29 5 -32 10
-3 6 -14 10 -25 10 -44 0 -137 65 -184 130 l-18 25 7 -25z"/>
<path d="M6550 4512 c0 -10 3 -22 7 -26 23 -22 43 -136 25 -136 -5 0 -39 32
-76 70 -38 39 -72 70 -77 70 -18 0 21 -67 98 -168 18 -23 40 -59 49 -80 8 -20
20 -45 25 -54 16 -31 10 -47 -23 -57 l-33 -10 35 2 c34 2 35 3 33 44 -2 40
-16 77 -61 156 -23 39 -21 47 5 22 8 -9 28 -19 44 -22 23 -4 29 -11 30 -32 1
-14 3 -19 6 -10 7 26 -24 144 -52 199 -27 54 -35 61 -35 32z"/>
<path d="M433 4466 c-99 -31 -176 -107 -271 -268 -34 -59 -85 -131 -112 -161
-47 -51 -63 -87 -40 -87 24 0 110 108 175 217 129 217 260 309 372 261 51 -22
99 -80 117 -140 31 -108 19 -181 -62 -375 -68 -161 -82 -213 -82 -310 0 -120
23 -167 134 -267 95 -86 116 -122 116 -200 0 -79 -64 -229 -139 -326 -56 -71
-200 -288 -256 -384 -63 -108 -126 -252 -143 -331 -6 -27 -16 -71 -22 -97 -41
-188 33 -462 196 -725 22 -35 82 -129 134 -210 52 -80 100 -156 106 -167 6
-12 26 -50 45 -86 87 -161 124 -290 124 -435 0 -92 -3 -117 -22 -155 -28 -61
-77 -107 -176 -166 -79 -47 -81 -49 -50 -52 26 -3 51 8 116 51 113 74 148 125
167 243 22 135 -22 334 -113 508 -46 89 -146 253 -255 419 -40 60 -97 161
-128 225 -31 65 -61 125 -65 134 -5 10 -9 26 -9 36 0 10 -3 22 -7 26 -16 16
-32 125 -32 221 -2 232 73 414 327 790 85 126 168 253 183 281 39 74 62 177
54 238 -8 65 -24 93 -81 146 -117 108 -141 137 -157 188 -32 96 -19 177 58
362 88 215 106 296 85 387 -26 114 -81 181 -172 208 -60 18 -60 18 -115 1z"/>
<path d="M6651 4245 c-1 -15 18 -92 54 -221 4 -13 62 -6 71 8 4 5 10 5 17 -1
17 -13 100 60 95 85 -3 16 -7 14 -38 -12 -91 -78 -121 -82 -140 -21 -18 60
-31 99 -40 122 -5 11 -11 29 -13 40 -5 19 -5 19 -6 0z"/>
<path d="M6420 4183 c0 -10 28 -53 45 -68 16 -15 68 -45 88 -52 9 -3 17 -9 17
-14 0 -5 4 -9 10 -9 15 0 50 -32 65 -60 8 -17 13 -64 13 -138 l0 -112 -41 -1
-42 -1 40 -9 c21 -5 45 -7 51 -5 15 6 16 217 2 256 -14 37 -53 75 -122 115
-33 20 -70 50 -81 67 -20 31 -45 48 -45 31z"/>
<path d="M6380 3759 c0 -14 39 -35 128 -69 94 -36 145 -79 162 -137 9 -31 8
-54 -10 -128 -12 -49 -24 -129 -27 -177 l-6 -87 -96 -3 c-53 -2 -98 0 -101 4
-9 12 -70 21 -70 11 0 -24 116 -104 178 -122 32 -9 42 -17 42 -33 0 -26 -49
-128 -61 -128 -5 0 -9 17 -9 38 0 21 -9 48 -20 62 -16 21 -27 25 -72 24 -29
-1 -79 -10 -110 -22 l-57 -20 -34 38 c-19 20 -44 64 -56 96 -12 32 -30 70 -39
86 -9 15 -14 29 -11 31 2 2 47 18 99 36 163 56 176 64 166 107 -6 21 -12 24
-52 24 -72 0 -55 27 54 85 110 59 123 75 86 104 -22 17 -40 21 -98 20 -39 0
-80 -4 -91 -9 -13 -6 13 -9 76 -9 79 -1 98 -4 103 -17 9 -24 2 -30 -87 -72
-91 -43 -110 -60 -105 -94 2 -19 10 -24 48 -28 25 -3 44 -8 43 -12 -2 -5 -3
-11 -3 -16 0 -4 -15 -13 -32 -20 -18 -7 -41 -18 -50 -23 -10 -5 -26 -9 -36 -9
-10 0 -22 -3 -25 -7 -14 -13 -109 -42 -123 -36 -9 3 -14 20 -14 47 0 30 -3 37
-10 26 -18 -27 -10 -56 29 -117 21 -32 46 -83 55 -111 10 -28 39 -78 64 -109
69 -85 213 -223 232 -223 18 0 90 79 90 98 0 6 4 12 8 14 16 6 72 116 72 141
0 31 -22 55 -58 63 -34 7 -60 20 -92 44 l-25 20 101 0 c115 0 114 -1 115 78 0
50 6 88 34 218 14 70 15 87 3 120 -22 66 -90 134 -132 134 -12 0 -33 11 -47
24 -26 24 -129 60 -129 45z m81 -770 c27 -19 29 -25 29 -85 0 -68 -19 -114
-47 -114 -32 0 -173 142 -173 174 0 3 9 6 19 6 11 0 23 5 26 10 3 6 19 10 35
10 16 0 32 5 35 10 10 16 45 11 76 -11z"/>
<path d="M6205 3570 c-3 -5 1 -10 9 -10 8 0 18 5 21 10 3 6 -1 10 -9 10 -8 0
-18 -4 -21 -10z"/>
<path d="M6654 2856 c-53 -45 -82 -104 -90 -181 l-7 -64 80 -78 c43 -43 103
-111 132 -150 30 -40 59 -73 65 -73 25 0 46 33 62 95 l8 30 4 -32 c5 -49 22
-40 22 12 0 25 5 65 12 90 7 24 9 48 5 51 -16 16 -65 -76 -74 -134 -6 -45 -23
-82 -37 -82 -6 1 -29 26 -51 57 -22 31 -78 95 -124 141 l-84 84 6 53 c7 67 36
125 84 164 31 25 47 31 88 31 27 0 57 5 65 10 10 7 -6 10 -56 10 -66 0 -73 -2
-110 -34z"/>
<path d="M7127 2415 c-5 -35 -4 -82 3 -114 15 -82 13 -114 -10 -129 -22 -14
-47 -5 -84 29 -11 11 -23 19 -28 19 -17 0 -6 -16 29 -42 70 -54 132 -25 118
54 -4 24 -10 88 -14 143 l-6 100 -8 -60z"/>
<path d="M6910 2307 c0 -21 6 -44 13 -50 20 -19 58 -39 64 -34 2 3 -9 13 -26
23 -22 13 -31 26 -31 44 0 14 -5 32 -10 40 -7 11 -10 5 -10 -23z"/>
<path d="M8255 1842 l-50 -28 2 -67 c2 -43 10 -82 23 -108 21 -46 14 -69 -21
-69 -39 0 -137 -69 -161 -113 -16 -30 -3 -30 50 3 39 25 62 32 105 33 31 1 58
-1 59 -3 2 -3 32 -61 67 -130 84 -168 153 -290 163 -290 18 0 6 42 -26 92 -18
29 -66 118 -107 196 -81 158 -105 182 -159 164 -16 -6 -31 -8 -34 -5 -8 9 35
29 77 37 20 4 39 10 41 15 3 5 -4 27 -15 50 -44 91 -49 201 -10 201 15 0 21
-10 26 -50 4 -27 11 -52 16 -56 5 -3 9 -21 9 -41 0 -20 5 -53 12 -72 31 -97
55 -154 71 -172 18 -20 19 -19 63 28 58 62 55 92 -3 33 l-41 -43 -21 34 c-12
19 -21 41 -21 49 0 9 -4 20 -8 25 -5 6 -14 37 -21 70 -7 33 -20 84 -28 114
-14 49 -14 56 1 88 9 18 16 36 16 38 0 11 -29 3 -75 -23z"/>
<path d="M3392 869 c-102 -75 -154 -202 -171 -417 -9 -112 -11 -120 -57 -207
-59 -113 -76 -139 -133 -198 l-45 -47 32 0 c50 0 99 60 192 235 66 124 111
183 174 226 45 31 55 34 125 34 110 -1 135 -17 264 -174 75 -93 116 -111 277
-121 150 -10 196 -27 223 -80 13 -25 16 -47 12 -78 -6 -40 -5 -42 19 -42 19 0
33 11 51 38 46 70 59 134 60 292 0 170 -15 230 -71 279 -54 48 -99 55 -249 42
-112 -10 -138 -10 -188 4 -77 20 -141 64 -204 140 -65 78 -118 105 -206 105
-55 0 -69 -4 -105 -31z m189 -23 c19 -8 67 -51 107 -95 118 -131 216 -164 415
-142 129 15 171 7 216 -38 28 -28 39 -50 49 -97 23 -113 10 -306 -26 -369 -8
-16 -11 -13 -21 17 -12 36 -49 77 -90 98 -13 6 -83 16 -157 21 -179 12 -215
30 -314 162 -73 97 -150 139 -256 140 -75 0 -129 -23 -200 -86 l-44 -39 0 35
c0 129 66 304 138 368 40 35 50 39 97 39 29 0 68 -6 86 -14z"/>
<path d="M6320 399 c-169 -62 -180 -63 -335 -50 -157 14 -213 8 -267 -25 -49
-31 -64 -82 -48 -160 15 -70 95 -164 141 -164 16 0 29 4 29 8 0 4 -21 25 -46
46 -64 54 -84 90 -84 154 0 42 5 58 24 77 32 32 100 41 207 26 164 -21 231
-13 374 45 157 64 262 26 296 -107 15 -57 1 -115 -47 -194 -32 -54 -32 -55
-10 -55 31 0 71 62 91 137 41 156 -52 293 -197 293 -24 0 -81 -14 -128 -31z"/>
</g>
</svg>
