<?xml version="1.0" encoding="UTF-8" standalone="no"?>
<svg
   xmlns:dc="http://purl.org/dc/elements/1.1/"
   xmlns:cc="http://creativecommons.org/ns#"
   xmlns:rdf="http://www.w3.org/1999/02/22-rdf-syntax-ns#"
   xmlns:svg="http://www.w3.org/2000/svg"
   xmlns="http://www.w3.org/2000/svg"
   xmlns:sodipodi="http://sodipodi.sourceforge.net/DTD/sodipodi-0.dtd"
   xmlns:inkscape="http://www.inkscape.org/namespaces/inkscape"
   version="1.0"
   width="850.000000pt"
   height="850.000000pt"
   viewBox="0 0 850.000000 850.000000"
   preserveAspectRatio="xMidYMid meet"
   id="svg264"
   sodipodi:docname="bible112.svg"
   inkscape:version="0.92.2 5c3e80d, 2017-08-06">
  <defs
     id="defs268" />
  <sodipodi:namedview
     pagecolor="#ffffff"
     bordercolor="#666666"
     borderopacity="1"
     objecttolerance="10"
     gridtolerance="10"
     guidetolerance="10"
     inkscape:pageopacity="0"
     inkscape:pageshadow="2"
     inkscape:window-width="1920"
     inkscape:window-height="978"
     id="namedview266"
     showgrid="false"
     inkscape:zoom="0.83294118"
     inkscape:cx="1118.1934"
     inkscape:cy="924.60558"
     inkscape:window-x="0"
     inkscape:window-y="1"
     inkscape:window-maximized="1"
     inkscape:current-layer="svg264" />
  <metadata
     id="metadata2">
Created by potrace 1.14, written by Peter Selinger 2001-2017
<rdf:RDF>
  <cc:Work
     rdf:about="">
    <dc:format>image/svg+xml</dc:format>
    <dc:type
       rdf:resource="http://purl.org/dc/dcmitype/StillImage" />
  </cc:Work>
</rdf:RDF>
</metadata>
  <g
     transform="translate(0.000000,850.000000) scale(0.100000,-0.100000)"
     fill="#000000"
     stroke="none"
     id="g262">
    <path
       d="M0 6900 c0 -880 2 -1600 4 -1600 2 0 23 7 47 16 61 21 232 61 301 69 31 3 61 12 66 18 6 7 18 43 27 82 21 83 69 198 84 203 17 6 71 -119 101 -234 l10 -42 128 -7 c373 -19 583 -95 668 -241 28 -47 30 -86 62 -889 l7 -180 29 90 c35 109 66 145 123 145 21 0 53 -9 71 -20 34 -21 56 -19 50 4 -2 7 -25 32 -53 56 -150 128 -212 262 -221 472 l-4 116 66 134 c58 116 77 143 143 209 170 170 362 238 591 210 159 -20 309 -94 439 -216 l53 -50 125 130 c407 426 531 571 603 707 23 42 36 58 48 54 20 -5 82 -19 172 -40 36 -8 124 -27 195 -41 72 -14 150 -29 175 -35 57 -12 268 -49 340 -60 260 -39 390 -56 528 -70 537 -54 661 -70 957 -129 189 -37 281 -48 530 -61 110 -6 238 -15 285 -20 47 -5 146 -14 220 -20 206 -17 452 -54 841 -126 195 -36 377 -69 404 -74 28 -5 99 -18 159 -29 61 -12 113 -21 118 -21 4 0 8 120 8 268 l0 267 -58 18 c-31 10 -98 39 -149 63 -103 49 -105 50 -136 30 -12 -8 -53 -20 -91 -26 -117 -18 -124 -24 -268 -192 -65 -77 -120 -101 -223 -101 -67 0 -93 6 -160 33 -76 31 -81 32 -146 21 -87 -14 -116 -2 -192 79 l-57 61 -53 -6 c-29 -3 -59 -1 -67 4 -12 9 -8 17 26 53 47 49 74 96 74 131 0 12 4 27 8 32 5 6 14 30 21 54 25 88 158 184 280 201 66 9 84 17 148 66 58 44 106 57 172 44 101 -19 167 -72 241 -195 72 -119 152 -185 225 -185 32 0 32 10 -1 41 -15 13 -78 90 -140 171 -185 238 -255 299 -433 378 -151 66 -325 112 -526 139 -44 6 -102 13 -130 17 l-50 7 35 8 c45 11 237 -6 365 -32 134 -28 255 -69 361 -122 166 -84 228 -141 414 -382 116 -151 200 -233 285 -277 67 -35 198 -88 216 -88 16 0 10 25 -9 36 -10 6 -36 36 -59 65 -109 142 -153 251 -178 451 -9 68 -20 159 -26 203 -18 145 -51 281 -81 338 -5 9 -34 30 -66 46 -31 16 -68 41 -81 55 -33 35 -43 33 -35 -10 10 -53 -38 -193 -85 -245 -30 -34 -44 -42 -83 -46 -39 -5 -52 -12 -72 -38 -46 -60 -106 -54 -153 14 -19 26 -40 43 -66 51 -47 14 -72 52 -81 123 -4 28 -9 54 -12 58 -3 5 -25 -3 -51 -16 -82 -44 -171 -23 -231 53 -20 25 -47 45 -70 53 -124 39 -157 116 -82 190 32 32 40 47 40 76 0 30 8 44 43 77 23 23 53 58 66 79 12 20 27 37 32 37 19 0 8 26 -19 42 -42 25 -130 122 -138 153 -4 14 -1 38 5 52 9 20 8 36 -5 78 -22 70 -10 104 50 134 23 12 50 35 60 52 22 38 50 52 87 44 16 -4 51 -1 77 5 39 10 53 10 84 -3 41 -17 43 -17 53 31 4 20 20 42 40 58 19 14 39 42 46 62 18 58 47 99 79 112 101 42 259 40 -3759 40 l-3811 0 0 -1600z m3549 1081 l143 -1 40 -40 39 -39 -3 -88 c-2 -48 -7 -95 -11 -104 -7 -14 1 -18 50 -24 69 -8 103 -25 133 -62 13 -18 23 -24 26 -16 14 33 49 64 82 72 21 6 160 9 322 8 258 -2 289 -4 324 -21 58 -29 78 -68 74 -146 -6 -110 -57 -159 -178 -169 l-65 -6 -1 -525 c-1 -582 1 -568 -67 -611 -26 -17 -44 -20 -102 -16 -82 4 -116 22 -141 75 -15 31 -17 68 -16 276 1 133 2 252 2 266 0 14 0 139 -1 278 -1 242 -2 253 -21 263 -11 6 -34 9 -51 6 -44 -6 -97 10 -128 40 -32 29 -44 18 -35 -32 4 -19 7 -270 7 -560 l1 -525 -26 -34 c-32 -43 -82 -60 -156 -53 -65 6 -114 28 -132 60 -10 17 -13 160 -11 675 1 644 1 653 22 688 l21 36 -165 -4 c-91 -1 -165 -6 -165 -11 0 -4 6 -20 14 -35 8 -15 17 -50 21 -77 3 -28 12 -81 20 -120 8 -38 19 -101 25 -140 7 -38 23 -112 37 -164 13 -52 31 -133 39 -180 21 -132 59 -332 89 -479 27 -130 27 -134 10 -178 -29 -77 -88 -98 -204 -73 -77 16 -131 90 -131 180 0 31 -15 39 -70 39 -46 0 -49 -4 -72 -95 -14 -55 -25 -77 -53 -102 -33 -31 -38 -33 -113 -33 -66 0 -85 4 -113 23 -52 35 -63 67 -49 135 6 31 15 91 20 132 4 41 13 91 19 110 15 44 27 103 51 250 11 63 24 131 30 150 5 19 10 48 10 64 l0 29 -23 -34 c-24 -36 -43 -43 -147 -56 l-65 -8 -6 -160 c-4 -88 -7 -304 -7 -480 -1 -190 -5 -340 -12 -368 -12 -55 -49 -133 -92 -193 -54 -75 -232 -155 -306 -138 -66 16 -102 77 -102 174 0 90 18 119 102 161 81 41 88 59 88 244 0 113 -3 145 -13 145 -7 0 -20 -15 -29 -32 -24 -49 -204 -243 -265 -285 -43 -29 -65 -38 -112 -41 -68 -5 -107 11 -156 66 l-33 35 -39 -30 c-59 -47 -98 -63 -152 -63 -38 0 -56 6 -80 25 l-30 26 -38 -25 c-54 -35 -95 -41 -134 -20 -31 16 -36 16 -82 -1 -56 -20 -104 -16 -146 15 l-29 20 -16 -54 c-21 -73 -55 -100 -114 -93 -32 3 -53 14 -79 38 -69 67 -77 115 -43 257 11 46 20 88 20 93 0 6 -14 9 -31 7 -31 -3 -32 -5 -56 -98 -49 -196 -92 -318 -120 -339 -59 -47 -143 -10 -188 84 -31 62 -33 43 27 257 l41 148 -54 52 c-71 69 -90 121 -65 176 17 37 17 39 -8 82 -37 68 -51 156 -36 233 27 142 128 280 246 338 62 31 68 32 110 21 25 -7 56 -19 69 -28 36 -24 97 -118 106 -166 13 -66 10 -183 -6 -288 -31 -196 -31 -180 -3 -180 14 0 30 6 35 13 11 13 94 359 101 420 2 20 8 40 13 43 5 3 9 14 9 26 0 31 63 88 98 88 36 0 90 -35 119 -79 32 -47 30 -123 -7 -291 -17 -74 -30 -144 -30 -155 1 -11 13 -34 28 -51 24 -28 33 -31 82 -31 60 0 98 -16 143 -57 34 -31 32 -31 64 -6 35 27 102 27 137 -1 27 -21 46 -18 46 7 0 24 47 64 75 64 31 0 31 7 1 39 -46 49 -128 196 -159 286 -31 87 -32 96 -32 250 1 158 1 162 38 271 56 166 134 275 270 376 82 61 221 132 293 149 27 7 66 17 87 23 33 10 664 13 1306 7z m2917 -266 c50 -29 116 -100 144 -154 l21 -41 28 21 c52 38 115 -2 127 -83 4 -23 14 -43 25 -49 31 -16 51 -64 39 -94 -9 -23 -6 -32 16 -57 21 -26 24 -37 19 -68 -4 -23 -2 -41 4 -45 17 -10 12 -86 -8 -130 -10 -22 -37 -58 -60 -79 l-41 -40 21 -19 c18 -17 20 -28 16 -71 -3 -32 0 -58 8 -71 14 -22 4 -65 -15 -65 -13 0 -13 -37 0 -45 28 -17 5 -84 -54 -154 -23 -27 -36 -53 -36 -71 0 -42 -52 -90 -97 -90 -20 0 -51 -9 -70 -21 -18 -12 -43 -19 -53 -16 -16 4 -26 -6 -46 -44 -15 -27 -35 -51 -46 -55 -10 -3 -39 -23 -64 -45 -25 -21 -51 -40 -57 -40 -7 -1 -30 -3 -52 -5 -22 -1 -56 -5 -76 -9 -30 -6 -41 -2 -65 18 -26 23 -29 31 -30 94 -1 37 -5 89 -9 115 -7 44 -5 52 29 102 26 37 37 62 34 81 -3 27 -5 28 -61 29 -53 1 -60 4 -93 38 -19 21 -47 41 -62 44 -41 10 -93 53 -108 91 -14 31 -13 37 8 74 l22 39 -22 20 c-31 29 -36 63 -17 104 19 39 42 57 96 75 20 6 49 25 64 41 16 17 34 30 41 30 26 0 24 21 -5 57 -25 30 -31 47 -31 83 0 38 -5 49 -30 70 -61 51 -42 123 40 156 26 11 42 25 49 44 15 43 52 63 102 55 39 -7 41 -6 34 11 -19 41 3 159 32 182 9 6 37 13 62 13 25 1 60 4 76 8 40 9 101 -5 151 -34z m-1410 -60 c21 -16 37 -40 43 -63 6 -20 12 -136 15 -257 2 -121 5 -221 5 -222 1 -2 33 -3 72 -3 l71 0 -6 168 c-8 211 3 314 35 349 91 97 252 56 289 -75 6 -23 10 -243 10 -597 0 -308 4 -577 9 -598 12 -52 -2 -96 -45 -137 -34 -34 -37 -35 -109 -33 -93 2 -139 23 -165 74 -18 34 -19 57 -17 269 2 263 7 250 -85 250 l-58 0 0 -142 c-1 -319 -4 -362 -23 -392 -54 -82 -254 -80 -286 3 -22 58 -23 136 -19 821 0 25 -1 144 -2 266 -1 121 1 231 5 245 13 40 46 80 79 95 47 22 141 11 182 -21z"
       id="path4"
       style="fill:#b0c4de" />
    <path
       d="M2267 7893 c-17 -6 -45 -12 -62 -13 -78 -2 -279 -114 -375 -209 -91 -89 -124 -145 -168 -281 -33 -106 -36 -124 -36 -235 0 -144 17 -213 81 -337 56 -110 99 -166 160 -211 152 -111 475 -209 497 -151 11 29 6 121 -6 131 -7 5 -67 25 -133 43 -66 18 -140 43 -165 56 -59 29 -144 119 -205 217 -46 75 -49 84 -57 175 -12 141 5 263 47 338 13 22 48 72 78 110 59 75 120 116 234 155 97 33 207 38 858 40 525 1 634 3 653 15 19 12 22 23 22 74 0 90 0 90 -203 91 -919 5 -1189 3 -1220 -8z"
       id="path6"
       style="fill:#66cdaa" />
    <path
       d="M2675 7640 c-3 -4 2 -25 11 -46 11 -26 16 -74 17 -157 l2 -120 70 -1 c109 -2 152 -39 164 -144 l7 -57 12 41 c6 22 16 67 21 100 15 102 72 338 87 361 8 12 14 25 14 28 0 9 -399 4 -405 -5z"
       id="path8"
       style="fill:#b0c4de" />
    <path
       d="M2262 7629 c-92 -15 -193 -64 -243 -117 -114 -118 -139 -183 -139 -368 l0 -121 55 -89 c59 -96 119 -157 174 -180 63 -26 243 -75 257 -70 28 11 2 36 -37 36 -76 0 -167 69 -212 160 -29 61 -35 171 -12 239 18 56 93 146 134 163 14 6 51 16 81 23 l55 12 6 139 c3 76 9 149 13 162 8 21 6 22 -35 21 -24 -1 -68 -5 -97 -10z"
       id="path10"
       style="fill:#b0c4de" />
    <path
       d="M3165 7601 c-43 -18 -37 0 -111 -356 -19 -93 -39 -197 -44 -230 -15 -112 -68 -390 -84 -445 -9 -31 -18 -78 -20 -105 -2 -28 -9 -77 -16 -111 -19 -88 -15 -94 69 -94 67 0 71 1 85 28 7 15 19 60 26 100 9 46 19 76 29 81 9 5 43 10 76 11 153 7 167 -1 183 -110 6 -40 18 -80 26 -88 20 -20 121 -29 141 -12 21 17 19 69 -6 181 -25 112 -64 320 -84 441 -8 48 -28 143 -45 210 -17 68 -35 152 -40 188 -4 36 -16 103 -25 150 -10 47 -19 94 -21 105 -6 37 -28 55 -74 60 -25 3 -54 1 -65 -4z m82 -621 c7 -41 22 -123 33 -181 11 -58 18 -113 15 -122 -8 -18 -36 -27 -92 -27 -62 0 -77 27 -68 122 4 40 15 100 25 133 10 33 21 78 25 100 9 50 13 57 33 53 13 -2 20 -23 29 -78z"
       id="path12"
       style="fill:#66cdaa" />
    <path
       d="M3746 7587 l-22 -22 -2 -637 c-3 -627 -3 -637 17 -647 30 -16 117 -14 134 4 13 13 15 98 14 645 -2 615 -2 630 -22 649 -11 10 -37 21 -58 24 -31 5 -43 2 -61 -16z"
       id="path14"
       style="fill:#66cdaa" />
    <path
       d="M4059 7598 c-15 -6 -19 -18 -21 -55 -3 -106 4 -112 124 -113 80 0 88 -2 99 -22 10 -17 13 -159 13 -565 1 -615 -5 -572 85 -576 42 -2 55 2 67 17 12 17 14 110 14 563 0 638 -11 583 118 583 80 1 100 8 120 47 31 58 0 122 -60 125 -106 5 -542 2 -559 -4z"
       id="path16"
       style="fill:#66cdaa" />
    <path
       d="M2469 7584 c-11 -13 -14 -54 -15 -170 0 -176 -3 -184 -72 -184 -73 0 -120 -19 -162 -67 -86 -98 -74 -249 26 -331 37 -31 83 -46 109 -36 18 7 27 39 29 95 1 34 -4 44 -32 65 -37 30 -42 64 -12 94 24 24 57 26 88 4 l23 -16 -4 -501 c-4 -541 -5 -545 -58 -594 -13 -12 -46 -31 -71 -43 -26 -11 -53 -30 -59 -42 -15 -27 -4 -117 16 -137 30 -30 132 5 227 79 15 12 44 55 65 97 l38 77 7 455 c3 251 6 482 7 513 2 87 24 108 130 119 46 4 89 13 95 19 15 15 14 126 -2 142 -9 9 -40 12 -104 10 -57 -2 -95 2 -104 9 -11 9 -14 45 -14 158 0 184 -5 195 -81 199 -43 2 -59 -1 -70 -14z"
       id="path18"
       style="fill:#66cdaa" />
    <path
       d="M572 7153 c-47 -23 -126 -114 -158 -180 -54 -116 -40 -254 35 -333 21 -22 47 -40 59 -40 30 0 28 11 -8 45 -93 89 -35 281 122 399 21 15 42 25 49 20 22 -14 -6 -228 -67 -501 l-16 -73 -38 0 c-20 0 -58 11 -84 25 -35 19 -46 21 -46 10 0 -22 59 -84 102 -106 21 -11 38 -26 38 -33 0 -8 -23 -93 -50 -190 -28 -97 -50 -185 -50 -196 0 -28 53 -85 73 -77 18 7 47 92 102 304 38 142 38 143 69 147 76 12 196 17 196 8 0 -5 -16 -78 -35 -161 -20 -84 -33 -161 -30 -171 11 -35 46 -70 71 -70 13 0 24 2 24 4 0 6 90 397 96 418 4 13 75 38 109 38 12 0 2 -22 -30 -70 -70 -104 -74 -199 -12 -267 32 -36 70 -30 122 18 l44 41 13 -27 c6 -14 25 -33 40 -41 25 -13 32 -13 57 0 16 9 43 34 61 56 17 22 36 40 41 40 5 0 18 -20 30 -45 12 -25 30 -50 41 -56 49 -26 131 29 200 136 44 68 83 183 74 220 -7 29 -53 62 -66 49 -5 -5 -16 -45 -25 -89 -24 -118 -87 -245 -121 -245 -18 0 -19 100 -3 183 10 48 9 60 -5 82 -37 56 -97 13 -111 -79 -3 -23 -8 -52 -11 -66 -5 -27 -81 -116 -91 -106 -3 3 4 28 16 55 26 62 26 83 1 106 -32 29 -61 12 -138 -85 -94 -116 -134 -122 -78 -11 49 96 117 154 177 149 48 -4 50 24 4 68 -30 28 -44 34 -81 34 -25 0 -58 -7 -75 -15 -36 -19 -45 -15 -53 27 -8 41 -33 68 -63 68 -30 0 -30 5 12 194 20 86 38 183 41 214 6 53 4 60 -21 90 -15 18 -31 32 -36 32 -18 0 -36 -61 -93 -310 -32 -135 -62 -250 -69 -256 -16 -16 -207 -48 -217 -38 -4 5 3 63 16 129 31 158 48 316 39 373 -19 138 -99 202 -193 155z"
       id="path20"
       style="fill:#6495ed" />
    <path
       d="M1965 6451 c-40 -24 -108 -101 -131 -149 -11 -21 -19 -59 -19 -89 0 -59 22 -96 74 -127 64 -37 128 3 294 187 38 43 67 80 64 84 -4 3 -46 -32 -94 -77 -110 -103 -164 -141 -212 -147 -57 -8 -68 13 -41 75 12 28 33 60 46 73 l24 22 0 -21 c0 -18 6 -22 32 -22 41 0 94 36 114 78 43 90 -62 168 -151 113z m83 -93 c-6 -18 -57 -53 -65 -45 -9 9 37 57 55 57 7 0 12 -5 10 -12z"
       id="path22"
       style="fill:#6495ed" />
    <path
       d="M6310 7703 c0 -5 24 -19 53 -33 64 -31 81 -60 66 -114 -16 -57 -5 -80 76 -167 42 -44 83 -97 92 -117 l16 -37 8 48 c30 188 -132 427 -290 427 -11 0 -21 -3 -21 -7z"
       id="path24"
       style="fill:#ff1493" />
    <path
       d="M6207 7693 c-18 -17 -1 -50 58 -113 70 -74 90 -117 28 -59 -21 19 -55 48 -76 63 -30 22 -38 24 -43 12 -8 -22 12 -54 81 -126 35 -36 79 -92 100 -125 76 -122 79 -125 108 -125 25 0 27 3 21 28 -4 15 -11 33 -17 40 -5 7 -7 16 -2 20 4 4 29 -17 56 -47 28 -29 52 -52 54 -49 13 12 -42 93 -104 153 -92 88 -103 109 -99 188 l3 62 -52 25 c-28 14 -60 33 -71 43 -20 18 -34 21 -45 10z"
       id="path26"
       style="fill:#ff1493" />
    <path
       d="M6672 7508 c-5 -7 -12 -69 -15 -138 -4 -94 -10 -140 -27 -185 -12 -33 -23 -80 -24 -105 -2 -25 -5 -52 -7 -60 -3 -11 3 -14 24 -13 15 1 25 -2 22 -8 -4 -5 -13 -9 -21 -9 -8 0 -14 -4 -14 -10 0 -5 5 -10 10 -10 6 0 10 -4 10 -10 0 -5 -7 -10 -15 -10 -20 0 -19 -26 1 -34 49 -19 129 6 182 56 43 42 41 58 -5 59 -31 0 -34 2 -18 9 11 5 32 11 47 14 49 11 51 78 3 96 -31 12 -31 18 0 30 30 11 32 30 7 60 -26 32 -60 21 -95 -30 -41 -58 -53 -49 -18 13 17 31 42 58 60 67 37 19 48 55 25 81 -21 23 -32 24 -56 2 -22 -19 -24 -5 -3 23 22 29 19 77 -8 102 -26 25 -50 28 -65 10z"
       id="path28"
       style="fill:#ff1493" />
    <path
       d="M6067 7494 c-15 -15 -6 -49 20 -76 30 -31 16 -38 -31 -16 -21 9 -33 8 -67 -7 -22 -10 -45 -28 -51 -39 -9 -16 -5 -24 23 -48 19 -16 58 -41 88 -55 55 -28 55 -43 -1 -24 -43 15 -48 14 -48 -10 0 -12 14 -34 32 -51 22 -20 28 -32 20 -37 -13 -8 11 -33 60 -64 25 -15 138 -50 144 -44 8 8 15 77 7 77 -5 0 -10 14 -10 30 0 24 4 29 16 24 9 -3 22 -8 30 -11 10 -5 12 0 6 15 -4 16 -2 22 9 22 9 0 13 6 10 14 -4 11 4 13 40 9 25 -3 46 -3 46 0 0 3 -29 51 -64 105 -88 136 -125 164 -242 188 -16 3 -32 2 -37 -2z"
       id="path30"
       style="fill:#ff1493" />
    <path
       d="M6460 7137 c0 -32 86 -79 102 -55 12 21 10 25 -26 47 -38 24 -76 28 -76 8z"
       id="path32"
       style="fill:#ffff00" />
    <path
       d="M6372 7133 c-18 -7 15 -43 40 -43 23 0 23 12 0 33 -20 18 -20 18 -40 10z"
       id="path34"
       style="fill:#ffff00" />
    <path
       d="M6305 7080 c-3 -5 1 -10 9 -10 8 0 18 5 21 10 3 6 -1 10 -9 10 -8 0 -18 -4 -21 -10z"
       id="path36" />
    <path
       d="M5993 7034 c-35 -27 -41 -51 -20 -73 10 -10 4 -11 -33 -7 -51 7 -83 -5 -112 -45 -17 -23 -18 -29 -7 -48 17 -26 23 -26 57 -2 31 22 92 37 92 23 0 -5 -12 -13 -26 -16 -27 -7 -74 -48 -74 -66 0 -5 18 -10 39 -10 22 0 46 -3 55 -6 31 -12 15 -24 -31 -24 -55 0 -96 -18 -101 -43 -6 -29 49 -75 99 -82 40 -6 106 3 155 22 17 6 17 5 6 -10 -8 -9 -37 -24 -65 -33 l-51 -17 28 -23 c48 -42 117 -24 218 58 30 23 68 52 83 64 29 20 29 21 12 47 -14 21 -23 26 -41 21 -13 -3 -27 -1 -31 5 -3 6 -17 8 -31 5 -32 -8 -32 13 0 26 42 16 40 30 -3 30 -50 0 -54 15 -6 24 42 8 53 23 29 41 -11 8 -14 15 -9 15 27 1 35 16 24 48 -8 23 -19 32 -42 38 -18 3 -61 19 -96 35 -35 16 -69 29 -75 29 -6 0 -26 -12 -43 -26z"
       id="path38"
       style="fill:#ff1493" />
    <path
       d="M6335 7036 c-22 -16 -14 -46 13 -46 26 0 30 6 24 35 -5 29 -11 30 -37 11z"
       id="path40"
       style="fill:#ffff00" />
    <path
       d="M6415 7030 c-10 -16 14 -40 40 -40 21 0 41 31 27 44 -9 10 -61 6 -67 -4z"
       id="path42"
       style="fill:#ffff00" />
    <path
       d="M6530 7009 c0 -24 23 -21 28 4 2 10 -3 17 -12 17 -10 0 -16 -9 -16 -21z"
       id="path44" />
    <path
       d="M6282 6969 c2 -7 10 -15 17 -17 8 -3 12 1 9 9 -2 7 -10 15 -17 17 -8 3 -12 -1 -9 -9z"
       id="path46" />
    <path
       d="M6436 6929 c-27 -21 -36 -59 -13 -59 7 0 33 18 57 40 l44 40 -31 0 c-16 0 -42 -9 -57 -21z"
       id="path48"
       style="fill:#ffff00" />
    <path
       d="M6354 6930 c-31 -12 -36 -26 -18 -41 14 -11 19 -9 35 11 30 39 25 47 -17 30z"
       id="path50"
       style="fill:#ff8c00" />
    <path
       d="M6527 6903 c-4 -3 -7 -11 -7 -17 0 -6 5 -5 12 2 6 6 9 14 7 17 -3 3 -9 2 -12 -2z"
       id="path52" />
    <path
       d="M6570 6868 c0 -18 9 -48 20 -66 22 -35 18 -61 -5 -42 -11 9 -17 5 -30 -19 -8 -17 -22 -31 -30 -31 -20 0 -20 -64 0 -120 21 -61 19 -105 -11 -188 -20 -54 -24 -76 -16 -84 19 -19 62 10 62 41 1 30 23 117 32 126 13 14 18 -36 8 -76 -14 -50 3 -76 39 -64 60 19 65 112 10 181 -49 62 -34 75 21 17 27 -29 51 -53 54 -53 3 0 17 17 31 37 35 52 33 79 -8 103 -35 21 -83 78 -73 88 4 3 19 -7 34 -21 33 -32 43 -33 65 -9 22 24 21 39 0 46 -10 3 -31 17 -48 31 l-30 25 37 -6 c30 -5 38 -2 47 14 6 11 8 28 5 36 -7 18 -63 36 -114 36 -19 1 -46 7 -60 15 -36 21 -40 19 -40 -17z"
       id="path54"
       style="fill:#ff1493" />
    <path
       d="M6290 6860 c0 -14 7 -20 22 -20 20 0 21 1 3 20 -10 11 -20 20 -22 20 -1 0 -3 -9 -3 -20z"
       id="path56" />
    <path
       d="M6350 6820 c-24 -24 -18 -40 14 -40 28 0 50 24 42 45 -8 21 -32 19 -56 -5z"
       id="path58"
       style="fill:#ffff00" />
    <path
       d="M6446 6818 c-23 -32 -20 -48 9 -48 26 0 62 41 50 60 -11 17 -43 11 -59 -12z"
       id="path60"
       style="fill:#ffff00" />
    <path
       d="M6420 6725 c0 -9 5 -15 11 -13 6 2 11 8 11 13 0 5 -5 11 -11 13 -6 2 -11 -4 -11 -13z"
       id="path62" />
    <path
       d="M6284 6637 c-73 -62 -114 -109 -114 -130 0 -11 12 -17 43 -19 l42 -3 -40 -21 c-24 -12 -55 -43 -77 -75 -38 -54 -45 -82 -28 -109 7 -12 12 -12 29 4 27 25 26 18 -4 -42 -28 -56 -32 -104 -10 -122 21 -17 40 0 75 70 29 57 73 108 56 65 -17 -43 -27 -87 -21 -93 10 -10 75 65 75 85 3 157 5 170 31 209 16 23 43 47 66 58 43 19 78 67 69 93 -6 14 -10 13 -33 -8 -17 -16 -27 -20 -30 -12 -2 7 -12 9 -21 6 -15 -6 -14 -3 2 15 20 23 17 25 -24 23 l-25 -2 28 22 c15 11 27 25 27 30 0 5 -12 9 -27 9 -19 0 -48 -17 -89 -53z"
       id="path64"
       style="fill:#ff1493" />
    <path
       d="M6447 6480 c-73 -38 -90 -67 -97 -171 -6 -80 -10 -93 -39 -129 -41 -51 -30 -51 25 0 24 22 48 40 54 40 19 0 116 243 108 273 -2 8 -18 4 -51 -13z"
       id="path66"
       style="fill:#ff1493" />
    <path
       d="M4891 7591 c-12 -12 -22 -24 -22 -28 -4 -29 -5 -1116 -1 -1186 3 -57 10 -94 19 -103 21 -20 96 -18 123 4 23 19 23 22 25 276 2 313 -5 297 133 301 100 4 144 -13 162 -61 6 -14 10 -132 10 -263 0 -195 3 -241 14 -250 24 -20 118 -25 140 -8 18 13 19 30 17 338 -1 178 -4 437 -7 574 -2 138 -4 274 -4 303 0 46 -4 58 -29 83 -37 36 -88 40 -117 8 -18 -20 -19 -39 -19 -258 0 -130 -4 -246 -8 -259 -13 -35 -36 -41 -147 -35 -91 5 -107 9 -127 30 -21 20 -24 32 -22 90 4 134 -13 432 -25 442 -7 6 -30 13 -53 17 -34 5 -45 2 -62 -15z"
       id="path68"
       style="fill:#66cdaa" />
    <path
       d="M7797 8468 c17 -17 58 -45 90 -62 75 -40 107 -86 98 -141 -14 -96 -17 -125 -10 -125 4 0 42 26 84 59 106 81 109 81 183 28 21 -14 30 -15 57 -6 24 8 39 9 56 1 33 -15 58 -67 51 -104 -4 -21 0 -37 16 -59 21 -29 32 -107 30 -226 -1 -71 -65 -163 -114 -163 -7 0 -19 -4 -27 -9 -12 -7 -5 -19 30 -59 35 -38 48 -64 62 -119 10 -39 15 -82 12 -96 -4 -16 1 -40 15 -67 18 -35 20 -47 11 -67 -6 -13 -11 -44 -11 -68 0 -35 -5 -48 -26 -64 -32 -25 -49 -26 -119 -6 -38 11 -59 13 -79 6 -31 -13 -32 -21 -6 -96 26 -75 55 -234 75 -410 20 -169 45 -275 84 -358 32 -66 117 -187 132 -187 5 0 9 500 9 1215 l0 1215 -367 0 -368 0 32 -32z"
       id="path70"
       style="fill:#b0c4de" />
    <path
       d="M7627 8443 c-19 -21 -27 -40 -29 -78 l-3 -50 -18 33 c-10 18 -23 30 -28 26 -17 -10 -1 -66 28 -96 35 -36 24 -46 -15 -13 -16 14 -34 25 -39 25 -19 0 -36 -49 -30 -85 7 -41 -10 -44 -29 -7 -15 30 -24 17 -24 -34 0 -84 152 -335 179 -295 6 9 4 30 -5 60 -24 81 -13 127 15 59 13 -34 15 -33 25 15 9 41 24 33 28 -15 l3 -43 22 40 c31 55 52 80 60 72 3 -4 -2 -24 -12 -45 -25 -52 -45 -121 -37 -126 4 -3 20 15 36 40 15 24 32 44 37 44 13 0 12 -6 -11 -50 -26 -50 -25 -67 2 -81 18 -10 24 -8 35 7 7 10 13 23 13 30 0 6 7 18 17 25 15 13 15 10 9 -35 -9 -59 5 -55 34 9 36 79 53 163 46 229 -9 78 -9 90 0 154 6 46 4 56 -16 77 -12 12 -30 25 -41 28 -16 4 -19 0 -19 -35 0 -35 -2 -39 -15 -28 -8 7 -15 25 -15 40 0 25 -33 80 -48 80 -4 0 -7 -37 -7 -82 0 -49 -4 -83 -11 -85 -7 -2 -11 17 -11 54 0 57 -17 108 -51 146 -21 24 -44 21 -75 -10z"
       id="path72"
       style="fill:#ff00ff" />
    <path
       d="M8122 8192 c-11 -15 -24 -40 -27 -55 -9 -36 -25 -44 -32 -18 -3 12 -9 21 -13 21 -22 0 -59 -66 -80 -141 -12 -46 -36 -112 -52 -147 -26 -56 -29 -82 -10 -82 4 0 16 14 25 30 24 40 41 39 32 -2 -6 -28 -5 -30 11 -23 11 4 28 9 39 12 17 4 17 2 -5 -19 -14 -13 -37 -30 -50 -39 -31 -21 -19 -36 15 -21 29 13 75 16 75 5 0 -5 -27 -21 -60 -36 -33 -15 -58 -32 -56 -36 3 -4 56 2 118 15 62 13 135 23 162 24 52 0 122 17 145 34 42 32 67 156 35 174 -14 8 -14 12 -3 30 17 27 7 37 -21 22 -39 -21 -44 -4 -7 24 40 30 47 56 21 77 -13 10 -20 10 -44 -4 -15 -9 -31 -17 -34 -17 -3 0 7 24 24 53 35 62 38 92 11 106 -23 13 -99 -33 -120 -72 -8 -15 -18 -27 -23 -27 -13 0 -10 12 12 48 24 40 25 42 2 42 -13 0 -18 7 -18 23 1 36 -46 36 -72 -1z"
       id="path74"
       style="fill:#ff00ff" />
    <path
       d="M7276 8151 c-4 -6 0 -24 9 -40 27 -52 16 -55 -28 -7 -30 32 -51 46 -70 46 -39 0 -43 -18 -10 -53 35 -37 63 -78 63 -90 0 -5 -25 12 -55 38 -35 30 -61 45 -71 41 -13 -5 -5 -18 35 -62 62 -68 60 -84 -3 -26 -45 41 -86 60 -105 47 -26 -16 -2 -102 44 -157 28 -34 26 -51 -3 -25 -47 43 -57 -5 -14 -67 34 -49 136 -126 168 -126 13 0 65 -9 115 -20 88 -20 129 -19 129 1 0 27 -25 50 -65 60 -58 15 -67 29 -19 29 l38 0 -34 35 c-38 39 -31 45 19 14 45 -27 52 -16 13 24 -44 45 -41 65 5 30 l37 -28 -23 38 c-30 50 -20 57 24 18 20 -17 41 -31 48 -31 7 0 23 -9 37 -20 54 -43 56 -6 2 48 -47 47 -87 105 -133 190 -18 34 -41 70 -50 78 -22 20 -94 30 -103 15z"
       id="path76"
       style="fill:#ff00ff" />
    <path
       d="M7652 7848 c-14 -14 -16 -58 -3 -58 27 0 41 15 41 41 0 30 -17 38 -38 17z"
       id="path78"
       style="fill:#ffff00" />
    <path
       d="M7736 7782 c-13 -25 -13 -32 -2 -47 13 -18 14 -18 25 3 14 25 14 59 1 67 -5 3 -16 -7 -24 -23z"
       id="path80"
       style="fill:#ffff00" />
    <path
       d="M7532 7753 c4 -23 56 -49 70 -35 7 7 0 17 -23 31 -42 26 -51 26 -47 4z"
       id="path82"
       style="fill:#ffff00" />
    <path
       d="M7830 7755 c-16 -19 -3 -40 16 -24 15 13 19 39 5 39 -5 0 -14 -7 -21 -15z"
       id="path84"
       style="fill:#ff8c00" />
    <path
       d="M7667 7743 c-8 -14 12 -53 28 -53 18 0 19 19 1 43 -14 18 -22 21 -29 10z"
       id="path86"
       style="fill:#ff8c00" />
    <path
       d="M7862 7689 c-7 -12 -11 -24 -7 -27 9 -9 40 13 43 32 5 23 -21 20 -36 -5z"
       id="path88"
       style="fill:#ff8c00" />
    <path
       d="M7766 7678 c-19 -27 -20 -38 -5 -38 14 0 38 30 39 48 0 19 -17 14 -34 -10z"
       id="path90"
       style="fill:#ff8c00" />
    <path
       d="M7512 7673 c5 -25 28 -28 28 -4 0 12 -6 21 -16 21 -9 0 -14 -7 -12 -17z"
       id="path92" />
    <path
       d="M7603 7670 c-13 -5 -23 -14 -23 -19 0 -12 47 -23 71 -16 24 8 24 21 0 35 -22 11 -19 11 -48 0z"
       id="path94"
       style="fill:#ffff00" />
    <path
       d="M7200 7619 c-14 -5 -38 -29 -54 -53 -16 -24 -42 -51 -58 -60 -15 -10 -28 -21 -28 -25 0 -10 49 -21 94 -21 29 -1 30 -1 12 -15 -11 -8 -40 -15 -64 -15 -30 0 -42 -4 -39 -12 4 -14 47 -16 116 -6 36 5 40 4 25 -6 -27 -18 -96 -36 -137 -36 -38 0 -97 -45 -97 -74 0 -22 39 -55 81 -67 38 -12 64 -3 166 57 17 10 35 15 39 12 11 -12 -16 -38 -73 -70 -29 -16 -53 -33 -53 -36 1 -15 47 -61 80 -81 55 -33 104 -26 158 22 16 15 22 32 22 64 0 62 18 90 109 172 45 40 79 77 76 81 -7 12 -74 -6 -96 -26 -16 -14 -22 -15 -28 -5 -7 11 -12 11 -29 0 -41 -25 -37 3 6 41 23 21 42 41 42 45 0 4 -27 4 -60 0 -64 -7 -77 -1 -32 16 l27 11 -30 13 c-30 13 -30 13 -5 16 34 3 61 6 83 8 45 3 7 19 -95 39 -125 25 -123 24 -158 11z"
       id="path96"
       style="fill:#ff00ff" />
    <path
       d="M8033 7612 c-105 -25 -107 -34 -10 -47 64 -9 59 -25 -8 -25 -30 0 -55 -4 -55 -8 0 -5 32 -24 72 -43 39 -19 74 -40 76 -48 3 -9 -16 -3 -51 17 -70 40 -101 43 -69 9 27 -29 28 -40 2 -32 -23 7 -25 -1 -10 -42 9 -24 5 -22 -28 16 -26 30 -41 41 -46 33 -4 -7 -16 -12 -27 -12 -83 0 62 -189 198 -256 65 -32 118 -30 117 4 -1 27 -2 27 44 3 49 -25 110 -41 128 -34 8 3 14 14 14 24 0 17 -20 39 -105 114 l-30 26 30 -6 c17 -3 47 -20 68 -36 41 -33 57 -31 57 7 0 25 -34 66 -75 91 -18 11 -17 12 13 12 44 1 42 26 -5 54 l-38 22 32 5 c26 4 31 8 23 20 -5 8 -10 26 -10 41 0 26 -45 76 -87 98 -31 16 -135 12 -220 -7z"
       id="path98"
       style="fill:#ff00ff" />
    <path
       d="M7820 7611 c-18 -12 -5 -27 30 -35 30 -7 60 8 45 23 -16 15 -59 22 -75 12z"
       id="path100"
       style="fill:#ffff00" />
    <path
       d="M7690 7596 c0 -21 50 -50 63 -37 7 7 5 16 -8 31 -21 23 -55 27 -55 6z"
       id="path102"
       style="fill:#ffff00" />
    <path
       d="M7512 7588 c3 -7 15 -15 27 -16 16 -3 22 1 19 10 -3 7 -15 15 -27 16 -16 3 -22 -1 -19 -10z"
       id="path104" />
    <path
       d="M7590 7585 c0 -9 9 -15 24 -15 30 0 42 15 20 24 -27 10 -44 7 -44 -9z"
       id="path106"
       style="fill:#ffff00" />
    <path
       d="M7640 7525 c0 -10 10 -15 30 -15 32 0 40 14 14 24 -27 10 -44 7 -44 -9z"
       id="path108"
       style="fill:#ff8c00" />
    <path
       d="M7802 7519 c4 -31 54 -67 70 -51 16 16 -20 66 -51 70 -18 3 -22 -1 -19 -19z"
       id="path110"
       style="fill:#ffff00" />
    <path
       d="M7515 7520 c-12 -19 7 -30 51 -30 42 0 44 1 34 20 -12 22 -73 29 -85 10z"
       id="path112"
       style="fill:#ffff00" />
    <path
       d="M7721 7468 c-5 -13 -6 -29 -4 -36 8 -18 30 3 36 33 6 32 -20 34 -32 3z"
       id="path114"
       style="fill:#ff8c00" />
    <path
       d="M7633 7463 c-7 -2 -13 -9 -13 -15 0 -12 41 -6 41 7 1 12 -11 15 -28 8z"
       id="path116" />
    <path
       d="M7780 7430 c0 -11 7 -23 15 -27 21 -8 28 1 20 26 -8 27 -35 27 -35 1z"
       id="path118" />
    <path
       d="M7506 7326 l-79 -73 6 -59 c18 -182 78 -313 89 -195 4 46 28 54 28 9 0 -37 38 -126 63 -146 41 -35 70 4 88 116 6 39 15 72 20 72 5 0 9 -27 9 -60 0 -33 4 -60 8 -60 12 0 32 46 32 73 0 18 2 19 10 7 5 -8 10 -30 10 -47 0 -76 68 -10 101 99 26 86 22 140 -20 232 -24 54 -34 66 -53 66 -13 0 -29 5 -36 12 -23 23 -25 -3 -5 -52 22 -52 15 -64 -19 -33 -17 15 -18 15 -18 -13 0 -16 -4 -35 -9 -42 -9 -14 -21 38 -21 91 0 42 -12 32 -45 -35 -17 -34 -36 -63 -43 -66 -19 -6 -14 34 8 70 11 18 20 42 20 53 -1 17 -5 16 -30 -12 -42 -47 -56 -41 -26 11 31 53 31 56 8 56 -9 0 -53 -33 -96 -74z"
       id="path120"
       style="fill:#ff00ff" />
    <path
       d="M7515 6464 c-33 -17 -75 -53 -75 -64 0 -4 19 -10 42 -14 23 -4 71 -21 106 -37 35 -17 66 -29 68 -26 3 2 -4 20 -15 38 -10 19 -25 53 -32 77 -10 35 -16 42 -38 42 -14 0 -39 -7 -56 -16z"
       id="path122"
       style="fill:#32cd32" />
    <path
       d="M7623 6464 c-10 -27 62 -156 126 -225 63 -69 68 -72 191 -95 l35 -6 -51 53 c-28 30 -68 83 -89 118 -49 83 -104 135 -161 155 -40 13 -46 13 -51 0z"
       id="path124"
       style="fill:#32cd32" />
    <path
       d="M7335 6370 c-115 -24 -186 -58 -237 -113 -35 -37 -38 -62 -5 -50 12 4 92 7 177 6 147 -1 154 0 130 15 -14 10 -38 30 -55 45 l-30 29 45 -29 c91 -58 161 -78 300 -88 l95 -7 -35 37 c-42 44 -136 110 -194 136 -51 22 -136 31 -191 19z"
       id="path126"
       style="fill:#008000" />
    <path
       d="M7093 6194 c-30 -7 -44 -26 -46 -66 -3 -31 -15 -56 -58 -120 -25 -36 -24 -46 6 -40 18 3 25 0 25 -12 0 -9 12 -21 27 -27 24 -9 30 -6 65 32 21 23 38 45 36 50 -2 4 -27 -4 -57 -17 -29 -14 -56 -23 -59 -20 -3 3 4 9 14 13 38 14 134 74 134 83 0 6 -24 11 -52 12 l-53 1 65 7 c36 4 81 12 100 18 52 15 130 52 130 61 0 15 -230 35 -277 25z"
       id="path128"
       style="fill:#32cd32" />
    <path
       d="M7460 6149 c-96 -14 -173 -48 -266 -119 -11 -8 -40 -41 -64 -73 -40 -53 -42 -60 -30 -82 7 -14 21 -27 30 -30 34 -11 112 36 218 130 71 64 131 108 180 132 39 20 72 40 72 45 0 10 -64 9 -140 -3z"
       id="path130"
       style="fill:#008000" />
    <path
       d="M7715 6129 c-99 -9 -193 -50 -271 -117 -95 -82 -210 -164 -236 -169 -16 -3 -31 -10 -34 -14 -21 -35 131 -12 158 24 l18 22 0 -23 c0 -22 10 -28 66 -46 18 -5 26 1 47 37 65 111 237 226 382 257 50 11 56 14 35 20 -49 13 -96 16 -165 9z"
       id="path132"
       style="fill:#008000" />
    <path
       d="M3536 6041 c-95 -154 -202 -280 -529 -620 -103 -106 -187 -197 -187 -200 0 -4 17 -29 38 -57 97 -129 162 -309 162 -451 0 -80 3 -83 75 -83 35 0 66 4 69 9 3 4 8 112 12 240 8 250 13 276 64 313 17 12 50 21 95 24 59 5 75 2 102 -15 72 -46 68 -2 65 -721 -3 -739 4 -912 36 -958 46 -64 129 -45 178 41 36 64 72 83 176 92 77 7 77 7 109 -24 31 -32 32 -33 25 -102 -3 -38 -5 -69 -4 -69 3 0 198 -33 323 -55 44 -7 170 -29 280 -49 110 -20 214 -38 232 -41 30 -5 32 -3 57 52 15 31 43 76 63 101 l36 44 -52 160 c-44 133 -51 166 -46 201 13 71 43 127 101 182 l55 54 0 217 c0 119 -2 219 -5 221 -2 2 -22 -25 -44 -60 -44 -70 -83 -107 -145 -138 -51 -26 -124 -49 -159 -49 l-28 0 0 -235 c0 -248 -5 -280 -47 -318 -30 -26 -144 -43 -183 -27 -49 20 -87 72 -94 127 -4 26 -7 320 -8 653 -2 672 -5 642 64 692 31 22 42 23 188 23 137 0 161 -3 210 -22 72 -29 167 -106 205 -165 17 -26 33 -47 38 -47 4 -1 7 26 7 59 0 72 17 109 67 147 l36 28 221 2 c292 3 311 0 358 -47 38 -37 38 -39 38 -117 0 -136 -41 -163 -256 -165 -112 -1 -134 -4 -139 -17 -4 -9 -3 -64 1 -123 l7 -108 28 0 c82 0 443 -22 503 -31 38 -5 70 -8 72 -7 1 2 -13 48 -32 103 -31 94 -33 105 -25 173 5 40 17 84 26 98 24 37 72 62 134 70 47 6 69 2 136 -21 94 -33 144 -57 203 -97 l43 -29 29 24 c43 37 81 41 168 21 75 -18 105 -31 487 -229 263 -135 376 -234 635 -558 149 -186 232 -258 341 -296 61 -21 171 -32 261 -25 l88 7 0 762 0 763 -47 10 c-27 6 -100 20 -163 32 -63 12 -135 25 -160 30 -25 5 -97 19 -160 30 -63 12 -135 25 -160 30 -25 5 -74 14 -110 20 -36 6 -85 15 -110 20 -69 14 -240 41 -285 46 -22 2 -71 9 -110 14 -132 19 -590 60 -725 65 -132 5 -325 20 -365 29 -11 3 -47 9 -80 15 -33 6 -105 20 -160 30 -226 44 -319 57 -733 101 -269 28 -445 49 -587 69 -33 5 -63 7 -67 4 -4 -2 -15 1 -25 6 -10 5 -52 15 -93 21 -85 13 -114 18 -330 61 -146 29 -390 82 -436 95 -17 4 -27 -5 -58 -55z m561 -863 c65 -31 136 -94 179 -158 50 -75 56 -129 57 -569 l2 -406 -34 -85 c-41 -100 -87 -149 -188 -200 -64 -33 -74 -35 -169 -35 -96 0 -103 2 -177 38 -106 52 -176 123 -202 202 -22 69 -30 243 -30 675 l0 265 33 68 c64 130 186 222 315 238 87 10 140 2 214 -33z"
       id="path134"
       style="fill:#bdb76b" />
    <path
       d="M3792 5099 c-69 -34 -120 -88 -159 -167 l-26 -53 7 -426 c8 -472 9 -476 75 -546 20 -21 69 -55 110 -75 95 -47 175 -50 262 -10 87 40 131 86 164 170 l29 73 -2 380 c-2 362 -9 460 -35 510 -27 52 -91 115 -148 144 -53 27 -71 31 -138 31 -67 0 -87 -4 -139 -31z m231 -169 c59 -51 62 -79 60 -491 -1 -410 0 -404 -72 -453 -35 -24 -48 -28 -87 -23 -50 5 -85 27 -118 71 -20 27 -21 41 -23 409 -1 224 2 398 8 420 14 53 83 97 151 97 38 0 54 -6 81 -30z"
       id="path136"
       style="fill:#32cd32" />
    <path
       d="M3886 4862 c-14 -17 -16 -60 -18 -388 -1 -203 1 -379 5 -390 4 -12 22 -28 39 -35 26 -10 35 -10 57 2 26 15 26 16 34 174 10 224 4 604 -12 633 -15 29 -80 31 -105 4z"
       id="path138"
       style="fill:#bdb76b" />
    <path
       d="M7845 6064 c-137 -27 -289 -121 -360 -224 -34 -50 -27 -61 44 -68 48 -4 51 -3 51 19 0 13 5 31 10 39 7 11 10 7 10 -18 0 -42 19 -49 75 -27 32 12 61 35 98 78 117 137 161 174 228 195 l64 20 -75 0 c-41 0 -106 -6 -145 -14z"
       id="path140"
       style="fill:#32cd32" />
    <path
       d="M502 5588 c-18 -50 -26 -74 -52 -173 -6 -22 -14 -101 -17 -176 -7 -165 2 -194 72 -223 25 -10 52 -16 60 -13 64 25 88 257 44 434 -23 94 -62 196 -77 201 -5 1 -18 -21 -30 -50z m46 -181 c2 -10 -3 -17 -12 -17 -10 0 -16 9 -16 21 0 24 23 21 28 -4z"
       id="path142"
       style="fill:#ff8c00" />
    <path
       d="M2028 5414 c-80 -24 -190 -95 -264 -168 -56 -57 -82 -93 -127 -183 l-57 -111 0 -94 c0 -102 17 -182 56 -267 37 -81 159 -198 259 -247 75 -37 84 -39 192 -43 66 -2 118 1 126 7 6 5 46 24 88 41 42 17 87 44 102 59 63 66 124 257 114 357 -7 68 -55 162 -107 209 -51 46 -126 82 -205 98 -53 10 -59 10 -71 -7 -17 -24 -18 -116 -1 -137 6 -8 37 -25 68 -37 67 -26 90 -49 118 -114 27 -62 27 -125 0 -182 -22 -47 -45 -68 -116 -104 -78 -39 -178 -19 -300 60 -84 55 -109 86 -134 170 -24 79 -22 120 14 234 19 60 31 79 87 136 81 81 138 115 226 134 154 33 270 10 400 -78 159 -107 210 -168 244 -289 37 -131 54 -640 29 -882 -12 -121 -5 -156 37 -175 35 -16 86 -14 112 5 22 15 22 18 22 268 0 309 -11 288 153 294 89 3 116 1 132 -11 19 -15 20 -27 20 -439 l0 -423 28 -53 c38 -73 101 -138 162 -170 66 -34 207 -43 283 -18 116 39 187 116 217 235 22 83 17 95 -38 86 -91 -13 -97 -16 -113 -48 -24 -48 -83 -105 -122 -118 -20 -6 -53 -8 -80 -4 -107 16 -147 87 -156 275 -5 104 -8 747 -4 965 1 33 0 98 -2 145 -2 47 -2 136 0 198 4 136 -2 147 -81 146 -82 -1 -80 5 -87 -288 -3 -171 -9 -262 -17 -272 -25 -34 -245 -38 -278 -5 -6 6 -14 54 -18 108 -10 146 -27 219 -72 311 -98 198 -276 356 -470 417 -66 21 -97 25 -200 24 -76 0 -140 -6 -169 -15z"
       id="path144"
       style="fill:#32cd32" />
    <path
       d="M657 5373 c-12 -11 -7 -67 7 -95 9 -16 11 -30 5 -33 -12 -8 -11 -66 1 -85 5 -8 5 -19 1 -25 -5 -5 -12 -26 -16 -45 -12 -62 -16 -69 -49 -90 -38 -23 -99 -26 -134 -7 -26 15 -52 59 -52 88 0 11 -6 22 -12 24 -14 6 -14 104 1 190 10 58 8 65 -24 65 -41 0 -228 -41 -307 -67 l-78 -26 0 -328 0 -328 33 -5 c98 -16 227 -26 338 -26 528 0 927 144 1040 376 25 53 28 147 6 190 -43 82 -208 172 -372 203 -125 23 -374 39 -388 24z m493 -238 c19 -19 32 -35 29 -35 -3 0 -20 16 -39 35 -19 19 -32 35 -29 35 3 0 20 -16 39 -35z m-184 -55 c24 -17 44 -36 44 -42 0 -5 -15 3 -33 18 -19 16 -42 34 -53 41 -10 6 -15 12 -11 12 5 1 28 -13 53 -29z m214 -124 c0 -2 -8 -10 -17 -17 -16 -13 -17 -12 -4 4 13 16 21 21 21 13z m-983 -102 c-3 -3 -12 -4 -19 -1 -8 3 -5 6 6 6 11 1 17 -2 13 -5z m466 -121 c-7 -2 -19 -2 -25 0 -7 3 -2 5 12 5 14 0 19 -2 13 -5z"
       id="path146"
       style="fill:#b22222" />
    <path
       d="M2210 5164 c0 -5 22 -15 49 -21 77 -18 156 -60 213 -112 51 -46 78 -55 78 -26 0 19 -124 105 -190 131 -61 25 -150 41 -150 28z"
       id="path148"
       style="fill:#b0c4de" />
    <path
       d="M2035 5123 c-48 -25 -122 -91 -145 -127 -46 -76 -62 -188 -38 -268 19 -65 152 -159 246 -174 64 -10 128 25 155 85 20 45 20 46 1 101 -19 54 -20 55 -94 86 -89 37 -108 62 -116 155 -5 55 -2 71 19 112 26 50 20 56 -28 30z"
       id="path150"
       style="fill:#b0c4de" />
    <path
       d="M4490 5131 c-23 -4 -39 -14 -46 -30 -18 -35 -14 -1247 4 -1278 16 -29 52 -38 105 -27 33 7 42 14 49 39 5 17 7 137 5 267 -4 173 -1 242 7 254 8 10 37 19 90 25 95 10 152 36 204 94 79 84 87 111 87 275 0 165 -9 202 -63 262 -84 93 -173 129 -316 127 -50 -1 -107 -4 -126 -8z m270 -193 c50 -40 70 -88 70 -164 -1 -130 -25 -179 -108 -216 -36 -16 -46 -17 -69 -6 -46 22 -53 49 -53 213 0 83 4 155 8 162 14 23 67 44 95 38 16 -2 41 -15 57 -27z"
       id="path152"
       style="fill:#32cd32" />
    <path
       d="M4684 4877 c-2 -7 -3 -65 -1 -128 4 -124 12 -137 51 -86 16 22 20 42 20 102 0 64 -3 77 -24 99 -26 29 -38 32 -46 13z"
       id="path154"
       style="fill:#bdb76b" />
    <path
       d="M5192 5129 c-48 -18 -47 -1 -43 -663 2 -342 7 -628 12 -637 17 -32 68 -39 288 -39 258 0 261 1 261 85 0 33 -5 59 -14 68 -16 16 -201 33 -235 22 -32 -10 -98 13 -120 42 -19 23 -21 39 -21 172 0 123 3 149 18 167 27 34 56 44 129 44 40 0 74 5 81 12 7 7 12 38 12 69 0 78 -16 89 -125 89 -122 0 -119 -4 -124 187 -3 158 -3 160 22 189 l25 29 141 -2 c136 -3 187 5 203 30 4 7 8 33 8 59 0 51 -17 77 -53 80 -63 5 -451 2 -465 -3z"
       id="path156"
       style="fill:#32cd32" />
    <path
       d="M6075 5005 c-37 -13 -85 -55 -85 -75 0 -22 136 -150 159 -150 4 0 28 15 52 34 24 18 62 40 84 48 21 9 41 20 42 25 5 15 -73 89 -119 112 -51 24 -78 26 -133 6z"
       id="path158"
       style="fill:#4169e1" />
    <path
       d="M2552 4963 c-7 -11 -2 -33 17 -72 23 -49 26 -69 26 -161 0 -115 -13 -165 -70 -280 -45 -89 -73 -114 -200 -176 -106 -52 -113 -53 -204 -56 -105 -3 -97 3 -115 -90 -7 -37 -6 -38 24 -38 86 0 122 -162 48 -214 -11 -8 -18 -22 -16 -32 3 -16 9 -13 43 17 49 44 80 61 125 69 l35 6 -3 51 c-8 118 88 233 194 233 48 0 110 -36 136 -78 18 -30 20 -44 15 -115 -4 -63 -2 -87 9 -102 8 -11 19 -37 25 -58 7 -28 15 -37 27 -35 24 4 30 100 31 488 1 405 -14 531 -74 622 -27 41 -58 49 -73 21z"
       id="path160"
       style="fill:#bdb76b" />
    <path
       d="M6340 4931 c5 -11 15 -23 20 -26 6 -3 10 -14 10 -24 0 -13 -17 -26 -57 -42 -31 -12 -76 -38 -100 -56 -24 -18 -54 -33 -67 -33 -14 0 -52 24 -94 60 l-72 60 0 -35 c0 -45 55 -216 79 -246 l18 -23 69 43 c38 24 94 62 124 84 63 47 190 166 190 179 0 10 -104 78 -120 78 -8 0 -8 -6 0 -19z"
       id="path162"
       style="fill:#deb887" />
    <path
       d="M1420 4911 c0 -21 -112 -129 -174 -166 -36 -22 -65 -44 -66 -49 0 -5 6 -17 14 -25 7 -9 28 -58 45 -110 36 -107 65 -153 113 -185 47 -32 98 -51 106 -40 7 8 1 200 -14 482 -3 56 -10 102 -15 102 -5 0 -9 -4 -9 -9z"
       id="path164"
       style="fill:#8b0000" />
    <path
       d="M6565 4909 c-11 -7 -72 -62 -135 -124 -63 -61 -125 -117 -137 -124 -29 -15 -29 -25 1 -39 36 -16 105 -81 122 -113 18 -36 18 -79 -1 -107 -33 -47 -166 -116 -254 -132 l-36 -7 30 -12 c63 -27 152 -35 250 -23 158 20 259 66 322 149 24 31 28 47 31 117 1 44 5 82 7 84 2 3 12 2 21 -2 14 -5 15 -18 11 -84 -2 -42 -8 -87 -12 -98 -5 -17 -2 -23 18 -28 55 -13 145 -94 223 -201 44 -59 131 -173 195 -254 244 -308 334 -451 418 -663 61 -153 231 -243 446 -236 64 2 80 0 80 -12 0 -23 -62 -31 -156 -20 -88 10 -187 35 -204 51 -5 5 -17 9 -27 9 -9 0 -34 16 -53 36 -20 20 -38 34 -41 31 -10 -9 38 -163 68 -219 17 -32 67 -101 111 -154 86 -103 116 -123 227 -151 67 -16 298 -29 363 -19 l47 7 0 616 0 616 -88 -7 c-93 -7 -204 4 -272 28 -120 41 -227 137 -390 346 -183 235 -360 395 -528 477 -42 20 -149 76 -237 124 -212 116 -369 167 -420 138z"
       id="path166"
       style="fill:#deb887" />
    <path
       d="M1095 4670 c-125 -53 -310 -100 -395 -100 -21 0 -41 -4 -45 -10 -9 -15 16 -141 30 -146 7 -3 31 4 54 15 71 37 165 54 226 41 94 -20 176 -98 211 -202 27 -82 11 -158 -57 -268 -19 -32 -20 -38 -8 -67 l14 -33 52 37 c41 28 65 37 108 41 38 3 60 10 68 22 16 23 77 60 100 60 16 0 17 11 15 121 l-3 122 -53 20 c-29 11 -74 39 -100 63 -47 42 -53 53 -112 220 -27 76 -48 88 -105 64z"
       id="path168"
       style="fill:#8b0000" />
    <path
       d="M6121 4550 c-52 -32 -103 -68 -113 -80 -34 -42 -15 -122 36 -149 59 -32 244 15 314 79 38 35 42 75 10 115 -24 31 -120 96 -140 94 -7 -1 -56 -27 -107 -59z"
       id="path170"
       style="fill:#4169e1" />
    <path
       d="M5633 4564 c16 -79 18 -115 9 -148 -6 -20 -8 -36 -6 -36 3 0 30 19 61 41 31 23 105 65 165 94 131 62 131 63 -86 72 l-148 6 5 -29z"
       id="path172"
       style="fill:#d2b48c" />
    <path
       d="M0 4411 c0 -93 3 -171 8 -173 4 -1 22 -32 39 -68 43 -86 121 -188 183 -240 l50 -42 16 38 c39 95 55 128 99 196 53 81 147 183 217 234 l46 35 -5 57 c-3 31 -12 69 -19 84 l-14 27 -158 -6 c-139 -5 -362 6 -439 23 l-23 4 0 -169z"
       id="path174"
       style="fill:#8b0000" />
    <path
       d="M5916 4504 c-144 -67 -169 -83 -322 -200 -134 -103 -154 -126 -154 -179 0 -68 6 -71 136 -79 168 -10 206 -36 217 -147 13 -119 -34 -172 -162 -186 -34 -3 -60 -9 -58 -12 1 -3 25 -51 52 -106 26 -55 60 -115 73 -133 31 -41 218 -166 237 -158 8 3 26 24 41 48 53 82 70 85 144 27 59 -47 110 -142 110 -205 0 -33 2 -35 17 -23 47 39 55 143 22 266 -30 111 -40 126 -152 240 l-101 103 3 48 c3 78 -12 130 -76 269 -8 18 -12 41 -8 50 6 16 9 15 28 -10 12 -15 28 -47 37 -70 18 -48 33 -54 145 -56 75 -1 151 13 172 31 11 9 9 16 -11 37 -13 14 -35 49 -49 76 -23 47 -30 52 -84 69 -77 24 -106 40 -154 83 -51 46 -69 81 -69 134 0 36 6 48 45 87 25 25 44 46 42 48 -1 2 -56 -22 -121 -52z"
       id="path176"
       style="fill:#deb887" />
    <path
       d="M801 4370 c-243 -88 -470 -410 -471 -668 0 -86 17 -133 68 -185 76 -78 171 -66 332 42 47 32 70 28 51 -8 -6 -11 -55 -53 -109 -92 -137 -102 -199 -157 -233 -208 -36 -55 -38 -106 -7 -146 56 -71 151 -67 256 13 71 54 172 219 233 380 18 49 35 73 70 103 58 49 79 51 79 7 0 -39 29 -91 65 -114 21 -14 30 -14 55 -4 17 7 41 26 55 41 24 29 45 38 45 19 0 -19 49 -60 72 -60 12 0 37 14 54 31 l32 31 40 -41 c40 -42 41 -42 70 -27 17 9 39 27 50 41 26 32 38 32 56 -3 19 -37 60 -57 79 -38 8 8 24 50 36 93 15 52 34 92 55 117 45 54 58 44 35 -24 -18 -57 -24 -116 -13 -145 6 -14 53 -45 69 -45 3 0 31 24 62 53 31 28 58 48 60 42 12 -36 48 -78 77 -90 71 -30 155 26 246 165 29 44 54 79 56 78 1 -2 -9 -41 -22 -88 -27 -92 -25 -119 8 -150 33 -30 62 -25 96 18 58 73 152 215 152 229 0 27 -18 11 -72 -65 -99 -137 -118 -136 -64 3 39 102 45 159 22 204 -18 34 -57 61 -89 61 -42 0 -51 23 -26 64 27 47 54 49 47 4 -10 -64 14 -79 38 -23 30 73 11 138 -46 150 -86 19 -166 -110 -114 -184 9 -13 32 -29 50 -37 19 -8 34 -20 34 -27 0 -8 -25 -64 -56 -126 -67 -133 -138 -215 -197 -226 -47 -9 -67 -1 -67 25 0 27 32 90 59 114 21 19 21 19 21 -2 0 -17 6 -22 26 -22 39 0 79 28 104 72 19 34 20 43 10 68 -26 63 -92 77 -157 33 -50 -34 -80 -70 -126 -148 -19 -33 -47 -71 -62 -85 l-27 -25 5 35 c2 19 11 61 18 92 15 68 7 101 -33 131 -28 21 -43 19 -90 -15 -27 -19 -33 -1 -18 45 15 42 16 42 75 49 73 10 111 35 108 73 -3 37 -4 38 -46 20 -46 -19 -97 -20 -97 -1 0 7 12 59 26 116 28 112 26 142 -11 166 -48 31 -62 10 -110 -166 -16 -58 -33 -111 -38 -117 -13 -17 -56 -16 -63 1 -3 7 4 52 16 100 21 90 21 96 -13 134 -46 50 -64 28 -107 -128 -13 -47 -27 -90 -32 -96 -4 -6 -32 -15 -61 -18 -59 -8 -87 -28 -87 -62 0 -29 14 -38 30 -19 13 16 85 21 94 6 3 -5 -10 -69 -29 -142 -28 -109 -40 -138 -64 -163 -17 -16 -33 -28 -36 -24 -3 3 4 25 15 49 34 76 23 119 -31 119 -21 0 -37 -13 -70 -52 -57 -70 -121 -138 -131 -138 -32 0 38 134 98 190 43 39 55 44 102 40 49 -4 33 53 -25 91 -62 41 -148 9 -219 -81 -40 -50 -132 -116 -145 -103 -5 5 0 36 11 72 34 109 20 201 -30 201 -26 0 -43 -28 -85 -137 -30 -77 -44 -99 -78 -126 -69 -55 -165 -117 -220 -142 -128 -56 -157 -43 -157 70 0 183 153 448 327 568 94 64 215 95 257 64 23 -17 31 -85 17 -143 -22 -88 24 -83 54 5 13 39 13 57 5 98 -12 56 -63 123 -111 148 -39 21 -123 18 -188 -5z m932 -467 c3 -5 -10 -65 -28 -135 -28 -109 -38 -132 -68 -162 -30 -32 -57 -46 -57 -30 0 13 71 291 80 312 7 16 18 22 39 22 16 0 32 -3 34 -7z m537 -158 c0 -17 -48 -51 -58 -41 -4 4 6 19 21 32 33 28 37 29 37 9z m-1594 -412 c-41 -79 -135 -173 -173 -173 -31 0 -8 38 71 116 86 86 131 111 102 57z"
       id="path178"
       style="fill:#32cd32" />
    <path
       d="M6694 4291 c-76 -59 -162 -88 -312 -104 l-113 -12 29 -46 c17 -25 61 -86 100 -135 113 -144 133 -197 92 -242 -28 -30 -63 -28 -150 8 -75 31 -265 74 -281 64 -25 -15 -3 -53 80 -139 110 -114 132 -148 161 -255 33 -119 31 -204 -4 -265 -30 -50 -77 -85 -114 -85 -35 0 -77 26 -143 86 -32 30 -116 92 -187 139 -70 46 -142 99 -161 118 -18 20 -61 91 -95 159 l-61 123 -71 3 -71 3 2 -43 c2 -38 8 -47 56 -87 98 -82 204 -195 229 -246 17 -35 26 -72 28 -120 4 -79 -8 -120 -52 -172 -36 -42 -72 -43 -146 -3 -30 16 -60 29 -67 30 -6 0 -15 -21 -19 -46 -4 -26 -21 -67 -40 -96 -19 -27 -34 -55 -34 -62 0 -7 17 -29 38 -49 31 -30 45 -37 78 -37 57 0 125 -37 146 -80 24 -48 23 -124 -3 -177 l-20 -42 24 -33 c13 -18 31 -54 41 -79 22 -60 115 -173 174 -210 55 -35 130 -58 307 -94 180 -38 229 -54 393 -135 154 -75 196 -90 340 -120 178 -37 243 -81 313 -213 44 -83 104 -145 218 -224 135 -95 289 -225 591 -503 249 -228 492 -440 504 -440 3 0 6 396 6 880 0 605 -3 880 -10 880 -6 0 -106 64 -222 142 -227 152 -300 216 -446 392 -99 120 -133 188 -173 346 -73 288 -183 482 -461 819 -42 51 -107 136 -145 190 -88 124 -166 207 -225 237 -26 13 -51 24 -55 23 -4 0 -35 -22 -69 -48z"
       id="path180"
       style="fill:#deb887" />
    <path
       d="M5404 4296 c-3 -7 -4 -37 -2 -67 l3 -54 68 68 67 67 -65 0 c-46 0 -67 -4 -71 -14z"
       id="path182"
       style="fill:#d2b48c" />
    <path
       d="M3027 4283 c-4 -3 -7 -112 -7 -240 0 -258 -4 -279 -61 -308 -48 -25 -118 -30 -163 -11 -32 13 -41 14 -48 4 -20 -33 -8 -44 65 -56 39 -7 132 -25 205 -38 74 -14 135 -24 137 -22 8 8 20 365 17 516 l-3 162 -68 0 c-37 0 -71 -3 -74 -7z"
       id="path184"
       style="fill:#bdb76b" />
    <path
       d="M0 3886 l0 -314 31 -7 c52 -12 233 -22 242 -14 5 4 4 16 -2 28 -19 35 -25 144 -11 215 l12 66 -74 73 c-78 75 -117 127 -163 215 -15 28 -29 52 -31 52 -2 0 -4 -141 -4 -314z"
       id="path186"
       style="fill:#8b0000" />
    <path
       d="M895 4182 c-57 -24 -103 -54 -110 -70 -7 -19 21 -82 51 -113 l25 -26 49 47 c45 44 48 51 55 113 8 77 3 80 -70 49z"
       id="path188"
       style="fill:#8b0000" />
    <path
       d="M713 4048 c-65 -69 -153 -214 -153 -253 0 -19 54 -42 122 -50 49 -6 56 -4 84 22 28 25 84 141 84 174 0 6 -14 27 -31 47 -17 20 -38 50 -45 69 -8 18 -16 33 -17 33 -2 0 -21 -19 -44 -42z"
       id="path190"
       style="fill:#8b0000" />
    <path
       d="M5023 4018 c-45 -47 -75 -111 -75 -160 0 -24 19 -102 44 -178 25 -74 53 -169 63 -210 16 -69 22 -80 74 -131 63 -61 190 -151 203 -143 4 3 8 14 8 25 0 28 26 75 46 83 24 9 110 -20 159 -52 47 -32 75 -82 75 -134 0 -27 4 -38 15 -38 25 0 47 69 43 135 -7 107 -65 189 -251 348 -65 57 -67 59 -61 96 8 48 -2 55 -75 52 -64 -2 -134 19 -170 52 -40 37 -51 78 -51 187 0 55 -4 100 -8 100 -4 0 -22 -15 -39 -32z"
       id="path192"
       style="fill:#deb887" />
    <path
       d="M6300 3979 c-34 -14 -71 -18 -155 -18 -121 1 -121 1 -96 -64 11 -27 29 -35 146 -57 33 -7 99 -27 146 -46 48 -19 94 -34 102 -34 29 0 39 35 22 76 -17 40 -94 151 -110 157 -5 2 -30 -5 -55 -14z"
       id="path194"
       style="fill:#d2b48c" />
    <path
       d="M532 3721 c-13 -42 -16 -84 -6 -94 13 -12 164 74 164 94 0 5 -13 9 -29 9 -16 0 -48 7 -71 15 -23 8 -43 15 -45 15 -1 0 -7 -17 -13 -39z"
       id="path196"
       style="fill:#8b0000" />
    <path
       d="M2630 3542 c-86 -122 -128 -157 -179 -147 -33 6 -104 45 -115 64 -4 5 -31 -6 -63 -25 -73 -44 -141 -47 -197 -9 -20 14 -41 25 -46 25 -5 0 -26 -11 -46 -25 -45 -30 -52 -31 -114 -4 l-49 21 -27 -21 c-32 -25 -81 -27 -129 -4 -33 16 -37 16 -64 0 -38 -22 -88 -22 -126 1 -28 17 -33 17 -70 3 -31 -12 -62 -41 -125 -116 -175 -210 -360 -405 -812 -860 l-468 -470 0 -157 c0 -141 2 -157 18 -162 149 -42 767 -177 776 -169 2 2 -7 30 -20 61 -35 88 -49 189 -35 259 27 137 116 256 264 353 201 133 405 170 520 94 46 -30 95 -105 104 -157 3 -22 13 -41 22 -44 37 -13 85 -59 102 -98 16 -37 17 -50 8 -96 -6 -30 -15 -72 -19 -94 -5 -22 -15 -60 -23 -85 -31 -98 -31 -96 18 -124 24 -15 51 -36 59 -48 l16 -22 42 41 c24 22 62 50 85 62 51 25 131 28 174 5 37 -19 43 -15 29 20 -14 39 -12 101 5 143 8 19 15 37 15 38 0 2 -17 9 -37 16 -132 42 -275 150 -340 257 -53 85 -68 156 -68 312 1 132 3 151 27 210 80 201 134 282 235 351 112 77 437 144 577 118 138 -25 304 -115 409 -222 113 -116 184 -241 229 -404 21 -74 22 -100 26 -555 l3 -478 22 0 c12 0 47 -3 77 -7 l55 -6 -40 45 c-76 86 -82 144 -85 793 -1 257 1 266 66 365 67 102 154 161 269 181 88 15 150 7 223 -30 72 -36 113 -70 163 -134 72 -91 75 -118 79 -692 l2 -300 -32 -80 c-17 -44 -42 -94 -56 -112 -32 -43 -138 -110 -201 -129 -29 -8 -53 -18 -53 -20 0 -3 55 -32 123 -64 120 -58 320 -125 339 -114 5 3 14 1 21 -4 24 -20 219 -35 367 -28 174 7 200 -1 238 -76 21 -40 23 -56 18 -101 -4 -29 -16 -67 -26 -85 -37 -61 -42 -62 -321 -63 -140 -1 -266 2 -281 6 -17 4 -28 3 -28 -3 0 -5 15 -12 33 -15 17 -3 138 -26 267 -52 129 -25 262 -50 295 -55 33 -5 112 -18 175 -30 146 -26 407 -63 620 -89 154 -18 202 -23 355 -36 377 -32 567 -63 743 -121 136 -45 153 -36 242 126 212 386 384 612 550 726 39 26 70 50 70 53 0 3 -42 35 -93 70 -147 103 -187 141 -244 228 -29 46 -53 86 -53 91 0 16 -76 81 -113 97 -21 9 -86 27 -145 41 -151 35 -191 49 -327 114 -182 87 -242 108 -402 140 -185 38 -265 63 -324 103 -59 40 -140 129 -168 185 -12 23 -23 42 -25 42 -2 0 -21 -7 -42 -16 -51 -22 -99 -7 -184 57 -57 42 -71 49 -113 49 l-48 0 3 -122 3 -123 80 -5 c44 -3 90 -12 103 -19 41 -22 62 -70 62 -139 0 -122 -51 -172 -174 -172 -60 0 -66 -2 -71 -22 -4 -18 -1 -181 4 -230 1 -4 45 -7 99 -8 240 0 281 -23 289 -163 4 -60 1 -78 -16 -104 -38 -60 -53 -63 -330 -64 -245 0 -252 0 -293 23 -85 47 -80 7 -83 718 -3 627 -3 630 19 672 23 47 83 88 128 88 18 0 34 10 49 31 21 31 22 32 3 41 -33 18 -149 147 -185 205 -28 48 -34 68 -39 137 l-5 80 -35 8 c-35 7 -468 83 -525 91 -16 3 -82 14 -145 26 -63 11 -125 22 -137 24 -18 3 -29 -8 -60 -61 -45 -76 -94 -121 -177 -161 -70 -34 -107 -42 -191 -41 -129 1 -229 41 -310 124 -62 64 -99 131 -122 222 l-18 69 -75 12 c-41 7 -136 23 -210 37 -74 14 -142 25 -150 25 -8 0 -49 -48 -90 -107z m1697 -782 c46 -27 58 -58 87 -215 36 -197 57 -285 67 -285 4 0 10 21 14 48 3 26 12 81 20 122 8 41 21 118 29 169 9 57 23 105 34 120 55 76 200 82 274 13 34 -31 42 -71 28 -137 -5 -27 -30 -169 -55 -315 -25 -146 -55 -302 -66 -347 -25 -106 -34 -155 -65 -338 -30 -183 -50 -250 -86 -285 -31 -32 -47 -35 -145 -35 -78 0 -112 16 -138 65 -14 28 -43 153 -55 240 -7 50 -26 152 -65 350 -8 41 -16 91 -18 110 -5 45 -32 177 -62 305 -54 226 -66 339 -40 378 25 38 72 57 145 57 47 0 74 -5 97 -20z"
       id="path198"
       style="fill:#bdb76b" />
    <path
       d="M4155 2683 c-11 -11 -15 -27 -12 -47 13 -85 30 -170 52 -261 32 -137 67 -309 76 -375 8 -68 25 -156 51 -280 11 -52 24 -122 28 -155 9 -74 38 -186 52 -203 8 -9 32 -12 77 -10 66 3 66 3 85 42 10 21 32 114 47 206 32 191 56 311 69 355 12 36 111 601 117 666 6 56 -9 70 -75 77 -77 7 -88 -9 -113 -163 -12 -71 -26 -155 -30 -185 -5 -30 -14 -86 -19 -125 -11 -84 -56 -291 -70 -322 -25 -59 -39 -17 -85 262 -9 55 -18 102 -20 105 -3 6 -57 277 -70 354 -10 59 -30 76 -90 76 -37 0 -59 -5 -70 -17z"
       id="path200"
       style="fill:#ee82ee" />
    <path
       d="M0 2785 l0 -757 118 111 c116 108 601 602 837 851 138 146 365 408 365 421 0 5 -11 15 -26 21 -20 10 -30 9 -54 -5 -35 -21 -101 -22 -140 -2 -15 8 -40 29 -54 47 -15 20 -28 29 -34 23 -4 -6 -23 -46 -42 -90 -118 -277 -269 -425 -432 -425 -67 0 -107 19 -155 74 -48 55 -63 112 -43 171 12 37 73 124 97 138 22 13 15 34 -13 41 -15 4 -50 31 -79 60 l-52 53 -119 6 c-65 3 -131 9 -146 13 l-28 6 0 -757z"
       id="path202"
       style="fill:#b0c4de" />
    <path
       d="M4986 3427 c-62 -82 -92 -222 -64 -301 8 -22 19 -41 24 -43 5 -1 17 14 26 35 19 40 72 82 105 82 25 0 89 -46 126 -90 l28 -33 -25 -26 c-46 -48 -70 -134 -46 -171 12 -19 90 -16 136 6 49 23 94 103 94 167 0 47 0 47 -67 95 -170 121 -230 171 -260 216 -18 27 -33 59 -33 72 0 33 -14 30 -44 -9z"
       id="path204"
       style="fill:#deb887" />
    <path
       d="M6003 3332 l-39 -59 60 -54 c131 -118 166 -127 166 -41 0 74 -55 163 -121 198 -27 14 -28 13 -66 -44z"
       id="path206"
       style="fill:#4169e1" />
    <path
       d="M5374 3235 c-26 -62 -24 -65 99 -138 106 -64 117 -63 117 11 0 36 -6 66 -16 80 -23 33 -114 82 -152 82 -28 0 -35 -5 -48 -35z"
       id="path208"
       style="fill:#4169e1" />
    <path
       d="M5039 3147 c-37 -25 -59 -74 -51 -114 5 -25 106 -143 123 -143 5 0 9 18 9 39 0 51 15 89 47 123 l26 27 -33 31 c-19 17 -46 38 -61 45 -24 13 -30 12 -60 -8z"
       id="path210"
       style="fill:#4169e1" />
    <path
       d="M2363 2974 c-107 -11 -252 -49 -317 -82 -68 -34 -137 -114 -183 -211 -75 -162 -93 -258 -73 -397 24 -171 109 -283 277 -366 68 -34 96 -42 155 -46 202 -12 367 76 446 237 36 74 37 79 37 186 0 108 -1 112 -34 163 -70 110 -183 180 -295 185 l-51 2 0 -75 0 -74 40 -14 c116 -41 153 -68 174 -131 53 -158 -68 -315 -244 -315 -90 0 -156 27 -226 91 -86 80 -107 121 -115 224 -7 102 11 160 87 274 57 85 80 104 181 147 65 27 87 31 195 36 120 4 123 4 188 -26 106 -50 210 -128 248 -186 48 -72 82 -142 103 -211 21 -67 24 -269 14 -885 -5 -342 -4 -353 48 -367 15 -4 45 -6 67 -4 22 2 99 4 170 5 l130 1 105 -50 c57 -27 141 -71 185 -98 155 -92 325 -145 530 -167 131 -13 480 -11 499 4 22 17 37 83 25 114 -17 47 -28 50 -192 44 -302 -10 -548 47 -812 188 -173 93 -362 148 -507 150 -27 0 -42 7 -57 26 -21 26 -21 37 -21 468 0 476 -5 534 -54 675 -32 92 -64 147 -134 234 -116 144 -270 233 -447 259 -16 3 -81 -1 -142 -8z"
       id="path212"
       style="fill:#ee82ee" />
    <path
       d="M5265 2840 c-11 -5 -38 -9 -61 -9 -30 -1 -47 -8 -64 -26 l-23 -25 49 -2 c59 -2 188 3 192 7 2 2 -6 17 -19 34 -23 32 -39 36 -74 21z"
       id="path214"
       style="fill:#d2b48c" />
    <path
       d="M2410 2733 c0 -6 17 -13 38 -17 67 -11 161 -63 222 -124 69 -69 105 -136 121 -225 35 -188 -85 -423 -258 -509 -50 -24 -62 -35 -57 -47 13 -28 16 -120 6 -151 -9 -25 -6 -38 19 -89 l30 -60 53 29 c70 40 126 40 187 2 24 -16 50 -41 58 -55 18 -33 49 -35 56 -4 11 47 24 666 16 757 -13 146 -39 220 -110 317 -31 43 -150 130 -215 157 -47 19 -166 33 -166 19z"
       id="path216"
       style="fill:#bdb76b" />
    <path
       d="M2209 2680 c-50 -26 -105 -92 -143 -170 -27 -56 -31 -75 -29 -137 2 -83 17 -119 76 -175 52 -49 85 -66 142 -77 63 -12 126 4 171 43 36 32 38 36 42 104 4 65 2 73 -21 94 -14 13 -54 31 -90 42 -94 26 -111 48 -115 145 -3 54 1 88 12 114 18 43 10 46 -45 17z"
       id="path218"
       style="fill:#bdb76b" />
    <path
       d="M3605 2690 c-112 -13 -203 -82 -256 -195 l-29 -60 6 -409 c5 -367 8 -416 25 -472 16 -51 28 -70 62 -97 79 -65 144 -92 230 -96 72 -3 84 0 143 29 89 44 123 81 158 173 l29 77 -6 393 c-7 459 -9 468 -90 555 -51 53 -123 95 -183 105 -16 2 -56 1 -89 -3z m121 -189 c73 -45 84 -151 68 -680 l-7 -214 -29 -33 c-67 -76 -185 -65 -239 23 l-23 37 2 398 c1 286 5 403 14 417 39 63 151 90 214 52z"
       id="path220"
       style="fill:#ee82ee" />
    <path
       d="M3630 2443 c-50 -18 -49 -8 -49 -413 -1 -345 1 -380 17 -398 28 -33 69 -36 96 -9 22 22 23 29 30 273 9 311 -4 510 -36 537 -21 17 -32 19 -58 10z"
       id="path222"
       style="fill:#bdb76b" />
    <path
       d="M5004 2676 c-28 -26 -28 -7 -25 -734 l2 -532 24 -28 23 -27 240 0 c224 0 241 1 262 20 18 17 20 26 15 70 -4 27 -13 56 -19 63 -9 9 -59 15 -162 19 -82 3 -157 10 -167 15 -35 18 -47 70 -47 209 l0 131 34 34 c33 33 37 34 110 34 69 0 77 2 91 24 21 32 11 122 -16 136 -10 6 -56 10 -103 10 -116 0 -116 0 -119 203 -2 151 -1 157 21 179 24 24 23 24 258 27 102 1 114 10 115 79 2 88 7 87 -273 88 -231 1 -242 0 -264 -20z"
       id="path224"
       style="fill:#ee82ee" />
    <path
       d="M8040 2549 c0 -4 26 -28 58 -52 62 -47 388 -267 397 -267 3 0 5 66 5 148 l0 147 -178 1 c-125 1 -192 5 -229 16 -29 8 -53 11 -53 7z"
       id="path226"
       style="fill:#bc8f8f" />
    <path
       d="M5529 2459 c-7 -5 -42 -9 -77 -9 -35 0 -61 -4 -58 -9 4 -5 27 -23 53 -40 51 -34 106 -41 138 -17 18 13 18 16 5 41 -18 33 -41 47 -61 34z"
       id="path228"
       style="fill:#d2b48c" />
    <path
       d="M1253 2195 c-126 -35 -283 -137 -358 -232 -126 -160 -115 -306 41 -559 24 -39 44 -76 44 -82 0 -6 -23 -23 -51 -37 -96 -49 -179 -148 -179 -214 0 -34 38 -95 70 -114 79 -47 198 4 253 108 20 38 25 103 15 194 -3 22 3 26 55 42 33 10 91 23 130 29 101 17 102 17 87 35 -18 22 -149 20 -232 -3 -37 -11 -72 -16 -78 -12 -23 14 -139 223 -150 270 -31 128 66 277 253 389 85 51 153 78 214 87 70 9 103 0 103 -29 0 -37 -70 -145 -147 -227 -40 -43 -73 -83 -73 -89 0 -20 55 -11 106 18 62 36 143 123 173 185 39 84 18 178 -52 230 -36 26 -149 32 -224 11z m-233 -980 c0 -76 -133 -211 -187 -191 -42 17 12 115 101 180 59 43 86 47 86 11z"
       id="path230"
       style="fill:#ee82ee" />
    <path
       d="M1243 1971 c-43 -22 -107 -66 -142 -98 -149 -135 -157 -204 -44 -381 31 -49 36 -53 61 -46 15 4 76 10 137 13 l110 6 32 120 c17 66 30 121 29 123 -2 1 -28 -9 -60 -23 -31 -14 -72 -25 -91 -25 -66 0 -122 78 -94 132 6 13 45 57 85 99 123 130 118 150 -23 80z"
       id="path232"
       style="fill:#bdb76b" />
    <path
       d="M1591 1967 c-17 -22 -37 -86 -95 -306 -137 -520 -132 -486 -85 -525 55 -47 69 -35 100 81 17 66 31 94 62 128 21 25 42 43 47 40 4 -3 -1 -32 -11 -66 -10 -33 -19 -83 -19 -109 0 -41 4 -52 26 -69 40 -31 61 -26 117 29 28 28 52 50 53 50 2 0 13 -18 24 -39 22 -43 54 -71 82 -71 10 0 39 19 64 42 l45 41 30 -36 c56 -68 108 -40 198 112 30 50 56 89 58 87 2 -2 -6 -41 -18 -88 -19 -75 -20 -88 -8 -114 18 -37 61 -59 88 -44 11 5 34 30 52 55 18 25 37 45 43 45 6 -1 20 -20 32 -43 40 -82 122 -98 198 -38 53 42 225 234 219 244 -3 5 -35 -20 -72 -56 -141 -137 -227 -190 -272 -166 -25 13 -24 30 5 87 25 49 56 84 56 64 0 -6 9 -16 21 -22 16 -9 29 -7 64 10 84 40 103 116 44 171 -71 66 -144 24 -280 -158 -100 -134 -109 -126 -50 39 54 152 35 227 -64 257 -28 9 -53 20 -57 25 -11 16 34 87 52 84 11 -3 14 -13 12 -41 -3 -32 -1 -37 17 -37 22 0 41 48 41 103 0 42 -40 77 -88 77 -33 0 -45 -6 -75 -39 -66 -73 -56 -156 24 -190 23 -9 39 -23 39 -32 0 -35 -90 -225 -142 -301 -27 -40 -41 -34 -23 8 19 46 19 98 1 113 -33 27 -69 9 -121 -61 -67 -90 -102 -125 -115 -112 -6 6 -1 28 15 63 51 110 126 176 184 165 28 -6 31 -4 31 19 0 16 -12 36 -35 56 -86 75 -211 8 -286 -154 -31 -66 -93 -144 -105 -133 -4 4 1 38 11 75 27 97 25 146 -4 177 -30 32 -80 35 -106 6 -23 -25 -48 -27 -41 -2 3 9 15 53 26 97 12 44 34 131 51 193 37 144 37 163 -2 196 -35 30 -42 31 -58 13z m1109 -585 c0 -12 -41 -48 -63 -55 -15 -6 -16 -4 -7 13 17 31 70 63 70 42z"
       id="path234"
       style="fill:#ee82ee" />
    <path
       d="M0 1587 l0 -33 243 -58 c299 -71 307 -73 387 -85 36 -6 98 -15 138 -22 40 -6 76 -8 79 -5 9 9 -15 56 -29 60 -7 2 -67 14 -133 26 -148 28 -391 81 -547 121 -64 16 -122 29 -127 29 -6 0 -11 -15 -11 -33z"
       id="path236"
       style="fill:#556b2f" />
    <path
       d="M0 1486 c0 -37 3 -44 23 -49 12 -3 85 -21 162 -41 77 -19 163 -40 190 -46 28 -6 68 -15 90 -20 22 -5 69 -14 105 -20 36 -6 87 -16 113 -21 26 -5 59 -9 72 -9 23 0 115 56 115 70 0 4 -46 13 -103 20 -90 11 -425 75 -529 101 -21 5 -55 13 -75 18 -21 5 -64 16 -96 25 -32 9 -60 16 -62 16 -3 0 -5 -20 -5 -44z"
       id="path238"
       style="fill:#556b2f" />
    <path
       d="M0 1396 c0 -14 3 -26 6 -26 3 0 85 -18 182 -40 98 -21 242 -53 322 -70 80 -16 159 -34 177 -39 26 -7 35 -5 49 10 9 11 15 21 13 23 -2 1 -33 8 -69 15 -128 23 -176 33 -220 43 -25 5 -63 13 -85 18 -72 15 -139 31 -175 41 -19 5 -64 16 -100 24 -36 9 -73 18 -82 21 -14 4 -18 -1 -18 -20z"
       id="path240"
       style="fill:#556b2f" />
    <path
       d="M0 671 l0 -671 3258 1 c2015 0 3248 4 3234 10 -32 12 -221 44 -377 63 -71 9 -168 21 -215 27 -177 21 -320 42 -552 79 -352 56 -1428 267 -1838 361 -25 5 -227 51 -450 101 -223 49 -461 103 -530 119 -69 16 -143 33 -165 38 -22 5 -233 52 -470 106 -236 53 -448 100 -470 105 -22 4 -89 18 -149 31 -82 17 -111 19 -114 11 -2 -7 -23 -38 -47 -70 -116 -154 -313 -161 -406 -14 -32 50 -39 121 -18 181 6 18 9 35 6 38 -3 3 -48 14 -99 24 -85 17 -124 26 -228 49 -86 19 -238 53 -270 60 -19 4 -50 11 -67 15 l-33 8 0 -672z"
       id="path242"
       style="fill:#b0c4de" />
    <path
       d="M1235 1246 c-37 -9 -50 -17 -50 -30 0 -14 13 -22 54 -33 30 -7 55 -12 56 -11 2 2 6 22 10 46 8 47 9 47 -70 28z"
       id="path244"
       style="fill:#556b2f" />
    <path
       d="M2803 1143 c-40 -42 -73 -77 -73 -79 0 -2 62 -17 285 -69 61 -15 146 -35 190 -45 352 -83 694 -160 709 -160 6 0 -36 20 -94 43 -58 24 -140 64 -183 90 -42 25 -117 65 -165 89 l-87 43 -195 0 c-164 0 -200 3 -226 17 -32 18 -57 59 -69 116 -4 17 -10 32 -13 32 -4 0 -40 -35 -79 -77z"
       id="path246"
       style="fill:#bdb76b" />
    <path
       d="M7499 1197 c-73 -44 -154 -114 -217 -187 -97 -113 -301 -431 -396 -617 -28 -56 -75 -102 -110 -109 -23 -4 -60 3 -117 21 -214 67 -318 84 -829 130 -341 32 -666 77 -1135 160 -146 25 -622 121 -772 155 -24 6 -63 15 -88 20 -25 6 -65 15 -90 20 -25 6 -64 15 -87 20 -24 6 -162 38 -308 71 -146 34 -301 70 -345 80 -44 11 -120 29 -170 40 -49 12 -103 24 -120 28 -17 4 -52 1 -82 -8 -62 -17 -114 -6 -162 35 l-31 25 -33 -25 c-51 -39 -123 -32 -175 17 -17 16 -27 19 -39 11 -34 -21 -21 -32 74 -58 54 -14 112 -30 128 -35 17 -5 107 -28 200 -50 94 -23 186 -46 205 -51 74 -20 513 -109 745 -151 33 -6 80 -14 105 -19 25 -5 74 -14 110 -20 36 -6 88 -15 115 -20 28 -5 78 -14 113 -20 34 -5 88 -14 120 -20 31 -5 100 -16 152 -25 167 -26 463 -74 523 -85 31 -5 85 -15 120 -20 34 -6 85 -15 112 -20 28 -5 79 -14 115 -20 36 -6 85 -15 110 -20 25 -5 97 -18 160 -30 142 -27 440 -87 498 -100 64 -15 121 -27 187 -40 33 -6 78 -16 100 -20 22 -5 72 -14 110 -20 39 -6 86 -15 105 -20 19 -5 96 -12 170 -15 74 -4 152 -11 174 -15 21 -5 44 -6 52 -3 7 3 31 38 54 79 45 82 182 298 210 329 9 11 28 40 41 65 93 176 257 381 394 490 36 29 63 56 59 61 -7 12 -13 11 -55 -14z"
       id="path248"
       style="fill:#556b2f" />
    <path
       d="M7503 1093 c-229 -256 -402 -535 -573 -922 -23 -52 -49 -106 -59 -120 -35 -51 -35 -51 16 -51 l49 0 43 112 c24 62 84 191 134 288 195 380 310 567 423 689 35 38 64 72 64 75 0 22 -37 -5 -97 -71z"
       id="path250"
       style="fill:#556b2f" />
    <path
       d="M1182 1128 c3 -31 5 -32 83 -49 109 -24 110 -24 78 16 -19 25 -43 40 -77 50 -76 23 -88 21 -84 -17z"
       id="path252"
       style="fill:#556b2f" />
    <path
       d="M7560 1068 c-121 -143 -275 -400 -460 -769 -44 -87 -102 -227 -114 -272 l-6 -27 760 0 760 0 0 194 c0 146 -3 195 -12 199 -23 9 -248 205 -468 407 -308 283 -373 340 -387 340 -7 0 -40 -33 -73 -72z"
       id="path254"
       style="fill:#b0c4de" />
    <path
       d="M1521 1060 l-34 -29 29 -6 c16 -3 48 -10 72 -16 23 -5 61 -13 85 -18 23 -5 63 -14 90 -20 26 -6 66 -15 90 -21 23 -5 71 -16 107 -24 97 -23 560 -127 600 -136 19 -4 118 -27 220 -50 102 -23 325 -73 495 -110 171 -38 330 -73 355 -79 183 -41 654 -138 955 -196 132 -26 283 -55 335 -65 233 -45 757 -127 1018 -160 45 -5 121 -15 170 -21 239 -30 522 -85 522 -101 0 -4 42 -8 93 -8 l92 0 36 63 c20 34 49 91 65 127 71 162 220 446 294 559 82 126 114 168 204 274 75 89 49 77 -45 -20 -97 -102 -161 -192 -249 -353 -35 -63 -90 -162 -123 -220 -33 -58 -75 -148 -93 -200 -42 -121 -66 -145 -138 -137 -28 3 -71 11 -96 16 -43 10 -195 28 -420 51 -234 24 -442 53 -720 100 -159 28 -506 85 -670 111 -170 27 -198 31 -235 39 -22 5 -67 14 -100 20 -56 11 -81 16 -175 41 -32 8 -103 24 -470 110 -171 40 -201 47 -230 52 -14 3 -61 12 -105 21 -44 9 -102 20 -130 26 -27 6 -99 19 -160 29 -114 20 -440 78 -510 91 -54 10 -191 38 -240 50 -143 33 -225 52 -255 60 -19 5 -80 21 -135 34 -55 14 -156 42 -225 63 -91 27 -145 37 -197 37 -58 1 -77 5 -102 24 -16 12 -31 22 -33 22 -2 -1 -18 -14 -37 -30z"
       id="path256"
       style="fill:#556b2f" />
    <path
       d="M1760 1076 c0 -15 37 -32 47 -22 9 8 -17 36 -33 36 -8 0 -14 -6 -14 -14z"
       id="path258" />
    <path
       d="M1970 1059 c-8 -5 -28 -14 -44 -19 -36 -13 -30 -19 36 -36 29 -7 125 -31 213 -54 88 -22 183 -45 210 -51 28 -6 66 -15 85 -19 172 -39 400 -82 770 -145 60 -10 361 -70 430 -85 19 -4 59 -13 89 -19 53 -11 432 -102 501 -120 33 -9 77 -19 173 -40 23 -5 62 -14 87 -20 81 -18 174 -33 515 -86 313 -48 324 -50 573 -95 90 -17 172 -30 242 -40 36 -5 81 -11 100 -14 33 -5 82 -11 300 -35 47 -6 137 -15 200 -21 63 -6 164 -20 223 -32 59 -11 118 -17 132 -14 28 7 56 46 74 102 21 64 7 75 -21 19 -35 -69 -60 -90 -88 -75 -12 6 -96 18 -188 26 -228 20 -281 28 -572 89 -297 62 -639 130 -777 156 -153 28 -138 25 -523 89 -275 46 -330 55 -482 80 -32 6 -85 15 -118 20 -33 6 -87 15 -120 20 -151 25 -188 32 -235 40 -27 5 -77 14 -110 20 -183 32 -589 110 -672 130 -24 6 -63 15 -88 20 -109 24 -142 32 -175 40 -19 5 -55 13 -80 19 -25 6 -144 37 -265 70 -121 32 -244 61 -274 65 -30 3 -59 10 -65 16 -12 12 -36 12 -56 -1z"
       id="path260"
       style="fill:#556b2f" />
  </g>
</svg>
