<?xml version="1.0" encoding="UTF-8" standalone="no"?>
<svg
   xmlns:dc="http://purl.org/dc/elements/1.1/"
   xmlns:cc="http://creativecommons.org/ns#"
   xmlns:rdf="http://www.w3.org/1999/02/22-rdf-syntax-ns#"
   xmlns:svg="http://www.w3.org/2000/svg"
   xmlns="http://www.w3.org/2000/svg"
   xmlns:sodipodi="http://sodipodi.sourceforge.net/DTD/sodipodi-0.dtd"
   xmlns:inkscape="http://www.inkscape.org/namespaces/inkscape"
   version="1.0"
   width="850.000000pt"
   height="850.000000pt"
   viewBox="0 0 850.000000 850.000000"
   preserveAspectRatio="xMidYMid meet"
   id="svg198"
   sodipodi:docname="bible595.svg"
   inkscape:version="0.92.2 5c3e80d, 2017-08-06">
  <defs
     id="defs202" />
  <sodipodi:namedview
     pagecolor="#ffffff"
     bordercolor="#666666"
     borderopacity="1"
     objecttolerance="10"
     gridtolerance="10"
     guidetolerance="10"
     inkscape:pageopacity="0"
     inkscape:pageshadow="2"
     inkscape:window-width="1920"
     inkscape:window-height="978"
     id="namedview200"
     showgrid="false"
     inkscape:zoom="1.1779567"
     inkscape:cx="475.3705"
     inkscape:cy="513.12885"
     inkscape:window-x="0"
     inkscape:window-y="1"
     inkscape:window-maximized="1"
     inkscape:current-layer="svg198" />
  <metadata
     id="metadata2">
Created by potrace 1.14, written by Peter Selinger 2001-2017
<rdf:RDF>
  <cc:Work
     rdf:about="">
    <dc:format>image/svg+xml</dc:format>
    <dc:type
       rdf:resource="http://purl.org/dc/dcmitype/StillImage" />
  </cc:Work>
</rdf:RDF>
</metadata>
  <g
     transform="translate(0.000000,850.000000) scale(0.100000,-0.100000)"
     fill="#000000"
     stroke="none"
     id="g196">
    <path
       d="M0 4250 l0 -4250 4250 0 4250 0 0 4250 0 4250 -4250 0 -4250 0 0 -4250z m2679 3109 c25 -11 61 -32 80 -47 37 -28 78 -52 90 -52 3 0 12 14 20 31 19 43 87 73 152 67 60 -6 143 -53 479 -270 140 -91 314 -200 385 -243 72 -43 156 -95 187 -117 62 -44 175 -178 248 -296 25 -39 48 -72 53 -72 4 0 15 15 24 34 28 60 87 72 148 31 20 -14 41 -25 46 -23 5 2 23 27 41 57 45 74 69 89 156 97 61 6 75 4 92 -11 43 -39 106 -179 151 -336 29 -103 39 -122 63 -114 52 17 67 11 93 -35 22 -39 24 -49 14 -74 -10 -27 -8 -32 25 -64 33 -32 36 -39 31 -75 -5 -35 0 -47 45 -111 28 -39 66 -89 84 -111 111 -137 200 -315 272 -545 51 -163 81 -324 82 -444 0 -33 5 -87 10 -120 6 -34 16 -129 24 -212 12 -133 18 -159 45 -217 38 -80 100 -163 181 -242 60 -59 62 -60 78 -40 9 12 58 38 107 60 84 37 97 40 200 43 l110 3 65 -50 c177 -135 319 -332 388 -537 78 -232 90 -397 42 -609 -5 -22 -17 -71 -26 -110 -13 -58 -79 -230 -139 -360 -7 -17 -23 -52 -35 -79 -24 -56 -86 -147 -166 -240 -45 -53 -286 -256 -424 -357 -31 -22 -299 -178 -325 -188 -5 -2 -33 -15 -62 -27 -28 -13 -54 -24 -57 -24 -4 0 -25 -9 -49 -19 -74 -34 -112 -41 -208 -43 -87 -2 -98 0 -155 29 -60 31 -64 36 -185 218 l-124 186 -2 -88 c-3 -123 -23 -360 -35 -408 -5 -22 -21 -52 -36 -68 -23 -25 -31 -27 -76 -21 -89 9 -95 12 -111 51 -16 37 -14 74 15 288 5 39 12 188 16 333 l7 262 -45 0 c-38 0 -58 -9 -148 -71 -58 -39 -107 -74 -110 -78 -3 -4 -38 -28 -78 -54 -77 -50 -97 -56 -332 -96 -69 -12 -174 -31 -235 -43 -214 -41 -252 -37 -428 47 -246 116 -396 286 -470 535 -50 165 -58 268 -31 372 16 62 98 227 166 332 l37 58 -35 43 c-19 24 -51 55 -70 70 -18 14 -37 37 -40 50 -5 20 -9 23 -24 15 -29 -16 -51 -12 -86 15 -25 19 -34 34 -36 62 -3 32 -7 38 -35 45 -37 9 -63 41 -63 76 0 28 30 82 45 82 29 0 33 22 13 68 -52 120 -78 172 -86 172 -20 0 -62 50 -62 75 0 16 -7 28 -17 31 -47 14 -83 39 -91 64 -11 29 -5 77 9 86 18 11 8 37 -29 79 -53 60 -194 321 -312 575 -48 104 -80 154 -136 215 -36 40 -84 127 -84 155 0 8 -7 33 -15 55 -22 61 -18 95 20 196 30 78 38 116 50 243 8 83 15 177 15 209 0 106 42 355 71 426 20 48 21 58 11 149 -15 137 14 349 60 436 6 11 11 71 12 135 4 195 41 281 145 331 48 23 51 27 51 62 0 47 41 96 90 108 46 11 115 3 169 -21z"
       id="path4"
       style="fill:none" />
    <path
       d="M2658 7300 c17 -16 32 -39 32 -51 0 -12 -16 -46 -36 -75 -31 -47 -39 -54 -68 -54 -33 0 -78 31 -88 60 -2 7 -9 10 -15 7 -25 -15 4 -50 96 -116 137 -98 217 -183 362 -381 35 -47 128 -164 208 -260 178 -213 238 -302 329 -490 91 -186 259 -493 303 -553 19 -26 55 -74 82 -108 52 -67 59 -92 25 -87 -28 4 -123 137 -218 303 -98 174 -233 430 -266 505 -29 66 -127 219 -193 299 -20 25 -72 88 -117 140 -94 112 -181 223 -244 312 -64 91 -236 260 -291 287 -81 39 -138 27 -192 -40 -28 -35 -29 -38 -18 -85 15 -60 48 -127 129 -265 55 -92 69 -109 103 -122 86 -35 134 -96 230 -291 48 -99 124 -235 169 -303 44 -67 98 -159 120 -204 45 -95 90 -206 90 -222 0 -11 81 -149 186 -319 29 -45 77 -110 108 -145 55 -62 56 -63 56 -125 0 -69 -13 -103 -30 -77 -5 8 -10 31 -10 50 0 21 -12 52 -28 77 -15 23 -40 64 -57 90 -16 26 -62 98 -102 160 -40 62 -73 115 -73 117 0 3 -15 29 -33 58 -19 29 -48 91 -67 138 -68 174 -106 254 -162 332 -62 90 -135 217 -206 363 -88 182 -96 195 -141 227 -50 36 -126 57 -143 40 -9 -9 -7 -12 10 -12 38 0 70 -29 87 -79 18 -55 13 -77 -20 -85 -13 -3 -37 -18 -54 -32 -30 -25 -71 -27 -71 -3 0 5 -5 9 -11 9 -30 0 40 -196 111 -315 118 -195 174 -325 220 -506 12 -46 30 -109 40 -139 10 -30 33 -101 50 -158 32 -106 135 -320 193 -401 64 -88 97 -157 113 -237 8 -43 19 -90 24 -104 4 -14 16 -52 25 -85 9 -33 25 -82 35 -110 10 -27 25 -75 35 -106 9 -31 22 -65 29 -74 12 -17 15 -17 37 -2 27 19 70 22 86 6 18 -18 33 0 33 41 0 66 69 117 142 105 38 -7 38 -7 38 28 0 41 28 79 69 96 24 10 34 10 60 -4 47 -24 71 -7 71 50 0 35 6 52 29 77 25 28 36 33 73 33 l43 0 5 59 c5 52 10 62 40 87 19 16 46 29 61 29 40 0 53 22 39 65 -9 27 -9 43 -1 63 15 35 72 74 113 76 36 2 35 -3 22 98 -5 44 -3 50 25 79 27 27 37 31 66 26 43 -7 65 14 47 44 -37 59 11 149 81 149 l34 0 -5 68 c-3 55 -1 74 13 96 20 30 63 56 95 56 18 0 20 4 15 33 -14 76 42 181 94 175 23 -3 26 0 23 22 -2 14 -4 50 -5 81 -2 50 -6 59 -39 88 -48 42 -191 208 -251 291 -25 36 -50 70 -55 75 -4 6 -45 66 -90 133 -89 134 -173 242 -218 283 -31 28 -131 99 -139 99 -11 0 -296 177 -492 306 -216 142 -351 224 -367 224 -5 0 0 -10 12 -23 30 -32 28 -53 -7 -73 -35 -21 -67 -74 -58 -97 3 -9 37 -38 74 -64 37 -27 82 -63 98 -81 67 -74 274 -258 335 -298 36 -23 101 -80 145 -126 79 -83 126 -161 208 -348 13 -30 69 -125 123 -210 55 -86 104 -163 109 -172 30 -48 143 -198 172 -228 18 -19 33 -40 33 -46 0 -20 -27 -23 -43 -6 -35 39 -153 203 -206 285 -31 48 -84 131 -119 183 -35 53 -88 148 -118 212 -111 234 -186 332 -320 423 -78 53 -147 113 -294 256 -52 51 -140 126 -196 166 -55 40 -127 97 -160 126 -87 78 -211 160 -244 160 -9 0 -3 -11 18 -29z m-107 -286 c79 -40 106 -144 38 -144 -9 0 -40 -10 -69 -22 l-53 -22 -43 50 c-48 54 -55 88 -26 124 31 38 94 44 153 14z"
       id="path6"
       style="fill:#ffdead" />
    <path
       d="M2474 6991 c-63 -16 -69 -34 -26 -82 l27 -30 57 18 c32 10 58 22 58 27 0 11 -66 76 -76 75 -5 -1 -23 -4 -40 -8z"
       id="path8"
       style="fill:#1e90ff" />
    <path
       d="M2516 7284 c-29 -29 -17 -96 20 -113 42 -19 58 -13 87 33 15 24 27 45 27 48 0 7 -94 48 -109 48 -5 0 -17 -7 -25 -16z"
       id="path10"
       style="fill:#1e90ff" />
    <path
       d="M2927 7272 c-36 -38 -34 -64 8 -101 43 -37 58 -39 79 -6 9 13 28 36 43 50 l28 26 -33 29 c-43 40 -88 40 -125 2z"
       id="path12"
       style="fill:#1e90ff" />
    <path
       d="M2383 7173 c-30 -6 -80 -64 -93 -110 -16 -54 -35 -226 -27 -246 5 -14 10 -15 33 -5 22 10 25 16 19 42 -4 17 -9 60 -12 96 -4 63 -3 66 31 106 19 23 51 49 71 58 19 9 35 23 35 29 0 14 -20 38 -29 36 -4 -1 -16 -4 -28 -6z"
       id="path14"
       style="fill:#d2b48c" />
    <path
       d="M2271 6741 c-32 -28 -57 -117 -72 -252 -14 -131 -10 -156 22 -139 11 6 48 12 81 13 l60 2 24 77 c24 75 26 78 64 89 22 7 40 15 40 18 0 3 -10 22 -23 42 -71 115 -84 134 -99 151 -23 24 -69 23 -97 -1z"
       id="path16"
       style="fill:#d2b48c" />
    <path
       d="M4775 6513 c-48 -12 -85 -37 -111 -76 -24 -37 -29 -54 -32 -135 -4 -92 8 -171 44 -280 29 -87 89 -157 131 -151 30 5 58 -10 81 -41 14 -18 28 -27 37 -24 8 4 21 1 29 -5 11 -9 20 -5 44 19 18 18 41 30 56 30 16 0 26 6 26 14 0 8 8 28 17 44 17 30 17 31 -8 56 -14 14 -38 58 -53 98 -15 40 -31 81 -37 90 -5 10 -9 24 -9 32 0 32 -26 37 -84 15 -31 -11 -63 -18 -71 -15 -17 6 -55 90 -55 121 0 12 -6 41 -14 63 -20 56 -6 106 34 123 44 20 27 35 -25 22z m253 -473 c3 -19 -85 -62 -95 -47 -8 14 57 68 77 65 8 -2 16 -10 18 -18z m-8 -73 c0 -14 -20 -37 -32 -37 -12 0 -10 24 4 38 16 16 28 15 28 -1z"
       id="path18"
       style="fill:#deb887" />
    <path
       d="M4833 6450 c-38 -23 -39 -31 -14 -96 11 -27 22 -61 25 -76 7 -32 26 -35 79 -13 l35 14 -28 81 c-26 76 -45 110 -59 110 -3 0 -21 -9 -38 -20z"
       id="path20"
       style="fill:#1e90ff" />
    <path
       d="M2465 6420 c-14 -15 -16 -29 -11 -65 8 -48 16 -54 36 -30 7 8 18 15 26 15 7 0 20 7 28 16 20 20 7 48 -33 69 -26 13 -30 13 -46 -5z"
       id="path22"
       style="fill:#1e90ff" />
    <path
       d="M4455 6386 c-13 -13 -27 -40 -30 -60 -6 -31 -2 -43 40 -101 55 -78 156 -198 161 -192 2 2 -3 28 -11 58 -9 30 -18 98 -22 151 -5 88 -8 99 -32 121 -14 13 -39 29 -54 35 -25 11 -31 9 -52 -12z"
       id="path24"
       style="fill:#deb887" />
    <path
       d="M2267 6269 c-47 -36 -102 -161 -120 -269 -24 -142 -37 -258 -37 -320 0 -162 -29 -333 -78 -454 -26 -66 -25 -77 10 -194 18 -60 33 -86 81 -140 43 -49 76 -103 124 -202 74 -155 173 -352 201 -401 63 -111 97 -164 131 -203 22 -25 56 -70 78 -101 26 -38 43 -53 53 -49 41 17 51 15 83 -17 18 -19 40 -45 49 -59 15 -24 16 -24 24 -5 15 40 36 55 80 55 31 0 51 -7 73 -26 41 -34 63 -28 79 23 20 61 93 92 138 58 27 -21 54 -19 54 4 0 10 -11 43 -24 73 -23 52 -80 221 -106 318 -7 25 -19 63 -26 85 -7 23 -18 70 -24 105 -14 75 -18 84 -75 159 -114 150 -230 429 -330 796 -9 33 -24 85 -33 115 -18 60 -115 255 -165 335 l-32 50 -9 -140 c-14 -218 -13 -253 13 -350 12 -49 32 -126 43 -170 11 -44 26 -102 35 -129 8 -27 15 -67 15 -90 0 -33 12 -58 56 -126 31 -47 76 -124 100 -172 24 -49 47 -88 51 -88 4 0 12 5 19 12 10 10 15 9 27 -3 13 -12 10 -20 -25 -64 -22 -28 -52 -74 -66 -102 -14 -29 -30 -53 -35 -53 -19 0 -20 30 -1 70 17 37 17 46 6 78 -7 21 -13 45 -14 55 0 32 -70 161 -130 242 -33 44 -81 110 -107 147 -27 37 -52 67 -56 68 -4 0 -16 -13 -25 -30 -18 -32 -52 -41 -52 -14 0 8 14 36 31 61 46 67 60 123 60 244 -1 142 -9 161 -51 119 -12 -12 -25 -18 -30 -15 -18 11 -10 38 23 79 49 59 53 71 67 173 19 139 8 288 -28 393 -28 83 -30 85 -64 88 -23 2 -43 -4 -61 -19z"
       id="path26"
       style="fill:#deb887" />
    <path
       d="M5106 6051 c-23 -25 -6 -64 26 -59 34 5 45 33 24 57 -23 26 -28 26 -50 2z"
       id="path28"
       style="fill:#fa8072" />
    <path
       d="M5138 5909 c-13 -7 -18 -22 -18 -50 0 -33 4 -41 26 -51 37 -17 78 7 82 49 5 51 -43 80 -90 52z"
       id="path30"
       style="fill:#fa8072" />
    <path
       d="M4792 5824 c-22 -15 -28 -47 -16 -78 9 -23 16 -20 62 24 l42 39 -22 16 c-28 19 -38 19 -66 -1z"
       id="path32"
       style="fill:#fa8072" />
    <path
       d="M5033 5815 c-46 -33 -28 -95 29 -95 53 0 75 53 38 90 -24 24 -38 25 -67 5z"
       id="path34"
       style="fill:#cd853f" />
    <path
       d="M5178 5772 c-29 -2 -38 -8 -38 -21 0 -23 -27 -48 -62 -56 -33 -8 -36 -21 -8 -30 11 -3 25 -15 30 -25 6 -11 38 -38 73 -61 105 -71 193 -161 274 -279 54 -79 174 -321 171 -343 -5 -38 -32 -25 -48 23 -26 76 -122 256 -180 338 -41 57 -110 132 -171 187 -37 33 -108 79 -113 74 -2 -2 -11 -19 -20 -36 -9 -18 -28 -40 -41 -49 -32 -21 -31 -28 4 -60 16 -14 35 -39 41 -55 10 -24 9 -33 -8 -61 -12 -18 -30 -39 -41 -46 -28 -17 -27 -24 14 -65 20 -20 35 -45 35 -58 0 -31 -33 -85 -61 -100 l-23 -12 26 -21 c57 -47 63 -101 17 -154 l-31 -35 25 -15 c28 -17 57 -71 57 -107 0 -13 -17 -41 -40 -66 -22 -24 -40 -45 -40 -47 0 -2 18 -21 40 -43 31 -31 40 -47 40 -74 0 -25 -9 -43 -40 -75 -43 -45 -50 -67 -22 -77 70 -25 82 -91 27 -152 -37 -40 -44 -61 -22 -61 8 0 24 -11 36 -24 34 -36 35 -115 2 -150 -14 -14 -30 -26 -38 -26 -23 0 -15 -40 11 -50 33 -12 56 -48 56 -86 0 -35 -30 -80 -60 -89 -29 -9 -25 -30 10 -55 45 -32 61 -70 49 -113 -9 -33 -58 -87 -80 -87 -18 0 -9 -25 17 -45 19 -15 27 -33 31 -68 6 -53 -12 -91 -53 -109 -32 -15 -31 -23 11 -62 29 -28 35 -41 35 -74 0 -32 -7 -47 -31 -72 l-32 -31 37 -38 c46 -47 47 -77 1 -123 l-35 -34 30 -29 c31 -30 40 -78 21 -114 -8 -14 -1 -27 37 -63 107 -102 277 -209 577 -363 116 -59 266 -136 334 -171 67 -35 128 -64 135 -64 18 0 166 104 233 164 99 90 167 191 246 366 14 30 54 180 98 370 17 69 18 337 2 405 -6 28 -17 76 -24 108 -7 31 -17 57 -23 58 -6 0 -32 0 -57 -1 -40 -1 -71 11 -225 89 -98 50 -206 111 -239 136 -104 78 -262 234 -304 298 -22 34 -54 81 -71 104 -29 38 -32 49 -41 165 -5 67 -14 166 -20 218 -6 52 -14 140 -19 195 -21 255 -74 462 -176 683 -19 41 -34 76 -34 78 0 11 -92 147 -147 219 -32 41 -69 90 -83 109 -29 41 -32 42 -82 38z"
       id="path36"
       style="fill:#ffdead" />
    <path
       d="M4844 5725 c-16 -24 -13 -56 8 -82 26 -33 108 3 108 47 0 57 -84 83 -116 35z"
       id="path38"
       style="fill:#cd853f" />
    <path
       d="M4680 5632 c-25 -21 -29 -61 -10 -98 16 -30 69 -33 93 -6 20 22 23 92 5 110 -18 18 -63 15 -88 -6z"
       id="path40"
       style="fill:#cd853f" />
    <path
       d="M4977 5632 c-43 -48 1 -129 55 -101 30 16 38 28 38 60 0 51 -60 77 -93 41z"
       id="path42"
       style="fill:#8b4513" />
    <path
       d="M4822 5607 c2 -15 7 -28 13 -28 16 -1 16 16 0 36 -15 19 -15 19 -13 -8z"
       id="path44"
       style="fill:#191970" />
    <path
       d="M4890 5576 c0 -8 7 -16 15 -20 10 -4 15 1 15 14 0 11 -7 20 -15 20 -8 0 -15 -6 -15 -14z"
       id="path46"
       style="fill:#191970" />
    <path
       d="M4802 5517 c-30 -32 -29 -87 1 -115 30 -28 52 -28 82 3 31 30 32 73 4 109 -25 32 -59 33 -87 3z"
       id="path48"
       style="fill:#8b4513" />
    <path
       d="M4944 5474 c-1 -46 4 -52 24 -32 17 17 15 42 -5 61 -17 15 -18 13 -19 -29z"
       id="path50"
       style="fill:#d2691e" />
    <path
       d="M4720 5471 l-35 -6 0 -78 c0 -74 -2 -80 -28 -103 -19 -17 -40 -24 -68 -24 -21 0 -39 -2 -39 -4 0 -2 7 -17 15 -32 40 -77 -9 -159 -95 -159 -32 0 -35 -2 -31 -25 2 -14 4 -47 5 -73 1 -42 -3 -52 -27 -73 -18 -15 -41 -24 -62 -24 -41 0 -62 -28 -45 -59 14 -26 12 -82 -3 -102 -23 -30 -66 -51 -99 -47 l-33 3 2 -55 c5 -108 -29 -150 -122 -150 -46 0 -54 -7 -34 -27 16 -16 3 -73 -25 -108 -22 -28 -29 -30 -82 -28 -68 2 -84 -8 -84 -52 0 -22 -9 -42 -31 -65 -32 -33 -54 -36 -128 -14 -22 6 -23 5 -16 -24 4 -21 0 -42 -14 -71 -25 -47 -72 -67 -122 -49 -39 14 -57 -2 -56 -49 1 -29 -5 -41 -31 -63 -18 -14 -32 -30 -32 -34 0 -16 70 -109 126 -168 69 -72 127 -125 199 -183 27 -22 72 -62 100 -89 l50 -48 6 37 c4 25 17 47 39 66 28 25 38 28 73 22 39 -6 40 -5 33 18 -18 66 -18 78 4 114 28 45 65 70 101 67 36 -3 41 6 27 50 -9 32 -8 41 12 73 26 42 59 58 105 49 45 -8 62 20 45 72 -7 19 -9 50 -6 69 8 40 57 85 93 85 23 0 25 3 19 28 -24 105 -13 145 53 187 50 31 57 42 37 64 -30 33 -39 76 -22 109 17 33 71 82 91 82 7 0 18 7 25 15 9 11 7 21 -13 47 -37 50 -47 89 -32 124 15 36 32 50 72 58 40 9 46 26 24 62 -44 72 -25 155 38 169 17 4 33 10 35 14 3 4 -6 30 -19 57 -37 74 -33 115 13 164 22 22 46 40 55 40 21 0 21 2 -4 45 -15 24 -20 45 -16 65 7 35 3 38 -43 31z"
       id="path52"
       style="fill:#ffdead" />
    <path
       d="M4583 5429 c-53 -20 -65 -92 -20 -124 28 -20 50 -19 75 4 27 23 30 81 5 103 -28 24 -37 26 -60 17z"
       id="path54"
       style="fill:#fa8072" />
    <path
       d="M4982 5413 c-22 -8 -40 -56 -31 -80 17 -45 86 -51 103 -8 21 57 -20 109 -72 88z"
       id="path56"
       style="fill:#cd853f" />
    <path
       d="M2450 5365 c0 -25 -5 -65 -12 -90 l-12 -45 47 -47 c25 -26 49 -44 53 -41 3 4 -6 55 -20 115 -14 59 -28 118 -31 131 -9 38 -25 24 -25 -23z"
       id="path58"
       style="fill:#cd853f" />
    <path
       d="M4868 5342 c-29 -17 -36 -36 -18 -47 5 -3 17 -30 25 -60 14 -47 14 -57 1 -89 -14 -34 -58 -66 -91 -66 -21 0 -19 -7 9 -33 72 -66 41 -168 -56 -192 -32 -8 -35 -21 -12 -46 23 -25 43 -100 34 -125 -9 -24 -56 -64 -76 -64 -7 0 -19 -9 -27 -21 -14 -19 -12 -25 15 -69 22 -35 29 -56 24 -74 -9 -38 -53 -84 -87 -91 -41 -9 -46 -29 -20 -75 22 -40 27 -90 11 -120 -13 -24 -72 -60 -98 -60 -30 0 -37 -18 -16 -41 22 -25 22 -90 -1 -125 -19 -30 -70 -57 -94 -49 -11 3 -25 -3 -36 -15 -16 -18 -17 -25 -6 -55 10 -28 9 -39 -2 -62 -26 -49 -53 -66 -102 -65 -53 0 -63 -10 -41 -43 14 -21 15 -32 5 -71 -14 -54 -53 -84 -109 -84 -45 0 -63 -16 -49 -42 30 -57 -6 -128 -65 -128 l-31 0 25 -24 c27 -27 232 -144 319 -183 42 -19 79 -26 159 -30 l104 -6 53 -46 c29 -25 88 -91 132 -146 44 -55 98 -117 122 -138 41 -37 42 -37 66 -20 31 23 31 27 -5 65 -41 42 -42 100 -3 140 l27 28 -33 28 c-32 27 -34 30 -29 82 4 43 11 58 32 75 33 26 33 42 0 76 -15 16 -28 43 -31 66 -5 36 -2 42 36 76 23 20 41 40 41 43 0 3 -11 20 -24 37 -14 18 -27 44 -31 59 -8 33 19 93 51 115 30 19 31 49 2 64 -35 18 -47 40 -48 81 0 29 7 43 35 69 19 19 35 39 35 45 0 6 -16 31 -35 55 -47 59 -47 96 0 140 19 19 35 38 35 44 0 5 -16 24 -35 40 -25 21 -38 41 -42 68 -5 34 -2 41 36 77 22 21 41 42 41 46 0 4 -16 24 -35 45 -24 27 -35 49 -35 70 0 38 24 85 50 99 28 15 25 31 -15 69 -47 44 -49 96 -5 138 17 15 30 34 30 42 0 8 -16 28 -37 46 -49 42 -51 87 -5 125 18 15 32 31 32 37 0 6 -16 28 -35 49 -51 55 -42 110 23 143 29 15 28 24 -7 63 -15 18 -31 43 -35 56 -8 26 -12 26 -48 4z"
       id="path60"
       style="fill:#ffdead" />
    <path
       d="M4747 5266 c-10 -8 -20 -29 -23 -48 -5 -27 -1 -40 21 -66 31 -37 53 -40 86 -13 67 54 -16 179 -84 127z"
       id="path62"
       style="fill:#cd853f" />
    <path
       d="M4452 5214 c-34 -23 -27 -83 10 -104 25 -13 30 -13 55 2 38 23 44 79 11 102 -12 9 -29 16 -38 16 -9 0 -26 -7 -38 -16z"
       id="path64"
       style="fill:#fa8072" />
    <path
       d="M4962 5190 c-41 -38 -18 -110 35 -110 50 0 73 85 31 114 -29 21 -40 20 -66 -4z"
       id="path66"
       style="fill:#fa8072" />
    <path
       d="M4333 5029 c-47 -17 -55 -87 -12 -109 56 -31 119 25 88 78 -17 30 -46 42 -76 31z"
       id="path68"
       style="fill:#8b4513" />
    <path
       d="M4684 5005 c-17 -26 -13 -67 8 -92 16 -19 72 -16 91 5 22 25 21 75 -1 95 -29 26 -78 22 -98 -8z"
       id="path70"
       style="fill:#cd853f" />
    <path
       d="M4962 4970 c-24 -23 -29 -69 -10 -88 7 -7 26 -12 43 -12 17 0 36 5 43 12 18 18 14 73 -6 91 -25 22 -44 21 -70 -3z"
       id="path72"
       style="fill:#fa8072" />
    <path
       d="M4180 4800 c-25 -25 -25 -51 -2 -80 39 -48 121 -10 107 49 -12 51 -68 68 -105 31z"
       id="path74"
       style="fill:#cd853f" />
    <path
       d="M4628 4784 c-38 -20 -46 -58 -21 -92 26 -36 68 -40 99 -11 28 26 30 56 6 85 -23 30 -52 36 -84 18z"
       id="path76"
       style="fill:#cd853f" />
    <path
       d="M4978 4759 c-26 -15 -25 -85 1 -99 29 -15 49 -12 71 10 53 53 -8 127 -72 89z"
       id="path78"
       style="fill:#cd853f" />
    <path
       d="M4036 4596 c-33 -52 -5 -100 55 -94 47 4 71 46 49 86 -22 39 -80 44 -104 8z"
       id="path80"
       style="fill:#8b4513" />
    <path
       d="M4567 4533 c-9 -2 -24 -18 -33 -34 -12 -25 -13 -34 -2 -57 31 -64 120 -50 126 20 2 29 -2 40 -24 57 -27 21 -34 23 -67 14z"
       id="path82"
       style="fill:#8b4513" />
    <path
       d="M4977 4522 c-26 -29 -22 -78 9 -98 24 -16 27 -16 52 3 34 25 40 65 13 92 -26 26 -53 27 -74 3z"
       id="path84"
       style="fill:#cd853f" />
    <path
       d="M3899 4440 c-25 -15 -32 -58 -14 -86 18 -28 59 -32 93 -8 61 42 -14 132 -79 94z"
       id="path86"
       style="fill:#cd853f" />
    <path
       d="M3692 4277 c-26 -28 -27 -45 -6 -75 18 -26 74 -30 98 -6 24 23 20 70 -6 88 -32 22 -61 20 -86 -7z"
       id="path88"
       style="fill:#fa8072" />
    <path
       d="M4966 4278 c-9 -12 -16 -29 -16 -38 0 -26 30 -60 53 -60 51 1 80 65 47 104 -19 24 -66 20 -84 -6z"
       id="path90"
       style="fill:#8b4513" />
    <path
       d="M4469 4272 c-50 -41 -11 -132 50 -117 30 7 61 40 61 65 0 28 -39 70 -65 70 -12 0 -33 -8 -46 -18z"
       id="path92"
       style="fill:#fa8072" />
    <path
       d="M3512 4154 c-41 -29 -20 -89 36 -100 55 -11 96 61 56 100 -20 20 -63 20 -92 0z"
       id="path94"
       style="fill:#fa8072" />
    <path
       d="M4969 4059 c-38 -38 -7 -108 48 -109 27 0 63 36 63 65 0 29 -36 65 -65 65 -14 0 -34 -9 -46 -21z"
       id="path96"
       style="fill:#fa8072" />
    <path
       d="M4360 4048 c-27 -29 -25 -64 5 -93 31 -32 56 -31 89 1 32 33 33 64 3 92 -30 28 -71 28 -97 0z"
       id="path98"
       style="fill:#cd853f" />
    <path
       d="M3334 4014 c-37 -55 25 -117 80 -80 18 11 26 25 26 45 0 59 -75 84 -106 35z"
       id="path100"
       style="fill:#cd853f" />
    <path
       d="M2586 3974 c-11 -28 5 -64 31 -70 39 -10 49 10 22 45 -30 37 -46 44 -53 25z"
       id="path102"
       style="fill:#cd853f" />
    <path
       d="M3155 3925 c-39 -38 -28 -83 26 -100 56 -18 92 62 47 105 -28 26 -44 25 -73 -5z"
       id="path104"
       style="fill:#fa8072" />
    <path
       d="M2707 3892 c-26 -28 -21 -69 9 -89 24 -15 28 -15 52 0 37 21 42 69 10 91 -29 21 -51 20 -71 -2z"
       id="path106"
       style="fill:#cd853f" />
    <path
       d="M3290 3890 c0 -74 -99 -128 -156 -85 -10 8 -31 15 -45 15 -25 0 -59 -26 -59 -47 0 -5 -10 -19 -23 -31 -41 -38 -89 -26 -144 36 l-32 37 -25 -24 c-14 -14 -26 -30 -26 -37 0 -12 61 -163 105 -259 12 -27 25 -60 29 -72 4 -13 15 -23 25 -23 25 0 71 -38 82 -68 7 -19 13 -22 21 -14 20 20 61 13 90 -15 15 -15 28 -33 28 -41 0 -11 8 -13 35 -8 42 8 78 -12 95 -54 10 -24 15 -28 30 -20 35 19 69 11 109 -25 45 -41 61 -44 61 -11 0 60 90 97 156 63 42 -22 68 -6 60 37 -12 64 63 137 120 116 15 -6 29 -9 31 -6 3 2 -44 46 -104 98 -222 192 -313 281 -350 346 -14 26 -37 62 -50 80 -27 36 -63 43 -63 12z"
       id="path108"
       style="fill:#deb887" />
    <path
       d="M6315 3870 c-4 -6 8 -10 29 -10 88 0 261 -142 321 -265 57 -117 111 -354 114 -503 2 -113 -13 -217 -58 -402 -44 -178 -91 -297 -157 -401 -89 -141 -246 -277 -439 -379 -97 -52 -173 -94 -225 -123 -41 -24 -235 -50 -405 -54 l-160 -5 -67 35 c-105 55 -150 104 -200 222 -12 27 -13 21 -16 -76 -3 -113 -6 -102 69 -228 9 -15 20 -37 24 -50 18 -59 135 -219 196 -270 l64 -53 104 7 c96 5 115 10 228 57 68 28 178 81 244 119 66 38 122 69 126 69 6 0 134 89 143 100 3 3 69 57 147 119 170 136 287 270 356 408 24 48 48 99 52 113 4 14 32 80 61 147 53 121 62 150 84 268 7 33 16 79 21 101 15 71 13 263 -4 324 -68 240 -126 378 -187 445 -15 17 -34 41 -43 55 -48 70 -196 200 -230 200 -8 0 -26 9 -40 20 -19 15 -40 20 -85 20 -34 0 -64 -4 -67 -10z"
       id="path110"
       style="fill:#9932cc" />
    <path
       d="M2910 3851 c-15 -29 -12 -56 8 -74 52 -47 126 28 76 77 -22 23 -71 20 -84 -3z"
       id="path112"
       style="fill:#cd853f" />
    <path
       d="M4210 3830 c-26 -26 -25 -64 2 -90 44 -41 111 -11 111 50 0 57 -71 82 -113 40z"
       id="path114"
       style="fill:#cd853f" />
    <path
       d="M4971 3814 c-26 -33 -27 -58 -1 -84 39 -39 110 -11 110 43 0 29 -39 67 -67 67 -12 0 -31 -12 -42 -26z"
       id="path116"
       style="fill:#fa8072" />
    <path
       d="M6175 3799 c-58 -24 -77 -38 -69 -50 7 -12 112 -90 144 -108 14 -7 85 -44 159 -82 122 -63 140 -69 194 -69 l60 0 -7 32 c-18 91 -123 221 -217 268 -50 26 -69 30 -136 29 -54 0 -93 -6 -128 -20z"
       id="path118"
       style="fill:#7b68ee" />
    <path
       d="M4066 3647 c-31 -31 -33 -60 -6 -87 41 -41 120 -12 120 43 0 33 -20 56 -57 63 -26 5 -37 1 -57 -19z"
       id="path120"
       style="fill:#8b4513" />
    <path
       d="M4975 3585 c-14 -13 -25 -33 -25 -45 0 -24 42 -70 63 -70 8 0 26 9 41 21 35 28 35 70 0 98 -34 27 -50 26 -79 -4z"
       id="path122"
       style="fill:#8b4513" />
    <path
       d="M2798 3476 c-10 -7 -18 -26 -18 -41 0 -33 24 -54 62 -55 38 0 41 11 18 64 -20 48 -33 54 -62 32z"
       id="path124"
       style="fill:#fa8072" />
    <path
       d="M3927 3462 c-34 -38 -7 -112 42 -112 29 0 71 39 71 66 0 54 -78 85 -113 46z"
       id="path126"
       style="fill:#fa8072" />
    <path
       d="M4945 3354 c-26 -26 -16 -85 18 -104 24 -13 30 -13 55 0 34 19 42 72 16 101 -21 23 -67 25 -89 3z"
       id="path128"
       style="fill:#cd853f" />
    <path
       d="M2888 3335 c-18 -40 3 -75 45 -75 40 0 57 15 57 50 0 35 -17 50 -57 50 -26 0 -36 -6 -45 -25z"
       id="path130"
       style="fill:#fa8072" />
    <path
       d="M3761 3304 c-24 -31 -25 -35 -10 -67 15 -34 52 -50 83 -36 22 10 46 47 46 70 0 18 -52 59 -76 59 -12 0 -32 -12 -43 -26z"
       id="path132"
       style="fill:#8b4513" />
    <path
       d="M3908 3270 c4 -35 0 -44 -32 -76 -36 -36 -38 -36 -94 -30 -50 6 -61 4 -80 -14 -12 -11 -22 -30 -22 -41 0 -28 -26 -75 -45 -83 -34 -13 -74 -5 -116 23 -24 16 -47 27 -52 24 -4 -2 -19 -22 -33 -44 -21 -33 -29 -39 -60 -39 -45 0 -73 15 -84 46 -11 27 -32 39 -54 31 -12 -5 -8 -19 19 -74 47 -97 75 -199 75 -276 0 -107 -74 -373 -121 -438 -20 -27 29 -120 82 -156 59 -40 142 -74 203 -83 28 -4 83 -18 121 -30 117 -36 136 -40 240 -40 167 0 286 49 409 168 57 56 250 365 270 433 32 110 38 142 37 194 -1 33 -12 100 -24 150 -26 100 -27 102 -132 131 -138 38 -217 70 -270 109 -16 12 -50 32 -75 45 -25 13 -70 42 -101 66 -30 24 -57 44 -60 44 -2 0 -3 -18 -1 -40z"
       id="path134"
       style="fill:#deb887" />
    <path
       d="M3042 3278 c-7 -7 -12 -24 -12 -38 0 -14 5 -31 12 -38 7 -7 24 -12 38 -12 14 0 31 5 38 12 7 7 12 24 12 38 0 14 -5 31 -12 38 -7 7 -24 12 -38 12 -14 0 -31 -5 -38 -12z"
       id="path136"
       style="fill:#fa8072" />
    <path
       d="M3193 3208 c-49 -24 -10 -117 41 -99 24 9 33 58 16 91 -12 22 -24 24 -57 8z"
       id="path138"
       style="fill:#fa8072" />
    <path
       d="M3547 3162 c-36 -39 -7 -102 45 -102 25 0 58 36 58 63 0 50 -70 76 -103 39z"
       id="path140"
       style="fill:#fa8072" />
    <path
       d="M3315 3127 c-11 -18 -13 -31 -6 -49 21 -55 69 -63 105 -15 19 26 19 30 5 55 -21 38 -81 44 -104 9z"
       id="path142"
       style="fill:#cd853f" />
    <path
       d="M4936 3116 c-31 -31 -32 -45 -5 -80 25 -31 61 -34 89 -6 37 37 20 93 -32 105 -21 5 -33 1 -52 -19z"
       id="path144"
       style="fill:#fa8072" />
    <path
       d="M3152 2998 c-7 -7 -12 -17 -12 -23 0 -6 -21 -46 -46 -90 -155 -266 -163 -328 -85 -603 28 -96 68 -173 133 -258 66 -88 59 -81 158 -151 177 -124 338 -175 459 -144 100 26 184 41 227 41 27 0 69 7 92 15 24 9 71 18 105 21 130 13 153 24 388 186 75 52 95 76 56 70 -62 -11 -93 33 -76 109 6 24 7 54 4 67 -11 46 7 52 146 52 l129 0 1 73 c1 39 0 86 -1 104 -2 38 13 69 52 105 51 48 43 63 -136 246 -55 56 -104 102 -108 102 -15 0 -8 -41 17 -92 15 -30 25 -69 25 -92 -1 -44 -27 -107 -47 -114 -15 -4 -18 34 -3 43 12 8 13 125 1 125 -4 0 -11 -24 -15 -52 -12 -103 -54 -217 -112 -311 -106 -172 -131 -212 -152 -248 -25 -42 -149 -152 -201 -178 -20 -10 -69 -30 -109 -45 -103 -37 -249 -37 -377 -1 -50 14 -98 30 -107 35 -10 6 -33 10 -52 10 -40 0 -179 57 -239 99 -80 55 -128 183 -130 347 -1 52 -4 94 -8 94 -3 0 -12 -18 -19 -40 -15 -47 -30 -52 -30 -12 0 50 35 137 88 220 29 45 52 84 52 88 0 5 11 20 25 34 l26 27 -21 54 c-37 95 -65 120 -98 87z"
       id="path146"
       style="fill:#9932cc" />
    <path
       d="M4946 2919 c-38 -30 -36 -73 6 -99 28 -17 34 -17 58 -5 47 24 53 63 15 100 -29 30 -45 31 -79 4z"
       id="path148"
       style="fill:#cd853f" />
    <path
       d="M3230 2728 c-34 -47 -34 -46 -48 -178 -13 -116 6 -251 24 -174 3 16 12 38 19 49 20 32 57 194 63 273 4 62 2 72 -12 72 -9 0 -30 -19 -46 -42z"
       id="path150"
       style="fill:#7b68ee" />
    <path
       d="M4956 2717 c-37 -27 -12 -96 35 -97 43 -1 67 80 30 100 -26 13 -43 13 -65 -3z"
       id="path152"
       style="fill:#cd853f" />
    <path
       d="M5075 2399 c-4 -60 -5 -112 -3 -115 3 -2 47 -6 99 -9 119 -7 198 -24 208 -44 4 -9 6 -52 5 -96 -2 -69 -5 -81 -25 -98 -21 -17 -34 -18 -141 -11 -65 3 -118 3 -118 -2 0 -20 27 -83 53 -122 31 -46 113 -104 174 -122 54 -17 292 -7 423 17 78 14 127 30 190 62 47 23 89 46 94 51 5 5 -16 21 -50 38 -32 16 -75 38 -94 49 -19 11 -55 31 -80 45 -198 111 -569 351 -657 425 -28 23 -56 43 -61 43 -5 0 -13 -50 -17 -111z"
       id="path154"
       style="fill:#7b68ee" />
    <path
       d="M4880 2394 l0 -106 27 7 c16 4 30 9 32 11 3 3 0 31 -7 62 -18 87 -16 101 14 108 17 4 31 1 41 -9 14 -14 14 -24 4 -77 -7 -34 -15 -68 -18 -76 -3 -8 5 -18 22 -24 15 -6 29 -9 31 -8 1 2 6 51 10 111 l7 107 -82 0 -81 0 0 -106z"
       id="path156"
       style="fill:#0000cd" />
    <path
       d="M4938 2449 c-8 -23 5 -89 17 -89 16 0 25 23 25 66 0 27 -4 34 -19 34 -11 0 -21 -5 -23 -11z"
       id="path158"
       style="fill:#483d8b" />
    <path
       d="M4897 2263 c-4 -3 -2 -12 4 -20 9 -10 15 -10 25 -2 8 6 14 15 14 20 0 10 -34 12 -43 2z"
       id="path160"
       style="fill:#191970" />
    <path
       d="M4976 2261 c-7 -10 22 -37 30 -28 9 8 -3 37 -15 37 -5 0 -12 -4 -15 -9z"
       id="path162"
       style="fill:#191970" />
    <path
       d="M4608 2243 c-2 -5 -3 -35 -3 -68 l0 -59 35 -7 c61 -12 190 -18 190 -9 0 5 -5 21 -10 35 -11 28 -23 30 -102 10 -15 -4 -39 -4 -53 -1 -21 5 -25 12 -25 42 0 22 6 37 16 41 14 5 87 -12 109 -27 31 -21 45 -18 60 9 8 16 11 31 8 35 -9 9 -221 8 -225 -1z"
       id="path164"
       style="fill:#0000cd" />
    <path
       d="M4938 2228 c-3 -8 -20 -12 -45 -12 -33 1 -42 -3 -46 -17 -5 -20 17 -27 28 -9 3 6 11 10 18 10 8 0 8 -3 -1 -12 -15 -15 -16 -48 -2 -48 6 0 10 -7 10 -15 0 -9 8 -19 18 -22 9 -4 20 -11 24 -17 4 -7 13 -5 25 6 10 8 24 13 31 11 7 -3 12 4 12 16 0 12 5 21 10 21 6 0 10 9 10 20 0 11 -4 20 -10 20 -5 0 -10 8 -10 19 0 10 -8 21 -17 24 -10 2 -25 8 -34 12 -10 4 -19 1 -21 -7z"
       id="path166"
       style="fill:#483d8b" />
    <path
       d="M5070 2230 c0 -4 5 -21 11 -39 8 -21 15 -29 23 -23 18 14 101 34 127 30 20 -2 24 -9 24 -38 0 -34 -1 -35 -40 -34 -22 0 -60 4 -85 8 -42 7 -46 6 -57 -18 -6 -14 -8 -28 -4 -30 4 -3 65 -8 135 -12 l127 -7 -3 74 -3 74 -40 6 c-67 11 -215 17 -215 9z"
       id="path168"
       style="fill:#0000cd" />
    <path
       d="M5030 2201 c0 -12 6 -21 15 -21 8 0 15 4 15 9 0 5 -7 14 -15 21 -13 10 -15 9 -15 -9z"
       id="path170"
       style="fill:#191970" />
    <path
       d="M4658 2198 c-10 -26 4 -38 42 -38 67 0 66 33 -1 45 -26 5 -38 3 -41 -7z"
       id="path172"
       style="fill:#483d8b" />
    <path
       d="M5190 2181 c-22 -4 -36 -12 -38 -23 -3 -15 4 -18 42 -18 25 0 47 4 50 9 7 11 -3 42 -13 40 -3 -1 -22 -4 -41 -8z"
       id="path174"
       style="fill:#483d8b" />
    <path
       d="M4852 2126 c1 -10 8 -17 13 -17 15 1 12 24 -3 29 -9 3 -13 -2 -10 -12z"
       id="path176"
       style="fill:#191970" />
    <path
       d="M5030 2125 c0 -8 4 -15 9 -15 5 0 11 7 15 15 3 9 0 15 -9 15 -8 0 -15 -7 -15 -15z"
       id="path178"
       style="fill:#191970" />
    <path
       d="M4900 2076 c0 -14 24 -29 33 -19 3 3 3 11 0 19 -7 18 -33 18 -33 0z"
       id="path180"
       style="fill:#191970" />
    <path
       d="M4970 2074 c0 -9 7 -14 17 -12 25 5 28 28 4 28 -12 0 -21 -6 -21 -16z"
       id="path182"
       style="fill:#191970" />
    <path
       d="M4856 1998 c-15 -175 -15 -190 0 -171 7 10 14 25 14 34 0 10 14 49 31 89 17 40 29 73 27 74 -2 0 -17 9 -35 19 l-31 17 -6 -62z"
       id="path184"
       style="fill:#0000cd" />
    <path
       d="M4980 2031 c-28 -8 -28 -8 -7 -111 14 -68 21 -125 18 -157 -4 -44 -100 -54 -132 -14 -15 18 -16 14 -23 -77 -4 -53 -11 -146 -16 -207 -24 -284 -24 -270 -6 -288 25 -24 100 -23 125 2 11 11 22 39 25 63 20 161 26 232 26 289 0 35 4 102 9 149 13 111 21 360 13 359 -4 -1 -18 -4 -32 -8z m-22 -389 c17 -23 15 -56 -7 -80 -23 -28 -49 -28 -78 0 -30 28 -29 53 2 84 27 27 59 26 83 -4z m-16 -149 c27 -24 23 -69 -8 -89 -55 -37 -117 25 -80 80 19 30 60 35 88 9z m-28 -154 c44 -20 44 -88 0 -108 -29 -13 -71 3 -79 30 -13 39 8 75 52 88 1 1 13 -4 27 -10z"
       id="path186"
       style="fill:#0000cd" />
    <path
       d="M4883 1635 c-17 -19 -16 -43 2 -61 19 -20 44 -15 61 11 27 41 -32 86 -63 50z"
       id="path188"
       style="fill:#483d8b" />
    <path
       d="M4870 1475 c-26 -32 13 -81 48 -59 34 22 22 74 -18 74 -10 0 -23 -7 -30 -15z"
       id="path190"
       style="fill:#483d8b" />
    <path
       d="M4862 1318 c-17 -17 -15 -53 3 -68 12 -10 21 -10 40 -2 40 19 29 82 -15 82 -9 0 -21 -5 -28 -12z"
       id="path192"
       style="fill:#483d8b" />
    <path
       d="M4928 1944 c-13 -23 -49 -155 -46 -170 2 -11 14 -18 33 -19 44 -3 54 9 48 58 -8 62 -29 142 -35 131z"
       id="path194"
       style="fill:#0000cd" />
  </g>
</svg>
