<?xml version="1.0" standalone="no"?>
<!DOCTYPE svg PUBLIC "-//W3C//DTD SVG 20010904//EN"
 "http://www.w3.org/TR/2001/REC-SVG-20010904/DTD/svg10.dtd">
<svg version="1.0" xmlns="http://www.w3.org/2000/svg"
 width="850.000000pt" height="850.000000pt" viewBox="0 0 850.000000 850.000000"
 preserveAspectRatio="xMidYMid meet">
<metadata>
Created by potrace 1.14, written by Peter Selinger 2001-2017
</metadata>
<g transform="translate(0.000000,850.000000) scale(0.100000,-0.100000)"
fill="#000000" stroke="none">
<path d="M0 8490 c0 -5 5 -10 10 -10 6 0 10 5 10 10 0 6 -4 10 -10 10 -5 0
-10 -4 -10 -10z"/>
<path d="M546 8488 c4 -7 16 -21 25 -33 53 -61 629 -801 629 -807 0 -5 -20 -8
-45 -8 -53 0 -54 -2 -57 -130 l-3 -85 -21 36 c-12 20 -39 49 -60 65 -33 26
-45 29 -108 28 -39 0 -80 -4 -92 -8 -20 -7 -22 -3 -33 67 -31 193 -169 340
-367 392 -116 30 -261 9 -348 -50 -20 -14 -43 -25 -51 -25 -11 0 -15 -12 -15
-40 0 -22 3 -40 7 -40 4 0 21 13 38 29 139 134 414 117 569 -36 61 -61 91
-112 112 -193 43 -170 -35 -346 -184 -413 -66 -30 -182 -30 -237 0 -171 91
-196 329 -43 409 75 39 178 -12 178 -87 0 -29 23 -55 40 -44 16 10 11 67 -9
101 -11 18 -36 45 -57 60 -31 24 -47 29 -95 29 -48 0 -65 -5 -101 -30 -168
-119 -130 -384 70 -482 47 -23 70 -28 133 -28 70 0 84 4 155 40 93 48 143 103
183 201 33 81 68 108 140 108 97 0 157 -67 155 -171 -2 -61 -1 -63 22 -57 l24
6 0 -161 c0 -89 -2 -161 -5 -161 -3 0 -29 12 -58 27 -68 34 -183 43 -242 19
-101 -42 -174 -127 -195 -227 -16 -71 4 -145 55 -211 49 -65 176 -123 214 -99
25 16 4 38 -43 45 -63 10 -124 58 -159 126 -24 46 -28 63 -23 108 8 88 72 174
153 209 43 18 155 17 200 -2 67 -28 103 -62 103 -99 0 -36 15 -56 42 -56 21 0
38 -36 38 -79 0 -15 -13 -52 -30 -82 -32 -60 -60 -162 -60 -222 0 -27 -5 -39
-17 -43 -10 -3 -50 -21 -88 -40 -136 -67 -284 -69 -419 -6 -75 35 -165 115
-203 180 -30 50 -44 50 -55 -1 -19 -90 -70 -151 -154 -183 l-47 -18 -21 25
c-20 23 -68 59 -81 59 -3 0 -5 -13 -5 -29 0 -25 3 -28 24 -24 23 5 29 -5 84
-119 l60 -125 109 -18 c119 -20 153 -30 153 -44 0 -11 -110 -51 -250 -90 -143
-39 -145 -40 -164 -29 -30 17 -20 -45 14 -83 120 -134 220 -284 220 -328 0
-43 -21 -37 -158 41 -46 27 -85 48 -88 48 -2 0 -4 -11 -4 -25 0 -18 5 -25 18
-25 10 0 60 -23 110 -51 101 -56 124 -58 168 -14 31 31 31 59 -1 251 l-7 41
96 93 c87 85 96 97 96 130 0 57 -33 84 -122 100 -175 30 -169 27 -204 100 -18
36 -29 68 -25 71 3 3 27 13 53 23 44 16 111 77 148 135 l16 23 57 -55 c37 -36
86 -70 139 -97 159 -77 305 -77 456 1 41 21 78 37 82 34 4 -2 10 -36 13 -75 7
-85 43 -169 94 -222 l36 -37 -24 -63 c-22 -56 -28 -63 -54 -66 -17 -2 -33 -9
-37 -15 -4 -7 -8 -61 -8 -121 0 -63 -6 -132 -15 -165 -18 -69 -51 -269 -60
-363 -7 -76 -28 -93 -39 -30 -3 20 -17 54 -31 74 l-25 37 23 3 c19 3 22 10 25
62 3 65 -4 75 -53 76 l-30 1 43 37 c42 36 43 38 40 92 l-3 55 -150 0 -150 0
-3 -59 c-3 -64 7 -80 45 -71 38 9 35 -13 -7 -46 -40 -32 -41 -34 -38 -88 3
-48 6 -56 26 -61 l23 -5 -25 -34 c-15 -20 -29 -55 -32 -83 -4 -26 -9 -48 -12
-48 -2 0 -144 -9 -315 -20 -171 -12 -317 -18 -324 -16 -9 4 -13 -4 -13 -25 0
-30 0 -30 48 -24 68 8 514 35 576 35 46 0 55 -3 74 -30 28 -37 28 -40 -3 -40
l-25 0 0 -209 c0 -130 4 -212 10 -216 7 -4 7 -13 0 -25 -6 -11 -13 -45 -16
-78 -7 -68 18 -142 56 -162 28 -15 81 -16 107 -2 11 6 25 7 33 2 11 -7 -1 -16
-45 -35 -33 -15 -79 -35 -102 -45 -41 -18 -42 -19 -45 -75 l-3 -56 -57 -23
c-31 -13 -79 -40 -108 -61 -55 -40 -449 -225 -481 -225 -15 0 -19 -7 -19 -34
l0 -34 150 70 c83 39 153 68 156 66 3 -3 -23 -34 -56 -69 -34 -35 -98 -108
-142 -161 -44 -53 -86 -99 -94 -102 -10 -4 -14 -23 -14 -67 0 -54 2 -60 18
-54 9 4 40 10 67 15 194 33 372 103 520 206 l70 49 150 5 150 5 3 98 c2 61 7
97 13 97 6 0 33 -18 60 -41 l48 -40 3 -117 3 -117 39 -20 c21 -11 38 -24 38
-28 -3 -18 -158 -127 -182 -127 -5 0 -10 17 -10 38 0 60 -18 109 -51 136 -35
29 -84 34 -115 11 -25 -19 -43 -19 -65 1 -25 23 -44 12 -71 -38 -29 -55 -32
-170 -6 -209 16 -25 15 -26 -21 -65 -35 -38 -44 -42 -142 -62 -162 -34 -257
-44 -393 -40 l-126 3 0 -27 0 -28 99 0 c138 0 286 16 421 47 158 35 144 39
150 -37 l5 -65 39 -5 38 -5 -42 -39 c-40 -37 -41 -40 -39 -95 l3 -56 -55 -7
c-95 -11 -260 -8 -403 7 -77 8 -148 17 -158 20 -10 3 -27 8 -38 11 -17 4 -20
1 -20 -24 0 -28 2 -30 53 -35 28 -3 102 -10 162 -17 68 -8 189 -11 315 -8 189
5 202 4 172 -10 -31 -15 -32 -17 -32 -84 0 -63 2 -69 25 -80 59 -27 22 -31
-207 -25 -205 5 -411 24 -469 42 -16 5 -19 1 -19 -23 0 -24 4 -30 23 -30 12 1
81 -6 152 -15 72 -9 211 -18 310 -20 l180 -4 5 -69 5 -69 46 -25 c26 -14 47
-29 48 -34 1 -4 -21 -19 -48 -32 -50 -23 -51 -24 -51 -69 0 -38 -4 -47 -22
-54 -45 -17 -306 -43 -475 -48 l-173 -6 0 -27 c0 -26 2 -27 48 -24 26 2 119 8
207 14 152 11 341 32 413 46 35 7 38 1 17 -36 -10 -18 -14 -62 -15 -163 l0
-137 -28 -11 c-75 -29 -475 -116 -580 -126 -61 -6 -62 -6 -62 -36 0 -21 4 -28
14 -24 8 3 59 13 113 22 102 18 358 74 453 100 95 26 89 33 92 -117 l3 -133
43 -3 c38 -3 43 -6 40 -25 -2 -17 -11 -23 -43 -27 -37 -5 -40 -8 -45 -39 -5
-34 -6 -35 -90 -58 -207 -56 -534 -118 -564 -107 -13 5 -16 -1 -16 -26 0 -29
2 -31 28 -26 15 3 71 12 125 21 115 18 282 54 417 89 80 21 97 23 108 12 11
-11 11 -18 3 -35 -7 -12 -14 -49 -17 -84 -5 -51 -2 -69 15 -102 19 -35 20 -41
6 -51 -10 -8 -15 -29 -15 -66 0 -32 -5 -60 -12 -66 -31 -24 -508 -112 -612
-112 -44 0 -46 -1 -46 -30 0 -26 3 -30 22 -26 13 3 59 10 103 16 113 15 345
57 444 80 47 10 89 16 93 14 4 -3 8 -49 8 -104 0 -80 3 -99 16 -104 20 -8 258
-8 278 0 12 5 16 21 16 69 l0 64 -42 3 -43 3 0 60 0 60 41 3 c32 2 43 8 47 23
5 18 37 36 95 53 l22 7 0 -175 c0 -99 4 -177 9 -181 6 -3 182 -6 392 -5 299 0
384 2 391 12 4 7 8 129 8 270 0 242 -9 349 -31 372 -19 21 -7 45 34 69 23 14
45 22 50 18 4 -4 6 -185 5 -402 l-3 -394 -978 0 -977 0 0 -32 0 -32 4235 -1
c2329 0 4241 -3 4250 -6 12 -5 15 2 15 37 l0 44 -59 -3 -60 -4 -11 44 c-29
107 -149 384 -174 400 -22 15 -28 -11 -12 -53 23 -56 43 -173 51 -291 l6 -97
-26 -7 c-35 -9 -55 11 -55 55 0 50 -42 197 -76 268 -33 69 -89 159 -105 168
-25 16 -30 -13 -10 -53 24 -48 47 -112 56 -162 5 -30 4 -33 -7 -18 -7 10 -28
44 -47 77 -48 84 -84 126 -103 118 -14 -5 -11 -17 22 -82 47 -94 72 -194 74
-294 l1 -76 -102 -3 c-100 -3 -102 -2 -128 25 -96 102 -190 293 -235 481 -13
52 -40 58 -40 10 1 -67 50 -304 90 -437 24 -75 24 -81 6 -81 -8 0 -30 35 -51
77 -80 170 -297 454 -325 427 -9 -9 4 -43 54 -145 65 -131 106 -257 106 -326
0 -32 -1 -33 -44 -33 -43 0 -43 0 -50 42 -9 53 -36 98 -81 132 -29 22 -33 30
-25 46 5 10 10 37 10 60 0 76 -45 131 -125 151 -27 7 -51 14 -53 15 -1 0 7 23
18 50 31 71 37 192 15 274 -27 97 -25 110 14 137 42 29 75 29 126 0 48 -26 92
-106 101 -182 8 -73 11 -80 29 -65 8 7 15 25 15 41 0 17 8 34 22 43 30 21 39
20 80 -8 41 -27 53 -23 62 21 10 43 56 105 98 131 90 56 185 46 257 -27 52
-51 71 -100 71 -180 0 -59 12 -65 57 -27 42 35 68 46 107 46 27 0 40 -7 59
-31 29 -37 57 -34 57 6 0 59 48 125 92 125 30 0 68 -43 93 -105 27 -67 38 -76
56 -43 19 37 61 78 81 78 13 0 18 8 18 30 0 17 -4 30 -9 30 -4 0 -29 -18 -54
-41 -42 -37 -67 -44 -67 -18 0 22 -48 80 -78 95 -27 12 -39 13 -67 4 -38 -13
-82 -58 -91 -96 -7 -28 -12 -29 -38 -9 -28 21 -85 19 -129 -5 -20 -11 -38 -20
-40 -20 -2 0 -9 25 -16 55 -15 65 -58 126 -119 169 -110 78 -282 25 -353 -108
-20 -38 -26 -43 -42 -34 -18 9 -71 8 -106 -3 -9 -3 -19 12 -29 40 -20 59 -88
127 -142 141 -52 14 -92 6 -131 -27 l-30 -26 -52 56 c-54 57 -92 81 -161 101
-35 10 -41 16 -38 37 6 41 45 102 81 126 23 16 49 23 81 23 93 0 243 -100 317
-212 34 -51 56 -47 64 11 7 51 53 101 95 101 38 0 82 -27 99 -60 9 -18 23 -30
35 -30 18 0 20 7 20 89 0 165 38 278 120 355 65 61 104 78 186 84 82 5 126
-11 181 -65 79 -80 109 -185 99 -359 -6 -126 -1 -149 29 -124 9 7 15 30 15 52
0 30 7 46 29 69 40 40 85 39 136 -1 24 -19 42 -27 48 -21 5 5 10 42 11 83 3
105 59 214 123 239 17 6 23 16 23 39 0 16 -2 30 -5 30 -3 0 -22 -11 -43 -24
l-37 -25 -120 19 c-188 28 -260 48 -316 86 -58 39 -105 54 -171 54 -32 0 -74
12 -130 36 -106 46 -110 50 -73 77 16 12 63 49 103 82 133 108 110 100 200 71
132 -41 242 -56 425 -56 l167 0 0 31 c0 26 -3 30 -17 24 -35 -14 -211 -17
-314 -5 -112 12 -229 37 -242 49 -7 7 73 34 228 76 88 25 215 36 280 25 33 -5
61 -10 63 -10 1 0 2 20 2 45 l0 44 -67 33 c-56 27 -82 34 -150 36 -45 2 -102
0 -127 -6 -25 -5 -46 -8 -46 -5 0 12 106 123 118 123 7 0 29 -8 50 -19 20 -10
69 -26 107 -35 124 -30 115 -30 115 3 0 26 -3 29 -37 29 -43 1 -160 35 -185
54 -16 12 -7 25 83 128 55 63 109 122 120 131 15 11 20 24 17 53 l-3 38 -105
-124 c-58 -67 -167 -187 -244 -265 l-139 -143 -49 0 c-55 0 -111 20 -146 53
-13 12 -41 52 -63 89 -71 120 -128 168 -203 168 -26 0 -36 5 -41 20 -11 35
-63 70 -106 70 -33 0 -39 3 -39 20 0 34 -36 94 -78 132 -53 48 -100 62 -183
55 l-68 -6 -383 276 c-211 151 -389 280 -396 287 -10 9 -5 30 24 100 41 104
95 286 119 406 9 47 20 88 24 93 4 4 27 1 52 -7 24 -8 191 -62 371 -121 l327
-106 -21 -44 c-12 -24 -28 -47 -36 -50 -8 -3 -60 -10 -114 -16 -54 -5 -109
-14 -122 -19 -33 -12 -56 -48 -56 -88 0 -29 13 -47 90 -127 49 -51 90 -95 90
-97 0 -1 -11 -57 -24 -122 -15 -77 -21 -128 -16 -142 11 -29 58 -64 85 -64 12
0 69 23 126 52 57 28 111 51 119 50 9 0 56 -24 105 -52 116 -67 153 -73 195
-32 35 36 36 50 14 194 l-16 102 96 91 c88 83 96 93 96 128 0 20 3 37 6 37 10
0 660 -210 697 -225 14 -6 17 -2 17 24 0 23 -5 31 -17 31 -20 0 -18 0 -404
124 -183 58 -306 92 -395 107 -71 12 -144 24 -163 28 -39 7 -36 3 -95 132 -47
102 -72 129 -119 129 -28 0 -69 -34 -107 -89 l-15 -21 -55 19 c-30 11 -190 63
-355 115 -323 103 -351 115 -348 137 12 86 23 224 23 292 0 46 2 86 6 89 3 3
55 -17 117 -44 169 -74 342 -135 455 -157 137 -29 301 -28 408 0 43 12 88 23
99 26 16 3 31 -10 69 -67 59 -86 129 -149 210 -189 183 -88 371 -53 453 86 77
132 -8 306 -156 321 -32 3 -51 1 -51 -6 0 -6 14 -33 31 -60 59 -96 23 -178
-77 -176 -78 2 -134 65 -134 150 0 144 228 231 393 150 29 -14 89 -57 134 -96
45 -38 85 -70 88 -70 3 0 5 16 5 35 0 21 -5 35 -12 35 -7 0 -44 25 -82 56
-114 92 -155 109 -263 109 -51 0 -93 4 -93 8 0 15 84 46 155 57 86 14 204 3
281 -27 10 -4 14 3 14 25 0 24 -4 30 -22 30 -13 -1 -47 4 -77 11 -245 51 -514
-82 -561 -278 -36 -152 118 -290 250 -223 54 27 83 77 76 131 -3 24 -11 50
-17 57 -21 26 -4 34 29 14 48 -30 72 -75 72 -140 0 -73 -30 -125 -94 -165 -47
-28 -55 -30 -150 -30 -94 0 -106 2 -167 32 -86 42 -147 98 -204 182 -43 66
-45 71 -45 143 0 123 14 170 74 261 47 70 62 85 103 101 56 23 136 94 153 136
15 36 22 37 61 8 25 -19 43 -23 97 -22 81 1 136 23 215 88 49 40 59 44 84 37
15 -5 49 -12 76 -15 46 -6 47 -5 47 23 0 28 -2 29 -37 24 -22 -3 -58 2 -82 11
l-45 15 -47 -44 c-103 -97 -230 -126 -304 -69 -17 13 -20 27 -21 102 0 120
-23 182 -88 247 -79 79 -178 95 -277 44 -138 -70 -152 -283 -23 -344 48 -23
120 -16 164 15 41 29 77 105 59 126 -15 18 -39 1 -39 -28 0 -29 -52 -76 -92
-83 -85 -16 -144 46 -136 142 8 92 63 144 158 151 78 6 103 -1 150 -44 112
-101 107 -319 -9 -427 -125 -117 -333 -98 -579 51 -340 207 -500 272 -672 272
-67 0 -183 -22 -244 -46 -13 -5 -17 -3 -14 6 6 18 135 83 229 116 214 75 383
72 605 -12 53 -19 97 -34 99 -32 1 2 14 22 28 44 40 64 79 87 158 93 l68 6 44
65 c154 232 489 285 718 113 95 -72 173 -188 200 -298 19 -81 29 -75 29 18 0
62 -4 88 -14 94 -7 4 -19 19 -26 33 -26 50 -104 141 -154 179 -73 56 -117 79
-199 101 -214 59 -460 -27 -581 -204 -36 -51 -40 -54 -93 -60 -72 -8 -123 -36
-167 -90 l-36 -44 -77 30 c-108 42 -192 58 -310 58 -146 0 -298 -37 -435 -106
-26 -13 -49 -24 -52 -24 -3 0 -12 26 -21 58 -9 31 -44 126 -77 210 -36 90 -57
157 -52 162 10 9 1614 897 1639 906 11 5 15 -1 15 -21 0 -34 50 -85 84 -85 14
0 72 23 128 50 56 28 110 50 119 50 9 0 60 -25 114 -55 93 -53 124 -62 173
-49 16 5 22 14 22 35 0 15 -5 31 -10 34 -6 4 -22 30 -36 58 -15 29 -59 93 -99
142 -81 102 -110 143 -103 151 4 4 162 47 226 61 13 3 22 13 22 24 0 23 -2 23
-43 6 -50 -21 -204 -59 -223 -55 -16 3 -17 20 -15 218 1 118 5 217 7 219 11
11 46 -42 84 -129 52 -116 61 -127 113 -135 23 -4 50 -9 60 -11 12 -4 17 0 17
15 0 15 -6 21 -24 21 -78 0 -85 6 -141 125 -54 116 -80 145 -126 145 -42 0
-71 -32 -123 -132 -27 -51 -54 -98 -60 -105 -6 -7 -65 -19 -131 -27 -113 -13
-121 -16 -147 -45 -49 -55 -39 -82 74 -197 l80 -82 -13 -73 c-8 -43 -20 -78
-30 -87 -10 -9 -105 -63 -211 -122 -106 -58 -285 -157 -398 -219 -113 -63
-263 -146 -335 -186 -71 -39 -267 -147 -435 -240 -238 -132 -306 -165 -312
-154 -5 8 -42 73 -84 144 -107 186 -245 366 -412 537 l-144 148 60 67 c33 38
108 115 166 173 l106 105 183 0 c165 0 191 3 282 27 128 34 283 94 505 196
217 99 275 116 405 116 87 0 112 -4 198 -33 54 -19 100 -31 104 -28 11 12 -49
118 -99 173 -143 155 -448 283 -740 309 -43 4 -78 10 -78 14 0 3 40 46 89 95
l89 89 51 -7 c57 -7 203 -54 287 -91 64 -28 80 -31 86 -12 9 22 -2 35 -80 94
-94 73 -149 106 -273 166 -94 46 -97 47 -193 47 -101 0 -121 -13 -39 -25 124
-18 407 -145 381 -170 -1 -2 -41 8 -88 21 -74 22 -100 25 -200 22 -93 -4 -130
-10 -195 -32 -113 -39 -251 -110 -407 -209 -231 -148 -350 -193 -488 -185
-126 8 -209 61 -262 166 -19 40 -23 62 -23 152 0 95 3 110 27 157 15 28 39 60
53 71 34 27 32 32 -13 32 -37 0 -39 -2 -70 -64 -42 -84 -56 -154 -48 -237 l6
-68 -33 -25 c-74 -56 -209 -23 -307 75 l-50 50 -52 -16 c-28 -8 -79 -15 -112
-15 -118 0 -179 73 -118 143 17 19 63 23 92 7 23 -12 27 -7 45 62 7 29 17 61
20 71 6 14 2 17 -22 17 -26 0 -30 -4 -39 -42 -8 -40 -11 -43 -49 -49 -51 -7
-78 -21 -99 -54 -12 -18 -25 -25 -50 -25 -73 0 -213 -31 -276 -62 -84 -40
-175 -132 -214 -215 -26 -55 -33 -62 -65 -67 -79 -12 -169 -96 -199 -185 -7
-19 -12 -55 -12 -81 l0 -47 -132 -6 c-87 -4 -135 -2 -139 5 -3 5 -9 35 -13 66
-3 32 -19 145 -36 252 -16 107 -39 266 -52 353 l-22 157 -29 0 c-24 0 -28 -3
-22 -17 10 -24 114 -716 117 -778 l3 -50 -93 -12 c-242 -33 -592 -137 -784
-234 -21 -11 -42 -19 -47 -19 -13 0 -172 280 -165 291 10 17 35 9 124 -41 114
-65 139 -74 173 -61 35 14 69 68 62 101 -3 14 -12 68 -20 120 l-15 95 89 85
c103 98 118 125 97 175 -18 43 -34 51 -147 70 -52 8 -104 18 -117 20 -18 4
-36 33 -83 130 l-59 125 -59 0 -59 0 -40 -77 c-94 -182 -77 -167 -203 -178
l-75 -7 -67 116 c-37 64 -67 123 -67 131 0 11 -11 15 -36 15 l-36 0 18 -27
c25 -39 124 -210 130 -227 3 -7 -9 -27 -25 -44 -52 -52 -44 -80 47 -175 102
-107 102 -107 102 -117 0 -5 -9 -54 -20 -110 -11 -56 -20 -113 -20 -126 0 -36
26 -71 62 -83 28 -10 41 -7 109 25 42 20 82 34 87 30 5 -3 45 -67 88 -142 88
-153 88 -141 -1 -186 -118 -61 -345 -225 -481 -348 -55 -50 -70 -59 -80 -48
-31 32 -124 154 -124 163 0 7 28 9 74 7 114 -6 116 -4 116 131 0 75 -4 117
-12 125 -9 9 -69 12 -206 12 -157 0 -197 3 -206 14 -129 166 -130 170 -136
215 -5 43 -7 46 -36 49 -18 2 -42 14 -56 30 -41 45 -610 774 -627 804 -12 22
-23 28 -49 28 -23 0 -31 -4 -26 -12z m1951 -135 c31 -65 61 -121 67 -126 13
-8 26 -11 126 -27 41 -7 90 -17 109 -22 27 -9 31 -12 20 -23 -17 -16 -130 -54
-284 -96 -96 -25 -119 -28 -127 -17 -5 7 -7 65 -4 132 3 66 6 159 6 208 0 125
16 120 87 -29z m-125 -95 c-2 -112 -5 -204 -6 -205 -2 -2 -147 35 -231 58 -57
16 -148 51 -162 62 -20 15 -6 25 40 31 224 28 215 26 236 60 10 17 38 68 62
114 24 45 49 82 55 82 8 0 10 -58 6 -202z m4267 -53 l-94 -93 -158 -4 c-106
-3 -156 -1 -154 6 6 17 234 130 312 155 75 24 165 40 179 33 4 -3 -34 -46 -85
-97z m-2054 32 c11 -24 34 -50 53 -60 43 -25 138 -33 211 -17 l60 13 48 -43
c81 -71 136 -94 225 -95 65 0 81 3 109 24 28 21 33 22 43 9 6 -9 25 -36 42
-61 36 -50 100 -98 157 -117 25 -8 42 -21 50 -38 6 -15 29 -53 51 -85 43 -64
65 -150 65 -268 1 -63 -2 -70 -48 -141 -84 -130 -162 -192 -284 -230 -169 -51
-321 14 -358 152 -20 77 8 155 73 203 36 27 42 19 22 -29 -25 -60 -14 -121 29
-161 72 -65 163 -64 237 3 139 126 59 356 -163 468 -115 58 -229 70 -375 40
-102 -21 -184 -56 -357 -154 -198 -112 -263 -134 -390 -135 -88 0 -106 3 -150
26 -151 77 -162 250 -23 362 49 39 126 48 177 19 65 -35 90 -125 55 -197 -21
-45 -59 -68 -112 -69 -37 -1 -48 4 -73 32 -18 21 -29 43 -29 63 0 40 39 79 80
79 27 0 31 3 28 23 -5 34 -69 29 -108 -8 -78 -74 -50 -190 54 -230 149 -57
287 147 193 287 -21 30 -70 70 -100 81 -8 3 -4 21 16 59 75 147 230 233 427
236 43 1 46 0 65 -41z m-2567 -117 c40 -16 131 -44 203 -62 121 -30 149 -45
119 -63 -6 -4 -19 -23 -30 -44 -24 -48 -207 -295 -221 -300 -12 -4 -3 106 11
144 16 45 21 132 8 147 -7 8 -48 50 -90 95 -43 44 -78 88 -78 97 0 9 1 16 3
16 1 0 35 -13 75 -30z m832 -10 c0 -5 -45 -53 -100 -107 l-100 -98 15 -103 c9
-57 15 -116 13 -130 -3 -24 -6 -21 -29 28 -14 30 -67 107 -118 170 -50 63 -90
119 -88 125 2 5 42 20 88 32 46 12 129 38 184 56 107 37 135 43 135 27z m3928
-65 c115 -17 212 -43 319 -86 85 -33 203 -96 203 -107 0 -4 -57 -7 -128 -7
-124 -1 -130 -2 -262 -47 -74 -25 -202 -71 -284 -103 -228 -86 -309 -106 -461
-112 -102 -4 -144 -2 -194 12 -89 23 -174 68 -233 123 -52 48 -108 122 -108
141 0 6 19 11 43 11 103 0 255 55 397 143 l74 47 268 0 c186 0 298 -5 366 -15z
m-4330 -112 c27 -38 76 -103 109 -145 32 -42 66 -98 76 -123 31 -84 9 -85
-130 -5 -58 33 -111 60 -119 60 -7 0 -60 -22 -116 -50 -95 -46 -148 -61 -148
-42 0 5 32 51 72 103 39 52 93 128 120 169 57 86 68 100 78 100 4 0 30 -30 58
-67z m4825 -137 c59 -14 137 -58 137 -77 0 -6 -7 -8 -17 -5 -9 4 -49 11 -89
17 -60 9 -92 8 -171 -5 -99 -17 -120 -25 -447 -171 -169 -76 -314 -126 -431
-150 -115 -24 -289 -22 -389 4 -122 32 -123 33 -128 143 -2 51 -3 95 -2 97 2
1 29 -13 61 -32 110 -68 169 -81 338 -81 182 1 242 15 559 133 256 95 295 108
382 125 90 18 127 19 197 2z m917 -196 c0 -227 2 -221 -78 -200 -133 35 -256
73 -299 91 -45 19 -47 21 -29 35 11 8 36 14 55 14 38 0 199 25 205 31 2 2 25
45 51 94 61 116 73 135 85 135 6 0 10 -77 10 -200z m-3037 139 c33 -13 57 -28
55 -32 -1 -5 -43 -9 -93 -10 -115 -3 -163 -26 -306 -148 -57 -48 -128 -101
-159 -116 -48 -25 -66 -28 -145 -28 -84 0 -94 2 -155 36 -36 20 -65 41 -65 47
0 5 43 32 95 59 52 28 152 80 222 117 165 87 239 107 383 103 89 -3 121 -8
168 -28z m92 -107 c53 -20 102 -57 126 -96 30 -47 23 -141 -14 -189 -51 -67
-163 -73 -203 -11 -24 36 -13 106 25 160 17 25 31 49 31 54 0 19 -77 10 -128
-16 -47 -23 -112 -91 -112 -118 -1 -36 -18 -36 -88 -1 -39 19 -76 35 -82 35
-25 0 -4 30 59 83 84 70 145 105 203 117 52 10 129 3 183 -18z m-1409 -71 c42
-41 76 -64 117 -80 64 -23 157 -28 220 -10 36 10 41 8 90 -29 65 -50 98 -66
166 -82 77 -18 161 -8 236 29 34 17 66 31 70 31 4 0 54 -21 111 -46 88 -39
105 -51 110 -73 22 -102 72 -167 163 -210 48 -22 70 -26 148 -26 l92 0 92 -75
c362 -297 653 -726 815 -1204 19 -55 34 -107 34 -115 0 -9 -19 -28 -43 -43
-61 -39 -127 -97 -127 -113 0 -27 21 -26 100 6 44 17 85 29 93 26 7 -3 19 -34
25 -70 19 -100 18 -105 -28 -117 -80 -21 -217 -85 -294 -137 -43 -29 -80 -53
-81 -53 -2 0 -8 37 -14 83 -55 392 -183 721 -401 1027 -266 375 -663 669
-1100 815 -111 37 -134 48 -132 62 14 71 13 95 -3 113 -11 12 -15 28 -12 41 7
28 -11 67 -35 75 -49 15 -94 -25 -81 -74 3 -12 -4 -32 -17 -50 -17 -22 -21
-38 -16 -58 l7 -27 -53 7 c-201 24 -270 28 -438 23 -254 -8 -433 -40 -671
-123 -189 -65 -434 -197 -614 -331 -19 -15 -61 -28 -119 -38 -169 -29 -309
-15 -405 42 l-43 25 68 70 c399 405 1006 693 1579 748 157 15 182 16 261 18
l70 2 60 -59z m-2538 -113 l3 -138 272 -2 272 -3 0 -80 0 -80 -272 -3 -272 -2
-3 -138 -3 -137 -70 0 -70 0 -3 350 c-1 192 0 356 3 363 3 9 24 12 72 10 l68
-3 3 -137z m6488 23 c12 -12 144 -54 268 -86 54 -13 101 -27 103 -29 13 -13
-236 -366 -257 -366 -15 0 -12 36 10 140 11 51 20 103 20 114 0 11 -37 57 -90
112 -84 85 -108 124 -77 124 7 0 17 -4 23 -9z m-6386 -69 l33 -43 -44 3 c-42
3 -44 5 -47 36 -4 39 5 69 17 56 4 -5 22 -28 41 -52z m4377 -14 c18 -7 33 -17
33 -23 0 -5 -73 -83 -162 -172 l-163 -163 -32 26 c-18 14 -33 28 -33 32 0 4
23 18 51 32 73 36 149 108 209 200 29 44 56 80 58 80 3 0 21 -5 39 -12z
m-1529 -55 c5 -17 -26 -29 -40 -15 -6 6 -7 15 -3 22 9 14 37 9 43 -7z m3976
-21 c3 -9 44 -65 91 -122 76 -93 145 -207 145 -239 0 -20 -54 -12 -100 15 -25
14 -72 41 -106 60 l-61 34 -112 -55 c-108 -53 -151 -66 -151 -45 0 5 46 72
103 149 56 76 113 157 127 180 25 43 55 54 64 23z m-3958 -67 c9 -14 13 -32 9
-45 -5 -16 -15 -20 -50 -20 -35 0 -45 4 -50 20 -9 30 20 70 50 70 15 0 31 -10
41 -25z m-250 -101 c67 -9 127 -20 134 -24 9 -6 8 -14 -5 -34 -16 -23 -16 -30
-4 -52 12 -23 8 -40 -37 -177 -59 -176 -31 -159 -229 -137 -192 21 -437 1
-621 -49 -61 -17 -64 -17 -91 1 -109 74 -218 108 -368 115 -109 5 -267 -7
-313 -24 -38 -15 11 26 92 76 276 169 567 269 911 314 88 12 420 6 531 -9z
m227 -29 c-4 -15 -36 -12 -41 3 -3 9 3 13 19 10 13 -1 23 -7 22 -13z m-2726
-28 c5 -3 38 -55 74 -114 78 -131 175 -233 262 -274 111 -52 269 -61 437 -24
251 55 342 67 484 63 166 -5 241 -27 353 -101 67 -44 121 -93 112 -101 -2 -2
-24 0 -49 5 -25 4 -122 9 -217 9 -243 1 -361 -20 -663 -115 -80 -26 -199 -60
-264 -76 -137 -35 -136 -35 -136 52 0 67 -30 185 -58 231 -53 86 -126 128
-219 128 -88 -1 -159 -41 -201 -116 -7 -13 -25 -4 -103 46 -89 59 -119 84
-119 101 0 5 28 9 63 11 l62 3 3 129 c1 71 7 134 11 140 10 11 151 14 168 3z
m125 1 c9 -7 50 -58 92 -112 l77 -99 -22 -23 c-13 -13 -27 -24 -33 -24 -23 1
-182 243 -171 260 9 14 38 12 57 -2z m2790 -43 c314 -111 561 -262 792 -485
357 -343 575 -761 650 -1246 24 -153 22 -194 -15 -259 -36 -64 -34 -91 6 -73
14 6 28 8 32 5 12 -13 -17 -311 -42 -437 -52 -252 -168 -538 -303 -745 -86
-132 -205 -276 -329 -395 l-108 -105 -3 312 -2 312 61 93 c210 319 314 726
280 1091 -39 430 -199 782 -490 1081 -143 147 -259 233 -490 362 -31 18 -37
30 -105 236 -44 132 -69 222 -64 230 4 7 8 23 8 36 0 29 7 28 122 -13z m-162
15 c0 -5 -20 -10 -45 -10 -25 0 -45 5 -45 10 0 6 20 10 45 10 25 0 45 -4 45
-10z m-5 -82 c7 -18 11 -36 9 -40 -3 -5 -25 -8 -49 -8 -24 0 -46 3 -49 8 -2 4
2 22 9 40 11 24 20 32 40 32 20 0 29 -8 40 -32z m-75 -103 c0 -9 -8 -48 -19
-88 -10 -39 -38 -153 -61 -252 -23 -99 -55 -234 -70 -300 -33 -136 -63 -263
-90 -380 -23 -99 -63 -267 -95 -405 -14 -58 -43 -179 -64 -270 -22 -91 -43
-182 -46 -203 -4 -20 -11 -39 -15 -42 -4 -3 -27 64 -50 148 -23 83 -45 164
-50 179 -13 40 516 1628 542 1628 10 0 18 -7 18 -15z m374 -793 l264 -792 -33
-196 c-18 -108 -36 -198 -38 -201 -6 -6 -10 8 -36 117 -11 47 -36 155 -56 240
-20 85 -45 193 -56 240 -11 47 -31 131 -44 188 -14 56 -36 148 -50 205 -13 56
-38 163 -55 237 -51 218 -103 437 -155 653 -14 56 -25 107 -25 112 0 40 54
-112 284 -803z m-290 703 c4 -22 21 -96 37 -165 17 -69 39 -161 49 -205 10
-44 31 -129 45 -190 31 -129 40 -167 100 -425 78 -329 85 -362 105 -445 53
-221 81 -340 105 -445 14 -63 31 -131 36 -150 6 -19 9 -100 7 -180 l-3 -145
-45 0 -45 0 -3 154 c-2 128 0 157 13 171 17 19 26 -19 -99 424 -59 207 -64
230 -49 241 26 19 5 35 -48 35 -51 0 -64 -15 -35 -39 11 -9 6 -37 -31 -164
-123 -428 -135 -476 -118 -500 22 -32 22 -315 0 -324 -20 -7 -23 -4 -28 28
-10 51 -18 2394 -9 2379 5 -8 13 -33 16 -55z m-49 -867 c3 -486 5 -937 3
-1003 -4 -141 7 -164 -104 228 -70 249 -74 270 -58 281 27 20 7 36 -47 36 -50
0 -57 -7 -38 -38 12 -18 7 -36 -122 -494 -41 -144 -45 -168 -29 -168 6 0 10
-62 10 -165 l0 -165 -50 0 -50 0 0 159 c0 104 4 162 11 167 7 4 8 26 4 64 -5
44 -2 80 14 142 20 85 61 255 86 363 8 33 27 116 44 185 45 192 88 372 120
510 90 379 102 432 134 570 14 58 30 129 37 158 7 28 15 52 20 52 4 0 11 -397
15 -882z m-2489 777 c84 -49 125 -161 125 -340 0 -66 -6 -133 -16 -168 -18
-70 -70 -176 -90 -183 -11 -5 -99 40 -124 62 -2 1 10 27 27 56 45 79 65 160
65 258 -1 87 -12 131 -40 162 -19 22 -66 23 -82 4 -7 -8 -19 -72 -27 -143 -27
-234 -43 -291 -96 -340 -46 -43 -136 -57 -201 -29 -38 16 -91 73 -111 121 -38
90 -42 239 -10 369 14 57 70 176 83 176 12 0 111 -71 111 -80 0 -5 -9 -24 -20
-42 -54 -92 -68 -306 -24 -365 26 -34 50 -40 74 -18 12 11 21 43 29 113 37
297 52 342 136 393 46 29 137 26 191 -6z m2227 -27 c37 -6 67 -16 67 -22 0
-19 -172 -530 -183 -545 -8 -9 -24 -11 -53 -7 -65 8 -238 -10 -347 -38 -109
-28 -254 -93 -345 -154 -33 -23 -65 -43 -72 -44 -9 -2 -13 23 -15 87 -2 80 -8
105 -55 230 -47 128 -51 143 -40 174 23 63 -31 112 -85 77 -26 -17 -33 -53
-16 -85 7 -13 -4 -56 -45 -166 -52 -144 -54 -152 -54 -251 l0 -102 -66 -162
c-36 -89 -70 -174 -76 -189 l-11 -26 -9 33 c-5 17 -15 32 -23 32 -17 0 -21
-24 -35 -183 -10 -111 -13 -122 -45 -170 -19 -28 -35 -57 -35 -64 0 -7 -13
-19 -28 -27 -36 -19 -84 -91 -80 -119 2 -14 11 -23 26 -25 l22 -3 0 -490 c0
-269 -4 -489 -8 -489 -16 0 -133 189 -186 301 -63 133 -107 262 -138 409 -19
91 -22 135 -22 330 0 248 11 328 76 529 130 407 453 792 817 976 53 26 59 27
155 20 56 -4 137 -13 181 -21 138 -24 143 -18 59 69 -34 35 -53 62 -47 68 12
12 187 48 291 59 102 10 328 4 425 -12z m-2576 -151 c-12 -70 -16 -77 -37 -52
-9 11 -7 26 14 71 15 31 28 55 31 53 2 -3 -1 -35 -8 -72z m282 -68 c6 -27 11
-63 11 -79 0 -27 -3 -30 -31 -30 l-31 0 7 78 c4 42 9 80 12 85 9 15 22 -5 32
-54z m3003 -61 c360 -245 613 -624 709 -1066 33 -150 38 -457 11 -617 -39
-225 -108 -417 -217 -600 l-60 -100 -5 202 c-3 114 -9 206 -15 212 -5 5 -30
11 -55 13 l-45 3 -3 151 c-1 83 1 161 6 174 8 22 -8 133 -73 494 -15 82 -23
152 -19 172 6 34 6 34 -31 34 -37 0 -37 0 -31 -35 4 -19 3 -35 -2 -35 -10 0
-381 1107 -374 1115 7 7 101 -47 204 -117z m-1922 56 c-179 -119 -350 -283
-473 -454 -76 -108 -182 -313 -226 -441 -187 -544 -95 -1140 251 -1614 l58
-79 0 -283 c0 -272 -1 -283 -18 -274 -35 19 -213 194 -289 285 -42 50 -110
142 -151 204 -71 107 -82 142 -48 142 37 0 46 28 46 148 0 64 -4 123 -9 130
-7 11 -25 7 -91 -22 -46 -20 -85 -36 -87 -36 -6 0 -43 91 -43 106 0 11 22 14
109 14 90 0 110 3 115 16 9 23 7 217 -2 231 -4 7 -37 13 -77 15 l-70 3 -6 150
c-5 121 -10 159 -26 196 -27 60 -75 113 -129 145 -32 19 -44 32 -44 49 0 55 0
55 174 55 113 0 166 4 174 12 9 9 12 105 12 370 0 410 8 378 -99 378 -34 0
-61 4 -61 8 0 5 16 26 35 48 54 60 104 165 123 255 l17 82 90 18 c50 10 165
42 255 70 282 88 433 124 540 128 33 1 31 -2 -50 -55z m-1391 -48 c15 -18 2
-127 -16 -134 -10 -3 -13 16 -13 72 0 75 7 89 29 62z m1529 -19 c2 -11 -3 -17
-17 -17 -23 0 -35 15 -26 31 10 15 39 6 43 -14z m34 -205 l46 -127 -95 -3
c-53 -1 -98 -1 -100 2 -3 3 16 64 42 136 26 72 51 128 54 124 3 -3 27 -63 53
-132z m-1262 93 c0 -28 -40 -123 -70 -165 -11 -15 -20 -34 -20 -42 0 -8 29
-31 65 -52 36 -21 68 -42 71 -48 10 -15 -16 -67 -37 -73 -14 -5 -19 -16 -19
-44 0 -46 -19 -103 -31 -95 -5 3 -9 21 -9 40 l0 34 -114 0 c-95 0 -115 -3
-120 -16 -3 -9 -6 -103 -6 -211 0 -151 -3 -194 -12 -191 -10 4 -14 63 -18 234
l-5 229 -53 3 c-37 2 -52 7 -49 15 3 7 12 31 22 53 l16 42 58 -5 c148 -14 239
70 272 250 11 60 15 67 36 67 18 0 23 -6 23 -25z m2170 -222 c0 -26 -223 -672
-231 -667 -14 8 -11 40 6 54 23 19 8 30 -44 30 -56 0 -67 -7 -45 -31 15 -17 6
-57 -93 -411 -8 -26 -19 -22 -40 12 -10 17 -27 33 -38 36 -36 9 -92 144 -105
254 -21 172 -24 185 -40 185 -9 0 -16 -11 -18 -27 -2 -16 -7 -28 -11 -28 -5 0
-39 77 -76 172 l-68 172 35 31 c94 80 294 172 448 204 95 20 320 29 320 14z
m-3475 -160 l-97 -92 16 -113 c9 -62 16 -121 16 -130 0 -29 -18 -20 -25 11 -7
33 -49 96 -148 221 -37 46 -67 89 -67 95 0 6 39 21 88 33 48 12 137 39 197 60
146 50 149 37 20 -85z m2623 35 l3 -78 -50 0 -50 0 -3 47 c-2 37 -7 49 -22 51
-24 5 -36 -14 -36 -59 0 -31 -4 -37 -25 -41 -13 -3 -27 -3 -30 0 -3 3 -5 41
-5 84 l0 79 108 -3 107 -3 3 -77z m-1133 -408 l0 -325 -345 0 -345 0 -3 318
-2 318 72 -3 73 -3 3 -232 2 -233 60 0 60 0 0 210 0 211 73 -3 72 -3 3 -208 2
-208 63 3 62 3 3 229 c1 153 6 234 14 243 8 10 30 13 72 11 l61 -3 0 -325z
m1196 144 l58 -140 -19 -65 c-10 -35 -24 -84 -30 -109 -14 -52 -16 -50 -61 73
-47 132 -53 131 -114 -40 -24 -65 -47 -118 -51 -118 -5 0 -23 41 -40 90 -47
134 -61 165 -78 165 -9 0 -29 -41 -56 -120 -24 -66 -46 -120 -50 -120 -4 0
-10 22 -14 50 -6 46 -1 64 70 242 42 106 80 203 85 216 9 22 12 23 126 20
l117 -3 57 -141z m-1391 -145 c0 -100 -2 -110 -17 -107 -14 2 -19 15 -21 56
-3 60 15 162 29 162 5 0 9 -49 9 -111z m5040 87 c36 -8 88 -22 115 -31 59 -19
275 -126 275 -135 0 -4 -111 -7 -247 -7 -195 1 -265 -3 -327 -16 -44 -9 -81
-15 -84 -13 -9 10 -40 172 -33 179 11 11 138 35 191 36 25 0 74 -6 110 -13z
m-5752 -44 c2 -8 -30 -45 -72 -84 -42 -39 -76 -75 -76 -79 0 -4 33 -9 73 -11
56 -2 72 -6 72 -18 0 -12 -20 -16 -104 -18 -57 -1 -108 1 -114 7 -14 14 6 41
77 101 36 30 66 61 66 68 0 8 -20 12 -69 12 -67 0 -89 9 -76 30 10 16 217 8
223 -8z m1810 -214 c50 -138 49 -128 13 -128 -25 0 -31 4 -31 23 0 29 -15 51
-29 43 -6 -4 -11 -20 -11 -37 0 -26 -3 -29 -30 -29 -16 0 -30 3 -30 8 0 15 73
212 79 212 3 0 21 -42 39 -92z m234 -10 c20 -56 35 -106 32 -110 -3 -4 -16 -8
-29 -8 -19 0 -24 6 -27 33 -2 20 -8 32 -18 32 -10 0 -16 -12 -18 -32 -3 -29
-7 -33 -33 -33 -16 0 -29 3 -29 8 0 15 73 212 79 212 3 0 23 -46 43 -102z
m163 -17 c14 -51 25 -94 25 -97 0 -2 -9 -4 -20 -4 -15 0 -20 7 -20 29 0 17 -5
33 -11 37 -14 8 -29 -14 -29 -44 0 -15 -5 -22 -12 -19 -17 5 -15 37 7 117 18
69 24 84 31 77 3 -2 16 -46 29 -96z m4071 37 c127 -81 284 -138 381 -138 63 0
66 -9 25 -66 -99 -137 -248 -204 -452 -204 -142 0 -262 29 -535 128 -291 105
-336 117 -467 117 -60 0 -108 4 -108 8 0 15 204 105 299 133 160 45 227 52
527 53 l280 1 50 -32z m-3994 -76 c6 -60 -10 -67 -25 -12 -10 41 1 117 13 85
4 -11 9 -44 12 -73z m422 -198 c55 -197 74 -280 67 -287 -7 -7 -11 -74 -11
-184 0 -109 -4 -173 -10 -173 -6 0 -10 64 -10 173 0 151 -2 176 -19 203 -37
60 -124 69 -172 18 -23 -25 -24 -32 -29 -207 l-5 -182 -40 0 -40 0 -3 150 c-2
128 0 156 16 195 11 25 52 163 93 308 40 144 76 262 79 262 3 0 41 -124 84
-276z m396 234 c7 -24 41 -146 77 -272 54 -191 63 -232 54 -253 -7 -14 -11
-90 -11 -189 0 -108 -3 -163 -10 -159 -6 4 -10 72 -10 171 0 183 -7 212 -60
239 -36 19 -63 19 -99 1 -55 -29 -60 -49 -63 -238 -3 -146 -5 -173 -18 -173
-13 0 -15 27 -18 169 -1 93 -7 175 -12 181 -6 8 5 64 34 166 24 85 59 209 77
277 19 67 37 122 41 122 4 0 12 -19 18 -42z m504 -148 c102 -368 93 -313 86
-530 -7 -252 -23 -260 -30 -13 -5 175 -6 182 -29 207 -48 51 -135 42 -172 -18
-17 -27 -19 -52 -19 -203 0 -141 -3 -173 -14 -173 -23 0 -27 27 -25 186 0 84
-4 160 -9 170 -6 12 -5 31 3 58 7 23 18 59 24 81 42 153 113 402 117 414 9 26
20 -3 68 -179z m-3432 -17 c8 -10 57 -13 200 -13 l189 0 -3 -32 -3 -31 -75 -2
c-100 -2 -165 -31 -229 -101 -64 -70 -83 -128 -91 -274 l-6 -115 -9 60 c-13
79 -13 553 0 630 l10 60 3 -85 c2 -46 8 -90 14 -97z m1450 106 c2 -26 -1 -34
-14 -37 -15 -3 -18 4 -18 36 0 22 3 48 7 58 6 16 7 15 14 -3 4 -11 9 -35 11
-54z m2362 -204 c29 -170 40 -257 35 -273 -5 -13 -10 -94 -11 -180 l-2 -157
-5 192 c-6 182 -7 194 -28 215 -32 31 -71 16 -97 -36 -31 -64 -38 -22 -15 105
11 63 29 166 39 229 24 142 32 178 36 165 2 -5 24 -122 48 -260z m-4050 215
c33 -12 66 -66 66 -108 0 -114 -107 -171 -186 -99 -103 94 -10 257 120 207z
m2345 -123 c6 -8 8 -17 4 -20 -8 -9 -708 -9 -716 0 -4 3 -2 12 4 20 17 19 691
19 708 0z m3124 -17 c43 -11 170 -54 282 -95 291 -105 390 -129 545 -129 144
-1 224 19 323 78 31 19 57 31 58 28 1 -8 0 -30 -10 -121 l-6 -65 -52 -18 c-84
-29 -189 -41 -298 -35 -174 11 -315 53 -625 189 -258 113 -328 132 -464 125
-56 -3 -111 -8 -123 -12 -36 -12 -27 11 14 36 86 53 203 59 356 19z m-5331
-115 c-7 -164 31 -518 73 -675 8 -30 11 -58 7 -62 -14 -14 -102 -47 -106 -40
-7 12 -7 129 0 204 8 86 -18 147 -73 173 -32 16 -39 16 -74 2 -43 -17 -48 -14
-44 23 2 14 4 28 4 33 1 4 42 7 91 7 l90 0 0 65 0 65 -84 0 c-64 0 -87 4 -97
16 -9 11 -10 20 -2 32 8 13 28 17 84 19 41 1 80 2 87 2 8 1 12 21 12 66 0 63
-1 65 -25 65 -30 0 -32 11 -5 35 11 10 22 26 26 37 3 11 13 18 22 16 15 -3 17
-15 14 -83z m2236 63 c-4 -10 -89 -14 -374 -16 -203 -1 -375 0 -382 3 -7 3
-10 9 -7 15 10 16 768 14 763 -2z m3057 -59 c39 -11 76 -26 83 -31 15 -13 16
-100 2 -258 -31 -356 -125 -679 -290 -997 -121 -235 -265 -434 -454 -631 -94
-97 -101 -102 -108 -81 -5 13 -14 27 -21 31 -7 4 -101 8 -209 8 l-198 0 0 98
0 99 93 81 c209 183 387 419 517 687 137 281 206 552 225 885 3 58 10 108 14
113 31 32 237 30 346 -4z m-4757 -18 c56 -29 108 -92 126 -152 11 -37 16 -96
16 -193 0 -78 4 -146 8 -153 4 -7 37 -13 77 -15 l70 -3 0 -75 0 -75 -347 -3
-348 -2 0 228 c0 247 6 290 54 362 27 41 96 87 149 101 49 13 152 2 195 -20z
m1775 15 c9 -4 17 -12 17 -17 0 -5 -201 -9 -471 -9 -372 0 -470 3 -467 13 3 6
20 15 39 18 50 10 861 5 882 -5z m-2388 -65 c3 -5 1 -12 -5 -16 -14 -9 -195
-9 -209 -1 -27 17 7 26 104 26 57 0 106 -4 110 -9z m2375 -40 c0 -10 -7 -24
-16 -32 -41 -34 -44 -57 -44 -352 0 -294 2 -307 42 -307 13 0 18 -8 18 -25 l0
-25 -445 0 -445 0 0 373 c0 206 3 377 7 380 3 4 204 7 445 7 422 0 438 -1 438
-19z m-2562 -99 l3 -42 90 0 c53 0 89 -4 89 -10 0 -5 0 -13 0 -17 0 -5 -39
-10 -87 -13 l-88 -5 -5 -44 c-5 -46 -25 -66 -33 -34 -4 15 -3 181 2 206 0 5 7
7 14 5 6 -3 13 -23 15 -46z m2562 -267 c0 -183 -4 -285 -10 -285 -6 0 -10 99
-10 278 0 246 3 292 17 292 2 0 3 -128 3 -285z m308 265 c21 -20 22 -29 22
-196 l0 -175 -72 3 -73 3 -3 166 c-2 155 -1 167 18 192 27 34 76 36 108 7z
m462 0 c11 -11 20 -30 20 -42 1 -56 1 -304 1 -316 -1 -10 -20 -12 -73 -10
l-73 3 -3 150 c-1 83 0 160 3 173 14 58 85 82 125 42z m466 -1 c17 -19 19 -38
19 -193 l0 -171 -72 -3 -73 -3 0 176 c0 162 2 177 20 195 27 27 81 26 106 -1z
m356 -164 c4 -99 6 -186 3 -193 -3 -8 -16 -12 -32 -10 l-28 3 -3 166 c-3 176
5 223 36 217 15 -3 18 -23 24 -183z m-672 -40 c0 -140 -2 -165 -15 -165 -13 0
-15 24 -15 158 0 87 3 162 7 165 19 20 23 -7 23 -158z m-3320 -45 c26 -26 33
-59 28 -125 -5 -57 -24 -93 -41 -76 -6 6 -5 21 2 42 22 63 9 139 -25 139 -18
0 -34 -40 -34 -85 0 -69 -33 -110 -79 -98 -44 11 -65 100 -40 172 13 36 46 45
35 9 -24 -77 -14 -148 19 -148 16 0 22 17 35 97 14 84 57 116 100 73z m4135
-285 l0 -100 -835 0 -835 0 -3 89 c-2 49 -1 95 2 103 5 11 151 13 838 11 l833
-3 0 -100z m2360 -20 c29 -61 59 -116 66 -122 8 -5 61 -18 119 -27 128 -21
140 -24 140 -40 0 -11 -208 -82 -342 -116 -80 -21 -78 -27 -78 199 0 110 3
206 6 215 12 31 39 -1 89 -109z m-124 -91 c-1 -109 -5 -201 -7 -203 -2 -2 -67
13 -144 33 -209 53 -297 93 -243 110 10 3 65 10 123 16 58 6 114 17 125 25 11
7 44 61 74 119 30 59 59 105 65 103 7 -2 10 -66 7 -203z m-6346 105 c4 -6 -2
-21 -14 -33 -17 -18 -21 -35 -21 -90 0 -58 3 -70 23 -86 15 -13 19 -22 12 -29
-13 -13 -204 68 -219 92 -7 10 -7 26 -1 43 8 22 29 36 105 70 109 48 107 47
115 33z m701 -53 c13 -33 24 -64 24 -70 0 -6 -89 -48 -198 -94 -182 -77 -198
-81 -210 -65 -14 20 -92 254 -92 278 0 14 27 15 226 13 l226 -3 24 -59z m-481
-121 c25 -72 45 -136 45 -142 0 -7 -17 -20 -37 -28 -21 -9 -44 -22 -53 -30
-14 -12 -23 -9 -73 31 l-57 46 0 59 c0 44 -4 61 -15 65 -18 7 -20 60 -2 71 23
15 132 61 140 59 5 -1 28 -60 52 -131z m695 -18 c0 -40 -4 -76 -8 -82 -4 -5
-28 -20 -55 -32 l-47 -23 2 -207 3 -207 50 -25 50 -26 3 -82 c2 -49 -1 -83 -7
-83 -5 0 -99 39 -208 86 -109 47 -256 111 -328 142 -71 30 -136 60 -142 65 -9
7 -13 47 -13 137 l0 127 342 146 c189 80 346 143 350 140 5 -2 8 -37 8 -76z
m1460 43 c0 -7 -155 -10 -445 -10 -290 0 -445 3 -445 10 0 7 155 10 445 10
290 0 445 -3 445 -10z m1738 -30 c2 -27 -3 -41 -22 -59 l-25 -23 -27 21 c-34
26 -54 27 -88 0 l-26 -20 -26 20 c-15 12 -34 21 -44 21 -10 0 -29 -9 -44 -21
l-26 -20 -26 20 c-15 12 -34 21 -44 21 -10 0 -29 -9 -44 -21 l-26 -20 -26 20
c-15 12 -34 21 -44 21 -10 0 -29 -9 -44 -21 l-26 -20 -26 20 c-15 12 -34 21
-44 21 -10 0 -29 -9 -44 -21 l-26 -20 -26 20 c-34 26 -54 26 -88 0 l-26 -20
-26 20 c-33 26 -58 27 -84 1 -11 -11 -23 -20 -26 -20 -3 0 -17 9 -31 20 -14
11 -34 20 -44 20 -11 0 -28 -9 -39 -20 -11 -11 -24 -20 -28 -20 -5 0 -17 9
-27 20 -10 11 -29 20 -42 20 -12 0 -32 -9 -43 -20 -11 -11 -24 -20 -28 -20 -5
0 -17 9 -27 20 -10 11 -28 20 -40 20 -12 0 -31 -9 -43 -20 -12 -11 -24 -20
-27 -20 -3 0 -15 9 -27 20 -12 11 -31 20 -43 20 -12 0 -31 -9 -43 -20 -26 -24
-27 -24 -52 -2 -11 9 -30 19 -43 22 -13 4 -23 15 -25 29 -8 54 -61 51 840 49
l833 -3 3 -35z m-1740 -517 l-3 -498 -360 0 -360 0 -3 67 c-3 63 -5 68 -28 74
-37 9 -115 -2 -125 -17 -5 -8 -9 174 -9 422 0 240 3 439 7 442 3 4 204 7 445
7 l438 0 -2 -497z m-2535 462 c50 -21 55 -35 12 -35 -47 0 -88 -22 -103 -55
-7 -14 -12 -66 -12 -115 0 -100 1 -98 -89 -159 -105 -71 -249 -136 -381 -170
-105 -27 -150 -34 -150 -22 0 16 155 198 259 304 233 239 347 301 464 252z
m6197 -24 c47 -16 130 -41 185 -56 55 -14 102 -28 104 -31 2 -2 -2 -12 -11
-21 -8 -10 -25 -36 -37 -58 -31 -54 -203 -285 -213 -285 -14 0 -9 60 13 167
l22 104 -92 93 c-86 88 -115 136 -73 122 9 -3 55 -19 102 -35z m780 3 c0 -9
-44 -58 -97 -109 l-97 -92 12 -74 c29 -183 26 -225 -11 -136 -9 24 -60 97
-112 162 -52 66 -95 125 -95 132 0 7 19 17 43 23 87 23 204 59 272 83 87 31
85 30 85 11z m-4324 -29 c9 -15 26 -25 39 -25 13 0 30 10 39 25 9 14 23 25 31
25 8 0 22 -11 31 -25 9 -15 26 -25 39 -25 13 0 30 10 39 25 9 14 23 25 31 25
8 0 22 -11 31 -25 9 -15 26 -25 39 -25 13 0 30 10 39 25 9 14 23 25 31 25 8 0
22 -11 31 -25 10 -15 26 -25 40 -25 16 0 28 8 36 25 6 14 19 25 29 25 10 0 26
-11 35 -25 10 -15 26 -25 40 -25 17 0 27 8 34 25 6 15 17 25 30 25 11 0 27
-11 36 -25 9 -14 26 -25 39 -25 14 0 26 9 33 25 7 14 20 25 31 25 10 0 26 -11
35 -25 9 -14 25 -25 36 -25 11 0 27 11 36 25 9 14 24 25 34 25 10 0 25 -11 34
-25 9 -14 25 -25 36 -25 11 0 27 11 36 25 9 14 24 25 34 25 10 0 25 -11 34
-25 9 -14 25 -25 36 -25 11 0 27 11 36 25 9 14 24 25 34 25 10 0 25 -11 34
-25 9 -14 25 -25 36 -25 11 0 27 11 36 25 9 14 24 25 34 25 10 0 25 -11 34
-25 9 -14 25 -25 36 -25 11 0 27 11 36 25 9 14 24 25 34 25 10 0 25 -11 34
-25 19 -29 42 -32 68 -8 18 16 18 11 16 -167 l-3 -183 -30 -10 c-16 -5 -41
-19 -54 -31 -46 -41 -51 -70 -51 -306 l0 -220 -50 0 -50 0 0 223 c0 191 -2
227 -18 257 -36 73 -123 100 -189 60 -59 -36 -63 -54 -63 -310 l0 -230 -39 0
-40 0 -3 238 c-3 219 -5 239 -23 264 -45 62 -140 75 -192 26 -51 -47 -53 -61
-53 -303 l0 -225 -45 0 -45 0 0 238 c0 270 -9 323 -65 409 -66 99 -166 153
-286 153 -101 0 -170 -29 -245 -104 -93 -93 -97 -110 -103 -416 -4 -162 -10
-254 -16 -253 -10 3 -20 885 -10 911 7 20 33 14 51 -13z m-2515 -34 c22 -18
24 -26 24 -113 l0 -93 -107 -3 c-83 -2 -108 0 -109 10 -3 72 2 161 11 179 10
18 18 20 48 16 24 -4 44 -1 56 8 27 20 49 19 77 -4z m6413 -72 c10 -18 53 -75
96 -128 78 -97 105 -139 126 -198 22 -63 -10 -58 -148 19 l-110 62 -114 -57
c-177 -88 -181 -81 -53 88 50 66 98 134 106 150 20 39 62 95 71 95 4 0 16 -14
26 -31z m-5462 -106 c110 -168 293 -372 440 -491 l58 -47 0 -69 c0 -106 1
-106 -197 -106 -94 0 -173 -4 -184 -10 -11 -6 -19 -21 -19 -35 0 -13 -4 -26
-8 -29 -16 -10 -352 347 -339 360 2 2 62 -21 132 -51 71 -31 135 -53 142 -51
11 4 13 34 11 133 l-3 128 -52 28 -53 28 0 155 c0 85 2 154 4 154 3 0 33 -44
68 -97z m4743 -188 c198 -142 366 -264 374 -271 13 -12 12 -17 -6 -36 -31 -33
-60 -97 -68 -146 -5 -30 -11 -42 -20 -38 -89 34 -203 -4 -248 -82 -11 -19 -23
-58 -26 -88 l-6 -54 -69 50 c-248 181 -509 243 -682 161 -85 -40 -155 -121
-239 -276 l-70 -130 -3 124 -3 123 138 142 c208 212 401 484 503 709 24 54 40
76 50 74 8 -2 177 -120 375 -262z m-2740 191 c65 -30 112 -77 144 -146 l26
-55 0 -285 0 -285 -32 -3 -33 -3 0 278 c0 272 -1 279 -24 329 -38 82 -110 128
-201 128 -68 -1 -105 -16 -151 -66 -59 -62 -59 -60 -64 -373 l-5 -290 -33 -3
-33 -3 3 298 3 298 27 51 c32 61 94 117 152 138 66 23 162 20 221 -8z m-15
-110 c75 -50 80 -70 80 -389 0 -260 -1 -278 -17 -275 -17 3 -18 27 -23 284 -4
248 -7 283 -23 307 -61 94 -193 86 -244 -13 -22 -43 -23 -54 -23 -313 0 -250
-1 -268 -17 -265 -17 3 -18 24 -18 273 0 149 3 282 8 297 10 37 63 96 101 113
48 22 127 14 176 -19z m-45 -91 l25 -24 0 -276 0 -275 -85 0 -85 0 0 271 0
271 29 29 c38 37 82 39 116 4z m588 -23 l27 -28 0 -232 c0 -148 -4 -232 -10
-232 -6 0 -10 81 -10 224 0 211 -1 225 -21 250 -15 19 -30 26 -54 26 -24 0
-39 -7 -54 -26 -20 -25 -21 -39 -21 -250 0 -143 -4 -224 -10 -224 -6 0 -10 83
-10 229 l0 229 26 31 c21 26 33 31 68 31 33 0 48 -6 69 -28z m344 4 l28 -24 3
-236 c2 -153 -1 -236 -7 -236 -6 0 -11 86 -13 231 -3 229 -3 231 -27 250 -31
26 -73 24 -99 -4 -21 -22 -22 -33 -24 -245 -4 -282 -22 -308 -26 -37 -4 225 1
269 33 301 33 33 94 33 132 0z m303 14 c0 -5 -5 -10 -10 -10 -6 0 -22 -11 -35
-25 l-25 -24 0 -226 c0 -143 -4 -225 -10 -225 -6 0 -10 83 -10 229 l0 229 26
31 c25 30 64 42 64 21z m-4124 -41 c12 -14 19 -40 22 -82 3 -51 0 -67 -16 -87
-25 -31 -39 -20 -23 18 7 16 11 49 9 72 -6 84 -68 74 -68 -11 0 -99 -61 -144
-110 -81 -18 23 -21 37 -18 88 4 62 23 103 40 86 5 -5 4 -28 -4 -55 -15 -57
-3 -102 27 -102 16 0 22 10 28 50 15 87 17 93 33 109 22 22 57 20 80 -5z
m3432 -11 c9 -9 12 -75 12 -235 l0 -223 -35 0 -35 0 0 225 c0 203 2 225 18
234 22 13 26 13 40 -1z m346 -4 c14 -13 16 -49 16 -235 l0 -219 -40 0 -40 0 0
217 c0 187 2 219 17 235 20 22 27 22 47 2z m356 -224 c0 -223 -1 -230 -20
-230 -19 0 -20 7 -20 223 0 123 3 227 7 230 3 4 12 7 20 7 10 0 13 -45 13
-230z m-3668 162 l126 -57 73 -94 c59 -77 68 -93 48 -87 -100 29 -210 22 -293
-18 -67 -33 -146 -113 -186 -187 -29 -55 -34 -60 -86 -75 -69 -20 -84 -14 -84
31 0 34 -1 35 -40 35 -22 0 -40 3 -40 7 0 3 18 22 40 41 40 33 41 36 38 91
l-3 56 -77 3 c-75 3 -78 4 -78 27 0 34 36 56 79 49 32 -5 38 -2 53 24 10 17
50 48 95 74 43 25 103 66 133 91 30 25 60 46 65 46 6 0 67 -26 137 -57z m5829
-166 c67 -28 111 -94 112 -165 1 -89 -57 -151 -141 -151 -100 0 -152 133 -69
180 32 18 55 8 75 -34 7 -14 17 -24 23 -21 16 10 10 54 -11 75 -64 64 -166 4
-164 -96 2 -109 122 -176 222 -125 43 22 63 43 87 91 21 41 32 50 64 50 36 0
61 -28 61 -67 0 -35 10 -40 52 -24 28 10 89 -8 119 -35 11 -10 42 -54 69 -99
101 -167 172 -196 374 -155 175 35 294 26 365 -29 24 -18 23 -19 -105 -24 -88
-3 -151 -11 -199 -25 -226 -66 -253 -72 -322 -72 -90 0 -171 28 -219 76 -28
28 -34 42 -34 77 -1 93 -74 167 -167 167 -48 0 -58 -4 -94 -38 -53 -49 -64
-111 -29 -167 23 -38 65 -65 100 -65 29 0 23 34 -7 38 -12 2 -33 15 -47 29
-37 37 -36 92 2 135 24 26 36 31 74 31 86 0 135 -60 126 -154 -8 -83 -88 -149
-182 -149 -60 0 -141 43 -173 91 -14 22 -27 39 -30 39 -2 0 -12 -20 -23 -45
-22 -52 -70 -80 -118 -69 -49 12 -54 23 -27 58 57 74 69 149 35 215 -36 72
-99 103 -165 81 -75 -25 -100 -117 -46 -171 32 -31 71 -39 71 -14 0 9 -11 20
-24 25 -50 19 -56 71 -13 110 43 41 126 10 147 -55 23 -69 -11 -169 -65 -193
-90 -40 -141 -45 -194 -18 -55 29 -87 105 -61 146 8 12 13 13 30 3 51 -33 69
0 19 36 -59 44 -79 154 -39 219 42 69 151 91 229 47 23 -14 44 -25 46 -25 1 0
2 33 1 73 -1 62 3 79 27 120 18 29 42 54 65 66 45 23 127 26 173 7z m-6458
-38 c21 -11 21 -11 2 -19 -36 -14 -55 -10 -55 11 0 23 20 26 53 8z m882 -93
c65 -31 135 -102 168 -168 39 -81 48 -153 45 -357 l-3 -185 -345 0 -345 0 -3
195 c-4 268 16 349 113 445 102 103 246 130 370 70z m909 9 c3 -9 6 -39 6 -69
0 -46 3 -53 23 -59 12 -3 186 -6 387 -6 382 0 440 -4 440 -26 0 -19 -860 -26
-867 -7 -3 7 -8 45 -12 85 -5 66 -8 73 -28 76 -36 5 -27 22 11 22 22 0 36 -6
40 -16z m-1606 -33 c2 -7 -29 -45 -73 -86 -43 -40 -75 -77 -71 -83 4 -7 30 -9
64 -7 61 4 89 -5 78 -24 -9 -13 -212 -15 -220 -2 -11 17 4 35 74 96 39 33 70
66 70 73 0 8 -21 12 -69 12 -67 0 -89 9 -76 30 10 17 217 8 223 -9z m1552 -76
c0 -37 -4 -65 -10 -65 -6 0 -10 28 -10 65 0 37 4 65 10 65 6 0 10 -28 10 -65z
m-69 -68 c-8 -8 -14 -8 -23 1 -9 9 -7 20 8 47 l19 36 3 -37 c2 -20 -1 -41 -7
-47z m3798 52 c41 -13 76 -29 78 -35 2 -7 -68 -35 -169 -67 -148 -48 -444
-137 -455 -137 -19 0 51 116 106 173 35 37 89 71 141 88 49 16 220 3 299 -22z
m-3917 -85 c-2 -21 -11 -48 -19 -61 -8 -12 -13 -29 -10 -38 10 -24 -10 -28
-132 -28 l-116 0 -3 73 c-2 40 -1 78 1 84 3 7 51 11 143 10 l139 -2 -3 -38z
m2853 -44 l0 -82 -450 1 c-247 0 -466 0 -486 1 -30 0 -38 4 -43 24 -3 14 -16
26 -31 30 -16 4 -25 13 -25 26 0 10 -4 22 -10 25 -10 6 -14 48 -6 56 2 2 240
3 528 2 l523 -2 0 -81z m318 81 c4 -1 7 -10 7 -21 0 -13 -7 -20 -20 -20 -17 0
-20 -7 -20 -50 0 -43 3 -52 23 -60 13 -5 16 -9 7 -10 -12 -1 -218 -1 -242 0
-12 0 -9 158 2 162 8 2 202 1 243 -1z m-3549 -61 l36 -40 0 -138 c0 -75 -4
-142 -8 -148 -4 -6 -17 -16 -29 -23 l-23 -12 0 128 c0 74 -7 157 -15 198 -18
83 -17 75 -6 75 5 0 25 -18 45 -40z m2116 25 c0 -13 -39 -15 -290 -15 -251 0
-290 2 -290 15 0 13 39 15 290 15 251 0 290 -2 290 -15z m2398 -21 c94 -61
173 -125 166 -136 -20 -33 -289 -136 -539 -208 -248 -72 -336 -90 -437 -90
l-88 0 1 38 c0 25 16 65 47 121 l47 83 185 53 c102 30 264 80 360 113 96 32
181 59 188 60 7 1 39 -14 70 -34z m-3048 9 c0 -5 -7 -16 -14 -25 -12 -17 -49
-18 -509 -18 -334 0 -498 3 -502 10 -4 6 -1 17 5 25 11 13 87 15 516 15 277 0
504 -3 504 -7z m700 -48 c0 -13 -44 -15 -340 -15 -296 0 -340 2 -340 15 0 13
44 15 340 15 296 0 340 -2 340 -15z m-2989 -123 c-1 -64 -5 -119 -7 -121 -2
-2 -26 -6 -54 -9 -66 -6 -90 13 -90 73 0 26 6 48 15 55 9 7 15 29 15 51 0 21
5 41 10 44 16 10 104 32 110 27 2 -2 3 -56 1 -120z m2207 73 c-3 -14 -60 -16
-483 -16 -423 0 -480 2 -483 16 -3 13 51 15 483 15 432 0 486 -2 483 -15z
m837 -5 c0 -13 -51 -15 -389 -18 -229 -1 -394 2 -399 7 -28 28 11 31 396 29
341 -3 392 -5 392 -18z m-3205 -8 c0 -5 -9 -17 -20 -27 -16 -15 -20 -31 -20
-90 0 -64 3 -74 23 -88 17 -11 19 -18 10 -27 -8 -9 -33 -2 -108 31 -105 47
-121 62 -112 101 6 21 25 33 99 66 92 40 128 50 128 34z m1325 -73 c4 -6 5
-12 4 -14 -2 -1 -59 -6 -126 -10 -108 -6 -123 -5 -123 9 0 13 18 16 108 19 59
1 112 4 119 5 6 1 15 -3 18 -9z m790 1 c6 0 3 -5 -6 -10 -16 -10 -697 -15
-706 -6 -18 17 43 21 354 19 191 -1 353 -2 358 -3z m468 0 c10 0 9 -770 -2
-770 -5 0 -11 66 -13 148 -3 159 -11 189 -60 225 -23 17 -34 19 -64 11 -68
-17 -78 -43 -84 -222 -9 -286 -21 -153 -20 227 0 205 2 376 4 380 3 4 151 5
239 1z m1637 -15 c0 -13 -47 -15 -342 -15 -274 1 -347 3 -361 14 -10 8 -13 16
-8 17 6 2 168 3 361 1 301 -2 350 -5 350 -17z m313 15 c4 0 7 -7 7 -15 0 -13
-21 -15 -130 -15 -105 0 -130 3 -130 14 0 8 4 16 10 18 7 2 181 1 243 -2z
m-2293 -385 l0 -385 -66 0 c-59 0 -64 1 -50 16 12 11 16 36 16 98 0 89 -8 106
-50 106 -42 0 -50 -17 -50 -106 0 -62 4 -87 16 -98 14 -15 -22 -16 -395 -16
l-411 0 0 74 c0 88 -17 70 197 203 81 51 290 183 463 292 173 110 318 200 323
200 4 1 7 -172 7 -384z m60 0 c0 -250 -4 -385 -10 -385 -6 0 -10 135 -10 385
0 250 4 385 10 385 6 0 10 -135 10 -385z m690 0 l0 -385 -25 0 -25 0 0 143 c0
119 -3 148 -18 176 -51 95 -184 89 -234 -10 -15 -27 -18 -60 -18 -172 0 -138
0 -138 -22 -135 l-23 3 -3 370 c-1 203 0 376 3 382 3 10 49 13 185 13 l180 0
0 -385z m290 0 c0 -250 -4 -385 -10 -385 -6 0 -10 53 -10 140 0 155 -9 192
-55 228 -35 28 -65 28 -99 1 -49 -39 -56 -66 -56 -224 0 -90 -4 -145 -10 -145
-6 0 -10 135 -10 385 l0 385 125 0 125 0 0 -385z m60 0 c0 -250 -4 -385 -10
-385 -6 0 -10 135 -10 385 0 250 4 385 10 385 6 0 10 -135 10 -385z m335 202
c149 -93 360 -226 470 -295 110 -69 205 -131 210 -137 6 -7 10 -44 10 -81 l-1
-69 -409 -2 c-284 -2 -405 1 -392 8 14 8 17 25 17 104 0 92 -1 95 -24 101 -14
3 -34 3 -45 -1 -19 -6 -21 -14 -21 -99 0 -60 4 -96 13 -105 10 -10 -2 -11 -58
-9 l-70 3 -3 370 c-1 203 0 376 3 383 3 8 10 10 17 6 7 -4 135 -84 283 -177z
m2000 119 c1 -56 42 -111 103 -138 l45 -20 -22 -18 c-33 -24 -209 -117 -331
-174 -166 -76 -381 -151 -569 -197 -109 -27 -284 -58 -293 -52 -5 2 -8 82 -8
177 l0 173 103 6 c118 6 172 18 430 93 205 59 356 113 463 165 38 19 71 33 73
31 3 -1 5 -22 6 -46z m-4345 -80 c0 -83 0 -83 -26 -83 -14 0 -36 -10 -47 -22
-20 -20 -22 -34 -25 -165 -3 -127 -6 -146 -23 -162 -16 -14 -19 -31 -19 -106
l0 -88 -55 0 -55 0 0 355 0 355 125 0 125 0 0 -84z m689 80 c-2 -2 -80 -51
-173 -109 l-169 -106 -28 19 c-32 24 -89 26 -128 5 -37 -19 -65 -77 -57 -119
5 -28 2 -35 -24 -55 -17 -12 -35 -19 -40 -16 -11 7 -14 368 -3 378 3 4 146 7
316 7 171 0 308 -2 306 -4z m2201 -196 c0 -104 -3 -190 -6 -190 -3 0 -19 10
-36 21 -21 15 -29 29 -28 48 4 57 -1 74 -34 107 -29 29 -41 34 -79 34 -29 0
-53 -7 -70 -20 l-25 -20 -154 96 c-84 53 -157 100 -162 105 -6 5 111 9 292 9
l302 0 0 -190z m318 -162 l2 -348 -55 0 -55 0 0 84 c0 75 -3 88 -25 114 -24
29 -25 35 -25 166 0 123 -2 138 -20 156 -11 11 -26 21 -32 21 -7 1 -20 2 -28
3 -11 1 -16 17 -18 65 -2 35 -1 70 2 78 5 11 31 13 128 11 l123 -3 3 -347z
m2200 207 c19 -8 43 -15 53 -15 31 0 21 -23 -24 -57 -23 -17 -105 -81 -182
-142 -77 -61 -147 -110 -155 -110 -13 -1 -180 131 -320 251 -44 39 -44 40 14
53 16 3 42 19 58 35 l29 30 37 -29 c40 -32 117 -61 160 -61 68 0 153 46 185
99 l18 30 46 -35 c25 -19 61 -41 81 -49z m-6576 -42 l3 -98 158 -3 c93 -1 157
-6 157 -12 0 -6 -1 -10 -3 -10 -1 0 -34 -9 -72 -20 -39 -12 -108 -29 -155 -40
-47 -10 -110 -26 -140 -34 -35 -10 -58 -12 -64 -6 -11 11 -9 291 2 301 8 8 44
16 84 18 l27 1 3 -97z m-275 61 c-3 -3 -12 -4 -19 -1 -8 3 -5 6 6 6 11 1 17
-2 13 -5z m6150 -84 c43 -39 124 -107 180 -153 56 -45 102 -87 102 -93 2 -22
-340 -167 -599 -254 -148 -50 -304 -96 -420 -124 -93 -22 -240 -56 -244 -56
-2 0 -15 24 -29 53 -39 78 -90 132 -159 166 -73 37 -134 40 -210 11 -54 -20
-64 -20 -55 3 3 8 45 20 108 31 387 68 781 217 1124 425 55 33 105 61 112 61
7 0 47 -32 90 -70z m-5017 -28 c0 -100 -3 -105 -110 -176 -60 -39 -76 -43
-105 -22 -56 38 -135 56 -245 56 -61 0 -110 4 -110 8 0 5 48 24 108 43 95 30
123 34 252 39 l145 5 3 55 c2 37 8 59 19 68 37 27 43 16 43 -76z m-1023 44
c-2 -6 -34 -13 -72 -16 -42 -3 -70 -10 -73 -17 -2 -8 24 -26 65 -44 107 -50
108 -59 7 -105 -43 -20 -74 -40 -71 -47 2 -7 32 -14 72 -17 42 -3 70 -10 73
-17 6 -20 -217 -18 -224 1 -10 27 14 50 88 86 40 19 73 40 73 45 0 6 -31 26
-70 47 -83 43 -97 54 -93 76 3 14 20 18 103 22 109 5 128 3 122 -14z m1331
-117 c3 -108 2 -114 -20 -131 -13 -10 -26 -18 -30 -18 -5 0 -8 56 -8 125 0
108 2 125 18 134 9 6 22 9 27 7 6 -1 11 -52 13 -117z m2999 113 c7 -5 12 -50
14 -132 2 -132 -2 -140 -43 -103 -15 13 -18 34 -18 124 0 76 4 109 13 112 17
8 21 8 34 -1z m-2716 -12 c10 -6 19 -15 19 -20 0 -8 -111 -80 -124 -80 -11 0
-6 55 7 71 27 35 65 46 98 29z m2481 -17 c20 -18 32 -63 20 -75 -10 -10 -132
60 -132 75 0 13 44 26 70 21 14 -3 32 -12 42 -21z m-1588 -145 c22 -32 20 -42
-4 -18 -26 26 -50 25 -78 0 -26 -24 -29 -14 -6 18 10 14 26 22 44 22 18 0 34
-8 44 -22z m369 -4 c32 -32 39 -75 35 -214 -5 -158 -22 -132 -26 37 -2 140 -3
142 -29 162 -42 34 -85 26 -108 -20 -11 -20 -15 -64 -15 -159 0 -86 -4 -130
-11 -130 -7 0 -9 48 -7 151 l3 151 28 24 c39 34 96 33 130 -2z m319 9 c25 -23
23 -37 -4 -19 -28 20 -52 20 -68 1 -7 -9 -15 -13 -18 -10 -10 9 31 45 51 45
11 0 29 -7 39 -17z m-2172 -258 c0 -181 -2 -216 -16 -229 -8 -9 -19 -16 -23
-16 -5 0 -10 48 -13 108 -4 90 -9 117 -32 167 -15 33 -34 67 -42 77 -9 9 -14
21 -13 27 5 14 122 89 132 84 4 -2 7 -100 7 -218z m1460 198 c1 -10 1 -74 2
-143 1 -121 0 -125 -20 -128 -22 -3 -22 -1 -22 136 0 76 3 142 7 145 13 13 33
7 33 -10z m358 5 c8 -8 12 -55 12 -145 l0 -133 -40 0 -40 0 0 129 c0 71 3 136
6 145 7 19 45 21 62 4z m336 -4 c3 -9 6 -74 6 -145 l0 -129 -25 0 -25 0 0 138
c0 76 3 142 7 145 11 12 31 7 37 -9z m-2510 -9 c169 -36 257 -154 257 -344 0
-144 -44 -240 -138 -303 -71 -48 -135 -58 -365 -58 l-208 0 0 79 0 79 213 4
c203 3 214 4 261 28 73 37 90 66 94 158 2 65 -1 83 -20 116 -42 72 -72 80
-323 86 l-220 5 -3 69 c-2 38 -1 75 2 83 8 19 355 18 450 -2z m6011 -30 c43
-20 76 -37 74 -39 -2 -2 -26 -21 -54 -41 -27 -21 -54 -44 -58 -52 -4 -7 -13
-13 -18 -13 -14 0 -139 90 -139 100 0 10 91 78 106 79 6 1 46 -15 89 -34z
m-6515 -63 c0 -55 4 -92 12 -100 8 -8 50 -12 123 -12 66 0 104 -4 95 -9 -34
-20 -333 -120 -341 -115 -5 3 -9 23 -9 45 0 34 -4 41 -27 50 l-27 10 27 22
c24 20 27 29 29 96 l3 74 45 12 c74 20 70 24 70 -73z m6328 -48 l101 -76 -18
-37 c-26 -50 -49 -134 -57 -208 l-6 -62 -29 14 c-37 20 -104 19 -138 -1 -15
-9 -37 -31 -50 -49 l-22 -33 -65 64 c-71 69 -182 132 -253 141 -83 11 -168
-45 -212 -141 -10 -23 -19 -51 -19 -64 0 -16 -10 -28 -32 -40 -52 -27 -125
-106 -158 -172 -17 -33 -32 -60 -34 -60 -2 0 -20 27 -40 59 -41 67 -93 116
-145 139 -53 22 -138 19 -187 -6 l-41 -21 -7 77 c-3 42 -7 86 -9 96 -2 22 -21
16 244 81 307 74 703 213 954 335 44 21 89 39 101 39 11 1 66 -33 122 -75z
m-4388 -9 c0 -37 -4 -65 -10 -65 -6 0 -10 28 -10 65 0 37 4 65 10 65 6 0 10
-28 10 -65z m1448 -5 c-4 -78 -28 -80 -28 -2 0 32 3 62 7 66 15 14 24 -14 21
-64z m-3628 28 c23 -17 33 -19 42 -10 15 15 38 16 38 2 0 -5 -13 -22 -30 -37
-44 -39 -41 -106 5 -114 11 -3 20 -11 20 -19 0 -12 -20 -16 -107 -18 -98 -2
-108 -1 -109 15 -5 110 1 157 22 179 29 31 80 32 119 2z m7375 -93 c55 -9 110
-19 122 -21 21 -4 21 -4 -8 -62 -17 -32 -33 -80 -37 -107 -7 -42 -11 -50 -27
-47 -47 6 -92 6 -116 -2 -26 -7 -27 -7 -33 56 -4 35 -16 88 -27 118 -36 99
-36 94 -3 87 16 -3 74 -13 129 -22z m-6625 -4 c45 -23 64 -63 63 -128 0 -61
-19 -95 -66 -120 -27 -15 -68 -19 -267 -23 l-235 -5 -5 -125 -5 -125 -80 -27
c-105 -35 -125 -35 -125 -4 0 22 5 25 43 28 l42 3 5 179 c4 145 8 180 20 187
8 5 103 40 210 78 107 39 211 77 230 85 49 21 128 20 170 -3z m4200 -63 c108
-66 151 -164 158 -365 5 -150 12 -163 61 -103 54 68 161 79 241 26 47 -31 111
-124 135 -197 20 -59 39 -63 56 -11 18 57 75 165 105 201 135 161 367 28 404
-231 12 -84 -3 -171 -46 -256 -40 -81 -37 -106 11 -84 37 17 97 15 124 -4 51
-36 63 -131 20 -170 -24 -21 -25 -44 -1 -44 55 0 122 -72 122 -132 l0 -28
-140 0 -140 0 0 45 c0 26 -7 60 -16 78 -19 38 -63 87 -78 87 -6 0 -29 14 -50
30 -22 17 -50 30 -62 30 -22 0 -23 1 -8 35 38 92 -3 207 -91 252 -41 22 -124
21 -172 -1 l-40 -18 -32 32 c-30 30 -35 32 -81 26 l-49 -7 -7 38 c-29 164
-177 224 -291 120 -22 -19 -24 -19 -42 -3 -37 34 -88 38 -166 13 -19 -6 -20
-2 -21 76 0 74 -4 90 -37 159 -27 56 -51 89 -87 120 l-50 43 0 106 c0 97 2
107 23 126 38 35 60 42 127 43 57 0 73 -4 120 -32z m-332 -60 c4 -19 -76 -100
-90 -92 -4 3 -8 18 -8 35 0 19 -5 29 -15 29 -11 0 -15 -12 -15 -47 0 -27 -4
-54 -8 -61 -7 -10 -333 -12 -1598 -10 l-1589 3 -3 58 c-3 49 -6 58 -20 55 -11
-2 -19 -16 -22 -37 l-5 -33 -49 46 c-90 83 -245 76 1698 74 1621 -3 1721 -4
1724 -20z m-4543 -61 c3 -12 5 -58 3 -102 l-3 -80 -110 0 -110 0 -3 85 c-1 47
2 91 7 99 19 28 31 -1 31 -75 l0 -75 28 3 c26 3 27 5 30 71 2 49 7 67 17 67
10 0 15 -18 17 -67 3 -66 4 -68 31 -71 l27 -3 0 79 c0 43 3 82 7 85 12 13 23
7 28 -16z m1290 -216 l130 -111 144 0 144 0 86 -73 c47 -40 178 -151 291 -247
117 -98 206 -182 208 -194 4 -19 3 -19 -23 -2 -29 19 -60 14 -69 -11 -17 -42
30 -79 63 -49 26 24 31 20 31 -24 l0 -40 -42 0 c-41 0 -54 9 -331 245 l-288
245 -144 0 -144 0 -130 111 -131 110 0 105 0 106 38 -30 c20 -17 96 -80 167
-141z m3255 99 c0 -69 -5 -81 -27 -59 -29 29 -89 -14 -67 -48 13 -21 52 -29
67 -14 16 16 29 14 25 -4 -2 -8 -61 -64 -133 -125 l-130 -110 -141 0 c-130 0
-144 -2 -170 -22 -16 -12 -147 -123 -291 -245 -248 -211 -264 -223 -302 -223
l-41 0 0 73 0 73 291 247 291 247 144 0 143 0 88 74 c48 41 122 103 163 139
41 36 78 66 83 66 4 1 7 -30 7 -69z m-3522 -122 l-3 -172 -65 -38 c-59 -34
-66 -36 -85 -23 -89 65 -188 81 -272 45 -28 -12 -59 -30 -68 -40 -15 -17 -20
-17 -50 -4 -47 19 -122 17 -170 -5 -90 -41 -133 -116 -143 -249 l-7 -85 -52
-18 -52 -18 -15 30 c-13 26 -13 34 0 64 18 45 18 126 -1 172 -11 25 -12 40 -5
47 5 5 10 31 10 57 0 54 -11 47 145 95 106 33 116 34 272 34 89 0 186 5 215
11 115 24 211 97 259 196 11 24 30 50 42 58 46 32 48 26 45 -157z m3282 84 c0
-32 -17 -32 -1488 -32 -1003 0 -1469 3 -1483 11 -11 5 -17 14 -14 20 8 11
2985 13 2985 1z m353 -64 c42 -52 54 -75 73 -136 17 -57 18 -131 2 -183 -6
-22 -9 -42 -5 -45 3 -3 36 6 74 21 86 35 126 28 162 -27 27 -42 35 -41 55 7
26 62 119 85 176 45 40 -29 70 -96 70 -158 0 -28 5 -54 10 -57 6 -4 25 3 44
14 45 28 82 27 101 -3 13 -20 14 -29 5 -46 -9 -16 -9 -25 -1 -33 8 -8 20 -1
44 25 78 86 226 68 267 -32 18 -43 8 -134 -18 -170 -36 -48 -30 -62 23 -54 38
5 52 2 83 -18 20 -13 46 -28 57 -34 39 -21 66 -75 63 -124 l-3 -45 -273 -3
c-244 -2 -273 -1 -279 14 -10 26 24 163 57 230 35 72 36 74 11 74 -33 0 -145
-132 -196 -230 -37 -74 -50 -90 -69 -90 -12 0 -25 2 -28 5 -3 3 3 31 14 62 21
65 34 203 24 257 -11 56 -31 44 -44 -26 -6 -35 -26 -92 -44 -127 -41 -81 -121
-171 -153 -171 -31 0 -37 28 -25 126 11 100 27 164 57 233 28 64 27 61 4 61
-29 0 -66 -51 -128 -174 -55 -109 -69 -121 -61 -48 9 72 -11 194 -44 264 -33
73 -66 95 -53 36 16 -81 17 -209 0 -281 -22 -98 -69 -211 -89 -215 -15 -3 -16
46 -16 547 0 334 4 551 9 551 5 0 25 -19 44 -42z m-145 9 c2 -11 -3 -17 -17
-17 -23 0 -35 15 -26 31 10 15 39 6 43 -14z m-298 -27 c0 -5 -9 -14 -19 -20
-13 -7 -464 -10 -1389 -10 -1356 0 -1369 0 -1387 20 -18 20 -17 20 1388 20
897 0 1407 -3 1407 -10z m-4215 -40 c0 -10 -14 -17 -45 -20 l-45 -5 0 -70 0
-70 45 -5 c25 -3 44 -8 43 -12 -2 -5 -3 -12 -3 -18 0 -16 -195 -13 -209 3 -15
18 -4 27 34 27 43 0 55 16 55 71 0 70 -6 79 -51 79 -33 0 -39 3 -39 20 0 20 5
21 108 18 87 -2 107 -6 107 -18z m3839 -31 c5 -5 -317 -281 -335 -287 -5 -2
-9 6 -9 18 0 29 -44 70 -75 70 -14 0 -37 -11 -50 -25 -23 -22 -25 -32 -25
-114 0 -49 -4 -93 -10 -96 -6 -4 -10 25 -10 80 0 48 -5 96 -12 108 -28 53 -80
62 -119 21 -27 -28 -28 -44 -36 -396 l-4 -167 -335 -3 c-184 -2 -339 -1 -344
0 -6 2 -10 50 -10 115 0 62 -3 184 -7 272 -6 148 -8 161 -29 182 -30 30 -69
29 -99 -2 -23 -22 -25 -32 -25 -114 0 -49 -4 -93 -10 -96 -6 -4 -10 25 -10 80
0 109 -22 154 -76 155 -28 0 -74 -37 -74 -60 0 -10 -4 -21 -9 -25 -11 -6 -341
272 -341 288 0 10 2045 6 2054 -4z m-2611 -116 l109 -93 145 0 145 0 266 -226
c147 -125 275 -234 285 -243 10 -8 39 -18 65 -21 l47 -5 3 -67 c3 -65 2 -67
-26 -82 -16 -8 -32 -24 -35 -36 -4 -14 -13 -20 -34 -20 -33 0 -53 -16 -53 -42
0 -17 -26 -18 -530 -18 l-530 0 0 486 c0 457 1 486 17 473 9 -8 66 -56 126
-106z m3315 -374 l-3 -474 -530 0 -529 0 -6 25 c-5 20 -13 26 -42 28 -29 2
-37 8 -42 27 -4 15 -16 27 -31 31 -24 6 -25 10 -25 80 l0 74 44 0 c43 0 51 5
333 245 l288 245 141 0 c162 0 144 -8 304 133 47 41 88 72 93 68 4 -4 6 -221
5 -482z m-3752 320 c25 -12 56 -37 70 -55 48 -62 54 -106 54 -381 l0 -253
-351 0 -350 0 3 263 c3 249 4 264 25 304 32 59 75 86 146 91 48 4 64 1 87 -17
38 -28 46 -27 78 10 14 18 40 38 57 45 47 20 128 17 181 -7z m-825 -79 c4 0
16 -14 25 -32 29 -57 5 -213 -29 -179 -6 6 -5 21 2 42 22 63 9 139 -25 139
-18 0 -34 -40 -34 -85 0 -69 -36 -114 -80 -100 -43 14 -63 104 -39 174 13 36
46 45 35 9 -15 -48 -18 -106 -7 -127 24 -45 49 -19 60 64 11 73 38 112 68 100
8 -3 19 -5 24 -5z m2267 -2 c13 -13 17 -138 5 -138 -18 0 -73 66 -73 88 0 51
38 80 68 50z m180 -95 l3 -103 -36 0 -35 0 0 98 c0 54 3 102 7 106 4 4 19 6
33 4 25 -3 25 -4 28 -105z m861 93 c8 -9 11 -46 9 -103 l-3 -88 -35 0 -35 0
-3 88 c-3 93 5 117 38 117 10 0 23 -6 29 -14z m175 -2 c3 -9 6 -30 6 -49 0
-25 -7 -38 -34 -58 -18 -15 -36 -23 -40 -20 -10 10 -7 103 4 124 13 23 55 25
64 3z m-1046 -271 c-2 -10 -12 -18 -23 -18 -11 0 -21 8 -23 18 -3 13 3 17 23
17 20 0 26 -4 23 -17z m870 0 c-4 -20 -35 -30 -50 -15 -15 15 0 32 28 32 19 0
25 -5 22 -17z m-3273 -33 c0 -12 -20 -16 -107 -18 -103 -3 -108 -2 -108 18 0
20 5 21 108 18 87 -2 107 -6 107 -18z m2263 -3 c4 -21 -27 -35 -38 -17 -12 19
0 42 19 38 9 -2 17 -11 19 -21z m142 -127 c0 -65 -4 -110 -10 -110 -5 0 -12
-11 -16 -25 -3 -14 -10 -25 -15 -25 -10 0 -12 253 -2 263 3 4 15 7 25 7 16 0
18 -10 18 -110z m868 -27 c2 -114 0 -133 -13 -133 -8 0 -15 8 -15 19 0 10 -7
24 -15 31 -11 10 -15 35 -15 110 0 53 3 100 7 104 4 4 16 6 28 4 19 -3 20 -11
23 -135z m3151 4 c26 -40 69 -111 95 -160 53 -97 52 -101 -25 -95 l-43 3 -13
74 c-12 75 -24 114 -62 209 -27 68 -13 59 48 -31z m-6609 -13 c5 -76 6 -79 30
-79 24 0 25 3 28 65 3 67 16 96 31 71 5 -7 6 -32 4 -55 -7 -59 9 -86 51 -86
39 0 50 -8 35 -27 -15 -18 -192 -19 -206 0 -12 14 -17 148 -8 178 14 42 30 11
35 -67z m4954 -66 c-4 -45 -12 -102 -19 -127 -9 -39 -15 -46 -38 -49 -34 -4
-34 6 -2 88 14 35 30 90 37 121 17 82 30 62 22 -33z m2407 -53 c11 -54 18
-104 15 -111 -4 -10 -23 -14 -61 -14 l-55 0 0 39 c0 21 -3 60 -7 86 -4 34 -3
46 5 41 6 -3 14 -26 18 -51 8 -56 28 -75 45 -44 8 15 9 46 5 98 -10 106 9 82
35 -44z m-2279 -10 l-7 -110 -37 -3 c-21 -2 -38 0 -38 5 0 32 77 229 86 220 1
-1 0 -52 -4 -112z m1816 -32 c28 -41 52 -76 52 -79 0 -3 -19 -4 -42 -2 l-43 3
-27 83 c-15 46 -29 97 -33 115 l-6 32 23 -39 c13 -21 47 -72 76 -113z m-1347
54 c-5 -17 -13 -56 -16 -84 l-7 -53 -39 0 c-21 0 -39 5 -39 10 0 15 37 86 74
143 33 51 46 43 27 -16z m2013 -34 c15 -45 25 -86 22 -91 -8 -13 -46 -7 -57 9
-11 18 -12 186 0 174 5 -6 21 -47 35 -92z m-2228 17 c-3 -22 -13 -58 -22 -80
-14 -36 -20 -40 -50 -40 -39 0 -43 9 -13 36 11 10 35 42 52 71 17 29 33 53 36
53 2 0 1 -18 -3 -40z m-1946 10 c0 -6 -137 -10 -390 -10 -253 0 -390 4 -390
10 0 6 137 10 390 10 253 0 390 -4 390 -10z m148 -57 c3 -10 -109 -13 -537
-13 -297 0 -542 4 -545 9 -3 4 -3 11 1 15 4 3 247 5 541 4 418 -2 536 -6 540
-15z m90 -57 c2 -3 2 -12 -1 -21 -6 -13 -77 -15 -632 -15 -609 0 -625 0 -625
19 0 11 4 21 10 23 16 5 1242 -1 1248 -6z"/>
<path d="M3521 4994 c-25 -32 -26 -43 -5 -72 18 -26 75 -30 94 -7 20 24 15 67
-10 87 -31 25 -55 23 -79 -8z m64 -24 c4 -6 1 -18 -6 -26 -11 -13 -14 -13 -27
0 -8 8 -11 19 -8 25 9 14 33 14 41 1z"/>
<path d="M3998 5009 c-63 -37 -25 -121 48 -107 10 2 25 15 33 30 14 25 14 29
-5 55 -23 31 -49 38 -76 22z m49 -45 c8 -22 -18 -37 -36 -20 -7 8 -10 19 -7
25 10 16 36 13 43 -5z"/>
<path d="M4450 5000 c-39 -39 -14 -100 43 -100 27 0 57 32 57 60 0 21 -41 60
-63 60 -9 0 -26 -9 -37 -20z m57 -36 c7 -20 -17 -37 -34 -23 -15 13 -6 39 13
39 8 0 17 -7 21 -16z"/>
<path d="M4850 5001 c-24 -45 -6 -101 32 -101 37 0 51 75 20 103 -24 22 -39
21 -52 -2z m45 -47 c0 -10 -8 -20 -17 -22 -18 -3 -26 27 -11 42 12 11 28 0 28
-20z"/>
<path d="M765 5205 c-52 -51 -22 -132 52 -142 35 -5 45 -2 67 20 32 32 35 83
5 121 -28 36 -89 37 -124 1z m93 -63 c-2 -23 -8 -27 -33 -27 -24 0 -31 5 -33
24 -5 32 23 54 50 40 13 -7 18 -19 16 -37z"/>
<path d="M1356 4829 c-48 -38 -56 -67 -56 -201 0 -68 4 -129 8 -136 6 -9 38
-12 123 -10 l114 3 3 125 c4 141 -6 189 -45 219 -35 29 -111 29 -147 0z m127
-51 c15 -18 17 -37 15 -132 l-3 -111 -70 0 -70 0 -3 90 c-4 127 2 153 41 170
38 17 65 11 90 -17z"/>
<path d="M2511 4874 c-47 -33 -51 -63 -51 -358 0 -151 3 -281 6 -290 5 -13 24
-16 109 -16 85 0 104 3 109 16 3 9 6 141 6 295 0 300 -3 319 -52 353 -29 21
-97 20 -127 0z m114 -39 c14 -13 25 -34 25 -45 0 -19 -3 -19 -26 9 -15 18 -35
31 -49 31 -14 0 -34 -13 -49 -31 -23 -28 -26 -28 -26 -9 0 29 44 70 75 70 14
0 37 -11 50 -25z m-27 -188 l3 -137 -26 0 -25 0 0 133 c0 74 3 137 7 141 4 4
14 5 23 4 12 -3 15 -26 18 -141z m-23 -177 c20 0 45 5 56 10 18 10 19 6 19
-110 l0 -120 -75 0 -75 0 0 120 c0 116 1 120 19 110 11 -5 36 -10 56 -10z"/>
<path d="M2776 4863 c-14 -14 -29 -36 -32 -47 -2 -12 -3 -151 -2 -311 l3 -290
105 0 105 0 3 290 c1 160 0 299 -2 311 -3 11 -18 33 -32 47 -21 22 -36 27 -74
27 -38 0 -53 -5 -74 -27z m121 -25 c13 -12 23 -33 22 -47 0 -26 0 -26 -9 -3
-5 12 -21 27 -35 34 -32 14 -72 -2 -85 -34 l-9 -23 0 24 c-1 32 36 71 68 71
13 0 35 -10 48 -22z m-23 -64 c3 -9 6 -72 6 -140 l0 -124 -30 0 -30 0 0 133
c0 74 3 137 7 140 12 13 41 7 47 -9z m48 -516 c-2 -5 -34 -8 -73 -8 l-69 0 0
122 c0 95 3 119 12 110 7 -7 34 -12 60 -12 37 0 50 4 56 18 4 9 9 -37 12 -103
3 -66 4 -123 2 -127z"/>
<path d="M3037 4866 c-14 -13 -29 -35 -32 -48 -3 -12 -4 -153 -3 -313 l3 -290
105 0 105 0 3 290 c1 160 0 301 -3 313 -11 43 -53 72 -105 72 -36 0 -53 -6
-73 -24z m120 -28 c13 -12 23 -30 23 -41 0 -18 -2 -17 -25 7 -30 33 -59 33
-91 1 -32 -32 -36 -31 -23 2 20 54 75 69 116 31z m-23 -64 c3 -9 6 -72 6 -140
l0 -124 -30 0 -30 0 0 124 c0 137 4 156 30 156 10 0 21 -7 24 -16z m-79 -294
c9 -14 98 -13 112 1 18 18 24 -22 21 -131 l-3 -95 -75 0 -75 0 -3 118 c-2 108
4 138 23 107z"/>
<path d="M3477 4283 c-10 -9 -8 -76 2 -92 16 -25 31 -1 31 50 0 34 -4 49 -13
49 -8 0 -17 -3 -20 -7z"/>
<path d="M3590 4241 c0 -51 15 -75 31 -50 16 24 6 93 -13 97 -15 3 -18 -4 -18
-47z"/>
<path d="M3708 4252 c-4 -50 1 -74 15 -69 7 2 13 27 15 55 2 40 0 52 -11 52
-10 0 -16 -13 -19 -38z"/>
<path d="M3820 4241 c0 -51 15 -75 31 -50 16 24 6 93 -13 97 -15 3 -18 -4 -18
-47z"/>
<path d="M3940 4234 c0 -73 24 -70 28 4 2 42 0 52 -12 52 -13 0 -16 -12 -16
-56z"/>
<path d="M4054 4277 c-11 -29 0 -92 16 -92 11 0 15 12 15 49 0 49 -19 74 -31
43z"/>
<path d="M4170 4234 c0 -73 24 -70 28 4 2 42 0 52 -12 52 -13 0 -16 -12 -16
-56z"/>
<path d="M4284 4277 c-11 -29 0 -92 16 -92 11 0 15 12 15 49 0 49 -19 74 -31
43z"/>
<path d="M4400 4235 c0 -42 3 -55 15 -55 12 0 15 13 15 55 0 42 -3 55 -15 55
-12 0 -15 -13 -15 -55z"/>
<path d="M4514 4276 c-11 -28 0 -91 16 -91 11 0 16 14 18 53 2 42 0 52 -13 52
-9 0 -18 -6 -21 -14z"/>
<path d="M4630 4241 c0 -51 15 -75 31 -50 16 24 6 93 -13 97 -15 3 -18 -4 -18
-47z"/>
<path d="M4747 4283 c-10 -9 -8 -76 2 -92 16 -25 31 -1 31 50 0 34 -4 49 -13
49 -8 0 -17 -3 -20 -7z"/>
<path d="M4860 4241 c0 -51 15 -75 31 -50 16 24 6 93 -13 97 -15 3 -18 -4 -18
-47z"/>
<path d="M4977 4283 c-10 -9 -8 -76 2 -92 16 -25 31 -1 31 50 0 34 -4 49 -13
49 -8 0 -17 -3 -20 -7z"/>
<path d="M793 4170 c-24 -10 -43 -24 -43 -30 0 -13 100 -61 112 -54 4 3 8 27
8 55 0 57 -9 60 -77 29z"/>
<path d="M1440 3805 c-74 -30 -136 -55 -138 -55 -2 0 -2 -12 0 -26 3 -23 19
-32 147 -86 116 -49 145 -58 152 -47 5 8 8 70 7 139 -3 102 -6 125 -18 127 -8
1 -76 -22 -150 -52z m120 -79 c0 -36 -4 -67 -9 -70 -11 -7 -161 56 -162 68 0
10 125 63 154 65 14 1 17 -8 17 -63z"/>
<path d="M2502 3888 c-7 -7 -12 -43 -12 -93 0 -88 8 -105 50 -105 42 0 50 17
50 105 0 88 -8 105 -50 105 -14 0 -31 -5 -38 -12z m48 -93 c0 -37 -4 -65 -10
-65 -6 0 -10 28 -10 65 0 37 4 65 10 65 6 0 10 -28 10 -65z"/>
<path d="M2726 3795 c-11 -30 -7 -170 6 -183 16 -16 63 -15 77 2 8 9 11 46 9
103 l-3 88 -41 3 c-31 2 -43 -1 -48 -13z m54 -90 c0 -37 -4 -65 -10 -65 -6 0
-10 28 -10 65 0 37 4 65 10 65 6 0 10 -28 10 -65z"/>
<path d="M2966 3714 c-12 -11 -16 -36 -16 -92 0 -42 4 -83 9 -90 5 -8 23 -12
47 -10 l39 3 3 88 c2 57 -1 94 -9 103 -15 19 -54 18 -73 -2z m44 -89 c0 -37
-4 -65 -10 -65 -6 0 -10 28 -10 65 0 37 4 65 10 65 6 0 10 -28 10 -65z"/>
<path d="M3196 3632 c-10 -16 -9 -183 1 -193 6 -6 26 -9 44 -7 l34 3 0 100 0
100 -37 3 c-20 2 -39 -1 -42 -6z m44 -97 c0 -37 -4 -65 -10 -65 -6 0 -10 28
-10 65 0 37 4 65 10 65 6 0 10 -28 10 -65z"/>
<path d="M851 3906 c-7 -9 -11 -38 -9 -73 3 -57 3 -58 33 -58 30 0 30 1 33 58
3 58 -8 87 -33 87 -7 0 -18 -6 -24 -14z"/>
<path d="M755 3877 c-4 -13 -5 -41 -3 -63 3 -34 6 -39 28 -39 24 0 25 3 25 60
0 54 -2 60 -22 63 -17 2 -24 -3 -28 -21z"/>
<path d="M1409 2987 c-29 -16 -54 -40 -74 -72 -29 -47 -30 -51 -30 -179 l0
-131 198 -3 199 -2 -4 139 c-3 137 -4 140 -33 183 -62 86 -165 113 -256 65z
m172 -50 c54 -36 69 -77 69 -189 l0 -98 -150 0 -150 0 0 98 c0 111 15 152 70
190 45 30 115 30 161 -1z"/>
<path d="M2060 2891 c0 -51 15 -75 31 -50 19 31 7 99 -17 99 -10 0 -14 -14
-14 -49z"/>
<path d="M2176 2924 c-16 -41 0 -104 23 -90 17 11 14 106 -3 106 -8 0 -17 -7
-20 -16z"/>
<path d="M4196 2924 c-15 -40 0 -94 26 -94 4 0 8 25 8 55 0 40 -4 55 -14 55
-8 0 -17 -7 -20 -16z"/>
<path d="M4314 2927 c-11 -29 0 -92 16 -92 11 0 15 12 15 49 0 49 -19 74 -31
43z"/>
<path d="M4432 2888 c4 -74 28 -77 28 -4 0 44 -3 56 -16 56 -12 0 -14 -10 -12
-52z"/>
<path d="M4544 2927 c-11 -29 0 -92 16 -92 11 0 15 12 15 49 0 49 -19 74 -31
43z"/>
<path d="M4662 2888 c4 -62 24 -76 29 -21 5 52 0 73 -17 73 -12 0 -14 -11 -12
-52z"/>
<path d="M4774 2926 c-11 -28 0 -91 16 -91 11 0 16 14 18 53 2 42 0 52 -13 52
-9 0 -18 -6 -21 -14z"/>
<path d="M4890 2891 c0 -51 15 -75 31 -50 19 31 7 99 -17 99 -10 0 -14 -14
-14 -49z"/>
<path d="M5006 2924 c-16 -41 0 -104 23 -90 17 11 14 106 -3 106 -8 0 -17 -7
-20 -16z"/>
<path d="M5236 2924 c-10 -27 -7 -71 7 -83 20 -16 27 -3 27 51 0 34 -4 48 -14
48 -8 0 -17 -7 -20 -16z"/>
<path d="M5354 2927 c-11 -29 0 -92 16 -92 11 0 15 12 15 49 0 49 -19 74 -31
43z"/>
<path d="M792 2739 c-25 -11 -42 -24 -40 -31 4 -14 84 -57 106 -58 8 0 12 17
12 55 0 63 -7 66 -78 34z"/>
<path d="M3310 2661 c-16 -31 4 -63 37 -59 34 4 52 32 37 56 -16 26 -60 28
-74 3z m58 -18 c-5 -26 -38 -29 -38 -4 0 15 6 21 21 21 14 0 19 -5 17 -17z"/>
<path d="M3432 2668 c-29 -29 -3 -72 40 -66 19 2 23 9 23 38 0 30 -4 35 -25
38 -14 2 -31 -3 -38 -10z m48 -28 c0 -21 -24 -28 -35 -10 -8 14 3 30 21 30 8
0 14 -9 14 -20z"/>
<path d="M3015 2590 c-17 -18 -17 -21 -1 -45 19 -29 38 -32 60 -9 19 18 21 45
4 62 -18 18 -43 15 -63 -8z m55 -25 c0 -7 -6 -15 -12 -18 -19 -6 -38 3 -38 18
0 7 6 15 13 18 18 6 37 -3 37 -18z"/>
<path d="M2864 2495 c-16 -24 -16 -27 2 -46 22 -24 52 -21 70 6 12 18 11 24
-2 43 -20 29 -50 28 -70 -3z m53 -11 c9 -23 -13 -40 -32 -24 -12 10 -13 16 -4
26 15 18 28 18 36 -2z"/>
<path d="M2720 2416 c-28 -34 11 -93 47 -70 32 20 39 41 19 63 -22 24 -49 27
-66 7z m50 -25 c0 -11 -5 -23 -11 -27 -15 -9 -33 12 -26 30 9 23 37 20 37 -3z"/>
<path d="M2576 2324 c-22 -21 -20 -51 4 -64 46 -25 88 23 54 61 -21 23 -37 24
-58 3z m47 -18 c8 -19 -15 -37 -32 -26 -17 10 -7 40 13 40 7 0 16 -6 19 -14z"/>
<path d="M2428 2230 c-20 -15 -21 -21 -10 -44 14 -32 56 -36 72 -6 25 47 -21
84 -62 50z m50 -21 c4 -19 -19 -31 -38 -19 -18 11 -4 42 17 38 10 -2 19 -10
21 -19z"/>
<path d="M2274 2139 c-20 -22 -13 -43 19 -63 39 -25 77 42 40 69 -25 20 -37
18 -59 -6z m53 -15 c9 -23 -13 -40 -32 -24 -12 10 -13 16 -4 26 15 18 28 18
36 -2z"/>
<path d="M3632 2668 c-28 -28 -3 -72 39 -66 30 4 47 33 33 56 -14 21 -55 27
-72 10z m56 -25 c5 -17 -26 -29 -40 -15 -6 6 -7 15 -3 22 9 14 37 9 43 -7z"/>
<path d="M3802 2660 c-30 -48 40 -84 72 -38 14 20 14 24 -1 40 -21 24 -55 23
-71 -2z m58 -15 c0 -9 -7 -18 -16 -22 -18 -7 -39 11 -30 26 11 17 46 13 46 -4z"/>
<path d="M4012 2668 c-27 -27 -6 -68 35 -68 27 0 38 20 29 55 -7 27 -42 35
-64 13z m46 -25 c-2 -10 -10 -18 -18 -18 -8 0 -16 8 -18 18 -2 12 3 17 18 17
15 0 20 -5 18 -17z"/>
<path d="M4122 2663 c-15 -29 3 -63 33 -63 32 0 55 41 35 65 -17 20 -57 19
-68 -2z m56 -20 c5 -17 -26 -29 -40 -15 -6 6 -7 15 -3 22 9 14 37 9 43 -7z"/>
<path d="M4425 2594 c-9 -9 -14 -23 -11 -31 3 -8 6 -16 6 -18 0 -3 9 -9 20
-15 27 -15 60 4 60 33 0 44 -44 62 -75 31z m52 -20 c9 -23 -13 -40 -32 -24
-12 10 -13 16 -4 26 15 18 28 18 36 -2z"/>
<path d="M4575 2500 c-16 -18 -17 -23 -5 -45 16 -29 47 -33 66 -7 18 23 17 37
-2 56 -21 21 -37 20 -59 -4z m44 -9 c17 -11 7 -41 -13 -41 -19 0 -29 17 -22
35 6 17 15 18 35 6z"/>
<path d="M4720 2416 c-28 -34 11 -93 47 -70 32 20 39 41 19 63 -22 24 -49 27
-66 7z m47 -22 c8 -21 -13 -42 -28 -27 -13 13 -5 43 11 43 6 0 13 -7 17 -16z"/>
<path d="M4876 2327 c-38 -27 2 -95 42 -71 21 14 28 50 12 70 -15 17 -31 18
-54 1z m41 -23 c8 -21 -13 -42 -28 -27 -13 13 -5 43 11 43 6 0 13 -7 17 -16z"/>
<path d="M5032 2243 c-7 -2 -17 -14 -23 -25 -20 -37 39 -76 69 -46 18 18 14
56 -7 68 -11 5 -21 10 -23 9 -2 0 -9 -3 -16 -6z m35 -29 c9 -23 -13 -40 -32
-24 -12 10 -13 16 -4 26 15 18 28 18 36 -2z"/>
<path d="M5165 2140 c-16 -18 -17 -23 -5 -45 21 -40 80 -28 80 15 0 18 -30 50
-47 50 -5 0 -18 -9 -28 -20z m53 -23 c4 -21 -25 -34 -40 -19 -8 8 -8 16 2 27
16 19 34 15 38 -8z"/>
<path d="M769 2089 c-16 -16 -19 -30 -17 -72 l3 -52 45 0 45 0 3 54 c5 80 -34
115 -79 70z"/>
<path d="M2234 1857 c-11 -29 0 -92 16 -92 11 0 15 12 15 49 0 49 -19 74 -31
43z"/>
<path d="M2352 1818 c4 -74 28 -77 28 -4 0 44 -3 56 -16 56 -12 0 -14 -10 -12
-52z"/>
<path d="M2467 1863 c-10 -9 -8 -76 2 -92 16 -25 31 -1 31 50 0 34 -4 49 -13
49 -8 0 -17 -3 -20 -7z"/>
<path d="M2580 1821 c0 -51 15 -75 31 -50 19 31 7 99 -17 99 -10 0 -14 -14
-14 -49z"/>
<path d="M2697 1863 c-10 -9 -8 -76 2 -92 16 -25 31 -1 31 50 0 34 -4 49 -13
49 -8 0 -17 -3 -20 -7z"/>
<path d="M2810 1821 c0 -51 15 -75 31 -50 16 24 6 93 -13 97 -15 3 -18 -4 -18
-47z"/>
<path d="M2926 1854 c-16 -41 0 -104 23 -90 17 11 14 106 -3 106 -8 0 -17 -7
-20 -16z"/>
<path d="M3042 1818 c2 -39 7 -53 18 -53 11 0 15 12 15 50 0 40 -4 50 -18 53
-16 3 -18 -3 -15 -50z"/>
<path d="M3160 1814 c0 -73 24 -70 28 4 2 42 0 52 -12 52 -13 0 -16 -12 -16
-56z"/>
<path d="M3272 1818 c2 -39 7 -53 18 -53 11 0 15 12 15 50 0 40 -4 50 -18 53
-16 3 -18 -3 -15 -50z"/>
<path d="M3390 1814 c0 -40 3 -55 13 -52 32 11 34 108 2 108 -12 0 -15 -13
-15 -56z"/>
<path d="M3504 1856 c-11 -28 0 -91 16 -91 11 0 16 14 18 53 2 42 0 52 -13 52
-9 0 -18 -6 -21 -14z"/>
<path d="M3620 1821 c0 -51 15 -75 31 -50 16 24 6 93 -13 97 -15 3 -18 -4 -18
-47z"/>
<path d="M3734 1856 c-11 -28 0 -91 16 -91 11 0 16 14 18 53 2 42 0 52 -13 52
-9 0 -18 -6 -21 -14z"/>
<path d="M3852 1818 c2 -39 7 -53 18 -53 11 0 15 12 15 50 0 40 -4 50 -18 53
-16 3 -18 -3 -15 -50z"/>
<path d="M3967 1863 c-10 -9 -8 -76 2 -92 16 -25 31 -1 31 50 0 34 -4 49 -13
49 -8 0 -17 -3 -20 -7z"/>
<path d="M4082 1818 c2 -39 7 -53 18 -53 11 0 15 12 15 50 0 40 -4 50 -18 53
-16 3 -18 -3 -15 -50z"/>
<path d="M4196 1854 c-10 -27 -7 -71 7 -83 20 -16 27 -3 27 51 0 34 -4 48 -14
48 -8 0 -17 -7 -20 -16z"/>
<path d="M4312 1818 c2 -39 7 -53 18 -53 11 0 16 14 18 53 3 47 1 52 -18 52
-19 0 -21 -5 -18 -52z"/>
<path d="M4432 1818 c4 -74 28 -77 28 -4 0 44 -3 56 -16 56 -12 0 -14 -10 -12
-52z"/>
<path d="M4544 1856 c-11 -28 0 -91 16 -91 11 0 16 14 18 53 2 42 0 52 -13 52
-9 0 -18 -6 -21 -14z"/>
<path d="M4662 1818 c4 -62 24 -76 29 -21 5 52 0 73 -17 73 -12 0 -14 -11 -12
-52z"/>
<path d="M4777 1863 c-10 -9 -8 -76 2 -92 16 -25 31 -1 31 50 0 34 -4 49 -13
49 -8 0 -17 -3 -20 -7z"/>
<path d="M4890 1821 c0 -51 15 -75 31 -50 19 31 7 99 -17 99 -10 0 -14 -14
-14 -49z"/>
<path d="M5006 1854 c-16 -41 0 -104 23 -90 17 11 14 106 -3 106 -8 0 -17 -7
-20 -16z"/>
<path d="M5120 1821 c0 -51 15 -75 31 -50 16 24 6 93 -13 97 -15 3 -18 -4 -18
-47z"/>
<path d="M5240 1814 c0 -73 24 -70 28 4 2 42 0 52 -12 52 -13 0 -16 -12 -16
-56z"/>
<path d="M2046 1651 c-25 -27 -6 -64 31 -59 34 4 52 32 37 56 -16 24 -47 26
-68 3z m52 -18 c5 -17 -26 -29 -40 -15 -6 6 -7 15 -3 22 9 14 37 9 43 -7z"/>
<path d="M2196 1547 c-38 -27 2 -95 42 -71 24 16 28 55 6 71 -10 7 -21 13 -24
13 -3 0 -14 -6 -24 -13z m44 -38 c0 -25 -33 -22 -38 4 -2 12 3 17 17 17 15 0
21 -6 21 -21z"/>
<path d="M2392 1458 c-18 -18 -15 -43 9 -64 22 -19 43 -13 63 19 8 12 5 21 -8
36 -21 24 -46 27 -64 9z m53 -18 c4 -6 1 -18 -6 -26 -11 -13 -14 -13 -27 0 -8
8 -11 19 -8 25 9 14 33 14 41 1z"/>
<path d="M2560 1445 c-12 -23 -12 -28 8 -48 17 -17 26 -19 39 -11 45 28 40 76
-9 82 -17 2 -28 -4 -38 -23z m57 -11 c3 -8 1 -20 -5 -26 -15 -15 -43 8 -35 28
7 19 32 18 40 -2z"/>
<path d="M2717 1342 c-42 -46 14 -100 57 -56 21 20 20 30 -4 54 -25 25 -32 25
-53 2z m38 -28 c0 -10 -8 -20 -17 -22 -18 -3 -26 27 -11 42 12 11 28 0 28 -20z"/>
<path d="M2857 1222 c-22 -24 -21 -35 3 -57 18 -16 23 -17 45 -5 30 16 33 55
6 70 -27 14 -35 13 -54 -8z m48 -12 c4 -6 1 -18 -6 -26 -11 -13 -14 -13 -27 0
-8 8 -11 19 -8 25 9 14 33 14 41 1z"/>
<path d="M3008 1116 c-22 -16 -23 -49 -3 -66 19 -16 45 -9 62 17 13 19 12 24
-6 42 -24 24 -30 25 -53 7z m42 -36 c0 -13 -7 -20 -20 -20 -13 0 -20 7 -20 20
0 13 7 20 20 20 13 0 20 -7 20 -20z"/>
<path d="M5258 1549 c-21 -12 -24 -49 -6 -67 19 -19 45 -14 62 10 13 19 14 25
2 43 -16 24 -35 28 -58 14z m42 -39 c0 -11 -6 -20 -14 -20 -18 0 -29 16 -21
30 11 18 35 11 35 -10z"/>
<path d="M4877 1452 c-22 -24 -21 -35 2 -56 25 -23 59 -13 67 20 12 47 -37 72
-69 36z m48 -12 c4 -6 1 -18 -6 -26 -11 -13 -14 -13 -27 0 -8 8 -11 19 -8 25
9 14 33 14 41 1z"/>
<path d="M5046 1449 c-17 -25 -12 -45 15 -60 21 -11 53 1 62 25 8 19 -20 56
-43 56 -10 0 -26 -10 -34 -21z m52 -21 c-2 -13 -10 -23 -18 -23 -8 0 -16 10
-18 23 -3 17 2 22 18 22 16 0 21 -5 18 -22z"/>
<path d="M4737 1342 c-33 -36 -9 -80 37 -68 33 8 43 42 20 67 -21 24 -36 24
-57 1z m41 -30 c2 -14 -2 -22 -12 -22 -19 0 -29 17 -22 36 8 22 30 12 34 -14z"/>
<path d="M4584 1219 c-20 -22 -13 -43 19 -63 36 -23 75 36 47 70 -17 20 -44
17 -66 -7z m51 -24 c0 -28 -29 -25 -33 3 -3 19 0 23 15 20 10 -2 18 -12 18
-23z"/>
<path d="M4446 1111 c-22 -24 -18 -49 9 -67 18 -12 24 -11 43 2 27 18 28 45 4
67 -24 22 -35 21 -56 -2z m50 -40 c-9 -14 -33 -14 -41 -1 -4 6 -1 18 6 26 11
13 14 13 27 0 8 -8 11 -19 8 -25z"/>
<path d="M4300 996 c-28 -35 11 -93 48 -70 35 22 22 84 -18 84 -10 0 -23 -7
-30 -14z m45 -32 c0 -10 -8 -20 -17 -22 -18 -3 -26 27 -11 42 12 11 28 0 28
-20z"/>
<path d="M3539 1317 c-9 -7 -21 -22 -27 -34 -16 -30 -16 -225 0 -241 12 -12
95 -16 122 -6 13 5 16 26 16 128 0 115 -1 124 -23 144 -26 24 -63 28 -88 9z
m70 -41 c8 -9 11 -47 9 -107 l-3 -94 -35 0 -35 0 -3 94 c-3 97 5 121 38 121
10 0 23 -6 29 -14z"/>
<path d="M3706 1309 c-26 -20 -26 -22 -26 -144 0 -103 3 -124 16 -129 27 -10
110 -6 122 6 18 18 16 211 -3 247 -23 46 -66 54 -109 20z m73 -33 c8 -9 11
-47 9 -107 l-3 -94 -35 0 -35 0 -3 87 c-2 50 2 97 8 108 12 23 42 26 59 6z"/>
<path d="M3875 1305 c-24 -23 -25 -30 -25 -138 0 -74 4 -117 12 -125 12 -12
95 -16 122 -6 13 5 16 26 16 126 0 113 -1 120 -25 143 -13 14 -36 25 -50 25
-14 0 -37 -11 -50 -25z m83 -127 l3 -108 -36 0 -35 0 0 103 c0 57 3 107 7 111
4 4 19 6 33 4 25 -3 25 -4 28 -110z"/>
<path d="M2168 1175 c-15 -9 -32 -24 -38 -35 -6 -10 -10 -92 -10 -188 0 -193
-5 -182 86 -182 96 0 94 -4 94 185 l0 165 -27 29 c-34 37 -69 45 -105 26z m74
-42 c16 -14 18 -34 18 -170 l0 -154 -52 3 -53 3 -3 147 c-2 137 -1 149 18 168
24 24 47 26 72 3z"/>
<path d="M2466 1024 c-11 -29 -7 -169 6 -182 7 -7 24 -12 38 -12 14 0 31 5 38
12 13 13 17 153 6 182 -8 22 -80 22 -88 0z m54 -89 c0 -37 -4 -65 -10 -65 -6
0 -10 28 -10 65 0 37 4 65 10 65 6 0 10 -28 10 -65z"/>
<path d="M2706 944 c-12 -11 -16 -36 -16 -94 0 -100 24 -130 81 -100 17 9 19
22 19 100 0 78 -2 91 -19 100 -27 14 -47 13 -65 -6z m44 -94 c0 -33 -4 -60
-10 -60 -6 0 -10 27 -10 60 0 33 4 60 10 60 6 0 10 -27 10 -60z"/>
<path d="M2930 851 c-15 -28 -13 -154 3 -175 9 -12 23 -17 47 -14 l35 3 3 88
c2 57 -1 94 -9 103 -17 21 -66 18 -79 -5z m50 -86 c0 -37 -4 -65 -10 -65 -6 0
-10 28 -10 65 0 37 4 65 10 65 6 0 10 -28 10 -65z"/>
<path d="M5258 1175 c-15 -9 -32 -24 -38 -36 -17 -30 -15 -350 2 -360 21 -14
132 -10 152 4 16 11 17 30 14 180 -3 163 -4 167 -28 191 -33 32 -68 39 -102
21z m70 -41 c21 -15 22 -21 22 -170 l0 -155 -52 3 -53 3 0 153 c0 141 2 155
19 168 25 18 36 18 64 -2z"/>
<path d="M4955 1027 c-3 -7 -5 -54 -3 -103 3 -96 8 -104 64 -90 24 6 25 8 22
104 l-3 97 -38 3 c-25 2 -39 -1 -42 -11z m46 -34 c7 -51 2 -117 -8 -120 -10
-4 -13 13 -13 61 0 37 4 66 10 66 6 0 10 -3 11 -7z"/>
<path d="M4731 951 c-17 -11 -27 -111 -17 -166 8 -39 39 -55 75 -35 19 10 21
20 21 100 0 78 -2 91 -19 100 -24 12 -41 13 -60 1z m39 -101 c0 -33 -4 -60
-10 -60 -6 0 -10 27 -10 60 0 33 4 60 10 60 6 0 10 -27 10 -60z"/>
<path d="M4490 851 c-5 -11 -10 -53 -10 -94 0 -85 10 -100 62 -95 l33 3 3 88
c2 57 -1 94 -9 103 -17 21 -66 18 -79 -5z m50 -86 c0 -37 -4 -65 -10 -65 -6 0
-10 28 -10 65 0 37 4 65 10 65 6 0 10 -28 10 -65z"/>
<path d="M1589 1191 l-29 -29 0 -150 c0 -83 3 -157 6 -166 9 -23 129 -23 138
0 3 9 6 85 6 170 0 151 -1 156 -25 179 -32 33 -60 31 -96 -4z m66 -166 c0
-133 -1 -140 -20 -140 -19 0 -20 8 -23 129 -3 143 0 159 25 154 16 -3 18 -18
18 -143z"/>
<path d="M1316 1151 c-14 -16 -16 -39 -14 -167 l3 -149 58 -3 57 -3 0 154 c0
136 -2 156 -18 170 -25 22 -65 21 -86 -2z m59 -151 c0 -82 -3 -114 -12 -117
-10 -4 -13 24 -13 117 0 93 3 121 13 118 9 -4 12 -36 12 -118z"/>
<path d="M5707 8468 c40 -42 53 -76 53 -140 0 -93 -61 -149 -145 -134 -37 7
-95 65 -95 95 0 28 -25 45 -40 26 -24 -29 27 -122 83 -151 39 -21 115 -21 154
0 90 46 116 162 63 284 -22 51 -24 52 -63 52 l-41 0 31 -32z"/>
<path d="M5980 8492 c0 -5 9 -17 19 -26 11 -10 25 -31 31 -47 7 -16 18 -29 25
-29 7 0 53 15 101 34 49 19 117 40 152 47 34 7 62 17 62 21 0 4 -88 8 -195 8
-107 0 -195 -4 -195 -8z"/>
<path d="M8480 8490 c0 -5 5 -10 10 -10 6 0 10 5 10 10 0 6 -4 10 -10 10 -5 0
-10 -4 -10 -10z"/>
<path d="M6454 7288 c-33 -15 -44 -51 -44 -138 0 -88 -1 -90 -82 -140 -148
-93 -146 -141 7 -200 95 -37 93 -34 120 -146 20 -78 46 -114 85 -114 27 0 45
16 136 122 l31 36 101 -5 c89 -5 105 -4 122 12 33 30 26 76 -25 154 -25 38
-45 78 -45 89 0 11 14 52 30 90 42 98 40 131 -10 157 -24 12 -34 12 -87 -4
-126 -38 -121 -39 -208 34 -80 66 -93 72 -131 53z m130 -83 c62 -52 82 -64 99
-59 38 12 159 43 170 44 23 1 -2 -34 -65 -91 -156 -139 -177 -149 -198 -94 -5
14 -19 46 -31 73 -59 128 -79 175 -79 183 0 21 30 5 104 -56z m-63 -104 c33
-74 57 -137 52 -141 -4 -5 -26 -10 -48 -13 -22 -3 -87 -12 -145 -21 -130 -19
-122 -19 -118 -1 2 8 39 39 83 68 79 51 80 53 82 97 5 92 15 151 24 148 6 -2
37 -64 70 -137z m345 -47 c-20 -48 -36 -94 -36 -101 0 -8 23 -48 51 -89 28
-42 48 -78 45 -81 -3 -3 -20 7 -37 21 -18 15 -71 47 -118 71 -140 71 -138 59
-30 152 52 45 105 93 118 107 42 45 44 14 7 -80z m-292 -171 c-10 -80 -54
-277 -64 -287 -11 -11 -12 -8 -39 103 -11 46 -23 87 -28 91 -4 4 -45 22 -90
39 -103 41 -124 61 -62 61 40 0 118 12 199 30 19 4 47 8 62 9 27 1 28 0 22
-46z m162 -16 c130 -68 180 -106 171 -130 -7 -19 -45 -21 -137 -8 -31 5 -63 5
-72 0 -10 -5 -43 -41 -74 -79 -31 -39 -62 -70 -70 -70 -16 0 -17 2 -4 55 17
69 38 178 44 228 6 52 13 70 25 65 4 -2 57 -29 117 -61z"/>
<path d="M8473 7254 c-8 -21 6 -147 18 -158 5 -6 9 24 9 82 0 57 -4 92 -10 92
-6 0 -13 -7 -17 -16z"/>
<path d="M2 6305 c0 -16 2 -22 5 -12 2 9 2 23 0 30 -3 6 -5 -1 -5 -18z"/>
<path d="M0 340 l0 -25 4250 0 4250 0 0 25 0 25 -4250 0 -4250 0 0 -25z"/>
<path d="M0 153 l0 -23 4250 0 4250 0 0 23 0 22 -4250 0 -4250 0 0 -22z"/>
<path d="M0 10 c0 -5 5 -10 10 -10 6 0 10 5 10 10 0 6 -4 10 -10 10 -5 0 -10
-4 -10 -10z"/>
<path d="M8480 10 c0 -5 5 -10 10 -10 6 0 10 5 10 10 0 6 -4 10 -10 10 -5 0
-10 -4 -10 -10z"/>
</g>
</svg>
