<?xml version="1.0" encoding="utf-8"?>
<!-- Generator: Adobe Illustrator 24.1.0, SVG Export Plug-In . SVG Version: 6.00 Build 0)  -->
<svg version="1.1" baseProfile="tiny" id="央铋_4"
	 xmlns="http://www.w3.org/2000/svg" xmlns:xlink="http://www.w3.org/1999/xlink" x="0px" y="0px" viewBox="0 0 1000 535.5"
	 xml:space="preserve">
<g>
	<g>
		<polygon fill="#FDD513" stroke="#000000" stroke-width="0.2" stroke-miterlimit="10" points="388,96.3 398,168.6 475.7,93.2 		"/>
		<polygon fill="#D9BC05" stroke="#000000" stroke-width="0.2" stroke-miterlimit="10" points="493.3,23.9 388,96.3 475.7,93.2 		
			"/>
		<polygon fill="#FFDC61" stroke="#000000" stroke-width="0.2" stroke-miterlimit="10" points="475.7,93.2 398,168.6 449.7,175.2 		
			"/>
		<polygon fill="#FED312" stroke="#000000" stroke-width="0.2" stroke-miterlimit="10" points="585,73.9 493.3,23.9 475.7,93.2 		
			"/>
		<polygon fill="#D6BA01" stroke="#000000" stroke-width="0.2" stroke-miterlimit="10" points="629,-0.1 493.3,23.9 585,73.9 		"/>
		<polygon fill="#F9DD7E" stroke="#000000" stroke-width="0.2" stroke-miterlimit="10" points="709,81.3 629,-0.1 585,73.9 		"/>
		<polygon fill="#FDD604" stroke="#000000" stroke-width="0.2" stroke-miterlimit="10" points="792.7,13.9 629,-0.1 709,81.3 		"/>
		<polygon fill="#FEDE82" stroke="#000000" stroke-width="0.2" stroke-miterlimit="10" points="824.3,126.6 792.7,13.9 709,81.3 		
			"/>
		<polygon fill="#FDDA00" stroke="#000000" stroke-width="0.2" stroke-miterlimit="10" points="914.3,97.3 792.7,13.9 824.3,126.6 
					"/>
		<polygon fill="#FDE008" stroke="#000000" stroke-width="0.2" stroke-miterlimit="10" points="947.7,171.6 914.3,97.3 824.3,126.6 
					"/>
		<polygon fill="#C2C108" stroke="#000000" stroke-width="0.2" stroke-miterlimit="10" points="947.7,171.6 824.3,126.6 
			925.7,213.6 		"/>
		<polygon fill="#F3CB11" stroke="#000000" stroke-width="0.2" stroke-miterlimit="10" points="925.7,213.6 824.3,126.6 
			832.3,169.9 		"/>
		<polygon fill="#FECC04" stroke="#000000" stroke-width="0.2" stroke-miterlimit="10" points="832.3,169.9 824.3,126.6 
			725.7,165.2 		"/>
		<polygon fill="#FCC109" stroke="#000000" stroke-width="0.2" stroke-miterlimit="10" points="824.3,126.6 709,81.3 725.7,165.2 		
			"/>
		<polygon fill="#FBBA04" stroke="#000000" stroke-width="0.2" stroke-miterlimit="10" points="725.7,165.2 709,81.3 629,165.2 		
			"/>
		<polygon fill="#F9DE92" stroke="#000000" stroke-width="0.2" stroke-miterlimit="10" points="709,81.3 585,73.9 629,165.2 		"/>
		<polygon fill="#F8D367" stroke="#000000" stroke-width="0.2" stroke-miterlimit="10" points="629,165.2 585,73.9 541.3,165.2 		
			"/>
		<polygon fill="#FCBC08" stroke="#000000" stroke-width="0.2" stroke-miterlimit="10" points="585,73.9 475.7,93.2 541.3,165.2 		
			"/>
		<polygon fill="#FFCD02" stroke="#000000" stroke-width="0.2" stroke-miterlimit="10" points="475.7,93.2 449.7,175.2 541.3,165.2 
					"/>
		<polygon fill="#FCDF6C" stroke="#000000" stroke-width="0.2" stroke-miterlimit="10" points="541.3,165.2 515.3,194.2 
			615.3,198.6 		"/>
		<polygon fill="#FBCF01" stroke="#000000" stroke-width="0.2" stroke-miterlimit="10" points="629,165.2 541.3,165.2 615.3,198.6 
					"/>
		<polygon fill="#EDDB4A" stroke="#000000" stroke-width="0.2" stroke-miterlimit="10" points="683,198.6 629,165.2 615.3,198.6 		
			"/>
		<polygon fill="#FFD202" stroke="#000000" stroke-width="0.2" stroke-miterlimit="10" points="725.7,165.2 629,165.2 683,198.6 		
			"/>
		<polygon fill="#E4D902" stroke="#000000" stroke-width="0.2" stroke-miterlimit="10" points="781.3,198.6 725.7,165.2 683,198.6 
					"/>
		<polygon fill="#FDD704" stroke="#000000" stroke-width="0.2" stroke-miterlimit="10" points="832.3,169.9 725.7,165.2 
			781.3,198.6 		"/>
		<polygon fill="#F0EA87" stroke="#000000" stroke-width="0.2" stroke-miterlimit="10" points="781.3,198.6 925.7,213.6 
			832.3,169.9 		"/>
		<polygon fill="#F9DF0A" stroke="#000000" stroke-width="0.2" stroke-miterlimit="10" points="920,263.9 925.7,213.6 781.3,198.6 
					"/>
		<polygon fill="#FBD004" stroke="#000000" stroke-width="0.2" stroke-miterlimit="10" points="862,309.6 920,263.9 761.7,263.9 		
			"/>
		<polygon fill="#F4E06E" stroke="#000000" stroke-width="0.2" stroke-miterlimit="10" points="761.7,263.9 920,263.9 781.3,198.6 
					"/>
		<polygon fill="#F5C303" stroke="#000000" stroke-width="0.2" stroke-miterlimit="10" points="751.7,325.6 862,309.6 761.7,263.9 
					"/>
		<polygon fill="#FDD803" stroke="#000000" stroke-width="0.2" stroke-miterlimit="10" points="761.7,263.9 781.3,198.6 683,198.6 
					"/>
		<polygon fill="#E1A602" stroke="#000000" stroke-width="0.2" stroke-miterlimit="10" points="658.3,325.6 751.7,325.6 
			761.7,263.9 		"/>
		<polygon fill="#FAC601" stroke="#000000" stroke-width="0.2" stroke-miterlimit="10" points="604.3,259.3 658.3,325.6 
			761.7,263.9 		"/>
		<polygon fill="#FDD201" stroke="#000000" stroke-width="0.2" stroke-miterlimit="10" points="604.3,259.3 761.7,263.9 683,198.6 
					"/>
		<polygon fill="#FDCF02" stroke="#000000" stroke-width="0.2" stroke-miterlimit="10" points="615.3,198.6 604.3,259.3 683,198.6 
					"/>
		<polygon fill="#D99000" stroke="#000000" stroke-width="0.2" stroke-miterlimit="10" points="526.3,316.6 658.3,325.6 
			604.3,259.3 		"/>
		<polygon fill="#F9C904" stroke="#000000" stroke-width="0.2" stroke-miterlimit="10" points="615.3,198.6 515.3,194.2 
			604.3,259.3 		"/>
		<polygon fill="#E39801" stroke="#000000" stroke-width="0.2" stroke-miterlimit="10" points="463.7,296.9 526.3,316.6 
			604.3,259.3 		"/>
		<polygon fill="#FEC501" stroke="#000000" stroke-width="0.2" stroke-miterlimit="10" points="604.3,259.3 515.3,194.2 485,240.2 
					"/>
		<polygon fill="#FBB403" stroke="#000000" stroke-width="0.2" stroke-miterlimit="10" points="485,240.2 463.7,296.9 604.3,259.3 
					"/>
		<polygon fill="#E89F08" stroke="#000000" stroke-width="0.2" stroke-miterlimit="10" points="526.3,316.6 585,413.6 658.3,325.6 
					"/>
		<polygon fill="#F2A502" stroke="#000000" stroke-width="0.2" stroke-miterlimit="10" points="449.7,371.9 585,413.6 526.3,316.6 
					"/>
		<polygon fill="#EAB132" stroke="#000000" stroke-width="0.2" stroke-miterlimit="10" points="585,413.6 710,413.6 658.3,325.6 		
			"/>
		<polygon fill="#E29F03" stroke="#000000" stroke-width="0.2" stroke-miterlimit="10" points="658.3,325.6 710,413.6 751.7,325.6 
					"/>
		<polygon fill="#EEC651" stroke="#000000" stroke-width="0.2" stroke-miterlimit="10" points="710,413.6 824.3,383.2 751.7,325.6 
					"/>
		<polygon fill="#EEBE00" stroke="#000000" stroke-width="0.2" stroke-miterlimit="10" points="751.7,325.6 824.3,383.2 862,309.6 
					"/>
		<polygon fill="#F7CA02" stroke="#000000" stroke-width="0.2" stroke-miterlimit="10" points="824.3,383.2 955.7,325.6 862,309.6 
					"/>
		<polygon fill="#F6DC3E" stroke="#000000" stroke-width="0.2" stroke-miterlimit="10" points="862,309.6 955.7,325.6 920,263.9 		
			"/>
		<polygon fill="#DFDB3A" stroke="#000000" stroke-width="0.2" stroke-miterlimit="10" points="920,263.9 955.7,325.6 955.7,271.2 
					"/>
		<polygon fill="#EEB002" stroke="#000000" stroke-width="0.2" stroke-miterlimit="10" points="458,445.9 585,413.6 449.7,371.9 		
			"/>
		<polygon fill="#C19905" stroke="#000000" stroke-width="0.2" stroke-miterlimit="10" points="458,445.9 458,445.9 557.3,491.2 
			585,413.6 		"/>
		<polygon fill="#E4A602" stroke="#000000" stroke-width="0.2" stroke-miterlimit="10" points="585,413.6 557.3,491.2 710,413.6 		
			"/>
		<polygon fill="#B5970C" stroke="#000000" stroke-width="0.2" stroke-miterlimit="10" points="557.3,491.2 720.3,505.9 710,413.6 
					"/>
		<polygon fill="#F1BD09" stroke="#000000" stroke-width="0.2" stroke-miterlimit="10" points="710,413.6 720.3,505.9 824.3,383.2 
					"/>
		<polygon fill="#C8C41C" stroke="#000000" stroke-width="0.2" stroke-miterlimit="10" points="720.3,505.9 830.7,477.3 
			824.3,383.2 		"/>
		<polygon fill="#F8D107" stroke="#000000" stroke-width="0.2" stroke-miterlimit="10" points="824.3,383.2 830.7,477.3 
			955.7,325.6 		"/>
		<polygon fill="#EFDD00" stroke="#000000" stroke-width="0.2" stroke-miterlimit="10" points="830.7,477.3 920.3,403.9 
			955.7,325.6 		"/>
		<polygon fill="#D6CB55" stroke="#000000" stroke-width="0.2" stroke-miterlimit="10" points="920.3,403.9 968,377.6 955.7,325.6 
					"/>
		<polygon fill="#E2D64F" stroke="#000000" stroke-width="0.2" stroke-miterlimit="10" points="955.7,325.6 968,377.6 1000,306.9 		
			"/>
		<polygon fill="#D9CD40" stroke="#000000" stroke-width="0.2" stroke-miterlimit="10" points="955.7,325.6 1000,306.9 955.7,271.2 
					"/>
		<polygon fill="#D9D670" stroke="#000000" stroke-width="0.2" stroke-miterlimit="10" points="1000,306.9 968.7,245.2 955.7,271.2 
					"/>
		<polygon fill="#F0E9A3" stroke="#000000" stroke-width="0.2" stroke-miterlimit="10" points="973,124.2 914.3,97.3 947.7,171.6 		
			"/>
		<polygon fill="#EAE07D" stroke="#000000" stroke-width="0.2" stroke-miterlimit="10" points="995,185.9 973,124.2 947.7,171.6 		
			"/>
		<polygon fill="#E2DA1C" stroke="#000000" stroke-width="0.2" stroke-miterlimit="10" points="968.7,245.2 995,185.9 947.7,171.6 
					"/>
		<polygon fill="#D3CC22" stroke="#000000" stroke-width="0.2" stroke-miterlimit="10" points="925.7,213.6 968.7,245.2 
			947.7,171.6 		"/>
		<polygon fill="#B9B601" stroke="#000000" stroke-width="0.2" stroke-miterlimit="10" points="955.7,271.2 968.7,245.2 920,263.9 
					"/>
		<polygon fill="#B5A80A" stroke="#000000" stroke-width="0.2" stroke-miterlimit="10" points="920,263.9 968.7,245.2 925.7,213.6 
					"/>
	</g>
	<g>
		<polygon fill="#F1CA4F" stroke="#000000" stroke-width="0.1" stroke-miterlimit="10" points="236,36.3 201.3,91.3 230.3,110.6 		
			"/>
		<polygon fill="#FCD706" stroke="#000000" stroke-width="0.1" stroke-miterlimit="10" points="201.3,91.3 178.3,139.9 230.3,110.6 
					"/>
		<polygon fill="#FEE176" stroke="#000000" stroke-width="0.1" stroke-miterlimit="10" points="278.7,91.3 236,36.3 257.7,110.6 		
			"/>
		<polygon fill="#FFE001" stroke="#000000" stroke-width="0.1" stroke-miterlimit="10" points="318,134.9 278.7,91.3 257.7,110.6 		
			"/>
		<polygon fill="#FDE00B" stroke="#000000" stroke-width="0.1" stroke-miterlimit="10" points="178.3,139.9 171.7,210.6 
			255.3,194.9 		"/>
		<polygon fill="#FFE883" stroke="#000000" stroke-width="0.1" stroke-miterlimit="10" points="230.3,110.6 178.3,139.9 
			255.3,194.9 		"/>
		<polygon fill="#FDE467" stroke="#000000" stroke-width="0.1" stroke-miterlimit="10" points="257.7,110.6 236,36.3 230.3,110.6 		
			"/>
		<polygon fill="#FEE5A7" stroke="#000000" stroke-width="0.1" stroke-miterlimit="10" points="230.3,110.6 255.3,194.9 
			257.7,110.6 		"/>
		<polygon fill="#FDE563" stroke="#000000" stroke-width="0.1" stroke-miterlimit="10" points="255.3,194.9 318,134.9 257.7,110.6 
					"/>
		<polygon fill="#FED727" stroke="#000000" stroke-width="0.1" stroke-miterlimit="10" points="338,179.2 318,134.9 255.3,194.9 		
			"/>
		<polygon fill="#FDE978" stroke="#000000" stroke-width="0.1" stroke-miterlimit="10" points="92,267.3 0,267.3 86.3,285.9 		"/>
		<polygon fill="#F8D80F" stroke="#000000" stroke-width="0.1" stroke-miterlimit="10" points="0,267.3 32.7,305.2 86.3,285.9 		"/>
		<polygon fill="#FEE35F" stroke="#000000" stroke-width="0.1" stroke-miterlimit="10" points="56.3,243.6 0,267.3 92,267.3 		"/>
		<polygon fill="#FEEACB" stroke="#000000" stroke-width="0.1" stroke-miterlimit="10" points="86.3,285.9 171.7,286.2 92,267.3 		
			"/>
		<polygon fill="#FFE07E" stroke="#000000" stroke-width="0.1" stroke-miterlimit="10" points="108.3,216.3 56.3,243.6 92,267.3 		
			"/>
		<polygon fill="#F8DC3E" stroke="#000000" stroke-width="0.1" stroke-miterlimit="10" points="32.7,305.2 82,349.6 86.3,285.9 		
			"/>
		<polygon fill="#FDE38A" stroke="#000000" stroke-width="0.1" stroke-miterlimit="10" points="86.3,285.9 82,349.6 171.7,286.2 		
			"/>
		<polygon fill="#FAD52A" stroke="#000000" stroke-width="0.1" stroke-miterlimit="10" points="82,349.6 152,375.2 171.7,286.2 		
			"/>
		<polygon fill="#FBE638" stroke="#000000" stroke-width="0.1" stroke-miterlimit="10" points="171.7,286.2 108.3,216.3 92,267.3 		
			"/>
		<polygon fill="#FEE482" stroke="#000000" stroke-width="0.1" stroke-miterlimit="10" points="171.7,210.6 108.3,216.3 
			171.7,286.2 		"/>
		<polygon fill="#FFE584" stroke="#000000" stroke-width="0.1" stroke-miterlimit="10" points="515.3,194.2 428.3,210.6 
			435.7,232.9 		"/>
		<polygon fill="#FCE07A" stroke="#000000" stroke-width="0.1" stroke-miterlimit="10" points="428.3,210.6 352.7,259.3 
			435.7,232.9 		"/>
		<polygon fill="#FFF3C0" stroke="#000000" stroke-width="0.1" stroke-miterlimit="10" points="449.7,175.2 428.3,210.6 
			515.3,194.2 		"/>
		<polygon fill="#FFEBAB" stroke="#000000" stroke-width="0.1" stroke-miterlimit="10" points="449.7,175.2 398,168.6 428.3,210.6 
					"/>
		<polygon fill="#FFDD1B" stroke="#000000" stroke-width="0.1" stroke-miterlimit="10" points="515.3,194.2 435.7,232.9 485,240.2 
					"/>
		<polygon fill="#FFD509" stroke="#000000" stroke-width="0.1" stroke-miterlimit="10" points="435.7,232.9 463.7,296.9 485,240.2 
					"/>
		<polygon fill="#FDDA39" stroke="#000000" stroke-width="0.1" stroke-miterlimit="10" points="428.3,210.6 398,168.6 352.7,259.3 
					"/>
		<polygon fill="#F9E073" stroke="#000000" stroke-width="0.1" stroke-miterlimit="10" points="398,168.6 338,179.2 352.7,259.3 		
			"/>
		<polygon fill="#FFC405" stroke="#000000" stroke-width="0.1" stroke-miterlimit="10" points="435.7,232.9 352.7,259.3 
			463.7,296.9 		"/>
		<polygon fill="#FDD306" stroke="#000000" stroke-width="0.1" stroke-miterlimit="10" points="463.7,296.9 352.7,259.3 
			416.7,332.3 		"/>
		<polygon fill="#FDCC03" stroke="#000000" stroke-width="0.1" stroke-miterlimit="10" points="403.7,519.9 483.3,523.9 
			442.3,484.6 		"/>
		<polygon fill="#F9D53D" stroke="#000000" stroke-width="0.1" stroke-miterlimit="10" points="483.3,523.9 462,483.6 442.3,484.6 
					"/>
		<polygon fill="#FFDA66" stroke="#000000" stroke-width="0.1" stroke-miterlimit="10" points="382.3,435.9 442.3,484.6 
			403.7,423.6 		"/>
		<polygon fill="#F8D306" stroke="#000000" stroke-width="0.1" stroke-miterlimit="10" points="449.7,371.9 442.3,484.6 462,483.6 
			458,445.9 458,445.9 		"/>
		<polygon fill="#FED602" stroke="#000000" stroke-width="0.1" stroke-miterlimit="10" points="442.3,484.6 449.7,371.9 
			403.7,423.6 		"/>
		<polygon fill="#EB8810" stroke="#000000" stroke-width="0.1" stroke-miterlimit="10" points="343.7,491.9 403.7,519.9 
			442.3,484.6 		"/>
		<polygon fill="#FFC901" stroke="#000000" stroke-width="0.1" stroke-miterlimit="10" points="382.3,435.9 343.7,491.9 
			442.3,484.6 		"/>
		<polygon fill="#FCC933" stroke="#000000" stroke-width="0.1" stroke-miterlimit="10" points="288.3,454.9 343.7,491.9 338,381.6 
					"/>
		<polygon fill="#FCD98A" stroke="#000000" stroke-width="0.1" stroke-miterlimit="10" points="338,381.6 382.3,435.9 403.7,423.6 
					"/>
		<polygon fill="#FEC946" stroke="#000000" stroke-width="0.1" stroke-miterlimit="10" points="338,381.6 343.7,491.9 382.3,435.9 
					"/>
		<polygon fill="#FFE697" stroke="#000000" stroke-width="0.1" stroke-miterlimit="10" points="403.7,423.6 449.7,371.9 338,381.6 
					"/>
		<polygon fill="#FED837" stroke="#000000" stroke-width="0.1" stroke-miterlimit="10" points="157,491.9 103.3,535.6 171.7,497.6 
					"/>
		<polygon fill="#FBCD0C" stroke="#000000" stroke-width="0.1" stroke-miterlimit="10" points="103.3,535.6 163.3,535.6 
			171.7,497.6 		"/>
		<polygon fill="#FADD7C" stroke="#000000" stroke-width="0.1" stroke-miterlimit="10" points="129.7,482.9 103.3,535.6 157,491.9 
					"/>
		<polygon fill="#FEE184" stroke="#000000" stroke-width="0.1" stroke-miterlimit="10" points="171.7,497.6 216.7,416.2 157,491.9 
					"/>
		<polygon fill="#FBCD2F" stroke="#000000" stroke-width="0.1" stroke-miterlimit="10" points="163.3,535.6 244,509.3 171.7,497.6 
					"/>
		<polygon fill="#FCD623" stroke="#000000" stroke-width="0.1" stroke-miterlimit="10" points="132,416.2 129.7,482.9 157,491.9 		
			"/>
		<polygon fill="#FCDA4C" stroke="#000000" stroke-width="0.1" stroke-miterlimit="10" points="216.7,416.2 132,416.2 157,491.9 		
			"/>
		<polygon fill="#FED46E" stroke="#000000" stroke-width="0.1" stroke-miterlimit="10" points="171.7,497.6 244,509.3 216.7,416.2 
					"/>
		<polygon fill="#FDCD3F" stroke="#000000" stroke-width="0.1" stroke-miterlimit="10" points="244,509.3 288.3,454.9 216.7,416.2 
					"/>
		<polygon fill="#FDE055" stroke="#000000" stroke-width="0.1" stroke-miterlimit="10" points="152,375.2 132,416.2 216.7,416.2 		
			"/>
		<polygon fill="#FFF1DF" stroke="#000000" stroke-width="0.1" stroke-miterlimit="10" points="255.3,194.9 242.7,285.2 
			281.3,276.6 		"/>
		<polygon fill="#FEE3B3" stroke="#000000" stroke-width="0.1" stroke-miterlimit="10" points="352.7,259.3 281.3,276.6 
			300.7,311.6 		"/>
		<polygon fill="#FDE9C7" stroke="#000000" stroke-width="0.1" stroke-miterlimit="10" points="271.3,345.6 338,381.6 300.7,311.6 
					"/>
		<polygon fill="#FFE8CB" stroke="#000000" stroke-width="0.1" stroke-miterlimit="10" points="171.7,286.2 236,330.6 242.7,285.2 
					"/>
		<polygon fill="#FCDFB1" stroke="#000000" stroke-width="0.1" stroke-miterlimit="10" points="216.7,416.2 271.3,345.6 236,330.6 
					"/>
		<polygon fill="#FFE6A1" stroke="#000000" stroke-width="0.1" stroke-miterlimit="10" points="281.3,276.6 338,179.2 255.3,194.9 
					"/>
		<polygon fill="#FEDD52" stroke="#000000" stroke-width="0.1" stroke-miterlimit="10" points="352.7,259.3 338,179.2 281.3,276.6 
					"/>
		<polygon fill="#FFDF9C" stroke="#000000" stroke-width="0.1" stroke-miterlimit="10" points="416.7,332.3 352.7,259.3 
			300.7,311.6 		"/>
		<polygon fill="#FFDC7B" stroke="#000000" stroke-width="0.1" stroke-miterlimit="10" points="300.7,311.6 338,381.6 416.7,332.3 
					"/>
		<polygon fill="#FDD41D" stroke="#000000" stroke-width="0.1" stroke-miterlimit="10" points="338,381.6 449.7,371.9 416.7,332.3 
					"/>
		<polygon fill="#FBD37D" stroke="#000000" stroke-width="0.1" stroke-miterlimit="10" points="271.3,345.6 288.3,454.9 338,381.6 
					"/>
		<polygon fill="#FDD99D" stroke="#000000" stroke-width="0.1" stroke-miterlimit="10" points="216.7,416.2 288.3,454.9 
			271.3,345.6 		"/>
		<polygon fill="#FCD819" stroke="#000000" stroke-width="0.1" stroke-miterlimit="10" points="236,330.6 152,375.2 216.7,416.2 		
			"/>
		<polygon fill="#FDE4B0" stroke="#000000" stroke-width="0.1" stroke-miterlimit="10" points="171.7,286.2 152,375.2 236,330.6 		
			"/>
		<polygon fill="#FFDF64" stroke="#000000" stroke-width="0.1" stroke-miterlimit="10" points="255.3,194.9 171.7,210.6 
			242.7,285.2 		"/>
		<polygon fill="#FCDC24" stroke="#000000" stroke-width="0.1" stroke-miterlimit="10" points="242.7,285.2 171.7,210.6 
			171.7,286.2 		"/>
		<polygon fill="#FFEFDC" stroke="#000000" stroke-width="0.1" stroke-miterlimit="10" points="236,330.6 271.3,345.6 242.7,285.2 
					"/>
		<polygon fill="#FCE9B9" stroke="#000000" stroke-width="0.1" stroke-miterlimit="10" points="242.7,285.2 271.3,345.6 
			281.3,276.6 		"/>
		<polygon fill="#FBF0E6" stroke="#000000" stroke-width="0.1" stroke-miterlimit="10" points="281.3,276.6 271.3,345.6 
			300.7,311.6 		"/>
		<polygon fill="#D7CF52" stroke="#000000" stroke-width="0.1" stroke-miterlimit="10" points="347.7,177.6 398,168.6 388,96.3 		
			"/>
		<polygon fill="#FBE58B" stroke="#000000" stroke-width="0.1" stroke-miterlimit="10" points="541.3,165.2 449.7,175.2 
			515.3,194.2 		"/>
		<polygon fill="#FEA804" stroke="#000000" stroke-width="0.1" stroke-miterlimit="10" points="416.7,332.3 526.3,316.6 
			463.7,296.9 		"/>
		<polygon fill="#FCBB1C" stroke="#000000" stroke-width="0.1" stroke-miterlimit="10" points="416.7,332.3 449.7,371.9 
			526.3,316.6 		"/>
		<polygon fill="#F58608" stroke="#000000" stroke-width="0.1" stroke-miterlimit="10" points="286,491.2 288.3,454.9 244,509.3 		
			"/>
	</g>
</g>
</svg>
