<?xml version="1.0" encoding="utf-8"?>
<!-- Generator: Adobe Illustrator 24.1.0, SVG Export Plug-In . SVG Version: 6.00 Build 0)  -->
<svg version="1.1" baseProfile="tiny" id="图层_1"
	 xmlns="http://www.w3.org/2000/svg" xmlns:xlink="http://www.w3.org/1999/xlink" x="0px" y="0px" viewBox="0 0 1000.6 491.6"
	 xml:space="preserve">
<g>
	<g>
		<polygon fill="#163540" stroke="#000000" stroke-width="0.4" stroke-miterlimit="10" points="586.4,210.8 587.4,257.9 
			646.5,229.9 		"/>
		<polygon fill="#163540" stroke="#000000" stroke-width="0.4" stroke-miterlimit="10" points="646.5,229.9 587.4,257.9 
			650.5,258.9 		"/>
		<polygon fill="#734808" stroke="#000000" stroke-width="0.4" stroke-miterlimit="10" points="650.5,258.9 587.4,257.9 
			652.5,322.1 		"/>
		<polygon fill="#488BA2" stroke="#000000" stroke-width="0.4" stroke-miterlimit="10" points="583.4,140.7 586.4,210.8 
			655.5,197.8 		"/>
		<polygon fill="#488BA2" stroke="#000000" stroke-width="0.4" stroke-miterlimit="10" points="586.4,210.8 646.5,229.9 
			655.5,197.8 		"/>
		<polygon fill="#AD6B0B" stroke="#000000" stroke-width="0.4" stroke-miterlimit="10" points="583.4,140.7 655.5,197.8 
			713.6,143.7 		"/>
		<polygon fill="#AD6B0B" stroke="#000000" stroke-width="0.4" stroke-miterlimit="10" points="713.6,143.7 655.5,197.8 
			738.7,259.9 		"/>
		<polygon fill="#734808" stroke="#000000" stroke-width="0.4" stroke-miterlimit="10" points="650.5,258.9 652.5,322.1 
			738.7,259.9 		"/>
		<polygon fill="#163540" stroke="#000000" stroke-width="0.4" stroke-miterlimit="10" points="646.5,229.9 650.5,258.9 
			738.7,259.9 		"/>
		<polygon fill="#488BA2" stroke="#000000" stroke-width="0.4" stroke-miterlimit="10" points="655.5,197.8 646.5,229.9 
			738.7,259.9 		"/>
		<polygon fill="#E68F0F" stroke="#000000" stroke-width="0.4" stroke-miterlimit="10" points="713.6,143.7 738.7,259.9 
			782.8,190.8 		"/>
		<polygon fill="#734808" stroke="#000000" stroke-width="0.4" stroke-miterlimit="10" points="782.8,190.8 738.7,259.9 
			832.9,264.9 		"/>
		<polygon fill="#E68F0F" stroke="#000000" stroke-width="0.4" stroke-miterlimit="10" points="738.7,259.9 652.5,322.1 
			838.9,458.3 		"/>
		<polygon fill="#AD6B0B" stroke="#000000" stroke-width="0.4" stroke-miterlimit="10" points="832.9,264.9 738.7,259.9 
			838.9,458.3 		"/>
		<polygon fill="#734808" stroke="#000000" stroke-width="0.4" stroke-miterlimit="10" points="782.8,190.8 832.9,264.9 847.9,91.6 
					"/>
		<polygon fill="#E68F0F" stroke="#000000" stroke-width="0.4" stroke-miterlimit="10" points="713.6,143.7 782.8,190.8 847.9,91.6 
					"/>
		<polygon fill="#734808" stroke="#000000" stroke-width="0.4" stroke-miterlimit="10" points="832.9,264.9 838.9,458.3 918,491.4 
					"/>
		<polygon fill="#604010" stroke="#000000" stroke-width="0.4" stroke-miterlimit="10" points="847.9,91.6 832.9,264.9 
			1000.2,120.6 		"/>
	</g>
	<g>
		<polygon fill="#488BA2" stroke="#000000" stroke-width="0.3" stroke-miterlimit="10" points="305.8,338.1 313.8,397.2 
			363.9,377.2 		"/>
		<polygon fill="#A1C4D0" stroke="#000000" stroke-width="0.3" stroke-miterlimit="10" points="209.6,145.7 330.9,190.8 365.9,88.6 
					"/>
		<polygon fill="#145268" stroke="#000000" stroke-width="0.3" stroke-miterlimit="10" points="313.8,397.2 315.8,443.3 
			368.9,401.2 		"/>
		<polygon fill="#145268" stroke="#000000" stroke-width="0.3" stroke-miterlimit="10" points="363.9,377.2 313.8,397.2 
			368.9,401.2 		"/>
		<polygon fill="#EBA63F" stroke="#000000" stroke-width="0.3" stroke-miterlimit="10" points="326.9,280 305.8,338.1 377,313 		"/>
		<polygon fill="#488BA2" stroke="#000000" stroke-width="0.3" stroke-miterlimit="10" points="305.8,338.1 363.9,377.2 379,345.1 
					"/>
		<polygon fill="#EBA63F" stroke="#000000" stroke-width="0.3" stroke-miterlimit="10" points="377,313 305.8,338.1 379,345.1 		"/>
		<polygon fill="#EFB865" stroke="#000000" stroke-width="0.3" stroke-miterlimit="10" points="330.9,190.8 326.9,280 383,260.9 		
			"/>
		<polygon fill="#E68F0F" stroke="#000000" stroke-width="0.3" stroke-miterlimit="10" points="326.9,280 377,313 383,260.9 		"/>
		<polygon fill="#F3CA8C" stroke="#000000" stroke-width="0.3" stroke-miterlimit="10" points="209.6,145.7 365.9,88.6 420,0.4 		
			"/>
		<polygon fill="#EBA63F" stroke="#000000" stroke-width="0.3" stroke-miterlimit="10" points="377,313 379,345.1 435.1,352.1 		"/>
		<polygon fill="#E68F0F" stroke="#000000" stroke-width="0.3" stroke-miterlimit="10" points="383,260.9 377,313 435.1,352.1 		"/>
		<polygon fill="#145268" stroke="#000000" stroke-width="0.3" stroke-miterlimit="10" points="363.9,377.2 368.9,401.2 
			435.1,352.1 		"/>
		<polygon fill="#488BA2" stroke="#000000" stroke-width="0.3" stroke-miterlimit="10" points="379,345.1 363.9,377.2 435.1,352.1 
					"/>
		<polygon fill="#EBA63F" stroke="#000000" stroke-width="0.3" stroke-miterlimit="10" points="435.1,352.1 368.9,401.2 
			450.1,456.3 		"/>
		<polygon fill="#EBA63F" stroke="#000000" stroke-width="0.3" stroke-miterlimit="10" points="368.9,401.2 315.8,443.3 
			450.1,456.3 		"/>
		<polygon fill="#E68F0F" stroke="#000000" stroke-width="0.3" stroke-miterlimit="10" points="383,260.9 435.1,352.1 468.1,231.9 
					"/>
		<polygon fill="#6DA2B5" stroke="#000000" stroke-width="0.3" stroke-miterlimit="10" points="365.9,88.6 330.9,190.8 468.1,231.9 
					"/>
		<polygon fill="#EFB865" stroke="#000000" stroke-width="0.3" stroke-miterlimit="10" points="330.9,190.8 383,260.9 468.1,231.9 
					"/>
		<polygon fill="#EBA63F" stroke="#000000" stroke-width="0.3" stroke-miterlimit="10" points="435.1,352.1 450.1,456.3 
			506.2,410.2 		"/>
		<polygon fill="#163540" stroke="#000000" stroke-width="0.3" stroke-miterlimit="10" points="468.1,231.9 435.1,352.1 513.2,300 
					"/>
		<polygon fill="#EFB865" stroke="#000000" stroke-width="0.3" stroke-miterlimit="10" points="435.1,352.1 506.2,410.2 
			521.2,364.1 		"/>
		<polygon fill="#E68F0F" stroke="#000000" stroke-width="0.3" stroke-miterlimit="10" points="513.2,300 435.1,352.1 521.2,364.1 
					"/>
		<polygon fill="#EBA63F" stroke="#000000" stroke-width="0.3" stroke-miterlimit="10" points="506.2,410.2 450.1,456.3 
			577.4,469.3 		"/>
		<polygon fill="#E68F0F" stroke="#000000" stroke-width="0.3" stroke-miterlimit="10" points="420,0.4 365.9,88.6 583.4,140.7 		
			"/>
		<polygon fill="#8AB5C4" stroke="#000000" stroke-width="0.3" stroke-miterlimit="10" points="365.9,88.6 468.1,231.9 583.4,140.7 
					"/>
		<polygon fill="#6DA2B5" stroke="#000000" stroke-width="0.3" stroke-miterlimit="10" points="583.4,140.7 468.1,231.9 
			586.4,210.8 		"/>
		<polygon fill="#163540" stroke="#000000" stroke-width="0.3" stroke-miterlimit="10" points="468.1,231.9 513.2,300 587.4,257.9 
					"/>
		<polygon fill="#488BA2" stroke="#000000" stroke-width="0.3" stroke-miterlimit="10" points="586.4,210.8 468.1,231.9 
			587.4,257.9 		"/>
		<polygon fill="#E68F0F" stroke="#000000" stroke-width="0.3" stroke-miterlimit="10" points="513.2,300 521.2,364.1 613.4,376.2 
					"/>
		<polygon fill="#E68F0F" stroke="#000000" stroke-width="0.3" stroke-miterlimit="10" points="587.4,257.9 513.2,300 613.4,376.2 
					"/>
		<polygon fill="#EFB865" stroke="#000000" stroke-width="0.3" stroke-miterlimit="10" points="521.2,364.1 506.2,410.2 
			613.4,376.2 		"/>
		<polygon fill="#EFB865" stroke="#000000" stroke-width="0.3" stroke-miterlimit="10" points="506.2,410.2 577.4,469.3 
			613.4,376.2 		"/>
	</g>
	<g>
		<polygon fill="#8AB5C4" stroke="#000000" stroke-width="0.2" stroke-miterlimit="10" points="117.4,319 126.5,344.1 164.5,349.1 
					"/>
		<polygon fill="#8AB5C4" stroke="#000000" stroke-width="0.2" stroke-miterlimit="10" points="129.5,288 117.4,319 164.5,349.1 		
			"/>
		<polygon fill="#8AB5C4" stroke="#000000" stroke-width="0.2" stroke-miterlimit="10" points="126.5,344.1 121.4,371.2 
			164.5,349.1 		"/>
		<polygon fill="#A1C4D0" stroke="#000000" stroke-width="0.2" stroke-miterlimit="10" points="84.4,237.9 129.5,288 172.5,207.8 		
			"/>
		<polygon fill="#8AB5C4" stroke="#000000" stroke-width="0.2" stroke-miterlimit="10" points="164.5,349.1 121.4,371.2 
			191.6,398.2 		"/>
		<polygon fill="#6DA2B5" stroke="#000000" stroke-width="0.2" stroke-miterlimit="10" points="104.4,385.2 115.4,462.3 
			191.6,398.2 		"/>
		<polygon fill="#6DA2B5" stroke="#000000" stroke-width="0.2" stroke-miterlimit="10" points="121.4,371.2 104.4,385.2 
			191.6,398.2 		"/>
		<polygon fill="#6DA2B5" stroke="#000000" stroke-width="0.2" stroke-miterlimit="10" points="164.5,349.1 191.6,398.2 
			197.6,363.1 		"/>
		<polygon fill="#6DA2B5" stroke="#000000" stroke-width="0.2" stroke-miterlimit="10" points="164.5,349.1 197.6,363.1 
			202.6,325.1 		"/>
		<polygon fill="#6DA2B5" stroke="#000000" stroke-width="0.2" stroke-miterlimit="10" points="129.5,288 164.5,349.1 202.6,325.1 
					"/>
		<polygon fill="#A1C4D0" stroke="#000000" stroke-width="0.2" stroke-miterlimit="10" points="84.4,237.9 172.5,207.8 209.6,145.7 
					"/>
		<polygon fill="#8AB5C4" stroke="#000000" stroke-width="0.2" stroke-miterlimit="10" points="202.6,325.1 197.6,363.1 
			226.7,342.1 		"/>
		<polygon fill="#488BA2" stroke="#000000" stroke-width="0.2" stroke-miterlimit="10" points="202.6,325.1 226.7,342.1 
			228.7,329.1 		"/>
		<polygon fill="#EBA63F" stroke="#000000" stroke-width="0.2" stroke-miterlimit="10" points="202.6,325.1 228.7,329.1 231.7,314 
					"/>
		<polygon fill="#C7DCE3" stroke="#000000" stroke-width="0.2" stroke-miterlimit="10" points="209.6,145.7 172.5,207.8 
			233.7,235.9 		"/>
		<polygon fill="#C7DCE3" stroke="#000000" stroke-width="0.2" stroke-miterlimit="10" points="172.5,207.8 129.5,288 233.7,235.9 
					"/>
		<polygon fill="#8AB5C4" stroke="#000000" stroke-width="0.2" stroke-miterlimit="10" points="197.6,363.1 191.6,398.2 
			236.7,396.2 		"/>
		<polygon fill="#8AB5C4" stroke="#000000" stroke-width="0.2" stroke-miterlimit="10" points="226.7,342.1 197.6,363.1 
			236.7,396.2 		"/>
		<polygon fill="#A1C4D0" stroke="#000000" stroke-width="0.2" stroke-miterlimit="10" points="129.5,288 202.6,325.1 239.7,286 		
			"/>
		<polygon fill="#A1C4D0" stroke="#000000" stroke-width="0.2" stroke-miterlimit="10" points="233.7,235.9 129.5,288 239.7,286 		
			"/>
		<polygon fill="#F3CA8C" stroke="#000000" stroke-width="0.2" stroke-miterlimit="10" points="202.6,325.1 231.7,314 239.7,286 		
			"/>
		<polygon fill="#488BA2" stroke="#000000" stroke-width="0.2" stroke-miterlimit="10" points="191.6,398.2 115.4,462.3 
			246.7,452.3 		"/>
		<polygon fill="#6DA2B5" stroke="#000000" stroke-width="0.2" stroke-miterlimit="10" points="236.7,396.2 191.6,398.2 
			246.7,452.3 		"/>
		<polygon fill="#EBA63F" stroke="#000000" stroke-width="0.2" stroke-miterlimit="10" points="231.7,314 228.7,329.1 262.7,333.1 
					"/>
		<polygon fill="#488BA2" stroke="#000000" stroke-width="0.2" stroke-miterlimit="10" points="228.7,329.1 226.7,342.1 
			262.7,333.1 		"/>
		<polygon fill="#8AB5C4" stroke="#000000" stroke-width="0.2" stroke-miterlimit="10" points="226.7,342.1 236.7,396.2 
			263.7,363.1 		"/>
		<polygon fill="#488BA2" stroke="#000000" stroke-width="0.2" stroke-miterlimit="10" points="262.7,333.1 226.7,342.1 
			263.7,363.1 		"/>
		<polygon fill="#A1C4D0" stroke="#000000" stroke-width="0.2" stroke-miterlimit="10" points="233.7,235.9 239.7,286 270.7,251.9 
					"/>
		<polygon fill="#F3CA8C" stroke="#000000" stroke-width="0.2" stroke-miterlimit="10" points="270.7,251.9 239.7,286 273.7,300 		
			"/>
		<polygon fill="#F3CA8C" stroke="#000000" stroke-width="0.2" stroke-miterlimit="10" points="239.7,286 231.7,314 273.7,300 		"/>
		<polygon fill="#EBA63F" stroke="#000000" stroke-width="0.2" stroke-miterlimit="10" points="231.7,314 262.7,333.1 273.7,300 		
			"/>
		<polygon fill="#488BA2" stroke="#000000" stroke-width="0.2" stroke-miterlimit="10" points="262.7,333.1 263.7,363.1 
			305.8,338.1 		"/>
		<polygon fill="#EBA63F" stroke="#000000" stroke-width="0.2" stroke-miterlimit="10" points="273.7,300 262.7,333.1 305.8,338.1 
					"/>
		<polygon fill="#488BA2" stroke="#000000" stroke-width="0.2" stroke-miterlimit="10" points="305.8,338.1 263.7,363.1 
			313.8,397.2 		"/>
		<polygon fill="#6DA2B5" stroke="#000000" stroke-width="0.2" stroke-miterlimit="10" points="236.7,396.2 246.7,452.3 
			313.8,397.2 		"/>
		<polygon fill="#8AB5C4" stroke="#000000" stroke-width="0.2" stroke-miterlimit="10" points="263.7,363.1 236.7,396.2 
			313.8,397.2 		"/>
		<polygon fill="#488BA2" stroke="#000000" stroke-width="0.2" stroke-miterlimit="10" points="313.8,397.2 246.7,452.3 
			315.8,443.3 		"/>
		<polygon fill="#F3CA8C" stroke="#000000" stroke-width="0.2" stroke-miterlimit="10" points="270.7,251.9 273.7,300 326.9,280 		
			"/>
		<polygon fill="#EBA63F" stroke="#000000" stroke-width="0.2" stroke-miterlimit="10" points="273.7,300 305.8,338.1 326.9,280 		
			"/>
		<polygon fill="#F3CA8C" stroke="#000000" stroke-width="0.2" stroke-miterlimit="10" points="270.7,251.9 326.9,280 330.9,190.8 
					"/>
		<polygon fill="#C7DCE3" stroke="#000000" stroke-width="0.2" stroke-miterlimit="10" points="209.6,145.7 233.7,235.9 
			330.9,190.8 		"/>
		<polygon fill="#A1C4D0" stroke="#000000" stroke-width="0.2" stroke-miterlimit="10" points="233.7,235.9 270.7,251.9 
			330.9,190.8 		"/>
	</g>
	<g>
		<polygon fill="#A1C4D0" stroke="#000000" stroke-width="0.1" stroke-miterlimit="10" points="10.2,420.2 0.2,414.2 15.2,438.3 		
			"/>
		<polygon fill="#C7DCE3" stroke="#000000" stroke-width="0.1" stroke-miterlimit="10" points="26.3,304 0.2,414.2 35.3,349.1 		"/>
		<polygon fill="#A1C4D0" stroke="#000000" stroke-width="0.1" stroke-miterlimit="10" points="10.2,420.2 15.2,438.3 35.3,430.3 		
			"/>
		<polygon fill="#A1C4D0" stroke="#000000" stroke-width="0.1" stroke-miterlimit="10" points="15.2,438.3 26.3,456.3 35.3,430.3 		
			"/>
		<polygon fill="#A1C4D0" stroke="#000000" stroke-width="0.1" stroke-miterlimit="10" points="0.2,414.2 10.2,420.2 41.3,371.2 		
			"/>
		<polygon fill="#A1C4D0" stroke="#000000" stroke-width="0.1" stroke-miterlimit="10" points="35.3,349.1 0.2,414.2 41.3,371.2 		
			"/>
		<polygon fill="#A1C4D0" stroke="#000000" stroke-width="0.1" stroke-miterlimit="10" points="10.2,420.2 35.3,430.3 41.3,416.2 		
			"/>
		<polygon fill="#A1C4D0" stroke="#000000" stroke-width="0.1" stroke-miterlimit="10" points="41.3,371.2 10.2,420.2 41.3,416.2 		
			"/>
		<polygon fill="#C7DCE3" stroke="#000000" stroke-width="0.1" stroke-miterlimit="10" points="26.3,304 35.3,349.1 42.3,321.1 		
			"/>
		<polygon fill="#FFFFFF" stroke="#000000" stroke-width="0.1" stroke-miterlimit="10" points="35.3,349.1 41.3,371.2 42.3,349.1 		
			"/>
		<polygon fill="#FFFFFF" stroke="#000000" stroke-width="0.1" stroke-miterlimit="10" points="42.3,321.1 35.3,349.1 45.3,333.1 		
			"/>
		<polygon fill="#FFFFFF" stroke="#000000" stroke-width="0.1" stroke-miterlimit="10" points="35.3,349.1 42.3,349.1 45.3,333.1 		
			"/>
		<polygon fill="#FFFFFF" stroke="#000000" stroke-width="0.1" stroke-miterlimit="10" points="42.3,321.1 45.3,333.1 50.3,322.1 		
			"/>
		<polygon fill="#FFFFFF" stroke="#000000" stroke-width="0.1" stroke-miterlimit="10" points="42.3,349.1 41.3,371.2 50.3,365.1 		
			"/>
		<polygon fill="#A1C4D0" stroke="#000000" stroke-width="0.1" stroke-miterlimit="10" points="26.3,304 42.3,321.1 52.3,311 		"/>
		<polygon fill="#FFFFFF" stroke="#000000" stroke-width="0.1" stroke-miterlimit="10" points="42.3,321.1 50.3,322.1 52.3,311 		
			"/>
		<polygon fill="#A1C4D0" stroke="#000000" stroke-width="0.1" stroke-miterlimit="10" points="41.3,371.2 41.3,416.2 53.3,383.2 		
			"/>
		<polygon fill="#FFFFFF" stroke="#000000" stroke-width="0.1" stroke-miterlimit="10" points="50.3,365.1 41.3,371.2 53.3,383.2 		
			"/>
		<polygon fill="#E68F0F" stroke="#000000" stroke-width="0.1" stroke-miterlimit="10" points="50.3,322.1 45.3,333.1 54.3,333.1 		
			"/>
		<polygon fill="#895100" stroke="#000000" stroke-width="0.1" stroke-miterlimit="10" points="42.3,349.1 50.3,365.1 55.3,344.1 		
			"/>
		<polygon fill="#895100" stroke="#000000" stroke-width="0.1" stroke-miterlimit="10" points="45.3,333.1 42.3,349.1 55.3,344.1 		
			"/>
		<polygon fill="#895100" stroke="#000000" stroke-width="0.1" stroke-miterlimit="10" points="54.3,333.1 45.3,333.1 55.3,344.1 		
			"/>
		<polygon fill="#8AB5C4" stroke="#000000" stroke-width="0.1" stroke-miterlimit="10" points="53.3,383.2 41.3,416.2 55.3,415.2 		
			"/>
		<polygon fill="#8AB5C4" stroke="#000000" stroke-width="0.1" stroke-miterlimit="10" points="41.3,416.2 35.3,430.3 58.3,436.3 		
			"/>
		<polygon fill="#8AB5C4" stroke="#000000" stroke-width="0.1" stroke-miterlimit="10" points="55.3,415.2 41.3,416.2 58.3,436.3 		
			"/>
		<polygon fill="#8AB5C4" stroke="#000000" stroke-width="0.1" stroke-miterlimit="10" points="35.3,430.3 26.3,456.3 58.3,436.3 		
			"/>
		<polygon fill="#8AB5C4" stroke="#000000" stroke-width="0.1" stroke-miterlimit="10" points="58.3,436.3 26.3,456.3 60.3,470.3 		
			"/>
		<polygon fill="#895100" stroke="#000000" stroke-width="0.1" stroke-miterlimit="10" points="55.3,344.1 50.3,365.1 65.3,351.1 		
			"/>
		<polygon fill="#FFFFFF" stroke="#000000" stroke-width="0.1" stroke-miterlimit="10" points="52.3,311 50.3,322.1 65.3,315 		"/>
		<polygon fill="#E68F0F" stroke="#000000" stroke-width="0.1" stroke-miterlimit="10" points="50.3,322.1 54.3,333.1 66.3,328.1 		
			"/>
		<polygon fill="#E68F0F" stroke="#000000" stroke-width="0.1" stroke-miterlimit="10" points="65.3,315 50.3,322.1 66.3,328.1 		
			"/>
		<polygon fill="#230B00" stroke="#000000" stroke-width="0.1" stroke-miterlimit="10" points="54.3,333.1 55.3,344.1 66.3,328.1 		
			"/>
		<polygon fill="#FFFFFF" stroke="#000000" stroke-width="0.1" stroke-miterlimit="10" points="50.3,365.1 53.3,383.2 69.3,375.2 		
			"/>
		<polygon fill="#895100" stroke="#000000" stroke-width="0.1" stroke-miterlimit="10" points="65.3,351.1 50.3,365.1 69.3,375.2 		
			"/>
		<polygon fill="#6DA2B5" stroke="#000000" stroke-width="0.1" stroke-miterlimit="10" points="53.3,383.2 55.3,415.2 69.3,392.2 		
			"/>
		<polygon fill="#FFFFFF" stroke="#000000" stroke-width="0.1" stroke-miterlimit="10" points="69.3,375.2 53.3,383.2 69.3,392.2 		
			"/>
		<polygon fill="#230B00" stroke="#000000" stroke-width="0.1" stroke-miterlimit="10" points="55.3,344.1 65.3,351.1 77.4,338.1 		
			"/>
		<polygon fill="#230B00" stroke="#000000" stroke-width="0.1" stroke-miterlimit="10" points="66.3,328.1 55.3,344.1 77.4,338.1 		
			"/>
		<polygon fill="#E68F0F" stroke="#000000" stroke-width="0.1" stroke-miterlimit="10" points="65.3,315 66.3,328.1 78.4,315 		"/>
		<polygon fill="#F0DC8A" stroke="#000000" stroke-width="0.1" stroke-miterlimit="10" points="66.3,328.1 77.4,338.1 78.4,315 		
			"/>
		<polygon fill="#FFFFFF" stroke="#000000" stroke-width="0.1" stroke-miterlimit="10" points="69.3,375.2 69.3,392.2 78.4,393.2 		
			"/>
		<polygon fill="#A1C4D0" stroke="#000000" stroke-width="0.1" stroke-miterlimit="10" points="26.3,304 52.3,311 84.4,237.9 		"/>
		<polygon fill="#FFFFFF" stroke="#000000" stroke-width="0.1" stroke-miterlimit="10" points="65.3,315 78.4,315 85.4,300 		"/>
		<polygon fill="#FFFFFF" stroke="#000000" stroke-width="0.1" stroke-miterlimit="10" points="52.3,311 65.3,315 85.4,300 		"/>
		<polygon fill="#C7DCE3" stroke="#000000" stroke-width="0.1" stroke-miterlimit="10" points="84.4,237.9 52.3,311 85.4,300 		"/>
		<polygon fill="#6DA2B5" stroke="#000000" stroke-width="0.1" stroke-miterlimit="10" points="69.3,392.2 55.3,415.2 86.4,419.2 		
			"/>
		<polygon fill="#8AB5C4" stroke="#000000" stroke-width="0.1" stroke-miterlimit="10" points="78.4,393.2 69.3,392.2 86.4,419.2 		
			"/>
		<polygon fill="#6DA2B5" stroke="#000000" stroke-width="0.1" stroke-miterlimit="10" points="55.3,415.2 58.3,436.3 86.4,419.2 		
			"/>
		<polygon fill="#FFFFFF" stroke="#000000" stroke-width="0.1" stroke-miterlimit="10" points="69.3,375.2 78.4,393.2 92.4,367.1 		
			"/>
		<polygon fill="#EBA63F" stroke="#000000" stroke-width="0.1" stroke-miterlimit="10" points="65.3,351.1 69.3,375.2 92.4,367.1 		
			"/>
		<polygon fill="#EBA63F" stroke="#000000" stroke-width="0.1" stroke-miterlimit="10" points="77.4,338.1 65.3,351.1 92.4,367.1 		
			"/>
		<polygon fill="#F0DC8A" stroke="#000000" stroke-width="0.1" stroke-miterlimit="10" points="78.4,315 77.4,338.1 98.4,326.1 		
			"/>
		<polygon fill="#FFFFFF" stroke="#000000" stroke-width="0.1" stroke-miterlimit="10" points="85.4,300 78.4,315 99.4,303 		"/>
		<polygon fill="#FFFFFF" stroke="#000000" stroke-width="0.1" stroke-miterlimit="10" points="78.4,315 98.4,326.1 99.4,303 		"/>
		<polygon fill="#6DA2B5" stroke="#000000" stroke-width="0.1" stroke-miterlimit="10" points="84.4,237.9 85.4,300 99.4,303 		"/>
		<polygon fill="#8AB5C4" stroke="#000000" stroke-width="0.1" stroke-miterlimit="10" points="78.4,393.2 86.4,419.2 104.4,385.2 
					"/>
		<polygon fill="#FFFFFF" stroke="#000000" stroke-width="0.1" stroke-miterlimit="10" points="92.4,367.1 78.4,393.2 104.4,385.2 
					"/>
		<polygon fill="#EBA63F" stroke="#000000" stroke-width="0.1" stroke-miterlimit="10" points="77.4,338.1 92.4,367.1 105.4,348.1 
					"/>
		<polygon fill="#F0DC8A" stroke="#000000" stroke-width="0.1" stroke-miterlimit="10" points="98.4,326.1 77.4,338.1 105.4,348.1 
					"/>
		<polygon fill="#8AB5C4" stroke="#000000" stroke-width="0.1" stroke-miterlimit="10" points="104.4,385.2 86.4,419.2 115.4,462.3 
					"/>
		<polygon fill="#6DA2B5" stroke="#000000" stroke-width="0.1" stroke-miterlimit="10" points="58.3,436.3 60.3,470.3 115.4,462.3 
					"/>
		<polygon fill="#6DA2B5" stroke="#000000" stroke-width="0.1" stroke-miterlimit="10" points="86.4,419.2 58.3,436.3 115.4,462.3 
					"/>
		<polygon fill="#FFFFFF" stroke="#000000" stroke-width="0.1" stroke-miterlimit="10" points="99.4,303 98.4,326.1 117.4,319 		"/>
		<polygon fill="#FFFFFF" stroke="#000000" stroke-width="0.1" stroke-miterlimit="10" points="98.4,326.1 105.4,348.1 117.4,319 		
			"/>
		<polygon fill="#FFFFFF" stroke="#000000" stroke-width="0.1" stroke-miterlimit="10" points="92.4,367.1 104.4,385.2 121.4,371.2 
					"/>
		<polygon fill="#FFFFFF" stroke="#000000" stroke-width="0.1" stroke-miterlimit="10" points="105.4,348.1 92.4,367.1 121.4,371.2 
					"/>
		<polygon fill="#FFFFFF" stroke="#000000" stroke-width="0.1" stroke-miterlimit="10" points="117.4,319 105.4,348.1 126.5,344.1 
					"/>
		<polygon fill="#FFFFFF" stroke="#000000" stroke-width="0.1" stroke-miterlimit="10" points="105.4,348.1 121.4,371.2 
			126.5,344.1 		"/>
		<polygon fill="#6DA2B5" stroke="#000000" stroke-width="0.1" stroke-miterlimit="10" points="84.4,237.9 99.4,303 129.5,288 		"/>
		<polygon fill="#A1C4D0" stroke="#000000" stroke-width="0.1" stroke-miterlimit="10" points="99.4,303 117.4,319 129.5,288 		"/>
	</g>
</g>
</svg>
