<?xml version="1.0" encoding="utf-8"?>
<!-- Generator: Adobe Illustrator 24.1.0, SVG Export Plug-In . SVG Version: 6.00 Build 0)  -->
<svg version="1.1" baseProfile="tiny" id="图层_1"
	 xmlns="http://www.w3.org/2000/svg" xmlns:xlink="http://www.w3.org/1999/xlink" x="0px" y="0px" viewBox="0 0 1000 1159.1"
	 xml:space="preserve">
<g>
	<polygon fill="#D6CC99" stroke="#000000" stroke-width="0.3" stroke-miterlimit="10" points="286,999.7 299,948.4 285.7,945 	"/>
	<polygon fill="#C9BBA1" stroke="#000000" stroke-width="0.3" stroke-miterlimit="10" points="193.7,1159.1 223,1131.7 208,1116.7 	
		"/>
	<polygon fill="#A56156" stroke="#000000" stroke-width="0.3" stroke-miterlimit="10" points="179,1135.4 193.7,1159.1 208,1116.7 	
		"/>
	<polygon fill="#D2B7A4" stroke="#000000" stroke-width="0.3" stroke-miterlimit="10" points="223,1131.7 250.3,1098 236.7,1087.7 	
		"/>
	<polygon fill="#EDDCD5" stroke="#000000" stroke-width="0.3" stroke-miterlimit="10" points="208,1116.7 223,1131.7 236.7,1087.7 	
		"/>
	<polygon fill="#DDCEA5" stroke="#000000" stroke-width="0.3" stroke-miterlimit="10" points="250.3,1098 273.7,1048.7 261.7,1046 	
		"/>
	<polygon fill="#A5A513" stroke="#000000" stroke-width="0.3" stroke-miterlimit="10" points="272.3,998 286,999.7 285.7,945 	"/>
	<polygon fill="#C69C8F" stroke="#000000" stroke-width="0.3" stroke-miterlimit="10" points="236.7,1087.7 250.3,1098 261.7,1046 	
		"/>
	<polygon fill="#BBBA2E" stroke="#000000" stroke-width="0.3" stroke-miterlimit="10" points="261.7,1046 273.7,1048.7 272.3,998 	
		"/>
	<polygon fill="#DEDAAB" stroke="#000000" stroke-width="0.3" stroke-miterlimit="10" points="273.7,1048.7 286,999.7 272.3,998 	
		"/>
	<polygon fill="#C8C38C" stroke="#000000" stroke-width="0.3" stroke-miterlimit="10" points="299,948.4 321.3,894.1 307.7,892.4 	
		"/>
	<polygon fill="#97941F" stroke="#000000" stroke-width="0.3" stroke-miterlimit="10" points="285.7,945 299,948.4 307.7,892.4 	"/>
	<polygon fill="#D3714C" stroke="#000000" stroke-width="0.3" stroke-miterlimit="10" points="321.3,894.1 344.7,842 333.3,836.7 	
		"/>
	<polygon fill="#967936" stroke="#000000" stroke-width="0.3" stroke-miterlimit="10" points="307.7,892.4 321.3,894.1 333.3,836.7 
			"/>
	<polygon fill="#DE0000" stroke="#000000" stroke-width="0.3" stroke-miterlimit="10" points="333.3,836.7 371.7,791 357.3,783 	"/>
	<polygon fill="#DC8B7A" stroke="#000000" stroke-width="0.3" stroke-miterlimit="10" points="344.7,842 371.7,791 333.3,836.7 	"/>
	<polygon fill="#EEE630" stroke="#000000" stroke-width="0.3" stroke-miterlimit="10" points="110,607.4 107.7,652.4 153.3,623 	"/>
	<polygon fill="#F36564" stroke="#000000" stroke-width="0.3" stroke-miterlimit="10" points="357.3,783 371.7,791 372.7,749.7 	"/>
	<polygon fill="#CCCE0B" stroke="#000000" stroke-width="0.3" stroke-miterlimit="10" points="160,770 245.3,762.7 212.3,694.7 	"/>
	<polygon fill="#B8A403" stroke="#000000" stroke-width="0.3" stroke-miterlimit="10" points="245.3,762.7 311,754.7 212.3,694.7 	
		"/>
	<polygon fill="#E0B16E" stroke="#000000" stroke-width="0.3" stroke-miterlimit="10" points="371.7,791 403.7,743 372.7,749.7 	"/>
	<polygon fill="#C19B08" stroke="#000000" stroke-width="0.3" stroke-miterlimit="10" points="54.7,528.7 57.3,585.4 114.7,541.7 	
		"/>
	<polygon fill="#D3B201" stroke="#000000" stroke-width="0.3" stroke-miterlimit="10" points="189.7,493.7 134.3,488 114.7,541.7 	
		"/>
	<polygon fill="#A9B100" stroke="#000000" stroke-width="0.3" stroke-miterlimit="10" points="107.7,652.4 162.3,673.4 153.3,623 	
		"/>
	<polygon fill="#E2BF03" stroke="#000000" stroke-width="0.3" stroke-miterlimit="10" points="114.7,541.7 241.7,564.1 189.7,493.7 
			"/>
	<polygon fill="#D8CB00" stroke="#000000" stroke-width="0.3" stroke-miterlimit="10" points="162.3,673.4 212.3,694.7 153.3,623 	
		"/>
	<polygon fill="#BB9408" stroke="#000000" stroke-width="0.3" stroke-miterlimit="10" points="153.3,623 241.7,564.1 114.7,541.7 	
		"/>
	<polygon fill="#D1B303" stroke="#000000" stroke-width="0.3" stroke-miterlimit="10" points="57.3,585.4 110,607.4 114.7,541.7 	
		"/>
	<polygon fill="#B8A403" stroke="#000000" stroke-width="0.3" stroke-miterlimit="10" points="311,754.7 372.7,749.7 302,644.4 	"/>
	<polygon fill="#DBC001" stroke="#000000" stroke-width="0.3" stroke-miterlimit="10" points="212.3,694.7 311,754.7 302,644.4 	"/>
	<polygon fill="#C5AB10" stroke="#000000" stroke-width="0.3" stroke-miterlimit="10" points="241.7,564.1 212.3,694.7 302,644.4 	
		"/>
	<polygon fill="#848F0F" stroke="#000000" stroke-width="0.3" stroke-miterlimit="10" points="302,644.4 372.7,749.7 417.3,624.7 	
		"/>
	<polygon fill="#D8C101" stroke="#000000" stroke-width="0.3" stroke-miterlimit="10" points="114.7,541.7 110,607.4 153.3,623 	"/>
	<polygon fill="#EDD10C" stroke="#000000" stroke-width="0.3" stroke-miterlimit="10" points="372.7,749.7 403.7,743 417.3,624.7 	
		"/>
	<polygon fill="#DAB90A" stroke="#000000" stroke-width="0.3" stroke-miterlimit="10" points="153.3,623 212.3,694.7 241.7,564.1 	
		"/>
	<polygon fill="#BA8F05" stroke="#000000" stroke-width="0.3" stroke-miterlimit="10" points="0,474.4 54.7,528.7 70.7,476.7 	"/>
	<polygon fill="#DBBA2E" stroke="#000000" stroke-width="0.3" stroke-miterlimit="10" points="70.7,476.7 54.7,528.7 114.7,541.7 	
		"/>
	<polygon fill="#D7DA07" stroke="#000000" stroke-width="0.3" stroke-miterlimit="10" points="188.7,436.4 134.3,488 189.7,493.7 	
		"/>
	<polygon fill="#C1A901" stroke="#000000" stroke-width="0.3" stroke-miterlimit="10" points="134.3,488 70.7,476.7 114.7,541.7 	
		"/>
	<polygon fill="#EDBF14" stroke="#000000" stroke-width="0.3" stroke-miterlimit="10" points="302,644.4 417.3,624.7 350,531.7 	"/>
	<polygon fill="#AD990B" stroke="#000000" stroke-width="0.3" stroke-miterlimit="10" points="241.7,564.1 302,644.4 350,531.7 	"/>
	<polygon fill="#53630B" stroke="#000000" stroke-width="0.3" stroke-miterlimit="10" points="350,531.7 417.3,624.7 474,512 	"/>
	<polygon fill="#A49D06" stroke="#000000" stroke-width="0.3" stroke-miterlimit="10" points="312.7,450.7 188.7,436.4 189.7,493.7 
			"/>
	<polygon fill="#C5B005" stroke="#000000" stroke-width="0.3" stroke-miterlimit="10" points="189.7,493.7 241.7,564.1 312.7,450.7 
			"/>
	<polygon fill="#797F00" stroke="#000000" stroke-width="0.3" stroke-miterlimit="10" points="312.7,450.7 241.7,564.1 350,531.7 	
		"/>
</g>
<g>
	<polygon fill="#E2E093" stroke="#000000" stroke-width="0.2" stroke-miterlimit="10" points="706,24.7 655.3,73.4 701.3,81.7 	"/>
	<polygon fill="#BFB10A" stroke="#000000" stroke-width="0.2" stroke-miterlimit="10" points="719.3,130.7 701.3,81.7 657.7,155.7 	
		"/>
	<polygon fill="#C8BF7E" stroke="#000000" stroke-width="0.2" stroke-miterlimit="10" points="616.7,60.4 588,116.7 655.3,73.4 	"/>
	<polygon fill="#77920F" stroke="#000000" stroke-width="0.2" stroke-miterlimit="10" points="581.7,485 692,424.7 608,363.7 	"/>
	<polygon fill="#D4B71B" stroke="#000000" stroke-width="0.2" stroke-miterlimit="10" points="124,314.4 138.7,363.7 224.7,325 	"/>
	<polygon fill="#ACA504" stroke="#000000" stroke-width="0.2" stroke-miterlimit="10" points="256.7,234.4 321.7,151.7 236.3,146 	
		"/>
	<polygon fill="#BBA907" stroke="#000000" stroke-width="0.2" stroke-miterlimit="10" points="350,531.7 474,512 411,405 	"/>
	<polygon fill="#9B8C02" stroke="#000000" stroke-width="0.2" stroke-miterlimit="10" points="411,405 312.7,450.7 350,531.7 	"/>
	<polygon fill="#A69B0B" stroke="#000000" stroke-width="0.2" stroke-miterlimit="10" points="138.7,363.7 154.7,410.4 224.7,325 	
		"/>
	<polygon fill="#BCAD08" stroke="#000000" stroke-width="0.2" stroke-miterlimit="10" points="154.7,410.4 188.7,436.4 224.7,325 	
		"/>
	<polygon fill="#657508" stroke="#000000" stroke-width="0.2" stroke-miterlimit="10" points="224.7,325 188.7,436.4 312.7,450.7 	
		"/>
	<polygon fill="#CAC40A" stroke="#000000" stroke-width="0.2" stroke-miterlimit="10" points="692,424.7 735.7,372 608,363.7 	"/>
	<polygon fill="#799133" stroke="#000000" stroke-width="0.2" stroke-miterlimit="10" points="411,405 474,512 506.7,405.7 	"/>
	<polygon fill="#738D06" stroke="#000000" stroke-width="0.2" stroke-miterlimit="10" points="655.3,73.4 588,116.7 657.7,155.7 	
		"/>
	<polygon fill="#889000" stroke="#000000" stroke-width="0.2" stroke-miterlimit="10" points="150.7,200.1 156.7,263.7 256.7,234.4 
			"/>
	<polygon fill="#DEC626" stroke="#000000" stroke-width="0.2" stroke-miterlimit="10" points="474,512 581.7,485 506.7,405.7 	"/>
	<polygon fill="#B2A502" stroke="#000000" stroke-width="0.2" stroke-miterlimit="10" points="329.7,323.4 312.7,450.7 411,405 	"/>
	<polygon fill="#CEB91E" stroke="#000000" stroke-width="0.2" stroke-miterlimit="10" points="224.7,325 312.7,450.7 329.7,323.4 	
		"/>
	<polygon fill="#DEC209" stroke="#000000" stroke-width="0.2" stroke-miterlimit="10" points="411,405 426,301 329.7,323.4 	"/>
	<polygon fill="#B9A924" stroke="#000000" stroke-width="0.2" stroke-miterlimit="10" points="156.7,263.7 124,314.4 224.7,325 	"/>
	<polygon fill="#9B9304" stroke="#000000" stroke-width="0.2" stroke-miterlimit="10" points="93,269.7 124,314.4 156.7,263.7 	"/>
	<polygon fill="#A6AA35" stroke="#000000" stroke-width="0.2" stroke-miterlimit="10" points="581.7,485 608,363.7 506.7,405.7 	"/>
	<polygon fill="#999F00" stroke="#000000" stroke-width="0.2" stroke-miterlimit="10" points="256.7,234.4 156.7,263.7 224.7,325 	
		"/>
	<polygon fill="#CFA900" stroke="#000000" stroke-width="0.2" stroke-miterlimit="10" points="375,244 256.7,234.4 329.7,323.4 	"/>
	<polygon fill="#BCA920" stroke="#000000" stroke-width="0.2" stroke-miterlimit="10" points="482.7,107 477.7,177 531.7,147.7 	"/>
	<polygon fill="#AAAA18" stroke="#000000" stroke-width="0.2" stroke-miterlimit="10" points="506.7,405.7 426,301 411,405 	"/>
	<polygon fill="#EEE630" stroke="#000000" stroke-width="0.2" stroke-miterlimit="10" points="426,301 439.3,235.4 375,244 	"/>
	<polygon fill="#D9C800" stroke="#000000" stroke-width="0.2" stroke-miterlimit="10" points="524.7,297 439.3,235.4 426,301 	"/>
	<polygon fill="#B4A315" stroke="#000000" stroke-width="0.2" stroke-miterlimit="10" points="256.7,234.4 224.7,325 329.7,323.4 	
		"/>
	<polygon fill="#6A8502" stroke="#000000" stroke-width="0.2" stroke-miterlimit="10" points="236.3,146 150.7,200.1 256.7,234.4 	
		"/>
	<polygon fill="#9C9F2C" stroke="#000000" stroke-width="0.2" stroke-miterlimit="10" points="701.3,81.7 655.3,73.4 657.7,155.7 	
		"/>
	<polygon fill="#AFBF54" stroke="#000000" stroke-width="0.2" stroke-miterlimit="10" points="608,363.7 524.7,297 506.7,405.7 	"/>
	<polygon fill="#6A8502" stroke="#000000" stroke-width="0.2" stroke-miterlimit="10" points="524.7,297 426,301 506.7,405.7 	"/>
	<polygon fill="#AF9A1E" stroke="#000000" stroke-width="0.2" stroke-miterlimit="10" points="426,301 375,244 329.7,323.4 	"/>
	<polygon fill="#557713" stroke="#000000" stroke-width="0.2" stroke-miterlimit="10" points="670.7,276 736.7,210.7 657.7,155.7 	
		"/>
	<polygon fill="#DDBF0F" stroke="#000000" stroke-width="0.2" stroke-miterlimit="10" points="321.7,151.7 265.3,88.4 236.3,146 	
		"/>
	<polygon fill="#D9CF18" stroke="#000000" stroke-width="0.2" stroke-miterlimit="10" points="608,363.7 735.7,372 670.7,276 	"/>
	<polygon fill="#DCBE0E" stroke="#000000" stroke-width="0.2" stroke-miterlimit="10" points="375,244 321.7,151.7 256.7,234.4 	"/>
	<polygon fill="#E4CFA1" stroke="#000000" stroke-width="0.2" stroke-miterlimit="10" points="133.7,131.7 150.7,200.1 188.3,109.7 
			"/>
	<polygon fill="#BFA300" stroke="#000000" stroke-width="0.2" stroke-miterlimit="10" points="188.3,109.7 150.7,200.1 236.3,146 	
		"/>
	<polygon fill="#8B9904" stroke="#000000" stroke-width="0.2" stroke-miterlimit="10" points="265.3,88.4 188.3,109.7 236.3,146 	
		"/>
	<polygon fill="#A2A202" stroke="#000000" stroke-width="0.2" stroke-miterlimit="10" points="584,231 477.7,177 524.7,297 	"/>
	<polygon fill="#7A9937" stroke="#000000" stroke-width="0.2" stroke-miterlimit="10" points="584,231 524.7,297 608,363.7 	"/>
	<polygon fill="#557713" stroke="#000000" stroke-width="0.2" stroke-miterlimit="10" points="670.7,276 584,231 608,363.7 	"/>
	<polygon fill="#ABC10A" stroke="#000000" stroke-width="0.2" stroke-miterlimit="10" points="477.7,177 439.3,235.4 524.7,297 	"/>
	<polygon fill="#DAB600" stroke="#000000" stroke-width="0.2" stroke-miterlimit="10" points="439.3,235.4 383.3,159.4 375,244 	"/>
	<polygon fill="#E7DA35" stroke="#000000" stroke-width="0.2" stroke-miterlimit="10" points="383.3,159.4 321.7,151.7 375,244 	"/>
	<polygon fill="#375701" stroke="#000000" stroke-width="0.2" stroke-miterlimit="10" points="657.7,155.7 584,231 670.7,276 	"/>
	<polygon fill="#CEC506" stroke="#000000" stroke-width="0.2" stroke-miterlimit="10" points="786.3,319 758,262.4 735.7,372 	"/>
	<polygon fill="#A9AE09" stroke="#000000" stroke-width="0.2" stroke-miterlimit="10" points="735.7,372 758,262.4 670.7,276 	"/>
	<polygon fill="#E3E1A8" stroke="#000000" stroke-width="0.2" stroke-miterlimit="10" points="830,260.7 758,262.4 786.3,319 	"/>
	<polygon fill="#D1B00D" stroke="#000000" stroke-width="0.2" stroke-miterlimit="10" points="758,262.4 736.7,210.7 670.7,276 	"/>
	<polygon fill="#CBC004" stroke="#000000" stroke-width="0.2" stroke-miterlimit="10" points="531.7,147.7 477.7,177 584,231 	"/>
	<polygon fill="#CBC801" stroke="#000000" stroke-width="0.2" stroke-miterlimit="10" points="769,153 719.3,130.7 736.7,210.7 	"/>
	<polygon fill="#A3A704" stroke="#000000" stroke-width="0.2" stroke-miterlimit="10" points="736.7,210.7 719.3,130.7 657.7,155.7 
			"/>
	<polygon fill="#557713" stroke="#000000" stroke-width="0.2" stroke-miterlimit="10" points="202,0 188.3,109.7 265.3,88.4 	"/>
	<polygon fill="#89A044" stroke="#000000" stroke-width="0.2" stroke-miterlimit="10" points="657.7,155.7 588,116.7 584,231 	"/>
	<polygon fill="#B19D1E" stroke="#000000" stroke-width="0.2" stroke-miterlimit="10" points="588,116.7 531.7,147.7 584,231 	"/>
</g>
<g>
	<polygon fill="#A9B100" stroke="#000000" stroke-width="0.1" stroke-miterlimit="10" points="678.3,972.7 700,908.4 634.3,925 	"/>
	<polygon fill="#BCB706" stroke="#000000" stroke-width="0.1" stroke-miterlimit="10" points="526.3,987.4 537,903.7 477,925 	"/>
	<polygon fill="#E1D004" stroke="#000000" stroke-width="0.1" stroke-miterlimit="10" points="477,925 537,903.7 445,862.7 	"/>
	<polygon fill="#E8C10C" stroke="#000000" stroke-width="0.1" stroke-miterlimit="10" points="403.7,743 416.3,803 495,705 	"/>
	<polygon fill="#B7AF21" stroke="#000000" stroke-width="0.1" stroke-miterlimit="10" points="495,705 416.3,803 514.7,808.7 	"/>
	<polygon fill="#D0D602" stroke="#000000" stroke-width="0.1" stroke-miterlimit="10" points="756.7,910 796.3,886 743.3,860 	"/>
	<polygon fill="#E2B804" stroke="#000000" stroke-width="0.1" stroke-miterlimit="10" points="416.3,803 445,862.7 514.7,808.7 	"/>
	<polygon fill="#B6B100" stroke="#000000" stroke-width="0.1" stroke-miterlimit="10" points="445,862.7 537,903.7 514.7,808.7 	"/>
	<polygon fill="#E0D007" stroke="#000000" stroke-width="0.1" stroke-miterlimit="10" points="537,903.7 584.7,889.7 514.7,808.7 	
		"/>
	<polygon fill="#D3B002" stroke="#000000" stroke-width="0.1" stroke-miterlimit="10" points="743.3,860 801,816.4 750,802 	"/>
	<polygon fill="#C8BF02" stroke="#000000" stroke-width="0.1" stroke-miterlimit="10" points="700,908.4 756.7,910 743.3,860 	"/>
	<polygon fill="#E0CB05" stroke="#000000" stroke-width="0.1" stroke-miterlimit="10" points="811.3,854.1 801,816.4 743.3,860 	"/>
	<polygon fill="#CEB503" stroke="#000000" stroke-width="0.1" stroke-miterlimit="10" points="862,895.4 811.3,854.1 796.3,886 	"/>
	<polygon fill="#AA9915" stroke="#000000" stroke-width="0.1" stroke-miterlimit="10" points="796.3,886 811.3,854.1 743.3,860 	"/>
	<polygon fill="#CFC808" stroke="#000000" stroke-width="0.1" stroke-miterlimit="10" points="584.7,889.7 634.3,925 664.7,804.7 	
		"/>
	<polygon fill="#C2A700" stroke="#000000" stroke-width="0.1" stroke-miterlimit="10" points="634.3,925 700,908.4 664.7,804.7 	"/>
	<polygon fill="#A1A101" stroke="#000000" stroke-width="0.1" stroke-miterlimit="10" points="750,802 664.7,804.7 743.3,860 	"/>
	<polygon fill="#8E8A02" stroke="#000000" stroke-width="0.1" stroke-miterlimit="10" points="664.7,804.7 700,908.4 743.3,860 	"/>
	<polygon fill="#C2A700" stroke="#000000" stroke-width="0.1" stroke-miterlimit="10" points="750,802 744.7,754.4 664.7,804.7 	"/>
	<polygon fill="#6D7103" stroke="#000000" stroke-width="0.1" stroke-miterlimit="10" points="514.7,808.7 584.7,889.7 587.3,746 	
		"/>
	<polygon fill="#D99700" stroke="#000000" stroke-width="0.1" stroke-miterlimit="10" points="587.3,746 584.7,889.7 664.7,804.7 	
		"/>
	<polygon fill="#D0BD00" stroke="#000000" stroke-width="0.1" stroke-miterlimit="10" points="869,707.4 942.7,693.4 881.3,650 	"/>
	<polygon fill="#EEE630" stroke="#000000" stroke-width="0.1" stroke-miterlimit="10" points="801,816.4 744.7,754.4 750,802 	"/>
	<polygon fill="#9E9202" stroke="#000000" stroke-width="0.1" stroke-miterlimit="10" points="514.7,808.7 587.3,746 495,705 	"/>
	<polygon fill="#BFB021" stroke="#000000" stroke-width="0.1" stroke-miterlimit="10" points="777,628 801,723 881.3,650 	"/>
	<polygon fill="#C7AF07" stroke="#000000" stroke-width="0.1" stroke-miterlimit="10" points="417.3,624.7 403.7,743 495,705 	"/>
	<polygon fill="#898509" stroke="#000000" stroke-width="0.1" stroke-miterlimit="10" points="664.7,804.7 666.7,679.7 587.3,746 	
		"/>
	<polygon fill="#EBE106" stroke="#000000" stroke-width="0.1" stroke-miterlimit="10" points="664.7,804.7 744.7,754.4 666.7,679.7 
			"/>
	<polygon fill="#D7DA07" stroke="#000000" stroke-width="0.1" stroke-miterlimit="10" points="801,723 869,707.4 881.3,650 	"/>
	<polygon fill="#A3A907" stroke="#000000" stroke-width="0.1" stroke-miterlimit="10" points="587.3,746 666.7,679.7 560.7,615.4 	
		"/>
	<polygon fill="#C2BB3E" stroke="#000000" stroke-width="0.1" stroke-miterlimit="10" points="495,705 587.3,746 560.7,615.4 	"/>
	<polygon fill="#DDC326" stroke="#000000" stroke-width="0.1" stroke-miterlimit="10" points="417.3,624.7 495,705 560.7,615.4 	"/>
	<polygon fill="#EBD10A" stroke="#000000" stroke-width="0.1" stroke-miterlimit="10" points="881.3,650 897.3,598 777,628 	"/>
	<polygon fill="#A39101" stroke="#000000" stroke-width="0.1" stroke-miterlimit="10" points="666.7,679.7 744.7,754.4 777,628 	"/>
	<polygon fill="#DDD504" stroke="#000000" stroke-width="0.1" stroke-miterlimit="10" points="744.7,754.4 801,723 777,628 	"/>
	<polygon fill="#528212" stroke="#000000" stroke-width="0.1" stroke-miterlimit="10" points="666.7,679.7 777,628 686.7,564.7 	"/>
	<polygon fill="#829809" stroke="#000000" stroke-width="0.1" stroke-miterlimit="10" points="560.7,615.4 666.7,679.7 686.7,564.7 
			"/>
	<polygon fill="#CCA700" stroke="#000000" stroke-width="0.1" stroke-miterlimit="10" points="474,512 417.3,624.7 560.7,615.4 	"/>
	<polygon fill="#F4EF78" stroke="#000000" stroke-width="0.1" stroke-miterlimit="10" points="942.7,693.4 897.3,598 881.3,650 	"/>
	<polygon fill="#C1C102" stroke="#000000" stroke-width="0.1" stroke-miterlimit="10" points="948.3,573.7 939.7,522 884.3,516.7 	
		"/>
	<polygon fill="#CACF29" stroke="#000000" stroke-width="0.1" stroke-miterlimit="10" points="777,628 897.3,598 799.3,535.4 	"/>
	<polygon fill="#AD8B00" stroke="#000000" stroke-width="0.1" stroke-miterlimit="10" points="560.7,615.4 581.7,485 474,512 	"/>
	<polygon fill="#B7AE00" stroke="#000000" stroke-width="0.1" stroke-miterlimit="10" points="686.7,564.7 581.7,485 560.7,615.4 	
		"/>
	<polygon fill="#889F06" stroke="#000000" stroke-width="0.1" stroke-miterlimit="10" points="777,628 799.3,535.4 686.7,564.7 	"/>
	<polygon fill="#B4BB32" stroke="#000000" stroke-width="0.1" stroke-miterlimit="10" points="799.3,535.4 688.3,478 686.7,564.7 	
		"/>
	<polygon fill="#D1C403" stroke="#000000" stroke-width="0.1" stroke-miterlimit="10" points="686.7,564.7 688.3,478 581.7,485 	"/>
	<polygon fill="#AEB507" stroke="#000000" stroke-width="0.1" stroke-miterlimit="10" points="799.3,535.4 897.3,598 884.3,516.7 	
		"/>
	<polygon fill="#E1D62B" stroke="#000000" stroke-width="0.1" stroke-miterlimit="10" points="884.3,516.7 897.3,598 948.3,573.7 	
		"/>
	<polygon fill="#847F00" stroke="#000000" stroke-width="0.1" stroke-miterlimit="10" points="939.7,522 923.7,472.4 884.3,516.7 	
		"/>
	<polygon fill="#8DAD0C" stroke="#000000" stroke-width="0.1" stroke-miterlimit="10" points="753.3,459.7 688.3,478 799.3,535.4 	
		"/>
	<polygon fill="#E5CE06" stroke="#000000" stroke-width="0.1" stroke-miterlimit="10" points="688.3,478 692,424.7 581.7,485 	"/>
	<polygon fill="#C0BA0E" stroke="#000000" stroke-width="0.1" stroke-miterlimit="10" points="840.7,463.4 753.3,459.7 799.3,535.4 
			"/>
	<polygon fill="#C7B700" stroke="#000000" stroke-width="0.1" stroke-miterlimit="10" points="923.7,472.4 897,440.7 884.3,516.7 	
		"/>
	<polygon fill="#969602" stroke="#000000" stroke-width="0.1" stroke-miterlimit="10" points="884.3,516.7 840.7,463.4 799.3,535.4 
			"/>
	<polygon fill="#B39A00" stroke="#000000" stroke-width="0.1" stroke-miterlimit="10" points="897,440.7 840.7,463.4 884.3,516.7 	
		"/>
	<polygon fill="#CAAD0B" stroke="#000000" stroke-width="0.1" stroke-miterlimit="10" points="1000,458 923.7,472.4 939.7,522 	"/>
</g>
</svg>
