<?xml version="1.0" encoding="utf-8"?>
<!-- Generator: Adobe Illustrator 24.1.0, SVG Export Plug-In . SVG Version: 6.00 Build 0)  -->
<svg version="1.1" baseProfile="tiny" id="Layer_1" xmlns="http://www.w3.org/2000/svg" xmlns:xlink="http://www.w3.org/1999/xlink"
	 x="0px" y="0px" viewBox="0 0 1000 560.8" xml:space="preserve">
<g>
	<g>
		<polygon fill="#FAF400" stroke="#000000" stroke-width="0.2" stroke-miterlimit="10" points="744.3,46.7 609,0.1 467,75.7 		"/>
		<line fill="#F5F405" stroke="#000000" stroke-width="0.2" stroke-miterlimit="10" x1="839.7" y1="131.1" x2="736" y2="134.4"/>
		<polygon fill="#CCC503" stroke="#000000" stroke-width="0.2" stroke-miterlimit="10" points="882.3,213.1 839.7,131.1 
			832.3,168.7 		"/>
		<polygon fill="#796F00" stroke="#000000" stroke-width="0.2" stroke-miterlimit="10" points="579.7,559.1 715.3,495.7 
			606.3,530.1 		"/>
		<polygon fill="#AA9400" stroke="#000000" stroke-width="0.2" stroke-miterlimit="10" points="819.7,201.4 882.3,213.1 
			832.3,168.7 		"/>
		<polygon fill="#F6F205" stroke="#000000" stroke-width="0.2" stroke-miterlimit="10" points="832.3,168.7 839.7,131.1 
			796.3,132.4 		"/>
		<polygon fill="#D9CF00" stroke="#000000" stroke-width="0.2" stroke-miterlimit="10" points="796.3,132.4 736,134.4 754.7,157.7 
					"/>
		<polygon fill="#6E7A03" stroke="#000000" stroke-width="0.2" stroke-miterlimit="10" points="606.3,530.1 715.3,495.7 
			737.7,391.7 		"/>
		<polygon fill="#7B8800" stroke="#000000" stroke-width="0.2" stroke-miterlimit="10" points="508,373.4 606.3,530.1 737.7,391.7 
					"/>
		<polygon fill="#E3DE04" stroke="#000000" stroke-width="0.2" stroke-miterlimit="10" points="754.7,157.7 736,134.4 705.7,202.1 
					"/>
		<path fill="#988E05" stroke="#000000" stroke-width="0.2" stroke-miterlimit="10" d="M810.3,226.4L810.3,226.4L810.3,226.4z"/>
		<polygon fill="#988E05" stroke="#000000" stroke-width="0.2" stroke-miterlimit="10" points="810.3,226.4 798.3,257.4 
			882.3,213.1 819.7,201.4 		"/>
		<polygon fill="#D6DA22" stroke="#000000" stroke-width="0.2" stroke-miterlimit="10" points="705.7,202.1 764.3,202.4 
			754.7,157.7 		"/>
		<polygon fill="#949F00" stroke="#000000" stroke-width="0.2" stroke-miterlimit="10" points="810.3,226.4 764.3,202.4 
			798.3,257.4 		"/>
		<polygon fill="#5A4D04" stroke="#000000" stroke-width="0.2" stroke-miterlimit="10" points="810.3,226.4 810.3,226.4 
			819.7,201.4 779.7,210.4 		"/>
		<polygon fill="#AAB200" stroke="#000000" stroke-width="0.2" stroke-miterlimit="10" points="705.7,202.1 798.3,257.4 
			764.3,202.4 		"/>
		<polygon fill="#F9F600" stroke="#000000" stroke-width="0.2" stroke-miterlimit="10" points="839.7,131.1 744.3,46.7 736,134.4 		
			"/>
		<polygon fill="#BFC708" stroke="#000000" stroke-width="0.2" stroke-miterlimit="10" points="798.3,257.4 908,347.4 882.3,213.1 
					"/>
		<polygon fill="#889600" stroke="#000000" stroke-width="0.2" stroke-miterlimit="10" points="698,281.7 798.3,257.4 705.7,202.1 
					"/>
		<polygon fill="#B2C303" stroke="#000000" stroke-width="0.2" stroke-miterlimit="10" points="698,281.7 908,347.4 798.3,257.4 		
			"/>
		<polygon fill="#737407" stroke="#000000" stroke-width="0.2" stroke-miterlimit="10" points="715.3,495.7 908,347.4 737.7,391.7 
					"/>
		<polygon fill="#C99808" stroke="#000000" stroke-width="0.2" stroke-miterlimit="10" points="737.7,391.7 698,281.7 508,373.4 		
			"/>
		<polygon fill="#818013" stroke="#000000" stroke-width="0.2" stroke-miterlimit="10" points="737.7,391.7 908,347.4 698,281.7 		
			"/>
		<polygon fill="#D1C405" stroke="#000000" stroke-width="0.2" stroke-miterlimit="10" points="882.3,213.1 908,347.4 1000,309.1 		
			"/>
		<polygon fill="#F7F108" stroke="#000000" stroke-width="0.2" stroke-miterlimit="10" points="998,266.4 882.3,213.1 1000,309.1 		
			"/>
		<polygon fill="#786111" stroke="#000000" stroke-width="0.2" stroke-miterlimit="10" points="819.7,201.4 832.3,168.7 
			809.3,186.7 		"/>
		<polygon fill="#A38105" stroke="#000000" stroke-width="0.2" stroke-miterlimit="10" points="781,188.1 764.3,202.4 779.7,210.4 
					"/>
		<polygon fill="#503602" stroke="#000000" stroke-width="0.2" stroke-miterlimit="10" points="779.7,210.4 819.7,201.4 797,192.1 
					"/>
		<polygon fill="#503803" stroke="#000000" stroke-width="0.2" stroke-miterlimit="10" points="779.7,210.4 797,192.1 781,188.1 		
			"/>
		<polygon fill="#875E00" stroke="#000000" stroke-width="0.2" stroke-miterlimit="10" points="797,192.1 819.7,201.4 809.3,186.7 
					"/>
		<polygon fill="#FBD113" stroke="#000000" stroke-width="0.2" stroke-miterlimit="10" points="784,160.1 796.3,132.4 754.7,157.7 
					"/>
		<polygon fill="#DFB70B" stroke="#000000" stroke-width="0.2" stroke-miterlimit="10" points="832.3,168.7 796.3,132.4 
			807.7,168.4 		"/>
		<polygon fill="#6A4400" stroke="#000000" stroke-width="0.2" stroke-miterlimit="10" points="807.7,168.4 796.3,132.4 784,160.1 
					"/>
		<polygon fill="#D6B000" stroke="#000000" stroke-width="0.2" stroke-miterlimit="10" points="784,160.1 754.7,157.7 773.3,179.1 
					"/>
		<polygon fill="#E2B204" stroke="#000000" stroke-width="0.2" stroke-miterlimit="10" points="773.3,179.1 764.3,202.4 781,188.1 
					"/>
		<polygon fill="#D0AF0B" stroke="#000000" stroke-width="0.2" stroke-miterlimit="10" points="754.7,157.7 764.3,202.4 
			773.3,179.1 		"/>
		<polygon fill="#B88706" stroke="#000000" stroke-width="0.2" stroke-miterlimit="10" points="809.3,186.7 832.3,168.7 
			807.7,168.4 		"/>
		<polygon fill="#0A0C0B" stroke="#000000" stroke-width="0.2" stroke-miterlimit="10" points="797,192.1 784,160.1 781,188.1 		"/>
		<polygon fill="#0B0A0D" stroke="#000000" stroke-width="0.2" stroke-miterlimit="10" points="809.3,186.7 807.7,168.4 797,192.1 
					"/>
		<polygon fill="#0C0E0F" stroke="#000000" stroke-width="0.2" stroke-miterlimit="10" points="807.7,168.4 784,160.1 797,192.1 		
			"/>
		<polygon fill="#090E0B" stroke="#000000" stroke-width="0.2" stroke-miterlimit="10" points="781,188.1 784,160.1 773.3,179.1 		
			"/>
		<polygon fill="#807C04" stroke="#000000" stroke-width="0.2" stroke-miterlimit="10" points="784.3,462.7 908,347.4 715.3,495.7 
					"/>
		<polygon fill="#947605" stroke="#000000" stroke-width="0.2" stroke-miterlimit="10" points="628.7,543.7 715.3,495.7 
			579.7,559.1 		"/>
	</g>
	<g>
		<polygon fill="#A9C204" stroke="#000000" stroke-width="0.1" stroke-miterlimit="10" points="0,292.1 34.7,385.1 136.7,304.7 		
			"/>
		<polygon fill="#D3C305" stroke="#000000" stroke-width="0.1" stroke-miterlimit="10" points="147.3,548.4 198,446.7 105.3,476.1 
					"/>
		<polygon fill="#84A100" stroke="#000000" stroke-width="0.1" stroke-miterlimit="10" points="34.7,385.1 105.3,476.1 136.7,304.7 
					"/>
		<polygon fill="#7A8400" stroke="#000000" stroke-width="0.1" stroke-miterlimit="10" points="105.3,476.1 198,446.7 136.7,304.7 
					"/>
		<polygon fill="#D3CE0C" stroke="#000000" stroke-width="0.1" stroke-miterlimit="10" points="365.3,146.1 283.7,202.7 
			261.3,301.4 		"/>
		<polygon fill="#EEE100" stroke="#000000" stroke-width="0.1" stroke-miterlimit="10" points="609,0.1 265.3,56.7 467,75.7 		"/>
		<polygon fill="#D4A002" stroke="#000000" stroke-width="0.1" stroke-miterlimit="10" points="239.7,317.4 166,372.4 288.7,388.4 
			261.3,301.4 		"/>
		<polygon fill="#C69D01" stroke="#000000" stroke-width="0.1" stroke-miterlimit="10" points="198,446.7 245.7,382.7 166,372.4 		
			"/>
		<polygon fill="#F4E900" stroke="#000000" stroke-width="0.1" stroke-miterlimit="10" points="239.7,317.4 224.3,315.4 
			224.3,315.4 136.7,304.7 166,372.4 		"/>
		<polygon fill="#817B08" stroke="#000000" stroke-width="0.1" stroke-miterlimit="10" points="237,394.7 235.7,445.4 417,477.7 		
			"/>
		<polygon fill="#B29D0A" stroke="#000000" stroke-width="0.1" stroke-miterlimit="10" points="288.7,388.4 237,394.7 417,477.7 		
			"/>
		<polygon fill="#B86103" stroke="#000000" stroke-width="0.1" stroke-miterlimit="10" points="245.7,382.7 237,394.7 288.7,388.4 
					"/>
		<polygon fill="#8F8C04" stroke="#000000" stroke-width="0.1" stroke-miterlimit="10" points="235.7,445.4 333.7,547.1 417,477.7 
					"/>
		<polygon fill="#CBAB00" stroke="#000000" stroke-width="0.1" stroke-miterlimit="10" points="333.7,547.1 606.3,530.1 417,477.7 
					"/>
		<polygon fill="#C48600" stroke="#000000" stroke-width="0.1" stroke-miterlimit="10" points="473,560.7 606.3,530.1 333.7,547.1 
					"/>
		<polygon fill="#D79A02" stroke="#000000" stroke-width="0.1" stroke-miterlimit="10" points="261.3,301.4 288.7,388.4 
			365.3,146.1 		"/>
		<polygon fill="#F4F201" stroke="#000000" stroke-width="0.1" stroke-miterlimit="10" points="365.3,146.1 744.3,46.7 467,75.7 		
			"/>
		<polygon fill="#D2B60E" stroke="#000000" stroke-width="0.1" stroke-miterlimit="10" points="365.3,146.1 288.7,388.4 
			394.3,332.1 		"/>
		<polygon fill="#F5F405" stroke="#000000" stroke-width="0.1" stroke-miterlimit="10" points="736,134.4 744.3,46.7 365.3,146.1 		
			"/>
		<polygon fill="#948A04" stroke="#000000" stroke-width="0.1" stroke-miterlimit="10" points="417,477.7 606.3,530.1 508,373.4 		
			"/>
		<polygon fill="#948A04" stroke="#000000" stroke-width="0.1" stroke-miterlimit="10" points="394.3,332.1 394.3,332.1 508,373.4 
			365.3,146.1 		"/>
		<polygon fill="#E0DB06" stroke="#000000" stroke-width="0.1" stroke-miterlimit="10" points="736,134.4 365.3,146.1 705.7,202.1 
					"/>
		<polygon fill="#CBCB01" stroke="#000000" stroke-width="0.1" stroke-miterlimit="10" points="365.3,146.1 698,281.7 705.7,202.1 
					"/>
		<polygon fill="#E4DF05" stroke="#000000" stroke-width="0.1" stroke-miterlimit="10" points="508,373.4 698,281.7 365.3,146.1 		
			"/>
		<polygon fill="#BAD008" stroke="#000000" stroke-width="0.1" stroke-miterlimit="10" points="265.3,56.7 283.7,202.7 365.3,146.1 
					"/>
		<polygon fill="#C0AD07" stroke="#000000" stroke-width="0.1" stroke-miterlimit="10" points="417,477.7 508,373.4 394.3,332.1 		
			"/>
		<polygon fill="#946100" stroke="#000000" stroke-width="0.1" stroke-miterlimit="10" points="394.3,332.1 288.7,388.4 417,477.7 
					"/>
		<polygon fill="#DFEA02" stroke="#000000" stroke-width="0.1" stroke-miterlimit="10" points="467,75.7 265.3,56.7 365.3,146.1 		
			"/>
		<polygon fill="#FFF607" stroke="#000000" stroke-width="0.1" stroke-miterlimit="10" points="429,11.7 265.3,56.7 609,0.1 		"/>
		<polygon fill="#FFF607" stroke="#000000" stroke-width="0.1" stroke-miterlimit="10" points="255,86.1 283.7,202.7 265.3,56.7 		
			"/>
		<polygon fill="#948A04" stroke="#000000" stroke-width="0.1" stroke-miterlimit="10" points="261.3,301.4 283.7,202.7 
			224.3,315.4 224.3,315.4 		"/>
		<polygon fill="#AFAA01" stroke="#000000" stroke-width="0.1" stroke-miterlimit="10" points="270.3,500.7 333.7,547.1 
			235.7,445.4 		"/>
		<polygon fill="#B86103" stroke="#000000" stroke-width="0.1" stroke-miterlimit="10" points="224.3,315.4 239.7,317.4 
			261.3,301.4 		"/>
	</g>
</g>
</svg>
