<?xml version="1.0" encoding="utf-8"?>
<!-- Generator: Adobe Illustrator 24.1.0, SVG Export Plug-In . SVG Version: 6.00 Build 0)  -->
<svg version="1.1" baseProfile="tiny" id="图层_1"
	 xmlns="http://www.w3.org/2000/svg" xmlns:xlink="http://www.w3.org/1999/xlink" x="0px" y="0px" viewBox="0 0 1000.6 979.6"
	 xml:space="preserve">
<g>
	<g>
		<polygon fill="#C574AC" stroke="#000000" stroke-width="0.3" stroke-miterlimit="10" points="430.3,713.9 436.8,793.6 
			495.6,730.9 		"/>
		<polygon fill="#9DD45D" stroke="#000000" stroke-width="0.3" stroke-miterlimit="10" points="408,481.2 417.2,562.2 496.9,479.9 
					"/>
		<polygon fill="#0CACC2" stroke="#000000" stroke-width="0.3" stroke-miterlimit="10" points="427.7,639.4 430.3,713.9 
			496.9,685.1 		"/>
		<polygon fill="#0A7984" stroke="#000000" stroke-width="0.3" stroke-miterlimit="10" points="430.3,713.9 495.6,730.9 
			496.9,685.1 		"/>
		<polygon fill="#F44C99" stroke="#000000" stroke-width="0.3" stroke-miterlimit="10" points="443.3,860.3 452.5,977.9 
			496.9,915.2 		"/>
		<polygon fill="#02A435" stroke="#000000" stroke-width="0.3" stroke-miterlimit="10" points="496.9,479.9 417.2,562.2 
			499.5,589.7 		"/>
		<polygon fill="#119436" stroke="#000000" stroke-width="0.3" stroke-miterlimit="10" points="417.2,562.2 427.7,639.4 
			499.5,589.7 		"/>
		<polygon fill="#0A823A" stroke="#000000" stroke-width="0.3" stroke-miterlimit="10" points="427.7,639.4 496.9,685.1 
			499.5,589.7 		"/>
		<polygon fill="#524B99" stroke="#000000" stroke-width="0.3" stroke-miterlimit="10" points="443.3,860.3 496.9,915.2 
			499.5,821.1 		"/>
		<polygon fill="#7F72BA" stroke="#000000" stroke-width="0.3" stroke-miterlimit="10" points="436.8,793.6 443.3,860.3 
			499.5,821.1 		"/>
		<polygon fill="#272E86" stroke="#000000" stroke-width="0.3" stroke-miterlimit="10" points="495.6,730.9 436.8,793.6 
			499.5,821.1 		"/>
		<polygon fill="#BF1A93" stroke="#000000" stroke-width="0.3" stroke-miterlimit="10" points="496.9,915.2 452.5,977.9 
			545.3,979.2 		"/>
		<polygon fill="#4D4F99" stroke="#000000" stroke-width="0.3" stroke-miterlimit="10" points="499.5,821.1 496.9,915.2 
			558.4,860.3 		"/>
		<polygon fill="#D16597" stroke="#000000" stroke-width="0.3" stroke-miterlimit="10" points="496.9,915.2 545.3,979.2 
			558.4,860.3 		"/>
		<polygon fill="#2C338B" stroke="#000000" stroke-width="0.3" stroke-miterlimit="10" points="495.6,730.9 499.5,821.1 561,794.9 
					"/>
		<polygon fill="#7F70B5" stroke="#000000" stroke-width="0.3" stroke-miterlimit="10" points="499.5,821.1 558.4,860.3 561,794.9 
					"/>
		<polygon fill="#047480" stroke="#000000" stroke-width="0.3" stroke-miterlimit="10" points="496.9,685.1 495.6,730.9 
			570.1,716.5 		"/>
		<polygon fill="#C87CBD" stroke="#000000" stroke-width="0.3" stroke-miterlimit="10" points="495.6,730.9 561,794.9 570.1,716.5 
					"/>
		<polygon fill="#127A3B" stroke="#000000" stroke-width="0.3" stroke-miterlimit="10" points="499.5,589.7 496.9,685.1 
			572.7,636.8 		"/>
		<polygon fill="#0DAABD" stroke="#000000" stroke-width="0.3" stroke-miterlimit="10" points="496.9,685.1 570.1,716.5 
			572.7,636.8 		"/>
		<polygon fill="#10A843" stroke="#000000" stroke-width="0.3" stroke-miterlimit="10" points="496.9,479.9 499.5,589.7 578,558.3 
					"/>
		<polygon fill="#179041" stroke="#000000" stroke-width="0.3" stroke-miterlimit="10" points="499.5,589.7 572.7,636.8 578,558.3 
					"/>
		<polygon fill="#B1CE5A" stroke="#000000" stroke-width="0.3" stroke-miterlimit="10" points="496.9,479.9 578,558.3 588.4,486.4 
					"/>
		<polygon fill="#EA292C" stroke="#000000" stroke-width="0.3" stroke-miterlimit="10" points="561,794.9 558.4,860.3 593.7,813.2 
					"/>
		<polygon fill="#EF0015" stroke="#000000" stroke-width="0.3" stroke-miterlimit="10" points="558.4,860.3 545.3,979.2 
			593.7,813.2 		"/>
	</g>
	<g>
		<polygon fill="#F1B3CA" stroke="#000000" stroke-width="0.2" stroke-miterlimit="10" points="452.5,410.6 408,481.2 496.9,479.9 
					"/>
		<polygon fill="#F3B6C8" stroke="#000000" stroke-width="0.2" stroke-miterlimit="10" points="452.5,410.6 496.9,479.9 
			542.7,410.6 		"/>
		<polygon fill="#EEB9C9" stroke="#000000" stroke-width="0.2" stroke-miterlimit="10" points="499.5,329.6 452.5,410.6 
			542.7,410.6 		"/>
		<polygon fill="#E988B3" stroke="#000000" stroke-width="0.2" stroke-miterlimit="10" points="499.5,329.6 542.7,410.6 
			567.5,367.5 		"/>
		<polygon fill="#9FD654" stroke="#000000" stroke-width="0.2" stroke-miterlimit="10" points="498.2,2.8 566.2,93 580.6,1.5 		"/>
		<polygon fill="#F4B3C9" stroke="#000000" stroke-width="0.2" stroke-miterlimit="10" points="542.7,410.6 496.9,479.9 
			588.4,486.4 		"/>
		<polygon fill="#C48FBD" stroke="#000000" stroke-width="0.2" stroke-miterlimit="10" points="496.9,142.6 499.5,329.6 
			600.2,269.4 		"/>
		<polygon fill="#C27AB9" stroke="#000000" stroke-width="0.2" stroke-miterlimit="10" points="499.5,329.6 567.5,367.5 
			600.2,269.4 		"/>
		<polygon fill="#D994A7" stroke="#000000" stroke-width="0.2" stroke-miterlimit="10" points="567.5,367.5 542.7,410.6 612,439.4 
					"/>
		<polygon fill="#ED88B0" stroke="#000000" stroke-width="0.2" stroke-miterlimit="10" points="542.7,410.6 588.4,486.4 612,439.4 
					"/>
		<polygon fill="#B77DB7" stroke="#000000" stroke-width="0.2" stroke-miterlimit="10" points="600.2,269.4 567.5,367.5 618.5,340 
					"/>
		<polygon fill="#B451A1" stroke="#000000" stroke-width="0.2" stroke-miterlimit="10" points="496.9,142.6 600.2,269.4 
			622.4,239.4 		"/>
		<polygon fill="#E091A7" stroke="#000000" stroke-width="0.2" stroke-miterlimit="10" points="567.5,367.5 612,439.4 632.9,398.9 
					"/>
		<polygon fill="#BA7BB2" stroke="#000000" stroke-width="0.2" stroke-miterlimit="10" points="618.5,340 567.5,367.5 632.9,398.9 
					"/>
		<polygon fill="#ACCBE8" stroke="#000000" stroke-width="0.2" stroke-miterlimit="10" points="606.7,523 629,562.2 636.8,504.7 		
			"/>
		<polygon fill="#A6BCE1" stroke="#000000" stroke-width="0.2" stroke-miterlimit="10" points="588.4,486.4 606.7,523 636.8,504.7 
					"/>
		<polygon fill="#C2D47E" stroke="#000000" stroke-width="0.2" stroke-miterlimit="10" points="580.6,1.5 566.2,93 638.1,79.9 		"/>
		<polygon fill="#8E5FB0" stroke="#000000" stroke-width="0.2" stroke-miterlimit="10" points="618.5,340 632.9,398.9 638.1,325.6 
					"/>
		<polygon fill="#9357A1" stroke="#000000" stroke-width="0.2" stroke-miterlimit="10" points="600.2,269.4 618.5,340 638.1,325.6 
					"/>
		<polygon fill="#893978" stroke="#000000" stroke-width="0.2" stroke-miterlimit="10" points="622.4,239.4 600.2,269.4 
			639.4,269.4 		"/>
		<polygon fill="#B24C8E" stroke="#000000" stroke-width="0.2" stroke-miterlimit="10" points="600.2,269.4 638.1,325.6 
			639.4,269.4 		"/>
		<polygon fill="#96C5E1" stroke="#000000" stroke-width="0.2" stroke-miterlimit="10" points="612,439.4 588.4,486.4 644.6,448.5 
					"/>
		<polygon fill="#A0CAF4" stroke="#000000" stroke-width="0.2" stroke-miterlimit="10" points="588.4,486.4 636.8,504.7 
			644.6,448.5 		"/>
		<polygon fill="#F15B8B" stroke="#000000" stroke-width="0.2" stroke-miterlimit="10" points="632.9,398.9 612,439.4 644.6,448.5 
					"/>
		<polygon fill="#0DB4D4" stroke="#000000" stroke-width="0.2" stroke-miterlimit="10" points="566.2,93 496.9,142.6 646,204.1 		
			"/>
		<polygon fill="#C03F99" stroke="#000000" stroke-width="0.2" stroke-miterlimit="10" points="496.9,142.6 622.4,239.4 646,204.1 
					"/>
		<polygon fill="#4C133E" stroke="#000000" stroke-width="0.2" stroke-miterlimit="10" points="622.4,239.4 639.4,269.4 
			649.9,239.4 		"/>
		<polygon fill="#414D89" stroke="#000000" stroke-width="0.2" stroke-miterlimit="10" points="646,204.1 622.4,239.4 649.9,239.4 
					"/>
		<polygon fill="#63B4EB" stroke="#000000" stroke-width="0.2" stroke-miterlimit="10" points="636.8,504.7 629,562.2 661.6,521.7 
					"/>
		<polygon fill="#72B7E0" stroke="#000000" stroke-width="0.2" stroke-miterlimit="10" points="644.6,448.5 636.8,504.7 
			661.6,521.7 		"/>
		<polygon fill="#0B7BC5" stroke="#000000" stroke-width="0.2" stroke-miterlimit="10" points="639.4,269.4 638.1,325.6 
			664.3,316.5 		"/>
		<polygon fill="#0877C6" stroke="#000000" stroke-width="0.2" stroke-miterlimit="10" points="638.1,325.6 632.9,398.9 
			664.3,316.5 		"/>
		<polygon fill="#C0EFFF" stroke="#000000" stroke-width="0.2" stroke-miterlimit="10" points="629,562.2 653.8,606.7 676,592.3 		
			"/>
		<polygon fill="#62C2F2" stroke="#000000" stroke-width="0.2" stroke-miterlimit="10" points="661.6,521.7 629,562.2 676,592.3 		
			"/>
		<polygon fill="#BDE37E" stroke="#000000" stroke-width="0.2" stroke-miterlimit="10" points="638.1,79.9 566.2,93 678.6,134.8 		
			"/>
		<polygon fill="#5BC0DC" stroke="#000000" stroke-width="0.2" stroke-miterlimit="10" points="566.2,93 646,204.1 678.6,134.8 		
			"/>
		<polygon fill="#11C44E" stroke="#000000" stroke-width="0.2" stroke-miterlimit="10" points="580.6,1.5 638.1,79.9 685.2,36.8 		
			"/>
		<polygon fill="#055288" stroke="#000000" stroke-width="0.2" stroke-miterlimit="10" points="646,204.1 649.9,239.4 700.9,234.1 
					"/>
		<polygon fill="#03A0B1" stroke="#000000" stroke-width="0.2" stroke-miterlimit="10" points="678.6,134.8 646,204.1 700.9,234.1 
					"/>
		<polygon fill="#0089BD" stroke="#000000" stroke-width="0.2" stroke-miterlimit="10" points="649.9,239.4 639.4,269.4 
			700.9,234.1 		"/>
		<polygon fill="#0173C9" stroke="#000000" stroke-width="0.2" stroke-miterlimit="10" points="639.4,269.4 664.3,316.5 
			700.9,234.1 		"/>
		<polygon fill="#076626" stroke="#000000" stroke-width="0.2" stroke-miterlimit="10" points="700.9,234.1 664.3,316.5 
			721.8,346.6 		"/>
		<polygon fill="#11622A" stroke="#000000" stroke-width="0.2" stroke-miterlimit="10" points="664.3,316.5 632.9,398.9 
			721.8,346.6 		"/>
		<polygon fill="#0EAE44" stroke="#000000" stroke-width="0.2" stroke-miterlimit="10" points="638.1,79.9 678.6,134.8 728.3,83.8 
					"/>
		<polygon fill="#03AD42" stroke="#000000" stroke-width="0.2" stroke-miterlimit="10" points="685.2,36.8 638.1,79.9 728.3,83.8 		
			"/>
		<polygon fill="#0E7E34" stroke="#000000" stroke-width="0.2" stroke-miterlimit="10" points="644.6,448.5 661.6,521.7 
			738.8,431.5 		"/>
		<polygon fill="#127D2D" stroke="#000000" stroke-width="0.2" stroke-miterlimit="10" points="661.6,521.7 730.9,557 738.8,431.5 
					"/>
		<polygon fill="#0F7F35" stroke="#000000" stroke-width="0.2" stroke-miterlimit="10" points="632.9,398.9 644.6,448.5 
			738.8,431.5 		"/>
		<polygon fill="#0C6D2A" stroke="#000000" stroke-width="0.2" stroke-miterlimit="10" points="721.8,346.6 632.9,398.9 
			738.8,431.5 		"/>
		<polygon fill="#E8202A" stroke="#000000" stroke-width="0.2" stroke-miterlimit="10" points="721.8,346.6 738.8,431.5 
			779.3,330.9 		"/>
		<polygon fill="#EF212E" stroke="#000000" stroke-width="0.2" stroke-miterlimit="10" points="700.9,234.1 721.8,346.6 
			779.3,330.9 		"/>
		<polygon fill="#08A347" stroke="#000000" stroke-width="0.2" stroke-miterlimit="10" points="685.2,36.8 728.3,83.8 804.1,0.2 		
			"/>
		<polygon fill="#88AE34" stroke="#000000" stroke-width="0.2" stroke-miterlimit="10" points="804.1,0.2 728.3,83.8 814.6,112.6 		
			"/>
		<polygon fill="#9FCB5A" stroke="#000000" stroke-width="0.2" stroke-miterlimit="10" points="678.6,134.8 700.9,234.1 
			814.6,112.6 		"/>
		<polygon fill="#81BA2F" stroke="#000000" stroke-width="0.2" stroke-miterlimit="10" points="728.3,83.8 678.6,134.8 814.6,112.6 
					"/>
		<polygon fill="#F28D01" stroke="#000000" stroke-width="0.2" stroke-miterlimit="10" points="700.9,234.1 779.3,330.9 
			836.8,223.7 		"/>
		<polygon fill="#F18C00" stroke="#000000" stroke-width="0.2" stroke-miterlimit="10" points="814.6,112.6 700.9,234.1 
			836.8,223.7 		"/>
		<polygon fill="#FA8803" stroke="#000000" stroke-width="0.2" stroke-miterlimit="10" points="836.8,223.7 779.3,330.9 
			851.2,315.2 		"/>
		<polygon fill="#E31E27" stroke="#000000" stroke-width="0.2" stroke-miterlimit="10" points="779.3,330.9 738.8,431.5 
			868.2,440.7 		"/>
		<polygon fill="#FC8801" stroke="#000000" stroke-width="0.2" stroke-miterlimit="10" points="851.2,315.2 779.3,330.9 
			868.2,440.7 		"/>
		<polygon fill="#275433" stroke="#000000" stroke-width="0.2" stroke-miterlimit="10" points="738.8,431.5 730.9,557 868.2,440.7 
					"/>
		<polygon fill="#FED700" stroke="#000000" stroke-width="0.2" stroke-miterlimit="10" points="851.2,315.2 868.2,440.7 
			915.2,330.9 		"/>
		<polygon fill="#FBD101" stroke="#000000" stroke-width="0.2" stroke-miterlimit="10" points="836.8,223.7 851.2,315.2 
			940.1,274.7 		"/>
		<polygon fill="#FED403" stroke="#000000" stroke-width="0.2" stroke-miterlimit="10" points="851.2,315.2 915.2,330.9 
			940.1,274.7 		"/>
		<polygon fill="#F9E449" stroke="#000000" stroke-width="0.2" stroke-miterlimit="10" points="804.1,0.2 814.6,112.6 1000.2,142.6 
					"/>
		<polygon fill="#FDD001" stroke="#000000" stroke-width="0.2" stroke-miterlimit="10" points="814.6,112.6 836.8,223.7 
			1000.2,142.6 		"/>
		<polygon fill="#FDD003" stroke="#000000" stroke-width="0.2" stroke-miterlimit="10" points="836.8,223.7 940.1,274.7 
			1000.2,142.6 		"/>
	</g>
	<g>
		<polygon fill="#F7D400" stroke="#000000" stroke-width="0.1" stroke-miterlimit="10" points="90.4,363.6 130.9,442 141.4,371.4 		
			"/>
		<polygon fill="#FFCC01" stroke="#000000" stroke-width="0.1" stroke-miterlimit="10" points="65.6,307.3 90.4,363.6 149.2,329.6 
					"/>
		<polygon fill="#FBD100" stroke="#000000" stroke-width="0.1" stroke-miterlimit="10" points="90.4,363.6 141.4,371.4 149.2,329.6 
					"/>
		<polygon fill="#FDCF00" stroke="#000000" stroke-width="0.1" stroke-miterlimit="10" points="0.2,137.4 65.6,307.3 161,257.7 		
			"/>
		<polygon fill="#FBD301" stroke="#000000" stroke-width="0.1" stroke-miterlimit="10" points="65.6,307.3 149.2,329.6 161,257.7 		
			"/>
		<polygon fill="#FDD100" stroke="#000000" stroke-width="0.1" stroke-miterlimit="10" points="0.2,137.4 161,257.7 183.2,113.9 		
			"/>
		<polygon fill="#FF8107" stroke="#000000" stroke-width="0.1" stroke-miterlimit="10" points="141.4,371.4 130.9,442 187.1,368.8 
					"/>
		<polygon fill="#F78500" stroke="#000000" stroke-width="0.1" stroke-miterlimit="10" points="149.2,329.6 141.4,371.4 
			187.1,368.8 		"/>
		<polygon fill="#FEE147" stroke="#000000" stroke-width="0.1" stroke-miterlimit="10" points="0.2,137.4 183.2,113.9 195,4.1 		"/>
		<polygon fill="#F98700" stroke="#000000" stroke-width="0.1" stroke-miterlimit="10" points="161,257.7 149.2,329.6 222.4,321.7 
					"/>
		<polygon fill="#F88A00" stroke="#000000" stroke-width="0.1" stroke-miterlimit="10" points="149.2,329.6 187.1,368.8 
			222.4,321.7 		"/>
		<polygon fill="#F21E2A" stroke="#000000" stroke-width="0.1" stroke-miterlimit="10" points="187.1,368.8 130.9,442 259,431.5 		
			"/>
		<polygon fill="#136229" stroke="#000000" stroke-width="0.1" stroke-miterlimit="10" points="259,431.5 130.9,442 266.9,551.8 		
			"/>
		<polygon fill="#E41E35" stroke="#000000" stroke-width="0.1" stroke-miterlimit="10" points="222.4,321.7 187.1,368.8 276,345.3 
					"/>
		<polygon fill="#EC1C34" stroke="#000000" stroke-width="0.1" stroke-miterlimit="10" points="187.1,368.8 259,431.5 276,345.3 		
			"/>
		<polygon fill="#88AB29" stroke="#000000" stroke-width="0.1" stroke-miterlimit="10" points="195,4.1 183.2,113.9 277.3,85.1 		
			"/>
		<polygon fill="#F88A01" stroke="#000000" stroke-width="0.1" stroke-miterlimit="10" points="161,257.7 222.4,321.7 298.2,231.5 
					"/>
		<polygon fill="#F88A00" stroke="#000000" stroke-width="0.1" stroke-miterlimit="10" points="183.2,113.9 161,257.7 298.2,231.5 
					"/>
		<polygon fill="#DD1829" stroke="#000000" stroke-width="0.1" stroke-miterlimit="10" points="222.4,321.7 276,345.3 298.2,231.5 
					"/>
		<polygon fill="#0CA742" stroke="#000000" stroke-width="0.1" stroke-miterlimit="10" points="195,4.1 277.3,85.1 315.2,38.1 		"/>
		<polygon fill="#90AF26" stroke="#000000" stroke-width="0.1" stroke-miterlimit="10" points="277.3,85.1 183.2,113.9 323.1,140 		
			"/>
		<polygon fill="#C4C658" stroke="#000000" stroke-width="0.1" stroke-miterlimit="10" points="183.2,113.9 298.2,231.5 323.1,140 
					"/>
		<polygon fill="#0D7C38" stroke="#000000" stroke-width="0.1" stroke-miterlimit="10" points="259,431.5 266.9,551.8 336.1,521.7 
					"/>
		<polygon fill="#096326" stroke="#000000" stroke-width="0.1" stroke-miterlimit="10" points="298.2,231.5 276,345.3 337.5,337.4 
					"/>
		<polygon fill="#01ADB1" stroke="#000000" stroke-width="0.1" stroke-miterlimit="10" points="323.1,140 298.2,231.5 350.5,198.9 
					"/>
		<polygon fill="#00568F" stroke="#000000" stroke-width="0.1" stroke-miterlimit="10" points="298.2,231.5 344,242 350.5,198.9 		
			"/>
		<polygon fill="#1C7638" stroke="#000000" stroke-width="0.1" stroke-miterlimit="10" points="259,431.5 336.1,521.7 351.8,453.8 
					"/>
		<polygon fill="#0CB84C" stroke="#000000" stroke-width="0.1" stroke-miterlimit="10" points="315.2,38.1 277.3,85.1 358.4,82.5 		
			"/>
		<polygon fill="#0AC052" stroke="#000000" stroke-width="0.1" stroke-miterlimit="10" points="277.3,85.1 323.1,140 358.4,82.5 		
			"/>
		<polygon fill="#0C7EC7" stroke="#000000" stroke-width="0.1" stroke-miterlimit="10" points="298.2,231.5 337.5,337.4 
			359.7,264.2 		"/>
		<polygon fill="#0184BC" stroke="#000000" stroke-width="0.1" stroke-miterlimit="10" points="344,242 298.2,231.5 359.7,264.2 		
			"/>
		<polygon fill="#77C1DA" stroke="#000000" stroke-width="0.1" stroke-miterlimit="10" points="351.8,453.8 336.1,521.7 
			362.3,512.6 		"/>
		<polygon fill="#1F69C0" stroke="#000000" stroke-width="0.1" stroke-miterlimit="10" points="359.7,264.2 337.5,337.4 
			363.6,330.9 		"/>
		<polygon fill="#1679A0" stroke="#000000" stroke-width="0.1" stroke-miterlimit="10" points="363.6,330.9 337.5,337.4 
			367.5,400.2 		"/>
		<polygon fill="#0D7C38" stroke="#000000" stroke-width="0.1" stroke-miterlimit="10" points="259,431.5 351.8,453.8 367.5,400.2 
					"/>
		<polygon fill="#2E502F" stroke="#000000" stroke-width="0.1" stroke-miterlimit="10" points="276,345.3 259,431.5 367.5,400.2 		
			"/>
		<polygon fill="#125C29" stroke="#000000" stroke-width="0.1" stroke-miterlimit="10" points="337.5,337.4 276,345.3 367.5,400.2 
					"/>
		<polygon fill="#5EAAE4" stroke="#000000" stroke-width="0.1" stroke-miterlimit="10" points="362.3,512.6 336.1,521.7 
			368.8,564.9 		"/>
		<polygon fill="#68A9DF" stroke="#000000" stroke-width="0.1" stroke-miterlimit="10" points="336.1,521.7 320.5,592.3 
			368.8,564.9 		"/>
		<polygon fill="#D3F5FE" stroke="#000000" stroke-width="0.1" stroke-miterlimit="10" points="320.5,592.3 344,609.3 368.8,564.9 
					"/>
		<polygon fill="#36508D" stroke="#000000" stroke-width="0.1" stroke-miterlimit="10" points="350.5,198.9 344,242 374.1,234.1 		
			"/>
		<polygon fill="#45002B" stroke="#000000" stroke-width="0.1" stroke-miterlimit="10" points="344,242 359.7,264.2 374.1,234.1 		
			"/>
		<polygon fill="#9B589D" stroke="#000000" stroke-width="0.1" stroke-miterlimit="10" points="359.7,264.2 363.6,330.9 
			383.2,330.9 		"/>
		<polygon fill="#9C48A6" stroke="#000000" stroke-width="0.1" stroke-miterlimit="10" points="363.6,330.9 367.5,400.2 
			383.2,330.9 		"/>
		<polygon fill="#A8D6ED" stroke="#000000" stroke-width="0.1" stroke-miterlimit="10" points="362.3,512.6 368.8,564.9 
			385.8,529.6 		"/>
		<polygon fill="#67174C" stroke="#000000" stroke-width="0.1" stroke-miterlimit="10" points="374.1,234.1 359.7,264.2 
			387.1,251.1 		"/>
		<polygon fill="#E75D90" stroke="#000000" stroke-width="0.1" stroke-miterlimit="10" points="367.5,400.2 351.8,453.8 
			392.4,439.4 		"/>
		<polygon fill="#B3479C" stroke="#000000" stroke-width="0.1" stroke-miterlimit="10" points="359.7,264.2 383.2,330.9 
			398.9,266.8 		"/>
		<polygon fill="#93499E" stroke="#000000" stroke-width="0.1" stroke-miterlimit="10" points="387.1,251.1 359.7,264.2 
			398.9,266.8 		"/>
		<polygon fill="#A4C5E6" stroke="#000000" stroke-width="0.1" stroke-miterlimit="10" points="362.3,512.6 385.8,529.6 408,481.2 
					"/>
		<polygon fill="#A8CEE5" stroke="#000000" stroke-width="0.1" stroke-miterlimit="10" points="351.8,453.8 362.3,512.6 408,481.2 
					"/>
		<polygon fill="#A0CBDB" stroke="#000000" stroke-width="0.1" stroke-miterlimit="10" points="392.4,439.4 351.8,453.8 408,481.2 
					"/>
		<polygon fill="#0FC74F" stroke="#000000" stroke-width="0.1" stroke-miterlimit="10" points="315.2,38.1 358.4,82.5 418.5,2.8 		
			"/>
		<polygon fill="#D27DB8" stroke="#000000" stroke-width="0.1" stroke-miterlimit="10" points="398.9,266.8 383.2,330.9 
			426.3,370.1 		"/>
		<polygon fill="#AD81B2" stroke="#000000" stroke-width="0.1" stroke-miterlimit="10" points="383.2,330.9 367.5,400.2 
			426.3,370.1 		"/>
		<polygon fill="#F187AD" stroke="#000000" stroke-width="0.1" stroke-miterlimit="10" points="367.5,400.2 392.4,439.4 
			426.3,370.1 		"/>
		<polygon fill="#D0D789" stroke="#000000" stroke-width="0.1" stroke-miterlimit="10" points="418.5,2.8 358.4,82.5 431.6,93 		"/>
		<polygon fill="#5FC4E2" stroke="#000000" stroke-width="0.1" stroke-miterlimit="10" points="323.1,140 350.5,198.9 431.6,93 		
			"/>
		<polygon fill="#C7E17E" stroke="#000000" stroke-width="0.1" stroke-miterlimit="10" points="358.4,82.5 323.1,140 431.6,93 		"/>
		<polygon fill="#FB8AB6" stroke="#000000" stroke-width="0.1" stroke-miterlimit="10" points="392.4,439.4 408,481.2 452.5,410.6 
					"/>
		<polygon fill="#F087B2" stroke="#000000" stroke-width="0.1" stroke-miterlimit="10" points="426.3,370.1 392.4,439.4 
			452.5,410.6 		"/>
		<polygon fill="#B3529F" stroke="#000000" stroke-width="0.1" stroke-miterlimit="10" points="350.5,198.9 374.1,234.1 
			496.9,142.6 		"/>
		<polygon fill="#01B7CD" stroke="#000000" stroke-width="0.1" stroke-miterlimit="10" points="431.6,93 350.5,198.9 496.9,142.6 		
			"/>
		<polygon fill="#AF4F97" stroke="#000000" stroke-width="0.1" stroke-miterlimit="10" points="374.1,234.1 387.1,251.1 
			496.9,142.6 		"/>
		<polygon fill="#964C8B" stroke="#000000" stroke-width="0.1" stroke-miterlimit="10" points="387.1,251.1 398.9,266.8 
			496.9,142.6 		"/>
		<polygon fill="#A7D559" stroke="#000000" stroke-width="0.1" stroke-miterlimit="10" points="418.5,2.8 431.6,93 498.2,2.8 		"/>
		<polygon fill="#FDCB44" stroke="#000000" stroke-width="0.1" stroke-miterlimit="10" points="431.6,93 496.9,142.6 498.2,2.8 		
			"/>
		<polygon fill="#EC8EB2" stroke="#000000" stroke-width="0.1" stroke-miterlimit="10" points="426.3,370.1 452.5,410.6 
			499.5,329.6 		"/>
		<polygon fill="#B37FB0" stroke="#000000" stroke-width="0.1" stroke-miterlimit="10" points="398.9,266.8 426.3,370.1 
			499.5,329.6 		"/>
		<polygon fill="#C48FBD" stroke="#000000" stroke-width="0.1" stroke-miterlimit="10" points="496.9,142.6 398.9,266.8 
			499.5,329.6 		"/>
		<polygon fill="#FECE50" stroke="#000000" stroke-width="0.1" stroke-miterlimit="10" points="498.2,2.8 496.9,142.6 566.2,93 		
			"/>
	</g>
</g>
</svg>
