<?xml version="1.0" encoding="utf-8"?>
<!-- Generator: Adobe Illustrator 24.1.0, SVG Export Plug-In . SVG Version: 6.00 Build 0)  -->
<svg version="1.1" baseProfile="tiny" id="央铋_1"
	 xmlns="http://www.w3.org/2000/svg" xmlns:xlink="http://www.w3.org/1999/xlink" x="0px" y="0px" viewBox="0 0 1000.4 742.7"
	 xml:space="preserve">
<g>
	<g>
		<polygon fill="#95A9FC" stroke="#000000" stroke-width="0.4" stroke-miterlimit="10" points="859.8,488.8 797.8,400.5 
			721.8,427.2 		"/>
		<polygon fill="#707FBD" stroke="#000000" stroke-width="0.4" stroke-miterlimit="10" points="731.8,483.2 859.8,488.8 
			721.8,427.2 		"/>
		<polygon fill="#BC842C" stroke="#000000" stroke-width="0.4" stroke-miterlimit="10" points="731.8,483.2 534.8,296.5 
			685.8,552.5 		"/>
		<polygon fill="#4A557E" stroke="#000000" stroke-width="0.4" stroke-miterlimit="10" points="859.8,574.9 859.8,488.8 
			731.8,483.2 		"/>
		<polygon fill="#FBB03B" stroke="#000000" stroke-width="0.4" stroke-miterlimit="10" points="721.8,427.2 534.8,296.5 
			731.8,483.2 		"/>
		<polygon fill="#95A9FC" stroke="#000000" stroke-width="0.4" stroke-miterlimit="10" points="755.4,621.8 859.8,574.9 
			731.8,483.2 		"/>
		<polygon fill="#95A9FC" stroke="#000000" stroke-width="0.4" stroke-miterlimit="10" points="685.8,552.5 685.8,718.9 
			755.4,621.8 		"/>
		<polygon fill="#4A557E" stroke="#000000" stroke-width="0.4" stroke-miterlimit="10" points="816.8,665.5 859.8,574.9 
			755.4,621.8 		"/>
		<polygon fill="#4A557E" stroke="#000000" stroke-width="0.4" stroke-miterlimit="10" points="685.8,718.9 765.1,708.9 
			755.4,621.8 		"/>
		<polygon fill="#8F3F09" stroke="#000000" stroke-width="0.4" stroke-miterlimit="10" points="820.1,718.9 816.8,665.5 
			755.4,621.8 		"/>
		<polygon fill="#471F05" stroke="#000000" stroke-width="0.4" stroke-miterlimit="10" points="765.1,708.9 820.1,718.9 
			755.4,621.8 		"/>
		<polygon fill="#707FBD" stroke="#000000" stroke-width="0.4" stroke-miterlimit="10" points="615.1,742.5 685.8,718.9 
			633.1,572.2 		"/>
		<polygon fill="#4A557E" stroke="#000000" stroke-width="0.4" stroke-miterlimit="10" points="633.1,572.2 685.8,718.9 
			685.8,552.5 		"/>
		<polygon fill="#95A9FC" stroke="#000000" stroke-width="0.4" stroke-miterlimit="10" points="559.1,685.5 615.1,742.5 
			633.1,572.2 		"/>
		<polygon fill="#FCC062" stroke="#000000" stroke-width="0.4" stroke-miterlimit="10" points="685.8,552.5 534.8,296.5 
			633.1,572.2 		"/>
		<polygon fill="#FBB03B" stroke="#000000" stroke-width="0.4" stroke-miterlimit="10" points="548.4,518.5 534.8,296.5 
			515.8,466.8 		"/>
		<polygon fill="#BC842C" stroke="#000000" stroke-width="0.4" stroke-miterlimit="10" points="633.1,572.2 534.8,296.5 
			548.4,518.9 		"/>
		<polygon fill="#95A9FC" stroke="#000000" stroke-width="0.4" stroke-miterlimit="10" points="548.4,518.5 515.8,466.8 
			515.8,603.5 548.4,518.9 		"/>
		<polygon fill="#707FBD" stroke="#000000" stroke-width="0.4" stroke-miterlimit="10" points="548.4,518.9 559.1,685.5 
			633.1,572.2 		"/>
		<polygon fill="#4A557E" stroke="#000000" stroke-width="0.4" stroke-miterlimit="10" points="515.8,603.5 559.1,685.5 
			548.4,518.9 		"/>
		<polygon fill="#252B3F" stroke="#000000" stroke-width="0.4" stroke-miterlimit="10" points="534.8,296.5 510.4,266.5 
			515.8,466.8 		"/>
		<polygon fill="#252B3F" stroke="#000000" stroke-width="0.4" stroke-miterlimit="10" points="503.6,529 515.8,603.5 515.8,466.8 
					"/>
		<polygon fill="#471F05" stroke="#000000" stroke-width="0.4" stroke-miterlimit="10" points="510.4,266.5 503.6,529 515.8,466.8 
					"/>
		<path fill="#8F3F09" stroke="#000000" stroke-width="0.4" stroke-miterlimit="10" d="M501,629.7L501,629.7L501,629.7
			c5.3-8.7,9.4-17.9,14.8-26.2L503.6,529C503.3,545.7,501.3,613,501,629.7z"/>
		<polygon fill="#A5653B" stroke="#000000" stroke-width="0.4" stroke-miterlimit="10" points="755.4,621.8 731.8,483.2 
			685.8,552.5 		"/>
	</g>
	<g>
		<polygon fill="#FCC062" stroke="#000000" stroke-width="0.3" stroke-miterlimit="10" points="690.8,64.2 631.1,161.5 740.4,192.5 
					"/>
		<polygon fill="#FBB03B" stroke="#000000" stroke-width="0.3" stroke-miterlimit="10" points="740.4,192.5 534.8,296.5 
			893.1,217.2 		"/>
		<polygon fill="#FCC062" stroke="#000000" stroke-width="0.3" stroke-miterlimit="10" points="893.1,217.2 534.8,296.5 
			775.1,369.2 		"/>
		<polygon fill="#FDCD81" stroke="#000000" stroke-width="0.3" stroke-miterlimit="10" points="631.1,161.5 534.8,296.5 
			740.4,192.5 		"/>
		<polygon fill="#FBB03B" stroke="#000000" stroke-width="0.3" stroke-miterlimit="10" points="797.8,77.5 690.8,64.2 740.4,192.5 
					"/>
		<polygon fill="#FDCD81" stroke="#000000" stroke-width="0.3" stroke-miterlimit="10" points="884.4,326.8 893.1,217.2 
			775.1,369.2 		"/>
		<polygon fill="#95A9FC" stroke="#000000" stroke-width="0.3" stroke-miterlimit="10" points="797.8,77.5 740.4,192.5 805.4,161.5 
					"/>
		<polygon fill="#95A9FC" stroke="#000000" stroke-width="0.3" stroke-miterlimit="10" points="893.1,217.2 876.8,161.5 
			805.4,161.5 		"/>
		<polygon fill="#707FBD" stroke="#000000" stroke-width="0.3" stroke-miterlimit="10" points="914.4,77.5 797.8,77.5 805.4,161.5 
					"/>
		<polygon fill="#8F3F09" stroke="#000000" stroke-width="0.3" stroke-miterlimit="10" points="964.4,0.5 690.8,64.2 797.8,77.5 		
			"/>
		<polygon fill="#4A557E" stroke="#000000" stroke-width="0.3" stroke-miterlimit="10" points="740.4,192.5 893.1,217.2 
			805.4,161.5 		"/>
		<polygon fill="#4A557E" stroke="#000000" stroke-width="0.3" stroke-miterlimit="10" points="805.4,161.5 876.8,161.5 914.4,77.5 
					"/>
		<polygon fill="#471F05" stroke="#000000" stroke-width="0.3" stroke-miterlimit="10" points="775.1,369.2 926.4,359.2 
			884.4,326.8 		"/>
		<polygon fill="#A5653B" stroke="#000000" stroke-width="0.3" stroke-miterlimit="10" points="884.4,326.8 947.1,278.8 
			893.1,217.2 		"/>
		<polygon fill="#8F3F09" stroke="#000000" stroke-width="0.3" stroke-miterlimit="10" points="876.8,161.5 947.1,202.9 
			1000.1,89.9 		"/>
		<polygon fill="#A5653B" stroke="#000000" stroke-width="0.3" stroke-miterlimit="10" points="914.4,77.5 964.4,0.5 797.8,77.5 		
			"/>
		<polygon fill="#6B2F07" stroke="#000000" stroke-width="0.3" stroke-miterlimit="10" points="926.4,359.2 947.1,278.8 
			884.4,326.8 		"/>
		<polygon fill="#8F3F09" stroke="#000000" stroke-width="0.3" stroke-miterlimit="10" points="947.1,278.8 947.1,202.9 
			893.1,217.2 		"/>
		<polygon fill="#6B2F07" stroke="#000000" stroke-width="0.3" stroke-miterlimit="10" points="1000.1,89.9 964.4,0.5 914.4,77.5 		
			"/>
		<polygon fill="#A5653B" stroke="#000000" stroke-width="0.3" stroke-miterlimit="10" points="893.1,217.2 947.1,202.9 
			876.8,161.5 		"/>
		<polygon fill="#A5653B" stroke="#000000" stroke-width="0.3" stroke-miterlimit="10" points="876.8,161.5 1000.1,89.9 914.4,77.5 
					"/>
		<polygon fill="#FBB03B" stroke="#000000" stroke-width="0.3" stroke-miterlimit="10" points="534.8,296.5 797.8,400.5 
			775.1,369.2 		"/>
		<polygon fill="#BC842C" stroke="#000000" stroke-width="0.3" stroke-miterlimit="10" points="721.8,427.2 797.8,400.5 
			534.8,296.5 		"/>
		<polygon fill="#6B2F07" stroke="#000000" stroke-width="0.3" stroke-miterlimit="10" points="797.8,400.5 926.4,359.2 
			775.1,369.2 		"/>
	</g>
	<g>
		<polygon fill="#95A9FC" stroke="#000000" stroke-width="0.2" stroke-miterlimit="10" points="202.4,400.2 140.4,488.5 
			278.4,427.2 		"/>
		<polygon fill="#707FBD" stroke="#000000" stroke-width="0.2" stroke-miterlimit="10" points="278.4,427.2 140.4,488.5 
			268.4,482.9 		"/>
		<polygon fill="#BC842C" stroke="#000000" stroke-width="0.2" stroke-miterlimit="10" points="314.4,552.2 465.4,296.5 
			268.4,482.9 		"/>
		<polygon fill="#4A557E" stroke="#000000" stroke-width="0.2" stroke-miterlimit="10" points="140.4,488.5 140.4,574.9 
			268.4,482.9 		"/>
		<polygon fill="#95A9FC" stroke="#000000" stroke-width="0.2" stroke-miterlimit="10" points="268.4,482.9 140.4,574.9 
			244.8,621.5 		"/>
		<polygon fill="#95A9FC" stroke="#000000" stroke-width="0.2" stroke-miterlimit="10" points="244.8,621.5 314.4,718.9 
			314.4,552.2 		"/>
		<polygon fill="#4A557E" stroke="#000000" stroke-width="0.2" stroke-miterlimit="10" points="140.4,574.9 183.4,665.2 
			244.8,621.5 		"/>
		<polygon fill="#4A557E" stroke="#000000" stroke-width="0.2" stroke-miterlimit="10" points="235.1,708.9 314.4,718.9 
			244.8,621.5 		"/>
		<polygon fill="#8F3F09" stroke="#000000" stroke-width="0.2" stroke-miterlimit="10" points="183.4,665.2 180.1,718.9 
			244.8,621.5 		"/>
		<polygon fill="#471F05" stroke="#000000" stroke-width="0.2" stroke-miterlimit="10" points="180.1,718.9 235.1,708.9 
			244.8,621.5 		"/>
		<polygon fill="#707FBD" stroke="#000000" stroke-width="0.2" stroke-miterlimit="10" points="314.4,718.9 385.1,742.2 
			367.1,571.8 		"/>
		<polygon fill="#4A557E" stroke="#000000" stroke-width="0.2" stroke-miterlimit="10" points="314.4,552.2 314.4,718.9 
			367.1,571.8 		"/>
		<polygon fill="#95A9FC" stroke="#000000" stroke-width="0.2" stroke-miterlimit="10" points="385.1,742.2 441.1,685.2 
			367.1,571.8 		"/>
		<polygon fill="#FCC062" stroke="#000000" stroke-width="0.2" stroke-miterlimit="10" points="367.1,571.8 465.4,296.5 
			314.4,552.2 		"/>
		<polygon fill="#FBB03B" stroke="#000000" stroke-width="0.2" stroke-miterlimit="10" points="484.7,466.4 465.4,296.5 
			452.1,518.4 		"/>
		<polygon fill="#BC842C" stroke="#000000" stroke-width="0.2" stroke-miterlimit="10" points="451.8,518.5 465.4,296.5 
			367.1,571.8 		"/>
		<polygon fill="#95A9FC" stroke="#000000" stroke-width="0.2" stroke-miterlimit="10" points="452.1,518.5 452.1,518.5 
			484.4,603.2 484.7,466.5 		"/>
		<polygon fill="#707FBD" stroke="#000000" stroke-width="0.2" stroke-miterlimit="10" points="367.1,571.8 441.1,685.2 
			451.8,518.5 		"/>
		<polygon fill="#4A557E" stroke="#000000" stroke-width="0.2" stroke-miterlimit="10" points="441.1,685.2 484.4,603.2 
			451.8,518.5 		"/>
		<polygon fill="#252B3F" stroke="#000000" stroke-width="0.2" stroke-miterlimit="10" points="490,266.2 465.4,296.5 484.7,466.2 
					"/>
		<path fill="#252B3F" stroke="#000000" stroke-width="0.2" stroke-miterlimit="10" d="M484.7,466.4l-0.3,136.8l13.5-71.1
			L484.7,466.4z"/>
		<path fill="#471F05" stroke="#000000" stroke-width="0.2" stroke-miterlimit="10" d="M497.9,532.1L490,266.2l-5.3,200L497.9,532.1
			z"/>
		<path fill="#8F3F09" stroke="#000000" stroke-width="0.2" stroke-miterlimit="10" d="M497.9,532.1l-13.5,71.1l16.6,26.5
			C500,597.3,498.9,564.4,497.9,532.1z"/>
		<polygon fill="#A5653B" stroke="#000000" stroke-width="0.2" stroke-miterlimit="10" points="244.8,621.5 314.4,552.2 
			268.4,482.9 		"/>
		<path fill="#BC842C" stroke="#000000" stroke-width="0.2" stroke-miterlimit="10" d="M510.4,266.5l-20.4-0.3
			c2.3,86.3,10,331.1,11,363.5L510.4,266.5z"/>
	</g>
	<g>
		<polygon fill="#FCC062" stroke="#000000" stroke-width="0.1" stroke-miterlimit="10" points="369.1,161.2 309.8,63.8 259.8,192.5 
					"/>
		<polygon fill="#FBB03B" stroke="#000000" stroke-width="0.1" stroke-miterlimit="10" points="107.1,216.8 465.4,296.5 
			259.8,192.5 		"/>
		<polygon fill="#FCC062" stroke="#000000" stroke-width="0.1" stroke-miterlimit="10" points="225.1,368.8 465.4,296.5 
			107.1,216.8 		"/>
		<polygon fill="#FDCD81" stroke="#000000" stroke-width="0.1" stroke-miterlimit="10" points="465.4,296.5 369.1,161.2 
			259.8,192.5 		"/>
		<polygon fill="#FBB03B" stroke="#000000" stroke-width="0.1" stroke-miterlimit="10" points="259.8,192.5 309.8,63.8 202.4,77.2 
					"/>
		<polygon fill="#FDCD81" stroke="#000000" stroke-width="0.1" stroke-miterlimit="10" points="115.8,326.5 225.1,368.8 
			107.1,216.8 		"/>
		<polygon fill="#95A9FC" stroke="#000000" stroke-width="0.1" stroke-miterlimit="10" points="259.8,192.5 202.4,77.2 194.8,161.2 
					"/>
		<polygon fill="#95A9FC" stroke="#000000" stroke-width="0.1" stroke-miterlimit="10" points="123.4,161.2 107.1,216.8 
			194.8,161.2 		"/>
		<polygon fill="#707FBD" stroke="#000000" stroke-width="0.1" stroke-miterlimit="10" points="202.4,77.2 85.4,77.2 194.8,161.2 		
			"/>
		<polygon fill="#8F3F09" stroke="#000000" stroke-width="0.1" stroke-miterlimit="10" points="309.8,63.8 35.8,0.2 202.4,77.2 		
			"/>
		<polygon fill="#4A557E" stroke="#000000" stroke-width="0.1" stroke-miterlimit="10" points="194.8,161.2 107.1,216.8 
			259.8,192.5 		"/>
		<polygon fill="#4A557E" stroke="#000000" stroke-width="0.1" stroke-miterlimit="10" points="85.4,77.2 123.4,161.2 194.8,161.2 
					"/>
		<polygon fill="#471F05" stroke="#000000" stroke-width="0.1" stroke-miterlimit="10" points="115.8,326.5 73.8,358.8 225.1,368.8 
					"/>
		<polygon fill="#A5653B" stroke="#000000" stroke-width="0.1" stroke-miterlimit="10" points="107.1,216.8 53.1,278.5 115.8,326.5 
					"/>
		<polygon fill="#8F3F09" stroke="#000000" stroke-width="0.1" stroke-miterlimit="10" points="0.1,89.5 53.1,202.5 123.4,161.2 		
			"/>
		<polygon fill="#A5653B" stroke="#000000" stroke-width="0.1" stroke-miterlimit="10" points="202.4,77.2 35.8,0.2 85.4,77.2 		"/>
		<polygon fill="#6B2F07" stroke="#000000" stroke-width="0.1" stroke-miterlimit="10" points="53.1,278.5 73.8,358.8 115.8,326.5 
					"/>
		<polygon fill="#8F3F09" stroke="#000000" stroke-width="0.1" stroke-miterlimit="10" points="53.1,202.5 53.1,278.5 107.1,216.8 
					"/>
		<polygon fill="#6B2F07" stroke="#000000" stroke-width="0.1" stroke-miterlimit="10" points="35.8,0.2 0.1,89.5 85.4,77.2 		"/>
		<polygon fill="#A5653B" stroke="#000000" stroke-width="0.1" stroke-miterlimit="10" points="123.4,161.2 53.1,202.5 107.1,216.8 
					"/>
		<polygon fill="#A5653B" stroke="#000000" stroke-width="0.1" stroke-miterlimit="10" points="85.4,77.2 0.1,89.5 123.4,161.2 		
			"/>
		<polygon fill="#FBB03B" stroke="#000000" stroke-width="0.1" stroke-miterlimit="10" points="225.1,368.8 202.4,400.2 
			465.4,296.5 		"/>
		<polygon fill="#BC842C" stroke="#000000" stroke-width="0.1" stroke-miterlimit="10" points="465.4,296.5 202.4,400.2 
			278.4,427.2 		"/>
		<polygon fill="#FBB03B" stroke="#000000" stroke-width="0.1" stroke-miterlimit="10" points="268.4,482.9 465.4,296.5 
			278.4,427.2 		"/>
		<polygon fill="#6B2F07" stroke="#000000" stroke-width="0.1" stroke-miterlimit="10" points="73.8,358.8 202.4,400.2 225.1,368.8 
					"/>
	</g>
</g>
</svg>
