<?xml version="1.0" encoding="utf-8"?>
<!-- Generator: Adobe Illustrator 24.1.0, SVG Export Plug-In . SVG Version: 6.00 Build 0)  -->
<svg version="1.1" baseProfile="tiny" id="图层_2_1_"
	 xmlns="http://www.w3.org/2000/svg" xmlns:xlink="http://www.w3.org/1999/xlink" x="0px" y="0px" viewBox="0 0 1000.7 884.5"
	 xml:space="preserve">
<g>
	<g>
		<polygon fill="#B0AFB7" stroke="#000000" stroke-width="0.3" stroke-miterlimit="10" points="1000.1,518.9 989.4,487.5 
			935.1,518.2 		"/>
		<polygon fill="#020205" stroke="#000000" stroke-width="0.3" stroke-miterlimit="10" points="942.8,550.5 982.8,547.8 
			1000.1,518.9 		"/>
		<polygon fill="#221813" stroke="#000000" stroke-width="0.3" stroke-miterlimit="10" points="942.8,550.5 1000.1,518.9 
			935.1,518.2 		"/>
		<polygon fill="#9C815A" stroke="#000000" stroke-width="0.3" stroke-miterlimit="10" points="935.1,518.2 989.4,487.5 
			888.1,488.2 		"/>
		<polygon fill="#563C34" stroke="#000000" stroke-width="0.3" stroke-miterlimit="10" points="888.1,488.2 989.4,487.5 
			888.1,460.2 		"/>
		<polygon fill="#655652" stroke="#000000" stroke-width="0.3" stroke-miterlimit="10" points="989.4,487.5 911.8,443.5 
			888.1,460.2 		"/>
		<polygon fill="#330600" stroke="#000000" stroke-width="0.3" stroke-miterlimit="10" points="935.1,605.2 982.8,547.8 
			942.8,550.5 		"/>
		<polygon fill="#FEC3D1" stroke="#000000" stroke-width="0.3" stroke-miterlimit="10" points="945.4,708.2 932.8,651.5 
			888.8,689.2 		"/>
		<polygon fill="#DD513D" stroke="#000000" stroke-width="0.3" stroke-miterlimit="10" points="935.1,726.8 945.4,708.2 
			888.8,689.2 		"/>
		<polygon fill="#C68E53" stroke="#000000" stroke-width="0.3" stroke-miterlimit="10" points="942.6,550.6 863.4,586.9 
			935.1,605.2 		"/>
		<polygon fill="#CF8760" stroke="#000000" stroke-width="0.3" stroke-miterlimit="10" points="863.4,558.2 863.4,586.9 
			942.6,550.4 		"/>
		<polygon fill="#BF7A3D" stroke="#000000" stroke-width="0.3" stroke-miterlimit="10" points="863.4,558.2 942.8,550.5 
			829.4,518.9 		"/>
		<polygon fill="#1C0100" stroke="#000000" stroke-width="0.3" stroke-miterlimit="10" points="942.6,550.4 935.1,518.2 
			829.4,518.9 		"/>
		<polygon fill="#772509" stroke="#000000" stroke-width="0.3" stroke-miterlimit="10" points="935.1,518.2 888.1,488.2 
			829.4,518.9 		"/>
		<polygon fill="#311304" stroke="#000000" stroke-width="0.3" stroke-miterlimit="10" points="909.8,621.9 935.1,605.2 
			863.4,586.9 		"/>
		<polygon fill="#E99FA1" stroke="#000000" stroke-width="0.3" stroke-miterlimit="10" points="932.8,651.5 909.8,621.9 
			888.1,659.8 		"/>
		<polygon fill="#F5C2CF" stroke="#000000" stroke-width="0.3" stroke-miterlimit="10" points="888.8,689.2 932.8,651.5 
			888.1,659.8 		"/>
		<polygon fill="#291712" stroke="#000000" stroke-width="0.3" stroke-miterlimit="10" points="888.1,460.2 911.8,443.5 
			776.1,420.2 		"/>
		<polygon fill="#A28E80" stroke="#000000" stroke-width="0.3" stroke-miterlimit="10" points="911.8,443.5 750.1,378.2 
			776.1,420.2 		"/>
		<polygon fill="#8E353B" stroke="#000000" stroke-width="0.3" stroke-miterlimit="10" points="888.1,659.8 909.8,621.9 
			864.1,633.2 		"/>
		<polygon fill="#CA896D" stroke="#000000" stroke-width="0.3" stroke-miterlimit="10" points="864.1,633.2 909.8,621.9 
			863.4,586.9 		"/>
		<polygon fill="#FFD3D3" stroke="#000000" stroke-width="0.3" stroke-miterlimit="10" points="838.4,689.2 863.4,689.2 
			888.8,689.2 888.1,659.8 		"/>
		<polygon fill="#D28444" stroke="#000000" stroke-width="0.3" stroke-miterlimit="10" points="888.1,488.2 888.1,460.2 
			759.1,494.5 		"/>
		<polygon fill="#BB6D76" stroke="#000000" stroke-width="0.3" stroke-miterlimit="10" points="888.1,659.8 864.1,633.2 
			799.8,652.5 		"/>
		<polygon fill="#CF7F37" stroke="#000000" stroke-width="0.3" stroke-miterlimit="10" points="888.1,460.2 776.1,420.2 
			759.1,494.5 		"/>
		<polygon fill="#993500" stroke="#000000" stroke-width="0.3" stroke-miterlimit="10" points="694.1,590.5 829.4,518.9 
			888.1,488.2 759.1,494.5 		"/>
		<polygon fill="#F29396" stroke="#000000" stroke-width="0.3" stroke-miterlimit="10" points="818.8,668.9 838.4,689.2 
			888.1,659.8 799.8,652.5 		"/>
		<polygon fill="#7B2501" stroke="#000000" stroke-width="0.3" stroke-miterlimit="10" points="864.1,633.2 863.4,586.9 
			791.1,633.2 		"/>
		<polygon fill="#671D1A" stroke="#000000" stroke-width="0.3" stroke-miterlimit="10" points="799.8,652.5 864.1,633.2 
			791.1,633.2 		"/>
		<polygon fill="#964F1F" stroke="#000000" stroke-width="0.3" stroke-miterlimit="10" points="804.1,572.5 863.4,586.9 
			863.4,558.2 		"/>
		<polygon fill="#1C0502" stroke="#000000" stroke-width="0.3" stroke-miterlimit="10" points="804.1,572.5 863.4,558.2 
			829.4,518.9 		"/>
		<polygon fill="#815543" stroke="#000000" stroke-width="0.3" stroke-miterlimit="10" points="844.4,726.8 863.4,689.2 
			838.4,689.2 		"/>
		<polygon fill="#2B0C05" stroke="#000000" stroke-width="0.3" stroke-miterlimit="10" points="791.1,633.2 863.4,586.9 
			804.1,572.5 		"/>
		<polygon fill="#201212" stroke="#000000" stroke-width="0.3" stroke-miterlimit="10" points="811.1,747.9 844.4,726.8 
			838.4,689.2 		"/>
		<polygon fill="#170304" stroke="#000000" stroke-width="0.3" stroke-miterlimit="10" points="753.4,678.9 838.4,689.2 
			818.8,668.9 		"/>
		<polygon fill="#8C7251" stroke="#000000" stroke-width="0.3" stroke-miterlimit="10" points="753.4,678.9 811.1,747.9 
			838.4,689.2 		"/>
		<polygon fill="#C5723B" stroke="#000000" stroke-width="0.3" stroke-miterlimit="10" points="694.1,590.5 804.1,572.5 
			829.4,518.9 		"/>
		<polygon fill="#895C38" stroke="#000000" stroke-width="0.3" stroke-miterlimit="10" points="799.8,652.5 753.4,678.9 
			758.8,677.9 818.8,668.9 		"/>
		<polygon fill="#080000" stroke="#000000" stroke-width="0.3" stroke-miterlimit="10" points="739.4,747.9 777.4,747.9 
			811.1,747.9 753.4,678.9 		"/>
		<polygon fill="#F9A95D" stroke="#000000" stroke-width="0.3" stroke-miterlimit="10" points="791.1,633.2 804.1,572.5 
			694.1,590.5 		"/>
		<polygon fill="#65170B" stroke="#000000" stroke-width="0.3" stroke-miterlimit="10" points="799.8,652.5 791.1,633.2 
			764.1,642.2 		"/>
		<polygon fill="#381312" stroke="#000000" stroke-width="0.3" stroke-miterlimit="10" points="764.1,642.2 753.4,678.9 
			799.8,652.5 		"/>
		<polygon fill="#721D16" stroke="#000000" stroke-width="0.3" stroke-miterlimit="10" points="764.1,642.2 791.1,633.2 
			694.1,590.5 		"/>
		<polygon fill="#2B2B25" stroke="#000000" stroke-width="0.3" stroke-miterlimit="10" points="776.1,420.2 750.1,378.2 
			689.8,376.2 		"/>
		<polygon fill="#0D0000" stroke="#000000" stroke-width="0.3" stroke-miterlimit="10" points="759.1,494.5 776.1,420.2 
			628.8,474.5 		"/>
		<polygon fill="#3F333B" stroke="#000000" stroke-width="0.3" stroke-miterlimit="10" points="776.1,420.2 689.8,376.2 
			628.8,474.5 		"/>
		<polygon fill="#5F2E2E" stroke="#000000" stroke-width="0.3" stroke-miterlimit="10" points="696.1,678.9 753.4,678.9 
			764.1,642.2 		"/>
		<polygon fill="#150B0C" stroke="#000000" stroke-width="0.3" stroke-miterlimit="10" points="600.8,599.2 696.1,678.9 
			764.1,642.2 		"/>
		<polygon fill="#947B5D" stroke="#000000" stroke-width="0.3" stroke-miterlimit="10" points="601.2,599.1 764.1,642.2 
			694.1,590.5 		"/>
		<polygon fill="#D36238" stroke="#000000" stroke-width="0.3" stroke-miterlimit="10" points="759.1,494.5 628.8,474.5 
			694.1,590.5 		"/>
		<polygon fill="#1A0A06" stroke="#000000" stroke-width="0.3" stroke-miterlimit="10" points="753.4,678.9 710.1,726.8 
			739.4,747.9 		"/>
		<polygon fill="#44211C" stroke="#000000" stroke-width="0.3" stroke-miterlimit="10" points="753.4,678.9 696.1,678.9 
			710.1,726.8 		"/>
		<polygon fill="#757472" stroke="#000000" stroke-width="0.3" stroke-miterlimit="10" points="696.1,334.8 750.1,378.2 
			680.1,274.2 		"/>
		<polygon fill="#AAA298" stroke="#000000" stroke-width="0.3" stroke-miterlimit="10" points="689.8,376.2 750.1,378.2 
			696.1,334.8 		"/>
		<polygon fill="#221A1B" stroke="#000000" stroke-width="0.3" stroke-miterlimit="10" points="689.8,376.2 696.1,334.8 
			667.4,361.5 		"/>
	</g>
	<g>
		<polygon fill="#430000" stroke="#000000" stroke-width="0.2" stroke-miterlimit="10" points="587.4,642.2 710.1,726.8 
			696.1,678.9 		"/>
		<polygon fill="#801703" stroke="#000000" stroke-width="0.2" stroke-miterlimit="10" points="432.1,611.5 558.8,659.8 
			710.1,726.8 587.4,642.2 		"/>
		<polygon fill="#C87639" stroke="#000000" stroke-width="0.2" stroke-miterlimit="10" points="592.4,216.5 655.8,277.8 
			680.1,274.2 		"/>
		<polygon fill="#C87639" stroke="#000000" stroke-width="0.2" stroke-miterlimit="10" points="680.1,274.2 655.8,277.8 
			696.1,334.8 		"/>
		<polygon fill="#AF391A" stroke="#000000" stroke-width="0.2" stroke-miterlimit="10" points="696.1,334.8 655.8,277.8 
			655.8,312.5 		"/>
		<polygon fill="#746A6E" stroke="#000000" stroke-width="0.2" stroke-miterlimit="10" points="655.4,277.8 655.8,277.8 
			592.4,216.5 556.1,222.2 		"/>
		<polygon fill="#060404" stroke="#000000" stroke-width="0.2" stroke-miterlimit="10" points="655.8,334.8 659.4,343.2 
			667.4,361.5 696.1,334.8 655.8,312.5 		"/>
		<polygon fill="#A5989C" stroke="#000000" stroke-width="0.2" stroke-miterlimit="10" points="600.8,599.2 587.4,642.2 
			696.1,678.9 		"/>
		<polygon fill="#FEB87F" stroke="#000000" stroke-width="0.2" stroke-miterlimit="10" points="694.1,590.5 628.8,474.5 
			621.8,569.5 		"/>
		<polygon fill="#784B24" stroke="#000000" stroke-width="0.2" stroke-miterlimit="10" points="621.8,569.5 600.8,599.2 
			694.1,590.5 		"/>
		<polygon fill="#221D16" stroke="#000000" stroke-width="0.2" stroke-miterlimit="10" points="641.8,385.8 628.8,474.5 
			689.8,376.2 		"/>
		<polygon fill="#1B0515" stroke="#000000" stroke-width="0.2" stroke-miterlimit="10" points="666.5,380.9 689.8,376.2 
			667.4,361.5 		"/>
		<polygon fill="#352511" stroke="#000000" stroke-width="0.2" stroke-miterlimit="10" points="641.8,385.8 666.5,380.9 
			667.4,361.5 		"/>
		<polygon fill="#AAA2A8" stroke="#000000" stroke-width="0.2" stroke-miterlimit="10" points="659.4,343.2 655.8,334.8 
			621.8,355.5 		"/>
		<polygon fill="#0D090A" stroke="#000000" stroke-width="0.2" stroke-miterlimit="10" points="655.8,312.5 553.1,344.5 
			655.8,334.8 		"/>
		<polygon fill="#140C0B" stroke="#000000" stroke-width="0.2" stroke-miterlimit="10" points="655.8,312.5 655.8,277.8 
			587.4,271.9 		"/>
		<polygon fill="#291715" stroke="#000000" stroke-width="0.2" stroke-miterlimit="10" points="655.8,312.5 450.4,293.5 
			553.1,344.5 		"/>
		<polygon fill="#7F7579" stroke="#000000" stroke-width="0.2" stroke-miterlimit="10" points="587.4,271.9 450.4,293.5 
			655.8,312.5 		"/>
		<polygon fill="#0B0405" stroke="#000000" stroke-width="0.2" stroke-miterlimit="10" points="621.8,355.5 655.8,334.8 
			553.1,344.5 600.8,368.5 		"/>
		<polygon fill="#141011" stroke="#000000" stroke-width="0.2" stroke-miterlimit="10" points="655.4,277.8 556.1,222.2 
			587.4,271.9 		"/>
		<polygon fill="#FDAD53" stroke="#000000" stroke-width="0.2" stroke-miterlimit="10" points="660.5,368.1 659.4,343.2 
			621.8,355.5 		"/>
		<polygon fill="#534548" stroke="#000000" stroke-width="0.2" stroke-miterlimit="10" points="641.8,385.8 545.8,448.2 
			628.8,474.5 		"/>
		<polygon fill="#050000" stroke="#000000" stroke-width="0.2" stroke-miterlimit="10" points="545.8,404.2 545.8,448.2 
			641.8,385.8 		"/>
		<polygon fill="#292219" stroke="#000000" stroke-width="0.2" stroke-miterlimit="10" points="600.8,368.5 553.1,344.5 
			545.8,404.2 641.8,385.8 		"/>
		<polygon fill="#221D16" stroke="#000000" stroke-width="0.2" stroke-miterlimit="10" points="600.8,368.5 641.8,385.8 
			660.5,368.1 		"/>
		<polygon fill="#C06830" stroke="#000000" stroke-width="0.2" stroke-miterlimit="10" points="621.8,569.5 628.8,474.5 
			579.8,569.5 		"/>
		<polygon fill="#B2531E" stroke="#000000" stroke-width="0.2" stroke-miterlimit="10" points="628.8,474.5 450.4,518.2 
			579.8,569.5 		"/>
		<polygon fill="#020000" stroke="#000000" stroke-width="0.2" stroke-miterlimit="10" points="545.8,448.2 450.4,518.2 
			628.8,474.5 		"/>
		<polygon fill="#280700" stroke="#000000" stroke-width="0.2" stroke-miterlimit="10" points="600.8,599.2 621.8,569.5 
			579.8,569.5 		"/>
		<polygon fill="#0C0300" stroke="#000000" stroke-width="0.2" stroke-miterlimit="10" points="579.8,569.5 556.1,586.9 
			600.8,599.2 		"/>
		<polygon fill="#332520" stroke="#000000" stroke-width="0.2" stroke-miterlimit="10" points="556.1,586.9 587.4,642.2 
			600.8,599.2 		"/>
		<polygon fill="#323136" stroke="#000000" stroke-width="0.2" stroke-miterlimit="10" points="592.4,216.5 510.4,189.2 
			556.1,222.2 		"/>
		<polygon fill="#1E1E24" stroke="#000000" stroke-width="0.2" stroke-miterlimit="10" points="556.1,222.2 447.4,225.5 
			587.4,271.9 		"/>
		<polygon fill="#852205" stroke="#000000" stroke-width="0.2" stroke-miterlimit="10" points="432.1,611.5 587.4,642.2 
			556.1,586.9 		"/>
		<polygon fill="#928C89" stroke="#000000" stroke-width="0.2" stroke-miterlimit="10" points="447.4,225.5 450.4,293.5 
			587.4,271.9 		"/>
		<polygon fill="#C15F20" stroke="#000000" stroke-width="0.2" stroke-miterlimit="10" points="516.1,569.5 556.1,586.9 
			579.8,569.5 		"/>
		<polygon fill="#D48037" stroke="#000000" stroke-width="0.2" stroke-miterlimit="10" points="450.4,518.2 516.1,569.5 
			579.8,569.5 		"/>
		<polygon fill="#0F0401" stroke="#000000" stroke-width="0.2" stroke-miterlimit="10" points="500.1,684.8 558.8,659.8 
			477.1,670.2 		"/>
		<polygon fill="#260802" stroke="#000000" stroke-width="0.2" stroke-miterlimit="10" points="432.1,611.5 476.1,668.9 
			477.1,670.2 558.8,659.8 		"/>
		<polygon fill="#080608" stroke="#000000" stroke-width="0.2" stroke-miterlimit="10" points="458.1,197.5 447.4,225.5 
			556.1,222.2 		"/>
		<polygon fill="#665D69" stroke="#000000" stroke-width="0.2" stroke-miterlimit="10" points="556.1,222.2 510.4,189.2 
			458.1,197.5 		"/>
		<polygon fill="#A23602" stroke="#000000" stroke-width="0.2" stroke-miterlimit="10" points="516.1,569.5 432.1,611.5 
			556.1,586.9 		"/>
		<polygon fill="#211F1E" stroke="#000000" stroke-width="0.2" stroke-miterlimit="10" points="553.1,344.5 450.4,293.5 
			545.8,404.2 		"/>
		<polygon fill="#C2581D" stroke="#000000" stroke-width="0.2" stroke-miterlimit="10" points="472.8,417.5 501.8,471.7 
			545.8,448.2 		"/>
		<polygon fill="#C2581D" stroke="#000000" stroke-width="0.2" stroke-miterlimit="10" points="501.8,471.7 472.8,417.5 
			447.4,500.8 		"/>
		<polygon fill="#C2581D" stroke="#000000" stroke-width="0.2" stroke-miterlimit="10" points="472.8,417.5 442.4,437.2 
			447.4,500.8 		"/>
		<polygon fill="#C2581D" stroke="#000000" stroke-width="0.2" stroke-miterlimit="10" points="545.8,404.2 472.8,417.5 
			545.8,448.2 		"/>
		<polygon fill="#6C595B" stroke="#000000" stroke-width="0.2" stroke-miterlimit="10" points="450.4,293.5 472.8,417.5 
			545.8,404.2 		"/>
		<polygon fill="#4A3E27" stroke="#000000" stroke-width="0.2" stroke-miterlimit="10" points="447.4,500.8 450.4,518.2 
			545.8,448.2 		"/>
		<polygon fill="#2E0903" stroke="#000000" stroke-width="0.2" stroke-miterlimit="10" points="450.4,553.9 432.1,611.5 
			516.1,569.5 		"/>
		<polygon fill="#711700" stroke="#000000" stroke-width="0.2" stroke-miterlimit="10" points="450.4,553.9 516.1,569.5 
			450.4,518.2 		"/>
		<polygon fill="#060405" stroke="#000000" stroke-width="0.2" stroke-miterlimit="10" points="510.4,189.2 489.8,174.5 
			458.1,197.5 		"/>
		<polygon fill="#110401" stroke="#000000" stroke-width="0.2" stroke-miterlimit="10" points="479.1,714.5 500.1,684.8 
			477.1,670.2 		"/>
		<polygon fill="#DAC9AE" stroke="#000000" stroke-width="0.2" stroke-miterlimit="10" points="489.8,174.5 479.1,145.2 
			458.1,197.5 		"/>
		<polygon fill="#030303" stroke="#000000" stroke-width="0.2" stroke-miterlimit="10" points="456.8,195.8 458.1,197.5 
			479.1,145.2 426.8,152.2 		"/>
		<polygon fill="#110000" stroke="#000000" stroke-width="0.2" stroke-miterlimit="10" points="477.1,670.2 449.8,720.8 
			479.1,714.5 		"/>
		<polygon fill="#050304" stroke="#000000" stroke-width="0.2" stroke-miterlimit="10" points="426.8,152.2 479.1,145.2 426.8,18.9 
			426.8,92.5 		"/>
		<polygon fill="#231B1C" stroke="#000000" stroke-width="0.2" stroke-miterlimit="10" points="450.4,293.5 393.1,377.2 
			472.8,417.5 		"/>
		<polygon fill="#2B201E" stroke="#000000" stroke-width="0.2" stroke-miterlimit="10" points="472.8,417.5 393.1,377.2 
			442.4,437.2 		"/>
		<polygon fill="#0B0A09" stroke="#000000" stroke-width="0.2" stroke-miterlimit="10" points="458.1,197.5 399.4,222.2 
			447.4,225.5 		"/>
		<polygon fill="#675B59" stroke="#000000" stroke-width="0.2" stroke-miterlimit="10" points="458.1,197.5 426.8,152.2 
			399.4,222.2 		"/>
		<polygon fill="#060606" stroke="#000000" stroke-width="0.2" stroke-miterlimit="10" points="431.8,261.9 447.4,225.5 
			399.4,222.2 		"/>
		<polygon fill="#765045" stroke="#000000" stroke-width="0.2" stroke-miterlimit="10" points="432.1,295.2 431.8,261.9 
			393.1,306.9 		"/>
		<polygon fill="#704937" stroke="#000000" stroke-width="0.2" stroke-miterlimit="10" points="372.1,225.5 393.1,306.9 
			431.8,261.9 		"/>
		<polygon fill="#5F1200" stroke="#000000" stroke-width="0.2" stroke-miterlimit="10" points="372.1,225.5 431.8,261.9 
			399.4,222.2 		"/>
		<polygon fill="#C65913" stroke="#000000" stroke-width="0.2" stroke-miterlimit="10" points="426.8,92.5 341.8,222.2 426.8,152.2 
					"/>
		<polygon fill="#6E3F2B" stroke="#000000" stroke-width="0.2" stroke-miterlimit="10" points="426.8,18.9 372.1,49.2 426.8,92.5 		
			"/>
		<polygon fill="#130E05" stroke="#000000" stroke-width="0.2" stroke-miterlimit="10" points="409.8,0.2 372.1,49.2 426.8,18.9 		
			"/>
		<polygon fill="#AA5931" stroke="#000000" stroke-width="0.2" stroke-miterlimit="10" points="426.8,92.5 372.1,49.2 341.8,222.2 
					"/>
		<polygon fill="#BD4702" stroke="#000000" stroke-width="0.2" stroke-miterlimit="10" points="399.4,222.2 426.8,152.2 
			341.8,222.2 372.1,225.5 		"/>
		<polygon fill="#18120F" stroke="#000000" stroke-width="0.2" stroke-miterlimit="10" points="336.1,343.2 393.1,377.2 
			393.1,306.9 		"/>
		<polygon fill="#0F0A0A" stroke="#000000" stroke-width="0.2" stroke-miterlimit="10" points="366.4,295.2 393.1,306.9 
			372.1,225.5 		"/>
		<polygon fill="#040203" stroke="#000000" stroke-width="0.2" stroke-miterlimit="10" points="366.4,295.2 336.1,343.2 
			393.1,306.9 		"/>
		<polygon fill="#D9917B" stroke="#000000" stroke-width="0.2" stroke-miterlimit="10" points="372.1,49.2 290.1,155.5 341.8,222.2 
					"/>
		<polygon fill="#43271B" stroke="#000000" stroke-width="0.2" stroke-miterlimit="10" points="336.1,261.2 366.4,295.2 
			372.1,225.5 		"/>
		<polygon fill="#100906" stroke="#000000" stroke-width="0.2" stroke-miterlimit="10" points="341.8,222.2 336.1,261.2 
			372.1,225.5 		"/>
		<polygon fill="#DBA161" stroke="#000000" stroke-width="0.2" stroke-miterlimit="10" points="336.1,261.2 336.1,343.2 
			366.4,295.2 		"/>
		<polygon fill="#DD8E5A" stroke="#000000" stroke-width="0.2" stroke-miterlimit="10" points="336.1,261.2 341.8,222.2 
			290.1,155.5 		"/>
		<polygon fill="#B99B90" stroke="#000000" stroke-width="0.2" stroke-miterlimit="10" points="258.4,243.9 336.1,343.2 
			336.1,261.2 		"/>
		<polygon fill="#88311B" stroke="#000000" stroke-width="0.2" stroke-miterlimit="10" points="290.1,155.5 258.4,243.9 
			336.1,261.2 		"/>
	</g>
	<g>
		<polygon fill="#360300" stroke="#000000" stroke-width="0.1" stroke-miterlimit="10" points="477.1,670.3 432.1,611.5 
			336.1,733.9 		"/>
		<polygon fill="#771B05" stroke="#000000" stroke-width="0.1" stroke-miterlimit="10" points="336.1,733.9 449.8,720.8 
			477.1,670.2 		"/>
		<polygon fill="#090908" stroke="#000000" stroke-width="0.1" stroke-miterlimit="10" points="450.4,518.2 305.4,595.8 
			450.4,553.9 		"/>
		<polygon fill="#140C0A" stroke="#000000" stroke-width="0.1" stroke-miterlimit="10" points="447.4,500.8 442.4,437.2 
			305.4,595.8 450.4,518.2 		"/>
		<polygon fill="#0C0504" stroke="#000000" stroke-width="0.1" stroke-miterlimit="10" points="305.4,595.8 432.1,611.5 
			450.4,553.9 		"/>
		<polygon fill="#360300" stroke="#000000" stroke-width="0.1" stroke-miterlimit="10" points="418.1,733.2 449.8,720.8 
			336.1,733.9 		"/>
		<polygon fill="#0A0504" stroke="#000000" stroke-width="0.1" stroke-miterlimit="10" points="442.4,437.2 393.1,377.2 
			305.4,595.8 		"/>
		<polygon fill="#000200" stroke="#000000" stroke-width="0.1" stroke-miterlimit="10" points="336.1,733.9 432.1,611.5 
			305.4,595.8 		"/>
		<polygon fill="#0B0909" stroke="#000000" stroke-width="0.1" stroke-miterlimit="10" points="393.1,796.2 418.1,733.2 
			336.1,733.9 		"/>
		<polygon fill="#050203" stroke="#000000" stroke-width="0.1" stroke-miterlimit="10" points="297.4,840.5 297.1,839.5 
			197.4,884.5 411.8,862.5 393.1,796.2 297.8,839.2 		"/>
		<polygon fill="#020000" stroke="#000000" stroke-width="0.1" stroke-miterlimit="10" points="393.1,377.2 188.4,502.8 
			305.4,595.8 		"/>
		<polygon fill="#19130B" stroke="#000000" stroke-width="0.1" stroke-miterlimit="10" points="297.8,839.2 393.1,796.2 
			336.1,733.9 		"/>
		<polygon fill="#030402" stroke="#000000" stroke-width="0.1" stroke-miterlimit="10" points="241.1,672.8 336.1,733.9 
			305.4,595.8 		"/>
		<polygon fill="#25221F" stroke="#000000" stroke-width="0.1" stroke-miterlimit="10" points="297.1,839.5 297.8,839.2 
			336.1,733.9 241.1,672.8 		"/>
		<polygon fill="#817865" stroke="#000000" stroke-width="0.1" stroke-miterlimit="10" points="241.1,672.8 197.4,884.5 
			297.1,839.5 		"/>
		<polygon fill="#101414" stroke="#000000" stroke-width="0.1" stroke-miterlimit="10" points="258.4,296.2 128.4,408.5 
			188.4,502.8 		"/>
		<polygon fill="#5D5A53" stroke="#000000" stroke-width="0.1" stroke-miterlimit="10" points="188.4,502.8 0.1,720.8 241.1,672.8 
					"/>
		<polygon fill="#0A070B" stroke="#000000" stroke-width="0.1" stroke-miterlimit="10" points="19.1,846.8 197.4,884.5 241.1,672.8 
					"/>
		<polygon fill="#6F646D" stroke="#000000" stroke-width="0.1" stroke-miterlimit="10" points="0.1,720.8 19.1,846.8 241.1,672.8 		
			"/>
		<polygon fill="#0D0C10" stroke="#000000" stroke-width="0.1" stroke-miterlimit="10" points="128.4,408.5 0.1,539.8 188.4,502.8 
					"/>
		<polygon fill="#0A0B0D" stroke="#000000" stroke-width="0.1" stroke-miterlimit="10" points="0.1,539.8 0.1,720.8 188.4,502.8 		
			"/>
	</g>
</g>
</svg>
