<?xml version="1.0" encoding="utf-8"?>
<!-- Generator: Adobe Illustrator 24.1.0, SVG Export Plug-In . SVG Version: 6.00 Build 0)  -->
<svg version="1.1" baseProfile="tiny" id="图层_1"
	 xmlns="http://www.w3.org/2000/svg" xmlns:xlink="http://www.w3.org/1999/xlink" x="0px" y="0px" viewBox="0 0 1000.3 950.1"
	 xml:space="preserve">
<g>
	<g>
		<polygon fill="#E6AC86" stroke="#000000" stroke-width="0.2" stroke-miterlimit="10" points="26.9,452.5 0.2,537.1 50.5,513.4 		
			"/>
		<polygon fill="#FFC198" stroke="#000000" stroke-width="0.2" stroke-miterlimit="10" points="0.2,537.1 26.9,613.8 50.5,513.4 		
			"/>
		<polygon fill="#936A58" stroke="#000000" stroke-width="0.2" stroke-miterlimit="10" points="26.9,452.5 50.5,513.4 66.2,428.8 		
			"/>
		<polygon fill="#C48F89" stroke="#000000" stroke-width="0.2" stroke-miterlimit="10" points="26.9,452.5 66.2,428.8 82.2,291.1 		
			"/>
		<polygon fill="#BD898B" stroke="#000000" stroke-width="0.2" stroke-miterlimit="10" points="82.2,291.1 66.2,428.8 103.5,349.5 
					"/>
		<polygon fill="#FEB588" stroke="#000000" stroke-width="0.2" stroke-miterlimit="10" points="50.5,513.4 26.9,613.8 105.9,635.1 
					"/>
		<polygon fill="#FDBE92" stroke="#000000" stroke-width="0.2" stroke-miterlimit="10" points="26.9,613.8 60.9,706.4 105.9,635.1 
					"/>
		<polygon fill="#AA6C57" stroke="#000000" stroke-width="0.2" stroke-miterlimit="10" points="103.5,349.5 66.2,428.8 124.5,460.5 
					"/>
		<polygon fill="#F9B286" stroke="#000000" stroke-width="0.2" stroke-miterlimit="10" points="66.2,428.8 50.5,513.4 124.5,460.5 
					"/>
		<polygon fill="#FDC393" stroke="#000000" stroke-width="0.2" stroke-miterlimit="10" points="60.9,706.4 100.5,817.4 129.9,732.8 
					"/>
		<polygon fill="#FDBD8D" stroke="#000000" stroke-width="0.2" stroke-miterlimit="10" points="105.9,635.1 60.9,706.4 129.9,732.8 
					"/>
		<polygon fill="#B48C8D" stroke="#000000" stroke-width="0.2" stroke-miterlimit="10" points="132.5,238.1 82.2,291.1 169.5,259.5 
					"/>
		<polygon fill="#AC8798" stroke="#000000" stroke-width="0.2" stroke-miterlimit="10" points="166.9,240.8 132.5,238.1 
			169.5,259.5 		"/>
		<polygon fill="#B78989" stroke="#000000" stroke-width="0.2" stroke-miterlimit="10" points="82.2,291.1 103.5,349.5 169.5,259.5 
					"/>
		<polygon fill="#A86957" stroke="#000000" stroke-width="0.2" stroke-miterlimit="10" points="103.5,349.5 124.5,460.5 
			187.9,370.5 		"/>
		<polygon fill="#A76856" stroke="#000000" stroke-width="0.2" stroke-miterlimit="10" points="169.5,259.5 103.5,349.5 
			187.9,370.5 		"/>
		<polygon fill="#FEBE8E" stroke="#000000" stroke-width="0.2" stroke-miterlimit="10" points="105.9,635.1 129.9,732.8 
			193.2,661.4 		"/>
		<polygon fill="#AC6E59" stroke="#000000" stroke-width="0.2" stroke-miterlimit="10" points="187.9,370.5 124.5,460.5 
			198.5,497.5 		"/>
		<polygon fill="#FFB988" stroke="#000000" stroke-width="0.2" stroke-miterlimit="10" points="105.9,635.1 193.2,661.4 
			198.5,497.5 		"/>
		<polygon fill="#FFB588" stroke="#000000" stroke-width="0.2" stroke-miterlimit="10" points="50.5,513.4 105.9,635.1 198.5,497.5 
					"/>
		<polygon fill="#FEB686" stroke="#000000" stroke-width="0.2" stroke-miterlimit="10" points="124.5,460.5 50.5,513.4 198.5,497.5 
					"/>
		<polygon fill="#FFC391" stroke="#000000" stroke-width="0.2" stroke-miterlimit="10" points="129.9,732.8 100.5,817.4 
			225.2,862.4 		"/>
		<polygon fill="#FEBE8E" stroke="#000000" stroke-width="0.2" stroke-miterlimit="10" points="193.2,661.4 129.9,732.8 
			225.2,862.4 		"/>
		<polygon fill="#A5B1EB" stroke="#000000" stroke-width="0.2" stroke-miterlimit="10" points="132.5,238.1 166.9,240.8 
			230.5,193.1 		"/>
		<polygon fill="#6A6890" stroke="#000000" stroke-width="0.2" stroke-miterlimit="10" points="166.9,240.8 169.5,259.5 
			238.2,280.5 		"/>
		<polygon fill="#6E6385" stroke="#000000" stroke-width="0.2" stroke-miterlimit="10" points="230.5,193.1 166.9,240.8 
			238.2,280.5 		"/>
		<polygon fill="#9B6968" stroke="#000000" stroke-width="0.2" stroke-miterlimit="10" points="169.5,259.5 187.9,370.5 
			238.2,280.5 		"/>
		<polygon fill="#FFDEA9" stroke="#000000" stroke-width="0.2" stroke-miterlimit="10" points="193.2,661.4 225.2,862.4 
			264.9,859.8 		"/>
		<polygon fill="#9E6C6D" stroke="#000000" stroke-width="0.2" stroke-miterlimit="10" points="187.9,370.5 198.5,497.5 
			264.9,412.8 		"/>
		<polygon fill="#9D6B6A" stroke="#000000" stroke-width="0.2" stroke-miterlimit="10" points="238.2,280.5 187.9,370.5 
			264.9,412.8 		"/>
		<polygon fill="#D2D3EF" stroke="#000000" stroke-width="0.2" stroke-miterlimit="10" points="198.5,497.5 193.2,661.4 
			272.9,600.5 		"/>
		<polygon fill="#FFFFFF" stroke="#000000" stroke-width="0.2" stroke-miterlimit="10" points="264.9,412.8 198.5,497.5 
			307.2,465.8 		"/>
		<polygon fill="#FFFEFF" stroke="#000000" stroke-width="0.2" stroke-miterlimit="10" points="198.5,497.5 272.9,600.5 
			307.2,465.8 		"/>
		<polygon fill="#FFD0AA" stroke="#000000" stroke-width="0.2" stroke-miterlimit="10" points="193.2,661.4 264.9,859.8 
			309.9,674.8 		"/>
		<polygon fill="#FDD0AF" stroke="#000000" stroke-width="0.2" stroke-miterlimit="10" points="272.9,600.5 193.2,661.4 
			309.9,674.8 		"/>
		<polygon fill="#F9FDFF" stroke="#000000" stroke-width="0.2" stroke-miterlimit="10" points="264.9,412.8 307.2,465.8 
			330.9,441.8 		"/>
		<polygon fill="#F0A68B" stroke="#000000" stroke-width="0.2" stroke-miterlimit="10" points="330.9,441.8 307.2,465.8 
			344.2,478.8 		"/>
		<polygon fill="#EBA188" stroke="#000000" stroke-width="0.2" stroke-miterlimit="10" points="307.2,465.8 272.9,600.5 
			344.2,478.8 		"/>
		<polygon fill="#9F6D70" stroke="#000000" stroke-width="0.2" stroke-miterlimit="10" points="238.2,280.5 264.9,412.8 
			352.2,317.5 		"/>
		<polygon fill="#606CA0" stroke="#000000" stroke-width="0.2" stroke-miterlimit="10" points="238.2,280.5 352.2,317.5 
			354.9,209.1 		"/>
		<polygon fill="#6A6486" stroke="#000000" stroke-width="0.2" stroke-miterlimit="10" points="230.5,193.1 238.2,280.5 
			354.9,209.1 		"/>
		<polygon fill="#6B648D" stroke="#000000" stroke-width="0.2" stroke-miterlimit="10" points="344.2,145.5 230.5,193.1 
			354.9,209.1 		"/>
		<polygon fill="#FFFDFE" stroke="#000000" stroke-width="0.2" stroke-miterlimit="10" points="264.9,412.8 330.9,441.8 
			367.9,338.8 		"/>
		<polygon fill="#FCFEFB" stroke="#000000" stroke-width="0.2" stroke-miterlimit="10" points="352.2,317.5 264.9,412.8 
			367.9,338.8 		"/>
		<polygon fill="#FFECB4" stroke="#000000" stroke-width="0.2" stroke-miterlimit="10" points="309.9,674.8 264.9,859.8 
			394.5,777.8 		"/>
		<polygon fill="#538EDE" stroke="#000000" stroke-width="0.2" stroke-miterlimit="10" points="344.2,145.5 354.9,209.1 
			402.2,158.8 		"/>
		<polygon fill="#FBECB5" stroke="#000000" stroke-width="0.2" stroke-miterlimit="10" points="394.5,777.8 264.9,859.8 
			426.2,949.8 		"/>
		<polygon fill="#FEBB84" stroke="#000000" stroke-width="0.2" stroke-miterlimit="10" points="264.9,859.8 225.2,862.4 
			426.2,949.8 		"/>
		<polygon fill="#558AD6" stroke="#000000" stroke-width="0.2" stroke-miterlimit="10" points="402.2,158.8 354.9,209.1 
			426.2,254.1 		"/>
		<polygon fill="#606CA0" stroke="#000000" stroke-width="0.2" stroke-miterlimit="10" points="354.9,209.1 352.2,317.5 
			426.2,254.1 		"/>
		<polygon fill="#FCBB9B" stroke="#000000" stroke-width="0.2" stroke-miterlimit="10" points="309.9,674.8 394.5,777.8 
			428.9,629.8 		"/>
		<polygon fill="#AFA2AC" stroke="#000000" stroke-width="0.2" stroke-miterlimit="10" points="272.9,600.5 309.9,674.8 
			428.9,629.8 		"/>
		<polygon fill="#B3A7B5" stroke="#000000" stroke-width="0.2" stroke-miterlimit="10" points="344.2,478.8 272.9,600.5 
			428.9,629.8 		"/>
		<polygon fill="#796378" stroke="#000000" stroke-width="0.2" stroke-miterlimit="10" points="367.9,338.8 447.2,336.1 
			447.2,288.5 		"/>
		<polygon fill="#7177AB" stroke="#000000" stroke-width="0.2" stroke-miterlimit="10" points="352.2,317.5 367.9,338.8 
			447.2,288.5 		"/>
		<polygon fill="#657DB9" stroke="#000000" stroke-width="0.2" stroke-miterlimit="10" points="426.2,254.1 352.2,317.5 
			447.2,288.5 		"/>
		<polygon fill="#B4ACB9" stroke="#000000" stroke-width="0.2" stroke-miterlimit="10" points="344.2,478.8 428.9,629.8 
			449.9,518.4 		"/>
		<polygon fill="#8BB0F6" stroke="#000000" stroke-width="0.2" stroke-miterlimit="10" points="330.9,441.8 344.2,478.8 
			449.9,410.1 		"/>
		<polygon fill="#FCFFFF" stroke="#000000" stroke-width="0.2" stroke-miterlimit="10" points="344.2,478.8 449.9,518.4 
			449.9,410.1 		"/>
		<polygon fill="#88B1F3" stroke="#000000" stroke-width="0.2" stroke-miterlimit="10" points="367.9,338.8 330.9,441.8 
			449.9,410.1 		"/>
		<polygon fill="#89AEF4" stroke="#000000" stroke-width="0.2" stroke-miterlimit="10" points="447.2,336.1 367.9,338.8 
			449.9,410.1 		"/>
		<polygon fill="#FBECB3" stroke="#000000" stroke-width="0.2" stroke-miterlimit="10" points="394.5,777.8 426.2,949.8 
			486.9,894.5 		"/>
		<polygon fill="#647CB8" stroke="#000000" stroke-width="0.2" stroke-miterlimit="10" points="426.2,254.1 447.2,288.5 
			489.5,230.5 		"/>
		<polygon fill="#588DDD" stroke="#000000" stroke-width="0.2" stroke-miterlimit="10" points="402.2,158.8 426.2,254.1 
			489.5,230.5 		"/>
		<polygon fill="#7D6479" stroke="#000000" stroke-width="0.2" stroke-miterlimit="10" points="465.9,145.5 402.2,158.8 
			489.5,230.5 		"/>
		<polygon fill="#697EBD" stroke="#000000" stroke-width="0.2" stroke-miterlimit="10" points="489.5,230.5 447.2,288.5 
			521.5,238.1 		"/>
		<polygon fill="#836476" stroke="#000000" stroke-width="0.2" stroke-miterlimit="10" points="465.9,145.5 489.5,230.5 
			523.9,129.8 		"/>
		<polygon fill="#FDBE9D" stroke="#000000" stroke-width="0.2" stroke-miterlimit="10" points="428.9,629.8 394.5,777.8 
			531.9,740.8 		"/>
		<polygon fill="#FFC4A2" stroke="#000000" stroke-width="0.2" stroke-miterlimit="10" points="394.5,777.8 486.9,894.5 
			531.9,740.8 		"/>
		<polygon fill="#FFB282" stroke="#000000" stroke-width="0.2" stroke-miterlimit="10" points="486.9,894.5 426.2,949.8 
			550.5,899.5 		"/>
		<polygon fill="#B7B2B8" stroke="#000000" stroke-width="0.2" stroke-miterlimit="10" points="449.9,518.4 428.9,629.8 
			576.9,574.1 		"/>
		<polygon fill="#F9B99D" stroke="#000000" stroke-width="0.2" stroke-miterlimit="10" points="428.9,629.8 531.9,740.8 
			576.9,574.1 		"/>
		<polygon fill="#8DAFF6" stroke="#000000" stroke-width="0.2" stroke-miterlimit="10" points="447.2,336.1 449.9,410.1 
			579.5,338.8 		"/>
		<polygon fill="#796181" stroke="#000000" stroke-width="0.2" stroke-miterlimit="10" points="447.2,288.5 447.2,336.1 
			579.5,338.8 		"/>
		<polygon fill="#7A617F" stroke="#000000" stroke-width="0.2" stroke-miterlimit="10" points="521.5,238.1 447.2,288.5 
			579.5,338.8 		"/>
		<polygon fill="#FFFFFF" stroke="#000000" stroke-width="0.2" stroke-miterlimit="10" points="579.5,338.8 449.9,410.1 
			579.5,473.5 		"/>
		<polygon fill="#FFFFFF" stroke="#000000" stroke-width="0.2" stroke-miterlimit="10" points="449.9,410.1 449.9,518.4 
			579.5,473.5 		"/>
		<polygon fill="#FEFFFF" stroke="#000000" stroke-width="0.2" stroke-miterlimit="10" points="449.9,518.4 576.9,574.1 
			579.5,473.5 		"/>
		<polygon fill="#FBB379" stroke="#000000" stroke-width="0.2" stroke-miterlimit="10" points="550.5,899.5 426.2,949.8 
			709.2,907.4 		"/>
	</g>
	<g>
		<polygon fill="#7790D2" stroke="#000000" stroke-width="0.1" stroke-miterlimit="10" points="489.5,230.5 521.5,238.1 
			523.9,129.8 		"/>
		<polygon fill="#FDAC81" stroke="#000000" stroke-width="0.1" stroke-miterlimit="10" points="576.9,574.1 531.9,740.8 
			576.9,769.8 		"/>
		<polygon fill="#FEB485" stroke="#000000" stroke-width="0.1" stroke-miterlimit="10" points="531.9,740.8 486.9,894.5 
			576.9,769.8 		"/>
		<polygon fill="#FCC292" stroke="#000000" stroke-width="0.1" stroke-miterlimit="10" points="486.9,894.5 550.5,899.5 
			576.9,769.8 		"/>
		<polygon fill="#6570AE" stroke="#000000" stroke-width="0.1" stroke-miterlimit="10" points="576.9,248.8 521.5,238.1 
			579.5,338.8 		"/>
		<polygon fill="#96746B" stroke="#000000" stroke-width="0.1" stroke-miterlimit="10" points="550.5,76.8 523.9,129.8 587.5,95.5 
					"/>
		<polygon fill="#967A6E" stroke="#000000" stroke-width="0.1" stroke-miterlimit="10" points="587.5,95.5 523.9,129.8 600.9,169.5 
					"/>
		<polygon fill="#DACDE1" stroke="#000000" stroke-width="0.1" stroke-miterlimit="10" points="523.9,129.8 521.5,238.1 
			600.9,169.5 		"/>
		<polygon fill="#A7A9C2" stroke="#000000" stroke-width="0.1" stroke-miterlimit="10" points="521.5,238.1 576.9,248.8 
			600.9,169.5 		"/>
		<polygon fill="#815B70" stroke="#000000" stroke-width="0.1" stroke-miterlimit="10" points="576.9,248.8 579.5,338.8 
			611.2,248.8 		"/>
		<polygon fill="#926D67" stroke="#000000" stroke-width="0.1" stroke-miterlimit="10" points="582.2,0.1 550.5,76.8 613.9,26.4 		
			"/>
		<polygon fill="#8C6E63" stroke="#000000" stroke-width="0.1" stroke-miterlimit="10" points="550.5,76.8 587.5,95.5 613.9,26.4 		
			"/>
		<polygon fill="#AFB2D5" stroke="#000000" stroke-width="0.1" stroke-miterlimit="10" points="600.9,169.5 576.9,248.8 
			629.9,193.1 		"/>
		<polygon fill="#ADACCB" stroke="#000000" stroke-width="0.1" stroke-miterlimit="10" points="576.9,248.8 611.2,248.8 
			629.9,193.1 		"/>
		<polygon fill="#9087A6" stroke="#000000" stroke-width="0.1" stroke-miterlimit="10" points="579.5,473.5 576.9,574.1 
			648.2,463.1 		"/>
		<polygon fill="#8F89A5" stroke="#000000" stroke-width="0.1" stroke-miterlimit="10" points="579.5,338.8 579.5,473.5 
			648.2,463.1 		"/>
		<polygon fill="#BCD4FF" stroke="#000000" stroke-width="0.1" stroke-miterlimit="10" points="579.5,338.8 648.2,463.1 
			653.5,330.8 		"/>
		<polygon fill="#716384" stroke="#000000" stroke-width="0.1" stroke-miterlimit="10" points="629.9,193.1 611.2,248.8 
			656.2,283.1 		"/>
		<polygon fill="#7B5D75" stroke="#000000" stroke-width="0.1" stroke-miterlimit="10" points="611.2,248.8 579.5,338.8 
			656.2,283.1 		"/>
		<polygon fill="#7E5B73" stroke="#000000" stroke-width="0.1" stroke-miterlimit="10" points="579.5,338.8 653.5,330.8 
			656.2,283.1 		"/>
		<polygon fill="#699AE9" stroke="#000000" stroke-width="0.1" stroke-miterlimit="10" points="600.9,169.5 629.9,193.1 
			685.5,185.5 		"/>
		<polygon fill="#7C5E76" stroke="#000000" stroke-width="0.1" stroke-miterlimit="10" points="656.2,283.1 653.5,330.8 
			698.5,264.8 		"/>
		<polygon fill="#8A5452" stroke="#000000" stroke-width="0.1" stroke-miterlimit="10" points="629.9,193.1 656.2,283.1 
			698.5,264.8 		"/>
		<polygon fill="#716185" stroke="#000000" stroke-width="0.1" stroke-miterlimit="10" points="685.5,185.5 629.9,193.1 
			698.5,264.8 		"/>
		<polygon fill="#FEDAA6" stroke="#000000" stroke-width="0.1" stroke-miterlimit="10" points="576.9,769.8 550.5,899.5 
			709.2,907.4 		"/>
		<polygon fill="#FFD8AD" stroke="#000000" stroke-width="0.1" stroke-miterlimit="10" points="576.9,769.8 709.2,907.4 
			722.5,775.1 		"/>
		<polygon fill="#677CB5" stroke="#000000" stroke-width="0.1" stroke-miterlimit="10" points="685.5,185.5 698.5,264.8 
			738.2,182.5 		"/>
		<polygon fill="#805D7B" stroke="#000000" stroke-width="0.1" stroke-miterlimit="10" points="698.5,264.8 653.5,330.8 
			740.9,314.8 		"/>
		<polygon fill="#928CA6" stroke="#000000" stroke-width="0.1" stroke-miterlimit="10" points="648.2,463.1 576.9,574.1 
			743.5,621.8 		"/>
		<polygon fill="#CBE4FF" stroke="#000000" stroke-width="0.1" stroke-miterlimit="10" points="740.9,481.4 648.2,463.1 
			743.5,621.8 		"/>
		<polygon fill="#946F66" stroke="#000000" stroke-width="0.1" stroke-miterlimit="10" points="576.9,574.1 576.9,769.8 
			743.5,621.8 		"/>
		<polygon fill="#FFD9AC" stroke="#000000" stroke-width="0.1" stroke-miterlimit="10" points="576.9,769.8 722.5,775.1 
			743.5,621.8 		"/>
		<polygon fill="#899ED3" stroke="#000000" stroke-width="0.1" stroke-miterlimit="10" points="738.2,182.5 698.5,264.8 
			754.2,195.8 		"/>
		<polygon fill="#5890DD" stroke="#000000" stroke-width="0.1" stroke-miterlimit="10" points="698.5,264.8 740.9,314.8 
			775.2,296.4 		"/>
		<polygon fill="#66699C" stroke="#000000" stroke-width="0.1" stroke-miterlimit="10" points="754.2,195.8 698.5,264.8 
			775.2,296.4 		"/>
		<polygon fill="#749FE4" stroke="#000000" stroke-width="0.1" stroke-miterlimit="10" points="775.2,296.4 740.9,314.8 
			780.5,354.5 		"/>
		<polygon fill="#C5DEFD" stroke="#000000" stroke-width="0.1" stroke-miterlimit="10" points="740.9,314.8 653.5,330.8 
			780.5,354.5 		"/>
		<polygon fill="#C0DDFD" stroke="#000000" stroke-width="0.1" stroke-miterlimit="10" points="653.5,330.8 648.2,463.1 
			780.5,354.5 		"/>
		<polygon fill="#C8E3FF" stroke="#000000" stroke-width="0.1" stroke-miterlimit="10" points="648.2,463.1 740.9,481.4 
			780.5,354.5 		"/>
		<polygon fill="#FFC094" stroke="#000000" stroke-width="0.1" stroke-miterlimit="10" points="722.5,775.1 709.2,907.4 
			785.9,878.5 		"/>
		<polygon fill="#FFBC93" stroke="#000000" stroke-width="0.1" stroke-miterlimit="10" points="722.5,775.1 785.9,878.5 
			785.9,799.1 		"/>
		<polygon fill="#799CDC" stroke="#000000" stroke-width="0.1" stroke-miterlimit="10" points="775.2,296.4 780.5,354.5 
			804.5,338.8 		"/>
		<polygon fill="#DDBCCF" stroke="#000000" stroke-width="0.1" stroke-miterlimit="10" points="738.2,182.5 754.2,195.8 
			809.5,174.8 		"/>
		<polygon fill="#FFBB94" stroke="#000000" stroke-width="0.1" stroke-miterlimit="10" points="743.5,621.8 722.5,775.1 
			812.5,640.5 		"/>
		<polygon fill="#FEBD95" stroke="#000000" stroke-width="0.1" stroke-miterlimit="10" points="722.5,775.1 785.9,799.1 
			812.5,640.5 		"/>
		<polygon fill="#FEB082" stroke="#000000" stroke-width="0.1" stroke-miterlimit="10" points="785.9,799.1 785.9,878.5 
			817.5,804.5 		"/>
		<polygon fill="#537EC3" stroke="#000000" stroke-width="0.1" stroke-miterlimit="10" points="754.2,195.8 775.2,296.4 
			817.5,225.1 		"/>
		<polygon fill="#5E8DD5" stroke="#000000" stroke-width="0.1" stroke-miterlimit="10" points="809.5,174.8 754.2,195.8 
			817.5,225.1 		"/>
		<polygon fill="#98D0FF" stroke="#000000" stroke-width="0.1" stroke-miterlimit="10" points="780.5,354.5 740.9,481.4 
			846.9,420.8 		"/>
		<polygon fill="#749DDB" stroke="#000000" stroke-width="0.1" stroke-miterlimit="10" points="804.5,338.8 780.5,354.5 
			846.9,420.8 		"/>
		<polygon fill="#9598C5" stroke="#000000" stroke-width="0.1" stroke-miterlimit="10" points="775.2,296.4 804.5,338.8 
			846.9,296.4 		"/>
		<polygon fill="#577FC7" stroke="#000000" stroke-width="0.1" stroke-miterlimit="10" points="817.5,225.1 775.2,296.4 
			846.9,296.4 		"/>
		<polygon fill="#9CD2FF" stroke="#000000" stroke-width="0.1" stroke-miterlimit="10" points="846.9,420.8 740.9,481.4 
			867.9,550.5 		"/>
		<polygon fill="#9CD2FF" stroke="#000000" stroke-width="0.1" stroke-miterlimit="10" points="740.9,481.4 743.5,621.8 
			867.9,550.5 		"/>
		<polygon fill="#9AD2FF" stroke="#000000" stroke-width="0.1" stroke-miterlimit="10" points="743.5,621.8 812.5,640.5 
			867.9,550.5 		"/>
		<polygon fill="#EB9C7B" stroke="#000000" stroke-width="0.1" stroke-miterlimit="10" points="817.5,804.5 785.9,878.5 
			875.9,833.5 		"/>
		<polygon fill="#E69B74" stroke="#000000" stroke-width="0.1" stroke-miterlimit="10" points="817.5,804.5 875.9,833.5 
			883.9,743.5 		"/>
		<polygon fill="#FFBB94" stroke="#000000" stroke-width="0.1" stroke-miterlimit="10" points="812.5,640.5 785.9,799.1 
			883.9,743.5 		"/>
		<polygon fill="#F1A67E" stroke="#000000" stroke-width="0.1" stroke-miterlimit="10" points="785.9,799.1 817.5,804.5 
			883.9,743.5 		"/>
		<polygon fill="#8C9DCB" stroke="#000000" stroke-width="0.1" stroke-miterlimit="10" points="804.5,338.8 846.9,420.8 
			891.9,367.8 		"/>
		<polygon fill="#8F9AC7" stroke="#000000" stroke-width="0.1" stroke-miterlimit="10" points="846.9,296.4 804.5,338.8 
			891.9,367.8 		"/>
		<polygon fill="#98D6FD" stroke="#000000" stroke-width="0.1" stroke-miterlimit="10" points="867.9,550.5 812.5,640.5 
			894.5,650.8 		"/>
		<polygon fill="#FDB897" stroke="#000000" stroke-width="0.1" stroke-miterlimit="10" points="812.5,640.5 883.9,743.5 
			894.5,650.8 		"/>
		<polygon fill="#8C98C2" stroke="#000000" stroke-width="0.1" stroke-miterlimit="10" points="846.9,296.4 891.9,367.8 
			896.9,264.8 		"/>
		<polygon fill="#6394F0" stroke="#000000" stroke-width="0.1" stroke-miterlimit="10" points="809.5,174.8 817.5,225.1 
			896.9,264.8 		"/>
		<polygon fill="#5081C3" stroke="#000000" stroke-width="0.1" stroke-miterlimit="10" points="817.5,225.1 846.9,296.4 
			896.9,264.8 		"/>
		<polygon fill="#9ED8FE" stroke="#000000" stroke-width="0.1" stroke-miterlimit="10" points="846.9,420.8 867.9,550.5 
			912.9,500.1 		"/>
		<polygon fill="#9CBFF7" stroke="#000000" stroke-width="0.1" stroke-miterlimit="10" points="891.9,367.8 846.9,420.8 
			912.9,500.1 		"/>
		<polygon fill="#C78B67" stroke="#000000" stroke-width="0.1" stroke-miterlimit="10" points="894.5,650.8 883.9,743.5 
			931.5,717.1 		"/>
		<polygon fill="#CE926D" stroke="#000000" stroke-width="0.1" stroke-miterlimit="10" points="883.9,743.5 875.9,833.5 
			931.5,717.1 		"/>
		<polygon fill="#8D99C1" stroke="#000000" stroke-width="0.1" stroke-miterlimit="10" points="896.9,264.8 891.9,367.8 
			949.9,293.8 		"/>
		<polygon fill="#9CC3FC" stroke="#000000" stroke-width="0.1" stroke-miterlimit="10" points="949.9,293.8 891.9,367.8 
			960.5,370.5 		"/>
		<polygon fill="#99BFFD" stroke="#000000" stroke-width="0.1" stroke-miterlimit="10" points="891.9,367.8 912.9,500.1 
			971.2,478.8 		"/>
		<polygon fill="#9CC0FA" stroke="#000000" stroke-width="0.1" stroke-miterlimit="10" points="960.5,370.5 891.9,367.8 
			971.2,478.8 		"/>
		<polygon fill="#98BBF5" stroke="#000000" stroke-width="0.1" stroke-miterlimit="10" points="971.2,478.8 912.9,500.1 
			976.5,521.4 		"/>
		<polygon fill="#A0D7FE" stroke="#000000" stroke-width="0.1" stroke-miterlimit="10" points="912.9,500.1 867.9,550.5 
			976.5,521.4 		"/>
		<polygon fill="#A0D7FE" stroke="#000000" stroke-width="0.1" stroke-miterlimit="10" points="867.9,550.5 894.5,650.8 
			986.9,592.8 		"/>
		<polygon fill="#A2DAFF" stroke="#000000" stroke-width="0.1" stroke-miterlimit="10" points="976.5,521.4 867.9,550.5 
			986.9,592.8 		"/>
		<polygon fill="#C28863" stroke="#000000" stroke-width="0.1" stroke-miterlimit="10" points="894.5,650.8 931.5,717.1 
			986.9,592.8 		"/>
		<polygon fill="#EBB5B5" stroke="#000000" stroke-width="0.1" stroke-miterlimit="10" points="976.5,521.4 986.9,592.8 
			1000.2,455.1 		"/>
		<polygon fill="#8A6B4F" stroke="#000000" stroke-width="0.1" stroke-miterlimit="10" points="971.2,478.8 976.5,521.4 
			1000.2,455.1 		"/>
		<polygon fill="#8C98C2" stroke="#000000" stroke-width="0.1" stroke-miterlimit="10" points="960.5,370.5 971.2,478.8 
			1000.2,455.1 		"/>
		<polygon fill="#F3B2B6" stroke="#000000" stroke-width="0.1" stroke-miterlimit="10" points="949.9,293.8 960.5,370.5 
			1000.2,455.1 		"/>
	</g>
</g>
</svg>
