<?xml version="1.0" encoding="utf-8"?>
<!-- Generator: Adobe Illustrator 24.1.0, SVG Export Plug-In . SVG Version: 6.00 Build 0)  -->
<svg version="1.1" baseProfile="tiny" id="图层_1"
	 xmlns="http://www.w3.org/2000/svg" xmlns:xlink="http://www.w3.org/1999/xlink" x="0px" y="0px" viewBox="0 0 610.6 1000.4"
	 xml:space="preserve">
<g>
	<g>
		<polygon fill="#FFA32C" stroke="#000000" stroke-width="0.3" stroke-miterlimit="10" points="0.4,609.4 34.8,669.4 67.3,626.1 		
			"/>
		<polygon fill="#FE8D25" stroke="#000000" stroke-width="0.3" stroke-miterlimit="10" points="0.4,609.4 67.3,626.1 68.3,565.1 		
			"/>
		<polygon fill="#FBB41C" stroke="#000000" stroke-width="0.3" stroke-miterlimit="10" points="68.3,565.1 67.3,626.1 106.7,583.8 
					"/>
		<polygon fill="#E08D1E" stroke="#000000" stroke-width="0.3" stroke-miterlimit="10" points="67.3,626.1 34.8,669.4 107.7,658.6 
					"/>
		<polygon fill="#F8A428" stroke="#000000" stroke-width="0.3" stroke-miterlimit="10" points="34.8,669.4 77.2,742.2 107.7,658.6 
					"/>
		<polygon fill="#FFC973" stroke="#000000" stroke-width="0.3" stroke-miterlimit="10" points="107.7,658.6 77.2,742.2 138.2,687.1 
					"/>
		<polygon fill="#FFC973" stroke="#000000" stroke-width="0.3" stroke-miterlimit="10" points="77.2,742.2 128.3,764.9 138.2,687.1 
					"/>
		<polygon fill="#F9B72B" stroke="#000000" stroke-width="0.3" stroke-miterlimit="10" points="106.7,583.8 67.3,626.1 141.1,618.2 
					"/>
		<polygon fill="#F2B131" stroke="#000000" stroke-width="0.3" stroke-miterlimit="10" points="67.3,626.1 107.7,658.6 141.1,618.2 
					"/>
		<polygon fill="#FFFBF5" stroke="#000000" stroke-width="0.3" stroke-miterlimit="10" points="107.7,658.6 138.2,687.1 
			160.8,672.3 		"/>
		<polygon fill="#FFFBF5" stroke="#000000" stroke-width="0.3" stroke-miterlimit="10" points="141.1,618.2 107.7,658.6 
			160.8,672.3 		"/>
		<polygon fill="#FEE8B7" stroke="#000000" stroke-width="0.3" stroke-miterlimit="10" points="106.7,583.8 141.1,618.2 
			168.7,593.6 		"/>
		<polygon fill="#F46A46" stroke="#000000" stroke-width="0.3" stroke-miterlimit="10" points="137.2,822 153.9,900.7 170.7,840.7 
					"/>
		<polygon fill="#FFFBF5" stroke="#000000" stroke-width="0.3" stroke-miterlimit="10" points="141.1,618.2 160.8,672.3 
			170.7,654.6 		"/>
		<polygon fill="#FEF1D1" stroke="#000000" stroke-width="0.3" stroke-miterlimit="10" points="168.7,593.6 141.1,618.2 
			170.7,654.6 		"/>
		<polygon fill="#FD7054" stroke="#000000" stroke-width="0.3" stroke-miterlimit="10" points="128.3,764.9 137.2,822 178.5,785.5 
					"/>
		<polygon fill="#FD7054" stroke="#000000" stroke-width="0.3" stroke-miterlimit="10" points="137.2,822 170.7,840.7 178.5,785.5 
					"/>
		<polygon fill="#FFC973" stroke="#000000" stroke-width="0.3" stroke-miterlimit="10" points="160.8,672.3 138.2,687.1 
			181.5,738.3 		"/>
		<polygon fill="#FFC973" stroke="#000000" stroke-width="0.3" stroke-miterlimit="10" points="138.2,687.1 128.3,764.9 
			181.5,738.3 		"/>
		<polygon fill="#FDC54E" stroke="#000000" stroke-width="0.3" stroke-miterlimit="10" points="128.3,764.9 178.5,785.5 
			181.5,738.3 		"/>
		<polygon fill="#FA7548" stroke="#000000" stroke-width="0.3" stroke-miterlimit="10" points="193.3,945 153.9,900.7 196.2,988.3 
					"/>
		<polygon fill="#FF7E5B" stroke="#000000" stroke-width="0.3" stroke-miterlimit="10" points="170.7,840.7 153.9,900.7 
			196.2,904.6 		"/>
		<polygon fill="#FA7548" stroke="#000000" stroke-width="0.3" stroke-miterlimit="10" points="153.9,900.7 193.3,945 196.2,904.6 
					"/>
		<polygon fill="#FFFCF5" stroke="#000000" stroke-width="0.3" stroke-miterlimit="10" points="168.7,593.6 170.7,654.6 
			220.9,598.5 		"/>
		<polygon fill="#FF803D" stroke="#000000" stroke-width="0.3" stroke-miterlimit="10" points="196.2,904.6 193.3,945 225.8,956.8 
					"/>
		<polygon fill="#FDB560" stroke="#000000" stroke-width="0.3" stroke-miterlimit="10" points="193.3,945 196.2,988.3 225.8,956.8 
					"/>
		<polygon fill="#FBB95B" stroke="#000000" stroke-width="0.3" stroke-miterlimit="10" points="196.2,988.3 214,1000.1 225.8,956.8 
					"/>
		<polygon fill="#FFD086" stroke="#000000" stroke-width="0.3" stroke-miterlimit="10" points="181.5,738.3 178.5,785.5 
			243.5,763.9 		"/>
		<polygon fill="#FBB95B" stroke="#000000" stroke-width="0.3" stroke-miterlimit="10" points="225.8,956.8 214,1000.1 248.4,986.3 
					"/>
		<polygon fill="#FF803D" stroke="#000000" stroke-width="0.3" stroke-miterlimit="10" points="196.2,904.6 225.8,956.8 
			257.3,932.2 		"/>
		<polygon fill="#FEE1A9" stroke="#000000" stroke-width="0.3" stroke-miterlimit="10" points="220.9,598.5 170.7,654.6 260.2,630 
					"/>
		<polygon fill="#FFC86A" stroke="#000000" stroke-width="0.3" stroke-miterlimit="10" points="181.5,738.3 243.5,763.9 267.1,697 
					"/>
		<polygon fill="#F9CF8C" stroke="#000000" stroke-width="0.3" stroke-miterlimit="10" points="260.2,630 170.7,654.6 267.1,697 		
			"/>
		<polygon fill="#FEE0AA" stroke="#000000" stroke-width="0.3" stroke-miterlimit="10" points="170.7,654.6 160.8,672.3 267.1,697 
					"/>
		<polygon fill="#FEE0AA" stroke="#000000" stroke-width="0.3" stroke-miterlimit="10" points="160.8,672.3 181.5,738.3 267.1,697 
					"/>
		<polygon fill="#FDB569" stroke="#000000" stroke-width="0.3" stroke-miterlimit="10" points="225.8,956.8 248.4,986.3 277,962.7 
					"/>
		<polygon fill="#FF803D" stroke="#000000" stroke-width="0.3" stroke-miterlimit="10" points="257.3,932.2 225.8,956.8 277,962.7 
					"/>
		<polygon fill="#FF904D" stroke="#000000" stroke-width="0.3" stroke-miterlimit="10" points="196.2,904.6 257.3,932.2 
			289.8,914.5 		"/>
		<polygon fill="#FFAE67" stroke="#000000" stroke-width="0.3" stroke-miterlimit="10" points="257.3,932.2 277,962.7 294.7,929.2 
					"/>
		<polygon fill="#FF9A5B" stroke="#000000" stroke-width="0.3" stroke-miterlimit="10" points="289.8,914.5 257.3,932.2 
			294.7,929.2 		"/>
		<polygon fill="#F9DD9C" stroke="#000000" stroke-width="0.3" stroke-miterlimit="10" points="267.1,697 243.5,763.9 299.6,750.1 
					"/>
		<polygon fill="#FFAC65" stroke="#000000" stroke-width="0.3" stroke-miterlimit="10" points="294.7,929.2 277,962.7 305.5,975.5 
					"/>
		<polygon fill="#EAC18D" stroke="#000000" stroke-width="0.3" stroke-miterlimit="10" points="277,962.7 248.4,986.3 305.5,975.5 
					"/>
		<polygon fill="#F56622" stroke="#000000" stroke-width="0.3" stroke-miterlimit="10" points="289.8,914.5 294.7,929.2 
			339.9,884.9 		"/>
		<polygon fill="#FE773D" stroke="#000000" stroke-width="0.3" stroke-miterlimit="10" points="320.3,843.6 289.8,914.5 
			339.9,884.9 		"/>
		<polygon fill="#F96A4A" stroke="#000000" stroke-width="0.3" stroke-miterlimit="10" points="299.6,750.1 320.3,843.6 
			340.9,780.6 		"/>
		<polygon fill="#F96A4A" stroke="#000000" stroke-width="0.3" stroke-miterlimit="10" points="299.6,750.1 340.9,780.6 
			340.9,737.3 		"/>
		<polygon fill="#F9DD9C" stroke="#000000" stroke-width="0.3" stroke-miterlimit="10" points="267.1,697 299.6,750.1 340.9,737.3 
					"/>
		<polygon fill="#F9DD9C" stroke="#000000" stroke-width="0.3" stroke-miterlimit="10" points="267.1,697 340.9,737.3 356.7,733.4 
					"/>
		<polygon fill="#FF8738" stroke="#000000" stroke-width="0.3" stroke-miterlimit="10" points="320.3,843.6 339.9,884.9 
			360.6,841.6 		"/>
		<polygon fill="#FF8738" stroke="#000000" stroke-width="0.3" stroke-miterlimit="10" points="340.9,780.6 320.3,843.6 
			360.6,841.6 		"/>
		<polygon fill="#FEB662" stroke="#000000" stroke-width="0.3" stroke-miterlimit="10" points="339.9,884.9 294.7,929.2 
			364.6,926.3 		"/>
		<polygon fill="#FEB662" stroke="#000000" stroke-width="0.3" stroke-miterlimit="10" points="339.9,884.9 364.6,926.3 
			373.4,903.6 		"/>
		<polygon fill="#FF8D2A" stroke="#000000" stroke-width="0.3" stroke-miterlimit="10" points="360.6,841.6 339.9,884.9 
			395.1,886.9 		"/>
		<polygon fill="#F5892E" stroke="#000000" stroke-width="0.3" stroke-miterlimit="10" points="339.9,884.9 373.4,903.6 
			395.1,886.9 		"/>
		<polygon fill="#EFD39C" stroke="#000000" stroke-width="0.3" stroke-miterlimit="10" points="260.2,630 267.1,697 406.9,636.9 		
			"/>
		<polygon fill="#FFEED0" stroke="#000000" stroke-width="0.3" stroke-miterlimit="10" points="267.1,697 356.7,733.4 406.9,636.9 
					"/>
		<polygon fill="#FFA05B" stroke="#000000" stroke-width="0.3" stroke-miterlimit="10" points="360.6,841.6 395.1,886.9 
			414.8,861.3 		"/>
		<polygon fill="#FBB965" stroke="#000000" stroke-width="0.3" stroke-miterlimit="10" points="414.8,861.3 395.1,886.9 
			427.5,932.2 		"/>
		<polygon fill="#F4B66D" stroke="#000000" stroke-width="0.3" stroke-miterlimit="10" points="373.4,903.6 364.6,926.3 
			427.5,932.2 		"/>
		<polygon fill="#FC8E2D" stroke="#000000" stroke-width="0.3" stroke-miterlimit="10" points="395.1,886.9 373.4,903.6 
			427.5,932.2 		"/>
		<polygon fill="#FBB965" stroke="#000000" stroke-width="0.3" stroke-miterlimit="10" points="414.8,861.3 427.5,932.2 
			484.6,891.8 		"/>
	</g>
	<g>
		<polygon fill="#F0AF47" stroke="#000000" stroke-width="0.2" stroke-miterlimit="10" points="68.3,565.1 106.7,583.8 120.5,495.2 
					"/>
		<polygon fill="#FBB555" stroke="#000000" stroke-width="0.2" stroke-miterlimit="10" points="120.5,495.2 106.7,583.8 
			159.8,516.8 		"/>
		<polygon fill="#FFA13F" stroke="#000000" stroke-width="0.2" stroke-miterlimit="10" points="120.5,495.2 159.8,516.8 
			164.8,433.2 		"/>
		<polygon fill="#FEE8B7" stroke="#000000" stroke-width="0.2" stroke-miterlimit="10" points="159.8,516.8 106.7,583.8 
			168.7,593.6 		"/>
		<polygon fill="#FEE8B7" stroke="#000000" stroke-width="0.2" stroke-miterlimit="10" points="159.8,516.8 168.7,593.6 
			223.8,545.4 		"/>
		<polygon fill="#FEF0D6" stroke="#000000" stroke-width="0.2" stroke-miterlimit="10" points="168.7,593.6 220.9,598.5 
			223.8,545.4 		"/>
		<polygon fill="#F9FFFF" stroke="#000000" stroke-width="0.2" stroke-miterlimit="10" points="223.8,545.4 220.9,598.5 
			250.4,557.2 		"/>
		<polygon fill="#FB9334" stroke="#000000" stroke-width="0.2" stroke-miterlimit="10" points="220.9,384.9 164.8,433.2 
			251.4,416.4 		"/>
		<polygon fill="#FFB44F" stroke="#000000" stroke-width="0.2" stroke-miterlimit="10" points="251.4,416.4 164.8,433.2 
			253.3,497.1 		"/>
		<polygon fill="#FFD084" stroke="#000000" stroke-width="0.2" stroke-miterlimit="10" points="223.8,545.4 250.4,557.2 
			253.3,497.1 		"/>
		<polygon fill="#FFC25B" stroke="#000000" stroke-width="0.2" stroke-miterlimit="10" points="164.8,433.2 159.8,516.8 
			253.3,497.1 		"/>
		<polygon fill="#FFD084" stroke="#000000" stroke-width="0.2" stroke-miterlimit="10" points="159.8,516.8 223.8,545.4 
			253.3,497.1 		"/>
		<polygon fill="#FEE1A9" stroke="#000000" stroke-width="0.2" stroke-miterlimit="10" points="250.4,557.2 220.9,598.5 260.2,630 
					"/>
		<polygon fill="#FCAD48" stroke="#000000" stroke-width="0.2" stroke-miterlimit="10" points="220.9,384.9 251.4,416.4 
			262.2,346.6 		"/>
		<polygon fill="#FEC459" stroke="#000000" stroke-width="0.2" stroke-miterlimit="10" points="300.6,279.6 262.2,346.6 
			330.1,305.2 		"/>
		<polygon fill="#FED18E" stroke="#000000" stroke-width="0.2" stroke-miterlimit="10" points="251.4,416.4 253.3,497.1 
			344.9,479.4 		"/>
		<polygon fill="#FDEBBD" stroke="#000000" stroke-width="0.2" stroke-miterlimit="10" points="250.4,557.2 260.2,630 358.6,528.6 
					"/>
		<polygon fill="#FEDFA8" stroke="#000000" stroke-width="0.2" stroke-miterlimit="10" points="253.3,497.1 250.4,557.2 
			358.6,528.6 		"/>
		<polygon fill="#FEDFA8" stroke="#000000" stroke-width="0.2" stroke-miterlimit="10" points="344.9,479.4 253.3,497.1 
			358.6,528.6 		"/>
		<polygon fill="#FEAE4D" stroke="#000000" stroke-width="0.2" stroke-miterlimit="10" points="375.4,278.6 330.1,305.2 402,397.7 
					"/>
		<polygon fill="#FEAE4D" stroke="#000000" stroke-width="0.2" stroke-miterlimit="10" points="330.1,305.2 262.2,346.6 402,397.7 
					"/>
		<polygon fill="#FC9D43" stroke="#000000" stroke-width="0.2" stroke-miterlimit="10" points="262.2,346.6 251.4,416.4 402,397.7 
					"/>
		<polygon fill="#FED18E" stroke="#000000" stroke-width="0.2" stroke-miterlimit="10" points="251.4,416.4 344.9,479.4 402,397.7 
					"/>
		<polygon fill="#EFD39C" stroke="#000000" stroke-width="0.2" stroke-miterlimit="10" points="358.6,528.6 260.2,630 406.9,636.9 
					"/>
		<polygon fill="#FDD693" stroke="#000000" stroke-width="0.2" stroke-miterlimit="10" points="375.4,278.6 402,397.7 435.4,278.6 
					"/>
		<polygon fill="#FDF7DF" stroke="#000000" stroke-width="0.2" stroke-miterlimit="10" points="358.6,528.6 406.9,636.9 
			477.7,500.1 		"/>
		<polygon fill="#FFEABD" stroke="#000000" stroke-width="0.2" stroke-miterlimit="10" points="344.9,479.4 358.6,528.6 
			477.7,500.1 		"/>
		<polygon fill="#FFEABD" stroke="#000000" stroke-width="0.2" stroke-miterlimit="10" points="402,397.7 344.9,479.4 477.7,500.1 
					"/>
		<polygon fill="#FFE9B3" stroke="#000000" stroke-width="0.2" stroke-miterlimit="10" points="435.4,278.6 402,397.7 489.6,390.8 
					"/>
		<polygon fill="#FFF0D3" stroke="#000000" stroke-width="0.2" stroke-miterlimit="10" points="402,397.7 477.7,500.1 489.6,390.8 
					"/>
	</g>
	<g>
		<polygon fill="#FEB157" stroke="#000000" stroke-width="0.1" stroke-miterlimit="10" points="300.6,118.2 317.3,223.5 
			327.2,172.3 		"/>
		<polygon fill="#F7953A" stroke="#000000" stroke-width="0.1" stroke-miterlimit="10" points="317.3,223.5 300.6,279.6 345.9,257 
					"/>
		<polygon fill="#FFAB4B" stroke="#000000" stroke-width="0.1" stroke-miterlimit="10" points="300.6,279.6 330.1,305.2 345.9,257 
					"/>
		<polygon fill="#FFC575" stroke="#000000" stroke-width="0.1" stroke-miterlimit="10" points="300.6,118.2 327.2,172.3 368.5,88.7 
					"/>
		<polygon fill="#FDD58D" stroke="#000000" stroke-width="0.1" stroke-miterlimit="10" points="314.4,47.3 300.6,118.2 368.5,88.7 
					"/>
		<polygon fill="#FDE1B2" stroke="#000000" stroke-width="0.1" stroke-miterlimit="10" points="364.6,11.9 314.4,47.3 368.5,88.7 		
			"/>
		<polygon fill="#FABE5C" stroke="#000000" stroke-width="0.1" stroke-miterlimit="10" points="345.9,257 330.1,305.2 375.4,278.6 
					"/>
		<polygon fill="#FFB146" stroke="#000000" stroke-width="0.1" stroke-miterlimit="10" points="345.9,257 375.4,278.6 379.3,230.4 
					"/>
		<polygon fill="#FEA23D" stroke="#000000" stroke-width="0.1" stroke-miterlimit="10" points="317.3,223.5 345.9,257 379.3,230.4 
					"/>
		<polygon fill="#F28E30" stroke="#000000" stroke-width="0.1" stroke-miterlimit="10" points="327.2,172.3 317.3,223.5 
			384.2,205.8 		"/>
		<polygon fill="#F28E30" stroke="#000000" stroke-width="0.1" stroke-miterlimit="10" points="317.3,223.5 379.3,230.4 
			384.2,205.8 		"/>
		<polygon fill="#FDE1B2" stroke="#000000" stroke-width="0.1" stroke-miterlimit="10" points="364.6,11.9 368.5,88.7 394.1,24.7 		
			"/>
		<polygon fill="#F9D48D" stroke="#000000" stroke-width="0.1" stroke-miterlimit="10" points="394.1,24.7 368.5,88.7 408.8,89.7 		
			"/>
		<polygon fill="#FFF7E6" stroke="#000000" stroke-width="0.1" stroke-miterlimit="10" points="364.6,11.9 394.1,24.7 410.8,0.1 		
			"/>
		<polygon fill="#FFB45E" stroke="#000000" stroke-width="0.1" stroke-miterlimit="10" points="408.8,89.7 368.5,88.7 416.7,107.4 
					"/>
		<polygon fill="#FBA74F" stroke="#000000" stroke-width="0.1" stroke-miterlimit="10" points="327.2,172.3 384.2,205.8 
			417.7,155.6 		"/>
		<polygon fill="#FDB761" stroke="#000000" stroke-width="0.1" stroke-miterlimit="10" points="368.5,88.7 327.2,172.3 417.7,155.6 
					"/>
		<polygon fill="#FBAE54" stroke="#000000" stroke-width="0.1" stroke-miterlimit="10" points="416.7,107.4 368.5,88.7 417.7,155.6 
					"/>
		<polygon fill="#FFC25A" stroke="#000000" stroke-width="0.1" stroke-miterlimit="10" points="379.3,230.4 375.4,278.6 
			425.6,234.4 		"/>
		<polygon fill="#FBAE3A" stroke="#000000" stroke-width="0.1" stroke-miterlimit="10" points="384.2,205.8 379.3,230.4 
			425.6,234.4 		"/>
		<polygon fill="#FFDA89" stroke="#000000" stroke-width="0.1" stroke-miterlimit="10" points="394.1,24.7 408.8,89.7 428.5,77.9 		
			"/>
		<polygon fill="#FFE1AA" stroke="#000000" stroke-width="0.1" stroke-miterlimit="10" points="410.8,0.1 394.1,24.7 428.5,77.9 		
			"/>
		<polygon fill="#FFC950" stroke="#000000" stroke-width="0.1" stroke-miterlimit="10" points="425.6,234.4 375.4,278.6 
			435.4,278.6 		"/>
		<polygon fill="#140F16" stroke="#000000" stroke-width="0.1" stroke-miterlimit="10" points="408.8,89.7 416.7,107.4 437.4,97.5 
					"/>
		<polygon fill="#1A2131" stroke="#000000" stroke-width="0.1" stroke-miterlimit="10" points="428.5,77.9 408.8,89.7 437.4,97.5 		
			"/>
		<polygon fill="#FFB15B" stroke="#000000" stroke-width="0.1" stroke-miterlimit="10" points="416.7,107.4 417.7,155.6 
			444.3,118.2 		"/>
		<polygon fill="#F7B96C" stroke="#000000" stroke-width="0.1" stroke-miterlimit="10" points="437.4,97.5 416.7,107.4 444.3,118.2 
					"/>
		<polygon fill="#FBA74F" stroke="#000000" stroke-width="0.1" stroke-miterlimit="10" points="417.7,155.6 384.2,205.8 456.1,191 
					"/>
		<polygon fill="#FBAE3A" stroke="#000000" stroke-width="0.1" stroke-miterlimit="10" points="384.2,205.8 425.6,234.4 456.1,191 
					"/>
		<polygon fill="#FAC663" stroke="#000000" stroke-width="0.1" stroke-miterlimit="10" points="437.4,97.5 444.3,118.2 466.9,84.7 
					"/>
		<polygon fill="#FAC663" stroke="#000000" stroke-width="0.1" stroke-miterlimit="10" points="428.5,77.9 437.4,97.5 466.9,84.7 		
			"/>
		<polygon fill="#FD9E42" stroke="#000000" stroke-width="0.1" stroke-miterlimit="10" points="444.3,118.2 417.7,155.6 
			476.8,157.6 		"/>
		<polygon fill="#F18932" stroke="#000000" stroke-width="0.1" stroke-miterlimit="10" points="417.7,155.6 456.1,191 476.8,157.6 
					"/>
		<polygon fill="#FFE1AA" stroke="#000000" stroke-width="0.1" stroke-miterlimit="10" points="410.8,0.1 428.5,77.9 479.7,47.3 		
			"/>
		<polygon fill="#FFE1AA" stroke="#000000" stroke-width="0.1" stroke-miterlimit="10" points="428.5,77.9 466.9,84.7 479.7,47.3 		
			"/>
		<polygon fill="#FFF0D3" stroke="#000000" stroke-width="0.1" stroke-miterlimit="10" points="410.8,0.1 479.7,47.3 484.6,22.7 		
			"/>
		<polygon fill="#EF7B2E" stroke="#000000" stroke-width="0.1" stroke-miterlimit="10" points="476.8,157.6 456.1,191 490.5,180.2 
					"/>
		<polygon fill="#FDC570" stroke="#000000" stroke-width="0.1" stroke-miterlimit="10" points="466.9,84.7 444.3,118.2 500.4,108.4 
					"/>
		<polygon fill="#FDAE51" stroke="#000000" stroke-width="0.1" stroke-miterlimit="10" points="444.3,118.2 476.8,157.6 
			500.4,108.4 		"/>
		<polygon fill="#FDF7DD" stroke="#000000" stroke-width="0.1" stroke-miterlimit="10" points="484.6,22.7 479.7,47.3 512.2,62.1 		
			"/>
		<polygon fill="#FFEABD" stroke="#000000" stroke-width="0.1" stroke-miterlimit="10" points="479.7,47.3 466.9,84.7 512.2,62.1 		
			"/>
		<polygon fill="#FFEABD" stroke="#000000" stroke-width="0.1" stroke-miterlimit="10" points="466.9,84.7 500.4,108.4 512.2,62.1 
					"/>
		<polygon fill="#FFEABD" stroke="#000000" stroke-width="0.1" stroke-miterlimit="10" points="512.2,62.1 500.4,108.4 527,92.6 		
			"/>
		<polygon fill="#E55532" stroke="#000000" stroke-width="0.1" stroke-miterlimit="10" points="476.8,157.6 490.5,180.2 
			536.8,153.6 		"/>
		<polygon fill="#F4934E" stroke="#000000" stroke-width="0.1" stroke-miterlimit="10" points="500.4,108.4 476.8,157.6 
			536.8,153.6 		"/>
		<polygon fill="#E55532" stroke="#000000" stroke-width="0.1" stroke-miterlimit="10" points="536.8,153.6 490.5,180.2 
			540.7,185.1 		"/>
		<polygon fill="#FFD28D" stroke="#000000" stroke-width="0.1" stroke-miterlimit="10" points="527,92.6 500.4,108.4 541.7,115.3 		
			"/>
		<polygon fill="#FFAD61" stroke="#000000" stroke-width="0.1" stroke-miterlimit="10" points="500.4,108.4 536.8,153.6 
			541.7,115.3 		"/>
		<polygon fill="#F48045" stroke="#000000" stroke-width="0.1" stroke-miterlimit="10" points="536.8,153.6 540.7,185.1 
			590.9,158.6 		"/>
		<polygon fill="#FC9568" stroke="#000000" stroke-width="0.1" stroke-miterlimit="10" points="541.7,115.3 536.8,153.6 
			590.9,158.6 		"/>
		<polygon fill="#EC8157" stroke="#000000" stroke-width="0.1" stroke-miterlimit="10" points="590.9,158.6 540.7,185.1 593.9,192 
					"/>
		<polygon fill="#FBAD8C" stroke="#000000" stroke-width="0.1" stroke-miterlimit="10" points="541.7,115.3 590.9,158.6 
			608.6,158.6 		"/>
		<polygon fill="#FEB396" stroke="#000000" stroke-width="0.1" stroke-miterlimit="10" points="590.9,158.6 593.9,192 610.6,176.3 
					"/>
		<polygon fill="#F9BDA5" stroke="#000000" stroke-width="0.1" stroke-miterlimit="10" points="608.6,158.6 590.9,158.6 
			610.6,176.3 		"/>
	</g>
</g>
</svg>
