<?xml version="1.0" encoding="utf-8"?>
<!-- Generator: Adobe Illustrator 24.1.0, SVG Export Plug-In . SVG Version: 6.00 Build 0)  -->
<svg version="1.1" baseProfile="tiny" id="Layer_1" xmlns="http://www.w3.org/2000/svg" xmlns:xlink="http://www.w3.org/1999/xlink"
	 x="0px" y="0px" viewBox="0 0 996 748.5" xml:space="preserve">
<g>
	<g>
		<polygon fill="#FDD35A" stroke="#000000" stroke-width="0.3" stroke-miterlimit="10" points="0,119.7 6.3,176.4 194.7,263.8 		"/>
		<polygon fill="#FEE791" stroke="#000000" stroke-width="0.3" stroke-miterlimit="10" points="184,173.8 0,119.7 194.7,263.8 		"/>
		<polygon fill="#FFF8C4" stroke="#000000" stroke-width="0.3" stroke-miterlimit="10" points="36.3,92.1 0,119.7 184,173.8 		"/>
		<polygon fill="#FFF386" stroke="#000000" stroke-width="0.3" stroke-miterlimit="10" points="6.3,176.4 103.7,346.8 194.7,263.8 
					"/>
		<polygon fill="#FEE06A" stroke="#000000" stroke-width="0.3" stroke-miterlimit="10" points="206.3,146.8 36.3,92.1 184,173.8 		
			"/>
		<polygon fill="#FFF386" stroke="#000000" stroke-width="0.3" stroke-miterlimit="10" points="103.7,346.8 136,356.1 204,310.1 		
			"/>
		<polygon fill="#FEE06A" stroke="#000000" stroke-width="0.3" stroke-miterlimit="10" points="194.7,263.8 103.7,346.8 204,310.1 
					"/>
		<polygon fill="#FFF8C4" stroke="#000000" stroke-width="0.3" stroke-miterlimit="10" points="136,356.1 210,419.7 270.7,348.1 		
			"/>
		<polygon fill="#FEE06A" stroke="#000000" stroke-width="0.3" stroke-miterlimit="10" points="204,310.1 136,356.1 270.7,348.1 		
			"/>
		<polygon fill="#FCD965" stroke="#000000" stroke-width="0.3" stroke-miterlimit="10" points="218.3,608.8 179,718.4 264.7,619.1 
					"/>
		<polygon fill="#EBB431" stroke="#000000" stroke-width="0.3" stroke-miterlimit="10" points="179,718.4 216.3,733.1 264.7,619.1 
					"/>
		<polygon fill="#F1BC2E" stroke="#000000" stroke-width="0.3" stroke-miterlimit="10" points="362.3,278.1 206.3,146.8 184,173.8 
					"/>
		<polygon fill="#FBCA4F" stroke="#000000" stroke-width="0.3" stroke-miterlimit="10" points="184,173.8 194.7,263.8 353.3,303.8 
					"/>
		<polygon fill="#E06F04" stroke="#000000" stroke-width="0.3" stroke-miterlimit="10" points="353.3,303.8 362.3,278.1 184,173.8 
					"/>
		<polygon fill="#F3C251" stroke="#000000" stroke-width="0.3" stroke-miterlimit="10" points="194.7,263.8 204,310.1 357.3,335.8 
					"/>
		<polygon fill="#E0540D" stroke="#000000" stroke-width="0.3" stroke-miterlimit="10" points="353.3,303.8 194.7,263.8 
			357.3,335.8 		"/>
		<polygon fill="#FFF386" stroke="#000000" stroke-width="0.3" stroke-miterlimit="10" points="210,419.7 198,474.1 287.3,449.1 		
			"/>
		<polygon fill="#FCD965" stroke="#000000" stroke-width="0.3" stroke-miterlimit="10" points="198,474.1 218.3,504.7 287.3,449.1 
					"/>
		<polygon fill="#E17827" stroke="#000000" stroke-width="0.3" stroke-miterlimit="10" points="204,310.1 270.7,348.1 357.3,335.8 
					"/>
		<polygon fill="#FAC540" stroke="#000000" stroke-width="0.3" stroke-miterlimit="10" points="270.7,348.1 210,419.7 287.3,449.1 
					"/>
		<polygon fill="#D47808" stroke="#000000" stroke-width="0.3" stroke-miterlimit="10" points="216.3,733.1 279.3,682.7 
			264.7,619.1 		"/>
		<polygon fill="#E4970F" stroke="#000000" stroke-width="0.3" stroke-miterlimit="10" points="218.3,504.7 218.3,608.8 
			287.3,449.1 		"/>
		<polygon fill="#FBCA4F" stroke="#000000" stroke-width="0.3" stroke-miterlimit="10" points="287.3,449.1 218.3,608.8 
			264.7,619.1 		"/>
		<polygon fill="#EFA200" stroke="#000000" stroke-width="0.3" stroke-miterlimit="10" points="264.7,619.1 388.7,376.8 
			287.3,449.1 		"/>
		<polygon fill="#F6BC2C" stroke="#000000" stroke-width="0.3" stroke-miterlimit="10" points="264.7,619.1 356.7,548.1 
			388.7,376.8 		"/>
		<polygon fill="#DE8A00" stroke="#000000" stroke-width="0.3" stroke-miterlimit="10" points="279.3,682.7 356.7,548.1 
			264.7,619.1 		"/>
		<polygon fill="#F4B120" stroke="#000000" stroke-width="0.3" stroke-miterlimit="10" points="270.7,348.1 287.3,449.1 
			357.3,335.8 		"/>
		<polygon fill="#E66B28" stroke="#000000" stroke-width="0.3" stroke-miterlimit="10" points="287.3,449.1 388.7,376.8 
			357.3,335.8 		"/>
		<polygon fill="#BF4827" stroke="#000000" stroke-width="0.3" stroke-miterlimit="10" points="356.7,548.1 415,394.7 388.7,376.8 
					"/>
	</g>
	<g>
		<polygon fill="#FFF386" stroke="#000000" stroke-width="0.2" stroke-miterlimit="10" points="439.7,106.4 350.7,206.8 
			487.3,150.4 		"/>
		<polygon fill="#FFF8C4" stroke="#000000" stroke-width="0.2" stroke-miterlimit="10" points="360.7,250.4 390.3,264.7 
			350.7,206.8 		"/>
		<polygon fill="#FEE06A" stroke="#000000" stroke-width="0.2" stroke-miterlimit="10" points="350.7,206.8 390.3,264.7 
			487.3,150.4 		"/>
		<polygon fill="#E89534" stroke="#000000" stroke-width="0.2" stroke-miterlimit="10" points="390.3,264.7 362.3,278.1 
			353.3,303.8 		"/>
		<polygon fill="#F5A841" stroke="#000000" stroke-width="0.2" stroke-miterlimit="10" points="466,290.8 390.3,264.7 353.3,303.8 
					"/>
		<polygon fill="#FFE96D" stroke="#000000" stroke-width="0.2" stroke-miterlimit="10" points="466,290.8 353.3,303.8 357.3,335.8 
					"/>
		<polygon fill="#FBCB52" stroke="#000000" stroke-width="0.2" stroke-miterlimit="10" points="388.7,376.8 511,323.8 357.3,335.8 
					"/>
		<polygon fill="#FEE06D" stroke="#000000" stroke-width="0.2" stroke-miterlimit="10" points="357.3,335.8 511,323.8 466,290.8 		
			"/>
		<polygon fill="#DE8D00" stroke="#000000" stroke-width="0.2" stroke-miterlimit="10" points="415,394.7 441.7,383.8 388.7,376.8 
					"/>
		<polygon fill="#F5A841" stroke="#000000" stroke-width="0.2" stroke-miterlimit="10" points="388.7,376.8 441.7,383.8 511,323.8 
					"/>
		<polygon fill="#FDD35A" stroke="#000000" stroke-width="0.2" stroke-miterlimit="10" points="487.3,150.4 390.3,264.7 486,216.1 
					"/>
		<polygon fill="#E66B28" stroke="#000000" stroke-width="0.2" stroke-miterlimit="10" points="535.3,234.4 390.3,264.7 466,290.8 
					"/>
		<polygon fill="#D95410" stroke="#000000" stroke-width="0.2" stroke-miterlimit="10" points="486,216.1 390.3,264.7 535.3,234.4 
					"/>
		<polygon fill="#EFA200" stroke="#000000" stroke-width="0.2" stroke-miterlimit="10" points="427.7,629.4 421.7,736.8 
			565.7,555.8 		"/>
		<polygon fill="#E18D00" stroke="#000000" stroke-width="0.2" stroke-miterlimit="10" points="565.7,555.8 421.7,736.8 586,558.8 
					"/>
		<polygon fill="#C96312" stroke="#000000" stroke-width="0.2" stroke-miterlimit="10" points="421.7,736.8 456.7,748.4 586,558.8 
					"/>
		<polygon fill="#FBCB52" stroke="#000000" stroke-width="0.2" stroke-miterlimit="10" points="458.3,548.1 427.7,629.4 
			557.7,537.1 		"/>
		<polygon fill="#D47808" stroke="#000000" stroke-width="0.2" stroke-miterlimit="10" points="557.7,537.1 427.7,629.4 
			565.7,555.8 		"/>
		<polygon fill="#FFF8C4" stroke="#000000" stroke-width="0.2" stroke-miterlimit="10" points="470.3,8.1 439.7,106.4 511.3,0.1 		
			"/>
		<polygon fill="#FCCE4A" stroke="#000000" stroke-width="0.2" stroke-miterlimit="10" points="511.3,0.1 439.7,106.4 487.3,150.4 
					"/>
		<polygon fill="#F6A921" stroke="#000000" stroke-width="0.2" stroke-miterlimit="10" points="441.7,383.8 504,468.8 488.3,400.8 
					"/>
		<polygon fill="#FBCB52" stroke="#000000" stroke-width="0.2" stroke-miterlimit="10" points="511,323.8 441.7,383.8 488.3,400.8 
					"/>
		<polygon fill="#E18D00" stroke="#000000" stroke-width="0.2" stroke-miterlimit="10" points="456.7,748.4 520.7,704.1 586,558.8 
					"/>
		<polygon fill="#F6A921" stroke="#000000" stroke-width="0.2" stroke-miterlimit="10" points="499.3,492.7 458.3,548.1 
			557.7,537.1 		"/>
		<polygon fill="#F5A841" stroke="#000000" stroke-width="0.2" stroke-miterlimit="10" points="466,290.8 511,323.8 588,271.8 		"/>
		<polygon fill="#E89534" stroke="#000000" stroke-width="0.2" stroke-miterlimit="10" points="535.3,234.4 466,290.8 588,271.8 		
			"/>
		<polygon fill="#EF981A" stroke="#000000" stroke-width="0.2" stroke-miterlimit="10" points="487.3,150.4 486,216.1 558.7,190.1 
					"/>
		<polygon fill="#E66B28" stroke="#000000" stroke-width="0.2" stroke-miterlimit="10" points="486,216.1 535.3,234.4 558.7,190.1 
					"/>
		<polygon fill="#F4B120" stroke="#000000" stroke-width="0.2" stroke-miterlimit="10" points="558.7,190.1 511.3,0.1 487.3,150.4 
					"/>
		<polygon fill="#FEF9C4" stroke="#000000" stroke-width="0.2" stroke-miterlimit="10" points="488.3,400.8 585,417.1 511,323.8 		
			"/>
		<polygon fill="#FEE06A" stroke="#000000" stroke-width="0.2" stroke-miterlimit="10" points="488.3,400.8 504,468.8 585,417.1 		
			"/>
		<polygon fill="#BB4D16" stroke="#000000" stroke-width="0.2" stroke-miterlimit="10" points="560,509.1 499.3,492.7 557.7,537.1 
					"/>
		<polygon fill="#FDD35A" stroke="#000000" stroke-width="0.2" stroke-miterlimit="10" points="504,468.8 560,509.1 585,417.1 		"/>
		<polygon fill="#FFF7A2" stroke="#000000" stroke-width="0.2" stroke-miterlimit="10" points="511,323.8 585,417.1 588,271.8 		"/>
		<polygon fill="#E17827" stroke="#000000" stroke-width="0.2" stroke-miterlimit="10" points="676.3,176.4 511.3,0.1 558.7,190.1 
					"/>
		<polygon fill="#C04928" stroke="#000000" stroke-width="0.2" stroke-miterlimit="10" points="520.7,704.1 611,548.1 586,558.8 		
			"/>
		<polygon fill="#D95410" stroke="#000000" stroke-width="0.2" stroke-miterlimit="10" points="535.3,234.4 676.3,176.4 
			558.7,190.1 		"/>
		<polygon fill="#E17827" stroke="#000000" stroke-width="0.2" stroke-miterlimit="10" points="588,271.8 676.3,176.4 535.3,234.4 
					"/>
		<polygon fill="#DE8D00" stroke="#000000" stroke-width="0.2" stroke-miterlimit="10" points="586,558.8 560,509.1 557.7,537.1 		
			"/>
		<polygon fill="#CA6810" stroke="#000000" stroke-width="0.2" stroke-miterlimit="10" points="565.7,555.8 586,558.8 557.7,537.1 
					"/>
		<polygon fill="#FFEF74" stroke="#000000" stroke-width="0.2" stroke-miterlimit="10" points="585,417.1 560,509.1 718.3,480.1 		
			"/>
		<polygon fill="#FFE97E" stroke="#000000" stroke-width="0.2" stroke-miterlimit="10" points="586,558.8 611,548.1 560,509.1 		"/>
		<polygon fill="#FAC540" stroke="#000000" stroke-width="0.2" stroke-miterlimit="10" points="611,548.1 646,545.1 560,509.1 		"/>
		<polygon fill="#FEE06D" stroke="#000000" stroke-width="0.2" stroke-miterlimit="10" points="560,509.1 646,545.1 718.3,480.1 		
			"/>
		<polygon fill="#FED950" stroke="#000000" stroke-width="0.2" stroke-miterlimit="10" points="588,271.8 585,417.1 646,279.4 		"/>
		<polygon fill="#FEE684" stroke="#000000" stroke-width="0.2" stroke-miterlimit="10" points="646,279.4 585,417.1 702.7,339.7 		
			"/>
		<polygon fill="#FDF597" stroke="#000000" stroke-width="0.2" stroke-miterlimit="10" points="585,417.1 718.3,480.1 707.7,424.1 
					"/>
		<polygon fill="#FFF386" stroke="#000000" stroke-width="0.2" stroke-miterlimit="10" points="702.7,339.7 585,417.1 707.7,424.1 
					"/>
		<polygon fill="#E89534" stroke="#000000" stroke-width="0.2" stroke-miterlimit="10" points="646,279.4 676.3,176.4 588,271.8 		
			"/>
		<polygon fill="#FAC540" stroke="#000000" stroke-width="0.2" stroke-miterlimit="10" points="615.3,634.8 643.7,608.8 611,548.1 
					"/>
		<polygon fill="#EF9D12" stroke="#000000" stroke-width="0.2" stroke-miterlimit="10" points="643.7,608.8 646,545.1 611,548.1 		
			"/>
		<polygon fill="#F6C03C" stroke="#000000" stroke-width="0.2" stroke-miterlimit="10" points="646,545.1 784.7,501.1 718.3,480.1 
					"/>
		<polygon fill="#F6AB21" stroke="#000000" stroke-width="0.2" stroke-miterlimit="10" points="768.7,209.1 676.3,176.4 646,279.4 
					"/>
		<polygon fill="#FCCE4A" stroke="#000000" stroke-width="0.2" stroke-miterlimit="10" points="702.7,339.7 768.7,209.1 646,279.4 
					"/>
	</g>
	<g>
		<polygon fill="#E47012" stroke="#000000" stroke-width="0.1" stroke-miterlimit="10" points="816.7,302.4 768.7,209.1 
			702.7,339.7 		"/>
		<polygon fill="#FABF38" stroke="#000000" stroke-width="0.1" stroke-miterlimit="10" points="791.7,395.1 702.7,339.7 
			707.7,424.1 		"/>
		<polygon fill="#F6A921" stroke="#000000" stroke-width="0.1" stroke-miterlimit="10" points="816.7,302.4 702.7,339.7 
			791.7,395.1 		"/>
		<polygon fill="#FFE97E" stroke="#000000" stroke-width="0.1" stroke-miterlimit="10" points="718.3,480.1 846.7,437.7 
			707.7,424.1 		"/>
		<polygon fill="#FEDC5A" stroke="#000000" stroke-width="0.1" stroke-miterlimit="10" points="707.7,424.1 846.7,437.7 
			791.7,395.1 		"/>
		<polygon fill="#EFA200" stroke="#000000" stroke-width="0.1" stroke-miterlimit="10" points="718.3,480.1 784.7,501.1 
			846.7,437.7 		"/>
		<polygon fill="#FCCE4A" stroke="#000000" stroke-width="0.1" stroke-miterlimit="10" points="869.3,268.1 768.7,209.1 
			816.7,302.4 		"/>
		<polygon fill="#FDDD76" stroke="#000000" stroke-width="0.1" stroke-miterlimit="10" points="902.3,235.4 768.7,209.1 
			869.3,268.1 		"/>
		<polygon fill="#EEB100" stroke="#000000" stroke-width="0.1" stroke-miterlimit="10" points="784.7,501.1 942,436.4 846.7,437.7 
					"/>
		<polygon fill="#E4970F" stroke="#000000" stroke-width="0.1" stroke-miterlimit="10" points="868,498.4 942,436.4 784.7,501.1 		
			"/>
		<polygon fill="#D47808" stroke="#000000" stroke-width="0.1" stroke-miterlimit="10" points="836.7,383.1 816.7,302.4 
			791.7,395.1 		"/>
		<polygon fill="#BD4A16" stroke="#000000" stroke-width="0.1" stroke-miterlimit="10" points="791.7,395.1 846.7,437.7 
			836.7,383.1 		"/>
		<polygon fill="#F6B700" stroke="#000000" stroke-width="0.1" stroke-miterlimit="10" points="851.7,354.4 816.7,302.4 
			836.7,383.1 		"/>
		<polygon fill="#EBAC23" stroke="#000000" stroke-width="0.1" stroke-miterlimit="10" points="869.3,268.1 816.7,302.4 
			851.7,354.4 		"/>
		<polygon fill="#FEE06A" stroke="#000000" stroke-width="0.1" stroke-miterlimit="10" points="836.7,383.1 868,411.8 851.7,354.4 
					"/>
		<polygon fill="#D47808" stroke="#000000" stroke-width="0.1" stroke-miterlimit="10" points="836.7,383.1 846.7,437.7 868,411.8 
					"/>
		<polygon fill="#FDD35A" stroke="#000000" stroke-width="0.1" stroke-miterlimit="10" points="846.7,437.7 903,408.4 868,411.8 		
			"/>
		<polygon fill="#DD8B00" stroke="#000000" stroke-width="0.1" stroke-miterlimit="10" points="846.7,437.7 942,436.4 903,408.4 		
			"/>
		<polygon fill="#DE8D00" stroke="#000000" stroke-width="0.1" stroke-miterlimit="10" points="900.3,356.8 869.3,268.1 
			851.7,354.4 		"/>
		<polygon fill="#2B090C" stroke="#000000" stroke-width="0.1" stroke-miterlimit="10" points="868,411.8 900.3,356.8 851.7,354.4 
					"/>
		<polygon fill="#F6C03C" stroke="#000000" stroke-width="0.1" stroke-miterlimit="10" points="868,411.8 903,408.4 900.3,356.8 		
			"/>
		<polygon fill="#CA6810" stroke="#000000" stroke-width="0.1" stroke-miterlimit="10" points="900.3,356.8 944.3,272.1 
			869.3,268.1 		"/>
		<polygon fill="#F9C443" stroke="#000000" stroke-width="0.1" stroke-miterlimit="10" points="944.3,272.1 902.3,235.4 
			869.3,268.1 		"/>
		<polygon fill="#B24516" stroke="#000000" stroke-width="0.1" stroke-miterlimit="10" points="1000,353.4 944.3,272.1 900.3,356.8 
					"/>
		<polygon fill="#C35115" stroke="#000000" stroke-width="0.1" stroke-miterlimit="10" points="903,408.4 918.3,385.1 900.3,356.8 
					"/>
		<polygon fill="#912310" stroke="#000000" stroke-width="0.1" stroke-miterlimit="10" points="918.3,385.1 1000,353.4 900.3,356.8 
					"/>
		<polygon fill="#EEB100" stroke="#000000" stroke-width="0.1" stroke-miterlimit="10" points="903,408.4 942,436.4 918.3,385.1 		
			"/>
		<polygon fill="#E18D00" stroke="#000000" stroke-width="0.1" stroke-miterlimit="10" points="918.3,385.1 942,436.4 1000,353.4 		
			"/>
		<polygon fill="#C96312" stroke="#000000" stroke-width="0.1" stroke-miterlimit="10" points="942,436.4 996,400.4 1000,353.4 		
			"/>
	</g>
</g>
</svg>
