<?xml version="1.0" encoding="utf-8"?>
<!-- Generator: Adobe Illustrator 24.1.0, SVG Export Plug-In . SVG Version: 6.00 Build 0)  -->
<svg version="1.1" baseProfile="tiny" id="图层_1"
	 xmlns="http://www.w3.org/2000/svg" xmlns:xlink="http://www.w3.org/1999/xlink" x="0px" y="0px" viewBox="0 0 1001 494"
	 xml:space="preserve">
<g>
	<g>
		<polygon fill="#163540" stroke="#000000" stroke-width="0.3" stroke-miterlimit="10" points="587.2,211.9 588.2,259 647.3,231 		
			"/>
		<polygon fill="#163540" stroke="#000000" stroke-width="0.3" stroke-miterlimit="10" points="647.3,231 588.2,259 651.3,260 		"/>
		<polygon fill="#734808" stroke="#000000" stroke-width="0.3" stroke-miterlimit="10" points="651.3,260 588.2,259 653.3,323.2 		
			"/>
		<polygon fill="#488BA2" stroke="#000000" stroke-width="0.3" stroke-miterlimit="10" points="584.2,141.8 587.2,211.9 
			656.3,198.9 		"/>
		<polygon fill="#488BA2" stroke="#000000" stroke-width="0.3" stroke-miterlimit="10" points="587.2,211.9 647.3,231 656.3,198.9 
					"/>
		<polygon fill="#AD6B0B" stroke="#000000" stroke-width="0.3" stroke-miterlimit="10" points="584.2,141.8 656.3,198.9 
			714.4,144.8 		"/>
		<polygon fill="#AD6B0B" stroke="#000000" stroke-width="0.3" stroke-miterlimit="10" points="714.4,144.8 656.3,198.9 739.5,261 
					"/>
		<polygon fill="#734808" stroke="#000000" stroke-width="0.3" stroke-miterlimit="10" points="651.3,260 653.3,323.2 739.5,261 		
			"/>
		<polygon fill="#163540" stroke="#000000" stroke-width="0.3" stroke-miterlimit="10" points="647.3,231 651.3,260 739.5,261 		"/>
		<polygon fill="#488BA2" stroke="#000000" stroke-width="0.3" stroke-miterlimit="10" points="656.3,198.9 647.3,231 739.5,261 		
			"/>
		<polygon fill="#E68F0F" stroke="#000000" stroke-width="0.3" stroke-miterlimit="10" points="714.4,144.8 739.5,261 783.6,191.9 
					"/>
		<polygon fill="#734808" stroke="#000000" stroke-width="0.3" stroke-miterlimit="10" points="783.6,191.9 739.5,261 833.7,266 		
			"/>
		<polygon fill="#E68F0F" stroke="#000000" stroke-width="0.3" stroke-miterlimit="10" points="739.5,261 653.3,323.2 839.7,459.4 
					"/>
		<polygon fill="#AD6B0B" stroke="#000000" stroke-width="0.3" stroke-miterlimit="10" points="833.7,266 739.5,261 839.7,459.4 		
			"/>
		<polygon fill="#734808" stroke="#000000" stroke-width="0.3" stroke-miterlimit="10" points="783.6,191.9 833.7,266 848.7,92.7 		
			"/>
		<polygon fill="#E68F0F" stroke="#000000" stroke-width="0.3" stroke-miterlimit="10" points="714.4,144.8 783.6,191.9 848.7,92.7 
					"/>
		<polygon fill="#734808" stroke="#000000" stroke-width="0.3" stroke-miterlimit="10" points="833.7,266 839.7,459.4 918.8,492.5 
					"/>
		<polygon fill="#604010" stroke="#000000" stroke-width="0.3" stroke-miterlimit="10" points="848.7,92.7 833.7,266 1001,121.7 		
			"/>
	</g>
	<g>
		<polygon fill="#488BA2" stroke="#000000" stroke-width="0.2" stroke-miterlimit="10" points="306.6,339.2 314.6,398.3 
			364.7,378.3 		"/>
		<polygon fill="#A1C4D0" stroke="#000000" stroke-width="0.2" stroke-miterlimit="10" points="210.4,146.8 331.7,191.9 366.7,89.7 
					"/>
		<polygon fill="#145268" stroke="#000000" stroke-width="0.2" stroke-miterlimit="10" points="314.6,398.3 316.6,444.4 
			369.7,402.3 		"/>
		<polygon fill="#145268" stroke="#000000" stroke-width="0.2" stroke-miterlimit="10" points="364.7,378.3 314.6,398.3 
			369.7,402.3 		"/>
		<polygon fill="#EBA63F" stroke="#000000" stroke-width="0.2" stroke-miterlimit="10" points="327.7,281.1 306.6,339.2 
			377.8,314.1 		"/>
		<polygon fill="#488BA2" stroke="#000000" stroke-width="0.2" stroke-miterlimit="10" points="306.6,339.2 364.7,378.3 
			379.8,346.2 		"/>
		<polygon fill="#EBA63F" stroke="#000000" stroke-width="0.2" stroke-miterlimit="10" points="377.8,314.1 306.6,339.2 
			379.8,346.2 		"/>
		<polygon fill="#EFB865" stroke="#000000" stroke-width="0.2" stroke-miterlimit="10" points="331.7,191.9 327.7,281.1 383.8,262 
					"/>
		<polygon fill="#E68F0F" stroke="#000000" stroke-width="0.2" stroke-miterlimit="10" points="327.7,281.1 377.8,314.1 383.8,262 
					"/>
		<polygon fill="#F3CA8C" stroke="#000000" stroke-width="0.2" stroke-miterlimit="10" points="210.4,146.8 366.7,89.7 420.8,1.5 		
			"/>
		<polygon fill="#EBA63F" stroke="#000000" stroke-width="0.2" stroke-miterlimit="10" points="377.8,314.1 379.8,346.2 
			435.9,353.2 		"/>
		<polygon fill="#E68F0F" stroke="#000000" stroke-width="0.2" stroke-miterlimit="10" points="383.8,262 377.8,314.1 435.9,353.2 
					"/>
		<polygon fill="#145268" stroke="#000000" stroke-width="0.2" stroke-miterlimit="10" points="364.7,378.3 369.7,402.3 
			435.9,353.2 		"/>
		<polygon fill="#488BA2" stroke="#000000" stroke-width="0.2" stroke-miterlimit="10" points="379.8,346.2 364.7,378.3 
			435.9,353.2 		"/>
		<polygon fill="#EBA63F" stroke="#000000" stroke-width="0.2" stroke-miterlimit="10" points="435.9,353.2 369.7,402.3 
			450.9,457.4 		"/>
		<polygon fill="#EBA63F" stroke="#000000" stroke-width="0.2" stroke-miterlimit="10" points="369.7,402.3 316.6,444.4 
			450.9,457.4 		"/>
		<polygon fill="#E68F0F" stroke="#000000" stroke-width="0.2" stroke-miterlimit="10" points="383.8,262 435.9,353.2 468.9,233 		
			"/>
		<polygon fill="#6DA2B5" stroke="#000000" stroke-width="0.2" stroke-miterlimit="10" points="366.7,89.7 331.7,191.9 468.9,233 		
			"/>
		<polygon fill="#EFB865" stroke="#000000" stroke-width="0.2" stroke-miterlimit="10" points="331.7,191.9 383.8,262 468.9,233 		
			"/>
		<polygon fill="#EBA63F" stroke="#000000" stroke-width="0.2" stroke-miterlimit="10" points="435.9,353.2 450.9,457.4 507,411.3 
					"/>
		<polygon fill="#163540" stroke="#000000" stroke-width="0.2" stroke-miterlimit="10" points="468.9,233 435.9,353.2 514,301.1 		
			"/>
		<polygon fill="#EFB865" stroke="#000000" stroke-width="0.2" stroke-miterlimit="10" points="435.9,353.2 507,411.3 522,365.2 		
			"/>
		<polygon fill="#E68F0F" stroke="#000000" stroke-width="0.2" stroke-miterlimit="10" points="514,301.1 435.9,353.2 522,365.2 		
			"/>
		<polygon fill="#EBA63F" stroke="#000000" stroke-width="0.2" stroke-miterlimit="10" points="507,411.3 450.9,457.4 578.2,470.4 
					"/>
		<polygon fill="#E68F0F" stroke="#000000" stroke-width="0.2" stroke-miterlimit="10" points="420.8,1.5 366.7,89.7 584.2,141.8 		
			"/>
		<polygon fill="#8AB5C4" stroke="#000000" stroke-width="0.2" stroke-miterlimit="10" points="366.7,89.7 468.9,233 584.2,141.8 		
			"/>
		<polygon fill="#6DA2B5" stroke="#000000" stroke-width="0.2" stroke-miterlimit="10" points="584.2,141.8 468.9,233 586.2,211.9 
					"/>
		<polygon fill="#488BA2" stroke="#000000" stroke-width="0.2" stroke-miterlimit="10" points="584.2,141.8 586.2,211.9 
			587.2,211.9 		"/>
		<polygon fill="#163540" stroke="#000000" stroke-width="0.2" stroke-miterlimit="10" points="587.2,211.9 586.2,211.9 588.2,259 
					"/>
		<polygon fill="#163540" stroke="#000000" stroke-width="0.2" stroke-miterlimit="10" points="468.9,233 514,301.1 588.2,259 		"/>
		<polygon fill="#488BA2" stroke="#000000" stroke-width="0.2" stroke-miterlimit="10" points="586.2,211.9 468.9,233 588.2,259 		
			"/>
		<polygon fill="#E68F0F" stroke="#000000" stroke-width="0.2" stroke-miterlimit="10" points="514,301.1 522,365.2 614.2,377.3 		
			"/>
		<polygon fill="#E68F0F" stroke="#000000" stroke-width="0.2" stroke-miterlimit="10" points="588.2,259 514,301.1 614.2,377.3 		
			"/>
		<polygon fill="#EFB865" stroke="#000000" stroke-width="0.2" stroke-miterlimit="10" points="522,365.2 507,411.3 614.2,377.3 		
			"/>
		<polygon fill="#EFB865" stroke="#000000" stroke-width="0.2" stroke-miterlimit="10" points="507,411.3 578.2,470.4 614.2,377.3 
					"/>
	</g>
	<g>
		<polygon fill="#A1C4D0" stroke="#000000" stroke-width="0.1" stroke-miterlimit="10" points="11,421.3 1,415.3 16,439.4 		"/>
		<polygon fill="#C7DCE3" stroke="#000000" stroke-width="0.1" stroke-miterlimit="10" points="27.1,305.1 1,415.3 36.1,350.2 		"/>
		<polygon fill="#A1C4D0" stroke="#000000" stroke-width="0.1" stroke-miterlimit="10" points="11,421.3 16,439.4 36.1,431.4 		"/>
		<polygon fill="#A1C4D0" stroke="#000000" stroke-width="0.1" stroke-miterlimit="10" points="16,439.4 27.1,457.4 36.1,431.4 		
			"/>
		<polygon fill="#A1C4D0" stroke="#000000" stroke-width="0.1" stroke-miterlimit="10" points="1,415.3 11,421.3 42.1,372.3 		"/>
		<polygon fill="#A1C4D0" stroke="#000000" stroke-width="0.1" stroke-miterlimit="10" points="36.1,350.2 1,415.3 42.1,372.3 		"/>
		<polygon fill="#A1C4D0" stroke="#000000" stroke-width="0.1" stroke-miterlimit="10" points="11,421.3 36.1,431.4 42.1,417.3 		
			"/>
		<polygon fill="#A1C4D0" stroke="#000000" stroke-width="0.1" stroke-miterlimit="10" points="42.1,372.3 11,421.3 42.1,417.3 		
			"/>
		<polygon fill="#C7DCE3" stroke="#000000" stroke-width="0.1" stroke-miterlimit="10" points="27.1,305.1 36.1,350.2 43.1,322.2 		
			"/>
		<polygon fill="#FFFFFF" stroke="#000000" stroke-width="0.1" stroke-miterlimit="10" points="36.1,350.2 42.1,372.3 43.1,350.2 		
			"/>
		<polygon fill="#FFFFFF" stroke="#000000" stroke-width="0.1" stroke-miterlimit="10" points="43.1,322.2 36.1,350.2 46.1,334.2 		
			"/>
		<polygon fill="#FFFFFF" stroke="#000000" stroke-width="0.1" stroke-miterlimit="10" points="36.1,350.2 43.1,350.2 46.1,334.2 		
			"/>
		<polygon fill="#FFFFFF" stroke="#000000" stroke-width="0.1" stroke-miterlimit="10" points="43.1,322.2 46.1,334.2 51.1,323.2 		
			"/>
		<polygon fill="#FFFFFF" stroke="#000000" stroke-width="0.1" stroke-miterlimit="10" points="43.1,350.2 42.1,372.3 51.1,366.2 		
			"/>
		<polygon fill="#A1C4D0" stroke="#000000" stroke-width="0.1" stroke-miterlimit="10" points="27.1,305.1 43.1,322.2 53.1,312.1 		
			"/>
		<polygon fill="#FFFFFF" stroke="#000000" stroke-width="0.1" stroke-miterlimit="10" points="43.1,322.2 51.1,323.2 53.1,312.1 		
			"/>
		<polygon fill="#A1C4D0" stroke="#000000" stroke-width="0.1" stroke-miterlimit="10" points="42.1,372.3 42.1,417.3 54.1,384.3 		
			"/>
		<polygon fill="#FFFFFF" stroke="#000000" stroke-width="0.1" stroke-miterlimit="10" points="51.1,366.2 42.1,372.3 54.1,384.3 		
			"/>
		<polygon fill="#E68F0F" stroke="#000000" stroke-width="0.1" stroke-miterlimit="10" points="51.1,323.2 46.1,334.2 55.1,334.2 		
			"/>
		<polygon fill="#895100" stroke="#000000" stroke-width="0.1" stroke-miterlimit="10" points="43.1,350.2 51.1,366.2 56.1,345.2 		
			"/>
		<polygon fill="#895100" stroke="#000000" stroke-width="0.1" stroke-miterlimit="10" points="46.1,334.2 43.1,350.2 56.1,345.2 		
			"/>
		<polygon fill="#895100" stroke="#000000" stroke-width="0.1" stroke-miterlimit="10" points="55.1,334.2 46.1,334.2 56.1,345.2 		
			"/>
		<polygon fill="#8AB5C4" stroke="#000000" stroke-width="0.1" stroke-miterlimit="10" points="54.1,384.3 42.1,417.3 56.1,416.3 		
			"/>
		<polygon fill="#8AB5C4" stroke="#000000" stroke-width="0.1" stroke-miterlimit="10" points="42.1,417.3 36.1,431.4 59.1,437.4 		
			"/>
		<polygon fill="#8AB5C4" stroke="#000000" stroke-width="0.1" stroke-miterlimit="10" points="56.1,416.3 42.1,417.3 59.1,437.4 		
			"/>
		<polygon fill="#8AB5C4" stroke="#000000" stroke-width="0.1" stroke-miterlimit="10" points="36.1,431.4 27.1,457.4 59.1,437.4 		
			"/>
		<polygon fill="#8AB5C4" stroke="#000000" stroke-width="0.1" stroke-miterlimit="10" points="59.1,437.4 27.1,457.4 61.1,471.4 		
			"/>
		<polygon fill="#895100" stroke="#000000" stroke-width="0.1" stroke-miterlimit="10" points="56.1,345.2 51.1,366.2 66.1,352.2 		
			"/>
		<polygon fill="#FFFFFF" stroke="#000000" stroke-width="0.1" stroke-miterlimit="10" points="53.1,312.1 51.1,323.2 66.1,316.1 		
			"/>
		<polygon fill="#E68F0F" stroke="#000000" stroke-width="0.1" stroke-miterlimit="10" points="51.1,323.2 55.1,334.2 67.1,329.2 		
			"/>
		<polygon fill="#E68F0F" stroke="#000000" stroke-width="0.1" stroke-miterlimit="10" points="66.1,316.1 51.1,323.2 67.1,329.2 		
			"/>
		<polygon fill="#230B00" stroke="#000000" stroke-width="0.1" stroke-miterlimit="10" points="55.1,334.2 56.1,345.2 67.1,329.2 		
			"/>
		<polygon fill="#FFFFFF" stroke="#000000" stroke-width="0.1" stroke-miterlimit="10" points="51.1,366.2 54.1,384.3 70.1,376.3 		
			"/>
		<polygon fill="#895100" stroke="#000000" stroke-width="0.1" stroke-miterlimit="10" points="66.1,352.2 51.1,366.2 70.1,376.3 		
			"/>
		<polygon fill="#6DA2B5" stroke="#000000" stroke-width="0.1" stroke-miterlimit="10" points="54.1,384.3 56.1,416.3 70.1,393.3 		
			"/>
		<polygon fill="#FFFFFF" stroke="#000000" stroke-width="0.1" stroke-miterlimit="10" points="70.1,376.3 54.1,384.3 70.1,393.3 		
			"/>
		<polygon fill="#230B00" stroke="#000000" stroke-width="0.1" stroke-miterlimit="10" points="56.1,345.2 66.1,352.2 78.2,339.2 		
			"/>
		<polygon fill="#230B00" stroke="#000000" stroke-width="0.1" stroke-miterlimit="10" points="67.1,329.2 56.1,345.2 78.2,339.2 		
			"/>
		<polygon fill="#E68F0F" stroke="#000000" stroke-width="0.1" stroke-miterlimit="10" points="66.1,316.1 67.1,329.2 79.2,316.1 		
			"/>
		<polygon fill="#F0DC8A" stroke="#000000" stroke-width="0.1" stroke-miterlimit="10" points="67.1,329.2 78.2,339.2 79.2,316.1 		
			"/>
		<polygon fill="#FFFFFF" stroke="#000000" stroke-width="0.1" stroke-miterlimit="10" points="70.1,376.3 70.1,393.3 79.2,394.3 		
			"/>
		<polygon fill="#A1C4D0" stroke="#000000" stroke-width="0.1" stroke-miterlimit="10" points="27.1,305.1 53.1,312.1 85.2,239 		
			"/>
		<polygon fill="#FFFFFF" stroke="#000000" stroke-width="0.1" stroke-miterlimit="10" points="66.1,316.1 79.2,316.1 86.2,301.1 		
			"/>
		<polygon fill="#FFFFFF" stroke="#000000" stroke-width="0.1" stroke-miterlimit="10" points="53.1,312.1 66.1,316.1 86.2,301.1 		
			"/>
		<polygon fill="#C7DCE3" stroke="#000000" stroke-width="0.1" stroke-miterlimit="10" points="85.2,239 53.1,312.1 86.2,301.1 		
			"/>
		<polygon fill="#6DA2B5" stroke="#000000" stroke-width="0.1" stroke-miterlimit="10" points="70.1,393.3 56.1,416.3 87.2,420.3 		
			"/>
		<polygon fill="#8AB5C4" stroke="#000000" stroke-width="0.1" stroke-miterlimit="10" points="79.2,394.3 70.1,393.3 87.2,420.3 		
			"/>
		<polygon fill="#6DA2B5" stroke="#000000" stroke-width="0.1" stroke-miterlimit="10" points="56.1,416.3 59.1,437.4 87.2,420.3 		
			"/>
		<polygon fill="#FFFFFF" stroke="#000000" stroke-width="0.1" stroke-miterlimit="10" points="70.1,376.3 79.2,394.3 93.2,368.2 		
			"/>
		<polygon fill="#EBA63F" stroke="#000000" stroke-width="0.1" stroke-miterlimit="10" points="66.1,352.2 70.1,376.3 93.2,368.2 		
			"/>
		<polygon fill="#EBA63F" stroke="#000000" stroke-width="0.1" stroke-miterlimit="10" points="78.2,339.2 66.1,352.2 93.2,368.2 		
			"/>
		<polygon fill="#F0DC8A" stroke="#000000" stroke-width="0.1" stroke-miterlimit="10" points="79.2,316.1 78.2,339.2 99.2,327.2 		
			"/>
		<polygon fill="#FFFFFF" stroke="#000000" stroke-width="0.1" stroke-miterlimit="10" points="86.2,301.1 79.2,316.1 100.2,304.1 
					"/>
		<polygon fill="#FFFFFF" stroke="#000000" stroke-width="0.1" stroke-miterlimit="10" points="79.2,316.1 99.2,327.2 100.2,304.1 
					"/>
		<polygon fill="#6DA2B5" stroke="#000000" stroke-width="0.1" stroke-miterlimit="10" points="85.2,239 86.2,301.1 100.2,304.1 		
			"/>
		<polygon fill="#8AB5C4" stroke="#000000" stroke-width="0.1" stroke-miterlimit="10" points="79.2,394.3 87.2,420.3 105.2,386.3 
					"/>
		<polygon fill="#FFFFFF" stroke="#000000" stroke-width="0.1" stroke-miterlimit="10" points="93.2,368.2 79.2,394.3 105.2,386.3 
					"/>
		<polygon fill="#EBA63F" stroke="#000000" stroke-width="0.1" stroke-miterlimit="10" points="78.2,339.2 93.2,368.2 106.2,349.2 
					"/>
		<polygon fill="#F0DC8A" stroke="#000000" stroke-width="0.1" stroke-miterlimit="10" points="99.2,327.2 78.2,339.2 106.2,349.2 
					"/>
		<polygon fill="#8AB5C4" stroke="#000000" stroke-width="0.1" stroke-miterlimit="10" points="105.2,386.3 87.2,420.3 116.2,463.4 
					"/>
		<polygon fill="#6DA2B5" stroke="#000000" stroke-width="0.1" stroke-miterlimit="10" points="59.1,437.4 61.1,471.4 116.2,463.4 
					"/>
		<polygon fill="#6DA2B5" stroke="#000000" stroke-width="0.1" stroke-miterlimit="10" points="87.2,420.3 59.1,437.4 116.2,463.4 
					"/>
		<polygon fill="#FFFFFF" stroke="#000000" stroke-width="0.1" stroke-miterlimit="10" points="100.2,304.1 99.2,327.2 118.2,320.1 
					"/>
		<polygon fill="#FFFFFF" stroke="#000000" stroke-width="0.1" stroke-miterlimit="10" points="99.2,327.2 106.2,349.2 118.2,320.1 
					"/>
		<polygon fill="#FFFFFF" stroke="#000000" stroke-width="0.1" stroke-miterlimit="10" points="93.2,368.2 105.2,386.3 122.2,372.3 
					"/>
		<polygon fill="#FFFFFF" stroke="#000000" stroke-width="0.1" stroke-miterlimit="10" points="106.2,349.2 93.2,368.2 122.2,372.3 
					"/>
		<polygon fill="#FFFFFF" stroke="#000000" stroke-width="0.1" stroke-miterlimit="10" points="118.2,320.1 106.2,349.2 
			127.3,345.2 		"/>
		<polygon fill="#FFFFFF" stroke="#000000" stroke-width="0.1" stroke-miterlimit="10" points="106.2,349.2 122.2,372.3 
			127.3,345.2 		"/>
		<polygon fill="#6DA2B5" stroke="#000000" stroke-width="0.1" stroke-miterlimit="10" points="85.2,239 100.2,304.1 130.3,289.1 		
			"/>
		<polygon fill="#A1C4D0" stroke="#000000" stroke-width="0.1" stroke-miterlimit="10" points="100.2,304.1 118.2,320.1 
			130.3,289.1 		"/>
		<polygon fill="#8AB5C4" stroke="#000000" stroke-width="0.1" stroke-miterlimit="10" points="118.2,320.1 127.3,345.2 
			165.3,350.2 		"/>
		<polygon fill="#8AB5C4" stroke="#000000" stroke-width="0.1" stroke-miterlimit="10" points="130.3,289.1 118.2,320.1 
			165.3,350.2 		"/>
		<polygon fill="#8AB5C4" stroke="#000000" stroke-width="0.1" stroke-miterlimit="10" points="127.3,345.2 122.2,372.3 
			165.3,350.2 		"/>
		<polygon fill="#A1C4D0" stroke="#000000" stroke-width="0.1" stroke-miterlimit="10" points="85.2,239 130.3,289.1 173.3,208.9 		
			"/>
		<polygon fill="#8AB5C4" stroke="#000000" stroke-width="0.1" stroke-miterlimit="10" points="165.3,350.2 122.2,372.3 
			192.4,399.3 		"/>
		<polygon fill="#6DA2B5" stroke="#000000" stroke-width="0.1" stroke-miterlimit="10" points="105.2,386.3 116.2,463.4 
			192.4,399.3 		"/>
		<polygon fill="#6DA2B5" stroke="#000000" stroke-width="0.1" stroke-miterlimit="10" points="122.2,372.3 105.2,386.3 
			192.4,399.3 		"/>
		<polygon fill="#6DA2B5" stroke="#000000" stroke-width="0.1" stroke-miterlimit="10" points="165.3,350.2 192.4,399.3 
			198.4,364.2 		"/>
		<polygon fill="#6DA2B5" stroke="#000000" stroke-width="0.1" stroke-miterlimit="10" points="165.3,350.2 198.4,364.2 
			203.4,326.2 		"/>
		<polygon fill="#6DA2B5" stroke="#000000" stroke-width="0.1" stroke-miterlimit="10" points="130.3,289.1 165.3,350.2 
			203.4,326.2 		"/>
		<polygon fill="#A1C4D0" stroke="#000000" stroke-width="0.1" stroke-miterlimit="10" points="85.2,239 173.3,208.9 210.4,146.8 		
			"/>
		<polygon fill="#8AB5C4" stroke="#000000" stroke-width="0.1" stroke-miterlimit="10" points="203.4,326.2 198.4,364.2 
			227.5,343.2 		"/>
		<polygon fill="#488BA2" stroke="#000000" stroke-width="0.1" stroke-miterlimit="10" points="203.4,326.2 227.5,343.2 
			229.5,330.2 		"/>
		<polygon fill="#EBA63F" stroke="#000000" stroke-width="0.1" stroke-miterlimit="10" points="203.4,326.2 229.5,330.2 
			232.5,315.1 		"/>
		<polygon fill="#C7DCE3" stroke="#000000" stroke-width="0.1" stroke-miterlimit="10" points="210.4,146.8 173.3,208.9 234.5,237 
					"/>
		<polygon fill="#C7DCE3" stroke="#000000" stroke-width="0.1" stroke-miterlimit="10" points="173.3,208.9 130.3,289.1 234.5,237 
					"/>
		<polygon fill="#8AB5C4" stroke="#000000" stroke-width="0.1" stroke-miterlimit="10" points="198.4,364.2 192.4,399.3 
			237.5,397.3 		"/>
		<polygon fill="#8AB5C4" stroke="#000000" stroke-width="0.1" stroke-miterlimit="10" points="227.5,343.2 198.4,364.2 
			237.5,397.3 		"/>
		<polygon fill="#A1C4D0" stroke="#000000" stroke-width="0.1" stroke-miterlimit="10" points="130.3,289.1 203.4,326.2 
			240.5,287.1 		"/>
		<polygon fill="#A1C4D0" stroke="#000000" stroke-width="0.1" stroke-miterlimit="10" points="234.5,237 130.3,289.1 240.5,287.1 
					"/>
		<polygon fill="#F3CA8C" stroke="#000000" stroke-width="0.1" stroke-miterlimit="10" points="203.4,326.2 232.5,315.1 
			240.5,287.1 		"/>
		<polygon fill="#488BA2" stroke="#000000" stroke-width="0.1" stroke-miterlimit="10" points="192.4,399.3 116.2,463.4 
			247.5,453.4 		"/>
		<polygon fill="#6DA2B5" stroke="#000000" stroke-width="0.1" stroke-miterlimit="10" points="237.5,397.3 192.4,399.3 
			247.5,453.4 		"/>
		<polygon fill="#EBA63F" stroke="#000000" stroke-width="0.1" stroke-miterlimit="10" points="232.5,315.1 229.5,330.2 
			263.5,334.2 		"/>
		<polygon fill="#488BA2" stroke="#000000" stroke-width="0.1" stroke-miterlimit="10" points="229.5,330.2 227.5,343.2 
			263.5,334.2 		"/>
		<polygon fill="#8AB5C4" stroke="#000000" stroke-width="0.1" stroke-miterlimit="10" points="227.5,343.2 237.5,397.3 
			264.5,364.2 		"/>
		<polygon fill="#488BA2" stroke="#000000" stroke-width="0.1" stroke-miterlimit="10" points="263.5,334.2 227.5,343.2 
			264.5,364.2 		"/>
		<polygon fill="#A1C4D0" stroke="#000000" stroke-width="0.1" stroke-miterlimit="10" points="234.5,237 240.5,287.1 271.5,253 		
			"/>
		<polygon fill="#F3CA8C" stroke="#000000" stroke-width="0.1" stroke-miterlimit="10" points="271.5,253 240.5,287.1 274.5,301.1 
					"/>
		<polygon fill="#F3CA8C" stroke="#000000" stroke-width="0.1" stroke-miterlimit="10" points="240.5,287.1 232.5,315.1 
			274.5,301.1 		"/>
		<polygon fill="#EBA63F" stroke="#000000" stroke-width="0.1" stroke-miterlimit="10" points="232.5,315.1 263.5,334.2 
			274.5,301.1 		"/>
		<polygon fill="#488BA2" stroke="#000000" stroke-width="0.1" stroke-miterlimit="10" points="263.5,334.2 264.5,364.2 
			306.6,339.2 		"/>
		<polygon fill="#EBA63F" stroke="#000000" stroke-width="0.1" stroke-miterlimit="10" points="274.5,301.1 263.5,334.2 
			306.6,339.2 		"/>
		<polygon fill="#488BA2" stroke="#000000" stroke-width="0.1" stroke-miterlimit="10" points="306.6,339.2 264.5,364.2 
			314.6,398.3 		"/>
		<polygon fill="#6DA2B5" stroke="#000000" stroke-width="0.1" stroke-miterlimit="10" points="237.5,397.3 247.5,453.4 
			314.6,398.3 		"/>
		<polygon fill="#8AB5C4" stroke="#000000" stroke-width="0.1" stroke-miterlimit="10" points="264.5,364.2 237.5,397.3 
			314.6,398.3 		"/>
		<polygon fill="#488BA2" stroke="#000000" stroke-width="0.1" stroke-miterlimit="10" points="314.6,398.3 247.5,453.4 
			316.6,444.4 		"/>
		<polygon fill="#F3CA8C" stroke="#000000" stroke-width="0.1" stroke-miterlimit="10" points="271.5,253 274.5,301.1 327.7,281.1 
					"/>
		<polygon fill="#EBA63F" stroke="#000000" stroke-width="0.1" stroke-miterlimit="10" points="274.5,301.1 306.6,339.2 
			327.7,281.1 		"/>
		<polygon fill="#F3CA8C" stroke="#000000" stroke-width="0.1" stroke-miterlimit="10" points="271.5,253 327.7,281.1 331.7,191.9 
					"/>
		<polygon fill="#C7DCE3" stroke="#000000" stroke-width="0.1" stroke-miterlimit="10" points="210.4,146.8 234.5,237 331.7,191.9 
					"/>
		<polygon fill="#A1C4D0" stroke="#000000" stroke-width="0.1" stroke-miterlimit="10" points="234.5,237 271.5,253 331.7,191.9 		
			"/>
	</g>
</g>
</svg>
