<?xml version="1.0" encoding="utf-8"?>
<!-- Generator: Adobe Illustrator 24.1.0, SVG Export Plug-In . SVG Version: 6.00 Build 0)  -->
<svg version="1.1" baseProfile="tiny" id="图层_1"
	 xmlns="http://www.w3.org/2000/svg" xmlns:xlink="http://www.w3.org/1999/xlink" x="0px" y="0px" viewBox="0 0 1000 900"
	 xml:space="preserve">
<g>
	<g>
		<polygon fill="#B12514" stroke="#000000" stroke-width="0.2" stroke-miterlimit="10" points="457.9,467.5 464.5,594.1 
			617.7,596.3 		"/>
		<polygon fill="#AE2513" stroke="#000000" stroke-width="0.2" stroke-miterlimit="10" points="464.5,594.1 469,737.2 617.7,596.3 
					"/>
		<polygon fill="#FC5741" stroke="#000000" stroke-width="0.2" stroke-miterlimit="10" points="492.3,166.8 476.7,247.8 
			649.9,206.7 		"/>
		<polygon fill="#FD624C" stroke="#000000" stroke-width="0.2" stroke-miterlimit="10" points="622.1,56.9 492.3,166.8 649.9,206.7 
					"/>
		<polygon fill="#FD614B" stroke="#000000" stroke-width="0.2" stroke-miterlimit="10" points="476.7,247.8 457.9,467.5 
			649.9,206.7 		"/>
		<polygon fill="#942313" stroke="#000000" stroke-width="0.2" stroke-miterlimit="10" points="469,737.2 489,899.3 717.6,767.2 		
			"/>
		<polygon fill="#981F0E" stroke="#000000" stroke-width="0.2" stroke-miterlimit="10" points="617.7,596.3 469,737.2 717.6,767.2 
					"/>
		<polygon fill="#98200F" stroke="#000000" stroke-width="0.2" stroke-miterlimit="10" points="617.7,596.3 717.6,767.2 
			740.9,601.8 		"/>
		<polygon fill="#961D0C" stroke="#000000" stroke-width="0.2" stroke-miterlimit="10" points="617.7,596.3 740.9,601.8 762,459.8 
					"/>
		<polygon fill="#B22714" stroke="#000000" stroke-width="0.2" stroke-miterlimit="10" points="457.9,467.5 617.7,596.3 762,459.8 
					"/>
		<polygon fill="#E03E27" stroke="#000000" stroke-width="0.2" stroke-miterlimit="10" points="649.9,206.7 457.9,467.5 762,459.8 
					"/>
		<polygon fill="#FD5D47" stroke="#000000" stroke-width="0.2" stroke-miterlimit="10" points="622.1,56.9 649.9,206.7 784.2,24.7 
					"/>
		<polygon fill="#A92815" stroke="#000000" stroke-width="0.2" stroke-miterlimit="10" points="762,459.8 740.9,601.8 904.1,559.7 
					"/>
		<polygon fill="#A42919" stroke="#000000" stroke-width="0.2" stroke-miterlimit="10" points="740.9,601.8 717.6,767.2 
			904.1,559.7 		"/>
		<polygon fill="#F04E37" stroke="#000000" stroke-width="0.2" stroke-miterlimit="10" points="784.2,24.7 649.9,206.7 957.3,121.3 
					"/>
		<polygon fill="#E44D38" stroke="#000000" stroke-width="0.2" stroke-miterlimit="10" points="649.9,206.7 762,459.8 999.5,334.4 
					"/>
		<polygon fill="#DB4630" stroke="#000000" stroke-width="0.2" stroke-miterlimit="10" points="957.3,121.3 649.9,206.7 
			999.5,334.4 		"/>
		<polygon fill="#BE3221" stroke="#000000" stroke-width="0.2" stroke-miterlimit="10" points="762,459.8 904.1,559.7 999.5,334.4 
					"/>
	</g>
	<g>
		<polygon fill="#FE6754" stroke="#000000" stroke-width="0.1" stroke-miterlimit="10" points="42.8,121.3 -0.5,326.6 181.5,169 		
			"/>
		<polygon fill="#F75843" stroke="#000000" stroke-width="0.1" stroke-miterlimit="10" points="-0.5,326.6 90.5,553 184.8,452 		"/>
		<polygon fill="#FD6651" stroke="#000000" stroke-width="0.1" stroke-miterlimit="10" points="181.5,169 -0.5,326.6 184.8,452 		
			"/>
		<polygon fill="#FE6955" stroke="#000000" stroke-width="0.1" stroke-miterlimit="10" points="42.8,121.3 181.5,169 211.5,29.1 		
			"/>
		<polygon fill="#E6513D" stroke="#000000" stroke-width="0.1" stroke-miterlimit="10" points="184.8,452 90.5,553 211.5,590.7 		
			"/>
		<polygon fill="#E15241" stroke="#000000" stroke-width="0.1" stroke-miterlimit="10" points="211.5,590.7 90.5,553 264.8,755 		
			"/>
		<polygon fill="#FD6651" stroke="#000000" stroke-width="0.1" stroke-miterlimit="10" points="181.5,169 184.8,452 294.7,201.2 		
			"/>
		<polygon fill="#FE6651" stroke="#000000" stroke-width="0.1" stroke-miterlimit="10" points="211.5,29.1 181.5,169 294.7,201.2 		
			"/>
		<polygon fill="#DA4332" stroke="#000000" stroke-width="0.1" stroke-miterlimit="10" points="184.8,452 211.5,590.7 361.3,628.5 
					"/>
		<polygon fill="#D84736" stroke="#000000" stroke-width="0.1" stroke-miterlimit="10" points="211.5,590.7 264.8,755 361.3,628.5 
					"/>
		<polygon fill="#FC5A43" stroke="#000000" stroke-width="0.1" stroke-miterlimit="10" points="211.5,29.1 294.7,201.2 372.4,56.9 
					"/>
		<polygon fill="#FB604C" stroke="#000000" stroke-width="0.1" stroke-miterlimit="10" points="294.7,201.2 184.8,452 457.9,467.5 
					"/>
		<polygon fill="#D53D28" stroke="#000000" stroke-width="0.1" stroke-miterlimit="10" points="184.8,452 361.3,628.5 457.9,467.5 
					"/>
		<polygon fill="#D23A25" stroke="#000000" stroke-width="0.1" stroke-miterlimit="10" points="457.9,467.5 361.3,628.5 
			464.5,594.1 		"/>
		<polygon fill="#DB4433" stroke="#000000" stroke-width="0.1" stroke-miterlimit="10" points="361.3,628.5 264.8,755 469,737.2 		
			"/>
		<polygon fill="#D33C27" stroke="#000000" stroke-width="0.1" stroke-miterlimit="10" points="464.5,594.1 361.3,628.5 469,737.2 
					"/>
		<polygon fill="#F24C32" stroke="#000000" stroke-width="0.1" stroke-miterlimit="10" points="294.7,201.2 457.9,467.5 
			476.7,247.8 		"/>
		<polygon fill="#C63D2D" stroke="#000000" stroke-width="0.1" stroke-miterlimit="10" points="469,737.2 264.8,755 489,899.3 		"/>
		<polygon fill="#EF4F37" stroke="#000000" stroke-width="0.1" stroke-miterlimit="10" points="372.4,56.9 294.7,201.2 492.3,166.8 
					"/>
		<polygon fill="#F94F36" stroke="#000000" stroke-width="0.1" stroke-miterlimit="10" points="294.7,201.2 476.7,247.8 
			492.3,166.8 		"/>
	</g>
</g>
</svg>
