<?xml version="1.0" encoding="utf-8"?>
<!-- Generator: Adobe Illustrator 24.1.0, SVG Export Plug-In . SVG Version: 6.00 Build 0)  -->
<svg version="1.1" baseProfile="tiny" id="Layer_1" xmlns="http://www.w3.org/2000/svg" xmlns:xlink="http://www.w3.org/1999/xlink"
	 x="0px" y="0px" viewBox="0 0 1000.3 560.8" xml:space="preserve">
<g>
	<g>
		<polygon fill="#FAF400" stroke="#000000" stroke-width="0.2" stroke-miterlimit="10" points="744.4,46.7 609.1,0.1 467.1,75.7 		
			"/>
		<line fill="none" stroke="#000000" stroke-width="0.2" stroke-miterlimit="10" x1="839.8" y1="131.1" x2="736.1" y2="134.4"/>
		<polygon fill="#CCC503" stroke="#000000" stroke-width="0.2" stroke-miterlimit="10" points="882.4,213.1 839.8,131.1 
			832.4,168.7 		"/>
		<polygon fill="#796F00" stroke="#000000" stroke-width="0.2" stroke-miterlimit="10" points="579.8,559.1 715.4,495.7 
			606.4,530.1 		"/>
		<polygon fill="#AA9400" stroke="#000000" stroke-width="0.2" stroke-miterlimit="10" points="819.8,201.4 882.4,213.1 
			832.4,168.7 		"/>
		<polygon fill="#F6F205" stroke="#000000" stroke-width="0.2" stroke-miterlimit="10" points="832.4,168.7 839.8,131.1 
			796.4,132.4 		"/>
		<polygon fill="#D9CF00" stroke="#000000" stroke-width="0.2" stroke-miterlimit="10" points="796.4,132.4 736.1,134.4 
			754.8,157.7 		"/>
		<polygon fill="#6E7A03" stroke="#000000" stroke-width="0.2" stroke-miterlimit="10" points="606.4,530.1 715.4,495.7 
			737.8,391.7 		"/>
		<polygon fill="#7B8800" stroke="#000000" stroke-width="0.2" stroke-miterlimit="10" points="508.1,373.4 606.4,530.1 
			737.8,391.7 		"/>
		<polygon fill="#E3DE04" stroke="#000000" stroke-width="0.2" stroke-miterlimit="10" points="754.8,157.7 736.1,134.4 
			705.8,202.1 		"/>
		<path fill="#988E05" stroke="#000000" stroke-width="0.2" stroke-miterlimit="10" d="M810.4,226.4L810.4,226.4L810.4,226.4z"/>
		<polygon fill="#988E05" stroke="#000000" stroke-width="0.2" stroke-miterlimit="10" points="810.4,226.4 798.4,257.4 
			882.4,213.1 819.8,201.4 		"/>
		<polygon fill="#D6DA22" stroke="#000000" stroke-width="0.2" stroke-miterlimit="10" points="705.8,202.1 764.4,202.4 
			754.8,157.7 		"/>
		<polygon fill="#949F00" stroke="#000000" stroke-width="0.2" stroke-miterlimit="10" points="810.4,226.4 764.4,202.4 
			798.4,257.4 		"/>
		<polygon fill="#5A4D04" stroke="#000000" stroke-width="0.2" stroke-miterlimit="10" points="810.4,226.4 810.4,226.4 
			819.8,201.4 779.8,210.4 		"/>
		<polygon fill="#AAB200" stroke="#000000" stroke-width="0.2" stroke-miterlimit="10" points="705.8,202.1 798.4,257.4 
			764.4,202.4 		"/>
		<polygon fill="#F9F600" stroke="#000000" stroke-width="0.2" stroke-miterlimit="10" points="839.8,131.1 744.4,46.7 736.1,134.4 
					"/>
		<polygon fill="#BFC708" stroke="#000000" stroke-width="0.2" stroke-miterlimit="10" points="798.4,257.4 908.1,347.4 
			882.4,213.1 		"/>
		<polygon fill="#889600" stroke="#000000" stroke-width="0.2" stroke-miterlimit="10" points="698.1,281.7 798.4,257.4 
			705.8,202.1 		"/>
		<polygon fill="#B2C303" stroke="#000000" stroke-width="0.2" stroke-miterlimit="10" points="698.1,281.7 908.1,347.4 
			798.4,257.4 		"/>
		<polygon fill="#737407" stroke="#000000" stroke-width="0.2" stroke-miterlimit="10" points="715.4,495.7 908.1,347.4 
			737.8,391.7 		"/>
		<polygon fill="#C99808" stroke="#000000" stroke-width="0.2" stroke-miterlimit="10" points="737.8,391.7 698.1,281.7 
			508.1,373.4 		"/>
		<polygon fill="#818013" stroke="#000000" stroke-width="0.2" stroke-miterlimit="10" points="737.8,391.7 908.1,347.4 
			698.1,281.7 		"/>
		<polygon fill="#D1C405" stroke="#000000" stroke-width="0.2" stroke-miterlimit="10" points="882.4,213.1 908.1,347.4 
			1000.1,309.1 		"/>
		<polygon fill="#F7F108" stroke="#000000" stroke-width="0.2" stroke-miterlimit="10" points="998.1,266.4 882.4,213.1 
			1000.1,309.1 		"/>
		<polygon fill="#786111" stroke="#000000" stroke-width="0.2" stroke-miterlimit="10" points="819.8,201.4 832.4,168.7 
			809.4,186.7 		"/>
		<polygon fill="#A38105" stroke="#000000" stroke-width="0.2" stroke-miterlimit="10" points="781.1,188.1 764.4,202.4 
			779.8,210.4 		"/>
		<polygon fill="#503602" stroke="#000000" stroke-width="0.2" stroke-miterlimit="10" points="779.8,210.4 819.8,201.4 
			797.1,192.1 		"/>
		<polygon fill="#503803" stroke="#000000" stroke-width="0.2" stroke-miterlimit="10" points="779.8,210.4 797.1,192.1 
			781.1,188.1 		"/>
		<polygon fill="#875E00" stroke="#000000" stroke-width="0.2" stroke-miterlimit="10" points="797.1,192.1 819.8,201.4 
			809.4,186.7 		"/>
		<polygon fill="#FBD113" stroke="#000000" stroke-width="0.2" stroke-miterlimit="10" points="784.1,160.1 796.4,132.4 
			754.8,157.7 		"/>
		<polygon fill="#DFB70B" stroke="#000000" stroke-width="0.2" stroke-miterlimit="10" points="832.4,168.7 796.4,132.4 
			807.8,168.4 		"/>
		<polygon fill="#6A4400" stroke="#000000" stroke-width="0.2" stroke-miterlimit="10" points="807.8,168.4 796.4,132.4 
			784.1,160.1 		"/>
		<polygon fill="#D6B000" stroke="#000000" stroke-width="0.2" stroke-miterlimit="10" points="784.1,160.1 754.8,157.7 
			773.4,179.1 		"/>
		<polygon fill="#E2B204" stroke="#000000" stroke-width="0.2" stroke-miterlimit="10" points="773.4,179.1 764.4,202.4 
			781.1,188.1 		"/>
		<polygon fill="#D0AF0B" stroke="#000000" stroke-width="0.2" stroke-miterlimit="10" points="754.8,157.7 764.4,202.4 
			773.4,179.1 		"/>
		<polygon fill="#B88706" stroke="#000000" stroke-width="0.2" stroke-miterlimit="10" points="809.4,186.7 832.4,168.7 
			807.8,168.4 		"/>
		<polygon fill="#0A0C0B" stroke="#000000" stroke-width="0.2" stroke-miterlimit="10" points="797.1,192.1 784.1,160.1 
			781.1,188.1 		"/>
		<polygon fill="#0B0A0D" stroke="#000000" stroke-width="0.2" stroke-miterlimit="10" points="809.4,186.7 807.8,168.4 
			797.1,192.1 		"/>
		<polygon fill="#0C0E0F" stroke="#000000" stroke-width="0.2" stroke-miterlimit="10" points="807.8,168.4 784.1,160.1 
			797.1,192.1 		"/>
		<polygon fill="#090E0B" stroke="#000000" stroke-width="0.2" stroke-miterlimit="10" points="781.1,188.1 784.1,160.1 
			773.4,179.1 		"/>
		<polygon fill="#807C04" stroke="#000000" stroke-width="0.2" stroke-miterlimit="10" points="784.4,462.7 908.1,347.4 
			715.4,495.7 		"/>
		<polygon fill="#947605" stroke="#000000" stroke-width="0.2" stroke-miterlimit="10" points="628.8,543.7 715.4,495.7 
			579.8,559.1 		"/>
	</g>
	<g>
		<polygon fill="#A9C204" stroke="#000000" stroke-width="0.1" stroke-miterlimit="10" points="0.1,292.1 34.8,385.1 136.8,304.7 		
			"/>
		<polygon fill="#D3C305" stroke="#000000" stroke-width="0.1" stroke-miterlimit="10" points="147.4,548.4 198.1,446.7 
			105.4,476.1 		"/>
		<polygon fill="#84A100" stroke="#000000" stroke-width="0.1" stroke-miterlimit="10" points="34.8,385.1 105.4,476.1 136.8,304.7 
					"/>
		<polygon fill="#7A8400" stroke="#000000" stroke-width="0.1" stroke-miterlimit="10" points="105.4,476.1 198.1,446.7 
			136.8,304.7 		"/>
		<polygon fill="#D3CE0C" stroke="#000000" stroke-width="0.1" stroke-miterlimit="10" points="365.4,146.1 283.8,202.7 
			261.4,301.4 		"/>
		<polygon fill="#EEE100" stroke="#000000" stroke-width="0.1" stroke-miterlimit="10" points="609.1,0.1 265.4,56.7 467.1,75.7 		
			"/>
		<polygon fill="#D4A002" stroke="#000000" stroke-width="0.1" stroke-miterlimit="10" points="239.8,317.4 166.1,372.4 
			288.8,388.4 261.4,301.4 		"/>
		<polygon fill="#C69D01" stroke="#000000" stroke-width="0.1" stroke-miterlimit="10" points="198.1,446.7 245.8,382.7 
			166.1,372.4 		"/>
		<polygon fill="#F4E900" stroke="#000000" stroke-width="0.1" stroke-miterlimit="10" points="239.8,317.4 224.4,315.4 
			224.4,315.4 136.8,304.7 166.1,372.4 		"/>
		<polygon fill="#817B08" stroke="#000000" stroke-width="0.1" stroke-miterlimit="10" points="237.1,394.7 235.8,445.4 
			417.1,477.7 		"/>
		<polygon fill="#B29D0A" stroke="#000000" stroke-width="0.1" stroke-miterlimit="10" points="288.8,388.4 237.1,394.7 
			417.1,477.7 		"/>
		<polygon fill="#B86103" stroke="#000000" stroke-width="0.1" stroke-miterlimit="10" points="245.8,382.7 237.1,394.7 
			288.8,388.4 		"/>
		<polygon fill="#8F8C04" stroke="#000000" stroke-width="0.1" stroke-miterlimit="10" points="235.8,445.4 333.8,547.1 
			417.1,477.7 		"/>
		<polygon fill="#CBAB00" stroke="#000000" stroke-width="0.1" stroke-miterlimit="10" points="333.8,547.1 606.4,530.1 
			417.1,477.7 		"/>
		<polygon fill="#C48600" stroke="#000000" stroke-width="0.1" stroke-miterlimit="10" points="473.1,560.7 606.4,530.1 
			333.8,547.1 		"/>
		<polygon fill="#D79A02" stroke="#000000" stroke-width="0.1" stroke-miterlimit="10" points="261.4,301.4 288.8,388.4 
			365.4,146.1 		"/>
		<polygon fill="#F4F201" stroke="#000000" stroke-width="0.1" stroke-miterlimit="10" points="365.4,146.1 744.4,46.7 467.1,75.7 
					"/>
		<polygon fill="#D2B60E" stroke="#000000" stroke-width="0.1" stroke-miterlimit="10" points="365.4,146.1 288.8,388.4 
			394.4,332.1 		"/>
		<polygon fill="#F5F405" stroke="#000000" stroke-width="0.1" stroke-miterlimit="10" points="736.1,134.4 744.4,46.7 365.4,146.1 
					"/>
		<polygon fill="#948A04" stroke="#000000" stroke-width="0.1" stroke-miterlimit="10" points="417.1,477.7 606.4,530.1 
			508.1,373.4 		"/>
		<polygon fill="#948A04" stroke="#000000" stroke-width="0.1" stroke-miterlimit="10" points="394.4,332.1 394.4,332.1 
			508.1,373.4 365.4,146.1 		"/>
		<polygon fill="#E0DB06" stroke="#000000" stroke-width="0.1" stroke-miterlimit="10" points="736.1,134.4 365.4,146.1 
			705.8,202.1 		"/>
		<polygon fill="#CBCB01" stroke="#000000" stroke-width="0.1" stroke-miterlimit="10" points="365.4,146.1 698.1,281.7 
			705.8,202.1 		"/>
		<polygon fill="#E4DF05" stroke="#000000" stroke-width="0.1" stroke-miterlimit="10" points="508.1,373.4 698.1,281.7 
			365.4,146.1 		"/>
		<polygon fill="#BAD008" stroke="#000000" stroke-width="0.1" stroke-miterlimit="10" points="265.4,56.7 283.8,202.7 365.4,146.1 
					"/>
		<polygon fill="#C0AD07" stroke="#000000" stroke-width="0.1" stroke-miterlimit="10" points="417.1,477.7 508.1,373.4 
			394.4,332.1 		"/>
		<polygon fill="#946100" stroke="#000000" stroke-width="0.1" stroke-miterlimit="10" points="394.4,332.1 288.8,388.4 
			417.1,477.7 		"/>
		<polygon fill="#DFEA02" stroke="#000000" stroke-width="0.1" stroke-miterlimit="10" points="467.1,75.7 265.4,56.7 365.4,146.1 
					"/>
		<polygon fill="#FFF607" stroke="#000000" stroke-width="0.1" stroke-miterlimit="10" points="429.1,11.7 265.4,56.7 609.1,0.1 		
			"/>
		<polygon fill="#FFF607" stroke="#000000" stroke-width="0.1" stroke-miterlimit="10" points="255.1,86.1 283.8,202.7 265.4,56.7 
					"/>
		<polygon fill="#948A04" stroke="#000000" stroke-width="0.1" stroke-miterlimit="10" points="261.4,301.4 283.8,202.7 
			224.4,315.4 224.4,315.4 		"/>
		<polygon fill="#AFAA01" stroke="#000000" stroke-width="0.1" stroke-miterlimit="10" points="270.4,500.7 333.8,547.1 
			235.8,445.4 		"/>
		<polygon fill="#B86103" stroke="#000000" stroke-width="0.1" stroke-miterlimit="10" points="224.4,315.4 239.8,317.4 
			261.4,301.4 		"/>
	</g>
</g>
</svg>
