<?xml version="1.0" encoding="utf-8"?>
<!-- Generator: Adobe Illustrator 24.1.0, SVG Export Plug-In . SVG Version: 6.00 Build 0)  -->
<svg version="1.1" baseProfile="tiny" id="Layer_1" xmlns="http://www.w3.org/2000/svg" xmlns:xlink="http://www.w3.org/1999/xlink"
	 x="0px" y="0px" viewBox="0 0 1000.8 697.5" xml:space="preserve">
<g>
	<polygon fill="#EEEFEF" stroke="#000000" stroke-width="0.2" stroke-miterlimit="10" points="425.2,595 500.8,586.7 439.2,535.4 	
		"/>
	<polygon fill="#B3B5B7" stroke="#000000" stroke-width="0.2" stroke-miterlimit="10" points="384.8,566.4 425.2,595 439.2,535.4 	
		"/>
	<polygon fill="#9B9DA1" stroke="#000000" stroke-width="0.2" stroke-miterlimit="10" points="384.8,566.4 422.2,644.7 425.2,595 	
		"/>
	<polygon fill="#B3B5B7" stroke="#000000" stroke-width="0.2" stroke-miterlimit="10" points="425.2,595 422.2,644.7 500.8,586.7 	
		"/>
	<polygon fill="#EEEFEF" stroke="#000000" stroke-width="0.2" stroke-miterlimit="10" points="422.2,644.7 500.5,644.7 500.8,586.7 
			"/>
	<polygon fill="#85878A" stroke="#000000" stroke-width="0.2" stroke-miterlimit="10" points="348.2,596.7 422.2,644.7 384.8,566.4 
			"/>
	<polygon fill="#9B9DA1" stroke="#000000" stroke-width="0.2" stroke-miterlimit="10" points="348.2,596.7 389.2,649 422.2,644.7 	
		"/>
	<polygon fill="#85878A" stroke="#000000" stroke-width="0.2" stroke-miterlimit="10" points="503.8,526.7 474.2,402.7 439.2,535.4 
			"/>
	<polygon fill="#9B9DA1" stroke="#000000" stroke-width="0.2" stroke-miterlimit="10" points="439.2,535.4 474.2,402.7 417.2,462.7 
			"/>
	<polygon fill="#85878A" stroke="#000000" stroke-width="0.2" stroke-miterlimit="10" points="417.2,462.7 384.8,566.4 439.2,535.4 
			"/>
	<polygon fill="#9B9DA1" stroke="#000000" stroke-width="0.2" stroke-miterlimit="10" points="295.2,443 348.2,596.7 384.8,566.4 	
		"/>
	<polygon fill="#B3B5B7" stroke="#000000" stroke-width="0.2" stroke-miterlimit="10" points="295.2,443 384.8,566.4 417.2,462.7 	
		"/>
	<polygon fill="#EEEFEF" stroke="#000000" stroke-width="0.2" stroke-miterlimit="10" points="203.8,418 266.8,496 266.8,496 
		295.2,443 	"/>
	<polygon fill="#B3B5B7" stroke="#000000" stroke-width="0.2" stroke-miterlimit="10" points="203.8,418 249.5,566 266.8,496 	"/>
	<polygon fill="#85878A" stroke="#000000" stroke-width="0.2" stroke-miterlimit="10" points="249.5,566 389.2,649 348.2,596.7 	"/>
	<polygon fill="#CACCCE" stroke="#000000" stroke-width="0.2" stroke-miterlimit="10" points="266.8,496 348.2,596.7 295.2,443 	"/>
	<polygon fill="#CACCCE" stroke="#000000" stroke-width="0.2" stroke-miterlimit="10" points="344.8,377.7 203.8,418 295.2,443 	"/>
	<polygon fill="#63350D" stroke="#000000" stroke-width="0.2" stroke-miterlimit="10" points="340.8,414 344.8,377.7 322.2,408 	"/>
	<polygon fill="#230800" stroke="#000000" stroke-width="0.2" stroke-miterlimit="10" points="340.8,414 338.8,450 375.5,424.7 	"/>
	<path fill="#230800" stroke="#000000" stroke-width="0.2" stroke-miterlimit="10" d="M340.8,414l-18.7-6L340.8,414z"/>
	<polygon fill="#7C4923" stroke="#000000" stroke-width="0.2" stroke-miterlimit="10" points="375.5,400 344.8,377.7 375.5,424.7 	
		"/>
	<polygon fill="#230800" stroke="#000000" stroke-width="0.2" stroke-miterlimit="10" points="321.5,427.7 338.8,450 322.2,408 	"/>
	<polygon fill="#6F7175" stroke="#000000" stroke-width="0.2" stroke-miterlimit="10" points="322.2,408 295.2,443 321.5,427.7 	"/>
	<polygon fill="#5A5B5E" stroke="#000000" stroke-width="0.2" stroke-miterlimit="10" points="321.5,427.7 295.2,443 338.8,450 	"/>
	<polygon fill="#9B9DA1" stroke="#000000" stroke-width="0.2" stroke-miterlimit="10" points="338.8,450 417.2,462.7 375.5,424.7 	
		"/>
	<polygon fill="#E2E3E4" stroke="#000000" stroke-width="0.2" stroke-miterlimit="10" points="417.2,462.7 474.2,402.7 375.5,400 	
		"/>
	<polygon fill="#B3B5B7" stroke="#000000" stroke-width="0.2" stroke-miterlimit="10" points="375.5,424.7 417.2,462.7 375.5,400 	
		"/>
	<polygon fill="#4B1F00" stroke="#000000" stroke-width="0.2" stroke-miterlimit="10" points="340.8,414 375.5,424.7 344.8,377.7 	
		"/>
	<polygon fill="#4B1F00" stroke="#000000" stroke-width="0.2" stroke-miterlimit="10" points="322.2,408 338.8,450 340.8,414 	"/>
	<polygon fill="#CACCCE" stroke="#000000" stroke-width="0.2" stroke-miterlimit="10" points="474.2,402.7 344.8,377.7 375.5,400 	
		"/>
	<polygon fill="#9B9DA1" stroke="#000000" stroke-width="0.2" stroke-miterlimit="10" points="474.2,402.7 361.5,283.7 344.8,377.7 
			"/>
	<polygon fill="#B3B5B7" stroke="#000000" stroke-width="0.2" stroke-miterlimit="10" points="361.5,283.7 276.8,356 344.8,377.7 	
		"/>
	<polygon fill="#CACCCE" stroke="#000000" stroke-width="0.2" stroke-miterlimit="10" points="474.2,402.7 419.2,180 361.5,283.7 
		446.2,295.3 	"/>
	<polygon fill="#CACCCE" stroke="#000000" stroke-width="0.2" stroke-miterlimit="10" points="276.8,356 361.5,283.7 184.2,277.4 
		276.5,356 	"/>
	<polygon fill="#9B9DA1" stroke="#000000" stroke-width="0.2" stroke-miterlimit="10" points="419.2,180 290.8,88 361.5,283.7 	"/>
	<polygon fill="#B3B5B7" stroke="#000000" stroke-width="0.2" stroke-miterlimit="10" points="290.8,88 184.2,277.4 361.5,283.7 	
		"/>
	<polygon fill="#6F7175" stroke="#000000" stroke-width="0.2" stroke-miterlimit="10" points="181.2,454.4 249.5,566 203.8,418 	"/>
	<polygon fill="#9B9DA1" stroke="#000000" stroke-width="0.2" stroke-miterlimit="10" points="184.2,277.4 181.2,454.4 203.8,418 	
		"/>
	<polygon fill="#B3B5B7" stroke="#000000" stroke-width="0.2" stroke-miterlimit="10" points="502.8,316.4 419.2,180 474.2,402.7 	
		"/>
	<polygon fill="#4B1F00" stroke="#000000" stroke-width="0.2" stroke-miterlimit="10" points="439.2,535.4 500.8,586.7 503.8,526.7 
			"/>
	<polygon fill="#CACCCE" stroke="#000000" stroke-width="0.2" stroke-miterlimit="10" points="527.2,402.7 502.8,316.4 474.2,402.7 
			"/>
	<polygon fill="#6F7175" stroke="#000000" stroke-width="0.2" stroke-miterlimit="10" points="503.8,526.7 527.2,402.7 474.2,402.7 
			"/>
	<polygon fill="#9B9DA1" stroke="#000000" stroke-width="0.2" stroke-miterlimit="10" points="500.5,644.7 422.2,644.7 501.8,697.4 
		579.2,644.7 	"/>
	<polygon fill="#6F7175" stroke="#000000" stroke-width="0.2" stroke-miterlimit="10" points="389.2,649 501.8,697.4 422.2,644.7 	
		"/>
	<polygon fill="#9B9DA1" stroke="#000000" stroke-width="0.2" stroke-miterlimit="10" points="266.8,496 266.8,496 249.5,566 
		348.2,596.7 	"/>
	<polygon fill="#EEEFEF" stroke="#000000" stroke-width="0.2" stroke-miterlimit="10" points="581.8,180 419.2,180 502.8,316.4 	"/>
	<polygon fill="#CACCCE" stroke="#000000" stroke-width="0.2" stroke-miterlimit="10" points="500.2,62.4 290.8,88 419.2,180 	"/>
	<polygon fill="#E2E3E4" stroke="#000000" stroke-width="0.2" stroke-miterlimit="10" points="581.8,180 502.8,316.4 527.2,402.7 
		551.5,304.4 551.5,304.4 582.2,180 582.2,180 500.2,62.4 419.2,180 	"/>
	<polygon fill="#EEEFEF" stroke="#000000" stroke-width="0.2" stroke-miterlimit="10" points="446.2,295.3 361.5,283.7 474.2,402.7 
			"/>
	<polygon fill="#B3B5B7" stroke="#000000" stroke-width="0.2" stroke-miterlimit="10" points="276.5,356 184.2,277.4 203.8,418 	"/>
	<polygon fill="#9B9DA1" stroke="#000000" stroke-width="0.2" stroke-miterlimit="10" points="276.8,356 276.5,356 203.8,418 
		344.8,377.7 	"/>
	<polygon fill="#F3A08C" stroke="#000000" stroke-width="0.2" stroke-miterlimit="10" points="134.2,174.4 290.8,88 93.8,90.3 	"/>
	<polygon fill="#D07C68" stroke="#000000" stroke-width="0.2" stroke-miterlimit="10" points="88.8,204.7 184.2,277.4 133.8,174.4 	
		"/>
	<polygon fill="#D07C68" stroke="#000000" stroke-width="0.2" stroke-miterlimit="10" points="133.8,174.4 134.2,174.4 93.8,90.3 	
		"/>
	<polygon fill="#B75B47" stroke="#000000" stroke-width="0.2" stroke-miterlimit="10" points="134.2,174.4 133.8,174.4 184.2,277.4 
		290.8,88 	"/>
	<polygon fill="#EA8E79" stroke="#000000" stroke-width="0.2" stroke-miterlimit="10" points="88.8,204.7 133.8,174.4 93.8,90.3 	
		"/>
	<polygon fill="#B75B47" stroke="#000000" stroke-width="0.2" stroke-miterlimit="10" points="93.8,90.3 290.8,88 134.2,62.4 	"/>
	<polygon fill="#F3A08C" stroke="#000000" stroke-width="0.2" stroke-miterlimit="10" points="73.2,145.7 88.8,204.7 93.8,90.3 	"/>
	<polygon fill="#CACCCE" stroke="#000000" stroke-width="0.2" stroke-miterlimit="10" points="290.8,88 222.5,0.3 134.2,62.4 	"/>
	<polygon fill="#E2E3E4" stroke="#000000" stroke-width="0.2" stroke-miterlimit="10" points="134.2,62.4 222.5,0.3 23.2,36 
		93.8,90.3 	"/>
	<polygon fill="#B3B5B7" stroke="#000000" stroke-width="0.2" stroke-miterlimit="10" points="23.2,36 0.5,180.3 93.8,90.3 	"/>
	<polygon fill="#CACCCE" stroke="#000000" stroke-width="0.2" stroke-miterlimit="10" points="93.8,90.3 0.5,180.3 73.2,145.7 	"/>
	<polygon fill="#B3B5B7" stroke="#000000" stroke-width="0.2" stroke-miterlimit="10" points="73.2,145.7 0.5,180.3 88.8,204.7 	"/>
	<polygon fill="#CACCCE" stroke="#000000" stroke-width="0.2" stroke-miterlimit="10" points="54.2,292.4 184.2,277.4 88.8,204.7 	
		"/>
	<polygon fill="#E2E3E4" stroke="#000000" stroke-width="0.2" stroke-miterlimit="10" points="0.5,180.3 54.2,292.4 88.8,204.7 	"/>
	<polygon fill="#85878A" stroke="#000000" stroke-width="0.2" stroke-miterlimit="10" points="183.2,342 184.2,277.4 54.2,292.4 	
		"/>
	<polygon fill="#B3B5B7" stroke="#000000" stroke-width="0.2" stroke-miterlimit="10" points="390.2,75.7 222.5,0.3 290.8,88 	"/>
</g>
<g>
	<polygon fill="#230800" stroke="#000000" stroke-width="0.1" stroke-miterlimit="10" points="503.8,526.7 500.8,586.7 562.2,535.4 
			"/>
	<polygon fill="#CACCCE" stroke="#000000" stroke-width="0.1" stroke-miterlimit="10" points="500.8,586.7 576.2,595 562.2,535.4 	
		"/>
	<polygon fill="#B3B5B7" stroke="#000000" stroke-width="0.1" stroke-miterlimit="10" points="576.2,595 616.5,566.4 562.2,535.4 	
		"/>
	<polygon fill="#9B9DA1" stroke="#000000" stroke-width="0.1" stroke-miterlimit="10" points="576.2,595 579.2,644.7 616.5,566.4 	
		"/>
	<polygon fill="#B3B5B7" stroke="#000000" stroke-width="0.1" stroke-miterlimit="10" points="500.8,586.7 579.2,644.7 576.2,595 	
		"/>
	<polygon fill="#E2E3E4" stroke="#000000" stroke-width="0.1" stroke-miterlimit="10" points="500.5,644.7 579.2,644.7 500.8,586.7 
			"/>
	<polygon fill="#85878A" stroke="#000000" stroke-width="0.1" stroke-miterlimit="10" points="579.2,644.7 652.5,597 652.8,596.7 
		616.5,566.4 	"/>
	<polygon fill="#9B9DA1" stroke="#000000" stroke-width="0.1" stroke-miterlimit="10" points="579.2,644.7 612.2,649 652.5,597 	"/>
	<polygon fill="#85878A" stroke="#000000" stroke-width="0.1" stroke-miterlimit="10" points="562.2,535.4 527.2,402.7 503.8,526.7 
			"/>
	<polygon fill="#9B9DA1" stroke="#000000" stroke-width="0.1" stroke-miterlimit="10" points="584.2,462.7 527.2,402.7 562.2,535.4 
			"/>
	<polygon fill="#85878A" stroke="#000000" stroke-width="0.1" stroke-miterlimit="10" points="562.2,535.4 616.5,566.4 584.2,462.7 
			"/>
	<polygon fill="#B3B5B7" stroke="#000000" stroke-width="0.1" stroke-miterlimit="10" points="653.2,596.4 652.8,596.7 652.5,597 
		612.2,649 652.8,596.7 	"/>
	<polygon fill="#85878A" stroke="#000000" stroke-width="0.1" stroke-miterlimit="10" points="612.2,649 751.8,566 652.8,596.7 	"/>
	<polygon fill="#E2E3E4" stroke="#000000" stroke-width="0.1" stroke-miterlimit="10" points="625.8,400 527.2,402.7 584.2,462.7 	
		"/>
	<polygon fill="#B3B5B7" stroke="#000000" stroke-width="0.1" stroke-miterlimit="10" points="625.8,400 584.2,462.7 625.8,424.7 	
		"/>
	<polygon fill="#9B9DA1" stroke="#000000" stroke-width="0.1" stroke-miterlimit="10" points="710.2,88 582.2,180 639.8,283.7 
		710.2,88.3 	"/>
	<polygon fill="#6F7175" stroke="#000000" stroke-width="0.1" stroke-miterlimit="10" points="501.8,697.4 612.2,649 579.2,644.7 	
		"/>
	<polygon fill="#CACCCE" stroke="#000000" stroke-width="0.1" stroke-miterlimit="10" points="582.2,180 551.5,304.4 639.8,283.7 
		582.2,180 710.2,88 710.2,88 685.5,85 500.2,62.4 	"/>
	<polygon fill="#EEEFEF" stroke="#000000" stroke-width="0.1" stroke-miterlimit="10" points="551.5,304.4 551.5,304.4 527.2,402.7 
		639.8,283.7 	"/>
	<polygon fill="#F3A08C" stroke="#000000" stroke-width="0.1" stroke-miterlimit="10" points="907.2,90.3 710.2,88 866.8,174.4 	"/>
	<polygon fill="#D07C68" stroke="#000000" stroke-width="0.1" stroke-miterlimit="10" points="867.2,174.4 907.2,90.3 866.8,174.4 	
		"/>
	<polygon fill="#B75B47" stroke="#000000" stroke-width="0.1" stroke-miterlimit="10" points="866.8,62.4 710.2,88 907.2,90.3 	"/>
	<polygon fill="#CACCCE" stroke="#000000" stroke-width="0.1" stroke-miterlimit="10" points="866.8,62.4 778.5,0.3 710.2,88 	"/>
	<polygon fill="#E2E3E4" stroke="#000000" stroke-width="0.1" stroke-miterlimit="10" points="907.2,90.3 977.8,36 778.5,0.3 
		866.8,62.4 	"/>
	<polygon fill="#B3B5B7" stroke="#000000" stroke-width="0.1" stroke-miterlimit="10" points="1000.5,180.3 977.8,36 907.2,90.3 	
		"/>
	<polygon fill="#CACCCE" stroke="#000000" stroke-width="0.1" stroke-miterlimit="10" points="927.8,145.7 1000.5,180.3 907.2,90.3 
			"/>
	<polygon fill="#9B9DA1" stroke="#000000" stroke-width="0.1" stroke-miterlimit="10" points="616.5,566.4 652.8,596.7 653.2,596.4 
		706.2,443 	"/>
	<polygon fill="#B3B5B7" stroke="#000000" stroke-width="0.1" stroke-miterlimit="10" points="616.5,566.4 706.2,443 584.2,462.7 	
		"/>
	<polygon fill="#EEEFEF" stroke="#000000" stroke-width="0.1" stroke-miterlimit="10" points="734.2,496 797.2,418 706.2,443 	"/>
	<polygon fill="#B3B5B7" stroke="#000000" stroke-width="0.1" stroke-miterlimit="10" points="734.5,496.4 797.2,418 734.2,496 	"/>
	<polygon fill="#B3B5B7" stroke="#000000" stroke-width="0.1" stroke-miterlimit="10" points="652.8,596.7 751.8,566 734.5,496.4 	
		"/>
	<polygon fill="#CACCCE" stroke="#000000" stroke-width="0.1" stroke-miterlimit="10" points="706.2,443 653.2,596.4 652.8,596.7 
		734.5,496.4 734.2,496 	"/>
	<polygon fill="#CACCCE" stroke="#000000" stroke-width="0.1" stroke-miterlimit="10" points="706.2,443 797.2,418 656.5,377.7 	"/>
	<polygon fill="#63350D" stroke="#000000" stroke-width="0.1" stroke-miterlimit="10" points="678.8,408 656.5,377.7 660.2,414 	"/>
	<polygon fill="#230800" stroke="#000000" stroke-width="0.1" stroke-miterlimit="10" points="660.2,414 625.8,424.7 662.2,450 	"/>
	<polygon fill="#230800" stroke="#000000" stroke-width="0.1" stroke-miterlimit="10" points="660.2,414 660.2,414 678.8,408 	"/>
	<polygon fill="#7C4923" stroke="#000000" stroke-width="0.1" stroke-miterlimit="10" points="625.8,424.7 656.5,377.7 625.8,400 	
		"/>
	<polygon fill="#230800" stroke="#000000" stroke-width="0.1" stroke-miterlimit="10" points="679.8,427.7 678.8,408 662.2,450 	"/>
	<polygon fill="#6F7175" stroke="#000000" stroke-width="0.1" stroke-miterlimit="10" points="679.8,427.7 706.2,443 678.8,408 	"/>
	<polygon fill="#5A5B5E" stroke="#000000" stroke-width="0.1" stroke-miterlimit="10" points="662.2,450 706.2,443 679.8,427.7 	"/>
	<polygon fill="#9B9DA1" stroke="#000000" stroke-width="0.1" stroke-miterlimit="10" points="625.8,424.7 584.2,462.7 662.2,450 	
		"/>
	<polygon fill="#4B1F00" stroke="#000000" stroke-width="0.1" stroke-miterlimit="10" points="660.2,414 660.2,414 656.5,377.7 
		625.8,424.7 	"/>
	<polygon fill="#4B1F00" stroke="#000000" stroke-width="0.1" stroke-miterlimit="10" points="678.8,408 660.2,414 662.2,450 	"/>
	<polygon fill="#CACCCE" stroke="#000000" stroke-width="0.1" stroke-miterlimit="10" points="656.5,377.7 527.2,402.7 625.8,400 	
		"/>
	<polygon fill="#9B9DA1" stroke="#000000" stroke-width="0.1" stroke-miterlimit="10" points="639.8,283.7 527.2,402.7 656.5,377.7 
			"/>
	<polygon fill="#6F7175" stroke="#000000" stroke-width="0.1" stroke-miterlimit="10" points="751.8,566 820.2,454.4 797.2,418 	"/>
	<polygon fill="#CACCCE" stroke="#000000" stroke-width="0.1" stroke-miterlimit="10" points="734.5,496.4 751.8,566 797.2,418 	"/>
	<g>
		<polygon fill="#B3B5B7" stroke="#000000" stroke-width="0.1" stroke-miterlimit="10" points="639.8,283.7 816.8,277.4 
			816.8,277.4 710.2,88.3 		"/>
		<polygon fill="#D07C68" stroke="#000000" stroke-width="0.1" stroke-miterlimit="10" points="867.2,174.4 816.8,277.4 
			912.2,204.7 		"/>
		<polygon fill="#B75B47" stroke="#000000" stroke-width="0.1" stroke-miterlimit="10" points="866.8,174.4 710.2,88 710.2,88 
			710.2,88.3 816.8,277.4 867.2,174.4 		"/>
		<polygon fill="#EA8E79" stroke="#000000" stroke-width="0.1" stroke-miterlimit="10" points="912.2,204.7 907.2,90.3 867.2,174.4 
					"/>
		<polygon fill="#F3A08C" stroke="#000000" stroke-width="0.1" stroke-miterlimit="10" points="927.8,145.7 907.2,90.3 912.2,204.7 
					"/>
		<polygon fill="#B3B5B7" stroke="#000000" stroke-width="0.1" stroke-miterlimit="10" points="912.2,204.7 1000.5,180.3 
			927.8,145.7 		"/>
		<polygon fill="#CACCCE" stroke="#000000" stroke-width="0.1" stroke-miterlimit="10" points="816.8,277.4 946.8,292.4 
			912.2,204.7 		"/>
		<polygon fill="#E2E3E4" stroke="#000000" stroke-width="0.1" stroke-miterlimit="10" points="946.8,292.4 1000.5,180.3 
			912.2,204.7 		"/>
		<polygon fill="#B3B5B7" stroke="#000000" stroke-width="0.1" stroke-miterlimit="10" points="639.8,283.7 656.5,377.7 
			713.2,346.4 797.2,418 816.8,278.7 816.8,277.4 713.2,346.4 		"/>
		<polygon fill="#CACCCE" stroke="#000000" stroke-width="0.1" stroke-miterlimit="10" points="713.2,346.4 816.8,277.4 
			816.8,277.4 639.8,283.7 		"/>
		<polygon fill="#9B9DA1" stroke="#000000" stroke-width="0.1" stroke-miterlimit="10" points="816.8,278.7 797.2,418 820.2,454.4 
			818.2,342 817.8,342 		"/>
		<polygon fill="#9B9DA1" stroke="#000000" stroke-width="0.1" stroke-miterlimit="10" points="656.5,377.7 797.2,418 713.2,346.4 
					"/>
		<polygon fill="#85878A" stroke="#000000" stroke-width="0.1" stroke-miterlimit="10" points="816.8,277.4 816.8,277.4 
			816.8,277.4 816.8,278.7 817.8,342 818.2,342 946.8,292.4 		"/>
	</g>
	<polygon fill="#B3B5B7" stroke="#000000" stroke-width="0.1" stroke-miterlimit="10" points="778.5,0.3 610.8,75.7 685.5,85 
		710.2,88 	"/>
</g>
</svg>
